0, 0, Header, 1, 15, 240
1, 0, Start_track
1, 0, Time_signature, 4, 2, 24, 8
1, 0, Tempo, 500000
1, 0, Marker_t, "Chopin: Scherzo Op. 31; Realtime sequence 7/97 by Ron Lubetsky, MD"
1, 100800, Tempo, 600000
1, 101760, Tempo, 576923
1, 102720, Tempo, 545455
1, 103680, Tempo, 535714
1, 104640, Tempo, 517241
1, 105600, Tempo, 500000
1, 140160, Tempo, 576923
1, 142080, Tempo, 545455
1, 143040, Tempo, 526316
1, 144000, Tempo, 500000
1, 150720, Tempo, 416667
1, 153600, Tempo, 454545
1, 154560, Tempo, 476190
1, 155520, Tempo, 500000
1, 222556, Marker_t, ">"
1, 222572, Marker_t, ">"
1, 222636, Marker_t, ">Pedal Up"
1, 222640, Marker_t, ">"
1, 222648, Marker_t, ">Pedal Up"
1, 222672, Marker_t, ">"
1, 222724, Marker_t, ">"
1, 222732, Marker_t, ">"
1, 222732, Marker_t, ">"
1, 222732, End_track
2, 0, Start_track
2, 0, Title_t, "Frederic Chopin:"
2, 0, Program_c, 0, 0
2, 0, Control_c, 0, 7, 95
2, 36, Note_on_c, 0, 58, 48
2, 37, Note_on_c, 0, 46, 48
2, 54, Control_c, 0, 64, 127
2, 163, Note_off_c, 0, 58, 64
2, 277, Note_off_c, 0, 46, 64
2, 296, Note_on_c, 0, 57, 31
2, 296, Note_on_c, 0, 45, 31
2, 325, Note_on_c, 0, 58, 35
2, 340, Note_on_c, 0, 46, 46
2, 346, Control_c, 0, 64, 0
2, 354, Note_on_c, 0, 49, 37
2, 360, Note_on_c, 0, 61, 50
2, 364, Note_off_c, 0, 45, 64
2, 372, Note_off_c, 0, 57, 64
2, 389, Note_off_c, 0, 58, 64
2, 391, Note_on_c, 0, 65, 39
2, 396, Note_off_c, 0, 46, 64
2, 396, Note_on_c, 0, 53, 39
2, 407, Note_off_c, 0, 61, 64
2, 408, Note_off_c, 0, 49, 64
2, 425, Note_off_c, 0, 53, 64
2, 428, Note_off_c, 0, 65, 64
2, 628, Note_on_c, 0, 57, 28
2, 636, Note_on_c, 0, 45, 28
2, 659, Note_on_c, 0, 46, 33
2, 660, Note_on_c, 0, 58, 33
2, 676, Note_off_c, 0, 45, 64
2, 692, Note_on_c, 0, 49, 28
2, 694, Note_off_c, 0, 57, 64
2, 701, Note_on_c, 0, 61, 33
2, 724, Note_off_c, 0, 46, 64
2, 730, Note_off_c, 0, 58, 64
2, 732, Note_on_c, 0, 65, 41
2, 748, Note_off_c, 0, 61, 64
2, 752, Note_on_c, 0, 53, 15
2, 755, Note_off_c, 0, 49, 64
2, 836, Control_c, 0, 64, 127
2, 950, Note_off_c, 0, 65, 64
2, 977, Note_off_c, 0, 53, 64
2, 1264, Control_c, 0, 64, 0
2, 1318, Note_on_c, 0, 58, 93
2, 1322, Note_on_c, 0, 34, 93
2, 1324, Note_on_c, 0, 46, 90
2, 1344, Control_c, 0, 64, 127
2, 1350, Note_off_c, 0, 46, 64
2, 1350, Note_off_c, 0, 58, 64
2, 1351, Note_off_c, 0, 34, 64
2, 1669, Note_on_c, 0, 94, 93
2, 1676, Note_on_c, 0, 90, 93
2, 1676, Note_on_c, 0, 82, 93
2, 1676, Note_on_c, 0, 70, 96
2, 1676, Note_on_c, 0, 60, 80
2, 1685, Note_on_c, 0, 66, 82
2, 1685, Note_on_c, 0, 58, 80
2, 1690, Note_on_c, 0, 63, 78
2, 1701, Control_c, 0, 64, 0
2, 1742, Control_c, 0, 64, 127
2, 1917, Note_off_c, 0, 58, 64
2, 1962, Note_off_c, 0, 63, 64
2, 1972, Note_off_c, 0, 90, 64
2, 1981, Note_off_c, 0, 94, 64
2, 2000, Note_off_c, 0, 66, 64
2, 2004, Note_off_c, 0, 82, 64
2, 2019, Note_off_c, 0, 60, 64
2, 2034, Note_off_c, 0, 70, 64
2, 2227, Note_on_c, 0, 75, 79
2, 2231, Note_on_c, 0, 87, 83
2, 2234, Note_on_c, 0, 84, 81
2, 2234, Note_on_c, 0, 70, 80
2, 2242, Note_on_c, 0, 60, 73
2, 2243, Note_on_c, 0, 66, 75
2, 2243, Note_on_c, 0, 58, 64
2, 2264, Note_off_c, 0, 75, 64
2, 2265, Note_off_c, 0, 58, 64
2, 2265, Note_off_c, 0, 84, 64
2, 2272, Note_off_c, 0, 66, 64
2, 2274, Note_off_c, 0, 70, 64
2, 2277, Note_off_c, 0, 60, 64
2, 2281, Note_off_c, 0, 87, 64
2, 2338, Note_on_c, 0, 84, 82
2, 2338, Note_on_c, 0, 77, 74
2, 2341, Note_on_c, 0, 58, 75
2, 2344, Note_on_c, 0, 89, 82
2, 2344, Note_on_c, 0, 66, 69
2, 2347, Note_on_c, 0, 70, 90
2, 2351, Note_on_c, 0, 60, 75
2, 2359, Note_off_c, 0, 66, 64
2, 2362, Note_off_c, 0, 77, 64
2, 2364, Note_off_c, 0, 84, 64
2, 2368, Note_off_c, 0, 70, 64
2, 2368, Note_off_c, 0, 89, 64
2, 2371, Note_off_c, 0, 60, 64
2, 2376, Note_off_c, 0, 58, 64
2, 2380, Note_on_c, 0, 84, 94
2, 2380, Note_on_c, 0, 78, 87
2, 2384, Note_on_c, 0, 90, 98
2, 2390, Note_on_c, 0, 66, 82
2, 2390, Note_on_c, 0, 58, 69
2, 2396, Note_on_c, 0, 70, 87
2, 2396, Note_on_c, 0, 60, 74
2, 2418, Note_off_c, 0, 84, 64
2, 2425, Note_off_c, 0, 78, 64
2, 2433, Note_off_c, 0, 90, 64
2, 2436, Note_off_c, 0, 60, 64
2, 2438, Note_off_c, 0, 70, 64
2, 2439, Note_off_c, 0, 66, 64
2, 2442, Note_off_c, 0, 58, 64
2, 2483, Control_c, 0, 64, 0
2, 2496, Note_on_c, 0, 58, 55
2, 2504, Note_on_c, 0, 85, 96
2, 2504, Note_on_c, 0, 77, 86
2, 2504, Note_on_c, 0, 70, 83
2, 2514, Note_on_c, 0, 89, 90
2, 2514, Note_on_c, 0, 65, 73
2, 2514, Note_on_c, 0, 61, 66
2, 2531, Control_c, 0, 64, 127
2, 2540, Note_off_c, 0, 70, 64
2, 2542, Note_off_c, 0, 77, 64
2, 2546, Note_off_c, 0, 65, 64
2, 2546, Note_off_c, 0, 89, 64
2, 2554, Note_off_c, 0, 61, 64
2, 2554, Note_off_c, 0, 85, 64
2, 2565, Note_off_c, 0, 58, 64
2, 2724, Note_on_c, 0, 45, 32
2, 2729, Note_on_c, 0, 57, 50
2, 2743, Note_on_c, 0, 46, 32
2, 2754, Note_on_c, 0, 58, 47
2, 2757, Control_c, 0, 64, 0
2, 2766, Note_on_c, 0, 49, 38
2, 2772, Note_off_c, 0, 45, 64
2, 2784, Note_on_c, 0, 61, 52
2, 2788, Note_off_c, 0, 57, 64
2, 2810, Note_off_c, 0, 46, 64
2, 2813, Note_on_c, 0, 53, 45
2, 2819, Note_off_c, 0, 58, 64
2, 2819, Note_on_c, 0, 65, 52
2, 2824, Note_off_c, 0, 49, 64
2, 2828, Note_off_c, 0, 61, 64
2, 2849, Note_off_c, 0, 65, 64
2, 2849, Note_off_c, 0, 53, 64
2, 3052, Note_on_c, 0, 57, 30
2, 3058, Note_on_c, 0, 45, 32
2, 3088, Note_on_c, 0, 46, 36
2, 3091, Note_on_c, 0, 58, 40
2, 3109, Note_off_c, 0, 45, 64
2, 3116, Note_on_c, 0, 49, 35
2, 3126, Note_off_c, 0, 57, 64
2, 3128, Note_on_c, 0, 61, 42
2, 3156, Note_off_c, 0, 46, 64
2, 3162, Note_off_c, 0, 58, 64
2, 3169, Note_on_c, 0, 65, 36
2, 3172, Note_on_c, 0, 53, 31
2, 3184, Note_off_c, 0, 61, 64
2, 3187, Note_off_c, 0, 49, 64
2, 3234, Control_c, 0, 64, 127
2, 3377, Note_off_c, 0, 65, 64
2, 3423, Note_off_c, 0, 53, 64
2, 3692, Control_c, 0, 64, 0
2, 3721, Note_on_c, 0, 56, 93
2, 3724, Note_on_c, 0, 32, 87
2, 3725, Note_on_c, 0, 44, 86
2, 3748, Control_c, 0, 64, 127
2, 3756, Note_off_c, 0, 44, 64
2, 3760, Note_off_c, 0, 32, 64
2, 3760, Note_off_c, 0, 56, 64
2, 4071, Control_c, 0, 64, 0
2, 4082, Note_on_c, 0, 92, 93
2, 4084, Note_on_c, 0, 73, 93
2, 4084, Note_on_c, 0, 65, 80
2, 4084, Note_on_c, 0, 56, 82
2, 4086, Note_on_c, 0, 89, 93
2, 4086, Note_on_c, 0, 80, 107
2, 4115, Control_c, 0, 64, 127
2, 4292, Note_off_c, 0, 73, 64
2, 4317, Note_off_c, 0, 65, 64
2, 4328, Note_off_c, 0, 89, 64
2, 4342, Note_off_c, 0, 92, 64
2, 4366, Note_off_c, 0, 80, 64
2, 4394, Note_off_c, 0, 56, 64
2, 4620, Note_on_c, 0, 87, 90
2, 4620, Note_on_c, 0, 66, 81
2, 4626, Note_on_c, 0, 75, 86
2, 4626, Note_on_c, 0, 68, 86
2, 4626, Note_on_c, 0, 56, 74
2, 4632, Note_on_c, 0, 84, 82
2, 4632, Note_on_c, 0, 63, 79
2, 4650, Note_off_c, 0, 56, 64
2, 4653, Note_off_c, 0, 75, 64
2, 4656, Note_off_c, 0, 84, 64
2, 4659, Note_off_c, 0, 63, 64
2, 4659, Note_off_c, 0, 68, 64
2, 4659, Note_off_c, 0, 66, 64
2, 4675, Note_off_c, 0, 87, 64
2, 4744, Note_on_c, 0, 84, 82
2, 4747, Note_on_c, 0, 77, 66
2, 4752, Note_on_c, 0, 66, 100
2, 4752, Note_on_c, 0, 56, 83
2, 4756, Note_on_c, 0, 89, 93
2, 4756, Note_on_c, 0, 68, 96
2, 4760, Note_on_c, 0, 63, 69
2, 4770, Note_off_c, 0, 77, 64
2, 4771, Note_off_c, 0, 84, 64
2, 4773, Note_off_c, 0, 89, 64
2, 4775, Note_off_c, 0, 63, 64
2, 4777, Note_off_c, 0, 66, 64
2, 4779, Note_off_c, 0, 68, 64
2, 4782, Note_off_c, 0, 56, 64
2, 4790, Note_on_c, 0, 78, 100
2, 4791, Note_on_c, 0, 90, 88
2, 4791, Note_on_c, 0, 84, 73
2, 4799, Note_on_c, 0, 68, 80
2, 4799, Note_on_c, 0, 66, 86
2, 4799, Note_on_c, 0, 56, 79
2, 4805, Note_on_c, 0, 63, 73
2, 4821, Note_off_c, 0, 84, 64
2, 4829, Note_off_c, 0, 63, 64
2, 4840, Note_off_c, 0, 66, 64
2, 4842, Note_off_c, 0, 78, 64
2, 4842, Note_off_c, 0, 68, 64
2, 4847, Note_off_c, 0, 90, 64
2, 4851, Note_off_c, 0, 56, 64
2, 4899, Control_c, 0, 64, 0
2, 4918, Note_on_c, 0, 85, 82
2, 4918, Note_on_c, 0, 77, 75
2, 4919, Note_on_c, 0, 89, 82
2, 4926, Note_on_c, 0, 68, 86
2, 4926, Note_on_c, 0, 61, 79
2, 4932, Note_on_c, 0, 65, 79
2, 4938, Control_c, 0, 64, 127
2, 4955, Note_off_c, 0, 89, 64
2, 4961, Note_off_c, 0, 85, 64
2, 4966, Note_off_c, 0, 65, 64
2, 4966, Note_off_c, 0, 77, 64
2, 4972, Note_off_c, 0, 68, 64
2, 4984, Note_off_c, 0, 61, 64
2, 5170, Control_c, 0, 64, 0
2, 5182, Note_on_c, 0, 77, 86
2, 5186, Note_on_c, 0, 69, 82
2, 5186, Note_on_c, 0, 65, 79
2, 5190, Note_on_c, 0, 60, 79
2, 5190, Note_on_c, 0, 53, 83
2, 5212, Control_c, 0, 64, 127
2, 5238, Note_off_c, 0, 77, 64
2, 5250, Note_off_c, 0, 65, 64
2, 5250, Note_off_c, 0, 69, 64
2, 5255, Note_off_c, 0, 60, 64
2, 5273, Note_off_c, 0, 53, 64
2, 5470, Note_on_c, 0, 65, 86
2, 5473, Note_on_c, 0, 57, 82
2, 5473, Note_on_c, 0, 41, 82
2, 5474, Note_on_c, 0, 53, 81
2, 5474, Note_on_c, 0, 48, 82
2, 5571, Note_off_c, 0, 65, 64
2, 5588, Note_off_c, 0, 53, 64
2, 5590, Note_off_c, 0, 57, 64
2, 5598, Note_off_c, 0, 48, 64
2, 5616, Note_off_c, 0, 41, 64
2, 5813, Note_on_c, 0, 29, 89
2, 5819, Note_on_c, 0, 41, 102
2, 5849, Control_c, 0, 64, 0
2, 5929, Control_c, 0, 64, 127
2, 6551, Note_off_c, 0, 41, 64
2, 6552, Note_on_c, 0, 42, 109
2, 6557, Note_on_c, 0, 30, 109
2, 6565, Note_off_c, 0, 42, 64
2, 6566, Note_off_c, 0, 29, 64
2, 6574, Control_c, 0, 64, 0
2, 6580, Note_off_c, 0, 30, 64
2, 7519, Note_on_c, 0, 45, 24
2, 7524, Note_on_c, 0, 57, 25
2, 7538, Note_on_c, 0, 46, 33
2, 7546, Note_on_c, 0, 58, 34
2, 7546, Control_c, 0, 64, 127
2, 7564, Note_on_c, 0, 49, 23
2, 7571, Note_off_c, 0, 45, 64
2, 7578, Note_on_c, 0, 61, 37
2, 7600, Note_off_c, 0, 57, 64
2, 7603, Control_c, 0, 64, 0
2, 7611, Note_on_c, 0, 65, 41
2, 7614, Note_off_c, 0, 58, 64
2, 7617, Note_off_c, 0, 46, 64
2, 7617, Note_on_c, 0, 53, 32
2, 7623, Note_off_c, 0, 61, 64
2, 7626, Note_off_c, 0, 49, 64
2, 7638, Note_off_c, 0, 65, 64
2, 7646, Note_off_c, 0, 53, 64
2, 7854, Note_on_c, 0, 57, 21
2, 7882, Note_on_c, 0, 58, 31
2, 7886, Note_on_c, 0, 46, 28
2, 7892, Note_on_c, 0, 45, 2
2, 7912, Note_on_c, 0, 49, 14
2, 7917, Note_on_c, 0, 61, 31
2, 7926, Note_off_c, 0, 45, 64
2, 7926, Note_off_c, 0, 57, 64
2, 7953, Note_on_c, 0, 65, 31
2, 7961, Note_on_c, 0, 53, 14
2, 7964, Note_off_c, 0, 46, 64
2, 7964, Note_off_c, 0, 58, 64
2, 7970, Note_off_c, 0, 61, 64
2, 7974, Note_off_c, 0, 49, 64
2, 8042, Control_c, 0, 64, 127
2, 8218, Note_off_c, 0, 53, 64
2, 8224, Note_off_c, 0, 65, 64
2, 8396, Control_c, 0, 64, 0
2, 8446, Note_on_c, 0, 58, 96
2, 8446, Note_on_c, 0, 34, 91
2, 8450, Note_on_c, 0, 46, 91
2, 8468, Control_c, 0, 64, 127
2, 8477, Note_off_c, 0, 46, 64
2, 8478, Note_off_c, 0, 34, 64
2, 8480, Note_off_c, 0, 58, 64
2, 8757, Note_on_c, 0, 94, 102
2, 8757, Note_on_c, 0, 58, 82
2, 8762, Note_on_c, 0, 82, 97
2, 8767, Note_on_c, 0, 60, 86
2, 8768, Note_on_c, 0, 90, 93
2, 8768, Note_on_c, 0, 70, 96
2, 8768, Note_on_c, 0, 66, 86
2, 8768, Note_on_c, 0, 63, 86
2, 8780, Control_c, 0, 64, 0
2, 8833, Control_c, 0, 64, 127
2, 8874, Note_off_c, 0, 58, 64
2, 8884, Note_off_c, 0, 63, 64
2, 8894, Note_off_c, 0, 66, 64
2, 8933, Note_off_c, 0, 94, 64
2, 8938, Note_off_c, 0, 90, 64
2, 8946, Note_off_c, 0, 70, 64
2, 8952, Note_off_c, 0, 60, 64
2, 8952, Note_off_c, 0, 82, 64
2, 9192, Note_on_c, 0, 70, 65
2, 9198, Note_on_c, 0, 75, 66
2, 9199, Note_on_c, 0, 87, 69
2, 9199, Note_on_c, 0, 60, 59
2, 9200, Note_on_c, 0, 63, 55
2, 9204, Note_on_c, 0, 58, 52
2, 9205, Note_on_c, 0, 84, 64
2, 9205, Note_on_c, 0, 66, 55
2, 9214, Note_off_c, 0, 66, 64
2, 9215, Note_off_c, 0, 63, 64
2, 9217, Note_off_c, 0, 58, 64
2, 9217, Note_off_c, 0, 87, 64
2, 9218, Note_off_c, 0, 75, 64
2, 9222, Note_off_c, 0, 84, 64
2, 9224, Note_off_c, 0, 60, 64
2, 9224, Note_off_c, 0, 70, 64
2, 9238, Note_on_c, 0, 60, 58
2, 9241, Note_on_c, 0, 58, 59
2, 9242, Note_on_c, 0, 75, 69
2, 9242, Note_on_c, 0, 70, 63
2, 9248, Note_on_c, 0, 63, 55
2, 9250, Note_on_c, 0, 87, 70
2, 9250, Note_on_c, 0, 84, 73
2, 9251, Note_on_c, 0, 66, 59
2, 9274, Note_off_c, 0, 75, 64
2, 9278, Note_off_c, 0, 70, 64
2, 9280, Note_off_c, 0, 66, 64
2, 9280, Note_off_c, 0, 84, 64
2, 9286, Note_off_c, 0, 60, 64
2, 9289, Note_off_c, 0, 87, 64
2, 9290, Note_off_c, 0, 58, 64
2, 9308, Note_off_c, 0, 63, 64
2, 9355, Note_on_c, 0, 60, 66
2, 9355, Note_on_c, 0, 58, 64
2, 9360, Note_on_c, 0, 63, 55
2, 9363, Note_on_c, 0, 87, 72
2, 9363, Note_on_c, 0, 84, 70
2, 9363, Note_on_c, 0, 75, 73
2, 9364, Note_on_c, 0, 70, 77
2, 9364, Note_on_c, 0, 66, 69
2, 9375, Note_off_c, 0, 63, 64
2, 9385, Note_off_c, 0, 66, 64
2, 9385, Note_off_c, 0, 75, 64
2, 9392, Note_off_c, 0, 84, 64
2, 9394, Note_off_c, 0, 70, 64
2, 9398, Note_off_c, 0, 58, 64
2, 9400, Note_off_c, 0, 60, 64
2, 9403, Note_off_c, 0, 87, 64
2, 9474, Note_on_c, 0, 84, 64
2, 9480, Note_on_c, 0, 77, 55
2, 9480, Note_on_c, 0, 66, 55
2, 9480, Note_on_c, 0, 63, 55
2, 9484, Note_on_c, 0, 70, 73
2, 9484, Note_on_c, 0, 60, 64
2, 9484, Note_on_c, 0, 58, 58
2, 9494, Note_on_c, 0, 89, 69
2, 9495, Note_off_c, 0, 63, 64
2, 9495, Note_off_c, 0, 66, 64
2, 9497, Note_off_c, 0, 77, 64
2, 9506, Note_off_c, 0, 89, 64
2, 9506, Note_off_c, 0, 84, 64
2, 9510, Note_off_c, 0, 70, 64
2, 9512, Note_off_c, 0, 60, 64
2, 9514, Note_off_c, 0, 58, 64
2, 9518, Note_on_c, 0, 84, 70
2, 9518, Note_on_c, 0, 78, 69
2, 9521, Note_on_c, 0, 90, 74
2, 9528, Note_on_c, 0, 63, 55
2, 9528, Note_on_c, 0, 58, 59
2, 9531, Note_on_c, 0, 70, 70
2, 9532, Note_on_c, 0, 66, 69
2, 9532, Note_on_c, 0, 60, 69
2, 9544, Note_off_c, 0, 84, 64
2, 9561, Note_off_c, 0, 90, 64
2, 9563, Note_off_c, 0, 70, 64
2, 9566, Note_off_c, 0, 78, 64
2, 9567, Note_off_c, 0, 66, 64
2, 9569, Note_off_c, 0, 60, 64
2, 9570, Note_off_c, 0, 58, 64
2, 9588, Note_off_c, 0, 63, 64
2, 9627, Control_c, 0, 64, 0
2, 9645, Note_on_c, 0, 58, 2
2, 9652, Note_on_c, 0, 70, 64
2, 9653, Note_on_c, 0, 85, 69
2, 9658, Note_on_c, 0, 89, 64
2, 9658, Note_on_c, 0, 77, 69
2, 9664, Note_on_c, 0, 65, 59
2, 9664, Note_on_c, 0, 61, 58
2, 9682, Control_c, 0, 64, 127
2, 9690, Note_off_c, 0, 70, 64
2, 9694, Note_off_c, 0, 65, 64
2, 9694, Note_off_c, 0, 89, 64
2, 9700, Note_off_c, 0, 61, 64
2, 9700, Note_off_c, 0, 85, 64
2, 9702, Note_off_c, 0, 77, 64
2, 9709, Note_off_c, 0, 58, 64
2, 9873, Note_on_c, 0, 57, 45
2, 9876, Note_on_c, 0, 45, 38
2, 9900, Control_c, 0, 64, 0
2, 9904, Note_on_c, 0, 46, 23
2, 9911, Note_on_c, 0, 58, 46
2, 9927, Note_on_c, 0, 49, 24
2, 9934, Note_off_c, 0, 45, 64
2, 9935, Note_on_c, 0, 61, 40
2, 9947, Note_off_c, 0, 57, 64
2, 9970, Note_off_c, 0, 58, 64
2, 9972, Note_on_c, 0, 65, 53
2, 9972, Note_on_c, 0, 53, 32
2, 9976, Note_off_c, 0, 46, 64
2, 9982, Note_off_c, 0, 49, 64
2, 9987, Note_off_c, 0, 61, 64
2, 9999, Note_off_c, 0, 65, 64
2, 10003, Note_off_c, 0, 53, 64
2, 10205, Note_on_c, 0, 45, 28
2, 10208, Note_on_c, 0, 57, 33
2, 10238, Note_on_c, 0, 58, 36
2, 10242, Note_on_c, 0, 46, 28
2, 10266, Note_off_c, 0, 45, 64
2, 10268, Note_off_c, 0, 57, 64
2, 10269, Note_on_c, 0, 49, 22
2, 10274, Note_on_c, 0, 61, 34
2, 10306, Note_off_c, 0, 46, 64
2, 10307, Note_off_c, 0, 58, 64
2, 10316, Note_on_c, 0, 65, 30
2, 10324, Note_on_c, 0, 53, 18
2, 10332, Note_off_c, 0, 61, 64
2, 10332, Note_off_c, 0, 49, 64
2, 10501, Control_c, 0, 64, 127
2, 10579, Note_off_c, 0, 65, 64
2, 10660, Note_off_c, 0, 53, 64
2, 10754, Control_c, 0, 64, 0
2, 10806, Note_on_c, 0, 60, 104
2, 10813, Note_on_c, 0, 48, 112
2, 10813, Note_on_c, 0, 36, 82
2, 10825, Control_c, 0, 64, 127
2, 10836, Note_off_c, 0, 48, 64
2, 10838, Note_off_c, 0, 60, 64
2, 10841, Note_off_c, 0, 36, 64
2, 11096, Note_on_c, 0, 72, 86
2, 11096, Note_on_c, 0, 60, 84
2, 11103, Note_on_c, 0, 92, 87
2, 11103, Note_on_c, 0, 68, 79
2, 11104, Note_on_c, 0, 96, 92
2, 11104, Note_on_c, 0, 65, 86
2, 11108, Note_on_c, 0, 89, 90
2, 11112, Note_on_c, 0, 84, 87
2, 11122, Control_c, 0, 64, 0
2, 11163, Control_c, 0, 64, 127
2, 11357, Note_off_c, 0, 96, 64
2, 11364, Note_off_c, 0, 92, 64
2, 11365, Note_off_c, 0, 89, 64
2, 11366, Note_off_c, 0, 65, 64
2, 11383, Note_off_c, 0, 68, 64
2, 11386, Note_off_c, 0, 84, 64
2, 11391, Note_off_c, 0, 72, 64
2, 11394, Note_off_c, 0, 60, 64
2, 11604, Control_c, 0, 64, 0
2, 11616, Note_on_c, 0, 91, 69
2, 11616, Note_on_c, 0, 60, 67
2, 11623, Note_on_c, 0, 70, 71
2, 11623, Note_on_c, 0, 67, 67
2, 11624, Note_on_c, 0, 88, 72
2, 11624, Note_on_c, 0, 79, 72
2, 11624, Note_on_c, 0, 72, 69
2, 11643, Control_c, 0, 64, 127
2, 11648, Note_off_c, 0, 79, 64
2, 11660, Note_off_c, 0, 60, 64
2, 11662, Note_off_c, 0, 91, 64
2, 11663, Note_off_c, 0, 67, 64
2, 11669, Note_off_c, 0, 72, 64
2, 11669, Note_off_c, 0, 88, 64
2, 11673, Note_off_c, 0, 70, 64
2, 11718, Note_on_c, 0, 70, 78
2, 11720, Note_on_c, 0, 67, 78
2, 11727, Note_on_c, 0, 72, 74
2, 11728, Note_on_c, 0, 88, 69
2, 11728, Note_on_c, 0, 80, 82
2, 11728, Note_on_c, 0, 60, 72
2, 11733, Note_on_c, 0, 92, 82
2, 11743, Note_off_c, 0, 88, 64
2, 11744, Note_off_c, 0, 92, 64
2, 11748, Note_off_c, 0, 80, 64
2, 11749, Note_off_c, 0, 60, 64
2, 11749, Note_off_c, 0, 72, 64
2, 11752, Note_off_c, 0, 67, 64
2, 11752, Note_off_c, 0, 70, 64
2, 11768, Note_on_c, 0, 94, 75
2, 11768, Note_on_c, 0, 88, 69
2, 11768, Note_on_c, 0, 70, 72
2, 11768, Note_on_c, 0, 67, 69
2, 11769, Note_on_c, 0, 60, 67
2, 11773, Note_on_c, 0, 82, 78
2, 11773, Note_on_c, 0, 72, 71
2, 11774, Note_off_c, 0, 94, 64
2, 11778, Note_on_c, 0, 94, 72
2, 11802, Note_off_c, 0, 60, 64
2, 11806, Note_off_c, 0, 82, 64
2, 11806, Note_off_c, 0, 67, 64
2, 11812, Note_off_c, 0, 70, 64
2, 11817, Note_off_c, 0, 94, 64
2, 11818, Note_off_c, 0, 72, 64
2, 11828, Note_off_c, 0, 88, 64
2, 11898, Control_c, 0, 64, 0
2, 11908, Note_on_c, 0, 92, 72
2, 11913, Note_on_c, 0, 89, 73
2, 11913, Note_on_c, 0, 84, 77
2, 11913, Note_on_c, 0, 65, 66
2, 11914, Note_on_c, 0, 80, 85
2, 11920, Note_on_c, 0, 68, 69
2, 11921, Note_on_c, 0, 77, 70
2, 11921, Note_on_c, 0, 72, 67
2, 11951, Control_c, 0, 64, 127
2, 11962, Note_off_c, 0, 92, 64
2, 11965, Note_off_c, 0, 84, 64
2, 11965, Note_off_c, 0, 89, 64
2, 11966, Note_off_c, 0, 77, 64
2, 11972, Note_off_c, 0, 72, 64
2, 11977, Note_off_c, 0, 80, 64
2, 11980, Note_off_c, 0, 68, 64
2, 11989, Note_off_c, 0, 65, 64
2, 12155, Note_on_c, 0, 80, 86
2, 12155, Note_on_c, 0, 53, 86
2, 12164, Control_c, 0, 64, 0
2, 12164, Note_on_c, 0, 77, 86
2, 12164, Note_on_c, 0, 72, 89
2, 12164, Note_on_c, 0, 65, 83
2, 12164, Note_on_c, 0, 60, 83
2, 12166, Note_on_c, 0, 68, 96
2, 12188, Note_off_c, 0, 68, 64
2, 12192, Note_off_c, 0, 72, 64
2, 12198, Note_off_c, 0, 65, 64
2, 12198, Note_off_c, 0, 80, 64
2, 12202, Note_off_c, 0, 77, 64
2, 12208, Control_c, 0, 64, 127
2, 12220, Note_off_c, 0, 60, 64
2, 12236, Note_off_c, 0, 53, 64
2, 12392, Control_c, 0, 64, 0
2, 12395, Note_on_c, 0, 68, 83
2, 12401, Note_on_c, 0, 41, 86
2, 12406, Note_on_c, 0, 60, 89
2, 12406, Note_on_c, 0, 53, 86
2, 12407, Note_on_c, 0, 65, 79
2, 12407, Note_on_c, 0, 56, 94
2, 12407, Note_on_c, 0, 48, 82
2, 12437, Control_c, 0, 64, 127
2, 12506, Note_off_c, 0, 68, 64
2, 12511, Note_off_c, 0, 65, 64
2, 12517, Note_off_c, 0, 60, 64
2, 12524, Note_off_c, 0, 53, 64
2, 12536, Note_off_c, 0, 48, 64
2, 12538, Note_off_c, 0, 56, 64
2, 12549, Note_off_c, 0, 41, 64
2, 12683, Note_on_c, 0, 40, 102
2, 12688, Note_on_c, 0, 28, 100
2, 12698, Control_c, 0, 64, 0
2, 12756, Control_c, 0, 64, 127
2, 13206, Note_on_c, 0, 41, 109
2, 13206, Note_on_c, 0, 29, 109
2, 13218, Note_off_c, 0, 40, 64
2, 13226, Note_off_c, 0, 41, 64
2, 13226, Note_off_c, 0, 28, 64
2, 13230, Note_off_c, 0, 29, 64
2, 13269, Control_c, 0, 64, 0
2, 13923, Control_c, 0, 64, 127
2, 13927, Note_on_c, 0, 101, 96
2, 13936, Note_on_c, 0, 37, 70
2, 13936, Note_on_c, 0, 25, 72
2, 14115, Note_on_c, 0, 56, 62
2, 14115, Note_on_c, 0, 44, 64
2, 14165, Note_off_c, 0, 56, 64
2, 14172, Note_off_c, 0, 44, 64
2, 14208, Note_on_c, 0, 61, 79
2, 14213, Note_on_c, 0, 53, 42
2, 14260, Note_off_c, 0, 53, 64
2, 14270, Note_off_c, 0, 61, 64
2, 14280, Note_on_c, 0, 99, 57
2, 14312, Note_on_c, 0, 97, 82
2, 14316, Note_off_c, 0, 101, 64
2, 14336, Note_off_c, 0, 99, 64
2, 14344, Note_on_c, 0, 92, 72
2, 14361, Note_off_c, 0, 97, 64
2, 14364, Note_on_c, 0, 44, 69
2, 14372, Note_on_c, 0, 56, 41
2, 14378, Note_on_c, 0, 89, 77
2, 14380, Note_off_c, 0, 92, 64
2, 14389, Note_off_c, 0, 56, 64
2, 14403, Note_off_c, 0, 89, 64
2, 14420, Note_on_c, 0, 87, 94
2, 14423, Note_off_c, 0, 44, 64
2, 14427, Note_on_c, 0, 53, 69
2, 14442, Note_on_c, 0, 61, 77
2, 14449, Note_off_c, 0, 25, 64
2, 14453, Note_on_c, 0, 85, 78
2, 14454, Note_off_c, 0, 37, 64
2, 14462, Note_off_c, 0, 87, 64
2, 14498, Note_on_c, 0, 80, 77
2, 14504, Note_off_c, 0, 61, 64
2, 14507, Note_off_c, 0, 85, 64
2, 14530, Note_off_c, 0, 80, 64
2, 14532, Note_on_c, 0, 77, 72
2, 14542, Note_off_c, 0, 53, 64
2, 14562, Note_off_c, 0, 77, 64
2, 14575, Note_on_c, 0, 75, 76
2, 14616, Note_on_c, 0, 73, 79
2, 14626, Note_off_c, 0, 75, 64
2, 14658, Control_c, 0, 64, 0
2, 14670, Note_on_c, 0, 68, 69
2, 14682, Note_off_c, 0, 73, 64
2, 14769, Note_off_c, 0, 68, 64
2, 14947, Note_on_c, 0, 44, 58
2, 14952, Note_on_c, 0, 54, 52
2, 14952, Note_on_c, 0, 51, 55
2, 14956, Note_on_c, 0, 72, 70
2, 14964, Control_c, 0, 64, 127
2, 14982, Note_on_c, 0, 73, 70
2, 14984, Note_off_c, 0, 44, 64
2, 14989, Note_off_c, 0, 51, 64
2, 14998, Note_off_c, 0, 54, 64
2, 15002, Note_off_c, 0, 72, 64
2, 15021, Note_on_c, 0, 75, 64
2, 15033, Note_off_c, 0, 73, 64
2, 15052, Note_off_c, 0, 75, 64
2, 15066, Note_on_c, 0, 77, 76
2, 15108, Note_on_c, 0, 78, 65
2, 15127, Note_off_c, 0, 77, 64
2, 15143, Note_on_c, 0, 80, 73
2, 15156, Note_off_c, 0, 78, 64
2, 15170, Control_c, 0, 64, 0
2, 15188, Note_on_c, 0, 81, 64
2, 15200, Note_on_c, 0, 66, 58
2, 15204, Note_off_c, 0, 80, 64
2, 15204, Note_on_c, 0, 60, 55
2, 15208, Note_on_c, 0, 55, 51
2, 15212, Control_c, 0, 64, 127
2, 15242, Note_off_c, 0, 66, 64
2, 15250, Note_off_c, 0, 60, 64
2, 15259, Note_off_c, 0, 81, 64
2, 15267, Control_c, 0, 64, 0
2, 15289, Note_on_c, 0, 56, 56
2, 15290, Control_c, 0, 64, 127
2, 15292, Note_off_c, 0, 55, 64
2, 15296, Note_on_c, 0, 66, 63
2, 15296, Note_on_c, 0, 60, 59
2, 15329, Note_off_c, 0, 60, 64
2, 15331, Note_off_c, 0, 66, 64
2, 15336, Note_off_c, 0, 56, 64
2, 15369, Note_on_c, 0, 56, 55
2, 15376, Note_on_c, 0, 66, 62
2, 15376, Note_on_c, 0, 60, 51
2, 15432, Note_off_c, 0, 60, 64
2, 15443, Note_off_c, 0, 56, 64
2, 15451, Note_on_c, 0, 81, 70
2, 15480, Note_on_c, 0, 80, 66
2, 15493, Note_off_c, 0, 81, 64
2, 15496, Note_off_c, 0, 66, 64
2, 15519, Note_off_c, 0, 80, 64
2, 15522, Note_on_c, 0, 79, 75
2, 15558, Note_on_c, 0, 78, 77
2, 15564, Note_off_c, 0, 79, 64
2, 15591, Note_on_c, 0, 77, 60
2, 15604, Note_off_c, 0, 78, 64
2, 15616, Control_c, 0, 64, 0
2, 15627, Note_on_c, 0, 76, 75
2, 15632, Note_off_c, 0, 77, 64
2, 15664, Note_on_c, 0, 60, 55
2, 15665, Note_on_c, 0, 57, 55
2, 15667, Note_on_c, 0, 66, 61
2, 15672, Note_on_c, 0, 75, 86
2, 15678, Note_off_c, 0, 76, 64
2, 15680, Control_c, 0, 64, 127
2, 15685, Note_off_c, 0, 75, 64
2, 15692, Note_off_c, 0, 60, 64
2, 15709, Note_off_c, 0, 66, 64
2, 15749, Note_off_c, 0, 57, 64
2, 15759, Note_on_c, 0, 56, 49
2, 15764, Note_on_c, 0, 66, 62
2, 15767, Note_on_c, 0, 60, 52
2, 15796, Note_off_c, 0, 60, 64
2, 15802, Note_off_c, 0, 66, 64
2, 15804, Note_off_c, 0, 56, 64
2, 15842, Note_on_c, 0, 66, 61
2, 15846, Note_on_c, 0, 56, 58
2, 15852, Note_on_c, 0, 60, 54
2, 15866, Note_off_c, 0, 66, 64
2, 15867, Note_off_c, 0, 60, 64
2, 15878, Note_off_c, 0, 56, 64
2, 15949, Control_c, 0, 64, 0
2, 15968, Note_on_c, 0, 101, 98
2, 15970, Note_on_c, 0, 37, 71
2, 15974, Note_on_c, 0, 25, 69
2, 16001, Control_c, 0, 64, 127
2, 16162, Note_on_c, 0, 56, 73
2, 16164, Note_on_c, 0, 44, 71
2, 16213, Note_off_c, 0, 56, 64
2, 16221, Note_off_c, 0, 44, 64
2, 16252, Note_on_c, 0, 53, 69
2, 16258, Note_on_c, 0, 61, 92
2, 16314, Note_off_c, 0, 61, 64
2, 16326, Note_on_c, 0, 99, 71
2, 16346, Note_off_c, 0, 53, 64
2, 16357, Note_off_c, 0, 101, 64
2, 16358, Note_on_c, 0, 97, 87
2, 16380, Note_off_c, 0, 99, 64
2, 16389, Note_on_c, 0, 92, 75
2, 16392, Note_on_c, 0, 56, 57
2, 16392, Note_on_c, 0, 44, 75
2, 16407, Note_off_c, 0, 97, 64
2, 16418, Note_on_c, 0, 89, 77
2, 16423, Note_off_c, 0, 92, 64
2, 16428, Note_off_c, 0, 56, 64
2, 16444, Note_off_c, 0, 44, 64
2, 16446, Note_off_c, 0, 89, 64
2, 16463, Note_on_c, 0, 87, 90
2, 16468, Note_on_c, 0, 53, 67
2, 16478, Note_on_c, 0, 61, 77
2, 16497, Note_on_c, 0, 85, 82
2, 16510, Note_off_c, 0, 87, 64
2, 16519, Note_off_c, 0, 25, 64
2, 16520, Note_off_c, 0, 61, 64
2, 16535, Note_off_c, 0, 37, 64
2, 16535, Note_on_c, 0, 80, 78
2, 16547, Note_off_c, 0, 85, 64
2, 16552, Note_off_c, 0, 53, 64
2, 16574, Note_off_c, 0, 80, 64
2, 16580, Note_on_c, 0, 77, 60
2, 16598, Note_off_c, 0, 77, 64
2, 16618, Note_on_c, 0, 75, 75
2, 16630, Control_c, 0, 64, 0
2, 16666, Note_off_c, 0, 75, 64
2, 16668, Note_on_c, 0, 73, 43
2, 16710, Note_on_c, 0, 68, 63
2, 16716, Note_off_c, 0, 73, 64
2, 16810, Note_off_c, 0, 68, 64
2, 16977, Note_on_c, 0, 72, 54
2, 16977, Note_on_c, 0, 44, 53
2, 16982, Note_on_c, 0, 54, 46
2, 16982, Note_on_c, 0, 51, 48
2, 16999, Control_c, 0, 64, 127
2, 17008, Note_on_c, 0, 73, 55
2, 17027, Note_off_c, 0, 51, 64
2, 17029, Note_off_c, 0, 44, 64
2, 17034, Note_off_c, 0, 72, 64
2, 17046, Note_off_c, 0, 54, 64
2, 17056, Note_on_c, 0, 75, 64
2, 17070, Note_off_c, 0, 73, 64
2, 17089, Note_off_c, 0, 75, 64
2, 17106, Note_on_c, 0, 77, 63
2, 17146, Note_on_c, 0, 78, 57
2, 17166, Note_off_c, 0, 77, 64
2, 17183, Note_on_c, 0, 80, 58
2, 17203, Note_off_c, 0, 78, 64
2, 17222, Note_on_c, 0, 81, 65
2, 17228, Note_on_c, 0, 60, 49
2, 17232, Note_off_c, 0, 80, 64
2, 17235, Control_c, 0, 64, 0
2, 17258, Control_c, 0, 64, 127
2, 17268, Note_on_c, 0, 61, 39
2, 17271, Note_off_c, 0, 81, 64
2, 17285, Note_off_c, 0, 60, 64
2, 17303, Note_on_c, 0, 63, 61
2, 17322, Note_off_c, 0, 61, 64
2, 17346, Note_on_c, 0, 65, 58
2, 17350, Note_off_c, 0, 63, 64
2, 17384, Note_on_c, 0, 66, 63
2, 17398, Note_off_c, 0, 65, 64
2, 17422, Control_c, 0, 64, 0
2, 17430, Note_on_c, 0, 68, 69
2, 17441, Note_off_c, 0, 66, 64
2, 17464, Note_on_c, 0, 69, 60
2, 17472, Note_off_c, 0, 68, 64
2, 17476, Note_on_c, 0, 81, 51
2, 17487, Control_c, 0, 64, 127
2, 17511, Note_on_c, 0, 80, 57
2, 17513, Note_off_c, 0, 69, 64
2, 17525, Note_off_c, 0, 81, 64
2, 17555, Note_on_c, 0, 79, 55
2, 17557, Note_off_c, 0, 80, 64
2, 17593, Note_on_c, 0, 78, 55
2, 17602, Note_off_c, 0, 79, 64
2, 17625, Note_on_c, 0, 77, 40
2, 17639, Note_off_c, 0, 78, 64
2, 17662, Control_c, 0, 64, 0
2, 17671, Note_off_c, 0, 77, 64
2, 17671, Note_on_c, 0, 76, 40
2, 17719, Note_on_c, 0, 75, 51
2, 17720, Note_on_c, 0, 57, 49
2, 17727, Control_c, 0, 64, 127
2, 17751, Note_off_c, 0, 76, 64
2, 17760, Note_on_c, 0, 56, 57
2, 17778, Note_off_c, 0, 57, 64
2, 17788, Note_on_c, 0, 55, 50
2, 17795, Note_off_c, 0, 75, 64
2, 17799, Note_off_c, 0, 56, 64
2, 17828, Note_on_c, 0, 54, 45
2, 17834, Note_off_c, 0, 55, 64
2, 17866, Note_off_c, 0, 54, 64
2, 17879, Note_on_c, 0, 53, 48
2, 17922, Note_off_c, 0, 53, 64
2, 17923, Note_on_c, 0, 51, 45
2, 17932, Control_c, 0, 64, 0
2, 17972, Note_off_c, 0, 51, 64
2, 17972, Note_on_c, 0, 77, 72
2, 17972, Note_on_c, 0, 71, 49
2, 17976, Note_on_c, 0, 49, 31
2, 17980, Note_on_c, 0, 77, 72
2, 17998, Control_c, 0, 64, 127
2, 18006, Control_c, 0, 64, 127
2, 18028, Note_off_c, 0, 49, 64
2, 18030, Note_on_c, 0, 56, 46
2, 18073, Note_on_c, 0, 61, 46
2, 18083, Note_off_c, 0, 56, 64
2, 18107, Note_off_c, 0, 61, 64
2, 18112, Note_on_c, 0, 65, 46
2, 18144, Note_on_c, 0, 61, 46
2, 18145, Note_off_c, 0, 71, 64
2, 18162, Note_off_c, 0, 65, 64
2, 18165, Note_off_c, 0, 77, 64
2, 18182, Note_off_c, 0, 61, 64
2, 18182, Note_on_c, 0, 56, 46
2, 18222, Note_off_c, 0, 56, 64
2, 18225, Note_on_c, 0, 49, 55
2, 18228, Note_on_c, 0, 71, 51
2, 18258, Note_off_c, 0, 49, 64
2, 18260, Note_on_c, 0, 59, 46
2, 18308, Note_on_c, 0, 75, 77
2, 18308, Note_on_c, 0, 61, 46
2, 18311, Note_off_c, 0, 59, 64
2, 18314, Note_off_c, 0, 77, 64
2, 18348, Note_on_c, 0, 65, 46
2, 18365, Note_off_c, 0, 61, 64
2, 18396, Note_on_c, 0, 61, 46
2, 18412, Note_off_c, 0, 65, 64
2, 18414, Note_off_c, 0, 75, 64
2, 18432, Note_on_c, 0, 73, 81
2, 18432, Note_on_c, 0, 59, 46
2, 18438, Note_off_c, 0, 61, 64
2, 18449, Control_c, 0, 64, 0
2, 18455, Note_off_c, 0, 71, 64
2, 18457, Control_c, 0, 64, 0
2, 18468, Note_off_c, 0, 73, 64
2, 18478, Note_off_c, 0, 59, 64
2, 18488, Note_on_c, 0, 54, 58
2, 18496, Note_on_c, 0, 73, 69
2, 18496, Note_on_c, 0, 71, 73
2, 18514, Control_c, 0, 64, 127
2, 18522, Control_c, 0, 64, 127
2, 18536, Note_on_c, 0, 59, 46
2, 18552, Note_off_c, 0, 54, 64
2, 18564, Note_on_c, 0, 61, 46
2, 18581, Note_off_c, 0, 59, 64
2, 18598, Note_on_c, 0, 66, 46
2, 18624, Note_off_c, 0, 61, 64
2, 18634, Note_on_c, 0, 61, 46
2, 18654, Note_off_c, 0, 66, 64
2, 18686, Note_off_c, 0, 61, 64
2, 18688, Note_on_c, 0, 59, 46
2, 18703, Control_c, 0, 64, 0
2, 18711, Control_c, 0, 64, 0
2, 18720, Note_on_c, 0, 78, 81
2, 18720, Note_on_c, 0, 70, 63
2, 18721, Note_off_c, 0, 59, 64
2, 18728, Note_on_c, 0, 49, 58
2, 18734, Control_c, 0, 64, 127
2, 18742, Control_c, 0, 64, 127
2, 18748, Note_off_c, 0, 73, 64
2, 18756, Note_on_c, 0, 58, 46
2, 18772, Note_off_c, 0, 49, 64
2, 18779, Note_off_c, 0, 71, 64
2, 18800, Note_on_c, 0, 61, 46
2, 18812, Note_off_c, 0, 58, 64
2, 18832, Note_on_c, 0, 66, 46
2, 18860, Note_off_c, 0, 61, 64
2, 18867, Note_off_c, 0, 66, 64
2, 18880, Note_on_c, 0, 61, 46
2, 18914, Note_off_c, 0, 61, 64
2, 18920, Note_on_c, 0, 58, 46
2, 18950, Control_c, 0, 64, 0
2, 18958, Control_c, 0, 64, 0
2, 18968, Note_on_c, 0, 71, 82
2, 18975, Note_off_c, 0, 58, 64
2, 18976, Note_on_c, 0, 56, 55
2, 18997, Note_off_c, 0, 70, 64
2, 19002, Note_off_c, 0, 78, 64
2, 19017, Control_c, 0, 64, 127
2, 19022, Note_off_c, 0, 56, 64
2, 19025, Control_c, 0, 64, 127
2, 19034, Note_on_c, 0, 59, 46
2, 19071, Note_on_c, 0, 61, 46
2, 19084, Note_off_c, 0, 59, 64
2, 19102, Note_on_c, 0, 65, 46
2, 19107, Note_off_c, 0, 61, 64
2, 19147, Note_off_c, 0, 65, 64
2, 19147, Note_on_c, 0, 77, 69
2, 19156, Note_on_c, 0, 61, 46
2, 19188, Note_on_c, 0, 59, 46
2, 19192, Note_off_c, 0, 77, 64
2, 19202, Control_c, 0, 64, 0
2, 19210, Control_c, 0, 64, 0
2, 19218, Note_off_c, 0, 59, 64
2, 19220, Note_off_c, 0, 61, 64
2, 19226, Note_on_c, 0, 49, 52
2, 19235, Note_on_c, 0, 77, 82
2, 19247, Control_c, 0, 64, 127
2, 19255, Control_c, 0, 64, 127
2, 19264, Note_on_c, 0, 59, 46
2, 19274, Note_off_c, 0, 49, 64
2, 19312, Note_on_c, 0, 75, 76
2, 19312, Note_on_c, 0, 61, 46
2, 19320, Note_off_c, 0, 59, 64
2, 19320, Note_off_c, 0, 77, 64
2, 19336, Note_off_c, 0, 71, 64
2, 19351, Note_off_c, 0, 61, 64
2, 19368, Note_on_c, 0, 65, 46
2, 19403, Note_on_c, 0, 61, 46
2, 19406, Note_on_c, 0, 73, 92
2, 19418, Note_off_c, 0, 75, 64
2, 19423, Note_off_c, 0, 65, 64
2, 19440, Note_on_c, 0, 59, 46
2, 19452, Control_c, 0, 64, 0
2, 19460, Control_c, 0, 64, 0
2, 19464, Note_off_c, 0, 61, 64
2, 19482, Note_off_c, 0, 73, 64
2, 19483, Note_off_c, 0, 59, 64
2, 19486, Note_on_c, 0, 73, 58
2, 19488, Note_on_c, 0, 70, 60
2, 19489, Note_on_c, 0, 54, 60
2, 19494, Note_on_c, 0, 82, 80
2, 19516, Control_c, 0, 64, 127
2, 19524, Control_c, 0, 64, 127
2, 19537, Note_off_c, 0, 54, 64
2, 19537, Note_on_c, 0, 58, 46
2, 19573, Note_on_c, 0, 61, 46
2, 19582, Note_off_c, 0, 58, 64
2, 19602, Note_off_c, 0, 61, 64
2, 19610, Note_on_c, 0, 66, 46
2, 19637, Note_off_c, 0, 73, 64
2, 19639, Note_off_c, 0, 70, 64
2, 19645, Note_off_c, 0, 82, 64
2, 19662, Note_on_c, 0, 61, 46
2, 19666, Note_off_c, 0, 66, 64
2, 19700, Note_on_c, 0, 58, 46
2, 19713, Note_off_c, 0, 61, 64
2, 19720, Control_c, 0, 64, 0
2, 19728, Control_c, 0, 64, 0
2, 19736, Note_on_c, 0, 68, 60
2, 19741, Note_on_c, 0, 82, 96
2, 19746, Note_off_c, 0, 58, 64
2, 19746, Note_on_c, 0, 73, 54
2, 19756, Note_on_c, 0, 52, 62
2, 19785, Control_c, 0, 64, 127
2, 19793, Control_c, 0, 64, 127
2, 19797, Note_on_c, 0, 58, 46
2, 19804, Note_off_c, 0, 52, 64
2, 19832, Note_on_c, 0, 61, 46
2, 19858, Note_off_c, 0, 58, 64
2, 19865, Note_off_c, 0, 68, 64
2, 19870, Note_off_c, 0, 61, 64
2, 19872, Note_on_c, 0, 68, 58
2, 19879, Note_off_c, 0, 73, 64
2, 19879, Note_off_c, 0, 82, 64
2, 19917, Note_off_c, 0, 68, 64
2, 19928, Note_on_c, 0, 82, 104
2, 19928, Note_on_c, 0, 61, 46
2, 19968, Note_on_c, 0, 58, 46
2, 19978, Note_off_c, 0, 82, 64
2, 19982, Control_c, 0, 64, 0
2, 19988, Note_off_c, 0, 61, 64
2, 19990, Control_c, 0, 64, 0
2, 19992, Note_on_c, 0, 67, 55
2, 19992, Note_on_c, 0, 51, 40
2, 20006, Note_off_c, 0, 58, 64
2, 20038, Control_c, 0, 64, 127
2, 20039, Note_off_c, 0, 51, 64
2, 20046, Control_c, 0, 64, 127
2, 20048, Note_on_c, 0, 73, 61
2, 20048, Note_on_c, 0, 58, 46
2, 20068, Note_off_c, 0, 67, 64
2, 20088, Note_on_c, 0, 82, 102
2, 20096, Note_on_c, 0, 61, 46
2, 20099, Note_off_c, 0, 58, 64
2, 20124, Note_on_c, 0, 67, 46
2, 20128, Note_off_c, 0, 61, 64
2, 20164, Note_on_c, 0, 75, 72
2, 20168, Note_on_c, 0, 61, 46
2, 20174, Note_off_c, 0, 67, 64
2, 20212, Note_on_c, 0, 58, 46
2, 20218, Control_c, 0, 64, 0
2, 20223, Note_off_c, 0, 61, 64
2, 20226, Control_c, 0, 64, 0
2, 20244, Note_off_c, 0, 58, 64
2, 20256, Note_on_c, 0, 55, 62
2, 20287, Control_c, 0, 64, 127
2, 20292, Note_on_c, 0, 61, 46
2, 20293, Note_on_c, 0, 77, 62
2, 20295, Control_c, 0, 64, 127
2, 20307, Note_off_c, 0, 55, 64
2, 20316, Note_on_c, 0, 79, 69
2, 20344, Note_off_c, 0, 61, 64
2, 20348, Note_on_c, 0, 63, 46
2, 20357, Note_off_c, 0, 79, 64
2, 20365, Note_off_c, 0, 82, 64
2, 20368, Note_on_c, 0, 70, 46
2, 20377, Note_off_c, 0, 77, 64
2, 20383, Note_off_c, 0, 73, 64
2, 20394, Note_off_c, 0, 63, 64
2, 20404, Note_off_c, 0, 75, 64
2, 20408, Note_on_c, 0, 63, 46
2, 20418, Note_off_c, 0, 70, 64
2, 20440, Note_on_c, 0, 61, 46
2, 20448, Note_on_c, 0, 75, 73
2, 20450, Note_off_c, 0, 63, 64
2, 20469, Control_c, 0, 64, 0
2, 20473, Note_off_c, 0, 75, 64
2, 20477, Control_c, 0, 64, 0
2, 20478, Note_off_c, 0, 61, 64
2, 20495, Note_on_c, 0, 75, 73
2, 20496, Note_on_c, 0, 73, 58
2, 20500, Note_on_c, 0, 56, 61
2, 20524, Control_c, 0, 64, 127
2, 20528, Note_on_c, 0, 61, 46
2, 20532, Control_c, 0, 64, 127
2, 20558, Note_off_c, 0, 56, 64
2, 20568, Note_on_c, 0, 63, 46
2, 20571, Note_off_c, 0, 61, 64
2, 20606, Note_off_c, 0, 63, 64
2, 20610, Note_on_c, 0, 68, 46
2, 20648, Note_on_c, 0, 63, 46
2, 20661, Note_off_c, 0, 68, 64
2, 20700, Note_on_c, 0, 61, 46
2, 20707, Note_off_c, 0, 63, 64
2, 20732, Control_c, 0, 64, 0
2, 20740, Control_c, 0, 64, 0
2, 20742, Note_off_c, 0, 61, 64
2, 20756, Note_on_c, 0, 72, 64
2, 20758, Note_on_c, 0, 80, 68
2, 20760, Note_on_c, 0, 51, 61
2, 20776, Note_off_c, 0, 73, 64
2, 20790, Control_c, 0, 64, 127
2, 20798, Control_c, 0, 64, 127
2, 20810, Note_on_c, 0, 60, 46
2, 20818, Note_off_c, 0, 51, 64
2, 20840, Note_on_c, 0, 63, 46
2, 20855, Note_off_c, 0, 72, 64
2, 20862, Note_off_c, 0, 60, 64
2, 20876, Note_on_c, 0, 68, 46
2, 20884, Note_off_c, 0, 63, 64
2, 20920, Note_on_c, 0, 63, 46
2, 20941, Note_off_c, 0, 68, 64
2, 20956, Note_on_c, 0, 60, 46
2, 20964, Note_off_c, 0, 63, 64
2, 20987, Control_c, 0, 64, 0
2, 20995, Control_c, 0, 64, 0
2, 21012, Note_off_c, 0, 60, 64
2, 21012, Note_on_c, 0, 58, 56
2, 21018, Note_on_c, 0, 73, 69
2, 21026, Note_off_c, 0, 80, 64
2, 21036, Note_off_c, 0, 75, 64
2, 21049, Control_c, 0, 64, 127
2, 21057, Control_c, 0, 64, 127
2, 21074, Note_on_c, 0, 61, 46
2, 21088, Note_off_c, 0, 58, 64
2, 21107, Note_on_c, 0, 63, 46
2, 21113, Note_on_c, 0, 79, 78
2, 21123, Note_off_c, 0, 61, 64
2, 21150, Note_off_c, 0, 63, 64
2, 21150, Note_on_c, 0, 70, 46
2, 21164, Note_off_c, 0, 79, 64
2, 21188, Note_on_c, 0, 63, 46
2, 21193, Note_on_c, 0, 77, 86
2, 21206, Note_off_c, 0, 70, 64
2, 21239, Note_on_c, 0, 61, 46
2, 21242, Control_c, 0, 64, 0
2, 21244, Note_off_c, 0, 63, 64
2, 21250, Control_c, 0, 64, 0
2, 21272, Note_on_c, 0, 51, 57
2, 21273, Note_on_c, 0, 79, 72
2, 21277, Note_off_c, 0, 61, 64
2, 21283, Note_off_c, 0, 77, 64
2, 21295, Control_c, 0, 64, 127
2, 21303, Control_c, 0, 64, 127
2, 21308, Note_on_c, 0, 61, 46
2, 21330, Note_off_c, 0, 51, 64
2, 21354, Note_on_c, 0, 77, 76
2, 21360, Note_on_c, 0, 63, 46
2, 21363, Note_off_c, 0, 79, 64
2, 21373, Note_off_c, 0, 61, 64
2, 21399, Note_off_c, 0, 63, 64
2, 21408, Note_on_c, 0, 67, 46
2, 21446, Note_on_c, 0, 63, 46
2, 21452, Note_off_c, 0, 73, 64
2, 21454, Note_off_c, 0, 67, 64
2, 21476, Note_on_c, 0, 61, 46
2, 21478, Note_on_c, 0, 75, 72
2, 21484, Note_off_c, 0, 77, 64
2, 21497, Control_c, 0, 64, 0
2, 21500, Note_off_c, 0, 63, 64
2, 21505, Control_c, 0, 64, 0
2, 21524, Note_off_c, 0, 61, 64
2, 21528, Note_on_c, 0, 84, 95
2, 21528, Note_on_c, 0, 72, 35
2, 21528, Note_on_c, 0, 56, 56
2, 21547, Note_off_c, 0, 75, 64
2, 21554, Control_c, 0, 64, 127
2, 21562, Control_c, 0, 64, 127
2, 21574, Note_on_c, 0, 60, 46
2, 21618, Note_on_c, 0, 63, 46
2, 21628, Note_off_c, 0, 60, 64
2, 21647, Note_off_c, 0, 84, 64
2, 21655, Note_off_c, 0, 63, 64
2, 21656, Note_on_c, 0, 68, 46
2, 21697, Note_on_c, 0, 63, 46
2, 21705, Note_off_c, 0, 68, 64
2, 21735, Note_on_c, 0, 60, 46
2, 21737, Note_off_c, 0, 63, 64
2, 21756, Control_c, 0, 64, 0
2, 21764, Control_c, 0, 64, 0
2, 21767, Note_off_c, 0, 56, 64
2, 21783, Note_off_c, 0, 60, 64
2, 21792, Note_on_c, 0, 55, 56
2, 21794, Note_on_c, 0, 84, 96
2, 21811, Control_c, 0, 64, 127
2, 21819, Control_c, 0, 64, 127
2, 21844, Note_on_c, 0, 56, 46
2, 21888, Note_on_c, 0, 60, 46
2, 21894, Note_off_c, 0, 56, 64
2, 21896, Note_off_c, 0, 84, 64
2, 21932, Note_off_c, 0, 60, 64
2, 21932, Note_on_c, 0, 63, 46
2, 21976, Note_on_c, 0, 60, 46
2, 21978, Note_on_c, 0, 84, 103
2, 21981, Note_off_c, 0, 63, 64
2, 22012, Note_on_c, 0, 56, 46
2, 22020, Note_off_c, 0, 60, 64
2, 22026, Note_off_c, 0, 84, 64
2, 22031, Note_off_c, 0, 55, 64
2, 22032, Control_c, 0, 64, 0
2, 22040, Control_c, 0, 64, 0
2, 22056, Note_off_c, 0, 56, 64
2, 22064, Note_on_c, 0, 54, 52
2, 22075, Note_on_c, 0, 84, 105
2, 22103, Control_c, 0, 64, 127
2, 22110, Note_on_c, 0, 56, 46
2, 22111, Control_c, 0, 64, 127
2, 22116, Note_off_c, 0, 54, 64
2, 22149, Note_on_c, 0, 60, 46
2, 22158, Note_off_c, 0, 56, 64
2, 22193, Note_on_c, 0, 63, 46
2, 22197, Note_off_c, 0, 60, 64
2, 22243, Note_on_c, 0, 60, 46
2, 22253, Note_off_c, 0, 63, 64
2, 22279, Note_on_c, 0, 56, 46
2, 22284, Control_c, 0, 64, 0
2, 22286, Note_off_c, 0, 60, 64
2, 22292, Control_c, 0, 64, 0
2, 22322, Note_on_c, 0, 54, 52
2, 22329, Note_off_c, 0, 56, 64
2, 22366, Control_c, 0, 64, 127
2, 22374, Control_c, 0, 64, 127
2, 22376, Note_on_c, 0, 56, 46
2, 22386, Note_off_c, 0, 54, 64
2, 22408, Note_on_c, 0, 60, 46
2, 22409, Note_on_c, 0, 82, 85
2, 22422, Note_off_c, 0, 56, 64
2, 22429, Note_off_c, 0, 84, 64
2, 22436, Note_off_c, 0, 72, 64
2, 22437, Note_on_c, 0, 63, 46
2, 22454, Note_off_c, 0, 60, 64
2, 22478, Note_on_c, 0, 60, 46
2, 22493, Note_off_c, 0, 63, 64
2, 22500, Note_off_c, 0, 82, 64
2, 22511, Note_on_c, 0, 56, 46
2, 22521, Note_on_c, 0, 80, 65
2, 22525, Note_off_c, 0, 60, 64
2, 22538, Control_c, 0, 64, 0
2, 22546, Control_c, 0, 64, 0
2, 22556, Note_off_c, 0, 80, 64
2, 22560, Note_on_c, 0, 53, 29
2, 22562, Note_off_c, 0, 56, 64
2, 22564, Note_on_c, 0, 80, 79
2, 22612, Note_on_c, 0, 56, 46
2, 22613, Control_c, 0, 64, 127
2, 22621, Control_c, 0, 64, 127
2, 22642, Note_off_c, 0, 53, 64
2, 22646, Note_on_c, 0, 61, 46
2, 22670, Note_off_c, 0, 56, 64
2, 22680, Note_on_c, 0, 65, 46
2, 22687, Note_off_c, 0, 61, 64
2, 22726, Note_on_c, 0, 61, 46
2, 22738, Note_off_c, 0, 65, 64
2, 22776, Note_on_c, 0, 56, 46
2, 22795, Control_c, 0, 64, 0
2, 22796, Note_off_c, 0, 61, 64
2, 22803, Control_c, 0, 64, 0
2, 22820, Note_on_c, 0, 53, 53
2, 22827, Note_off_c, 0, 56, 64
2, 22828, Note_on_c, 0, 85, 95
2, 22843, Note_off_c, 0, 80, 64
2, 22856, Note_on_c, 0, 56, 39
2, 22858, Control_c, 0, 64, 127
2, 22866, Control_c, 0, 64, 127
2, 22880, Note_off_c, 0, 53, 64
2, 22896, Note_on_c, 0, 61, 55
2, 22901, Note_off_c, 0, 56, 64
2, 22936, Note_on_c, 0, 68, 62
2, 22943, Note_off_c, 0, 61, 64
2, 22984, Note_on_c, 0, 61, 47
2, 22996, Note_off_c, 0, 68, 64
2, 23028, Control_c, 0, 64, 0
2, 23032, Note_on_c, 0, 56, 46
2, 23036, Control_c, 0, 64, 0
2, 23038, Note_off_c, 0, 61, 64
2, 23067, Note_off_c, 0, 85, 64
2, 23087, Note_off_c, 0, 56, 64
2, 23088, Note_on_c, 0, 85, 95
2, 23093, Note_on_c, 0, 51, 63
2, 23105, Control_c, 0, 64, 127
2, 23113, Control_c, 0, 64, 127
2, 23132, Note_off_c, 0, 51, 64
2, 23142, Note_on_c, 0, 56, 46
2, 23186, Note_off_c, 0, 56, 64
2, 23186, Note_on_c, 0, 60, 46
2, 23225, Note_on_c, 0, 66, 46
2, 23227, Note_off_c, 0, 60, 64
2, 23268, Note_off_c, 0, 85, 64
2, 23269, Note_on_c, 0, 60, 46
2, 23276, Note_on_c, 0, 84, 82
2, 23281, Note_off_c, 0, 66, 64
2, 23304, Note_on_c, 0, 56, 46
2, 23320, Note_off_c, 0, 84, 64
2, 23320, Note_off_c, 0, 60, 64
2, 23325, Control_c, 0, 64, 0
2, 23333, Control_c, 0, 64, 0
2, 23358, Note_on_c, 0, 84, 85
2, 23364, Note_off_c, 0, 56, 64
2, 23366, Note_on_c, 0, 51, 60
2, 23396, Control_c, 0, 64, 127
2, 23404, Control_c, 0, 64, 127
2, 23416, Note_off_c, 0, 51, 64
2, 23416, Note_on_c, 0, 56, 46
2, 23456, Note_off_c, 0, 84, 64
2, 23456, Note_on_c, 0, 82, 89
2, 23456, Note_on_c, 0, 60, 46
2, 23460, Note_off_c, 0, 56, 64
2, 23489, Note_on_c, 0, 66, 46
2, 23498, Note_off_c, 0, 60, 64
2, 23542, Note_on_c, 0, 60, 46
2, 23547, Note_off_c, 0, 66, 64
2, 23588, Note_on_c, 0, 56, 46
2, 23590, Note_on_c, 0, 80, 68
2, 23591, Note_off_c, 0, 60, 64
2, 23594, Control_c, 0, 64, 0
2, 23602, Control_c, 0, 64, 0
2, 23611, Note_off_c, 0, 82, 64
2, 23630, Note_on_c, 0, 50, 57
2, 23636, Note_off_c, 0, 56, 64
2, 23642, Note_on_c, 0, 89, 71
2, 23659, Control_c, 0, 64, 127
2, 23662, Note_off_c, 0, 80, 64
2, 23664, Note_on_c, 0, 56, 46
2, 23667, Control_c, 0, 64, 127
2, 23693, Note_off_c, 0, 50, 64
2, 23704, Note_on_c, 0, 59, 46
2, 23728, Note_off_c, 0, 56, 64
2, 23744, Note_on_c, 0, 65, 46
2, 23754, Note_off_c, 0, 59, 64
2, 23768, Note_off_c, 0, 89, 64
2, 23788, Note_on_c, 0, 59, 46
2, 23815, Note_off_c, 0, 65, 64
2, 23836, Note_on_c, 0, 56, 46
2, 23850, Note_off_c, 0, 59, 64
2, 23880, Control_c, 0, 64, 0
2, 23888, Control_c, 0, 64, 0
2, 23896, Note_off_c, 0, 56, 64
2, 23898, Note_on_c, 0, 50, 52
2, 23900, Note_on_c, 0, 89, 85
2, 23943, Control_c, 0, 64, 127
2, 23944, Note_on_c, 0, 56, 46
2, 23951, Control_c, 0, 64, 127
2, 23966, Note_off_c, 0, 50, 64
2, 23982, Note_off_c, 0, 89, 64
2, 23986, Note_on_c, 0, 58, 46
2, 24014, Note_off_c, 0, 56, 64
2, 24032, Note_off_c, 0, 58, 64
2, 24036, Note_on_c, 0, 65, 46
2, 24069, Note_on_c, 0, 58, 46
2, 24070, Note_on_c, 0, 89, 93
2, 24096, Note_off_c, 0, 65, 64
2, 24105, Note_on_c, 0, 56, 46
2, 24130, Note_off_c, 0, 89, 64
2, 24137, Note_off_c, 0, 58, 64
2, 24139, Control_c, 0, 64, 0
2, 24147, Control_c, 0, 64, 0
2, 24148, Note_on_c, 0, 89, 95
2, 24152, Note_on_c, 0, 51, 60
2, 24169, Note_off_c, 0, 56, 64
2, 24207, Note_off_c, 0, 51, 64
2, 24208, Note_on_c, 0, 54, 46
2, 24210, Control_c, 0, 64, 127
2, 24218, Control_c, 0, 64, 127
2, 24259, Note_off_c, 0, 54, 64
2, 24260, Note_on_c, 0, 58, 46
2, 24314, Note_off_c, 0, 58, 64
2, 24316, Note_on_c, 0, 63, 46
2, 24367, Note_on_c, 0, 58, 46
2, 24379, Note_off_c, 0, 63, 64
2, 24404, Note_on_c, 0, 54, 46
2, 24415, Note_off_c, 0, 58, 64
2, 24420, Note_off_c, 0, 89, 64
2, 24446, Note_on_c, 0, 42, 60
2, 24450, Note_on_c, 0, 87, 75
2, 24453, Note_off_c, 0, 54, 64
2, 24496, Note_on_c, 0, 54, 46
2, 24501, Note_off_c, 0, 42, 64
2, 24538, Note_on_c, 0, 85, 73
2, 24540, Note_on_c, 0, 58, 46
2, 24547, Note_off_c, 0, 54, 64
2, 24555, Note_off_c, 0, 87, 64
2, 24572, Note_on_c, 0, 63, 46
2, 24584, Note_off_c, 0, 58, 64
2, 24624, Note_on_c, 0, 58, 46
2, 24626, Note_on_c, 0, 82, 77
2, 24627, Note_off_c, 0, 63, 64
2, 24638, Note_off_c, 0, 85, 64
2, 24660, Note_on_c, 0, 54, 46
2, 24671, Control_c, 0, 64, 0
2, 24675, Note_off_c, 0, 58, 64
2, 24679, Control_c, 0, 64, 0
2, 24695, Note_off_c, 0, 54, 64
2, 24714, Note_on_c, 0, 84, 81
2, 24718, Note_on_c, 0, 44, 57
2, 24731, Note_off_c, 0, 82, 64
2, 24742, Control_c, 0, 64, 127
2, 24750, Control_c, 0, 64, 127
2, 24762, Note_off_c, 0, 44, 64
2, 24762, Note_on_c, 0, 53, 46
2, 24811, Note_on_c, 0, 56, 46
2, 24819, Note_off_c, 0, 53, 64
2, 24849, Note_off_c, 0, 56, 64
2, 24853, Note_on_c, 0, 61, 46
2, 24889, Note_on_c, 0, 56, 46
2, 24898, Note_off_c, 0, 61, 64
2, 24931, Note_off_c, 0, 56, 64
2, 24933, Note_on_c, 0, 53, 46
2, 24945, Control_c, 0, 64, 0
2, 24953, Control_c, 0, 64, 0
2, 24982, Note_on_c, 0, 82, 79
2, 24984, Note_off_c, 0, 53, 64
2, 24986, Note_on_c, 0, 44, 63
2, 24991, Note_off_c, 0, 84, 64
2, 25008, Control_c, 0, 64, 127
2, 25016, Control_c, 0, 64, 127
2, 25028, Note_off_c, 0, 44, 64
2, 25040, Note_on_c, 0, 53, 46
2, 25078, Note_on_c, 0, 80, 70
2, 25080, Note_on_c, 0, 56, 46
2, 25086, Note_off_c, 0, 53, 64
2, 25103, Note_off_c, 0, 82, 64
2, 25105, Note_on_c, 0, 61, 46
2, 25143, Note_off_c, 0, 56, 64
2, 25164, Note_on_c, 0, 56, 46
2, 25165, Note_on_c, 0, 77, 59
2, 25168, Note_off_c, 0, 61, 64
2, 25175, Note_off_c, 0, 80, 64
2, 25200, Note_on_c, 0, 53, 46
2, 25202, Control_c, 0, 64, 0
2, 25210, Control_c, 0, 64, 0
2, 25215, Note_off_c, 0, 56, 64
2, 25236, Note_on_c, 0, 44, 46
2, 25242, Note_on_c, 0, 82, 75
2, 25244, Note_off_c, 0, 53, 64
2, 25270, Control_c, 0, 64, 127
2, 25276, Note_on_c, 0, 54, 46
2, 25278, Control_c, 0, 64, 127
2, 25306, Note_off_c, 0, 44, 64
2, 25319, Note_on_c, 0, 80, 68
2, 25320, Note_on_c, 0, 56, 46
2, 25342, Note_off_c, 0, 82, 64
2, 25345, Note_off_c, 0, 54, 64
2, 25347, Note_off_c, 0, 77, 64
2, 25356, Note_off_c, 0, 56, 64
2, 25360, Note_on_c, 0, 60, 46
2, 25408, Note_off_c, 0, 60, 64
2, 25412, Note_on_c, 0, 78, 83
2, 25416, Note_on_c, 0, 56, 46
2, 25419, Note_off_c, 0, 80, 64
2, 25460, Note_off_c, 0, 56, 64
2, 25468, Note_on_c, 0, 54, 46
2, 25481, Control_c, 0, 64, 0
2, 25489, Control_c, 0, 64, 0
2, 25492, Note_off_c, 0, 78, 64
2, 25498, Note_off_c, 0, 54, 64
2, 25504, Note_on_c, 0, 78, 62
2, 25504, Note_on_c, 0, 44, 55
2, 25528, Note_on_c, 0, 80, 62
2, 25539, Note_off_c, 0, 78, 64
2, 25544, Note_on_c, 0, 54, 46
2, 25545, Control_c, 0, 64, 127
2, 25549, Note_off_c, 0, 44, 64
2, 25553, Control_c, 0, 64, 127
2, 25558, Note_on_c, 0, 78, 62
2, 25564, Note_off_c, 0, 80, 64
2, 25587, Note_off_c, 0, 54, 64
2, 25596, Note_on_c, 0, 77, 61
2, 25596, Note_on_c, 0, 56, 46
2, 25600, Note_off_c, 0, 78, 64
2, 25635, Note_off_c, 0, 56, 64
2, 25640, Note_on_c, 0, 60, 46
2, 25694, Note_on_c, 0, 56, 46
2, 25701, Note_off_c, 0, 60, 64
2, 25720, Note_off_c, 0, 77, 64
2, 25734, Note_on_c, 0, 54, 46
2, 25742, Note_off_c, 0, 56, 64
2, 25745, Control_c, 0, 64, 0
2, 25745, Note_on_c, 0, 76, 77
2, 25753, Control_c, 0, 64, 0
2, 25770, Note_off_c, 0, 76, 64
2, 25770, Note_off_c, 0, 54, 64
2, 25790, Note_on_c, 0, 49, 62
2, 25795, Note_on_c, 0, 76, 72
2, 25824, Control_c, 0, 64, 127
2, 25832, Control_c, 0, 64, 127
2, 25848, Note_on_c, 0, 56, 46
2, 25877, Note_off_c, 0, 56, 64
2, 25883, Note_off_c, 0, 49, 64
2, 25890, Note_on_c, 0, 61, 46
2, 25920, Note_on_c, 0, 65, 46
2, 25933, Note_off_c, 0, 61, 64
2, 25964, Note_on_c, 0, 61, 46
2, 25982, Note_off_c, 0, 65, 64
2, 25996, Control_c, 0, 64, 0
2, 26002, Note_on_c, 0, 58, 46
2, 26004, Control_c, 0, 64, 0
2, 26013, Note_off_c, 0, 61, 64
2, 26056, Note_on_c, 0, 77, 68
2, 26058, Note_off_c, 0, 58, 64
2, 26061, Note_off_c, 0, 76, 64
2, 26062, Note_on_c, 0, 56, 47
2, 26078, Control_c, 0, 64, 127
2, 26086, Control_c, 0, 64, 127
2, 26117, Note_on_c, 0, 61, 46
2, 26131, Note_off_c, 0, 56, 64
2, 26167, Note_on_c, 0, 65, 46
2, 26174, Note_off_c, 0, 61, 64
2, 26208, Note_on_c, 0, 68, 46
2, 26214, Note_off_c, 0, 65, 64
2, 26244, Note_off_c, 0, 68, 64
2, 26257, Note_on_c, 0, 80, 92
2, 26260, Note_on_c, 0, 61, 46
2, 26288, Note_on_c, 0, 56, 48
2, 26289, Note_off_c, 0, 77, 64
2, 26298, Control_c, 0, 64, 0
2, 26306, Control_c, 0, 64, 0
2, 26311, Note_off_c, 0, 61, 64
2, 26340, Note_on_c, 0, 54, 51
2, 26343, Note_off_c, 0, 56, 64
2, 26344, Note_on_c, 0, 68, 79
2, 26386, Control_c, 0, 64, 127
2, 26388, Note_off_c, 0, 80, 64
2, 26394, Control_c, 0, 64, 127
2, 26398, Note_on_c, 0, 56, 46
2, 26412, Note_off_c, 0, 54, 64
2, 26439, Note_on_c, 0, 60, 46
2, 26446, Note_off_c, 0, 56, 64
2, 26482, Note_off_c, 0, 60, 64
2, 26484, Note_on_c, 0, 63, 46
2, 26540, Note_on_c, 0, 72, 82
2, 26541, Note_off_c, 0, 63, 64
2, 26544, Note_on_c, 0, 60, 46
2, 26546, Note_off_c, 0, 68, 64
2, 26572, Note_on_c, 0, 56, 46
2, 26588, Control_c, 0, 64, 0
2, 26596, Control_c, 0, 64, 0
2, 26599, Note_off_c, 0, 60, 64
2, 26623, Note_on_c, 0, 54, 23
2, 26627, Note_off_c, 0, 56, 64
2, 26627, Note_on_c, 0, 84, 87
2, 26632, Control_c, 0, 64, 127
2, 26640, Control_c, 0, 64, 127
2, 26664, Note_off_c, 0, 72, 64
2, 26673, Note_on_c, 0, 56, 46
2, 26675, Note_off_c, 0, 84, 64
2, 26683, Note_off_c, 0, 54, 64
2, 26712, Note_on_c, 0, 70, 95
2, 26712, Note_on_c, 0, 60, 46
2, 26716, Note_on_c, 0, 82, 92
2, 26718, Note_off_c, 0, 56, 64
2, 26748, Note_on_c, 0, 63, 46
2, 26750, Note_off_c, 0, 60, 64
2, 26788, Note_on_c, 0, 60, 46
2, 26804, Note_off_c, 0, 63, 64
2, 26822, Note_off_c, 0, 70, 64
2, 26824, Note_on_c, 0, 80, 77
2, 26824, Note_on_c, 0, 68, 81
2, 26826, Note_off_c, 0, 82, 64
2, 26828, Note_on_c, 0, 56, 46
2, 26851, Note_off_c, 0, 68, 64
2, 26851, Note_off_c, 0, 80, 64
2, 26860, Note_off_c, 0, 60, 64
2, 26860, Note_on_c, 0, 80, 90
2, 26860, Control_c, 0, 64, 0
2, 26864, Note_on_c, 0, 68, 85
2, 26864, Note_on_c, 0, 53, 52
2, 26868, Control_c, 0, 64, 0
2, 26882, Note_off_c, 0, 56, 64
2, 26908, Note_on_c, 0, 56, 46
2, 26925, Control_c, 0, 64, 127
2, 26933, Control_c, 0, 64, 127
2, 26944, Note_off_c, 0, 53, 64
2, 26948, Note_on_c, 0, 61, 46
2, 26969, Note_off_c, 0, 56, 64
2, 26992, Note_on_c, 0, 65, 46
2, 26993, Note_off_c, 0, 61, 64
2, 27035, Note_off_c, 0, 68, 64
2, 27036, Note_on_c, 0, 61, 46
2, 27045, Note_off_c, 0, 65, 64
2, 27080, Note_on_c, 0, 56, 46
2, 27104, Note_off_c, 0, 61, 64
2, 27138, Note_off_c, 0, 56, 64
2, 27140, Note_on_c, 0, 85, 86
2, 27144, Note_on_c, 0, 73, 78
2, 27152, Note_on_c, 0, 53, 52
2, 27192, Note_on_c, 0, 56, 46
2, 27213, Note_off_c, 0, 53, 64
2, 27240, Note_on_c, 0, 61, 46
2, 27252, Note_off_c, 0, 56, 64
2, 27255, Note_off_c, 0, 80, 64
2, 27266, Note_off_c, 0, 85, 64
2, 27271, Note_off_c, 0, 73, 64
2, 27276, Note_on_c, 0, 68, 58
2, 27287, Note_off_c, 0, 61, 64
2, 27317, Note_on_c, 0, 61, 46
2, 27318, Note_off_c, 0, 68, 64
2, 27364, Note_on_c, 0, 56, 46
2, 27368, Note_off_c, 0, 61, 64
2, 27390, Control_c, 0, 64, 0
2, 27398, Control_c, 0, 64, 0
2, 27416, Note_on_c, 0, 85, 87
2, 27416, Note_on_c, 0, 80, 82
2, 27417, Note_on_c, 0, 73, 91
2, 27420, Note_on_c, 0, 51, 63
2, 27423, Note_off_c, 0, 56, 64
2, 27459, Control_c, 0, 64, 127
2, 27460, Note_on_c, 0, 56, 46
2, 27465, Note_off_c, 0, 51, 64
2, 27467, Control_c, 0, 64, 127
2, 27467, Control_c, 0, 64, 127
2, 27488, Note_on_c, 0, 60, 46
2, 27504, Note_off_c, 0, 56, 64
2, 27520, Note_off_c, 0, 85, 64
2, 27524, Note_on_c, 0, 66, 46
2, 27529, Note_off_c, 0, 73, 64
2, 27540, Note_off_c, 0, 60, 64
2, 27581, Note_off_c, 0, 66, 64
2, 27604, Note_on_c, 0, 60, 46
2, 27612, Note_on_c, 0, 84, 87
2, 27612, Note_on_c, 0, 72, 87
2, 27645, Note_off_c, 0, 60, 64
2, 27648, Note_off_c, 0, 72, 64
2, 27660, Note_off_c, 0, 84, 64
2, 27660, Note_on_c, 0, 56, 46
2, 27660, Control_c, 0, 64, 0
2, 27668, Control_c, 0, 64, 0
2, 27686, Control_c, 0, 64, 127
2, 27694, Control_c, 0, 64, 127
2, 27696, Note_off_c, 0, 56, 64
2, 27712, Note_on_c, 0, 51, 65
2, 27716, Note_on_c, 0, 84, 92
2, 27716, Note_on_c, 0, 72, 95
2, 27728, Control_c, 0, 64, 0
2, 27752, Note_on_c, 0, 56, 46
2, 27754, Control_c, 0, 64, 127
2, 27756, Note_off_c, 0, 80, 64
2, 27762, Note_off_c, 0, 51, 64
2, 27792, Note_on_c, 0, 60, 46
2, 27798, Note_off_c, 0, 56, 64
2, 27832, Note_off_c, 0, 72, 64
2, 27832, Note_off_c, 0, 84, 64
2, 27848, Note_on_c, 0, 70, 95
2, 27848, Note_on_c, 0, 66, 46
2, 27849, Note_off_c, 0, 60, 64
2, 27856, Note_on_c, 0, 82, 95
2, 27871, Note_off_c, 0, 70, 64
2, 27877, Note_off_c, 0, 82, 64
2, 27890, Note_off_c, 0, 66, 64
2, 27900, Note_on_c, 0, 60, 46
2, 27904, Note_on_c, 0, 80, 94
2, 27904, Note_on_c, 0, 68, 88
2, 27950, Note_off_c, 0, 60, 64
2, 27952, Control_c, 0, 64, 0
2, 27968, Note_on_c, 0, 56, 46
2, 28003, Note_off_c, 0, 68, 64
2, 28003, Note_off_c, 0, 80, 64
2, 28012, Note_on_c, 0, 89, 90
2, 28012, Control_c, 0, 64, 127
2, 28015, Note_off_c, 0, 56, 64
2, 28016, Note_on_c, 0, 80, 85
2, 28016, Note_on_c, 0, 77, 83
2, 28020, Note_on_c, 0, 50, 58
2, 28020, Control_c, 0, 64, 0
2, 28064, Note_on_c, 0, 56, 46
2, 28080, Control_c, 0, 64, 127
2, 28090, Note_off_c, 0, 50, 64
2, 28108, Note_on_c, 0, 59, 46
2, 28127, Note_off_c, 0, 56, 64
2, 28148, Note_on_c, 0, 65, 46
2, 28160, Note_off_c, 0, 59, 64
2, 28192, Note_on_c, 0, 59, 46
2, 28211, Note_off_c, 0, 65, 64
2, 28236, Note_on_c, 0, 56, 46
2, 28244, Control_c, 0, 64, 0
2, 28263, Note_off_c, 0, 59, 64
2, 28287, Note_off_c, 0, 89, 64
2, 28291, Note_off_c, 0, 77, 64
2, 28291, Note_off_c, 0, 80, 64
2, 28294, Control_c, 0, 64, 127
2, 28304, Note_on_c, 0, 80, 95
2, 28304, Note_on_c, 0, 77, 87
2, 28308, Note_on_c, 0, 89, 86
2, 28309, Note_on_c, 0, 50, 48
2, 28312, Control_c, 0, 64, 0
2, 28322, Note_off_c, 0, 56, 64
2, 28348, Note_on_c, 0, 56, 46
2, 28362, Control_c, 0, 64, 127
2, 28384, Note_off_c, 0, 50, 64
2, 28392, Note_off_c, 0, 56, 64
2, 28392, Note_on_c, 0, 58, 46
2, 28424, Note_on_c, 0, 65, 46
2, 28435, Note_off_c, 0, 58, 64
2, 28435, Note_off_c, 0, 89, 64
2, 28437, Note_off_c, 0, 77, 64
2, 28437, Note_off_c, 0, 80, 64
2, 28465, Note_on_c, 0, 58, 46
2, 28468, Note_on_c, 0, 80, 91
2, 28468, Note_on_c, 0, 77, 73
2, 28473, Note_on_c, 0, 89, 90
2, 28479, Control_c, 0, 64, 0
2, 28493, Note_off_c, 0, 65, 64
2, 28500, Note_on_c, 0, 56, 46
2, 28505, Note_off_c, 0, 77, 64
2, 28509, Note_off_c, 0, 80, 64
2, 28522, Note_off_c, 0, 58, 64
2, 28531, Note_off_c, 0, 89, 64
2, 28547, Control_c, 0, 64, 0
2, 28553, Note_off_c, 0, 56, 64
2, 28554, Control_c, 0, 64, 127
2, 28556, Note_on_c, 0, 80, 90
2, 28556, Note_on_c, 0, 51, 51
2, 28560, Note_on_c, 0, 89, 90
2, 28560, Note_on_c, 0, 77, 84
2, 28608, Note_on_c, 0, 54, 46
2, 28619, Note_off_c, 0, 51, 64
2, 28622, Control_c, 0, 64, 127
2, 28644, Note_off_c, 0, 54, 64
2, 28660, Note_on_c, 0, 58, 46
2, 28693, Note_on_c, 0, 63, 46
2, 28720, Note_off_c, 0, 58, 64
2, 28740, Note_on_c, 0, 58, 46
2, 28749, Note_off_c, 0, 63, 64
2, 28787, Note_off_c, 0, 58, 64
2, 28792, Note_on_c, 0, 54, 46
2, 28823, Note_off_c, 0, 54, 64
2, 28831, Note_off_c, 0, 80, 64
2, 28835, Note_off_c, 0, 77, 64
2, 28835, Note_off_c, 0, 89, 64
2, 28840, Note_on_c, 0, 42, 60
2, 28844, Note_on_c, 0, 78, 82
2, 28844, Note_on_c, 0, 75, 82
2, 28846, Note_on_c, 0, 87, 82
2, 28888, Note_on_c, 0, 54, 46
2, 28899, Note_off_c, 0, 42, 64
2, 28918, Note_off_c, 0, 54, 64
2, 28929, Note_off_c, 0, 78, 64
2, 28936, Note_on_c, 0, 58, 46
2, 28939, Note_off_c, 0, 75, 64
2, 28939, Note_on_c, 0, 85, 84
2, 28940, Note_on_c, 0, 78, 64
2, 28940, Note_on_c, 0, 73, 80
2, 28951, Note_off_c, 0, 87, 64
2, 28972, Note_on_c, 0, 63, 46
2, 28981, Note_off_c, 0, 58, 64
2, 29008, Note_on_c, 0, 58, 46
2, 29010, Note_off_c, 0, 63, 64
2, 29028, Control_c, 0, 64, 0
2, 29038, Note_off_c, 0, 58, 64
2, 29040, Note_off_c, 0, 73, 64
2, 29040, Note_off_c, 0, 78, 64
2, 29048, Note_on_c, 0, 54, 46
2, 29052, Note_on_c, 0, 82, 74
2, 29052, Note_on_c, 0, 78, 63
2, 29054, Note_off_c, 0, 85, 64
2, 29060, Note_on_c, 0, 70, 76
2, 29090, Note_off_c, 0, 54, 64
2, 29091, Note_off_c, 0, 78, 64
2, 29091, Control_c, 0, 64, 127
2, 29094, Note_off_c, 0, 82, 64
2, 29096, Control_c, 0, 64, 0
2, 29099, Note_off_c, 0, 70, 64
2, 29109, Note_on_c, 0, 44, 75
2, 29113, Note_on_c, 0, 84, 72
2, 29113, Note_on_c, 0, 72, 70
2, 29116, Note_on_c, 0, 80, 48
2, 29159, Control_c, 0, 64, 127
2, 29166, Note_on_c, 0, 53, 58
2, 29172, Note_off_c, 0, 44, 64
2, 29215, Note_on_c, 0, 56, 58
2, 29223, Note_off_c, 0, 53, 64
2, 29254, Note_off_c, 0, 56, 64
2, 29256, Note_on_c, 0, 61, 58
2, 29282, Control_c, 0, 64, 0
2, 29298, Note_on_c, 0, 56, 58
2, 29307, Note_off_c, 0, 61, 64
2, 29338, Control_c, 0, 64, 127
2, 29340, Note_on_c, 0, 53, 58
2, 29350, Control_c, 0, 64, 0
2, 29355, Note_off_c, 0, 56, 64
2, 29378, Note_off_c, 0, 72, 64
2, 29378, Note_off_c, 0, 84, 64
2, 29378, Note_on_c, 0, 82, 64
2, 29380, Note_on_c, 0, 78, 67
2, 29381, Note_off_c, 0, 80, 64
2, 29383, Note_on_c, 0, 70, 74
2, 29383, Note_on_c, 0, 44, 75
2, 29390, Note_off_c, 0, 53, 64
2, 29406, Control_c, 0, 64, 127
2, 29410, Note_off_c, 0, 78, 64
2, 29425, Note_off_c, 0, 70, 64
2, 29427, Note_off_c, 0, 82, 64
2, 29430, Note_off_c, 0, 44, 64
2, 29440, Note_on_c, 0, 53, 58
2, 29474, Note_on_c, 0, 68, 79
2, 29476, Note_on_c, 0, 80, 67
2, 29476, Note_on_c, 0, 77, 63
2, 29476, Note_on_c, 0, 56, 58
2, 29487, Note_off_c, 0, 53, 64
2, 29505, Note_off_c, 0, 68, 64
2, 29506, Note_off_c, 0, 77, 64
2, 29507, Note_off_c, 0, 56, 64
2, 29512, Note_off_c, 0, 80, 64
2, 29516, Note_on_c, 0, 61, 58
2, 29556, Note_on_c, 0, 77, 65
2, 29557, Note_off_c, 0, 61, 64
2, 29557, Note_on_c, 0, 70, 70
2, 29558, Note_on_c, 0, 82, 78
2, 29558, Note_on_c, 0, 56, 58
2, 29566, Control_c, 0, 64, 0
2, 29586, Note_off_c, 0, 77, 64
2, 29590, Note_off_c, 0, 70, 64
2, 29600, Note_on_c, 0, 53, 58
2, 29602, Note_off_c, 0, 82, 64
2, 29605, Note_off_c, 0, 56, 64
2, 29634, Control_c, 0, 64, 127
2, 29634, Control_c, 0, 64, 0
2, 29636, Note_off_c, 0, 53, 64
2, 29644, Note_on_c, 0, 44, 73
2, 29647, Note_on_c, 0, 83, 77
2, 29647, Note_on_c, 0, 77, 74
2, 29650, Note_on_c, 0, 71, 70
2, 29694, Note_off_c, 0, 44, 64
2, 29702, Control_c, 0, 64, 127
2, 29707, Note_on_c, 0, 53, 58
2, 29745, Note_off_c, 0, 53, 64
2, 29752, Note_on_c, 0, 56, 58
2, 29771, Note_off_c, 0, 71, 64
2, 29777, Note_off_c, 0, 77, 64
2, 29777, Note_off_c, 0, 83, 64
2, 29791, Note_off_c, 0, 56, 64
2, 29792, Note_on_c, 0, 62, 58
2, 29829, Control_c, 0, 64, 0
2, 29840, Note_on_c, 0, 77, 83
2, 29840, Note_on_c, 0, 56, 58
2, 29841, Note_on_c, 0, 82, 95
2, 29844, Note_on_c, 0, 70, 90
2, 29846, Note_off_c, 0, 62, 64
2, 29872, Note_off_c, 0, 77, 64
2, 29876, Note_on_c, 0, 53, 58
2, 29885, Note_off_c, 0, 70, 64
2, 29894, Control_c, 0, 64, 127
2, 29895, Note_off_c, 0, 82, 64
2, 29897, Control_c, 0, 64, 0
2, 29900, Note_off_c, 0, 56, 64
2, 29927, Note_off_c, 0, 53, 64
2, 29927, Note_on_c, 0, 44, 75
2, 29931, Note_on_c, 0, 83, 90
2, 29934, Note_on_c, 0, 71, 86
2, 29935, Note_on_c, 0, 77, 78
2, 29962, Control_c, 0, 64, 127
2, 29975, Note_on_c, 0, 53, 58
2, 29981, Note_off_c, 0, 44, 64
2, 30016, Note_on_c, 0, 56, 58
2, 30038, Note_off_c, 0, 53, 64
2, 30052, Control_c, 0, 64, 0
2, 30061, Note_off_c, 0, 56, 64
2, 30066, Note_on_c, 0, 62, 58
2, 30098, Note_on_c, 0, 56, 58
2, 30118, Note_off_c, 0, 62, 64
2, 30120, Control_c, 0, 64, 127
2, 30120, Control_c, 0, 64, 0
2, 30149, Note_on_c, 0, 53, 58
2, 30160, Note_off_c, 0, 56, 64
2, 30188, Control_c, 0, 64, 127
2, 30198, Note_off_c, 0, 53, 64
2, 30198, Note_on_c, 0, 44, 82
2, 30236, Note_on_c, 0, 53, 58
2, 30243, Note_off_c, 0, 44, 64
2, 30250, Note_off_c, 0, 77, 64
2, 30265, Note_off_c, 0, 83, 64
2, 30270, Note_off_c, 0, 71, 64
2, 30288, Note_on_c, 0, 56, 58
2, 30307, Note_off_c, 0, 53, 64
2, 30332, Note_on_c, 0, 62, 58
2, 30335, Note_off_c, 0, 56, 64
2, 30352, Control_c, 0, 64, 0
2, 30360, Note_on_c, 0, 82, 76
2, 30360, Note_on_c, 0, 77, 74
2, 30364, Note_on_c, 0, 70, 83
2, 30369, Note_on_c, 0, 56, 58
2, 30386, Note_off_c, 0, 62, 64
2, 30408, Note_off_c, 0, 77, 64
2, 30408, Note_off_c, 0, 82, 64
2, 30408, Control_c, 0, 64, 127
2, 30412, Note_off_c, 0, 70, 64
2, 30413, Note_on_c, 0, 53, 58
2, 30416, Note_off_c, 0, 56, 64
2, 30420, Control_c, 0, 64, 0
2, 30452, Note_on_c, 0, 77, 72
2, 30453, Note_on_c, 0, 44, 76
2, 30458, Note_off_c, 0, 53, 64
2, 30458, Note_on_c, 0, 83, 91
2, 30458, Note_on_c, 0, 71, 83
2, 30476, Control_c, 0, 64, 127
2, 30494, Note_on_c, 0, 53, 58
2, 30498, Note_off_c, 0, 83, 64
2, 30500, Note_off_c, 0, 77, 64
2, 30503, Note_off_c, 0, 44, 64
2, 30506, Note_off_c, 0, 71, 64
2, 30540, Note_on_c, 0, 82, 95
2, 30540, Note_on_c, 0, 77, 74
2, 30544, Note_on_c, 0, 56, 58
2, 30548, Note_on_c, 0, 70, 95
2, 30555, Note_off_c, 0, 53, 64
2, 30570, Note_off_c, 0, 77, 64
2, 30574, Note_off_c, 0, 82, 64
2, 30578, Note_off_c, 0, 70, 64
2, 30579, Note_on_c, 0, 62, 58
2, 30587, Note_off_c, 0, 56, 64
2, 30613, Control_c, 0, 64, 0
2, 30631, Note_on_c, 0, 83, 95
2, 30631, Note_on_c, 0, 71, 92
2, 30632, Note_on_c, 0, 77, 75
2, 30632, Note_on_c, 0, 56, 58
2, 30636, Note_off_c, 0, 62, 64
2, 30662, Note_off_c, 0, 77, 64
2, 30663, Note_off_c, 0, 56, 64
2, 30664, Note_on_c, 0, 53, 58
2, 30665, Note_off_c, 0, 71, 64
2, 30666, Note_off_c, 0, 83, 64
2, 30680, Control_c, 0, 64, 127
2, 30681, Control_c, 0, 64, 0
2, 30705, Note_off_c, 0, 53, 64
2, 30712, Note_on_c, 0, 44, 69
2, 30723, Note_on_c, 0, 71, 95
2, 30724, Note_on_c, 0, 83, 95
2, 30724, Note_on_c, 0, 78, 95
2, 30748, Control_c, 0, 64, 127
2, 30753, Note_on_c, 0, 51, 58
2, 30762, Note_off_c, 0, 44, 64
2, 30794, Note_on_c, 0, 54, 58
2, 30806, Note_off_c, 0, 51, 64
2, 30831, Note_on_c, 0, 63, 58
2, 30852, Note_off_c, 0, 54, 64
2, 30868, Note_off_c, 0, 71, 64
2, 30869, Note_off_c, 0, 78, 64
2, 30869, Note_off_c, 0, 83, 64
2, 30876, Note_on_c, 0, 82, 94
2, 30881, Note_on_c, 0, 78, 86
2, 30884, Note_on_c, 0, 70, 95
2, 30887, Note_on_c, 0, 54, 58
2, 30894, Control_c, 0, 64, 0
2, 30895, Note_off_c, 0, 63, 64
2, 30928, Note_on_c, 0, 51, 58
2, 30944, Note_off_c, 0, 54, 64
2, 30962, Control_c, 0, 64, 127
2, 30962, Control_c, 0, 64, 0
2, 30966, Note_off_c, 0, 82, 64
2, 30970, Note_on_c, 0, 44, 75
2, 30971, Note_off_c, 0, 78, 64
2, 30974, Note_off_c, 0, 70, 64
2, 30982, Note_off_c, 0, 51, 64
2, 30982, Note_on_c, 0, 94, 95
2, 30984, Note_on_c, 0, 90, 95
2, 30986, Note_on_c, 0, 82, 95
2, 31020, Note_off_c, 0, 44, 64
2, 31020, Note_on_c, 0, 51, 58
2, 31030, Control_c, 0, 64, 127
2, 31051, Note_on_c, 0, 54, 58
2, 31058, Note_off_c, 0, 51, 64
2, 31092, Note_on_c, 0, 63, 58
2, 31105, Note_off_c, 0, 54, 64
2, 31134, Note_on_c, 0, 54, 58
2, 31139, Control_c, 0, 64, 0
2, 31156, Note_off_c, 0, 63, 64
2, 31171, Note_off_c, 0, 54, 64
2, 31172, Note_on_c, 0, 51, 58
2, 31192, Control_c, 0, 64, 127
2, 31207, Control_c, 0, 64, 0
2, 31215, Note_on_c, 0, 44, 79
2, 31220, Note_off_c, 0, 51, 64
2, 31260, Control_c, 0, 64, 127
2, 31272, Note_on_c, 0, 51, 58
2, 31276, Note_off_c, 0, 44, 64
2, 31312, Note_on_c, 0, 54, 58
2, 31325, Note_off_c, 0, 51, 64
2, 31352, Note_on_c, 0, 60, 58
2, 31354, Note_off_c, 0, 54, 64
2, 31354, Note_on_c, 0, 84, 87
2, 31355, Note_on_c, 0, 78, 92
2, 31356, Note_on_c, 0, 72, 87
2, 31357, Note_off_c, 0, 94, 64
2, 31359, Note_off_c, 0, 90, 64
2, 31361, Note_off_c, 0, 82, 64
2, 31370, Control_c, 0, 64, 0
2, 31377, Note_off_c, 0, 72, 64
2, 31384, Note_off_c, 0, 78, 64
2, 31387, Note_off_c, 0, 84, 64
2, 31404, Note_on_c, 0, 84, 87
2, 31404, Note_on_c, 0, 78, 87
2, 31408, Note_on_c, 0, 72, 78
2, 31408, Note_on_c, 0, 54, 58
2, 31418, Note_off_c, 0, 60, 64
2, 31438, Control_c, 0, 64, 0
2, 31441, Control_c, 0, 64, 127
2, 31443, Note_off_c, 0, 72, 64
2, 31450, Note_off_c, 0, 78, 64
2, 31456, Note_on_c, 0, 51, 58
2, 31459, Note_off_c, 0, 84, 64
2, 31467, Note_off_c, 0, 54, 64
2, 31485, Note_on_c, 0, 44, 79
2, 31492, Note_on_c, 0, 84, 90
2, 31492, Note_on_c, 0, 72, 90
2, 31493, Note_on_c, 0, 78, 92
2, 31502, Note_off_c, 0, 51, 64
2, 31509, Control_c, 0, 64, 127
2, 31519, Note_off_c, 0, 72, 64
2, 31530, Note_off_c, 0, 78, 64
2, 31532, Note_on_c, 0, 51, 58
2, 31538, Note_off_c, 0, 84, 64
2, 31549, Note_off_c, 0, 44, 64
2, 31564, Note_on_c, 0, 54, 58
2, 31587, Note_off_c, 0, 51, 64
2, 31604, Note_on_c, 0, 89, 86
2, 31604, Note_on_c, 0, 60, 58
2, 31608, Note_on_c, 0, 80, 87
2, 31608, Note_on_c, 0, 77, 78
2, 31624, Note_off_c, 0, 80, 64
2, 31624, Note_off_c, 0, 54, 64
2, 31625, Note_off_c, 0, 89, 64
2, 31629, Note_off_c, 0, 77, 64
2, 31643, Note_on_c, 0, 87, 79
2, 31646, Note_on_c, 0, 78, 86
2, 31646, Note_on_c, 0, 75, 86
2, 31647, Note_off_c, 0, 60, 64
2, 31651, Note_on_c, 0, 78, 78
2, 31652, Note_on_c, 0, 54, 58
2, 31658, Note_off_c, 0, 78, 64
2, 31666, Control_c, 0, 64, 0
2, 31681, Control_c, 0, 64, 0
2, 31688, Note_on_c, 0, 51, 58
2, 31726, Note_off_c, 0, 54, 64
2, 31728, Control_c, 0, 64, 127
2, 31730, Control_c, 0, 64, 127
2, 31732, Note_on_c, 0, 37, 77
2, 31734, Note_off_c, 0, 51, 64
2, 31734, Control_c, 0, 64, 0
2, 31736, Note_on_c, 0, 73, 95
2, 31738, Note_off_c, 0, 87, 64
2, 31740, Note_on_c, 0, 77, 94
2, 31741, Note_off_c, 0, 75, 64
2, 31744, Note_on_c, 0, 85, 86
2, 31746, Note_off_c, 0, 78, 64
2, 31749, Control_c, 0, 64, 0
2, 31761, Control_c, 0, 64, 127
2, 31796, Control_c, 0, 64, 127
2, 31798, Control_c, 0, 64, 127
2, 31812, Control_c, 0, 64, 0
2, 31829, Control_c, 0, 64, 127
2, 31876, Control_c, 0, 64, 0
2, 31880, Control_c, 0, 64, 0
2, 31916, Control_c, 0, 64, 127
2, 31921, Note_on_c, 0, 44, 62
2, 31933, Control_c, 0, 64, 127
2, 31944, Control_c, 0, 64, 0
2, 31973, Note_on_c, 0, 53, 52
2, 31984, Control_c, 0, 64, 127
2, 31995, Note_off_c, 0, 44, 64
2, 32001, Control_c, 0, 64, 127
2, 32024, Note_on_c, 0, 61, 84
2, 32027, Note_on_c, 0, 65, 73
2, 32035, Note_off_c, 0, 53, 64
2, 32053, Note_off_c, 0, 73, 64
2, 32057, Note_off_c, 0, 77, 64
2, 32061, Note_off_c, 0, 85, 64
2, 32063, Note_off_c, 0, 61, 64
2, 32068, Note_on_c, 0, 73, 84
2, 32079, Note_off_c, 0, 65, 64
2, 32108, Note_on_c, 0, 80, 77
2, 32111, Note_off_c, 0, 73, 64
2, 32125, Note_off_c, 0, 80, 64
2, 32146, Note_off_c, 0, 37, 64
2, 32147, Note_on_c, 0, 77, 90
2, 32183, Note_off_c, 0, 77, 64
2, 32185, Control_c, 0, 64, 0
2, 32194, Control_c, 0, 64, 0
2, 32201, Note_on_c, 0, 85, 82
2, 32231, Note_off_c, 0, 85, 64
2, 32236, Note_on_c, 0, 94, 63
2, 32240, Control_c, 0, 64, 127
2, 32253, Control_c, 0, 64, 0
2, 32261, Control_c, 0, 64, 127
2, 32262, Control_c, 0, 64, 0
2, 32275, Note_on_c, 0, 92, 92
2, 32278, Note_on_c, 0, 84, 81
2, 32285, Note_off_c, 0, 94, 64
2, 32290, Note_on_c, 0, 32, 81
2, 32308, Control_c, 0, 64, 127
2, 32329, Control_c, 0, 64, 127
2, 32380, Control_c, 0, 64, 0
2, 32420, Note_on_c, 0, 44, 62
2, 32420, Control_c, 0, 64, 127
2, 32480, Note_on_c, 0, 51, 65
2, 32494, Note_off_c, 0, 44, 64
2, 32528, Note_on_c, 0, 60, 101
2, 32535, Note_on_c, 0, 66, 95
2, 32536, Note_off_c, 0, 51, 64
2, 32564, Note_on_c, 0, 72, 67
2, 32566, Note_off_c, 0, 60, 64
2, 32580, Note_off_c, 0, 66, 64
2, 32593, Note_off_c, 0, 92, 64
2, 32595, Note_off_c, 0, 84, 64
2, 32600, Note_off_c, 0, 72, 64
2, 32603, Note_on_c, 0, 80, 82
2, 32622, Note_off_c, 0, 80, 64
2, 32646, Note_on_c, 0, 78, 81
2, 32650, Control_c, 0, 64, 0
2, 32673, Control_c, 0, 64, 0
2, 32676, Note_on_c, 0, 84, 71
2, 32684, Note_off_c, 0, 78, 64
2, 32706, Note_off_c, 0, 32, 64
2, 32710, Control_c, 0, 64, 127
2, 32716, Note_on_c, 0, 92, 69
2, 32718, Control_c, 0, 64, 0
2, 32721, Note_off_c, 0, 84, 64
2, 32741, Control_c, 0, 64, 0
2, 32751, Control_c, 0, 64, 127
2, 32764, Note_on_c, 0, 89, 75
2, 32766, Note_on_c, 0, 85, 90
2, 32769, Note_on_c, 0, 37, 75
2, 32776, Note_off_c, 0, 92, 64
2, 32778, Control_c, 0, 64, 127
2, 32819, Control_c, 0, 64, 127
2, 32904, Control_c, 0, 64, 0
2, 32945, Control_c, 0, 64, 127
2, 32970, Note_on_c, 0, 44, 62
2, 32972, Control_c, 0, 64, 0
2, 33008, Note_on_c, 0, 53, 69
2, 33013, Control_c, 0, 64, 127
2, 33023, Note_off_c, 0, 44, 64
2, 33040, Note_on_c, 0, 65, 73
2, 33046, Note_on_c, 0, 61, 82
2, 33056, Note_off_c, 0, 53, 64
2, 33076, Note_on_c, 0, 73, 79
2, 33078, Note_off_c, 0, 61, 64
2, 33081, Note_off_c, 0, 89, 64
2, 33083, Note_off_c, 0, 85, 64
2, 33090, Note_off_c, 0, 65, 64
2, 33110, Note_on_c, 0, 80, 75
2, 33121, Note_off_c, 0, 73, 64
2, 33129, Note_off_c, 0, 80, 64
2, 33148, Note_on_c, 0, 77, 87
2, 33176, Control_c, 0, 64, 0
2, 33176, Control_c, 0, 64, 0
2, 33179, Note_off_c, 0, 37, 64
2, 33183, Note_off_c, 0, 77, 64
2, 33188, Note_on_c, 0, 85, 77
2, 33224, Note_off_c, 0, 85, 64
2, 33232, Note_on_c, 0, 94, 81
2, 33234, Control_c, 0, 64, 127
2, 33243, Control_c, 0, 64, 127
2, 33244, Control_c, 0, 64, 0
2, 33244, Control_c, 0, 64, 0
2, 33268, Note_on_c, 0, 32, 75
2, 33280, Note_on_c, 0, 92, 93
2, 33280, Note_on_c, 0, 84, 78
2, 33284, Note_off_c, 0, 94, 64
2, 33302, Control_c, 0, 64, 127
2, 33311, Control_c, 0, 64, 127
2, 33420, Control_c, 0, 64, 0
2, 33428, Note_on_c, 0, 44, 62
2, 33460, Control_c, 0, 64, 127
2, 33476, Note_on_c, 0, 51, 69
2, 33502, Note_off_c, 0, 44, 64
2, 33516, Note_on_c, 0, 60, 73
2, 33520, Note_on_c, 0, 66, 95
2, 33534, Note_off_c, 0, 51, 64
2, 33558, Note_off_c, 0, 66, 64
2, 33559, Note_on_c, 0, 72, 73
2, 33565, Note_off_c, 0, 60, 64
2, 33586, Note_off_c, 0, 72, 64
2, 33592, Note_on_c, 0, 80, 95
2, 33595, Note_off_c, 0, 84, 64
2, 33597, Note_off_c, 0, 92, 64
2, 33607, Note_off_c, 0, 80, 64
2, 33630, Note_on_c, 0, 78, 82
2, 33651, Control_c, 0, 64, 0
2, 33659, Control_c, 0, 64, 0
2, 33665, Note_on_c, 0, 84, 71
2, 33683, Note_off_c, 0, 32, 64
2, 33690, Note_off_c, 0, 78, 64
2, 33705, Note_on_c, 0, 92, 78
2, 33707, Control_c, 0, 64, 127
2, 33713, Note_off_c, 0, 84, 64
2, 33719, Control_c, 0, 64, 0
2, 33727, Control_c, 0, 64, 0
2, 33728, Control_c, 0, 64, 127
2, 33748, Note_on_c, 0, 25, 95
2, 33752, Note_on_c, 0, 89, 75
2, 33756, Note_on_c, 0, 85, 88
2, 33772, Note_off_c, 0, 92, 64
2, 33775, Control_c, 0, 64, 127
2, 33796, Control_c, 0, 64, 127
2, 33808, Control_c, 0, 64, 127
2, 33869, Control_c, 0, 64, 0
2, 33921, Control_c, 0, 64, 127
2, 33937, Control_c, 0, 64, 0
2, 33949, Control_c, 0, 64, 0
2, 33953, Note_on_c, 0, 44, 63
2, 33989, Control_c, 0, 64, 127
2, 33996, Note_on_c, 0, 53, 70
2, 34001, Control_c, 0, 64, 127
2, 34017, Note_off_c, 0, 44, 64
2, 34042, Note_off_c, 0, 53, 64
2, 34052, Note_on_c, 0, 61, 77
2, 34056, Note_on_c, 0, 65, 58
2, 34069, Note_off_c, 0, 89, 64
2, 34073, Note_off_c, 0, 85, 64
2, 34076, Note_on_c, 0, 73, 75
2, 34099, Note_off_c, 0, 61, 64
2, 34105, Note_off_c, 0, 65, 64
2, 34118, Note_on_c, 0, 80, 75
2, 34128, Note_off_c, 0, 73, 64
2, 34159, Note_off_c, 0, 25, 64
2, 34170, Note_on_c, 0, 77, 84
2, 34185, Note_off_c, 0, 77, 64
2, 34192, Note_off_c, 0, 80, 64
2, 34203, Note_on_c, 0, 85, 75
2, 34238, Note_off_c, 0, 85, 64
2, 34245, Note_on_c, 0, 92, 84
2, 34275, Note_on_c, 0, 85, 90
2, 34289, Note_off_c, 0, 92, 64
2, 34306, Note_off_c, 0, 85, 64
2, 34315, Note_on_c, 0, 77, 77
2, 34329, Note_off_c, 0, 77, 64
2, 34337, Note_on_c, 0, 80, 59
2, 34366, Note_off_c, 0, 80, 64
2, 34374, Note_on_c, 0, 73, 64
2, 34402, Note_on_c, 0, 65, 77
2, 34413, Note_off_c, 0, 73, 64
2, 34433, Note_off_c, 0, 65, 64
2, 34440, Note_on_c, 0, 68, 76
2, 34474, Note_on_c, 0, 61, 94
2, 34495, Note_off_c, 0, 68, 64
2, 34510, Note_off_c, 0, 61, 64
2, 34517, Note_on_c, 0, 53, 61
2, 34535, Note_off_c, 0, 53, 64
2, 34540, Note_on_c, 0, 56, 81
2, 34547, Control_c, 0, 64, 0
2, 34569, Note_on_c, 0, 49, 67
2, 34590, Control_c, 0, 64, 0
2, 34602, Note_off_c, 0, 56, 64
2, 34602, Control_c, 0, 64, 127
2, 34602, Note_on_c, 0, 41, 77
2, 34615, Control_c, 0, 64, 0
2, 34627, Control_c, 0, 64, 0
2, 34637, Note_off_c, 0, 49, 64
2, 34640, Note_off_c, 0, 41, 64
2, 34644, Note_on_c, 0, 49, 92
2, 34658, Control_c, 0, 64, 0
2, 34666, Control_c, 0, 64, 127
2, 34670, Control_c, 0, 64, 127
2, 34670, Control_c, 0, 64, 0
2, 34678, Note_off_c, 0, 49, 64
2, 34682, Control_c, 0, 64, 127
2, 34705, Note_on_c, 0, 37, 93
2, 34712, Note_on_c, 0, 25, 90
2, 34734, Control_c, 0, 64, 127
2, 34746, Control_c, 0, 64, 127
2, 34960, Control_c, 0, 64, 0
2, 35040, Control_c, 0, 64, 0
2, 35063, Note_on_c, 0, 97, 77
2, 35063, Note_on_c, 0, 73, 66
2, 35064, Note_on_c, 0, 61, 90
2, 35070, Note_on_c, 0, 85, 87
2, 35320, Note_off_c, 0, 25, 64
2, 35330, Note_off_c, 0, 37, 64
2, 35512, Control_c, 0, 64, 0
2, 35567, Note_off_c, 0, 85, 64
2, 35572, Note_off_c, 0, 97, 64
2, 35575, Note_off_c, 0, 73, 64
2, 35576, Note_off_c, 0, 61, 64
2, 35592, Control_c, 0, 64, 0
2, 36184, Note_on_c, 0, 57, 32
2, 36184, Note_on_c, 0, 45, 32
2, 36213, Note_on_c, 0, 58, 36
2, 36228, Note_on_c, 0, 46, 47
2, 36234, Control_c, 0, 64, 0
2, 36242, Note_on_c, 0, 49, 38
2, 36248, Note_on_c, 0, 61, 51
2, 36252, Note_off_c, 0, 45, 64
2, 36260, Note_off_c, 0, 57, 64
2, 36277, Note_off_c, 0, 58, 64
2, 36279, Note_on_c, 0, 65, 39
2, 36284, Note_off_c, 0, 46, 64
2, 36284, Note_on_c, 0, 53, 39
2, 36295, Note_off_c, 0, 61, 64
2, 36296, Note_off_c, 0, 49, 64
2, 36313, Note_off_c, 0, 53, 64
2, 36316, Note_off_c, 0, 65, 64
2, 36516, Note_on_c, 0, 57, 28
2, 36524, Note_on_c, 0, 45, 28
2, 36547, Note_on_c, 0, 46, 34
2, 36548, Note_on_c, 0, 58, 34
2, 36564, Note_off_c, 0, 45, 64
2, 36580, Note_on_c, 0, 49, 29
2, 36582, Note_off_c, 0, 57, 64
2, 36589, Note_on_c, 0, 61, 33
2, 36612, Note_off_c, 0, 46, 64
2, 36618, Note_off_c, 0, 58, 64
2, 36620, Note_on_c, 0, 65, 41
2, 36636, Note_off_c, 0, 61, 64
2, 36640, Note_on_c, 0, 53, 15
2, 36643, Note_off_c, 0, 49, 64
2, 36724, Control_c, 0, 64, 127
2, 36838, Note_off_c, 0, 65, 64
2, 36865, Note_off_c, 0, 53, 64
2, 37152, Control_c, 0, 64, 0
2, 37206, Note_on_c, 0, 58, 93
2, 37210, Note_on_c, 0, 34, 93
2, 37212, Note_on_c, 0, 46, 90
2, 37232, Control_c, 0, 64, 127
2, 37238, Note_off_c, 0, 46, 64
2, 37238, Note_off_c, 0, 58, 64
2, 37239, Note_off_c, 0, 34, 64
2, 37557, Note_on_c, 0, 94, 93
2, 37564, Note_on_c, 0, 90, 93
2, 37564, Note_on_c, 0, 82, 93
2, 37564, Note_on_c, 0, 70, 96
2, 37564, Note_on_c, 0, 60, 80
2, 37573, Note_on_c, 0, 66, 82
2, 37573, Note_on_c, 0, 58, 80
2, 37578, Note_on_c, 0, 63, 78
2, 37589, Control_c, 0, 64, 0
2, 37630, Control_c, 0, 64, 127
2, 37805, Note_off_c, 0, 58, 64
2, 37850, Note_off_c, 0, 63, 64
2, 37860, Note_off_c, 0, 90, 64
2, 37869, Note_off_c, 0, 94, 64
2, 37888, Note_off_c, 0, 66, 64
2, 37892, Note_off_c, 0, 82, 64
2, 37907, Note_off_c, 0, 60, 64
2, 37922, Note_off_c, 0, 70, 64
2, 38115, Note_on_c, 0, 75, 79
2, 38119, Note_on_c, 0, 87, 83
2, 38122, Note_on_c, 0, 84, 81
2, 38122, Note_on_c, 0, 70, 80
2, 38130, Note_on_c, 0, 60, 73
2, 38131, Note_on_c, 0, 66, 75
2, 38131, Note_on_c, 0, 58, 64
2, 38152, Note_off_c, 0, 75, 64
2, 38153, Note_off_c, 0, 58, 64
2, 38153, Note_off_c, 0, 84, 64
2, 38160, Note_off_c, 0, 66, 64
2, 38162, Note_off_c, 0, 70, 64
2, 38165, Note_off_c, 0, 60, 64
2, 38169, Note_off_c, 0, 87, 64
2, 38226, Note_on_c, 0, 84, 82
2, 38226, Note_on_c, 0, 77, 74
2, 38229, Note_on_c, 0, 58, 75
2, 38232, Note_on_c, 0, 89, 82
2, 38232, Note_on_c, 0, 66, 69
2, 38235, Note_on_c, 0, 70, 90
2, 38239, Note_on_c, 0, 60, 75
2, 38247, Note_off_c, 0, 66, 64
2, 38250, Note_off_c, 0, 77, 64
2, 38252, Note_off_c, 0, 84, 64
2, 38256, Note_off_c, 0, 70, 64
2, 38256, Note_off_c, 0, 89, 64
2, 38259, Note_off_c, 0, 60, 64
2, 38264, Note_off_c, 0, 58, 64
2, 38268, Note_on_c, 0, 84, 94
2, 38268, Note_on_c, 0, 78, 87
2, 38272, Note_on_c, 0, 90, 98
2, 38278, Note_on_c, 0, 66, 82
2, 38278, Note_on_c, 0, 58, 69
2, 38284, Note_on_c, 0, 70, 87
2, 38284, Note_on_c, 0, 60, 74
2, 38306, Note_off_c, 0, 84, 64
2, 38313, Note_off_c, 0, 78, 64
2, 38321, Note_off_c, 0, 90, 64
2, 38324, Note_off_c, 0, 60, 64
2, 38326, Note_off_c, 0, 70, 64
2, 38327, Note_off_c, 0, 66, 64
2, 38330, Note_off_c, 0, 58, 64
2, 38371, Control_c, 0, 64, 0
2, 38384, Note_on_c, 0, 58, 55
2, 38392, Note_on_c, 0, 85, 96
2, 38392, Note_on_c, 0, 77, 86
2, 38392, Note_on_c, 0, 70, 83
2, 38402, Note_on_c, 0, 89, 90
2, 38402, Note_on_c, 0, 65, 73
2, 38402, Note_on_c, 0, 61, 66
2, 38419, Control_c, 0, 64, 127
2, 38428, Note_off_c, 0, 70, 64
2, 38430, Note_off_c, 0, 77, 64
2, 38434, Note_off_c, 0, 65, 64
2, 38434, Note_off_c, 0, 89, 64
2, 38442, Note_off_c, 0, 61, 64
2, 38442, Note_off_c, 0, 85, 64
2, 38453, Note_off_c, 0, 58, 64
2, 38612, Note_on_c, 0, 45, 31
2, 38617, Note_on_c, 0, 57, 46
2, 38631, Note_on_c, 0, 46, 30
2, 38642, Note_on_c, 0, 58, 43
2, 38645, Control_c, 0, 64, 0
2, 38654, Note_on_c, 0, 49, 35
2, 38660, Note_off_c, 0, 45, 64
2, 38672, Note_on_c, 0, 61, 48
2, 38676, Note_off_c, 0, 57, 64
2, 38698, Note_off_c, 0, 46, 64
2, 38701, Note_on_c, 0, 53, 42
2, 38707, Note_off_c, 0, 58, 64
2, 38707, Note_on_c, 0, 65, 48
2, 38712, Note_off_c, 0, 49, 64
2, 38716, Note_off_c, 0, 61, 64
2, 38737, Note_off_c, 0, 65, 64
2, 38737, Note_off_c, 0, 53, 64
2, 38940, Note_on_c, 0, 57, 28
2, 38946, Note_on_c, 0, 45, 30
2, 38976, Note_on_c, 0, 46, 34
2, 38979, Note_on_c, 0, 58, 38
2, 38997, Note_off_c, 0, 45, 64
2, 39004, Note_on_c, 0, 49, 33
2, 39014, Note_off_c, 0, 57, 64
2, 39016, Note_on_c, 0, 61, 39
2, 39044, Note_off_c, 0, 46, 64
2, 39050, Note_off_c, 0, 58, 64
2, 39057, Note_on_c, 0, 65, 33
2, 39060, Note_on_c, 0, 53, 29
2, 39072, Note_off_c, 0, 61, 64
2, 39075, Note_off_c, 0, 49, 64
2, 39122, Control_c, 0, 64, 127
2, 39265, Note_off_c, 0, 65, 64
2, 39311, Note_off_c, 0, 53, 64
2, 39580, Control_c, 0, 64, 0
2, 39609, Note_on_c, 0, 56, 93
2, 39612, Note_on_c, 0, 32, 87
2, 39613, Note_on_c, 0, 44, 86
2, 39636, Control_c, 0, 64, 127
2, 39644, Note_off_c, 0, 44, 64
2, 39648, Note_off_c, 0, 32, 64
2, 39648, Note_off_c, 0, 56, 64
2, 39929, Note_on_c, 0, 56, 82
2, 39959, Control_c, 0, 64, 0
2, 39965, Note_on_c, 0, 65, 80
2, 39970, Note_on_c, 0, 92, 93
2, 39974, Note_on_c, 0, 89, 93
2, 39974, Note_on_c, 0, 80, 107
2, 39986, Note_on_c, 0, 73, 93
2, 40003, Control_c, 0, 64, 127
2, 40194, Note_off_c, 0, 73, 64
2, 40198, Note_off_c, 0, 65, 64
2, 40216, Note_off_c, 0, 89, 64
2, 40230, Note_off_c, 0, 92, 64
2, 40239, Note_off_c, 0, 56, 64
2, 40254, Note_off_c, 0, 80, 64
2, 40381, Control_c, 0, 64, 127
2, 40479, Note_on_c, 0, 75, 60
2, 40484, Note_on_c, 0, 87, 67
2, 40490, Note_on_c, 0, 84, 65
2, 40490, Note_on_c, 0, 68, 55
2, 40490, Note_on_c, 0, 66, 55
2, 40496, Note_on_c, 0, 63, 46
2, 40496, Note_on_c, 0, 56, 59
2, 40520, Note_off_c, 0, 63, 64
2, 40522, Note_off_c, 0, 75, 64
2, 40523, Note_off_c, 0, 66, 64
2, 40528, Note_off_c, 0, 56, 64
2, 40528, Note_off_c, 0, 68, 64
2, 40528, Note_off_c, 0, 84, 64
2, 40536, Note_off_c, 0, 87, 64
2, 40582, Note_on_c, 0, 68, 66
2, 40584, Note_on_c, 0, 66, 63
2, 40591, Note_on_c, 0, 88, 74
2, 40591, Note_on_c, 0, 76, 66
2, 40594, Note_on_c, 0, 84, 67
2, 40598, Note_on_c, 0, 63, 65
2, 40598, Note_on_c, 0, 56, 62
2, 40616, Note_off_c, 0, 63, 64
2, 40620, Note_off_c, 0, 84, 64
2, 40620, Note_off_c, 0, 76, 64
2, 40623, Note_off_c, 0, 68, 64
2, 40624, Note_off_c, 0, 56, 64
2, 40624, Note_off_c, 0, 66, 64
2, 40633, Note_off_c, 0, 88, 64
2, 40665, Note_on_c, 0, 68, 75
2, 40668, Note_on_c, 0, 66, 75
2, 40673, Note_on_c, 0, 77, 75
2, 40673, Note_on_c, 0, 56, 70
2, 40678, Note_on_c, 0, 89, 78
2, 40679, Note_on_c, 0, 84, 81
2, 40679, Note_on_c, 0, 63, 62
2, 40698, Note_off_c, 0, 77, 64
2, 40702, Note_off_c, 0, 63, 64
2, 40705, Note_off_c, 0, 66, 64
2, 40705, Note_off_c, 0, 68, 64
2, 40706, Note_off_c, 0, 84, 64
2, 40706, Note_off_c, 0, 56, 64
2, 40720, Note_off_c, 0, 89, 64
2, 40739, Note_on_c, 0, 68, 78
2, 40743, Note_on_c, 0, 56, 77
2, 40744, Note_on_c, 0, 84, 93
2, 40744, Note_on_c, 0, 66, 77
2, 40752, Note_on_c, 0, 92, 100
2, 40752, Note_on_c, 0, 80, 83
2, 40752, Note_on_c, 0, 63, 71
2, 40764, Note_off_c, 0, 84, 64
2, 40772, Note_off_c, 0, 63, 64
2, 40772, Note_off_c, 0, 80, 64
2, 40775, Note_off_c, 0, 66, 64
2, 40775, Note_off_c, 0, 68, 64
2, 40779, Note_off_c, 0, 56, 64
2, 40782, Note_off_c, 0, 92, 64
2, 40808, Note_on_c, 0, 84, 66
2, 40808, Note_on_c, 0, 63, 66
2, 40808, Note_on_c, 0, 56, 77
2, 40811, Note_on_c, 0, 66, 75
2, 40816, Note_on_c, 0, 78, 86
2, 40816, Note_on_c, 0, 68, 75
2, 40820, Note_on_c, 0, 90, 86
2, 40838, Note_off_c, 0, 63, 64
2, 40838, Note_off_c, 0, 84, 64
2, 40848, Note_off_c, 0, 78, 64
2, 40852, Note_off_c, 0, 66, 64
2, 40855, Note_off_c, 0, 90, 64
2, 40860, Note_off_c, 0, 68, 64
2, 40867, Note_off_c, 0, 56, 64
2, 40906, Note_on_c, 0, 85, 100
2, 40907, Control_c, 0, 64, 0
2, 40909, Note_on_c, 0, 77, 87
2, 40909, Note_on_c, 0, 65, 88
2, 40916, Note_on_c, 0, 89, 93
2, 40916, Note_on_c, 0, 68, 93
2, 40916, Note_on_c, 0, 61, 63
2, 40926, Control_c, 0, 64, 0
2, 40946, Control_c, 0, 64, 127
2, 41012, Note_off_c, 0, 85, 64
2, 41014, Note_off_c, 0, 89, 64
2, 41019, Note_off_c, 0, 68, 64
2, 41021, Note_off_c, 0, 65, 64
2, 41027, Note_off_c, 0, 61, 64
2, 41028, Note_off_c, 0, 77, 64
2, 41178, Control_c, 0, 64, 0
2, 41192, Note_on_c, 0, 60, 69
2, 41194, Note_on_c, 0, 77, 82
2, 41194, Note_on_c, 0, 65, 79
2, 41198, Note_on_c, 0, 69, 79
2, 41198, Note_on_c, 0, 53, 83
2, 41220, Control_c, 0, 64, 127
2, 41257, Note_off_c, 0, 60, 64
2, 41258, Note_off_c, 0, 65, 64
2, 41258, Note_off_c, 0, 77, 64
2, 41263, Note_off_c, 0, 69, 64
2, 41281, Note_off_c, 0, 53, 64
2, 41478, Note_on_c, 0, 65, 86
2, 41481, Note_on_c, 0, 57, 82
2, 41481, Note_on_c, 0, 41, 82
2, 41482, Note_on_c, 0, 53, 81
2, 41482, Note_on_c, 0, 48, 82
2, 41579, Note_off_c, 0, 65, 64
2, 41596, Note_off_c, 0, 53, 64
2, 41598, Note_off_c, 0, 57, 64
2, 41606, Note_off_c, 0, 48, 64
2, 41624, Note_off_c, 0, 41, 64
2, 41821, Note_on_c, 0, 29, 92
2, 41827, Note_on_c, 0, 41, 102
2, 41857, Control_c, 0, 64, 0
2, 41937, Control_c, 0, 64, 127
2, 42559, Note_off_c, 0, 41, 64
2, 42560, Note_on_c, 0, 42, 109
2, 42565, Note_on_c, 0, 30, 109
2, 42573, Note_off_c, 0, 42, 64
2, 42574, Note_off_c, 0, 29, 64
2, 42582, Control_c, 0, 64, 0
2, 42588, Note_off_c, 0, 30, 64
2, 43527, Note_on_c, 0, 45, 23
2, 43532, Note_on_c, 0, 57, 24
2, 43546, Note_on_c, 0, 46, 32
2, 43554, Note_on_c, 0, 58, 33
2, 43554, Control_c, 0, 64, 127
2, 43572, Note_on_c, 0, 49, 22
2, 43579, Note_off_c, 0, 45, 64
2, 43586, Note_on_c, 0, 61, 36
2, 43608, Note_off_c, 0, 57, 64
2, 43611, Control_c, 0, 64, 0
2, 43619, Note_on_c, 0, 65, 39
2, 43622, Note_off_c, 0, 58, 64
2, 43625, Note_off_c, 0, 46, 64
2, 43625, Note_on_c, 0, 53, 31
2, 43631, Note_off_c, 0, 61, 64
2, 43634, Note_off_c, 0, 49, 64
2, 43646, Note_off_c, 0, 65, 64
2, 43654, Note_off_c, 0, 53, 64
2, 43862, Note_on_c, 0, 57, 20
2, 43890, Note_on_c, 0, 58, 31
2, 43894, Note_on_c, 0, 46, 28
2, 43900, Note_on_c, 0, 45, 2
2, 43920, Note_on_c, 0, 49, 14
2, 43925, Note_on_c, 0, 61, 31
2, 43934, Note_off_c, 0, 45, 64
2, 43934, Note_off_c, 0, 57, 64
2, 43961, Note_on_c, 0, 65, 31
2, 43969, Note_on_c, 0, 53, 13
2, 43972, Note_off_c, 0, 46, 64
2, 43972, Note_off_c, 0, 58, 64
2, 43978, Note_off_c, 0, 61, 64
2, 43982, Note_off_c, 0, 49, 64
2, 44050, Control_c, 0, 64, 127
2, 44226, Note_off_c, 0, 53, 64
2, 44232, Note_off_c, 0, 65, 64
2, 44404, Control_c, 0, 64, 0
2, 44454, Note_on_c, 0, 58, 110
2, 44454, Note_on_c, 0, 34, 91
2, 44458, Note_on_c, 0, 46, 104
2, 44476, Control_c, 0, 64, 127
2, 44485, Note_off_c, 0, 46, 64
2, 44486, Note_off_c, 0, 34, 64
2, 44488, Note_off_c, 0, 58, 64
2, 44765, Note_on_c, 0, 94, 102
2, 44765, Note_on_c, 0, 58, 82
2, 44770, Note_on_c, 0, 82, 97
2, 44775, Note_on_c, 0, 60, 86
2, 44776, Note_on_c, 0, 90, 93
2, 44776, Note_on_c, 0, 70, 96
2, 44776, Note_on_c, 0, 66, 86
2, 44776, Note_on_c, 0, 63, 86
2, 44788, Control_c, 0, 64, 0
2, 44841, Control_c, 0, 64, 127
2, 44882, Note_off_c, 0, 58, 64
2, 44892, Note_off_c, 0, 63, 64
2, 44902, Note_off_c, 0, 66, 64
2, 44941, Note_off_c, 0, 94, 64
2, 44946, Note_off_c, 0, 90, 64
2, 44954, Note_off_c, 0, 70, 64
2, 44960, Note_off_c, 0, 60, 64
2, 44960, Note_off_c, 0, 82, 64
2, 45200, Note_on_c, 0, 70, 69
2, 45206, Note_on_c, 0, 75, 71
2, 45207, Note_on_c, 0, 87, 72
2, 45207, Note_on_c, 0, 60, 64
2, 45208, Note_on_c, 0, 63, 58
2, 45212, Note_on_c, 0, 58, 56
2, 45213, Note_on_c, 0, 84, 67
2, 45213, Note_on_c, 0, 66, 58
2, 45222, Note_off_c, 0, 66, 64
2, 45223, Note_off_c, 0, 63, 64
2, 45225, Note_off_c, 0, 58, 64
2, 45225, Note_off_c, 0, 87, 64
2, 45226, Note_off_c, 0, 75, 64
2, 45230, Note_off_c, 0, 84, 64
2, 45232, Note_off_c, 0, 60, 64
2, 45232, Note_off_c, 0, 70, 64
2, 45246, Note_on_c, 0, 60, 62
2, 45249, Note_on_c, 0, 58, 62
2, 45250, Note_on_c, 0, 75, 73
2, 45250, Note_on_c, 0, 70, 67
2, 45256, Note_on_c, 0, 63, 58
2, 45258, Note_on_c, 0, 87, 74
2, 45258, Note_on_c, 0, 84, 78
2, 45259, Note_on_c, 0, 66, 64
2, 45282, Note_off_c, 0, 75, 64
2, 45286, Note_off_c, 0, 70, 64
2, 45288, Note_off_c, 0, 66, 64
2, 45288, Note_off_c, 0, 84, 64
2, 45294, Note_off_c, 0, 60, 64
2, 45297, Note_off_c, 0, 87, 64
2, 45298, Note_off_c, 0, 58, 64
2, 45316, Note_off_c, 0, 63, 64
2, 45363, Note_on_c, 0, 60, 71
2, 45363, Note_on_c, 0, 58, 67
2, 45368, Note_on_c, 0, 63, 58
2, 45371, Note_on_c, 0, 87, 77
2, 45371, Note_on_c, 0, 84, 74
2, 45371, Note_on_c, 0, 75, 78
2, 45372, Note_on_c, 0, 70, 82
2, 45372, Note_on_c, 0, 66, 72
2, 45383, Note_off_c, 0, 63, 64
2, 45393, Note_off_c, 0, 66, 64
2, 45393, Note_off_c, 0, 75, 64
2, 45400, Note_off_c, 0, 84, 64
2, 45402, Note_off_c, 0, 70, 64
2, 45406, Note_off_c, 0, 58, 64
2, 45408, Note_off_c, 0, 60, 64
2, 45411, Note_off_c, 0, 87, 64
2, 45482, Note_on_c, 0, 84, 67
2, 45488, Note_on_c, 0, 77, 58
2, 45488, Note_on_c, 0, 66, 58
2, 45488, Note_on_c, 0, 63, 58
2, 45492, Note_on_c, 0, 70, 78
2, 45492, Note_on_c, 0, 60, 67
2, 45492, Note_on_c, 0, 58, 62
2, 45502, Note_on_c, 0, 89, 72
2, 45503, Note_off_c, 0, 63, 64
2, 45503, Note_off_c, 0, 66, 64
2, 45505, Note_off_c, 0, 77, 64
2, 45514, Note_off_c, 0, 89, 64
2, 45514, Note_off_c, 0, 84, 64
2, 45518, Note_off_c, 0, 70, 64
2, 45520, Note_off_c, 0, 60, 64
2, 45522, Note_off_c, 0, 58, 64
2, 45526, Note_on_c, 0, 84, 74
2, 45526, Note_on_c, 0, 78, 72
2, 45529, Note_on_c, 0, 90, 79
2, 45536, Note_on_c, 0, 63, 58
2, 45536, Note_on_c, 0, 58, 63
2, 45539, Note_on_c, 0, 70, 74
2, 45540, Note_on_c, 0, 66, 72
2, 45540, Note_on_c, 0, 60, 72
2, 45552, Note_off_c, 0, 84, 64
2, 45569, Note_off_c, 0, 90, 64
2, 45571, Note_off_c, 0, 70, 64
2, 45574, Note_off_c, 0, 78, 64
2, 45575, Note_off_c, 0, 66, 64
2, 45577, Note_off_c, 0, 60, 64
2, 45578, Note_off_c, 0, 58, 64
2, 45596, Note_off_c, 0, 63, 64
2, 45635, Control_c, 0, 64, 0
2, 45653, Note_on_c, 0, 58, 3
2, 45660, Note_on_c, 0, 70, 80
2, 45661, Note_on_c, 0, 85, 86
2, 45666, Note_on_c, 0, 89, 81
2, 45666, Note_on_c, 0, 77, 86
2, 45672, Note_on_c, 0, 65, 75
2, 45672, Note_on_c, 0, 61, 73
2, 45690, Control_c, 0, 64, 127
2, 45698, Note_off_c, 0, 70, 64
2, 45702, Note_off_c, 0, 65, 64
2, 45702, Note_off_c, 0, 89, 64
2, 45708, Note_off_c, 0, 61, 64
2, 45708, Note_off_c, 0, 85, 64
2, 45710, Note_off_c, 0, 77, 64
2, 45717, Note_off_c, 0, 58, 64
2, 45881, Note_on_c, 0, 57, 34
2, 45884, Note_on_c, 0, 45, 29
2, 45908, Control_c, 0, 64, 0
2, 45912, Note_on_c, 0, 46, 17
2, 45919, Note_on_c, 0, 58, 35
2, 45935, Note_on_c, 0, 49, 17
2, 45942, Note_off_c, 0, 45, 64
2, 45943, Note_on_c, 0, 61, 31
2, 45955, Note_off_c, 0, 57, 64
2, 45978, Note_off_c, 0, 58, 64
2, 45980, Note_on_c, 0, 65, 39
2, 45980, Note_on_c, 0, 53, 24
2, 45984, Note_off_c, 0, 46, 64
2, 45990, Note_off_c, 0, 49, 64
2, 45995, Note_off_c, 0, 61, 64
2, 46007, Note_off_c, 0, 65, 64
2, 46011, Note_off_c, 0, 53, 64
2, 46213, Note_on_c, 0, 45, 28
2, 46216, Note_on_c, 0, 57, 33
2, 46246, Note_on_c, 0, 58, 34
2, 46250, Note_on_c, 0, 46, 28
2, 46274, Note_off_c, 0, 45, 64
2, 46276, Note_off_c, 0, 57, 64
2, 46277, Note_on_c, 0, 49, 21
2, 46282, Note_on_c, 0, 61, 33
2, 46314, Note_off_c, 0, 46, 64
2, 46315, Note_off_c, 0, 58, 64
2, 46324, Note_on_c, 0, 65, 30
2, 46332, Note_on_c, 0, 53, 18
2, 46340, Note_off_c, 0, 61, 64
2, 46340, Note_off_c, 0, 49, 64
2, 46509, Control_c, 0, 64, 127
2, 46587, Note_off_c, 0, 65, 64
2, 46668, Note_off_c, 0, 53, 64
2, 46762, Control_c, 0, 64, 0
2, 46814, Note_on_c, 0, 60, 95
2, 46821, Note_on_c, 0, 48, 103
2, 46821, Note_on_c, 0, 36, 108
2, 46833, Control_c, 0, 64, 127
2, 46844, Note_off_c, 0, 48, 64
2, 46846, Note_off_c, 0, 60, 64
2, 46849, Note_off_c, 0, 36, 64
2, 47100, Note_on_c, 0, 65, 82
2, 47104, Note_on_c, 0, 72, 82
2, 47104, Note_on_c, 0, 60, 80
2, 47108, Note_on_c, 0, 89, 86
2, 47108, Note_on_c, 0, 84, 83
2, 47111, Note_on_c, 0, 92, 83
2, 47111, Note_on_c, 0, 68, 75
2, 47112, Note_on_c, 0, 96, 88
2, 47130, Control_c, 0, 64, 0
2, 47171, Control_c, 0, 64, 127
2, 47362, Note_off_c, 0, 65, 64
2, 47365, Note_off_c, 0, 96, 64
2, 47365, Note_off_c, 0, 89, 64
2, 47372, Note_off_c, 0, 92, 64
2, 47382, Note_off_c, 0, 84, 64
2, 47391, Note_off_c, 0, 68, 64
2, 47399, Note_off_c, 0, 72, 64
2, 47402, Note_off_c, 0, 60, 64
2, 47560, Note_on_c, 0, 72, 56
2, 47560, Note_on_c, 0, 64, 64
2, 47560, Note_on_c, 0, 60, 60
2, 47566, Note_on_c, 0, 70, 46
2, 47568, Note_on_c, 0, 97, 74
2, 47568, Note_on_c, 0, 91, 75
2, 47568, Note_on_c, 0, 85, 64
2, 47573, Control_c, 0, 64, 127
2, 47589, Control_c, 0, 64, 127
2, 47612, Control_c, 0, 64, 0
2, 47620, Note_off_c, 0, 60, 64
2, 47620, Note_off_c, 0, 64, 64
2, 47620, Note_off_c, 0, 72, 64
2, 47626, Note_off_c, 0, 70, 64
2, 47628, Note_off_c, 0, 85, 64
2, 47628, Note_off_c, 0, 91, 64
2, 47628, Note_off_c, 0, 97, 64
2, 47632, Note_on_c, 0, 91, 74
2, 47632, Note_on_c, 0, 84, 74
2, 47632, Note_on_c, 0, 72, 72
2, 47632, Note_on_c, 0, 70, 74
2, 47632, Note_on_c, 0, 64, 64
2, 47632, Note_on_c, 0, 60, 75
2, 47636, Note_on_c, 0, 96, 69
2, 47651, Control_c, 0, 64, 127
2, 47692, Note_off_c, 0, 60, 64
2, 47692, Note_off_c, 0, 64, 64
2, 47692, Note_off_c, 0, 70, 64
2, 47692, Note_off_c, 0, 72, 64
2, 47692, Note_off_c, 0, 84, 64
2, 47692, Note_off_c, 0, 91, 64
2, 47696, Note_off_c, 0, 96, 64
2, 47696, Note_on_c, 0, 89, 70
2, 47696, Note_on_c, 0, 77, 81
2, 47696, Note_on_c, 0, 60, 60
2, 47700, Note_on_c, 0, 84, 69
2, 47700, Note_on_c, 0, 72, 63
2, 47700, Note_on_c, 0, 70, 64
2, 47700, Note_on_c, 0, 64, 63
2, 47756, Note_off_c, 0, 60, 64
2, 47756, Note_off_c, 0, 77, 64
2, 47756, Note_off_c, 0, 89, 64
2, 47760, Note_off_c, 0, 64, 64
2, 47760, Note_off_c, 0, 70, 64
2, 47760, Note_off_c, 0, 72, 64
2, 47760, Note_off_c, 0, 84, 64
2, 47768, Note_on_c, 0, 70, 72
2, 47772, Note_on_c, 0, 91, 81
2, 47772, Note_on_c, 0, 79, 83
2, 47772, Note_on_c, 0, 72, 66
2, 47772, Note_on_c, 0, 64, 64
2, 47772, Note_on_c, 0, 60, 60
2, 47776, Note_on_c, 0, 84, 87
2, 47843, Note_off_c, 0, 70, 64
2, 47846, Control_c, 0, 64, 0
2, 47847, Note_off_c, 0, 60, 64
2, 47847, Note_off_c, 0, 64, 64
2, 47847, Note_off_c, 0, 72, 64
2, 47847, Note_off_c, 0, 79, 64
2, 47847, Note_off_c, 0, 91, 64
2, 47851, Note_off_c, 0, 84, 64
2, 47868, Note_on_c, 0, 92, 87
2, 47868, Note_on_c, 0, 84, 81
2, 47868, Note_on_c, 0, 80, 74
2, 47868, Note_on_c, 0, 72, 81
2, 47868, Note_on_c, 0, 68, 80
2, 47868, Note_on_c, 0, 65, 70
2, 47899, Control_c, 0, 64, 127
2, 47900, Control_c, 0, 64, 0
2, 47916, Control_c, 0, 64, 0
2, 47960, Control_c, 0, 64, 127
2, 47976, Control_c, 0, 64, 127
2, 48012, Control_c, 0, 64, 0
2, 48019, Note_off_c, 0, 72, 64
2, 48023, Note_off_c, 0, 68, 64
2, 48023, Note_off_c, 0, 80, 64
2, 48023, Note_off_c, 0, 84, 64
2, 48023, Note_off_c, 0, 92, 64
2, 48026, Note_off_c, 0, 65, 64
2, 48028, Control_c, 0, 64, 0
2, 48088, Note_on_c, 0, 65, 83
2, 48088, Note_on_c, 0, 60, 83
2, 48096, Note_on_c, 0, 77, 86
2, 48096, Note_on_c, 0, 72, 89
2, 48096, Note_on_c, 0, 68, 96
2, 48100, Note_on_c, 0, 80, 86
2, 48103, Note_on_c, 0, 53, 86
2, 48112, Control_c, 0, 64, 0
2, 48156, Control_c, 0, 64, 127
2, 48168, Note_off_c, 0, 60, 64
2, 48168, Note_off_c, 0, 65, 64
2, 48176, Note_off_c, 0, 68, 64
2, 48176, Note_off_c, 0, 72, 64
2, 48176, Note_off_c, 0, 77, 64
2, 48180, Note_off_c, 0, 80, 64
2, 48184, Note_off_c, 0, 53, 64
2, 48340, Control_c, 0, 64, 0
2, 48343, Note_on_c, 0, 68, 83
2, 48349, Note_on_c, 0, 41, 86
2, 48354, Note_on_c, 0, 60, 89
2, 48354, Note_on_c, 0, 53, 86
2, 48355, Note_on_c, 0, 65, 79
2, 48355, Note_on_c, 0, 56, 94
2, 48355, Note_on_c, 0, 48, 82
2, 48385, Control_c, 0, 64, 127
2, 48454, Note_off_c, 0, 68, 64
2, 48459, Note_off_c, 0, 65, 64
2, 48465, Note_off_c, 0, 60, 64
2, 48472, Note_off_c, 0, 53, 64
2, 48484, Note_off_c, 0, 48, 64
2, 48486, Note_off_c, 0, 56, 64
2, 48497, Note_off_c, 0, 41, 64
2, 48631, Note_on_c, 0, 40, 86
2, 48636, Note_on_c, 0, 28, 82
2, 48646, Control_c, 0, 64, 0
2, 48704, Control_c, 0, 64, 127
2, 49148, Note_off_c, 0, 28, 64
2, 49148, Note_off_c, 0, 40, 64
2, 49148, Note_on_c, 0, 41, 72
2, 49148, Note_on_c, 0, 29, 65
2, 49420, Note_on_c, 0, 26, 33
2, 49421, Note_on_c, 0, 38, 57
2, 49437, Note_off_c, 0, 29, 64
2, 49437, Note_off_c, 0, 41, 64
2, 49437, Control_c, 0, 64, 127
2, 49492, Note_on_c, 0, 39, 51
2, 49492, Note_on_c, 0, 27, 41
2, 49497, Note_off_c, 0, 26, 64
2, 49498, Note_off_c, 0, 38, 64
2, 49556, Note_off_c, 0, 39, 64
2, 49564, Note_on_c, 0, 41, 35
2, 49571, Note_off_c, 0, 27, 64
2, 49573, Note_on_c, 0, 29, 45
2, 49610, Note_on_c, 0, 39, 44
2, 49611, Note_off_c, 0, 41, 64
2, 49635, Note_on_c, 0, 27, 45
2, 49647, Note_off_c, 0, 29, 64
2, 49651, Note_off_c, 0, 39, 64
2, 49655, Note_on_c, 0, 41, 66
2, 49685, Note_on_c, 0, 29, 63
2, 49693, Note_off_c, 0, 41, 64
2, 49695, Note_on_c, 0, 39, 55
2, 49699, Note_off_c, 0, 27, 64
2, 49722, Note_off_c, 0, 39, 64
2, 49732, Note_on_c, 0, 41, 51
2, 49737, Note_on_c, 0, 27, 57
2, 49740, Note_off_c, 0, 29, 64
2, 49761, Note_off_c, 0, 41, 64
2, 49763, Note_on_c, 0, 39, 75
2, 49777, Note_on_c, 0, 29, 72
2, 49787, Note_off_c, 0, 27, 64
2, 49792, Note_off_c, 0, 39, 64
2, 49799, Note_on_c, 0, 41, 63
2, 49820, Note_on_c, 0, 27, 64
2, 49828, Note_off_c, 0, 41, 64
2, 49831, Note_off_c, 0, 29, 64
2, 49836, Note_on_c, 0, 39, 79
2, 49864, Note_off_c, 0, 39, 64
2, 49868, Note_on_c, 0, 41, 66
2, 49868, Note_on_c, 0, 29, 78
2, 49871, Note_off_c, 0, 27, 64
2, 49896, Note_off_c, 0, 41, 64
2, 49900, Note_on_c, 0, 39, 80
2, 49900, Note_on_c, 0, 27, 72
2, 49912, Note_off_c, 0, 29, 64
2, 49928, Note_on_c, 0, 41, 73
2, 49931, Note_off_c, 0, 39, 64
2, 49937, Control_c, 0, 64, 0
2, 49950, Note_on_c, 0, 29, 85
2, 49952, Note_off_c, 0, 27, 64
2, 49960, Note_off_c, 0, 41, 64
2, 49969, Note_on_c, 0, 39, 84
2, 49987, Note_on_c, 0, 27, 66
2, 49996, Note_off_c, 0, 39, 64
2, 49996, Note_on_c, 0, 41, 84
2, 50040, Note_on_c, 0, 39, 69
2, 50058, Note_off_c, 0, 41, 64
2, 50087, Note_off_c, 0, 29, 64
2, 50094, Note_on_c, 0, 26, 54
2, 50105, Note_off_c, 0, 39, 64
2, 50109, Note_off_c, 0, 27, 64
2, 50109, Note_on_c, 0, 38, 81
2, 50170, Note_on_c, 0, 27, 90
2, 50176, Note_on_c, 0, 39, 95
2, 50180, Note_off_c, 0, 38, 64
2, 50192, Note_off_c, 0, 26, 64
2, 50210, Control_c, 0, 64, 0
2, 50219, Note_off_c, 0, 27, 64
2, 50229, Note_off_c, 0, 39, 64
2, 50231, Control_c, 0, 64, 127
2, 50235, Note_on_c, 0, 101, 96
2, 50244, Note_on_c, 0, 37, 95
2, 50244, Note_on_c, 0, 25, 95
2, 50423, Note_on_c, 0, 56, 62
2, 50423, Note_on_c, 0, 44, 64
2, 50473, Note_off_c, 0, 56, 64
2, 50480, Note_off_c, 0, 44, 64
2, 50516, Note_on_c, 0, 61, 79
2, 50521, Note_on_c, 0, 53, 42
2, 50568, Note_off_c, 0, 53, 64
2, 50578, Note_off_c, 0, 61, 64
2, 50588, Note_on_c, 0, 99, 57
2, 50620, Note_on_c, 0, 97, 82
2, 50624, Note_off_c, 0, 101, 64
2, 50644, Note_off_c, 0, 99, 64
2, 50652, Note_on_c, 0, 92, 72
2, 50669, Note_off_c, 0, 97, 64
2, 50672, Note_on_c, 0, 44, 69
2, 50680, Note_on_c, 0, 56, 41
2, 50686, Note_on_c, 0, 89, 77
2, 50688, Note_off_c, 0, 92, 64
2, 50711, Note_off_c, 0, 89, 64
2, 50728, Note_on_c, 0, 87, 94
2, 50731, Note_off_c, 0, 44, 64
2, 50735, Note_on_c, 0, 53, 69
2, 50739, Note_off_c, 0, 56, 64
2, 50750, Note_on_c, 0, 61, 77
2, 50757, Note_off_c, 0, 25, 64
2, 50761, Note_on_c, 0, 85, 78
2, 50762, Note_off_c, 0, 37, 64
2, 50770, Note_off_c, 0, 87, 64
2, 50806, Note_on_c, 0, 80, 77
2, 50812, Note_off_c, 0, 61, 64
2, 50815, Note_off_c, 0, 85, 64
2, 50838, Note_off_c, 0, 80, 64
2, 50840, Note_on_c, 0, 77, 72
2, 50850, Note_off_c, 0, 53, 64
2, 50870, Note_off_c, 0, 77, 64
2, 50883, Note_on_c, 0, 75, 76
2, 50924, Note_on_c, 0, 73, 79
2, 50934, Note_off_c, 0, 75, 64
2, 50966, Control_c, 0, 64, 0
2, 50978, Note_on_c, 0, 68, 69
2, 50990, Note_off_c, 0, 73, 64
2, 51077, Note_off_c, 0, 68, 64
2, 51255, Note_on_c, 0, 44, 58
2, 51260, Note_on_c, 0, 54, 52
2, 51260, Note_on_c, 0, 51, 55
2, 51264, Note_on_c, 0, 72, 70
2, 51272, Control_c, 0, 64, 127
2, 51290, Note_on_c, 0, 73, 70
2, 51292, Note_off_c, 0, 44, 64
2, 51297, Note_off_c, 0, 51, 64
2, 51306, Note_off_c, 0, 54, 64
2, 51310, Note_off_c, 0, 72, 64
2, 51329, Note_on_c, 0, 75, 64
2, 51341, Note_off_c, 0, 73, 64
2, 51360, Note_off_c, 0, 75, 64
2, 51374, Note_on_c, 0, 77, 76
2, 51416, Note_on_c, 0, 78, 65
2, 51435, Note_off_c, 0, 77, 64
2, 51451, Note_on_c, 0, 80, 73
2, 51464, Note_off_c, 0, 78, 64
2, 51478, Control_c, 0, 64, 0
2, 51488, Note_on_c, 0, 60, 55
2, 51496, Note_on_c, 0, 81, 64
2, 51496, Note_on_c, 0, 66, 58
2, 51496, Note_on_c, 0, 55, 51
2, 51512, Note_off_c, 0, 80, 64
2, 51520, Control_c, 0, 64, 127
2, 51534, Note_off_c, 0, 60, 64
2, 51538, Note_off_c, 0, 66, 64
2, 51567, Note_off_c, 0, 81, 64
2, 51575, Control_c, 0, 64, 0
2, 51595, Note_off_c, 0, 55, 64
2, 51597, Note_on_c, 0, 56, 56
2, 51598, Control_c, 0, 64, 127
2, 51604, Note_on_c, 0, 66, 63
2, 51604, Note_on_c, 0, 60, 59
2, 51637, Note_off_c, 0, 60, 64
2, 51639, Note_off_c, 0, 66, 64
2, 51644, Note_off_c, 0, 56, 64
2, 51677, Note_on_c, 0, 56, 55
2, 51684, Note_on_c, 0, 66, 62
2, 51684, Note_on_c, 0, 60, 51
2, 51740, Note_off_c, 0, 60, 64
2, 51751, Note_off_c, 0, 56, 64
2, 51759, Note_on_c, 0, 81, 70
2, 51788, Note_on_c, 0, 80, 66
2, 51801, Note_off_c, 0, 81, 64
2, 51804, Note_off_c, 0, 66, 64
2, 51827, Note_off_c, 0, 80, 64
2, 51830, Note_on_c, 0, 79, 75
2, 51866, Note_on_c, 0, 78, 77
2, 51872, Note_off_c, 0, 79, 64
2, 51899, Note_on_c, 0, 77, 60
2, 51912, Note_off_c, 0, 78, 64
2, 51924, Control_c, 0, 64, 0
2, 51935, Note_on_c, 0, 76, 75
2, 51940, Note_off_c, 0, 77, 64
2, 51973, Note_on_c, 0, 57, 55
2, 51975, Note_on_c, 0, 66, 61
2, 51980, Note_on_c, 0, 75, 86
2, 51980, Note_on_c, 0, 60, 55
2, 51986, Note_off_c, 0, 76, 64
2, 51988, Control_c, 0, 64, 127
2, 51993, Note_off_c, 0, 75, 64
2, 52008, Note_off_c, 0, 60, 64
2, 52017, Note_off_c, 0, 66, 64
2, 52067, Note_on_c, 0, 56, 49
2, 52072, Note_off_c, 0, 57, 64
2, 52072, Note_on_c, 0, 66, 62
2, 52075, Note_on_c, 0, 60, 52
2, 52104, Note_off_c, 0, 60, 64
2, 52110, Note_off_c, 0, 66, 64
2, 52112, Note_off_c, 0, 56, 64
2, 52150, Note_on_c, 0, 66, 61
2, 52154, Note_on_c, 0, 56, 58
2, 52160, Note_on_c, 0, 60, 54
2, 52174, Note_off_c, 0, 66, 64
2, 52175, Note_off_c, 0, 60, 64
2, 52186, Note_off_c, 0, 56, 64
2, 52257, Control_c, 0, 64, 0
2, 52276, Note_on_c, 0, 101, 98
2, 52278, Note_on_c, 0, 37, 71
2, 52282, Note_on_c, 0, 25, 69
2, 52309, Control_c, 0, 64, 127
2, 52470, Note_on_c, 0, 56, 73
2, 52472, Note_on_c, 0, 44, 71
2, 52521, Note_off_c, 0, 56, 64
2, 52529, Note_off_c, 0, 44, 64
2, 52560, Note_on_c, 0, 53, 69
2, 52566, Note_on_c, 0, 61, 92
2, 52622, Note_off_c, 0, 61, 64
2, 52634, Note_on_c, 0, 99, 65
2, 52654, Note_off_c, 0, 53, 64
2, 52665, Note_off_c, 0, 101, 64
2, 52666, Note_on_c, 0, 97, 79
2, 52688, Note_off_c, 0, 99, 64
2, 52697, Note_on_c, 0, 92, 68
2, 52700, Note_on_c, 0, 56, 57
2, 52700, Note_on_c, 0, 44, 75
2, 52715, Note_off_c, 0, 97, 64
2, 52726, Note_on_c, 0, 89, 69
2, 52731, Note_off_c, 0, 92, 64
2, 52736, Note_off_c, 0, 56, 64
2, 52752, Note_off_c, 0, 44, 64
2, 52754, Note_off_c, 0, 89, 64
2, 52771, Note_on_c, 0, 87, 79
2, 52776, Note_on_c, 0, 53, 67
2, 52786, Note_on_c, 0, 61, 77
2, 52805, Note_on_c, 0, 85, 72
2, 52818, Note_off_c, 0, 87, 64
2, 52827, Note_off_c, 0, 25, 64
2, 52828, Note_off_c, 0, 61, 64
2, 52843, Note_off_c, 0, 37, 64
2, 52843, Note_on_c, 0, 80, 68
2, 52855, Note_off_c, 0, 85, 64
2, 52860, Note_off_c, 0, 53, 64
2, 52882, Note_off_c, 0, 80, 64
2, 52888, Note_on_c, 0, 77, 51
2, 52906, Note_off_c, 0, 77, 64
2, 52926, Note_on_c, 0, 75, 63
2, 52938, Control_c, 0, 64, 0
2, 52974, Note_off_c, 0, 75, 64
2, 52976, Note_on_c, 0, 73, 36
2, 53018, Note_on_c, 0, 68, 52
2, 53024, Note_off_c, 0, 73, 64
2, 53118, Note_off_c, 0, 68, 64
2, 53285, Note_on_c, 0, 72, 54
2, 53285, Note_on_c, 0, 44, 53
2, 53290, Note_on_c, 0, 54, 46
2, 53290, Note_on_c, 0, 51, 48
2, 53307, Control_c, 0, 64, 127
2, 53316, Note_on_c, 0, 73, 55
2, 53335, Note_off_c, 0, 51, 64
2, 53337, Note_off_c, 0, 44, 64
2, 53342, Note_off_c, 0, 72, 64
2, 53354, Note_off_c, 0, 54, 64
2, 53364, Note_on_c, 0, 75, 64
2, 53378, Note_off_c, 0, 73, 64
2, 53397, Note_off_c, 0, 75, 64
2, 53414, Note_on_c, 0, 77, 63
2, 53454, Note_on_c, 0, 78, 57
2, 53474, Note_off_c, 0, 77, 64
2, 53491, Note_on_c, 0, 80, 58
2, 53511, Note_off_c, 0, 78, 64
2, 53530, Note_on_c, 0, 81, 65
2, 53536, Note_on_c, 0, 60, 49
2, 53540, Note_off_c, 0, 80, 64
2, 53543, Control_c, 0, 64, 0
2, 53566, Control_c, 0, 64, 127
2, 53576, Note_on_c, 0, 61, 39
2, 53579, Note_off_c, 0, 81, 64
2, 53593, Note_off_c, 0, 60, 64
2, 53611, Note_on_c, 0, 63, 61
2, 53630, Note_off_c, 0, 61, 64
2, 53654, Note_on_c, 0, 65, 58
2, 53658, Note_off_c, 0, 63, 64
2, 53692, Note_on_c, 0, 66, 63
2, 53706, Note_off_c, 0, 65, 64
2, 53730, Control_c, 0, 64, 0
2, 53738, Note_on_c, 0, 68, 69
2, 53749, Note_off_c, 0, 66, 64
2, 53772, Note_on_c, 0, 69, 60
2, 53780, Note_off_c, 0, 68, 64
2, 53784, Note_on_c, 0, 81, 51
2, 53795, Control_c, 0, 64, 127
2, 53819, Note_on_c, 0, 80, 57
2, 53821, Note_off_c, 0, 69, 64
2, 53833, Note_off_c, 0, 81, 64
2, 53863, Note_on_c, 0, 79, 55
2, 53865, Note_off_c, 0, 80, 64
2, 53901, Note_on_c, 0, 78, 55
2, 53910, Note_off_c, 0, 79, 64
2, 53933, Note_on_c, 0, 77, 40
2, 53947, Note_off_c, 0, 78, 64
2, 53970, Control_c, 0, 64, 0
2, 53979, Note_off_c, 0, 77, 64
2, 53979, Note_on_c, 0, 76, 40
2, 54016, Note_on_c, 0, 57, 49
2, 54027, Note_on_c, 0, 75, 51
2, 54035, Control_c, 0, 64, 127
2, 54048, Note_on_c, 0, 56, 57
2, 54059, Note_off_c, 0, 76, 64
2, 54063, Note_off_c, 0, 57, 64
2, 54087, Note_off_c, 0, 56, 64
2, 54096, Note_on_c, 0, 55, 50
2, 54103, Note_off_c, 0, 75, 64
2, 54136, Note_on_c, 0, 54, 45
2, 54142, Note_off_c, 0, 55, 64
2, 54174, Note_off_c, 0, 54, 64
2, 54187, Note_on_c, 0, 53, 48
2, 54230, Note_off_c, 0, 53, 64
2, 54231, Note_on_c, 0, 51, 30
2, 54240, Control_c, 0, 64, 0
2, 54280, Note_off_c, 0, 51, 64
2, 54280, Note_on_c, 0, 77, 69
2, 54284, Note_on_c, 0, 71, 49
2, 54284, Note_on_c, 0, 49, 31
2, 54306, Control_c, 0, 64, 127
2, 54330, Note_on_c, 0, 56, 46
2, 54336, Note_off_c, 0, 49, 64
2, 54373, Note_on_c, 0, 61, 46
2, 54383, Note_off_c, 0, 56, 64
2, 54407, Note_off_c, 0, 61, 64
2, 54412, Note_on_c, 0, 65, 46
2, 54444, Note_on_c, 0, 61, 46
2, 54457, Note_off_c, 0, 71, 64
2, 54462, Note_off_c, 0, 65, 64
2, 54482, Note_off_c, 0, 61, 64
2, 54482, Note_on_c, 0, 56, 46
2, 54522, Note_off_c, 0, 56, 64
2, 54525, Note_on_c, 0, 49, 55
2, 54528, Note_on_c, 0, 71, 51
2, 54558, Note_off_c, 0, 49, 64
2, 54560, Note_on_c, 0, 59, 46
2, 54608, Note_on_c, 0, 75, 74
2, 54608, Note_on_c, 0, 61, 46
2, 54611, Note_off_c, 0, 59, 64
2, 54614, Note_off_c, 0, 77, 64
2, 54648, Note_on_c, 0, 65, 46
2, 54665, Note_off_c, 0, 61, 64
2, 54696, Note_on_c, 0, 61, 46
2, 54712, Note_off_c, 0, 65, 64
2, 54714, Note_off_c, 0, 75, 64
2, 54732, Note_on_c, 0, 73, 73
2, 54732, Note_on_c, 0, 59, 46
2, 54738, Note_off_c, 0, 61, 64
2, 54755, Note_off_c, 0, 71, 64
2, 54757, Control_c, 0, 64, 0
2, 54768, Note_off_c, 0, 73, 64
2, 54778, Note_off_c, 0, 59, 64
2, 54786, Note_on_c, 0, 71, 73
2, 54790, Note_on_c, 0, 73, 75
2, 54790, Note_on_c, 0, 54, 58
2, 54822, Control_c, 0, 64, 127
2, 54828, Note_on_c, 0, 59, 46
2, 54854, Note_off_c, 0, 54, 64
2, 54864, Note_on_c, 0, 61, 46
2, 54873, Note_off_c, 0, 59, 64
2, 54898, Note_on_c, 0, 66, 46
2, 54924, Note_off_c, 0, 61, 64
2, 54934, Note_on_c, 0, 61, 46
2, 54954, Note_off_c, 0, 66, 64
2, 54986, Note_off_c, 0, 61, 64
2, 54992, Note_on_c, 0, 59, 46
2, 55011, Control_c, 0, 64, 0
2, 55024, Note_on_c, 0, 78, 78
2, 55024, Note_on_c, 0, 70, 63
2, 55024, Note_on_c, 0, 49, 58
2, 55025, Note_off_c, 0, 59, 64
2, 55042, Note_off_c, 0, 73, 64
2, 55042, Control_c, 0, 64, 127
2, 55056, Note_on_c, 0, 58, 46
2, 55068, Note_off_c, 0, 49, 64
2, 55069, Note_off_c, 0, 71, 64
2, 55100, Note_on_c, 0, 61, 46
2, 55112, Note_off_c, 0, 58, 64
2, 55132, Note_on_c, 0, 66, 46
2, 55160, Note_off_c, 0, 61, 64
2, 55167, Note_off_c, 0, 66, 64
2, 55180, Note_on_c, 0, 61, 46
2, 55214, Note_off_c, 0, 61, 64
2, 55220, Note_on_c, 0, 58, 46
2, 55258, Control_c, 0, 64, 0
2, 55268, Note_on_c, 0, 71, 69
2, 55275, Note_off_c, 0, 58, 64
2, 55276, Note_on_c, 0, 56, 55
2, 55301, Note_off_c, 0, 70, 64
2, 55306, Note_off_c, 0, 78, 64
2, 55322, Note_off_c, 0, 56, 64
2, 55325, Control_c, 0, 64, 127
2, 55334, Note_on_c, 0, 59, 46
2, 55371, Note_on_c, 0, 61, 46
2, 55384, Note_off_c, 0, 59, 64
2, 55402, Note_on_c, 0, 65, 46
2, 55407, Note_off_c, 0, 61, 64
2, 55447, Note_off_c, 0, 65, 64
2, 55447, Note_on_c, 0, 77, 83
2, 55456, Note_on_c, 0, 61, 46
2, 55488, Note_on_c, 0, 59, 46
2, 55492, Note_off_c, 0, 77, 64
2, 55510, Control_c, 0, 64, 0
2, 55518, Note_off_c, 0, 59, 64
2, 55520, Note_off_c, 0, 61, 64
2, 55526, Note_on_c, 0, 49, 52
2, 55535, Note_on_c, 0, 77, 82
2, 55555, Control_c, 0, 64, 127
2, 55564, Note_on_c, 0, 59, 46
2, 55574, Note_off_c, 0, 49, 64
2, 55612, Note_on_c, 0, 75, 76
2, 55612, Note_on_c, 0, 61, 46
2, 55620, Note_off_c, 0, 59, 64
2, 55620, Note_off_c, 0, 77, 64
2, 55636, Note_off_c, 0, 71, 64
2, 55651, Note_off_c, 0, 61, 64
2, 55668, Note_on_c, 0, 65, 46
2, 55703, Note_on_c, 0, 61, 46
2, 55706, Note_on_c, 0, 73, 92
2, 55718, Note_off_c, 0, 75, 64
2, 55723, Note_off_c, 0, 65, 64
2, 55740, Note_on_c, 0, 59, 46
2, 55760, Control_c, 0, 64, 0
2, 55764, Note_off_c, 0, 61, 64
2, 55782, Note_off_c, 0, 73, 64
2, 55783, Note_off_c, 0, 59, 64
2, 55786, Note_on_c, 0, 73, 58
2, 55788, Note_on_c, 0, 70, 60
2, 55789, Note_on_c, 0, 54, 60
2, 55794, Note_on_c, 0, 82, 79
2, 55824, Control_c, 0, 64, 127
2, 55837, Note_off_c, 0, 54, 64
2, 55837, Note_on_c, 0, 58, 46
2, 55873, Note_on_c, 0, 61, 46
2, 55882, Note_off_c, 0, 58, 64
2, 55902, Note_off_c, 0, 61, 64
2, 55910, Note_on_c, 0, 66, 46
2, 55937, Note_off_c, 0, 73, 64
2, 55939, Note_off_c, 0, 70, 64
2, 55945, Note_off_c, 0, 82, 64
2, 55962, Note_on_c, 0, 61, 46
2, 55966, Note_off_c, 0, 66, 64
2, 56000, Note_on_c, 0, 58, 46
2, 56013, Note_off_c, 0, 61, 64
2, 56028, Control_c, 0, 64, 0
2, 56036, Note_on_c, 0, 68, 60
2, 56041, Note_on_c, 0, 82, 95
2, 56046, Note_off_c, 0, 58, 64
2, 56046, Note_on_c, 0, 73, 54
2, 56056, Note_on_c, 0, 52, 62
2, 56093, Control_c, 0, 64, 127
2, 56097, Note_on_c, 0, 58, 46
2, 56104, Note_off_c, 0, 52, 64
2, 56132, Note_on_c, 0, 61, 46
2, 56158, Note_off_c, 0, 58, 64
2, 56165, Note_off_c, 0, 68, 64
2, 56170, Note_off_c, 0, 61, 64
2, 56172, Note_on_c, 0, 68, 58
2, 56179, Note_off_c, 0, 73, 64
2, 56179, Note_off_c, 0, 82, 64
2, 56217, Note_off_c, 0, 68, 64
2, 56228, Note_on_c, 0, 82, 110
2, 56228, Note_on_c, 0, 61, 46
2, 56268, Note_on_c, 0, 58, 46
2, 56278, Note_off_c, 0, 82, 64
2, 56288, Note_off_c, 0, 61, 64
2, 56290, Control_c, 0, 64, 0
2, 56292, Note_on_c, 0, 67, 55
2, 56292, Note_on_c, 0, 51, 40
2, 56306, Note_off_c, 0, 58, 64
2, 56339, Note_off_c, 0, 51, 64
2, 56346, Control_c, 0, 64, 127
2, 56348, Note_on_c, 0, 73, 51
2, 56348, Note_on_c, 0, 58, 46
2, 56368, Note_off_c, 0, 67, 64
2, 56388, Note_on_c, 0, 82, 116
2, 56396, Note_on_c, 0, 61, 46
2, 56399, Note_off_c, 0, 58, 64
2, 56424, Note_on_c, 0, 67, 46
2, 56428, Note_off_c, 0, 61, 64
2, 56464, Note_on_c, 0, 75, 82
2, 56468, Note_on_c, 0, 61, 46
2, 56474, Note_off_c, 0, 67, 64
2, 56512, Note_on_c, 0, 58, 46
2, 56523, Note_off_c, 0, 61, 64
2, 56526, Control_c, 0, 64, 0
2, 56544, Note_off_c, 0, 58, 64
2, 56556, Note_on_c, 0, 55, 62
2, 56592, Note_on_c, 0, 61, 46
2, 56593, Note_on_c, 0, 77, 62
2, 56595, Control_c, 0, 64, 127
2, 56607, Note_off_c, 0, 55, 64
2, 56616, Note_on_c, 0, 79, 69
2, 56625, Note_off_c, 0, 77, 64
2, 56644, Note_off_c, 0, 61, 64
2, 56648, Note_on_c, 0, 63, 46
2, 56650, Note_on_c, 0, 77, 64
2, 56657, Note_off_c, 0, 79, 64
2, 56665, Note_off_c, 0, 82, 64
2, 56668, Note_on_c, 0, 70, 46
2, 56677, Note_off_c, 0, 77, 64
2, 56683, Note_off_c, 0, 73, 64
2, 56694, Note_off_c, 0, 63, 64
2, 56704, Note_off_c, 0, 75, 64
2, 56708, Note_on_c, 0, 63, 46
2, 56718, Note_off_c, 0, 70, 64
2, 56740, Note_on_c, 0, 61, 46
2, 56748, Note_on_c, 0, 75, 73
2, 56750, Note_off_c, 0, 63, 64
2, 56773, Note_off_c, 0, 75, 64
2, 56777, Control_c, 0, 64, 0
2, 56778, Note_off_c, 0, 61, 64
2, 56795, Note_on_c, 0, 75, 87
2, 56796, Note_on_c, 0, 73, 69
2, 56800, Note_on_c, 0, 56, 61
2, 56828, Note_on_c, 0, 61, 46
2, 56832, Control_c, 0, 64, 127
2, 56858, Note_off_c, 0, 56, 64
2, 56868, Note_on_c, 0, 63, 46
2, 56871, Note_off_c, 0, 61, 64
2, 56906, Note_off_c, 0, 63, 64
2, 56910, Note_on_c, 0, 68, 46
2, 56948, Note_on_c, 0, 63, 46
2, 56961, Note_off_c, 0, 68, 64
2, 57000, Note_on_c, 0, 61, 46
2, 57007, Note_off_c, 0, 63, 64
2, 57040, Control_c, 0, 64, 0
2, 57042, Note_off_c, 0, 61, 64
2, 57056, Note_on_c, 0, 72, 64
2, 57058, Note_on_c, 0, 80, 68
2, 57060, Note_on_c, 0, 51, 61
2, 57076, Note_off_c, 0, 73, 64
2, 57098, Control_c, 0, 64, 127
2, 57110, Note_on_c, 0, 60, 46
2, 57118, Note_off_c, 0, 51, 64
2, 57140, Note_on_c, 0, 63, 46
2, 57155, Note_off_c, 0, 72, 64
2, 57162, Note_off_c, 0, 60, 64
2, 57176, Note_on_c, 0, 68, 46
2, 57184, Note_off_c, 0, 63, 64
2, 57220, Note_on_c, 0, 63, 46
2, 57241, Note_off_c, 0, 68, 64
2, 57256, Note_on_c, 0, 60, 46
2, 57264, Note_off_c, 0, 63, 64
2, 57295, Control_c, 0, 64, 0
2, 57312, Note_off_c, 0, 60, 64
2, 57312, Note_on_c, 0, 58, 56
2, 57318, Note_on_c, 0, 73, 69
2, 57326, Note_off_c, 0, 80, 64
2, 57336, Note_off_c, 0, 75, 64
2, 57357, Control_c, 0, 64, 127
2, 57374, Note_on_c, 0, 61, 46
2, 57388, Note_off_c, 0, 58, 64
2, 57407, Note_on_c, 0, 63, 46
2, 57413, Note_on_c, 0, 79, 78
2, 57423, Note_off_c, 0, 61, 64
2, 57450, Note_off_c, 0, 63, 64
2, 57450, Note_on_c, 0, 70, 46
2, 57464, Note_off_c, 0, 79, 64
2, 57488, Note_on_c, 0, 63, 46
2, 57493, Note_on_c, 0, 77, 86
2, 57506, Note_off_c, 0, 70, 64
2, 57539, Note_on_c, 0, 61, 46
2, 57544, Note_off_c, 0, 63, 64
2, 57550, Control_c, 0, 64, 0
2, 57572, Note_on_c, 0, 51, 57
2, 57573, Note_on_c, 0, 79, 74
2, 57577, Note_off_c, 0, 61, 64
2, 57583, Note_off_c, 0, 77, 64
2, 57603, Control_c, 0, 64, 127
2, 57608, Note_on_c, 0, 61, 46
2, 57630, Note_off_c, 0, 51, 64
2, 57654, Note_on_c, 0, 77, 79
2, 57660, Note_on_c, 0, 63, 46
2, 57663, Note_off_c, 0, 79, 64
2, 57673, Note_off_c, 0, 61, 64
2, 57699, Note_off_c, 0, 63, 64
2, 57708, Note_on_c, 0, 67, 46
2, 57746, Note_on_c, 0, 63, 46
2, 57752, Note_off_c, 0, 73, 64
2, 57754, Note_off_c, 0, 67, 64
2, 57776, Note_on_c, 0, 61, 46
2, 57778, Note_on_c, 0, 75, 90
2, 57784, Note_off_c, 0, 77, 64
2, 57800, Note_off_c, 0, 63, 64
2, 57805, Control_c, 0, 64, 0
2, 57824, Note_off_c, 0, 61, 64
2, 57828, Note_on_c, 0, 84, 96
2, 57828, Note_on_c, 0, 72, 35
2, 57828, Note_on_c, 0, 56, 56
2, 57847, Note_off_c, 0, 75, 64
2, 57862, Control_c, 0, 64, 127
2, 57874, Note_on_c, 0, 60, 46
2, 57918, Note_on_c, 0, 63, 46
2, 57928, Note_off_c, 0, 60, 64
2, 57947, Note_off_c, 0, 84, 64
2, 57955, Note_off_c, 0, 63, 64
2, 57956, Note_on_c, 0, 68, 46
2, 57997, Note_on_c, 0, 63, 46
2, 58005, Note_off_c, 0, 68, 64
2, 58035, Note_on_c, 0, 60, 46
2, 58037, Note_off_c, 0, 63, 64
2, 58064, Control_c, 0, 64, 0
2, 58067, Note_off_c, 0, 56, 64
2, 58083, Note_off_c, 0, 60, 64
2, 58092, Note_on_c, 0, 55, 56
2, 58094, Note_on_c, 0, 84, 106
2, 58119, Control_c, 0, 64, 127
2, 58144, Note_on_c, 0, 56, 46
2, 58188, Note_on_c, 0, 60, 46
2, 58194, Note_off_c, 0, 56, 64
2, 58196, Note_off_c, 0, 84, 64
2, 58232, Note_off_c, 0, 60, 64
2, 58232, Note_on_c, 0, 63, 46
2, 58276, Note_on_c, 0, 60, 46
2, 58278, Note_on_c, 0, 84, 109
2, 58281, Note_off_c, 0, 63, 64
2, 58312, Note_on_c, 0, 56, 46
2, 58320, Note_off_c, 0, 60, 64
2, 58326, Note_off_c, 0, 84, 64
2, 58331, Note_off_c, 0, 55, 64
2, 58340, Control_c, 0, 64, 0
2, 58356, Note_off_c, 0, 56, 64
2, 58364, Note_on_c, 0, 54, 52
2, 58375, Note_on_c, 0, 84, 102
2, 58410, Note_on_c, 0, 56, 46
2, 58411, Control_c, 0, 64, 127
2, 58416, Note_off_c, 0, 54, 64
2, 58449, Note_on_c, 0, 60, 46
2, 58458, Note_off_c, 0, 56, 64
2, 58493, Note_on_c, 0, 63, 46
2, 58497, Note_off_c, 0, 60, 64
2, 58543, Note_on_c, 0, 60, 46
2, 58553, Note_off_c, 0, 63, 64
2, 58579, Note_on_c, 0, 56, 46
2, 58586, Note_off_c, 0, 60, 64
2, 58592, Control_c, 0, 64, 0
2, 58622, Note_on_c, 0, 54, 52
2, 58629, Note_off_c, 0, 56, 64
2, 58674, Control_c, 0, 64, 127
2, 58676, Note_on_c, 0, 56, 46
2, 58686, Note_off_c, 0, 54, 64
2, 58708, Note_on_c, 0, 60, 46
2, 58709, Note_on_c, 0, 82, 94
2, 58722, Note_off_c, 0, 56, 64
2, 58729, Note_off_c, 0, 84, 64
2, 58736, Note_off_c, 0, 72, 64
2, 58737, Note_on_c, 0, 63, 46
2, 58754, Note_off_c, 0, 60, 64
2, 58778, Note_on_c, 0, 60, 46
2, 58793, Note_off_c, 0, 63, 64
2, 58800, Note_off_c, 0, 82, 64
2, 58811, Note_on_c, 0, 56, 46
2, 58821, Note_on_c, 0, 80, 79
2, 58825, Note_off_c, 0, 60, 64
2, 58846, Control_c, 0, 64, 0
2, 58856, Note_off_c, 0, 80, 64
2, 58860, Note_on_c, 0, 53, 29
2, 58862, Note_off_c, 0, 56, 64
2, 58864, Note_on_c, 0, 80, 82
2, 58912, Note_on_c, 0, 56, 46
2, 58921, Control_c, 0, 64, 127
2, 58942, Note_off_c, 0, 53, 64
2, 58946, Note_on_c, 0, 61, 46
2, 58970, Note_off_c, 0, 56, 64
2, 58980, Note_on_c, 0, 65, 46
2, 58987, Note_off_c, 0, 61, 64
2, 59026, Note_on_c, 0, 61, 46
2, 59038, Note_off_c, 0, 65, 64
2, 59076, Note_on_c, 0, 56, 46
2, 59096, Note_off_c, 0, 61, 64
2, 59103, Control_c, 0, 64, 0
2, 59120, Note_on_c, 0, 53, 53
2, 59127, Note_off_c, 0, 56, 64
2, 59128, Note_on_c, 0, 85, 87
2, 59143, Note_off_c, 0, 80, 64
2, 59156, Note_on_c, 0, 56, 39
2, 59166, Control_c, 0, 64, 127
2, 59180, Note_off_c, 0, 53, 64
2, 59196, Note_on_c, 0, 61, 55
2, 59201, Note_off_c, 0, 56, 64
2, 59236, Note_on_c, 0, 68, 62
2, 59243, Note_off_c, 0, 61, 64
2, 59284, Note_on_c, 0, 61, 47
2, 59296, Note_off_c, 0, 68, 64
2, 59332, Note_on_c, 0, 56, 46
2, 59336, Control_c, 0, 64, 0
2, 59338, Note_off_c, 0, 61, 64
2, 59367, Note_off_c, 0, 85, 64
2, 59387, Note_off_c, 0, 56, 64
2, 59388, Note_on_c, 0, 85, 103
2, 59393, Note_on_c, 0, 51, 63
2, 59413, Control_c, 0, 64, 127
2, 59432, Note_off_c, 0, 51, 64
2, 59442, Note_on_c, 0, 56, 46
2, 59486, Note_off_c, 0, 56, 64
2, 59486, Note_on_c, 0, 60, 46
2, 59525, Note_on_c, 0, 66, 46
2, 59527, Note_off_c, 0, 60, 64
2, 59568, Note_off_c, 0, 85, 64
2, 59569, Note_on_c, 0, 60, 46
2, 59576, Note_on_c, 0, 84, 85
2, 59581, Note_off_c, 0, 66, 64
2, 59604, Note_on_c, 0, 56, 46
2, 59620, Note_off_c, 0, 84, 64
2, 59620, Note_off_c, 0, 60, 64
2, 59633, Control_c, 0, 64, 0
2, 59658, Note_on_c, 0, 84, 86
2, 59664, Note_off_c, 0, 56, 64
2, 59666, Note_on_c, 0, 51, 60
2, 59704, Control_c, 0, 64, 127
2, 59716, Note_off_c, 0, 51, 64
2, 59716, Note_on_c, 0, 56, 46
2, 59756, Note_off_c, 0, 84, 64
2, 59756, Note_on_c, 0, 82, 93
2, 59756, Note_on_c, 0, 60, 46
2, 59760, Note_off_c, 0, 56, 64
2, 59789, Note_on_c, 0, 66, 46
2, 59798, Note_off_c, 0, 60, 64
2, 59842, Note_on_c, 0, 60, 46
2, 59847, Note_off_c, 0, 66, 64
2, 59888, Note_on_c, 0, 56, 46
2, 59890, Note_on_c, 0, 80, 74
2, 59891, Note_off_c, 0, 60, 64
2, 59902, Control_c, 0, 64, 0
2, 59911, Note_off_c, 0, 82, 64
2, 59930, Note_on_c, 0, 50, 57
2, 59936, Note_off_c, 0, 56, 64
2, 59942, Note_on_c, 0, 89, 89
2, 59962, Note_off_c, 0, 80, 64
2, 59964, Note_on_c, 0, 56, 46
2, 59967, Control_c, 0, 64, 127
2, 59993, Note_off_c, 0, 50, 64
2, 60004, Note_on_c, 0, 59, 46
2, 60028, Note_off_c, 0, 56, 64
2, 60044, Note_on_c, 0, 65, 46
2, 60054, Note_off_c, 0, 59, 64
2, 60068, Note_off_c, 0, 89, 64
2, 60088, Note_on_c, 0, 59, 46
2, 60115, Note_off_c, 0, 65, 64
2, 60136, Note_on_c, 0, 56, 46
2, 60150, Note_off_c, 0, 59, 64
2, 60188, Control_c, 0, 64, 0
2, 60196, Note_off_c, 0, 56, 64
2, 60198, Note_on_c, 0, 50, 52
2, 60200, Note_on_c, 0, 89, 97
2, 60244, Note_on_c, 0, 56, 46
2, 60251, Control_c, 0, 64, 127
2, 60266, Note_off_c, 0, 50, 64
2, 60282, Note_off_c, 0, 89, 64
2, 60286, Note_on_c, 0, 58, 46
2, 60314, Note_off_c, 0, 56, 64
2, 60332, Note_off_c, 0, 58, 64
2, 60336, Note_on_c, 0, 65, 46
2, 60369, Note_on_c, 0, 58, 46
2, 60370, Note_on_c, 0, 89, 96
2, 60396, Note_off_c, 0, 65, 64
2, 60405, Note_on_c, 0, 56, 46
2, 60430, Note_off_c, 0, 89, 64
2, 60437, Note_off_c, 0, 58, 64
2, 60447, Control_c, 0, 64, 0
2, 60448, Note_on_c, 0, 89, 94
2, 60452, Note_on_c, 0, 51, 60
2, 60469, Note_off_c, 0, 56, 64
2, 60507, Note_off_c, 0, 51, 64
2, 60508, Note_on_c, 0, 54, 46
2, 60518, Control_c, 0, 64, 127
2, 60559, Note_off_c, 0, 54, 64
2, 60560, Note_on_c, 0, 58, 46
2, 60614, Note_off_c, 0, 58, 64
2, 60616, Note_on_c, 0, 63, 46
2, 60667, Note_on_c, 0, 58, 46
2, 60679, Note_off_c, 0, 63, 64
2, 60704, Note_on_c, 0, 54, 46
2, 60715, Note_off_c, 0, 58, 64
2, 60720, Note_off_c, 0, 89, 64
2, 60746, Note_on_c, 0, 42, 60
2, 60750, Note_on_c, 0, 87, 89
2, 60753, Note_off_c, 0, 54, 64
2, 60796, Note_on_c, 0, 54, 46
2, 60801, Note_off_c, 0, 42, 64
2, 60838, Note_on_c, 0, 85, 88
2, 60840, Note_on_c, 0, 58, 46
2, 60847, Note_off_c, 0, 54, 64
2, 60855, Note_off_c, 0, 87, 64
2, 60872, Note_on_c, 0, 63, 46
2, 60884, Note_off_c, 0, 58, 64
2, 60924, Note_on_c, 0, 58, 46
2, 60926, Note_on_c, 0, 82, 93
2, 60927, Note_off_c, 0, 63, 64
2, 60938, Note_off_c, 0, 85, 64
2, 60960, Note_on_c, 0, 54, 46
2, 60975, Note_off_c, 0, 58, 64
2, 60979, Control_c, 0, 64, 0
2, 60995, Note_off_c, 0, 54, 64
2, 61014, Note_on_c, 0, 84, 98
2, 61018, Note_on_c, 0, 44, 57
2, 61031, Note_off_c, 0, 82, 64
2, 61050, Control_c, 0, 64, 127
2, 61062, Note_off_c, 0, 44, 64
2, 61062, Note_on_c, 0, 53, 46
2, 61111, Note_on_c, 0, 56, 46
2, 61119, Note_off_c, 0, 53, 64
2, 61149, Note_off_c, 0, 56, 64
2, 61153, Note_on_c, 0, 61, 46
2, 61189, Note_on_c, 0, 56, 46
2, 61198, Note_off_c, 0, 61, 64
2, 61231, Note_off_c, 0, 56, 64
2, 61233, Note_on_c, 0, 53, 46
2, 61253, Control_c, 0, 64, 0
2, 61282, Note_on_c, 0, 82, 74
2, 61284, Note_off_c, 0, 53, 64
2, 61286, Note_on_c, 0, 44, 63
2, 61291, Note_off_c, 0, 84, 64
2, 61316, Control_c, 0, 64, 127
2, 61328, Note_off_c, 0, 44, 64
2, 61340, Note_on_c, 0, 53, 46
2, 61378, Note_on_c, 0, 80, 74
2, 61380, Note_on_c, 0, 56, 46
2, 61386, Note_off_c, 0, 53, 64
2, 61403, Note_off_c, 0, 82, 64
2, 61405, Note_on_c, 0, 61, 46
2, 61443, Note_off_c, 0, 56, 64
2, 61464, Note_on_c, 0, 56, 46
2, 61465, Note_on_c, 0, 77, 74
2, 61468, Note_off_c, 0, 61, 64
2, 61475, Note_off_c, 0, 80, 64
2, 61500, Note_on_c, 0, 53, 46
2, 61510, Control_c, 0, 64, 0
2, 61515, Note_off_c, 0, 56, 64
2, 61536, Note_on_c, 0, 44, 46
2, 61542, Note_on_c, 0, 82, 74
2, 61544, Note_off_c, 0, 53, 64
2, 61576, Note_on_c, 0, 54, 46
2, 61578, Control_c, 0, 64, 127
2, 61606, Note_off_c, 0, 44, 64
2, 61619, Note_on_c, 0, 80, 74
2, 61620, Note_on_c, 0, 56, 46
2, 61642, Note_off_c, 0, 82, 64
2, 61645, Note_off_c, 0, 54, 64
2, 61647, Note_off_c, 0, 77, 64
2, 61656, Note_off_c, 0, 56, 64
2, 61660, Note_on_c, 0, 60, 46
2, 61708, Note_off_c, 0, 60, 64
2, 61712, Note_on_c, 0, 78, 74
2, 61716, Note_on_c, 0, 56, 46
2, 61719, Note_off_c, 0, 80, 64
2, 61760, Note_off_c, 0, 56, 64
2, 61768, Note_on_c, 0, 54, 46
2, 61789, Control_c, 0, 64, 0
2, 61792, Note_off_c, 0, 78, 64
2, 61798, Note_off_c, 0, 54, 64
2, 61804, Note_on_c, 0, 78, 74
2, 61804, Note_on_c, 0, 44, 55
2, 61828, Note_on_c, 0, 80, 74
2, 61839, Note_off_c, 0, 78, 64
2, 61844, Note_on_c, 0, 54, 46
2, 61849, Note_off_c, 0, 44, 64
2, 61853, Control_c, 0, 64, 127
2, 61858, Note_on_c, 0, 78, 74
2, 61864, Note_off_c, 0, 80, 64
2, 61887, Note_off_c, 0, 54, 64
2, 61896, Note_on_c, 0, 77, 74
2, 61896, Note_on_c, 0, 56, 46
2, 61900, Note_off_c, 0, 78, 64
2, 61935, Note_off_c, 0, 56, 64
2, 61940, Note_on_c, 0, 60, 46
2, 61994, Note_on_c, 0, 56, 46
2, 62001, Note_off_c, 0, 60, 64
2, 62020, Note_off_c, 0, 77, 64
2, 62034, Note_on_c, 0, 54, 46
2, 62042, Note_off_c, 0, 56, 64
2, 62045, Note_on_c, 0, 76, 74
2, 62053, Control_c, 0, 64, 0
2, 62070, Note_off_c, 0, 76, 64
2, 62070, Note_off_c, 0, 54, 64
2, 62090, Note_on_c, 0, 49, 62
2, 62095, Note_on_c, 0, 76, 74
2, 62132, Control_c, 0, 64, 127
2, 62148, Note_on_c, 0, 56, 46
2, 62177, Note_off_c, 0, 56, 64
2, 62183, Note_off_c, 0, 49, 64
2, 62190, Note_on_c, 0, 61, 46
2, 62220, Note_on_c, 0, 65, 46
2, 62233, Note_off_c, 0, 61, 64
2, 62264, Note_on_c, 0, 61, 46
2, 62282, Note_off_c, 0, 65, 64
2, 62302, Note_on_c, 0, 58, 46
2, 62304, Control_c, 0, 64, 0
2, 62313, Note_off_c, 0, 61, 64
2, 62356, Note_on_c, 0, 77, 74
2, 62358, Note_off_c, 0, 58, 64
2, 62361, Note_off_c, 0, 76, 64
2, 62362, Note_on_c, 0, 56, 47
2, 62386, Control_c, 0, 64, 127
2, 62417, Note_on_c, 0, 61, 46
2, 62431, Note_off_c, 0, 56, 64
2, 62467, Note_on_c, 0, 65, 46
2, 62474, Note_off_c, 0, 61, 64
2, 62508, Note_on_c, 0, 68, 46
2, 62514, Note_off_c, 0, 65, 64
2, 62544, Note_off_c, 0, 68, 64
2, 62557, Note_on_c, 0, 80, 92
2, 62560, Note_on_c, 0, 61, 46
2, 62588, Note_on_c, 0, 56, 48
2, 62589, Note_off_c, 0, 77, 64
2, 62606, Control_c, 0, 64, 0
2, 62611, Note_off_c, 0, 61, 64
2, 62640, Note_on_c, 0, 54, 51
2, 62643, Note_off_c, 0, 56, 64
2, 62644, Note_on_c, 0, 68, 79
2, 62688, Note_off_c, 0, 80, 64
2, 62694, Control_c, 0, 64, 127
2, 62698, Note_on_c, 0, 56, 46
2, 62712, Note_off_c, 0, 54, 64
2, 62739, Note_on_c, 0, 60, 46
2, 62746, Note_off_c, 0, 56, 64
2, 62782, Note_off_c, 0, 60, 64
2, 62784, Note_on_c, 0, 63, 46
2, 62840, Note_on_c, 0, 72, 82
2, 62841, Note_off_c, 0, 63, 64
2, 62844, Note_on_c, 0, 60, 46
2, 62846, Note_off_c, 0, 68, 64
2, 62872, Note_on_c, 0, 56, 46
2, 62896, Control_c, 0, 64, 0
2, 62899, Note_off_c, 0, 60, 64
2, 62923, Note_on_c, 0, 54, 23
2, 62927, Note_off_c, 0, 56, 64
2, 62927, Note_on_c, 0, 84, 87
2, 62940, Control_c, 0, 64, 127
2, 62964, Note_off_c, 0, 72, 64
2, 62973, Note_on_c, 0, 56, 46
2, 62975, Note_off_c, 0, 84, 64
2, 62983, Note_off_c, 0, 54, 64
2, 63012, Note_on_c, 0, 70, 95
2, 63012, Note_on_c, 0, 60, 46
2, 63016, Note_on_c, 0, 82, 92
2, 63018, Note_off_c, 0, 56, 64
2, 63048, Note_on_c, 0, 63, 46
2, 63050, Note_off_c, 0, 60, 64
2, 63088, Note_on_c, 0, 60, 46
2, 63104, Note_off_c, 0, 63, 64
2, 63122, Note_off_c, 0, 70, 64
2, 63124, Note_on_c, 0, 80, 77
2, 63124, Note_on_c, 0, 68, 81
2, 63126, Note_off_c, 0, 82, 64
2, 63128, Note_on_c, 0, 56, 46
2, 63151, Note_off_c, 0, 68, 64
2, 63151, Note_off_c, 0, 80, 64
2, 63160, Note_off_c, 0, 60, 64
2, 63160, Note_on_c, 0, 80, 90
2, 63164, Note_on_c, 0, 68, 85
2, 63164, Note_on_c, 0, 53, 52
2, 63168, Control_c, 0, 64, 0
2, 63182, Note_off_c, 0, 56, 64
2, 63208, Note_on_c, 0, 56, 46
2, 63233, Control_c, 0, 64, 127
2, 63244, Note_off_c, 0, 53, 64
2, 63248, Note_on_c, 0, 61, 46
2, 63269, Note_off_c, 0, 56, 64
2, 63292, Note_on_c, 0, 65, 46
2, 63293, Note_off_c, 0, 61, 64
2, 63335, Note_off_c, 0, 68, 64
2, 63336, Note_on_c, 0, 61, 46
2, 63345, Note_off_c, 0, 65, 64
2, 63380, Note_on_c, 0, 56, 46
2, 63404, Note_off_c, 0, 61, 64
2, 63438, Note_off_c, 0, 56, 64
2, 63440, Note_on_c, 0, 85, 86
2, 63444, Note_on_c, 0, 73, 78
2, 63452, Note_on_c, 0, 53, 52
2, 63492, Note_on_c, 0, 56, 46
2, 63513, Note_off_c, 0, 53, 64
2, 63540, Note_on_c, 0, 61, 46
2, 63552, Note_off_c, 0, 56, 64
2, 63555, Note_off_c, 0, 80, 64
2, 63566, Note_off_c, 0, 85, 64
2, 63571, Note_off_c, 0, 73, 64
2, 63576, Note_on_c, 0, 68, 46
2, 63587, Note_off_c, 0, 61, 64
2, 63617, Note_on_c, 0, 61, 46
2, 63618, Note_off_c, 0, 68, 64
2, 63664, Note_on_c, 0, 56, 46
2, 63668, Note_off_c, 0, 61, 64
2, 63698, Control_c, 0, 64, 0
2, 63720, Note_on_c, 0, 51, 63
2, 63723, Note_off_c, 0, 56, 64
2, 63724, Note_on_c, 0, 85, 76
2, 63724, Note_on_c, 0, 80, 69
2, 63724, Note_on_c, 0, 78, 74
2, 63724, Note_on_c, 0, 73, 76
2, 63760, Note_on_c, 0, 56, 46
2, 63765, Note_off_c, 0, 51, 64
2, 63767, Control_c, 0, 64, 127
2, 63788, Note_on_c, 0, 60, 46
2, 63804, Note_off_c, 0, 56, 64
2, 63824, Note_on_c, 0, 66, 46
2, 63840, Note_off_c, 0, 60, 64
2, 63840, Note_on_c, 0, 72, 83
2, 63848, Note_on_c, 0, 84, 83
2, 63850, Note_off_c, 0, 73, 64
2, 63850, Note_off_c, 0, 85, 64
2, 63866, Note_off_c, 0, 72, 64
2, 63874, Note_off_c, 0, 84, 64
2, 63881, Note_off_c, 0, 66, 64
2, 63884, Note_on_c, 0, 84, 76
2, 63888, Note_on_c, 0, 72, 76
2, 63888, Note_on_c, 0, 60, 46
2, 63929, Note_off_c, 0, 60, 64
2, 63934, Note_off_c, 0, 72, 64
2, 63935, Note_off_c, 0, 84, 64
2, 63940, Note_on_c, 0, 56, 46
2, 63955, Note_off_c, 0, 78, 64
2, 63955, Note_off_c, 0, 80, 64
2, 63976, Note_off_c, 0, 56, 64
2, 63996, Note_on_c, 0, 84, 69
2, 63996, Note_on_c, 0, 80, 72
2, 63996, Note_on_c, 0, 72, 67
2, 64000, Note_on_c, 0, 78, 71
2, 64000, Note_on_c, 0, 51, 65
2, 64028, Control_c, 0, 64, 0
2, 64050, Note_off_c, 0, 51, 64
2, 64054, Control_c, 0, 64, 127
2, 64056, Note_on_c, 0, 56, 46
2, 64102, Note_off_c, 0, 56, 64
2, 64104, Note_on_c, 0, 60, 46
2, 64144, Note_on_c, 0, 82, 83
2, 64144, Note_on_c, 0, 70, 83
2, 64148, Note_on_c, 0, 66, 46
2, 64151, Note_off_c, 0, 72, 64
2, 64151, Note_off_c, 0, 80, 64
2, 64151, Note_off_c, 0, 84, 64
2, 64155, Note_off_c, 0, 78, 64
2, 64161, Note_off_c, 0, 60, 64
2, 64165, Note_off_c, 0, 82, 64
2, 64167, Note_off_c, 0, 70, 64
2, 64190, Note_off_c, 0, 66, 64
2, 64192, Note_on_c, 0, 80, 80
2, 64199, Note_on_c, 0, 68, 81
2, 64200, Note_on_c, 0, 78, 77
2, 64200, Note_on_c, 0, 60, 46
2, 64227, Note_off_c, 0, 80, 64
2, 64228, Note_off_c, 0, 68, 64
2, 64230, Note_off_c, 0, 78, 64
2, 64250, Note_off_c, 0, 60, 64
2, 64268, Note_on_c, 0, 56, 46
2, 64312, Note_on_c, 0, 89, 74
2, 64315, Note_off_c, 0, 56, 64
2, 64316, Note_on_c, 0, 80, 70
2, 64316, Note_on_c, 0, 77, 68
2, 64320, Note_on_c, 0, 50, 58
2, 64320, Control_c, 0, 64, 0
2, 64364, Note_on_c, 0, 56, 46
2, 64380, Control_c, 0, 64, 127
2, 64390, Note_off_c, 0, 50, 64
2, 64408, Note_on_c, 0, 59, 46
2, 64427, Note_off_c, 0, 56, 64
2, 64448, Note_on_c, 0, 65, 46
2, 64460, Note_off_c, 0, 59, 64
2, 64481, Note_off_c, 0, 80, 64
2, 64492, Note_on_c, 0, 59, 46
2, 64497, Note_off_c, 0, 89, 64
2, 64510, Note_off_c, 0, 77, 64
2, 64511, Note_off_c, 0, 65, 64
2, 64536, Note_on_c, 0, 56, 46
2, 64563, Note_off_c, 0, 59, 64
2, 64604, Note_on_c, 0, 80, 95
2, 64604, Note_on_c, 0, 77, 87
2, 64608, Note_on_c, 0, 89, 86
2, 64609, Note_on_c, 0, 50, 48
2, 64612, Control_c, 0, 64, 0
2, 64622, Note_off_c, 0, 56, 64
2, 64648, Note_on_c, 0, 56, 46
2, 64662, Control_c, 0, 64, 127
2, 64684, Note_off_c, 0, 50, 64
2, 64692, Note_off_c, 0, 56, 64
2, 64692, Note_on_c, 0, 58, 46
2, 64724, Note_on_c, 0, 65, 46
2, 64735, Note_off_c, 0, 58, 64
2, 64735, Note_off_c, 0, 89, 64
2, 64737, Note_off_c, 0, 77, 64
2, 64737, Note_off_c, 0, 80, 64
2, 64765, Note_on_c, 0, 58, 46
2, 64768, Note_on_c, 0, 80, 91
2, 64768, Note_on_c, 0, 77, 73
2, 64773, Note_on_c, 0, 89, 90
2, 64793, Note_off_c, 0, 65, 64
2, 64800, Note_on_c, 0, 56, 46
2, 64805, Note_off_c, 0, 77, 64
2, 64809, Note_off_c, 0, 80, 64
2, 64822, Note_off_c, 0, 58, 64
2, 64831, Note_off_c, 0, 89, 64
2, 64847, Control_c, 0, 64, 0
2, 64853, Note_off_c, 0, 56, 64
2, 64856, Note_on_c, 0, 80, 90
2, 64856, Note_on_c, 0, 51, 51
2, 64860, Note_on_c, 0, 89, 90
2, 64860, Note_on_c, 0, 77, 84
2, 64908, Note_on_c, 0, 54, 46
2, 64919, Note_off_c, 0, 51, 64
2, 64922, Control_c, 0, 64, 127
2, 64944, Note_off_c, 0, 54, 64
2, 64960, Note_on_c, 0, 58, 46
2, 64993, Note_on_c, 0, 63, 46
2, 65020, Note_off_c, 0, 58, 64
2, 65040, Note_on_c, 0, 58, 46
2, 65049, Note_off_c, 0, 63, 64
2, 65087, Note_off_c, 0, 58, 64
2, 65092, Note_on_c, 0, 54, 46
2, 65123, Note_off_c, 0, 54, 64
2, 65140, Note_on_c, 0, 42, 60
2, 65141, Note_off_c, 0, 80, 64
2, 65144, Note_on_c, 0, 78, 76
2, 65144, Note_on_c, 0, 75, 76
2, 65145, Note_off_c, 0, 77, 64
2, 65145, Note_off_c, 0, 89, 64
2, 65146, Note_on_c, 0, 87, 76
2, 65188, Note_on_c, 0, 54, 46
2, 65199, Note_off_c, 0, 42, 64
2, 65218, Note_off_c, 0, 54, 64
2, 65229, Note_off_c, 0, 78, 64
2, 65236, Note_on_c, 0, 58, 46
2, 65239, Note_off_c, 0, 75, 64
2, 65239, Note_on_c, 0, 85, 80
2, 65240, Note_on_c, 0, 78, 61
2, 65240, Note_on_c, 0, 73, 77
2, 65241, Note_off_c, 0, 87, 64
2, 65272, Note_on_c, 0, 63, 46
2, 65281, Note_off_c, 0, 58, 64
2, 65308, Note_on_c, 0, 58, 46
2, 65310, Note_off_c, 0, 63, 64
2, 65334, Note_off_c, 0, 85, 64
2, 65335, Note_off_c, 0, 73, 64
2, 65335, Note_off_c, 0, 78, 64
2, 65338, Note_off_c, 0, 58, 64
2, 65348, Note_on_c, 0, 54, 46
2, 65352, Note_on_c, 0, 82, 73
2, 65352, Note_on_c, 0, 78, 62
2, 65360, Note_on_c, 0, 70, 76
2, 65390, Note_off_c, 0, 54, 64
2, 65391, Note_off_c, 0, 78, 64
2, 65394, Note_off_c, 0, 82, 64
2, 65396, Control_c, 0, 64, 0
2, 65399, Note_off_c, 0, 70, 64
2, 65409, Note_on_c, 0, 44, 75
2, 65413, Note_on_c, 0, 84, 73
2, 65413, Note_on_c, 0, 72, 71
2, 65416, Note_on_c, 0, 80, 49
2, 65459, Control_c, 0, 64, 127
2, 65466, Note_on_c, 0, 53, 58
2, 65472, Note_off_c, 0, 44, 64
2, 65515, Note_on_c, 0, 56, 58
2, 65523, Note_off_c, 0, 53, 64
2, 65554, Note_off_c, 0, 56, 64
2, 65556, Note_on_c, 0, 61, 58
2, 65598, Note_on_c, 0, 56, 58
2, 65604, Note_off_c, 0, 84, 64
2, 65607, Note_off_c, 0, 61, 64
2, 65607, Note_off_c, 0, 80, 64
2, 65607, Note_off_c, 0, 72, 64
2, 65640, Note_on_c, 0, 53, 58
2, 65650, Control_c, 0, 64, 0
2, 65655, Note_off_c, 0, 56, 64
2, 65678, Note_on_c, 0, 82, 56
2, 65680, Note_on_c, 0, 78, 59
2, 65683, Note_on_c, 0, 70, 65
2, 65683, Note_on_c, 0, 44, 60
2, 65690, Note_off_c, 0, 53, 64
2, 65706, Control_c, 0, 64, 127
2, 65710, Note_off_c, 0, 78, 64
2, 65725, Note_off_c, 0, 70, 64
2, 65727, Note_off_c, 0, 82, 64
2, 65730, Note_off_c, 0, 44, 64
2, 65740, Note_on_c, 0, 53, 46
2, 65774, Note_on_c, 0, 68, 69
2, 65776, Note_on_c, 0, 80, 59
2, 65776, Note_on_c, 0, 77, 55
2, 65776, Note_on_c, 0, 56, 46
2, 65787, Note_off_c, 0, 53, 64
2, 65805, Note_off_c, 0, 68, 64
2, 65806, Note_off_c, 0, 77, 64
2, 65807, Note_off_c, 0, 56, 64
2, 65812, Note_off_c, 0, 80, 64
2, 65816, Note_on_c, 0, 61, 46
2, 65856, Note_on_c, 0, 77, 57
2, 65857, Note_off_c, 0, 61, 64
2, 65857, Note_on_c, 0, 70, 61
2, 65858, Note_on_c, 0, 82, 69
2, 65858, Note_on_c, 0, 56, 46
2, 65886, Note_off_c, 0, 77, 64
2, 65890, Note_off_c, 0, 70, 64
2, 65900, Note_on_c, 0, 53, 46
2, 65902, Note_off_c, 0, 82, 64
2, 65905, Note_off_c, 0, 56, 64
2, 65934, Control_c, 0, 64, 0
2, 65936, Note_off_c, 0, 53, 64
2, 65944, Note_on_c, 0, 44, 58
2, 65947, Note_on_c, 0, 83, 67
2, 65947, Note_on_c, 0, 77, 65
2, 65950, Note_on_c, 0, 71, 61
2, 65994, Note_off_c, 0, 44, 64
2, 66002, Control_c, 0, 64, 127
2, 66007, Note_on_c, 0, 53, 46
2, 66045, Note_off_c, 0, 53, 64
2, 66052, Note_on_c, 0, 56, 46
2, 66071, Note_off_c, 0, 71, 64
2, 66077, Note_off_c, 0, 77, 64
2, 66077, Note_off_c, 0, 83, 64
2, 66091, Note_off_c, 0, 56, 64
2, 66092, Note_on_c, 0, 62, 46
2, 66140, Note_on_c, 0, 77, 72
2, 66140, Note_on_c, 0, 56, 46
2, 66141, Note_on_c, 0, 82, 83
2, 66144, Note_on_c, 0, 70, 78
2, 66146, Note_off_c, 0, 62, 64
2, 66172, Note_off_c, 0, 77, 64
2, 66176, Note_on_c, 0, 53, 46
2, 66185, Note_off_c, 0, 70, 64
2, 66195, Note_off_c, 0, 82, 64
2, 66197, Control_c, 0, 64, 0
2, 66200, Note_off_c, 0, 56, 64
2, 66227, Note_off_c, 0, 53, 64
2, 66227, Note_on_c, 0, 44, 60
2, 66231, Note_on_c, 0, 83, 78
2, 66234, Note_on_c, 0, 71, 75
2, 66235, Note_on_c, 0, 77, 69
2, 66262, Control_c, 0, 64, 127
2, 66275, Note_on_c, 0, 53, 46
2, 66281, Note_off_c, 0, 44, 64
2, 66316, Note_on_c, 0, 56, 46
2, 66338, Note_off_c, 0, 53, 64
2, 66361, Note_off_c, 0, 56, 64
2, 66366, Note_on_c, 0, 62, 46
2, 66398, Note_on_c, 0, 56, 46
2, 66418, Note_off_c, 0, 62, 64
2, 66420, Control_c, 0, 64, 0
2, 66449, Note_on_c, 0, 53, 46
2, 66460, Note_off_c, 0, 56, 64
2, 66488, Control_c, 0, 64, 127
2, 66498, Note_off_c, 0, 53, 64
2, 66498, Note_on_c, 0, 44, 66
2, 66536, Note_on_c, 0, 53, 46
2, 66543, Note_off_c, 0, 44, 64
2, 66550, Note_off_c, 0, 77, 64
2, 66565, Note_off_c, 0, 83, 64
2, 66570, Note_off_c, 0, 71, 64
2, 66588, Note_on_c, 0, 56, 46
2, 66607, Note_off_c, 0, 53, 64
2, 66632, Note_on_c, 0, 62, 46
2, 66635, Note_off_c, 0, 56, 64
2, 66660, Note_on_c, 0, 82, 76
2, 66660, Note_on_c, 0, 77, 74
2, 66664, Note_on_c, 0, 70, 83
2, 66669, Note_on_c, 0, 56, 46
2, 66686, Note_off_c, 0, 62, 64
2, 66708, Note_off_c, 0, 77, 64
2, 66708, Note_off_c, 0, 82, 64
2, 66712, Note_off_c, 0, 70, 64
2, 66713, Note_on_c, 0, 53, 46
2, 66716, Note_off_c, 0, 56, 64
2, 66720, Control_c, 0, 64, 0
2, 66752, Note_on_c, 0, 77, 72
2, 66753, Note_on_c, 0, 44, 60
2, 66758, Note_off_c, 0, 53, 64
2, 66758, Note_on_c, 0, 83, 91
2, 66758, Note_on_c, 0, 71, 83
2, 66776, Control_c, 0, 64, 127
2, 66794, Note_on_c, 0, 53, 58
2, 66798, Note_off_c, 0, 83, 64
2, 66800, Note_off_c, 0, 77, 64
2, 66803, Note_off_c, 0, 44, 64
2, 66806, Note_off_c, 0, 71, 64
2, 66840, Note_on_c, 0, 82, 95
2, 66840, Note_on_c, 0, 77, 74
2, 66844, Note_on_c, 0, 56, 58
2, 66848, Note_on_c, 0, 70, 96
2, 66855, Note_off_c, 0, 53, 64
2, 66870, Note_off_c, 0, 77, 64
2, 66874, Note_off_c, 0, 82, 64
2, 66878, Note_off_c, 0, 70, 64
2, 66879, Note_on_c, 0, 62, 58
2, 66887, Note_off_c, 0, 56, 64
2, 66931, Note_on_c, 0, 83, 96
2, 66931, Note_on_c, 0, 71, 93
2, 66932, Note_on_c, 0, 77, 76
2, 66932, Note_on_c, 0, 56, 58
2, 66936, Note_off_c, 0, 62, 64
2, 66962, Note_off_c, 0, 77, 64
2, 66963, Note_off_c, 0, 56, 64
2, 66964, Note_on_c, 0, 53, 58
2, 66965, Note_off_c, 0, 71, 64
2, 66966, Note_off_c, 0, 83, 64
2, 66981, Control_c, 0, 64, 0
2, 67005, Note_off_c, 0, 53, 64
2, 67012, Note_on_c, 0, 44, 69
2, 67023, Note_on_c, 0, 71, 97
2, 67024, Note_on_c, 0, 83, 97
2, 67024, Note_on_c, 0, 78, 97
2, 67048, Control_c, 0, 64, 127
2, 67053, Note_on_c, 0, 51, 58
2, 67062, Note_off_c, 0, 44, 64
2, 67094, Note_on_c, 0, 54, 58
2, 67106, Note_off_c, 0, 51, 64
2, 67131, Note_on_c, 0, 63, 58
2, 67152, Note_off_c, 0, 54, 64
2, 67168, Note_off_c, 0, 71, 64
2, 67169, Note_off_c, 0, 78, 64
2, 67169, Note_off_c, 0, 83, 64
2, 67176, Note_on_c, 0, 82, 97
2, 67181, Note_on_c, 0, 78, 89
2, 67184, Note_on_c, 0, 70, 98
2, 67187, Note_on_c, 0, 54, 58
2, 67195, Note_off_c, 0, 63, 64
2, 67228, Note_on_c, 0, 51, 58
2, 67244, Note_off_c, 0, 54, 64
2, 67262, Control_c, 0, 64, 0
2, 67266, Note_off_c, 0, 82, 64
2, 67270, Note_on_c, 0, 44, 75
2, 67271, Note_off_c, 0, 78, 64
2, 67274, Note_off_c, 0, 70, 64
2, 67282, Note_off_c, 0, 51, 64
2, 67282, Note_on_c, 0, 94, 99
2, 67284, Note_on_c, 0, 90, 99
2, 67286, Note_on_c, 0, 82, 99
2, 67320, Note_off_c, 0, 44, 64
2, 67320, Note_on_c, 0, 51, 58
2, 67330, Control_c, 0, 64, 127
2, 67351, Note_on_c, 0, 54, 58
2, 67358, Note_off_c, 0, 51, 64
2, 67392, Note_on_c, 0, 63, 58
2, 67405, Note_off_c, 0, 54, 64
2, 67434, Note_on_c, 0, 54, 58
2, 67456, Note_off_c, 0, 63, 64
2, 67471, Note_off_c, 0, 54, 64
2, 67472, Note_on_c, 0, 51, 58
2, 67507, Control_c, 0, 64, 0
2, 67515, Note_on_c, 0, 44, 79
2, 67520, Note_off_c, 0, 51, 64
2, 67560, Control_c, 0, 64, 127
2, 67572, Note_on_c, 0, 51, 58
2, 67576, Note_off_c, 0, 44, 64
2, 67612, Note_on_c, 0, 54, 58
2, 67625, Note_off_c, 0, 51, 64
2, 67643, Note_off_c, 0, 94, 64
2, 67645, Note_off_c, 0, 90, 64
2, 67647, Note_off_c, 0, 82, 64
2, 67652, Note_on_c, 0, 60, 58
2, 67654, Note_off_c, 0, 54, 64
2, 67654, Note_on_c, 0, 84, 94
2, 67655, Note_on_c, 0, 78, 100
2, 67656, Note_on_c, 0, 72, 94
2, 67677, Note_off_c, 0, 72, 64
2, 67684, Note_off_c, 0, 78, 64
2, 67687, Note_off_c, 0, 84, 64
2, 67704, Note_on_c, 0, 84, 94
2, 67704, Note_on_c, 0, 78, 94
2, 67708, Note_on_c, 0, 72, 85
2, 67708, Note_on_c, 0, 54, 58
2, 67718, Note_off_c, 0, 60, 64
2, 67738, Control_c, 0, 64, 0
2, 67743, Note_off_c, 0, 72, 64
2, 67750, Note_off_c, 0, 78, 64
2, 67756, Note_on_c, 0, 51, 58
2, 67759, Note_off_c, 0, 84, 64
2, 67767, Note_off_c, 0, 54, 64
2, 67785, Note_on_c, 0, 44, 79
2, 67792, Note_on_c, 0, 84, 99
2, 67792, Note_on_c, 0, 72, 99
2, 67793, Note_on_c, 0, 78, 101
2, 67802, Note_off_c, 0, 51, 64
2, 67809, Control_c, 0, 64, 127
2, 67819, Note_off_c, 0, 72, 64
2, 67830, Note_off_c, 0, 78, 64
2, 67832, Note_on_c, 0, 51, 58
2, 67838, Note_off_c, 0, 84, 64
2, 67849, Note_off_c, 0, 44, 64
2, 67864, Note_on_c, 0, 54, 58
2, 67887, Note_off_c, 0, 51, 64
2, 67904, Note_on_c, 0, 89, 95
2, 67904, Note_on_c, 0, 60, 58
2, 67908, Note_on_c, 0, 80, 96
2, 67908, Note_on_c, 0, 77, 86
2, 67924, Note_off_c, 0, 80, 64
2, 67924, Note_off_c, 0, 54, 64
2, 67925, Note_off_c, 0, 89, 64
2, 67929, Note_off_c, 0, 77, 64
2, 67943, Note_on_c, 0, 87, 87
2, 67946, Note_on_c, 0, 78, 95
2, 67946, Note_on_c, 0, 75, 95
2, 67947, Note_off_c, 0, 60, 64
2, 67951, Note_on_c, 0, 78, 86
2, 67952, Note_on_c, 0, 54, 58
2, 67958, Note_off_c, 0, 78, 64
2, 67980, Note_off_c, 0, 78, 64
2, 67980, Note_off_c, 0, 87, 64
2, 67988, Note_on_c, 0, 51, 58
2, 67992, Note_off_c, 0, 75, 64
2, 68026, Note_off_c, 0, 54, 64
2, 68032, Note_on_c, 0, 37, 77
2, 68034, Note_off_c, 0, 51, 64
2, 68034, Control_c, 0, 64, 0
2, 68036, Note_on_c, 0, 73, 106
2, 68040, Note_on_c, 0, 77, 105
2, 68044, Note_on_c, 0, 85, 96
2, 68049, Control_c, 0, 64, 0
2, 68096, Control_c, 0, 64, 127
2, 68098, Control_c, 0, 64, 127
2, 68129, Control_c, 0, 64, 127
2, 68180, Control_c, 0, 64, 0
2, 68221, Note_on_c, 0, 44, 62
2, 68244, Control_c, 0, 64, 0
2, 68273, Note_on_c, 0, 53, 52
2, 68284, Control_c, 0, 64, 127
2, 68295, Note_off_c, 0, 44, 64
2, 68301, Control_c, 0, 64, 127
2, 68324, Note_on_c, 0, 61, 84
2, 68327, Note_on_c, 0, 65, 73
2, 68335, Note_off_c, 0, 53, 64
2, 68353, Note_off_c, 0, 73, 64
2, 68357, Note_off_c, 0, 77, 64
2, 68361, Note_off_c, 0, 85, 64
2, 68363, Note_off_c, 0, 61, 64
2, 68368, Note_on_c, 0, 73, 84
2, 68379, Note_off_c, 0, 65, 64
2, 68408, Note_on_c, 0, 80, 77
2, 68411, Note_off_c, 0, 73, 64
2, 68425, Note_off_c, 0, 80, 64
2, 68446, Note_off_c, 0, 37, 64
2, 68447, Note_on_c, 0, 77, 90
2, 68483, Note_off_c, 0, 77, 64
2, 68501, Note_on_c, 0, 85, 82
2, 68531, Note_off_c, 0, 85, 64
2, 68536, Note_on_c, 0, 94, 63
2, 68553, Control_c, 0, 64, 0
2, 68562, Control_c, 0, 64, 0
2, 68575, Note_on_c, 0, 92, 92
2, 68578, Note_on_c, 0, 84, 81
2, 68585, Note_off_c, 0, 94, 64
2, 68590, Note_on_c, 0, 32, 81
2, 68608, Control_c, 0, 64, 127
2, 68629, Control_c, 0, 64, 127
2, 68680, Control_c, 0, 64, 0
2, 68720, Note_on_c, 0, 44, 62
2, 68720, Control_c, 0, 64, 127
2, 68780, Note_on_c, 0, 51, 65
2, 68794, Note_off_c, 0, 44, 64
2, 68828, Note_on_c, 0, 60, 85
2, 68835, Note_on_c, 0, 66, 80
2, 68836, Note_off_c, 0, 51, 64
2, 68864, Note_on_c, 0, 72, 67
2, 68866, Note_off_c, 0, 60, 64
2, 68880, Note_off_c, 0, 66, 64
2, 68893, Note_off_c, 0, 92, 64
2, 68895, Note_off_c, 0, 84, 64
2, 68900, Note_off_c, 0, 72, 64
2, 68903, Note_on_c, 0, 80, 82
2, 68922, Note_off_c, 0, 80, 64
2, 68946, Note_on_c, 0, 78, 81
2, 68976, Note_on_c, 0, 84, 71
2, 68984, Note_off_c, 0, 78, 64
2, 69006, Note_off_c, 0, 32, 64
2, 69016, Note_on_c, 0, 92, 69
2, 69018, Control_c, 0, 64, 0
2, 69021, Note_off_c, 0, 84, 64
2, 69041, Control_c, 0, 64, 0
2, 69064, Note_on_c, 0, 89, 75
2, 69066, Note_on_c, 0, 85, 90
2, 69069, Note_on_c, 0, 37, 75
2, 69076, Note_off_c, 0, 92, 64
2, 69078, Control_c, 0, 64, 127
2, 69119, Control_c, 0, 64, 127
2, 69270, Note_on_c, 0, 44, 62
2, 69272, Control_c, 0, 64, 0
2, 69308, Note_on_c, 0, 53, 69
2, 69313, Control_c, 0, 64, 127
2, 69323, Note_off_c, 0, 44, 64
2, 69340, Note_on_c, 0, 65, 73
2, 69346, Note_on_c, 0, 61, 82
2, 69356, Note_off_c, 0, 53, 64
2, 69376, Note_on_c, 0, 73, 79
2, 69378, Note_off_c, 0, 61, 64
2, 69381, Note_off_c, 0, 89, 64
2, 69383, Note_off_c, 0, 85, 64
2, 69390, Note_off_c, 0, 65, 64
2, 69410, Note_on_c, 0, 80, 75
2, 69421, Note_off_c, 0, 73, 64
2, 69429, Note_off_c, 0, 80, 64
2, 69448, Note_on_c, 0, 77, 87
2, 69479, Note_off_c, 0, 37, 64
2, 69483, Note_off_c, 0, 77, 64
2, 69488, Note_on_c, 0, 85, 86
2, 69524, Note_off_c, 0, 85, 64
2, 69535, Note_on_c, 0, 94, 90
2, 69544, Control_c, 0, 64, 0
2, 69544, Control_c, 0, 64, 0
2, 69564, Note_on_c, 0, 84, 78
2, 69568, Note_on_c, 0, 32, 75
2, 69571, Note_on_c, 0, 92, 93
2, 69587, Note_off_c, 0, 94, 64
2, 69602, Control_c, 0, 64, 127
2, 69611, Control_c, 0, 64, 127
2, 69720, Control_c, 0, 64, 0
2, 69728, Note_on_c, 0, 44, 62
2, 69760, Control_c, 0, 64, 127
2, 69776, Note_on_c, 0, 51, 69
2, 69802, Note_off_c, 0, 44, 64
2, 69816, Note_on_c, 0, 60, 70
2, 69820, Note_on_c, 0, 66, 80
2, 69834, Note_off_c, 0, 51, 64
2, 69858, Note_off_c, 0, 66, 64
2, 69859, Note_on_c, 0, 72, 73
2, 69865, Note_off_c, 0, 60, 64
2, 69879, Note_off_c, 0, 84, 64
2, 69886, Note_off_c, 0, 72, 64
2, 69888, Note_off_c, 0, 92, 64
2, 69892, Note_on_c, 0, 80, 95
2, 69907, Note_off_c, 0, 80, 64
2, 69930, Note_on_c, 0, 78, 82
2, 69965, Note_on_c, 0, 84, 71
2, 69983, Note_off_c, 0, 32, 64
2, 69990, Note_off_c, 0, 78, 64
2, 70005, Note_on_c, 0, 92, 78
2, 70013, Note_off_c, 0, 84, 64
2, 70019, Control_c, 0, 64, 0
2, 70027, Control_c, 0, 64, 0
2, 70048, Note_on_c, 0, 25, 109
2, 70052, Note_on_c, 0, 89, 75
2, 70056, Note_on_c, 0, 85, 88
2, 70072, Note_off_c, 0, 92, 64
2, 70075, Control_c, 0, 64, 127
2, 70096, Control_c, 0, 64, 127
2, 70237, Control_c, 0, 64, 0
2, 70241, Note_on_c, 0, 44, 63
2, 70284, Note_on_c, 0, 53, 70
2, 70289, Control_c, 0, 64, 127
2, 70305, Note_off_c, 0, 44, 64
2, 70330, Note_off_c, 0, 53, 64
2, 70340, Note_on_c, 0, 61, 77
2, 70344, Note_on_c, 0, 65, 58
2, 70364, Note_on_c, 0, 73, 75
2, 70369, Note_off_c, 0, 89, 64
2, 70373, Note_off_c, 0, 85, 64
2, 70387, Note_off_c, 0, 61, 64
2, 70393, Note_off_c, 0, 65, 64
2, 70406, Note_on_c, 0, 80, 75
2, 70416, Note_off_c, 0, 73, 64
2, 70458, Note_on_c, 0, 77, 84
2, 70459, Note_off_c, 0, 25, 64
2, 70473, Note_off_c, 0, 77, 64
2, 70480, Note_off_c, 0, 80, 64
2, 70491, Note_on_c, 0, 85, 75
2, 70526, Note_off_c, 0, 85, 64
2, 70533, Note_on_c, 0, 92, 84
2, 70563, Note_on_c, 0, 85, 90
2, 70577, Note_off_c, 0, 92, 64
2, 70594, Note_off_c, 0, 85, 64
2, 70603, Note_on_c, 0, 77, 77
2, 70617, Note_off_c, 0, 77, 64
2, 70625, Note_on_c, 0, 80, 59
2, 70654, Note_off_c, 0, 80, 64
2, 70662, Note_on_c, 0, 73, 64
2, 70690, Note_on_c, 0, 65, 77
2, 70701, Note_off_c, 0, 73, 64
2, 70721, Note_off_c, 0, 65, 64
2, 70728, Note_on_c, 0, 68, 76
2, 70762, Note_on_c, 0, 61, 94
2, 70783, Note_off_c, 0, 68, 64
2, 70798, Note_off_c, 0, 61, 64
2, 70805, Note_on_c, 0, 53, 61
2, 70823, Note_off_c, 0, 53, 64
2, 70828, Note_on_c, 0, 56, 81
2, 70856, Note_on_c, 0, 49, 67
2, 70890, Note_off_c, 0, 56, 64
2, 70890, Note_on_c, 0, 41, 77
2, 70915, Control_c, 0, 64, 0
2, 70924, Note_off_c, 0, 49, 64
2, 70928, Note_off_c, 0, 41, 64
2, 70952, Note_on_c, 0, 49, 92
2, 70958, Control_c, 0, 64, 0
2, 70970, Control_c, 0, 64, 127
2, 70986, Note_off_c, 0, 49, 64
2, 70993, Note_on_c, 0, 37, 93
2, 71000, Note_on_c, 0, 25, 90
2, 71034, Control_c, 0, 64, 127
2, 71328, Control_c, 0, 64, 0
2, 71351, Note_on_c, 0, 97, 77
2, 71351, Note_on_c, 0, 73, 66
2, 71352, Note_on_c, 0, 61, 90
2, 71358, Note_on_c, 0, 85, 87
2, 71608, Note_off_c, 0, 25, 64
2, 71618, Note_off_c, 0, 37, 64
2, 71855, Note_off_c, 0, 85, 64
2, 71860, Note_off_c, 0, 97, 64
2, 71863, Note_off_c, 0, 73, 64
2, 71864, Note_off_c, 0, 61, 64
2, 71880, Control_c, 0, 64, 0
2, 72462, Note_on_c, 0, 33, 57
2, 72464, Note_on_c, 0, 52, 51
2, 72464, Note_on_c, 0, 45, 42
2, 72472, Note_on_c, 0, 61, 56
2, 72477, Note_on_c, 0, 64, 57
2, 72515, Control_c, 0, 64, 127
2, 72669, Note_off_c, 0, 64, 64
2, 72747, Note_off_c, 0, 52, 64
2, 72916, Note_on_c, 0, 66, 60
2, 72922, Note_on_c, 0, 54, 45
2, 72925, Note_on_c, 0, 38, 54
2, 72931, Note_off_c, 0, 33, 64
2, 72947, Control_c, 0, 64, 0
2, 73049, Control_c, 0, 64, 127
2, 73461, Note_on_c, 0, 59, 49
2, 73465, Note_off_c, 0, 61, 64
2, 73481, Note_off_c, 0, 66, 64
2, 73565, Note_on_c, 0, 61, 60
2, 73632, Note_off_c, 0, 59, 64
2, 73671, Note_on_c, 0, 64, 69
2, 73696, Note_off_c, 0, 61, 64
2, 73769, Note_on_c, 0, 62, 55
2, 73776, Note_off_c, 0, 64, 64
2, 73869, Note_off_c, 0, 54, 64
2, 73876, Note_off_c, 0, 62, 64
2, 73907, Note_off_c, 0, 38, 64
2, 73926, Note_off_c, 0, 45, 64
2, 74021, Note_on_c, 0, 61, 60
2, 74053, Control_c, 0, 64, 0
2, 74064, Note_off_c, 0, 61, 64
2, 74091, Note_on_c, 0, 52, 63
2, 74095, Note_on_c, 0, 64, 64
2, 74099, Note_on_c, 0, 61, 75
2, 74099, Note_on_c, 0, 33, 49
2, 74105, Note_on_c, 0, 45, 48
2, 74140, Control_c, 0, 64, 127
2, 74306, Note_off_c, 0, 64, 64
2, 74366, Note_off_c, 0, 52, 64
2, 74533, Note_on_c, 0, 66, 43
2, 74536, Note_on_c, 0, 54, 32
2, 74542, Note_on_c, 0, 38, 55
2, 74550, Control_c, 0, 64, 0
2, 74559, Note_off_c, 0, 33, 64
2, 74635, Control_c, 0, 64, 127
2, 75081, Note_off_c, 0, 61, 64
2, 75094, Note_on_c, 0, 59, 41
2, 75100, Note_off_c, 0, 66, 64
2, 75194, Note_on_c, 0, 61, 43
2, 75252, Note_off_c, 0, 59, 64
2, 75291, Note_on_c, 0, 64, 50
2, 75322, Note_off_c, 0, 61, 64
2, 75373, Note_off_c, 0, 64, 64
2, 75379, Note_on_c, 0, 62, 53
2, 75410, Note_off_c, 0, 38, 64
2, 75449, Note_off_c, 0, 45, 64
2, 75466, Note_off_c, 0, 62, 64
2, 75479, Note_off_c, 0, 54, 64
2, 75610, Note_on_c, 0, 61, 51
2, 75631, Note_off_c, 0, 61, 64
2, 75653, Control_c, 0, 64, 0
2, 75684, Note_on_c, 0, 61, 59
2, 75686, Note_on_c, 0, 64, 57
2, 75692, Note_on_c, 0, 56, 54
2, 75692, Note_on_c, 0, 40, 40
2, 75693, Note_on_c, 0, 50, 41
2, 75738, Control_c, 0, 64, 127
2, 76059, Note_on_c, 0, 59, 55
2, 76065, Note_off_c, 0, 61, 64
2, 76092, Note_off_c, 0, 56, 64
2, 76196, Note_off_c, 0, 40, 64
2, 76229, Note_off_c, 0, 64, 64
2, 76333, Note_on_c, 0, 57, 58
2, 76340, Note_on_c, 0, 49, 48
2, 76342, Note_on_c, 0, 45, 40
2, 76356, Note_off_c, 0, 59, 64
2, 76358, Note_off_c, 0, 50, 64
2, 76426, Control_c, 0, 64, 0
2, 76441, Note_on_c, 0, 61, 58
2, 76449, Note_on_c, 0, 52, 47
2, 76457, Note_off_c, 0, 57, 64
2, 76469, Note_off_c, 0, 49, 64
2, 76516, Control_c, 0, 64, 127
2, 76999, Note_off_c, 0, 61, 64
2, 77322, Note_off_c, 0, 45, 64
2, 77353, Note_off_c, 0, 52, 64
2, 77404, Note_on_c, 0, 73, 59
2, 77454, Control_c, 0, 64, 0
2, 77651, Control_c, 0, 64, 127
2, 77665, Note_on_c, 0, 58, 31
2, 77671, Note_on_c, 0, 52, 24
2, 77680, Note_on_c, 0, 55, 27
2, 77742, Note_off_c, 0, 73, 64
2, 77746, Note_off_c, 0, 55, 64
2, 77749, Note_off_c, 0, 52, 64
2, 77749, Note_off_c, 0, 58, 64
2, 77759, Note_on_c, 0, 71, 51
2, 77793, Note_on_c, 0, 73, 51
2, 77799, Note_off_c, 0, 71, 64
2, 77801, Control_c, 0, 64, 0
2, 77816, Note_on_c, 0, 71, 51
2, 77825, Note_on_c, 0, 50, 29
2, 77835, Note_off_c, 0, 73, 64
2, 77835, Note_on_c, 0, 59, 29
2, 77841, Note_on_c, 0, 54, 23
2, 77862, Control_c, 0, 64, 127
2, 77917, Note_off_c, 0, 54, 64
2, 77933, Note_off_c, 0, 59, 64
2, 77984, Note_off_c, 0, 71, 64
2, 77984, Note_on_c, 0, 69, 51
2, 77990, Note_off_c, 0, 50, 64
2, 78028, Note_on_c, 0, 54, 39
2, 78031, Note_on_c, 0, 57, 31
2, 78032, Note_on_c, 0, 71, 51
2, 78042, Note_on_c, 0, 62, 20
2, 78056, Note_off_c, 0, 69, 64
2, 78110, Note_off_c, 0, 54, 64
2, 78113, Note_off_c, 0, 57, 64
2, 78124, Note_off_c, 0, 62, 64
2, 78142, Control_c, 0, 64, 0
2, 78157, Note_on_c, 0, 61, 43
2, 78163, Note_on_c, 0, 73, 51
2, 78163, Note_on_c, 0, 53, 33
2, 78180, Note_off_c, 0, 71, 64
2, 78197, Note_on_c, 0, 56, 21
2, 78217, Control_c, 0, 64, 127
2, 78272, Note_off_c, 0, 61, 64
2, 78288, Note_off_c, 0, 56, 64
2, 78293, Note_off_c, 0, 53, 64
2, 78330, Note_off_c, 0, 73, 64
2, 78334, Note_on_c, 0, 74, 51
2, 78377, Note_on_c, 0, 73, 51
2, 78391, Note_on_c, 0, 58, 32
2, 78391, Note_on_c, 0, 52, 36
2, 78400, Note_off_c, 0, 74, 64
2, 78409, Note_on_c, 0, 55, 42
2, 78465, Note_off_c, 0, 55, 64
2, 78470, Note_off_c, 0, 58, 64
2, 78476, Note_off_c, 0, 52, 64
2, 78484, Note_off_c, 0, 73, 64
2, 78493, Note_on_c, 0, 71, 46
2, 78504, Control_c, 0, 64, 0
2, 78525, Note_on_c, 0, 73, 46
2, 78534, Note_off_c, 0, 71, 64
2, 78541, Note_on_c, 0, 50, 37
2, 78548, Note_on_c, 0, 54, 40
2, 78552, Note_on_c, 0, 59, 31
2, 78561, Note_on_c, 0, 71, 44
2, 78576, Note_off_c, 0, 73, 64
2, 78582, Control_c, 0, 64, 127
2, 78663, Note_off_c, 0, 59, 64
2, 78665, Note_off_c, 0, 54, 64
2, 78708, Note_off_c, 0, 71, 64
2, 78711, Note_on_c, 0, 69, 48
2, 78717, Note_off_c, 0, 50, 64
2, 78768, Note_on_c, 0, 69, 51
2, 78768, Note_on_c, 0, 62, 20
2, 78768, Note_on_c, 0, 54, 39
2, 78776, Note_on_c, 0, 57, 31
2, 78777, Note_on_c, 0, 71, 50
2, 78790, Note_off_c, 0, 69, 64
2, 78816, Note_on_c, 0, 71, 48
2, 78840, Note_off_c, 0, 69, 64
2, 78850, Note_off_c, 0, 54, 64
2, 78850, Note_off_c, 0, 62, 64
2, 78858, Note_off_c, 0, 57, 64
2, 78899, Note_on_c, 0, 49, 53
2, 78908, Control_c, 0, 64, 0
2, 78947, Note_on_c, 0, 56, 41
2, 78964, Note_off_c, 0, 71, 64
2, 78973, Note_on_c, 0, 73, 44
2, 78982, Note_off_c, 0, 71, 64
2, 78988, Note_on_c, 0, 65, 46
2, 78996, Note_off_c, 0, 49, 64
2, 79002, Control_c, 0, 64, 127
2, 79096, Note_off_c, 0, 65, 64
2, 79096, Note_off_c, 0, 73, 64
2, 79096, Note_off_c, 0, 56, 64
2, 79109, Note_on_c, 0, 61, 51
2, 79162, Note_on_c, 0, 73, 50
2, 79196, Note_off_c, 0, 61, 64
2, 79200, Note_on_c, 0, 68, 49
2, 79224, Note_off_c, 0, 73, 64
2, 79257, Note_off_c, 0, 68, 64
2, 79263, Note_on_c, 0, 73, 48
2, 79264, Control_c, 0, 64, 0
2, 79306, Note_off_c, 0, 73, 64
2, 79306, Control_c, 0, 64, 127
2, 79322, Note_on_c, 0, 68, 48
2, 79368, Note_on_c, 0, 37, 61
2, 79370, Note_on_c, 0, 80, 46
2, 79406, Note_off_c, 0, 68, 64
2, 79435, Note_off_c, 0, 80, 64
2, 79435, Note_on_c, 0, 73, 45
2, 79479, Note_on_c, 0, 80, 45
2, 79489, Note_off_c, 0, 73, 64
2, 79514, Note_off_c, 0, 80, 64
2, 79534, Note_on_c, 0, 73, 44
2, 79582, Note_on_c, 0, 85, 42
2, 79616, Note_off_c, 0, 73, 64
2, 79640, Note_off_c, 0, 85, 64
2, 79648, Note_on_c, 0, 80, 42
2, 79700, Note_on_c, 0, 85, 41
2, 79706, Note_off_c, 0, 80, 64
2, 79738, Note_off_c, 0, 85, 64
2, 79756, Note_on_c, 0, 80, 39
2, 79807, Note_on_c, 0, 92, 39
2, 79850, Note_off_c, 0, 80, 64
2, 79856, Note_on_c, 0, 85, 38
2, 79891, Note_off_c, 0, 92, 64
2, 79896, Note_off_c, 0, 85, 64
2, 79927, Note_on_c, 0, 92, 37
2, 79980, Note_off_c, 0, 92, 64
2, 79996, Note_on_c, 0, 85, 36
2, 80124, Note_on_c, 0, 97, 33
2, 80176, Note_off_c, 0, 85, 64
2, 80214, Note_off_c, 0, 37, 64
2, 80224, Note_off_c, 0, 97, 64
2, 80728, Control_c, 0, 64, 0
2, 80941, Note_on_c, 0, 45, 55
2, 80947, Note_on_c, 0, 61, 55
2, 80950, Note_on_c, 0, 64, 51
2, 80950, Note_on_c, 0, 52, 48
2, 80968, Control_c, 0, 64, 127
2, 81201, Note_off_c, 0, 64, 64
2, 81280, Note_off_c, 0, 52, 64
2, 81401, Note_on_c, 0, 66, 40
2, 81412, Note_on_c, 0, 54, 33
2, 81418, Note_on_c, 0, 38, 32
2, 81462, Control_c, 0, 64, 0
2, 81827, Control_c, 0, 64, 127
2, 82046, Note_on_c, 0, 59, 43
2, 82053, Note_off_c, 0, 61, 64
2, 82061, Note_off_c, 0, 66, 64
2, 82150, Note_on_c, 0, 61, 43
2, 82242, Note_off_c, 0, 59, 64
2, 82256, Note_on_c, 0, 64, 52
2, 82293, Note_off_c, 0, 61, 64
2, 82342, Note_off_c, 0, 64, 64
2, 82345, Note_on_c, 0, 62, 57
2, 82436, Note_off_c, 0, 38, 64
2, 82452, Note_off_c, 0, 54, 64
2, 82463, Note_off_c, 0, 45, 64
2, 82612, Note_on_c, 0, 61, 51
2, 82631, Note_off_c, 0, 62, 64
2, 82659, Note_off_c, 0, 61, 64
2, 82664, Control_c, 0, 64, 0
2, 82688, Note_on_c, 0, 33, 47
2, 82691, Note_on_c, 0, 64, 60
2, 82696, Note_on_c, 0, 61, 50
2, 82696, Note_on_c, 0, 52, 45
2, 82701, Note_on_c, 0, 45, 42
2, 82749, Control_c, 0, 64, 127
2, 82907, Note_off_c, 0, 64, 64
2, 83060, Note_off_c, 0, 52, 64
2, 83180, Note_off_c, 0, 45, 64
2, 83227, Note_on_c, 0, 45, 18
2, 83239, Note_on_c, 0, 54, 25
2, 83242, Note_on_c, 0, 66, 44
2, 83245, Note_on_c, 0, 38, 44
2, 83255, Note_off_c, 0, 33, 64
2, 83368, Control_c, 0, 64, 0
2, 83519, Control_c, 0, 64, 127
2, 83779, Note_off_c, 0, 61, 64
2, 83786, Note_on_c, 0, 59, 55
2, 83807, Note_off_c, 0, 66, 64
2, 83898, Note_on_c, 0, 61, 42
2, 83930, Note_off_c, 0, 59, 64
2, 84021, Note_on_c, 0, 64, 36
2, 84042, Note_off_c, 0, 61, 64
2, 84133, Note_off_c, 0, 64, 64
2, 84155, Note_on_c, 0, 62, 22
2, 84206, Note_off_c, 0, 54, 64
2, 84348, Note_off_c, 0, 62, 64
2, 84381, Note_on_c, 0, 61, 55
2, 84421, Note_off_c, 0, 61, 64
2, 84445, Note_on_c, 0, 61, 51
2, 84496, Note_off_c, 0, 61, 64
2, 84496, Note_on_c, 0, 54, 31
2, 84499, Note_on_c, 0, 69, 53
2, 84605, Note_on_c, 0, 66, 46
2, 84629, Note_off_c, 0, 54, 64
2, 84658, Note_off_c, 0, 69, 64
2, 84718, Note_off_c, 0, 66, 64
2, 84721, Note_on_c, 0, 62, 59
2, 84840, Note_off_c, 0, 62, 64
2, 84877, Note_on_c, 0, 64, 60
2, 84881, Note_on_c, 0, 61, 52
2, 84881, Note_on_c, 0, 56, 57
2, 84898, Note_on_c, 0, 40, 57
2, 84903, Note_on_c, 0, 52, 40
2, 84907, Note_off_c, 0, 45, 64
2, 84922, Control_c, 0, 64, 0
2, 84925, Note_off_c, 0, 38, 64
2, 85024, Control_c, 0, 64, 127
2, 85287, Note_off_c, 0, 61, 64
2, 85292, Control_c, 0, 64, 0
2, 85302, Note_on_c, 0, 59, 37
2, 85305, Note_on_c, 0, 50, 46
2, 85330, Note_off_c, 0, 56, 64
2, 85372, Control_c, 0, 64, 127
2, 85467, Note_off_c, 0, 40, 64
2, 85542, Note_off_c, 0, 52, 64
2, 85611, Note_on_c, 0, 57, 48
2, 85611, Note_on_c, 0, 49, 52
2, 85621, Note_on_c, 0, 45, 44
2, 85628, Note_off_c, 0, 59, 64
2, 85641, Note_off_c, 0, 50, 64
2, 85728, Control_c, 0, 64, 0
2, 85772, Note_off_c, 0, 64, 64
2, 85789, Note_on_c, 0, 61, 42
2, 85792, Note_on_c, 0, 52, 31
2, 85810, Note_off_c, 0, 57, 64
2, 85817, Note_off_c, 0, 49, 64
2, 86540, Control_c, 0, 64, 127
2, 86645, Note_off_c, 0, 61, 64
2, 86919, Note_on_c, 0, 73, 42
2, 86952, Note_off_c, 0, 45, 64
2, 86970, Note_off_c, 0, 52, 64
2, 86976, Control_c, 0, 64, 0
2, 87336, Control_c, 0, 64, 127
2, 87580, Note_on_c, 0, 75, 41
2, 87586, Note_off_c, 0, 73, 64
2, 87632, Note_on_c, 0, 78, 41
2, 87656, Note_off_c, 0, 75, 64
2, 87684, Note_off_c, 0, 78, 64
2, 87684, Note_on_c, 0, 76, 41
2, 87742, Note_on_c, 0, 73, 41
2, 87751, Note_off_c, 0, 76, 64
2, 87776, Note_on_c, 0, 69, 41
2, 87780, Note_off_c, 0, 73, 64
2, 87813, Note_off_c, 0, 69, 64
2, 87826, Note_on_c, 0, 68, 41
2, 87863, Note_off_c, 0, 68, 64
2, 87875, Note_on_c, 0, 68, 41
2, 87925, Note_on_c, 0, 80, 69
2, 87928, Note_off_c, 0, 68, 64
2, 87949, Control_c, 0, 64, 0
2, 88162, Note_on_c, 0, 59, 33
2, 88168, Note_on_c, 0, 65, 36
2, 88170, Control_c, 0, 64, 127
2, 88177, Note_on_c, 0, 62, 38
2, 88235, Note_off_c, 0, 59, 64
2, 88243, Note_off_c, 0, 65, 64
2, 88269, Note_off_c, 0, 62, 64
2, 88281, Note_off_c, 0, 80, 64
2, 88302, Note_on_c, 0, 78, 52
2, 88316, Note_off_c, 0, 78, 64
2, 88322, Note_on_c, 0, 80, 52
2, 88328, Control_c, 0, 64, 0
2, 88335, Note_on_c, 0, 57, 21
2, 88341, Note_on_c, 0, 61, 45
2, 88344, Note_on_c, 0, 78, 52
2, 88360, Note_on_c, 0, 66, 24
2, 88365, Note_off_c, 0, 80, 64
2, 88404, Control_c, 0, 64, 127
2, 88470, Note_off_c, 0, 66, 64
2, 88479, Note_off_c, 0, 61, 64
2, 88523, Note_on_c, 0, 76, 52
2, 88526, Note_off_c, 0, 78, 64
2, 88538, Note_off_c, 0, 57, 64
2, 88562, Note_on_c, 0, 69, 39
2, 88568, Note_on_c, 0, 78, 63
2, 88568, Note_on_c, 0, 64, 45
2, 88576, Note_on_c, 0, 61, 30
2, 88591, Note_off_c, 0, 76, 64
2, 88630, Note_off_c, 0, 69, 64
2, 88634, Note_off_c, 0, 64, 64
2, 88636, Note_off_c, 0, 61, 64
2, 88704, Control_c, 0, 64, 0
2, 88721, Note_on_c, 0, 68, 35
2, 88721, Note_on_c, 0, 60, 45
2, 88728, Note_on_c, 0, 80, 58
2, 88742, Note_off_c, 0, 78, 64
2, 88752, Note_on_c, 0, 63, 23
2, 88788, Control_c, 0, 64, 127
2, 88817, Note_off_c, 0, 68, 64
2, 88821, Note_off_c, 0, 60, 64
2, 88824, Note_off_c, 0, 63, 64
2, 88901, Note_off_c, 0, 80, 64
2, 88916, Note_on_c, 0, 81, 51
2, 88953, Note_on_c, 0, 59, 32
2, 88962, Note_on_c, 0, 80, 52
2, 88962, Note_on_c, 0, 65, 42
2, 88966, Note_on_c, 0, 62, 40
2, 88984, Note_off_c, 0, 81, 64
2, 89010, Note_off_c, 0, 65, 64
2, 89023, Note_off_c, 0, 59, 64
2, 89026, Note_off_c, 0, 62, 64
2, 89074, Note_off_c, 0, 80, 64
2, 89076, Note_on_c, 0, 78, 52
2, 89095, Control_c, 0, 64, 0
2, 89107, Note_on_c, 0, 80, 52
2, 89121, Note_off_c, 0, 78, 64
2, 89124, Note_on_c, 0, 57, 26
2, 89129, Note_on_c, 0, 66, 49
2, 89133, Note_on_c, 0, 61, 26
2, 89147, Note_on_c, 0, 78, 52
2, 89166, Note_off_c, 0, 80, 64
2, 89184, Control_c, 0, 64, 127
2, 89228, Note_off_c, 0, 61, 64
2, 89234, Note_off_c, 0, 66, 64
2, 89266, Note_off_c, 0, 57, 64
2, 89302, Note_off_c, 0, 78, 64
2, 89310, Note_on_c, 0, 76, 55
2, 89354, Note_on_c, 0, 69, 31
2, 89369, Note_on_c, 0, 78, 58
2, 89370, Note_on_c, 0, 64, 21
2, 89386, Note_off_c, 0, 76, 64
2, 89426, Note_off_c, 0, 64, 64
2, 89440, Note_off_c, 0, 69, 64
2, 89479, Control_c, 0, 64, 0
2, 89490, Note_on_c, 0, 56, 48
2, 89536, Note_on_c, 0, 63, 50
2, 89552, Note_off_c, 0, 56, 64
2, 89565, Note_on_c, 0, 80, 58
2, 89565, Note_on_c, 0, 72, 53
2, 89576, Control_c, 0, 64, 127
2, 89586, Note_off_c, 0, 63, 64
2, 89590, Note_off_c, 0, 78, 64
2, 89606, Note_off_c, 0, 72, 64
2, 89884, Control_c, 0, 64, 0
2, 90060, Control_c, 0, 64, 127
2, 90146, Control_c, 0, 64, 0
2, 90157, Note_on_c, 0, 44, 58
2, 90223, Control_c, 0, 64, 127
2, 90340, Note_off_c, 0, 80, 64
2, 90361, Note_on_c, 0, 68, 50
2, 90420, Note_on_c, 0, 80, 48
2, 90447, Note_off_c, 0, 68, 64
2, 90477, Note_off_c, 0, 80, 64
2, 90477, Note_on_c, 0, 75, 46
2, 90521, Note_on_c, 0, 80, 45
2, 90541, Note_off_c, 0, 75, 64
2, 90565, Note_off_c, 0, 80, 64
2, 90581, Note_on_c, 0, 75, 43
2, 90649, Note_on_c, 0, 87, 42
2, 90666, Note_off_c, 0, 75, 64
2, 90694, Note_off_c, 0, 87, 64
2, 90715, Note_on_c, 0, 80, 39
2, 90762, Note_on_c, 0, 87, 38
2, 90769, Note_off_c, 0, 80, 64
2, 90832, Note_off_c, 0, 87, 64
2, 90838, Note_on_c, 0, 80, 36
2, 90936, Note_on_c, 0, 92, 33
2, 90949, Note_off_c, 0, 80, 64
2, 90968, Note_off_c, 0, 44, 64
2, 91026, Note_off_c, 0, 92, 64
2, 91180, Note_on_c, 0, 80, 60
2, 91362, Note_on_c, 0, 78, 60
2, 91369, Note_off_c, 0, 80, 64
2, 91499, Control_c, 0, 64, 0
2, 91513, Note_off_c, 0, 78, 64
2, 91521, Note_on_c, 0, 76, 60
2, 91525, Note_on_c, 0, 49, 40
2, 91569, Control_c, 0, 64, 127
2, 91692, Note_on_c, 0, 67, 42
2, 91699, Note_on_c, 0, 64, 50
2, 91708, Note_off_c, 0, 49, 64
2, 91761, Note_on_c, 0, 68, 42
2, 91798, Note_off_c, 0, 67, 64
2, 91809, Note_off_c, 0, 64, 64
2, 91815, Note_on_c, 0, 71, 42
2, 91828, Note_off_c, 0, 68, 64
2, 91843, Note_on_c, 0, 56, 31
2, 91866, Note_on_c, 0, 69, 42
2, 91896, Note_off_c, 0, 71, 64
2, 91912, Note_on_c, 0, 68, 42
2, 91919, Control_c, 0, 64, 0
2, 91925, Note_off_c, 0, 69, 64
2, 91935, Note_off_c, 0, 56, 64
2, 91947, Note_off_c, 0, 68, 64
2, 91955, Note_on_c, 0, 51, 31
2, 91958, Note_on_c, 0, 68, 59
2, 91966, Note_on_c, 0, 54, 30
2, 91986, Control_c, 0, 64, 127
2, 92016, Note_off_c, 0, 76, 64
2, 92093, Note_on_c, 0, 76, 64
2, 92117, Note_off_c, 0, 51, 64
2, 92126, Note_on_c, 0, 60, 26
2, 92229, Note_off_c, 0, 76, 64
2, 92236, Note_off_c, 0, 54, 64
2, 92237, Note_on_c, 0, 75, 64
2, 92246, Note_on_c, 0, 56, 46
2, 92260, Note_off_c, 0, 60, 64
2, 92291, Note_off_c, 0, 68, 64
2, 92338, Control_c, 0, 64, 0
2, 92369, Note_on_c, 0, 73, 63
2, 92375, Note_off_c, 0, 56, 64
2, 92379, Note_on_c, 0, 52, 52
2, 92384, Note_off_c, 0, 75, 64
2, 92412, Control_c, 0, 64, 127
2, 92511, Note_on_c, 0, 67, 42
2, 92517, Note_on_c, 0, 61, 55
2, 92520, Note_off_c, 0, 52, 64
2, 92569, Note_on_c, 0, 68, 42
2, 92610, Note_off_c, 0, 61, 64
2, 92614, Note_off_c, 0, 67, 64
2, 92617, Note_on_c, 0, 71, 42
2, 92633, Note_off_c, 0, 68, 64
2, 92644, Note_on_c, 0, 56, 38
2, 92662, Note_on_c, 0, 69, 42
2, 92681, Note_off_c, 0, 71, 64
2, 92706, Note_on_c, 0, 68, 42
2, 92712, Note_off_c, 0, 69, 64
2, 92715, Control_c, 0, 64, 0
2, 92736, Note_off_c, 0, 68, 64
2, 92738, Note_on_c, 0, 48, 36
2, 92750, Note_on_c, 0, 68, 56
2, 92769, Note_off_c, 0, 56, 64
2, 92788, Control_c, 0, 64, 127
2, 92864, Note_off_c, 0, 73, 64
2, 92883, Note_on_c, 0, 80, 64
2, 92888, Note_on_c, 0, 63, 57
2, 93012, Note_off_c, 0, 80, 64
2, 93015, Note_on_c, 0, 78, 61
2, 93018, Note_off_c, 0, 63, 64
2, 93018, Note_off_c, 0, 48, 64
2, 93032, Note_on_c, 0, 56, 33
2, 93095, Control_c, 0, 64, 0
2, 93137, Note_off_c, 0, 78, 64
2, 93146, Note_on_c, 0, 76, 66
2, 93156, Note_on_c, 0, 49, 59
2, 93174, Note_off_c, 0, 68, 64
2, 93188, Control_c, 0, 64, 127
2, 93287, Note_off_c, 0, 49, 64
2, 93288, Note_on_c, 0, 67, 49
2, 93296, Note_on_c, 0, 64, 49
2, 93303, Note_off_c, 0, 56, 64
2, 93340, Note_on_c, 0, 68, 48
2, 93378, Note_off_c, 0, 67, 64
2, 93388, Note_on_c, 0, 71, 45
2, 93410, Note_off_c, 0, 68, 64
2, 93412, Note_on_c, 0, 56, 47
2, 93418, Note_off_c, 0, 64, 64
2, 93434, Note_on_c, 0, 69, 46
2, 93457, Note_off_c, 0, 71, 64
2, 93477, Note_on_c, 0, 68, 63
2, 93480, Control_c, 0, 64, 0
2, 93486, Note_off_c, 0, 69, 64
2, 93508, Note_off_c, 0, 56, 64
2, 93509, Note_off_c, 0, 68, 64
2, 93517, Note_on_c, 0, 51, 37
2, 93521, Note_on_c, 0, 68, 56
2, 93545, Control_c, 0, 64, 127
2, 93564, Note_on_c, 0, 54, 3
2, 93641, Note_off_c, 0, 76, 64
2, 93653, Note_on_c, 0, 76, 65
2, 93653, Note_on_c, 0, 60, 51
2, 93688, Note_off_c, 0, 54, 64
2, 93690, Note_off_c, 0, 51, 64
2, 93773, Note_on_c, 0, 75, 58
2, 93779, Note_on_c, 0, 56, 54
2, 93782, Note_off_c, 0, 76, 64
2, 93787, Note_off_c, 0, 68, 64
2, 93831, Note_off_c, 0, 60, 64
2, 93850, Control_c, 0, 64, 0
2, 93895, Note_on_c, 0, 73, 49
2, 93900, Note_off_c, 0, 56, 64
2, 93904, Note_on_c, 0, 52, 50
2, 93923, Note_off_c, 0, 75, 64
2, 93931, Control_c, 0, 64, 127
2, 94000, Note_off_c, 0, 73, 64
2, 94028, Note_on_c, 0, 72, 50
2, 94032, Note_on_c, 0, 61, 51
2, 94070, Note_off_c, 0, 52, 64
2, 94078, Note_on_c, 0, 73, 48
2, 94116, Note_off_c, 0, 72, 64
2, 94120, Note_on_c, 0, 56, 33
2, 94131, Note_on_c, 0, 76, 40
2, 94143, Note_off_c, 0, 73, 64
2, 94165, Note_off_c, 0, 61, 64
2, 94173, Note_on_c, 0, 74, 43
2, 94195, Note_off_c, 0, 76, 64
2, 94219, Note_on_c, 0, 73, 61
2, 94221, Control_c, 0, 64, 0
2, 94227, Note_off_c, 0, 74, 64
2, 94241, Note_off_c, 0, 56, 64
2, 94250, Note_off_c, 0, 73, 64
2, 94256, Note_on_c, 0, 53, 38
2, 94258, Note_on_c, 0, 59, 52
2, 94264, Note_on_c, 0, 73, 65
2, 94287, Control_c, 0, 64, 127
2, 94394, Note_on_c, 0, 85, 63
2, 94403, Note_on_c, 0, 68, 60
2, 94477, Note_off_c, 0, 59, 64
2, 94520, Note_off_c, 0, 85, 64
2, 94524, Note_on_c, 0, 83, 64
2, 94532, Note_off_c, 0, 68, 64
2, 94537, Note_off_c, 0, 53, 64
2, 94539, Note_on_c, 0, 61, 36
2, 94580, Note_off_c, 0, 73, 64
2, 94608, Control_c, 0, 64, 0
2, 94650, Note_on_c, 0, 81, 66
2, 94653, Note_off_c, 0, 61, 64
2, 94658, Note_off_c, 0, 83, 64
2, 94664, Note_on_c, 0, 57, 54
2, 94672, Note_on_c, 0, 54, 62
2, 94686, Control_c, 0, 64, 127
2, 94786, Note_on_c, 0, 72, 49
2, 94792, Note_on_c, 0, 66, 66
2, 94840, Note_on_c, 0, 73, 52
2, 94864, Note_off_c, 0, 57, 64
2, 94892, Note_off_c, 0, 72, 64
2, 94892, Note_on_c, 0, 76, 40
2, 94899, Note_off_c, 0, 66, 64
2, 94906, Note_off_c, 0, 73, 64
2, 94908, Note_on_c, 0, 61, 41
2, 94921, Note_off_c, 0, 54, 64
2, 94936, Note_on_c, 0, 74, 55
2, 94952, Note_off_c, 0, 76, 64
2, 94975, Note_on_c, 0, 73, 59
2, 94981, Control_c, 0, 64, 0
2, 94984, Note_off_c, 0, 74, 64
2, 95003, Note_off_c, 0, 61, 64
2, 95006, Note_off_c, 0, 73, 64
2, 95015, Note_on_c, 0, 56, 60
2, 95019, Note_on_c, 0, 73, 63
2, 95036, Note_on_c, 0, 59, 33
2, 95043, Control_c, 0, 64, 127
2, 95115, Note_off_c, 0, 81, 64
2, 95145, Note_on_c, 0, 65, 49
2, 95149, Note_on_c, 0, 81, 62
2, 95192, Note_off_c, 0, 59, 64
2, 95217, Note_off_c, 0, 56, 64
2, 95262, Note_off_c, 0, 81, 64
2, 95265, Note_on_c, 0, 80, 62
2, 95283, Note_on_c, 0, 61, 49
2, 95332, Note_off_c, 0, 73, 64
2, 95345, Control_c, 0, 64, 0
2, 95386, Note_on_c, 0, 78, 64
2, 95391, Note_off_c, 0, 65, 64
2, 95399, Note_on_c, 0, 57, 58
2, 95402, Note_off_c, 0, 61, 64
2, 95405, Note_off_c, 0, 80, 64
2, 95428, Control_c, 0, 64, 127
2, 95518, Note_on_c, 0, 72, 51
2, 95521, Note_on_c, 0, 66, 69
2, 95543, Note_off_c, 0, 57, 64
2, 95572, Note_on_c, 0, 73, 49
2, 95602, Note_off_c, 0, 66, 64
2, 95612, Note_off_c, 0, 72, 64
2, 95617, Note_on_c, 0, 76, 50
2, 95627, Note_on_c, 0, 61, 40
2, 95634, Note_off_c, 0, 73, 64
2, 95656, Note_on_c, 0, 74, 53
2, 95679, Note_off_c, 0, 76, 64
2, 95688, Control_c, 0, 64, 0
2, 95702, Note_on_c, 0, 73, 61
2, 95712, Note_off_c, 0, 74, 64
2, 95717, Note_off_c, 0, 61, 64
2, 95732, Note_off_c, 0, 73, 64
2, 95739, Note_on_c, 0, 53, 37
2, 95740, Note_on_c, 0, 73, 63
2, 95747, Note_on_c, 0, 59, 33
2, 95768, Control_c, 0, 64, 127
2, 95865, Note_off_c, 0, 78, 64
2, 95866, Note_on_c, 0, 85, 64
2, 95875, Note_on_c, 0, 68, 71
2, 95898, Note_off_c, 0, 53, 64
2, 95905, Note_off_c, 0, 59, 64
2, 95971, Note_off_c, 0, 85, 64
2, 95989, Note_on_c, 0, 83, 65
2, 95995, Note_on_c, 0, 61, 63
2, 96025, Note_off_c, 0, 68, 64
2, 96058, Control_c, 0, 64, 0
2, 96108, Note_off_c, 0, 83, 64
2, 96108, Note_on_c, 0, 81, 65
2, 96111, Note_on_c, 0, 54, 58
2, 96116, Note_off_c, 0, 61, 64
2, 96147, Note_off_c, 0, 73, 64
2, 96150, Control_c, 0, 64, 127
2, 96239, Note_on_c, 0, 72, 41
2, 96255, Note_on_c, 0, 69, 31
2, 96294, Note_on_c, 0, 73, 40
2, 96328, Note_off_c, 0, 72, 64
2, 96336, Note_off_c, 0, 69, 64
2, 96343, Note_on_c, 0, 76, 43
2, 96352, Note_off_c, 0, 54, 64
2, 96358, Note_off_c, 0, 73, 64
2, 96360, Note_on_c, 0, 61, 55
2, 96382, Note_on_c, 0, 74, 56
2, 96397, Note_off_c, 0, 76, 64
2, 96412, Control_c, 0, 64, 0
2, 96422, Note_on_c, 0, 73, 56
2, 96428, Note_off_c, 0, 74, 64
2, 96450, Note_off_c, 0, 61, 64
2, 96451, Note_off_c, 0, 73, 64
2, 96460, Note_on_c, 0, 73, 65
2, 96464, Note_on_c, 0, 56, 60
2, 96476, Note_on_c, 0, 59, 43
2, 96498, Control_c, 0, 64, 127
2, 96573, Note_off_c, 0, 81, 64
2, 96592, Note_on_c, 0, 81, 62
2, 96592, Note_on_c, 0, 65, 55
2, 96639, Note_off_c, 0, 59, 64
2, 96649, Note_off_c, 0, 56, 64
2, 96700, Note_on_c, 0, 80, 60
2, 96703, Note_off_c, 0, 81, 64
2, 96717, Note_on_c, 0, 61, 41
2, 96760, Note_off_c, 0, 73, 64
2, 96776, Control_c, 0, 64, 0
2, 96785, Note_off_c, 0, 65, 64
2, 96815, Note_on_c, 0, 78, 72
2, 96827, Note_off_c, 0, 61, 64
2, 96829, Note_on_c, 0, 57, 60
2, 96856, Note_off_c, 0, 80, 64
2, 96868, Control_c, 0, 64, 127
2, 96957, Note_on_c, 0, 72, 55
2, 96966, Note_on_c, 0, 66, 41
2, 96996, Note_off_c, 0, 57, 64
2, 97000, Note_on_c, 0, 73, 70
2, 97053, Note_on_c, 0, 76, 61
2, 97058, Note_off_c, 0, 66, 64
2, 97062, Note_on_c, 0, 61, 60
2, 97070, Note_off_c, 0, 73, 64
2, 97072, Note_off_c, 0, 72, 64
2, 97102, Note_on_c, 0, 74, 51
2, 97115, Note_off_c, 0, 76, 64
2, 97140, Note_on_c, 0, 73, 72
2, 97146, Note_off_c, 0, 74, 64
2, 97154, Control_c, 0, 64, 0
2, 97172, Note_off_c, 0, 61, 64
2, 97174, Note_off_c, 0, 73, 64
2, 97186, Note_on_c, 0, 73, 79
2, 97190, Note_on_c, 0, 45, 48
2, 97237, Control_c, 0, 64, 127
2, 97329, Note_on_c, 0, 80, 60
2, 97339, Note_on_c, 0, 61, 69
2, 97340, Note_off_c, 0, 78, 64
2, 97440, Note_off_c, 0, 61, 64
2, 97449, Note_on_c, 0, 81, 62
2, 97464, Note_off_c, 0, 80, 64
2, 97469, Note_on_c, 0, 54, 58
2, 97474, Note_off_c, 0, 45, 64
2, 97524, Control_c, 0, 64, 0
2, 97569, Note_off_c, 0, 54, 64
2, 97571, Note_on_c, 0, 80, 69
2, 97576, Note_off_c, 0, 81, 64
2, 97584, Note_on_c, 0, 44, 57
2, 97590, Note_on_c, 0, 51, 54
2, 97593, Note_off_c, 0, 73, 64
2, 97600, Control_c, 0, 64, 127
2, 97662, Note_off_c, 0, 44, 64
2, 97721, Note_on_c, 0, 67, 41
2, 97729, Note_on_c, 0, 60, 42
2, 97775, Note_off_c, 0, 51, 64
2, 97781, Note_on_c, 0, 68, 29
2, 97804, Note_off_c, 0, 67, 64
2, 97832, Note_on_c, 0, 54, 41
2, 97841, Note_off_c, 0, 68, 64
2, 97842, Note_on_c, 0, 71, 42
2, 97877, Note_on_c, 0, 69, 49
2, 97892, Note_off_c, 0, 71, 64
2, 97905, Note_off_c, 0, 60, 64
2, 97909, Note_on_c, 0, 68, 67
2, 97912, Control_c, 0, 64, 0
2, 97923, Note_off_c, 0, 69, 64
2, 97940, Note_off_c, 0, 68, 64
2, 97956, Note_on_c, 0, 68, 73
2, 97962, Note_off_c, 0, 54, 64
2, 97966, Note_on_c, 0, 52, 54
2, 97986, Control_c, 0, 64, 127
2, 98082, Note_on_c, 0, 61, 47
2, 98087, Note_on_c, 0, 78, 59
2, 98096, Note_off_c, 0, 80, 64
2, 98189, Note_off_c, 0, 52, 64
2, 98197, Note_off_c, 0, 78, 64
2, 98197, Note_off_c, 0, 61, 64
2, 98210, Note_on_c, 0, 56, 42
2, 98211, Note_on_c, 0, 76, 47
2, 98276, Control_c, 0, 64, 0
2, 98320, Note_off_c, 0, 56, 64
2, 98329, Note_on_c, 0, 44, 47
2, 98334, Note_on_c, 0, 54, 57
2, 98347, Note_on_c, 0, 75, 56
2, 98349, Note_off_c, 0, 76, 64
2, 98359, Control_c, 0, 64, 127
2, 98379, Note_off_c, 0, 68, 64
2, 98439, Note_off_c, 0, 44, 64
2, 98477, Note_on_c, 0, 67, 48
2, 98484, Note_on_c, 0, 60, 53
2, 98517, Note_on_c, 0, 68, 61
2, 98563, Note_off_c, 0, 67, 64
2, 98571, Note_on_c, 0, 71, 53
2, 98583, Note_off_c, 0, 68, 64
2, 98615, Note_on_c, 0, 69, 50
2, 98615, Note_on_c, 0, 56, 27
2, 98629, Note_off_c, 0, 71, 64
2, 98643, Note_off_c, 0, 54, 64
2, 98646, Note_off_c, 0, 60, 64
2, 98653, Control_c, 0, 64, 0
2, 98662, Note_on_c, 0, 68, 66
2, 98669, Note_off_c, 0, 69, 64
2, 98698, Note_off_c, 0, 68, 64
2, 98712, Note_on_c, 0, 52, 45
2, 98713, Note_on_c, 0, 68, 64
2, 98716, Note_off_c, 0, 56, 64
2, 98737, Control_c, 0, 64, 127
2, 98802, Note_off_c, 0, 75, 64
2, 98824, Note_on_c, 0, 75, 53
2, 98826, Note_on_c, 0, 61, 48
2, 98911, Note_off_c, 0, 52, 64
2, 98931, Note_off_c, 0, 61, 64
2, 98936, Note_off_c, 0, 75, 64
2, 98944, Note_on_c, 0, 73, 54
2, 98946, Note_on_c, 0, 56, 45
2, 99021, Control_c, 0, 64, 0
2, 99043, Note_off_c, 0, 68, 64
2, 99051, Note_on_c, 0, 44, 46
2, 99056, Note_off_c, 0, 56, 64
2, 99060, Note_on_c, 0, 72, 53
2, 99076, Note_on_c, 0, 51, 26
2, 99093, Note_off_c, 0, 73, 64
2, 99097, Control_c, 0, 64, 127
2, 99143, Note_off_c, 0, 44, 64
2, 99198, Note_on_c, 0, 67, 49
2, 99203, Note_on_c, 0, 60, 45
2, 99225, Note_off_c, 0, 51, 64
2, 99255, Note_on_c, 0, 68, 33
2, 99278, Note_off_c, 0, 67, 64
2, 99302, Note_on_c, 0, 56, 28
2, 99303, Note_on_c, 0, 71, 44
2, 99315, Note_off_c, 0, 68, 64
2, 99332, Note_off_c, 0, 60, 64
2, 99339, Note_on_c, 0, 69, 49
2, 99366, Control_c, 0, 64, 0
2, 99372, Note_off_c, 0, 71, 64
2, 99383, Note_on_c, 0, 68, 57
2, 99388, Note_off_c, 0, 69, 64
2, 99399, Note_off_c, 0, 56, 64
2, 99411, Note_off_c, 0, 68, 64
2, 99422, Note_on_c, 0, 52, 36
2, 99431, Note_on_c, 0, 68, 55
2, 99447, Control_c, 0, 64, 127
2, 99542, Note_on_c, 0, 61, 31
2, 99551, Note_on_c, 0, 78, 45
2, 99555, Note_off_c, 0, 72, 64
2, 99582, Note_off_c, 0, 52, 64
2, 99649, Note_off_c, 0, 61, 64
2, 99655, Note_off_c, 0, 78, 64
2, 99664, Note_on_c, 0, 76, 46
2, 99672, Note_on_c, 0, 56, 44
2, 99787, Control_c, 0, 64, 0
2, 99808, Note_off_c, 0, 76, 64
2, 99809, Note_on_c, 0, 75, 43
2, 99814, Note_on_c, 0, 47, 33
2, 99817, Note_off_c, 0, 68, 64
2, 99829, Note_off_c, 0, 56, 64
2, 99861, Control_c, 0, 64, 127
2, 99961, Note_off_c, 0, 75, 64
2, 99967, Note_on_c, 0, 70, 44
2, 99976, Note_on_c, 0, 54, 22
2, 100035, Note_on_c, 0, 71, 45
2, 100037, Note_off_c, 0, 47, 64
2, 100041, Note_off_c, 0, 70, 64
2, 100103, Note_on_c, 0, 75, 34
2, 100125, Note_off_c, 0, 71, 64
2, 100127, Note_on_c, 0, 57, 34
2, 100171, Note_on_c, 0, 73, 33
2, 100193, Note_off_c, 0, 75, 64
2, 100230, Note_on_c, 0, 71, 40
2, 100243, Control_c, 0, 64, 0
2, 100253, Note_off_c, 0, 73, 64
2, 100277, Note_off_c, 0, 71, 64
2, 100288, Note_on_c, 0, 63, 37
2, 100294, Note_on_c, 0, 71, 52
2, 100324, Control_c, 0, 64, 127
2, 100450, Note_on_c, 0, 76, 37
2, 100617, Note_off_c, 0, 71, 64
2, 100680, Note_on_c, 0, 78, 39
2, 100689, Note_off_c, 0, 76, 64
2, 100694, Note_off_c, 0, 57, 64
2, 100739, Note_off_c, 0, 54, 64
2, 100744, Note_off_c, 0, 63, 64
2, 100881, Note_off_c, 0, 78, 64
2, 100888, Control_c, 0, 64, 127
2, 100893, Note_on_c, 0, 52, 46
2, 100900, Note_on_c, 0, 68, 57
2, 100946, Note_on_c, 0, 71, 57
2, 100962, Note_off_c, 0, 68, 64
2, 100992, Note_on_c, 0, 76, 57
2, 100999, Note_on_c, 0, 59, 38
2, 101000, Note_on_c, 0, 64, 28
2, 101006, Note_off_c, 0, 71, 64
2, 101037, Note_on_c, 0, 80, 57
2, 101055, Note_off_c, 0, 76, 64
2, 101069, Note_off_c, 0, 52, 64
2, 101077, Note_on_c, 0, 78, 57
2, 101080, Note_on_c, 0, 56, 39
2, 101100, Note_off_c, 0, 80, 64
2, 101104, Note_off_c, 0, 59, 64
2, 101111, Control_c, 0, 64, 0
2, 101118, Note_on_c, 0, 76, 57
2, 101137, Note_off_c, 0, 56, 64
2, 101150, Control_c, 0, 64, 127
2, 101152, Note_on_c, 0, 51, 54
2, 101161, Note_on_c, 0, 80, 57
2, 101167, Note_off_c, 0, 76, 64
2, 101174, Note_off_c, 0, 64, 64
2, 101176, Note_off_c, 0, 78, 64
2, 101206, Note_on_c, 0, 83, 57
2, 101220, Note_off_c, 0, 80, 64
2, 101240, Note_on_c, 0, 64, 43
2, 101248, Note_on_c, 0, 59, 46
2, 101252, Note_on_c, 0, 88, 57
2, 101269, Note_off_c, 0, 83, 64
2, 101292, Note_on_c, 0, 92, 57
2, 101296, Note_off_c, 0, 88, 64
2, 101328, Note_off_c, 0, 51, 64
2, 101332, Note_on_c, 0, 90, 57
2, 101336, Note_on_c, 0, 56, 41
2, 101351, Note_off_c, 0, 92, 64
2, 101358, Note_off_c, 0, 59, 64
2, 101363, Control_c, 0, 64, 0
2, 101367, Note_on_c, 0, 88, 57
2, 101388, Note_off_c, 0, 90, 64
2, 101393, Note_off_c, 0, 56, 64
2, 101404, Control_c, 0, 64, 127
2, 101410, Note_off_c, 0, 88, 64
2, 101410, Note_on_c, 0, 83, 57
2, 101416, Note_on_c, 0, 49, 51
2, 101438, Note_off_c, 0, 83, 64
2, 101442, Note_off_c, 0, 64, 64
2, 101455, Note_on_c, 0, 80, 57
2, 101496, Note_on_c, 0, 59, 37
2, 101498, Note_off_c, 0, 80, 64
2, 101501, Note_on_c, 0, 78, 57
2, 101503, Note_on_c, 0, 64, 36
2, 101539, Note_off_c, 0, 78, 64
2, 101544, Note_on_c, 0, 76, 57
2, 101571, Note_on_c, 0, 56, 43
2, 101574, Note_on_c, 0, 71, 57
2, 101586, Note_off_c, 0, 59, 64
2, 101592, Note_off_c, 0, 76, 64
2, 101592, Note_off_c, 0, 49, 64
2, 101604, Note_off_c, 0, 71, 64
2, 101618, Note_on_c, 0, 68, 57
2, 101619, Control_c, 0, 64, 0
2, 101628, Note_off_c, 0, 56, 64
2, 101649, Note_on_c, 0, 47, 47
2, 101654, Note_on_c, 0, 66, 57
2, 101661, Control_c, 0, 64, 127
2, 101670, Note_off_c, 0, 68, 64
2, 101675, Note_off_c, 0, 64, 64
2, 101687, Note_on_c, 0, 64, 60
2, 101706, Note_off_c, 0, 66, 64
2, 101736, Note_off_c, 0, 64, 64
2, 101736, Note_on_c, 0, 59, 60
2, 101787, Note_on_c, 0, 68, 57
2, 101804, Note_off_c, 0, 59, 64
2, 101824, Note_on_c, 0, 66, 57
2, 101825, Note_off_c, 0, 47, 64
2, 101839, Note_off_c, 0, 68, 64
2, 101864, Note_on_c, 0, 64, 57
2, 101864, Control_c, 0, 64, 0
2, 101881, Note_off_c, 0, 66, 64
2, 101906, Control_c, 0, 64, 127
2, 101912, Note_on_c, 0, 61, 57
2, 101912, Note_on_c, 0, 45, 65
2, 101916, Note_off_c, 0, 64, 64
2, 101952, Note_on_c, 0, 64, 57
2, 101972, Note_off_c, 0, 61, 64
2, 101987, Note_off_c, 0, 64, 64
2, 101992, Note_on_c, 0, 64, 50
2, 101992, Note_on_c, 0, 61, 52
2, 102000, Note_on_c, 0, 66, 57
2, 102032, Note_on_c, 0, 69, 57
2, 102043, Note_off_c, 0, 66, 64
2, 102054, Note_off_c, 0, 61, 64
2, 102069, Note_on_c, 0, 54, 40
2, 102072, Note_on_c, 0, 73, 57
2, 102081, Note_off_c, 0, 64, 64
2, 102088, Note_off_c, 0, 45, 64
2, 102120, Note_on_c, 0, 76, 57
2, 102125, Note_off_c, 0, 69, 64
2, 102126, Note_off_c, 0, 73, 64
2, 102158, Note_off_c, 0, 54, 64
2, 102168, Note_on_c, 0, 78, 57
2, 102168, Note_on_c, 0, 42, 66
2, 102177, Note_off_c, 0, 76, 64
2, 102202, Note_on_c, 0, 81, 57
2, 102213, Note_off_c, 0, 78, 64
2, 102240, Note_on_c, 0, 64, 57
2, 102240, Note_on_c, 0, 61, 53
2, 102244, Note_on_c, 0, 85, 57
2, 102272, Note_off_c, 0, 81, 64
2, 102284, Note_on_c, 0, 88, 57
2, 102290, Note_off_c, 0, 85, 64
2, 102320, Note_on_c, 0, 90, 57
2, 102320, Note_on_c, 0, 54, 68
2, 102329, Note_off_c, 0, 61, 64
2, 102329, Note_off_c, 0, 64, 64
2, 102338, Note_off_c, 0, 88, 64
2, 102344, Note_off_c, 0, 42, 64
2, 102352, Note_on_c, 0, 93, 57
2, 102380, Note_off_c, 0, 90, 64
2, 102386, Note_on_c, 0, 92, 57
2, 102391, Note_on_c, 0, 47, 67
2, 102409, Note_off_c, 0, 54, 64
2, 102412, Note_off_c, 0, 93, 64
2, 102423, Control_c, 0, 64, 0
2, 102428, Note_on_c, 0, 90, 57
2, 102446, Note_off_c, 0, 92, 64
2, 102455, Control_c, 0, 64, 127
2, 102464, Note_on_c, 0, 87, 57
2, 102464, Note_on_c, 0, 59, 47
2, 102469, Note_on_c, 0, 63, 55
2, 102481, Note_off_c, 0, 90, 64
2, 102503, Note_on_c, 0, 81, 57
2, 102504, Note_off_c, 0, 87, 64
2, 102538, Note_off_c, 0, 81, 64
2, 102544, Note_on_c, 0, 54, 56
2, 102548, Note_on_c, 0, 80, 57
2, 102567, Note_off_c, 0, 47, 64
2, 102581, Control_c, 0, 64, 0
2, 102589, Note_off_c, 0, 54, 64
2, 102592, Note_on_c, 0, 78, 57
2, 102600, Note_off_c, 0, 80, 64
2, 102619, Note_on_c, 0, 75, 57
2, 102622, Control_c, 0, 64, 127
2, 102626, Note_on_c, 0, 56, 34
2, 102644, Note_off_c, 0, 78, 64
2, 102668, Note_on_c, 0, 71, 57
2, 102671, Note_off_c, 0, 56, 64
2, 102675, Note_off_c, 0, 75, 64
2, 102701, Note_on_c, 0, 54, 56
2, 102708, Note_on_c, 0, 75, 57
2, 102731, Note_off_c, 0, 71, 64
2, 102739, Note_on_c, 0, 73, 57
2, 102763, Note_off_c, 0, 54, 64
2, 102763, Note_off_c, 0, 75, 64
2, 102787, Note_on_c, 0, 71, 57
2, 102792, Note_on_c, 0, 56, 52
2, 102809, Note_off_c, 0, 73, 64
2, 102820, Control_c, 0, 64, 0
2, 102827, Note_on_c, 0, 69, 57
2, 102830, Note_off_c, 0, 71, 64
2, 102864, Note_on_c, 0, 52, 58
2, 102864, Control_c, 0, 64, 127
2, 102867, Note_off_c, 0, 56, 64
2, 102872, Note_on_c, 0, 68, 57
2, 102875, Note_off_c, 0, 69, 64
2, 102906, Note_off_c, 0, 59, 64
2, 102908, Note_on_c, 0, 71, 57
2, 102911, Note_off_c, 0, 63, 64
2, 102923, Note_off_c, 0, 68, 64
2, 102952, Note_on_c, 0, 76, 57
2, 102960, Note_on_c, 0, 64, 30
2, 102968, Note_on_c, 0, 59, 50
2, 102972, Note_off_c, 0, 71, 64
2, 102989, Note_on_c, 0, 80, 57
2, 102996, Note_off_c, 0, 76, 64
2, 103024, Note_on_c, 0, 56, 50
2, 103032, Note_on_c, 0, 78, 57
2, 103040, Note_off_c, 0, 52, 64
2, 103048, Note_off_c, 0, 80, 64
2, 103071, Note_on_c, 0, 76, 57
2, 103071, Control_c, 0, 64, 0
2, 103078, Note_off_c, 0, 59, 64
2, 103096, Note_off_c, 0, 56, 64
2, 103115, Note_on_c, 0, 80, 57
2, 103115, Control_c, 0, 64, 127
2, 103118, Note_off_c, 0, 64, 64
2, 103120, Note_off_c, 0, 76, 64
2, 103120, Note_on_c, 0, 51, 65
2, 103128, Note_off_c, 0, 78, 64
2, 103153, Note_on_c, 0, 83, 57
2, 103164, Note_off_c, 0, 80, 64
2, 103192, Note_on_c, 0, 64, 44
2, 103193, Note_on_c, 0, 88, 57
2, 103200, Note_on_c, 0, 59, 51
2, 103216, Note_off_c, 0, 83, 64
2, 103234, Note_on_c, 0, 92, 57
2, 103243, Control_c, 0, 64, 0
2, 103248, Note_off_c, 0, 88, 64
2, 103260, Control_c, 0, 64, 127
2, 103275, Note_on_c, 0, 90, 57
2, 103280, Note_on_c, 0, 56, 53
2, 103291, Note_off_c, 0, 92, 64
2, 103296, Note_off_c, 0, 51, 64
2, 103302, Note_on_c, 0, 88, 57
2, 103310, Note_off_c, 0, 59, 64
2, 103312, Control_c, 0, 64, 0
2, 103326, Note_off_c, 0, 90, 64
2, 103336, Note_off_c, 0, 64, 64
2, 103344, Note_off_c, 0, 88, 64
2, 103346, Note_on_c, 0, 83, 57
2, 103346, Control_c, 0, 64, 127
2, 103347, Note_off_c, 0, 56, 64
2, 103357, Note_on_c, 0, 49, 63
2, 103393, Note_on_c, 0, 80, 57
2, 103395, Note_off_c, 0, 83, 64
2, 103424, Note_on_c, 0, 64, 48
2, 103432, Note_on_c, 0, 78, 57
2, 103434, Note_on_c, 0, 59, 51
2, 103445, Note_off_c, 0, 80, 64
2, 103471, Note_on_c, 0, 76, 57
2, 103478, Note_off_c, 0, 78, 64
2, 103500, Note_off_c, 0, 76, 64
2, 103508, Note_on_c, 0, 71, 57
2, 103508, Note_on_c, 0, 56, 58
2, 103522, Note_off_c, 0, 59, 64
2, 103533, Note_off_c, 0, 49, 64
2, 103538, Note_off_c, 0, 71, 64
2, 103552, Note_on_c, 0, 68, 57
2, 103565, Control_c, 0, 64, 0
2, 103576, Note_off_c, 0, 64, 64
2, 103576, Note_on_c, 0, 47, 45
2, 103582, Note_on_c, 0, 66, 57
2, 103587, Note_off_c, 0, 56, 64
2, 103590, Note_off_c, 0, 68, 64
2, 103601, Control_c, 0, 64, 127
2, 103624, Note_on_c, 0, 64, 61
2, 103637, Note_off_c, 0, 66, 64
2, 103665, Note_on_c, 0, 59, 66
2, 103673, Note_off_c, 0, 64, 64
2, 103704, Note_on_c, 0, 68, 75
2, 103727, Note_off_c, 0, 59, 64
2, 103739, Note_on_c, 0, 66, 72
2, 103752, Note_off_c, 0, 47, 64
2, 103757, Note_off_c, 0, 68, 64
2, 103786, Note_on_c, 0, 64, 42
2, 103791, Note_off_c, 0, 66, 64
2, 103802, Control_c, 0, 64, 0
2, 103821, Note_on_c, 0, 45, 63
2, 103824, Note_off_c, 0, 64, 64
2, 103824, Note_on_c, 0, 61, 73
2, 103846, Control_c, 0, 64, 127
2, 103860, Note_off_c, 0, 61, 64
2, 103864, Note_on_c, 0, 64, 63
2, 103896, Note_on_c, 0, 66, 75
2, 103896, Note_on_c, 0, 61, 53
2, 103900, Note_off_c, 0, 64, 64
2, 103904, Note_on_c, 0, 64, 53
2, 103936, Note_on_c, 0, 69, 57
2, 103945, Note_off_c, 0, 66, 64
2, 103982, Note_on_c, 0, 73, 57
2, 103985, Note_off_c, 0, 61, 64
2, 103992, Note_on_c, 0, 54, 40
2, 103993, Note_off_c, 0, 64, 64
2, 103997, Note_off_c, 0, 45, 64
2, 104016, Note_on_c, 0, 76, 57
2, 104023, Note_off_c, 0, 69, 64
2, 104037, Note_off_c, 0, 73, 64
2, 104072, Note_on_c, 0, 42, 68
2, 104073, Note_off_c, 0, 76, 64
2, 104080, Note_on_c, 0, 78, 57
2, 104081, Note_off_c, 0, 54, 64
2, 104108, Note_on_c, 0, 81, 57
2, 104137, Note_off_c, 0, 78, 64
2, 104149, Note_on_c, 0, 85, 57
2, 104152, Note_on_c, 0, 64, 53
2, 104156, Note_on_c, 0, 61, 52
2, 104181, Note_on_c, 0, 88, 57
2, 104186, Note_off_c, 0, 81, 64
2, 104200, Note_off_c, 0, 85, 64
2, 104201, Control_c, 0, 64, 0
2, 104212, Note_on_c, 0, 90, 57
2, 104214, Note_on_c, 0, 54, 63
2, 104240, Control_c, 0, 64, 127
2, 104243, Note_off_c, 0, 64, 64
2, 104245, Note_off_c, 0, 61, 64
2, 104247, Note_off_c, 0, 88, 64
2, 104248, Note_off_c, 0, 42, 64
2, 104252, Note_on_c, 0, 93, 57
2, 104256, Note_off_c, 0, 90, 64
2, 104289, Note_on_c, 0, 47, 69
2, 104296, Note_on_c, 0, 92, 57
2, 104303, Note_off_c, 0, 54, 64
2, 104326, Note_off_c, 0, 93, 64
2, 104329, Note_on_c, 0, 90, 57
2, 104351, Note_off_c, 0, 92, 64
2, 104367, Note_on_c, 0, 87, 57
2, 104368, Note_on_c, 0, 59, 45
2, 104372, Note_on_c, 0, 63, 53
2, 104384, Note_off_c, 0, 90, 64
2, 104401, Note_on_c, 0, 81, 57
2, 104403, Note_off_c, 0, 87, 64
2, 104417, Control_c, 0, 64, 0
2, 104440, Note_off_c, 0, 81, 64
2, 104441, Note_on_c, 0, 54, 54
2, 104448, Note_on_c, 0, 80, 57
2, 104452, Control_c, 0, 64, 127
2, 104455, Note_off_c, 0, 59, 64
2, 104465, Note_off_c, 0, 47, 64
2, 104482, Note_on_c, 0, 78, 57
2, 104496, Note_off_c, 0, 80, 64
2, 104498, Note_off_c, 0, 54, 64
2, 104517, Note_on_c, 0, 75, 57
2, 104521, Note_on_c, 0, 56, 37
2, 104533, Note_off_c, 0, 78, 64
2, 104554, Note_on_c, 0, 71, 57
2, 104562, Note_off_c, 0, 75, 64
2, 104578, Note_off_c, 0, 56, 64
2, 104594, Note_on_c, 0, 54, 54
2, 104598, Note_on_c, 0, 75, 57
2, 104622, Note_off_c, 0, 71, 64
2, 104634, Note_on_c, 0, 73, 57
2, 104655, Note_off_c, 0, 54, 64
2, 104655, Note_off_c, 0, 75, 64
2, 104667, Note_on_c, 0, 56, 26
2, 104674, Note_on_c, 0, 71, 57
2, 104680, Note_off_c, 0, 63, 64
2, 104695, Note_off_c, 0, 73, 64
2, 104711, Note_on_c, 0, 69, 57
2, 104714, Control_c, 0, 64, 0
2, 104719, Note_off_c, 0, 71, 64
2, 104742, Note_off_c, 0, 56, 64
2, 104751, Note_on_c, 0, 52, 61
2, 104757, Note_on_c, 0, 68, 57
2, 104762, Note_off_c, 0, 69, 64
2, 104764, Control_c, 0, 64, 127
2, 104801, Note_on_c, 0, 71, 57
2, 104805, Note_off_c, 0, 68, 64
2, 104848, Note_on_c, 0, 64, 40
2, 104850, Note_on_c, 0, 59, 33
2, 104852, Note_on_c, 0, 76, 57
2, 104874, Note_off_c, 0, 71, 64
2, 104892, Note_on_c, 0, 80, 57
2, 104907, Note_off_c, 0, 76, 64
2, 104924, Note_on_c, 0, 78, 57
2, 104926, Note_on_c, 0, 56, 56
2, 104927, Note_off_c, 0, 52, 64
2, 104938, Note_off_c, 0, 80, 64
2, 104953, Note_on_c, 0, 76, 57
2, 104960, Note_off_c, 0, 59, 64
2, 104986, Note_off_c, 0, 56, 64
2, 104987, Note_on_c, 0, 47, 58
2, 104996, Note_on_c, 0, 80, 57
2, 105006, Note_off_c, 0, 64, 64
2, 105007, Note_off_c, 0, 76, 64
2, 105015, Note_off_c, 0, 78, 64
2, 105044, Note_on_c, 0, 83, 57
2, 105045, Note_off_c, 0, 80, 64
2, 105075, Note_on_c, 0, 88, 57
2, 105080, Note_on_c, 0, 64, 60
2, 105080, Note_on_c, 0, 59, 45
2, 105096, Note_off_c, 0, 83, 64
2, 105110, Note_on_c, 0, 92, 57
2, 105128, Note_off_c, 0, 88, 64
2, 105146, Note_on_c, 0, 90, 57
2, 105163, Note_off_c, 0, 47, 64
2, 105164, Note_off_c, 0, 92, 64
2, 105174, Note_on_c, 0, 56, 56
2, 105177, Note_on_c, 0, 88, 57
2, 105198, Note_off_c, 0, 90, 64
2, 105208, Note_on_c, 0, 57, 79
2, 105208, Note_on_c, 0, 45, 95
2, 105211, Control_c, 0, 64, 0
2, 105222, Note_off_c, 0, 88, 64
2, 105222, Note_on_c, 0, 84, 57
2, 105234, Note_off_c, 0, 56, 64
2, 105238, Note_off_c, 0, 59, 64
2, 105238, Note_off_c, 0, 64, 64
2, 105258, Control_c, 0, 64, 127
2, 105265, Note_off_c, 0, 45, 64
2, 105265, Note_off_c, 0, 57, 64
2, 105266, Note_on_c, 0, 81, 57
2, 105274, Note_off_c, 0, 84, 64
2, 105296, Note_on_c, 0, 60, 95
2, 105297, Note_on_c, 0, 48, 51
2, 105310, Note_on_c, 0, 78, 57
2, 105336, Note_off_c, 0, 81, 64
2, 105342, Note_on_c, 0, 76, 57
2, 105368, Note_off_c, 0, 78, 64
2, 105377, Note_on_c, 0, 72, 57
2, 105390, Note_off_c, 0, 76, 64
2, 105411, Note_on_c, 0, 69, 57
2, 105430, Note_off_c, 0, 72, 64
2, 105441, Note_on_c, 0, 66, 57
2, 105472, Note_off_c, 0, 60, 64
2, 105473, Note_off_c, 0, 48, 64
2, 105473, Note_on_c, 0, 64, 57
2, 105483, Note_off_c, 0, 69, 64
2, 105499, Note_off_c, 0, 66, 64
2, 105506, Note_on_c, 0, 60, 57
2, 105511, Note_off_c, 0, 64, 64
2, 105555, Note_on_c, 0, 57, 57
2, 105567, Note_off_c, 0, 60, 64
2, 105591, Note_on_c, 0, 54, 57
2, 105624, Note_off_c, 0, 57, 64
2, 105648, Note_on_c, 0, 52, 57
2, 105652, Note_off_c, 0, 54, 64
2, 105695, Control_c, 0, 64, 0
2, 105696, Note_off_c, 0, 52, 64
2, 105696, Note_on_c, 0, 56, 65
2, 105704, Note_on_c, 0, 40, 75
2, 105737, Control_c, 0, 64, 127
2, 105744, Note_on_c, 0, 59, 65
2, 105757, Note_off_c, 0, 56, 64
2, 105784, Note_on_c, 0, 52, 46
2, 105792, Note_on_c, 0, 64, 65
2, 105810, Note_off_c, 0, 59, 64
2, 105837, Note_off_c, 0, 64, 64
2, 105840, Note_on_c, 0, 68, 65
2, 105880, Note_off_c, 0, 40, 64
2, 105880, Note_on_c, 0, 47, 39
2, 105888, Note_on_c, 0, 66, 65
2, 105897, Note_off_c, 0, 68, 64
2, 105927, Note_on_c, 0, 64, 65
2, 105937, Note_off_c, 0, 47, 64
2, 105942, Note_off_c, 0, 52, 64
2, 105960, Note_on_c, 0, 35, 72
2, 105973, Note_on_c, 0, 68, 65
2, 105984, Note_off_c, 0, 64, 64
2, 105985, Control_c, 0, 64, 0
2, 105993, Note_off_c, 0, 66, 64
2, 106016, Note_on_c, 0, 71, 65
2, 106022, Control_c, 0, 64, 127
2, 106024, Note_off_c, 0, 68, 64
2, 106053, Note_on_c, 0, 76, 65
2, 106056, Note_on_c, 0, 52, 75
2, 106080, Note_off_c, 0, 71, 64
2, 106094, Note_on_c, 0, 80, 65
2, 106110, Note_off_c, 0, 76, 64
2, 106112, Note_on_c, 0, 47, 78
2, 106124, Note_on_c, 0, 78, 65
2, 106136, Note_off_c, 0, 35, 64
2, 106154, Note_on_c, 0, 76, 65
2, 106160, Note_off_c, 0, 80, 64
2, 106169, Note_off_c, 0, 47, 64
2, 106169, Control_c, 0, 64, 0
2, 106179, Note_off_c, 0, 78, 64
2, 106194, Note_on_c, 0, 72, 65
2, 106194, Note_on_c, 0, 45, 94
2, 106200, Note_on_c, 0, 33, 95
2, 106207, Note_off_c, 0, 76, 64
2, 106214, Note_off_c, 0, 52, 64
2, 106216, Control_c, 0, 64, 127
2, 106229, Note_off_c, 0, 72, 64
2, 106250, Note_on_c, 0, 69, 65
2, 106251, Note_off_c, 0, 45, 64
2, 106257, Note_off_c, 0, 33, 64
2, 106280, Note_on_c, 0, 36, 77
2, 106283, Note_on_c, 0, 48, 95
2, 106289, Note_on_c, 0, 66, 65
2, 106317, Note_on_c, 0, 64, 65
2, 106323, Note_off_c, 0, 69, 64
2, 106356, Note_on_c, 0, 60, 65
2, 106362, Note_off_c, 0, 66, 64
2, 106374, Note_off_c, 0, 64, 64
2, 106394, Note_on_c, 0, 57, 65
2, 106415, Note_off_c, 0, 60, 64
2, 106418, Note_on_c, 0, 54, 65
2, 106452, Note_on_c, 0, 52, 65
2, 106456, Note_off_c, 0, 36, 64
2, 106459, Note_off_c, 0, 48, 64
2, 106465, Note_off_c, 0, 57, 64
2, 106476, Note_off_c, 0, 54, 64
2, 106494, Note_on_c, 0, 48, 65
2, 106502, Note_off_c, 0, 52, 64
2, 106539, Note_off_c, 0, 48, 64
2, 106546, Note_on_c, 0, 45, 65
2, 106576, Note_on_c, 0, 42, 65
2, 106632, Note_on_c, 0, 40, 65
2, 106644, Note_off_c, 0, 45, 64
2, 106646, Note_off_c, 0, 42, 64
2, 106676, Note_off_c, 0, 40, 64
2, 106697, Control_c, 0, 64, 0
2, 106730, Note_on_c, 0, 28, 95
2, 106752, Control_c, 0, 64, 127
2, 106842, Note_on_c, 0, 47, 69
2, 106878, Note_on_c, 0, 52, 71
2, 106917, Note_on_c, 0, 57, 72
2, 106931, Note_off_c, 0, 47, 64
2, 106949, Note_on_c, 0, 56, 74
2, 106967, Note_off_c, 0, 52, 64
2, 106994, Note_on_c, 0, 59, 63
2, 106996, Note_off_c, 0, 57, 64
2, 107030, Note_on_c, 0, 64, 77
2, 107038, Note_off_c, 0, 56, 64
2, 107060, Note_on_c, 0, 69, 78
2, 107083, Note_off_c, 0, 59, 64
2, 107104, Note_on_c, 0, 68, 80
2, 107119, Note_off_c, 0, 64, 64
2, 107130, Note_off_c, 0, 69, 64
2, 107158, Note_on_c, 0, 71, 69
2, 107193, Note_off_c, 0, 68, 64
2, 107196, Note_on_c, 0, 76, 84
2, 107204, Control_c, 0, 64, 0
2, 107229, Note_on_c, 0, 52, 85
2, 107241, Note_on_c, 0, 59, 85
2, 107246, Control_c, 0, 64, 127
2, 107247, Note_off_c, 0, 71, 64
2, 107255, Note_on_c, 0, 81, 86
2, 107258, Note_on_c, 0, 76, 86
2, 107262, Note_on_c, 0, 68, 87
2, 107285, Note_off_c, 0, 76, 64
2, 107289, Note_on_c, 0, 80, 87
2, 107296, Note_off_c, 0, 76, 64
2, 107322, Note_on_c, 0, 83, 75
2, 107334, Note_off_c, 0, 81, 64
2, 107358, Note_on_c, 0, 88, 90
2, 107378, Note_off_c, 0, 80, 64
2, 107409, Note_on_c, 0, 93, 95
2, 107411, Note_off_c, 0, 83, 64
2, 107422, Note_off_c, 0, 28, 64
2, 107447, Note_off_c, 0, 88, 64
2, 107448, Note_on_c, 0, 92, 94
2, 107477, Note_on_c, 0, 88, 95
2, 107488, Note_off_c, 0, 93, 64
2, 107512, Note_on_c, 0, 83, 95
2, 107537, Note_off_c, 0, 92, 64
2, 107547, Note_on_c, 0, 81, 66
2, 107566, Note_off_c, 0, 88, 64
2, 107584, Note_on_c, 0, 80, 78
2, 107601, Note_off_c, 0, 83, 64
2, 107607, Note_off_c, 0, 59, 64
2, 107612, Note_off_c, 0, 68, 64
2, 107619, Note_off_c, 0, 52, 64
2, 107626, Note_off_c, 0, 81, 64
2, 107632, Note_on_c, 0, 76, 78
2, 107673, Note_off_c, 0, 80, 64
2, 107673, Note_on_c, 0, 71, 78
2, 107717, Note_on_c, 0, 69, 66
2, 107721, Note_off_c, 0, 76, 64
2, 107760, Note_on_c, 0, 68, 78
2, 107762, Note_off_c, 0, 71, 64
2, 107792, Note_on_c, 0, 64, 78
2, 107796, Note_off_c, 0, 69, 64
2, 107836, Note_on_c, 0, 59, 78
2, 107849, Note_off_c, 0, 68, 64
2, 107872, Note_on_c, 0, 57, 66
2, 107881, Note_off_c, 0, 64, 64
2, 107912, Note_on_c, 0, 56, 78
2, 107925, Note_off_c, 0, 59, 64
2, 107948, Note_on_c, 0, 52, 78
2, 107951, Note_off_c, 0, 57, 64
2, 107990, Note_on_c, 0, 47, 78
2, 108001, Note_off_c, 0, 56, 64
2, 108031, Note_on_c, 0, 45, 66
2, 108037, Note_off_c, 0, 52, 64
2, 108066, Note_on_c, 0, 44, 78
2, 108079, Note_off_c, 0, 47, 64
2, 108103, Note_on_c, 0, 40, 78
2, 108110, Note_off_c, 0, 45, 64
2, 108146, Note_on_c, 0, 35, 78
2, 108155, Note_off_c, 0, 44, 64
2, 108192, Note_off_c, 0, 40, 64
2, 108199, Control_c, 0, 64, 0
2, 108211, Note_on_c, 0, 28, 95
2, 108235, Note_off_c, 0, 35, 64
2, 108654, Note_off_c, 0, 28, 64
2, 109056, Note_on_c, 0, 64, 95
2, 109056, Note_on_c, 0, 61, 91
2, 109057, Note_on_c, 0, 52, 93
2, 109063, Note_on_c, 0, 33, 90
2, 109068, Note_on_c, 0, 45, 91
2, 109078, Control_c, 0, 64, 127
2, 109423, Note_off_c, 0, 64, 64
2, 109492, Note_off_c, 0, 52, 64
2, 109561, Note_on_c, 0, 66, 89
2, 109561, Note_on_c, 0, 54, 89
2, 109565, Note_on_c, 0, 38, 86
2, 109583, Note_off_c, 0, 33, 64
2, 109650, Control_c, 0, 64, 0
2, 110149, Note_on_c, 0, 59, 70
2, 110160, Note_off_c, 0, 61, 64
2, 110179, Note_off_c, 0, 66, 64
2, 110285, Note_on_c, 0, 61, 64
2, 110415, Note_on_c, 0, 64, 61
2, 110462, Note_off_c, 0, 61, 64
2, 110553, Note_on_c, 0, 62, 62
2, 110558, Note_off_c, 0, 64, 64
2, 110619, Note_off_c, 0, 59, 64
2, 110877, Note_off_c, 0, 54, 64
2, 110931, Note_on_c, 0, 61, 61
2, 110933, Note_off_c, 0, 62, 64
2, 110945, Note_off_c, 0, 38, 64
2, 110955, Note_off_c, 0, 45, 64
2, 110976, Note_off_c, 0, 61, 64
2, 111013, Note_on_c, 0, 33, 51
2, 111017, Note_on_c, 0, 61, 63
2, 111017, Note_on_c, 0, 52, 49
2, 111017, Note_on_c, 0, 45, 61
2, 111024, Note_on_c, 0, 64, 58
2, 111080, Control_c, 0, 64, 127
2, 111343, Note_off_c, 0, 64, 64
2, 111452, Note_off_c, 0, 52, 64
2, 111580, Note_on_c, 0, 66, 72
2, 111583, Note_on_c, 0, 54, 64
2, 111588, Note_on_c, 0, 38, 64
2, 111609, Note_off_c, 0, 33, 64
2, 111670, Control_c, 0, 64, 0
2, 112135, Note_on_c, 0, 59, 64
2, 112156, Note_off_c, 0, 61, 64
2, 112263, Note_on_c, 0, 61, 55
2, 112269, Note_off_c, 0, 66, 64
2, 112385, Note_on_c, 0, 64, 69
2, 112429, Note_off_c, 0, 61, 64
2, 112502, Note_off_c, 0, 59, 64
2, 112510, Note_on_c, 0, 62, 70
2, 112521, Note_off_c, 0, 64, 64
2, 112527, Note_off_c, 0, 54, 64
2, 112745, Note_on_c, 0, 61, 56
2, 112749, Note_off_c, 0, 62, 64
2, 112784, Note_off_c, 0, 61, 64
2, 112820, Note_on_c, 0, 61, 72
2, 112875, Note_on_c, 0, 54, 45
2, 112882, Note_on_c, 0, 69, 71
2, 113056, Note_on_c, 0, 66, 69
2, 113077, Note_off_c, 0, 69, 64
2, 113148, Control_c, 0, 64, 127
2, 113214, Note_on_c, 0, 62, 65
2, 113229, Note_off_c, 0, 54, 64
2, 113237, Note_off_c, 0, 66, 64
2, 113245, Note_off_c, 0, 38, 64
2, 113267, Note_off_c, 0, 61, 64
2, 113271, Note_off_c, 0, 62, 64
2, 113418, Note_on_c, 0, 64, 64
2, 113421, Note_on_c, 0, 61, 64
2, 113421, Note_on_c, 0, 56, 57
2, 113427, Note_on_c, 0, 40, 58
2, 113430, Note_on_c, 0, 52, 58
2, 113445, Control_c, 0, 64, 0
2, 113459, Note_off_c, 0, 45, 64
2, 113837, Note_on_c, 0, 59, 49
2, 113841, Note_on_c, 0, 50, 54
2, 113844, Note_off_c, 0, 61, 64
2, 113864, Note_off_c, 0, 56, 64
2, 113878, Note_off_c, 0, 52, 64
2, 113978, Note_off_c, 0, 40, 64
2, 113981, Control_c, 0, 64, 127
2, 114086, Control_c, 0, 64, 0
2, 114179, Note_on_c, 0, 49, 45
2, 114180, Note_on_c, 0, 57, 51
2, 114186, Note_on_c, 0, 45, 38
2, 114197, Note_off_c, 0, 59, 64
2, 114221, Note_off_c, 0, 50, 64
2, 114226, Note_off_c, 0, 64, 64
2, 114349, Note_on_c, 0, 52, 35
2, 114350, Note_on_c, 0, 61, 45
2, 114374, Note_off_c, 0, 57, 64
2, 114378, Note_off_c, 0, 49, 64
2, 114667, Control_c, 0, 64, 127
2, 114971, Note_off_c, 0, 61, 64
2, 115294, Note_on_c, 0, 73, 65
2, 115301, Note_off_c, 0, 45, 64
2, 115328, Note_off_c, 0, 52, 64
2, 115341, Control_c, 0, 64, 0
2, 115636, Note_on_c, 0, 58, 31
2, 115649, Note_on_c, 0, 52, 31
2, 115656, Control_c, 0, 64, 127
2, 115665, Note_on_c, 0, 55, 19
2, 115751, Note_off_c, 0, 73, 64
2, 115754, Note_off_c, 0, 52, 64
2, 115763, Note_on_c, 0, 71, 62
2, 115766, Note_off_c, 0, 58, 64
2, 115771, Note_off_c, 0, 55, 64
2, 115789, Note_on_c, 0, 73, 62
2, 115794, Note_off_c, 0, 71, 64
2, 115802, Control_c, 0, 64, 0
2, 115824, Note_on_c, 0, 50, 16
2, 115827, Note_on_c, 0, 71, 61
2, 115832, Note_on_c, 0, 59, 32
2, 115838, Note_off_c, 0, 73, 64
2, 115850, Note_on_c, 0, 54, 11
2, 115873, Control_c, 0, 64, 127
2, 115919, Note_off_c, 0, 54, 64
2, 115924, Note_off_c, 0, 59, 64
2, 115974, Note_off_c, 0, 50, 64
2, 116005, Note_on_c, 0, 69, 66
2, 116007, Note_off_c, 0, 71, 64
2, 116035, Note_on_c, 0, 62, 31
2, 116043, Note_on_c, 0, 57, 26
2, 116050, Note_on_c, 0, 71, 66
2, 116052, Note_on_c, 0, 54, 23
2, 116066, Note_off_c, 0, 69, 64
2, 116104, Note_off_c, 0, 57, 64
2, 116114, Note_off_c, 0, 62, 64
2, 116126, Note_off_c, 0, 54, 64
2, 116164, Control_c, 0, 64, 0
2, 116190, Note_on_c, 0, 61, 31
2, 116195, Note_on_c, 0, 73, 66
2, 116195, Note_on_c, 0, 53, 26
2, 116209, Note_off_c, 0, 71, 64
2, 116212, Note_on_c, 0, 56, 13
2, 116226, Control_c, 0, 64, 127
2, 116287, Note_off_c, 0, 61, 64
2, 116309, Note_off_c, 0, 53, 64
2, 116316, Note_off_c, 0, 56, 64
2, 116370, Note_off_c, 0, 73, 64
2, 116376, Note_on_c, 0, 74, 52
2, 116416, Note_on_c, 0, 73, 52
2, 116430, Note_on_c, 0, 52, 31
2, 116436, Note_off_c, 0, 74, 64
2, 116438, Note_on_c, 0, 58, 26
2, 116439, Note_on_c, 0, 55, 28
2, 116498, Note_off_c, 0, 55, 64
2, 116506, Note_off_c, 0, 52, 64
2, 116512, Note_off_c, 0, 58, 64
2, 116535, Note_off_c, 0, 73, 64
2, 116539, Note_on_c, 0, 71, 57
2, 116556, Control_c, 0, 64, 0
2, 116568, Note_on_c, 0, 73, 57
2, 116574, Note_off_c, 0, 71, 64
2, 116583, Note_on_c, 0, 50, 26
2, 116596, Note_on_c, 0, 59, 28
2, 116596, Note_on_c, 0, 54, 20
2, 116603, Note_on_c, 0, 71, 57
2, 116615, Note_off_c, 0, 73, 64
2, 116622, Control_c, 0, 64, 127
2, 116690, Note_off_c, 0, 54, 64
2, 116701, Note_off_c, 0, 59, 64
2, 116746, Note_off_c, 0, 50, 64
2, 116766, Note_on_c, 0, 69, 58
2, 116772, Note_off_c, 0, 71, 64
2, 116816, Note_on_c, 0, 54, 28
2, 116824, Note_on_c, 0, 62, 24
2, 116824, Note_on_c, 0, 57, 26
2, 116839, Note_on_c, 0, 71, 52
2, 116847, Note_off_c, 0, 69, 64
2, 116926, Note_off_c, 0, 54, 64
2, 116934, Note_off_c, 0, 57, 64
2, 116934, Note_off_c, 0, 62, 64
2, 116972, Note_on_c, 0, 49, 58
2, 116991, Control_c, 0, 64, 0
2, 117028, Note_on_c, 0, 56, 58
2, 117049, Note_off_c, 0, 49, 64
2, 117073, Control_c, 0, 64, 127
2, 117087, Note_on_c, 0, 73, 49
2, 117090, Note_off_c, 0, 71, 64
2, 117094, Note_on_c, 0, 65, 30
2, 117159, Note_off_c, 0, 56, 64
2, 117163, Note_off_c, 0, 65, 64
2, 117194, Note_on_c, 0, 61, 56
2, 117208, Note_off_c, 0, 73, 64
2, 117267, Note_on_c, 0, 73, 54
2, 117312, Note_off_c, 0, 61, 64
2, 117344, Note_on_c, 0, 68, 53
2, 117351, Note_off_c, 0, 73, 64
2, 117391, Note_on_c, 0, 73, 52
2, 117404, Note_off_c, 0, 68, 64
2, 117437, Note_off_c, 0, 73, 64
2, 117458, Note_on_c, 0, 68, 51
2, 117499, Note_on_c, 0, 37, 56
2, 117505, Note_on_c, 0, 80, 50
2, 117540, Note_off_c, 0, 68, 64
2, 117575, Note_off_c, 0, 80, 64
2, 117575, Note_on_c, 0, 73, 49
2, 117624, Note_on_c, 0, 80, 48
2, 117632, Note_off_c, 0, 37, 64
2, 117636, Note_off_c, 0, 73, 64
2, 117670, Note_off_c, 0, 80, 64
2, 117684, Note_on_c, 0, 73, 47
2, 117745, Note_on_c, 0, 85, 46
2, 117785, Note_off_c, 0, 73, 64
2, 117803, Note_off_c, 0, 85, 64
2, 117818, Note_on_c, 0, 80, 42
2, 117882, Note_on_c, 0, 85, 44
2, 117904, Note_off_c, 0, 80, 64
2, 117929, Note_off_c, 0, 85, 64
2, 117946, Note_on_c, 0, 80, 42
2, 118009, Note_on_c, 0, 92, 42
2, 118032, Note_off_c, 0, 80, 64
2, 118093, Note_off_c, 0, 92, 64
2, 118100, Note_on_c, 0, 85, 40
2, 118187, Note_on_c, 0, 92, 39
2, 118192, Note_off_c, 0, 85, 64
2, 118251, Note_off_c, 0, 92, 64
2, 118283, Note_on_c, 0, 85, 37
2, 118396, Note_on_c, 0, 97, 36
2, 118433, Note_off_c, 0, 85, 64
2, 118464, Note_off_c, 0, 97, 64
2, 118736, Control_c, 0, 64, 0
2, 119319, Note_on_c, 0, 33, 46
2, 119331, Note_on_c, 0, 61, 49
2, 119331, Note_on_c, 0, 45, 40
2, 119337, Note_on_c, 0, 64, 51
2, 119337, Note_on_c, 0, 52, 48
2, 119361, Control_c, 0, 64, 127
2, 119678, Note_off_c, 0, 64, 64
2, 119750, Note_off_c, 0, 52, 64
2, 119880, Note_on_c, 0, 54, 24
2, 119882, Note_on_c, 0, 66, 33
2, 119888, Note_on_c, 0, 38, 42
2, 119909, Note_off_c, 0, 33, 64
2, 119932, Control_c, 0, 64, 0
2, 120484, Note_on_c, 0, 59, 40
2, 120497, Note_off_c, 0, 61, 64
2, 120516, Note_off_c, 0, 66, 64
2, 120621, Note_on_c, 0, 61, 43
2, 120741, Note_on_c, 0, 64, 49
2, 120763, Note_off_c, 0, 59, 64
2, 120774, Note_off_c, 0, 61, 64
2, 120871, Note_on_c, 0, 62, 27
2, 120876, Note_off_c, 0, 64, 64
2, 121009, Control_c, 0, 64, 127
2, 121208, Note_on_c, 0, 61, 48
2, 121216, Note_off_c, 0, 62, 64
2, 121218, Note_off_c, 0, 54, 64
2, 121231, Note_off_c, 0, 45, 64
2, 121236, Note_off_c, 0, 38, 64
2, 121258, Control_c, 0, 64, 0
2, 121281, Note_off_c, 0, 61, 64
2, 121301, Note_on_c, 0, 64, 36
2, 121303, Note_on_c, 0, 61, 36
2, 121308, Note_on_c, 0, 33, 26
2, 121309, Note_on_c, 0, 52, 36
2, 121313, Note_on_c, 0, 45, 30
2, 121376, Control_c, 0, 64, 127
2, 121718, Note_off_c, 0, 64, 64
2, 121798, Note_off_c, 0, 52, 64
2, 121878, Note_on_c, 0, 54, 31
2, 121884, Note_on_c, 0, 38, 33
2, 121886, Note_on_c, 0, 66, 38
2, 121907, Note_off_c, 0, 33, 64
2, 121957, Control_c, 0, 64, 0
2, 122466, Note_on_c, 0, 59, 40
2, 122498, Note_off_c, 0, 61, 64
2, 122585, Note_on_c, 0, 61, 45
2, 122605, Note_off_c, 0, 66, 64
2, 122640, Note_off_c, 0, 59, 64
2, 122715, Note_on_c, 0, 64, 28
2, 122840, Note_off_c, 0, 64, 64
2, 122844, Note_on_c, 0, 62, 26
2, 122866, Note_off_c, 0, 61, 64
2, 123041, Note_off_c, 0, 62, 64
2, 123116, Note_on_c, 0, 61, 36
2, 123169, Note_off_c, 0, 61, 64
2, 123202, Note_on_c, 0, 61, 52
2, 123260, Note_on_c, 0, 69, 60
2, 123344, Note_on_c, 0, 68, 53
2, 123349, Note_off_c, 0, 69, 64
2, 123421, Note_on_c, 0, 71, 67
2, 123434, Note_off_c, 0, 68, 64
2, 123508, Note_on_c, 0, 69, 59
2, 123517, Note_off_c, 0, 71, 64
2, 123600, Note_on_c, 0, 66, 54
2, 123629, Note_off_c, 0, 61, 64
2, 123632, Control_c, 0, 64, 127
2, 123641, Note_off_c, 0, 69, 64
2, 123676, Note_off_c, 0, 38, 64
2, 123692, Note_off_c, 0, 54, 64
2, 123705, Note_on_c, 0, 62, 57
2, 123713, Note_off_c, 0, 66, 64
2, 123774, Note_off_c, 0, 62, 64
2, 123846, Note_on_c, 0, 64, 64
2, 123852, Note_off_c, 0, 45, 64
2, 123852, Note_on_c, 0, 61, 43
2, 123858, Note_on_c, 0, 56, 37
2, 123866, Note_on_c, 0, 52, 56
2, 123872, Note_on_c, 0, 40, 52
2, 123904, Control_c, 0, 64, 0
2, 124025, Control_c, 0, 64, 127
2, 124314, Note_on_c, 0, 59, 49
2, 124329, Control_c, 0, 64, 0
2, 124334, Note_on_c, 0, 50, 48
2, 124365, Note_off_c, 0, 56, 64
2, 124367, Note_off_c, 0, 61, 64
2, 124386, Control_c, 0, 64, 127
2, 124412, Note_off_c, 0, 52, 64
2, 124479, Note_off_c, 0, 40, 64
2, 124655, Note_on_c, 0, 57, 58
2, 124661, Note_on_c, 0, 49, 50
2, 124668, Note_off_c, 0, 59, 64
2, 124677, Note_on_c, 0, 45, 35
2, 124690, Note_off_c, 0, 50, 64
2, 124699, Control_c, 0, 64, 0
2, 124705, Note_off_c, 0, 64, 64
2, 124844, Note_on_c, 0, 61, 52
2, 124850, Note_on_c, 0, 52, 37
2, 124871, Note_off_c, 0, 49, 64
2, 124877, Note_off_c, 0, 57, 64
2, 125744, Note_off_c, 0, 61, 64
2, 125750, Note_off_c, 0, 52, 64
2, 125762, Note_off_c, 0, 45, 64
2, 126127, Note_on_c, 0, 73, 56
2, 126588, Control_c, 0, 64, 127
2, 126747, Control_c, 0, 64, 0
2, 126942, Control_c, 0, 64, 127
2, 127067, Note_on_c, 0, 75, 45
2, 127095, Note_off_c, 0, 73, 64
2, 127120, Note_on_c, 0, 78, 45
2, 127140, Note_off_c, 0, 75, 64
2, 127171, Note_on_c, 0, 76, 45
2, 127179, Note_off_c, 0, 78, 64
2, 127225, Note_on_c, 0, 73, 45
2, 127242, Note_off_c, 0, 76, 64
2, 127283, Note_on_c, 0, 69, 45
2, 127286, Note_off_c, 0, 73, 64
2, 127320, Note_off_c, 0, 69, 64
2, 127329, Note_on_c, 0, 68, 45
2, 127367, Note_off_c, 0, 68, 64
2, 127381, Note_on_c, 0, 68, 45
2, 127428, Note_on_c, 0, 80, 63
2, 127435, Note_off_c, 0, 68, 64
2, 127481, Control_c, 0, 64, 0
2, 127700, Note_on_c, 0, 65, 38
2, 127703, Control_c, 0, 64, 127
2, 127709, Note_on_c, 0, 59, 33
2, 127717, Note_on_c, 0, 62, 27
2, 127770, Note_off_c, 0, 59, 64
2, 127776, Note_off_c, 0, 65, 64
2, 127789, Note_off_c, 0, 62, 64
2, 127813, Note_off_c, 0, 80, 64
2, 127827, Note_on_c, 0, 78, 51
2, 127859, Note_on_c, 0, 80, 51
2, 127860, Note_off_c, 0, 78, 64
2, 127871, Control_c, 0, 64, 0
2, 127876, Note_on_c, 0, 57, 39
2, 127885, Note_on_c, 0, 66, 39
2, 127890, Note_on_c, 0, 78, 51
2, 127893, Note_on_c, 0, 61, 41
2, 127908, Note_off_c, 0, 80, 64
2, 127943, Control_c, 0, 64, 127
2, 128005, Note_off_c, 0, 61, 64
2, 128018, Note_off_c, 0, 66, 64
2, 128063, Note_on_c, 0, 76, 51
2, 128068, Note_off_c, 0, 78, 64
2, 128068, Note_off_c, 0, 57, 64
2, 128101, Control_c, 0, 64, 0
2, 128117, Note_on_c, 0, 78, 48
2, 128124, Note_on_c, 0, 69, 41
2, 128125, Note_on_c, 0, 64, 42
2, 128133, Note_on_c, 0, 61, 26
2, 128140, Note_off_c, 0, 76, 64
2, 128163, Control_c, 0, 64, 127
2, 128192, Note_off_c, 0, 64, 64
2, 128192, Note_off_c, 0, 69, 64
2, 128222, Note_off_c, 0, 61, 64
2, 128255, Control_c, 0, 64, 0
2, 128271, Note_on_c, 0, 80, 58
2, 128278, Note_on_c, 0, 68, 42
2, 128282, Note_on_c, 0, 60, 36
2, 128286, Note_off_c, 0, 78, 64
2, 128294, Note_on_c, 0, 63, 24
2, 128327, Control_c, 0, 64, 127
2, 128381, Note_off_c, 0, 68, 64
2, 128384, Note_off_c, 0, 63, 64
2, 128384, Note_off_c, 0, 60, 64
2, 128464, Note_off_c, 0, 80, 64
2, 128474, Note_on_c, 0, 81, 44
2, 128525, Note_on_c, 0, 59, 27
2, 128526, Note_on_c, 0, 80, 69
2, 128531, Note_on_c, 0, 65, 32
2, 128531, Note_on_c, 0, 62, 30
2, 128540, Note_off_c, 0, 81, 64
2, 128584, Note_off_c, 0, 65, 64
2, 128587, Note_off_c, 0, 59, 64
2, 128589, Note_off_c, 0, 62, 64
2, 128653, Note_off_c, 0, 80, 64
2, 128660, Note_on_c, 0, 78, 50
2, 128665, Control_c, 0, 64, 0
2, 128693, Note_on_c, 0, 80, 49
2, 128699, Note_off_c, 0, 78, 64
2, 128704, Note_on_c, 0, 57, 40
2, 128707, Note_on_c, 0, 66, 33
2, 128713, Note_on_c, 0, 61, 42
2, 128731, Note_on_c, 0, 78, 49
2, 128739, Control_c, 0, 64, 127
2, 128750, Note_off_c, 0, 80, 64
2, 128816, Note_off_c, 0, 61, 64
2, 128820, Note_off_c, 0, 57, 64
2, 128829, Note_off_c, 0, 66, 64
2, 128909, Note_on_c, 0, 76, 51
2, 128914, Note_off_c, 0, 78, 64
2, 128975, Note_on_c, 0, 69, 36
2, 128980, Note_on_c, 0, 78, 51
2, 128980, Note_on_c, 0, 61, 39
2, 128984, Note_on_c, 0, 64, 30
2, 128990, Note_off_c, 0, 76, 64
2, 129027, Note_off_c, 0, 61, 64
2, 129037, Note_off_c, 0, 64, 64
2, 129042, Note_off_c, 0, 69, 64
2, 129198, Note_on_c, 0, 56, 42
2, 129204, Control_c, 0, 64, 0
2, 129216, Note_on_c, 0, 63, 38
2, 129222, Note_on_c, 0, 80, 49
2, 129229, Note_on_c, 0, 72, 41
2, 129243, Note_off_c, 0, 78, 64
2, 129276, Control_c, 0, 64, 127
2, 129341, Note_off_c, 0, 72, 64
2, 129363, Note_off_c, 0, 56, 64
2, 129366, Note_off_c, 0, 63, 64
2, 129644, Control_c, 0, 64, 0
2, 129661, Note_on_c, 0, 44, 48
2, 129715, Control_c, 0, 64, 127
2, 129896, Note_on_c, 0, 68, 44
2, 129909, Note_off_c, 0, 80, 64
2, 129977, Note_on_c, 0, 80, 40
2, 130022, Note_off_c, 0, 68, 64
2, 130056, Note_on_c, 0, 75, 39
2, 130064, Note_off_c, 0, 80, 64
2, 130115, Note_on_c, 0, 80, 37
2, 130123, Note_off_c, 0, 75, 64
2, 130167, Note_off_c, 0, 80, 64
2, 130185, Note_on_c, 0, 75, 38
2, 130244, Note_on_c, 0, 87, 37
2, 130278, Note_off_c, 0, 75, 64
2, 130318, Note_on_c, 0, 80, 36
2, 130340, Note_off_c, 0, 87, 64
2, 130399, Note_off_c, 0, 80, 64
2, 130406, Note_on_c, 0, 87, 35
2, 130448, Note_off_c, 0, 87, 64
2, 130464, Note_on_c, 0, 80, 34
2, 130569, Note_on_c, 0, 92, 34
2, 130589, Note_off_c, 0, 80, 64
2, 130624, Note_off_c, 0, 92, 64
2, 130768, Note_on_c, 0, 80, 48
2, 130833, Note_off_c, 0, 44, 64
2, 130946, Control_c, 0, 64, 0
2, 130950, Note_on_c, 0, 78, 48
2, 130957, Note_off_c, 0, 80, 64
2, 131087, Control_c, 0, 64, 0
2, 131101, Note_off_c, 0, 78, 64
2, 131109, Note_on_c, 0, 76, 48
2, 131113, Note_on_c, 0, 49, 32
2, 131157, Control_c, 0, 64, 127
2, 131187, Control_c, 0, 64, 127
2, 131280, Note_on_c, 0, 67, 40
2, 131287, Note_on_c, 0, 64, 40
2, 131296, Note_off_c, 0, 49, 64
2, 131349, Note_on_c, 0, 68, 40
2, 131386, Note_off_c, 0, 67, 64
2, 131397, Note_off_c, 0, 64, 64
2, 131403, Note_on_c, 0, 71, 40
2, 131416, Note_off_c, 0, 68, 64
2, 131431, Note_on_c, 0, 56, 24
2, 131454, Note_on_c, 0, 69, 40
2, 131484, Note_off_c, 0, 71, 64
2, 131500, Note_on_c, 0, 68, 40
2, 131507, Control_c, 0, 64, 0
2, 131513, Note_off_c, 0, 69, 64
2, 131523, Note_off_c, 0, 56, 64
2, 131535, Note_off_c, 0, 68, 64
2, 131543, Note_on_c, 0, 51, 24
2, 131546, Note_on_c, 0, 68, 56
2, 131549, Control_c, 0, 64, 0
2, 131554, Note_on_c, 0, 54, 24
2, 131574, Control_c, 0, 64, 127
2, 131604, Note_off_c, 0, 76, 64
2, 131623, Control_c, 0, 64, 127
2, 131681, Note_on_c, 0, 76, 58
2, 131705, Note_off_c, 0, 51, 64
2, 131714, Note_on_c, 0, 60, 20
2, 131817, Note_off_c, 0, 76, 64
2, 131824, Note_off_c, 0, 54, 64
2, 131825, Note_on_c, 0, 75, 58
2, 131834, Note_on_c, 0, 56, 36
2, 131848, Note_off_c, 0, 60, 64
2, 131879, Note_off_c, 0, 68, 64
2, 131926, Control_c, 0, 64, 0
2, 131957, Note_on_c, 0, 73, 57
2, 131963, Note_off_c, 0, 56, 64
2, 131967, Note_on_c, 0, 52, 41
2, 131972, Note_off_c, 0, 75, 64
2, 131985, Control_c, 0, 64, 0
2, 132000, Control_c, 0, 64, 127
2, 132056, Control_c, 0, 64, 127
2, 132099, Note_on_c, 0, 67, 40
2, 132105, Note_on_c, 0, 61, 44
2, 132108, Note_off_c, 0, 52, 64
2, 132157, Note_on_c, 0, 68, 40
2, 132198, Note_off_c, 0, 61, 64
2, 132202, Note_off_c, 0, 67, 64
2, 132205, Note_on_c, 0, 71, 40
2, 132221, Note_off_c, 0, 68, 64
2, 132232, Note_on_c, 0, 56, 30
2, 132250, Note_on_c, 0, 69, 40
2, 132269, Note_off_c, 0, 71, 64
2, 132294, Note_on_c, 0, 68, 40
2, 132300, Note_off_c, 0, 69, 64
2, 132303, Control_c, 0, 64, 0
2, 132324, Note_off_c, 0, 68, 64
2, 132326, Note_on_c, 0, 48, 28
2, 132338, Note_on_c, 0, 68, 52
2, 132357, Note_off_c, 0, 56, 64
2, 132366, Control_c, 0, 64, 0
2, 132376, Control_c, 0, 64, 127
2, 132443, Control_c, 0, 64, 127
2, 132452, Note_off_c, 0, 73, 64
2, 132471, Note_on_c, 0, 80, 51
2, 132476, Note_on_c, 0, 63, 38
2, 132600, Note_off_c, 0, 80, 64
2, 132603, Note_on_c, 0, 78, 48
2, 132606, Note_off_c, 0, 48, 64
2, 132606, Note_off_c, 0, 63, 64
2, 132620, Note_on_c, 0, 56, 26
2, 132683, Control_c, 0, 64, 0
2, 132725, Note_off_c, 0, 78, 64
2, 132734, Note_on_c, 0, 76, 52
2, 132744, Note_on_c, 0, 49, 47
2, 132762, Note_off_c, 0, 68, 64
2, 132776, Control_c, 0, 64, 127
2, 132777, Control_c, 0, 64, 0
2, 132854, Control_c, 0, 64, 127
2, 132875, Note_off_c, 0, 49, 64
2, 132876, Note_on_c, 0, 67, 46
2, 132884, Note_on_c, 0, 64, 39
2, 132891, Note_off_c, 0, 56, 64
2, 132928, Note_on_c, 0, 68, 45
2, 132966, Note_off_c, 0, 67, 64
2, 132976, Note_on_c, 0, 71, 43
2, 132998, Note_off_c, 0, 68, 64
2, 133000, Note_on_c, 0, 56, 37
2, 133006, Note_off_c, 0, 64, 64
2, 133022, Note_on_c, 0, 69, 44
2, 133045, Note_off_c, 0, 71, 64
2, 133065, Note_on_c, 0, 68, 60
2, 133068, Control_c, 0, 64, 0
2, 133074, Note_off_c, 0, 69, 64
2, 133096, Note_off_c, 0, 56, 64
2, 133097, Note_off_c, 0, 68, 64
2, 133105, Note_on_c, 0, 51, 29
2, 133109, Note_on_c, 0, 68, 52
2, 133133, Control_c, 0, 64, 127
2, 133152, Note_on_c, 0, 54, 2
2, 133158, Control_c, 0, 64, 0
2, 133229, Note_off_c, 0, 76, 64
2, 133230, Control_c, 0, 64, 127
2, 133241, Note_on_c, 0, 76, 59
2, 133241, Note_on_c, 0, 60, 40
2, 133276, Note_off_c, 0, 54, 64
2, 133278, Note_off_c, 0, 51, 64
2, 133361, Note_on_c, 0, 75, 52
2, 133367, Note_on_c, 0, 56, 43
2, 133370, Note_off_c, 0, 76, 64
2, 133375, Note_off_c, 0, 68, 64
2, 133419, Note_off_c, 0, 60, 64
2, 133438, Control_c, 0, 64, 0
2, 133483, Note_on_c, 0, 73, 44
2, 133488, Note_off_c, 0, 56, 64
2, 133492, Note_on_c, 0, 52, 40
2, 133511, Note_off_c, 0, 75, 64
2, 133519, Control_c, 0, 64, 127
2, 133558, Control_c, 0, 64, 0
2, 133588, Note_off_c, 0, 73, 64
2, 133616, Note_on_c, 0, 72, 39
2, 133620, Note_on_c, 0, 61, 40
2, 133624, Control_c, 0, 64, 127
2, 133658, Note_off_c, 0, 52, 64
2, 133666, Note_on_c, 0, 73, 38
2, 133704, Note_off_c, 0, 72, 64
2, 133709, Note_on_c, 0, 56, 26
2, 133719, Note_on_c, 0, 76, 32
2, 133731, Note_off_c, 0, 73, 64
2, 133753, Note_off_c, 0, 61, 64
2, 133761, Note_on_c, 0, 74, 34
2, 133783, Note_off_c, 0, 76, 64
2, 133807, Note_on_c, 0, 73, 48
2, 133809, Control_c, 0, 64, 0
2, 133815, Note_off_c, 0, 74, 64
2, 133830, Note_off_c, 0, 56, 64
2, 133838, Note_off_c, 0, 73, 64
2, 133844, Note_on_c, 0, 53, 32
2, 133846, Note_on_c, 0, 59, 52
2, 133852, Note_on_c, 0, 73, 51
2, 133875, Control_c, 0, 64, 127
2, 133909, Control_c, 0, 64, 0
2, 133981, Control_c, 0, 64, 127
2, 133982, Note_on_c, 0, 85, 72
2, 133991, Note_on_c, 0, 68, 60
2, 134065, Note_off_c, 0, 59, 64
2, 134108, Note_off_c, 0, 85, 64
2, 134112, Note_on_c, 0, 83, 73
2, 134120, Note_off_c, 0, 68, 64
2, 134125, Note_off_c, 0, 53, 64
2, 134127, Note_on_c, 0, 61, 36
2, 134168, Note_off_c, 0, 73, 64
2, 134196, Control_c, 0, 64, 0
2, 134238, Note_on_c, 0, 81, 75
2, 134241, Note_off_c, 0, 61, 64
2, 134246, Note_off_c, 0, 83, 64
2, 134252, Note_on_c, 0, 57, 54
2, 134260, Note_on_c, 0, 54, 52
2, 134274, Control_c, 0, 64, 127
2, 134318, Control_c, 0, 64, 0
2, 134374, Note_on_c, 0, 72, 49
2, 134380, Note_on_c, 0, 66, 66
2, 134389, Control_c, 0, 64, 127
2, 134428, Note_on_c, 0, 73, 52
2, 134452, Note_off_c, 0, 57, 64
2, 134480, Note_off_c, 0, 72, 64
2, 134480, Note_on_c, 0, 76, 40
2, 134487, Note_off_c, 0, 66, 64
2, 134494, Note_off_c, 0, 73, 64
2, 134496, Note_on_c, 0, 61, 41
2, 134509, Note_off_c, 0, 54, 64
2, 134524, Note_on_c, 0, 74, 55
2, 134540, Note_off_c, 0, 76, 64
2, 134563, Note_on_c, 0, 73, 59
2, 134569, Control_c, 0, 64, 0
2, 134572, Note_off_c, 0, 74, 64
2, 134591, Note_off_c, 0, 61, 64
2, 134594, Note_off_c, 0, 73, 64
2, 134603, Note_on_c, 0, 56, 60
2, 134607, Note_on_c, 0, 73, 63
2, 134624, Note_on_c, 0, 59, 33
2, 134631, Control_c, 0, 64, 127
2, 134691, Control_c, 0, 64, 0
2, 134718, Note_off_c, 0, 81, 64
2, 134733, Note_on_c, 0, 65, 49
2, 134737, Note_on_c, 0, 81, 62
2, 134764, Control_c, 0, 64, 127
2, 134780, Note_off_c, 0, 59, 64
2, 134805, Note_off_c, 0, 56, 64
2, 134850, Note_off_c, 0, 81, 64
2, 134853, Note_on_c, 0, 80, 62
2, 134871, Note_on_c, 0, 61, 49
2, 134920, Note_off_c, 0, 73, 64
2, 134933, Control_c, 0, 64, 0
2, 134974, Note_on_c, 0, 78, 64
2, 134979, Note_off_c, 0, 65, 64
2, 134987, Note_on_c, 0, 57, 58
2, 134990, Note_off_c, 0, 61, 64
2, 134993, Note_off_c, 0, 80, 64
2, 135016, Control_c, 0, 64, 127
2, 135063, Control_c, 0, 64, 0
2, 135106, Note_on_c, 0, 72, 51
2, 135109, Note_on_c, 0, 66, 69
2, 135131, Note_off_c, 0, 57, 64
2, 135132, Control_c, 0, 64, 127
2, 135160, Note_on_c, 0, 73, 49
2, 135190, Note_off_c, 0, 66, 64
2, 135200, Note_off_c, 0, 72, 64
2, 135205, Note_on_c, 0, 76, 50
2, 135215, Note_on_c, 0, 61, 40
2, 135222, Note_off_c, 0, 73, 64
2, 135244, Note_on_c, 0, 74, 53
2, 135267, Note_off_c, 0, 76, 64
2, 135276, Control_c, 0, 64, 0
2, 135290, Note_on_c, 0, 73, 61
2, 135300, Note_off_c, 0, 74, 64
2, 135305, Note_off_c, 0, 61, 64
2, 135320, Note_off_c, 0, 73, 64
2, 135327, Note_on_c, 0, 53, 37
2, 135328, Note_on_c, 0, 73, 63
2, 135335, Note_on_c, 0, 59, 33
2, 135356, Control_c, 0, 64, 127
2, 135427, Control_c, 0, 64, 0
2, 135454, Note_on_c, 0, 85, 64
2, 135463, Note_on_c, 0, 68, 71
2, 135469, Note_off_c, 0, 78, 64
2, 135486, Note_off_c, 0, 53, 64
2, 135488, Control_c, 0, 64, 127
2, 135493, Note_off_c, 0, 59, 64
2, 135577, Note_on_c, 0, 83, 65
2, 135583, Note_on_c, 0, 61, 63
2, 135589, Note_off_c, 0, 85, 64
2, 135613, Note_off_c, 0, 68, 64
2, 135646, Control_c, 0, 64, 0
2, 135696, Note_off_c, 0, 83, 64
2, 135696, Note_on_c, 0, 81, 65
2, 135699, Note_on_c, 0, 54, 58
2, 135704, Note_off_c, 0, 61, 64
2, 135735, Note_off_c, 0, 73, 64
2, 135738, Control_c, 0, 64, 127
2, 135797, Control_c, 0, 64, 0
2, 135827, Note_on_c, 0, 72, 41
2, 135843, Note_on_c, 0, 69, 31
2, 135878, Control_c, 0, 64, 127
2, 135882, Note_on_c, 0, 73, 40
2, 135916, Note_off_c, 0, 72, 64
2, 135924, Note_off_c, 0, 69, 64
2, 135931, Note_on_c, 0, 76, 43
2, 135940, Note_off_c, 0, 54, 64
2, 135946, Note_off_c, 0, 73, 64
2, 135948, Note_on_c, 0, 61, 55
2, 135970, Note_on_c, 0, 74, 56
2, 135985, Note_off_c, 0, 76, 64
2, 136000, Control_c, 0, 64, 0
2, 136010, Note_on_c, 0, 73, 56
2, 136016, Note_off_c, 0, 74, 64
2, 136038, Note_off_c, 0, 61, 64
2, 136039, Note_off_c, 0, 73, 64
2, 136048, Note_on_c, 0, 73, 65
2, 136052, Note_on_c, 0, 56, 60
2, 136064, Note_on_c, 0, 59, 43
2, 136086, Control_c, 0, 64, 127
2, 136153, Control_c, 0, 64, 0
2, 136161, Note_off_c, 0, 81, 64
2, 136180, Note_on_c, 0, 81, 62
2, 136180, Note_on_c, 0, 65, 55
2, 136226, Control_c, 0, 64, 127
2, 136227, Note_off_c, 0, 59, 64
2, 136237, Note_off_c, 0, 56, 64
2, 136288, Note_on_c, 0, 80, 60
2, 136291, Note_off_c, 0, 81, 64
2, 136305, Note_on_c, 0, 61, 41
2, 136348, Note_off_c, 0, 73, 64
2, 136364, Control_c, 0, 64, 0
2, 136373, Note_off_c, 0, 65, 64
2, 136403, Note_on_c, 0, 78, 72
2, 136415, Note_off_c, 0, 61, 64
2, 136417, Note_on_c, 0, 57, 60
2, 136444, Note_off_c, 0, 80, 64
2, 136456, Control_c, 0, 64, 127
2, 136528, Control_c, 0, 64, 0
2, 136545, Note_on_c, 0, 72, 55
2, 136554, Note_on_c, 0, 66, 41
2, 136584, Note_off_c, 0, 57, 64
2, 136588, Note_on_c, 0, 73, 70
2, 136596, Control_c, 0, 64, 127
2, 136641, Note_on_c, 0, 76, 61
2, 136646, Note_off_c, 0, 66, 64
2, 136650, Note_on_c, 0, 61, 60
2, 136658, Note_off_c, 0, 73, 64
2, 136660, Note_off_c, 0, 72, 64
2, 136690, Note_on_c, 0, 74, 51
2, 136703, Note_off_c, 0, 76, 64
2, 136728, Note_on_c, 0, 73, 72
2, 136734, Note_off_c, 0, 74, 64
2, 136742, Control_c, 0, 64, 0
2, 136760, Note_off_c, 0, 61, 64
2, 136762, Note_off_c, 0, 73, 64
2, 136774, Note_on_c, 0, 73, 79
2, 136778, Note_on_c, 0, 45, 48
2, 136825, Control_c, 0, 64, 127
2, 136868, Note_off_c, 0, 78, 64
2, 136886, Control_c, 0, 64, 0
2, 136917, Note_on_c, 0, 80, 60
2, 136927, Note_on_c, 0, 61, 69
2, 136966, Control_c, 0, 64, 127
2, 137028, Note_off_c, 0, 61, 64
2, 137037, Note_on_c, 0, 81, 62
2, 137052, Note_off_c, 0, 80, 64
2, 137057, Note_on_c, 0, 54, 58
2, 137062, Note_off_c, 0, 45, 64
2, 137112, Control_c, 0, 64, 0
2, 137157, Note_off_c, 0, 54, 64
2, 137159, Note_on_c, 0, 80, 69
2, 137164, Note_off_c, 0, 81, 64
2, 137172, Note_on_c, 0, 44, 57
2, 137178, Note_on_c, 0, 51, 54
2, 137181, Note_off_c, 0, 73, 64
2, 137188, Control_c, 0, 64, 127
2, 137250, Note_off_c, 0, 44, 64
2, 137309, Note_on_c, 0, 67, 34
2, 137310, Control_c, 0, 64, 0
2, 137317, Note_on_c, 0, 60, 42
2, 137363, Note_off_c, 0, 51, 64
2, 137369, Note_on_c, 0, 68, 24
2, 137382, Control_c, 0, 64, 127
2, 137392, Note_off_c, 0, 67, 64
2, 137420, Note_on_c, 0, 54, 41
2, 137429, Note_off_c, 0, 68, 64
2, 137430, Note_on_c, 0, 71, 29
2, 137465, Note_on_c, 0, 69, 34
2, 137480, Note_off_c, 0, 71, 64
2, 137493, Note_off_c, 0, 60, 64
2, 137497, Note_on_c, 0, 68, 47
2, 137500, Control_c, 0, 64, 0
2, 137511, Note_off_c, 0, 69, 64
2, 137528, Note_off_c, 0, 68, 64
2, 137544, Note_on_c, 0, 68, 62
2, 137550, Note_off_c, 0, 54, 64
2, 137554, Note_on_c, 0, 52, 54
2, 137574, Control_c, 0, 64, 127
2, 137670, Note_on_c, 0, 61, 47
2, 137674, Note_off_c, 0, 80, 64
2, 137675, Note_on_c, 0, 78, 59
2, 137699, Control_c, 0, 64, 0
2, 137772, Control_c, 0, 64, 127
2, 137777, Note_off_c, 0, 52, 64
2, 137785, Note_off_c, 0, 78, 64
2, 137785, Note_off_c, 0, 61, 64
2, 137798, Note_on_c, 0, 56, 43
2, 137799, Note_on_c, 0, 76, 48
2, 137864, Control_c, 0, 64, 0
2, 137908, Note_off_c, 0, 56, 64
2, 137917, Note_on_c, 0, 44, 47
2, 137922, Note_on_c, 0, 54, 57
2, 137935, Note_on_c, 0, 75, 57
2, 137937, Note_off_c, 0, 76, 64
2, 137947, Control_c, 0, 64, 127
2, 137967, Note_off_c, 0, 68, 64
2, 138027, Note_off_c, 0, 44, 64
2, 138065, Note_on_c, 0, 67, 40
2, 138072, Note_on_c, 0, 60, 53
2, 138081, Control_c, 0, 64, 0
2, 138105, Note_on_c, 0, 68, 51
2, 138149, Control_c, 0, 64, 127
2, 138151, Note_off_c, 0, 67, 64
2, 138159, Note_on_c, 0, 71, 45
2, 138171, Note_off_c, 0, 68, 64
2, 138203, Note_on_c, 0, 69, 43
2, 138203, Note_on_c, 0, 56, 27
2, 138217, Note_off_c, 0, 71, 64
2, 138231, Note_off_c, 0, 54, 64
2, 138234, Note_off_c, 0, 60, 64
2, 138241, Control_c, 0, 64, 0
2, 138250, Note_on_c, 0, 68, 56
2, 138257, Note_off_c, 0, 69, 64
2, 138286, Note_off_c, 0, 68, 64
2, 138300, Note_on_c, 0, 52, 45
2, 138301, Note_on_c, 0, 68, 53
2, 138304, Note_off_c, 0, 56, 64
2, 138325, Control_c, 0, 64, 127
2, 138400, Note_off_c, 0, 75, 64
2, 138412, Note_on_c, 0, 75, 53
2, 138414, Note_on_c, 0, 61, 48
2, 138473, Control_c, 0, 64, 0
2, 138499, Note_off_c, 0, 52, 64
2, 138519, Note_off_c, 0, 61, 64
2, 138524, Note_off_c, 0, 75, 64
2, 138532, Note_on_c, 0, 73, 54
2, 138534, Note_on_c, 0, 56, 45
2, 138541, Control_c, 0, 64, 127
2, 138609, Control_c, 0, 64, 0
2, 138631, Note_off_c, 0, 68, 64
2, 138639, Note_on_c, 0, 44, 46
2, 138644, Note_off_c, 0, 56, 64
2, 138648, Note_on_c, 0, 72, 53
2, 138664, Note_on_c, 0, 51, 26
2, 138681, Note_off_c, 0, 73, 64
2, 138685, Control_c, 0, 64, 127
2, 138731, Note_off_c, 0, 44, 64
2, 138786, Note_on_c, 0, 67, 40
2, 138791, Note_on_c, 0, 60, 44
2, 138813, Note_off_c, 0, 51, 64
2, 138843, Note_on_c, 0, 68, 28
2, 138866, Note_off_c, 0, 67, 64
2, 138876, Control_c, 0, 64, 0
2, 138890, Note_on_c, 0, 56, 28
2, 138891, Note_on_c, 0, 71, 37
2, 138903, Note_off_c, 0, 68, 64
2, 138920, Note_off_c, 0, 60, 64
2, 138927, Note_on_c, 0, 69, 41
2, 138948, Control_c, 0, 64, 127
2, 138954, Control_c, 0, 64, 0
2, 138960, Note_off_c, 0, 71, 64
2, 138971, Note_on_c, 0, 68, 48
2, 138976, Note_off_c, 0, 69, 64
2, 138987, Note_off_c, 0, 56, 64
2, 138999, Note_off_c, 0, 68, 64
2, 139010, Note_on_c, 0, 52, 36
2, 139019, Note_on_c, 0, 68, 47
2, 139035, Control_c, 0, 64, 127
2, 139130, Note_on_c, 0, 61, 31
2, 139139, Note_on_c, 0, 78, 46
2, 139153, Note_off_c, 0, 72, 64
2, 139170, Note_off_c, 0, 52, 64
2, 139218, Control_c, 0, 64, 0
2, 139237, Note_off_c, 0, 61, 64
2, 139243, Note_off_c, 0, 78, 64
2, 139252, Note_on_c, 0, 76, 46
2, 139260, Note_on_c, 0, 56, 45
2, 139289, Control_c, 0, 64, 127
2, 139375, Control_c, 0, 64, 0
2, 139396, Note_off_c, 0, 76, 64
2, 139397, Note_on_c, 0, 75, 44
2, 139402, Note_on_c, 0, 47, 33
2, 139405, Note_off_c, 0, 68, 64
2, 139417, Note_off_c, 0, 56, 64
2, 139449, Control_c, 0, 64, 127
2, 139555, Note_on_c, 0, 70, 44
2, 139564, Note_on_c, 0, 54, 22
2, 139623, Note_on_c, 0, 71, 45
2, 139625, Note_off_c, 0, 47, 64
2, 139629, Note_off_c, 0, 70, 64
2, 139641, Control_c, 0, 64, 0
2, 139682, Note_off_c, 0, 75, 64
2, 139691, Note_on_c, 0, 75, 34
2, 139713, Note_off_c, 0, 71, 64
2, 139715, Note_on_c, 0, 57, 34
2, 139719, Control_c, 0, 64, 127
2, 139759, Note_on_c, 0, 73, 34
2, 139781, Note_off_c, 0, 75, 64
2, 139818, Note_on_c, 0, 71, 40
2, 139831, Control_c, 0, 64, 0
2, 139841, Note_off_c, 0, 73, 64
2, 139865, Note_off_c, 0, 71, 64
2, 139876, Note_on_c, 0, 63, 37
2, 139882, Note_on_c, 0, 71, 52
2, 139912, Control_c, 0, 64, 127
2, 140038, Note_on_c, 0, 76, 37
2, 140100, Control_c, 0, 64, 0
2, 140167, Control_c, 0, 64, 127
2, 140205, Note_off_c, 0, 71, 64
2, 140268, Note_on_c, 0, 78, 39
2, 140277, Note_off_c, 0, 76, 64
2, 140282, Note_off_c, 0, 57, 64
2, 140327, Note_off_c, 0, 54, 64
2, 140332, Note_off_c, 0, 63, 64
2, 140536, Note_on_c, 0, 68, 57
2, 140536, Note_on_c, 0, 52, 55
2, 140553, Note_off_c, 0, 78, 64
2, 140574, Note_on_c, 0, 71, 57
2, 140590, Note_off_c, 0, 68, 64
2, 140620, Note_on_c, 0, 76, 57
2, 140627, Note_on_c, 0, 59, 45
2, 140628, Note_on_c, 0, 64, 34
2, 140634, Note_off_c, 0, 71, 64
2, 140665, Note_on_c, 0, 80, 57
2, 140683, Note_off_c, 0, 76, 64
2, 140697, Note_off_c, 0, 52, 64
2, 140705, Note_on_c, 0, 78, 57
2, 140708, Note_on_c, 0, 56, 46
2, 140728, Note_off_c, 0, 80, 64
2, 140732, Note_off_c, 0, 59, 64
2, 140739, Control_c, 0, 64, 0
2, 140746, Note_on_c, 0, 76, 57
2, 140765, Note_off_c, 0, 56, 64
2, 140778, Control_c, 0, 64, 127
2, 140780, Note_on_c, 0, 51, 64
2, 140789, Note_on_c, 0, 80, 57
2, 140795, Note_off_c, 0, 76, 64
2, 140802, Note_off_c, 0, 64, 64
2, 140804, Note_off_c, 0, 78, 64
2, 140834, Note_on_c, 0, 83, 57
2, 140848, Note_off_c, 0, 80, 64
2, 140868, Note_on_c, 0, 64, 51
2, 140876, Note_on_c, 0, 59, 55
2, 140880, Note_on_c, 0, 88, 57
2, 140897, Note_off_c, 0, 83, 64
2, 140920, Note_on_c, 0, 92, 57
2, 140924, Note_off_c, 0, 88, 64
2, 140956, Note_off_c, 0, 51, 64
2, 140960, Note_on_c, 0, 90, 57
2, 140964, Note_on_c, 0, 56, 49
2, 140979, Note_off_c, 0, 92, 64
2, 140986, Note_off_c, 0, 59, 64
2, 140991, Control_c, 0, 64, 0
2, 140995, Note_on_c, 0, 88, 57
2, 141016, Note_off_c, 0, 90, 64
2, 141021, Note_off_c, 0, 56, 64
2, 141032, Control_c, 0, 64, 127
2, 141038, Note_off_c, 0, 88, 64
2, 141038, Note_on_c, 0, 83, 57
2, 141044, Note_on_c, 0, 49, 60
2, 141066, Note_off_c, 0, 83, 64
2, 141070, Note_off_c, 0, 64, 64
2, 141083, Note_on_c, 0, 80, 57
2, 141124, Note_on_c, 0, 59, 44
2, 141126, Note_off_c, 0, 80, 64
2, 141129, Note_on_c, 0, 78, 57
2, 141131, Note_on_c, 0, 64, 43
2, 141167, Note_off_c, 0, 78, 64
2, 141172, Note_on_c, 0, 76, 57
2, 141199, Note_on_c, 0, 56, 51
2, 141202, Note_on_c, 0, 71, 57
2, 141214, Note_off_c, 0, 59, 64
2, 141220, Note_off_c, 0, 76, 64
2, 141220, Note_off_c, 0, 49, 64
2, 141232, Note_off_c, 0, 71, 64
2, 141246, Note_on_c, 0, 68, 57
2, 141247, Control_c, 0, 64, 0
2, 141256, Note_off_c, 0, 56, 64
2, 141277, Note_on_c, 0, 47, 56
2, 141282, Note_on_c, 0, 66, 57
2, 141289, Control_c, 0, 64, 127
2, 141298, Note_off_c, 0, 68, 64
2, 141303, Note_off_c, 0, 64, 64
2, 141320, Note_on_c, 0, 64, 60
2, 141334, Note_off_c, 0, 66, 64
2, 141369, Note_off_c, 0, 64, 64
2, 141372, Note_on_c, 0, 59, 60
2, 141415, Note_on_c, 0, 68, 57
2, 141440, Note_off_c, 0, 59, 64
2, 141448, Note_on_c, 0, 66, 57
2, 141453, Note_off_c, 0, 47, 64
2, 141467, Note_off_c, 0, 68, 64
2, 141492, Note_on_c, 0, 64, 57
2, 141492, Control_c, 0, 64, 0
2, 141505, Note_off_c, 0, 66, 64
2, 141534, Control_c, 0, 64, 127
2, 141540, Note_on_c, 0, 61, 57
2, 141540, Note_on_c, 0, 45, 65
2, 141544, Note_off_c, 0, 64, 64
2, 141576, Note_on_c, 0, 64, 57
2, 141600, Note_off_c, 0, 61, 64
2, 141611, Note_off_c, 0, 64, 64
2, 141628, Note_on_c, 0, 66, 57
2, 141632, Note_on_c, 0, 64, 50
2, 141632, Note_on_c, 0, 61, 52
2, 141664, Note_on_c, 0, 69, 57
2, 141671, Note_off_c, 0, 66, 64
2, 141694, Note_off_c, 0, 61, 64
2, 141697, Note_on_c, 0, 54, 40
2, 141700, Note_on_c, 0, 73, 57
2, 141716, Note_off_c, 0, 45, 64
2, 141721, Note_off_c, 0, 64, 64
2, 141736, Note_on_c, 0, 76, 57
2, 141754, Note_off_c, 0, 73, 64
2, 141757, Note_off_c, 0, 69, 64
2, 141768, Note_on_c, 0, 42, 66
2, 141776, Note_on_c, 0, 78, 57
2, 141786, Note_off_c, 0, 54, 64
2, 141793, Note_off_c, 0, 76, 64
2, 141816, Note_on_c, 0, 81, 57
2, 141821, Note_off_c, 0, 78, 64
2, 141868, Note_on_c, 0, 64, 57
2, 141868, Note_on_c, 0, 61, 53
2, 141872, Note_on_c, 0, 85, 57
2, 141886, Note_off_c, 0, 81, 64
2, 141912, Note_on_c, 0, 88, 57
2, 141918, Note_off_c, 0, 85, 64
2, 141944, Note_off_c, 0, 42, 64
2, 141948, Note_on_c, 0, 90, 57
2, 141948, Note_on_c, 0, 54, 68
2, 141957, Note_off_c, 0, 61, 64
2, 141957, Note_off_c, 0, 64, 64
2, 141966, Note_off_c, 0, 88, 64
2, 141976, Note_on_c, 0, 93, 57
2, 142008, Note_off_c, 0, 90, 64
2, 142014, Note_on_c, 0, 92, 57
2, 142019, Note_on_c, 0, 47, 67
2, 142036, Note_off_c, 0, 93, 64
2, 142037, Note_off_c, 0, 54, 64
2, 142051, Control_c, 0, 64, 0
2, 142056, Note_on_c, 0, 90, 57
2, 142074, Note_off_c, 0, 92, 64
2, 142083, Control_c, 0, 64, 127
2, 142092, Note_on_c, 0, 87, 57
2, 142092, Note_on_c, 0, 59, 47
2, 142097, Note_on_c, 0, 63, 55
2, 142109, Note_off_c, 0, 90, 64
2, 142131, Note_on_c, 0, 81, 57
2, 142132, Note_off_c, 0, 87, 64
2, 142166, Note_off_c, 0, 81, 64
2, 142172, Note_on_c, 0, 54, 56
2, 142176, Note_on_c, 0, 80, 57
2, 142195, Note_off_c, 0, 47, 64
2, 142209, Control_c, 0, 64, 0
2, 142217, Note_off_c, 0, 54, 64
2, 142220, Note_on_c, 0, 78, 57
2, 142228, Note_off_c, 0, 80, 64
2, 142247, Note_on_c, 0, 75, 57
2, 142250, Control_c, 0, 64, 127
2, 142254, Note_on_c, 0, 56, 34
2, 142272, Note_off_c, 0, 78, 64
2, 142296, Note_on_c, 0, 71, 57
2, 142299, Note_off_c, 0, 56, 64
2, 142303, Note_off_c, 0, 75, 64
2, 142329, Note_on_c, 0, 54, 56
2, 142336, Note_on_c, 0, 75, 57
2, 142359, Note_off_c, 0, 71, 64
2, 142367, Note_on_c, 0, 73, 57
2, 142391, Note_off_c, 0, 75, 64
2, 142391, Note_off_c, 0, 54, 64
2, 142415, Note_on_c, 0, 71, 57
2, 142420, Note_on_c, 0, 56, 52
2, 142437, Note_off_c, 0, 73, 64
2, 142448, Control_c, 0, 64, 0
2, 142455, Note_on_c, 0, 69, 57
2, 142458, Note_off_c, 0, 71, 64
2, 142492, Note_on_c, 0, 52, 58
2, 142492, Control_c, 0, 64, 127
2, 142495, Note_off_c, 0, 56, 64
2, 142500, Note_on_c, 0, 68, 57
2, 142503, Note_off_c, 0, 69, 64
2, 142534, Note_off_c, 0, 59, 64
2, 142536, Note_on_c, 0, 71, 57
2, 142539, Note_off_c, 0, 63, 64
2, 142551, Note_off_c, 0, 68, 64
2, 142580, Note_on_c, 0, 76, 57
2, 142588, Note_on_c, 0, 64, 30
2, 142588, Note_on_c, 0, 59, 50
2, 142600, Note_off_c, 0, 71, 64
2, 142617, Note_on_c, 0, 80, 57
2, 142624, Note_off_c, 0, 76, 64
2, 142652, Note_on_c, 0, 56, 50
2, 142660, Note_on_c, 0, 78, 57
2, 142668, Note_off_c, 0, 52, 64
2, 142676, Note_off_c, 0, 80, 64
2, 142698, Note_off_c, 0, 59, 64
2, 142699, Note_on_c, 0, 76, 57
2, 142699, Control_c, 0, 64, 0
2, 142724, Note_off_c, 0, 56, 64
2, 142743, Note_on_c, 0, 80, 57
2, 142743, Control_c, 0, 64, 127
2, 142746, Note_off_c, 0, 64, 64
2, 142748, Note_off_c, 0, 76, 64
2, 142748, Note_on_c, 0, 51, 65
2, 142756, Note_off_c, 0, 78, 64
2, 142781, Note_on_c, 0, 83, 57
2, 142792, Note_off_c, 0, 80, 64
2, 142820, Note_on_c, 0, 64, 44
2, 142821, Note_on_c, 0, 88, 57
2, 142828, Note_on_c, 0, 59, 51
2, 142844, Note_off_c, 0, 83, 64
2, 142862, Note_on_c, 0, 92, 57
2, 142871, Control_c, 0, 64, 0
2, 142876, Note_off_c, 0, 88, 64
2, 142888, Control_c, 0, 64, 127
2, 142903, Note_on_c, 0, 90, 57
2, 142908, Note_on_c, 0, 56, 53
2, 142919, Note_off_c, 0, 92, 64
2, 142924, Note_off_c, 0, 51, 64
2, 142938, Note_off_c, 0, 59, 64
2, 142940, Control_c, 0, 64, 0
2, 142944, Note_on_c, 0, 88, 57
2, 142954, Note_off_c, 0, 90, 64
2, 142964, Note_off_c, 0, 64, 64
2, 142974, Note_on_c, 0, 83, 57
2, 142974, Control_c, 0, 64, 127
2, 142975, Note_off_c, 0, 56, 64
2, 142985, Note_on_c, 0, 49, 63
2, 142986, Note_off_c, 0, 88, 64
2, 143021, Note_on_c, 0, 80, 57
2, 143023, Note_off_c, 0, 83, 64
2, 143052, Note_on_c, 0, 64, 48
2, 143060, Note_on_c, 0, 78, 57
2, 143062, Note_on_c, 0, 59, 51
2, 143073, Note_off_c, 0, 80, 64
2, 143099, Note_on_c, 0, 76, 57
2, 143106, Note_off_c, 0, 78, 64
2, 143128, Note_off_c, 0, 76, 64
2, 143136, Note_on_c, 0, 71, 57
2, 143136, Note_on_c, 0, 56, 58
2, 143150, Note_off_c, 0, 59, 64
2, 143161, Note_off_c, 0, 49, 64
2, 143166, Note_off_c, 0, 71, 64
2, 143180, Note_on_c, 0, 68, 57
2, 143193, Control_c, 0, 64, 0
2, 143204, Note_off_c, 0, 64, 64
2, 143204, Note_on_c, 0, 47, 54
2, 143210, Note_on_c, 0, 66, 57
2, 143215, Note_off_c, 0, 56, 64
2, 143218, Note_off_c, 0, 68, 64
2, 143229, Control_c, 0, 64, 127
2, 143248, Note_on_c, 0, 64, 61
2, 143265, Note_off_c, 0, 66, 64
2, 143293, Note_on_c, 0, 59, 66
2, 143297, Note_off_c, 0, 64, 64
2, 143332, Note_on_c, 0, 68, 75
2, 143355, Note_off_c, 0, 59, 64
2, 143367, Note_on_c, 0, 66, 72
2, 143380, Note_off_c, 0, 47, 64
2, 143385, Note_off_c, 0, 68, 64
2, 143414, Note_on_c, 0, 64, 42
2, 143419, Note_off_c, 0, 66, 64
2, 143430, Control_c, 0, 64, 0
2, 143449, Note_on_c, 0, 45, 63
2, 143452, Note_off_c, 0, 64, 64
2, 143452, Note_on_c, 0, 61, 73
2, 143474, Control_c, 0, 64, 127
2, 143480, Note_on_c, 0, 64, 63
2, 143488, Note_off_c, 0, 61, 64
2, 143516, Note_off_c, 0, 64, 64
2, 143520, Note_on_c, 0, 64, 53
2, 143524, Note_on_c, 0, 61, 53
2, 143528, Note_on_c, 0, 66, 75
2, 143560, Note_on_c, 0, 69, 57
2, 143577, Note_off_c, 0, 66, 64
2, 143609, Note_off_c, 0, 64, 64
2, 143610, Note_on_c, 0, 73, 57
2, 143613, Note_off_c, 0, 61, 64
2, 143620, Note_on_c, 0, 54, 40
2, 143625, Note_off_c, 0, 45, 64
2, 143647, Note_off_c, 0, 69, 64
2, 143656, Note_on_c, 0, 76, 57
2, 143665, Note_off_c, 0, 73, 64
2, 143696, Note_on_c, 0, 42, 68
2, 143708, Note_on_c, 0, 78, 57
2, 143709, Note_off_c, 0, 54, 64
2, 143713, Note_off_c, 0, 76, 64
2, 143736, Note_on_c, 0, 81, 57
2, 143765, Note_off_c, 0, 78, 64
2, 143768, Note_on_c, 0, 61, 52
2, 143772, Note_on_c, 0, 64, 53
2, 143777, Note_on_c, 0, 85, 57
2, 143809, Note_on_c, 0, 88, 57
2, 143814, Note_off_c, 0, 81, 64
2, 143828, Note_off_c, 0, 85, 64
2, 143829, Control_c, 0, 64, 0
2, 143840, Note_on_c, 0, 90, 57
2, 143842, Note_on_c, 0, 54, 63
2, 143857, Note_off_c, 0, 61, 64
2, 143863, Note_off_c, 0, 64, 64
2, 143868, Control_c, 0, 64, 127
2, 143872, Note_off_c, 0, 42, 64
2, 143875, Note_off_c, 0, 88, 64
2, 143880, Note_on_c, 0, 93, 57
2, 143884, Note_off_c, 0, 90, 64
2, 143917, Note_on_c, 0, 47, 69
2, 143924, Note_on_c, 0, 92, 57
2, 143931, Note_off_c, 0, 54, 64
2, 143954, Note_off_c, 0, 93, 64
2, 143957, Note_on_c, 0, 90, 57
2, 143979, Note_off_c, 0, 92, 64
2, 143995, Note_on_c, 0, 87, 57
2, 143996, Note_on_c, 0, 59, 45
2, 144000, Note_on_c, 0, 63, 53
2, 144012, Note_off_c, 0, 90, 64
2, 144029, Note_on_c, 0, 81, 57
2, 144031, Note_off_c, 0, 87, 64
2, 144045, Control_c, 0, 64, 0
2, 144068, Note_off_c, 0, 81, 64
2, 144069, Note_on_c, 0, 54, 54
2, 144076, Note_on_c, 0, 80, 57
2, 144080, Control_c, 0, 64, 127
2, 144083, Note_off_c, 0, 59, 64
2, 144093, Note_off_c, 0, 47, 64
2, 144110, Note_on_c, 0, 78, 57
2, 144124, Note_off_c, 0, 80, 64
2, 144126, Note_off_c, 0, 54, 64
2, 144145, Note_on_c, 0, 75, 57
2, 144149, Note_on_c, 0, 56, 37
2, 144161, Note_off_c, 0, 78, 64
2, 144182, Note_on_c, 0, 71, 57
2, 144190, Note_off_c, 0, 75, 64
2, 144206, Note_off_c, 0, 56, 64
2, 144222, Note_on_c, 0, 54, 54
2, 144226, Note_on_c, 0, 75, 57
2, 144250, Note_off_c, 0, 71, 64
2, 144262, Note_on_c, 0, 73, 57
2, 144283, Note_off_c, 0, 75, 64
2, 144283, Note_off_c, 0, 54, 64
2, 144295, Note_on_c, 0, 56, 26
2, 144302, Note_on_c, 0, 71, 57
2, 144308, Note_off_c, 0, 63, 64
2, 144323, Note_off_c, 0, 73, 64
2, 144339, Note_on_c, 0, 69, 57
2, 144342, Control_c, 0, 64, 0
2, 144347, Note_off_c, 0, 71, 64
2, 144370, Note_off_c, 0, 56, 64
2, 144379, Note_on_c, 0, 52, 61
2, 144385, Note_on_c, 0, 68, 57
2, 144390, Note_off_c, 0, 69, 64
2, 144392, Control_c, 0, 64, 127
2, 144429, Note_on_c, 0, 71, 57
2, 144433, Note_off_c, 0, 68, 64
2, 144476, Note_on_c, 0, 64, 40
2, 144478, Note_on_c, 0, 59, 33
2, 144480, Note_on_c, 0, 76, 57
2, 144502, Note_off_c, 0, 71, 64
2, 144520, Note_on_c, 0, 80, 57
2, 144535, Note_off_c, 0, 76, 64
2, 144552, Note_on_c, 0, 78, 57
2, 144554, Note_on_c, 0, 56, 56
2, 144555, Note_off_c, 0, 52, 64
2, 144566, Note_off_c, 0, 80, 64
2, 144581, Note_on_c, 0, 76, 57
2, 144588, Note_off_c, 0, 59, 64
2, 144614, Note_off_c, 0, 56, 64
2, 144615, Note_on_c, 0, 47, 58
2, 144624, Note_on_c, 0, 80, 57
2, 144634, Note_off_c, 0, 64, 64
2, 144635, Note_off_c, 0, 76, 64
2, 144643, Note_off_c, 0, 78, 64
2, 144672, Note_on_c, 0, 83, 57
2, 144673, Note_off_c, 0, 80, 64
2, 144703, Note_on_c, 0, 88, 57
2, 144708, Note_on_c, 0, 64, 60
2, 144708, Note_on_c, 0, 59, 45
2, 144724, Note_off_c, 0, 83, 64
2, 144738, Note_on_c, 0, 92, 57
2, 144756, Note_off_c, 0, 88, 64
2, 144774, Note_on_c, 0, 90, 57
2, 144791, Note_off_c, 0, 47, 64
2, 144792, Note_off_c, 0, 92, 64
2, 144805, Note_on_c, 0, 88, 57
2, 144806, Note_on_c, 0, 56, 56
2, 144826, Note_off_c, 0, 90, 64
2, 144836, Note_on_c, 0, 45, 95
2, 144839, Control_c, 0, 64, 0
2, 144844, Note_on_c, 0, 57, 79
2, 144850, Note_off_c, 0, 88, 64
2, 144850, Note_on_c, 0, 84, 57
2, 144866, Note_off_c, 0, 56, 64
2, 144866, Note_off_c, 0, 59, 64
2, 144866, Note_off_c, 0, 64, 64
2, 144886, Control_c, 0, 64, 127
2, 144893, Note_off_c, 0, 45, 64
2, 144894, Note_on_c, 0, 81, 57
2, 144901, Note_off_c, 0, 57, 64
2, 144902, Note_off_c, 0, 84, 64
2, 144915, Note_on_c, 0, 60, 95
2, 144925, Note_on_c, 0, 48, 51
2, 144938, Note_on_c, 0, 78, 57
2, 144964, Note_off_c, 0, 81, 64
2, 144970, Note_on_c, 0, 76, 57
2, 144996, Note_off_c, 0, 78, 64
2, 145005, Note_on_c, 0, 72, 57
2, 145018, Note_off_c, 0, 76, 64
2, 145039, Note_on_c, 0, 69, 57
2, 145058, Note_off_c, 0, 72, 64
2, 145069, Note_on_c, 0, 66, 57
2, 145091, Note_off_c, 0, 60, 64
2, 145101, Note_off_c, 0, 48, 64
2, 145101, Note_on_c, 0, 64, 57
2, 145111, Note_off_c, 0, 69, 64
2, 145127, Note_off_c, 0, 66, 64
2, 145134, Note_on_c, 0, 60, 57
2, 145139, Note_off_c, 0, 64, 64
2, 145183, Note_on_c, 0, 57, 57
2, 145195, Note_off_c, 0, 60, 64
2, 145219, Note_on_c, 0, 54, 57
2, 145252, Note_off_c, 0, 57, 64
2, 145256, Note_on_c, 0, 52, 57
2, 145280, Note_off_c, 0, 54, 64
2, 145300, Note_on_c, 0, 56, 65
2, 145300, Note_on_c, 0, 40, 75
2, 145304, Note_off_c, 0, 52, 64
2, 145342, Note_on_c, 0, 59, 65
2, 145361, Note_off_c, 0, 56, 64
2, 145389, Note_on_c, 0, 64, 65
2, 145392, Note_on_c, 0, 52, 46
2, 145408, Note_off_c, 0, 59, 64
2, 145425, Note_on_c, 0, 68, 65
2, 145434, Note_off_c, 0, 64, 64
2, 145448, Note_on_c, 0, 47, 39
2, 145456, Note_on_c, 0, 66, 65
2, 145476, Note_off_c, 0, 40, 64
2, 145482, Note_off_c, 0, 68, 64
2, 145495, Note_on_c, 0, 64, 65
2, 145505, Note_off_c, 0, 47, 64
2, 145528, Note_on_c, 0, 35, 72
2, 145541, Note_on_c, 0, 68, 65
2, 145550, Note_off_c, 0, 52, 64
2, 145552, Note_off_c, 0, 64, 64
2, 145553, Control_c, 0, 64, 0
2, 145561, Note_off_c, 0, 66, 64
2, 145584, Note_on_c, 0, 71, 65
2, 145590, Control_c, 0, 64, 127
2, 145592, Note_off_c, 0, 68, 64
2, 145621, Note_on_c, 0, 76, 65
2, 145624, Note_on_c, 0, 52, 75
2, 145648, Note_off_c, 0, 71, 64
2, 145662, Note_on_c, 0, 80, 65
2, 145678, Note_off_c, 0, 76, 64
2, 145680, Note_on_c, 0, 47, 78
2, 145692, Note_on_c, 0, 78, 65
2, 145704, Note_off_c, 0, 35, 64
2, 145722, Note_on_c, 0, 76, 65
2, 145728, Note_off_c, 0, 80, 64
2, 145737, Note_off_c, 0, 47, 64
2, 145737, Control_c, 0, 64, 0
2, 145747, Note_off_c, 0, 78, 64
2, 145762, Note_on_c, 0, 72, 65
2, 145762, Note_on_c, 0, 45, 94
2, 145768, Note_on_c, 0, 33, 95
2, 145775, Note_off_c, 0, 76, 64
2, 145782, Note_off_c, 0, 52, 64
2, 145784, Control_c, 0, 64, 127
2, 145797, Note_off_c, 0, 72, 64
2, 145818, Note_on_c, 0, 69, 65
2, 145819, Note_off_c, 0, 45, 64
2, 145825, Note_off_c, 0, 33, 64
2, 145848, Note_on_c, 0, 36, 77
2, 145851, Note_on_c, 0, 48, 95
2, 145857, Note_on_c, 0, 66, 65
2, 145885, Note_on_c, 0, 64, 65
2, 145891, Note_off_c, 0, 69, 64
2, 145924, Note_on_c, 0, 60, 65
2, 145930, Note_off_c, 0, 66, 64
2, 145942, Note_off_c, 0, 64, 64
2, 145962, Note_on_c, 0, 57, 65
2, 145983, Note_off_c, 0, 60, 64
2, 145986, Note_on_c, 0, 54, 65
2, 146020, Note_on_c, 0, 52, 66
2, 146024, Note_off_c, 0, 36, 64
2, 146027, Note_off_c, 0, 48, 64
2, 146033, Note_off_c, 0, 57, 64
2, 146044, Note_off_c, 0, 54, 64
2, 146062, Note_on_c, 0, 48, 66
2, 146070, Note_off_c, 0, 52, 64
2, 146107, Note_off_c, 0, 48, 64
2, 146114, Note_on_c, 0, 45, 68
2, 146144, Note_on_c, 0, 42, 68
2, 146200, Note_on_c, 0, 40, 70
2, 146212, Note_off_c, 0, 45, 64
2, 146214, Note_off_c, 0, 42, 64
2, 146244, Note_off_c, 0, 40, 64
2, 146256, Note_on_c, 0, 28, 106
2, 146265, Control_c, 0, 64, 0
2, 146285, Control_c, 0, 64, 0
2, 146320, Control_c, 0, 64, 127
2, 146340, Control_c, 0, 64, 127
2, 146430, Note_on_c, 0, 47, 69
2, 146466, Note_on_c, 0, 52, 71
2, 146505, Note_on_c, 0, 57, 72
2, 146519, Note_off_c, 0, 47, 64
2, 146537, Note_on_c, 0, 56, 74
2, 146555, Note_off_c, 0, 52, 64
2, 146582, Note_on_c, 0, 59, 63
2, 146584, Note_off_c, 0, 57, 64
2, 146618, Note_on_c, 0, 64, 77
2, 146626, Note_off_c, 0, 56, 64
2, 146648, Note_on_c, 0, 69, 78
2, 146671, Note_off_c, 0, 59, 64
2, 146692, Note_on_c, 0, 68, 80
2, 146707, Note_off_c, 0, 64, 64
2, 146718, Note_off_c, 0, 69, 64
2, 146746, Note_on_c, 0, 71, 69
2, 146772, Control_c, 0, 64, 0
2, 146781, Note_off_c, 0, 68, 64
2, 146784, Note_on_c, 0, 76, 84
2, 146792, Control_c, 0, 64, 0
2, 146814, Control_c, 0, 64, 127
2, 146817, Note_on_c, 0, 52, 85
2, 146829, Note_on_c, 0, 59, 85
2, 146834, Control_c, 0, 64, 127
2, 146835, Note_off_c, 0, 71, 64
2, 146843, Note_on_c, 0, 81, 86
2, 146846, Note_on_c, 0, 76, 86
2, 146850, Note_on_c, 0, 68, 87
2, 146873, Note_off_c, 0, 76, 64
2, 146877, Note_on_c, 0, 80, 87
2, 146884, Note_off_c, 0, 76, 64
2, 146910, Note_on_c, 0, 83, 75
2, 146922, Note_off_c, 0, 81, 64
2, 146946, Note_on_c, 0, 88, 90
2, 146948, Note_off_c, 0, 28, 64
2, 146966, Note_off_c, 0, 80, 64
2, 146997, Note_on_c, 0, 93, 95
2, 146999, Note_off_c, 0, 83, 64
2, 147035, Note_off_c, 0, 88, 64
2, 147036, Note_on_c, 0, 92, 94
2, 147065, Note_on_c, 0, 88, 95
2, 147076, Note_off_c, 0, 93, 64
2, 147100, Note_on_c, 0, 83, 95
2, 147125, Note_off_c, 0, 92, 64
2, 147135, Note_on_c, 0, 81, 66
2, 147154, Note_off_c, 0, 88, 64
2, 147172, Note_on_c, 0, 80, 78
2, 147189, Note_off_c, 0, 83, 64
2, 147195, Note_off_c, 0, 59, 64
2, 147200, Note_off_c, 0, 68, 64
2, 147207, Note_off_c, 0, 52, 64
2, 147214, Note_off_c, 0, 81, 64
2, 147220, Note_on_c, 0, 76, 78
2, 147261, Note_off_c, 0, 80, 64
2, 147261, Note_on_c, 0, 71, 78
2, 147305, Note_on_c, 0, 69, 66
2, 147309, Note_off_c, 0, 76, 64
2, 147348, Note_on_c, 0, 68, 78
2, 147350, Note_off_c, 0, 71, 64
2, 147380, Note_on_c, 0, 64, 78
2, 147384, Note_off_c, 0, 69, 64
2, 147424, Note_on_c, 0, 59, 78
2, 147437, Note_off_c, 0, 68, 64
2, 147460, Note_on_c, 0, 57, 66
2, 147469, Note_off_c, 0, 64, 64
2, 147500, Note_on_c, 0, 56, 78
2, 147513, Note_off_c, 0, 59, 64
2, 147536, Note_on_c, 0, 52, 78
2, 147539, Note_off_c, 0, 57, 64
2, 147578, Note_on_c, 0, 47, 78
2, 147589, Note_off_c, 0, 56, 64
2, 147619, Note_on_c, 0, 45, 66
2, 147625, Note_off_c, 0, 52, 64
2, 147654, Note_on_c, 0, 44, 78
2, 147667, Note_off_c, 0, 47, 64
2, 147691, Note_on_c, 0, 40, 78
2, 147698, Note_off_c, 0, 45, 64
2, 147734, Note_on_c, 0, 35, 78
2, 147743, Note_off_c, 0, 44, 64
2, 147767, Control_c, 0, 64, 0
2, 147780, Note_off_c, 0, 40, 64
2, 147787, Control_c, 0, 64, 0
2, 147799, Note_on_c, 0, 28, 95
2, 147823, Note_off_c, 0, 35, 64
2, 148242, Note_off_c, 0, 28, 64
2, 148365, Control_c, 0, 64, 0
2, 148398, Note_on_c, 0, 38, 95
2, 148400, Note_on_c, 0, 26, 82
2, 148420, Control_c, 0, 64, 127
2, 148510, Note_on_c, 0, 47, 69
2, 148546, Note_on_c, 0, 53, 71
2, 148585, Note_on_c, 0, 57, 72
2, 148599, Note_off_c, 0, 47, 64
2, 148617, Note_on_c, 0, 56, 74
2, 148635, Note_off_c, 0, 53, 64
2, 148662, Note_on_c, 0, 59, 63
2, 148664, Note_off_c, 0, 57, 64
2, 148698, Note_on_c, 0, 65, 77
2, 148706, Note_off_c, 0, 56, 64
2, 148728, Note_on_c, 0, 69, 78
2, 148751, Note_off_c, 0, 59, 64
2, 148772, Note_on_c, 0, 68, 80
2, 148787, Note_off_c, 0, 65, 64
2, 148798, Note_off_c, 0, 69, 64
2, 148826, Note_on_c, 0, 71, 69
2, 148861, Note_off_c, 0, 68, 64
2, 148864, Note_on_c, 0, 77, 84
2, 148872, Control_c, 0, 64, 0
2, 148897, Note_on_c, 0, 50, 85
2, 148904, Note_on_c, 0, 59, 60
2, 148909, Note_on_c, 0, 56, 85
2, 148914, Control_c, 0, 64, 127
2, 148915, Note_off_c, 0, 71, 64
2, 148923, Note_on_c, 0, 81, 86
2, 148930, Note_on_c, 0, 65, 87
2, 148953, Note_off_c, 0, 77, 64
2, 148957, Note_on_c, 0, 80, 87
2, 148990, Note_on_c, 0, 83, 75
2, 149002, Note_off_c, 0, 81, 64
2, 149026, Note_on_c, 0, 89, 90
2, 149046, Note_off_c, 0, 80, 64
2, 149077, Note_on_c, 0, 93, 95
2, 149079, Note_off_c, 0, 83, 64
2, 149090, Note_off_c, 0, 38, 64
2, 149092, Note_off_c, 0, 26, 64
2, 149115, Note_off_c, 0, 89, 64
2, 149116, Note_on_c, 0, 92, 94
2, 149145, Note_on_c, 0, 89, 95
2, 149156, Note_off_c, 0, 93, 64
2, 149180, Note_on_c, 0, 83, 95
2, 149205, Note_off_c, 0, 92, 64
2, 149215, Note_on_c, 0, 81, 66
2, 149234, Note_off_c, 0, 89, 64
2, 149252, Note_on_c, 0, 80, 78
2, 149269, Note_off_c, 0, 83, 64
2, 149270, Note_off_c, 0, 59, 64
2, 149275, Note_off_c, 0, 56, 64
2, 149280, Note_off_c, 0, 65, 64
2, 149287, Note_off_c, 0, 50, 64
2, 149294, Note_off_c, 0, 81, 64
2, 149300, Note_on_c, 0, 77, 78
2, 149341, Note_off_c, 0, 80, 64
2, 149341, Note_on_c, 0, 71, 78
2, 149385, Note_on_c, 0, 69, 66
2, 149389, Note_off_c, 0, 77, 64
2, 149428, Note_on_c, 0, 68, 78
2, 149430, Note_off_c, 0, 71, 64
2, 149460, Note_on_c, 0, 65, 78
2, 149464, Note_off_c, 0, 69, 64
2, 149504, Note_on_c, 0, 59, 78
2, 149517, Note_off_c, 0, 68, 64
2, 149540, Note_on_c, 0, 57, 66
2, 149549, Note_off_c, 0, 65, 64
2, 149580, Note_on_c, 0, 56, 78
2, 149593, Note_off_c, 0, 59, 64
2, 149616, Note_on_c, 0, 53, 78
2, 149619, Note_off_c, 0, 57, 64
2, 149658, Note_on_c, 0, 47, 78
2, 149669, Note_off_c, 0, 56, 64
2, 149699, Note_on_c, 0, 45, 66
2, 149705, Note_off_c, 0, 53, 64
2, 149734, Note_on_c, 0, 44, 78
2, 149747, Note_off_c, 0, 47, 64
2, 149771, Note_on_c, 0, 41, 78
2, 149778, Note_off_c, 0, 45, 64
2, 149814, Note_on_c, 0, 35, 78
2, 149823, Note_off_c, 0, 44, 64
2, 149860, Note_off_c, 0, 41, 64
2, 149867, Control_c, 0, 64, 0
2, 149879, Note_on_c, 0, 26, 95
2, 149903, Note_off_c, 0, 35, 64
2, 150232, Note_off_c, 0, 26, 64
2, 150462, Note_on_c, 0, 25, 93
2, 150464, Note_on_c, 0, 37, 95
2, 150475, Control_c, 0, 64, 127
2, 150595, Note_off_c, 0, 25, 64
2, 150606, Note_off_c, 0, 37, 64
2, 150608, Note_on_c, 0, 70, 79
2, 150672, Note_on_c, 0, 68, 73
2, 150673, Note_off_c, 0, 70, 64
2, 150704, Note_on_c, 0, 71, 91
2, 150740, Note_off_c, 0, 68, 64
2, 150752, Note_on_c, 0, 77, 95
2, 150775, Note_off_c, 0, 71, 64
2, 150795, Note_on_c, 0, 44, 86
2, 150798, Note_on_c, 0, 82, 83
2, 150802, Note_on_c, 0, 56, 83
2, 150820, Note_off_c, 0, 77, 64
2, 150845, Note_on_c, 0, 80, 95
2, 150866, Note_off_c, 0, 82, 64
2, 150890, Note_off_c, 0, 44, 64
2, 150896, Note_on_c, 0, 63, 93
2, 150897, Note_off_c, 0, 56, 64
2, 150898, Note_on_c, 0, 83, 95
2, 150902, Note_on_c, 0, 51, 80
2, 150913, Note_off_c, 0, 80, 64
2, 150946, Note_on_c, 0, 89, 72
2, 150965, Note_off_c, 0, 83, 64
2, 150991, Note_off_c, 0, 63, 64
2, 150993, Note_on_c, 0, 94, 80
2, 150997, Note_off_c, 0, 51, 64
2, 150998, Note_on_c, 0, 61, 95
2, 150998, Note_on_c, 0, 49, 93
2, 151010, Note_off_c, 0, 89, 64
2, 151047, Note_on_c, 0, 92, 84
2, 151054, Control_c, 0, 64, 0
2, 151062, Note_off_c, 0, 94, 64
2, 151083, Note_off_c, 0, 49, 64
2, 151083, Note_off_c, 0, 61, 64
2, 151096, Note_on_c, 0, 61, 95
2, 151100, Note_off_c, 0, 92, 64
2, 151100, Note_on_c, 0, 49, 93
2, 151100, Control_c, 0, 64, 127
2, 151106, Note_on_c, 0, 82, 95
2, 151154, Note_on_c, 0, 88, 93
2, 151174, Note_off_c, 0, 82, 64
2, 151199, Note_on_c, 0, 92, 82
2, 151210, Note_off_c, 0, 88, 64
2, 151242, Note_on_c, 0, 91, 86
2, 151248, Note_off_c, 0, 92, 64
2, 151280, Note_off_c, 0, 61, 64
2, 151284, Note_off_c, 0, 49, 64
2, 151298, Note_on_c, 0, 88, 75
2, 151308, Note_off_c, 0, 91, 64
2, 151336, Note_on_c, 0, 82, 95
2, 151378, Note_on_c, 0, 49, 72
2, 151380, Note_off_c, 0, 88, 64
2, 151382, Note_on_c, 0, 80, 94
2, 151385, Note_on_c, 0, 37, 63
2, 151410, Note_off_c, 0, 82, 64
2, 151425, Note_on_c, 0, 79, 76
2, 151441, Note_off_c, 0, 80, 64
2, 151474, Note_on_c, 0, 76, 72
2, 151488, Note_off_c, 0, 79, 64
2, 151512, Note_on_c, 0, 70, 81
2, 151540, Note_off_c, 0, 76, 64
2, 151558, Note_off_c, 0, 49, 64
2, 151559, Note_on_c, 0, 68, 83
2, 151565, Note_off_c, 0, 37, 64
2, 151582, Note_off_c, 0, 70, 64
2, 151614, Note_on_c, 0, 67, 84
2, 151617, Note_off_c, 0, 68, 64
2, 151636, Control_c, 0, 64, 0
2, 151668, Note_off_c, 0, 67, 64
2, 151671, Note_on_c, 0, 37, 80
2, 151671, Note_on_c, 0, 25, 84
2, 151674, Note_on_c, 0, 57, 91
2, 151686, Control_c, 0, 64, 127
2, 151714, Note_on_c, 0, 63, 95
2, 151754, Note_off_c, 0, 57, 64
2, 151762, Note_on_c, 0, 68, 87
2, 151794, Note_off_c, 0, 63, 64
2, 151812, Note_on_c, 0, 66, 95
2, 151834, Note_off_c, 0, 68, 64
2, 151855, Note_off_c, 0, 25, 64
2, 151855, Note_off_c, 0, 37, 64
2, 151856, Note_on_c, 0, 69, 90
2, 151880, Note_off_c, 0, 66, 64
2, 151901, Note_on_c, 0, 75, 95
2, 151919, Note_off_c, 0, 69, 64
2, 151942, Note_on_c, 0, 80, 77
2, 151947, Note_on_c, 0, 42, 63
2, 151950, Note_on_c, 0, 54, 63
2, 151973, Note_off_c, 0, 75, 64
2, 151992, Note_on_c, 0, 78, 95
2, 152011, Note_off_c, 0, 80, 64
2, 152042, Note_off_c, 0, 42, 64
2, 152045, Note_off_c, 0, 54, 64
2, 152045, Note_on_c, 0, 63, 80
2, 152048, Note_on_c, 0, 51, 70
2, 152049, Note_on_c, 0, 81, 95
2, 152060, Note_off_c, 0, 78, 64
2, 152084, Note_on_c, 0, 87, 95
2, 152112, Note_off_c, 0, 81, 64
2, 152133, Note_on_c, 0, 92, 80
2, 152133, Note_on_c, 0, 61, 80
2, 152133, Note_on_c, 0, 49, 76
2, 152140, Note_off_c, 0, 63, 64
2, 152143, Note_off_c, 0, 51, 64
2, 152146, Note_off_c, 0, 87, 64
2, 152183, Note_on_c, 0, 90, 94
2, 152188, Control_c, 0, 64, 0
2, 152199, Note_off_c, 0, 92, 64
2, 152208, Note_off_c, 0, 49, 64
2, 152208, Note_off_c, 0, 61, 64
2, 152222, Note_on_c, 0, 61, 77
2, 152226, Note_on_c, 0, 49, 76
2, 152227, Control_c, 0, 64, 127
2, 152232, Note_on_c, 0, 80, 95
2, 152259, Note_off_c, 0, 90, 64
2, 152288, Note_on_c, 0, 85, 95
2, 152292, Note_off_c, 0, 80, 64
2, 152316, Note_on_c, 0, 43, 73
2, 152317, Note_off_c, 0, 61, 64
2, 152320, Note_on_c, 0, 31, 77
2, 152321, Note_off_c, 0, 49, 64
2, 152329, Note_on_c, 0, 90, 81
2, 152366, Note_off_c, 0, 85, 64
2, 152370, Note_on_c, 0, 89, 78
2, 152382, Note_off_c, 0, 90, 64
2, 152411, Note_off_c, 0, 43, 64
2, 152415, Note_off_c, 0, 31, 64
2, 152415, Note_on_c, 0, 32, 79
2, 152418, Note_on_c, 0, 44, 80
2, 152423, Note_on_c, 0, 85, 72
2, 152433, Note_off_c, 0, 89, 64
2, 152456, Note_on_c, 0, 80, 91
2, 152478, Note_off_c, 0, 85, 64
2, 152490, Note_off_c, 0, 32, 64
2, 152493, Note_off_c, 0, 44, 64
2, 152508, Note_on_c, 0, 32, 77
2, 152510, Note_on_c, 0, 44, 80
2, 152511, Note_off_c, 0, 80, 64
2, 152514, Note_on_c, 0, 78, 90
2, 152562, Note_on_c, 0, 77, 71
2, 152565, Note_off_c, 0, 78, 64
2, 152603, Note_off_c, 0, 32, 64
2, 152604, Note_on_c, 0, 39, 79
2, 152605, Note_off_c, 0, 44, 64
2, 152610, Note_on_c, 0, 51, 80
2, 152613, Note_on_c, 0, 73, 68
2, 152622, Note_off_c, 0, 77, 64
2, 152649, Note_on_c, 0, 68, 95
2, 152681, Note_off_c, 0, 73, 64
2, 152689, Note_off_c, 0, 39, 64
2, 152694, Note_on_c, 0, 49, 80
2, 152694, Note_on_c, 0, 37, 80
2, 152695, Note_off_c, 0, 51, 64
2, 152700, Note_on_c, 0, 66, 91
2, 152715, Note_off_c, 0, 68, 64
2, 152752, Note_on_c, 0, 65, 88
2, 152766, Note_off_c, 0, 66, 64
2, 152789, Note_off_c, 0, 37, 64
2, 152789, Note_off_c, 0, 49, 64
2, 152795, Control_c, 0, 64, 0
2, 152806, Note_off_c, 0, 65, 64
2, 152826, Note_on_c, 0, 50, 90
2, 152827, Note_on_c, 0, 60, 95
2, 152827, Note_on_c, 0, 38, 88
2, 152838, Control_c, 0, 64, 127
2, 152875, Note_on_c, 0, 66, 94
2, 152920, Note_off_c, 0, 60, 64
2, 152932, Note_on_c, 0, 71, 87
2, 152946, Note_off_c, 0, 66, 64
2, 152975, Note_on_c, 0, 69, 75
2, 152995, Note_off_c, 0, 71, 64
2, 153010, Note_off_c, 0, 50, 64
2, 153011, Note_off_c, 0, 38, 64
2, 153034, Note_on_c, 0, 72, 95
2, 153047, Note_off_c, 0, 69, 64
2, 153084, Note_on_c, 0, 78, 95
2, 153110, Note_off_c, 0, 72, 64
2, 153127, Note_on_c, 0, 83, 81
2, 153132, Note_on_c, 0, 45, 80
2, 153134, Note_on_c, 0, 57, 80
2, 153148, Note_off_c, 0, 78, 64
2, 153168, Note_on_c, 0, 81, 83
2, 153186, Note_off_c, 0, 83, 64
2, 153218, Note_on_c, 0, 84, 94
2, 153227, Note_off_c, 0, 45, 64
2, 153229, Note_off_c, 0, 57, 64
2, 153234, Note_on_c, 0, 64, 95
2, 153240, Note_on_c, 0, 52, 75
2, 153246, Note_off_c, 0, 81, 64
2, 153266, Note_on_c, 0, 90, 94
2, 153284, Note_off_c, 0, 84, 64
2, 153316, Note_on_c, 0, 95, 80
2, 153322, Note_on_c, 0, 62, 87
2, 153325, Note_on_c, 0, 50, 88
2, 153326, Note_off_c, 0, 90, 64
2, 153329, Note_off_c, 0, 64, 64
2, 153335, Note_off_c, 0, 52, 64
2, 153351, Note_on_c, 0, 93, 77
2, 153367, Control_c, 0, 64, 0
2, 153382, Note_off_c, 0, 95, 64
2, 153397, Note_off_c, 0, 62, 64
2, 153400, Note_off_c, 0, 50, 64
2, 153411, Note_on_c, 0, 62, 82
2, 153412, Note_on_c, 0, 50, 88
2, 153412, Control_c, 0, 64, 127
2, 153420, Note_off_c, 0, 93, 64
2, 153420, Note_on_c, 0, 83, 95
2, 153460, Note_on_c, 0, 89, 94
2, 153502, Note_off_c, 0, 83, 64
2, 153508, Note_on_c, 0, 93, 87
2, 153517, Note_off_c, 0, 89, 64
2, 153556, Note_on_c, 0, 92, 88
2, 153584, Note_off_c, 0, 93, 64
2, 153595, Note_off_c, 0, 62, 64
2, 153596, Note_off_c, 0, 50, 64
2, 153602, Note_on_c, 0, 89, 83
2, 153620, Note_off_c, 0, 92, 64
2, 153646, Note_on_c, 0, 83, 95
2, 153682, Note_off_c, 0, 89, 64
2, 153696, Note_on_c, 0, 81, 94
2, 153702, Note_on_c, 0, 50, 88
2, 153702, Note_on_c, 0, 38, 80
2, 153718, Note_off_c, 0, 83, 64
2, 153750, Note_on_c, 0, 80, 95
2, 153764, Note_off_c, 0, 81, 64
2, 153788, Note_on_c, 0, 77, 75
2, 153826, Note_off_c, 0, 80, 64
2, 153838, Note_on_c, 0, 71, 91
2, 153852, Note_off_c, 0, 38, 64
2, 153856, Note_off_c, 0, 77, 64
2, 153880, Note_on_c, 0, 69, 90
2, 153889, Note_off_c, 0, 50, 64
2, 153914, Note_off_c, 0, 71, 64
2, 153928, Note_on_c, 0, 68, 95
2, 153937, Control_c, 0, 64, 0
2, 153941, Note_off_c, 0, 69, 64
2, 153981, Control_c, 0, 64, 127
2, 153987, Note_on_c, 0, 38, 88
2, 153987, Note_on_c, 0, 26, 81
2, 153994, Note_on_c, 0, 58, 95
2, 154010, Note_off_c, 0, 68, 64
2, 154029, Note_on_c, 0, 64, 78
2, 154057, Note_off_c, 0, 58, 64
2, 154084, Note_on_c, 0, 69, 77
2, 154116, Note_off_c, 0, 64, 64
2, 154130, Note_on_c, 0, 67, 87
2, 154141, Note_off_c, 0, 69, 64
2, 154171, Note_off_c, 0, 26, 64
2, 154171, Note_off_c, 0, 38, 64
2, 154188, Note_on_c, 0, 70, 95
2, 154202, Note_off_c, 0, 67, 64
2, 154232, Note_on_c, 0, 76, 95
2, 154268, Note_off_c, 0, 70, 64
2, 154268, Note_on_c, 0, 43, 63
2, 154274, Note_on_c, 0, 55, 56
2, 154285, Note_on_c, 0, 81, 86
2, 154304, Note_off_c, 0, 76, 64
2, 154328, Note_on_c, 0, 79, 83
2, 154337, Note_off_c, 0, 81, 64
2, 154363, Note_off_c, 0, 43, 64
2, 154369, Note_off_c, 0, 55, 64
2, 154375, Note_on_c, 0, 64, 80
2, 154380, Note_on_c, 0, 52, 62
2, 154382, Note_on_c, 0, 82, 95
2, 154402, Note_off_c, 0, 79, 64
2, 154422, Note_on_c, 0, 88, 76
2, 154443, Note_off_c, 0, 82, 64
2, 154470, Note_off_c, 0, 64, 64
2, 154470, Note_on_c, 0, 93, 68
2, 154472, Note_on_c, 0, 62, 79
2, 154475, Note_off_c, 0, 52, 64
2, 154476, Note_on_c, 0, 50, 73
2, 154478, Note_off_c, 0, 88, 64
2, 154520, Note_on_c, 0, 91, 80
2, 154520, Control_c, 0, 64, 0
2, 154544, Note_off_c, 0, 93, 64
2, 154547, Note_off_c, 0, 62, 64
2, 154551, Note_off_c, 0, 50, 64
2, 154564, Control_c, 0, 64, 127
2, 154568, Note_on_c, 0, 62, 79
2, 154568, Note_on_c, 0, 50, 76
2, 154577, Note_on_c, 0, 81, 95
2, 154585, Note_off_c, 0, 91, 64
2, 154621, Note_on_c, 0, 86, 90
2, 154649, Note_off_c, 0, 81, 64
2, 154658, Note_on_c, 0, 91, 87
2, 154660, Note_on_c, 0, 37, 80
2, 154663, Note_off_c, 0, 50, 64
2, 154663, Note_off_c, 0, 62, 64
2, 154664, Note_on_c, 0, 49, 80
2, 154687, Note_off_c, 0, 86, 64
2, 154715, Note_on_c, 0, 90, 88
2, 154736, Note_off_c, 0, 91, 64
2, 154755, Note_off_c, 0, 37, 64
2, 154759, Note_off_c, 0, 49, 64
2, 154760, Note_on_c, 0, 50, 79
2, 154761, Note_on_c, 0, 38, 80
2, 154768, Note_on_c, 0, 86, 81
2, 154797, Note_off_c, 0, 90, 64
2, 154815, Note_on_c, 0, 81, 95
2, 154845, Note_off_c, 0, 50, 64
2, 154846, Note_off_c, 0, 38, 64
2, 154855, Note_off_c, 0, 86, 64
2, 154872, Note_on_c, 0, 50, 80
2, 154872, Note_on_c, 0, 38, 76
2, 154873, Note_on_c, 0, 79, 93
2, 154883, Note_off_c, 0, 81, 64
2, 154926, Note_on_c, 0, 78, 81
2, 154932, Note_off_c, 0, 79, 64
2, 154967, Note_off_c, 0, 38, 64
2, 154967, Note_off_c, 0, 50, 64
2, 154968, Note_on_c, 0, 74, 79
2, 154968, Note_on_c, 0, 47, 80
2, 154968, Note_on_c, 0, 35, 80
2, 154980, Note_off_c, 0, 78, 64
2, 155024, Note_on_c, 0, 69, 71
2, 155040, Note_off_c, 0, 74, 64
2, 155063, Note_off_c, 0, 35, 64
2, 155063, Note_off_c, 0, 47, 64
2, 155064, Note_on_c, 0, 67, 90
2, 155064, Note_on_c, 0, 36, 79
2, 155072, Note_on_c, 0, 48, 80
2, 155087, Note_off_c, 0, 69, 64
2, 155112, Note_on_c, 0, 66, 95
2, 155136, Note_off_c, 0, 67, 64
2, 155146, Control_c, 0, 64, 0
2, 155159, Note_off_c, 0, 36, 64
2, 155160, Note_on_c, 0, 46, 78
2, 155164, Note_on_c, 0, 74, 77
2, 155164, Note_on_c, 0, 62, 84
2, 155164, Note_on_c, 0, 34, 79
2, 155165, Note_off_c, 0, 66, 64
2, 155167, Note_off_c, 0, 48, 64
2, 155168, Note_on_c, 0, 67, 70
2, 155187, Control_c, 0, 64, 127
2, 155234, Note_off_c, 0, 62, 64
2, 155234, Note_off_c, 0, 74, 64
2, 155238, Note_off_c, 0, 67, 64
2, 155273, Note_on_c, 0, 62, 42
2, 155278, Note_on_c, 0, 73, 75
2, 155285, Note_off_c, 0, 46, 64
2, 155289, Note_off_c, 0, 34, 64
2, 155315, Note_off_c, 0, 73, 64
2, 155319, Note_on_c, 0, 74, 65
2, 155354, Note_on_c, 0, 77, 78
2, 155360, Note_on_c, 0, 55, 54
2, 155360, Note_on_c, 0, 50, 57
2, 155364, Note_off_c, 0, 74, 64
2, 155383, Note_off_c, 0, 62, 64
2, 155384, Note_on_c, 0, 75, 65
2, 155408, Control_c, 0, 64, 0
2, 155412, Note_off_c, 0, 77, 64
2, 155418, Note_on_c, 0, 74, 65
2, 155434, Note_off_c, 0, 75, 64
2, 155442, Note_off_c, 0, 50, 64
2, 155442, Note_off_c, 0, 55, 64
2, 155448, Note_off_c, 0, 74, 64
2, 155458, Note_on_c, 0, 45, 83
2, 155465, Note_on_c, 0, 74, 95
2, 155467, Control_c, 0, 64, 127
2, 155550, Note_on_c, 0, 78, 81
2, 155555, Note_on_c, 0, 86, 72
2, 155555, Note_on_c, 0, 62, 25
2, 155583, Note_off_c, 0, 45, 64
2, 155648, Note_on_c, 0, 57, 54
2, 155648, Note_on_c, 0, 50, 29
2, 155650, Note_on_c, 0, 84, 72
2, 155661, Note_off_c, 0, 86, 64
2, 155665, Note_off_c, 0, 62, 64
2, 155711, Control_c, 0, 64, 0
2, 155730, Note_off_c, 0, 50, 64
2, 155730, Note_off_c, 0, 57, 64
2, 155735, Note_off_c, 0, 78, 64
2, 155744, Note_on_c, 0, 79, 71
2, 155745, Note_on_c, 0, 82, 79
2, 155750, Note_on_c, 0, 43, 60
2, 155757, Control_c, 0, 64, 127
2, 155773, Note_off_c, 0, 84, 64
2, 155782, Note_off_c, 0, 74, 64
2, 155799, Note_off_c, 0, 79, 64
2, 155800, Note_off_c, 0, 82, 64
2, 155836, Note_on_c, 0, 62, 26
2, 155842, Note_on_c, 0, 73, 78
2, 155875, Note_off_c, 0, 43, 64
2, 155876, Note_on_c, 0, 74, 65
2, 155880, Note_off_c, 0, 73, 64
2, 155912, Note_on_c, 0, 58, 54
2, 155912, Note_on_c, 0, 50, 27
2, 155915, Note_off_c, 0, 74, 64
2, 155915, Note_on_c, 0, 77, 66
2, 155940, Note_on_c, 0, 75, 54
2, 155946, Note_off_c, 0, 62, 64
2, 155960, Note_off_c, 0, 77, 64
2, 155978, Note_on_c, 0, 74, 68
2, 155983, Note_off_c, 0, 75, 64
2, 155994, Note_off_c, 0, 50, 64
2, 155994, Note_off_c, 0, 58, 64
2, 155995, Note_off_c, 0, 74, 64
2, 156002, Note_on_c, 0, 48, 64
2, 156008, Note_on_c, 0, 74, 95
2, 156009, Control_c, 0, 64, 0
2, 156046, Control_c, 0, 64, 127
2, 156108, Note_on_c, 0, 70, 73
2, 156110, Note_on_c, 0, 82, 81
2, 156112, Note_on_c, 0, 62, 36
2, 156212, Note_on_c, 0, 57, 44
2, 156212, Note_on_c, 0, 54, 51
2, 156216, Note_on_c, 0, 69, 75
2, 156219, Note_on_c, 0, 81, 69
2, 156222, Note_off_c, 0, 62, 64
2, 156226, Note_off_c, 0, 70, 64
2, 156228, Note_off_c, 0, 82, 64
2, 156232, Note_off_c, 0, 48, 64
2, 156267, Control_c, 0, 64, 0
2, 156294, Note_off_c, 0, 54, 64
2, 156294, Note_off_c, 0, 57, 64
2, 156300, Note_on_c, 0, 67, 75
2, 156304, Note_on_c, 0, 46, 75
2, 156305, Note_on_c, 0, 79, 76
2, 156308, Note_off_c, 0, 69, 64
2, 156311, Note_off_c, 0, 81, 64
2, 156317, Control_c, 0, 64, 127
2, 156342, Note_off_c, 0, 74, 64
2, 156352, Note_off_c, 0, 67, 64
2, 156357, Note_off_c, 0, 79, 64
2, 156408, Note_on_c, 0, 73, 78
2, 156408, Note_on_c, 0, 62, 29
2, 156429, Note_off_c, 0, 46, 64
2, 156444, Note_on_c, 0, 74, 65
2, 156455, Note_off_c, 0, 73, 64
2, 156480, Note_on_c, 0, 77, 78
2, 156480, Note_on_c, 0, 55, 49
2, 156480, Note_on_c, 0, 50, 34
2, 156487, Note_off_c, 0, 74, 64
2, 156500, Note_on_c, 0, 75, 65
2, 156518, Note_off_c, 0, 62, 64
2, 156523, Note_off_c, 0, 77, 64
2, 156527, Control_c, 0, 64, 0
2, 156536, Note_on_c, 0, 74, 81
2, 156544, Note_off_c, 0, 75, 64
2, 156562, Note_off_c, 0, 74, 64
2, 156562, Note_off_c, 0, 50, 64
2, 156562, Note_off_c, 0, 55, 64
2, 156574, Note_on_c, 0, 45, 60
2, 156576, Control_c, 0, 64, 127
2, 156582, Note_on_c, 0, 74, 87
2, 156666, Note_on_c, 0, 78, 77
2, 156670, Note_on_c, 0, 86, 69
2, 156676, Note_on_c, 0, 62, 39
2, 156699, Note_off_c, 0, 45, 64
2, 156768, Note_on_c, 0, 57, 43
2, 156772, Note_on_c, 0, 84, 70
2, 156773, Note_on_c, 0, 50, 57
2, 156780, Note_off_c, 0, 86, 64
2, 156786, Note_off_c, 0, 62, 64
2, 156828, Control_c, 0, 64, 0
2, 156850, Note_off_c, 0, 57, 64
2, 156851, Note_off_c, 0, 78, 64
2, 156855, Note_off_c, 0, 50, 64
2, 156856, Note_on_c, 0, 79, 71
2, 156859, Note_on_c, 0, 82, 71
2, 156861, Note_off_c, 0, 84, 64
2, 156861, Note_on_c, 0, 43, 62
2, 156871, Control_c, 0, 64, 127
2, 156893, Note_off_c, 0, 74, 64
2, 156895, Note_off_c, 0, 79, 64
2, 156898, Note_off_c, 0, 82, 64
2, 156972, Note_on_c, 0, 66, 78
2, 156973, Note_on_c, 0, 62, 33
2, 156986, Note_off_c, 0, 43, 64
2, 157008, Note_on_c, 0, 67, 65
2, 157023, Note_off_c, 0, 66, 64
2, 157044, Note_on_c, 0, 70, 78
2, 157044, Note_on_c, 0, 55, 51
2, 157046, Note_off_c, 0, 67, 64
2, 157072, Note_on_c, 0, 68, 65
2, 157074, Note_off_c, 0, 62, 64
2, 157096, Control_c, 0, 64, 0
2, 157100, Note_on_c, 0, 67, 81
2, 157110, Note_off_c, 0, 70, 64
2, 157124, Note_off_c, 0, 68, 64
2, 157126, Note_off_c, 0, 55, 64
2, 157131, Note_off_c, 0, 67, 64
2, 157139, Note_on_c, 0, 47, 65
2, 157148, Note_on_c, 0, 67, 87
2, 157149, Control_c, 0, 64, 127
2, 157244, Note_on_c, 0, 74, 49
2, 157244, Note_on_c, 0, 62, 42
2, 157248, Note_on_c, 0, 79, 75
2, 157293, Note_off_c, 0, 47, 64
2, 157333, Note_on_c, 0, 77, 69
2, 157338, Note_off_c, 0, 79, 64
2, 157339, Note_on_c, 0, 55, 42
2, 157354, Note_off_c, 0, 62, 64
2, 157395, Control_c, 0, 64, 0
2, 157414, Note_off_c, 0, 77, 64
2, 157421, Note_off_c, 0, 55, 64
2, 157424, Note_on_c, 0, 72, 59
2, 157426, Note_on_c, 0, 48, 66
2, 157427, Note_on_c, 0, 75, 76
2, 157429, Note_off_c, 0, 74, 64
2, 157438, Control_c, 0, 64, 127
2, 157457, Note_off_c, 0, 72, 64
2, 157460, Note_off_c, 0, 75, 64
2, 157466, Note_off_c, 0, 67, 64
2, 157532, Note_on_c, 0, 78, 78
2, 157534, Note_on_c, 0, 63, 45
2, 157551, Note_off_c, 0, 48, 64
2, 157571, Note_on_c, 0, 79, 65
2, 157590, Note_off_c, 0, 78, 64
2, 157596, Note_on_c, 0, 55, 43
2, 157600, Note_on_c, 0, 82, 65
2, 157616, Note_off_c, 0, 79, 64
2, 157628, Note_on_c, 0, 80, 65
2, 157644, Note_off_c, 0, 63, 64
2, 157662, Note_on_c, 0, 79, 65
2, 157665, Note_off_c, 0, 82, 64
2, 157673, Note_off_c, 0, 80, 64
2, 157673, Note_off_c, 0, 55, 64
2, 157674, Control_c, 0, 64, 0
2, 157696, Note_off_c, 0, 79, 64
2, 157702, Note_on_c, 0, 50, 73
2, 157709, Note_on_c, 0, 79, 95
2, 157716, Control_c, 0, 64, 127
2, 157794, Note_on_c, 0, 83, 60
2, 157798, Note_on_c, 0, 91, 71
2, 157803, Note_on_c, 0, 65, 37
2, 157827, Note_off_c, 0, 50, 64
2, 157888, Note_on_c, 0, 55, 54
2, 157892, Note_on_c, 0, 89, 70
2, 157894, Note_on_c, 0, 59, 56
2, 157912, Note_off_c, 0, 91, 64
2, 157913, Note_off_c, 0, 65, 64
2, 157944, Control_c, 0, 64, 0
2, 157970, Note_off_c, 0, 55, 64
2, 157972, Note_on_c, 0, 87, 84
2, 157976, Note_off_c, 0, 59, 64
2, 157979, Note_off_c, 0, 83, 64
2, 157980, Note_on_c, 0, 84, 60
2, 157981, Note_on_c, 0, 51, 75
2, 157993, Control_c, 0, 64, 127
2, 157996, Note_off_c, 0, 89, 64
2, 158002, Note_off_c, 0, 79, 64
2, 158011, Note_off_c, 0, 87, 64
2, 158019, Note_off_c, 0, 84, 64
2, 158068, Note_on_c, 0, 67, 35
2, 158071, Note_on_c, 0, 78, 78
2, 158106, Note_off_c, 0, 51, 64
2, 158119, Note_off_c, 0, 78, 64
2, 158122, Note_on_c, 0, 79, 65
2, 158168, Note_on_c, 0, 82, 65
2, 158168, Note_on_c, 0, 60, 21
2, 158168, Note_on_c, 0, 55, 54
2, 158178, Note_off_c, 0, 79, 64
2, 158178, Note_off_c, 0, 67, 64
2, 158200, Note_on_c, 0, 80, 65
2, 158212, Note_off_c, 0, 82, 64
2, 158222, Control_c, 0, 64, 0
2, 158232, Note_on_c, 0, 79, 65
2, 158239, Note_off_c, 0, 80, 64
2, 158250, Note_off_c, 0, 55, 64
2, 158250, Note_off_c, 0, 60, 64
2, 158254, Note_off_c, 0, 79, 64
2, 158264, Note_on_c, 0, 53, 66
2, 158264, Control_c, 0, 64, 127
2, 158274, Note_on_c, 0, 79, 88
2, 158360, Note_on_c, 0, 67, 40
2, 158365, Note_on_c, 0, 75, 64
2, 158367, Note_on_c, 0, 87, 75
2, 158461, Note_on_c, 0, 86, 58
2, 158466, Note_on_c, 0, 74, 59
2, 158470, Note_off_c, 0, 67, 64
2, 158472, Note_off_c, 0, 75, 64
2, 158473, Note_on_c, 0, 59, 51
2, 158473, Note_on_c, 0, 55, 54
2, 158474, Note_off_c, 0, 87, 64
2, 158494, Note_off_c, 0, 53, 64
2, 158543, Control_c, 0, 64, 0
2, 158555, Note_off_c, 0, 55, 64
2, 158555, Note_off_c, 0, 59, 64
2, 158556, Control_c, 0, 64, 127
2, 158561, Note_off_c, 0, 86, 64
2, 158562, Note_on_c, 0, 84, 67
2, 158562, Note_on_c, 0, 51, 82
2, 158566, Note_off_c, 0, 74, 64
2, 158570, Note_on_c, 0, 72, 77
2, 158579, Note_off_c, 0, 79, 64
2, 158588, Note_off_c, 0, 84, 64
2, 158592, Note_off_c, 0, 72, 64
2, 158664, Note_on_c, 0, 63, 32
2, 158667, Note_on_c, 0, 66, 78
2, 158706, Note_off_c, 0, 66, 64
2, 158714, Note_on_c, 0, 67, 65
2, 158750, Note_off_c, 0, 67, 64
2, 158752, Note_on_c, 0, 70, 65
2, 158752, Note_on_c, 0, 60, 38
2, 158752, Note_on_c, 0, 55, 60
2, 158774, Note_off_c, 0, 63, 64
2, 158776, Note_on_c, 0, 68, 65
2, 158792, Note_off_c, 0, 51, 64
2, 158795, Control_c, 0, 64, 0
2, 158800, Note_on_c, 0, 67, 65
2, 158815, Note_off_c, 0, 70, 64
2, 158832, Note_off_c, 0, 67, 64
2, 158834, Note_off_c, 0, 68, 64
2, 158834, Note_off_c, 0, 55, 64
2, 158834, Note_off_c, 0, 60, 64
2, 158837, Note_on_c, 0, 50, 72
2, 158846, Note_on_c, 0, 67, 86
2, 158846, Control_c, 0, 64, 127
2, 158932, Note_on_c, 0, 71, 52
2, 158932, Note_on_c, 0, 62, 36
2, 158935, Note_on_c, 0, 79, 70
2, 159027, Note_on_c, 0, 77, 75
2, 159027, Note_on_c, 0, 55, 54
2, 159029, Note_off_c, 0, 79, 64
2, 159035, Note_off_c, 0, 62, 64
2, 159067, Note_off_c, 0, 50, 64
2, 159079, Control_c, 0, 64, 0
2, 159109, Note_off_c, 0, 55, 64
2, 159116, Note_on_c, 0, 75, 84
2, 159116, Note_on_c, 0, 72, 60
2, 159116, Note_on_c, 0, 48, 75
2, 159117, Note_off_c, 0, 71, 64
2, 159127, Control_c, 0, 64, 127
2, 159130, Note_off_c, 0, 77, 64
2, 159147, Note_off_c, 0, 67, 64
2, 159158, Note_off_c, 0, 72, 64
2, 159158, Note_off_c, 0, 75, 64
2, 159216, Note_on_c, 0, 60, 45
2, 159218, Note_on_c, 0, 62, 78
2, 159256, Note_on_c, 0, 63, 65
2, 159292, Note_off_c, 0, 62, 64
2, 159293, Note_off_c, 0, 63, 64
2, 159296, Note_on_c, 0, 67, 65
2, 159296, Note_on_c, 0, 55, 48
2, 159296, Note_on_c, 0, 51, 41
2, 159324, Note_on_c, 0, 65, 65
2, 159326, Note_off_c, 0, 60, 64
2, 159341, Note_off_c, 0, 67, 64
2, 159346, Note_off_c, 0, 48, 64
2, 159355, Note_on_c, 0, 63, 65
2, 159357, Control_c, 0, 64, 0
2, 159374, Note_off_c, 0, 65, 64
2, 159378, Note_off_c, 0, 51, 64
2, 159378, Note_off_c, 0, 55, 64
2, 159380, Note_off_c, 0, 63, 64
2, 159392, Note_on_c, 0, 63, 93
2, 159398, Note_on_c, 0, 46, 81
2, 159400, Control_c, 0, 64, 127
2, 159490, Note_on_c, 0, 61, 48
2, 159496, Note_on_c, 0, 75, 70
2, 159496, Note_on_c, 0, 67, 69
2, 159572, Note_on_c, 0, 73, 71
2, 159572, Note_on_c, 0, 55, 33
2, 159572, Note_on_c, 0, 51, 35
2, 159577, Note_off_c, 0, 75, 64
2, 159600, Note_off_c, 0, 61, 64
2, 159628, Note_off_c, 0, 46, 64
2, 159634, Control_c, 0, 64, 0
2, 159654, Note_off_c, 0, 51, 64
2, 159654, Note_off_c, 0, 55, 64
2, 159665, Note_off_c, 0, 67, 64
2, 159665, Note_on_c, 0, 71, 72
2, 159665, Note_on_c, 0, 68, 72
2, 159665, Note_on_c, 0, 44, 77
2, 159666, Note_off_c, 0, 73, 64
2, 159677, Control_c, 0, 64, 127
2, 159687, Note_off_c, 0, 63, 64
2, 159694, Note_off_c, 0, 68, 64
2, 159694, Note_off_c, 0, 71, 64
2, 159756, Note_on_c, 0, 74, 78
2, 159760, Note_on_c, 0, 59, 42
2, 159790, Note_off_c, 0, 44, 64
2, 159792, Note_on_c, 0, 75, 65
2, 159812, Note_off_c, 0, 74, 64
2, 159828, Note_on_c, 0, 56, 54
2, 159828, Note_on_c, 0, 51, 42
2, 159836, Note_on_c, 0, 78, 65
2, 159838, Note_off_c, 0, 75, 64
2, 159864, Note_on_c, 0, 76, 65
2, 159870, Note_off_c, 0, 59, 64
2, 159889, Control_c, 0, 64, 0
2, 159899, Note_off_c, 0, 78, 64
2, 159900, Note_on_c, 0, 75, 65
2, 159910, Note_off_c, 0, 56, 64
2, 159913, Note_off_c, 0, 76, 64
2, 159922, Note_off_c, 0, 75, 64
2, 159924, Note_on_c, 0, 43, 69
2, 159925, Note_on_c, 0, 75, 93
2, 159928, Note_off_c, 0, 51, 64
2, 159933, Control_c, 0, 64, 127
2, 160016, Note_on_c, 0, 82, 65
2, 160016, Note_on_c, 0, 63, 40
2, 160017, Note_on_c, 0, 87, 70
2, 160049, Note_off_c, 0, 43, 64
2, 160112, Note_on_c, 0, 85, 70
2, 160117, Note_on_c, 0, 51, 46
2, 160119, Note_off_c, 0, 63, 64
2, 160119, Note_on_c, 0, 58, 49
2, 160142, Note_off_c, 0, 87, 64
2, 160166, Control_c, 0, 64, 0
2, 160181, Note_off_c, 0, 82, 64
2, 160196, Note_on_c, 0, 80, 60
2, 160198, Note_on_c, 0, 83, 75
2, 160199, Note_off_c, 0, 51, 64
2, 160200, Note_off_c, 0, 85, 64
2, 160201, Note_off_c, 0, 58, 64
2, 160205, Note_on_c, 0, 44, 81
2, 160215, Control_c, 0, 64, 127
2, 160229, Note_off_c, 0, 75, 64
2, 160240, Note_off_c, 0, 80, 64
2, 160242, Note_off_c, 0, 83, 64
2, 160284, Note_on_c, 0, 63, 41
2, 160290, Note_on_c, 0, 74, 78
2, 160319, Note_on_c, 0, 75, 65
2, 160330, Note_off_c, 0, 44, 64
2, 160352, Note_off_c, 0, 74, 64
2, 160361, Note_on_c, 0, 78, 65
2, 160364, Note_on_c, 0, 59, 41
2, 160364, Note_on_c, 0, 56, 54
2, 160364, Note_on_c, 0, 51, 42
2, 160378, Note_off_c, 0, 75, 64
2, 160384, Note_on_c, 0, 76, 65
2, 160394, Note_off_c, 0, 63, 64
2, 160410, Note_off_c, 0, 78, 64
2, 160422, Note_on_c, 0, 75, 65
2, 160432, Control_c, 0, 64, 0
2, 160436, Note_off_c, 0, 76, 64
2, 160446, Note_off_c, 0, 51, 64
2, 160446, Note_off_c, 0, 56, 64
2, 160446, Note_off_c, 0, 59, 64
2, 160461, Note_off_c, 0, 75, 64
2, 160468, Note_on_c, 0, 75, 78
2, 160470, Control_c, 0, 64, 127
2, 160480, Note_on_c, 0, 46, 75
2, 160560, Note_on_c, 0, 63, 39
2, 160564, Note_on_c, 0, 83, 75
2, 160564, Note_on_c, 0, 71, 75
2, 160605, Note_off_c, 0, 46, 64
2, 160636, Note_on_c, 0, 51, 27
2, 160640, Note_on_c, 0, 61, 54
2, 160640, Note_on_c, 0, 55, 32
2, 160648, Note_on_c, 0, 82, 70
2, 160649, Note_on_c, 0, 70, 78
2, 160652, Note_off_c, 0, 71, 64
2, 160652, Note_off_c, 0, 83, 64
2, 160670, Note_off_c, 0, 63, 64
2, 160712, Control_c, 0, 64, 0
2, 160718, Note_off_c, 0, 51, 64
2, 160722, Note_off_c, 0, 55, 64
2, 160722, Note_off_c, 0, 61, 64
2, 160735, Note_off_c, 0, 82, 64
2, 160735, Note_on_c, 0, 47, 67
2, 160736, Note_off_c, 0, 70, 64
2, 160738, Note_on_c, 0, 80, 76
2, 160738, Note_on_c, 0, 68, 81
2, 160753, Note_off_c, 0, 75, 64
2, 160755, Control_c, 0, 64, 127
2, 160785, Note_off_c, 0, 68, 64
2, 160785, Note_off_c, 0, 80, 64
2, 160836, Note_on_c, 0, 74, 78
2, 160836, Note_on_c, 0, 63, 48
2, 160860, Note_off_c, 0, 47, 64
2, 160866, Note_on_c, 0, 75, 65
2, 160894, Note_off_c, 0, 74, 64
2, 160902, Note_on_c, 0, 56, 42
2, 160904, Note_on_c, 0, 59, 21
2, 160908, Note_on_c, 0, 78, 65
2, 160908, Note_on_c, 0, 51, 42
2, 160940, Note_on_c, 0, 76, 65
2, 160946, Note_off_c, 0, 63, 64
2, 160948, Note_off_c, 0, 78, 64
2, 160950, Note_off_c, 0, 75, 64
2, 160952, Control_c, 0, 64, 0
2, 160968, Note_off_c, 0, 76, 64
2, 160968, Note_on_c, 0, 75, 65
2, 160984, Note_off_c, 0, 56, 64
2, 160986, Note_off_c, 0, 59, 64
2, 160990, Note_off_c, 0, 51, 64
2, 160991, Note_off_c, 0, 75, 64
2, 160992, Control_c, 0, 64, 127
2, 160996, Note_on_c, 0, 43, 76
2, 161002, Note_on_c, 0, 75, 94
2, 161088, Note_on_c, 0, 87, 71
2, 161089, Note_on_c, 0, 63, 53
2, 161094, Note_on_c, 0, 82, 69
2, 161121, Note_off_c, 0, 43, 64
2, 161171, Note_off_c, 0, 87, 64
2, 161171, Note_on_c, 0, 85, 68
2, 161176, Note_on_c, 0, 58, 54
2, 161178, Note_on_c, 0, 82, 83
2, 161178, Note_on_c, 0, 51, 54
2, 161189, Note_off_c, 0, 63, 64
2, 161204, Note_off_c, 0, 82, 64
2, 161212, Note_off_c, 0, 82, 64
2, 161250, Control_c, 0, 64, 0
2, 161258, Note_off_c, 0, 58, 64
2, 161260, Note_off_c, 0, 51, 64
2, 161264, Note_on_c, 0, 83, 75
2, 161264, Note_on_c, 0, 80, 73
2, 161270, Note_off_c, 0, 85, 64
2, 161272, Note_on_c, 0, 44, 82
2, 161274, Control_c, 0, 64, 127
2, 161290, Note_off_c, 0, 75, 64
2, 161328, Note_off_c, 0, 80, 64
2, 161328, Note_off_c, 0, 83, 64
2, 161364, Note_on_c, 0, 63, 54
2, 161366, Note_on_c, 0, 74, 78
2, 161397, Note_off_c, 0, 44, 64
2, 161415, Note_on_c, 0, 75, 65
2, 161425, Note_off_c, 0, 74, 64
2, 161448, Note_on_c, 0, 59, 43
2, 161448, Note_on_c, 0, 56, 54
2, 161448, Note_on_c, 0, 51, 30
2, 161452, Note_on_c, 0, 78, 65
2, 161455, Note_off_c, 0, 75, 64
2, 161474, Note_off_c, 0, 63, 64
2, 161480, Note_on_c, 0, 76, 65
2, 161505, Control_c, 0, 64, 0
2, 161510, Note_off_c, 0, 78, 64
2, 161512, Note_on_c, 0, 75, 65
2, 161527, Note_off_c, 0, 76, 64
2, 161530, Note_off_c, 0, 51, 64
2, 161530, Note_off_c, 0, 56, 64
2, 161530, Note_off_c, 0, 59, 64
2, 161538, Note_off_c, 0, 75, 64
2, 161544, Note_on_c, 0, 75, 87
2, 161545, Control_c, 0, 64, 127
2, 161556, Note_on_c, 0, 46, 79
2, 161640, Note_on_c, 0, 83, 72
2, 161644, Note_on_c, 0, 71, 71
2, 161644, Note_on_c, 0, 63, 57
2, 161681, Note_off_c, 0, 46, 64
2, 161732, Note_on_c, 0, 70, 88
2, 161732, Note_on_c, 0, 61, 57
2, 161732, Note_on_c, 0, 55, 27
2, 161736, Note_on_c, 0, 51, 44
2, 161738, Note_on_c, 0, 82, 78
2, 161747, Note_off_c, 0, 63, 64
2, 161748, Note_off_c, 0, 83, 64
2, 161752, Note_off_c, 0, 71, 64
2, 161814, Note_off_c, 0, 55, 64
2, 161814, Note_off_c, 0, 61, 64
2, 161818, Note_off_c, 0, 51, 64
2, 161870, Control_c, 0, 64, 0
2, 161879, Note_off_c, 0, 75, 64
2, 161884, Note_on_c, 0, 68, 93
2, 161884, Note_on_c, 0, 47, 73
2, 161887, Note_off_c, 0, 70, 64
2, 161888, Note_on_c, 0, 76, 78
2, 161891, Note_on_c, 0, 80, 81
2, 161893, Note_off_c, 0, 82, 64
2, 161896, Note_on_c, 0, 35, 71
2, 161907, Control_c, 0, 64, 127
2, 161985, Note_off_c, 0, 68, 64
2, 161989, Note_off_c, 0, 76, 64
2, 161992, Note_off_c, 0, 80, 64
2, 162074, Note_on_c, 0, 56, 80
2, 162078, Note_on_c, 0, 64, 73
2, 162139, Note_on_c, 0, 83, 90
2, 162148, Note_off_c, 0, 47, 64
2, 162160, Note_off_c, 0, 35, 64
2, 162169, Control_c, 0, 64, 127
2, 162178, Note_off_c, 0, 64, 64
2, 162179, Note_on_c, 0, 71, 61
2, 162184, Note_on_c, 0, 92, 81
2, 162184, Note_on_c, 0, 59, 76
2, 162205, Note_off_c, 0, 56, 64
2, 162213, Note_off_c, 0, 83, 64
2, 162272, Note_on_c, 0, 90, 81
2, 162291, Note_off_c, 0, 59, 64
2, 162298, Note_off_c, 0, 92, 64
2, 162329, Note_on_c, 0, 88, 81
2, 162348, Note_off_c, 0, 90, 64
2, 162368, Note_on_c, 0, 83, 81
2, 162368, Note_on_c, 0, 64, 56
2, 162370, Note_off_c, 0, 71, 64
2, 162372, Note_on_c, 0, 56, 73
2, 162386, Note_off_c, 0, 88, 64
2, 162408, Note_on_c, 0, 80, 81
2, 162428, Note_off_c, 0, 83, 64
2, 162446, Note_on_c, 0, 78, 87
2, 162450, Note_off_c, 0, 80, 64
2, 162451, Note_on_c, 0, 71, 48
2, 162451, Note_on_c, 0, 59, 69
2, 162468, Note_off_c, 0, 64, 64
2, 162486, Note_off_c, 0, 56, 64
2, 162498, Note_on_c, 0, 76, 82
2, 162509, Note_off_c, 0, 78, 64
2, 162526, Note_off_c, 0, 71, 64
2, 162542, Note_on_c, 0, 71, 85
2, 162551, Note_off_c, 0, 59, 64
2, 162558, Note_off_c, 0, 76, 64
2, 162586, Note_on_c, 0, 68, 88
2, 162595, Note_off_c, 0, 71, 64
2, 162626, Note_on_c, 0, 66, 90
2, 162643, Note_off_c, 0, 68, 64
2, 162657, Note_on_c, 0, 64, 92
2, 162707, Note_on_c, 0, 59, 95
2, 162709, Note_off_c, 0, 66, 64
2, 162719, Note_off_c, 0, 64, 64
2, 162778, Note_off_c, 0, 59, 64
2, 162916, Control_c, 0, 64, 0
2, 162982, Note_on_c, 0, 75, 63
2, 162984, Note_on_c, 0, 35, 72
2, 162993, Note_on_c, 0, 47, 55
2, 163003, Control_c, 0, 64, 127
2, 163022, Note_off_c, 0, 75, 64
2, 163030, Note_on_c, 0, 76, 54
2, 163068, Note_on_c, 0, 78, 63
2, 163081, Note_off_c, 0, 76, 64
2, 163109, Note_off_c, 0, 35, 64
2, 163118, Note_off_c, 0, 47, 64
2, 163118, Note_on_c, 0, 80, 66
2, 163121, Note_off_c, 0, 78, 64
2, 163154, Note_off_c, 0, 80, 64
2, 163158, Note_on_c, 0, 81, 64
2, 163192, Note_on_c, 0, 83, 75
2, 163212, Note_off_c, 0, 81, 64
2, 163224, Note_on_c, 0, 66, 57
2, 163224, Note_on_c, 0, 60, 48
2, 163224, Note_on_c, 0, 57, 53
2, 163225, Note_on_c, 0, 63, 54
2, 163228, Note_on_c, 0, 84, 72
2, 163246, Note_off_c, 0, 83, 64
2, 163268, Note_off_c, 0, 57, 64
2, 163268, Note_off_c, 0, 60, 64
2, 163268, Note_off_c, 0, 66, 64
2, 163269, Note_off_c, 0, 63, 64
2, 163300, Note_off_c, 0, 84, 64
2, 163312, Note_on_c, 0, 68, 69
2, 163312, Note_on_c, 0, 63, 53
2, 163312, Note_on_c, 0, 60, 48
2, 163312, Note_on_c, 0, 57, 51
2, 163340, Note_off_c, 0, 57, 64
2, 163342, Note_off_c, 0, 60, 64
2, 163344, Note_off_c, 0, 63, 64
2, 163344, Note_off_c, 0, 68, 64
2, 163392, Note_on_c, 0, 63, 60
2, 163392, Note_on_c, 0, 60, 48
2, 163392, Note_on_c, 0, 57, 53
2, 163394, Note_on_c, 0, 66, 64
2, 163422, Note_off_c, 0, 60, 64
2, 163427, Note_off_c, 0, 63, 64
2, 163428, Note_off_c, 0, 66, 64
2, 163433, Note_off_c, 0, 57, 64
2, 163472, Note_on_c, 0, 60, 46
2, 163476, Note_on_c, 0, 66, 63
2, 163476, Note_on_c, 0, 57, 57
2, 163479, Note_on_c, 0, 63, 61
2, 163483, Note_on_c, 0, 84, 70
2, 163513, Note_on_c, 0, 83, 66
2, 163532, Note_off_c, 0, 84, 64
2, 163536, Note_off_c, 0, 60, 64
2, 163540, Note_off_c, 0, 57, 64
2, 163540, Note_off_c, 0, 66, 64
2, 163543, Note_off_c, 0, 63, 64
2, 163551, Note_on_c, 0, 81, 72
2, 163554, Note_off_c, 0, 83, 64
2, 163591, Note_off_c, 0, 81, 64
2, 163593, Note_on_c, 0, 80, 75
2, 163633, Note_on_c, 0, 78, 72
2, 163652, Note_off_c, 0, 80, 64
2, 163678, Note_off_c, 0, 78, 64
2, 163679, Note_on_c, 0, 76, 75
2, 163713, Note_on_c, 0, 47, 60
2, 163713, Note_on_c, 0, 35, 75
2, 163718, Note_on_c, 0, 75, 75
2, 163730, Note_off_c, 0, 76, 64
2, 163797, Note_off_c, 0, 75, 64
2, 163799, Note_on_c, 0, 33, 85
2, 163800, Note_on_c, 0, 45, 66
2, 163802, Note_off_c, 0, 35, 64
2, 163802, Note_off_c, 0, 47, 64
2, 163879, Note_off_c, 0, 33, 64
2, 163879, Note_on_c, 0, 48, 71
2, 163880, Note_off_c, 0, 45, 64
2, 163882, Note_on_c, 0, 36, 60
2, 163926, Control_c, 0, 64, 0
2, 163944, Note_on_c, 0, 35, 69
2, 163954, Note_off_c, 0, 48, 64
2, 163956, Note_on_c, 0, 80, 87
2, 163957, Note_off_c, 0, 36, 64
2, 163958, Note_on_c, 0, 47, 93
2, 163973, Note_on_c, 0, 92, 95
2, 163975, Control_c, 0, 64, 127
2, 163993, Note_off_c, 0, 80, 64
2, 164055, Note_on_c, 0, 64, 62
2, 164056, Note_on_c, 0, 56, 66
2, 164069, Note_off_c, 0, 35, 64
2, 164083, Note_off_c, 0, 47, 64
2, 164130, Note_off_c, 0, 64, 64
2, 164131, Note_off_c, 0, 56, 64
2, 164134, Note_on_c, 0, 64, 63
2, 164136, Note_on_c, 0, 56, 71
2, 164215, Note_on_c, 0, 59, 62
2, 164218, Note_on_c, 0, 71, 68
2, 164219, Note_off_c, 0, 64, 64
2, 164221, Note_off_c, 0, 56, 64
2, 164276, Note_off_c, 0, 71, 64
2, 164278, Note_off_c, 0, 59, 64
2, 164308, Note_on_c, 0, 90, 81
2, 164346, Note_off_c, 0, 92, 64
2, 164352, Note_on_c, 0, 88, 81
2, 164352, Note_on_c, 0, 64, 53
2, 164352, Note_on_c, 0, 56, 56
2, 164383, Note_off_c, 0, 90, 64
2, 164395, Note_off_c, 0, 56, 64
2, 164396, Note_off_c, 0, 64, 64
2, 164396, Note_on_c, 0, 83, 81
2, 164400, Note_on_c, 0, 64, 74
2, 164400, Note_on_c, 0, 56, 64
2, 164401, Note_off_c, 0, 88, 64
2, 164454, Note_on_c, 0, 80, 80
2, 164461, Note_off_c, 0, 83, 64
2, 164485, Note_off_c, 0, 56, 64
2, 164485, Note_off_c, 0, 64, 64
2, 164491, Note_on_c, 0, 78, 79
2, 164496, Note_on_c, 0, 71, 68
2, 164496, Note_on_c, 0, 59, 61
2, 164512, Note_off_c, 0, 80, 64
2, 164536, Note_on_c, 0, 76, 81
2, 164554, Note_off_c, 0, 78, 64
2, 164564, Note_off_c, 0, 71, 64
2, 164581, Note_off_c, 0, 59, 64
2, 164586, Note_on_c, 0, 71, 84
2, 164600, Note_off_c, 0, 76, 64
2, 164632, Note_on_c, 0, 68, 86
2, 164646, Note_off_c, 0, 71, 64
2, 164668, Note_on_c, 0, 66, 89
2, 164684, Note_off_c, 0, 68, 64
2, 164706, Note_on_c, 0, 64, 91
2, 164730, Note_off_c, 0, 66, 64
2, 164756, Note_on_c, 0, 59, 94
2, 164762, Note_off_c, 0, 64, 64
2, 164831, Note_off_c, 0, 59, 64
2, 164955, Control_c, 0, 64, 0
2, 164997, Note_on_c, 0, 38, 56
2, 165002, Note_on_c, 0, 77, 76
2, 165002, Note_on_c, 0, 50, 56
2, 165020, Control_c, 0, 64, 127
2, 165043, Note_on_c, 0, 78, 69
2, 165061, Note_off_c, 0, 77, 64
2, 165090, Note_on_c, 0, 80, 74
2, 165103, Note_off_c, 0, 78, 64
2, 165116, Note_off_c, 0, 80, 64
2, 165122, Note_off_c, 0, 38, 64
2, 165127, Note_off_c, 0, 50, 64
2, 165130, Note_on_c, 0, 81, 73
2, 165178, Note_on_c, 0, 83, 60
2, 165187, Note_off_c, 0, 81, 64
2, 165202, Note_on_c, 0, 85, 67
2, 165230, Note_off_c, 0, 83, 64
2, 165232, Note_on_c, 0, 68, 57
2, 165232, Note_on_c, 0, 66, 39
2, 165232, Note_on_c, 0, 59, 48
2, 165234, Note_on_c, 0, 86, 72
2, 165269, Note_off_c, 0, 85, 64
2, 165318, Note_off_c, 0, 86, 64
2, 165318, Note_off_c, 0, 59, 64
2, 165318, Note_off_c, 0, 66, 64
2, 165318, Note_off_c, 0, 68, 64
2, 165324, Note_on_c, 0, 66, 54
2, 165328, Note_on_c, 0, 59, 48
2, 165329, Note_on_c, 0, 69, 36
2, 165368, Control_c, 0, 64, 0
2, 165402, Note_off_c, 0, 66, 64
2, 165406, Note_off_c, 0, 59, 64
2, 165407, Note_off_c, 0, 69, 64
2, 165412, Note_on_c, 0, 68, 67
2, 165412, Note_on_c, 0, 66, 48
2, 165412, Note_on_c, 0, 59, 54
2, 165413, Control_c, 0, 64, 127
2, 165460, Note_off_c, 0, 59, 64
2, 165460, Note_off_c, 0, 66, 64
2, 165460, Note_off_c, 0, 68, 64
2, 165488, Note_on_c, 0, 65, 50
2, 165488, Note_on_c, 0, 59, 64
2, 165493, Note_on_c, 0, 68, 54
2, 165507, Note_on_c, 0, 86, 71
2, 165550, Note_on_c, 0, 85, 74
2, 165593, Note_off_c, 0, 86, 64
2, 165600, Note_on_c, 0, 83, 78
2, 165615, Note_off_c, 0, 59, 64
2, 165615, Note_off_c, 0, 65, 64
2, 165620, Note_off_c, 0, 85, 64
2, 165620, Note_off_c, 0, 68, 64
2, 165634, Note_on_c, 0, 81, 80
2, 165640, Note_off_c, 0, 83, 64
2, 165678, Note_off_c, 0, 81, 64
2, 165683, Note_on_c, 0, 80, 84
2, 165719, Note_on_c, 0, 78, 87
2, 165739, Note_off_c, 0, 80, 64
2, 165772, Note_on_c, 0, 50, 82
2, 165777, Note_on_c, 0, 77, 93
2, 165779, Note_on_c, 0, 38, 74
2, 165786, Note_off_c, 0, 78, 64
2, 165865, Note_on_c, 0, 36, 79
2, 165867, Note_off_c, 0, 50, 64
2, 165869, Note_on_c, 0, 48, 79
2, 165874, Note_off_c, 0, 38, 64
2, 165950, Note_off_c, 0, 36, 64
2, 165953, Note_on_c, 0, 49, 93
2, 165953, Note_on_c, 0, 37, 88
2, 165954, Note_off_c, 0, 48, 64
2, 165991, Note_off_c, 0, 77, 64
2, 166020, Control_c, 0, 64, 0
2, 166048, Note_off_c, 0, 37, 64
2, 166048, Note_off_c, 0, 49, 64
2, 166048, Note_on_c, 0, 52, 90
2, 166049, Note_on_c, 0, 79, 85
2, 166049, Note_on_c, 0, 40, 81
2, 166067, Control_c, 0, 64, 127
2, 166087, Note_on_c, 0, 80, 84
2, 166108, Note_off_c, 0, 79, 64
2, 166130, Note_on_c, 0, 82, 84
2, 166144, Note_off_c, 0, 80, 64
2, 166173, Note_off_c, 0, 52, 64
2, 166174, Note_off_c, 0, 40, 64
2, 166176, Note_on_c, 0, 84, 72
2, 166208, Note_off_c, 0, 82, 64
2, 166217, Note_on_c, 0, 85, 85
2, 166233, Note_off_c, 0, 84, 64
2, 166250, Note_on_c, 0, 87, 100
2, 166275, Note_off_c, 0, 85, 64
2, 166296, Note_on_c, 0, 70, 73
2, 166296, Note_on_c, 0, 68, 66
2, 166296, Note_on_c, 0, 61, 78
2, 166300, Note_on_c, 0, 88, 91
2, 166314, Note_off_c, 0, 87, 64
2, 166351, Note_off_c, 0, 61, 64
2, 166351, Note_off_c, 0, 68, 64
2, 166351, Note_off_c, 0, 70, 64
2, 166404, Note_on_c, 0, 61, 74
2, 166408, Note_on_c, 0, 71, 83
2, 166408, Note_on_c, 0, 68, 64
2, 166455, Note_off_c, 0, 61, 64
2, 166459, Note_off_c, 0, 68, 64
2, 166459, Note_off_c, 0, 71, 64
2, 166492, Note_on_c, 0, 61, 82
2, 166496, Note_on_c, 0, 70, 77
2, 166496, Note_on_c, 0, 68, 77
2, 166518, Note_off_c, 0, 88, 64
2, 166537, Note_off_c, 0, 61, 64
2, 166541, Note_off_c, 0, 68, 64
2, 166541, Note_off_c, 0, 70, 64
2, 166593, Note_on_c, 0, 88, 83
2, 166596, Note_on_c, 0, 67, 74
2, 166596, Note_on_c, 0, 61, 88
2, 166597, Note_on_c, 0, 70, 88
2, 166637, Note_on_c, 0, 87, 91
2, 166644, Note_off_c, 0, 61, 64
2, 166644, Note_off_c, 0, 67, 64
2, 166645, Note_off_c, 0, 70, 64
2, 166666, Note_off_c, 0, 88, 64
2, 166677, Note_on_c, 0, 85, 76
2, 166699, Note_off_c, 0, 87, 64
2, 166712, Note_on_c, 0, 84, 94
2, 166724, Note_off_c, 0, 85, 64
2, 166755, Note_off_c, 0, 84, 64
2, 166759, Note_on_c, 0, 82, 108
2, 166795, Note_on_c, 0, 80, 96
2, 166798, Control_c, 0, 64, 0
2, 166814, Note_off_c, 0, 82, 64
2, 166828, Control_c, 0, 64, 127
2, 166837, Note_on_c, 0, 79, 110
2, 166837, Note_on_c, 0, 52, 87
2, 166838, Note_on_c, 0, 40, 83
2, 166855, Note_off_c, 0, 80, 64
2, 166888, Note_off_c, 0, 79, 64
2, 166912, Note_on_c, 0, 38, 101
2, 166918, Note_on_c, 0, 50, 103
2, 166921, Note_off_c, 0, 52, 64
2, 166922, Note_off_c, 0, 40, 64
2, 166987, Note_off_c, 0, 38, 64
2, 166987, Note_on_c, 0, 51, 86
2, 166987, Note_on_c, 0, 39, 81
2, 166993, Note_off_c, 0, 50, 64
2, 167059, Control_c, 0, 64, 0
2, 167102, Control_c, 0, 64, 127
2, 167115, Note_on_c, 0, 54, 87
2, 167115, Note_on_c, 0, 42, 86
2, 167121, Note_on_c, 0, 81, 93
2, 167122, Note_off_c, 0, 39, 64
2, 167122, Note_off_c, 0, 51, 64
2, 167158, Note_on_c, 0, 82, 87
2, 167164, Note_off_c, 0, 42, 64
2, 167169, Note_off_c, 0, 81, 64
2, 167176, Note_off_c, 0, 54, 64
2, 167198, Note_off_c, 0, 82, 64
2, 167213, Note_on_c, 0, 84, 92
2, 167247, Note_on_c, 0, 85, 86
2, 167258, Note_off_c, 0, 84, 64
2, 167289, Note_on_c, 0, 69, 77
2, 167291, Note_on_c, 0, 87, 87
2, 167292, Note_on_c, 0, 60, 75
2, 167297, Note_off_c, 0, 85, 64
2, 167326, Note_off_c, 0, 87, 64
2, 167328, Note_on_c, 0, 89, 74
2, 167337, Note_off_c, 0, 60, 64
2, 167342, Note_off_c, 0, 69, 64
2, 167378, Note_on_c, 0, 90, 92
2, 167384, Note_on_c, 0, 63, 67
2, 167389, Note_on_c, 0, 69, 72
2, 167391, Note_on_c, 0, 75, 95
2, 167394, Note_off_c, 0, 89, 64
2, 167418, Note_off_c, 0, 90, 64
2, 167423, Note_on_c, 0, 99, 95
2, 167452, Note_off_c, 0, 63, 64
2, 167457, Note_off_c, 0, 69, 64
2, 167459, Note_off_c, 0, 75, 64
2, 167460, Note_on_c, 0, 90, 83
2, 167474, Note_off_c, 0, 99, 64
2, 167504, Note_on_c, 0, 89, 82
2, 167506, Note_off_c, 0, 90, 64
2, 167542, Note_off_c, 0, 89, 64
2, 167544, Note_on_c, 0, 60, 83
2, 167550, Note_on_c, 0, 87, 95
2, 167550, Note_on_c, 0, 69, 70
2, 167589, Note_off_c, 0, 60, 64
2, 167593, Note_on_c, 0, 85, 85
2, 167595, Note_off_c, 0, 69, 64
2, 167606, Note_off_c, 0, 87, 64
2, 167628, Note_on_c, 0, 63, 79
2, 167629, Note_on_c, 0, 75, 75
2, 167631, Note_on_c, 0, 84, 86
2, 167632, Note_on_c, 0, 69, 95
2, 167637, Note_off_c, 0, 85, 64
2, 167673, Note_on_c, 0, 85, 84
2, 167682, Note_off_c, 0, 84, 64
2, 167696, Note_off_c, 0, 63, 64
2, 167697, Note_off_c, 0, 75, 64
2, 167700, Note_off_c, 0, 69, 64
2, 167743, Note_on_c, 0, 86, 79
2, 167750, Note_off_c, 0, 85, 64
2, 167787, Note_on_c, 0, 87, 75
2, 167789, Note_off_c, 0, 86, 64
2, 167832, Note_on_c, 0, 88, 89
2, 167832, Note_on_c, 0, 66, 95
2, 167834, Note_off_c, 0, 87, 64
2, 167840, Note_on_c, 0, 54, 87
2, 167854, Note_off_c, 0, 66, 64
2, 167869, Note_off_c, 0, 54, 64
2, 167874, Note_on_c, 0, 89, 81
2, 167885, Note_off_c, 0, 88, 64
2, 167912, Note_on_c, 0, 66, 95
2, 167912, Note_on_c, 0, 54, 95
2, 167913, Note_on_c, 0, 90, 83
2, 167931, Note_off_c, 0, 89, 64
2, 167935, Note_off_c, 0, 66, 64
2, 167938, Note_off_c, 0, 54, 64
2, 167976, Note_on_c, 0, 99, 74
2, 167989, Note_off_c, 0, 90, 64
2, 168016, Note_on_c, 0, 66, 95
2, 168021, Note_on_c, 0, 54, 95
2, 168024, Note_on_c, 0, 90, 89
2, 168027, Note_off_c, 0, 99, 64
2, 168045, Note_off_c, 0, 54, 64
2, 168047, Note_off_c, 0, 66, 64
2, 168092, Note_off_c, 0, 90, 64
2, 168095, Note_on_c, 0, 89, 94
2, 168112, Note_on_c, 0, 54, 95
2, 168120, Note_on_c, 0, 66, 90
2, 168139, Note_on_c, 0, 87, 95
2, 168142, Note_off_c, 0, 54, 64
2, 168146, Note_off_c, 0, 89, 64
2, 168148, Note_off_c, 0, 66, 64
2, 168168, Note_on_c, 0, 85, 90
2, 168182, Control_c, 0, 64, 0
2, 168184, Note_on_c, 0, 53, 92
2, 168187, Note_off_c, 0, 87, 64
2, 168204, Note_on_c, 0, 60, 92
2, 168217, Note_on_c, 0, 63, 5
2, 168224, Note_on_c, 0, 69, 95
2, 168228, Note_on_c, 0, 84, 95
2, 168231, Note_off_c, 0, 85, 64
2, 168244, Control_c, 0, 64, 127
2, 168287, Note_off_c, 0, 84, 64
2, 168310, Note_off_c, 0, 53, 64
2, 168328, Note_off_c, 0, 60, 64
2, 168347, Note_on_c, 0, 101, 84
2, 168363, Note_off_c, 0, 63, 64
2, 168376, Note_on_c, 0, 100, 84
2, 168385, Note_off_c, 0, 69, 64
2, 168416, Note_on_c, 0, 99, 84
2, 168419, Note_off_c, 0, 101, 64
2, 168456, Note_on_c, 0, 96, 86
2, 168457, Note_off_c, 0, 100, 64
2, 168480, Note_off_c, 0, 99, 64
2, 168488, Note_on_c, 0, 93, 87
2, 168488, Note_on_c, 0, 89, 69
2, 168521, Note_off_c, 0, 96, 64
2, 168534, Note_on_c, 0, 88, 70
2, 168569, Note_off_c, 0, 89, 64
2, 168582, Note_on_c, 0, 87, 71
2, 168613, Note_off_c, 0, 88, 64
2, 168626, Note_on_c, 0, 84, 72
2, 168656, Note_on_c, 0, 81, 72
2, 168656, Note_on_c, 0, 77, 72
2, 168670, Note_off_c, 0, 87, 64
2, 168681, Note_off_c, 0, 93, 64
2, 168696, Note_on_c, 0, 76, 73
2, 168708, Note_off_c, 0, 84, 64
2, 168734, Note_off_c, 0, 77, 64
2, 168752, Note_on_c, 0, 75, 74
2, 168785, Note_off_c, 0, 76, 64
2, 168800, Note_on_c, 0, 72, 75
2, 168832, Note_off_c, 0, 75, 64
2, 168836, Note_off_c, 0, 81, 64
2, 168848, Note_on_c, 0, 69, 76
2, 168848, Note_on_c, 0, 65, 76
2, 168857, Note_off_c, 0, 72, 64
2, 168904, Note_on_c, 0, 64, 77
2, 168912, Note_off_c, 0, 65, 64
2, 168952, Note_on_c, 0, 63, 78
2, 168960, Note_off_c, 0, 64, 64
2, 168992, Note_on_c, 0, 60, 78
2, 169006, Note_off_c, 0, 63, 64
2, 169010, Note_off_c, 0, 69, 64
2, 169040, Note_on_c, 0, 57, 82
2, 169044, Note_off_c, 0, 60, 64
2, 169048, Note_on_c, 0, 53, 82
2, 169096, Note_on_c, 0, 52, 82
2, 169121, Note_off_c, 0, 53, 64
2, 169152, Note_on_c, 0, 51, 82
2, 169187, Note_off_c, 0, 52, 64
2, 169200, Note_on_c, 0, 48, 82
2, 169202, Note_off_c, 0, 57, 64
2, 169232, Note_off_c, 0, 51, 64
2, 169253, Note_off_c, 0, 48, 64
2, 169264, Note_on_c, 0, 41, 86
2, 169264, Note_on_c, 0, 29, 110
2, 169288, Note_on_c, 0, 41, 86
2, 169320, Note_off_c, 0, 41, 64
2, 169440, Note_off_c, 0, 29, 64
2, 169440, Note_off_c, 0, 41, 64
2, 169503, Note_on_c, 0, 85, 87
2, 169506, Note_on_c, 0, 46, 79
2, 169507, Note_on_c, 0, 73, 87
2, 169510, Note_on_c, 0, 58, 83
2, 169517, Control_c, 0, 64, 127
2, 169590, Note_off_c, 0, 85, 64
2, 169593, Note_off_c, 0, 46, 64
2, 169594, Note_off_c, 0, 73, 64
2, 169597, Note_off_c, 0, 58, 64
2, 169639, Note_on_c, 0, 76, 87
2, 169644, Note_on_c, 0, 70, 80
2, 169646, Note_on_c, 0, 58, 72
2, 169691, Note_on_c, 0, 77, 87
2, 169700, Note_off_c, 0, 76, 64
2, 169709, Note_off_c, 0, 58, 64
2, 169732, Note_on_c, 0, 65, 57
2, 169737, Note_on_c, 0, 80, 87
2, 169739, Note_on_c, 0, 61, 54
2, 169749, Note_off_c, 0, 70, 64
2, 169754, Note_off_c, 0, 77, 64
2, 169773, Note_on_c, 0, 78, 83
2, 169778, Note_off_c, 0, 61, 64
2, 169779, Note_off_c, 0, 65, 64
2, 169788, Note_off_c, 0, 80, 64
2, 169802, Note_on_c, 0, 77, 86
2, 169814, Note_off_c, 0, 78, 64
2, 169823, Control_c, 0, 64, 0
2, 169829, Note_off_c, 0, 77, 64
2, 169843, Note_on_c, 0, 77, 93
2, 169845, Note_on_c, 0, 56, 80
2, 169845, Note_on_c, 0, 44, 81
2, 169863, Control_c, 0, 64, 127
2, 169930, Note_off_c, 0, 77, 64
2, 169932, Note_off_c, 0, 44, 64
2, 169932, Note_off_c, 0, 56, 64
2, 169954, Note_on_c, 0, 76, 84
2, 169956, Note_on_c, 0, 88, 83
2, 169960, Note_on_c, 0, 68, 79
2, 169961, Note_on_c, 0, 56, 61
2, 170014, Note_off_c, 0, 56, 64
2, 170047, Note_off_c, 0, 68, 64
2, 170060, Note_on_c, 0, 60, 61
2, 170061, Note_on_c, 0, 89, 91
2, 170061, Note_on_c, 0, 77, 72
2, 170065, Note_off_c, 0, 76, 64
2, 170067, Note_off_c, 0, 88, 64
2, 170068, Note_on_c, 0, 65, 66
2, 170107, Note_off_c, 0, 60, 64
2, 170115, Note_off_c, 0, 65, 64
2, 170154, Control_c, 0, 64, 0
2, 170173, Note_on_c, 0, 82, 86
2, 170176, Note_on_c, 0, 70, 95
2, 170178, Note_on_c, 0, 42, 80
2, 170181, Note_on_c, 0, 54, 95
2, 170182, Note_off_c, 0, 77, 64
2, 170182, Note_off_c, 0, 89, 64
2, 170195, Control_c, 0, 64, 127
2, 170260, Note_off_c, 0, 82, 64
2, 170263, Note_off_c, 0, 70, 64
2, 170265, Note_off_c, 0, 42, 64
2, 170268, Note_off_c, 0, 54, 64
2, 170293, Note_on_c, 0, 54, 72
2, 170294, Note_on_c, 0, 66, 80
2, 170298, Note_on_c, 0, 72, 93
2, 170347, Note_on_c, 0, 73, 75
2, 170363, Note_off_c, 0, 72, 64
2, 170399, Note_on_c, 0, 61, 61
2, 170400, Note_on_c, 0, 77, 95
2, 170403, Note_off_c, 0, 66, 64
2, 170405, Note_off_c, 0, 54, 64
2, 170405, Note_on_c, 0, 58, 71
2, 170413, Note_off_c, 0, 73, 64
2, 170434, Note_on_c, 0, 75, 95
2, 170446, Note_off_c, 0, 77, 64
2, 170446, Note_off_c, 0, 61, 64
2, 170452, Note_off_c, 0, 58, 64
2, 170463, Note_on_c, 0, 73, 95
2, 170475, Note_off_c, 0, 75, 64
2, 170488, Control_c, 0, 64, 0
2, 170495, Note_off_c, 0, 73, 64
2, 170506, Note_on_c, 0, 73, 94
2, 170510, Note_on_c, 0, 41, 83
2, 170512, Note_on_c, 0, 53, 81
2, 170529, Control_c, 0, 64, 127
2, 170593, Note_off_c, 0, 73, 64
2, 170597, Note_off_c, 0, 41, 64
2, 170599, Note_off_c, 0, 53, 64
2, 170620, Note_on_c, 0, 84, 86
2, 170620, Note_on_c, 0, 65, 63
2, 170622, Note_on_c, 0, 72, 82
2, 170630, Note_on_c, 0, 53, 63
2, 170730, Note_off_c, 0, 53, 64
2, 170731, Note_off_c, 0, 84, 64
2, 170732, Note_on_c, 0, 85, 90
2, 170733, Note_off_c, 0, 72, 64
2, 170734, Note_off_c, 0, 65, 64
2, 170734, Note_on_c, 0, 61, 68
2, 170735, Note_on_c, 0, 73, 88
2, 170735, Note_on_c, 0, 58, 72
2, 170781, Note_off_c, 0, 61, 64
2, 170782, Note_off_c, 0, 58, 64
2, 170837, Control_c, 0, 64, 0
2, 170853, Note_off_c, 0, 85, 64
2, 170856, Note_off_c, 0, 73, 64
2, 170856, Note_on_c, 0, 78, 87
2, 170858, Note_on_c, 0, 39, 87
2, 170859, Note_on_c, 0, 66, 86
2, 170862, Note_on_c, 0, 51, 93
2, 170877, Control_c, 0, 64, 127
2, 170943, Note_off_c, 0, 78, 64
2, 170945, Note_off_c, 0, 39, 64
2, 170946, Note_off_c, 0, 66, 64
2, 170949, Note_off_c, 0, 51, 64
2, 170983, Note_on_c, 0, 51, 61
2, 170985, Note_on_c, 0, 69, 95
2, 170985, Note_on_c, 0, 63, 80
2, 171039, Note_on_c, 0, 70, 86
2, 171049, Note_off_c, 0, 51, 64
2, 171059, Note_off_c, 0, 69, 64
2, 171073, Note_on_c, 0, 54, 51
2, 171075, Note_on_c, 0, 60, 63
2, 171083, Note_on_c, 0, 73, 95
2, 171089, Note_off_c, 0, 63, 64
2, 171104, Note_off_c, 0, 70, 64
2, 171122, Note_off_c, 0, 60, 64
2, 171123, Note_off_c, 0, 54, 64
2, 171124, Note_on_c, 0, 72, 83
2, 171131, Note_off_c, 0, 73, 64
2, 171151, Note_on_c, 0, 70, 86
2, 171157, Control_c, 0, 64, 0
2, 171164, Note_off_c, 0, 72, 64
2, 171174, Note_off_c, 0, 70, 64
2, 171190, Note_on_c, 0, 70, 95
2, 171190, Note_on_c, 0, 49, 80
2, 171195, Note_on_c, 0, 37, 94
2, 171199, Control_c, 0, 64, 127
2, 171277, Note_off_c, 0, 49, 64
2, 171277, Note_off_c, 0, 70, 64
2, 171282, Note_off_c, 0, 37, 64
2, 171301, Note_on_c, 0, 81, 87
2, 171301, Note_on_c, 0, 69, 80
2, 171306, Note_on_c, 0, 61, 80
2, 171307, Note_on_c, 0, 49, 71
2, 171396, Note_on_c, 0, 53, 38
2, 171400, Note_on_c, 0, 58, 68
2, 171405, Note_on_c, 0, 82, 90
2, 171408, Note_on_c, 0, 70, 93
2, 171412, Note_off_c, 0, 69, 64
2, 171412, Note_off_c, 0, 81, 64
2, 171417, Note_off_c, 0, 61, 64
2, 171418, Note_off_c, 0, 49, 64
2, 171443, Note_off_c, 0, 53, 64
2, 171447, Note_off_c, 0, 58, 64
2, 171502, Control_c, 0, 64, 0
2, 171518, Note_on_c, 0, 75, 87
2, 171522, Note_on_c, 0, 63, 90
2, 171524, Note_on_c, 0, 36, 82
2, 171526, Note_off_c, 0, 82, 64
2, 171528, Note_on_c, 0, 48, 86
2, 171529, Note_off_c, 0, 70, 64
2, 171543, Control_c, 0, 64, 127
2, 171605, Note_off_c, 0, 75, 64
2, 171609, Note_off_c, 0, 63, 64
2, 171611, Note_off_c, 0, 36, 64
2, 171615, Note_off_c, 0, 48, 64
2, 171635, Note_on_c, 0, 60, 71
2, 171638, Note_on_c, 0, 65, 95
2, 171640, Note_on_c, 0, 48, 68
2, 171684, Note_on_c, 0, 66, 78
2, 171699, Note_off_c, 0, 65, 64
2, 171732, Note_on_c, 0, 70, 95
2, 171739, Note_on_c, 0, 54, 64
2, 171740, Note_on_c, 0, 51, 33
2, 171744, Note_off_c, 0, 66, 64
2, 171752, Note_off_c, 0, 48, 64
2, 171755, Note_off_c, 0, 60, 64
2, 171772, Note_on_c, 0, 68, 93
2, 171785, Note_off_c, 0, 70, 64
2, 171786, Note_off_c, 0, 54, 64
2, 171787, Note_off_c, 0, 51, 64
2, 171796, Note_on_c, 0, 66, 87
2, 171811, Note_off_c, 0, 68, 64
2, 171812, Control_c, 0, 64, 0
2, 171828, Note_off_c, 0, 66, 64
2, 171846, Note_on_c, 0, 46, 87
2, 171846, Note_on_c, 0, 34, 90
2, 171847, Note_on_c, 0, 66, 91
2, 171852, Control_c, 0, 64, 127
2, 171933, Note_off_c, 0, 34, 64
2, 171933, Note_off_c, 0, 46, 64
2, 171934, Note_off_c, 0, 66, 64
2, 171988, Note_on_c, 0, 46, 87
2, 171996, Note_on_c, 0, 77, 95
2, 171996, Note_on_c, 0, 73, 73
2, 171996, Note_on_c, 0, 65, 65
2, 171996, Note_on_c, 0, 58, 95
2, 172107, Note_off_c, 0, 73, 64
2, 172107, Note_off_c, 0, 77, 64
2, 172108, Note_on_c, 0, 78, 95
2, 172108, Note_on_c, 0, 75, 55
2, 172110, Note_on_c, 0, 54, 63
2, 172117, Note_on_c, 0, 51, 47
2, 172128, Note_off_c, 0, 46, 64
2, 172135, Note_off_c, 0, 58, 64
2, 172137, Note_off_c, 0, 65, 64
2, 172229, Note_off_c, 0, 75, 64
2, 172229, Note_off_c, 0, 78, 64
2, 172229, Control_c, 0, 64, 0
2, 172231, Note_off_c, 0, 54, 64
2, 172238, Note_off_c, 0, 51, 64
2, 172244, Note_on_c, 0, 48, 84
2, 172247, Note_on_c, 0, 57, 88
2, 172247, Note_on_c, 0, 53, 88
2, 172252, Note_on_c, 0, 77, 80
2, 172252, Note_on_c, 0, 75, 63
2, 172252, Note_on_c, 0, 65, 64
2, 172252, Note_on_c, 0, 45, 71
2, 172256, Note_on_c, 0, 72, 66
2, 172270, Control_c, 0, 64, 127
2, 172331, Note_off_c, 0, 48, 64
2, 172334, Note_off_c, 0, 53, 64
2, 172334, Note_off_c, 0, 57, 64
2, 172339, Note_off_c, 0, 45, 64
2, 172339, Note_off_c, 0, 65, 64
2, 172339, Note_off_c, 0, 75, 64
2, 172339, Note_off_c, 0, 77, 64
2, 172343, Note_off_c, 0, 72, 64
2, 172402, Note_on_c, 0, 64, 68
2, 172408, Note_on_c, 0, 52, 68
2, 172453, Note_on_c, 0, 53, 56
2, 172456, Note_off_c, 0, 52, 64
2, 172458, Note_off_c, 0, 64, 64
2, 172458, Note_on_c, 0, 65, 53
2, 172502, Note_on_c, 0, 56, 51
2, 172505, Note_on_c, 0, 68, 51
2, 172510, Note_off_c, 0, 53, 64
2, 172512, Note_off_c, 0, 65, 64
2, 172541, Note_on_c, 0, 66, 51
2, 172543, Note_on_c, 0, 54, 51
2, 172556, Note_off_c, 0, 56, 64
2, 172558, Note_off_c, 0, 68, 64
2, 172576, Note_off_c, 0, 54, 64
2, 172580, Note_on_c, 0, 65, 51
2, 172580, Note_on_c, 0, 53, 51
2, 172582, Note_off_c, 0, 66, 64
2, 172597, Note_off_c, 0, 53, 64
2, 172600, Note_off_c, 0, 65, 64
2, 172608, Control_c, 0, 64, 0
2, 172612, Note_on_c, 0, 46, 69
2, 172612, Note_on_c, 0, 34, 54
2, 172616, Note_on_c, 0, 53, 78
2, 172620, Note_on_c, 0, 58, 81
2, 172624, Note_on_c, 0, 61, 81
2, 172636, Note_on_c, 0, 65, 73
2, 172648, Control_c, 0, 64, 127
2, 172699, Note_off_c, 0, 34, 64
2, 172699, Note_off_c, 0, 46, 64
2, 172703, Note_off_c, 0, 53, 64
2, 172707, Note_off_c, 0, 58, 64
2, 172711, Note_off_c, 0, 61, 64
2, 172723, Note_off_c, 0, 65, 64
2, 172764, Note_on_c, 0, 51, 49
2, 172766, Note_on_c, 0, 63, 77
2, 172769, Note_on_c, 0, 75, 78
2, 172771, Note_on_c, 0, 87, 77
2, 172884, Note_on_c, 0, 73, 78
2, 172884, Note_on_c, 0, 61, 72
2, 172884, Note_on_c, 0, 49, 49
2, 172885, Note_on_c, 0, 85, 70
2, 172889, Note_off_c, 0, 51, 64
2, 172891, Note_off_c, 0, 63, 64
2, 172894, Note_off_c, 0, 75, 64
2, 172896, Note_off_c, 0, 87, 64
2, 172996, Note_on_c, 0, 41, 57
2, 172996, Control_c, 0, 64, 0
2, 173000, Note_on_c, 0, 48, 97
2, 173005, Note_on_c, 0, 57, 69
2, 173008, Note_on_c, 0, 84, 81
2, 173012, Note_on_c, 0, 81, 81
2, 173012, Note_on_c, 0, 77, 81
2, 173012, Note_on_c, 0, 72, 80
2, 173015, Note_off_c, 0, 49, 64
2, 173015, Note_off_c, 0, 61, 64
2, 173015, Note_off_c, 0, 73, 64
2, 173016, Note_off_c, 0, 85, 64
2, 173036, Control_c, 0, 64, 127
2, 173083, Note_off_c, 0, 41, 64
2, 173087, Note_off_c, 0, 48, 64
2, 173092, Note_off_c, 0, 57, 64
2, 173095, Note_off_c, 0, 84, 64
2, 173099, Note_off_c, 0, 72, 64
2, 173099, Note_off_c, 0, 77, 64
2, 173099, Note_off_c, 0, 81, 64
2, 173142, Note_on_c, 0, 64, 60
2, 173145, Note_on_c, 0, 52, 60
2, 173193, Note_on_c, 0, 65, 60
2, 173197, Note_on_c, 0, 53, 60
2, 173206, Note_off_c, 0, 64, 64
2, 173209, Note_off_c, 0, 52, 64
2, 173224, Note_on_c, 0, 56, 60
2, 173227, Note_on_c, 0, 68, 60
2, 173242, Note_off_c, 0, 65, 64
2, 173247, Note_off_c, 0, 53, 64
2, 173262, Note_on_c, 0, 66, 60
2, 173264, Note_on_c, 0, 54, 60
2, 173274, Note_off_c, 0, 56, 64
2, 173285, Note_off_c, 0, 68, 64
2, 173292, Note_off_c, 0, 54, 64
2, 173293, Note_on_c, 0, 65, 60
2, 173294, Note_on_c, 0, 53, 60
2, 173302, Note_off_c, 0, 66, 64
2, 173309, Note_off_c, 0, 53, 64
2, 173313, Note_off_c, 0, 65, 64
2, 173324, Control_c, 0, 64, 0
2, 173359, Note_on_c, 0, 65, 88
2, 173359, Note_on_c, 0, 61, 78
2, 173359, Note_on_c, 0, 58, 78
2, 173363, Control_c, 0, 64, 127
2, 173367, Note_on_c, 0, 53, 79
2, 173367, Note_on_c, 0, 46, 78
2, 173372, Note_on_c, 0, 34, 53
2, 173446, Note_off_c, 0, 58, 64
2, 173446, Note_off_c, 0, 61, 64
2, 173446, Note_off_c, 0, 65, 64
2, 173454, Note_off_c, 0, 46, 64
2, 173454, Note_off_c, 0, 53, 64
2, 173459, Note_off_c, 0, 34, 64
2, 173484, Note_on_c, 0, 60, 71
2, 173484, Note_on_c, 0, 48, 77
2, 173489, Note_on_c, 0, 84, 77
2, 173489, Note_on_c, 0, 72, 64
2, 173592, Note_on_c, 0, 46, 49
2, 173595, Note_off_c, 0, 48, 64
2, 173595, Note_off_c, 0, 60, 64
2, 173595, Note_on_c, 0, 70, 74
2, 173596, Note_on_c, 0, 58, 73
2, 173597, Note_on_c, 0, 82, 58
2, 173600, Note_off_c, 0, 72, 64
2, 173600, Note_off_c, 0, 84, 64
2, 173697, Control_c, 0, 64, 0
2, 173708, Note_on_c, 0, 57, 74
2, 173708, Note_on_c, 0, 41, 80
2, 173712, Note_on_c, 0, 48, 75
2, 173713, Note_off_c, 0, 46, 64
2, 173716, Note_off_c, 0, 70, 64
2, 173717, Note_off_c, 0, 58, 64
2, 173718, Note_off_c, 0, 82, 64
2, 173718, Note_on_c, 0, 81, 83
2, 173718, Note_on_c, 0, 69, 81
2, 173723, Note_on_c, 0, 77, 82
2, 173723, Note_on_c, 0, 72, 83
2, 173737, Control_c, 0, 64, 127
2, 173795, Note_off_c, 0, 41, 64
2, 173795, Note_off_c, 0, 57, 64
2, 173799, Note_off_c, 0, 48, 64
2, 173805, Note_off_c, 0, 69, 64
2, 173805, Note_off_c, 0, 81, 64
2, 173810, Note_off_c, 0, 72, 64
2, 173810, Note_off_c, 0, 77, 64
2, 173840, Note_on_c, 0, 52, 60
2, 173842, Note_on_c, 0, 64, 60
2, 173876, Note_on_c, 0, 53, 60
2, 173882, Note_on_c, 0, 65, 60
2, 173900, Note_off_c, 0, 52, 64
2, 173904, Note_off_c, 0, 64, 64
2, 173918, Note_on_c, 0, 68, 60
2, 173920, Note_on_c, 0, 56, 60
2, 173928, Note_off_c, 0, 53, 64
2, 173934, Note_off_c, 0, 65, 64
2, 173961, Note_off_c, 0, 56, 64
2, 173966, Note_on_c, 0, 66, 60
2, 173968, Note_on_c, 0, 54, 60
2, 173975, Note_off_c, 0, 68, 64
2, 173996, Note_off_c, 0, 54, 64
2, 173997, Note_on_c, 0, 65, 60
2, 173998, Note_on_c, 0, 53, 60
2, 174006, Note_off_c, 0, 66, 64
2, 174013, Note_off_c, 0, 53, 64
2, 174014, Control_c, 0, 64, 0
2, 174017, Note_off_c, 0, 65, 64
2, 174028, Note_on_c, 0, 34, 63
2, 174036, Note_on_c, 0, 46, 92
2, 174043, Note_on_c, 0, 53, 83
2, 174044, Note_on_c, 0, 61, 72
2, 174051, Note_on_c, 0, 65, 92
2, 174055, Note_on_c, 0, 58, 64
2, 174056, Control_c, 0, 64, 127
2, 174115, Note_off_c, 0, 34, 64
2, 174123, Note_off_c, 0, 46, 64
2, 174130, Note_off_c, 0, 53, 64
2, 174131, Note_off_c, 0, 61, 64
2, 174138, Note_off_c, 0, 65, 64
2, 174142, Note_off_c, 0, 58, 64
2, 174164, Note_on_c, 0, 51, 60
2, 174165, Note_on_c, 0, 63, 78
2, 174166, Note_on_c, 0, 87, 67
2, 174166, Note_on_c, 0, 75, 65
2, 174261, Note_on_c, 0, 61, 72
2, 174264, Note_off_c, 0, 51, 64
2, 174264, Note_on_c, 0, 49, 65
2, 174265, Note_off_c, 0, 63, 64
2, 174265, Note_on_c, 0, 73, 71
2, 174266, Note_off_c, 0, 75, 64
2, 174266, Note_off_c, 0, 87, 64
2, 174267, Note_on_c, 0, 85, 64
2, 174368, Control_c, 0, 64, 0
2, 174380, Note_on_c, 0, 84, 73
2, 174380, Note_on_c, 0, 57, 71
2, 174382, Note_off_c, 0, 61, 64
2, 174384, Note_on_c, 0, 81, 71
2, 174384, Note_on_c, 0, 72, 71
2, 174385, Note_off_c, 0, 49, 64
2, 174385, Note_on_c, 0, 41, 69
2, 174386, Note_off_c, 0, 73, 64
2, 174388, Note_off_c, 0, 85, 64
2, 174389, Note_on_c, 0, 77, 73
2, 174389, Note_on_c, 0, 48, 71
2, 174408, Control_c, 0, 64, 127
2, 174467, Note_off_c, 0, 57, 64
2, 174467, Note_off_c, 0, 84, 64
2, 174471, Note_off_c, 0, 72, 64
2, 174471, Note_off_c, 0, 81, 64
2, 174472, Note_off_c, 0, 41, 64
2, 174476, Note_off_c, 0, 48, 64
2, 174476, Note_off_c, 0, 77, 64
2, 174503, Note_on_c, 0, 64, 60
2, 174504, Note_on_c, 0, 52, 60
2, 174544, Note_on_c, 0, 53, 60
2, 174545, Note_on_c, 0, 65, 60
2, 174559, Note_off_c, 0, 64, 64
2, 174560, Note_off_c, 0, 52, 64
2, 174574, Note_on_c, 0, 68, 60
2, 174576, Note_on_c, 0, 56, 60
2, 174587, Note_off_c, 0, 53, 64
2, 174588, Note_off_c, 0, 65, 64
2, 174600, Note_on_c, 0, 54, 60
2, 174603, Note_on_c, 0, 66, 60
2, 174625, Note_on_c, 0, 53, 60
2, 174627, Note_off_c, 0, 68, 64
2, 174627, Note_on_c, 0, 65, 60
2, 174629, Note_off_c, 0, 56, 64
2, 174636, Note_off_c, 0, 54, 64
2, 174639, Note_off_c, 0, 66, 64
2, 174650, Note_off_c, 0, 53, 64
2, 174652, Note_off_c, 0, 65, 64
2, 174675, Control_c, 0, 64, 0
2, 174680, Note_on_c, 0, 34, 53
2, 174684, Note_on_c, 0, 46, 78
2, 174695, Note_on_c, 0, 53, 88
2, 174697, Note_on_c, 0, 65, 90
2, 174700, Note_on_c, 0, 58, 78
2, 174701, Note_on_c, 0, 61, 78
2, 174711, Control_c, 0, 64, 127
2, 174767, Note_off_c, 0, 34, 64
2, 174771, Note_off_c, 0, 46, 64
2, 174782, Note_off_c, 0, 53, 64
2, 174784, Note_off_c, 0, 65, 64
2, 174787, Note_off_c, 0, 58, 64
2, 174788, Note_off_c, 0, 61, 64
2, 174821, Note_on_c, 0, 60, 64
2, 174823, Note_on_c, 0, 84, 78
2, 174824, Note_on_c, 0, 48, 33
2, 174827, Note_on_c, 0, 72, 60
2, 174928, Note_on_c, 0, 70, 77
2, 174928, Note_on_c, 0, 46, 49
2, 174932, Note_on_c, 0, 82, 62
2, 174932, Note_on_c, 0, 58, 69
2, 174942, Note_off_c, 0, 60, 64
2, 174944, Note_off_c, 0, 84, 64
2, 174945, Note_off_c, 0, 48, 64
2, 174948, Note_off_c, 0, 72, 64
2, 175028, Control_c, 0, 64, 0
2, 175032, Note_on_c, 0, 41, 64
2, 175048, Note_off_c, 0, 46, 64
2, 175048, Note_on_c, 0, 81, 74
2, 175049, Note_off_c, 0, 70, 64
2, 175051, Note_on_c, 0, 77, 71
2, 175051, Note_on_c, 0, 72, 73
2, 175051, Note_on_c, 0, 69, 70
2, 175051, Note_on_c, 0, 57, 64
2, 175051, Note_on_c, 0, 48, 63
2, 175053, Note_off_c, 0, 58, 64
2, 175053, Note_off_c, 0, 82, 64
2, 175068, Control_c, 0, 64, 127
2, 175119, Note_off_c, 0, 41, 64
2, 175135, Note_off_c, 0, 81, 64
2, 175138, Note_off_c, 0, 48, 64
2, 175138, Note_off_c, 0, 57, 64
2, 175138, Note_off_c, 0, 69, 64
2, 175138, Note_off_c, 0, 72, 64
2, 175138, Note_off_c, 0, 77, 64
2, 175176, Note_on_c, 0, 52, 60
2, 175179, Note_on_c, 0, 64, 60
2, 175228, Note_on_c, 0, 65, 60
2, 175239, Note_on_c, 0, 53, 60
2, 175257, Note_off_c, 0, 52, 64
2, 175260, Note_off_c, 0, 64, 64
2, 175260, Note_on_c, 0, 68, 60
2, 175260, Note_on_c, 0, 56, 60
2, 175266, Note_off_c, 0, 65, 64
2, 175279, Note_off_c, 0, 53, 64
2, 175284, Note_on_c, 0, 54, 60
2, 175287, Note_on_c, 0, 66, 60
2, 175296, Note_off_c, 0, 56, 64
2, 175304, Note_off_c, 0, 68, 64
2, 175316, Note_on_c, 0, 53, 59
2, 175317, Note_on_c, 0, 65, 59
2, 175321, Note_off_c, 0, 66, 64
2, 175324, Note_off_c, 0, 54, 64
2, 175331, Control_c, 0, 64, 0
2, 175343, Note_off_c, 0, 53, 64
2, 175344, Note_off_c, 0, 65, 64
2, 175360, Note_on_c, 0, 65, 73
2, 175360, Note_on_c, 0, 53, 60
2, 175367, Control_c, 0, 64, 127
2, 175472, Note_on_c, 0, 61, 65
2, 175475, Note_off_c, 0, 53, 64
2, 175476, Note_on_c, 0, 85, 58
2, 175476, Note_on_c, 0, 73, 42
2, 175501, Note_off_c, 0, 65, 64
2, 175574, Note_on_c, 0, 84, 62
2, 175576, Note_on_c, 0, 72, 42
2, 175576, Note_on_c, 0, 60, 61
2, 175583, Note_off_c, 0, 61, 64
2, 175587, Note_off_c, 0, 73, 64
2, 175587, Note_off_c, 0, 85, 64
2, 175687, Note_off_c, 0, 72, 64
2, 175687, Note_on_c, 0, 41, 49
2, 175689, Control_c, 0, 64, 0
2, 175696, Note_on_c, 0, 48, 53
2, 175701, Note_on_c, 0, 77, 60
2, 175701, Note_on_c, 0, 72, 61
2, 175702, Note_on_c, 0, 81, 61
2, 175705, Note_off_c, 0, 84, 64
2, 175706, Note_on_c, 0, 69, 58
2, 175707, Note_off_c, 0, 60, 64
2, 175709, Note_on_c, 0, 57, 61
2, 175728, Control_c, 0, 64, 127
2, 175774, Note_off_c, 0, 41, 64
2, 175783, Note_off_c, 0, 48, 64
2, 175788, Note_off_c, 0, 72, 64
2, 175788, Note_off_c, 0, 77, 64
2, 175789, Note_off_c, 0, 81, 64
2, 175793, Note_off_c, 0, 69, 64
2, 175796, Note_off_c, 0, 57, 64
2, 175821, Note_on_c, 0, 59, 52
2, 175824, Note_on_c, 0, 47, 52
2, 175860, Note_on_c, 0, 48, 52
2, 175861, Note_on_c, 0, 60, 52
2, 175871, Note_off_c, 0, 47, 64
2, 175876, Note_off_c, 0, 59, 64
2, 175904, Note_on_c, 0, 51, 51
2, 175906, Note_on_c, 0, 63, 51
2, 175909, Note_off_c, 0, 48, 64
2, 175910, Note_off_c, 0, 60, 64
2, 175931, Note_on_c, 0, 61, 51
2, 175935, Note_on_c, 0, 49, 51
2, 175943, Note_off_c, 0, 51, 64
2, 175945, Note_off_c, 0, 63, 64
2, 175964, Note_on_c, 0, 48, 51
2, 175965, Note_on_c, 0, 60, 51
2, 175967, Control_c, 0, 64, 127
2, 175977, Note_off_c, 0, 61, 64
2, 175977, Control_c, 0, 64, 0
2, 175981, Note_off_c, 0, 49, 64
2, 175987, Note_off_c, 0, 48, 64
2, 175988, Note_off_c, 0, 60, 64
2, 176004, Note_on_c, 0, 48, 73
2, 176011, Note_on_c, 0, 60, 76
2, 176016, Control_c, 0, 64, 127
2, 176091, Control_c, 0, 64, 0
2, 176124, Note_on_c, 0, 70, 53
2, 176128, Note_on_c, 0, 58, 55
2, 176128, Control_c, 0, 64, 127
2, 176151, Note_off_c, 0, 48, 64
2, 176158, Note_off_c, 0, 60, 64
2, 176229, Note_on_c, 0, 69, 58
2, 176230, Note_on_c, 0, 57, 55
2, 176235, Note_off_c, 0, 70, 64
2, 176239, Note_off_c, 0, 58, 64
2, 176339, Control_c, 0, 64, 0
2, 176340, Note_off_c, 0, 69, 64
2, 176340, Note_on_c, 0, 48, 63
2, 176340, Note_on_c, 0, 41, 62
2, 176341, Note_off_c, 0, 57, 64
2, 176352, Note_on_c, 0, 81, 59
2, 176352, Note_on_c, 0, 72, 58
2, 176357, Note_on_c, 0, 69, 60
2, 176358, Note_on_c, 0, 77, 56
2, 176358, Note_on_c, 0, 57, 54
2, 176373, Control_c, 0, 64, 127
2, 176427, Note_off_c, 0, 41, 64
2, 176427, Note_off_c, 0, 48, 64
2, 176439, Note_off_c, 0, 72, 64
2, 176439, Note_off_c, 0, 81, 64
2, 176444, Note_off_c, 0, 69, 64
2, 176445, Note_off_c, 0, 57, 64
2, 176445, Note_off_c, 0, 77, 64
2, 176474, Control_c, 0, 64, 0
2, 176477, Note_on_c, 0, 64, 51
2, 176482, Note_on_c, 0, 52, 51
2, 176523, Control_c, 0, 64, 127
2, 176531, Note_off_c, 0, 64, 64
2, 176531, Note_on_c, 0, 65, 51
2, 176533, Note_off_c, 0, 52, 64
2, 176537, Note_on_c, 0, 53, 51
2, 176565, Note_on_c, 0, 68, 51
2, 176573, Note_off_c, 0, 65, 64
2, 176576, Note_on_c, 0, 56, 51
2, 176580, Note_off_c, 0, 53, 64
2, 176598, Note_on_c, 0, 66, 51
2, 176605, Note_on_c, 0, 54, 51
2, 176613, Note_off_c, 0, 68, 64
2, 176616, Note_off_c, 0, 56, 64
2, 176630, Note_on_c, 0, 65, 51
2, 176633, Note_on_c, 0, 53, 51
2, 176636, Note_off_c, 0, 66, 64
2, 176646, Note_off_c, 0, 54, 64
2, 176651, Control_c, 0, 64, 0
2, 176656, Note_off_c, 0, 65, 64
2, 176661, Note_off_c, 0, 53, 64
2, 176671, Note_on_c, 0, 65, 69
2, 176678, Note_on_c, 0, 53, 66
2, 176684, Control_c, 0, 64, 127
2, 176746, Note_off_c, 0, 65, 64
2, 176753, Note_off_c, 0, 53, 64
2, 176784, Note_on_c, 0, 73, 58
2, 176784, Note_on_c, 0, 61, 49
2, 176788, Note_on_c, 0, 85, 60
2, 176889, Note_on_c, 0, 60, 47
2, 176892, Note_on_c, 0, 84, 59
2, 176893, Note_on_c, 0, 72, 55
2, 176895, Note_off_c, 0, 61, 64
2, 176895, Note_off_c, 0, 73, 64
2, 176899, Note_off_c, 0, 85, 64
2, 176994, Note_on_c, 0, 41, 58
2, 177000, Control_c, 0, 64, 0
2, 177010, Note_on_c, 0, 48, 58
2, 177021, Note_off_c, 0, 60, 64
2, 177024, Note_off_c, 0, 84, 64
2, 177024, Note_on_c, 0, 81, 63
2, 177025, Note_off_c, 0, 72, 64
2, 177026, Note_on_c, 0, 69, 61
2, 177026, Note_on_c, 0, 57, 53
2, 177030, Note_on_c, 0, 77, 63
2, 177030, Note_on_c, 0, 72, 55
2, 177039, Control_c, 0, 64, 127
2, 177081, Note_off_c, 0, 41, 64
2, 177097, Note_off_c, 0, 48, 64
2, 177111, Note_off_c, 0, 81, 64
2, 177113, Note_off_c, 0, 57, 64
2, 177113, Note_off_c, 0, 69, 64
2, 177117, Note_off_c, 0, 72, 64
2, 177117, Note_off_c, 0, 77, 64
2, 177137, Note_on_c, 0, 59, 43
2, 177138, Note_on_c, 0, 47, 43
2, 177144, Control_c, 0, 64, 127
2, 177195, Note_on_c, 0, 60, 43
2, 177197, Note_on_c, 0, 48, 43
2, 177202, Note_off_c, 0, 59, 64
2, 177203, Note_off_c, 0, 47, 64
2, 177226, Note_on_c, 0, 63, 43
2, 177228, Note_on_c, 0, 51, 43
2, 177240, Note_off_c, 0, 60, 64
2, 177241, Note_off_c, 0, 48, 64
2, 177252, Note_on_c, 0, 49, 43
2, 177256, Note_on_c, 0, 61, 43
2, 177270, Note_off_c, 0, 51, 64
2, 177272, Note_off_c, 0, 63, 64
2, 177286, Note_on_c, 0, 60, 43
2, 177286, Note_on_c, 0, 48, 43
2, 177287, Note_off_c, 0, 61, 64
2, 177292, Note_off_c, 0, 49, 64
2, 177292, Control_c, 0, 64, 127
2, 177312, Note_off_c, 0, 48, 64
2, 177312, Note_off_c, 0, 60, 64
2, 177328, Control_c, 0, 64, 0
2, 177336, Note_on_c, 0, 60, 53
2, 177336, Note_on_c, 0, 48, 49
2, 177364, Control_c, 0, 64, 127
2, 177423, Control_c, 0, 64, 0
2, 177438, Note_on_c, 0, 70, 51
2, 177439, Note_on_c, 0, 58, 56
2, 177448, Control_c, 0, 64, 127
2, 177472, Note_off_c, 0, 48, 64
2, 177472, Note_off_c, 0, 60, 64
2, 177528, Note_on_c, 0, 57, 52
2, 177531, Note_on_c, 0, 69, 56
2, 177549, Note_off_c, 0, 70, 64
2, 177550, Note_off_c, 0, 58, 64
2, 177632, Note_on_c, 0, 41, 39
2, 177641, Control_c, 0, 64, 0
2, 177649, Note_off_c, 0, 57, 64
2, 177652, Note_off_c, 0, 69, 64
2, 177652, Note_on_c, 0, 48, 45
2, 177661, Note_on_c, 0, 81, 58
2, 177663, Note_on_c, 0, 57, 53
2, 177664, Note_on_c, 0, 77, 56
2, 177664, Note_on_c, 0, 72, 57
2, 177664, Note_on_c, 0, 69, 53
2, 177675, Control_c, 0, 64, 127
2, 177719, Note_off_c, 0, 41, 64
2, 177739, Note_off_c, 0, 48, 64
2, 177748, Note_off_c, 0, 81, 64
2, 177750, Note_off_c, 0, 57, 64
2, 177751, Note_off_c, 0, 69, 64
2, 177751, Note_off_c, 0, 72, 64
2, 177751, Note_off_c, 0, 77, 64
2, 177798, Control_c, 0, 64, 0
2, 177815, Control_c, 0, 64, 127
2, 177819, Note_on_c, 0, 59, 37
2, 177819, Note_on_c, 0, 47, 37
2, 177848, Note_on_c, 0, 48, 36
2, 177854, Note_on_c, 0, 60, 36
2, 177867, Note_off_c, 0, 47, 64
2, 177868, Note_off_c, 0, 59, 64
2, 177884, Note_on_c, 0, 51, 36
2, 177886, Note_on_c, 0, 63, 36
2, 177897, Note_off_c, 0, 48, 64
2, 177899, Note_off_c, 0, 60, 64
2, 177908, Note_on_c, 0, 49, 36
2, 177912, Note_on_c, 0, 61, 36
2, 177925, Note_off_c, 0, 51, 64
2, 177927, Note_off_c, 0, 63, 64
2, 177943, Note_on_c, 0, 60, 36
2, 177945, Note_off_c, 0, 61, 64
2, 177946, Note_off_c, 0, 49, 64
2, 177946, Note_on_c, 0, 48, 36
2, 177952, Control_c, 0, 64, 127
2, 177961, Control_c, 0, 64, 0
2, 177969, Note_off_c, 0, 60, 64
2, 177972, Note_off_c, 0, 48, 64
2, 177984, Note_on_c, 0, 48, 38
2, 177985, Note_on_c, 0, 60, 57
2, 178000, Control_c, 0, 64, 127
2, 178098, Note_on_c, 0, 70, 45
2, 178101, Note_on_c, 0, 58, 52
2, 178128, Note_off_c, 0, 48, 64
2, 178129, Note_off_c, 0, 60, 64
2, 178195, Note_off_c, 0, 70, 64
2, 178198, Note_off_c, 0, 58, 64
2, 178200, Note_on_c, 0, 69, 45
2, 178204, Note_on_c, 0, 57, 40
2, 178297, Control_c, 0, 64, 0
2, 178311, Note_off_c, 0, 69, 64
2, 178315, Note_off_c, 0, 57, 64
2, 178317, Note_on_c, 0, 81, 45
2, 178321, Note_on_c, 0, 72, 48
2, 178321, Note_on_c, 0, 69, 44
2, 178322, Note_on_c, 0, 77, 48
2, 178326, Note_on_c, 0, 57, 43
2, 178326, Note_on_c, 0, 41, 37
2, 178327, Note_on_c, 0, 48, 45
2, 178337, Control_c, 0, 64, 127
2, 178367, Note_off_c, 0, 57, 64
2, 178404, Note_off_c, 0, 81, 64
2, 178408, Note_off_c, 0, 69, 64
2, 178408, Note_off_c, 0, 72, 64
2, 178409, Note_off_c, 0, 77, 64
2, 178413, Note_off_c, 0, 41, 64
2, 178414, Note_off_c, 0, 48, 64
2, 178432, Note_on_c, 0, 47, 35
2, 178433, Note_on_c, 0, 59, 35
2, 178469, Note_on_c, 0, 60, 35
2, 178472, Note_on_c, 0, 48, 35
2, 178473, Control_c, 0, 64, 0
2, 178475, Note_off_c, 0, 47, 64
2, 178479, Note_off_c, 0, 59, 64
2, 178500, Note_on_c, 0, 51, 35
2, 178503, Note_on_c, 0, 63, 35
2, 178505, Control_c, 0, 64, 127
2, 178513, Note_off_c, 0, 60, 64
2, 178523, Note_off_c, 0, 48, 64
2, 178524, Note_on_c, 0, 49, 35
2, 178527, Note_on_c, 0, 61, 35
2, 178542, Note_off_c, 0, 51, 64
2, 178545, Note_off_c, 0, 63, 64
2, 178556, Note_off_c, 0, 49, 64
2, 178559, Note_off_c, 0, 61, 64
2, 178562, Note_on_c, 0, 48, 35
2, 178563, Note_on_c, 0, 60, 35
2, 178568, Control_c, 0, 64, 127
2, 178586, Note_off_c, 0, 48, 64
2, 178587, Note_off_c, 0, 60, 64
2, 178590, Control_c, 0, 64, 0
2, 178602, Control_c, 0, 64, 127
2, 178604, Note_on_c, 0, 48, 51
2, 178606, Note_on_c, 0, 60, 58
2, 178674, Control_c, 0, 64, 0
2, 178705, Note_on_c, 0, 70, 45
2, 178709, Note_on_c, 0, 58, 45
2, 178716, Control_c, 0, 64, 127
2, 178735, Note_off_c, 0, 48, 64
2, 178737, Note_off_c, 0, 60, 64
2, 178810, Note_on_c, 0, 57, 43
2, 178812, Note_on_c, 0, 69, 45
2, 178816, Note_off_c, 0, 70, 64
2, 178820, Note_off_c, 0, 58, 64
2, 178908, Note_on_c, 0, 41, 35
2, 178911, Control_c, 0, 64, 0
2, 178920, Note_on_c, 0, 48, 40
2, 178927, Note_off_c, 0, 69, 64
2, 178931, Note_off_c, 0, 57, 64
2, 178933, Note_on_c, 0, 81, 41
2, 178936, Note_on_c, 0, 77, 45
2, 178936, Control_c, 0, 64, 127
2, 178939, Note_on_c, 0, 72, 45
2, 178939, Note_on_c, 0, 69, 41
2, 178939, Note_on_c, 0, 53, 38
2, 178956, Note_on_c, 0, 69, 60
2, 178956, Control_c, 0, 64, 127
2, 178967, Note_off_c, 0, 69, 64
2, 178995, Note_off_c, 0, 41, 64
2, 179007, Note_off_c, 0, 48, 64
2, 179020, Note_off_c, 0, 81, 64
2, 179023, Note_off_c, 0, 77, 64
2, 179026, Note_off_c, 0, 53, 64
2, 179026, Note_off_c, 0, 72, 64
2, 179031, Note_off_c, 0, 69, 64
2, 179064, Note_on_c, 0, 35, 41
2, 179067, Note_on_c, 0, 47, 41
2, 179100, Note_on_c, 0, 48, 41
2, 179104, Note_on_c, 0, 36, 41
2, 179110, Note_off_c, 0, 35, 64
2, 179113, Note_off_c, 0, 47, 64
2, 179124, Note_on_c, 0, 39, 41
2, 179127, Note_on_c, 0, 51, 41
2, 179139, Note_off_c, 0, 48, 64
2, 179141, Note_off_c, 0, 36, 64
2, 179154, Control_c, 0, 64, 0
2, 179156, Note_on_c, 0, 37, 41
2, 179163, Note_on_c, 0, 49, 41
2, 179164, Note_off_c, 0, 39, 64
2, 179169, Note_off_c, 0, 51, 64
2, 179184, Note_on_c, 0, 36, 41
2, 179184, Control_c, 0, 64, 127
2, 179185, Note_on_c, 0, 48, 41
2, 179191, Note_off_c, 0, 37, 64
2, 179196, Note_off_c, 0, 49, 64
2, 179214, Note_off_c, 0, 36, 64
2, 179215, Note_off_c, 0, 48, 64
2, 179229, Control_c, 0, 64, 127
2, 179236, Note_on_c, 0, 48, 57
2, 179244, Note_on_c, 0, 36, 48
2, 179319, Control_c, 0, 64, 0
2, 179332, Note_on_c, 0, 46, 49
2, 179336, Note_on_c, 0, 58, 46
2, 179349, Note_off_c, 0, 48, 64
2, 179352, Control_c, 0, 64, 127
2, 179365, Note_off_c, 0, 36, 64
2, 179431, Note_on_c, 0, 45, 43
2, 179433, Note_off_c, 0, 46, 64
2, 179435, Note_on_c, 0, 57, 46
2, 179437, Note_off_c, 0, 58, 64
2, 179440, Control_c, 0, 64, 0
2, 179450, Control_c, 0, 64, 127
2, 179508, Control_c, 0, 64, 0
2, 179548, Control_c, 0, 64, 127
2, 179565, Note_on_c, 0, 53, 47
2, 179567, Note_on_c, 0, 41, 44
2, 179571, Note_off_c, 0, 57, 64
2, 179591, Note_off_c, 0, 45, 64
2, 179696, Control_c, 0, 64, 0
2, 179700, Note_on_c, 0, 35, 34
2, 179703, Note_on_c, 0, 47, 34
2, 179706, Note_off_c, 0, 53, 64
2, 179708, Note_off_c, 0, 41, 64
2, 179763, Note_off_c, 0, 35, 64
2, 179763, Note_on_c, 0, 48, 34
2, 179763, Note_on_c, 0, 36, 34
2, 179768, Note_off_c, 0, 47, 64
2, 179775, Control_c, 0, 64, 127
2, 179808, Note_on_c, 0, 51, 33
2, 179813, Note_on_c, 0, 39, 33
2, 179815, Note_off_c, 0, 48, 64
2, 179818, Note_off_c, 0, 36, 64
2, 179844, Note_on_c, 0, 37, 33
2, 179849, Note_on_c, 0, 49, 33
2, 179861, Note_off_c, 0, 39, 64
2, 179865, Note_off_c, 0, 51, 64
2, 179880, Note_on_c, 0, 36, 33
2, 179884, Note_on_c, 0, 48, 33
2, 179885, Note_off_c, 0, 37, 64
2, 179890, Note_off_c, 0, 49, 64
2, 179895, Control_c, 0, 64, 0
2, 179896, Control_c, 0, 64, 127
2, 179913, Note_off_c, 0, 36, 64
2, 179917, Note_off_c, 0, 48, 64
2, 179920, Note_on_c, 0, 36, 41
2, 179927, Note_on_c, 0, 48, 47
2, 179951, Control_c, 0, 64, 127
2, 180040, Control_c, 0, 64, 0
2, 180052, Note_on_c, 0, 58, 40
2, 180052, Note_on_c, 0, 46, 40
2, 180053, Note_off_c, 0, 36, 64
2, 180060, Note_off_c, 0, 48, 64
2, 180177, Note_on_c, 0, 57, 37
2, 180177, Note_on_c, 0, 45, 37
2, 180191, Note_off_c, 0, 46, 64
2, 180191, Note_off_c, 0, 58, 64
2, 180367, Note_on_c, 0, 41, 31
2, 180369, Note_on_c, 0, 53, 34
2, 180379, Note_off_c, 0, 45, 64
2, 180379, Note_off_c, 0, 57, 64
2, 180601, Note_off_c, 0, 53, 64
2, 180605, Note_off_c, 0, 41, 64
2, 180852, Note_on_c, 0, 35, 41
2, 180853, Note_on_c, 0, 47, 41
2, 180908, Note_on_c, 0, 48, 41
2, 180912, Note_off_c, 0, 47, 64
2, 180912, Note_on_c, 0, 36, 41
2, 180921, Note_off_c, 0, 35, 64
2, 180960, Note_on_c, 0, 51, 41
2, 180960, Note_on_c, 0, 39, 41
2, 180967, Note_off_c, 0, 36, 64
2, 180970, Note_off_c, 0, 48, 64
2, 181003, Note_on_c, 0, 49, 41
2, 181004, Note_on_c, 0, 37, 41
2, 181015, Note_off_c, 0, 39, 64
2, 181018, Note_off_c, 0, 51, 64
2, 181028, Note_on_c, 0, 36, 41
2, 181034, Note_on_c, 0, 48, 41
2, 181041, Note_off_c, 0, 49, 64
2, 181042, Note_off_c, 0, 37, 64
2, 181063, Note_off_c, 0, 36, 64
2, 181069, Note_off_c, 0, 48, 64
2, 181085, Note_on_c, 0, 48, 53
2, 181090, Note_on_c, 0, 36, 48
2, 181257, Note_on_c, 0, 58, 47
2, 181260, Note_off_c, 0, 36, 64
2, 181260, Note_on_c, 0, 46, 50
2, 181262, Note_off_c, 0, 48, 64
2, 181443, Note_on_c, 0, 57, 43
2, 181444, Note_on_c, 0, 45, 40
2, 181454, Note_off_c, 0, 58, 64
2, 181456, Note_off_c, 0, 46, 64
2, 181649, Note_on_c, 0, 41, 42
2, 181653, Note_on_c, 0, 53, 34
2, 181659, Note_off_c, 0, 45, 64
2, 181664, Note_off_c, 0, 57, 64
2, 181992, Note_off_c, 0, 53, 64
2, 181993, Note_off_c, 0, 41, 64
2, 182312, Note_on_c, 0, 34, 43
2, 182315, Note_on_c, 0, 46, 42
2, 182546, Note_on_c, 0, 45, 43
2, 182551, Note_off_c, 0, 46, 64
2, 182552, Note_on_c, 0, 33, 33
2, 182566, Note_off_c, 0, 34, 64
2, 182849, Note_on_c, 0, 41, 49
2, 182853, Note_on_c, 0, 29, 54
2, 182869, Note_off_c, 0, 45, 64
2, 182878, Note_off_c, 0, 33, 64
2, 183502, Note_off_c, 0, 41, 64
2, 183512, Note_off_c, 0, 29, 64
2, 184095, Note_on_c, 0, 45, 23
2, 184100, Note_on_c, 0, 57, 24
2, 184114, Note_on_c, 0, 46, 32
2, 184122, Note_on_c, 0, 58, 33
2, 184122, Control_c, 0, 64, 127
2, 184140, Note_on_c, 0, 49, 23
2, 184147, Note_off_c, 0, 45, 64
2, 184154, Note_on_c, 0, 61, 36
2, 184176, Note_off_c, 0, 57, 64
2, 184179, Control_c, 0, 64, 0
2, 184187, Note_on_c, 0, 65, 40
2, 184190, Note_off_c, 0, 58, 64
2, 184193, Note_off_c, 0, 46, 64
2, 184193, Note_on_c, 0, 53, 32
2, 184199, Note_off_c, 0, 61, 64
2, 184202, Note_off_c, 0, 49, 64
2, 184214, Note_off_c, 0, 65, 64
2, 184222, Note_off_c, 0, 53, 64
2, 184430, Note_on_c, 0, 57, 20
2, 184458, Note_on_c, 0, 58, 32
2, 184462, Note_on_c, 0, 46, 29
2, 184468, Note_on_c, 0, 45, 1
2, 184488, Note_on_c, 0, 49, 14
2, 184493, Note_on_c, 0, 61, 32
2, 184502, Note_off_c, 0, 45, 64
2, 184502, Note_off_c, 0, 57, 64
2, 184529, Note_on_c, 0, 65, 32
2, 184537, Note_on_c, 0, 53, 14
2, 184540, Note_off_c, 0, 46, 64
2, 184540, Note_off_c, 0, 58, 64
2, 184546, Note_off_c, 0, 61, 64
2, 184550, Note_off_c, 0, 49, 64
2, 184618, Control_c, 0, 64, 127
2, 184972, Control_c, 0, 64, 0
2, 185124, Note_off_c, 0, 65, 64
2, 185132, Note_off_c, 0, 53, 64
2, 185238, Note_on_c, 0, 58, 93
2, 185242, Note_on_c, 0, 34, 93
2, 185244, Note_on_c, 0, 46, 90
2, 185264, Control_c, 0, 64, 127
2, 185270, Note_off_c, 0, 46, 64
2, 185270, Note_off_c, 0, 58, 64
2, 185271, Note_off_c, 0, 34, 64
2, 185589, Note_on_c, 0, 94, 93
2, 185596, Note_on_c, 0, 90, 93
2, 185596, Note_on_c, 0, 82, 93
2, 185596, Note_on_c, 0, 70, 96
2, 185596, Note_on_c, 0, 60, 80
2, 185605, Note_on_c, 0, 66, 82
2, 185605, Note_on_c, 0, 58, 80
2, 185610, Note_on_c, 0, 63, 78
2, 185621, Control_c, 0, 64, 0
2, 185662, Control_c, 0, 64, 127
2, 185837, Note_off_c, 0, 58, 64
2, 185882, Note_off_c, 0, 63, 64
2, 185892, Note_off_c, 0, 90, 64
2, 185901, Note_off_c, 0, 94, 64
2, 185920, Note_off_c, 0, 66, 64
2, 185924, Note_off_c, 0, 82, 64
2, 185939, Note_off_c, 0, 60, 64
2, 185954, Note_off_c, 0, 70, 64
2, 186147, Note_on_c, 0, 75, 69
2, 186151, Note_on_c, 0, 87, 73
2, 186154, Note_on_c, 0, 84, 71
2, 186154, Note_on_c, 0, 70, 70
2, 186162, Note_on_c, 0, 60, 64
2, 186163, Note_on_c, 0, 66, 66
2, 186163, Note_on_c, 0, 58, 56
2, 186184, Note_off_c, 0, 75, 64
2, 186185, Note_off_c, 0, 58, 64
2, 186185, Note_off_c, 0, 84, 64
2, 186192, Note_off_c, 0, 66, 64
2, 186194, Note_off_c, 0, 70, 64
2, 186197, Note_off_c, 0, 60, 64
2, 186201, Note_off_c, 0, 87, 64
2, 186258, Note_on_c, 0, 84, 72
2, 186258, Note_on_c, 0, 77, 65
2, 186261, Note_on_c, 0, 58, 66
2, 186264, Note_on_c, 0, 89, 72
2, 186264, Note_on_c, 0, 66, 60
2, 186267, Note_on_c, 0, 70, 79
2, 186271, Note_on_c, 0, 60, 66
2, 186279, Note_off_c, 0, 66, 64
2, 186282, Note_off_c, 0, 77, 64
2, 186284, Note_off_c, 0, 84, 64
2, 186288, Note_off_c, 0, 70, 64
2, 186288, Note_off_c, 0, 89, 64
2, 186291, Note_off_c, 0, 60, 64
2, 186296, Note_off_c, 0, 58, 64
2, 186300, Note_on_c, 0, 84, 82
2, 186300, Note_on_c, 0, 78, 76
2, 186304, Note_on_c, 0, 90, 86
2, 186310, Note_on_c, 0, 66, 72
2, 186310, Note_on_c, 0, 58, 60
2, 186316, Note_on_c, 0, 70, 76
2, 186316, Note_on_c, 0, 60, 65
2, 186338, Note_off_c, 0, 84, 64
2, 186345, Note_off_c, 0, 78, 64
2, 186353, Note_off_c, 0, 90, 64
2, 186356, Note_off_c, 0, 60, 64
2, 186358, Note_off_c, 0, 70, 64
2, 186359, Note_off_c, 0, 66, 64
2, 186362, Note_off_c, 0, 58, 64
2, 186403, Control_c, 0, 64, 0
2, 186416, Note_on_c, 0, 58, 48
2, 186424, Note_on_c, 0, 85, 84
2, 186424, Note_on_c, 0, 77, 75
2, 186424, Note_on_c, 0, 70, 73
2, 186434, Note_on_c, 0, 89, 79
2, 186434, Note_on_c, 0, 65, 64
2, 186434, Note_on_c, 0, 61, 58
2, 186451, Control_c, 0, 64, 127
2, 186460, Note_off_c, 0, 70, 64
2, 186462, Note_off_c, 0, 77, 64
2, 186466, Note_off_c, 0, 65, 64
2, 186466, Note_off_c, 0, 89, 64
2, 186474, Note_off_c, 0, 61, 64
2, 186474, Note_off_c, 0, 85, 64
2, 186485, Note_off_c, 0, 58, 64
2, 186644, Note_on_c, 0, 45, 33
2, 186649, Note_on_c, 0, 57, 49
2, 186663, Note_on_c, 0, 46, 32
2, 186674, Note_on_c, 0, 58, 46
2, 186677, Control_c, 0, 64, 0
2, 186686, Note_on_c, 0, 49, 38
2, 186692, Note_off_c, 0, 45, 64
2, 186704, Note_on_c, 0, 61, 51
2, 186708, Note_off_c, 0, 57, 64
2, 186730, Note_off_c, 0, 46, 64
2, 186733, Note_on_c, 0, 53, 45
2, 186739, Note_off_c, 0, 58, 64
2, 186739, Note_on_c, 0, 65, 50
2, 186744, Note_off_c, 0, 49, 64
2, 186748, Note_off_c, 0, 61, 64
2, 186769, Note_off_c, 0, 65, 64
2, 186769, Note_off_c, 0, 53, 64
2, 186972, Note_on_c, 0, 57, 29
2, 186978, Note_on_c, 0, 45, 32
2, 187008, Note_on_c, 0, 46, 35
2, 187011, Note_on_c, 0, 58, 39
2, 187029, Note_off_c, 0, 45, 64
2, 187036, Note_on_c, 0, 49, 35
2, 187046, Note_off_c, 0, 57, 64
2, 187048, Note_on_c, 0, 61, 41
2, 187076, Note_off_c, 0, 46, 64
2, 187082, Note_off_c, 0, 58, 64
2, 187089, Note_on_c, 0, 65, 34
2, 187092, Note_on_c, 0, 53, 31
2, 187104, Note_off_c, 0, 61, 64
2, 187107, Note_off_c, 0, 49, 64
2, 187154, Control_c, 0, 64, 127
2, 187297, Note_off_c, 0, 65, 64
2, 187343, Note_off_c, 0, 53, 64
2, 187612, Control_c, 0, 64, 0
2, 187641, Note_on_c, 0, 56, 111
2, 187644, Note_on_c, 0, 32, 84
2, 187645, Note_on_c, 0, 44, 103
2, 187668, Control_c, 0, 64, 127
2, 187676, Note_off_c, 0, 44, 64
2, 187680, Note_off_c, 0, 32, 64
2, 187680, Note_off_c, 0, 56, 64
2, 187961, Note_on_c, 0, 56, 82
2, 187991, Control_c, 0, 64, 0
2, 187997, Note_on_c, 0, 65, 80
2, 188002, Note_on_c, 0, 92, 93
2, 188006, Note_on_c, 0, 89, 93
2, 188006, Note_on_c, 0, 80, 107
2, 188018, Note_on_c, 0, 73, 93
2, 188035, Control_c, 0, 64, 127
2, 188226, Note_off_c, 0, 73, 64
2, 188230, Note_off_c, 0, 65, 64
2, 188248, Note_off_c, 0, 89, 64
2, 188262, Note_off_c, 0, 92, 64
2, 188271, Note_off_c, 0, 56, 64
2, 188286, Note_off_c, 0, 80, 64
2, 188540, Note_on_c, 0, 87, 92
2, 188540, Note_on_c, 0, 66, 69
2, 188546, Note_on_c, 0, 75, 73
2, 188546, Note_on_c, 0, 68, 73
2, 188546, Note_on_c, 0, 56, 63
2, 188552, Note_on_c, 0, 84, 84
2, 188552, Note_on_c, 0, 63, 67
2, 188570, Note_off_c, 0, 56, 64
2, 188573, Note_off_c, 0, 75, 64
2, 188576, Note_off_c, 0, 84, 64
2, 188579, Note_off_c, 0, 63, 64
2, 188579, Note_off_c, 0, 68, 64
2, 188579, Note_off_c, 0, 66, 64
2, 188595, Note_off_c, 0, 87, 64
2, 188664, Note_on_c, 0, 84, 84
2, 188667, Note_on_c, 0, 77, 56
2, 188672, Note_on_c, 0, 66, 84
2, 188672, Note_on_c, 0, 56, 72
2, 188676, Note_on_c, 0, 89, 93
2, 188676, Note_on_c, 0, 68, 82
2, 188680, Note_on_c, 0, 63, 58
2, 188690, Note_off_c, 0, 77, 64
2, 188691, Note_off_c, 0, 84, 64
2, 188693, Note_off_c, 0, 89, 64
2, 188695, Note_off_c, 0, 63, 64
2, 188697, Note_off_c, 0, 66, 64
2, 188699, Note_off_c, 0, 68, 64
2, 188702, Note_off_c, 0, 56, 64
2, 188710, Note_on_c, 0, 78, 84
2, 188711, Note_on_c, 0, 90, 88
2, 188711, Note_on_c, 0, 84, 74
2, 188719, Note_on_c, 0, 68, 68
2, 188719, Note_on_c, 0, 66, 73
2, 188719, Note_on_c, 0, 56, 67
2, 188725, Note_on_c, 0, 63, 62
2, 188741, Note_off_c, 0, 84, 64
2, 188749, Note_off_c, 0, 63, 64
2, 188760, Note_off_c, 0, 66, 64
2, 188762, Note_off_c, 0, 68, 64
2, 188762, Note_off_c, 0, 78, 64
2, 188767, Note_off_c, 0, 90, 64
2, 188771, Note_off_c, 0, 56, 64
2, 188819, Control_c, 0, 64, 0
2, 188838, Note_on_c, 0, 85, 84
2, 188838, Note_on_c, 0, 77, 91
2, 188839, Note_on_c, 0, 89, 84
2, 188846, Note_on_c, 0, 68, 103
2, 188846, Note_on_c, 0, 61, 94
2, 188852, Note_on_c, 0, 65, 94
2, 188858, Control_c, 0, 64, 127
2, 188875, Note_off_c, 0, 89, 64
2, 188881, Note_off_c, 0, 85, 64
2, 188886, Note_off_c, 0, 65, 64
2, 188886, Note_off_c, 0, 77, 64
2, 188892, Note_off_c, 0, 68, 64
2, 188904, Note_off_c, 0, 61, 64
2, 189090, Control_c, 0, 64, 0
2, 189102, Note_on_c, 0, 77, 103
2, 189106, Note_on_c, 0, 69, 98
2, 189106, Note_on_c, 0, 65, 94
2, 189110, Note_on_c, 0, 60, 94
2, 189110, Note_on_c, 0, 53, 99
2, 189132, Control_c, 0, 64, 127
2, 189158, Note_off_c, 0, 77, 64
2, 189170, Note_off_c, 0, 65, 64
2, 189170, Note_off_c, 0, 69, 64
2, 189175, Note_off_c, 0, 60, 64
2, 189193, Note_off_c, 0, 53, 64
2, 189390, Note_on_c, 0, 65, 103
2, 189393, Note_on_c, 0, 57, 98
2, 189393, Note_on_c, 0, 41, 98
2, 189394, Note_on_c, 0, 53, 97
2, 189394, Note_on_c, 0, 48, 98
2, 189491, Note_off_c, 0, 65, 64
2, 189508, Note_off_c, 0, 53, 64
2, 189510, Note_off_c, 0, 57, 64
2, 189518, Note_off_c, 0, 48, 64
2, 189536, Note_off_c, 0, 41, 64
2, 189733, Note_on_c, 0, 29, 106
2, 189739, Note_on_c, 0, 41, 122
2, 189769, Control_c, 0, 64, 0
2, 189849, Control_c, 0, 64, 127
2, 190471, Note_off_c, 0, 41, 64
2, 190472, Note_on_c, 0, 42, 127
2, 190477, Note_on_c, 0, 30, 127
2, 190485, Note_off_c, 0, 42, 64
2, 190486, Note_off_c, 0, 29, 64
2, 190494, Control_c, 0, 64, 0
2, 190500, Note_off_c, 0, 30, 64
2, 191559, Note_on_c, 0, 45, 23
2, 191564, Note_on_c, 0, 57, 25
2, 191578, Note_on_c, 0, 46, 33
2, 191586, Note_on_c, 0, 58, 34
2, 191586, Control_c, 0, 64, 127
2, 191604, Note_on_c, 0, 49, 23
2, 191611, Note_off_c, 0, 45, 64
2, 191618, Note_on_c, 0, 61, 37
2, 191640, Note_off_c, 0, 57, 64
2, 191643, Control_c, 0, 64, 0
2, 191651, Note_on_c, 0, 65, 40
2, 191654, Note_off_c, 0, 58, 64
2, 191657, Note_off_c, 0, 46, 64
2, 191657, Note_on_c, 0, 53, 32
2, 191663, Note_off_c, 0, 61, 64
2, 191666, Note_off_c, 0, 49, 64
2, 191678, Note_off_c, 0, 65, 64
2, 191686, Note_off_c, 0, 53, 64
2, 191894, Note_on_c, 0, 57, 20
2, 191922, Note_on_c, 0, 58, 31
2, 191926, Note_on_c, 0, 46, 28
2, 191932, Note_on_c, 0, 45, 2
2, 191952, Note_on_c, 0, 49, 14
2, 191957, Note_on_c, 0, 61, 31
2, 191966, Note_off_c, 0, 45, 64
2, 191966, Note_off_c, 0, 57, 64
2, 191993, Note_on_c, 0, 65, 31
2, 192001, Note_on_c, 0, 53, 13
2, 192004, Note_off_c, 0, 46, 64
2, 192004, Note_off_c, 0, 58, 64
2, 192010, Note_off_c, 0, 61, 64
2, 192014, Note_off_c, 0, 49, 64
2, 192082, Control_c, 0, 64, 127
2, 192436, Control_c, 0, 64, 0
2, 192486, Note_on_c, 0, 58, 121
2, 192486, Note_on_c, 0, 34, 87
2, 192490, Note_on_c, 0, 46, 114
2, 192498, Note_off_c, 0, 65, 64
2, 192506, Note_off_c, 0, 53, 64
2, 192508, Control_c, 0, 64, 127
2, 192517, Note_off_c, 0, 46, 64
2, 192518, Note_off_c, 0, 34, 64
2, 192520, Note_off_c, 0, 58, 64
2, 192797, Note_on_c, 0, 94, 94
2, 192797, Note_on_c, 0, 58, 90
2, 192802, Note_on_c, 0, 82, 106
2, 192807, Note_on_c, 0, 60, 94
2, 192808, Note_on_c, 0, 90, 86
2, 192808, Note_on_c, 0, 70, 105
2, 192808, Note_on_c, 0, 66, 94
2, 192808, Note_on_c, 0, 63, 94
2, 192820, Control_c, 0, 64, 0
2, 192873, Control_c, 0, 64, 127
2, 192914, Note_off_c, 0, 58, 64
2, 192924, Note_off_c, 0, 63, 64
2, 192934, Note_off_c, 0, 66, 64
2, 192973, Note_off_c, 0, 94, 64
2, 192978, Note_off_c, 0, 90, 64
2, 192986, Note_off_c, 0, 70, 64
2, 192992, Note_off_c, 0, 60, 64
2, 192992, Note_off_c, 0, 82, 64
2, 193232, Note_on_c, 0, 70, 92
2, 193238, Note_on_c, 0, 75, 77
2, 193239, Note_on_c, 0, 87, 79
2, 193239, Note_on_c, 0, 60, 71
2, 193240, Note_on_c, 0, 63, 64
2, 193244, Note_on_c, 0, 58, 62
2, 193245, Note_on_c, 0, 84, 74
2, 193245, Note_on_c, 0, 66, 64
2, 193254, Note_off_c, 0, 66, 64
2, 193255, Note_off_c, 0, 63, 64
2, 193257, Note_off_c, 0, 58, 64
2, 193257, Note_off_c, 0, 87, 64
2, 193258, Note_off_c, 0, 75, 64
2, 193262, Note_off_c, 0, 84, 64
2, 193264, Note_off_c, 0, 60, 64
2, 193264, Note_off_c, 0, 70, 64
2, 193278, Note_on_c, 0, 60, 66
2, 193281, Note_on_c, 0, 58, 67
2, 193282, Note_on_c, 0, 75, 81
2, 193282, Note_on_c, 0, 70, 73
2, 193288, Note_on_c, 0, 63, 64
2, 193290, Note_on_c, 0, 87, 82
2, 193290, Note_on_c, 0, 84, 85
2, 193291, Note_on_c, 0, 66, 71
2, 193314, Note_off_c, 0, 75, 64
2, 193318, Note_off_c, 0, 70, 64
2, 193320, Note_off_c, 0, 66, 64
2, 193320, Note_off_c, 0, 84, 64
2, 193326, Note_off_c, 0, 60, 64
2, 193329, Note_off_c, 0, 87, 64
2, 193330, Note_off_c, 0, 58, 64
2, 193348, Note_off_c, 0, 63, 64
2, 193395, Note_on_c, 0, 60, 77
2, 193395, Note_on_c, 0, 58, 74
2, 193400, Note_on_c, 0, 63, 64
2, 193403, Note_on_c, 0, 87, 83
2, 193403, Note_on_c, 0, 84, 82
2, 193403, Note_on_c, 0, 75, 85
2, 193404, Note_on_c, 0, 70, 90
2, 193404, Note_on_c, 0, 66, 79
2, 193415, Note_off_c, 0, 63, 64
2, 193425, Note_off_c, 0, 66, 64
2, 193425, Note_off_c, 0, 75, 64
2, 193432, Note_off_c, 0, 84, 64
2, 193434, Note_off_c, 0, 70, 64
2, 193438, Note_off_c, 0, 58, 64
2, 193440, Note_off_c, 0, 60, 64
2, 193443, Note_off_c, 0, 87, 64
2, 193514, Note_on_c, 0, 84, 74
2, 193520, Note_on_c, 0, 77, 64
2, 193520, Note_on_c, 0, 66, 64
2, 193520, Note_on_c, 0, 63, 64
2, 193524, Note_on_c, 0, 70, 85
2, 193524, Note_on_c, 0, 60, 74
2, 193524, Note_on_c, 0, 58, 66
2, 193534, Note_on_c, 0, 89, 79
2, 193535, Note_off_c, 0, 63, 64
2, 193535, Note_off_c, 0, 66, 64
2, 193537, Note_off_c, 0, 77, 64
2, 193546, Note_off_c, 0, 89, 64
2, 193546, Note_off_c, 0, 84, 64
2, 193550, Note_off_c, 0, 70, 64
2, 193552, Note_off_c, 0, 60, 64
2, 193554, Note_off_c, 0, 58, 64
2, 193558, Note_on_c, 0, 84, 82
2, 193558, Note_on_c, 0, 78, 79
2, 193561, Note_on_c, 0, 90, 86
2, 193568, Note_on_c, 0, 63, 64
2, 193568, Note_on_c, 0, 58, 71
2, 193571, Note_on_c, 0, 70, 82
2, 193572, Note_on_c, 0, 66, 79
2, 193572, Note_on_c, 0, 60, 79
2, 193584, Note_off_c, 0, 84, 64
2, 193601, Note_off_c, 0, 90, 64
2, 193603, Note_off_c, 0, 70, 64
2, 193606, Note_off_c, 0, 78, 64
2, 193607, Note_off_c, 0, 66, 64
2, 193609, Note_off_c, 0, 60, 64
2, 193610, Note_off_c, 0, 58, 64
2, 193628, Note_off_c, 0, 63, 64
2, 193667, Control_c, 0, 64, 0
2, 193685, Note_on_c, 0, 58, 1
2, 193692, Note_on_c, 0, 70, 74
2, 193693, Note_on_c, 0, 85, 79
2, 193698, Note_on_c, 0, 89, 75
2, 193698, Note_on_c, 0, 77, 79
2, 193704, Note_on_c, 0, 65, 71
2, 193704, Note_on_c, 0, 61, 66
2, 193722, Control_c, 0, 64, 127
2, 193730, Note_off_c, 0, 70, 64
2, 193734, Note_off_c, 0, 65, 64
2, 193734, Note_off_c, 0, 89, 64
2, 193740, Note_off_c, 0, 61, 64
2, 193740, Note_off_c, 0, 85, 64
2, 193742, Note_off_c, 0, 77, 64
2, 193749, Note_off_c, 0, 58, 64
2, 193913, Note_on_c, 0, 57, 45
2, 193916, Note_on_c, 0, 45, 38
2, 193940, Control_c, 0, 64, 0
2, 193944, Note_on_c, 0, 46, 23
2, 193951, Note_on_c, 0, 58, 46
2, 193967, Note_on_c, 0, 49, 23
2, 193974, Note_off_c, 0, 45, 64
2, 193975, Note_on_c, 0, 61, 40
2, 193987, Note_off_c, 0, 57, 64
2, 194010, Note_off_c, 0, 58, 64
2, 194012, Note_on_c, 0, 65, 52
2, 194012, Note_on_c, 0, 53, 31
2, 194016, Note_off_c, 0, 46, 64
2, 194022, Note_off_c, 0, 49, 64
2, 194027, Note_off_c, 0, 61, 64
2, 194039, Note_off_c, 0, 65, 64
2, 194043, Note_off_c, 0, 53, 64
2, 194245, Note_on_c, 0, 45, 36
2, 194248, Note_on_c, 0, 57, 42
2, 194278, Note_on_c, 0, 58, 45
2, 194282, Note_on_c, 0, 46, 36
2, 194306, Note_off_c, 0, 45, 64
2, 194308, Note_off_c, 0, 57, 64
2, 194309, Note_on_c, 0, 49, 28
2, 194314, Note_on_c, 0, 61, 42
2, 194346, Note_off_c, 0, 46, 64
2, 194347, Note_off_c, 0, 58, 64
2, 194356, Note_on_c, 0, 65, 38
2, 194364, Note_on_c, 0, 53, 23
2, 194372, Note_off_c, 0, 61, 64
2, 194372, Note_off_c, 0, 49, 64
2, 194541, Control_c, 0, 64, 127
2, 194794, Control_c, 0, 64, 0
2, 194821, Note_off_c, 0, 65, 64
2, 194829, Note_off_c, 0, 53, 64
2, 194846, Note_on_c, 0, 60, 95
2, 194853, Note_on_c, 0, 48, 103
2, 194853, Note_on_c, 0, 36, 94
2, 194865, Control_c, 0, 64, 127
2, 194876, Note_off_c, 0, 48, 64
2, 194878, Note_off_c, 0, 60, 64
2, 194881, Note_off_c, 0, 36, 64
2, 195136, Note_on_c, 0, 72, 80
2, 195136, Note_on_c, 0, 60, 77
2, 195143, Note_on_c, 0, 92, 81
2, 195143, Note_on_c, 0, 68, 73
2, 195144, Note_on_c, 0, 96, 85
2, 195144, Note_on_c, 0, 65, 80
2, 195148, Note_on_c, 0, 89, 82
2, 195152, Note_on_c, 0, 84, 81
2, 195162, Control_c, 0, 64, 0
2, 195203, Control_c, 0, 64, 127
2, 195397, Note_off_c, 0, 96, 64
2, 195404, Note_off_c, 0, 92, 64
2, 195405, Note_off_c, 0, 89, 64
2, 195406, Note_off_c, 0, 65, 64
2, 195423, Note_off_c, 0, 68, 64
2, 195426, Note_off_c, 0, 84, 64
2, 195431, Note_off_c, 0, 72, 64
2, 195434, Note_off_c, 0, 60, 64
2, 195644, Control_c, 0, 64, 0
2, 195656, Note_on_c, 0, 91, 70
2, 195656, Note_on_c, 0, 60, 68
2, 195663, Note_on_c, 0, 70, 71
2, 195663, Note_on_c, 0, 67, 68
2, 195664, Note_on_c, 0, 88, 72
2, 195664, Note_on_c, 0, 79, 72
2, 195664, Note_on_c, 0, 72, 70
2, 195683, Control_c, 0, 64, 127
2, 195688, Note_off_c, 0, 79, 64
2, 195700, Note_off_c, 0, 60, 64
2, 195702, Note_off_c, 0, 91, 64
2, 195703, Note_off_c, 0, 67, 64
2, 195709, Note_off_c, 0, 72, 64
2, 195709, Note_off_c, 0, 88, 64
2, 195713, Note_off_c, 0, 70, 64
2, 195758, Note_on_c, 0, 70, 78
2, 195760, Note_on_c, 0, 67, 78
2, 195767, Note_on_c, 0, 72, 73
2, 195768, Note_on_c, 0, 88, 70
2, 195768, Note_on_c, 0, 80, 82
2, 195768, Note_on_c, 0, 60, 72
2, 195773, Note_on_c, 0, 92, 82
2, 195783, Note_off_c, 0, 88, 64
2, 195784, Note_off_c, 0, 92, 64
2, 195788, Note_off_c, 0, 80, 64
2, 195789, Note_off_c, 0, 60, 64
2, 195789, Note_off_c, 0, 72, 64
2, 195792, Note_off_c, 0, 67, 64
2, 195792, Note_off_c, 0, 70, 64
2, 195808, Note_on_c, 0, 94, 77
2, 195808, Note_on_c, 0, 88, 70
2, 195808, Note_on_c, 0, 70, 72
2, 195808, Note_on_c, 0, 67, 70
2, 195809, Note_on_c, 0, 60, 68
2, 195813, Note_on_c, 0, 82, 78
2, 195813, Note_on_c, 0, 72, 71
2, 195814, Note_off_c, 0, 94, 64
2, 195818, Note_on_c, 0, 94, 72
2, 195842, Note_off_c, 0, 60, 64
2, 195846, Note_off_c, 0, 67, 64
2, 195846, Note_off_c, 0, 82, 64
2, 195852, Note_off_c, 0, 70, 64
2, 195857, Note_off_c, 0, 94, 64
2, 195858, Note_off_c, 0, 72, 64
2, 195868, Note_off_c, 0, 88, 64
2, 195938, Control_c, 0, 64, 0
2, 195948, Note_on_c, 0, 92, 72
2, 195953, Note_on_c, 0, 89, 72
2, 195953, Note_on_c, 0, 84, 77
2, 195953, Note_on_c, 0, 65, 67
2, 195954, Note_on_c, 0, 80, 83
2, 195960, Note_on_c, 0, 68, 70
2, 195961, Note_on_c, 0, 77, 70
2, 195961, Note_on_c, 0, 72, 68
2, 195991, Control_c, 0, 64, 127
2, 196002, Note_off_c, 0, 92, 64
2, 196005, Note_off_c, 0, 84, 64
2, 196005, Note_off_c, 0, 89, 64
2, 196006, Note_off_c, 0, 77, 64
2, 196012, Note_off_c, 0, 72, 64
2, 196017, Note_off_c, 0, 80, 64
2, 196020, Note_off_c, 0, 68, 64
2, 196029, Note_off_c, 0, 65, 64
2, 196180, Note_on_c, 0, 72, 80
2, 196188, Note_on_c, 0, 77, 80
2, 196188, Note_on_c, 0, 68, 80
2, 196188, Note_on_c, 0, 65, 80
2, 196188, Note_on_c, 0, 60, 80
2, 196195, Note_on_c, 0, 80, 80
2, 196195, Note_on_c, 0, 53, 80
2, 196204, Control_c, 0, 64, 0
2, 196248, Control_c, 0, 64, 127
2, 196260, Note_off_c, 0, 72, 64
2, 196268, Note_off_c, 0, 60, 64
2, 196268, Note_off_c, 0, 65, 64
2, 196268, Note_off_c, 0, 68, 64
2, 196268, Note_off_c, 0, 77, 64
2, 196275, Note_off_c, 0, 80, 64
2, 196276, Note_off_c, 0, 53, 64
2, 196432, Control_c, 0, 64, 0
2, 196435, Note_on_c, 0, 68, 83
2, 196441, Note_on_c, 0, 41, 86
2, 196446, Note_on_c, 0, 60, 89
2, 196446, Note_on_c, 0, 53, 86
2, 196447, Note_on_c, 0, 65, 79
2, 196447, Note_on_c, 0, 56, 94
2, 196447, Note_on_c, 0, 48, 82
2, 196477, Control_c, 0, 64, 127
2, 196546, Note_off_c, 0, 68, 64
2, 196551, Note_off_c, 0, 65, 64
2, 196557, Note_off_c, 0, 60, 64
2, 196564, Note_off_c, 0, 53, 64
2, 196576, Note_off_c, 0, 48, 64
2, 196578, Note_off_c, 0, 56, 64
2, 196589, Note_off_c, 0, 41, 64
2, 196738, Control_c, 0, 64, 0
2, 196783, Note_on_c, 0, 40, 98
2, 196788, Note_on_c, 0, 28, 94
2, 196796, Control_c, 0, 64, 127
2, 196798, Control_c, 0, 64, 0
2, 196856, Control_c, 0, 64, 127
2, 197300, Note_off_c, 0, 28, 64
2, 197300, Note_off_c, 0, 40, 64
2, 197300, Note_on_c, 0, 41, 72
2, 197300, Note_on_c, 0, 29, 65
2, 197309, Control_c, 0, 64, 0
2, 197572, Note_on_c, 0, 26, 33
2, 197573, Note_on_c, 0, 38, 57
2, 197589, Note_off_c, 0, 29, 64
2, 197589, Note_off_c, 0, 41, 64
2, 197589, Control_c, 0, 64, 127
2, 197603, Control_c, 0, 64, 127
2, 197644, Note_on_c, 0, 39, 51
2, 197644, Note_on_c, 0, 27, 41
2, 197649, Note_off_c, 0, 26, 64
2, 197650, Note_off_c, 0, 38, 64
2, 197708, Note_off_c, 0, 39, 64
2, 197716, Note_on_c, 0, 41, 35
2, 197723, Note_off_c, 0, 27, 64
2, 197725, Note_on_c, 0, 29, 45
2, 197762, Note_on_c, 0, 39, 44
2, 197763, Note_off_c, 0, 41, 64
2, 197787, Note_on_c, 0, 27, 45
2, 197799, Note_off_c, 0, 29, 64
2, 197803, Note_off_c, 0, 39, 64
2, 197807, Note_on_c, 0, 41, 66
2, 197837, Note_on_c, 0, 29, 63
2, 197845, Note_off_c, 0, 41, 64
2, 197847, Note_on_c, 0, 39, 55
2, 197851, Note_off_c, 0, 27, 64
2, 197874, Note_off_c, 0, 39, 64
2, 197884, Note_on_c, 0, 41, 51
2, 197889, Note_on_c, 0, 27, 57
2, 197892, Note_off_c, 0, 29, 64
2, 197913, Note_off_c, 0, 41, 64
2, 197915, Note_on_c, 0, 39, 75
2, 197929, Note_on_c, 0, 29, 72
2, 197939, Note_off_c, 0, 27, 64
2, 197944, Note_off_c, 0, 39, 64
2, 197951, Note_on_c, 0, 41, 63
2, 197972, Note_on_c, 0, 27, 64
2, 197980, Note_off_c, 0, 41, 64
2, 197983, Note_off_c, 0, 29, 64
2, 197988, Note_on_c, 0, 39, 79
2, 198016, Note_off_c, 0, 39, 64
2, 198020, Note_on_c, 0, 41, 66
2, 198020, Note_on_c, 0, 29, 78
2, 198023, Note_off_c, 0, 27, 64
2, 198048, Note_off_c, 0, 41, 64
2, 198052, Note_on_c, 0, 39, 80
2, 198052, Note_on_c, 0, 27, 72
2, 198064, Note_off_c, 0, 29, 64
2, 198080, Note_on_c, 0, 41, 73
2, 198083, Note_off_c, 0, 39, 64
2, 198089, Control_c, 0, 64, 0
2, 198102, Note_on_c, 0, 29, 85
2, 198104, Note_off_c, 0, 27, 64
2, 198112, Note_off_c, 0, 41, 64
2, 198121, Note_on_c, 0, 39, 84
2, 198139, Note_on_c, 0, 27, 66
2, 198148, Note_off_c, 0, 39, 64
2, 198148, Note_on_c, 0, 41, 84
2, 198192, Note_on_c, 0, 39, 69
2, 198210, Note_off_c, 0, 41, 64
2, 198239, Note_off_c, 0, 29, 64
2, 198246, Note_on_c, 0, 26, 54
2, 198257, Note_off_c, 0, 39, 64
2, 198261, Note_off_c, 0, 27, 64
2, 198261, Note_on_c, 0, 38, 81
2, 198322, Note_on_c, 0, 27, 90
2, 198328, Note_on_c, 0, 39, 95
2, 198332, Note_off_c, 0, 38, 64
2, 198344, Note_off_c, 0, 26, 64
2, 198362, Control_c, 0, 64, 0
2, 198371, Note_off_c, 0, 27, 64
2, 198381, Note_off_c, 0, 39, 64
2, 198383, Control_c, 0, 64, 127
2, 198387, Note_on_c, 0, 101, 96
2, 198396, Note_on_c, 0, 37, 95
2, 198396, Note_on_c, 0, 25, 95
2, 198575, Note_on_c, 0, 56, 62
2, 198575, Note_on_c, 0, 44, 64
2, 198625, Note_off_c, 0, 56, 64
2, 198632, Note_off_c, 0, 44, 64
2, 198668, Note_on_c, 0, 61, 79
2, 198673, Note_on_c, 0, 53, 42
2, 198720, Note_off_c, 0, 53, 64
2, 198730, Note_off_c, 0, 61, 64
2, 198740, Note_on_c, 0, 99, 57
2, 198772, Note_on_c, 0, 97, 82
2, 198776, Note_off_c, 0, 101, 64
2, 198796, Note_off_c, 0, 99, 64
2, 198804, Note_on_c, 0, 92, 72
2, 198821, Note_off_c, 0, 97, 64
2, 198824, Note_on_c, 0, 44, 69
2, 198832, Note_on_c, 0, 56, 41
2, 198838, Note_on_c, 0, 89, 77
2, 198840, Note_off_c, 0, 92, 64
2, 198849, Note_off_c, 0, 56, 64
2, 198863, Note_off_c, 0, 89, 64
2, 198880, Note_on_c, 0, 87, 94
2, 198883, Note_off_c, 0, 44, 64
2, 198887, Note_on_c, 0, 53, 69
2, 198902, Note_on_c, 0, 61, 77
2, 198909, Note_off_c, 0, 25, 64
2, 198913, Note_on_c, 0, 85, 78
2, 198914, Note_off_c, 0, 37, 64
2, 198922, Note_off_c, 0, 87, 64
2, 198958, Note_on_c, 0, 80, 77
2, 198964, Note_off_c, 0, 61, 64
2, 198967, Note_off_c, 0, 85, 64
2, 198990, Note_off_c, 0, 80, 64
2, 198992, Note_on_c, 0, 77, 72
2, 199002, Note_off_c, 0, 53, 64
2, 199022, Note_off_c, 0, 77, 64
2, 199035, Note_on_c, 0, 75, 76
2, 199076, Note_on_c, 0, 73, 79
2, 199086, Note_off_c, 0, 75, 64
2, 199118, Control_c, 0, 64, 0
2, 199130, Note_on_c, 0, 68, 69
2, 199142, Note_off_c, 0, 73, 64
2, 199229, Note_off_c, 0, 68, 64
2, 199407, Note_on_c, 0, 44, 58
2, 199412, Note_on_c, 0, 54, 52
2, 199412, Note_on_c, 0, 51, 55
2, 199416, Note_on_c, 0, 72, 70
2, 199424, Control_c, 0, 64, 127
2, 199442, Note_on_c, 0, 73, 70
2, 199444, Note_off_c, 0, 44, 64
2, 199449, Note_off_c, 0, 51, 64
2, 199458, Note_off_c, 0, 54, 64
2, 199462, Note_off_c, 0, 72, 64
2, 199481, Note_on_c, 0, 75, 64
2, 199493, Note_off_c, 0, 73, 64
2, 199512, Note_off_c, 0, 75, 64
2, 199526, Note_on_c, 0, 77, 76
2, 199568, Note_on_c, 0, 78, 65
2, 199587, Note_off_c, 0, 77, 64
2, 199603, Note_on_c, 0, 80, 73
2, 199616, Note_off_c, 0, 78, 64
2, 199630, Control_c, 0, 64, 0
2, 199648, Note_on_c, 0, 81, 64
2, 199660, Note_on_c, 0, 66, 58
2, 199660, Note_on_c, 0, 55, 51
2, 199664, Note_off_c, 0, 80, 64
2, 199664, Note_on_c, 0, 60, 55
2, 199672, Control_c, 0, 64, 127
2, 199702, Note_off_c, 0, 66, 64
2, 199710, Note_off_c, 0, 60, 64
2, 199719, Note_off_c, 0, 81, 64
2, 199727, Control_c, 0, 64, 0
2, 199749, Note_off_c, 0, 55, 64
2, 199749, Note_on_c, 0, 56, 56
2, 199750, Control_c, 0, 64, 127
2, 199756, Note_on_c, 0, 66, 63
2, 199756, Note_on_c, 0, 60, 59
2, 199789, Note_off_c, 0, 60, 64
2, 199791, Note_off_c, 0, 66, 64
2, 199796, Note_off_c, 0, 56, 64
2, 199829, Note_on_c, 0, 56, 55
2, 199836, Note_on_c, 0, 66, 62
2, 199836, Note_on_c, 0, 60, 51
2, 199892, Note_off_c, 0, 60, 64
2, 199903, Note_off_c, 0, 56, 64
2, 199911, Note_on_c, 0, 81, 70
2, 199940, Note_on_c, 0, 80, 66
2, 199953, Note_off_c, 0, 81, 64
2, 199956, Note_off_c, 0, 66, 64
2, 199979, Note_off_c, 0, 80, 64
2, 199982, Note_on_c, 0, 79, 75
2, 200018, Note_on_c, 0, 78, 77
2, 200024, Note_off_c, 0, 79, 64
2, 200051, Note_on_c, 0, 77, 60
2, 200064, Note_off_c, 0, 78, 64
2, 200076, Control_c, 0, 64, 0
2, 200087, Note_on_c, 0, 76, 75
2, 200092, Note_off_c, 0, 77, 64
2, 200125, Note_on_c, 0, 57, 55
2, 200127, Note_on_c, 0, 66, 61
2, 200132, Note_on_c, 0, 75, 86
2, 200132, Note_on_c, 0, 60, 55
2, 200138, Note_off_c, 0, 76, 64
2, 200140, Control_c, 0, 64, 127
2, 200145, Note_off_c, 0, 75, 64
2, 200160, Note_off_c, 0, 60, 64
2, 200169, Note_off_c, 0, 66, 64
2, 200214, Note_off_c, 0, 57, 64
2, 200219, Note_on_c, 0, 56, 49
2, 200224, Note_on_c, 0, 66, 62
2, 200227, Note_on_c, 0, 60, 52
2, 200256, Note_off_c, 0, 60, 64
2, 200262, Note_off_c, 0, 66, 64
2, 200264, Note_off_c, 0, 56, 64
2, 200302, Note_on_c, 0, 66, 61
2, 200306, Note_on_c, 0, 56, 58
2, 200312, Note_on_c, 0, 60, 54
2, 200326, Note_off_c, 0, 66, 64
2, 200327, Note_off_c, 0, 60, 64
2, 200338, Note_off_c, 0, 56, 64
2, 200409, Control_c, 0, 64, 0
2, 200428, Note_on_c, 0, 101, 98
2, 200430, Note_on_c, 0, 37, 71
2, 200434, Note_on_c, 0, 25, 69
2, 200461, Control_c, 0, 64, 127
2, 200622, Note_on_c, 0, 56, 73
2, 200624, Note_on_c, 0, 44, 71
2, 200673, Note_off_c, 0, 56, 64
2, 200681, Note_off_c, 0, 44, 64
2, 200712, Note_on_c, 0, 53, 69
2, 200718, Note_on_c, 0, 61, 92
2, 200774, Note_off_c, 0, 61, 64
2, 200786, Note_on_c, 0, 99, 65
2, 200806, Note_off_c, 0, 53, 64
2, 200817, Note_off_c, 0, 101, 64
2, 200818, Note_on_c, 0, 97, 79
2, 200840, Note_off_c, 0, 99, 64
2, 200849, Note_on_c, 0, 92, 68
2, 200852, Note_on_c, 0, 56, 57
2, 200852, Note_on_c, 0, 44, 75
2, 200867, Note_off_c, 0, 97, 64
2, 200878, Note_on_c, 0, 89, 69
2, 200883, Note_off_c, 0, 92, 64
2, 200888, Note_off_c, 0, 56, 64
2, 200904, Note_off_c, 0, 44, 64
2, 200906, Note_off_c, 0, 89, 64
2, 200923, Note_on_c, 0, 87, 79
2, 200928, Note_on_c, 0, 53, 67
2, 200938, Note_on_c, 0, 61, 77
2, 200957, Note_on_c, 0, 85, 72
2, 200970, Note_off_c, 0, 87, 64
2, 200979, Note_off_c, 0, 25, 64
2, 200980, Note_off_c, 0, 61, 64
2, 200995, Note_off_c, 0, 37, 64
2, 200995, Note_on_c, 0, 80, 68
2, 201007, Note_off_c, 0, 85, 64
2, 201012, Note_off_c, 0, 53, 64
2, 201034, Note_off_c, 0, 80, 64
2, 201040, Note_on_c, 0, 77, 51
2, 201058, Note_off_c, 0, 77, 64
2, 201078, Note_on_c, 0, 75, 63
2, 201090, Control_c, 0, 64, 0
2, 201126, Note_off_c, 0, 75, 64
2, 201128, Note_on_c, 0, 73, 36
2, 201170, Note_on_c, 0, 68, 52
2, 201176, Note_off_c, 0, 73, 64
2, 201270, Note_off_c, 0, 68, 64
2, 201437, Note_on_c, 0, 72, 54
2, 201437, Note_on_c, 0, 44, 53
2, 201442, Note_on_c, 0, 54, 46
2, 201442, Note_on_c, 0, 51, 48
2, 201459, Control_c, 0, 64, 127
2, 201468, Note_on_c, 0, 73, 55
2, 201487, Note_off_c, 0, 51, 64
2, 201489, Note_off_c, 0, 44, 64
2, 201494, Note_off_c, 0, 72, 64
2, 201506, Note_off_c, 0, 54, 64
2, 201516, Note_on_c, 0, 75, 64
2, 201530, Note_off_c, 0, 73, 64
2, 201549, Note_off_c, 0, 75, 64
2, 201566, Note_on_c, 0, 77, 63
2, 201606, Note_on_c, 0, 78, 57
2, 201626, Note_off_c, 0, 77, 64
2, 201643, Note_on_c, 0, 80, 58
2, 201663, Note_off_c, 0, 78, 64
2, 201682, Note_on_c, 0, 81, 65
2, 201688, Note_on_c, 0, 60, 49
2, 201692, Note_off_c, 0, 80, 64
2, 201695, Control_c, 0, 64, 0
2, 201718, Control_c, 0, 64, 127
2, 201728, Note_on_c, 0, 61, 39
2, 201731, Note_off_c, 0, 81, 64
2, 201745, Note_off_c, 0, 60, 64
2, 201763, Note_on_c, 0, 63, 61
2, 201782, Note_off_c, 0, 61, 64
2, 201806, Note_on_c, 0, 65, 58
2, 201810, Note_off_c, 0, 63, 64
2, 201844, Note_on_c, 0, 66, 63
2, 201858, Note_off_c, 0, 65, 64
2, 201882, Control_c, 0, 64, 0
2, 201890, Note_on_c, 0, 68, 69
2, 201901, Note_off_c, 0, 66, 64
2, 201924, Note_on_c, 0, 69, 60
2, 201932, Note_off_c, 0, 68, 64
2, 201936, Note_on_c, 0, 81, 51
2, 201947, Control_c, 0, 64, 127
2, 201971, Note_on_c, 0, 80, 57
2, 201973, Note_off_c, 0, 69, 64
2, 201985, Note_off_c, 0, 81, 64
2, 202015, Note_on_c, 0, 79, 55
2, 202017, Note_off_c, 0, 80, 64
2, 202053, Note_on_c, 0, 78, 55
2, 202062, Note_off_c, 0, 79, 64
2, 202085, Note_on_c, 0, 77, 40
2, 202099, Note_off_c, 0, 78, 64
2, 202122, Control_c, 0, 64, 0
2, 202131, Note_off_c, 0, 77, 64
2, 202131, Note_on_c, 0, 76, 40
2, 202164, Note_on_c, 0, 57, 49
2, 202179, Note_on_c, 0, 75, 51
2, 202187, Control_c, 0, 64, 127
2, 202204, Note_on_c, 0, 56, 57
2, 202211, Note_off_c, 0, 57, 64
2, 202211, Note_off_c, 0, 76, 64
2, 202248, Note_on_c, 0, 55, 50
2, 202254, Note_off_c, 0, 56, 64
2, 202255, Note_off_c, 0, 75, 64
2, 202288, Note_on_c, 0, 54, 45
2, 202294, Note_off_c, 0, 55, 64
2, 202326, Note_off_c, 0, 54, 64
2, 202339, Note_on_c, 0, 53, 48
2, 202382, Note_off_c, 0, 53, 64
2, 202383, Note_on_c, 0, 51, 30
2, 202392, Control_c, 0, 64, 0
2, 202432, Note_off_c, 0, 51, 64
2, 202432, Note_on_c, 0, 77, 69
2, 202436, Note_on_c, 0, 71, 39
2, 202436, Note_on_c, 0, 49, 31
2, 202458, Control_c, 0, 64, 127
2, 202482, Note_on_c, 0, 56, 46
2, 202488, Note_off_c, 0, 49, 64
2, 202525, Note_on_c, 0, 61, 46
2, 202535, Note_off_c, 0, 56, 64
2, 202559, Note_off_c, 0, 61, 64
2, 202564, Note_on_c, 0, 65, 46
2, 202596, Note_on_c, 0, 61, 46
2, 202609, Note_off_c, 0, 71, 64
2, 202614, Note_off_c, 0, 65, 64
2, 202634, Note_off_c, 0, 61, 64
2, 202634, Note_on_c, 0, 56, 46
2, 202674, Note_off_c, 0, 56, 64
2, 202677, Note_on_c, 0, 49, 55
2, 202680, Note_on_c, 0, 71, 64
2, 202710, Note_off_c, 0, 49, 64
2, 202712, Note_on_c, 0, 59, 46
2, 202760, Note_on_c, 0, 75, 74
2, 202760, Note_on_c, 0, 61, 46
2, 202763, Note_off_c, 0, 59, 64
2, 202766, Note_off_c, 0, 77, 64
2, 202800, Note_on_c, 0, 65, 46
2, 202817, Note_off_c, 0, 61, 64
2, 202848, Note_on_c, 0, 61, 46
2, 202864, Note_off_c, 0, 65, 64
2, 202866, Note_off_c, 0, 75, 64
2, 202884, Note_on_c, 0, 73, 92
2, 202890, Note_off_c, 0, 61, 64
2, 202892, Note_on_c, 0, 59, 46
2, 202907, Note_off_c, 0, 71, 64
2, 202909, Control_c, 0, 64, 0
2, 202920, Note_off_c, 0, 73, 64
2, 202938, Note_off_c, 0, 59, 64
2, 202938, Note_on_c, 0, 71, 73
2, 202942, Note_on_c, 0, 73, 94
2, 202942, Note_on_c, 0, 54, 58
2, 202974, Control_c, 0, 64, 127
2, 202980, Note_on_c, 0, 59, 46
2, 203006, Note_off_c, 0, 54, 64
2, 203016, Note_on_c, 0, 61, 46
2, 203025, Note_off_c, 0, 59, 64
2, 203050, Note_on_c, 0, 66, 46
2, 203076, Note_off_c, 0, 61, 64
2, 203096, Note_on_c, 0, 61, 46
2, 203106, Note_off_c, 0, 66, 64
2, 203140, Note_on_c, 0, 59, 46
2, 203148, Note_off_c, 0, 61, 64
2, 203163, Control_c, 0, 64, 0
2, 203173, Note_off_c, 0, 59, 64
2, 203180, Note_on_c, 0, 78, 78
2, 203180, Note_on_c, 0, 70, 63
2, 203180, Note_on_c, 0, 49, 58
2, 203194, Note_off_c, 0, 73, 64
2, 203194, Control_c, 0, 64, 127
2, 203208, Note_on_c, 0, 58, 46
2, 203221, Note_off_c, 0, 71, 64
2, 203224, Note_off_c, 0, 49, 64
2, 203252, Note_on_c, 0, 61, 46
2, 203264, Note_off_c, 0, 58, 64
2, 203284, Note_on_c, 0, 66, 46
2, 203312, Note_off_c, 0, 61, 64
2, 203319, Note_off_c, 0, 66, 64
2, 203332, Note_on_c, 0, 61, 46
2, 203366, Note_off_c, 0, 61, 64
2, 203372, Note_on_c, 0, 58, 46
2, 203410, Control_c, 0, 64, 0
2, 203420, Note_on_c, 0, 71, 69
2, 203427, Note_off_c, 0, 58, 64
2, 203428, Note_on_c, 0, 56, 55
2, 203457, Note_off_c, 0, 70, 64
2, 203462, Note_off_c, 0, 78, 64
2, 203474, Note_off_c, 0, 56, 64
2, 203477, Control_c, 0, 64, 127
2, 203486, Note_on_c, 0, 59, 46
2, 203523, Note_on_c, 0, 61, 46
2, 203536, Note_off_c, 0, 59, 64
2, 203554, Note_on_c, 0, 65, 46
2, 203559, Note_off_c, 0, 61, 64
2, 203599, Note_off_c, 0, 65, 64
2, 203599, Note_on_c, 0, 77, 83
2, 203608, Note_on_c, 0, 61, 46
2, 203640, Note_on_c, 0, 59, 46
2, 203644, Note_off_c, 0, 77, 64
2, 203662, Control_c, 0, 64, 0
2, 203670, Note_off_c, 0, 59, 64
2, 203672, Note_off_c, 0, 61, 64
2, 203678, Note_on_c, 0, 49, 52
2, 203687, Note_on_c, 0, 77, 82
2, 203707, Control_c, 0, 64, 127
2, 203716, Note_on_c, 0, 59, 46
2, 203726, Note_off_c, 0, 49, 64
2, 203764, Note_on_c, 0, 75, 76
2, 203764, Note_on_c, 0, 61, 46
2, 203772, Note_off_c, 0, 59, 64
2, 203772, Note_off_c, 0, 77, 64
2, 203788, Note_off_c, 0, 71, 64
2, 203803, Note_off_c, 0, 61, 64
2, 203820, Note_on_c, 0, 65, 46
2, 203855, Note_on_c, 0, 61, 46
2, 203858, Note_on_c, 0, 73, 92
2, 203870, Note_off_c, 0, 75, 64
2, 203875, Note_off_c, 0, 65, 64
2, 203892, Note_on_c, 0, 59, 46
2, 203912, Control_c, 0, 64, 0
2, 203916, Note_off_c, 0, 61, 64
2, 203934, Note_off_c, 0, 73, 64
2, 203935, Note_off_c, 0, 59, 64
2, 203938, Note_on_c, 0, 73, 58
2, 203940, Note_on_c, 0, 70, 60
2, 203941, Note_on_c, 0, 54, 60
2, 203946, Note_on_c, 0, 82, 80
2, 203976, Control_c, 0, 64, 127
2, 203989, Note_off_c, 0, 54, 64
2, 203989, Note_on_c, 0, 58, 46
2, 204025, Note_on_c, 0, 61, 46
2, 204034, Note_off_c, 0, 58, 64
2, 204054, Note_off_c, 0, 61, 64
2, 204062, Note_on_c, 0, 66, 46
2, 204089, Note_off_c, 0, 73, 64
2, 204091, Note_off_c, 0, 70, 64
2, 204097, Note_off_c, 0, 82, 64
2, 204114, Note_on_c, 0, 61, 46
2, 204118, Note_off_c, 0, 66, 64
2, 204152, Note_on_c, 0, 58, 46
2, 204165, Note_off_c, 0, 61, 64
2, 204180, Control_c, 0, 64, 0
2, 204188, Note_on_c, 0, 68, 60
2, 204193, Note_on_c, 0, 82, 97
2, 204198, Note_off_c, 0, 58, 64
2, 204198, Note_on_c, 0, 73, 54
2, 204208, Note_on_c, 0, 52, 78
2, 204245, Control_c, 0, 64, 127
2, 204249, Note_on_c, 0, 58, 46
2, 204256, Note_off_c, 0, 52, 64
2, 204284, Note_on_c, 0, 61, 46
2, 204310, Note_off_c, 0, 58, 64
2, 204317, Note_off_c, 0, 68, 64
2, 204322, Note_off_c, 0, 61, 64
2, 204324, Note_on_c, 0, 68, 46
2, 204331, Note_off_c, 0, 73, 64
2, 204331, Note_off_c, 0, 82, 64
2, 204369, Note_off_c, 0, 68, 64
2, 204380, Note_on_c, 0, 82, 105
2, 204380, Note_on_c, 0, 61, 46
2, 204420, Note_on_c, 0, 58, 46
2, 204430, Note_off_c, 0, 82, 64
2, 204440, Note_off_c, 0, 61, 64
2, 204442, Control_c, 0, 64, 0
2, 204444, Note_on_c, 0, 67, 65
2, 204444, Note_on_c, 0, 51, 40
2, 204458, Note_off_c, 0, 58, 64
2, 204491, Note_off_c, 0, 51, 64
2, 204498, Control_c, 0, 64, 127
2, 204500, Note_on_c, 0, 73, 72
2, 204500, Note_on_c, 0, 58, 46
2, 204520, Note_off_c, 0, 67, 64
2, 204540, Note_on_c, 0, 82, 104
2, 204548, Note_on_c, 0, 61, 46
2, 204551, Note_off_c, 0, 58, 64
2, 204576, Note_on_c, 0, 67, 46
2, 204580, Note_off_c, 0, 61, 64
2, 204616, Note_on_c, 0, 75, 82
2, 204620, Note_on_c, 0, 61, 46
2, 204626, Note_off_c, 0, 67, 64
2, 204664, Note_on_c, 0, 58, 46
2, 204675, Note_off_c, 0, 61, 64
2, 204678, Control_c, 0, 64, 0
2, 204696, Note_off_c, 0, 58, 64
2, 204708, Note_on_c, 0, 55, 62
2, 204744, Note_on_c, 0, 61, 46
2, 204745, Note_on_c, 0, 77, 62
2, 204747, Control_c, 0, 64, 127
2, 204759, Note_off_c, 0, 55, 64
2, 204768, Note_on_c, 0, 79, 69
2, 204777, Note_off_c, 0, 77, 64
2, 204796, Note_off_c, 0, 61, 64
2, 204800, Note_on_c, 0, 63, 46
2, 204802, Note_on_c, 0, 77, 64
2, 204809, Note_off_c, 0, 79, 64
2, 204817, Note_off_c, 0, 82, 64
2, 204820, Note_on_c, 0, 70, 46
2, 204829, Note_off_c, 0, 77, 64
2, 204835, Note_off_c, 0, 73, 64
2, 204846, Note_off_c, 0, 63, 64
2, 204856, Note_off_c, 0, 75, 64
2, 204860, Note_on_c, 0, 63, 46
2, 204870, Note_off_c, 0, 70, 64
2, 204892, Note_on_c, 0, 61, 46
2, 204900, Note_on_c, 0, 75, 73
2, 204902, Note_off_c, 0, 63, 64
2, 204925, Note_off_c, 0, 75, 64
2, 204929, Control_c, 0, 64, 0
2, 204930, Note_off_c, 0, 61, 64
2, 204947, Note_on_c, 0, 75, 87
2, 204948, Note_on_c, 0, 73, 69
2, 204952, Note_on_c, 0, 56, 61
2, 204980, Note_on_c, 0, 61, 46
2, 204984, Control_c, 0, 64, 127
2, 205010, Note_off_c, 0, 56, 64
2, 205020, Note_on_c, 0, 63, 46
2, 205023, Note_off_c, 0, 61, 64
2, 205058, Note_off_c, 0, 63, 64
2, 205062, Note_on_c, 0, 68, 46
2, 205100, Note_on_c, 0, 63, 46
2, 205113, Note_off_c, 0, 68, 64
2, 205152, Note_on_c, 0, 61, 46
2, 205159, Note_off_c, 0, 63, 64
2, 205192, Control_c, 0, 64, 0
2, 205194, Note_off_c, 0, 61, 64
2, 205208, Note_on_c, 0, 72, 64
2, 205210, Note_on_c, 0, 80, 68
2, 205212, Note_on_c, 0, 51, 61
2, 205228, Note_off_c, 0, 73, 64
2, 205250, Control_c, 0, 64, 127
2, 205262, Note_on_c, 0, 60, 46
2, 205270, Note_off_c, 0, 51, 64
2, 205292, Note_on_c, 0, 63, 46
2, 205307, Note_off_c, 0, 72, 64
2, 205314, Note_off_c, 0, 60, 64
2, 205328, Note_on_c, 0, 68, 46
2, 205336, Note_off_c, 0, 63, 64
2, 205372, Note_on_c, 0, 63, 46
2, 205393, Note_off_c, 0, 68, 64
2, 205408, Note_on_c, 0, 60, 46
2, 205416, Note_off_c, 0, 63, 64
2, 205447, Control_c, 0, 64, 0
2, 205464, Note_off_c, 0, 60, 64
2, 205464, Note_on_c, 0, 58, 56
2, 205470, Note_on_c, 0, 73, 69
2, 205478, Note_off_c, 0, 80, 64
2, 205488, Note_off_c, 0, 75, 64
2, 205509, Control_c, 0, 64, 127
2, 205526, Note_on_c, 0, 61, 46
2, 205540, Note_off_c, 0, 58, 64
2, 205559, Note_on_c, 0, 63, 46
2, 205565, Note_on_c, 0, 79, 89
2, 205575, Note_off_c, 0, 61, 64
2, 205602, Note_off_c, 0, 63, 64
2, 205602, Note_on_c, 0, 70, 46
2, 205616, Note_off_c, 0, 79, 64
2, 205640, Note_on_c, 0, 63, 46
2, 205645, Note_on_c, 0, 77, 98
2, 205658, Note_off_c, 0, 70, 64
2, 205691, Note_on_c, 0, 61, 46
2, 205696, Note_off_c, 0, 63, 64
2, 205702, Control_c, 0, 64, 0
2, 205724, Note_on_c, 0, 51, 57
2, 205725, Note_on_c, 0, 79, 82
2, 205729, Note_off_c, 0, 61, 64
2, 205735, Note_off_c, 0, 77, 64
2, 205755, Control_c, 0, 64, 127
2, 205760, Note_on_c, 0, 61, 46
2, 205782, Note_off_c, 0, 51, 64
2, 205806, Note_on_c, 0, 77, 87
2, 205812, Note_on_c, 0, 63, 46
2, 205815, Note_off_c, 0, 79, 64
2, 205825, Note_off_c, 0, 61, 64
2, 205851, Note_off_c, 0, 63, 64
2, 205860, Note_on_c, 0, 67, 46
2, 205898, Note_on_c, 0, 63, 46
2, 205904, Note_off_c, 0, 73, 64
2, 205906, Note_off_c, 0, 67, 64
2, 205928, Note_on_c, 0, 61, 46
2, 205930, Note_on_c, 0, 75, 77
2, 205936, Note_off_c, 0, 77, 64
2, 205952, Note_off_c, 0, 63, 64
2, 205957, Control_c, 0, 64, 0
2, 205976, Note_off_c, 0, 61, 64
2, 205980, Note_on_c, 0, 84, 103
2, 205980, Note_on_c, 0, 72, 35
2, 205980, Note_on_c, 0, 56, 56
2, 205999, Note_off_c, 0, 75, 64
2, 206014, Control_c, 0, 64, 127
2, 206026, Note_on_c, 0, 60, 46
2, 206070, Note_on_c, 0, 63, 46
2, 206080, Note_off_c, 0, 60, 64
2, 206099, Note_off_c, 0, 84, 64
2, 206107, Note_off_c, 0, 63, 64
2, 206108, Note_on_c, 0, 68, 46
2, 206149, Note_on_c, 0, 63, 46
2, 206157, Note_off_c, 0, 68, 64
2, 206187, Note_on_c, 0, 60, 46
2, 206189, Note_off_c, 0, 63, 64
2, 206216, Control_c, 0, 64, 0
2, 206219, Note_off_c, 0, 56, 64
2, 206235, Note_off_c, 0, 60, 64
2, 206244, Note_on_c, 0, 55, 56
2, 206246, Note_on_c, 0, 84, 107
2, 206271, Control_c, 0, 64, 127
2, 206296, Note_on_c, 0, 56, 46
2, 206340, Note_on_c, 0, 60, 46
2, 206346, Note_off_c, 0, 56, 64
2, 206348, Note_off_c, 0, 84, 64
2, 206384, Note_off_c, 0, 60, 64
2, 206384, Note_on_c, 0, 63, 46
2, 206428, Note_on_c, 0, 60, 46
2, 206430, Note_on_c, 0, 84, 113
2, 206433, Note_off_c, 0, 63, 64
2, 206464, Note_on_c, 0, 56, 46
2, 206472, Note_off_c, 0, 60, 64
2, 206478, Note_off_c, 0, 84, 64
2, 206483, Note_off_c, 0, 55, 64
2, 206492, Control_c, 0, 64, 0
2, 206508, Note_off_c, 0, 56, 64
2, 206516, Note_on_c, 0, 54, 52
2, 206527, Note_on_c, 0, 84, 108
2, 206562, Note_on_c, 0, 56, 46
2, 206563, Control_c, 0, 64, 127
2, 206568, Note_off_c, 0, 54, 64
2, 206601, Note_on_c, 0, 60, 46
2, 206610, Note_off_c, 0, 56, 64
2, 206645, Note_on_c, 0, 63, 46
2, 206649, Note_off_c, 0, 60, 64
2, 206695, Note_on_c, 0, 60, 46
2, 206705, Note_off_c, 0, 63, 64
2, 206731, Note_on_c, 0, 56, 46
2, 206738, Note_off_c, 0, 60, 64
2, 206744, Control_c, 0, 64, 0
2, 206774, Note_on_c, 0, 54, 52
2, 206781, Note_off_c, 0, 56, 64
2, 206826, Control_c, 0, 64, 127
2, 206828, Note_on_c, 0, 56, 46
2, 206838, Note_off_c, 0, 54, 64
2, 206860, Note_on_c, 0, 60, 46
2, 206861, Note_on_c, 0, 82, 88
2, 206874, Note_off_c, 0, 56, 64
2, 206881, Note_off_c, 0, 84, 64
2, 206888, Note_off_c, 0, 72, 64
2, 206889, Note_on_c, 0, 63, 46
2, 206906, Note_off_c, 0, 60, 64
2, 206930, Note_on_c, 0, 60, 46
2, 206945, Note_off_c, 0, 63, 64
2, 206952, Note_off_c, 0, 82, 64
2, 206963, Note_on_c, 0, 56, 46
2, 206973, Note_on_c, 0, 80, 90
2, 206977, Note_off_c, 0, 60, 64
2, 206998, Control_c, 0, 64, 0
2, 207008, Note_off_c, 0, 80, 64
2, 207012, Note_on_c, 0, 53, 29
2, 207014, Note_off_c, 0, 56, 64
2, 207016, Note_on_c, 0, 80, 103
2, 207064, Note_on_c, 0, 56, 46
2, 207073, Control_c, 0, 64, 127
2, 207094, Note_off_c, 0, 53, 64
2, 207098, Note_on_c, 0, 61, 46
2, 207122, Note_off_c, 0, 56, 64
2, 207132, Note_on_c, 0, 65, 46
2, 207139, Note_off_c, 0, 61, 64
2, 207178, Note_on_c, 0, 61, 46
2, 207190, Note_off_c, 0, 65, 64
2, 207228, Note_on_c, 0, 56, 46
2, 207248, Note_off_c, 0, 61, 64
2, 207255, Control_c, 0, 64, 0
2, 207272, Note_on_c, 0, 53, 53
2, 207279, Note_off_c, 0, 56, 64
2, 207280, Note_on_c, 0, 85, 95
2, 207295, Note_off_c, 0, 80, 64
2, 207308, Note_on_c, 0, 56, 39
2, 207318, Control_c, 0, 64, 127
2, 207332, Note_off_c, 0, 53, 64
2, 207348, Note_on_c, 0, 61, 55
2, 207353, Note_off_c, 0, 56, 64
2, 207388, Note_on_c, 0, 68, 62
2, 207395, Note_off_c, 0, 61, 64
2, 207436, Note_on_c, 0, 61, 47
2, 207448, Note_off_c, 0, 68, 64
2, 207484, Note_on_c, 0, 56, 46
2, 207488, Control_c, 0, 64, 0
2, 207490, Note_off_c, 0, 61, 64
2, 207519, Note_off_c, 0, 85, 64
2, 207539, Note_off_c, 0, 56, 64
2, 207540, Note_on_c, 0, 85, 100
2, 207545, Note_on_c, 0, 51, 63
2, 207565, Control_c, 0, 64, 127
2, 207584, Note_off_c, 0, 51, 64
2, 207594, Note_on_c, 0, 56, 46
2, 207638, Note_off_c, 0, 56, 64
2, 207638, Note_on_c, 0, 60, 46
2, 207677, Note_on_c, 0, 66, 46
2, 207679, Note_off_c, 0, 60, 64
2, 207720, Note_off_c, 0, 85, 64
2, 207721, Note_on_c, 0, 60, 46
2, 207728, Note_on_c, 0, 84, 96
2, 207733, Note_off_c, 0, 66, 64
2, 207756, Note_on_c, 0, 56, 46
2, 207772, Note_off_c, 0, 84, 64
2, 207772, Note_off_c, 0, 60, 64
2, 207785, Control_c, 0, 64, 0
2, 207810, Note_on_c, 0, 84, 97
2, 207816, Note_off_c, 0, 56, 64
2, 207818, Note_on_c, 0, 51, 60
2, 207856, Control_c, 0, 64, 127
2, 207868, Note_off_c, 0, 51, 64
2, 207868, Note_on_c, 0, 56, 46
2, 207908, Note_off_c, 0, 84, 64
2, 207908, Note_on_c, 0, 82, 103
2, 207908, Note_on_c, 0, 60, 46
2, 207912, Note_off_c, 0, 56, 64
2, 207941, Note_on_c, 0, 66, 46
2, 207950, Note_off_c, 0, 60, 64
2, 207994, Note_on_c, 0, 60, 46
2, 207999, Note_off_c, 0, 66, 64
2, 208040, Note_on_c, 0, 56, 46
2, 208042, Note_on_c, 0, 80, 81
2, 208043, Note_off_c, 0, 60, 64
2, 208054, Control_c, 0, 64, 0
2, 208063, Note_off_c, 0, 82, 64
2, 208082, Note_on_c, 0, 50, 57
2, 208088, Note_off_c, 0, 56, 64
2, 208094, Note_on_c, 0, 89, 97
2, 208114, Note_off_c, 0, 80, 64
2, 208116, Note_on_c, 0, 56, 46
2, 208119, Control_c, 0, 64, 127
2, 208145, Note_off_c, 0, 50, 64
2, 208156, Note_on_c, 0, 59, 46
2, 208180, Note_off_c, 0, 56, 64
2, 208196, Note_on_c, 0, 65, 46
2, 208206, Note_off_c, 0, 59, 64
2, 208220, Note_off_c, 0, 89, 64
2, 208240, Note_on_c, 0, 59, 46
2, 208267, Note_off_c, 0, 65, 64
2, 208288, Note_on_c, 0, 56, 46
2, 208302, Note_off_c, 0, 59, 64
2, 208340, Control_c, 0, 64, 0
2, 208348, Note_off_c, 0, 56, 64
2, 208350, Note_on_c, 0, 50, 52
2, 208352, Note_on_c, 0, 89, 85
2, 208396, Note_on_c, 0, 56, 46
2, 208403, Control_c, 0, 64, 127
2, 208418, Note_off_c, 0, 50, 64
2, 208434, Note_off_c, 0, 89, 64
2, 208438, Note_on_c, 0, 58, 46
2, 208466, Note_off_c, 0, 56, 64
2, 208484, Note_off_c, 0, 58, 64
2, 208488, Note_on_c, 0, 65, 46
2, 208521, Note_on_c, 0, 58, 46
2, 208522, Note_on_c, 0, 89, 84
2, 208548, Note_off_c, 0, 65, 64
2, 208557, Note_on_c, 0, 56, 46
2, 208582, Note_off_c, 0, 89, 64
2, 208589, Note_off_c, 0, 58, 64
2, 208599, Control_c, 0, 64, 0
2, 208600, Note_on_c, 0, 89, 81
2, 208604, Note_on_c, 0, 51, 60
2, 208621, Note_off_c, 0, 56, 64
2, 208659, Note_off_c, 0, 51, 64
2, 208660, Note_on_c, 0, 54, 46
2, 208670, Control_c, 0, 64, 127
2, 208711, Note_off_c, 0, 54, 64
2, 208712, Note_on_c, 0, 58, 46
2, 208766, Note_off_c, 0, 58, 64
2, 208768, Note_on_c, 0, 63, 46
2, 208819, Note_on_c, 0, 58, 46
2, 208831, Note_off_c, 0, 63, 64
2, 208856, Note_on_c, 0, 54, 46
2, 208867, Note_off_c, 0, 58, 64
2, 208872, Note_off_c, 0, 89, 64
2, 208898, Note_on_c, 0, 42, 60
2, 208902, Note_on_c, 0, 87, 93
2, 208905, Note_off_c, 0, 54, 64
2, 208948, Note_on_c, 0, 54, 46
2, 208953, Note_off_c, 0, 42, 64
2, 208990, Note_on_c, 0, 85, 92
2, 208992, Note_on_c, 0, 58, 46
2, 208999, Note_off_c, 0, 54, 64
2, 209007, Note_off_c, 0, 87, 64
2, 209024, Note_on_c, 0, 63, 46
2, 209036, Note_off_c, 0, 58, 64
2, 209076, Note_on_c, 0, 58, 46
2, 209078, Note_on_c, 0, 82, 81
2, 209079, Note_off_c, 0, 63, 64
2, 209090, Note_off_c, 0, 85, 64
2, 209112, Note_on_c, 0, 54, 46
2, 209127, Note_off_c, 0, 58, 64
2, 209131, Control_c, 0, 64, 0
2, 209147, Note_off_c, 0, 54, 64
2, 209166, Note_on_c, 0, 84, 101
2, 209170, Note_on_c, 0, 44, 57
2, 209183, Note_off_c, 0, 82, 64
2, 209202, Control_c, 0, 64, 127
2, 209214, Note_off_c, 0, 44, 64
2, 209214, Note_on_c, 0, 53, 46
2, 209263, Note_on_c, 0, 56, 46
2, 209271, Note_off_c, 0, 53, 64
2, 209301, Note_off_c, 0, 56, 64
2, 209305, Note_on_c, 0, 61, 46
2, 209341, Note_on_c, 0, 56, 46
2, 209350, Note_off_c, 0, 61, 64
2, 209383, Note_off_c, 0, 56, 64
2, 209385, Note_on_c, 0, 53, 46
2, 209405, Control_c, 0, 64, 0
2, 209434, Note_on_c, 0, 82, 74
2, 209436, Note_off_c, 0, 53, 64
2, 209438, Note_on_c, 0, 44, 63
2, 209443, Note_off_c, 0, 84, 64
2, 209468, Control_c, 0, 64, 127
2, 209480, Note_off_c, 0, 44, 64
2, 209492, Note_on_c, 0, 53, 46
2, 209530, Note_on_c, 0, 80, 74
2, 209532, Note_on_c, 0, 56, 46
2, 209538, Note_off_c, 0, 53, 64
2, 209555, Note_off_c, 0, 82, 64
2, 209557, Note_on_c, 0, 61, 46
2, 209595, Note_off_c, 0, 56, 64
2, 209616, Note_on_c, 0, 56, 46
2, 209617, Note_on_c, 0, 77, 74
2, 209620, Note_off_c, 0, 61, 64
2, 209627, Note_off_c, 0, 80, 64
2, 209652, Note_on_c, 0, 53, 46
2, 209662, Control_c, 0, 64, 0
2, 209667, Note_off_c, 0, 56, 64
2, 209688, Note_on_c, 0, 44, 46
2, 209694, Note_on_c, 0, 82, 74
2, 209696, Note_off_c, 0, 53, 64
2, 209728, Note_on_c, 0, 54, 46
2, 209730, Control_c, 0, 64, 127
2, 209758, Note_off_c, 0, 44, 64
2, 209771, Note_on_c, 0, 80, 76
2, 209772, Note_on_c, 0, 56, 46
2, 209794, Note_off_c, 0, 82, 64
2, 209797, Note_off_c, 0, 54, 64
2, 209799, Note_off_c, 0, 77, 64
2, 209808, Note_off_c, 0, 56, 64
2, 209812, Note_on_c, 0, 60, 46
2, 209860, Note_off_c, 0, 60, 64
2, 209864, Note_on_c, 0, 78, 92
2, 209868, Note_on_c, 0, 56, 46
2, 209871, Note_off_c, 0, 80, 64
2, 209912, Note_off_c, 0, 56, 64
2, 209920, Note_on_c, 0, 54, 46
2, 209941, Control_c, 0, 64, 0
2, 209944, Note_off_c, 0, 78, 64
2, 209950, Note_off_c, 0, 54, 64
2, 209956, Note_on_c, 0, 78, 77
2, 209956, Note_on_c, 0, 44, 55
2, 209980, Note_on_c, 0, 80, 77
2, 209991, Note_off_c, 0, 78, 64
2, 209996, Note_on_c, 0, 54, 46
2, 210001, Note_off_c, 0, 44, 64
2, 210005, Control_c, 0, 64, 127
2, 210010, Note_on_c, 0, 78, 77
2, 210016, Note_off_c, 0, 80, 64
2, 210039, Note_off_c, 0, 54, 64
2, 210048, Note_on_c, 0, 77, 77
2, 210048, Note_on_c, 0, 56, 46
2, 210052, Note_off_c, 0, 78, 64
2, 210087, Note_off_c, 0, 56, 64
2, 210092, Note_on_c, 0, 60, 46
2, 210146, Note_on_c, 0, 56, 46
2, 210153, Note_off_c, 0, 60, 64
2, 210172, Note_off_c, 0, 77, 64
2, 210186, Note_on_c, 0, 54, 46
2, 210194, Note_off_c, 0, 56, 64
2, 210197, Note_on_c, 0, 76, 96
2, 210205, Control_c, 0, 64, 0
2, 210222, Note_off_c, 0, 76, 64
2, 210222, Note_off_c, 0, 54, 64
2, 210242, Note_on_c, 0, 49, 62
2, 210247, Note_on_c, 0, 76, 91
2, 210284, Control_c, 0, 64, 127
2, 210300, Note_on_c, 0, 56, 46
2, 210329, Note_off_c, 0, 56, 64
2, 210335, Note_off_c, 0, 49, 64
2, 210342, Note_on_c, 0, 61, 46
2, 210372, Note_on_c, 0, 65, 46
2, 210385, Note_off_c, 0, 61, 64
2, 210416, Note_on_c, 0, 61, 46
2, 210434, Note_off_c, 0, 65, 64
2, 210454, Note_on_c, 0, 58, 46
2, 210456, Control_c, 0, 64, 0
2, 210465, Note_off_c, 0, 61, 64
2, 210508, Note_on_c, 0, 77, 85
2, 210510, Note_off_c, 0, 58, 64
2, 210513, Note_off_c, 0, 76, 64
2, 210514, Note_on_c, 0, 56, 47
2, 210538, Control_c, 0, 64, 127
2, 210569, Note_on_c, 0, 61, 46
2, 210583, Note_off_c, 0, 56, 64
2, 210619, Note_on_c, 0, 65, 46
2, 210626, Note_off_c, 0, 61, 64
2, 210660, Note_on_c, 0, 68, 46
2, 210666, Note_off_c, 0, 65, 64
2, 210696, Note_off_c, 0, 68, 64
2, 210709, Note_on_c, 0, 80, 92
2, 210712, Note_on_c, 0, 61, 46
2, 210740, Note_on_c, 0, 56, 48
2, 210741, Note_off_c, 0, 77, 64
2, 210758, Control_c, 0, 64, 0
2, 210763, Note_off_c, 0, 61, 64
2, 210792, Note_on_c, 0, 54, 51
2, 210795, Note_off_c, 0, 56, 64
2, 210796, Note_on_c, 0, 68, 79
2, 210840, Note_off_c, 0, 80, 64
2, 210846, Control_c, 0, 64, 127
2, 210850, Note_on_c, 0, 56, 46
2, 210864, Note_off_c, 0, 54, 64
2, 210891, Note_on_c, 0, 60, 46
2, 210898, Note_off_c, 0, 56, 64
2, 210934, Note_off_c, 0, 60, 64
2, 210936, Note_on_c, 0, 63, 46
2, 210992, Note_on_c, 0, 72, 82
2, 210993, Note_off_c, 0, 63, 64
2, 210996, Note_on_c, 0, 60, 46
2, 210998, Note_off_c, 0, 68, 64
2, 211024, Note_on_c, 0, 56, 46
2, 211048, Control_c, 0, 64, 0
2, 211051, Note_off_c, 0, 60, 64
2, 211075, Note_on_c, 0, 54, 23
2, 211079, Note_off_c, 0, 56, 64
2, 211079, Note_on_c, 0, 84, 87
2, 211092, Control_c, 0, 64, 127
2, 211116, Note_off_c, 0, 72, 64
2, 211125, Note_on_c, 0, 56, 46
2, 211127, Note_off_c, 0, 84, 64
2, 211135, Note_off_c, 0, 54, 64
2, 211164, Note_on_c, 0, 70, 95
2, 211164, Note_on_c, 0, 60, 46
2, 211168, Note_on_c, 0, 82, 92
2, 211170, Note_off_c, 0, 56, 64
2, 211200, Note_on_c, 0, 63, 46
2, 211202, Note_off_c, 0, 60, 64
2, 211240, Note_on_c, 0, 60, 46
2, 211256, Note_off_c, 0, 63, 64
2, 211274, Note_off_c, 0, 70, 64
2, 211276, Note_on_c, 0, 80, 77
2, 211276, Note_on_c, 0, 68, 81
2, 211278, Note_off_c, 0, 82, 64
2, 211280, Note_on_c, 0, 56, 46
2, 211303, Note_off_c, 0, 68, 64
2, 211303, Note_off_c, 0, 80, 64
2, 211312, Note_off_c, 0, 60, 64
2, 211312, Note_on_c, 0, 80, 90
2, 211316, Note_on_c, 0, 68, 85
2, 211316, Note_on_c, 0, 53, 52
2, 211320, Control_c, 0, 64, 0
2, 211334, Note_off_c, 0, 56, 64
2, 211360, Note_on_c, 0, 56, 46
2, 211385, Control_c, 0, 64, 127
2, 211396, Note_off_c, 0, 53, 64
2, 211400, Note_on_c, 0, 61, 46
2, 211421, Note_off_c, 0, 56, 64
2, 211444, Note_on_c, 0, 65, 46
2, 211445, Note_off_c, 0, 61, 64
2, 211487, Note_off_c, 0, 68, 64
2, 211488, Note_on_c, 0, 61, 46
2, 211497, Note_off_c, 0, 65, 64
2, 211532, Note_on_c, 0, 56, 46
2, 211556, Note_off_c, 0, 61, 64
2, 211590, Note_off_c, 0, 56, 64
2, 211592, Note_on_c, 0, 85, 86
2, 211596, Note_on_c, 0, 73, 78
2, 211604, Note_on_c, 0, 53, 52
2, 211644, Note_on_c, 0, 56, 46
2, 211665, Note_off_c, 0, 53, 64
2, 211692, Note_on_c, 0, 61, 46
2, 211704, Note_off_c, 0, 56, 64
2, 211707, Note_off_c, 0, 80, 64
2, 211718, Note_off_c, 0, 85, 64
2, 211723, Note_off_c, 0, 73, 64
2, 211728, Note_on_c, 0, 68, 46
2, 211739, Note_off_c, 0, 61, 64
2, 211769, Note_on_c, 0, 61, 46
2, 211770, Note_off_c, 0, 68, 64
2, 211816, Note_on_c, 0, 56, 46
2, 211820, Note_off_c, 0, 61, 64
2, 211850, Control_c, 0, 64, 0
2, 211872, Note_on_c, 0, 51, 63
2, 211875, Note_off_c, 0, 56, 64
2, 211876, Note_on_c, 0, 85, 77
2, 211876, Note_on_c, 0, 80, 70
2, 211876, Note_on_c, 0, 78, 75
2, 211876, Note_on_c, 0, 73, 77
2, 211912, Note_on_c, 0, 56, 46
2, 211917, Note_off_c, 0, 51, 64
2, 211919, Control_c, 0, 64, 127
2, 211940, Note_on_c, 0, 60, 46
2, 211956, Note_off_c, 0, 56, 64
2, 211976, Note_on_c, 0, 66, 46
2, 211991, Note_off_c, 0, 73, 64
2, 211991, Note_off_c, 0, 85, 64
2, 211992, Note_off_c, 0, 60, 64
2, 211992, Note_on_c, 0, 72, 87
2, 212000, Note_on_c, 0, 84, 87
2, 212018, Note_off_c, 0, 72, 64
2, 212026, Note_off_c, 0, 84, 64
2, 212033, Note_off_c, 0, 66, 64
2, 212036, Note_on_c, 0, 84, 81
2, 212040, Note_on_c, 0, 72, 81
2, 212040, Note_on_c, 0, 60, 46
2, 212081, Note_off_c, 0, 60, 64
2, 212086, Note_off_c, 0, 72, 64
2, 212087, Note_off_c, 0, 84, 64
2, 212092, Note_on_c, 0, 56, 46
2, 212111, Note_off_c, 0, 78, 64
2, 212111, Note_off_c, 0, 80, 64
2, 212128, Note_off_c, 0, 56, 64
2, 212148, Note_on_c, 0, 84, 75
2, 212148, Note_on_c, 0, 80, 79
2, 212148, Note_on_c, 0, 72, 73
2, 212152, Note_on_c, 0, 78, 78
2, 212152, Note_on_c, 0, 51, 65
2, 212180, Control_c, 0, 64, 0
2, 212202, Note_off_c, 0, 51, 64
2, 212206, Control_c, 0, 64, 127
2, 212208, Note_on_c, 0, 56, 46
2, 212254, Note_off_c, 0, 56, 64
2, 212256, Note_on_c, 0, 60, 46
2, 212273, Note_off_c, 0, 72, 64
2, 212273, Note_off_c, 0, 80, 64
2, 212273, Note_off_c, 0, 84, 64
2, 212277, Note_off_c, 0, 78, 64
2, 212296, Note_on_c, 0, 82, 95
2, 212296, Note_on_c, 0, 70, 95
2, 212300, Note_on_c, 0, 66, 46
2, 212313, Note_off_c, 0, 60, 64
2, 212317, Note_off_c, 0, 82, 64
2, 212319, Note_off_c, 0, 70, 64
2, 212342, Note_off_c, 0, 66, 64
2, 212344, Note_on_c, 0, 80, 79
2, 212351, Note_on_c, 0, 68, 80
2, 212352, Note_on_c, 0, 78, 76
2, 212352, Note_on_c, 0, 60, 46
2, 212379, Note_off_c, 0, 80, 64
2, 212380, Note_off_c, 0, 68, 64
2, 212382, Note_off_c, 0, 78, 64
2, 212402, Note_off_c, 0, 60, 64
2, 212420, Note_on_c, 0, 56, 46
2, 212464, Note_on_c, 0, 89, 90
2, 212467, Note_off_c, 0, 56, 64
2, 212468, Note_on_c, 0, 80, 85
2, 212468, Note_on_c, 0, 77, 83
2, 212472, Note_on_c, 0, 50, 58
2, 212472, Control_c, 0, 64, 0
2, 212516, Note_on_c, 0, 56, 46
2, 212532, Control_c, 0, 64, 127
2, 212542, Note_off_c, 0, 50, 64
2, 212560, Note_on_c, 0, 59, 46
2, 212579, Note_off_c, 0, 56, 64
2, 212600, Note_on_c, 0, 65, 46
2, 212612, Note_off_c, 0, 59, 64
2, 212633, Note_off_c, 0, 80, 64
2, 212644, Note_on_c, 0, 59, 46
2, 212649, Note_off_c, 0, 89, 64
2, 212662, Note_off_c, 0, 77, 64
2, 212663, Note_off_c, 0, 65, 64
2, 212688, Note_on_c, 0, 56, 46
2, 212715, Note_off_c, 0, 59, 64
2, 212756, Note_on_c, 0, 80, 95
2, 212756, Note_on_c, 0, 77, 87
2, 212760, Note_on_c, 0, 89, 86
2, 212761, Note_on_c, 0, 50, 48
2, 212764, Control_c, 0, 64, 0
2, 212774, Note_off_c, 0, 56, 64
2, 212800, Note_on_c, 0, 56, 46
2, 212814, Control_c, 0, 64, 127
2, 212836, Note_off_c, 0, 50, 64
2, 212844, Note_off_c, 0, 56, 64
2, 212844, Note_on_c, 0, 58, 46
2, 212876, Note_on_c, 0, 65, 46
2, 212887, Note_off_c, 0, 58, 64
2, 212887, Note_off_c, 0, 89, 64
2, 212889, Note_off_c, 0, 77, 64
2, 212889, Note_off_c, 0, 80, 64
2, 212917, Note_on_c, 0, 58, 46
2, 212920, Note_on_c, 0, 80, 87
2, 212920, Note_on_c, 0, 77, 70
2, 212925, Note_on_c, 0, 89, 86
2, 212945, Note_off_c, 0, 65, 64
2, 212952, Note_on_c, 0, 56, 46
2, 212957, Note_off_c, 0, 77, 64
2, 212961, Note_off_c, 0, 80, 64
2, 212974, Note_off_c, 0, 58, 64
2, 212983, Note_off_c, 0, 89, 64
2, 212999, Control_c, 0, 64, 0
2, 213005, Note_off_c, 0, 56, 64
2, 213008, Note_on_c, 0, 80, 84
2, 213008, Note_on_c, 0, 51, 51
2, 213012, Note_on_c, 0, 89, 84
2, 213012, Note_on_c, 0, 77, 78
2, 213060, Note_on_c, 0, 54, 46
2, 213071, Note_off_c, 0, 51, 64
2, 213074, Control_c, 0, 64, 127
2, 213096, Note_off_c, 0, 54, 64
2, 213112, Note_on_c, 0, 58, 46
2, 213133, Note_off_c, 0, 80, 64
2, 213140, Note_off_c, 0, 89, 64
2, 213145, Note_on_c, 0, 63, 46
2, 213148, Note_off_c, 0, 77, 64
2, 213172, Note_off_c, 0, 58, 64
2, 213192, Note_on_c, 0, 58, 46
2, 213201, Note_off_c, 0, 63, 64
2, 213239, Note_off_c, 0, 58, 64
2, 213244, Note_on_c, 0, 54, 46
2, 213275, Note_off_c, 0, 54, 64
2, 213292, Note_on_c, 0, 42, 60
2, 213296, Note_on_c, 0, 78, 67
2, 213296, Note_on_c, 0, 75, 67
2, 213298, Note_on_c, 0, 87, 66
2, 213340, Note_on_c, 0, 54, 46
2, 213351, Note_off_c, 0, 42, 64
2, 213370, Note_off_c, 0, 54, 64
2, 213386, Note_off_c, 0, 75, 64
2, 213386, Note_off_c, 0, 78, 64
2, 213388, Note_off_c, 0, 87, 64
2, 213388, Note_on_c, 0, 58, 46
2, 213391, Note_on_c, 0, 85, 69
2, 213392, Note_on_c, 0, 78, 53
2, 213392, Note_on_c, 0, 73, 66
2, 213424, Note_on_c, 0, 63, 46
2, 213433, Note_off_c, 0, 58, 64
2, 213460, Note_on_c, 0, 58, 46
2, 213462, Note_off_c, 0, 63, 64
2, 213487, Note_off_c, 0, 78, 64
2, 213490, Note_off_c, 0, 58, 64
2, 213500, Note_on_c, 0, 54, 46
2, 213504, Note_on_c, 0, 82, 61
2, 213504, Note_on_c, 0, 78, 52
2, 213506, Note_off_c, 0, 85, 64
2, 213507, Note_off_c, 0, 73, 64
2, 213512, Note_on_c, 0, 70, 63
2, 213542, Note_off_c, 0, 54, 64
2, 213543, Note_off_c, 0, 78, 64
2, 213546, Note_off_c, 0, 82, 64
2, 213548, Control_c, 0, 64, 0
2, 213551, Note_off_c, 0, 70, 64
2, 213561, Note_on_c, 0, 44, 75
2, 213565, Note_on_c, 0, 84, 79
2, 213565, Note_on_c, 0, 72, 75
2, 213568, Note_on_c, 0, 80, 52
2, 213611, Control_c, 0, 64, 127
2, 213618, Note_on_c, 0, 53, 58
2, 213624, Note_off_c, 0, 44, 64
2, 213667, Note_on_c, 0, 56, 58
2, 213675, Note_off_c, 0, 53, 64
2, 213706, Note_off_c, 0, 56, 64
2, 213708, Note_on_c, 0, 61, 58
2, 213750, Note_on_c, 0, 56, 58
2, 213756, Note_off_c, 0, 84, 64
2, 213759, Note_off_c, 0, 61, 64
2, 213759, Note_off_c, 0, 80, 64
2, 213759, Note_off_c, 0, 72, 64
2, 213792, Note_on_c, 0, 53, 58
2, 213802, Control_c, 0, 64, 0
2, 213807, Note_off_c, 0, 56, 64
2, 213830, Note_on_c, 0, 82, 56
2, 213832, Note_on_c, 0, 78, 59
2, 213835, Note_on_c, 0, 70, 65
2, 213835, Note_on_c, 0, 44, 60
2, 213842, Note_off_c, 0, 53, 64
2, 213858, Control_c, 0, 64, 127
2, 213862, Note_off_c, 0, 78, 64
2, 213877, Note_off_c, 0, 70, 64
2, 213879, Note_off_c, 0, 82, 64
2, 213882, Note_off_c, 0, 44, 64
2, 213892, Note_on_c, 0, 53, 46
2, 213926, Note_on_c, 0, 68, 69
2, 213928, Note_on_c, 0, 80, 59
2, 213928, Note_on_c, 0, 77, 55
2, 213928, Note_on_c, 0, 56, 46
2, 213939, Note_off_c, 0, 53, 64
2, 213957, Note_off_c, 0, 68, 64
2, 213958, Note_off_c, 0, 77, 64
2, 213959, Note_off_c, 0, 56, 64
2, 213964, Note_off_c, 0, 80, 64
2, 213968, Note_on_c, 0, 61, 46
2, 214008, Note_on_c, 0, 77, 57
2, 214009, Note_off_c, 0, 61, 64
2, 214009, Note_on_c, 0, 70, 61
2, 214010, Note_on_c, 0, 82, 69
2, 214010, Note_on_c, 0, 56, 46
2, 214038, Note_off_c, 0, 77, 64
2, 214042, Note_off_c, 0, 70, 64
2, 214052, Note_on_c, 0, 53, 46
2, 214054, Note_off_c, 0, 82, 64
2, 214057, Note_off_c, 0, 56, 64
2, 214086, Control_c, 0, 64, 0
2, 214088, Note_off_c, 0, 53, 64
2, 214096, Note_on_c, 0, 44, 58
2, 214099, Note_on_c, 0, 83, 67
2, 214099, Note_on_c, 0, 77, 65
2, 214102, Note_on_c, 0, 71, 61
2, 214146, Note_off_c, 0, 44, 64
2, 214154, Control_c, 0, 64, 127
2, 214159, Note_on_c, 0, 53, 46
2, 214197, Note_off_c, 0, 53, 64
2, 214204, Note_on_c, 0, 56, 46
2, 214223, Note_off_c, 0, 71, 64
2, 214229, Note_off_c, 0, 77, 64
2, 214229, Note_off_c, 0, 83, 64
2, 214243, Note_off_c, 0, 56, 64
2, 214244, Note_on_c, 0, 62, 46
2, 214292, Note_on_c, 0, 77, 72
2, 214292, Note_on_c, 0, 56, 46
2, 214293, Note_on_c, 0, 82, 83
2, 214296, Note_on_c, 0, 70, 78
2, 214298, Note_off_c, 0, 62, 64
2, 214324, Note_off_c, 0, 77, 64
2, 214328, Note_on_c, 0, 53, 46
2, 214337, Note_off_c, 0, 70, 64
2, 214347, Note_off_c, 0, 82, 64
2, 214349, Control_c, 0, 64, 0
2, 214352, Note_off_c, 0, 56, 64
2, 214379, Note_off_c, 0, 53, 64
2, 214379, Note_on_c, 0, 44, 60
2, 214383, Note_on_c, 0, 83, 78
2, 214386, Note_on_c, 0, 71, 75
2, 214387, Note_on_c, 0, 77, 69
2, 214414, Control_c, 0, 64, 127
2, 214427, Note_on_c, 0, 53, 46
2, 214433, Note_off_c, 0, 44, 64
2, 214468, Note_on_c, 0, 56, 46
2, 214490, Note_off_c, 0, 53, 64
2, 214513, Note_off_c, 0, 56, 64
2, 214518, Note_on_c, 0, 62, 46
2, 214550, Note_on_c, 0, 56, 46
2, 214570, Note_off_c, 0, 62, 64
2, 214572, Control_c, 0, 64, 0
2, 214601, Note_on_c, 0, 53, 46
2, 214612, Note_off_c, 0, 56, 64
2, 214640, Control_c, 0, 64, 127
2, 214650, Note_off_c, 0, 53, 64
2, 214650, Note_on_c, 0, 44, 66
2, 214688, Note_on_c, 0, 53, 46
2, 214695, Note_off_c, 0, 44, 64
2, 214702, Note_off_c, 0, 77, 64
2, 214717, Note_off_c, 0, 83, 64
2, 214722, Note_off_c, 0, 71, 64
2, 214740, Note_on_c, 0, 56, 46
2, 214759, Note_off_c, 0, 53, 64
2, 214784, Note_on_c, 0, 62, 46
2, 214787, Note_off_c, 0, 56, 64
2, 214812, Note_on_c, 0, 82, 76
2, 214812, Note_on_c, 0, 77, 74
2, 214816, Note_on_c, 0, 70, 83
2, 214821, Note_on_c, 0, 56, 46
2, 214838, Note_off_c, 0, 62, 64
2, 214860, Note_off_c, 0, 77, 64
2, 214860, Note_off_c, 0, 82, 64
2, 214864, Note_off_c, 0, 70, 64
2, 214865, Note_on_c, 0, 53, 46
2, 214868, Note_off_c, 0, 56, 64
2, 214872, Control_c, 0, 64, 0
2, 214904, Note_on_c, 0, 77, 72
2, 214905, Note_on_c, 0, 44, 60
2, 214910, Note_off_c, 0, 53, 64
2, 214910, Note_on_c, 0, 83, 91
2, 214910, Note_on_c, 0, 71, 83
2, 214928, Control_c, 0, 64, 127
2, 214946, Note_on_c, 0, 53, 58
2, 214950, Note_off_c, 0, 83, 64
2, 214952, Note_off_c, 0, 77, 64
2, 214955, Note_off_c, 0, 44, 64
2, 214958, Note_off_c, 0, 71, 64
2, 214992, Note_on_c, 0, 82, 95
2, 214992, Note_on_c, 0, 77, 74
2, 214996, Note_on_c, 0, 56, 58
2, 215000, Note_on_c, 0, 70, 95
2, 215007, Note_off_c, 0, 53, 64
2, 215022, Note_off_c, 0, 77, 64
2, 215026, Note_off_c, 0, 82, 64
2, 215030, Note_off_c, 0, 70, 64
2, 215031, Note_on_c, 0, 62, 58
2, 215039, Note_off_c, 0, 56, 64
2, 215083, Note_on_c, 0, 83, 95
2, 215083, Note_on_c, 0, 71, 92
2, 215084, Note_on_c, 0, 77, 75
2, 215084, Note_on_c, 0, 56, 58
2, 215088, Note_off_c, 0, 62, 64
2, 215114, Note_off_c, 0, 77, 64
2, 215115, Note_off_c, 0, 56, 64
2, 215116, Note_on_c, 0, 53, 58
2, 215117, Note_off_c, 0, 71, 64
2, 215118, Note_off_c, 0, 83, 64
2, 215133, Control_c, 0, 64, 0
2, 215157, Note_off_c, 0, 53, 64
2, 215164, Note_on_c, 0, 44, 69
2, 215175, Note_on_c, 0, 71, 95
2, 215176, Note_on_c, 0, 83, 95
2, 215176, Note_on_c, 0, 78, 95
2, 215200, Control_c, 0, 64, 127
2, 215205, Note_on_c, 0, 51, 58
2, 215214, Note_off_c, 0, 44, 64
2, 215246, Note_on_c, 0, 54, 58
2, 215258, Note_off_c, 0, 51, 64
2, 215283, Note_on_c, 0, 63, 58
2, 215304, Note_off_c, 0, 54, 64
2, 215320, Note_off_c, 0, 71, 64
2, 215321, Note_off_c, 0, 78, 64
2, 215321, Note_off_c, 0, 83, 64
2, 215328, Note_on_c, 0, 82, 94
2, 215333, Note_on_c, 0, 78, 86
2, 215336, Note_on_c, 0, 70, 95
2, 215339, Note_on_c, 0, 54, 58
2, 215347, Note_off_c, 0, 63, 64
2, 215380, Note_on_c, 0, 51, 58
2, 215396, Note_off_c, 0, 54, 64
2, 215414, Control_c, 0, 64, 0
2, 215418, Note_off_c, 0, 82, 64
2, 215423, Note_off_c, 0, 78, 64
2, 215423, Note_on_c, 0, 44, 60
2, 215426, Note_off_c, 0, 70, 64
2, 215427, Note_on_c, 0, 85, 83
2, 215430, Note_on_c, 0, 79, 87
2, 215430, Note_on_c, 0, 73, 83
2, 215434, Note_off_c, 0, 51, 64
2, 215434, Control_c, 0, 64, 127
2, 215480, Note_off_c, 0, 44, 64
2, 215482, Control_c, 0, 64, 127
2, 215502, Note_on_c, 0, 52, 58
2, 215546, Note_on_c, 0, 55, 58
2, 215547, Note_off_c, 0, 52, 64
2, 215581, Note_off_c, 0, 55, 64
2, 215593, Note_on_c, 0, 64, 58
2, 215628, Note_on_c, 0, 55, 58
2, 215637, Note_off_c, 0, 64, 64
2, 215659, Control_c, 0, 64, 0
2, 215664, Note_on_c, 0, 52, 59
2, 215700, Note_off_c, 0, 55, 64
2, 215712, Note_off_c, 0, 52, 64
2, 215712, Control_c, 0, 64, 127
2, 215718, Control_c, 0, 64, 0
2, 215724, Note_on_c, 0, 44, 62
2, 215756, Control_c, 0, 64, 127
2, 215772, Note_on_c, 0, 52, 60
2, 215775, Note_off_c, 0, 44, 64
2, 215819, Note_off_c, 0, 79, 64
2, 215822, Note_off_c, 0, 52, 64
2, 215832, Note_on_c, 0, 55, 60
2, 215845, Note_off_c, 0, 85, 64
2, 215868, Note_off_c, 0, 73, 64
2, 215874, Note_on_c, 0, 64, 60
2, 215882, Note_off_c, 0, 55, 64
2, 215890, Control_c, 0, 64, 0
2, 215904, Note_on_c, 0, 55, 60
2, 215912, Note_on_c, 0, 84, 85
2, 215914, Note_on_c, 0, 72, 82
2, 215920, Note_on_c, 0, 79, 81
2, 215939, Note_off_c, 0, 64, 64
2, 215950, Note_off_c, 0, 72, 64
2, 215952, Note_on_c, 0, 52, 60
2, 215957, Note_off_c, 0, 79, 64
2, 215959, Note_off_c, 0, 84, 64
2, 215961, Control_c, 0, 64, 127
2, 215968, Note_off_c, 0, 55, 64
2, 216000, Control_c, 0, 64, 0
2, 216003, Note_off_c, 0, 52, 64
2, 216026, Note_on_c, 0, 85, 83
2, 216026, Note_on_c, 0, 73, 88
2, 216034, Note_on_c, 0, 79, 90
2, 216038, Note_on_c, 0, 44, 75
2, 216045, Control_c, 0, 64, 127
2, 216085, Note_off_c, 0, 44, 64
2, 216088, Note_on_c, 0, 52, 61
2, 216091, Note_off_c, 0, 79, 64
2, 216094, Note_off_c, 0, 73, 64
2, 216098, Note_off_c, 0, 85, 64
2, 216120, Note_on_c, 0, 84, 91
2, 216120, Note_on_c, 0, 55, 61
2, 216126, Note_on_c, 0, 79, 88
2, 216130, Note_on_c, 0, 72, 90
2, 216133, Note_off_c, 0, 52, 64
2, 216157, Note_off_c, 0, 55, 64
2, 216160, Note_off_c, 0, 84, 64
2, 216165, Note_off_c, 0, 79, 64
2, 216166, Note_off_c, 0, 72, 64
2, 216168, Note_on_c, 0, 64, 70
2, 216186, Control_c, 0, 64, 0
2, 216201, Control_c, 0, 64, 0
2, 216204, Note_on_c, 0, 55, 62
2, 216208, Note_on_c, 0, 73, 91
2, 216211, Note_on_c, 0, 85, 95
2, 216214, Note_on_c, 0, 79, 95
2, 216222, Note_off_c, 0, 64, 64
2, 216240, Note_on_c, 0, 52, 62
2, 216248, Control_c, 0, 64, 127
2, 216250, Control_c, 0, 64, 127
2, 216251, Note_off_c, 0, 73, 64
2, 216253, Note_off_c, 0, 79, 64
2, 216260, Note_off_c, 0, 85, 64
2, 216263, Note_off_c, 0, 55, 64
2, 216270, Control_c, 0, 64, 0
2, 216276, Note_on_c, 0, 85, 95
2, 216281, Control_c, 0, 64, 127
2, 216288, Note_on_c, 0, 80, 95
2, 216288, Note_on_c, 0, 73, 95
2, 216291, Note_on_c, 0, 44, 75
2, 216293, Note_off_c, 0, 52, 64
2, 216322, Control_c, 0, 64, 127
2, 216332, Control_c, 0, 64, 0
2, 216347, Note_off_c, 0, 44, 64
2, 216354, Note_on_c, 0, 53, 63
2, 216393, Note_on_c, 0, 56, 63
2, 216396, Control_c, 0, 64, 0
2, 216398, Note_off_c, 0, 53, 64
2, 216418, Note_off_c, 0, 80, 64
2, 216421, Note_off_c, 0, 85, 64
2, 216426, Note_on_c, 0, 65, 63
2, 216430, Note_off_c, 0, 56, 64
2, 216436, Control_c, 0, 64, 127
2, 216444, Note_off_c, 0, 73, 64
2, 216453, Control_c, 0, 64, 127
2, 216468, Note_on_c, 0, 56, 63
2, 216473, Note_off_c, 0, 65, 64
2, 216480, Note_on_c, 0, 80, 90
2, 216480, Note_on_c, 0, 72, 93
2, 216484, Note_on_c, 0, 84, 94
2, 216499, Note_off_c, 0, 56, 64
2, 216516, Note_on_c, 0, 53, 72
2, 216528, Note_off_c, 0, 72, 64
2, 216528, Note_off_c, 0, 80, 64
2, 216532, Note_off_c, 0, 84, 64
2, 216550, Control_c, 0, 64, 0
2, 216560, Note_on_c, 0, 81, 92
2, 216560, Note_on_c, 0, 44, 80
2, 216568, Note_on_c, 0, 75, 95
2, 216571, Note_on_c, 0, 87, 95
2, 216577, Note_off_c, 0, 53, 64
2, 216594, Control_c, 0, 64, 127
2, 216600, Note_on_c, 0, 51, 63
2, 216602, Note_off_c, 0, 44, 64
2, 216636, Note_on_c, 0, 54, 64
2, 216676, Note_off_c, 0, 54, 64
2, 216682, Note_off_c, 0, 51, 64
2, 216702, Note_on_c, 0, 60, 64
2, 216705, Control_c, 0, 64, 0
2, 216714, Control_c, 0, 64, 0
2, 216719, Note_off_c, 0, 81, 64
2, 216727, Note_off_c, 0, 75, 64
2, 216730, Note_off_c, 0, 87, 64
2, 216744, Note_on_c, 0, 81, 87
2, 216744, Note_on_c, 0, 54, 64
2, 216751, Note_on_c, 0, 87, 95
2, 216754, Note_off_c, 0, 60, 64
2, 216754, Note_on_c, 0, 75, 87
2, 216760, Control_c, 0, 64, 127
2, 216781, Control_c, 0, 64, 127
2, 216794, Note_off_c, 0, 81, 64
2, 216799, Note_off_c, 0, 54, 64
2, 216800, Control_c, 0, 64, 0
2, 216804, Note_on_c, 0, 51, 65
2, 216808, Note_off_c, 0, 75, 64
2, 216814, Note_off_c, 0, 87, 64
2, 216832, Control_c, 0, 64, 0
2, 216844, Note_on_c, 0, 44, 81
2, 216847, Note_on_c, 0, 75, 86
2, 216851, Note_on_c, 0, 87, 95
2, 216854, Note_on_c, 0, 80, 95
2, 216855, Note_off_c, 0, 51, 64
2, 216864, Control_c, 0, 64, 127
2, 216872, Control_c, 0, 64, 127
2, 216890, Note_off_c, 0, 44, 64
2, 216890, Note_on_c, 0, 47, 66
2, 216928, Note_on_c, 0, 53, 66
2, 216946, Note_off_c, 0, 47, 64
2, 216966, Note_on_c, 0, 59, 66
2, 216979, Note_off_c, 0, 53, 64
2, 216992, Note_off_c, 0, 75, 64
2, 216996, Note_off_c, 0, 87, 64
2, 216999, Note_off_c, 0, 80, 64
2, 217008, Note_on_c, 0, 86, 91
2, 217008, Note_on_c, 0, 80, 95
2, 217008, Note_on_c, 0, 53, 66
2, 217011, Note_on_c, 0, 74, 87
2, 217036, Note_off_c, 0, 59, 64
2, 217061, Note_off_c, 0, 53, 64
2, 217063, Note_off_c, 0, 80, 64
2, 217063, Note_off_c, 0, 86, 64
2, 217064, Note_on_c, 0, 47, 66
2, 217066, Note_off_c, 0, 74, 64
2, 217079, Control_c, 0, 64, 0
2, 217090, Note_off_c, 0, 47, 64
2, 217106, Note_on_c, 0, 89, 95
2, 217110, Note_on_c, 0, 83, 95
2, 217114, Note_on_c, 0, 77, 95
2, 217114, Note_on_c, 0, 44, 79
2, 217142, Control_c, 0, 64, 127
2, 217154, Note_off_c, 0, 44, 64
2, 217167, Note_on_c, 0, 53, 66
2, 217170, Control_c, 0, 64, 0
2, 217193, Control_c, 0, 64, 0
2, 217205, Note_on_c, 0, 56, 67
2, 217210, Note_off_c, 0, 53, 64
2, 217230, Control_c, 0, 64, 127
2, 217231, Note_off_c, 0, 56, 64
2, 217239, Note_on_c, 0, 62, 67
2, 217271, Control_c, 0, 64, 127
2, 217281, Note_off_c, 0, 89, 64
2, 217285, Note_off_c, 0, 83, 64
2, 217287, Note_on_c, 0, 56, 67
2, 217288, Note_on_c, 0, 89, 95
2, 217289, Note_off_c, 0, 77, 64
2, 217290, Note_on_c, 0, 77, 95
2, 217294, Note_on_c, 0, 83, 95
2, 217308, Note_off_c, 0, 62, 64
2, 217316, Note_on_c, 0, 53, 68
2, 217337, Note_off_c, 0, 77, 64
2, 217337, Control_c, 0, 64, 0
2, 217348, Note_off_c, 0, 83, 64
2, 217356, Note_off_c, 0, 89, 64
2, 217356, Note_off_c, 0, 56, 64
2, 217368, Note_on_c, 0, 77, 95
2, 217374, Note_off_c, 0, 53, 64
2, 217378, Note_on_c, 0, 89, 95
2, 217378, Note_on_c, 0, 82, 95
2, 217387, Note_on_c, 0, 44, 84
2, 217394, Control_c, 0, 64, 127
2, 217416, Note_on_c, 0, 49, 69
2, 217424, Control_c, 0, 64, 0
2, 217432, Note_off_c, 0, 44, 64
2, 217449, Note_off_c, 0, 49, 64
2, 217456, Note_on_c, 0, 55, 69
2, 217458, Note_off_c, 0, 82, 64
2, 217461, Note_off_c, 0, 77, 64
2, 217465, Note_off_c, 0, 89, 64
2, 217465, Control_c, 0, 64, 127
2, 217500, Note_on_c, 0, 61, 69
2, 217508, Note_off_c, 0, 55, 64
2, 217536, Note_on_c, 0, 82, 95
2, 217539, Note_on_c, 0, 88, 94
2, 217539, Note_on_c, 0, 76, 91
2, 217546, Note_on_c, 0, 55, 69
2, 217552, Note_off_c, 0, 61, 64
2, 217580, Note_off_c, 0, 76, 64
2, 217584, Note_off_c, 0, 82, 64
2, 217584, Note_on_c, 0, 49, 69
2, 217590, Note_off_c, 0, 88, 64
2, 217595, Note_off_c, 0, 55, 64
2, 217597, Control_c, 0, 64, 0
2, 217633, Note_off_c, 0, 49, 64
2, 217635, Note_on_c, 0, 91, 95
2, 217635, Note_on_c, 0, 44, 87
2, 217640, Note_on_c, 0, 85, 95
2, 217640, Note_on_c, 0, 79, 95
2, 217651, Control_c, 0, 64, 127
2, 217682, Note_off_c, 0, 44, 64
2, 217696, Control_c, 0, 64, 0
2, 217696, Control_c, 0, 64, 0
2, 217698, Note_on_c, 0, 52, 69
2, 217728, Note_on_c, 0, 58, 94
2, 217737, Note_off_c, 0, 52, 64
2, 217753, Note_off_c, 0, 58, 64
2, 217754, Control_c, 0, 64, 127
2, 217763, Control_c, 0, 64, 127
2, 217764, Note_on_c, 0, 64, 70
2, 217800, Note_off_c, 0, 91, 64
2, 217805, Note_off_c, 0, 79, 64
2, 217805, Note_off_c, 0, 85, 64
2, 217816, Note_on_c, 0, 91, 95
2, 217816, Note_on_c, 0, 58, 70
2, 217817, Note_on_c, 0, 79, 95
2, 217821, Note_on_c, 0, 85, 95
2, 217827, Note_off_c, 0, 64, 64
2, 217848, Note_off_c, 0, 58, 64
2, 217854, Note_off_c, 0, 79, 64
2, 217859, Note_off_c, 0, 85, 64
2, 217860, Note_on_c, 0, 52, 70
2, 217867, Control_c, 0, 64, 0
2, 217872, Control_c, 0, 64, 0
2, 217875, Note_off_c, 0, 91, 64
2, 217900, Note_off_c, 0, 52, 64
2, 217910, Note_on_c, 0, 84, 95
2, 217912, Control_c, 0, 64, 127
2, 217914, Note_on_c, 0, 91, 95
2, 217914, Note_on_c, 0, 44, 89
2, 217918, Note_on_c, 0, 79, 87
2, 217929, Control_c, 0, 64, 127
2, 217954, Note_on_c, 0, 51, 71
2, 217956, Note_off_c, 0, 44, 64
2, 217986, Note_on_c, 0, 54, 71
2, 217992, Note_off_c, 0, 51, 64
2, 218025, Note_off_c, 0, 54, 64
2, 218040, Note_on_c, 0, 63, 71
2, 218075, Note_off_c, 0, 84, 64
2, 218079, Note_off_c, 0, 91, 64
2, 218083, Note_off_c, 0, 79, 64
2, 218086, Note_on_c, 0, 92, 95
2, 218088, Note_on_c, 0, 84, 95
2, 218088, Note_on_c, 0, 80, 95
2, 218092, Note_on_c, 0, 54, 72
2, 218129, Note_off_c, 0, 63, 64
2, 218132, Note_on_c, 0, 54, 72
2, 218138, Control_c, 0, 64, 0
2, 218140, Note_on_c, 0, 51, 72
2, 218150, Note_off_c, 0, 80, 64
2, 218154, Note_off_c, 0, 54, 64
2, 218158, Note_off_c, 0, 92, 64
2, 218160, Note_off_c, 0, 84, 64
2, 218164, Note_on_c, 0, 51, 72
2, 218171, Note_off_c, 0, 51, 64
2, 218171, Control_c, 0, 64, 0
2, 218179, Note_off_c, 0, 54, 64
2, 218179, Control_c, 0, 64, 0
2, 218183, Note_on_c, 0, 85, 95
2, 218187, Note_on_c, 0, 93, 95
2, 218190, Note_on_c, 0, 81, 95
2, 218190, Note_on_c, 0, 44, 94
2, 218197, Note_off_c, 0, 51, 64
2, 218202, Control_c, 0, 64, 127
2, 218220, Note_on_c, 0, 51, 72
2, 218227, Control_c, 0, 64, 127
2, 218246, Note_off_c, 0, 44, 64
2, 218248, Control_c, 0, 64, 127
2, 218263, Note_on_c, 0, 54, 72
2, 218271, Note_off_c, 0, 51, 64
2, 218303, Note_on_c, 0, 60, 73
2, 218315, Note_off_c, 0, 54, 64
2, 218338, Note_off_c, 0, 85, 64
2, 218342, Note_off_c, 0, 93, 64
2, 218345, Note_off_c, 0, 81, 64
2, 218356, Note_on_c, 0, 54, 73
2, 218366, Note_on_c, 0, 84, 95
2, 218366, Note_on_c, 0, 72, 95
2, 218382, Note_off_c, 0, 60, 64
2, 218403, Note_off_c, 0, 54, 64
2, 218412, Note_on_c, 0, 51, 73
2, 218414, Note_off_c, 0, 84, 64
2, 218416, Note_off_c, 0, 72, 64
2, 218438, Control_c, 0, 64, 0
2, 218445, Note_off_c, 0, 51, 64
2, 218467, Note_on_c, 0, 77, 95
2, 218467, Note_on_c, 0, 73, 95
2, 218467, Note_on_c, 0, 37, 95
2, 218468, Note_on_c, 0, 85, 95
2, 218489, Control_c, 0, 64, 127
2, 218628, Note_off_c, 0, 85, 64
2, 218632, Note_off_c, 0, 77, 64
2, 218644, Note_off_c, 0, 73, 64
2, 218652, Control_c, 0, 64, 127
2, 218657, Note_on_c, 0, 44, 62
2, 218669, Control_c, 0, 64, 127
2, 218680, Control_c, 0, 64, 0
2, 218686, Control_c, 0, 64, 0
2, 218709, Note_on_c, 0, 53, 52
2, 218720, Control_c, 0, 64, 127
2, 218731, Note_off_c, 0, 44, 64
2, 218737, Control_c, 0, 64, 127
2, 218760, Note_on_c, 0, 61, 84
2, 218763, Note_on_c, 0, 65, 73
2, 218771, Note_off_c, 0, 53, 64
2, 218799, Note_off_c, 0, 61, 64
2, 218804, Note_on_c, 0, 73, 84
2, 218815, Note_off_c, 0, 65, 64
2, 218844, Note_on_c, 0, 80, 77
2, 218846, Note_off_c, 0, 37, 64
2, 218847, Note_off_c, 0, 73, 64
2, 218861, Note_off_c, 0, 80, 64
2, 218883, Note_on_c, 0, 77, 90
2, 218919, Note_off_c, 0, 77, 64
2, 218921, Control_c, 0, 64, 0
2, 218930, Control_c, 0, 64, 0
2, 218937, Note_on_c, 0, 85, 82
2, 218967, Note_off_c, 0, 85, 64
2, 218972, Note_on_c, 0, 94, 63
2, 218976, Control_c, 0, 64, 127
2, 218989, Control_c, 0, 64, 0
2, 218997, Control_c, 0, 64, 127
2, 218998, Control_c, 0, 64, 0
2, 219011, Note_on_c, 0, 92, 92
2, 219014, Note_on_c, 0, 84, 81
2, 219021, Note_off_c, 0, 94, 64
2, 219026, Note_on_c, 0, 32, 81
2, 219044, Control_c, 0, 64, 127
2, 219065, Control_c, 0, 64, 127
2, 219116, Control_c, 0, 64, 0
2, 219156, Note_on_c, 0, 44, 62
2, 219156, Control_c, 0, 64, 127
2, 219216, Note_on_c, 0, 51, 65
2, 219230, Note_off_c, 0, 44, 64
2, 219264, Note_on_c, 0, 60, 74
2, 219271, Note_on_c, 0, 66, 92
2, 219272, Note_off_c, 0, 51, 64
2, 219300, Note_on_c, 0, 72, 77
2, 219302, Note_off_c, 0, 60, 64
2, 219316, Note_off_c, 0, 66, 64
2, 219329, Note_off_c, 0, 92, 64
2, 219331, Note_off_c, 0, 84, 64
2, 219336, Note_off_c, 0, 72, 64
2, 219339, Note_on_c, 0, 80, 82
2, 219358, Note_off_c, 0, 80, 64
2, 219382, Note_on_c, 0, 78, 81
2, 219386, Control_c, 0, 64, 0
2, 219409, Control_c, 0, 64, 0
2, 219412, Note_on_c, 0, 84, 71
2, 219420, Note_off_c, 0, 78, 64
2, 219442, Note_off_c, 0, 32, 64
2, 219446, Control_c, 0, 64, 127
2, 219452, Note_on_c, 0, 92, 69
2, 219454, Control_c, 0, 64, 0
2, 219457, Note_off_c, 0, 84, 64
2, 219477, Control_c, 0, 64, 0
2, 219487, Control_c, 0, 64, 127
2, 219500, Note_on_c, 0, 89, 75
2, 219502, Note_on_c, 0, 85, 90
2, 219505, Note_on_c, 0, 37, 75
2, 219512, Note_off_c, 0, 92, 64
2, 219514, Control_c, 0, 64, 127
2, 219555, Control_c, 0, 64, 127
2, 219640, Control_c, 0, 64, 0
2, 219681, Control_c, 0, 64, 127
2, 219706, Note_on_c, 0, 44, 62
2, 219708, Control_c, 0, 64, 0
2, 219744, Note_on_c, 0, 53, 69
2, 219749, Control_c, 0, 64, 127
2, 219759, Note_off_c, 0, 44, 64
2, 219776, Note_on_c, 0, 65, 73
2, 219782, Note_on_c, 0, 61, 82
2, 219792, Note_off_c, 0, 53, 64
2, 219812, Note_on_c, 0, 73, 79
2, 219814, Note_off_c, 0, 61, 64
2, 219817, Note_off_c, 0, 89, 64
2, 219819, Note_off_c, 0, 85, 64
2, 219826, Note_off_c, 0, 65, 64
2, 219846, Note_on_c, 0, 80, 75
2, 219857, Note_off_c, 0, 73, 64
2, 219865, Note_off_c, 0, 80, 64
2, 219884, Note_on_c, 0, 77, 87
2, 219912, Control_c, 0, 64, 0
2, 219912, Control_c, 0, 64, 0
2, 219915, Note_off_c, 0, 37, 64
2, 219919, Note_off_c, 0, 77, 64
2, 219924, Note_on_c, 0, 85, 86
2, 219960, Note_off_c, 0, 85, 64
2, 219964, Note_on_c, 0, 94, 90
2, 219970, Control_c, 0, 64, 127
2, 219979, Control_c, 0, 64, 127
2, 219980, Control_c, 0, 64, 0
2, 219980, Control_c, 0, 64, 0
2, 220000, Note_on_c, 0, 84, 78
2, 220004, Note_on_c, 0, 32, 75
2, 220007, Note_on_c, 0, 92, 93
2, 220016, Note_off_c, 0, 94, 64
2, 220038, Control_c, 0, 64, 127
2, 220047, Control_c, 0, 64, 127
2, 220156, Control_c, 0, 64, 0
2, 220164, Note_on_c, 0, 44, 62
2, 220196, Control_c, 0, 64, 127
2, 220212, Note_on_c, 0, 51, 69
2, 220238, Note_off_c, 0, 44, 64
2, 220252, Note_on_c, 0, 60, 62
2, 220256, Note_on_c, 0, 66, 92
2, 220270, Note_off_c, 0, 51, 64
2, 220294, Note_off_c, 0, 66, 64
2, 220295, Note_on_c, 0, 72, 83
2, 220301, Note_off_c, 0, 60, 64
2, 220315, Note_off_c, 0, 84, 64
2, 220322, Note_off_c, 0, 72, 64
2, 220324, Note_off_c, 0, 92, 64
2, 220328, Note_on_c, 0, 80, 95
2, 220343, Note_off_c, 0, 80, 64
2, 220366, Note_on_c, 0, 78, 82
2, 220387, Control_c, 0, 64, 0
2, 220395, Control_c, 0, 64, 0
2, 220401, Note_on_c, 0, 84, 71
2, 220419, Note_off_c, 0, 32, 64
2, 220426, Note_off_c, 0, 78, 64
2, 220441, Note_on_c, 0, 92, 78
2, 220443, Control_c, 0, 64, 127
2, 220449, Note_off_c, 0, 84, 64
2, 220455, Control_c, 0, 64, 0
2, 220463, Control_c, 0, 64, 0
2, 220464, Control_c, 0, 64, 127
2, 220500, Note_off_c, 0, 92, 64
2, 220508, Note_on_c, 0, 85, 95
2, 220539, Note_on_c, 0, 45, 95
2, 220540, Note_on_c, 0, 33, 95
2, 220541, Note_on_c, 0, 97, 95
2, 220560, Control_c, 0, 64, 127
2, 220561, Note_off_c, 0, 85, 64
2, 220624, Note_off_c, 0, 45, 64
2, 220644, Note_on_c, 0, 51, 95
2, 220644, Note_on_c, 0, 39, 95
2, 220651, Note_on_c, 0, 95, 95
2, 220654, Note_off_c, 0, 97, 64
2, 220686, Note_on_c, 0, 93, 95
2, 220699, Note_off_c, 0, 39, 64
2, 220704, Note_off_c, 0, 51, 64
2, 220707, Note_off_c, 0, 95, 64
2, 220723, Note_on_c, 0, 88, 95
2, 220736, Note_on_c, 0, 52, 95
2, 220738, Note_off_c, 0, 93, 64
2, 220739, Note_on_c, 0, 40, 95
2, 220774, Note_on_c, 0, 85, 95
2, 220779, Note_off_c, 0, 88, 64
2, 220787, Note_off_c, 0, 40, 64
2, 220787, Note_off_c, 0, 52, 64
2, 220818, Note_on_c, 0, 83, 95
2, 220818, Note_on_c, 0, 52, 95
2, 220825, Note_on_c, 0, 40, 90
2, 220839, Note_off_c, 0, 85, 64
2, 220862, Note_on_c, 0, 81, 84
2, 220876, Note_off_c, 0, 83, 64
2, 220907, Note_on_c, 0, 76, 48
2, 220942, Note_off_c, 0, 81, 64
2, 220949, Note_on_c, 0, 73, 95
2, 220973, Note_off_c, 0, 76, 64
2, 220994, Note_on_c, 0, 71, 80
2, 220997, Note_off_c, 0, 73, 64
2, 221038, Note_on_c, 0, 69, 48
2, 221058, Note_off_c, 0, 71, 64
2, 221060, Note_off_c, 0, 52, 64
2, 221076, Note_on_c, 0, 64, 95
2, 221105, Note_off_c, 0, 33, 64
2, 221107, Note_off_c, 0, 69, 64
2, 221129, Note_on_c, 0, 61, 95
2, 221136, Note_off_c, 0, 64, 64
2, 221172, Note_on_c, 0, 39, 95
2, 221177, Note_off_c, 0, 40, 64
2, 221179, Note_on_c, 0, 59, 95
2, 221198, Note_off_c, 0, 61, 64
2, 221221, Note_on_c, 0, 57, 90
2, 221235, Note_off_c, 0, 59, 64
2, 221237, Note_off_c, 0, 39, 64
2, 221252, Note_on_c, 0, 40, 95
2, 221255, Note_on_c, 0, 52, 95
2, 221280, Note_off_c, 0, 57, 64
2, 221310, Control_c, 0, 64, 0
2, 221319, Note_off_c, 0, 52, 64
2, 221335, Note_on_c, 0, 53, 95
2, 221338, Note_on_c, 0, 41, 95
2, 221338, Note_on_c, 0, 33, 95
2, 221342, Note_on_c, 0, 65, 95
2, 221362, Control_c, 0, 64, 127
2, 221382, Note_off_c, 0, 40, 64
2, 221493, Note_off_c, 0, 33, 64
2, 221509, Note_off_c, 0, 53, 64
2, 221512, Note_off_c, 0, 41, 64
2, 221516, Note_off_c, 0, 65, 64
2, 221564, Note_on_c, 0, 64, 95
2, 221564, Note_on_c, 0, 52, 95
2, 221564, Note_on_c, 0, 40, 95
2, 221564, Note_on_c, 0, 33, 95
2, 221614, Note_off_c, 0, 33, 64
2, 221614, Note_off_c, 0, 40, 64
2, 221614, Note_off_c, 0, 52, 64
2, 221614, Note_off_c, 0, 64, 64
2, 221640, Note_on_c, 0, 85, 95
2, 221652, Control_c, 0, 64, 0
2, 221664, Note_on_c, 0, 33, 80
2, 221665, Note_on_c, 0, 45, 95
2, 221671, Note_on_c, 0, 97, 95
2, 221671, Note_on_c, 0, 45, 95
2, 221672, Note_on_c, 0, 33, 95
2, 221673, Note_on_c, 0, 97, 95
2, 221693, Note_off_c, 0, 85, 64
2, 221698, Control_c, 0, 64, 127
2, 221753, Note_off_c, 0, 97, 64
2, 221762, Note_on_c, 0, 39, 95
2, 221764, Note_on_c, 0, 51, 90
2, 221771, Note_off_c, 0, 97, 64
2, 221773, Note_on_c, 0, 95, 79
2, 221801, Note_on_c, 0, 93, 95
2, 221810, Note_off_c, 0, 39, 64
2, 221810, Note_off_c, 0, 33, 64
2, 221810, Note_off_c, 0, 45, 64
2, 221810, Note_off_c, 0, 45, 64
2, 221816, Note_off_c, 0, 51, 64
2, 221824, Note_off_c, 0, 95, 64
2, 221840, Note_on_c, 0, 88, 95
2, 221843, Note_on_c, 0, 52, 95
2, 221846, Note_on_c, 0, 40, 95
2, 221847, Note_off_c, 0, 93, 64
2, 221888, Note_off_c, 0, 40, 64
2, 221890, Note_off_c, 0, 52, 64
2, 221893, Note_on_c, 0, 85, 95
2, 221905, Note_off_c, 0, 88, 64
2, 221930, Note_on_c, 0, 52, 95
2, 221932, Note_on_c, 0, 83, 95
2, 221936, Note_on_c, 0, 40, 95
2, 221946, Note_off_c, 0, 85, 64
2, 221978, Note_on_c, 0, 81, 75
2, 221988, Note_off_c, 0, 83, 64
2, 222006, Note_on_c, 0, 76, 95
2, 222023, Note_off_c, 0, 81, 64
2, 222052, Note_on_c, 0, 73, 95
2, 222067, Note_off_c, 0, 76, 64
2, 222089, Note_on_c, 0, 71, 95
2, 222111, Note_off_c, 0, 73, 64
2, 222127, Note_on_c, 0, 69, 95
2, 222147, Note_off_c, 0, 71, 64
2, 222164, Note_on_c, 0, 64, 95
2, 222179, Note_off_c, 0, 69, 64
2, 222186, Note_off_c, 0, 52, 64
2, 222204, Note_on_c, 0, 61, 95
2, 222214, Note_off_c, 0, 40, 64
2, 222224, Note_off_c, 0, 64, 64
2, 222240, Note_on_c, 0, 39, 95
2, 222242, Note_on_c, 0, 59, 81
2, 222260, Note_off_c, 0, 61, 64
2, 222286, Note_on_c, 0, 57, 95
2, 222290, Note_off_c, 0, 33, 64
2, 222302, Note_off_c, 0, 59, 64
2, 222342, Note_on_c, 0, 52, 84
2, 222344, Note_on_c, 0, 40, 95
2, 222349, Note_off_c, 0, 57, 64
2, 222350, Note_off_c, 0, 39, 64
2, 222414, Note_off_c, 0, 52, 64
2, 222435, Note_off_c, 0, 40, 64
2, 222443, Control_c, 0, 64, 0
2, 222452, Note_on_c, 0, 65, 95
2, 222456, Note_on_c, 0, 53, 95
2, 222456, Note_on_c, 0, 41, 95
2, 222456, Note_on_c, 0, 33, 95
2, 222486, Control_c, 0, 64, 127
2, 222556, Note_off_c, 0, 53, 64
2, 222560, Note_off_c, 0, 33, 64
2, 222560, Note_off_c, 0, 41, 64
2, 222571, Note_off_c, 0, 65, 64
2, 222660, Note_on_c, 0, 52, 95
2, 222660, Note_on_c, 0, 40, 93
2, 222664, Note_on_c, 0, 64, 94
2, 222664, Note_on_c, 0, 33, 94
2, 222740, Note_off_c, 0, 33, 64
2, 222744, Note_off_c, 0, 40, 64
2, 222744, Note_off_c, 0, 52, 64
2, 222744, Note_off_c, 0, 64, 64
2, 222780, Note_on_c, 0, 53, 88
2, 222780, Note_on_c, 0, 41, 87
2, 222780, Note_on_c, 0, 33, 72
2, 222784, Note_on_c, 0, 65, 95
2, 222811, Note_off_c, 0, 33, 64
2, 222811, Note_off_c, 0, 41, 64
2, 222815, Note_off_c, 0, 53, 64
2, 222819, Note_off_c, 0, 65, 64
2, 222924, Note_on_c, 0, 53, 68
2, 222963, Note_off_c, 0, 53, 64
2, 222968, Note_on_c, 0, 57, 68
2, 222996, Note_on_c, 0, 61, 69
2, 222998, Note_on_c, 0, 45, 69
2, 223000, Note_on_c, 0, 33, 69
2, 223014, Note_off_c, 0, 57, 64
2, 223020, Note_on_c, 0, 65, 69
2, 223047, Note_off_c, 0, 61, 64
2, 223056, Note_on_c, 0, 41, 70
2, 223060, Note_on_c, 0, 77, 70
2, 223060, Note_on_c, 0, 73, 70
2, 223060, Note_on_c, 0, 53, 70
2, 223061, Note_off_c, 0, 41, 64
2, 223063, Note_off_c, 0, 65, 64
2, 223065, Note_off_c, 0, 53, 64
2, 223065, Note_off_c, 0, 73, 64
2, 223065, Note_off_c, 0, 77, 64
2, 223065, Note_off_c, 0, 45, 64
2, 223067, Note_off_c, 0, 33, 64
2, 223154, Note_on_c, 0, 53, 71
2, 223198, Note_off_c, 0, 53, 64
2, 223199, Note_on_c, 0, 57, 72
2, 223232, Note_on_c, 0, 61, 72
2, 223232, Note_on_c, 0, 45, 72
2, 223236, Note_on_c, 0, 33, 72
2, 223245, Note_off_c, 0, 57, 64
2, 223263, Note_on_c, 0, 65, 73
2, 223288, Note_off_c, 0, 61, 64
2, 223304, Note_on_c, 0, 73, 73
2, 223306, Note_on_c, 0, 77, 73
2, 223309, Note_off_c, 0, 73, 64
2, 223310, Note_on_c, 0, 53, 73
2, 223311, Note_off_c, 0, 77, 64
2, 223312, Note_on_c, 0, 41, 73
2, 223315, Note_off_c, 0, 53, 64
2, 223315, Note_off_c, 0, 45, 64
2, 223317, Note_off_c, 0, 41, 64
2, 223319, Note_off_c, 0, 65, 64
2, 223319, Note_off_c, 0, 33, 64
2, 223414, Note_on_c, 0, 53, 74
2, 223448, Note_on_c, 0, 58, 74
2, 223456, Note_off_c, 0, 53, 64
2, 223476, Note_on_c, 0, 34, 75
2, 223477, Note_on_c, 0, 61, 75
2, 223480, Note_on_c, 0, 46, 75
2, 223494, Note_off_c, 0, 58, 64
2, 223520, Note_on_c, 0, 65, 75
2, 223533, Note_off_c, 0, 61, 64
2, 223563, Note_off_c, 0, 34, 64
2, 223563, Note_on_c, 0, 53, 76
2, 223564, Note_on_c, 0, 77, 76
2, 223564, Note_on_c, 0, 73, 76
2, 223564, Note_on_c, 0, 41, 76
2, 223567, Note_off_c, 0, 46, 64
2, 223568, Note_off_c, 0, 53, 64
2, 223569, Note_off_c, 0, 41, 64
2, 223569, Note_off_c, 0, 73, 64
2, 223569, Note_off_c, 0, 77, 64
2, 223574, Note_off_c, 0, 65, 64
2, 223671, Note_on_c, 0, 53, 77
2, 223704, Note_on_c, 0, 58, 78
2, 223714, Note_off_c, 0, 53, 64
2, 223732, Note_on_c, 0, 34, 78
2, 223736, Note_on_c, 0, 46, 78
2, 223739, Note_on_c, 0, 62, 78
2, 223750, Note_off_c, 0, 58, 64
2, 223778, Note_on_c, 0, 65, 79
2, 223795, Note_off_c, 0, 62, 64
2, 223814, Note_on_c, 0, 53, 79
2, 223816, Note_on_c, 0, 41, 79
2, 223819, Note_off_c, 0, 53, 64
2, 223819, Note_off_c, 0, 34, 64
2, 223819, Note_on_c, 0, 74, 79
2, 223821, Note_off_c, 0, 41, 64
2, 223823, Note_off_c, 0, 46, 64
2, 223823, Note_on_c, 0, 77, 79
2, 223824, Note_off_c, 0, 74, 64
2, 223828, Note_off_c, 0, 77, 64
2, 223834, Note_off_c, 0, 65, 64
2, 223942, Note_on_c, 0, 54, 80
2, 223975, Note_on_c, 0, 58, 81
2, 223988, Note_off_c, 0, 54, 64
2, 224021, Note_off_c, 0, 58, 64
2, 224024, Note_on_c, 0, 62, 81
2, 224024, Note_on_c, 0, 34, 81
2, 224028, Note_on_c, 0, 46, 81
2, 224056, Note_on_c, 0, 66, 82
2, 224080, Note_off_c, 0, 62, 64
2, 224084, Note_on_c, 0, 42, 82
2, 224088, Note_on_c, 0, 78, 82
2, 224088, Note_on_c, 0, 74, 82
2, 224088, Note_on_c, 0, 54, 82
2, 224089, Note_off_c, 0, 42, 64
2, 224093, Note_off_c, 0, 54, 64
2, 224093, Note_off_c, 0, 74, 64
2, 224093, Note_off_c, 0, 78, 64
2, 224111, Note_off_c, 0, 34, 64
2, 224112, Note_off_c, 0, 66, 64
2, 224115, Note_off_c, 0, 46, 64
2, 224190, Note_on_c, 0, 54, 84
2, 224225, Note_on_c, 0, 58, 84
2, 224236, Note_off_c, 0, 54, 64
2, 224240, Note_on_c, 0, 34, 84
2, 224248, Note_on_c, 0, 46, 85
2, 224254, Note_on_c, 0, 63, 85
2, 224271, Note_off_c, 0, 58, 64
2, 224295, Note_on_c, 0, 66, 85
2, 224310, Note_off_c, 0, 63, 64
2, 224327, Note_off_c, 0, 34, 64
2, 224333, Note_on_c, 0, 42, 85
2, 224335, Note_off_c, 0, 46, 64
2, 224336, Note_on_c, 0, 75, 85
2, 224336, Note_on_c, 0, 54, 85
2, 224338, Note_off_c, 0, 42, 64
2, 224339, Note_on_c, 0, 78, 85
2, 224341, Note_off_c, 0, 54, 64
2, 224341, Note_off_c, 0, 75, 64
2, 224341, Note_off_c, 0, 66, 64
2, 224344, Note_off_c, 0, 78, 64
2, 224439, Note_on_c, 0, 55, 86
2, 224465, Note_on_c, 0, 61, 87
2, 224483, Note_off_c, 0, 55, 64
2, 224496, Note_on_c, 0, 45, 87
2, 224500, Note_on_c, 0, 64, 87
2, 224500, Note_on_c, 0, 33, 87
2, 224511, Note_off_c, 0, 61, 64
2, 224541, Note_on_c, 0, 67, 88
2, 224556, Note_off_c, 0, 64, 64
2, 224583, Note_off_c, 0, 45, 64
2, 224587, Note_off_c, 0, 33, 64
2, 224588, Note_on_c, 0, 57, 88
2, 224592, Note_on_c, 0, 79, 88
2, 224592, Note_on_c, 0, 76, 88
2, 224593, Note_off_c, 0, 57, 64
2, 224595, Note_off_c, 0, 67, 64
2, 224596, Note_on_c, 0, 45, 89
2, 224597, Note_off_c, 0, 76, 64
2, 224597, Note_off_c, 0, 79, 64
2, 224601, Note_off_c, 0, 45, 64
2, 224701, Note_on_c, 0, 68, 90
2, 224722, Note_on_c, 0, 44, 90
2, 224724, Note_on_c, 0, 32, 90
2, 224744, Note_on_c, 0, 73, 90
2, 224745, Note_off_c, 0, 68, 64
2, 224768, Note_on_c, 0, 77, 90
2, 224790, Note_off_c, 0, 73, 64
2, 224812, Note_on_c, 0, 80, 91
2, 224822, Control_c, 0, 64, 0
2, 224824, Note_off_c, 0, 77, 64
2, 224844, Note_on_c, 0, 61, 91
2, 224848, Note_on_c, 0, 92, 91
2, 224848, Note_on_c, 0, 89, 91
2, 224848, Note_on_c, 0, 85, 91
2, 224848, Note_on_c, 0, 68, 91
2, 224848, Note_on_c, 0, 65, 91
2, 224848, Note_on_c, 0, 56, 91
2, 224866, Note_off_c, 0, 44, 64
2, 224868, Note_off_c, 0, 32, 64
2, 224876, Note_off_c, 0, 61, 64
2, 224878, Note_off_c, 0, 56, 64
2, 224878, Note_off_c, 0, 65, 64
2, 224878, Note_off_c, 0, 85, 64
2, 224880, Note_off_c, 0, 68, 64
2, 224880, Note_off_c, 0, 89, 64
2, 224880, Note_off_c, 0, 92, 64
2, 224884, Control_c, 0, 64, 127
2, 224886, Note_off_c, 0, 80, 64
2, 225060, Control_c, 0, 64, 0
2, 225068, Note_on_c, 0, 48, 57
2, 225071, Note_on_c, 0, 60, 60
2, 225100, Note_on_c, 0, 61, 75
2, 225103, Note_on_c, 0, 49, 52
2, 225114, Note_off_c, 0, 48, 64
2, 225117, Note_off_c, 0, 60, 64
2, 225139, Note_on_c, 0, 65, 70
2, 225140, Note_on_c, 0, 53, 64
2, 225168, Note_off_c, 0, 61, 64
2, 225178, Note_off_c, 0, 49, 64
2, 225185, Note_on_c, 0, 56, 82
2, 225193, Note_on_c, 0, 68, 75
2, 225206, Note_off_c, 0, 53, 64
2, 225214, Note_off_c, 0, 65, 64
2, 225229, Note_off_c, 0, 56, 64
2, 225237, Note_off_c, 0, 68, 64
2, 225359, Note_on_c, 0, 59, 64
2, 225360, Note_on_c, 0, 47, 60
2, 225388, Note_on_c, 0, 60, 72
2, 225388, Note_on_c, 0, 48, 3
2, 225421, Note_on_c, 0, 65, 69
2, 225424, Note_on_c, 0, 53, 69
2, 225426, Note_off_c, 0, 59, 64
2, 225427, Note_off_c, 0, 47, 64
2, 225453, Note_off_c, 0, 48, 64
2, 225453, Note_off_c, 0, 60, 64
2, 225456, Note_on_c, 0, 56, 81
2, 225459, Note_on_c, 0, 68, 75
2, 225485, Note_off_c, 0, 53, 64
2, 225487, Note_off_c, 0, 65, 64
2, 225507, Note_off_c, 0, 56, 64
2, 225510, Note_off_c, 0, 68, 64
2, 225640, Note_on_c, 0, 45, 57
2, 225641, Note_on_c, 0, 57, 67
2, 225664, Note_on_c, 0, 46, 60
2, 225669, Note_on_c, 0, 58, 70
2, 225706, Note_off_c, 0, 57, 64
2, 225706, Note_on_c, 0, 53, 69
2, 225709, Note_off_c, 0, 45, 64
2, 225709, Note_on_c, 0, 65, 70
2, 225723, Note_off_c, 0, 46, 64
2, 225728, Note_off_c, 0, 58, 64
2, 225744, Note_on_c, 0, 68, 66
2, 225750, Note_on_c, 0, 56, 84
2, 225755, Note_off_c, 0, 53, 64
2, 225771, Note_off_c, 0, 65, 64
2, 225801, Note_off_c, 0, 68, 64
2, 225807, Note_off_c, 0, 56, 64
2, 225925, Control_c, 0, 64, 127
2, 225980, Note_on_c, 0, 56, 90
2, 225980, Note_on_c, 0, 44, 86
2, 225984, Note_on_c, 0, 32, 69
2, 226239, Note_on_c, 0, 92, 86
2, 226242, Note_on_c, 0, 80, 86
2, 226247, Note_on_c, 0, 89, 83
2, 226251, Note_on_c, 0, 77, 71
2, 226251, Note_on_c, 0, 72, 79
2, 226251, Note_on_c, 0, 66, 86
2, 226264, Control_c, 0, 64, 0
2, 226295, Control_c, 0, 64, 127
2, 226375, Note_off_c, 0, 44, 64
2, 226375, Note_off_c, 0, 56, 64
2, 226379, Note_off_c, 0, 32, 64
2, 226445, Note_off_c, 0, 89, 64
2, 226450, Note_off_c, 0, 72, 64
2, 226461, Note_off_c, 0, 66, 64
2, 226467, Note_off_c, 0, 92, 64
2, 226469, Note_off_c, 0, 80, 64
2, 226475, Note_off_c, 0, 77, 64
2, 226618, Note_on_c, 0, 66, 63
2, 226620, Note_on_c, 0, 80, 72
2, 226620, Note_on_c, 0, 72, 60
2, 226622, Note_on_c, 0, 75, 66
2, 226624, Note_on_c, 0, 92, 70
2, 226627, Note_on_c, 0, 87, 73
2, 226680, Note_off_c, 0, 72, 64
2, 226685, Note_off_c, 0, 80, 64
2, 226688, Note_off_c, 0, 66, 64
2, 226689, Note_off_c, 0, 92, 64
2, 226692, Note_off_c, 0, 87, 64
2, 226692, Note_off_c, 0, 75, 64
2, 226708, Note_on_c, 0, 72, 60
2, 226708, Note_on_c, 0, 66, 60
2, 226710, Note_on_c, 0, 77, 75
2, 226712, Note_on_c, 0, 89, 69
2, 226713, Note_on_c, 0, 92, 75
2, 226713, Note_on_c, 0, 80, 72
2, 226756, Note_off_c, 0, 66, 64
2, 226757, Note_off_c, 0, 80, 64
2, 226759, Note_off_c, 0, 89, 64
2, 226762, Note_off_c, 0, 77, 64
2, 226768, Note_off_c, 0, 72, 64
2, 226772, Note_off_c, 0, 92, 64
2, 226796, Note_on_c, 0, 92, 60
2, 226796, Note_on_c, 0, 75, 63
2, 226796, Note_on_c, 0, 72, 66
2, 226799, Note_on_c, 0, 80, 75
2, 226802, Note_on_c, 0, 66, 60
2, 226803, Note_on_c, 0, 87, 81
2, 226852, Note_off_c, 0, 75, 64
2, 226854, Note_off_c, 0, 87, 64
2, 226856, Note_off_c, 0, 92, 64
2, 226861, Note_off_c, 0, 72, 64
2, 226864, Note_off_c, 0, 80, 64
2, 226867, Note_off_c, 0, 66, 64
2, 226884, Note_on_c, 0, 92, 77
2, 226888, Note_on_c, 0, 89, 70
2, 226888, Note_on_c, 0, 80, 75
2, 226888, Note_on_c, 0, 72, 60
2, 226888, Note_on_c, 0, 66, 60
2, 226891, Note_on_c, 0, 77, 82
2, 226946, Note_off_c, 0, 89, 64
2, 226948, Note_off_c, 0, 66, 64
2, 226948, Note_off_c, 0, 72, 64
2, 226950, Note_off_c, 0, 92, 64
2, 226953, Note_off_c, 0, 80, 64
2, 226956, Note_off_c, 0, 77, 64
2, 226956, Note_on_c, 0, 92, 60
2, 226960, Note_on_c, 0, 75, 73
2, 226960, Note_on_c, 0, 66, 60
2, 226962, Note_on_c, 0, 87, 75
2, 226963, Note_on_c, 0, 80, 66
2, 226964, Note_on_c, 0, 72, 60
2, 227016, Note_off_c, 0, 92, 64
2, 227020, Note_off_c, 0, 66, 64
2, 227024, Note_off_c, 0, 72, 64
2, 227025, Note_off_c, 0, 75, 64
2, 227027, Note_off_c, 0, 87, 64
2, 227028, Note_off_c, 0, 80, 64
2, 227041, Control_c, 0, 64, 0
2, 227048, Note_on_c, 0, 92, 72
2, 227048, Note_on_c, 0, 73, 77
2, 227052, Note_on_c, 0, 89, 75
2, 227052, Note_on_c, 0, 85, 79
2, 227052, Note_on_c, 0, 80, 84
2, 227053, Note_on_c, 0, 65, 65
2, 227082, Control_c, 0, 64, 127
2, 227101, Note_off_c, 0, 73, 64
2, 227101, Note_off_c, 0, 92, 64
2, 227105, Note_off_c, 0, 80, 64
2, 227105, Note_off_c, 0, 85, 64
2, 227105, Note_off_c, 0, 89, 64
2, 227106, Note_off_c, 0, 65, 64
2, 227288, Control_c, 0, 64, 0
2, 227299, Note_on_c, 0, 60, 60
2, 227314, Note_on_c, 0, 48, 57
2, 227328, Note_on_c, 0, 61, 75
2, 227331, Note_on_c, 0, 49, 52
2, 227360, Note_off_c, 0, 48, 64
2, 227363, Note_on_c, 0, 53, 64
2, 227367, Note_on_c, 0, 65, 70
2, 227373, Note_off_c, 0, 60, 64
2, 227396, Note_off_c, 0, 61, 64
2, 227406, Note_off_c, 0, 49, 64
2, 227413, Note_on_c, 0, 56, 82
2, 227421, Note_on_c, 0, 68, 75
2, 227429, Note_off_c, 0, 53, 64
2, 227442, Note_off_c, 0, 65, 64
2, 227450, Note_off_c, 0, 56, 64
2, 227465, Note_off_c, 0, 68, 64
2, 227578, Note_on_c, 0, 47, 60
2, 227587, Note_on_c, 0, 59, 64
2, 227616, Note_on_c, 0, 60, 72
2, 227628, Note_on_c, 0, 48, 3
2, 227643, Note_on_c, 0, 53, 69
2, 227649, Note_on_c, 0, 65, 69
2, 227654, Note_off_c, 0, 59, 64
2, 227665, Note_off_c, 0, 48, 64
2, 227666, Note_off_c, 0, 47, 64
2, 227681, Note_off_c, 0, 60, 64
2, 227687, Note_on_c, 0, 68, 75
2, 227699, Note_on_c, 0, 56, 81
2, 227704, Note_off_c, 0, 53, 64
2, 227715, Note_off_c, 0, 65, 64
2, 227732, Note_off_c, 0, 56, 64
2, 227738, Note_off_c, 0, 68, 64
2, 227861, Note_on_c, 0, 45, 57
2, 227869, Note_on_c, 0, 57, 67
2, 227884, Note_on_c, 0, 46, 60
2, 227897, Note_on_c, 0, 58, 70
2, 227930, Note_off_c, 0, 45, 64
2, 227934, Note_off_c, 0, 57, 64
2, 227934, Note_on_c, 0, 53, 69
2, 227937, Note_on_c, 0, 65, 70
2, 227956, Note_off_c, 0, 58, 64
2, 227965, Note_off_c, 0, 46, 64
2, 227972, Note_on_c, 0, 68, 66
2, 227978, Note_on_c, 0, 56, 84
2, 227983, Note_off_c, 0, 53, 64
2, 227999, Note_off_c, 0, 65, 64
2, 228011, Note_off_c, 0, 56, 64
2, 228029, Note_off_c, 0, 68, 64
2, 228201, Control_c, 0, 64, 127
2, 228204, Note_on_c, 0, 32, 69
2, 228208, Note_on_c, 0, 56, 98
2, 228208, Note_on_c, 0, 44, 105
2, 228476, Note_on_c, 0, 89, 88
2, 228476, Note_on_c, 0, 72, 80
2, 228480, Note_on_c, 0, 92, 94
2, 228480, Note_on_c, 0, 80, 86
2, 228480, Note_on_c, 0, 77, 86
2, 228480, Note_on_c, 0, 66, 83
2, 228490, Note_off_c, 0, 32, 64
2, 228493, Note_off_c, 0, 44, 64
2, 228494, Note_off_c, 0, 56, 64
2, 228504, Control_c, 0, 64, 0
2, 228527, Control_c, 0, 64, 127
2, 228733, Note_off_c, 0, 72, 64
2, 228733, Note_off_c, 0, 77, 64
2, 228733, Note_off_c, 0, 89, 64
2, 228737, Note_off_c, 0, 66, 64
2, 228737, Note_off_c, 0, 80, 64
2, 228737, Note_off_c, 0, 92, 64
2, 228891, Note_on_c, 0, 66, 51
2, 228892, Note_on_c, 0, 72, 48
2, 228895, Note_on_c, 0, 75, 56
2, 228896, Note_on_c, 0, 92, 54
2, 228899, Note_on_c, 0, 87, 53
2, 228899, Note_on_c, 0, 80, 60
2, 228946, Note_off_c, 0, 66, 64
2, 228947, Note_off_c, 0, 72, 64
2, 228950, Note_off_c, 0, 75, 64
2, 228951, Note_off_c, 0, 92, 64
2, 228954, Note_off_c, 0, 80, 64
2, 228954, Note_off_c, 0, 87, 64
2, 228984, Note_on_c, 0, 77, 63
2, 228984, Note_on_c, 0, 72, 49
2, 228986, Note_on_c, 0, 80, 63
2, 228988, Note_on_c, 0, 89, 68
2, 228991, Note_on_c, 0, 92, 62
2, 228991, Note_on_c, 0, 66, 51
2, 229049, Note_off_c, 0, 72, 64
2, 229049, Note_off_c, 0, 77, 64
2, 229051, Note_off_c, 0, 80, 64
2, 229053, Note_off_c, 0, 89, 64
2, 229055, Note_off_c, 0, 92, 64
2, 229056, Note_off_c, 0, 66, 64
2, 229072, Note_on_c, 0, 66, 39
2, 229076, Note_on_c, 0, 92, 51
2, 229076, Note_on_c, 0, 80, 59
2, 229076, Note_on_c, 0, 75, 51
2, 229079, Note_on_c, 0, 87, 66
2, 229079, Note_on_c, 0, 72, 61
2, 229136, Note_off_c, 0, 75, 64
2, 229136, Note_off_c, 0, 92, 64
2, 229137, Note_off_c, 0, 66, 64
2, 229141, Note_off_c, 0, 80, 64
2, 229144, Note_off_c, 0, 72, 64
2, 229144, Note_off_c, 0, 87, 64
2, 229156, Note_on_c, 0, 92, 64
2, 229156, Note_on_c, 0, 89, 66
2, 229156, Note_on_c, 0, 77, 66
2, 229160, Note_on_c, 0, 80, 64
2, 229160, Note_on_c, 0, 72, 51
2, 229160, Note_on_c, 0, 66, 53
2, 229210, Note_off_c, 0, 92, 64
2, 229211, Note_off_c, 0, 77, 64
2, 229211, Note_off_c, 0, 89, 64
2, 229215, Note_off_c, 0, 80, 64
2, 229220, Note_off_c, 0, 72, 64
2, 229225, Note_off_c, 0, 66, 64
2, 229236, Note_on_c, 0, 80, 61
2, 229236, Note_on_c, 0, 66, 50
2, 229240, Note_on_c, 0, 92, 52
2, 229240, Note_on_c, 0, 87, 69
2, 229240, Note_on_c, 0, 75, 52
2, 229240, Note_on_c, 0, 72, 67
2, 229269, Control_c, 0, 64, 0
2, 229300, Note_off_c, 0, 75, 64
2, 229300, Note_off_c, 0, 92, 64
2, 229301, Note_off_c, 0, 66, 64
2, 229301, Note_off_c, 0, 80, 64
2, 229305, Note_off_c, 0, 87, 64
2, 229306, Note_off_c, 0, 72, 64
2, 229320, Note_on_c, 0, 92, 70
2, 229320, Note_on_c, 0, 89, 64
2, 229320, Note_on_c, 0, 72, 59
2, 229320, Control_c, 0, 64, 127
2, 229324, Note_on_c, 0, 80, 68
2, 229324, Note_on_c, 0, 77, 69
2, 229324, Note_on_c, 0, 66, 57
2, 229492, Note_on_c, 0, 87, 55
2, 229492, Note_on_c, 0, 75, 65
2, 229500, Note_off_c, 0, 66, 64
2, 229500, Note_off_c, 0, 72, 64
2, 229500, Note_off_c, 0, 80, 64
2, 229500, Note_off_c, 0, 89, 64
2, 229500, Note_off_c, 0, 92, 64
2, 229508, Note_off_c, 0, 77, 64
2, 229544, Note_on_c, 0, 66, 69
2, 229548, Note_on_c, 0, 93, 72
2, 229548, Note_on_c, 0, 89, 71
2, 229548, Note_on_c, 0, 81, 69
2, 229548, Note_on_c, 0, 77, 81
2, 229548, Note_on_c, 0, 72, 65
2, 229573, Note_off_c, 0, 75, 64
2, 229573, Note_off_c, 0, 87, 64
2, 229726, Note_off_c, 0, 77, 64
2, 229726, Note_off_c, 0, 89, 64
2, 229728, Note_on_c, 0, 87, 75
2, 229728, Note_on_c, 0, 75, 74
2, 229734, Note_off_c, 0, 66, 64
2, 229738, Note_off_c, 0, 72, 64
2, 229738, Note_off_c, 0, 81, 64
2, 229779, Note_off_c, 0, 93, 64
2, 229796, Note_on_c, 0, 81, 79
2, 229800, Note_on_c, 0, 89, 86
2, 229800, Note_on_c, 0, 77, 81
2, 229800, Note_on_c, 0, 66, 38
2, 229804, Note_on_c, 0, 93, 75
2, 229804, Note_on_c, 0, 72, 73
2, 229809, Note_off_c, 0, 75, 64
2, 229809, Note_off_c, 0, 87, 64
2, 229936, Note_on_c, 0, 75, 38
2, 229940, Note_on_c, 0, 87, 60
2, 229955, Note_off_c, 0, 77, 64
2, 229955, Note_off_c, 0, 89, 64
2, 229976, Note_off_c, 0, 81, 64
2, 229980, Note_off_c, 0, 66, 64
2, 229984, Note_off_c, 0, 72, 64
2, 229995, Note_off_c, 0, 93, 64
2, 230008, Note_on_c, 0, 67, 66
2, 230009, Note_on_c, 0, 94, 86
2, 230011, Note_off_c, 0, 75, 64
2, 230012, Note_on_c, 0, 90, 78
2, 230012, Note_on_c, 0, 82, 88
2, 230012, Note_on_c, 0, 78, 88
2, 230012, Note_on_c, 0, 73, 68
2, 230015, Note_off_c, 0, 87, 64
2, 230156, Note_on_c, 0, 88, 75
2, 230156, Note_on_c, 0, 76, 84
2, 230167, Note_off_c, 0, 78, 64
2, 230167, Note_off_c, 0, 90, 64
2, 230178, Note_off_c, 0, 67, 64
2, 230182, Note_off_c, 0, 73, 64
2, 230182, Note_off_c, 0, 82, 64
2, 230190, Note_off_c, 0, 94, 64
2, 230212, Note_on_c, 0, 73, 3
2, 230216, Note_on_c, 0, 94, 84
2, 230216, Note_on_c, 0, 90, 85
2, 230216, Note_on_c, 0, 82, 93
2, 230216, Note_on_c, 0, 78, 87
2, 230216, Note_on_c, 0, 67, 76
2, 230227, Note_off_c, 0, 76, 64
2, 230227, Note_off_c, 0, 88, 64
2, 230364, Note_on_c, 0, 88, 74
2, 230364, Note_on_c, 0, 76, 37
2, 230371, Note_off_c, 0, 78, 64
2, 230371, Note_off_c, 0, 90, 64
2, 230382, Note_off_c, 0, 73, 64
2, 230386, Note_off_c, 0, 67, 64
2, 230386, Note_off_c, 0, 82, 64
2, 230397, Note_off_c, 0, 94, 64
2, 230416, Note_on_c, 0, 74, 79
2, 230416, Note_on_c, 0, 68, 84
2, 230420, Note_on_c, 0, 95, 84
2, 230420, Note_on_c, 0, 91, 81
2, 230420, Note_on_c, 0, 83, 91
2, 230420, Note_on_c, 0, 79, 89
2, 230432, Note_off_c, 0, 76, 64
2, 230432, Note_off_c, 0, 88, 64
2, 230464, Control_c, 0, 64, 0
2, 230531, Control_c, 0, 64, 127
2, 230552, Note_on_c, 0, 77, 81
2, 230556, Note_on_c, 0, 89, 81
2, 230565, Note_off_c, 0, 79, 64
2, 230565, Note_off_c, 0, 91, 64
2, 230571, Note_off_c, 0, 68, 64
2, 230571, Note_off_c, 0, 74, 64
2, 230575, Note_off_c, 0, 83, 64
2, 230581, Note_off_c, 0, 95, 64
2, 230600, Note_on_c, 0, 83, 93
2, 230600, Note_on_c, 0, 79, 95
2, 230600, Note_on_c, 0, 68, 85
2, 230604, Note_on_c, 0, 95, 85
2, 230604, Note_on_c, 0, 91, 84
2, 230604, Note_on_c, 0, 74, 83
2, 230613, Note_off_c, 0, 77, 64
2, 230617, Note_off_c, 0, 89, 64
2, 230705, Control_c, 0, 64, 0
2, 230732, Note_on_c, 0, 77, 78
2, 230736, Note_on_c, 0, 89, 83
2, 230745, Note_off_c, 0, 68, 64
2, 230745, Note_off_c, 0, 79, 64
2, 230745, Note_off_c, 0, 83, 64
2, 230749, Note_off_c, 0, 74, 64
2, 230749, Note_off_c, 0, 91, 64
2, 230765, Note_off_c, 0, 95, 64
2, 230773, Control_c, 0, 64, 127
2, 230788, Note_off_c, 0, 77, 64
2, 230792, Note_off_c, 0, 89, 64
2, 230796, Note_on_c, 0, 96, 93
2, 230796, Note_on_c, 0, 80, 95
2, 230796, Note_on_c, 0, 68, 95
2, 230800, Note_on_c, 0, 92, 95
2, 230800, Note_on_c, 0, 84, 90
2, 230800, Note_on_c, 0, 75, 44
2, 230911, Note_off_c, 0, 68, 64
2, 230912, Note_on_c, 0, 90, 86
2, 230915, Note_off_c, 0, 75, 64
2, 230915, Note_off_c, 0, 84, 64
2, 230916, Note_on_c, 0, 78, 82
2, 230921, Note_off_c, 0, 80, 64
2, 230925, Note_off_c, 0, 92, 64
2, 230937, Note_off_c, 0, 96, 64
2, 230955, Note_off_c, 0, 90, 64
2, 230959, Note_off_c, 0, 78, 64
2, 231024, Note_on_c, 0, 49, 73
2, 231028, Note_on_c, 0, 101, 92
2, 231028, Note_on_c, 0, 37, 79
2, 231046, Control_c, 0, 64, 127
2, 231137, Note_off_c, 0, 101, 64
2, 231138, Note_on_c, 0, 99, 80
2, 231142, Note_off_c, 0, 49, 64
2, 231142, Note_on_c, 0, 43, 88
2, 231146, Note_off_c, 0, 37, 64
2, 231179, Note_on_c, 0, 97, 80
2, 231186, Note_off_c, 0, 43, 64
2, 231205, Note_off_c, 0, 99, 64
2, 231210, Note_on_c, 0, 92, 58
2, 231223, Note_on_c, 0, 44, 90
2, 231232, Note_off_c, 0, 97, 64
2, 231248, Note_on_c, 0, 89, 88
2, 231260, Note_off_c, 0, 44, 64
2, 231260, Note_off_c, 0, 92, 64
2, 231291, Note_off_c, 0, 89, 64
2, 231292, Note_on_c, 0, 87, 93
2, 231300, Note_on_c, 0, 44, 83
2, 231325, Note_on_c, 0, 85, 86
2, 231336, Note_off_c, 0, 87, 64
2, 231351, Note_off_c, 0, 44, 64
2, 231362, Note_on_c, 0, 80, 86
2, 231368, Note_on_c, 0, 42, 90
2, 231370, Note_on_c, 0, 54, 102
2, 231382, Note_off_c, 0, 85, 64
2, 231399, Note_on_c, 0, 77, 88
2, 231419, Note_off_c, 0, 80, 64
2, 231444, Note_on_c, 0, 75, 83
2, 231448, Note_on_c, 0, 53, 98
2, 231448, Note_on_c, 0, 41, 85
2, 231453, Note_off_c, 0, 77, 64
2, 231462, Note_off_c, 0, 42, 64
2, 231464, Note_off_c, 0, 54, 64
2, 231480, Note_off_c, 0, 41, 64
2, 231484, Note_on_c, 0, 73, 50
2, 231488, Note_off_c, 0, 53, 64
2, 231501, Note_off_c, 0, 75, 64
2, 231520, Note_on_c, 0, 68, 74
2, 231520, Note_on_c, 0, 41, 67
2, 231522, Note_on_c, 0, 53, 90
2, 231534, Note_off_c, 0, 73, 64
2, 231564, Note_off_c, 0, 53, 64
2, 231567, Note_off_c, 0, 41, 64
2, 231569, Note_off_c, 0, 68, 64
2, 231570, Note_on_c, 0, 65, 73
2, 231588, Note_on_c, 0, 43, 108
2, 231591, Note_on_c, 0, 63, 73
2, 231621, Note_off_c, 0, 65, 64
2, 231624, Note_on_c, 0, 61, 93
2, 231648, Note_off_c, 0, 63, 64
2, 231652, Note_on_c, 0, 44, 93
2, 231653, Note_on_c, 0, 56, 90
2, 231665, Note_off_c, 0, 43, 64
2, 231668, Note_off_c, 0, 61, 64
2, 231718, Note_off_c, 0, 56, 64
2, 231725, Note_off_c, 0, 44, 64
2, 231742, Note_on_c, 0, 45, 103
2, 231748, Note_on_c, 0, 65, 86
2, 231750, Note_on_c, 0, 69, 90
2, 231750, Note_on_c, 0, 57, 90
2, 231892, Note_on_c, 0, 44, 102
2, 231894, Note_on_c, 0, 56, 108
2, 231895, Note_off_c, 0, 57, 64
2, 231895, Note_off_c, 0, 69, 64
2, 231899, Note_on_c, 0, 68, 108
2, 231904, Note_off_c, 0, 45, 64
2, 231908, Note_off_c, 0, 65, 64
2, 231912, Note_off_c, 0, 44, 64
2, 231914, Note_off_c, 0, 56, 64
2, 231919, Note_off_c, 0, 68, 64
2, 231938, Control_c, 0, 64, 0
2, 231998, Note_on_c, 0, 49, 89
2, 231998, Note_on_c, 0, 37, 70
2, 232001, Note_on_c, 0, 101, 103
2, 232002, Control_c, 0, 64, 127
2, 232008, Note_on_c, 0, 89, 79
2, 232086, Note_on_c, 0, 43, 93
2, 232090, Note_on_c, 0, 99, 86
2, 232109, Note_off_c, 0, 37, 64
2, 232109, Note_off_c, 0, 49, 64
2, 232112, Note_off_c, 0, 101, 64
2, 232114, Note_off_c, 0, 89, 64
2, 232125, Note_on_c, 0, 97, 82
2, 232131, Note_off_c, 0, 43, 64
2, 232149, Note_off_c, 0, 99, 64
2, 232156, Note_on_c, 0, 92, 82
2, 232160, Note_on_c, 0, 44, 95
2, 232176, Note_off_c, 0, 97, 64
2, 232186, Note_on_c, 0, 89, 88
2, 232197, Note_off_c, 0, 44, 64
2, 232222, Note_off_c, 0, 92, 64
2, 232232, Note_on_c, 0, 44, 103
2, 232234, Note_on_c, 0, 87, 73
2, 232237, Note_off_c, 0, 89, 64
2, 232260, Note_on_c, 0, 85, 90
2, 232277, Note_off_c, 0, 44, 64
2, 232290, Note_off_c, 0, 87, 64
2, 232301, Note_on_c, 0, 54, 100
2, 232307, Note_on_c, 0, 80, 74
2, 232307, Note_on_c, 0, 42, 83
2, 232310, Note_off_c, 0, 85, 64
2, 232326, Note_on_c, 0, 77, 86
2, 232338, Note_off_c, 0, 42, 64
2, 232345, Note_off_c, 0, 54, 64
2, 232364, Note_off_c, 0, 80, 64
2, 232374, Note_on_c, 0, 53, 106
2, 232378, Note_off_c, 0, 77, 64
2, 232379, Note_on_c, 0, 75, 86
2, 232380, Note_on_c, 0, 41, 86
2, 232407, Note_off_c, 0, 41, 64
2, 232410, Note_off_c, 0, 53, 64
2, 232424, Note_on_c, 0, 73, 66
2, 232439, Note_off_c, 0, 75, 64
2, 232448, Note_on_c, 0, 41, 95
2, 232452, Note_on_c, 0, 68, 88
2, 232452, Note_on_c, 0, 53, 94
2, 232466, Note_off_c, 0, 73, 64
2, 232493, Note_off_c, 0, 41, 64
2, 232497, Note_off_c, 0, 53, 64
2, 232497, Note_on_c, 0, 65, 72
2, 232502, Control_c, 0, 64, 0
2, 232506, Note_off_c, 0, 68, 64
2, 232514, Note_on_c, 0, 43, 92
2, 232524, Note_on_c, 0, 63, 79
2, 232542, Control_c, 0, 64, 127
2, 232550, Note_off_c, 0, 65, 64
2, 232554, Note_on_c, 0, 61, 98
2, 232580, Note_off_c, 0, 63, 64
2, 232580, Note_on_c, 0, 56, 87
2, 232584, Note_on_c, 0, 44, 86
2, 232592, Note_off_c, 0, 43, 64
2, 232597, Note_off_c, 0, 61, 64
2, 232638, Control_c, 0, 64, 0
2, 232645, Note_off_c, 0, 56, 64
2, 232660, Note_off_c, 0, 44, 64
2, 232668, Note_on_c, 0, 69, 81
2, 232668, Note_on_c, 0, 65, 86
2, 232668, Note_on_c, 0, 45, 87
2, 232675, Note_on_c, 0, 57, 88
2, 232680, Control_c, 0, 64, 127
2, 232823, Note_off_c, 0, 45, 64
2, 232823, Note_off_c, 0, 69, 64
2, 232824, Note_on_c, 0, 56, 90
2, 232827, Note_on_c, 0, 44, 75
2, 232828, Note_off_c, 0, 65, 64
2, 232830, Note_off_c, 0, 57, 64
2, 232831, Note_on_c, 0, 68, 86
2, 232844, Note_off_c, 0, 56, 64
2, 232847, Note_off_c, 0, 44, 64
2, 232851, Note_off_c, 0, 68, 64
2, 232883, Control_c, 0, 64, 0
2, 232912, Note_on_c, 0, 65, 36
2, 232912, Note_on_c, 0, 49, 36
2, 232914, Note_on_c, 0, 68, 44
2, 232914, Note_on_c, 0, 37, 52
2, 232919, Note_on_c, 0, 56, 41
2, 232925, Control_c, 0, 64, 127
2, 232955, Note_off_c, 0, 49, 64
2, 232957, Note_off_c, 0, 37, 64
2, 232989, Note_on_c, 0, 43, 39
2, 232996, Note_off_c, 0, 65, 64
2, 232998, Note_off_c, 0, 68, 64
2, 233003, Note_off_c, 0, 56, 64
2, 233046, Note_off_c, 0, 43, 64
2, 233058, Note_on_c, 0, 44, 51
2, 233115, Note_off_c, 0, 44, 64
2, 233121, Note_on_c, 0, 69, 45
2, 233124, Note_on_c, 0, 57, 46
2, 233188, Note_on_c, 0, 42, 52
2, 233189, Note_on_c, 0, 54, 58
2, 233234, Control_c, 0, 64, 0
2, 233252, Note_off_c, 0, 69, 64
2, 233254, Note_on_c, 0, 56, 49
2, 233255, Note_off_c, 0, 57, 64
2, 233256, Note_on_c, 0, 53, 57
2, 233256, Note_on_c, 0, 41, 52
2, 233259, Note_on_c, 0, 68, 47
2, 233263, Note_off_c, 0, 42, 64
2, 233264, Note_off_c, 0, 54, 64
2, 233285, Control_c, 0, 64, 127
2, 233286, Note_off_c, 0, 41, 64
2, 233286, Note_off_c, 0, 53, 64
2, 233291, Note_off_c, 0, 56, 64
2, 233295, Note_off_c, 0, 68, 64
2, 233332, Note_on_c, 0, 68, 52
2, 233332, Note_on_c, 0, 65, 54
2, 233332, Note_on_c, 0, 56, 51
2, 233351, Note_on_c, 0, 37, 62
2, 233359, Note_on_c, 0, 49, 61
2, 233418, Note_on_c, 0, 43, 60
2, 233425, Note_off_c, 0, 37, 64
2, 233426, Note_off_c, 0, 56, 64
2, 233426, Note_off_c, 0, 65, 64
2, 233426, Note_off_c, 0, 68, 64
2, 233436, Note_off_c, 0, 49, 64
2, 233463, Note_off_c, 0, 43, 64
2, 233474, Note_on_c, 0, 44, 61
2, 233519, Note_off_c, 0, 44, 64
2, 233544, Note_on_c, 0, 69, 58
2, 233549, Note_on_c, 0, 57, 55
2, 233608, Note_on_c, 0, 54, 72
2, 233608, Note_on_c, 0, 42, 64
2, 233657, Control_c, 0, 64, 0
2, 233670, Note_on_c, 0, 68, 58
2, 233672, Note_on_c, 0, 56, 61
2, 233672, Note_on_c, 0, 53, 67
2, 233672, Note_on_c, 0, 41, 51
2, 233675, Note_off_c, 0, 69, 64
2, 233678, Note_off_c, 0, 42, 64
2, 233678, Note_off_c, 0, 54, 64
2, 233680, Note_off_c, 0, 57, 64
2, 233710, Note_off_c, 0, 68, 64
2, 233712, Note_off_c, 0, 41, 64
2, 233712, Note_off_c, 0, 53, 64
2, 233712, Note_off_c, 0, 56, 64
2, 233746, Control_c, 0, 64, 127
2, 233752, Note_on_c, 0, 65, 56
2, 233757, Note_on_c, 0, 68, 65
2, 233759, Note_on_c, 0, 56, 61
2, 233760, Note_on_c, 0, 49, 38
2, 233760, Note_on_c, 0, 37, 22
2, 233806, Note_off_c, 0, 37, 64
2, 233806, Note_off_c, 0, 49, 64
2, 233846, Note_on_c, 0, 43, 63
2, 233849, Note_off_c, 0, 65, 64
2, 233854, Note_off_c, 0, 56, 64
2, 233854, Note_off_c, 0, 68, 64
2, 233888, Note_off_c, 0, 43, 64
2, 233914, Note_on_c, 0, 44, 77
2, 233935, Control_c, 0, 64, 0
2, 233954, Control_c, 0, 64, 127
2, 233960, Note_off_c, 0, 44, 64
2, 233980, Note_on_c, 0, 57, 71
2, 233984, Note_on_c, 0, 69, 72
2, 234052, Note_on_c, 0, 54, 71
2, 234055, Note_on_c, 0, 42, 60
2, 234122, Note_off_c, 0, 57, 64
2, 234126, Note_off_c, 0, 69, 64
2, 234130, Note_on_c, 0, 68, 58
2, 234131, Note_on_c, 0, 41, 67
2, 234132, Note_off_c, 0, 54, 64
2, 234132, Note_on_c, 0, 53, 66
2, 234135, Note_off_c, 0, 42, 64
2, 234135, Note_on_c, 0, 56, 68
2, 234180, Note_off_c, 0, 68, 64
2, 234181, Note_off_c, 0, 41, 64
2, 234182, Note_off_c, 0, 53, 64
2, 234185, Note_off_c, 0, 56, 64
2, 234204, Note_on_c, 0, 37, 78
2, 234208, Note_on_c, 0, 65, 62
2, 234208, Note_on_c, 0, 44, 78
2, 234212, Note_on_c, 0, 69, 62
2, 234212, Note_on_c, 0, 57, 63
2, 234256, Note_off_c, 0, 37, 64
2, 234260, Note_off_c, 0, 44, 64
2, 234260, Note_off_c, 0, 65, 64
2, 234264, Note_off_c, 0, 57, 64
2, 234264, Note_off_c, 0, 69, 64
2, 234270, Note_on_c, 0, 43, 70
2, 234272, Note_on_c, 0, 65, 56
2, 234275, Note_on_c, 0, 68, 61
2, 234276, Note_on_c, 0, 56, 68
2, 234277, Note_on_c, 0, 37, 82
2, 234322, Note_off_c, 0, 43, 64
2, 234324, Note_off_c, 0, 65, 64
2, 234327, Note_off_c, 0, 68, 64
2, 234328, Note_off_c, 0, 56, 64
2, 234329, Note_off_c, 0, 37, 64
2, 234344, Note_on_c, 0, 65, 68
2, 234347, Note_on_c, 0, 69, 71
2, 234348, Note_on_c, 0, 37, 81
2, 234351, Note_on_c, 0, 57, 75
2, 234352, Note_on_c, 0, 45, 83
2, 234396, Note_off_c, 0, 65, 64
2, 234399, Note_off_c, 0, 69, 64
2, 234400, Note_off_c, 0, 37, 64
2, 234403, Note_off_c, 0, 57, 64
2, 234404, Note_off_c, 0, 45, 64
2, 234412, Note_on_c, 0, 65, 72
2, 234412, Note_on_c, 0, 56, 79
2, 234412, Note_on_c, 0, 44, 80
2, 234415, Note_on_c, 0, 68, 81
2, 234416, Note_on_c, 0, 37, 87
2, 234422, Control_c, 0, 64, 0
2, 234464, Note_off_c, 0, 44, 64
2, 234464, Note_off_c, 0, 56, 64
2, 234464, Note_off_c, 0, 65, 64
2, 234465, Control_c, 0, 64, 127
2, 234467, Note_off_c, 0, 68, 64
2, 234468, Note_off_c, 0, 37, 64
2, 234484, Note_on_c, 0, 69, 77
2, 234484, Note_on_c, 0, 65, 81
2, 234484, Note_on_c, 0, 57, 80
2, 234484, Note_on_c, 0, 45, 84
2, 234487, Note_on_c, 0, 37, 85
2, 234536, Note_off_c, 0, 45, 64
2, 234536, Note_off_c, 0, 57, 64
2, 234536, Note_off_c, 0, 65, 64
2, 234536, Note_off_c, 0, 69, 64
2, 234539, Note_off_c, 0, 37, 64
2, 234546, Note_on_c, 0, 68, 86
2, 234546, Note_on_c, 0, 44, 97
2, 234548, Note_on_c, 0, 65, 80
2, 234548, Note_on_c, 0, 56, 87
2, 234553, Note_on_c, 0, 37, 85
2, 234598, Note_off_c, 0, 44, 64
2, 234598, Note_off_c, 0, 68, 64
2, 234600, Note_off_c, 0, 56, 64
2, 234600, Note_off_c, 0, 65, 64
2, 234602, Control_c, 0, 64, 0
2, 234605, Note_off_c, 0, 37, 64
2, 234616, Note_on_c, 0, 65, 90
2, 234617, Note_on_c, 0, 69, 88
2, 234621, Note_on_c, 0, 57, 88
2, 234621, Note_on_c, 0, 45, 92
2, 234625, Note_on_c, 0, 36, 115
2, 234650, Control_c, 0, 64, 127
2, 234683, Note_off_c, 0, 65, 64
2, 234684, Note_off_c, 0, 69, 64
2, 234688, Note_off_c, 0, 45, 64
2, 234688, Note_off_c, 0, 57, 64
2, 234692, Note_off_c, 0, 36, 64
2, 234736, Control_c, 0, 64, 0
2, 234816, Note_on_c, 0, 70, 84
2, 234816, Note_on_c, 0, 60, 76
2, 234819, Note_on_c, 0, 72, 84
2, 234819, Note_on_c, 0, 64, 82
2, 234820, Control_c, 0, 64, 127
2, 234828, Note_on_c, 0, 48, 95
2, 234828, Note_on_c, 0, 43, 82
2, 234828, Note_on_c, 0, 36, 89
2, 234868, Note_off_c, 0, 60, 64
2, 234868, Note_off_c, 0, 70, 64
2, 234871, Note_off_c, 0, 64, 64
2, 234871, Note_off_c, 0, 72, 64
2, 234880, Note_off_c, 0, 36, 64
2, 234880, Note_off_c, 0, 43, 64
2, 234880, Note_off_c, 0, 48, 64
2, 234996, Control_c, 0, 64, 0
2, 235028, Note_on_c, 0, 77, 81
2, 235028, Note_on_c, 0, 69, 85
2, 235031, Note_on_c, 0, 81, 77
2, 235031, Note_on_c, 0, 72, 81
2, 235032, Note_on_c, 0, 53, 95
2, 235032, Note_on_c, 0, 48, 93
2, 235032, Note_on_c, 0, 41, 93
2, 235053, Control_c, 0, 64, 127
2, 235080, Note_off_c, 0, 69, 64
2, 235080, Note_off_c, 0, 77, 64
2, 235083, Note_off_c, 0, 72, 64
2, 235083, Note_off_c, 0, 81, 64
2, 235084, Note_off_c, 0, 41, 64
2, 235084, Note_off_c, 0, 48, 64
2, 235084, Note_off_c, 0, 53, 64
2, 235216, Control_c, 0, 64, 0
2, 235236, Note_on_c, 0, 56, 95
2, 235236, Note_on_c, 0, 51, 87
2, 235236, Note_on_c, 0, 44, 89
2, 235240, Note_on_c, 0, 78, 81
2, 235240, Note_on_c, 0, 72, 89
2, 235240, Note_on_c, 0, 68, 69
2, 235243, Note_on_c, 0, 80, 95
2, 235243, Note_on_c, 0, 75, 88
2, 235243, Note_on_c, 0, 66, 87
2, 235266, Control_c, 0, 64, 127
2, 235284, Note_off_c, 0, 56, 64
2, 235289, Note_off_c, 0, 44, 64
2, 235289, Note_off_c, 0, 51, 64
2, 235294, Note_off_c, 0, 68, 64
2, 235294, Note_off_c, 0, 72, 64
2, 235294, Note_off_c, 0, 78, 64
2, 235297, Note_off_c, 0, 66, 64
2, 235297, Note_off_c, 0, 75, 64
2, 235297, Note_off_c, 0, 80, 64
2, 235452, Control_c, 0, 64, 0
2, 235464, Note_on_c, 0, 49, 86
2, 235468, Note_on_c, 0, 77, 91
2, 235468, Note_on_c, 0, 73, 91
2, 235468, Note_on_c, 0, 68, 90
2, 235468, Note_on_c, 0, 65, 92
2, 235468, Note_on_c, 0, 56, 86
2, 235475, Note_on_c, 0, 61, 95
2, 235499, Control_c, 0, 64, 127
2, 235590, Note_off_c, 0, 49, 64
2, 235594, Note_off_c, 0, 56, 64
2, 235594, Note_off_c, 0, 65, 64
2, 235594, Note_off_c, 0, 68, 64
2, 235594, Note_off_c, 0, 73, 64
2, 235594, Note_off_c, 0, 77, 64
2, 235601, Note_off_c, 0, 61, 64
2, 235865, Control_c, 0, 64, 0
2, 235878, Note_on_c, 0, 37, 93
2, 235880, Note_on_c, 0, 61, 91
2, 235880, Note_on_c, 0, 49, 105
2, 235880, Note_on_c, 0, 44, 93
2, 235881, Note_on_c, 0, 65, 93
2, 235881, Note_on_c, 0, 56, 91
2, 235882, Note_on_c, 0, 53, 90
2, 235913, Control_c, 0, 64, 127
2, 236004, Note_off_c, 0, 37, 64
2, 236006, Note_off_c, 0, 44, 64
2, 236006, Note_off_c, 0, 49, 64
2, 236006, Note_off_c, 0, 61, 64
2, 236007, Note_off_c, 0, 56, 64
2, 236007, Note_off_c, 0, 65, 64
2, 236008, Note_off_c, 0, 53, 64
2, 236260, Note_on_c, 0, 65, 73
2, 236260, Note_on_c, 0, 56, 91
2, 236260, Note_on_c, 0, 49, 73
2, 236262, Note_on_c, 0, 61, 77
2, 236263, Note_on_c, 0, 73, 90
2, 236263, Note_on_c, 0, 68, 86
2, 236283, Note_off_c, 0, 49, 64
2, 236283, Note_off_c, 0, 56, 64
2, 236283, Note_off_c, 0, 65, 64
2, 236285, Note_off_c, 0, 61, 64
2, 236286, Note_off_c, 0, 68, 64
2, 236286, Note_off_c, 0, 73, 64
2, 236357, Note_on_c, 0, 101, 101
2, 236357, Note_on_c, 0, 25, 78
2, 236358, Note_on_c, 0, 37, 92
2, 236857, Note_off_c, 0, 37, 64
2, 236860, Note_off_c, 0, 25, 64
2, 236862, Note_off_c, 0, 101, 64
2, 237913, Control_c, 0, 64, 0
2, 237913, End_track
3, 0, Start_track
3, 0, Title_t, "Scherzo No. 2, Op. 31"
3, 0, End_track
4, 0, Start_track
4, 0, End_track
5, 0, Start_track
5, 0, Title_t, "Realtime sequence 7/97 by"
5, 0, End_track
6, 0, Start_track
6, 0, Title_t, "Ron Lubetsky, M.D."
6, 0, End_track
7, 0, Start_track
7, 0, Title_t, "Copyright \251 July 1997 by"
7, 0, End_track
8, 0, Start_track
8, 0, Title_t, "Ron Lubetsky, M.D."
8, 0, End_track
9, 0, Start_track
9, 0, Title_t, "All rights reserved."
9, 0, End_track
10, 0, Start_track
10, 0, End_track
11, 0, Start_track
11, 0, Title_t, "Email: acuity2020@aol.com"
11, 0, End_track
12, 0, Start_track
12, 0, Title_t, "Website: "
12, 0, End_track
13, 0, Start_track
13, 0, Title_t, "'The Classical MIDI Resource'"
13, 0, End_track
14, 0, Start_track
14, 0, Title_t, "http://acuity2020.simplenet."
14, 0, End_track
15, 0, Start_track
15, 0, Title_t, "com/midi/resource.htm"
15, 0, End_track
0, 0, End_of_file