0, 0, Header, 1, 4, 120
1, 0, Start_track
1, 0, Time_signature, 4, 2, 24, 8
1, 0, Key_signature, 0, "major"
1, 0, Tempo, 571429
1, 1230, Tempo, 582524
1, 14372, Tempo, 600000
1, 14691, Tempo, 582524
1, 17428, Tempo, 625000
1, 17569, Tempo, 588235
1, 17569, End_track
2, 0, Start_track
2, 0, MIDI_port, 0
2, 0, Title_t, "Impromptu Op 51"
2, 0, Program_c, 0, 0
2, 0, Control_c, 0, 7, 127
2, 0, Control_c, 0, 10, 64
2, 173, Control_c, 0, 91, 114
2, 173, Note_on_c, 0, 49, 62
2, 221, Note_on_c, 0, 51, 68
2, 224, Note_on_c, 0, 49, 0
2, 259, Note_on_c, 0, 49, 68
2, 261, Note_on_c, 0, 51, 0
2, 294, Note_on_c, 0, 49, 0
2, 297, Note_on_c, 0, 48, 79
2, 334, Note_on_c, 0, 49, 82
2, 341, Note_on_c, 0, 48, 0
2, 369, Note_on_c, 0, 49, 0
2, 376, Note_on_c, 0, 58, 75
2, 416, Note_on_c, 0, 56, 73
2, 420, Note_on_c, 0, 58, 0
2, 454, Note_on_c, 0, 54, 76
2, 456, Note_on_c, 0, 56, 0
2, 488, Note_on_c, 0, 54, 0
2, 493, Note_on_c, 0, 53, 82
2, 534, Note_on_c, 0, 53, 0
2, 536, Note_on_c, 0, 63, 78
2, 573, Note_on_c, 0, 63, 0
2, 576, Note_on_c, 0, 61, 72
2, 612, Note_on_c, 0, 61, 0
2, 613, Note_on_c, 0, 60, 78
2, 654, Note_on_c, 0, 60, 0
2, 656, Note_on_c, 0, 59, 82
2, 691, Note_on_c, 0, 59, 0
2, 694, Note_on_c, 0, 61, 77
2, 730, Note_on_c, 0, 61, 0
2, 733, Note_on_c, 0, 59, 76
2, 776, Note_on_c, 0, 59, 0
2, 776, Note_on_c, 0, 58, 79
2, 810, Note_on_c, 0, 58, 0
2, 815, Note_on_c, 0, 59, 72
2, 850, Note_on_c, 0, 59, 0
2, 862, Note_on_c, 0, 70, 74
2, 906, Note_on_c, 0, 70, 0
2, 906, Note_on_c, 0, 68, 75
2, 948, Note_on_c, 0, 68, 0
2, 949, Note_on_c, 0, 66, 73
2, 989, Note_on_c, 0, 66, 0
2, 995, Note_on_c, 0, 65, 70
2, 1044, Note_on_c, 0, 75, 70
2, 1047, Note_on_c, 0, 65, 0
2, 1096, Note_on_c, 0, 75, 0
2, 1096, Note_on_c, 0, 73, 69
2, 1150, Note_on_c, 0, 73, 0
2, 1156, Note_on_c, 0, 69, 50
2, 1229, Note_on_c, 0, 69, 0
2, 1230, Note_on_c, 0, 70, 66
2, 1235, Note_on_c, 0, 30, 46
2, 1264, Control_c, 0, 64, 72
2, 1268, Control_c, 0, 64, 127
2, 1270, Note_on_c, 0, 30, 0
2, 1280, Note_on_c, 0, 70, 0
2, 1286, Note_on_c, 0, 71, 65
2, 1319, Note_on_c, 0, 71, 0
2, 1328, Note_on_c, 0, 72, 85
2, 1372, Note_on_c, 0, 72, 0
2, 1372, Note_on_c, 0, 75, 82
2, 1372, Note_on_c, 0, 66, 50
2, 1401, Note_on_c, 0, 66, 0
2, 1401, Note_on_c, 0, 75, 0
2, 1411, Note_on_c, 0, 58, 46
2, 1414, Note_on_c, 0, 73, 86
2, 1436, Note_on_c, 0, 58, 0
2, 1442, Note_on_c, 0, 73, 0
2, 1450, Note_on_c, 0, 82, 84
2, 1454, Note_on_c, 0, 49, 43
2, 1484, Note_on_c, 0, 82, 0
2, 1488, Note_on_c, 0, 49, 0
2, 1493, Control_c, 0, 64, 104
2, 1495, Note_on_c, 0, 83, 86
2, 1497, Control_c, 0, 64, 24
2, 1500, Note_on_c, 0, 54, 48
2, 1502, Control_c, 0, 64, 0
2, 1520, Note_on_c, 0, 83, 0
2, 1526, Control_c, 0, 64, 56
2, 1530, Control_c, 0, 64, 127
2, 1537, Note_on_c, 0, 82, 79
2, 1541, Note_on_c, 0, 54, 0
2, 1544, Note_on_c, 0, 66, 58
2, 1570, Note_on_c, 0, 66, 0
2, 1572, Note_on_c, 0, 82, 0
2, 1576, Note_on_c, 0, 77, 92
2, 1584, Note_on_c, 0, 58, 46
2, 1603, Note_on_c, 0, 77, 0
2, 1609, Note_on_c, 0, 58, 0
2, 1618, Note_on_c, 0, 78, 88
2, 1621, Note_on_c, 0, 66, 43
2, 1640, Note_on_c, 0, 66, 0
2, 1646, Note_on_c, 0, 78, 0
2, 1656, Note_on_c, 0, 58, 46
2, 1656, Note_on_c, 0, 75, 89
2, 1682, Note_on_c, 0, 58, 0
2, 1685, Note_on_c, 0, 75, 0
2, 1696, Note_on_c, 0, 78, 95
2, 1702, Note_on_c, 0, 49, 47
2, 1740, Note_on_c, 0, 78, 0
2, 1750, Note_on_c, 0, 77, 88
2, 1752, Control_c, 0, 64, 88
2, 1756, Note_on_c, 0, 49, 0
2, 1756, Control_c, 0, 64, 24
2, 1758, Note_on_c, 0, 56, 52
2, 1760, Control_c, 0, 64, 0
2, 1788, Control_c, 0, 64, 56
2, 1792, Note_on_c, 0, 77, 0
2, 1792, Control_c, 0, 64, 127
2, 1798, Note_on_c, 0, 56, 0
2, 1801, Note_on_c, 0, 68, 62
2, 1806, Note_on_c, 0, 65, 57
2, 1825, Note_on_c, 0, 68, 0
2, 1829, Note_on_c, 0, 65, 0
2, 1842, Note_on_c, 0, 71, 70
2, 1855, Note_on_c, 0, 59, 36
2, 1866, Note_on_c, 0, 71, 0
2, 1872, Note_on_c, 0, 59, 0
2, 1880, Note_on_c, 0, 73, 77
2, 1882, Note_on_c, 0, 65, 58
2, 1897, Note_on_c, 0, 65, 0
2, 1915, Note_on_c, 0, 73, 0
2, 1915, Note_on_c, 0, 59, 50
2, 1919, Note_on_c, 0, 77, 89
2, 1934, Note_on_c, 0, 59, 0
2, 1945, Note_on_c, 0, 77, 0
2, 1955, Note_on_c, 0, 49, 49
2, 1956, Note_on_c, 0, 75, 85
2, 1979, Note_on_c, 0, 75, 0
2, 1985, Note_on_c, 0, 77, 79
2, 1990, Note_on_c, 0, 49, 0
2, 1994, Control_c, 0, 64, 104
2, 1998, Control_c, 0, 64, 56
2, 2001, Note_on_c, 0, 75, 81
2, 2002, Control_c, 0, 64, 0
2, 2006, Note_on_c, 0, 56, 43
2, 2009, Note_on_c, 0, 77, 0
2, 2030, Control_c, 0, 64, 88
2, 2033, Note_on_c, 0, 75, 0
2, 2034, Control_c, 0, 64, 127
2, 2037, Note_on_c, 0, 74, 88
2, 2048, Note_on_c, 0, 65, 44
2, 2050, Note_on_c, 0, 56, 0
2, 2062, Note_on_c, 0, 74, 0
2, 2065, Note_on_c, 0, 65, 0
2, 2076, Note_on_c, 0, 68, 69
2, 2087, Note_on_c, 0, 59, 45
2, 2108, Note_on_c, 0, 68, 0
2, 2112, Note_on_c, 0, 59, 0
2, 2118, Note_on_c, 0, 70, 81
2, 2124, Note_on_c, 0, 65, 44
2, 2137, Note_on_c, 0, 65, 0
2, 2142, Note_on_c, 0, 70, 0
2, 2155, Note_on_c, 0, 59, 62
2, 2158, Note_on_c, 0, 73, 79
2, 2179, Note_on_c, 0, 59, 0
2, 2186, Note_on_c, 0, 73, 0
2, 2199, Note_on_c, 0, 72, 88
2, 2202, Note_on_c, 0, 50, 62
2, 2229, Note_on_c, 0, 72, 0
2, 2240, Control_c, 0, 64, 104
2, 2242, Note_on_c, 0, 50, 0
2, 2244, Control_c, 0, 64, 88
2, 2247, Note_on_c, 0, 71, 77
2, 2248, Control_c, 0, 64, 72
2, 2252, Control_c, 0, 64, 40
2, 2253, Note_on_c, 0, 51, 58
2, 2256, Control_c, 0, 64, 0
2, 2290, Note_on_c, 0, 51, 0
2, 2292, Note_on_c, 0, 71, 0
2, 2292, Control_c, 0, 64, 88
2, 2294, Note_on_c, 0, 66, 72
2, 2296, Control_c, 0, 64, 127
2, 2302, Note_on_c, 0, 63, 58
2, 2324, Note_on_c, 0, 63, 0
2, 2325, Note_on_c, 0, 66, 0
2, 2336, Note_on_c, 0, 68, 81
2, 2343, Note_on_c, 0, 54, 61
2, 2364, Note_on_c, 0, 54, 0
2, 2366, Note_on_c, 0, 68, 0
2, 2374, Note_on_c, 0, 69, 88
2, 2377, Note_on_c, 0, 63, 52
2, 2397, Note_on_c, 0, 63, 0
2, 2408, Note_on_c, 0, 69, 0
2, 2412, Note_on_c, 0, 70, 88
2, 2414, Note_on_c, 0, 54, 47
2, 2445, Note_on_c, 0, 70, 0
2, 2449, Note_on_c, 0, 54, 0
2, 2456, Note_on_c, 0, 78, 89
2, 2459, Note_on_c, 0, 46, 49
2, 2461, Control_c, 0, 64, 56
2, 2466, Control_c, 0, 64, 0
2, 2488, Note_on_c, 0, 78, 0
2, 2490, Control_c, 0, 64, 40
2, 2494, Note_on_c, 0, 46, 0
2, 2494, Control_c, 0, 64, 104
2, 2498, Control_c, 0, 64, 127
2, 2499, Note_on_c, 0, 77, 95
2, 2500, Note_on_c, 0, 51, 61
2, 2529, Note_on_c, 0, 51, 0
2, 2534, Note_on_c, 0, 77, 0
2, 2540, Note_on_c, 0, 76, 96
2, 2540, Note_on_c, 0, 63, 61
2, 2568, Note_on_c, 0, 63, 0
2, 2572, Note_on_c, 0, 76, 0
2, 2576, Note_on_c, 0, 75, 92
2, 2581, Note_on_c, 0, 54, 52
2, 2607, Note_on_c, 0, 54, 0
2, 2611, Note_on_c, 0, 75, 0
2, 2617, Note_on_c, 0, 74, 76
2, 2618, Note_on_c, 0, 63, 59
2, 2638, Note_on_c, 0, 63, 0
2, 2642, Note_on_c, 0, 74, 0
2, 2654, Note_on_c, 0, 54, 46
2, 2655, Note_on_c, 0, 75, 82
2, 2682, Note_on_c, 0, 75, 0
2, 2683, Note_on_c, 0, 54, 0
2, 2695, Note_on_c, 0, 71, 78
2, 2701, Note_on_c, 0, 46, 49
2, 2714, Note_on_c, 0, 71, 0
2, 2723, Note_on_c, 0, 73, 66
2, 2728, Control_c, 0, 64, 88
2, 2732, Control_c, 0, 64, 24
2, 2736, Control_c, 0, 64, 0
2, 2737, Note_on_c, 0, 46, 0
2, 2739, Note_on_c, 0, 71, 87
2, 2741, Note_on_c, 0, 53, 64
2, 2749, Note_on_c, 0, 73, 0
2, 2768, Control_c, 0, 64, 88
2, 2772, Note_on_c, 0, 71, 0
2, 2772, Control_c, 0, 64, 127
2, 2776, Note_on_c, 0, 53, 0
2, 2782, Note_on_c, 0, 65, 73
2, 2784, Note_on_c, 0, 62, 52
2, 2799, Note_on_c, 0, 62, 0
2, 2812, Note_on_c, 0, 65, 0
2, 2824, Note_on_c, 0, 68, 82
2, 2826, Note_on_c, 0, 56, 48
2, 2847, Note_on_c, 0, 68, 0
2, 2853, Note_on_c, 0, 56, 0
2, 2863, Note_on_c, 0, 70, 74
2, 2865, Note_on_c, 0, 62, 45
2, 2884, Note_on_c, 0, 62, 0
2, 2898, Note_on_c, 0, 70, 0
2, 2898, Note_on_c, 0, 56, 57
2, 2902, Note_on_c, 0, 73, 78
2, 2929, Note_on_c, 0, 73, 0
2, 2929, Note_on_c, 0, 56, 0
2, 2945, Note_on_c, 0, 46, 47
2, 2946, Note_on_c, 0, 72, 84
2, 2975, Note_on_c, 0, 72, 0
2, 2979, Note_on_c, 0, 46, 0
2, 2990, Note_on_c, 0, 71, 73
2, 2994, Note_on_c, 0, 53, 48
2, 2998, Control_c, 0, 64, 104
2, 3002, Control_c, 0, 64, 56
2, 3006, Control_c, 0, 64, 0
2, 3029, Control_c, 0, 64, 40
2, 3032, Note_on_c, 0, 71, 0
2, 3033, Control_c, 0, 64, 127
2, 3037, Note_on_c, 0, 65, 69
2, 3039, Note_on_c, 0, 62, 39
2, 3059, Note_on_c, 0, 62, 0
2, 3066, Note_on_c, 0, 65, 0
2, 3074, Note_on_c, 0, 53, 0
2, 3080, Note_on_c, 0, 56, 51
2, 3082, Note_on_c, 0, 69, 75
2, 3109, Note_on_c, 0, 69, 0
2, 3118, Note_on_c, 0, 56, 0
2, 3124, Note_on_c, 0, 70, 70
2, 3128, Note_on_c, 0, 62, 47
2, 3148, Note_on_c, 0, 62, 0
2, 3155, Note_on_c, 0, 70, 0
2, 3167, Note_on_c, 0, 56, 49
2, 3167, Note_on_c, 0, 71, 75
2, 3198, Note_on_c, 0, 71, 0
2, 3202, Note_on_c, 0, 56, 0
2, 3214, Note_on_c, 0, 68, 72
2, 3218, Note_on_c, 0, 46, 41
2, 3237, Note_on_c, 0, 68, 0
2, 3281, Note_on_c, 0, 66, 78
2, 3284, Note_on_c, 0, 46, 0
2, 3289, Note_on_c, 0, 51, 51
2, 3292, Control_c, 0, 64, 56
2, 3296, Control_c, 0, 64, 0
2, 3324, Control_c, 0, 64, 56
2, 3326, Note_on_c, 0, 51, 0
2, 3329, Control_c, 0, 64, 104
2, 3333, Note_on_c, 0, 63, 64
2, 3333, Note_on_c, 0, 58, 43
2, 3333, Control_c, 0, 64, 127
2, 3370, Note_on_c, 0, 63, 0
2, 3372, Note_on_c, 0, 51, 43
2, 3378, Note_on_c, 0, 61, 59
2, 3401, Note_on_c, 0, 51, 0
2, 3413, Control_c, 0, 64, 88
2, 3415, Note_on_c, 0, 61, 0
2, 3417, Control_c, 0, 64, 24
2, 3421, Note_on_c, 0, 58, 42
2, 3422, Control_c, 0, 64, 0
2, 3422, Note_on_c, 0, 60, 75
2, 3432, Note_on_c, 0, 44, 52
2, 3434, Control_c, 0, 64, 72
2, 3438, Control_c, 0, 64, 127
2, 3440, Note_on_c, 0, 58, 0
2, 3451, Note_on_c, 0, 66, 0
2, 3453, Note_on_c, 0, 58, 0
2, 3463, Note_on_c, 0, 44, 0
2, 3467, Note_on_c, 0, 65, 84
2, 3467, Note_on_c, 0, 56, 50
2, 3496, Note_on_c, 0, 56, 0
2, 3498, Note_on_c, 0, 60, 0
2, 3503, Note_on_c, 0, 65, 0
2, 3508, Note_on_c, 0, 51, 68
2, 3510, Note_on_c, 0, 66, 89
2, 3526, Note_on_c, 0, 51, 0
2, 3538, Note_on_c, 0, 66, 0
2, 3558, Control_c, 0, 64, 104
2, 3562, Control_c, 0, 64, 24
2, 3563, Note_on_c, 0, 70, 89
2, 3566, Control_c, 0, 64, 0
2, 3567, Note_on_c, 0, 54, 49
2, 3568, Note_on_c, 0, 59, 69
2, 3568, Note_on_c, 0, 49, 53
2, 3595, Control_c, 0, 64, 24
2, 3599, Control_c, 0, 64, 56
2, 3603, Control_c, 0, 64, 88
2, 3607, Control_c, 0, 64, 104
2, 3608, Note_on_c, 0, 54, 0
2, 3610, Control_c, 0, 64, 127
2, 3612, Note_on_c, 0, 68, 81
2, 3618, Note_on_c, 0, 53, 54
2, 3626, Note_on_c, 0, 70, 0
2, 3643, Note_on_c, 0, 53, 0
2, 3645, Note_on_c, 0, 68, 0
2, 3655, Note_on_c, 0, 63, 79
2, 3659, Note_on_c, 0, 54, 52
2, 3688, Note_on_c, 0, 54, 0
2, 3690, Note_on_c, 0, 63, 0
2, 3702, Note_on_c, 0, 61, 74
2, 3704, Control_c, 0, 64, 104
2, 3705, Note_on_c, 0, 56, 36
2, 3707, Control_c, 0, 64, 72
2, 3711, Control_c, 0, 64, 0
2, 3738, Note_on_c, 0, 61, 0
2, 3742, Note_on_c, 0, 65, 69
2, 3754, Note_on_c, 0, 63, 78
2, 3759, Note_on_c, 0, 59, 0
2, 3762, Note_on_c, 0, 65, 0
2, 3768, Control_c, 0, 64, 24
2, 3772, Control_c, 0, 64, 56
2, 3773, Note_on_c, 0, 56, 0
2, 3775, Note_on_c, 0, 49, 0
2, 3776, Control_c, 0, 64, 88
2, 3780, Control_c, 0, 64, 127
2, 3784, Note_on_c, 0, 63, 0
2, 3797, Note_on_c, 0, 61, 70
2, 3819, Note_on_c, 0, 61, 0
2, 3831, Note_on_c, 0, 58, 66
2, 3841, Control_c, 0, 64, 56
2, 3845, Control_c, 0, 64, 0
2, 3856, Note_on_c, 0, 42, 51
2, 3864, Note_on_c, 0, 70, 89
2, 3866, Note_on_c, 0, 58, 0
2, 3873, Control_c, 0, 64, 104
2, 3874, Note_on_c, 0, 42, 0
2, 3877, Control_c, 0, 64, 127
2, 3910, Note_on_c, 0, 61, 74
2, 3916, Note_on_c, 0, 58, 49
2, 3916, Note_on_c, 0, 54, 46
2, 3924, Note_on_c, 0, 54, 0
2, 3924, Note_on_c, 0, 58, 0
2, 3925, Note_on_c, 0, 61, 0
2, 3954, Note_on_c, 0, 62, 79
2, 3954, Note_on_c, 0, 54, 56
2, 3954, Note_on_c, 0, 58, 51
2, 3968, Note_on_c, 0, 62, 0
2, 3974, Note_on_c, 0, 58, 0
2, 3980, Note_on_c, 0, 54, 0
2, 3990, Control_c, 0, 64, 56
2, 3994, Control_c, 0, 64, 0
2, 3994, Note_on_c, 0, 63, 84
2, 3996, Note_on_c, 0, 54, 41
2, 3998, Note_on_c, 0, 58, 62
2, 4014, Control_c, 0, 64, 127
2, 4015, Note_on_c, 0, 63, 0
2, 4020, Note_on_c, 0, 70, 0
2, 4028, Note_on_c, 0, 54, 0
2, 4028, Note_on_c, 0, 58, 0
2, 4038, Note_on_c, 0, 69, 99
2, 4067, Note_on_c, 0, 69, 0
2, 4083, Note_on_c, 0, 70, 100
2, 4123, Control_c, 0, 64, 24
2, 4127, Control_c, 0, 64, 0
2, 4133, Note_on_c, 0, 70, 0
2, 4138, Note_on_c, 0, 41, 64
2, 4143, Note_on_c, 0, 73, 94
2, 4152, Control_c, 0, 64, 72
2, 4156, Control_c, 0, 64, 127
2, 4160, Note_on_c, 0, 41, 0
2, 4176, Note_on_c, 0, 73, 0
2, 4191, Note_on_c, 0, 72, 88
2, 4194, Note_on_c, 0, 63, 55
2, 4204, Note_on_c, 0, 57, 50
2, 4204, Note_on_c, 0, 53, 52
2, 4210, Note_on_c, 0, 63, 0
2, 4213, Note_on_c, 0, 53, 0
2, 4213, Note_on_c, 0, 57, 0
2, 4222, Note_on_c, 0, 72, 0
2, 4234, Note_on_c, 0, 66, 83
2, 4238, Note_on_c, 0, 58, 48
2, 4239, Note_on_c, 0, 63, 45
2, 4239, Note_on_c, 0, 53, 38
2, 4250, Note_on_c, 0, 63, 0
2, 4255, Note_on_c, 0, 58, 0
2, 4258, Note_on_c, 0, 53, 0
2, 4266, Note_on_c, 0, 66, 0
2, 4276, Control_c, 0, 64, 104
2, 4278, Note_on_c, 0, 65, 86
2, 4280, Control_c, 0, 64, 24
2, 4284, Control_c, 0, 64, 0
2, 4285, Note_on_c, 0, 60, 60
2, 4286, Note_on_c, 0, 63, 62
2, 4286, Note_on_c, 0, 53, 44
2, 4310, Note_on_c, 0, 68, 60
2, 4317, Note_on_c, 0, 65, 0
2, 4317, Control_c, 0, 64, 24
2, 4321, Control_c, 0, 64, 72
2, 4325, Control_c, 0, 64, 127
2, 4326, Note_on_c, 0, 66, 92
2, 4330, Note_on_c, 0, 68, 0
2, 4338, Note_on_c, 0, 53, 0
2, 4338, Note_on_c, 0, 60, 0
2, 4338, Note_on_c, 0, 63, 0
2, 4359, Note_on_c, 0, 66, 0
2, 4369, Note_on_c, 0, 65, 89
2, 4396, Note_on_c, 0, 65, 0
2, 4410, Control_c, 0, 64, 88
2, 4414, Control_c, 0, 64, 0
2, 4418, Note_on_c, 0, 46, 69
2, 4420, Note_on_c, 0, 73, 98
2, 4432, Note_on_c, 0, 46, 0
2, 4438, Control_c, 0, 64, 40
2, 4442, Control_c, 0, 64, 127
2, 4468, Note_on_c, 0, 65, 66
2, 4468, Note_on_c, 0, 61, 55
2, 4470, Note_on_c, 0, 58, 46
2, 4475, Note_on_c, 0, 65, 0
2, 4481, Note_on_c, 0, 58, 0
2, 4485, Note_on_c, 0, 61, 0
2, 4511, Note_on_c, 0, 66, 74
2, 4511, Note_on_c, 0, 61, 63
2, 4512, Note_on_c, 0, 58, 38
2, 4522, Note_on_c, 0, 58, 0
2, 4529, Note_on_c, 0, 66, 0
2, 4530, Note_on_c, 0, 73, 0
2, 4532, Note_on_c, 0, 61, 0
2, 4555, Note_on_c, 0, 61, 58
2, 4556, Note_on_c, 0, 67, 84
2, 4558, Note_on_c, 0, 57, 47
2, 4559, Control_c, 0, 64, 40
2, 4563, Control_c, 0, 64, 0
2, 4579, Control_c, 0, 64, 24
2, 4582, Note_on_c, 0, 57, 0
2, 4583, Control_c, 0, 64, 88
2, 4587, Control_c, 0, 64, 127
2, 4597, Note_on_c, 0, 67, 0
2, 4599, Note_on_c, 0, 75, 95
2, 4605, Note_on_c, 0, 61, 0
2, 4626, Note_on_c, 0, 75, 0
2, 4642, Note_on_c, 0, 76, 96
2, 4675, Note_on_c, 0, 56, 60
2, 4677, Note_on_c, 0, 61, 49
2, 4679, Note_on_c, 0, 76, 0
2, 4684, Control_c, 0, 64, 56
2, 4688, Control_c, 0, 64, 0
2, 4691, Note_on_c, 0, 77, 104
2, 4696, Note_on_c, 0, 68, 70
2, 4708, Control_c, 0, 64, 88
2, 4712, Control_c, 0, 64, 127
2, 4717, Note_on_c, 0, 68, 0
2, 4725, Note_on_c, 0, 56, 0
2, 4729, Note_on_c, 0, 77, 0
2, 4735, Note_on_c, 0, 61, 0
2, 4740, Note_on_c, 0, 78, 92
2, 4778, Note_on_c, 0, 78, 0
2, 4781, Note_on_c, 0, 80, 99
2, 4800, Note_on_c, 0, 80, 0
2, 4804, Note_on_c, 0, 55, 57
2, 4812, Note_on_c, 0, 55, 0
2, 4813, Note_on_c, 0, 61, 61
2, 4813, Control_c, 0, 64, 72
2, 4817, Control_c, 0, 64, 0
2, 4825, Note_on_c, 0, 64, 63
2, 4829, Control_c, 0, 64, 40
2, 4833, Control_c, 0, 64, 127
2, 4834, Note_on_c, 0, 70, 67
2, 4834, Note_on_c, 0, 82, 92
2, 4847, Note_on_c, 0, 61, 0
2, 4851, Note_on_c, 0, 64, 0
2, 4868, Note_on_c, 0, 70, 0
2, 4868, Note_on_c, 0, 82, 0
2, 4882, Note_on_c, 0, 84, 97
2, 4918, Note_on_c, 0, 84, 0
2, 4932, Note_on_c, 0, 85, 89
2, 4950, Note_on_c, 0, 85, 0
2, 4990, Note_on_c, 0, 32, 42
2, 4990, Control_c, 0, 64, 24
2, 4994, Control_c, 0, 64, 0
2, 5004, Note_on_c, 0, 68, 87
2, 5007, Control_c, 0, 64, 24
2, 5010, Control_c, 0, 64, 104
2, 5015, Control_c, 0, 64, 127
2, 5022, Note_on_c, 0, 32, 0
2, 5060, Note_on_c, 0, 66, 60
2, 5060, Note_on_c, 0, 61, 54
2, 5060, Note_on_c, 0, 56, 54
2, 5072, Note_on_c, 0, 56, 0
2, 5072, Note_on_c, 0, 61, 0
2, 5074, Note_on_c, 0, 66, 0
2, 5109, Note_on_c, 0, 66, 58
2, 5110, Note_on_c, 0, 61, 54
2, 5110, Note_on_c, 0, 56, 52
2, 5126, Note_on_c, 0, 66, 0
2, 5130, Note_on_c, 0, 61, 0
2, 5142, Note_on_c, 0, 56, 0
2, 5168, Note_on_c, 0, 78, 85
2, 5168, Note_on_c, 0, 56, 48
2, 5170, Note_on_c, 0, 66, 45
2, 5172, Control_c, 0, 64, 104
2, 5173, Note_on_c, 0, 60, 47
2, 5176, Control_c, 0, 64, 0
2, 5199, Control_c, 0, 64, 104
2, 5203, Control_c, 0, 64, 127
2, 5219, Note_on_c, 0, 78, 0
2, 5228, Note_on_c, 0, 75, 87
2, 5247, Note_on_c, 0, 60, 0
2, 5258, Note_on_c, 0, 56, 0
2, 5259, Note_on_c, 0, 66, 0
2, 5267, Note_on_c, 0, 75, 0
2, 5273, Note_on_c, 0, 77, 90
2, 5317, Control_c, 0, 64, 24
2, 5321, Note_on_c, 0, 49, 32
2, 5321, Control_c, 0, 64, 0
2, 5322, Note_on_c, 0, 77, 0
2, 5323, Note_on_c, 0, 73, 83
2, 5329, Control_c, 0, 64, 24
2, 5332, Note_on_c, 0, 49, 0
2, 5333, Control_c, 0, 64, 88
2, 5337, Control_c, 0, 64, 127
2, 5343, Note_on_c, 0, 68, 0
2, 5358, Note_on_c, 0, 73, 0
2, 5370, Note_on_c, 0, 65, 45
2, 5373, Note_on_c, 0, 75, 81
2, 5374, Note_on_c, 0, 59, 48
2, 5385, Note_on_c, 0, 65, 0
2, 5406, Note_on_c, 0, 59, 0
2, 5408, Note_on_c, 0, 75, 0
2, 5424, Note_on_c, 0, 70, 66
2, 5428, Note_on_c, 0, 49, 44
2, 5435, Note_on_c, 0, 49, 0
2, 5455, Note_on_c, 0, 70, 0
2, 5484, Note_on_c, 0, 71, 67
2, 5486, Note_on_c, 0, 65, 47
2, 5488, Note_on_c, 0, 59, 40
2, 5507, Control_c, 0, 64, 24
2, 5511, Control_c, 0, 64, 0
2, 5538, Note_on_c, 0, 71, 0
2, 5539, Control_c, 0, 64, 127
2, 5548, Note_on_c, 0, 73, 71
2, 5556, Note_on_c, 0, 65, 0
2, 5562, Note_on_c, 0, 59, 0
2, 5608, Note_on_c, 0, 73, 0
2, 5613, Note_on_c, 0, 68, 60
2, 5657, Note_on_c, 0, 68, 0
2, 5683, Note_on_c, 0, 70, 66
2, 5690, Note_on_c, 0, 54, 41
2, 5696, Control_c, 0, 64, 104
2, 5700, Control_c, 0, 64, 0
2, 5723, Note_on_c, 0, 70, 0
2, 5724, Control_c, 0, 64, 88
2, 5728, Control_c, 0, 64, 127
2, 5742, Note_on_c, 0, 71, 75
2, 5742, Note_on_c, 0, 66, 49
2, 5759, Note_on_c, 0, 54, 0
2, 5770, Note_on_c, 0, 66, 0
2, 5773, Note_on_c, 0, 71, 0
2, 5788, Note_on_c, 0, 72, 85
2, 5792, Note_on_c, 0, 69, 59
2, 5793, Note_on_c, 0, 58, 46
2, 5804, Note_on_c, 0, 69, 0
2, 5815, Note_on_c, 0, 72, 0
2, 5817, Note_on_c, 0, 58, 0
2, 5832, Note_on_c, 0, 66, 47
2, 5834, Note_on_c, 0, 71, 75
2, 5834, Note_on_c, 0, 75, 79
2, 5846, Note_on_c, 0, 71, 0
2, 5852, Note_on_c, 0, 66, 0
2, 5856, Note_on_c, 0, 75, 0
2, 5866, Note_on_c, 0, 58, 50
2, 5881, Note_on_c, 0, 70, 69
2, 5883, Note_on_c, 0, 73, 82
2, 5887, Note_on_c, 0, 70, 0
2, 5890, Note_on_c, 0, 73, 0
2, 5904, Note_on_c, 0, 58, 0
2, 5922, Note_on_c, 0, 82, 91
2, 5923, Note_on_c, 0, 73, 72
2, 5925, Control_c, 0, 64, 56
2, 5928, Note_on_c, 0, 49, 52
2, 5928, Note_on_c, 0, 61, 34
2, 5929, Control_c, 0, 64, 0
2, 5940, Note_on_c, 0, 73, 0
2, 5942, Control_c, 0, 64, 72
2, 5946, Control_c, 0, 64, 127
2, 5952, Note_on_c, 0, 82, 0
2, 5958, Note_on_c, 0, 61, 0
2, 5960, Note_on_c, 0, 49, 0
2, 5967, Note_on_c, 0, 83, 95
2, 5968, Note_on_c, 0, 75, 82
2, 5972, Note_on_c, 0, 54, 49
2, 5989, Note_on_c, 0, 83, 0
2, 5993, Note_on_c, 0, 75, 0
2, 6009, Note_on_c, 0, 82, 90
2, 6010, Note_on_c, 0, 54, 0
2, 6010, Note_on_c, 0, 73, 72
2, 6017, Note_on_c, 0, 66, 61
2, 6026, Note_on_c, 0, 73, 0
2, 6030, Note_on_c, 0, 82, 0
2, 6039, Note_on_c, 0, 66, 0
2, 6052, Note_on_c, 0, 77, 81
2, 6053, Note_on_c, 0, 68, 72
2, 6054, Note_on_c, 0, 58, 57
2, 6067, Note_on_c, 0, 68, 0
2, 6073, Note_on_c, 0, 77, 0
2, 6080, Note_on_c, 0, 58, 0
2, 6091, Note_on_c, 0, 66, 50
2, 6096, Note_on_c, 0, 78, 83
2, 6101, Note_on_c, 0, 70, 78
2, 6112, Note_on_c, 0, 66, 0
2, 6117, Note_on_c, 0, 70, 0
2, 6118, Note_on_c, 0, 78, 0
2, 6137, Note_on_c, 0, 58, 55
2, 6139, Note_on_c, 0, 75, 88
2, 6144, Note_on_c, 0, 66, 69
2, 6154, Note_on_c, 0, 66, 0
2, 6164, Note_on_c, 0, 75, 0
2, 6178, Note_on_c, 0, 58, 0
2, 6185, Note_on_c, 0, 78, 90
2, 6188, Note_on_c, 0, 70, 78
2, 6188, Note_on_c, 0, 49, 50
2, 6206, Note_on_c, 0, 70, 0
2, 6222, Note_on_c, 0, 78, 0
2, 6226, Note_on_c, 0, 49, 0
2, 6245, Control_c, 0, 64, 40
2, 6248, Note_on_c, 0, 56, 58
2, 6249, Control_c, 0, 64, 0
2, 6251, Note_on_c, 0, 77, 90
2, 6254, Note_on_c, 0, 71, 76
2, 6285, Control_c, 0, 64, 104
2, 6289, Control_c, 0, 64, 127
2, 6291, Note_on_c, 0, 71, 0
2, 6300, Note_on_c, 0, 77, 0
2, 6300, Note_on_c, 0, 65, 69
2, 6303, Note_on_c, 0, 68, 50
2, 6331, Note_on_c, 0, 68, 0
2, 6334, Note_on_c, 0, 56, 0
2, 6344, Note_on_c, 0, 71, 79
2, 6350, Note_on_c, 0, 59, 49
2, 6363, Note_on_c, 0, 65, 0
2, 6370, Note_on_c, 0, 59, 0
2, 6370, Note_on_c, 0, 71, 0
2, 6382, Note_on_c, 0, 73, 83
2, 6386, Note_on_c, 0, 68, 52
2, 6386, Note_on_c, 0, 65, 52
2, 6407, Note_on_c, 0, 65, 0
2, 6407, Note_on_c, 0, 68, 0
2, 6417, Note_on_c, 0, 73, 0
2, 6421, Note_on_c, 0, 77, 93
2, 6422, Note_on_c, 0, 59, 55
2, 6428, Note_on_c, 0, 71, 55
2, 6449, Note_on_c, 0, 59, 0
2, 6449, Note_on_c, 0, 77, 0
2, 6464, Note_on_c, 0, 75, 91
2, 6469, Note_on_c, 0, 65, 60
2, 6470, Note_on_c, 0, 61, 39
2, 6473, Note_on_c, 0, 49, 49
2, 6478, Note_on_c, 0, 65, 0
2, 6483, Note_on_c, 0, 49, 0
2, 6488, Note_on_c, 0, 75, 0
2, 6497, Note_on_c, 0, 77, 68
2, 6502, Note_on_c, 0, 61, 0
2, 6509, Note_on_c, 0, 71, 57
2, 6510, Note_on_c, 0, 75, 86
2, 6511, Control_c, 0, 64, 88
2, 6515, Control_c, 0, 64, 0
2, 6515, Note_on_c, 0, 56, 58
2, 6523, Note_on_c, 0, 77, 0
2, 6531, Control_c, 0, 64, 56
2, 6533, Note_on_c, 0, 71, 0
2, 6536, Control_c, 0, 64, 127
2, 6546, Note_on_c, 0, 75, 0
2, 6552, Note_on_c, 0, 56, 0
2, 6556, Note_on_c, 0, 74, 86
2, 6558, Note_on_c, 0, 68, 62
2, 6558, Note_on_c, 0, 65, 54
2, 6570, Note_on_c, 0, 71, 0
2, 6578, Note_on_c, 0, 65, 0
2, 6578, Note_on_c, 0, 68, 0
2, 6580, Note_on_c, 0, 74, 0
2, 6593, Note_on_c, 0, 73, 85
2, 6600, Note_on_c, 0, 71, 50
2, 6601, Note_on_c, 0, 59, 52
2, 6613, Note_on_c, 0, 71, 0
2, 6620, Note_on_c, 0, 73, 0
2, 6623, Note_on_c, 0, 59, 0
2, 6636, Note_on_c, 0, 65, 43
2, 6636, Note_on_c, 0, 68, 49
2, 6637, Note_on_c, 0, 72, 92
2, 6658, Note_on_c, 0, 68, 0
2, 6658, Note_on_c, 0, 65, 0
2, 6664, Note_on_c, 0, 72, 0
2, 6673, Note_on_c, 0, 59, 63
2, 6680, Note_on_c, 0, 73, 92
2, 6683, Note_on_c, 0, 65, 56
2, 6695, Note_on_c, 0, 65, 0
2, 6701, Note_on_c, 0, 59, 0
2, 6703, Note_on_c, 0, 73, 0
2, 6726, Note_on_c, 0, 71, 90
2, 6732, Note_on_c, 0, 50, 60
2, 6734, Note_on_c, 0, 65, 70
2, 6742, Note_on_c, 0, 65, 0
2, 6768, Note_on_c, 0, 50, 0
2, 6778, Control_c, 0, 64, 40
2, 6779, Note_on_c, 0, 66, 81
2, 6782, Control_c, 0, 64, 0
2, 6784, Note_on_c, 0, 51, 54
2, 6806, Control_c, 0, 64, 88
2, 6810, Note_on_c, 0, 51, 0
2, 6810, Control_c, 0, 64, 127
2, 6818, Note_on_c, 0, 71, 0
2, 6821, Note_on_c, 0, 66, 0
2, 6832, Note_on_c, 0, 58, 61
2, 6835, Note_on_c, 0, 63, 49
2, 6854, Note_on_c, 0, 63, 0
2, 6855, Note_on_c, 0, 58, 0
2, 6867, Note_on_c, 0, 70, 81
2, 6873, Note_on_c, 0, 66, 57
2, 6874, Note_on_c, 0, 54, 48
2, 6884, Note_on_c, 0, 66, 0
2, 6894, Note_on_c, 0, 54, 0
2, 6896, Note_on_c, 0, 70, 0
2, 6910, Note_on_c, 0, 69, 90
2, 6912, Note_on_c, 0, 63, 55
2, 6912, Note_on_c, 0, 58, 55
2, 6931, Note_on_c, 0, 58, 0
2, 6931, Note_on_c, 0, 63, 0
2, 6943, Note_on_c, 0, 69, 0
2, 6950, Note_on_c, 0, 70, 86
2, 6950, Note_on_c, 0, 66, 55
2, 6950, Note_on_c, 0, 54, 57
2, 6967, Note_on_c, 0, 66, 0
2, 6967, Note_on_c, 0, 70, 0
2, 6972, Note_on_c, 0, 54, 0
2, 6980, Note_on_c, 0, 66, 79
2, 6992, Note_on_c, 0, 66, 0
2, 6994, Note_on_c, 0, 78, 91
2, 6995, Control_c, 0, 64, 88
2, 6997, Note_on_c, 0, 70, 75
2, 6999, Control_c, 0, 64, 0
2, 7001, Note_on_c, 0, 46, 53
2, 7016, Note_on_c, 0, 70, 0
2, 7016, Control_c, 0, 64, 56
2, 7020, Control_c, 0, 64, 127
2, 7022, Note_on_c, 0, 78, 0
2, 7024, Note_on_c, 0, 46, 0
2, 7040, Note_on_c, 0, 77, 89
2, 7042, Note_on_c, 0, 68, 64
2, 7044, Note_on_c, 0, 51, 39
2, 7061, Note_on_c, 0, 68, 0
2, 7062, Note_on_c, 0, 51, 0
2, 7063, Note_on_c, 0, 77, 0
2, 7084, Note_on_c, 0, 76, 99
2, 7085, Note_on_c, 0, 63, 68
2, 7088, Note_on_c, 0, 67, 65
2, 7096, Note_on_c, 0, 67, 0
2, 7106, Note_on_c, 0, 76, 0
2, 7109, Note_on_c, 0, 63, 0
2, 7123, Note_on_c, 0, 75, 91
2, 7124, Note_on_c, 0, 54, 61
2, 7128, Note_on_c, 0, 66, 60
2, 7136, Note_on_c, 0, 66, 0
2, 7144, Note_on_c, 0, 54, 0
2, 7150, Note_on_c, 0, 75, 0
2, 7162, Note_on_c, 0, 63, 49
2, 7163, Note_on_c, 0, 74, 91
2, 7182, Note_on_c, 0, 63, 0
2, 7189, Note_on_c, 0, 74, 0
2, 7206, Note_on_c, 0, 54, 62
2, 7208, Note_on_c, 0, 75, 92
2, 7208, Note_on_c, 0, 66, 54
2, 7225, Note_on_c, 0, 54, 0
2, 7227, Note_on_c, 0, 66, 0
2, 7227, Note_on_c, 0, 75, 0
2, 7251, Note_on_c, 0, 46, 46
2, 7252, Note_on_c, 0, 71, 90
2, 7257, Note_on_c, 0, 63, 46
2, 7264, Note_on_c, 0, 63, 0
2, 7293, Note_on_c, 0, 46, 0
2, 7298, Control_c, 0, 64, 40
2, 7300, Note_on_c, 0, 62, 79
2, 7302, Control_c, 0, 64, 0
2, 7305, Note_on_c, 0, 53, 50
2, 7320, Note_on_c, 0, 71, 0
2, 7320, Note_on_c, 0, 70, 70
2, 7322, Note_on_c, 0, 62, 0
2, 7326, Control_c, 0, 64, 88
2, 7330, Note_on_c, 0, 71, 73
2, 7330, Control_c, 0, 64, 127
2, 7334, Note_on_c, 0, 70, 0
2, 7339, Note_on_c, 0, 53, 0
2, 7341, Note_on_c, 0, 70, 84
2, 7341, Note_on_c, 0, 68, 60
2, 7343, Note_on_c, 0, 71, 0
2, 7347, Note_on_c, 0, 65, 27
2, 7359, Note_on_c, 0, 65, 0
2, 7366, Note_on_c, 0, 68, 0
2, 7366, Note_on_c, 0, 70, 0
2, 7380, Note_on_c, 0, 69, 90
2, 7381, Note_on_c, 0, 56, 63
2, 7386, Note_on_c, 0, 62, 51
2, 7401, Note_on_c, 0, 62, 0
2, 7406, Note_on_c, 0, 69, 0
2, 7411, Note_on_c, 0, 56, 0
2, 7421, Note_on_c, 0, 70, 89
2, 7423, Note_on_c, 0, 68, 60
2, 7423, Note_on_c, 0, 65, 60
2, 7440, Note_on_c, 0, 65, 0
2, 7440, Note_on_c, 0, 68, 0
2, 7452, Note_on_c, 0, 70, 0
2, 7459, Note_on_c, 0, 56, 55
2, 7464, Note_on_c, 0, 73, 91
2, 7464, Note_on_c, 0, 62, 55
2, 7484, Note_on_c, 0, 56, 0
2, 7494, Note_on_c, 0, 62, 0
2, 7494, Note_on_c, 0, 73, 0
2, 7510, Note_on_c, 0, 72, 90
2, 7513, Note_on_c, 0, 46, 46
2, 7514, Note_on_c, 0, 68, 54
2, 7516, Control_c, 0, 64, 56
2, 7520, Control_c, 0, 64, 0
2, 7543, Note_on_c, 0, 68, 0
2, 7544, Control_c, 0, 64, 88
2, 7548, Control_c, 0, 64, 127
2, 7552, Note_on_c, 0, 46, 0
2, 7556, Note_on_c, 0, 62, 69
2, 7558, Note_on_c, 0, 53, 50
2, 7570, Note_on_c, 0, 72, 0
2, 7580, Note_on_c, 0, 62, 0
2, 7597, Note_on_c, 0, 71, 75
2, 7599, Note_on_c, 0, 68, 61
2, 7599, Note_on_c, 0, 65, 53
2, 7602, Note_on_c, 0, 53, 0
2, 7617, Note_on_c, 0, 65, 0
2, 7617, Note_on_c, 0, 68, 0
2, 7626, Note_on_c, 0, 71, 0
2, 7641, Note_on_c, 0, 70, 75
2, 7641, Note_on_c, 0, 56, 55
2, 7668, Note_on_c, 0, 70, 0
2, 7674, Note_on_c, 0, 56, 0
2, 7687, Note_on_c, 0, 69, 82
2, 7687, Note_on_c, 0, 68, 51
2, 7688, Note_on_c, 0, 65, 56
2, 7710, Note_on_c, 0, 65, 0
2, 7711, Note_on_c, 0, 68, 0
2, 7711, Note_on_c, 0, 69, 0
2, 7728, Note_on_c, 0, 56, 43
2, 7732, Note_on_c, 0, 70, 73
2, 7733, Note_on_c, 0, 62, 55
2, 7752, Note_on_c, 0, 62, 0
2, 7758, Note_on_c, 0, 56, 0
2, 7763, Note_on_c, 0, 70, 0
2, 7775, Note_on_c, 0, 68, 72
2, 7775, Note_on_c, 0, 65, 50
2, 7778, Note_on_c, 0, 46, 49
2, 7798, Note_on_c, 0, 65, 0
2, 7798, Note_on_c, 0, 68, 0
2, 7835, Note_on_c, 0, 66, 81
2, 7835, Note_on_c, 0, 63, 49
2, 7841, Note_on_c, 0, 46, 0
2, 7842, Note_on_c, 0, 51, 49
2, 7846, Control_c, 0, 64, 72
2, 7850, Control_c, 0, 64, 0
2, 7859, Note_on_c, 0, 63, 0
2, 7879, Control_c, 0, 64, 56
2, 7881, Note_on_c, 0, 51, 0
2, 7883, Control_c, 0, 64, 127
2, 7884, Note_on_c, 0, 62, 64
2, 7887, Note_on_c, 0, 58, 52
2, 7911, Note_on_c, 0, 62, 0
2, 7924, Note_on_c, 0, 51, 55
2, 7928, Note_on_c, 0, 61, 72
2, 7949, Note_on_c, 0, 51, 0
2, 7963, Control_c, 0, 64, 72
2, 7967, Control_c, 0, 64, 0
2, 7968, Note_on_c, 0, 61, 0
2, 7975, Note_on_c, 0, 60, 75
2, 7982, Note_on_c, 0, 44, 49
2, 7984, Control_c, 0, 64, 56
2, 7988, Control_c, 0, 64, 127
2, 8007, Note_on_c, 0, 58, 0
2, 8007, Note_on_c, 0, 66, 0
2, 8009, Note_on_c, 0, 44, 0
2, 8021, Note_on_c, 0, 65, 90
2, 8022, Note_on_c, 0, 56, 58
2, 8033, Note_on_c, 0, 60, 0
2, 8055, Note_on_c, 0, 65, 0
2, 8056, Note_on_c, 0, 56, 0
2, 8064, Note_on_c, 0, 51, 68
2, 8065, Note_on_c, 0, 66, 89
2, 8084, Note_on_c, 0, 51, 0
2, 8098, Note_on_c, 0, 66, 0
2, 8112, Control_c, 0, 64, 88
2, 8115, Note_on_c, 0, 70, 91
2, 8117, Control_c, 0, 64, 0
2, 8118, Note_on_c, 0, 49, 49
2, 8119, Note_on_c, 0, 59, 64
2, 8119, Note_on_c, 0, 54, 60
2, 8152, Control_c, 0, 64, 24
2, 8156, Note_on_c, 0, 70, 0
2, 8157, Control_c, 0, 64, 56
2, 8161, Control_c, 0, 64, 88
2, 8162, Note_on_c, 0, 54, 0
2, 8163, Note_on_c, 0, 68, 78
2, 8165, Control_c, 0, 64, 104
2, 8167, Note_on_c, 0, 53, 57
2, 8169, Control_c, 0, 64, 127
2, 8187, Note_on_c, 0, 53, 0
2, 8200, Note_on_c, 0, 68, 0
2, 8202, Note_on_c, 0, 54, 61
2, 8204, Note_on_c, 0, 63, 79
2, 8241, Note_on_c, 0, 54, 0
2, 8244, Note_on_c, 0, 63, 0
2, 8248, Note_on_c, 0, 56, 38
2, 8250, Note_on_c, 0, 61, 76
2, 8250, Control_c, 0, 64, 104
2, 8253, Control_c, 0, 64, 72
2, 8258, Control_c, 0, 64, 40
2, 8262, Control_c, 0, 64, 0
2, 8284, Note_on_c, 0, 61, 0
2, 8288, Note_on_c, 0, 65, 66
2, 8303, Note_on_c, 0, 63, 83
2, 8311, Note_on_c, 0, 59, 0
2, 8313, Note_on_c, 0, 65, 0
2, 8338, Note_on_c, 0, 56, 0
2, 8338, Control_c, 0, 64, 72
2, 8342, Note_on_c, 0, 49, 0
2, 8342, Control_c, 0, 64, 127
2, 8346, Note_on_c, 0, 63, 0
2, 8350, Note_on_c, 0, 61, 78
2, 8374, Note_on_c, 0, 61, 0
2, 8381, Note_on_c, 0, 58, 76
2, 8391, Control_c, 0, 64, 104
2, 8394, Control_c, 0, 64, 0
2, 8406, Note_on_c, 0, 42, 57
2, 8409, Note_on_c, 0, 70, 90
2, 8412, Note_on_c, 0, 58, 0
2, 8419, Control_c, 0, 64, 88
2, 8423, Control_c, 0, 64, 127
2, 8425, Note_on_c, 0, 42, 0
2, 8458, Note_on_c, 0, 61, 77
2, 8458, Note_on_c, 0, 66, 69
2, 8460, Note_on_c, 0, 54, 59
2, 8464, Note_on_c, 0, 58, 50
2, 8471, Note_on_c, 0, 58, 0
2, 8473, Note_on_c, 0, 61, 0
2, 8475, Note_on_c, 0, 54, 0
2, 8487, Note_on_c, 0, 66, 0
2, 8497, Note_on_c, 0, 58, 69
2, 8498, Note_on_c, 0, 62, 82
2, 8498, Note_on_c, 0, 65, 63
2, 8510, Note_on_c, 0, 65, 0
2, 8510, Note_on_c, 0, 62, 0
2, 8510, Note_on_c, 0, 54, 58
2, 8516, Note_on_c, 0, 54, 0
2, 8516, Note_on_c, 0, 58, 0
2, 8535, Control_c, 0, 64, 88
2, 8539, Note_on_c, 0, 63, 80
2, 8540, Control_c, 0, 64, 0
2, 8541, Note_on_c, 0, 54, 68
2, 8543, Note_on_c, 0, 58, 57
2, 8560, Control_c, 0, 64, 72
2, 8564, Control_c, 0, 64, 127
2, 8568, Note_on_c, 0, 70, 0
2, 8574, Note_on_c, 0, 63, 0
2, 8583, Note_on_c, 0, 54, 0
2, 8584, Note_on_c, 0, 58, 0
2, 8585, Note_on_c, 0, 69, 93
2, 8613, Note_on_c, 0, 69, 0
2, 8628, Note_on_c, 0, 70, 106
2, 8660, Note_on_c, 0, 70, 0
2, 8669, Control_c, 0, 64, 40
2, 8671, Note_on_c, 0, 41, 71
2, 8673, Control_c, 0, 64, 0
2, 8682, Note_on_c, 0, 73, 96
2, 8686, Note_on_c, 0, 41, 0
2, 8698, Control_c, 0, 64, 104
2, 8702, Control_c, 0, 64, 127
2, 8713, Note_on_c, 0, 73, 0
2, 8735, Note_on_c, 0, 72, 101
2, 8735, Note_on_c, 0, 63, 37
2, 8739, Note_on_c, 0, 57, 47
2, 8744, Note_on_c, 0, 53, 55
2, 8750, Note_on_c, 0, 57, 0
2, 8752, Note_on_c, 0, 53, 0
2, 8752, Note_on_c, 0, 63, 0
2, 8764, Note_on_c, 0, 72, 0
2, 8776, Note_on_c, 0, 66, 96
2, 8778, Note_on_c, 0, 58, 59
2, 8781, Note_on_c, 0, 63, 57
2, 8785, Note_on_c, 0, 53, 48
2, 8793, Note_on_c, 0, 53, 0
2, 8793, Note_on_c, 0, 63, 0
2, 8796, Note_on_c, 0, 58, 0
2, 8805, Note_on_c, 0, 66, 0
2, 8823, Note_on_c, 0, 65, 93
2, 8826, Note_on_c, 0, 63, 57
2, 8830, Note_on_c, 0, 60, 50
2, 8831, Control_c, 0, 64, 88
2, 8835, Control_c, 0, 64, 0
2, 8835, Note_on_c, 0, 53, 45
2, 8865, Note_on_c, 0, 68, 82
2, 8869, Note_on_c, 0, 65, 0
2, 8870, Control_c, 0, 64, 104
2, 8874, Control_c, 0, 64, 127
2, 8880, Note_on_c, 0, 60, 0
2, 8881, Note_on_c, 0, 63, 0
2, 8882, Note_on_c, 0, 66, 86
2, 8887, Note_on_c, 0, 53, 0
2, 8890, Note_on_c, 0, 68, 0
2, 8913, Note_on_c, 0, 66, 0
2, 8922, Note_on_c, 0, 65, 81
2, 8954, Note_on_c, 0, 65, 0
2, 8960, Note_on_c, 0, 46, 60
2, 8960, Control_c, 0, 64, 72
2, 8964, Control_c, 0, 64, 0
2, 8966, Note_on_c, 0, 73, 100
2, 8974, Note_on_c, 0, 46, 0
2, 8984, Control_c, 0, 64, 56
2, 8988, Control_c, 0, 64, 127
2, 9008, Note_on_c, 0, 61, 60
2, 9010, Note_on_c, 0, 70, 83
2, 9010, Note_on_c, 0, 65, 63
2, 9018, Note_on_c, 0, 65, 0
2, 9026, Note_on_c, 0, 61, 0
2, 9030, Note_on_c, 0, 73, 0
2, 9049, Note_on_c, 0, 70, 0
2, 9051, Note_on_c, 0, 68, 74
2, 9053, Note_on_c, 0, 65, 69
2, 9053, Note_on_c, 0, 58, 60
2, 9054, Note_on_c, 0, 61, 51
2, 9066, Note_on_c, 0, 65, 0
2, 9071, Note_on_c, 0, 61, 0
2, 9074, Note_on_c, 0, 58, 0
2, 9085, Control_c, 0, 64, 88
2, 9089, Control_c, 0, 64, 0
2, 9090, Note_on_c, 0, 68, 0
2, 9096, Note_on_c, 0, 67, 91
2, 9099, Note_on_c, 0, 64, 69
2, 9099, Note_on_c, 0, 61, 41
2, 9103, Note_on_c, 0, 58, 42
2, 9105, Control_c, 0, 64, 72
2, 9108, Control_c, 0, 64, 127
2, 9118, Note_on_c, 0, 64, 0
2, 9128, Note_on_c, 0, 58, 0
2, 9128, Note_on_c, 0, 61, 0
2, 9135, Note_on_c, 0, 67, 0
2, 9141, Note_on_c, 0, 75, 100
2, 9143, Note_on_c, 0, 63, 68
2, 9167, Note_on_c, 0, 63, 0
2, 9174, Note_on_c, 0, 75, 0
2, 9182, Control_c, 0, 64, 40
2, 9186, Control_c, 0, 64, 0
2, 9186, Note_on_c, 0, 76, 101
2, 9190, Note_on_c, 0, 61, 56
2, 9190, Control_c, 0, 64, 24
2, 9190, Note_on_c, 0, 67, 73
2, 9191, Note_on_c, 0, 57, 59
2, 9194, Control_c, 0, 64, 56
2, 9198, Control_c, 0, 64, 104
2, 9199, Note_on_c, 0, 67, 0
2, 9202, Control_c, 0, 64, 127
2, 9203, Note_on_c, 0, 57, 0
2, 9211, Note_on_c, 0, 61, 0
2, 9222, Note_on_c, 0, 76, 0
2, 9226, Control_c, 0, 64, 88
2, 9230, Control_c, 0, 64, 0
2, 9234, Note_on_c, 0, 77, 96
2, 9236, Note_on_c, 0, 68, 75
2, 9238, Note_on_c, 0, 56, 60
2, 9239, Note_on_c, 0, 61, 58
2, 9242, Control_c, 0, 64, 40
2, 9246, Control_c, 0, 64, 104
2, 9250, Control_c, 0, 64, 127
2, 9251, Note_on_c, 0, 68, 0
2, 9255, Note_on_c, 0, 77, 0
2, 9280, Note_on_c, 0, 78, 95
2, 9282, Note_on_c, 0, 70, 72
2, 9296, Note_on_c, 0, 70, 0
2, 9302, Note_on_c, 0, 78, 0
2, 9326, Note_on_c, 0, 80, 93
2, 9328, Note_on_c, 0, 72, 78
2, 9338, Note_on_c, 0, 72, 0
2, 9345, Note_on_c, 0, 80, 0
2, 9371, Note_on_c, 0, 82, 92
2, 9373, Note_on_c, 0, 73, 82
2, 9387, Note_on_c, 0, 73, 0
2, 9399, Note_on_c, 0, 82, 0
2, 9412, Note_on_c, 0, 61, 0
2, 9416, Note_on_c, 0, 84, 90
2, 9418, Note_on_c, 0, 56, 0
2, 9418, Note_on_c, 0, 75, 78
2, 9433, Note_on_c, 0, 75, 0
2, 9436, Note_on_c, 0, 84, 0
2, 9467, Note_on_c, 0, 77, 90
2, 9468, Note_on_c, 0, 85, 93
2, 9482, Note_on_c, 0, 77, 0
2, 9483, Note_on_c, 0, 85, 0
2, 9536, Control_c, 0, 64, 88
2, 9540, Note_on_c, 0, 44, 52
2, 9540, Note_on_c, 0, 32, 50
2, 9540, Note_on_c, 0, 68, 91
2, 9541, Control_c, 0, 64, 0
2, 9542, Note_on_c, 0, 66, 70
2, 9558, Note_on_c, 0, 32, 0
2, 9558, Note_on_c, 0, 44, 0
2, 9565, Control_c, 0, 64, 72
2, 9569, Control_c, 0, 64, 127
2, 9600, Note_on_c, 0, 60, 75
2, 9600, Note_on_c, 0, 51, 73
2, 9608, Note_on_c, 0, 60, 0
2, 9622, Note_on_c, 0, 51, 0
2, 9623, Note_on_c, 0, 68, 0
2, 9653, Note_on_c, 0, 56, 55
2, 9653, Note_on_c, 0, 44, 57
2, 9669, Note_on_c, 0, 44, 0
2, 9669, Note_on_c, 0, 56, 0
2, 9708, Note_on_c, 0, 78, 87
2, 9711, Note_on_c, 0, 75, 68
2, 9714, Note_on_c, 0, 51, 48
2, 9716, Note_on_c, 0, 60, 51
2, 9722, Control_c, 0, 64, 104
2, 9726, Control_c, 0, 64, 0
2, 9741, Control_c, 0, 64, 24
2, 9746, Control_c, 0, 64, 104
2, 9750, Control_c, 0, 64, 127
2, 9762, Note_on_c, 0, 75, 0
2, 9770, Note_on_c, 0, 70, 68
2, 9770, Note_on_c, 0, 66, 50
2, 9778, Note_on_c, 0, 78, 0
2, 9799, Note_on_c, 0, 66, 0
2, 9803, Note_on_c, 0, 70, 0
2, 9803, Note_on_c, 0, 66, 0
2, 9815, Note_on_c, 0, 77, 88
2, 9819, Note_on_c, 0, 72, 69
2, 9838, Note_on_c, 0, 72, 0
2, 9840, Note_on_c, 0, 60, 0
2, 9841, Note_on_c, 0, 77, 0
2, 9844, Note_on_c, 0, 51, 0
2, 9879, Note_on_c, 0, 73, 85
2, 9886, Note_on_c, 0, 49, 38
2, 9887, Note_on_c, 0, 65, 60
2, 9889, Note_on_c, 0, 56, 37
2, 9892, Control_c, 0, 64, 24
2, 9896, Control_c, 0, 64, 0
2, 9925, Note_on_c, 0, 65, 0
2, 9927, Control_c, 0, 64, 56
2, 9931, Control_c, 0, 64, 104
2, 9932, Note_on_c, 0, 56, 0
2, 9936, Control_c, 0, 64, 127
2, 9941, Note_on_c, 0, 66, 74
2, 9944, Note_on_c, 0, 58, 35
2, 9972, Note_on_c, 0, 58, 0
2, 9975, Note_on_c, 0, 66, 0
2, 9990, Note_on_c, 0, 54, 51
2, 9991, Note_on_c, 0, 63, 68
2, 10032, Note_on_c, 0, 63, 0
2, 10051, Note_on_c, 0, 54, 0
2, 10053, Note_on_c, 0, 65, 60
2, 10057, Control_c, 0, 64, 104
2, 10058, Note_on_c, 0, 56, 43
2, 10061, Control_c, 0, 64, 0
2, 10085, Control_c, 0, 64, 127
2, 10090, Note_on_c, 0, 56, 0
2, 10090, Note_on_c, 0, 49, 0
2, 10123, Note_on_c, 0, 61, 54
2, 10137, Note_on_c, 0, 65, 0
2, 10142, Note_on_c, 0, 61, 0
2, 10152, Note_on_c, 0, 73, 0
2, 10204, Note_on_c, 0, 76, 88
2, 10235, Note_on_c, 0, 76, 0
2, 10299, Note_on_c, 0, 37, 34
2, 10314, Note_on_c, 0, 76, 88
2, 10315, Control_c, 0, 64, 40
2, 10319, Control_c, 0, 64, 0
2, 10343, Control_c, 0, 64, 72
2, 10347, Control_c, 0, 64, 127
2, 10366, Note_on_c, 0, 37, 0
2, 10369, Note_on_c, 0, 49, 50
2, 10378, Note_on_c, 0, 49, 0
2, 10419, Note_on_c, 0, 57, 63
2, 10474, Note_on_c, 0, 64, 50
2, 10509, Note_on_c, 0, 76, 0
2, 10515, Note_on_c, 0, 75, 78
2, 10525, Note_on_c, 0, 69, 38
2, 10553, Note_on_c, 0, 75, 0
2, 10570, Note_on_c, 0, 74, 88
2, 10599, Note_on_c, 0, 74, 0
2, 10615, Note_on_c, 0, 73, 87
2, 10618, Note_on_c, 0, 69, 0
2, 10650, Note_on_c, 0, 73, 0
2, 10658, Note_on_c, 0, 72, 84
2, 10694, Note_on_c, 0, 72, 0
2, 10700, Note_on_c, 0, 71, 84
2, 10728, Note_on_c, 0, 71, 0
2, 10744, Note_on_c, 0, 70, 75
2, 10785, Note_on_c, 0, 70, 0
2, 10788, Note_on_c, 0, 69, 83
2, 10794, Note_on_c, 0, 64, 0
2, 10803, Note_on_c, 0, 57, 0
2, 10817, Note_on_c, 0, 69, 0
2, 10832, Note_on_c, 0, 68, 83
2, 10851, Control_c, 0, 64, 88
2, 10855, Control_c, 0, 64, 0
2, 10859, Note_on_c, 0, 68, 0
2, 10865, Note_on_c, 0, 70, 77
2, 10869, Note_on_c, 0, 49, 66
2, 10884, Note_on_c, 0, 68, 76
2, 10884, Control_c, 0, 64, 72
2, 10886, Note_on_c, 0, 49, 0
2, 10888, Note_on_c, 0, 70, 0
2, 10888, Control_c, 0, 64, 127
2, 10902, Note_on_c, 0, 64, 57
2, 10914, Note_on_c, 0, 64, 0
2, 10919, Note_on_c, 0, 68, 0
2, 10926, Note_on_c, 0, 67, 88
2, 10933, Note_on_c, 0, 58, 45
2, 10962, Note_on_c, 0, 58, 0
2, 10962, Note_on_c, 0, 67, 0
2, 10971, Note_on_c, 0, 76, 87
2, 10971, Note_on_c, 0, 64, 45
2, 10981, Note_on_c, 0, 64, 0
2, 10999, Note_on_c, 0, 76, 0
2, 11004, Control_c, 0, 64, 88
2, 11008, Control_c, 0, 64, 0
2, 11018, Note_on_c, 0, 63, 51
2, 11020, Note_on_c, 0, 75, 83
2, 11029, Control_c, 0, 64, 72
2, 11033, Control_c, 0, 64, 127
2, 11047, Note_on_c, 0, 63, 0
2, 11054, Note_on_c, 0, 75, 0
2, 11062, Note_on_c, 0, 59, 48
2, 11064, Note_on_c, 0, 67, 69
2, 11071, Note_on_c, 0, 59, 0
2, 11095, Note_on_c, 0, 67, 0
2, 11099, Note_on_c, 0, 47, 61
2, 11105, Note_on_c, 0, 68, 70
2, 11114, Note_on_c, 0, 47, 0
2, 11128, Note_on_c, 0, 68, 0
2, 11137, Note_on_c, 0, 67, 71
2, 11154, Note_on_c, 0, 68, 81
2, 11155, Note_on_c, 0, 67, 0
2, 11170, Note_on_c, 0, 68, 0
2, 11173, Note_on_c, 0, 70, 79
2, 11174, Control_c, 0, 64, 72
2, 11178, Control_c, 0, 64, 0
2, 11182, Note_on_c, 0, 49, 54
2, 11186, Note_on_c, 0, 68, 76
2, 11191, Note_on_c, 0, 70, 0
2, 11210, Control_c, 0, 64, 40
2, 11214, Control_c, 0, 64, 127
2, 11217, Note_on_c, 0, 49, 0
2, 11232, Note_on_c, 0, 68, 0
2, 11233, Note_on_c, 0, 67, 74
2, 11236, Note_on_c, 0, 58, 47
2, 11267, Note_on_c, 0, 67, 0
2, 11273, Note_on_c, 0, 58, 0
2, 11280, Note_on_c, 0, 76, 79
2, 11285, Note_on_c, 0, 64, 47
2, 11294, Note_on_c, 0, 64, 0
2, 11306, Note_on_c, 0, 76, 0
2, 11327, Note_on_c, 0, 75, 76
2, 11327, Control_c, 0, 64, 40
2, 11331, Control_c, 0, 64, 0
2, 11334, Note_on_c, 0, 63, 57
2, 11343, Control_c, 0, 64, 40
2, 11347, Control_c, 0, 64, 127
2, 11361, Note_on_c, 0, 63, 0
2, 11368, Note_on_c, 0, 75, 0
2, 11372, Note_on_c, 0, 59, 57
2, 11380, Note_on_c, 0, 67, 65
2, 11382, Note_on_c, 0, 59, 0
2, 11415, Note_on_c, 0, 67, 0
2, 11430, Note_on_c, 0, 68, 58
2, 11430, Note_on_c, 0, 47, 48
2, 11455, Note_on_c, 0, 47, 0
2, 11455, Note_on_c, 0, 68, 0
2, 11477, Note_on_c, 0, 62, 55
2, 11496, Control_c, 0, 64, 24
2, 11498, Note_on_c, 0, 67, 70
2, 11500, Control_c, 0, 64, 0
2, 11517, Note_on_c, 0, 35, 44
2, 11533, Control_c, 0, 64, 104
2, 11537, Control_c, 0, 64, 127
2, 11542, Note_on_c, 0, 74, 89
2, 11554, Note_on_c, 0, 62, 0
2, 11559, Note_on_c, 0, 67, 0
2, 11579, Note_on_c, 0, 74, 0
2, 11584, Note_on_c, 0, 35, 0
2, 11589, Note_on_c, 0, 47, 65
2, 11596, Note_on_c, 0, 47, 0
2, 11647, Note_on_c, 0, 79, 91
2, 11648, Note_on_c, 0, 55, 48
2, 11699, Note_on_c, 0, 55, 0
2, 11702, Note_on_c, 0, 62, 54
2, 11739, Note_on_c, 0, 79, 0
2, 11740, Note_on_c, 0, 62, 0
2, 11749, Note_on_c, 0, 78, 84
2, 11751, Note_on_c, 0, 67, 64
2, 11758, Note_on_c, 0, 67, 0
2, 11796, Note_on_c, 0, 78, 0
2, 11801, Note_on_c, 0, 76, 82
2, 11845, Note_on_c, 0, 76, 0
2, 11848, Note_on_c, 0, 74, 87
2, 11862, Note_on_c, 0, 74, 0
2, 11902, Note_on_c, 0, 62, 72
2, 11949, Note_on_c, 0, 71, 82
2, 11972, Note_on_c, 0, 62, 0
2, 11978, Note_on_c, 0, 71, 0
2, 11994, Note_on_c, 0, 69, 86
2, 12032, Note_on_c, 0, 69, 0
2, 12040, Note_on_c, 0, 67, 88
2, 12071, Note_on_c, 0, 67, 0
2, 12084, Note_on_c, 0, 66, 83
2, 12108, Note_on_c, 0, 66, 0
2, 12130, Note_on_c, 0, 68, 78
2, 12141, Control_c, 0, 64, 40
2, 12143, Note_on_c, 0, 66, 70
2, 12144, Note_on_c, 0, 47, 43
2, 12146, Control_c, 0, 64, 0
2, 12149, Note_on_c, 0, 68, 0
2, 12170, Note_on_c, 0, 47, 0
2, 12170, Control_c, 0, 64, 40
2, 12174, Control_c, 0, 64, 104
2, 12178, Control_c, 0, 64, 127
2, 12184, Note_on_c, 0, 66, 0
2, 12185, Note_on_c, 0, 56, 51
2, 12188, Note_on_c, 0, 65, 85
2, 12219, Note_on_c, 0, 56, 0
2, 12223, Note_on_c, 0, 65, 0
2, 12234, Note_on_c, 0, 74, 79
2, 12236, Note_on_c, 0, 62, 41
2, 12246, Note_on_c, 0, 62, 0
2, 12258, Note_on_c, 0, 74, 0
2, 12279, Control_c, 0, 64, 56
2, 12280, Note_on_c, 0, 73, 76
2, 12282, Control_c, 0, 64, 0
2, 12284, Note_on_c, 0, 61, 47
2, 12287, Control_c, 0, 64, 24
2, 12291, Control_c, 0, 64, 72
2, 12295, Control_c, 0, 64, 127
2, 12313, Note_on_c, 0, 73, 0
2, 12315, Note_on_c, 0, 61, 0
2, 12320, Note_on_c, 0, 57, 38
2, 12327, Note_on_c, 0, 65, 68
2, 12328, Note_on_c, 0, 57, 0
2, 12360, Note_on_c, 0, 65, 0
2, 12369, Note_on_c, 0, 66, 74
2, 12372, Note_on_c, 0, 45, 54
2, 12381, Note_on_c, 0, 45, 0
2, 12391, Note_on_c, 0, 66, 0
2, 12402, Note_on_c, 0, 65, 71
2, 12418, Note_on_c, 0, 65, 0
2, 12418, Note_on_c, 0, 66, 74
2, 12434, Note_on_c, 0, 66, 0
2, 12436, Note_on_c, 0, 68, 78
2, 12436, Control_c, 0, 64, 56
2, 12440, Control_c, 0, 64, 0
2, 12450, Note_on_c, 0, 66, 76
2, 12451, Note_on_c, 0, 47, 59
2, 12455, Note_on_c, 0, 68, 0
2, 12476, Control_c, 0, 64, 127
2, 12483, Note_on_c, 0, 47, 0
2, 12497, Note_on_c, 0, 66, 0
2, 12500, Note_on_c, 0, 65, 77
2, 12505, Note_on_c, 0, 56, 50
2, 12528, Note_on_c, 0, 65, 0
2, 12540, Note_on_c, 0, 56, 0
2, 12550, Note_on_c, 0, 74, 80
2, 12553, Note_on_c, 0, 62, 38
2, 12563, Note_on_c, 0, 62, 0
2, 12574, Note_on_c, 0, 74, 0
2, 12598, Control_c, 0, 64, 104
2, 12599, Note_on_c, 0, 73, 72
2, 12602, Control_c, 0, 64, 24
2, 12606, Control_c, 0, 64, 0
2, 12606, Note_on_c, 0, 61, 49
2, 12613, Control_c, 0, 64, 24
2, 12617, Control_c, 0, 64, 88
2, 12622, Control_c, 0, 64, 127
2, 12636, Note_on_c, 0, 73, 0
2, 12638, Note_on_c, 0, 61, 0
2, 12643, Note_on_c, 0, 57, 31
2, 12650, Note_on_c, 0, 57, 0
2, 12650, Note_on_c, 0, 65, 69
2, 12699, Note_on_c, 0, 65, 0
2, 12708, Note_on_c, 0, 66, 63
2, 12718, Note_on_c, 0, 45, 49
2, 12726, Note_on_c, 0, 45, 0
2, 12747, Note_on_c, 0, 66, 0
2, 12764, Note_on_c, 0, 61, 46
2, 12787, Note_on_c, 0, 67, 62
2, 12791, Control_c, 0, 64, 104
2, 12795, Control_c, 0, 64, 40
2, 12799, Control_c, 0, 64, 0
2, 12800, Note_on_c, 0, 33, 39
2, 12832, Control_c, 0, 64, 88
2, 12836, Control_c, 0, 64, 127
2, 12843, Note_on_c, 0, 73, 93
2, 12892, Note_on_c, 0, 33, 0
2, 12898, Note_on_c, 0, 61, 0
2, 12900, Note_on_c, 0, 45, 47
2, 12908, Note_on_c, 0, 45, 0
2, 12927, Note_on_c, 0, 67, 0
2, 12948, Note_on_c, 0, 52, 49
2, 12997, Note_on_c, 0, 57, 39
2, 13029, Note_on_c, 0, 52, 0
2, 13030, Note_on_c, 0, 73, 0
2, 13036, Note_on_c, 0, 57, 0
2, 13043, Note_on_c, 0, 71, 79
2, 13045, Note_on_c, 0, 62, 57
2, 13055, Note_on_c, 0, 67, 32
2, 13084, Note_on_c, 0, 62, 0
2, 13086, Note_on_c, 0, 71, 0
2, 13090, Note_on_c, 0, 73, 82
2, 13094, Note_on_c, 0, 64, 57
2, 13124, Note_on_c, 0, 64, 0
2, 13131, Note_on_c, 0, 73, 0
2, 13138, Note_on_c, 0, 71, 84
2, 13142, Note_on_c, 0, 62, 55
2, 13150, Control_c, 0, 64, 56
2, 13154, Control_c, 0, 64, 0
2, 13155, Note_on_c, 0, 67, 0
2, 13170, Control_c, 0, 64, 72
2, 13174, Control_c, 0, 64, 127
2, 13175, Note_on_c, 0, 62, 0
2, 13183, Note_on_c, 0, 71, 0
2, 13183, Note_on_c, 0, 61, 47
2, 13185, Note_on_c, 0, 69, 89
2, 13219, Note_on_c, 0, 69, 0
2, 13233, Note_on_c, 0, 61, 0
2, 13234, Note_on_c, 0, 76, 91
2, 13241, Note_on_c, 0, 67, 54
2, 13253, Note_on_c, 0, 67, 0
2, 13266, Note_on_c, 0, 76, 0
2, 13294, Note_on_c, 0, 74, 84
2, 13301, Note_on_c, 0, 66, 39
2, 13302, Note_on_c, 0, 62, 41
2, 13307, Control_c, 0, 64, 56
2, 13312, Control_c, 0, 64, 0
2, 13336, Control_c, 0, 64, 104
2, 13340, Control_c, 0, 64, 127
2, 13342, Note_on_c, 0, 74, 0
2, 13354, Note_on_c, 0, 69, 85
2, 13357, Note_on_c, 0, 66, 0
2, 13361, Note_on_c, 0, 62, 0
2, 13388, Note_on_c, 0, 69, 0
2, 13398, Note_on_c, 0, 71, 83
2, 13426, Note_on_c, 0, 71, 0
2, 13457, Control_c, 0, 64, 88
2, 13461, Control_c, 0, 64, 0
2, 13463, Note_on_c, 0, 73, 95
2, 13467, Note_on_c, 0, 61, 57
2, 13469, Note_on_c, 0, 67, 69
2, 13470, Note_on_c, 0, 33, 55
2, 13481, Control_c, 0, 64, 40
2, 13485, Control_c, 0, 64, 127
2, 13514, Note_on_c, 0, 33, 0
2, 13520, Note_on_c, 0, 45, 66
2, 13523, Note_on_c, 0, 61, 0
2, 13527, Note_on_c, 0, 45, 0
2, 13566, Note_on_c, 0, 52, 55
2, 13569, Note_on_c, 0, 67, 0
2, 13612, Note_on_c, 0, 57, 52
2, 13630, Note_on_c, 0, 52, 0
2, 13647, Note_on_c, 0, 73, 0
2, 13653, Note_on_c, 0, 71, 87
2, 13656, Note_on_c, 0, 62, 60
2, 13690, Note_on_c, 0, 62, 0
2, 13690, Note_on_c, 0, 71, 0
2, 13698, Note_on_c, 0, 73, 83
2, 13700, Note_on_c, 0, 64, 62
2, 13727, Note_on_c, 0, 64, 0
2, 13735, Note_on_c, 0, 73, 0
2, 13746, Note_on_c, 0, 71, 79
2, 13753, Note_on_c, 0, 62, 52
2, 13755, Control_c, 0, 64, 24
2, 13759, Control_c, 0, 64, 0
2, 13781, Note_on_c, 0, 62, 0
2, 13782, Note_on_c, 0, 57, 0
2, 13783, Control_c, 0, 64, 72
2, 13787, Control_c, 0, 64, 127
2, 13792, Note_on_c, 0, 61, 42
2, 13793, Note_on_c, 0, 71, 0
2, 13796, Note_on_c, 0, 69, 84
2, 13827, Note_on_c, 0, 69, 0
2, 13843, Note_on_c, 0, 61, 0
2, 13846, Note_on_c, 0, 76, 83
2, 13852, Note_on_c, 0, 67, 44
2, 13874, Note_on_c, 0, 67, 0
2, 13876, Note_on_c, 0, 76, 0
2, 13905, Note_on_c, 0, 74, 77
2, 13912, Note_on_c, 0, 66, 34
2, 13915, Note_on_c, 0, 62, 41
2, 13924, Control_c, 0, 64, 88
2, 13928, Control_c, 0, 64, 0
2, 13953, Control_c, 0, 64, 56
2, 13957, Control_c, 0, 64, 127
2, 13965, Note_on_c, 0, 74, 0
2, 13970, Note_on_c, 0, 69, 79
2, 13980, Note_on_c, 0, 66, 0
2, 13982, Note_on_c, 0, 62, 0
2, 14005, Note_on_c, 0, 69, 0
2, 14016, Note_on_c, 0, 71, 75
2, 14042, Note_on_c, 0, 71, 0
2, 14078, Control_c, 0, 64, 104
2, 14079, Note_on_c, 0, 73, 95
2, 14081, Note_on_c, 0, 45, 56
2, 14081, Control_c, 0, 64, 0
2, 14083, Note_on_c, 0, 61, 57
2, 14084, Note_on_c, 0, 67, 66
2, 14106, Control_c, 0, 64, 56
2, 14110, Control_c, 0, 64, 127
2, 14133, Note_on_c, 0, 52, 58
2, 14141, Note_on_c, 0, 61, 0
2, 14159, Note_on_c, 0, 45, 0
2, 14169, Note_on_c, 0, 67, 0
2, 14176, Note_on_c, 0, 52, 0
2, 14180, Note_on_c, 0, 57, 71
2, 14189, Note_on_c, 0, 57, 0
2, 14215, Note_on_c, 0, 73, 0
2, 14225, Note_on_c, 0, 64, 76
2, 14229, Note_on_c, 0, 57, 49
2, 14262, Note_on_c, 0, 64, 0
2, 14271, Note_on_c, 0, 63, 61
2, 14279, Note_on_c, 0, 75, 92
2, 14302, Note_on_c, 0, 63, 0
2, 14308, Note_on_c, 0, 57, 0
2, 14312, Note_on_c, 0, 75, 0
2, 14315, Note_on_c, 0, 61, 60
2, 14323, Note_on_c, 0, 76, 100
2, 14347, Note_on_c, 0, 61, 0
2, 14348, Note_on_c, 0, 76, 0
2, 14364, Control_c, 0, 64, 72
2, 14368, Control_c, 0, 64, 0
2, 14372, Note_on_c, 0, 77, 99
2, 14375, Note_on_c, 0, 65, 73
2, 14376, Note_on_c, 0, 61, 58
2, 14380, Control_c, 0, 64, 72
2, 14382, Note_on_c, 0, 56, 49
2, 14384, Control_c, 0, 64, 127
2, 14387, Note_on_c, 0, 65, 0
2, 14398, Note_on_c, 0, 77, 0
2, 14416, Note_on_c, 0, 78, 98
2, 14439, Note_on_c, 0, 78, 0
2, 14444, Note_on_c, 0, 56, 0
2, 14449, Note_on_c, 0, 61, 0
2, 14465, Note_on_c, 0, 80, 98
2, 14486, Note_on_c, 0, 80, 0
2, 14490, Note_on_c, 0, 55, 63
2, 14501, Note_on_c, 0, 61, 58
2, 14509, Control_c, 0, 64, 88
2, 14513, Control_c, 0, 64, 0
2, 14514, Note_on_c, 0, 82, 99
2, 14515, Note_on_c, 0, 70, 93
2, 14526, Control_c, 0, 64, 40
2, 14529, Note_on_c, 0, 70, 0
2, 14530, Control_c, 0, 64, 127
2, 14530, Note_on_c, 0, 64, 50
2, 14555, Note_on_c, 0, 82, 0
2, 14566, Note_on_c, 0, 64, 0
2, 14566, Note_on_c, 0, 84, 104
2, 14580, Note_on_c, 0, 61, 0
2, 14581, Note_on_c, 0, 55, 0
2, 14591, Note_on_c, 0, 84, 0
2, 14618, Note_on_c, 0, 85, 106
2, 14642, Note_on_c, 0, 85, 0
2, 14691, Control_c, 0, 64, 104
2, 14691, Note_on_c, 0, 32, 52
2, 14691, Note_on_c, 0, 68, 90
2, 14695, Control_c, 0, 64, 0
2, 14707, Control_c, 0, 64, 56
2, 14708, Note_on_c, 0, 32, 0
2, 14711, Control_c, 0, 64, 127
2, 14754, Note_on_c, 0, 66, 61
2, 14754, Note_on_c, 0, 61, 58
2, 14759, Note_on_c, 0, 56, 48
2, 14766, Note_on_c, 0, 61, 0
2, 14767, Note_on_c, 0, 56, 0
2, 14767, Note_on_c, 0, 66, 0
2, 14807, Note_on_c, 0, 66, 57
2, 14807, Note_on_c, 0, 61, 47
2, 14809, Note_on_c, 0, 56, 45
2, 14817, Note_on_c, 0, 61, 0
2, 14823, Note_on_c, 0, 56, 0
2, 14823, Note_on_c, 0, 66, 0
2, 14871, Note_on_c, 0, 78, 90
2, 14874, Note_on_c, 0, 60, 47
2, 14878, Note_on_c, 0, 56, 46
2, 14879, Note_on_c, 0, 66, 54
2, 14904, Control_c, 0, 64, 24
2, 14908, Control_c, 0, 64, 0
2, 14921, Control_c, 0, 64, 40
2, 14925, Control_c, 0, 64, 127
2, 14929, Note_on_c, 0, 78, 0
2, 14936, Note_on_c, 0, 75, 87
2, 14956, Note_on_c, 0, 60, 0
2, 14960, Note_on_c, 0, 66, 0
2, 14960, Note_on_c, 0, 56, 0
2, 14974, Note_on_c, 0, 75, 0
2, 14980, Note_on_c, 0, 77, 96
2, 14982, Note_on_c, 0, 68, 0
2, 15026, Note_on_c, 0, 49, 58
2, 15026, Control_c, 0, 64, 104
2, 15030, Control_c, 0, 64, 24
2, 15030, Note_on_c, 0, 73, 84
2, 15032, Note_on_c, 0, 77, 0
2, 15034, Control_c, 0, 64, 0
2, 15038, Control_c, 0, 64, 24
2, 15042, Control_c, 0, 64, 72
2, 15044, Note_on_c, 0, 49, 0
2, 15046, Control_c, 0, 64, 127
2, 15064, Note_on_c, 0, 73, 0
2, 15079, Note_on_c, 0, 59, 56
2, 15084, Note_on_c, 0, 75, 82
2, 15084, Note_on_c, 0, 65, 49
2, 15098, Note_on_c, 0, 65, 0
2, 15117, Note_on_c, 0, 75, 0
2, 15120, Note_on_c, 0, 59, 0
2, 15133, Note_on_c, 0, 49, 57
2, 15135, Note_on_c, 0, 70, 76
2, 15146, Note_on_c, 0, 49, 0
2, 15164, Note_on_c, 0, 70, 0
2, 15196, Note_on_c, 0, 71, 74
2, 15198, Note_on_c, 0, 56, 40
2, 15200, Note_on_c, 0, 59, 43
2, 15201, Note_on_c, 0, 65, 46
2, 15227, Control_c, 0, 64, 72
2, 15231, Control_c, 0, 64, 0
2, 15249, Note_on_c, 0, 71, 0
2, 15260, Control_c, 0, 64, 127
2, 15260, Note_on_c, 0, 73, 70
2, 15284, Note_on_c, 0, 65, 0
2, 15287, Note_on_c, 0, 59, 0
2, 15314, Note_on_c, 0, 73, 0
2, 15315, Note_on_c, 0, 56, 0
2, 15316, Note_on_c, 0, 68, 62
2, 15355, Note_on_c, 0, 68, 0
2, 15396, Note_on_c, 0, 70, 76
2, 15400, Control_c, 0, 64, 72
2, 15404, Note_on_c, 0, 42, 53
2, 15404, Control_c, 0, 64, 0
2, 15421, Control_c, 0, 64, 24
2, 15425, Control_c, 0, 64, 104
2, 15426, Note_on_c, 0, 42, 0
2, 15429, Control_c, 0, 64, 127
2, 15433, Note_on_c, 0, 70, 0
2, 15458, Note_on_c, 0, 71, 76
2, 15460, Note_on_c, 0, 66, 55
2, 15479, Note_on_c, 0, 66, 0
2, 15485, Note_on_c, 0, 71, 0
2, 15504, Note_on_c, 0, 72, 87
2, 15506, Note_on_c, 0, 69, 68
2, 15506, Note_on_c, 0, 58, 49
2, 15522, Note_on_c, 0, 58, 0
2, 15522, Note_on_c, 0, 69, 0
2, 15530, Note_on_c, 0, 72, 0
2, 15550, Note_on_c, 0, 75, 78
2, 15550, Note_on_c, 0, 71, 81
2, 15552, Note_on_c, 0, 66, 59
2, 15567, Note_on_c, 0, 71, 0
2, 15578, Note_on_c, 0, 66, 0
2, 15578, Note_on_c, 0, 75, 0
2, 15596, Note_on_c, 0, 58, 47
2, 15597, Note_on_c, 0, 73, 88
2, 15601, Note_on_c, 0, 70, 41
2, 15608, Note_on_c, 0, 70, 0
2, 15613, Note_on_c, 0, 73, 0
2, 15626, Note_on_c, 0, 58, 0
2, 15640, Note_on_c, 0, 82, 91
2, 15640, Note_on_c, 0, 73, 75
2, 15650, Note_on_c, 0, 61, 50
2, 15650, Note_on_c, 0, 49, 48
2, 15659, Note_on_c, 0, 73, 0
2, 15664, Note_on_c, 0, 49, 0
2, 15664, Note_on_c, 0, 61, 0
2, 15668, Note_on_c, 0, 82, 0
2, 15685, Note_on_c, 0, 83, 91
2, 15687, Note_on_c, 0, 75, 78
2, 15689, Note_on_c, 0, 54, 52
2, 15706, Note_on_c, 0, 75, 0
2, 15707, Note_on_c, 0, 83, 0
2, 15721, Note_on_c, 0, 54, 0
2, 15730, Note_on_c, 0, 82, 90
2, 15735, Note_on_c, 0, 66, 66
2, 15735, Note_on_c, 0, 73, 54
2, 15750, Note_on_c, 0, 82, 0
2, 15753, Note_on_c, 0, 73, 0
2, 15756, Note_on_c, 0, 66, 0
2, 15773, Note_on_c, 0, 77, 96
2, 15775, Note_on_c, 0, 58, 58
2, 15778, Note_on_c, 0, 68, 62
2, 15796, Note_on_c, 0, 68, 0
2, 15798, Note_on_c, 0, 77, 0
2, 15800, Note_on_c, 0, 58, 0
2, 15814, Note_on_c, 0, 66, 55
2, 15814, Note_on_c, 0, 70, 50
2, 15816, Note_on_c, 0, 78, 84
2, 15835, Note_on_c, 0, 70, 0
2, 15835, Note_on_c, 0, 66, 0
2, 15842, Note_on_c, 0, 78, 0
2, 15851, Note_on_c, 0, 58, 57
2, 15860, Note_on_c, 0, 75, 91
2, 15864, Note_on_c, 0, 66, 61
2, 15884, Note_on_c, 0, 66, 0
2, 15886, Note_on_c, 0, 75, 0
2, 15886, Note_on_c, 0, 58, 0
2, 15906, Note_on_c, 0, 78, 93
2, 15907, Note_on_c, 0, 61, 50
2, 15907, Note_on_c, 0, 49, 50
2, 15907, Note_on_c, 0, 70, 81
2, 15923, Note_on_c, 0, 70, 0
2, 15941, Note_on_c, 0, 78, 0
2, 15947, Note_on_c, 0, 49, 0
2, 15947, Note_on_c, 0, 61, 0
2, 15964, Note_on_c, 0, 56, 62
2, 15965, Control_c, 0, 64, 104
2, 15966, Note_on_c, 0, 71, 69
2, 15969, Note_on_c, 0, 77, 93
2, 15969, Control_c, 0, 64, 0
2, 15998, Note_on_c, 0, 71, 0
2, 15998, Control_c, 0, 64, 72
2, 16002, Control_c, 0, 64, 127
2, 16023, Note_on_c, 0, 65, 70
2, 16025, Note_on_c, 0, 68, 48
2, 16039, Note_on_c, 0, 77, 0
2, 16047, Note_on_c, 0, 65, 0
2, 16052, Note_on_c, 0, 68, 0
2, 16055, Note_on_c, 0, 56, 0
2, 16066, Note_on_c, 0, 71, 84
2, 16070, Note_on_c, 0, 59, 47
2, 16085, Note_on_c, 0, 59, 0
2, 16093, Note_on_c, 0, 71, 0
2, 16105, Note_on_c, 0, 73, 83
2, 16108, Note_on_c, 0, 68, 52
2, 16108, Note_on_c, 0, 65, 52
2, 16128, Note_on_c, 0, 65, 0
2, 16128, Note_on_c, 0, 68, 0
2, 16140, Note_on_c, 0, 73, 0
2, 16146, Note_on_c, 0, 77, 95
2, 16146, Note_on_c, 0, 71, 52
2, 16146, Note_on_c, 0, 59, 52
2, 16174, Note_on_c, 0, 59, 0
2, 16174, Note_on_c, 0, 71, 0
2, 16174, Note_on_c, 0, 77, 0
2, 16192, Note_on_c, 0, 75, 92
2, 16196, Note_on_c, 0, 65, 55
2, 16196, Note_on_c, 0, 61, 50
2, 16198, Note_on_c, 0, 49, 49
2, 16203, Control_c, 0, 64, 72
2, 16207, Control_c, 0, 64, 0
2, 16219, Control_c, 0, 64, 40
2, 16220, Note_on_c, 0, 75, 0
2, 16223, Note_on_c, 0, 49, 0
2, 16223, Control_c, 0, 64, 104
2, 16228, Control_c, 0, 64, 127
2, 16228, Note_on_c, 0, 77, 68
2, 16240, Note_on_c, 0, 71, 50
2, 16241, Note_on_c, 0, 75, 76
2, 16243, Note_on_c, 0, 56, 57
2, 16245, Note_on_c, 0, 61, 0
2, 16257, Note_on_c, 0, 77, 0
2, 16261, Note_on_c, 0, 71, 0
2, 16274, Note_on_c, 0, 75, 0
2, 16285, Note_on_c, 0, 74, 84
2, 16286, Note_on_c, 0, 65, 56
2, 16286, Note_on_c, 0, 68, 60
2, 16295, Note_on_c, 0, 56, 0
2, 16298, Note_on_c, 0, 65, 0
2, 16306, Note_on_c, 0, 65, 0
2, 16306, Note_on_c, 0, 68, 0
2, 16310, Note_on_c, 0, 74, 0
2, 16323, Note_on_c, 0, 73, 77
2, 16323, Note_on_c, 0, 71, 50
2, 16325, Note_on_c, 0, 59, 55
2, 16348, Note_on_c, 0, 59, 0
2, 16352, Note_on_c, 0, 71, 0
2, 16352, Note_on_c, 0, 73, 0
2, 16368, Note_on_c, 0, 72, 83
2, 16371, Note_on_c, 0, 68, 50
2, 16377, Note_on_c, 0, 65, 50
2, 16389, Note_on_c, 0, 68, 0
2, 16395, Note_on_c, 0, 72, 0
2, 16410, Note_on_c, 0, 59, 47
2, 16414, Note_on_c, 0, 73, 83
2, 16414, Note_on_c, 0, 68, 49
2, 16431, Note_on_c, 0, 65, 0
2, 16436, Note_on_c, 0, 59, 0
2, 16437, Note_on_c, 0, 73, 0
2, 16437, Note_on_c, 0, 68, 0
2, 16459, Note_on_c, 0, 71, 88
2, 16465, Note_on_c, 0, 65, 55
2, 16468, Note_on_c, 0, 62, 50
2, 16470, Note_on_c, 0, 50, 48
2, 16474, Note_on_c, 0, 65, 0
2, 16476, Note_on_c, 0, 62, 0
2, 16492, Note_on_c, 0, 50, 0
2, 16505, Control_c, 0, 64, 56
2, 16515, Note_on_c, 0, 66, 75
2, 16517, Note_on_c, 0, 51, 59
2, 16518, Control_c, 0, 64, 0
2, 16534, Control_c, 0, 64, 56
2, 16536, Note_on_c, 0, 71, 0
2, 16538, Control_c, 0, 64, 127
2, 16540, Note_on_c, 0, 51, 0
2, 16552, Note_on_c, 0, 66, 0
2, 16567, Note_on_c, 0, 58, 65
2, 16570, Note_on_c, 0, 63, 61
2, 16590, Note_on_c, 0, 63, 0
2, 16590, Note_on_c, 0, 58, 0
2, 16607, Note_on_c, 0, 70, 85
2, 16610, Note_on_c, 0, 54, 60
2, 16616, Note_on_c, 0, 66, 57
2, 16628, Note_on_c, 0, 66, 0
2, 16633, Note_on_c, 0, 54, 0
2, 16637, Note_on_c, 0, 70, 0
2, 16650, Note_on_c, 0, 69, 89
2, 16651, Note_on_c, 0, 63, 65
2, 16656, Note_on_c, 0, 58, 44
2, 16663, Note_on_c, 0, 58, 0
2, 16670, Note_on_c, 0, 63, 0
2, 16681, Note_on_c, 0, 69, 0
2, 16688, Note_on_c, 0, 54, 60
2, 16690, Note_on_c, 0, 66, 59
2, 16691, Note_on_c, 0, 70, 87
2, 16703, Note_on_c, 0, 54, 0
2, 16705, Note_on_c, 0, 66, 0
2, 16708, Note_on_c, 0, 70, 0
2, 16713, Note_on_c, 0, 66, 70
2, 16726, Note_on_c, 0, 66, 0
2, 16734, Note_on_c, 0, 78, 92
2, 16737, Note_on_c, 0, 70, 76
2, 16738, Note_on_c, 0, 58, 52
2, 16740, Note_on_c, 0, 46, 52
2, 16753, Note_on_c, 0, 70, 0
2, 16760, Note_on_c, 0, 78, 0
2, 16763, Note_on_c, 0, 58, 0
2, 16765, Note_on_c, 0, 46, 0
2, 16778, Note_on_c, 0, 77, 90
2, 16780, Note_on_c, 0, 68, 69
2, 16782, Note_on_c, 0, 51, 55
2, 16797, Note_on_c, 0, 68, 0
2, 16799, Note_on_c, 0, 77, 0
2, 16809, Note_on_c, 0, 51, 0
2, 16822, Note_on_c, 0, 63, 60
2, 16825, Note_on_c, 0, 76, 96
2, 16834, Note_on_c, 0, 67, 59
2, 16842, Note_on_c, 0, 67, 0
2, 16844, Note_on_c, 0, 63, 0
2, 16846, Note_on_c, 0, 76, 0
2, 16864, Note_on_c, 0, 75, 87
2, 16866, Note_on_c, 0, 66, 74
2, 16866, Note_on_c, 0, 54, 61
2, 16882, Note_on_c, 0, 66, 0
2, 16890, Note_on_c, 0, 54, 0
2, 16893, Note_on_c, 0, 75, 0
2, 16905, Note_on_c, 0, 63, 55
2, 16907, Note_on_c, 0, 74, 90
2, 16907, Note_on_c, 0, 65, 60
2, 16923, Note_on_c, 0, 63, 0
2, 16931, Note_on_c, 0, 65, 0
2, 16931, Note_on_c, 0, 74, 0
2, 16948, Note_on_c, 0, 54, 54
2, 16950, Note_on_c, 0, 75, 98
2, 16950, Note_on_c, 0, 66, 57
2, 16974, Note_on_c, 0, 66, 0
2, 16974, Note_on_c, 0, 75, 0
2, 16985, Note_on_c, 0, 54, 0
2, 16993, Note_on_c, 0, 46, 54
2, 16993, Note_on_c, 0, 58, 54
2, 16995, Note_on_c, 0, 71, 93
2, 16996, Note_on_c, 0, 63, 72
2, 17012, Note_on_c, 0, 63, 0
2, 17031, Note_on_c, 0, 46, 0
2, 17031, Note_on_c, 0, 58, 0
2, 17038, Control_c, 0, 64, 104
2, 17042, Note_on_c, 0, 62, 69
2, 17042, Control_c, 0, 64, 0
2, 17045, Note_on_c, 0, 53, 51
2, 17065, Note_on_c, 0, 70, 69
2, 17066, Note_on_c, 0, 62, 0
2, 17068, Note_on_c, 0, 71, 0
2, 17070, Control_c, 0, 64, 56
2, 17073, Note_on_c, 0, 71, 70
2, 17074, Control_c, 0, 64, 127
2, 17076, Note_on_c, 0, 70, 0
2, 17080, Note_on_c, 0, 53, 0
2, 17084, Note_on_c, 0, 71, 0
2, 17084, Note_on_c, 0, 70, 82
2, 17084, Note_on_c, 0, 68, 60
2, 17091, Note_on_c, 0, 65, 54
2, 17105, Note_on_c, 0, 65, 0
2, 17110, Note_on_c, 0, 68, 0
2, 17110, Note_on_c, 0, 70, 0
2, 17126, Note_on_c, 0, 69, 88
2, 17130, Note_on_c, 0, 56, 60
2, 17151, Note_on_c, 0, 69, 0
2, 17155, Note_on_c, 0, 56, 0
2, 17165, Note_on_c, 0, 70, 88
2, 17169, Note_on_c, 0, 62, 58
2, 17171, Note_on_c, 0, 68, 58
2, 17183, Note_on_c, 0, 62, 0
2, 17192, Note_on_c, 0, 68, 0
2, 17198, Note_on_c, 0, 70, 0
2, 17206, Note_on_c, 0, 56, 55
2, 17209, Note_on_c, 0, 73, 88
2, 17238, Note_on_c, 0, 73, 0
2, 17240, Note_on_c, 0, 56, 0
2, 17254, Note_on_c, 0, 58, 52
2, 17254, Note_on_c, 0, 46, 49
2, 17255, Note_on_c, 0, 72, 85
2, 17260, Note_on_c, 0, 68, 58
2, 17264, Control_c, 0, 64, 40
2, 17267, Control_c, 0, 64, 0
2, 17289, Note_on_c, 0, 68, 0
2, 17292, Control_c, 0, 64, 104
2, 17293, Note_on_c, 0, 58, 0
2, 17293, Note_on_c, 0, 46, 0
2, 17296, Control_c, 0, 64, 127
2, 17301, Note_on_c, 0, 62, 72
2, 17304, Note_on_c, 0, 53, 48
2, 17308, Note_on_c, 0, 72, 0
2, 17329, Note_on_c, 0, 62, 0
2, 17345, Note_on_c, 0, 71, 75
2, 17345, Note_on_c, 0, 68, 55
2, 17346, Note_on_c, 0, 53, 0
2, 17348, Note_on_c, 0, 65, 59
2, 17368, Note_on_c, 0, 65, 0
2, 17370, Note_on_c, 0, 68, 0
2, 17370, Note_on_c, 0, 71, 0
2, 17382, Note_on_c, 0, 62, 50
2, 17385, Note_on_c, 0, 56, 59
2, 17386, Note_on_c, 0, 70, 74
2, 17410, Note_on_c, 0, 62, 0
2, 17413, Note_on_c, 0, 56, 0
2, 17414, Note_on_c, 0, 70, 0
2, 17428, Note_on_c, 0, 65, 61
2, 17428, Note_on_c, 0, 69, 76
2, 17428, Note_on_c, 0, 68, 60
2, 17453, Note_on_c, 0, 68, 0
2, 17453, Note_on_c, 0, 69, 0
2, 17467, Note_on_c, 0, 56, 47
2, 17473, Note_on_c, 0, 70, 76
2, 17473, Note_on_c, 0, 62, 50
2, 17492, Note_on_c, 0, 65, 0
2, 17496, Note_on_c, 0, 56, 0
2, 17502, Note_on_c, 0, 70, 0
2, 17502, Note_on_c, 0, 62, 0
2, 17514, Note_on_c, 0, 68, 76
2, 17514, Note_on_c, 0, 65, 48
2, 17517, Note_on_c, 0, 58, 48
2, 17517, Note_on_c, 0, 46, 45
2, 17540, Note_on_c, 0, 68, 0
2, 17565, Note_on_c, 0, 46, 0
2, 17565, Note_on_c, 0, 58, 0
2, 17569, Note_on_c, 0, 66, 84
2, 17574, Note_on_c, 0, 51, 52
2, 17579, Control_c, 0, 64, 88
2, 17583, Control_c, 0, 64, 0
2, 17607, Control_c, 0, 64, 24
2, 17611, Control_c, 0, 64, 88
2, 17614, Note_on_c, 0, 65, 0
2, 17616, Note_on_c, 0, 51, 0
2, 17620, Note_on_c, 0, 63, 65
2, 17622, Control_c, 0, 64, 127
2, 17627, Note_on_c, 0, 58, 39
2, 17660, Note_on_c, 0, 63, 0
2, 17667, Note_on_c, 0, 61, 74
2, 17667, Note_on_c, 0, 51, 48
2, 17683, Note_on_c, 0, 51, 0
2, 17706, Control_c, 0, 64, 40
2, 17708, Note_on_c, 0, 61, 0
2, 17711, Control_c, 0, 64, 0
2, 17715, Note_on_c, 0, 60, 77
2, 17723, Control_c, 0, 64, 24
2, 17723, Note_on_c, 0, 44, 50
2, 17727, Note_on_c, 0, 58, 0
2, 17727, Control_c, 0, 64, 72
2, 17731, Control_c, 0, 64, 127
2, 17733, Note_on_c, 0, 66, 0
2, 17753, Note_on_c, 0, 44, 0
2, 17762, Note_on_c, 0, 56, 47
2, 17763, Note_on_c, 0, 65, 86
2, 17777, Note_on_c, 0, 60, 0
2, 17791, Note_on_c, 0, 56, 0
2, 17798, Note_on_c, 0, 65, 0
2, 17807, Note_on_c, 0, 51, 61
2, 17808, Note_on_c, 0, 66, 90
2, 17824, Note_on_c, 0, 51, 0
2, 17840, Note_on_c, 0, 66, 0
2, 17860, Control_c, 0, 64, 40
2, 17864, Control_c, 0, 64, 0
2, 17865, Note_on_c, 0, 70, 90
2, 17867, Note_on_c, 0, 49, 56
2, 17868, Note_on_c, 0, 59, 66
2, 17869, Note_on_c, 0, 54, 59
2, 17878, Note_on_c, 0, 59, 0
2, 17896, Control_c, 0, 64, 40
2, 17901, Control_c, 0, 64, 72
2, 17905, Note_on_c, 0, 54, 0
2, 17905, Control_c, 0, 64, 104
2, 17909, Control_c, 0, 64, 127
2, 17909, Note_on_c, 0, 59, 22
2, 17916, Note_on_c, 0, 68, 81
2, 17917, Note_on_c, 0, 53, 52
2, 17925, Note_on_c, 0, 70, 0
2, 17941, Note_on_c, 0, 53, 0
2, 17954, Note_on_c, 0, 68, 0
2, 17957, Note_on_c, 0, 63, 81
2, 17959, Note_on_c, 0, 54, 60
2, 17985, Note_on_c, 0, 54, 0
2, 17994, Note_on_c, 0, 63, 0
2, 18004, Note_on_c, 0, 61, 82
2, 18008, Note_on_c, 0, 56, 48
2, 18025, Control_c, 0, 64, 88
2, 18029, Control_c, 0, 64, 0
2, 18045, Note_on_c, 0, 61, 0
2, 18048, Note_on_c, 0, 65, 69
2, 18057, Note_on_c, 0, 63, 83
2, 18058, Control_c, 0, 64, 104
2, 18062, Control_c, 0, 64, 127
2, 18071, Note_on_c, 0, 65, 0
2, 18071, Note_on_c, 0, 59, 0
2, 18089, Note_on_c, 0, 56, 0
2, 18097, Note_on_c, 0, 49, 0
2, 18103, Note_on_c, 0, 63, 0
2, 18105, Note_on_c, 0, 61, 90
2, 18121, Note_on_c, 0, 61, 0
2, 18173, Note_on_c, 0, 70, 97
2, 18175, Control_c, 0, 64, 40
2, 18178, Note_on_c, 0, 30, 58
2, 18179, Control_c, 0, 64, 0
2, 18198, Note_on_c, 0, 30, 0
2, 18199, Control_c, 0, 64, 40
2, 18203, Control_c, 0, 64, 127
2, 18233, Note_on_c, 0, 64, 65
2, 18241, Note_on_c, 0, 54, 56
2, 18242, Note_on_c, 0, 61, 64
2, 18249, Note_on_c, 0, 61, 0
2, 18249, Note_on_c, 0, 54, 0
2, 18252, Note_on_c, 0, 64, 0
2, 18279, Note_on_c, 0, 64, 65
2, 18280, Note_on_c, 0, 61, 68
2, 18281, Note_on_c, 0, 54, 49
2, 18291, Note_on_c, 0, 54, 0
2, 18294, Note_on_c, 0, 61, 0
2, 18299, Note_on_c, 0, 64, 0
2, 18329, Note_on_c, 0, 54, 61
2, 18330, Note_on_c, 0, 61, 64
2, 18331, Note_on_c, 0, 64, 68
2, 18371, Note_on_c, 0, 70, 0
2, 18378, Note_on_c, 0, 68, 96
2, 18399, Note_on_c, 0, 61, 0
2, 18410, Note_on_c, 0, 54, 0
2, 18422, Note_on_c, 0, 68, 0
2, 18431, Note_on_c, 0, 64, 0
2, 18431, Note_on_c, 0, 70, 96
2, 18467, Note_on_c, 0, 70, 0
2, 18498, Note_on_c, 0, 73, 92
2, 18504, Note_on_c, 0, 64, 71
2, 18509, Control_c, 0, 64, 88
2, 18509, Note_on_c, 0, 55, 47
2, 18513, Control_c, 0, 64, 0
2, 18515, Note_on_c, 0, 47, 51
2, 18533, Note_on_c, 0, 64, 0
2, 18542, Control_c, 0, 64, 72
2, 18546, Control_c, 0, 64, 127
2, 18557, Note_on_c, 0, 73, 0
2, 18569, Note_on_c, 0, 71, 90
2, 18573, Note_on_c, 0, 63, 65
2, 18578, Note_on_c, 0, 56, 57
2, 18578, Control_c, 0, 64, 24
2, 18581, Note_on_c, 0, 55, 0
2, 18582, Control_c, 0, 64, 0
2, 18598, Control_c, 0, 64, 72
2, 18602, Control_c, 0, 64, 127
2, 18623, Note_on_c, 0, 63, 0
2, 18625, Note_on_c, 0, 71, 0
2, 18631, Note_on_c, 0, 56, 0
2, 18666, Note_on_c, 0, 70, 78
2, 18668, Note_on_c, 0, 58, 58
2, 18670, Note_on_c, 0, 61, 57
2, 18672, Note_on_c, 0, 67, 54
2, 18678, Note_on_c, 0, 61, 0
2, 18680, Note_on_c, 0, 67, 0
2, 18683, Note_on_c, 0, 58, 0
2, 18685, Note_on_c, 0, 70, 0
2, 18699, Note_on_c, 0, 70, 76
2, 18701, Note_on_c, 0, 61, 58
2, 18702, Control_c, 0, 64, 56
2, 18704, Note_on_c, 0, 67, 47
2, 18707, Note_on_c, 0, 58, 46
2, 18707, Control_c, 0, 64, 0
2, 18723, Control_c, 0, 64, 40
2, 18727, Control_c, 0, 64, 104
2, 18730, Note_on_c, 0, 67, 0
2, 18731, Control_c, 0, 64, 127
2, 18734, Note_on_c, 0, 61, 0
2, 18747, Note_on_c, 0, 58, 0
2, 18777, Note_on_c, 0, 70, 0
2, 18778, Note_on_c, 0, 68, 74
2, 18782, Note_on_c, 0, 63, 54
2, 18787, Note_on_c, 0, 59, 38
2, 18792, Control_c, 0, 64, 72
2, 18796, Control_c, 0, 64, 0
2, 18832, Control_c, 0, 64, 127
2, 18844, Note_on_c, 0, 47, 0
2, 18851, Note_on_c, 0, 59, 0
2, 18855, Note_on_c, 0, 63, 0
2, 18855, Note_on_c, 0, 68, 0
2, 18863, Note_on_c, 0, 75, 69
2, 18897, Note_on_c, 0, 75, 0
2, 18959, Note_on_c, 0, 68, 70
2, 18962, Note_on_c, 0, 63, 44
2, 18962, Note_on_c, 0, 66, 46
2, 19014, Control_c, 0, 64, 72
2, 19018, Control_c, 0, 64, 0
2, 19026, Note_on_c, 0, 62, 61
2, 19038, Control_c, 0, 64, 24
2, 19041, Control_c, 0, 64, 88
2, 19045, Control_c, 0, 64, 127
2, 19049, Note_on_c, 0, 62, 0
2, 19074, Note_on_c, 0, 61, 45
2, 19093, Note_on_c, 0, 61, 0
2, 19113, Note_on_c, 0, 60, 53
2, 19149, Note_on_c, 0, 60, 0
2, 19156, Note_on_c, 0, 59, 52
2, 19177, Note_on_c, 0, 68, 0
2, 19190, Note_on_c, 0, 70, 82
2, 19192, Note_on_c, 0, 59, 0
2, 19197, Note_on_c, 0, 58, 59
2, 19202, Note_on_c, 0, 66, 0
2, 19206, Note_on_c, 0, 63, 0
2, 19214, Note_on_c, 0, 58, 0
2, 19231, Note_on_c, 0, 70, 0
2, 19247, Note_on_c, 0, 73, 92
2, 19250, Note_on_c, 0, 58, 30
2, 19260, Control_c, 0, 64, 104
2, 19264, Control_c, 0, 64, 24
2, 19268, Control_c, 0, 64, 0
2, 19280, Note_on_c, 0, 58, 0
2, 19287, Control_c, 0, 64, 40
2, 19291, Note_on_c, 0, 73, 0
2, 19292, Control_c, 0, 64, 127
2, 19295, Note_on_c, 0, 51, 51
2, 19303, Note_on_c, 0, 71, 92
2, 19342, Note_on_c, 0, 71, 0
2, 19343, Note_on_c, 0, 51, 0
2, 19349, Note_on_c, 0, 47, 57
2, 19359, Note_on_c, 0, 47, 0
2, 19384, Note_on_c, 0, 70, 83
2, 19401, Note_on_c, 0, 70, 0
2, 19419, Note_on_c, 0, 70, 75
2, 19421, Note_on_c, 0, 63, 46
2, 19423, Note_on_c, 0, 66, 46
2, 19449, Control_c, 0, 64, 72
2, 19453, Control_c, 0, 64, 0
2, 19481, Note_on_c, 0, 70, 0
2, 19489, Note_on_c, 0, 68, 73
2, 19498, Control_c, 0, 64, 127
2, 19549, Note_on_c, 0, 63, 0
2, 19552, Note_on_c, 0, 68, 0
2, 19558, Note_on_c, 0, 75, 76
2, 19576, Note_on_c, 0, 66, 0
2, 19582, Note_on_c, 0, 75, 0
2, 19630, Note_on_c, 0, 68, 70
2, 19632, Note_on_c, 0, 63, 46
2, 19633, Note_on_c, 0, 66, 50
2, 19675, Control_c, 0, 64, 72
2, 19678, Control_c, 0, 64, 0
2, 19688, Note_on_c, 0, 62, 60
2, 19703, Control_c, 0, 64, 88
2, 19707, Control_c, 0, 64, 127
2, 19713, Note_on_c, 0, 62, 0
2, 19729, Note_on_c, 0, 61, 58
2, 19756, Note_on_c, 0, 61, 0
2, 19771, Note_on_c, 0, 60, 57
2, 19810, Note_on_c, 0, 60, 0
2, 19810, Note_on_c, 0, 59, 56
2, 19826, Note_on_c, 0, 68, 0
2, 19837, Note_on_c, 0, 66, 0
2, 19841, Note_on_c, 0, 70, 78
2, 19851, Note_on_c, 0, 59, 0
2, 19851, Note_on_c, 0, 58, 55
2, 19866, Note_on_c, 0, 58, 0
2, 19890, Note_on_c, 0, 70, 0
2, 19899, Note_on_c, 0, 56, 54
2, 19901, Note_on_c, 0, 73, 76
2, 19905, Control_c, 0, 64, 104
2, 19909, Control_c, 0, 64, 0
2, 19933, Control_c, 0, 64, 72
2, 19937, Control_c, 0, 64, 127
2, 19940, Note_on_c, 0, 73, 0
2, 19948, Note_on_c, 0, 56, 0
2, 19949, Note_on_c, 0, 51, 52
2, 19955, Note_on_c, 0, 71, 74
2, 19987, Note_on_c, 0, 63, 0
2, 19990, Note_on_c, 0, 51, 0
2, 20003, Note_on_c, 0, 47, 48
2, 20010, Note_on_c, 0, 47, 0
2, 20014, Note_on_c, 0, 71, 0
2, 20033, Note_on_c, 0, 70, 73
2, 20050, Note_on_c, 0, 70, 0
2, 20071, Note_on_c, 0, 70, 70
2, 20075, Note_on_c, 0, 66, 52
2, 20077, Note_on_c, 0, 63, 48
2, 20095, Control_c, 0, 64, 56
2, 20099, Control_c, 0, 64, 0
2, 20127, Control_c, 0, 64, 24
2, 20131, Control_c, 0, 64, 72
2, 20143, Control_c, 0, 64, 0
2, 20143, Note_on_c, 0, 68, 68
2, 20149, Note_on_c, 0, 70, 0
2, 20162, Control_c, 0, 64, 72
2, 20167, Control_c, 0, 64, 127
2, 20175, Note_on_c, 0, 68, 0
2, 20207, Note_on_c, 0, 63, 0
2, 20230, Note_on_c, 0, 78, 60
2, 20252, Note_on_c, 0, 66, 0
2, 20259, Note_on_c, 0, 78, 0
2, 20362, Note_on_c, 0, 68, 65
2, 20366, Note_on_c, 0, 63, 45
2, 20368, Note_on_c, 0, 66, 41
2, 20376, Note_on_c, 0, 35, 34
2, 20377, Note_on_c, 0, 47, 27
2, 20389, Control_c, 0, 64, 88
2, 20393, Control_c, 0, 64, 0
2, 20421, Control_c, 0, 64, 56
2, 20425, Control_c, 0, 64, 127
2, 20442, Note_on_c, 0, 35, 0
2, 20445, Note_on_c, 0, 66, 0
2, 20445, Note_on_c, 0, 47, 0
2, 20449, Note_on_c, 0, 63, 0
2, 20453, Note_on_c, 0, 68, 0
2, 20534, Note_on_c, 0, 70, 65
2, 20540, Note_on_c, 0, 61, 41
2, 20540, Note_on_c, 0, 49, 35
2, 20540, Note_on_c, 0, 66, 41
2, 20543, Note_on_c, 0, 37, 32
2, 20554, Control_c, 0, 64, 88
2, 20558, Control_c, 0, 64, 0
2, 20583, Control_c, 0, 64, 72
2, 20587, Control_c, 0, 64, 127
2, 20598, Note_on_c, 0, 66, 0
2, 20605, Note_on_c, 0, 61, 0
2, 20606, Note_on_c, 0, 37, 0
2, 20608, Note_on_c, 0, 49, 0
2, 20610, Note_on_c, 0, 70, 0
2, 20691, Note_on_c, 0, 71, 73
2, 20693, Note_on_c, 0, 66, 50
2, 20695, Note_on_c, 0, 51, 46
2, 20695, Note_on_c, 0, 59, 43
2, 20697, Note_on_c, 0, 39, 38
2, 20703, Control_c, 0, 64, 104
2, 20708, Control_c, 0, 64, 24
2, 20712, Control_c, 0, 64, 0
2, 20728, Control_c, 0, 64, 24
2, 20732, Control_c, 0, 64, 104
2, 20736, Control_c, 0, 64, 127
2, 20749, Note_on_c, 0, 66, 0
2, 20770, Note_on_c, 0, 39, 0
2, 20771, Note_on_c, 0, 59, 0
2, 20775, Note_on_c, 0, 51, 0
2, 20801, Note_on_c, 0, 71, 0
2, 20842, Note_on_c, 0, 68, 66
2, 20850, Note_on_c, 0, 59, 43
2, 20851, Note_on_c, 0, 61, 42
2, 20852, Note_on_c, 0, 53, 36
2, 20858, Note_on_c, 0, 41, 43
2, 20865, Control_c, 0, 64, 40
2, 20869, Control_c, 0, 64, 0
2, 20893, Control_c, 0, 64, 88
2, 20897, Control_c, 0, 64, 127
2, 20912, Note_on_c, 0, 59, 0
2, 20914, Note_on_c, 0, 41, 0
2, 20922, Note_on_c, 0, 53, 0
2, 20926, Note_on_c, 0, 61, 0
2, 20930, Note_on_c, 0, 68, 0
2, 20996, Note_on_c, 0, 70, 69
2, 21001, Note_on_c, 0, 58, 35
2, 21003, Note_on_c, 0, 61, 45
2, 21007, Note_on_c, 0, 54, 41
2, 21010, Note_on_c, 0, 42, 34
2, 21018, Control_c, 0, 64, 56
2, 21022, Control_c, 0, 64, 0
2, 21047, Control_c, 0, 64, 104
2, 21051, Control_c, 0, 64, 127
2, 21083, Note_on_c, 0, 54, 0
2, 21085, Note_on_c, 0, 70, 0
2, 21092, Note_on_c, 0, 42, 0
2, 21094, Note_on_c, 0, 58, 0
2, 21105, Note_on_c, 0, 61, 0
2, 21153, Note_on_c, 0, 63, 66
2, 21156, Note_on_c, 0, 54, 32
2, 21159, Note_on_c, 0, 59, 43
2, 21161, Note_on_c, 0, 47, 47
2, 21171, Control_c, 0, 64, 104
2, 21175, Control_c, 0, 64, 24
2, 21179, Control_c, 0, 64, 0
2, 21200, Control_c, 0, 64, 40
2, 21204, Control_c, 0, 64, 127
2, 21211, Note_on_c, 0, 59, 0
2, 21271, Note_on_c, 0, 47, 0
2, 21292, Note_on_c, 0, 54, 0
2, 21293, Note_on_c, 0, 63, 0
2, 21311, Note_on_c, 0, 66, 63
2, 21316, Note_on_c, 0, 49, 42
2, 21316, Note_on_c, 0, 58, 36
2, 21318, Note_on_c, 0, 61, 37
2, 21329, Control_c, 0, 64, 72
2, 21332, Control_c, 0, 64, 0
2, 21361, Control_c, 0, 64, 104
2, 21365, Control_c, 0, 64, 127
2, 21427, Note_on_c, 0, 58, 0
2, 21447, Note_on_c, 0, 49, 0
2, 21479, Note_on_c, 0, 66, 0
2, 21491, Note_on_c, 0, 56, 38
2, 21493, Note_on_c, 0, 65, 61
2, 21530, Control_c, 0, 64, 72
2, 21534, Control_c, 0, 64, 56
2, 21547, Control_c, 0, 64, 127
2, 21569, Note_on_c, 0, 56, 0
2, 21572, Note_on_c, 0, 61, 0
2, 21584, Note_on_c, 0, 65, 0
2, 21675, Note_on_c, 0, 68, 64
2, 21679, Note_on_c, 0, 63, 55
2, 21683, Note_on_c, 0, 54, 36
2, 21687, Control_c, 0, 64, 88
2, 21689, Note_on_c, 0, 47, 41
2, 21692, Control_c, 0, 64, 24
2, 21696, Control_c, 0, 64, 0
2, 21716, Control_c, 0, 64, 56
2, 21720, Control_c, 0, 64, 127
2, 21739, Note_on_c, 0, 54, 0
2, 21739, Note_on_c, 0, 63, 0
2, 21749, Note_on_c, 0, 47, 0
2, 21759, Note_on_c, 0, 62, 48
2, 21759, Note_on_c, 0, 50, 50
2, 21785, Note_on_c, 0, 50, 0
2, 21785, Note_on_c, 0, 62, 0
2, 21803, Note_on_c, 0, 49, 50
2, 21804, Note_on_c, 0, 61, 52
2, 21818, Note_on_c, 0, 61, 0
2, 21831, Note_on_c, 0, 49, 0
2, 21839, Note_on_c, 0, 68, 0
2, 21844, Note_on_c, 0, 48, 54
2, 21846, Note_on_c, 0, 60, 50
2, 21862, Note_on_c, 0, 60, 0
2, 21871, Note_on_c, 0, 48, 0
2, 21884, Note_on_c, 0, 47, 51
2, 21888, Note_on_c, 0, 59, 56
2, 21902, Note_on_c, 0, 59, 0
2, 21909, Note_on_c, 0, 47, 0
2, 21925, Control_c, 0, 64, 56
2, 21926, Note_on_c, 0, 46, 57
2, 21929, Note_on_c, 0, 58, 55
2, 21929, Note_on_c, 0, 70, 84
2, 21929, Control_c, 0, 64, 0
2, 21946, Control_c, 0, 64, 56
2, 21950, Control_c, 0, 64, 127
2, 21952, Note_on_c, 0, 70, 0
2, 21952, Note_on_c, 0, 58, 0
2, 21960, Note_on_c, 0, 46, 0
2, 21981, Note_on_c, 0, 73, 97
2, 21985, Note_on_c, 0, 63, 72
2, 21986, Note_on_c, 0, 56, 64
2, 21987, Note_on_c, 0, 44, 64
2, 21989, Note_on_c, 0, 66, 50
2, 21997, Note_on_c, 0, 66, 0
2, 21997, Note_on_c, 0, 56, 0
2, 22000, Note_on_c, 0, 63, 0
2, 22003, Note_on_c, 0, 44, 0
2, 22016, Note_on_c, 0, 73, 0
2, 22031, Note_on_c, 0, 71, 81
2, 22035, Note_on_c, 0, 51, 64
2, 22035, Note_on_c, 0, 39, 55
2, 22045, Note_on_c, 0, 39, 0
2, 22045, Note_on_c, 0, 51, 0
2, 22073, Note_on_c, 0, 71, 0
2, 22076, Note_on_c, 0, 44, 65
2, 22078, Note_on_c, 0, 32, 68
2, 22085, Note_on_c, 0, 32, 0
2, 22086, Note_on_c, 0, 44, 0
2, 22101, Note_on_c, 0, 70, 79
2, 22116, Note_on_c, 0, 70, 0
2, 22130, Note_on_c, 0, 70, 74
2, 22134, Note_on_c, 0, 51, 66
2, 22134, Note_on_c, 0, 66, 61
2, 22134, Note_on_c, 0, 63, 53
2, 22139, Control_c, 0, 64, 88
2, 22143, Control_c, 0, 64, 0
2, 22176, Control_c, 0, 64, 72
2, 22180, Note_on_c, 0, 70, 0
2, 22180, Control_c, 0, 64, 127
2, 22191, Note_on_c, 0, 68, 76
2, 22237, Note_on_c, 0, 68, 0
2, 22238, Note_on_c, 0, 75, 82
2, 22254, Note_on_c, 0, 66, 0
2, 22266, Note_on_c, 0, 75, 0
2, 22297, Control_c, 0, 64, 104
2, 22298, Note_on_c, 0, 68, 72
2, 22301, Control_c, 0, 64, 24
2, 22305, Control_c, 0, 64, 0
2, 22307, Note_on_c, 0, 66, 45
2, 22316, Note_on_c, 0, 66, 0
2, 22316, Control_c, 0, 64, 56
2, 22321, Control_c, 0, 64, 127
2, 22325, Note_on_c, 0, 51, 0
2, 22347, Note_on_c, 0, 68, 0
2, 22355, Note_on_c, 0, 62, 64
2, 22356, Note_on_c, 0, 50, 57
2, 22373, Note_on_c, 0, 50, 0
2, 22374, Note_on_c, 0, 63, 0
2, 22381, Note_on_c, 0, 62, 0
2, 22397, Note_on_c, 0, 61, 61
2, 22398, Note_on_c, 0, 49, 58
2, 22421, Note_on_c, 0, 49, 0
2, 22424, Note_on_c, 0, 61, 0
2, 22438, Note_on_c, 0, 48, 77
2, 22440, Note_on_c, 0, 60, 68
2, 22459, Note_on_c, 0, 48, 0
2, 22466, Note_on_c, 0, 60, 0
2, 22479, Note_on_c, 0, 59, 69
2, 22481, Note_on_c, 0, 47, 55
2, 22495, Note_on_c, 0, 59, 0
2, 22503, Note_on_c, 0, 47, 0
2, 22519, Note_on_c, 0, 46, 64
2, 22521, Note_on_c, 0, 70, 88
2, 22521, Note_on_c, 0, 58, 68
2, 22533, Note_on_c, 0, 58, 0
2, 22539, Note_on_c, 0, 70, 0
2, 22550, Note_on_c, 0, 46, 0
2, 22563, Control_c, 0, 64, 40
2, 22567, Control_c, 0, 64, 0
2, 22574, Note_on_c, 0, 73, 89
2, 22575, Note_on_c, 0, 63, 74
2, 22577, Note_on_c, 0, 66, 62
2, 22577, Note_on_c, 0, 56, 61
2, 22577, Note_on_c, 0, 44, 58
2, 22589, Note_on_c, 0, 56, 0
2, 22590, Control_c, 0, 64, 88
2, 22594, Control_c, 0, 64, 127
2, 22596, Note_on_c, 0, 44, 0
2, 22600, Note_on_c, 0, 73, 0
2, 22604, Note_on_c, 0, 63, 0
2, 22608, Note_on_c, 0, 66, 0
2, 22622, Note_on_c, 0, 71, 87
2, 22628, Note_on_c, 0, 39, 70
2, 22629, Note_on_c, 0, 51, 64
2, 22637, Note_on_c, 0, 51, 0
2, 22642, Note_on_c, 0, 39, 0
2, 22668, Note_on_c, 0, 71, 0
2, 22670, Note_on_c, 0, 32, 73
2, 22670, Note_on_c, 0, 44, 60
2, 22677, Note_on_c, 0, 32, 0
2, 22681, Note_on_c, 0, 44, 0
2, 22701, Note_on_c, 0, 70, 79
2, 22719, Note_on_c, 0, 70, 0
2, 22741, Note_on_c, 0, 70, 78
2, 22743, Note_on_c, 0, 66, 59
2, 22743, Note_on_c, 0, 63, 52
2, 22747, Note_on_c, 0, 51, 45
2, 22753, Control_c, 0, 64, 72
2, 22757, Control_c, 0, 64, 0
2, 22788, Control_c, 0, 64, 88
2, 22793, Control_c, 0, 64, 127
2, 22810, Note_on_c, 0, 68, 78
2, 22811, Note_on_c, 0, 70, 0
2, 22819, Note_on_c, 0, 66, 0
2, 22819, Note_on_c, 0, 63, 0
2, 22829, Note_on_c, 0, 68, 0
2, 22840, Note_on_c, 0, 51, 0
2, 22923, Note_on_c, 0, 90, 66
2, 22927, Note_on_c, 0, 78, 54
2, 22962, Note_on_c, 0, 78, 0
2, 22970, Note_on_c, 0, 90, 0
2, 23177, Note_on_c, 0, 68, 60
2, 23182, Note_on_c, 0, 66, 39
2, 23183, Note_on_c, 0, 63, 27
2, 23188, Note_on_c, 0, 47, 27
2, 23189, Note_on_c, 0, 35, 27
2, 23208, Control_c, 0, 64, 72
2, 23212, Control_c, 0, 64, 0
2, 23236, Control_c, 0, 64, 40
2, 23240, Control_c, 0, 64, 127
2, 23253, Note_on_c, 0, 66, 0
2, 23255, Note_on_c, 0, 63, 0
2, 23259, Note_on_c, 0, 35, 0
2, 23260, Note_on_c, 0, 47, 0
2, 23263, Note_on_c, 0, 68, 0
2, 23335, Note_on_c, 0, 70, 62
2, 23338, Note_on_c, 0, 66, 41
2, 23338, Note_on_c, 0, 61, 34
2, 23343, Note_on_c, 0, 49, 36
2, 23347, Note_on_c, 0, 37, 29
2, 23349, Control_c, 0, 64, 104
2, 23353, Control_c, 0, 64, 56
2, 23357, Control_c, 0, 64, 0
2, 23377, Control_c, 0, 64, 88
2, 23381, Control_c, 0, 64, 127
2, 23395, Note_on_c, 0, 66, 0
2, 23397, Note_on_c, 0, 70, 0
2, 23398, Note_on_c, 0, 61, 0
2, 23406, Note_on_c, 0, 37, 0
2, 23410, Note_on_c, 0, 49, 0
2, 23487, Note_on_c, 0, 71, 72
2, 23491, Note_on_c, 0, 66, 46
2, 23491, Note_on_c, 0, 59, 37
2, 23493, Note_on_c, 0, 51, 36
2, 23493, Note_on_c, 0, 39, 38
2, 23503, Control_c, 0, 64, 72
2, 23507, Control_c, 0, 64, 24
2, 23511, Control_c, 0, 64, 0
2, 23530, Control_c, 0, 64, 56
2, 23535, Control_c, 0, 64, 127
2, 23555, Note_on_c, 0, 66, 0
2, 23559, Note_on_c, 0, 71, 0
2, 23567, Note_on_c, 0, 39, 0
2, 23569, Note_on_c, 0, 51, 0
2, 23578, Note_on_c, 0, 59, 0
2, 23634, Note_on_c, 0, 68, 66
2, 23641, Note_on_c, 0, 59, 43
2, 23642, Note_on_c, 0, 61, 41
2, 23646, Note_on_c, 0, 53, 42
2, 23646, Note_on_c, 0, 41, 44
2, 23656, Control_c, 0, 64, 88
2, 23660, Control_c, 0, 64, 24
2, 23664, Control_c, 0, 64, 0
2, 23684, Control_c, 0, 64, 40
2, 23688, Control_c, 0, 64, 104
2, 23692, Note_on_c, 0, 59, 0
2, 23692, Control_c, 0, 64, 127
2, 23704, Note_on_c, 0, 41, 0
2, 23711, Note_on_c, 0, 61, 0
2, 23712, Note_on_c, 0, 68, 0
2, 23714, Note_on_c, 0, 53, 0
2, 23784, Note_on_c, 0, 70, 70
2, 23787, Note_on_c, 0, 58, 37
2, 23791, Note_on_c, 0, 61, 43
2, 23792, Note_on_c, 0, 42, 45
2, 23793, Note_on_c, 0, 54, 36
2, 23801, Control_c, 0, 64, 104
2, 23805, Control_c, 0, 64, 40
2, 23809, Control_c, 0, 64, 0
2, 23829, Control_c, 0, 64, 40
2, 23833, Control_c, 0, 64, 127
2, 23852, Note_on_c, 0, 70, 0
2, 23859, Note_on_c, 0, 58, 0
2, 23867, Note_on_c, 0, 42, 0
2, 23875, Note_on_c, 0, 54, 0
2, 23902, Note_on_c, 0, 61, 0
2, 23932, Note_on_c, 0, 63, 74
2, 23939, Note_on_c, 0, 54, 34
2, 23939, Note_on_c, 0, 59, 41
2, 23943, Note_on_c, 0, 47, 46
2, 23958, Control_c, 0, 64, 56
2, 23962, Control_c, 0, 64, 0
2, 23987, Control_c, 0, 64, 56
2, 23991, Note_on_c, 0, 59, 0
2, 23991, Control_c, 0, 64, 127
2, 24066, Note_on_c, 0, 47, 0
2, 24076, Note_on_c, 0, 63, 0
2, 24083, Note_on_c, 0, 54, 0
2, 24088, Note_on_c, 0, 66, 64
2, 24095, Note_on_c, 0, 58, 39
2, 24097, Note_on_c, 0, 49, 47
2, 24097, Note_on_c, 0, 61, 38
2, 24136, Control_c, 0, 64, 88
2, 24140, Control_c, 0, 64, 24
2, 24144, Control_c, 0, 64, 0
2, 24176, Control_c, 0, 64, 88
2, 24180, Control_c, 0, 64, 127
2, 24250, Note_on_c, 0, 58, 0
2, 24260, Note_on_c, 0, 66, 0
2, 24278, Note_on_c, 0, 65, 55
2, 24279, Note_on_c, 0, 56, 43
2, 24301, Control_c, 0, 64, 104
2, 24305, Control_c, 0, 64, 40
2, 24308, Control_c, 0, 64, 0
2, 24337, Control_c, 0, 64, 88
2, 24341, Control_c, 0, 64, 127
2, 24342, Note_on_c, 0, 56, 0
2, 24347, Note_on_c, 0, 61, 0
2, 24355, Note_on_c, 0, 65, 0
2, 24363, Note_on_c, 0, 49, 0
2, 24468, Note_on_c, 0, 70, 65
2, 24477, Note_on_c, 0, 54, 48
2, 24479, Control_c, 0, 64, 104
2, 24483, Control_c, 0, 64, 40
2, 24487, Control_c, 0, 64, 0
2, 24507, Control_c, 0, 64, 40
2, 24510, Control_c, 0, 64, 127
2, 24523, Note_on_c, 0, 70, 0
2, 24529, Note_on_c, 0, 66, 49
2, 24537, Note_on_c, 0, 54, 0
2, 24553, Note_on_c, 0, 66, 0
2, 24572, Note_on_c, 0, 58, 43
2, 24582, Note_on_c, 0, 71, 75
2, 24620, Note_on_c, 0, 71, 0
2, 24629, Note_on_c, 0, 58, 0
2, 24630, Note_on_c, 0, 49, 57
2, 24635, Note_on_c, 0, 73, 88
2, 24640, Note_on_c, 0, 49, 0
2, 24669, Note_on_c, 0, 73, 0
2, 24681, Note_on_c, 0, 75, 88
2, 24702, Note_on_c, 0, 75, 0
2, 24725, Note_on_c, 0, 77, 86
2, 24745, Control_c, 0, 64, 104
2, 24749, Control_c, 0, 64, 24
2, 24750, Note_on_c, 0, 77, 0
2, 24753, Control_c, 0, 64, 0
2, 24765, Note_on_c, 0, 51, 64
2, 24773, Control_c, 0, 64, 56
2, 24774, Note_on_c, 0, 78, 87
2, 24777, Control_c, 0, 64, 127
2, 24787, Note_on_c, 0, 51, 0
2, 24798, Note_on_c, 0, 78, 0
2, 24814, Note_on_c, 0, 66, 59
2, 24815, Note_on_c, 0, 80, 91
2, 24837, Note_on_c, 0, 66, 0
2, 24847, Note_on_c, 0, 80, 0
2, 24856, Note_on_c, 0, 82, 83
2, 24857, Note_on_c, 0, 60, 52
2, 24857, Note_on_c, 0, 56, 52
2, 24864, Note_on_c, 0, 60, 0
2, 24866, Note_on_c, 0, 56, 0
2, 24872, Note_on_c, 0, 82, 0
2, 24905, Note_on_c, 0, 84, 87
2, 24907, Note_on_c, 0, 44, 41
2, 24928, Note_on_c, 0, 84, 0
2, 24939, Note_on_c, 0, 44, 0
2, 24948, Note_on_c, 0, 85, 91
2, 24981, Note_on_c, 0, 85, 0
2, 25000, Note_on_c, 0, 87, 87
2, 25021, Note_on_c, 0, 87, 0
2, 25063, Control_c, 0, 64, 72
2, 25067, Control_c, 0, 64, 0
2, 25074, Note_on_c, 0, 68, 83
2, 25075, Note_on_c, 0, 37, 46
2, 25091, Control_c, 0, 64, 88
2, 25093, Note_on_c, 0, 37, 0
2, 25095, Control_c, 0, 64, 127
2, 25144, Note_on_c, 0, 66, 45
2, 25144, Note_on_c, 0, 61, 43
2, 25144, Note_on_c, 0, 56, 43
2, 25155, Note_on_c, 0, 56, 0
2, 25155, Note_on_c, 0, 61, 0
2, 25155, Note_on_c, 0, 66, 0
2, 25190, Note_on_c, 0, 61, 54
2, 25192, Note_on_c, 0, 66, 43
2, 25196, Note_on_c, 0, 56, 28
2, 25202, Note_on_c, 0, 66, 0
2, 25205, Note_on_c, 0, 61, 0
2, 25206, Note_on_c, 0, 56, 0
2, 25243, Note_on_c, 0, 61, 45
2, 25244, Note_on_c, 0, 66, 37
2, 25246, Note_on_c, 0, 56, 27
2, 25330, Note_on_c, 0, 56, 0
2, 25341, Note_on_c, 0, 66, 0
2, 25374, Note_on_c, 0, 61, 0
2, 25401, Note_on_c, 0, 73, 75
2, 25401, Control_c, 0, 64, 72
2, 25406, Control_c, 0, 64, 0
2, 25408, Note_on_c, 0, 49, 48
2, 25415, Note_on_c, 0, 68, 0
2, 25422, Note_on_c, 0, 49, 0
2, 25426, Control_c, 0, 64, 40
2, 25430, Control_c, 0, 64, 127
2, 25457, Note_on_c, 0, 65, 49
2, 25459, Note_on_c, 0, 59, 37
2, 25473, Note_on_c, 0, 65, 0
2, 25482, Note_on_c, 0, 59, 0
2, 25508, Note_on_c, 0, 49, 60
2, 25518, Note_on_c, 0, 49, 0
2, 25572, Note_on_c, 0, 75, 75
2, 25577, Note_on_c, 0, 73, 0
2, 25577, Note_on_c, 0, 65, 31
2, 25579, Note_on_c, 0, 59, 28
2, 25606, Note_on_c, 0, 56, 7
2, 25655, Note_on_c, 0, 65, 0
2, 25657, Note_on_c, 0, 59, 0
2, 25669, Note_on_c, 0, 56, 0
2, 25681, Note_on_c, 0, 75, 0
2, 25692, Note_on_c, 0, 73, 69
2, 25711, Note_on_c, 0, 73, 0
2, 25762, Note_on_c, 0, 70, 72
2, 25763, Note_on_c, 0, 54, 43
2, 25777, Control_c, 0, 64, 40
2, 25781, Control_c, 0, 64, 0
2, 25804, Note_on_c, 0, 70, 0
2, 25805, Control_c, 0, 64, 72
2, 25809, Control_c, 0, 64, 127
2, 25814, Note_on_c, 0, 66, 39
2, 25818, Note_on_c, 0, 73, 78
2, 25849, Note_on_c, 0, 54, 0
2, 25854, Note_on_c, 0, 73, 0
2, 25861, Note_on_c, 0, 58, 48
2, 25861, Note_on_c, 0, 75, 84
2, 25881, Note_on_c, 0, 75, 0
2, 25889, Note_on_c, 0, 66, 0
2, 25909, Note_on_c, 0, 77, 85
2, 25910, Control_c, 0, 64, 104
2, 25912, Note_on_c, 0, 53, 79
2, 25914, Control_c, 0, 64, 24
2, 25918, Control_c, 0, 64, 0
2, 25920, Note_on_c, 0, 58, 0
2, 25930, Control_c, 0, 64, 40
2, 25932, Note_on_c, 0, 53, 0
2, 25934, Control_c, 0, 64, 104
2, 25937, Note_on_c, 0, 77, 0
2, 25938, Control_c, 0, 64, 127
2, 25955, Note_on_c, 0, 78, 83
2, 25984, Note_on_c, 0, 78, 0
2, 25999, Note_on_c, 0, 80, 87
2, 26035, Control_c, 0, 64, 88
2, 26039, Note_on_c, 0, 80, 0
2, 26039, Control_c, 0, 64, 0
2, 26042, Note_on_c, 0, 51, 74
2, 26043, Note_on_c, 0, 82, 82
2, 26059, Control_c, 0, 64, 72
2, 26063, Note_on_c, 0, 82, 0
2, 26063, Control_c, 0, 64, 127
2, 26068, Note_on_c, 0, 51, 0
2, 26089, Note_on_c, 0, 66, 62
2, 26092, Note_on_c, 0, 84, 88
2, 26110, Note_on_c, 0, 66, 0
2, 26114, Note_on_c, 0, 84, 0
2, 26137, Note_on_c, 0, 60, 65
2, 26139, Note_on_c, 0, 56, 57
2, 26139, Note_on_c, 0, 85, 84
2, 26143, Note_on_c, 0, 60, 0
2, 26153, Note_on_c, 0, 56, 0
2, 26161, Note_on_c, 0, 85, 0
2, 26193, Note_on_c, 0, 87, 83
2, 26197, Control_c, 0, 64, 104
2, 26201, Control_c, 0, 64, 40
2, 26201, Note_on_c, 0, 44, 76
2, 26205, Control_c, 0, 64, 0
2, 26217, Control_c, 0, 64, 40
2, 26221, Control_c, 0, 64, 104
2, 26225, Control_c, 0, 64, 127
2, 26228, Note_on_c, 0, 44, 0
2, 26235, Note_on_c, 0, 87, 0
2, 26247, Note_on_c, 0, 89, 88
2, 26295, Note_on_c, 0, 89, 0
2, 26305, Note_on_c, 0, 90, 78
2, 26327, Note_on_c, 0, 90, 0
2, 26381, Control_c, 0, 64, 104
2, 26385, Control_c, 0, 64, 0
2, 26387, Note_on_c, 0, 68, 82
2, 26393, Note_on_c, 0, 37, 48
2, 26412, Note_on_c, 0, 37, 0
2, 26414, Control_c, 0, 64, 127
2, 26461, Note_on_c, 0, 66, 48
2, 26461, Note_on_c, 0, 61, 43
2, 26461, Note_on_c, 0, 56, 40
2, 26472, Note_on_c, 0, 56, 0
2, 26472, Note_on_c, 0, 61, 0
2, 26472, Note_on_c, 0, 66, 0
2, 26513, Note_on_c, 0, 66, 54
2, 26513, Note_on_c, 0, 61, 46
2, 26515, Note_on_c, 0, 56, 51
2, 26521, Note_on_c, 0, 61, 0
2, 26527, Note_on_c, 0, 66, 0
2, 26528, Note_on_c, 0, 56, 0
2, 26569, Note_on_c, 0, 66, 42
2, 26571, Note_on_c, 0, 61, 36
2, 26577, Note_on_c, 0, 56, 27
2, 26654, Note_on_c, 0, 56, 0
2, 26664, Note_on_c, 0, 61, 0
2, 26664, Note_on_c, 0, 66, 0
2, 26726, Note_on_c, 0, 68, 0
2, 26732, Note_on_c, 0, 73, 75
2, 26736, Note_on_c, 0, 49, 46
2, 26741, Control_c, 0, 64, 104
2, 26745, Control_c, 0, 64, 40
2, 26749, Control_c, 0, 64, 0
2, 26750, Note_on_c, 0, 49, 0
2, 26769, Control_c, 0, 64, 56
2, 26772, Control_c, 0, 64, 127
2, 26786, Note_on_c, 0, 65, 48
2, 26790, Note_on_c, 0, 59, 38
2, 26799, Note_on_c, 0, 65, 0
2, 26809, Note_on_c, 0, 59, 0
2, 26838, Note_on_c, 0, 49, 52
2, 26854, Note_on_c, 0, 49, 0
2, 26891, Note_on_c, 0, 73, 0
2, 26892, Note_on_c, 0, 77, 73
2, 26908, Note_on_c, 0, 56, 33
2, 26909, Note_on_c, 0, 59, 31
2, 26909, Note_on_c, 0, 75, 78
2, 26912, Note_on_c, 0, 77, 0
2, 26918, Note_on_c, 0, 65, 40
2, 26947, Control_c, 0, 64, 72
2, 26951, Control_c, 0, 64, 0
2, 26979, Control_c, 0, 64, 88
2, 26983, Control_c, 0, 64, 127
2, 27005, Note_on_c, 0, 59, 0
2, 27007, Note_on_c, 0, 65, 0
2, 27012, Note_on_c, 0, 75, 0
2, 27022, Note_on_c, 0, 73, 66
2, 27024, Note_on_c, 0, 56, 0
2, 27051, Note_on_c, 0, 73, 0
2, 27098, Note_on_c, 0, 70, 64
2, 27102, Note_on_c, 0, 54, 42
2, 27108, Control_c, 0, 64, 72
2, 27112, Control_c, 0, 64, 0
2, 27128, Control_c, 0, 64, 56
2, 27132, Control_c, 0, 64, 127
2, 27141, Note_on_c, 0, 70, 0
2, 27151, Note_on_c, 0, 66, 46
2, 27151, Note_on_c, 0, 73, 74
2, 27175, Note_on_c, 0, 66, 0
2, 27177, Note_on_c, 0, 54, 0
2, 27185, Note_on_c, 0, 73, 0
2, 27189, Note_on_c, 0, 58, 56
2, 27193, Note_on_c, 0, 75, 79
2, 27214, Note_on_c, 0, 75, 0
2, 27232, Note_on_c, 0, 58, 0
2, 27240, Note_on_c, 0, 77, 82
2, 27241, Note_on_c, 0, 61, 74
2, 27245, Control_c, 0, 64, 88
2, 27245, Note_on_c, 0, 49, 49
2, 27249, Control_c, 0, 64, 24
2, 27257, Control_c, 0, 64, 56
2, 27259, Note_on_c, 0, 61, 0
2, 27261, Note_on_c, 0, 49, 0
2, 27261, Control_c, 0, 64, 104
2, 27265, Control_c, 0, 64, 127
2, 27268, Note_on_c, 0, 77, 0
2, 27287, Note_on_c, 0, 78, 83
2, 27317, Note_on_c, 0, 78, 0
2, 27331, Note_on_c, 0, 80, 88
2, 27370, Control_c, 0, 64, 40
2, 27372, Note_on_c, 0, 82, 81
2, 27374, Control_c, 0, 64, 0
2, 27375, Note_on_c, 0, 54, 64
2, 27382, Control_c, 0, 64, 56
2, 27385, Note_on_c, 0, 80, 0
2, 27386, Control_c, 0, 64, 127
2, 27390, Note_on_c, 0, 82, 0
2, 27405, Note_on_c, 0, 54, 0
2, 27421, Note_on_c, 0, 85, 96
2, 27425, Note_on_c, 0, 66, 75
2, 27448, Note_on_c, 0, 66, 0
2, 27460, Note_on_c, 0, 85, 0
2, 27473, Note_on_c, 0, 58, 57
2, 27475, Note_on_c, 0, 90, 82
2, 27493, Note_on_c, 0, 58, 0
2, 27518, Note_on_c, 0, 90, 0
2, 27535, Note_on_c, 0, 92, 85
2, 27543, Note_on_c, 0, 61, 50
2, 27545, Note_on_c, 0, 49, 49
2, 27563, Note_on_c, 0, 61, 0
2, 27565, Note_on_c, 0, 49, 0
2, 27588, Note_on_c, 0, 92, 0
2, 27596, Note_on_c, 0, 94, 81
2, 27619, Note_on_c, 0, 94, 0
2, 27675, Note_on_c, 0, 99, 82
2, 27782, Note_on_c, 0, 99, 0
2, 27809, Note_on_c, 0, 97, 74
2, 27815, Note_on_c, 0, 25, 39
2, 27838, Control_c, 0, 64, 72
2, 27842, Control_c, 0, 64, 0
2, 27874, Control_c, 0, 64, 72
2, 27878, Control_c, 0, 64, 127
2, 27904, Note_on_c, 0, 97, 0
2, 27909, Note_on_c, 0, 25, 0
2, 28065, Note_on_c, 0, 65, 82
2, 28071, Note_on_c, 0, 56, 43
2, 28072, Note_on_c, 0, 59, 48
2, 28074, Note_on_c, 0, 49, 39
2, 28099, Control_c, 0, 64, 88
2, 28103, Control_c, 0, 64, 0
2, 28136, Control_c, 0, 64, 127
2, 28150, Note_on_c, 0, 59, 0
2, 28154, Note_on_c, 0, 65, 0
2, 28196, Note_on_c, 0, 56, 0
2, 28200, Note_on_c, 0, 49, 0
2, 28237, Note_on_c, 0, 66, 89
2, 28243, Note_on_c, 0, 58, 65
2, 28245, Note_on_c, 0, 54, 49
2, 28249, Note_on_c, 0, 51, 50
2, 28265, Control_c, 0, 64, 88
2, 28269, Control_c, 0, 64, 0
2, 28293, Control_c, 0, 64, 72
2, 28297, Control_c, 0, 64, 127
2, 28312, Note_on_c, 0, 54, 0
2, 28315, Note_on_c, 0, 51, 0
2, 28316, Note_on_c, 0, 58, 0
2, 28318, Note_on_c, 0, 66, 0
2, 28403, Note_on_c, 0, 71, 97
2, 28406, Note_on_c, 0, 59, 65
2, 28407, Note_on_c, 0, 63, 62
2, 28410, Note_on_c, 0, 56, 48
2, 28412, Note_on_c, 0, 44, 50
2, 28419, Control_c, 0, 64, 88
2, 28423, Control_c, 0, 64, 24
2, 28427, Control_c, 0, 64, 0
2, 28451, Control_c, 0, 64, 104
2, 28455, Control_c, 0, 64, 127
2, 28473, Note_on_c, 0, 71, 0
2, 28488, Note_on_c, 0, 44, 0
2, 28494, Note_on_c, 0, 59, 0
2, 28500, Note_on_c, 0, 63, 0
2, 28508, Note_on_c, 0, 56, 0
2, 28578, Note_on_c, 0, 68, 85
2, 28580, Note_on_c, 0, 66, 68
2, 28582, Note_on_c, 0, 63, 57
2, 28582, Note_on_c, 0, 59, 65
2, 28586, Note_on_c, 0, 49, 55
2, 28628, Control_c, 0, 64, 72
2, 28632, Control_c, 0, 64, 0
2, 28665, Control_c, 0, 64, 40
2, 28669, Control_c, 0, 64, 127
2, 28759, Note_on_c, 0, 63, 0
2, 28772, Note_on_c, 0, 66, 0
2, 28857, Note_on_c, 0, 65, 63
2, 28864, Note_on_c, 0, 61, 48
2, 28907, Control_c, 0, 64, 88
2, 28911, Control_c, 0, 64, 0
2, 28939, Control_c, 0, 64, 72
2, 28942, Control_c, 0, 64, 127
2, 28955, Note_on_c, 0, 59, 0
2, 28971, Note_on_c, 0, 61, 0
2, 28987, Note_on_c, 0, 65, 0
2, 29010, Note_on_c, 0, 63, 65
2, 29015, Note_on_c, 0, 59, 59
2, 29169, Note_on_c, 0, 68, 0
2, 29175, Note_on_c, 0, 66, 70
2, 29184, Note_on_c, 0, 42, 44
2, 29189, Control_c, 0, 64, 104
2, 29192, Control_c, 0, 64, 40
2, 29195, Note_on_c, 0, 49, 0
2, 29197, Control_c, 0, 64, 0
2, 29221, Control_c, 0, 64, 40
2, 29225, Control_c, 0, 64, 104
2, 29227, Note_on_c, 0, 59, 0
2, 29229, Control_c, 0, 64, 127
2, 29231, Note_on_c, 0, 42, 0
2, 29244, Note_on_c, 0, 41, 46
2, 29246, Note_on_c, 0, 63, 0
2, 29274, Note_on_c, 0, 61, 58
2, 29275, Note_on_c, 0, 58, 48
2, 29287, Note_on_c, 0, 41, 0
2, 29294, Note_on_c, 0, 42, 47
2, 29343, Note_on_c, 0, 47, 50
2, 29345, Note_on_c, 0, 42, 0
2, 29345, Control_c, 0, 64, 56
2, 29350, Control_c, 0, 64, 0
2, 29362, Control_c, 0, 64, 40
2, 29366, Control_c, 0, 64, 72
2, 29370, Control_c, 0, 64, 127
2, 29377, Note_on_c, 0, 61, 0
2, 29379, Note_on_c, 0, 47, 0
2, 29380, Note_on_c, 0, 58, 0
2, 29393, Note_on_c, 0, 45, 54
2, 29397, Note_on_c, 0, 66, 0
2, 29440, Note_on_c, 0, 45, 0
2, 29445, Note_on_c, 0, 46, 58
2, 29463, Note_on_c, 0, 46, 0
2, 29495, Note_on_c, 0, 51, 63
2, 29497, Control_c, 0, 64, 72
2, 29501, Control_c, 0, 64, 56
2, 29517, Control_c, 0, 64, 104
2, 29522, Control_c, 0, 64, 127
2, 29534, Note_on_c, 0, 51, 0
2, 29546, Note_on_c, 0, 48, 68
2, 29554, Control_c, 0, 64, 104
2, 29558, Control_c, 0, 64, 56
2, 29561, Control_c, 0, 64, 24
2, 29566, Control_c, 0, 64, 0
2, 29578, Control_c, 0, 64, 56
2, 29582, Control_c, 0, 64, 88
2, 29586, Control_c, 0, 64, 127
2, 29589, Note_on_c, 0, 48, 0
2, 29598, Note_on_c, 0, 49, 68
2, 29621, Note_on_c, 0, 49, 0
2, 29652, Note_on_c, 0, 56, 60
2, 29667, Control_c, 0, 64, 88
2, 29671, Control_c, 0, 64, 24
2, 29675, Control_c, 0, 64, 0
2, 29699, Control_c, 0, 64, 40
2, 29703, Control_c, 0, 64, 88
2, 29707, Control_c, 0, 64, 127
2, 29715, Note_on_c, 0, 53, 56
2, 29716, Note_on_c, 0, 56, 0
2, 29719, Control_c, 0, 64, 56
2, 29723, Control_c, 0, 64, 0
2, 29747, Control_c, 0, 64, 72
2, 29751, Control_c, 0, 64, 127
2, 29770, Note_on_c, 0, 53, 0
2, 29789, Note_on_c, 0, 54, 60
2, 29796, Control_c, 0, 64, 72
2, 29800, Control_c, 0, 64, 0
2, 29836, Control_c, 0, 64, 72
2, 29840, Control_c, 0, 64, 127
2, 29842, Note_on_c, 0, 54, 0
2, 29917, Note_on_c, 0, 63, 75
2, 29957, Control_c, 0, 64, 104
2, 29961, Control_c, 0, 64, 24
2, 29964, Control_c, 0, 64, 0
2, 29989, Control_c, 0, 64, 72
2, 29993, Control_c, 0, 64, 127
2, 29995, Note_on_c, 0, 66, 51
2, 30045, Note_on_c, 0, 66, 0
2, 30053, Note_on_c, 0, 75, 63
2, 30054, Note_on_c, 0, 70, 50
2, 30071, Note_on_c, 0, 75, 0
2, 30080, Note_on_c, 0, 70, 0
2, 30098, Note_on_c, 0, 63, 0
2, 30104, Note_on_c, 0, 61, 76
2, 30127, Control_c, 0, 64, 56
2, 30131, Control_c, 0, 64, 0
2, 30155, Control_c, 0, 64, 72
2, 30155, Note_on_c, 0, 63, 63
2, 30158, Control_c, 0, 64, 127
2, 30187, Note_on_c, 0, 63, 0
2, 30205, Note_on_c, 0, 75, 63
2, 30210, Note_on_c, 0, 70, 39
2, 30211, Note_on_c, 0, 67, 37
2, 30223, Note_on_c, 0, 75, 0
2, 30224, Note_on_c, 0, 67, 0
2, 30235, Note_on_c, 0, 70, 0
2, 30240, Note_on_c, 0, 61, 0
2, 30253, Note_on_c, 0, 59, 79
2, 30272, Control_c, 0, 64, 104
2, 30276, Control_c, 0, 64, 40
2, 30280, Control_c, 0, 64, 0
2, 30300, Control_c, 0, 64, 40
2, 30304, Control_c, 0, 64, 104
2, 30304, Note_on_c, 0, 63, 56
2, 30307, Control_c, 0, 64, 127
2, 30333, Note_on_c, 0, 63, 0
2, 30348, Note_on_c, 0, 75, 65
2, 30351, Note_on_c, 0, 68, 49
2, 30369, Note_on_c, 0, 75, 0
2, 30391, Note_on_c, 0, 58, 81
2, 30393, Note_on_c, 0, 68, 0
2, 30395, Note_on_c, 0, 59, 0
2, 30401, Control_c, 0, 64, 56
2, 30404, Control_c, 0, 64, 0
2, 30425, Control_c, 0, 64, 40
2, 30429, Control_c, 0, 64, 104
2, 30433, Note_on_c, 0, 63, 59
2, 30433, Control_c, 0, 64, 127
2, 30462, Note_on_c, 0, 63, 0
2, 30478, Note_on_c, 0, 68, 38
2, 30479, Note_on_c, 0, 71, 56
2, 30490, Note_on_c, 0, 71, 0
2, 30490, Note_on_c, 0, 68, 0
2, 30497, Note_on_c, 0, 58, 0
2, 30509, Note_on_c, 0, 56, 74
2, 30540, Note_on_c, 0, 56, 0
2, 30552, Note_on_c, 0, 58, 74
2, 30578, Control_c, 0, 64, 104
2, 30582, Control_c, 0, 64, 40
2, 30586, Control_c, 0, 64, 0
2, 30602, Note_on_c, 0, 62, 55
2, 30615, Control_c, 0, 64, 40
2, 30619, Control_c, 0, 64, 104
2, 30623, Control_c, 0, 64, 127
2, 30630, Note_on_c, 0, 62, 0
2, 30647, Note_on_c, 0, 70, 57
2, 30650, Note_on_c, 0, 65, 41
2, 30664, Note_on_c, 0, 65, 0
2, 30668, Note_on_c, 0, 70, 0
2, 30693, Note_on_c, 0, 56, 83
2, 30694, Note_on_c, 0, 58, 0
2, 30707, Control_c, 0, 64, 72
2, 30711, Control_c, 0, 64, 24
2, 30715, Control_c, 0, 64, 0
2, 30731, Control_c, 0, 64, 56
2, 30735, Control_c, 0, 64, 127
2, 30745, Note_on_c, 0, 58, 58
2, 30770, Note_on_c, 0, 58, 0
2, 30790, Note_on_c, 0, 70, 41
2, 30793, Note_on_c, 0, 65, 38
2, 30794, Note_on_c, 0, 62, 29
2, 30805, Note_on_c, 0, 62, 0
2, 30809, Note_on_c, 0, 70, 0
2, 30813, Note_on_c, 0, 65, 0
2, 30826, Note_on_c, 0, 56, 0
2, 30836, Note_on_c, 0, 54, 70
2, 30857, Control_c, 0, 64, 56
2, 30861, Control_c, 0, 64, 0
2, 30885, Control_c, 0, 64, 72
2, 30889, Control_c, 0, 64, 127
2, 30890, Note_on_c, 0, 58, 49
2, 30917, Note_on_c, 0, 58, 0
2, 30931, Note_on_c, 0, 70, 60
2, 30935, Note_on_c, 0, 63, 47
2, 30964, Note_on_c, 0, 70, 0
2, 30973, Note_on_c, 0, 54, 0
2, 30975, Note_on_c, 0, 53, 75
2, 30981, Control_c, 0, 64, 104
2, 30985, Note_on_c, 0, 63, 0
2, 30985, Control_c, 0, 64, 56
2, 30989, Control_c, 0, 64, 0
2, 31010, Control_c, 0, 64, 40
2, 31014, Control_c, 0, 64, 88
2, 31018, Control_c, 0, 64, 127
2, 31018, Note_on_c, 0, 58, 52
2, 31056, Note_on_c, 0, 66, 62
2, 31057, Note_on_c, 0, 58, 0
2, 31059, Note_on_c, 0, 63, 54
2, 31077, Note_on_c, 0, 53, 0
2, 31078, Note_on_c, 0, 66, 0
2, 31081, Note_on_c, 0, 63, 0
2, 31086, Note_on_c, 0, 51, 70
2, 31121, Note_on_c, 0, 51, 0
2, 31123, Note_on_c, 0, 53, 74
2, 31135, Control_c, 0, 64, 88
2, 31138, Control_c, 0, 64, 24
2, 31142, Control_c, 0, 64, 0
2, 31167, Control_c, 0, 64, 40
2, 31169, Note_on_c, 0, 58, 58
2, 31171, Control_c, 0, 64, 88
2, 31175, Control_c, 0, 64, 127
2, 31192, Note_on_c, 0, 49, 72
2, 31201, Note_on_c, 0, 58, 0
2, 31202, Note_on_c, 0, 53, 0
2, 31227, Note_on_c, 0, 65, 59
2, 31231, Note_on_c, 0, 61, 38
2, 31249, Note_on_c, 0, 65, 0
2, 31256, Note_on_c, 0, 61, 0
2, 31260, Note_on_c, 0, 49, 0
2, 31261, Note_on_c, 0, 51, 81
2, 31268, Control_c, 0, 64, 104
2, 31272, Control_c, 0, 64, 56
2, 31276, Control_c, 0, 64, 0
2, 31304, Control_c, 0, 64, 56
2, 31306, Note_on_c, 0, 58, 57
2, 31308, Control_c, 0, 64, 104
2, 31312, Control_c, 0, 64, 127
2, 31330, Note_on_c, 0, 51, 0
2, 31333, Note_on_c, 0, 58, 0
2, 31333, Note_on_c, 0, 53, 84
2, 31372, Note_on_c, 0, 65, 47
2, 31374, Note_on_c, 0, 61, 33
2, 31389, Note_on_c, 0, 65, 0
2, 31397, Note_on_c, 0, 61, 0
2, 31400, Note_on_c, 0, 49, 76
2, 31405, Control_c, 0, 64, 72
2, 31407, Note_on_c, 0, 53, 0
2, 31409, Control_c, 0, 64, 24
2, 31413, Control_c, 0, 64, 0
2, 31433, Control_c, 0, 64, 24
2, 31437, Control_c, 0, 64, 72
2, 31441, Control_c, 0, 64, 127
2, 31444, Note_on_c, 0, 58, 55
2, 31465, Note_on_c, 0, 49, 0
2, 31469, Note_on_c, 0, 46, 76
2, 31471, Note_on_c, 0, 58, 0
2, 31473, Control_c, 0, 64, 104
2, 31477, Control_c, 0, 64, 72
2, 31482, Control_c, 0, 64, 40
2, 31498, Control_c, 0, 64, 72
2, 31502, Control_c, 0, 64, 88
2, 31506, Control_c, 0, 64, 127
2, 31506, Note_on_c, 0, 65, 59
2, 31508, Note_on_c, 0, 61, 39
2, 31531, Note_on_c, 0, 61, 0
2, 31531, Note_on_c, 0, 65, 0
2, 31534, Control_c, 0, 64, 88
2, 31535, Note_on_c, 0, 46, 0
2, 31538, Control_c, 0, 64, 40
2, 31542, Control_c, 0, 64, 0
2, 31543, Note_on_c, 0, 48, 88
2, 31558, Control_c, 0, 64, 24
2, 31562, Control_c, 0, 64, 56
2, 31566, Control_c, 0, 64, 104
2, 31570, Control_c, 0, 64, 127
2, 31578, Note_on_c, 0, 58, 52
2, 31603, Note_on_c, 0, 48, 0
2, 31610, Note_on_c, 0, 58, 0
2, 31613, Note_on_c, 0, 49, 85
2, 31650, Note_on_c, 0, 65, 47
2, 31651, Note_on_c, 0, 61, 37
2, 31665, Note_on_c, 0, 65, 0
2, 31674, Note_on_c, 0, 61, 0
2, 31676, Note_on_c, 0, 49, 0
2, 31689, Note_on_c, 0, 41, 83
2, 31699, Control_c, 0, 64, 72
2, 31703, Control_c, 0, 64, 24
2, 31707, Control_c, 0, 64, 0
2, 31732, Control_c, 0, 64, 56
2, 31733, Note_on_c, 0, 58, 54
2, 31736, Control_c, 0, 64, 104
2, 31740, Control_c, 0, 64, 127
2, 31760, Note_on_c, 0, 58, 0
2, 31777, Note_on_c, 0, 65, 68
2, 31783, Note_on_c, 0, 60, 50
2, 31791, Note_on_c, 0, 41, 0
2, 31797, Note_on_c, 0, 60, 0
2, 31808, Note_on_c, 0, 65, 0
2, 31812, Note_on_c, 0, 44, 70
2, 31839, Note_on_c, 0, 42, 80
2, 31841, Note_on_c, 0, 44, 0
2, 31857, Control_c, 0, 64, 72
2, 31861, Control_c, 0, 64, 24
2, 31865, Control_c, 0, 64, 0
2, 31882, Note_on_c, 0, 57, 57
2, 31893, Control_c, 0, 64, 40
2, 31897, Control_c, 0, 64, 88
2, 31901, Control_c, 0, 64, 127
2, 31909, Note_on_c, 0, 57, 0
2, 31926, Note_on_c, 0, 60, 44
2, 31927, Note_on_c, 0, 65, 51
2, 31930, Note_on_c, 0, 63, 37
2, 31942, Note_on_c, 0, 60, 0
2, 31944, Note_on_c, 0, 65, 0
2, 31952, Note_on_c, 0, 42, 0
2, 31959, Note_on_c, 0, 63, 0
2, 31973, Note_on_c, 0, 41, 70
2, 32005, Note_on_c, 0, 41, 0
2, 32013, Note_on_c, 0, 46, 76
2, 32034, Control_c, 0, 64, 72
2, 32038, Control_c, 0, 64, 24
2, 32042, Control_c, 0, 64, 0
2, 32075, Note_on_c, 0, 58, 43
2, 32079, Control_c, 0, 64, 40
2, 32083, Control_c, 0, 64, 104
2, 32087, Control_c, 0, 64, 127
2, 32102, Note_on_c, 0, 58, 0
2, 32108, Note_on_c, 0, 46, 0
2, 32126, Note_on_c, 0, 62, 52
2, 32129, Note_on_c, 0, 65, 39
2, 32143, Note_on_c, 0, 65, 0
2, 32145, Note_on_c, 0, 62, 0
2, 32198, Note_on_c, 0, 58, 75
2, 32220, Control_c, 0, 64, 104
2, 32224, Control_c, 0, 64, 40
2, 32228, Control_c, 0, 64, 0
2, 32249, Note_on_c, 0, 62, 73
2, 32260, Control_c, 0, 64, 56
2, 32263, Control_c, 0, 64, 127
2, 32273, Note_on_c, 0, 62, 0
2, 32299, Note_on_c, 0, 65, 55
2, 32300, Note_on_c, 0, 74, 79
2, 32303, Note_on_c, 0, 70, 54
2, 32304, Note_on_c, 0, 58, 0
2, 32316, Note_on_c, 0, 65, 0
2, 32325, Note_on_c, 0, 74, 0
2, 32329, Note_on_c, 0, 70, 0
2, 32352, Note_on_c, 0, 63, 87
2, 32381, Control_c, 0, 64, 88
2, 32385, Control_c, 0, 64, 24
2, 32389, Control_c, 0, 64, 0
2, 32405, Note_on_c, 0, 66, 72
2, 32421, Control_c, 0, 64, 56
2, 32425, Control_c, 0, 64, 127
2, 32443, Note_on_c, 0, 75, 90
2, 32445, Note_on_c, 0, 70, 73
2, 32455, Note_on_c, 0, 66, 0
2, 32465, Note_on_c, 0, 70, 0
2, 32472, Note_on_c, 0, 75, 0
2, 32484, Note_on_c, 0, 78, 70
2, 32500, Note_on_c, 0, 76, 86
2, 32501, Note_on_c, 0, 78, 0
2, 32511, Note_on_c, 0, 61, 88
2, 32514, Control_c, 0, 64, 72
2, 32518, Control_c, 0, 64, 0
2, 32519, Note_on_c, 0, 63, 0
2, 32550, Control_c, 0, 64, 72
2, 32554, Control_c, 0, 64, 127
2, 32564, Note_on_c, 0, 76, 0
2, 32570, Note_on_c, 0, 67, 69
2, 32599, Note_on_c, 0, 67, 0
2, 32610, Note_on_c, 0, 75, 82
2, 32616, Note_on_c, 0, 70, 52
2, 32637, Note_on_c, 0, 70, 0
2, 32646, Note_on_c, 0, 75, 0
2, 32649, Note_on_c, 0, 61, 0
2, 32659, Note_on_c, 0, 59, 85
2, 32671, Control_c, 0, 64, 104
2, 32675, Control_c, 0, 64, 40
2, 32679, Control_c, 0, 64, 0
2, 32707, Note_on_c, 0, 63, 66
2, 32712, Control_c, 0, 64, 40
2, 32716, Control_c, 0, 64, 88
2, 32720, Control_c, 0, 64, 127
2, 32732, Note_on_c, 0, 63, 0
2, 32748, Note_on_c, 0, 75, 69
2, 32755, Note_on_c, 0, 68, 42
2, 32788, Note_on_c, 0, 68, 0
2, 32796, Note_on_c, 0, 58, 73
2, 32797, Note_on_c, 0, 59, 0
2, 32817, Control_c, 0, 64, 72
2, 32819, Note_on_c, 0, 75, 0
2, 32821, Control_c, 0, 64, 0
2, 32838, Note_on_c, 0, 63, 57
2, 32848, Control_c, 0, 64, 56
2, 32853, Control_c, 0, 64, 127
2, 32869, Note_on_c, 0, 63, 0
2, 32883, Note_on_c, 0, 71, 68
2, 32883, Note_on_c, 0, 68, 48
2, 32908, Note_on_c, 0, 58, 0
2, 32912, Note_on_c, 0, 71, 0
2, 32916, Note_on_c, 0, 68, 0
2, 32916, Note_on_c, 0, 56, 68
2, 32952, Note_on_c, 0, 56, 0
2, 32957, Note_on_c, 0, 59, 77
2, 32978, Control_c, 0, 64, 104
2, 32982, Control_c, 0, 64, 56
2, 32986, Control_c, 0, 64, 0
2, 33009, Note_on_c, 0, 63, 49
2, 33014, Control_c, 0, 64, 24
2, 33018, Control_c, 0, 64, 72
2, 33022, Control_c, 0, 64, 127
2, 33048, Note_on_c, 0, 71, 74
2, 33052, Note_on_c, 0, 66, 49
2, 33079, Note_on_c, 0, 71, 0
2, 33103, Note_on_c, 0, 75, 59
2, 33118, Note_on_c, 0, 66, 0
2, 33121, Note_on_c, 0, 59, 0
2, 33123, Note_on_c, 0, 57, 79
2, 33127, Note_on_c, 0, 73, 70
2, 33131, Control_c, 0, 64, 104
2, 33134, Control_c, 0, 64, 56
2, 33138, Control_c, 0, 64, 0
2, 33148, Note_on_c, 0, 75, 0
2, 33156, Note_on_c, 0, 63, 0
2, 33163, Control_c, 0, 64, 40
2, 33167, Control_c, 0, 64, 104
2, 33171, Control_c, 0, 64, 127
2, 33179, Note_on_c, 0, 73, 0
2, 33199, Note_on_c, 0, 63, 66
2, 33234, Note_on_c, 0, 71, 81
2, 33235, Note_on_c, 0, 66, 60
2, 33241, Note_on_c, 0, 63, 0
2, 33252, Note_on_c, 0, 66, 0
2, 33261, Note_on_c, 0, 57, 0
2, 33263, Note_on_c, 0, 71, 0
2, 33281, Note_on_c, 0, 57, 83
2, 33309, Control_c, 0, 64, 56
2, 33313, Control_c, 0, 64, 0
2, 33330, Note_on_c, 0, 64, 68
2, 33340, Control_c, 0, 64, 56
2, 33345, Control_c, 0, 64, 104
2, 33349, Control_c, 0, 64, 127
2, 33361, Note_on_c, 0, 56, 88
2, 33373, Note_on_c, 0, 64, 0
2, 33375, Note_on_c, 0, 57, 0
2, 33392, Note_on_c, 0, 76, 79
2, 33393, Note_on_c, 0, 71, 60
2, 33409, Note_on_c, 0, 76, 0
2, 33415, Note_on_c, 0, 71, 0
2, 33434, Note_on_c, 0, 54, 85
2, 33437, Note_on_c, 0, 56, 0
2, 33450, Control_c, 0, 64, 24
2, 33454, Control_c, 0, 64, 0
2, 33478, Control_c, 0, 64, 24
2, 33480, Note_on_c, 0, 59, 65
2, 33481, Control_c, 0, 64, 88
2, 33485, Control_c, 0, 64, 127
2, 33508, Note_on_c, 0, 59, 0
2, 33522, Note_on_c, 0, 52, 84
2, 33526, Note_on_c, 0, 54, 0
2, 33545, Note_on_c, 0, 71, 45
2, 33550, Note_on_c, 0, 68, 38
2, 33550, Note_on_c, 0, 64, 59
2, 33557, Note_on_c, 0, 71, 0
2, 33576, Note_on_c, 0, 64, 0
2, 33583, Note_on_c, 0, 68, 0
2, 33585, Note_on_c, 0, 52, 0
2, 33598, Note_on_c, 0, 56, 78
2, 33626, Control_c, 0, 64, 88
2, 33631, Control_c, 0, 64, 24
2, 33635, Control_c, 0, 64, 0
2, 33653, Note_on_c, 0, 59, 57
2, 33667, Control_c, 0, 64, 72
2, 33671, Control_c, 0, 64, 127
2, 33683, Note_on_c, 0, 59, 0
2, 33701, Note_on_c, 0, 71, 69
2, 33702, Note_on_c, 0, 64, 62
2, 33725, Note_on_c, 0, 64, 0
2, 33725, Note_on_c, 0, 71, 0
2, 33753, Note_on_c, 0, 56, 0
2, 33756, Note_on_c, 0, 50, 66
2, 33756, Note_on_c, 0, 70, 72
2, 33772, Control_c, 0, 64, 88
2, 33777, Control_c, 0, 64, 24
2, 33781, Control_c, 0, 64, 0
2, 33809, Control_c, 0, 64, 56
2, 33813, Control_c, 0, 64, 104
2, 33814, Note_on_c, 0, 58, 54
2, 33817, Control_c, 0, 64, 127
2, 33837, Note_on_c, 0, 70, 0
2, 33849, Note_on_c, 0, 58, 0
2, 33857, Note_on_c, 0, 68, 68
2, 33863, Note_on_c, 0, 65, 58
2, 33872, Note_on_c, 0, 65, 0
2, 33882, Note_on_c, 0, 68, 0
2, 33899, Note_on_c, 0, 50, 0
2, 33908, Note_on_c, 0, 54, 77
2, 33921, Control_c, 0, 64, 88
2, 33926, Control_c, 0, 64, 24
2, 33930, Control_c, 0, 64, 0
2, 33954, Control_c, 0, 64, 24
2, 33956, Note_on_c, 0, 58, 49
2, 33958, Control_c, 0, 64, 88
2, 33962, Control_c, 0, 64, 127
2, 33989, Note_on_c, 0, 58, 0
2, 33998, Note_on_c, 0, 63, 63
2, 34033, Note_on_c, 0, 63, 0
2, 34047, Note_on_c, 0, 54, 0
2, 34049, Note_on_c, 0, 65, 70
2, 34054, Note_on_c, 0, 45, 66
2, 34059, Control_c, 0, 64, 88
2, 34062, Control_c, 0, 64, 40
2, 34067, Control_c, 0, 64, 0
2, 34091, Control_c, 0, 64, 72
2, 34095, Control_c, 0, 64, 127
2, 34097, Note_on_c, 0, 65, 0
2, 34103, Note_on_c, 0, 54, 51
2, 34136, Note_on_c, 0, 54, 0
2, 34149, Note_on_c, 0, 66, 73
2, 34155, Note_on_c, 0, 59, 52
2, 34165, Note_on_c, 0, 59, 0
2, 34165, Note_on_c, 0, 45, 0
2, 34171, Note_on_c, 0, 66, 0
2, 34204, Note_on_c, 0, 46, 74
2, 34220, Control_c, 0, 64, 104
2, 34224, Control_c, 0, 64, 40
2, 34228, Control_c, 0, 64, 0
2, 34248, Control_c, 0, 64, 24
2, 34252, Note_on_c, 0, 53, 58
2, 34253, Control_c, 0, 64, 72
2, 34256, Control_c, 0, 64, 127
2, 34277, Note_on_c, 0, 53, 0
2, 34279, Note_on_c, 0, 46, 0
2, 34291, Note_on_c, 0, 63, 60
2, 34297, Note_on_c, 0, 58, 39
2, 34315, Note_on_c, 0, 63, 0
2, 34325, Note_on_c, 0, 58, 0
2, 34330, Note_on_c, 0, 49, 68
2, 34360, Note_on_c, 0, 49, 0
2, 34362, Note_on_c, 0, 47, 78
2, 34373, Control_c, 0, 64, 104
2, 34377, Control_c, 0, 64, 40
2, 34381, Control_c, 0, 64, 0
2, 34399, Note_on_c, 0, 53, 56
2, 34409, Control_c, 0, 64, 24
2, 34413, Control_c, 0, 64, 88
2, 34418, Control_c, 0, 64, 127
2, 34441, Note_on_c, 0, 53, 0
2, 34444, Note_on_c, 0, 47, 0
2, 34445, Note_on_c, 0, 56, 34
2, 34445, Note_on_c, 0, 58, 34
2, 34449, Note_on_c, 0, 62, 45
2, 34461, Note_on_c, 0, 62, 0
2, 34490, Note_on_c, 0, 46, 69
2, 34517, Note_on_c, 0, 46, 0
2, 34523, Note_on_c, 0, 58, 0
2, 34523, Note_on_c, 0, 56, 0
2, 34534, Note_on_c, 0, 39, 70
2, 34551, Control_c, 0, 64, 104
2, 34555, Control_c, 0, 64, 56
2, 34558, Control_c, 0, 64, 0
2, 34587, Control_c, 0, 64, 56
2, 34591, Control_c, 0, 64, 127
2, 34597, Note_on_c, 0, 54, 42
2, 34626, Note_on_c, 0, 54, 0
2, 34640, Note_on_c, 0, 63, 55
2, 34641, Note_on_c, 0, 58, 43
2, 34651, Note_on_c, 0, 39, 0
2, 34657, Note_on_c, 0, 58, 0
2, 34659, Note_on_c, 0, 63, 0
2, 34677, Note_on_c, 0, 46, 79
2, 34680, Control_c, 0, 64, 56
2, 34684, Control_c, 0, 64, 0
2, 34696, Control_c, 0, 64, 24
2, 34700, Control_c, 0, 64, 72
2, 34703, Control_c, 0, 64, 127
2, 34719, Note_on_c, 0, 46, 0
2, 34719, Note_on_c, 0, 51, 84
2, 34770, Note_on_c, 0, 58, 61
2, 34781, Note_on_c, 0, 51, 0
2, 34798, Note_on_c, 0, 53, 88
2, 34799, Note_on_c, 0, 58, 0
2, 34804, Control_c, 0, 64, 56
2, 34809, Control_c, 0, 64, 0
2, 34821, Control_c, 0, 64, 24
2, 34825, Control_c, 0, 64, 72
2, 34829, Control_c, 0, 64, 104
2, 34833, Note_on_c, 0, 70, 68
2, 34833, Control_c, 0, 64, 127
2, 34837, Note_on_c, 0, 63, 50
2, 34858, Note_on_c, 0, 53, 0
2, 34863, Note_on_c, 0, 70, 0
2, 34866, Note_on_c, 0, 63, 0
2, 34876, Note_on_c, 0, 54, 83
2, 34893, Control_c, 0, 64, 72
2, 34897, Control_c, 0, 64, 0
2, 34926, Control_c, 0, 64, 72
2, 34929, Note_on_c, 0, 58, 54
2, 34930, Control_c, 0, 64, 127
2, 34957, Note_on_c, 0, 58, 0
2, 34975, Note_on_c, 0, 70, 61
2, 34979, Note_on_c, 0, 61, 45
2, 34992, Note_on_c, 0, 54, 0
2, 35027, Note_on_c, 0, 54, 91
2, 35031, Control_c, 0, 64, 72
2, 35032, Note_on_c, 0, 70, 0
2, 35035, Control_c, 0, 64, 0
2, 35042, Note_on_c, 0, 61, 0
2, 35047, Control_c, 0, 64, 88
2, 35050, Control_c, 0, 64, 127
2, 35081, Note_on_c, 0, 58, 61
2, 35104, Note_on_c, 0, 54, 0
2, 35106, Note_on_c, 0, 58, 0
2, 35128, Note_on_c, 0, 61, 57
2, 35129, Note_on_c, 0, 70, 59
2, 35147, Note_on_c, 0, 61, 0
2, 35153, Note_on_c, 0, 70, 0
2, 35168, Note_on_c, 0, 44, 62
2, 35172, Control_c, 0, 64, 72
2, 35176, Control_c, 0, 64, 0
2, 35188, Control_c, 0, 64, 40
2, 35192, Control_c, 0, 64, 88
2, 35193, Note_on_c, 0, 54, 89
2, 35195, Control_c, 0, 64, 127
2, 35201, Note_on_c, 0, 44, 0
2, 35230, Note_on_c, 0, 54, 0
2, 35232, Note_on_c, 0, 56, 82
2, 35236, Note_on_c, 0, 60, 71
2, 35257, Note_on_c, 0, 56, 0
2, 35263, Note_on_c, 0, 60, 0
2, 35265, Note_on_c, 0, 54, 86
2, 35284, Note_on_c, 0, 68, 30
2, 35291, Note_on_c, 0, 54, 0
2, 35293, Note_on_c, 0, 68, 0
2, 35298, Note_on_c, 0, 53, 88
2, 35329, Note_on_c, 0, 53, 0
2, 35331, Note_on_c, 0, 54, 93
2, 35371, Note_on_c, 0, 54, 0
2, 35385, Note_on_c, 0, 58, 81
2, 35402, Control_c, 0, 64, 104
2, 35406, Control_c, 0, 64, 24
2, 35410, Control_c, 0, 64, 0
2, 35441, Note_on_c, 0, 60, 59
2, 35458, Control_c, 0, 64, 127
2, 35463, Note_on_c, 0, 60, 0
2, 35484, Note_on_c, 0, 66, 50
2, 35484, Note_on_c, 0, 63, 43
2, 35507, Note_on_c, 0, 66, 0
2, 35509, Note_on_c, 0, 63, 0
2, 35517, Note_on_c, 0, 58, 0
2, 35529, Note_on_c, 0, 56, 72
2, 35544, Note_on_c, 0, 56, 0
2, 35575, Note_on_c, 0, 54, 78
2, 35583, Note_on_c, 0, 49, 34
2, 35599, Control_c, 0, 64, 104
2, 35603, Control_c, 0, 64, 0
2, 35641, Note_on_c, 0, 56, 56
2, 35648, Control_c, 0, 64, 72
2, 35652, Control_c, 0, 64, 127
2, 35670, Note_on_c, 0, 56, 0
2, 35681, Note_on_c, 0, 68, 60
2, 35686, Note_on_c, 0, 61, 37
2, 35707, Note_on_c, 0, 54, 0
2, 35712, Note_on_c, 0, 68, 0
2, 35734, Note_on_c, 0, 53, 68
2, 35753, Control_c, 0, 64, 104
2, 35757, Control_c, 0, 64, 24
2, 35761, Control_c, 0, 64, 0
2, 35769, Note_on_c, 0, 61, 0
2, 35780, Note_on_c, 0, 49, 0
2, 35787, Note_on_c, 0, 56, 46
2, 35789, Control_c, 0, 64, 88
2, 35793, Control_c, 0, 64, 127
2, 35815, Note_on_c, 0, 56, 0
2, 35825, Note_on_c, 0, 68, 54
2, 35828, Note_on_c, 0, 61, 35
2, 35849, Note_on_c, 0, 61, 0
2, 35849, Note_on_c, 0, 53, 0
2, 35855, Note_on_c, 0, 68, 0
2, 35860, Note_on_c, 0, 51, 79
2, 35869, Control_c, 0, 64, 88
2, 35873, Control_c, 0, 64, 0
2, 35890, Control_c, 0, 64, 24
2, 35894, Control_c, 0, 64, 88
2, 35898, Control_c, 0, 64, 127
2, 35899, Note_on_c, 0, 49, 82
2, 35905, Note_on_c, 0, 51, 0
2, 35945, Note_on_c, 0, 56, 64
2, 35970, Note_on_c, 0, 49, 0
2, 35976, Note_on_c, 0, 48, 84
2, 35978, Control_c, 0, 64, 88
2, 35982, Control_c, 0, 64, 0
2, 35983, Note_on_c, 0, 56, 0
2, 35995, Control_c, 0, 64, 24
2, 35999, Control_c, 0, 64, 72
2, 36003, Control_c, 0, 64, 127
2, 36009, Note_on_c, 0, 68, 60
2, 36011, Note_on_c, 0, 61, 47
2, 36021, Note_on_c, 0, 65, 48
2, 36029, Note_on_c, 0, 65, 0
2, 36030, Note_on_c, 0, 61, 0
2, 36032, Note_on_c, 0, 48, 0
2, 36039, Note_on_c, 0, 68, 0
2, 36044, Note_on_c, 0, 47, 86
2, 36063, Control_c, 0, 64, 24
2, 36067, Control_c, 0, 64, 0
2, 36089, Note_on_c, 0, 61, 72
2, 36091, Control_c, 0, 64, 72
2, 36095, Control_c, 0, 64, 127
2, 36113, Note_on_c, 0, 47, 0
2, 36119, Note_on_c, 0, 46, 87
2, 36119, Control_c, 0, 64, 88
2, 36123, Control_c, 0, 64, 0
2, 36127, Note_on_c, 0, 61, 0
2, 36144, Control_c, 0, 64, 24
2, 36148, Control_c, 0, 64, 88
2, 36152, Control_c, 0, 64, 127
2, 36157, Note_on_c, 0, 70, 74
2, 36160, Note_on_c, 0, 63, 63
2, 36161, Note_on_c, 0, 67, 62
2, 36169, Note_on_c, 0, 63, 0
2, 36183, Note_on_c, 0, 67, 0
2, 36184, Note_on_c, 0, 70, 0
2, 36202, Note_on_c, 0, 46, 0
2, 36210, Note_on_c, 0, 44, 86
2, 36220, Control_c, 0, 64, 72
2, 36224, Control_c, 0, 64, 0
2, 36265, Note_on_c, 0, 59, 59
2, 36269, Control_c, 0, 64, 104
2, 36272, Control_c, 0, 64, 127
2, 36295, Note_on_c, 0, 59, 0
2, 36311, Note_on_c, 0, 71, 71
2, 36311, Note_on_c, 0, 63, 55
2, 36311, Note_on_c, 0, 68, 45
2, 36328, Note_on_c, 0, 44, 0
2, 36334, Note_on_c, 0, 71, 0
2, 36340, Note_on_c, 0, 63, 0
2, 36341, Note_on_c, 0, 68, 0
2, 36355, Note_on_c, 0, 56, 87
2, 36413, Note_on_c, 0, 59, 58
2, 36439, Note_on_c, 0, 59, 0
2, 36449, Note_on_c, 0, 56, 0
2, 36454, Note_on_c, 0, 68, 64
2, 36456, Note_on_c, 0, 63, 55
2, 36475, Note_on_c, 0, 63, 0
2, 36481, Note_on_c, 0, 68, 0
2, 36510, Note_on_c, 0, 56, 78
2, 36514, Note_on_c, 0, 49, 55
2, 36523, Control_c, 0, 64, 72
2, 36527, Control_c, 0, 64, 0
2, 36541, Note_on_c, 0, 56, 0
2, 36543, Note_on_c, 0, 58, 81
2, 36551, Control_c, 0, 64, 56
2, 36555, Control_c, 0, 64, 104
2, 36559, Control_c, 0, 64, 127
2, 36570, Note_on_c, 0, 58, 0
2, 36576, Note_on_c, 0, 56, 90
2, 36586, Note_on_c, 0, 61, 48
2, 36609, Note_on_c, 0, 56, 0
2, 36612, Note_on_c, 0, 61, 0
2, 36613, Note_on_c, 0, 55, 90
2, 36624, Note_on_c, 0, 68, 54
2, 36624, Note_on_c, 0, 64, 43
2, 36632, Note_on_c, 0, 64, 0
2, 36632, Note_on_c, 0, 68, 0
2, 36645, Note_on_c, 0, 56, 90
2, 36650, Note_on_c, 0, 55, 0
2, 36696, Note_on_c, 0, 56, 0
2, 36697, Note_on_c, 0, 59, 88
2, 36713, Control_c, 0, 64, 88
2, 36717, Control_c, 0, 64, 0
2, 36756, Control_c, 0, 64, 56
2, 36759, Note_on_c, 0, 64, 79
2, 36761, Control_c, 0, 64, 127
2, 36812, Note_on_c, 0, 76, 79
2, 36812, Note_on_c, 0, 68, 58
2, 36828, Note_on_c, 0, 76, 0
2, 36828, Note_on_c, 0, 64, 0
2, 36832, Note_on_c, 0, 49, 0
2, 36834, Note_on_c, 0, 59, 0
2, 36841, Note_on_c, 0, 68, 0
2, 36851, Note_on_c, 0, 58, 74
2, 36872, Note_on_c, 0, 58, 0
2, 36895, Note_on_c, 0, 56, 74
2, 36899, Note_on_c, 0, 51, 58
2, 36918, Control_c, 0, 64, 72
2, 36922, Control_c, 0, 64, 0
2, 36954, Control_c, 0, 64, 40
2, 36959, Control_c, 0, 64, 104
2, 36963, Note_on_c, 0, 58, 60
2, 36963, Control_c, 0, 64, 127
2, 36996, Note_on_c, 0, 58, 0
2, 37008, Note_on_c, 0, 70, 58
2, 37009, Note_on_c, 0, 63, 50
2, 37025, Note_on_c, 0, 70, 0
2, 37029, Note_on_c, 0, 63, 0
2, 37033, Note_on_c, 0, 56, 0
2, 37058, Note_on_c, 0, 55, 84
2, 37079, Control_c, 0, 64, 88
2, 37083, Control_c, 0, 64, 0
2, 37105, Note_on_c, 0, 58, 52
2, 37108, Control_c, 0, 64, 88
2, 37112, Control_c, 0, 64, 127
2, 37131, Note_on_c, 0, 58, 0
2, 37148, Note_on_c, 0, 63, 47
2, 37149, Note_on_c, 0, 70, 53
2, 37165, Note_on_c, 0, 70, 0
2, 37165, Note_on_c, 0, 55, 0
2, 37169, Note_on_c, 0, 63, 0
2, 37181, Note_on_c, 0, 51, 0
2, 37190, Note_on_c, 0, 53, 77
2, 37204, Control_c, 0, 64, 104
2, 37209, Control_c, 0, 64, 24
2, 37213, Control_c, 0, 64, 0
2, 37229, Note_on_c, 0, 55, 83
2, 37233, Note_on_c, 0, 53, 0
2, 37265, Control_c, 0, 64, 40
2, 37269, Control_c, 0, 64, 88
2, 37273, Control_c, 0, 64, 127
2, 37279, Note_on_c, 0, 58, 43
2, 37298, Note_on_c, 0, 55, 0
2, 37313, Note_on_c, 0, 58, 0
2, 37326, Note_on_c, 0, 63, 52
2, 37327, Note_on_c, 0, 70, 44
2, 37341, Note_on_c, 0, 63, 0
2, 37348, Note_on_c, 0, 70, 0
2, 37366, Control_c, 0, 64, 72
2, 37366, Note_on_c, 0, 41, 64
2, 37370, Control_c, 0, 64, 0
2, 37376, Note_on_c, 0, 41, 0
2, 37386, Control_c, 0, 64, 72
2, 37390, Control_c, 0, 64, 127
2, 37394, Note_on_c, 0, 57, 83
2, 37443, Note_on_c, 0, 63, 61
2, 37446, Note_on_c, 0, 57, 0
2, 37478, Note_on_c, 0, 63, 0
2, 37491, Note_on_c, 0, 65, 52
2, 37491, Note_on_c, 0, 72, 63
2, 37501, Note_on_c, 0, 72, 0
2, 37507, Note_on_c, 0, 65, 0
2, 37532, Note_on_c, 0, 46, 58
2, 37559, Note_on_c, 0, 58, 84
2, 37563, Control_c, 0, 64, 88
2, 37567, Control_c, 0, 64, 40
2, 37571, Control_c, 0, 64, 0
2, 37600, Control_c, 0, 64, 72
2, 37604, Control_c, 0, 64, 127
2, 37613, Note_on_c, 0, 61, 66
2, 37633, Note_on_c, 0, 61, 0
2, 37657, Note_on_c, 0, 65, 45
2, 37659, Note_on_c, 0, 73, 62
2, 37663, Note_on_c, 0, 70, 39
2, 37676, Note_on_c, 0, 73, 0
2, 37676, Note_on_c, 0, 65, 0
2, 37677, Note_on_c, 0, 70, 0
2, 37689, Note_on_c, 0, 58, 0
2, 37705, Note_on_c, 0, 56, 83
2, 37721, Control_c, 0, 64, 56
2, 37725, Control_c, 0, 64, 0
2, 37745, Control_c, 0, 64, 40
2, 37749, Control_c, 0, 64, 104
2, 37753, Note_on_c, 0, 62, 68
2, 37753, Control_c, 0, 64, 127
2, 37779, Note_on_c, 0, 62, 0
2, 37791, Note_on_c, 0, 56, 0
2, 37798, Note_on_c, 0, 74, 69
2, 37799, Note_on_c, 0, 65, 59
2, 37799, Note_on_c, 0, 70, 46
2, 37811, Note_on_c, 0, 65, 0
2, 37815, Note_on_c, 0, 74, 0
2, 37821, Note_on_c, 0, 70, 0
2, 37843, Note_on_c, 0, 54, 83
2, 37847, Note_on_c, 0, 46, 0
2, 37858, Control_c, 0, 64, 88
2, 37862, Control_c, 0, 64, 0
2, 37889, Control_c, 0, 64, 56
2, 37894, Note_on_c, 0, 63, 65
2, 37894, Control_c, 0, 64, 127
2, 37925, Note_on_c, 0, 63, 0
2, 37936, Note_on_c, 0, 75, 76
2, 37941, Note_on_c, 0, 66, 42
2, 37947, Note_on_c, 0, 70, 24
2, 37955, Note_on_c, 0, 75, 0
2, 37957, Note_on_c, 0, 70, 0
2, 37957, Note_on_c, 0, 66, 0
2, 37982, Note_on_c, 0, 54, 0
2, 37982, Note_on_c, 0, 53, 93
2, 37999, Control_c, 0, 64, 88
2, 38003, Control_c, 0, 64, 0
2, 38019, Control_c, 0, 64, 24
2, 38023, Note_on_c, 0, 58, 61
2, 38023, Control_c, 0, 64, 72
2, 38027, Control_c, 0, 64, 127
2, 38054, Note_on_c, 0, 58, 0
2, 38065, Note_on_c, 0, 70, 55
2, 38066, Note_on_c, 0, 63, 45
2, 38067, Note_on_c, 0, 66, 46
2, 38085, Note_on_c, 0, 70, 0
2, 38089, Note_on_c, 0, 53, 0
2, 38089, Note_on_c, 0, 63, 0
2, 38093, Note_on_c, 0, 66, 0
2, 38096, Note_on_c, 0, 51, 87
2, 38133, Note_on_c, 0, 51, 0
2, 38147, Note_on_c, 0, 54, 83
2, 38160, Control_c, 0, 64, 104
2, 38164, Control_c, 0, 64, 40
2, 38168, Control_c, 0, 64, 0
2, 38197, Note_on_c, 0, 58, 69
2, 38201, Control_c, 0, 64, 56
2, 38205, Control_c, 0, 64, 127
2, 38240, Note_on_c, 0, 70, 81
2, 38288, Note_on_c, 0, 70, 0
2, 38300, Note_on_c, 0, 68, 72
2, 38307, Note_on_c, 0, 54, 0
2, 38308, Note_on_c, 0, 52, 73
2, 38315, Note_on_c, 0, 58, 0
2, 38317, Control_c, 0, 64, 104
2, 38321, Control_c, 0, 64, 24
2, 38325, Control_c, 0, 64, 0
2, 38362, Control_c, 0, 64, 88
2, 38362, Note_on_c, 0, 58, 52
2, 38366, Control_c, 0, 64, 127
2, 38385, Note_on_c, 0, 68, 0
2, 38398, Note_on_c, 0, 58, 0
2, 38408, Note_on_c, 0, 66, 74
2, 38408, Note_on_c, 0, 61, 53
2, 38430, Note_on_c, 0, 61, 0
2, 38430, Note_on_c, 0, 66, 0
2, 38433, Note_on_c, 0, 52, 0
2, 38467, Note_on_c, 0, 52, 81
2, 38491, Control_c, 0, 64, 40
2, 38495, Control_c, 0, 64, 0
2, 38511, Note_on_c, 0, 59, 57
2, 38519, Control_c, 0, 64, 56
2, 38523, Control_c, 0, 64, 127
2, 38537, Note_on_c, 0, 51, 84
2, 38542, Note_on_c, 0, 59, 0
2, 38548, Note_on_c, 0, 52, 0
2, 38555, Control_c, 0, 64, 104
2, 38559, Control_c, 0, 64, 56
2, 38563, Control_c, 0, 64, 0
2, 38571, Note_on_c, 0, 71, 75
2, 38575, Note_on_c, 0, 66, 43
2, 38580, Control_c, 0, 64, 56
2, 38584, Control_c, 0, 64, 104
2, 38588, Control_c, 0, 64, 127
2, 38589, Note_on_c, 0, 71, 0
2, 38596, Note_on_c, 0, 66, 0
2, 38606, Note_on_c, 0, 51, 0
2, 38613, Note_on_c, 0, 49, 76
2, 38623, Control_c, 0, 64, 72
2, 38628, Control_c, 0, 64, 0
2, 38648, Control_c, 0, 64, 24
2, 38652, Control_c, 0, 64, 72
2, 38656, Control_c, 0, 64, 127
2, 38660, Note_on_c, 0, 54, 60
2, 38700, Note_on_c, 0, 66, 56
2, 38707, Note_on_c, 0, 54, 0
2, 38707, Note_on_c, 0, 59, 44
2, 38709, Note_on_c, 0, 63, 47
2, 38719, Note_on_c, 0, 59, 0
2, 38720, Note_on_c, 0, 49, 0
2, 38722, Note_on_c, 0, 66, 0
2, 38726, Note_on_c, 0, 63, 0
2, 38730, Note_on_c, 0, 47, 83
2, 38759, Note_on_c, 0, 47, 0
2, 38772, Note_on_c, 0, 51, 84
2, 38785, Control_c, 0, 64, 104
2, 38789, Control_c, 0, 64, 72
2, 38793, Control_c, 0, 64, 0
2, 38829, Note_on_c, 0, 54, 63
2, 38834, Control_c, 0, 64, 72
2, 38838, Control_c, 0, 64, 127
2, 38863, Note_on_c, 0, 54, 0
2, 38871, Note_on_c, 0, 66, 70
2, 38877, Note_on_c, 0, 59, 60
2, 38898, Note_on_c, 0, 66, 0
2, 38916, Note_on_c, 0, 59, 0
2, 38923, Note_on_c, 0, 51, 0
2, 38933, Note_on_c, 0, 65, 70
2, 38935, Note_on_c, 0, 45, 66
2, 38947, Control_c, 0, 64, 72
2, 38951, Control_c, 0, 64, 0
2, 38983, Control_c, 0, 64, 72
2, 38986, Note_on_c, 0, 54, 49
2, 38987, Control_c, 0, 64, 127
2, 39008, Note_on_c, 0, 65, 0
2, 39028, Note_on_c, 0, 54, 0
2, 39032, Note_on_c, 0, 63, 64
2, 39038, Note_on_c, 0, 60, 48
2, 39047, Note_on_c, 0, 60, 0
2, 39057, Note_on_c, 0, 63, 0
2, 39061, Note_on_c, 0, 45, 0
2, 39087, Note_on_c, 0, 49, 70
2, 39120, Control_c, 0, 64, 104
2, 39124, Control_c, 0, 64, 24
2, 39128, Control_c, 0, 64, 0
2, 39138, Note_on_c, 0, 53, 70
2, 39148, Control_c, 0, 64, 40
2, 39152, Control_c, 0, 64, 104
2, 39156, Control_c, 0, 64, 127
2, 39171, Note_on_c, 0, 53, 0
2, 39186, Note_on_c, 0, 58, 59
2, 39208, Note_on_c, 0, 58, 0
2, 39226, Note_on_c, 0, 49, 0
2, 39233, Note_on_c, 0, 60, 76
2, 39235, Note_on_c, 0, 40, 57
2, 39249, Control_c, 0, 64, 104
2, 39253, Control_c, 0, 64, 24
2, 39257, Control_c, 0, 64, 0
2, 39277, Control_c, 0, 64, 24
2, 39281, Control_c, 0, 64, 88
2, 39282, Note_on_c, 0, 60, 0
2, 39285, Control_c, 0, 64, 127
2, 39286, Note_on_c, 0, 54, 64
2, 39330, Note_on_c, 0, 54, 0
2, 39338, Note_on_c, 0, 61, 68
2, 39342, Note_on_c, 0, 58, 47
2, 39361, Note_on_c, 0, 40, 0
2, 39363, Note_on_c, 0, 58, 0
2, 39391, Note_on_c, 0, 41, 79
2, 39402, Control_c, 0, 64, 104
2, 39404, Note_on_c, 0, 61, 0
2, 39406, Control_c, 0, 64, 40
2, 39410, Control_c, 0, 64, 0
2, 39433, Note_on_c, 0, 53, 62
2, 39435, Control_c, 0, 64, 40
2, 39439, Control_c, 0, 64, 104
2, 39443, Control_c, 0, 64, 127
2, 39460, Note_on_c, 0, 41, 0
2, 39462, Note_on_c, 0, 53, 0
2, 39472, Note_on_c, 0, 61, 58
2, 39476, Note_on_c, 0, 58, 35
2, 39502, Note_on_c, 0, 61, 0
2, 39504, Note_on_c, 0, 58, 0
2, 39518, Note_on_c, 0, 44, 64
2, 39545, Note_on_c, 0, 42, 74
2, 39546, Note_on_c, 0, 44, 0
2, 39576, Control_c, 0, 64, 72
2, 39580, Control_c, 0, 64, 0
2, 39588, Note_on_c, 0, 51, 58
2, 39607, Control_c, 0, 64, 24
2, 39612, Control_c, 0, 64, 88
2, 39616, Control_c, 0, 64, 127
2, 39625, Note_on_c, 0, 51, 0
2, 39636, Note_on_c, 0, 60, 52
2, 39639, Note_on_c, 0, 57, 46
2, 39646, Note_on_c, 0, 60, 0
2, 39648, Note_on_c, 0, 42, 0
2, 39661, Note_on_c, 0, 57, 0
2, 39679, Note_on_c, 0, 41, 72
2, 39708, Note_on_c, 0, 41, 0
2, 39723, Note_on_c, 0, 34, 68
2, 39737, Control_c, 0, 64, 72
2, 39741, Control_c, 0, 64, 0
2, 39769, Control_c, 0, 64, 24
2, 39772, Note_on_c, 0, 50, 63
2, 39773, Control_c, 0, 64, 104
2, 39777, Control_c, 0, 64, 127
2, 39797, Note_on_c, 0, 50, 0
2, 39818, Note_on_c, 0, 34, 0
2, 39825, Note_on_c, 0, 53, 63
2, 39829, Note_on_c, 0, 62, 69
2, 39843, Note_on_c, 0, 53, 0
2, 39850, Note_on_c, 0, 62, 0
2, 39892, Note_on_c, 0, 58, 90
2, 39902, Control_c, 0, 64, 104
2, 39906, Control_c, 0, 64, 40
2, 39911, Control_c, 0, 64, 0
2, 39931, Control_c, 0, 64, 72
2, 39935, Control_c, 0, 64, 127
2, 39948, Note_on_c, 0, 62, 64
2, 39974, Note_on_c, 0, 62, 0
2, 39993, Note_on_c, 0, 74, 78
2, 39994, Note_on_c, 0, 65, 54
2, 39995, Note_on_c, 0, 70, 61
2, 40001, Note_on_c, 0, 58, 0
2, 40011, Note_on_c, 0, 65, 0
2, 40017, Note_on_c, 0, 74, 0
2, 40020, Note_on_c, 0, 70, 0
2, 40043, Note_on_c, 0, 63, 91
2, 40060, Control_c, 0, 64, 72
2, 40064, Control_c, 0, 64, 0
2, 40088, Control_c, 0, 64, 40
2, 40091, Note_on_c, 0, 66, 82
2, 40092, Control_c, 0, 64, 104
2, 40096, Control_c, 0, 64, 127
2, 40121, Note_on_c, 0, 66, 0
2, 40130, Note_on_c, 0, 75, 91
2, 40134, Note_on_c, 0, 70, 72
2, 40163, Note_on_c, 0, 75, 0
2, 40167, Note_on_c, 0, 78, 75
2, 40187, Note_on_c, 0, 76, 90
2, 40188, Note_on_c, 0, 70, 0
2, 40196, Note_on_c, 0, 63, 0
2, 40198, Note_on_c, 0, 61, 83
2, 40200, Note_on_c, 0, 78, 0
2, 40201, Control_c, 0, 64, 40
2, 40205, Control_c, 0, 64, 0
2, 40229, Control_c, 0, 64, 56
2, 40233, Control_c, 0, 64, 127
2, 40253, Note_on_c, 0, 76, 0
2, 40254, Note_on_c, 0, 67, 69
2, 40283, Note_on_c, 0, 67, 0
2, 40291, Note_on_c, 0, 75, 90
2, 40297, Note_on_c, 0, 70, 61
2, 40320, Note_on_c, 0, 70, 0
2, 40326, Note_on_c, 0, 61, 0
2, 40339, Note_on_c, 0, 59, 84
2, 40340, Note_on_c, 0, 75, 0
2, 40350, Control_c, 0, 64, 72
2, 40354, Control_c, 0, 64, 0
2, 40378, Control_c, 0, 64, 56
2, 40380, Note_on_c, 0, 63, 65
2, 40382, Control_c, 0, 64, 127
2, 40411, Note_on_c, 0, 63, 0
2, 40421, Note_on_c, 0, 75, 72
2, 40428, Note_on_c, 0, 71, 52
2, 40430, Note_on_c, 0, 68, 39
2, 40445, Note_on_c, 0, 71, 0
2, 40465, Note_on_c, 0, 59, 0
2, 40467, Note_on_c, 0, 68, 0
2, 40469, Note_on_c, 0, 58, 83
2, 40482, Control_c, 0, 64, 72
2, 40484, Note_on_c, 0, 75, 0
2, 40486, Control_c, 0, 64, 0
2, 40503, Control_c, 0, 64, 24
2, 40507, Control_c, 0, 64, 88
2, 40510, Note_on_c, 0, 63, 58
2, 40511, Control_c, 0, 64, 127
2, 40540, Note_on_c, 0, 63, 0
2, 40552, Note_on_c, 0, 75, 70
2, 40552, Note_on_c, 0, 71, 51
2, 40552, Note_on_c, 0, 68, 51
2, 40570, Note_on_c, 0, 58, 0
2, 40576, Note_on_c, 0, 68, 0
2, 40576, Note_on_c, 0, 71, 0
2, 40577, Note_on_c, 0, 75, 0
2, 40579, Note_on_c, 0, 56, 84
2, 40614, Note_on_c, 0, 56, 0
2, 40620, Note_on_c, 0, 58, 85
2, 40641, Control_c, 0, 64, 40
2, 40645, Control_c, 0, 64, 0
2, 40670, Note_on_c, 0, 62, 63
2, 40673, Control_c, 0, 64, 56
2, 40676, Control_c, 0, 64, 127
2, 40713, Note_on_c, 0, 70, 65
2, 40718, Note_on_c, 0, 65, 41
2, 40740, Note_on_c, 0, 70, 0
2, 40743, Note_on_c, 0, 73, 76
2, 40753, Control_c, 0, 64, 104
2, 40757, Control_c, 0, 64, 0
2, 40764, Note_on_c, 0, 71, 77
2, 40766, Note_on_c, 0, 46, 59
2, 40775, Note_on_c, 0, 73, 0
2, 40781, Control_c, 0, 64, 88
2, 40786, Control_c, 0, 64, 127
2, 40791, Note_on_c, 0, 65, 0
2, 40796, Note_on_c, 0, 62, 0
2, 40797, Note_on_c, 0, 58, 0
2, 40802, Note_on_c, 0, 71, 0
2, 40826, Note_on_c, 0, 62, 73
2, 40849, Note_on_c, 0, 56, 83
2, 40870, Note_on_c, 0, 62, 0
2, 40882, Note_on_c, 0, 70, 75
2, 40889, Note_on_c, 0, 65, 47
2, 40899, Note_on_c, 0, 65, 0
2, 40905, Note_on_c, 0, 56, 0
2, 40914, Note_on_c, 0, 70, 0
2, 40928, Note_on_c, 0, 56, 87
2, 40951, Control_c, 0, 64, 56
2, 40955, Control_c, 0, 64, 0
2, 40976, Note_on_c, 0, 58, 66
2, 40978, Control_c, 0, 64, 56
2, 40983, Control_c, 0, 64, 104
2, 40987, Control_c, 0, 64, 127
2, 41002, Note_on_c, 0, 54, 84
2, 41008, Note_on_c, 0, 56, 0
2, 41015, Note_on_c, 0, 58, 0
2, 41023, Control_c, 0, 64, 72
2, 41027, Note_on_c, 0, 70, 73
2, 41028, Control_c, 0, 64, 56
2, 41036, Note_on_c, 0, 63, 49
2, 41040, Control_c, 0, 64, 127
2, 41070, Note_on_c, 0, 70, 0
2, 41075, Note_on_c, 0, 54, 0
2, 41076, Note_on_c, 0, 63, 0
2, 41076, Control_c, 0, 64, 88
2, 41080, Control_c, 0, 64, 24
2, 41081, Note_on_c, 0, 53, 75
2, 41082, Note_on_c, 0, 68, 65
2, 41084, Control_c, 0, 64, 0
2, 41112, Control_c, 0, 64, 56
2, 41116, Control_c, 0, 64, 104
2, 41120, Control_c, 0, 64, 127
2, 41129, Note_on_c, 0, 58, 56
2, 41135, Note_on_c, 0, 46, 0
2, 41151, Note_on_c, 0, 53, 0
2, 41153, Note_on_c, 0, 51, 83
2, 41162, Note_on_c, 0, 68, 0
2, 41186, Note_on_c, 0, 58, 0
2, 41190, Note_on_c, 0, 66, 66
2, 41197, Note_on_c, 0, 63, 37
2, 41222, Note_on_c, 0, 66, 0
2, 41226, Note_on_c, 0, 63, 0
2, 41229, Note_on_c, 0, 51, 0
2, 41232, Note_on_c, 0, 53, 81
2, 41233, Control_c, 0, 64, 88
2, 41237, Control_c, 0, 64, 24
2, 41241, Control_c, 0, 64, 0
2, 41265, Control_c, 0, 64, 24
2, 41269, Control_c, 0, 64, 72
2, 41271, Note_on_c, 0, 58, 57
2, 41274, Control_c, 0, 64, 127
2, 41300, Note_on_c, 0, 49, 68
2, 41306, Control_c, 0, 64, 56
2, 41307, Note_on_c, 0, 53, 0
2, 41310, Control_c, 0, 64, 0
2, 41325, Note_on_c, 0, 58, 0
2, 41330, Control_c, 0, 64, 40
2, 41334, Control_c, 0, 64, 88
2, 41334, Note_on_c, 0, 65, 69
2, 41338, Control_c, 0, 64, 127
2, 41339, Note_on_c, 0, 61, 36
2, 41371, Note_on_c, 0, 49, 0
2, 41371, Control_c, 0, 64, 88
2, 41373, Note_on_c, 0, 51, 79
2, 41375, Control_c, 0, 64, 24
2, 41378, Note_on_c, 0, 61, 0
2, 41379, Control_c, 0, 64, 0
2, 41383, Note_on_c, 0, 65, 0
2, 41399, Control_c, 0, 64, 56
2, 41403, Control_c, 0, 64, 88
2, 41407, Control_c, 0, 64, 127
2, 41415, Note_on_c, 0, 58, 63
2, 41447, Note_on_c, 0, 51, 0
2, 41447, Control_c, 0, 64, 104
2, 41448, Note_on_c, 0, 53, 78
2, 41451, Control_c, 0, 64, 40
2, 41455, Control_c, 0, 64, 0
2, 41459, Note_on_c, 0, 58, 0
2, 41471, Control_c, 0, 64, 24
2, 41475, Control_c, 0, 64, 56
2, 41479, Control_c, 0, 64, 104
2, 41483, Control_c, 0, 64, 127
2, 41484, Note_on_c, 0, 65, 52
2, 41485, Note_on_c, 0, 61, 43
2, 41516, Control_c, 0, 64, 56
2, 41517, Note_on_c, 0, 53, 0
2, 41517, Note_on_c, 0, 49, 76
2, 41520, Control_c, 0, 64, 0
2, 41529, Note_on_c, 0, 65, 0
2, 41537, Note_on_c, 0, 61, 0
2, 41540, Control_c, 0, 64, 40
2, 41544, Control_c, 0, 64, 88
2, 41548, Control_c, 0, 64, 127
2, 41561, Note_on_c, 0, 58, 63
2, 41582, Note_on_c, 0, 49, 0
2, 41584, Control_c, 0, 64, 104
2, 41588, Control_c, 0, 64, 56
2, 41589, Note_on_c, 0, 46, 73
2, 41592, Control_c, 0, 64, 0
2, 41597, Note_on_c, 0, 58, 0
2, 41608, Control_c, 0, 64, 24
2, 41613, Control_c, 0, 64, 56
2, 41617, Control_c, 0, 64, 104
2, 41621, Control_c, 0, 64, 127
2, 41627, Note_on_c, 0, 65, 60
2, 41630, Note_on_c, 0, 61, 42
2, 41652, Note_on_c, 0, 46, 0
2, 41652, Control_c, 0, 64, 104
2, 41656, Control_c, 0, 64, 40
2, 41658, Note_on_c, 0, 61, 0
2, 41659, Note_on_c, 0, 48, 87
2, 41660, Note_on_c, 0, 65, 0
2, 41661, Control_c, 0, 64, 0
2, 41681, Control_c, 0, 64, 40
2, 41685, Control_c, 0, 64, 88
2, 41689, Control_c, 0, 64, 127
2, 41700, Note_on_c, 0, 58, 59
2, 41717, Note_on_c, 0, 48, 0
2, 41725, Control_c, 0, 64, 104
2, 41731, Note_on_c, 0, 49, 83
2, 41736, Note_on_c, 0, 58, 0
2, 41745, Control_c, 0, 64, 127
2, 41771, Note_on_c, 0, 65, 48
2, 41772, Note_on_c, 0, 61, 41
2, 41781, Note_on_c, 0, 65, 0
2, 41790, Note_on_c, 0, 49, 0
2, 41797, Note_on_c, 0, 61, 0
2, 41800, Note_on_c, 0, 41, 79
2, 41801, Control_c, 0, 64, 104
2, 41806, Control_c, 0, 64, 40
2, 41810, Control_c, 0, 64, 0
2, 41834, Control_c, 0, 64, 24
2, 41838, Control_c, 0, 64, 72
2, 41841, Note_on_c, 0, 58, 69
2, 41842, Control_c, 0, 64, 127
2, 41865, Note_on_c, 0, 58, 0
2, 41867, Note_on_c, 0, 41, 0
2, 41869, Note_on_c, 0, 42, 74
2, 41904, Note_on_c, 0, 65, 56
2, 41908, Note_on_c, 0, 60, 48
2, 41923, Note_on_c, 0, 60, 0
2, 41929, Note_on_c, 0, 42, 0
2, 41931, Note_on_c, 0, 65, 0
2, 41941, Note_on_c, 0, 40, 79
2, 41942, Control_c, 0, 64, 104
2, 41947, Control_c, 0, 64, 72
2, 41951, Control_c, 0, 64, 0
2, 41975, Control_c, 0, 64, 40
2, 41979, Control_c, 0, 64, 88
2, 41983, Note_on_c, 0, 57, 61
2, 41983, Control_c, 0, 64, 127
2, 42009, Note_on_c, 0, 40, 0
2, 42014, Note_on_c, 0, 41, 79
2, 42024, Note_on_c, 0, 57, 0
2, 42051, Note_on_c, 0, 60, 40
2, 42053, Note_on_c, 0, 65, 49
2, 42053, Note_on_c, 0, 63, 40
2, 42063, Note_on_c, 0, 60, 0
2, 42065, Note_on_c, 0, 65, 0
2, 42074, Note_on_c, 0, 41, 0
2, 42075, Note_on_c, 0, 63, 0
2, 42080, Control_c, 0, 64, 88
2, 42084, Control_c, 0, 64, 40
2, 42087, Note_on_c, 0, 46, 77
2, 42089, Control_c, 0, 64, 0
2, 42109, Control_c, 0, 64, 56
2, 42113, Control_c, 0, 64, 127
2, 42142, Note_on_c, 0, 46, 0
2, 42144, Note_on_c, 0, 58, 59
2, 42173, Note_on_c, 0, 58, 0
2, 42190, Note_on_c, 0, 70, 45
2, 42192, Note_on_c, 0, 65, 41
2, 42202, Note_on_c, 0, 65, 0
2, 42207, Note_on_c, 0, 70, 0
2, 42237, Control_c, 0, 64, 72
2, 42241, Control_c, 0, 64, 0
2, 42247, Note_on_c, 0, 58, 78
2, 42262, Control_c, 0, 64, 56
2, 42266, Control_c, 0, 64, 127
2, 42291, Note_on_c, 0, 62, 76
2, 42317, Note_on_c, 0, 62, 0
2, 42337, Note_on_c, 0, 74, 87
2, 42339, Note_on_c, 0, 70, 61
2, 42360, Note_on_c, 0, 74, 0
2, 42363, Note_on_c, 0, 70, 0
2, 42367, Note_on_c, 0, 58, 0
2, 42382, Note_on_c, 0, 63, 92
2, 42395, Control_c, 0, 64, 56
2, 42399, Control_c, 0, 64, 0
2, 42423, Control_c, 0, 64, 24
2, 42427, Control_c, 0, 64, 88
2, 42431, Control_c, 0, 64, 127
2, 42433, Note_on_c, 0, 66, 85
2, 42461, Note_on_c, 0, 66, 0
2, 42473, Note_on_c, 0, 78, 90
2, 42475, Note_on_c, 0, 70, 77
2, 42477, Note_on_c, 0, 75, 66
2, 42491, Note_on_c, 0, 70, 0
2, 42499, Note_on_c, 0, 75, 0
2, 42499, Note_on_c, 0, 78, 0
2, 42516, Note_on_c, 0, 63, 0
2, 42523, Note_on_c, 0, 61, 90
2, 42536, Control_c, 0, 64, 24
2, 42540, Control_c, 0, 64, 0
2, 42564, Control_c, 0, 64, 88
2, 42567, Note_on_c, 0, 67, 85
2, 42568, Control_c, 0, 64, 127
2, 42599, Note_on_c, 0, 67, 0
2, 42611, Note_on_c, 0, 79, 93
2, 42612, Note_on_c, 0, 70, 72
2, 42614, Note_on_c, 0, 75, 65
2, 42628, Note_on_c, 0, 70, 0
2, 42632, Note_on_c, 0, 79, 0
2, 42637, Note_on_c, 0, 75, 0
2, 42644, Note_on_c, 0, 61, 0
2, 42669, Note_on_c, 0, 59, 96
2, 42685, Control_c, 0, 64, 104
2, 42689, Control_c, 0, 64, 56
2, 42693, Control_c, 0, 64, 0
2, 42725, Note_on_c, 0, 68, 75
2, 42725, Control_c, 0, 64, 88
2, 42729, Control_c, 0, 64, 127
2, 42758, Note_on_c, 0, 68, 0
2, 42764, Note_on_c, 0, 80, 89
2, 42768, Note_on_c, 0, 75, 63
2, 42769, Note_on_c, 0, 68, 28
2, 42769, Note_on_c, 0, 71, 62
2, 42781, Note_on_c, 0, 68, 0
2, 42785, Note_on_c, 0, 71, 0
2, 42790, Note_on_c, 0, 80, 0
2, 42794, Note_on_c, 0, 75, 0
2, 42802, Note_on_c, 0, 59, 0
2, 42808, Note_on_c, 0, 58, 87
2, 42822, Control_c, 0, 64, 104
2, 42827, Control_c, 0, 64, 0
2, 42843, Control_c, 0, 64, 56
2, 42847, Control_c, 0, 64, 127
2, 42855, Note_on_c, 0, 63, 82
2, 42878, Note_on_c, 0, 63, 0
2, 42892, Note_on_c, 0, 75, 81
2, 42897, Note_on_c, 0, 71, 62
2, 42899, Note_on_c, 0, 68, 45
2, 42901, Note_on_c, 0, 58, 0
2, 42913, Note_on_c, 0, 68, 0
2, 42914, Note_on_c, 0, 56, 85
2, 42916, Note_on_c, 0, 71, 0
2, 42928, Note_on_c, 0, 75, 0
2, 42953, Note_on_c, 0, 56, 0
2, 42955, Note_on_c, 0, 59, 93
2, 42963, Control_c, 0, 64, 72
2, 42967, Control_c, 0, 64, 0
2, 42996, Control_c, 0, 64, 88
2, 42997, Note_on_c, 0, 63, 70
2, 43000, Control_c, 0, 64, 127
2, 43019, Note_on_c, 0, 59, 0
2, 43021, Note_on_c, 0, 60, 88
2, 43030, Note_on_c, 0, 63, 0
2, 43055, Note_on_c, 0, 75, 74
2, 43058, Note_on_c, 0, 66, 47
2, 43059, Note_on_c, 0, 71, 63
2, 43079, Note_on_c, 0, 66, 0
2, 43081, Note_on_c, 0, 60, 0
2, 43086, Note_on_c, 0, 71, 0
2, 43090, Note_on_c, 0, 75, 0
2, 43093, Note_on_c, 0, 61, 95
2, 43101, Control_c, 0, 64, 40
2, 43105, Control_c, 0, 64, 0
2, 43121, Control_c, 0, 64, 24
2, 43125, Control_c, 0, 64, 88
2, 43129, Control_c, 0, 64, 127
2, 43133, Note_on_c, 0, 63, 72
2, 43157, Note_on_c, 0, 61, 0
2, 43162, Note_on_c, 0, 57, 88
2, 43166, Note_on_c, 0, 63, 0
2, 43195, Note_on_c, 0, 75, 70
2, 43197, Note_on_c, 0, 66, 50
2, 43198, Note_on_c, 0, 71, 63
2, 43213, Note_on_c, 0, 57, 0
2, 43218, Note_on_c, 0, 66, 0
2, 43219, Note_on_c, 0, 71, 0
2, 43228, Note_on_c, 0, 75, 0
2, 43250, Note_on_c, 0, 57, 88
2, 43274, Control_c, 0, 64, 88
2, 43278, Control_c, 0, 64, 0
2, 43298, Note_on_c, 0, 64, 66
2, 43310, Control_c, 0, 64, 40
2, 43315, Control_c, 0, 64, 88
2, 43319, Control_c, 0, 64, 127
2, 43325, Note_on_c, 0, 56, 88
2, 43335, Note_on_c, 0, 57, 0
2, 43338, Note_on_c, 0, 64, 0
2, 43358, Note_on_c, 0, 71, 52
2, 43360, Note_on_c, 0, 76, 68
2, 43372, Note_on_c, 0, 76, 0
2, 43383, Note_on_c, 0, 71, 0
2, 43391, Note_on_c, 0, 56, 0
2, 43393, Note_on_c, 0, 54, 84
2, 43395, Control_c, 0, 64, 72
2, 43399, Control_c, 0, 64, 0
2, 43427, Control_c, 0, 64, 40
2, 43431, Control_c, 0, 64, 104
2, 43435, Control_c, 0, 64, 127
2, 43437, Note_on_c, 0, 59, 73
2, 43467, Note_on_c, 0, 59, 0
2, 43468, Note_on_c, 0, 54, 0
2, 43469, Note_on_c, 0, 52, 89
2, 43502, Note_on_c, 0, 68, 58
2, 43504, Note_on_c, 0, 64, 69
2, 43507, Note_on_c, 0, 71, 62
2, 43517, Note_on_c, 0, 71, 0
2, 43525, Note_on_c, 0, 52, 0
2, 43526, Note_on_c, 0, 64, 0
2, 43532, Note_on_c, 0, 68, 0
2, 43544, Note_on_c, 0, 56, 84
2, 43573, Control_c, 0, 64, 88
2, 43577, Control_c, 0, 64, 24
2, 43581, Control_c, 0, 64, 0
2, 43596, Note_on_c, 0, 59, 61
2, 43604, Control_c, 0, 64, 72
2, 43609, Control_c, 0, 64, 127
2, 43639, Note_on_c, 0, 71, 81
2, 43643, Note_on_c, 0, 64, 66
2, 43656, Note_on_c, 0, 59, 0
2, 43668, Note_on_c, 0, 71, 0
2, 43677, Note_on_c, 0, 64, 0
2, 43695, Note_on_c, 0, 70, 69
2, 43697, Note_on_c, 0, 56, 0
2, 43699, Note_on_c, 0, 50, 68
2, 43706, Control_c, 0, 64, 72
2, 43710, Control_c, 0, 64, 0
2, 43738, Control_c, 0, 64, 56
2, 43742, Control_c, 0, 64, 127
2, 43751, Note_on_c, 0, 58, 61
2, 43776, Note_on_c, 0, 70, 0
2, 43787, Note_on_c, 0, 58, 0
2, 43795, Note_on_c, 0, 68, 61
2, 43799, Note_on_c, 0, 65, 56
2, 43815, Note_on_c, 0, 65, 0
2, 43825, Note_on_c, 0, 68, 0
2, 43845, Note_on_c, 0, 50, 0
2, 43846, Note_on_c, 0, 54, 78
2, 43847, Control_c, 0, 64, 72
2, 43851, Control_c, 0, 64, 0
2, 43879, Control_c, 0, 64, 88
2, 43883, Control_c, 0, 64, 127
2, 43891, Note_on_c, 0, 58, 50
2, 43924, Note_on_c, 0, 58, 0
2, 43941, Note_on_c, 0, 63, 64
2, 43979, Note_on_c, 0, 63, 0
2, 43993, Note_on_c, 0, 54, 0
2, 43995, Note_on_c, 0, 65, 68
2, 43999, Note_on_c, 0, 45, 70
2, 44008, Control_c, 0, 64, 88
2, 44012, Control_c, 0, 64, 24
2, 44016, Control_c, 0, 64, 0
2, 44036, Control_c, 0, 64, 72
2, 44040, Control_c, 0, 64, 127
2, 44043, Note_on_c, 0, 65, 0
2, 44043, Note_on_c, 0, 54, 50
2, 44078, Note_on_c, 0, 54, 0
2, 44086, Note_on_c, 0, 68, 55
2, 44110, Note_on_c, 0, 59, 48
2, 44114, Note_on_c, 0, 66, 65
2, 44117, Note_on_c, 0, 68, 0
2, 44140, Note_on_c, 0, 66, 0
2, 44155, Note_on_c, 0, 59, 0
2, 44171, Note_on_c, 0, 45, 0
2, 44183, Note_on_c, 0, 46, 64
2, 44210, Control_c, 0, 64, 104
2, 44214, Control_c, 0, 64, 40
2, 44218, Control_c, 0, 64, 0
2, 44235, Note_on_c, 0, 53, 62
2, 44246, Control_c, 0, 64, 56
2, 44250, Control_c, 0, 64, 127
2, 44264, Note_on_c, 0, 53, 0
2, 44284, Note_on_c, 0, 63, 70
2, 44288, Note_on_c, 0, 58, 50
2, 44309, Note_on_c, 0, 46, 0
2, 44313, Note_on_c, 0, 63, 0
2, 44315, Note_on_c, 0, 58, 0
2, 44338, Note_on_c, 0, 46, 78
2, 44355, Control_c, 0, 64, 56
2, 44359, Control_c, 0, 64, 0
2, 44379, Control_c, 0, 64, 24
2, 44383, Control_c, 0, 64, 72
2, 44386, Note_on_c, 0, 53, 71
2, 44386, Control_c, 0, 64, 127
2, 44414, Note_on_c, 0, 53, 0
2, 44435, Note_on_c, 0, 62, 59
2, 44438, Note_on_c, 0, 58, 33
2, 44443, Note_on_c, 0, 62, 0
2, 44447, Note_on_c, 0, 58, 0
2, 44472, Note_on_c, 0, 46, 0
2, 44477, Note_on_c, 0, 45, 73
2, 44487, Control_c, 0, 64, 72
2, 44492, Control_c, 0, 64, 0
2, 44516, Control_c, 0, 64, 40
2, 44520, Control_c, 0, 64, 88
2, 44524, Control_c, 0, 64, 127
2, 44533, Note_on_c, 0, 46, 78
2, 44542, Note_on_c, 0, 45, 0
2, 44576, Note_on_c, 0, 46, 0
2, 44576, Note_on_c, 0, 47, 80
2, 44581, Control_c, 0, 64, 72
2, 44584, Control_c, 0, 64, 0
2, 44609, Control_c, 0, 64, 24
2, 44613, Control_c, 0, 64, 40
2, 44617, Control_c, 0, 64, 24
2, 44621, Note_on_c, 0, 46, 84
2, 44621, Control_c, 0, 64, 0
2, 44623, Note_on_c, 0, 47, 0
2, 44641, Control_c, 0, 64, 56
2, 44645, Control_c, 0, 64, 104
2, 44647, Note_on_c, 0, 46, 0
2, 44649, Control_c, 0, 64, 127
2, 44673, Note_on_c, 0, 54, 75
2, 44685, Control_c, 0, 64, 56
2, 44689, Control_c, 0, 64, 0
2, 44710, Control_c, 0, 64, 24
2, 44714, Control_c, 0, 64, 88
2, 44718, Control_c, 0, 64, 127
2, 44720, Note_on_c, 0, 53, 73
2, 44735, Note_on_c, 0, 54, 0
2, 44762, Note_on_c, 0, 53, 0
2, 44773, Note_on_c, 0, 46, 70
2, 44782, Control_c, 0, 64, 104
2, 44786, Control_c, 0, 64, 40
2, 44791, Control_c, 0, 64, 0
2, 44819, Control_c, 0, 64, 104
2, 44823, Control_c, 0, 64, 127
2, 44828, Note_on_c, 0, 54, 73
2, 44863, Note_on_c, 0, 54, 0
2, 44873, Note_on_c, 0, 65, 79
2, 44877, Note_on_c, 0, 59, 64
2, 44900, Note_on_c, 0, 46, 0
2, 44902, Note_on_c, 0, 59, 0
2, 44927, Control_c, 0, 64, 88
2, 44927, Note_on_c, 0, 46, 80
2, 44931, Control_c, 0, 64, 24
2, 44935, Control_c, 0, 64, 0
2, 44952, Control_c, 0, 64, 24
2, 44956, Control_c, 0, 64, 88
2, 44960, Control_c, 0, 64, 127
2, 44983, Note_on_c, 0, 54, 55
2, 45010, Note_on_c, 0, 65, 0
2, 45043, Note_on_c, 0, 63, 62
2, 45044, Note_on_c, 0, 46, 0
2, 45045, Note_on_c, 0, 59, 47
2, 45053, Note_on_c, 0, 54, 0
2, 45055, Note_on_c, 0, 59, 0
2, 45079, Note_on_c, 0, 63, 0
2, 45103, Note_on_c, 0, 45, 73
2, 45109, Control_c, 0, 64, 104
2, 45113, Control_c, 0, 64, 40
2, 45117, Control_c, 0, 64, 0
2, 45141, Control_c, 0, 64, 24
2, 45145, Control_c, 0, 64, 72
2, 45149, Control_c, 0, 64, 104
2, 45152, Note_on_c, 0, 46, 82
2, 45153, Control_c, 0, 64, 127
2, 45156, Note_on_c, 0, 45, 0
2, 45191, Note_on_c, 0, 46, 0
2, 45195, Note_on_c, 0, 47, 89
2, 45198, Control_c, 0, 64, 88
2, 45202, Control_c, 0, 64, 24
2, 45206, Control_c, 0, 64, 0
2, 45225, Control_c, 0, 64, 40
2, 45230, Control_c, 0, 64, 72
2, 45234, Control_c, 0, 64, 88
2, 45241, Note_on_c, 0, 46, 84
2, 45246, Note_on_c, 0, 47, 0
2, 45250, Control_c, 0, 64, 127
2, 45261, Note_on_c, 0, 46, 0
2, 45289, Note_on_c, 0, 56, 77
2, 45299, Control_c, 0, 64, 104
2, 45303, Control_c, 0, 64, 24
2, 45307, Control_c, 0, 64, 0
2, 45327, Control_c, 0, 64, 56
2, 45331, Control_c, 0, 64, 104
2, 45335, Control_c, 0, 64, 127
2, 45338, Note_on_c, 0, 56, 0
2, 45343, Note_on_c, 0, 54, 74
2, 45391, Note_on_c, 0, 54, 0
2, 45404, Note_on_c, 0, 46, 68
2, 45415, Control_c, 0, 64, 104
2, 45419, Control_c, 0, 64, 40
2, 45423, Control_c, 0, 64, 0
2, 45452, Control_c, 0, 64, 72
2, 45456, Control_c, 0, 64, 127
2, 45463, Note_on_c, 0, 56, 66
2, 45506, Note_on_c, 0, 46, 0
2, 45511, Note_on_c, 0, 66, 77
2, 45520, Note_on_c, 0, 59, 57
2, 45535, Note_on_c, 0, 56, 0
2, 45576, Note_on_c, 0, 46, 78
2, 45585, Control_c, 0, 64, 40
2, 45589, Control_c, 0, 64, 0
2, 45613, Note_on_c, 0, 59, 0
2, 45613, Control_c, 0, 64, 104
2, 45617, Control_c, 0, 64, 127
2, 45640, Note_on_c, 0, 56, 62
2, 45675, Note_on_c, 0, 66, 0
2, 45683, Note_on_c, 0, 56, 0
2, 45693, Note_on_c, 0, 46, 0
2, 45702, Note_on_c, 0, 64, 69
2, 45704, Note_on_c, 0, 59, 63
2, 45714, Note_on_c, 0, 59, 0
2, 45729, Note_on_c, 0, 64, 0
2, 45795, Note_on_c, 0, 59, 83
2, 45823, Control_c, 0, 64, 104
2, 45827, Control_c, 0, 64, 0
2, 45859, Control_c, 0, 64, 72
2, 45863, Control_c, 0, 64, 127
2, 45888, Note_on_c, 0, 58, 82
2, 45892, Note_on_c, 0, 59, 0
2, 45899, Control_c, 0, 64, 104
2, 45903, Control_c, 0, 64, 56
2, 45907, Control_c, 0, 64, 0
2, 45923, Control_c, 0, 64, 24
2, 45928, Control_c, 0, 64, 72
2, 45932, Control_c, 0, 64, 127
2, 45956, Control_c, 0, 64, 72
2, 45956, Note_on_c, 0, 56, 89
2, 45960, Control_c, 0, 64, 0
2, 45964, Note_on_c, 0, 58, 0
2, 45980, Control_c, 0, 64, 40
2, 45984, Control_c, 0, 64, 88
2, 45988, Control_c, 0, 64, 127
2, 46008, Note_on_c, 0, 54, 83
2, 46008, Control_c, 0, 64, 104
2, 46012, Control_c, 0, 64, 56
2, 46015, Note_on_c, 0, 56, 0
2, 46016, Control_c, 0, 64, 0
2, 46024, Control_c, 0, 64, 24
2, 46029, Control_c, 0, 64, 40
2, 46033, Control_c, 0, 64, 72
2, 46037, Control_c, 0, 64, 104
2, 46041, Control_c, 0, 64, 127
2, 46053, Note_on_c, 0, 54, 0
2, 46059, Note_on_c, 0, 52, 86
2, 46061, Control_c, 0, 64, 56
2, 46064, Control_c, 0, 64, 0
2, 46097, Control_c, 0, 64, 40
2, 46101, Control_c, 0, 64, 72
2, 46105, Control_c, 0, 64, 88
2, 46109, Note_on_c, 0, 52, 0
2, 46109, Note_on_c, 0, 51, 89
2, 46137, Control_c, 0, 64, 104
2, 46141, Control_c, 0, 64, 127
2, 46169, Control_c, 0, 64, 88
2, 46172, Note_on_c, 0, 51, 0
2, 46174, Control_c, 0, 64, 40
2, 46177, Note_on_c, 0, 62, 68
2, 46178, Control_c, 0, 64, 0
2, 46178, Note_on_c, 0, 56, 51
2, 46179, Note_on_c, 0, 52, 60
2, 46180, Note_on_c, 0, 59, 55
2, 46194, Note_on_c, 0, 59, 0
2, 46206, Control_c, 0, 64, 24
2, 46210, Control_c, 0, 64, 72
2, 46213, Control_c, 0, 64, 104
2, 46217, Control_c, 0, 64, 127
2, 46229, Note_on_c, 0, 62, 0
2, 46238, Note_on_c, 0, 52, 0
2, 46238, Note_on_c, 0, 63, 78
2, 46239, Note_on_c, 0, 51, 58
2, 46290, Note_on_c, 0, 51, 0
2, 46295, Note_on_c, 0, 64, 79
2, 46299, Note_on_c, 0, 50, 63
2, 46329, Note_on_c, 0, 63, 0
2, 46337, Note_on_c, 0, 64, 0
2, 46357, Note_on_c, 0, 56, 0
2, 46363, Note_on_c, 0, 50, 0
2, 46373, Note_on_c, 0, 65, 75
2, 46373, Note_on_c, 0, 56, 27
2, 46378, Note_on_c, 0, 49, 43
2, 46379, Note_on_c, 0, 59, 34
2, 46379, Control_c, 0, 64, 72
2, 46383, Control_c, 0, 64, 0
2, 46434, Note_on_c, 0, 49, 0
2, 46442, Note_on_c, 0, 50, 63
2, 46444, Control_c, 0, 64, 24
2, 46448, Control_c, 0, 64, 56
2, 46452, Control_c, 0, 64, 88
2, 46455, Control_c, 0, 64, 127
2, 46463, Note_on_c, 0, 56, 0
2, 46466, Note_on_c, 0, 59, 0
2, 46481, Note_on_c, 0, 65, 0
2, 46490, Note_on_c, 0, 50, 0
2, 46495, Note_on_c, 0, 49, 54
2, 46543, Note_on_c, 0, 49, 0
2, 46553, Note_on_c, 0, 48, 70
2, 46561, Control_c, 0, 64, 88
2, 46565, Control_c, 0, 64, 40
2, 46569, Control_c, 0, 64, 0
2, 46585, Control_c, 0, 64, 88
2, 46589, Control_c, 0, 64, 127
2, 46603, Note_on_c, 0, 48, 0
2, 46604, Note_on_c, 0, 47, 66
2, 46647, Note_on_c, 0, 47, 0
2, 46662, Control_c, 0, 64, 88
2, 46663, Note_on_c, 0, 46, 54
2, 46666, Control_c, 0, 64, 24
2, 46670, Control_c, 0, 64, 0
2, 46690, Control_c, 0, 64, 56
2, 46694, Control_c, 0, 64, 88
2, 46698, Control_c, 0, 64, 127
2, 46729, Note_on_c, 0, 46, 0
2, 46734, Control_c, 0, 64, 56
2, 46738, Control_c, 0, 64, 0
2, 46740, Note_on_c, 0, 47, 51
2, 46763, Control_c, 0, 64, 40
2, 46767, Control_c, 0, 64, 88
2, 46771, Control_c, 0, 64, 127
2, 46825, Note_on_c, 0, 47, 0
2, 46827, Note_on_c, 0, 39, 51
2, 46835, Control_c, 0, 64, 56
2, 46839, Control_c, 0, 64, 0
2, 46859, Control_c, 0, 64, 24
2, 46863, Control_c, 0, 64, 72
2, 46867, Control_c, 0, 64, 127
2, 46903, Note_on_c, 0, 39, 0
2, 46911, Note_on_c, 0, 41, 44
2, 46916, Control_c, 0, 64, 88
2, 46920, Control_c, 0, 64, 24
2, 46924, Control_c, 0, 64, 0
2, 46951, Control_c, 0, 64, 72
2, 46955, Control_c, 0, 64, 127
2, 46984, Note_on_c, 0, 41, 0
2, 47030, Note_on_c, 0, 70, 59
2, 47034, Note_on_c, 0, 42, 47
2, 47045, Control_c, 0, 64, 88
2, 47048, Control_c, 0, 64, 24
2, 47052, Control_c, 0, 64, 0
2, 47077, Control_c, 0, 64, 104
2, 47081, Control_c, 0, 64, 127
2, 47102, Note_on_c, 0, 70, 0
2, 47103, Note_on_c, 0, 42, 0
2, 47103, Note_on_c, 0, 71, 68
2, 47143, Note_on_c, 0, 71, 0
2, 47154, Note_on_c, 0, 72, 79
2, 47193, Note_on_c, 0, 72, 0
2, 47203, Note_on_c, 0, 75, 79
2, 47209, Note_on_c, 0, 66, 50
2, 47230, Note_on_c, 0, 75, 0
2, 47233, Note_on_c, 0, 66, 0
2, 47247, Note_on_c, 0, 73, 79
2, 47250, Note_on_c, 0, 58, 43
2, 47279, Note_on_c, 0, 58, 0
2, 47283, Note_on_c, 0, 73, 0
2, 47292, Note_on_c, 0, 82, 83
2, 47294, Note_on_c, 0, 49, 58
2, 47327, Note_on_c, 0, 82, 0
2, 47331, Note_on_c, 0, 49, 0
2, 47339, Note_on_c, 0, 83, 79
2, 47339, Control_c, 0, 64, 72
2, 47342, Control_c, 0, 64, 0
2, 47344, Note_on_c, 0, 54, 47
2, 47363, Control_c, 0, 64, 56
2, 47365, Note_on_c, 0, 83, 0
2, 47367, Control_c, 0, 64, 127
2, 47381, Note_on_c, 0, 54, 0
2, 47381, Note_on_c, 0, 82, 81
2, 47387, Note_on_c, 0, 66, 51
2, 47412, Note_on_c, 0, 66, 0
2, 47413, Note_on_c, 0, 82, 0
2, 47422, Note_on_c, 0, 58, 49
2, 47423, Note_on_c, 0, 77, 88
2, 47447, Note_on_c, 0, 58, 0
2, 47450, Note_on_c, 0, 77, 0
2, 47463, Note_on_c, 0, 66, 45
2, 47466, Note_on_c, 0, 78, 89
2, 47485, Note_on_c, 0, 66, 0
2, 47495, Note_on_c, 0, 78, 0
2, 47500, Note_on_c, 0, 58, 52
2, 47505, Note_on_c, 0, 75, 90
2, 47534, Note_on_c, 0, 75, 0
2, 47535, Note_on_c, 0, 58, 0
2, 47546, Note_on_c, 0, 78, 92
2, 47548, Note_on_c, 0, 49, 49
2, 47579, Note_on_c, 0, 78, 0
2, 47595, Note_on_c, 0, 49, 0
2, 47601, Note_on_c, 0, 77, 90
2, 47604, Note_on_c, 0, 56, 53
2, 47605, Control_c, 0, 64, 72
2, 47609, Control_c, 0, 64, 0
2, 47636, Note_on_c, 0, 77, 0
2, 47638, Control_c, 0, 64, 104
2, 47642, Control_c, 0, 64, 127
2, 47644, Note_on_c, 0, 56, 0
2, 47652, Note_on_c, 0, 68, 63
2, 47656, Note_on_c, 0, 65, 62
2, 47679, Note_on_c, 0, 68, 0
2, 47683, Note_on_c, 0, 65, 0
2, 47693, Note_on_c, 0, 71, 82
2, 47701, Note_on_c, 0, 59, 49
2, 47720, Note_on_c, 0, 71, 0
2, 47722, Note_on_c, 0, 59, 0
2, 47731, Note_on_c, 0, 65, 56
2, 47731, Note_on_c, 0, 73, 83
2, 47751, Note_on_c, 0, 65, 0
2, 47762, Note_on_c, 0, 59, 52
2, 47764, Note_on_c, 0, 73, 0
2, 47771, Note_on_c, 0, 77, 93
2, 47780, Note_on_c, 0, 59, 0
2, 47797, Note_on_c, 0, 77, 0
2, 47809, Note_on_c, 0, 49, 50
2, 47811, Note_on_c, 0, 75, 93
2, 47835, Note_on_c, 0, 75, 0
2, 47840, Note_on_c, 0, 49, 0
2, 47845, Note_on_c, 0, 77, 76
2, 47855, Control_c, 0, 64, 72
2, 47855, Note_on_c, 0, 75, 78
2, 47859, Note_on_c, 0, 56, 51
2, 47859, Control_c, 0, 64, 0
2, 47867, Note_on_c, 0, 77, 0
2, 47880, Control_c, 0, 64, 24
2, 47884, Control_c, 0, 64, 104
2, 47888, Control_c, 0, 64, 127
2, 47891, Note_on_c, 0, 75, 0
2, 47896, Note_on_c, 0, 74, 83
2, 47900, Note_on_c, 0, 56, 0
2, 47906, Note_on_c, 0, 65, 50
2, 47923, Note_on_c, 0, 74, 0
2, 47929, Note_on_c, 0, 65, 0
2, 47936, Note_on_c, 0, 68, 77
2, 47941, Note_on_c, 0, 59, 50
2, 47968, Note_on_c, 0, 68, 0
2, 47971, Note_on_c, 0, 59, 0
2, 47979, Note_on_c, 0, 70, 83
2, 47981, Note_on_c, 0, 65, 39
2, 47999, Note_on_c, 0, 65, 0
2, 48007, Note_on_c, 0, 70, 0
2, 48012, Note_on_c, 0, 59, 62
2, 48018, Note_on_c, 0, 73, 83
2, 48043, Note_on_c, 0, 59, 0
2, 48048, Note_on_c, 0, 73, 0
2, 48060, Note_on_c, 0, 72, 87
2, 48062, Note_on_c, 0, 50, 42
2, 48097, Note_on_c, 0, 72, 0
2, 48103, Note_on_c, 0, 50, 0
2, 48107, Note_on_c, 0, 71, 74
2, 48114, Control_c, 0, 64, 56
2, 48117, Note_on_c, 0, 51, 51
2, 48118, Control_c, 0, 64, 0
2, 48155, Note_on_c, 0, 71, 0
2, 48155, Note_on_c, 0, 66, 66
2, 48157, Note_on_c, 0, 51, 0
2, 48162, Control_c, 0, 64, 127
2, 48163, Note_on_c, 0, 63, 53
2, 48182, Note_on_c, 0, 66, 0
2, 48186, Note_on_c, 0, 63, 0
2, 48196, Note_on_c, 0, 68, 79
2, 48203, Note_on_c, 0, 54, 52
2, 48225, Note_on_c, 0, 54, 0
2, 48231, Note_on_c, 0, 68, 0
2, 48237, Note_on_c, 0, 69, 85
2, 48237, Note_on_c, 0, 63, 56
2, 48264, Note_on_c, 0, 63, 0
2, 48276, Note_on_c, 0, 70, 91
2, 48279, Note_on_c, 0, 54, 39
2, 48286, Note_on_c, 0, 69, 0
2, 48307, Note_on_c, 0, 70, 0
2, 48309, Note_on_c, 0, 54, 0
2, 48318, Note_on_c, 0, 78, 87
2, 48318, Note_on_c, 0, 46, 49
2, 48349, Note_on_c, 0, 78, 0
2, 48356, Note_on_c, 0, 46, 0
2, 48364, Note_on_c, 0, 77, 89
2, 48364, Control_c, 0, 64, 72
2, 48364, Note_on_c, 0, 51, 55
2, 48368, Control_c, 0, 64, 0
2, 48388, Control_c, 0, 64, 24
2, 48392, Control_c, 0, 64, 104
2, 48395, Control_c, 0, 64, 127
2, 48397, Note_on_c, 0, 77, 0
2, 48405, Note_on_c, 0, 76, 90
2, 48407, Note_on_c, 0, 51, 0
2, 48409, Note_on_c, 0, 63, 61
2, 48434, Note_on_c, 0, 63, 0
2, 48438, Note_on_c, 0, 76, 0
2, 48445, Note_on_c, 0, 75, 92
2, 48452, Note_on_c, 0, 54, 50
2, 48477, Note_on_c, 0, 54, 0
2, 48478, Note_on_c, 0, 75, 0
2, 48485, Note_on_c, 0, 74, 85
2, 48485, Note_on_c, 0, 63, 52
2, 48512, Note_on_c, 0, 74, 0
2, 48513, Note_on_c, 0, 63, 0
2, 48519, Note_on_c, 0, 54, 55
2, 48523, Note_on_c, 0, 75, 92
2, 48553, Note_on_c, 0, 75, 0
2, 48556, Note_on_c, 0, 54, 0
2, 48562, Note_on_c, 0, 71, 75
2, 48571, Note_on_c, 0, 46, 46
2, 48581, Note_on_c, 0, 71, 0
2, 48594, Note_on_c, 0, 73, 64
2, 48606, Note_on_c, 0, 46, 0
2, 48606, Control_c, 0, 64, 104
2, 48610, Control_c, 0, 64, 40
2, 48611, Note_on_c, 0, 71, 86
2, 48614, Note_on_c, 0, 53, 61
2, 48614, Control_c, 0, 64, 0
2, 48620, Note_on_c, 0, 73, 0
2, 48641, Control_c, 0, 64, 104
2, 48645, Note_on_c, 0, 53, 0
2, 48646, Control_c, 0, 64, 127
2, 48649, Note_on_c, 0, 71, 0
2, 48654, Note_on_c, 0, 62, 65
2, 48657, Note_on_c, 0, 65, 71
2, 48675, Note_on_c, 0, 62, 0
2, 48695, Note_on_c, 0, 56, 61
2, 48697, Note_on_c, 0, 68, 89
2, 48719, Note_on_c, 0, 65, 0
2, 48721, Note_on_c, 0, 68, 0
2, 48721, Note_on_c, 0, 56, 0
2, 48734, Note_on_c, 0, 62, 46
2, 48735, Note_on_c, 0, 70, 88
2, 48754, Note_on_c, 0, 62, 0
2, 48767, Note_on_c, 0, 56, 48
2, 48769, Note_on_c, 0, 70, 0
2, 48775, Note_on_c, 0, 73, 91
2, 48796, Note_on_c, 0, 56, 0
2, 48804, Note_on_c, 0, 73, 0
2, 48816, Note_on_c, 0, 46, 47
2, 48819, Note_on_c, 0, 72, 93
2, 48840, Control_c, 0, 64, 56
2, 48844, Control_c, 0, 64, 0
2, 48854, Note_on_c, 0, 46, 0
2, 48856, Note_on_c, 0, 72, 0
2, 48860, Note_on_c, 0, 71, 79
2, 48863, Note_on_c, 0, 53, 51
2, 48868, Control_c, 0, 64, 56
2, 48872, Control_c, 0, 64, 127
2, 48902, Note_on_c, 0, 71, 0
2, 48910, Note_on_c, 0, 65, 62
2, 48914, Note_on_c, 0, 62, 59
2, 48938, Note_on_c, 0, 62, 0
2, 48951, Note_on_c, 0, 53, 0
2, 48955, Note_on_c, 0, 69, 79
2, 48959, Note_on_c, 0, 56, 47
2, 48983, Note_on_c, 0, 69, 0
2, 48997, Note_on_c, 0, 56, 0
2, 49001, Note_on_c, 0, 70, 73
2, 49007, Note_on_c, 0, 62, 42
2, 49030, Note_on_c, 0, 62, 0
2, 49032, Note_on_c, 0, 70, 0
2, 49046, Note_on_c, 0, 71, 73
2, 49047, Note_on_c, 0, 56, 49
2, 49079, Note_on_c, 0, 71, 0
2, 49081, Note_on_c, 0, 56, 0
2, 49094, Note_on_c, 0, 65, 0
2, 49095, Note_on_c, 0, 68, 70
2, 49100, Note_on_c, 0, 46, 45
2, 49118, Note_on_c, 0, 68, 0
2, 49157, Note_on_c, 0, 46, 0
2, 49161, Note_on_c, 0, 66, 87
2, 49168, Note_on_c, 0, 51, 45
2, 49183, Control_c, 0, 64, 88
2, 49187, Control_c, 0, 64, 0
2, 49210, Note_on_c, 0, 51, 0
2, 49215, Control_c, 0, 64, 88
2, 49218, Note_on_c, 0, 63, 66
2, 49218, Note_on_c, 0, 58, 47
2, 49218, Control_c, 0, 64, 127
2, 49253, Note_on_c, 0, 58, 0
2, 49257, Note_on_c, 0, 51, 55
2, 49259, Note_on_c, 0, 61, 62
2, 49263, Note_on_c, 0, 63, 0
2, 49283, Note_on_c, 0, 51, 0
2, 49297, Note_on_c, 0, 61, 0
2, 49306, Note_on_c, 0, 58, 49
2, 49307, Note_on_c, 0, 60, 73
2, 49307, Control_c, 0, 64, 56
2, 49311, Control_c, 0, 64, 0
2, 49315, Note_on_c, 0, 44, 55
2, 49323, Control_c, 0, 64, 56
2, 49328, Control_c, 0, 64, 104
2, 49329, Note_on_c, 0, 58, 0
2, 49332, Control_c, 0, 64, 127
2, 49344, Note_on_c, 0, 66, 0
2, 49350, Note_on_c, 0, 44, 0
2, 49355, Note_on_c, 0, 65, 87
2, 49359, Note_on_c, 0, 56, 47
2, 49371, Note_on_c, 0, 60, 0
2, 49387, Note_on_c, 0, 65, 0
2, 49390, Note_on_c, 0, 56, 0
2, 49400, Note_on_c, 0, 66, 88
2, 49408, Note_on_c, 0, 51, 54
2, 49414, Note_on_c, 0, 51, 0
2, 49431, Note_on_c, 0, 66, 0
2, 49453, Control_c, 0, 64, 72
2, 49456, Note_on_c, 0, 70, 84
2, 49456, Control_c, 0, 64, 0
2, 49460, Note_on_c, 0, 49, 49
2, 49460, Note_on_c, 0, 59, 63
2, 49463, Note_on_c, 0, 54, 50
2, 49493, Control_c, 0, 64, 56
2, 49497, Control_c, 0, 64, 72
2, 49501, Note_on_c, 0, 70, 0
2, 49502, Note_on_c, 0, 54, 0
2, 49505, Note_on_c, 0, 68, 81
2, 49512, Note_on_c, 0, 53, 55
2, 49521, Control_c, 0, 64, 104
2, 49525, Control_c, 0, 64, 127
2, 49538, Note_on_c, 0, 68, 0
2, 49545, Note_on_c, 0, 53, 0
2, 49551, Note_on_c, 0, 63, 82
2, 49555, Note_on_c, 0, 54, 58
2, 49590, Note_on_c, 0, 54, 0
2, 49591, Note_on_c, 0, 63, 0
2, 49598, Note_on_c, 0, 61, 78
2, 49599, Note_on_c, 0, 56, 49
2, 49614, Control_c, 0, 64, 72
2, 49618, Control_c, 0, 64, 0
2, 49640, Note_on_c, 0, 61, 0
2, 49644, Note_on_c, 0, 65, 64
2, 49652, Note_on_c, 0, 63, 81
2, 49659, Control_c, 0, 64, 56
2, 49663, Control_c, 0, 64, 127
2, 49664, Note_on_c, 0, 65, 0
2, 49673, Note_on_c, 0, 56, 0
2, 49673, Note_on_c, 0, 59, 0
2, 49676, Note_on_c, 0, 49, 0
2, 49697, Note_on_c, 0, 63, 0
2, 49701, Note_on_c, 0, 61, 65
2, 49725, Note_on_c, 0, 61, 0
2, 49733, Note_on_c, 0, 58, 70
2, 49743, Control_c, 0, 64, 104
2, 49747, Control_c, 0, 64, 0
2, 49761, Note_on_c, 0, 42, 52
2, 49771, Note_on_c, 0, 70, 86
2, 49779, Control_c, 0, 64, 127
2, 49782, Note_on_c, 0, 42, 0
2, 49783, Note_on_c, 0, 58, 0
2, 49819, Note_on_c, 0, 61, 62
2, 49819, Note_on_c, 0, 58, 50
2, 49819, Note_on_c, 0, 54, 50
2, 49836, Note_on_c, 0, 54, 0
2, 49836, Note_on_c, 0, 58, 0
2, 49836, Note_on_c, 0, 61, 0
2, 49861, Note_on_c, 0, 58, 58
2, 49861, Note_on_c, 0, 54, 46
2, 49862, Note_on_c, 0, 62, 78
2, 49882, Note_on_c, 0, 62, 0
2, 49892, Note_on_c, 0, 58, 0
2, 49905, Control_c, 0, 64, 56
2, 49906, Note_on_c, 0, 63, 84
2, 49907, Note_on_c, 0, 58, 62
2, 49909, Control_c, 0, 64, 0
2, 49921, Control_c, 0, 64, 24
2, 49925, Control_c, 0, 64, 104
2, 49929, Control_c, 0, 64, 127
2, 49935, Note_on_c, 0, 63, 0
2, 49936, Note_on_c, 0, 70, 0
2, 49947, Note_on_c, 0, 54, 0
2, 49950, Note_on_c, 0, 69, 93
2, 49953, Note_on_c, 0, 58, 0
2, 49980, Note_on_c, 0, 69, 0
2, 49994, Note_on_c, 0, 70, 103
2, 50041, Control_c, 0, 64, 104
2, 50045, Control_c, 0, 64, 0
2, 50055, Note_on_c, 0, 41, 63
2, 50058, Note_on_c, 0, 73, 97
2, 50067, Note_on_c, 0, 70, 0
2, 50074, Control_c, 0, 64, 127
2, 50080, Note_on_c, 0, 41, 0
2, 50093, Note_on_c, 0, 73, 0
2, 50108, Note_on_c, 0, 72, 100
2, 50111, Note_on_c, 0, 63, 59
2, 50115, Note_on_c, 0, 57, 39
2, 50118, Note_on_c, 0, 53, 59
2, 50126, Note_on_c, 0, 53, 0
2, 50127, Note_on_c, 0, 63, 0
2, 50128, Note_on_c, 0, 57, 0
2, 50142, Note_on_c, 0, 72, 0
2, 50151, Note_on_c, 0, 66, 90
2, 50155, Note_on_c, 0, 58, 51
2, 50160, Note_on_c, 0, 63, 41
2, 50162, Note_on_c, 0, 53, 47
2, 50164, Note_on_c, 0, 58, 0
2, 50169, Note_on_c, 0, 63, 0
2, 50172, Note_on_c, 0, 53, 0
2, 50179, Note_on_c, 0, 66, 0
2, 50199, Control_c, 0, 64, 56
2, 50200, Note_on_c, 0, 65, 88
2, 50203, Control_c, 0, 64, 0
2, 50204, Note_on_c, 0, 63, 37
2, 50205, Note_on_c, 0, 60, 62
2, 50213, Note_on_c, 0, 53, 33
2, 50241, Note_on_c, 0, 68, 82
2, 50243, Note_on_c, 0, 65, 0
2, 50255, Note_on_c, 0, 66, 88
2, 50259, Control_c, 0, 64, 88
2, 50261, Note_on_c, 0, 68, 0
2, 50263, Control_c, 0, 64, 127
2, 50277, Note_on_c, 0, 60, 0
2, 50279, Note_on_c, 0, 63, 0
2, 50281, Note_on_c, 0, 53, 0
2, 50293, Note_on_c, 0, 66, 0
2, 50297, Note_on_c, 0, 65, 82
2, 50327, Note_on_c, 0, 65, 0
2, 50344, Control_c, 0, 64, 104
2, 50348, Control_c, 0, 64, 0
2, 50350, Note_on_c, 0, 73, 98
2, 50351, Note_on_c, 0, 46, 68
2, 50366, Note_on_c, 0, 46, 0
2, 50372, Control_c, 0, 64, 127
2, 50398, Note_on_c, 0, 61, 49
2, 50404, Note_on_c, 0, 58, 50
2, 50405, Note_on_c, 0, 65, 66
2, 50412, Note_on_c, 0, 65, 0
2, 50412, Note_on_c, 0, 58, 0
2, 50418, Note_on_c, 0, 61, 0
2, 50441, Note_on_c, 0, 66, 83
2, 50443, Note_on_c, 0, 61, 56
2, 50443, Note_on_c, 0, 58, 55
2, 50449, Note_on_c, 0, 61, 0
2, 50461, Note_on_c, 0, 58, 0
2, 50463, Note_on_c, 0, 66, 0
2, 50464, Note_on_c, 0, 73, 0
2, 50488, Note_on_c, 0, 61, 76
2, 50488, Note_on_c, 0, 67, 88
2, 50489, Control_c, 0, 64, 40
2, 50493, Note_on_c, 0, 57, 69
2, 50493, Control_c, 0, 64, 0
2, 50497, Control_c, 0, 64, 24
2, 50501, Control_c, 0, 64, 88
2, 50505, Control_c, 0, 64, 127
2, 50531, Note_on_c, 0, 57, 0
2, 50534, Note_on_c, 0, 75, 98
2, 50535, Note_on_c, 0, 67, 0
2, 50546, Note_on_c, 0, 61, 0
2, 50559, Note_on_c, 0, 75, 0
2, 50575, Note_on_c, 0, 76, 99
2, 50612, Note_on_c, 0, 76, 0
2, 50614, Control_c, 0, 64, 104
2, 50618, Control_c, 0, 64, 0
2, 50622, Note_on_c, 0, 68, 58
2, 50622, Note_on_c, 0, 56, 61
2, 50623, Note_on_c, 0, 61, 57
2, 50625, Note_on_c, 0, 77, 104
2, 50639, Control_c, 0, 64, 56
2, 50642, Note_on_c, 0, 56, 0
2, 50642, Note_on_c, 0, 68, 0
2, 50642, Control_c, 0, 64, 127
2, 50647, Note_on_c, 0, 61, 0
2, 50658, Note_on_c, 0, 77, 0
2, 50670, Note_on_c, 0, 78, 98
2, 50708, Note_on_c, 0, 78, 0
2, 50716, Note_on_c, 0, 80, 103
2, 50732, Note_on_c, 0, 55, 70
2, 50737, Note_on_c, 0, 80, 0
2, 50750, Note_on_c, 0, 61, 60
2, 50751, Note_on_c, 0, 55, 0
2, 50755, Control_c, 0, 64, 24
2, 50759, Control_c, 0, 64, 0
2, 50766, Note_on_c, 0, 64, 58
2, 50772, Control_c, 0, 64, 56
2, 50775, Note_on_c, 0, 82, 96
2, 50776, Control_c, 0, 64, 127
2, 50780, Note_on_c, 0, 70, 64
2, 50794, Note_on_c, 0, 64, 0
2, 50796, Note_on_c, 0, 70, 0
2, 50797, Note_on_c, 0, 82, 0
2, 50803, Note_on_c, 0, 61, 0
2, 50827, Note_on_c, 0, 84, 93
2, 50861, Note_on_c, 0, 84, 0
2, 50879, Note_on_c, 0, 85, 88
2, 50904, Note_on_c, 0, 85, 0
2, 50943, Note_on_c, 0, 32, 54
2, 50945, Control_c, 0, 64, 40
2, 50949, Control_c, 0, 64, 0
2, 50952, Note_on_c, 0, 68, 83
2, 50962, Note_on_c, 0, 32, 0
2, 50965, Control_c, 0, 64, 40
2, 50969, Control_c, 0, 64, 127
2, 51012, Note_on_c, 0, 56, 45
2, 51013, Note_on_c, 0, 66, 57
2, 51015, Note_on_c, 0, 61, 44
2, 51022, Note_on_c, 0, 61, 0
2, 51023, Note_on_c, 0, 66, 0
2, 51023, Note_on_c, 0, 56, 0
2, 51061, Note_on_c, 0, 61, 45
2, 51061, Note_on_c, 0, 66, 57
2, 51065, Note_on_c, 0, 56, 44
2, 51082, Note_on_c, 0, 66, 0
2, 51086, Note_on_c, 0, 61, 0
2, 51129, Note_on_c, 0, 78, 84
2, 51133, Note_on_c, 0, 60, 56
2, 51134, Note_on_c, 0, 66, 49
2, 51134, Note_on_c, 0, 56, 49
2, 51155, Control_c, 0, 64, 104
2, 51159, Control_c, 0, 64, 0
2, 51179, Control_c, 0, 64, 56
2, 51183, Control_c, 0, 64, 127
2, 51190, Note_on_c, 0, 78, 0
2, 51197, Note_on_c, 0, 75, 86
2, 51218, Note_on_c, 0, 60, 0
2, 51225, Note_on_c, 0, 56, 0
2, 51226, Note_on_c, 0, 66, 0
2, 51226, Note_on_c, 0, 56, 0
2, 51237, Note_on_c, 0, 75, 0
2, 51245, Note_on_c, 0, 77, 89
2, 51288, Control_c, 0, 64, 56
2, 51292, Control_c, 0, 64, 0
2, 51294, Note_on_c, 0, 49, 58
2, 51296, Note_on_c, 0, 77, 0
2, 51299, Note_on_c, 0, 73, 83
2, 51304, Control_c, 0, 64, 40
2, 51308, Control_c, 0, 64, 127
2, 51315, Note_on_c, 0, 49, 0
2, 51333, Note_on_c, 0, 73, 0
2, 51352, Note_on_c, 0, 65, 46
2, 51353, Note_on_c, 0, 59, 55
2, 51356, Note_on_c, 0, 75, 87
2, 51365, Note_on_c, 0, 65, 0
2, 51369, Note_on_c, 0, 68, 0
2, 51386, Note_on_c, 0, 75, 0
2, 51389, Note_on_c, 0, 59, 0
2, 51410, Note_on_c, 0, 70, 76
2, 51411, Note_on_c, 0, 49, 34
2, 51420, Note_on_c, 0, 49, 0
2, 51438, Note_on_c, 0, 70, 0
2, 51475, Note_on_c, 0, 71, 68
2, 51481, Note_on_c, 0, 65, 47
2, 51481, Note_on_c, 0, 59, 38
2, 51514, Control_c, 0, 64, 40
2, 51518, Control_c, 0, 64, 0
2, 51541, Note_on_c, 0, 71, 0
2, 51549, Note_on_c, 0, 73, 68
2, 51554, Control_c, 0, 64, 104
2, 51558, Control_c, 0, 64, 127
2, 51607, Note_on_c, 0, 65, 0
2, 51609, Note_on_c, 0, 73, 0
2, 51611, Note_on_c, 0, 59, 0
2, 51615, Note_on_c, 0, 68, 59
2, 51675, Note_on_c, 0, 68, 0
2, 51692, Note_on_c, 0, 70, 70
2, 51699, Control_c, 0, 64, 40
2, 51700, Note_on_c, 0, 42, 52
2, 51703, Control_c, 0, 64, 0
2, 51719, Control_c, 0, 64, 40
2, 51723, Note_on_c, 0, 42, 0
2, 51723, Control_c, 0, 64, 127
2, 51729, Note_on_c, 0, 70, 0
2, 51759, Note_on_c, 0, 71, 75
2, 51766, Note_on_c, 0, 66, 57
2, 51789, Note_on_c, 0, 66, 0
2, 51790, Note_on_c, 0, 71, 0
2, 51807, Note_on_c, 0, 72, 82
2, 51811, Note_on_c, 0, 69, 60
2, 51814, Note_on_c, 0, 58, 45
2, 51820, Note_on_c, 0, 69, 0
2, 51835, Note_on_c, 0, 72, 0
2, 51840, Note_on_c, 0, 58, 0
2, 51853, Note_on_c, 0, 71, 70
2, 51853, Note_on_c, 0, 75, 78
2, 51855, Note_on_c, 0, 66, 58
2, 51872, Note_on_c, 0, 71, 0
2, 51876, Note_on_c, 0, 66, 0
2, 51882, Note_on_c, 0, 75, 0
2, 51900, Note_on_c, 0, 70, 66
2, 51901, Note_on_c, 0, 58, 57
2, 51902, Note_on_c, 0, 73, 80
2, 51913, Note_on_c, 0, 70, 0
2, 51917, Note_on_c, 0, 73, 0
2, 51936, Note_on_c, 0, 58, 0
2, 51941, Note_on_c, 0, 82, 86
2, 51941, Control_c, 0, 64, 88
2, 51943, Note_on_c, 0, 73, 79
2, 51945, Control_c, 0, 64, 24
2, 51949, Control_c, 0, 64, 0
2, 51950, Note_on_c, 0, 61, 50
2, 51953, Control_c, 0, 64, 24
2, 51953, Note_on_c, 0, 49, 48
2, 51957, Control_c, 0, 64, 88
2, 51959, Note_on_c, 0, 73, 0
2, 51961, Control_c, 0, 64, 127
2, 51969, Note_on_c, 0, 82, 0
2, 51973, Note_on_c, 0, 49, 0
2, 51974, Note_on_c, 0, 61, 0
2, 51987, Note_on_c, 0, 83, 91
2, 51989, Note_on_c, 0, 75, 76
2, 51992, Note_on_c, 0, 54, 46
2, 52008, Note_on_c, 0, 75, 0
2, 52009, Note_on_c, 0, 83, 0
2, 52021, Note_on_c, 0, 54, 0
2, 52027, Note_on_c, 0, 82, 85
2, 52035, Note_on_c, 0, 73, 68
2, 52035, Note_on_c, 0, 66, 65
2, 52043, Note_on_c, 0, 73, 0
2, 52054, Note_on_c, 0, 82, 0
2, 52059, Note_on_c, 0, 66, 0
2, 52072, Note_on_c, 0, 58, 62
2, 52074, Note_on_c, 0, 77, 96
2, 52074, Note_on_c, 0, 68, 70
2, 52097, Note_on_c, 0, 68, 0
2, 52097, Note_on_c, 0, 77, 0
2, 52098, Note_on_c, 0, 58, 0
2, 52109, Note_on_c, 0, 66, 59
2, 52116, Note_on_c, 0, 78, 91
2, 52116, Note_on_c, 0, 70, 70
2, 52132, Note_on_c, 0, 66, 0
2, 52137, Note_on_c, 0, 70, 0
2, 52137, Note_on_c, 0, 78, 0
2, 52154, Note_on_c, 0, 58, 55
2, 52155, Note_on_c, 0, 75, 91
2, 52161, Note_on_c, 0, 66, 39
2, 52169, Note_on_c, 0, 66, 0
2, 52181, Note_on_c, 0, 75, 0
2, 52191, Note_on_c, 0, 58, 0
2, 52197, Note_on_c, 0, 49, 56
2, 52197, Note_on_c, 0, 61, 56
2, 52199, Note_on_c, 0, 78, 92
2, 52204, Note_on_c, 0, 70, 64
2, 52211, Note_on_c, 0, 70, 0
2, 52223, Note_on_c, 0, 78, 0
2, 52239, Note_on_c, 0, 61, 0
2, 52239, Note_on_c, 0, 49, 0
2, 52252, Control_c, 0, 64, 104
2, 52256, Control_c, 0, 64, 0
2, 52260, Note_on_c, 0, 56, 55
2, 52260, Note_on_c, 0, 77, 90
2, 52267, Note_on_c, 0, 71, 56
2, 52288, Control_c, 0, 64, 127
2, 52297, Note_on_c, 0, 71, 0
2, 52315, Note_on_c, 0, 65, 66
2, 52315, Note_on_c, 0, 68, 50
2, 52344, Note_on_c, 0, 77, 0
2, 52345, Note_on_c, 0, 68, 0
2, 52347, Note_on_c, 0, 65, 0
2, 52349, Note_on_c, 0, 56, 0
2, 52358, Note_on_c, 0, 71, 77
2, 52358, Note_on_c, 0, 59, 58
2, 52362, Note_on_c, 0, 65, 16
2, 52385, Note_on_c, 0, 59, 0
2, 52389, Note_on_c, 0, 71, 0
2, 52397, Note_on_c, 0, 73, 84
2, 52401, Note_on_c, 0, 68, 47
2, 52401, Note_on_c, 0, 65, 50
2, 52420, Note_on_c, 0, 65, 0
2, 52420, Note_on_c, 0, 68, 0
2, 52435, Note_on_c, 0, 59, 52
2, 52436, Note_on_c, 0, 73, 0
2, 52437, Note_on_c, 0, 77, 91
2, 52437, Note_on_c, 0, 71, 55
2, 52459, Note_on_c, 0, 59, 0
2, 52468, Note_on_c, 0, 71, 0
2, 52468, Note_on_c, 0, 77, 0
2, 52481, Note_on_c, 0, 75, 91
2, 52482, Note_on_c, 0, 65, 74
2, 52484, Note_on_c, 0, 49, 42
2, 52488, Note_on_c, 0, 61, 38
2, 52489, Control_c, 0, 64, 104
2, 52494, Control_c, 0, 64, 40
2, 52498, Control_c, 0, 64, 0
2, 52509, Note_on_c, 0, 49, 0
2, 52510, Control_c, 0, 64, 56
2, 52511, Note_on_c, 0, 75, 0
2, 52514, Control_c, 0, 64, 127
2, 52516, Note_on_c, 0, 77, 70
2, 52521, Note_on_c, 0, 61, 0
2, 52532, Note_on_c, 0, 75, 82
2, 52532, Note_on_c, 0, 71, 53
2, 52532, Note_on_c, 0, 56, 58
2, 52544, Note_on_c, 0, 77, 0
2, 52548, Note_on_c, 0, 65, 0
2, 52567, Note_on_c, 0, 75, 0
2, 52567, Note_on_c, 0, 71, 0
2, 52575, Note_on_c, 0, 56, 0
2, 52577, Note_on_c, 0, 74, 88
2, 52583, Note_on_c, 0, 68, 65
2, 52585, Note_on_c, 0, 65, 55
2, 52594, Note_on_c, 0, 65, 0
2, 52598, Note_on_c, 0, 65, 0
2, 52606, Note_on_c, 0, 68, 0
2, 52607, Note_on_c, 0, 74, 0
2, 52617, Note_on_c, 0, 73, 78
2, 52617, Note_on_c, 0, 68, 53
2, 52623, Note_on_c, 0, 59, 60
2, 52650, Note_on_c, 0, 68, 0
2, 52650, Note_on_c, 0, 73, 0
2, 52652, Note_on_c, 0, 59, 0
2, 52659, Note_on_c, 0, 72, 91
2, 52661, Note_on_c, 0, 68, 62
2, 52661, Note_on_c, 0, 65, 55
2, 52682, Note_on_c, 0, 65, 0
2, 52682, Note_on_c, 0, 68, 0
2, 52689, Note_on_c, 0, 72, 0
2, 52702, Note_on_c, 0, 59, 49
2, 52705, Note_on_c, 0, 73, 92
2, 52708, Note_on_c, 0, 68, 71
2, 52722, Note_on_c, 0, 68, 0
2, 52729, Note_on_c, 0, 73, 0
2, 52729, Note_on_c, 0, 59, 0
2, 52752, Note_on_c, 0, 71, 88
2, 52756, Note_on_c, 0, 65, 71
2, 52759, Note_on_c, 0, 50, 51
2, 52770, Note_on_c, 0, 65, 0
2, 52791, Note_on_c, 0, 50, 0
2, 52801, Control_c, 0, 64, 104
2, 52805, Control_c, 0, 64, 0
2, 52807, Note_on_c, 0, 66, 79
2, 52811, Note_on_c, 0, 51, 49
2, 52833, Control_c, 0, 64, 88
2, 52836, Control_c, 0, 64, 127
2, 52840, Note_on_c, 0, 51, 0
2, 52842, Note_on_c, 0, 71, 0
2, 52847, Note_on_c, 0, 66, 0
2, 52860, Note_on_c, 0, 58, 56
2, 52865, Note_on_c, 0, 63, 51
2, 52880, Note_on_c, 0, 63, 0
2, 52882, Note_on_c, 0, 58, 0
2, 52899, Note_on_c, 0, 70, 83
2, 52904, Note_on_c, 0, 54, 52
2, 52911, Note_on_c, 0, 66, 39
2, 52923, Note_on_c, 0, 66, 0
2, 52927, Note_on_c, 0, 54, 0
2, 52929, Note_on_c, 0, 70, 0
2, 52941, Note_on_c, 0, 69, 89
2, 52942, Note_on_c, 0, 63, 61
2, 52947, Note_on_c, 0, 58, 50
2, 52955, Note_on_c, 0, 58, 0
2, 52964, Note_on_c, 0, 63, 0
2, 52976, Note_on_c, 0, 69, 0
2, 52983, Note_on_c, 0, 54, 62
2, 52985, Note_on_c, 0, 66, 51
2, 52985, Note_on_c, 0, 70, 82
2, 53001, Note_on_c, 0, 54, 0
2, 53003, Note_on_c, 0, 70, 0
2, 53003, Note_on_c, 0, 66, 0
2, 53019, Note_on_c, 0, 70, 85
2, 53026, Control_c, 0, 64, 104
2, 53030, Control_c, 0, 64, 40
2, 53035, Control_c, 0, 64, 0
2, 53039, Note_on_c, 0, 58, 52
2, 53039, Note_on_c, 0, 46, 50
2, 53041, Note_on_c, 0, 78, 89
2, 53047, Control_c, 0, 64, 24
2, 53051, Control_c, 0, 64, 88
2, 53055, Note_on_c, 0, 70, 0
2, 53055, Control_c, 0, 64, 127
2, 53065, Note_on_c, 0, 58, 0
2, 53065, Note_on_c, 0, 46, 0
2, 53073, Note_on_c, 0, 78, 0
2, 53080, Note_on_c, 0, 51, 39
2, 53084, Note_on_c, 0, 68, 65
2, 53085, Note_on_c, 0, 77, 84
2, 53103, Note_on_c, 0, 68, 0
2, 53104, Note_on_c, 0, 51, 0
2, 53107, Note_on_c, 0, 77, 0
2, 53126, Note_on_c, 0, 63, 59
2, 53128, Note_on_c, 0, 76, 97
2, 53132, Note_on_c, 0, 67, 50
2, 53140, Note_on_c, 0, 67, 0
2, 53150, Note_on_c, 0, 76, 0
2, 53151, Note_on_c, 0, 63, 0
2, 53165, Note_on_c, 0, 75, 90
2, 53167, Note_on_c, 0, 54, 66
2, 53169, Note_on_c, 0, 66, 59
2, 53178, Note_on_c, 0, 66, 0
2, 53188, Note_on_c, 0, 54, 0
2, 53192, Note_on_c, 0, 75, 0
2, 53204, Note_on_c, 0, 63, 55
2, 53207, Note_on_c, 0, 74, 95
2, 53223, Note_on_c, 0, 63, 0
2, 53232, Note_on_c, 0, 74, 0
2, 53246, Note_on_c, 0, 66, 63
2, 53246, Note_on_c, 0, 54, 63
2, 53249, Note_on_c, 0, 75, 93
2, 53269, Note_on_c, 0, 75, 0
2, 53284, Note_on_c, 0, 54, 0
2, 53284, Note_on_c, 0, 66, 0
2, 53291, Note_on_c, 0, 71, 91
2, 53291, Note_on_c, 0, 63, 65
2, 53291, Note_on_c, 0, 58, 51
2, 53291, Note_on_c, 0, 46, 51
2, 53329, Control_c, 0, 64, 88
2, 53333, Control_c, 0, 64, 0
2, 53337, Note_on_c, 0, 46, 0
2, 53337, Note_on_c, 0, 58, 0
2, 53337, Note_on_c, 0, 62, 75
2, 53351, Note_on_c, 0, 53, 51
2, 53355, Note_on_c, 0, 63, 0
2, 53355, Note_on_c, 0, 71, 0
2, 53356, Note_on_c, 0, 70, 69
2, 53357, Control_c, 0, 64, 56
2, 53361, Control_c, 0, 64, 127
2, 53363, Note_on_c, 0, 62, 0
2, 53367, Note_on_c, 0, 71, 73
2, 53368, Note_on_c, 0, 70, 0
2, 53377, Note_on_c, 0, 53, 0
2, 53379, Note_on_c, 0, 71, 0
2, 53379, Note_on_c, 0, 70, 83
2, 53379, Note_on_c, 0, 68, 60
2, 53385, Note_on_c, 0, 65, 56
2, 53405, Note_on_c, 0, 65, 0
2, 53405, Note_on_c, 0, 68, 0
2, 53405, Note_on_c, 0, 70, 0
2, 53421, Note_on_c, 0, 69, 85
2, 53421, Note_on_c, 0, 62, 52
2, 53423, Note_on_c, 0, 56, 62
2, 53450, Note_on_c, 0, 56, 0
2, 53450, Note_on_c, 0, 62, 0
2, 53450, Note_on_c, 0, 69, 0
2, 53463, Note_on_c, 0, 65, 62
2, 53463, Note_on_c, 0, 70, 86
2, 53467, Note_on_c, 0, 68, 74
2, 53483, Note_on_c, 0, 65, 0
2, 53490, Note_on_c, 0, 68, 0
2, 53498, Note_on_c, 0, 70, 0
2, 53498, Note_on_c, 0, 56, 57
2, 53506, Note_on_c, 0, 73, 88
2, 53506, Note_on_c, 0, 62, 51
2, 53533, Note_on_c, 0, 56, 0
2, 53535, Note_on_c, 0, 62, 0
2, 53535, Note_on_c, 0, 73, 0
2, 53549, Note_on_c, 0, 68, 72
2, 53549, Note_on_c, 0, 58, 50
2, 53549, Note_on_c, 0, 46, 50
2, 53550, Note_on_c, 0, 72, 82
2, 53555, Control_c, 0, 64, 56
2, 53558, Control_c, 0, 64, 0
2, 53575, Note_on_c, 0, 68, 0
2, 53575, Control_c, 0, 64, 24
2, 53579, Control_c, 0, 64, 88
2, 53583, Control_c, 0, 64, 127
2, 53587, Note_on_c, 0, 58, 0
2, 53587, Note_on_c, 0, 46, 0
2, 53594, Note_on_c, 0, 72, 0
2, 53596, Note_on_c, 0, 62, 57
2, 53596, Note_on_c, 0, 53, 57
2, 53637, Note_on_c, 0, 71, 77
2, 53640, Note_on_c, 0, 68, 58
2, 53640, Note_on_c, 0, 65, 52
2, 53659, Note_on_c, 0, 65, 0
2, 53659, Note_on_c, 0, 68, 0
2, 53665, Note_on_c, 0, 71, 0
2, 53667, Note_on_c, 0, 53, 0
2, 53667, Note_on_c, 0, 62, 0
2, 53677, Note_on_c, 0, 62, 50
2, 53678, Note_on_c, 0, 70, 81
2, 53678, Note_on_c, 0, 56, 65
2, 53687, Note_on_c, 0, 62, 0
2, 53703, Note_on_c, 0, 70, 0
2, 53709, Note_on_c, 0, 56, 0
2, 53720, Note_on_c, 0, 68, 50
2, 53720, Note_on_c, 0, 69, 88
2, 53720, Note_on_c, 0, 65, 66
2, 53744, Note_on_c, 0, 69, 0
2, 53744, Note_on_c, 0, 68, 0
2, 53748, Note_on_c, 0, 65, 0
2, 53763, Note_on_c, 0, 56, 57
2, 53765, Note_on_c, 0, 70, 81
2, 53771, Note_on_c, 0, 62, 51
2, 53784, Note_on_c, 0, 62, 0
2, 53788, Note_on_c, 0, 56, 0
2, 53796, Note_on_c, 0, 70, 0
2, 53806, Note_on_c, 0, 68, 78
2, 53809, Note_on_c, 0, 58, 50
2, 53809, Note_on_c, 0, 46, 48
2, 53814, Note_on_c, 0, 65, 59
2, 53833, Note_on_c, 0, 68, 0
2, 53854, Note_on_c, 0, 58, 0
2, 53854, Note_on_c, 0, 46, 0
2, 53864, Note_on_c, 0, 66, 87
2, 53865, Control_c, 0, 64, 104
2, 53869, Control_c, 0, 64, 40
2, 53869, Note_on_c, 0, 51, 55
2, 53873, Control_c, 0, 64, 0
2, 53906, Control_c, 0, 64, 88
2, 53907, Note_on_c, 0, 51, 0
2, 53909, Note_on_c, 0, 63, 66
2, 53910, Control_c, 0, 64, 127
2, 53914, Note_on_c, 0, 58, 52
2, 53934, Note_on_c, 0, 65, 0
2, 53953, Note_on_c, 0, 63, 0
2, 53953, Note_on_c, 0, 51, 49
2, 53955, Note_on_c, 0, 61, 69
2, 53970, Note_on_c, 0, 51, 0
2, 53990, Control_c, 0, 64, 104
2, 53993, Note_on_c, 0, 61, 0
2, 53994, Control_c, 0, 64, 24
2, 53999, Control_c, 0, 64, 0
2, 54003, Note_on_c, 0, 60, 73
2, 54005, Note_on_c, 0, 44, 41
2, 54015, Control_c, 0, 64, 24
2, 54019, Control_c, 0, 64, 88
2, 54023, Note_on_c, 0, 66, 0
2, 54023, Control_c, 0, 64, 127
2, 54034, Note_on_c, 0, 58, 0
2, 54034, Note_on_c, 0, 44, 0
2, 54046, Note_on_c, 0, 60, 0
2, 54048, Note_on_c, 0, 65, 88
2, 54049, Note_on_c, 0, 56, 54
2, 54057, Note_on_c, 0, 60, 16
2, 54069, Note_on_c, 0, 60, 0
2, 54079, Note_on_c, 0, 56, 0
2, 54087, Note_on_c, 0, 65, 0
2, 54093, Note_on_c, 0, 51, 72
2, 54094, Note_on_c, 0, 66, 90
2, 54111, Note_on_c, 0, 51, 0
2, 54129, Note_on_c, 0, 66, 0
2, 54143, Control_c, 0, 64, 88
2, 54147, Note_on_c, 0, 70, 84
2, 54148, Control_c, 0, 64, 0
2, 54152, Note_on_c, 0, 59, 62
2, 54152, Note_on_c, 0, 54, 61
2, 54153, Note_on_c, 0, 49, 55
2, 54193, Note_on_c, 0, 54, 0
2, 54193, Note_on_c, 0, 68, 81
2, 54196, Control_c, 0, 64, 24
2, 54200, Control_c, 0, 64, 72
2, 54204, Note_on_c, 0, 53, 60
2, 54204, Control_c, 0, 64, 127
2, 54213, Note_on_c, 0, 70, 0
2, 54230, Note_on_c, 0, 53, 0
2, 54233, Note_on_c, 0, 68, 0
2, 54242, Note_on_c, 0, 54, 60
2, 54243, Note_on_c, 0, 63, 78
2, 54276, Note_on_c, 0, 63, 0
2, 54280, Note_on_c, 0, 54, 0
2, 54292, Note_on_c, 0, 61, 76
2, 54293, Note_on_c, 0, 56, 54
2, 54301, Control_c, 0, 64, 88
2, 54305, Control_c, 0, 64, 56
2, 54309, Control_c, 0, 64, 0
2, 54331, Note_on_c, 0, 61, 0
2, 54334, Note_on_c, 0, 65, 66
2, 54347, Note_on_c, 0, 63, 86
2, 54358, Note_on_c, 0, 65, 0
2, 54363, Note_on_c, 0, 59, 0
2, 54373, Control_c, 0, 64, 72
2, 54377, Control_c, 0, 64, 127
2, 54388, Note_on_c, 0, 56, 0
2, 54394, Note_on_c, 0, 49, 0
2, 54394, Note_on_c, 0, 63, 0
2, 54398, Note_on_c, 0, 61, 77
2, 54416, Note_on_c, 0, 61, 0
2, 54458, Control_c, 0, 64, 40
2, 54462, Control_c, 0, 64, 0
2, 54462, Note_on_c, 0, 70, 91
2, 54469, Note_on_c, 0, 30, 70
2, 54483, Control_c, 0, 64, 40
2, 54487, Control_c, 0, 64, 127
2, 54490, Note_on_c, 0, 30, 0
2, 54523, Note_on_c, 0, 64, 60
2, 54532, Note_on_c, 0, 54, 57
2, 54534, Note_on_c, 0, 61, 51
2, 54541, Note_on_c, 0, 54, 0
2, 54542, Note_on_c, 0, 64, 0
2, 54543, Note_on_c, 0, 61, 0
2, 54570, Note_on_c, 0, 64, 71
2, 54572, Note_on_c, 0, 61, 74
2, 54573, Note_on_c, 0, 54, 68
2, 54584, Note_on_c, 0, 54, 0
2, 54585, Note_on_c, 0, 61, 0
2, 54590, Note_on_c, 0, 64, 0
2, 54621, Note_on_c, 0, 61, 74
2, 54622, Note_on_c, 0, 64, 77
2, 54623, Note_on_c, 0, 54, 63
2, 54662, Note_on_c, 0, 61, 0
2, 54671, Note_on_c, 0, 70, 0
2, 54672, Note_on_c, 0, 54, 0
2, 54672, Note_on_c, 0, 68, 93
2, 54723, Note_on_c, 0, 68, 0
2, 54729, Note_on_c, 0, 70, 99
2, 54744, Note_on_c, 0, 64, 0
2, 54795, Note_on_c, 0, 70, 0
2, 54805, Note_on_c, 0, 73, 91
2, 54811, Note_on_c, 0, 64, 73
2, 54813, Note_on_c, 0, 55, 64
2, 54816, Note_on_c, 0, 47, 52
2, 54816, Control_c, 0, 64, 104
2, 54821, Control_c, 0, 64, 24
2, 54825, Control_c, 0, 64, 0
2, 54843, Note_on_c, 0, 64, 0
2, 54857, Control_c, 0, 64, 104
2, 54861, Control_c, 0, 64, 127
2, 54869, Note_on_c, 0, 73, 0
2, 54876, Note_on_c, 0, 71, 88
2, 54880, Note_on_c, 0, 63, 72
2, 54884, Note_on_c, 0, 55, 0
2, 54885, Note_on_c, 0, 56, 60
2, 54886, Control_c, 0, 64, 40
2, 54890, Control_c, 0, 64, 0
2, 54909, Control_c, 0, 64, 40
2, 54914, Control_c, 0, 64, 127
2, 54929, Note_on_c, 0, 63, 0
2, 54939, Note_on_c, 0, 56, 0
2, 54939, Note_on_c, 0, 71, 0
2, 54981, Note_on_c, 0, 70, 74
2, 54983, Note_on_c, 0, 61, 64
2, 54987, Note_on_c, 0, 58, 51
2, 54992, Note_on_c, 0, 61, 0
2, 54997, Note_on_c, 0, 58, 0
2, 54998, Note_on_c, 0, 70, 0
2, 55010, Note_on_c, 0, 70, 83
2, 55011, Note_on_c, 0, 61, 58
2, 55015, Note_on_c, 0, 67, 59
2, 55019, Control_c, 0, 64, 88
2, 55023, Note_on_c, 0, 58, 47
2, 55023, Control_c, 0, 64, 0
2, 55047, Control_c, 0, 64, 88
2, 55050, Control_c, 0, 64, 127
2, 55052, Note_on_c, 0, 61, 0
2, 55070, Note_on_c, 0, 67, 0
2, 55072, Note_on_c, 0, 58, 0
2, 55093, Note_on_c, 0, 70, 0
2, 55095, Note_on_c, 0, 68, 76
2, 55099, Note_on_c, 0, 63, 60
2, 55103, Control_c, 0, 64, 88
2, 55107, Note_on_c, 0, 59, 51
2, 55108, Control_c, 0, 64, 0
2, 55151, Control_c, 0, 64, 127
2, 55161, Note_on_c, 0, 59, 0
2, 55161, Note_on_c, 0, 47, 0
2, 55163, Note_on_c, 0, 68, 0
2, 55185, Note_on_c, 0, 75, 78
2, 55203, Note_on_c, 0, 63, 0
2, 55217, Note_on_c, 0, 75, 0
2, 55272, Note_on_c, 0, 68, 69
2, 55275, Note_on_c, 0, 63, 52
2, 55279, Note_on_c, 0, 66, 43
2, 55317, Control_c, 0, 64, 72
2, 55321, Control_c, 0, 64, 0
2, 55341, Note_on_c, 0, 62, 59
2, 55349, Control_c, 0, 64, 56
2, 55354, Control_c, 0, 64, 127
2, 55364, Note_on_c, 0, 62, 0
2, 55385, Note_on_c, 0, 61, 58
2, 55413, Note_on_c, 0, 61, 0
2, 55426, Note_on_c, 0, 60, 73
2, 55461, Note_on_c, 0, 60, 0
2, 55465, Note_on_c, 0, 66, 0
2, 55469, Note_on_c, 0, 59, 69
2, 55484, Note_on_c, 0, 68, 0
2, 55506, Note_on_c, 0, 70, 88
2, 55507, Control_c, 0, 64, 56
2, 55510, Note_on_c, 0, 59, 0
2, 55510, Note_on_c, 0, 58, 69
2, 55511, Control_c, 0, 64, 0
2, 55523, Control_c, 0, 64, 24
2, 55527, Note_on_c, 0, 63, 0
2, 55527, Control_c, 0, 64, 88
2, 55531, Control_c, 0, 64, 127
2, 55533, Note_on_c, 0, 58, 0
2, 55551, Note_on_c, 0, 70, 0
2, 55564, Note_on_c, 0, 73, 95
2, 55564, Note_on_c, 0, 56, 60
2, 55575, Control_c, 0, 64, 40
2, 55579, Control_c, 0, 64, 0
2, 55596, Control_c, 0, 64, 56
2, 55600, Control_c, 0, 64, 127
2, 55604, Note_on_c, 0, 73, 0
2, 55615, Note_on_c, 0, 56, 0
2, 55615, Note_on_c, 0, 51, 48
2, 55617, Note_on_c, 0, 71, 87
2, 55650, Note_on_c, 0, 51, 0
2, 55655, Note_on_c, 0, 71, 0
2, 55660, Note_on_c, 0, 47, 47
2, 55668, Note_on_c, 0, 47, 0
2, 55701, Note_on_c, 0, 70, 76
2, 55715, Note_on_c, 0, 70, 0
2, 55728, Note_on_c, 0, 63, 34
2, 55737, Note_on_c, 0, 70, 73
2, 55740, Note_on_c, 0, 66, 52
2, 55757, Control_c, 0, 64, 88
2, 55761, Control_c, 0, 64, 0
2, 55792, Note_on_c, 0, 70, 0
2, 55793, Control_c, 0, 64, 104
2, 55797, Control_c, 0, 64, 127
2, 55805, Note_on_c, 0, 68, 69
2, 55825, Note_on_c, 0, 63, 0
2, 55864, Note_on_c, 0, 68, 0
2, 55869, Note_on_c, 0, 75, 78
2, 55889, Note_on_c, 0, 66, 0
2, 55897, Note_on_c, 0, 75, 0
2, 55939, Note_on_c, 0, 63, 37
2, 55939, Note_on_c, 0, 68, 72
2, 55943, Note_on_c, 0, 66, 51
2, 55979, Control_c, 0, 64, 56
2, 55982, Control_c, 0, 64, 0
2, 55994, Note_on_c, 0, 62, 68
2, 56011, Control_c, 0, 64, 104
2, 56015, Control_c, 0, 64, 127
2, 56025, Note_on_c, 0, 62, 0
2, 56039, Note_on_c, 0, 61, 63
2, 56067, Note_on_c, 0, 61, 0
2, 56077, Note_on_c, 0, 60, 82
2, 56110, Note_on_c, 0, 60, 0
2, 56116, Note_on_c, 0, 59, 78
2, 56131, Note_on_c, 0, 66, 0
2, 56131, Note_on_c, 0, 68, 0
2, 56151, Note_on_c, 0, 59, 0
2, 56152, Note_on_c, 0, 70, 91
2, 56158, Note_on_c, 0, 58, 64
2, 56165, Note_on_c, 0, 63, 0
2, 56174, Note_on_c, 0, 58, 0
2, 56191, Note_on_c, 0, 70, 0
2, 56208, Note_on_c, 0, 56, 42
2, 56211, Note_on_c, 0, 73, 98
2, 56224, Control_c, 0, 64, 56
2, 56229, Control_c, 0, 64, 0
2, 56253, Control_c, 0, 64, 104
2, 56257, Control_c, 0, 64, 127
2, 56257, Note_on_c, 0, 51, 55
2, 56259, Note_on_c, 0, 73, 0
2, 56272, Note_on_c, 0, 56, 0
2, 56272, Note_on_c, 0, 71, 91
2, 56307, Note_on_c, 0, 51, 0
2, 56311, Note_on_c, 0, 71, 0
2, 56317, Note_on_c, 0, 47, 49
2, 56326, Note_on_c, 0, 47, 0
2, 56360, Note_on_c, 0, 70, 83
2, 56377, Note_on_c, 0, 70, 0
2, 56398, Note_on_c, 0, 70, 65
2, 56399, Note_on_c, 0, 66, 50
2, 56400, Note_on_c, 0, 63, 41
2, 56410, Control_c, 0, 64, 88
2, 56414, Control_c, 0, 64, 0
2, 56443, Control_c, 0, 64, 104
2, 56447, Control_c, 0, 64, 127
2, 56465, Note_on_c, 0, 70, 0
2, 56476, Note_on_c, 0, 68, 63
2, 56483, Control_c, 0, 64, 0
2, 56507, Control_c, 0, 64, 88
2, 56511, Note_on_c, 0, 68, 0
2, 56511, Control_c, 0, 64, 127
2, 56535, Note_on_c, 0, 63, 0
2, 56575, Note_on_c, 0, 78, 69
2, 56598, Note_on_c, 0, 78, 0
2, 56600, Note_on_c, 0, 66, 0
2, 56726, Note_on_c, 0, 68, 65
2, 56729, Note_on_c, 0, 66, 50
2, 56731, Note_on_c, 0, 63, 39
2, 56742, Note_on_c, 0, 35, 29
2, 56761, Control_c, 0, 64, 40
2, 56765, Control_c, 0, 64, 0
2, 56801, Control_c, 0, 64, 104
2, 56805, Control_c, 0, 64, 127
2, 56817, Note_on_c, 0, 66, 0
2, 56821, Note_on_c, 0, 35, 0
2, 56821, Note_on_c, 0, 63, 0
2, 56829, Note_on_c, 0, 68, 0
2, 56896, Note_on_c, 0, 70, 73
2, 56901, Note_on_c, 0, 66, 48
2, 56901, Note_on_c, 0, 61, 46
2, 56905, Note_on_c, 0, 49, 38
2, 56909, Note_on_c, 0, 37, 32
2, 56922, Control_c, 0, 64, 72
2, 56927, Control_c, 0, 64, 0
2, 56951, Control_c, 0, 64, 88
2, 56955, Control_c, 0, 64, 127
2, 56960, Note_on_c, 0, 66, 0
2, 56965, Note_on_c, 0, 61, 0
2, 56978, Note_on_c, 0, 70, 0
2, 56999, Note_on_c, 0, 37, 0
2, 57005, Note_on_c, 0, 49, 0
2, 57057, Note_on_c, 0, 71, 79
2, 57059, Note_on_c, 0, 59, 58
2, 57061, Note_on_c, 0, 66, 45
2, 57065, Note_on_c, 0, 51, 43
2, 57069, Note_on_c, 0, 39, 36
2, 57084, Control_c, 0, 64, 88
2, 57088, Control_c, 0, 64, 24
2, 57092, Control_c, 0, 64, 0
2, 57111, Control_c, 0, 64, 56
2, 57115, Control_c, 0, 64, 127
2, 57137, Note_on_c, 0, 66, 0
2, 57142, Note_on_c, 0, 71, 0
2, 57146, Note_on_c, 0, 39, 0
2, 57154, Note_on_c, 0, 51, 0
2, 57154, Note_on_c, 0, 59, 0
2, 57208, Note_on_c, 0, 68, 74
2, 57212, Note_on_c, 0, 59, 56
2, 57212, Note_on_c, 0, 61, 48
2, 57220, Note_on_c, 0, 53, 47
2, 57221, Note_on_c, 0, 41, 50
2, 57237, Control_c, 0, 64, 104
2, 57241, Control_c, 0, 64, 24
2, 57245, Control_c, 0, 64, 0
2, 57269, Control_c, 0, 64, 56
2, 57273, Control_c, 0, 64, 127
2, 57283, Note_on_c, 0, 59, 0
2, 57287, Note_on_c, 0, 41, 0
2, 57296, Note_on_c, 0, 68, 0
2, 57296, Note_on_c, 0, 61, 0
2, 57297, Note_on_c, 0, 53, 0
2, 57360, Note_on_c, 0, 70, 78
2, 57365, Note_on_c, 0, 61, 45
2, 57365, Note_on_c, 0, 58, 34
2, 57369, Note_on_c, 0, 54, 37
2, 57371, Note_on_c, 0, 42, 39
2, 57386, Control_c, 0, 64, 56
2, 57390, Control_c, 0, 64, 0
2, 57410, Control_c, 0, 64, 40
2, 57415, Control_c, 0, 64, 127
2, 57450, Note_on_c, 0, 54, 0
2, 57454, Note_on_c, 0, 58, 0
2, 57455, Note_on_c, 0, 70, 0
2, 57464, Note_on_c, 0, 42, 0
2, 57478, Note_on_c, 0, 61, 0
2, 57500, Note_on_c, 0, 63, 70
2, 57506, Note_on_c, 0, 59, 50
2, 57506, Note_on_c, 0, 47, 59
2, 57506, Note_on_c, 0, 54, 34
2, 57535, Control_c, 0, 64, 56
2, 57539, Control_c, 0, 64, 0
2, 57564, Control_c, 0, 64, 72
2, 57568, Control_c, 0, 64, 127
2, 57579, Note_on_c, 0, 59, 0
2, 57638, Note_on_c, 0, 47, 0
2, 57653, Note_on_c, 0, 54, 0
2, 57656, Note_on_c, 0, 63, 0
2, 57663, Note_on_c, 0, 66, 64
2, 57665, Note_on_c, 0, 49, 43
2, 57668, Note_on_c, 0, 58, 34
2, 57669, Note_on_c, 0, 61, 39
2, 57685, Control_c, 0, 64, 72
2, 57689, Control_c, 0, 64, 0
2, 57717, Control_c, 0, 64, 72
2, 57721, Control_c, 0, 64, 127
2, 57763, Note_on_c, 0, 58, 0
2, 57815, Note_on_c, 0, 66, 0
2, 57836, Note_on_c, 0, 65, 58
2, 57842, Note_on_c, 0, 56, 20
2, 57874, Control_c, 0, 64, 56
2, 57878, Control_c, 0, 64, 0
2, 57902, Control_c, 0, 64, 72
2, 57906, Control_c, 0, 64, 127
2, 57907, Note_on_c, 0, 61, 0
2, 57921, Note_on_c, 0, 56, 0
2, 57933, Note_on_c, 0, 49, 0
2, 57935, Note_on_c, 0, 65, 0
2, 58015, Note_on_c, 0, 68, 65
2, 58016, Note_on_c, 0, 54, 38
2, 58017, Note_on_c, 0, 63, 57
2, 58019, Control_c, 0, 64, 88
2, 58022, Note_on_c, 0, 47, 50
2, 58023, Control_c, 0, 64, 24
2, 58027, Control_c, 0, 64, 0
2, 58039, Control_c, 0, 64, 24
2, 58043, Control_c, 0, 64, 88
2, 58047, Control_c, 0, 64, 127
2, 58056, Note_on_c, 0, 47, 0
2, 58065, Note_on_c, 0, 54, 0
2, 58079, Note_on_c, 0, 63, 0
2, 58085, Note_on_c, 0, 50, 61
2, 58089, Note_on_c, 0, 62, 56
2, 58107, Note_on_c, 0, 50, 0
2, 58117, Note_on_c, 0, 62, 0
2, 58128, Note_on_c, 0, 49, 57
2, 58132, Note_on_c, 0, 61, 54
2, 58159, Note_on_c, 0, 49, 0
2, 58164, Note_on_c, 0, 61, 0
2, 58177, Note_on_c, 0, 60, 64
2, 58177, Note_on_c, 0, 48, 52
2, 58195, Note_on_c, 0, 48, 0
2, 58198, Note_on_c, 0, 68, 0
2, 58204, Note_on_c, 0, 60, 0
2, 58210, Note_on_c, 0, 47, 57
2, 58213, Note_on_c, 0, 59, 68
2, 58224, Note_on_c, 0, 59, 0
2, 58236, Note_on_c, 0, 47, 0
2, 58248, Control_c, 0, 64, 72
2, 58252, Control_c, 0, 64, 0
2, 58253, Note_on_c, 0, 46, 55
2, 58257, Note_on_c, 0, 70, 89
2, 58265, Control_c, 0, 64, 24
2, 58269, Control_c, 0, 64, 72
2, 58273, Control_c, 0, 64, 127
2, 58275, Note_on_c, 0, 70, 0
2, 58287, Note_on_c, 0, 46, 0
2, 58297, Control_c, 0, 64, 88
2, 58302, Control_c, 0, 64, 0
2, 58306, Note_on_c, 0, 73, 91
2, 58309, Note_on_c, 0, 63, 64
2, 58312, Note_on_c, 0, 56, 70
2, 58313, Note_on_c, 0, 44, 68
2, 58313, Note_on_c, 0, 66, 46
2, 58318, Control_c, 0, 64, 24
2, 58322, Control_c, 0, 64, 88
2, 58326, Control_c, 0, 64, 127
2, 58328, Note_on_c, 0, 56, 0
2, 58330, Note_on_c, 0, 44, 0
2, 58333, Note_on_c, 0, 63, 0
2, 58335, Note_on_c, 0, 73, 0
2, 58347, Note_on_c, 0, 66, 0
2, 58356, Note_on_c, 0, 71, 84
2, 58364, Note_on_c, 0, 51, 74
2, 58369, Note_on_c, 0, 39, 42
2, 58373, Note_on_c, 0, 51, 0
2, 58376, Note_on_c, 0, 39, 0
2, 58400, Note_on_c, 0, 71, 0
2, 58403, Note_on_c, 0, 44, 73
2, 58403, Note_on_c, 0, 32, 74
2, 58411, Note_on_c, 0, 32, 0
2, 58417, Note_on_c, 0, 44, 0
2, 58434, Note_on_c, 0, 70, 81
2, 58449, Note_on_c, 0, 70, 0
2, 58463, Note_on_c, 0, 51, 56
2, 58463, Note_on_c, 0, 70, 78
2, 58465, Note_on_c, 0, 66, 59
2, 58475, Control_c, 0, 64, 56
2, 58478, Control_c, 0, 64, 0
2, 58515, Control_c, 0, 64, 56
2, 58519, Note_on_c, 0, 70, 0
2, 58519, Control_c, 0, 64, 127
2, 58529, Note_on_c, 0, 68, 70
2, 58540, Control_c, 0, 64, 104
2, 58544, Control_c, 0, 64, 24
2, 58548, Control_c, 0, 64, 0
2, 58564, Control_c, 0, 64, 72
2, 58568, Control_c, 0, 64, 127
2, 58595, Note_on_c, 0, 75, 75
2, 58605, Note_on_c, 0, 68, 0
2, 58614, Note_on_c, 0, 66, 0
2, 58619, Note_on_c, 0, 75, 0
2, 58672, Note_on_c, 0, 68, 69
2, 58675, Note_on_c, 0, 63, 43
2, 58677, Control_c, 0, 64, 104
2, 58680, Control_c, 0, 64, 40
2, 58682, Note_on_c, 0, 66, 24
2, 58684, Control_c, 0, 64, 0
2, 58705, Control_c, 0, 64, 72
2, 58709, Control_c, 0, 64, 127
2, 58711, Note_on_c, 0, 66, 0
2, 58721, Note_on_c, 0, 63, 0
2, 58732, Note_on_c, 0, 68, 0
2, 58733, Note_on_c, 0, 51, 0
2, 58737, Note_on_c, 0, 62, 60
2, 58738, Note_on_c, 0, 50, 58
2, 58764, Note_on_c, 0, 62, 0
2, 58767, Note_on_c, 0, 50, 0
2, 58780, Note_on_c, 0, 61, 56
2, 58780, Note_on_c, 0, 49, 52
2, 58803, Note_on_c, 0, 61, 0
2, 58808, Note_on_c, 0, 49, 0
2, 58821, Note_on_c, 0, 60, 63
2, 58825, Note_on_c, 0, 48, 60
2, 58845, Note_on_c, 0, 60, 0
2, 58857, Note_on_c, 0, 48, 0
2, 58859, Note_on_c, 0, 59, 74
2, 58866, Note_on_c, 0, 47, 69
2, 58876, Note_on_c, 0, 59, 0
2, 58895, Note_on_c, 0, 47, 0
2, 58903, Note_on_c, 0, 70, 89
2, 58905, Note_on_c, 0, 58, 61
2, 58907, Note_on_c, 0, 45, 51
2, 58912, Note_on_c, 0, 58, 0
2, 58916, Note_on_c, 0, 45, 0
2, 58919, Note_on_c, 0, 70, 0
2, 58951, Control_c, 0, 64, 88
2, 58955, Control_c, 0, 64, 24
2, 58959, Control_c, 0, 64, 0
2, 58959, Note_on_c, 0, 73, 95
2, 58962, Note_on_c, 0, 56, 62
2, 58963, Note_on_c, 0, 63, 76
2, 58964, Note_on_c, 0, 44, 56
2, 58979, Note_on_c, 0, 63, 0
2, 58979, Control_c, 0, 64, 88
2, 58980, Note_on_c, 0, 56, 0
2, 58983, Note_on_c, 0, 44, 0
2, 58983, Control_c, 0, 64, 127
2, 58988, Note_on_c, 0, 73, 0
2, 59009, Note_on_c, 0, 71, 93
2, 59017, Note_on_c, 0, 51, 64
2, 59019, Note_on_c, 0, 39, 55
2, 59025, Note_on_c, 0, 51, 0
2, 59030, Note_on_c, 0, 39, 0
2, 59057, Note_on_c, 0, 44, 60
2, 59058, Note_on_c, 0, 32, 63
2, 59061, Note_on_c, 0, 71, 0
2, 59065, Note_on_c, 0, 32, 0
2, 59067, Note_on_c, 0, 44, 0
2, 59091, Note_on_c, 0, 70, 82
2, 59106, Note_on_c, 0, 70, 0
2, 59129, Note_on_c, 0, 70, 84
2, 59131, Note_on_c, 0, 66, 66
2, 59137, Control_c, 0, 64, 56
2, 59137, Note_on_c, 0, 51, 59
2, 59141, Control_c, 0, 64, 0
2, 59169, Control_c, 0, 64, 88
2, 59173, Control_c, 0, 64, 127
2, 59191, Note_on_c, 0, 51, 0
2, 59193, Note_on_c, 0, 70, 0
2, 59199, Note_on_c, 0, 68, 86
2, 59207, Note_on_c, 0, 66, 0
2, 59220, Note_on_c, 0, 68, 0
2, 59333, Note_on_c, 0, 90, 68
2, 59335, Note_on_c, 0, 78, 60
2, 59352, Note_on_c, 0, 78, 0
2, 59365, Note_on_c, 0, 90, 0
2, 59673, Note_on_c, 0, 68, 64
2, 59681, Note_on_c, 0, 66, 36
2, 59681, Note_on_c, 0, 63, 29
2, 59683, Note_on_c, 0, 47, 30
2, 59687, Note_on_c, 0, 35, 31
2, 59697, Control_c, 0, 64, 88
2, 59701, Control_c, 0, 64, 24
2, 59705, Control_c, 0, 64, 0
2, 59725, Control_c, 0, 64, 40
2, 59729, Control_c, 0, 64, 127
2, 59753, Note_on_c, 0, 63, 0
2, 59753, Note_on_c, 0, 66, 0
2, 59759, Note_on_c, 0, 35, 0
2, 59767, Note_on_c, 0, 47, 0
2, 59769, Note_on_c, 0, 68, 0
2, 59837, Note_on_c, 0, 70, 70
2, 59841, Note_on_c, 0, 61, 45
2, 59842, Note_on_c, 0, 66, 41
2, 59846, Note_on_c, 0, 49, 38
2, 59850, Note_on_c, 0, 37, 33
2, 59858, Control_c, 0, 64, 56
2, 59862, Control_c, 0, 64, 0
2, 59887, Control_c, 0, 64, 88
2, 59891, Control_c, 0, 64, 127
2, 59900, Note_on_c, 0, 61, 0
2, 59905, Note_on_c, 0, 66, 0
2, 59915, Note_on_c, 0, 37, 0
2, 59918, Note_on_c, 0, 70, 0
2, 59926, Note_on_c, 0, 49, 0
2, 59983, Note_on_c, 0, 71, 79
2, 59986, Note_on_c, 0, 59, 49
2, 59991, Note_on_c, 0, 66, 45
2, 59993, Note_on_c, 0, 51, 39
2, 59996, Note_on_c, 0, 39, 33
2, 60011, Control_c, 0, 64, 72
2, 60015, Control_c, 0, 64, 0
2, 60036, Control_c, 0, 64, 40
2, 60040, Control_c, 0, 64, 127
2, 60056, Note_on_c, 0, 71, 0
2, 60061, Note_on_c, 0, 59, 0
2, 60067, Note_on_c, 0, 39, 0
2, 60067, Note_on_c, 0, 66, 0
2, 60078, Note_on_c, 0, 51, 0
2, 60125, Note_on_c, 0, 68, 70
2, 60131, Note_on_c, 0, 59, 47
2, 60133, Note_on_c, 0, 61, 38
2, 60137, Note_on_c, 0, 53, 56
2, 60142, Note_on_c, 0, 41, 38
2, 60156, Control_c, 0, 64, 72
2, 60161, Control_c, 0, 64, 0
2, 60189, Control_c, 0, 64, 56
2, 60193, Control_c, 0, 64, 127
2, 60197, Note_on_c, 0, 59, 0
2, 60203, Note_on_c, 0, 41, 0
2, 60212, Note_on_c, 0, 53, 0
2, 60216, Note_on_c, 0, 61, 0
2, 60217, Note_on_c, 0, 68, 0
2, 60269, Note_on_c, 0, 70, 75
2, 60273, Note_on_c, 0, 58, 36
2, 60276, Note_on_c, 0, 61, 37
2, 60277, Note_on_c, 0, 54, 38
2, 60278, Note_on_c, 0, 42, 38
2, 60290, Control_c, 0, 64, 104
2, 60294, Control_c, 0, 64, 40
2, 60298, Control_c, 0, 64, 0
2, 60322, Control_c, 0, 64, 72
2, 60326, Control_c, 0, 64, 127
2, 60345, Note_on_c, 0, 58, 0
2, 60346, Note_on_c, 0, 70, 0
2, 60350, Note_on_c, 0, 54, 0
2, 60355, Note_on_c, 0, 42, 0
2, 60375, Note_on_c, 0, 61, 0
2, 60402, Note_on_c, 0, 63, 65
2, 60410, Note_on_c, 0, 59, 34
2, 60410, Note_on_c, 0, 54, 28
2, 60412, Note_on_c, 0, 47, 47
2, 60423, Control_c, 0, 64, 72
2, 60427, Control_c, 0, 64, 0
2, 60454, Control_c, 0, 64, 56
2, 60459, Control_c, 0, 64, 127
2, 60474, Note_on_c, 0, 59, 0
2, 60518, Note_on_c, 0, 47, 0
2, 60520, Note_on_c, 0, 54, 0
2, 60534, Note_on_c, 0, 63, 0
2, 60545, Note_on_c, 0, 66, 62
2, 60550, Note_on_c, 0, 58, 35
2, 60551, Note_on_c, 0, 49, 41
2, 60553, Note_on_c, 0, 61, 39
2, 60576, Control_c, 0, 64, 72
2, 60580, Control_c, 0, 64, 0
2, 60609, Control_c, 0, 64, 72
2, 60613, Control_c, 0, 64, 127
2, 60649, Note_on_c, 0, 58, 0
2, 60685, Note_on_c, 0, 66, 0
2, 60715, Note_on_c, 0, 56, 29
2, 60716, Note_on_c, 0, 65, 49
2, 60745, Control_c, 0, 64, 72
2, 60749, Control_c, 0, 64, 0
2, 60778, Control_c, 0, 64, 72
2, 60782, Control_c, 0, 64, 127
2, 60791, Note_on_c, 0, 56, 0
2, 60791, Note_on_c, 0, 61, 0
2, 60802, Note_on_c, 0, 49, 0
2, 60802, Note_on_c, 0, 65, 0
2, 60894, Note_on_c, 0, 70, 69
2, 60903, Control_c, 0, 64, 56
2, 60906, Note_on_c, 0, 54, 28
2, 60907, Control_c, 0, 64, 0
2, 60927, Control_c, 0, 64, 40
2, 60931, Control_c, 0, 64, 127
2, 60952, Note_on_c, 0, 66, 52
2, 60961, Note_on_c, 0, 70, 0
2, 60969, Note_on_c, 0, 54, 0
2, 60978, Note_on_c, 0, 66, 0
2, 60991, Note_on_c, 0, 58, 51
2, 60997, Note_on_c, 0, 71, 71
2, 61028, Control_c, 0, 64, 72
2, 61032, Control_c, 0, 64, 0
2, 61041, Note_on_c, 0, 71, 0
2, 61042, Note_on_c, 0, 49, 50
2, 61047, Note_on_c, 0, 73, 81
2, 61048, Control_c, 0, 64, 56
2, 61052, Control_c, 0, 64, 127
2, 61059, Note_on_c, 0, 49, 0
2, 61060, Note_on_c, 0, 58, 0
2, 61084, Note_on_c, 0, 73, 0
2, 61090, Note_on_c, 0, 75, 83
2, 61113, Note_on_c, 0, 75, 0
2, 61135, Note_on_c, 0, 77, 82
2, 61161, Control_c, 0, 64, 88
2, 61165, Control_c, 0, 64, 0
2, 61166, Note_on_c, 0, 77, 0
2, 61179, Note_on_c, 0, 51, 69
2, 61180, Note_on_c, 0, 78, 84
2, 61188, Control_c, 0, 64, 104
2, 61192, Control_c, 0, 64, 127
2, 61199, Note_on_c, 0, 51, 0
2, 61205, Note_on_c, 0, 78, 0
2, 61225, Note_on_c, 0, 80, 83
2, 61226, Note_on_c, 0, 66, 51
2, 61252, Note_on_c, 0, 66, 0
2, 61258, Note_on_c, 0, 80, 0
2, 61267, Note_on_c, 0, 60, 61
2, 61268, Note_on_c, 0, 56, 55
2, 61269, Note_on_c, 0, 82, 77
2, 61274, Note_on_c, 0, 60, 0
2, 61280, Note_on_c, 0, 56, 0
2, 61285, Note_on_c, 0, 82, 0
2, 61319, Note_on_c, 0, 84, 84
2, 61325, Note_on_c, 0, 44, 36
2, 61349, Note_on_c, 0, 44, 0
2, 61351, Note_on_c, 0, 84, 0
2, 61364, Note_on_c, 0, 85, 89
2, 61402, Note_on_c, 0, 85, 0
2, 61419, Note_on_c, 0, 87, 88
2, 61438, Note_on_c, 0, 87, 0
2, 61491, Control_c, 0, 64, 40
2, 61496, Control_c, 0, 64, 0
2, 61497, Note_on_c, 0, 68, 81
2, 61498, Note_on_c, 0, 37, 41
2, 61513, Note_on_c, 0, 37, 0
2, 61516, Control_c, 0, 64, 72
2, 61520, Control_c, 0, 64, 127
2, 61563, Note_on_c, 0, 66, 54
2, 61566, Note_on_c, 0, 61, 27
2, 61577, Note_on_c, 0, 61, 0
2, 61580, Note_on_c, 0, 66, 0
2, 61613, Note_on_c, 0, 61, 47
2, 61614, Note_on_c, 0, 66, 47
2, 61617, Note_on_c, 0, 56, 30
2, 61623, Note_on_c, 0, 66, 0
2, 61628, Note_on_c, 0, 56, 0
2, 61628, Note_on_c, 0, 61, 0
2, 61661, Note_on_c, 0, 66, 41
2, 61663, Note_on_c, 0, 61, 39
2, 61665, Note_on_c, 0, 56, 32
2, 61737, Note_on_c, 0, 61, 0
2, 61743, Note_on_c, 0, 56, 0
2, 61750, Note_on_c, 0, 66, 0
2, 61807, Note_on_c, 0, 68, 0
2, 61822, Control_c, 0, 64, 72
2, 61826, Control_c, 0, 64, 0
2, 61826, Note_on_c, 0, 73, 74
2, 61827, Note_on_c, 0, 49, 61
2, 61847, Note_on_c, 0, 49, 0
2, 61851, Control_c, 0, 64, 56
2, 61855, Control_c, 0, 64, 127
2, 61874, Note_on_c, 0, 65, 51
2, 61895, Note_on_c, 0, 65, 0
2, 61936, Note_on_c, 0, 49, 57
2, 61947, Note_on_c, 0, 49, 0
2, 61996, Note_on_c, 0, 73, 0
2, 62000, Note_on_c, 0, 75, 70
2, 62003, Note_on_c, 0, 65, 46
2, 62007, Note_on_c, 0, 59, 31
2, 62008, Note_on_c, 0, 56, 28
2, 62044, Control_c, 0, 64, 56
2, 62048, Control_c, 0, 64, 0
2, 62076, Control_c, 0, 64, 104
2, 62080, Control_c, 0, 64, 127
2, 62095, Note_on_c, 0, 59, 0
2, 62095, Note_on_c, 0, 65, 0
2, 62109, Note_on_c, 0, 75, 0
2, 62111, Note_on_c, 0, 56, 0
2, 62119, Note_on_c, 0, 73, 62
2, 62142, Note_on_c, 0, 73, 0
2, 62189, Note_on_c, 0, 70, 57
2, 62190, Note_on_c, 0, 54, 41
2, 62201, Control_c, 0, 64, 104
2, 62205, Control_c, 0, 64, 56
2, 62209, Control_c, 0, 64, 0
2, 62231, Note_on_c, 0, 70, 0
2, 62238, Control_c, 0, 64, 40
2, 62242, Control_c, 0, 64, 127
2, 62244, Note_on_c, 0, 73, 74
2, 62246, Note_on_c, 0, 66, 54
2, 62281, Note_on_c, 0, 54, 0
2, 62282, Note_on_c, 0, 73, 0
2, 62291, Note_on_c, 0, 58, 55
2, 62292, Note_on_c, 0, 75, 72
2, 62299, Note_on_c, 0, 66, 0
2, 62311, Note_on_c, 0, 75, 0
2, 62332, Note_on_c, 0, 77, 86
2, 62339, Control_c, 0, 64, 104
2, 62341, Note_on_c, 0, 53, 59
2, 62343, Control_c, 0, 64, 24
2, 62347, Control_c, 0, 64, 0
2, 62349, Note_on_c, 0, 53, 0
2, 62349, Note_on_c, 0, 58, 0
2, 62355, Control_c, 0, 64, 56
2, 62359, Control_c, 0, 64, 127
2, 62366, Note_on_c, 0, 77, 0
2, 62381, Note_on_c, 0, 78, 86
2, 62411, Note_on_c, 0, 78, 0
2, 62423, Note_on_c, 0, 80, 89
2, 62451, Control_c, 0, 64, 24
2, 62455, Control_c, 0, 64, 0
2, 62467, Note_on_c, 0, 82, 81
2, 62468, Note_on_c, 0, 51, 73
2, 62471, Control_c, 0, 64, 88
2, 62475, Note_on_c, 0, 80, 0
2, 62476, Control_c, 0, 64, 127
2, 62486, Note_on_c, 0, 82, 0
2, 62489, Note_on_c, 0, 51, 0
2, 62514, Note_on_c, 0, 66, 58
2, 62514, Note_on_c, 0, 84, 88
2, 62537, Note_on_c, 0, 66, 0
2, 62541, Note_on_c, 0, 84, 0
2, 62563, Note_on_c, 0, 85, 88
2, 62563, Note_on_c, 0, 60, 58
2, 62563, Note_on_c, 0, 56, 58
2, 62570, Note_on_c, 0, 60, 0
2, 62577, Note_on_c, 0, 56, 0
2, 62593, Note_on_c, 0, 85, 0
2, 62619, Note_on_c, 0, 87, 84
2, 62629, Control_c, 0, 64, 72
2, 62629, Note_on_c, 0, 44, 59
2, 62633, Control_c, 0, 64, 0
2, 62649, Control_c, 0, 64, 40
2, 62653, Control_c, 0, 64, 127
2, 62664, Note_on_c, 0, 44, 0
2, 62669, Note_on_c, 0, 87, 0
2, 62677, Note_on_c, 0, 89, 88
2, 62715, Note_on_c, 0, 89, 0
2, 62737, Note_on_c, 0, 90, 83
2, 62756, Note_on_c, 0, 90, 0
2, 62819, Control_c, 0, 64, 72
2, 62819, Note_on_c, 0, 68, 76
2, 62823, Control_c, 0, 64, 0
2, 62823, Note_on_c, 0, 37, 50
2, 62843, Note_on_c, 0, 37, 0
2, 62843, Control_c, 0, 64, 40
2, 62847, Control_c, 0, 64, 127
2, 62893, Note_on_c, 0, 66, 46
2, 62897, Note_on_c, 0, 61, 24
2, 62911, Note_on_c, 0, 61, 0
2, 62911, Note_on_c, 0, 66, 0
2, 62949, Note_on_c, 0, 61, 48
2, 62950, Note_on_c, 0, 66, 45
2, 62957, Note_on_c, 0, 56, 21
2, 62961, Note_on_c, 0, 66, 0
2, 62965, Note_on_c, 0, 61, 0
2, 62967, Note_on_c, 0, 56, 0
2, 63009, Note_on_c, 0, 66, 50
2, 63009, Note_on_c, 0, 56, 39
2, 63011, Note_on_c, 0, 61, 39
2, 63108, Note_on_c, 0, 56, 0
2, 63111, Note_on_c, 0, 61, 0
2, 63116, Note_on_c, 0, 66, 0
2, 63133, Note_on_c, 0, 68, 0
2, 63181, Control_c, 0, 64, 72
2, 63185, Control_c, 0, 64, 0
2, 63187, Note_on_c, 0, 72, 77
2, 63190, Note_on_c, 0, 49, 57
2, 63197, Control_c, 0, 64, 24
2, 63201, Control_c, 0, 64, 72
2, 63205, Note_on_c, 0, 49, 0
2, 63205, Control_c, 0, 64, 127
2, 63228, Note_on_c, 0, 72, 0
2, 63241, Note_on_c, 0, 73, 76
2, 63252, Note_on_c, 0, 65, 50
2, 63253, Note_on_c, 0, 59, 35
2, 63267, Note_on_c, 0, 65, 0
2, 63277, Note_on_c, 0, 73, 0
2, 63284, Note_on_c, 0, 72, 89
2, 63294, Note_on_c, 0, 59, 0
2, 63309, Note_on_c, 0, 49, 54
2, 63312, Note_on_c, 0, 72, 0
2, 63321, Note_on_c, 0, 73, 86
2, 63331, Note_on_c, 0, 49, 0
2, 63348, Note_on_c, 0, 73, 0
2, 63352, Note_on_c, 0, 77, 82
2, 63365, Note_on_c, 0, 56, 48
2, 63377, Note_on_c, 0, 75, 84
2, 63381, Note_on_c, 0, 77, 0
2, 63381, Note_on_c, 0, 59, 32
2, 63399, Note_on_c, 0, 65, 47
2, 63415, Control_c, 0, 64, 104
2, 63419, Control_c, 0, 64, 56
2, 63423, Control_c, 0, 64, 0
2, 63460, Control_c, 0, 64, 72
2, 63464, Control_c, 0, 64, 127
2, 63487, Note_on_c, 0, 75, 0
2, 63495, Note_on_c, 0, 73, 72
2, 63497, Note_on_c, 0, 65, 0
2, 63499, Note_on_c, 0, 59, 0
2, 63511, Note_on_c, 0, 56, 0
2, 63529, Note_on_c, 0, 73, 0
2, 63561, Note_on_c, 0, 70, 68
2, 63567, Note_on_c, 0, 54, 55
2, 63577, Control_c, 0, 64, 72
2, 63581, Control_c, 0, 64, 0
2, 63596, Control_c, 0, 64, 40
2, 63601, Control_c, 0, 64, 104
2, 63605, Note_on_c, 0, 70, 0
2, 63605, Control_c, 0, 64, 127
2, 63615, Note_on_c, 0, 73, 74
2, 63620, Note_on_c, 0, 66, 51
2, 63629, Note_on_c, 0, 54, 0
2, 63643, Note_on_c, 0, 66, 0
2, 63648, Note_on_c, 0, 73, 0
2, 63659, Note_on_c, 0, 58, 56
2, 63659, Note_on_c, 0, 75, 78
2, 63683, Note_on_c, 0, 75, 0
2, 63699, Note_on_c, 0, 58, 0
2, 63706, Note_on_c, 0, 77, 86
2, 63712, Note_on_c, 0, 61, 66
2, 63712, Note_on_c, 0, 49, 64
2, 63714, Control_c, 0, 64, 72
2, 63718, Control_c, 0, 64, 0
2, 63730, Control_c, 0, 64, 56
2, 63731, Note_on_c, 0, 49, 0
2, 63731, Note_on_c, 0, 61, 0
2, 63734, Control_c, 0, 64, 127
2, 63738, Note_on_c, 0, 77, 0
2, 63752, Note_on_c, 0, 78, 86
2, 63783, Note_on_c, 0, 78, 0
2, 63799, Note_on_c, 0, 80, 84
2, 63838, Control_c, 0, 64, 40
2, 63843, Control_c, 0, 64, 0
2, 63849, Note_on_c, 0, 82, 83
2, 63853, Note_on_c, 0, 54, 50
2, 63855, Control_c, 0, 64, 72
2, 63859, Control_c, 0, 64, 127
2, 63860, Note_on_c, 0, 80, 0
2, 63871, Note_on_c, 0, 82, 0
2, 63900, Note_on_c, 0, 85, 85
2, 63906, Note_on_c, 0, 66, 52
2, 63929, Note_on_c, 0, 85, 0
2, 63933, Note_on_c, 0, 66, 0
2, 63933, Note_on_c, 0, 54, 0
2, 63950, Note_on_c, 0, 58, 47
2, 63955, Note_on_c, 0, 90, 75
2, 63993, Note_on_c, 0, 58, 0
2, 64003, Note_on_c, 0, 90, 0
2, 64018, Note_on_c, 0, 92, 79
2, 64022, Note_on_c, 0, 61, 37
2, 64023, Note_on_c, 0, 49, 39
2, 64049, Note_on_c, 0, 61, 0
2, 64057, Note_on_c, 0, 49, 0
2, 64084, Note_on_c, 0, 92, 0
2, 64092, Note_on_c, 0, 94, 77
2, 64115, Note_on_c, 0, 94, 0
2, 64181, Note_on_c, 0, 99, 68
2, 64290, Note_on_c, 0, 99, 0
2, 64307, Note_on_c, 0, 97, 62
2, 64315, Note_on_c, 0, 25, 37
2, 64351, Control_c, 0, 64, 72
2, 64355, Control_c, 0, 64, 0
2, 64383, Control_c, 0, 64, 56
2, 64387, Control_c, 0, 64, 127
2, 64429, Note_on_c, 0, 25, 0
2, 64429, Note_on_c, 0, 97, 0
2, 64591, Note_on_c, 0, 65, 90
2, 64596, Note_on_c, 0, 59, 66
2, 64598, Note_on_c, 0, 49, 60
2, 64599, Note_on_c, 0, 56, 45
2, 64621, Control_c, 0, 64, 104
2, 64625, Control_c, 0, 64, 0
2, 64657, Control_c, 0, 64, 72
2, 64661, Control_c, 0, 64, 127
2, 64671, Note_on_c, 0, 59, 0
2, 64681, Note_on_c, 0, 65, 0
2, 64711, Note_on_c, 0, 49, 0
2, 64731, Note_on_c, 0, 56, 0
2, 64756, Note_on_c, 0, 66, 97
2, 64759, Note_on_c, 0, 58, 74
2, 64765, Note_on_c, 0, 54, 63
2, 64767, Note_on_c, 0, 51, 59
2, 64782, Control_c, 0, 64, 40
2, 64786, Control_c, 0, 64, 0
2, 64811, Control_c, 0, 64, 127
2, 64829, Note_on_c, 0, 54, 0
2, 64832, Note_on_c, 0, 51, 0
2, 64835, Note_on_c, 0, 58, 0
2, 64836, Note_on_c, 0, 66, 0
2, 64918, Note_on_c, 0, 71, 110
2, 64921, Note_on_c, 0, 59, 84
2, 64921, Note_on_c, 0, 63, 76
2, 64925, Note_on_c, 0, 56, 75
2, 64927, Note_on_c, 0, 44, 66
2, 64944, Control_c, 0, 64, 24
2, 64948, Control_c, 0, 64, 0
2, 64972, Control_c, 0, 64, 127
2, 64992, Note_on_c, 0, 56, 0
2, 64999, Note_on_c, 0, 71, 0
2, 65000, Note_on_c, 0, 44, 0
2, 65008, Note_on_c, 0, 63, 0
2, 65009, Note_on_c, 0, 59, 0
2, 65094, Note_on_c, 0, 68, 99
2, 65097, Note_on_c, 0, 66, 81
2, 65098, Note_on_c, 0, 56, 83
2, 65098, Note_on_c, 0, 61, 78
2, 65101, Note_on_c, 0, 49, 77
2, 65105, Note_on_c, 0, 37, 57
2, 65161, Control_c, 0, 64, 72
2, 65165, Control_c, 0, 64, 0
2, 65194, Control_c, 0, 64, 56
2, 65198, Control_c, 0, 64, 127
2, 65283, Note_on_c, 0, 37, 0
2, 65287, Note_on_c, 0, 49, 0
2, 65336, Note_on_c, 0, 66, 0
2, 65338, Note_on_c, 0, 56, 0
2, 65389, Note_on_c, 0, 61, 0
2, 65412, Note_on_c, 0, 68, 0
2, 65415, Note_on_c, 0, 65, 88
2, 65418, Note_on_c, 0, 61, 79
2, 65419, Note_on_c, 0, 59, 82
2, 65421, Note_on_c, 0, 37, 73
2, 65425, Note_on_c, 0, 25, 65
2, 65440, Control_c, 0, 64, 88
2, 65444, Control_c, 0, 64, 0
2, 65472, Control_c, 0, 64, 104
2, 65476, Control_c, 0, 64, 127
2, 65505, Note_on_c, 0, 25, 0
2, 65512, Note_on_c, 0, 37, 0
2, 65599, Note_on_c, 0, 65, 0
2, 65633, Note_on_c, 0, 59, 0
2, 65639, Note_on_c, 0, 61, 0
2, 65641, Note_on_c, 0, 66, 93
2, 65669, Control_c, 0, 64, 104
2, 65673, Control_c, 0, 64, 0
2, 65689, Note_on_c, 0, 30, 79
2, 65698, Control_c, 0, 64, 56
2, 65702, Control_c, 0, 64, 127
2, 65731, Note_on_c, 0, 42, 78
2, 65732, Note_on_c, 0, 30, 0
2, 65744, Note_on_c, 0, 42, 0
2, 65771, Note_on_c, 0, 49, 83
2, 65782, Note_on_c, 0, 66, 0
2, 65783, Note_on_c, 0, 49, 0
2, 65803, Note_on_c, 0, 54, 79
2, 65830, Note_on_c, 0, 58, 77
2, 65877, Note_on_c, 0, 66, 95
2, 66014, Note_on_c, 0, 54, 0
2, 66016, Note_on_c, 0, 58, 0
2, 66021, Note_on_c, 0, 66, 0
2, 66411, Control_c, 0, 64, 88
2, 66415, Control_c, 0, 64, 72
2, 66419, Control_c, 0, 64, 24
2, 66423, Control_c, 0, 64, 0
2, 66423, End_track
3, 0, Start_track
3, 0, MIDI_port, 0
3, 0, Title_t, "Frederic Chopin"
3, 0, End_track
4, 0, Start_track
4, 0, MIDI_port, 0
4, 0, Title_t, "Copyright 1998 Robert Finley"
4, 0, End_track
0, 0, End_of_file