0, 0, Header, 1, 6, 120
1, 0, Start_track
1, 0, Sequencer_specific, 03, 00, 00, 41
1, 0, Sequencer_specific, 03, 00, 00, 41
1, 0, Time_signature, 3, 2, 24, 8
1, 0, Key_signature, 3, "major"
1, 0, Tempo, 392156
1, 7560, Tempo, 431654
1, 7684, Tempo, 458015
1, 7800, Tempo, 487804
1, 7918, Tempo, 392156
1, 10800, Tempo, 379746
1, 11878, Tempo, 379746
1, 13676, Tempo, 387096
1, 15120, Tempo, 402684
1, 16200, Tempo, 422535
1, 16558, Tempo, 379746
1, 20518, Tempo, 392156
1, 20638, Tempo, 413793
1, 20878, Tempo, 379746
1, 20878, End_track
2, 0, Start_track
2, 0, MIDI_port, 0
2, 0, Title_t, "Piano"
2, 0, Program_c, 0, 0
2, 0, Control_c, 0, 7, 110
2, 0, Control_c, 0, 10, 64
2, 193, Control_c, 0, 121, 0
2, 193, Control_c, 0, 0, 0
2, 193, Program_c, 0, 0
2, 193, Control_c, 0, 91, 20
2, 193, Control_c, 0, 93, 5
2, 193, Control_c, 0, 7, 110
2, 193, Note_on_c, 0, 64, 114
2, 242, Note_on_c, 0, 69, 121
2, 258, Note_on_c, 0, 64, 0
2, 310, Note_on_c, 0, 72, 123
2, 317, Note_on_c, 0, 69, 0
2, 354, Note_on_c, 0, 64, 103
2, 358, Note_on_c, 0, 72, 0
2, 370, Note_on_c, 0, 33, 112
2, 372, Control_c, 0, 64, 127
2, 376, Note_on_c, 0, 76, 121
2, 377, Note_on_c, 0, 64, 0
2, 390, Note_on_c, 0, 33, 0
2, 393, Note_on_c, 0, 76, 0
2, 452, Note_on_c, 0, 76, 122
2, 498, Note_on_c, 0, 72, 116
2, 503, Note_on_c, 0, 52, 107
2, 503, Note_on_c, 0, 60, 103
2, 509, Note_on_c, 0, 76, 0
2, 523, Control_c, 0, 64, 0
2, 528, Note_on_c, 0, 52, 0
2, 530, Control_c, 0, 64, 127
2, 530, Note_on_c, 0, 60, 0
2, 594, Note_on_c, 0, 72, 0
2, 613, Note_on_c, 0, 52, 111
2, 616, Note_on_c, 0, 59, 102
2, 619, Note_on_c, 0, 75, 127
2, 628, Control_c, 0, 64, 0
2, 632, Control_c, 0, 64, 127
2, 638, Note_on_c, 0, 59, 0
2, 639, Note_on_c, 0, 75, 0
2, 642, Note_on_c, 0, 76, 111
2, 646, Note_on_c, 0, 52, 0
2, 665, Note_on_c, 0, 76, 0
2, 671, Note_on_c, 0, 74, 119
2, 690, Note_on_c, 0, 75, 127
2, 696, Note_on_c, 0, 74, 0
2, 726, Note_on_c, 0, 76, 121
2, 728, Note_on_c, 0, 75, 0
2, 731, Control_c, 0, 64, 0
2, 732, Note_on_c, 0, 45, 116
2, 749, Control_c, 0, 64, 127
2, 762, Note_on_c, 0, 76, 0
2, 766, Note_on_c, 0, 45, 0
2, 816, Note_on_c, 0, 76, 114
2, 853, Note_on_c, 0, 69, 115
2, 854, Note_on_c, 0, 60, 103
2, 856, Note_on_c, 0, 52, 98
2, 861, Note_on_c, 0, 76, 0
2, 862, Note_on_c, 0, 60, 0
2, 863, Note_on_c, 0, 52, 0
2, 867, Control_c, 0, 64, 0
2, 963, Note_on_c, 0, 72, 104
2, 964, Note_on_c, 0, 52, 101
2, 966, Note_on_c, 0, 60, 91
2, 968, Note_on_c, 0, 69, 0
2, 978, Note_on_c, 0, 60, 0
2, 989, Note_on_c, 0, 52, 0
2, 1079, Note_on_c, 0, 71, 116
2, 1083, Note_on_c, 0, 45, 105
2, 1087, Note_on_c, 0, 72, 0
2, 1089, Control_c, 0, 64, 127
2, 1114, Note_on_c, 0, 45, 0
2, 1140, Note_on_c, 0, 71, 0
2, 1156, Note_on_c, 0, 71, 104
2, 1195, Note_on_c, 0, 71, 0
2, 1198, Note_on_c, 0, 66, 116
2, 1204, Note_on_c, 0, 52, 97
2, 1207, Note_on_c, 0, 62, 83
2, 1218, Note_on_c, 0, 52, 0
2, 1220, Note_on_c, 0, 62, 0
2, 1224, Control_c, 0, 64, 0
2, 1314, Note_on_c, 0, 68, 108
2, 1317, Note_on_c, 0, 52, 94
2, 1317, Note_on_c, 0, 66, 0
2, 1320, Note_on_c, 0, 62, 84
2, 1333, Note_on_c, 0, 62, 0
2, 1333, Note_on_c, 0, 52, 0
2, 1339, Note_on_c, 0, 68, 0
2, 1344, Note_on_c, 0, 69, 106
2, 1356, Note_on_c, 0, 68, 108
2, 1360, Note_on_c, 0, 69, 0
2, 1372, Note_on_c, 0, 68, 0
2, 1373, Note_on_c, 0, 66, 115
2, 1394, Note_on_c, 0, 68, 115
2, 1403, Note_on_c, 0, 66, 0
2, 1424, Note_on_c, 0, 45, 108
2, 1427, Note_on_c, 0, 69, 125
2, 1427, Note_on_c, 0, 68, 0
2, 1436, Control_c, 0, 64, 127
2, 1446, Note_on_c, 0, 45, 0
2, 1447, Note_on_c, 0, 69, 0
2, 1505, Note_on_c, 0, 64, 116
2, 1534, Note_on_c, 0, 69, 126
2, 1536, Note_on_c, 0, 52, 108
2, 1538, Note_on_c, 0, 60, 103
2, 1543, Note_on_c, 0, 52, 0
2, 1544, Note_on_c, 0, 60, 0
2, 1545, Note_on_c, 0, 64, 0
2, 1560, Note_on_c, 0, 69, 0
2, 1576, Control_c, 0, 64, 0
2, 1610, Note_on_c, 0, 64, 127
2, 1643, Note_on_c, 0, 69, 127
2, 1644, Note_on_c, 0, 52, 118
2, 1645, Note_on_c, 0, 60, 118
2, 1652, Note_on_c, 0, 60, 0
2, 1652, Note_on_c, 0, 64, 0
2, 1653, Note_on_c, 0, 52, 0
2, 1721, Note_on_c, 0, 72, 127
2, 1730, Note_on_c, 0, 69, 0
2, 1762, Control_c, 0, 64, 127
2, 1765, Note_on_c, 0, 76, 127
2, 1767, Note_on_c, 0, 45, 127
2, 1771, Note_on_c, 0, 72, 0
2, 1780, Note_on_c, 0, 45, 0
2, 1798, Note_on_c, 0, 76, 0
2, 1843, Note_on_c, 0, 76, 118
2, 1890, Note_on_c, 0, 72, 116
2, 1890, Note_on_c, 0, 76, 0
2, 1892, Note_on_c, 0, 52, 109
2, 1894, Note_on_c, 0, 60, 108
2, 1899, Note_on_c, 0, 60, 0
2, 1899, Note_on_c, 0, 52, 0
2, 1909, Control_c, 0, 64, 0
2, 1991, Note_on_c, 0, 72, 0
2, 2004, Note_on_c, 0, 52, 126
2, 2004, Note_on_c, 0, 59, 117
2, 2009, Note_on_c, 0, 75, 120
2, 2029, Note_on_c, 0, 75, 0
2, 2030, Note_on_c, 0, 76, 113
2, 2050, Note_on_c, 0, 75, 108
2, 2054, Note_on_c, 0, 76, 0
2, 2061, Note_on_c, 0, 59, 0
2, 2063, Note_on_c, 0, 75, 0
2, 2064, Note_on_c, 0, 74, 120
2, 2065, Note_on_c, 0, 52, 0
2, 2084, Note_on_c, 0, 75, 124
2, 2089, Note_on_c, 0, 74, 0
2, 2123, Note_on_c, 0, 45, 114
2, 2127, Note_on_c, 0, 76, 124
2, 2127, Control_c, 0, 64, 127
2, 2131, Note_on_c, 0, 75, 0
2, 2139, Note_on_c, 0, 45, 0
2, 2140, Note_on_c, 0, 76, 0
2, 2201, Note_on_c, 0, 76, 114
2, 2236, Note_on_c, 0, 52, 103
2, 2236, Note_on_c, 0, 69, 113
2, 2238, Note_on_c, 0, 60, 85
2, 2243, Note_on_c, 0, 52, 0
2, 2246, Note_on_c, 0, 60, 0
2, 2247, Note_on_c, 0, 76, 0
2, 2263, Control_c, 0, 64, 0
2, 2365, Note_on_c, 0, 52, 93
2, 2365, Note_on_c, 0, 72, 100
2, 2367, Note_on_c, 0, 60, 91
2, 2371, Note_on_c, 0, 69, 0
2, 2378, Note_on_c, 0, 60, 0
2, 2382, Note_on_c, 0, 52, 0
2, 2490, Note_on_c, 0, 71, 104
2, 2490, Note_on_c, 0, 72, 0
2, 2493, Note_on_c, 0, 45, 103
2, 2495, Control_c, 0, 64, 127
2, 2510, Note_on_c, 0, 45, 0
2, 2528, Note_on_c, 0, 71, 0
2, 2569, Note_on_c, 0, 71, 109
2, 2609, Note_on_c, 0, 52, 106
2, 2609, Note_on_c, 0, 62, 106
2, 2612, Note_on_c, 0, 66, 121
2, 2612, Note_on_c, 0, 71, 0
2, 2618, Note_on_c, 0, 52, 0
2, 2618, Note_on_c, 0, 62, 0
2, 2676, Note_on_c, 0, 66, 0
2, 2725, Note_on_c, 0, 68, 127
2, 2727, Note_on_c, 0, 52, 118
2, 2731, Note_on_c, 0, 62, 101
2, 2741, Note_on_c, 0, 62, 0
2, 2744, Note_on_c, 0, 52, 0
2, 2745, Control_c, 0, 64, 0
2, 2746, Note_on_c, 0, 68, 0
2, 2747, Note_on_c, 0, 69, 122
2, 2766, Note_on_c, 0, 68, 106
2, 2768, Note_on_c, 0, 69, 0
2, 2776, Note_on_c, 0, 68, 0
2, 2783, Note_on_c, 0, 66, 111
2, 2804, Note_on_c, 0, 68, 120
2, 2811, Note_on_c, 0, 66, 0
2, 2842, Note_on_c, 0, 45, 107
2, 2845, Note_on_c, 0, 69, 127
2, 2845, Note_on_c, 0, 68, 0
2, 2847, Control_c, 0, 64, 127
2, 2858, Note_on_c, 0, 45, 0
2, 2903, Note_on_c, 0, 81, 120
2, 2913, Note_on_c, 0, 69, 0
2, 2933, Note_on_c, 0, 81, 0
2, 2963, Note_on_c, 0, 52, 99
2, 2967, Note_on_c, 0, 60, 92
2, 3016, Control_c, 0, 64, 0
2, 3050, Note_on_c, 0, 64, 108
2, 3052, Note_on_c, 0, 60, 0
2, 3052, Note_on_c, 0, 52, 0
2, 3081, Note_on_c, 0, 69, 119
2, 3099, Note_on_c, 0, 64, 0
2, 3163, Note_on_c, 0, 69, 0
2, 3164, Note_on_c, 0, 72, 102
2, 3218, Note_on_c, 0, 72, 0
2, 3221, Note_on_c, 0, 76, 107
2, 3228, Note_on_c, 0, 33, 98
2, 3232, Control_c, 0, 64, 127
2, 3240, Control_c, 0, 7, 92
2, 3240, Note_on_c, 0, 76, 0
2, 3251, Note_on_c, 0, 33, 0
2, 3311, Note_on_c, 0, 76, 111
2, 3350, Note_on_c, 0, 72, 110
2, 3350, Note_on_c, 0, 60, 110
2, 3350, Note_on_c, 0, 52, 111
2, 3354, Note_on_c, 0, 76, 0
2, 3372, Note_on_c, 0, 72, 0
2, 3379, Note_on_c, 0, 60, 0
2, 3380, Note_on_c, 0, 52, 0
2, 3462, Note_on_c, 0, 75, 127
2, 3463, Note_on_c, 0, 52, 111
2, 3463, Note_on_c, 0, 59, 109
2, 3470, Note_on_c, 0, 59, 0
2, 3470, Note_on_c, 0, 52, 0
2, 3484, Note_on_c, 0, 75, 0
2, 3489, Note_on_c, 0, 76, 108
2, 3489, Control_c, 0, 64, 0
2, 3514, Note_on_c, 0, 76, 0
2, 3521, Note_on_c, 0, 74, 116
2, 3542, Note_on_c, 0, 75, 122
2, 3547, Note_on_c, 0, 74, 0
2, 3588, Note_on_c, 0, 45, 97
2, 3592, Note_on_c, 0, 75, 0
2, 3593, Note_on_c, 0, 76, 111
2, 3603, Control_c, 0, 64, 127
2, 3615, Note_on_c, 0, 45, 0
2, 3616, Note_on_c, 0, 76, 0
2, 3674, Note_on_c, 0, 76, 100
2, 3714, Note_on_c, 0, 69, 96
2, 3714, Note_on_c, 0, 52, 89
2, 3714, Note_on_c, 0, 76, 0
2, 3717, Note_on_c, 0, 60, 89
2, 3724, Note_on_c, 0, 52, 0
2, 3725, Note_on_c, 0, 60, 0
2, 3740, Control_c, 0, 64, 0
2, 3834, Note_on_c, 0, 72, 91
2, 3834, Note_on_c, 0, 69, 0
2, 3839, Note_on_c, 0, 52, 80
2, 3840, Note_on_c, 0, 60, 81
2, 3854, Note_on_c, 0, 60, 0
2, 3863, Note_on_c, 0, 52, 0
2, 3952, Note_on_c, 0, 71, 100
2, 3952, Note_on_c, 0, 72, 0
2, 3960, Note_on_c, 0, 45, 90
2, 3970, Control_c, 0, 64, 127
2, 3986, Note_on_c, 0, 45, 0
2, 4014, Note_on_c, 0, 71, 0
2, 4038, Note_on_c, 0, 71, 102
2, 4065, Note_on_c, 0, 71, 0
2, 4076, Note_on_c, 0, 66, 114
2, 4079, Note_on_c, 0, 52, 98
2, 4082, Note_on_c, 0, 62, 91
2, 4088, Note_on_c, 0, 52, 0
2, 4091, Note_on_c, 0, 62, 0
2, 4147, Note_on_c, 0, 66, 0
2, 4178, Control_c, 0, 64, 0
2, 4191, Note_on_c, 0, 52, 109
2, 4191, Note_on_c, 0, 68, 113
2, 4196, Note_on_c, 0, 62, 82
2, 4210, Note_on_c, 0, 68, 0
2, 4214, Note_on_c, 0, 69, 116
2, 4216, Note_on_c, 0, 62, 0
2, 4216, Note_on_c, 0, 52, 0
2, 4227, Note_on_c, 0, 68, 115
2, 4228, Note_on_c, 0, 69, 0
2, 4243, Note_on_c, 0, 68, 0
2, 4244, Note_on_c, 0, 69, 110
2, 4263, Note_on_c, 0, 69, 0
2, 4265, Note_on_c, 0, 66, 107
2, 4286, Note_on_c, 0, 68, 97
2, 4294, Note_on_c, 0, 66, 0
2, 4314, Note_on_c, 0, 69, 125
2, 4316, Note_on_c, 0, 68, 0
2, 4318, Note_on_c, 0, 45, 104
2, 4322, Control_c, 0, 64, 127
2, 4329, Note_on_c, 0, 45, 0
2, 4330, Note_on_c, 0, 69, 0
2, 4399, Note_on_c, 0, 64, 122
2, 4430, Note_on_c, 0, 69, 127
2, 4434, Note_on_c, 0, 52, 111
2, 4435, Note_on_c, 0, 60, 110
2, 4438, Note_on_c, 0, 64, 0
2, 4442, Note_on_c, 0, 60, 0
2, 4442, Note_on_c, 0, 52, 0
2, 4451, Note_on_c, 0, 69, 0
2, 4459, Control_c, 0, 64, 0
2, 4510, Note_on_c, 0, 64, 127
2, 4545, Note_on_c, 0, 69, 127
2, 4545, Note_on_c, 0, 52, 123
2, 4547, Note_on_c, 0, 60, 121
2, 4554, Note_on_c, 0, 60, 0
2, 4558, Note_on_c, 0, 64, 0
2, 4560, Note_on_c, 0, 52, 0
2, 4627, Note_on_c, 0, 72, 127
2, 4636, Note_on_c, 0, 69, 0
2, 4674, Note_on_c, 0, 76, 127
2, 4674, Note_on_c, 0, 45, 127
2, 4681, Control_c, 0, 64, 127
2, 4681, Note_on_c, 0, 72, 0
2, 4686, Note_on_c, 0, 45, 0
2, 4706, Note_on_c, 0, 76, 0
2, 4753, Note_on_c, 0, 76, 105
2, 4792, Note_on_c, 0, 76, 0
2, 4794, Note_on_c, 0, 52, 107
2, 4796, Note_on_c, 0, 72, 111
2, 4796, Note_on_c, 0, 60, 88
2, 4800, Note_on_c, 0, 52, 0
2, 4804, Note_on_c, 0, 60, 0
2, 4818, Control_c, 0, 64, 0
2, 4898, Note_on_c, 0, 72, 0
2, 4913, Note_on_c, 0, 52, 110
2, 4916, Note_on_c, 0, 59, 96
2, 4918, Note_on_c, 0, 75, 115
2, 4921, Note_on_c, 0, 52, 0
2, 4923, Note_on_c, 0, 59, 0
2, 4935, Note_on_c, 0, 75, 0
2, 4938, Note_on_c, 0, 76, 108
2, 4961, Note_on_c, 0, 76, 0
2, 4969, Note_on_c, 0, 74, 119
2, 4994, Note_on_c, 0, 75, 124
2, 4999, Note_on_c, 0, 74, 0
2, 5031, Note_on_c, 0, 76, 122
2, 5033, Note_on_c, 0, 45, 109
2, 5036, Note_on_c, 0, 75, 0
2, 5038, Control_c, 0, 64, 127
2, 5052, Note_on_c, 0, 45, 0
2, 5056, Note_on_c, 0, 76, 0
2, 5121, Note_on_c, 0, 76, 98
2, 5153, Note_on_c, 0, 76, 0
2, 5156, Note_on_c, 0, 69, 102
2, 5161, Note_on_c, 0, 52, 95
2, 5163, Note_on_c, 0, 60, 92
2, 5171, Note_on_c, 0, 52, 0
2, 5173, Note_on_c, 0, 60, 0
2, 5174, Control_c, 0, 64, 0
2, 5270, Note_on_c, 0, 69, 0
2, 5275, Note_on_c, 0, 72, 86
2, 5275, Note_on_c, 0, 52, 93
2, 5275, Note_on_c, 0, 60, 111
2, 5283, Note_on_c, 0, 60, 0
2, 5286, Note_on_c, 0, 52, 0
2, 5389, Note_on_c, 0, 72, 0
2, 5393, Note_on_c, 0, 71, 97
2, 5399, Note_on_c, 0, 45, 90
2, 5403, Control_c, 0, 64, 127
2, 5415, Note_on_c, 0, 45, 0
2, 5433, Note_on_c, 0, 71, 0
2, 5474, Note_on_c, 0, 71, 98
2, 5507, Note_on_c, 0, 71, 0
2, 5515, Note_on_c, 0, 66, 106
2, 5517, Note_on_c, 0, 52, 95
2, 5520, Note_on_c, 0, 62, 82
2, 5526, Note_on_c, 0, 52, 0
2, 5530, Note_on_c, 0, 62, 0
2, 5545, Control_c, 0, 64, 0
2, 5600, Note_on_c, 0, 66, 0
2, 5626, Note_on_c, 0, 68, 114
2, 5626, Note_on_c, 0, 62, 111
2, 5629, Note_on_c, 0, 52, 99
2, 5634, Note_on_c, 0, 62, 0
2, 5638, Note_on_c, 0, 52, 0
2, 5644, Note_on_c, 0, 68, 0
2, 5651, Note_on_c, 0, 69, 105
2, 5666, Note_on_c, 0, 68, 120
2, 5667, Note_on_c, 0, 69, 0
2, 5685, Note_on_c, 0, 66, 115
2, 5695, Note_on_c, 0, 68, 0
2, 5707, Note_on_c, 0, 66, 0
2, 5710, Note_on_c, 0, 68, 116
2, 5750, Note_on_c, 0, 68, 0
2, 5751, Note_on_c, 0, 60, 89
2, 5753, Note_on_c, 0, 57, 91
2, 5756, Note_on_c, 0, 69, 111
2, 5758, Control_c, 0, 64, 127
2, 5818, Note_on_c, 0, 81, 105
2, 5822, Note_on_c, 0, 69, 0
2, 5835, Note_on_c, 0, 81, 0
2, 5872, Control_c, 0, 64, 0
2, 5887, Note_on_c, 0, 60, 0
2, 5896, Note_on_c, 0, 57, 0
2, 5945, Note_on_c, 0, 67, 118
2, 5990, Note_on_c, 0, 72, 127
2, 6003, Note_on_c, 0, 67, 0
2, 6062, Note_on_c, 0, 76, 127
2, 6066, Note_on_c, 0, 72, 0
2, 6110, Control_c, 0, 7, 118
2, 6113, Note_on_c, 0, 48, 122
2, 6114, Note_on_c, 0, 79, 127
2, 6122, Note_on_c, 0, 76, 0
2, 6124, Control_c, 0, 64, 127
2, 6128, Note_on_c, 0, 48, 0
2, 6157, Note_on_c, 0, 79, 0
2, 6186, Note_on_c, 0, 79, 119
2, 6232, Note_on_c, 0, 55, 107
2, 6235, Note_on_c, 0, 64, 111
2, 6235, Note_on_c, 0, 79, 0
2, 6237, Note_on_c, 0, 76, 119
2, 6240, Note_on_c, 0, 64, 0
2, 6240, Note_on_c, 0, 55, 0
2, 6257, Control_c, 0, 64, 0
2, 6352, Note_on_c, 0, 55, 116
2, 6352, Note_on_c, 0, 78, 127
2, 6354, Note_on_c, 0, 63, 119
2, 6360, Note_on_c, 0, 76, 0
2, 6376, Note_on_c, 0, 79, 116
2, 6378, Note_on_c, 0, 78, 0
2, 6399, Note_on_c, 0, 78, 126
2, 6403, Note_on_c, 0, 63, 0
2, 6405, Note_on_c, 0, 79, 0
2, 6406, Note_on_c, 0, 55, 0
2, 6418, Note_on_c, 0, 78, 0
2, 6423, Note_on_c, 0, 76, 114
2, 6440, Note_on_c, 0, 78, 116
2, 6448, Note_on_c, 0, 76, 0
2, 6478, Note_on_c, 0, 48, 110
2, 6479, Note_on_c, 0, 79, 124
2, 6486, Control_c, 0, 64, 127
2, 6486, Note_on_c, 0, 78, 0
2, 6498, Note_on_c, 0, 48, 0
2, 6508, Note_on_c, 0, 79, 0
2, 6564, Note_on_c, 0, 79, 102
2, 6593, Note_on_c, 0, 64, 100
2, 6593, Note_on_c, 0, 55, 96
2, 6593, Note_on_c, 0, 79, 0
2, 6596, Note_on_c, 0, 76, 119
2, 6612, Note_on_c, 0, 64, 0
2, 6613, Control_c, 0, 64, 0
2, 6614, Note_on_c, 0, 55, 0
2, 6707, Note_on_c, 0, 76, 0
2, 6717, Note_on_c, 0, 63, 127
2, 6718, Note_on_c, 0, 55, 122
2, 6720, Note_on_c, 0, 78, 126
2, 6721, Control_c, 0, 64, 127
2, 6741, Note_on_c, 0, 79, 120
2, 6742, Note_on_c, 0, 78, 0
2, 6748, Note_on_c, 0, 63, 0
2, 6754, Note_on_c, 0, 55, 0
2, 6763, Note_on_c, 0, 78, 116
2, 6766, Note_on_c, 0, 79, 0
2, 6778, Note_on_c, 0, 78, 0
2, 6784, Note_on_c, 0, 76, 112
2, 6802, Note_on_c, 0, 78, 112
2, 6813, Note_on_c, 0, 76, 0
2, 6843, Note_on_c, 0, 79, 123
2, 6847, Note_on_c, 0, 48, 117
2, 6849, Control_c, 0, 64, 0
2, 6850, Note_on_c, 0, 78, 0
2, 6865, Control_c, 0, 64, 127
2, 6868, Note_on_c, 0, 79, 0
2, 6876, Note_on_c, 0, 48, 0
2, 6927, Note_on_c, 0, 79, 111
2, 6968, Note_on_c, 0, 72, 111
2, 6970, Note_on_c, 0, 55, 101
2, 6974, Note_on_c, 0, 64, 89
2, 6978, Control_c, 0, 64, 0
2, 6988, Note_on_c, 0, 55, 0
2, 6988, Note_on_c, 0, 79, 0
2, 6992, Note_on_c, 0, 64, 0
2, 7078, Note_on_c, 0, 55, 108
2, 7080, Note_on_c, 0, 74, 127
2, 7080, Note_on_c, 0, 65, 103
2, 7088, Control_c, 0, 64, 127
2, 7090, Note_on_c, 0, 72, 0
2, 7103, Note_on_c, 0, 65, 0
2, 7108, Note_on_c, 0, 55, 0
2, 7135, Note_on_c, 0, 74, 0
2, 7153, Note_on_c, 0, 72, 94
2, 7176, Note_on_c, 0, 74, 107
2, 7178, Note_on_c, 0, 72, 0
2, 7206, Note_on_c, 0, 48, 97
2, 7206, Note_on_c, 0, 74, 0
2, 7208, Note_on_c, 0, 76, 109
2, 7210, Control_c, 0, 64, 0
2, 7231, Note_on_c, 0, 48, 0
2, 7238, Control_c, 0, 64, 127
2, 7321, Note_on_c, 0, 64, 103
2, 7323, Note_on_c, 0, 55, 107
2, 7328, Control_c, 0, 64, 0
2, 7343, Control_c, 0, 64, 127
2, 7373, Note_on_c, 0, 64, 0
2, 7384, Note_on_c, 0, 55, 0
2, 7444, Note_on_c, 0, 62, 92
2, 7444, Note_on_c, 0, 52, 104
2, 7445, Note_on_c, 0, 56, 105
2, 7449, Note_on_c, 0, 76, 0
2, 7459, Control_c, 0, 64, 0
2, 7471, Control_c, 0, 64, 127
2, 7491, Note_on_c, 0, 62, 0
2, 7501, Note_on_c, 0, 56, 0
2, 7502, Note_on_c, 0, 52, 0
2, 7550, Control_c, 0, 7, 102
2, 7557, Control_c, 0, 64, 0
2, 7561, Note_on_c, 0, 64, 100
2, 7586, Note_on_c, 0, 64, 0
2, 7588, Note_on_c, 0, 76, 103
2, 7590, Note_on_c, 0, 33, 79
2, 7601, Control_c, 0, 64, 127
2, 7604, Note_on_c, 0, 76, 0
2, 7607, Note_on_c, 0, 33, 0
2, 7664, Note_on_c, 0, 76, 97
2, 7696, Note_on_c, 0, 60, 89
2, 7699, Note_on_c, 0, 72, 98
2, 7699, Note_on_c, 0, 52, 87
2, 7702, Note_on_c, 0, 76, 0
2, 7706, Note_on_c, 0, 60, 0
2, 7709, Control_c, 0, 64, 0
2, 7709, Note_on_c, 0, 52, 0
2, 7714, Control_c, 0, 64, 127
2, 7726, Note_on_c, 0, 72, 0
2, 7810, Note_on_c, 0, 59, 87
2, 7810, Note_on_c, 0, 75, 108
2, 7811, Note_on_c, 0, 52, 93
2, 7814, Control_c, 0, 64, 0
2, 7818, Note_on_c, 0, 59, 0
2, 7820, Note_on_c, 0, 52, 0
2, 7824, Note_on_c, 0, 75, 0
2, 7831, Note_on_c, 0, 76, 103
2, 7850, Note_on_c, 0, 75, 113
2, 7851, Note_on_c, 0, 76, 0
2, 7861, Note_on_c, 0, 75, 0
2, 7866, Note_on_c, 0, 74, 109
2, 7885, Note_on_c, 0, 75, 114
2, 7887, Note_on_c, 0, 74, 0
2, 7919, Note_on_c, 0, 75, 0
2, 7920, Note_on_c, 0, 76, 104
2, 7926, Note_on_c, 0, 45, 75
2, 7929, Control_c, 0, 64, 127
2, 7944, Note_on_c, 0, 76, 0
2, 7960, Note_on_c, 0, 45, 0
2, 8004, Note_on_c, 0, 76, 108
2, 8041, Note_on_c, 0, 69, 108
2, 8042, Note_on_c, 0, 76, 0
2, 8046, Note_on_c, 0, 60, 96
2, 8048, Note_on_c, 0, 52, 78
2, 8055, Note_on_c, 0, 52, 0
2, 8055, Note_on_c, 0, 60, 0
2, 8061, Control_c, 0, 64, 0
2, 8155, Note_on_c, 0, 72, 98
2, 8155, Note_on_c, 0, 69, 0
2, 8159, Note_on_c, 0, 52, 84
2, 8163, Note_on_c, 0, 60, 66
2, 8171, Note_on_c, 0, 60, 0
2, 8174, Note_on_c, 0, 52, 0
2, 8271, Note_on_c, 0, 71, 104
2, 8271, Note_on_c, 0, 72, 0
2, 8277, Control_c, 0, 64, 127
2, 8280, Note_on_c, 0, 45, 88
2, 8307, Note_on_c, 0, 45, 0
2, 8325, Note_on_c, 0, 71, 0
2, 8349, Note_on_c, 0, 71, 107
2, 8374, Note_on_c, 0, 71, 0
2, 8382, Note_on_c, 0, 52, 96
2, 8385, Note_on_c, 0, 62, 101
2, 8388, Note_on_c, 0, 66, 116
2, 8393, Note_on_c, 0, 52, 0
2, 8395, Note_on_c, 0, 62, 0
2, 8424, Control_c, 0, 64, 0
2, 8486, Note_on_c, 0, 66, 0
2, 8502, Note_on_c, 0, 52, 108
2, 8502, Note_on_c, 0, 62, 106
2, 8504, Note_on_c, 0, 68, 106
2, 8514, Note_on_c, 0, 62, 0
2, 8516, Note_on_c, 0, 52, 0
2, 8525, Note_on_c, 0, 68, 0
2, 8527, Note_on_c, 0, 69, 106
2, 8542, Note_on_c, 0, 68, 117
2, 8542, Note_on_c, 0, 69, 0
2, 8559, Note_on_c, 0, 68, 0
2, 8565, Note_on_c, 0, 66, 117
2, 8585, Note_on_c, 0, 68, 111
2, 8596, Note_on_c, 0, 66, 0
2, 8614, Note_on_c, 0, 68, 0
2, 8615, Note_on_c, 0, 69, 127
2, 8615, Note_on_c, 0, 45, 117
2, 8622, Control_c, 0, 64, 127
2, 8629, Note_on_c, 0, 45, 0
2, 8633, Note_on_c, 0, 69, 0
2, 8696, Note_on_c, 0, 64, 127
2, 8732, Note_on_c, 0, 69, 127
2, 8734, Note_on_c, 0, 60, 123
2, 8734, Note_on_c, 0, 52, 124
2, 8741, Note_on_c, 0, 60, 0
2, 8743, Note_on_c, 0, 52, 0
2, 8744, Note_on_c, 0, 64, 0
2, 8764, Control_c, 0, 64, 0
2, 8814, Note_on_c, 0, 64, 127
2, 8821, Note_on_c, 0, 69, 0
2, 8845, Note_on_c, 0, 52, 127
2, 8847, Note_on_c, 0, 60, 120
2, 8849, Note_on_c, 0, 69, 127
2, 8854, Note_on_c, 0, 60, 0
2, 8857, Note_on_c, 0, 52, 0
2, 8862, Note_on_c, 0, 64, 0
2, 8919, Note_on_c, 0, 72, 127
2, 8930, Note_on_c, 0, 69, 0
2, 8972, Note_on_c, 0, 76, 127
2, 8975, Note_on_c, 0, 45, 127
2, 8975, Control_c, 0, 64, 127
2, 8981, Note_on_c, 0, 72, 0
2, 8991, Note_on_c, 0, 45, 0
2, 9000, Control_c, 0, 7, 119
2, 9014, Note_on_c, 0, 76, 0
2, 9048, Note_on_c, 0, 76, 120
2, 9085, Note_on_c, 0, 52, 114
2, 9087, Note_on_c, 0, 60, 99
2, 9089, Note_on_c, 0, 72, 127
2, 9090, Note_on_c, 0, 76, 0
2, 9092, Note_on_c, 0, 52, 0
2, 9095, Note_on_c, 0, 60, 0
2, 9176, Note_on_c, 0, 72, 0
2, 9202, Note_on_c, 0, 52, 118
2, 9202, Note_on_c, 0, 59, 112
2, 9206, Note_on_c, 0, 75, 127
2, 9216, Control_c, 0, 64, 0
2, 9218, Note_on_c, 0, 59, 0
2, 9219, Note_on_c, 0, 52, 0
2, 9230, Note_on_c, 0, 75, 0
2, 9233, Note_on_c, 0, 76, 87
2, 9251, Note_on_c, 0, 75, 78
2, 9256, Note_on_c, 0, 76, 0
2, 9263, Note_on_c, 0, 74, 122
2, 9263, Note_on_c, 0, 75, 0
2, 9283, Note_on_c, 0, 75, 119
2, 9291, Note_on_c, 0, 74, 0
2, 9317, Note_on_c, 0, 76, 121
2, 9318, Note_on_c, 0, 45, 121
2, 9318, Note_on_c, 0, 75, 0
2, 9325, Control_c, 0, 64, 127
2, 9337, Note_on_c, 0, 45, 0
2, 9350, Note_on_c, 0, 76, 0
2, 9408, Note_on_c, 0, 76, 116
2, 9445, Note_on_c, 0, 52, 103
2, 9447, Note_on_c, 0, 69, 114
2, 9448, Note_on_c, 0, 60, 95
2, 9452, Note_on_c, 0, 76, 0
2, 9458, Note_on_c, 0, 60, 0
2, 9462, Note_on_c, 0, 52, 0
2, 9468, Control_c, 0, 64, 0
2, 9569, Note_on_c, 0, 69, 0
2, 9570, Note_on_c, 0, 52, 99
2, 9573, Note_on_c, 0, 60, 97
2, 9574, Note_on_c, 0, 72, 94
2, 9581, Note_on_c, 0, 60, 0
2, 9581, Note_on_c, 0, 52, 0
2, 9692, Note_on_c, 0, 72, 0
2, 9696, Note_on_c, 0, 71, 95
2, 9700, Note_on_c, 0, 45, 96
2, 9707, Control_c, 0, 64, 127
2, 9728, Note_on_c, 0, 45, 0
2, 9732, Note_on_c, 0, 71, 0
2, 9782, Note_on_c, 0, 71, 88
2, 9823, Note_on_c, 0, 71, 0
2, 9828, Note_on_c, 0, 52, 83
2, 9830, Note_on_c, 0, 66, 101
2, 9830, Note_on_c, 0, 62, 83
2, 9835, Note_on_c, 0, 52, 0
2, 9838, Note_on_c, 0, 62, 0
2, 9851, Control_c, 0, 64, 0
2, 9924, Note_on_c, 0, 66, 0
2, 9937, Note_on_c, 0, 68, 104
2, 9944, Note_on_c, 0, 62, 91
2, 9945, Note_on_c, 0, 52, 90
2, 9955, Note_on_c, 0, 68, 0
2, 9956, Note_on_c, 0, 62, 0
2, 9958, Note_on_c, 0, 52, 0
2, 9960, Note_on_c, 0, 69, 109
2, 9979, Note_on_c, 0, 69, 0
2, 9982, Note_on_c, 0, 68, 104
2, 9989, Note_on_c, 0, 68, 0
2, 9995, Note_on_c, 0, 66, 103
2, 10019, Note_on_c, 0, 68, 102
2, 10020, Note_on_c, 0, 66, 0
2, 10063, Control_c, 0, 64, 127
2, 10064, Note_on_c, 0, 45, 102
2, 10067, Note_on_c, 0, 68, 0
2, 10072, Note_on_c, 0, 45, 0
2, 10074, Note_on_c, 0, 69, 88
2, 10124, Note_on_c, 0, 69, 0
2, 10125, Note_on_c, 0, 81, 105
2, 10147, Note_on_c, 0, 81, 0
2, 10193, Note_on_c, 0, 52, 93
2, 10196, Note_on_c, 0, 60, 87
2, 10284, Note_on_c, 0, 60, 0
2, 10286, Note_on_c, 0, 52, 0
2, 10287, Note_on_c, 0, 64, 114
2, 10296, Note_on_c, 0, 64, 0
2, 10320, Note_on_c, 0, 64, 127
2, 10334, Control_c, 0, 64, 0
2, 10370, Note_on_c, 0, 64, 0
2, 10405, Note_on_c, 0, 64, 127
2, 10450, Note_on_c, 0, 73, 126
2, 10450, Note_on_c, 0, 61, 124
2, 10453, Note_on_c, 0, 52, 111
2, 10454, Note_on_c, 0, 45, 107
2, 10460, Control_c, 0, 64, 127
2, 10468, Note_on_c, 0, 45, 0
2, 10468, Note_on_c, 0, 52, 0
2, 10485, Note_on_c, 0, 61, 0
2, 10489, Note_on_c, 0, 73, 0
2, 10525, Note_on_c, 0, 73, 126
2, 10527, Note_on_c, 0, 61, 115
2, 10528, Note_on_c, 0, 64, 0
2, 10565, Note_on_c, 0, 45, 105
2, 10566, Note_on_c, 0, 64, 125
2, 10567, Note_on_c, 0, 52, 100
2, 10572, Note_on_c, 0, 73, 0
2, 10583, Control_c, 0, 64, 0
2, 10594, Note_on_c, 0, 61, 0
2, 10600, Control_c, 0, 64, 127
2, 10636, Note_on_c, 0, 45, 0
2, 10641, Note_on_c, 0, 52, 0
2, 10682, Note_on_c, 0, 61, 111
2, 10682, Note_on_c, 0, 69, 120
2, 10683, Note_on_c, 0, 52, 100
2, 10684, Note_on_c, 0, 45, 107
2, 10689, Note_on_c, 0, 64, 0
2, 10692, Note_on_c, 0, 45, 0
2, 10697, Note_on_c, 0, 52, 0
2, 10707, Note_on_c, 0, 61, 0
2, 10732, Note_on_c, 0, 69, 0
2, 10806, Note_on_c, 0, 73, 127
2, 10806, Note_on_c, 0, 61, 127
2, 10806, Note_on_c, 0, 45, 116
2, 10806, Note_on_c, 0, 52, 109
2, 10806, Note_on_c, 0, 64, 127
2, 10818, Control_c, 0, 64, 0
2, 10837, Control_c, 0, 64, 127
2, 10853, Note_on_c, 0, 45, 0
2, 10859, Note_on_c, 0, 52, 0
2, 10863, Note_on_c, 0, 73, 0
2, 10869, Note_on_c, 0, 61, 0
2, 10882, Note_on_c, 0, 64, 0
2, 10889, Note_on_c, 0, 73, 124
2, 10889, Note_on_c, 0, 61, 107
2, 10904, Note_on_c, 0, 61, 0
2, 10924, Note_on_c, 0, 64, 127
2, 10924, Note_on_c, 0, 61, 105
2, 10925, Note_on_c, 0, 45, 111
2, 10927, Note_on_c, 0, 52, 106
2, 10940, Note_on_c, 0, 73, 0
2, 10942, Control_c, 0, 64, 0
2, 10953, Control_c, 0, 64, 127
2, 10961, Note_on_c, 0, 45, 0
2, 10970, Note_on_c, 0, 61, 0
2, 10975, Note_on_c, 0, 52, 0
2, 11040, Note_on_c, 0, 61, 115
2, 11040, Note_on_c, 0, 69, 113
2, 11040, Note_on_c, 0, 52, 110
2, 11044, Note_on_c, 0, 45, 104
2, 11046, Control_c, 0, 64, 0
2, 11046, Note_on_c, 0, 64, 0
2, 11060, Control_c, 0, 64, 127
2, 11062, Note_on_c, 0, 61, 0
2, 11073, Note_on_c, 0, 45, 0
2, 11074, Note_on_c, 0, 52, 0
2, 11075, Note_on_c, 0, 69, 0
2, 11161, Note_on_c, 0, 73, 127
2, 11162, Note_on_c, 0, 76, 127
2, 11169, Control_c, 0, 64, 0
2, 11171, Note_on_c, 0, 64, 127
2, 11175, Note_on_c, 0, 57, 127
2, 11190, Control_c, 0, 64, 127
2, 11239, Note_on_c, 0, 72, 127
2, 11240, Note_on_c, 0, 75, 127
2, 11240, Note_on_c, 0, 64, 0
2, 11241, Note_on_c, 0, 63, 127
2, 11241, Note_on_c, 0, 76, 0
2, 11242, Note_on_c, 0, 73, 0
2, 11243, Note_on_c, 0, 60, 127
2, 11249, Note_on_c, 0, 75, 0
2, 11249, Note_on_c, 0, 63, 0
2, 11253, Note_on_c, 0, 72, 0
2, 11267, Note_on_c, 0, 60, 0
2, 11280, Note_on_c, 0, 74, 127
2, 11284, Note_on_c, 0, 62, 127
2, 11284, Note_on_c, 0, 78, 127
2, 11285, Note_on_c, 0, 66, 127
2, 11296, Control_c, 0, 64, 0
2, 11402, Control_c, 0, 64, 127
2, 11410, Note_on_c, 0, 66, 0
2, 11430, Note_on_c, 0, 78, 0
2, 11434, Note_on_c, 0, 74, 0
2, 11448, Note_on_c, 0, 62, 0
2, 11456, Note_on_c, 0, 76, 126
2, 11457, Note_on_c, 0, 61, 126
2, 11457, Note_on_c, 0, 73, 126
2, 11461, Note_on_c, 0, 64, 126
2, 11466, Note_on_c, 0, 76, 0
2, 11468, Note_on_c, 0, 61, 0
2, 11469, Note_on_c, 0, 57, 0
2, 11469, Note_on_c, 0, 73, 0
2, 11469, Note_on_c, 0, 64, 0
2, 11490, Control_c, 0, 7, 110
2, 11505, Note_on_c, 0, 72, 110
2, 11506, Note_on_c, 0, 75, 110
2, 11526, Note_on_c, 0, 78, 110
2, 11530, Note_on_c, 0, 57, 110
2, 11531, Control_c, 0, 64, 0
2, 11534, Note_on_c, 0, 72, 0
2, 11535, Note_on_c, 0, 75, 0
2, 11544, Note_on_c, 0, 76, 111
2, 11544, Note_on_c, 0, 64, 110
2, 11544, Note_on_c, 0, 61, 110
2, 11545, Note_on_c, 0, 73, 111
2, 11555, Note_on_c, 0, 78, 0
2, 11603, Note_on_c, 0, 61, 0
2, 11603, Note_on_c, 0, 64, 0
2, 11603, Note_on_c, 0, 76, 0
2, 11604, Note_on_c, 0, 73, 0
2, 11620, Note_on_c, 0, 75, 111
2, 11620, Note_on_c, 0, 72, 111
2, 11620, Note_on_c, 0, 63, 111
2, 11620, Note_on_c, 0, 60, 111
2, 11629, Note_on_c, 0, 63, 0
2, 11641, Note_on_c, 0, 72, 0
2, 11641, Note_on_c, 0, 60, 0
2, 11649, Note_on_c, 0, 75, 0
2, 11650, Note_on_c, 0, 78, 111
2, 11650, Note_on_c, 0, 74, 111
2, 11650, Note_on_c, 0, 66, 111
2, 11650, Note_on_c, 0, 62, 111
2, 11714, Control_c, 0, 64, 127
2, 11756, Note_on_c, 0, 66, 0
2, 11787, Note_on_c, 0, 78, 0
2, 11792, Note_on_c, 0, 62, 0
2, 11796, Note_on_c, 0, 74, 0
2, 11827, Note_on_c, 0, 73, 110
2, 11831, Note_on_c, 0, 61, 110
2, 11831, Note_on_c, 0, 76, 110
2, 11833, Note_on_c, 0, 64, 110
2, 11833, Note_on_c, 0, 57, 0
2, 11836, Note_on_c, 0, 73, 0
2, 11838, Note_on_c, 0, 76, 0
2, 11839, Note_on_c, 0, 61, 0
2, 11839, Note_on_c, 0, 64, 0
2, 11900, Note_on_c, 0, 52, 100
2, 11900, Note_on_c, 0, 73, 100
2, 11900, Note_on_c, 0, 64, 100
2, 11900, Note_on_c, 0, 61, 100
2, 11904, Note_on_c, 0, 45, 100
2, 11913, Control_c, 0, 64, 0
2, 11928, Control_c, 0, 64, 127
2, 11939, Note_on_c, 0, 73, 0
2, 11939, Note_on_c, 0, 52, 0
2, 11941, Note_on_c, 0, 45, 0
2, 11951, Note_on_c, 0, 61, 0
2, 11956, Note_on_c, 0, 64, 0
2, 11972, Note_on_c, 0, 73, 102
2, 12004, Note_on_c, 0, 45, 102
2, 12008, Note_on_c, 0, 52, 103
2, 12012, Note_on_c, 0, 61, 103
2, 12012, Note_on_c, 0, 64, 103
2, 12012, Note_on_c, 0, 45, 0
2, 12028, Note_on_c, 0, 73, 0
2, 12053, Note_on_c, 0, 61, 0
2, 12067, Note_on_c, 0, 52, 0
2, 12071, Note_on_c, 0, 64, 0
2, 12101, Control_c, 0, 64, 0
2, 12132, Note_on_c, 0, 69, 106
2, 12133, Note_on_c, 0, 61, 90
2, 12136, Note_on_c, 0, 45, 99
2, 12136, Note_on_c, 0, 52, 94
2, 12146, Note_on_c, 0, 45, 0
2, 12192, Note_on_c, 0, 61, 0
2, 12195, Note_on_c, 0, 69, 0
2, 12195, Note_on_c, 0, 52, 0
2, 12253, Note_on_c, 0, 45, 93
2, 12255, Note_on_c, 0, 61, 93
2, 12255, Note_on_c, 0, 52, 93
2, 12255, Note_on_c, 0, 73, 93
2, 12263, Note_on_c, 0, 64, 93
2, 12264, Control_c, 0, 64, 127
2, 12276, Note_on_c, 0, 52, 0
2, 12276, Note_on_c, 0, 45, 0
2, 12278, Note_on_c, 0, 61, 0
2, 12283, Note_on_c, 0, 73, 0
2, 12287, Note_on_c, 0, 64, 0
2, 12326, Note_on_c, 0, 73, 104
2, 12355, Note_on_c, 0, 73, 0
2, 12370, Note_on_c, 0, 64, 107
2, 12371, Note_on_c, 0, 45, 107
2, 12374, Note_on_c, 0, 61, 108
2, 12378, Note_on_c, 0, 52, 108
2, 12385, Control_c, 0, 64, 0
2, 12396, Control_c, 0, 64, 127
2, 12398, Note_on_c, 0, 45, 0
2, 12429, Note_on_c, 0, 64, 0
2, 12433, Note_on_c, 0, 61, 0
2, 12437, Note_on_c, 0, 52, 0
2, 12484, Note_on_c, 0, 69, 100
2, 12485, Note_on_c, 0, 61, 100
2, 12491, Note_on_c, 0, 52, 102
2, 12491, Note_on_c, 0, 45, 102
2, 12494, Control_c, 0, 64, 0
2, 12505, Note_on_c, 0, 45, 0
2, 12505, Note_on_c, 0, 52, 0
2, 12505, Note_on_c, 0, 61, 0
2, 12506, Note_on_c, 0, 69, 0
2, 12507, Control_c, 0, 64, 127
2, 12600, Note_on_c, 0, 73, 127
2, 12600, Note_on_c, 0, 56, 127
2, 12600, Control_c, 0, 7, 117
2, 12602, Note_on_c, 0, 44, 127
2, 12604, Note_on_c, 0, 64, 126
2, 12608, Control_c, 0, 64, 0
2, 12624, Control_c, 0, 64, 127
2, 12650, Note_on_c, 0, 56, 0
2, 12656, Note_on_c, 0, 73, 0
2, 12663, Note_on_c, 0, 64, 0
2, 12669, Note_on_c, 0, 63, 119
2, 12672, Note_on_c, 0, 72, 119
2, 12685, Note_on_c, 0, 63, 0
2, 12689, Note_on_c, 0, 72, 0
2, 12713, Note_on_c, 0, 72, 125
2, 12713, Note_on_c, 0, 63, 125
2, 12724, Note_on_c, 0, 56, 126
2, 12728, Note_on_c, 0, 63, 0
2, 12740, Note_on_c, 0, 66, 126
2, 12742, Note_on_c, 0, 72, 0
2, 12743, Note_on_c, 0, 75, 126
2, 12756, Control_c, 0, 64, 0
2, 12774, Note_on_c, 0, 44, 0
2, 12781, Control_c, 0, 64, 127
2, 12849, Note_on_c, 0, 49, 119
2, 12855, Control_c, 0, 64, 0
2, 12871, Note_on_c, 0, 75, 0
2, 12875, Control_c, 0, 64, 127
2, 12893, Note_on_c, 0, 49, 0
2, 12894, Note_on_c, 0, 56, 0
2, 12900, Note_on_c, 0, 73, 117
2, 12900, Note_on_c, 0, 66, 0
2, 12907, Note_on_c, 0, 64, 116
2, 12908, Note_on_c, 0, 73, 0
2, 12917, Note_on_c, 0, 64, 0
2, 12959, Control_c, 0, 64, 0
2, 12970, Control_c, 0, 7, 95
2, 12974, Note_on_c, 0, 73, 102
2, 12975, Note_on_c, 0, 44, 102
2, 12975, Note_on_c, 0, 64, 102
2, 12975, Note_on_c, 0, 56, 101
2, 12984, Note_on_c, 0, 64, 0
2, 12994, Control_c, 0, 64, 127
2, 13009, Note_on_c, 0, 56, 0
2, 13028, Note_on_c, 0, 73, 0
2, 13049, Note_on_c, 0, 72, 99
2, 13051, Note_on_c, 0, 63, 99
2, 13051, Note_on_c, 0, 56, 99
2, 13061, Note_on_c, 0, 56, 0
2, 13061, Note_on_c, 0, 63, 0
2, 13073, Note_on_c, 0, 72, 0
2, 13094, Note_on_c, 0, 66, 97
2, 13094, Note_on_c, 0, 56, 97
2, 13099, Control_c, 0, 64, 0
2, 13100, Note_on_c, 0, 75, 97
2, 13214, Note_on_c, 0, 44, 0
2, 13216, Note_on_c, 0, 66, 0
2, 13218, Note_on_c, 0, 75, 0
2, 13220, Note_on_c, 0, 73, 96
2, 13222, Note_on_c, 0, 49, 96
2, 13226, Note_on_c, 0, 64, 96
2, 13243, Control_c, 0, 64, 127
2, 13254, Note_on_c, 0, 73, 0
2, 13256, Note_on_c, 0, 64, 0
2, 13281, Note_on_c, 0, 49, 0
2, 13320, Control_c, 0, 7, 114
2, 13333, Note_on_c, 0, 56, 0
2, 13340, Note_on_c, 0, 66, 66
2, 13340, Note_on_c, 0, 74, 96
2, 13340, Note_on_c, 0, 62, 84
2, 13340, Note_on_c, 0, 59, 69
2, 13340, Note_on_c, 0, 47, 88
2, 13359, Control_c, 0, 64, 0
2, 13377, Control_c, 0, 64, 127
2, 13399, Note_on_c, 0, 74, 0
2, 13422, Note_on_c, 0, 66, 0
2, 13423, Note_on_c, 0, 62, 0
2, 13427, Note_on_c, 0, 74, 105
2, 13429, Note_on_c, 0, 59, 0
2, 13469, Note_on_c, 0, 47, 0
2, 13471, Note_on_c, 0, 74, 0
2, 13474, Note_on_c, 0, 68, 98
2, 13477, Note_on_c, 0, 71, 99
2, 13478, Note_on_c, 0, 59, 58
2, 13478, Note_on_c, 0, 52, 97
2, 13480, Note_on_c, 0, 62, 90
2, 13481, Control_c, 0, 64, 0
2, 13502, Control_c, 0, 64, 127
2, 13508, Note_on_c, 0, 62, 0
2, 13517, Note_on_c, 0, 68, 0
2, 13522, Note_on_c, 0, 52, 0
2, 13522, Note_on_c, 0, 59, 0
2, 13536, Note_on_c, 0, 71, 0
2, 13592, Note_on_c, 0, 76, 105
2, 13592, Note_on_c, 0, 68, 79
2, 13592, Note_on_c, 0, 62, 94
2, 13592, Note_on_c, 0, 59, 81
2, 13592, Note_on_c, 0, 52, 99
2, 13605, Control_c, 0, 64, 0
2, 13615, Control_c, 0, 64, 127
2, 13644, Note_on_c, 0, 52, 0
2, 13651, Note_on_c, 0, 62, 0
2, 13651, Note_on_c, 0, 59, 0
2, 13651, Note_on_c, 0, 68, 0
2, 13681, Note_on_c, 0, 76, 0
2, 13714, Note_on_c, 0, 73, 103
2, 13714, Note_on_c, 0, 52, 56
2, 13714, Note_on_c, 0, 64, 69
2, 13714, Note_on_c, 0, 61, 85
2, 13714, Note_on_c, 0, 45, 92
2, 13718, Control_c, 0, 64, 0
2, 13735, Control_c, 0, 64, 127
2, 13743, Note_on_c, 0, 52, 0
2, 13744, Note_on_c, 0, 45, 0
2, 13751, Note_on_c, 0, 73, 0
2, 13762, Note_on_c, 0, 61, 0
2, 13777, Note_on_c, 0, 64, 0
2, 13779, Note_on_c, 0, 73, 113
2, 13823, Note_on_c, 0, 45, 69
2, 13824, Note_on_c, 0, 61, 88
2, 13824, Note_on_c, 0, 57, 87
2, 13824, Note_on_c, 0, 52, 93
2, 13827, Note_on_c, 0, 64, 106
2, 13827, Note_on_c, 0, 73, 0
2, 13836, Control_c, 0, 64, 0
2, 13856, Control_c, 0, 64, 127
2, 13866, Note_on_c, 0, 61, 0
2, 13867, Note_on_c, 0, 45, 0
2, 13869, Note_on_c, 0, 52, 0
2, 13898, Note_on_c, 0, 57, 0
2, 13942, Note_on_c, 0, 45, 93
2, 13942, Note_on_c, 0, 61, 94
2, 13942, Note_on_c, 0, 69, 97
2, 13944, Note_on_c, 0, 64, 0
2, 13946, Note_on_c, 0, 52, 96
2, 13950, Control_c, 0, 64, 0
2, 13968, Control_c, 0, 64, 127
2, 13969, Note_on_c, 0, 61, 0
2, 13971, Note_on_c, 0, 45, 0
2, 13980, Note_on_c, 0, 52, 0
2, 13982, Note_on_c, 0, 69, 0
2, 14050, Note_on_c, 0, 54, 81
2, 14050, Note_on_c, 0, 71, 94
2, 14050, Note_on_c, 0, 66, 96
2, 14050, Note_on_c, 0, 45, 97
2, 14052, Note_on_c, 0, 63, 92
2, 14056, Control_c, 0, 64, 0
2, 14076, Control_c, 0, 64, 127
2, 14077, Note_on_c, 0, 63, 0
2, 14078, Note_on_c, 0, 45, 0
2, 14084, Note_on_c, 0, 71, 0
2, 14086, Note_on_c, 0, 54, 0
2, 14128, Note_on_c, 0, 63, 86
2, 14128, Note_on_c, 0, 71, 96
2, 14130, Note_on_c, 0, 66, 0
2, 14141, Note_on_c, 0, 63, 0
2, 14150, Note_on_c, 0, 71, 0
2, 14179, Note_on_c, 0, 64, 89
2, 14180, Note_on_c, 0, 56, 87
2, 14180, Note_on_c, 0, 45, 97
2, 14181, Note_on_c, 0, 62, 100
2, 14190, Control_c, 0, 64, 0
2, 14197, Note_on_c, 0, 62, 0
2, 14201, Control_c, 0, 64, 127
2, 14208, Note_on_c, 0, 45, 0
2, 14213, Note_on_c, 0, 56, 0
2, 14213, Note_on_c, 0, 64, 0
2, 14300, Note_on_c, 0, 56, 96
2, 14300, Note_on_c, 0, 71, 90
2, 14300, Note_on_c, 0, 45, 97
2, 14304, Note_on_c, 0, 62, 78
2, 14308, Control_c, 0, 64, 0
2, 14321, Note_on_c, 0, 62, 0
2, 14325, Control_c, 0, 64, 127
2, 14328, Note_on_c, 0, 45, 0
2, 14330, Note_on_c, 0, 71, 0
2, 14337, Note_on_c, 0, 56, 0
2, 14432, Note_on_c, 0, 73, 93
2, 14432, Note_on_c, 0, 61, 73
2, 14432, Note_on_c, 0, 45, 51
2, 14432, Note_on_c, 0, 57, 74
2, 14435, Control_c, 0, 64, 0
2, 14454, Control_c, 0, 64, 127
2, 14457, Note_on_c, 0, 73, 0
2, 14491, Note_on_c, 0, 61, 0
2, 14491, Note_on_c, 0, 45, 0
2, 14497, Note_on_c, 0, 73, 103
2, 14525, Note_on_c, 0, 73, 0
2, 14544, Note_on_c, 0, 52, 93
2, 14544, Note_on_c, 0, 45, 93
2, 14545, Note_on_c, 0, 61, 97
2, 14545, Note_on_c, 0, 64, 102
2, 14550, Control_c, 0, 64, 0
2, 14564, Note_on_c, 0, 57, 0
2, 14568, Control_c, 0, 64, 127
2, 14570, Note_on_c, 0, 61, 0
2, 14577, Note_on_c, 0, 52, 0
2, 14603, Note_on_c, 0, 45, 0
2, 14653, Note_on_c, 0, 45, 92
2, 14655, Note_on_c, 0, 69, 110
2, 14655, Note_on_c, 0, 61, 95
2, 14656, Note_on_c, 0, 52, 101
2, 14656, Note_on_c, 0, 64, 0
2, 14664, Control_c, 0, 64, 0
2, 14679, Control_c, 0, 64, 127
2, 14712, Note_on_c, 0, 45, 0
2, 14714, Note_on_c, 0, 61, 0
2, 14714, Note_on_c, 0, 69, 0
2, 14715, Note_on_c, 0, 52, 0
2, 14773, Control_c, 0, 64, 0
2, 14775, Note_on_c, 0, 74, 121
2, 14775, Note_on_c, 0, 69, 90
2, 14775, Note_on_c, 0, 62, 83
2, 14775, Note_on_c, 0, 54, 110
2, 14775, Note_on_c, 0, 45, 110
2, 14794, Control_c, 0, 64, 127
2, 14815, Note_on_c, 0, 74, 0
2, 14828, Note_on_c, 0, 54, 0
2, 14834, Note_on_c, 0, 45, 0
2, 14845, Note_on_c, 0, 74, 110
2, 14853, Note_on_c, 0, 69, 0
2, 14859, Note_on_c, 0, 62, 0
2, 14888, Note_on_c, 0, 71, 112
2, 14889, Note_on_c, 0, 69, 111
2, 14889, Note_on_c, 0, 62, 111
2, 14889, Note_on_c, 0, 74, 0
2, 14890, Note_on_c, 0, 45, 93
2, 14893, Note_on_c, 0, 53, 109
2, 14898, Control_c, 0, 64, 0
2, 14918, Control_c, 0, 64, 127
2, 14923, Note_on_c, 0, 69, 0
2, 14929, Note_on_c, 0, 62, 0
2, 14937, Note_on_c, 0, 71, 0
2, 14938, Note_on_c, 0, 53, 0
2, 14949, Note_on_c, 0, 45, 0
2, 15007, Note_on_c, 0, 76, 107
2, 15007, Note_on_c, 0, 68, 98
2, 15007, Note_on_c, 0, 62, 70
2, 15007, Note_on_c, 0, 52, 89
2, 15007, Note_on_c, 0, 45, 85
2, 15016, Control_c, 0, 64, 0
2, 15041, Control_c, 0, 64, 127
2, 15046, Note_on_c, 0, 52, 0
2, 15049, Note_on_c, 0, 45, 0
2, 15054, Note_on_c, 0, 68, 0
2, 15058, Note_on_c, 0, 62, 0
2, 15126, Note_on_c, 0, 76, 0
2, 15127, Note_on_c, 0, 73, 94
2, 15128, Note_on_c, 0, 61, 69
2, 15130, Note_on_c, 0, 45, 95
2, 15132, Control_c, 0, 64, 0
2, 15133, Note_on_c, 0, 52, 79
2, 15156, Control_c, 0, 64, 127
2, 15161, Note_on_c, 0, 61, 0
2, 15162, Note_on_c, 0, 73, 0
2, 15169, Note_on_c, 0, 52, 0
2, 15189, Note_on_c, 0, 45, 0
2, 15199, Note_on_c, 0, 73, 102
2, 15235, Note_on_c, 0, 73, 0
2, 15240, Note_on_c, 0, 52, 89
2, 15240, Note_on_c, 0, 61, 59
2, 15240, Note_on_c, 0, 64, 101
2, 15240, Note_on_c, 0, 45, 95
2, 15249, Control_c, 0, 64, 0
2, 15268, Control_c, 0, 64, 127
2, 15284, Note_on_c, 0, 52, 0
2, 15299, Note_on_c, 0, 61, 0
2, 15299, Note_on_c, 0, 45, 0
2, 15345, Note_on_c, 0, 64, 0
2, 15360, Note_on_c, 0, 69, 95
2, 15360, Note_on_c, 0, 61, 74
2, 15360, Note_on_c, 0, 45, 95
2, 15360, Note_on_c, 0, 52, 92
2, 15362, Control_c, 0, 64, 0
2, 15382, Control_c, 0, 64, 127
2, 15419, Note_on_c, 0, 52, 0
2, 15419, Note_on_c, 0, 69, 0
2, 15419, Note_on_c, 0, 61, 0
2, 15419, Note_on_c, 0, 45, 0
2, 15478, Control_c, 0, 64, 0
2, 15480, Note_on_c, 0, 45, 88
2, 15480, Note_on_c, 0, 66, 92
2, 15481, Note_on_c, 0, 71, 88
2, 15481, Note_on_c, 0, 54, 88
2, 15481, Note_on_c, 0, 63, 84
2, 15505, Control_c, 0, 64, 127
2, 15510, Note_on_c, 0, 66, 0
2, 15517, Note_on_c, 0, 71, 0
2, 15528, Note_on_c, 0, 63, 0
2, 15528, Note_on_c, 0, 54, 0
2, 15539, Note_on_c, 0, 45, 0
2, 15551, Note_on_c, 0, 63, 63
2, 15554, Note_on_c, 0, 71, 88
2, 15570, Note_on_c, 0, 63, 0
2, 15575, Note_on_c, 0, 71, 0
2, 15600, Note_on_c, 0, 45, 88
2, 15600, Note_on_c, 0, 56, 95
2, 15600, Note_on_c, 0, 71, 82
2, 15603, Note_on_c, 0, 62, 94
2, 15606, Note_on_c, 0, 65, 93
2, 15606, Control_c, 0, 64, 0
2, 15623, Control_c, 0, 64, 127
2, 15643, Note_on_c, 0, 62, 0
2, 15644, Note_on_c, 0, 65, 0
2, 15646, Note_on_c, 0, 71, 0
2, 15656, Note_on_c, 0, 56, 0
2, 15659, Note_on_c, 0, 45, 0
2, 15724, Note_on_c, 0, 64, 100
2, 15725, Note_on_c, 0, 71, 88
2, 15725, Note_on_c, 0, 62, 94
2, 15725, Note_on_c, 0, 56, 97
2, 15728, Note_on_c, 0, 45, 95
2, 15731, Control_c, 0, 64, 0
2, 15751, Control_c, 0, 64, 127
2, 15760, Note_on_c, 0, 62, 0
2, 15761, Note_on_c, 0, 56, 0
2, 15761, Note_on_c, 0, 45, 0
2, 15764, Note_on_c, 0, 71, 0
2, 15765, Note_on_c, 0, 64, 0
2, 15854, Note_on_c, 0, 73, 88
2, 15854, Note_on_c, 0, 61, 69
2, 15854, Note_on_c, 0, 57, 78
2, 15854, Note_on_c, 0, 45, 85
2, 15863, Control_c, 0, 64, 0
2, 15883, Note_on_c, 0, 73, 0
2, 15888, Control_c, 0, 64, 127
2, 15924, Note_on_c, 0, 73, 101
2, 15943, Note_on_c, 0, 45, 0
2, 15967, Note_on_c, 0, 61, 0
2, 15971, Control_c, 0, 64, 0
2, 15972, Note_on_c, 0, 52, 88
2, 15972, Note_on_c, 0, 45, 85
2, 15977, Note_on_c, 0, 61, 66
2, 15978, Note_on_c, 0, 64, 93
2, 15993, Note_on_c, 0, 73, 0
2, 15994, Control_c, 0, 64, 127
2, 15999, Note_on_c, 0, 61, 0
2, 16011, Note_on_c, 0, 57, 0
2, 16027, Note_on_c, 0, 52, 0
2, 16031, Note_on_c, 0, 45, 0
2, 16092, Note_on_c, 0, 45, 85
2, 16095, Note_on_c, 0, 69, 93
2, 16095, Note_on_c, 0, 61, 73
2, 16095, Note_on_c, 0, 52, 79
2, 16095, Note_on_c, 0, 64, 0
2, 16108, Control_c, 0, 64, 0
2, 16109, Control_c, 0, 64, 127
2, 16116, Note_on_c, 0, 69, 0
2, 16121, Note_on_c, 0, 61, 0
2, 16127, Note_on_c, 0, 52, 0
2, 16151, Note_on_c, 0, 45, 0
2, 16195, Note_on_c, 0, 64, 102
2, 16200, Control_c, 0, 7, 120
2, 16220, Note_on_c, 0, 76, 122
2, 16222, Control_c, 0, 64, 0
2, 16223, Note_on_c, 0, 33, 116
2, 16235, Control_c, 0, 64, 127
2, 16241, Note_on_c, 0, 33, 0
2, 16260, Note_on_c, 0, 76, 0
2, 16299, Note_on_c, 0, 76, 118
2, 16308, Note_on_c, 0, 64, 0
2, 16336, Note_on_c, 0, 60, 106
2, 16336, Note_on_c, 0, 52, 109
2, 16336, Note_on_c, 0, 72, 127
2, 16346, Note_on_c, 0, 76, 0
2, 16352, Control_c, 0, 64, 0
2, 16361, Control_c, 0, 64, 127
2, 16366, Note_on_c, 0, 60, 0
2, 16366, Note_on_c, 0, 52, 0
2, 16372, Note_on_c, 0, 72, 0
2, 16457, Note_on_c, 0, 52, 124
2, 16458, Note_on_c, 0, 59, 123
2, 16459, Note_on_c, 0, 75, 127
2, 16465, Control_c, 0, 64, 0
2, 16482, Control_c, 0, 64, 127
2, 16487, Note_on_c, 0, 75, 0
2, 16487, Note_on_c, 0, 59, 0
2, 16492, Note_on_c, 0, 76, 111
2, 16495, Note_on_c, 0, 52, 0
2, 16513, Note_on_c, 0, 76, 0
2, 16514, Note_on_c, 0, 75, 110
2, 16526, Note_on_c, 0, 74, 125
2, 16526, Note_on_c, 0, 75, 0
2, 16544, Note_on_c, 0, 75, 107
2, 16551, Note_on_c, 0, 74, 0
2, 16573, Control_c, 0, 64, 0
2, 16574, Note_on_c, 0, 76, 127
2, 16575, Note_on_c, 0, 45, 122
2, 16582, Note_on_c, 0, 75, 0
2, 16590, Control_c, 0, 64, 127
2, 16593, Note_on_c, 0, 76, 0
2, 16603, Note_on_c, 0, 45, 0
2, 16660, Note_on_c, 0, 76, 109
2, 16692, Control_c, 0, 64, 0
2, 16694, Note_on_c, 0, 69, 108
2, 16694, Note_on_c, 0, 52, 97
2, 16694, Note_on_c, 0, 60, 89
2, 16697, Note_on_c, 0, 76, 0
2, 16716, Note_on_c, 0, 60, 0
2, 16716, Note_on_c, 0, 52, 0
2, 16719, Control_c, 0, 64, 127
2, 16800, Control_c, 0, 64, 0
2, 16800, Note_on_c, 0, 69, 0
2, 16806, Note_on_c, 0, 72, 100
2, 16810, Note_on_c, 0, 52, 91
2, 16813, Note_on_c, 0, 60, 87
2, 16831, Note_on_c, 0, 60, 0
2, 16845, Note_on_c, 0, 52, 0
2, 16911, Note_on_c, 0, 72, 0
2, 16916, Note_on_c, 0, 71, 96
2, 16924, Note_on_c, 0, 45, 79
2, 16934, Control_c, 0, 64, 127
2, 16943, Note_on_c, 0, 71, 0
2, 16951, Note_on_c, 0, 45, 0
2, 16996, Note_on_c, 0, 71, 78
2, 17025, Note_on_c, 0, 71, 0
2, 17035, Note_on_c, 0, 66, 93
2, 17036, Note_on_c, 0, 52, 89
2, 17041, Note_on_c, 0, 62, 81
2, 17047, Control_c, 0, 64, 0
2, 17062, Control_c, 0, 64, 127
2, 17062, Note_on_c, 0, 62, 0
2, 17063, Note_on_c, 0, 52, 0
2, 17089, Note_on_c, 0, 66, 0
2, 17150, Note_on_c, 0, 68, 94
2, 17151, Note_on_c, 0, 52, 89
2, 17151, Note_on_c, 0, 62, 89
2, 17160, Control_c, 0, 64, 0
2, 17160, Note_on_c, 0, 68, 0
2, 17171, Note_on_c, 0, 69, 102
2, 17171, Note_on_c, 0, 62, 0
2, 17175, Control_c, 0, 64, 127
2, 17182, Note_on_c, 0, 69, 0
2, 17183, Note_on_c, 0, 52, 0
2, 17188, Note_on_c, 0, 68, 113
2, 17199, Note_on_c, 0, 68, 0
2, 17230, Note_on_c, 0, 66, 98
2, 17252, Note_on_c, 0, 68, 98
2, 17258, Note_on_c, 0, 66, 0
2, 17272, Control_c, 0, 64, 0
2, 17272, Note_on_c, 0, 45, 99
2, 17277, Note_on_c, 0, 69, 118
2, 17280, Note_on_c, 0, 68, 0
2, 17288, Control_c, 0, 64, 127
2, 17293, Note_on_c, 0, 69, 0
2, 17295, Note_on_c, 0, 45, 0
2, 17352, Note_on_c, 0, 64, 121
2, 17384, Note_on_c, 0, 69, 125
2, 17386, Note_on_c, 0, 52, 115
2, 17386, Note_on_c, 0, 60, 100
2, 17393, Note_on_c, 0, 52, 0
2, 17396, Note_on_c, 0, 60, 0
2, 17396, Note_on_c, 0, 64, 0
2, 17415, Control_c, 0, 64, 0
2, 17415, Note_on_c, 0, 69, 0
2, 17461, Note_on_c, 0, 64, 127
2, 17496, Note_on_c, 0, 52, 120
2, 17496, Note_on_c, 0, 69, 127
2, 17496, Note_on_c, 0, 60, 118
2, 17510, Note_on_c, 0, 60, 0
2, 17512, Note_on_c, 0, 52, 0
2, 17513, Note_on_c, 0, 64, 0
2, 17573, Note_on_c, 0, 72, 127
2, 17583, Note_on_c, 0, 69, 0
2, 17620, Note_on_c, 0, 45, 124
2, 17625, Note_on_c, 0, 76, 127
2, 17627, Control_c, 0, 64, 127
2, 17631, Note_on_c, 0, 72, 0
2, 17640, Note_on_c, 0, 45, 0
2, 17674, Note_on_c, 0, 76, 0
2, 17702, Note_on_c, 0, 76, 113
2, 17745, Note_on_c, 0, 76, 0
2, 17746, Note_on_c, 0, 60, 94
2, 17749, Note_on_c, 0, 52, 95
2, 17752, Note_on_c, 0, 72, 102
2, 17767, Control_c, 0, 64, 0
2, 17776, Note_on_c, 0, 60, 0
2, 17778, Note_on_c, 0, 52, 0
2, 17859, Note_on_c, 0, 52, 109
2, 17861, Note_on_c, 0, 59, 104
2, 17863, Note_on_c, 0, 75, 115
2, 17863, Note_on_c, 0, 72, 0
2, 17869, Note_on_c, 0, 59, 0
2, 17872, Note_on_c, 0, 52, 0
2, 17874, Note_on_c, 0, 75, 0
2, 17884, Note_on_c, 0, 76, 107
2, 17900, Note_on_c, 0, 75, 117
2, 17902, Note_on_c, 0, 76, 0
2, 17915, Note_on_c, 0, 75, 0
2, 17918, Note_on_c, 0, 74, 118
2, 17936, Note_on_c, 0, 75, 105
2, 17944, Note_on_c, 0, 74, 0
2, 17970, Note_on_c, 0, 76, 125
2, 17973, Note_on_c, 0, 45, 107
2, 17976, Note_on_c, 0, 75, 0
2, 17986, Control_c, 0, 64, 127
2, 17993, Note_on_c, 0, 45, 0
2, 18012, Note_on_c, 0, 76, 0
2, 18060, Note_on_c, 0, 76, 101
2, 18098, Note_on_c, 0, 52, 101
2, 18103, Note_on_c, 0, 69, 92
2, 18105, Note_on_c, 0, 60, 92
2, 18105, Note_on_c, 0, 76, 0
2, 18109, Control_c, 0, 64, 0
2, 18116, Note_on_c, 0, 60, 0
2, 18122, Note_on_c, 0, 52, 0
2, 18223, Note_on_c, 0, 69, 0
2, 18227, Note_on_c, 0, 60, 85
2, 18227, Note_on_c, 0, 72, 85
2, 18227, Note_on_c, 0, 52, 83
2, 18238, Note_on_c, 0, 60, 0
2, 18240, Note_on_c, 0, 52, 0
2, 18341, Note_on_c, 0, 72, 0
2, 18342, Note_on_c, 0, 71, 101
2, 18345, Note_on_c, 0, 45, 93
2, 18356, Control_c, 0, 64, 127
2, 18373, Note_on_c, 0, 45, 0
2, 18405, Note_on_c, 0, 71, 0
2, 18420, Note_on_c, 0, 71, 91
2, 18468, Note_on_c, 0, 71, 0
2, 18471, Note_on_c, 0, 52, 89
2, 18471, Note_on_c, 0, 66, 99
2, 18476, Note_on_c, 0, 62, 69
2, 18486, Control_c, 0, 64, 0
2, 18492, Note_on_c, 0, 62, 0
2, 18493, Note_on_c, 0, 52, 0
2, 18556, Note_on_c, 0, 66, 0
2, 18582, Note_on_c, 0, 68, 111
2, 18587, Note_on_c, 0, 52, 96
2, 18590, Note_on_c, 0, 62, 79
2, 18600, Note_on_c, 0, 62, 0
2, 18600, Note_on_c, 0, 52, 0
2, 18600, Note_on_c, 0, 68, 0
2, 18605, Note_on_c, 0, 69, 107
2, 18620, Note_on_c, 0, 68, 119
2, 18621, Note_on_c, 0, 69, 0
2, 18633, Note_on_c, 0, 68, 0
2, 18640, Note_on_c, 0, 66, 113
2, 18654, Note_on_c, 0, 68, 92
2, 18656, Note_on_c, 0, 66, 0
2, 18697, Note_on_c, 0, 68, 0
2, 18703, Note_on_c, 0, 69, 109
2, 18703, Note_on_c, 0, 60, 74
2, 18703, Note_on_c, 0, 57, 71
2, 18743, Control_c, 0, 64, 127
2, 18767, Note_on_c, 0, 81, 103
2, 18786, Note_on_c, 0, 81, 0
2, 18844, Note_on_c, 0, 57, 0
2, 18852, Note_on_c, 0, 60, 0
2, 18852, Note_on_c, 0, 69, 0
2, 18899, Note_on_c, 0, 67, 115
2, 18943, Control_c, 0, 64, 0
2, 18944, Note_on_c, 0, 72, 127
2, 18958, Note_on_c, 0, 67, 0
2, 19019, Note_on_c, 0, 76, 125
2, 19028, Note_on_c, 0, 72, 0
2, 19064, Note_on_c, 0, 48, 119
2, 19064, Note_on_c, 0, 79, 126
2, 19073, Control_c, 0, 64, 127
2, 19074, Note_on_c, 0, 76, 0
2, 19076, Note_on_c, 0, 48, 0
2, 19100, Note_on_c, 0, 79, 0
2, 19146, Note_on_c, 0, 79, 102
2, 19187, Note_on_c, 0, 55, 104
2, 19187, Note_on_c, 0, 64, 92
2, 19190, Note_on_c, 0, 76, 107
2, 19190, Note_on_c, 0, 79, 0
2, 19206, Note_on_c, 0, 55, 0
2, 19210, Note_on_c, 0, 64, 0
2, 19214, Control_c, 0, 64, 0
2, 19295, Note_on_c, 0, 76, 0
2, 19303, Control_c, 0, 64, 127
2, 19306, Note_on_c, 0, 63, 111
2, 19306, Note_on_c, 0, 55, 104
2, 19309, Note_on_c, 0, 78, 124
2, 19331, Note_on_c, 0, 78, 0
2, 19332, Note_on_c, 0, 79, 113
2, 19332, Note_on_c, 0, 63, 0
2, 19339, Note_on_c, 0, 55, 0
2, 19353, Note_on_c, 0, 78, 119
2, 19355, Note_on_c, 0, 79, 0
2, 19369, Note_on_c, 0, 78, 0
2, 19380, Note_on_c, 0, 76, 87
2, 19399, Note_on_c, 0, 78, 106
2, 19408, Note_on_c, 0, 76, 0
2, 19429, Note_on_c, 0, 79, 126
2, 19432, Note_on_c, 0, 48, 106
2, 19435, Control_c, 0, 64, 0
2, 19437, Note_on_c, 0, 78, 0
2, 19451, Control_c, 0, 64, 127
2, 19455, Note_on_c, 0, 48, 0
2, 19469, Note_on_c, 0, 79, 0
2, 19517, Note_on_c, 0, 79, 110
2, 19556, Note_on_c, 0, 76, 107
2, 19558, Note_on_c, 0, 64, 92
2, 19559, Note_on_c, 0, 55, 88
2, 19560, Control_c, 0, 64, 0
2, 19562, Note_on_c, 0, 79, 0
2, 19580, Note_on_c, 0, 64, 0
2, 19581, Note_on_c, 0, 55, 0
2, 19648, Note_on_c, 0, 76, 0
2, 19664, Control_c, 0, 64, 127
2, 19670, Note_on_c, 0, 63, 110
2, 19672, Note_on_c, 0, 55, 107
2, 19677, Note_on_c, 0, 78, 124
2, 19687, Note_on_c, 0, 63, 0
2, 19688, Note_on_c, 0, 78, 0
2, 19693, Note_on_c, 0, 55, 0
2, 19696, Note_on_c, 0, 79, 107
2, 19712, Note_on_c, 0, 79, 0
2, 19713, Note_on_c, 0, 78, 114
2, 19725, Note_on_c, 0, 78, 0
2, 19730, Note_on_c, 0, 79, 91
2, 19744, Note_on_c, 0, 78, 112
2, 19750, Note_on_c, 0, 79, 0
2, 19767, Note_on_c, 0, 76, 110
2, 19767, Note_on_c, 0, 78, 0
2, 19792, Note_on_c, 0, 78, 107
2, 19800, Note_on_c, 0, 76, 0
2, 19803, Note_on_c, 0, 48, 99
2, 19806, Control_c, 0, 64, 0
2, 19807, Note_on_c, 0, 79, 117
2, 19814, Note_on_c, 0, 78, 0
2, 19826, Control_c, 0, 64, 127
2, 19833, Note_on_c, 0, 48, 0
2, 19841, Note_on_c, 0, 79, 0
2, 19887, Note_on_c, 0, 79, 111
2, 19921, Note_on_c, 0, 72, 116
2, 19925, Note_on_c, 0, 55, 102
2, 19925, Note_on_c, 0, 64, 99
2, 19930, Control_c, 0, 64, 0
2, 19946, Note_on_c, 0, 79, 0
2, 19968, Note_on_c, 0, 55, 0
2, 19969, Note_on_c, 0, 64, 0
2, 20036, Note_on_c, 0, 74, 117
2, 20041, Note_on_c, 0, 55, 99
2, 20042, Note_on_c, 0, 65, 102
2, 20048, Control_c, 0, 64, 127
2, 20048, Note_on_c, 0, 72, 0
2, 20062, Note_on_c, 0, 65, 0
2, 20083, Note_on_c, 0, 55, 0
2, 20122, Note_on_c, 0, 74, 0
2, 20127, Note_on_c, 0, 72, 108
2, 20148, Note_on_c, 0, 74, 117
2, 20148, Note_on_c, 0, 72, 0
2, 20159, Control_c, 0, 64, 0
2, 20165, Note_on_c, 0, 48, 99
2, 20170, Note_on_c, 0, 76, 127
2, 20180, Note_on_c, 0, 74, 0
2, 20192, Control_c, 0, 64, 127
2, 20198, Note_on_c, 0, 48, 0
2, 20266, Control_c, 0, 64, 0
2, 20290, Note_on_c, 0, 64, 101
2, 20290, Note_on_c, 0, 55, 106
2, 20335, Control_c, 0, 64, 127
2, 20350, Note_on_c, 0, 64, 0
2, 20380, Note_on_c, 0, 55, 0
2, 20416, Note_on_c, 0, 56, 86
2, 20416, Note_on_c, 0, 76, 0
2, 20419, Note_on_c, 0, 62, 97
2, 20420, Control_c, 0, 64, 0
2, 20421, Note_on_c, 0, 52, 76
2, 20467, Note_on_c, 0, 62, 0
2, 20473, Note_on_c, 0, 56, 0
2, 20478, Note_on_c, 0, 52, 0
2, 20510, Note_on_c, 0, 64, 94
2, 20534, Note_on_c, 0, 64, 0
2, 20538, Note_on_c, 0, 76, 94
2, 20543, Control_c, 0, 64, 127
2, 20546, Note_on_c, 0, 33, 78
2, 20552, Note_on_c, 0, 76, 0
2, 20560, Note_on_c, 0, 33, 0
2, 20624, Note_on_c, 0, 76, 100
2, 20659, Note_on_c, 0, 60, 83
2, 20660, Note_on_c, 0, 52, 91
2, 20660, Note_on_c, 0, 72, 98
2, 20665, Control_c, 0, 64, 0
2, 20665, Note_on_c, 0, 76, 0
2, 20684, Note_on_c, 0, 60, 0
2, 20684, Note_on_c, 0, 52, 0
2, 20687, Control_c, 0, 64, 127
2, 20739, Note_on_c, 0, 72, 0
2, 20777, Note_on_c, 0, 52, 94
2, 20780, Note_on_c, 0, 59, 87
2, 20782, Note_on_c, 0, 75, 114
2, 20791, Note_on_c, 0, 59, 0
2, 20792, Control_c, 0, 64, 0
2, 20792, Note_on_c, 0, 75, 0
2, 20799, Note_on_c, 0, 52, 0
2, 20805, Note_on_c, 0, 76, 93
2, 20820, Note_on_c, 0, 75, 122
2, 20823, Note_on_c, 0, 76, 0
2, 20833, Note_on_c, 0, 75, 0
2, 20842, Note_on_c, 0, 74, 105
2, 20855, Note_on_c, 0, 75, 97
2, 20855, Note_on_c, 0, 74, 0
2, 20884, Note_on_c, 0, 75, 0
2, 20887, Note_on_c, 0, 76, 106
2, 20896, Note_on_c, 0, 45, 86
2, 20904, Control_c, 0, 64, 127
2, 20913, Note_on_c, 0, 76, 0
2, 20917, Note_on_c, 0, 45, 0
2, 20973, Note_on_c, 0, 76, 95
2, 21014, Note_on_c, 0, 52, 92
2, 21016, Note_on_c, 0, 60, 72
2, 21016, Note_on_c, 0, 69, 103
2, 21024, Note_on_c, 0, 52, 0
2, 21029, Note_on_c, 0, 60, 0
2, 21031, Note_on_c, 0, 76, 0
2, 21039, Control_c, 0, 64, 0
2, 21061, Note_on_c, 0, 69, 0
2, 21132, Note_on_c, 0, 72, 100
2, 21132, Note_on_c, 0, 52, 94
2, 21145, Note_on_c, 0, 52, 0
2, 21252, Note_on_c, 0, 71, 99
2, 21256, Note_on_c, 0, 45, 89
2, 21256, Note_on_c, 0, 72, 0
2, 21266, Control_c, 0, 64, 127
2, 21279, Note_on_c, 0, 45, 0
2, 21280, Note_on_c, 0, 71, 0
2, 21333, Note_on_c, 0, 71, 105
2, 21373, Note_on_c, 0, 66, 110
2, 21375, Note_on_c, 0, 52, 89
2, 21375, Note_on_c, 0, 62, 88
2, 21382, Note_on_c, 0, 71, 0
2, 21385, Note_on_c, 0, 52, 0
2, 21386, Note_on_c, 0, 62, 0
2, 21394, Control_c, 0, 64, 0
2, 21446, Note_on_c, 0, 66, 0
2, 21481, Note_on_c, 0, 68, 105
2, 21484, Note_on_c, 0, 52, 96
2, 21487, Note_on_c, 0, 62, 85
2, 21493, Note_on_c, 0, 68, 0
2, 21498, Note_on_c, 0, 62, 0
2, 21498, Note_on_c, 0, 52, 0
2, 21503, Note_on_c, 0, 69, 96
2, 21512, Note_on_c, 0, 69, 0
2, 21516, Note_on_c, 0, 68, 101
2, 21527, Note_on_c, 0, 68, 0
2, 21536, Note_on_c, 0, 66, 114
2, 21558, Note_on_c, 0, 68, 108
2, 21562, Note_on_c, 0, 66, 0
2, 21589, Note_on_c, 0, 68, 0
2, 21592, Note_on_c, 0, 69, 112
2, 21598, Note_on_c, 0, 45, 106
2, 21610, Control_c, 0, 64, 127
2, 21615, Note_on_c, 0, 69, 0
2, 21616, Note_on_c, 0, 45, 0
2, 21680, Note_on_c, 0, 64, 124
2, 21711, Note_on_c, 0, 69, 126
2, 21719, Note_on_c, 0, 60, 106
2, 21721, Note_on_c, 0, 52, 93
2, 21723, Note_on_c, 0, 64, 0
2, 21726, Note_on_c, 0, 60, 0
2, 21731, Note_on_c, 0, 52, 0
2, 21745, Control_c, 0, 64, 0
2, 21759, Note_on_c, 0, 69, 0
2, 21795, Note_on_c, 0, 64, 127
2, 21824, Note_on_c, 0, 69, 127
2, 21831, Note_on_c, 0, 52, 116
2, 21831, Note_on_c, 0, 60, 111
2, 21834, Note_on_c, 0, 64, 0
2, 21844, Note_on_c, 0, 60, 0
2, 21846, Note_on_c, 0, 52, 0
2, 21906, Note_on_c, 0, 72, 127
2, 21915, Note_on_c, 0, 69, 0
2, 21955, Note_on_c, 0, 76, 125
2, 21957, Note_on_c, 0, 45, 112
2, 21960, Control_c, 0, 7, 126
2, 21962, Note_on_c, 0, 72, 0
2, 21967, Control_c, 0, 64, 127
2, 21977, Note_on_c, 0, 45, 0
2, 21997, Note_on_c, 0, 76, 0
2, 22037, Note_on_c, 0, 76, 110
2, 22080, Note_on_c, 0, 76, 0
2, 22083, Note_on_c, 0, 72, 106
2, 22086, Note_on_c, 0, 52, 105
2, 22088, Note_on_c, 0, 60, 99
2, 22095, Control_c, 0, 64, 0
2, 22099, Note_on_c, 0, 60, 0
2, 22104, Note_on_c, 0, 52, 0
2, 22147, Note_on_c, 0, 72, 0
2, 22195, Note_on_c, 0, 59, 101
2, 22196, Note_on_c, 0, 52, 104
2, 22199, Note_on_c, 0, 75, 127
2, 22206, Note_on_c, 0, 52, 0
2, 22206, Note_on_c, 0, 59, 0
2, 22212, Note_on_c, 0, 75, 0
2, 22222, Note_on_c, 0, 76, 99
2, 22235, Note_on_c, 0, 75, 115
2, 22238, Note_on_c, 0, 76, 0
2, 22251, Note_on_c, 0, 75, 0
2, 22255, Note_on_c, 0, 74, 112
2, 22274, Note_on_c, 0, 75, 116
2, 22281, Note_on_c, 0, 74, 0
2, 22312, Note_on_c, 0, 75, 0
2, 22314, Note_on_c, 0, 76, 108
2, 22317, Note_on_c, 0, 45, 102
2, 22333, Control_c, 0, 64, 127
2, 22346, Note_on_c, 0, 45, 0
2, 22352, Note_on_c, 0, 76, 0
2, 22396, Note_on_c, 0, 76, 100
2, 22435, Note_on_c, 0, 76, 0
2, 22439, Note_on_c, 0, 69, 108
2, 22444, Note_on_c, 0, 52, 83
2, 22444, Note_on_c, 0, 60, 72
2, 22450, Control_c, 0, 64, 0
2, 22460, Note_on_c, 0, 60, 0
2, 22463, Note_on_c, 0, 52, 0
2, 22555, Note_on_c, 0, 69, 0
2, 22559, Note_on_c, 0, 72, 94
2, 22560, Note_on_c, 0, 52, 88
2, 22564, Note_on_c, 0, 60, 87
2, 22576, Note_on_c, 0, 60, 0
2, 22582, Note_on_c, 0, 52, 0
2, 22675, Note_on_c, 0, 71, 97
2, 22677, Note_on_c, 0, 72, 0
2, 22680, Note_on_c, 0, 45, 91
2, 22694, Control_c, 0, 64, 127
2, 22705, Note_on_c, 0, 45, 0
2, 22723, Note_on_c, 0, 71, 0
2, 22756, Note_on_c, 0, 71, 91
2, 22793, Note_on_c, 0, 71, 0
2, 22802, Note_on_c, 0, 66, 107
2, 22802, Note_on_c, 0, 52, 88
2, 22807, Note_on_c, 0, 62, 78
2, 22816, Note_on_c, 0, 52, 0
2, 22819, Control_c, 0, 64, 0
2, 22822, Note_on_c, 0, 62, 0
2, 22920, Note_on_c, 0, 52, 90
2, 22923, Note_on_c, 0, 68, 95
2, 22923, Note_on_c, 0, 66, 0
2, 22924, Note_on_c, 0, 62, 86
2, 22937, Note_on_c, 0, 52, 0
2, 22939, Note_on_c, 0, 62, 0
2, 22949, Note_on_c, 0, 68, 0
2, 22955, Note_on_c, 0, 69, 109
2, 22968, Note_on_c, 0, 69, 0
2, 22973, Note_on_c, 0, 68, 117
2, 22981, Note_on_c, 0, 68, 0
2, 22986, Note_on_c, 0, 69, 84
2, 22998, Note_on_c, 0, 69, 0
2, 23000, Note_on_c, 0, 68, 103
2, 23011, Note_on_c, 0, 66, 104
2, 23015, Note_on_c, 0, 68, 0
2, 23029, Note_on_c, 0, 68, 97
2, 23036, Note_on_c, 0, 66, 0
2, 23070, Note_on_c, 0, 45, 80
2, 23071, Note_on_c, 0, 68, 0
2, 23073, Note_on_c, 0, 69, 96
2, 23165, Note_on_c, 0, 81, 91
2, 23169, Note_on_c, 0, 69, 0
2, 23220, Note_on_c, 0, 60, 74
2, 23220, Note_on_c, 0, 52, 80
2, 23248, Note_on_c, 0, 45, 0
2, 23252, Note_on_c, 0, 81, 0
2, 23398, Note_on_c, 0, 52, 0
2, 23401, Note_on_c, 0, 60, 0
2, 23401, End_track
3, 0, Start_track
3, 0, MIDI_port, 0
3, 0, Title_t, "Creative Labs"
3, 0, End_track
4, 0, Start_track
4, 0, MIDI_port, 0
4, 0, Title_t, "(c) 1994"
4, 0, End_track
5, 0, Start_track
5, 0, MIDI_port, 0
5, 0, Title_t, "Chopin "
5, 0, End_track
6, 0, Start_track
6, 0, MIDI_port, 0
6, 0, Title_t, "Mazurka Op.68 no.2"
6, 0, End_track
0, 0, End_of_file