0, 0, Header, 1, 4, 48
1, 0, Start_track
1, 0, Title_t, "F.F.Chopin  Nocturne No.12 in G major Op.37-2"
1, 0, Text_t, "CVS Ver5.05 Created\012"
1, 0, System_exclusive, 0A, 41, 10, 42, 12, 40, 00, 7F, 00, 41, F7
1, 1, System_exclusive, 0A, 41, 10, 42, 12, 40, 00, 04, 7F, 3D, F7
1, 2, System_exclusive, 0A, 41, 10, 42, 12, 40, 01, 30, 04, 0B, F7
1, 3, System_exclusive, 0A, 41, 10, 42, 12, 40, 01, 31, 03, 0B, F7
1, 4, System_exclusive, 0A, 41, 10, 42, 12, 40, 01, 33, 6E, 1E, F7
1, 5, System_exclusive, 0A, 41, 10, 42, 12, 40, 01, 34, 3C, 4F, F7
1, 6, System_exclusive, 0A, 41, 10, 42, 12, 40, 01, 38, 02, 05, F7
1, 7, System_exclusive, 0A, 41, 10, 42, 12, 40, 01, 3A, 64, 21, F7
1, 8, System_exclusive, 0A, 41, 10, 42, 12, 40, 01, 3D, 07, 7B, F7
1, 9, System_exclusive, 0A, 41, 10, 42, 12, 40, 01, 3E, 08, 79, F7
1, 9, Time_signature, 6, 3, 12, 8
1, 9, Key_signature, 1, "major"
1, 9, Tempo, 500000
1, 153, Time_signature, 3, 2, 24, 8
1, 153, Tempo, 1111111
1, 177, Tempo, 845070
1, 201, Tempo, 895522
1, 225, Tempo, 952381
1, 249, Tempo, 923077
1, 261, Tempo, 800000
1, 273, Tempo, 821918
1, 285, Tempo, 923077
1, 297, Tempo, 869565
1, 321, Tempo, 845070
1, 345, Tempo, 869565
1, 369, Tempo, 952381
1, 393, Tempo, 923077
1, 405, Tempo, 845070
1, 417, Tempo, 869565
1, 429, Tempo, 1034483
1, 441, Tempo, 895522
1, 453, Tempo, 952381
1, 465, Tempo, 821918
1, 477, Tempo, 869565
1, 501, Tempo, 895522
1, 513, Tempo, 923077
1, 525, Tempo, 895522
1, 537, Tempo, 923077
1, 549, Tempo, 869565
1, 561, Tempo, 895522
1, 573, Tempo, 952381
1, 609, Tempo, 845070
1, 633, Tempo, 895522
1, 693, Tempo, 869565
1, 705, Tempo, 845070
1, 717, Tempo, 952381
1, 729, Tempo, 983607
1, 753, Tempo, 869565
1, 777, Tempo, 923077
1, 849, Tempo, 952381
1, 861, Tempo, 1000000
1, 885, Tempo, 952381
1, 897, Tempo, 923077
1, 909, Tempo, 895522
1, 921, Tempo, 869565
1, 957, Tempo, 895522
1, 981, Tempo, 952381
1, 1005, Tempo, 1071429
1, 1017, Tempo, 1111111
1, 1041, Tempo, 845070
1, 1065, Tempo, 923077
1, 1089, Tempo, 1000000
1, 1105, Tempo, 800000
1, 1113, Tempo, 952381
1, 1125, Tempo, 869565
1, 1137, Tempo, 952381
1, 1149, Tempo, 983607
1, 1161, Tempo, 1034483
1, 1185, Tempo, 895522
1, 1209, Tempo, 952381
1, 1233, Tempo, 983607
1, 1249, Tempo, 845070
1, 1257, Tempo, 952381
1, 1269, Tempo, 869565
1, 1281, Tempo, 983607
1, 1293, Tempo, 1034483
1, 1305, Tempo, 1153846
1, 1317, Tempo, 1000000
1, 1329, Tempo, 923077
1, 1353, Tempo, 895522
1, 1377, Tempo, 869565
1, 1389, Tempo, 895522
1, 1401, Tempo, 923077
1, 1413, Tempo, 895522
1, 1425, Tempo, 923077
1, 1437, Tempo, 952381
1, 1449, Tempo, 1034483
1, 1473, Tempo, 923077
1, 1521, Tempo, 952381
1, 1545, Tempo, 983607
1, 1557, Tempo, 923077
1, 1581, Tempo, 952381
1, 1593, Tempo, 983607
1, 1617, Tempo, 923077
1, 1641, Tempo, 1000000
1, 1665, Tempo, 952381
1, 1689, Tempo, 983607
1, 1701, Tempo, 952381
1, 1713, Tempo, 983607
1, 1725, Tempo, 1000000
1, 1749, Tempo, 983607
1, 1761, Tempo, 895522
1, 1773, Tempo, 845070
1, 1797, Tempo, 869565
1, 1809, Tempo, 952381
1, 1821, Tempo, 895522
1, 1845, Tempo, 952381
1, 1857, Tempo, 983607
1, 1869, Tempo, 1034483
1, 1881, Tempo, 983607
1, 1953, Tempo, 1071429
1, 1977, Tempo, 1538462
1, 1989, Tempo, 1111111
1, 2001, Tempo, 952381
1, 2013, Tempo, 1000000
1, 2025, Tempo, 1034483
1, 2049, Tempo, 952381
1, 2073, Tempo, 983607
1, 2097, Tempo, 1071429
1, 2121, Tempo, 1304348
1, 2133, Tempo, 1111111
1, 2145, Tempo, 1071429
1, 2157, Tempo, 1111111
1, 2217, Tempo, 1000000
1, 2241, Tempo, 1071429
1, 2265, Tempo, 1463415
1, 2277, Tempo, 1111111
1, 2289, Tempo, 1034483
1, 2301, Tempo, 1071429
1, 2313, Tempo, 1034483
1, 2337, Tempo, 952381
1, 2361, Tempo, 1000000
1, 2385, Tempo, 1153846
1, 2397, Tempo, 1463415
1, 2409, Tempo, 1200000
1, 2421, Tempo, 1333333
1, 2445, Tempo, 1395349
1, 2457, Tempo, 1333333
1, 2469, Tempo, 1034483
1, 2481, Tempo, 983607
1, 2493, Tempo, 952381
1, 2505, Tempo, 923077
1, 2517, Tempo, 895522
1, 2529, Tempo, 923077
1, 2553, Tempo, 952381
1, 2589, Tempo, 983607
1, 2601, Tempo, 1111111
1, 2625, Tempo, 895522
1, 2685, Tempo, 1153846
1, 2697, Tempo, 1111111
1, 2709, Tempo, 1153846
1, 2721, Tempo, 1333333
1, 2733, Tempo, 1304348
1, 2745, Tempo, 1200000
1, 2757, Tempo, 1034483
1, 2769, Tempo, 952381
1, 2781, Tempo, 983607
1, 2793, Tempo, 895522
1, 2805, Tempo, 952381
1, 2817, Tempo, 983607
1, 2853, Tempo, 1000000
1, 2877, Tempo, 1034483
1, 2913, Tempo, 1000000
1, 2937, Tempo, 1034483
1, 2961, Tempo, 1000000
1, 2973, Tempo, 1304348
1, 2985, Tempo, 1111111
1, 2997, Tempo, 1200000
1, 3009, Tempo, 1333333
1, 3021, Tempo, 1395349
1, 3033, Tempo, 1071429
1, 3057, Tempo, 923077
1, 3081, Tempo, 983607
1, 3105, Tempo, 800000
1, 3121, Tempo, 952381
1, 3125, Tempo, 845070
1, 3129, Tempo, 1071429
1, 3141, Tempo, 983607
1, 3165, Tempo, 923077
1, 3177, Tempo, 1000000
1, 3201, Tempo, 952381
1, 3249, Tempo, 1034483
1, 3265, Tempo, 952381
1, 3269, Tempo, 895522
1, 3273, Tempo, 1071429
1, 3285, Tempo, 1034483
1, 3297, Tempo, 1153846
1, 3309, Tempo, 1111111
1, 3321, Tempo, 1200000
1, 3333, Tempo, 1034483
1, 3345, Tempo, 983607
1, 3357, Tempo, 1000000
1, 3381, Tempo, 983607
1, 3405, Tempo, 952381
1, 3417, Tempo, 983607
1, 3429, Tempo, 952381
1, 3441, Tempo, 1000000
1, 3453, Tempo, 1034483
1, 3489, Tempo, 952381
1, 3513, Tempo, 983607
1, 3537, Tempo, 1034483
1, 3549, Tempo, 1395349
1, 3561, Tempo, 1200000
1, 3573, Tempo, 1333333
1, 3585, Tempo, 1463415
1, 3597, Tempo, 1395349
1, 3609, Tempo, 1250000
1, 3621, Tempo, 1111111
1, 3633, Tempo, 1000000
1, 3645, Tempo, 983607
1, 3669, Tempo, 1000000
1, 3681, Tempo, 983607
1, 3693, Tempo, 952381
1, 3705, Tempo, 1000000
1, 3717, Tempo, 1071429
1, 3729, Tempo, 1111111
1, 3741, Tempo, 1200000
1, 3753, Tempo, 1304348
1, 3765, Tempo, 1153846
1, 3801, Tempo, 1000000
1, 3849, Tempo, 983607
1, 3861, Tempo, 1000000
1, 3873, Tempo, 1034483
1, 3885, Tempo, 1153846
1, 3909, Tempo, 1111111
1, 3945, Tempo, 1034483
1, 3969, Tempo, 1071429
1, 3993, Tempo, 1304348
1, 4005, Tempo, 1333333
1, 4017, Tempo, 1621622
1, 4029, Tempo, 3000000
1, 4041, Tempo, 895522
1, 4113, Tempo, 714286
1, 4161, Tempo, 800000
1, 4185, Tempo, 731707
1, 4233, Tempo, 845070
1, 4257, Tempo, 789474
1, 4305, Tempo, 895522
1, 4329, Tempo, 750000
1, 4377, Tempo, 800000
1, 4401, Tempo, 769231
1, 4449, Tempo, 821918
1, 4473, Tempo, 769231
1, 4521, Tempo, 800000
1, 4545, Tempo, 731707
1, 4593, Tempo, 952381
1, 4617, Tempo, 731707
1, 4665, Tempo, 789474
1, 4689, Tempo, 750000
1, 4737, Tempo, 845070
1, 4761, Tempo, 821918
1, 4833, Tempo, 731707
1, 4881, Tempo, 821918
1, 4905, Tempo, 731707
1, 4953, Tempo, 821918
1, 4977, Tempo, 731707
1, 5025, Tempo, 821918
1, 5049, Tempo, 731707
1, 5097, Tempo, 789474
1, 5121, Tempo, 750000
1, 5169, Tempo, 1071429
1, 5193, Tempo, 800000
1, 5241, Tempo, 869565
1, 5265, Tempo, 845070
1, 5313, Tempo, 1200000
1, 5337, Tempo, 1000000
1, 5409, Tempo, 845070
1, 5457, Tempo, 869565
1, 5481, Tempo, 800000
1, 5529, Tempo, 845070
1, 5553, Tempo, 731707
1, 5601, Tempo, 800000
1, 5625, Tempo, 731707
1, 5673, Tempo, 800000
1, 5697, Tempo, 697674
1, 5745, Tempo, 983607
1, 5769, Tempo, 800000
1, 5817, Tempo, 789474
1, 5841, Tempo, 800000
1, 5889, Tempo, 845070
1, 5913, Tempo, 869565
1, 5985, Tempo, 750000
1, 6033, Tempo, 869565
1, 6057, Tempo, 750000
1, 6105, Tempo, 821918
1, 6129, Tempo, 714286
1, 6177, Tempo, 821918
1, 6201, Tempo, 750000
1, 6249, Tempo, 800000
1, 6273, Tempo, 731707
1, 6321, Tempo, 1034483
1, 6345, Tempo, 821918
1, 6393, Tempo, 1000000
1, 6405, Tempo, 952381
1, 6411, Tempo, 1071429
1, 6417, Tempo, 895522
1, 6465, Tempo, 1304348
1, 6489, Tempo, 952381
1, 6561, Tempo, 800000
1, 6609, Tempo, 895522
1, 6633, Tempo, 750000
1, 6705, Tempo, 731707
1, 6753, Tempo, 800000
1, 6777, Tempo, 769231
1, 6849, Tempo, 714286
1, 6897, Tempo, 845070
1, 6921, Tempo, 731707
1, 6969, Tempo, 714286
1, 6993, Tempo, 666667
1, 7041, Tempo, 869565
1, 7065, Tempo, 789474
1, 7137, Tempo, 666667
1, 7185, Tempo, 750000
1, 7257, Tempo, 789474
1, 7281, Tempo, 750000
1, 7329, Tempo, 952381
1, 7353, Tempo, 821918
1, 7401, Tempo, 789474
1, 7425, Tempo, 769231
1, 7473, Tempo, 869565
1, 7497, Tempo, 800000
1, 7545, Tempo, 869565
1, 7569, Tempo, 923077
1, 7617, Tempo, 1250000
1, 7641, Tempo, 1153846
1, 7713, Tempo, 731707
1, 7761, Tempo, 952381
1, 7785, Tempo, 769231
1, 7833, Tempo, 800000
1, 7857, Tempo, 789474
1, 7905, Tempo, 845070
1, 7929, Tempo, 750000
1, 7977, Tempo, 845070
1, 8001, Tempo, 800000
1, 8049, Tempo, 1153846
1, 8073, Tempo, 895522
1, 8145, Tempo, 869565
1, 8193, Tempo, 952381
1, 8217, Tempo, 845070
1, 8289, Tempo, 731707
1, 8337, Tempo, 800000
1, 8361, Tempo, 731707
1, 8409, Tempo, 789474
1, 8433, Tempo, 750000
1, 8481, Tempo, 800000
1, 8505, Tempo, 750000
1, 8553, Tempo, 800000
1, 8625, Tempo, 1153846
1, 8649, Tempo, 845070
1, 8697, Tempo, 952381
1, 8721, Tempo, 983607
1, 8769, Tempo, 1250000
1, 8793, Tempo, 1034483
1, 8865, Tempo, 800000
1, 8913, Tempo, 952381
1, 8937, Tempo, 789474
1, 8985, Tempo, 821918
1, 9009, Tempo, 731707
1, 9057, Tempo, 845070
1, 9081, Tempo, 800000
1, 9129, Tempo, 821918
1, 9201, Tempo, 1071429
1, 9225, Tempo, 821918
1, 9273, Tempo, 869565
1, 9297, Tempo, 845070
1, 9345, Tempo, 983607
1, 9369, Tempo, 845070
1, 9441, Tempo, 800000
1, 9489, Tempo, 869565
1, 9513, Tempo, 800000
1, 9561, Tempo, 821918
1, 9585, Tempo, 800000
1, 9633, Tempo, 845070
1, 9657, Tempo, 789474
1, 9705, Tempo, 800000
1, 9729, Tempo, 750000
1, 9777, Tempo, 923077
1, 9801, Tempo, 895522
1, 9849, Tempo, 952381
1, 9861, Tempo, 1153846
1, 9867, Tempo, 1463415
1, 9873, Tempo, 1071429
1, 9921, Tempo, 1153846
1, 9945, Tempo, 1071429
1, 9969, Tempo, 821918
1, 9993, Tempo, 845070
1, 10017, Tempo, 923077
1, 10041, Tempo, 869565
1, 10053, Tempo, 769231
1, 10065, Tempo, 789474
1, 10077, Tempo, 869565
1, 10089, Tempo, 821918
1, 10161, Tempo, 895522
1, 10185, Tempo, 869565
1, 10197, Tempo, 800000
1, 10209, Tempo, 821918
1, 10221, Tempo, 869565
1, 10245, Tempo, 895522
1, 10257, Tempo, 800000
1, 10269, Tempo, 821918
1, 10293, Tempo, 845070
1, 10305, Tempo, 821918
1, 10329, Tempo, 800000
1, 10341, Tempo, 845070
1, 10353, Tempo, 869565
1, 10365, Tempo, 895522
1, 10377, Tempo, 923077
1, 10425, Tempo, 800000
1, 10449, Tempo, 869565
1, 10473, Tempo, 821918
1, 10485, Tempo, 800000
1, 10497, Tempo, 789474
1, 10509, Tempo, 869565
1, 10521, Tempo, 895522
1, 10569, Tempo, 845070
1, 10617, Tempo, 821918
1, 10641, Tempo, 845070
1, 10653, Tempo, 895522
1, 10665, Tempo, 869565
1, 10689, Tempo, 845070
1, 10701, Tempo, 821918
1, 10713, Tempo, 800000
1, 10749, Tempo, 821918
1, 10773, Tempo, 869565
1, 10797, Tempo, 983607
1, 10809, Tempo, 895522
1, 10833, Tempo, 821918
1, 10857, Tempo, 869565
1, 10881, Tempo, 895522
1, 10897, Tempo, 800000
1, 10901, Tempo, 895522
1, 10905, Tempo, 845070
1, 10917, Tempo, 800000
1, 10929, Tempo, 821918
1, 10941, Tempo, 895522
1, 10953, Tempo, 923077
1, 10977, Tempo, 845070
1, 11025, Tempo, 1000000
1, 11041, Tempo, 895522
1, 11045, Tempo, 800000
1, 11049, Tempo, 821918
1, 11061, Tempo, 869565
1, 11073, Tempo, 895522
1, 11085, Tempo, 952381
1, 11097, Tempo, 1000000
1, 11109, Tempo, 895522
1, 11121, Tempo, 821918
1, 11145, Tempo, 800000
1, 11169, Tempo, 821918
1, 11181, Tempo, 845070
1, 11217, Tempo, 869565
1, 11229, Tempo, 923077
1, 11265, Tempo, 845070
1, 11289, Tempo, 923077
1, 11313, Tempo, 895522
1, 11333, Tempo, 800000
1, 11337, Tempo, 869565
1, 11349, Tempo, 895522
1, 11373, Tempo, 923077
1, 11385, Tempo, 952381
1, 11409, Tempo, 845070
1, 11433, Tempo, 869565
1, 11457, Tempo, 895522
1, 11473, Tempo, 845070
1, 11477, Tempo, 769231
1, 11481, Tempo, 845070
1, 11493, Tempo, 895522
1, 11517, Tempo, 983607
1, 11529, Tempo, 1071429
1, 11541, Tempo, 952381
1, 11553, Tempo, 895522
1, 11577, Tempo, 845070
1, 11589, Tempo, 895522
1, 11601, Tempo, 845070
1, 11613, Tempo, 821918
1, 11625, Tempo, 845070
1, 11637, Tempo, 869565
1, 11649, Tempo, 895522
1, 11661, Tempo, 952381
1, 11673, Tempo, 869565
1, 11685, Tempo, 895522
1, 11697, Tempo, 845070
1, 11709, Tempo, 821918
1, 11721, Tempo, 845070
1, 11733, Tempo, 895522
1, 11745, Tempo, 923077
1, 11757, Tempo, 895522
1, 11769, Tempo, 952381
1, 11781, Tempo, 1071429
1, 11793, Tempo, 1111111
1, 11805, Tempo, 1071429
1, 11817, Tempo, 1250000
1, 11829, Tempo, 952381
1, 11841, Tempo, 1000000
1, 11865, Tempo, 869565
1, 11889, Tempo, 895522
1, 11913, Tempo, 983607
1, 11937, Tempo, 1034483
1, 11949, Tempo, 1153846
1, 11973, Tempo, 983607
1, 12009, Tempo, 895522
1, 12033, Tempo, 952381
1, 12057, Tempo, 1153846
1, 12069, Tempo, 1111111
1, 12093, Tempo, 1304348
1, 12105, Tempo, 1333333
1, 12117, Tempo, 1200000
1, 12129, Tempo, 1304348
1, 12153, Tempo, 1153846
1, 12177, Tempo, 869565
1, 12225, Tempo, 983607
1, 12249, Tempo, 750000
1, 12297, Tempo, 800000
1, 12321, Tempo, 769231
1, 12369, Tempo, 821918
1, 12393, Tempo, 769231
1, 12441, Tempo, 800000
1, 12465, Tempo, 731707
1, 12513, Tempo, 952381
1, 12537, Tempo, 731707
1, 12585, Tempo, 789474
1, 12609, Tempo, 750000
1, 12657, Tempo, 845070
1, 12681, Tempo, 821918
1, 12753, Tempo, 731707
1, 12801, Tempo, 821918
1, 12825, Tempo, 731707
1, 12873, Tempo, 821918
1, 12897, Tempo, 731707
1, 12945, Tempo, 821918
1, 12969, Tempo, 731707
1, 13017, Tempo, 789474
1, 13041, Tempo, 769231
1, 13089, Tempo, 1250000
1, 13119, Tempo, 1621622
1, 13125, Tempo, 1000000
1, 13131, Tempo, 1250000
1, 13137, Tempo, 1333333
1, 13143, Tempo, 2500000
1, 13161, Tempo, 869565
1, 13185, Tempo, 845070
1, 13233, Tempo, 1200000
1, 13257, Tempo, 1000000
1, 13329, Tempo, 845070
1, 13377, Tempo, 869565
1, 13401, Tempo, 800000
1, 13449, Tempo, 845070
1, 13473, Tempo, 731707
1, 13521, Tempo, 800000
1, 13545, Tempo, 731707
1, 13593, Tempo, 800000
1, 13617, Tempo, 697674
1, 13665, Tempo, 983607
1, 13689, Tempo, 800000
1, 13737, Tempo, 789474
1, 13761, Tempo, 800000
1, 13809, Tempo, 845070
1, 13833, Tempo, 869565
1, 13905, Tempo, 750000
1, 13953, Tempo, 869565
1, 13977, Tempo, 750000
1, 14025, Tempo, 821918
1, 14049, Tempo, 714286
1, 14097, Tempo, 821918
1, 14121, Tempo, 750000
1, 14169, Tempo, 800000
1, 14193, Tempo, 731707
1, 14241, Tempo, 1034483
1, 14265, Tempo, 821918
1, 14313, Tempo, 2000000
1, 14319, Tempo, 952381
1, 14331, Tempo, 1071429
1, 14337, Tempo, 895522
1, 14385, Tempo, 1304348
1, 14409, Tempo, 952381
1, 14481, Tempo, 800000
1, 14529, Tempo, 895522
1, 14553, Tempo, 750000
1, 14625, Tempo, 731707
1, 14673, Tempo, 800000
1, 14697, Tempo, 769231
1, 14769, Tempo, 714286
1, 14817, Tempo, 845070
1, 14841, Tempo, 731707
1, 14889, Tempo, 714286
1, 14913, Tempo, 666667
1, 14961, Tempo, 869565
1, 14985, Tempo, 789474
1, 15057, Tempo, 666667
1, 15105, Tempo, 750000
1, 15177, Tempo, 789474
1, 15201, Tempo, 750000
1, 15249, Tempo, 952381
1, 15273, Tempo, 821918
1, 15321, Tempo, 789474
1, 15345, Tempo, 769231
1, 15393, Tempo, 869565
1, 15417, Tempo, 800000
1, 15465, Tempo, 869565
1, 15489, Tempo, 895522
1, 15537, Tempo, 1621622
1, 15561, Tempo, 1153846
1, 15633, Tempo, 731707
1, 15681, Tempo, 952381
1, 15705, Tempo, 769231
1, 15753, Tempo, 800000
1, 15777, Tempo, 789474
1, 15825, Tempo, 845070
1, 15849, Tempo, 750000
1, 15897, Tempo, 845070
1, 15921, Tempo, 800000
1, 15969, Tempo, 1153846
1, 15993, Tempo, 895522
1, 16065, Tempo, 869565
1, 16113, Tempo, 952381
1, 16137, Tempo, 845070
1, 16209, Tempo, 731707
1, 16257, Tempo, 800000
1, 16281, Tempo, 731707
1, 16329, Tempo, 789474
1, 16353, Tempo, 750000
1, 16401, Tempo, 800000
1, 16425, Tempo, 750000
1, 16473, Tempo, 800000
1, 16545, Tempo, 1153846
1, 16569, Tempo, 845070
1, 16617, Tempo, 952381
1, 16641, Tempo, 983607
1, 16689, Tempo, 1250000
1, 16713, Tempo, 2142857
1, 16719, Tempo, 1621622
1, 16725, Tempo, 952381
1, 16731, Tempo, 2000000
1, 16737, Tempo, 1818182
1, 16785, Tempo, 800000
1, 16833, Tempo, 952381
1, 16857, Tempo, 789474
1, 16905, Tempo, 821918
1, 16929, Tempo, 731707
1, 16977, Tempo, 845070
1, 17001, Tempo, 800000
1, 17049, Tempo, 821918
1, 17121, Tempo, 1071429
1, 17145, Tempo, 1000000
1, 17151, Tempo, 895522
1, 17157, Tempo, 869565
1, 17163, Tempo, 895522
1, 17169, Tempo, 1000000
1, 17175, Tempo, 2727273
1, 17193, Tempo, 869565
1, 17217, Tempo, 845070
1, 17265, Tempo, 983607
1, 17289, Tempo, 845070
1, 17361, Tempo, 800000
1, 17409, Tempo, 869565
1, 17433, Tempo, 800000
1, 17481, Tempo, 821918
1, 17505, Tempo, 800000
1, 17553, Tempo, 845070
1, 17577, Tempo, 789474
1, 17625, Tempo, 800000
1, 17649, Tempo, 750000
1, 17697, Tempo, 923077
1, 17721, Tempo, 895522
1, 17769, Tempo, 1935484
1, 17775, Tempo, 952381
1, 17787, Tempo, 1463415
1, 17793, Tempo, 1071429
1, 17841, Tempo, 1304348
1, 17865, Tempo, 1153846
1, 17889, Tempo, 983607
1, 17913, Tempo, 1250000
1, 17937, Tempo, 1621622
1, 17953, Tempo, 895522
1, 17957, Tempo, 800000
1, 17961, Tempo, 1071429
1, 17973, Tempo, 923077
1, 17985, Tempo, 952381
1, 17997, Tempo, 983607
1, 18009, Tempo, 1071429
1, 18033, Tempo, 869565
1, 18057, Tempo, 923077
1, 18097, Tempo, 895522
1, 18101, Tempo, 845070
1, 18105, Tempo, 1000000
1, 18117, Tempo, 923077
1, 18129, Tempo, 983607
1, 18141, Tempo, 1034483
1, 18153, Tempo, 952381
1, 18177, Tempo, 821918
1, 18189, Tempo, 869565
1, 18213, Tempo, 895522
1, 18225, Tempo, 923077
1, 18237, Tempo, 895522
1, 18261, Tempo, 869565
1, 18273, Tempo, 895522
1, 18285, Tempo, 952381
1, 18321, Tempo, 845070
1, 18345, Tempo, 895522
1, 18405, Tempo, 869565
1, 18417, Tempo, 845070
1, 18429, Tempo, 952381
1, 18441, Tempo, 983607
1, 18465, Tempo, 869565
1, 18489, Tempo, 923077
1, 18561, Tempo, 952381
1, 18573, Tempo, 1000000
1, 18597, Tempo, 952381
1, 18609, Tempo, 923077
1, 18621, Tempo, 895522
1, 18633, Tempo, 869565
1, 18669, Tempo, 895522
1, 18693, Tempo, 952381
1, 18717, Tempo, 1071429
1, 18729, Tempo, 983607
1, 18753, Tempo, 869565
1, 18777, Tempo, 923077
1, 18801, Tempo, 845070
1, 18825, Tempo, 952381
1, 18837, Tempo, 923077
1, 18849, Tempo, 869565
1, 18861, Tempo, 895522
1, 18873, Tempo, 952381
1, 18897, Tempo, 895522
1, 18921, Tempo, 923077
1, 18945, Tempo, 1000000
1, 18965, Tempo, 845070
1, 18969, Tempo, 952381
1, 18993, Tempo, 983607
1, 19005, Tempo, 1071429
1, 19017, Tempo, 1111111
1, 19033, Tempo, 845070
1, 19037, Tempo, 769231
1, 19041, Tempo, 1000000
1, 19053, Tempo, 895522
1, 19065, Tempo, 983607
1, 19077, Tempo, 1000000
1, 19089, Tempo, 1153846
1, 19105, Tempo, 800000
1, 19109, Tempo, 731707
1, 19113, Tempo, 1250000
1, 19137, Tempo, 1714286
1, 19149, Tempo, 2307692
1, 19161, Tempo, 3333333
1, 19209, Tempo, 2307692
1, 19233, Tempo, 2142857
1, 19281, Tempo, 2307692
1, 19305, Tempo, 1538462
1, 19377, Tempo, 1071429
1, 19425, Tempo, 1153846
1, 19449, Tempo, 923077
1, 19497, Tempo, 952381
1, 19569, Tempo, 1000000
1, 19593, Tempo, 923077
1, 19641, Tempo, 1034483
1, 19665, Tempo, 1111111
1, 19713, Tempo, 1621622
1, 19737, Tempo, 1250000
1, 19785, Tempo, 1304348
1, 19809, Tempo, 1621622
1, 19857, Tempo, 3333333
1, 19881, Tempo, 1818182
1, 19953, Tempo, 1463415
1, 20025, Tempo, 2142857
1, 20097, Tempo, 1818182
1, 20169, Tempo, 2727273
1, 20169, End_track
2, 0, Start_track
2, 0, Title_t, "RIGHT HAND"
2, 24, Control_c, 0, 0, 0
2, 24, Control_c, 0, 32, 1
2, 24, Program_c, 0, 0
2, 24, Control_c, 0, 7, 120
2, 24, Control_c, 0, 10, 64
2, 24, Control_c, 0, 91, 40
2, 24, Control_c, 0, 93, 0
2, 34, Control_c, 0, 11, 120
2, 43, Control_c, 0, 99, 1
2, 44, Control_c, 0, 98, 8
2, 45, Control_c, 0, 6, 64
2, 46, Control_c, 0, 38, 0
2, 47, Control_c, 0, 99, 1
2, 48, Control_c, 0, 98, 9
2, 49, Control_c, 0, 6, 64
2, 50, Control_c, 0, 38, 0
2, 51, Control_c, 0, 99, 1
2, 52, Control_c, 0, 98, 10
2, 53, Control_c, 0, 6, 64
2, 54, Control_c, 0, 38, 0
2, 55, Control_c, 0, 99, 1
2, 56, Control_c, 0, 98, 32
2, 57, Control_c, 0, 6, 64
2, 58, Control_c, 0, 38, 0
2, 59, Control_c, 0, 99, 1
2, 60, Control_c, 0, 98, 33
2, 61, Control_c, 0, 6, 64
2, 62, Control_c, 0, 38, 0
2, 63, Control_c, 0, 99, 1
2, 64, Control_c, 0, 98, 99
2, 65, Control_c, 0, 6, 64
2, 66, Control_c, 0, 38, 0
2, 67, Control_c, 0, 99, 1
2, 68, Control_c, 0, 98, 100
2, 69, Control_c, 0, 6, 80
2, 70, Control_c, 0, 38, 0
2, 71, Control_c, 0, 99, 1
2, 72, Control_c, 0, 98, 102
2, 73, Control_c, 0, 6, 64
2, 74, Control_c, 0, 38, 0
2, 216, Note_on_c, 0, 66, 46
2, 216, Note_on_c, 0, 69, 48
2, 240, Note_on_c, 0, 69, 0
2, 240, Note_on_c, 0, 66, 0
2, 240, Note_on_c, 0, 67, 50
2, 240, Note_on_c, 0, 71, 52
2, 252, Note_on_c, 0, 71, 0
2, 252, Note_on_c, 0, 67, 0
2, 252, Note_on_c, 0, 67, 54
2, 252, Note_on_c, 0, 72, 56
2, 264, Note_on_c, 0, 72, 0
2, 264, Note_on_c, 0, 67, 0
2, 264, Note_on_c, 0, 70, 58
2, 264, Note_on_c, 0, 73, 60
2, 276, Note_on_c, 0, 73, 0
2, 276, Note_on_c, 0, 70, 0
2, 276, Note_on_c, 0, 72, 60
2, 276, Note_on_c, 0, 76, 62
2, 288, Note_on_c, 0, 76, 0
2, 288, Note_on_c, 0, 72, 0
2, 288, Note_on_c, 0, 71, 52
2, 288, Note_on_c, 0, 74, 56
2, 334, Note_on_c, 0, 74, 0
2, 334, Note_on_c, 0, 71, 0
2, 360, Note_on_c, 0, 66, 46
2, 360, Note_on_c, 0, 69, 48
2, 384, Note_on_c, 0, 69, 0
2, 384, Note_on_c, 0, 66, 0
2, 384, Note_on_c, 0, 67, 50
2, 384, Note_on_c, 0, 71, 52
2, 396, Note_on_c, 0, 71, 0
2, 396, Note_on_c, 0, 67, 0
2, 396, Note_on_c, 0, 67, 52
2, 396, Note_on_c, 0, 72, 54
2, 408, Note_on_c, 0, 72, 0
2, 408, Note_on_c, 0, 67, 0
2, 408, Note_on_c, 0, 70, 54
2, 408, Note_on_c, 0, 73, 56
2, 420, Note_on_c, 0, 73, 0
2, 420, Note_on_c, 0, 70, 0
2, 420, Note_on_c, 0, 72, 52
2, 420, Note_on_c, 0, 76, 54
2, 432, Note_on_c, 0, 76, 0
2, 432, Note_on_c, 0, 72, 0
2, 432, Note_on_c, 0, 71, 50
2, 432, Note_on_c, 0, 74, 52
2, 442, Note_on_c, 0, 74, 0
2, 442, Note_on_c, 0, 71, 0
2, 444, Note_on_c, 0, 76, 62
2, 444, Note_on_c, 0, 84, 66
2, 454, Note_on_c, 0, 84, 0
2, 456, Note_on_c, 0, 76, 0
2, 456, Note_on_c, 0, 74, 60
2, 456, Note_on_c, 0, 83, 64
2, 468, Note_on_c, 0, 83, 0
2, 468, Note_on_c, 0, 74, 0
2, 468, Note_on_c, 0, 72, 56
2, 468, Note_on_c, 0, 78, 60
2, 480, Note_on_c, 0, 78, 0
2, 480, Note_on_c, 0, 72, 0
2, 480, Note_on_c, 0, 71, 58
2, 480, Note_on_c, 0, 79, 62
2, 492, Note_on_c, 0, 79, 0
2, 492, Note_on_c, 0, 71, 0
2, 492, Note_on_c, 0, 72, 56
2, 492, Note_on_c, 0, 76, 58
2, 504, Note_on_c, 0, 76, 0
2, 504, Note_on_c, 0, 72, 0
2, 504, Note_on_c, 0, 71, 54
2, 504, Note_on_c, 0, 74, 56
2, 516, Note_on_c, 0, 74, 0
2, 516, Note_on_c, 0, 71, 0
2, 516, Note_on_c, 0, 69, 56
2, 516, Note_on_c, 0, 77, 60
2, 526, Note_on_c, 0, 77, 0
2, 528, Note_on_c, 0, 69, 0
2, 528, Note_on_c, 0, 68, 54
2, 528, Note_on_c, 0, 76, 58
2, 540, Note_on_c, 0, 76, 0
2, 540, Note_on_c, 0, 68, 0
2, 540, Note_on_c, 0, 65, 50
2, 540, Note_on_c, 0, 69, 52
2, 552, Note_on_c, 0, 69, 0
2, 552, Note_on_c, 0, 65, 0
2, 552, Note_on_c, 0, 64, 49
2, 552, Note_on_c, 0, 71, 53
2, 564, Note_on_c, 0, 71, 0
2, 564, Note_on_c, 0, 64, 0
2, 564, Note_on_c, 0, 62, 48
2, 564, Note_on_c, 0, 72, 52
2, 574, Note_on_c, 0, 62, 0
2, 576, Note_on_c, 0, 72, 0
2, 576, Note_on_c, 0, 60, 46
2, 576, Note_on_c, 0, 64, 48
2, 622, Note_on_c, 0, 64, 0
2, 622, Note_on_c, 0, 60, 0
2, 648, Note_on_c, 0, 69, 54
2, 648, Note_on_c, 0, 72, 60
2, 672, Note_on_c, 0, 72, 0
2, 672, Note_on_c, 0, 69, 0
2, 672, Note_on_c, 0, 68, 54
2, 672, Note_on_c, 0, 71, 56
2, 684, Note_on_c, 0, 71, 0
2, 684, Note_on_c, 0, 68, 0
2, 684, Note_on_c, 0, 69, 56
2, 684, Note_on_c, 0, 72, 58
2, 696, Note_on_c, 0, 72, 0
2, 696, Note_on_c, 0, 69, 0
2, 696, Note_on_c, 0, 71, 58
2, 696, Note_on_c, 0, 74, 60
2, 708, Note_on_c, 0, 74, 0
2, 708, Note_on_c, 0, 71, 0
2, 708, Note_on_c, 0, 68, 56
2, 708, Note_on_c, 0, 77, 62
2, 720, Note_on_c, 0, 77, 0
2, 720, Note_on_c, 0, 68, 0
2, 720, Note_on_c, 0, 72, 52
2, 720, Note_on_c, 0, 76, 54
2, 766, Note_on_c, 0, 76, 0
2, 766, Note_on_c, 0, 72, 0
2, 792, Note_on_c, 0, 69, 54
2, 792, Note_on_c, 0, 72, 60
2, 816, Note_on_c, 0, 72, 0
2, 816, Note_on_c, 0, 69, 0
2, 816, Note_on_c, 0, 68, 54
2, 816, Note_on_c, 0, 71, 56
2, 828, Note_on_c, 0, 71, 0
2, 828, Note_on_c, 0, 68, 0
2, 828, Note_on_c, 0, 69, 54
2, 828, Note_on_c, 0, 72, 56
2, 840, Note_on_c, 0, 72, 0
2, 840, Note_on_c, 0, 69, 0
2, 840, Note_on_c, 0, 71, 53
2, 840, Note_on_c, 0, 74, 55
2, 852, Note_on_c, 0, 74, 0
2, 852, Note_on_c, 0, 71, 0
2, 852, Note_on_c, 0, 68, 48
2, 852, Note_on_c, 0, 77, 54
2, 864, Note_on_c, 0, 77, 0
2, 864, Note_on_c, 0, 68, 0
2, 864, Note_on_c, 0, 72, 46
2, 864, Note_on_c, 0, 76, 48
2, 874, Note_on_c, 0, 76, 0
2, 876, Note_on_c, 0, 72, 0
2, 876, Note_on_c, 0, 76, 60
2, 876, Note_on_c, 0, 84, 64
2, 888, Note_on_c, 0, 84, 0
2, 888, Note_on_c, 0, 76, 0
2, 888, Note_on_c, 0, 74, 58
2, 888, Note_on_c, 0, 83, 62
2, 898, Note_on_c, 0, 74, 0
2, 900, Note_on_c, 0, 83, 0
2, 900, Note_on_c, 0, 71, 56
2, 900, Note_on_c, 0, 80, 60
2, 912, Note_on_c, 0, 80, 0
2, 912, Note_on_c, 0, 71, 0
2, 912, Note_on_c, 0, 72, 58
2, 912, Note_on_c, 0, 81, 62
2, 924, Note_on_c, 0, 81, 0
2, 924, Note_on_c, 0, 72, 0
2, 924, Note_on_c, 0, 74, 56
2, 924, Note_on_c, 0, 77, 58
2, 936, Note_on_c, 0, 77, 0
2, 936, Note_on_c, 0, 74, 0
2, 936, Note_on_c, 0, 72, 54
2, 936, Note_on_c, 0, 76, 56
2, 948, Note_on_c, 0, 76, 0
2, 948, Note_on_c, 0, 72, 0
2, 948, Note_on_c, 0, 71, 56
2, 948, Note_on_c, 0, 79, 60
2, 958, Note_on_c, 0, 79, 0
2, 960, Note_on_c, 0, 71, 0
2, 960, Note_on_c, 0, 69, 54
2, 960, Note_on_c, 0, 78, 58
2, 972, Note_on_c, 0, 78, 0
2, 972, Note_on_c, 0, 69, 0
2, 972, Note_on_c, 0, 67, 50
2, 972, Note_on_c, 0, 71, 52
2, 984, Note_on_c, 0, 71, 0
2, 984, Note_on_c, 0, 67, 0
2, 984, Note_on_c, 0, 66, 49
2, 984, Note_on_c, 0, 72, 53
2, 996, Note_on_c, 0, 72, 0
2, 996, Note_on_c, 0, 66, 0
2, 996, Note_on_c, 0, 62, 48
2, 996, Note_on_c, 0, 74, 52
2, 1008, Note_on_c, 0, 74, 0
2, 1008, Note_on_c, 0, 62, 0
2, 1008, Note_on_c, 0, 67, 46
2, 1008, Note_on_c, 0, 71, 50
2, 1078, Note_on_c, 0, 71, 0
2, 1078, Note_on_c, 0, 67, 0
2, 1096, Note_on_c, 0, 67, 56
2, 1100, Note_on_c, 0, 67, 0
2, 1100, Note_on_c, 0, 69, 58
2, 1104, Note_on_c, 0, 69, 0
2, 1104, Note_on_c, 0, 64, 56
2, 1104, Note_on_c, 0, 67, 58
2, 1116, Note_on_c, 0, 67, 0
2, 1116, Note_on_c, 0, 66, 58
2, 1128, Note_on_c, 0, 66, 0
2, 1128, Note_on_c, 0, 64, 0
2, 1128, Note_on_c, 0, 63, 56
2, 1128, Note_on_c, 0, 67, 60
2, 1140, Note_on_c, 0, 67, 0
2, 1140, Note_on_c, 0, 63, 0
2, 1140, Note_on_c, 0, 65, 55
2, 1140, Note_on_c, 0, 69, 57
2, 1152, Note_on_c, 0, 69, 0
2, 1152, Note_on_c, 0, 65, 0
2, 1152, Note_on_c, 0, 62, 52
2, 1152, Note_on_c, 0, 70, 58
2, 1198, Note_on_c, 0, 70, 0
2, 1198, Note_on_c, 0, 62, 0
2, 1240, Note_on_c, 0, 70, 52
2, 1244, Note_on_c, 0, 70, 0
2, 1244, Note_on_c, 0, 72, 54
2, 1248, Note_on_c, 0, 72, 0
2, 1248, Note_on_c, 0, 67, 52
2, 1248, Note_on_c, 0, 70, 54
2, 1260, Note_on_c, 0, 70, 0
2, 1260, Note_on_c, 0, 69, 54
2, 1272, Note_on_c, 0, 69, 0
2, 1272, Note_on_c, 0, 67, 0
2, 1272, Note_on_c, 0, 66, 52
2, 1272, Note_on_c, 0, 70, 56
2, 1284, Note_on_c, 0, 70, 0
2, 1284, Note_on_c, 0, 66, 0
2, 1284, Note_on_c, 0, 68, 51
2, 1284, Note_on_c, 0, 72, 53
2, 1296, Note_on_c, 0, 72, 0
2, 1296, Note_on_c, 0, 68, 0
2, 1296, Note_on_c, 0, 65, 52
2, 1296, Note_on_c, 0, 73, 58
2, 1306, Note_on_c, 0, 73, 0
2, 1306, Note_on_c, 0, 65, 0
2, 1308, Note_on_c, 0, 82, 64
2, 1308, Note_on_c, 0, 90, 68
2, 1318, Note_on_c, 0, 90, 0
2, 1320, Note_on_c, 0, 82, 0
2, 1320, Note_on_c, 0, 80, 64
2, 1320, Note_on_c, 0, 89, 66
2, 1332, Note_on_c, 0, 89, 0
2, 1332, Note_on_c, 0, 80, 0
2, 1332, Note_on_c, 0, 78, 60
2, 1332, Note_on_c, 0, 84, 64
2, 1342, Note_on_c, 0, 78, 0
2, 1344, Note_on_c, 0, 84, 0
2, 1344, Note_on_c, 0, 77, 62
2, 1344, Note_on_c, 0, 85, 66
2, 1356, Note_on_c, 0, 85, 0
2, 1356, Note_on_c, 0, 77, 0
2, 1356, Note_on_c, 0, 78, 60
2, 1356, Note_on_c, 0, 82, 62
2, 1368, Note_on_c, 0, 82, 0
2, 1368, Note_on_c, 0, 78, 0
2, 1368, Note_on_c, 0, 77, 58
2, 1368, Note_on_c, 0, 80, 60
2, 1378, Note_on_c, 0, 77, 0
2, 1380, Note_on_c, 0, 80, 0
2, 1380, Note_on_c, 0, 75, 60
2, 1380, Note_on_c, 0, 83, 64
2, 1390, Note_on_c, 0, 83, 0
2, 1392, Note_on_c, 0, 75, 0
2, 1392, Note_on_c, 0, 74, 58
2, 1392, Note_on_c, 0, 82, 62
2, 1404, Note_on_c, 0, 82, 0
2, 1404, Note_on_c, 0, 74, 0
2, 1404, Note_on_c, 0, 71, 54
2, 1404, Note_on_c, 0, 75, 56
2, 1416, Note_on_c, 0, 75, 0
2, 1416, Note_on_c, 0, 71, 0
2, 1416, Note_on_c, 0, 70, 53
2, 1416, Note_on_c, 0, 77, 57
2, 1428, Note_on_c, 0, 77, 0
2, 1428, Note_on_c, 0, 70, 0
2, 1428, Note_on_c, 0, 68, 52
2, 1428, Note_on_c, 0, 78, 56
2, 1438, Note_on_c, 0, 68, 0
2, 1440, Note_on_c, 0, 78, 0
2, 1440, Note_on_c, 0, 66, 50
2, 1440, Note_on_c, 0, 70, 52
2, 1510, Note_on_c, 0, 70, 0
2, 1510, Note_on_c, 0, 66, 0
2, 1536, Note_on_c, 0, 74, 56
2, 1536, Note_on_c, 0, 77, 58
2, 1546, Note_on_c, 0, 74, 0
2, 1548, Note_on_c, 0, 77, 0
2, 1548, Note_on_c, 0, 75, 58
2, 1548, Note_on_c, 0, 78, 60
2, 1560, Note_on_c, 0, 78, 0
2, 1560, Note_on_c, 0, 75, 0
2, 1560, Note_on_c, 0, 77, 60
2, 1560, Note_on_c, 0, 80, 62
2, 1572, Note_on_c, 0, 80, 0
2, 1572, Note_on_c, 0, 77, 0
2, 1572, Note_on_c, 0, 74, 58
2, 1572, Note_on_c, 0, 83, 64
2, 1584, Note_on_c, 0, 83, 0
2, 1584, Note_on_c, 0, 74, 0
2, 1584, Note_on_c, 0, 78, 52
2, 1584, Note_on_c, 0, 82, 54
2, 1630, Note_on_c, 0, 82, 0
2, 1630, Note_on_c, 0, 78, 0
2, 1656, Note_on_c, 0, 75, 56
2, 1656, Note_on_c, 0, 78, 62
2, 1680, Note_on_c, 0, 78, 0
2, 1680, Note_on_c, 0, 75, 0
2, 1680, Note_on_c, 0, 74, 56
2, 1680, Note_on_c, 0, 77, 58
2, 1690, Note_on_c, 0, 74, 0
2, 1692, Note_on_c, 0, 77, 0
2, 1692, Note_on_c, 0, 75, 56
2, 1692, Note_on_c, 0, 78, 58
2, 1702, Note_on_c, 0, 75, 0
2, 1704, Note_on_c, 0, 78, 0
2, 1704, Note_on_c, 0, 77, 55
2, 1704, Note_on_c, 0, 80, 57
2, 1716, Note_on_c, 0, 80, 0
2, 1716, Note_on_c, 0, 77, 0
2, 1716, Note_on_c, 0, 74, 50
2, 1716, Note_on_c, 0, 83, 56
2, 1728, Note_on_c, 0, 83, 0
2, 1728, Note_on_c, 0, 74, 0
2, 1728, Note_on_c, 0, 78, 50
2, 1728, Note_on_c, 0, 82, 52
2, 1738, Note_on_c, 0, 82, 0
2, 1738, Note_on_c, 0, 78, 0
2, 1740, Note_on_c, 0, 82, 64
2, 1740, Note_on_c, 0, 90, 68
2, 1750, Note_on_c, 0, 90, 0
2, 1752, Note_on_c, 0, 82, 0
2, 1752, Note_on_c, 0, 80, 62
2, 1752, Note_on_c, 0, 89, 66
2, 1764, Note_on_c, 0, 89, 0
2, 1764, Note_on_c, 0, 80, 0
2, 1764, Note_on_c, 0, 77, 60
2, 1764, Note_on_c, 0, 86, 64
2, 1774, Note_on_c, 0, 77, 0
2, 1776, Note_on_c, 0, 86, 0
2, 1776, Note_on_c, 0, 78, 62
2, 1776, Note_on_c, 0, 87, 66
2, 1788, Note_on_c, 0, 87, 0
2, 1788, Note_on_c, 0, 78, 0
2, 1788, Note_on_c, 0, 80, 60
2, 1788, Note_on_c, 0, 83, 62
2, 1800, Note_on_c, 0, 83, 0
2, 1800, Note_on_c, 0, 80, 0
2, 1800, Note_on_c, 0, 78, 58
2, 1800, Note_on_c, 0, 82, 60
2, 1810, Note_on_c, 0, 78, 0
2, 1812, Note_on_c, 0, 82, 0
2, 1812, Note_on_c, 0, 77, 60
2, 1812, Note_on_c, 0, 85, 64
2, 1822, Note_on_c, 0, 85, 0
2, 1824, Note_on_c, 0, 77, 0
2, 1824, Note_on_c, 0, 75, 58
2, 1824, Note_on_c, 0, 84, 62
2, 1836, Note_on_c, 0, 84, 0
2, 1836, Note_on_c, 0, 75, 0
2, 1836, Note_on_c, 0, 73, 54
2, 1836, Note_on_c, 0, 77, 56
2, 1846, Note_on_c, 0, 73, 0
2, 1848, Note_on_c, 0, 77, 0
2, 1848, Note_on_c, 0, 72, 53
2, 1848, Note_on_c, 0, 78, 57
2, 1858, Note_on_c, 0, 72, 0
2, 1860, Note_on_c, 0, 78, 0
2, 1860, Note_on_c, 0, 68, 52
2, 1860, Note_on_c, 0, 80, 56
2, 1872, Note_on_c, 0, 80, 0
2, 1872, Note_on_c, 0, 68, 0
2, 1872, Note_on_c, 0, 73, 50
2, 1872, Note_on_c, 0, 77, 54
2, 1964, Note_on_c, 0, 77, 0
2, 1964, Note_on_c, 0, 73, 0
2, 1968, Note_on_c, 0, 70, 60
2, 1968, Note_on_c, 0, 78, 66
2, 1978, Note_on_c, 0, 70, 0
2, 1980, Note_on_c, 0, 78, 0
2, 1980, Note_on_c, 0, 68, 70
2, 1980, Note_on_c, 0, 77, 74
2, 1992, Note_on_c, 0, 77, 0
2, 1992, Note_on_c, 0, 68, 0
2, 1992, Note_on_c, 0, 66, 63
2, 1992, Note_on_c, 0, 75, 69
2, 2004, Note_on_c, 0, 75, 0
2, 2004, Note_on_c, 0, 66, 0
2, 2004, Note_on_c, 0, 65, 64
2, 2004, Note_on_c, 0, 73, 70
2, 2014, Note_on_c, 0, 65, 0
2, 2016, Note_on_c, 0, 73, 0
2, 2016, Note_on_c, 0, 63, 56
2, 2016, Note_on_c, 0, 69, 58
2, 2016, Note_on_c, 0, 72, 66
2, 2086, Note_on_c, 0, 72, 0
2, 2086, Note_on_c, 0, 69, 0
2, 2086, Note_on_c, 0, 63, 0
2, 2088, Note_on_c, 0, 61, 54
2, 2088, Note_on_c, 0, 65, 56
2, 2088, Note_on_c, 0, 70, 64
2, 2110, Note_on_c, 0, 61, 0
2, 2112, Note_on_c, 0, 70, 0
2, 2112, Note_on_c, 0, 63, 60
2, 2112, Note_on_c, 0, 72, 66
2, 2122, Note_on_c, 0, 63, 0
2, 2124, Note_on_c, 0, 72, 0
2, 2124, Note_on_c, 0, 61, 58
2, 2124, Note_on_c, 0, 70, 64
2, 2134, Note_on_c, 0, 61, 0
2, 2136, Note_on_c, 0, 70, 0
2, 2136, Note_on_c, 0, 65, 0
2, 2136, Note_on_c, 0, 58, 52
2, 2136, Note_on_c, 0, 64, 58
2, 2136, Note_on_c, 0, 67, 64
2, 2146, Note_on_c, 0, 58, 0
2, 2148, Note_on_c, 0, 67, 0
2, 2148, Note_on_c, 0, 60, 58
2, 2148, Note_on_c, 0, 69, 64
2, 2158, Note_on_c, 0, 60, 0
2, 2160, Note_on_c, 0, 69, 0
2, 2160, Note_on_c, 0, 64, 0
2, 2160, Note_on_c, 0, 57, 52
2, 2160, Note_on_c, 0, 65, 58
2, 2206, Note_on_c, 0, 65, 0
2, 2206, Note_on_c, 0, 57, 0
2, 2232, Note_on_c, 0, 69, 64
2, 2232, Note_on_c, 0, 74, 68
2, 2232, Note_on_c, 0, 77, 76
2, 2254, Note_on_c, 0, 69, 0
2, 2256, Note_on_c, 0, 77, 0
2, 2256, Note_on_c, 0, 70, 66
2, 2256, Note_on_c, 0, 79, 72
2, 2266, Note_on_c, 0, 79, 0
2, 2266, Note_on_c, 0, 70, 0
2, 2268, Note_on_c, 0, 69, 68
2, 2268, Note_on_c, 0, 77, 76
2, 2278, Note_on_c, 0, 69, 0
2, 2280, Note_on_c, 0, 77, 0
2, 2280, Note_on_c, 0, 74, 0
2, 2280, Note_on_c, 0, 67, 66
2, 2280, Note_on_c, 0, 76, 72
2, 2290, Note_on_c, 0, 67, 0
2, 2292, Note_on_c, 0, 76, 0
2, 2292, Note_on_c, 0, 65, 64
2, 2292, Note_on_c, 0, 74, 70
2, 2302, Note_on_c, 0, 65, 0
2, 2304, Note_on_c, 0, 74, 0
2, 2304, Note_on_c, 0, 64, 56
2, 2304, Note_on_c, 0, 69, 60
2, 2304, Note_on_c, 0, 72, 66
2, 2350, Note_on_c, 0, 72, 0
2, 2350, Note_on_c, 0, 69, 0
2, 2350, Note_on_c, 0, 64, 0
2, 2388, Note_on_c, 0, 63, 56
2, 2388, Note_on_c, 0, 71, 62
2, 2400, Note_on_c, 0, 71, 0
2, 2400, Note_on_c, 0, 63, 0
2, 2400, Note_on_c, 0, 64, 58
2, 2400, Note_on_c, 0, 72, 63
2, 2412, Note_on_c, 0, 72, 0
2, 2412, Note_on_c, 0, 64, 0
2, 2412, Note_on_c, 0, 63, 56
2, 2412, Note_on_c, 0, 71, 60
2, 2422, Note_on_c, 0, 71, 0
2, 2422, Note_on_c, 0, 63, 0
2, 2424, Note_on_c, 0, 62, 52
2, 2424, Note_on_c, 0, 65, 56
2, 2424, Note_on_c, 0, 74, 58
2, 2434, Note_on_c, 0, 74, 0
2, 2434, Note_on_c, 0, 65, 0
2, 2436, Note_on_c, 0, 64, 54
2, 2436, Note_on_c, 0, 72, 58
2, 2446, Note_on_c, 0, 62, 0
2, 2448, Note_on_c, 0, 72, 0
2, 2448, Note_on_c, 0, 64, 0
2, 2448, Note_on_c, 0, 60, 52
2, 2448, Note_on_c, 0, 69, 56
2, 2458, Note_on_c, 0, 69, 0
2, 2458, Note_on_c, 0, 60, 0
2, 2460, Note_on_c, 0, 76, 68
2, 2460, Note_on_c, 0, 84, 72
2, 2470, Note_on_c, 0, 84, 0
2, 2472, Note_on_c, 0, 76, 0
2, 2472, Note_on_c, 0, 74, 66
2, 2472, Note_on_c, 0, 83, 70
2, 2484, Note_on_c, 0, 83, 0
2, 2484, Note_on_c, 0, 74, 0
2, 2484, Note_on_c, 0, 71, 62
2, 2484, Note_on_c, 0, 80, 66
2, 2496, Note_on_c, 0, 80, 0
2, 2496, Note_on_c, 0, 71, 0
2, 2496, Note_on_c, 0, 72, 64
2, 2496, Note_on_c, 0, 81, 68
2, 2508, Note_on_c, 0, 81, 0
2, 2508, Note_on_c, 0, 72, 0
2, 2508, Note_on_c, 0, 74, 62
2, 2508, Note_on_c, 0, 77, 64
2, 2520, Note_on_c, 0, 77, 0
2, 2520, Note_on_c, 0, 74, 0
2, 2520, Note_on_c, 0, 72, 60
2, 2520, Note_on_c, 0, 76, 62
2, 2532, Note_on_c, 0, 76, 0
2, 2532, Note_on_c, 0, 72, 0
2, 2532, Note_on_c, 0, 71, 62
2, 2532, Note_on_c, 0, 79, 66
2, 2542, Note_on_c, 0, 79, 0
2, 2544, Note_on_c, 0, 71, 0
2, 2544, Note_on_c, 0, 69, 60
2, 2544, Note_on_c, 0, 77, 64
2, 2556, Note_on_c, 0, 77, 0
2, 2556, Note_on_c, 0, 69, 0
2, 2556, Note_on_c, 0, 68, 60
2, 2556, Note_on_c, 0, 71, 62
2, 2568, Note_on_c, 0, 71, 0
2, 2568, Note_on_c, 0, 68, 0
2, 2568, Note_on_c, 0, 69, 59
2, 2568, Note_on_c, 0, 72, 63
2, 2580, Note_on_c, 0, 72, 0
2, 2580, Note_on_c, 0, 69, 0
2, 2580, Note_on_c, 0, 65, 56
2, 2580, Note_on_c, 0, 71, 58
2, 2580, Note_on_c, 0, 74, 62
2, 2590, Note_on_c, 0, 74, 0
2, 2590, Note_on_c, 0, 71, 0
2, 2590, Note_on_c, 0, 65, 0
2, 2592, Note_on_c, 0, 64, 54
2, 2592, Note_on_c, 0, 72, 60
2, 2592, Note_on_c, 0, 76, 64
2, 2614, Note_on_c, 0, 76, 0
2, 2614, Note_on_c, 0, 72, 0
2, 2614, Note_on_c, 0, 64, 0
2, 2676, Note_on_c, 0, 63, 56
2, 2676, Note_on_c, 0, 71, 62
2, 2688, Note_on_c, 0, 71, 0
2, 2688, Note_on_c, 0, 63, 0
2, 2688, Note_on_c, 0, 64, 58
2, 2688, Note_on_c, 0, 72, 63
2, 2700, Note_on_c, 0, 72, 0
2, 2700, Note_on_c, 0, 64, 0
2, 2700, Note_on_c, 0, 63, 56
2, 2700, Note_on_c, 0, 71, 60
2, 2710, Note_on_c, 0, 71, 0
2, 2710, Note_on_c, 0, 63, 0
2, 2712, Note_on_c, 0, 62, 50
2, 2712, Note_on_c, 0, 65, 52
2, 2712, Note_on_c, 0, 74, 58
2, 2722, Note_on_c, 0, 65, 0
2, 2724, Note_on_c, 0, 74, 0
2, 2724, Note_on_c, 0, 64, 52
2, 2724, Note_on_c, 0, 72, 56
2, 2734, Note_on_c, 0, 62, 0
2, 2736, Note_on_c, 0, 72, 0
2, 2736, Note_on_c, 0, 64, 0
2, 2736, Note_on_c, 0, 60, 50
2, 2736, Note_on_c, 0, 69, 54
2, 2746, Note_on_c, 0, 69, 0
2, 2746, Note_on_c, 0, 60, 0
2, 2748, Note_on_c, 0, 76, 60
2, 2748, Note_on_c, 0, 84, 64
2, 2758, Note_on_c, 0, 84, 0
2, 2760, Note_on_c, 0, 76, 0
2, 2760, Note_on_c, 0, 74, 58
2, 2760, Note_on_c, 0, 83, 62
2, 2772, Note_on_c, 0, 83, 0
2, 2772, Note_on_c, 0, 74, 0
2, 2772, Note_on_c, 0, 71, 54
2, 2772, Note_on_c, 0, 80, 58
2, 2784, Note_on_c, 0, 80, 0
2, 2784, Note_on_c, 0, 71, 0
2, 2784, Note_on_c, 0, 72, 56
2, 2784, Note_on_c, 0, 81, 60
2, 2796, Note_on_c, 0, 81, 0
2, 2796, Note_on_c, 0, 72, 0
2, 2796, Note_on_c, 0, 74, 54
2, 2796, Note_on_c, 0, 77, 56
2, 2808, Note_on_c, 0, 77, 0
2, 2808, Note_on_c, 0, 74, 0
2, 2808, Note_on_c, 0, 72, 52
2, 2808, Note_on_c, 0, 76, 54
2, 2820, Note_on_c, 0, 76, 0
2, 2820, Note_on_c, 0, 72, 0
2, 2820, Note_on_c, 0, 71, 54
2, 2820, Note_on_c, 0, 79, 58
2, 2832, Note_on_c, 0, 79, 0
2, 2832, Note_on_c, 0, 71, 0
2, 2832, Note_on_c, 0, 69, 52
2, 2832, Note_on_c, 0, 77, 56
2, 2844, Note_on_c, 0, 77, 0
2, 2844, Note_on_c, 0, 69, 0
2, 2844, Note_on_c, 0, 68, 52
2, 2844, Note_on_c, 0, 71, 54
2, 2856, Note_on_c, 0, 71, 0
2, 2856, Note_on_c, 0, 68, 0
2, 2856, Note_on_c, 0, 69, 51
2, 2856, Note_on_c, 0, 72, 55
2, 2868, Note_on_c, 0, 72, 0
2, 2868, Note_on_c, 0, 69, 0
2, 2868, Note_on_c, 0, 65, 48
2, 2868, Note_on_c, 0, 71, 50
2, 2868, Note_on_c, 0, 74, 54
2, 2878, Note_on_c, 0, 74, 0
2, 2878, Note_on_c, 0, 71, 0
2, 2878, Note_on_c, 0, 65, 0
2, 2880, Note_on_c, 0, 64, 46
2, 2880, Note_on_c, 0, 72, 48
2, 2880, Note_on_c, 0, 76, 52
2, 2902, Note_on_c, 0, 76, 0
2, 2902, Note_on_c, 0, 72, 0
2, 2902, Note_on_c, 0, 64, 0
2, 2964, Note_on_c, 0, 63, 46
2, 2964, Note_on_c, 0, 71, 52
2, 2976, Note_on_c, 0, 71, 0
2, 2976, Note_on_c, 0, 63, 0
2, 2976, Note_on_c, 0, 64, 48
2, 2976, Note_on_c, 0, 72, 53
2, 2988, Note_on_c, 0, 72, 0
2, 2988, Note_on_c, 0, 64, 0
2, 2988, Note_on_c, 0, 63, 46
2, 2988, Note_on_c, 0, 71, 50
2, 2998, Note_on_c, 0, 71, 0
2, 2998, Note_on_c, 0, 63, 0
2, 3000, Note_on_c, 0, 62, 42
2, 3000, Note_on_c, 0, 65, 44
2, 3000, Note_on_c, 0, 74, 50
2, 3010, Note_on_c, 0, 65, 0
2, 3012, Note_on_c, 0, 74, 0
2, 3012, Note_on_c, 0, 64, 44
2, 3012, Note_on_c, 0, 72, 48
2, 3022, Note_on_c, 0, 62, 0
2, 3024, Note_on_c, 0, 72, 0
2, 3024, Note_on_c, 0, 64, 0
2, 3024, Note_on_c, 0, 60, 40
2, 3024, Note_on_c, 0, 69, 44
2, 3046, Note_on_c, 0, 69, 0
2, 3046, Note_on_c, 0, 60, 0
2, 3112, Note_on_c, 0, 64, 58
2, 3116, Note_on_c, 0, 64, 0
2, 3116, Note_on_c, 0, 66, 60
2, 3120, Note_on_c, 0, 66, 0
2, 3120, Note_on_c, 0, 60, 58
2, 3120, Note_on_c, 0, 64, 60
2, 3130, Note_on_c, 0, 60, 0
2, 3132, Note_on_c, 0, 64, 0
2, 3132, Note_on_c, 0, 59, 58
2, 3132, Note_on_c, 0, 62, 60
2, 3142, Note_on_c, 0, 59, 0
2, 3144, Note_on_c, 0, 62, 0
2, 3144, Note_on_c, 0, 60, 60
2, 3144, Note_on_c, 0, 64, 62
2, 3156, Note_on_c, 0, 64, 0
2, 3156, Note_on_c, 0, 60, 0
2, 3156, Note_on_c, 0, 62, 59
2, 3156, Note_on_c, 0, 66, 61
2, 3168, Note_on_c, 0, 66, 0
2, 3168, Note_on_c, 0, 62, 0
2, 3168, Note_on_c, 0, 59, 54
2, 3168, Note_on_c, 0, 67, 60
2, 3214, Note_on_c, 0, 67, 0
2, 3214, Note_on_c, 0, 59, 0
2, 3256, Note_on_c, 0, 62, 52
2, 3260, Note_on_c, 0, 62, 0
2, 3260, Note_on_c, 0, 64, 54
2, 3264, Note_on_c, 0, 64, 0
2, 3264, Note_on_c, 0, 58, 52
2, 3264, Note_on_c, 0, 62, 54
2, 3274, Note_on_c, 0, 58, 0
2, 3276, Note_on_c, 0, 62, 0
2, 3276, Note_on_c, 0, 57, 52
2, 3276, Note_on_c, 0, 60, 54
2, 3286, Note_on_c, 0, 57, 0
2, 3288, Note_on_c, 0, 60, 0
2, 3288, Note_on_c, 0, 58, 54
2, 3288, Note_on_c, 0, 62, 56
2, 3300, Note_on_c, 0, 62, 0
2, 3300, Note_on_c, 0, 58, 0
2, 3300, Note_on_c, 0, 60, 52
2, 3300, Note_on_c, 0, 64, 54
2, 3312, Note_on_c, 0, 64, 0
2, 3312, Note_on_c, 0, 60, 0
2, 3312, Note_on_c, 0, 56, 44
2, 3312, Note_on_c, 0, 65, 50
2, 3322, Note_on_c, 0, 65, 0
2, 3322, Note_on_c, 0, 56, 0
2, 3324, Note_on_c, 0, 72, 60
2, 3324, Note_on_c, 0, 80, 64
2, 3334, Note_on_c, 0, 80, 0
2, 3336, Note_on_c, 0, 72, 0
2, 3336, Note_on_c, 0, 70, 58
2, 3336, Note_on_c, 0, 79, 62
2, 3348, Note_on_c, 0, 79, 0
2, 3348, Note_on_c, 0, 70, 0
2, 3348, Note_on_c, 0, 67, 54
2, 3348, Note_on_c, 0, 76, 58
2, 3358, Note_on_c, 0, 67, 0
2, 3360, Note_on_c, 0, 76, 0
2, 3360, Note_on_c, 0, 68, 56
2, 3360, Note_on_c, 0, 77, 60
2, 3372, Note_on_c, 0, 77, 0
2, 3372, Note_on_c, 0, 68, 0
2, 3372, Note_on_c, 0, 70, 54
2, 3372, Note_on_c, 0, 73, 56
2, 3384, Note_on_c, 0, 73, 0
2, 3384, Note_on_c, 0, 70, 0
2, 3384, Note_on_c, 0, 68, 52
2, 3384, Note_on_c, 0, 72, 54
2, 3394, Note_on_c, 0, 68, 0
2, 3396, Note_on_c, 0, 72, 0
2, 3396, Note_on_c, 0, 67, 54
2, 3396, Note_on_c, 0, 75, 58
2, 3406, Note_on_c, 0, 75, 0
2, 3408, Note_on_c, 0, 67, 0
2, 3408, Note_on_c, 0, 65, 52
2, 3408, Note_on_c, 0, 73, 56
2, 3420, Note_on_c, 0, 73, 0
2, 3420, Note_on_c, 0, 65, 0
2, 3420, Note_on_c, 0, 64, 52
2, 3420, Note_on_c, 0, 67, 54
2, 3432, Note_on_c, 0, 67, 0
2, 3432, Note_on_c, 0, 64, 0
2, 3432, Note_on_c, 0, 65, 51
2, 3432, Note_on_c, 0, 68, 55
2, 3444, Note_on_c, 0, 68, 0
2, 3444, Note_on_c, 0, 65, 0
2, 3444, Note_on_c, 0, 61, 48
2, 3444, Note_on_c, 0, 67, 50
2, 3444, Note_on_c, 0, 70, 54
2, 3454, Note_on_c, 0, 70, 0
2, 3454, Note_on_c, 0, 67, 0
2, 3454, Note_on_c, 0, 61, 0
2, 3456, Note_on_c, 0, 60, 48
2, 3456, Note_on_c, 0, 68, 50
2, 3456, Note_on_c, 0, 72, 56
2, 3478, Note_on_c, 0, 72, 0
2, 3478, Note_on_c, 0, 68, 0
2, 3478, Note_on_c, 0, 60, 0
2, 3540, Note_on_c, 0, 59, 50
2, 3540, Note_on_c, 0, 67, 56
2, 3552, Note_on_c, 0, 67, 0
2, 3552, Note_on_c, 0, 59, 0
2, 3552, Note_on_c, 0, 60, 54
2, 3552, Note_on_c, 0, 68, 59
2, 3564, Note_on_c, 0, 68, 0
2, 3564, Note_on_c, 0, 60, 0
2, 3564, Note_on_c, 0, 59, 52
2, 3564, Note_on_c, 0, 67, 56
2, 3574, Note_on_c, 0, 67, 0
2, 3574, Note_on_c, 0, 59, 0
2, 3576, Note_on_c, 0, 58, 48
2, 3576, Note_on_c, 0, 61, 52
2, 3576, Note_on_c, 0, 70, 54
2, 3586, Note_on_c, 0, 61, 0
2, 3588, Note_on_c, 0, 70, 0
2, 3588, Note_on_c, 0, 60, 50
2, 3588, Note_on_c, 0, 68, 54
2, 3598, Note_on_c, 0, 58, 0
2, 3600, Note_on_c, 0, 68, 0
2, 3600, Note_on_c, 0, 60, 0
2, 3600, Note_on_c, 0, 56, 46
2, 3600, Note_on_c, 0, 65, 50
2, 3610, Note_on_c, 0, 65, 0
2, 3610, Note_on_c, 0, 56, 0
2, 3612, Note_on_c, 0, 72, 52
2, 3612, Note_on_c, 0, 80, 54
2, 3622, Note_on_c, 0, 80, 0
2, 3624, Note_on_c, 0, 72, 0
2, 3624, Note_on_c, 0, 70, 52
2, 3624, Note_on_c, 0, 79, 58
2, 3636, Note_on_c, 0, 79, 0
2, 3636, Note_on_c, 0, 70, 0
2, 3636, Note_on_c, 0, 67, 54
2, 3636, Note_on_c, 0, 76, 58
2, 3646, Note_on_c, 0, 67, 0
2, 3648, Note_on_c, 0, 76, 0
2, 3648, Note_on_c, 0, 68, 58
2, 3648, Note_on_c, 0, 77, 62
2, 3660, Note_on_c, 0, 77, 0
2, 3660, Note_on_c, 0, 68, 0
2, 3660, Note_on_c, 0, 70, 56
2, 3660, Note_on_c, 0, 73, 58
2, 3670, Note_on_c, 0, 70, 0
2, 3672, Note_on_c, 0, 73, 0
2, 3672, Note_on_c, 0, 68, 54
2, 3672, Note_on_c, 0, 72, 56
2, 3684, Note_on_c, 0, 72, 0
2, 3684, Note_on_c, 0, 68, 0
2, 3684, Note_on_c, 0, 67, 56
2, 3684, Note_on_c, 0, 75, 60
2, 3696, Note_on_c, 0, 75, 0
2, 3696, Note_on_c, 0, 67, 0
2, 3696, Note_on_c, 0, 65, 54
2, 3696, Note_on_c, 0, 73, 58
2, 3708, Note_on_c, 0, 73, 0
2, 3708, Note_on_c, 0, 65, 0
2, 3708, Note_on_c, 0, 63, 54
2, 3708, Note_on_c, 0, 67, 56
2, 3720, Note_on_c, 0, 67, 0
2, 3720, Note_on_c, 0, 63, 0
2, 3720, Note_on_c, 0, 61, 53
2, 3720, Note_on_c, 0, 68, 57
2, 3732, Note_on_c, 0, 68, 0
2, 3732, Note_on_c, 0, 61, 0
2, 3732, Note_on_c, 0, 58, 50
2, 3732, Note_on_c, 0, 70, 56
2, 3744, Note_on_c, 0, 70, 0
2, 3744, Note_on_c, 0, 58, 0
2, 3744, Note_on_c, 0, 62, 53
2, 3744, Note_on_c, 0, 66, 57
2, 3756, Note_on_c, 0, 62, 0
2, 3756, Note_on_c, 0, 61, 50
2, 3766, Note_on_c, 0, 61, 0
2, 3766, Note_on_c, 0, 66, 0
2, 3840, Note_on_c, 0, 60, 56
2, 3840, Note_on_c, 0, 63, 58
2, 3850, Note_on_c, 0, 60, 0
2, 3852, Note_on_c, 0, 63, 0
2, 3852, Note_on_c, 0, 61, 58
2, 3852, Note_on_c, 0, 65, 60
2, 3864, Note_on_c, 0, 65, 0
2, 3864, Note_on_c, 0, 61, 0
2, 3864, Note_on_c, 0, 60, 56
2, 3864, Note_on_c, 0, 66, 60
2, 3876, Note_on_c, 0, 66, 0
2, 3876, Note_on_c, 0, 60, 0
2, 3876, Note_on_c, 0, 56, 52
2, 3876, Note_on_c, 0, 68, 56
2, 3888, Note_on_c, 0, 68, 0
2, 3888, Note_on_c, 0, 56, 0
2, 3888, Note_on_c, 0, 60, 48
2, 3888, Note_on_c, 0, 64, 52
2, 3900, Note_on_c, 0, 60, 0
2, 3900, Note_on_c, 0, 59, 44
2, 3910, Note_on_c, 0, 59, 0
2, 3910, Note_on_c, 0, 64, 0
2, 3984, Note_on_c, 0, 58, 48
2, 3984, Note_on_c, 0, 61, 50
2, 3994, Note_on_c, 0, 58, 0
2, 3996, Note_on_c, 0, 61, 0
2, 3996, Note_on_c, 0, 59, 52
2, 3996, Note_on_c, 0, 63, 54
2, 4008, Note_on_c, 0, 63, 0
2, 4008, Note_on_c, 0, 59, 0
2, 4008, Note_on_c, 0, 58, 48
2, 4008, Note_on_c, 0, 64, 52
2, 4020, Note_on_c, 0, 64, 0
2, 4020, Note_on_c, 0, 58, 0
2, 4020, Note_on_c, 0, 54, 44
2, 4020, Note_on_c, 0, 66, 50
2, 4026, Note_on_c, 0, 66, 0
2, 4026, Note_on_c, 0, 54, 0
2, 4032, Note_on_c, 0, 55, 44
2, 4032, Note_on_c, 0, 59, 48
2, 4032, Note_on_c, 0, 67, 54
2, 4096, Note_on_c, 0, 67, 0
2, 4104, Note_on_c, 0, 67, 66
2, 4152, Note_on_c, 0, 67, 0
2, 4152, Note_on_c, 0, 69, 58
2, 4164, Note_on_c, 0, 55, 0
2, 4176, Note_on_c, 0, 69, 0
2, 4176, Note_on_c, 0, 67, 66
2, 4224, Note_on_c, 0, 67, 0
2, 4224, Note_on_c, 0, 55, 62
2, 4248, Note_on_c, 0, 55, 0
2, 4248, Note_on_c, 0, 67, 60
2, 4296, Note_on_c, 0, 67, 0
2, 4296, Note_on_c, 0, 69, 56
2, 4308, Note_on_c, 0, 59, 0
2, 4320, Note_on_c, 0, 69, 0
2, 4320, Note_on_c, 0, 59, 44
2, 4320, Note_on_c, 0, 65, 48
2, 4320, Note_on_c, 0, 67, 60
2, 4368, Note_on_c, 0, 67, 0
2, 4368, Note_on_c, 0, 55, 62
2, 4386, Note_on_c, 0, 65, 0
2, 4386, Note_on_c, 0, 59, 0
2, 4392, Note_on_c, 0, 55, 0
2, 4392, Note_on_c, 0, 59, 44
2, 4392, Note_on_c, 0, 65, 48
2, 4392, Note_on_c, 0, 67, 66
2, 4440, Note_on_c, 0, 67, 0
2, 4440, Note_on_c, 0, 69, 60
2, 4458, Note_on_c, 0, 65, 0
2, 4458, Note_on_c, 0, 59, 0
2, 4464, Note_on_c, 0, 69, 0
2, 4464, Note_on_c, 0, 60, 52
2, 4464, Note_on_c, 0, 64, 54
2, 4464, Note_on_c, 0, 67, 68
2, 4512, Note_on_c, 0, 67, 0
2, 4512, Note_on_c, 0, 55, 62
2, 4530, Note_on_c, 0, 64, 0
2, 4530, Note_on_c, 0, 60, 0
2, 4536, Note_on_c, 0, 55, 0
2, 4536, Note_on_c, 0, 60, 52
2, 4536, Note_on_c, 0, 64, 54
2, 4536, Note_on_c, 0, 67, 68
2, 4582, Note_on_c, 0, 67, 0
2, 4584, Note_on_c, 0, 76, 80
2, 4600, Note_on_c, 0, 76, 0
2, 4602, Note_on_c, 0, 64, 0
2, 4602, Note_on_c, 0, 60, 0
2, 4608, Note_on_c, 0, 65, 60
2, 4608, Note_on_c, 0, 76, 82
2, 4656, Note_on_c, 0, 76, 0
2, 4656, Note_on_c, 0, 74, 66
2, 4680, Note_on_c, 0, 74, 0
2, 4680, Note_on_c, 0, 72, 60
2, 4728, Note_on_c, 0, 72, 0
2, 4728, Note_on_c, 0, 69, 56
2, 4740, Note_on_c, 0, 65, 0
2, 4752, Note_on_c, 0, 69, 0
2, 4752, Note_on_c, 0, 64, 44
2, 4752, Note_on_c, 0, 67, 54
2, 4818, Note_on_c, 0, 67, 0
2, 4824, Note_on_c, 0, 67, 64
2, 4872, Note_on_c, 0, 67, 0
2, 4872, Note_on_c, 0, 69, 56
2, 4884, Note_on_c, 0, 64, 0
2, 4896, Note_on_c, 0, 69, 0
2, 4896, Note_on_c, 0, 59, 44
2, 4896, Note_on_c, 0, 65, 48
2, 4896, Note_on_c, 0, 67, 62
2, 4944, Note_on_c, 0, 67, 0
2, 4944, Note_on_c, 0, 55, 62
2, 4962, Note_on_c, 0, 65, 0
2, 4962, Note_on_c, 0, 59, 0
2, 4968, Note_on_c, 0, 55, 0
2, 4968, Note_on_c, 0, 59, 44
2, 4968, Note_on_c, 0, 65, 48
2, 4968, Note_on_c, 0, 67, 62
2, 5016, Note_on_c, 0, 67, 0
2, 5016, Note_on_c, 0, 69, 58
2, 5034, Note_on_c, 0, 65, 0
2, 5034, Note_on_c, 0, 59, 0
2, 5040, Note_on_c, 0, 69, 0
2, 5040, Note_on_c, 0, 60, 44
2, 5040, Note_on_c, 0, 64, 48
2, 5040, Note_on_c, 0, 67, 62
2, 5088, Note_on_c, 0, 67, 0
2, 5088, Note_on_c, 0, 55, 62
2, 5106, Note_on_c, 0, 64, 0
2, 5106, Note_on_c, 0, 60, 0
2, 5112, Note_on_c, 0, 55, 0
2, 5112, Note_on_c, 0, 60, 46
2, 5112, Note_on_c, 0, 64, 50
2, 5112, Note_on_c, 0, 67, 62
2, 5158, Note_on_c, 0, 67, 0
2, 5160, Note_on_c, 0, 72, 74
2, 5176, Note_on_c, 0, 72, 0
2, 5178, Note_on_c, 0, 64, 0
2, 5178, Note_on_c, 0, 60, 0
2, 5184, Note_on_c, 0, 60, 44
2, 5184, Note_on_c, 0, 64, 48
2, 5184, Note_on_c, 0, 72, 72
2, 5232, Note_on_c, 0, 72, 0
2, 5232, Note_on_c, 0, 71, 58
2, 5256, Note_on_c, 0, 71, 0
2, 5256, Note_on_c, 0, 69, 55
2, 5292, Note_on_c, 0, 64, 0
2, 5304, Note_on_c, 0, 69, 0
2, 5304, Note_on_c, 0, 64, 56
2, 5316, Note_on_c, 0, 60, 0
2, 5328, Note_on_c, 0, 59, 34
2, 5328, Note_on_c, 0, 68, 40
2, 5328, Note_on_c, 0, 71, 54
2, 5392, Note_on_c, 0, 71, 0
2, 5400, Note_on_c, 0, 71, 54
2, 5416, Note_on_c, 0, 64, 0
2, 5416, Note_on_c, 0, 68, 0
2, 5416, Note_on_c, 0, 59, 0
2, 5448, Note_on_c, 0, 71, 0
2, 5448, Note_on_c, 0, 73, 52
2, 5472, Note_on_c, 0, 73, 0
2, 5472, Note_on_c, 0, 63, 40
2, 5472, Note_on_c, 0, 69, 44
2, 5472, Note_on_c, 0, 71, 54
2, 5520, Note_on_c, 0, 71, 0
2, 5520, Note_on_c, 0, 59, 52
2, 5538, Note_on_c, 0, 69, 0
2, 5538, Note_on_c, 0, 63, 0
2, 5544, Note_on_c, 0, 59, 0
2, 5544, Note_on_c, 0, 63, 40
2, 5544, Note_on_c, 0, 69, 44
2, 5544, Note_on_c, 0, 71, 55
2, 5592, Note_on_c, 0, 71, 0
2, 5592, Note_on_c, 0, 73, 56
2, 5610, Note_on_c, 0, 69, 0
2, 5610, Note_on_c, 0, 63, 0
2, 5616, Note_on_c, 0, 73, 0
2, 5616, Note_on_c, 0, 64, 42
2, 5616, Note_on_c, 0, 68, 46
2, 5616, Note_on_c, 0, 71, 56
2, 5664, Note_on_c, 0, 71, 0
2, 5664, Note_on_c, 0, 59, 54
2, 5682, Note_on_c, 0, 68, 0
2, 5682, Note_on_c, 0, 64, 0
2, 5688, Note_on_c, 0, 59, 0
2, 5688, Note_on_c, 0, 64, 44
2, 5688, Note_on_c, 0, 68, 48
2, 5688, Note_on_c, 0, 71, 60
2, 5734, Note_on_c, 0, 71, 0
2, 5736, Note_on_c, 0, 80, 72
2, 5752, Note_on_c, 0, 80, 0
2, 5754, Note_on_c, 0, 68, 0
2, 5754, Note_on_c, 0, 64, 0
2, 5760, Note_on_c, 0, 69, 50
2, 5760, Note_on_c, 0, 80, 62
2, 5808, Note_on_c, 0, 80, 0
2, 5808, Note_on_c, 0, 78, 57
2, 5832, Note_on_c, 0, 78, 0
2, 5832, Note_on_c, 0, 76, 58
2, 5880, Note_on_c, 0, 76, 0
2, 5880, Note_on_c, 0, 73, 52
2, 5892, Note_on_c, 0, 69, 0
2, 5904, Note_on_c, 0, 73, 0
2, 5904, Note_on_c, 0, 68, 40
2, 5904, Note_on_c, 0, 71, 50
2, 5970, Note_on_c, 0, 71, 0
2, 5976, Note_on_c, 0, 71, 56
2, 6024, Note_on_c, 0, 71, 0
2, 6024, Note_on_c, 0, 73, 54
2, 6036, Note_on_c, 0, 68, 0
2, 6048, Note_on_c, 0, 73, 0
2, 6048, Note_on_c, 0, 63, 44
2, 6048, Note_on_c, 0, 69, 48
2, 6048, Note_on_c, 0, 71, 60
2, 6096, Note_on_c, 0, 71, 0
2, 6096, Note_on_c, 0, 59, 56
2, 6114, Note_on_c, 0, 69, 0
2, 6114, Note_on_c, 0, 63, 0
2, 6120, Note_on_c, 0, 59, 0
2, 6120, Note_on_c, 0, 63, 44
2, 6120, Note_on_c, 0, 69, 48
2, 6120, Note_on_c, 0, 71, 60
2, 6168, Note_on_c, 0, 71, 0
2, 6168, Note_on_c, 0, 73, 62
2, 6186, Note_on_c, 0, 69, 0
2, 6186, Note_on_c, 0, 63, 0
2, 6192, Note_on_c, 0, 73, 0
2, 6192, Note_on_c, 0, 64, 44
2, 6192, Note_on_c, 0, 68, 48
2, 6192, Note_on_c, 0, 71, 62
2, 6240, Note_on_c, 0, 71, 0
2, 6240, Note_on_c, 0, 59, 60
2, 6258, Note_on_c, 0, 68, 0
2, 6258, Note_on_c, 0, 64, 0
2, 6264, Note_on_c, 0, 59, 0
2, 6264, Note_on_c, 0, 64, 50
2, 6264, Note_on_c, 0, 68, 54
2, 6264, Note_on_c, 0, 71, 68
2, 6310, Note_on_c, 0, 71, 0
2, 6312, Note_on_c, 0, 73, 72
2, 6330, Note_on_c, 0, 68, 0
2, 6330, Note_on_c, 0, 64, 0
2, 6336, Note_on_c, 0, 73, 0
2, 6336, Note_on_c, 0, 69, 54
2, 6336, Note_on_c, 0, 74, 66
2, 6384, Note_on_c, 0, 74, 0
2, 6384, Note_on_c, 0, 62, 52
2, 6390, Note_on_c, 0, 62, 0
2, 6396, Note_on_c, 0, 69, 0
2, 6396, Note_on_c, 0, 62, 52
2, 6402, Note_on_c, 0, 69, 56
2, 6408, Note_on_c, 0, 74, 62
2, 6448, Note_on_c, 0, 74, 0
2, 6448, Note_on_c, 0, 62, 0
2, 6456, Note_on_c, 0, 61, 48
2, 6456, Note_on_c, 0, 73, 56
2, 6472, Note_on_c, 0, 73, 0
2, 6472, Note_on_c, 0, 61, 0
2, 6472, Note_on_c, 0, 69, 0
2, 6480, Note_on_c, 0, 61, 40
2, 6480, Note_on_c, 0, 68, 44
2, 6480, Note_on_c, 0, 73, 52
2, 6546, Note_on_c, 0, 73, 0
2, 6546, Note_on_c, 0, 61, 0
2, 6552, Note_on_c, 0, 73, 50
2, 6600, Note_on_c, 0, 73, 0
2, 6600, Note_on_c, 0, 74, 52
2, 6612, Note_on_c, 0, 68, 0
2, 6616, Note_on_c, 0, 74, 0
2, 6624, Note_on_c, 0, 69, 40
2, 6624, Note_on_c, 0, 74, 52
2, 6672, Note_on_c, 0, 74, 0
2, 6672, Note_on_c, 0, 73, 50
2, 6688, Note_on_c, 0, 73, 0
2, 6696, Note_on_c, 0, 73, 56
2, 6744, Note_on_c, 0, 73, 0
2, 6744, Note_on_c, 0, 78, 54
2, 6756, Note_on_c, 0, 69, 0
2, 6760, Note_on_c, 0, 78, 0
2, 6768, Note_on_c, 0, 71, 38
2, 6768, Note_on_c, 0, 73, 42
2, 6768, Note_on_c, 0, 78, 54
2, 6816, Note_on_c, 0, 78, 0
2, 6816, Note_on_c, 0, 77, 46
2, 6832, Note_on_c, 0, 77, 0
2, 6840, Note_on_c, 0, 77, 54
2, 6888, Note_on_c, 0, 77, 0
2, 6888, Note_on_c, 0, 74, 52
2, 6900, Note_on_c, 0, 73, 0
2, 6900, Note_on_c, 0, 71, 0
2, 6904, Note_on_c, 0, 74, 0
2, 6912, Note_on_c, 0, 69, 44
2, 6912, Note_on_c, 0, 74, 56
2, 6960, Note_on_c, 0, 74, 0
2, 6960, Note_on_c, 0, 73, 54
2, 6976, Note_on_c, 0, 73, 0
2, 6984, Note_on_c, 0, 73, 61
2, 7032, Note_on_c, 0, 73, 0
2, 7032, Note_on_c, 0, 74, 62
2, 7044, Note_on_c, 0, 69, 0
2, 7054, Note_on_c, 0, 74, 0
2, 7056, Note_on_c, 0, 63, 48
2, 7056, Note_on_c, 0, 70, 40
2, 7056, Note_on_c, 0, 73, 50
2, 7056, Note_on_c, 0, 75, 64
2, 7122, Note_on_c, 0, 75, 0
2, 7122, Note_on_c, 0, 63, 0
2, 7128, Note_on_c, 0, 75, 68
2, 7176, Note_on_c, 0, 75, 0
2, 7176, Note_on_c, 0, 76, 66
2, 7188, Note_on_c, 0, 73, 0
2, 7188, Note_on_c, 0, 70, 0
2, 7192, Note_on_c, 0, 76, 0
2, 7200, Note_on_c, 0, 64, 50
2, 7200, Note_on_c, 0, 71, 56
2, 7200, Note_on_c, 0, 76, 70
2, 7240, Note_on_c, 0, 64, 0
2, 7248, Note_on_c, 0, 76, 0
2, 7248, Note_on_c, 0, 75, 70
2, 7264, Note_on_c, 0, 75, 0
2, 7272, Note_on_c, 0, 75, 71
2, 7320, Note_on_c, 0, 75, 0
2, 7320, Note_on_c, 0, 80, 76
2, 7332, Note_on_c, 0, 71, 0
2, 7336, Note_on_c, 0, 80, 0
2, 7344, Note_on_c, 0, 73, 60
2, 7344, Note_on_c, 0, 80, 76
2, 7392, Note_on_c, 0, 80, 0
2, 7392, Note_on_c, 0, 79, 66
2, 7408, Note_on_c, 0, 79, 0
2, 7416, Note_on_c, 0, 79, 64
2, 7464, Note_on_c, 0, 79, 0
2, 7464, Note_on_c, 0, 78, 56
2, 7480, Note_on_c, 0, 78, 0
2, 7488, Note_on_c, 0, 78, 54
2, 7536, Note_on_c, 0, 78, 0
2, 7536, Note_on_c, 0, 77, 50
2, 7552, Note_on_c, 0, 77, 0
2, 7560, Note_on_c, 0, 77, 49
2, 7608, Note_on_c, 0, 77, 0
2, 7608, Note_on_c, 0, 76, 44
2, 7620, Note_on_c, 0, 73, 0
2, 7632, Note_on_c, 0, 76, 0
2, 7632, Note_on_c, 0, 72, 36
2, 7632, Note_on_c, 0, 77, 46
2, 7698, Note_on_c, 0, 77, 0
2, 7698, Note_on_c, 0, 72, 0
2, 7704, Note_on_c, 0, 65, 52
2, 7752, Note_on_c, 0, 65, 0
2, 7752, Note_on_c, 0, 67, 54
2, 7776, Note_on_c, 0, 67, 0
2, 7776, Note_on_c, 0, 57, 40
2, 7776, Note_on_c, 0, 63, 44
2, 7776, Note_on_c, 0, 65, 56
2, 7824, Note_on_c, 0, 65, 0
2, 7824, Note_on_c, 0, 53, 56
2, 7842, Note_on_c, 0, 63, 0
2, 7842, Note_on_c, 0, 57, 0
2, 7848, Note_on_c, 0, 53, 0
2, 7848, Note_on_c, 0, 57, 40
2, 7848, Note_on_c, 0, 63, 44
2, 7848, Note_on_c, 0, 65, 62
2, 7896, Note_on_c, 0, 65, 0
2, 7896, Note_on_c, 0, 67, 54
2, 7914, Note_on_c, 0, 63, 0
2, 7914, Note_on_c, 0, 57, 0
2, 7920, Note_on_c, 0, 67, 0
2, 7920, Note_on_c, 0, 58, 46
2, 7920, Note_on_c, 0, 62, 48
2, 7920, Note_on_c, 0, 65, 62
2, 7968, Note_on_c, 0, 65, 0
2, 7968, Note_on_c, 0, 53, 56
2, 7986, Note_on_c, 0, 62, 0
2, 7986, Note_on_c, 0, 58, 0
2, 7992, Note_on_c, 0, 53, 0
2, 7992, Note_on_c, 0, 58, 46
2, 7992, Note_on_c, 0, 62, 48
2, 7992, Note_on_c, 0, 65, 62
2, 8038, Note_on_c, 0, 65, 0
2, 8040, Note_on_c, 0, 74, 68
2, 8056, Note_on_c, 0, 74, 0
2, 8058, Note_on_c, 0, 62, 0
2, 8058, Note_on_c, 0, 58, 0
2, 8064, Note_on_c, 0, 63, 52
2, 8064, Note_on_c, 0, 74, 70
2, 8112, Note_on_c, 0, 74, 0
2, 8112, Note_on_c, 0, 72, 60
2, 8136, Note_on_c, 0, 72, 0
2, 8136, Note_on_c, 0, 70, 54
2, 8184, Note_on_c, 0, 70, 0
2, 8184, Note_on_c, 0, 67, 52
2, 8196, Note_on_c, 0, 63, 0
2, 8208, Note_on_c, 0, 67, 0
2, 8208, Note_on_c, 0, 62, 40
2, 8208, Note_on_c, 0, 65, 50
2, 8274, Note_on_c, 0, 65, 0
2, 8280, Note_on_c, 0, 65, 58
2, 8328, Note_on_c, 0, 65, 0
2, 8328, Note_on_c, 0, 67, 54
2, 8340, Note_on_c, 0, 62, 0
2, 8352, Note_on_c, 0, 67, 0
2, 8352, Note_on_c, 0, 57, 42
2, 8352, Note_on_c, 0, 63, 46
2, 8352, Note_on_c, 0, 65, 60
2, 8400, Note_on_c, 0, 65, 0
2, 8400, Note_on_c, 0, 53, 60
2, 8418, Note_on_c, 0, 63, 0
2, 8418, Note_on_c, 0, 57, 0
2, 8424, Note_on_c, 0, 53, 0
2, 8424, Note_on_c, 0, 57, 46
2, 8424, Note_on_c, 0, 63, 50
2, 8424, Note_on_c, 0, 65, 64
2, 8472, Note_on_c, 0, 65, 0
2, 8472, Note_on_c, 0, 67, 60
2, 8490, Note_on_c, 0, 63, 0
2, 8490, Note_on_c, 0, 57, 0
2, 8496, Note_on_c, 0, 67, 0
2, 8496, Note_on_c, 0, 58, 46
2, 8496, Note_on_c, 0, 62, 50
2, 8496, Note_on_c, 0, 65, 64
2, 8544, Note_on_c, 0, 65, 0
2, 8544, Note_on_c, 0, 53, 64
2, 8562, Note_on_c, 0, 62, 0
2, 8562, Note_on_c, 0, 58, 0
2, 8568, Note_on_c, 0, 53, 0
2, 8568, Note_on_c, 0, 58, 48
2, 8568, Note_on_c, 0, 62, 52
2, 8568, Note_on_c, 0, 65, 64
2, 8614, Note_on_c, 0, 65, 0
2, 8616, Note_on_c, 0, 70, 72
2, 8632, Note_on_c, 0, 70, 0
2, 8634, Note_on_c, 0, 62, 0
2, 8634, Note_on_c, 0, 58, 0
2, 8640, Note_on_c, 0, 58, 46
2, 8640, Note_on_c, 0, 62, 50
2, 8640, Note_on_c, 0, 70, 70
2, 8688, Note_on_c, 0, 70, 0
2, 8688, Note_on_c, 0, 69, 60
2, 8712, Note_on_c, 0, 69, 0
2, 8712, Note_on_c, 0, 67, 57
2, 8752, Note_on_c, 0, 62, 0
2, 8760, Note_on_c, 0, 67, 0
2, 8760, Note_on_c, 0, 62, 54
2, 8772, Note_on_c, 0, 58, 0
2, 8784, Note_on_c, 0, 57, 42
2, 8784, Note_on_c, 0, 66, 46
2, 8784, Note_on_c, 0, 69, 56
2, 8854, Note_on_c, 0, 69, 0
2, 8856, Note_on_c, 0, 69, 60
2, 8904, Note_on_c, 0, 69, 0
2, 8904, Note_on_c, 0, 71, 58
2, 8916, Note_on_c, 0, 66, 0
2, 8916, Note_on_c, 0, 62, 0
2, 8916, Note_on_c, 0, 57, 0
2, 8928, Note_on_c, 0, 71, 0
2, 8928, Note_on_c, 0, 61, 42
2, 8928, Note_on_c, 0, 67, 46
2, 8928, Note_on_c, 0, 69, 60
2, 8976, Note_on_c, 0, 69, 0
2, 8976, Note_on_c, 0, 57, 58
2, 8994, Note_on_c, 0, 67, 0
2, 8994, Note_on_c, 0, 61, 0
2, 9000, Note_on_c, 0, 57, 0
2, 9000, Note_on_c, 0, 61, 42
2, 9000, Note_on_c, 0, 67, 46
2, 9000, Note_on_c, 0, 69, 61
2, 9048, Note_on_c, 0, 69, 0
2, 9048, Note_on_c, 0, 71, 62
2, 9066, Note_on_c, 0, 67, 0
2, 9066, Note_on_c, 0, 61, 0
2, 9072, Note_on_c, 0, 71, 0
2, 9072, Note_on_c, 0, 62, 42
2, 9072, Note_on_c, 0, 66, 46
2, 9072, Note_on_c, 0, 69, 62
2, 9120, Note_on_c, 0, 69, 0
2, 9120, Note_on_c, 0, 57, 60
2, 9138, Note_on_c, 0, 66, 0
2, 9138, Note_on_c, 0, 62, 0
2, 9144, Note_on_c, 0, 57, 0
2, 9144, Note_on_c, 0, 62, 44
2, 9144, Note_on_c, 0, 66, 48
2, 9144, Note_on_c, 0, 69, 66
2, 9190, Note_on_c, 0, 69, 0
2, 9192, Note_on_c, 0, 78, 70
2, 9208, Note_on_c, 0, 78, 0
2, 9210, Note_on_c, 0, 66, 0
2, 9210, Note_on_c, 0, 62, 0
2, 9216, Note_on_c, 0, 67, 54
2, 9216, Note_on_c, 0, 78, 70
2, 9264, Note_on_c, 0, 78, 0
2, 9264, Note_on_c, 0, 76, 63
2, 9288, Note_on_c, 0, 76, 0
2, 9288, Note_on_c, 0, 74, 59
2, 9336, Note_on_c, 0, 74, 0
2, 9336, Note_on_c, 0, 71, 56
2, 9348, Note_on_c, 0, 67, 0
2, 9360, Note_on_c, 0, 71, 0
2, 9360, Note_on_c, 0, 66, 44
2, 9360, Note_on_c, 0, 69, 54
2, 9426, Note_on_c, 0, 69, 0
2, 9432, Note_on_c, 0, 69, 58
2, 9480, Note_on_c, 0, 69, 0
2, 9480, Note_on_c, 0, 71, 56
2, 9492, Note_on_c, 0, 66, 0
2, 9504, Note_on_c, 0, 71, 0
2, 9504, Note_on_c, 0, 61, 44
2, 9504, Note_on_c, 0, 67, 48
2, 9504, Note_on_c, 0, 69, 62
2, 9552, Note_on_c, 0, 69, 0
2, 9552, Note_on_c, 0, 57, 58
2, 9570, Note_on_c, 0, 67, 0
2, 9570, Note_on_c, 0, 61, 0
2, 9576, Note_on_c, 0, 57, 0
2, 9576, Note_on_c, 0, 61, 44
2, 9576, Note_on_c, 0, 67, 48
2, 9576, Note_on_c, 0, 69, 62
2, 9624, Note_on_c, 0, 69, 0
2, 9624, Note_on_c, 0, 71, 64
2, 9642, Note_on_c, 0, 67, 0
2, 9642, Note_on_c, 0, 61, 0
2, 9648, Note_on_c, 0, 71, 0
2, 9648, Note_on_c, 0, 62, 44
2, 9648, Note_on_c, 0, 66, 48
2, 9648, Note_on_c, 0, 69, 64
2, 9696, Note_on_c, 0, 69, 0
2, 9696, Note_on_c, 0, 57, 62
2, 9714, Note_on_c, 0, 66, 0
2, 9714, Note_on_c, 0, 62, 0
2, 9720, Note_on_c, 0, 57, 0
2, 9720, Note_on_c, 0, 62, 48
2, 9720, Note_on_c, 0, 66, 52
2, 9720, Note_on_c, 0, 69, 68
2, 9768, Note_on_c, 0, 69, 0
2, 9768, Note_on_c, 0, 71, 70
2, 9786, Note_on_c, 0, 66, 0
2, 9786, Note_on_c, 0, 62, 0
2, 9792, Note_on_c, 0, 71, 0
2, 9792, Note_on_c, 0, 67, 60
2, 9792, Note_on_c, 0, 72, 74
2, 9840, Note_on_c, 0, 72, 0
2, 9840, Note_on_c, 0, 60, 54
2, 9846, Note_on_c, 0, 60, 0
2, 9852, Note_on_c, 0, 67, 0
2, 9852, Note_on_c, 0, 60, 52
2, 9858, Note_on_c, 0, 67, 58
2, 9864, Note_on_c, 0, 72, 68
2, 9904, Note_on_c, 0, 72, 0
2, 9904, Note_on_c, 0, 60, 0
2, 9912, Note_on_c, 0, 59, 52
2, 9912, Note_on_c, 0, 71, 62
2, 9928, Note_on_c, 0, 71, 0
2, 9928, Note_on_c, 0, 59, 0
2, 9928, Note_on_c, 0, 67, 0
2, 9936, Note_on_c, 0, 59, 50
2, 9936, Note_on_c, 0, 67, 54
2, 9936, Note_on_c, 0, 71, 64
2, 10002, Note_on_c, 0, 71, 0
2, 10002, Note_on_c, 0, 67, 0
2, 10002, Note_on_c, 0, 59, 0
2, 10008, Note_on_c, 0, 66, 54
2, 10008, Note_on_c, 0, 69, 56
2, 10032, Note_on_c, 0, 69, 0
2, 10032, Note_on_c, 0, 66, 0
2, 10032, Note_on_c, 0, 67, 54
2, 10032, Note_on_c, 0, 71, 58
2, 10044, Note_on_c, 0, 71, 0
2, 10044, Note_on_c, 0, 67, 0
2, 10044, Note_on_c, 0, 67, 58
2, 10044, Note_on_c, 0, 72, 60
2, 10056, Note_on_c, 0, 72, 0
2, 10056, Note_on_c, 0, 67, 0
2, 10056, Note_on_c, 0, 70, 60
2, 10056, Note_on_c, 0, 73, 62
2, 10068, Note_on_c, 0, 73, 0
2, 10068, Note_on_c, 0, 70, 0
2, 10068, Note_on_c, 0, 72, 62
2, 10068, Note_on_c, 0, 76, 64
2, 10080, Note_on_c, 0, 76, 0
2, 10080, Note_on_c, 0, 72, 0
2, 10080, Note_on_c, 0, 71, 58
2, 10080, Note_on_c, 0, 74, 62
2, 10126, Note_on_c, 0, 74, 0
2, 10126, Note_on_c, 0, 71, 0
2, 10152, Note_on_c, 0, 66, 58
2, 10152, Note_on_c, 0, 69, 60
2, 10176, Note_on_c, 0, 69, 0
2, 10176, Note_on_c, 0, 66, 0
2, 10176, Note_on_c, 0, 67, 58
2, 10176, Note_on_c, 0, 71, 60
2, 10188, Note_on_c, 0, 71, 0
2, 10188, Note_on_c, 0, 67, 0
2, 10188, Note_on_c, 0, 67, 60
2, 10188, Note_on_c, 0, 72, 62
2, 10200, Note_on_c, 0, 72, 0
2, 10200, Note_on_c, 0, 67, 0
2, 10200, Note_on_c, 0, 70, 62
2, 10200, Note_on_c, 0, 73, 64
2, 10212, Note_on_c, 0, 73, 0
2, 10212, Note_on_c, 0, 70, 0
2, 10212, Note_on_c, 0, 72, 60
2, 10212, Note_on_c, 0, 76, 62
2, 10224, Note_on_c, 0, 76, 0
2, 10224, Note_on_c, 0, 72, 0
2, 10224, Note_on_c, 0, 71, 58
2, 10224, Note_on_c, 0, 74, 60
2, 10234, Note_on_c, 0, 74, 0
2, 10234, Note_on_c, 0, 71, 0
2, 10236, Note_on_c, 0, 76, 68
2, 10236, Note_on_c, 0, 84, 72
2, 10246, Note_on_c, 0, 84, 0
2, 10248, Note_on_c, 0, 76, 0
2, 10248, Note_on_c, 0, 74, 66
2, 10248, Note_on_c, 0, 83, 70
2, 10260, Note_on_c, 0, 83, 0
2, 10260, Note_on_c, 0, 74, 0
2, 10260, Note_on_c, 0, 72, 62
2, 10260, Note_on_c, 0, 78, 66
2, 10272, Note_on_c, 0, 78, 0
2, 10272, Note_on_c, 0, 72, 0
2, 10272, Note_on_c, 0, 71, 64
2, 10272, Note_on_c, 0, 79, 68
2, 10284, Note_on_c, 0, 79, 0
2, 10284, Note_on_c, 0, 71, 0
2, 10284, Note_on_c, 0, 72, 62
2, 10284, Note_on_c, 0, 76, 64
2, 10296, Note_on_c, 0, 76, 0
2, 10296, Note_on_c, 0, 72, 0
2, 10296, Note_on_c, 0, 71, 60
2, 10296, Note_on_c, 0, 74, 62
2, 10308, Note_on_c, 0, 74, 0
2, 10308, Note_on_c, 0, 71, 0
2, 10308, Note_on_c, 0, 69, 64
2, 10308, Note_on_c, 0, 77, 66
2, 10318, Note_on_c, 0, 77, 0
2, 10320, Note_on_c, 0, 69, 0
2, 10320, Note_on_c, 0, 68, 62
2, 10320, Note_on_c, 0, 76, 64
2, 10332, Note_on_c, 0, 76, 0
2, 10332, Note_on_c, 0, 68, 0
2, 10332, Note_on_c, 0, 65, 56
2, 10332, Note_on_c, 0, 69, 58
2, 10344, Note_on_c, 0, 69, 0
2, 10344, Note_on_c, 0, 65, 0
2, 10344, Note_on_c, 0, 64, 55
2, 10344, Note_on_c, 0, 71, 59
2, 10356, Note_on_c, 0, 71, 0
2, 10356, Note_on_c, 0, 64, 0
2, 10356, Note_on_c, 0, 62, 54
2, 10356, Note_on_c, 0, 72, 58
2, 10366, Note_on_c, 0, 62, 0
2, 10368, Note_on_c, 0, 72, 0
2, 10368, Note_on_c, 0, 60, 52
2, 10368, Note_on_c, 0, 64, 54
2, 10414, Note_on_c, 0, 64, 0
2, 10414, Note_on_c, 0, 60, 0
2, 10440, Note_on_c, 0, 69, 58
2, 10440, Note_on_c, 0, 72, 64
2, 10464, Note_on_c, 0, 72, 0
2, 10464, Note_on_c, 0, 69, 0
2, 10464, Note_on_c, 0, 68, 58
2, 10464, Note_on_c, 0, 71, 60
2, 10476, Note_on_c, 0, 71, 0
2, 10476, Note_on_c, 0, 68, 0
2, 10476, Note_on_c, 0, 69, 60
2, 10476, Note_on_c, 0, 72, 62
2, 10488, Note_on_c, 0, 72, 0
2, 10488, Note_on_c, 0, 69, 0
2, 10488, Note_on_c, 0, 71, 62
2, 10488, Note_on_c, 0, 74, 64
2, 10500, Note_on_c, 0, 74, 0
2, 10500, Note_on_c, 0, 71, 0
2, 10500, Note_on_c, 0, 68, 60
2, 10500, Note_on_c, 0, 77, 66
2, 10512, Note_on_c, 0, 77, 0
2, 10512, Note_on_c, 0, 68, 0
2, 10512, Note_on_c, 0, 72, 56
2, 10512, Note_on_c, 0, 76, 58
2, 10558, Note_on_c, 0, 76, 0
2, 10558, Note_on_c, 0, 72, 0
2, 10584, Note_on_c, 0, 69, 58
2, 10584, Note_on_c, 0, 72, 64
2, 10608, Note_on_c, 0, 72, 0
2, 10608, Note_on_c, 0, 69, 0
2, 10608, Note_on_c, 0, 68, 58
2, 10608, Note_on_c, 0, 71, 60
2, 10620, Note_on_c, 0, 71, 0
2, 10620, Note_on_c, 0, 68, 0
2, 10620, Note_on_c, 0, 69, 58
2, 10620, Note_on_c, 0, 72, 60
2, 10632, Note_on_c, 0, 72, 0
2, 10632, Note_on_c, 0, 69, 0
2, 10632, Note_on_c, 0, 71, 57
2, 10632, Note_on_c, 0, 74, 59
2, 10644, Note_on_c, 0, 74, 0
2, 10644, Note_on_c, 0, 71, 0
2, 10644, Note_on_c, 0, 68, 52
2, 10644, Note_on_c, 0, 77, 58
2, 10656, Note_on_c, 0, 77, 0
2, 10656, Note_on_c, 0, 68, 0
2, 10656, Note_on_c, 0, 72, 50
2, 10656, Note_on_c, 0, 76, 52
2, 10666, Note_on_c, 0, 76, 0
2, 10666, Note_on_c, 0, 72, 0
2, 10668, Note_on_c, 0, 76, 64
2, 10668, Note_on_c, 0, 84, 68
2, 10680, Note_on_c, 0, 84, 0
2, 10680, Note_on_c, 0, 76, 0
2, 10680, Note_on_c, 0, 74, 62
2, 10680, Note_on_c, 0, 83, 66
2, 10690, Note_on_c, 0, 74, 0
2, 10692, Note_on_c, 0, 83, 0
2, 10692, Note_on_c, 0, 71, 60
2, 10692, Note_on_c, 0, 80, 64
2, 10704, Note_on_c, 0, 80, 0
2, 10704, Note_on_c, 0, 71, 0
2, 10704, Note_on_c, 0, 72, 62
2, 10704, Note_on_c, 0, 81, 66
2, 10716, Note_on_c, 0, 81, 0
2, 10716, Note_on_c, 0, 72, 0
2, 10716, Note_on_c, 0, 74, 60
2, 10716, Note_on_c, 0, 77, 62
2, 10728, Note_on_c, 0, 77, 0
2, 10728, Note_on_c, 0, 74, 0
2, 10728, Note_on_c, 0, 72, 58
2, 10728, Note_on_c, 0, 76, 60
2, 10740, Note_on_c, 0, 76, 0
2, 10740, Note_on_c, 0, 72, 0
2, 10740, Note_on_c, 0, 71, 60
2, 10740, Note_on_c, 0, 79, 64
2, 10750, Note_on_c, 0, 79, 0
2, 10752, Note_on_c, 0, 71, 0
2, 10752, Note_on_c, 0, 69, 58
2, 10752, Note_on_c, 0, 78, 62
2, 10764, Note_on_c, 0, 78, 0
2, 10764, Note_on_c, 0, 69, 0
2, 10764, Note_on_c, 0, 67, 54
2, 10764, Note_on_c, 0, 71, 56
2, 10776, Note_on_c, 0, 71, 0
2, 10776, Note_on_c, 0, 67, 0
2, 10776, Note_on_c, 0, 66, 53
2, 10776, Note_on_c, 0, 72, 57
2, 10788, Note_on_c, 0, 72, 0
2, 10788, Note_on_c, 0, 66, 0
2, 10788, Note_on_c, 0, 62, 52
2, 10788, Note_on_c, 0, 74, 56
2, 10800, Note_on_c, 0, 74, 0
2, 10800, Note_on_c, 0, 62, 0
2, 10800, Note_on_c, 0, 67, 50
2, 10800, Note_on_c, 0, 71, 54
2, 10870, Note_on_c, 0, 71, 0
2, 10870, Note_on_c, 0, 67, 0
2, 10888, Note_on_c, 0, 67, 52
2, 10892, Note_on_c, 0, 67, 0
2, 10892, Note_on_c, 0, 69, 54
2, 10896, Note_on_c, 0, 69, 0
2, 10896, Note_on_c, 0, 64, 52
2, 10896, Note_on_c, 0, 67, 54
2, 10908, Note_on_c, 0, 67, 0
2, 10908, Note_on_c, 0, 66, 54
2, 10920, Note_on_c, 0, 66, 0
2, 10920, Note_on_c, 0, 64, 0
2, 10920, Note_on_c, 0, 63, 52
2, 10920, Note_on_c, 0, 67, 56
2, 10932, Note_on_c, 0, 67, 0
2, 10932, Note_on_c, 0, 63, 0
2, 10932, Note_on_c, 0, 65, 51
2, 10932, Note_on_c, 0, 69, 53
2, 10944, Note_on_c, 0, 69, 0
2, 10944, Note_on_c, 0, 65, 0
2, 10944, Note_on_c, 0, 62, 48
2, 10944, Note_on_c, 0, 70, 54
2, 10990, Note_on_c, 0, 70, 0
2, 10990, Note_on_c, 0, 62, 0
2, 11032, Note_on_c, 0, 70, 52
2, 11036, Note_on_c, 0, 70, 0
2, 11036, Note_on_c, 0, 72, 54
2, 11040, Note_on_c, 0, 72, 0
2, 11040, Note_on_c, 0, 67, 52
2, 11040, Note_on_c, 0, 70, 54
2, 11052, Note_on_c, 0, 70, 0
2, 11052, Note_on_c, 0, 69, 54
2, 11064, Note_on_c, 0, 69, 0
2, 11064, Note_on_c, 0, 67, 0
2, 11064, Note_on_c, 0, 66, 52
2, 11064, Note_on_c, 0, 70, 56
2, 11076, Note_on_c, 0, 70, 0
2, 11076, Note_on_c, 0, 66, 0
2, 11076, Note_on_c, 0, 68, 51
2, 11076, Note_on_c, 0, 72, 53
2, 11088, Note_on_c, 0, 72, 0
2, 11088, Note_on_c, 0, 68, 0
2, 11088, Note_on_c, 0, 65, 52
2, 11088, Note_on_c, 0, 73, 58
2, 11098, Note_on_c, 0, 73, 0
2, 11098, Note_on_c, 0, 65, 0
2, 11100, Note_on_c, 0, 82, 60
2, 11100, Note_on_c, 0, 90, 64
2, 11110, Note_on_c, 0, 90, 0
2, 11112, Note_on_c, 0, 82, 0
2, 11112, Note_on_c, 0, 80, 60
2, 11112, Note_on_c, 0, 89, 62
2, 11124, Note_on_c, 0, 89, 0
2, 11124, Note_on_c, 0, 80, 0
2, 11124, Note_on_c, 0, 78, 56
2, 11124, Note_on_c, 0, 84, 60
2, 11134, Note_on_c, 0, 78, 0
2, 11136, Note_on_c, 0, 84, 0
2, 11136, Note_on_c, 0, 77, 58
2, 11136, Note_on_c, 0, 85, 62
2, 11148, Note_on_c, 0, 85, 0
2, 11148, Note_on_c, 0, 77, 0
2, 11148, Note_on_c, 0, 78, 56
2, 11148, Note_on_c, 0, 82, 58
2, 11160, Note_on_c, 0, 82, 0
2, 11160, Note_on_c, 0, 78, 0
2, 11160, Note_on_c, 0, 77, 54
2, 11160, Note_on_c, 0, 80, 56
2, 11170, Note_on_c, 0, 77, 0
2, 11172, Note_on_c, 0, 80, 0
2, 11172, Note_on_c, 0, 75, 56
2, 11172, Note_on_c, 0, 83, 60
2, 11182, Note_on_c, 0, 83, 0
2, 11184, Note_on_c, 0, 75, 0
2, 11184, Note_on_c, 0, 74, 54
2, 11184, Note_on_c, 0, 82, 58
2, 11196, Note_on_c, 0, 82, 0
2, 11196, Note_on_c, 0, 74, 0
2, 11196, Note_on_c, 0, 71, 50
2, 11196, Note_on_c, 0, 75, 52
2, 11208, Note_on_c, 0, 75, 0
2, 11208, Note_on_c, 0, 71, 0
2, 11208, Note_on_c, 0, 70, 49
2, 11208, Note_on_c, 0, 77, 53
2, 11220, Note_on_c, 0, 77, 0
2, 11220, Note_on_c, 0, 70, 0
2, 11220, Note_on_c, 0, 68, 48
2, 11220, Note_on_c, 0, 78, 52
2, 11230, Note_on_c, 0, 68, 0
2, 11232, Note_on_c, 0, 78, 0
2, 11232, Note_on_c, 0, 66, 46
2, 11232, Note_on_c, 0, 70, 50
2, 11302, Note_on_c, 0, 70, 0
2, 11302, Note_on_c, 0, 66, 0
2, 11320, Note_on_c, 0, 75, 58
2, 11324, Note_on_c, 0, 75, 0
2, 11324, Note_on_c, 0, 77, 60
2, 11328, Note_on_c, 0, 77, 0
2, 11328, Note_on_c, 0, 72, 58
2, 11328, Note_on_c, 0, 75, 60
2, 11340, Note_on_c, 0, 75, 0
2, 11340, Note_on_c, 0, 74, 60
2, 11352, Note_on_c, 0, 74, 0
2, 11352, Note_on_c, 0, 72, 0
2, 11352, Note_on_c, 0, 71, 58
2, 11352, Note_on_c, 0, 75, 62
2, 11364, Note_on_c, 0, 75, 0
2, 11364, Note_on_c, 0, 71, 0
2, 11364, Note_on_c, 0, 73, 57
2, 11364, Note_on_c, 0, 77, 59
2, 11376, Note_on_c, 0, 77, 0
2, 11376, Note_on_c, 0, 73, 0
2, 11376, Note_on_c, 0, 70, 54
2, 11376, Note_on_c, 0, 78, 60
2, 11422, Note_on_c, 0, 78, 0
2, 11422, Note_on_c, 0, 70, 0
2, 11464, Note_on_c, 0, 78, 54
2, 11468, Note_on_c, 0, 78, 0
2, 11468, Note_on_c, 0, 80, 56
2, 11472, Note_on_c, 0, 80, 0
2, 11472, Note_on_c, 0, 75, 54
2, 11472, Note_on_c, 0, 78, 56
2, 11484, Note_on_c, 0, 78, 0
2, 11484, Note_on_c, 0, 77, 56
2, 11496, Note_on_c, 0, 77, 0
2, 11496, Note_on_c, 0, 75, 0
2, 11496, Note_on_c, 0, 74, 54
2, 11496, Note_on_c, 0, 78, 58
2, 11508, Note_on_c, 0, 78, 0
2, 11508, Note_on_c, 0, 74, 0
2, 11508, Note_on_c, 0, 76, 53
2, 11508, Note_on_c, 0, 80, 55
2, 11520, Note_on_c, 0, 80, 0
2, 11520, Note_on_c, 0, 76, 0
2, 11520, Note_on_c, 0, 73, 48
2, 11520, Note_on_c, 0, 81, 56
2, 11530, Note_on_c, 0, 81, 0
2, 11530, Note_on_c, 0, 73, 0
2, 11532, Note_on_c, 0, 90, 62
2, 11532, Note_on_c, 0, 98, 66
2, 11542, Note_on_c, 0, 98, 0
2, 11544, Note_on_c, 0, 90, 0
2, 11544, Note_on_c, 0, 88, 62
2, 11544, Note_on_c, 0, 97, 64
2, 11556, Note_on_c, 0, 97, 0
2, 11556, Note_on_c, 0, 88, 0
2, 11556, Note_on_c, 0, 86, 58
2, 11556, Note_on_c, 0, 92, 62
2, 11566, Note_on_c, 0, 86, 0
2, 11568, Note_on_c, 0, 92, 0
2, 11568, Note_on_c, 0, 85, 60
2, 11568, Note_on_c, 0, 93, 64
2, 11580, Note_on_c, 0, 93, 0
2, 11580, Note_on_c, 0, 85, 0
2, 11580, Note_on_c, 0, 86, 58
2, 11580, Note_on_c, 0, 90, 60
2, 11592, Note_on_c, 0, 90, 0
2, 11592, Note_on_c, 0, 86, 0
2, 11592, Note_on_c, 0, 85, 56
2, 11592, Note_on_c, 0, 88, 58
2, 11602, Note_on_c, 0, 85, 0
2, 11604, Note_on_c, 0, 88, 0
2, 11604, Note_on_c, 0, 83, 58
2, 11604, Note_on_c, 0, 91, 62
2, 11614, Note_on_c, 0, 91, 0
2, 11616, Note_on_c, 0, 83, 0
2, 11616, Note_on_c, 0, 82, 56
2, 11616, Note_on_c, 0, 90, 60
2, 11628, Note_on_c, 0, 90, 0
2, 11628, Note_on_c, 0, 82, 0
2, 11628, Note_on_c, 0, 79, 54
2, 11628, Note_on_c, 0, 83, 56
2, 11640, Note_on_c, 0, 83, 0
2, 11640, Note_on_c, 0, 79, 0
2, 11640, Note_on_c, 0, 78, 53
2, 11640, Note_on_c, 0, 85, 57
2, 11652, Note_on_c, 0, 85, 0
2, 11652, Note_on_c, 0, 78, 0
2, 11652, Note_on_c, 0, 76, 52
2, 11652, Note_on_c, 0, 86, 56
2, 11662, Note_on_c, 0, 76, 0
2, 11664, Note_on_c, 0, 86, 0
2, 11664, Note_on_c, 0, 74, 48
2, 11664, Note_on_c, 0, 78, 54
2, 11674, Note_on_c, 0, 78, 0
2, 11674, Note_on_c, 0, 74, 0
2, 11676, Note_on_c, 0, 78, 60
2, 11676, Note_on_c, 0, 86, 64
2, 11686, Note_on_c, 0, 86, 0
2, 11688, Note_on_c, 0, 78, 0
2, 11688, Note_on_c, 0, 76, 60
2, 11688, Note_on_c, 0, 85, 62
2, 11700, Note_on_c, 0, 85, 0
2, 11700, Note_on_c, 0, 76, 0
2, 11700, Note_on_c, 0, 73, 56
2, 11700, Note_on_c, 0, 82, 60
2, 11710, Note_on_c, 0, 73, 0
2, 11712, Note_on_c, 0, 82, 0
2, 11712, Note_on_c, 0, 74, 58
2, 11712, Note_on_c, 0, 83, 62
2, 11724, Note_on_c, 0, 83, 0
2, 11724, Note_on_c, 0, 74, 0
2, 11724, Note_on_c, 0, 76, 56
2, 11724, Note_on_c, 0, 79, 58
2, 11734, Note_on_c, 0, 76, 0
2, 11736, Note_on_c, 0, 79, 0
2, 11736, Note_on_c, 0, 74, 54
2, 11736, Note_on_c, 0, 78, 56
2, 11748, Note_on_c, 0, 78, 0
2, 11748, Note_on_c, 0, 74, 0
2, 11748, Note_on_c, 0, 73, 56
2, 11748, Note_on_c, 0, 81, 60
2, 11760, Note_on_c, 0, 81, 0
2, 11760, Note_on_c, 0, 73, 0
2, 11760, Note_on_c, 0, 71, 54
2, 11760, Note_on_c, 0, 80, 58
2, 11772, Note_on_c, 0, 80, 0
2, 11772, Note_on_c, 0, 71, 0
2, 11772, Note_on_c, 0, 69, 56
2, 11772, Note_on_c, 0, 73, 58
2, 11784, Note_on_c, 0, 73, 0
2, 11784, Note_on_c, 0, 69, 0
2, 11784, Note_on_c, 0, 68, 55
2, 11784, Note_on_c, 0, 74, 59
2, 11796, Note_on_c, 0, 74, 0
2, 11796, Note_on_c, 0, 68, 0
2, 11796, Note_on_c, 0, 64, 54
2, 11796, Note_on_c, 0, 76, 58
2, 11808, Note_on_c, 0, 76, 0
2, 11808, Note_on_c, 0, 64, 0
2, 11808, Note_on_c, 0, 68, 55
2, 11808, Note_on_c, 0, 72, 59
2, 11820, Note_on_c, 0, 68, 0
2, 11820, Note_on_c, 0, 67, 52
2, 11830, Note_on_c, 0, 67, 0
2, 11830, Note_on_c, 0, 72, 0
2, 11904, Note_on_c, 0, 66, 58
2, 11904, Note_on_c, 0, 69, 60
2, 11914, Note_on_c, 0, 66, 0
2, 11916, Note_on_c, 0, 69, 0
2, 11916, Note_on_c, 0, 67, 60
2, 11916, Note_on_c, 0, 71, 62
2, 11928, Note_on_c, 0, 71, 0
2, 11928, Note_on_c, 0, 67, 0
2, 11928, Note_on_c, 0, 66, 58
2, 11928, Note_on_c, 0, 72, 62
2, 11940, Note_on_c, 0, 72, 0
2, 11940, Note_on_c, 0, 66, 0
2, 11940, Note_on_c, 0, 62, 54
2, 11940, Note_on_c, 0, 74, 58
2, 11952, Note_on_c, 0, 74, 0
2, 11952, Note_on_c, 0, 62, 0
2, 11952, Note_on_c, 0, 66, 50
2, 11952, Note_on_c, 0, 70, 54
2, 11964, Note_on_c, 0, 66, 0
2, 11964, Note_on_c, 0, 65, 46
2, 11974, Note_on_c, 0, 65, 0
2, 11974, Note_on_c, 0, 70, 0
2, 12048, Note_on_c, 0, 64, 50
2, 12048, Note_on_c, 0, 67, 52
2, 12058, Note_on_c, 0, 64, 0
2, 12060, Note_on_c, 0, 67, 0
2, 12060, Note_on_c, 0, 66, 54
2, 12060, Note_on_c, 0, 69, 56
2, 12072, Note_on_c, 0, 69, 0
2, 12072, Note_on_c, 0, 66, 0
2, 12072, Note_on_c, 0, 64, 50
2, 12072, Note_on_c, 0, 70, 54
2, 12084, Note_on_c, 0, 70, 0
2, 12084, Note_on_c, 0, 64, 0
2, 12084, Note_on_c, 0, 60, 46
2, 12084, Note_on_c, 0, 72, 52
2, 12096, Note_on_c, 0, 72, 0
2, 12096, Note_on_c, 0, 60, 0
2, 12096, Note_on_c, 0, 64, 46
2, 12096, Note_on_c, 0, 69, 50
2, 12108, Note_on_c, 0, 64, 0
2, 12108, Note_on_c, 0, 63, 40
2, 12118, Note_on_c, 0, 63, 0
2, 12118, Note_on_c, 0, 69, 0
2, 12168, Note_on_c, 0, 59, 54
2, 12216, Note_on_c, 0, 59, 0
2, 12216, Note_on_c, 0, 61, 52
2, 12240, Note_on_c, 0, 61, 0
2, 12240, Note_on_c, 0, 59, 54
2, 12288, Note_on_c, 0, 59, 0
2, 12312, Note_on_c, 0, 59, 62
2, 12360, Note_on_c, 0, 59, 0
2, 12360, Note_on_c, 0, 61, 58
2, 12384, Note_on_c, 0, 61, 0
2, 12384, Note_on_c, 0, 52, 44
2, 12384, Note_on_c, 0, 56, 46
2, 12384, Note_on_c, 0, 59, 62
2, 12432, Note_on_c, 0, 59, 0
2, 12432, Note_on_c, 0, 47, 56
2, 12450, Note_on_c, 0, 56, 0
2, 12450, Note_on_c, 0, 52, 0
2, 12456, Note_on_c, 0, 47, 0
2, 12456, Note_on_c, 0, 52, 44
2, 12456, Note_on_c, 0, 56, 46
2, 12456, Note_on_c, 0, 59, 62
2, 12502, Note_on_c, 0, 59, 0
2, 12504, Note_on_c, 0, 68, 70
2, 12520, Note_on_c, 0, 68, 0
2, 12522, Note_on_c, 0, 56, 0
2, 12522, Note_on_c, 0, 52, 0
2, 12528, Note_on_c, 0, 57, 54
2, 12528, Note_on_c, 0, 68, 72
2, 12576, Note_on_c, 0, 68, 0
2, 12576, Note_on_c, 0, 66, 60
2, 12600, Note_on_c, 0, 66, 0
2, 12600, Note_on_c, 0, 64, 54
2, 12648, Note_on_c, 0, 64, 0
2, 12648, Note_on_c, 0, 61, 52
2, 12660, Note_on_c, 0, 57, 0
2, 12672, Note_on_c, 0, 61, 0
2, 12672, Note_on_c, 0, 56, 40
2, 12672, Note_on_c, 0, 59, 50
2, 12738, Note_on_c, 0, 59, 0
2, 12744, Note_on_c, 0, 59, 56
2, 12792, Note_on_c, 0, 59, 0
2, 12792, Note_on_c, 0, 61, 52
2, 12804, Note_on_c, 0, 56, 0
2, 12816, Note_on_c, 0, 61, 0
2, 12816, Note_on_c, 0, 51, 38
2, 12816, Note_on_c, 0, 57, 42
2, 12816, Note_on_c, 0, 59, 58
2, 12864, Note_on_c, 0, 59, 0
2, 12864, Note_on_c, 0, 47, 58
2, 12882, Note_on_c, 0, 57, 0
2, 12882, Note_on_c, 0, 51, 0
2, 12888, Note_on_c, 0, 47, 0
2, 12888, Note_on_c, 0, 51, 38
2, 12888, Note_on_c, 0, 57, 42
2, 12888, Note_on_c, 0, 59, 58
2, 12936, Note_on_c, 0, 59, 0
2, 12936, Note_on_c, 0, 61, 54
2, 12954, Note_on_c, 0, 57, 0
2, 12954, Note_on_c, 0, 51, 0
2, 12960, Note_on_c, 0, 61, 0
2, 12960, Note_on_c, 0, 52, 38
2, 12960, Note_on_c, 0, 56, 42
2, 12960, Note_on_c, 0, 59, 58
2, 13008, Note_on_c, 0, 59, 0
2, 13008, Note_on_c, 0, 47, 58
2, 13026, Note_on_c, 0, 56, 0
2, 13026, Note_on_c, 0, 52, 0
2, 13032, Note_on_c, 0, 47, 0
2, 13032, Note_on_c, 0, 52, 40
2, 13032, Note_on_c, 0, 56, 44
2, 13032, Note_on_c, 0, 59, 58
2, 13078, Note_on_c, 0, 59, 0
2, 13080, Note_on_c, 0, 64, 68
2, 13096, Note_on_c, 0, 64, 0
2, 13098, Note_on_c, 0, 56, 0
2, 13098, Note_on_c, 0, 52, 0
2, 13116, Note_on_c, 0, 52, 54
2, 13120, Note_on_c, 0, 52, 0
2, 13122, Note_on_c, 0, 52, 54
2, 13128, Note_on_c, 0, 56, 62
2, 13134, Note_on_c, 0, 64, 68
2, 13152, Note_on_c, 0, 64, 0
2, 13152, Note_on_c, 0, 63, 54
2, 13176, Note_on_c, 0, 63, 0
2, 13176, Note_on_c, 0, 61, 51
2, 13216, Note_on_c, 0, 56, 0
2, 13224, Note_on_c, 0, 61, 0
2, 13224, Note_on_c, 0, 56, 52
2, 13236, Note_on_c, 0, 52, 0
2, 13248, Note_on_c, 0, 51, 32
2, 13248, Note_on_c, 0, 60, 38
2, 13248, Note_on_c, 0, 63, 52
2, 13318, Note_on_c, 0, 63, 0
2, 13320, Note_on_c, 0, 63, 52
2, 13336, Note_on_c, 0, 56, 0
2, 13336, Note_on_c, 0, 60, 0
2, 13336, Note_on_c, 0, 51, 0
2, 13368, Note_on_c, 0, 63, 0
2, 13368, Note_on_c, 0, 65, 50
2, 13392, Note_on_c, 0, 65, 0
2, 13392, Note_on_c, 0, 55, 36
2, 13392, Note_on_c, 0, 61, 40
2, 13392, Note_on_c, 0, 63, 52
2, 13440, Note_on_c, 0, 63, 0
2, 13440, Note_on_c, 0, 51, 50
2, 13458, Note_on_c, 0, 61, 0
2, 13458, Note_on_c, 0, 55, 0
2, 13464, Note_on_c, 0, 51, 0
2, 13464, Note_on_c, 0, 55, 36
2, 13464, Note_on_c, 0, 61, 40
2, 13464, Note_on_c, 0, 63, 53
2, 13512, Note_on_c, 0, 63, 0
2, 13512, Note_on_c, 0, 65, 54
2, 13530, Note_on_c, 0, 61, 0
2, 13530, Note_on_c, 0, 55, 0
2, 13536, Note_on_c, 0, 65, 0
2, 13536, Note_on_c, 0, 56, 36
2, 13536, Note_on_c, 0, 60, 40
2, 13536, Note_on_c, 0, 63, 54
2, 13584, Note_on_c, 0, 63, 0
2, 13584, Note_on_c, 0, 51, 52
2, 13602, Note_on_c, 0, 60, 0
2, 13602, Note_on_c, 0, 56, 0
2, 13608, Note_on_c, 0, 51, 0
2, 13608, Note_on_c, 0, 56, 38
2, 13608, Note_on_c, 0, 60, 42
2, 13608, Note_on_c, 0, 63, 58
2, 13654, Note_on_c, 0, 63, 0
2, 13656, Note_on_c, 0, 72, 66
2, 13672, Note_on_c, 0, 72, 0
2, 13674, Note_on_c, 0, 60, 0
2, 13674, Note_on_c, 0, 56, 0
2, 13680, Note_on_c, 0, 61, 48
2, 13680, Note_on_c, 0, 72, 64
2, 13728, Note_on_c, 0, 72, 0
2, 13728, Note_on_c, 0, 70, 55
2, 13752, Note_on_c, 0, 70, 0
2, 13752, Note_on_c, 0, 68, 56
2, 13800, Note_on_c, 0, 68, 0
2, 13800, Note_on_c, 0, 65, 50
2, 13812, Note_on_c, 0, 61, 0
2, 13824, Note_on_c, 0, 65, 0
2, 13824, Note_on_c, 0, 60, 38
2, 13824, Note_on_c, 0, 63, 48
2, 13890, Note_on_c, 0, 63, 0
2, 13896, Note_on_c, 0, 63, 54
2, 13944, Note_on_c, 0, 63, 0
2, 13944, Note_on_c, 0, 65, 52
2, 13956, Note_on_c, 0, 60, 0
2, 13968, Note_on_c, 0, 65, 0
2, 13968, Note_on_c, 0, 55, 40
2, 13968, Note_on_c, 0, 61, 44
2, 13968, Note_on_c, 0, 63, 58
2, 14016, Note_on_c, 0, 63, 0
2, 14016, Note_on_c, 0, 51, 54
2, 14034, Note_on_c, 0, 61, 0
2, 14034, Note_on_c, 0, 55, 0
2, 14040, Note_on_c, 0, 51, 0
2, 14040, Note_on_c, 0, 55, 40
2, 14040, Note_on_c, 0, 61, 44
2, 14040, Note_on_c, 0, 63, 58
2, 14088, Note_on_c, 0, 63, 0
2, 14088, Note_on_c, 0, 65, 60
2, 14106, Note_on_c, 0, 61, 0
2, 14106, Note_on_c, 0, 55, 0
2, 14112, Note_on_c, 0, 65, 0
2, 14112, Note_on_c, 0, 56, 40
2, 14112, Note_on_c, 0, 60, 44
2, 14112, Note_on_c, 0, 63, 60
2, 14160, Note_on_c, 0, 63, 0
2, 14160, Note_on_c, 0, 51, 58
2, 14178, Note_on_c, 0, 60, 0
2, 14178, Note_on_c, 0, 56, 0
2, 14184, Note_on_c, 0, 51, 0
2, 14184, Note_on_c, 0, 56, 46
2, 14184, Note_on_c, 0, 60, 50
2, 14184, Note_on_c, 0, 63, 66
2, 14230, Note_on_c, 0, 63, 0
2, 14232, Note_on_c, 0, 65, 70
2, 14250, Note_on_c, 0, 60, 0
2, 14250, Note_on_c, 0, 56, 0
2, 14256, Note_on_c, 0, 65, 0
2, 14256, Note_on_c, 0, 61, 54
2, 14256, Note_on_c, 0, 66, 64
2, 14304, Note_on_c, 0, 66, 0
2, 14304, Note_on_c, 0, 54, 50
2, 14308, Note_on_c, 0, 54, 0
2, 14310, Note_on_c, 0, 54, 48
2, 14312, Note_on_c, 0, 61, 0
2, 14314, Note_on_c, 0, 54, 0
2, 14316, Note_on_c, 0, 54, 50
2, 14322, Note_on_c, 0, 61, 54
2, 14328, Note_on_c, 0, 66, 60
2, 14368, Note_on_c, 0, 66, 0
2, 14368, Note_on_c, 0, 54, 0
2, 14376, Note_on_c, 0, 53, 46
2, 14376, Note_on_c, 0, 65, 54
2, 14392, Note_on_c, 0, 65, 0
2, 14392, Note_on_c, 0, 53, 0
2, 14394, Note_on_c, 0, 61, 0
2, 14400, Note_on_c, 0, 53, 40
2, 14400, Note_on_c, 0, 60, 44
2, 14400, Note_on_c, 0, 65, 50
2, 14466, Note_on_c, 0, 65, 0
2, 14466, Note_on_c, 0, 53, 0
2, 14472, Note_on_c, 0, 65, 50
2, 14520, Note_on_c, 0, 65, 0
2, 14520, Note_on_c, 0, 66, 52
2, 14532, Note_on_c, 0, 60, 0
2, 14536, Note_on_c, 0, 66, 0
2, 14544, Note_on_c, 0, 54, 40
2, 14544, Note_on_c, 0, 61, 44
2, 14544, Note_on_c, 0, 66, 52
2, 14592, Note_on_c, 0, 66, 0
2, 14592, Note_on_c, 0, 54, 0
2, 14592, Note_on_c, 0, 65, 50
2, 14608, Note_on_c, 0, 65, 0
2, 14616, Note_on_c, 0, 65, 56
2, 14664, Note_on_c, 0, 65, 0
2, 14664, Note_on_c, 0, 70, 54
2, 14676, Note_on_c, 0, 61, 0
2, 14680, Note_on_c, 0, 70, 0
2, 14688, Note_on_c, 0, 63, 44
2, 14688, Note_on_c, 0, 70, 54
2, 14736, Note_on_c, 0, 70, 0
2, 14736, Note_on_c, 0, 69, 46
2, 14752, Note_on_c, 0, 69, 0
2, 14760, Note_on_c, 0, 69, 54
2, 14808, Note_on_c, 0, 69, 0
2, 14808, Note_on_c, 0, 66, 52
2, 14820, Note_on_c, 0, 63, 0
2, 14824, Note_on_c, 0, 66, 0
2, 14832, Note_on_c, 0, 61, 46
2, 14832, Note_on_c, 0, 66, 56
2, 14880, Note_on_c, 0, 66, 0
2, 14880, Note_on_c, 0, 65, 54
2, 14896, Note_on_c, 0, 65, 0
2, 14904, Note_on_c, 0, 65, 61
2, 14952, Note_on_c, 0, 65, 0
2, 14952, Note_on_c, 0, 66, 62
2, 14964, Note_on_c, 0, 61, 0
2, 14968, Note_on_c, 0, 66, 0
2, 14976, Note_on_c, 0, 55, 50
2, 14976, Note_on_c, 0, 62, 46
2, 14976, Note_on_c, 0, 65, 50
2, 14976, Note_on_c, 0, 67, 64
2, 15042, Note_on_c, 0, 67, 0
2, 15042, Note_on_c, 0, 55, 0
2, 15048, Note_on_c, 0, 67, 66
2, 15096, Note_on_c, 0, 67, 0
2, 15096, Note_on_c, 0, 68, 64
2, 15108, Note_on_c, 0, 65, 0
2, 15108, Note_on_c, 0, 62, 0
2, 15112, Note_on_c, 0, 68, 0
2, 15120, Note_on_c, 0, 56, 50
2, 15120, Note_on_c, 0, 63, 54
2, 15120, Note_on_c, 0, 68, 68
2, 15160, Note_on_c, 0, 56, 0
2, 15168, Note_on_c, 0, 68, 0
2, 15168, Note_on_c, 0, 67, 68
2, 15184, Note_on_c, 0, 67, 0
2, 15192, Note_on_c, 0, 67, 69
2, 15240, Note_on_c, 0, 67, 0
2, 15240, Note_on_c, 0, 72, 74
2, 15252, Note_on_c, 0, 63, 0
2, 15256, Note_on_c, 0, 72, 0
2, 15264, Note_on_c, 0, 65, 60
2, 15264, Note_on_c, 0, 72, 74
2, 15312, Note_on_c, 0, 72, 0
2, 15312, Note_on_c, 0, 71, 64
2, 15328, Note_on_c, 0, 71, 0
2, 15336, Note_on_c, 0, 71, 62
2, 15384, Note_on_c, 0, 71, 0
2, 15384, Note_on_c, 0, 70, 54
2, 15400, Note_on_c, 0, 70, 0
2, 15408, Note_on_c, 0, 70, 52
2, 15456, Note_on_c, 0, 70, 0
2, 15456, Note_on_c, 0, 69, 48
2, 15472, Note_on_c, 0, 69, 0
2, 15480, Note_on_c, 0, 69, 47
2, 15528, Note_on_c, 0, 69, 0
2, 15528, Note_on_c, 0, 68, 42
2, 15550, Note_on_c, 0, 65, 0
2, 15552, Note_on_c, 0, 68, 0
2, 15552, Note_on_c, 0, 64, 36
2, 15552, Note_on_c, 0, 69, 44
2, 15618, Note_on_c, 0, 69, 0
2, 15618, Note_on_c, 0, 64, 0
2, 15624, Note_on_c, 0, 69, 52
2, 15672, Note_on_c, 0, 69, 0
2, 15672, Note_on_c, 0, 71, 54
2, 15696, Note_on_c, 0, 71, 0
2, 15696, Note_on_c, 0, 61, 38
2, 15696, Note_on_c, 0, 67, 42
2, 15696, Note_on_c, 0, 69, 56
2, 15744, Note_on_c, 0, 69, 0
2, 15744, Note_on_c, 0, 57, 56
2, 15762, Note_on_c, 0, 67, 0
2, 15762, Note_on_c, 0, 61, 0
2, 15768, Note_on_c, 0, 57, 0
2, 15768, Note_on_c, 0, 61, 38
2, 15768, Note_on_c, 0, 67, 42
2, 15768, Note_on_c, 0, 69, 62
2, 15816, Note_on_c, 0, 69, 0
2, 15816, Note_on_c, 0, 71, 54
2, 15834, Note_on_c, 0, 67, 0
2, 15834, Note_on_c, 0, 61, 0
2, 15840, Note_on_c, 0, 71, 0
2, 15840, Note_on_c, 0, 62, 44
2, 15840, Note_on_c, 0, 66, 46
2, 15840, Note_on_c, 0, 69, 62
2, 15888, Note_on_c, 0, 69, 0
2, 15888, Note_on_c, 0, 57, 56
2, 15906, Note_on_c, 0, 66, 0
2, 15906, Note_on_c, 0, 62, 0
2, 15912, Note_on_c, 0, 57, 0
2, 15912, Note_on_c, 0, 62, 44
2, 15912, Note_on_c, 0, 66, 46
2, 15912, Note_on_c, 0, 69, 62
2, 15958, Note_on_c, 0, 69, 0
2, 15960, Note_on_c, 0, 78, 68
2, 15976, Note_on_c, 0, 78, 0
2, 15978, Note_on_c, 0, 66, 0
2, 15978, Note_on_c, 0, 62, 0
2, 15984, Note_on_c, 0, 67, 52
2, 15984, Note_on_c, 0, 78, 70
2, 16032, Note_on_c, 0, 78, 0
2, 16032, Note_on_c, 0, 76, 60
2, 16056, Note_on_c, 0, 76, 0
2, 16056, Note_on_c, 0, 74, 54
2, 16104, Note_on_c, 0, 74, 0
2, 16104, Note_on_c, 0, 71, 52
2, 16116, Note_on_c, 0, 67, 0
2, 16128, Note_on_c, 0, 71, 0
2, 16128, Note_on_c, 0, 66, 40
2, 16128, Note_on_c, 0, 69, 50
2, 16194, Note_on_c, 0, 69, 0
2, 16200, Note_on_c, 0, 69, 58
2, 16248, Note_on_c, 0, 69, 0
2, 16248, Note_on_c, 0, 71, 54
2, 16260, Note_on_c, 0, 66, 0
2, 16272, Note_on_c, 0, 71, 0
2, 16272, Note_on_c, 0, 61, 40
2, 16272, Note_on_c, 0, 67, 44
2, 16272, Note_on_c, 0, 69, 60
2, 16320, Note_on_c, 0, 69, 0
2, 16320, Note_on_c, 0, 57, 60
2, 16338, Note_on_c, 0, 67, 0
2, 16338, Note_on_c, 0, 61, 0
2, 16344, Note_on_c, 0, 57, 0
2, 16344, Note_on_c, 0, 61, 44
2, 16344, Note_on_c, 0, 67, 48
2, 16344, Note_on_c, 0, 69, 64
2, 16392, Note_on_c, 0, 69, 0
2, 16392, Note_on_c, 0, 71, 60
2, 16410, Note_on_c, 0, 67, 0
2, 16410, Note_on_c, 0, 61, 0
2, 16416, Note_on_c, 0, 71, 0
2, 16416, Note_on_c, 0, 62, 44
2, 16416, Note_on_c, 0, 66, 48
2, 16416, Note_on_c, 0, 69, 64
2, 16464, Note_on_c, 0, 69, 0
2, 16464, Note_on_c, 0, 57, 64
2, 16482, Note_on_c, 0, 66, 0
2, 16482, Note_on_c, 0, 62, 0
2, 16488, Note_on_c, 0, 57, 0
2, 16488, Note_on_c, 0, 62, 46
2, 16488, Note_on_c, 0, 66, 50
2, 16488, Note_on_c, 0, 69, 64
2, 16534, Note_on_c, 0, 69, 0
2, 16536, Note_on_c, 0, 74, 72
2, 16552, Note_on_c, 0, 74, 0
2, 16554, Note_on_c, 0, 66, 0
2, 16554, Note_on_c, 0, 62, 0
2, 16560, Note_on_c, 0, 62, 48
2, 16560, Note_on_c, 0, 66, 52
2, 16560, Note_on_c, 0, 74, 70
2, 16608, Note_on_c, 0, 74, 0
2, 16608, Note_on_c, 0, 73, 60
2, 16632, Note_on_c, 0, 73, 0
2, 16632, Note_on_c, 0, 71, 57
2, 16672, Note_on_c, 0, 66, 0
2, 16680, Note_on_c, 0, 71, 0
2, 16680, Note_on_c, 0, 66, 54
2, 16692, Note_on_c, 0, 62, 0
2, 16702, Note_on_c, 0, 66, 0
2, 16704, Note_on_c, 0, 61, 34
2, 16708, Note_on_c, 0, 61, 0
2, 16710, Note_on_c, 0, 61, 40
2, 16716, Note_on_c, 0, 66, 44
2, 16722, Note_on_c, 0, 70, 40
2, 16728, Note_on_c, 0, 73, 46
2, 16770, Note_on_c, 0, 73, 0
2, 16770, Note_on_c, 0, 61, 0
2, 16770, Note_on_c, 0, 66, 0
2, 16770, Note_on_c, 0, 70, 0
2, 16776, Note_on_c, 0, 61, 52
2, 16776, Note_on_c, 0, 73, 60
2, 16816, Note_on_c, 0, 73, 0
2, 16816, Note_on_c, 0, 61, 0
2, 16824, Note_on_c, 0, 63, 60
2, 16824, Note_on_c, 0, 75, 58
2, 16840, Note_on_c, 0, 75, 0
2, 16840, Note_on_c, 0, 63, 0
2, 16848, Note_on_c, 0, 65, 42
2, 16848, Note_on_c, 0, 71, 46
2, 16848, Note_on_c, 0, 73, 60
2, 16896, Note_on_c, 0, 73, 0
2, 16896, Note_on_c, 0, 61, 58
2, 16912, Note_on_c, 0, 61, 0
2, 16914, Note_on_c, 0, 71, 0
2, 16914, Note_on_c, 0, 65, 0
2, 16920, Note_on_c, 0, 65, 42
2, 16920, Note_on_c, 0, 71, 46
2, 16920, Note_on_c, 0, 73, 61
2, 16968, Note_on_c, 0, 73, 0
2, 16968, Note_on_c, 0, 75, 62
2, 16984, Note_on_c, 0, 75, 0
2, 16986, Note_on_c, 0, 71, 0
2, 16986, Note_on_c, 0, 65, 0
2, 16992, Note_on_c, 0, 66, 42
2, 16992, Note_on_c, 0, 70, 46
2, 16992, Note_on_c, 0, 73, 62
2, 17040, Note_on_c, 0, 73, 0
2, 17040, Note_on_c, 0, 61, 60
2, 17056, Note_on_c, 0, 61, 0
2, 17058, Note_on_c, 0, 70, 0
2, 17058, Note_on_c, 0, 66, 0
2, 17064, Note_on_c, 0, 66, 44
2, 17064, Note_on_c, 0, 70, 48
2, 17064, Note_on_c, 0, 73, 66
2, 17110, Note_on_c, 0, 73, 0
2, 17112, Note_on_c, 0, 82, 68
2, 17128, Note_on_c, 0, 82, 0
2, 17130, Note_on_c, 0, 70, 0
2, 17130, Note_on_c, 0, 66, 0
2, 17148, Note_on_c, 0, 70, 48
2, 17154, Note_on_c, 0, 71, 50
2, 17160, Note_on_c, 0, 75, 54
2, 17166, Note_on_c, 0, 82, 66
2, 17184, Note_on_c, 0, 82, 0
2, 17184, Note_on_c, 0, 80, 60
2, 17208, Note_on_c, 0, 80, 0
2, 17208, Note_on_c, 0, 78, 56
2, 17248, Note_on_c, 0, 75, 0
2, 17256, Note_on_c, 0, 78, 0
2, 17256, Note_on_c, 0, 75, 53
2, 17268, Note_on_c, 0, 71, 0
2, 17268, Note_on_c, 0, 70, 0
2, 17280, Note_on_c, 0, 75, 0
2, 17280, Note_on_c, 0, 70, 40
2, 17280, Note_on_c, 0, 73, 50
2, 17346, Note_on_c, 0, 73, 0
2, 17352, Note_on_c, 0, 73, 58
2, 17400, Note_on_c, 0, 73, 0
2, 17400, Note_on_c, 0, 75, 56
2, 17412, Note_on_c, 0, 70, 0
2, 17424, Note_on_c, 0, 75, 0
2, 17424, Note_on_c, 0, 65, 44
2, 17424, Note_on_c, 0, 71, 48
2, 17424, Note_on_c, 0, 73, 62
2, 17472, Note_on_c, 0, 73, 0
2, 17472, Note_on_c, 0, 61, 58
2, 17490, Note_on_c, 0, 71, 0
2, 17490, Note_on_c, 0, 65, 0
2, 17496, Note_on_c, 0, 61, 0
2, 17496, Note_on_c, 0, 65, 44
2, 17496, Note_on_c, 0, 71, 48
2, 17496, Note_on_c, 0, 73, 62
2, 17544, Note_on_c, 0, 73, 0
2, 17544, Note_on_c, 0, 75, 64
2, 17562, Note_on_c, 0, 71, 0
2, 17562, Note_on_c, 0, 65, 0
2, 17568, Note_on_c, 0, 75, 0
2, 17568, Note_on_c, 0, 61, 48
2, 17568, Note_on_c, 0, 66, 44
2, 17568, Note_on_c, 0, 70, 48
2, 17568, Note_on_c, 0, 73, 64
2, 17608, Note_on_c, 0, 73, 0
2, 17608, Note_on_c, 0, 61, 0
2, 17616, Note_on_c, 0, 61, 62
2, 17632, Note_on_c, 0, 61, 0
2, 17634, Note_on_c, 0, 70, 0
2, 17634, Note_on_c, 0, 66, 0
2, 17640, Note_on_c, 0, 66, 48
2, 17640, Note_on_c, 0, 70, 52
2, 17640, Note_on_c, 0, 73, 68
2, 17688, Note_on_c, 0, 73, 0
2, 17688, Note_on_c, 0, 75, 70
2, 17706, Note_on_c, 0, 70, 0
2, 17706, Note_on_c, 0, 66, 0
2, 17712, Note_on_c, 0, 75, 0
2, 17712, Note_on_c, 0, 71, 62
2, 17712, Note_on_c, 0, 76, 74
2, 17760, Note_on_c, 0, 76, 0
2, 17760, Note_on_c, 0, 64, 64
2, 17764, Note_on_c, 0, 64, 0
2, 17766, Note_on_c, 0, 64, 54
2, 17770, Note_on_c, 0, 64, 0
2, 17772, Note_on_c, 0, 71, 0
2, 17772, Note_on_c, 0, 64, 54
2, 17778, Note_on_c, 0, 71, 60
2, 17784, Note_on_c, 0, 76, 70
2, 17824, Note_on_c, 0, 76, 0
2, 17824, Note_on_c, 0, 64, 0
2, 17832, Note_on_c, 0, 63, 60
2, 17832, Note_on_c, 0, 75, 70
2, 17848, Note_on_c, 0, 75, 0
2, 17848, Note_on_c, 0, 63, 0
2, 17848, Note_on_c, 0, 71, 0
2, 17856, Note_on_c, 0, 63, 60
2, 17856, Note_on_c, 0, 71, 64
2, 17856, Note_on_c, 0, 75, 70
2, 17922, Note_on_c, 0, 75, 0
2, 17922, Note_on_c, 0, 71, 0
2, 17922, Note_on_c, 0, 63, 0
2, 17928, Note_on_c, 0, 61, 40
2, 17928, Note_on_c, 0, 70, 46
2, 17928, Note_on_c, 0, 73, 50
2, 17938, Note_on_c, 0, 73, 0
2, 17938, Note_on_c, 0, 70, 0
2, 17938, Note_on_c, 0, 61, 0
2, 17944, Note_on_c, 0, 61, 50
2, 17948, Note_on_c, 0, 61, 0
2, 17948, Note_on_c, 0, 63, 52
2, 17952, Note_on_c, 0, 63, 0
2, 17952, Note_on_c, 0, 58, 50
2, 17952, Note_on_c, 0, 61, 52
2, 17964, Note_on_c, 0, 61, 0
2, 17964, Note_on_c, 0, 60, 52
2, 17976, Note_on_c, 0, 60, 0
2, 17976, Note_on_c, 0, 58, 0
2, 17976, Note_on_c, 0, 57, 52
2, 17976, Note_on_c, 0, 61, 56
2, 17988, Note_on_c, 0, 61, 0
2, 17988, Note_on_c, 0, 57, 0
2, 17988, Note_on_c, 0, 59, 51
2, 17988, Note_on_c, 0, 63, 53
2, 18000, Note_on_c, 0, 63, 0
2, 18000, Note_on_c, 0, 59, 0
2, 18000, Note_on_c, 0, 56, 48
2, 18000, Note_on_c, 0, 64, 54
2, 18046, Note_on_c, 0, 64, 0
2, 18046, Note_on_c, 0, 56, 0
2, 18088, Note_on_c, 0, 64, 50
2, 18092, Note_on_c, 0, 64, 0
2, 18092, Note_on_c, 0, 66, 52
2, 18096, Note_on_c, 0, 66, 0
2, 18096, Note_on_c, 0, 61, 50
2, 18096, Note_on_c, 0, 64, 52
2, 18108, Note_on_c, 0, 64, 0
2, 18108, Note_on_c, 0, 63, 52
2, 18120, Note_on_c, 0, 63, 0
2, 18120, Note_on_c, 0, 61, 0
2, 18120, Note_on_c, 0, 60, 50
2, 18120, Note_on_c, 0, 64, 54
2, 18132, Note_on_c, 0, 64, 0
2, 18132, Note_on_c, 0, 60, 0
2, 18132, Note_on_c, 0, 62, 49
2, 18132, Note_on_c, 0, 66, 51
2, 18144, Note_on_c, 0, 66, 0
2, 18144, Note_on_c, 0, 62, 0
2, 18144, Note_on_c, 0, 59, 54
2, 18144, Note_on_c, 0, 67, 56
2, 18154, Note_on_c, 0, 67, 0
2, 18154, Note_on_c, 0, 59, 0
2, 18156, Note_on_c, 0, 76, 58
2, 18156, Note_on_c, 0, 84, 62
2, 18166, Note_on_c, 0, 84, 0
2, 18168, Note_on_c, 0, 76, 0
2, 18168, Note_on_c, 0, 74, 56
2, 18168, Note_on_c, 0, 83, 60
2, 18180, Note_on_c, 0, 83, 0
2, 18180, Note_on_c, 0, 74, 0
2, 18180, Note_on_c, 0, 72, 54
2, 18180, Note_on_c, 0, 78, 58
2, 18192, Note_on_c, 0, 78, 0
2, 18192, Note_on_c, 0, 72, 0
2, 18192, Note_on_c, 0, 71, 56
2, 18192, Note_on_c, 0, 79, 60
2, 18204, Note_on_c, 0, 79, 0
2, 18204, Note_on_c, 0, 71, 0
2, 18204, Note_on_c, 0, 72, 54
2, 18204, Note_on_c, 0, 76, 56
2, 18216, Note_on_c, 0, 76, 0
2, 18216, Note_on_c, 0, 72, 0
2, 18216, Note_on_c, 0, 71, 52
2, 18216, Note_on_c, 0, 74, 54
2, 18228, Note_on_c, 0, 74, 0
2, 18228, Note_on_c, 0, 71, 0
2, 18228, Note_on_c, 0, 69, 54
2, 18228, Note_on_c, 0, 77, 58
2, 18238, Note_on_c, 0, 77, 0
2, 18240, Note_on_c, 0, 69, 0
2, 18240, Note_on_c, 0, 68, 52
2, 18240, Note_on_c, 0, 76, 56
2, 18252, Note_on_c, 0, 76, 0
2, 18252, Note_on_c, 0, 68, 0
2, 18252, Note_on_c, 0, 65, 48
2, 18252, Note_on_c, 0, 69, 50
2, 18264, Note_on_c, 0, 69, 0
2, 18264, Note_on_c, 0, 65, 0
2, 18264, Note_on_c, 0, 64, 47
2, 18264, Note_on_c, 0, 71, 51
2, 18276, Note_on_c, 0, 71, 0
2, 18276, Note_on_c, 0, 64, 0
2, 18276, Note_on_c, 0, 62, 46
2, 18276, Note_on_c, 0, 72, 50
2, 18286, Note_on_c, 0, 62, 0
2, 18288, Note_on_c, 0, 72, 0
2, 18288, Note_on_c, 0, 60, 44
2, 18288, Note_on_c, 0, 64, 46
2, 18334, Note_on_c, 0, 64, 0
2, 18334, Note_on_c, 0, 60, 0
2, 18360, Note_on_c, 0, 69, 46
2, 18360, Note_on_c, 0, 72, 52
2, 18384, Note_on_c, 0, 72, 0
2, 18384, Note_on_c, 0, 69, 0
2, 18384, Note_on_c, 0, 68, 46
2, 18384, Note_on_c, 0, 71, 48
2, 18396, Note_on_c, 0, 71, 0
2, 18396, Note_on_c, 0, 68, 0
2, 18396, Note_on_c, 0, 69, 48
2, 18396, Note_on_c, 0, 72, 50
2, 18408, Note_on_c, 0, 72, 0
2, 18408, Note_on_c, 0, 69, 0
2, 18408, Note_on_c, 0, 71, 50
2, 18408, Note_on_c, 0, 74, 52
2, 18420, Note_on_c, 0, 74, 0
2, 18420, Note_on_c, 0, 71, 0
2, 18420, Note_on_c, 0, 68, 48
2, 18420, Note_on_c, 0, 77, 54
2, 18432, Note_on_c, 0, 77, 0
2, 18432, Note_on_c, 0, 68, 0
2, 18432, Note_on_c, 0, 72, 46
2, 18432, Note_on_c, 0, 76, 50
2, 18478, Note_on_c, 0, 76, 0
2, 18478, Note_on_c, 0, 72, 0
2, 18504, Note_on_c, 0, 69, 50
2, 18504, Note_on_c, 0, 72, 56
2, 18528, Note_on_c, 0, 72, 0
2, 18528, Note_on_c, 0, 69, 0
2, 18528, Note_on_c, 0, 68, 54
2, 18528, Note_on_c, 0, 71, 56
2, 18540, Note_on_c, 0, 71, 0
2, 18540, Note_on_c, 0, 68, 0
2, 18540, Note_on_c, 0, 69, 54
2, 18540, Note_on_c, 0, 72, 56
2, 18552, Note_on_c, 0, 72, 0
2, 18552, Note_on_c, 0, 69, 0
2, 18552, Note_on_c, 0, 71, 53
2, 18552, Note_on_c, 0, 74, 55
2, 18564, Note_on_c, 0, 74, 0
2, 18564, Note_on_c, 0, 71, 0
2, 18564, Note_on_c, 0, 68, 48
2, 18564, Note_on_c, 0, 77, 54
2, 18576, Note_on_c, 0, 77, 0
2, 18576, Note_on_c, 0, 68, 0
2, 18576, Note_on_c, 0, 72, 46
2, 18576, Note_on_c, 0, 76, 48
2, 18586, Note_on_c, 0, 76, 0
2, 18588, Note_on_c, 0, 72, 0
2, 18588, Note_on_c, 0, 76, 56
2, 18588, Note_on_c, 0, 84, 60
2, 18600, Note_on_c, 0, 84, 0
2, 18600, Note_on_c, 0, 76, 0
2, 18600, Note_on_c, 0, 74, 54
2, 18600, Note_on_c, 0, 83, 58
2, 18610, Note_on_c, 0, 74, 0
2, 18612, Note_on_c, 0, 83, 0
2, 18612, Note_on_c, 0, 71, 52
2, 18612, Note_on_c, 0, 80, 56
2, 18624, Note_on_c, 0, 80, 0
2, 18624, Note_on_c, 0, 71, 0
2, 18624, Note_on_c, 0, 72, 54
2, 18624, Note_on_c, 0, 81, 58
2, 18636, Note_on_c, 0, 81, 0
2, 18636, Note_on_c, 0, 72, 0
2, 18636, Note_on_c, 0, 74, 52
2, 18636, Note_on_c, 0, 77, 54
2, 18648, Note_on_c, 0, 77, 0
2, 18648, Note_on_c, 0, 74, 0
2, 18648, Note_on_c, 0, 72, 50
2, 18648, Note_on_c, 0, 76, 52
2, 18660, Note_on_c, 0, 76, 0
2, 18660, Note_on_c, 0, 72, 0
2, 18660, Note_on_c, 0, 71, 52
2, 18660, Note_on_c, 0, 79, 56
2, 18670, Note_on_c, 0, 79, 0
2, 18672, Note_on_c, 0, 71, 0
2, 18672, Note_on_c, 0, 69, 50
2, 18672, Note_on_c, 0, 78, 54
2, 18684, Note_on_c, 0, 78, 0
2, 18684, Note_on_c, 0, 69, 0
2, 18684, Note_on_c, 0, 67, 46
2, 18684, Note_on_c, 0, 71, 48
2, 18696, Note_on_c, 0, 71, 0
2, 18696, Note_on_c, 0, 67, 0
2, 18696, Note_on_c, 0, 66, 45
2, 18696, Note_on_c, 0, 72, 49
2, 18708, Note_on_c, 0, 72, 0
2, 18708, Note_on_c, 0, 66, 0
2, 18708, Note_on_c, 0, 62, 44
2, 18708, Note_on_c, 0, 74, 48
2, 18720, Note_on_c, 0, 74, 0
2, 18720, Note_on_c, 0, 62, 0
2, 18720, Note_on_c, 0, 67, 42
2, 18720, Note_on_c, 0, 71, 46
2, 18790, Note_on_c, 0, 71, 0
2, 18790, Note_on_c, 0, 67, 0
2, 18808, Note_on_c, 0, 67, 52
2, 18812, Note_on_c, 0, 67, 0
2, 18812, Note_on_c, 0, 69, 54
2, 18816, Note_on_c, 0, 69, 0
2, 18816, Note_on_c, 0, 64, 52
2, 18816, Note_on_c, 0, 67, 54
2, 18828, Note_on_c, 0, 67, 0
2, 18828, Note_on_c, 0, 66, 54
2, 18840, Note_on_c, 0, 66, 0
2, 18840, Note_on_c, 0, 64, 0
2, 18840, Note_on_c, 0, 63, 52
2, 18840, Note_on_c, 0, 67, 56
2, 18852, Note_on_c, 0, 67, 0
2, 18852, Note_on_c, 0, 63, 0
2, 18852, Note_on_c, 0, 65, 51
2, 18852, Note_on_c, 0, 69, 53
2, 18864, Note_on_c, 0, 69, 0
2, 18864, Note_on_c, 0, 65, 0
2, 18864, Note_on_c, 0, 62, 48
2, 18864, Note_on_c, 0, 70, 54
2, 18910, Note_on_c, 0, 70, 0
2, 18910, Note_on_c, 0, 62, 0
2, 18952, Note_on_c, 0, 70, 48
2, 18956, Note_on_c, 0, 70, 0
2, 18956, Note_on_c, 0, 72, 50
2, 18960, Note_on_c, 0, 72, 0
2, 18960, Note_on_c, 0, 67, 50
2, 18960, Note_on_c, 0, 70, 52
2, 18972, Note_on_c, 0, 70, 0
2, 18972, Note_on_c, 0, 69, 52
2, 18984, Note_on_c, 0, 69, 0
2, 18984, Note_on_c, 0, 67, 0
2, 18984, Note_on_c, 0, 66, 52
2, 18984, Note_on_c, 0, 70, 56
2, 18996, Note_on_c, 0, 70, 0
2, 18996, Note_on_c, 0, 66, 0
2, 18996, Note_on_c, 0, 68, 54
2, 18996, Note_on_c, 0, 72, 58
2, 19008, Note_on_c, 0, 72, 0
2, 19008, Note_on_c, 0, 68, 0
2, 19008, Note_on_c, 0, 65, 54
2, 19008, Note_on_c, 0, 73, 58
2, 19018, Note_on_c, 0, 73, 0
2, 19018, Note_on_c, 0, 65, 0
2, 19024, Note_on_c, 0, 73, 58
2, 19028, Note_on_c, 0, 73, 0
2, 19028, Note_on_c, 0, 75, 60
2, 19032, Note_on_c, 0, 75, 0
2, 19032, Note_on_c, 0, 70, 66
2, 19032, Note_on_c, 0, 73, 68
2, 19044, Note_on_c, 0, 73, 0
2, 19044, Note_on_c, 0, 72, 64
2, 19056, Note_on_c, 0, 72, 0
2, 19056, Note_on_c, 0, 70, 0
2, 19056, Note_on_c, 0, 69, 62
2, 19056, Note_on_c, 0, 73, 66
2, 19068, Note_on_c, 0, 73, 0
2, 19068, Note_on_c, 0, 69, 0
2, 19068, Note_on_c, 0, 71, 58
2, 19068, Note_on_c, 0, 75, 62
2, 19080, Note_on_c, 0, 75, 0
2, 19080, Note_on_c, 0, 71, 0
2, 19080, Note_on_c, 0, 68, 66
2, 19080, Note_on_c, 0, 76, 70
2, 19090, Note_on_c, 0, 76, 0
2, 19090, Note_on_c, 0, 68, 0
2, 19096, Note_on_c, 0, 76, 64
2, 19100, Note_on_c, 0, 76, 0
2, 19100, Note_on_c, 0, 78, 66
2, 19104, Note_on_c, 0, 78, 0
2, 19104, Note_on_c, 0, 73, 68
2, 19104, Note_on_c, 0, 76, 70
2, 19116, Note_on_c, 0, 76, 0
2, 19116, Note_on_c, 0, 75, 66
2, 19128, Note_on_c, 0, 75, 0
2, 19128, Note_on_c, 0, 73, 0
2, 19128, Note_on_c, 0, 72, 64
2, 19128, Note_on_c, 0, 76, 68
2, 19140, Note_on_c, 0, 76, 0
2, 19140, Note_on_c, 0, 72, 0
2, 19140, Note_on_c, 0, 74, 58
2, 19140, Note_on_c, 0, 78, 62
2, 19152, Note_on_c, 0, 78, 0
2, 19152, Note_on_c, 0, 74, 0
2, 19152, Note_on_c, 0, 70, 56
2, 19152, Note_on_c, 0, 76, 60
2, 19152, Note_on_c, 0, 79, 72
2, 19200, Note_on_c, 0, 79, 0
2, 19200, Note_on_c, 0, 76, 0
2, 19200, Note_on_c, 0, 70, 0
2, 19368, Note_on_c, 0, 62, 46
2, 19416, Note_on_c, 0, 62, 0
2, 19416, Note_on_c, 0, 64, 42
2, 19440, Note_on_c, 0, 64, 0
2, 19440, Note_on_c, 0, 54, 30
2, 19440, Note_on_c, 0, 60, 34
2, 19440, Note_on_c, 0, 62, 48
2, 19488, Note_on_c, 0, 62, 0
2, 19506, Note_on_c, 0, 60, 0
2, 19506, Note_on_c, 0, 54, 0
2, 19512, Note_on_c, 0, 54, 29
2, 19512, Note_on_c, 0, 60, 33
2, 19512, Note_on_c, 0, 62, 47
2, 19560, Note_on_c, 0, 62, 0
2, 19560, Note_on_c, 0, 64, 44
2, 19578, Note_on_c, 0, 60, 0
2, 19578, Note_on_c, 0, 54, 0
2, 19584, Note_on_c, 0, 64, 0
2, 19584, Note_on_c, 0, 55, 26
2, 19584, Note_on_c, 0, 59, 32
2, 19584, Note_on_c, 0, 62, 46
2, 19632, Note_on_c, 0, 50, 38
2, 19650, Note_on_c, 0, 62, 0
2, 19650, Note_on_c, 0, 55, 0
2, 19650, Note_on_c, 0, 59, 0
2, 19656, Note_on_c, 0, 50, 0
2, 19656, Note_on_c, 0, 55, 26
2, 19656, Note_on_c, 0, 59, 30
2, 19656, Note_on_c, 0, 62, 44
2, 19702, Note_on_c, 0, 62, 0
2, 19702, Note_on_c, 0, 59, 0
2, 19702, Note_on_c, 0, 55, 0
2, 19704, Note_on_c, 0, 71, 50
2, 19720, Note_on_c, 0, 71, 0
2, 19728, Note_on_c, 0, 60, 33
2, 19728, Note_on_c, 0, 71, 45
2, 19776, Note_on_c, 0, 71, 0
2, 19776, Note_on_c, 0, 69, 40
2, 19800, Note_on_c, 0, 69, 0
2, 19800, Note_on_c, 0, 67, 38
2, 19848, Note_on_c, 0, 67, 0
2, 19848, Note_on_c, 0, 64, 34
2, 19860, Note_on_c, 0, 60, 0
2, 19872, Note_on_c, 0, 64, 0
2, 19872, Note_on_c, 0, 59, 31
2, 19872, Note_on_c, 0, 62, 36
2, 19944, Note_on_c, 0, 62, 0
2, 19944, Note_on_c, 0, 59, 0
2, 20016, Note_on_c, 0, 54, 34
2, 20016, Note_on_c, 0, 60, 42
2, 20088, Note_on_c, 0, 60, 0
2, 20088, Note_on_c, 0, 54, 0
2, 20160, Note_on_c, 0, 50, 26
2, 20160, Note_on_c, 0, 55, 26
2, 20160, Note_on_c, 0, 59, 34
2, 20256, Note_on_c, 0, 59, 0
2, 20256, Note_on_c, 0, 55, 0
2, 20256, Note_on_c, 0, 50, 0
2, 20256, End_track
3, 0, Start_track
3, 0, Title_t, "LEFT HAND"
3, 144, Note_on_c, 0, 43, 46
3, 168, Note_on_c, 0, 43, 0
3, 168, Note_on_c, 0, 50, 38
3, 192, Note_on_c, 0, 50, 0
3, 192, Note_on_c, 0, 59, 44
3, 216, Note_on_c, 0, 59, 0
3, 216, Note_on_c, 0, 60, 38
3, 240, Note_on_c, 0, 60, 0
3, 240, Note_on_c, 0, 59, 36
3, 264, Note_on_c, 0, 59, 0
3, 264, Note_on_c, 0, 50, 34
3, 286, Note_on_c, 0, 50, 0
3, 288, Note_on_c, 0, 43, 44
3, 312, Note_on_c, 0, 43, 0
3, 312, Note_on_c, 0, 50, 38
3, 336, Note_on_c, 0, 50, 0
3, 336, Note_on_c, 0, 59, 43
3, 360, Note_on_c, 0, 59, 0
3, 360, Note_on_c, 0, 60, 38
3, 384, Note_on_c, 0, 60, 0
3, 384, Note_on_c, 0, 59, 36
3, 408, Note_on_c, 0, 59, 0
3, 408, Note_on_c, 0, 50, 34
3, 430, Note_on_c, 0, 50, 0
3, 432, Note_on_c, 0, 43, 44
3, 456, Note_on_c, 0, 43, 0
3, 456, Note_on_c, 0, 50, 38
3, 480, Note_on_c, 0, 50, 0
3, 480, Note_on_c, 0, 59, 42
3, 504, Note_on_c, 0, 59, 0
3, 504, Note_on_c, 0, 62, 38
3, 528, Note_on_c, 0, 62, 0
3, 528, Note_on_c, 0, 52, 36
3, 552, Note_on_c, 0, 52, 0
3, 552, Note_on_c, 0, 40, 38
3, 574, Note_on_c, 0, 40, 0
3, 576, Note_on_c, 0, 45, 34
3, 600, Note_on_c, 0, 45, 0
3, 600, Note_on_c, 0, 52, 38
3, 624, Note_on_c, 0, 52, 0
3, 624, Note_on_c, 0, 60, 38
3, 648, Note_on_c, 0, 60, 0
3, 648, Note_on_c, 0, 64, 36
3, 672, Note_on_c, 0, 64, 0
3, 672, Note_on_c, 0, 62, 34
3, 696, Note_on_c, 0, 62, 0
3, 696, Note_on_c, 0, 52, 30
3, 718, Note_on_c, 0, 52, 0
3, 720, Note_on_c, 0, 45, 34
3, 744, Note_on_c, 0, 45, 0
3, 744, Note_on_c, 0, 52, 38
3, 768, Note_on_c, 0, 52, 0
3, 768, Note_on_c, 0, 60, 38
3, 792, Note_on_c, 0, 60, 0
3, 792, Note_on_c, 0, 64, 34
3, 816, Note_on_c, 0, 64, 0
3, 816, Note_on_c, 0, 62, 32
3, 840, Note_on_c, 0, 62, 0
3, 840, Note_on_c, 0, 52, 28
3, 862, Note_on_c, 0, 52, 0
3, 864, Note_on_c, 0, 45, 36
3, 888, Note_on_c, 0, 45, 0
3, 888, Note_on_c, 0, 52, 34
3, 912, Note_on_c, 0, 52, 0
3, 912, Note_on_c, 0, 64, 38
3, 936, Note_on_c, 0, 64, 0
3, 936, Note_on_c, 0, 60, 36
3, 960, Note_on_c, 0, 60, 0
3, 960, Note_on_c, 0, 50, 37
3, 984, Note_on_c, 0, 50, 0
3, 984, Note_on_c, 0, 38, 38
3, 1006, Note_on_c, 0, 38, 0
3, 1008, Note_on_c, 0, 43, 36
3, 1032, Note_on_c, 0, 43, 0
3, 1032, Note_on_c, 0, 50, 36
3, 1056, Note_on_c, 0, 50, 0
3, 1056, Note_on_c, 0, 62, 46
3, 1080, Note_on_c, 0, 62, 0
3, 1080, Note_on_c, 0, 61, 42
3, 1104, Note_on_c, 0, 61, 0
3, 1104, Note_on_c, 0, 60, 40
3, 1128, Note_on_c, 0, 60, 0
3, 1128, Note_on_c, 0, 53, 34
3, 1150, Note_on_c, 0, 53, 0
3, 1152, Note_on_c, 0, 46, 36
3, 1176, Note_on_c, 0, 46, 0
3, 1176, Note_on_c, 0, 53, 36
3, 1200, Note_on_c, 0, 53, 0
3, 1200, Note_on_c, 0, 65, 42
3, 1224, Note_on_c, 0, 65, 0
3, 1224, Note_on_c, 0, 64, 40
3, 1248, Note_on_c, 0, 64, 0
3, 1248, Note_on_c, 0, 63, 38
3, 1272, Note_on_c, 0, 63, 0
3, 1272, Note_on_c, 0, 56, 32
3, 1294, Note_on_c, 0, 56, 0
3, 1296, Note_on_c, 0, 49, 36
3, 1320, Note_on_c, 0, 49, 0
3, 1320, Note_on_c, 0, 56, 36
3, 1344, Note_on_c, 0, 56, 0
3, 1344, Note_on_c, 0, 68, 40
3, 1368, Note_on_c, 0, 68, 0
3, 1368, Note_on_c, 0, 65, 36
3, 1392, Note_on_c, 0, 65, 0
3, 1392, Note_on_c, 0, 58, 40
3, 1416, Note_on_c, 0, 58, 0
3, 1416, Note_on_c, 0, 46, 36
3, 1438, Note_on_c, 0, 46, 0
3, 1440, Note_on_c, 0, 51, 32
3, 1464, Note_on_c, 0, 51, 0
3, 1464, Note_on_c, 0, 58, 44
3, 1488, Note_on_c, 0, 58, 0
3, 1488, Note_on_c, 0, 70, 50
3, 1512, Note_on_c, 0, 70, 0
3, 1512, Note_on_c, 0, 69, 46
3, 1536, Note_on_c, 0, 69, 0
3, 1536, Note_on_c, 0, 68, 42
3, 1560, Note_on_c, 0, 68, 0
3, 1560, Note_on_c, 0, 58, 44
3, 1582, Note_on_c, 0, 58, 0
3, 1584, Note_on_c, 0, 51, 36
3, 1608, Note_on_c, 0, 51, 0
3, 1608, Note_on_c, 0, 58, 44
3, 1632, Note_on_c, 0, 58, 0
3, 1632, Note_on_c, 0, 70, 52
3, 1656, Note_on_c, 0, 70, 0
3, 1656, Note_on_c, 0, 69, 42
3, 1680, Note_on_c, 0, 69, 0
3, 1680, Note_on_c, 0, 68, 38
3, 1704, Note_on_c, 0, 68, 0
3, 1704, Note_on_c, 0, 58, 40
3, 1726, Note_on_c, 0, 58, 0
3, 1728, Note_on_c, 0, 51, 36
3, 1752, Note_on_c, 0, 51, 0
3, 1752, Note_on_c, 0, 58, 36
3, 1776, Note_on_c, 0, 58, 0
3, 1776, Note_on_c, 0, 70, 34
3, 1800, Note_on_c, 0, 70, 0
3, 1800, Note_on_c, 0, 66, 30
3, 1824, Note_on_c, 0, 66, 0
3, 1824, Note_on_c, 0, 56, 40
3, 1848, Note_on_c, 0, 56, 0
3, 1848, Note_on_c, 0, 44, 42
3, 1870, Note_on_c, 0, 44, 0
3, 1872, Note_on_c, 0, 49, 34
3, 1896, Note_on_c, 0, 49, 0
3, 1896, Note_on_c, 0, 56, 46
3, 1920, Note_on_c, 0, 56, 0
3, 1920, Note_on_c, 0, 68, 44
3, 1944, Note_on_c, 0, 68, 0
3, 1944, Note_on_c, 0, 65, 48
3, 1968, Note_on_c, 0, 65, 0
3, 1968, Note_on_c, 0, 56, 42
3, 1992, Note_on_c, 0, 56, 0
3, 1992, Note_on_c, 0, 49, 46
3, 2014, Note_on_c, 0, 49, 0
3, 2016, Note_on_c, 0, 41, 50
3, 2040, Note_on_c, 0, 41, 0
3, 2040, Note_on_c, 0, 53, 34
3, 2064, Note_on_c, 0, 53, 0
3, 2064, Note_on_c, 0, 65, 38
3, 2088, Note_on_c, 0, 65, 0
3, 2088, Note_on_c, 0, 58, 42
3, 2112, Note_on_c, 0, 58, 0
3, 2112, Note_on_c, 0, 46, 42
3, 2136, Note_on_c, 0, 46, 0
3, 2136, Note_on_c, 0, 48, 40
3, 2158, Note_on_c, 0, 48, 0
3, 2160, Note_on_c, 0, 41, 46
3, 2184, Note_on_c, 0, 41, 0
3, 2184, Note_on_c, 0, 48, 38
3, 2208, Note_on_c, 0, 48, 0
3, 2208, Note_on_c, 0, 57, 40
3, 2232, Note_on_c, 0, 57, 0
3, 2232, Note_on_c, 0, 50, 48
3, 2256, Note_on_c, 0, 50, 0
3, 2256, Note_on_c, 0, 57, 50
3, 2280, Note_on_c, 0, 57, 0
3, 2280, Note_on_c, 0, 69, 48
3, 2302, Note_on_c, 0, 69, 0
3, 2304, Note_on_c, 0, 40, 50
3, 2328, Note_on_c, 0, 40, 0
3, 2328, Note_on_c, 0, 52, 44
3, 2352, Note_on_c, 0, 52, 0
3, 2352, Note_on_c, 0, 64, 48
3, 2376, Note_on_c, 0, 64, 0
3, 2376, Note_on_c, 0, 54, 40
3, 2400, Note_on_c, 0, 54, 0
3, 2400, Note_on_c, 0, 52, 38
3, 2424, Note_on_c, 0, 52, 0
3, 2424, Note_on_c, 0, 56, 34
3, 2446, Note_on_c, 0, 56, 0
3, 2448, Note_on_c, 0, 45, 38
3, 2472, Note_on_c, 0, 45, 0
3, 2472, Note_on_c, 0, 57, 40
3, 2496, Note_on_c, 0, 57, 0
3, 2496, Note_on_c, 0, 64, 38
3, 2520, Note_on_c, 0, 64, 0
3, 2520, Note_on_c, 0, 50, 42
3, 2544, Note_on_c, 0, 50, 0
3, 2544, Note_on_c, 0, 57, 38
3, 2568, Note_on_c, 0, 57, 0
3, 2568, Note_on_c, 0, 65, 40
3, 2590, Note_on_c, 0, 65, 0
3, 2592, Note_on_c, 0, 40, 46
3, 2616, Note_on_c, 0, 40, 0
3, 2616, Note_on_c, 0, 52, 44
3, 2640, Note_on_c, 0, 52, 0
3, 2640, Note_on_c, 0, 64, 50
3, 2664, Note_on_c, 0, 64, 0
3, 2664, Note_on_c, 0, 54, 40
3, 2688, Note_on_c, 0, 54, 0
3, 2688, Note_on_c, 0, 52, 38
3, 2712, Note_on_c, 0, 52, 0
3, 2712, Note_on_c, 0, 56, 34
3, 2734, Note_on_c, 0, 56, 0
3, 2736, Note_on_c, 0, 45, 34
3, 2760, Note_on_c, 0, 45, 0
3, 2760, Note_on_c, 0, 57, 36
3, 2784, Note_on_c, 0, 57, 0
3, 2784, Note_on_c, 0, 64, 34
3, 2808, Note_on_c, 0, 64, 0
3, 2808, Note_on_c, 0, 50, 38
3, 2832, Note_on_c, 0, 50, 0
3, 2832, Note_on_c, 0, 57, 34
3, 2856, Note_on_c, 0, 57, 0
3, 2856, Note_on_c, 0, 65, 32
3, 2878, Note_on_c, 0, 65, 0
3, 2880, Note_on_c, 0, 40, 42
3, 2904, Note_on_c, 0, 40, 0
3, 2904, Note_on_c, 0, 52, 32
3, 2928, Note_on_c, 0, 52, 0
3, 2928, Note_on_c, 0, 64, 40
3, 2952, Note_on_c, 0, 64, 0
3, 2952, Note_on_c, 0, 54, 40
3, 2976, Note_on_c, 0, 54, 0
3, 2976, Note_on_c, 0, 52, 32
3, 3000, Note_on_c, 0, 52, 0
3, 3000, Note_on_c, 0, 56, 30
3, 3022, Note_on_c, 0, 56, 0
3, 3024, Note_on_c, 0, 45, 36
3, 3048, Note_on_c, 0, 45, 0
3, 3048, Note_on_c, 0, 52, 42
3, 3072, Note_on_c, 0, 52, 0
3, 3072, Note_on_c, 0, 57, 40
3, 3096, Note_on_c, 0, 57, 0
3, 3096, Note_on_c, 0, 52, 42
3, 3120, Note_on_c, 0, 52, 0
3, 3120, Note_on_c, 0, 45, 46
3, 3144, Note_on_c, 0, 45, 0
3, 3144, Note_on_c, 0, 38, 42
3, 3166, Note_on_c, 0, 38, 0
3, 3168, Note_on_c, 0, 43, 48
3, 3192, Note_on_c, 0, 43, 0
3, 3192, Note_on_c, 0, 50, 50
3, 3216, Note_on_c, 0, 50, 0
3, 3216, Note_on_c, 0, 55, 50
3, 3240, Note_on_c, 0, 55, 0
3, 3240, Note_on_c, 0, 50, 42
3, 3264, Note_on_c, 0, 50, 0
3, 3264, Note_on_c, 0, 43, 38
3, 3288, Note_on_c, 0, 43, 0
3, 3288, Note_on_c, 0, 36, 32
3, 3310, Note_on_c, 0, 36, 0
3, 3312, Note_on_c, 0, 41, 38
3, 3336, Note_on_c, 0, 41, 0
3, 3336, Note_on_c, 0, 53, 40
3, 3360, Note_on_c, 0, 53, 0
3, 3360, Note_on_c, 0, 60, 42
3, 3384, Note_on_c, 0, 60, 0
3, 3384, Note_on_c, 0, 46, 42
3, 3408, Note_on_c, 0, 46, 0
3, 3408, Note_on_c, 0, 53, 40
3, 3432, Note_on_c, 0, 53, 0
3, 3432, Note_on_c, 0, 61, 36
3, 3454, Note_on_c, 0, 61, 0
3, 3456, Note_on_c, 0, 36, 46
3, 3480, Note_on_c, 0, 36, 0
3, 3480, Note_on_c, 0, 48, 40
3, 3504, Note_on_c, 0, 48, 0
3, 3504, Note_on_c, 0, 60, 46
3, 3528, Note_on_c, 0, 60, 0
3, 3528, Note_on_c, 0, 50, 38
3, 3552, Note_on_c, 0, 50, 0
3, 3552, Note_on_c, 0, 48, 34
3, 3576, Note_on_c, 0, 48, 0
3, 3576, Note_on_c, 0, 52, 30
3, 3598, Note_on_c, 0, 52, 0
3, 3600, Note_on_c, 0, 41, 38
3, 3624, Note_on_c, 0, 41, 0
3, 3624, Note_on_c, 0, 53, 36
3, 3648, Note_on_c, 0, 53, 0
3, 3648, Note_on_c, 0, 60, 38
3, 3672, Note_on_c, 0, 60, 0
3, 3672, Note_on_c, 0, 46, 42
3, 3696, Note_on_c, 0, 46, 0
3, 3696, Note_on_c, 0, 56, 38
3, 3720, Note_on_c, 0, 56, 0
3, 3720, Note_on_c, 0, 34, 38
3, 3768, Note_on_c, 0, 34, 0
3, 3768, Note_on_c, 0, 33, 45
3, 3792, Note_on_c, 0, 33, 0
3, 3792, Note_on_c, 0, 54, 52
3, 3814, Note_on_c, 0, 54, 0
3, 3816, Note_on_c, 0, 51, 44
3, 3838, Note_on_c, 0, 51, 0
3, 3840, Note_on_c, 0, 44, 46
3, 3862, Note_on_c, 0, 44, 0
3, 3864, Note_on_c, 0, 32, 48
3, 3912, Note_on_c, 0, 32, 0
3, 3912, Note_on_c, 0, 31, 42
3, 3934, Note_on_c, 0, 31, 0
3, 3936, Note_on_c, 0, 52, 44
3, 3958, Note_on_c, 0, 52, 0
3, 3960, Note_on_c, 0, 49, 36
3, 3982, Note_on_c, 0, 49, 0
3, 3984, Note_on_c, 0, 42, 40
3, 4006, Note_on_c, 0, 42, 0
3, 4008, Note_on_c, 0, 30, 38
3, 4030, Note_on_c, 0, 30, 0
3, 4032, Note_on_c, 0, 40, 50
3, 4308, Note_on_c, 0, 40, 0
3, 4320, Note_on_c, 0, 38, 52
3, 4452, Note_on_c, 0, 38, 0
3, 4464, Note_on_c, 0, 36, 54
3, 4596, Note_on_c, 0, 36, 0
3, 4608, Note_on_c, 0, 48, 46
3, 4608, Note_on_c, 0, 57, 50
3, 4752, Note_on_c, 0, 57, 0
3, 4752, Note_on_c, 0, 55, 46
3, 4846, Note_on_c, 0, 55, 0
3, 4846, Note_on_c, 0, 48, 0
3, 4896, Note_on_c, 0, 31, 44
3, 4896, Note_on_c, 0, 43, 44
3, 5028, Note_on_c, 0, 43, 0
3, 5028, Note_on_c, 0, 31, 0
3, 5040, Note_on_c, 0, 36, 42
3, 5040, Note_on_c, 0, 48, 42
3, 5172, Note_on_c, 0, 48, 0
3, 5172, Note_on_c, 0, 36, 0
3, 5184, Note_on_c, 0, 45, 44
3, 5184, Note_on_c, 0, 52, 46
3, 5316, Note_on_c, 0, 52, 0
3, 5316, Note_on_c, 0, 45, 0
3, 5328, Note_on_c, 0, 40, 30
3, 5328, Note_on_c, 0, 52, 30
3, 5422, Note_on_c, 0, 52, 0
3, 5422, Note_on_c, 0, 40, 0
3, 5472, Note_on_c, 0, 35, 34
3, 5472, Note_on_c, 0, 47, 34
3, 5604, Note_on_c, 0, 47, 0
3, 5604, Note_on_c, 0, 35, 0
3, 5616, Note_on_c, 0, 40, 40
3, 5616, Note_on_c, 0, 52, 40
3, 5748, Note_on_c, 0, 52, 0
3, 5748, Note_on_c, 0, 40, 0
3, 5760, Note_on_c, 0, 52, 34
3, 5760, Note_on_c, 0, 61, 38
3, 5904, Note_on_c, 0, 61, 0
3, 5904, Note_on_c, 0, 59, 30
3, 5998, Note_on_c, 0, 59, 0
3, 5998, Note_on_c, 0, 52, 0
3, 6048, Note_on_c, 0, 35, 36
3, 6048, Note_on_c, 0, 47, 36
3, 6180, Note_on_c, 0, 47, 0
3, 6180, Note_on_c, 0, 35, 0
3, 6192, Note_on_c, 0, 40, 46
3, 6192, Note_on_c, 0, 52, 46
3, 6324, Note_on_c, 0, 52, 0
3, 6324, Note_on_c, 0, 40, 0
3, 6336, Note_on_c, 0, 42, 50
3, 6336, Note_on_c, 0, 54, 50
3, 6468, Note_on_c, 0, 54, 0
3, 6468, Note_on_c, 0, 42, 0
3, 6480, Note_on_c, 0, 41, 32
3, 6480, Note_on_c, 0, 53, 32
3, 6528, Note_on_c, 0, 41, 0
3, 6552, Note_on_c, 0, 61, 42
3, 6600, Note_on_c, 0, 61, 0
3, 6600, Note_on_c, 0, 62, 44
3, 6612, Note_on_c, 0, 53, 0
3, 6616, Note_on_c, 0, 62, 0
3, 6624, Note_on_c, 0, 42, 40
3, 6624, Note_on_c, 0, 54, 40
3, 6624, Note_on_c, 0, 62, 44
3, 6672, Note_on_c, 0, 62, 0
3, 6672, Note_on_c, 0, 42, 0
3, 6672, Note_on_c, 0, 61, 42
3, 6688, Note_on_c, 0, 61, 0
3, 6696, Note_on_c, 0, 61, 52
3, 6744, Note_on_c, 0, 61, 0
3, 6744, Note_on_c, 0, 66, 46
3, 6756, Note_on_c, 0, 54, 0
3, 6760, Note_on_c, 0, 66, 0
3, 6768, Note_on_c, 0, 56, 38
3, 6768, Note_on_c, 0, 59, 40
3, 6768, Note_on_c, 0, 61, 42
3, 6768, Note_on_c, 0, 66, 46
3, 6816, Note_on_c, 0, 66, 0
3, 6816, Note_on_c, 0, 65, 38
3, 6832, Note_on_c, 0, 65, 0
3, 6840, Note_on_c, 0, 65, 46
3, 6888, Note_on_c, 0, 65, 0
3, 6888, Note_on_c, 0, 62, 44
3, 6900, Note_on_c, 0, 56, 0
3, 6900, Note_on_c, 0, 61, 0
3, 6900, Note_on_c, 0, 59, 0
3, 6904, Note_on_c, 0, 62, 0
3, 6912, Note_on_c, 0, 57, 42
3, 6912, Note_on_c, 0, 62, 48
3, 6960, Note_on_c, 0, 62, 0
3, 6960, Note_on_c, 0, 61, 46
3, 6976, Note_on_c, 0, 61, 0
3, 6984, Note_on_c, 0, 61, 53
3, 7032, Note_on_c, 0, 61, 0
3, 7032, Note_on_c, 0, 62, 54
3, 7044, Note_on_c, 0, 57, 0
3, 7048, Note_on_c, 0, 62, 0
3, 7056, Note_on_c, 0, 43, 50
3, 7056, Note_on_c, 0, 55, 48
3, 7104, Note_on_c, 0, 43, 0
3, 7128, Note_on_c, 0, 63, 60
3, 7176, Note_on_c, 0, 63, 0
3, 7176, Note_on_c, 0, 64, 58
3, 7188, Note_on_c, 0, 55, 0
3, 7192, Note_on_c, 0, 64, 0
3, 7200, Note_on_c, 0, 44, 52
3, 7200, Note_on_c, 0, 56, 52
3, 7248, Note_on_c, 0, 44, 0
3, 7248, Note_on_c, 0, 63, 62
3, 7264, Note_on_c, 0, 63, 0
3, 7272, Note_on_c, 0, 63, 63
3, 7320, Note_on_c, 0, 63, 0
3, 7320, Note_on_c, 0, 68, 70
3, 7332, Note_on_c, 0, 56, 0
3, 7336, Note_on_c, 0, 68, 0
3, 7344, Note_on_c, 0, 58, 64
3, 7344, Note_on_c, 0, 61, 68
3, 7344, Note_on_c, 0, 68, 70
3, 7392, Note_on_c, 0, 68, 0
3, 7392, Note_on_c, 0, 67, 58
3, 7408, Note_on_c, 0, 67, 0
3, 7416, Note_on_c, 0, 67, 56
3, 7464, Note_on_c, 0, 67, 0
3, 7464, Note_on_c, 0, 66, 50
3, 7480, Note_on_c, 0, 66, 0
3, 7488, Note_on_c, 0, 66, 48
3, 7536, Note_on_c, 0, 66, 0
3, 7536, Note_on_c, 0, 65, 44
3, 7552, Note_on_c, 0, 65, 0
3, 7560, Note_on_c, 0, 65, 43
3, 7608, Note_on_c, 0, 65, 0
3, 7608, Note_on_c, 0, 64, 38
3, 7620, Note_on_c, 0, 61, 0
3, 7620, Note_on_c, 0, 58, 0
3, 7632, Note_on_c, 0, 64, 0
3, 7632, Note_on_c, 0, 57, 30
3, 7632, Note_on_c, 0, 60, 34
3, 7632, Note_on_c, 0, 65, 38
3, 7698, Note_on_c, 0, 65, 0
3, 7698, Note_on_c, 0, 60, 0
3, 7698, Note_on_c, 0, 57, 0
3, 7776, Note_on_c, 0, 29, 38
3, 7776, Note_on_c, 0, 41, 38
3, 7908, Note_on_c, 0, 41, 0
3, 7908, Note_on_c, 0, 29, 0
3, 7920, Note_on_c, 0, 34, 36
3, 7920, Note_on_c, 0, 46, 36
3, 8052, Note_on_c, 0, 46, 0
3, 8052, Note_on_c, 0, 34, 0
3, 8064, Note_on_c, 0, 46, 38
3, 8064, Note_on_c, 0, 55, 40
3, 8208, Note_on_c, 0, 55, 0
3, 8208, Note_on_c, 0, 53, 30
3, 8302, Note_on_c, 0, 53, 0
3, 8302, Note_on_c, 0, 46, 0
3, 8352, Note_on_c, 0, 29, 40
3, 8352, Note_on_c, 0, 41, 40
3, 8484, Note_on_c, 0, 41, 0
3, 8484, Note_on_c, 0, 29, 0
3, 8496, Note_on_c, 0, 34, 38
3, 8496, Note_on_c, 0, 46, 38
3, 8628, Note_on_c, 0, 46, 0
3, 8628, Note_on_c, 0, 34, 0
3, 8640, Note_on_c, 0, 43, 40
3, 8640, Note_on_c, 0, 50, 40
3, 8640, Note_on_c, 0, 55, 42
3, 8772, Note_on_c, 0, 55, 0
3, 8772, Note_on_c, 0, 50, 0
3, 8772, Note_on_c, 0, 43, 0
3, 8784, Note_on_c, 0, 38, 34
3, 8784, Note_on_c, 0, 50, 34
3, 8916, Note_on_c, 0, 50, 0
3, 8916, Note_on_c, 0, 38, 0
3, 8928, Note_on_c, 0, 33, 34
3, 8928, Note_on_c, 0, 45, 34
3, 9060, Note_on_c, 0, 45, 0
3, 9060, Note_on_c, 0, 33, 0
3, 9072, Note_on_c, 0, 38, 38
3, 9072, Note_on_c, 0, 50, 38
3, 9204, Note_on_c, 0, 50, 0
3, 9204, Note_on_c, 0, 38, 0
3, 9216, Note_on_c, 0, 50, 34
3, 9216, Note_on_c, 0, 59, 38
3, 9360, Note_on_c, 0, 59, 0
3, 9360, Note_on_c, 0, 57, 30
3, 9454, Note_on_c, 0, 57, 0
3, 9454, Note_on_c, 0, 50, 0
3, 9504, Note_on_c, 0, 33, 36
3, 9504, Note_on_c, 0, 45, 36
3, 9636, Note_on_c, 0, 45, 0
3, 9636, Note_on_c, 0, 33, 0
3, 9648, Note_on_c, 0, 38, 46
3, 9648, Note_on_c, 0, 50, 46
3, 9780, Note_on_c, 0, 50, 0
3, 9780, Note_on_c, 0, 38, 0
3, 9792, Note_on_c, 0, 40, 50
3, 9792, Note_on_c, 0, 52, 50
3, 9924, Note_on_c, 0, 52, 0
3, 9924, Note_on_c, 0, 40, 0
3, 9936, Note_on_c, 0, 38, 48
3, 9960, Note_on_c, 0, 38, 0
3, 9960, Note_on_c, 0, 50, 44
3, 9984, Note_on_c, 0, 50, 0
3, 9984, Note_on_c, 0, 59, 50
3, 10008, Note_on_c, 0, 59, 0
3, 10008, Note_on_c, 0, 60, 46
3, 10032, Note_on_c, 0, 60, 0
3, 10032, Note_on_c, 0, 59, 44
3, 10056, Note_on_c, 0, 59, 0
3, 10056, Note_on_c, 0, 50, 40
3, 10078, Note_on_c, 0, 50, 0
3, 10080, Note_on_c, 0, 38, 46
3, 10104, Note_on_c, 0, 38, 0
3, 10104, Note_on_c, 0, 50, 42
3, 10128, Note_on_c, 0, 50, 0
3, 10128, Note_on_c, 0, 59, 48
3, 10152, Note_on_c, 0, 59, 0
3, 10152, Note_on_c, 0, 60, 46
3, 10176, Note_on_c, 0, 60, 0
3, 10176, Note_on_c, 0, 59, 44
3, 10200, Note_on_c, 0, 59, 0
3, 10200, Note_on_c, 0, 50, 42
3, 10222, Note_on_c, 0, 50, 0
3, 10224, Note_on_c, 0, 38, 46
3, 10248, Note_on_c, 0, 38, 0
3, 10248, Note_on_c, 0, 50, 42
3, 10272, Note_on_c, 0, 50, 0
3, 10272, Note_on_c, 0, 59, 48
3, 10296, Note_on_c, 0, 59, 0
3, 10296, Note_on_c, 0, 62, 46
3, 10320, Note_on_c, 0, 62, 0
3, 10320, Note_on_c, 0, 59, 44
3, 10344, Note_on_c, 0, 59, 0
3, 10344, Note_on_c, 0, 50, 42
3, 10366, Note_on_c, 0, 50, 0
3, 10368, Note_on_c, 0, 38, 44
3, 10392, Note_on_c, 0, 38, 0
3, 10392, Note_on_c, 0, 50, 40
3, 10416, Note_on_c, 0, 50, 0
3, 10416, Note_on_c, 0, 60, 46
3, 10440, Note_on_c, 0, 60, 0
3, 10440, Note_on_c, 0, 64, 48
3, 10464, Note_on_c, 0, 64, 0
3, 10464, Note_on_c, 0, 62, 42
3, 10488, Note_on_c, 0, 62, 0
3, 10488, Note_on_c, 0, 50, 38
3, 10510, Note_on_c, 0, 50, 0
3, 10512, Note_on_c, 0, 38, 44
3, 10536, Note_on_c, 0, 38, 0
3, 10536, Note_on_c, 0, 50, 40
3, 10560, Note_on_c, 0, 50, 0
3, 10560, Note_on_c, 0, 60, 46
3, 10584, Note_on_c, 0, 60, 0
3, 10584, Note_on_c, 0, 64, 42
3, 10608, Note_on_c, 0, 64, 0
3, 10608, Note_on_c, 0, 62, 40
3, 10632, Note_on_c, 0, 62, 0
3, 10632, Note_on_c, 0, 50, 38
3, 10654, Note_on_c, 0, 50, 0
3, 10656, Note_on_c, 0, 38, 42
3, 10680, Note_on_c, 0, 38, 0
3, 10680, Note_on_c, 0, 50, 40
3, 10704, Note_on_c, 0, 50, 0
3, 10704, Note_on_c, 0, 64, 44
3, 10728, Note_on_c, 0, 64, 0
3, 10728, Note_on_c, 0, 60, 44
3, 10752, Note_on_c, 0, 60, 0
3, 10752, Note_on_c, 0, 50, 42
3, 10776, Note_on_c, 0, 50, 0
3, 10776, Note_on_c, 0, 38, 40
3, 10798, Note_on_c, 0, 38, 0
3, 10800, Note_on_c, 0, 43, 36
3, 10824, Note_on_c, 0, 43, 0
3, 10824, Note_on_c, 0, 50, 36
3, 10848, Note_on_c, 0, 50, 0
3, 10848, Note_on_c, 0, 62, 46
3, 10872, Note_on_c, 0, 62, 0
3, 10872, Note_on_c, 0, 61, 42
3, 10896, Note_on_c, 0, 61, 0
3, 10896, Note_on_c, 0, 60, 40
3, 10920, Note_on_c, 0, 60, 0
3, 10920, Note_on_c, 0, 53, 34
3, 10942, Note_on_c, 0, 53, 0
3, 10944, Note_on_c, 0, 46, 36
3, 10968, Note_on_c, 0, 46, 0
3, 10968, Note_on_c, 0, 53, 36
3, 10992, Note_on_c, 0, 53, 0
3, 10992, Note_on_c, 0, 65, 42
3, 11016, Note_on_c, 0, 65, 0
3, 11016, Note_on_c, 0, 64, 40
3, 11040, Note_on_c, 0, 64, 0
3, 11040, Note_on_c, 0, 63, 38
3, 11064, Note_on_c, 0, 63, 0
3, 11064, Note_on_c, 0, 56, 32
3, 11086, Note_on_c, 0, 56, 0
3, 11088, Note_on_c, 0, 49, 36
3, 11112, Note_on_c, 0, 49, 0
3, 11112, Note_on_c, 0, 56, 36
3, 11136, Note_on_c, 0, 56, 0
3, 11136, Note_on_c, 0, 68, 40
3, 11160, Note_on_c, 0, 68, 0
3, 11160, Note_on_c, 0, 65, 36
3, 11184, Note_on_c, 0, 65, 0
3, 11184, Note_on_c, 0, 58, 40
3, 11208, Note_on_c, 0, 58, 0
3, 11208, Note_on_c, 0, 46, 36
3, 11230, Note_on_c, 0, 46, 0
3, 11232, Note_on_c, 0, 51, 38
3, 11256, Note_on_c, 0, 51, 0
3, 11256, Note_on_c, 0, 58, 42
3, 11280, Note_on_c, 0, 58, 0
3, 11280, Note_on_c, 0, 70, 50
3, 11304, Note_on_c, 0, 70, 0
3, 11304, Note_on_c, 0, 69, 48
3, 11328, Note_on_c, 0, 69, 0
3, 11328, Note_on_c, 0, 68, 42
3, 11352, Note_on_c, 0, 68, 0
3, 11352, Note_on_c, 0, 61, 32
3, 11374, Note_on_c, 0, 61, 0
3, 11376, Note_on_c, 0, 54, 42
3, 11400, Note_on_c, 0, 54, 0
3, 11400, Note_on_c, 0, 61, 46
3, 11424, Note_on_c, 0, 61, 0
3, 11424, Note_on_c, 0, 73, 52
3, 11448, Note_on_c, 0, 73, 0
3, 11448, Note_on_c, 0, 72, 50
3, 11472, Note_on_c, 0, 72, 0
3, 11472, Note_on_c, 0, 71, 44
3, 11496, Note_on_c, 0, 71, 0
3, 11496, Note_on_c, 0, 64, 46
3, 11518, Note_on_c, 0, 64, 0
3, 11520, Note_on_c, 0, 57, 44
3, 11544, Note_on_c, 0, 57, 0
3, 11544, Note_on_c, 0, 64, 46
3, 11568, Note_on_c, 0, 64, 0
3, 11568, Note_on_c, 0, 76, 48
3, 11592, Note_on_c, 0, 76, 0
3, 11592, Note_on_c, 0, 73, 52
3, 11616, Note_on_c, 0, 73, 0
3, 11616, Note_on_c, 0, 66, 38
3, 11640, Note_on_c, 0, 66, 0
3, 11640, Note_on_c, 0, 54, 42
3, 11662, Note_on_c, 0, 54, 0
3, 11664, Note_on_c, 0, 47, 40
3, 11688, Note_on_c, 0, 47, 0
3, 11688, Note_on_c, 0, 54, 38
3, 11712, Note_on_c, 0, 54, 0
3, 11712, Note_on_c, 0, 66, 40
3, 11736, Note_on_c, 0, 66, 0
3, 11736, Note_on_c, 0, 62, 36
3, 11760, Note_on_c, 0, 62, 0
3, 11760, Note_on_c, 0, 52, 35
3, 11784, Note_on_c, 0, 52, 0
3, 11784, Note_on_c, 0, 40, 44
3, 11832, Note_on_c, 0, 40, 0
3, 11832, Note_on_c, 0, 39, 46
3, 11854, Note_on_c, 0, 39, 0
3, 11856, Note_on_c, 0, 55, 52
3, 11880, Note_on_c, 0, 55, 0
3, 11880, Note_on_c, 0, 54, 46
3, 11904, Note_on_c, 0, 54, 0
3, 11904, Note_on_c, 0, 45, 52
3, 11928, Note_on_c, 0, 45, 0
3, 11928, Note_on_c, 0, 38, 48
3, 11974, Note_on_c, 0, 38, 0
3, 11976, Note_on_c, 0, 37, 40
3, 11998, Note_on_c, 0, 37, 0
3, 12000, Note_on_c, 0, 53, 46
3, 12022, Note_on_c, 0, 53, 0
3, 12024, Note_on_c, 0, 52, 42
3, 12046, Note_on_c, 0, 52, 0
3, 12048, Note_on_c, 0, 43, 38
3, 12070, Note_on_c, 0, 43, 0
3, 12072, Note_on_c, 0, 36, 38
3, 12118, Note_on_c, 0, 36, 0
3, 12120, Note_on_c, 0, 35, 44
3, 12142, Note_on_c, 0, 35, 0
3, 12144, Note_on_c, 0, 54, 48
3, 12166, Note_on_c, 0, 54, 0
3, 12288, Note_on_c, 0, 47, 52
3, 12312, Note_on_c, 0, 47, 0
3, 12384, Note_on_c, 0, 28, 36
3, 12384, Note_on_c, 0, 40, 36
3, 12516, Note_on_c, 0, 40, 0
3, 12516, Note_on_c, 0, 28, 0
3, 12528, Note_on_c, 0, 40, 46
3, 12528, Note_on_c, 0, 49, 50
3, 12672, Note_on_c, 0, 49, 0
3, 12672, Note_on_c, 0, 47, 46
3, 12766, Note_on_c, 0, 47, 0
3, 12766, Note_on_c, 0, 40, 0
3, 12816, Note_on_c, 0, 35, 44
3, 12948, Note_on_c, 0, 35, 0
3, 12960, Note_on_c, 0, 28, 42
3, 12960, Note_on_c, 0, 40, 42
3, 13092, Note_on_c, 0, 40, 0
3, 13092, Note_on_c, 0, 28, 0
3, 13104, Note_on_c, 0, 37, 46
3, 13110, Note_on_c, 0, 44, 42
3, 13236, Note_on_c, 0, 44, 0
3, 13236, Note_on_c, 0, 37, 0
3, 13248, Note_on_c, 0, 32, 30
3, 13248, Note_on_c, 0, 44, 30
3, 13342, Note_on_c, 0, 44, 0
3, 13342, Note_on_c, 0, 32, 0
3, 13392, Note_on_c, 0, 27, 34
3, 13392, Note_on_c, 0, 39, 34
3, 13524, Note_on_c, 0, 39, 0
3, 13524, Note_on_c, 0, 27, 0
3, 13536, Note_on_c, 0, 32, 40
3, 13536, Note_on_c, 0, 44, 40
3, 13668, Note_on_c, 0, 44, 0
3, 13668, Note_on_c, 0, 32, 0
3, 13680, Note_on_c, 0, 44, 34
3, 13680, Note_on_c, 0, 53, 38
3, 13824, Note_on_c, 0, 53, 0
3, 13824, Note_on_c, 0, 51, 34
3, 13918, Note_on_c, 0, 51, 0
3, 13918, Note_on_c, 0, 44, 0
3, 13968, Note_on_c, 0, 27, 42
3, 13968, Note_on_c, 0, 39, 42
3, 14100, Note_on_c, 0, 39, 0
3, 14100, Note_on_c, 0, 27, 0
3, 14112, Note_on_c, 0, 32, 46
3, 14112, Note_on_c, 0, 44, 46
3, 14244, Note_on_c, 0, 44, 0
3, 14244, Note_on_c, 0, 32, 0
3, 14256, Note_on_c, 0, 34, 50
3, 14256, Note_on_c, 0, 46, 50
3, 14388, Note_on_c, 0, 46, 0
3, 14388, Note_on_c, 0, 34, 0
3, 14400, Note_on_c, 0, 33, 34
3, 14400, Note_on_c, 0, 45, 34
3, 14448, Note_on_c, 0, 33, 0
3, 14472, Note_on_c, 0, 53, 44
3, 14520, Note_on_c, 0, 53, 0
3, 14520, Note_on_c, 0, 54, 46
3, 14532, Note_on_c, 0, 45, 0
3, 14536, Note_on_c, 0, 54, 0
3, 14544, Note_on_c, 0, 34, 42
3, 14544, Note_on_c, 0, 46, 42
3, 14592, Note_on_c, 0, 34, 0
3, 14592, Note_on_c, 0, 53, 44
3, 14608, Note_on_c, 0, 53, 0
3, 14616, Note_on_c, 0, 53, 54
3, 14664, Note_on_c, 0, 53, 0
3, 14664, Note_on_c, 0, 58, 48
3, 14676, Note_on_c, 0, 46, 0
3, 14680, Note_on_c, 0, 58, 0
3, 14688, Note_on_c, 0, 48, 40
3, 14688, Note_on_c, 0, 58, 48
3, 14736, Note_on_c, 0, 58, 0
3, 14736, Note_on_c, 0, 57, 40
3, 14752, Note_on_c, 0, 57, 0
3, 14760, Note_on_c, 0, 57, 48
3, 14808, Note_on_c, 0, 57, 0
3, 14808, Note_on_c, 0, 54, 46
3, 14820, Note_on_c, 0, 48, 0
3, 14824, Note_on_c, 0, 54, 0
3, 14832, Note_on_c, 0, 49, 44
3, 14832, Note_on_c, 0, 54, 50
3, 14880, Note_on_c, 0, 54, 0
3, 14880, Note_on_c, 0, 53, 48
3, 14896, Note_on_c, 0, 53, 0
3, 14904, Note_on_c, 0, 53, 55
3, 14952, Note_on_c, 0, 53, 0
3, 14952, Note_on_c, 0, 54, 56
3, 14964, Note_on_c, 0, 49, 0
3, 14968, Note_on_c, 0, 54, 0
3, 14976, Note_on_c, 0, 35, 46
3, 14976, Note_on_c, 0, 47, 46
3, 15042, Note_on_c, 0, 35, 0
3, 15048, Note_on_c, 0, 55, 58
3, 15096, Note_on_c, 0, 55, 0
3, 15096, Note_on_c, 0, 56, 56
3, 15108, Note_on_c, 0, 47, 0
3, 15112, Note_on_c, 0, 56, 0
3, 15120, Note_on_c, 0, 36, 50
3, 15120, Note_on_c, 0, 48, 50
3, 15168, Note_on_c, 0, 55, 60
3, 15184, Note_on_c, 0, 55, 0
3, 15186, Note_on_c, 0, 36, 0
3, 15192, Note_on_c, 0, 55, 61
3, 15240, Note_on_c, 0, 55, 0
3, 15240, Note_on_c, 0, 60, 68
3, 15252, Note_on_c, 0, 48, 0
3, 15256, Note_on_c, 0, 60, 0
3, 15264, Note_on_c, 0, 50, 62
3, 15264, Note_on_c, 0, 53, 66
3, 15264, Note_on_c, 0, 60, 68
3, 15312, Note_on_c, 0, 60, 0
3, 15312, Note_on_c, 0, 59, 56
3, 15328, Note_on_c, 0, 59, 0
3, 15336, Note_on_c, 0, 59, 54
3, 15384, Note_on_c, 0, 59, 0
3, 15384, Note_on_c, 0, 58, 48
3, 15400, Note_on_c, 0, 58, 0
3, 15408, Note_on_c, 0, 58, 46
3, 15456, Note_on_c, 0, 58, 0
3, 15456, Note_on_c, 0, 57, 42
3, 15472, Note_on_c, 0, 57, 0
3, 15480, Note_on_c, 0, 57, 41
3, 15528, Note_on_c, 0, 57, 0
3, 15528, Note_on_c, 0, 56, 36
3, 15540, Note_on_c, 0, 53, 0
3, 15540, Note_on_c, 0, 50, 0
3, 15544, Note_on_c, 0, 56, 0
3, 15552, Note_on_c, 0, 49, 34
3, 15552, Note_on_c, 0, 57, 36
3, 15618, Note_on_c, 0, 57, 0
3, 15618, Note_on_c, 0, 49, 0
3, 15696, Note_on_c, 0, 33, 38
3, 15696, Note_on_c, 0, 45, 38
3, 15828, Note_on_c, 0, 45, 0
3, 15828, Note_on_c, 0, 33, 0
3, 15840, Note_on_c, 0, 38, 36
3, 15840, Note_on_c, 0, 50, 36
3, 15972, Note_on_c, 0, 50, 0
3, 15972, Note_on_c, 0, 38, 0
3, 15984, Note_on_c, 0, 50, 38
3, 15984, Note_on_c, 0, 59, 40
3, 16128, Note_on_c, 0, 59, 0
3, 16128, Note_on_c, 0, 57, 30
3, 16222, Note_on_c, 0, 57, 0
3, 16222, Note_on_c, 0, 50, 0
3, 16272, Note_on_c, 0, 33, 40
3, 16272, Note_on_c, 0, 45, 40
3, 16404, Note_on_c, 0, 45, 0
3, 16404, Note_on_c, 0, 33, 0
3, 16416, Note_on_c, 0, 38, 38
3, 16416, Note_on_c, 0, 50, 38
3, 16548, Note_on_c, 0, 50, 0
3, 16548, Note_on_c, 0, 38, 0
3, 16560, Note_on_c, 0, 47, 40
3, 16560, Note_on_c, 0, 54, 40
3, 16560, Note_on_c, 0, 59, 42
3, 16692, Note_on_c, 0, 59, 0
3, 16692, Note_on_c, 0, 54, 0
3, 16692, Note_on_c, 0, 47, 0
3, 16704, Note_on_c, 0, 42, 34
3, 16704, Note_on_c, 0, 54, 34
3, 16836, Note_on_c, 0, 54, 0
3, 16836, Note_on_c, 0, 42, 0
3, 16848, Note_on_c, 0, 49, 38
3, 16848, Note_on_c, 0, 61, 52
3, 16888, Note_on_c, 0, 61, 0
3, 16920, Note_on_c, 0, 61, 53
3, 16968, Note_on_c, 0, 61, 0
3, 16968, Note_on_c, 0, 63, 54
3, 16980, Note_on_c, 0, 49, 0
3, 16984, Note_on_c, 0, 63, 0
3, 16992, Note_on_c, 0, 54, 44
3, 16992, Note_on_c, 0, 61, 54
3, 17032, Note_on_c, 0, 61, 0
3, 17064, Note_on_c, 0, 61, 58
3, 17104, Note_on_c, 0, 61, 0
3, 17112, Note_on_c, 0, 70, 60
3, 17124, Note_on_c, 0, 54, 0
3, 17128, Note_on_c, 0, 70, 0
3, 17136, Note_on_c, 0, 54, 46
3, 17142, Note_on_c, 0, 63, 44
3, 17184, Note_on_c, 0, 68, 52
3, 17200, Note_on_c, 0, 68, 0
3, 17208, Note_on_c, 0, 66, 48
3, 17248, Note_on_c, 0, 66, 0
3, 17248, Note_on_c, 0, 63, 0
3, 17256, Note_on_c, 0, 63, 45
3, 17268, Note_on_c, 0, 54, 0
3, 17272, Note_on_c, 0, 63, 0
3, 17280, Note_on_c, 0, 54, 36
3, 17280, Note_on_c, 0, 61, 42
3, 17346, Note_on_c, 0, 61, 0
3, 17352, Note_on_c, 0, 61, 50
3, 17392, Note_on_c, 0, 61, 0
3, 17400, Note_on_c, 0, 63, 48
3, 17412, Note_on_c, 0, 54, 0
3, 17416, Note_on_c, 0, 63, 0
3, 17424, Note_on_c, 0, 49, 48
3, 17424, Note_on_c, 0, 61, 54
3, 17490, Note_on_c, 0, 61, 0
3, 17496, Note_on_c, 0, 61, 54
3, 17544, Note_on_c, 0, 61, 0
3, 17544, Note_on_c, 0, 63, 56
3, 17556, Note_on_c, 0, 49, 0
3, 17568, Note_on_c, 0, 63, 0
3, 17568, Note_on_c, 0, 42, 50
3, 17568, Note_on_c, 0, 54, 50
3, 17616, Note_on_c, 0, 42, 0
3, 17640, Note_on_c, 0, 61, 60
3, 17688, Note_on_c, 0, 61, 0
3, 17688, Note_on_c, 0, 63, 62
3, 17700, Note_on_c, 0, 54, 0
3, 17704, Note_on_c, 0, 63, 0
3, 17712, Note_on_c, 0, 44, 52
3, 17712, Note_on_c, 0, 56, 52
3, 17844, Note_on_c, 0, 56, 0
3, 17844, Note_on_c, 0, 44, 0
3, 17856, Note_on_c, 0, 30, 54
3, 17880, Note_on_c, 0, 30, 0
3, 17880, Note_on_c, 0, 42, 52
3, 17904, Note_on_c, 0, 42, 0
3, 17904, Note_on_c, 0, 53, 40
3, 17928, Note_on_c, 0, 53, 0
3, 17928, Note_on_c, 0, 54, 38
3, 17952, Note_on_c, 0, 54, 0
3, 17952, Note_on_c, 0, 42, 36
3, 17976, Note_on_c, 0, 42, 0
3, 17976, Note_on_c, 0, 35, 34
3, 17998, Note_on_c, 0, 35, 0
3, 18000, Note_on_c, 0, 28, 40
3, 18024, Note_on_c, 0, 28, 0
3, 18024, Note_on_c, 0, 47, 38
3, 18048, Note_on_c, 0, 47, 0
3, 18048, Note_on_c, 0, 59, 43
3, 18072, Note_on_c, 0, 59, 0
3, 18072, Note_on_c, 0, 58, 38
3, 18096, Note_on_c, 0, 58, 0
3, 18096, Note_on_c, 0, 57, 36
3, 18120, Note_on_c, 0, 57, 0
3, 18120, Note_on_c, 0, 50, 34
3, 18142, Note_on_c, 0, 50, 0
3, 18144, Note_on_c, 0, 43, 40
3, 18168, Note_on_c, 0, 43, 0
3, 18168, Note_on_c, 0, 50, 38
3, 18192, Note_on_c, 0, 50, 0
3, 18192, Note_on_c, 0, 59, 42
3, 18216, Note_on_c, 0, 59, 0
3, 18216, Note_on_c, 0, 62, 38
3, 18240, Note_on_c, 0, 62, 0
3, 18240, Note_on_c, 0, 52, 36
3, 18264, Note_on_c, 0, 52, 0
3, 18264, Note_on_c, 0, 40, 38
3, 18286, Note_on_c, 0, 40, 0
3, 18288, Note_on_c, 0, 45, 34
3, 18312, Note_on_c, 0, 45, 0
3, 18312, Note_on_c, 0, 52, 38
3, 18336, Note_on_c, 0, 52, 0
3, 18336, Note_on_c, 0, 60, 38
3, 18360, Note_on_c, 0, 60, 0
3, 18360, Note_on_c, 0, 64, 36
3, 18384, Note_on_c, 0, 64, 0
3, 18384, Note_on_c, 0, 62, 34
3, 18408, Note_on_c, 0, 62, 0
3, 18408, Note_on_c, 0, 52, 30
3, 18430, Note_on_c, 0, 52, 0
3, 18432, Note_on_c, 0, 45, 34
3, 18456, Note_on_c, 0, 45, 0
3, 18456, Note_on_c, 0, 52, 38
3, 18480, Note_on_c, 0, 52, 0
3, 18480, Note_on_c, 0, 60, 38
3, 18504, Note_on_c, 0, 60, 0
3, 18504, Note_on_c, 0, 64, 34
3, 18528, Note_on_c, 0, 64, 0
3, 18528, Note_on_c, 0, 62, 32
3, 18552, Note_on_c, 0, 62, 0
3, 18552, Note_on_c, 0, 52, 28
3, 18574, Note_on_c, 0, 52, 0
3, 18576, Note_on_c, 0, 45, 36
3, 18600, Note_on_c, 0, 45, 0
3, 18600, Note_on_c, 0, 52, 34
3, 18624, Note_on_c, 0, 52, 0
3, 18624, Note_on_c, 0, 64, 38
3, 18648, Note_on_c, 0, 64, 0
3, 18648, Note_on_c, 0, 60, 36
3, 18672, Note_on_c, 0, 60, 0
3, 18672, Note_on_c, 0, 50, 37
3, 18696, Note_on_c, 0, 50, 0
3, 18696, Note_on_c, 0, 38, 38
3, 18718, Note_on_c, 0, 38, 0
3, 18720, Note_on_c, 0, 43, 36
3, 18744, Note_on_c, 0, 43, 0
3, 18744, Note_on_c, 0, 50, 36
3, 18768, Note_on_c, 0, 50, 0
3, 18768, Note_on_c, 0, 62, 46
3, 18792, Note_on_c, 0, 62, 0
3, 18792, Note_on_c, 0, 61, 42
3, 18816, Note_on_c, 0, 61, 0
3, 18816, Note_on_c, 0, 60, 40
3, 18840, Note_on_c, 0, 60, 0
3, 18840, Note_on_c, 0, 53, 34
3, 18862, Note_on_c, 0, 53, 0
3, 18864, Note_on_c, 0, 46, 36
3, 18888, Note_on_c, 0, 46, 0
3, 18888, Note_on_c, 0, 53, 36
3, 18912, Note_on_c, 0, 53, 0
3, 18912, Note_on_c, 0, 65, 42
3, 18936, Note_on_c, 0, 65, 0
3, 18936, Note_on_c, 0, 64, 40
3, 18960, Note_on_c, 0, 64, 0
3, 18960, Note_on_c, 0, 63, 38
3, 18984, Note_on_c, 0, 63, 0
3, 18984, Note_on_c, 0, 56, 32
3, 19006, Note_on_c, 0, 56, 0
3, 19008, Note_on_c, 0, 49, 40
3, 19030, Note_on_c, 0, 49, 0
3, 19032, Note_on_c, 0, 54, 44
3, 19056, Note_on_c, 0, 54, 0
3, 19056, Note_on_c, 0, 47, 44
3, 19080, Note_on_c, 0, 47, 0
3, 19080, Note_on_c, 0, 40, 50
3, 19104, Note_on_c, 0, 40, 0
3, 19104, Note_on_c, 0, 33, 52
3, 19128, Note_on_c, 0, 33, 0
3, 19128, Note_on_c, 0, 26, 54
3, 19150, Note_on_c, 0, 26, 0
3, 19152, Note_on_c, 0, 25, 50
3, 19200, Note_on_c, 0, 25, 0
3, 19224, Note_on_c, 0, 58, 56
3, 19272, Note_on_c, 0, 58, 0
3, 19272, Note_on_c, 0, 49, 50
3, 19294, Note_on_c, 0, 49, 0
3, 19296, Note_on_c, 0, 50, 44
3, 19440, Note_on_c, 0, 38, 30
3, 19480, Note_on_c, 0, 50, 0
3, 19488, Note_on_c, 0, 50, 38
3, 19572, Note_on_c, 0, 50, 0
3, 19572, Note_on_c, 0, 38, 0
3, 19584, Note_on_c, 0, 31, 30
3, 19584, Note_on_c, 0, 43, 30
3, 19716, Note_on_c, 0, 43, 0
3, 19716, Note_on_c, 0, 31, 0
3, 19728, Note_on_c, 0, 43, 30
3, 19728, Note_on_c, 0, 52, 30
3, 19872, Note_on_c, 0, 52, 0
3, 19872, Note_on_c, 0, 50, 25
3, 19944, Note_on_c, 0, 50, 0
3, 19944, Note_on_c, 0, 43, 0
3, 20016, Note_on_c, 0, 38, 32
3, 20088, Note_on_c, 0, 38, 0
3, 20160, Note_on_c, 0, 31, 26
3, 20160, Note_on_c, 0, 43, 26
3, 20256, Note_on_c, 0, 43, 0
3, 20256, Note_on_c, 0, 31, 0
3, 20256, End_track
4, 0, Start_track
4, 0, Title_t, "PEDAL"
4, 144, Control_c, 0, 64, 127
4, 218, Control_c, 0, 64, 0
4, 248, Control_c, 0, 64, 127
4, 288, Control_c, 0, 64, 127
4, 290, Control_c, 0, 64, 0
4, 296, Control_c, 0, 64, 127
4, 362, Control_c, 0, 64, 0
4, 392, Control_c, 0, 64, 127
4, 432, Control_c, 0, 64, 127
4, 434, Control_c, 0, 64, 0
4, 440, Control_c, 0, 64, 127
4, 506, Control_c, 0, 64, 0
4, 536, Control_c, 0, 64, 127
4, 576, Control_c, 0, 64, 127
4, 578, Control_c, 0, 64, 0
4, 584, Control_c, 0, 64, 127
4, 650, Control_c, 0, 64, 0
4, 680, Control_c, 0, 64, 127
4, 720, Control_c, 0, 64, 127
4, 722, Control_c, 0, 64, 0
4, 728, Control_c, 0, 64, 127
4, 794, Control_c, 0, 64, 0
4, 824, Control_c, 0, 64, 127
4, 864, Control_c, 0, 64, 127
4, 866, Control_c, 0, 64, 0
4, 872, Control_c, 0, 64, 127
4, 938, Control_c, 0, 64, 0
4, 968, Control_c, 0, 64, 127
4, 1008, Control_c, 0, 64, 127
4, 1010, Control_c, 0, 64, 0
4, 1016, Control_c, 0, 64, 127
4, 1082, Control_c, 0, 64, 0
4, 1112, Control_c, 0, 64, 127
4, 1130, Control_c, 0, 64, 0
4, 1136, Control_c, 0, 64, 127
4, 1152, Control_c, 0, 64, 127
4, 1154, Control_c, 0, 64, 0
4, 1160, Control_c, 0, 64, 127
4, 1226, Control_c, 0, 64, 0
4, 1256, Control_c, 0, 64, 127
4, 1274, Control_c, 0, 64, 0
4, 1280, Control_c, 0, 64, 127
4, 1296, Control_c, 0, 64, 127
4, 1298, Control_c, 0, 64, 0
4, 1304, Control_c, 0, 64, 127
4, 1382, Control_c, 0, 64, 0
4, 1400, Control_c, 0, 64, 127
4, 1440, Control_c, 0, 64, 127
4, 1442, Control_c, 0, 64, 0
4, 1448, Control_c, 0, 64, 127
4, 1514, Control_c, 0, 64, 0
4, 1544, Control_c, 0, 64, 127
4, 1584, Control_c, 0, 64, 127
4, 1586, Control_c, 0, 64, 0
4, 1592, Control_c, 0, 64, 127
4, 1658, Control_c, 0, 64, 0
4, 1688, Control_c, 0, 64, 127
4, 1728, Control_c, 0, 64, 127
4, 1730, Control_c, 0, 64, 0
4, 1736, Control_c, 0, 64, 127
4, 1802, Control_c, 0, 64, 0
4, 1832, Control_c, 0, 64, 127
4, 1872, Control_c, 0, 64, 127
4, 1874, Control_c, 0, 64, 0
4, 1880, Control_c, 0, 64, 127
4, 1946, Control_c, 0, 64, 0
4, 1976, Control_c, 0, 64, 127
4, 1994, Control_c, 0, 64, 0
4, 2000, Control_c, 0, 64, 127
4, 2016, Control_c, 0, 64, 127
4, 2018, Control_c, 0, 64, 0
4, 2024, Control_c, 0, 64, 127
4, 2090, Control_c, 0, 64, 0
4, 2120, Control_c, 0, 64, 127
4, 2138, Control_c, 0, 64, 0
4, 2144, Control_c, 0, 64, 127
4, 2160, Control_c, 0, 64, 127
4, 2162, Control_c, 0, 64, 0
4, 2168, Control_c, 0, 64, 127
4, 2234, Control_c, 0, 64, 0
4, 2240, Control_c, 0, 64, 127
4, 2304, Control_c, 0, 64, 127
4, 2306, Control_c, 0, 64, 0
4, 2312, Control_c, 0, 64, 127
4, 2378, Control_c, 0, 64, 0
4, 2448, Control_c, 0, 64, 0
4, 2456, Control_c, 0, 64, 127
4, 2522, Control_c, 0, 64, 0
4, 2528, Control_c, 0, 64, 127
4, 2592, Control_c, 0, 64, 127
4, 2594, Control_c, 0, 64, 0
4, 2600, Control_c, 0, 64, 127
4, 2666, Control_c, 0, 64, 0
4, 2736, Control_c, 0, 64, 0
4, 2744, Control_c, 0, 64, 127
4, 2810, Control_c, 0, 64, 0
4, 2816, Control_c, 0, 64, 127
4, 2880, Control_c, 0, 64, 127
4, 2882, Control_c, 0, 64, 0
4, 2888, Control_c, 0, 64, 127
4, 2954, Control_c, 0, 64, 0
4, 3024, Control_c, 0, 64, 0
4, 3032, Control_c, 0, 64, 127
4, 3134, Control_c, 0, 64, 0
4, 3168, Control_c, 0, 64, 0
4, 3176, Control_c, 0, 64, 127
4, 3254, Control_c, 0, 64, 0
4, 3312, Control_c, 0, 64, 127
4, 3314, Control_c, 0, 64, 0
4, 3320, Control_c, 0, 64, 127
4, 3398, Control_c, 0, 64, 0
4, 3416, Control_c, 0, 64, 127
4, 3456, Control_c, 0, 64, 127
4, 3458, Control_c, 0, 64, 0
4, 3464, Control_c, 0, 64, 127
4, 3530, Control_c, 0, 64, 0
4, 3600, Control_c, 0, 64, 0
4, 3608, Control_c, 0, 64, 127
4, 3674, Control_c, 0, 64, 0
4, 3680, Control_c, 0, 64, 127
4, 3744, Control_c, 0, 64, 127
4, 3770, Control_c, 0, 64, 0
4, 3776, Control_c, 0, 64, 127
4, 3842, Control_c, 0, 64, 0
4, 3848, Control_c, 0, 64, 127
4, 3888, Control_c, 0, 64, 127
4, 3914, Control_c, 0, 64, 0
4, 3920, Control_c, 0, 64, 127
4, 3986, Control_c, 0, 64, 0
4, 3992, Control_c, 0, 64, 127
4, 4010, Control_c, 0, 64, 0
4, 4022, Control_c, 0, 64, 127
4, 4032, Control_c, 0, 64, 0
4, 4040, Control_c, 0, 64, 127
4, 4176, Control_c, 0, 64, 127
4, 4178, Control_c, 0, 64, 0
4, 4184, Control_c, 0, 64, 127
4, 4320, Control_c, 0, 64, 127
4, 4322, Control_c, 0, 64, 0
4, 4328, Control_c, 0, 64, 127
4, 4464, Control_c, 0, 64, 127
4, 4466, Control_c, 0, 64, 0
4, 4472, Control_c, 0, 64, 127
4, 4608, Control_c, 0, 64, 127
4, 4610, Control_c, 0, 64, 0
4, 4616, Control_c, 0, 64, 127
4, 4682, Control_c, 0, 64, 0
4, 4688, Control_c, 0, 64, 127
4, 4752, Control_c, 0, 64, 127
4, 4754, Control_c, 0, 64, 0
4, 4760, Control_c, 0, 64, 127
4, 4896, Control_c, 0, 64, 127
4, 4898, Control_c, 0, 64, 0
4, 4904, Control_c, 0, 64, 127
4, 5040, Control_c, 0, 64, 127
4, 5042, Control_c, 0, 64, 0
4, 5048, Control_c, 0, 64, 127
4, 5184, Control_c, 0, 64, 127
4, 5186, Control_c, 0, 64, 0
4, 5192, Control_c, 0, 64, 127
4, 5258, Control_c, 0, 64, 0
4, 5264, Control_c, 0, 64, 127
4, 5328, Control_c, 0, 64, 127
4, 5330, Control_c, 0, 64, 0
4, 5336, Control_c, 0, 64, 127
4, 5472, Control_c, 0, 64, 127
4, 5474, Control_c, 0, 64, 0
4, 5480, Control_c, 0, 64, 127
4, 5616, Control_c, 0, 64, 127
4, 5618, Control_c, 0, 64, 0
4, 5624, Control_c, 0, 64, 127
4, 5760, Control_c, 0, 64, 127
4, 5762, Control_c, 0, 64, 0
4, 5768, Control_c, 0, 64, 127
4, 5834, Control_c, 0, 64, 0
4, 5840, Control_c, 0, 64, 127
4, 5904, Control_c, 0, 64, 127
4, 5906, Control_c, 0, 64, 0
4, 5912, Control_c, 0, 64, 127
4, 6048, Control_c, 0, 64, 127
4, 6050, Control_c, 0, 64, 0
4, 6056, Control_c, 0, 64, 127
4, 6192, Control_c, 0, 64, 127
4, 6194, Control_c, 0, 64, 0
4, 6200, Control_c, 0, 64, 127
4, 6336, Control_c, 0, 64, 127
4, 6338, Control_c, 0, 64, 0
4, 6344, Control_c, 0, 64, 127
4, 6458, Control_c, 0, 64, 0
4, 6464, Control_c, 0, 64, 127
4, 6480, Control_c, 0, 64, 127
4, 6482, Control_c, 0, 64, 0
4, 6488, Control_c, 0, 64, 127
4, 6554, Control_c, 0, 64, 0
4, 6560, Control_c, 0, 64, 127
4, 6624, Control_c, 0, 64, 127
4, 6626, Control_c, 0, 64, 0
4, 6632, Control_c, 0, 64, 127
4, 6698, Control_c, 0, 64, 0
4, 6704, Control_c, 0, 64, 127
4, 6768, Control_c, 0, 64, 127
4, 6770, Control_c, 0, 64, 0
4, 6776, Control_c, 0, 64, 127
4, 6842, Control_c, 0, 64, 0
4, 6848, Control_c, 0, 64, 127
4, 6912, Control_c, 0, 64, 127
4, 6914, Control_c, 0, 64, 0
4, 6920, Control_c, 0, 64, 127
4, 6986, Control_c, 0, 64, 0
4, 6992, Control_c, 0, 64, 127
4, 7056, Control_c, 0, 64, 127
4, 7058, Control_c, 0, 64, 0
4, 7064, Control_c, 0, 64, 127
4, 7130, Control_c, 0, 64, 0
4, 7136, Control_c, 0, 64, 127
4, 7200, Control_c, 0, 64, 127
4, 7202, Control_c, 0, 64, 0
4, 7208, Control_c, 0, 64, 127
4, 7274, Control_c, 0, 64, 0
4, 7280, Control_c, 0, 64, 127
4, 7344, Control_c, 0, 64, 127
4, 7346, Control_c, 0, 64, 0
4, 7352, Control_c, 0, 64, 127
4, 7418, Control_c, 0, 64, 0
4, 7424, Control_c, 0, 64, 127
4, 7488, Control_c, 0, 64, 127
4, 7490, Control_c, 0, 64, 0
4, 7496, Control_c, 0, 64, 127
4, 7562, Control_c, 0, 64, 0
4, 7568, Control_c, 0, 64, 127
4, 7632, Control_c, 0, 64, 127
4, 7634, Control_c, 0, 64, 0
4, 7640, Control_c, 0, 64, 127
4, 7776, Control_c, 0, 64, 127
4, 7778, Control_c, 0, 64, 0
4, 7784, Control_c, 0, 64, 127
4, 7920, Control_c, 0, 64, 127
4, 7922, Control_c, 0, 64, 0
4, 7928, Control_c, 0, 64, 127
4, 8064, Control_c, 0, 64, 127
4, 8066, Control_c, 0, 64, 0
4, 8072, Control_c, 0, 64, 127
4, 8138, Control_c, 0, 64, 0
4, 8144, Control_c, 0, 64, 127
4, 8208, Control_c, 0, 64, 127
4, 8210, Control_c, 0, 64, 0
4, 8216, Control_c, 0, 64, 127
4, 8352, Control_c, 0, 64, 127
4, 8354, Control_c, 0, 64, 0
4, 8360, Control_c, 0, 64, 127
4, 8496, Control_c, 0, 64, 127
4, 8498, Control_c, 0, 64, 0
4, 8504, Control_c, 0, 64, 127
4, 8640, Control_c, 0, 64, 127
4, 8642, Control_c, 0, 64, 0
4, 8648, Control_c, 0, 64, 127
4, 8714, Control_c, 0, 64, 0
4, 8720, Control_c, 0, 64, 127
4, 8784, Control_c, 0, 64, 127
4, 8786, Control_c, 0, 64, 0
4, 8792, Control_c, 0, 64, 127
4, 8928, Control_c, 0, 64, 127
4, 8930, Control_c, 0, 64, 0
4, 8936, Control_c, 0, 64, 127
4, 9072, Control_c, 0, 64, 127
4, 9074, Control_c, 0, 64, 0
4, 9080, Control_c, 0, 64, 127
4, 9216, Control_c, 0, 64, 127
4, 9218, Control_c, 0, 64, 0
4, 9224, Control_c, 0, 64, 127
4, 9290, Control_c, 0, 64, 0
4, 9296, Control_c, 0, 64, 127
4, 9360, Control_c, 0, 64, 127
4, 9362, Control_c, 0, 64, 0
4, 9368, Control_c, 0, 64, 127
4, 9504, Control_c, 0, 64, 127
4, 9506, Control_c, 0, 64, 0
4, 9512, Control_c, 0, 64, 127
4, 9648, Control_c, 0, 64, 127
4, 9650, Control_c, 0, 64, 0
4, 9656, Control_c, 0, 64, 127
4, 9792, Control_c, 0, 64, 127
4, 9794, Control_c, 0, 64, 0
4, 9800, Control_c, 0, 64, 127
4, 9914, Control_c, 0, 64, 0
4, 9920, Control_c, 0, 64, 127
4, 9936, Control_c, 0, 64, 127
4, 10010, Control_c, 0, 64, 0
4, 10040, Control_c, 0, 64, 127
4, 10080, Control_c, 0, 64, 127
4, 10082, Control_c, 0, 64, 0
4, 10088, Control_c, 0, 64, 127
4, 10154, Control_c, 0, 64, 0
4, 10184, Control_c, 0, 64, 127
4, 10224, Control_c, 0, 64, 127
4, 10226, Control_c, 0, 64, 0
4, 10232, Control_c, 0, 64, 127
4, 10298, Control_c, 0, 64, 0
4, 10328, Control_c, 0, 64, 127
4, 10368, Control_c, 0, 64, 127
4, 10370, Control_c, 0, 64, 0
4, 10376, Control_c, 0, 64, 127
4, 10442, Control_c, 0, 64, 0
4, 10472, Control_c, 0, 64, 127
4, 10512, Control_c, 0, 64, 127
4, 10514, Control_c, 0, 64, 0
4, 10520, Control_c, 0, 64, 127
4, 10586, Control_c, 0, 64, 0
4, 10616, Control_c, 0, 64, 127
4, 10656, Control_c, 0, 64, 127
4, 10658, Control_c, 0, 64, 0
4, 10664, Control_c, 0, 64, 127
4, 10730, Control_c, 0, 64, 0
4, 10760, Control_c, 0, 64, 127
4, 10800, Control_c, 0, 64, 127
4, 10802, Control_c, 0, 64, 0
4, 10808, Control_c, 0, 64, 127
4, 10874, Control_c, 0, 64, 0
4, 10904, Control_c, 0, 64, 127
4, 10922, Control_c, 0, 64, 0
4, 10928, Control_c, 0, 64, 127
4, 10944, Control_c, 0, 64, 127
4, 10946, Control_c, 0, 64, 0
4, 10952, Control_c, 0, 64, 127
4, 11018, Control_c, 0, 64, 0
4, 11048, Control_c, 0, 64, 127
4, 11066, Control_c, 0, 64, 0
4, 11072, Control_c, 0, 64, 127
4, 11088, Control_c, 0, 64, 127
4, 11090, Control_c, 0, 64, 0
4, 11096, Control_c, 0, 64, 127
4, 11174, Control_c, 0, 64, 0
4, 11192, Control_c, 0, 64, 127
4, 11232, Control_c, 0, 64, 127
4, 11234, Control_c, 0, 64, 0
4, 11240, Control_c, 0, 64, 127
4, 11306, Control_c, 0, 64, 0
4, 11336, Control_c, 0, 64, 127
4, 11354, Control_c, 0, 64, 0
4, 11360, Control_c, 0, 64, 127
4, 11376, Control_c, 0, 64, 127
4, 11378, Control_c, 0, 64, 0
4, 11384, Control_c, 0, 64, 127
4, 11450, Control_c, 0, 64, 0
4, 11480, Control_c, 0, 64, 127
4, 11498, Control_c, 0, 64, 0
4, 11504, Control_c, 0, 64, 127
4, 11520, Control_c, 0, 64, 127
4, 11522, Control_c, 0, 64, 0
4, 11528, Control_c, 0, 64, 127
4, 11606, Control_c, 0, 64, 0
4, 11624, Control_c, 0, 64, 127
4, 11664, Control_c, 0, 64, 127
4, 11666, Control_c, 0, 64, 0
4, 11672, Control_c, 0, 64, 127
4, 11738, Control_c, 0, 64, 0
4, 11744, Control_c, 0, 64, 127
4, 11808, Control_c, 0, 64, 127
4, 11834, Control_c, 0, 64, 0
4, 11840, Control_c, 0, 64, 127
4, 11906, Control_c, 0, 64, 0
4, 11912, Control_c, 0, 64, 127
4, 11952, Control_c, 0, 64, 127
4, 11978, Control_c, 0, 64, 0
4, 11984, Control_c, 0, 64, 127
4, 12050, Control_c, 0, 64, 0
4, 12056, Control_c, 0, 64, 127
4, 12096, Control_c, 0, 64, 127
4, 12122, Control_c, 0, 64, 0
4, 12128, Control_c, 0, 64, 127
4, 12170, Control_c, 0, 64, 0
4, 12176, Control_c, 0, 64, 127
4, 12240, Control_c, 0, 64, 127
4, 12242, Control_c, 0, 64, 0
4, 12248, Control_c, 0, 64, 127
4, 12384, Control_c, 0, 64, 127
4, 12386, Control_c, 0, 64, 0
4, 12392, Control_c, 0, 64, 127
4, 12528, Control_c, 0, 64, 127
4, 12530, Control_c, 0, 64, 0
4, 12536, Control_c, 0, 64, 127
4, 12602, Control_c, 0, 64, 0
4, 12608, Control_c, 0, 64, 127
4, 12672, Control_c, 0, 64, 127
4, 12674, Control_c, 0, 64, 0
4, 12680, Control_c, 0, 64, 127
4, 12816, Control_c, 0, 64, 127
4, 12818, Control_c, 0, 64, 0
4, 12824, Control_c, 0, 64, 127
4, 12960, Control_c, 0, 64, 127
4, 12962, Control_c, 0, 64, 0
4, 12968, Control_c, 0, 64, 127
4, 13104, Control_c, 0, 64, 127
4, 13106, Control_c, 0, 64, 0
4, 13112, Control_c, 0, 64, 127
4, 13178, Control_c, 0, 64, 0
4, 13184, Control_c, 0, 64, 127
4, 13248, Control_c, 0, 64, 127
4, 13250, Control_c, 0, 64, 0
4, 13256, Control_c, 0, 64, 127
4, 13392, Control_c, 0, 64, 127
4, 13394, Control_c, 0, 64, 0
4, 13400, Control_c, 0, 64, 127
4, 13536, Control_c, 0, 64, 127
4, 13538, Control_c, 0, 64, 0
4, 13544, Control_c, 0, 64, 127
4, 13680, Control_c, 0, 64, 127
4, 13682, Control_c, 0, 64, 0
4, 13688, Control_c, 0, 64, 127
4, 13754, Control_c, 0, 64, 0
4, 13760, Control_c, 0, 64, 127
4, 13824, Control_c, 0, 64, 127
4, 13826, Control_c, 0, 64, 0
4, 13832, Control_c, 0, 64, 127
4, 13968, Control_c, 0, 64, 127
4, 13970, Control_c, 0, 64, 0
4, 13976, Control_c, 0, 64, 127
4, 14112, Control_c, 0, 64, 127
4, 14114, Control_c, 0, 64, 0
4, 14120, Control_c, 0, 64, 127
4, 14256, Control_c, 0, 64, 127
4, 14258, Control_c, 0, 64, 0
4, 14264, Control_c, 0, 64, 127
4, 14378, Control_c, 0, 64, 0
4, 14384, Control_c, 0, 64, 127
4, 14400, Control_c, 0, 64, 127
4, 14402, Control_c, 0, 64, 0
4, 14408, Control_c, 0, 64, 127
4, 14474, Control_c, 0, 64, 0
4, 14480, Control_c, 0, 64, 127
4, 14544, Control_c, 0, 64, 127
4, 14546, Control_c, 0, 64, 0
4, 14552, Control_c, 0, 64, 127
4, 14618, Control_c, 0, 64, 0
4, 14624, Control_c, 0, 64, 127
4, 14688, Control_c, 0, 64, 127
4, 14690, Control_c, 0, 64, 0
4, 14696, Control_c, 0, 64, 127
4, 14762, Control_c, 0, 64, 0
4, 14768, Control_c, 0, 64, 127
4, 14832, Control_c, 0, 64, 127
4, 14834, Control_c, 0, 64, 0
4, 14840, Control_c, 0, 64, 127
4, 14906, Control_c, 0, 64, 0
4, 14912, Control_c, 0, 64, 127
4, 14976, Control_c, 0, 64, 127
4, 14978, Control_c, 0, 64, 0
4, 14984, Control_c, 0, 64, 127
4, 15050, Control_c, 0, 64, 0
4, 15056, Control_c, 0, 64, 127
4, 15120, Control_c, 0, 64, 127
4, 15122, Control_c, 0, 64, 0
4, 15128, Control_c, 0, 64, 127
4, 15194, Control_c, 0, 64, 0
4, 15200, Control_c, 0, 64, 127
4, 15264, Control_c, 0, 64, 127
4, 15266, Control_c, 0, 64, 0
4, 15272, Control_c, 0, 64, 127
4, 15338, Control_c, 0, 64, 0
4, 15344, Control_c, 0, 64, 127
4, 15408, Control_c, 0, 64, 127
4, 15410, Control_c, 0, 64, 0
4, 15416, Control_c, 0, 64, 127
4, 15482, Control_c, 0, 64, 0
4, 15488, Control_c, 0, 64, 127
4, 15552, Control_c, 0, 64, 127
4, 15554, Control_c, 0, 64, 0
4, 15560, Control_c, 0, 64, 127
4, 15696, Control_c, 0, 64, 127
4, 15698, Control_c, 0, 64, 0
4, 15704, Control_c, 0, 64, 127
4, 15840, Control_c, 0, 64, 127
4, 15842, Control_c, 0, 64, 0
4, 15848, Control_c, 0, 64, 127
4, 15984, Control_c, 0, 64, 127
4, 15986, Control_c, 0, 64, 0
4, 15992, Control_c, 0, 64, 127
4, 16058, Control_c, 0, 64, 0
4, 16064, Control_c, 0, 64, 127
4, 16128, Control_c, 0, 64, 127
4, 16130, Control_c, 0, 64, 0
4, 16136, Control_c, 0, 64, 127
4, 16272, Control_c, 0, 64, 127
4, 16274, Control_c, 0, 64, 0
4, 16280, Control_c, 0, 64, 127
4, 16416, Control_c, 0, 64, 127
4, 16418, Control_c, 0, 64, 0
4, 16424, Control_c, 0, 64, 127
4, 16560, Control_c, 0, 64, 127
4, 16562, Control_c, 0, 64, 0
4, 16568, Control_c, 0, 64, 127
4, 16634, Control_c, 0, 64, 0
4, 16640, Control_c, 0, 64, 127
4, 16704, Control_c, 0, 64, 127
4, 16706, Control_c, 0, 64, 0
4, 16712, Control_c, 0, 64, 127
4, 16848, Control_c, 0, 64, 127
4, 16850, Control_c, 0, 64, 0
4, 16856, Control_c, 0, 64, 127
4, 16992, Control_c, 0, 64, 127
4, 16994, Control_c, 0, 64, 0
4, 17000, Control_c, 0, 64, 127
4, 17136, Control_c, 0, 64, 127
4, 17138, Control_c, 0, 64, 0
4, 17144, Control_c, 0, 64, 127
4, 17280, Control_c, 0, 64, 127
4, 17282, Control_c, 0, 64, 0
4, 17288, Control_c, 0, 64, 127
4, 17424, Control_c, 0, 64, 127
4, 17426, Control_c, 0, 64, 0
4, 17432, Control_c, 0, 64, 127
4, 17568, Control_c, 0, 64, 127
4, 17570, Control_c, 0, 64, 0
4, 17576, Control_c, 0, 64, 127
4, 17712, Control_c, 0, 64, 127
4, 17714, Control_c, 0, 64, 0
4, 17720, Control_c, 0, 64, 127
4, 17834, Control_c, 0, 64, 0
4, 17840, Control_c, 0, 64, 127
4, 17856, Control_c, 0, 64, 127
4, 17858, Control_c, 0, 64, 0
4, 17864, Control_c, 0, 64, 127
4, 17930, Control_c, 0, 64, 0
4, 17960, Control_c, 0, 64, 127
4, 18000, Control_c, 0, 64, 127
4, 18002, Control_c, 0, 64, 0
4, 18008, Control_c, 0, 64, 127
4, 18074, Control_c, 0, 64, 0
4, 18104, Control_c, 0, 64, 127
4, 18144, Control_c, 0, 64, 127
4, 18146, Control_c, 0, 64, 0
4, 18152, Control_c, 0, 64, 127
4, 18218, Control_c, 0, 64, 0
4, 18248, Control_c, 0, 64, 127
4, 18288, Control_c, 0, 64, 127
4, 18290, Control_c, 0, 64, 0
4, 18296, Control_c, 0, 64, 127
4, 18362, Control_c, 0, 64, 0
4, 18392, Control_c, 0, 64, 127
4, 18432, Control_c, 0, 64, 127
4, 18434, Control_c, 0, 64, 0
4, 18440, Control_c, 0, 64, 127
4, 18506, Control_c, 0, 64, 0
4, 18536, Control_c, 0, 64, 127
4, 18576, Control_c, 0, 64, 127
4, 18578, Control_c, 0, 64, 0
4, 18584, Control_c, 0, 64, 127
4, 18650, Control_c, 0, 64, 0
4, 18680, Control_c, 0, 64, 127
4, 18720, Control_c, 0, 64, 127
4, 18722, Control_c, 0, 64, 0
4, 18728, Control_c, 0, 64, 127
4, 18794, Control_c, 0, 64, 0
4, 18824, Control_c, 0, 64, 127
4, 18842, Control_c, 0, 64, 0
4, 18848, Control_c, 0, 64, 127
4, 18864, Control_c, 0, 64, 127
4, 18866, Control_c, 0, 64, 0
4, 18872, Control_c, 0, 64, 127
4, 18938, Control_c, 0, 64, 0
4, 18968, Control_c, 0, 64, 127
4, 18986, Control_c, 0, 64, 0
4, 18992, Control_c, 0, 64, 127
4, 19008, Control_c, 0, 64, 127
4, 19010, Control_c, 0, 64, 0
4, 19016, Control_c, 0, 64, 127
4, 19034, Control_c, 0, 64, 0
4, 19040, Control_c, 0, 64, 127
4, 19058, Control_c, 0, 64, 0
4, 19064, Control_c, 0, 64, 127
4, 19082, Control_c, 0, 64, 0
4, 19088, Control_c, 0, 64, 127
4, 19106, Control_c, 0, 64, 0
4, 19112, Control_c, 0, 64, 127
4, 19130, Control_c, 0, 64, 0
4, 19136, Control_c, 0, 64, 127
4, 19152, Control_c, 0, 64, 127
4, 19154, Control_c, 0, 64, 0
4, 19160, Control_c, 0, 64, 127
4, 19200, Control_c, 0, 64, 0
4, 19232, Control_c, 0, 64, 127
4, 19274, Control_c, 0, 64, 0
4, 19280, Control_c, 0, 64, 127
4, 19296, Control_c, 0, 64, 127
4, 19298, Control_c, 0, 64, 0
4, 19304, Control_c, 0, 64, 127
4, 19370, Control_c, 0, 64, 0
4, 19376, Control_c, 0, 64, 127
4, 19440, Control_c, 0, 64, 127
4, 19442, Control_c, 0, 64, 0
4, 19448, Control_c, 0, 64, 127
4, 19514, Control_c, 0, 64, 0
4, 19520, Control_c, 0, 64, 127
4, 19584, Control_c, 0, 64, 127
4, 19586, Control_c, 0, 64, 0
4, 19592, Control_c, 0, 64, 127
4, 19658, Control_c, 0, 64, 0
4, 19664, Control_c, 0, 64, 127
4, 19728, Control_c, 0, 64, 127
4, 19730, Control_c, 0, 64, 0
4, 19736, Control_c, 0, 64, 127
4, 19802, Control_c, 0, 64, 0
4, 19808, Control_c, 0, 64, 127
4, 19872, Control_c, 0, 64, 127
4, 19874, Control_c, 0, 64, 0
4, 19880, Control_c, 0, 64, 127
4, 19944, Control_c, 0, 64, 0
4, 20016, Control_c, 0, 64, 0
4, 20024, Control_c, 0, 64, 127
4, 20088, Control_c, 0, 64, 0
4, 20160, Control_c, 0, 64, 0
4, 20168, Control_c, 0, 64, 127
4, 20256, Control_c, 0, 64, 0
4, 20256, End_track
0, 0, End_of_file