0, 0, Header, 1, 6, 240
1, 0, Start_track
1, 0, Time_signature, 4, 2, 24, 8
1, 0, Tempo, 461538
1, 0, End_track
2, 0, Start_track
2, 0, Title_t, "Piano"
2, 0, Program_c, 0, 0
2, 1244, Note_on_c, 0, 36, 62
2, 1245, Control_c, 0, 64, 64
2, 1283, Note_off_c, 0, 36, 64
2, 1285, Note_on_c, 0, 48, 47
2, 1308, Control_c, 0, 64, 96
2, 1324, Note_off_c, 0, 48, 64
2, 1326, Note_on_c, 0, 55, 59
2, 1341, Control_c, 0, 64, 127
2, 1366, Note_off_c, 0, 55, 64
2, 1366, Note_on_c, 0, 60, 59
2, 1407, Note_off_c, 0, 60, 64
2, 1407, Note_on_c, 0, 64, 64
2, 1448, Note_off_c, 0, 64, 64
2, 1449, Note_on_c, 0, 60, 56
2, 1488, Note_off_c, 0, 60, 64
2, 1489, Note_on_c, 0, 67, 44
2, 1529, Note_off_c, 0, 67, 64
2, 1531, Note_on_c, 0, 72, 50
2, 1570, Note_off_c, 0, 72, 64
2, 1572, Note_on_c, 0, 76, 67
2, 1611, Note_off_c, 0, 76, 64
2, 1612, Note_on_c, 0, 72, 41
2, 1653, Note_off_c, 0, 72, 64
2, 1653, Note_on_c, 0, 79, 44
2, 1694, Note_off_c, 0, 79, 64
2, 1694, Note_on_c, 0, 84, 52
2, 1733, Note_off_c, 0, 84, 64
2, 1735, Note_on_c, 0, 88, 62
2, 1775, Note_off_c, 0, 88, 64
2, 1777, Note_on_c, 0, 84, 50
2, 1816, Note_off_c, 0, 84, 64
2, 1818, Note_on_c, 0, 91, 47
2, 1858, Note_off_c, 0, 91, 64
2, 1858, Note_on_c, 0, 96, 52
2, 1899, Note_off_c, 0, 96, 64
2, 1899, Note_on_c, 0, 100, 67
2, 1940, Note_off_c, 0, 100, 64
2, 1940, Note_on_c, 0, 96, 52
2, 1980, Note_off_c, 0, 96, 64
2, 1981, Note_on_c, 0, 91, 29
2, 2021, Note_off_c, 0, 91, 64
2, 2023, Note_on_c, 0, 84, 47
2, 2062, Note_off_c, 0, 84, 64
2, 2063, Note_on_c, 0, 88, 67
2, 2103, Note_off_c, 0, 88, 64
2, 2104, Note_on_c, 0, 84, 47
2, 2145, Note_off_c, 0, 84, 64
2, 2145, Note_on_c, 0, 79, 44
2, 2184, Note_off_c, 0, 79, 64
2, 2186, Note_on_c, 0, 72, 41
2, 2225, Note_off_c, 0, 72, 64
2, 2227, Note_on_c, 0, 76, 62
2, 2267, Note_off_c, 0, 76, 64
2, 2268, Note_on_c, 0, 72, 52
2, 2308, Note_off_c, 0, 72, 64
2, 2308, Note_on_c, 0, 67, 41
2, 2349, Note_off_c, 0, 67, 64
2, 2350, Note_on_c, 0, 60, 32
2, 2390, Note_off_c, 0, 60, 64
2, 2391, Note_on_c, 0, 64, 58
2, 2430, Note_off_c, 0, 64, 64
2, 2432, Note_on_c, 0, 60, 47
2, 2472, Note_off_c, 0, 60, 64
2, 2473, Note_on_c, 0, 55, 44
2, 2513, Note_off_c, 0, 55, 64
2, 2515, Note_on_c, 0, 48, 41
2, 2554, Note_off_c, 0, 48, 64
2, 2554, Note_on_c, 0, 29, 75
2, 2564, Note_on_c, 0, 41, 74
2, 2564, Note_on_c, 0, 29, 70
2, 2580, Control_c, 0, 64, 64
2, 2590, Control_c, 0, 64, 0
2, 2595, Note_off_c, 0, 29, 64
2, 2595, Note_on_c, 0, 48, 59
2, 2637, Note_off_c, 0, 48, 64
2, 2637, Note_on_c, 0, 57, 32
2, 2676, Note_off_c, 0, 57, 64
2, 2678, Note_on_c, 0, 60, 52
2, 2680, Control_c, 0, 64, 64
2, 2693, Control_c, 0, 64, 96
2, 2710, Control_c, 0, 64, 127
2, 2717, Note_off_c, 0, 60, 64
2, 2719, Note_on_c, 0, 65, 67
2, 2759, Note_off_c, 0, 65, 64
2, 2759, Note_on_c, 0, 60, 52
2, 2800, Note_off_c, 0, 60, 64
2, 2800, Note_on_c, 0, 69, 52
2, 2841, Note_off_c, 0, 69, 64
2, 2842, Note_on_c, 0, 72, 59
2, 2880, Note_off_c, 0, 72, 64
2, 2883, Note_on_c, 0, 77, 67
2, 2922, Note_off_c, 0, 77, 64
2, 2924, Note_on_c, 0, 72, 59
2, 2964, Note_off_c, 0, 72, 64
2, 2965, Note_on_c, 0, 81, 56
2, 3004, Note_off_c, 0, 81, 64
2, 3005, Note_on_c, 0, 84, 59
2, 3031, Note_off_c, 0, 29, 64
2, 3046, Note_off_c, 0, 84, 64
2, 3046, Note_on_c, 0, 89, 62
2, 3068, Note_off_c, 0, 41, 64
2, 3069, Control_c, 0, 123, 0
2, 3087, Note_off_c, 0, 89, 64
2, 3087, Note_on_c, 0, 84, 59
2, 3127, Note_off_c, 0, 84, 64
2, 3129, Note_on_c, 0, 93, 50
2, 3168, Note_off_c, 0, 93, 64
2, 3170, Note_on_c, 0, 96, 59
2, 3209, Note_off_c, 0, 96, 64
2, 3211, Note_on_c, 0, 100, 67
2, 3211, Note_on_c, 0, 30, 74
2, 3220, Note_on_c, 0, 42, 74
2, 3232, Control_c, 0, 64, 96
2, 3241, Control_c, 0, 64, 0
2, 3251, Note_off_c, 0, 100, 64
2, 3251, Note_on_c, 0, 96, 56
2, 3292, Note_off_c, 0, 96, 64
2, 3292, Note_on_c, 0, 93, 34
2, 3311, Control_c, 0, 64, 64
2, 3320, Control_c, 0, 64, 96
2, 3331, Control_c, 0, 64, 127
2, 3333, Note_off_c, 0, 93, 64
2, 3333, Note_on_c, 0, 84, 44
2, 3373, Note_off_c, 0, 84, 64
2, 3374, Note_on_c, 0, 88, 67
2, 3414, Note_off_c, 0, 88, 64
2, 3416, Note_on_c, 0, 84, 52
2, 3455, Note_off_c, 0, 84, 64
2, 3456, Note_on_c, 0, 81, 47
2, 3496, Note_off_c, 0, 81, 64
2, 3497, Note_on_c, 0, 72, 47
2, 3538, Note_off_c, 0, 72, 64
2, 3538, Note_on_c, 0, 76, 75
2, 3577, Note_off_c, 0, 76, 64
2, 3579, Note_on_c, 0, 72, 52
2, 3605, Note_off_c, 0, 30, 64
2, 3618, Note_off_c, 0, 72, 64
2, 3620, Note_on_c, 0, 69, 52
2, 3643, Note_off_c, 0, 42, 64
2, 3643, Control_c, 0, 123, 0
2, 3660, Note_off_c, 0, 69, 64
2, 3662, Note_on_c, 0, 60, 52
2, 3701, Note_off_c, 0, 60, 64
2, 3701, Note_on_c, 0, 62, 62
2, 3743, Note_off_c, 0, 62, 64
2, 3743, Note_on_c, 0, 60, 44
2, 3783, Note_off_c, 0, 60, 64
2, 3784, Note_on_c, 0, 57, 52
2, 3823, Note_off_c, 0, 57, 64
2, 3825, Note_on_c, 0, 48, 52
2, 3859, Control_c, 0, 64, 96
2, 3864, Note_off_c, 0, 48, 64
2, 3866, Note_on_c, 0, 31, 80
2, 3870, Control_c, 0, 64, 0
2, 3876, Note_on_c, 0, 43, 75
2, 3876, Note_on_c, 0, 31, 75
2, 3906, Note_off_c, 0, 31, 64
2, 3908, Note_on_c, 0, 47, 56
2, 3943, Control_c, 0, 64, 64
2, 3947, Note_off_c, 0, 47, 64
2, 3947, Note_on_c, 0, 55, 67
2, 3955, Control_c, 0, 64, 127
2, 3988, Note_off_c, 0, 55, 64
2, 3989, Note_on_c, 0, 59, 63
2, 4011, Note_off_c, 0, 43, 64
2, 4013, Note_off_c, 0, 31, 64
2, 4013, Control_c, 0, 123, 0
2, 4030, Note_off_c, 0, 59, 64
2, 4030, Note_on_c, 0, 62, 70
2, 4069, Note_off_c, 0, 62, 64
2, 4071, Note_on_c, 0, 59, 60
2, 4110, Note_off_c, 0, 59, 64
2, 4112, Note_on_c, 0, 67, 56
2, 4152, Note_off_c, 0, 67, 64
2, 4152, Note_on_c, 0, 71, 52
2, 4182, Note_on_c, 0, 42, 74
2, 4182, Note_on_c, 0, 30, 74
2, 4193, Note_off_c, 0, 71, 64
2, 4193, Note_on_c, 0, 74, 67
2, 4221, Note_off_c, 0, 42, 64
2, 4227, Note_off_c, 0, 30, 64
2, 4227, Control_c, 0, 123, 0
2, 4234, Note_off_c, 0, 74, 64
2, 4235, Note_on_c, 0, 71, 50
2, 4273, Note_off_c, 0, 71, 64
2, 4275, Note_on_c, 0, 79, 62
2, 4315, Note_off_c, 0, 79, 64
2, 4317, Note_on_c, 0, 83, 59
2, 4349, Note_on_c, 0, 40, 70
2, 4349, Note_on_c, 0, 28, 75
2, 4356, Note_off_c, 0, 83, 64
2, 4358, Note_on_c, 0, 86, 67
2, 4388, Note_off_c, 0, 40, 64
2, 4394, Note_off_c, 0, 28, 64
2, 4394, Control_c, 0, 123, 0
2, 4398, Note_off_c, 0, 86, 64
2, 4398, Note_on_c, 0, 83, 62
2, 4439, Note_off_c, 0, 83, 64
2, 4439, Note_on_c, 0, 91, 62
2, 4480, Note_off_c, 0, 91, 64
2, 4480, Note_on_c, 0, 95, 59
2, 4520, Note_off_c, 0, 95, 64
2, 4522, Note_on_c, 0, 98, 71
2, 4522, Note_on_c, 0, 26, 70
2, 4525, Note_on_c, 0, 38, 75
2, 4525, Note_on_c, 0, 26, 80
2, 4549, Control_c, 0, 64, 96
2, 4559, Control_c, 0, 64, 0
2, 4561, Note_off_c, 0, 26, 64
2, 4561, Note_off_c, 0, 98, 64
2, 4563, Note_on_c, 0, 93, 50
2, 4602, Note_off_c, 0, 93, 64
2, 4604, Note_on_c, 0, 90, 50
2, 4642, Control_c, 0, 64, 64
2, 4644, Note_off_c, 0, 90, 64
2, 4644, Note_on_c, 0, 84, 52
2, 4658, Control_c, 0, 64, 96
2, 4668, Control_c, 0, 64, 127
2, 4685, Note_off_c, 0, 84, 64
2, 4685, Note_on_c, 0, 86, 62
2, 4726, Note_off_c, 0, 86, 64
2, 4727, Note_on_c, 0, 81, 52
2, 4765, Note_off_c, 0, 81, 64
2, 4767, Note_on_c, 0, 78, 47
2, 4807, Note_off_c, 0, 78, 64
2, 4809, Note_on_c, 0, 72, 47
2, 4848, Note_off_c, 0, 72, 64
2, 4848, Note_on_c, 0, 74, 70
2, 4889, Note_off_c, 0, 74, 64
2, 4890, Note_on_c, 0, 69, 59
2, 4905, Note_off_c, 0, 26, 64
2, 4927, Note_off_c, 0, 38, 64
2, 4931, Note_off_c, 0, 69, 64
2, 4931, Note_on_c, 0, 66, 58
2, 4932, Control_c, 0, 123, 0
2, 4970, Note_off_c, 0, 66, 64
2, 4972, Note_on_c, 0, 60, 56
2, 5012, Note_off_c, 0, 60, 64
2, 5014, Note_on_c, 0, 62, 62
2, 5052, Note_off_c, 0, 62, 64
2, 5055, Note_on_c, 0, 57, 52
2, 5094, Note_off_c, 0, 57, 64
2, 5094, Note_on_c, 0, 54, 63
2, 5135, Note_off_c, 0, 54, 64
2, 5136, Note_on_c, 0, 48, 50
2, 5177, Note_off_c, 0, 48, 64
2, 5177, Note_on_c, 0, 31, 75
2, 5194, Note_on_c, 0, 43, 75
2, 5194, Note_on_c, 0, 31, 80
2, 5199, Control_c, 0, 64, 64
2, 5210, Control_c, 0, 64, 0
2, 5218, Note_off_c, 0, 31, 64
2, 5218, Note_on_c, 0, 48, 56
2, 5259, Note_off_c, 0, 48, 64
2, 5259, Note_on_c, 0, 53, 60
2, 5272, Control_c, 0, 64, 64
2, 5282, Control_c, 0, 64, 127
2, 5301, Note_off_c, 0, 53, 64
2, 5301, Note_on_c, 0, 56, 59
2, 5342, Note_off_c, 0, 56, 64
2, 5344, Note_on_c, 0, 62, 62
2, 5385, Note_off_c, 0, 62, 64
2, 5386, Note_on_c, 0, 60, 56
2, 5426, Note_off_c, 0, 60, 64
2, 5428, Note_on_c, 0, 65, 56
2, 5470, Note_off_c, 0, 65, 64
2, 5470, Note_on_c, 0, 68, 55
2, 5513, Note_off_c, 0, 68, 64
2, 5513, Note_on_c, 0, 74, 62
2, 5556, Note_off_c, 0, 74, 64
2, 5556, Note_on_c, 0, 72, 56
2, 5599, Note_off_c, 0, 72, 64
2, 5599, Note_on_c, 0, 77, 44
2, 5642, Note_off_c, 0, 77, 64
2, 5644, Note_on_c, 0, 80, 50
2, 5688, Note_off_c, 0, 80, 64
2, 5688, Note_on_c, 0, 86, 59
2, 5731, Note_off_c, 0, 86, 64
2, 5733, Note_on_c, 0, 84, 47
2, 5775, Note_off_c, 0, 84, 64
2, 5776, Note_on_c, 0, 89, 56
2, 5820, Note_off_c, 0, 89, 64
2, 5821, Note_on_c, 0, 92, 50
2, 5866, Note_off_c, 0, 92, 64
2, 5866, Note_on_c, 0, 98, 60
2, 5911, Note_off_c, 0, 98, 64
2, 5911, Note_on_c, 0, 91, 50
2, 5956, Note_off_c, 0, 91, 64
2, 5956, Note_on_c, 0, 89, 47
2, 6001, Note_off_c, 0, 89, 64
2, 6001, Note_on_c, 0, 83, 52
2, 6046, Note_off_c, 0, 83, 64
2, 6046, Note_on_c, 0, 86, 67
2, 6091, Note_off_c, 0, 86, 64
2, 6091, Note_on_c, 0, 79, 44
2, 6136, Note_off_c, 0, 79, 64
2, 6136, Note_on_c, 0, 77, 50
2, 6181, Note_off_c, 0, 77, 64
2, 6181, Note_on_c, 0, 71, 47
2, 6226, Note_off_c, 0, 71, 64
2, 6227, Note_on_c, 0, 74, 59
2, 6271, Note_off_c, 0, 74, 64
2, 6272, Note_on_c, 0, 67, 52
2, 6316, Note_off_c, 0, 67, 64
2, 6316, Note_on_c, 0, 65, 50
2, 6361, Note_off_c, 0, 65, 64
2, 6361, Note_on_c, 0, 59, 48
2, 6387, Note_off_c, 0, 31, 64
2, 6406, Note_off_c, 0, 59, 64
2, 6407, Note_on_c, 0, 63, 68
2, 6425, Note_off_c, 0, 43, 64
2, 6427, Control_c, 0, 123, 0
2, 6451, Note_off_c, 0, 63, 64
2, 6452, Note_on_c, 0, 55, 56
2, 6496, Note_off_c, 0, 55, 64
2, 6497, Note_on_c, 0, 53, 56
2, 6541, Note_off_c, 0, 53, 64
2, 6542, Note_on_c, 0, 47, 56
2, 6587, Note_off_c, 0, 47, 64
2, 6587, Note_on_c, 0, 36, 70
2, 6621, Note_on_c, 0, 48, 70
2, 6621, Note_on_c, 0, 36, 70
2, 6628, Control_c, 0, 64, 96
2, 6632, Note_off_c, 0, 36, 64
2, 6632, Note_on_c, 0, 48, 56
2, 6639, Control_c, 0, 64, 0
2, 6675, Note_off_c, 0, 48, 64
2, 6677, Note_on_c, 0, 55, 56
2, 6701, Control_c, 0, 64, 64
2, 6710, Control_c, 0, 64, 127
2, 6720, Note_off_c, 0, 55, 64
2, 6720, Note_on_c, 0, 60, 52
2, 6763, Note_off_c, 0, 60, 64
2, 6765, Note_on_c, 0, 64, 64
2, 6808, Note_off_c, 0, 64, 64
2, 6808, Note_on_c, 0, 60, 52
2, 6851, Note_off_c, 0, 60, 64
2, 6852, Note_on_c, 0, 67, 56
2, 6894, Note_off_c, 0, 67, 64
2, 6895, Note_on_c, 0, 72, 56
2, 6937, Note_off_c, 0, 72, 64
2, 6938, Note_on_c, 0, 76, 67
2, 6979, Note_off_c, 0, 76, 64
2, 6981, Note_on_c, 0, 72, 52
2, 7022, Note_off_c, 0, 72, 64
2, 7022, Note_on_c, 0, 79, 56
2, 7063, Note_off_c, 0, 79, 64
2, 7066, Note_on_c, 0, 84, 52
2, 7106, Note_off_c, 0, 84, 64
2, 7107, Note_on_c, 0, 88, 67
2, 7148, Note_off_c, 0, 88, 64
2, 7148, Note_on_c, 0, 84, 34
2, 7189, Note_off_c, 0, 84, 64
2, 7191, Note_on_c, 0, 91, 52
2, 7231, Note_off_c, 0, 91, 64
2, 7231, Note_on_c, 0, 96, 56
2, 7272, Note_off_c, 0, 96, 64
2, 7272, Note_on_c, 0, 100, 70
2, 7313, Note_off_c, 0, 100, 64
2, 7313, Note_on_c, 0, 96, 52
2, 7353, Note_off_c, 0, 96, 64
2, 7355, Note_on_c, 0, 91, 47
2, 7394, Note_off_c, 0, 91, 64
2, 7396, Note_on_c, 0, 84, 39
2, 7435, Note_off_c, 0, 84, 64
2, 7437, Note_on_c, 0, 88, 70
2, 7476, Note_off_c, 0, 88, 64
2, 7477, Note_on_c, 0, 84, 56
2, 7516, Note_off_c, 0, 48, 64
2, 7518, Note_off_c, 0, 84, 64
2, 7518, Note_on_c, 0, 79, 50
2, 7542, Note_off_c, 0, 36, 64
2, 7542, Control_c, 0, 123, 0
2, 7559, Note_off_c, 0, 79, 64
2, 7560, Note_on_c, 0, 72, 41
2, 7598, Note_off_c, 0, 72, 64
2, 7600, Note_on_c, 0, 76, 62
2, 7640, Note_off_c, 0, 76, 64
2, 7642, Note_on_c, 0, 72, 36
2, 7681, Note_off_c, 0, 72, 64
2, 7683, Note_on_c, 0, 67, 52
2, 7722, Note_off_c, 0, 67, 64
2, 7723, Note_on_c, 0, 60, 44
2, 7764, Note_off_c, 0, 60, 64
2, 7764, Note_on_c, 0, 64, 67
2, 7805, Note_off_c, 0, 64, 64
2, 7805, Note_on_c, 0, 60, 44
2, 7844, Note_off_c, 0, 60, 64
2, 7847, Note_on_c, 0, 55, 52
2, 7885, Note_off_c, 0, 55, 64
2, 7887, Note_on_c, 0, 48, 39
2, 7925, Control_c, 0, 64, 64
2, 7927, Note_off_c, 0, 48, 64
2, 7928, Note_on_c, 0, 33, 67
2, 7928, Note_on_c, 0, 33, 75
2, 7929, Note_on_c, 0, 45, 67
2, 7940, Control_c, 0, 64, 0
2, 7968, Note_off_c, 0, 33, 64
2, 7968, Note_on_c, 0, 48, 47
2, 8000, Control_c, 0, 64, 64
2, 8010, Note_off_c, 0, 48, 64
2, 8010, Note_on_c, 0, 53, 48
2, 8010, Control_c, 0, 64, 96
2, 8021, Control_c, 0, 64, 127
2, 8049, Note_off_c, 0, 53, 64
2, 8051, Note_on_c, 0, 60, 50
2, 8090, Note_off_c, 0, 60, 64
2, 8092, Note_on_c, 0, 65, 70
2, 8132, Note_off_c, 0, 65, 64
2, 8134, Note_on_c, 0, 60, 52
2, 8173, Note_off_c, 0, 60, 64
2, 8173, Note_on_c, 0, 65, 56
2, 8214, Note_off_c, 0, 65, 64
2, 8215, Note_on_c, 0, 72, 47
2, 8256, Note_off_c, 0, 72, 64
2, 8256, Note_on_c, 0, 77, 59
2, 8295, Note_off_c, 0, 77, 64
2, 8297, Note_on_c, 0, 72, 47
2, 8337, Note_off_c, 0, 72, 64
2, 8338, Note_on_c, 0, 77, 50
2, 8377, Note_off_c, 0, 77, 64
2, 8379, Note_on_c, 0, 84, 56
2, 8419, Note_off_c, 0, 84, 64
2, 8419, Note_on_c, 0, 89, 56
2, 8460, Note_off_c, 0, 89, 64
2, 8460, Note_on_c, 0, 84, 44
2, 8501, Note_off_c, 0, 84, 64
2, 8502, Note_on_c, 0, 89, 50
2, 8541, Note_off_c, 0, 89, 64
2, 8543, Note_on_c, 0, 96, 44
2, 8582, Note_off_c, 0, 96, 64
2, 8584, Note_on_c, 0, 100, 56
2, 8624, Note_off_c, 0, 100, 64
2, 8624, Note_on_c, 0, 96, 47
2, 8665, Note_off_c, 0, 96, 64
2, 8665, Note_on_c, 0, 90, 50
2, 8706, Note_off_c, 0, 90, 64
2, 8707, Note_on_c, 0, 84, 47
2, 8746, Note_off_c, 0, 84, 64
2, 8748, Note_on_c, 0, 88, 62
2, 8787, Note_off_c, 0, 88, 64
2, 8789, Note_on_c, 0, 84, 50
2, 8828, Note_off_c, 0, 84, 64
2, 8830, Note_on_c, 0, 78, 47
2, 8869, Note_off_c, 0, 78, 64
2, 8870, Note_on_c, 0, 72, 50
2, 8911, Note_off_c, 0, 72, 64
2, 8911, Note_on_c, 0, 76, 67
2, 8950, Note_off_c, 0, 45, 64
2, 8952, Note_off_c, 0, 76, 64
2, 8952, Note_on_c, 0, 72, 44
2, 8962, Note_off_c, 0, 33, 64
2, 8962, Control_c, 0, 123, 0
2, 8991, Note_off_c, 0, 72, 64
2, 8993, Note_on_c, 0, 66, 44
2, 9033, Note_off_c, 0, 66, 64
2, 9035, Note_on_c, 0, 60, 52
2, 9074, Note_off_c, 0, 60, 64
2, 9076, Note_on_c, 0, 64, 60
2, 9116, Note_off_c, 0, 64, 64
2, 9116, Note_on_c, 0, 60, 44
2, 9156, Note_off_c, 0, 60, 64
2, 9157, Note_on_c, 0, 54, 55
2, 9198, Note_off_c, 0, 54, 64
2, 9198, Note_on_c, 0, 48, 52
2, 9217, Control_c, 0, 64, 64
2, 9226, Control_c, 0, 64, 0
2, 9227, Note_on_c, 0, 43, 67
2, 9227, Note_on_c, 0, 31, 67
2, 9237, Note_off_c, 0, 48, 64
2, 9240, Note_on_c, 0, 31, 70
2, 9279, Note_off_c, 0, 31, 64
2, 9281, Note_on_c, 0, 48, 56
2, 9296, Control_c, 0, 64, 64
2, 9305, Control_c, 0, 64, 127
2, 9320, Note_off_c, 0, 48, 64
2, 9320, Note_on_c, 0, 55, 56
2, 9361, Note_off_c, 0, 55, 64
2, 9361, Note_on_c, 0, 60, 56
2, 9403, Note_off_c, 0, 60, 64
2, 9403, Note_on_c, 0, 62, 59
2, 9442, Note_off_c, 0, 62, 64
2, 9444, Note_on_c, 0, 60, 59
2, 9483, Note_off_c, 0, 60, 64
2, 9485, Note_on_c, 0, 67, 50
2, 9525, Note_off_c, 0, 67, 64
2, 9527, Note_on_c, 0, 72, 41
2, 9566, Note_off_c, 0, 72, 64
2, 9566, Note_on_c, 0, 74, 62
2, 9607, Note_off_c, 0, 74, 64
2, 9608, Note_on_c, 0, 72, 52
2, 9648, Note_off_c, 0, 72, 64
2, 9649, Note_on_c, 0, 79, 36
2, 9688, Note_off_c, 0, 79, 64
2, 9690, Note_on_c, 0, 84, 50
2, 9729, Note_off_c, 0, 84, 64
2, 9731, Note_on_c, 0, 86, 47
2, 9770, Note_off_c, 0, 86, 64
2, 9772, Note_on_c, 0, 84, 50
2, 9812, Note_off_c, 0, 84, 64
2, 9812, Note_on_c, 0, 91, 47
2, 9853, Note_off_c, 0, 91, 64
2, 9853, Note_on_c, 0, 96, 36
2, 9895, Note_off_c, 0, 96, 64
2, 9895, Note_on_c, 0, 98, 63
2, 9934, Note_off_c, 0, 98, 64
2, 9936, Note_on_c, 0, 95, 50
2, 9975, Note_off_c, 0, 95, 64
2, 9977, Note_on_c, 0, 91, 50
2, 10016, Note_off_c, 0, 91, 64
2, 10017, Note_on_c, 0, 83, 41
2, 10058, Note_off_c, 0, 83, 64
2, 10058, Note_on_c, 0, 86, 70
2, 10099, Note_off_c, 0, 86, 64
2, 10099, Note_on_c, 0, 83, 52
2, 10110, Note_off_c, 0, 31, 64
2, 10139, Note_off_c, 0, 83, 64
2, 10140, Note_on_c, 0, 79, 47
2, 10152, Note_off_c, 0, 43, 64
2, 10155, Control_c, 0, 123, 0
2, 10180, Note_off_c, 0, 79, 64
2, 10182, Note_on_c, 0, 71, 39
2, 10221, Note_off_c, 0, 71, 64
2, 10223, Note_on_c, 0, 74, 67
2, 10262, Note_off_c, 0, 74, 64
2, 10263, Note_on_c, 0, 71, 52
2, 10304, Note_off_c, 0, 71, 64
2, 10304, Note_on_c, 0, 67, 36
2, 10345, Note_off_c, 0, 67, 64
2, 10345, Note_on_c, 0, 59, 48
2, 10385, Note_off_c, 0, 59, 64
2, 10386, Note_on_c, 0, 62, 47
2, 10426, Note_off_c, 0, 62, 64
2, 10428, Note_on_c, 0, 59, 54
2, 10467, Note_off_c, 0, 59, 64
2, 10469, Note_on_c, 0, 55, 52
2, 10508, Note_off_c, 0, 55, 64
2, 10509, Note_on_c, 0, 47, 52
2, 10549, Note_off_c, 0, 47, 64
2, 10550, Note_on_c, 0, 36, 70
2, 10557, Note_on_c, 0, 36, 62
2, 10558, Note_on_c, 0, 48, 59
2, 10572, Control_c, 0, 64, 64
2, 10584, Control_c, 0, 64, 0
2, 10591, Note_off_c, 0, 36, 64
2, 10591, Note_on_c, 0, 50, 52
2, 10631, Note_off_c, 0, 50, 64
2, 10632, Note_on_c, 0, 55, 59
2, 10647, Control_c, 0, 64, 64
2, 10657, Control_c, 0, 64, 127
2, 10672, Note_off_c, 0, 55, 64
2, 10674, Note_on_c, 0, 62, 62
2, 10713, Note_off_c, 0, 62, 64
2, 10713, Note_on_c, 0, 64, 60
2, 10754, Note_off_c, 0, 64, 64
2, 10755, Note_on_c, 0, 62, 56
2, 10796, Note_off_c, 0, 62, 64
2, 10796, Note_on_c, 0, 67, 47
2, 10835, Note_off_c, 0, 67, 64
2, 10837, Note_on_c, 0, 74, 62
2, 10876, Note_off_c, 0, 74, 64
2, 10878, Note_on_c, 0, 76, 62
2, 10918, Note_off_c, 0, 76, 64
2, 10920, Note_on_c, 0, 74, 56
2, 10959, Note_off_c, 0, 74, 64
2, 10959, Note_on_c, 0, 79, 56
2, 11000, Note_off_c, 0, 79, 64
2, 11001, Note_on_c, 0, 86, 62
2, 11041, Note_off_c, 0, 86, 64
2, 11042, Note_on_c, 0, 88, 67
2, 11081, Note_off_c, 0, 88, 64
2, 11083, Note_on_c, 0, 86, 56
2, 11122, Note_off_c, 0, 86, 64
2, 11124, Note_on_c, 0, 91, 34
2, 11164, Note_off_c, 0, 91, 64
2, 11165, Note_on_c, 0, 98, 56
2, 11205, Note_off_c, 0, 98, 64
2, 11205, Note_on_c, 0, 100, 70
2, 11246, Note_off_c, 0, 100, 64
2, 11246, Note_on_c, 0, 96, 59
2, 11288, Note_off_c, 0, 96, 64
2, 11288, Note_on_c, 0, 91, 56
2, 11327, Note_off_c, 0, 91, 64
2, 11329, Note_on_c, 0, 84, 52
2, 11368, Note_off_c, 0, 84, 64
2, 11370, Note_on_c, 0, 88, 67
2, 11410, Note_off_c, 0, 88, 64
2, 11410, Note_on_c, 0, 84, 52
2, 11451, Note_off_c, 0, 84, 64
2, 11451, Note_on_c, 0, 79, 50
2, 11492, Note_off_c, 0, 79, 64
2, 11493, Note_on_c, 0, 72, 56
2, 11532, Note_off_c, 0, 72, 64
2, 11533, Note_on_c, 0, 76, 67
2, 11573, Note_off_c, 0, 76, 64
2, 11575, Note_on_c, 0, 72, 59
2, 11614, Note_off_c, 0, 72, 64
2, 11616, Note_on_c, 0, 67, 50
2, 11624, Note_off_c, 0, 48, 64
2, 11652, Note_off_c, 0, 36, 64
2, 11652, Control_c, 0, 123, 0
2, 11655, Note_off_c, 0, 67, 64
2, 11656, Note_on_c, 0, 60, 50
2, 11697, Note_off_c, 0, 60, 64
2, 11697, Note_on_c, 0, 64, 60
2, 11738, Note_off_c, 0, 64, 64
2, 11738, Note_on_c, 0, 60, 56
2, 11777, Note_off_c, 0, 60, 64
2, 11779, Note_on_c, 0, 55, 56
2, 11819, Note_off_c, 0, 55, 64
2, 11820, Note_on_c, 0, 48, 59
2, 11860, Note_off_c, 0, 48, 64
2, 11862, Note_on_c, 0, 33, 51
2, 11869, Note_on_c, 0, 45, 50
2, 11870, Note_on_c, 0, 33, 59
2, 11881, Control_c, 0, 64, 0
2, 11901, Note_off_c, 0, 33, 64
2, 11902, Note_on_c, 0, 52, 37
2, 11943, Note_off_c, 0, 52, 64
2, 11943, Note_on_c, 0, 60, 37
2, 11960, Control_c, 0, 64, 64
2, 11973, Control_c, 0, 64, 96
2, 11982, Control_c, 0, 64, 127
2, 11984, Note_off_c, 0, 60, 64
2, 11984, Note_on_c, 0, 64, 36
2, 12024, Note_off_c, 0, 64, 64
2, 12025, Note_on_c, 0, 65, 42
2, 12065, Note_off_c, 0, 65, 64
2, 12067, Note_on_c, 0, 64, 36
2, 12106, Note_off_c, 0, 64, 64
2, 12106, Note_on_c, 0, 72, 35
2, 12147, Note_off_c, 0, 72, 64
2, 12148, Note_on_c, 0, 76, 35
2, 12189, Note_off_c, 0, 76, 64
2, 12189, Note_on_c, 0, 77, 39
2, 12211, Note_off_c, 0, 33, 64
2, 12228, Note_off_c, 0, 77, 64
2, 12230, Note_on_c, 0, 76, 35
2, 12269, Note_off_c, 0, 76, 64
2, 12271, Note_on_c, 0, 84, 29
2, 12279, Note_off_c, 0, 45, 64
2, 12283, Control_c, 0, 123, 0
2, 12311, Note_off_c, 0, 84, 64
2, 12312, Note_on_c, 0, 88, 42
2, 12352, Note_off_c, 0, 88, 64
2, 12352, Note_on_c, 0, 89, 37
2, 12393, Note_off_c, 0, 89, 64
2, 12394, Note_on_c, 0, 88, 28
2, 12434, Note_off_c, 0, 88, 64
2, 12435, Note_on_c, 0, 96, 14
2, 12474, Note_off_c, 0, 96, 64
2, 12476, Note_on_c, 0, 100, 32
2, 12493, Note_on_c, 0, 47, 44
2, 12493, Note_on_c, 0, 35, 47
2, 12502, Control_c, 0, 64, 96
2, 12512, Control_c, 0, 64, 0
2, 12515, Note_off_c, 0, 100, 64
2, 12517, Note_on_c, 0, 101, 38
2, 12556, Note_off_c, 0, 101, 64
2, 12559, Note_on_c, 0, 98, 38
2, 12559, Control_c, 0, 64, 64
2, 12574, Control_c, 0, 64, 127
2, 12598, Note_off_c, 0, 98, 64
2, 12598, Note_on_c, 0, 95, 37
2, 12639, Note_off_c, 0, 95, 64
2, 12639, Note_on_c, 0, 86, 32
2, 12679, Note_off_c, 0, 47, 64
2, 12681, Note_off_c, 0, 86, 64
2, 12681, Note_on_c, 0, 89, 42
2, 12690, Note_off_c, 0, 35, 64
2, 12690, Control_c, 0, 123, 0
2, 12720, Note_off_c, 0, 89, 64
2, 12722, Note_on_c, 0, 86, 37
2, 12761, Note_off_c, 0, 86, 64
2, 12763, Note_on_c, 0, 83, 32
2, 12803, Note_off_c, 0, 83, 64
2, 12803, Note_on_c, 0, 74, 28
2, 12842, Note_on_c, 0, 45, 56
2, 12842, Note_on_c, 0, 33, 50
2, 12844, Note_off_c, 0, 74, 64
2, 12844, Note_on_c, 0, 77, 44
2, 12850, Control_c, 0, 64, 96
2, 12863, Control_c, 0, 64, 0
2, 12885, Note_off_c, 0, 77, 64
2, 12886, Note_on_c, 0, 74, 37
2, 12906, Control_c, 0, 64, 64
2, 12915, Control_c, 0, 64, 127
2, 12924, Note_off_c, 0, 74, 64
2, 12926, Note_on_c, 0, 71, 32
2, 12966, Note_off_c, 0, 71, 64
2, 12968, Note_on_c, 0, 62, 29
2, 13007, Note_off_c, 0, 33, 64
2, 13008, Note_off_c, 0, 62, 64
2, 13009, Note_on_c, 0, 65, 32
2, 13013, Note_off_c, 0, 45, 64
2, 13013, Control_c, 0, 123, 0
2, 13048, Note_off_c, 0, 65, 64
2, 13049, Note_on_c, 0, 62, 35
2, 13090, Note_off_c, 0, 62, 64
2, 13090, Note_on_c, 0, 59, 30
2, 13131, Note_off_c, 0, 59, 64
2, 13131, Note_on_c, 0, 50, 35
2, 13170, Note_off_c, 0, 50, 64
2, 13172, Note_on_c, 0, 32, 51
2, 13189, Note_on_c, 0, 44, 55
2, 13189, Note_on_c, 0, 32, 50
2, 13204, Control_c, 0, 64, 96
2, 13212, Note_off_c, 0, 32, 64
2, 13214, Note_on_c, 0, 50, 39
2, 13214, Control_c, 0, 64, 64
2, 13227, Control_c, 0, 64, 0
2, 13253, Note_off_c, 0, 50, 64
2, 13255, Note_on_c, 0, 59, 40
2, 13281, Control_c, 0, 64, 64
2, 13291, Control_c, 0, 64, 96
2, 13295, Note_off_c, 0, 59, 64
2, 13295, Note_on_c, 0, 62, 35
2, 13300, Control_c, 0, 64, 127
2, 13336, Note_off_c, 0, 62, 64
2, 13336, Note_on_c, 0, 64, 40
2, 13377, Note_off_c, 0, 64, 64
2, 13377, Note_on_c, 0, 62, 37
2, 13416, Note_off_c, 0, 62, 64
2, 13418, Note_on_c, 0, 71, 37
2, 13458, Note_off_c, 0, 71, 64
2, 13460, Note_on_c, 0, 74, 37
2, 13499, Note_off_c, 0, 74, 64
2, 13500, Note_on_c, 0, 76, 39
2, 13540, Note_off_c, 0, 76, 64
2, 13541, Note_on_c, 0, 74, 37
2, 13582, Note_off_c, 0, 74, 64
2, 13582, Note_on_c, 0, 83, 37
2, 13621, Note_off_c, 0, 83, 64
2, 13623, Note_on_c, 0, 86, 37
2, 13662, Note_off_c, 0, 86, 64
2, 13664, Note_on_c, 0, 88, 39
2, 13704, Note_off_c, 0, 88, 64
2, 13705, Note_on_c, 0, 86, 37
2, 13724, Note_off_c, 0, 32, 64
2, 13745, Note_off_c, 0, 86, 64
2, 13745, Note_off_c, 0, 44, 64
2, 13745, Note_on_c, 0, 95, 32
2, 13746, Control_c, 0, 123, 0
2, 13786, Note_off_c, 0, 95, 64
2, 13787, Note_on_c, 0, 98, 35
2, 13822, Control_c, 0, 64, 96
2, 13827, Note_off_c, 0, 98, 64
2, 13828, Note_on_c, 0, 100, 39
2, 13831, Control_c, 0, 64, 64
2, 13839, Note_on_c, 0, 45, 56
2, 13839, Note_on_c, 0, 33, 59
2, 13850, Control_c, 0, 64, 0
2, 13867, Note_off_c, 0, 100, 64
2, 13869, Note_on_c, 0, 96, 32
2, 13886, Control_c, 0, 64, 64
2, 13897, Control_c, 0, 64, 127
2, 13908, Note_off_c, 0, 96, 64
2, 13910, Note_on_c, 0, 93, 35
2, 13950, Note_off_c, 0, 93, 64
2, 13952, Note_on_c, 0, 84, 29
2, 13989, Note_off_c, 0, 45, 64
2, 13991, Note_off_c, 0, 84, 64
2, 13991, Note_on_c, 0, 88, 39
2, 14006, Note_off_c, 0, 33, 64
2, 14006, Control_c, 0, 123, 0
2, 14032, Note_off_c, 0, 88, 64
2, 14032, Note_on_c, 0, 84, 32
2, 14074, Note_off_c, 0, 84, 64
2, 14074, Note_on_c, 0, 81, 32
2, 14113, Note_off_c, 0, 81, 64
2, 14115, Note_on_c, 0, 72, 29
2, 14154, Note_off_c, 0, 72, 64
2, 14156, Note_on_c, 0, 76, 42
2, 14169, Note_on_c, 0, 43, 59
2, 14170, Note_on_c, 0, 31, 56
2, 14177, Control_c, 0, 64, 96
2, 14188, Control_c, 0, 64, 0
2, 14196, Note_off_c, 0, 76, 64
2, 14196, Note_on_c, 0, 72, 32
2, 14231, Control_c, 0, 64, 64
2, 14237, Note_off_c, 0, 72, 64
2, 14237, Note_on_c, 0, 69, 32
2, 14241, Control_c, 0, 64, 96
2, 14252, Control_c, 0, 64, 127
2, 14278, Note_off_c, 0, 69, 64
2, 14279, Note_on_c, 0, 60, 32
2, 14308, Note_off_c, 0, 43, 64
2, 14317, Note_off_c, 0, 60, 64
2, 14319, Note_on_c, 0, 64, 40
2, 14321, Note_off_c, 0, 31, 64
2, 14322, Control_c, 0, 123, 0
2, 14359, Note_off_c, 0, 64, 64
2, 14361, Note_on_c, 0, 60, 35
2, 14400, Note_off_c, 0, 60, 64
2, 14402, Note_on_c, 0, 57, 35
2, 14441, Note_off_c, 0, 57, 64
2, 14442, Note_on_c, 0, 48, 32
2, 14483, Note_off_c, 0, 48, 64
2, 14483, Note_on_c, 0, 29, 48
2, 14498, Note_on_c, 0, 41, 63
2, 14498, Note_on_c, 0, 29, 62
2, 14524, Note_off_c, 0, 29, 64
2, 14524, Note_on_c, 0, 48, 37
2, 14535, Control_c, 0, 64, 96
2, 14544, Control_c, 0, 64, 0
2, 14564, Note_off_c, 0, 48, 64
2, 14566, Note_on_c, 0, 57, 32
2, 14605, Note_off_c, 0, 57, 64
2, 14607, Note_on_c, 0, 60, 32
2, 14620, Control_c, 0, 64, 96
2, 14629, Control_c, 0, 64, 127
2, 14646, Note_off_c, 0, 60, 64
2, 14648, Note_on_c, 0, 64, 38
2, 14688, Note_off_c, 0, 64, 64
2, 14688, Note_on_c, 0, 60, 29
2, 14729, Note_off_c, 0, 60, 64
2, 14729, Note_on_c, 0, 69, 35
2, 14770, Note_off_c, 0, 69, 64
2, 14771, Note_on_c, 0, 72, 35
2, 14809, Note_off_c, 0, 72, 64
2, 14811, Note_on_c, 0, 76, 44
2, 14851, Note_off_c, 0, 76, 64
2, 14853, Note_on_c, 0, 72, 29
2, 14892, Note_off_c, 0, 72, 64
2, 14892, Note_on_c, 0, 81, 35
2, 14933, Note_off_c, 0, 81, 64
2, 14934, Note_on_c, 0, 84, 22
2, 14975, Note_off_c, 0, 84, 64
2, 14975, Note_on_c, 0, 88, 39
2, 15014, Note_off_c, 0, 88, 64
2, 15016, Note_on_c, 0, 84, 25
2, 15055, Note_off_c, 0, 84, 64
2, 15057, Note_on_c, 0, 93, 35
2, 15096, Note_off_c, 0, 93, 64
2, 15098, Note_on_c, 0, 96, 32
2, 15138, Note_off_c, 0, 96, 64
2, 15138, Note_on_c, 0, 99, 43
2, 15179, Note_off_c, 0, 99, 64
2, 15180, Note_on_c, 0, 95, 32
2, 15220, Note_off_c, 0, 95, 64
2, 15221, Note_on_c, 0, 93, 29
2, 15260, Note_off_c, 0, 93, 64
2, 15262, Note_on_c, 0, 83, 35
2, 15301, Note_off_c, 0, 83, 64
2, 15303, Note_on_c, 0, 87, 43
2, 15343, Note_off_c, 0, 87, 64
2, 15345, Note_on_c, 0, 83, 29
2, 15384, Note_off_c, 0, 83, 64
2, 15384, Note_on_c, 0, 81, 28
2, 15393, Note_off_c, 0, 41, 64
2, 15407, Note_off_c, 0, 29, 64
2, 15407, Control_c, 0, 123, 0
2, 15425, Note_off_c, 0, 81, 64
2, 15425, Note_on_c, 0, 71, 25
2, 15467, Note_off_c, 0, 71, 64
2, 15467, Note_on_c, 0, 75, 40
2, 15506, Note_off_c, 0, 75, 64
2, 15508, Note_on_c, 0, 71, 32
2, 15547, Note_off_c, 0, 71, 64
2, 15550, Note_on_c, 0, 69, 35
2, 15588, Note_off_c, 0, 69, 64
2, 15589, Note_on_c, 0, 59, 40
2, 15630, Note_off_c, 0, 59, 64
2, 15630, Note_on_c, 0, 63, 40
2, 15671, Note_off_c, 0, 63, 64
2, 15672, Note_on_c, 0, 59, 38
2, 15710, Note_off_c, 0, 59, 64
2, 15712, Note_on_c, 0, 57, 37
2, 15752, Note_off_c, 0, 57, 64
2, 15754, Note_on_c, 0, 47, 37
2, 15793, Note_off_c, 0, 47, 64
2, 15795, Note_on_c, 0, 28, 64
2, 15797, Note_on_c, 0, 28, 70
2, 15816, Control_c, 0, 64, 96
2, 15825, Control_c, 0, 64, 64
2, 15835, Note_off_c, 0, 28, 64
2, 15835, Control_c, 0, 64, 0
2, 15837, Note_on_c, 0, 47, 40
2, 15872, Control_c, 0, 64, 64
2, 15876, Note_off_c, 0, 47, 64
2, 15878, Note_on_c, 0, 57, 42
2, 15887, Control_c, 0, 64, 96
2, 15895, Control_c, 0, 64, 127
2, 15917, Note_off_c, 0, 57, 64
2, 15919, Note_on_c, 0, 59, 44
2, 15960, Note_off_c, 0, 59, 64
2, 15960, Note_on_c, 0, 64, 46
2, 16002, Note_off_c, 0, 64, 64
2, 16004, Note_on_c, 0, 59, 37
2, 16045, Note_off_c, 0, 59, 64
2, 16045, Note_on_c, 0, 69, 35
2, 16086, Note_off_c, 0, 69, 64
2, 16088, Note_on_c, 0, 71, 40
2, 16129, Note_off_c, 0, 71, 64
2, 16131, Note_on_c, 0, 76, 42
2, 16173, Note_off_c, 0, 76, 64
2, 16175, Note_on_c, 0, 71, 30
2, 16216, Note_off_c, 0, 71, 64
2, 16218, Note_on_c, 0, 81, 38
2, 16260, Note_off_c, 0, 81, 64
2, 16261, Note_on_c, 0, 83, 35
2, 16304, Note_off_c, 0, 83, 64
2, 16306, Note_on_c, 0, 88, 40
2, 16349, Note_off_c, 0, 88, 64
2, 16349, Note_on_c, 0, 83, 40
2, 16392, Note_off_c, 0, 83, 64
2, 16394, Note_on_c, 0, 93, 40
2, 16437, Note_off_c, 0, 93, 64
2, 16439, Note_on_c, 0, 95, 38
2, 16482, Note_off_c, 0, 95, 64
2, 16484, Note_on_c, 0, 100, 46
2, 16527, Note_off_c, 0, 100, 64
2, 16529, Note_on_c, 0, 95, 38
2, 16572, Note_off_c, 0, 95, 64
2, 16574, Note_on_c, 0, 92, 38
2, 16618, Note_off_c, 0, 92, 64
2, 16619, Note_on_c, 0, 83, 38
2, 16662, Note_off_c, 0, 83, 64
2, 16664, Note_on_c, 0, 88, 42
2, 16707, Note_off_c, 0, 88, 64
2, 16709, Note_on_c, 0, 83, 35
2, 16713, Note_off_c, 0, 28, 64
2, 16714, Control_c, 0, 123, 0
2, 16752, Note_off_c, 0, 83, 64
2, 16754, Note_on_c, 0, 80, 30
2, 16798, Note_off_c, 0, 80, 64
2, 16800, Note_on_c, 0, 71, 27
2, 16843, Note_off_c, 0, 71, 64
2, 16845, Note_on_c, 0, 76, 46
2, 16888, Note_off_c, 0, 76, 64
2, 16890, Note_on_c, 0, 71, 35
2, 16932, Note_off_c, 0, 71, 64
2, 16935, Note_on_c, 0, 68, 31
2, 16978, Note_off_c, 0, 68, 64
2, 16980, Note_on_c, 0, 59, 41
2, 17023, Note_off_c, 0, 59, 64
2, 17025, Note_on_c, 0, 64, 44
2, 17068, Note_off_c, 0, 64, 64
2, 17070, Note_on_c, 0, 59, 41
2, 17113, Note_off_c, 0, 59, 64
2, 17115, Note_on_c, 0, 56, 42
2, 17158, Note_off_c, 0, 56, 64
2, 17160, Note_on_c, 0, 47, 35
2, 17203, Note_off_c, 0, 47, 64
2, 17205, Note_on_c, 0, 33, 80
2, 17205, Note_on_c, 0, 33, 62
2, 17214, Note_on_c, 0, 45, 59
2, 17228, Control_c, 0, 64, 64
2, 17237, Control_c, 0, 64, 0
2, 17248, Note_off_c, 0, 33, 64
2, 17250, Note_on_c, 0, 52, 67
2, 17290, Control_c, 0, 64, 64
2, 17293, Note_off_c, 0, 52, 64
2, 17295, Note_on_c, 0, 57, 59
2, 17301, Control_c, 0, 64, 127
2, 17338, Note_off_c, 0, 57, 64
2, 17340, Note_on_c, 0, 61, 59
2, 17383, Note_off_c, 0, 61, 64
2, 17385, Note_on_c, 0, 67, 75
2, 17428, Note_off_c, 0, 67, 64
2, 17430, Note_on_c, 0, 64, 67
2, 17473, Note_off_c, 0, 64, 64
2, 17475, Note_on_c, 0, 69, 59
2, 17519, Note_off_c, 0, 69, 64
2, 17520, Note_on_c, 0, 73, 63
2, 17564, Note_off_c, 0, 73, 64
2, 17566, Note_on_c, 0, 79, 70
2, 17595, Note_off_c, 0, 33, 64
2, 17608, Note_off_c, 0, 79, 64
2, 17611, Note_on_c, 0, 76, 67
2, 17626, Note_off_c, 0, 45, 64
2, 17626, Control_c, 0, 123, 0
2, 17654, Note_off_c, 0, 76, 64
2, 17655, Note_on_c, 0, 81, 56
2, 17699, Note_off_c, 0, 81, 64
2, 17700, Note_on_c, 0, 85, 68
2, 17744, Note_off_c, 0, 85, 64
2, 17746, Note_on_c, 0, 91, 67
2, 17789, Note_off_c, 0, 91, 64
2, 17791, Note_on_c, 0, 85, 55
2, 17834, Note_off_c, 0, 85, 64
2, 17836, Note_on_c, 0, 81, 52
2, 17879, Note_off_c, 0, 81, 64
2, 17881, Note_on_c, 0, 76, 44
2, 17916, Note_on_c, 0, 38, 67
2, 17922, Note_on_c, 0, 50, 70
2, 17924, Note_off_c, 0, 76, 64
2, 17926, Note_on_c, 0, 91, 59
2, 17931, Control_c, 0, 64, 96
2, 17945, Control_c, 0, 64, 64
2, 17969, Note_off_c, 0, 91, 64
2, 17969, Control_c, 0, 64, 96
2, 17971, Note_on_c, 0, 84, 56
2, 17982, Control_c, 0, 64, 127
2, 18014, Note_off_c, 0, 84, 64
2, 18016, Note_on_c, 0, 81, 52
2, 18059, Note_off_c, 0, 81, 64
2, 18061, Note_on_c, 0, 76, 59
2, 18104, Note_off_c, 0, 76, 64
2, 18106, Note_on_c, 0, 79, 67
2, 18149, Note_off_c, 0, 79, 64
2, 18151, Note_on_c, 0, 72, 50
2, 18194, Note_off_c, 0, 72, 64
2, 18196, Note_on_c, 0, 69, 50
2, 18240, Note_off_c, 0, 69, 64
2, 18241, Note_on_c, 0, 64, 49
2, 18285, Note_off_c, 0, 64, 64
2, 18287, Note_on_c, 0, 67, 67
2, 18329, Note_off_c, 0, 67, 64
2, 18330, Note_off_c, 0, 50, 64
2, 18331, Note_on_c, 0, 60, 59
2, 18358, Note_off_c, 0, 38, 64
2, 18358, Control_c, 0, 123, 0
2, 18374, Note_off_c, 0, 60, 64
2, 18377, Note_on_c, 0, 57, 59
2, 18420, Note_off_c, 0, 57, 64
2, 18421, Note_on_c, 0, 52, 62
2, 18465, Note_off_c, 0, 52, 64
2, 18467, Note_on_c, 0, 66, 68
2, 18510, Note_off_c, 0, 66, 64
2, 18512, Note_on_c, 0, 60, 56
2, 18555, Note_off_c, 0, 60, 64
2, 18557, Note_on_c, 0, 57, 56
2, 18600, Note_off_c, 0, 57, 64
2, 18602, Note_on_c, 0, 50, 59
2, 18639, Note_on_c, 0, 31, 70
2, 18645, Note_off_c, 0, 50, 64
2, 18647, Note_on_c, 0, 43, 70
2, 18647, Note_on_c, 0, 31, 75
2, 18662, Control_c, 0, 64, 64
2, 18671, Control_c, 0, 64, 0
2, 18690, Note_off_c, 0, 31, 64
2, 18692, Note_on_c, 0, 50, 62
2, 18722, Control_c, 0, 64, 64
2, 18733, Control_c, 0, 64, 96
2, 18735, Note_off_c, 0, 50, 64
2, 18737, Note_on_c, 0, 55, 67
2, 18743, Control_c, 0, 64, 127
2, 18780, Note_off_c, 0, 55, 64
2, 18782, Note_on_c, 0, 60, 59
2, 18825, Note_off_c, 0, 60, 64
2, 18827, Note_on_c, 0, 65, 59
2, 18870, Note_off_c, 0, 65, 64
2, 18872, Note_on_c, 0, 62, 50
2, 18915, Note_off_c, 0, 62, 64
2, 18917, Note_on_c, 0, 67, 52
2, 18960, Note_off_c, 0, 67, 64
2, 18962, Note_on_c, 0, 72, 56
2, 19007, Note_off_c, 0, 72, 64
2, 19008, Note_on_c, 0, 77, 67
2, 19052, Note_off_c, 0, 77, 64
2, 19053, Note_on_c, 0, 74, 56
2, 19097, Note_off_c, 0, 74, 64
2, 19098, Note_on_c, 0, 79, 59
2, 19142, Note_off_c, 0, 79, 64
2, 19143, Note_on_c, 0, 84, 67
2, 19188, Note_off_c, 0, 84, 64
2, 19188, Note_on_c, 0, 89, 67
2, 19233, Note_off_c, 0, 89, 64
2, 19233, Note_on_c, 0, 86, 59
2, 19278, Note_off_c, 0, 86, 64
2, 19278, Note_on_c, 0, 91, 56
2, 19322, Note_off_c, 0, 91, 64
2, 19323, Note_on_c, 0, 96, 56
2, 19368, Note_off_c, 0, 96, 64
2, 19368, Note_on_c, 0, 101, 60
2, 19413, Note_off_c, 0, 101, 64
2, 19413, Note_on_c, 0, 95, 56
2, 19458, Note_off_c, 0, 95, 64
2, 19458, Note_on_c, 0, 91, 50
2, 19503, Note_off_c, 0, 91, 64
2, 19503, Note_on_c, 0, 86, 56
2, 19548, Note_off_c, 0, 86, 64
2, 19548, Note_on_c, 0, 89, 67
2, 19593, Note_off_c, 0, 89, 64
2, 19593, Note_on_c, 0, 83, 67
2, 19638, Note_off_c, 0, 83, 64
2, 19638, Note_on_c, 0, 79, 52
2, 19683, Note_off_c, 0, 79, 64
2, 19683, Note_on_c, 0, 74, 59
2, 19728, Note_off_c, 0, 74, 64
2, 19728, Note_on_c, 0, 77, 70
2, 19732, Note_off_c, 0, 31, 64
2, 19769, Note_off_c, 0, 43, 64
2, 19770, Control_c, 0, 123, 0
2, 19773, Note_off_c, 0, 77, 64
2, 19774, Note_on_c, 0, 71, 59
2, 19818, Note_off_c, 0, 71, 64
2, 19819, Note_on_c, 0, 67, 59
2, 19863, Note_off_c, 0, 67, 64
2, 19863, Note_on_c, 0, 62, 62
2, 19908, Note_off_c, 0, 62, 64
2, 19908, Note_on_c, 0, 65, 70
2, 19954, Note_off_c, 0, 65, 64
2, 19954, Note_on_c, 0, 59, 71
2, 19998, Note_off_c, 0, 59, 64
2, 19999, Note_on_c, 0, 55, 67
2, 20043, Note_off_c, 0, 55, 64
2, 20044, Note_on_c, 0, 50, 70
2, 20081, Note_on_c, 0, 36, 62
2, 20087, Note_on_c, 0, 48, 59
2, 20088, Note_off_c, 0, 50, 64
2, 20089, Note_on_c, 0, 36, 75
2, 20104, Control_c, 0, 64, 64
2, 20113, Control_c, 0, 64, 0
2, 20134, Note_off_c, 0, 36, 64
2, 20134, Note_on_c, 0, 48, 67
2, 20164, Control_c, 0, 64, 64
2, 20173, Control_c, 0, 64, 96
2, 20179, Note_off_c, 0, 48, 64
2, 20179, Note_on_c, 0, 55, 67
2, 20184, Control_c, 0, 64, 127
2, 20224, Note_off_c, 0, 55, 64
2, 20224, Note_on_c, 0, 58, 68
2, 20269, Note_off_c, 0, 58, 64
2, 20269, Note_on_c, 0, 64, 70
2, 20314, Note_off_c, 0, 64, 64
2, 20314, Note_on_c, 0, 60, 67
2, 20359, Note_off_c, 0, 60, 64
2, 20359, Note_on_c, 0, 67, 62
2, 20404, Note_off_c, 0, 67, 64
2, 20404, Note_on_c, 0, 70, 58
2, 20449, Note_off_c, 0, 70, 64
2, 20449, Note_on_c, 0, 76, 62
2, 20464, Note_off_c, 0, 48, 64
2, 20484, Note_off_c, 0, 36, 64
2, 20485, Control_c, 0, 123, 0
2, 20494, Note_off_c, 0, 76, 64
2, 20495, Note_on_c, 0, 72, 62
2, 20539, Note_off_c, 0, 72, 64
2, 20539, Note_on_c, 0, 79, 59
2, 20584, Note_off_c, 0, 79, 64
2, 20584, Note_on_c, 0, 82, 68
2, 20629, Note_off_c, 0, 82, 64
2, 20629, Note_on_c, 0, 88, 62
2, 20674, Note_off_c, 0, 88, 64
2, 20675, Note_on_c, 0, 84, 56
2, 20719, Note_off_c, 0, 84, 64
2, 20720, Note_on_c, 0, 91, 59
2, 20759, Note_on_c, 0, 30, 74
2, 20764, Note_off_c, 0, 91, 64
2, 20765, Note_on_c, 0, 96, 59
2, 20765, Note_on_c, 0, 42, 68
2, 20795, Control_c, 0, 64, 96
2, 20806, Control_c, 0, 64, 64
2, 20809, Note_off_c, 0, 96, 64
2, 20810, Note_on_c, 0, 99, 74
2, 20815, Control_c, 0, 64, 0
2, 20855, Note_off_c, 0, 99, 64
2, 20855, Note_on_c, 0, 94, 55
2, 20858, Control_c, 0, 64, 64
2, 20873, Control_c, 0, 64, 127
2, 20900, Note_off_c, 0, 94, 64
2, 20900, Note_on_c, 0, 87, 68
2, 20945, Note_off_c, 0, 87, 64
2, 20945, Note_on_c, 0, 84, 70
2, 20990, Note_off_c, 0, 84, 64
2, 20990, Note_on_c, 0, 87, 74
2, 21035, Note_off_c, 0, 87, 64
2, 21036, Note_on_c, 0, 82, 68
2, 21080, Note_off_c, 0, 82, 64
2, 21080, Note_on_c, 0, 75, 68
2, 21125, Note_off_c, 0, 75, 64
2, 21125, Note_on_c, 0, 72, 62
2, 21170, Note_off_c, 0, 72, 64
2, 21170, Note_on_c, 0, 75, 68
2, 21215, Note_off_c, 0, 75, 64
2, 21216, Note_on_c, 0, 70, 55
2, 21260, Note_off_c, 0, 70, 64
2, 21261, Note_on_c, 0, 63, 63
2, 21292, Note_off_c, 0, 30, 64
2, 21305, Note_off_c, 0, 63, 64
2, 21305, Note_on_c, 0, 60, 67
2, 21312, Note_off_c, 0, 42, 64
2, 21313, Control_c, 0, 123, 0
2, 21350, Note_off_c, 0, 60, 64
2, 21350, Note_on_c, 0, 63, 74
2, 21395, Note_off_c, 0, 63, 64
2, 21396, Note_on_c, 0, 58, 63
2, 21440, Note_off_c, 0, 58, 64
2, 21441, Note_on_c, 0, 51, 68
2, 21485, Note_off_c, 0, 51, 64
2, 21486, Note_on_c, 0, 48, 62
2, 21506, Note_on_c, 0, 41, 66
2, 21506, Note_on_c, 0, 29, 70
2, 21521, Control_c, 0, 64, 64
2, 21530, Note_off_c, 0, 48, 64
2, 21531, Note_on_c, 0, 29, 75
2, 21532, Control_c, 0, 64, 0
2, 21576, Note_off_c, 0, 29, 64
2, 21576, Note_on_c, 0, 48, 67
2, 21594, Control_c, 0, 64, 64
2, 21606, Control_c, 0, 64, 127
2, 21621, Note_off_c, 0, 48, 64
2, 21621, Note_on_c, 0, 51, 74
2, 21665, Note_off_c, 0, 51, 64
2, 21666, Note_on_c, 0, 57, 67
2, 21710, Note_off_c, 0, 57, 64
2, 21711, Note_on_c, 0, 63, 63
2, 21756, Note_off_c, 0, 63, 64
2, 21756, Note_on_c, 0, 60, 62
2, 21801, Note_off_c, 0, 60, 64
2, 21801, Note_on_c, 0, 63, 63
2, 21846, Note_off_c, 0, 63, 64
2, 21846, Note_on_c, 0, 69, 67
2, 21891, Note_off_c, 0, 69, 64
2, 21891, Note_on_c, 0, 75, 68
2, 21893, Note_off_c, 0, 29, 64
2, 21936, Note_off_c, 0, 75, 64
2, 21936, Note_on_c, 0, 72, 62
2, 21943, Note_off_c, 0, 41, 64
2, 21944, Control_c, 0, 123, 0
2, 21981, Note_off_c, 0, 72, 64
2, 21981, Note_on_c, 0, 75, 63
2, 22026, Note_off_c, 0, 75, 64
2, 22026, Note_on_c, 0, 81, 67
2, 22071, Note_off_c, 0, 81, 64
2, 22072, Note_on_c, 0, 87, 74
2, 22116, Note_off_c, 0, 87, 64
2, 22116, Note_on_c, 0, 84, 59
2, 22161, Note_off_c, 0, 84, 64
2, 22162, Note_on_c, 0, 87, 68
2, 22206, Note_off_c, 0, 87, 64
2, 22207, Note_on_c, 0, 93, 56
2, 22240, Note_on_c, 0, 47, 59
2, 22240, Note_on_c, 0, 35, 62
2, 22251, Note_off_c, 0, 93, 64
2, 22252, Note_on_c, 0, 99, 74
2, 22255, Control_c, 0, 64, 96
2, 22268, Control_c, 0, 64, 0
2, 22296, Note_off_c, 0, 99, 64
2, 22296, Note_on_c, 0, 92, 58
2, 22297, Control_c, 0, 64, 64
2, 22309, Control_c, 0, 64, 127
2, 22342, Note_off_c, 0, 92, 64
2, 22342, Note_on_c, 0, 87, 63
2, 22386, Note_off_c, 0, 87, 64
2, 22387, Note_on_c, 0, 83, 67
2, 22431, Note_off_c, 0, 83, 64
2, 22432, Note_on_c, 0, 87, 68
2, 22476, Note_off_c, 0, 87, 64
2, 22477, Note_on_c, 0, 80, 68
2, 22522, Note_off_c, 0, 80, 64
2, 22522, Note_on_c, 0, 75, 68
2, 22567, Note_off_c, 0, 75, 64
2, 22567, Note_on_c, 0, 71, 59
2, 22612, Note_off_c, 0, 71, 64
2, 22612, Note_on_c, 0, 75, 68
2, 22657, Note_off_c, 0, 75, 64
2, 22657, Note_on_c, 0, 68, 58
2, 22680, Note_off_c, 0, 35, 64
2, 22680, Note_off_c, 0, 47, 64
2, 22681, Control_c, 0, 123, 0
2, 22702, Note_off_c, 0, 68, 64
2, 22702, Note_on_c, 0, 63, 63
2, 22747, Note_off_c, 0, 63, 64
2, 22747, Note_on_c, 0, 59, 66
2, 22792, Note_off_c, 0, 59, 64
2, 22792, Note_on_c, 0, 63, 68
2, 22837, Note_off_c, 0, 63, 64
2, 22839, Note_on_c, 0, 56, 67
2, 22882, Note_off_c, 0, 56, 64
2, 22884, Note_on_c, 0, 51, 68
2, 22927, Note_off_c, 0, 51, 64
2, 22929, Note_on_c, 0, 47, 62
2, 22970, Note_on_c, 0, 34, 74
2, 22972, Note_off_c, 0, 47, 64
2, 22974, Note_on_c, 0, 34, 74
2, 22995, Control_c, 0, 64, 96
2, 23004, Control_c, 0, 64, 64
2, 23014, Control_c, 0, 64, 0
2, 23017, Note_off_c, 0, 34, 64
2, 23019, Note_on_c, 0, 46, 72
2, 23063, Note_off_c, 0, 46, 64
2, 23063, Control_c, 0, 64, 64
2, 23064, Note_on_c, 0, 53, 63
2, 23076, Control_c, 0, 64, 96
2, 23085, Control_c, 0, 64, 127
2, 23108, Note_off_c, 0, 53, 64
2, 23109, Note_on_c, 0, 56, 62
2, 23152, Note_off_c, 0, 56, 64
2, 23154, Note_on_c, 0, 62, 67
2, 23197, Note_off_c, 0, 62, 64
2, 23199, Note_on_c, 0, 58, 63
2, 23243, Note_off_c, 0, 58, 64
2, 23244, Note_on_c, 0, 62, 47
2, 23288, Note_off_c, 0, 62, 64
2, 23290, Note_on_c, 0, 68, 68
2, 23333, Note_off_c, 0, 68, 64
2, 23335, Note_on_c, 0, 74, 62
2, 23378, Note_off_c, 0, 74, 64
2, 23380, Note_on_c, 0, 70, 58
2, 23423, Note_off_c, 0, 70, 64
2, 23425, Note_on_c, 0, 77, 59
2, 23468, Note_off_c, 0, 77, 64
2, 23470, Note_on_c, 0, 80, 68
2, 23513, Note_off_c, 0, 80, 64
2, 23515, Note_on_c, 0, 86, 67
2, 23558, Note_off_c, 0, 86, 64
2, 23560, Note_on_c, 0, 82, 58
2, 23603, Note_off_c, 0, 82, 64
2, 23605, Note_on_c, 0, 89, 56
2, 23648, Note_off_c, 0, 89, 64
2, 23650, Note_on_c, 0, 92, 68
2, 23675, Note_on_c, 0, 46, 78
2, 23693, Note_off_c, 0, 92, 64
2, 23695, Note_on_c, 0, 98, 66
2, 23708, Control_c, 0, 64, 96
2, 23718, Control_c, 0, 64, 64
2, 23729, Control_c, 0, 64, 0
2, 23738, Note_off_c, 0, 98, 64
2, 23740, Note_on_c, 0, 92, 63
2, 23759, Control_c, 0, 64, 64
2, 23768, Control_c, 0, 64, 96
2, 23780, Control_c, 0, 64, 127
2, 23783, Note_off_c, 0, 92, 64
2, 23785, Note_on_c, 0, 88, 56
2, 23828, Note_off_c, 0, 88, 64
2, 23831, Note_on_c, 0, 82, 58
2, 23873, Note_off_c, 0, 82, 64
2, 23875, Note_on_c, 0, 86, 67
2, 23918, Note_off_c, 0, 86, 64
2, 23920, Note_on_c, 0, 80, 58
2, 23964, Note_off_c, 0, 80, 64
2, 23965, Note_on_c, 0, 76, 59
2, 24009, Note_off_c, 0, 76, 64
2, 24011, Note_on_c, 0, 70, 58
2, 24054, Note_off_c, 0, 70, 64
2, 24056, Note_on_c, 0, 74, 62
2, 24098, Note_off_c, 0, 74, 64
2, 24101, Note_on_c, 0, 68, 58
2, 24120, Note_off_c, 0, 46, 64
2, 24129, Note_off_c, 0, 34, 64
2, 24129, Control_c, 0, 123, 0
2, 24144, Note_off_c, 0, 68, 64
2, 24145, Note_on_c, 0, 64, 52
2, 24189, Note_off_c, 0, 64, 64
2, 24191, Note_on_c, 0, 58, 50
2, 24234, Note_off_c, 0, 58, 64
2, 24236, Note_on_c, 0, 62, 62
2, 24279, Note_off_c, 0, 62, 64
2, 24281, Note_on_c, 0, 56, 67
2, 24324, Note_off_c, 0, 56, 64
2, 24326, Note_on_c, 0, 52, 52
2, 24369, Note_off_c, 0, 52, 64
2, 24371, Note_on_c, 0, 46, 62
2, 24401, Note_on_c, 0, 33, 67
2, 24407, Note_on_c, 0, 45, 59
2, 24414, Note_off_c, 0, 46, 64
2, 24416, Note_on_c, 0, 33, 80
2, 24420, Control_c, 0, 64, 96
2, 24433, Control_c, 0, 64, 0
2, 24459, Note_off_c, 0, 33, 64
2, 24461, Note_on_c, 0, 45, 62
2, 24504, Note_off_c, 0, 45, 64
2, 24504, Control_c, 0, 64, 64
2, 24506, Note_on_c, 0, 52, 62
2, 24517, Control_c, 0, 64, 127
2, 24549, Note_off_c, 0, 52, 64
2, 24551, Note_on_c, 0, 57, 67
2, 24594, Note_off_c, 0, 57, 64
2, 24596, Note_on_c, 0, 61, 62
2, 24639, Note_off_c, 0, 61, 64
2, 24642, Note_on_c, 0, 57, 59
2, 24684, Note_off_c, 0, 57, 64
2, 24686, Note_on_c, 0, 64, 52
2, 24730, Note_off_c, 0, 64, 64
2, 24732, Note_on_c, 0, 69, 62
2, 24774, Note_off_c, 0, 69, 64
2, 24777, Note_on_c, 0, 73, 74
2, 24819, Note_off_c, 0, 73, 64
2, 24821, Note_on_c, 0, 69, 56
2, 24864, Note_off_c, 0, 69, 64
2, 24867, Note_on_c, 0, 76, 56
2, 24910, Note_off_c, 0, 76, 64
2, 24912, Note_on_c, 0, 81, 56
2, 24955, Note_off_c, 0, 81, 64
2, 24957, Note_on_c, 0, 85, 74
2, 25000, Note_off_c, 0, 85, 64
2, 25002, Note_on_c, 0, 81, 62
2, 25045, Note_off_c, 0, 81, 64
2, 25047, Note_on_c, 0, 88, 59
2, 25090, Note_off_c, 0, 88, 64
2, 25092, Note_on_c, 0, 93, 56
2, 25135, Note_off_c, 0, 93, 64
2, 25137, Note_on_c, 0, 97, 63
2, 25180, Note_off_c, 0, 97, 64
2, 25182, Note_on_c, 0, 93, 62
2, 25225, Note_off_c, 0, 93, 64
2, 25227, Note_on_c, 0, 88, 56
2, 25270, Note_off_c, 0, 88, 64
2, 25272, Note_on_c, 0, 81, 52
2, 25315, Note_off_c, 0, 81, 64
2, 25317, Note_on_c, 0, 85, 68
2, 25360, Note_off_c, 0, 85, 64
2, 25362, Note_on_c, 0, 81, 59
2, 25405, Note_off_c, 0, 81, 64
2, 25407, Note_on_c, 0, 76, 52
2, 25451, Note_off_c, 0, 76, 64
2, 25452, Note_on_c, 0, 69, 47
2, 25495, Note_off_c, 0, 69, 64
2, 25497, Note_on_c, 0, 73, 63
2, 25540, Note_off_c, 0, 73, 64
2, 25542, Note_on_c, 0, 69, 50
2, 25585, Note_off_c, 0, 69, 64
2, 25587, Note_on_c, 0, 64, 52
2, 25631, Note_off_c, 0, 64, 64
2, 25632, Note_on_c, 0, 57, 56
2, 25676, Note_off_c, 0, 57, 64
2, 25678, Note_on_c, 0, 61, 67
2, 25721, Note_off_c, 0, 61, 64
2, 25723, Note_on_c, 0, 57, 59
2, 25766, Note_off_c, 0, 57, 64
2, 25768, Note_on_c, 0, 52, 59
2, 25811, Note_off_c, 0, 52, 64
2, 25813, Note_on_c, 0, 45, 56
2, 25856, Note_off_c, 0, 45, 64
2, 25858, Note_on_c, 0, 38, 67
2, 25865, Note_off_c, 0, 33, 64
2, 25865, Note_on_c, 0, 38, 75
2, 25871, Note_off_c, 0, 45, 64
2, 25886, Control_c, 0, 64, 96
2, 25895, Control_c, 0, 64, 64
2, 25901, Note_off_c, 0, 38, 64
2, 25903, Note_on_c, 0, 45, 56
2, 25907, Control_c, 0, 64, 0
2, 25946, Note_off_c, 0, 45, 64
2, 25948, Note_on_c, 0, 50, 59
2, 25957, Control_c, 0, 64, 64
2, 25968, Control_c, 0, 64, 127
2, 25991, Note_off_c, 0, 50, 64
2, 25993, Note_on_c, 0, 54, 58
2, 26036, Note_off_c, 0, 54, 64
2, 26038, Note_on_c, 0, 60, 52
2, 26081, Note_off_c, 0, 60, 64
2, 26083, Note_on_c, 0, 57, 47
2, 26126, Note_off_c, 0, 57, 64
2, 26128, Note_on_c, 0, 62, 44
2, 26171, Note_off_c, 0, 62, 64
2, 26173, Note_on_c, 0, 66, 50
2, 26207, Note_off_c, 0, 38, 64
2, 26207, Control_c, 0, 123, 0
2, 26216, Note_off_c, 0, 66, 64
2, 26218, Note_on_c, 0, 72, 50
2, 26261, Note_off_c, 0, 72, 64
2, 26263, Note_on_c, 0, 69, 39
2, 26306, Note_off_c, 0, 69, 64
2, 26308, Note_on_c, 0, 74, 47
2, 26352, Note_off_c, 0, 74, 64
2, 26353, Note_on_c, 0, 78, 58
2, 26397, Note_off_c, 0, 78, 64
2, 26399, Note_on_c, 0, 84, 62
2, 26442, Note_off_c, 0, 84, 64
2, 26444, Note_on_c, 0, 81, 47
2, 26486, Note_off_c, 0, 81, 64
2, 26489, Note_on_c, 0, 86, 41
2, 26532, Note_off_c, 0, 86, 64
2, 26533, Note_on_c, 0, 90, 50
2, 26569, Note_on_c, 0, 43, 62
2, 26569, Note_on_c, 0, 31, 70
2, 26577, Note_off_c, 0, 90, 64
2, 26579, Note_on_c, 0, 96, 56
2, 26579, Note_on_c, 0, 43, 59
2, 26584, Control_c, 0, 64, 96
2, 26599, Control_c, 0, 64, 0
2, 26622, Note_off_c, 0, 43, 64
2, 26622, Note_off_c, 0, 96, 64
2, 26624, Note_on_c, 0, 89, 47
2, 26639, Control_c, 0, 64, 64
2, 26648, Control_c, 0, 64, 127
2, 26667, Note_off_c, 0, 89, 64
2, 26669, Note_on_c, 0, 86, 50
2, 26714, Note_off_c, 0, 86, 64
2, 26714, Note_on_c, 0, 79, 50
2, 26759, Note_off_c, 0, 79, 64
2, 26759, Note_on_c, 0, 84, 67
2, 26804, Note_off_c, 0, 84, 64
2, 26804, Note_on_c, 0, 77, 50
2, 26849, Note_off_c, 0, 77, 64
2, 26849, Note_on_c, 0, 74, 47
2, 26894, Note_off_c, 0, 74, 64
2, 26894, Note_on_c, 0, 67, 47
2, 26939, Note_off_c, 0, 67, 64
2, 26940, Note_on_c, 0, 72, 62
2, 26984, Note_off_c, 0, 72, 64
2, 26985, Note_on_c, 0, 65, 44
2, 27029, Note_off_c, 0, 65, 64
2, 27029, Note_on_c, 0, 62, 47
2, 27074, Note_off_c, 0, 62, 64
2, 27074, Note_on_c, 0, 55, 50
2, 27120, Note_off_c, 0, 55, 64
2, 27120, Note_on_c, 0, 59, 79
2, 27164, Note_off_c, 0, 59, 64
2, 27165, Note_on_c, 0, 53, 56
2, 27209, Note_off_c, 0, 53, 64
2, 27210, Note_on_c, 0, 50, 52
2, 27254, Note_off_c, 0, 50, 64
2, 27255, Note_on_c, 0, 43, 59
2, 27300, Note_off_c, 0, 43, 64
2, 27300, Note_on_c, 0, 36, 67
2, 27318, Note_on_c, 0, 36, 75
2, 27324, Note_off_c, 0, 31, 64
2, 27331, Note_off_c, 0, 43, 64
2, 27335, Control_c, 0, 64, 64
2, 27345, Note_off_c, 0, 36, 64
2, 27345, Note_on_c, 0, 43, 59
2, 27347, Control_c, 0, 64, 0
2, 27390, Note_off_c, 0, 43, 64
2, 27390, Note_on_c, 0, 48, 59
2, 27405, Control_c, 0, 64, 96
2, 27414, Control_c, 0, 64, 127
2, 27435, Note_off_c, 0, 48, 64
2, 27435, Note_on_c, 0, 52, 59
2, 27480, Note_off_c, 0, 52, 64
2, 27480, Note_on_c, 0, 59, 71
2, 27525, Note_off_c, 0, 59, 64
2, 27526, Note_on_c, 0, 55, 59
2, 27570, Note_off_c, 0, 55, 64
2, 27570, Note_on_c, 0, 60, 56
2, 27615, Note_off_c, 0, 60, 64
2, 27615, Note_on_c, 0, 64, 52
2, 27660, Note_off_c, 0, 64, 64
2, 27660, Note_on_c, 0, 71, 62
2, 27705, Note_off_c, 0, 71, 64
2, 27706, Note_on_c, 0, 67, 59
2, 27735, Note_off_c, 0, 36, 64
2, 27735, Control_c, 0, 123, 0
2, 27750, Note_off_c, 0, 67, 64
2, 27750, Note_on_c, 0, 72, 56
2, 27795, Note_off_c, 0, 72, 64
2, 27795, Note_on_c, 0, 76, 59
2, 27840, Note_off_c, 0, 76, 64
2, 27840, Note_on_c, 0, 83, 62
2, 27885, Note_off_c, 0, 83, 64
2, 27886, Note_on_c, 0, 79, 41
2, 27930, Note_off_c, 0, 79, 64
2, 27931, Note_on_c, 0, 84, 47
2, 27975, Note_off_c, 0, 84, 64
2, 27976, Note_on_c, 0, 88, 52
2, 28020, Note_off_c, 0, 88, 64
2, 28021, Note_on_c, 0, 95, 70
2, 28021, Note_on_c, 0, 41, 66
2, 28026, Note_on_c, 0, 41, 66
2, 28026, Note_on_c, 0, 29, 67
2, 28045, Control_c, 0, 64, 64
2, 28054, Control_c, 0, 64, 0
2, 28066, Note_off_c, 0, 41, 64
2, 28066, Note_off_c, 0, 95, 64
2, 28066, Note_on_c, 0, 88, 62
2, 28094, Control_c, 0, 64, 64
2, 28104, Control_c, 0, 64, 127
2, 28111, Note_off_c, 0, 88, 64
2, 28111, Note_on_c, 0, 84, 50
2, 28156, Note_off_c, 0, 84, 64
2, 28156, Note_on_c, 0, 77, 41
2, 28200, Note_off_c, 0, 77, 64
2, 28201, Note_on_c, 0, 83, 70
2, 28246, Note_off_c, 0, 83, 64
2, 28246, Note_on_c, 0, 76, 59
2, 28291, Note_off_c, 0, 76, 64
2, 28291, Note_on_c, 0, 72, 52
2, 28336, Note_off_c, 0, 72, 64
2, 28336, Note_on_c, 0, 65, 47
2, 28381, Note_off_c, 0, 65, 64
2, 28381, Note_on_c, 0, 71, 50
2, 28426, Note_off_c, 0, 71, 64
2, 28426, Note_on_c, 0, 64, 52
2, 28471, Note_off_c, 0, 64, 64
2, 28471, Note_on_c, 0, 60, 50
2, 28516, Note_off_c, 0, 60, 64
2, 28516, Note_on_c, 0, 53, 54
2, 28561, Note_off_c, 0, 53, 64
2, 28561, Note_on_c, 0, 57, 67
2, 28606, Note_off_c, 0, 57, 64
2, 28607, Note_on_c, 0, 52, 56
2, 28651, Note_off_c, 0, 52, 64
2, 28652, Note_on_c, 0, 48, 50
2, 28694, Note_off_c, 0, 29, 64
2, 28696, Note_off_c, 0, 48, 64
2, 28696, Note_on_c, 0, 41, 40
2, 28734, Note_off_c, 0, 41, 64
2, 28736, Note_on_c, 0, 35, 67
2, 28741, Note_off_c, 0, 41, 64
2, 28742, Note_on_c, 0, 35, 70
2, 28762, Control_c, 0, 64, 96
2, 28772, Control_c, 0, 64, 64
2, 28783, Control_c, 0, 64, 0
2, 28787, Note_off_c, 0, 35, 64
2, 28787, Note_on_c, 0, 41, 60
2, 28832, Note_off_c, 0, 41, 64
2, 28832, Note_on_c, 0, 47, 56
2, 28841, Control_c, 0, 64, 64
2, 28850, Control_c, 0, 64, 127
2, 28876, Note_off_c, 0, 47, 64
2, 28877, Note_on_c, 0, 50, 67
2, 28921, Note_off_c, 0, 50, 64
2, 28922, Note_on_c, 0, 57, 59
2, 28967, Note_off_c, 0, 57, 64
2, 28967, Note_on_c, 0, 53, 56
2, 29012, Note_off_c, 0, 53, 64
2, 29012, Note_on_c, 0, 59, 56
2, 29057, Note_off_c, 0, 59, 64
2, 29057, Note_on_c, 0, 62, 62
2, 29102, Note_off_c, 0, 62, 64
2, 29102, Note_on_c, 0, 69, 67
2, 29147, Note_off_c, 0, 69, 64
2, 29148, Note_on_c, 0, 65, 59
2, 29192, Note_off_c, 0, 65, 64
2, 29192, Note_on_c, 0, 71, 56
2, 29237, Note_off_c, 0, 71, 64
2, 29237, Note_on_c, 0, 74, 62
2, 29271, Note_off_c, 0, 35, 64
2, 29271, Control_c, 0, 123, 0
2, 29282, Note_off_c, 0, 74, 64
2, 29282, Note_on_c, 0, 81, 59
2, 29327, Note_off_c, 0, 81, 64
2, 29328, Note_on_c, 0, 77, 52
2, 29373, Note_off_c, 0, 77, 64
2, 29373, Note_on_c, 0, 83, 50
2, 29417, Note_off_c, 0, 83, 64
2, 29418, Note_on_c, 0, 86, 50
2, 29440, Note_on_c, 0, 40, 67
2, 29440, Note_on_c, 0, 28, 67
2, 29448, Control_c, 0, 64, 96
2, 29459, Control_c, 0, 64, 0
2, 29462, Note_off_c, 0, 86, 64
2, 29463, Note_on_c, 0, 91, 59
2, 29494, Control_c, 0, 64, 64
2, 29506, Control_c, 0, 64, 127
2, 29508, Note_off_c, 0, 91, 64
2, 29508, Note_on_c, 0, 86, 59
2, 29526, Note_off_c, 0, 28, 64
2, 29552, Note_off_c, 0, 86, 64
2, 29553, Note_on_c, 0, 83, 50
2, 29560, Note_off_c, 0, 40, 64
2, 29560, Control_c, 0, 123, 0
2, 29598, Note_off_c, 0, 83, 64
2, 29598, Note_on_c, 0, 76, 50
2, 29642, Note_off_c, 0, 76, 64
2, 29643, Note_on_c, 0, 79, 70
2, 29688, Note_off_c, 0, 79, 64
2, 29688, Note_on_c, 0, 74, 50
2, 29733, Note_off_c, 0, 74, 64
2, 29733, Note_on_c, 0, 71, 50
2, 29778, Note_off_c, 0, 71, 64
2, 29778, Note_on_c, 0, 64, 52
2, 29823, Note_off_c, 0, 64, 64
2, 29823, Note_on_c, 0, 69, 67
2, 29823, Control_c, 0, 64, 96
2, 29832, Note_on_c, 0, 45, 70
2, 29832, Note_on_c, 0, 33, 75
2, 29842, Control_c, 0, 64, 0
2, 29858, Control_c, 0, 64, 64
2, 29868, Note_off_c, 0, 69, 64
2, 29868, Note_on_c, 0, 72, 59
2, 29868, Control_c, 0, 64, 96
2, 29875, Note_off_c, 0, 45, 64
2, 29883, Control_c, 0, 64, 127
2, 29885, Note_off_c, 0, 33, 64
2, 29885, Control_c, 0, 123, 0
2, 29913, Note_off_c, 0, 72, 64
2, 29913, Note_on_c, 0, 79, 47
2, 29958, Note_off_c, 0, 79, 64
2, 29958, Note_on_c, 0, 76, 52
2, 30003, Note_off_c, 0, 76, 64
2, 30003, Note_on_c, 0, 81, 56
2, 30048, Note_off_c, 0, 81, 64
2, 30048, Note_on_c, 0, 84, 59
2, 30093, Note_off_c, 0, 84, 64
2, 30093, Note_on_c, 0, 91, 59
2, 30138, Note_off_c, 0, 91, 64
2, 30138, Note_on_c, 0, 88, 50
2, 30168, Control_c, 0, 64, 64
2, 30178, Control_c, 0, 64, 0
2, 30183, Note_off_c, 0, 88, 64
2, 30184, Note_on_c, 0, 89, 50
2, 30191, Note_on_c, 0, 38, 67
2, 30196, Note_on_c, 0, 26, 70
2, 30223, Control_c, 0, 64, 64
2, 30228, Note_off_c, 0, 89, 64
2, 30228, Note_on_c, 0, 84, 44
2, 30234, Control_c, 0, 64, 127
2, 30240, Note_off_c, 0, 26, 64
2, 30240, Note_off_c, 0, 38, 64
2, 30240, Control_c, 0, 123, 0
2, 30273, Note_off_c, 0, 84, 64
2, 30274, Note_on_c, 0, 81, 50
2, 30318, Note_off_c, 0, 81, 64
2, 30319, Note_on_c, 0, 74, 44
2, 30363, Note_off_c, 0, 74, 64
2, 30364, Note_on_c, 0, 77, 32
2, 30408, Note_off_c, 0, 77, 64
2, 30409, Note_on_c, 0, 72, 36
2, 30454, Note_off_c, 0, 72, 64
2, 30454, Note_on_c, 0, 69, 50
2, 30499, Note_off_c, 0, 69, 64
2, 30499, Note_on_c, 0, 62, 50
2, 30525, Control_c, 0, 64, 96
2, 30534, Control_c, 0, 64, 64
2, 30544, Note_off_c, 0, 62, 64
2, 30546, Note_on_c, 0, 67, 67
2, 30546, Control_c, 0, 64, 0
2, 30550, Note_on_c, 0, 43, 75
2, 30550, Note_on_c, 0, 31, 70
2, 30566, Control_c, 0, 64, 96
2, 30576, Control_c, 0, 64, 127
2, 30585, Note_off_c, 0, 43, 64
2, 30588, Note_off_c, 0, 67, 64
2, 30591, Note_on_c, 0, 71, 52
2, 30600, Note_off_c, 0, 31, 64
2, 30600, Control_c, 0, 123, 0
2, 30634, Note_off_c, 0, 71, 64
2, 30636, Note_on_c, 0, 77, 59
2, 30679, Note_off_c, 0, 77, 64
2, 30681, Note_on_c, 0, 74, 56
2, 30724, Note_off_c, 0, 74, 64
2, 30726, Note_on_c, 0, 79, 62
2, 30769, Note_off_c, 0, 79, 64
2, 30771, Note_on_c, 0, 83, 52
2, 30814, Note_off_c, 0, 83, 64
2, 30816, Note_on_c, 0, 89, 52
2, 30859, Note_off_c, 0, 89, 64
2, 30861, Note_on_c, 0, 86, 47
2, 30887, Control_c, 0, 64, 96
2, 30897, Control_c, 0, 64, 64
2, 30904, Note_off_c, 0, 86, 64
2, 30906, Note_on_c, 0, 88, 62
2, 30908, Control_c, 0, 64, 0
2, 30913, Note_on_c, 0, 36, 67
2, 30919, Note_on_c, 0, 24, 70
2, 30934, Control_c, 0, 64, 64
2, 30946, Control_c, 0, 64, 127
2, 30949, Note_off_c, 0, 88, 64
2, 30951, Note_off_c, 0, 24, 64
2, 30951, Note_on_c, 0, 83, 56
2, 30959, Note_off_c, 0, 36, 64
2, 30959, Control_c, 0, 123, 0
2, 30994, Note_off_c, 0, 83, 64
2, 30996, Note_on_c, 0, 79, 47
2, 31039, Note_off_c, 0, 79, 64
2, 31041, Note_on_c, 0, 72, 44
2, 31084, Note_off_c, 0, 72, 64
2, 31086, Note_on_c, 0, 76, 67
2, 31129, Note_off_c, 0, 76, 64
2, 31131, Note_on_c, 0, 71, 50
2, 31175, Note_off_c, 0, 71, 64
2, 31176, Note_on_c, 0, 67, 52
2, 31220, Note_off_c, 0, 67, 64
2, 31222, Note_on_c, 0, 60, 59
2, 31242, Control_c, 0, 64, 96
2, 31253, Control_c, 0, 64, 64
2, 31255, Note_on_c, 0, 41, 71
2, 31256, Note_on_c, 0, 29, 70
2, 31264, Note_off_c, 0, 60, 64
2, 31267, Note_on_c, 0, 65, 67
2, 31267, Control_c, 0, 64, 0
2, 31280, Control_c, 0, 64, 64
2, 31291, Control_c, 0, 64, 96
2, 31300, Control_c, 0, 64, 127
2, 31302, Note_off_c, 0, 41, 64
2, 31304, Note_off_c, 0, 29, 64
2, 31304, Control_c, 0, 123, 0
2, 31309, Note_off_c, 0, 65, 64
2, 31311, Note_on_c, 0, 69, 56
2, 31355, Note_off_c, 0, 69, 64
2, 31356, Note_on_c, 0, 76, 56
2, 31400, Note_off_c, 0, 76, 64
2, 31402, Note_on_c, 0, 72, 47
2, 31445, Note_off_c, 0, 72, 64
2, 31447, Note_on_c, 0, 77, 62
2, 31490, Note_off_c, 0, 77, 64
2, 31492, Note_on_c, 0, 81, 62
2, 31535, Note_off_c, 0, 81, 64
2, 31537, Note_on_c, 0, 88, 56
2, 31580, Note_off_c, 0, 88, 64
2, 31582, Note_on_c, 0, 84, 41
2, 31610, Note_on_c, 0, 47, 67
2, 31610, Note_on_c, 0, 35, 67
2, 31621, Control_c, 0, 64, 96
2, 31625, Note_off_c, 0, 84, 64
2, 31627, Note_on_c, 0, 86, 70
2, 31632, Control_c, 0, 64, 0
2, 31670, Note_off_c, 0, 86, 64
2, 31672, Note_on_c, 0, 81, 47
2, 31689, Control_c, 0, 64, 64
2, 31700, Control_c, 0, 64, 127
2, 31715, Note_off_c, 0, 81, 64
2, 31717, Note_on_c, 0, 77, 50
2, 31760, Note_off_c, 0, 77, 64
2, 31762, Note_on_c, 0, 71, 47
2, 31805, Note_off_c, 0, 71, 64
2, 31807, Note_on_c, 0, 74, 67
2, 31850, Note_off_c, 0, 74, 64
2, 31852, Note_on_c, 0, 69, 59
2, 31896, Note_off_c, 0, 69, 64
2, 31897, Note_on_c, 0, 65, 52
2, 31940, Note_off_c, 0, 65, 64
2, 31943, Note_on_c, 0, 59, 63
2, 31985, Note_off_c, 0, 59, 64
2, 31987, Note_off_c, 0, 47, 64
2, 31988, Note_on_c, 0, 62, 70
2, 32030, Note_off_c, 0, 62, 64
2, 32032, Note_on_c, 0, 57, 67
2, 32076, Note_off_c, 0, 57, 64
2, 32077, Note_on_c, 0, 53, 60
2, 32121, Note_off_c, 0, 53, 64
2, 32123, Note_on_c, 0, 47, 67
2, 32166, Note_off_c, 0, 47, 64
2, 32168, Note_on_c, 0, 35, 70
2, 32183, Note_on_c, 0, 47, 75
2, 32348, Note_on_c, 0, 87, 68
2, 32389, Control_c, 0, 64, 96
2, 32391, Note_off_c, 0, 87, 64
2, 32393, Note_on_c, 0, 81, 47
2, 32399, Control_c, 0, 64, 64
2, 32412, Control_c, 0, 64, 0
2, 32436, Note_off_c, 0, 81, 64
2, 32438, Note_on_c, 0, 78, 58
2, 32453, Control_c, 0, 64, 96
2, 32462, Control_c, 0, 64, 127
2, 32481, Note_off_c, 0, 78, 64
2, 32483, Note_on_c, 0, 71, 52
2, 32526, Note_off_c, 0, 71, 64
2, 32528, Note_on_c, 0, 75, 74
2, 32571, Note_off_c, 0, 75, 64
2, 32573, Note_on_c, 0, 69, 52
2, 32616, Note_off_c, 0, 69, 64
2, 32618, Note_on_c, 0, 66, 55
2, 32661, Note_off_c, 0, 66, 64
2, 32663, Note_on_c, 0, 59, 51
2, 32706, Note_off_c, 0, 59, 64
2, 32708, Note_on_c, 0, 63, 74
2, 32751, Note_off_c, 0, 63, 64
2, 32753, Note_on_c, 0, 57, 56
2, 32796, Note_off_c, 0, 57, 64
2, 32798, Note_on_c, 0, 54, 63
2, 32842, Note_off_c, 0, 54, 64
2, 32844, Note_on_c, 0, 47, 62
2, 32887, Note_off_c, 0, 47, 64
2, 32887, Note_off_c, 0, 35, 64
2, 32889, Note_on_c, 0, 35, 44
2, 32958, Note_off_c, 0, 35, 64
2, 33031, Note_off_c, 0, 47, 64
2, 33031, Control_c, 0, 123, 0
2, 33067, Note_off_c, 0, 35, 64
2, 33069, Control_c, 0, 64, 0
2, 33071, Note_on_c, 0, 28, 70
2, 33080, Note_on_c, 0, 40, 62
2, 33114, Note_on_c, 0, 47, 36
2, 33131, Control_c, 0, 64, 96
2, 33140, Control_c, 0, 64, 127
2, 33157, Note_off_c, 0, 47, 64
2, 33159, Note_on_c, 0, 52, 41
2, 33202, Note_off_c, 0, 52, 64
2, 33204, Note_on_c, 0, 56, 59
2, 33247, Note_off_c, 0, 56, 64
2, 33249, Note_on_c, 0, 64, 52
2, 33292, Note_off_c, 0, 64, 64
2, 33294, Note_on_c, 0, 59, 48
2, 33337, Note_off_c, 0, 59, 64
2, 33339, Note_on_c, 0, 64, 55
2, 33382, Note_off_c, 0, 64, 64
2, 33384, Note_on_c, 0, 68, 50
2, 33427, Note_off_c, 0, 68, 64
2, 33429, Note_on_c, 0, 76, 67
2, 33472, Note_off_c, 0, 76, 64
2, 33474, Note_on_c, 0, 71, 39
2, 33517, Note_off_c, 0, 71, 64
2, 33519, Note_on_c, 0, 76, 44
2, 33563, Note_off_c, 0, 76, 64
2, 33564, Note_on_c, 0, 80, 47
2, 33608, Note_off_c, 0, 80, 64
2, 33610, Note_on_c, 0, 88, 50
2, 33652, Note_off_c, 0, 88, 64
2, 33653, Control_c, 0, 64, 96
2, 33654, Note_on_c, 0, 83, 44
2, 33697, Note_off_c, 0, 83, 64
2, 33699, Note_on_c, 0, 88, 50
2, 33743, Note_off_c, 0, 88, 64
2, 33744, Note_on_c, 0, 92, 55
2, 33754, Control_c, 0, 64, 64
2, 33788, Note_off_c, 0, 92, 64
2, 33790, Note_on_c, 0, 100, 62
2, 33795, Control_c, 0, 64, 0
2, 33835, Note_off_c, 0, 100, 64
2, 33835, Note_on_c, 0, 92, 58
2, 33871, Note_off_c, 0, 40, 64
2, 33880, Note_off_c, 0, 92, 64
2, 33880, Note_on_c, 0, 88, 36
2, 33919, Note_off_c, 0, 28, 64
2, 33920, Control_c, 0, 64, 127
2, 33925, Note_off_c, 0, 88, 64
2, 33927, Note_on_c, 0, 83, 41
2, 33972, Note_off_c, 0, 83, 64
2, 33974, Note_on_c, 0, 88, 62
2, 34019, Note_off_c, 0, 88, 64
2, 34020, Note_on_c, 0, 80, 44
2, 34066, Note_off_c, 0, 80, 64
2, 34068, Note_on_c, 0, 76, 31
2, 34115, Note_off_c, 0, 76, 64
2, 34115, Note_on_c, 0, 71, 32
2, 34161, Note_off_c, 0, 71, 64
2, 34163, Note_on_c, 0, 76, 62
2, 34210, Note_off_c, 0, 76, 64
2, 34211, Note_on_c, 0, 68, 40
2, 34257, Note_off_c, 0, 68, 64
2, 34259, Note_on_c, 0, 64, 34
2, 34306, Note_off_c, 0, 64, 64
2, 34308, Note_on_c, 0, 59, 43
2, 34315, Note_on_c, 0, 38, 59
2, 34321, Note_on_c, 0, 26, 56
2, 34347, Note_off_c, 0, 38, 64
2, 34355, Note_off_c, 0, 59, 64
2, 34355, Note_on_c, 0, 65, 62
2, 34360, Note_off_c, 0, 26, 64
2, 34361, Control_c, 0, 123, 0
2, 34402, Note_off_c, 0, 65, 64
2, 34404, Note_on_c, 0, 59, 45
2, 34451, Note_off_c, 0, 59, 64
2, 34451, Note_on_c, 0, 55, 39
2, 34499, Note_off_c, 0, 55, 64
2, 34500, Note_on_c, 0, 50, 50
2, 34546, Note_off_c, 0, 50, 64
2, 34586, Control_c, 0, 64, 96
2, 34589, Note_on_c, 0, 36, 62
2, 34590, Note_on_c, 0, 24, 59
2, 34595, Note_on_c, 0, 48, 28
2, 34599, Control_c, 0, 64, 0
2, 34642, Note_off_c, 0, 48, 64
2, 34642, Note_on_c, 0, 55, 25
2, 34687, Control_c, 0, 64, 64
2, 34689, Note_off_c, 0, 55, 64
2, 34689, Note_on_c, 0, 60, 32
2, 34700, Control_c, 0, 64, 127
2, 34736, Note_off_c, 0, 60, 64
2, 34736, Note_on_c, 0, 64, 42
2, 34768, Note_off_c, 0, 24, 64
2, 34781, Note_off_c, 0, 64, 64
2, 34783, Note_on_c, 0, 60, 28
2, 34794, Note_off_c, 0, 36, 64
2, 34794, Control_c, 0, 123, 0
2, 34828, Note_off_c, 0, 60, 64
2, 34828, Note_on_c, 0, 67, 24
2, 34873, Note_off_c, 0, 67, 64
2, 34873, Note_on_c, 0, 72, 28
2, 34918, Note_off_c, 0, 72, 64
2, 34918, Note_on_c, 0, 76, 39
2, 34963, Note_off_c, 0, 76, 64
2, 34963, Note_on_c, 0, 72, 16
2, 35006, Note_off_c, 0, 72, 64
2, 35008, Note_on_c, 0, 79, 29
2, 35051, Note_off_c, 0, 79, 64
2, 35052, Note_on_c, 0, 84, 29
2, 35094, Note_off_c, 0, 84, 64
2, 35097, Note_on_c, 0, 88, 39
2, 35137, Note_off_c, 0, 88, 64
2, 35140, Note_on_c, 0, 84, 32
2, 35181, Note_off_c, 0, 84, 64
2, 35183, Note_on_c, 0, 91, 32
2, 35224, Note_off_c, 0, 91, 64
2, 35226, Note_on_c, 0, 96, 32
2, 35267, Note_off_c, 0, 96, 64
2, 35268, Note_on_c, 0, 100, 42
2, 35277, Note_on_c, 0, 48, 59
2, 35277, Note_on_c, 0, 36, 67
2, 35308, Note_off_c, 0, 100, 64
2, 35310, Note_on_c, 0, 96, 29
2, 35352, Note_off_c, 0, 96, 64
2, 35352, Note_on_c, 0, 91, 32
2, 35393, Note_off_c, 0, 91, 64
2, 35395, Note_on_c, 0, 84, 32
2, 35436, Note_off_c, 0, 84, 64
2, 35438, Note_on_c, 0, 88, 37
2, 35479, Note_off_c, 0, 88, 64
2, 35480, Note_on_c, 0, 84, 37
2, 35520, Note_off_c, 0, 84, 64
2, 35522, Note_on_c, 0, 79, 32
2, 35564, Note_off_c, 0, 79, 64
2, 35564, Note_on_c, 0, 72, 28
2, 35571, Note_off_c, 0, 48, 64
2, 35605, Note_off_c, 0, 72, 64
2, 35605, Note_off_c, 0, 36, 64
2, 35606, Control_c, 0, 123, 0
2, 35607, Note_on_c, 0, 76, 39
2, 35648, Note_off_c, 0, 76, 64
2, 35650, Note_on_c, 0, 72, 32
2, 35691, Note_off_c, 0, 72, 64
2, 35692, Note_on_c, 0, 67, 32
2, 35733, Note_off_c, 0, 67, 64
2, 35735, Note_on_c, 0, 60, 29
2, 35776, Note_off_c, 0, 60, 64
2, 35776, Note_on_c, 0, 64, 42
2, 35817, Note_off_c, 0, 64, 64
2, 35819, Note_on_c, 0, 60, 32
2, 35860, Note_off_c, 0, 60, 64
2, 35861, Note_on_c, 0, 55, 32
2, 35904, Note_off_c, 0, 55, 64
2, 35904, Note_on_c, 0, 48, 32
2, 35945, Note_off_c, 0, 48, 64
2, 35964, Note_on_c, 0, 41, 71
2, 35964, Note_on_c, 0, 29, 67
2, 35979, Control_c, 0, 64, 64
2, 35988, Note_on_c, 0, 48, 32
2, 35988, Control_c, 0, 64, 0
2, 36029, Note_off_c, 0, 48, 64
2, 36031, Note_on_c, 0, 57, 32
2, 36072, Note_off_c, 0, 57, 64
2, 36073, Note_on_c, 0, 60, 29
2, 36101, Control_c, 0, 64, 64
2, 36110, Control_c, 0, 64, 96
2, 36116, Note_off_c, 0, 60, 64
2, 36116, Note_on_c, 0, 65, 35
2, 36120, Control_c, 0, 64, 127
2, 36157, Note_off_c, 0, 65, 64
2, 36159, Note_on_c, 0, 60, 32
2, 36200, Note_off_c, 0, 60, 64
2, 36200, Note_on_c, 0, 69, 32
2, 36241, Note_off_c, 0, 69, 64
2, 36243, Note_on_c, 0, 72, 18
2, 36285, Note_off_c, 0, 72, 64
2, 36285, Note_on_c, 0, 77, 42
2, 36315, Note_off_c, 0, 29, 64
2, 36328, Note_off_c, 0, 77, 64
2, 36328, Note_on_c, 0, 72, 32
2, 36352, Note_off_c, 0, 41, 64
2, 36353, Control_c, 0, 123, 0
2, 36369, Note_off_c, 0, 72, 64
2, 36371, Note_on_c, 0, 81, 32
2, 36412, Note_off_c, 0, 81, 64
2, 36412, Note_on_c, 0, 84, 19
2, 36454, Note_off_c, 0, 84, 64
2, 36456, Note_on_c, 0, 89, 42
2, 36497, Note_off_c, 0, 89, 64
2, 36497, Note_on_c, 0, 84, 28
2, 36540, Note_off_c, 0, 84, 64
2, 36540, Note_on_c, 0, 93, 35
2, 36581, Note_off_c, 0, 93, 64
2, 36583, Note_on_c, 0, 96, 25
2, 36615, Note_on_c, 0, 30, 63
2, 36621, Note_on_c, 0, 42, 55
2, 36624, Note_off_c, 0, 96, 64
2, 36625, Note_on_c, 0, 100, 37
2, 36626, Control_c, 0, 64, 64
2, 36643, Control_c, 0, 64, 0
2, 36666, Note_off_c, 0, 100, 64
2, 36668, Note_on_c, 0, 96, 32
2, 36709, Note_off_c, 0, 96, 64
2, 36709, Note_on_c, 0, 93, 25
2, 36720, Control_c, 0, 64, 64
2, 36730, Control_c, 0, 64, 96
2, 36746, Control_c, 0, 64, 127
2, 36750, Note_off_c, 0, 93, 64
2, 36752, Note_on_c, 0, 84, 24
2, 36793, Note_off_c, 0, 84, 64
2, 36795, Note_on_c, 0, 88, 37
2, 36837, Note_off_c, 0, 88, 64
2, 36837, Note_on_c, 0, 84, 32
2, 36878, Note_off_c, 0, 84, 64
2, 36880, Note_on_c, 0, 81, 20
2, 36921, Note_off_c, 0, 81, 64
2, 36921, Note_on_c, 0, 72, 25
2, 36962, Note_off_c, 0, 72, 64
2, 36964, Note_on_c, 0, 76, 37
2, 37006, Note_off_c, 0, 76, 64
2, 37008, Note_on_c, 0, 72, 32
2, 37049, Note_off_c, 0, 72, 64
2, 37049, Note_off_c, 0, 30, 64
2, 37049, Note_on_c, 0, 69, 32
2, 37086, Note_off_c, 0, 42, 64
2, 37087, Control_c, 0, 123, 0
2, 37090, Note_off_c, 0, 69, 64
2, 37092, Note_on_c, 0, 60, 22
2, 37133, Note_off_c, 0, 60, 64
2, 37133, Note_on_c, 0, 62, 37
2, 37175, Note_off_c, 0, 62, 64
2, 37176, Note_on_c, 0, 60, 32
2, 37218, Note_off_c, 0, 60, 64
2, 37218, Note_on_c, 0, 57, 32
2, 37261, Note_off_c, 0, 57, 64
2, 37261, Note_on_c, 0, 48, 35
2, 37295, Note_on_c, 0, 43, 67
2, 37295, Note_on_c, 0, 31, 67
2, 37302, Note_off_c, 0, 48, 64
2, 37319, Control_c, 0, 64, 64
2, 37329, Control_c, 0, 64, 0
2, 37345, Note_on_c, 0, 47, 29
2, 37387, Note_off_c, 0, 47, 64
2, 37389, Note_on_c, 0, 55, 28
2, 37409, Control_c, 0, 64, 64
2, 37418, Control_c, 0, 64, 127
2, 37430, Note_off_c, 0, 55, 64
2, 37430, Note_on_c, 0, 59, 38
2, 37469, Note_off_c, 0, 43, 64
2, 37473, Note_off_c, 0, 59, 64
2, 37473, Note_on_c, 0, 62, 37
2, 37514, Note_off_c, 0, 62, 64
2, 37516, Note_on_c, 0, 59, 20
2, 37558, Note_off_c, 0, 59, 64
2, 37558, Note_on_c, 0, 67, 37
2, 37587, Note_off_c, 0, 31, 64
2, 37588, Control_c, 0, 123, 0
2, 37599, Note_off_c, 0, 67, 64
2, 37601, Note_on_c, 0, 71, 32
2, 37642, Note_off_c, 0, 71, 64
2, 37642, Note_on_c, 0, 74, 32
2, 37643, Control_c, 0, 64, 96
2, 37652, Note_on_c, 0, 30, 63
2, 37657, Control_c, 0, 64, 0
2, 37661, Note_on_c, 0, 42, 58
2, 37685, Note_off_c, 0, 74, 64
2, 37686, Note_on_c, 0, 71, 29
2, 37704, Control_c, 0, 64, 96
2, 37713, Control_c, 0, 64, 127
2, 37717, Note_off_c, 0, 42, 64
2, 37727, Note_off_c, 0, 71, 64
2, 37728, Note_on_c, 0, 79, 32
2, 37745, Note_off_c, 0, 30, 64
2, 37746, Control_c, 0, 123, 0
2, 37770, Note_off_c, 0, 79, 64
2, 37770, Note_on_c, 0, 83, 37
2, 37811, Note_off_c, 0, 83, 64
2, 37813, Note_on_c, 0, 86, 35
2, 37826, Control_c, 0, 64, 96
2, 37836, Control_c, 0, 64, 64
2, 37837, Note_on_c, 0, 28, 67
2, 37838, Note_on_c, 0, 40, 70
2, 37850, Control_c, 0, 64, 0
2, 37854, Note_off_c, 0, 86, 64
2, 37855, Note_on_c, 0, 83, 32
2, 37860, Control_c, 0, 64, 64
2, 37873, Control_c, 0, 64, 127
2, 37880, Note_off_c, 0, 40, 64
2, 37897, Note_off_c, 0, 83, 64
2, 37897, Note_on_c, 0, 91, 35
2, 37905, Note_off_c, 0, 28, 64
2, 37905, Control_c, 0, 123, 0
2, 37939, Note_off_c, 0, 91, 64
2, 37941, Note_on_c, 0, 95, 29
2, 37982, Note_off_c, 0, 95, 64
2, 37982, Note_on_c, 0, 98, 35
2, 38012, Note_on_c, 0, 38, 67
2, 38012, Note_on_c, 0, 26, 67
2, 38023, Note_off_c, 0, 98, 64
2, 38025, Note_on_c, 0, 93, 32
2, 38027, Control_c, 0, 64, 64
2, 38042, Control_c, 0, 64, 0
2, 38066, Note_off_c, 0, 93, 64
2, 38068, Note_on_c, 0, 90, 32
2, 38104, Control_c, 0, 64, 64
2, 38110, Note_off_c, 0, 90, 64
2, 38112, Note_on_c, 0, 84, 35
2, 38115, Control_c, 0, 64, 127
2, 38153, Note_off_c, 0, 84, 64
2, 38153, Note_on_c, 0, 88, 32
2, 38196, Note_off_c, 0, 88, 64
2, 38198, Note_on_c, 0, 81, 35
2, 38239, Note_off_c, 0, 81, 64
2, 38241, Note_on_c, 0, 78, 36
2, 38282, Note_off_c, 0, 78, 64
2, 38284, Note_on_c, 0, 72, 32
2, 38327, Note_off_c, 0, 72, 64
2, 38328, Note_on_c, 0, 74, 39
2, 38370, Note_off_c, 0, 74, 64
2, 38372, Note_on_c, 0, 69, 29
2, 38415, Note_off_c, 0, 69, 64
2, 38416, Note_on_c, 0, 66, 25
2, 38459, Note_off_c, 0, 66, 64
2, 38460, Note_on_c, 0, 60, 29
2, 38493, Note_off_c, 0, 26, 64
2, 38504, Note_off_c, 0, 60, 64
2, 38504, Note_on_c, 0, 62, 32
2, 38526, Note_off_c, 0, 38, 64
2, 38527, Control_c, 0, 123, 0
2, 38549, Note_off_c, 0, 62, 64
2, 38549, Note_on_c, 0, 57, 35
2, 38592, Note_off_c, 0, 57, 64
2, 38594, Note_on_c, 0, 54, 28
2, 38637, Note_off_c, 0, 54, 64
2, 38639, Note_on_c, 0, 48, 25
2, 38658, Control_c, 0, 64, 96
2, 38667, Control_c, 0, 64, 64
2, 38675, Control_c, 0, 64, 0
2, 38678, Note_on_c, 0, 31, 59
2, 38679, Note_on_c, 0, 43, 67
2, 38682, Note_off_c, 0, 48, 64
2, 38729, Note_on_c, 0, 48, 29
2, 38748, Control_c, 0, 64, 64
2, 38759, Control_c, 0, 64, 127
2, 38772, Note_off_c, 0, 48, 64
2, 38772, Note_on_c, 0, 53, 30
2, 38817, Note_off_c, 0, 53, 64
2, 38818, Note_on_c, 0, 56, 32
2, 38860, Note_off_c, 0, 56, 64
2, 38862, Note_on_c, 0, 62, 35
2, 38905, Note_off_c, 0, 62, 64
2, 38906, Note_on_c, 0, 60, 32
2, 38949, Note_off_c, 0, 60, 64
2, 38951, Note_on_c, 0, 65, 32
2, 38994, Note_off_c, 0, 65, 64
2, 38994, Note_on_c, 0, 68, 32
2, 39037, Note_off_c, 0, 68, 64
2, 39037, Note_on_c, 0, 74, 37
2, 39080, Note_off_c, 0, 74, 64
2, 39082, Note_on_c, 0, 72, 32
2, 39123, Note_off_c, 0, 72, 64
2, 39125, Note_on_c, 0, 77, 32
2, 39167, Note_off_c, 0, 77, 64
2, 39168, Note_on_c, 0, 80, 35
2, 39210, Note_off_c, 0, 80, 64
2, 39210, Note_on_c, 0, 86, 35
2, 39253, Note_off_c, 0, 86, 64
2, 39253, Note_on_c, 0, 84, 32
2, 39296, Note_off_c, 0, 84, 64
2, 39296, Note_on_c, 0, 89, 24
2, 39337, Note_off_c, 0, 89, 64
2, 39339, Note_on_c, 0, 92, 24
2, 39381, Note_off_c, 0, 92, 64
2, 39381, Note_on_c, 0, 98, 51
2, 39421, Note_off_c, 0, 98, 64
2, 39424, Note_on_c, 0, 91, 32
2, 39465, Note_off_c, 0, 91, 64
2, 39465, Note_on_c, 0, 89, 32
2, 39508, Note_off_c, 0, 89, 64
2, 39509, Note_on_c, 0, 83, 35
2, 39549, Note_off_c, 0, 83, 64
2, 39552, Note_on_c, 0, 86, 39
2, 39592, Note_off_c, 0, 86, 64
2, 39593, Note_on_c, 0, 79, 32
2, 39634, Note_off_c, 0, 79, 64
2, 39636, Note_on_c, 0, 77, 32
2, 39677, Note_off_c, 0, 77, 64
2, 39678, Note_on_c, 0, 71, 29
2, 39697, Note_off_c, 0, 31, 64
2, 39720, Note_off_c, 0, 71, 64
2, 39720, Note_on_c, 0, 74, 48
2, 39752, Note_off_c, 0, 43, 64
2, 39753, Control_c, 0, 123, 0
2, 39761, Note_off_c, 0, 74, 64
2, 39763, Note_on_c, 0, 67, 39
2, 39804, Note_off_c, 0, 67, 64
2, 39805, Note_on_c, 0, 65, 35
2, 39846, Note_off_c, 0, 65, 64
2, 39848, Note_on_c, 0, 59, 30
2, 39889, Note_off_c, 0, 59, 64
2, 39889, Note_on_c, 0, 63, 70
2, 39944, Note_off_c, 0, 63, 64
2, 39946, Note_on_c, 0, 55, 25
2, 40000, Note_off_c, 0, 55, 64
2, 40000, Note_on_c, 0, 53, 28
2, 40055, Note_off_c, 0, 53, 64
2, 40056, Note_on_c, 0, 47, 18
2, 40081, Note_on_c, 0, 36, 56
2, 40086, Note_on_c, 0, 48, 59
2, 40096, Control_c, 0, 64, 96
2, 40107, Control_c, 0, 64, 0
2, 40111, Note_off_c, 0, 47, 64
2, 40165, Note_on_c, 0, 48, 35
2, 40189, Control_c, 0, 64, 64
2, 40201, Control_c, 0, 64, 127
2, 40218, Note_off_c, 0, 48, 64
2, 40218, Note_on_c, 0, 55, 32
2, 40267, Note_off_c, 0, 55, 64
2, 40269, Note_on_c, 0, 60, 29
2, 40315, Note_off_c, 0, 60, 64
2, 40316, Note_on_c, 0, 64, 38
2, 40360, Note_off_c, 0, 64, 64
2, 40362, Note_on_c, 0, 60, 32
2, 40405, Note_off_c, 0, 60, 64
2, 40406, Note_on_c, 0, 67, 32
2, 40449, Note_off_c, 0, 67, 64
2, 40449, Note_on_c, 0, 72, 39
2, 40490, Note_off_c, 0, 72, 64
2, 40492, Note_on_c, 0, 76, 42
2, 40531, Note_off_c, 0, 76, 64
2, 40532, Note_on_c, 0, 72, 32
2, 40572, Note_off_c, 0, 72, 64
2, 40573, Note_on_c, 0, 79, 35
2, 40614, Note_off_c, 0, 79, 64
2, 40614, Note_on_c, 0, 84, 39
2, 40653, Note_off_c, 0, 84, 64
2, 40655, Note_on_c, 0, 88, 39
2, 40694, Note_off_c, 0, 88, 64
2, 40696, Note_on_c, 0, 84, 29
2, 40736, Note_off_c, 0, 84, 64
2, 40736, Note_on_c, 0, 91, 24
2, 40777, Note_off_c, 0, 91, 64
2, 40778, Note_on_c, 0, 96, 28
2, 40818, Note_off_c, 0, 96, 64
2, 40819, Note_on_c, 0, 100, 39
2, 40860, Note_off_c, 0, 100, 64
2, 40860, Note_on_c, 0, 96, 32
2, 40899, Note_off_c, 0, 96, 64
2, 40901, Note_on_c, 0, 91, 32
2, 40941, Note_off_c, 0, 91, 64
2, 40943, Note_on_c, 0, 84, 28
2, 40982, Note_off_c, 0, 84, 64
2, 40982, Note_on_c, 0, 88, 39
2, 40991, Note_off_c, 0, 48, 64
2, 41010, Note_off_c, 0, 36, 64
2, 41010, Control_c, 0, 123, 0
2, 41023, Note_off_c, 0, 88, 64
2, 41023, Note_on_c, 0, 84, 32
2, 41064, Note_off_c, 0, 84, 64
2, 41064, Note_on_c, 0, 79, 25
2, 41104, Note_off_c, 0, 79, 64
2, 41106, Note_on_c, 0, 72, 32
2, 41145, Note_off_c, 0, 72, 64
2, 41148, Note_on_c, 0, 76, 39
2, 41186, Note_off_c, 0, 76, 64
2, 41188, Note_on_c, 0, 72, 32
2, 41228, Note_off_c, 0, 72, 64
2, 41228, Note_on_c, 0, 67, 25
2, 41269, Note_off_c, 0, 67, 64
2, 41269, Note_on_c, 0, 60, 28
2, 41310, Note_off_c, 0, 60, 64
2, 41311, Note_on_c, 0, 64, 38
2, 41350, Note_off_c, 0, 64, 64
2, 41352, Note_on_c, 0, 60, 29
2, 41391, Note_off_c, 0, 60, 64
2, 41393, Note_on_c, 0, 55, 28
2, 41432, Note_off_c, 0, 55, 64
2, 41433, Note_on_c, 0, 48, 25
2, 41472, Note_on_c, 0, 45, 56
2, 41472, Note_on_c, 0, 33, 59
2, 41473, Note_off_c, 0, 48, 64
2, 41491, Control_c, 0, 64, 0
2, 41515, Note_on_c, 0, 48, 16
2, 41556, Note_off_c, 0, 48, 64
2, 41557, Note_on_c, 0, 53, 27
2, 41571, Control_c, 0, 64, 64
2, 41584, Control_c, 0, 64, 96
2, 41594, Control_c, 0, 64, 127
2, 41596, Note_off_c, 0, 53, 64
2, 41598, Note_on_c, 0, 60, 24
2, 41637, Note_off_c, 0, 60, 64
2, 41639, Note_on_c, 0, 65, 42
2, 41678, Note_off_c, 0, 65, 64
2, 41678, Note_on_c, 0, 60, 32
2, 41720, Note_off_c, 0, 60, 64
2, 41720, Note_on_c, 0, 65, 35
2, 41761, Note_off_c, 0, 65, 64
2, 41761, Note_on_c, 0, 72, 35
2, 41800, Note_off_c, 0, 72, 64
2, 41802, Note_on_c, 0, 77, 39
2, 41842, Note_off_c, 0, 77, 64
2, 41844, Note_on_c, 0, 72, 32
2, 41883, Note_off_c, 0, 72, 64
2, 41885, Note_on_c, 0, 77, 32
2, 41924, Note_off_c, 0, 77, 64
2, 41925, Note_on_c, 0, 84, 32
2, 41965, Note_off_c, 0, 84, 64
2, 41966, Note_on_c, 0, 89, 42
2, 42007, Note_off_c, 0, 89, 64
2, 42007, Note_on_c, 0, 84, 35
2, 42046, Note_off_c, 0, 84, 64
2, 42048, Note_on_c, 0, 89, 35
2, 42087, Note_off_c, 0, 89, 64
2, 42090, Note_on_c, 0, 96, 35
2, 42129, Note_off_c, 0, 96, 64
2, 42129, Note_on_c, 0, 100, 39
2, 42170, Note_off_c, 0, 100, 64
2, 42170, Note_on_c, 0, 96, 32
2, 42212, Note_off_c, 0, 96, 64
2, 42212, Note_on_c, 0, 90, 25
2, 42253, Note_off_c, 0, 90, 64
2, 42253, Note_on_c, 0, 84, 24
2, 42292, Note_off_c, 0, 84, 64
2, 42294, Note_on_c, 0, 88, 44
2, 42330, Note_off_c, 0, 33, 64
2, 42334, Note_off_c, 0, 88, 64
2, 42336, Note_on_c, 0, 84, 32
2, 42375, Note_off_c, 0, 84, 64
2, 42375, Note_on_c, 0, 78, 25
2, 42390, Note_off_c, 0, 45, 64
2, 42390, Control_c, 0, 123, 0
2, 42417, Note_off_c, 0, 78, 64
2, 42417, Note_on_c, 0, 72, 29
2, 42457, Note_off_c, 0, 72, 64
2, 42457, Note_on_c, 0, 75, 43
2, 42497, Note_off_c, 0, 75, 64
2, 42499, Note_on_c, 0, 72, 35
2, 42538, Note_off_c, 0, 72, 64
2, 42540, Note_on_c, 0, 66, 32
2, 42579, Note_off_c, 0, 66, 64
2, 42581, Note_on_c, 0, 60, 19
2, 42621, Note_off_c, 0, 60, 64
2, 42621, Note_on_c, 0, 63, 35
2, 42632, Note_on_c, 0, 44, 68
2, 42632, Note_on_c, 0, 32, 63
2, 42662, Note_off_c, 0, 63, 64
2, 42662, Note_on_c, 0, 60, 28
2, 42670, Note_off_c, 0, 44, 64
2, 42675, Note_off_c, 0, 32, 64
2, 42675, Control_c, 0, 123, 0
2, 42703, Note_off_c, 0, 60, 64
2, 42704, Note_on_c, 0, 54, 32
2, 42743, Note_off_c, 0, 54, 64
2, 42744, Note_on_c, 0, 48, 28
2, 42784, Note_off_c, 0, 48, 64
2, 42826, Note_on_c, 0, 48, 35
2, 42826, Note_on_c, 0, 31, 67
2, 42835, Note_on_c, 0, 43, 67
2, 42844, Control_c, 0, 64, 0
2, 42866, Note_off_c, 0, 48, 64
2, 42867, Note_on_c, 0, 55, 29
2, 42908, Note_off_c, 0, 55, 64
2, 42908, Note_on_c, 0, 60, 28
2, 42934, Control_c, 0, 64, 64
2, 42944, Control_c, 0, 64, 127
2, 42948, Note_off_c, 0, 60, 64
2, 42949, Note_on_c, 0, 62, 39
2, 42989, Note_off_c, 0, 62, 64
2, 42991, Note_on_c, 0, 60, 29
2, 43030, Note_off_c, 0, 60, 64
2, 43032, Note_on_c, 0, 67, 32
2, 43071, Note_off_c, 0, 67, 64
2, 43071, Note_on_c, 0, 72, 32
2, 43113, Note_off_c, 0, 72, 64
2, 43113, Note_on_c, 0, 74, 29
2, 43154, Note_off_c, 0, 74, 64
2, 43154, Note_on_c, 0, 72, 32
2, 43193, Note_off_c, 0, 72, 64
2, 43196, Note_on_c, 0, 79, 32
2, 43235, Note_off_c, 0, 79, 64
2, 43236, Note_on_c, 0, 84, 35
2, 43276, Note_off_c, 0, 84, 64
2, 43278, Note_on_c, 0, 86, 37
2, 43317, Note_off_c, 0, 86, 64
2, 43318, Note_on_c, 0, 84, 35
2, 43358, Note_off_c, 0, 84, 64
2, 43359, Note_on_c, 0, 91, 28
2, 43400, Note_off_c, 0, 91, 64
2, 43400, Note_on_c, 0, 96, 32
2, 43439, Note_off_c, 0, 96, 64
2, 43441, Note_on_c, 0, 98, 41
2, 43480, Note_off_c, 0, 98, 64
2, 43483, Note_on_c, 0, 95, 32
2, 43522, Note_off_c, 0, 95, 64
2, 43522, Note_on_c, 0, 91, 29
2, 43563, Note_off_c, 0, 91, 64
2, 43563, Note_on_c, 0, 83, 32
2, 43605, Note_off_c, 0, 83, 64
2, 43605, Note_on_c, 0, 86, 39
2, 43644, Note_off_c, 0, 86, 64
2, 43646, Note_on_c, 0, 83, 32
2, 43685, Note_off_c, 0, 83, 64
2, 43687, Note_on_c, 0, 79, 24
2, 43727, Note_off_c, 0, 79, 64
2, 43728, Note_on_c, 0, 71, 22
2, 43768, Note_off_c, 0, 71, 64
2, 43768, Note_on_c, 0, 74, 39
2, 43809, Note_off_c, 0, 74, 64
2, 43810, Note_on_c, 0, 71, 32
2, 43839, Note_off_c, 0, 31, 64
2, 43850, Note_off_c, 0, 71, 64
2, 43850, Note_on_c, 0, 67, 22
2, 43856, Note_off_c, 0, 43, 64
2, 43856, Control_c, 0, 123, 0
2, 43890, Note_off_c, 0, 67, 64
2, 43892, Note_on_c, 0, 59, 30
2, 43931, Note_off_c, 0, 59, 64
2, 43933, Note_on_c, 0, 62, 37
2, 43972, Note_off_c, 0, 62, 64
2, 43975, Note_on_c, 0, 59, 38
2, 44014, Note_off_c, 0, 59, 64
2, 44014, Note_on_c, 0, 55, 37
2, 44055, Note_off_c, 0, 55, 64
2, 44055, Note_on_c, 0, 47, 32
2, 44096, Note_off_c, 0, 47, 64
2, 44106, Note_on_c, 0, 42, 58
2, 44106, Note_on_c, 0, 30, 58
2, 44117, Control_c, 0, 64, 0
2, 44138, Note_on_c, 0, 48, 47
2, 44177, Note_off_c, 0, 48, 64
2, 44179, Note_on_c, 0, 57, 59
2, 44202, Control_c, 0, 64, 64
2, 44211, Control_c, 0, 64, 127
2, 44219, Note_off_c, 0, 57, 64
2, 44219, Note_on_c, 0, 60, 59
2, 44260, Note_off_c, 0, 60, 64
2, 44260, Note_on_c, 0, 62, 62
2, 44301, Note_off_c, 0, 62, 64
2, 44301, Note_on_c, 0, 60, 52
2, 44340, Note_off_c, 0, 60, 64
2, 44342, Note_on_c, 0, 69, 36
2, 44382, Note_off_c, 0, 69, 64
2, 44384, Note_on_c, 0, 72, 41
2, 44423, Note_off_c, 0, 72, 64
2, 44425, Note_on_c, 0, 74, 59
2, 44464, Note_off_c, 0, 74, 64
2, 44465, Note_on_c, 0, 72, 50
2, 44506, Note_off_c, 0, 72, 64
2, 44506, Note_on_c, 0, 81, 52
2, 44547, Note_off_c, 0, 81, 64
2, 44547, Note_on_c, 0, 84, 56
2, 44586, Note_off_c, 0, 84, 64
2, 44588, Note_on_c, 0, 86, 62
2, 44596, Note_off_c, 0, 30, 64
2, 44601, Note_off_c, 0, 42, 64
2, 44602, Control_c, 0, 123, 0
2, 44628, Note_off_c, 0, 86, 64
2, 44629, Note_on_c, 0, 84, 36
2, 44669, Note_off_c, 0, 84, 64
2, 44671, Note_on_c, 0, 93, 56
2, 44710, Note_off_c, 0, 93, 64
2, 44711, Note_on_c, 0, 96, 56
2, 44750, Note_on_c, 0, 41, 71
2, 44750, Note_on_c, 0, 29, 70
2, 44751, Note_off_c, 0, 96, 64
2, 44752, Note_on_c, 0, 99, 68
2, 44778, Control_c, 0, 64, 0
2, 44793, Note_off_c, 0, 99, 64
2, 44793, Note_on_c, 0, 96, 56
2, 44832, Note_off_c, 0, 96, 64
2, 44834, Note_on_c, 0, 93, 52
2, 44847, Control_c, 0, 64, 96
2, 44857, Control_c, 0, 64, 127
2, 44873, Note_off_c, 0, 93, 64
2, 44876, Note_on_c, 0, 84, 50
2, 44915, Note_off_c, 0, 84, 64
2, 44915, Note_on_c, 0, 87, 47
2, 44956, Note_off_c, 0, 87, 64
2, 44956, Note_on_c, 0, 84, 41
2, 44998, Note_off_c, 0, 84, 64
2, 44998, Note_on_c, 0, 81, 44
2, 45037, Note_off_c, 0, 81, 64
2, 45039, Note_on_c, 0, 72, 39
2, 45078, Note_off_c, 0, 72, 64
2, 45080, Note_off_c, 0, 41, 64
2, 45080, Note_on_c, 0, 75, 76
2, 45099, Note_off_c, 0, 29, 64
2, 45099, Control_c, 0, 123, 0
2, 45120, Note_off_c, 0, 75, 64
2, 45121, Note_on_c, 0, 71, 47
2, 45161, Note_off_c, 0, 71, 64
2, 45161, Note_on_c, 0, 69, 50
2, 45202, Note_off_c, 0, 69, 64
2, 45203, Note_on_c, 0, 59, 51
2, 45244, Note_off_c, 0, 59, 64
2, 45244, Note_on_c, 0, 63, 79
2, 45283, Note_off_c, 0, 63, 64
2, 45285, Note_on_c, 0, 59, 45
2, 45324, Note_off_c, 0, 59, 64
2, 45326, Note_on_c, 0, 57, 47
2, 45365, Note_off_c, 0, 57, 64
2, 45367, Note_on_c, 0, 47, 56
2, 45407, Note_off_c, 0, 47, 64
2, 45422, Note_on_c, 0, 40, 67
2, 45422, Note_on_c, 0, 28, 70
2, 45444, Control_c, 0, 64, 64
2, 45448, Note_on_c, 0, 47, 52
2, 45456, Control_c, 0, 64, 0
2, 45489, Note_off_c, 0, 47, 64
2, 45490, Note_on_c, 0, 56, 59
2, 45517, Control_c, 0, 64, 64
2, 45528, Note_off_c, 0, 56, 64
2, 45529, Control_c, 0, 64, 127
2, 45531, Note_on_c, 0, 59, 51
2, 45570, Note_off_c, 0, 59, 64
2, 45572, Note_on_c, 0, 64, 47
2, 45585, Note_off_c, 0, 28, 64
2, 45612, Note_off_c, 0, 64, 64
2, 45612, Note_on_c, 0, 59, 51
2, 45630, Note_off_c, 0, 40, 64
2, 45630, Control_c, 0, 123, 0
2, 45653, Note_off_c, 0, 59, 64
2, 45653, Note_on_c, 0, 68, 63
2, 45694, Note_off_c, 0, 68, 64
2, 45694, Note_on_c, 0, 71, 47
2, 45733, Note_off_c, 0, 71, 64
2, 45735, Note_on_c, 0, 76, 62
2, 45775, Note_off_c, 0, 76, 64
2, 45777, Note_on_c, 0, 72, 16
2, 45777, Note_on_c, 0, 71, 31
2, 45816, Note_off_c, 0, 71, 64
2, 45816, Note_off_c, 0, 72, 64
2, 45818, Note_on_c, 0, 80, 58
2, 45857, Note_off_c, 0, 80, 64
2, 45858, Note_on_c, 0, 83, 52
2, 45899, Note_off_c, 0, 83, 64
2, 45899, Note_on_c, 0, 88, 56
2, 45940, Note_off_c, 0, 88, 64
2, 45940, Note_on_c, 0, 83, 56
2, 45979, Note_off_c, 0, 83, 64
2, 45981, Note_on_c, 0, 92, 58
2, 46020, Note_off_c, 0, 92, 64
2, 46023, Note_on_c, 0, 95, 52
2, 46062, Note_off_c, 0, 95, 64
2, 46064, Note_on_c, 0, 100, 62
2, 46066, Note_on_c, 0, 40, 70
2, 46075, Note_on_c, 0, 52, 70
2, 46084, Control_c, 0, 64, 64
2, 46094, Control_c, 0, 64, 0
2, 46103, Note_off_c, 0, 100, 64
2, 46104, Note_on_c, 0, 95, 44
2, 46122, Control_c, 0, 64, 64
2, 46131, Control_c, 0, 64, 127
2, 46144, Note_off_c, 0, 95, 64
2, 46145, Note_on_c, 0, 92, 44
2, 46186, Note_off_c, 0, 92, 64
2, 46186, Note_on_c, 0, 83, 41
2, 46225, Note_off_c, 0, 83, 64
2, 46227, Note_on_c, 0, 88, 67
2, 46267, Note_off_c, 0, 88, 64
2, 46269, Note_on_c, 0, 83, 36
2, 46308, Note_off_c, 0, 83, 64
2, 46308, Note_on_c, 0, 80, 47
2, 46349, Note_off_c, 0, 80, 64
2, 46349, Note_on_c, 0, 71, 44
2, 46391, Note_off_c, 0, 71, 64
2, 46391, Note_on_c, 0, 76, 59
2, 46416, Note_off_c, 0, 52, 64
2, 46428, Note_off_c, 0, 40, 64
2, 46428, Control_c, 0, 123, 0
2, 46430, Note_off_c, 0, 76, 64
2, 46432, Note_on_c, 0, 71, 44
2, 46471, Note_off_c, 0, 71, 64
2, 46473, Note_on_c, 0, 68, 47
2, 46513, Note_off_c, 0, 68, 64
2, 46514, Note_on_c, 0, 59, 56
2, 46554, Note_off_c, 0, 59, 64
2, 46554, Note_on_c, 0, 64, 70
2, 46595, Note_off_c, 0, 64, 64
2, 46596, Note_on_c, 0, 59, 51
2, 46636, Note_off_c, 0, 59, 64
2, 46637, Note_on_c, 0, 56, 59
2, 46676, Note_off_c, 0, 56, 64
2, 46678, Note_on_c, 0, 47, 50
2, 46717, Note_off_c, 0, 47, 64
2, 46719, Note_on_c, 0, 38, 70
2, 46743, Note_on_c, 0, 38, 70
2, 46758, Note_off_c, 0, 38, 64
2, 46760, Note_on_c, 0, 50, 52
2, 46766, Control_c, 0, 64, 96
2, 46779, Control_c, 0, 64, 0
2, 46800, Note_off_c, 0, 50, 64
2, 46800, Note_on_c, 0, 57, 44
2, 46841, Note_off_c, 0, 57, 64
2, 46841, Note_on_c, 0, 60, 47
2, 46850, Control_c, 0, 64, 64
2, 46862, Control_c, 0, 64, 127
2, 46882, Note_off_c, 0, 60, 64
2, 46883, Note_on_c, 0, 65, 62
2, 46922, Note_off_c, 0, 65, 64
2, 46924, Note_on_c, 0, 62, 50
2, 46963, Note_off_c, 0, 62, 64
2, 46965, Note_on_c, 0, 69, 50
2, 47004, Note_off_c, 0, 69, 64
2, 47004, Note_on_c, 0, 72, 44
2, 47046, Note_off_c, 0, 72, 64
2, 47046, Note_on_c, 0, 77, 59
2, 47087, Note_off_c, 0, 77, 64
2, 47087, Note_on_c, 0, 74, 47
2, 47126, Note_off_c, 0, 74, 64
2, 47128, Note_on_c, 0, 81, 52
2, 47153, Note_off_c, 0, 38, 64
2, 47153, Control_c, 0, 123, 0
2, 47168, Note_off_c, 0, 81, 64
2, 47170, Note_on_c, 0, 84, 41
2, 47209, Note_off_c, 0, 84, 64
2, 47211, Note_on_c, 0, 89, 59
2, 47250, Note_off_c, 0, 89, 64
2, 47251, Note_on_c, 0, 86, 41
2, 47292, Note_off_c, 0, 86, 64
2, 47292, Note_on_c, 0, 93, 47
2, 47333, Note_off_c, 0, 93, 64
2, 47333, Note_on_c, 0, 96, 44
2, 47372, Note_off_c, 0, 96, 64
2, 47373, Note_on_c, 0, 31, 67
2, 47374, Note_on_c, 0, 101, 63
2, 47386, Note_on_c, 0, 43, 59
2, 47400, Control_c, 0, 64, 64
2, 47412, Control_c, 0, 64, 0
2, 47413, Note_off_c, 0, 101, 64
2, 47415, Note_on_c, 0, 95, 36
2, 47455, Note_off_c, 0, 95, 64
2, 47457, Note_on_c, 0, 91, 41
2, 47460, Control_c, 0, 64, 64
2, 47474, Control_c, 0, 64, 127
2, 47496, Note_off_c, 0, 91, 64
2, 47496, Note_on_c, 0, 86, 47
2, 47538, Note_off_c, 0, 86, 64
2, 47538, Note_on_c, 0, 89, 52
2, 47579, Note_off_c, 0, 89, 64
2, 47579, Note_on_c, 0, 83, 39
2, 47618, Note_off_c, 0, 83, 64
2, 47620, Note_on_c, 0, 79, 29
2, 47660, Note_off_c, 0, 79, 64
2, 47662, Note_on_c, 0, 74, 44
2, 47701, Note_off_c, 0, 74, 64
2, 47701, Note_on_c, 0, 77, 59
2, 47742, Note_off_c, 0, 77, 64
2, 47742, Note_on_c, 0, 71, 31
2, 47784, Note_off_c, 0, 71, 64
2, 47784, Note_on_c, 0, 67, 41
2, 47823, Note_off_c, 0, 67, 64
2, 47825, Note_on_c, 0, 62, 39
2, 47864, Note_off_c, 0, 62, 64
2, 47866, Note_on_c, 0, 65, 59
2, 47905, Note_off_c, 0, 65, 64
2, 47907, Note_on_c, 0, 59, 45
2, 47938, Note_off_c, 0, 43, 64
2, 47947, Note_off_c, 0, 59, 64
2, 47947, Note_on_c, 0, 55, 50
2, 47988, Note_off_c, 0, 55, 64
2, 47988, Note_on_c, 0, 50, 52
2, 48029, Note_off_c, 0, 50, 64
2, 48030, Note_on_c, 0, 36, 67
2, 48035, Note_off_c, 0, 31, 64
2, 48036, Control_c, 0, 123, 0
2, 48041, Note_on_c, 0, 36, 75
2, 48063, Control_c, 0, 64, 96
2, 48069, Note_off_c, 0, 36, 64
2, 48071, Note_on_c, 0, 48, 52
2, 48072, Control_c, 0, 64, 0
2, 48110, Note_off_c, 0, 48, 64
2, 48112, Note_on_c, 0, 55, 50
2, 48138, Control_c, 0, 64, 64
2, 48148, Control_c, 0, 64, 127
2, 48152, Note_off_c, 0, 55, 64
2, 48154, Note_on_c, 0, 60, 56
2, 48193, Note_off_c, 0, 60, 64
2, 48193, Note_on_c, 0, 64, 55
2, 48234, Note_off_c, 0, 64, 64
2, 48234, Note_on_c, 0, 60, 47
2, 48276, Note_off_c, 0, 60, 64
2, 48276, Note_on_c, 0, 67, 52
2, 48315, Note_off_c, 0, 67, 64
2, 48317, Note_on_c, 0, 72, 56
2, 48356, Note_off_c, 0, 72, 64
2, 48358, Note_on_c, 0, 76, 62
2, 48397, Note_off_c, 0, 76, 64
2, 48398, Note_on_c, 0, 72, 59
2, 48439, Note_off_c, 0, 72, 64
2, 48439, Note_on_c, 0, 82, 68
2, 48480, Note_off_c, 0, 82, 64
2, 48480, Note_on_c, 0, 84, 56
2, 48519, Note_off_c, 0, 84, 64
2, 48521, Note_on_c, 0, 91, 76
2, 48561, Note_off_c, 0, 91, 64
2, 48563, Note_on_c, 0, 84, 52
2, 48602, Note_off_c, 0, 84, 64
2, 48604, Note_on_c, 0, 82, 55
2, 48643, Note_off_c, 0, 82, 64
2, 48644, Note_on_c, 0, 76, 39
2, 48684, Note_off_c, 0, 76, 64
2, 48685, Note_on_c, 0, 90, 70
2, 48686, Note_on_c, 0, 48, 59
2, 48704, Control_c, 0, 64, 64
2, 48713, Control_c, 0, 64, 0
2, 48726, Note_off_c, 0, 90, 64
2, 48726, Note_on_c, 0, 84, 50
2, 48743, Control_c, 0, 64, 64
2, 48754, Control_c, 0, 64, 127
2, 48765, Note_off_c, 0, 84, 64
2, 48768, Note_on_c, 0, 81, 34
2, 48807, Note_off_c, 0, 81, 64
2, 48809, Note_on_c, 0, 75, 44
2, 48848, Note_off_c, 0, 75, 64
2, 48850, Note_on_c, 0, 78, 66
2, 48888, Note_off_c, 0, 48, 64
2, 48889, Note_off_c, 0, 78, 64
2, 48889, Note_on_c, 0, 72, 41
2, 48915, Note_off_c, 0, 36, 64
2, 48916, Control_c, 0, 123, 0
2, 48931, Note_off_c, 0, 72, 64
2, 48931, Note_on_c, 0, 69, 31
2, 48972, Note_off_c, 0, 69, 64
2, 48972, Note_on_c, 0, 63, 40
2, 49011, Note_off_c, 0, 63, 64
2, 49013, Note_on_c, 0, 77, 67
2, 49053, Note_off_c, 0, 77, 64
2, 49055, Note_on_c, 0, 71, 44
2, 49094, Note_off_c, 0, 71, 64
2, 49094, Note_on_c, 0, 68, 50
2, 49135, Note_off_c, 0, 68, 64
2, 49136, Note_on_c, 0, 62, 39
2, 49176, Note_off_c, 0, 62, 64
2, 49177, Note_on_c, 0, 65, 59
2, 49216, Note_off_c, 0, 65, 64
2, 49218, Note_on_c, 0, 59, 51
2, 49257, Note_off_c, 0, 59, 64
2, 49259, Note_on_c, 0, 56, 59
2, 49298, Note_off_c, 0, 56, 64
2, 49300, Note_on_c, 0, 50, 56
2, 49340, Note_off_c, 0, 50, 64
2, 49340, Note_on_c, 0, 36, 62
2, 49345, Note_on_c, 0, 36, 67
2, 49381, Note_off_c, 0, 36, 64
2, 49381, Note_on_c, 0, 48, 47
2, 49391, Control_c, 0, 64, 96
2, 49402, Control_c, 0, 64, 0
2, 49422, Note_off_c, 0, 48, 64
2, 49423, Note_on_c, 0, 55, 47
2, 49458, Control_c, 0, 64, 64
2, 49462, Note_off_c, 0, 55, 64
2, 49464, Note_on_c, 0, 60, 55
2, 49469, Control_c, 0, 64, 96
2, 49483, Control_c, 0, 64, 127
2, 49503, Note_off_c, 0, 60, 64
2, 49505, Note_on_c, 0, 64, 58
2, 49545, Note_off_c, 0, 64, 64
2, 49547, Note_on_c, 0, 60, 55
2, 49586, Note_off_c, 0, 60, 64
2, 49586, Note_on_c, 0, 67, 55
2, 49627, Note_off_c, 0, 67, 64
2, 49627, Note_on_c, 0, 72, 58
2, 49663, Note_off_c, 0, 36, 64
2, 49663, Control_c, 0, 123, 0
2, 49668, Note_off_c, 0, 72, 64
2, 49668, Note_on_c, 0, 76, 71
2, 49708, Note_off_c, 0, 76, 64
2, 49710, Note_on_c, 0, 72, 65
2, 49749, Note_off_c, 0, 72, 64
2, 49751, Note_on_c, 0, 79, 64
2, 49790, Note_off_c, 0, 79, 64
2, 49790, Note_on_c, 0, 84, 69
2, 49832, Note_off_c, 0, 84, 64
2, 49832, Note_on_c, 0, 88, 86
2, 49873, Note_off_c, 0, 88, 64
2, 49873, Note_on_c, 0, 84, 67
2, 49912, Note_off_c, 0, 84, 64
2, 49914, Note_on_c, 0, 79, 52
2, 49954, Note_off_c, 0, 79, 64
2, 49956, Note_on_c, 0, 72, 39
2, 49990, Note_on_c, 0, 43, 59
2, 49990, Note_on_c, 0, 31, 62
2, 49995, Note_off_c, 0, 72, 64
2, 49997, Note_on_c, 0, 87, 63
2, 50019, Control_c, 0, 64, 96
2, 50029, Control_c, 0, 64, 0
2, 50036, Note_off_c, 0, 87, 64
2, 50037, Note_on_c, 0, 81, 39
2, 50077, Note_off_c, 0, 81, 64
2, 50078, Note_on_c, 0, 78, 38
2, 50093, Control_c, 0, 64, 96
2, 50102, Control_c, 0, 64, 127
2, 50119, Note_off_c, 0, 78, 64
2, 50120, Note_on_c, 0, 72, 52
2, 50159, Note_off_c, 0, 72, 64
2, 50160, Note_on_c, 0, 75, 64
2, 50200, Note_off_c, 0, 75, 64
2, 50202, Note_on_c, 0, 69, 44
2, 50241, Note_off_c, 0, 69, 64
2, 50243, Note_on_c, 0, 66, 50
2, 50282, Note_off_c, 0, 66, 64
2, 50282, Note_on_c, 0, 60, 41
2, 50324, Note_off_c, 0, 60, 64
2, 50324, Note_on_c, 0, 74, 64
2, 50365, Note_off_c, 0, 74, 64
2, 50365, Note_on_c, 0, 68, 50
2, 50404, Note_off_c, 0, 68, 64
2, 50406, Note_on_c, 0, 65, 47
2, 50446, Note_off_c, 0, 65, 64
2, 50448, Note_on_c, 0, 59, 46
2, 50487, Note_off_c, 0, 59, 64
2, 50487, Note_on_c, 0, 62, 55
2, 50528, Note_off_c, 0, 62, 64
2, 50529, Note_on_c, 0, 56, 58
2, 50543, Note_off_c, 0, 31, 64
2, 50547, Note_off_c, 0, 43, 64
2, 50547, Control_c, 0, 123, 0
2, 50569, Note_off_c, 0, 56, 64
2, 50570, Note_on_c, 0, 53, 47
2, 50609, Note_off_c, 0, 53, 64
2, 50611, Note_on_c, 0, 47, 39
2, 50650, Note_off_c, 0, 47, 64
2, 50654, Note_on_c, 0, 43, 62
2, 50654, Note_on_c, 0, 31, 62
2, 50676, Control_c, 0, 64, 96
2, 50686, Control_c, 0, 64, 0
2, 50693, Note_on_c, 0, 46, 38
2, 50733, Note_off_c, 0, 46, 64
2, 50733, Note_on_c, 0, 52, 40
2, 50767, Control_c, 0, 64, 64
2, 50774, Note_off_c, 0, 52, 64
2, 50774, Note_on_c, 0, 55, 39
2, 50778, Control_c, 0, 64, 127
2, 50815, Note_off_c, 0, 55, 64
2, 50816, Note_on_c, 0, 61, 60
2, 50855, Note_off_c, 0, 61, 64
2, 50857, Note_on_c, 0, 58, 40
2, 50896, Note_off_c, 0, 58, 64
2, 50898, Note_on_c, 0, 64, 42
2, 50938, Note_off_c, 0, 64, 64
2, 50940, Note_on_c, 0, 67, 36
2, 50979, Note_off_c, 0, 67, 64
2, 50979, Note_on_c, 0, 73, 73
2, 51020, Note_off_c, 0, 73, 64
2, 51020, Note_on_c, 0, 70, 50
2, 51061, Note_off_c, 0, 70, 64
2, 51061, Note_on_c, 0, 76, 47
2, 51101, Note_off_c, 0, 76, 64
2, 51103, Note_on_c, 0, 79, 52
2, 51142, Note_off_c, 0, 79, 64
2, 51144, Note_on_c, 0, 85, 74
2, 51183, Note_off_c, 0, 85, 64
2, 51184, Note_on_c, 0, 82, 55
2, 51225, Note_off_c, 0, 82, 64
2, 51225, Note_on_c, 0, 88, 50
2, 51266, Note_off_c, 0, 88, 64
2, 51266, Note_on_c, 0, 91, 47
2, 51305, Note_off_c, 0, 91, 64
2, 51308, Note_on_c, 0, 97, 80
2, 51347, Note_off_c, 0, 97, 64
2, 51348, Note_on_c, 0, 90, 50
2, 51388, Note_off_c, 0, 90, 64
2, 51390, Note_on_c, 0, 87, 50
2, 51429, Note_off_c, 0, 87, 64
2, 51430, Note_on_c, 0, 81, 44
2, 51470, Note_off_c, 0, 81, 64
2, 51471, Note_on_c, 0, 85, 70
2, 51512, Note_off_c, 0, 85, 64
2, 51512, Note_on_c, 0, 78, 47
2, 51552, Note_off_c, 0, 78, 64
2, 51553, Note_on_c, 0, 75, 47
2, 51593, Note_off_c, 0, 75, 64
2, 51595, Note_on_c, 0, 69, 47
2, 51634, Note_off_c, 0, 69, 64
2, 51636, Note_on_c, 0, 73, 84
2, 51675, Note_off_c, 0, 73, 64
2, 51675, Note_on_c, 0, 66, 40
2, 51717, Note_off_c, 0, 66, 64
2, 51717, Note_on_c, 0, 63, 50
2, 51758, Note_off_c, 0, 63, 64
2, 51758, Note_on_c, 0, 57, 32
2, 51797, Note_off_c, 0, 57, 64
2, 51799, Note_on_c, 0, 72, 52
2, 51805, Note_off_c, 0, 43, 64
2, 51814, Note_off_c, 0, 31, 64
2, 51814, Control_c, 0, 123, 0
2, 51839, Note_off_c, 0, 72, 64
2, 51840, Note_on_c, 0, 65, 47
2, 51880, Note_off_c, 0, 65, 64
2, 51880, Note_on_c, 0, 63, 50
2, 51921, Note_off_c, 0, 63, 64
2, 51922, Note_on_c, 0, 57, 41
2, 51962, Note_off_c, 0, 57, 64
2, 51968, Control_c, 0, 64, 96
2, 51976, Note_on_c, 0, 43, 50
2, 51976, Note_on_c, 0, 31, 52
2, 51987, Control_c, 0, 64, 0
2, 52004, Note_on_c, 0, 56, 51
2, 52043, Note_off_c, 0, 56, 64
2, 52045, Note_on_c, 0, 62, 41
2, 52060, Control_c, 0, 64, 64
2, 52069, Control_c, 0, 64, 127
2, 52084, Note_off_c, 0, 62, 64
2, 52087, Note_on_c, 0, 65, 52
2, 52126, Note_off_c, 0, 65, 64
2, 52126, Note_on_c, 0, 72, 62
2, 52167, Note_off_c, 0, 72, 64
2, 52168, Note_on_c, 0, 68, 50
2, 52208, Note_off_c, 0, 68, 64
2, 52209, Note_on_c, 0, 74, 52
2, 52248, Note_off_c, 0, 74, 64
2, 52250, Note_on_c, 0, 77, 59
2, 52289, Note_off_c, 0, 77, 64
2, 52291, Note_on_c, 0, 84, 69
2, 52331, Note_off_c, 0, 84, 64
2, 52332, Note_on_c, 0, 80, 51
2, 52372, Note_off_c, 0, 80, 64
2, 52372, Note_on_c, 0, 86, 41
2, 52413, Note_off_c, 0, 86, 64
2, 52413, Note_on_c, 0, 89, 52
2, 52454, Note_off_c, 0, 89, 64
2, 52455, Note_on_c, 0, 96, 73
2, 52494, Note_off_c, 0, 96, 64
2, 52496, Note_on_c, 0, 89, 60
2, 52535, Note_off_c, 0, 89, 64
2, 52537, Note_on_c, 0, 86, 41
2, 52576, Note_off_c, 0, 86, 64
2, 52577, Note_on_c, 0, 80, 50
2, 52618, Note_off_c, 0, 80, 64
2, 52618, Note_on_c, 0, 95, 56
2, 52659, Note_off_c, 0, 95, 64
2, 52659, Note_on_c, 0, 89, 52
2, 52698, Note_off_c, 0, 89, 64
2, 52700, Note_on_c, 0, 86, 41
2, 52740, Note_off_c, 0, 86, 64
2, 52742, Note_on_c, 0, 79, 39
2, 52781, Note_off_c, 0, 79, 64
2, 52783, Note_on_c, 0, 83, 62
2, 52822, Note_off_c, 0, 83, 64
2, 52823, Note_on_c, 0, 77, 44
2, 52864, Note_off_c, 0, 77, 64
2, 52864, Note_on_c, 0, 74, 50
2, 52886, Note_off_c, 0, 31, 64
2, 52886, Note_off_c, 0, 43, 64
2, 52887, Control_c, 0, 123, 0
2, 52905, Note_off_c, 0, 74, 64
2, 52905, Note_on_c, 0, 67, 47
2, 52944, Note_off_c, 0, 67, 64
2, 52946, Note_on_c, 0, 71, 62
2, 52986, Note_off_c, 0, 71, 64
2, 52988, Note_on_c, 0, 65, 56
2, 53027, Note_off_c, 0, 65, 64
2, 53029, Note_on_c, 0, 62, 52
2, 53068, Note_off_c, 0, 62, 64
2, 53069, Note_on_c, 0, 55, 41
2, 53110, Note_off_c, 0, 55, 64
2, 53110, Note_on_c, 0, 59, 63
2, 53151, Note_off_c, 0, 59, 64
2, 53151, Note_on_c, 0, 53, 54
2, 53190, Note_off_c, 0, 53, 64
2, 53192, Note_on_c, 0, 50, 50
2, 53232, Note_off_c, 0, 50, 64
2, 53233, Note_on_c, 0, 43, 39
2, 53273, Note_off_c, 0, 43, 64
2, 53290, Note_on_c, 0, 36, 59
2, 53290, Note_on_c, 0, 24, 67
2, 53314, Note_on_c, 0, 43, 52
2, 53316, Control_c, 0, 64, 96
2, 53329, Control_c, 0, 64, 0
2, 53355, Note_off_c, 0, 43, 64
2, 53356, Note_on_c, 0, 52, 62
2, 53395, Note_off_c, 0, 52, 64
2, 53397, Note_on_c, 0, 55, 50
2, 53433, Control_c, 0, 64, 64
2, 53436, Note_off_c, 0, 55, 64
2, 53438, Note_on_c, 0, 60, 47
2, 53444, Control_c, 0, 64, 127
2, 53477, Note_off_c, 0, 60, 64
2, 53480, Note_on_c, 0, 55, 50
2, 53519, Note_off_c, 0, 55, 64
2, 53519, Note_on_c, 0, 64, 52
2, 53560, Note_off_c, 0, 64, 64
2, 53560, Note_on_c, 0, 67, 56
2, 53602, Note_off_c, 0, 67, 64
2, 53602, Note_on_c, 0, 72, 56
2, 53641, Note_off_c, 0, 72, 64
2, 53643, Note_on_c, 0, 67, 47
2, 53682, Note_off_c, 0, 67, 64
2, 53684, Note_on_c, 0, 76, 56
2, 53724, Note_off_c, 0, 76, 64
2, 53725, Note_on_c, 0, 79, 59
2, 53765, Note_off_c, 0, 79, 64
2, 53765, Note_on_c, 0, 84, 59
2, 53806, Note_off_c, 0, 84, 64
2, 53807, Note_on_c, 0, 79, 59
2, 53847, Note_off_c, 0, 79, 64
2, 53848, Note_on_c, 0, 88, 59
2, 53887, Note_off_c, 0, 88, 64
2, 53889, Note_on_c, 0, 91, 59
2, 53928, Note_off_c, 0, 91, 64
2, 53930, Note_on_c, 0, 96, 62
2, 53969, Note_off_c, 0, 96, 64
2, 53971, Note_on_c, 0, 91, 56
2, 54012, Note_off_c, 0, 91, 64
2, 54015, Note_on_c, 0, 88, 50
2, 54058, Note_off_c, 0, 88, 64
2, 54060, Note_on_c, 0, 79, 41
2, 54105, Note_off_c, 0, 79, 64
2, 54105, Note_on_c, 0, 84, 62
2, 54152, Note_off_c, 0, 84, 64
2, 54154, Note_on_c, 0, 79, 44
2, 54202, Note_off_c, 0, 79, 64
2, 54204, Note_on_c, 0, 76, 39
2, 54255, Note_off_c, 0, 76, 64
2, 54255, Note_on_c, 0, 67, 32
2, 54309, Note_off_c, 0, 67, 64
2, 54310, Note_on_c, 0, 72, 62
2, 54364, Note_off_c, 0, 72, 64
2, 54366, Note_on_c, 0, 67, 47
2, 54420, Note_off_c, 0, 67, 64
2, 54422, Note_on_c, 0, 64, 49
2, 54474, Note_off_c, 0, 64, 64
2, 54476, Note_on_c, 0, 55, 50
2, 54499, Note_off_c, 0, 24, 64
2, 54531, Note_off_c, 0, 55, 64
2, 54533, Note_on_c, 0, 60, 59
2, 54581, Note_off_c, 0, 36, 64
2, 54583, Control_c, 0, 123, 0
2, 54610, Note_off_c, 0, 60, 64
2, 54612, Note_on_c, 0, 55, 50
2, 54690, Note_off_c, 0, 55, 64
2, 54692, Note_on_c, 0, 52, 56
2, 54769, Note_off_c, 0, 52, 64
2, 54771, Note_on_c, 0, 43, 56
2, 54850, Note_off_c, 0, 43, 64
2, 55081, Note_on_c, 0, 36, 66
2, 55087, Note_on_c, 0, 24, 47
2, 56547, Note_off_c, 0, 24, 64
2, 56547, Note_off_c, 0, 36, 64
2, 56547, Control_c, 0, 123, 0
2, 57636, Control_c, 0, 64, 96
2, 57730, Control_c, 0, 64, 64
2, 57771, Control_c, 0, 64, 0
2, 57771, End_track
3, 0, Start_track
3, 0, Title_t, "Chopin Etude #1"
3, 0, End_track
4, 0, Start_track
4, 0, Title_t, "Performed and Step-Recorded by"
4, 0, End_track
5, 0, Start_track
5, 0, Title_t, "sloweater@aol.com"
5, 0, End_track
6, 0, Start_track
6, 0, Title_t, "Performed on Technics PX66"
6, 0, End_track
0, 0, End_of_file