0, 0, Header, 1, 3, 480
1, 0, Start_track
1, 0, Tempo, 352769
1, 0, Time_signature, 2, 2, 24, 8
1, 0, Title_t, "untitled"
1, 7200, Tempo, 374785
1, 7680, Tempo, 555521
1, 12960, Tempo, 571393
1, 13440, Tempo, 566017
1, 13920, Tempo, 560641
1, 14400, Tempo, 555521
1, 17280, Tempo, 399873
1, 17760, Tempo, 571393
1, 18240, Tempo, 555521
1, 19680, Tempo, 576769
1, 20160, Tempo, 555521
1, 21120, Tempo, 428545
1, 21600, Tempo, 413697
1, 22080, Tempo, 399873
1, 22560, Tempo, 374785
1, 23040, Tempo, 352769
1, 30240, Tempo, 387073
1, 30720, Tempo, 374785
1, 30720, Tempo, 555521
1, 36000, Tempo, 571393
1, 36480, Tempo, 566017
1, 36960, Tempo, 560641
1, 37440, Tempo, 555521
1, 40320, Tempo, 399873
1, 40800, Tempo, 571393
1, 41280, Tempo, 555521
1, 42720, Tempo, 576769
1, 43200, Tempo, 555521
1, 44160, Tempo, 428545
1, 44640, Tempo, 413697
1, 45120, Tempo, 399873
1, 45600, Tempo, 374785
1, 46080, Tempo, 352769
1, 52800, Tempo, 352769
1, 52800, Tempo, 352769
1, 53280, Tempo, 387073
1, 53280, Tempo, 387073
1, 53280, Tempo, 387073
1, 53760, Tempo, 555521
1, 59040, Tempo, 571393
1, 59520, Tempo, 566017
1, 60000, Tempo, 560641
1, 60480, Tempo, 555521
1, 63360, Tempo, 399873
1, 63840, Tempo, 571393
1, 64320, Tempo, 555521
1, 65760, Tempo, 576769
1, 66240, Tempo, 555521
1, 67200, Tempo, 428545
1, 67680, Tempo, 413697
1, 68160, Tempo, 399873
1, 68640, Tempo, 374785
1, 69120, Tempo, 352769
1, 76320, Tempo, 387073
1, 76800, Tempo, 555521
1, 82080, Tempo, 571393
1, 82560, Tempo, 566017
1, 83040, Tempo, 560641
1, 83520, Tempo, 555521
1, 86400, Tempo, 399873
1, 86880, Tempo, 571393
1, 87360, Tempo, 555521
1, 88800, Tempo, 576769
1, 89280, Tempo, 555521
1, 90240, Tempo, 428545
1, 90720, Tempo, 413697
1, 91200, Tempo, 399873
1, 91680, Tempo, 374785
1, 92160, Tempo, 352769
1, 98400, Tempo, 352769
1, 99360, Tempo, 387073
1, 99360, Tempo, 387073
1, 99840, Tempo, 555521
1, 105120, Tempo, 571393
1, 105600, Tempo, 566017
1, 106080, Tempo, 560641
1, 106560, Tempo, 555521
1, 111840, Tempo, 566017
1, 112320, Tempo, 571393
1, 112800, Tempo, 582401
1, 113280, Tempo, 588033
1, 113760, Tempo, 599809
1, 114240, Tempo, 605953
1, 114720, Tempo, 618497
1, 115200, Tempo, 624897
1, 115680, Tempo, 638209
1, 116160, Tempo, 645121
1, 116640, Tempo, 659201
1, 117120, End_track
2, 0, Start_track
2, 0, Control_c, 0, 0, 0
2, 0, Control_c, 0, 32, 0
2, 0, Program_c, 0, 0
2, 0, Control_c, 0, 1, 0
2, 0, Control_c, 0, 7, 127
2, 0, Control_c, 0, 10, 64
2, 0, Control_c, 0, 91, 0
2, 0, Control_c, 0, 93, 0
2, 0, Title_t, "Piano"
2, 0, Note_on_c, 0, 38, 72
2, 0, Note_on_c, 0, 50, 72
2, 96, Note_on_c, 0, 50, 0
2, 96, Note_on_c, 0, 38, 0
2, 120, Note_on_c, 0, 49, 72
2, 120, Note_on_c, 0, 37, 72
2, 216, Note_on_c, 0, 37, 0
2, 216, Note_on_c, 0, 49, 0
2, 240, Note_on_c, 0, 38, 72
2, 240, Note_on_c, 0, 50, 72
2, 336, Note_on_c, 0, 50, 0
2, 336, Note_on_c, 0, 38, 0
2, 360, Note_on_c, 0, 51, 72
2, 360, Note_on_c, 0, 39, 72
2, 456, Note_on_c, 0, 39, 0
2, 456, Note_on_c, 0, 51, 0
2, 480, Note_on_c, 0, 52, 72
2, 480, Note_on_c, 0, 40, 72
2, 576, Note_on_c, 0, 40, 0
2, 576, Note_on_c, 0, 52, 0
2, 600, Note_on_c, 0, 41, 85
2, 600, Note_on_c, 0, 53, 85
2, 696, Note_on_c, 0, 53, 0
2, 696, Note_on_c, 0, 41, 0
2, 720, Note_on_c, 0, 42, 94
2, 720, Note_on_c, 0, 54, 94
2, 816, Note_on_c, 0, 54, 0
2, 816, Note_on_c, 0, 42, 0
2, 840, Note_on_c, 0, 43, 105
2, 840, Note_on_c, 0, 55, 105
2, 936, Note_on_c, 0, 55, 0
2, 936, Note_on_c, 0, 43, 0
2, 960, Note_on_c, 0, 44, 105
2, 960, Note_on_c, 0, 56, 105
2, 1056, Note_on_c, 0, 56, 0
2, 1056, Note_on_c, 0, 44, 0
2, 1080, Note_on_c, 0, 55, 94
2, 1080, Note_on_c, 0, 43, 94
2, 1176, Note_on_c, 0, 43, 0
2, 1176, Note_on_c, 0, 55, 0
2, 1200, Note_on_c, 0, 42, 85
2, 1200, Note_on_c, 0, 54, 85
2, 1296, Note_on_c, 0, 54, 0
2, 1296, Note_on_c, 0, 42, 0
2, 1320, Note_on_c, 0, 53, 72
2, 1320, Note_on_c, 0, 41, 72
2, 1416, Note_on_c, 0, 41, 0
2, 1416, Note_on_c, 0, 53, 0
2, 1440, Note_on_c, 0, 52, 72
2, 1440, Note_on_c, 0, 40, 72
2, 1536, Note_on_c, 0, 40, 0
2, 1536, Note_on_c, 0, 52, 0
2, 1560, Note_on_c, 0, 39, 72
2, 1560, Note_on_c, 0, 51, 72
2, 1656, Note_on_c, 0, 51, 0
2, 1656, Note_on_c, 0, 39, 0
2, 1680, Note_on_c, 0, 38, 72
2, 1680, Note_on_c, 0, 50, 72
2, 1776, Note_on_c, 0, 50, 0
2, 1776, Note_on_c, 0, 38, 0
2, 1800, Note_on_c, 0, 37, 72
2, 1800, Note_on_c, 0, 49, 72
2, 1896, Note_on_c, 0, 49, 0
2, 1896, Note_on_c, 0, 37, 0
2, 1920, Note_on_c, 0, 38, 72
2, 1920, Note_on_c, 0, 50, 72
2, 2016, Note_on_c, 0, 50, 0
2, 2016, Note_on_c, 0, 38, 0
2, 2040, Note_on_c, 0, 51, 72
2, 2040, Note_on_c, 0, 39, 72
2, 2136, Note_on_c, 0, 39, 0
2, 2136, Note_on_c, 0, 51, 0
2, 2160, Note_on_c, 0, 40, 72
2, 2160, Note_on_c, 0, 52, 72
2, 2256, Note_on_c, 0, 52, 0
2, 2256, Note_on_c, 0, 40, 0
2, 2280, Note_on_c, 0, 53, 72
2, 2280, Note_on_c, 0, 41, 72
2, 2376, Note_on_c, 0, 41, 0
2, 2376, Note_on_c, 0, 53, 0
2, 2400, Note_on_c, 0, 54, 85
2, 2400, Note_on_c, 0, 42, 85
2, 2496, Note_on_c, 0, 42, 0
2, 2496, Note_on_c, 0, 54, 0
2, 2520, Note_on_c, 0, 43, 85
2, 2520, Note_on_c, 0, 55, 85
2, 2616, Note_on_c, 0, 55, 0
2, 2616, Note_on_c, 0, 43, 0
2, 2640, Note_on_c, 0, 44, 85
2, 2640, Note_on_c, 0, 56, 85
2, 2736, Note_on_c, 0, 56, 0
2, 2736, Note_on_c, 0, 44, 0
2, 2760, Note_on_c, 0, 45, 85
2, 2760, Note_on_c, 0, 57, 85
2, 2856, Note_on_c, 0, 57, 0
2, 2856, Note_on_c, 0, 45, 0
2, 2880, Note_on_c, 0, 58, 94
2, 2880, Note_on_c, 0, 46, 94
2, 2976, Note_on_c, 0, 46, 0
2, 2976, Note_on_c, 0, 58, 0
2, 3000, Note_on_c, 0, 59, 94
2, 3000, Note_on_c, 0, 47, 94
2, 3096, Note_on_c, 0, 47, 0
2, 3096, Note_on_c, 0, 59, 0
2, 3120, Note_on_c, 0, 60, 94
2, 3120, Note_on_c, 0, 48, 94
2, 3216, Note_on_c, 0, 48, 0
2, 3216, Note_on_c, 0, 60, 0
2, 3240, Note_on_c, 0, 61, 94
2, 3240, Note_on_c, 0, 49, 94
2, 3336, Note_on_c, 0, 49, 0
2, 3336, Note_on_c, 0, 61, 0
2, 3360, Note_on_c, 0, 62, 94
2, 3360, Note_on_c, 0, 50, 94
2, 3456, Note_on_c, 0, 50, 0
2, 3456, Note_on_c, 0, 62, 0
2, 3480, Note_on_c, 0, 63, 94
2, 3480, Note_on_c, 0, 51, 94
2, 3576, Note_on_c, 0, 51, 0
2, 3576, Note_on_c, 0, 63, 0
2, 3600, Note_on_c, 0, 64, 105
2, 3600, Note_on_c, 0, 52, 105
2, 3696, Note_on_c, 0, 52, 0
2, 3696, Note_on_c, 0, 64, 0
2, 3720, Note_on_c, 0, 65, 105
2, 3720, Note_on_c, 0, 53, 105
2, 3816, Note_on_c, 0, 53, 0
2, 3816, Note_on_c, 0, 65, 0
2, 3840, Note_on_c, 0, 66, 125
2, 3840, Note_on_c, 0, 54, 125
2, 3936, Note_on_c, 0, 54, 0
2, 3936, Note_on_c, 0, 66, 0
2, 3960, Note_on_c, 0, 65, 105
2, 3960, Note_on_c, 0, 53, 105
2, 4056, Note_on_c, 0, 53, 0
2, 4056, Note_on_c, 0, 65, 0
2, 4080, Note_on_c, 0, 64, 105
2, 4080, Note_on_c, 0, 52, 105
2, 4176, Note_on_c, 0, 52, 0
2, 4176, Note_on_c, 0, 64, 0
2, 4200, Note_on_c, 0, 63, 105
2, 4200, Note_on_c, 0, 51, 105
2, 4296, Note_on_c, 0, 51, 0
2, 4296, Note_on_c, 0, 63, 0
2, 4320, Note_on_c, 0, 64, 125
2, 4320, Note_on_c, 0, 52, 125
2, 4416, Note_on_c, 0, 52, 0
2, 4416, Note_on_c, 0, 64, 0
2, 4440, Note_on_c, 0, 63, 105
2, 4440, Note_on_c, 0, 51, 105
2, 4536, Note_on_c, 0, 51, 0
2, 4536, Note_on_c, 0, 63, 0
2, 4560, Note_on_c, 0, 62, 105
2, 4560, Note_on_c, 0, 50, 105
2, 4656, Note_on_c, 0, 50, 0
2, 4656, Note_on_c, 0, 62, 0
2, 4680, Note_on_c, 0, 61, 105
2, 4680, Note_on_c, 0, 49, 105
2, 4776, Note_on_c, 0, 49, 0
2, 4776, Note_on_c, 0, 61, 0
2, 4800, Note_on_c, 0, 62, 125
2, 4800, Note_on_c, 0, 50, 125
2, 4896, Note_on_c, 0, 50, 0
2, 4896, Note_on_c, 0, 62, 0
2, 4920, Note_on_c, 0, 61, 105
2, 4920, Note_on_c, 0, 49, 105
2, 5016, Note_on_c, 0, 49, 0
2, 5016, Note_on_c, 0, 61, 0
2, 5040, Note_on_c, 0, 60, 94
2, 5040, Note_on_c, 0, 48, 94
2, 5136, Note_on_c, 0, 48, 0
2, 5136, Note_on_c, 0, 60, 0
2, 5160, Note_on_c, 0, 59, 94
2, 5160, Note_on_c, 0, 47, 94
2, 5256, Note_on_c, 0, 47, 0
2, 5256, Note_on_c, 0, 59, 0
2, 5280, Note_on_c, 0, 60, 114
2, 5280, Note_on_c, 0, 48, 114
2, 5376, Note_on_c, 0, 48, 0
2, 5376, Note_on_c, 0, 60, 0
2, 5400, Note_on_c, 0, 59, 94
2, 5400, Note_on_c, 0, 47, 94
2, 5496, Note_on_c, 0, 47, 0
2, 5496, Note_on_c, 0, 59, 0
2, 5520, Note_on_c, 0, 58, 85
2, 5520, Note_on_c, 0, 46, 85
2, 5616, Note_on_c, 0, 46, 0
2, 5616, Note_on_c, 0, 58, 0
2, 5640, Note_on_c, 0, 57, 85
2, 5640, Note_on_c, 0, 45, 85
2, 5736, Note_on_c, 0, 45, 0
2, 5736, Note_on_c, 0, 57, 0
2, 5760, Note_on_c, 0, 46, 92
2, 5760, Note_on_c, 0, 58, 92
2, 5856, Note_on_c, 0, 58, 0
2, 5856, Note_on_c, 0, 46, 0
2, 5880, Note_on_c, 0, 57, 72
2, 5880, Note_on_c, 0, 45, 72
2, 5976, Note_on_c, 0, 45, 0
2, 5976, Note_on_c, 0, 57, 0
2, 6000, Note_on_c, 0, 44, 72
2, 6000, Note_on_c, 0, 56, 72
2, 6096, Note_on_c, 0, 56, 0
2, 6096, Note_on_c, 0, 44, 0
2, 6120, Note_on_c, 0, 55, 72
2, 6120, Note_on_c, 0, 43, 72
2, 6216, Note_on_c, 0, 43, 0
2, 6216, Note_on_c, 0, 55, 0
2, 6240, Note_on_c, 0, 45, 92
2, 6240, Note_on_c, 0, 57, 92
2, 6336, Note_on_c, 0, 57, 0
2, 6336, Note_on_c, 0, 45, 0
2, 6360, Note_on_c, 0, 44, 72
2, 6360, Note_on_c, 0, 56, 72
2, 6456, Note_on_c, 0, 56, 0
2, 6456, Note_on_c, 0, 44, 0
2, 6480, Note_on_c, 0, 43, 72
2, 6480, Note_on_c, 0, 55, 72
2, 6576, Note_on_c, 0, 55, 0
2, 6576, Note_on_c, 0, 43, 0
2, 6600, Note_on_c, 0, 42, 72
2, 6600, Note_on_c, 0, 54, 72
2, 6696, Note_on_c, 0, 54, 0
2, 6696, Note_on_c, 0, 42, 0
2, 6720, Note_on_c, 0, 44, 92
2, 6720, Note_on_c, 0, 56, 92
2, 6816, Note_on_c, 0, 56, 0
2, 6816, Note_on_c, 0, 44, 0
2, 6840, Note_on_c, 0, 55, 72
2, 6840, Note_on_c, 0, 43, 72
2, 6936, Note_on_c, 0, 43, 0
2, 6936, Note_on_c, 0, 55, 0
2, 6960, Note_on_c, 0, 42, 72
2, 6960, Note_on_c, 0, 54, 72
2, 7056, Note_on_c, 0, 54, 0
2, 7056, Note_on_c, 0, 42, 0
2, 7080, Note_on_c, 0, 53, 72
2, 7080, Note_on_c, 0, 41, 72
2, 7176, Note_on_c, 0, 41, 0
2, 7176, Note_on_c, 0, 53, 0
2, 7200, Note_on_c, 0, 43, 92
2, 7200, Note_on_c, 0, 55, 92
2, 7296, Note_on_c, 0, 55, 0
2, 7296, Note_on_c, 0, 43, 0
2, 7320, Note_on_c, 0, 41, 72
2, 7320, Note_on_c, 0, 53, 72
2, 7416, Note_on_c, 0, 53, 0
2, 7416, Note_on_c, 0, 41, 0
2, 7440, Note_on_c, 0, 39, 72
2, 7440, Note_on_c, 0, 51, 72
2, 7536, Note_on_c, 0, 51, 0
2, 7536, Note_on_c, 0, 39, 0
2, 7560, Note_on_c, 0, 38, 72
2, 7560, Note_on_c, 0, 50, 72
2, 7656, Note_on_c, 0, 50, 0
2, 7656, Note_on_c, 0, 38, 0
2, 7680, Note_on_c, 0, 63, 72
2, 7680, Note_on_c, 0, 36, 72
2, 7872, Note_on_c, 0, 36, 0
2, 7872, Note_on_c, 0, 63, 0
2, 7920, Note_on_c, 0, 68, 92
2, 7920, Note_on_c, 0, 56, 92
2, 7920, Note_on_c, 0, 36, 92
2, 8016, Note_on_c, 0, 36, 0
2, 8112, Note_on_c, 0, 56, 0
2, 8112, Note_on_c, 0, 68, 0
2, 8160, Note_on_c, 0, 63, 72
2, 8352, Note_on_c, 0, 63, 0
2, 8400, Note_on_c, 0, 68, 72
2, 8400, Note_on_c, 0, 56, 72
2, 8400, Note_on_c, 0, 48, 72
2, 8592, Note_on_c, 0, 48, 0
2, 8592, Note_on_c, 0, 56, 0
2, 8592, Note_on_c, 0, 68, 0
2, 8640, Note_on_c, 0, 62, 72
2, 8640, Note_on_c, 0, 65, 72
2, 8640, Note_on_c, 0, 48, 72
2, 8832, Note_on_c, 0, 48, 0
2, 8832, Note_on_c, 0, 65, 0
2, 8832, Note_on_c, 0, 62, 0
2, 8880, Note_on_c, 0, 68, 92
2, 8880, Note_on_c, 0, 56, 92
2, 8880, Note_on_c, 0, 48, 92
2, 8976, Note_on_c, 0, 48, 0
2, 9072, Note_on_c, 0, 56, 0
2, 9072, Note_on_c, 0, 68, 0
2, 9120, Note_on_c, 0, 65, 72
2, 9120, Note_on_c, 0, 62, 72
2, 9312, Note_on_c, 0, 62, 0
2, 9312, Note_on_c, 0, 65, 0
2, 9360, Note_on_c, 0, 68, 72
2, 9360, Note_on_c, 0, 56, 72
2, 9360, Note_on_c, 0, 48, 72
2, 9552, Note_on_c, 0, 48, 0
2, 9552, Note_on_c, 0, 56, 0
2, 9552, Note_on_c, 0, 68, 0
2, 9600, Note_on_c, 0, 63, 72
2, 9600, Note_on_c, 0, 36, 72
2, 9792, Note_on_c, 0, 36, 0
2, 9792, Note_on_c, 0, 63, 0
2, 9840, Note_on_c, 0, 68, 92
2, 9840, Note_on_c, 0, 56, 92
2, 9840, Note_on_c, 0, 36, 92
2, 9936, Note_on_c, 0, 36, 0
2, 10032, Note_on_c, 0, 56, 0
2, 10032, Note_on_c, 0, 68, 0
2, 10080, Note_on_c, 0, 63, 72
2, 10272, Note_on_c, 0, 63, 0
2, 10320, Note_on_c, 0, 68, 72
2, 10320, Note_on_c, 0, 56, 72
2, 10320, Note_on_c, 0, 48, 72
2, 10512, Note_on_c, 0, 48, 0
2, 10512, Note_on_c, 0, 56, 0
2, 10512, Note_on_c, 0, 68, 0
2, 10560, Note_on_c, 0, 62, 72
2, 10560, Note_on_c, 0, 65, 72
2, 10560, Note_on_c, 0, 48, 72
2, 10752, Note_on_c, 0, 48, 0
2, 10752, Note_on_c, 0, 65, 0
2, 10752, Note_on_c, 0, 62, 0
2, 10800, Note_on_c, 0, 68, 92
2, 10800, Note_on_c, 0, 56, 92
2, 10800, Note_on_c, 0, 48, 72
2, 10896, Note_on_c, 0, 48, 0
2, 10992, Note_on_c, 0, 56, 0
2, 10992, Note_on_c, 0, 68, 0
2, 11040, Note_on_c, 0, 62, 72
2, 11040, Note_on_c, 0, 65, 72
2, 11232, Note_on_c, 0, 65, 0
2, 11232, Note_on_c, 0, 62, 0
2, 11280, Note_on_c, 0, 56, 72
2, 11280, Note_on_c, 0, 68, 72
2, 11280, Note_on_c, 0, 36, 72
2, 11472, Note_on_c, 0, 36, 0
2, 11472, Note_on_c, 0, 68, 0
2, 11472, Note_on_c, 0, 56, 0
2, 11520, Note_on_c, 0, 62, 105
2, 11520, Note_on_c, 0, 67, 105
2, 11520, Note_on_c, 0, 65, 105
2, 11520, Note_on_c, 0, 55, 105
2, 11520, Note_on_c, 0, 35, 105
2, 11520, Note_on_c, 0, 47, 105
2, 11712, Note_on_c, 0, 47, 0
2, 11712, Note_on_c, 0, 35, 0
2, 11712, Note_on_c, 0, 55, 0
2, 11712, Note_on_c, 0, 65, 0
2, 11712, Note_on_c, 0, 67, 0
2, 11712, Note_on_c, 0, 62, 0
2, 12000, Note_on_c, 0, 46, 72
2, 12240, Note_on_c, 0, 60, 72
2, 12240, Note_on_c, 0, 72, 72
2, 12240, Note_on_c, 0, 64, 72
2, 12240, Note_on_c, 0, 67, 72
2, 12384, Note_on_c, 0, 46, 0
2, 12432, Note_on_c, 0, 67, 0
2, 12432, Note_on_c, 0, 64, 0
2, 12432, Note_on_c, 0, 72, 0
2, 12432, Note_on_c, 0, 60, 0
2, 12480, Note_on_c, 0, 45, 72
2, 12720, Note_on_c, 0, 60, 72
2, 12720, Note_on_c, 0, 65, 72
2, 12720, Note_on_c, 0, 72, 72
2, 12864, Note_on_c, 0, 45, 0
2, 12912, Note_on_c, 0, 72, 0
2, 12912, Note_on_c, 0, 65, 0
2, 12912, Note_on_c, 0, 60, 0
2, 12960, Note_on_c, 0, 44, 72
2, 13200, Note_on_c, 0, 63, 72
2, 13200, Note_on_c, 0, 60, 72
2, 13200, Note_on_c, 0, 66, 72
2, 13344, Note_on_c, 0, 44, 0
2, 13392, Note_on_c, 0, 66, 0
2, 13392, Note_on_c, 0, 60, 0
2, 13392, Note_on_c, 0, 63, 0
2, 13440, Note_on_c, 0, 43, 72
2, 13680, Note_on_c, 0, 67, 72
2, 13680, Note_on_c, 0, 63, 72
2, 13680, Note_on_c, 0, 60, 72
2, 13872, Note_on_c, 0, 60, 0
2, 13872, Note_on_c, 0, 63, 0
2, 13872, Note_on_c, 0, 67, 0
2, 13920, Note_on_c, 0, 55, 85
2, 14160, Note_on_c, 0, 65, 85
2, 14160, Note_on_c, 0, 62, 85
2, 14160, Note_on_c, 0, 59, 85
2, 14304, Note_on_c, 0, 55, 0
2, 14304, Note_on_c, 0, 43, 0
2, 14352, Note_on_c, 0, 59, 0
2, 14352, Note_on_c, 0, 62, 0
2, 14352, Note_on_c, 0, 65, 0
2, 14400, Note_on_c, 0, 56, 85
2, 14640, Note_on_c, 0, 65, 94
2, 14640, Note_on_c, 0, 60, 94
2, 14784, Note_on_c, 0, 56, 0
2, 14832, Note_on_c, 0, 60, 0
2, 14832, Note_on_c, 0, 65, 0
2, 14880, Note_on_c, 0, 44, 94
2, 15120, Note_on_c, 0, 63, 105
2, 15120, Note_on_c, 0, 60, 105
2, 15264, Note_on_c, 0, 44, 0
2, 15312, Note_on_c, 0, 60, 0
2, 15312, Note_on_c, 0, 63, 0
2, 15360, Note_on_c, 0, 62, 105
2, 15360, Note_on_c, 0, 65, 105
2, 15360, Note_on_c, 0, 67, 105
2, 15360, Note_on_c, 0, 47, 105
2, 15360, Note_on_c, 0, 55, 105
2, 15552, Note_on_c, 0, 55, 0
2, 15552, Note_on_c, 0, 47, 0
2, 15552, Note_on_c, 0, 67, 0
2, 15552, Note_on_c, 0, 65, 0
2, 15552, Note_on_c, 0, 62, 0
2, 15840, Note_on_c, 0, 46, 85
2, 16080, Note_on_c, 0, 60, 85
2, 16080, Note_on_c, 0, 64, 85
2, 16080, Note_on_c, 0, 67, 85
2, 16224, Note_on_c, 0, 46, 0
2, 16272, Note_on_c, 0, 67, 0
2, 16272, Note_on_c, 0, 64, 0
2, 16272, Note_on_c, 0, 60, 0
2, 16320, Note_on_c, 0, 45, 85
2, 16560, Note_on_c, 0, 60, 85
2, 16560, Note_on_c, 0, 72, 85
2, 16560, Note_on_c, 0, 65, 94
2, 16704, Note_on_c, 0, 45, 0
2, 16752, Note_on_c, 0, 65, 0
2, 16752, Note_on_c, 0, 72, 0
2, 16752, Note_on_c, 0, 60, 0
2, 16800, Note_on_c, 0, 44, 94
2, 17712, Note_on_c, 0, 44, 0
2, 18000, Note_on_c, 0, 66, 94
2, 18000, Note_on_c, 0, 72, 105
2, 18000, Note_on_c, 0, 75, 105
2, 18000, Note_on_c, 0, 63, 105
2, 18192, Note_on_c, 0, 63, 0
2, 18192, Note_on_c, 0, 75, 0
2, 18192, Note_on_c, 0, 72, 0
2, 18192, Note_on_c, 0, 66, 0
2, 18240, Note_on_c, 0, 72, 64
2, 18240, Note_on_c, 0, 63, 64
2, 18240, Note_on_c, 0, 75, 64
2, 18240, Note_on_c, 0, 67, 64
2, 18240, Note_on_c, 0, 43, 64
2, 18432, Note_on_c, 0, 67, 0
2, 18432, Note_on_c, 0, 75, 0
2, 18432, Note_on_c, 0, 63, 0
2, 18432, Note_on_c, 0, 72, 0
2, 18480, Note_on_c, 0, 67, 64
2, 18480, Note_on_c, 0, 63, 64
2, 18672, Note_on_c, 0, 63, 0
2, 18672, Note_on_c, 0, 67, 0
2, 18720, Note_on_c, 0, 65, 64
2, 18720, Note_on_c, 0, 62, 64
2, 18912, Note_on_c, 0, 62, 0
2, 18912, Note_on_c, 0, 65, 0
2, 18960, Note_on_c, 0, 60, 64
2, 18960, Note_on_c, 0, 63, 64
2, 19152, Note_on_c, 0, 63, 0
2, 19152, Note_on_c, 0, 60, 0
2, 19200, Note_on_c, 0, 62, 64
2, 19200, Note_on_c, 0, 31, 64
2, 19200, Note_on_c, 0, 55, 64
2, 19200, Note_on_c, 0, 59, 64
2, 19392, Note_on_c, 0, 59, 0
2, 19392, Note_on_c, 0, 55, 0
2, 19440, Note_on_c, 0, 50, 64
2, 19632, Note_on_c, 0, 50, 0
2, 19680, Note_on_c, 0, 57, 64
2, 19680, Note_on_c, 0, 38, 64
2, 19680, Note_on_c, 0, 54, 64
2, 19872, Note_on_c, 0, 54, 0
2, 19872, Note_on_c, 0, 57, 0
2, 19920, Note_on_c, 0, 50, 64
2, 19968, Note_on_c, 0, 43, 0
2, 19968, Note_on_c, 0, 31, 0
2, 19968, Note_on_c, 0, 62, 0
2, 20064, Note_on_c, 0, 38, 0
2, 20112, Note_on_c, 0, 50, 0
2, 20160, Note_on_c, 0, 62, 64
2, 20160, Note_on_c, 0, 55, 64
2, 20160, Note_on_c, 0, 59, 64
2, 20160, Note_on_c, 0, 43, 64
2, 20352, Note_on_c, 0, 59, 0
2, 20352, Note_on_c, 0, 55, 0
2, 20400, Note_on_c, 0, 50, 64
2, 20544, Note_on_c, 0, 43, 0
2, 20592, Note_on_c, 0, 50, 0
2, 20640, Note_on_c, 0, 57, 64
2, 20640, Note_on_c, 0, 38, 64
2, 20640, Note_on_c, 0, 54, 64
2, 20832, Note_on_c, 0, 54, 0
2, 20832, Note_on_c, 0, 57, 0
2, 20880, Note_on_c, 0, 50, 64
2, 20928, Note_on_c, 0, 62, 0
2, 21024, Note_on_c, 0, 38, 0
2, 21120, Note_on_c, 0, 62, 64
2, 21120, Note_on_c, 0, 55, 64
2, 21120, Note_on_c, 0, 43, 64
2, 21120, Note_on_c, 0, 59, 64
2, 21216, Note_on_c, 0, 43, 0
2, 21240, Note_on_c, 0, 42, 64
2, 21336, Note_on_c, 0, 42, 0
2, 21360, Note_on_c, 0, 43, 64
2, 21456, Note_on_c, 0, 43, 0
2, 21480, Note_on_c, 0, 42, 64
2, 21576, Note_on_c, 0, 42, 0
2, 21600, Note_on_c, 0, 43, 64
2, 21696, Note_on_c, 0, 43, 0
2, 21720, Note_on_c, 0, 42, 64
2, 21816, Note_on_c, 0, 42, 0
2, 21840, Note_on_c, 0, 43, 64
2, 21936, Note_on_c, 0, 43, 0
2, 21960, Note_on_c, 0, 42, 64
2, 22056, Note_on_c, 0, 42, 0
2, 22080, Note_on_c, 0, 43, 64
2, 22176, Note_on_c, 0, 43, 0
2, 22200, Note_on_c, 0, 42, 64
2, 22296, Note_on_c, 0, 42, 0
2, 22320, Note_on_c, 0, 43, 64
2, 22416, Note_on_c, 0, 43, 0
2, 22440, Note_on_c, 0, 42, 64
2, 22536, Note_on_c, 0, 42, 0
2, 22560, Note_on_c, 0, 43, 64
2, 22656, Note_on_c, 0, 43, 0
2, 22680, Note_on_c, 0, 41, 64
2, 22776, Note_on_c, 0, 41, 0
2, 22800, Note_on_c, 0, 40, 64
2, 22848, Note_on_c, 0, 59, 0
2, 22848, Note_on_c, 0, 55, 0
2, 22848, Note_on_c, 0, 62, 0
2, 22848, Note_on_c, 0, 50, 0
2, 22896, Note_on_c, 0, 40, 0
2, 22920, Note_on_c, 0, 39, 64
2, 23016, Note_on_c, 0, 39, 0
2, 23040, Note_on_c, 0, 50, 72
2, 23040, Note_on_c, 0, 38, 72
2, 23136, Note_on_c, 0, 38, 0
2, 23136, Note_on_c, 0, 50, 0
2, 23160, Note_on_c, 0, 37, 72
2, 23160, Note_on_c, 0, 49, 72
2, 23256, Note_on_c, 0, 49, 0
2, 23256, Note_on_c, 0, 37, 0
2, 23280, Note_on_c, 0, 50, 72
2, 23280, Note_on_c, 0, 38, 72
2, 23376, Note_on_c, 0, 38, 0
2, 23376, Note_on_c, 0, 50, 0
2, 23400, Note_on_c, 0, 39, 72
2, 23400, Note_on_c, 0, 51, 72
2, 23496, Note_on_c, 0, 51, 0
2, 23496, Note_on_c, 0, 39, 0
2, 23520, Note_on_c, 0, 52, 72
2, 23520, Note_on_c, 0, 40, 72
2, 23616, Note_on_c, 0, 40, 0
2, 23616, Note_on_c, 0, 52, 0
2, 23640, Note_on_c, 0, 41, 85
2, 23640, Note_on_c, 0, 53, 85
2, 23736, Note_on_c, 0, 53, 0
2, 23736, Note_on_c, 0, 41, 0
2, 23760, Note_on_c, 0, 42, 94
2, 23760, Note_on_c, 0, 54, 94
2, 23856, Note_on_c, 0, 54, 0
2, 23856, Note_on_c, 0, 42, 0
2, 23880, Note_on_c, 0, 43, 105
2, 23880, Note_on_c, 0, 55, 105
2, 23976, Note_on_c, 0, 55, 0
2, 23976, Note_on_c, 0, 43, 0
2, 24000, Note_on_c, 0, 56, 94
2, 24000, Note_on_c, 0, 44, 94
2, 24096, Note_on_c, 0, 44, 0
2, 24096, Note_on_c, 0, 56, 0
2, 24120, Note_on_c, 0, 43, 94
2, 24120, Note_on_c, 0, 55, 94
2, 24216, Note_on_c, 0, 55, 0
2, 24216, Note_on_c, 0, 43, 0
2, 24240, Note_on_c, 0, 54, 85
2, 24240, Note_on_c, 0, 42, 85
2, 24336, Note_on_c, 0, 42, 0
2, 24336, Note_on_c, 0, 54, 0
2, 24360, Note_on_c, 0, 41, 85
2, 24360, Note_on_c, 0, 53, 85
2, 24456, Note_on_c, 0, 53, 0
2, 24456, Note_on_c, 0, 41, 0
2, 24480, Note_on_c, 0, 52, 85
2, 24480, Note_on_c, 0, 40, 85
2, 24576, Note_on_c, 0, 40, 0
2, 24576, Note_on_c, 0, 52, 0
2, 24600, Note_on_c, 0, 39, 85
2, 24600, Note_on_c, 0, 51, 85
2, 24696, Note_on_c, 0, 51, 0
2, 24696, Note_on_c, 0, 39, 0
2, 24720, Note_on_c, 0, 38, 85
2, 24720, Note_on_c, 0, 50, 85
2, 24816, Note_on_c, 0, 50, 0
2, 24816, Note_on_c, 0, 38, 0
2, 24840, Note_on_c, 0, 37, 85
2, 24840, Note_on_c, 0, 49, 85
2, 24936, Note_on_c, 0, 49, 0
2, 24936, Note_on_c, 0, 37, 0
2, 24960, Note_on_c, 0, 50, 85
2, 24960, Note_on_c, 0, 38, 85
2, 25056, Note_on_c, 0, 38, 0
2, 25056, Note_on_c, 0, 50, 0
2, 25080, Note_on_c, 0, 39, 85
2, 25080, Note_on_c, 0, 51, 85
2, 25176, Note_on_c, 0, 51, 0
2, 25176, Note_on_c, 0, 39, 0
2, 25200, Note_on_c, 0, 52, 85
2, 25200, Note_on_c, 0, 40, 85
2, 25296, Note_on_c, 0, 40, 0
2, 25296, Note_on_c, 0, 52, 0
2, 25320, Note_on_c, 0, 41, 85
2, 25320, Note_on_c, 0, 53, 85
2, 25416, Note_on_c, 0, 53, 0
2, 25416, Note_on_c, 0, 41, 0
2, 25440, Note_on_c, 0, 54, 85
2, 25440, Note_on_c, 0, 42, 85
2, 25536, Note_on_c, 0, 42, 0
2, 25536, Note_on_c, 0, 54, 0
2, 25560, Note_on_c, 0, 43, 85
2, 25560, Note_on_c, 0, 55, 85
2, 25656, Note_on_c, 0, 55, 0
2, 25656, Note_on_c, 0, 43, 0
2, 25680, Note_on_c, 0, 44, 85
2, 25680, Note_on_c, 0, 56, 85
2, 25776, Note_on_c, 0, 56, 0
2, 25776, Note_on_c, 0, 44, 0
2, 25800, Note_on_c, 0, 45, 85
2, 25800, Note_on_c, 0, 57, 85
2, 25896, Note_on_c, 0, 57, 0
2, 25896, Note_on_c, 0, 45, 0
2, 25920, Note_on_c, 0, 46, 94
2, 25920, Note_on_c, 0, 58, 94
2, 26016, Note_on_c, 0, 58, 0
2, 26016, Note_on_c, 0, 46, 0
2, 26040, Note_on_c, 0, 47, 94
2, 26040, Note_on_c, 0, 59, 94
2, 26136, Note_on_c, 0, 59, 0
2, 26136, Note_on_c, 0, 47, 0
2, 26160, Note_on_c, 0, 48, 94
2, 26160, Note_on_c, 0, 60, 94
2, 26256, Note_on_c, 0, 60, 0
2, 26256, Note_on_c, 0, 48, 0
2, 26280, Note_on_c, 0, 49, 94
2, 26280, Note_on_c, 0, 61, 94
2, 26376, Note_on_c, 0, 61, 0
2, 26376, Note_on_c, 0, 49, 0
2, 26400, Note_on_c, 0, 62, 94
2, 26400, Note_on_c, 0, 50, 94
2, 26496, Note_on_c, 0, 50, 0
2, 26496, Note_on_c, 0, 62, 0
2, 26520, Note_on_c, 0, 63, 94
2, 26520, Note_on_c, 0, 51, 94
2, 26616, Note_on_c, 0, 51, 0
2, 26616, Note_on_c, 0, 63, 0
2, 26640, Note_on_c, 0, 64, 105
2, 26640, Note_on_c, 0, 52, 105
2, 26736, Note_on_c, 0, 52, 0
2, 26736, Note_on_c, 0, 64, 0
2, 26760, Note_on_c, 0, 65, 105
2, 26760, Note_on_c, 0, 53, 105
2, 26856, Note_on_c, 0, 53, 0
2, 26856, Note_on_c, 0, 65, 0
2, 26880, Note_on_c, 0, 66, 125
2, 26880, Note_on_c, 0, 54, 125
2, 26976, Note_on_c, 0, 54, 0
2, 26976, Note_on_c, 0, 66, 0
2, 27000, Note_on_c, 0, 65, 105
2, 27000, Note_on_c, 0, 53, 105
2, 27096, Note_on_c, 0, 53, 0
2, 27096, Note_on_c, 0, 65, 0
2, 27120, Note_on_c, 0, 64, 105
2, 27120, Note_on_c, 0, 52, 105
2, 27216, Note_on_c, 0, 52, 0
2, 27216, Note_on_c, 0, 64, 0
2, 27240, Note_on_c, 0, 63, 105
2, 27240, Note_on_c, 0, 51, 105
2, 27336, Note_on_c, 0, 51, 0
2, 27336, Note_on_c, 0, 63, 0
2, 27360, Note_on_c, 0, 64, 125
2, 27360, Note_on_c, 0, 52, 125
2, 27456, Note_on_c, 0, 52, 0
2, 27456, Note_on_c, 0, 64, 0
2, 27480, Note_on_c, 0, 63, 105
2, 27480, Note_on_c, 0, 51, 105
2, 27576, Note_on_c, 0, 51, 0
2, 27576, Note_on_c, 0, 63, 0
2, 27600, Note_on_c, 0, 62, 105
2, 27600, Note_on_c, 0, 50, 105
2, 27696, Note_on_c, 0, 50, 0
2, 27696, Note_on_c, 0, 62, 0
2, 27720, Note_on_c, 0, 61, 105
2, 27720, Note_on_c, 0, 49, 105
2, 27816, Note_on_c, 0, 49, 0
2, 27816, Note_on_c, 0, 61, 0
2, 27840, Note_on_c, 0, 62, 125
2, 27840, Note_on_c, 0, 50, 125
2, 27936, Note_on_c, 0, 50, 0
2, 27936, Note_on_c, 0, 62, 0
2, 27960, Note_on_c, 0, 61, 105
2, 27960, Note_on_c, 0, 49, 105
2, 28056, Note_on_c, 0, 49, 0
2, 28056, Note_on_c, 0, 61, 0
2, 28080, Note_on_c, 0, 60, 94
2, 28080, Note_on_c, 0, 48, 94
2, 28176, Note_on_c, 0, 48, 0
2, 28176, Note_on_c, 0, 60, 0
2, 28200, Note_on_c, 0, 59, 94
2, 28200, Note_on_c, 0, 47, 94
2, 28296, Note_on_c, 0, 47, 0
2, 28296, Note_on_c, 0, 59, 0
2, 28320, Note_on_c, 0, 60, 114
2, 28320, Note_on_c, 0, 48, 114
2, 28416, Note_on_c, 0, 48, 0
2, 28416, Note_on_c, 0, 60, 0
2, 28440, Note_on_c, 0, 59, 94
2, 28440, Note_on_c, 0, 47, 94
2, 28536, Note_on_c, 0, 47, 0
2, 28536, Note_on_c, 0, 59, 0
2, 28560, Note_on_c, 0, 58, 85
2, 28560, Note_on_c, 0, 46, 85
2, 28656, Note_on_c, 0, 46, 0
2, 28656, Note_on_c, 0, 58, 0
2, 28680, Note_on_c, 0, 57, 85
2, 28680, Note_on_c, 0, 45, 85
2, 28776, Note_on_c, 0, 45, 0
2, 28776, Note_on_c, 0, 57, 0
2, 28800, Note_on_c, 0, 46, 92
2, 28800, Note_on_c, 0, 58, 92
2, 28896, Note_on_c, 0, 58, 0
2, 28896, Note_on_c, 0, 46, 0
2, 28920, Note_on_c, 0, 45, 72
2, 28920, Note_on_c, 0, 57, 72
2, 29016, Note_on_c, 0, 57, 0
2, 29016, Note_on_c, 0, 45, 0
2, 29040, Note_on_c, 0, 56, 72
2, 29040, Note_on_c, 0, 44, 72
2, 29136, Note_on_c, 0, 44, 0
2, 29136, Note_on_c, 0, 56, 0
2, 29160, Note_on_c, 0, 43, 72
2, 29160, Note_on_c, 0, 55, 72
2, 29256, Note_on_c, 0, 55, 0
2, 29256, Note_on_c, 0, 43, 0
2, 29280, Note_on_c, 0, 45, 92
2, 29280, Note_on_c, 0, 57, 92
2, 29376, Note_on_c, 0, 57, 0
2, 29376, Note_on_c, 0, 45, 0
2, 29400, Note_on_c, 0, 44, 72
2, 29400, Note_on_c, 0, 56, 72
2, 29496, Note_on_c, 0, 56, 0
2, 29496, Note_on_c, 0, 44, 0
2, 29520, Note_on_c, 0, 43, 72
2, 29520, Note_on_c, 0, 55, 72
2, 29616, Note_on_c, 0, 55, 0
2, 29616, Note_on_c, 0, 43, 0
2, 29640, Note_on_c, 0, 42, 72
2, 29640, Note_on_c, 0, 54, 72
2, 29736, Note_on_c, 0, 54, 0
2, 29736, Note_on_c, 0, 42, 0
2, 29760, Note_on_c, 0, 44, 92
2, 29760, Note_on_c, 0, 56, 92
2, 29856, Note_on_c, 0, 56, 0
2, 29856, Note_on_c, 0, 44, 0
2, 29880, Note_on_c, 0, 43, 72
2, 29880, Note_on_c, 0, 55, 72
2, 29976, Note_on_c, 0, 55, 0
2, 29976, Note_on_c, 0, 43, 0
2, 30000, Note_on_c, 0, 54, 72
2, 30000, Note_on_c, 0, 42, 72
2, 30096, Note_on_c, 0, 42, 0
2, 30096, Note_on_c, 0, 54, 0
2, 30120, Note_on_c, 0, 41, 72
2, 30120, Note_on_c, 0, 53, 72
2, 30216, Note_on_c, 0, 53, 0
2, 30216, Note_on_c, 0, 41, 0
2, 30240, Note_on_c, 0, 43, 92
2, 30240, Note_on_c, 0, 55, 92
2, 30336, Note_on_c, 0, 55, 0
2, 30336, Note_on_c, 0, 43, 0
2, 30360, Note_on_c, 0, 41, 72
2, 30360, Note_on_c, 0, 53, 72
2, 30456, Note_on_c, 0, 53, 0
2, 30456, Note_on_c, 0, 41, 0
2, 30480, Note_on_c, 0, 39, 72
2, 30480, Note_on_c, 0, 51, 72
2, 30576, Note_on_c, 0, 51, 0
2, 30576, Note_on_c, 0, 39, 0
2, 30600, Note_on_c, 0, 38, 72
2, 30600, Note_on_c, 0, 50, 72
2, 30696, Note_on_c, 0, 50, 0
2, 30696, Note_on_c, 0, 38, 0
2, 30720, Note_on_c, 0, 63, 72
2, 30720, Note_on_c, 0, 36, 72
2, 30912, Note_on_c, 0, 36, 0
2, 30912, Note_on_c, 0, 63, 0
2, 30960, Note_on_c, 0, 68, 92
2, 30960, Note_on_c, 0, 56, 92
2, 30960, Note_on_c, 0, 36, 92
2, 31056, Note_on_c, 0, 36, 0
2, 31152, Note_on_c, 0, 56, 0
2, 31152, Note_on_c, 0, 68, 0
2, 31200, Note_on_c, 0, 63, 72
2, 31392, Note_on_c, 0, 63, 0
2, 31440, Note_on_c, 0, 68, 72
2, 31440, Note_on_c, 0, 56, 72
2, 31440, Note_on_c, 0, 48, 72
2, 31632, Note_on_c, 0, 48, 0
2, 31632, Note_on_c, 0, 56, 0
2, 31632, Note_on_c, 0, 68, 0
2, 31680, Note_on_c, 0, 62, 72
2, 31680, Note_on_c, 0, 65, 72
2, 31680, Note_on_c, 0, 48, 72
2, 31872, Note_on_c, 0, 48, 0
2, 31872, Note_on_c, 0, 65, 0
2, 31872, Note_on_c, 0, 62, 0
2, 31920, Note_on_c, 0, 68, 92
2, 31920, Note_on_c, 0, 56, 92
2, 31920, Note_on_c, 0, 48, 92
2, 32016, Note_on_c, 0, 48, 0
2, 32112, Note_on_c, 0, 56, 0
2, 32112, Note_on_c, 0, 68, 0
2, 32160, Note_on_c, 0, 65, 72
2, 32160, Note_on_c, 0, 62, 72
2, 32352, Note_on_c, 0, 62, 0
2, 32352, Note_on_c, 0, 65, 0
2, 32400, Note_on_c, 0, 68, 72
2, 32400, Note_on_c, 0, 56, 72
2, 32400, Note_on_c, 0, 48, 72
2, 32592, Note_on_c, 0, 48, 0
2, 32592, Note_on_c, 0, 56, 0
2, 32592, Note_on_c, 0, 68, 0
2, 32640, Note_on_c, 0, 63, 72
2, 32640, Note_on_c, 0, 36, 72
2, 32832, Note_on_c, 0, 36, 0
2, 32832, Note_on_c, 0, 63, 0
2, 32880, Note_on_c, 0, 68, 92
2, 32880, Note_on_c, 0, 56, 92
2, 32880, Note_on_c, 0, 36, 92
2, 32976, Note_on_c, 0, 36, 0
2, 33072, Note_on_c, 0, 56, 0
2, 33072, Note_on_c, 0, 68, 0
2, 33120, Note_on_c, 0, 63, 72
2, 33312, Note_on_c, 0, 63, 0
2, 33360, Note_on_c, 0, 68, 72
2, 33360, Note_on_c, 0, 56, 72
2, 33360, Note_on_c, 0, 48, 72
2, 33552, Note_on_c, 0, 48, 0
2, 33552, Note_on_c, 0, 56, 0
2, 33552, Note_on_c, 0, 68, 0
2, 33600, Note_on_c, 0, 62, 72
2, 33600, Note_on_c, 0, 65, 72
2, 33600, Note_on_c, 0, 48, 72
2, 33792, Note_on_c, 0, 48, 0
2, 33792, Note_on_c, 0, 65, 0
2, 33792, Note_on_c, 0, 62, 0
2, 33840, Note_on_c, 0, 68, 92
2, 33840, Note_on_c, 0, 56, 92
2, 33840, Note_on_c, 0, 48, 72
2, 33936, Note_on_c, 0, 48, 0
2, 34032, Note_on_c, 0, 56, 0
2, 34032, Note_on_c, 0, 68, 0
2, 34080, Note_on_c, 0, 62, 72
2, 34080, Note_on_c, 0, 65, 72
2, 34272, Note_on_c, 0, 65, 0
2, 34272, Note_on_c, 0, 62, 0
2, 34320, Note_on_c, 0, 56, 72
2, 34320, Note_on_c, 0, 68, 72
2, 34320, Note_on_c, 0, 36, 72
2, 34512, Note_on_c, 0, 36, 0
2, 34512, Note_on_c, 0, 68, 0
2, 34512, Note_on_c, 0, 56, 0
2, 34560, Note_on_c, 0, 62, 105
2, 34560, Note_on_c, 0, 67, 105
2, 34560, Note_on_c, 0, 65, 105
2, 34560, Note_on_c, 0, 55, 105
2, 34560, Note_on_c, 0, 35, 105
2, 34560, Note_on_c, 0, 47, 105
2, 34752, Note_on_c, 0, 47, 0
2, 34752, Note_on_c, 0, 35, 0
2, 34752, Note_on_c, 0, 55, 0
2, 34752, Note_on_c, 0, 65, 0
2, 34752, Note_on_c, 0, 67, 0
2, 34752, Note_on_c, 0, 62, 0
2, 35040, Note_on_c, 0, 46, 72
2, 35280, Note_on_c, 0, 60, 72
2, 35280, Note_on_c, 0, 72, 72
2, 35280, Note_on_c, 0, 64, 72
2, 35280, Note_on_c, 0, 67, 72
2, 35424, Note_on_c, 0, 46, 0
2, 35472, Note_on_c, 0, 67, 0
2, 35472, Note_on_c, 0, 64, 0
2, 35472, Note_on_c, 0, 72, 0
2, 35472, Note_on_c, 0, 60, 0
2, 35520, Note_on_c, 0, 45, 72
2, 35760, Note_on_c, 0, 60, 72
2, 35760, Note_on_c, 0, 65, 72
2, 35760, Note_on_c, 0, 72, 72
2, 35904, Note_on_c, 0, 45, 0
2, 35952, Note_on_c, 0, 72, 0
2, 35952, Note_on_c, 0, 65, 0
2, 35952, Note_on_c, 0, 60, 0
2, 36000, Note_on_c, 0, 44, 72
2, 36240, Note_on_c, 0, 63, 72
2, 36240, Note_on_c, 0, 60, 72
2, 36240, Note_on_c, 0, 66, 72
2, 36384, Note_on_c, 0, 44, 0
2, 36432, Note_on_c, 0, 66, 0
2, 36432, Note_on_c, 0, 60, 0
2, 36432, Note_on_c, 0, 63, 0
2, 36480, Note_on_c, 0, 43, 72
2, 36720, Note_on_c, 0, 67, 72
2, 36720, Note_on_c, 0, 63, 72
2, 36720, Note_on_c, 0, 60, 72
2, 36912, Note_on_c, 0, 60, 0
2, 36912, Note_on_c, 0, 63, 0
2, 36912, Note_on_c, 0, 67, 0
2, 36960, Note_on_c, 0, 55, 85
2, 37200, Note_on_c, 0, 65, 85
2, 37200, Note_on_c, 0, 62, 85
2, 37200, Note_on_c, 0, 59, 85
2, 37344, Note_on_c, 0, 55, 0
2, 37344, Note_on_c, 0, 43, 0
2, 37392, Note_on_c, 0, 59, 0
2, 37392, Note_on_c, 0, 62, 0
2, 37392, Note_on_c, 0, 65, 0
2, 37440, Note_on_c, 0, 56, 85
2, 37680, Note_on_c, 0, 65, 94
2, 37680, Note_on_c, 0, 60, 94
2, 37824, Note_on_c, 0, 56, 0
2, 37872, Note_on_c, 0, 60, 0
2, 37872, Note_on_c, 0, 65, 0
2, 37920, Note_on_c, 0, 44, 94
2, 38160, Note_on_c, 0, 63, 105
2, 38160, Note_on_c, 0, 60, 105
2, 38304, Note_on_c, 0, 44, 0
2, 38352, Note_on_c, 0, 60, 0
2, 38352, Note_on_c, 0, 63, 0
2, 38400, Note_on_c, 0, 62, 105
2, 38400, Note_on_c, 0, 65, 105
2, 38400, Note_on_c, 0, 67, 105
2, 38400, Note_on_c, 0, 47, 105
2, 38400, Note_on_c, 0, 55, 105
2, 38592, Note_on_c, 0, 55, 0
2, 38592, Note_on_c, 0, 47, 0
2, 38592, Note_on_c, 0, 67, 0
2, 38592, Note_on_c, 0, 65, 0
2, 38592, Note_on_c, 0, 62, 0
2, 38880, Note_on_c, 0, 46, 85
2, 39120, Note_on_c, 0, 60, 85
2, 39120, Note_on_c, 0, 64, 85
2, 39120, Note_on_c, 0, 67, 85
2, 39264, Note_on_c, 0, 46, 0
2, 39312, Note_on_c, 0, 67, 0
2, 39312, Note_on_c, 0, 64, 0
2, 39312, Note_on_c, 0, 60, 0
2, 39360, Note_on_c, 0, 45, 85
2, 39600, Note_on_c, 0, 60, 85
2, 39600, Note_on_c, 0, 72, 85
2, 39600, Note_on_c, 0, 65, 94
2, 39744, Note_on_c, 0, 45, 0
2, 39792, Note_on_c, 0, 65, 0
2, 39792, Note_on_c, 0, 72, 0
2, 39792, Note_on_c, 0, 60, 0
2, 39840, Note_on_c, 0, 44, 94
2, 40752, Note_on_c, 0, 44, 0
2, 41040, Note_on_c, 0, 66, 94
2, 41040, Note_on_c, 0, 72, 105
2, 41040, Note_on_c, 0, 75, 105
2, 41040, Note_on_c, 0, 63, 105
2, 41232, Note_on_c, 0, 63, 0
2, 41232, Note_on_c, 0, 75, 0
2, 41232, Note_on_c, 0, 72, 0
2, 41232, Note_on_c, 0, 66, 0
2, 41280, Note_on_c, 0, 72, 64
2, 41280, Note_on_c, 0, 63, 64
2, 41280, Note_on_c, 0, 75, 64
2, 41280, Note_on_c, 0, 67, 64
2, 41280, Note_on_c, 0, 43, 64
2, 41472, Note_on_c, 0, 67, 0
2, 41472, Note_on_c, 0, 75, 0
2, 41472, Note_on_c, 0, 63, 0
2, 41472, Note_on_c, 0, 72, 0
2, 41520, Note_on_c, 0, 67, 64
2, 41520, Note_on_c, 0, 63, 64
2, 41712, Note_on_c, 0, 63, 0
2, 41712, Note_on_c, 0, 67, 0
2, 41760, Note_on_c, 0, 65, 64
2, 41760, Note_on_c, 0, 62, 64
2, 41952, Note_on_c, 0, 62, 0
2, 41952, Note_on_c, 0, 65, 0
2, 42000, Note_on_c, 0, 60, 64
2, 42000, Note_on_c, 0, 63, 64
2, 42192, Note_on_c, 0, 63, 0
2, 42192, Note_on_c, 0, 60, 0
2, 42240, Note_on_c, 0, 62, 64
2, 42240, Note_on_c, 0, 31, 64
2, 42240, Note_on_c, 0, 55, 64
2, 42240, Note_on_c, 0, 59, 64
2, 42432, Note_on_c, 0, 59, 0
2, 42432, Note_on_c, 0, 55, 0
2, 42480, Note_on_c, 0, 50, 64
2, 42672, Note_on_c, 0, 50, 0
2, 42720, Note_on_c, 0, 57, 64
2, 42720, Note_on_c, 0, 38, 64
2, 42720, Note_on_c, 0, 54, 64
2, 42912, Note_on_c, 0, 54, 0
2, 42912, Note_on_c, 0, 57, 0
2, 42960, Note_on_c, 0, 50, 64
2, 43008, Note_on_c, 0, 31, 0
2, 43008, Note_on_c, 0, 62, 0
2, 43008, Note_on_c, 0, 43, 0
2, 43104, Note_on_c, 0, 38, 0
2, 43152, Note_on_c, 0, 50, 0
2, 43200, Note_on_c, 0, 62, 64
2, 43200, Note_on_c, 0, 55, 64
2, 43200, Note_on_c, 0, 59, 64
2, 43200, Note_on_c, 0, 43, 64
2, 43392, Note_on_c, 0, 59, 0
2, 43392, Note_on_c, 0, 55, 0
2, 43440, Note_on_c, 0, 50, 64
2, 43584, Note_on_c, 0, 43, 0
2, 43632, Note_on_c, 0, 50, 0
2, 43680, Note_on_c, 0, 57, 64
2, 43680, Note_on_c, 0, 38, 64
2, 43680, Note_on_c, 0, 54, 64
2, 43872, Note_on_c, 0, 54, 0
2, 43872, Note_on_c, 0, 57, 0
2, 43920, Note_on_c, 0, 50, 64
2, 43968, Note_on_c, 0, 62, 0
2, 44064, Note_on_c, 0, 38, 0
2, 44160, Note_on_c, 0, 62, 64
2, 44160, Note_on_c, 0, 55, 64
2, 44160, Note_on_c, 0, 43, 64
2, 44160, Note_on_c, 0, 59, 64
2, 44256, Note_on_c, 0, 43, 0
2, 44280, Note_on_c, 0, 42, 64
2, 44376, Note_on_c, 0, 42, 0
2, 44400, Note_on_c, 0, 43, 64
2, 44496, Note_on_c, 0, 43, 0
2, 44520, Note_on_c, 0, 42, 64
2, 44616, Note_on_c, 0, 42, 0
2, 44640, Note_on_c, 0, 43, 64
2, 44736, Note_on_c, 0, 43, 0
2, 44760, Note_on_c, 0, 42, 64
2, 44856, Note_on_c, 0, 42, 0
2, 44880, Note_on_c, 0, 43, 64
2, 44976, Note_on_c, 0, 43, 0
2, 45000, Note_on_c, 0, 42, 64
2, 45096, Note_on_c, 0, 42, 0
2, 45120, Note_on_c, 0, 43, 64
2, 45216, Note_on_c, 0, 43, 0
2, 45240, Note_on_c, 0, 42, 64
2, 45336, Note_on_c, 0, 42, 0
2, 45360, Note_on_c, 0, 43, 64
2, 45456, Note_on_c, 0, 43, 0
2, 45480, Note_on_c, 0, 42, 64
2, 45576, Note_on_c, 0, 42, 0
2, 45600, Note_on_c, 0, 43, 64
2, 45696, Note_on_c, 0, 43, 0
2, 45720, Note_on_c, 0, 41, 64
2, 45816, Note_on_c, 0, 41, 0
2, 45840, Note_on_c, 0, 40, 64
2, 45888, Note_on_c, 0, 59, 0
2, 45888, Note_on_c, 0, 55, 0
2, 45888, Note_on_c, 0, 62, 0
2, 45888, Note_on_c, 0, 50, 0
2, 45936, Note_on_c, 0, 40, 0
2, 45960, Note_on_c, 0, 39, 64
2, 46056, Note_on_c, 0, 39, 0
2, 46080, Note_on_c, 0, 50, 72
2, 46080, Note_on_c, 0, 38, 72
2, 46176, Note_on_c, 0, 38, 0
2, 46176, Note_on_c, 0, 50, 0
2, 46200, Note_on_c, 0, 37, 72
2, 46200, Note_on_c, 0, 49, 72
2, 46296, Note_on_c, 0, 49, 0
2, 46296, Note_on_c, 0, 37, 0
2, 46320, Note_on_c, 0, 50, 72
2, 46320, Note_on_c, 0, 38, 72
2, 46416, Note_on_c, 0, 38, 0
2, 46416, Note_on_c, 0, 50, 0
2, 46440, Note_on_c, 0, 39, 72
2, 46440, Note_on_c, 0, 51, 72
2, 46536, Note_on_c, 0, 51, 0
2, 46536, Note_on_c, 0, 39, 0
2, 46560, Note_on_c, 0, 52, 72
2, 46560, Note_on_c, 0, 40, 72
2, 46656, Note_on_c, 0, 40, 0
2, 46656, Note_on_c, 0, 52, 0
2, 46680, Note_on_c, 0, 41, 85
2, 46680, Note_on_c, 0, 53, 85
2, 46776, Note_on_c, 0, 53, 0
2, 46776, Note_on_c, 0, 41, 0
2, 46800, Note_on_c, 0, 42, 94
2, 46800, Note_on_c, 0, 54, 94
2, 46896, Note_on_c, 0, 54, 0
2, 46896, Note_on_c, 0, 42, 0
2, 46920, Note_on_c, 0, 43, 105
2, 46920, Note_on_c, 0, 55, 105
2, 47016, Note_on_c, 0, 55, 0
2, 47016, Note_on_c, 0, 43, 0
2, 47040, Note_on_c, 0, 56, 94
2, 47040, Note_on_c, 0, 44, 94
2, 47136, Note_on_c, 0, 44, 0
2, 47136, Note_on_c, 0, 56, 0
2, 47160, Note_on_c, 0, 43, 94
2, 47160, Note_on_c, 0, 55, 94
2, 47256, Note_on_c, 0, 55, 0
2, 47256, Note_on_c, 0, 43, 0
2, 47280, Note_on_c, 0, 54, 85
2, 47280, Note_on_c, 0, 42, 85
2, 47376, Note_on_c, 0, 42, 0
2, 47376, Note_on_c, 0, 54, 0
2, 47400, Note_on_c, 0, 41, 85
2, 47400, Note_on_c, 0, 53, 85
2, 47496, Note_on_c, 0, 53, 0
2, 47496, Note_on_c, 0, 41, 0
2, 47520, Note_on_c, 0, 52, 85
2, 47520, Note_on_c, 0, 40, 85
2, 47616, Note_on_c, 0, 40, 0
2, 47616, Note_on_c, 0, 52, 0
2, 47640, Note_on_c, 0, 39, 85
2, 47640, Note_on_c, 0, 51, 85
2, 47736, Note_on_c, 0, 51, 0
2, 47736, Note_on_c, 0, 39, 0
2, 47760, Note_on_c, 0, 38, 85
2, 47760, Note_on_c, 0, 50, 85
2, 47856, Note_on_c, 0, 50, 0
2, 47856, Note_on_c, 0, 38, 0
2, 47880, Note_on_c, 0, 37, 85
2, 47880, Note_on_c, 0, 49, 85
2, 47976, Note_on_c, 0, 49, 0
2, 47976, Note_on_c, 0, 37, 0
2, 48000, Note_on_c, 0, 50, 85
2, 48000, Note_on_c, 0, 38, 85
2, 48096, Note_on_c, 0, 38, 0
2, 48096, Note_on_c, 0, 50, 0
2, 48120, Note_on_c, 0, 39, 85
2, 48120, Note_on_c, 0, 51, 85
2, 48216, Note_on_c, 0, 51, 0
2, 48216, Note_on_c, 0, 39, 0
2, 48240, Note_on_c, 0, 52, 85
2, 48240, Note_on_c, 0, 40, 85
2, 48336, Note_on_c, 0, 40, 0
2, 48336, Note_on_c, 0, 52, 0
2, 48360, Note_on_c, 0, 41, 85
2, 48360, Note_on_c, 0, 53, 85
2, 48456, Note_on_c, 0, 53, 0
2, 48456, Note_on_c, 0, 41, 0
2, 48480, Note_on_c, 0, 54, 85
2, 48480, Note_on_c, 0, 42, 85
2, 48576, Note_on_c, 0, 42, 0
2, 48576, Note_on_c, 0, 54, 0
2, 48600, Note_on_c, 0, 43, 85
2, 48600, Note_on_c, 0, 55, 85
2, 48696, Note_on_c, 0, 55, 0
2, 48696, Note_on_c, 0, 43, 0
2, 48720, Note_on_c, 0, 44, 85
2, 48720, Note_on_c, 0, 56, 85
2, 48816, Note_on_c, 0, 56, 0
2, 48816, Note_on_c, 0, 44, 0
2, 48840, Note_on_c, 0, 45, 85
2, 48840, Note_on_c, 0, 57, 85
2, 48936, Note_on_c, 0, 57, 0
2, 48936, Note_on_c, 0, 45, 0
2, 48960, Note_on_c, 0, 46, 94
2, 48960, Note_on_c, 0, 58, 94
2, 49056, Note_on_c, 0, 58, 0
2, 49056, Note_on_c, 0, 46, 0
2, 49080, Note_on_c, 0, 47, 94
2, 49080, Note_on_c, 0, 59, 94
2, 49176, Note_on_c, 0, 59, 0
2, 49176, Note_on_c, 0, 47, 0
2, 49200, Note_on_c, 0, 48, 94
2, 49200, Note_on_c, 0, 60, 94
2, 49296, Note_on_c, 0, 60, 0
2, 49296, Note_on_c, 0, 48, 0
2, 49320, Note_on_c, 0, 49, 94
2, 49320, Note_on_c, 0, 61, 94
2, 49416, Note_on_c, 0, 61, 0
2, 49416, Note_on_c, 0, 49, 0
2, 49440, Note_on_c, 0, 62, 94
2, 49440, Note_on_c, 0, 50, 94
2, 49536, Note_on_c, 0, 50, 0
2, 49536, Note_on_c, 0, 62, 0
2, 49560, Note_on_c, 0, 63, 94
2, 49560, Note_on_c, 0, 51, 94
2, 49656, Note_on_c, 0, 51, 0
2, 49656, Note_on_c, 0, 63, 0
2, 49680, Note_on_c, 0, 64, 105
2, 49680, Note_on_c, 0, 52, 105
2, 49776, Note_on_c, 0, 52, 0
2, 49776, Note_on_c, 0, 64, 0
2, 49800, Note_on_c, 0, 65, 105
2, 49800, Note_on_c, 0, 53, 105
2, 49896, Note_on_c, 0, 53, 0
2, 49896, Note_on_c, 0, 65, 0
2, 49920, Note_on_c, 0, 66, 125
2, 49920, Note_on_c, 0, 54, 125
2, 50016, Note_on_c, 0, 54, 0
2, 50016, Note_on_c, 0, 66, 0
2, 50040, Note_on_c, 0, 65, 105
2, 50040, Note_on_c, 0, 53, 105
2, 50136, Note_on_c, 0, 53, 0
2, 50136, Note_on_c, 0, 65, 0
2, 50160, Note_on_c, 0, 64, 105
2, 50160, Note_on_c, 0, 52, 105
2, 50256, Note_on_c, 0, 52, 0
2, 50256, Note_on_c, 0, 64, 0
2, 50280, Note_on_c, 0, 63, 105
2, 50280, Note_on_c, 0, 51, 105
2, 50376, Note_on_c, 0, 51, 0
2, 50376, Note_on_c, 0, 63, 0
2, 50400, Note_on_c, 0, 64, 125
2, 50400, Note_on_c, 0, 52, 125
2, 50496, Note_on_c, 0, 52, 0
2, 50496, Note_on_c, 0, 64, 0
2, 50520, Note_on_c, 0, 63, 105
2, 50520, Note_on_c, 0, 51, 105
2, 50616, Note_on_c, 0, 51, 0
2, 50616, Note_on_c, 0, 63, 0
2, 50640, Note_on_c, 0, 62, 105
2, 50640, Note_on_c, 0, 50, 105
2, 50736, Note_on_c, 0, 50, 0
2, 50736, Note_on_c, 0, 62, 0
2, 50760, Note_on_c, 0, 61, 105
2, 50760, Note_on_c, 0, 49, 105
2, 50856, Note_on_c, 0, 49, 0
2, 50856, Note_on_c, 0, 61, 0
2, 50880, Note_on_c, 0, 62, 125
2, 50880, Note_on_c, 0, 50, 125
2, 50976, Note_on_c, 0, 50, 0
2, 50976, Note_on_c, 0, 62, 0
2, 51000, Note_on_c, 0, 61, 105
2, 51000, Note_on_c, 0, 49, 105
2, 51096, Note_on_c, 0, 49, 0
2, 51096, Note_on_c, 0, 61, 0
2, 51120, Note_on_c, 0, 60, 94
2, 51120, Note_on_c, 0, 48, 94
2, 51216, Note_on_c, 0, 48, 0
2, 51216, Note_on_c, 0, 60, 0
2, 51240, Note_on_c, 0, 59, 94
2, 51240, Note_on_c, 0, 47, 94
2, 51336, Note_on_c, 0, 47, 0
2, 51336, Note_on_c, 0, 59, 0
2, 51360, Note_on_c, 0, 60, 114
2, 51360, Note_on_c, 0, 48, 114
2, 51456, Note_on_c, 0, 48, 0
2, 51456, Note_on_c, 0, 60, 0
2, 51480, Note_on_c, 0, 59, 94
2, 51480, Note_on_c, 0, 47, 94
2, 51576, Note_on_c, 0, 47, 0
2, 51576, Note_on_c, 0, 59, 0
2, 51600, Note_on_c, 0, 58, 85
2, 51600, Note_on_c, 0, 46, 85
2, 51696, Note_on_c, 0, 46, 0
2, 51696, Note_on_c, 0, 58, 0
2, 51720, Note_on_c, 0, 57, 85
2, 51720, Note_on_c, 0, 45, 85
2, 51816, Note_on_c, 0, 45, 0
2, 51816, Note_on_c, 0, 57, 0
2, 51840, Note_on_c, 0, 46, 92
2, 51840, Note_on_c, 0, 58, 92
2, 51936, Note_on_c, 0, 58, 0
2, 51936, Note_on_c, 0, 46, 0
2, 51960, Note_on_c, 0, 45, 72
2, 51960, Note_on_c, 0, 57, 72
2, 52056, Note_on_c, 0, 57, 0
2, 52056, Note_on_c, 0, 45, 0
2, 52080, Note_on_c, 0, 56, 72
2, 52080, Note_on_c, 0, 44, 72
2, 52176, Note_on_c, 0, 44, 0
2, 52176, Note_on_c, 0, 56, 0
2, 52200, Note_on_c, 0, 43, 72
2, 52200, Note_on_c, 0, 55, 72
2, 52296, Note_on_c, 0, 55, 0
2, 52296, Note_on_c, 0, 43, 0
2, 52320, Note_on_c, 0, 45, 92
2, 52320, Note_on_c, 0, 57, 92
2, 52416, Note_on_c, 0, 57, 0
2, 52416, Note_on_c, 0, 45, 0
2, 52440, Note_on_c, 0, 44, 72
2, 52440, Note_on_c, 0, 56, 72
2, 52536, Note_on_c, 0, 56, 0
2, 52536, Note_on_c, 0, 44, 0
2, 52560, Note_on_c, 0, 43, 72
2, 52560, Note_on_c, 0, 55, 72
2, 52656, Note_on_c, 0, 55, 0
2, 52656, Note_on_c, 0, 43, 0
2, 52680, Note_on_c, 0, 42, 72
2, 52680, Note_on_c, 0, 54, 72
2, 52776, Note_on_c, 0, 54, 0
2, 52776, Note_on_c, 0, 42, 0
2, 52800, Note_on_c, 0, 44, 92
2, 52800, Note_on_c, 0, 56, 92
2, 52896, Note_on_c, 0, 56, 0
2, 52896, Note_on_c, 0, 44, 0
2, 52920, Note_on_c, 0, 43, 72
2, 52920, Note_on_c, 0, 55, 72
2, 53016, Note_on_c, 0, 55, 0
2, 53016, Note_on_c, 0, 43, 0
2, 53040, Note_on_c, 0, 54, 72
2, 53040, Note_on_c, 0, 42, 72
2, 53136, Note_on_c, 0, 42, 0
2, 53136, Note_on_c, 0, 54, 0
2, 53160, Note_on_c, 0, 41, 72
2, 53160, Note_on_c, 0, 53, 72
2, 53256, Note_on_c, 0, 53, 0
2, 53256, Note_on_c, 0, 41, 0
2, 53280, Note_on_c, 0, 43, 92
2, 53280, Note_on_c, 0, 55, 92
2, 53376, Note_on_c, 0, 55, 0
2, 53376, Note_on_c, 0, 43, 0
2, 53400, Note_on_c, 0, 41, 72
2, 53400, Note_on_c, 0, 53, 72
2, 53496, Note_on_c, 0, 53, 0
2, 53496, Note_on_c, 0, 41, 0
2, 53520, Note_on_c, 0, 39, 72
2, 53520, Note_on_c, 0, 51, 72
2, 53616, Note_on_c, 0, 51, 0
2, 53616, Note_on_c, 0, 39, 0
2, 53640, Note_on_c, 0, 38, 72
2, 53640, Note_on_c, 0, 50, 72
2, 53736, Note_on_c, 0, 50, 0
2, 53736, Note_on_c, 0, 38, 0
2, 53760, Note_on_c, 0, 63, 72
2, 53760, Note_on_c, 0, 36, 72
2, 53952, Note_on_c, 0, 36, 0
2, 53952, Note_on_c, 0, 63, 0
2, 54000, Note_on_c, 0, 68, 92
2, 54000, Note_on_c, 0, 56, 92
2, 54000, Note_on_c, 0, 36, 92
2, 54096, Note_on_c, 0, 36, 0
2, 54192, Note_on_c, 0, 56, 0
2, 54192, Note_on_c, 0, 68, 0
2, 54240, Note_on_c, 0, 63, 72
2, 54432, Note_on_c, 0, 63, 0
2, 54480, Note_on_c, 0, 68, 72
2, 54480, Note_on_c, 0, 56, 72
2, 54480, Note_on_c, 0, 48, 72
2, 54672, Note_on_c, 0, 48, 0
2, 54672, Note_on_c, 0, 56, 0
2, 54672, Note_on_c, 0, 68, 0
2, 54720, Note_on_c, 0, 62, 72
2, 54720, Note_on_c, 0, 65, 72
2, 54720, Note_on_c, 0, 48, 72
2, 54912, Note_on_c, 0, 48, 0
2, 54912, Note_on_c, 0, 65, 0
2, 54912, Note_on_c, 0, 62, 0
2, 54960, Note_on_c, 0, 68, 92
2, 54960, Note_on_c, 0, 56, 92
2, 54960, Note_on_c, 0, 48, 92
2, 55056, Note_on_c, 0, 48, 0
2, 55152, Note_on_c, 0, 56, 0
2, 55152, Note_on_c, 0, 68, 0
2, 55200, Note_on_c, 0, 65, 72
2, 55200, Note_on_c, 0, 62, 72
2, 55392, Note_on_c, 0, 62, 0
2, 55392, Note_on_c, 0, 65, 0
2, 55440, Note_on_c, 0, 68, 72
2, 55440, Note_on_c, 0, 56, 72
2, 55440, Note_on_c, 0, 48, 72
2, 55632, Note_on_c, 0, 48, 0
2, 55632, Note_on_c, 0, 56, 0
2, 55632, Note_on_c, 0, 68, 0
2, 55680, Note_on_c, 0, 63, 72
2, 55680, Note_on_c, 0, 36, 72
2, 55872, Note_on_c, 0, 36, 0
2, 55872, Note_on_c, 0, 63, 0
2, 55920, Note_on_c, 0, 68, 92
2, 55920, Note_on_c, 0, 56, 92
2, 55920, Note_on_c, 0, 36, 92
2, 56016, Note_on_c, 0, 36, 0
2, 56112, Note_on_c, 0, 56, 0
2, 56112, Note_on_c, 0, 68, 0
2, 56160, Note_on_c, 0, 63, 72
2, 56352, Note_on_c, 0, 63, 0
2, 56400, Note_on_c, 0, 68, 72
2, 56400, Note_on_c, 0, 56, 72
2, 56400, Note_on_c, 0, 48, 72
2, 56592, Note_on_c, 0, 48, 0
2, 56592, Note_on_c, 0, 56, 0
2, 56592, Note_on_c, 0, 68, 0
2, 56640, Note_on_c, 0, 62, 72
2, 56640, Note_on_c, 0, 65, 72
2, 56640, Note_on_c, 0, 48, 72
2, 56832, Note_on_c, 0, 48, 0
2, 56832, Note_on_c, 0, 65, 0
2, 56832, Note_on_c, 0, 62, 0
2, 56880, Note_on_c, 0, 68, 92
2, 56880, Note_on_c, 0, 56, 92
2, 56880, Note_on_c, 0, 48, 72
2, 56976, Note_on_c, 0, 48, 0
2, 57072, Note_on_c, 0, 56, 0
2, 57072, Note_on_c, 0, 68, 0
2, 57120, Note_on_c, 0, 62, 72
2, 57120, Note_on_c, 0, 65, 72
2, 57312, Note_on_c, 0, 65, 0
2, 57312, Note_on_c, 0, 62, 0
2, 57360, Note_on_c, 0, 56, 72
2, 57360, Note_on_c, 0, 68, 72
2, 57360, Note_on_c, 0, 36, 72
2, 57552, Note_on_c, 0, 36, 0
2, 57552, Note_on_c, 0, 68, 0
2, 57552, Note_on_c, 0, 56, 0
2, 57600, Note_on_c, 0, 62, 105
2, 57600, Note_on_c, 0, 67, 105
2, 57600, Note_on_c, 0, 65, 105
2, 57600, Note_on_c, 0, 55, 105
2, 57600, Note_on_c, 0, 35, 105
2, 57600, Note_on_c, 0, 47, 105
2, 57792, Note_on_c, 0, 47, 0
2, 57792, Note_on_c, 0, 35, 0
2, 57792, Note_on_c, 0, 55, 0
2, 57792, Note_on_c, 0, 65, 0
2, 57792, Note_on_c, 0, 67, 0
2, 57792, Note_on_c, 0, 62, 0
2, 58080, Note_on_c, 0, 46, 72
2, 58320, Note_on_c, 0, 60, 72
2, 58320, Note_on_c, 0, 72, 72
2, 58320, Note_on_c, 0, 64, 72
2, 58320, Note_on_c, 0, 67, 72
2, 58464, Note_on_c, 0, 46, 0
2, 58512, Note_on_c, 0, 67, 0
2, 58512, Note_on_c, 0, 64, 0
2, 58512, Note_on_c, 0, 72, 0
2, 58512, Note_on_c, 0, 60, 0
2, 58560, Note_on_c, 0, 45, 72
2, 58800, Note_on_c, 0, 60, 72
2, 58800, Note_on_c, 0, 65, 72
2, 58800, Note_on_c, 0, 72, 72
2, 58944, Note_on_c, 0, 45, 0
2, 58992, Note_on_c, 0, 72, 0
2, 58992, Note_on_c, 0, 65, 0
2, 58992, Note_on_c, 0, 60, 0
2, 59040, Note_on_c, 0, 44, 72
2, 59280, Note_on_c, 0, 63, 72
2, 59280, Note_on_c, 0, 60, 72
2, 59280, Note_on_c, 0, 66, 72
2, 59424, Note_on_c, 0, 44, 0
2, 59472, Note_on_c, 0, 66, 0
2, 59472, Note_on_c, 0, 60, 0
2, 59472, Note_on_c, 0, 63, 0
2, 59520, Note_on_c, 0, 43, 72
2, 59760, Note_on_c, 0, 67, 72
2, 59760, Note_on_c, 0, 63, 72
2, 59760, Note_on_c, 0, 60, 72
2, 59952, Note_on_c, 0, 60, 0
2, 59952, Note_on_c, 0, 63, 0
2, 59952, Note_on_c, 0, 67, 0
2, 60000, Note_on_c, 0, 55, 85
2, 60240, Note_on_c, 0, 65, 85
2, 60240, Note_on_c, 0, 62, 85
2, 60240, Note_on_c, 0, 59, 85
2, 60384, Note_on_c, 0, 43, 0
2, 60384, Note_on_c, 0, 55, 0
2, 60432, Note_on_c, 0, 59, 0
2, 60432, Note_on_c, 0, 62, 0
2, 60432, Note_on_c, 0, 65, 0
2, 60480, Note_on_c, 0, 56, 85
2, 60720, Note_on_c, 0, 65, 94
2, 60720, Note_on_c, 0, 60, 94
2, 60864, Note_on_c, 0, 56, 0
2, 60912, Note_on_c, 0, 60, 0
2, 60912, Note_on_c, 0, 65, 0
2, 60960, Note_on_c, 0, 44, 94
2, 61200, Note_on_c, 0, 63, 105
2, 61200, Note_on_c, 0, 60, 105
2, 61344, Note_on_c, 0, 44, 0
2, 61392, Note_on_c, 0, 60, 0
2, 61392, Note_on_c, 0, 63, 0
2, 61440, Note_on_c, 0, 62, 105
2, 61440, Note_on_c, 0, 65, 105
2, 61440, Note_on_c, 0, 67, 105
2, 61440, Note_on_c, 0, 47, 105
2, 61440, Note_on_c, 0, 55, 105
2, 61632, Note_on_c, 0, 55, 0
2, 61632, Note_on_c, 0, 47, 0
2, 61632, Note_on_c, 0, 67, 0
2, 61632, Note_on_c, 0, 65, 0
2, 61632, Note_on_c, 0, 62, 0
2, 61920, Note_on_c, 0, 46, 85
2, 62160, Note_on_c, 0, 60, 85
2, 62160, Note_on_c, 0, 64, 85
2, 62160, Note_on_c, 0, 67, 85
2, 62304, Note_on_c, 0, 46, 0
2, 62352, Note_on_c, 0, 67, 0
2, 62352, Note_on_c, 0, 64, 0
2, 62352, Note_on_c, 0, 60, 0
2, 62400, Note_on_c, 0, 45, 85
2, 62640, Note_on_c, 0, 60, 85
2, 62640, Note_on_c, 0, 72, 85
2, 62640, Note_on_c, 0, 65, 94
2, 62784, Note_on_c, 0, 45, 0
2, 62832, Note_on_c, 0, 65, 0
2, 62832, Note_on_c, 0, 72, 0
2, 62832, Note_on_c, 0, 60, 0
2, 62880, Note_on_c, 0, 44, 94
2, 63792, Note_on_c, 0, 44, 0
2, 64080, Note_on_c, 0, 66, 94
2, 64080, Note_on_c, 0, 72, 105
2, 64080, Note_on_c, 0, 75, 105
2, 64080, Note_on_c, 0, 63, 105
2, 64272, Note_on_c, 0, 63, 0
2, 64272, Note_on_c, 0, 75, 0
2, 64272, Note_on_c, 0, 72, 0
2, 64272, Note_on_c, 0, 66, 0
2, 64320, Note_on_c, 0, 72, 64
2, 64320, Note_on_c, 0, 63, 64
2, 64320, Note_on_c, 0, 75, 64
2, 64320, Note_on_c, 0, 67, 64
2, 64320, Note_on_c, 0, 43, 64
2, 64512, Note_on_c, 0, 67, 0
2, 64512, Note_on_c, 0, 75, 0
2, 64512, Note_on_c, 0, 63, 0
2, 64512, Note_on_c, 0, 72, 0
2, 64560, Note_on_c, 0, 67, 64
2, 64560, Note_on_c, 0, 63, 64
2, 64752, Note_on_c, 0, 63, 0
2, 64752, Note_on_c, 0, 67, 0
2, 64800, Note_on_c, 0, 65, 64
2, 64800, Note_on_c, 0, 62, 64
2, 64992, Note_on_c, 0, 62, 0
2, 64992, Note_on_c, 0, 65, 0
2, 65040, Note_on_c, 0, 60, 64
2, 65040, Note_on_c, 0, 63, 64
2, 65232, Note_on_c, 0, 63, 0
2, 65232, Note_on_c, 0, 60, 0
2, 65280, Note_on_c, 0, 62, 64
2, 65280, Note_on_c, 0, 31, 64
2, 65280, Note_on_c, 0, 55, 64
2, 65280, Note_on_c, 0, 59, 64
2, 65472, Note_on_c, 0, 59, 0
2, 65472, Note_on_c, 0, 55, 0
2, 65520, Note_on_c, 0, 50, 64
2, 65712, Note_on_c, 0, 50, 0
2, 65760, Note_on_c, 0, 57, 64
2, 65760, Note_on_c, 0, 38, 64
2, 65760, Note_on_c, 0, 54, 64
2, 65952, Note_on_c, 0, 54, 0
2, 65952, Note_on_c, 0, 57, 0
2, 66000, Note_on_c, 0, 50, 64
2, 66048, Note_on_c, 0, 43, 0
2, 66048, Note_on_c, 0, 31, 0
2, 66048, Note_on_c, 0, 62, 0
2, 66144, Note_on_c, 0, 38, 0
2, 66192, Note_on_c, 0, 50, 0
2, 66240, Note_on_c, 0, 62, 64
2, 66240, Note_on_c, 0, 55, 64
2, 66240, Note_on_c, 0, 59, 64
2, 66240, Note_on_c, 0, 43, 64
2, 66432, Note_on_c, 0, 59, 0
2, 66432, Note_on_c, 0, 55, 0
2, 66480, Note_on_c, 0, 50, 64
2, 66624, Note_on_c, 0, 43, 0
2, 66672, Note_on_c, 0, 50, 0
2, 66720, Note_on_c, 0, 57, 64
2, 66720, Note_on_c, 0, 38, 64
2, 66720, Note_on_c, 0, 54, 64
2, 66912, Note_on_c, 0, 54, 0
2, 66912, Note_on_c, 0, 57, 0
2, 66960, Note_on_c, 0, 50, 64
2, 67008, Note_on_c, 0, 62, 0
2, 67104, Note_on_c, 0, 38, 0
2, 67200, Note_on_c, 0, 62, 64
2, 67200, Note_on_c, 0, 55, 64
2, 67200, Note_on_c, 0, 43, 64
2, 67200, Note_on_c, 0, 59, 64
2, 67296, Note_on_c, 0, 43, 0
2, 67320, Note_on_c, 0, 42, 64
2, 67416, Note_on_c, 0, 42, 0
2, 67440, Note_on_c, 0, 43, 64
2, 67536, Note_on_c, 0, 43, 0
2, 67560, Note_on_c, 0, 42, 64
2, 67656, Note_on_c, 0, 42, 0
2, 67680, Note_on_c, 0, 43, 64
2, 67776, Note_on_c, 0, 43, 0
2, 67800, Note_on_c, 0, 42, 64
2, 67896, Note_on_c, 0, 42, 0
2, 67920, Note_on_c, 0, 43, 64
2, 68016, Note_on_c, 0, 43, 0
2, 68040, Note_on_c, 0, 42, 64
2, 68136, Note_on_c, 0, 42, 0
2, 68160, Note_on_c, 0, 43, 64
2, 68256, Note_on_c, 0, 43, 0
2, 68280, Note_on_c, 0, 42, 64
2, 68376, Note_on_c, 0, 42, 0
2, 68400, Note_on_c, 0, 43, 64
2, 68496, Note_on_c, 0, 43, 0
2, 68520, Note_on_c, 0, 42, 64
2, 68616, Note_on_c, 0, 42, 0
2, 68640, Note_on_c, 0, 43, 64
2, 68736, Note_on_c, 0, 43, 0
2, 68760, Note_on_c, 0, 41, 64
2, 68856, Note_on_c, 0, 41, 0
2, 68880, Note_on_c, 0, 40, 64
2, 68928, Note_on_c, 0, 50, 0
2, 68928, Note_on_c, 0, 59, 0
2, 68928, Note_on_c, 0, 55, 0
2, 68928, Note_on_c, 0, 62, 0
2, 68976, Note_on_c, 0, 40, 0
2, 69000, Note_on_c, 0, 39, 64
2, 69096, Note_on_c, 0, 39, 0
2, 69120, Note_on_c, 0, 50, 72
2, 69120, Note_on_c, 0, 38, 72
2, 69216, Note_on_c, 0, 38, 0
2, 69216, Note_on_c, 0, 50, 0
2, 69240, Note_on_c, 0, 37, 72
2, 69240, Note_on_c, 0, 49, 72
2, 69336, Note_on_c, 0, 49, 0
2, 69336, Note_on_c, 0, 37, 0
2, 69360, Note_on_c, 0, 50, 72
2, 69360, Note_on_c, 0, 38, 72
2, 69456, Note_on_c, 0, 38, 0
2, 69456, Note_on_c, 0, 50, 0
2, 69480, Note_on_c, 0, 39, 72
2, 69480, Note_on_c, 0, 51, 72
2, 69576, Note_on_c, 0, 51, 0
2, 69576, Note_on_c, 0, 39, 0
2, 69600, Note_on_c, 0, 52, 72
2, 69600, Note_on_c, 0, 40, 72
2, 69696, Note_on_c, 0, 40, 0
2, 69696, Note_on_c, 0, 52, 0
2, 69720, Note_on_c, 0, 41, 85
2, 69720, Note_on_c, 0, 53, 85
2, 69816, Note_on_c, 0, 53, 0
2, 69816, Note_on_c, 0, 41, 0
2, 69840, Note_on_c, 0, 42, 94
2, 69840, Note_on_c, 0, 54, 94
2, 69936, Note_on_c, 0, 54, 0
2, 69936, Note_on_c, 0, 42, 0
2, 69960, Note_on_c, 0, 43, 105
2, 69960, Note_on_c, 0, 55, 105
2, 70056, Note_on_c, 0, 55, 0
2, 70056, Note_on_c, 0, 43, 0
2, 70080, Note_on_c, 0, 56, 94
2, 70080, Note_on_c, 0, 44, 94
2, 70176, Note_on_c, 0, 44, 0
2, 70176, Note_on_c, 0, 56, 0
2, 70200, Note_on_c, 0, 43, 94
2, 70200, Note_on_c, 0, 55, 94
2, 70296, Note_on_c, 0, 55, 0
2, 70296, Note_on_c, 0, 43, 0
2, 70320, Note_on_c, 0, 54, 85
2, 70320, Note_on_c, 0, 42, 85
2, 70416, Note_on_c, 0, 42, 0
2, 70416, Note_on_c, 0, 54, 0
2, 70440, Note_on_c, 0, 41, 85
2, 70440, Note_on_c, 0, 53, 85
2, 70536, Note_on_c, 0, 53, 0
2, 70536, Note_on_c, 0, 41, 0
2, 70560, Note_on_c, 0, 52, 85
2, 70560, Note_on_c, 0, 40, 85
2, 70656, Note_on_c, 0, 40, 0
2, 70656, Note_on_c, 0, 52, 0
2, 70680, Note_on_c, 0, 39, 85
2, 70680, Note_on_c, 0, 51, 85
2, 70776, Note_on_c, 0, 51, 0
2, 70776, Note_on_c, 0, 39, 0
2, 70800, Note_on_c, 0, 38, 85
2, 70800, Note_on_c, 0, 50, 85
2, 70896, Note_on_c, 0, 50, 0
2, 70896, Note_on_c, 0, 38, 0
2, 70920, Note_on_c, 0, 37, 85
2, 70920, Note_on_c, 0, 49, 85
2, 71016, Note_on_c, 0, 49, 0
2, 71016, Note_on_c, 0, 37, 0
2, 71040, Note_on_c, 0, 50, 85
2, 71040, Note_on_c, 0, 38, 85
2, 71136, Note_on_c, 0, 38, 0
2, 71136, Note_on_c, 0, 50, 0
2, 71160, Note_on_c, 0, 39, 85
2, 71160, Note_on_c, 0, 51, 85
2, 71256, Note_on_c, 0, 51, 0
2, 71256, Note_on_c, 0, 39, 0
2, 71280, Note_on_c, 0, 52, 85
2, 71280, Note_on_c, 0, 40, 85
2, 71376, Note_on_c, 0, 40, 0
2, 71376, Note_on_c, 0, 52, 0
2, 71400, Note_on_c, 0, 41, 85
2, 71400, Note_on_c, 0, 53, 85
2, 71496, Note_on_c, 0, 53, 0
2, 71496, Note_on_c, 0, 41, 0
2, 71520, Note_on_c, 0, 54, 85
2, 71520, Note_on_c, 0, 42, 85
2, 71616, Note_on_c, 0, 42, 0
2, 71616, Note_on_c, 0, 54, 0
2, 71640, Note_on_c, 0, 43, 85
2, 71640, Note_on_c, 0, 55, 85
2, 71736, Note_on_c, 0, 55, 0
2, 71736, Note_on_c, 0, 43, 0
2, 71760, Note_on_c, 0, 44, 85
2, 71760, Note_on_c, 0, 56, 85
2, 71856, Note_on_c, 0, 56, 0
2, 71856, Note_on_c, 0, 44, 0
2, 71880, Note_on_c, 0, 45, 85
2, 71880, Note_on_c, 0, 57, 85
2, 71976, Note_on_c, 0, 57, 0
2, 71976, Note_on_c, 0, 45, 0
2, 72000, Note_on_c, 0, 46, 94
2, 72000, Note_on_c, 0, 58, 94
2, 72096, Note_on_c, 0, 58, 0
2, 72096, Note_on_c, 0, 46, 0
2, 72120, Note_on_c, 0, 47, 94
2, 72120, Note_on_c, 0, 59, 94
2, 72216, Note_on_c, 0, 59, 0
2, 72216, Note_on_c, 0, 47, 0
2, 72240, Note_on_c, 0, 48, 94
2, 72240, Note_on_c, 0, 60, 94
2, 72336, Note_on_c, 0, 60, 0
2, 72336, Note_on_c, 0, 48, 0
2, 72360, Note_on_c, 0, 49, 94
2, 72360, Note_on_c, 0, 61, 94
2, 72456, Note_on_c, 0, 61, 0
2, 72456, Note_on_c, 0, 49, 0
2, 72480, Note_on_c, 0, 62, 94
2, 72480, Note_on_c, 0, 50, 94
2, 72576, Note_on_c, 0, 50, 0
2, 72576, Note_on_c, 0, 62, 0
2, 72600, Note_on_c, 0, 63, 94
2, 72600, Note_on_c, 0, 51, 94
2, 72696, Note_on_c, 0, 51, 0
2, 72696, Note_on_c, 0, 63, 0
2, 72720, Note_on_c, 0, 64, 105
2, 72720, Note_on_c, 0, 52, 105
2, 72816, Note_on_c, 0, 52, 0
2, 72816, Note_on_c, 0, 64, 0
2, 72840, Note_on_c, 0, 65, 105
2, 72840, Note_on_c, 0, 53, 105
2, 72936, Note_on_c, 0, 53, 0
2, 72936, Note_on_c, 0, 65, 0
2, 72960, Note_on_c, 0, 66, 125
2, 72960, Note_on_c, 0, 54, 125
2, 73056, Note_on_c, 0, 54, 0
2, 73056, Note_on_c, 0, 66, 0
2, 73080, Note_on_c, 0, 65, 105
2, 73080, Note_on_c, 0, 53, 105
2, 73176, Note_on_c, 0, 53, 0
2, 73176, Note_on_c, 0, 65, 0
2, 73200, Note_on_c, 0, 64, 105
2, 73200, Note_on_c, 0, 52, 105
2, 73296, Note_on_c, 0, 52, 0
2, 73296, Note_on_c, 0, 64, 0
2, 73320, Note_on_c, 0, 63, 105
2, 73320, Note_on_c, 0, 51, 105
2, 73416, Note_on_c, 0, 51, 0
2, 73416, Note_on_c, 0, 63, 0
2, 73440, Note_on_c, 0, 64, 125
2, 73440, Note_on_c, 0, 52, 125
2, 73536, Note_on_c, 0, 52, 0
2, 73536, Note_on_c, 0, 64, 0
2, 73560, Note_on_c, 0, 63, 105
2, 73560, Note_on_c, 0, 51, 105
2, 73656, Note_on_c, 0, 51, 0
2, 73656, Note_on_c, 0, 63, 0
2, 73680, Note_on_c, 0, 62, 105
2, 73680, Note_on_c, 0, 50, 105
2, 73776, Note_on_c, 0, 50, 0
2, 73776, Note_on_c, 0, 62, 0
2, 73800, Note_on_c, 0, 61, 105
2, 73800, Note_on_c, 0, 49, 105
2, 73896, Note_on_c, 0, 49, 0
2, 73896, Note_on_c, 0, 61, 0
2, 73920, Note_on_c, 0, 62, 125
2, 73920, Note_on_c, 0, 50, 125
2, 74016, Note_on_c, 0, 50, 0
2, 74016, Note_on_c, 0, 62, 0
2, 74040, Note_on_c, 0, 61, 105
2, 74040, Note_on_c, 0, 49, 105
2, 74136, Note_on_c, 0, 49, 0
2, 74136, Note_on_c, 0, 61, 0
2, 74160, Note_on_c, 0, 60, 94
2, 74160, Note_on_c, 0, 48, 94
2, 74256, Note_on_c, 0, 48, 0
2, 74256, Note_on_c, 0, 60, 0
2, 74280, Note_on_c, 0, 59, 94
2, 74280, Note_on_c, 0, 47, 94
2, 74376, Note_on_c, 0, 47, 0
2, 74376, Note_on_c, 0, 59, 0
2, 74400, Note_on_c, 0, 60, 114
2, 74400, Note_on_c, 0, 48, 114
2, 74496, Note_on_c, 0, 48, 0
2, 74496, Note_on_c, 0, 60, 0
2, 74520, Note_on_c, 0, 59, 94
2, 74520, Note_on_c, 0, 47, 94
2, 74616, Note_on_c, 0, 47, 0
2, 74616, Note_on_c, 0, 59, 0
2, 74640, Note_on_c, 0, 58, 85
2, 74640, Note_on_c, 0, 46, 85
2, 74736, Note_on_c, 0, 46, 0
2, 74736, Note_on_c, 0, 58, 0
2, 74760, Note_on_c, 0, 57, 85
2, 74760, Note_on_c, 0, 45, 85
2, 74856, Note_on_c, 0, 45, 0
2, 74856, Note_on_c, 0, 57, 0
2, 74880, Note_on_c, 0, 46, 92
2, 74880, Note_on_c, 0, 58, 92
2, 74976, Note_on_c, 0, 58, 0
2, 74976, Note_on_c, 0, 46, 0
2, 75000, Note_on_c, 0, 45, 72
2, 75000, Note_on_c, 0, 57, 72
2, 75096, Note_on_c, 0, 57, 0
2, 75096, Note_on_c, 0, 45, 0
2, 75120, Note_on_c, 0, 56, 72
2, 75120, Note_on_c, 0, 44, 72
2, 75216, Note_on_c, 0, 44, 0
2, 75216, Note_on_c, 0, 56, 0
2, 75240, Note_on_c, 0, 43, 72
2, 75240, Note_on_c, 0, 55, 72
2, 75336, Note_on_c, 0, 55, 0
2, 75336, Note_on_c, 0, 43, 0
2, 75360, Note_on_c, 0, 45, 92
2, 75360, Note_on_c, 0, 57, 92
2, 75456, Note_on_c, 0, 57, 0
2, 75456, Note_on_c, 0, 45, 0
2, 75480, Note_on_c, 0, 44, 72
2, 75480, Note_on_c, 0, 56, 72
2, 75576, Note_on_c, 0, 56, 0
2, 75576, Note_on_c, 0, 44, 0
2, 75600, Note_on_c, 0, 43, 72
2, 75600, Note_on_c, 0, 55, 72
2, 75696, Note_on_c, 0, 55, 0
2, 75696, Note_on_c, 0, 43, 0
2, 75720, Note_on_c, 0, 42, 72
2, 75720, Note_on_c, 0, 54, 72
2, 75816, Note_on_c, 0, 54, 0
2, 75816, Note_on_c, 0, 42, 0
2, 75840, Note_on_c, 0, 44, 92
2, 75840, Note_on_c, 0, 56, 92
2, 75936, Note_on_c, 0, 56, 0
2, 75936, Note_on_c, 0, 44, 0
2, 75960, Note_on_c, 0, 43, 72
2, 75960, Note_on_c, 0, 55, 72
2, 76056, Note_on_c, 0, 55, 0
2, 76056, Note_on_c, 0, 43, 0
2, 76080, Note_on_c, 0, 54, 72
2, 76080, Note_on_c, 0, 42, 72
2, 76176, Note_on_c, 0, 42, 0
2, 76176, Note_on_c, 0, 54, 0
2, 76200, Note_on_c, 0, 41, 72
2, 76200, Note_on_c, 0, 53, 72
2, 76296, Note_on_c, 0, 53, 0
2, 76296, Note_on_c, 0, 41, 0
2, 76320, Note_on_c, 0, 43, 92
2, 76320, Note_on_c, 0, 55, 92
2, 76416, Note_on_c, 0, 55, 0
2, 76416, Note_on_c, 0, 43, 0
2, 76440, Note_on_c, 0, 41, 72
2, 76440, Note_on_c, 0, 53, 72
2, 76536, Note_on_c, 0, 53, 0
2, 76536, Note_on_c, 0, 41, 0
2, 76560, Note_on_c, 0, 39, 72
2, 76560, Note_on_c, 0, 51, 72
2, 76656, Note_on_c, 0, 51, 0
2, 76656, Note_on_c, 0, 39, 0
2, 76680, Note_on_c, 0, 38, 72
2, 76680, Note_on_c, 0, 50, 72
2, 76776, Note_on_c, 0, 50, 0
2, 76776, Note_on_c, 0, 38, 0
2, 76800, Note_on_c, 0, 63, 72
2, 76800, Note_on_c, 0, 36, 72
2, 76992, Note_on_c, 0, 36, 0
2, 76992, Note_on_c, 0, 63, 0
2, 77040, Note_on_c, 0, 68, 92
2, 77040, Note_on_c, 0, 56, 92
2, 77040, Note_on_c, 0, 36, 92
2, 77136, Note_on_c, 0, 36, 0
2, 77232, Note_on_c, 0, 56, 0
2, 77232, Note_on_c, 0, 68, 0
2, 77280, Note_on_c, 0, 63, 72
2, 77472, Note_on_c, 0, 63, 0
2, 77520, Note_on_c, 0, 68, 72
2, 77520, Note_on_c, 0, 56, 72
2, 77520, Note_on_c, 0, 48, 72
2, 77712, Note_on_c, 0, 48, 0
2, 77712, Note_on_c, 0, 56, 0
2, 77712, Note_on_c, 0, 68, 0
2, 77760, Note_on_c, 0, 62, 72
2, 77760, Note_on_c, 0, 65, 72
2, 77760, Note_on_c, 0, 48, 72
2, 77952, Note_on_c, 0, 48, 0
2, 77952, Note_on_c, 0, 65, 0
2, 77952, Note_on_c, 0, 62, 0
2, 78000, Note_on_c, 0, 68, 92
2, 78000, Note_on_c, 0, 56, 92
2, 78000, Note_on_c, 0, 48, 92
2, 78096, Note_on_c, 0, 48, 0
2, 78192, Note_on_c, 0, 56, 0
2, 78192, Note_on_c, 0, 68, 0
2, 78240, Note_on_c, 0, 65, 72
2, 78240, Note_on_c, 0, 62, 72
2, 78432, Note_on_c, 0, 62, 0
2, 78432, Note_on_c, 0, 65, 0
2, 78480, Note_on_c, 0, 68, 72
2, 78480, Note_on_c, 0, 56, 72
2, 78480, Note_on_c, 0, 48, 72
2, 78672, Note_on_c, 0, 48, 0
2, 78672, Note_on_c, 0, 56, 0
2, 78672, Note_on_c, 0, 68, 0
2, 78720, Note_on_c, 0, 63, 72
2, 78720, Note_on_c, 0, 36, 72
2, 78912, Note_on_c, 0, 36, 0
2, 78912, Note_on_c, 0, 63, 0
2, 78960, Note_on_c, 0, 68, 92
2, 78960, Note_on_c, 0, 56, 92
2, 78960, Note_on_c, 0, 36, 92
2, 79056, Note_on_c, 0, 36, 0
2, 79152, Note_on_c, 0, 56, 0
2, 79152, Note_on_c, 0, 68, 0
2, 79200, Note_on_c, 0, 63, 72
2, 79392, Note_on_c, 0, 63, 0
2, 79440, Note_on_c, 0, 68, 72
2, 79440, Note_on_c, 0, 56, 72
2, 79440, Note_on_c, 0, 48, 72
2, 79632, Note_on_c, 0, 48, 0
2, 79632, Note_on_c, 0, 56, 0
2, 79632, Note_on_c, 0, 68, 0
2, 79680, Note_on_c, 0, 62, 72
2, 79680, Note_on_c, 0, 65, 72
2, 79680, Note_on_c, 0, 48, 72
2, 79872, Note_on_c, 0, 48, 0
2, 79872, Note_on_c, 0, 65, 0
2, 79872, Note_on_c, 0, 62, 0
2, 79920, Note_on_c, 0, 68, 92
2, 79920, Note_on_c, 0, 56, 92
2, 79920, Note_on_c, 0, 48, 72
2, 80016, Note_on_c, 0, 48, 0
2, 80112, Note_on_c, 0, 56, 0
2, 80112, Note_on_c, 0, 68, 0
2, 80160, Note_on_c, 0, 62, 72
2, 80160, Note_on_c, 0, 65, 72
2, 80352, Note_on_c, 0, 65, 0
2, 80352, Note_on_c, 0, 62, 0
2, 80400, Note_on_c, 0, 56, 72
2, 80400, Note_on_c, 0, 68, 72
2, 80400, Note_on_c, 0, 36, 72
2, 80592, Note_on_c, 0, 36, 0
2, 80592, Note_on_c, 0, 68, 0
2, 80592, Note_on_c, 0, 56, 0
2, 80640, Note_on_c, 0, 62, 105
2, 80640, Note_on_c, 0, 67, 105
2, 80640, Note_on_c, 0, 65, 105
2, 80640, Note_on_c, 0, 55, 105
2, 80640, Note_on_c, 0, 35, 105
2, 80640, Note_on_c, 0, 47, 105
2, 80832, Note_on_c, 0, 47, 0
2, 80832, Note_on_c, 0, 35, 0
2, 80832, Note_on_c, 0, 55, 0
2, 80832, Note_on_c, 0, 65, 0
2, 80832, Note_on_c, 0, 67, 0
2, 80832, Note_on_c, 0, 62, 0
2, 81120, Note_on_c, 0, 46, 72
2, 81360, Note_on_c, 0, 60, 72
2, 81360, Note_on_c, 0, 72, 72
2, 81360, Note_on_c, 0, 64, 72
2, 81360, Note_on_c, 0, 67, 72
2, 81504, Note_on_c, 0, 46, 0
2, 81552, Note_on_c, 0, 67, 0
2, 81552, Note_on_c, 0, 64, 0
2, 81552, Note_on_c, 0, 72, 0
2, 81552, Note_on_c, 0, 60, 0
2, 81600, Note_on_c, 0, 45, 72
2, 81840, Note_on_c, 0, 60, 72
2, 81840, Note_on_c, 0, 65, 72
2, 81840, Note_on_c, 0, 72, 72
2, 81984, Note_on_c, 0, 45, 0
2, 82032, Note_on_c, 0, 72, 0
2, 82032, Note_on_c, 0, 65, 0
2, 82032, Note_on_c, 0, 60, 0
2, 82080, Note_on_c, 0, 44, 72
2, 82320, Note_on_c, 0, 63, 72
2, 82320, Note_on_c, 0, 60, 72
2, 82320, Note_on_c, 0, 66, 72
2, 82464, Note_on_c, 0, 44, 0
2, 82512, Note_on_c, 0, 66, 0
2, 82512, Note_on_c, 0, 60, 0
2, 82512, Note_on_c, 0, 63, 0
2, 82560, Note_on_c, 0, 43, 72
2, 82800, Note_on_c, 0, 67, 72
2, 82800, Note_on_c, 0, 63, 72
2, 82800, Note_on_c, 0, 60, 72
2, 82992, Note_on_c, 0, 60, 0
2, 82992, Note_on_c, 0, 63, 0
2, 82992, Note_on_c, 0, 67, 0
2, 83040, Note_on_c, 0, 55, 85
2, 83280, Note_on_c, 0, 65, 85
2, 83280, Note_on_c, 0, 62, 85
2, 83280, Note_on_c, 0, 59, 85
2, 83424, Note_on_c, 0, 55, 0
2, 83424, Note_on_c, 0, 43, 0
2, 83472, Note_on_c, 0, 59, 0
2, 83472, Note_on_c, 0, 62, 0
2, 83472, Note_on_c, 0, 65, 0
2, 83520, Note_on_c, 0, 56, 85
2, 83760, Note_on_c, 0, 65, 94
2, 83760, Note_on_c, 0, 60, 94
2, 83904, Note_on_c, 0, 56, 0
2, 83952, Note_on_c, 0, 60, 0
2, 83952, Note_on_c, 0, 65, 0
2, 84000, Note_on_c, 0, 44, 94
2, 84240, Note_on_c, 0, 63, 105
2, 84240, Note_on_c, 0, 60, 105
2, 84384, Note_on_c, 0, 44, 0
2, 84432, Note_on_c, 0, 60, 0
2, 84432, Note_on_c, 0, 63, 0
2, 84480, Note_on_c, 0, 62, 105
2, 84480, Note_on_c, 0, 65, 105
2, 84480, Note_on_c, 0, 67, 105
2, 84480, Note_on_c, 0, 47, 105
2, 84480, Note_on_c, 0, 55, 105
2, 84672, Note_on_c, 0, 55, 0
2, 84672, Note_on_c, 0, 47, 0
2, 84672, Note_on_c, 0, 67, 0
2, 84672, Note_on_c, 0, 65, 0
2, 84672, Note_on_c, 0, 62, 0
2, 84960, Note_on_c, 0, 46, 85
2, 85200, Note_on_c, 0, 60, 85
2, 85200, Note_on_c, 0, 64, 85
2, 85200, Note_on_c, 0, 67, 85
2, 85344, Note_on_c, 0, 46, 0
2, 85392, Note_on_c, 0, 67, 0
2, 85392, Note_on_c, 0, 64, 0
2, 85392, Note_on_c, 0, 60, 0
2, 85440, Note_on_c, 0, 45, 85
2, 85680, Note_on_c, 0, 60, 85
2, 85680, Note_on_c, 0, 72, 85
2, 85680, Note_on_c, 0, 65, 94
2, 85824, Note_on_c, 0, 45, 0
2, 85872, Note_on_c, 0, 65, 0
2, 85872, Note_on_c, 0, 72, 0
2, 85872, Note_on_c, 0, 60, 0
2, 85920, Note_on_c, 0, 44, 94
2, 86832, Note_on_c, 0, 44, 0
2, 87120, Note_on_c, 0, 66, 94
2, 87120, Note_on_c, 0, 72, 105
2, 87120, Note_on_c, 0, 75, 105
2, 87120, Note_on_c, 0, 63, 105
2, 87312, Note_on_c, 0, 63, 0
2, 87312, Note_on_c, 0, 75, 0
2, 87312, Note_on_c, 0, 72, 0
2, 87312, Note_on_c, 0, 66, 0
2, 87360, Note_on_c, 0, 72, 64
2, 87360, Note_on_c, 0, 63, 64
2, 87360, Note_on_c, 0, 75, 64
2, 87360, Note_on_c, 0, 67, 64
2, 87360, Note_on_c, 0, 43, 64
2, 87552, Note_on_c, 0, 67, 0
2, 87552, Note_on_c, 0, 75, 0
2, 87552, Note_on_c, 0, 63, 0
2, 87552, Note_on_c, 0, 72, 0
2, 87600, Note_on_c, 0, 67, 64
2, 87600, Note_on_c, 0, 63, 64
2, 87792, Note_on_c, 0, 63, 0
2, 87792, Note_on_c, 0, 67, 0
2, 87840, Note_on_c, 0, 65, 64
2, 87840, Note_on_c, 0, 62, 64
2, 88032, Note_on_c, 0, 62, 0
2, 88032, Note_on_c, 0, 65, 0
2, 88080, Note_on_c, 0, 60, 64
2, 88080, Note_on_c, 0, 63, 64
2, 88272, Note_on_c, 0, 63, 0
2, 88272, Note_on_c, 0, 60, 0
2, 88320, Note_on_c, 0, 62, 64
2, 88320, Note_on_c, 0, 31, 64
2, 88320, Note_on_c, 0, 55, 64
2, 88320, Note_on_c, 0, 59, 64
2, 88512, Note_on_c, 0, 59, 0
2, 88512, Note_on_c, 0, 55, 0
2, 88560, Note_on_c, 0, 50, 64
2, 88752, Note_on_c, 0, 50, 0
2, 88800, Note_on_c, 0, 57, 64
2, 88800, Note_on_c, 0, 38, 64
2, 88800, Note_on_c, 0, 54, 64
2, 88992, Note_on_c, 0, 54, 0
2, 88992, Note_on_c, 0, 57, 0
2, 89040, Note_on_c, 0, 50, 64
2, 89088, Note_on_c, 0, 31, 0
2, 89088, Note_on_c, 0, 62, 0
2, 89088, Note_on_c, 0, 43, 0
2, 89184, Note_on_c, 0, 38, 0
2, 89232, Note_on_c, 0, 50, 0
2, 89280, Note_on_c, 0, 62, 64
2, 89280, Note_on_c, 0, 55, 64
2, 89280, Note_on_c, 0, 59, 64
2, 89280, Note_on_c, 0, 43, 64
2, 89472, Note_on_c, 0, 59, 0
2, 89472, Note_on_c, 0, 55, 0
2, 89520, Note_on_c, 0, 50, 64
2, 89664, Note_on_c, 0, 43, 0
2, 89712, Note_on_c, 0, 50, 0
2, 89760, Note_on_c, 0, 57, 64
2, 89760, Note_on_c, 0, 38, 64
2, 89760, Note_on_c, 0, 54, 64
2, 89952, Note_on_c, 0, 54, 0
2, 89952, Note_on_c, 0, 57, 0
2, 90000, Note_on_c, 0, 50, 64
2, 90048, Note_on_c, 0, 62, 0
2, 90144, Note_on_c, 0, 38, 0
2, 90240, Note_on_c, 0, 62, 64
2, 90240, Note_on_c, 0, 55, 64
2, 90240, Note_on_c, 0, 43, 64
2, 90240, Note_on_c, 0, 59, 64
2, 90336, Note_on_c, 0, 43, 0
2, 90360, Note_on_c, 0, 42, 64
2, 90456, Note_on_c, 0, 42, 0
2, 90480, Note_on_c, 0, 43, 64
2, 90576, Note_on_c, 0, 43, 0
2, 90600, Note_on_c, 0, 42, 64
2, 90696, Note_on_c, 0, 42, 0
2, 90720, Note_on_c, 0, 43, 64
2, 90816, Note_on_c, 0, 43, 0
2, 90840, Note_on_c, 0, 42, 64
2, 90936, Note_on_c, 0, 42, 0
2, 90960, Note_on_c, 0, 43, 64
2, 91056, Note_on_c, 0, 43, 0
2, 91080, Note_on_c, 0, 42, 64
2, 91176, Note_on_c, 0, 42, 0
2, 91200, Note_on_c, 0, 43, 64
2, 91296, Note_on_c, 0, 43, 0
2, 91320, Note_on_c, 0, 42, 64
2, 91416, Note_on_c, 0, 42, 0
2, 91440, Note_on_c, 0, 43, 64
2, 91536, Note_on_c, 0, 43, 0
2, 91560, Note_on_c, 0, 42, 64
2, 91656, Note_on_c, 0, 42, 0
2, 91680, Note_on_c, 0, 43, 64
2, 91776, Note_on_c, 0, 43, 0
2, 91800, Note_on_c, 0, 41, 64
2, 91896, Note_on_c, 0, 41, 0
2, 91920, Note_on_c, 0, 40, 64
2, 91968, Note_on_c, 0, 59, 0
2, 91968, Note_on_c, 0, 55, 0
2, 91968, Note_on_c, 0, 62, 0
2, 91968, Note_on_c, 0, 50, 0
2, 92016, Note_on_c, 0, 40, 0
2, 92040, Note_on_c, 0, 39, 64
2, 92136, Note_on_c, 0, 39, 0
2, 92160, Note_on_c, 0, 50, 72
2, 92160, Note_on_c, 0, 38, 72
2, 92256, Note_on_c, 0, 38, 0
2, 92256, Note_on_c, 0, 50, 0
2, 92280, Note_on_c, 0, 37, 72
2, 92280, Note_on_c, 0, 49, 72
2, 92376, Note_on_c, 0, 49, 0
2, 92376, Note_on_c, 0, 37, 0
2, 92400, Note_on_c, 0, 50, 72
2, 92400, Note_on_c, 0, 38, 72
2, 92496, Note_on_c, 0, 38, 0
2, 92496, Note_on_c, 0, 50, 0
2, 92520, Note_on_c, 0, 39, 72
2, 92520, Note_on_c, 0, 51, 72
2, 92616, Note_on_c, 0, 51, 0
2, 92616, Note_on_c, 0, 39, 0
2, 92640, Note_on_c, 0, 52, 72
2, 92640, Note_on_c, 0, 40, 72
2, 92736, Note_on_c, 0, 40, 0
2, 92736, Note_on_c, 0, 52, 0
2, 92760, Note_on_c, 0, 41, 85
2, 92760, Note_on_c, 0, 53, 85
2, 92856, Note_on_c, 0, 53, 0
2, 92856, Note_on_c, 0, 41, 0
2, 92880, Note_on_c, 0, 42, 94
2, 92880, Note_on_c, 0, 54, 94
2, 92976, Note_on_c, 0, 54, 0
2, 92976, Note_on_c, 0, 42, 0
2, 93000, Note_on_c, 0, 43, 105
2, 93000, Note_on_c, 0, 55, 105
2, 93096, Note_on_c, 0, 55, 0
2, 93096, Note_on_c, 0, 43, 0
2, 93120, Note_on_c, 0, 56, 94
2, 93120, Note_on_c, 0, 44, 94
2, 93216, Note_on_c, 0, 44, 0
2, 93216, Note_on_c, 0, 56, 0
2, 93240, Note_on_c, 0, 43, 94
2, 93240, Note_on_c, 0, 55, 94
2, 93336, Note_on_c, 0, 55, 0
2, 93336, Note_on_c, 0, 43, 0
2, 93360, Note_on_c, 0, 54, 85
2, 93360, Note_on_c, 0, 42, 85
2, 93456, Note_on_c, 0, 42, 0
2, 93456, Note_on_c, 0, 54, 0
2, 93480, Note_on_c, 0, 41, 85
2, 93480, Note_on_c, 0, 53, 85
2, 93576, Note_on_c, 0, 53, 0
2, 93576, Note_on_c, 0, 41, 0
2, 93600, Note_on_c, 0, 52, 85
2, 93600, Note_on_c, 0, 40, 85
2, 93696, Note_on_c, 0, 40, 0
2, 93696, Note_on_c, 0, 52, 0
2, 93720, Note_on_c, 0, 39, 85
2, 93720, Note_on_c, 0, 51, 85
2, 93816, Note_on_c, 0, 51, 0
2, 93816, Note_on_c, 0, 39, 0
2, 93840, Note_on_c, 0, 38, 85
2, 93840, Note_on_c, 0, 50, 85
2, 93936, Note_on_c, 0, 50, 0
2, 93936, Note_on_c, 0, 38, 0
2, 93960, Note_on_c, 0, 37, 85
2, 93960, Note_on_c, 0, 49, 85
2, 94056, Note_on_c, 0, 49, 0
2, 94056, Note_on_c, 0, 37, 0
2, 94080, Note_on_c, 0, 50, 85
2, 94080, Note_on_c, 0, 38, 85
2, 94176, Note_on_c, 0, 38, 0
2, 94176, Note_on_c, 0, 50, 0
2, 94200, Note_on_c, 0, 39, 85
2, 94200, Note_on_c, 0, 51, 85
2, 94296, Note_on_c, 0, 51, 0
2, 94296, Note_on_c, 0, 39, 0
2, 94320, Note_on_c, 0, 52, 85
2, 94320, Note_on_c, 0, 40, 85
2, 94416, Note_on_c, 0, 40, 0
2, 94416, Note_on_c, 0, 52, 0
2, 94440, Note_on_c, 0, 41, 85
2, 94440, Note_on_c, 0, 53, 85
2, 94536, Note_on_c, 0, 53, 0
2, 94536, Note_on_c, 0, 41, 0
2, 94560, Note_on_c, 0, 54, 85
2, 94560, Note_on_c, 0, 42, 85
2, 94656, Note_on_c, 0, 42, 0
2, 94656, Note_on_c, 0, 54, 0
2, 94680, Note_on_c, 0, 43, 85
2, 94680, Note_on_c, 0, 55, 85
2, 94776, Note_on_c, 0, 55, 0
2, 94776, Note_on_c, 0, 43, 0
2, 94800, Note_on_c, 0, 44, 85
2, 94800, Note_on_c, 0, 56, 85
2, 94896, Note_on_c, 0, 56, 0
2, 94896, Note_on_c, 0, 44, 0
2, 94920, Note_on_c, 0, 45, 85
2, 94920, Note_on_c, 0, 57, 85
2, 95016, Note_on_c, 0, 57, 0
2, 95016, Note_on_c, 0, 45, 0
2, 95040, Note_on_c, 0, 46, 94
2, 95040, Note_on_c, 0, 58, 94
2, 95136, Note_on_c, 0, 58, 0
2, 95136, Note_on_c, 0, 46, 0
2, 95160, Note_on_c, 0, 47, 94
2, 95160, Note_on_c, 0, 59, 94
2, 95256, Note_on_c, 0, 59, 0
2, 95256, Note_on_c, 0, 47, 0
2, 95280, Note_on_c, 0, 48, 94
2, 95280, Note_on_c, 0, 60, 94
2, 95376, Note_on_c, 0, 60, 0
2, 95376, Note_on_c, 0, 48, 0
2, 95400, Note_on_c, 0, 49, 94
2, 95400, Note_on_c, 0, 61, 94
2, 95496, Note_on_c, 0, 61, 0
2, 95496, Note_on_c, 0, 49, 0
2, 95520, Note_on_c, 0, 62, 94
2, 95520, Note_on_c, 0, 50, 94
2, 95616, Note_on_c, 0, 50, 0
2, 95616, Note_on_c, 0, 62, 0
2, 95640, Note_on_c, 0, 63, 94
2, 95640, Note_on_c, 0, 51, 94
2, 95736, Note_on_c, 0, 51, 0
2, 95736, Note_on_c, 0, 63, 0
2, 95760, Note_on_c, 0, 64, 105
2, 95760, Note_on_c, 0, 52, 105
2, 95856, Note_on_c, 0, 52, 0
2, 95856, Note_on_c, 0, 64, 0
2, 95880, Note_on_c, 0, 65, 105
2, 95880, Note_on_c, 0, 53, 105
2, 95976, Note_on_c, 0, 53, 0
2, 95976, Note_on_c, 0, 65, 0
2, 96000, Note_on_c, 0, 66, 125
2, 96000, Note_on_c, 0, 54, 125
2, 96096, Note_on_c, 0, 54, 0
2, 96096, Note_on_c, 0, 66, 0
2, 96120, Note_on_c, 0, 65, 105
2, 96120, Note_on_c, 0, 53, 105
2, 96216, Note_on_c, 0, 53, 0
2, 96216, Note_on_c, 0, 65, 0
2, 96240, Note_on_c, 0, 64, 105
2, 96240, Note_on_c, 0, 52, 105
2, 96336, Note_on_c, 0, 52, 0
2, 96336, Note_on_c, 0, 64, 0
2, 96360, Note_on_c, 0, 63, 105
2, 96360, Note_on_c, 0, 51, 105
2, 96456, Note_on_c, 0, 51, 0
2, 96456, Note_on_c, 0, 63, 0
2, 96480, Note_on_c, 0, 64, 125
2, 96480, Note_on_c, 0, 52, 125
2, 96576, Note_on_c, 0, 52, 0
2, 96576, Note_on_c, 0, 64, 0
2, 96600, Note_on_c, 0, 63, 105
2, 96600, Note_on_c, 0, 51, 105
2, 96696, Note_on_c, 0, 51, 0
2, 96696, Note_on_c, 0, 63, 0
2, 96720, Note_on_c, 0, 62, 105
2, 96720, Note_on_c, 0, 50, 105
2, 96816, Note_on_c, 0, 50, 0
2, 96816, Note_on_c, 0, 62, 0
2, 96840, Note_on_c, 0, 61, 105
2, 96840, Note_on_c, 0, 49, 105
2, 96936, Note_on_c, 0, 49, 0
2, 96936, Note_on_c, 0, 61, 0
2, 96960, Note_on_c, 0, 62, 125
2, 96960, Note_on_c, 0, 50, 125
2, 97056, Note_on_c, 0, 50, 0
2, 97056, Note_on_c, 0, 62, 0
2, 97080, Note_on_c, 0, 61, 105
2, 97080, Note_on_c, 0, 49, 105
2, 97176, Note_on_c, 0, 49, 0
2, 97176, Note_on_c, 0, 61, 0
2, 97200, Note_on_c, 0, 60, 94
2, 97200, Note_on_c, 0, 48, 94
2, 97296, Note_on_c, 0, 48, 0
2, 97296, Note_on_c, 0, 60, 0
2, 97320, Note_on_c, 0, 59, 94
2, 97320, Note_on_c, 0, 47, 94
2, 97416, Note_on_c, 0, 47, 0
2, 97416, Note_on_c, 0, 59, 0
2, 97440, Note_on_c, 0, 60, 114
2, 97440, Note_on_c, 0, 48, 114
2, 97536, Note_on_c, 0, 48, 0
2, 97536, Note_on_c, 0, 60, 0
2, 97560, Note_on_c, 0, 59, 94
2, 97560, Note_on_c, 0, 47, 94
2, 97656, Note_on_c, 0, 47, 0
2, 97656, Note_on_c, 0, 59, 0
2, 97680, Note_on_c, 0, 58, 85
2, 97680, Note_on_c, 0, 46, 85
2, 97776, Note_on_c, 0, 46, 0
2, 97776, Note_on_c, 0, 58, 0
2, 97800, Note_on_c, 0, 57, 85
2, 97800, Note_on_c, 0, 45, 85
2, 97896, Note_on_c, 0, 45, 0
2, 97896, Note_on_c, 0, 57, 0
2, 97920, Note_on_c, 0, 46, 92
2, 97920, Note_on_c, 0, 58, 92
2, 98016, Note_on_c, 0, 58, 0
2, 98016, Note_on_c, 0, 46, 0
2, 98040, Note_on_c, 0, 45, 72
2, 98040, Note_on_c, 0, 57, 72
2, 98136, Note_on_c, 0, 57, 0
2, 98136, Note_on_c, 0, 45, 0
2, 98160, Note_on_c, 0, 56, 72
2, 98160, Note_on_c, 0, 44, 72
2, 98256, Note_on_c, 0, 44, 0
2, 98256, Note_on_c, 0, 56, 0
2, 98280, Note_on_c, 0, 43, 72
2, 98280, Note_on_c, 0, 55, 72
2, 98376, Note_on_c, 0, 55, 0
2, 98376, Note_on_c, 0, 43, 0
2, 98400, Note_on_c, 0, 45, 92
2, 98400, Note_on_c, 0, 57, 92
2, 98496, Note_on_c, 0, 57, 0
2, 98496, Note_on_c, 0, 45, 0
2, 98520, Note_on_c, 0, 44, 72
2, 98520, Note_on_c, 0, 56, 72
2, 98616, Note_on_c, 0, 56, 0
2, 98616, Note_on_c, 0, 44, 0
2, 98640, Note_on_c, 0, 43, 72
2, 98640, Note_on_c, 0, 55, 72
2, 98736, Note_on_c, 0, 55, 0
2, 98736, Note_on_c, 0, 43, 0
2, 98760, Note_on_c, 0, 42, 72
2, 98760, Note_on_c, 0, 54, 72
2, 98856, Note_on_c, 0, 54, 0
2, 98856, Note_on_c, 0, 42, 0
2, 98880, Note_on_c, 0, 44, 92
2, 98880, Note_on_c, 0, 56, 92
2, 98976, Note_on_c, 0, 56, 0
2, 98976, Note_on_c, 0, 44, 0
2, 99000, Note_on_c, 0, 43, 72
2, 99000, Note_on_c, 0, 55, 72
2, 99096, Note_on_c, 0, 55, 0
2, 99096, Note_on_c, 0, 43, 0
2, 99120, Note_on_c, 0, 54, 72
2, 99120, Note_on_c, 0, 42, 72
2, 99216, Note_on_c, 0, 42, 0
2, 99216, Note_on_c, 0, 54, 0
2, 99240, Note_on_c, 0, 41, 72
2, 99240, Note_on_c, 0, 53, 72
2, 99336, Note_on_c, 0, 53, 0
2, 99336, Note_on_c, 0, 41, 0
2, 99360, Note_on_c, 0, 43, 92
2, 99360, Note_on_c, 0, 55, 92
2, 99456, Note_on_c, 0, 55, 0
2, 99456, Note_on_c, 0, 43, 0
2, 99480, Note_on_c, 0, 41, 72
2, 99480, Note_on_c, 0, 53, 72
2, 99576, Note_on_c, 0, 53, 0
2, 99576, Note_on_c, 0, 41, 0
2, 99600, Note_on_c, 0, 39, 72
2, 99600, Note_on_c, 0, 51, 72
2, 99696, Note_on_c, 0, 51, 0
2, 99696, Note_on_c, 0, 39, 0
2, 99720, Note_on_c, 0, 38, 72
2, 99720, Note_on_c, 0, 50, 72
2, 99816, Note_on_c, 0, 50, 0
2, 99816, Note_on_c, 0, 38, 0
2, 99840, Note_on_c, 0, 63, 72
2, 99840, Note_on_c, 0, 36, 72
2, 100032, Note_on_c, 0, 36, 0
2, 100032, Note_on_c, 0, 63, 0
2, 100080, Note_on_c, 0, 68, 92
2, 100080, Note_on_c, 0, 56, 92
2, 100080, Note_on_c, 0, 36, 92
2, 100176, Note_on_c, 0, 36, 0
2, 100272, Note_on_c, 0, 56, 0
2, 100272, Note_on_c, 0, 68, 0
2, 100320, Note_on_c, 0, 63, 72
2, 100512, Note_on_c, 0, 63, 0
2, 100560, Note_on_c, 0, 68, 72
2, 100560, Note_on_c, 0, 56, 72
2, 100560, Note_on_c, 0, 48, 72
2, 100752, Note_on_c, 0, 48, 0
2, 100752, Note_on_c, 0, 56, 0
2, 100752, Note_on_c, 0, 68, 0
2, 100800, Note_on_c, 0, 62, 72
2, 100800, Note_on_c, 0, 65, 72
2, 100800, Note_on_c, 0, 48, 72
2, 100992, Note_on_c, 0, 48, 0
2, 100992, Note_on_c, 0, 65, 0
2, 100992, Note_on_c, 0, 62, 0
2, 101040, Note_on_c, 0, 68, 92
2, 101040, Note_on_c, 0, 56, 92
2, 101040, Note_on_c, 0, 48, 92
2, 101136, Note_on_c, 0, 48, 0
2, 101232, Note_on_c, 0, 56, 0
2, 101232, Note_on_c, 0, 68, 0
2, 101280, Note_on_c, 0, 65, 72
2, 101280, Note_on_c, 0, 62, 72
2, 101472, Note_on_c, 0, 62, 0
2, 101472, Note_on_c, 0, 65, 0
2, 101520, Note_on_c, 0, 68, 72
2, 101520, Note_on_c, 0, 56, 72
2, 101520, Note_on_c, 0, 48, 72
2, 101712, Note_on_c, 0, 48, 0
2, 101712, Note_on_c, 0, 56, 0
2, 101712, Note_on_c, 0, 68, 0
2, 101760, Note_on_c, 0, 63, 72
2, 101760, Note_on_c, 0, 36, 72
2, 101952, Note_on_c, 0, 36, 0
2, 101952, Note_on_c, 0, 63, 0
2, 102000, Note_on_c, 0, 68, 92
2, 102000, Note_on_c, 0, 56, 92
2, 102000, Note_on_c, 0, 36, 72
2, 102096, Note_on_c, 0, 36, 0
2, 102192, Note_on_c, 0, 56, 0
2, 102192, Note_on_c, 0, 68, 0
2, 102240, Note_on_c, 0, 63, 72
2, 102432, Note_on_c, 0, 63, 0
2, 102480, Note_on_c, 0, 68, 72
2, 102480, Note_on_c, 0, 56, 72
2, 102480, Note_on_c, 0, 48, 72
2, 102672, Note_on_c, 0, 48, 0
2, 102672, Note_on_c, 0, 56, 0
2, 102672, Note_on_c, 0, 68, 0
2, 102720, Note_on_c, 0, 62, 72
2, 102720, Note_on_c, 0, 65, 72
2, 102720, Note_on_c, 0, 48, 72
2, 102912, Note_on_c, 0, 48, 0
2, 102912, Note_on_c, 0, 65, 0
2, 102912, Note_on_c, 0, 62, 0
2, 102960, Note_on_c, 0, 68, 92
2, 102960, Note_on_c, 0, 56, 92
2, 102960, Note_on_c, 0, 48, 92
2, 103056, Note_on_c, 0, 48, 0
2, 103152, Note_on_c, 0, 56, 0
2, 103152, Note_on_c, 0, 68, 0
2, 103200, Note_on_c, 0, 62, 72
2, 103200, Note_on_c, 0, 65, 72
2, 103392, Note_on_c, 0, 65, 0
2, 103392, Note_on_c, 0, 62, 0
2, 103440, Note_on_c, 0, 56, 72
2, 103440, Note_on_c, 0, 68, 72
2, 103440, Note_on_c, 0, 36, 72
2, 103632, Note_on_c, 0, 36, 0
2, 103632, Note_on_c, 0, 68, 0
2, 103632, Note_on_c, 0, 56, 0
2, 103680, Note_on_c, 0, 62, 105
2, 103680, Note_on_c, 0, 67, 105
2, 103680, Note_on_c, 0, 65, 105
2, 103680, Note_on_c, 0, 55, 105
2, 103680, Note_on_c, 0, 35, 105
2, 103680, Note_on_c, 0, 47, 105
2, 103872, Note_on_c, 0, 47, 0
2, 103872, Note_on_c, 0, 35, 0
2, 103872, Note_on_c, 0, 55, 0
2, 103872, Note_on_c, 0, 65, 0
2, 103872, Note_on_c, 0, 67, 0
2, 103872, Note_on_c, 0, 62, 0
2, 104160, Note_on_c, 0, 46, 72
2, 104400, Note_on_c, 0, 60, 72
2, 104400, Note_on_c, 0, 72, 72
2, 104400, Note_on_c, 0, 64, 72
2, 104400, Note_on_c, 0, 67, 72
2, 104544, Note_on_c, 0, 46, 0
2, 104592, Note_on_c, 0, 67, 0
2, 104592, Note_on_c, 0, 64, 0
2, 104592, Note_on_c, 0, 72, 0
2, 104592, Note_on_c, 0, 60, 0
2, 104640, Note_on_c, 0, 45, 72
2, 104880, Note_on_c, 0, 60, 72
2, 104880, Note_on_c, 0, 65, 72
2, 104880, Note_on_c, 0, 72, 72
2, 105024, Note_on_c, 0, 45, 0
2, 105072, Note_on_c, 0, 72, 0
2, 105072, Note_on_c, 0, 65, 0
2, 105072, Note_on_c, 0, 60, 0
2, 105120, Note_on_c, 0, 44, 72
2, 105360, Note_on_c, 0, 63, 72
2, 105360, Note_on_c, 0, 60, 72
2, 105360, Note_on_c, 0, 66, 72
2, 105504, Note_on_c, 0, 44, 0
2, 105552, Note_on_c, 0, 66, 0
2, 105552, Note_on_c, 0, 60, 0
2, 105552, Note_on_c, 0, 63, 0
2, 105600, Note_on_c, 0, 43, 72
2, 105840, Note_on_c, 0, 67, 85
2, 105840, Note_on_c, 0, 63, 85
2, 105840, Note_on_c, 0, 60, 85
2, 106032, Note_on_c, 0, 60, 0
2, 106032, Note_on_c, 0, 63, 0
2, 106032, Note_on_c, 0, 67, 0
2, 106080, Note_on_c, 0, 55, 94
2, 106320, Note_on_c, 0, 65, 105
2, 106320, Note_on_c, 0, 62, 105
2, 106320, Note_on_c, 0, 59, 105
2, 106464, Note_on_c, 0, 55, 0
2, 106464, Note_on_c, 0, 43, 0
2, 106512, Note_on_c, 0, 59, 0
2, 106512, Note_on_c, 0, 62, 0
2, 106512, Note_on_c, 0, 65, 0
2, 106560, Note_on_c, 0, 56, 72
2, 106800, Note_on_c, 0, 65, 85
2, 106800, Note_on_c, 0, 60, 85
2, 106944, Note_on_c, 0, 56, 0
2, 106992, Note_on_c, 0, 60, 0
2, 106992, Note_on_c, 0, 65, 0
2, 107040, Note_on_c, 0, 44, 94
2, 107280, Note_on_c, 0, 63, 105
2, 107280, Note_on_c, 0, 60, 105
2, 107424, Note_on_c, 0, 44, 0
2, 107472, Note_on_c, 0, 60, 0
2, 107472, Note_on_c, 0, 63, 0
2, 107520, Note_on_c, 0, 62, 105
2, 107520, Note_on_c, 0, 65, 105
2, 107520, Note_on_c, 0, 67, 105
2, 107520, Note_on_c, 0, 47, 105
2, 107520, Note_on_c, 0, 55, 105
2, 107712, Note_on_c, 0, 55, 0
2, 107712, Note_on_c, 0, 47, 0
2, 107712, Note_on_c, 0, 67, 0
2, 107712, Note_on_c, 0, 65, 0
2, 107712, Note_on_c, 0, 62, 0
2, 108000, Note_on_c, 0, 46, 72
2, 108240, Note_on_c, 0, 60, 72
2, 108240, Note_on_c, 0, 64, 72
2, 108240, Note_on_c, 0, 67, 72
2, 108384, Note_on_c, 0, 46, 0
2, 108432, Note_on_c, 0, 67, 0
2, 108432, Note_on_c, 0, 64, 0
2, 108432, Note_on_c, 0, 60, 0
2, 108480, Note_on_c, 0, 45, 72
2, 108720, Note_on_c, 0, 65, 94
2, 108720, Note_on_c, 0, 72, 94
2, 108720, Note_on_c, 0, 60, 94
2, 108864, Note_on_c, 0, 45, 0
2, 108912, Note_on_c, 0, 60, 0
2, 108912, Note_on_c, 0, 72, 0
2, 108912, Note_on_c, 0, 65, 0
2, 108960, Note_on_c, 0, 44, 94
2, 109872, Note_on_c, 0, 44, 0
2, 110160, Note_on_c, 0, 66, 105
2, 110160, Note_on_c, 0, 72, 105
2, 110160, Note_on_c, 0, 75, 105
2, 110160, Note_on_c, 0, 63, 105
2, 110352, Note_on_c, 0, 63, 0
2, 110352, Note_on_c, 0, 75, 0
2, 110352, Note_on_c, 0, 72, 0
2, 110352, Note_on_c, 0, 66, 0
2, 110400, Note_on_c, 0, 72, 64
2, 110400, Note_on_c, 0, 63, 64
2, 110400, Note_on_c, 0, 75, 64
2, 110400, Note_on_c, 0, 67, 64
2, 110400, Note_on_c, 0, 43, 94
2, 110592, Note_on_c, 0, 67, 0
2, 110592, Note_on_c, 0, 75, 0
2, 110592, Note_on_c, 0, 63, 0
2, 110592, Note_on_c, 0, 72, 0
2, 110640, Note_on_c, 0, 63, 64
2, 110640, Note_on_c, 0, 67, 64
2, 110832, Note_on_c, 0, 67, 0
2, 110832, Note_on_c, 0, 63, 0
2, 110880, Note_on_c, 0, 62, 64
2, 110880, Note_on_c, 0, 65, 64
2, 111072, Note_on_c, 0, 65, 0
2, 111072, Note_on_c, 0, 62, 0
2, 111120, Note_on_c, 0, 63, 64
2, 111120, Note_on_c, 0, 60, 64
2, 111168, Note_on_c, 0, 43, 0
2, 111312, Note_on_c, 0, 60, 0
2, 111312, Note_on_c, 0, 63, 0
2, 111360, Note_on_c, 0, 62, 94
2, 111360, Note_on_c, 0, 60, 94
2, 111360, Note_on_c, 0, 41, 94
2, 111552, Note_on_c, 0, 60, 0
2, 111600, Note_on_c, 0, 56, 94
2, 111744, Note_on_c, 0, 41, 0
2, 111744, Note_on_c, 0, 62, 0
2, 111792, Note_on_c, 0, 56, 0
2, 111840, Note_on_c, 0, 65, 94
2, 111840, Note_on_c, 0, 43, 94
2, 111840, Note_on_c, 0, 53, 94
2, 111840, Note_on_c, 0, 59, 94
2, 112032, Note_on_c, 0, 59, 0
2, 112032, Note_on_c, 0, 53, 0
2, 112080, Note_on_c, 0, 55, 94
2, 112224, Note_on_c, 0, 43, 0
2, 112224, Note_on_c, 0, 65, 0
2, 112272, Note_on_c, 0, 55, 0
2, 112320, Note_on_c, 0, 43, 94
2, 112320, Note_on_c, 0, 60, 94
2, 112320, Note_on_c, 0, 36, 94
2, 112320, Note_on_c, 0, 51, 94
2, 112416, Note_on_c, 0, 43, 0
2, 112440, Note_on_c, 0, 42, 94
2, 112536, Note_on_c, 0, 42, 0
2, 112560, Note_on_c, 0, 43, 94
2, 112656, Note_on_c, 0, 43, 0
2, 112680, Note_on_c, 0, 42, 94
2, 112704, Note_on_c, 0, 51, 0
2, 112704, Note_on_c, 0, 60, 0
2, 112776, Note_on_c, 0, 42, 0
2, 112800, Note_on_c, 0, 59, 94
2, 112800, Note_on_c, 0, 50, 94
2, 112800, Note_on_c, 0, 56, 94
2, 112800, Note_on_c, 0, 41, 94
2, 112896, Note_on_c, 0, 41, 0
2, 112920, Note_on_c, 0, 39, 94
2, 112992, Note_on_c, 0, 56, 0
2, 113016, Note_on_c, 0, 39, 0
2, 113040, Note_on_c, 0, 53, 94
2, 113040, Note_on_c, 0, 38, 94
2, 113088, Note_on_c, 0, 36, 0
2, 113136, Note_on_c, 0, 38, 0
2, 113160, Note_on_c, 0, 37, 94
2, 113184, Note_on_c, 0, 50, 0
2, 113184, Note_on_c, 0, 59, 0
2, 113232, Note_on_c, 0, 53, 0
2, 113256, Note_on_c, 0, 37, 0
2, 113280, Note_on_c, 0, 51, 94
2, 113280, Note_on_c, 0, 60, 94
2, 113280, Note_on_c, 0, 36, 94
2, 113400, Note_on_c, 0, 37, 94
2, 113496, Note_on_c, 0, 37, 0
2, 113520, Note_on_c, 0, 38, 94
2, 113616, Note_on_c, 0, 38, 0
2, 113640, Note_on_c, 0, 39, 94
2, 113664, Note_on_c, 0, 60, 0
2, 113664, Note_on_c, 0, 51, 0
2, 113736, Note_on_c, 0, 39, 0
2, 113760, Note_on_c, 0, 56, 85
2, 113760, Note_on_c, 0, 59, 85
2, 113760, Note_on_c, 0, 50, 85
2, 113760, Note_on_c, 0, 40, 85
2, 113856, Note_on_c, 0, 40, 0
2, 113880, Note_on_c, 0, 41, 85
2, 113952, Note_on_c, 0, 56, 0
2, 113976, Note_on_c, 0, 41, 0
2, 114000, Note_on_c, 0, 53, 85
2, 114000, Note_on_c, 0, 43, 85
2, 114048, Note_on_c, 0, 36, 0
2, 114096, Note_on_c, 0, 43, 0
2, 114120, Note_on_c, 0, 44, 85
2, 114144, Note_on_c, 0, 50, 0
2, 114144, Note_on_c, 0, 59, 0
2, 114192, Note_on_c, 0, 53, 0
2, 114216, Note_on_c, 0, 44, 0
2, 114240, Note_on_c, 0, 52, 85
2, 114240, Note_on_c, 0, 60, 85
2, 114240, Note_on_c, 0, 43, 85
2, 114240, Note_on_c, 0, 36, 85
2, 114336, Note_on_c, 0, 43, 0
2, 114360, Note_on_c, 0, 42, 85
2, 114456, Note_on_c, 0, 42, 0
2, 114480, Note_on_c, 0, 43, 85
2, 114576, Note_on_c, 0, 43, 0
2, 114600, Note_on_c, 0, 42, 85
2, 114624, Note_on_c, 0, 60, 0
2, 114624, Note_on_c, 0, 52, 0
2, 114696, Note_on_c, 0, 42, 0
2, 114720, Note_on_c, 0, 59, 72
2, 114720, Note_on_c, 0, 50, 72
2, 114720, Note_on_c, 0, 56, 72
2, 114720, Note_on_c, 0, 41, 72
2, 114816, Note_on_c, 0, 41, 0
2, 114840, Note_on_c, 0, 39, 72
2, 114912, Note_on_c, 0, 56, 0
2, 114936, Note_on_c, 0, 39, 0
2, 114960, Note_on_c, 0, 53, 72
2, 114960, Note_on_c, 0, 38, 72
2, 115008, Note_on_c, 0, 36, 0
2, 115056, Note_on_c, 0, 38, 0
2, 115080, Note_on_c, 0, 37, 72
2, 115104, Note_on_c, 0, 50, 0
2, 115104, Note_on_c, 0, 59, 0
2, 115152, Note_on_c, 0, 53, 0
2, 115176, Note_on_c, 0, 37, 0
2, 115200, Note_on_c, 0, 52, 72
2, 115200, Note_on_c, 0, 60, 72
2, 115200, Note_on_c, 0, 36, 72
2, 115320, Note_on_c, 0, 37, 72
2, 115416, Note_on_c, 0, 37, 0
2, 115440, Note_on_c, 0, 38, 72
2, 115536, Note_on_c, 0, 38, 0
2, 115560, Note_on_c, 0, 39, 72
2, 115584, Note_on_c, 0, 60, 0
2, 115584, Note_on_c, 0, 52, 0
2, 115656, Note_on_c, 0, 39, 0
2, 115680, Note_on_c, 0, 59, 64
2, 115680, Note_on_c, 0, 56, 64
2, 115680, Note_on_c, 0, 50, 64
2, 115680, Note_on_c, 0, 40, 64
2, 115776, Note_on_c, 0, 40, 0
2, 115800, Note_on_c, 0, 41, 64
2, 115872, Note_on_c, 0, 56, 0
2, 115896, Note_on_c, 0, 41, 0
2, 115920, Note_on_c, 0, 53, 64
2, 115920, Note_on_c, 0, 43, 64
2, 115968, Note_on_c, 0, 36, 0
2, 116016, Note_on_c, 0, 43, 0
2, 116040, Note_on_c, 0, 44, 64
2, 116064, Note_on_c, 0, 50, 0
2, 116064, Note_on_c, 0, 59, 0
2, 116112, Note_on_c, 0, 53, 0
2, 116136, Note_on_c, 0, 44, 0
2, 116160, Note_on_c, 0, 60, 64
2, 116160, Note_on_c, 0, 52, 64
2, 116160, Note_on_c, 0, 36, 64
2, 116160, Note_on_c, 0, 43, 64
2, 116928, Note_on_c, 0, 43, 0
2, 116928, Note_on_c, 0, 36, 0
2, 116928, Note_on_c, 0, 52, 0
2, 116928, Note_on_c, 0, 60, 0
2, 117120, End_track
3, 0, Start_track
3, 0, Control_c, 1, 0, 0
3, 0, Control_c, 1, 32, 0
3, 0, Program_c, 1, 53
3, 0, Control_c, 1, 7, 100
3, 0, Control_c, 1, 1, 0
3, 0, Control_c, 1, 10, 64
3, 0, Control_c, 1, 91, 0
3, 0, Control_c, 1, 93, 0
3, 0, Title_t, "Voice"
3, 7680, Note_on_c, 1, 63, 94
3, 7872, Note_on_c, 1, 63, 0
3, 7920, Note_on_c, 1, 63, 94
3, 8112, Note_on_c, 1, 63, 0
3, 8160, Note_on_c, 1, 62, 94
3, 8352, Note_on_c, 1, 62, 0
3, 8400, Note_on_c, 1, 60, 94
3, 8592, Note_on_c, 1, 60, 0
3, 8640, Note_on_c, 1, 62, 94
3, 8832, Note_on_c, 1, 62, 0
3, 8880, Note_on_c, 1, 62, 94
3, 9072, Note_on_c, 1, 62, 0
3, 9120, Note_on_c, 1, 62, 94
3, 9312, Note_on_c, 1, 62, 0
3, 9360, Note_on_c, 1, 62, 94
3, 9552, Note_on_c, 1, 62, 0
3, 9600, Note_on_c, 1, 63, 94
3, 9792, Note_on_c, 1, 63, 0
3, 9840, Note_on_c, 1, 63, 94
3, 10032, Note_on_c, 1, 63, 0
3, 10080, Note_on_c, 1, 62, 94
3, 10272, Note_on_c, 1, 62, 0
3, 10320, Note_on_c, 1, 60, 94
3, 10512, Note_on_c, 1, 60, 0
3, 10560, Note_on_c, 1, 62, 94
3, 10944, Note_on_c, 1, 62, 0
3, 11040, Note_on_c, 1, 62, 94
3, 11424, Note_on_c, 1, 62, 0
3, 11520, Note_on_c, 1, 67, 94
3, 11712, Note_on_c, 1, 67, 0
3, 11760, Note_on_c, 1, 67, 94
3, 11952, Note_on_c, 1, 67, 0
3, 12000, Note_on_c, 1, 72, 94
3, 12192, Note_on_c, 1, 72, 0
3, 12240, Note_on_c, 1, 72, 94
3, 12432, Note_on_c, 1, 72, 0
3, 12480, Note_on_c, 1, 72, 94
3, 12672, Note_on_c, 1, 72, 0
3, 12720, Note_on_c, 1, 72, 94
3, 12912, Note_on_c, 1, 72, 0
3, 12960, Note_on_c, 1, 60, 94
3, 13152, Note_on_c, 1, 60, 0
3, 13200, Note_on_c, 1, 62, 94
3, 13392, Note_on_c, 1, 62, 0
3, 13440, Note_on_c, 1, 63, 94
3, 13632, Note_on_c, 1, 63, 0
3, 13680, Note_on_c, 1, 63, 94
3, 13872, Note_on_c, 1, 63, 0
3, 13920, Note_on_c, 1, 62, 94
3, 14112, Note_on_c, 1, 62, 0
3, 14160, Note_on_c, 1, 67, 105
3, 14352, Note_on_c, 1, 67, 0
3, 14400, Note_on_c, 1, 65, 105
3, 14784, Note_on_c, 1, 65, 0
3, 14880, Note_on_c, 1, 63, 94
3, 15072, Note_on_c, 1, 63, 0
3, 15360, Note_on_c, 1, 67, 94
3, 15552, Note_on_c, 1, 67, 0
3, 15600, Note_on_c, 1, 67, 94
3, 15792, Note_on_c, 1, 67, 0
3, 15840, Note_on_c, 1, 67, 94
3, 16032, Note_on_c, 1, 67, 0
3, 16080, Note_on_c, 1, 67, 94
3, 16272, Note_on_c, 1, 67, 0
3, 16320, Note_on_c, 1, 72, 94
3, 16512, Note_on_c, 1, 72, 0
3, 16560, Note_on_c, 1, 72, 94
3, 16752, Note_on_c, 1, 72, 0
3, 16800, Note_on_c, 1, 72, 94
3, 17712, Note_on_c, 1, 72, 0
3, 18000, Note_on_c, 1, 66, 94
3, 18192, Note_on_c, 1, 66, 0
3, 18240, Note_on_c, 1, 67, 94
3, 18432, Note_on_c, 1, 67, 0
3, 18480, Note_on_c, 1, 67, 94
3, 18672, Note_on_c, 1, 67, 0
3, 18720, Note_on_c, 1, 65, 94
3, 18912, Note_on_c, 1, 65, 0
3, 18960, Note_on_c, 1, 63, 94
3, 19152, Note_on_c, 1, 63, 0
3, 19200, Note_on_c, 1, 62, 114
3, 20928, Note_on_c, 1, 62, 0
3, 21120, Note_on_c, 1, 62, 94
3, 21504, Note_on_c, 1, 62, 0
3, 30720, Note_on_c, 1, 63, 94
3, 30912, Note_on_c, 1, 63, 0
3, 30960, Note_on_c, 1, 63, 94
3, 31152, Note_on_c, 1, 63, 0
3, 31200, Note_on_c, 1, 62, 94
3, 31392, Note_on_c, 1, 62, 0
3, 31440, Note_on_c, 1, 60, 94
3, 31632, Note_on_c, 1, 60, 0
3, 31680, Note_on_c, 1, 62, 94
3, 31872, Note_on_c, 1, 62, 0
3, 31920, Note_on_c, 1, 62, 94
3, 32112, Note_on_c, 1, 62, 0
3, 32160, Note_on_c, 1, 62, 94
3, 32352, Note_on_c, 1, 62, 0
3, 32400, Note_on_c, 1, 62, 94
3, 32592, Note_on_c, 1, 62, 0
3, 32640, Note_on_c, 1, 63, 94
3, 32832, Note_on_c, 1, 63, 0
3, 32880, Note_on_c, 1, 63, 94
3, 33072, Note_on_c, 1, 63, 0
3, 33120, Note_on_c, 1, 62, 94
3, 33312, Note_on_c, 1, 62, 0
3, 33360, Note_on_c, 1, 60, 94
3, 33552, Note_on_c, 1, 60, 0
3, 33600, Note_on_c, 1, 62, 94
3, 33984, Note_on_c, 1, 62, 0
3, 34080, Note_on_c, 1, 62, 94
3, 34464, Note_on_c, 1, 62, 0
3, 34560, Note_on_c, 1, 67, 94
3, 34752, Note_on_c, 1, 67, 0
3, 34800, Note_on_c, 1, 67, 94
3, 34992, Note_on_c, 1, 67, 0
3, 35040, Note_on_c, 1, 72, 94
3, 35232, Note_on_c, 1, 72, 0
3, 35280, Note_on_c, 1, 72, 94
3, 35472, Note_on_c, 1, 72, 0
3, 35520, Note_on_c, 1, 72, 94
3, 35712, Note_on_c, 1, 72, 0
3, 35760, Note_on_c, 1, 72, 94
3, 35952, Note_on_c, 1, 72, 0
3, 36000, Note_on_c, 1, 60, 94
3, 36192, Note_on_c, 1, 60, 0
3, 36240, Note_on_c, 1, 62, 94
3, 36432, Note_on_c, 1, 62, 0
3, 36480, Note_on_c, 1, 63, 94
3, 36672, Note_on_c, 1, 63, 0
3, 36720, Note_on_c, 1, 63, 94
3, 36912, Note_on_c, 1, 63, 0
3, 36960, Note_on_c, 1, 62, 94
3, 37152, Note_on_c, 1, 62, 0
3, 37200, Note_on_c, 1, 67, 105
3, 37392, Note_on_c, 1, 67, 0
3, 37440, Note_on_c, 1, 65, 105
3, 37824, Note_on_c, 1, 65, 0
3, 37920, Note_on_c, 1, 63, 94
3, 38112, Note_on_c, 1, 63, 0
3, 38400, Note_on_c, 1, 67, 94
3, 38592, Note_on_c, 1, 67, 0
3, 38640, Note_on_c, 1, 67, 94
3, 38832, Note_on_c, 1, 67, 0
3, 38880, Note_on_c, 1, 67, 94
3, 39072, Note_on_c, 1, 67, 0
3, 39120, Note_on_c, 1, 67, 94
3, 39312, Note_on_c, 1, 67, 0
3, 39360, Note_on_c, 1, 72, 94
3, 39552, Note_on_c, 1, 72, 0
3, 39600, Note_on_c, 1, 72, 94
3, 39792, Note_on_c, 1, 72, 0
3, 39840, Note_on_c, 1, 72, 94
3, 40752, Note_on_c, 1, 72, 0
3, 41040, Note_on_c, 1, 66, 94
3, 41232, Note_on_c, 1, 66, 0
3, 41280, Note_on_c, 1, 67, 94
3, 41472, Note_on_c, 1, 67, 0
3, 41520, Note_on_c, 1, 67, 94
3, 41712, Note_on_c, 1, 67, 0
3, 41760, Note_on_c, 1, 65, 94
3, 41952, Note_on_c, 1, 65, 0
3, 42000, Note_on_c, 1, 63, 94
3, 42192, Note_on_c, 1, 63, 0
3, 42240, Note_on_c, 1, 62, 114
3, 43968, Note_on_c, 1, 62, 0
3, 44160, Note_on_c, 1, 62, 94
3, 44544, Note_on_c, 1, 62, 0
3, 53760, Note_on_c, 1, 63, 94
3, 53952, Note_on_c, 1, 63, 0
3, 54000, Note_on_c, 1, 63, 94
3, 54192, Note_on_c, 1, 63, 0
3, 54240, Note_on_c, 1, 62, 94
3, 54432, Note_on_c, 1, 62, 0
3, 54480, Note_on_c, 1, 60, 94
3, 54672, Note_on_c, 1, 60, 0
3, 54720, Note_on_c, 1, 62, 94
3, 54912, Note_on_c, 1, 62, 0
3, 54960, Note_on_c, 1, 62, 94
3, 55152, Note_on_c, 1, 62, 0
3, 55200, Note_on_c, 1, 62, 94
3, 55392, Note_on_c, 1, 62, 0
3, 55440, Note_on_c, 1, 62, 94
3, 55632, Note_on_c, 1, 62, 0
3, 55680, Note_on_c, 1, 63, 94
3, 55872, Note_on_c, 1, 63, 0
3, 55920, Note_on_c, 1, 63, 94
3, 56112, Note_on_c, 1, 63, 0
3, 56160, Note_on_c, 1, 62, 94
3, 56352, Note_on_c, 1, 62, 0
3, 56400, Note_on_c, 1, 60, 94
3, 56592, Note_on_c, 1, 60, 0
3, 56640, Note_on_c, 1, 62, 94
3, 57024, Note_on_c, 1, 62, 0
3, 57120, Note_on_c, 1, 62, 94
3, 57504, Note_on_c, 1, 62, 0
3, 57600, Note_on_c, 1, 67, 94
3, 57792, Note_on_c, 1, 67, 0
3, 57840, Note_on_c, 1, 67, 94
3, 58032, Note_on_c, 1, 67, 0
3, 58080, Note_on_c, 1, 72, 94
3, 58272, Note_on_c, 1, 72, 0
3, 58320, Note_on_c, 1, 72, 94
3, 58512, Note_on_c, 1, 72, 0
3, 58560, Note_on_c, 1, 72, 94
3, 58752, Note_on_c, 1, 72, 0
3, 58800, Note_on_c, 1, 72, 94
3, 58992, Note_on_c, 1, 72, 0
3, 59040, Note_on_c, 1, 60, 94
3, 59232, Note_on_c, 1, 60, 0
3, 59280, Note_on_c, 1, 62, 94
3, 59472, Note_on_c, 1, 62, 0
3, 59520, Note_on_c, 1, 63, 94
3, 59712, Note_on_c, 1, 63, 0
3, 59760, Note_on_c, 1, 63, 94
3, 59952, Note_on_c, 1, 63, 0
3, 60000, Note_on_c, 1, 62, 94
3, 60192, Note_on_c, 1, 62, 0
3, 60240, Note_on_c, 1, 67, 105
3, 60432, Note_on_c, 1, 67, 0
3, 60480, Note_on_c, 1, 65, 105
3, 60864, Note_on_c, 1, 65, 0
3, 60960, Note_on_c, 1, 63, 94
3, 61152, Note_on_c, 1, 63, 0
3, 61440, Note_on_c, 1, 67, 94
3, 61632, Note_on_c, 1, 67, 0
3, 61680, Note_on_c, 1, 67, 94
3, 61872, Note_on_c, 1, 67, 0
3, 61920, Note_on_c, 1, 67, 94
3, 62112, Note_on_c, 1, 67, 0
3, 62160, Note_on_c, 1, 67, 94
3, 62352, Note_on_c, 1, 67, 0
3, 62400, Note_on_c, 1, 72, 94
3, 62592, Note_on_c, 1, 72, 0
3, 62640, Note_on_c, 1, 72, 94
3, 62832, Note_on_c, 1, 72, 0
3, 62880, Note_on_c, 1, 72, 94
3, 63792, Note_on_c, 1, 72, 0
3, 64080, Note_on_c, 1, 66, 94
3, 64272, Note_on_c, 1, 66, 0
3, 64320, Note_on_c, 1, 67, 94
3, 64512, Note_on_c, 1, 67, 0
3, 64560, Note_on_c, 1, 67, 94
3, 64752, Note_on_c, 1, 67, 0
3, 64800, Note_on_c, 1, 65, 94
3, 64992, Note_on_c, 1, 65, 0
3, 65040, Note_on_c, 1, 63, 94
3, 65232, Note_on_c, 1, 63, 0
3, 65280, Note_on_c, 1, 62, 114
3, 67008, Note_on_c, 1, 62, 0
3, 67200, Note_on_c, 1, 62, 94
3, 67584, Note_on_c, 1, 62, 0
3, 76800, Note_on_c, 1, 63, 94
3, 76992, Note_on_c, 1, 63, 0
3, 77040, Note_on_c, 1, 63, 94
3, 77232, Note_on_c, 1, 63, 0
3, 77280, Note_on_c, 1, 62, 94
3, 77472, Note_on_c, 1, 62, 0
3, 77520, Note_on_c, 1, 60, 94
3, 77712, Note_on_c, 1, 60, 0
3, 77760, Note_on_c, 1, 62, 94
3, 77952, Note_on_c, 1, 62, 0
3, 78000, Note_on_c, 1, 62, 94
3, 78192, Note_on_c, 1, 62, 0
3, 78240, Note_on_c, 1, 62, 94
3, 78432, Note_on_c, 1, 62, 0
3, 78480, Note_on_c, 1, 62, 94
3, 78672, Note_on_c, 1, 62, 0
3, 78720, Note_on_c, 1, 63, 94
3, 78912, Note_on_c, 1, 63, 0
3, 78960, Note_on_c, 1, 63, 94
3, 79152, Note_on_c, 1, 63, 0
3, 79200, Note_on_c, 1, 62, 94
3, 79392, Note_on_c, 1, 62, 0
3, 79440, Note_on_c, 1, 60, 94
3, 79632, Note_on_c, 1, 60, 0
3, 79680, Note_on_c, 1, 62, 94
3, 80064, Note_on_c, 1, 62, 0
3, 80160, Note_on_c, 1, 62, 94
3, 80544, Note_on_c, 1, 62, 0
3, 80640, Note_on_c, 1, 67, 94
3, 80832, Note_on_c, 1, 67, 0
3, 80880, Note_on_c, 1, 67, 94
3, 81072, Note_on_c, 1, 67, 0
3, 81120, Note_on_c, 1, 72, 94
3, 81312, Note_on_c, 1, 72, 0
3, 81360, Note_on_c, 1, 72, 94
3, 81552, Note_on_c, 1, 72, 0
3, 81600, Note_on_c, 1, 72, 94
3, 81792, Note_on_c, 1, 72, 0
3, 81840, Note_on_c, 1, 72, 94
3, 82032, Note_on_c, 1, 72, 0
3, 82080, Note_on_c, 1, 60, 94
3, 82272, Note_on_c, 1, 60, 0
3, 82320, Note_on_c, 1, 62, 94
3, 82512, Note_on_c, 1, 62, 0
3, 82560, Note_on_c, 1, 63, 94
3, 82752, Note_on_c, 1, 63, 0
3, 82800, Note_on_c, 1, 63, 94
3, 82992, Note_on_c, 1, 63, 0
3, 83040, Note_on_c, 1, 62, 94
3, 83232, Note_on_c, 1, 62, 0
3, 83280, Note_on_c, 1, 67, 105
3, 83472, Note_on_c, 1, 67, 0
3, 83520, Note_on_c, 1, 65, 105
3, 83904, Note_on_c, 1, 65, 0
3, 84000, Note_on_c, 1, 63, 94
3, 84192, Note_on_c, 1, 63, 0
3, 84480, Note_on_c, 1, 67, 94
3, 84672, Note_on_c, 1, 67, 0
3, 84720, Note_on_c, 1, 67, 94
3, 84912, Note_on_c, 1, 67, 0
3, 84960, Note_on_c, 1, 67, 94
3, 85152, Note_on_c, 1, 67, 0
3, 85200, Note_on_c, 1, 67, 94
3, 85392, Note_on_c, 1, 67, 0
3, 85440, Note_on_c, 1, 72, 94
3, 85632, Note_on_c, 1, 72, 0
3, 85680, Note_on_c, 1, 72, 94
3, 85872, Note_on_c, 1, 72, 0
3, 85920, Note_on_c, 1, 72, 94
3, 86832, Note_on_c, 1, 72, 0
3, 87120, Note_on_c, 1, 66, 94
3, 87312, Note_on_c, 1, 66, 0
3, 87360, Note_on_c, 1, 67, 94
3, 87552, Note_on_c, 1, 67, 0
3, 87600, Note_on_c, 1, 67, 94
3, 87792, Note_on_c, 1, 67, 0
3, 87840, Note_on_c, 1, 65, 94
3, 88032, Note_on_c, 1, 65, 0
3, 88080, Note_on_c, 1, 63, 94
3, 88272, Note_on_c, 1, 63, 0
3, 88320, Note_on_c, 1, 62, 114
3, 90048, Note_on_c, 1, 62, 0
3, 90240, Note_on_c, 1, 62, 94
3, 90624, Note_on_c, 1, 62, 0
3, 99840, Note_on_c, 1, 63, 94
3, 100032, Note_on_c, 1, 63, 0
3, 100080, Note_on_c, 1, 63, 94
3, 100272, Note_on_c, 1, 63, 0
3, 100320, Note_on_c, 1, 62, 94
3, 100512, Note_on_c, 1, 62, 0
3, 100560, Note_on_c, 1, 60, 94
3, 100752, Note_on_c, 1, 60, 0
3, 100800, Note_on_c, 1, 62, 94
3, 100992, Note_on_c, 1, 62, 0
3, 101040, Note_on_c, 1, 62, 94
3, 101232, Note_on_c, 1, 62, 0
3, 101280, Note_on_c, 1, 62, 94
3, 101472, Note_on_c, 1, 62, 0
3, 101520, Note_on_c, 1, 62, 94
3, 101712, Note_on_c, 1, 62, 0
3, 101760, Note_on_c, 1, 63, 94
3, 101952, Note_on_c, 1, 63, 0
3, 102000, Note_on_c, 1, 63, 94
3, 102192, Note_on_c, 1, 63, 0
3, 102240, Note_on_c, 1, 62, 94
3, 102432, Note_on_c, 1, 62, 0
3, 102480, Note_on_c, 1, 60, 94
3, 102672, Note_on_c, 1, 60, 0
3, 102720, Note_on_c, 1, 62, 94
3, 103104, Note_on_c, 1, 62, 0
3, 103200, Note_on_c, 1, 62, 94
3, 103584, Note_on_c, 1, 62, 0
3, 103680, Note_on_c, 1, 67, 94
3, 103872, Note_on_c, 1, 67, 0
3, 103920, Note_on_c, 1, 67, 94
3, 104112, Note_on_c, 1, 67, 0
3, 104160, Note_on_c, 1, 72, 94
3, 104352, Note_on_c, 1, 72, 0
3, 104400, Note_on_c, 1, 72, 94
3, 104592, Note_on_c, 1, 72, 0
3, 104640, Note_on_c, 1, 72, 94
3, 104832, Note_on_c, 1, 72, 0
3, 104880, Note_on_c, 1, 72, 94
3, 105072, Note_on_c, 1, 72, 0
3, 105120, Note_on_c, 1, 60, 94
3, 105312, Note_on_c, 1, 60, 0
3, 105360, Note_on_c, 1, 62, 94
3, 105552, Note_on_c, 1, 62, 0
3, 105600, Note_on_c, 1, 63, 94
3, 105792, Note_on_c, 1, 63, 0
3, 105840, Note_on_c, 1, 63, 94
3, 106032, Note_on_c, 1, 63, 0
3, 106080, Note_on_c, 1, 62, 94
3, 106272, Note_on_c, 1, 62, 0
3, 106320, Note_on_c, 1, 67, 105
3, 106512, Note_on_c, 1, 67, 0
3, 106560, Note_on_c, 1, 65, 105
3, 106944, Note_on_c, 1, 65, 0
3, 107040, Note_on_c, 1, 63, 94
3, 107232, Note_on_c, 1, 63, 0
3, 107520, Note_on_c, 1, 67, 94
3, 107712, Note_on_c, 1, 67, 0
3, 107760, Note_on_c, 1, 67, 94
3, 107952, Note_on_c, 1, 67, 0
3, 108000, Note_on_c, 1, 67, 94
3, 108192, Note_on_c, 1, 67, 0
3, 108240, Note_on_c, 1, 67, 94
3, 108432, Note_on_c, 1, 67, 0
3, 108480, Note_on_c, 1, 72, 94
3, 108672, Note_on_c, 1, 72, 0
3, 108720, Note_on_c, 1, 72, 94
3, 108912, Note_on_c, 1, 72, 0
3, 108960, Note_on_c, 1, 72, 94
3, 109872, Note_on_c, 1, 72, 0
3, 110160, Note_on_c, 1, 66, 94
3, 110352, Note_on_c, 1, 66, 0
3, 110400, Note_on_c, 1, 67, 94
3, 110592, Note_on_c, 1, 67, 0
3, 110640, Note_on_c, 1, 67, 94
3, 110832, Note_on_c, 1, 67, 0
3, 110880, Note_on_c, 1, 65, 94
3, 111072, Note_on_c, 1, 65, 0
3, 111120, Note_on_c, 1, 63, 94
3, 111312, Note_on_c, 1, 63, 0
3, 111360, Note_on_c, 1, 68, 94
3, 111744, Note_on_c, 1, 68, 0
3, 111840, Note_on_c, 1, 59, 94
3, 112224, Note_on_c, 1, 59, 0
3, 112320, Note_on_c, 1, 60, 94
3, 112704, Note_on_c, 1, 60, 0
3, 117120, End_track
0, 0, End_of_file