0, 0, Header, 1, 3, 480
1, 0, Start_track
1, 0, Tempo, 599809
1, 0, Time_signature, 2, 2, 24, 8
1, 0, Copyright_t, "Copyright \251 1999 My Music Company"
1, 0, Title_t, "Piano Solo"
1, 6744, Tempo, 615169
1, 6768, Tempo, 631553
1, 6792, Tempo, 648449
1, 6816, Tempo, 666625
1, 6840, Tempo, 685569
1, 6864, Tempo, 705793
1, 6888, Tempo, 727041
1, 6912, Tempo, 749825
1, 6936, Tempo, 774145
1, 6960, Tempo, 800001
1, 7200, Tempo, 2999809
1, 7680, Tempo, 599809
1, 17304, Tempo, 598273
1, 17328, Tempo, 596481
1, 17352, Tempo, 594689
1, 17376, Tempo, 593153
1, 17400, Tempo, 591361
1, 17424, Tempo, 589825
1, 17448, Tempo, 588033
1, 17472, Tempo, 586497
1, 17496, Tempo, 584705
1, 17520, Tempo, 583169
1, 17544, Tempo, 581633
1, 17568, Tempo, 580097
1, 17592, Tempo, 578305
1, 17616, Tempo, 576769
1, 17640, Tempo, 575233
1, 17664, Tempo, 573697
1, 17688, Tempo, 572161
1, 17712, Tempo, 570625
1, 17736, Tempo, 569089
1, 17760, Tempo, 567553
1, 17784, Tempo, 566017
1, 17808, Tempo, 564481
1, 17832, Tempo, 562945
1, 17856, Tempo, 561409
1, 17880, Tempo, 559873
1, 17904, Tempo, 558337
1, 17928, Tempo, 556801
1, 17952, Tempo, 555521
1, 17976, Tempo, 553985
1, 18000, Tempo, 552449
1, 18024, Tempo, 551169
1, 18048, Tempo, 549633
1, 18072, Tempo, 548097
1, 18096, Tempo, 546817
1, 18120, Tempo, 545281
1, 18120, Tempo, 545281
1, 18264, Tempo, 546817
1, 18288, Tempo, 548097
1, 18312, Tempo, 549633
1, 18336, Tempo, 551169
1, 18360, Tempo, 552449
1, 18384, Tempo, 553985
1, 18408, Tempo, 555521
1, 18432, Tempo, 556801
1, 18456, Tempo, 558337
1, 18480, Tempo, 559873
1, 18504, Tempo, 561409
1, 18528, Tempo, 562945
1, 18552, Tempo, 564481
1, 18576, Tempo, 566017
1, 18600, Tempo, 567553
1, 18624, Tempo, 569089
1, 18648, Tempo, 570625
1, 18672, Tempo, 572161
1, 18696, Tempo, 573697
1, 18720, Tempo, 575233
1, 18744, Tempo, 576769
1, 18768, Tempo, 578305
1, 18792, Tempo, 580097
1, 18816, Tempo, 581633
1, 18840, Tempo, 583169
1, 18864, Tempo, 584705
1, 18888, Tempo, 586497
1, 18912, Tempo, 588033
1, 18936, Tempo, 589825
1, 18960, Tempo, 591361
1, 18984, Tempo, 593153
1, 19008, Tempo, 594689
1, 19032, Tempo, 596481
1, 19056, Tempo, 598273
1, 19080, Tempo, 599809
1, 19080, Tempo, 599809
1, 26880, Tempo, 599809
1, 33624, Tempo, 615169
1, 33648, Tempo, 631553
1, 33672, Tempo, 648449
1, 33696, Tempo, 666625
1, 33720, Tempo, 685569
1, 33744, Tempo, 705793
1, 33768, Tempo, 727041
1, 33792, Tempo, 749825
1, 33816, Tempo, 774145
1, 33840, Tempo, 800001
1, 34080, Tempo, 2999809
1, 34560, Tempo, 599809
1, 44184, Tempo, 598273
1, 44208, Tempo, 596481
1, 44232, Tempo, 594689
1, 44256, Tempo, 593153
1, 44280, Tempo, 591361
1, 44304, Tempo, 589825
1, 44328, Tempo, 588033
1, 44352, Tempo, 586497
1, 44376, Tempo, 584705
1, 44400, Tempo, 583169
1, 44424, Tempo, 581633
1, 44448, Tempo, 580097
1, 44472, Tempo, 578305
1, 44496, Tempo, 576769
1, 44520, Tempo, 575233
1, 44544, Tempo, 573697
1, 44568, Tempo, 572161
1, 44592, Tempo, 570625
1, 44616, Tempo, 569089
1, 44640, Tempo, 567553
1, 44664, Tempo, 566017
1, 44688, Tempo, 564481
1, 44712, Tempo, 562945
1, 44736, Tempo, 561409
1, 44760, Tempo, 559873
1, 44784, Tempo, 558337
1, 44808, Tempo, 556801
1, 44832, Tempo, 555521
1, 44856, Tempo, 553985
1, 44880, Tempo, 552449
1, 44904, Tempo, 551169
1, 44928, Tempo, 549633
1, 44952, Tempo, 548097
1, 44976, Tempo, 546817
1, 45000, Tempo, 545281
1, 45000, Tempo, 545281
1, 45144, Tempo, 546817
1, 45168, Tempo, 548097
1, 45192, Tempo, 549633
1, 45216, Tempo, 551169
1, 45240, Tempo, 552449
1, 45264, Tempo, 553985
1, 45288, Tempo, 555521
1, 45312, Tempo, 556801
1, 45336, Tempo, 558337
1, 45360, Tempo, 559873
1, 45384, Tempo, 561409
1, 45408, Tempo, 562945
1, 45432, Tempo, 564481
1, 45456, Tempo, 566017
1, 45480, Tempo, 567553
1, 45504, Tempo, 569089
1, 45528, Tempo, 570625
1, 45552, Tempo, 572161
1, 45576, Tempo, 573697
1, 45600, Tempo, 575233
1, 45624, Tempo, 576769
1, 45648, Tempo, 578305
1, 45672, Tempo, 580097
1, 45696, Tempo, 581633
1, 45720, Tempo, 583169
1, 45744, Tempo, 584705
1, 45768, Tempo, 586497
1, 45792, Tempo, 588033
1, 45816, Tempo, 589825
1, 45840, Tempo, 591361
1, 45864, Tempo, 593153
1, 45888, Tempo, 594689
1, 45912, Tempo, 596481
1, 45936, Tempo, 598273
1, 45960, Tempo, 599809
1, 45960, Tempo, 599809
1, 60504, Tempo, 615169
1, 60528, Tempo, 631553
1, 60552, Tempo, 648449
1, 60576, Tempo, 666625
1, 60600, Tempo, 685569
1, 60624, Tempo, 705793
1, 60648, Tempo, 727041
1, 60672, Tempo, 749825
1, 60696, Tempo, 774145
1, 60720, Tempo, 800001
1, 60960, Tempo, 2999809
1, 61440, Tempo, 599809
1, 71064, Tempo, 598273
1, 71088, Tempo, 596481
1, 71112, Tempo, 594689
1, 71136, Tempo, 593153
1, 71160, Tempo, 591361
1, 71184, Tempo, 589825
1, 71208, Tempo, 588033
1, 71232, Tempo, 586497
1, 71256, Tempo, 584705
1, 71280, Tempo, 583169
1, 71304, Tempo, 581633
1, 71328, Tempo, 580097
1, 71352, Tempo, 578305
1, 71376, Tempo, 576769
1, 71400, Tempo, 575233
1, 71424, Tempo, 573697
1, 71448, Tempo, 572161
1, 71472, Tempo, 570625
1, 71496, Tempo, 569089
1, 71520, Tempo, 567553
1, 71544, Tempo, 566017
1, 71568, Tempo, 564481
1, 71592, Tempo, 562945
1, 71616, Tempo, 561409
1, 71640, Tempo, 559873
1, 71664, Tempo, 558337
1, 71688, Tempo, 556801
1, 71712, Tempo, 555521
1, 71736, Tempo, 553985
1, 71760, Tempo, 552449
1, 71784, Tempo, 551169
1, 71808, Tempo, 549633
1, 71832, Tempo, 548097
1, 71856, Tempo, 546817
1, 71880, Tempo, 545281
1, 72024, Tempo, 546817
1, 72048, Tempo, 548097
1, 72072, Tempo, 549633
1, 72096, Tempo, 551169
1, 72120, Tempo, 552449
1, 72144, Tempo, 553985
1, 72168, Tempo, 555521
1, 72192, Tempo, 556801
1, 72216, Tempo, 558337
1, 72240, Tempo, 559873
1, 72264, Tempo, 561409
1, 72288, Tempo, 562945
1, 72312, Tempo, 564481
1, 72336, Tempo, 566017
1, 72360, Tempo, 567553
1, 72384, Tempo, 569089
1, 72408, Tempo, 570625
1, 72432, Tempo, 572161
1, 72456, Tempo, 573697
1, 72480, Tempo, 575233
1, 72504, Tempo, 576769
1, 72528, Tempo, 578305
1, 72552, Tempo, 580097
1, 72576, Tempo, 581633
1, 72600, Tempo, 583169
1, 72624, Tempo, 584961
1, 72648, Tempo, 586497
1, 72672, Tempo, 588033
1, 72696, Tempo, 589825
1, 72720, Tempo, 591361
1, 72744, Tempo, 593153
1, 72768, Tempo, 594689
1, 72792, Tempo, 596481
1, 72816, Tempo, 598273
1, 72840, Tempo, 599809
1, 85440, End_track
2, 0, Start_track
2, 0, Control_c, 0, 7, 96
2, 0, Control_c, 0, 0, 0
2, 0, Control_c, 0, 32, 0
2, 0, Program_c, 0, 0
2, 0, Control_c, 0, 1, 0
2, 0, Control_c, 0, 10, 64
2, 0, Control_c, 0, 91, 0
2, 0, Control_c, 0, 93, 0
2, 0, Key_signature, 2, "major"
2, 0, Key_signature, 2, "major"
2, 0, Title_t, "Piano"
2, 0, Note_on_c, 0, 67, 100
2, 0, Note_on_c, 0, 50, 100
2, 0, Note_on_c, 0, 57, 100
2, 0, Note_on_c, 0, 69, 100
2, 342, Note_on_c, 0, 67, 0
2, 360, Note_on_c, 0, 66, 100
2, 474, Note_on_c, 0, 66, 0
2, 480, Note_on_c, 0, 64, 100
2, 594, Note_on_c, 0, 64, 0
2, 600, Note_on_c, 0, 66, 100
2, 714, Note_on_c, 0, 66, 0
2, 720, Note_on_c, 0, 62, 100
2, 936, Note_on_c, 0, 69, 0
2, 936, Note_on_c, 0, 57, 0
2, 936, Note_on_c, 0, 50, 0
2, 948, Note_on_c, 0, 62, 0
2, 960, Note_on_c, 0, 50, 100
2, 960, Note_on_c, 0, 57, 100
2, 960, Note_on_c, 0, 67, 100
2, 960, Note_on_c, 0, 69, 100
2, 1302, Note_on_c, 0, 67, 0
2, 1320, Note_on_c, 0, 66, 100
2, 1434, Note_on_c, 0, 66, 0
2, 1440, Note_on_c, 0, 64, 100
2, 1554, Note_on_c, 0, 64, 0
2, 1560, Note_on_c, 0, 66, 100
2, 1674, Note_on_c, 0, 66, 0
2, 1680, Note_on_c, 0, 62, 100
2, 1896, Note_on_c, 0, 69, 0
2, 1896, Note_on_c, 0, 57, 0
2, 1896, Note_on_c, 0, 50, 0
2, 1908, Note_on_c, 0, 62, 0
2, 1920, Note_on_c, 0, 68, 100
2, 1920, Note_on_c, 0, 65, 100
2, 1920, Note_on_c, 0, 59, 100
2, 1920, Note_on_c, 0, 50, 100
2, 2034, Note_on_c, 0, 59, 0
2, 2034, Note_on_c, 0, 68, 0
2, 2040, Note_on_c, 0, 71, 100
2, 2040, Note_on_c, 0, 56, 100
2, 2148, Note_on_c, 0, 65, 0
2, 2154, Note_on_c, 0, 56, 0
2, 2154, Note_on_c, 0, 71, 0
2, 2160, Note_on_c, 0, 69, 100
2, 2160, Note_on_c, 0, 66, 100
2, 2160, Note_on_c, 0, 57, 100
2, 2856, Note_on_c, 0, 50, 0
2, 2868, Note_on_c, 0, 57, 0
2, 2868, Note_on_c, 0, 66, 0
2, 2868, Note_on_c, 0, 69, 0
2, 2880, Note_on_c, 0, 68, 100
2, 2880, Note_on_c, 0, 65, 100
2, 2880, Note_on_c, 0, 59, 100
2, 2880, Note_on_c, 0, 50, 100
2, 2994, Note_on_c, 0, 59, 0
2, 2994, Note_on_c, 0, 68, 0
2, 3000, Note_on_c, 0, 71, 100
2, 3000, Note_on_c, 0, 56, 100
2, 3108, Note_on_c, 0, 65, 0
2, 3114, Note_on_c, 0, 56, 0
2, 3114, Note_on_c, 0, 71, 0
2, 3120, Note_on_c, 0, 69, 100
2, 3120, Note_on_c, 0, 66, 100
2, 3120, Note_on_c, 0, 57, 100
2, 3816, Note_on_c, 0, 50, 0
2, 3828, Note_on_c, 0, 57, 0
2, 3828, Note_on_c, 0, 66, 0
2, 3828, Note_on_c, 0, 69, 0
2, 3840, Note_on_c, 0, 50, 100
2, 3840, Note_on_c, 0, 57, 100
2, 3840, Note_on_c, 0, 67, 100
2, 3840, Note_on_c, 0, 69, 100
2, 4182, Note_on_c, 0, 67, 0
2, 4200, Note_on_c, 0, 66, 100
2, 4314, Note_on_c, 0, 66, 0
2, 4320, Note_on_c, 0, 64, 100
2, 4434, Note_on_c, 0, 64, 0
2, 4440, Note_on_c, 0, 66, 100
2, 4554, Note_on_c, 0, 66, 0
2, 4560, Note_on_c, 0, 62, 100
2, 4776, Note_on_c, 0, 69, 0
2, 4776, Note_on_c, 0, 57, 0
2, 4776, Note_on_c, 0, 50, 0
2, 4788, Note_on_c, 0, 62, 0
2, 4800, Note_on_c, 0, 67, 100
2, 4800, Note_on_c, 0, 69, 100
2, 4800, Note_on_c, 0, 50, 100
2, 4800, Note_on_c, 0, 57, 100
2, 5142, Note_on_c, 0, 67, 0
2, 5160, Note_on_c, 0, 66, 100
2, 5274, Note_on_c, 0, 66, 0
2, 5280, Note_on_c, 0, 64, 100
2, 5394, Note_on_c, 0, 64, 0
2, 5400, Note_on_c, 0, 66, 100
2, 5514, Note_on_c, 0, 66, 0
2, 5520, Note_on_c, 0, 62, 100
2, 5736, Note_on_c, 0, 57, 0
2, 5736, Note_on_c, 0, 50, 0
2, 5736, Note_on_c, 0, 69, 0
2, 5748, Note_on_c, 0, 62, 0
2, 5760, Note_on_c, 0, 69, 100
2, 5760, Note_on_c, 0, 45, 100
2, 5760, Note_on_c, 0, 61, 100
2, 5760, Note_on_c, 0, 52, 100
2, 5874, Note_on_c, 0, 52, 0
2, 5874, Note_on_c, 0, 61, 0
2, 5880, Note_on_c, 0, 57, 100
2, 5880, Note_on_c, 0, 54, 100
2, 5994, Note_on_c, 0, 54, 0
2, 5994, Note_on_c, 0, 57, 0
2, 6000, Note_on_c, 0, 52, 100
2, 6000, Note_on_c, 0, 61, 100
2, 6520, Control_c, 0, 7, 95
2, 6600, Control_c, 0, 7, 94
2, 6680, Control_c, 0, 7, 93
2, 6696, Note_on_c, 0, 45, 0
2, 6696, Note_on_c, 0, 69, 0
2, 6708, Note_on_c, 0, 61, 0
2, 6708, Note_on_c, 0, 52, 0
2, 6720, Control_c, 0, 7, 92
2, 6720, Note_on_c, 0, 69, 100
2, 6720, Note_on_c, 0, 61, 100
2, 6720, Note_on_c, 0, 45, 100
2, 6720, Note_on_c, 0, 52, 100
2, 6800, Control_c, 0, 7, 91
2, 6834, Note_on_c, 0, 52, 0
2, 6834, Note_on_c, 0, 61, 0
2, 6840, Note_on_c, 0, 57, 100
2, 6840, Note_on_c, 0, 54, 100
2, 6880, Control_c, 0, 7, 90
2, 6920, Control_c, 0, 7, 89
2, 6954, Note_on_c, 0, 54, 0
2, 6954, Note_on_c, 0, 57, 0
2, 6960, Note_on_c, 0, 52, 100
2, 6960, Note_on_c, 0, 61, 100
2, 7000, Control_c, 0, 7, 88
2, 7080, Control_c, 0, 7, 87
2, 7160, Control_c, 0, 7, 86
2, 7200, Control_c, 0, 7, 85
2, 7280, Control_c, 0, 7, 84
2, 7360, Control_c, 0, 7, 83
2, 7400, Control_c, 0, 7, 82
2, 7480, Control_c, 0, 7, 81
2, 7560, Control_c, 0, 7, 80
2, 7656, Note_on_c, 0, 45, 0
2, 7656, Note_on_c, 0, 69, 0
2, 7668, Note_on_c, 0, 61, 0
2, 7668, Note_on_c, 0, 52, 0
2, 7680, Note_on_c, 0, 62, 100
2, 7680, Note_on_c, 0, 66, 100
2, 7680, Note_on_c, 0, 50, 100
2, 7680, Note_on_c, 0, 57, 100
2, 8136, Note_on_c, 0, 57, 0
2, 8136, Note_on_c, 0, 50, 0
2, 8136, Note_on_c, 0, 66, 0
2, 8136, Note_on_c, 0, 62, 0
2, 8160, Note_on_c, 0, 50, 100
2, 8160, Note_on_c, 0, 57, 100
2, 8160, Note_on_c, 0, 62, 100
2, 8160, Note_on_c, 0, 66, 100
2, 8388, Note_on_c, 0, 66, 0
2, 8388, Note_on_c, 0, 62, 0
2, 8388, Note_on_c, 0, 57, 0
2, 8388, Note_on_c, 0, 50, 0
2, 8400, Note_on_c, 0, 50, 100
2, 8400, Note_on_c, 0, 57, 100
2, 8400, Note_on_c, 0, 62, 100
2, 8400, Note_on_c, 0, 66, 100
2, 8628, Note_on_c, 0, 66, 0
2, 8628, Note_on_c, 0, 62, 0
2, 8628, Note_on_c, 0, 57, 0
2, 8628, Note_on_c, 0, 50, 0
2, 8640, Note_on_c, 0, 62, 100
2, 8640, Note_on_c, 0, 66, 100
2, 8640, Note_on_c, 0, 57, 100
2, 8640, Note_on_c, 0, 50, 100
2, 8982, Note_on_c, 0, 50, 0
2, 9000, Note_on_c, 0, 49, 100
2, 9057, Note_on_c, 0, 49, 0
2, 9060, Note_on_c, 0, 47, 100
2, 9117, Note_on_c, 0, 47, 0
2, 9120, Note_on_c, 0, 45, 100
2, 9576, Note_on_c, 0, 45, 0
2, 9576, Note_on_c, 0, 57, 0
2, 9576, Note_on_c, 0, 66, 0
2, 9576, Note_on_c, 0, 62, 0
2, 9600, Note_on_c, 0, 62, 100
2, 9600, Note_on_c, 0, 66, 100
2, 9600, Note_on_c, 0, 50, 100
2, 9600, Note_on_c, 0, 57, 100
2, 10056, Note_on_c, 0, 57, 0
2, 10056, Note_on_c, 0, 50, 0
2, 10056, Note_on_c, 0, 66, 0
2, 10056, Note_on_c, 0, 62, 0
2, 10080, Note_on_c, 0, 50, 100
2, 10080, Note_on_c, 0, 59, 100
2, 10080, Note_on_c, 0, 62, 100
2, 10080, Note_on_c, 0, 66, 100
2, 10308, Note_on_c, 0, 66, 0
2, 10308, Note_on_c, 0, 62, 0
2, 10308, Note_on_c, 0, 59, 0
2, 10308, Note_on_c, 0, 50, 0
2, 10320, Note_on_c, 0, 62, 100
2, 10320, Note_on_c, 0, 68, 100
2, 10320, Note_on_c, 0, 52, 100
2, 10320, Note_on_c, 0, 59, 100
2, 10548, Note_on_c, 0, 59, 0
2, 10548, Note_on_c, 0, 52, 0
2, 10548, Note_on_c, 0, 68, 0
2, 10548, Note_on_c, 0, 62, 0
2, 10560, Note_on_c, 0, 61, 100
2, 10560, Note_on_c, 0, 69, 100
2, 10560, Note_on_c, 0, 45, 100
2, 10560, Note_on_c, 0, 57, 100
2, 10560, Note_on_c, 0, 52, 100
2, 11016, Note_on_c, 0, 52, 0
2, 11016, Note_on_c, 0, 57, 0
2, 11016, Note_on_c, 0, 45, 0
2, 11016, Note_on_c, 0, 69, 0
2, 11016, Note_on_c, 0, 61, 0
2, 11040, Note_on_c, 0, 64, 100
2, 11040, Note_on_c, 0, 73, 100
2, 11040, Note_on_c, 0, 52, 100
2, 11040, Note_on_c, 0, 45, 100
2, 11268, Note_on_c, 0, 45, 0
2, 11268, Note_on_c, 0, 52, 0
2, 11268, Note_on_c, 0, 73, 0
2, 11268, Note_on_c, 0, 64, 0
2, 11520, Note_on_c, 0, 62, 100
2, 11520, Note_on_c, 0, 66, 100
2, 11520, Note_on_c, 0, 50, 100
2, 11520, Note_on_c, 0, 57, 100
2, 11976, Note_on_c, 0, 57, 0
2, 11976, Note_on_c, 0, 50, 0
2, 11976, Note_on_c, 0, 66, 0
2, 11976, Note_on_c, 0, 62, 0
2, 12000, Note_on_c, 0, 50, 100
2, 12000, Note_on_c, 0, 57, 100
2, 12000, Note_on_c, 0, 62, 100
2, 12000, Note_on_c, 0, 66, 100
2, 12228, Note_on_c, 0, 66, 0
2, 12228, Note_on_c, 0, 62, 0
2, 12228, Note_on_c, 0, 57, 0
2, 12228, Note_on_c, 0, 50, 0
2, 12240, Note_on_c, 0, 62, 100
2, 12240, Note_on_c, 0, 66, 100
2, 12240, Note_on_c, 0, 50, 100
2, 12240, Note_on_c, 0, 57, 100
2, 12468, Note_on_c, 0, 57, 0
2, 12468, Note_on_c, 0, 50, 0
2, 12468, Note_on_c, 0, 66, 0
2, 12468, Note_on_c, 0, 62, 0
2, 12480, Note_on_c, 0, 62, 100
2, 12480, Note_on_c, 0, 66, 100
2, 12480, Note_on_c, 0, 57, 100
2, 12480, Note_on_c, 0, 50, 100
2, 12822, Note_on_c, 0, 50, 0
2, 12840, Note_on_c, 0, 49, 100
2, 12897, Note_on_c, 0, 49, 0
2, 12900, Note_on_c, 0, 47, 100
2, 12957, Note_on_c, 0, 47, 0
2, 12960, Note_on_c, 0, 45, 100
2, 13416, Note_on_c, 0, 45, 0
2, 13416, Note_on_c, 0, 57, 0
2, 13416, Note_on_c, 0, 66, 0
2, 13416, Note_on_c, 0, 62, 0
2, 13440, Note_on_c, 0, 62, 100
2, 13440, Note_on_c, 0, 66, 100
2, 13440, Note_on_c, 0, 47, 100
2, 13440, Note_on_c, 0, 54, 100
2, 13896, Note_on_c, 0, 54, 0
2, 13896, Note_on_c, 0, 47, 0
2, 13896, Note_on_c, 0, 66, 0
2, 13896, Note_on_c, 0, 62, 0
2, 13920, Note_on_c, 0, 62, 100
2, 13920, Note_on_c, 0, 66, 100
2, 13920, Note_on_c, 0, 47, 100
2, 13920, Note_on_c, 0, 54, 100
2, 13920, Note_on_c, 0, 59, 100
2, 14148, Note_on_c, 0, 59, 0
2, 14148, Note_on_c, 0, 54, 0
2, 14148, Note_on_c, 0, 47, 0
2, 14148, Note_on_c, 0, 66, 0
2, 14148, Note_on_c, 0, 62, 0
2, 14160, Note_on_c, 0, 62, 100
2, 14160, Note_on_c, 0, 66, 100
2, 14160, Note_on_c, 0, 47, 100
2, 14160, Note_on_c, 0, 54, 100
2, 14160, Note_on_c, 0, 59, 100
2, 14388, Note_on_c, 0, 59, 0
2, 14388, Note_on_c, 0, 54, 0
2, 14388, Note_on_c, 0, 47, 0
2, 14388, Note_on_c, 0, 66, 0
2, 14388, Note_on_c, 0, 62, 0
2, 14400, Note_on_c, 0, 42, 100
2, 14400, Note_on_c, 0, 54, 100
2, 14400, Note_on_c, 0, 58, 100
2, 14400, Note_on_c, 0, 61, 100
2, 14400, Note_on_c, 0, 66, 100
2, 15336, Note_on_c, 0, 66, 0
2, 15336, Note_on_c, 0, 61, 0
2, 15336, Note_on_c, 0, 58, 0
2, 15336, Note_on_c, 0, 54, 0
2, 15336, Note_on_c, 0, 42, 0
2, 15360, Note_on_c, 0, 61, 100
2, 15360, Note_on_c, 0, 64, 100
2, 15360, Note_on_c, 0, 66, 100
2, 15360, Note_on_c, 0, 58, 100
2, 15520, Control_c, 0, 7, 81
2, 15588, Note_on_c, 0, 58, 0
2, 15588, Note_on_c, 0, 66, 0
2, 15588, Note_on_c, 0, 64, 0
2, 15588, Note_on_c, 0, 61, 0
2, 15600, Note_on_c, 0, 61, 100
2, 15600, Note_on_c, 0, 64, 100
2, 15600, Note_on_c, 0, 66, 100
2, 15600, Note_on_c, 0, 58, 100
2, 15800, Control_c, 0, 7, 82
2, 15828, Note_on_c, 0, 58, 0
2, 15828, Note_on_c, 0, 66, 0
2, 15828, Note_on_c, 0, 64, 0
2, 15828, Note_on_c, 0, 61, 0
2, 15840, Note_on_c, 0, 61, 100
2, 15840, Note_on_c, 0, 64, 100
2, 15840, Note_on_c, 0, 66, 100
2, 15840, Note_on_c, 0, 58, 100
2, 16068, Note_on_c, 0, 58, 0
2, 16068, Note_on_c, 0, 66, 0
2, 16068, Note_on_c, 0, 64, 0
2, 16068, Note_on_c, 0, 61, 0
2, 16080, Note_on_c, 0, 58, 100
2, 16080, Note_on_c, 0, 61, 100
2, 16080, Note_on_c, 0, 64, 100
2, 16080, Note_on_c, 0, 66, 100
2, 16120, Control_c, 0, 7, 83
2, 16308, Note_on_c, 0, 66, 0
2, 16308, Note_on_c, 0, 64, 0
2, 16308, Note_on_c, 0, 61, 0
2, 16308, Note_on_c, 0, 58, 0
2, 16320, Note_on_c, 0, 62, 100
2, 16320, Note_on_c, 0, 66, 100
2, 16320, Note_on_c, 0, 59, 100
2, 16400, Control_c, 0, 7, 84
2, 16548, Note_on_c, 0, 59, 0
2, 16548, Note_on_c, 0, 66, 0
2, 16548, Note_on_c, 0, 62, 0
2, 16560, Note_on_c, 0, 59, 100
2, 16560, Note_on_c, 0, 62, 100
2, 16560, Note_on_c, 0, 66, 100
2, 16680, Control_c, 0, 7, 85
2, 16788, Note_on_c, 0, 66, 0
2, 16788, Note_on_c, 0, 62, 0
2, 16788, Note_on_c, 0, 59, 0
2, 16800, Note_on_c, 0, 59, 100
2, 16800, Note_on_c, 0, 62, 100
2, 16800, Note_on_c, 0, 67, 100
2, 16960, Control_c, 0, 7, 86
2, 17028, Note_on_c, 0, 67, 0
2, 17028, Note_on_c, 0, 62, 0
2, 17028, Note_on_c, 0, 59, 0
2, 17040, Note_on_c, 0, 59, 100
2, 17040, Note_on_c, 0, 62, 100
2, 17040, Note_on_c, 0, 67, 100
2, 17240, Control_c, 0, 7, 87
2, 17268, Note_on_c, 0, 67, 0
2, 17268, Note_on_c, 0, 62, 0
2, 17268, Note_on_c, 0, 59, 0
2, 17280, Note_on_c, 0, 64, 100
2, 17280, Note_on_c, 0, 67, 100
2, 17280, Note_on_c, 0, 69, 100
2, 17280, Note_on_c, 0, 61, 100
2, 17508, Note_on_c, 0, 61, 0
2, 17508, Note_on_c, 0, 69, 0
2, 17508, Note_on_c, 0, 67, 0
2, 17508, Note_on_c, 0, 64, 0
2, 17520, Note_on_c, 0, 61, 100
2, 17520, Note_on_c, 0, 64, 100
2, 17520, Note_on_c, 0, 67, 100
2, 17520, Note_on_c, 0, 69, 100
2, 17560, Control_c, 0, 7, 88
2, 17748, Note_on_c, 0, 69, 0
2, 17748, Note_on_c, 0, 67, 0
2, 17748, Note_on_c, 0, 64, 0
2, 17748, Note_on_c, 0, 61, 0
2, 17760, Note_on_c, 0, 61, 100
2, 17760, Note_on_c, 0, 64, 100
2, 17760, Note_on_c, 0, 67, 100
2, 17760, Note_on_c, 0, 69, 100
2, 17840, Control_c, 0, 7, 89
2, 17988, Note_on_c, 0, 69, 0
2, 17988, Note_on_c, 0, 67, 0
2, 17988, Note_on_c, 0, 64, 0
2, 17988, Note_on_c, 0, 61, 0
2, 18000, Note_on_c, 0, 61, 100
2, 18000, Note_on_c, 0, 64, 100
2, 18000, Note_on_c, 0, 67, 100
2, 18000, Note_on_c, 0, 69, 100
2, 18120, Control_c, 0, 7, 90
2, 18228, Note_on_c, 0, 69, 0
2, 18228, Note_on_c, 0, 67, 0
2, 18228, Note_on_c, 0, 64, 0
2, 18228, Note_on_c, 0, 61, 0
2, 18240, Note_on_c, 0, 62, 100
2, 18240, Note_on_c, 0, 66, 100
2, 18240, Note_on_c, 0, 69, 100
2, 18696, Note_on_c, 0, 66, 0
2, 18696, Note_on_c, 0, 62, 0
2, 18720, Control_c, 0, 7, 80
2, 18720, Note_on_c, 0, 64, 100
2, 18720, Note_on_c, 0, 61, 100
2, 18720, Note_on_c, 0, 57, 100
2, 19176, Note_on_c, 0, 61, 0
2, 19176, Note_on_c, 0, 64, 0
2, 19176, Note_on_c, 0, 69, 0
2, 19200, Note_on_c, 0, 62, 100
2, 19200, Note_on_c, 0, 66, 100
2, 19200, Note_on_c, 0, 50, 100
2, 19656, Note_on_c, 0, 57, 0
2, 19656, Note_on_c, 0, 50, 0
2, 19656, Note_on_c, 0, 66, 0
2, 19656, Note_on_c, 0, 62, 0
2, 19680, Note_on_c, 0, 50, 100
2, 19680, Note_on_c, 0, 57, 100
2, 19680, Note_on_c, 0, 62, 100
2, 19680, Note_on_c, 0, 66, 100
2, 19908, Note_on_c, 0, 66, 0
2, 19908, Note_on_c, 0, 62, 0
2, 19908, Note_on_c, 0, 57, 0
2, 19908, Note_on_c, 0, 50, 0
2, 19920, Note_on_c, 0, 62, 100
2, 19920, Note_on_c, 0, 66, 100
2, 19920, Note_on_c, 0, 50, 100
2, 19920, Note_on_c, 0, 57, 100
2, 20148, Note_on_c, 0, 57, 0
2, 20148, Note_on_c, 0, 50, 0
2, 20148, Note_on_c, 0, 66, 0
2, 20148, Note_on_c, 0, 62, 0
2, 20160, Note_on_c, 0, 62, 100
2, 20160, Note_on_c, 0, 66, 100
2, 20160, Note_on_c, 0, 57, 100
2, 20160, Note_on_c, 0, 50, 100
2, 20502, Note_on_c, 0, 50, 0
2, 20520, Note_on_c, 0, 49, 100
2, 20577, Note_on_c, 0, 49, 0
2, 20580, Note_on_c, 0, 47, 100
2, 20637, Note_on_c, 0, 47, 0
2, 20640, Note_on_c, 0, 45, 100
2, 21096, Note_on_c, 0, 45, 0
2, 21096, Note_on_c, 0, 57, 0
2, 21096, Note_on_c, 0, 66, 0
2, 21096, Note_on_c, 0, 62, 0
2, 21120, Note_on_c, 0, 62, 100
2, 21120, Note_on_c, 0, 66, 100
2, 21120, Note_on_c, 0, 50, 100
2, 21120, Note_on_c, 0, 57, 100
2, 21576, Note_on_c, 0, 57, 0
2, 21576, Note_on_c, 0, 50, 0
2, 21576, Note_on_c, 0, 66, 0
2, 21576, Note_on_c, 0, 62, 0
2, 21600, Note_on_c, 0, 62, 100
2, 21600, Note_on_c, 0, 66, 100
2, 21600, Note_on_c, 0, 50, 100
2, 21600, Note_on_c, 0, 59, 100
2, 21828, Note_on_c, 0, 59, 0
2, 21828, Note_on_c, 0, 50, 0
2, 21828, Note_on_c, 0, 66, 0
2, 21828, Note_on_c, 0, 62, 0
2, 21840, Note_on_c, 0, 62, 100
2, 21840, Note_on_c, 0, 68, 100
2, 21840, Note_on_c, 0, 52, 100
2, 21840, Note_on_c, 0, 59, 100
2, 22068, Note_on_c, 0, 59, 0
2, 22068, Note_on_c, 0, 52, 0
2, 22068, Note_on_c, 0, 68, 0
2, 22068, Note_on_c, 0, 62, 0
2, 22080, Note_on_c, 0, 61, 100
2, 22080, Note_on_c, 0, 69, 100
2, 22080, Note_on_c, 0, 45, 100
2, 22080, Note_on_c, 0, 57, 100
2, 22080, Note_on_c, 0, 52, 100
2, 22536, Note_on_c, 0, 52, 0
2, 22536, Note_on_c, 0, 57, 0
2, 22536, Note_on_c, 0, 45, 0
2, 22536, Note_on_c, 0, 69, 0
2, 22536, Note_on_c, 0, 61, 0
2, 22560, Note_on_c, 0, 64, 100
2, 22560, Note_on_c, 0, 73, 100
2, 22560, Note_on_c, 0, 52, 100
2, 22560, Note_on_c, 0, 45, 100
2, 22788, Note_on_c, 0, 45, 0
2, 22788, Note_on_c, 0, 52, 0
2, 22788, Note_on_c, 0, 73, 0
2, 22788, Note_on_c, 0, 64, 0
2, 23040, Note_on_c, 0, 62, 100
2, 23040, Note_on_c, 0, 66, 100
2, 23040, Note_on_c, 0, 50, 100
2, 23040, Note_on_c, 0, 57, 100
2, 23496, Note_on_c, 0, 57, 0
2, 23496, Note_on_c, 0, 50, 0
2, 23496, Note_on_c, 0, 66, 0
2, 23496, Note_on_c, 0, 62, 0
2, 23520, Note_on_c, 0, 62, 100
2, 23520, Note_on_c, 0, 66, 100
2, 23520, Note_on_c, 0, 50, 100
2, 23520, Note_on_c, 0, 57, 100
2, 23748, Note_on_c, 0, 57, 0
2, 23748, Note_on_c, 0, 50, 0
2, 23748, Note_on_c, 0, 66, 0
2, 23748, Note_on_c, 0, 62, 0
2, 23760, Note_on_c, 0, 62, 100
2, 23760, Note_on_c, 0, 66, 100
2, 23760, Note_on_c, 0, 50, 100
2, 23760, Note_on_c, 0, 57, 100
2, 23988, Note_on_c, 0, 57, 0
2, 23988, Note_on_c, 0, 50, 0
2, 23988, Note_on_c, 0, 66, 0
2, 23988, Note_on_c, 0, 62, 0
2, 24000, Note_on_c, 0, 62, 100
2, 24000, Note_on_c, 0, 66, 100
2, 24000, Note_on_c, 0, 50, 100
2, 24000, Note_on_c, 0, 57, 100
2, 24456, Note_on_c, 0, 57, 0
2, 24456, Note_on_c, 0, 50, 0
2, 24456, Note_on_c, 0, 66, 0
2, 24456, Note_on_c, 0, 62, 0
2, 24480, Note_on_c, 0, 62, 100
2, 24480, Note_on_c, 0, 66, 100
2, 24480, Note_on_c, 0, 50, 100
2, 24480, Note_on_c, 0, 57, 100
2, 24708, Note_on_c, 0, 57, 0
2, 24708, Note_on_c, 0, 50, 0
2, 24708, Note_on_c, 0, 66, 0
2, 24708, Note_on_c, 0, 62, 0
2, 24720, Note_on_c, 0, 62, 100
2, 24720, Note_on_c, 0, 66, 100
2, 24720, Note_on_c, 0, 50, 100
2, 24720, Note_on_c, 0, 57, 100
2, 24948, Note_on_c, 0, 57, 0
2, 24948, Note_on_c, 0, 50, 0
2, 24948, Note_on_c, 0, 66, 0
2, 24948, Note_on_c, 0, 62, 0
2, 24960, Note_on_c, 0, 62, 127
2, 24960, Note_on_c, 0, 67, 127
2, 24960, Note_on_c, 0, 43, 100
2, 24960, Note_on_c, 0, 58, 127
2, 25416, Note_on_c, 0, 58, 0
2, 25416, Note_on_c, 0, 43, 0
2, 25416, Note_on_c, 0, 67, 0
2, 25416, Note_on_c, 0, 62, 0
2, 25440, Note_on_c, 0, 61, 100
2, 25440, Note_on_c, 0, 67, 100
2, 25440, Note_on_c, 0, 57, 100
2, 25440, Note_on_c, 0, 45, 100
2, 25668, Note_on_c, 0, 45, 0
2, 25668, Note_on_c, 0, 57, 0
2, 25668, Note_on_c, 0, 67, 0
2, 25668, Note_on_c, 0, 61, 0
2, 25680, Note_on_c, 0, 61, 100
2, 25680, Note_on_c, 0, 67, 100
2, 25680, Note_on_c, 0, 57, 100
2, 25680, Note_on_c, 0, 45, 100
2, 25908, Note_on_c, 0, 45, 0
2, 25908, Note_on_c, 0, 57, 0
2, 25908, Note_on_c, 0, 67, 0
2, 25908, Note_on_c, 0, 61, 0
2, 25920, Note_on_c, 0, 66, 100
2, 25920, Note_on_c, 0, 57, 100
2, 25920, Note_on_c, 0, 62, 100
2, 25920, Note_on_c, 0, 50, 100
2, 26376, Note_on_c, 0, 50, 0
2, 26400, Note_on_c, 0, 38, 100
2, 26856, Note_on_c, 0, 62, 0
2, 26856, Note_on_c, 0, 57, 0
2, 26856, Note_on_c, 0, 66, 0
2, 26856, Note_on_c, 0, 38, 0
2, 26880, Control_c, 0, 7, 96
2, 26880, Control_c, 0, 0, 0
2, 26880, Control_c, 0, 32, 0
2, 26880, Program_c, 0, 0
2, 26880, Control_c, 0, 1, 0
2, 26880, Control_c, 0, 10, 64
2, 26880, Control_c, 0, 91, 0
2, 26880, Control_c, 0, 93, 0
2, 26880, Key_signature, 2, "major"
2, 26880, Key_signature, 2, "major"
2, 26880, Note_on_c, 0, 67, 100
2, 26880, Note_on_c, 0, 50, 100
2, 26880, Note_on_c, 0, 57, 100
2, 26880, Note_on_c, 0, 69, 100
2, 27222, Note_on_c, 0, 67, 0
2, 27240, Note_on_c, 0, 66, 100
2, 27354, Note_on_c, 0, 66, 0
2, 27360, Note_on_c, 0, 64, 100
2, 27474, Note_on_c, 0, 64, 0
2, 27480, Note_on_c, 0, 66, 100
2, 27594, Note_on_c, 0, 66, 0
2, 27600, Note_on_c, 0, 62, 100
2, 27816, Note_on_c, 0, 69, 0
2, 27816, Note_on_c, 0, 57, 0
2, 27816, Note_on_c, 0, 50, 0
2, 27828, Note_on_c, 0, 62, 0
2, 27840, Note_on_c, 0, 50, 100
2, 27840, Note_on_c, 0, 57, 100
2, 27840, Note_on_c, 0, 67, 100
2, 27840, Note_on_c, 0, 69, 100
2, 28182, Note_on_c, 0, 67, 0
2, 28200, Note_on_c, 0, 66, 100
2, 28314, Note_on_c, 0, 66, 0
2, 28320, Note_on_c, 0, 64, 100
2, 28434, Note_on_c, 0, 64, 0
2, 28440, Note_on_c, 0, 66, 100
2, 28554, Note_on_c, 0, 66, 0
2, 28560, Note_on_c, 0, 62, 100
2, 28776, Note_on_c, 0, 69, 0
2, 28776, Note_on_c, 0, 57, 0
2, 28776, Note_on_c, 0, 50, 0
2, 28788, Note_on_c, 0, 62, 0
2, 28800, Note_on_c, 0, 68, 100
2, 28800, Note_on_c, 0, 65, 100
2, 28800, Note_on_c, 0, 59, 100
2, 28800, Note_on_c, 0, 50, 100
2, 28914, Note_on_c, 0, 59, 0
2, 28914, Note_on_c, 0, 68, 0
2, 28920, Note_on_c, 0, 71, 100
2, 28920, Note_on_c, 0, 56, 100
2, 29028, Note_on_c, 0, 65, 0
2, 29034, Note_on_c, 0, 56, 0
2, 29034, Note_on_c, 0, 71, 0
2, 29040, Note_on_c, 0, 69, 100
2, 29040, Note_on_c, 0, 66, 100
2, 29040, Note_on_c, 0, 57, 100
2, 29736, Note_on_c, 0, 50, 0
2, 29748, Note_on_c, 0, 57, 0
2, 29748, Note_on_c, 0, 66, 0
2, 29748, Note_on_c, 0, 69, 0
2, 29760, Note_on_c, 0, 68, 100
2, 29760, Note_on_c, 0, 65, 100
2, 29760, Note_on_c, 0, 59, 100
2, 29760, Note_on_c, 0, 50, 100
2, 29874, Note_on_c, 0, 59, 0
2, 29874, Note_on_c, 0, 68, 0
2, 29880, Note_on_c, 0, 71, 100
2, 29880, Note_on_c, 0, 56, 100
2, 29988, Note_on_c, 0, 65, 0
2, 29994, Note_on_c, 0, 56, 0
2, 29994, Note_on_c, 0, 71, 0
2, 30000, Note_on_c, 0, 69, 100
2, 30000, Note_on_c, 0, 66, 100
2, 30000, Note_on_c, 0, 57, 100
2, 30696, Note_on_c, 0, 50, 0
2, 30708, Note_on_c, 0, 57, 0
2, 30708, Note_on_c, 0, 66, 0
2, 30708, Note_on_c, 0, 69, 0
2, 30720, Note_on_c, 0, 50, 100
2, 30720, Note_on_c, 0, 57, 100
2, 30720, Note_on_c, 0, 67, 100
2, 30720, Note_on_c, 0, 69, 100
2, 31062, Note_on_c, 0, 67, 0
2, 31080, Note_on_c, 0, 66, 100
2, 31194, Note_on_c, 0, 66, 0
2, 31200, Note_on_c, 0, 64, 100
2, 31314, Note_on_c, 0, 64, 0
2, 31320, Note_on_c, 0, 66, 100
2, 31434, Note_on_c, 0, 66, 0
2, 31440, Note_on_c, 0, 62, 100
2, 31656, Note_on_c, 0, 69, 0
2, 31656, Note_on_c, 0, 57, 0
2, 31656, Note_on_c, 0, 50, 0
2, 31668, Note_on_c, 0, 62, 0
2, 31680, Note_on_c, 0, 67, 100
2, 31680, Note_on_c, 0, 69, 100
2, 31680, Note_on_c, 0, 50, 100
2, 31680, Note_on_c, 0, 57, 100
2, 32022, Note_on_c, 0, 67, 0
2, 32040, Note_on_c, 0, 66, 100
2, 32154, Note_on_c, 0, 66, 0
2, 32160, Note_on_c, 0, 64, 100
2, 32274, Note_on_c, 0, 64, 0
2, 32280, Note_on_c, 0, 66, 100
2, 32394, Note_on_c, 0, 66, 0
2, 32400, Note_on_c, 0, 62, 100
2, 32616, Note_on_c, 0, 57, 0
2, 32616, Note_on_c, 0, 50, 0
2, 32616, Note_on_c, 0, 69, 0
2, 32628, Note_on_c, 0, 62, 0
2, 32640, Note_on_c, 0, 69, 100
2, 32640, Note_on_c, 0, 45, 100
2, 32640, Note_on_c, 0, 61, 100
2, 32640, Note_on_c, 0, 52, 100
2, 32754, Note_on_c, 0, 52, 0
2, 32754, Note_on_c, 0, 61, 0
2, 32760, Note_on_c, 0, 57, 100
2, 32760, Note_on_c, 0, 54, 100
2, 32874, Note_on_c, 0, 54, 0
2, 32874, Note_on_c, 0, 57, 0
2, 32880, Note_on_c, 0, 52, 100
2, 32880, Note_on_c, 0, 61, 100
2, 33400, Control_c, 0, 7, 95
2, 33480, Control_c, 0, 7, 94
2, 33560, Control_c, 0, 7, 93
2, 33576, Note_on_c, 0, 45, 0
2, 33576, Note_on_c, 0, 69, 0
2, 33588, Note_on_c, 0, 61, 0
2, 33588, Note_on_c, 0, 52, 0
2, 33600, Note_on_c, 0, 69, 100
2, 33600, Note_on_c, 0, 61, 100
2, 33600, Note_on_c, 0, 45, 100
2, 33600, Note_on_c, 0, 52, 100
2, 33600, Control_c, 0, 7, 92
2, 33680, Control_c, 0, 7, 91
2, 33714, Note_on_c, 0, 52, 0
2, 33714, Note_on_c, 0, 61, 0
2, 33720, Note_on_c, 0, 57, 100
2, 33720, Note_on_c, 0, 54, 100
2, 33760, Control_c, 0, 7, 90
2, 33800, Control_c, 0, 7, 89
2, 33834, Note_on_c, 0, 54, 0
2, 33834, Note_on_c, 0, 57, 0
2, 33840, Note_on_c, 0, 52, 100
2, 33840, Note_on_c, 0, 61, 100
2, 33880, Control_c, 0, 7, 88
2, 33960, Control_c, 0, 7, 87
2, 34040, Control_c, 0, 7, 86
2, 34080, Control_c, 0, 7, 85
2, 34160, Control_c, 0, 7, 84
2, 34240, Control_c, 0, 7, 83
2, 34280, Control_c, 0, 7, 82
2, 34360, Control_c, 0, 7, 81
2, 34440, Control_c, 0, 7, 80
2, 34536, Note_on_c, 0, 45, 0
2, 34536, Note_on_c, 0, 69, 0
2, 34548, Note_on_c, 0, 61, 0
2, 34548, Note_on_c, 0, 52, 0
2, 34560, Note_on_c, 0, 62, 100
2, 34560, Note_on_c, 0, 66, 100
2, 34560, Note_on_c, 0, 50, 100
2, 34560, Note_on_c, 0, 57, 100
2, 35016, Note_on_c, 0, 57, 0
2, 35016, Note_on_c, 0, 50, 0
2, 35016, Note_on_c, 0, 66, 0
2, 35016, Note_on_c, 0, 62, 0
2, 35040, Note_on_c, 0, 50, 100
2, 35040, Note_on_c, 0, 57, 100
2, 35040, Note_on_c, 0, 62, 100
2, 35040, Note_on_c, 0, 66, 100
2, 35268, Note_on_c, 0, 66, 0
2, 35268, Note_on_c, 0, 62, 0
2, 35268, Note_on_c, 0, 57, 0
2, 35268, Note_on_c, 0, 50, 0
2, 35280, Note_on_c, 0, 50, 100
2, 35280, Note_on_c, 0, 57, 100
2, 35280, Note_on_c, 0, 62, 100
2, 35280, Note_on_c, 0, 66, 100
2, 35508, Note_on_c, 0, 66, 0
2, 35508, Note_on_c, 0, 62, 0
2, 35508, Note_on_c, 0, 57, 0
2, 35508, Note_on_c, 0, 50, 0
2, 35520, Note_on_c, 0, 62, 100
2, 35520, Note_on_c, 0, 66, 100
2, 35520, Note_on_c, 0, 57, 100
2, 35520, Note_on_c, 0, 50, 100
2, 35862, Note_on_c, 0, 50, 0
2, 35880, Note_on_c, 0, 49, 100
2, 35937, Note_on_c, 0, 49, 0
2, 35940, Note_on_c, 0, 47, 100
2, 35997, Note_on_c, 0, 47, 0
2, 36000, Note_on_c, 0, 45, 100
2, 36456, Note_on_c, 0, 57, 0
2, 36456, Note_on_c, 0, 66, 0
2, 36456, Note_on_c, 0, 62, 0
2, 36456, Note_on_c, 0, 45, 0
2, 36480, Note_on_c, 0, 62, 100
2, 36480, Note_on_c, 0, 66, 100
2, 36480, Note_on_c, 0, 50, 100
2, 36480, Note_on_c, 0, 57, 100
2, 36936, Note_on_c, 0, 57, 0
2, 36936, Note_on_c, 0, 50, 0
2, 36936, Note_on_c, 0, 66, 0
2, 36936, Note_on_c, 0, 62, 0
2, 36960, Note_on_c, 0, 50, 100
2, 36960, Note_on_c, 0, 59, 100
2, 36960, Note_on_c, 0, 62, 100
2, 36960, Note_on_c, 0, 66, 100
2, 37188, Note_on_c, 0, 66, 0
2, 37188, Note_on_c, 0, 62, 0
2, 37188, Note_on_c, 0, 59, 0
2, 37188, Note_on_c, 0, 50, 0
2, 37200, Note_on_c, 0, 62, 100
2, 37200, Note_on_c, 0, 68, 100
2, 37200, Note_on_c, 0, 52, 100
2, 37200, Note_on_c, 0, 59, 100
2, 37428, Note_on_c, 0, 59, 0
2, 37428, Note_on_c, 0, 52, 0
2, 37428, Note_on_c, 0, 68, 0
2, 37428, Note_on_c, 0, 62, 0
2, 37440, Note_on_c, 0, 61, 100
2, 37440, Note_on_c, 0, 69, 100
2, 37440, Note_on_c, 0, 45, 100
2, 37440, Note_on_c, 0, 57, 100
2, 37440, Note_on_c, 0, 52, 100
2, 37896, Note_on_c, 0, 52, 0
2, 37896, Note_on_c, 0, 57, 0
2, 37896, Note_on_c, 0, 45, 0
2, 37896, Note_on_c, 0, 69, 0
2, 37896, Note_on_c, 0, 61, 0
2, 37920, Note_on_c, 0, 64, 100
2, 37920, Note_on_c, 0, 73, 100
2, 37920, Note_on_c, 0, 52, 100
2, 37920, Note_on_c, 0, 45, 100
2, 38148, Note_on_c, 0, 45, 0
2, 38148, Note_on_c, 0, 52, 0
2, 38148, Note_on_c, 0, 73, 0
2, 38148, Note_on_c, 0, 64, 0
2, 38400, Note_on_c, 0, 62, 100
2, 38400, Note_on_c, 0, 66, 100
2, 38400, Note_on_c, 0, 50, 100
2, 38400, Note_on_c, 0, 57, 100
2, 38856, Note_on_c, 0, 57, 0
2, 38856, Note_on_c, 0, 50, 0
2, 38856, Note_on_c, 0, 66, 0
2, 38856, Note_on_c, 0, 62, 0
2, 38880, Note_on_c, 0, 50, 100
2, 38880, Note_on_c, 0, 57, 100
2, 38880, Note_on_c, 0, 62, 100
2, 38880, Note_on_c, 0, 66, 100
2, 39108, Note_on_c, 0, 66, 0
2, 39108, Note_on_c, 0, 62, 0
2, 39108, Note_on_c, 0, 57, 0
2, 39108, Note_on_c, 0, 50, 0
2, 39120, Note_on_c, 0, 62, 100
2, 39120, Note_on_c, 0, 66, 100
2, 39120, Note_on_c, 0, 50, 100
2, 39120, Note_on_c, 0, 57, 100
2, 39348, Note_on_c, 0, 57, 0
2, 39348, Note_on_c, 0, 50, 0
2, 39348, Note_on_c, 0, 66, 0
2, 39348, Note_on_c, 0, 62, 0
2, 39360, Note_on_c, 0, 62, 100
2, 39360, Note_on_c, 0, 66, 100
2, 39360, Note_on_c, 0, 57, 100
2, 39360, Note_on_c, 0, 50, 100
2, 39702, Note_on_c, 0, 50, 0
2, 39720, Note_on_c, 0, 49, 100
2, 39777, Note_on_c, 0, 49, 0
2, 39780, Note_on_c, 0, 47, 100
2, 39837, Note_on_c, 0, 47, 0
2, 39840, Note_on_c, 0, 45, 100
2, 40296, Note_on_c, 0, 45, 0
2, 40296, Note_on_c, 0, 57, 0
2, 40296, Note_on_c, 0, 66, 0
2, 40296, Note_on_c, 0, 62, 0
2, 40320, Note_on_c, 0, 62, 100
2, 40320, Note_on_c, 0, 66, 100
2, 40320, Note_on_c, 0, 47, 100
2, 40320, Note_on_c, 0, 54, 100
2, 40776, Note_on_c, 0, 54, 0
2, 40776, Note_on_c, 0, 47, 0
2, 40776, Note_on_c, 0, 66, 0
2, 40776, Note_on_c, 0, 62, 0
2, 40800, Note_on_c, 0, 62, 100
2, 40800, Note_on_c, 0, 66, 100
2, 40800, Note_on_c, 0, 47, 100
2, 40800, Note_on_c, 0, 54, 100
2, 40800, Note_on_c, 0, 59, 100
2, 41028, Note_on_c, 0, 59, 0
2, 41028, Note_on_c, 0, 54, 0
2, 41028, Note_on_c, 0, 47, 0
2, 41028, Note_on_c, 0, 66, 0
2, 41028, Note_on_c, 0, 62, 0
2, 41040, Note_on_c, 0, 62, 100
2, 41040, Note_on_c, 0, 66, 100
2, 41040, Note_on_c, 0, 47, 100
2, 41040, Note_on_c, 0, 54, 100
2, 41040, Note_on_c, 0, 59, 100
2, 41268, Note_on_c, 0, 59, 0
2, 41268, Note_on_c, 0, 54, 0
2, 41268, Note_on_c, 0, 47, 0
2, 41268, Note_on_c, 0, 66, 0
2, 41268, Note_on_c, 0, 62, 0
2, 41280, Note_on_c, 0, 42, 100
2, 41280, Note_on_c, 0, 54, 100
2, 41280, Note_on_c, 0, 58, 100
2, 41280, Note_on_c, 0, 61, 100
2, 41280, Note_on_c, 0, 66, 100
2, 42216, Note_on_c, 0, 66, 0
2, 42216, Note_on_c, 0, 61, 0
2, 42216, Note_on_c, 0, 58, 0
2, 42216, Note_on_c, 0, 54, 0
2, 42216, Note_on_c, 0, 42, 0
2, 42240, Note_on_c, 0, 61, 100
2, 42240, Note_on_c, 0, 64, 100
2, 42240, Note_on_c, 0, 66, 100
2, 42240, Note_on_c, 0, 58, 100
2, 42400, Control_c, 0, 7, 81
2, 42468, Note_on_c, 0, 58, 0
2, 42468, Note_on_c, 0, 66, 0
2, 42468, Note_on_c, 0, 64, 0
2, 42468, Note_on_c, 0, 61, 0
2, 42480, Note_on_c, 0, 61, 100
2, 42480, Note_on_c, 0, 64, 100
2, 42480, Note_on_c, 0, 66, 100
2, 42480, Note_on_c, 0, 58, 100
2, 42680, Control_c, 0, 7, 82
2, 42708, Note_on_c, 0, 58, 0
2, 42708, Note_on_c, 0, 66, 0
2, 42708, Note_on_c, 0, 64, 0
2, 42708, Note_on_c, 0, 61, 0
2, 42720, Note_on_c, 0, 61, 100
2, 42720, Note_on_c, 0, 64, 100
2, 42720, Note_on_c, 0, 66, 100
2, 42720, Note_on_c, 0, 58, 100
2, 42948, Note_on_c, 0, 58, 0
2, 42948, Note_on_c, 0, 66, 0
2, 42948, Note_on_c, 0, 64, 0
2, 42948, Note_on_c, 0, 61, 0
2, 42960, Note_on_c, 0, 58, 100
2, 42960, Note_on_c, 0, 61, 100
2, 42960, Note_on_c, 0, 64, 100
2, 42960, Note_on_c, 0, 66, 100
2, 43000, Control_c, 0, 7, 83
2, 43188, Note_on_c, 0, 66, 0
2, 43188, Note_on_c, 0, 64, 0
2, 43188, Note_on_c, 0, 61, 0
2, 43188, Note_on_c, 0, 58, 0
2, 43200, Note_on_c, 0, 62, 100
2, 43200, Note_on_c, 0, 66, 100
2, 43200, Note_on_c, 0, 59, 100
2, 43280, Control_c, 0, 7, 84
2, 43428, Note_on_c, 0, 59, 0
2, 43428, Note_on_c, 0, 66, 0
2, 43428, Note_on_c, 0, 62, 0
2, 43440, Note_on_c, 0, 59, 100
2, 43440, Note_on_c, 0, 62, 100
2, 43440, Note_on_c, 0, 66, 100
2, 43560, Control_c, 0, 7, 85
2, 43668, Note_on_c, 0, 66, 0
2, 43668, Note_on_c, 0, 62, 0
2, 43668, Note_on_c, 0, 59, 0
2, 43680, Note_on_c, 0, 59, 100
2, 43680, Note_on_c, 0, 62, 100
2, 43680, Note_on_c, 0, 67, 100
2, 43840, Control_c, 0, 7, 86
2, 43908, Note_on_c, 0, 67, 0
2, 43908, Note_on_c, 0, 62, 0
2, 43908, Note_on_c, 0, 59, 0
2, 43920, Note_on_c, 0, 59, 100
2, 43920, Note_on_c, 0, 62, 100
2, 43920, Note_on_c, 0, 67, 100
2, 44120, Control_c, 0, 7, 87
2, 44148, Note_on_c, 0, 67, 0
2, 44148, Note_on_c, 0, 62, 0
2, 44148, Note_on_c, 0, 59, 0
2, 44160, Note_on_c, 0, 64, 100
2, 44160, Note_on_c, 0, 67, 100
2, 44160, Note_on_c, 0, 69, 100
2, 44160, Note_on_c, 0, 61, 100
2, 44388, Note_on_c, 0, 61, 0
2, 44388, Note_on_c, 0, 69, 0
2, 44388, Note_on_c, 0, 67, 0
2, 44388, Note_on_c, 0, 64, 0
2, 44400, Note_on_c, 0, 61, 100
2, 44400, Note_on_c, 0, 64, 100
2, 44400, Note_on_c, 0, 67, 100
2, 44400, Note_on_c, 0, 69, 100
2, 44440, Control_c, 0, 7, 88
2, 44628, Note_on_c, 0, 69, 0
2, 44628, Note_on_c, 0, 67, 0
2, 44628, Note_on_c, 0, 64, 0
2, 44628, Note_on_c, 0, 61, 0
2, 44640, Note_on_c, 0, 61, 100
2, 44640, Note_on_c, 0, 64, 100
2, 44640, Note_on_c, 0, 67, 100
2, 44640, Note_on_c, 0, 69, 100
2, 44720, Control_c, 0, 7, 89
2, 44868, Note_on_c, 0, 69, 0
2, 44868, Note_on_c, 0, 67, 0
2, 44868, Note_on_c, 0, 64, 0
2, 44868, Note_on_c, 0, 61, 0
2, 44880, Note_on_c, 0, 61, 100
2, 44880, Note_on_c, 0, 64, 100
2, 44880, Note_on_c, 0, 67, 100
2, 44880, Note_on_c, 0, 69, 100
2, 45000, Control_c, 0, 7, 90
2, 45108, Note_on_c, 0, 69, 0
2, 45108, Note_on_c, 0, 67, 0
2, 45108, Note_on_c, 0, 64, 0
2, 45108, Note_on_c, 0, 61, 0
2, 45120, Note_on_c, 0, 62, 100
2, 45120, Note_on_c, 0, 66, 100
2, 45120, Note_on_c, 0, 69, 100
2, 45576, Note_on_c, 0, 66, 0
2, 45576, Note_on_c, 0, 62, 0
2, 45600, Control_c, 0, 7, 80
2, 45600, Note_on_c, 0, 64, 100
2, 45600, Note_on_c, 0, 61, 100
2, 45600, Note_on_c, 0, 57, 100
2, 46056, Note_on_c, 0, 69, 0
2, 46056, Note_on_c, 0, 61, 0
2, 46056, Note_on_c, 0, 64, 0
2, 46080, Note_on_c, 0, 62, 100
2, 46080, Note_on_c, 0, 66, 100
2, 46080, Note_on_c, 0, 50, 100
2, 46536, Note_on_c, 0, 50, 0
2, 46536, Note_on_c, 0, 66, 0
2, 46536, Note_on_c, 0, 62, 0
2, 46536, Note_on_c, 0, 57, 0
2, 46560, Note_on_c, 0, 50, 100
2, 46560, Note_on_c, 0, 57, 100
2, 46560, Note_on_c, 0, 62, 100
2, 46560, Note_on_c, 0, 66, 100
2, 46788, Note_on_c, 0, 66, 0
2, 46788, Note_on_c, 0, 62, 0
2, 46788, Note_on_c, 0, 57, 0
2, 46788, Note_on_c, 0, 50, 0
2, 46800, Note_on_c, 0, 62, 100
2, 46800, Note_on_c, 0, 66, 100
2, 46800, Note_on_c, 0, 50, 100
2, 46800, Note_on_c, 0, 57, 100
2, 47028, Note_on_c, 0, 57, 0
2, 47028, Note_on_c, 0, 50, 0
2, 47028, Note_on_c, 0, 66, 0
2, 47028, Note_on_c, 0, 62, 0
2, 47040, Note_on_c, 0, 62, 100
2, 47040, Note_on_c, 0, 66, 100
2, 47040, Note_on_c, 0, 57, 100
2, 47040, Note_on_c, 0, 50, 100
2, 47382, Note_on_c, 0, 50, 0
2, 47400, Note_on_c, 0, 49, 100
2, 47457, Note_on_c, 0, 49, 0
2, 47460, Note_on_c, 0, 47, 100
2, 47517, Note_on_c, 0, 47, 0
2, 47520, Note_on_c, 0, 45, 100
2, 47976, Note_on_c, 0, 45, 0
2, 47976, Note_on_c, 0, 57, 0
2, 47976, Note_on_c, 0, 66, 0
2, 47976, Note_on_c, 0, 62, 0
2, 48000, Note_on_c, 0, 62, 100
2, 48000, Note_on_c, 0, 66, 100
2, 48000, Note_on_c, 0, 50, 100
2, 48000, Note_on_c, 0, 57, 100
2, 48456, Note_on_c, 0, 57, 0
2, 48456, Note_on_c, 0, 50, 0
2, 48456, Note_on_c, 0, 66, 0
2, 48456, Note_on_c, 0, 62, 0
2, 48480, Note_on_c, 0, 62, 100
2, 48480, Note_on_c, 0, 66, 100
2, 48480, Note_on_c, 0, 50, 100
2, 48480, Note_on_c, 0, 59, 100
2, 48708, Note_on_c, 0, 59, 0
2, 48708, Note_on_c, 0, 50, 0
2, 48708, Note_on_c, 0, 66, 0
2, 48708, Note_on_c, 0, 62, 0
2, 48720, Note_on_c, 0, 62, 100
2, 48720, Note_on_c, 0, 68, 100
2, 48720, Note_on_c, 0, 52, 100
2, 48720, Note_on_c, 0, 59, 100
2, 48948, Note_on_c, 0, 59, 0
2, 48948, Note_on_c, 0, 52, 0
2, 48948, Note_on_c, 0, 68, 0
2, 48948, Note_on_c, 0, 62, 0
2, 48960, Note_on_c, 0, 61, 100
2, 48960, Note_on_c, 0, 69, 100
2, 48960, Note_on_c, 0, 45, 100
2, 48960, Note_on_c, 0, 57, 100
2, 48960, Note_on_c, 0, 52, 100
2, 49416, Note_on_c, 0, 52, 0
2, 49416, Note_on_c, 0, 57, 0
2, 49416, Note_on_c, 0, 45, 0
2, 49416, Note_on_c, 0, 69, 0
2, 49416, Note_on_c, 0, 61, 0
2, 49440, Note_on_c, 0, 64, 100
2, 49440, Note_on_c, 0, 73, 100
2, 49440, Note_on_c, 0, 52, 100
2, 49440, Note_on_c, 0, 45, 100
2, 49668, Note_on_c, 0, 45, 0
2, 49668, Note_on_c, 0, 52, 0
2, 49668, Note_on_c, 0, 73, 0
2, 49668, Note_on_c, 0, 64, 0
2, 49920, Note_on_c, 0, 62, 100
2, 49920, Note_on_c, 0, 66, 100
2, 49920, Note_on_c, 0, 50, 100
2, 49920, Note_on_c, 0, 57, 100
2, 50376, Note_on_c, 0, 57, 0
2, 50376, Note_on_c, 0, 50, 0
2, 50376, Note_on_c, 0, 66, 0
2, 50376, Note_on_c, 0, 62, 0
2, 50400, Note_on_c, 0, 62, 100
2, 50400, Note_on_c, 0, 66, 100
2, 50400, Note_on_c, 0, 50, 100
2, 50400, Note_on_c, 0, 57, 100
2, 50628, Note_on_c, 0, 57, 0
2, 50628, Note_on_c, 0, 50, 0
2, 50628, Note_on_c, 0, 66, 0
2, 50628, Note_on_c, 0, 62, 0
2, 50640, Note_on_c, 0, 62, 100
2, 50640, Note_on_c, 0, 66, 100
2, 50640, Note_on_c, 0, 50, 100
2, 50640, Note_on_c, 0, 57, 100
2, 50868, Note_on_c, 0, 57, 0
2, 50868, Note_on_c, 0, 50, 0
2, 50868, Note_on_c, 0, 66, 0
2, 50868, Note_on_c, 0, 62, 0
2, 50880, Note_on_c, 0, 62, 100
2, 50880, Note_on_c, 0, 66, 100
2, 50880, Note_on_c, 0, 50, 100
2, 50880, Note_on_c, 0, 57, 100
2, 51336, Note_on_c, 0, 57, 0
2, 51336, Note_on_c, 0, 50, 0
2, 51336, Note_on_c, 0, 66, 0
2, 51336, Note_on_c, 0, 62, 0
2, 51360, Note_on_c, 0, 62, 100
2, 51360, Note_on_c, 0, 66, 100
2, 51360, Note_on_c, 0, 50, 100
2, 51360, Note_on_c, 0, 57, 100
2, 51588, Note_on_c, 0, 57, 0
2, 51588, Note_on_c, 0, 50, 0
2, 51588, Note_on_c, 0, 66, 0
2, 51588, Note_on_c, 0, 62, 0
2, 51600, Note_on_c, 0, 62, 100
2, 51600, Note_on_c, 0, 66, 100
2, 51600, Note_on_c, 0, 50, 100
2, 51600, Note_on_c, 0, 57, 100
2, 51828, Note_on_c, 0, 57, 0
2, 51828, Note_on_c, 0, 50, 0
2, 51828, Note_on_c, 0, 66, 0
2, 51828, Note_on_c, 0, 62, 0
2, 51840, Note_on_c, 0, 62, 127
2, 51840, Note_on_c, 0, 67, 127
2, 51840, Note_on_c, 0, 43, 100
2, 51840, Note_on_c, 0, 58, 127
2, 52296, Note_on_c, 0, 58, 0
2, 52296, Note_on_c, 0, 43, 0
2, 52296, Note_on_c, 0, 67, 0
2, 52296, Note_on_c, 0, 62, 0
2, 52320, Note_on_c, 0, 61, 100
2, 52320, Note_on_c, 0, 67, 100
2, 52320, Note_on_c, 0, 57, 100
2, 52320, Note_on_c, 0, 45, 100
2, 52548, Note_on_c, 0, 45, 0
2, 52548, Note_on_c, 0, 57, 0
2, 52548, Note_on_c, 0, 67, 0
2, 52548, Note_on_c, 0, 61, 0
2, 52560, Note_on_c, 0, 61, 100
2, 52560, Note_on_c, 0, 67, 100
2, 52560, Note_on_c, 0, 57, 100
2, 52560, Note_on_c, 0, 45, 100
2, 52788, Note_on_c, 0, 45, 0
2, 52788, Note_on_c, 0, 57, 0
2, 52788, Note_on_c, 0, 67, 0
2, 52788, Note_on_c, 0, 61, 0
2, 52800, Note_on_c, 0, 66, 100
2, 52800, Note_on_c, 0, 57, 100
2, 52800, Note_on_c, 0, 62, 100
2, 52800, Note_on_c, 0, 50, 100
2, 53256, Note_on_c, 0, 50, 0
2, 53280, Note_on_c, 0, 38, 100
2, 53736, Note_on_c, 0, 38, 0
2, 53736, Note_on_c, 0, 62, 0
2, 53736, Note_on_c, 0, 57, 0
2, 53736, Note_on_c, 0, 66, 0
2, 53760, Control_c, 0, 7, 96
2, 53760, Note_on_c, 0, 50, 100
2, 53760, Note_on_c, 0, 57, 100
2, 53760, Note_on_c, 0, 67, 100
2, 53760, Note_on_c, 0, 69, 100
2, 54102, Note_on_c, 0, 67, 0
2, 54120, Note_on_c, 0, 66, 100
2, 54234, Note_on_c, 0, 66, 0
2, 54240, Note_on_c, 0, 64, 100
2, 54354, Note_on_c, 0, 64, 0
2, 54360, Note_on_c, 0, 66, 100
2, 54474, Note_on_c, 0, 66, 0
2, 54480, Note_on_c, 0, 62, 100
2, 54696, Note_on_c, 0, 69, 0
2, 54696, Note_on_c, 0, 57, 0
2, 54696, Note_on_c, 0, 50, 0
2, 54708, Note_on_c, 0, 62, 0
2, 54720, Note_on_c, 0, 67, 100
2, 54720, Note_on_c, 0, 69, 100
2, 54720, Note_on_c, 0, 50, 100
2, 54720, Note_on_c, 0, 57, 100
2, 55062, Note_on_c, 0, 67, 0
2, 55080, Note_on_c, 0, 66, 100
2, 55194, Note_on_c, 0, 66, 0
2, 55200, Note_on_c, 0, 64, 100
2, 55314, Note_on_c, 0, 64, 0
2, 55320, Note_on_c, 0, 66, 100
2, 55434, Note_on_c, 0, 66, 0
2, 55440, Note_on_c, 0, 62, 100
2, 55656, Note_on_c, 0, 57, 0
2, 55656, Note_on_c, 0, 50, 0
2, 55656, Note_on_c, 0, 69, 0
2, 55668, Note_on_c, 0, 62, 0
2, 55680, Note_on_c, 0, 68, 100
2, 55680, Note_on_c, 0, 65, 100
2, 55680, Note_on_c, 0, 59, 100
2, 55680, Note_on_c, 0, 50, 100
2, 55794, Note_on_c, 0, 59, 0
2, 55794, Note_on_c, 0, 68, 0
2, 55800, Note_on_c, 0, 71, 100
2, 55800, Note_on_c, 0, 56, 100
2, 55908, Note_on_c, 0, 65, 0
2, 55914, Note_on_c, 0, 56, 0
2, 55914, Note_on_c, 0, 71, 0
2, 55920, Note_on_c, 0, 69, 100
2, 55920, Note_on_c, 0, 66, 100
2, 55920, Note_on_c, 0, 57, 100
2, 56616, Note_on_c, 0, 50, 0
2, 56628, Note_on_c, 0, 57, 0
2, 56628, Note_on_c, 0, 66, 0
2, 56628, Note_on_c, 0, 69, 0
2, 56640, Note_on_c, 0, 68, 100
2, 56640, Note_on_c, 0, 65, 100
2, 56640, Note_on_c, 0, 59, 100
2, 56640, Note_on_c, 0, 50, 100
2, 56754, Note_on_c, 0, 59, 0
2, 56754, Note_on_c, 0, 68, 0
2, 56760, Note_on_c, 0, 71, 100
2, 56760, Note_on_c, 0, 56, 100
2, 56868, Note_on_c, 0, 65, 0
2, 56874, Note_on_c, 0, 56, 0
2, 56874, Note_on_c, 0, 71, 0
2, 56880, Note_on_c, 0, 57, 100
2, 56880, Note_on_c, 0, 69, 100
2, 56880, Note_on_c, 0, 66, 100
2, 57576, Note_on_c, 0, 50, 0
2, 57588, Note_on_c, 0, 66, 0
2, 57588, Note_on_c, 0, 69, 0
2, 57588, Note_on_c, 0, 57, 0
2, 57600, Note_on_c, 0, 67, 100
2, 57600, Note_on_c, 0, 69, 100
2, 57600, Note_on_c, 0, 50, 100
2, 57600, Note_on_c, 0, 57, 100
2, 57942, Note_on_c, 0, 67, 0
2, 57960, Note_on_c, 0, 66, 100
2, 58074, Note_on_c, 0, 66, 0
2, 58080, Note_on_c, 0, 64, 100
2, 58194, Note_on_c, 0, 64, 0
2, 58200, Note_on_c, 0, 66, 100
2, 58314, Note_on_c, 0, 66, 0
2, 58320, Note_on_c, 0, 62, 100
2, 58536, Note_on_c, 0, 57, 0
2, 58536, Note_on_c, 0, 50, 0
2, 58536, Note_on_c, 0, 69, 0
2, 58548, Note_on_c, 0, 62, 0
2, 58560, Note_on_c, 0, 67, 100
2, 58560, Note_on_c, 0, 69, 100
2, 58560, Note_on_c, 0, 50, 100
2, 58560, Note_on_c, 0, 57, 100
2, 58902, Note_on_c, 0, 67, 0
2, 58920, Note_on_c, 0, 66, 100
2, 59034, Note_on_c, 0, 66, 0
2, 59040, Note_on_c, 0, 64, 100
2, 59154, Note_on_c, 0, 64, 0
2, 59160, Note_on_c, 0, 66, 100
2, 59274, Note_on_c, 0, 66, 0
2, 59280, Note_on_c, 0, 62, 100
2, 59496, Note_on_c, 0, 57, 0
2, 59496, Note_on_c, 0, 50, 0
2, 59496, Note_on_c, 0, 69, 0
2, 59508, Note_on_c, 0, 62, 0
2, 59520, Note_on_c, 0, 69, 100
2, 59520, Note_on_c, 0, 61, 100
2, 59520, Note_on_c, 0, 45, 100
2, 59520, Note_on_c, 0, 52, 100
2, 59634, Note_on_c, 0, 52, 0
2, 59634, Note_on_c, 0, 61, 0
2, 59640, Note_on_c, 0, 57, 100
2, 59640, Note_on_c, 0, 54, 100
2, 59754, Note_on_c, 0, 54, 0
2, 59754, Note_on_c, 0, 57, 0
2, 59760, Note_on_c, 0, 52, 100
2, 59760, Note_on_c, 0, 61, 100
2, 59800, Control_c, 0, 7, 95
2, 59880, Control_c, 0, 7, 94
2, 59920, Control_c, 0, 7, 93
2, 60000, Control_c, 0, 7, 92
2, 60040, Control_c, 0, 7, 91
2, 60120, Control_c, 0, 7, 90
2, 60160, Control_c, 0, 7, 89
2, 60240, Control_c, 0, 7, 88
2, 60280, Control_c, 0, 7, 87
2, 60360, Control_c, 0, 7, 86
2, 60400, Control_c, 0, 7, 85
2, 60456, Note_on_c, 0, 45, 0
2, 60456, Note_on_c, 0, 69, 0
2, 60468, Note_on_c, 0, 61, 0
2, 60468, Note_on_c, 0, 52, 0
2, 60480, Control_c, 0, 7, 84
2, 60480, Note_on_c, 0, 69, 100
2, 60480, Note_on_c, 0, 61, 100
2, 60480, Note_on_c, 0, 45, 100
2, 60480, Note_on_c, 0, 52, 100
2, 60520, Control_c, 0, 7, 83
2, 60594, Note_on_c, 0, 52, 0
2, 60594, Note_on_c, 0, 61, 0
2, 60600, Control_c, 0, 7, 82
2, 60600, Note_on_c, 0, 57, 100
2, 60600, Note_on_c, 0, 54, 100
2, 60640, Control_c, 0, 7, 81
2, 60714, Note_on_c, 0, 54, 0
2, 60714, Note_on_c, 0, 57, 0
2, 60720, Control_c, 0, 7, 80
2, 60720, Note_on_c, 0, 52, 100
2, 60720, Note_on_c, 0, 61, 100
2, 61416, Note_on_c, 0, 45, 0
2, 61416, Note_on_c, 0, 69, 0
2, 61428, Note_on_c, 0, 61, 0
2, 61428, Note_on_c, 0, 52, 0
2, 61440, Note_on_c, 0, 62, 100
2, 61440, Note_on_c, 0, 66, 100
2, 61440, Note_on_c, 0, 50, 100
2, 61440, Note_on_c, 0, 57, 100
2, 61896, Note_on_c, 0, 57, 0
2, 61896, Note_on_c, 0, 50, 0
2, 61896, Note_on_c, 0, 66, 0
2, 61896, Note_on_c, 0, 62, 0
2, 61920, Note_on_c, 0, 50, 100
2, 61920, Note_on_c, 0, 57, 100
2, 61920, Note_on_c, 0, 62, 100
2, 61920, Note_on_c, 0, 66, 100
2, 62148, Note_on_c, 0, 66, 0
2, 62148, Note_on_c, 0, 62, 0
2, 62148, Note_on_c, 0, 57, 0
2, 62148, Note_on_c, 0, 50, 0
2, 62160, Note_on_c, 0, 62, 100
2, 62160, Note_on_c, 0, 66, 100
2, 62160, Note_on_c, 0, 50, 100
2, 62160, Note_on_c, 0, 57, 100
2, 62388, Note_on_c, 0, 57, 0
2, 62388, Note_on_c, 0, 50, 0
2, 62388, Note_on_c, 0, 66, 0
2, 62388, Note_on_c, 0, 62, 0
2, 62400, Note_on_c, 0, 62, 100
2, 62400, Note_on_c, 0, 66, 100
2, 62400, Note_on_c, 0, 57, 100
2, 62400, Note_on_c, 0, 50, 100
2, 62742, Note_on_c, 0, 50, 0
2, 62760, Note_on_c, 0, 49, 100
2, 62817, Note_on_c, 0, 49, 0
2, 62820, Note_on_c, 0, 47, 100
2, 62877, Note_on_c, 0, 47, 0
2, 62880, Note_on_c, 0, 45, 100
2, 63336, Note_on_c, 0, 45, 0
2, 63336, Note_on_c, 0, 57, 0
2, 63336, Note_on_c, 0, 66, 0
2, 63336, Note_on_c, 0, 62, 0
2, 63360, Note_on_c, 0, 62, 100
2, 63360, Note_on_c, 0, 66, 100
2, 63360, Note_on_c, 0, 50, 100
2, 63360, Note_on_c, 0, 57, 100
2, 63816, Note_on_c, 0, 57, 0
2, 63816, Note_on_c, 0, 50, 0
2, 63816, Note_on_c, 0, 66, 0
2, 63816, Note_on_c, 0, 62, 0
2, 63840, Note_on_c, 0, 62, 100
2, 63840, Note_on_c, 0, 66, 100
2, 63840, Note_on_c, 0, 50, 100
2, 63840, Note_on_c, 0, 59, 100
2, 64068, Note_on_c, 0, 59, 0
2, 64068, Note_on_c, 0, 50, 0
2, 64068, Note_on_c, 0, 66, 0
2, 64068, Note_on_c, 0, 62, 0
2, 64080, Note_on_c, 0, 62, 100
2, 64080, Note_on_c, 0, 68, 100
2, 64080, Note_on_c, 0, 52, 100
2, 64080, Note_on_c, 0, 59, 100
2, 64308, Note_on_c, 0, 59, 0
2, 64308, Note_on_c, 0, 52, 0
2, 64308, Note_on_c, 0, 68, 0
2, 64308, Note_on_c, 0, 62, 0
2, 64320, Note_on_c, 0, 61, 100
2, 64320, Note_on_c, 0, 69, 100
2, 64320, Note_on_c, 0, 45, 100
2, 64320, Note_on_c, 0, 57, 100
2, 64320, Note_on_c, 0, 52, 100
2, 64776, Note_on_c, 0, 52, 0
2, 64776, Note_on_c, 0, 57, 0
2, 64776, Note_on_c, 0, 45, 0
2, 64776, Note_on_c, 0, 69, 0
2, 64776, Note_on_c, 0, 61, 0
2, 64800, Note_on_c, 0, 64, 100
2, 64800, Note_on_c, 0, 73, 100
2, 64800, Note_on_c, 0, 52, 100
2, 64800, Note_on_c, 0, 45, 100
2, 65028, Note_on_c, 0, 45, 0
2, 65028, Note_on_c, 0, 52, 0
2, 65028, Note_on_c, 0, 73, 0
2, 65028, Note_on_c, 0, 64, 0
2, 65280, Note_on_c, 0, 62, 100
2, 65280, Note_on_c, 0, 66, 100
2, 65280, Note_on_c, 0, 50, 100
2, 65280, Note_on_c, 0, 57, 100
2, 65736, Note_on_c, 0, 57, 0
2, 65736, Note_on_c, 0, 50, 0
2, 65736, Note_on_c, 0, 66, 0
2, 65736, Note_on_c, 0, 62, 0
2, 65760, Note_on_c, 0, 62, 100
2, 65760, Note_on_c, 0, 66, 100
2, 65760, Note_on_c, 0, 50, 100
2, 65760, Note_on_c, 0, 57, 100
2, 65988, Note_on_c, 0, 57, 0
2, 65988, Note_on_c, 0, 50, 0
2, 65988, Note_on_c, 0, 66, 0
2, 65988, Note_on_c, 0, 62, 0
2, 66000, Note_on_c, 0, 62, 100
2, 66000, Note_on_c, 0, 66, 100
2, 66000, Note_on_c, 0, 50, 100
2, 66000, Note_on_c, 0, 57, 100
2, 66228, Note_on_c, 0, 57, 0
2, 66228, Note_on_c, 0, 50, 0
2, 66228, Note_on_c, 0, 66, 0
2, 66228, Note_on_c, 0, 62, 0
2, 66240, Note_on_c, 0, 62, 100
2, 66240, Note_on_c, 0, 66, 100
2, 66240, Note_on_c, 0, 57, 100
2, 66240, Note_on_c, 0, 50, 100
2, 66582, Note_on_c, 0, 50, 0
2, 66600, Note_on_c, 0, 49, 100
2, 66657, Note_on_c, 0, 49, 0
2, 66660, Note_on_c, 0, 47, 100
2, 66717, Note_on_c, 0, 47, 0
2, 66720, Note_on_c, 0, 45, 100
2, 67176, Note_on_c, 0, 45, 0
2, 67176, Note_on_c, 0, 57, 0
2, 67176, Note_on_c, 0, 66, 0
2, 67176, Note_on_c, 0, 62, 0
2, 67200, Note_on_c, 0, 62, 100
2, 67200, Note_on_c, 0, 66, 100
2, 67200, Note_on_c, 0, 47, 100
2, 67200, Note_on_c, 0, 54, 100
2, 67656, Note_on_c, 0, 54, 0
2, 67656, Note_on_c, 0, 47, 0
2, 67656, Note_on_c, 0, 66, 0
2, 67656, Note_on_c, 0, 62, 0
2, 67680, Note_on_c, 0, 62, 100
2, 67680, Note_on_c, 0, 66, 100
2, 67680, Note_on_c, 0, 59, 100
2, 67680, Note_on_c, 0, 47, 100
2, 67680, Note_on_c, 0, 54, 100
2, 67908, Note_on_c, 0, 54, 0
2, 67908, Note_on_c, 0, 47, 0
2, 67908, Note_on_c, 0, 59, 0
2, 67908, Note_on_c, 0, 66, 0
2, 67908, Note_on_c, 0, 62, 0
2, 67920, Note_on_c, 0, 62, 100
2, 67920, Note_on_c, 0, 66, 100
2, 67920, Note_on_c, 0, 59, 100
2, 67920, Note_on_c, 0, 47, 100
2, 67920, Note_on_c, 0, 54, 100
2, 68148, Note_on_c, 0, 54, 0
2, 68148, Note_on_c, 0, 47, 0
2, 68148, Note_on_c, 0, 59, 0
2, 68148, Note_on_c, 0, 66, 0
2, 68148, Note_on_c, 0, 62, 0
2, 68160, Note_on_c, 0, 42, 100
2, 68160, Note_on_c, 0, 54, 100
2, 68160, Note_on_c, 0, 58, 100
2, 68160, Note_on_c, 0, 61, 100
2, 68160, Note_on_c, 0, 66, 100
2, 69096, Note_on_c, 0, 66, 0
2, 69096, Note_on_c, 0, 61, 0
2, 69096, Note_on_c, 0, 58, 0
2, 69096, Note_on_c, 0, 54, 0
2, 69096, Note_on_c, 0, 42, 0
2, 69120, Note_on_c, 0, 61, 100
2, 69120, Note_on_c, 0, 64, 100
2, 69120, Note_on_c, 0, 66, 100
2, 69120, Note_on_c, 0, 58, 100
2, 69280, Control_c, 0, 7, 81
2, 69348, Note_on_c, 0, 58, 0
2, 69348, Note_on_c, 0, 66, 0
2, 69348, Note_on_c, 0, 64, 0
2, 69348, Note_on_c, 0, 61, 0
2, 69360, Note_on_c, 0, 58, 100
2, 69360, Note_on_c, 0, 61, 100
2, 69360, Note_on_c, 0, 64, 100
2, 69360, Note_on_c, 0, 66, 100
2, 69560, Control_c, 0, 7, 82
2, 69588, Note_on_c, 0, 66, 0
2, 69588, Note_on_c, 0, 64, 0
2, 69588, Note_on_c, 0, 61, 0
2, 69588, Note_on_c, 0, 58, 0
2, 69600, Note_on_c, 0, 58, 100
2, 69600, Note_on_c, 0, 61, 100
2, 69600, Note_on_c, 0, 64, 100
2, 69600, Note_on_c, 0, 66, 100
2, 69828, Note_on_c, 0, 66, 0
2, 69828, Note_on_c, 0, 64, 0
2, 69828, Note_on_c, 0, 61, 0
2, 69828, Note_on_c, 0, 58, 0
2, 69840, Control_c, 0, 7, 83
2, 69840, Note_on_c, 0, 58, 100
2, 69840, Note_on_c, 0, 61, 100
2, 69840, Note_on_c, 0, 64, 100
2, 69840, Note_on_c, 0, 66, 100
2, 70068, Note_on_c, 0, 66, 0
2, 70068, Note_on_c, 0, 64, 0
2, 70068, Note_on_c, 0, 61, 0
2, 70068, Note_on_c, 0, 58, 0
2, 70080, Note_on_c, 0, 59, 100
2, 70080, Note_on_c, 0, 62, 100
2, 70080, Note_on_c, 0, 66, 100
2, 70160, Control_c, 0, 7, 84
2, 70308, Note_on_c, 0, 66, 0
2, 70308, Note_on_c, 0, 62, 0
2, 70308, Note_on_c, 0, 59, 0
2, 70320, Note_on_c, 0, 59, 100
2, 70320, Note_on_c, 0, 62, 100
2, 70320, Note_on_c, 0, 66, 100
2, 70440, Control_c, 0, 7, 85
2, 70548, Note_on_c, 0, 66, 0
2, 70548, Note_on_c, 0, 62, 0
2, 70548, Note_on_c, 0, 59, 0
2, 70560, Note_on_c, 0, 59, 100
2, 70560, Note_on_c, 0, 62, 100
2, 70560, Note_on_c, 0, 67, 100
2, 70720, Control_c, 0, 7, 86
2, 70788, Note_on_c, 0, 67, 0
2, 70788, Note_on_c, 0, 62, 0
2, 70788, Note_on_c, 0, 59, 0
2, 70800, Note_on_c, 0, 59, 100
2, 70800, Note_on_c, 0, 62, 100
2, 70800, Note_on_c, 0, 67, 100
2, 71000, Control_c, 0, 7, 87
2, 71028, Note_on_c, 0, 67, 0
2, 71028, Note_on_c, 0, 62, 0
2, 71028, Note_on_c, 0, 59, 0
2, 71040, Note_on_c, 0, 61, 100
2, 71040, Note_on_c, 0, 64, 100
2, 71040, Note_on_c, 0, 67, 100
2, 71040, Note_on_c, 0, 69, 100
2, 71268, Note_on_c, 0, 69, 0
2, 71268, Note_on_c, 0, 67, 0
2, 71268, Note_on_c, 0, 64, 0
2, 71268, Note_on_c, 0, 61, 0
2, 71280, Control_c, 0, 7, 88
2, 71280, Note_on_c, 0, 61, 100
2, 71280, Note_on_c, 0, 64, 100
2, 71280, Note_on_c, 0, 67, 100
2, 71280, Note_on_c, 0, 69, 100
2, 71508, Note_on_c, 0, 69, 0
2, 71508, Note_on_c, 0, 67, 0
2, 71508, Note_on_c, 0, 64, 0
2, 71508, Note_on_c, 0, 61, 0
2, 71520, Note_on_c, 0, 61, 100
2, 71520, Note_on_c, 0, 64, 100
2, 71520, Note_on_c, 0, 67, 100
2, 71520, Note_on_c, 0, 69, 100
2, 71600, Control_c, 0, 7, 89
2, 71748, Note_on_c, 0, 69, 0
2, 71748, Note_on_c, 0, 67, 0
2, 71748, Note_on_c, 0, 64, 0
2, 71748, Note_on_c, 0, 61, 0
2, 71760, Note_on_c, 0, 61, 100
2, 71760, Note_on_c, 0, 64, 100
2, 71760, Note_on_c, 0, 67, 100
2, 71760, Note_on_c, 0, 69, 100
2, 71880, Control_c, 0, 7, 90
2, 71988, Note_on_c, 0, 69, 0
2, 71988, Note_on_c, 0, 67, 0
2, 71988, Note_on_c, 0, 64, 0
2, 71988, Note_on_c, 0, 61, 0
2, 72000, Note_on_c, 0, 62, 100
2, 72000, Note_on_c, 0, 66, 100
2, 72000, Note_on_c, 0, 69, 100
2, 72456, Note_on_c, 0, 66, 0
2, 72456, Note_on_c, 0, 62, 0
2, 72480, Control_c, 0, 7, 80
2, 72480, Note_on_c, 0, 64, 100
2, 72480, Note_on_c, 0, 61, 100
2, 72480, Note_on_c, 0, 57, 100
2, 72936, Note_on_c, 0, 61, 0
2, 72936, Note_on_c, 0, 64, 0
2, 72936, Note_on_c, 0, 69, 0
2, 72960, Note_on_c, 0, 62, 100
2, 72960, Note_on_c, 0, 66, 100
2, 72960, Note_on_c, 0, 50, 100
2, 73416, Note_on_c, 0, 50, 0
2, 73416, Note_on_c, 0, 66, 0
2, 73416, Note_on_c, 0, 62, 0
2, 73416, Note_on_c, 0, 57, 0
2, 73440, Note_on_c, 0, 62, 100
2, 73440, Note_on_c, 0, 66, 100
2, 73440, Note_on_c, 0, 50, 100
2, 73440, Note_on_c, 0, 57, 100
2, 73668, Note_on_c, 0, 57, 0
2, 73668, Note_on_c, 0, 50, 0
2, 73668, Note_on_c, 0, 66, 0
2, 73668, Note_on_c, 0, 62, 0
2, 73680, Note_on_c, 0, 62, 100
2, 73680, Note_on_c, 0, 66, 100
2, 73680, Note_on_c, 0, 50, 100
2, 73680, Note_on_c, 0, 57, 100
2, 73908, Note_on_c, 0, 57, 0
2, 73908, Note_on_c, 0, 50, 0
2, 73908, Note_on_c, 0, 66, 0
2, 73908, Note_on_c, 0, 62, 0
2, 73920, Note_on_c, 0, 62, 100
2, 73920, Note_on_c, 0, 66, 100
2, 73920, Note_on_c, 0, 57, 100
2, 73920, Note_on_c, 0, 50, 100
2, 74262, Note_on_c, 0, 50, 0
2, 74280, Note_on_c, 0, 49, 100
2, 74337, Note_on_c, 0, 49, 0
2, 74340, Note_on_c, 0, 47, 100
2, 74397, Note_on_c, 0, 47, 0
2, 74400, Note_on_c, 0, 45, 100
2, 74856, Note_on_c, 0, 57, 0
2, 74856, Note_on_c, 0, 66, 0
2, 74856, Note_on_c, 0, 62, 0
2, 74856, Note_on_c, 0, 45, 0
2, 74880, Note_on_c, 0, 62, 100
2, 74880, Note_on_c, 0, 66, 100
2, 74880, Note_on_c, 0, 50, 100
2, 74880, Note_on_c, 0, 57, 100
2, 75336, Note_on_c, 0, 57, 0
2, 75336, Note_on_c, 0, 50, 0
2, 75336, Note_on_c, 0, 66, 0
2, 75336, Note_on_c, 0, 62, 0
2, 75360, Note_on_c, 0, 62, 100
2, 75360, Note_on_c, 0, 66, 100
2, 75360, Note_on_c, 0, 50, 100
2, 75360, Note_on_c, 0, 59, 100
2, 75588, Note_on_c, 0, 59, 0
2, 75588, Note_on_c, 0, 50, 0
2, 75588, Note_on_c, 0, 66, 0
2, 75588, Note_on_c, 0, 62, 0
2, 75600, Note_on_c, 0, 62, 100
2, 75600, Note_on_c, 0, 68, 100
2, 75600, Note_on_c, 0, 52, 100
2, 75600, Note_on_c, 0, 59, 100
2, 75828, Note_on_c, 0, 59, 0
2, 75828, Note_on_c, 0, 52, 0
2, 75828, Note_on_c, 0, 68, 0
2, 75828, Note_on_c, 0, 62, 0
2, 75840, Note_on_c, 0, 61, 100
2, 75840, Note_on_c, 0, 69, 100
2, 75840, Note_on_c, 0, 45, 100
2, 75840, Note_on_c, 0, 57, 100
2, 75840, Note_on_c, 0, 52, 100
2, 76296, Note_on_c, 0, 52, 0
2, 76296, Note_on_c, 0, 57, 0
2, 76296, Note_on_c, 0, 45, 0
2, 76296, Note_on_c, 0, 69, 0
2, 76296, Note_on_c, 0, 61, 0
2, 76320, Note_on_c, 0, 64, 100
2, 76320, Note_on_c, 0, 73, 100
2, 76320, Note_on_c, 0, 52, 100
2, 76320, Note_on_c, 0, 45, 100
2, 76548, Note_on_c, 0, 45, 0
2, 76548, Note_on_c, 0, 52, 0
2, 76548, Note_on_c, 0, 73, 0
2, 76548, Note_on_c, 0, 64, 0
2, 76800, Note_on_c, 0, 62, 100
2, 76800, Note_on_c, 0, 66, 100
2, 76800, Note_on_c, 0, 50, 100
2, 76800, Note_on_c, 0, 57, 100
2, 77256, Note_on_c, 0, 57, 0
2, 77256, Note_on_c, 0, 50, 0
2, 77256, Note_on_c, 0, 66, 0
2, 77256, Note_on_c, 0, 62, 0
2, 77280, Note_on_c, 0, 62, 100
2, 77280, Note_on_c, 0, 66, 100
2, 77280, Note_on_c, 0, 50, 100
2, 77280, Note_on_c, 0, 57, 100
2, 77508, Note_on_c, 0, 57, 0
2, 77508, Note_on_c, 0, 50, 0
2, 77508, Note_on_c, 0, 66, 0
2, 77508, Note_on_c, 0, 62, 0
2, 77520, Note_on_c, 0, 62, 100
2, 77520, Note_on_c, 0, 66, 100
2, 77520, Note_on_c, 0, 50, 100
2, 77520, Note_on_c, 0, 57, 100
2, 77748, Note_on_c, 0, 57, 0
2, 77748, Note_on_c, 0, 50, 0
2, 77748, Note_on_c, 0, 66, 0
2, 77748, Note_on_c, 0, 62, 0
2, 77760, Note_on_c, 0, 62, 100
2, 77760, Note_on_c, 0, 66, 100
2, 77760, Note_on_c, 0, 50, 100
2, 77760, Note_on_c, 0, 57, 100
2, 78216, Note_on_c, 0, 57, 0
2, 78216, Note_on_c, 0, 50, 0
2, 78216, Note_on_c, 0, 66, 0
2, 78216, Note_on_c, 0, 62, 0
2, 78240, Note_on_c, 0, 62, 100
2, 78240, Note_on_c, 0, 66, 100
2, 78240, Note_on_c, 0, 50, 100
2, 78240, Note_on_c, 0, 57, 100
2, 78468, Note_on_c, 0, 57, 0
2, 78468, Note_on_c, 0, 50, 0
2, 78468, Note_on_c, 0, 66, 0
2, 78468, Note_on_c, 0, 62, 0
2, 78480, Note_on_c, 0, 62, 100
2, 78480, Note_on_c, 0, 66, 100
2, 78480, Note_on_c, 0, 50, 100
2, 78480, Note_on_c, 0, 57, 100
2, 78708, Note_on_c, 0, 57, 0
2, 78708, Note_on_c, 0, 50, 0
2, 78708, Note_on_c, 0, 66, 0
2, 78708, Note_on_c, 0, 62, 0
2, 78720, Note_on_c, 0, 62, 127
2, 78720, Note_on_c, 0, 67, 127
2, 78720, Note_on_c, 0, 58, 127
2, 78720, Note_on_c, 0, 43, 100
2, 79176, Note_on_c, 0, 43, 0
2, 79176, Note_on_c, 0, 58, 0
2, 79176, Note_on_c, 0, 67, 0
2, 79176, Note_on_c, 0, 62, 0
2, 79200, Note_on_c, 0, 61, 100
2, 79200, Note_on_c, 0, 67, 100
2, 79200, Note_on_c, 0, 57, 100
2, 79200, Note_on_c, 0, 45, 100
2, 79428, Note_on_c, 0, 45, 0
2, 79428, Note_on_c, 0, 57, 0
2, 79428, Note_on_c, 0, 67, 0
2, 79428, Note_on_c, 0, 61, 0
2, 79440, Note_on_c, 0, 61, 100
2, 79440, Note_on_c, 0, 67, 100
2, 79440, Note_on_c, 0, 57, 100
2, 79440, Note_on_c, 0, 45, 100
2, 79668, Note_on_c, 0, 45, 0
2, 79668, Note_on_c, 0, 57, 0
2, 79668, Note_on_c, 0, 67, 0
2, 79668, Note_on_c, 0, 61, 0
2, 79680, Note_on_c, 0, 66, 100
2, 79680, Note_on_c, 0, 57, 100
2, 79680, Note_on_c, 0, 62, 100
2, 79680, Note_on_c, 0, 50, 100
2, 80136, Note_on_c, 0, 50, 0
2, 80160, Note_on_c, 0, 38, 100
2, 80616, Note_on_c, 0, 38, 0
2, 80616, Note_on_c, 0, 62, 0
2, 80616, Note_on_c, 0, 57, 0
2, 80616, Note_on_c, 0, 66, 0
2, 80640, Note_on_c, 0, 50, 100
2, 80640, Note_on_c, 0, 57, 100
2, 80640, Note_on_c, 0, 66, 100
2, 80640, Note_on_c, 0, 78, 100
2, 80720, Control_c, 0, 7, 79
2, 80754, Note_on_c, 0, 78, 0
2, 80760, Note_on_c, 0, 69, 100
2, 80840, Control_c, 0, 7, 78
2, 80874, Note_on_c, 0, 69, 0
2, 80880, Note_on_c, 0, 74, 100
2, 80960, Control_c, 0, 7, 77
2, 81080, Control_c, 0, 7, 76
2, 81200, Control_c, 0, 7, 75
2, 81320, Control_c, 0, 7, 74
2, 81440, Control_c, 0, 7, 73
2, 81560, Control_c, 0, 7, 72
2, 81576, Note_on_c, 0, 66, 0
2, 81576, Note_on_c, 0, 57, 0
2, 81576, Note_on_c, 0, 50, 0
2, 81588, Note_on_c, 0, 74, 0
2, 81600, Note_on_c, 0, 50, 100
2, 81600, Note_on_c, 0, 57, 100
2, 81600, Note_on_c, 0, 66, 100
2, 81600, Note_on_c, 0, 78, 100
2, 81680, Control_c, 0, 7, 71
2, 81714, Note_on_c, 0, 78, 0
2, 81720, Note_on_c, 0, 69, 100
2, 81800, Control_c, 0, 7, 70
2, 81834, Note_on_c, 0, 69, 0
2, 81840, Note_on_c, 0, 74, 100
2, 81920, Control_c, 0, 7, 69
2, 82040, Control_c, 0, 7, 68
2, 82160, Control_c, 0, 7, 67
2, 82280, Control_c, 0, 7, 66
2, 82400, Control_c, 0, 7, 65
2, 82520, Control_c, 0, 7, 64
2, 82536, Note_on_c, 0, 66, 0
2, 82536, Note_on_c, 0, 57, 0
2, 82536, Note_on_c, 0, 50, 0
2, 82548, Note_on_c, 0, 74, 0
2, 82560, Note_on_c, 0, 50, 100
2, 82560, Note_on_c, 0, 57, 100
2, 82560, Note_on_c, 0, 66, 100
2, 82560, Note_on_c, 0, 78, 100
2, 82640, Control_c, 0, 7, 63
2, 82674, Note_on_c, 0, 78, 0
2, 82680, Note_on_c, 0, 69, 100
2, 82760, Control_c, 0, 7, 62
2, 82794, Note_on_c, 0, 69, 0
2, 82800, Note_on_c, 0, 74, 100
2, 82880, Control_c, 0, 7, 61
2, 83000, Control_c, 0, 7, 60
2, 83028, Note_on_c, 0, 74, 0
2, 83040, Note_on_c, 0, 78, 100
2, 83120, Control_c, 0, 7, 59
2, 83154, Note_on_c, 0, 78, 0
2, 83160, Note_on_c, 0, 69, 100
2, 83240, Control_c, 0, 7, 58
2, 83274, Note_on_c, 0, 69, 0
2, 83280, Note_on_c, 0, 74, 100
2, 83360, Control_c, 0, 7, 57
2, 83496, Note_on_c, 0, 66, 0
2, 83496, Note_on_c, 0, 57, 0
2, 83496, Note_on_c, 0, 50, 0
2, 83508, Note_on_c, 0, 74, 0
2, 83520, Note_on_c, 0, 86, 100
2, 83520, Note_on_c, 0, 50, 100
2, 83520, Note_on_c, 0, 57, 100
2, 85416, Note_on_c, 0, 57, 0
2, 85416, Note_on_c, 0, 50, 0
2, 85416, Note_on_c, 0, 86, 0
2, 85440, End_track
3, 0, Start_track
3, 0, Control_c, 1, 7, 95
3, 0, Control_c, 1, 0, 0
3, 0, Control_c, 1, 32, 0
3, 0, Program_c, 1, 53
3, 0, Control_c, 1, 1, 0
3, 0, Control_c, 1, 10, 64
3, 0, Control_c, 1, 91, 0
3, 0, Control_c, 1, 93, 0
3, 0, Key_signature, 2, "major"
3, 0, Title_t, "Voice"
3, 7680, Note_on_c, 1, 62, 100
3, 7720, Control_c, 1, 7, 96
3, 7800, Control_c, 1, 7, 97
3, 7840, Control_c, 1, 7, 98
3, 7880, Control_c, 1, 7, 99
3, 7908, Note_on_c, 1, 62, 0
3, 7920, Note_on_c, 1, 64, 100
3, 7960, Control_c, 1, 7, 100
3, 8000, Control_c, 1, 7, 101
3, 8080, Control_c, 1, 7, 102
3, 8120, Control_c, 1, 7, 103
3, 8148, Note_on_c, 1, 64, 0
3, 8160, Control_c, 1, 7, 104
3, 8160, Note_on_c, 1, 66, 100
3, 8240, Control_c, 1, 7, 105
3, 8280, Control_c, 1, 7, 106
3, 8360, Control_c, 1, 7, 107
3, 8388, Note_on_c, 1, 66, 0
3, 8400, Control_c, 1, 7, 108
3, 8400, Note_on_c, 1, 71, 100
3, 8440, Control_c, 1, 7, 109
3, 8520, Control_c, 1, 7, 110
3, 8628, Note_on_c, 1, 71, 0
3, 8640, Note_on_c, 1, 69, 100
3, 8680, Control_c, 1, 7, 109
3, 8760, Control_c, 1, 7, 108
3, 8800, Control_c, 1, 7, 107
3, 8840, Control_c, 1, 7, 106
3, 8920, Control_c, 1, 7, 105
3, 8960, Control_c, 1, 7, 104
3, 9040, Control_c, 1, 7, 103
3, 9080, Control_c, 1, 7, 102
3, 9096, Note_on_c, 1, 69, 0
3, 9120, Control_c, 1, 7, 101
3, 9120, Note_on_c, 1, 66, 100
3, 9200, Control_c, 1, 7, 100
3, 9240, Control_c, 1, 7, 99
3, 9320, Control_c, 1, 7, 98
3, 9360, Control_c, 1, 7, 97
3, 9400, Control_c, 1, 7, 96
3, 9480, Control_c, 1, 7, 95
3, 9576, Note_on_c, 1, 66, 0
3, 9600, Note_on_c, 1, 62, 100
3, 9640, Control_c, 1, 7, 97
3, 9680, Control_c, 1, 7, 98
3, 9720, Control_c, 1, 7, 100
3, 9760, Control_c, 1, 7, 102
3, 9800, Control_c, 1, 7, 103
3, 9828, Note_on_c, 1, 62, 0
3, 9840, Control_c, 1, 7, 105
3, 9840, Note_on_c, 1, 64, 100
3, 9880, Control_c, 1, 7, 107
3, 9920, Control_c, 1, 7, 108
3, 9960, Control_c, 1, 7, 110
3, 10068, Note_on_c, 1, 64, 0
3, 10080, Note_on_c, 1, 66, 100
3, 10240, Control_c, 1, 7, 107
3, 10280, Control_c, 1, 7, 105
3, 10308, Note_on_c, 1, 66, 0
3, 10320, Control_c, 1, 7, 102
3, 10320, Note_on_c, 1, 68, 100
3, 10360, Control_c, 1, 7, 100
3, 10400, Control_c, 1, 7, 97
3, 10434, Note_on_c, 1, 68, 0
3, 10440, Control_c, 1, 7, 95
3, 10440, Note_on_c, 1, 66, 100
3, 10554, Note_on_c, 1, 66, 0
3, 10560, Note_on_c, 1, 64, 100
3, 11016, Note_on_c, 1, 64, 0
3, 11040, Note_on_c, 1, 61, 100
3, 11268, Note_on_c, 1, 61, 0
3, 11520, Note_on_c, 1, 62, 100
3, 11560, Control_c, 1, 7, 96
3, 11600, Control_c, 1, 7, 97
3, 11680, Control_c, 1, 7, 98
3, 11720, Control_c, 1, 7, 99
3, 11748, Note_on_c, 1, 62, 0
3, 11760, Control_c, 1, 7, 100
3, 11760, Note_on_c, 1, 64, 100
3, 11800, Control_c, 1, 7, 101
3, 11880, Control_c, 1, 7, 102
3, 11920, Control_c, 1, 7, 103
3, 11960, Control_c, 1, 7, 104
3, 11988, Note_on_c, 1, 64, 0
3, 12000, Note_on_c, 1, 66, 100
3, 12000, Control_c, 1, 7, 105
3, 12040, Control_c, 1, 7, 106
3, 12120, Control_c, 1, 7, 107
3, 12160, Control_c, 1, 7, 108
3, 12200, Control_c, 1, 7, 109
3, 12228, Note_on_c, 1, 66, 0
3, 12240, Control_c, 1, 7, 110
3, 12240, Note_on_c, 1, 71, 100
3, 12320, Control_c, 1, 7, 111
3, 12360, Control_c, 1, 7, 112
3, 12468, Note_on_c, 1, 71, 0
3, 12480, Note_on_c, 1, 69, 100
3, 12520, Control_c, 1, 7, 111
3, 12560, Control_c, 1, 7, 110
3, 12640, Control_c, 1, 7, 109
3, 12680, Control_c, 1, 7, 108
3, 12720, Control_c, 1, 7, 107
3, 12760, Control_c, 1, 7, 106
3, 12840, Control_c, 1, 7, 105
3, 12880, Control_c, 1, 7, 104
3, 12920, Control_c, 1, 7, 103
3, 12936, Note_on_c, 1, 69, 0
3, 12960, Control_c, 1, 7, 102
3, 12960, Note_on_c, 1, 66, 100
3, 13000, Control_c, 1, 7, 101
3, 13080, Control_c, 1, 7, 100
3, 13120, Control_c, 1, 7, 99
3, 13160, Control_c, 1, 7, 98
3, 13200, Control_c, 1, 7, 97
3, 13280, Control_c, 1, 7, 96
3, 13320, Control_c, 1, 7, 95
3, 13416, Note_on_c, 1, 66, 0
3, 13440, Note_on_c, 1, 62, 100
3, 13600, Control_c, 1, 7, 96
3, 13640, Control_c, 1, 7, 97
3, 13668, Note_on_c, 1, 62, 0
3, 13680, Control_c, 1, 7, 98
3, 13680, Note_on_c, 1, 64, 100
3, 13720, Control_c, 1, 7, 99
3, 13760, Control_c, 1, 7, 100
3, 13800, Control_c, 1, 7, 101
3, 13840, Control_c, 1, 7, 102
3, 13880, Control_c, 1, 7, 103
3, 13908, Note_on_c, 1, 64, 0
3, 13920, Control_c, 1, 7, 104
3, 13920, Note_on_c, 1, 66, 100
3, 14000, Control_c, 1, 7, 105
3, 14040, Control_c, 1, 7, 106
3, 14080, Control_c, 1, 7, 107
3, 14120, Control_c, 1, 7, 108
3, 14148, Note_on_c, 1, 66, 0
3, 14160, Control_c, 1, 7, 109
3, 14160, Note_on_c, 1, 69, 100
3, 14200, Control_c, 1, 7, 110
3, 14240, Control_c, 1, 7, 111
3, 14274, Note_on_c, 1, 69, 0
3, 14280, Control_c, 1, 7, 112
3, 14280, Note_on_c, 1, 67, 100
3, 14394, Note_on_c, 1, 67, 0
3, 14400, Note_on_c, 1, 67, 100
3, 14440, Control_c, 1, 7, 111
3, 14480, Control_c, 1, 7, 110
3, 14520, Control_c, 1, 7, 109
3, 14560, Control_c, 1, 7, 107
3, 14600, Control_c, 1, 7, 106
3, 14640, Control_c, 1, 7, 105
3, 14680, Control_c, 1, 7, 104
3, 14720, Control_c, 1, 7, 103
3, 14760, Control_c, 1, 7, 102
3, 14800, Control_c, 1, 7, 101
3, 14840, Control_c, 1, 7, 100
3, 14856, Note_on_c, 1, 67, 0
3, 14880, Control_c, 1, 7, 98
3, 14880, Note_on_c, 1, 66, 100
3, 14920, Control_c, 1, 7, 97
3, 14960, Control_c, 1, 7, 96
3, 15000, Control_c, 1, 7, 95
3, 15108, Note_on_c, 1, 66, 0
3, 15360, Control_c, 1, 7, 100
3, 15360, Note_on_c, 1, 66, 100
3, 15400, Control_c, 1, 7, 102
3, 15440, Control_c, 1, 7, 103
3, 15480, Control_c, 1, 7, 105
3, 15520, Control_c, 1, 7, 107
3, 15560, Control_c, 1, 7, 108
3, 15588, Note_on_c, 1, 66, 0
3, 15600, Control_c, 1, 7, 110
3, 15600, Note_on_c, 1, 66, 100
3, 15640, Control_c, 1, 7, 112
3, 15680, Control_c, 1, 7, 113
3, 15720, Control_c, 1, 7, 115
3, 15828, Note_on_c, 1, 66, 0
3, 15840, Note_on_c, 1, 67, 100
3, 15880, Control_c, 1, 7, 114
3, 15960, Control_c, 1, 7, 113
3, 16040, Control_c, 1, 7, 112
3, 16068, Note_on_c, 1, 67, 0
3, 16080, Note_on_c, 1, 66, 100
3, 16120, Control_c, 1, 7, 111
3, 16200, Control_c, 1, 7, 110
3, 16240, Control_c, 1, 7, 109
3, 16308, Note_on_c, 1, 66, 0
3, 16320, Control_c, 1, 7, 108
3, 16320, Note_on_c, 1, 74, 100
3, 16400, Control_c, 1, 7, 107
3, 16480, Control_c, 1, 7, 106
3, 16560, Control_c, 1, 7, 105
3, 16600, Control_c, 1, 7, 104
3, 16680, Control_c, 1, 7, 103
3, 16760, Control_c, 1, 7, 102
3, 16776, Note_on_c, 1, 74, 0
3, 16800, Note_on_c, 1, 71, 100
3, 16840, Control_c, 1, 7, 101
3, 16920, Control_c, 1, 7, 100
3, 17256, Note_on_c, 1, 71, 0
3, 17280, Note_on_c, 1, 71, 100
3, 17508, Note_on_c, 1, 71, 0
3, 17520, Note_on_c, 1, 69, 100
3, 17748, Note_on_c, 1, 69, 0
3, 17760, Note_on_c, 1, 71, 100
3, 17988, Note_on_c, 1, 71, 0
3, 18000, Note_on_c, 1, 69, 100
3, 18228, Note_on_c, 1, 69, 0
3, 18240, Note_on_c, 1, 67, 100
3, 18520, Control_c, 1, 7, 99
3, 18560, Control_c, 1, 7, 98
3, 18640, Control_c, 1, 7, 97
3, 18680, Control_c, 1, 7, 96
3, 18720, Control_c, 1, 7, 95
3, 18834, Note_on_c, 1, 67, 0
3, 18840, Note_on_c, 1, 66, 100
3, 18954, Note_on_c, 1, 66, 0
3, 18960, Note_on_c, 1, 64, 100
3, 19074, Note_on_c, 1, 64, 0
3, 19080, Note_on_c, 1, 62, 100
3, 19194, Note_on_c, 1, 62, 0
3, 19200, Note_on_c, 1, 62, 100
3, 19240, Control_c, 1, 7, 96
3, 19280, Control_c, 1, 7, 97
3, 19360, Control_c, 1, 7, 98
3, 19400, Control_c, 1, 7, 99
3, 19428, Note_on_c, 1, 62, 0
3, 19440, Control_c, 1, 7, 100
3, 19440, Note_on_c, 1, 64, 100
3, 19520, Control_c, 1, 7, 101
3, 19560, Control_c, 1, 7, 102
3, 19600, Control_c, 1, 7, 103
3, 19668, Note_on_c, 1, 64, 0
3, 19680, Control_c, 1, 7, 104
3, 19680, Note_on_c, 1, 66, 100
3, 19720, Control_c, 1, 7, 105
3, 19760, Control_c, 1, 7, 106
3, 19840, Control_c, 1, 7, 107
3, 19880, Control_c, 1, 7, 108
3, 19908, Note_on_c, 1, 66, 0
3, 19920, Control_c, 1, 7, 109
3, 19920, Note_on_c, 1, 71, 100
3, 20000, Control_c, 1, 7, 110
3, 20040, Control_c, 1, 7, 111
3, 20148, Note_on_c, 1, 71, 0
3, 20160, Note_on_c, 1, 69, 100
3, 20200, Control_c, 1, 7, 110
3, 20240, Control_c, 1, 7, 109
3, 20280, Control_c, 1, 7, 108
3, 20320, Control_c, 1, 7, 107
3, 20400, Control_c, 1, 7, 106
3, 20440, Control_c, 1, 7, 105
3, 20480, Control_c, 1, 7, 104
3, 20520, Control_c, 1, 7, 103
3, 20560, Control_c, 1, 7, 102
3, 20600, Control_c, 1, 7, 101
3, 20616, Note_on_c, 1, 69, 0
3, 20640, Control_c, 1, 7, 100
3, 20640, Note_on_c, 1, 66, 100
3, 20680, Control_c, 1, 7, 99
3, 20760, Control_c, 1, 7, 98
3, 20800, Control_c, 1, 7, 97
3, 20840, Control_c, 1, 7, 96
3, 20868, Note_on_c, 1, 66, 0
3, 20880, Control_c, 1, 7, 95
3, 20880, Note_on_c, 1, 64, 100
3, 21108, Note_on_c, 1, 64, 0
3, 21120, Note_on_c, 1, 62, 100
3, 21160, Control_c, 1, 7, 96
3, 21200, Control_c, 1, 7, 98
3, 21240, Control_c, 1, 7, 99
3, 21280, Control_c, 1, 7, 100
3, 21320, Control_c, 1, 7, 102
3, 21348, Note_on_c, 1, 62, 0
3, 21360, Control_c, 1, 7, 103
3, 21360, Note_on_c, 1, 64, 100
3, 21400, Control_c, 1, 7, 104
3, 21440, Control_c, 1, 7, 106
3, 21480, Control_c, 1, 7, 107
3, 21520, Control_c, 1, 7, 108
3, 21560, Control_c, 1, 7, 110
3, 21588, Note_on_c, 1, 64, 0
3, 21600, Control_c, 1, 7, 111
3, 21600, Note_on_c, 1, 66, 100
3, 21828, Note_on_c, 1, 66, 0
3, 21840, Note_on_c, 1, 68, 100
3, 21880, Control_c, 1, 7, 106
3, 21920, Control_c, 1, 7, 100
3, 21954, Note_on_c, 1, 68, 0
3, 21960, Control_c, 1, 7, 95
3, 21960, Note_on_c, 1, 66, 100
3, 22074, Note_on_c, 1, 66, 0
3, 22080, Note_on_c, 1, 64, 100
3, 22536, Note_on_c, 1, 64, 0
3, 22560, Note_on_c, 1, 61, 100
3, 22788, Note_on_c, 1, 61, 0
3, 23040, Note_on_c, 1, 62, 100
3, 23120, Control_c, 1, 7, 96
3, 23200, Control_c, 1, 7, 97
3, 23268, Note_on_c, 1, 62, 0
3, 23280, Control_c, 1, 7, 98
3, 23280, Note_on_c, 1, 64, 100
3, 23360, Control_c, 1, 7, 99
3, 23480, Control_c, 1, 7, 100
3, 23508, Note_on_c, 1, 64, 0
3, 23520, Note_on_c, 1, 66, 100
3, 23560, Control_c, 1, 7, 101
3, 23640, Control_c, 1, 7, 102
3, 23720, Control_c, 1, 7, 103
3, 23748, Note_on_c, 1, 66, 0
3, 23760, Note_on_c, 1, 71, 100
3, 23840, Control_c, 1, 7, 104
3, 23920, Control_c, 1, 7, 105
3, 23988, Note_on_c, 1, 71, 0
3, 24000, Control_c, 1, 7, 106
3, 24000, Note_on_c, 1, 69, 100
3, 24080, Control_c, 1, 7, 107
3, 24200, Control_c, 1, 7, 108
3, 24280, Control_c, 1, 7, 109
3, 24360, Control_c, 1, 7, 110
3, 24440, Control_c, 1, 7, 111
3, 24456, Note_on_c, 1, 69, 0
3, 24480, Note_on_c, 1, 66, 100
3, 24560, Control_c, 1, 7, 112
3, 24640, Control_c, 1, 7, 113
3, 24708, Note_on_c, 1, 66, 0
3, 24720, Control_c, 1, 7, 114
3, 24720, Note_on_c, 1, 69, 100
3, 24800, Control_c, 1, 7, 115
3, 24948, Note_on_c, 1, 69, 0
3, 24960, Note_on_c, 1, 70, 100
3, 25040, Control_c, 1, 7, 114
3, 25120, Control_c, 1, 7, 113
3, 25188, Note_on_c, 1, 70, 0
3, 25200, Control_c, 1, 7, 112
3, 25200, Note_on_c, 1, 69, 100
3, 25280, Control_c, 1, 7, 111
3, 25360, Control_c, 1, 7, 110
3, 25428, Note_on_c, 1, 69, 0
3, 25440, Control_c, 1, 7, 109
3, 25440, Note_on_c, 1, 67, 100
3, 25520, Control_c, 1, 7, 108
3, 25600, Control_c, 1, 7, 107
3, 25668, Note_on_c, 1, 67, 0
3, 25680, Control_c, 1, 7, 106
3, 25680, Note_on_c, 1, 64, 100
3, 25760, Control_c, 1, 7, 105
3, 25880, Control_c, 1, 7, 104
3, 25908, Note_on_c, 1, 64, 0
3, 25920, Note_on_c, 1, 66, 100
3, 25960, Control_c, 1, 7, 103
3, 26040, Control_c, 1, 7, 102
3, 26120, Control_c, 1, 7, 101
3, 26200, Control_c, 1, 7, 100
3, 26262, Note_on_c, 1, 66, 0
3, 26280, Control_c, 1, 7, 99
3, 26280, Note_on_c, 1, 64, 100
3, 26360, Control_c, 1, 7, 98
3, 26394, Note_on_c, 1, 64, 0
3, 26400, Note_on_c, 1, 62, 100
3, 26440, Control_c, 1, 7, 97
3, 26520, Control_c, 1, 7, 96
3, 26600, Control_c, 1, 7, 95
3, 26856, Note_on_c, 1, 62, 0
3, 26880, Control_c, 1, 7, 95
3, 26880, Control_c, 1, 0, 0
3, 26880, Control_c, 1, 32, 0
3, 26880, Program_c, 1, 53
3, 26880, Control_c, 1, 1, 0
3, 26880, Control_c, 1, 10, 64
3, 26880, Control_c, 1, 91, 0
3, 26880, Control_c, 1, 93, 0
3, 26880, Key_signature, 2, "major"
3, 34560, Note_on_c, 1, 62, 100
3, 34600, Control_c, 1, 7, 96
3, 34680, Control_c, 1, 7, 97
3, 34720, Control_c, 1, 7, 98
3, 34760, Control_c, 1, 7, 99
3, 34788, Note_on_c, 1, 62, 0
3, 34800, Note_on_c, 1, 64, 100
3, 34840, Control_c, 1, 7, 100
3, 34880, Control_c, 1, 7, 101
3, 34960, Control_c, 1, 7, 102
3, 35000, Control_c, 1, 7, 103
3, 35028, Note_on_c, 1, 64, 0
3, 35040, Control_c, 1, 7, 104
3, 35040, Note_on_c, 1, 66, 100
3, 35120, Control_c, 1, 7, 105
3, 35160, Control_c, 1, 7, 106
3, 35240, Control_c, 1, 7, 107
3, 35268, Note_on_c, 1, 66, 0
3, 35280, Control_c, 1, 7, 108
3, 35280, Note_on_c, 1, 71, 100
3, 35320, Control_c, 1, 7, 109
3, 35400, Control_c, 1, 7, 110
3, 35508, Note_on_c, 1, 71, 0
3, 35520, Note_on_c, 1, 69, 100
3, 35560, Control_c, 1, 7, 109
3, 35640, Control_c, 1, 7, 108
3, 35680, Control_c, 1, 7, 107
3, 35720, Control_c, 1, 7, 106
3, 35800, Control_c, 1, 7, 105
3, 35840, Control_c, 1, 7, 104
3, 35920, Control_c, 1, 7, 103
3, 35960, Control_c, 1, 7, 102
3, 35976, Note_on_c, 1, 69, 0
3, 36000, Note_on_c, 1, 66, 100
3, 36000, Control_c, 1, 7, 101
3, 36080, Control_c, 1, 7, 100
3, 36120, Control_c, 1, 7, 99
3, 36200, Control_c, 1, 7, 98
3, 36240, Control_c, 1, 7, 97
3, 36280, Control_c, 1, 7, 96
3, 36360, Control_c, 1, 7, 95
3, 36456, Note_on_c, 1, 66, 0
3, 36480, Note_on_c, 1, 62, 100
3, 36520, Control_c, 1, 7, 97
3, 36560, Control_c, 1, 7, 98
3, 36600, Control_c, 1, 7, 100
3, 36640, Control_c, 1, 7, 102
3, 36680, Control_c, 1, 7, 103
3, 36708, Note_on_c, 1, 62, 0
3, 36720, Control_c, 1, 7, 105
3, 36720, Note_on_c, 1, 64, 100
3, 36760, Control_c, 1, 7, 107
3, 36800, Control_c, 1, 7, 108
3, 36840, Control_c, 1, 7, 110
3, 36948, Note_on_c, 1, 64, 0
3, 36960, Note_on_c, 1, 66, 100
3, 37120, Control_c, 1, 7, 107
3, 37160, Control_c, 1, 7, 105
3, 37188, Note_on_c, 1, 66, 0
3, 37200, Control_c, 1, 7, 102
3, 37200, Note_on_c, 1, 68, 100
3, 37240, Control_c, 1, 7, 100
3, 37280, Control_c, 1, 7, 97
3, 37314, Note_on_c, 1, 68, 0
3, 37320, Control_c, 1, 7, 95
3, 37320, Note_on_c, 1, 66, 100
3, 37434, Note_on_c, 1, 66, 0
3, 37440, Note_on_c, 1, 64, 100
3, 37896, Note_on_c, 1, 64, 0
3, 37920, Note_on_c, 1, 61, 100
3, 38148, Note_on_c, 1, 61, 0
3, 38400, Note_on_c, 1, 62, 100
3, 38440, Control_c, 1, 7, 96
3, 38480, Control_c, 1, 7, 97
3, 38560, Control_c, 1, 7, 98
3, 38600, Control_c, 1, 7, 99
3, 38628, Note_on_c, 1, 62, 0
3, 38640, Control_c, 1, 7, 100
3, 38640, Note_on_c, 1, 64, 100
3, 38680, Control_c, 1, 7, 101
3, 38760, Control_c, 1, 7, 102
3, 38800, Control_c, 1, 7, 103
3, 38840, Control_c, 1, 7, 104
3, 38868, Note_on_c, 1, 64, 0
3, 38880, Control_c, 1, 7, 105
3, 38880, Note_on_c, 1, 66, 100
3, 38920, Control_c, 1, 7, 106
3, 39000, Control_c, 1, 7, 107
3, 39040, Control_c, 1, 7, 108
3, 39080, Control_c, 1, 7, 109
3, 39108, Note_on_c, 1, 66, 0
3, 39120, Control_c, 1, 7, 110
3, 39120, Note_on_c, 1, 71, 100
3, 39200, Control_c, 1, 7, 111
3, 39240, Control_c, 1, 7, 112
3, 39348, Note_on_c, 1, 71, 0
3, 39360, Note_on_c, 1, 69, 100
3, 39400, Control_c, 1, 7, 111
3, 39440, Control_c, 1, 7, 110
3, 39520, Control_c, 1, 7, 109
3, 39560, Control_c, 1, 7, 108
3, 39600, Control_c, 1, 7, 107
3, 39640, Control_c, 1, 7, 106
3, 39720, Control_c, 1, 7, 105
3, 39760, Control_c, 1, 7, 104
3, 39800, Control_c, 1, 7, 103
3, 39816, Note_on_c, 1, 69, 0
3, 39840, Control_c, 1, 7, 102
3, 39840, Note_on_c, 1, 66, 100
3, 39880, Control_c, 1, 7, 101
3, 39960, Control_c, 1, 7, 100
3, 40000, Control_c, 1, 7, 99
3, 40040, Control_c, 1, 7, 98
3, 40080, Control_c, 1, 7, 97
3, 40160, Control_c, 1, 7, 96
3, 40200, Control_c, 1, 7, 95
3, 40296, Note_on_c, 1, 66, 0
3, 40320, Note_on_c, 1, 62, 100
3, 40480, Control_c, 1, 7, 96
3, 40520, Control_c, 1, 7, 97
3, 40548, Note_on_c, 1, 62, 0
3, 40560, Control_c, 1, 7, 98
3, 40560, Note_on_c, 1, 64, 100
3, 40600, Control_c, 1, 7, 99
3, 40640, Control_c, 1, 7, 100
3, 40680, Control_c, 1, 7, 101
3, 40720, Control_c, 1, 7, 102
3, 40760, Control_c, 1, 7, 103
3, 40788, Note_on_c, 1, 64, 0
3, 40800, Note_on_c, 1, 66, 100
3, 40800, Control_c, 1, 7, 104
3, 40880, Control_c, 1, 7, 105
3, 40920, Control_c, 1, 7, 106
3, 40960, Control_c, 1, 7, 107
3, 41000, Control_c, 1, 7, 108
3, 41028, Note_on_c, 1, 66, 0
3, 41040, Control_c, 1, 7, 109
3, 41040, Note_on_c, 1, 69, 100
3, 41080, Control_c, 1, 7, 110
3, 41120, Control_c, 1, 7, 111
3, 41154, Note_on_c, 1, 69, 0
3, 41160, Control_c, 1, 7, 112
3, 41160, Note_on_c, 1, 67, 100
3, 41274, Note_on_c, 1, 67, 0
3, 41280, Note_on_c, 1, 67, 100
3, 41320, Control_c, 1, 7, 111
3, 41360, Control_c, 1, 7, 110
3, 41400, Control_c, 1, 7, 109
3, 41440, Control_c, 1, 7, 107
3, 41480, Control_c, 1, 7, 106
3, 41520, Control_c, 1, 7, 105
3, 41560, Control_c, 1, 7, 104
3, 41600, Control_c, 1, 7, 103
3, 41640, Control_c, 1, 7, 102
3, 41680, Control_c, 1, 7, 101
3, 41720, Control_c, 1, 7, 100
3, 41736, Note_on_c, 1, 67, 0
3, 41760, Control_c, 1, 7, 98
3, 41760, Note_on_c, 1, 66, 100
3, 41800, Control_c, 1, 7, 97
3, 41840, Control_c, 1, 7, 96
3, 41880, Control_c, 1, 7, 95
3, 41988, Note_on_c, 1, 66, 0
3, 42240, Control_c, 1, 7, 100
3, 42240, Note_on_c, 1, 66, 100
3, 42280, Control_c, 1, 7, 102
3, 42320, Control_c, 1, 7, 103
3, 42360, Control_c, 1, 7, 105
3, 42400, Control_c, 1, 7, 107
3, 42440, Control_c, 1, 7, 108
3, 42468, Note_on_c, 1, 66, 0
3, 42480, Control_c, 1, 7, 110
3, 42480, Note_on_c, 1, 66, 100
3, 42520, Control_c, 1, 7, 112
3, 42560, Control_c, 1, 7, 113
3, 42600, Control_c, 1, 7, 115
3, 42708, Note_on_c, 1, 66, 0
3, 42720, Note_on_c, 1, 67, 100
3, 42760, Control_c, 1, 7, 114
3, 42840, Control_c, 1, 7, 113
3, 42920, Control_c, 1, 7, 112
3, 42948, Note_on_c, 1, 67, 0
3, 42960, Note_on_c, 1, 66, 100
3, 43000, Control_c, 1, 7, 111
3, 43080, Control_c, 1, 7, 110
3, 43120, Control_c, 1, 7, 109
3, 43188, Note_on_c, 1, 66, 0
3, 43200, Control_c, 1, 7, 108
3, 43200, Note_on_c, 1, 74, 100
3, 43280, Control_c, 1, 7, 107
3, 43360, Control_c, 1, 7, 106
3, 43440, Control_c, 1, 7, 105
3, 43480, Control_c, 1, 7, 104
3, 43560, Control_c, 1, 7, 103
3, 43640, Control_c, 1, 7, 102
3, 43656, Note_on_c, 1, 74, 0
3, 43680, Note_on_c, 1, 71, 100
3, 43720, Control_c, 1, 7, 101
3, 43800, Control_c, 1, 7, 100
3, 44136, Note_on_c, 1, 71, 0
3, 44160, Note_on_c, 1, 71, 100
3, 44388, Note_on_c, 1, 71, 0
3, 44400, Note_on_c, 1, 69, 100
3, 44628, Note_on_c, 1, 69, 0
3, 44640, Note_on_c, 1, 71, 100
3, 44868, Note_on_c, 1, 71, 0
3, 44880, Note_on_c, 1, 69, 100
3, 45108, Note_on_c, 1, 69, 0
3, 45120, Note_on_c, 1, 67, 100
3, 45400, Control_c, 1, 7, 99
3, 45440, Control_c, 1, 7, 98
3, 45520, Control_c, 1, 7, 97
3, 45560, Control_c, 1, 7, 96
3, 45600, Control_c, 1, 7, 95
3, 45714, Note_on_c, 1, 67, 0
3, 45720, Note_on_c, 1, 66, 100
3, 45834, Note_on_c, 1, 66, 0
3, 45840, Note_on_c, 1, 64, 100
3, 45954, Note_on_c, 1, 64, 0
3, 45960, Note_on_c, 1, 62, 100
3, 46074, Note_on_c, 1, 62, 0
3, 46080, Note_on_c, 1, 62, 100
3, 46120, Control_c, 1, 7, 96
3, 46160, Control_c, 1, 7, 97
3, 46240, Control_c, 1, 7, 98
3, 46280, Control_c, 1, 7, 99
3, 46308, Note_on_c, 1, 62, 0
3, 46320, Control_c, 1, 7, 100
3, 46320, Note_on_c, 1, 64, 100
3, 46400, Control_c, 1, 7, 101
3, 46440, Control_c, 1, 7, 102
3, 46480, Control_c, 1, 7, 103
3, 46548, Note_on_c, 1, 64, 0
3, 46560, Control_c, 1, 7, 104
3, 46560, Note_on_c, 1, 66, 100
3, 46600, Control_c, 1, 7, 105
3, 46640, Control_c, 1, 7, 106
3, 46720, Control_c, 1, 7, 107
3, 46760, Control_c, 1, 7, 108
3, 46788, Note_on_c, 1, 66, 0
3, 46800, Control_c, 1, 7, 109
3, 46800, Note_on_c, 1, 71, 100
3, 46880, Control_c, 1, 7, 110
3, 46920, Control_c, 1, 7, 111
3, 47028, Note_on_c, 1, 71, 0
3, 47040, Note_on_c, 1, 69, 100
3, 47080, Control_c, 1, 7, 110
3, 47120, Control_c, 1, 7, 109
3, 47160, Control_c, 1, 7, 108
3, 47200, Control_c, 1, 7, 107
3, 47280, Control_c, 1, 7, 106
3, 47320, Control_c, 1, 7, 105
3, 47360, Control_c, 1, 7, 104
3, 47400, Control_c, 1, 7, 103
3, 47440, Control_c, 1, 7, 102
3, 47480, Control_c, 1, 7, 101
3, 47496, Note_on_c, 1, 69, 0
3, 47520, Control_c, 1, 7, 100
3, 47520, Note_on_c, 1, 66, 100
3, 47560, Control_c, 1, 7, 99
3, 47640, Control_c, 1, 7, 98
3, 47680, Control_c, 1, 7, 97
3, 47720, Control_c, 1, 7, 96
3, 47748, Note_on_c, 1, 66, 0
3, 47760, Control_c, 1, 7, 95
3, 47760, Note_on_c, 1, 64, 100
3, 47988, Note_on_c, 1, 64, 0
3, 48000, Note_on_c, 1, 62, 100
3, 48040, Control_c, 1, 7, 96
3, 48080, Control_c, 1, 7, 98
3, 48120, Control_c, 1, 7, 99
3, 48160, Control_c, 1, 7, 100
3, 48200, Control_c, 1, 7, 102
3, 48228, Note_on_c, 1, 62, 0
3, 48240, Control_c, 1, 7, 103
3, 48240, Note_on_c, 1, 64, 100
3, 48280, Control_c, 1, 7, 104
3, 48320, Control_c, 1, 7, 106
3, 48360, Control_c, 1, 7, 107
3, 48400, Control_c, 1, 7, 108
3, 48440, Control_c, 1, 7, 110
3, 48468, Note_on_c, 1, 64, 0
3, 48480, Control_c, 1, 7, 111
3, 48480, Note_on_c, 1, 66, 100
3, 48708, Note_on_c, 1, 66, 0
3, 48720, Note_on_c, 1, 68, 100
3, 48760, Control_c, 1, 7, 106
3, 48800, Control_c, 1, 7, 100
3, 48834, Note_on_c, 1, 68, 0
3, 48840, Control_c, 1, 7, 95
3, 48840, Note_on_c, 1, 66, 100
3, 48954, Note_on_c, 1, 66, 0
3, 48960, Note_on_c, 1, 64, 100
3, 49416, Note_on_c, 1, 64, 0
3, 49440, Note_on_c, 1, 61, 100
3, 49668, Note_on_c, 1, 61, 0
3, 49920, Note_on_c, 1, 62, 100
3, 50000, Control_c, 1, 7, 96
3, 50080, Control_c, 1, 7, 97
3, 50148, Note_on_c, 1, 62, 0
3, 50160, Control_c, 1, 7, 98
3, 50160, Note_on_c, 1, 64, 100
3, 50240, Control_c, 1, 7, 99
3, 50360, Control_c, 1, 7, 100
3, 50388, Note_on_c, 1, 64, 0
3, 50400, Note_on_c, 1, 66, 100
3, 50440, Control_c, 1, 7, 101
3, 50520, Control_c, 1, 7, 102
3, 50600, Control_c, 1, 7, 103
3, 50628, Note_on_c, 1, 66, 0
3, 50640, Note_on_c, 1, 71, 100
3, 50720, Control_c, 1, 7, 104
3, 50800, Control_c, 1, 7, 105
3, 50868, Note_on_c, 1, 71, 0
3, 50880, Control_c, 1, 7, 106
3, 50880, Note_on_c, 1, 69, 100
3, 50960, Control_c, 1, 7, 107
3, 51080, Control_c, 1, 7, 108
3, 51160, Control_c, 1, 7, 109
3, 51240, Control_c, 1, 7, 110
3, 51320, Control_c, 1, 7, 111
3, 51336, Note_on_c, 1, 69, 0
3, 51360, Note_on_c, 1, 66, 100
3, 51440, Control_c, 1, 7, 112
3, 51520, Control_c, 1, 7, 113
3, 51588, Note_on_c, 1, 66, 0
3, 51600, Control_c, 1, 7, 114
3, 51600, Note_on_c, 1, 69, 100
3, 51680, Control_c, 1, 7, 115
3, 51828, Note_on_c, 1, 69, 0
3, 51840, Note_on_c, 1, 70, 100
3, 51920, Control_c, 1, 7, 114
3, 52000, Control_c, 1, 7, 113
3, 52068, Note_on_c, 1, 70, 0
3, 52080, Control_c, 1, 7, 112
3, 52080, Note_on_c, 1, 69, 100
3, 52160, Control_c, 1, 7, 111
3, 52240, Control_c, 1, 7, 110
3, 52308, Note_on_c, 1, 69, 0
3, 52320, Control_c, 1, 7, 109
3, 52320, Note_on_c, 1, 67, 100
3, 52400, Control_c, 1, 7, 108
3, 52480, Control_c, 1, 7, 107
3, 52548, Note_on_c, 1, 67, 0
3, 52560, Control_c, 1, 7, 106
3, 52560, Note_on_c, 1, 64, 100
3, 52640, Control_c, 1, 7, 105
3, 52760, Control_c, 1, 7, 104
3, 52788, Note_on_c, 1, 64, 0
3, 52800, Note_on_c, 1, 66, 100
3, 52840, Control_c, 1, 7, 103
3, 52840, Control_c, 1, 7, 103
3, 52920, Control_c, 1, 7, 102
3, 52920, Control_c, 1, 7, 102
3, 53000, Control_c, 1, 7, 101
3, 53000, Control_c, 1, 7, 101
3, 53080, Control_c, 1, 7, 100
3, 53080, Control_c, 1, 7, 100
3, 53142, Note_on_c, 1, 66, 0
3, 53160, Control_c, 1, 7, 99
3, 53160, Control_c, 1, 7, 99
3, 53160, Note_on_c, 1, 64, 100
3, 53240, Control_c, 1, 7, 98
3, 53240, Control_c, 1, 7, 98
3, 53274, Note_on_c, 1, 64, 0
3, 53280, Note_on_c, 1, 62, 100
3, 53320, Control_c, 1, 7, 97
3, 53320, Control_c, 1, 7, 97
3, 53400, Control_c, 1, 7, 96
3, 53400, Control_c, 1, 7, 96
3, 53480, Control_c, 1, 7, 95
3, 53480, Control_c, 1, 7, 95
3, 53736, Note_on_c, 1, 62, 0
3, 61440, Note_on_c, 1, 62, 100
3, 61480, Control_c, 1, 7, 96
3, 61520, Control_c, 1, 7, 97
3, 61600, Control_c, 1, 7, 98
3, 61640, Control_c, 1, 7, 99
3, 61668, Note_on_c, 1, 62, 0
3, 61680, Control_c, 1, 7, 100
3, 61680, Note_on_c, 1, 64, 100
3, 61760, Control_c, 1, 7, 101
3, 61800, Control_c, 1, 7, 102
3, 61840, Control_c, 1, 7, 103
3, 61908, Note_on_c, 1, 64, 0
3, 61920, Control_c, 1, 7, 104
3, 61920, Note_on_c, 1, 66, 100
3, 61960, Control_c, 1, 7, 105
3, 62000, Control_c, 1, 7, 106
3, 62080, Control_c, 1, 7, 107
3, 62120, Control_c, 1, 7, 108
3, 62148, Note_on_c, 1, 66, 0
3, 62160, Control_c, 1, 7, 109
3, 62160, Note_on_c, 1, 71, 100
3, 62240, Control_c, 1, 7, 110
3, 62280, Control_c, 1, 7, 111
3, 62388, Note_on_c, 1, 71, 0
3, 62400, Note_on_c, 1, 69, 100
3, 62440, Control_c, 1, 7, 110
3, 62480, Control_c, 1, 7, 109
3, 62560, Control_c, 1, 7, 108
3, 62600, Control_c, 1, 7, 107
3, 62640, Control_c, 1, 7, 106
3, 62720, Control_c, 1, 7, 105
3, 62760, Control_c, 1, 7, 104
3, 62800, Control_c, 1, 7, 103
3, 62856, Note_on_c, 1, 69, 0
3, 62880, Control_c, 1, 7, 102
3, 62880, Note_on_c, 1, 66, 100
3, 62920, Control_c, 1, 7, 101
3, 62960, Control_c, 1, 7, 100
3, 63040, Control_c, 1, 7, 99
3, 63080, Control_c, 1, 7, 98
3, 63120, Control_c, 1, 7, 97
3, 63200, Control_c, 1, 7, 96
3, 63240, Control_c, 1, 7, 95
3, 63336, Note_on_c, 1, 66, 0
3, 63360, Note_on_c, 1, 62, 100
3, 63400, Control_c, 1, 7, 97
3, 63440, Control_c, 1, 7, 99
3, 63480, Control_c, 1, 7, 100
3, 63520, Control_c, 1, 7, 102
3, 63560, Control_c, 1, 7, 104
3, 63588, Note_on_c, 1, 62, 0
3, 63600, Control_c, 1, 7, 106
3, 63600, Note_on_c, 1, 64, 100
3, 63640, Control_c, 1, 7, 107
3, 63680, Control_c, 1, 7, 109
3, 63720, Control_c, 1, 7, 111
3, 63828, Note_on_c, 1, 64, 0
3, 63840, Note_on_c, 1, 66, 100
3, 64000, Control_c, 1, 7, 108
3, 64040, Control_c, 1, 7, 106
3, 64068, Note_on_c, 1, 66, 0
3, 64080, Control_c, 1, 7, 103
3, 64080, Note_on_c, 1, 68, 100
3, 64120, Control_c, 1, 7, 100
3, 64160, Control_c, 1, 7, 98
3, 64194, Note_on_c, 1, 68, 0
3, 64200, Control_c, 1, 7, 95
3, 64200, Note_on_c, 1, 66, 100
3, 64314, Note_on_c, 1, 66, 0
3, 64320, Note_on_c, 1, 64, 100
3, 64776, Note_on_c, 1, 64, 0
3, 64800, Note_on_c, 1, 61, 100
3, 65028, Note_on_c, 1, 61, 0
3, 65280, Note_on_c, 1, 62, 100
3, 65320, Control_c, 1, 7, 96
3, 65360, Control_c, 1, 7, 97
3, 65440, Control_c, 1, 7, 98
3, 65480, Control_c, 1, 7, 99
3, 65508, Note_on_c, 1, 62, 0
3, 65520, Control_c, 1, 7, 100
3, 65520, Note_on_c, 1, 64, 100
3, 65600, Control_c, 1, 7, 101
3, 65640, Control_c, 1, 7, 102
3, 65680, Control_c, 1, 7, 103
3, 65748, Note_on_c, 1, 64, 0
3, 65760, Control_c, 1, 7, 104
3, 65760, Note_on_c, 1, 66, 100
3, 65800, Control_c, 1, 7, 105
3, 65840, Control_c, 1, 7, 106
3, 65920, Control_c, 1, 7, 107
3, 65960, Control_c, 1, 7, 108
3, 65988, Note_on_c, 1, 66, 0
3, 66000, Control_c, 1, 7, 109
3, 66000, Note_on_c, 1, 71, 100
3, 66080, Control_c, 1, 7, 110
3, 66120, Control_c, 1, 7, 111
3, 66228, Note_on_c, 1, 71, 0
3, 66240, Note_on_c, 1, 69, 100
3, 66280, Control_c, 1, 7, 110
3, 66320, Control_c, 1, 7, 109
3, 66400, Control_c, 1, 7, 108
3, 66440, Control_c, 1, 7, 107
3, 66480, Control_c, 1, 7, 106
3, 66560, Control_c, 1, 7, 105
3, 66600, Control_c, 1, 7, 104
3, 66640, Control_c, 1, 7, 103
3, 66696, Note_on_c, 1, 69, 0
3, 66720, Control_c, 1, 7, 102
3, 66720, Note_on_c, 1, 66, 100
3, 66760, Control_c, 1, 7, 101
3, 66800, Control_c, 1, 7, 100
3, 66880, Control_c, 1, 7, 99
3, 66920, Control_c, 1, 7, 98
3, 66960, Control_c, 1, 7, 97
3, 67040, Control_c, 1, 7, 96
3, 67080, Control_c, 1, 7, 95
3, 67176, Note_on_c, 1, 66, 0
3, 67200, Note_on_c, 1, 62, 100
3, 67360, Control_c, 1, 7, 96
3, 67400, Control_c, 1, 7, 97
3, 67428, Note_on_c, 1, 62, 0
3, 67440, Control_c, 1, 7, 98
3, 67440, Note_on_c, 1, 64, 100
3, 67480, Control_c, 1, 7, 99
3, 67560, Control_c, 1, 7, 100
3, 67600, Control_c, 1, 7, 101
3, 67640, Control_c, 1, 7, 102
3, 67668, Note_on_c, 1, 64, 0
3, 67680, Control_c, 1, 7, 103
3, 67680, Note_on_c, 1, 66, 100
3, 67720, Control_c, 1, 7, 104
3, 67760, Control_c, 1, 7, 105
3, 67800, Control_c, 1, 7, 106
3, 67840, Control_c, 1, 7, 107
3, 67908, Note_on_c, 1, 66, 0
3, 67920, Control_c, 1, 7, 108
3, 67920, Note_on_c, 1, 69, 100
3, 67960, Control_c, 1, 7, 109
3, 68000, Control_c, 1, 7, 110
3, 68034, Note_on_c, 1, 69, 0
3, 68040, Control_c, 1, 7, 111
3, 68040, Note_on_c, 1, 67, 100
3, 68154, Note_on_c, 1, 67, 0
3, 68160, Note_on_c, 1, 67, 100
3, 68200, Control_c, 1, 7, 110
3, 68240, Control_c, 1, 7, 109
3, 68280, Control_c, 1, 7, 108
3, 68320, Control_c, 1, 7, 107
3, 68360, Control_c, 1, 7, 106
3, 68400, Control_c, 1, 7, 105
3, 68440, Control_c, 1, 7, 104
3, 68480, Control_c, 1, 7, 102
3, 68520, Control_c, 1, 7, 101
3, 68560, Control_c, 1, 7, 100
3, 68600, Control_c, 1, 7, 99
3, 68616, Note_on_c, 1, 67, 0
3, 68640, Control_c, 1, 7, 98
3, 68640, Note_on_c, 1, 66, 100
3, 68680, Control_c, 1, 7, 97
3, 68720, Control_c, 1, 7, 96
3, 68760, Control_c, 1, 7, 95
3, 68868, Note_on_c, 1, 66, 0
3, 69120, Note_on_c, 1, 66, 100
3, 69160, Control_c, 1, 7, 97
3, 69200, Control_c, 1, 7, 99
3, 69240, Control_c, 1, 7, 100
3, 69280, Control_c, 1, 7, 102
3, 69320, Control_c, 1, 7, 104
3, 69348, Note_on_c, 1, 66, 0
3, 69360, Control_c, 1, 7, 106
3, 69360, Note_on_c, 1, 66, 100
3, 69400, Control_c, 1, 7, 107
3, 69440, Control_c, 1, 7, 109
3, 69480, Control_c, 1, 7, 111
3, 69588, Note_on_c, 1, 66, 0
3, 69600, Note_on_c, 1, 67, 100
3, 69640, Control_c, 1, 7, 110
3, 69720, Control_c, 1, 7, 109
3, 69800, Control_c, 1, 7, 108
3, 69828, Note_on_c, 1, 67, 0
3, 69840, Control_c, 1, 7, 107
3, 69840, Note_on_c, 1, 66, 100
3, 69920, Control_c, 1, 7, 106
3, 70000, Control_c, 1, 7, 105
3, 70040, Control_c, 1, 7, 104
3, 70068, Note_on_c, 1, 66, 0
3, 70080, Note_on_c, 1, 74, 100
3, 70120, Control_c, 1, 7, 103
3, 70200, Control_c, 1, 7, 102
3, 70280, Control_c, 1, 7, 101
3, 70320, Control_c, 1, 7, 100
3, 70400, Control_c, 1, 7, 99
3, 70480, Control_c, 1, 7, 98
3, 70520, Control_c, 1, 7, 97
3, 70536, Note_on_c, 1, 74, 0
3, 70560, Note_on_c, 1, 71, 100
3, 70600, Control_c, 1, 7, 96
3, 70680, Control_c, 1, 7, 95
3, 71016, Note_on_c, 1, 71, 0
3, 71040, Note_on_c, 1, 71, 100
3, 71268, Note_on_c, 1, 71, 0
3, 71280, Note_on_c, 1, 69, 100
3, 71508, Note_on_c, 1, 69, 0
3, 71520, Note_on_c, 1, 71, 100
3, 71748, Note_on_c, 1, 71, 0
3, 71760, Note_on_c, 1, 69, 100
3, 71988, Note_on_c, 1, 69, 0
3, 72000, Note_on_c, 1, 67, 100
3, 72280, Control_c, 1, 7, 94
3, 72320, Control_c, 1, 7, 93
3, 72360, Control_c, 1, 7, 92
3, 72440, Control_c, 1, 7, 91
3, 72480, Control_c, 1, 7, 90
3, 72594, Note_on_c, 1, 67, 0
3, 72600, Note_on_c, 1, 66, 100
3, 72714, Note_on_c, 1, 66, 0
3, 72720, Note_on_c, 1, 64, 100
3, 72834, Note_on_c, 1, 64, 0
3, 72840, Note_on_c, 1, 62, 100
3, 72954, Note_on_c, 1, 62, 0
3, 72960, Note_on_c, 1, 62, 100
3, 73000, Control_c, 1, 7, 91
3, 73040, Control_c, 1, 7, 92
3, 73080, Control_c, 1, 7, 93
3, 73120, Control_c, 1, 7, 94
3, 73160, Control_c, 1, 7, 95
3, 73188, Note_on_c, 1, 62, 0
3, 73200, Control_c, 1, 7, 96
3, 73200, Note_on_c, 1, 64, 100
3, 73240, Control_c, 1, 7, 97
3, 73280, Control_c, 1, 7, 98
3, 73320, Control_c, 1, 7, 99
3, 73360, Control_c, 1, 7, 100
3, 73428, Note_on_c, 1, 64, 0
3, 73440, Control_c, 1, 7, 101
3, 73440, Note_on_c, 1, 66, 100
3, 73480, Control_c, 1, 7, 102
3, 73520, Control_c, 1, 7, 103
3, 73560, Control_c, 1, 7, 104
3, 73600, Control_c, 1, 7, 105
3, 73640, Control_c, 1, 7, 106
3, 73668, Note_on_c, 1, 66, 0
3, 73680, Control_c, 1, 7, 107
3, 73680, Note_on_c, 1, 71, 100
3, 73720, Control_c, 1, 7, 108
3, 73760, Control_c, 1, 7, 109
3, 73800, Control_c, 1, 7, 110
3, 73908, Note_on_c, 1, 71, 0
3, 73920, Note_on_c, 1, 69, 100
3, 73960, Control_c, 1, 7, 109
3, 74000, Control_c, 1, 7, 108
3, 74040, Control_c, 1, 7, 107
3, 74080, Control_c, 1, 7, 106
3, 74160, Control_c, 1, 7, 105
3, 74200, Control_c, 1, 7, 104
3, 74240, Control_c, 1, 7, 103
3, 74280, Control_c, 1, 7, 102
3, 74320, Control_c, 1, 7, 101
3, 74360, Control_c, 1, 7, 100
3, 74376, Note_on_c, 1, 69, 0
3, 74400, Note_on_c, 1, 66, 100
3, 74400, Control_c, 1, 7, 99
3, 74440, Control_c, 1, 7, 98
3, 74520, Control_c, 1, 7, 97
3, 74560, Control_c, 1, 7, 96
3, 74600, Control_c, 1, 7, 95
3, 74628, Note_on_c, 1, 66, 0
3, 74640, Control_c, 1, 7, 94
3, 74640, Note_on_c, 1, 64, 100
3, 74868, Note_on_c, 1, 64, 0
3, 74880, Note_on_c, 1, 62, 100
3, 74920, Control_c, 1, 7, 95
3, 74960, Control_c, 1, 7, 97
3, 75000, Control_c, 1, 7, 98
3, 75040, Control_c, 1, 7, 100
3, 75080, Control_c, 1, 7, 101
3, 75108, Note_on_c, 1, 62, 0
3, 75120, Control_c, 1, 7, 103
3, 75120, Note_on_c, 1, 64, 100
3, 75160, Control_c, 1, 7, 104
3, 75200, Control_c, 1, 7, 105
3, 75240, Control_c, 1, 7, 107
3, 75280, Control_c, 1, 7, 108
3, 75320, Control_c, 1, 7, 110
3, 75348, Note_on_c, 1, 64, 0
3, 75360, Control_c, 1, 7, 111
3, 75360, Note_on_c, 1, 66, 100
3, 75588, Note_on_c, 1, 66, 0
3, 75600, Note_on_c, 1, 68, 100
3, 75640, Control_c, 1, 7, 106
3, 75680, Control_c, 1, 7, 100
3, 75714, Note_on_c, 1, 68, 0
3, 75720, Control_c, 1, 7, 95
3, 75720, Note_on_c, 1, 66, 100
3, 75834, Note_on_c, 1, 66, 0
3, 75840, Note_on_c, 1, 64, 100
3, 76296, Note_on_c, 1, 64, 0
3, 76320, Note_on_c, 1, 61, 100
3, 76548, Note_on_c, 1, 61, 0
3, 76800, Note_on_c, 1, 62, 100
3, 76880, Control_c, 1, 7, 96
3, 76960, Control_c, 1, 7, 97
3, 77028, Note_on_c, 1, 62, 0
3, 77040, Control_c, 1, 7, 98
3, 77040, Note_on_c, 1, 64, 100
3, 77120, Control_c, 1, 7, 99
3, 77240, Control_c, 1, 7, 100
3, 77268, Note_on_c, 1, 64, 0
3, 77280, Note_on_c, 1, 66, 100
3, 77320, Control_c, 1, 7, 101
3, 77400, Control_c, 1, 7, 102
3, 77480, Control_c, 1, 7, 103
3, 77508, Note_on_c, 1, 66, 0
3, 77520, Note_on_c, 1, 71, 100
3, 77600, Control_c, 1, 7, 104
3, 77680, Control_c, 1, 7, 105
3, 77748, Note_on_c, 1, 71, 0
3, 77760, Control_c, 1, 7, 106
3, 77760, Note_on_c, 1, 69, 100
3, 77840, Control_c, 1, 7, 107
3, 77960, Control_c, 1, 7, 108
3, 78040, Control_c, 1, 7, 109
3, 78120, Control_c, 1, 7, 110
3, 78200, Control_c, 1, 7, 111
3, 78216, Note_on_c, 1, 69, 0
3, 78240, Note_on_c, 1, 66, 100
3, 78320, Control_c, 1, 7, 112
3, 78400, Control_c, 1, 7, 113
3, 78468, Note_on_c, 1, 66, 0
3, 78480, Control_c, 1, 7, 114
3, 78480, Note_on_c, 1, 69, 100
3, 78560, Control_c, 1, 7, 115
3, 78708, Note_on_c, 1, 69, 0
3, 78720, Note_on_c, 1, 70, 100
3, 78800, Control_c, 1, 7, 114
3, 78880, Control_c, 1, 7, 113
3, 78948, Note_on_c, 1, 70, 0
3, 78960, Control_c, 1, 7, 112
3, 78960, Note_on_c, 1, 69, 100
3, 79040, Control_c, 1, 7, 111
3, 79120, Control_c, 1, 7, 110
3, 79188, Note_on_c, 1, 69, 0
3, 79200, Note_on_c, 1, 67, 100
3, 79200, Control_c, 1, 7, 109
3, 79280, Control_c, 1, 7, 108
3, 79360, Control_c, 1, 7, 107
3, 79428, Note_on_c, 1, 67, 0
3, 79440, Control_c, 1, 7, 106
3, 79440, Note_on_c, 1, 64, 100
3, 79520, Control_c, 1, 7, 105
3, 79640, Control_c, 1, 7, 104
3, 79668, Note_on_c, 1, 64, 0
3, 79680, Note_on_c, 1, 66, 100
3, 79720, Control_c, 1, 7, 103
3, 79800, Control_c, 1, 7, 102
3, 79880, Control_c, 1, 7, 101
3, 79960, Control_c, 1, 7, 100
3, 80022, Note_on_c, 1, 66, 0
3, 80040, Control_c, 1, 7, 99
3, 80040, Note_on_c, 1, 64, 100
3, 80120, Control_c, 1, 7, 98
3, 80154, Note_on_c, 1, 64, 0
3, 80160, Note_on_c, 1, 62, 100
3, 80200, Control_c, 1, 7, 97
3, 80280, Control_c, 1, 7, 96
3, 80360, Control_c, 1, 7, 95
3, 80616, Note_on_c, 1, 62, 0
3, 85440, End_track
0, 0, End_of_file