0, 0, Header, 1, 2, 1024
1, 0, Start_track
1, 0, Time_signature, 6, 2, 24, 8
1, 0, Key_signature, -5, "minor"
1, 0, Tempo, 333333
1, 12288, Time_signature, 4, 2, 24, 8
1, 196609, End_track
2, 0, Start_track
2, 0, Title_t, "Acoustic Grand Piano"
2, 0, Program_c, 0, 0
2, 0, Note_on_c, 0, 63, 80
2, 0, Note_on_c, 0, 69, 80
2, 0, Note_on_c, 0, 78, 80
2, 0, Note_on_c, 0, 29, 80
2, 0, Note_on_c, 0, 41, 80
2, 1024, Note_off_c, 0, 63, 0
2, 1024, Note_off_c, 0, 69, 0
2, 1024, Note_off_c, 0, 78, 0
2, 1024, Note_on_c, 0, 63, 80
2, 1024, Note_on_c, 0, 69, 80
2, 1024, Note_on_c, 0, 77, 80
2, 1024, Note_on_c, 0, 48, 80
2, 1024, Note_on_c, 0, 53, 80
2, 1024, Note_on_c, 0, 60, 80
2, 2048, Note_off_c, 0, 63, 0
2, 2048, Note_off_c, 0, 69, 0
2, 2048, Note_off_c, 0, 77, 0
2, 2048, Note_on_c, 0, 63, 80
2, 2048, Note_on_c, 0, 69, 80
2, 2048, Note_on_c, 0, 76, 80
2, 2048, Note_off_c, 0, 48, 0
2, 2048, Note_off_c, 0, 53, 0
2, 2048, Note_off_c, 0, 60, 0
2, 2048, Note_on_c, 0, 48, 80
2, 2048, Note_on_c, 0, 53, 80
2, 2048, Note_on_c, 0, 60, 80
2, 3072, Note_off_c, 0, 63, 0
2, 3072, Note_off_c, 0, 69, 0
2, 3072, Note_off_c, 0, 76, 0
2, 3072, Note_on_c, 0, 63, 80
2, 3072, Note_on_c, 0, 69, 80
2, 3072, Note_on_c, 0, 75, 80
2, 3072, Note_off_c, 0, 48, 0
2, 3072, Note_off_c, 0, 53, 0
2, 3072, Note_off_c, 0, 60, 0
2, 3072, Note_on_c, 0, 48, 80
2, 3072, Note_on_c, 0, 53, 80
2, 3072, Note_on_c, 0, 60, 80
2, 4096, Note_off_c, 0, 63, 0
2, 4096, Note_off_c, 0, 69, 0
2, 4096, Note_off_c, 0, 75, 0
2, 4096, Note_on_c, 0, 63, 80
2, 4096, Note_on_c, 0, 69, 80
2, 4096, Note_on_c, 0, 73, 80
2, 4096, Note_off_c, 0, 48, 0
2, 4096, Note_off_c, 0, 53, 0
2, 4096, Note_off_c, 0, 60, 0
2, 4096, Note_on_c, 0, 48, 80
2, 4096, Note_on_c, 0, 53, 80
2, 4096, Note_on_c, 0, 60, 80
2, 5120, Note_off_c, 0, 63, 0
2, 5120, Note_off_c, 0, 69, 0
2, 5120, Note_off_c, 0, 73, 0
2, 5120, Note_on_c, 0, 63, 80
2, 5120, Note_on_c, 0, 69, 80
2, 5120, Note_on_c, 0, 72, 80
2, 5120, Note_off_c, 0, 48, 0
2, 5120, Note_off_c, 0, 53, 0
2, 5120, Note_off_c, 0, 60, 0
2, 5120, Note_on_c, 0, 48, 80
2, 5120, Note_on_c, 0, 53, 80
2, 5120, Note_on_c, 0, 60, 80
2, 6144, Note_off_c, 0, 63, 0
2, 6144, Note_off_c, 0, 69, 0
2, 6144, Note_off_c, 0, 72, 0
2, 6144, Note_off_c, 0, 48, 0
2, 6144, Note_off_c, 0, 53, 0
2, 6144, Note_off_c, 0, 60, 0
2, 6144, Note_off_c, 0, 29, 0
2, 6144, Note_off_c, 0, 41, 0
2, 12288, Note_on_c, 0, 77, 64
2, 12288, Note_on_c, 0, 46, 64
2, 12544, Note_off_c, 0, 77, 0
2, 12544, Note_on_c, 0, 72, 64
2, 12800, Note_off_c, 0, 72, 0
2, 12800, Note_on_c, 0, 75, 64
2, 12800, Note_on_c, 0, 53, 48
2, 12800, Note_on_c, 0, 61, 48
2, 13056, Note_off_c, 0, 75, 0
2, 13056, Note_on_c, 0, 73, 64
2, 13312, Note_off_c, 0, 73, 0
2, 13312, Note_on_c, 0, 65, 64
2, 13312, Note_off_c, 0, 46, 0
2, 13568, Note_off_c, 0, 65, 0
2, 13568, Note_on_c, 0, 69, 64
2, 13824, Note_off_c, 0, 69, 0
2, 13824, Note_on_c, 0, 70, 64
2, 13824, Note_off_c, 0, 53, 0
2, 13824, Note_off_c, 0, 61, 0
2, 13824, Note_on_c, 0, 41, 64
2, 14080, Note_off_c, 0, 70, 0
2, 14080, Note_on_c, 0, 72, 64
2, 14336, Note_off_c, 0, 72, 0
2, 14336, Note_on_c, 0, 73, 64
2, 14336, Note_off_c, 0, 41, 0
2, 14336, Note_on_c, 0, 46, 64
2, 14592, Note_off_c, 0, 73, 0
2, 14592, Note_on_c, 0, 75, 64
2, 14848, Note_off_c, 0, 75, 0
2, 14848, Note_on_c, 0, 77, 64
2, 14848, Note_on_c, 0, 53, 48
2, 14848, Note_on_c, 0, 61, 48
2, 15104, Note_off_c, 0, 77, 0
2, 15104, Note_on_c, 0, 79, 64
2, 15360, Note_off_c, 0, 79, 0
2, 15360, Note_on_c, 0, 81, 64
2, 15360, Note_off_c, 0, 46, 0
2, 15616, Note_off_c, 0, 81, 0
2, 15616, Note_on_c, 0, 82, 64
2, 15872, Note_off_c, 0, 82, 0
2, 15872, Note_on_c, 0, 84, 64
2, 15872, Note_off_c, 0, 53, 0
2, 15872, Note_off_c, 0, 61, 0
2, 15872, Note_on_c, 0, 41, 64
2, 16128, Note_off_c, 0, 84, 0
2, 16128, Note_on_c, 0, 85, 64
2, 16384, Note_off_c, 0, 85, 0
2, 16384, Note_off_c, 0, 41, 0
2, 16384, Note_on_c, 0, 87, 64
2, 16384, Note_on_c, 0, 46, 64
2, 16640, Note_off_c, 0, 87, 0
2, 16640, Note_on_c, 0, 89, 64
2, 16896, Note_off_c, 0, 89, 0
2, 16896, Note_on_c, 0, 91, 64
2, 16896, Note_on_c, 0, 53, 48
2, 16896, Note_on_c, 0, 61, 48
2, 17152, Note_off_c, 0, 91, 0
2, 17152, Note_on_c, 0, 93, 64
2, 17408, Note_off_c, 0, 93, 0
2, 17408, Note_on_c, 0, 94, 64
2, 17408, Note_off_c, 0, 46, 0
2, 17664, Note_off_c, 0, 94, 0
2, 17664, Note_on_c, 0, 96, 64
2, 17920, Note_off_c, 0, 96, 0
2, 17920, Note_on_c, 0, 97, 64
2, 17920, Note_off_c, 0, 53, 0
2, 17920, Note_off_c, 0, 61, 0
2, 17920, Note_on_c, 0, 41, 64
2, 18176, Note_off_c, 0, 97, 0
2, 18176, Note_on_c, 0, 99, 64
2, 18432, Note_off_c, 0, 99, 0
2, 18432, Note_on_c, 0, 100, 64
2, 18432, Note_off_c, 0, 41, 0
2, 18432, Note_on_c, 0, 46, 64
2, 18688, Note_off_c, 0, 100, 0
2, 18688, Note_on_c, 0, 101, 64
2, 18944, Note_off_c, 0, 101, 0
2, 18944, Note_on_c, 0, 99, 64
2, 18944, Note_on_c, 0, 53, 48
2, 18944, Note_on_c, 0, 61, 48
2, 19200, Note_off_c, 0, 99, 0
2, 19200, Note_on_c, 0, 97, 64
2, 19456, Note_off_c, 0, 97, 0
2, 19456, Note_on_c, 0, 96, 64
2, 19456, Note_off_c, 0, 46, 0
2, 19712, Note_off_c, 0, 96, 0
2, 19712, Note_on_c, 0, 94, 64
2, 19968, Note_off_c, 0, 94, 0
2, 19968, Note_on_c, 0, 93, 64
2, 19968, Note_off_c, 0, 53, 0
2, 19968, Note_off_c, 0, 61, 0
2, 19968, Note_on_c, 0, 41, 64
2, 20224, Note_off_c, 0, 93, 0
2, 20224, Note_on_c, 0, 94, 64
2, 20480, Note_off_c, 0, 94, 0
2, 20480, Note_off_c, 0, 41, 0
2, 20480, Note_on_c, 0, 92, 64
2, 20480, Note_on_c, 0, 46, 64
2, 20736, Note_off_c, 0, 92, 0
2, 20736, Note_on_c, 0, 90, 64
2, 20992, Note_off_c, 0, 90, 0
2, 20992, Note_on_c, 0, 89, 64
2, 20992, Note_on_c, 0, 53, 48
2, 20992, Note_on_c, 0, 61, 48
2, 21248, Note_off_c, 0, 89, 0
2, 21248, Note_on_c, 0, 88, 64
2, 21504, Note_off_c, 0, 88, 0
2, 21504, Note_on_c, 0, 89, 64
2, 21504, Note_off_c, 0, 46, 0
2, 21760, Note_off_c, 0, 89, 0
2, 21760, Note_on_c, 0, 87, 64
2, 22016, Note_off_c, 0, 87, 0
2, 22016, Note_on_c, 0, 85, 64
2, 22016, Note_off_c, 0, 53, 0
2, 22016, Note_off_c, 0, 61, 0
2, 22016, Note_on_c, 0, 41, 64
2, 22272, Note_off_c, 0, 85, 0
2, 22272, Note_on_c, 0, 84, 64
2, 22528, Note_off_c, 0, 84, 0
2, 22528, Note_on_c, 0, 82, 64
2, 22528, Note_off_c, 0, 41, 0
2, 22528, Note_on_c, 0, 46, 64
2, 22784, Note_off_c, 0, 82, 0
2, 22784, Note_on_c, 0, 81, 64
2, 23040, Note_off_c, 0, 81, 0
2, 23040, Note_on_c, 0, 82, 64
2, 23040, Note_on_c, 0, 53, 48
2, 23040, Note_on_c, 0, 61, 48
2, 23296, Note_off_c, 0, 82, 0
2, 23296, Note_on_c, 0, 80, 64
2, 23552, Note_off_c, 0, 80, 0
2, 23552, Note_on_c, 0, 78, 64
2, 23552, Note_off_c, 0, 46, 0
2, 23808, Note_off_c, 0, 78, 0
2, 23808, Note_on_c, 0, 77, 64
2, 24064, Note_off_c, 0, 77, 0
2, 24064, Note_on_c, 0, 75, 64
2, 24064, Note_off_c, 0, 53, 0
2, 24064, Note_off_c, 0, 61, 0
2, 24064, Note_on_c, 0, 41, 64
2, 24320, Note_off_c, 0, 75, 0
2, 24320, Note_on_c, 0, 73, 64
2, 24576, Note_off_c, 0, 73, 0
2, 24576, Note_off_c, 0, 41, 0
2, 24576, Note_on_c, 0, 72, 64
2, 24576, Note_on_c, 0, 46, 64
2, 24832, Note_off_c, 0, 72, 0
2, 24832, Note_on_c, 0, 73, 64
2, 25088, Note_off_c, 0, 73, 0
2, 25088, Note_on_c, 0, 75, 64
2, 25088, Note_on_c, 0, 51, 48
2, 25088, Note_on_c, 0, 54, 48
2, 25088, Note_on_c, 0, 63, 48
2, 25344, Note_off_c, 0, 75, 0
2, 25344, Note_on_c, 0, 77, 64
2, 25600, Note_off_c, 0, 77, 0
2, 25600, Note_on_c, 0, 78, 64
2, 25600, Note_off_c, 0, 46, 0
2, 25856, Note_off_c, 0, 78, 0
2, 25856, Note_on_c, 0, 80, 64
2, 26112, Note_off_c, 0, 80, 0
2, 26112, Note_on_c, 0, 82, 64
2, 26112, Note_off_c, 0, 51, 0
2, 26112, Note_off_c, 0, 54, 0
2, 26112, Note_off_c, 0, 63, 0
2, 26112, Note_on_c, 0, 34, 64
2, 26368, Note_off_c, 0, 82, 0
2, 26368, Note_on_c, 0, 84, 64
2, 26624, Note_off_c, 0, 84, 0
2, 26624, Note_on_c, 0, 82, 64
2, 26624, Note_off_c, 0, 34, 0
2, 26624, Note_on_c, 0, 46, 64
2, 26880, Note_off_c, 0, 82, 0
2, 26880, Note_on_c, 0, 80, 64
2, 27136, Note_off_c, 0, 80, 0
2, 27136, Note_on_c, 0, 78, 64
2, 27136, Note_on_c, 0, 51, 48
2, 27136, Note_on_c, 0, 54, 48
2, 27136, Note_on_c, 0, 63, 48
2, 27392, Note_off_c, 0, 78, 0
2, 27392, Note_on_c, 0, 77, 64
2, 27648, Note_off_c, 0, 77, 0
2, 27648, Note_on_c, 0, 75, 64
2, 27648, Note_off_c, 0, 46, 0
2, 27904, Note_off_c, 0, 75, 0
2, 27904, Note_on_c, 0, 73, 64
2, 28160, Note_off_c, 0, 73, 0
2, 28160, Note_on_c, 0, 72, 64
2, 28160, Note_off_c, 0, 51, 0
2, 28160, Note_off_c, 0, 54, 0
2, 28160, Note_off_c, 0, 63, 0
2, 28160, Note_on_c, 0, 34, 64
2, 28416, Note_off_c, 0, 72, 0
2, 28416, Note_on_c, 0, 75, 64
2, 28672, Note_off_c, 0, 75, 0
2, 28672, Note_off_c, 0, 34, 0
2, 28672, Note_on_c, 0, 78, 64
2, 28672, Note_on_c, 0, 46, 64
2, 28928, Note_off_c, 0, 78, 0
2, 28928, Note_on_c, 0, 74, 64
2, 29184, Note_off_c, 0, 74, 0
2, 29184, Note_on_c, 0, 77, 64
2, 29184, Note_on_c, 0, 51, 48
2, 29184, Note_on_c, 0, 54, 48
2, 29184, Note_on_c, 0, 63, 48
2, 29440, Note_off_c, 0, 77, 0
2, 29440, Note_on_c, 0, 75, 64
2, 29696, Note_off_c, 0, 75, 0
2, 29696, Note_on_c, 0, 72, 64
2, 29696, Note_off_c, 0, 46, 0
2, 29952, Note_off_c, 0, 72, 0
2, 29952, Note_on_c, 0, 66, 64
2, 30208, Note_off_c, 0, 66, 0
2, 30208, Note_on_c, 0, 71, 64
2, 30208, Note_off_c, 0, 51, 0
2, 30208, Note_off_c, 0, 54, 0
2, 30208, Note_off_c, 0, 63, 0
2, 30208, Note_on_c, 0, 34, 64
2, 30464, Note_off_c, 0, 71, 0
2, 30464, Note_on_c, 0, 72, 64
2, 30720, Note_off_c, 0, 72, 0
2, 30720, Note_on_c, 0, 73, 64
2, 30720, Note_off_c, 0, 34, 0
2, 30720, Note_on_c, 0, 46, 64
2, 30976, Note_off_c, 0, 73, 0
2, 30976, Note_on_c, 0, 72, 64
2, 31232, Note_off_c, 0, 72, 0
2, 31232, Note_on_c, 0, 74, 64
2, 31232, Note_on_c, 0, 51, 48
2, 31232, Note_on_c, 0, 54, 48
2, 31232, Note_on_c, 0, 63, 48
2, 31488, Note_off_c, 0, 74, 0
2, 31488, Note_on_c, 0, 75, 64
2, 31744, Note_off_c, 0, 75, 0
2, 31744, Note_on_c, 0, 77, 64
2, 31744, Note_off_c, 0, 46, 0
2, 32000, Note_off_c, 0, 77, 0
2, 32000, Note_on_c, 0, 75, 64
2, 32256, Note_off_c, 0, 75, 0
2, 32256, Note_on_c, 0, 76, 64
2, 32256, Note_off_c, 0, 51, 0
2, 32256, Note_off_c, 0, 54, 0
2, 32256, Note_off_c, 0, 63, 0
2, 32256, Note_on_c, 0, 34, 64
2, 32512, Note_off_c, 0, 76, 0
2, 32512, Note_on_c, 0, 77, 64
2, 32768, Note_off_c, 0, 77, 0
2, 32768, Note_off_c, 0, 34, 0
2, 32768, Note_on_c, 0, 80, 64
2, 32768, Note_on_c, 0, 46, 64
2, 33024, Note_off_c, 0, 80, 0
2, 33024, Note_on_c, 0, 78, 64
2, 33280, Note_off_c, 0, 78, 0
2, 33280, Note_on_c, 0, 81, 64
2, 33280, Note_on_c, 0, 51, 48
2, 33280, Note_on_c, 0, 54, 48
2, 33280, Note_on_c, 0, 63, 48
2, 33536, Note_off_c, 0, 81, 0
2, 33536, Note_on_c, 0, 82, 64
2, 33792, Note_off_c, 0, 82, 0
2, 33792, Note_on_c, 0, 85, 64
2, 33792, Note_off_c, 0, 46, 0
2, 34048, Note_off_c, 0, 85, 0
2, 34048, Note_on_c, 0, 84, 64
2, 34304, Note_off_c, 0, 84, 0
2, 34304, Note_on_c, 0, 86, 64
2, 34304, Note_off_c, 0, 51, 0
2, 34304, Note_off_c, 0, 54, 0
2, 34304, Note_off_c, 0, 63, 0
2, 34304, Note_on_c, 0, 34, 64
2, 34560, Note_off_c, 0, 86, 0
2, 34560, Note_on_c, 0, 87, 64
2, 34816, Note_off_c, 0, 87, 0
2, 34816, Note_on_c, 0, 89, 64
2, 34816, Note_off_c, 0, 34, 0
2, 34816, Note_on_c, 0, 46, 64
2, 35072, Note_off_c, 0, 89, 0
2, 35072, Note_on_c, 0, 87, 64
2, 35328, Note_off_c, 0, 87, 0
2, 35328, Note_on_c, 0, 88, 64
2, 35328, Note_on_c, 0, 51, 48
2, 35328, Note_on_c, 0, 54, 48
2, 35328, Note_on_c, 0, 63, 48
2, 35584, Note_off_c, 0, 88, 0
2, 35584, Note_on_c, 0, 89, 64
2, 35840, Note_off_c, 0, 89, 0
2, 35840, Note_on_c, 0, 92, 64
2, 35840, Note_off_c, 0, 46, 0
2, 36096, Note_off_c, 0, 92, 0
2, 36096, Note_on_c, 0, 94, 64
2, 36352, Note_off_c, 0, 94, 0
2, 36352, Note_on_c, 0, 92, 64
2, 36352, Note_off_c, 0, 51, 0
2, 36352, Note_off_c, 0, 54, 0
2, 36352, Note_off_c, 0, 63, 0
2, 36352, Note_on_c, 0, 46, 64
2, 36608, Note_off_c, 0, 92, 0
2, 36608, Note_on_c, 0, 91, 64
2, 36864, Note_off_c, 0, 91, 0
2, 36864, Note_off_c, 0, 46, 0
2, 36864, Note_on_c, 0, 90, 64
2, 36864, Note_on_c, 0, 45, 64
2, 37120, Note_off_c, 0, 90, 0
2, 37120, Note_on_c, 0, 101, 64
2, 37376, Note_off_c, 0, 101, 0
2, 37376, Note_on_c, 0, 99, 64
2, 37376, Note_on_c, 0, 54, 48
2, 37376, Note_on_c, 0, 63, 48
2, 37632, Note_off_c, 0, 99, 0
2, 37632, Note_on_c, 0, 87, 64
2, 37888, Note_off_c, 0, 87, 0
2, 37888, Note_on_c, 0, 97, 64
2, 37888, Note_off_c, 0, 45, 0
2, 38144, Note_off_c, 0, 97, 0
2, 38144, Note_on_c, 0, 96, 64
2, 38400, Note_off_c, 0, 96, 0
2, 38400, Note_on_c, 0, 84, 64
2, 38400, Note_off_c, 0, 54, 0
2, 38400, Note_off_c, 0, 63, 0
2, 38400, Note_on_c, 0, 33, 64
2, 38656, Note_off_c, 0, 84, 0
2, 38656, Note_on_c, 0, 94, 64
2, 38912, Note_off_c, 0, 94, 0
2, 38912, Note_on_c, 0, 93, 64
2, 38912, Note_off_c, 0, 33, 0
2, 38912, Note_on_c, 0, 45, 64
2, 39168, Note_off_c, 0, 93, 0
2, 39168, Note_on_c, 0, 81, 64
2, 39424, Note_off_c, 0, 81, 0
2, 39424, Note_on_c, 0, 92, 64
2, 39424, Note_on_c, 0, 54, 48
2, 39424, Note_on_c, 0, 63, 48
2, 39680, Note_off_c, 0, 92, 0
2, 39680, Note_on_c, 0, 90, 64
2, 39936, Note_off_c, 0, 90, 0
2, 39936, Note_on_c, 0, 78, 64
2, 39936, Note_off_c, 0, 45, 0
2, 40192, Note_off_c, 0, 78, 0
2, 40192, Note_on_c, 0, 89, 64
2, 40448, Note_off_c, 0, 89, 0
2, 40448, Note_on_c, 0, 87, 64
2, 40448, Note_off_c, 0, 54, 0
2, 40448, Note_off_c, 0, 63, 0
2, 40448, Note_on_c, 0, 45, 64
2, 40704, Note_off_c, 0, 87, 0
2, 40704, Note_on_c, 0, 78, 64
2, 40960, Note_off_c, 0, 78, 0
2, 40960, Note_off_c, 0, 45, 0
2, 40960, Note_on_c, 0, 77, 64
2, 40960, Note_on_c, 0, 46, 64
2, 41216, Note_off_c, 0, 77, 0
2, 41216, Note_on_c, 0, 87, 64
2, 41472, Note_off_c, 0, 87, 0
2, 41472, Note_on_c, 0, 85, 64
2, 41472, Note_on_c, 0, 53, 48
2, 41472, Note_on_c, 0, 61, 48
2, 41728, Note_off_c, 0, 85, 0
2, 41728, Note_on_c, 0, 77, 64
2, 41984, Note_off_c, 0, 77, 0
2, 41984, Note_on_c, 0, 85, 64
2, 41984, Note_off_c, 0, 46, 0
2, 42240, Note_off_c, 0, 85, 0
2, 42240, Note_on_c, 0, 84, 64
2, 42496, Note_off_c, 0, 84, 0
2, 42496, Note_on_c, 0, 75, 64
2, 42496, Note_off_c, 0, 53, 0
2, 42496, Note_off_c, 0, 61, 0
2, 42496, Note_on_c, 0, 46, 64
2, 42752, Note_off_c, 0, 75, 0
2, 42752, Note_on_c, 0, 84, 64
2, 43008, Note_off_c, 0, 84, 0
2, 43008, Note_on_c, 0, 73, 64
2, 43008, Note_off_c, 0, 46, 0
2, 43008, Note_on_c, 0, 49, 64
2, 43264, Note_off_c, 0, 73, 0
2, 43264, Note_on_c, 0, 82, 64
2, 43520, Note_off_c, 0, 82, 0
2, 43520, Note_on_c, 0, 80, 64
2, 43520, Note_on_c, 0, 53, 48
2, 43520, Note_on_c, 0, 58, 48
2, 43520, Note_on_c, 0, 65, 48
2, 43776, Note_off_c, 0, 80, 0
2, 43776, Note_on_c, 0, 72, 64
2, 44032, Note_off_c, 0, 72, 0
2, 44032, Note_on_c, 0, 80, 64
2, 44032, Note_off_c, 0, 49, 0
2, 44288, Note_off_c, 0, 80, 0
2, 44288, Note_on_c, 0, 78, 64
2, 44544, Note_off_c, 0, 78, 0
2, 44544, Note_on_c, 0, 70, 64
2, 44544, Note_off_c, 0, 53, 0
2, 44544, Note_off_c, 0, 58, 0
2, 44544, Note_off_c, 0, 65, 0
2, 44544, Note_on_c, 0, 49, 64
2, 44800, Note_off_c, 0, 70, 0
2, 44800, Note_on_c, 0, 78, 64
2, 45056, Note_off_c, 0, 78, 0
2, 45056, Note_off_c, 0, 49, 0
2, 45056, Note_on_c, 0, 69, 64
2, 45056, Note_on_c, 0, 51, 64
2, 45312, Note_off_c, 0, 69, 0
2, 45312, Note_on_c, 0, 70, 64
2, 45568, Note_off_c, 0, 70, 0
2, 45568, Note_on_c, 0, 72, 64
2, 45568, Note_on_c, 0, 57, 48
2, 45568, Note_on_c, 0, 66, 48
2, 45824, Note_off_c, 0, 72, 0
2, 45824, Note_on_c, 0, 73, 64
2, 46080, Note_off_c, 0, 73, 0
2, 46080, Note_on_c, 0, 75, 64
2, 46080, Note_off_c, 0, 51, 0
2, 46336, Note_off_c, 0, 75, 0
2, 46336, Note_on_c, 0, 76, 64
2, 46592, Note_off_c, 0, 76, 0
2, 46592, Note_on_c, 0, 77, 64
2, 46592, Note_off_c, 0, 57, 0
2, 46592, Note_off_c, 0, 66, 0
2, 46592, Note_on_c, 0, 51, 64
2, 46848, Note_off_c, 0, 77, 0
2, 46848, Note_on_c, 0, 78, 64
2, 47104, Note_off_c, 0, 78, 0
2, 47104, Note_on_c, 0, 76, 64
2, 47104, Note_off_c, 0, 51, 0
2, 47104, Note_on_c, 0, 49, 64
2, 47360, Note_off_c, 0, 76, 0
2, 47360, Note_on_c, 0, 77, 64
2, 47616, Note_off_c, 0, 77, 0
2, 47616, Note_on_c, 0, 74, 64
2, 47616, Note_on_c, 0, 53, 48
2, 47616, Note_on_c, 0, 58, 48
2, 47616, Note_on_c, 0, 65, 48
2, 47872, Note_off_c, 0, 74, 0
2, 47872, Note_on_c, 0, 75, 64
2, 48128, Note_off_c, 0, 75, 0
2, 48128, Note_on_c, 0, 72, 64
2, 48128, Note_off_c, 0, 49, 0
2, 48384, Note_off_c, 0, 72, 0
2, 48384, Note_on_c, 0, 73, 64
2, 48640, Note_off_c, 0, 73, 0
2, 48640, Note_on_c, 0, 72, 64
2, 48640, Note_off_c, 0, 53, 0
2, 48640, Note_off_c, 0, 58, 0
2, 48640, Note_off_c, 0, 65, 0
2, 48640, Note_on_c, 0, 49, 64
2, 48896, Note_off_c, 0, 72, 0
2, 48896, Note_on_c, 0, 70, 64
2, 49152, Note_off_c, 0, 70, 0
2, 49152, Note_off_c, 0, 49, 0
2, 49152, Note_on_c, 0, 69, 64
2, 49152, Note_on_c, 0, 51, 64
2, 49408, Note_off_c, 0, 69, 0
2, 49408, Note_on_c, 0, 70, 64
2, 49664, Note_off_c, 0, 70, 0
2, 49664, Note_on_c, 0, 72, 64
2, 49664, Note_on_c, 0, 57, 48
2, 49664, Note_on_c, 0, 66, 48
2, 49920, Note_off_c, 0, 72, 0
2, 49920, Note_on_c, 0, 73, 64
2, 50176, Note_off_c, 0, 73, 0
2, 50176, Note_on_c, 0, 75, 64
2, 50176, Note_off_c, 0, 51, 0
2, 50432, Note_off_c, 0, 75, 0
2, 50432, Note_on_c, 0, 76, 64
2, 50688, Note_off_c, 0, 76, 0
2, 50688, Note_on_c, 0, 77, 64
2, 50688, Note_off_c, 0, 57, 0
2, 50688, Note_off_c, 0, 66, 0
2, 50688, Note_on_c, 0, 51, 64
2, 50944, Note_off_c, 0, 77, 0
2, 50944, Note_on_c, 0, 78, 64
2, 51200, Note_off_c, 0, 78, 0
2, 51200, Note_on_c, 0, 76, 64
2, 51200, Note_off_c, 0, 51, 0
2, 51200, Note_on_c, 0, 49, 64
2, 51456, Note_off_c, 0, 76, 0
2, 51456, Note_on_c, 0, 77, 64
2, 51712, Note_off_c, 0, 77, 0
2, 51712, Note_on_c, 0, 74, 64
2, 51712, Note_on_c, 0, 53, 48
2, 51712, Note_on_c, 0, 58, 48
2, 51712, Note_on_c, 0, 65, 48
2, 51968, Note_off_c, 0, 74, 0
2, 51968, Note_on_c, 0, 75, 64
2, 52224, Note_off_c, 0, 75, 0
2, 52224, Note_on_c, 0, 72, 64
2, 52224, Note_off_c, 0, 49, 0
2, 52480, Note_off_c, 0, 72, 0
2, 52480, Note_on_c, 0, 73, 64
2, 52736, Note_off_c, 0, 73, 0
2, 52736, Note_on_c, 0, 72, 64
2, 52736, Note_off_c, 0, 53, 0
2, 52736, Note_off_c, 0, 58, 0
2, 52736, Note_off_c, 0, 65, 0
2, 52736, Note_on_c, 0, 49, 64
2, 52992, Note_off_c, 0, 72, 0
2, 52992, Note_on_c, 0, 70, 64
2, 53248, Note_off_c, 0, 70, 0
2, 53248, Note_off_c, 0, 49, 0
2, 53248, Note_on_c, 0, 71, 64
2, 53248, Note_on_c, 0, 53, 64
2, 53504, Note_off_c, 0, 71, 0
2, 53504, Note_on_c, 0, 72, 64
2, 53760, Note_off_c, 0, 72, 0
2, 53760, Note_on_c, 0, 74, 64
2, 53760, Note_on_c, 0, 59, 48
2, 53760, Note_on_c, 0, 68, 48
2, 54016, Note_off_c, 0, 74, 0
2, 54016, Note_on_c, 0, 75, 64
2, 54272, Note_off_c, 0, 75, 0
2, 54272, Note_on_c, 0, 76, 64
2, 54272, Note_off_c, 0, 53, 0
2, 54528, Note_off_c, 0, 76, 0
2, 54528, Note_on_c, 0, 77, 64
2, 54784, Note_off_c, 0, 77, 0
2, 54784, Note_on_c, 0, 79, 64
2, 54784, Note_off_c, 0, 59, 0
2, 54784, Note_off_c, 0, 68, 0
2, 54784, Note_on_c, 0, 53, 64
2, 55040, Note_off_c, 0, 79, 0
2, 55040, Note_on_c, 0, 80, 64
2, 55296, Note_off_c, 0, 80, 0
2, 55296, Note_on_c, 0, 78, 64
2, 55296, Note_off_c, 0, 53, 0
2, 55296, Note_on_c, 0, 51, 64
2, 55552, Note_off_c, 0, 78, 0
2, 55552, Note_on_c, 0, 79, 64
2, 55808, Note_off_c, 0, 79, 0
2, 55808, Note_on_c, 0, 76, 64
2, 55808, Note_on_c, 0, 55, 48
2, 55808, Note_on_c, 0, 60, 48
2, 55808, Note_on_c, 0, 67, 48
2, 56064, Note_off_c, 0, 76, 0
2, 56064, Note_on_c, 0, 77, 64
2, 56320, Note_off_c, 0, 77, 0
2, 56320, Note_on_c, 0, 74, 64
2, 56320, Note_off_c, 0, 51, 0
2, 56576, Note_off_c, 0, 74, 0
2, 56576, Note_on_c, 0, 75, 64
2, 56832, Note_off_c, 0, 75, 0
2, 56832, Note_on_c, 0, 74, 64
2, 56832, Note_off_c, 0, 55, 0
2, 56832, Note_off_c, 0, 60, 0
2, 56832, Note_off_c, 0, 67, 0
2, 56832, Note_on_c, 0, 51, 64
2, 57088, Note_off_c, 0, 74, 0
2, 57088, Note_on_c, 0, 72, 64
2, 57344, Note_off_c, 0, 72, 0
2, 57344, Note_off_c, 0, 51, 0
2, 57344, Note_on_c, 0, 71, 64
2, 57344, Note_on_c, 0, 53, 64
2, 57600, Note_off_c, 0, 71, 0
2, 57600, Note_on_c, 0, 72, 64
2, 57856, Note_off_c, 0, 72, 0
2, 57856, Note_on_c, 0, 74, 64
2, 57856, Note_on_c, 0, 59, 48
2, 57856, Note_on_c, 0, 68, 48
2, 58112, Note_off_c, 0, 74, 0
2, 58112, Note_on_c, 0, 75, 64
2, 58368, Note_off_c, 0, 75, 0
2, 58368, Note_on_c, 0, 76, 64
2, 58368, Note_off_c, 0, 53, 0
2, 58624, Note_off_c, 0, 76, 0
2, 58624, Note_on_c, 0, 77, 64
2, 58880, Note_off_c, 0, 77, 0
2, 58880, Note_on_c, 0, 79, 64
2, 58880, Note_off_c, 0, 59, 0
2, 58880, Note_off_c, 0, 68, 0
2, 58880, Note_on_c, 0, 53, 64
2, 59136, Note_off_c, 0, 79, 0
2, 59136, Note_on_c, 0, 80, 64
2, 59392, Note_off_c, 0, 80, 0
2, 59392, Note_on_c, 0, 78, 64
2, 59392, Note_off_c, 0, 53, 0
2, 59392, Note_on_c, 0, 51, 64
2, 59648, Note_off_c, 0, 78, 0
2, 59648, Note_on_c, 0, 79, 64
2, 59904, Note_off_c, 0, 79, 0
2, 59904, Note_on_c, 0, 76, 64
2, 59904, Note_on_c, 0, 55, 48
2, 59904, Note_on_c, 0, 60, 48
2, 59904, Note_on_c, 0, 67, 48
2, 60160, Note_off_c, 0, 76, 0
2, 60160, Note_on_c, 0, 77, 64
2, 60416, Note_off_c, 0, 77, 0
2, 60416, Note_on_c, 0, 74, 64
2, 60416, Note_off_c, 0, 51, 0
2, 60672, Note_off_c, 0, 74, 0
2, 60672, Note_on_c, 0, 75, 64
2, 60928, Note_off_c, 0, 75, 0
2, 60928, Note_on_c, 0, 74, 64
2, 60928, Note_off_c, 0, 55, 0
2, 60928, Note_off_c, 0, 60, 0
2, 60928, Note_off_c, 0, 67, 0
2, 60928, Note_on_c, 0, 51, 64
2, 61184, Note_off_c, 0, 74, 0
2, 61184, Note_on_c, 0, 72, 64
2, 61440, Note_off_c, 0, 72, 0
2, 61440, Note_off_c, 0, 51, 0
2, 61440, Note_on_c, 0, 73, 64
2, 61440, Note_on_c, 0, 53, 64
2, 61696, Note_off_c, 0, 73, 0
2, 61696, Note_on_c, 0, 75, 64
2, 61952, Note_off_c, 0, 75, 0
2, 61952, Note_on_c, 0, 77, 64
2, 61952, Note_on_c, 0, 56, 48
2, 61952, Note_on_c, 0, 61, 48
2, 61952, Note_on_c, 0, 68, 48
2, 62208, Note_off_c, 0, 77, 0
2, 62208, Note_on_c, 0, 78, 64
2, 62464, Note_off_c, 0, 78, 0
2, 62464, Note_on_c, 0, 80, 64
2, 62464, Note_off_c, 0, 53, 0
2, 62720, Note_off_c, 0, 80, 0
2, 62720, Note_on_c, 0, 82, 64
2, 62976, Note_off_c, 0, 82, 0
2, 62976, Note_on_c, 0, 83, 64
2, 62976, Note_off_c, 0, 56, 0
2, 62976, Note_off_c, 0, 61, 0
2, 62976, Note_off_c, 0, 68, 0
2, 62976, Note_on_c, 0, 53, 64
2, 63232, Note_off_c, 0, 83, 0
2, 63232, Note_on_c, 0, 84, 64
2, 63488, Note_off_c, 0, 84, 0
2, 63488, Note_on_c, 0, 85, 64
2, 63488, Note_off_c, 0, 53, 0
2, 63488, Note_on_c, 0, 54, 64
2, 63744, Note_off_c, 0, 85, 0
2, 63744, Note_on_c, 0, 86, 64
2, 64000, Note_off_c, 0, 86, 0
2, 64000, Note_on_c, 0, 89, 64
2, 64000, Note_on_c, 0, 57, 48
2, 64000, Note_on_c, 0, 60, 48
2, 64000, Note_on_c, 0, 69, 48
2, 64256, Note_off_c, 0, 89, 0
2, 64256, Note_on_c, 0, 87, 64
2, 64512, Note_off_c, 0, 87, 0
2, 64512, Note_on_c, 0, 84, 64
2, 64512, Note_off_c, 0, 54, 0
2, 64768, Note_off_c, 0, 84, 0
2, 64768, Note_on_c, 0, 81, 64
2, 65024, Note_off_c, 0, 81, 0
2, 65024, Note_on_c, 0, 78, 64
2, 65024, Note_off_c, 0, 57, 0
2, 65024, Note_off_c, 0, 60, 0
2, 65024, Note_off_c, 0, 69, 0
2, 65024, Note_on_c, 0, 54, 64
2, 65280, Note_off_c, 0, 78, 0
2, 65280, Note_on_c, 0, 75, 64
2, 65536, Note_off_c, 0, 75, 0
2, 65536, Note_off_c, 0, 54, 0
2, 65536, Note_on_c, 0, 73, 64
2, 65536, Note_on_c, 0, 53, 64
2, 65792, Note_off_c, 0, 73, 0
2, 65792, Note_on_c, 0, 75, 64
2, 66048, Note_off_c, 0, 75, 0
2, 66048, Note_on_c, 0, 77, 64
2, 66048, Note_on_c, 0, 56, 48
2, 66048, Note_on_c, 0, 61, 48
2, 66048, Note_on_c, 0, 68, 48
2, 66304, Note_off_c, 0, 77, 0
2, 66304, Note_on_c, 0, 78, 64
2, 66560, Note_off_c, 0, 78, 0
2, 66560, Note_on_c, 0, 80, 64
2, 66560, Note_off_c, 0, 53, 0
2, 66816, Note_off_c, 0, 80, 0
2, 66816, Note_on_c, 0, 82, 64
2, 67072, Note_off_c, 0, 82, 0
2, 67072, Note_on_c, 0, 83, 64
2, 67072, Note_off_c, 0, 56, 0
2, 67072, Note_off_c, 0, 61, 0
2, 67072, Note_off_c, 0, 68, 0
2, 67072, Note_on_c, 0, 53, 64
2, 67328, Note_off_c, 0, 83, 0
2, 67328, Note_on_c, 0, 84, 64
2, 67584, Note_off_c, 0, 84, 0
2, 67584, Note_on_c, 0, 85, 64
2, 67584, Note_off_c, 0, 53, 0
2, 67584, Note_on_c, 0, 52, 64
2, 67840, Note_off_c, 0, 85, 0
2, 67840, Note_on_c, 0, 84, 64
2, 68096, Note_off_c, 0, 84, 0
2, 68096, Note_on_c, 0, 87, 64
2, 68096, Note_on_c, 0, 58, 48
2, 68096, Note_on_c, 0, 61, 48
2, 68096, Note_on_c, 0, 67, 48
2, 68352, Note_off_c, 0, 87, 0
2, 68352, Note_on_c, 0, 85, 64
2, 68608, Note_off_c, 0, 85, 0
2, 68608, Note_on_c, 0, 82, 64
2, 68608, Note_off_c, 0, 52, 0
2, 68864, Note_off_c, 0, 82, 0
2, 68864, Note_on_c, 0, 79, 64
2, 69120, Note_off_c, 0, 79, 0
2, 69120, Note_on_c, 0, 76, 64
2, 69120, Note_off_c, 0, 58, 0
2, 69120, Note_off_c, 0, 61, 0
2, 69120, Note_off_c, 0, 67, 0
2, 69120, Note_on_c, 0, 52, 64
2, 69376, Note_off_c, 0, 76, 0
2, 69376, Note_on_c, 0, 73, 64
2, 69632, Note_off_c, 0, 73, 0
2, 69632, Note_off_c, 0, 52, 0
2, 69632, Note_on_c, 0, 72, 64
2, 69632, Note_on_c, 0, 51, 64
2, 69888, Note_off_c, 0, 72, 0
2, 69888, Note_on_c, 0, 73, 64
2, 70144, Note_off_c, 0, 73, 0
2, 70144, Note_on_c, 0, 74, 64
2, 70144, Note_on_c, 0, 57, 48
2, 70144, Note_on_c, 0, 60, 48
2, 70144, Note_on_c, 0, 66, 48
2, 70400, Note_off_c, 0, 74, 0
2, 70400, Note_on_c, 0, 75, 64
2, 70656, Note_off_c, 0, 75, 0
2, 70656, Note_on_c, 0, 76, 64
2, 70656, Note_off_c, 0, 51, 0
2, 70912, Note_off_c, 0, 76, 0
2, 70912, Note_on_c, 0, 77, 64
2, 71168, Note_off_c, 0, 77, 0
2, 71168, Note_on_c, 0, 78, 64
2, 71168, Note_off_c, 0, 57, 0
2, 71168, Note_off_c, 0, 60, 0
2, 71168, Note_off_c, 0, 66, 0
2, 71168, Note_on_c, 0, 51, 64
2, 71424, Note_off_c, 0, 78, 0
2, 71424, Note_on_c, 0, 79, 64
2, 71680, Note_off_c, 0, 79, 0
2, 71680, Note_on_c, 0, 80, 64
2, 71680, Note_off_c, 0, 51, 0
2, 71680, Note_on_c, 0, 49, 64
2, 71936, Note_off_c, 0, 80, 0
2, 71936, Note_on_c, 0, 81, 64
2, 72192, Note_off_c, 0, 81, 0
2, 72192, Note_on_c, 0, 84, 64
2, 72192, Note_on_c, 0, 53, 48
2, 72192, Note_on_c, 0, 58, 48
2, 72192, Note_on_c, 0, 65, 48
2, 72448, Note_off_c, 0, 84, 0
2, 72448, Note_on_c, 0, 82, 64
2, 72704, Note_off_c, 0, 82, 0
2, 72704, Note_on_c, 0, 78, 64
2, 72704, Note_off_c, 0, 49, 0
2, 72960, Note_off_c, 0, 78, 0
2, 72960, Note_on_c, 0, 77, 64
2, 73216, Note_off_c, 0, 77, 0
2, 73216, Note_on_c, 0, 75, 64
2, 73216, Note_off_c, 0, 53, 0
2, 73216, Note_off_c, 0, 58, 0
2, 73216, Note_off_c, 0, 65, 0
2, 73472, Note_off_c, 0, 75, 0
2, 73472, Note_on_c, 0, 73, 64
2, 73728, Note_off_c, 0, 73, 0
2, 73728, Note_on_c, 0, 72, 64
2, 73728, Note_on_c, 0, 41, 64
2, 73984, Note_off_c, 0, 72, 0
2, 73984, Note_on_c, 0, 70, 64
2, 74240, Note_off_c, 0, 70, 0
2, 74240, Note_on_c, 0, 69, 64
2, 74452, Note_on_c, 0, 48, 48
2, 74496, Note_off_c, 0, 69, 0
2, 74496, Note_on_c, 0, 72, 64
2, 74552, Note_on_c, 0, 53, 48
2, 74652, Note_on_c, 0, 57, 48
2, 74752, Note_off_c, 0, 72, 0
2, 74752, Note_on_c, 0, 66, 64
2, 74752, Note_on_c, 0, 63, 48
2, 74752, Note_off_c, 0, 41, 0
2, 75008, Note_off_c, 0, 66, 0
2, 75008, Note_on_c, 0, 65, 64
2, 75264, Note_off_c, 0, 65, 0
2, 75264, Note_on_c, 0, 64, 64
2, 75520, Note_off_c, 0, 64, 0
2, 75520, Note_on_c, 0, 65, 64
2, 75776, Note_off_c, 0, 65, 0
2, 75776, Note_on_c, 0, 66, 64
2, 76032, Note_off_c, 0, 66, 0
2, 76032, Note_on_c, 0, 65, 64
2, 76288, Note_off_c, 0, 65, 0
2, 76288, Note_on_c, 0, 70, 64
2, 76544, Note_off_c, 0, 70, 0
2, 76544, Note_on_c, 0, 69, 64
2, 76800, Note_off_c, 0, 69, 0
2, 76800, Note_on_c, 0, 73, 64
2, 76800, Note_off_c, 0, 48, 0
2, 76800, Note_off_c, 0, 53, 0
2, 76800, Note_off_c, 0, 57, 0
2, 76800, Note_off_c, 0, 63, 0
2, 77056, Note_off_c, 0, 73, 0
2, 77056, Note_on_c, 0, 72, 64
2, 77312, Note_off_c, 0, 72, 0
2, 77312, Note_on_c, 0, 80, 64
2, 77568, Note_off_c, 0, 80, 0
2, 77568, Note_on_c, 0, 78, 64
2, 77824, Note_off_c, 0, 78, 0
2, 77824, Note_on_c, 0, 77, 64
2, 77824, Note_on_c, 0, 34, 72
2, 77824, Note_on_c, 0, 46, 72
2, 78080, Note_off_c, 0, 77, 0
2, 78080, Note_on_c, 0, 72, 64
2, 78336, Note_off_c, 0, 72, 0
2, 78336, Note_on_c, 0, 75, 64
2, 78336, Note_on_c, 0, 49, 64
2, 78336, Note_on_c, 0, 53, 64
2, 78336, Note_on_c, 0, 61, 64
2, 78592, Note_off_c, 0, 75, 0
2, 78592, Note_on_c, 0, 73, 64
2, 78848, Note_off_c, 0, 73, 0
2, 78848, Note_on_c, 0, 65, 64
2, 78848, Note_off_c, 0, 34, 0
2, 78848, Note_off_c, 0, 46, 0
2, 79104, Note_off_c, 0, 65, 0
2, 79104, Note_on_c, 0, 69, 64
2, 79360, Note_off_c, 0, 69, 0
2, 79360, Note_on_c, 0, 70, 64
2, 79360, Note_off_c, 0, 49, 0
2, 79360, Note_off_c, 0, 53, 0
2, 79360, Note_off_c, 0, 61, 0
2, 79360, Note_on_c, 0, 29, 72
2, 79360, Note_on_c, 0, 41, 72
2, 79616, Note_off_c, 0, 70, 0
2, 79616, Note_on_c, 0, 72, 64
2, 79872, Note_off_c, 0, 72, 0
2, 79872, Note_on_c, 0, 73, 64
2, 79872, Note_off_c, 0, 29, 0
2, 79872, Note_off_c, 0, 41, 0
2, 79872, Note_on_c, 0, 34, 72
2, 79872, Note_on_c, 0, 46, 72
2, 80128, Note_off_c, 0, 73, 0
2, 80128, Note_on_c, 0, 75, 64
2, 80384, Note_off_c, 0, 75, 0
2, 80384, Note_on_c, 0, 77, 64
2, 80384, Note_on_c, 0, 49, 64
2, 80384, Note_on_c, 0, 53, 64
2, 80384, Note_on_c, 0, 61, 64
2, 80640, Note_off_c, 0, 77, 0
2, 80640, Note_on_c, 0, 79, 64
2, 80896, Note_off_c, 0, 79, 0
2, 80896, Note_on_c, 0, 81, 64
2, 80896, Note_off_c, 0, 34, 0
2, 80896, Note_off_c, 0, 46, 0
2, 81152, Note_off_c, 0, 81, 0
2, 81152, Note_on_c, 0, 82, 64
2, 81408, Note_off_c, 0, 82, 0
2, 81408, Note_on_c, 0, 84, 64
2, 81408, Note_on_c, 0, 29, 72
2, 81408, Note_on_c, 0, 41, 72
2, 81664, Note_off_c, 0, 84, 0
2, 81664, Note_on_c, 0, 85, 64
2, 81920, Note_off_c, 0, 85, 0
2, 81920, Note_off_c, 0, 49, 0
2, 81920, Note_off_c, 0, 53, 0
2, 81920, Note_off_c, 0, 61, 0
2, 81920, Note_off_c, 0, 29, 0
2, 81920, Note_off_c, 0, 41, 0
2, 81920, Note_on_c, 0, 87, 64
2, 81920, Note_on_c, 0, 34, 72
2, 81920, Note_on_c, 0, 46, 72
2, 82176, Note_off_c, 0, 87, 0
2, 82176, Note_on_c, 0, 89, 64
2, 82432, Note_off_c, 0, 89, 0
2, 82432, Note_on_c, 0, 91, 64
2, 82432, Note_on_c, 0, 49, 64
2, 82432, Note_on_c, 0, 53, 64
2, 82432, Note_on_c, 0, 61, 64
2, 82688, Note_off_c, 0, 91, 0
2, 82688, Note_on_c, 0, 93, 64
2, 82944, Note_off_c, 0, 93, 0
2, 82944, Note_on_c, 0, 94, 64
2, 82944, Note_off_c, 0, 34, 0
2, 82944, Note_off_c, 0, 46, 0
2, 83200, Note_off_c, 0, 94, 0
2, 83200, Note_on_c, 0, 96, 64
2, 83456, Note_off_c, 0, 96, 0
2, 83456, Note_on_c, 0, 97, 64
2, 83456, Note_off_c, 0, 49, 0
2, 83456, Note_off_c, 0, 53, 0
2, 83456, Note_off_c, 0, 61, 0
2, 83456, Note_on_c, 0, 29, 72
2, 83456, Note_on_c, 0, 41, 72
2, 83712, Note_off_c, 0, 97, 0
2, 83712, Note_on_c, 0, 99, 64
2, 83968, Note_off_c, 0, 99, 0
2, 83968, Note_on_c, 0, 100, 64
2, 83968, Note_off_c, 0, 29, 0
2, 83968, Note_off_c, 0, 41, 0
2, 83968, Note_on_c, 0, 34, 72
2, 83968, Note_on_c, 0, 46, 72
2, 84224, Note_off_c, 0, 100, 0
2, 84224, Note_on_c, 0, 101, 64
2, 84480, Note_off_c, 0, 101, 0
2, 84480, Note_on_c, 0, 99, 64
2, 84480, Note_on_c, 0, 49, 64
2, 84480, Note_on_c, 0, 53, 64
2, 84480, Note_on_c, 0, 61, 64
2, 84736, Note_off_c, 0, 99, 0
2, 84736, Note_on_c, 0, 97, 64
2, 84992, Note_off_c, 0, 97, 0
2, 84992, Note_on_c, 0, 96, 64
2, 84992, Note_off_c, 0, 34, 0
2, 84992, Note_off_c, 0, 46, 0
2, 85248, Note_off_c, 0, 96, 0
2, 85248, Note_on_c, 0, 94, 64
2, 85504, Note_off_c, 0, 94, 0
2, 85504, Note_on_c, 0, 93, 64
2, 85504, Note_off_c, 0, 49, 0
2, 85504, Note_off_c, 0, 53, 0
2, 85504, Note_off_c, 0, 61, 0
2, 85504, Note_on_c, 0, 29, 72
2, 85504, Note_on_c, 0, 41, 72
2, 85760, Note_off_c, 0, 93, 0
2, 85760, Note_on_c, 0, 94, 64
2, 86016, Note_off_c, 0, 94, 0
2, 86016, Note_off_c, 0, 29, 0
2, 86016, Note_off_c, 0, 41, 0
2, 86016, Note_on_c, 0, 92, 64
2, 86016, Note_on_c, 0, 34, 72
2, 86016, Note_on_c, 0, 46, 72
2, 86272, Note_off_c, 0, 92, 0
2, 86272, Note_on_c, 0, 90, 64
2, 86528, Note_off_c, 0, 90, 0
2, 86528, Note_on_c, 0, 89, 64
2, 86528, Note_on_c, 0, 49, 64
2, 86528, Note_on_c, 0, 53, 64
2, 86528, Note_on_c, 0, 61, 64
2, 86784, Note_off_c, 0, 89, 0
2, 86784, Note_on_c, 0, 88, 64
2, 87040, Note_off_c, 0, 88, 0
2, 87040, Note_on_c, 0, 89, 64
2, 87040, Note_off_c, 0, 34, 0
2, 87040, Note_off_c, 0, 46, 0
2, 87296, Note_off_c, 0, 89, 0
2, 87296, Note_on_c, 0, 87, 64
2, 87552, Note_off_c, 0, 87, 0
2, 87552, Note_on_c, 0, 85, 64
2, 87552, Note_off_c, 0, 49, 0
2, 87552, Note_off_c, 0, 53, 0
2, 87552, Note_off_c, 0, 61, 0
2, 87552, Note_on_c, 0, 29, 72
2, 87552, Note_on_c, 0, 41, 72
2, 87808, Note_off_c, 0, 85, 0
2, 87808, Note_on_c, 0, 84, 64
2, 88064, Note_off_c, 0, 84, 0
2, 88064, Note_on_c, 0, 82, 64
2, 88064, Note_off_c, 0, 29, 0
2, 88064, Note_off_c, 0, 41, 0
2, 88064, Note_on_c, 0, 34, 72
2, 88064, Note_on_c, 0, 46, 72
2, 88320, Note_off_c, 0, 82, 0
2, 88320, Note_on_c, 0, 81, 64
2, 88576, Note_off_c, 0, 81, 0
2, 88576, Note_on_c, 0, 82, 64
2, 88576, Note_on_c, 0, 49, 64
2, 88576, Note_on_c, 0, 53, 64
2, 88576, Note_on_c, 0, 61, 64
2, 88832, Note_off_c, 0, 82, 0
2, 88832, Note_on_c, 0, 80, 64
2, 89088, Note_off_c, 0, 80, 0
2, 89088, Note_on_c, 0, 78, 64
2, 89088, Note_off_c, 0, 34, 0
2, 89088, Note_off_c, 0, 46, 0
2, 89344, Note_off_c, 0, 78, 0
2, 89344, Note_on_c, 0, 77, 64
2, 89600, Note_off_c, 0, 77, 0
2, 89600, Note_on_c, 0, 75, 64
2, 89600, Note_off_c, 0, 49, 0
2, 89600, Note_off_c, 0, 53, 0
2, 89600, Note_off_c, 0, 61, 0
2, 89600, Note_on_c, 0, 29, 72
2, 89600, Note_on_c, 0, 41, 72
2, 89856, Note_off_c, 0, 75, 0
2, 89856, Note_on_c, 0, 73, 64
2, 90112, Note_off_c, 0, 73, 0
2, 90112, Note_off_c, 0, 29, 0
2, 90112, Note_off_c, 0, 41, 0
2, 90112, Note_on_c, 0, 72, 64
2, 90112, Note_on_c, 0, 34, 72
2, 90112, Note_on_c, 0, 46, 72
2, 90368, Note_off_c, 0, 72, 0
2, 90368, Note_on_c, 0, 73, 64
2, 90624, Note_off_c, 0, 73, 0
2, 90624, Note_on_c, 0, 75, 64
2, 90624, Note_on_c, 0, 51, 64
2, 90624, Note_on_c, 0, 54, 64
2, 90624, Note_on_c, 0, 63, 64
2, 90880, Note_off_c, 0, 75, 0
2, 90880, Note_on_c, 0, 77, 64
2, 91136, Note_off_c, 0, 77, 0
2, 91136, Note_on_c, 0, 78, 64
2, 91136, Note_off_c, 0, 34, 0
2, 91136, Note_off_c, 0, 46, 0
2, 91392, Note_off_c, 0, 78, 0
2, 91392, Note_on_c, 0, 80, 64
2, 91648, Note_off_c, 0, 80, 0
2, 91648, Note_on_c, 0, 82, 64
2, 91648, Note_off_c, 0, 51, 0
2, 91648, Note_off_c, 0, 54, 0
2, 91648, Note_off_c, 0, 63, 0
2, 91648, Note_on_c, 0, 29, 72
2, 91648, Note_on_c, 0, 41, 72
2, 91904, Note_off_c, 0, 82, 0
2, 91904, Note_on_c, 0, 84, 64
2, 92160, Note_off_c, 0, 84, 0
2, 92160, Note_on_c, 0, 82, 64
2, 92160, Note_off_c, 0, 29, 0
2, 92160, Note_off_c, 0, 41, 0
2, 92160, Note_on_c, 0, 34, 72
2, 92160, Note_on_c, 0, 46, 72
2, 92416, Note_off_c, 0, 82, 0
2, 92416, Note_on_c, 0, 80, 64
2, 92672, Note_off_c, 0, 80, 0
2, 92672, Note_on_c, 0, 78, 64
2, 92672, Note_on_c, 0, 51, 64
2, 92672, Note_on_c, 0, 54, 64
2, 92672, Note_on_c, 0, 63, 64
2, 92928, Note_off_c, 0, 78, 0
2, 92928, Note_on_c, 0, 77, 64
2, 93184, Note_off_c, 0, 77, 0
2, 93184, Note_on_c, 0, 75, 64
2, 93184, Note_off_c, 0, 34, 0
2, 93184, Note_off_c, 0, 46, 0
2, 93440, Note_off_c, 0, 75, 0
2, 93440, Note_on_c, 0, 73, 64
2, 93696, Note_off_c, 0, 73, 0
2, 93696, Note_on_c, 0, 72, 64
2, 93696, Note_off_c, 0, 51, 0
2, 93696, Note_off_c, 0, 54, 0
2, 93696, Note_off_c, 0, 63, 0
2, 93696, Note_on_c, 0, 29, 72
2, 93696, Note_on_c, 0, 41, 72
2, 93952, Note_off_c, 0, 72, 0
2, 93952, Note_on_c, 0, 75, 64
2, 94208, Note_off_c, 0, 75, 0
2, 94208, Note_off_c, 0, 29, 0
2, 94208, Note_off_c, 0, 41, 0
2, 94208, Note_on_c, 0, 78, 64
2, 94208, Note_on_c, 0, 33, 72
2, 94208, Note_on_c, 0, 45, 72
2, 94464, Note_off_c, 0, 78, 0
2, 94464, Note_on_c, 0, 74, 64
2, 94720, Note_off_c, 0, 74, 0
2, 94720, Note_on_c, 0, 76, 64
2, 94720, Note_on_c, 0, 51, 64
2, 94720, Note_on_c, 0, 54, 64
2, 94720, Note_on_c, 0, 63, 64
2, 94976, Note_off_c, 0, 76, 0
2, 94976, Note_on_c, 0, 75, 64
2, 95232, Note_off_c, 0, 75, 0
2, 95232, Note_on_c, 0, 72, 64
2, 95232, Note_off_c, 0, 33, 0
2, 95232, Note_off_c, 0, 45, 0
2, 95488, Note_off_c, 0, 72, 0
2, 95488, Note_on_c, 0, 66, 64
2, 95744, Note_off_c, 0, 66, 0
2, 95744, Note_on_c, 0, 71, 64
2, 95744, Note_off_c, 0, 51, 0
2, 95744, Note_off_c, 0, 54, 0
2, 95744, Note_off_c, 0, 63, 0
2, 95744, Note_on_c, 0, 27, 72
2, 95744, Note_on_c, 0, 39, 72
2, 96000, Note_off_c, 0, 71, 0
2, 96000, Note_on_c, 0, 72, 64
2, 96256, Note_off_c, 0, 72, 0
2, 96256, Note_on_c, 0, 73, 64
2, 96256, Note_off_c, 0, 27, 0
2, 96256, Note_off_c, 0, 39, 0
2, 96256, Note_on_c, 0, 33, 72
2, 96256, Note_on_c, 0, 45, 72
2, 96512, Note_off_c, 0, 73, 0
2, 96512, Note_on_c, 0, 72, 64
2, 96768, Note_off_c, 0, 72, 0
2, 96768, Note_on_c, 0, 74, 64
2, 96768, Note_on_c, 0, 51, 64
2, 96768, Note_on_c, 0, 54, 64
2, 96768, Note_on_c, 0, 63, 64
2, 97024, Note_off_c, 0, 74, 0
2, 97024, Note_on_c, 0, 75, 64
2, 97280, Note_off_c, 0, 75, 0
2, 97280, Note_on_c, 0, 76, 64
2, 97280, Note_off_c, 0, 33, 0
2, 97280, Note_off_c, 0, 45, 0
2, 97536, Note_off_c, 0, 76, 0
2, 97536, Note_on_c, 0, 75, 64
2, 97792, Note_off_c, 0, 75, 0
2, 97792, Note_on_c, 0, 76, 64
2, 97792, Note_off_c, 0, 51, 0
2, 97792, Note_off_c, 0, 54, 0
2, 97792, Note_off_c, 0, 63, 0
2, 97792, Note_on_c, 0, 27, 72
2, 97792, Note_on_c, 0, 39, 72
2, 98048, Note_off_c, 0, 76, 0
2, 98048, Note_on_c, 0, 77, 64
2, 98304, Note_off_c, 0, 77, 0
2, 98304, Note_off_c, 0, 27, 0
2, 98304, Note_off_c, 0, 39, 0
2, 98304, Note_on_c, 0, 80, 64
2, 98304, Note_on_c, 0, 33, 72
2, 98304, Note_on_c, 0, 45, 72
2, 98560, Note_off_c, 0, 80, 0
2, 98560, Note_on_c, 0, 78, 64
2, 98816, Note_off_c, 0, 78, 0
2, 98816, Note_on_c, 0, 83, 64
2, 98816, Note_on_c, 0, 51, 64
2, 98816, Note_on_c, 0, 54, 64
2, 98816, Note_on_c, 0, 63, 64
2, 99072, Note_off_c, 0, 83, 0
2, 99072, Note_on_c, 0, 84, 64
2, 99328, Note_off_c, 0, 84, 0
2, 99328, Note_on_c, 0, 85, 64
2, 99328, Note_off_c, 0, 33, 0
2, 99328, Note_off_c, 0, 45, 0
2, 99584, Note_off_c, 0, 85, 0
2, 99584, Note_on_c, 0, 84, 64
2, 99840, Note_off_c, 0, 84, 0
2, 99840, Note_on_c, 0, 86, 64
2, 99840, Note_off_c, 0, 51, 0
2, 99840, Note_off_c, 0, 54, 0
2, 99840, Note_off_c, 0, 63, 0
2, 99840, Note_on_c, 0, 27, 72
2, 99840, Note_on_c, 0, 39, 72
2, 100096, Note_off_c, 0, 86, 0
2, 100096, Note_on_c, 0, 87, 64
2, 100352, Note_off_c, 0, 87, 0
2, 100352, Note_on_c, 0, 88, 64
2, 100352, Note_off_c, 0, 27, 0
2, 100352, Note_off_c, 0, 39, 0
2, 100352, Note_on_c, 0, 33, 72
2, 100352, Note_on_c, 0, 45, 72
2, 100608, Note_off_c, 0, 88, 0
2, 100608, Note_on_c, 0, 87, 64
2, 100864, Note_off_c, 0, 87, 0
2, 100864, Note_on_c, 0, 88, 64
2, 100864, Note_on_c, 0, 51, 64
2, 100864, Note_on_c, 0, 54, 64
2, 100864, Note_on_c, 0, 63, 64
2, 101120, Note_off_c, 0, 88, 0
2, 101120, Note_on_c, 0, 89, 64
2, 101376, Note_off_c, 0, 89, 0
2, 101376, Note_on_c, 0, 92, 64
2, 101376, Note_off_c, 0, 33, 0
2, 101376, Note_off_c, 0, 45, 0
2, 101632, Note_off_c, 0, 92, 0
2, 101632, Note_on_c, 0, 94, 64
2, 101888, Note_off_c, 0, 94, 0
2, 101888, Note_on_c, 0, 92, 64
2, 101888, Note_off_c, 0, 51, 0
2, 101888, Note_off_c, 0, 54, 0
2, 101888, Note_off_c, 0, 63, 0
2, 101888, Note_on_c, 0, 27, 72
2, 101888, Note_on_c, 0, 39, 72
2, 102144, Note_off_c, 0, 92, 0
2, 102144, Note_on_c, 0, 91, 64
2, 102400, Note_off_c, 0, 91, 0
2, 102400, Note_off_c, 0, 27, 0
2, 102400, Note_off_c, 0, 39, 0
2, 102400, Note_on_c, 0, 90, 64
2, 102400, Note_on_c, 0, 32, 72
2, 102400, Note_on_c, 0, 44, 72
2, 102656, Note_off_c, 0, 90, 0
2, 102656, Note_on_c, 0, 101, 64
2, 102912, Note_off_c, 0, 101, 0
2, 102912, Note_on_c, 0, 99, 64
2, 102912, Note_on_c, 0, 51, 64
2, 102912, Note_on_c, 0, 60, 64
2, 102912, Note_on_c, 0, 66, 64
2, 103168, Note_off_c, 0, 99, 0
2, 103168, Note_on_c, 0, 90, 64
2, 103424, Note_off_c, 0, 90, 0
2, 103424, Note_on_c, 0, 99, 64
2, 103424, Note_off_c, 0, 32, 0
2, 103424, Note_off_c, 0, 44, 0
2, 103680, Note_off_c, 0, 99, 0
2, 103680, Note_on_c, 0, 97, 64
2, 103936, Note_off_c, 0, 97, 0
2, 103936, Note_on_c, 0, 89, 64
2, 103936, Note_off_c, 0, 51, 0
2, 103936, Note_off_c, 0, 60, 0
2, 103936, Note_off_c, 0, 66, 0
2, 103936, Note_on_c, 0, 27, 72
2, 103936, Note_on_c, 0, 39, 72
2, 104192, Note_off_c, 0, 89, 0
2, 104192, Note_on_c, 0, 97, 64
2, 104448, Note_off_c, 0, 97, 0
2, 104448, Note_on_c, 0, 96, 64
2, 104448, Note_off_c, 0, 27, 0
2, 104448, Note_off_c, 0, 39, 0
2, 104448, Note_on_c, 0, 32, 72
2, 104448, Note_on_c, 0, 44, 72
2, 104704, Note_off_c, 0, 96, 0
2, 104704, Note_on_c, 0, 87, 64
2, 104960, Note_off_c, 0, 87, 0
2, 104960, Note_on_c, 0, 96, 64
2, 104960, Note_on_c, 0, 51, 64
2, 104960, Note_on_c, 0, 60, 64
2, 104960, Note_on_c, 0, 66, 64
2, 105216, Note_off_c, 0, 96, 0
2, 105216, Note_on_c, 0, 94, 64
2, 105472, Note_off_c, 0, 94, 0
2, 105472, Note_on_c, 0, 85, 64
2, 105472, Note_off_c, 0, 32, 0
2, 105472, Note_off_c, 0, 44, 0
2, 105728, Note_off_c, 0, 85, 0
2, 105728, Note_on_c, 0, 94, 64
2, 105984, Note_off_c, 0, 94, 0
2, 105984, Note_on_c, 0, 92, 64
2, 105984, Note_on_c, 0, 32, 72
2, 106240, Note_off_c, 0, 92, 0
2, 106240, Note_on_c, 0, 84, 64
2, 106496, Note_off_c, 0, 84, 0
2, 106496, Note_off_c, 0, 51, 0
2, 106496, Note_off_c, 0, 60, 0
2, 106496, Note_off_c, 0, 66, 0
2, 106496, Note_off_c, 0, 32, 0
2, 106496, Note_on_c, 0, 92, 64
2, 106496, Note_on_c, 0, 44, 72
2, 106752, Note_off_c, 0, 92, 0
2, 106752, Note_on_c, 0, 90, 64
2, 107008, Note_off_c, 0, 90, 0
2, 107008, Note_on_c, 0, 82, 64
2, 107008, Note_on_c, 0, 53, 64
2, 107008, Note_on_c, 0, 61, 64
2, 107008, Note_on_c, 0, 65, 64
2, 107264, Note_off_c, 0, 82, 0
2, 107264, Note_on_c, 0, 90, 64
2, 107520, Note_off_c, 0, 90, 0
2, 107520, Note_on_c, 0, 89, 64
2, 107520, Note_off_c, 0, 44, 0
2, 107776, Note_off_c, 0, 89, 0
2, 107776, Note_on_c, 0, 80, 64
2, 108032, Note_off_c, 0, 80, 0
2, 108032, Note_on_c, 0, 89, 64
2, 108032, Note_off_c, 0, 53, 0
2, 108032, Note_off_c, 0, 61, 0
2, 108032, Note_off_c, 0, 65, 0
2, 108032, Note_on_c, 0, 32, 72
2, 108288, Note_off_c, 0, 89, 0
2, 108288, Note_on_c, 0, 87, 64
2, 108544, Note_off_c, 0, 87, 0
2, 108544, Note_on_c, 0, 78, 64
2, 108544, Note_off_c, 0, 32, 0
2, 108544, Note_on_c, 0, 44, 72
2, 108800, Note_off_c, 0, 78, 0
2, 108800, Note_on_c, 0, 87, 64
2, 109056, Note_off_c, 0, 87, 0
2, 109056, Note_on_c, 0, 85, 64
2, 109056, Note_on_c, 0, 53, 64
2, 109056, Note_on_c, 0, 61, 64
2, 109312, Note_off_c, 0, 85, 0
2, 109312, Note_on_c, 0, 77, 64
2, 109568, Note_off_c, 0, 77, 0
2, 109568, Note_on_c, 0, 82, 64
2, 109568, Note_off_c, 0, 44, 0
2, 109824, Note_off_c, 0, 82, 0
2, 109824, Note_on_c, 0, 80, 64
2, 110080, Note_off_c, 0, 80, 0
2, 110080, Note_on_c, 0, 77, 64
2, 110080, Note_off_c, 0, 53, 0
2, 110080, Note_off_c, 0, 61, 0
2, 110080, Note_on_c, 0, 32, 64
2, 110336, Note_off_c, 0, 77, 0
2, 110336, Note_on_c, 0, 73, 64
2, 110592, Note_off_c, 0, 73, 0
2, 110592, Note_off_c, 0, 32, 0
2, 110592, Note_on_c, 0, 72, 64
2, 110592, Note_on_c, 0, 44, 64
2, 110848, Note_off_c, 0, 72, 0
2, 110848, Note_on_c, 0, 73, 64
2, 111104, Note_off_c, 0, 73, 0
2, 111104, Note_on_c, 0, 75, 64
2, 111104, Note_on_c, 0, 51, 48
2, 111104, Note_on_c, 0, 54, 48
2, 111104, Note_on_c, 0, 60, 48
2, 111360, Note_off_c, 0, 75, 0
2, 111360, Note_on_c, 0, 76, 64
2, 111616, Note_off_c, 0, 76, 0
2, 111616, Note_on_c, 0, 77, 64
2, 111616, Note_off_c, 0, 44, 0
2, 111872, Note_off_c, 0, 77, 0
2, 111872, Note_on_c, 0, 78, 64
2, 112128, Note_off_c, 0, 78, 0
2, 112128, Note_on_c, 0, 80, 64
2, 112128, Note_off_c, 0, 51, 0
2, 112128, Note_off_c, 0, 54, 0
2, 112128, Note_off_c, 0, 60, 0
2, 112128, Note_on_c, 0, 32, 64
2, 112384, Note_off_c, 0, 80, 0
2, 112384, Note_on_c, 0, 81, 64
2, 112640, Note_off_c, 0, 81, 0
2, 112640, Note_on_c, 0, 79, 64
2, 112640, Note_off_c, 0, 32, 0
2, 112640, Note_on_c, 0, 44, 64
2, 112896, Note_off_c, 0, 79, 0
2, 112896, Note_on_c, 0, 80, 64
2, 113152, Note_off_c, 0, 80, 0
2, 113152, Note_on_c, 0, 75, 64
2, 113152, Note_on_c, 0, 52, 48
2, 113152, Note_on_c, 0, 61, 48
2, 113408, Note_off_c, 0, 75, 0
2, 113408, Note_on_c, 0, 76, 64
2, 113664, Note_off_c, 0, 76, 0
2, 113664, Note_on_c, 0, 68, 64
2, 113664, Note_off_c, 0, 44, 0
2, 113920, Note_off_c, 0, 68, 0
2, 113920, Note_on_c, 0, 76, 64
2, 114176, Note_off_c, 0, 76, 0
2, 114176, Note_on_c, 0, 75, 64
2, 114176, Note_on_c, 0, 32, 64
2, 114432, Note_off_c, 0, 75, 0
2, 114432, Note_on_c, 0, 73, 64
2, 114688, Note_off_c, 0, 73, 0
2, 114688, Note_off_c, 0, 52, 0
2, 114688, Note_off_c, 0, 61, 0
2, 114688, Note_off_c, 0, 32, 0
2, 114688, Note_on_c, 0, 72, 64
2, 114688, Note_on_c, 0, 44, 64
2, 114944, Note_off_c, 0, 72, 0
2, 114944, Note_on_c, 0, 73, 64
2, 115200, Note_off_c, 0, 73, 0
2, 115200, Note_on_c, 0, 75, 64
2, 115200, Note_on_c, 0, 51, 48
2, 115200, Note_on_c, 0, 54, 48
2, 115200, Note_on_c, 0, 60, 48
2, 115456, Note_off_c, 0, 75, 0
2, 115456, Note_on_c, 0, 76, 64
2, 115712, Note_off_c, 0, 76, 0
2, 115712, Note_on_c, 0, 77, 64
2, 115712, Note_off_c, 0, 44, 0
2, 115968, Note_off_c, 0, 77, 0
2, 115968, Note_on_c, 0, 78, 64
2, 116224, Note_off_c, 0, 78, 0
2, 116224, Note_on_c, 0, 80, 64
2, 116224, Note_off_c, 0, 51, 0
2, 116224, Note_off_c, 0, 54, 0
2, 116224, Note_off_c, 0, 60, 0
2, 116224, Note_on_c, 0, 44, 64
2, 116480, Note_off_c, 0, 80, 0
2, 116480, Note_on_c, 0, 81, 64
2, 116736, Note_off_c, 0, 81, 0
2, 116736, Note_on_c, 0, 79, 64
2, 116736, Note_off_c, 0, 44, 0
2, 116736, Note_on_c, 0, 49, 64
2, 116992, Note_off_c, 0, 79, 0
2, 116992, Note_on_c, 0, 80, 64
2, 117248, Note_off_c, 0, 80, 0
2, 117248, Note_on_c, 0, 75, 64
2, 117248, Note_on_c, 0, 52, 48
2, 117248, Note_on_c, 0, 61, 48
2, 117504, Note_off_c, 0, 75, 0
2, 117504, Note_on_c, 0, 76, 64
2, 117760, Note_off_c, 0, 76, 0
2, 117760, Note_on_c, 0, 68, 64
2, 117760, Note_off_c, 0, 49, 0
2, 118016, Note_off_c, 0, 68, 0
2, 118016, Note_on_c, 0, 76, 64
2, 118272, Note_off_c, 0, 76, 0
2, 118272, Note_on_c, 0, 73, 64
2, 118272, Note_off_c, 0, 52, 0
2, 118272, Note_off_c, 0, 61, 0
2, 118272, Note_on_c, 0, 43, 64
2, 118528, Note_off_c, 0, 73, 0
2, 118528, Note_on_c, 0, 71, 64
2, 118784, Note_off_c, 0, 71, 0
2, 118784, Note_off_c, 0, 43, 0
2, 118784, Note_on_c, 0, 70, 64
2, 118784, Note_on_c, 0, 42, 64
2, 119040, Note_off_c, 0, 70, 0
2, 119040, Note_on_c, 0, 71, 64
2, 119296, Note_off_c, 0, 71, 0
2, 119296, Note_on_c, 0, 73, 64
2, 119296, Note_on_c, 0, 54, 48
2, 119296, Note_on_c, 0, 58, 48
2, 119296, Note_on_c, 0, 64, 48
2, 119552, Note_off_c, 0, 73, 0
2, 119552, Note_on_c, 0, 74, 64
2, 119808, Note_off_c, 0, 74, 0
2, 119808, Note_on_c, 0, 75, 64
2, 119808, Note_off_c, 0, 42, 0
2, 120064, Note_off_c, 0, 75, 0
2, 120064, Note_on_c, 0, 76, 64
2, 120320, Note_off_c, 0, 76, 0
2, 120320, Note_on_c, 0, 78, 64
2, 120320, Note_off_c, 0, 54, 0
2, 120320, Note_off_c, 0, 58, 0
2, 120320, Note_off_c, 0, 64, 0
2, 120320, Note_on_c, 0, 30, 64
2, 120576, Note_off_c, 0, 78, 0
2, 120576, Note_on_c, 0, 79, 64
2, 120832, Note_off_c, 0, 79, 0
2, 120832, Note_on_c, 0, 77, 64
2, 120832, Note_off_c, 0, 30, 0
2, 120832, Note_on_c, 0, 42, 64
2, 121088, Note_off_c, 0, 77, 0
2, 121088, Note_on_c, 0, 78, 64
2, 121344, Note_off_c, 0, 78, 0
2, 121344, Note_on_c, 0, 75, 64
2, 121344, Note_on_c, 0, 54, 48
2, 121344, Note_on_c, 0, 59, 48
2, 121344, Note_on_c, 0, 62, 48
2, 121600, Note_off_c, 0, 75, 0
2, 121600, Note_on_c, 0, 76, 64
2, 121856, Note_off_c, 0, 76, 0
2, 121856, Note_on_c, 0, 73, 64
2, 121856, Note_off_c, 0, 42, 0
2, 122112, Note_off_c, 0, 73, 0
2, 122112, Note_on_c, 0, 74, 64
2, 122368, Note_off_c, 0, 74, 0
2, 122368, Note_on_c, 0, 71, 64
2, 122368, Note_off_c, 0, 54, 0
2, 122368, Note_off_c, 0, 59, 0
2, 122368, Note_off_c, 0, 62, 0
2, 122368, Note_on_c, 0, 41, 64
2, 122624, Note_off_c, 0, 71, 0
2, 122624, Note_on_c, 0, 69, 64
2, 122880, Note_off_c, 0, 69, 0
2, 122880, Note_off_c, 0, 41, 0
2, 122880, Note_on_c, 0, 68, 64
2, 122880, Note_on_c, 0, 40, 64
2, 123136, Note_off_c, 0, 68, 0
2, 123136, Note_on_c, 0, 69, 64
2, 123392, Note_off_c, 0, 69, 0
2, 123392, Note_on_c, 0, 71, 64
2, 123392, Note_on_c, 0, 52, 48
2, 123392, Note_on_c, 0, 56, 48
2, 123392, Note_on_c, 0, 62, 48
2, 123648, Note_off_c, 0, 71, 0
2, 123648, Note_on_c, 0, 72, 64
2, 123904, Note_off_c, 0, 72, 0
2, 123904, Note_on_c, 0, 73, 64
2, 123904, Note_off_c, 0, 40, 0
2, 124160, Note_off_c, 0, 73, 0
2, 124160, Note_on_c, 0, 74, 64
2, 124416, Note_off_c, 0, 74, 0
2, 124416, Note_on_c, 0, 76, 64
2, 124416, Note_off_c, 0, 52, 0
2, 124416, Note_off_c, 0, 56, 0
2, 124416, Note_off_c, 0, 62, 0
2, 124416, Note_on_c, 0, 28, 64
2, 124672, Note_off_c, 0, 76, 0
2, 124672, Note_on_c, 0, 77, 64
2, 124928, Note_off_c, 0, 77, 0
2, 124928, Note_on_c, 0, 75, 64
2, 124928, Note_off_c, 0, 28, 0
2, 124928, Note_on_c, 0, 40, 64
2, 125184, Note_off_c, 0, 75, 0
2, 125184, Note_on_c, 0, 76, 64
2, 125440, Note_off_c, 0, 76, 0
2, 125440, Note_on_c, 0, 73, 64
2, 125440, Note_on_c, 0, 52, 48
2, 125440, Note_on_c, 0, 57, 48
2, 125440, Note_on_c, 0, 60, 48
2, 125696, Note_off_c, 0, 73, 0
2, 125696, Note_on_c, 0, 74, 64
2, 125952, Note_off_c, 0, 74, 0
2, 125952, Note_on_c, 0, 71, 64
2, 125952, Note_off_c, 0, 40, 0
2, 126208, Note_off_c, 0, 71, 0
2, 126208, Note_on_c, 0, 72, 64
2, 126464, Note_off_c, 0, 72, 0
2, 126464, Note_on_c, 0, 71, 64
2, 126464, Note_off_c, 0, 52, 0
2, 126464, Note_off_c, 0, 57, 0
2, 126464, Note_off_c, 0, 60, 0
2, 126464, Note_on_c, 0, 28, 64
2, 126464, Note_on_c, 0, 40, 64
2, 126720, Note_off_c, 0, 71, 0
2, 126720, Note_on_c, 0, 69, 64
2, 126976, Note_off_c, 0, 69, 0
2, 126976, Note_off_c, 0, 28, 0
2, 126976, Note_off_c, 0, 40, 0
2, 126976, Note_on_c, 0, 68, 64
2, 126976, Note_on_c, 0, 29, 64
2, 126976, Note_on_c, 0, 41, 64
2, 127232, Note_off_c, 0, 68, 0
2, 127232, Note_on_c, 0, 69, 64
2, 127488, Note_off_c, 0, 69, 0
2, 127488, Note_on_c, 0, 73, 64
2, 127744, Note_off_c, 0, 73, 0
2, 127744, Note_on_c, 0, 72, 64
2, 127800, Note_on_c, 0, 48, 64
2, 127900, Note_on_c, 0, 53, 64
2, 128000, Note_off_c, 0, 72, 0
2, 128000, Note_on_c, 0, 70, 64
2, 128000, Note_on_c, 0, 63, 72
2, 128000, Note_off_c, 0, 29, 0
2, 128000, Note_off_c, 0, 41, 0
2, 128256, Note_off_c, 0, 70, 0
2, 128256, Note_on_c, 0, 69, 64
2, 128512, Note_off_c, 0, 69, 0
2, 128512, Note_on_c, 0, 78, 64
2, 128768, Note_off_c, 0, 78, 0
2, 128768, Note_on_c, 0, 77, 64
2, 128824, Note_on_c, 0, 46, 64
2, 128924, Note_on_c, 0, 53, 64
2, 129024, Note_off_c, 0, 77, 0
2, 129024, Note_on_c, 0, 75, 64
2, 129024, Note_off_c, 0, 53, 0
2, 129024, Note_off_c, 0, 63, 0
2, 129024, Note_on_c, 0, 61, 72
2, 129024, Note_off_c, 0, 48, 0
2, 129280, Note_off_c, 0, 75, 0
2, 129280, Note_on_c, 0, 73, 64
2, 129536, Note_off_c, 0, 73, 0
2, 129536, Note_on_c, 0, 84, 64
2, 129792, Note_off_c, 0, 84, 0
2, 129792, Note_on_c, 0, 82, 64
2, 129848, Note_on_c, 0, 51, 64
2, 129948, Note_on_c, 0, 58, 64
2, 130048, Note_off_c, 0, 82, 0
2, 130048, Note_on_c, 0, 80, 64
2, 130048, Note_off_c, 0, 53, 0
2, 130048, Note_off_c, 0, 61, 0
2, 130048, Note_on_c, 0, 66, 72
2, 130048, Note_off_c, 0, 46, 0
2, 130304, Note_off_c, 0, 80, 0
2, 130304, Note_on_c, 0, 78, 64
2, 130560, Note_off_c, 0, 78, 0
2, 130560, Note_on_c, 0, 77, 64
2, 130816, Note_off_c, 0, 77, 0
2, 130816, Note_on_c, 0, 75, 64
2, 130872, Note_on_c, 0, 44, 64
2, 130972, Note_on_c, 0, 54, 64
2, 131072, Note_off_c, 0, 75, 0
2, 131072, Note_off_c, 0, 58, 0
2, 131072, Note_off_c, 0, 66, 0
2, 131072, Note_off_c, 0, 51, 0
2, 131072, Note_on_c, 0, 73, 64
2, 131072, Note_on_c, 0, 60, 72
2, 131328, Note_off_c, 0, 73, 0
2, 131328, Note_on_c, 0, 72, 64
2, 131584, Note_off_c, 0, 72, 0
2, 131584, Note_on_c, 0, 82, 64
2, 131840, Note_off_c, 0, 82, 0
2, 131840, Note_on_c, 0, 80, 64
2, 131896, Note_on_c, 0, 49, 64
2, 131996, Note_on_c, 0, 56, 64
2, 132096, Note_off_c, 0, 80, 0
2, 132096, Note_on_c, 0, 78, 64
2, 132096, Note_off_c, 0, 54, 0
2, 132096, Note_off_c, 0, 60, 0
2, 132096, Note_on_c, 0, 65, 72
2, 132096, Note_off_c, 0, 44, 0
2, 132352, Note_off_c, 0, 78, 0
2, 132352, Note_on_c, 0, 77, 64
2, 132608, Note_off_c, 0, 77, 0
2, 132608, Note_on_c, 0, 75, 64
2, 132864, Note_off_c, 0, 75, 0
2, 132864, Note_on_c, 0, 73, 64
2, 132920, Note_on_c, 0, 42, 64
2, 133020, Note_on_c, 0, 49, 64
2, 133120, Note_off_c, 0, 73, 0
2, 133120, Note_on_c, 0, 72, 64
2, 133120, Note_off_c, 0, 56, 0
2, 133120, Note_off_c, 0, 65, 0
2, 133120, Note_on_c, 0, 58, 72
2, 133120, Note_off_c, 0, 49, 0
2, 133376, Note_off_c, 0, 72, 0
2, 133376, Note_on_c, 0, 70, 64
2, 133632, Note_off_c, 0, 70, 0
2, 133632, Note_on_c, 0, 80, 64
2, 133888, Note_off_c, 0, 80, 0
2, 133888, Note_on_c, 0, 78, 64
2, 133944, Note_on_c, 0, 48, 64
2, 134044, Note_on_c, 0, 54, 64
2, 134144, Note_off_c, 0, 78, 0
2, 134144, Note_on_c, 0, 77, 64
2, 134144, Note_off_c, 0, 49, 0
2, 134144, Note_off_c, 0, 58, 0
2, 134144, Note_on_c, 0, 63, 72
2, 134144, Note_off_c, 0, 42, 0
2, 134400, Note_off_c, 0, 77, 0
2, 134400, Note_on_c, 0, 75, 64
2, 134656, Note_off_c, 0, 75, 0
2, 134656, Note_on_c, 0, 73, 64
2, 134912, Note_off_c, 0, 73, 0
2, 134912, Note_on_c, 0, 72, 64
2, 135168, Note_off_c, 0, 72, 0
2, 135168, Note_off_c, 0, 54, 0
2, 135168, Note_off_c, 0, 63, 0
2, 135168, Note_off_c, 0, 48, 0
2, 135168, Note_on_c, 0, 70, 64
2, 135168, Note_on_c, 0, 53, 64
2, 135168, Note_on_c, 0, 58, 64
2, 135168, Note_on_c, 0, 61, 72
2, 135168, Note_on_c, 0, 49, 64
2, 135424, Note_off_c, 0, 70, 0
2, 135424, Note_on_c, 0, 69, 64
2, 135680, Note_off_c, 0, 69, 0
2, 135680, Note_on_c, 0, 68, 64
2, 135936, Note_off_c, 0, 68, 0
2, 135936, Note_on_c, 0, 67, 64
2, 136192, Note_off_c, 0, 67, 0
2, 136192, Note_on_c, 0, 68, 64
2, 136192, Note_off_c, 0, 53, 0
2, 136192, Note_off_c, 0, 58, 0
2, 136192, Note_off_c, 0, 61, 0
2, 136192, Note_on_c, 0, 54, 64
2, 136192, Note_on_c, 0, 58, 64
2, 136192, Note_on_c, 0, 60, 72
2, 136192, Note_off_c, 0, 49, 0
2, 136192, Note_on_c, 0, 51, 64
2, 136448, Note_off_c, 0, 68, 0
2, 136448, Note_on_c, 0, 67, 64
2, 136704, Note_off_c, 0, 67, 0
2, 136704, Note_on_c, 0, 66, 64
2, 136960, Note_off_c, 0, 66, 0
2, 136960, Note_on_c, 0, 65, 64
2, 137216, Note_off_c, 0, 65, 0
2, 137216, Note_on_c, 0, 67, 64
2, 137216, Note_off_c, 0, 54, 0
2, 137216, Note_off_c, 0, 58, 0
2, 137216, Note_off_c, 0, 60, 0
2, 137216, Note_off_c, 0, 51, 0
2, 137472, Note_off_c, 0, 67, 0
2, 137472, Note_on_c, 0, 66, 64
2, 137728, Note_off_c, 0, 66, 0
2, 137728, Note_on_c, 0, 65, 64
2, 137984, Note_off_c, 0, 65, 0
2, 137984, Note_on_c, 0, 64, 64
2, 138240, Note_off_c, 0, 64, 0
2, 138240, Note_on_c, 0, 66, 64
2, 138240, Note_on_c, 0, 54, 64
2, 138496, Note_off_c, 0, 66, 0
2, 138496, Note_on_c, 0, 65, 64
2, 138496, Note_off_c, 0, 54, 0
2, 138496, Note_on_c, 0, 53, 64
2, 138752, Note_off_c, 0, 65, 0
2, 138752, Note_on_c, 0, 64, 64
2, 138752, Note_off_c, 0, 53, 0
2, 138752, Note_on_c, 0, 52, 64
2, 139008, Note_off_c, 0, 64, 0
2, 139008, Note_on_c, 0, 63, 64
2, 139008, Note_off_c, 0, 52, 0
2, 139008, Note_on_c, 0, 51, 64
2, 139264, Note_off_c, 0, 63, 0
2, 139264, Note_off_c, 0, 51, 0
2, 139264, Note_on_c, 0, 65, 64
2, 139264, Note_on_c, 0, 53, 64
2, 139520, Note_off_c, 0, 65, 0
2, 139520, Note_on_c, 0, 64, 64
2, 139520, Note_off_c, 0, 53, 0
2, 139520, Note_on_c, 0, 52, 64
2, 139776, Note_off_c, 0, 64, 0
2, 139776, Note_on_c, 0, 63, 64
2, 139776, Note_off_c, 0, 52, 0
2, 139776, Note_on_c, 0, 51, 64
2, 140032, Note_off_c, 0, 63, 0
2, 140032, Note_on_c, 0, 62, 64
2, 140032, Note_off_c, 0, 51, 0
2, 140032, Note_on_c, 0, 50, 64
2, 140288, Note_off_c, 0, 62, 0
2, 140288, Note_on_c, 0, 64, 64
2, 140288, Note_off_c, 0, 50, 0
2, 140288, Note_on_c, 0, 52, 64
2, 140544, Note_off_c, 0, 64, 0
2, 140544, Note_on_c, 0, 63, 64
2, 140544, Note_off_c, 0, 52, 0
2, 140544, Note_on_c, 0, 51, 64
2, 140800, Note_off_c, 0, 63, 0
2, 140800, Note_on_c, 0, 62, 64
2, 140800, Note_off_c, 0, 51, 0
2, 140800, Note_on_c, 0, 50, 64
2, 141056, Note_off_c, 0, 62, 0
2, 141056, Note_on_c, 0, 61, 64
2, 141056, Note_off_c, 0, 50, 0
2, 141056, Note_on_c, 0, 49, 64
2, 141312, Note_off_c, 0, 61, 0
2, 141312, Note_on_c, 0, 63, 64
2, 141312, Note_off_c, 0, 49, 0
2, 141312, Note_on_c, 0, 51, 64
2, 141568, Note_off_c, 0, 63, 0
2, 141568, Note_on_c, 0, 62, 64
2, 141568, Note_off_c, 0, 51, 0
2, 141568, Note_on_c, 0, 50, 64
2, 141824, Note_off_c, 0, 62, 0
2, 141824, Note_on_c, 0, 61, 64
2, 141824, Note_off_c, 0, 50, 0
2, 141824, Note_on_c, 0, 49, 64
2, 142080, Note_off_c, 0, 61, 0
2, 142080, Note_on_c, 0, 60, 64
2, 142080, Note_off_c, 0, 49, 0
2, 142080, Note_on_c, 0, 48, 64
2, 142336, Note_off_c, 0, 60, 0
2, 142336, Note_on_c, 0, 63, 64
2, 142336, Note_off_c, 0, 48, 0
2, 142336, Note_on_c, 0, 51, 64
2, 142592, Note_off_c, 0, 63, 0
2, 142592, Note_on_c, 0, 61, 64
2, 142592, Note_off_c, 0, 51, 0
2, 142592, Note_on_c, 0, 49, 64
2, 142848, Note_off_c, 0, 61, 0
2, 142848, Note_on_c, 0, 60, 64
2, 142848, Note_off_c, 0, 49, 0
2, 142848, Note_on_c, 0, 48, 64
2, 143104, Note_off_c, 0, 60, 0
2, 143104, Note_on_c, 0, 58, 64
2, 143104, Note_off_c, 0, 48, 0
2, 143104, Note_on_c, 0, 46, 64
2, 143360, Note_off_c, 0, 58, 0
2, 143360, Note_off_c, 0, 46, 0
2, 143360, Note_on_c, 0, 57, 64
2, 143360, Note_on_c, 0, 39, 64
2, 143616, Note_off_c, 0, 57, 0
2, 143616, Note_on_c, 0, 58, 64
2, 143872, Note_off_c, 0, 58, 0
2, 143872, Note_on_c, 0, 60, 64
2, 143872, Note_on_c, 0, 45, 48
2, 143872, Note_on_c, 0, 54, 48
2, 144128, Note_off_c, 0, 60, 0
2, 144128, Note_on_c, 0, 61, 64
2, 144384, Note_off_c, 0, 61, 0
2, 144384, Note_on_c, 0, 63, 64
2, 144384, Note_off_c, 0, 39, 0
2, 144640, Note_off_c, 0, 63, 0
2, 144640, Note_on_c, 0, 64, 64
2, 144896, Note_off_c, 0, 64, 0
2, 144896, Note_on_c, 0, 65, 64
2, 144896, Note_off_c, 0, 45, 0
2, 144896, Note_off_c, 0, 54, 0
2, 144896, Note_on_c, 0, 39, 64
2, 145152, Note_off_c, 0, 65, 0
2, 145152, Note_on_c, 0, 66, 64
2, 145408, Note_off_c, 0, 66, 0
2, 145408, Note_on_c, 0, 64, 64
2, 145408, Note_off_c, 0, 39, 0
2, 145408, Note_on_c, 0, 37, 64
2, 145664, Note_off_c, 0, 64, 0
2, 145664, Note_on_c, 0, 65, 64
2, 145920, Note_off_c, 0, 65, 0
2, 145920, Note_on_c, 0, 62, 64
2, 145920, Note_on_c, 0, 46, 48
2, 145920, Note_on_c, 0, 53, 48
2, 146176, Note_off_c, 0, 62, 0
2, 146176, Note_on_c, 0, 63, 64
2, 146432, Note_off_c, 0, 63, 0
2, 146432, Note_on_c, 0, 60, 64
2, 146432, Note_off_c, 0, 37, 0
2, 146688, Note_off_c, 0, 60, 0
2, 146688, Note_on_c, 0, 61, 64
2, 146944, Note_off_c, 0, 61, 0
2, 146944, Note_on_c, 0, 60, 64
2, 146944, Note_off_c, 0, 46, 0
2, 146944, Note_off_c, 0, 53, 0
2, 146944, Note_on_c, 0, 37, 64
2, 147200, Note_off_c, 0, 60, 0
2, 147200, Note_on_c, 0, 58, 64
2, 147456, Note_off_c, 0, 58, 0
2, 147456, Note_off_c, 0, 37, 0
2, 147456, Note_on_c, 0, 57, 64
2, 147456, Note_on_c, 0, 39, 64
2, 147712, Note_off_c, 0, 57, 0
2, 147712, Note_on_c, 0, 58, 64
2, 147968, Note_off_c, 0, 58, 0
2, 147968, Note_on_c, 0, 60, 64
2, 147968, Note_on_c, 0, 45, 48
2, 147968, Note_on_c, 0, 54, 48
2, 148224, Note_off_c, 0, 60, 0
2, 148224, Note_on_c, 0, 61, 64
2, 148480, Note_off_c, 0, 61, 0
2, 148480, Note_on_c, 0, 63, 64
2, 148480, Note_off_c, 0, 39, 0
2, 148736, Note_off_c, 0, 63, 0
2, 148736, Note_on_c, 0, 64, 64
2, 148992, Note_off_c, 0, 64, 0
2, 148992, Note_on_c, 0, 65, 64
2, 148992, Note_off_c, 0, 45, 0
2, 148992, Note_off_c, 0, 54, 0
2, 148992, Note_on_c, 0, 39, 64
2, 149248, Note_off_c, 0, 65, 0
2, 149248, Note_on_c, 0, 66, 64
2, 149504, Note_off_c, 0, 66, 0
2, 149504, Note_on_c, 0, 64, 64
2, 149504, Note_off_c, 0, 39, 0
2, 149504, Note_on_c, 0, 37, 64
2, 149760, Note_off_c, 0, 64, 0
2, 149760, Note_on_c, 0, 65, 64
2, 150016, Note_off_c, 0, 65, 0
2, 150016, Note_on_c, 0, 62, 64
2, 150016, Note_on_c, 0, 46, 48
2, 150016, Note_on_c, 0, 53, 48
2, 150272, Note_off_c, 0, 62, 0
2, 150272, Note_on_c, 0, 63, 64
2, 150528, Note_off_c, 0, 63, 0
2, 150528, Note_on_c, 0, 60, 64
2, 150528, Note_off_c, 0, 37, 0
2, 150784, Note_off_c, 0, 60, 0
2, 150784, Note_on_c, 0, 61, 64
2, 151040, Note_off_c, 0, 61, 0
2, 151040, Note_on_c, 0, 60, 64
2, 151040, Note_off_c, 0, 46, 0
2, 151040, Note_off_c, 0, 53, 0
2, 151040, Note_on_c, 0, 37, 64
2, 151296, Note_off_c, 0, 60, 0
2, 151296, Note_on_c, 0, 58, 64
2, 151552, Note_off_c, 0, 58, 0
2, 151552, Note_off_c, 0, 37, 0
2, 151552, Note_on_c, 0, 60, 64
2, 151552, Note_on_c, 0, 39, 64
2, 151808, Note_off_c, 0, 60, 0
2, 151808, Note_on_c, 0, 61, 64
2, 152064, Note_off_c, 0, 61, 0
2, 152064, Note_on_c, 0, 63, 64
2, 152064, Note_on_c, 0, 46, 48
2, 152064, Note_on_c, 0, 54, 48
2, 152320, Note_off_c, 0, 63, 0
2, 152320, Note_on_c, 0, 65, 64
2, 152576, Note_off_c, 0, 65, 0
2, 152576, Note_on_c, 0, 66, 64
2, 152576, Note_off_c, 0, 39, 0
2, 152832, Note_off_c, 0, 66, 0
2, 152832, Note_on_c, 0, 72, 64
2, 153088, Note_off_c, 0, 72, 0
2, 153088, Note_on_c, 0, 70, 64
2, 153088, Note_off_c, 0, 46, 0
2, 153088, Note_off_c, 0, 54, 0
2, 153088, Note_on_c, 0, 39, 64
2, 153344, Note_off_c, 0, 70, 0
2, 153344, Note_on_c, 0, 60, 64
2, 153600, Note_off_c, 0, 60, 0
2, 153600, Note_on_c, 0, 58, 64
2, 153600, Note_off_c, 0, 39, 0
2, 153600, Note_on_c, 0, 41, 64
2, 153856, Note_off_c, 0, 58, 0
2, 153856, Note_on_c, 0, 60, 64
2, 154112, Note_off_c, 0, 60, 0
2, 154112, Note_on_c, 0, 61, 64
2, 154112, Note_on_c, 0, 49, 48
2, 154112, Note_on_c, 0, 58, 48
2, 154368, Note_off_c, 0, 61, 0
2, 154368, Note_on_c, 0, 63, 64
2, 154624, Note_off_c, 0, 63, 0
2, 154624, Note_on_c, 0, 65, 64
2, 154624, Note_off_c, 0, 41, 0
2, 154880, Note_off_c, 0, 65, 0
2, 154880, Note_on_c, 0, 72, 64
2, 155136, Note_off_c, 0, 72, 0
2, 155136, Note_on_c, 0, 70, 64
2, 155136, Note_off_c, 0, 49, 0
2, 155136, Note_off_c, 0, 58, 0
2, 155136, Note_on_c, 0, 29, 64
2, 155392, Note_off_c, 0, 70, 0
2, 155392, Note_on_c, 0, 66, 64
2, 155648, Note_off_c, 0, 66, 0
2, 155648, Note_off_c, 0, 29, 0
2, 155648, Note_on_c, 0, 64, 64
2, 155648, Note_on_c, 0, 41, 64
2, 155904, Note_off_c, 0, 64, 0
2, 155904, Note_on_c, 0, 65, 64
2, 156160, Note_off_c, 0, 65, 0
2, 156160, Note_on_c, 0, 66, 64
2, 156160, Note_on_c, 0, 51, 48
2, 156160, Note_on_c, 0, 57, 48
2, 156416, Note_off_c, 0, 66, 0
2, 156416, Note_on_c, 0, 65, 64
2, 156672, Note_off_c, 0, 65, 0
2, 156672, Note_on_c, 0, 70, 64
2, 156672, Note_off_c, 0, 41, 0
2, 156928, Note_off_c, 0, 70, 0
2, 156928, Note_on_c, 0, 69, 64
2, 157184, Note_off_c, 0, 69, 0
2, 157184, Note_on_c, 0, 78, 64
2, 157184, Note_off_c, 0, 51, 0
2, 157184, Note_off_c, 0, 57, 0
2, 157184, Note_on_c, 0, 41, 64
2, 157440, Note_off_c, 0, 78, 0
2, 157440, Note_on_c, 0, 77, 64
2, 157696, Note_off_c, 0, 77, 0
2, 157696, Note_on_c, 0, 75, 64
2, 157696, Note_off_c, 0, 41, 0
2, 157696, Note_on_c, 0, 46, 64
2, 157952, Note_off_c, 0, 75, 0
2, 157952, Note_on_c, 0, 73, 64
2, 158208, Note_off_c, 0, 73, 0
2, 158208, Note_on_c, 0, 70, 64
2, 158208, Note_on_c, 0, 53, 48
2, 158208, Note_on_c, 0, 61, 48
2, 158464, Note_off_c, 0, 70, 0
2, 158464, Note_on_c, 0, 65, 64
2, 158720, Note_off_c, 0, 65, 0
2, 158720, Note_on_c, 0, 63, 64
2, 158720, Note_off_c, 0, 46, 0
2, 158976, Note_off_c, 0, 63, 0
2, 158976, Note_on_c, 0, 61, 64
2, 159232, Note_off_c, 0, 61, 0
2, 159232, Note_on_c, 0, 58, 64
2, 159232, Note_off_c, 0, 53, 0
2, 159232, Note_off_c, 0, 61, 0
2, 159232, Note_on_c, 0, 37, 64
2, 159488, Note_off_c, 0, 58, 0
2, 159488, Note_on_c, 0, 53, 64
2, 159744, Note_off_c, 0, 53, 0
2, 159744, Note_off_c, 0, 37, 0
2, 159744, Note_on_c, 0, 57, 64
2, 159744, Note_on_c, 0, 39, 64
2, 160000, Note_off_c, 0, 57, 0
2, 160000, Note_on_c, 0, 58, 64
2, 160256, Note_off_c, 0, 58, 0
2, 160256, Note_on_c, 0, 60, 64
2, 160256, Note_on_c, 0, 45, 48
2, 160256, Note_on_c, 0, 54, 48
2, 160512, Note_off_c, 0, 60, 0
2, 160512, Note_on_c, 0, 61, 64
2, 160768, Note_off_c, 0, 61, 0
2, 160768, Note_on_c, 0, 63, 64
2, 160768, Note_off_c, 0, 39, 0
2, 161024, Note_off_c, 0, 63, 0
2, 161024, Note_on_c, 0, 64, 64
2, 161280, Note_off_c, 0, 64, 0
2, 161280, Note_on_c, 0, 65, 64
2, 161280, Note_off_c, 0, 45, 0
2, 161280, Note_off_c, 0, 54, 0
2, 161280, Note_on_c, 0, 39, 64
2, 161536, Note_off_c, 0, 65, 0
2, 161536, Note_on_c, 0, 66, 64
2, 161792, Note_off_c, 0, 66, 0
2, 161792, Note_on_c, 0, 64, 64
2, 161792, Note_off_c, 0, 39, 0
2, 161792, Note_on_c, 0, 37, 64
2, 162048, Note_off_c, 0, 64, 0
2, 162048, Note_on_c, 0, 65, 64
2, 162304, Note_off_c, 0, 65, 0
2, 162304, Note_on_c, 0, 62, 64
2, 162304, Note_on_c, 0, 46, 48
2, 162304, Note_on_c, 0, 53, 48
2, 162560, Note_off_c, 0, 62, 0
2, 162560, Note_on_c, 0, 63, 64
2, 162816, Note_off_c, 0, 63, 0
2, 162816, Note_on_c, 0, 60, 64
2, 162816, Note_off_c, 0, 37, 0
2, 163072, Note_off_c, 0, 60, 0
2, 163072, Note_on_c, 0, 61, 64
2, 163328, Note_off_c, 0, 61, 0
2, 163328, Note_on_c, 0, 60, 64
2, 163328, Note_off_c, 0, 46, 0
2, 163328, Note_off_c, 0, 53, 0
2, 163328, Note_on_c, 0, 37, 64
2, 163584, Note_off_c, 0, 60, 0
2, 163584, Note_on_c, 0, 58, 64
2, 163840, Note_off_c, 0, 58, 0
2, 163840, Note_off_c, 0, 37, 0
2, 163840, Note_on_c, 0, 57, 64
2, 163840, Note_on_c, 0, 39, 64
2, 164096, Note_off_c, 0, 57, 0
2, 164096, Note_on_c, 0, 58, 64
2, 164352, Note_off_c, 0, 58, 0
2, 164352, Note_on_c, 0, 60, 64
2, 164352, Note_on_c, 0, 45, 48
2, 164352, Note_on_c, 0, 54, 48
2, 164608, Note_off_c, 0, 60, 0
2, 164608, Note_on_c, 0, 61, 64
2, 164864, Note_off_c, 0, 61, 0
2, 164864, Note_on_c, 0, 63, 64
2, 164864, Note_off_c, 0, 39, 0
2, 165120, Note_off_c, 0, 63, 0
2, 165120, Note_on_c, 0, 64, 64
2, 165376, Note_off_c, 0, 64, 0
2, 165376, Note_on_c, 0, 65, 64
2, 165376, Note_off_c, 0, 45, 0
2, 165376, Note_off_c, 0, 54, 0
2, 165376, Note_on_c, 0, 39, 64
2, 165632, Note_off_c, 0, 65, 0
2, 165632, Note_on_c, 0, 66, 64
2, 165888, Note_off_c, 0, 66, 0
2, 165888, Note_on_c, 0, 64, 64
2, 165888, Note_off_c, 0, 39, 0
2, 165888, Note_on_c, 0, 37, 64
2, 166144, Note_off_c, 0, 64, 0
2, 166144, Note_on_c, 0, 65, 64
2, 166400, Note_off_c, 0, 65, 0
2, 166400, Note_on_c, 0, 62, 64
2, 166400, Note_on_c, 0, 46, 48
2, 166400, Note_on_c, 0, 53, 48
2, 166656, Note_off_c, 0, 62, 0
2, 166656, Note_on_c, 0, 63, 64
2, 166912, Note_off_c, 0, 63, 0
2, 166912, Note_on_c, 0, 60, 64
2, 166912, Note_off_c, 0, 37, 0
2, 167168, Note_off_c, 0, 60, 0
2, 167168, Note_on_c, 0, 61, 64
2, 167424, Note_off_c, 0, 61, 0
2, 167424, Note_on_c, 0, 60, 64
2, 167424, Note_off_c, 0, 46, 0
2, 167424, Note_off_c, 0, 53, 0
2, 167424, Note_on_c, 0, 37, 64
2, 167680, Note_off_c, 0, 60, 0
2, 167680, Note_on_c, 0, 58, 64
2, 167936, Note_off_c, 0, 58, 0
2, 167936, Note_off_c, 0, 37, 0
2, 167936, Note_on_c, 0, 59, 64
2, 167936, Note_on_c, 0, 47, 64
2, 167936, Note_on_c, 0, 54, 64
2, 167936, Note_on_c, 0, 39, 64
2, 168192, Note_off_c, 0, 59, 0
2, 168192, Note_on_c, 0, 61, 64
2, 168448, Note_off_c, 0, 61, 0
2, 168448, Note_on_c, 0, 63, 64
2, 168704, Note_off_c, 0, 63, 0
2, 168704, Note_on_c, 0, 64, 64
2, 168960, Note_off_c, 0, 64, 0
2, 168960, Note_on_c, 0, 66, 64
2, 169216, Note_off_c, 0, 66, 0
2, 169216, Note_on_c, 0, 68, 64
2, 169472, Note_off_c, 0, 68, 0
2, 169472, Note_on_c, 0, 70, 64
2, 169684, Note_on_c, 0, 51, 64
2, 169728, Note_off_c, 0, 70, 0
2, 169728, Note_on_c, 0, 71, 64
2, 169784, Note_on_c, 0, 54, 64
2, 169884, Note_on_c, 0, 59, 64
2, 169984, Note_off_c, 0, 71, 0
2, 169984, Note_on_c, 0, 73, 64
2, 169984, Note_off_c, 0, 47, 0
2, 169984, Note_off_c, 0, 54, 0
2, 169984, Note_on_c, 0, 66, 80
2, 169984, Note_off_c, 0, 39, 0
2, 170240, Note_off_c, 0, 73, 0
2, 170240, Note_on_c, 0, 75, 64
2, 170496, Note_off_c, 0, 75, 0
2, 170496, Note_on_c, 0, 76, 64
2, 170708, Note_on_c, 0, 49, 64
2, 170752, Note_off_c, 0, 76, 0
2, 170752, Note_on_c, 0, 78, 64
2, 170808, Note_on_c, 0, 54, 64
2, 170908, Note_on_c, 0, 58, 64
2, 171008, Note_off_c, 0, 78, 0
2, 171008, Note_on_c, 0, 80, 64
2, 171008, Note_off_c, 0, 54, 0
2, 171008, Note_off_c, 0, 59, 0
2, 171008, Note_off_c, 0, 66, 0
2, 171008, Note_on_c, 0, 64, 80
2, 171008, Note_off_c, 0, 51, 0
2, 171264, Note_off_c, 0, 80, 0
2, 171264, Note_on_c, 0, 82, 64
2, 171520, Note_off_c, 0, 82, 0
2, 171520, Note_on_c, 0, 83, 64
2, 171732, Note_on_c, 0, 47, 64
2, 171776, Note_off_c, 0, 83, 0
2, 171776, Note_on_c, 0, 85, 64
2, 171882, Note_on_c, 0, 54, 64
2, 172032, Note_off_c, 0, 85, 0
2, 172032, Note_off_c, 0, 54, 0
2, 172032, Note_off_c, 0, 58, 0
2, 172032, Note_off_c, 0, 64, 0
2, 172032, Note_off_c, 0, 49, 0
2, 172032, Note_on_c, 0, 88, 64
2, 172032, Note_on_c, 0, 63, 80
2, 172288, Note_off_c, 0, 88, 0
2, 172288, Note_on_c, 0, 87, 64
2, 172544, Note_off_c, 0, 87, 0
2, 172544, Note_on_c, 0, 83, 64
2, 172800, Note_off_c, 0, 83, 0
2, 172800, Note_on_c, 0, 80, 64
2, 173056, Note_off_c, 0, 80, 0
2, 173056, Note_on_c, 0, 78, 64
2, 173312, Note_off_c, 0, 78, 0
2, 173312, Note_on_c, 0, 75, 64
2, 173568, Note_off_c, 0, 75, 0
2, 173568, Note_on_c, 0, 71, 64
2, 173824, Note_off_c, 0, 71, 0
2, 173824, Note_on_c, 0, 68, 64
2, 174080, Note_off_c, 0, 68, 0
2, 174080, Note_on_c, 0, 66, 64
2, 174080, Note_off_c, 0, 54, 0
2, 174080, Note_off_c, 0, 63, 0
2, 174080, Note_off_c, 0, 47, 0
2, 174336, Note_off_c, 0, 66, 0
2, 174336, Note_on_c, 0, 63, 64
2, 174592, Note_off_c, 0, 63, 0
2, 174592, Note_on_c, 0, 59, 64
2, 174848, Note_off_c, 0, 59, 0
2, 174848, Note_on_c, 0, 56, 64
2, 175104, Note_off_c, 0, 56, 0
2, 175104, Note_on_c, 0, 54, 64
2, 175360, Note_off_c, 0, 54, 0
2, 175360, Note_on_c, 0, 51, 64
2, 175616, Note_off_c, 0, 51, 0
2, 175616, Note_on_c, 0, 47, 64
2, 175872, Note_off_c, 0, 47, 0
2, 175872, Note_on_c, 0, 44, 64
2, 176128, Note_off_c, 0, 44, 0
2, 176128, Note_on_c, 0, 40, 64
2, 176128, Note_on_c, 0, 28, 64
2, 176384, Note_off_c, 0, 40, 0
2, 176384, Note_on_c, 0, 41, 64
2, 176384, Note_off_c, 0, 28, 0
2, 176384, Note_on_c, 0, 29, 64
2, 176640, Note_off_c, 0, 41, 0
2, 176640, Note_on_c, 0, 46, 64
2, 176640, Note_off_c, 0, 29, 0
2, 176640, Note_on_c, 0, 34, 64
2, 176896, Note_off_c, 0, 46, 0
2, 176896, Note_on_c, 0, 45, 64
2, 176896, Note_off_c, 0, 34, 0
2, 176896, Note_on_c, 0, 33, 64
2, 177152, Note_off_c, 0, 45, 0
2, 177152, Note_on_c, 0, 42, 64
2, 177152, Note_off_c, 0, 33, 0
2, 177152, Note_on_c, 0, 30, 64
2, 177408, Note_off_c, 0, 42, 0
2, 177408, Note_on_c, 0, 41, 64
2, 177408, Note_off_c, 0, 30, 0
2, 177408, Note_on_c, 0, 29, 64
2, 177664, Note_off_c, 0, 41, 0
2, 177664, Note_on_c, 0, 49, 64
2, 177664, Note_off_c, 0, 29, 0
2, 177664, Note_on_c, 0, 37, 64
2, 177920, Note_off_c, 0, 49, 0
2, 177920, Note_on_c, 0, 48, 64
2, 177920, Note_off_c, 0, 37, 0
2, 177920, Note_on_c, 0, 36, 64
2, 178176, Note_off_c, 0, 48, 0
2, 178176, Note_on_c, 0, 46, 64
2, 178176, Note_off_c, 0, 36, 0
2, 178176, Note_on_c, 0, 34, 64
2, 178432, Note_off_c, 0, 46, 0
2, 178432, Note_on_c, 0, 45, 64
2, 178432, Note_off_c, 0, 34, 0
2, 178432, Note_on_c, 0, 33, 64
2, 178688, Note_off_c, 0, 45, 0
2, 178688, Note_on_c, 0, 54, 64
2, 178688, Note_off_c, 0, 33, 0
2, 178688, Note_on_c, 0, 42, 64
2, 178944, Note_off_c, 0, 54, 0
2, 178944, Note_on_c, 0, 53, 64
2, 178944, Note_off_c, 0, 42, 0
2, 178944, Note_on_c, 0, 41, 64
2, 179200, Note_off_c, 0, 53, 0
2, 179200, Note_on_c, 0, 49, 64
2, 179200, Note_off_c, 0, 41, 0
2, 179200, Note_on_c, 0, 37, 64
2, 179456, Note_off_c, 0, 49, 0
2, 179456, Note_on_c, 0, 48, 64
2, 179456, Note_off_c, 0, 37, 0
2, 179456, Note_on_c, 0, 36, 64
2, 179712, Note_off_c, 0, 48, 0
2, 179712, Note_on_c, 0, 58, 64
2, 179712, Note_off_c, 0, 36, 0
2, 179712, Note_on_c, 0, 46, 64
2, 179968, Note_off_c, 0, 58, 0
2, 179968, Note_on_c, 0, 57, 64
2, 179968, Note_off_c, 0, 46, 0
2, 179968, Note_on_c, 0, 45, 64
2, 180224, Note_off_c, 0, 57, 0
2, 180224, Note_off_c, 0, 45, 0
2, 180224, Note_on_c, 0, 54, 64
2, 180224, Note_on_c, 0, 42, 64
2, 180480, Note_off_c, 0, 54, 0
2, 180480, Note_on_c, 0, 53, 64
2, 180480, Note_off_c, 0, 42, 0
2, 180480, Note_on_c, 0, 41, 64
2, 180736, Note_on_c, 0, 61, 64
2, 180736, Note_off_c, 0, 53, 0
2, 180736, Note_off_c, 0, 41, 0
2, 180736, Note_on_c, 0, 49, 64
2, 180992, Note_off_c, 0, 61, 0
2, 180992, Note_on_c, 0, 60, 64
2, 180992, Note_off_c, 0, 49, 0
2, 180992, Note_on_c, 0, 48, 64
2, 181248, Note_off_c, 0, 60, 0
2, 181248, Note_on_c, 0, 58, 64
2, 181248, Note_off_c, 0, 48, 0
2, 181248, Note_on_c, 0, 46, 64
2, 181504, Note_off_c, 0, 58, 0
2, 181504, Note_on_c, 0, 57, 64
2, 181504, Note_off_c, 0, 46, 0
2, 181504, Note_on_c, 0, 45, 64
2, 181760, Note_off_c, 0, 57, 0
2, 181760, Note_on_c, 0, 66, 64
2, 181760, Note_off_c, 0, 45, 0
2, 181760, Note_on_c, 0, 54, 64
2, 182016, Note_off_c, 0, 66, 0
2, 182016, Note_on_c, 0, 65, 64
2, 182016, Note_off_c, 0, 54, 0
2, 182016, Note_on_c, 0, 53, 64
2, 182272, Note_off_c, 0, 65, 0
2, 182272, Note_on_c, 0, 61, 64
2, 182272, Note_off_c, 0, 53, 0
2, 182272, Note_on_c, 0, 49, 64
2, 182528, Note_off_c, 0, 61, 0
2, 182528, Note_on_c, 0, 60, 64
2, 182528, Note_off_c, 0, 49, 0
2, 182528, Note_on_c, 0, 48, 64
2, 182784, Note_off_c, 0, 60, 0
2, 182784, Note_on_c, 0, 70, 64
2, 182784, Note_off_c, 0, 48, 0
2, 182784, Note_on_c, 0, 58, 64
2, 183040, Note_off_c, 0, 70, 0
2, 183040, Note_on_c, 0, 69, 64
2, 183040, Note_off_c, 0, 58, 0
2, 183040, Note_on_c, 0, 57, 64
2, 183296, Note_off_c, 0, 69, 0
2, 183296, Note_on_c, 0, 66, 64
2, 183296, Note_off_c, 0, 57, 0
2, 183296, Note_on_c, 0, 54, 64
2, 183552, Note_off_c, 0, 66, 0
2, 183552, Note_on_c, 0, 65, 64
2, 183552, Note_off_c, 0, 54, 0
2, 183552, Note_on_c, 0, 53, 64
2, 183808, Note_off_c, 0, 65, 0
2, 183808, Note_on_c, 0, 73, 64
2, 183808, Note_off_c, 0, 53, 0
2, 183808, Note_on_c, 0, 61, 64
2, 184064, Note_off_c, 0, 73, 0
2, 184064, Note_on_c, 0, 72, 64
2, 184064, Note_off_c, 0, 61, 0
2, 184064, Note_on_c, 0, 60, 64
2, 184320, Note_off_c, 0, 72, 0
2, 184320, Note_off_c, 0, 60, 0
2, 184320, Note_on_c, 0, 70, 64
2, 184320, Note_on_c, 0, 58, 64
2, 184576, Note_off_c, 0, 70, 0
2, 184576, Note_on_c, 0, 69, 64
2, 184576, Note_off_c, 0, 58, 0
2, 184576, Note_on_c, 0, 57, 64
2, 184832, Note_off_c, 0, 69, 0
2, 184832, Note_on_c, 0, 78, 64
2, 184832, Note_off_c, 0, 57, 0
2, 184832, Note_on_c, 0, 66, 64
2, 185088, Note_off_c, 0, 78, 0
2, 185088, Note_on_c, 0, 77, 64
2, 185088, Note_off_c, 0, 66, 0
2, 185088, Note_on_c, 0, 65, 64
2, 185344, Note_off_c, 0, 77, 0
2, 185344, Note_on_c, 0, 73, 64
2, 185344, Note_off_c, 0, 65, 0
2, 185344, Note_on_c, 0, 61, 64
2, 185600, Note_off_c, 0, 73, 0
2, 185600, Note_on_c, 0, 72, 64
2, 185600, Note_off_c, 0, 61, 0
2, 185600, Note_on_c, 0, 60, 64
2, 185856, Note_off_c, 0, 72, 0
2, 185856, Note_on_c, 0, 82, 64
2, 185856, Note_off_c, 0, 60, 0
2, 185856, Note_on_c, 0, 70, 64
2, 186112, Note_off_c, 0, 82, 0
2, 186112, Note_on_c, 0, 81, 64
2, 186112, Note_off_c, 0, 70, 0
2, 186112, Note_on_c, 0, 69, 64
2, 186368, Note_off_c, 0, 81, 0
2, 186368, Note_on_c, 0, 78, 64
2, 186368, Note_off_c, 0, 69, 0
2, 186368, Note_on_c, 0, 66, 64
2, 186624, Note_off_c, 0, 78, 0
2, 186624, Note_on_c, 0, 77, 64
2, 186624, Note_off_c, 0, 66, 0
2, 186624, Note_on_c, 0, 65, 64
2, 186880, Note_off_c, 0, 77, 0
2, 186880, Note_on_c, 0, 85, 64
2, 186880, Note_off_c, 0, 65, 0
2, 186880, Note_on_c, 0, 73, 64
2, 187136, Note_off_c, 0, 85, 0
2, 187136, Note_on_c, 0, 84, 64
2, 187136, Note_off_c, 0, 73, 0
2, 187136, Note_on_c, 0, 72, 64
2, 187392, Note_off_c, 0, 84, 0
2, 187392, Note_on_c, 0, 82, 64
2, 187392, Note_off_c, 0, 72, 0
2, 187392, Note_on_c, 0, 70, 64
2, 187648, Note_off_c, 0, 82, 0
2, 187648, Note_on_c, 0, 81, 64
2, 187648, Note_off_c, 0, 70, 0
2, 187648, Note_on_c, 0, 69, 64
2, 187904, Note_off_c, 0, 81, 0
2, 187904, Note_on_c, 0, 90, 64
2, 187904, Note_off_c, 0, 69, 0
2, 187904, Note_on_c, 0, 78, 64
2, 188160, Note_off_c, 0, 90, 0
2, 188160, Note_on_c, 0, 89, 64
2, 188160, Note_off_c, 0, 78, 0
2, 188160, Note_on_c, 0, 77, 64
2, 188416, Note_off_c, 0, 89, 0
2, 188416, Note_off_c, 0, 77, 0
2, 188416, Note_on_c, 0, 85, 64
2, 188416, Note_on_c, 0, 73, 64
2, 188672, Note_off_c, 0, 85, 0
2, 188672, Note_on_c, 0, 84, 64
2, 188672, Note_off_c, 0, 73, 0
2, 188672, Note_on_c, 0, 72, 64
2, 188928, Note_off_c, 0, 84, 0
2, 188928, Note_on_c, 0, 94, 64
2, 188928, Note_off_c, 0, 72, 0
2, 188928, Note_on_c, 0, 82, 64
2, 189184, Note_off_c, 0, 94, 0
2, 189184, Note_on_c, 0, 93, 64
2, 189184, Note_off_c, 0, 82, 0
2, 189184, Note_on_c, 0, 81, 64
2, 189440, Note_off_c, 0, 93, 0
2, 189440, Note_on_c, 0, 90, 64
2, 189440, Note_off_c, 0, 81, 0
2, 189440, Note_on_c, 0, 78, 64
2, 189696, Note_off_c, 0, 90, 0
2, 189696, Note_on_c, 0, 89, 64
2, 189696, Note_off_c, 0, 78, 0
2, 189696, Note_on_c, 0, 77, 64
2, 189952, Note_off_c, 0, 89, 0
2, 189952, Note_on_c, 0, 97, 64
2, 189952, Note_off_c, 0, 77, 0
2, 189952, Note_on_c, 0, 85, 64
2, 190208, Note_off_c, 0, 97, 0
2, 190208, Note_on_c, 0, 96, 64
2, 190208, Note_off_c, 0, 85, 0
2, 190208, Note_on_c, 0, 84, 64
2, 190464, Note_off_c, 0, 96, 0
2, 190464, Note_on_c, 0, 101, 64
2, 190464, Note_off_c, 0, 84, 0
2, 190464, Note_on_c, 0, 89, 64
2, 191488, Note_off_c, 0, 101, 0
2, 191488, Note_off_c, 0, 89, 0
2, 191488, Note_on_c, 0, 63, 96
2, 191488, Note_on_c, 0, 69, 96
2, 191488, Note_on_c, 0, 77, 96
2, 191488, Note_on_c, 0, 29, 96
2, 191488, Note_on_c, 0, 41, 96
2, 192512, Note_off_c, 0, 63, 0
2, 192512, Note_off_c, 0, 69, 0
2, 192512, Note_off_c, 0, 77, 0
2, 192512, Note_off_c, 0, 29, 0
2, 192512, Note_off_c, 0, 41, 0
2, 192512, Note_on_c, 0, 34, 96
2, 192812, Note_on_c, 0, 53, 96
2, 192812, Note_on_c, 0, 61, 96
2, 192812, Note_on_c, 0, 70, 96
2, 192812, Note_on_c, 0, 82, 96
2, 192812, Note_on_c, 0, 46, 96
2, 196608, Note_off_c, 0, 53, 0
2, 196608, Note_off_c, 0, 61, 0
2, 196608, Note_off_c, 0, 70, 0
2, 196608, Note_off_c, 0, 82, 0
2, 196608, Note_off_c, 0, 34, 0
2, 196608, Note_off_c, 0, 46, 0
2, 196609, End_track
0, 0, End_of_file