0, 0, Header, 1, 6, 120
1, 0, Start_track
1, 0, Title_t, "untitled"
1, 0, SMPTE_offset, 96, 0, 3, 0, 0
1, 0, MIDI_port, 0
1, 0, System_exclusive, 0A, 41, 10, 42, 12, 40, 00, 7F, 00, 41, F7
1, 0, MIDI_port, 0
1, 0, System_exclusive, 0A, 41, 10, 42, 12, 40, 01, 30, 03, 0C, F7
1, 0, MIDI_port, 0
1, 0, Time_signature, 6, 3, 12, 8
1, 0, Key_signature, -4, "major"
1, 0, Tempo, 333333
1, 360, Tempo, 845070
1, 364, Tempo, 833333
1, 366, Tempo, 821918
1, 368, Tempo, 810811
1, 370, Tempo, 800000
1, 374, Tempo, 789474
1, 376, Tempo, 779221
1, 378, Tempo, 769231
1, 380, Tempo, 759494
1, 384, Tempo, 750000
1, 386, Tempo, 740741
1, 388, Tempo, 731707
1, 390, Tempo, 722892
1, 394, Tempo, 714286
1, 402, Tempo, 705882
1, 410, Tempo, 697674
1, 416, Tempo, 689655
1, 424, Tempo, 681818
1, 432, Tempo, 674157
1, 438, Tempo, 666667
1, 446, Tempo, 659341
1, 454, Tempo, 652174
1, 460, Tempo, 645161
1, 468, Tempo, 638298
1, 476, Tempo, 631579
1, 482, Tempo, 625000
1, 2880, Tempo, 666667
1, 2896, Tempo, 670391
1, 2910, Tempo, 674157
1, 2926, Tempo, 677966
1, 2940, Tempo, 681818
1, 2956, Tempo, 685714
1, 2970, Tempo, 689655
1, 2986, Tempo, 693642
1, 3000, Tempo, 697674
1, 3016, Tempo, 701754
1, 3030, Tempo, 705882
1, 3046, Tempo, 710059
1, 3060, Tempo, 714286
1, 3076, Tempo, 718563
1, 3090, Tempo, 722892
1, 3106, Tempo, 727273
1, 3120, Tempo, 731707
1, 3136, Tempo, 736196
1, 3150, Tempo, 740741
1, 3166, Tempo, 745342
1, 3180, Tempo, 750000
1, 3243, Tempo, 750000
1, 3246, Tempo, 745342
1, 3250, Tempo, 736196
1, 3253, Tempo, 727273
1, 3256, Tempo, 722892
1, 3260, Tempo, 714286
1, 3263, Tempo, 705882
1, 3266, Tempo, 701754
1, 3270, Tempo, 693642
1, 3273, Tempo, 685714
1, 3276, Tempo, 681818
1, 3280, Tempo, 674157
1, 3283, Tempo, 666667
1, 3286, Tempo, 662983
1, 3290, Tempo, 655738
1, 3293, Tempo, 648649
1, 3296, Tempo, 645161
1, 3300, Tempo, 638298
1, 3303, Tempo, 625000
1, 8640, Tempo, 612245
1, 8693, Tempo, 609137
1, 8743, Tempo, 606061
1, 8796, Tempo, 603015
1, 8846, Tempo, 600000
1, 8900, Tempo, 597015
1, 8950, Tempo, 594059
1, 9000, Tempo, 591133
1, 9053, Tempo, 588235
1, 9103, Tempo, 585366
1, 9156, Tempo, 582524
1, 9206, Tempo, 579710
1, 9260, Tempo, 576923
1, 9310, Tempo, 574163
1, 9360, Tempo, 571429
1, 9413, Tempo, 568720
1, 9463, Tempo, 566038
1, 9516, Tempo, 563380
1, 9566, Tempo, 560748
1, 9620, Tempo, 558140
1, 9670, Tempo, 555556
1, 9720, Tempo, 555556
1, 9840, Tempo, 552995
1, 9960, Tempo, 576923
1, 9973, Tempo, 579710
1, 9986, Tempo, 582524
1, 10000, Tempo, 585366
1, 10013, Tempo, 588235
1, 10026, Tempo, 591133
1, 10036, Tempo, 594059
1, 10050, Tempo, 597015
1, 10063, Tempo, 600000
1, 10076, Tempo, 603015
1, 10080, Tempo, 701754
1, 10093, Tempo, 697674
1, 10103, Tempo, 693642
1, 10113, Tempo, 689655
1, 10123, Tempo, 685714
1, 10133, Tempo, 681818
1, 10146, Tempo, 677966
1, 10156, Tempo, 674157
1, 10166, Tempo, 670391
1, 10176, Tempo, 666667
1, 10186, Tempo, 662983
1, 10196, Tempo, 659341
1, 10200, Tempo, 666667
1, 10206, Tempo, 670391
1, 10213, Tempo, 674157
1, 10220, Tempo, 677966
1, 10226, Tempo, 681818
1, 10230, Tempo, 685714
1, 10236, Tempo, 689655
1, 10243, Tempo, 693642
1, 10250, Tempo, 697674
1, 10253, Tempo, 701754
1, 10260, Tempo, 705882
1, 10261, Tempo, 805369
1, 10268, Tempo, 810811
1, 10274, Tempo, 816327
1, 10281, Tempo, 821918
1, 10288, Tempo, 827586
1, 10294, Tempo, 833333
1, 10301, Tempo, 839161
1, 10308, Tempo, 845070
1, 10314, Tempo, 851064
1, 10321, Tempo, 857143
1, 10328, Tempo, 863309
1, 10334, Tempo, 869565
1, 10341, Tempo, 875912
1, 10348, Tempo, 882353
1, 10354, Tempo, 888889
1, 10361, Tempo, 895522
1, 10368, Tempo, 902256
1, 10374, Tempo, 909091
1, 10381, Tempo, 916031
1, 10384, Tempo, 965562
1, 10388, Tempo, 950269
1, 10391, Tempo, 942803
1, 10394, Tempo, 935454
1, 10398, Tempo, 928218
1, 10401, Tempo, 914077
1, 10404, Tempo, 907167
1, 10408, Tempo, 900360
1, 10411, Tempo, 893655
1, 10414, Tempo, 880540
1, 10418, Tempo, 874126
1, 10421, Tempo, 867804
1, 10424, Tempo, 861574
1, 10428, Tempo, 849377
1, 10431, Tempo, 843407
1, 10434, Tempo, 837521
1, 10438, Tempo, 831716
1, 10440, Tempo, 750000
1, 10460, Tempo, 745342
1, 10480, Tempo, 740741
1, 10500, Tempo, 736196
1, 10516, Tempo, 731707
1, 10536, Tempo, 727273
1, 10556, Tempo, 722892
1, 10573, Tempo, 718563
1, 10593, Tempo, 714286
1, 10613, Tempo, 710059
1, 10630, Tempo, 705882
1, 10650, Tempo, 701754
1, 10670, Tempo, 697674
1, 10686, Tempo, 693642
1, 10706, Tempo, 689655
1, 10726, Tempo, 685714
1, 10743, Tempo, 681818
1, 10763, Tempo, 677966
1, 10783, Tempo, 674157
1, 10800, Tempo, 750000
1, 10820, Tempo, 745342
1, 10840, Tempo, 740741
1, 10856, Tempo, 736196
1, 10876, Tempo, 731707
1, 10893, Tempo, 727273
1, 10913, Tempo, 722892
1, 10933, Tempo, 718563
1, 10950, Tempo, 714286
1, 10970, Tempo, 710059
1, 10986, Tempo, 705882
1, 11006, Tempo, 701754
1, 11023, Tempo, 697674
1, 11043, Tempo, 693642
1, 11063, Tempo, 689655
1, 11080, Tempo, 685714
1, 11100, Tempo, 681818
1, 11116, Tempo, 677966
1, 11136, Tempo, 674157
1, 11153, Tempo, 670391
1, 11160, Tempo, 714286
1, 11180, Tempo, 710059
1, 11200, Tempo, 705882
1, 11216, Tempo, 701754
1, 11236, Tempo, 697674
1, 11256, Tempo, 693642
1, 11273, Tempo, 689655
1, 11293, Tempo, 685714
1, 11310, Tempo, 681818
1, 11330, Tempo, 677966
1, 11350, Tempo, 674157
1, 11366, Tempo, 670391
1, 11386, Tempo, 666667
1, 11403, Tempo, 666667
1, 11520, Tempo, 710059
1, 11543, Tempo, 705882
1, 11566, Tempo, 701754
1, 11586, Tempo, 697674
1, 11610, Tempo, 693642
1, 11630, Tempo, 689655
1, 11653, Tempo, 685714
1, 11673, Tempo, 681818
1, 11696, Tempo, 677966
1, 11716, Tempo, 674157
1, 11740, Tempo, 670391
1, 11760, Tempo, 666667
1, 11880, Tempo, 750000
1, 11893, Tempo, 745342
1, 11903, Tempo, 740741
1, 11916, Tempo, 736196
1, 11926, Tempo, 731707
1, 11940, Tempo, 727273
1, 11950, Tempo, 722892
1, 11963, Tempo, 718563
1, 11973, Tempo, 714286
1, 11986, Tempo, 710059
1, 11996, Tempo, 705882
1, 12010, Tempo, 701754
1, 12020, Tempo, 697674
1, 12033, Tempo, 693642
1, 12043, Tempo, 689655
1, 12056, Tempo, 685714
1, 12066, Tempo, 681818
1, 12080, Tempo, 677966
1, 12090, Tempo, 674157
1, 12103, Tempo, 670391
1, 12113, Tempo, 666667
1, 12123, Tempo, 662983
1, 12243, Tempo, 754717
1, 12256, Tempo, 750000
1, 12266, Tempo, 745342
1, 12276, Tempo, 740741
1, 12286, Tempo, 736196
1, 12300, Tempo, 731707
1, 12310, Tempo, 727273
1, 12320, Tempo, 722892
1, 12330, Tempo, 718563
1, 12343, Tempo, 714286
1, 12353, Tempo, 710059
1, 12363, Tempo, 705882
1, 12373, Tempo, 701754
1, 12383, Tempo, 697674
1, 12396, Tempo, 693642
1, 12406, Tempo, 689655
1, 12416, Tempo, 685714
1, 12426, Tempo, 681818
1, 12440, Tempo, 677966
1, 12450, Tempo, 674157
1, 12460, Tempo, 670391
1, 12470, Tempo, 666667
1, 12480, Tempo, 662983
1, 12600, Tempo, 754717
1, 12613, Tempo, 750000
1, 12623, Tempo, 745342
1, 12633, Tempo, 740741
1, 12646, Tempo, 736196
1, 12656, Tempo, 731707
1, 12666, Tempo, 727273
1, 12676, Tempo, 722892
1, 12690, Tempo, 718563
1, 12700, Tempo, 714286
1, 12710, Tempo, 710059
1, 12720, Tempo, 705882
1, 12733, Tempo, 701754
1, 12743, Tempo, 697674
1, 12753, Tempo, 693642
1, 12766, Tempo, 689655
1, 12776, Tempo, 685714
1, 12786, Tempo, 681818
1, 12796, Tempo, 677966
1, 12810, Tempo, 674157
1, 12820, Tempo, 670391
1, 12830, Tempo, 666667
1, 12840, Tempo, 662983
1, 12960, Tempo, 754717
1, 12973, Tempo, 750000
1, 12983, Tempo, 745342
1, 12993, Tempo, 740741
1, 13006, Tempo, 736196
1, 13016, Tempo, 731707
1, 13026, Tempo, 727273
1, 13036, Tempo, 722892
1, 13050, Tempo, 718563
1, 13060, Tempo, 714286
1, 13070, Tempo, 710059
1, 13080, Tempo, 710059
1, 13090, Tempo, 714286
1, 13096, Tempo, 718563
1, 13103, Tempo, 722892
1, 13110, Tempo, 727273
1, 13116, Tempo, 731707
1, 13123, Tempo, 736196
1, 13130, Tempo, 740741
1, 13136, Tempo, 745342
1, 13146, Tempo, 750000
1, 13153, Tempo, 754717
1, 13160, Tempo, 759494
1, 13166, Tempo, 764331
1, 13173, Tempo, 769231
1, 13180, Tempo, 774194
1, 13186, Tempo, 779221
1, 13193, Tempo, 784314
1, 13200, Tempo, 789474
1, 13286, Tempo, 789474
1, 13290, Tempo, 784314
1, 13293, Tempo, 774194
1, 13296, Tempo, 764331
1, 13300, Tempo, 754717
1, 13303, Tempo, 745342
1, 13306, Tempo, 736196
1, 13310, Tempo, 727273
1, 13313, Tempo, 718563
1, 13316, Tempo, 710059
1, 13320, Tempo, 701754
1, 13323, Tempo, 693642
1, 13326, Tempo, 689655
1, 13330, Tempo, 681818
1, 13333, Tempo, 674157
1, 13336, Tempo, 666667
1, 13340, Tempo, 659341
1, 13343, Tempo, 652174
1, 13346, Tempo, 645161
1, 13350, Tempo, 638298
1, 13353, Tempo, 631579
1, 13356, Tempo, 625000
1, 13360, Tempo, 618557
1, 13363, Tempo, 625000
1, 15843, Tempo, 677966
1, 15853, Tempo, 674157
1, 15863, Tempo, 670391
1, 15870, Tempo, 666667
1, 15880, Tempo, 662983
1, 15886, Tempo, 659341
1, 15896, Tempo, 655738
1, 15903, Tempo, 652174
1, 15913, Tempo, 648649
1, 15923, Tempo, 645161
1, 15930, Tempo, 641711
1, 15940, Tempo, 638298
1, 15946, Tempo, 634921
1, 15956, Tempo, 631579
1, 15960, Tempo, 628272
1, 15966, Tempo, 631579
1, 15973, Tempo, 634921
1, 15980, Tempo, 638298
1, 15986, Tempo, 641711
1, 15993, Tempo, 645161
1, 15996, Tempo, 648649
1, 16003, Tempo, 652174
1, 16010, Tempo, 655738
1, 16016, Tempo, 659341
1, 16023, Tempo, 662983
1, 16030, Tempo, 666667
1, 16033, Tempo, 670391
1, 16040, Tempo, 674157
1, 16046, Tempo, 677966
1, 16053, Tempo, 681818
1, 16060, Tempo, 685714
1, 16066, Tempo, 689655
1, 16070, Tempo, 693642
1, 16076, Tempo, 697674
1, 16083, Tempo, 701754
1, 16090, Tempo, 705882
1, 16096, Tempo, 710059
1, 16103, Tempo, 714286
1, 16106, Tempo, 718563
1, 16113, Tempo, 722892
1, 16120, Tempo, 727273
1, 16126, Tempo, 731707
1, 16133, Tempo, 736196
1, 16140, Tempo, 740741
1, 16143, Tempo, 745342
1, 16166, Tempo, 750000
1, 16170, Tempo, 745342
1, 16173, Tempo, 736196
1, 16176, Tempo, 731707
1, 16180, Tempo, 722892
1, 16183, Tempo, 714286
1, 16186, Tempo, 710059
1, 16190, Tempo, 701754
1, 16193, Tempo, 693642
1, 16196, Tempo, 689655
1, 16200, Tempo, 681818
1, 16203, Tempo, 674157
1, 16206, Tempo, 670391
1, 16210, Tempo, 662983
1, 16213, Tempo, 659341
1, 16216, Tempo, 652174
1, 16220, Tempo, 645161
1, 16223, Tempo, 641711
1, 16226, Tempo, 634921
1, 16230, Tempo, 628272
1, 16233, Tempo, 625000
1, 16236, Tempo, 618557
1, 16240, Tempo, 625000
1, 19076, Tempo, 618557
1, 19139, Tempo, 615385
1, 19199, Tempo, 612245
1, 19262, Tempo, 609137
1, 19322, Tempo, 606061
1, 19386, Tempo, 603015
1, 19446, Tempo, 600000
1, 19509, Tempo, 597015
1, 19569, Tempo, 594059
1, 19629, Tempo, 591133
1, 19692, Tempo, 588235
1, 19752, Tempo, 585366
1, 19816, Tempo, 582524
1, 19876, Tempo, 579710
1, 19939, Tempo, 576923
1, 19999, Tempo, 574163
1, 20059, Tempo, 571429
1, 20063, Tempo, 568720
1, 20066, Tempo, 571429
1, 20069, Tempo, 574163
1, 20073, Tempo, 576923
1, 20076, Tempo, 579710
1, 20079, Tempo, 582524
1, 20083, Tempo, 585366
1, 20086, Tempo, 588235
1, 20089, Tempo, 591133
1, 20093, Tempo, 594059
1, 20096, Tempo, 597015
1, 20099, Tempo, 600000
1, 20103, Tempo, 603015
1, 20106, Tempo, 606061
1, 20109, Tempo, 609137
1, 20113, Tempo, 612245
1, 20116, Tempo, 615385
1, 20119, Tempo, 618557
1, 20123, Tempo, 621762
1, 20126, Tempo, 625000
1, 20129, Tempo, 628272
1, 20133, Tempo, 631579
1, 20136, Tempo, 634921
1, 20139, Tempo, 638298
1, 20143, Tempo, 641711
1, 20146, Tempo, 645161
1, 20149, Tempo, 648649
1, 20153, Tempo, 652174
1, 20156, Tempo, 714286
1, 20166, Tempo, 710059
1, 20176, Tempo, 705882
1, 20186, Tempo, 701754
1, 20196, Tempo, 697674
1, 20206, Tempo, 693642
1, 20216, Tempo, 689655
1, 20226, Tempo, 685714
1, 20236, Tempo, 681818
1, 20246, Tempo, 677966
1, 20256, Tempo, 674157
1, 20266, Tempo, 670391
1, 20276, Tempo, 666667
1, 20278, Tempo, 851064
1, 20288, Tempo, 857143
1, 20294, Tempo, 863309
1, 20304, Tempo, 869565
1, 20311, Tempo, 875912
1, 20318, Tempo, 882353
1, 20328, Tempo, 888889
1, 20334, Tempo, 895522
1, 20344, Tempo, 902256
1, 20351, Tempo, 909091
1, 20358, Tempo, 916031
1, 20368, Tempo, 923077
1, 20374, Tempo, 930233
1, 20384, Tempo, 937500
1, 20391, Tempo, 944882
1, 20398, Tempo, 952381
1, 20401, Tempo, 952381
1, 20408, Tempo, 944882
1, 20411, Tempo, 937500
1, 20418, Tempo, 930233
1, 20421, Tempo, 923077
1, 20428, Tempo, 916031
1, 20431, Tempo, 909091
1, 20434, Tempo, 902256
1, 20441, Tempo, 895522
1, 20444, Tempo, 888889
1, 20451, Tempo, 882353
1, 20454, Tempo, 810811
1, 20464, Tempo, 805369
1, 20471, Tempo, 800000
1, 20478, Tempo, 794702
1, 20484, Tempo, 789474
1, 20494, Tempo, 784314
1, 20501, Tempo, 779221
1, 20508, Tempo, 774194
1, 20514, Tempo, 769231
1, 20516, Tempo, 705882
1, 20520, Tempo, 731707
1, 20536, Tempo, 727273
1, 20553, Tempo, 722892
1, 20566, Tempo, 718563
1, 20583, Tempo, 714286
1, 20596, Tempo, 710059
1, 20613, Tempo, 705882
1, 20626, Tempo, 701754
1, 20643, Tempo, 697674
1, 20660, Tempo, 693642
1, 20673, Tempo, 689655
1, 20690, Tempo, 685714
1, 20703, Tempo, 681818
1, 20720, Tempo, 677966
1, 20733, Tempo, 674157
1, 20750, Tempo, 670391
1, 20763, Tempo, 666667
1, 20880, Tempo, 705882
1, 20900, Tempo, 701754
1, 20916, Tempo, 697674
1, 20933, Tempo, 693642
1, 20953, Tempo, 689655
1, 20970, Tempo, 685714
1, 20986, Tempo, 681818
1, 21006, Tempo, 677966
1, 21023, Tempo, 674157
1, 21040, Tempo, 670391
1, 21056, Tempo, 666667
1, 21060, Tempo, 666667
1, 21116, Tempo, 666667
1, 21133, Tempo, 662983
1, 21150, Tempo, 659341
1, 21163, Tempo, 655738
1, 21180, Tempo, 652174
1, 21196, Tempo, 648649
1, 21210, Tempo, 645161
1, 21226, Tempo, 641711
1, 21240, Tempo, 701754
1, 21256, Tempo, 697674
1, 21270, Tempo, 693642
1, 21283, Tempo, 689655
1, 21300, Tempo, 685714
1, 21313, Tempo, 681818
1, 21326, Tempo, 677966
1, 21340, Tempo, 674157
1, 21356, Tempo, 670391
1, 21370, Tempo, 666667
1, 21383, Tempo, 662983
1, 21396, Tempo, 659341
1, 21600, Tempo, 710059
1, 21613, Tempo, 705882
1, 21623, Tempo, 701754
1, 21633, Tempo, 697674
1, 21646, Tempo, 693642
1, 21656, Tempo, 689655
1, 21666, Tempo, 685714
1, 21676, Tempo, 681818
1, 21690, Tempo, 677966
1, 21700, Tempo, 674157
1, 21710, Tempo, 670391
1, 21720, Tempo, 666667
1, 21733, Tempo, 662983
1, 21743, Tempo, 659341
1, 21753, Tempo, 655738
1, 21763, Tempo, 652174
1, 21776, Tempo, 638298
1, 21793, Tempo, 641711
1, 21810, Tempo, 645161
1, 21826, Tempo, 648649
1, 21843, Tempo, 652174
1, 21860, Tempo, 655738
1, 21876, Tempo, 659341
1, 21893, Tempo, 662983
1, 21906, Tempo, 666667
1, 21960, Tempo, 816327
1, 21976, Tempo, 810811
1, 21990, Tempo, 805369
1, 22003, Tempo, 800000
1, 22016, Tempo, 794702
1, 22030, Tempo, 789474
1, 22043, Tempo, 784314
1, 22060, Tempo, 779221
1, 22073, Tempo, 774194
1, 22086, Tempo, 769231
1, 22100, Tempo, 764331
1, 22113, Tempo, 759494
1, 22126, Tempo, 754717
1, 22140, Tempo, 750000
1, 22146, Tempo, 745342
1, 22163, Tempo, 740741
1, 22180, Tempo, 736196
1, 22196, Tempo, 731707
1, 22213, Tempo, 727273
1, 22230, Tempo, 722892
1, 22246, Tempo, 718563
1, 22260, Tempo, 714286
1, 22316, Tempo, 816327
1, 22319, Tempo, 821918
1, 22339, Tempo, 816327
1, 22356, Tempo, 810811
1, 22372, Tempo, 805369
1, 22389, Tempo, 800000
1, 22409, Tempo, 794702
1, 22426, Tempo, 789474
1, 22442, Tempo, 784314
1, 22459, Tempo, 779221
1, 22479, Tempo, 774194
1, 22496, Tempo, 769231
1, 22512, Tempo, 764331
1, 22529, Tempo, 759494
1, 22549, Tempo, 754717
1, 22566, Tempo, 750000
1, 22582, Tempo, 745342
1, 22599, Tempo, 740741
1, 22619, Tempo, 736196
1, 22636, Tempo, 731707
1, 22652, Tempo, 727273
1, 22669, Tempo, 722892
1, 22670, Tempo, 674157
1, 22676, Tempo, 670391
1, 22679, Tempo, 895522
1, 22696, Tempo, 888889
1, 22709, Tempo, 882353
1, 22722, Tempo, 875912
1, 22736, Tempo, 869565
1, 22752, Tempo, 863309
1, 22766, Tempo, 857143
1, 22779, Tempo, 851064
1, 22792, Tempo, 845070
1, 22809, Tempo, 839161
1, 22822, Tempo, 833333
1, 22836, Tempo, 827586
1, 22849, Tempo, 821918
1, 22866, Tempo, 816327
1, 22879, Tempo, 810811
1, 22892, Tempo, 805369
1, 22906, Tempo, 800000
1, 22919, Tempo, 794702
1, 23036, Tempo, 983607
1, 23059, Tempo, 975610
1, 23082, Tempo, 967742
1, 23106, Tempo, 960000
1, 23126, Tempo, 952381
1, 23149, Tempo, 944882
1, 23172, Tempo, 937500
1, 23196, Tempo, 930233
1, 23212, Tempo, 930233
1, 23232, Tempo, 937500
1, 23249, Tempo, 944882
1, 23266, Tempo, 952381
1, 23282, Tempo, 960000
1, 23299, Tempo, 967742
1, 23319, Tempo, 975610
1, 23336, Tempo, 983607
1, 23352, Tempo, 991736
1, 23369, Tempo, 1000000
1, 23386, Tempo, 1008403
1, 23400, Tempo, 937500
1, 23400, End_track
2, 0, Start_track
2, 0, MIDI_port, 0
2, 0, Title_t, "Etude No. 9"
2, 60, Control_c, 0, 0, 0
2, 62, Program_c, 0, 0
2, 63, Control_c, 0, 7, 127
2, 120, Control_c, 0, 91, 64
2, 120, Control_c, 0, 0, 0
2, 120, Control_c, 0, 93, 20
2, 331, Control_c, 0, 64, 127
2, 360, Note_on_c, 0, 41, 56
2, 378, Note_on_c, 0, 41, 0
2, 391, Note_on_c, 0, 48, 55
2, 421, Note_on_c, 0, 65, 60
2, 422, Note_on_c, 0, 56, 60
2, 425, Note_on_c, 0, 48, 0
2, 448, Note_on_c, 0, 56, 0
2, 449, Note_on_c, 0, 65, 0
2, 452, Note_on_c, 0, 48, 58
2, 477, Note_on_c, 0, 48, 0
2, 481, Note_on_c, 0, 67, 61
2, 481, Note_on_c, 0, 58, 58
2, 483, Control_c, 0, 64, 0
2, 500, Note_on_c, 0, 58, 0
2, 509, Note_on_c, 0, 67, 0
2, 511, Note_on_c, 0, 48, 55
2, 532, Control_c, 0, 64, 127
2, 533, Note_on_c, 0, 48, 0
2, 540, Note_on_c, 0, 41, 56
2, 550, Note_on_c, 0, 41, 0
2, 568, Note_on_c, 0, 48, 58
2, 595, Note_on_c, 0, 48, 0
2, 599, Note_on_c, 0, 68, 62
2, 599, Note_on_c, 0, 60, 56
2, 619, Note_on_c, 0, 60, 0
2, 626, Note_on_c, 0, 68, 0
2, 631, Note_on_c, 0, 48, 57
2, 645, Note_on_c, 0, 48, 0
2, 658, Note_on_c, 0, 61, 56
2, 660, Note_on_c, 0, 70, 63
2, 666, Control_c, 0, 64, 0
2, 680, Note_on_c, 0, 61, 0
2, 687, Note_on_c, 0, 70, 0
2, 689, Note_on_c, 0, 48, 54
2, 704, Control_c, 0, 64, 127
2, 718, Note_on_c, 0, 48, 0
2, 721, Note_on_c, 0, 41, 58
2, 738, Note_on_c, 0, 41, 0
2, 748, Note_on_c, 0, 48, 60
2, 779, Note_on_c, 0, 60, 62
2, 780, Note_on_c, 0, 48, 0
2, 783, Note_on_c, 0, 72, 67
2, 804, Note_on_c, 0, 60, 0
2, 809, Note_on_c, 0, 48, 62
2, 814, Note_on_c, 0, 72, 0
2, 836, Control_c, 0, 64, 0
2, 838, Note_on_c, 0, 48, 0
2, 838, Note_on_c, 0, 58, 63
2, 842, Note_on_c, 0, 73, 73
2, 867, Note_on_c, 0, 58, 0
2, 868, Note_on_c, 0, 73, 0
2, 869, Note_on_c, 0, 48, 66
2, 889, Control_c, 0, 64, 127
2, 898, Note_on_c, 0, 48, 0
2, 901, Note_on_c, 0, 72, 79
2, 901, Note_on_c, 0, 41, 70
2, 916, Note_on_c, 0, 41, 0
2, 926, Note_on_c, 0, 72, 0
2, 929, Note_on_c, 0, 48, 71
2, 957, Note_on_c, 0, 80, 80
2, 961, Note_on_c, 0, 48, 0
2, 961, Note_on_c, 0, 56, 72
2, 977, Note_on_c, 0, 56, 0
2, 980, Note_on_c, 0, 80, 0
2, 988, Note_on_c, 0, 48, 73
2, 1005, Control_c, 0, 64, 0
2, 1018, Note_on_c, 0, 48, 0
2, 1019, Note_on_c, 0, 58, 74
2, 1021, Note_on_c, 0, 79, 85
2, 1040, Note_on_c, 0, 58, 0
2, 1042, Note_on_c, 0, 79, 0
2, 1047, Note_on_c, 0, 48, 75
2, 1062, Control_c, 0, 64, 127
2, 1063, Note_on_c, 0, 48, 0
2, 1075, Note_on_c, 0, 77, 87
2, 1079, Note_on_c, 0, 41, 77
2, 1101, Note_on_c, 0, 41, 0
2, 1102, Note_on_c, 0, 77, 0
2, 1109, Note_on_c, 0, 48, 71
2, 1134, Note_on_c, 0, 72, 87
2, 1141, Note_on_c, 0, 56, 74
2, 1147, Note_on_c, 0, 48, 0
2, 1164, Control_c, 0, 64, 0
2, 1166, Note_on_c, 0, 56, 0
2, 1167, Note_on_c, 0, 72, 0
2, 1170, Note_on_c, 0, 48, 73
2, 1198, Note_on_c, 0, 48, 0
2, 1198, Note_on_c, 0, 73, 86
2, 1199, Note_on_c, 0, 58, 73
2, 1226, Note_on_c, 0, 58, 0
2, 1229, Note_on_c, 0, 73, 0
2, 1229, Note_on_c, 0, 48, 71
2, 1232, Control_c, 0, 64, 127
2, 1261, Note_on_c, 0, 72, 86
2, 1262, Note_on_c, 0, 41, 74
2, 1266, Note_on_c, 0, 48, 0
2, 1273, Note_on_c, 0, 41, 0
2, 1287, Note_on_c, 0, 72, 0
2, 1291, Note_on_c, 0, 48, 74
2, 1320, Note_on_c, 0, 68, 84
2, 1321, Note_on_c, 0, 56, 74
2, 1323, Note_on_c, 0, 48, 0
2, 1342, Note_on_c, 0, 56, 0
2, 1345, Note_on_c, 0, 68, 0
2, 1349, Note_on_c, 0, 48, 73
2, 1357, Control_c, 0, 64, 0
2, 1379, Note_on_c, 0, 48, 0
2, 1380, Note_on_c, 0, 65, 82
2, 1382, Note_on_c, 0, 60, 74
2, 1403, Note_on_c, 0, 65, 0
2, 1405, Note_on_c, 0, 60, 0
2, 1411, Note_on_c, 0, 48, 77
2, 1423, Control_c, 0, 64, 127
2, 1424, Note_on_c, 0, 48, 0
2, 1441, Note_on_c, 0, 41, 77
2, 1446, Note_on_c, 0, 60, 85
2, 1470, Note_on_c, 0, 41, 0
2, 1471, Note_on_c, 0, 48, 75
2, 1502, Note_on_c, 0, 48, 0
2, 1502, Note_on_c, 0, 55, 74
2, 1526, Note_on_c, 0, 55, 0
2, 1531, Note_on_c, 0, 48, 72
2, 1557, Control_c, 0, 64, 0
2, 1560, Note_on_c, 0, 48, 0
2, 1562, Note_on_c, 0, 56, 72
2, 1584, Note_on_c, 0, 56, 0
2, 1591, Note_on_c, 0, 48, 72
2, 1601, Control_c, 0, 64, 127
2, 1616, Note_on_c, 0, 48, 0
2, 1621, Note_on_c, 0, 41, 74
2, 1639, Note_on_c, 0, 41, 0
2, 1651, Note_on_c, 0, 48, 72
2, 1681, Note_on_c, 0, 58, 69
2, 1689, Note_on_c, 0, 48, 0
2, 1698, Note_on_c, 0, 58, 0
2, 1711, Note_on_c, 0, 48, 64
2, 1722, Note_on_c, 0, 60, 0
2, 1734, Control_c, 0, 64, 0
2, 1739, Note_on_c, 0, 48, 0
2, 1741, Note_on_c, 0, 55, 59
2, 1766, Note_on_c, 0, 55, 0
2, 1769, Note_on_c, 0, 48, 54
2, 1789, Note_on_c, 0, 48, 0
2, 1800, Control_c, 0, 64, 127
2, 1802, Note_on_c, 0, 41, 50
2, 1822, Note_on_c, 0, 41, 0
2, 1831, Note_on_c, 0, 48, 45
2, 1859, Note_on_c, 0, 65, 64
2, 1862, Note_on_c, 0, 56, 53
2, 1863, Note_on_c, 0, 48, 0
2, 1886, Note_on_c, 0, 56, 0
2, 1890, Note_on_c, 0, 48, 48
2, 1896, Note_on_c, 0, 65, 0
2, 1919, Note_on_c, 0, 48, 0
2, 1921, Note_on_c, 0, 58, 54
2, 1922, Note_on_c, 0, 67, 65
2, 1929, Control_c, 0, 64, 0
2, 1945, Note_on_c, 0, 58, 0
2, 1951, Note_on_c, 0, 48, 50
2, 1957, Note_on_c, 0, 67, 0
2, 1981, Note_on_c, 0, 41, 54
2, 1984, Control_c, 0, 64, 127
2, 1985, Note_on_c, 0, 48, 0
2, 1998, Note_on_c, 0, 41, 0
2, 2011, Note_on_c, 0, 48, 49
2, 2041, Note_on_c, 0, 48, 0
2, 2041, Note_on_c, 0, 60, 55
2, 2044, Note_on_c, 0, 68, 66
2, 2063, Note_on_c, 0, 60, 0
2, 2072, Note_on_c, 0, 48, 50
2, 2080, Note_on_c, 0, 68, 0
2, 2089, Note_on_c, 0, 48, 0
2, 2101, Note_on_c, 0, 61, 56
2, 2103, Note_on_c, 0, 70, 65
2, 2111, Control_c, 0, 64, 0
2, 2122, Note_on_c, 0, 61, 0
2, 2131, Note_on_c, 0, 48, 49
2, 2135, Note_on_c, 0, 70, 0
2, 2162, Note_on_c, 0, 41, 56
2, 2162, Control_c, 0, 64, 127
2, 2164, Note_on_c, 0, 48, 0
2, 2170, Note_on_c, 0, 41, 0
2, 2191, Note_on_c, 0, 48, 61
2, 2216, Note_on_c, 0, 48, 0
2, 2221, Note_on_c, 0, 60, 61
2, 2224, Note_on_c, 0, 72, 65
2, 2248, Note_on_c, 0, 60, 0
2, 2249, Note_on_c, 0, 48, 61
2, 2265, Note_on_c, 0, 72, 0
2, 2281, Note_on_c, 0, 58, 59
2, 2282, Note_on_c, 0, 48, 0
2, 2282, Note_on_c, 0, 73, 71
2, 2290, Control_c, 0, 64, 0
2, 2308, Note_on_c, 0, 58, 0
2, 2311, Note_on_c, 0, 48, 58
2, 2315, Note_on_c, 0, 73, 0
2, 2338, Control_c, 0, 64, 127
2, 2342, Note_on_c, 0, 72, 76
2, 2342, Note_on_c, 0, 41, 62
2, 2347, Note_on_c, 0, 48, 0
2, 2362, Note_on_c, 0, 41, 0
2, 2371, Note_on_c, 0, 72, 0
2, 2373, Note_on_c, 0, 48, 61
2, 2401, Note_on_c, 0, 84, 81
2, 2402, Note_on_c, 0, 48, 0
2, 2403, Note_on_c, 0, 56, 63
2, 2430, Note_on_c, 0, 56, 0
2, 2430, Note_on_c, 0, 84, 0
2, 2432, Note_on_c, 0, 48, 67
2, 2461, Note_on_c, 0, 80, 82
2, 2461, Control_c, 0, 64, 0
2, 2462, Note_on_c, 0, 60, 67
2, 2466, Note_on_c, 0, 48, 0
2, 2481, Note_on_c, 0, 60, 0
2, 2488, Note_on_c, 0, 80, 0
2, 2489, Note_on_c, 0, 48, 67
2, 2506, Note_on_c, 0, 48, 0
2, 2506, Control_c, 0, 64, 127
2, 2521, Note_on_c, 0, 41, 74
2, 2522, Note_on_c, 0, 79, 87
2, 2546, Note_on_c, 0, 41, 0
2, 2549, Note_on_c, 0, 79, 0
2, 2551, Note_on_c, 0, 48, 79
2, 2582, Note_on_c, 0, 58, 69
2, 2583, Note_on_c, 0, 72, 86
2, 2588, Note_on_c, 0, 48, 0
2, 2608, Note_on_c, 0, 58, 0
2, 2612, Note_on_c, 0, 48, 79
2, 2614, Note_on_c, 0, 72, 0
2, 2640, Note_on_c, 0, 73, 84
2, 2642, Note_on_c, 0, 55, 67
2, 2643, Note_on_c, 0, 48, 0
2, 2646, Control_c, 0, 64, 0
2, 2671, Note_on_c, 0, 55, 0
2, 2672, Note_on_c, 0, 73, 0
2, 2672, Note_on_c, 0, 48, 76
2, 2681, Control_c, 0, 64, 127
2, 2701, Note_on_c, 0, 72, 86
2, 2702, Note_on_c, 0, 41, 78
2, 2703, Note_on_c, 0, 48, 0
2, 2728, Note_on_c, 0, 41, 0
2, 2732, Note_on_c, 0, 48, 76
2, 2736, Note_on_c, 0, 72, 0
2, 2760, Note_on_c, 0, 67, 83
2, 2762, Note_on_c, 0, 58, 68
2, 2772, Note_on_c, 0, 48, 0
2, 2788, Note_on_c, 0, 58, 0
2, 2791, Note_on_c, 0, 48, 76
2, 2793, Note_on_c, 0, 67, 0
2, 2816, Control_c, 0, 64, 0
2, 2822, Note_on_c, 0, 55, 54
2, 2824, Note_on_c, 0, 60, 79
2, 2828, Note_on_c, 0, 48, 0
2, 2851, Note_on_c, 0, 55, 0
2, 2851, Note_on_c, 0, 48, 68
2, 2857, Note_on_c, 0, 60, 0
2, 2858, Control_c, 0, 64, 127
2, 2873, Note_on_c, 0, 48, 0
2, 2883, Note_on_c, 0, 65, 87
2, 2883, Note_on_c, 0, 41, 72
2, 2912, Note_on_c, 0, 47, 73
2, 2915, Note_on_c, 0, 67, 88
2, 2916, Note_on_c, 0, 65, 0
2, 2920, Note_on_c, 0, 41, 0
2, 2943, Note_on_c, 0, 56, 78
2, 2949, Note_on_c, 0, 68, 96
2, 2953, Note_on_c, 0, 67, 0
2, 2959, Note_on_c, 0, 47, 0
2, 2965, Note_on_c, 0, 56, 0
2, 2972, Note_on_c, 0, 47, 82
2, 2998, Note_on_c, 0, 47, 0
2, 3000, Note_on_c, 0, 61, 85
2, 3012, Note_on_c, 0, 61, 0
2, 3022, Control_c, 0, 64, 0
2, 3032, Note_on_c, 0, 47, 85
2, 3048, Control_c, 0, 64, 127
2, 3063, Note_on_c, 0, 41, 90
2, 3066, Note_on_c, 0, 47, 0
2, 3078, Note_on_c, 0, 41, 0
2, 3092, Note_on_c, 0, 47, 87
2, 3117, Note_on_c, 0, 47, 0
2, 3122, Note_on_c, 0, 56, 83
2, 3142, Note_on_c, 0, 56, 0
2, 3149, Note_on_c, 0, 47, 80
2, 3171, Note_on_c, 0, 68, 0
2, 3172, Note_on_c, 0, 47, 0
2, 3181, Note_on_c, 0, 61, 78
2, 3194, Note_on_c, 0, 61, 0
2, 3209, Note_on_c, 0, 47, 69
2, 3229, Note_on_c, 0, 47, 0
2, 3229, Control_c, 0, 64, 0
2, 3241, Note_on_c, 0, 41, 57
2, 3254, Control_c, 0, 64, 127
2, 3266, Note_on_c, 0, 41, 0
2, 3271, Note_on_c, 0, 48, 59
2, 3300, Note_on_c, 0, 48, 0
2, 3301, Note_on_c, 0, 65, 69
2, 3301, Note_on_c, 0, 56, 63
2, 3327, Note_on_c, 0, 56, 0
2, 3330, Note_on_c, 0, 48, 60
2, 3338, Note_on_c, 0, 65, 0
2, 3358, Note_on_c, 0, 67, 72
2, 3361, Note_on_c, 0, 48, 0
2, 3361, Note_on_c, 0, 58, 59
2, 3385, Note_on_c, 0, 58, 0
2, 3388, Note_on_c, 0, 67, 0
2, 3389, Note_on_c, 0, 48, 55
2, 3394, Control_c, 0, 64, 0
2, 3421, Note_on_c, 0, 41, 55
2, 3425, Note_on_c, 0, 48, 0
2, 3425, Control_c, 0, 64, 127
2, 3434, Note_on_c, 0, 41, 0
2, 3451, Note_on_c, 0, 48, 54
2, 3478, Note_on_c, 0, 48, 0
2, 3481, Note_on_c, 0, 60, 56
2, 3484, Note_on_c, 0, 68, 67
2, 3503, Note_on_c, 0, 60, 0
2, 3511, Note_on_c, 0, 48, 56
2, 3521, Note_on_c, 0, 68, 0
2, 3530, Note_on_c, 0, 48, 0
2, 3539, Note_on_c, 0, 61, 56
2, 3544, Note_on_c, 0, 70, 73
2, 3553, Control_c, 0, 64, 0
2, 3565, Note_on_c, 0, 61, 0
2, 3570, Note_on_c, 0, 48, 57
2, 3574, Note_on_c, 0, 70, 0
2, 3598, Control_c, 0, 64, 127
2, 3602, Note_on_c, 0, 41, 57
2, 3606, Note_on_c, 0, 48, 0
2, 3609, Note_on_c, 0, 41, 0
2, 3631, Note_on_c, 0, 48, 58
2, 3662, Note_on_c, 0, 72, 73
2, 3662, Note_on_c, 0, 60, 61
2, 3664, Note_on_c, 0, 48, 0
2, 3689, Note_on_c, 0, 60, 0
2, 3691, Note_on_c, 0, 48, 62
2, 3703, Note_on_c, 0, 72, 0
2, 3721, Note_on_c, 0, 58, 62
2, 3723, Note_on_c, 0, 48, 0
2, 3725, Note_on_c, 0, 73, 79
2, 3733, Control_c, 0, 64, 0
2, 3746, Note_on_c, 0, 58, 0
2, 3751, Note_on_c, 0, 48, 64
2, 3758, Note_on_c, 0, 73, 0
2, 3782, Note_on_c, 0, 41, 64
2, 3783, Control_c, 0, 64, 127
2, 3784, Note_on_c, 0, 72, 79
2, 3785, Note_on_c, 0, 48, 0
2, 3797, Note_on_c, 0, 41, 0
2, 3812, Note_on_c, 0, 48, 65
2, 3818, Note_on_c, 0, 72, 0
2, 3842, Note_on_c, 0, 48, 0
2, 3842, Note_on_c, 0, 56, 66
2, 3845, Note_on_c, 0, 80, 79
2, 3868, Note_on_c, 0, 56, 0
2, 3870, Note_on_c, 0, 48, 68
2, 3872, Note_on_c, 0, 80, 0
2, 3901, Note_on_c, 0, 79, 84
2, 3901, Note_on_c, 0, 58, 68
2, 3904, Note_on_c, 0, 48, 0
2, 3912, Control_c, 0, 64, 0
2, 3928, Note_on_c, 0, 58, 0
2, 3929, Note_on_c, 0, 48, 66
2, 3930, Note_on_c, 0, 79, 0
2, 3952, Note_on_c, 0, 48, 0
2, 3955, Control_c, 0, 64, 127
2, 3961, Note_on_c, 0, 41, 63
2, 3962, Note_on_c, 0, 77, 83
2, 3990, Note_on_c, 0, 41, 0
2, 3991, Note_on_c, 0, 48, 66
2, 3998, Note_on_c, 0, 77, 0
2, 4021, Note_on_c, 0, 56, 63
2, 4024, Note_on_c, 0, 72, 76
2, 4026, Note_on_c, 0, 48, 0
2, 4051, Note_on_c, 0, 48, 64
2, 4052, Note_on_c, 0, 56, 0
2, 4060, Note_on_c, 0, 72, 0
2, 4080, Note_on_c, 0, 48, 0
2, 4081, Note_on_c, 0, 73, 79
2, 4081, Note_on_c, 0, 58, 61
2, 4087, Control_c, 0, 64, 0
2, 4109, Note_on_c, 0, 58, 0
2, 4109, Note_on_c, 0, 48, 62
2, 4116, Note_on_c, 0, 73, 0
2, 4127, Control_c, 0, 64, 127
2, 4141, Note_on_c, 0, 72, 83
2, 4142, Note_on_c, 0, 41, 63
2, 4148, Note_on_c, 0, 48, 0
2, 4161, Note_on_c, 0, 41, 0
2, 4173, Note_on_c, 0, 48, 67
2, 4176, Note_on_c, 0, 72, 0
2, 4202, Note_on_c, 0, 68, 83
2, 4203, Note_on_c, 0, 56, 67
2, 4208, Note_on_c, 0, 48, 0
2, 4229, Note_on_c, 0, 56, 0
2, 4231, Note_on_c, 0, 48, 65
2, 4246, Note_on_c, 0, 68, 0
2, 4262, Note_on_c, 0, 60, 71
2, 4265, Note_on_c, 0, 48, 0
2, 4267, Note_on_c, 0, 65, 79
2, 4272, Control_c, 0, 64, 0
2, 4289, Note_on_c, 0, 60, 0
2, 4291, Note_on_c, 0, 48, 68
2, 4301, Note_on_c, 0, 65, 0
2, 4308, Note_on_c, 0, 48, 0
2, 4322, Note_on_c, 0, 41, 75
2, 4326, Note_on_c, 0, 60, 93
2, 4327, Control_c, 0, 64, 127
2, 4352, Note_on_c, 0, 41, 0
2, 4353, Note_on_c, 0, 48, 69
2, 4383, Note_on_c, 0, 55, 79
2, 4385, Note_on_c, 0, 48, 0
2, 4410, Note_on_c, 0, 55, 0
2, 4412, Note_on_c, 0, 48, 73
2, 4442, Note_on_c, 0, 56, 76
2, 4444, Note_on_c, 0, 48, 0
2, 4469, Note_on_c, 0, 56, 0
2, 4472, Note_on_c, 0, 48, 63
2, 4491, Control_c, 0, 64, 0
2, 4501, Note_on_c, 0, 48, 0
2, 4502, Note_on_c, 0, 41, 77
2, 4515, Control_c, 0, 64, 127
2, 4533, Note_on_c, 0, 41, 0
2, 4533, Note_on_c, 0, 48, 77
2, 4562, Note_on_c, 0, 58, 75
2, 4569, Note_on_c, 0, 48, 0
2, 4591, Note_on_c, 0, 58, 0
2, 4592, Note_on_c, 0, 48, 72
2, 4612, Note_on_c, 0, 60, 0
2, 4622, Note_on_c, 0, 55, 70
2, 4623, Note_on_c, 0, 48, 0
2, 4647, Control_c, 0, 64, 0
2, 4651, Note_on_c, 0, 55, 0
2, 4652, Note_on_c, 0, 48, 69
2, 4675, Note_on_c, 0, 48, 0
2, 4681, Note_on_c, 0, 41, 51
2, 4707, Control_c, 0, 64, 127
2, 4710, Note_on_c, 0, 41, 0
2, 4712, Note_on_c, 0, 48, 52
2, 4741, Note_on_c, 0, 48, 0
2, 4742, Note_on_c, 0, 56, 53
2, 4743, Note_on_c, 0, 65, 61
2, 4769, Note_on_c, 0, 56, 0
2, 4771, Note_on_c, 0, 48, 56
2, 4783, Note_on_c, 0, 65, 0
2, 4795, Note_on_c, 0, 48, 0
2, 4801, Note_on_c, 0, 58, 57
2, 4802, Note_on_c, 0, 67, 63
2, 4822, Control_c, 0, 64, 0
2, 4829, Note_on_c, 0, 48, 57
2, 4830, Note_on_c, 0, 58, 0
2, 4836, Note_on_c, 0, 67, 0
2, 4862, Note_on_c, 0, 41, 55
2, 4868, Note_on_c, 0, 48, 0
2, 4868, Control_c, 0, 64, 127
2, 4883, Note_on_c, 0, 41, 0
2, 4892, Note_on_c, 0, 48, 54
2, 4922, Note_on_c, 0, 60, 52
2, 4924, Note_on_c, 0, 48, 0
2, 4928, Note_on_c, 0, 68, 59
2, 4948, Note_on_c, 0, 60, 0
2, 4951, Note_on_c, 0, 48, 55
2, 4962, Note_on_c, 0, 68, 0
2, 4983, Note_on_c, 0, 61, 54
2, 4986, Note_on_c, 0, 70, 60
2, 4988, Note_on_c, 0, 48, 0
2, 4998, Control_c, 0, 64, 0
2, 5006, Note_on_c, 0, 61, 0
2, 5012, Note_on_c, 0, 48, 57
2, 5017, Note_on_c, 0, 70, 0
2, 5040, Note_on_c, 0, 41, 54
2, 5045, Control_c, 0, 64, 127
2, 5050, Note_on_c, 0, 48, 0
2, 5051, Note_on_c, 0, 41, 0
2, 5072, Note_on_c, 0, 48, 56
2, 5098, Note_on_c, 0, 48, 0
2, 5102, Note_on_c, 0, 60, 58
2, 5104, Note_on_c, 0, 72, 62
2, 5125, Note_on_c, 0, 60, 0
2, 5131, Note_on_c, 0, 48, 58
2, 5140, Note_on_c, 0, 72, 0
2, 5159, Note_on_c, 0, 48, 0
2, 5161, Note_on_c, 0, 73, 65
2, 5161, Note_on_c, 0, 58, 60
2, 5172, Control_c, 0, 64, 0
2, 5187, Note_on_c, 0, 58, 0
2, 5191, Note_on_c, 0, 48, 62
2, 5196, Note_on_c, 0, 73, 0
2, 5217, Control_c, 0, 64, 127
2, 5220, Note_on_c, 0, 72, 71
2, 5222, Note_on_c, 0, 41, 65
2, 5228, Note_on_c, 0, 48, 0
2, 5242, Note_on_c, 0, 41, 0
2, 5252, Note_on_c, 0, 72, 0
2, 5252, Note_on_c, 0, 48, 69
2, 5281, Note_on_c, 0, 48, 0
2, 5282, Note_on_c, 0, 56, 69
2, 5284, Note_on_c, 0, 84, 75
2, 5306, Note_on_c, 0, 56, 0
2, 5311, Note_on_c, 0, 48, 69
2, 5315, Note_on_c, 0, 84, 0
2, 5341, Note_on_c, 0, 80, 84
2, 5341, Note_on_c, 0, 60, 72
2, 5342, Note_on_c, 0, 48, 0
2, 5349, Control_c, 0, 64, 0
2, 5369, Note_on_c, 0, 48, 75
2, 5372, Note_on_c, 0, 60, 0
2, 5372, Note_on_c, 0, 80, 0
2, 5389, Note_on_c, 0, 48, 0
2, 5391, Control_c, 0, 64, 127
2, 5399, Note_on_c, 0, 79, 90
2, 5400, Note_on_c, 0, 41, 75
2, 5426, Note_on_c, 0, 41, 0
2, 5429, Note_on_c, 0, 48, 79
2, 5434, Note_on_c, 0, 79, 0
2, 5458, Note_on_c, 0, 72, 90
2, 5461, Note_on_c, 0, 58, 79
2, 5463, Note_on_c, 0, 48, 0
2, 5488, Note_on_c, 0, 58, 0
2, 5490, Note_on_c, 0, 48, 76
2, 5494, Note_on_c, 0, 72, 0
2, 5518, Note_on_c, 0, 73, 90
2, 5521, Note_on_c, 0, 48, 0
2, 5521, Note_on_c, 0, 55, 74
2, 5540, Control_c, 0, 64, 0
2, 5551, Note_on_c, 0, 48, 71
2, 5552, Note_on_c, 0, 55, 0
2, 5553, Note_on_c, 0, 73, 0
2, 5574, Control_c, 0, 64, 127
2, 5577, Note_on_c, 0, 72, 86
2, 5582, Note_on_c, 0, 41, 73
2, 5584, Note_on_c, 0, 48, 0
2, 5607, Note_on_c, 0, 41, 0
2, 5607, Note_on_c, 0, 72, 0
2, 5612, Note_on_c, 0, 48, 79
2, 5636, Note_on_c, 0, 48, 0
2, 5637, Note_on_c, 0, 67, 87
2, 5642, Note_on_c, 0, 58, 83
2, 5657, Note_on_c, 0, 58, 0
2, 5669, Note_on_c, 0, 67, 0
2, 5671, Note_on_c, 0, 48, 82
2, 5701, Note_on_c, 0, 60, 89
2, 5702, Note_on_c, 0, 55, 83
2, 5704, Note_on_c, 0, 48, 0
2, 5723, Control_c, 0, 64, 0
2, 5730, Note_on_c, 0, 55, 0
2, 5731, Note_on_c, 0, 48, 76
2, 5734, Note_on_c, 0, 60, 0
2, 5747, Note_on_c, 0, 48, 0
2, 5756, Control_c, 0, 64, 127
2, 5762, Note_on_c, 0, 65, 100
2, 5762, Note_on_c, 0, 41, 79
2, 5788, Note_on_c, 0, 41, 0
2, 5792, Note_on_c, 0, 48, 82
2, 5822, Note_on_c, 0, 56, 73
2, 5826, Note_on_c, 0, 48, 0
2, 5851, Note_on_c, 0, 48, 79
2, 5853, Note_on_c, 0, 56, 0
2, 5881, Note_on_c, 0, 60, 72
2, 5884, Note_on_c, 0, 48, 0
2, 5910, Note_on_c, 0, 60, 0
2, 5911, Note_on_c, 0, 48, 77
2, 5923, Control_c, 0, 64, 0
2, 5941, Note_on_c, 0, 41, 77
2, 5943, Control_c, 0, 64, 127
2, 5948, Note_on_c, 0, 48, 0
2, 5959, Note_on_c, 0, 41, 0
2, 5971, Note_on_c, 0, 48, 76
2, 6001, Note_on_c, 0, 56, 70
2, 6006, Note_on_c, 0, 48, 0
2, 6027, Note_on_c, 0, 56, 0
2, 6029, Note_on_c, 0, 48, 70
2, 6051, Note_on_c, 0, 65, 0
2, 6061, Note_on_c, 0, 60, 65
2, 6063, Note_on_c, 0, 48, 0
2, 6089, Note_on_c, 0, 60, 0
2, 6089, Note_on_c, 0, 48, 64
2, 6103, Control_c, 0, 64, 0
2, 6107, Note_on_c, 0, 48, 0
2, 6119, Note_on_c, 0, 68, 74
2, 6121, Note_on_c, 0, 41, 57
2, 6135, Control_c, 0, 64, 127
2, 6152, Note_on_c, 0, 50, 57
2, 6155, Note_on_c, 0, 41, 0
2, 6182, Note_on_c, 0, 56, 58
2, 6187, Note_on_c, 0, 50, 0
2, 6210, Note_on_c, 0, 56, 0
2, 6212, Note_on_c, 0, 50, 55
2, 6241, Note_on_c, 0, 50, 0
2, 6242, Note_on_c, 0, 58, 56
2, 6271, Note_on_c, 0, 58, 0
2, 6272, Note_on_c, 0, 50, 57
2, 6275, Note_on_c, 0, 68, 0
2, 6286, Control_c, 0, 64, 0
2, 6290, Note_on_c, 0, 70, 67
2, 6297, Note_on_c, 0, 68, 75
2, 6302, Note_on_c, 0, 41, 56
2, 6304, Note_on_c, 0, 70, 0
2, 6304, Note_on_c, 0, 50, 0
2, 6306, Control_c, 0, 64, 127
2, 6329, Note_on_c, 0, 41, 0
2, 6332, Note_on_c, 0, 46, 56
2, 6361, Note_on_c, 0, 67, 81
2, 6362, Note_on_c, 0, 56, 56
2, 6365, Note_on_c, 0, 68, 0
2, 6366, Note_on_c, 0, 46, 0
2, 6391, Note_on_c, 0, 46, 61
2, 6395, Note_on_c, 0, 56, 0
2, 6422, Note_on_c, 0, 58, 63
2, 6426, Note_on_c, 0, 46, 0
2, 6448, Note_on_c, 0, 68, 76
2, 6450, Control_c, 0, 64, 0
2, 6451, Note_on_c, 0, 46, 64
2, 6454, Note_on_c, 0, 58, 0
2, 6457, Note_on_c, 0, 67, 0
2, 6475, Note_on_c, 0, 46, 0
2, 6482, Note_on_c, 0, 39, 64
2, 6484, Note_on_c, 0, 70, 80
2, 6484, Control_c, 0, 64, 127
2, 6489, Note_on_c, 0, 68, 0
2, 6512, Note_on_c, 0, 46, 65
2, 6514, Note_on_c, 0, 39, 0
2, 6541, Note_on_c, 0, 46, 0
2, 6542, Note_on_c, 0, 54, 69
2, 6569, Note_on_c, 0, 54, 0
2, 6571, Note_on_c, 0, 46, 69
2, 6603, Note_on_c, 0, 58, 70
2, 6607, Note_on_c, 0, 46, 0
2, 6624, Note_on_c, 0, 58, 0
2, 6632, Note_on_c, 0, 46, 76
2, 6640, Control_c, 0, 64, 0
2, 6662, Note_on_c, 0, 46, 0
2, 6663, Note_on_c, 0, 70, 0
2, 6663, Note_on_c, 0, 39, 77
2, 6664, Note_on_c, 0, 72, 89
2, 6670, Control_c, 0, 64, 127
2, 6692, Note_on_c, 0, 44, 76
2, 6696, Note_on_c, 0, 39, 0
2, 6722, Note_on_c, 0, 54, 75
2, 6726, Note_on_c, 0, 44, 0
2, 6748, Note_on_c, 0, 54, 0
2, 6751, Note_on_c, 0, 44, 75
2, 6782, Note_on_c, 0, 44, 0
2, 6782, Note_on_c, 0, 56, 75
2, 6805, Control_c, 0, 64, 0
2, 6810, Note_on_c, 0, 56, 0
2, 6811, Note_on_c, 0, 44, 77
2, 6833, Note_on_c, 0, 44, 0
2, 6840, Note_on_c, 0, 72, 0
2, 6840, Note_on_c, 0, 37, 87
2, 6841, Control_c, 0, 64, 127
2, 6849, Note_on_c, 0, 73, 91
2, 6869, Note_on_c, 0, 37, 0
2, 6870, Note_on_c, 0, 44, 87
2, 6877, Note_on_c, 0, 73, 0
2, 6902, Note_on_c, 0, 53, 85
2, 6905, Note_on_c, 0, 44, 0
2, 6906, Note_on_c, 0, 68, 89
2, 6931, Note_on_c, 0, 53, 0
2, 6931, Note_on_c, 0, 44, 89
2, 6935, Note_on_c, 0, 68, 0
2, 6959, Note_on_c, 0, 44, 0
2, 6961, Note_on_c, 0, 56, 87
2, 6962, Note_on_c, 0, 70, 87
2, 6964, Control_c, 0, 64, 0
2, 6989, Note_on_c, 0, 56, 0
2, 6989, Note_on_c, 0, 44, 89
2, 6992, Note_on_c, 0, 70, 0
2, 7020, Control_c, 0, 64, 127
2, 7022, Note_on_c, 0, 37, 89
2, 7023, Note_on_c, 0, 68, 85
2, 7029, Note_on_c, 0, 44, 0
2, 7048, Note_on_c, 0, 37, 0
2, 7052, Note_on_c, 0, 44, 83
2, 7054, Note_on_c, 0, 68, 0
2, 7081, Note_on_c, 0, 53, 82
2, 7084, Note_on_c, 0, 65, 88
2, 7087, Note_on_c, 0, 44, 0
2, 7106, Note_on_c, 0, 53, 0
2, 7108, Note_on_c, 0, 65, 0
2, 7111, Note_on_c, 0, 44, 84
2, 7133, Control_c, 0, 64, 0
2, 7141, Note_on_c, 0, 56, 81
2, 7142, Note_on_c, 0, 44, 0
2, 7142, Note_on_c, 0, 61, 86
2, 7164, Note_on_c, 0, 61, 0
2, 7171, Note_on_c, 0, 44, 84
2, 7174, Note_on_c, 0, 56, 0
2, 7187, Note_on_c, 0, 44, 0
2, 7197, Control_c, 0, 64, 127
2, 7200, Note_on_c, 0, 36, 85
2, 7205, Note_on_c, 0, 56, 101
2, 7225, Note_on_c, 0, 36, 0
2, 7230, Note_on_c, 0, 44, 82
2, 7262, Note_on_c, 0, 44, 0
2, 7262, Note_on_c, 0, 53, 82
2, 7291, Note_on_c, 0, 53, 0
2, 7292, Note_on_c, 0, 44, 82
2, 7313, Note_on_c, 0, 56, 0
2, 7317, Note_on_c, 0, 44, 0
2, 7322, Note_on_c, 0, 56, 82
2, 7341, Control_c, 0, 64, 0
2, 7349, Note_on_c, 0, 56, 0
2, 7352, Note_on_c, 0, 44, 85
2, 7363, Control_c, 0, 64, 127
2, 7381, Note_on_c, 0, 44, 0
2, 7382, Note_on_c, 0, 36, 84
2, 7397, Note_on_c, 0, 36, 0
2, 7412, Note_on_c, 0, 44, 80
2, 7441, Note_on_c, 0, 44, 0
2, 7441, Note_on_c, 0, 53, 81
2, 7469, Note_on_c, 0, 53, 0
2, 7469, Note_on_c, 0, 44, 77
2, 7496, Control_c, 0, 64, 0
2, 7499, Note_on_c, 0, 44, 0
2, 7501, Note_on_c, 0, 63, 80
2, 7501, Note_on_c, 0, 56, 77
2, 7527, Note_on_c, 0, 56, 0
2, 7529, Note_on_c, 0, 44, 69
2, 7552, Note_on_c, 0, 44, 0
2, 7561, Note_on_c, 0, 35, 66
2, 7562, Note_on_c, 0, 75, 76
2, 7564, Note_on_c, 0, 63, 0
2, 7564, Control_c, 0, 64, 127
2, 7588, Note_on_c, 0, 35, 0
2, 7591, Note_on_c, 0, 42, 63
2, 7622, Note_on_c, 0, 51, 66
2, 7625, Note_on_c, 0, 42, 0
2, 7640, Note_on_c, 0, 51, 0
2, 7649, Note_on_c, 0, 42, 66
2, 7682, Note_on_c, 0, 42, 0
2, 7682, Note_on_c, 0, 54, 66
2, 7702, Control_c, 0, 64, 0
2, 7703, Note_on_c, 0, 75, 0
2, 7710, Note_on_c, 0, 54, 0
2, 7711, Note_on_c, 0, 42, 66
2, 7729, Note_on_c, 0, 75, 69
2, 7738, Note_on_c, 0, 77, 69
2, 7738, Control_c, 0, 64, 127
2, 7741, Note_on_c, 0, 35, 64
2, 7742, Note_on_c, 0, 75, 0
2, 7745, Note_on_c, 0, 42, 0
2, 7754, Note_on_c, 0, 75, 72
2, 7757, Note_on_c, 0, 77, 0
2, 7761, Note_on_c, 0, 35, 0
2, 7771, Note_on_c, 0, 42, 64
2, 7800, Note_on_c, 0, 42, 0
2, 7801, Note_on_c, 0, 51, 66
2, 7808, Note_on_c, 0, 74, 74
2, 7809, Note_on_c, 0, 75, 0
2, 7829, Note_on_c, 0, 42, 61
2, 7831, Note_on_c, 0, 51, 0
2, 7860, Control_c, 0, 64, 0
2, 7861, Note_on_c, 0, 54, 60
2, 7862, Note_on_c, 0, 42, 0
2, 7863, Note_on_c, 0, 75, 78
2, 7869, Note_on_c, 0, 74, 0
2, 7889, Note_on_c, 0, 42, 61
2, 7891, Note_on_c, 0, 54, 0
2, 7913, Note_on_c, 0, 42, 0
2, 7919, Control_c, 0, 64, 127
2, 7920, Note_on_c, 0, 35, 61
2, 7923, Note_on_c, 0, 77, 82
2, 7930, Note_on_c, 0, 75, 0
2, 7950, Note_on_c, 0, 44, 64
2, 7951, Note_on_c, 0, 35, 0
2, 7982, Note_on_c, 0, 44, 0
2, 7982, Note_on_c, 0, 49, 65
2, 8008, Note_on_c, 0, 49, 0
2, 8011, Note_on_c, 0, 44, 70
2, 8014, Note_on_c, 0, 44, 0
2, 8042, Note_on_c, 0, 56, 69
2, 8061, Control_c, 0, 64, 0
2, 8071, Note_on_c, 0, 44, 69
2, 8076, Note_on_c, 0, 56, 0
2, 8086, Note_on_c, 0, 44, 0
2, 8098, Control_c, 0, 64, 127
2, 8101, Note_on_c, 0, 34, 69
2, 8104, Note_on_c, 0, 78, 79
2, 8109, Note_on_c, 0, 77, 0
2, 8131, Note_on_c, 0, 42, 68
2, 8132, Note_on_c, 0, 34, 0
2, 8155, Note_on_c, 0, 42, 0
2, 8161, Note_on_c, 0, 49, 65
2, 8191, Note_on_c, 0, 42, 64
2, 8193, Note_on_c, 0, 49, 0
2, 8221, Note_on_c, 0, 42, 0
2, 8222, Note_on_c, 0, 54, 65
2, 8247, Control_c, 0, 64, 0
2, 8249, Note_on_c, 0, 54, 0
2, 8251, Note_on_c, 0, 42, 65
2, 8263, Note_on_c, 0, 78, 0
2, 8275, Note_on_c, 0, 42, 0
2, 8281, Note_on_c, 0, 34, 70
2, 8286, Control_c, 0, 64, 127
2, 8312, Note_on_c, 0, 42, 71
2, 8313, Note_on_c, 0, 34, 0
2, 8338, Note_on_c, 0, 42, 0
2, 8338, Note_on_c, 0, 73, 74
2, 8342, Note_on_c, 0, 49, 73
2, 8372, Note_on_c, 0, 42, 70
2, 8376, Note_on_c, 0, 73, 0
2, 8378, Note_on_c, 0, 49, 0
2, 8399, Note_on_c, 0, 75, 75
2, 8403, Note_on_c, 0, 54, 69
2, 8408, Note_on_c, 0, 42, 0
2, 8424, Note_on_c, 0, 54, 0
2, 8426, Control_c, 0, 64, 0
2, 8433, Note_on_c, 0, 42, 74
2, 8439, Note_on_c, 0, 75, 0
2, 8456, Control_c, 0, 64, 127
2, 8460, Note_on_c, 0, 73, 78
2, 8463, Note_on_c, 0, 34, 73
2, 8464, Note_on_c, 0, 42, 0
2, 8488, Note_on_c, 0, 34, 0
2, 8491, Note_on_c, 0, 73, 0
2, 8493, Note_on_c, 0, 42, 77
2, 8518, Note_on_c, 0, 70, 78
2, 8520, Note_on_c, 0, 49, 77
2, 8521, Note_on_c, 0, 42, 0
2, 8548, Note_on_c, 0, 49, 0
2, 8551, Note_on_c, 0, 70, 0
2, 8553, Note_on_c, 0, 42, 78
2, 8577, Note_on_c, 0, 66, 78
2, 8582, Note_on_c, 0, 42, 0
2, 8583, Note_on_c, 0, 54, 78
2, 8594, Control_c, 0, 64, 0
2, 8603, Note_on_c, 0, 54, 0
2, 8606, Note_on_c, 0, 66, 0
2, 8613, Note_on_c, 0, 42, 81
2, 8632, Note_on_c, 0, 42, 0
2, 8635, Control_c, 0, 64, 127
2, 8641, Note_on_c, 0, 61, 84
2, 8642, Note_on_c, 0, 32, 83
2, 8672, Note_on_c, 0, 32, 0
2, 8672, Note_on_c, 0, 41, 80
2, 8674, Note_on_c, 0, 61, 0
2, 8696, Note_on_c, 0, 41, 0
2, 8701, Note_on_c, 0, 73, 85
2, 8702, Note_on_c, 0, 49, 82
2, 8726, Note_on_c, 0, 49, 0
2, 8731, Note_on_c, 0, 41, 86
2, 8740, Note_on_c, 0, 73, 0
2, 8759, Note_on_c, 0, 41, 0
2, 8762, Note_on_c, 0, 53, 85
2, 8763, Note_on_c, 0, 75, 83
2, 8784, Note_on_c, 0, 53, 0
2, 8787, Control_c, 0, 64, 0
2, 8791, Note_on_c, 0, 41, 85
2, 8794, Note_on_c, 0, 75, 0
2, 8817, Note_on_c, 0, 73, 84
2, 8817, Control_c, 0, 64, 127
2, 8818, Note_on_c, 0, 41, 0
2, 8823, Note_on_c, 0, 32, 85
2, 8841, Note_on_c, 0, 32, 0
2, 8852, Note_on_c, 0, 40, 86
2, 8859, Note_on_c, 0, 73, 0
2, 8876, Note_on_c, 0, 40, 0
2, 8881, Note_on_c, 0, 68, 87
2, 8881, Note_on_c, 0, 49, 89
2, 8899, Note_on_c, 0, 49, 0
2, 8911, Note_on_c, 0, 40, 91
2, 8918, Note_on_c, 0, 68, 0
2, 8940, Note_on_c, 0, 64, 92
2, 8941, Note_on_c, 0, 40, 0
2, 8942, Note_on_c, 0, 52, 88
2, 8962, Note_on_c, 0, 52, 0
2, 8962, Control_c, 0, 64, 0
2, 8969, Note_on_c, 0, 40, 90
2, 8976, Note_on_c, 0, 64, 0
2, 8985, Note_on_c, 0, 40, 0
2, 8999, Control_c, 0, 64, 127
2, 9001, Note_on_c, 0, 61, 98
2, 9001, Note_on_c, 0, 31, 101
2, 9025, Note_on_c, 0, 31, 0
2, 9032, Note_on_c, 0, 40, 80
2, 9036, Note_on_c, 0, 61, 0
2, 9062, Note_on_c, 0, 49, 82
2, 9065, Note_on_c, 0, 73, 89
2, 9066, Note_on_c, 0, 61, 89
2, 9068, Note_on_c, 0, 40, 0
2, 9088, Note_on_c, 0, 49, 0
2, 9091, Note_on_c, 0, 40, 84
2, 9102, Note_on_c, 0, 61, 0
2, 9114, Note_on_c, 0, 73, 0
2, 9117, Note_on_c, 0, 40, 0
2, 9121, Note_on_c, 0, 52, 81
2, 9122, Note_on_c, 0, 75, 94
2, 9124, Note_on_c, 0, 63, 92
2, 9129, Control_c, 0, 64, 0
2, 9143, Note_on_c, 0, 52, 0
2, 9151, Note_on_c, 0, 63, 0
2, 9152, Note_on_c, 0, 40, 80
2, 9162, Note_on_c, 0, 75, 0
2, 9174, Note_on_c, 0, 40, 0
2, 9176, Control_c, 0, 64, 127
2, 9181, Note_on_c, 0, 34, 97
2, 9208, Note_on_c, 0, 34, 0
2, 9211, Note_on_c, 0, 43, 79
2, 9241, Note_on_c, 0, 76, 92
2, 9242, Note_on_c, 0, 64, 92
2, 9242, Note_on_c, 0, 52, 79
2, 9244, Note_on_c, 0, 43, 0
2, 9264, Note_on_c, 0, 64, 0
2, 9268, Note_on_c, 0, 52, 0
2, 9271, Note_on_c, 0, 43, 80
2, 9286, Note_on_c, 0, 76, 0
2, 9296, Note_on_c, 0, 78, 91
2, 9299, Note_on_c, 0, 66, 91
2, 9301, Note_on_c, 0, 55, 79
2, 9304, Note_on_c, 0, 43, 0
2, 9309, Note_on_c, 0, 66, 0
2, 9321, Note_on_c, 0, 78, 0
2, 9331, Note_on_c, 0, 43, 82
2, 9331, Control_c, 0, 64, 0
2, 9332, Note_on_c, 0, 55, 0
2, 9353, Note_on_c, 0, 43, 0
2, 9360, Control_c, 0, 64, 127
2, 9361, Note_on_c, 0, 35, 100
2, 9387, Note_on_c, 0, 35, 0
2, 9391, Note_on_c, 0, 43, 83
2, 9421, Note_on_c, 0, 52, 87
2, 9423, Note_on_c, 0, 43, 0
2, 9424, Note_on_c, 0, 67, 95
2, 9424, Note_on_c, 0, 79, 95
2, 9449, Note_on_c, 0, 43, 80
2, 9451, Note_on_c, 0, 52, 0
2, 9458, Note_on_c, 0, 67, 0
2, 9473, Note_on_c, 0, 79, 0
2, 9479, Note_on_c, 0, 43, 0
2, 9481, Note_on_c, 0, 81, 95
2, 9481, Note_on_c, 0, 55, 88
2, 9482, Note_on_c, 0, 69, 95
2, 9509, Note_on_c, 0, 69, 0
2, 9509, Note_on_c, 0, 43, 87
2, 9513, Control_c, 0, 64, 0
2, 9514, Note_on_c, 0, 55, 0
2, 9525, Note_on_c, 0, 81, 0
2, 9532, Note_on_c, 0, 43, 0
2, 9540, Note_on_c, 0, 36, 103
2, 9546, Control_c, 0, 64, 127
2, 9571, Note_on_c, 0, 43, 81
2, 9573, Note_on_c, 0, 36, 0
2, 9600, Note_on_c, 0, 43, 0
2, 9601, Note_on_c, 0, 52, 91
2, 9607, Note_on_c, 0, 82, 91
2, 9608, Note_on_c, 0, 70, 91
2, 9631, Note_on_c, 0, 43, 80
2, 9633, Note_on_c, 0, 52, 0
2, 9640, Note_on_c, 0, 70, 0
2, 9656, Note_on_c, 0, 82, 0
2, 9662, Note_on_c, 0, 55, 89
2, 9665, Note_on_c, 0, 43, 0
2, 9665, Note_on_c, 0, 84, 95
2, 9666, Note_on_c, 0, 72, 95
2, 9686, Note_on_c, 0, 72, 0
2, 9688, Note_on_c, 0, 84, 0
2, 9691, Note_on_c, 0, 43, 82
2, 9695, Note_on_c, 0, 55, 0
2, 9704, Control_c, 0, 64, 0
2, 9714, Note_on_c, 0, 43, 0
2, 9721, Note_on_c, 0, 41, 101
2, 9725, Note_on_c, 0, 85, 93
2, 9726, Note_on_c, 0, 73, 93
2, 9729, Control_c, 0, 64, 127
2, 9746, Note_on_c, 0, 41, 0
2, 9752, Note_on_c, 0, 49, 79
2, 9760, Note_on_c, 0, 73, 0
2, 9777, Note_on_c, 0, 85, 0
2, 9781, Note_on_c, 0, 58, 83
2, 9784, Note_on_c, 0, 87, 93
2, 9784, Note_on_c, 0, 75, 93
2, 9787, Note_on_c, 0, 49, 0
2, 9812, Note_on_c, 0, 49, 80
2, 9813, Note_on_c, 0, 75, 0
2, 9814, Note_on_c, 0, 58, 0
2, 9816, Note_on_c, 0, 87, 0
2, 9838, Control_c, 0, 64, 0
2, 9841, Note_on_c, 0, 88, 94
2, 9842, Note_on_c, 0, 43, 105
2, 9843, Note_on_c, 0, 76, 94
2, 9856, Note_on_c, 0, 49, 0
2, 9858, Control_c, 0, 64, 127
2, 9869, Note_on_c, 0, 43, 0
2, 9872, Note_on_c, 0, 52, 83
2, 9877, Note_on_c, 0, 76, 0
2, 9892, Note_on_c, 0, 88, 0
2, 9901, Note_on_c, 0, 61, 82
2, 9905, Note_on_c, 0, 90, 91
2, 9906, Note_on_c, 0, 78, 91
2, 9907, Note_on_c, 0, 52, 0
2, 9930, Note_on_c, 0, 78, 0
2, 9931, Note_on_c, 0, 61, 0
2, 9931, Note_on_c, 0, 52, 83
2, 9939, Note_on_c, 0, 90, 0
2, 9942, Control_c, 0, 64, 0
2, 9955, Note_on_c, 0, 52, 0
2, 9962, Note_on_c, 0, 79, 90
2, 9962, Note_on_c, 0, 46, 105
2, 9964, Note_on_c, 0, 91, 90
2, 9969, Control_c, 0, 64, 127
2, 9987, Note_on_c, 0, 46, 0
2, 9992, Note_on_c, 0, 55, 75
2, 10007, Note_on_c, 0, 79, 0
2, 10011, Note_on_c, 0, 91, 0
2, 10021, Note_on_c, 0, 64, 86
2, 10025, Note_on_c, 0, 55, 0
2, 10025, Note_on_c, 0, 81, 94
2, 10026, Note_on_c, 0, 93, 94
2, 10051, Note_on_c, 0, 55, 80
2, 10052, Note_on_c, 0, 64, 0
2, 10056, Control_c, 0, 64, 0
2, 10057, Note_on_c, 0, 81, 0
2, 10058, Note_on_c, 0, 93, 0
2, 10073, Note_on_c, 0, 55, 0
2, 10081, Note_on_c, 0, 82, 105
2, 10081, Note_on_c, 0, 49, 100
2, 10081, Control_c, 0, 64, 127
2, 10082, Note_on_c, 0, 94, 105
2, 10097, Note_on_c, 0, 82, 0
2, 10103, Note_on_c, 0, 94, 0
2, 10108, Note_on_c, 0, 49, 0
2, 10111, Note_on_c, 0, 96, 104
2, 10111, Note_on_c, 0, 58, 84
2, 10113, Note_on_c, 0, 84, 104
2, 10124, Note_on_c, 0, 84, 0
2, 10142, Note_on_c, 0, 97, 106
2, 10142, Note_on_c, 0, 67, 71
2, 10143, Note_on_c, 0, 85, 106
2, 10147, Note_on_c, 0, 58, 0
2, 10151, Note_on_c, 0, 96, 0
2, 10171, Note_on_c, 0, 58, 76
2, 10172, Note_on_c, 0, 67, 0
2, 10183, Control_c, 0, 64, 0
2, 10190, Note_on_c, 0, 58, 0
2, 10201, Note_on_c, 0, 52, 97
2, 10211, Control_c, 0, 64, 127
2, 10230, Note_on_c, 0, 52, 0
2, 10231, Note_on_c, 0, 61, 84
2, 10237, Note_on_c, 0, 97, 0
2, 10244, Note_on_c, 0, 85, 0
2, 10258, Note_on_c, 0, 61, 0
2, 10262, Note_on_c, 0, 70, 89
2, 10292, Note_on_c, 0, 61, 75
2, 10298, Note_on_c, 0, 70, 0
2, 10321, Note_on_c, 0, 61, 0
2, 10322, Note_on_c, 0, 70, 77
2, 10352, Note_on_c, 0, 61, 83
2, 10355, Note_on_c, 0, 70, 0
2, 10381, Note_on_c, 0, 70, 74
2, 10382, Note_on_c, 0, 61, 0
2, 10386, Control_c, 0, 64, 0
2, 10408, Control_c, 0, 64, 127
2, 10411, Note_on_c, 0, 61, 84
2, 10415, Note_on_c, 0, 70, 0
2, 10423, Note_on_c, 0, 61, 0
2, 10440, Note_on_c, 0, 73, 90
2, 10440, Note_on_c, 0, 85, 90
2, 10441, Note_on_c, 0, 48, 79
2, 10472, Note_on_c, 0, 48, 0
2, 10472, Note_on_c, 0, 73, 0
2, 10472, Note_on_c, 0, 56, 76
2, 10475, Note_on_c, 0, 85, 0
2, 10500, Note_on_c, 0, 85, 92
2, 10500, Note_on_c, 0, 73, 92
2, 10502, Note_on_c, 0, 65, 70
2, 10510, Note_on_c, 0, 56, 0
2, 10527, Note_on_c, 0, 73, 0
2, 10532, Note_on_c, 0, 56, 81
2, 10533, Note_on_c, 0, 85, 0
2, 10534, Note_on_c, 0, 65, 0
2, 10560, Note_on_c, 0, 85, 90
2, 10560, Note_on_c, 0, 73, 90
2, 10562, Note_on_c, 0, 68, 70
2, 10572, Note_on_c, 0, 56, 0
2, 10574, Control_c, 0, 64, 0
2, 10586, Note_on_c, 0, 73, 0
2, 10589, Note_on_c, 0, 85, 0
2, 10591, Note_on_c, 0, 56, 75
2, 10594, Note_on_c, 0, 68, 0
2, 10613, Note_on_c, 0, 56, 0
2, 10616, Control_c, 0, 64, 127
2, 10620, Note_on_c, 0, 85, 92
2, 10620, Note_on_c, 0, 73, 92
2, 10622, Note_on_c, 0, 48, 79
2, 10647, Note_on_c, 0, 48, 0
2, 10651, Note_on_c, 0, 55, 75
2, 10681, Note_on_c, 0, 64, 70
2, 10683, Note_on_c, 0, 55, 0
2, 10710, Note_on_c, 0, 64, 0
2, 10711, Note_on_c, 0, 55, 70
2, 10721, Note_on_c, 0, 73, 0
2, 10730, Note_on_c, 0, 85, 0
2, 10737, Control_c, 0, 64, 0
2, 10740, Note_on_c, 0, 72, 88
2, 10740, Note_on_c, 0, 84, 88
2, 10741, Note_on_c, 0, 67, 73
2, 10742, Note_on_c, 0, 55, 0
2, 10758, Note_on_c, 0, 72, 0
2, 10768, Note_on_c, 0, 84, 0
2, 10771, Note_on_c, 0, 55, 72
2, 10773, Note_on_c, 0, 67, 0
2, 10796, Note_on_c, 0, 55, 0
2, 10800, Note_on_c, 0, 48, 59
2, 10800, Note_on_c, 0, 73, 71
2, 10808, Control_c, 0, 64, 127
2, 10829, Note_on_c, 0, 73, 0
2, 10831, Note_on_c, 0, 56, 62
2, 10832, Note_on_c, 0, 48, 0
2, 10860, Note_on_c, 0, 73, 70
2, 10861, Note_on_c, 0, 56, 0
2, 10861, Note_on_c, 0, 65, 53
2, 10887, Note_on_c, 0, 65, 0
2, 10890, Note_on_c, 0, 56, 58
2, 10891, Note_on_c, 0, 73, 0
2, 10920, Note_on_c, 0, 73, 70
2, 10921, Note_on_c, 0, 56, 0
2, 10921, Note_on_c, 0, 68, 59
2, 10922, Control_c, 0, 64, 0
2, 10947, Note_on_c, 0, 68, 0
2, 10947, Note_on_c, 0, 73, 0
2, 10950, Note_on_c, 0, 56, 60
2, 10970, Control_c, 0, 64, 127
2, 10980, Note_on_c, 0, 73, 70
2, 10983, Note_on_c, 0, 48, 61
2, 10987, Note_on_c, 0, 56, 0
2, 10999, Note_on_c, 0, 48, 0
2, 11012, Note_on_c, 0, 55, 63
2, 11041, Note_on_c, 0, 64, 53
2, 11045, Note_on_c, 0, 55, 0
2, 11071, Note_on_c, 0, 55, 54
2, 11074, Note_on_c, 0, 64, 0
2, 11089, Control_c, 0, 64, 0
2, 11099, Note_on_c, 0, 55, 0
2, 11100, Note_on_c, 0, 72, 66
2, 11101, Note_on_c, 0, 67, 55
2, 11111, Note_on_c, 0, 73, 0
2, 11125, Note_on_c, 0, 72, 0
2, 11129, Note_on_c, 0, 55, 66
2, 11133, Note_on_c, 0, 67, 0
2, 11152, Note_on_c, 0, 55, 0
2, 11161, Note_on_c, 0, 82, 97
2, 11161, Note_on_c, 0, 48, 86
2, 11162, Note_on_c, 0, 70, 97
2, 11162, Control_c, 0, 64, 127
2, 11189, Note_on_c, 0, 70, 0
2, 11191, Note_on_c, 0, 53, 73
2, 11192, Note_on_c, 0, 48, 0
2, 11218, Note_on_c, 0, 80, 92
2, 11219, Note_on_c, 0, 68, 92
2, 11221, Note_on_c, 0, 61, 70
2, 11222, Note_on_c, 0, 53, 0
2, 11224, Note_on_c, 0, 82, 0
2, 11244, Note_on_c, 0, 61, 0
2, 11246, Note_on_c, 0, 68, 0
2, 11249, Note_on_c, 0, 53, 82
2, 11272, Control_c, 0, 64, 0
2, 11276, Note_on_c, 0, 82, 92
2, 11278, Note_on_c, 0, 70, 92
2, 11281, Note_on_c, 0, 53, 0
2, 11282, Note_on_c, 0, 65, 69
2, 11289, Note_on_c, 0, 80, 0
2, 11299, Note_on_c, 0, 70, 0
2, 11309, Note_on_c, 0, 65, 0
2, 11310, Note_on_c, 0, 53, 73
2, 11328, Control_c, 0, 64, 127
2, 11341, Note_on_c, 0, 72, 92
2, 11341, Note_on_c, 0, 48, 87
2, 11342, Note_on_c, 0, 84, 92
2, 11349, Note_on_c, 0, 82, 0
2, 11352, Note_on_c, 0, 53, 0
2, 11371, Note_on_c, 0, 55, 84
2, 11374, Note_on_c, 0, 48, 0
2, 11402, Note_on_c, 0, 64, 69
2, 11407, Note_on_c, 0, 55, 0
2, 11430, Note_on_c, 0, 64, 0
2, 11431, Note_on_c, 0, 55, 74
2, 11454, Note_on_c, 0, 55, 0
2, 11456, Note_on_c, 0, 84, 0
2, 11460, Control_c, 0, 64, 0
2, 11462, Note_on_c, 0, 67, 70
2, 11468, Note_on_c, 0, 72, 0
2, 11489, Note_on_c, 0, 67, 0
2, 11489, Note_on_c, 0, 55, 70
2, 11508, Note_on_c, 0, 55, 0
2, 11520, Note_on_c, 0, 70, 66
2, 11522, Note_on_c, 0, 48, 63
2, 11527, Control_c, 0, 64, 127
2, 11548, Note_on_c, 0, 48, 0
2, 11553, Note_on_c, 0, 53, 61
2, 11580, Note_on_c, 0, 68, 68
2, 11582, Note_on_c, 0, 61, 64
2, 11583, Note_on_c, 0, 70, 0
2, 11585, Note_on_c, 0, 53, 0
2, 11609, Note_on_c, 0, 61, 0
2, 11612, Note_on_c, 0, 53, 68
2, 11622, Control_c, 0, 64, 0
2, 11639, Note_on_c, 0, 70, 69
2, 11642, Note_on_c, 0, 53, 0
2, 11643, Note_on_c, 0, 65, 66
2, 11646, Note_on_c, 0, 68, 0
2, 11665, Note_on_c, 0, 65, 0
2, 11672, Note_on_c, 0, 53, 64
2, 11701, Note_on_c, 0, 70, 0
2, 11702, Note_on_c, 0, 72, 73
2, 11703, Note_on_c, 0, 48, 62
2, 11706, Control_c, 0, 64, 127
2, 11716, Note_on_c, 0, 53, 0
2, 11727, Note_on_c, 0, 48, 0
2, 11732, Note_on_c, 0, 55, 62
2, 11758, Note_on_c, 0, 55, 0
2, 11763, Note_on_c, 0, 64, 62
2, 11789, Note_on_c, 0, 64, 0
2, 11792, Note_on_c, 0, 55, 64
2, 11820, Note_on_c, 0, 55, 0
2, 11821, Control_c, 0, 64, 0
2, 11822, Note_on_c, 0, 67, 67
2, 11836, Note_on_c, 0, 72, 0
2, 11851, Note_on_c, 0, 55, 69
2, 11852, Note_on_c, 0, 67, 0
2, 11868, Note_on_c, 0, 55, 0
2, 11881, Note_on_c, 0, 48, 86
2, 11882, Control_c, 0, 64, 127
2, 11887, Note_on_c, 0, 97, 89
2, 11888, Note_on_c, 0, 85, 79
2, 11902, Note_on_c, 0, 85, 0
2, 11905, Note_on_c, 0, 97, 0
2, 11911, Note_on_c, 0, 48, 0
2, 11911, Note_on_c, 0, 56, 69
2, 11925, Note_on_c, 0, 97, 90
2, 11927, Note_on_c, 0, 85, 80
2, 11938, Note_on_c, 0, 85, 0
2, 11938, Note_on_c, 0, 56, 0
2, 11940, Note_on_c, 0, 97, 0
2, 11941, Note_on_c, 0, 65, 70
2, 11959, Note_on_c, 0, 97, 93
2, 11960, Note_on_c, 0, 85, 81
2, 11970, Note_on_c, 0, 65, 0
2, 11970, Note_on_c, 0, 56, 68
2, 11971, Note_on_c, 0, 85, 0
2, 11972, Note_on_c, 0, 97, 0
2, 11991, Note_on_c, 0, 97, 90
2, 11992, Note_on_c, 0, 85, 80
2, 11992, Control_c, 0, 64, 0
2, 12001, Note_on_c, 0, 68, 65
2, 12002, Note_on_c, 0, 56, 0
2, 12003, Note_on_c, 0, 85, 0
2, 12004, Note_on_c, 0, 97, 0
2, 12022, Note_on_c, 0, 85, 94
2, 12024, Note_on_c, 0, 73, 85
2, 12028, Note_on_c, 0, 68, 0
2, 12030, Note_on_c, 0, 56, 70
2, 12035, Note_on_c, 0, 73, 0
2, 12037, Note_on_c, 0, 85, 0
2, 12049, Note_on_c, 0, 56, 0
2, 12053, Control_c, 0, 64, 127
2, 12061, Note_on_c, 0, 48, 79
2, 12062, Note_on_c, 0, 85, 93
2, 12063, Note_on_c, 0, 73, 83
2, 12091, Note_on_c, 0, 55, 67
2, 12093, Note_on_c, 0, 48, 0
2, 12121, Note_on_c, 0, 64, 71
2, 12122, Note_on_c, 0, 55, 0
2, 12150, Note_on_c, 0, 55, 70
2, 12152, Note_on_c, 0, 64, 0
2, 12180, Note_on_c, 0, 55, 0
2, 12180, Note_on_c, 0, 72, 73
2, 12180, Note_on_c, 0, 84, 83
2, 12181, Note_on_c, 0, 67, 71
2, 12185, Control_c, 0, 64, 0
2, 12187, Note_on_c, 0, 85, 0
2, 12193, Note_on_c, 0, 73, 0
2, 12204, Note_on_c, 0, 72, 0
2, 12210, Note_on_c, 0, 67, 0
2, 12211, Note_on_c, 0, 55, 68
2, 12219, Note_on_c, 0, 84, 0
2, 12230, Note_on_c, 0, 55, 0
2, 12242, Note_on_c, 0, 48, 64
2, 12251, Control_c, 0, 64, 127
2, 12252, Note_on_c, 0, 85, 70
2, 12270, Note_on_c, 0, 48, 0
2, 12271, Note_on_c, 0, 85, 0
2, 12271, Note_on_c, 0, 56, 52
2, 12287, Note_on_c, 0, 85, 68
2, 12301, Note_on_c, 0, 56, 0
2, 12302, Note_on_c, 0, 65, 52
2, 12304, Note_on_c, 0, 85, 0
2, 12324, Note_on_c, 0, 85, 69
2, 12331, Note_on_c, 0, 56, 56
2, 12335, Note_on_c, 0, 65, 0
2, 12341, Note_on_c, 0, 85, 0
2, 12359, Note_on_c, 0, 85, 72
2, 12362, Note_on_c, 0, 68, 55
2, 12364, Note_on_c, 0, 56, 0
2, 12374, Control_c, 0, 64, 0
2, 12380, Note_on_c, 0, 85, 0
2, 12387, Note_on_c, 0, 68, 0
2, 12389, Note_on_c, 0, 73, 73
2, 12392, Note_on_c, 0, 56, 53
2, 12405, Note_on_c, 0, 73, 0
2, 12420, Note_on_c, 0, 56, 0
2, 12420, Note_on_c, 0, 48, 61
2, 12426, Note_on_c, 0, 73, 74
2, 12448, Note_on_c, 0, 48, 0
2, 12451, Note_on_c, 0, 55, 55
2, 12451, Control_c, 0, 64, 127
2, 12480, Note_on_c, 0, 64, 52
2, 12487, Note_on_c, 0, 55, 0
2, 12510, Note_on_c, 0, 64, 0
2, 12513, Note_on_c, 0, 55, 54
2, 12540, Note_on_c, 0, 67, 53
2, 12541, Note_on_c, 0, 72, 71
2, 12544, Note_on_c, 0, 55, 0
2, 12548, Note_on_c, 0, 73, 0
2, 12563, Control_c, 0, 64, 0
2, 12569, Note_on_c, 0, 67, 0
2, 12570, Note_on_c, 0, 72, 0
2, 12573, Note_on_c, 0, 55, 67
2, 12590, Note_on_c, 0, 55, 0
2, 12602, Note_on_c, 0, 82, 90
2, 12603, Note_on_c, 0, 70, 80
2, 12603, Note_on_c, 0, 48, 81
2, 12606, Control_c, 0, 64, 127
2, 12628, Note_on_c, 0, 70, 0
2, 12633, Note_on_c, 0, 48, 0
2, 12633, Note_on_c, 0, 53, 70
2, 12641, Note_on_c, 0, 84, 91
2, 12644, Note_on_c, 0, 82, 0
2, 12644, Note_on_c, 0, 72, 81
2, 12662, Note_on_c, 0, 53, 0
2, 12663, Note_on_c, 0, 61, 73
2, 12670, Note_on_c, 0, 72, 0
2, 12673, Note_on_c, 0, 82, 93
2, 12673, Note_on_c, 0, 70, 83
2, 12681, Note_on_c, 0, 84, 0
2, 12686, Note_on_c, 0, 61, 0
2, 12692, Note_on_c, 0, 53, 74
2, 12696, Note_on_c, 0, 70, 0
2, 12703, Control_c, 0, 64, 0
2, 12706, Note_on_c, 0, 68, 82
2, 12707, Note_on_c, 0, 80, 90
2, 12713, Note_on_c, 0, 82, 0
2, 12721, Note_on_c, 0, 53, 0
2, 12722, Note_on_c, 0, 65, 72
2, 12730, Note_on_c, 0, 68, 0
2, 12740, Note_on_c, 0, 70, 81
2, 12741, Note_on_c, 0, 82, 91
2, 12747, Note_on_c, 0, 65, 0
2, 12752, Note_on_c, 0, 53, 73
2, 12753, Note_on_c, 0, 80, 0
2, 12764, Note_on_c, 0, 70, 0
2, 12773, Note_on_c, 0, 82, 0
2, 12778, Note_on_c, 0, 84, 91
2, 12779, Note_on_c, 0, 72, 81
2, 12782, Note_on_c, 0, 48, 84
2, 12785, Control_c, 0, 64, 127
2, 12796, Note_on_c, 0, 53, 0
2, 12807, Note_on_c, 0, 48, 0
2, 12811, Note_on_c, 0, 55, 76
2, 12841, Note_on_c, 0, 55, 0
2, 12841, Note_on_c, 0, 64, 76
2, 12869, Note_on_c, 0, 55, 73
2, 12870, Note_on_c, 0, 64, 0
2, 12901, Note_on_c, 0, 67, 70
2, 12903, Note_on_c, 0, 55, 0
2, 12912, Control_c, 0, 64, 0
2, 12914, Note_on_c, 0, 84, 0
2, 12915, Note_on_c, 0, 72, 0
2, 12931, Note_on_c, 0, 67, 0
2, 12931, Note_on_c, 0, 55, 71
2, 12952, Note_on_c, 0, 55, 0
2, 12960, Note_on_c, 0, 70, 60
2, 12961, Note_on_c, 0, 48, 59
2, 12978, Control_c, 0, 64, 127
2, 12991, Note_on_c, 0, 53, 58
2, 12992, Note_on_c, 0, 48, 0
2, 13001, Note_on_c, 0, 72, 65
2, 13002, Note_on_c, 0, 70, 0
2, 13019, Note_on_c, 0, 53, 0
2, 13021, Note_on_c, 0, 61, 60
2, 13035, Note_on_c, 0, 70, 65
2, 13043, Note_on_c, 0, 72, 0
2, 13046, Note_on_c, 0, 61, 0
2, 13049, Note_on_c, 0, 53, 58
2, 13067, Note_on_c, 0, 70, 0
2, 13067, Note_on_c, 0, 68, 66
2, 13077, Control_c, 0, 64, 0
2, 13081, Note_on_c, 0, 53, 0
2, 13081, Note_on_c, 0, 65, 58
2, 13099, Note_on_c, 0, 70, 60
2, 13105, Note_on_c, 0, 65, 0
2, 13108, Note_on_c, 0, 68, 0
2, 13110, Note_on_c, 0, 53, 57
2, 13134, Note_on_c, 0, 70, 0
2, 13136, Note_on_c, 0, 72, 62
2, 13141, Note_on_c, 0, 48, 56
2, 13151, Control_c, 0, 64, 127
2, 13166, Note_on_c, 0, 48, 0
2, 13172, Note_on_c, 0, 55, 59
2, 13173, Note_on_c, 0, 53, 0
2, 13200, Note_on_c, 0, 55, 0
2, 13201, Note_on_c, 0, 64, 51
2, 13229, Note_on_c, 0, 64, 0
2, 13229, Note_on_c, 0, 55, 54
2, 13259, Note_on_c, 0, 67, 49
2, 13261, Control_c, 0, 64, 0
2, 13262, Note_on_c, 0, 55, 0
2, 13264, Note_on_c, 0, 72, 0
2, 13289, Note_on_c, 0, 55, 54
2, 13290, Note_on_c, 0, 67, 0
2, 13305, Note_on_c, 0, 55, 0
2, 13322, Note_on_c, 0, 41, 51
2, 13332, Control_c, 0, 64, 127
2, 13341, Note_on_c, 0, 41, 0
2, 13352, Note_on_c, 0, 48, 52
2, 13383, Note_on_c, 0, 56, 54
2, 13384, Note_on_c, 0, 48, 0
2, 13386, Note_on_c, 0, 65, 62
2, 13411, Note_on_c, 0, 56, 0
2, 13412, Note_on_c, 0, 48, 54
2, 13419, Note_on_c, 0, 65, 0
2, 13429, Control_c, 0, 64, 0
2, 13442, Note_on_c, 0, 58, 55
2, 13445, Note_on_c, 0, 48, 0
2, 13445, Note_on_c, 0, 67, 63
2, 13472, Note_on_c, 0, 58, 0
2, 13472, Note_on_c, 0, 48, 57
2, 13475, Note_on_c, 0, 67, 0
2, 13498, Control_c, 0, 64, 127
2, 13500, Note_on_c, 0, 41, 55
2, 13513, Note_on_c, 0, 41, 0
2, 13514, Note_on_c, 0, 48, 0
2, 13532, Note_on_c, 0, 48, 54
2, 13562, Note_on_c, 0, 60, 55
2, 13564, Note_on_c, 0, 68, 60
2, 13565, Note_on_c, 0, 48, 0
2, 13591, Note_on_c, 0, 60, 0
2, 13592, Note_on_c, 0, 48, 53
2, 13596, Note_on_c, 0, 68, 0
2, 13603, Control_c, 0, 64, 0
2, 13615, Note_on_c, 0, 48, 0
2, 13622, Note_on_c, 0, 70, 65
2, 13622, Note_on_c, 0, 61, 55
2, 13652, Note_on_c, 0, 48, 55
2, 13653, Note_on_c, 0, 61, 0
2, 13654, Note_on_c, 0, 70, 0
2, 13669, Control_c, 0, 64, 127
2, 13671, Note_on_c, 0, 48, 0
2, 13682, Note_on_c, 0, 41, 55
2, 13704, Note_on_c, 0, 41, 0
2, 13712, Note_on_c, 0, 48, 55
2, 13741, Note_on_c, 0, 72, 73
2, 13742, Note_on_c, 0, 48, 0
2, 13743, Note_on_c, 0, 60, 55
2, 13765, Note_on_c, 0, 60, 0
2, 13771, Note_on_c, 0, 48, 59
2, 13781, Control_c, 0, 64, 0
2, 13784, Note_on_c, 0, 72, 0
2, 13791, Note_on_c, 0, 73, 68
2, 13798, Note_on_c, 0, 73, 0
2, 13798, Note_on_c, 0, 75, 76
2, 13801, Note_on_c, 0, 58, 61
2, 13804, Note_on_c, 0, 48, 0
2, 13807, Note_on_c, 0, 73, 73
2, 13815, Note_on_c, 0, 75, 0
2, 13829, Note_on_c, 0, 58, 0
2, 13832, Note_on_c, 0, 48, 63
2, 13845, Control_c, 0, 64, 127
2, 13858, Note_on_c, 0, 72, 76
2, 13861, Note_on_c, 0, 48, 0
2, 13861, Note_on_c, 0, 73, 0
2, 13861, Note_on_c, 0, 41, 64
2, 13882, Note_on_c, 0, 41, 0
2, 13892, Note_on_c, 0, 48, 63
2, 13908, Note_on_c, 0, 72, 0
2, 13920, Note_on_c, 0, 80, 76
2, 13922, Note_on_c, 0, 56, 62
2, 13923, Note_on_c, 0, 48, 0
2, 13947, Note_on_c, 0, 56, 0
2, 13950, Note_on_c, 0, 80, 0
2, 13951, Note_on_c, 0, 48, 62
2, 13953, Control_c, 0, 64, 0
2, 13979, Note_on_c, 0, 48, 0
2, 13981, Note_on_c, 0, 58, 62
2, 13983, Note_on_c, 0, 79, 82
2, 14008, Note_on_c, 0, 58, 0
2, 14011, Note_on_c, 0, 79, 0
2, 14011, Note_on_c, 0, 48, 66
2, 14023, Control_c, 0, 64, 127
2, 14042, Note_on_c, 0, 41, 76
2, 14043, Note_on_c, 0, 77, 89
2, 14045, Note_on_c, 0, 48, 0
2, 14062, Note_on_c, 0, 41, 0
2, 14069, Note_on_c, 0, 77, 0
2, 14071, Note_on_c, 0, 48, 76
2, 14101, Note_on_c, 0, 72, 90
2, 14101, Note_on_c, 0, 56, 76
2, 14102, Note_on_c, 0, 48, 0
2, 14127, Note_on_c, 0, 56, 0
2, 14130, Note_on_c, 0, 48, 77
2, 14132, Note_on_c, 0, 72, 0
2, 14134, Control_c, 0, 64, 0
2, 14142, Note_on_c, 0, 73, 87
2, 14150, Note_on_c, 0, 75, 87
2, 14153, Note_on_c, 0, 73, 0
2, 14157, Note_on_c, 0, 48, 0
2, 14159, Note_on_c, 0, 58, 78
2, 14165, Note_on_c, 0, 73, 85
2, 14166, Note_on_c, 0, 75, 0
2, 14180, Note_on_c, 0, 58, 0
2, 14189, Note_on_c, 0, 48, 75
2, 14206, Note_on_c, 0, 73, 0
2, 14208, Control_c, 0, 64, 127
2, 14217, Note_on_c, 0, 72, 86
2, 14218, Note_on_c, 0, 48, 0
2, 14221, Note_on_c, 0, 41, 77
2, 14238, Note_on_c, 0, 41, 0
2, 14248, Note_on_c, 0, 72, 0
2, 14249, Note_on_c, 0, 48, 72
2, 14273, Note_on_c, 0, 48, 0
2, 14280, Note_on_c, 0, 56, 78
2, 14283, Note_on_c, 0, 68, 84
2, 14299, Note_on_c, 0, 56, 0
2, 14308, Note_on_c, 0, 48, 71
2, 14309, Note_on_c, 0, 68, 0
2, 14330, Control_c, 0, 64, 0
2, 14336, Note_on_c, 0, 48, 0
2, 14340, Note_on_c, 0, 60, 78
2, 14343, Note_on_c, 0, 65, 84
2, 14361, Note_on_c, 0, 60, 0
2, 14369, Note_on_c, 0, 48, 68
2, 14372, Note_on_c, 0, 65, 0
2, 14388, Note_on_c, 0, 48, 0
2, 14393, Control_c, 0, 64, 127
2, 14400, Note_on_c, 0, 41, 83
2, 14404, Note_on_c, 0, 60, 99
2, 14432, Note_on_c, 0, 48, 61
2, 14433, Note_on_c, 0, 41, 0
2, 14461, Note_on_c, 0, 55, 68
2, 14464, Note_on_c, 0, 48, 0
2, 14491, Note_on_c, 0, 48, 60
2, 14492, Note_on_c, 0, 55, 0
2, 14521, Note_on_c, 0, 56, 76
2, 14523, Note_on_c, 0, 48, 0
2, 14541, Control_c, 0, 64, 0
2, 14549, Note_on_c, 0, 48, 70
2, 14550, Note_on_c, 0, 56, 0
2, 14577, Control_c, 0, 64, 127
2, 14580, Note_on_c, 0, 41, 75
2, 14584, Note_on_c, 0, 48, 0
2, 14604, Note_on_c, 0, 41, 0
2, 14611, Note_on_c, 0, 48, 62
2, 14634, Note_on_c, 0, 60, 0
2, 14642, Note_on_c, 0, 58, 74
2, 14648, Note_on_c, 0, 48, 0
2, 14668, Note_on_c, 0, 58, 0
2, 14672, Note_on_c, 0, 48, 61
2, 14702, Note_on_c, 0, 48, 0
2, 14702, Note_on_c, 0, 55, 68
2, 14703, Control_c, 0, 64, 0
2, 14732, Note_on_c, 0, 48, 55
2, 14739, Note_on_c, 0, 55, 0
2, 14756, Note_on_c, 0, 48, 0
2, 14762, Note_on_c, 0, 41, 59
2, 14765, Control_c, 0, 64, 127
2, 14789, Note_on_c, 0, 41, 0
2, 14792, Note_on_c, 0, 48, 55
2, 14818, Note_on_c, 0, 48, 0
2, 14822, Note_on_c, 0, 56, 55
2, 14823, Note_on_c, 0, 65, 61
2, 14848, Note_on_c, 0, 56, 0
2, 14851, Note_on_c, 0, 48, 56
2, 14857, Note_on_c, 0, 65, 0
2, 14880, Note_on_c, 0, 48, 0
2, 14881, Note_on_c, 0, 58, 60
2, 14883, Note_on_c, 0, 67, 64
2, 14894, Control_c, 0, 64, 0
2, 14910, Note_on_c, 0, 58, 0
2, 14910, Note_on_c, 0, 48, 62
2, 14917, Note_on_c, 0, 67, 0
2, 14940, Control_c, 0, 64, 127
2, 14941, Note_on_c, 0, 41, 61
2, 14950, Note_on_c, 0, 48, 0
2, 14959, Note_on_c, 0, 41, 0
2, 14970, Note_on_c, 0, 48, 60
2, 15002, Note_on_c, 0, 60, 59
2, 15003, Note_on_c, 0, 48, 0
2, 15005, Note_on_c, 0, 68, 58
2, 15030, Note_on_c, 0, 60, 0
2, 15031, Note_on_c, 0, 48, 63
2, 15038, Note_on_c, 0, 68, 0
2, 15059, Note_on_c, 0, 48, 0
2, 15061, Note_on_c, 0, 61, 59
2, 15063, Control_c, 0, 64, 0
2, 15064, Note_on_c, 0, 70, 62
2, 15091, Note_on_c, 0, 48, 57
2, 15092, Note_on_c, 0, 61, 0
2, 15096, Note_on_c, 0, 70, 0
2, 15118, Control_c, 0, 64, 127
2, 15120, Note_on_c, 0, 48, 0
2, 15122, Note_on_c, 0, 41, 57
2, 15144, Note_on_c, 0, 41, 0
2, 15151, Note_on_c, 0, 48, 60
2, 15180, Note_on_c, 0, 48, 0
2, 15181, Note_on_c, 0, 72, 72
2, 15182, Note_on_c, 0, 60, 60
2, 15210, Note_on_c, 0, 60, 0
2, 15211, Note_on_c, 0, 48, 62
2, 15226, Note_on_c, 0, 73, 65
2, 15229, Note_on_c, 0, 72, 0
2, 15234, Note_on_c, 0, 75, 67
2, 15239, Note_on_c, 0, 73, 0
2, 15241, Note_on_c, 0, 58, 64
2, 15242, Control_c, 0, 64, 0
2, 15244, Note_on_c, 0, 73, 76
2, 15245, Note_on_c, 0, 48, 0
2, 15252, Note_on_c, 0, 75, 0
2, 15271, Note_on_c, 0, 48, 66
2, 15273, Note_on_c, 0, 58, 0
2, 15294, Control_c, 0, 64, 127
2, 15298, Note_on_c, 0, 72, 76
2, 15302, Note_on_c, 0, 41, 66
2, 15304, Note_on_c, 0, 73, 0
2, 15318, Note_on_c, 0, 48, 0
2, 15318, Note_on_c, 0, 41, 0
2, 15331, Note_on_c, 0, 48, 66
2, 15338, Note_on_c, 0, 72, 0
2, 15362, Note_on_c, 0, 56, 69
2, 15364, Note_on_c, 0, 84, 72
2, 15366, Note_on_c, 0, 48, 0
2, 15387, Note_on_c, 0, 56, 0
2, 15391, Note_on_c, 0, 48, 71
2, 15396, Note_on_c, 0, 84, 0
2, 15420, Control_c, 0, 64, 0
2, 15422, Note_on_c, 0, 60, 75
2, 15424, Note_on_c, 0, 80, 78
2, 15428, Note_on_c, 0, 48, 0
2, 15447, Note_on_c, 0, 60, 0
2, 15451, Note_on_c, 0, 48, 77
2, 15461, Note_on_c, 0, 80, 0
2, 15473, Note_on_c, 0, 48, 0
2, 15474, Control_c, 0, 64, 127
2, 15480, Note_on_c, 0, 79, 86
2, 15482, Note_on_c, 0, 41, 79
2, 15504, Note_on_c, 0, 41, 0
2, 15509, Note_on_c, 0, 79, 0
2, 15512, Note_on_c, 0, 48, 78
2, 15542, Note_on_c, 0, 58, 77
2, 15546, Note_on_c, 0, 72, 85
2, 15550, Note_on_c, 0, 48, 0
2, 15570, Note_on_c, 0, 58, 0
2, 15572, Note_on_c, 0, 48, 79
2, 15577, Note_on_c, 0, 72, 0
2, 15595, Control_c, 0, 64, 0
2, 15601, Note_on_c, 0, 48, 0
2, 15601, Note_on_c, 0, 73, 81
2, 15602, Note_on_c, 0, 55, 75
2, 15631, Note_on_c, 0, 55, 0
2, 15632, Note_on_c, 0, 73, 0
2, 15632, Note_on_c, 0, 48, 78
2, 15649, Control_c, 0, 64, 127
2, 15663, Note_on_c, 0, 41, 81
2, 15665, Note_on_c, 0, 48, 0
2, 15665, Note_on_c, 0, 72, 81
2, 15687, Note_on_c, 0, 41, 0
2, 15693, Note_on_c, 0, 48, 80
2, 15694, Note_on_c, 0, 72, 0
2, 15720, Note_on_c, 0, 67, 83
2, 15722, Note_on_c, 0, 58, 77
2, 15730, Note_on_c, 0, 48, 0
2, 15748, Note_on_c, 0, 58, 0
2, 15748, Note_on_c, 0, 67, 0
2, 15752, Note_on_c, 0, 48, 77
2, 15782, Note_on_c, 0, 55, 78
2, 15784, Note_on_c, 0, 48, 0
2, 15784, Note_on_c, 0, 60, 82
2, 15789, Control_c, 0, 64, 0
2, 15810, Note_on_c, 0, 55, 0
2, 15811, Note_on_c, 0, 48, 77
2, 15814, Note_on_c, 0, 60, 0
2, 15834, Control_c, 0, 64, 127
2, 15838, Note_on_c, 0, 48, 0
2, 15841, Note_on_c, 0, 65, 79
2, 15841, Note_on_c, 0, 41, 83
2, 15868, Note_on_c, 0, 41, 0
2, 15871, Note_on_c, 0, 47, 79
2, 15872, Note_on_c, 0, 67, 82
2, 15876, Note_on_c, 0, 65, 0
2, 15902, Note_on_c, 0, 56, 87
2, 15907, Note_on_c, 0, 47, 0
2, 15907, Note_on_c, 0, 68, 95
2, 15909, Note_on_c, 0, 67, 0
2, 15930, Note_on_c, 0, 56, 0
2, 15931, Note_on_c, 0, 47, 76
2, 15951, Note_on_c, 0, 47, 0
2, 15962, Note_on_c, 0, 61, 93
2, 15977, Note_on_c, 0, 61, 0
2, 15991, Note_on_c, 0, 47, 84
2, 15992, Control_c, 0, 64, 0
2, 16020, Control_c, 0, 64, 127
2, 16021, Note_on_c, 0, 41, 90
2, 16030, Note_on_c, 0, 47, 0
2, 16042, Note_on_c, 0, 41, 0
2, 16051, Note_on_c, 0, 47, 77
2, 16082, Note_on_c, 0, 56, 85
2, 16084, Note_on_c, 0, 47, 0
2, 16102, Note_on_c, 0, 56, 0
2, 16112, Note_on_c, 0, 47, 79
2, 16113, Note_on_c, 0, 68, 0
2, 16128, Note_on_c, 0, 47, 0
2, 16142, Note_on_c, 0, 61, 81
2, 16156, Note_on_c, 0, 61, 0
2, 16171, Note_on_c, 0, 47, 73
2, 16177, Control_c, 0, 64, 0
2, 16186, Note_on_c, 0, 47, 0
2, 16203, Note_on_c, 0, 41, 66
2, 16205, Control_c, 0, 64, 127
2, 16227, Note_on_c, 0, 41, 0
2, 16233, Note_on_c, 0, 48, 72
2, 16260, Note_on_c, 0, 56, 73
2, 16264, Note_on_c, 0, 77, 69
2, 16266, Note_on_c, 0, 65, 64
2, 16271, Note_on_c, 0, 48, 0
2, 16284, Note_on_c, 0, 56, 0
2, 16293, Note_on_c, 0, 48, 75
2, 16301, Note_on_c, 0, 65, 0
2, 16316, Note_on_c, 0, 77, 0
2, 16319, Note_on_c, 0, 48, 0
2, 16322, Note_on_c, 0, 58, 73
2, 16325, Note_on_c, 0, 79, 70
2, 16325, Note_on_c, 0, 67, 65
2, 16349, Note_on_c, 0, 58, 0
2, 16351, Note_on_c, 0, 48, 76
2, 16354, Control_c, 0, 64, 0
2, 16358, Note_on_c, 0, 67, 0
2, 16374, Note_on_c, 0, 79, 0
2, 16382, Note_on_c, 0, 41, 73
2, 16383, Control_c, 0, 64, 127
2, 16396, Note_on_c, 0, 48, 0
2, 16400, Note_on_c, 0, 41, 0
2, 16412, Note_on_c, 0, 48, 73
2, 16442, Note_on_c, 0, 60, 76
2, 16443, Note_on_c, 0, 48, 0
2, 16447, Note_on_c, 0, 80, 73
2, 16447, Note_on_c, 0, 68, 68
2, 16465, Note_on_c, 0, 60, 0
2, 16471, Note_on_c, 0, 48, 75
2, 16481, Note_on_c, 0, 68, 0
2, 16488, Note_on_c, 0, 80, 0
2, 16499, Note_on_c, 0, 82, 75
2, 16500, Note_on_c, 0, 48, 0
2, 16501, Note_on_c, 0, 70, 70
2, 16501, Note_on_c, 0, 61, 75
2, 16525, Control_c, 0, 64, 0
2, 16526, Note_on_c, 0, 61, 0
2, 16531, Note_on_c, 0, 70, 0
2, 16531, Note_on_c, 0, 48, 75
2, 16536, Note_on_c, 0, 82, 0
2, 16556, Control_c, 0, 64, 127
2, 16562, Note_on_c, 0, 41, 73
2, 16570, Note_on_c, 0, 48, 0
2, 16574, Note_on_c, 0, 41, 0
2, 16591, Note_on_c, 0, 48, 80
2, 16621, Note_on_c, 0, 60, 84
2, 16623, Note_on_c, 0, 72, 65
2, 16623, Note_on_c, 0, 84, 71
2, 16625, Note_on_c, 0, 48, 0
2, 16643, Note_on_c, 0, 72, 0
2, 16646, Note_on_c, 0, 60, 0
2, 16649, Note_on_c, 0, 48, 84
2, 16664, Note_on_c, 0, 84, 0
2, 16681, Note_on_c, 0, 85, 74
2, 16681, Note_on_c, 0, 58, 89
2, 16682, Note_on_c, 0, 73, 69
2, 16685, Note_on_c, 0, 48, 0
2, 16703, Note_on_c, 0, 73, 0
2, 16709, Note_on_c, 0, 48, 82
2, 16712, Note_on_c, 0, 58, 0
2, 16715, Note_on_c, 0, 85, 0
2, 16717, Control_c, 0, 64, 0
2, 16738, Note_on_c, 0, 84, 78
2, 16738, Control_c, 0, 64, 127
2, 16739, Note_on_c, 0, 72, 73
2, 16741, Note_on_c, 0, 41, 82
2, 16748, Note_on_c, 0, 48, 0
2, 16752, Note_on_c, 0, 72, 0
2, 16760, Note_on_c, 0, 84, 0
2, 16761, Note_on_c, 0, 41, 0
2, 16771, Note_on_c, 0, 48, 83
2, 16797, Note_on_c, 0, 92, 78
2, 16799, Note_on_c, 0, 80, 73
2, 16802, Note_on_c, 0, 48, 0
2, 16802, Note_on_c, 0, 56, 87
2, 16831, Note_on_c, 0, 56, 0
2, 16831, Note_on_c, 0, 48, 85
2, 16832, Note_on_c, 0, 80, 0
2, 16839, Note_on_c, 0, 92, 0
2, 16857, Note_on_c, 0, 79, 81
2, 16858, Note_on_c, 0, 91, 86
2, 16862, Note_on_c, 0, 58, 86
2, 16863, Note_on_c, 0, 48, 0
2, 16880, Note_on_c, 0, 79, 0
2, 16882, Control_c, 0, 64, 0
2, 16886, Note_on_c, 0, 91, 0
2, 16891, Note_on_c, 0, 48, 89
2, 16892, Note_on_c, 0, 58, 0
2, 16906, Control_c, 0, 64, 127
2, 16915, Note_on_c, 0, 89, 88
2, 16917, Note_on_c, 0, 77, 84
2, 16923, Note_on_c, 0, 41, 90
2, 16933, Note_on_c, 0, 48, 0
2, 16938, Note_on_c, 0, 77, 0
2, 16941, Note_on_c, 0, 89, 0
2, 16941, Note_on_c, 0, 41, 0
2, 16952, Note_on_c, 0, 48, 87
2, 16979, Note_on_c, 0, 84, 90
2, 16980, Note_on_c, 0, 72, 84
2, 16983, Note_on_c, 0, 56, 86
2, 16986, Note_on_c, 0, 48, 0
2, 17010, Note_on_c, 0, 72, 0
2, 17012, Note_on_c, 0, 48, 86
2, 17013, Note_on_c, 0, 56, 0
2, 17019, Note_on_c, 0, 84, 0
2, 17042, Note_on_c, 0, 58, 85
2, 17043, Note_on_c, 0, 73, 87
2, 17043, Note_on_c, 0, 85, 92
2, 17044, Note_on_c, 0, 48, 0
2, 17057, Control_c, 0, 64, 0
2, 17071, Note_on_c, 0, 48, 84
2, 17075, Note_on_c, 0, 58, 0
2, 17079, Note_on_c, 0, 73, 0
2, 17084, Note_on_c, 0, 85, 0
2, 17084, Control_c, 0, 64, 127
2, 17102, Note_on_c, 0, 41, 83
2, 17105, Note_on_c, 0, 84, 91
2, 17106, Note_on_c, 0, 72, 86
2, 17110, Note_on_c, 0, 48, 0
2, 17121, Note_on_c, 0, 41, 0
2, 17128, Note_on_c, 0, 84, 0
2, 17128, Note_on_c, 0, 72, 0
2, 17133, Note_on_c, 0, 48, 88
2, 17157, Note_on_c, 0, 48, 0
2, 17162, Note_on_c, 0, 80, 91
2, 17162, Note_on_c, 0, 56, 86
2, 17163, Note_on_c, 0, 68, 85
2, 17188, Note_on_c, 0, 56, 0
2, 17191, Note_on_c, 0, 48, 87
2, 17192, Note_on_c, 0, 80, 0
2, 17193, Note_on_c, 0, 68, 0
2, 17223, Note_on_c, 0, 60, 83
2, 17224, Note_on_c, 0, 48, 0
2, 17224, Note_on_c, 0, 77, 91
2, 17227, Note_on_c, 0, 65, 85
2, 17240, Control_c, 0, 64, 0
2, 17251, Note_on_c, 0, 60, 0
2, 17252, Note_on_c, 0, 65, 0
2, 17252, Note_on_c, 0, 77, 0
2, 17252, Note_on_c, 0, 48, 84
2, 17268, Control_c, 0, 64, 127
2, 17272, Note_on_c, 0, 48, 0
2, 17282, Note_on_c, 0, 41, 87
2, 17285, Note_on_c, 0, 72, 97
2, 17287, Note_on_c, 0, 60, 92
2, 17310, Note_on_c, 0, 41, 0
2, 17312, Note_on_c, 0, 48, 86
2, 17340, Note_on_c, 0, 48, 0
2, 17341, Note_on_c, 0, 55, 89
2, 17369, Note_on_c, 0, 55, 0
2, 17371, Note_on_c, 0, 48, 89
2, 17401, Note_on_c, 0, 56, 87
2, 17402, Note_on_c, 0, 48, 0
2, 17425, Note_on_c, 0, 56, 0
2, 17431, Note_on_c, 0, 48, 86
2, 17436, Control_c, 0, 64, 0
2, 17454, Note_on_c, 0, 48, 0
2, 17457, Control_c, 0, 64, 127
2, 17460, Note_on_c, 0, 41, 80
2, 17485, Note_on_c, 0, 41, 0
2, 17491, Note_on_c, 0, 48, 78
2, 17521, Note_on_c, 0, 58, 79
2, 17524, Note_on_c, 0, 48, 0
2, 17548, Note_on_c, 0, 58, 0
2, 17549, Note_on_c, 0, 48, 77
2, 17577, Note_on_c, 0, 60, 0
2, 17579, Note_on_c, 0, 48, 0
2, 17579, Note_on_c, 0, 55, 79
2, 17581, Note_on_c, 0, 72, 0
2, 17606, Control_c, 0, 64, 0
2, 17609, Note_on_c, 0, 48, 75
2, 17615, Note_on_c, 0, 55, 0
2, 17631, Note_on_c, 0, 48, 0
2, 17641, Note_on_c, 0, 41, 62
2, 17653, Control_c, 0, 64, 127
2, 17666, Note_on_c, 0, 41, 0
2, 17672, Note_on_c, 0, 48, 58
2, 17702, Note_on_c, 0, 57, 59
2, 17704, Note_on_c, 0, 48, 0
2, 17704, Note_on_c, 0, 77, 67
2, 17705, Note_on_c, 0, 65, 67
2, 17726, Note_on_c, 0, 57, 0
2, 17730, Note_on_c, 0, 48, 62
2, 17738, Note_on_c, 0, 65, 0
2, 17751, Note_on_c, 0, 77, 0
2, 17761, Note_on_c, 0, 58, 62
2, 17762, Note_on_c, 0, 48, 0
2, 17764, Note_on_c, 0, 79, 68
2, 17765, Note_on_c, 0, 67, 68
2, 17787, Note_on_c, 0, 58, 0
2, 17789, Note_on_c, 0, 48, 62
2, 17797, Note_on_c, 0, 67, 0
2, 17797, Control_c, 0, 64, 0
2, 17809, Note_on_c, 0, 79, 0
2, 17821, Note_on_c, 0, 41, 64
2, 17826, Control_c, 0, 64, 127
2, 17831, Note_on_c, 0, 48, 0
2, 17838, Note_on_c, 0, 41, 0
2, 17849, Note_on_c, 0, 48, 65
2, 17879, Note_on_c, 0, 81, 74
2, 17880, Note_on_c, 0, 69, 73
2, 17881, Note_on_c, 0, 60, 66
2, 17886, Note_on_c, 0, 48, 0
2, 17905, Note_on_c, 0, 60, 0
2, 17905, Note_on_c, 0, 69, 0
2, 17909, Note_on_c, 0, 48, 67
2, 17936, Note_on_c, 0, 82, 77
2, 17937, Note_on_c, 0, 81, 0
2, 17940, Note_on_c, 0, 70, 74
2, 17941, Note_on_c, 0, 61, 72
2, 17942, Note_on_c, 0, 48, 0
2, 17963, Note_on_c, 0, 70, 0
2, 17968, Note_on_c, 0, 82, 0
2, 17968, Note_on_c, 0, 61, 0
2, 17969, Note_on_c, 0, 48, 71
2, 17982, Control_c, 0, 64, 0
2, 17988, Note_on_c, 0, 48, 0
2, 17996, Control_c, 0, 64, 127
2, 18000, Note_on_c, 0, 41, 77
2, 18011, Note_on_c, 0, 41, 0
2, 18030, Note_on_c, 0, 54, 75
2, 18059, Note_on_c, 0, 72, 83
2, 18059, Note_on_c, 0, 84, 83
2, 18062, Note_on_c, 0, 63, 73
2, 18064, Note_on_c, 0, 54, 0
2, 18081, Note_on_c, 0, 63, 0
2, 18089, Note_on_c, 0, 72, 0
2, 18091, Note_on_c, 0, 54, 72
2, 18118, Note_on_c, 0, 85, 85
2, 18120, Note_on_c, 0, 73, 85
2, 18121, Note_on_c, 0, 54, 0
2, 18121, Note_on_c, 0, 65, 75
2, 18128, Note_on_c, 0, 84, 0
2, 18144, Note_on_c, 0, 73, 0
2, 18146, Note_on_c, 0, 65, 0
2, 18149, Note_on_c, 0, 54, 73
2, 18156, Control_c, 0, 64, 0
2, 18166, Note_on_c, 0, 54, 0
2, 18172, Control_c, 0, 64, 127
2, 18180, Note_on_c, 0, 75, 89
2, 18181, Note_on_c, 0, 87, 99
2, 18181, Note_on_c, 0, 41, 76
2, 18188, Note_on_c, 0, 85, 0
2, 18191, Note_on_c, 0, 41, 0
2, 18211, Note_on_c, 0, 54, 74
2, 18238, Note_on_c, 0, 54, 0
2, 18241, Note_on_c, 0, 66, 74
2, 18271, Note_on_c, 0, 54, 69
2, 18272, Note_on_c, 0, 66, 0
2, 18289, Note_on_c, 0, 75, 0
2, 18294, Note_on_c, 0, 87, 0
2, 18299, Note_on_c, 0, 54, 0
2, 18301, Note_on_c, 0, 66, 67
2, 18327, Note_on_c, 0, 66, 0
2, 18328, Note_on_c, 0, 54, 65
2, 18347, Note_on_c, 0, 54, 0
2, 18349, Control_c, 0, 64, 0
2, 18361, Note_on_c, 0, 41, 54
2, 18378, Control_c, 0, 64, 127
2, 18387, Note_on_c, 0, 41, 0
2, 18391, Note_on_c, 0, 50, 59
2, 18421, Note_on_c, 0, 56, 61
2, 18423, Note_on_c, 0, 50, 0
2, 18424, Note_on_c, 0, 71, 63
2, 18425, Note_on_c, 0, 83, 63
2, 18452, Note_on_c, 0, 50, 65
2, 18455, Note_on_c, 0, 56, 0
2, 18458, Note_on_c, 0, 71, 0
2, 18479, Note_on_c, 0, 83, 0
2, 18482, Note_on_c, 0, 57, 66
2, 18484, Note_on_c, 0, 72, 69
2, 18484, Note_on_c, 0, 84, 69
2, 18485, Note_on_c, 0, 50, 0
2, 18512, Note_on_c, 0, 50, 68
2, 18513, Note_on_c, 0, 57, 0
2, 18516, Note_on_c, 0, 72, 0
2, 18525, Control_c, 0, 64, 0
2, 18528, Note_on_c, 0, 84, 0
2, 18542, Note_on_c, 0, 41, 69
2, 18546, Note_on_c, 0, 50, 0
2, 18550, Control_c, 0, 64, 127
2, 18563, Note_on_c, 0, 41, 0
2, 18572, Note_on_c, 0, 50, 71
2, 18602, Note_on_c, 0, 59, 77
2, 18605, Note_on_c, 0, 50, 0
2, 18608, Note_on_c, 0, 86, 78
2, 18609, Note_on_c, 0, 74, 78
2, 18630, Note_on_c, 0, 59, 0
2, 18631, Note_on_c, 0, 50, 81
2, 18640, Note_on_c, 0, 74, 0
2, 18655, Note_on_c, 0, 86, 0
2, 18661, Note_on_c, 0, 61, 84
2, 18663, Note_on_c, 0, 88, 84
2, 18665, Note_on_c, 0, 76, 84
2, 18668, Note_on_c, 0, 50, 0
2, 18691, Note_on_c, 0, 50, 86
2, 18693, Note_on_c, 0, 76, 0
2, 18695, Note_on_c, 0, 61, 0
2, 18703, Control_c, 0, 64, 0
2, 18706, Note_on_c, 0, 88, 0
2, 18717, Note_on_c, 0, 50, 0
2, 18717, Control_c, 0, 64, 127
2, 18722, Note_on_c, 0, 41, 89
2, 18746, Note_on_c, 0, 41, 0
2, 18752, Note_on_c, 0, 50, 86
2, 18766, Note_on_c, 0, 50, 0
2, 18782, Note_on_c, 0, 62, 91
2, 18788, Note_on_c, 0, 77, 76
2, 18789, Note_on_c, 0, 89, 91
2, 18806, Note_on_c, 0, 62, 0
2, 18812, Note_on_c, 0, 50, 89
2, 18814, Note_on_c, 0, 77, 0
2, 18835, Note_on_c, 0, 50, 0
2, 18842, Note_on_c, 0, 64, 89
2, 18843, Note_on_c, 0, 91, 92
2, 18844, Note_on_c, 0, 79, 95
2, 18854, Control_c, 0, 64, 0
2, 18856, Note_on_c, 0, 89, 0
2, 18863, Note_on_c, 0, 64, 0
2, 18865, Note_on_c, 0, 79, 0
2, 18872, Note_on_c, 0, 50, 79
2, 18885, Note_on_c, 0, 50, 0
2, 18892, Control_c, 0, 64, 127
2, 18901, Note_on_c, 0, 41, 92
2, 18904, Note_on_c, 0, 92, 97
2, 18904, Note_on_c, 0, 80, 97
2, 18912, Note_on_c, 0, 41, 0
2, 18913, Note_on_c, 0, 91, 0
2, 18931, Note_on_c, 0, 50, 79
2, 18949, Note_on_c, 0, 50, 0
2, 18962, Note_on_c, 0, 65, 81
2, 18978, Note_on_c, 0, 65, 0
2, 18992, Note_on_c, 0, 50, 80
2, 19007, Note_on_c, 0, 50, 0
2, 19012, Note_on_c, 0, 80, 0
2, 19014, Note_on_c, 0, 92, 0
2, 19021, Note_on_c, 0, 65, 80
2, 19034, Note_on_c, 0, 65, 0
2, 19051, Note_on_c, 0, 50, 77
2, 19064, Note_on_c, 0, 50, 0
2, 19075, Control_c, 0, 64, 0
2, 19082, Note_on_c, 0, 41, 56
2, 19096, Control_c, 0, 64, 127
2, 19106, Note_on_c, 0, 41, 0
2, 19112, Note_on_c, 0, 49, 55
2, 19134, Note_on_c, 0, 49, 0
2, 19141, Note_on_c, 0, 58, 56
2, 19143, Note_on_c, 0, 64, 63
2, 19144, Note_on_c, 0, 76, 64
2, 19171, Note_on_c, 0, 49, 60
2, 19172, Note_on_c, 0, 64, 0
2, 19173, Note_on_c, 0, 58, 0
2, 19201, Note_on_c, 0, 61, 59
2, 19202, Note_on_c, 0, 49, 0
2, 19203, Note_on_c, 0, 65, 64
2, 19204, Note_on_c, 0, 77, 64
2, 19208, Note_on_c, 0, 76, 0
2, 19223, Note_on_c, 0, 65, 0
2, 19228, Note_on_c, 0, 61, 0
2, 19232, Note_on_c, 0, 49, 59
2, 19247, Control_c, 0, 64, 0
2, 19260, Note_on_c, 0, 77, 0
2, 19262, Note_on_c, 0, 41, 63
2, 19265, Note_on_c, 0, 49, 0
2, 19265, Note_on_c, 0, 68, 67
2, 19265, Note_on_c, 0, 80, 67
2, 19275, Control_c, 0, 64, 127
2, 19278, Note_on_c, 0, 41, 0
2, 19292, Note_on_c, 0, 49, 64
2, 19299, Note_on_c, 0, 68, 0
2, 19311, Note_on_c, 0, 80, 0
2, 19322, Note_on_c, 0, 49, 0
2, 19322, Note_on_c, 0, 58, 62
2, 19323, Note_on_c, 0, 79, 70
2, 19326, Note_on_c, 0, 67, 69
2, 19350, Note_on_c, 0, 67, 0
2, 19352, Note_on_c, 0, 49, 64
2, 19354, Note_on_c, 0, 58, 0
2, 19382, Note_on_c, 0, 61, 67
2, 19383, Note_on_c, 0, 49, 0
2, 19387, Note_on_c, 0, 68, 67
2, 19388, Note_on_c, 0, 80, 67
2, 19393, Note_on_c, 0, 79, 0
2, 19403, Note_on_c, 0, 61, 0
2, 19407, Note_on_c, 0, 68, 0
2, 19409, Control_c, 0, 64, 0
2, 19411, Note_on_c, 0, 49, 69
2, 19436, Note_on_c, 0, 80, 0
2, 19442, Note_on_c, 0, 41, 70
2, 19443, Control_c, 0, 64, 127
2, 19444, Note_on_c, 0, 72, 71
2, 19446, Note_on_c, 0, 49, 0
2, 19446, Note_on_c, 0, 84, 71
2, 19464, Note_on_c, 0, 72, 0
2, 19464, Note_on_c, 0, 41, 0
2, 19472, Note_on_c, 0, 49, 72
2, 19500, Note_on_c, 0, 49, 0
2, 19500, Note_on_c, 0, 84, 0
2, 19502, Note_on_c, 0, 58, 73
2, 19504, Note_on_c, 0, 70, 71
2, 19506, Note_on_c, 0, 82, 71
2, 19525, Note_on_c, 0, 70, 0
2, 19529, Note_on_c, 0, 58, 0
2, 19531, Note_on_c, 0, 49, 72
2, 19558, Note_on_c, 0, 49, 0
2, 19561, Note_on_c, 0, 82, 0
2, 19561, Note_on_c, 0, 61, 74
2, 19563, Note_on_c, 0, 84, 76
2, 19564, Note_on_c, 0, 72, 76
2, 19580, Note_on_c, 0, 72, 0
2, 19583, Note_on_c, 0, 61, 0
2, 19589, Note_on_c, 0, 49, 77
2, 19594, Control_c, 0, 64, 0
2, 19620, Control_c, 0, 64, 127
2, 19621, Note_on_c, 0, 49, 0
2, 19622, Note_on_c, 0, 41, 77
2, 19623, Note_on_c, 0, 75, 76
2, 19624, Note_on_c, 0, 87, 76
2, 19630, Note_on_c, 0, 84, 0
2, 19642, Note_on_c, 0, 75, 0
2, 19643, Note_on_c, 0, 41, 0
2, 19652, Note_on_c, 0, 49, 74
2, 19674, Note_on_c, 0, 87, 0
2, 19677, Note_on_c, 0, 49, 0
2, 19682, Note_on_c, 0, 58, 77
2, 19684, Note_on_c, 0, 73, 80
2, 19685, Note_on_c, 0, 85, 80
2, 19706, Note_on_c, 0, 73, 0
2, 19711, Note_on_c, 0, 49, 75
2, 19712, Note_on_c, 0, 58, 0
2, 19738, Note_on_c, 0, 87, 82
2, 19739, Note_on_c, 0, 49, 0
2, 19740, Note_on_c, 0, 75, 81
2, 19741, Note_on_c, 0, 85, 0
2, 19742, Note_on_c, 0, 61, 78
2, 19762, Note_on_c, 0, 75, 0
2, 19768, Control_c, 0, 64, 0
2, 19771, Note_on_c, 0, 49, 78
2, 19773, Note_on_c, 0, 61, 0
2, 19789, Note_on_c, 0, 87, 0
2, 19794, Note_on_c, 0, 49, 0
2, 19797, Control_c, 0, 64, 127
2, 19802, Note_on_c, 0, 41, 80
2, 19804, Note_on_c, 0, 89, 84
2, 19805, Note_on_c, 0, 77, 84
2, 19821, Note_on_c, 0, 77, 0
2, 19827, Note_on_c, 0, 41, 0
2, 19831, Note_on_c, 0, 49, 81
2, 19850, Note_on_c, 0, 89, 0
2, 19857, Note_on_c, 0, 88, 86
2, 19858, Note_on_c, 0, 49, 0
2, 19859, Note_on_c, 0, 76, 86
2, 19861, Note_on_c, 0, 58, 78
2, 19882, Note_on_c, 0, 76, 0
2, 19890, Note_on_c, 0, 49, 81
2, 19892, Note_on_c, 0, 58, 0
2, 19915, Note_on_c, 0, 88, 0
2, 19918, Note_on_c, 0, 89, 87
2, 19919, Note_on_c, 0, 77, 87
2, 19921, Note_on_c, 0, 49, 0
2, 19921, Note_on_c, 0, 61, 78
2, 19932, Note_on_c, 0, 77, 0
2, 19943, Note_on_c, 0, 61, 0
2, 19949, Note_on_c, 0, 49, 81
2, 19952, Control_c, 0, 64, 0
2, 19975, Note_on_c, 0, 89, 0
2, 19978, Control_c, 0, 64, 127
2, 19981, Note_on_c, 0, 92, 87
2, 19981, Note_on_c, 0, 41, 85
2, 19984, Note_on_c, 0, 80, 87
2, 19985, Note_on_c, 0, 49, 0
2, 19996, Note_on_c, 0, 80, 0
2, 20003, Note_on_c, 0, 41, 0
2, 20009, Note_on_c, 0, 49, 82
2, 20032, Note_on_c, 0, 92, 0
2, 20039, Note_on_c, 0, 49, 0
2, 20039, Note_on_c, 0, 58, 81
2, 20041, Note_on_c, 0, 91, 91
2, 20041, Note_on_c, 0, 79, 91
2, 20061, Note_on_c, 0, 79, 0
2, 20068, Note_on_c, 0, 49, 85
2, 20070, Note_on_c, 0, 58, 0
2, 20100, Note_on_c, 0, 92, 90
2, 20100, Note_on_c, 0, 61, 85
2, 20101, Note_on_c, 0, 80, 90
2, 20108, Note_on_c, 0, 91, 0
2, 20110, Note_on_c, 0, 49, 0
2, 20115, Note_on_c, 0, 80, 0
2, 20122, Note_on_c, 0, 61, 0
2, 20125, Control_c, 0, 64, 0
2, 20129, Note_on_c, 0, 49, 90
2, 20151, Note_on_c, 0, 92, 0
2, 20156, Note_on_c, 0, 81, 83
2, 20157, Note_on_c, 0, 93, 94
2, 20159, Control_c, 0, 64, 127
2, 20161, Note_on_c, 0, 41, 91
2, 20162, Note_on_c, 0, 49, 0
2, 20168, Note_on_c, 0, 81, 0
2, 20183, Note_on_c, 0, 41, 0
2, 20189, Note_on_c, 0, 82, 91
2, 20189, Note_on_c, 0, 94, 101
2, 20189, Note_on_c, 0, 49, 90
2, 20195, Note_on_c, 0, 93, 0
2, 20200, Note_on_c, 0, 82, 0
2, 20208, Note_on_c, 0, 94, 0
2, 20218, Note_on_c, 0, 49, 0
2, 20220, Note_on_c, 0, 58, 90
2, 20223, Note_on_c, 0, 85, 96
2, 20225, Note_on_c, 0, 97, 107
2, 20249, Note_on_c, 0, 49, 88
2, 20253, Note_on_c, 0, 58, 0
2, 20280, Note_on_c, 0, 61, 86
2, 20283, Note_on_c, 0, 49, 0
2, 20306, Note_on_c, 0, 61, 0
2, 20309, Note_on_c, 0, 49, 79
2, 20311, Control_c, 0, 64, 0
2, 20337, Control_c, 0, 64, 127
2, 20341, Note_on_c, 0, 41, 76
2, 20345, Note_on_c, 0, 49, 0
2, 20358, Note_on_c, 0, 41, 0
2, 20371, Note_on_c, 0, 49, 74
2, 20390, Note_on_c, 0, 85, 0
2, 20393, Note_on_c, 0, 97, 0
2, 20398, Note_on_c, 0, 49, 0
2, 20400, Note_on_c, 0, 58, 69
2, 20429, Note_on_c, 0, 49, 64
2, 20431, Note_on_c, 0, 58, 0
2, 20458, Note_on_c, 0, 64, 75
2, 20458, Note_on_c, 0, 76, 79
2, 20460, Note_on_c, 0, 61, 60
2, 20462, Note_on_c, 0, 49, 0
2, 20464, Control_c, 0, 64, 0
2, 20484, Note_on_c, 0, 61, 0
2, 20489, Note_on_c, 0, 49, 58
2, 20491, Note_on_c, 0, 64, 0
2, 20517, Note_on_c, 0, 49, 0
2, 20518, Note_on_c, 0, 76, 0
2, 20520, Note_on_c, 0, 79, 72
2, 20520, Note_on_c, 0, 67, 71
2, 20521, Note_on_c, 0, 41, 64
2, 20531, Control_c, 0, 64, 127
2, 20542, Note_on_c, 0, 41, 0
2, 20549, Note_on_c, 0, 49, 65
2, 20555, Note_on_c, 0, 67, 0
2, 20564, Note_on_c, 0, 79, 0
2, 20574, Note_on_c, 0, 49, 0
2, 20579, Note_on_c, 0, 58, 63
2, 20580, Note_on_c, 0, 67, 72
2, 20580, Note_on_c, 0, 79, 80
2, 20608, Note_on_c, 0, 58, 0
2, 20608, Note_on_c, 0, 49, 63
2, 20616, Note_on_c, 0, 79, 0
2, 20618, Note_on_c, 0, 67, 0
2, 20639, Note_on_c, 0, 49, 0
2, 20639, Note_on_c, 0, 61, 64
2, 20640, Note_on_c, 0, 79, 79
2, 20640, Note_on_c, 0, 67, 68
2, 20668, Note_on_c, 0, 61, 0
2, 20668, Note_on_c, 0, 49, 64
2, 20672, Note_on_c, 0, 67, 0
2, 20672, Note_on_c, 0, 79, 0
2, 20677, Control_c, 0, 64, 0
2, 20691, Note_on_c, 0, 49, 0
2, 20700, Note_on_c, 0, 79, 83
2, 20700, Note_on_c, 0, 67, 77
2, 20702, Note_on_c, 0, 41, 65
2, 20705, Control_c, 0, 64, 127
2, 20725, Note_on_c, 0, 41, 0
2, 20733, Note_on_c, 0, 48, 66
2, 20760, Note_on_c, 0, 48, 0
2, 20763, Note_on_c, 0, 56, 66
2, 20767, Note_on_c, 0, 67, 0
2, 20788, Note_on_c, 0, 56, 0
2, 20792, Note_on_c, 0, 48, 66
2, 20820, Note_on_c, 0, 65, 72
2, 20820, Note_on_c, 0, 77, 65
2, 20822, Note_on_c, 0, 60, 63
2, 20823, Note_on_c, 0, 48, 0
2, 20829, Note_on_c, 0, 79, 0
2, 20832, Control_c, 0, 64, 0
2, 20848, Note_on_c, 0, 60, 0
2, 20848, Note_on_c, 0, 65, 0
2, 20852, Note_on_c, 0, 48, 65
2, 20854, Note_on_c, 0, 77, 0
2, 20872, Note_on_c, 0, 48, 0
2, 20880, Control_c, 0, 64, 127
2, 20880, Note_on_c, 0, 67, 58
2, 20881, Note_on_c, 0, 41, 51
2, 20909, Note_on_c, 0, 41, 0
2, 20911, Note_on_c, 0, 49, 52
2, 20921, Note_on_c, 0, 67, 0
2, 20938, Note_on_c, 0, 49, 0
2, 20940, Note_on_c, 0, 67, 61
2, 20942, Note_on_c, 0, 58, 55
2, 20971, Note_on_c, 0, 49, 59
2, 20975, Note_on_c, 0, 58, 0
2, 20975, Note_on_c, 0, 67, 0
2, 21000, Note_on_c, 0, 67, 68
2, 21001, Note_on_c, 0, 61, 59
2, 21003, Note_on_c, 0, 49, 0
2, 21014, Control_c, 0, 64, 0
2, 21026, Note_on_c, 0, 61, 0
2, 21030, Note_on_c, 0, 49, 60
2, 21032, Note_on_c, 0, 67, 0
2, 21052, Control_c, 0, 64, 127
2, 21060, Note_on_c, 0, 67, 71
2, 21061, Note_on_c, 0, 41, 57
2, 21063, Note_on_c, 0, 49, 0
2, 21086, Note_on_c, 0, 41, 0
2, 21091, Note_on_c, 0, 48, 57
2, 21122, Note_on_c, 0, 48, 0
2, 21122, Note_on_c, 0, 56, 58
2, 21150, Note_on_c, 0, 56, 0
2, 21151, Note_on_c, 0, 48, 56
2, 21176, Note_on_c, 0, 48, 0
2, 21177, Note_on_c, 0, 67, 0
2, 21180, Note_on_c, 0, 65, 68
2, 21181, Note_on_c, 0, 60, 55
2, 21200, Control_c, 0, 64, 0
2, 21206, Note_on_c, 0, 65, 0
2, 21209, Note_on_c, 0, 60, 0
2, 21211, Note_on_c, 0, 48, 52
2, 21233, Note_on_c, 0, 48, 0
2, 21241, Control_c, 0, 64, 127
2, 21242, Note_on_c, 0, 41, 63
2, 21249, Note_on_c, 0, 76, 79
2, 21251, Note_on_c, 0, 64, 65
2, 21268, Note_on_c, 0, 41, 0
2, 21272, Note_on_c, 0, 49, 66
2, 21275, Note_on_c, 0, 64, 0
2, 21298, Note_on_c, 0, 49, 0
2, 21302, Note_on_c, 0, 58, 65
2, 21304, Note_on_c, 0, 75, 81
2, 21306, Note_on_c, 0, 63, 73
2, 21308, Note_on_c, 0, 76, 0
2, 21332, Note_on_c, 0, 49, 63
2, 21333, Note_on_c, 0, 58, 0
2, 21337, Note_on_c, 0, 63, 0
2, 21357, Note_on_c, 0, 75, 0
2, 21362, Note_on_c, 0, 61, 66
2, 21363, Note_on_c, 0, 49, 0
2, 21363, Note_on_c, 0, 76, 81
2, 21364, Note_on_c, 0, 64, 73
2, 21382, Control_c, 0, 64, 0
2, 21389, Note_on_c, 0, 61, 0
2, 21391, Note_on_c, 0, 49, 63
2, 21400, Note_on_c, 0, 64, 0
2, 21408, Note_on_c, 0, 76, 0
2, 21416, Control_c, 0, 64, 127
2, 21418, Note_on_c, 0, 49, 0
2, 21422, Note_on_c, 0, 41, 59
2, 21428, Note_on_c, 0, 65, 73
2, 21429, Note_on_c, 0, 77, 80
2, 21444, Note_on_c, 0, 41, 0
2, 21453, Note_on_c, 0, 48, 63
2, 21476, Note_on_c, 0, 48, 0
2, 21483, Note_on_c, 0, 56, 64
2, 21505, Note_on_c, 0, 56, 0
2, 21512, Note_on_c, 0, 48, 64
2, 21536, Note_on_c, 0, 65, 0
2, 21539, Note_on_c, 0, 77, 0
2, 21543, Note_on_c, 0, 48, 0
2, 21543, Note_on_c, 0, 60, 65
2, 21558, Control_c, 0, 64, 0
2, 21567, Note_on_c, 0, 60, 0
2, 21572, Note_on_c, 0, 48, 65
2, 21598, Note_on_c, 0, 48, 0
2, 21599, Note_on_c, 0, 64, 65
2, 21603, Note_on_c, 0, 41, 52
2, 21603, Control_c, 0, 64, 127
2, 21624, Note_on_c, 0, 41, 0
2, 21632, Note_on_c, 0, 49, 52
2, 21660, Note_on_c, 0, 49, 0
2, 21662, Note_on_c, 0, 63, 58
2, 21663, Note_on_c, 0, 64, 0
2, 21663, Note_on_c, 0, 58, 53
2, 21692, Note_on_c, 0, 58, 0
2, 21692, Note_on_c, 0, 49, 52
2, 21720, Note_on_c, 0, 49, 0
2, 21721, Note_on_c, 0, 64, 65
2, 21722, Note_on_c, 0, 61, 48
2, 21727, Note_on_c, 0, 63, 0
2, 21730, Control_c, 0, 64, 0
2, 21749, Note_on_c, 0, 61, 0
2, 21752, Note_on_c, 0, 49, 50
2, 21782, Note_on_c, 0, 49, 0
2, 21782, Control_c, 0, 64, 127
2, 21783, Note_on_c, 0, 41, 56
2, 21786, Note_on_c, 0, 65, 70
2, 21792, Note_on_c, 0, 64, 0
2, 21802, Note_on_c, 0, 41, 0
2, 21811, Note_on_c, 0, 48, 51
2, 21843, Note_on_c, 0, 56, 51
2, 21844, Note_on_c, 0, 48, 0
2, 21867, Note_on_c, 0, 56, 0
2, 21872, Note_on_c, 0, 48, 50
2, 21898, Note_on_c, 0, 48, 0
2, 21902, Note_on_c, 0, 60, 53
2, 21909, Note_on_c, 0, 65, 0
2, 21926, Control_c, 0, 64, 0
2, 21928, Note_on_c, 0, 60, 0
2, 21932, Note_on_c, 0, 48, 57
2, 21959, Note_on_c, 0, 48, 0
2, 21960, Note_on_c, 0, 91, 90
2, 21960, Note_on_c, 0, 79, 82
2, 21960, Note_on_c, 0, 41, 76
2, 21969, Note_on_c, 0, 79, 0
2, 21969, Note_on_c, 0, 91, 0
2, 21973, Control_c, 0, 64, 127
2, 21976, Note_on_c, 0, 41, 0
2, 21986, Note_on_c, 0, 79, 82
2, 21986, Note_on_c, 0, 91, 87
2, 21992, Note_on_c, 0, 49, 77
2, 21993, Note_on_c, 0, 91, 0
2, 21993, Note_on_c, 0, 79, 0
2, 22009, Note_on_c, 0, 79, 77
2, 22009, Note_on_c, 0, 91, 89
2, 22017, Note_on_c, 0, 79, 0
2, 22017, Note_on_c, 0, 49, 0
2, 22018, Note_on_c, 0, 91, 0
2, 22022, Note_on_c, 0, 58, 73
2, 22031, Note_on_c, 0, 91, 90
2, 22032, Note_on_c, 0, 79, 77
2, 22040, Note_on_c, 0, 79, 0
2, 22040, Note_on_c, 0, 91, 0
2, 22051, Note_on_c, 0, 58, 0
2, 22052, Note_on_c, 0, 49, 73
2, 22054, Note_on_c, 0, 79, 83
2, 22055, Note_on_c, 0, 91, 91
2, 22063, Note_on_c, 0, 91, 0
2, 22063, Note_on_c, 0, 79, 0
2, 22079, Note_on_c, 0, 49, 0
2, 22079, Note_on_c, 0, 91, 98
2, 22080, Note_on_c, 0, 79, 81
2, 22082, Note_on_c, 0, 61, 72
2, 22086, Control_c, 0, 64, 0
2, 22089, Note_on_c, 0, 91, 0
2, 22090, Note_on_c, 0, 79, 0
2, 22108, Note_on_c, 0, 61, 0
2, 22111, Note_on_c, 0, 49, 79
2, 22123, Note_on_c, 0, 67, 85
2, 22123, Note_on_c, 0, 79, 74
2, 22127, Note_on_c, 0, 67, 0
2, 22128, Note_on_c, 0, 79, 0
2, 22140, Note_on_c, 0, 49, 0
2, 22141, Note_on_c, 0, 79, 89
2, 22142, Note_on_c, 0, 67, 93
2, 22142, Note_on_c, 0, 41, 77
2, 22150, Control_c, 0, 64, 127
2, 22162, Note_on_c, 0, 41, 0
2, 22171, Note_on_c, 0, 48, 73
2, 22198, Note_on_c, 0, 48, 0
2, 22202, Note_on_c, 0, 56, 77
2, 22224, Note_on_c, 0, 56, 0
2, 22231, Note_on_c, 0, 48, 75
2, 22239, Note_on_c, 0, 67, 0
2, 22259, Note_on_c, 0, 77, 83
2, 22260, Note_on_c, 0, 65, 76
2, 22262, Note_on_c, 0, 60, 75
2, 22263, Note_on_c, 0, 48, 0
2, 22266, Note_on_c, 0, 79, 0
2, 22267, Control_c, 0, 64, 0
2, 22285, Note_on_c, 0, 60, 0
2, 22289, Note_on_c, 0, 65, 0
2, 22291, Note_on_c, 0, 48, 71
2, 22294, Note_on_c, 0, 77, 0
2, 22315, Note_on_c, 0, 48, 0
2, 22319, Control_c, 0, 64, 127
2, 22322, Note_on_c, 0, 79, 72
2, 22322, Note_on_c, 0, 41, 56
2, 22333, Note_on_c, 0, 79, 0
2, 22340, Note_on_c, 0, 41, 0
2, 22348, Note_on_c, 0, 79, 71
2, 22351, Note_on_c, 0, 49, 57
2, 22359, Note_on_c, 0, 79, 0
2, 22371, Note_on_c, 0, 79, 72
2, 22374, Note_on_c, 0, 49, 0
2, 22382, Note_on_c, 0, 79, 0
2, 22382, Note_on_c, 0, 58, 59
2, 22392, Note_on_c, 0, 79, 72
2, 22403, Note_on_c, 0, 79, 0
2, 22410, Note_on_c, 0, 58, 0
2, 22411, Note_on_c, 0, 49, 58
2, 22415, Note_on_c, 0, 79, 74
2, 22425, Note_on_c, 0, 79, 0
2, 22438, Note_on_c, 0, 49, 0
2, 22438, Note_on_c, 0, 79, 72
2, 22442, Note_on_c, 0, 61, 56
2, 22443, Control_c, 0, 64, 0
2, 22453, Note_on_c, 0, 79, 0
2, 22466, Note_on_c, 0, 61, 0
2, 22469, Note_on_c, 0, 49, 56
2, 22483, Note_on_c, 0, 67, 71
2, 22491, Note_on_c, 0, 67, 0
2, 22495, Note_on_c, 0, 49, 0
2, 22500, Note_on_c, 0, 67, 72
2, 22501, Note_on_c, 0, 41, 52
2, 22513, Control_c, 0, 64, 127
2, 22523, Note_on_c, 0, 41, 0
2, 22531, Note_on_c, 0, 48, 56
2, 22561, Note_on_c, 0, 48, 0
2, 22562, Note_on_c, 0, 56, 52
2, 22582, Note_on_c, 0, 56, 0
2, 22589, Note_on_c, 0, 48, 53
2, 22620, Note_on_c, 0, 65, 66
2, 22622, Note_on_c, 0, 48, 0
2, 22622, Note_on_c, 0, 60, 54
2, 22625, Note_on_c, 0, 67, 0
2, 22637, Note_on_c, 0, 65, 0
2, 22642, Control_c, 0, 64, 0
2, 22651, Note_on_c, 0, 60, 0
2, 22652, Note_on_c, 0, 48, 55
2, 22668, Note_on_c, 0, 48, 0
2, 22682, Note_on_c, 0, 41, 69
2, 22683, Control_c, 0, 64, 127
2, 22684, Note_on_c, 0, 76, 92
2, 22685, Note_on_c, 0, 64, 92
2, 22695, Note_on_c, 0, 64, 0
2, 22697, Note_on_c, 0, 76, 0
2, 22709, Note_on_c, 0, 41, 0
2, 22712, Note_on_c, 0, 65, 92
2, 22712, Note_on_c, 0, 49, 69
2, 22713, Note_on_c, 0, 77, 92
2, 22721, Note_on_c, 0, 65, 0
2, 22724, Note_on_c, 0, 77, 0
2, 22739, Note_on_c, 0, 79, 91
2, 22740, Note_on_c, 0, 67, 91
2, 22742, Note_on_c, 0, 49, 0
2, 22742, Note_on_c, 0, 58, 70
2, 22750, Note_on_c, 0, 67, 0
2, 22753, Note_on_c, 0, 79, 0
2, 22771, Note_on_c, 0, 68, 90
2, 22772, Note_on_c, 0, 80, 90
2, 22772, Note_on_c, 0, 49, 72
2, 22774, Note_on_c, 0, 58, 0
2, 22783, Note_on_c, 0, 68, 0
2, 22786, Note_on_c, 0, 80, 0
2, 22797, Note_on_c, 0, 49, 0
2, 22801, Note_on_c, 0, 61, 66
2, 22802, Note_on_c, 0, 82, 91
2, 22804, Note_on_c, 0, 70, 91
2, 22815, Note_on_c, 0, 70, 0
2, 22816, Note_on_c, 0, 82, 0
2, 22826, Note_on_c, 0, 61, 0
2, 22829, Note_on_c, 0, 49, 65
2, 22833, Note_on_c, 0, 68, 93
2, 22834, Note_on_c, 0, 80, 95
2, 22842, Control_c, 0, 64, 0
2, 22844, Note_on_c, 0, 68, 0
2, 22845, Note_on_c, 0, 80, 0
2, 22852, Control_c, 0, 64, 127
2, 22861, Note_on_c, 0, 41, 65
2, 22863, Note_on_c, 0, 77, 94
2, 22864, Note_on_c, 0, 65, 94
2, 22866, Note_on_c, 0, 49, 0
2, 22884, Note_on_c, 0, 41, 0
2, 22891, Note_on_c, 0, 48, 67
2, 22921, Note_on_c, 0, 56, 69
2, 22922, Note_on_c, 0, 48, 0
2, 22944, Note_on_c, 0, 56, 0
2, 22950, Note_on_c, 0, 48, 65
2, 22977, Note_on_c, 0, 48, 0
2, 22977, Control_c, 0, 64, 0
2, 22981, Note_on_c, 0, 60, 68
2, 22985, Note_on_c, 0, 77, 0
2, 22993, Note_on_c, 0, 65, 0
2, 23007, Note_on_c, 0, 60, 0
2, 23011, Note_on_c, 0, 48, 68
2, 23026, Control_c, 0, 64, 127
2, 23030, Note_on_c, 0, 48, 0
2, 23041, Note_on_c, 0, 41, 57
2, 23043, Note_on_c, 0, 64, 62
2, 23057, Note_on_c, 0, 64, 0
2, 23062, Note_on_c, 0, 41, 0
2, 23070, Note_on_c, 0, 49, 54
2, 23071, Note_on_c, 0, 65, 65
2, 23085, Note_on_c, 0, 65, 0
2, 23099, Note_on_c, 0, 49, 0
2, 23100, Note_on_c, 0, 58, 58
2, 23101, Note_on_c, 0, 67, 61
2, 23115, Note_on_c, 0, 67, 0
2, 23127, Note_on_c, 0, 58, 0
2, 23129, Note_on_c, 0, 49, 54
2, 23130, Note_on_c, 0, 68, 58
2, 23144, Note_on_c, 0, 68, 0
2, 23160, Note_on_c, 0, 61, 57
2, 23161, Note_on_c, 0, 70, 62
2, 23163, Note_on_c, 0, 49, 0
2, 23176, Note_on_c, 0, 70, 0
2, 23184, Note_on_c, 0, 61, 0
2, 23189, Note_on_c, 0, 49, 54
2, 23193, Note_on_c, 0, 68, 61
2, 23208, Note_on_c, 0, 68, 0
2, 23216, Note_on_c, 0, 68, 52
2, 23217, Note_on_c, 0, 49, 0
2, 23219, Note_on_c, 0, 41, 54
2, 23222, Control_c, 0, 64, 0
2, 23225, Note_on_c, 0, 65, 67
2, 23230, Control_c, 0, 64, 127
2, 23231, Note_on_c, 0, 68, 0
2, 23244, Note_on_c, 0, 41, 0
2, 23251, Note_on_c, 0, 48, 55
2, 23277, Note_on_c, 0, 48, 0
2, 23281, Note_on_c, 0, 56, 55
2, 23299, Note_on_c, 0, 65, 0
2, 23308, Note_on_c, 0, 56, 0
2, 23309, Note_on_c, 0, 48, 54
2, 23341, Note_on_c, 0, 48, 0
2, 23341, Note_on_c, 0, 60, 56
2, 23367, Control_c, 0, 64, 0
2, 23370, Note_on_c, 0, 60, 0
2, 23372, Note_on_c, 0, 48, 58
2, 23388, Note_on_c, 0, 48, 0
2, 23402, Note_on_c, 0, 41, 63
2, 23405, Note_on_c, 0, 94, 65
2, 23416, Control_c, 0, 64, 127
2, 23433, Note_on_c, 0, 94, 0
2, 23435, Note_on_c, 0, 84, 65
2, 23441, Note_on_c, 0, 41, 0
2, 23461, Note_on_c, 0, 84, 0
2, 23461, Note_on_c, 0, 92, 72
2, 23483, Note_on_c, 0, 92, 0
2, 23483, Note_on_c, 0, 84, 68
2, 23505, Note_on_c, 0, 84, 0
2, 23506, Note_on_c, 0, 85, 60
2, 23506, Note_on_c, 0, 94, 73
2, 23524, Note_on_c, 0, 77, 48
2, 23524, Note_on_c, 0, 84, 74
2, 23525, Note_on_c, 0, 94, 0
2, 23530, Note_on_c, 0, 85, 0
2, 23541, Note_on_c, 0, 77, 0
2, 23546, Note_on_c, 0, 85, 59
2, 23546, Note_on_c, 0, 92, 73
2, 23548, Note_on_c, 0, 84, 0
2, 23562, Note_on_c, 0, 85, 0
2, 23565, Note_on_c, 0, 92, 0
2, 23566, Note_on_c, 0, 77, 57
2, 23566, Note_on_c, 0, 84, 74
2, 23583, Note_on_c, 0, 77, 0
2, 23589, Note_on_c, 0, 84, 0
2, 23589, Note_on_c, 0, 85, 63
2, 23589, Note_on_c, 0, 94, 73
2, 23604, Note_on_c, 0, 85, 0
2, 23612, Note_on_c, 0, 94, 0
2, 23612, Note_on_c, 0, 77, 55
2, 23612, Note_on_c, 0, 84, 66
2, 23632, Note_on_c, 0, 77, 0
2, 23639, Note_on_c, 0, 84, 0
2, 23639, Note_on_c, 0, 85, 63
2, 23639, Note_on_c, 0, 92, 68
2, 23663, Note_on_c, 0, 85, 0
2, 23666, Note_on_c, 0, 77, 52
2, 23666, Note_on_c, 0, 84, 58
2, 23667, Note_on_c, 0, 92, 0
2, 23699, Note_on_c, 0, 82, 55
2, 23699, Note_on_c, 0, 91, 68
2, 23700, Note_on_c, 0, 84, 0
2, 23706, Note_on_c, 0, 77, 0
2, 23722, Note_on_c, 0, 82, 0
2, 23735, Note_on_c, 0, 77, 46
2, 23735, Note_on_c, 0, 80, 65
2, 23740, Note_on_c, 0, 91, 0
2, 23757, Note_on_c, 0, 77, 0
2, 23765, Note_on_c, 0, 82, 62
2, 23765, Note_on_c, 0, 89, 69
2, 23768, Note_on_c, 0, 80, 0
2, 23789, Note_on_c, 0, 77, 37
2, 23789, Note_on_c, 0, 80, 66
2, 23791, Note_on_c, 0, 89, 0
2, 23792, Note_on_c, 0, 82, 0
2, 23817, Note_on_c, 0, 82, 60
2, 23817, Note_on_c, 0, 91, 70
2, 23818, Note_on_c, 0, 80, 0
2, 23820, Note_on_c, 0, 77, 0
2, 23837, Note_on_c, 0, 77, 44
2, 23837, Note_on_c, 0, 80, 67
2, 23840, Note_on_c, 0, 91, 0
2, 23846, Note_on_c, 0, 82, 0
2, 23859, Note_on_c, 0, 77, 0
2, 23866, Note_on_c, 0, 82, 62
2, 23866, Note_on_c, 0, 89, 74
2, 23868, Note_on_c, 0, 80, 0
2, 23887, Note_on_c, 0, 82, 0
2, 23893, Note_on_c, 0, 77, 44
2, 23893, Note_on_c, 0, 80, 65
2, 23894, Note_on_c, 0, 89, 0
2, 23922, Note_on_c, 0, 77, 0
2, 23926, Note_on_c, 0, 80, 0
2, 23926, Note_on_c, 0, 91, 65
2, 23926, Note_on_c, 0, 82, 55
2, 23955, Note_on_c, 0, 82, 0
2, 23961, Note_on_c, 0, 77, 42
2, 23961, Note_on_c, 0, 80, 62
2, 23963, Note_on_c, 0, 91, 0
2, 24000, Note_on_c, 0, 82, 53
2, 24000, Note_on_c, 0, 89, 68
2, 24002, Note_on_c, 0, 77, 0
2, 24005, Note_on_c, 0, 80, 0
2, 24046, Note_on_c, 0, 82, 0
2, 24060, Note_on_c, 0, 77, 42
2, 24060, Note_on_c, 0, 80, 62
2, 24061, Note_on_c, 0, 89, 0
2, 24093, Note_on_c, 0, 80, 0
2, 24097, Note_on_c, 0, 77, 0
2, 24214, Note_on_c, 0, 65, 52
2, 24214, Note_on_c, 0, 101, 65
2, 24312, Note_on_c, 0, 101, 0
2, 24325, Note_on_c, 0, 65, 0
2, 24799, Control_c, 0, 64, 0
2, 24799, End_track
3, 0, Start_track
3, 0, MIDI_port, 0
3, 0, Title_t, "in F Minor"
3, 0, End_track
4, 0, Start_track
4, 0, MIDI_port, 0
4, 0, Title_t, "Op. 10, No. 9"
4, 0, End_track
5, 0, Start_track
5, 0, MIDI_port, 0
5, 0, Title_t, "Chopin, Frederic"
5, 0, End_track
6, 0, Start_track
6, 0, MIDI_port, 0
6, 0, Title_t, "Sequenced by Anousone Kitisa"
6, 0, End_track
0, 0, End_of_file