0, 0, Header, 1, 6, 120
1, 0, Start_track
1, 0, Title_t, "untitled"
1, 0, SMPTE_offset, 96, 0, 3, 0, 0
1, 0, MIDI_port, 0
1, 0, System_exclusive, 0A, 41, 10, 42, 12, 40, 00, 7F, 00, 41, F7
1, 0, MIDI_port, 0
1, 0, System_exclusive, 0A, 41, 10, 42, 12, 40, 01, 30, 03, 0C, F7
1, 0, MIDI_port, 0
1, 0, Time_signature, 4, 2, 24, 8
1, 0, Key_signature, -1, "major"
1, 0, Tempo, 340909
1, 27360, Tempo, 344828
1, 27400, Tempo, 345821
1, 27440, Tempo, 346821
1, 27480, Tempo, 347826
1, 27520, Tempo, 348837
1, 27560, Tempo, 349854
1, 27600, Tempo, 350877
1, 27640, Tempo, 351906
1, 27680, Tempo, 352941
1, 27720, Tempo, 353982
1, 27760, Tempo, 355030
1, 27800, Tempo, 356083
1, 27840, Tempo, 357143
1, 27960, Tempo, 340909
1, 35996, Tempo, 352941
1, 36016, Tempo, 353982
1, 36036, Tempo, 355030
1, 36053, Tempo, 356083
1, 36073, Tempo, 357143
1, 36093, Tempo, 358209
1, 36110, Tempo, 359281
1, 36130, Tempo, 360360
1, 36150, Tempo, 361446
1, 36166, Tempo, 362538
1, 36186, Tempo, 363636
1, 36206, Tempo, 364742
1, 36223, Tempo, 365854
1, 36243, Tempo, 366972
1, 36260, Tempo, 368098
1, 36280, Tempo, 369231
1, 36300, Tempo, 370370
1, 36316, Tempo, 371517
1, 36336, Tempo, 372671
1, 36356, Tempo, 373832
1, 36373, Tempo, 375000
1, 36393, Tempo, 376176
1, 36413, Tempo, 377358
1, 36430, Tempo, 378549
1, 36450, Tempo, 379747
1, 36466, Tempo, 380952
1, 36483, Tempo, 340909
1, 43200, Tempo, 389610
1, 43266, Tempo, 517241
1, 43316, Tempo, 340909
1, 45676, Tempo, 437956
1, 45940, Tempo, 412371
1, 46056, Tempo, 359281
1, 46136, Tempo, 372671
1, 46136, End_track
2, 0, Start_track
2, 0, MIDI_port, 0
2, 0, Title_t, "Etude No. 8"
2, 120, Control_c, 0, 0, 0
2, 120, Control_c, 0, 91, 80
2, 120, Control_c, 0, 0, 0
2, 120, Control_c, 0, 93, 20
2, 122, Program_c, 0, 0
2, 123, Control_c, 0, 7, 127
2, 815, Note_on_c, 0, 84, 68
2, 834, Note_on_c, 0, 84, 0
2, 837, Note_on_c, 0, 86, 68
2, 860, Note_on_c, 0, 84, 66
2, 866, Note_on_c, 0, 86, 0
2, 883, Note_on_c, 0, 86, 61
2, 889, Note_on_c, 0, 84, 0
2, 902, Note_on_c, 0, 84, 72
2, 912, Note_on_c, 0, 86, 0
2, 917, Note_on_c, 0, 83, 63
2, 926, Note_on_c, 0, 84, 0
2, 939, Note_on_c, 0, 84, 80
2, 945, Control_c, 0, 64, 127
2, 947, Note_on_c, 0, 83, 0
2, 960, Note_on_c, 0, 93, 72
2, 963, Note_on_c, 0, 84, 0
2, 963, Note_on_c, 0, 41, 74
2, 964, Note_on_c, 0, 48, 89
2, 987, Note_on_c, 0, 93, 0
2, 990, Note_on_c, 0, 91, 59
2, 1017, Note_on_c, 0, 91, 0
2, 1020, Note_on_c, 0, 89, 60
2, 1047, Note_on_c, 0, 89, 0
2, 1050, Note_on_c, 0, 84, 64
2, 1077, Note_on_c, 0, 84, 0
2, 1080, Note_on_c, 0, 81, 72
2, 1107, Note_on_c, 0, 81, 0
2, 1110, Note_on_c, 0, 79, 57
2, 1125, Note_on_c, 0, 48, 0
2, 1137, Note_on_c, 0, 79, 0
2, 1140, Note_on_c, 0, 77, 59
2, 1167, Note_on_c, 0, 77, 0
2, 1170, Note_on_c, 0, 72, 60
2, 1190, Control_c, 0, 64, 0
2, 1197, Note_on_c, 0, 72, 0
2, 1199, Note_on_c, 0, 47, 72
2, 1200, Note_on_c, 0, 69, 68
2, 1209, Note_on_c, 0, 48, 100
2, 1224, Note_on_c, 0, 47, 0
2, 1227, Note_on_c, 0, 69, 0
2, 1230, Note_on_c, 0, 67, 61
2, 1236, Note_on_c, 0, 48, 0
2, 1257, Note_on_c, 0, 67, 0
2, 1260, Note_on_c, 0, 65, 55
2, 1287, Note_on_c, 0, 65, 0
2, 1290, Note_on_c, 0, 60, 52
2, 1317, Note_on_c, 0, 60, 0
2, 1318, Note_on_c, 0, 48, 87
2, 1320, Note_on_c, 0, 57, 69
2, 1335, Note_on_c, 0, 48, 0
2, 1347, Note_on_c, 0, 57, 0
2, 1350, Note_on_c, 0, 55, 60
2, 1377, Note_on_c, 0, 55, 0
2, 1380, Note_on_c, 0, 53, 62
2, 1401, Note_on_c, 0, 41, 0
2, 1407, Note_on_c, 0, 53, 0
2, 1410, Note_on_c, 0, 48, 58
2, 1437, Note_on_c, 0, 48, 0
2, 1437, Note_on_c, 0, 41, 92
2, 1439, Note_on_c, 0, 29, 94
2, 1440, Note_on_c, 0, 53, 72
2, 1467, Note_on_c, 0, 53, 0
2, 1470, Note_on_c, 0, 55, 64
2, 1497, Note_on_c, 0, 55, 0
2, 1500, Note_on_c, 0, 57, 63
2, 1501, Note_on_c, 0, 29, 0
2, 1502, Note_on_c, 0, 41, 0
2, 1527, Note_on_c, 0, 57, 0
2, 1530, Note_on_c, 0, 60, 62
2, 1556, Note_on_c, 0, 50, 91
2, 1557, Note_on_c, 0, 60, 0
2, 1560, Note_on_c, 0, 65, 71
2, 1587, Note_on_c, 0, 65, 0
2, 1590, Note_on_c, 0, 67, 62
2, 1617, Note_on_c, 0, 67, 0
2, 1620, Note_on_c, 0, 69, 63
2, 1644, Note_on_c, 0, 48, 80
2, 1647, Note_on_c, 0, 69, 0
2, 1648, Note_on_c, 0, 50, 0
2, 1650, Note_on_c, 0, 72, 60
2, 1672, Control_c, 0, 64, 127
2, 1673, Note_on_c, 0, 48, 0
2, 1677, Note_on_c, 0, 72, 0
2, 1679, Note_on_c, 0, 57, 84
2, 1680, Note_on_c, 0, 77, 69
2, 1707, Note_on_c, 0, 77, 0
2, 1710, Note_on_c, 0, 79, 51
2, 1737, Note_on_c, 0, 79, 0
2, 1740, Note_on_c, 0, 81, 60
2, 1767, Note_on_c, 0, 81, 0
2, 1770, Note_on_c, 0, 84, 59
2, 1794, Control_c, 0, 64, 0
2, 1795, Note_on_c, 0, 53, 80
2, 1797, Note_on_c, 0, 84, 0
2, 1800, Note_on_c, 0, 89, 72
2, 1804, Note_on_c, 0, 57, 0
2, 1827, Note_on_c, 0, 89, 0
2, 1830, Note_on_c, 0, 91, 61
2, 1857, Note_on_c, 0, 91, 0
2, 1860, Note_on_c, 0, 93, 63
2, 1882, Note_on_c, 0, 45, 79
2, 1884, Note_on_c, 0, 53, 0
2, 1887, Note_on_c, 0, 93, 0
2, 1890, Note_on_c, 0, 91, 61
2, 1912, Control_c, 0, 64, 127
2, 1917, Note_on_c, 0, 91, 0
2, 1917, Note_on_c, 0, 41, 71
2, 1918, Note_on_c, 0, 48, 86
2, 1920, Note_on_c, 0, 89, 71
2, 1924, Note_on_c, 0, 45, 0
2, 1947, Note_on_c, 0, 89, 0
2, 1950, Note_on_c, 0, 84, 55
2, 1977, Note_on_c, 0, 84, 0
2, 1980, Note_on_c, 0, 81, 58
2, 2007, Note_on_c, 0, 81, 0
2, 2010, Note_on_c, 0, 79, 62
2, 2037, Note_on_c, 0, 79, 0
2, 2040, Note_on_c, 0, 77, 70
2, 2067, Note_on_c, 0, 77, 0
2, 2070, Note_on_c, 0, 72, 56
2, 2097, Note_on_c, 0, 72, 0
2, 2100, Note_on_c, 0, 69, 57
2, 2115, Note_on_c, 0, 48, 0
2, 2127, Note_on_c, 0, 69, 0
2, 2130, Note_on_c, 0, 67, 62
2, 2140, Control_c, 0, 64, 0
2, 2154, Note_on_c, 0, 47, 76
2, 2157, Note_on_c, 0, 67, 0
2, 2160, Note_on_c, 0, 65, 71
2, 2165, Note_on_c, 0, 48, 77
2, 2180, Note_on_c, 0, 47, 0
2, 2187, Note_on_c, 0, 65, 0
2, 2190, Note_on_c, 0, 60, 62
2, 2191, Note_on_c, 0, 48, 0
2, 2217, Note_on_c, 0, 60, 0
2, 2220, Note_on_c, 0, 57, 60
2, 2247, Note_on_c, 0, 57, 0
2, 2250, Note_on_c, 0, 55, 60
2, 2276, Note_on_c, 0, 48, 76
2, 2277, Note_on_c, 0, 55, 0
2, 2280, Note_on_c, 0, 53, 71
2, 2295, Note_on_c, 0, 48, 0
2, 2307, Note_on_c, 0, 53, 0
2, 2310, Note_on_c, 0, 48, 56
2, 2337, Note_on_c, 0, 48, 0
2, 2340, Note_on_c, 0, 53, 65
2, 2352, Note_on_c, 0, 41, 0
2, 2367, Note_on_c, 0, 53, 0
2, 2370, Note_on_c, 0, 57, 63
2, 2386, Control_c, 0, 64, 127
2, 2397, Note_on_c, 0, 57, 0
2, 2400, Note_on_c, 0, 55, 70
2, 2403, Note_on_c, 0, 28, 70
2, 2404, Note_on_c, 0, 40, 71
2, 2427, Note_on_c, 0, 55, 0
2, 2430, Note_on_c, 0, 48, 51
2, 2457, Note_on_c, 0, 48, 0
2, 2460, Note_on_c, 0, 55, 60
2, 2472, Note_on_c, 0, 28, 0
2, 2476, Note_on_c, 0, 40, 0
2, 2487, Note_on_c, 0, 55, 0
2, 2490, Note_on_c, 0, 57, 58
2, 2512, Control_c, 0, 64, 0
2, 2515, Note_on_c, 0, 50, 79
2, 2517, Note_on_c, 0, 57, 0
2, 2520, Note_on_c, 0, 58, 72
2, 2547, Note_on_c, 0, 58, 0
2, 2550, Note_on_c, 0, 60, 60
2, 2577, Note_on_c, 0, 60, 0
2, 2580, Note_on_c, 0, 67, 67
2, 2607, Note_on_c, 0, 67, 0
2, 2610, Note_on_c, 0, 69, 60
2, 2610, Note_on_c, 0, 48, 76
2, 2611, Note_on_c, 0, 50, 0
2, 2634, Control_c, 0, 64, 127
2, 2637, Note_on_c, 0, 69, 0
2, 2640, Note_on_c, 0, 70, 70
2, 2641, Note_on_c, 0, 55, 92
2, 2650, Note_on_c, 0, 48, 0
2, 2667, Note_on_c, 0, 70, 0
2, 2670, Note_on_c, 0, 72, 54
2, 2697, Note_on_c, 0, 72, 0
2, 2700, Note_on_c, 0, 79, 57
2, 2727, Note_on_c, 0, 79, 0
2, 2730, Note_on_c, 0, 81, 60
2, 2757, Note_on_c, 0, 81, 0
2, 2760, Note_on_c, 0, 82, 70
2, 2760, Note_on_c, 0, 62, 92
2, 2764, Control_c, 0, 64, 0
2, 2779, Note_on_c, 0, 62, 0
2, 2787, Note_on_c, 0, 82, 0
2, 2788, Note_on_c, 0, 55, 0
2, 2790, Note_on_c, 0, 84, 56
2, 2817, Note_on_c, 0, 84, 0
2, 2820, Note_on_c, 0, 91, 60
2, 2840, Note_on_c, 0, 40, 70
2, 2847, Note_on_c, 0, 91, 0
2, 2849, Control_c, 0, 64, 127
2, 2850, Note_on_c, 0, 93, 62
2, 2865, Note_on_c, 0, 40, 0
2, 2868, Note_on_c, 0, 48, 84
2, 2877, Note_on_c, 0, 93, 0
2, 2880, Note_on_c, 0, 94, 74
2, 2907, Note_on_c, 0, 94, 0
2, 2907, Note_on_c, 0, 60, 86
2, 2910, Note_on_c, 0, 93, 60
2, 2937, Note_on_c, 0, 93, 0
2, 2940, Note_on_c, 0, 91, 57
2, 2967, Note_on_c, 0, 91, 0
2, 2970, Note_on_c, 0, 84, 58
2, 2981, Note_on_c, 0, 48, 0
2, 2997, Note_on_c, 0, 84, 0
2, 3000, Note_on_c, 0, 82, 72
2, 3006, Note_on_c, 0, 60, 0
2, 3027, Note_on_c, 0, 82, 0
2, 3030, Note_on_c, 0, 81, 64
2, 3057, Note_on_c, 0, 81, 0
2, 3060, Note_on_c, 0, 79, 60
2, 3076, Control_c, 0, 64, 0
2, 3087, Note_on_c, 0, 79, 0
2, 3090, Note_on_c, 0, 72, 60
2, 3117, Note_on_c, 0, 72, 0
2, 3120, Note_on_c, 0, 70, 72
2, 3126, Note_on_c, 0, 47, 68
2, 3133, Note_on_c, 0, 48, 86
2, 3142, Note_on_c, 0, 47, 0
2, 3147, Note_on_c, 0, 70, 0
2, 3150, Note_on_c, 0, 69, 59
2, 3154, Note_on_c, 0, 48, 0
2, 3177, Note_on_c, 0, 69, 0
2, 3180, Note_on_c, 0, 67, 62
2, 3207, Note_on_c, 0, 67, 0
2, 3210, Note_on_c, 0, 60, 59
2, 3237, Note_on_c, 0, 60, 0
2, 3240, Note_on_c, 0, 58, 71
2, 3240, Note_on_c, 0, 48, 82
2, 3257, Note_on_c, 0, 48, 0
2, 3267, Note_on_c, 0, 58, 0
2, 3270, Note_on_c, 0, 57, 61
2, 3297, Note_on_c, 0, 57, 0
2, 3300, Note_on_c, 0, 55, 66
2, 3327, Note_on_c, 0, 55, 0
2, 3330, Note_on_c, 0, 48, 58
2, 3352, Control_c, 0, 64, 127
2, 3357, Note_on_c, 0, 48, 0
2, 3357, Note_on_c, 0, 28, 79
2, 3358, Note_on_c, 0, 40, 79
2, 3360, Note_on_c, 0, 55, 69
2, 3387, Note_on_c, 0, 55, 0
2, 3390, Note_on_c, 0, 57, 60
2, 3416, Note_on_c, 0, 28, 0
2, 3417, Note_on_c, 0, 57, 0
2, 3417, Note_on_c, 0, 40, 0
2, 3420, Note_on_c, 0, 58, 57
2, 3447, Note_on_c, 0, 58, 0
2, 3450, Note_on_c, 0, 60, 61
2, 3466, Control_c, 0, 64, 0
2, 3475, Note_on_c, 0, 50, 86
2, 3477, Note_on_c, 0, 60, 0
2, 3480, Note_on_c, 0, 67, 72
2, 3507, Note_on_c, 0, 67, 0
2, 3510, Note_on_c, 0, 69, 56
2, 3537, Note_on_c, 0, 69, 0
2, 3540, Note_on_c, 0, 70, 60
2, 3563, Note_on_c, 0, 50, 0
2, 3567, Note_on_c, 0, 70, 0
2, 3567, Note_on_c, 0, 48, 81
2, 3570, Note_on_c, 0, 72, 59
2, 3595, Control_c, 0, 64, 127
2, 3597, Note_on_c, 0, 72, 0
2, 3599, Note_on_c, 0, 48, 0
2, 3599, Note_on_c, 0, 58, 93
2, 3600, Note_on_c, 0, 79, 70
2, 3627, Note_on_c, 0, 79, 0
2, 3630, Note_on_c, 0, 81, 60
2, 3657, Note_on_c, 0, 81, 0
2, 3660, Note_on_c, 0, 82, 60
2, 3679, Note_on_c, 0, 58, 0
2, 3687, Note_on_c, 0, 82, 0
2, 3690, Note_on_c, 0, 84, 58
2, 3714, Control_c, 0, 64, 0
2, 3717, Note_on_c, 0, 84, 0
2, 3718, Note_on_c, 0, 55, 78
2, 3720, Note_on_c, 0, 91, 70
2, 3747, Note_on_c, 0, 91, 0
2, 3750, Note_on_c, 0, 93, 62
2, 3775, Note_on_c, 0, 55, 0
2, 3777, Note_on_c, 0, 93, 0
2, 3780, Note_on_c, 0, 94, 64
2, 3803, Note_on_c, 0, 43, 80
2, 3807, Note_on_c, 0, 94, 0
2, 3810, Note_on_c, 0, 93, 58
2, 3835, Note_on_c, 0, 43, 0
2, 3836, Note_on_c, 0, 48, 83
2, 3837, Note_on_c, 0, 93, 0
2, 3837, Note_on_c, 0, 40, 71
2, 3838, Control_c, 0, 64, 127
2, 3840, Note_on_c, 0, 91, 72
2, 3867, Note_on_c, 0, 91, 0
2, 3870, Note_on_c, 0, 84, 65
2, 3897, Note_on_c, 0, 84, 0
2, 3900, Note_on_c, 0, 82, 54
2, 3927, Note_on_c, 0, 82, 0
2, 3930, Note_on_c, 0, 81, 58
2, 3957, Note_on_c, 0, 81, 0
2, 3960, Note_on_c, 0, 79, 70
2, 3987, Note_on_c, 0, 79, 0
2, 3990, Note_on_c, 0, 72, 62
2, 4017, Note_on_c, 0, 72, 0
2, 4020, Note_on_c, 0, 70, 61
2, 4037, Note_on_c, 0, 48, 0
2, 4047, Note_on_c, 0, 70, 0
2, 4050, Note_on_c, 0, 69, 61
2, 4061, Control_c, 0, 64, 0
2, 4077, Note_on_c, 0, 69, 0
2, 4080, Note_on_c, 0, 67, 68
2, 4084, Note_on_c, 0, 47, 75
2, 4095, Note_on_c, 0, 48, 82
2, 4106, Note_on_c, 0, 47, 0
2, 4107, Note_on_c, 0, 67, 0
2, 4110, Note_on_c, 0, 60, 57
2, 4116, Note_on_c, 0, 48, 0
2, 4137, Note_on_c, 0, 60, 0
2, 4140, Note_on_c, 0, 58, 55
2, 4167, Note_on_c, 0, 58, 0
2, 4170, Note_on_c, 0, 57, 59
2, 4197, Note_on_c, 0, 57, 0
2, 4200, Note_on_c, 0, 55, 69
2, 4201, Note_on_c, 0, 48, 80
2, 4217, Note_on_c, 0, 48, 0
2, 4227, Note_on_c, 0, 55, 0
2, 4230, Note_on_c, 0, 48, 57
2, 4257, Note_on_c, 0, 48, 0
2, 4260, Note_on_c, 0, 55, 56
2, 4261, Note_on_c, 0, 40, 0
2, 4287, Note_on_c, 0, 55, 0
2, 4290, Note_on_c, 0, 58, 62
2, 4317, Note_on_c, 0, 58, 0
2, 4320, Note_on_c, 0, 57, 66
2, 4322, Control_c, 0, 64, 127
2, 4326, Note_on_c, 0, 41, 83
2, 4327, Note_on_c, 0, 29, 83
2, 4347, Note_on_c, 0, 57, 0
2, 4350, Note_on_c, 0, 48, 59
2, 4368, Note_on_c, 0, 41, 0
2, 4376, Note_on_c, 0, 29, 0
2, 4377, Note_on_c, 0, 48, 0
2, 4380, Note_on_c, 0, 53, 54
2, 4407, Note_on_c, 0, 53, 0
2, 4410, Note_on_c, 0, 55, 55
2, 4437, Note_on_c, 0, 55, 0
2, 4440, Note_on_c, 0, 57, 70
2, 4441, Note_on_c, 0, 50, 91
2, 4443, Control_c, 0, 64, 0
2, 4467, Note_on_c, 0, 57, 0
2, 4470, Note_on_c, 0, 60, 57
2, 4497, Note_on_c, 0, 60, 0
2, 4500, Note_on_c, 0, 65, 55
2, 4526, Note_on_c, 0, 50, 0
2, 4526, Note_on_c, 0, 48, 78
2, 4527, Note_on_c, 0, 65, 0
2, 4530, Note_on_c, 0, 67, 60
2, 4555, Note_on_c, 0, 53, 89
2, 4557, Note_on_c, 0, 67, 0
2, 4560, Note_on_c, 0, 69, 66
2, 4563, Control_c, 0, 64, 127
2, 4564, Note_on_c, 0, 48, 0
2, 4587, Note_on_c, 0, 69, 0
2, 4590, Note_on_c, 0, 72, 52
2, 4617, Note_on_c, 0, 72, 0
2, 4620, Note_on_c, 0, 77, 53
2, 4647, Note_on_c, 0, 77, 0
2, 4650, Note_on_c, 0, 79, 64
2, 4674, Note_on_c, 0, 53, 0
2, 4677, Note_on_c, 0, 79, 0
2, 4677, Note_on_c, 0, 65, 94
2, 4678, Control_c, 0, 64, 0
2, 4680, Note_on_c, 0, 81, 69
2, 4707, Note_on_c, 0, 81, 0
2, 4710, Note_on_c, 0, 84, 65
2, 4737, Note_on_c, 0, 84, 0
2, 4740, Note_on_c, 0, 89, 56
2, 4748, Note_on_c, 0, 65, 0
2, 4767, Note_on_c, 0, 89, 0
2, 4770, Note_on_c, 0, 93, 56
2, 4792, Control_c, 0, 64, 127
2, 4797, Note_on_c, 0, 93, 0
2, 4798, Note_on_c, 0, 53, 60
2, 4799, Note_on_c, 0, 65, 68
2, 4800, Note_on_c, 0, 91, 60
2, 4800, Note_on_c, 0, 62, 75
2, 4801, Note_on_c, 0, 58, 75
2, 4827, Note_on_c, 0, 91, 0
2, 4830, Note_on_c, 0, 89, 67
2, 4857, Note_on_c, 0, 89, 0
2, 4860, Note_on_c, 0, 86, 61
2, 4887, Note_on_c, 0, 86, 0
2, 4890, Note_on_c, 0, 82, 62
2, 4917, Note_on_c, 0, 82, 0
2, 4920, Note_on_c, 0, 79, 60
2, 4947, Note_on_c, 0, 79, 0
2, 4950, Note_on_c, 0, 77, 66
2, 4971, Note_on_c, 0, 62, 0
2, 4973, Note_on_c, 0, 58, 0
2, 4977, Note_on_c, 0, 77, 0
2, 4978, Note_on_c, 0, 65, 0
2, 4980, Note_on_c, 0, 53, 0
2, 4980, Note_on_c, 0, 74, 64
2, 5007, Note_on_c, 0, 74, 0
2, 5010, Note_on_c, 0, 70, 57
2, 5035, Note_on_c, 0, 60, 70
2, 5036, Control_c, 0, 64, 0
2, 5036, Note_on_c, 0, 65, 59
2, 5037, Note_on_c, 0, 70, 0
2, 5038, Note_on_c, 0, 57, 72
2, 5039, Note_on_c, 0, 53, 62
2, 5040, Note_on_c, 0, 72, 70
2, 5066, Note_on_c, 0, 60, 0
2, 5067, Note_on_c, 0, 72, 0
2, 5069, Note_on_c, 0, 57, 0
2, 5070, Note_on_c, 0, 53, 0
2, 5070, Note_on_c, 0, 77, 56
2, 5072, Note_on_c, 0, 65, 0
2, 5097, Note_on_c, 0, 77, 0
2, 5100, Note_on_c, 0, 79, 60
2, 5127, Note_on_c, 0, 79, 0
2, 5130, Note_on_c, 0, 81, 55
2, 5152, Note_on_c, 0, 65, 70
2, 5153, Note_on_c, 0, 60, 78
2, 5154, Note_on_c, 0, 57, 78
2, 5155, Note_on_c, 0, 53, 66
2, 5157, Note_on_c, 0, 81, 0
2, 5160, Note_on_c, 0, 84, 72
2, 5182, Note_on_c, 0, 57, 0
2, 5182, Note_on_c, 0, 60, 0
2, 5183, Note_on_c, 0, 53, 0
2, 5187, Note_on_c, 0, 84, 0
2, 5187, Note_on_c, 0, 65, 0
2, 5190, Note_on_c, 0, 89, 56
2, 5217, Note_on_c, 0, 89, 0
2, 5220, Note_on_c, 0, 91, 54
2, 5247, Note_on_c, 0, 91, 0
2, 5250, Note_on_c, 0, 93, 58
2, 5264, Control_c, 0, 64, 127
2, 5277, Note_on_c, 0, 93, 0
2, 5277, Note_on_c, 0, 62, 76
2, 5278, Note_on_c, 0, 58, 75
2, 5279, Note_on_c, 0, 65, 71
2, 5280, Note_on_c, 0, 91, 56
2, 5280, Note_on_c, 0, 53, 58
2, 5307, Note_on_c, 0, 91, 0
2, 5310, Note_on_c, 0, 89, 59
2, 5337, Note_on_c, 0, 89, 0
2, 5340, Note_on_c, 0, 86, 56
2, 5367, Note_on_c, 0, 86, 0
2, 5370, Note_on_c, 0, 82, 56
2, 5397, Note_on_c, 0, 82, 0
2, 5400, Note_on_c, 0, 79, 64
2, 5427, Note_on_c, 0, 79, 0
2, 5430, Note_on_c, 0, 77, 55
2, 5457, Note_on_c, 0, 77, 0
2, 5460, Note_on_c, 0, 74, 55
2, 5465, Note_on_c, 0, 62, 0
2, 5465, Note_on_c, 0, 58, 0
2, 5468, Note_on_c, 0, 65, 0
2, 5472, Note_on_c, 0, 53, 0
2, 5487, Note_on_c, 0, 74, 0
2, 5490, Note_on_c, 0, 70, 57
2, 5514, Control_c, 0, 64, 0
2, 5517, Note_on_c, 0, 70, 0
2, 5518, Note_on_c, 0, 60, 65
2, 5519, Note_on_c, 0, 65, 64
2, 5520, Note_on_c, 0, 72, 70
2, 5520, Note_on_c, 0, 57, 68
2, 5521, Note_on_c, 0, 53, 58
2, 5546, Note_on_c, 0, 60, 0
2, 5547, Note_on_c, 0, 72, 0
2, 5548, Note_on_c, 0, 57, 0
2, 5550, Note_on_c, 0, 77, 56
2, 5553, Note_on_c, 0, 53, 0
2, 5553, Note_on_c, 0, 65, 0
2, 5577, Note_on_c, 0, 77, 0
2, 5580, Note_on_c, 0, 79, 53
2, 5607, Note_on_c, 0, 79, 0
2, 5610, Note_on_c, 0, 81, 55
2, 5637, Note_on_c, 0, 81, 0
2, 5640, Note_on_c, 0, 84, 72
2, 5641, Note_on_c, 0, 65, 67
2, 5642, Note_on_c, 0, 60, 73
2, 5643, Note_on_c, 0, 53, 68
2, 5645, Note_on_c, 0, 57, 73
2, 5667, Note_on_c, 0, 84, 0
2, 5670, Note_on_c, 0, 89, 60
2, 5672, Note_on_c, 0, 60, 0
2, 5673, Note_on_c, 0, 65, 0
2, 5675, Note_on_c, 0, 53, 0
2, 5676, Note_on_c, 0, 57, 0
2, 5697, Note_on_c, 0, 89, 0
2, 5700, Note_on_c, 0, 91, 62
2, 5727, Note_on_c, 0, 91, 0
2, 5730, Note_on_c, 0, 93, 60
2, 5756, Control_c, 0, 64, 127
2, 5757, Note_on_c, 0, 93, 0
2, 5760, Note_on_c, 0, 91, 69
2, 5762, Note_on_c, 0, 65, 75
2, 5763, Note_on_c, 0, 59, 82
2, 5764, Note_on_c, 0, 55, 71
2, 5787, Note_on_c, 0, 91, 0
2, 5790, Note_on_c, 0, 93, 54
2, 5817, Note_on_c, 0, 93, 0
2, 5820, Note_on_c, 0, 91, 58
2, 5847, Note_on_c, 0, 91, 0
2, 5850, Note_on_c, 0, 89, 62
2, 5877, Note_on_c, 0, 89, 0
2, 5880, Note_on_c, 0, 86, 72
2, 5907, Note_on_c, 0, 86, 0
2, 5910, Note_on_c, 0, 83, 62
2, 5937, Note_on_c, 0, 83, 0
2, 5940, Note_on_c, 0, 84, 63
2, 5967, Note_on_c, 0, 84, 0
2, 5970, Note_on_c, 0, 81, 62
2, 5997, Note_on_c, 0, 81, 0
2, 6000, Note_on_c, 0, 79, 71
2, 6010, Note_on_c, 0, 62, 59
2, 6015, Note_on_c, 0, 59, 0
2, 6027, Note_on_c, 0, 79, 0
2, 6030, Note_on_c, 0, 81, 58
2, 6057, Note_on_c, 0, 81, 0
2, 6060, Note_on_c, 0, 79, 60
2, 6087, Note_on_c, 0, 79, 0
2, 6090, Note_on_c, 0, 77, 62
2, 6105, Note_on_c, 0, 65, 0
2, 6105, Note_on_c, 0, 62, 0
2, 6112, Note_on_c, 0, 55, 0
2, 6117, Note_on_c, 0, 77, 0
2, 6120, Note_on_c, 0, 74, 73
2, 6123, Control_c, 0, 64, 0
2, 6147, Note_on_c, 0, 74, 0
2, 6150, Note_on_c, 0, 71, 60
2, 6177, Note_on_c, 0, 71, 0
2, 6180, Note_on_c, 0, 72, 66
2, 6207, Note_on_c, 0, 72, 0
2, 6210, Note_on_c, 0, 69, 62
2, 6237, Note_on_c, 0, 69, 0
2, 6240, Note_on_c, 0, 67, 74
2, 6267, Note_on_c, 0, 67, 0
2, 6270, Note_on_c, 0, 69, 58
2, 6297, Note_on_c, 0, 69, 0
2, 6300, Note_on_c, 0, 67, 60
2, 6327, Note_on_c, 0, 67, 0
2, 6330, Note_on_c, 0, 65, 59
2, 6357, Note_on_c, 0, 65, 0
2, 6360, Note_on_c, 0, 62, 64
2, 6387, Note_on_c, 0, 62, 0
2, 6390, Note_on_c, 0, 59, 55
2, 6417, Note_on_c, 0, 59, 0
2, 6420, Note_on_c, 0, 60, 57
2, 6447, Note_on_c, 0, 60, 0
2, 6450, Note_on_c, 0, 57, 54
2, 6477, Note_on_c, 0, 57, 0
2, 6480, Note_on_c, 0, 55, 58
2, 6507, Note_on_c, 0, 55, 0
2, 6510, Note_on_c, 0, 57, 56
2, 6537, Note_on_c, 0, 57, 0
2, 6540, Note_on_c, 0, 55, 53
2, 6567, Note_on_c, 0, 55, 0
2, 6570, Note_on_c, 0, 53, 56
2, 6594, Note_on_c, 0, 43, 63
2, 6597, Note_on_c, 0, 53, 0
2, 6600, Note_on_c, 0, 50, 54
2, 6627, Note_on_c, 0, 50, 0
2, 6630, Note_on_c, 0, 53, 56
2, 6657, Note_on_c, 0, 53, 0
2, 6660, Note_on_c, 0, 52, 52
2, 6687, Note_on_c, 0, 52, 0
2, 6689, Note_on_c, 0, 43, 0
2, 6690, Note_on_c, 0, 50, 58
2, 6709, Control_c, 0, 64, 127
2, 6717, Note_on_c, 0, 50, 0
2, 6718, Note_on_c, 0, 36, 68
2, 6719, Note_on_c, 0, 43, 74
2, 6720, Note_on_c, 0, 48, 49
2, 6747, Note_on_c, 0, 48, 0
2, 6750, Note_on_c, 0, 57, 48
2, 6777, Note_on_c, 0, 57, 0
2, 6780, Note_on_c, 0, 55, 47
2, 6807, Note_on_c, 0, 55, 0
2, 6810, Note_on_c, 0, 59, 46
2, 6829, Control_c, 0, 64, 0
2, 6837, Note_on_c, 0, 59, 0
2, 6840, Note_on_c, 0, 60, 56
2, 6867, Note_on_c, 0, 60, 0
2, 6870, Note_on_c, 0, 69, 47
2, 6897, Note_on_c, 0, 69, 0
2, 6900, Note_on_c, 0, 67, 49
2, 6927, Note_on_c, 0, 67, 0
2, 6930, Note_on_c, 0, 71, 51
2, 6954, Control_c, 0, 64, 127
2, 6957, Note_on_c, 0, 71, 0
2, 6960, Note_on_c, 0, 72, 63
2, 6987, Note_on_c, 0, 72, 0
2, 6990, Note_on_c, 0, 81, 52
2, 7017, Note_on_c, 0, 81, 0
2, 7020, Note_on_c, 0, 79, 55
2, 7047, Note_on_c, 0, 79, 0
2, 7050, Note_on_c, 0, 83, 54
2, 7051, Note_on_c, 0, 36, 0
2, 7054, Note_on_c, 0, 43, 0
2, 7077, Note_on_c, 0, 83, 0
2, 7080, Note_on_c, 0, 84, 64
2, 7107, Note_on_c, 0, 84, 0
2, 7110, Note_on_c, 0, 93, 55
2, 7132, Control_c, 0, 64, 0
2, 7137, Note_on_c, 0, 93, 0
2, 7140, Note_on_c, 0, 91, 51
2, 7167, Note_on_c, 0, 91, 0
2, 7170, Note_on_c, 0, 95, 53
2, 7182, Note_on_c, 0, 48, 81
2, 7185, Control_c, 0, 64, 127
2, 7194, Note_on_c, 0, 55, 81
2, 7197, Note_on_c, 0, 95, 0
2, 7200, Note_on_c, 0, 96, 64
2, 7201, Note_on_c, 0, 48, 0
2, 7214, Note_on_c, 0, 64, 73
2, 7227, Note_on_c, 0, 96, 0
2, 7230, Note_on_c, 0, 89, 52
2, 7257, Note_on_c, 0, 89, 0
2, 7260, Note_on_c, 0, 88, 55
2, 7287, Note_on_c, 0, 88, 0
2, 7290, Note_on_c, 0, 98, 51
2, 7317, Note_on_c, 0, 98, 0
2, 7320, Note_on_c, 0, 96, 64
2, 7347, Note_on_c, 0, 96, 0
2, 7350, Note_on_c, 0, 89, 52
2, 7377, Note_on_c, 0, 89, 0
2, 7380, Note_on_c, 0, 88, 56
2, 7407, Note_on_c, 0, 88, 0
2, 7410, Note_on_c, 0, 98, 54
2, 7435, Control_c, 0, 64, 0
2, 7436, Note_on_c, 0, 64, 0
2, 7437, Note_on_c, 0, 98, 0
2, 7440, Note_on_c, 0, 96, 60
2, 7447, Note_on_c, 0, 55, 0
2, 7467, Note_on_c, 0, 96, 0
2, 7470, Note_on_c, 0, 89, 52
2, 7497, Note_on_c, 0, 89, 0
2, 7500, Note_on_c, 0, 88, 54
2, 7527, Note_on_c, 0, 88, 0
2, 7530, Note_on_c, 0, 98, 54
2, 7534, Control_c, 0, 64, 127
2, 7540, Note_on_c, 0, 48, 70
2, 7553, Note_on_c, 0, 55, 84
2, 7555, Note_on_c, 0, 48, 0
2, 7557, Note_on_c, 0, 98, 0
2, 7560, Note_on_c, 0, 96, 63
2, 7562, Note_on_c, 0, 58, 65
2, 7569, Note_on_c, 0, 64, 83
2, 7584, Note_on_c, 0, 55, 0
2, 7586, Note_on_c, 0, 58, 0
2, 7587, Note_on_c, 0, 96, 0
2, 7587, Note_on_c, 0, 64, 0
2, 7590, Note_on_c, 0, 93, 56
2, 7617, Note_on_c, 0, 93, 0
2, 7620, Note_on_c, 0, 94, 58
2, 7626, Control_c, 0, 64, 0
2, 7636, Note_on_c, 0, 41, 69
2, 7647, Note_on_c, 0, 94, 0
2, 7650, Note_on_c, 0, 91, 59
2, 7657, Control_c, 0, 64, 127
2, 7657, Note_on_c, 0, 48, 74
2, 7662, Note_on_c, 0, 41, 0
2, 7677, Note_on_c, 0, 91, 0
2, 7680, Note_on_c, 0, 93, 61
2, 7682, Note_on_c, 0, 48, 0
2, 7685, Note_on_c, 0, 57, 83
2, 7692, Note_on_c, 0, 57, 0
2, 7707, Note_on_c, 0, 93, 0
2, 7709, Note_on_c, 0, 65, 91
2, 7710, Note_on_c, 0, 91, 54
2, 7732, Note_on_c, 0, 65, 0
2, 7737, Note_on_c, 0, 91, 0
2, 7740, Note_on_c, 0, 89, 58
2, 7767, Note_on_c, 0, 89, 0
2, 7770, Note_on_c, 0, 84, 51
2, 7797, Note_on_c, 0, 84, 0
2, 7800, Note_on_c, 0, 81, 66
2, 7827, Note_on_c, 0, 81, 0
2, 7830, Note_on_c, 0, 79, 56
2, 7857, Note_on_c, 0, 79, 0
2, 7860, Note_on_c, 0, 77, 55
2, 7884, Control_c, 0, 64, 0
2, 7887, Note_on_c, 0, 77, 0
2, 7890, Note_on_c, 0, 72, 61
2, 7916, Control_c, 0, 64, 127
2, 7917, Note_on_c, 0, 72, 0
2, 7920, Note_on_c, 0, 69, 66
2, 7926, Note_on_c, 0, 47, 66
2, 7935, Note_on_c, 0, 48, 87
2, 7946, Note_on_c, 0, 47, 0
2, 7947, Note_on_c, 0, 69, 0
2, 7950, Note_on_c, 0, 67, 56
2, 7962, Note_on_c, 0, 48, 0
2, 7977, Note_on_c, 0, 67, 0
2, 7980, Note_on_c, 0, 65, 59
2, 8007, Note_on_c, 0, 65, 0
2, 8010, Note_on_c, 0, 60, 55
2, 8031, Control_c, 0, 64, 0
2, 8037, Note_on_c, 0, 60, 0
2, 8040, Note_on_c, 0, 57, 66
2, 8040, Note_on_c, 0, 48, 94
2, 8059, Note_on_c, 0, 48, 0
2, 8067, Note_on_c, 0, 57, 0
2, 8070, Note_on_c, 0, 55, 56
2, 8097, Note_on_c, 0, 55, 0
2, 8100, Note_on_c, 0, 53, 56
2, 8127, Note_on_c, 0, 53, 0
2, 8130, Note_on_c, 0, 48, 58
2, 8156, Control_c, 0, 64, 127
2, 8157, Note_on_c, 0, 48, 0
2, 8157, Note_on_c, 0, 29, 87
2, 8158, Note_on_c, 0, 41, 89
2, 8160, Note_on_c, 0, 53, 67
2, 8176, Note_on_c, 0, 29, 0
2, 8187, Note_on_c, 0, 53, 0
2, 8187, Note_on_c, 0, 41, 0
2, 8190, Note_on_c, 0, 55, 50
2, 8217, Note_on_c, 0, 55, 0
2, 8220, Note_on_c, 0, 57, 52
2, 8247, Note_on_c, 0, 57, 0
2, 8250, Note_on_c, 0, 60, 54
2, 8275, Note_on_c, 0, 50, 73
2, 8277, Note_on_c, 0, 60, 0
2, 8280, Note_on_c, 0, 65, 63
2, 8304, Control_c, 0, 64, 0
2, 8307, Note_on_c, 0, 65, 0
2, 8310, Note_on_c, 0, 67, 50
2, 8337, Note_on_c, 0, 67, 0
2, 8340, Note_on_c, 0, 69, 50
2, 8345, Note_on_c, 0, 50, 0
2, 8363, Note_on_c, 0, 48, 73
2, 8367, Note_on_c, 0, 69, 0
2, 8370, Note_on_c, 0, 72, 51
2, 8389, Control_c, 0, 64, 127
2, 8392, Note_on_c, 0, 57, 80
2, 8394, Note_on_c, 0, 48, 0
2, 8397, Note_on_c, 0, 72, 0
2, 8400, Note_on_c, 0, 77, 62
2, 8427, Note_on_c, 0, 77, 0
2, 8430, Note_on_c, 0, 79, 47
2, 8457, Note_on_c, 0, 79, 0
2, 8460, Note_on_c, 0, 81, 58
2, 8487, Note_on_c, 0, 81, 0
2, 8490, Note_on_c, 0, 84, 52
2, 8510, Control_c, 0, 64, 0
2, 8517, Note_on_c, 0, 84, 0
2, 8520, Note_on_c, 0, 89, 62
2, 8520, Note_on_c, 0, 53, 76
2, 8531, Note_on_c, 0, 57, 0
2, 8547, Note_on_c, 0, 89, 0
2, 8550, Note_on_c, 0, 91, 50
2, 8577, Note_on_c, 0, 91, 0
2, 8580, Note_on_c, 0, 93, 52
2, 8607, Note_on_c, 0, 93, 0
2, 8607, Note_on_c, 0, 53, 0
2, 8610, Note_on_c, 0, 91, 51
2, 8610, Note_on_c, 0, 45, 66
2, 8621, Control_c, 0, 64, 127
2, 8637, Note_on_c, 0, 91, 0
2, 8640, Note_on_c, 0, 89, 64
2, 8643, Note_on_c, 0, 48, 83
2, 8644, Note_on_c, 0, 41, 72
2, 8650, Note_on_c, 0, 45, 0
2, 8667, Note_on_c, 0, 89, 0
2, 8670, Note_on_c, 0, 84, 53
2, 8697, Note_on_c, 0, 84, 0
2, 8700, Note_on_c, 0, 81, 59
2, 8727, Note_on_c, 0, 81, 0
2, 8730, Note_on_c, 0, 79, 53
2, 8757, Note_on_c, 0, 79, 0
2, 8760, Note_on_c, 0, 77, 63
2, 8787, Note_on_c, 0, 77, 0
2, 8790, Note_on_c, 0, 72, 61
2, 8817, Note_on_c, 0, 72, 0
2, 8820, Note_on_c, 0, 69, 52
2, 8847, Note_on_c, 0, 69, 0
2, 8850, Note_on_c, 0, 67, 53
2, 8863, Note_on_c, 0, 48, 0
2, 8866, Control_c, 0, 64, 0
2, 8876, Note_on_c, 0, 47, 71
2, 8877, Note_on_c, 0, 67, 0
2, 8880, Note_on_c, 0, 65, 62
2, 8892, Note_on_c, 0, 48, 74
2, 8903, Note_on_c, 0, 47, 0
2, 8907, Note_on_c, 0, 65, 0
2, 8910, Note_on_c, 0, 60, 50
2, 8918, Note_on_c, 0, 48, 0
2, 8937, Note_on_c, 0, 60, 0
2, 8940, Note_on_c, 0, 57, 51
2, 8967, Note_on_c, 0, 57, 0
2, 8970, Note_on_c, 0, 55, 58
2, 8997, Note_on_c, 0, 55, 0
2, 9000, Note_on_c, 0, 53, 51
2, 9005, Note_on_c, 0, 48, 78
2, 9021, Note_on_c, 0, 48, 0
2, 9027, Note_on_c, 0, 53, 0
2, 9030, Note_on_c, 0, 48, 53
2, 9057, Note_on_c, 0, 48, 0
2, 9059, Note_on_c, 0, 41, 0
2, 9060, Note_on_c, 0, 53, 53
2, 9087, Note_on_c, 0, 53, 0
2, 9090, Note_on_c, 0, 57, 56
2, 9113, Control_c, 0, 64, 127
2, 9117, Note_on_c, 0, 57, 0
2, 9120, Note_on_c, 0, 55, 68
2, 9122, Note_on_c, 0, 28, 73
2, 9123, Note_on_c, 0, 40, 73
2, 9136, Note_on_c, 0, 28, 0
2, 9141, Note_on_c, 0, 40, 0
2, 9147, Note_on_c, 0, 55, 0
2, 9150, Note_on_c, 0, 48, 56
2, 9177, Note_on_c, 0, 48, 0
2, 9180, Note_on_c, 0, 55, 63
2, 9207, Note_on_c, 0, 55, 0
2, 9210, Note_on_c, 0, 57, 56
2, 9231, Control_c, 0, 64, 0
2, 9237, Note_on_c, 0, 57, 0
2, 9240, Note_on_c, 0, 58, 65
2, 9242, Note_on_c, 0, 50, 74
2, 9267, Note_on_c, 0, 58, 0
2, 9270, Note_on_c, 0, 60, 50
2, 9297, Note_on_c, 0, 60, 0
2, 9300, Note_on_c, 0, 67, 59
2, 9316, Note_on_c, 0, 50, 0
2, 9324, Note_on_c, 0, 48, 71
2, 9327, Note_on_c, 0, 67, 0
2, 9330, Note_on_c, 0, 69, 60
2, 9344, Control_c, 0, 64, 127
2, 9356, Note_on_c, 0, 55, 79
2, 9357, Note_on_c, 0, 69, 0
2, 9360, Note_on_c, 0, 70, 66
2, 9363, Note_on_c, 0, 48, 0
2, 9387, Note_on_c, 0, 70, 0
2, 9390, Note_on_c, 0, 72, 52
2, 9417, Note_on_c, 0, 72, 0
2, 9420, Note_on_c, 0, 79, 56
2, 9447, Note_on_c, 0, 79, 0
2, 9450, Note_on_c, 0, 81, 56
2, 9462, Control_c, 0, 64, 0
2, 9477, Note_on_c, 0, 81, 0
2, 9478, Note_on_c, 0, 62, 87
2, 9480, Note_on_c, 0, 55, 0
2, 9480, Note_on_c, 0, 82, 70
2, 9502, Note_on_c, 0, 62, 0
2, 9507, Note_on_c, 0, 82, 0
2, 9510, Note_on_c, 0, 84, 54
2, 9537, Note_on_c, 0, 84, 0
2, 9540, Note_on_c, 0, 91, 63
2, 9567, Note_on_c, 0, 91, 0
2, 9570, Note_on_c, 0, 93, 58
2, 9573, Note_on_c, 0, 40, 69
2, 9574, Control_c, 0, 64, 127
2, 9588, Note_on_c, 0, 48, 66
2, 9595, Note_on_c, 0, 40, 0
2, 9597, Note_on_c, 0, 93, 0
2, 9600, Note_on_c, 0, 94, 66
2, 9619, Note_on_c, 0, 60, 79
2, 9627, Note_on_c, 0, 94, 0
2, 9630, Note_on_c, 0, 93, 62
2, 9657, Note_on_c, 0, 93, 0
2, 9660, Note_on_c, 0, 91, 60
2, 9687, Note_on_c, 0, 91, 0
2, 9690, Note_on_c, 0, 84, 56
2, 9714, Note_on_c, 0, 60, 0
2, 9717, Note_on_c, 0, 84, 0
2, 9718, Note_on_c, 0, 48, 0
2, 9720, Note_on_c, 0, 82, 66
2, 9747, Note_on_c, 0, 82, 0
2, 9750, Note_on_c, 0, 81, 53
2, 9771, Control_c, 0, 64, 0
2, 9777, Note_on_c, 0, 81, 0
2, 9780, Note_on_c, 0, 79, 55
2, 9807, Note_on_c, 0, 79, 0
2, 9810, Note_on_c, 0, 72, 58
2, 9837, Note_on_c, 0, 72, 0
2, 9838, Note_on_c, 0, 47, 52
2, 9840, Note_on_c, 0, 70, 63
2, 9850, Note_on_c, 0, 48, 73
2, 9863, Note_on_c, 0, 47, 0
2, 9867, Note_on_c, 0, 70, 0
2, 9870, Note_on_c, 0, 69, 58
2, 9878, Note_on_c, 0, 48, 0
2, 9897, Note_on_c, 0, 69, 0
2, 9900, Note_on_c, 0, 67, 58
2, 9927, Note_on_c, 0, 67, 0
2, 9930, Note_on_c, 0, 60, 53
2, 9957, Note_on_c, 0, 60, 0
2, 9960, Note_on_c, 0, 58, 62
2, 9967, Note_on_c, 0, 48, 77
2, 9987, Note_on_c, 0, 48, 0
2, 9987, Note_on_c, 0, 58, 0
2, 9990, Note_on_c, 0, 57, 54
2, 10017, Note_on_c, 0, 57, 0
2, 10020, Note_on_c, 0, 55, 50
2, 10047, Note_on_c, 0, 55, 0
2, 10050, Note_on_c, 0, 48, 53
2, 10065, Control_c, 0, 64, 127
2, 10077, Note_on_c, 0, 48, 0
2, 10080, Note_on_c, 0, 55, 57
2, 10087, Note_on_c, 0, 40, 82
2, 10088, Note_on_c, 0, 28, 82
2, 10104, Note_on_c, 0, 28, 0
2, 10105, Note_on_c, 0, 40, 0
2, 10107, Note_on_c, 0, 55, 0
2, 10110, Note_on_c, 0, 57, 53
2, 10137, Note_on_c, 0, 57, 0
2, 10140, Note_on_c, 0, 58, 54
2, 10167, Note_on_c, 0, 58, 0
2, 10170, Note_on_c, 0, 60, 60
2, 10197, Note_on_c, 0, 60, 0
2, 10197, Control_c, 0, 64, 0
2, 10199, Note_on_c, 0, 50, 67
2, 10200, Note_on_c, 0, 67, 60
2, 10227, Note_on_c, 0, 67, 0
2, 10230, Note_on_c, 0, 69, 56
2, 10257, Note_on_c, 0, 69, 0
2, 10260, Note_on_c, 0, 70, 64
2, 10287, Note_on_c, 0, 70, 0
2, 10290, Note_on_c, 0, 72, 53
2, 10294, Note_on_c, 0, 48, 75
2, 10306, Note_on_c, 0, 50, 0
2, 10307, Control_c, 0, 64, 127
2, 10317, Note_on_c, 0, 72, 0
2, 10320, Note_on_c, 0, 79, 58
2, 10332, Note_on_c, 0, 58, 85
2, 10342, Note_on_c, 0, 48, 0
2, 10347, Note_on_c, 0, 79, 0
2, 10350, Note_on_c, 0, 81, 58
2, 10377, Note_on_c, 0, 81, 0
2, 10380, Note_on_c, 0, 82, 52
2, 10407, Note_on_c, 0, 82, 0
2, 10410, Note_on_c, 0, 84, 54
2, 10432, Note_on_c, 0, 58, 0
2, 10436, Note_on_c, 0, 55, 75
2, 10437, Note_on_c, 0, 84, 0
2, 10440, Note_on_c, 0, 91, 58
2, 10448, Control_c, 0, 64, 0
2, 10467, Note_on_c, 0, 91, 0
2, 10470, Note_on_c, 0, 93, 56
2, 10497, Note_on_c, 0, 93, 0
2, 10500, Note_on_c, 0, 94, 66
2, 10503, Note_on_c, 0, 55, 0
2, 10518, Note_on_c, 0, 43, 74
2, 10527, Note_on_c, 0, 94, 0
2, 10530, Note_on_c, 0, 93, 61
2, 10555, Note_on_c, 0, 48, 86
2, 10556, Note_on_c, 0, 40, 73
2, 10557, Note_on_c, 0, 93, 0
2, 10557, Control_c, 0, 64, 127
2, 10560, Note_on_c, 0, 43, 0
2, 10560, Note_on_c, 0, 91, 62
2, 10587, Note_on_c, 0, 91, 0
2, 10590, Note_on_c, 0, 84, 53
2, 10617, Note_on_c, 0, 84, 0
2, 10620, Note_on_c, 0, 82, 60
2, 10647, Note_on_c, 0, 82, 0
2, 10650, Note_on_c, 0, 81, 52
2, 10677, Note_on_c, 0, 81, 0
2, 10680, Note_on_c, 0, 79, 62
2, 10707, Note_on_c, 0, 79, 0
2, 10710, Note_on_c, 0, 72, 58
2, 10737, Note_on_c, 0, 72, 0
2, 10740, Note_on_c, 0, 70, 58
2, 10747, Note_on_c, 0, 48, 0
2, 10767, Note_on_c, 0, 70, 0
2, 10770, Note_on_c, 0, 69, 59
2, 10783, Control_c, 0, 64, 0
2, 10788, Note_on_c, 0, 47, 91
2, 10797, Note_on_c, 0, 69, 0
2, 10800, Note_on_c, 0, 67, 60
2, 10803, Note_on_c, 0, 48, 91
2, 10814, Note_on_c, 0, 47, 0
2, 10827, Note_on_c, 0, 48, 0
2, 10827, Note_on_c, 0, 67, 0
2, 10830, Note_on_c, 0, 60, 53
2, 10857, Note_on_c, 0, 60, 0
2, 10860, Note_on_c, 0, 58, 50
2, 10887, Note_on_c, 0, 58, 0
2, 10890, Note_on_c, 0, 57, 53
2, 10917, Note_on_c, 0, 57, 0
2, 10920, Note_on_c, 0, 55, 64
2, 10920, Note_on_c, 0, 48, 94
2, 10938, Note_on_c, 0, 48, 0
2, 10947, Note_on_c, 0, 55, 0
2, 10950, Note_on_c, 0, 48, 52
2, 10977, Note_on_c, 0, 48, 0
2, 10980, Note_on_c, 0, 55, 57
2, 10989, Note_on_c, 0, 40, 0
2, 11007, Note_on_c, 0, 55, 0
2, 11010, Note_on_c, 0, 58, 55
2, 11037, Note_on_c, 0, 58, 0
2, 11040, Note_on_c, 0, 57, 61
2, 11040, Control_c, 0, 64, 127
2, 11049, Note_on_c, 0, 41, 89
2, 11050, Note_on_c, 0, 29, 89
2, 11067, Note_on_c, 0, 57, 0
2, 11070, Note_on_c, 0, 48, 51
2, 11071, Note_on_c, 0, 29, 0
2, 11072, Note_on_c, 0, 41, 0
2, 11097, Note_on_c, 0, 48, 0
2, 11100, Note_on_c, 0, 53, 46
2, 11127, Note_on_c, 0, 53, 0
2, 11130, Note_on_c, 0, 55, 54
2, 11157, Note_on_c, 0, 55, 0
2, 11160, Note_on_c, 0, 57, 65
2, 11162, Note_on_c, 0, 50, 72
2, 11163, Control_c, 0, 64, 0
2, 11187, Note_on_c, 0, 57, 0
2, 11190, Note_on_c, 0, 60, 53
2, 11217, Note_on_c, 0, 60, 0
2, 11220, Note_on_c, 0, 65, 58
2, 11247, Note_on_c, 0, 65, 0
2, 11250, Note_on_c, 0, 67, 51
2, 11253, Note_on_c, 0, 48, 78
2, 11254, Note_on_c, 0, 50, 0
2, 11273, Control_c, 0, 64, 127
2, 11277, Note_on_c, 0, 67, 0
2, 11280, Note_on_c, 0, 69, 61
2, 11282, Note_on_c, 0, 53, 76
2, 11298, Note_on_c, 0, 48, 0
2, 11307, Note_on_c, 0, 69, 0
2, 11310, Note_on_c, 0, 72, 56
2, 11337, Note_on_c, 0, 72, 0
2, 11340, Note_on_c, 0, 77, 52
2, 11367, Note_on_c, 0, 77, 0
2, 11370, Note_on_c, 0, 79, 60
2, 11382, Control_c, 0, 64, 0
2, 11395, Note_on_c, 0, 53, 0
2, 11397, Note_on_c, 0, 79, 0
2, 11400, Note_on_c, 0, 81, 61
2, 11404, Note_on_c, 0, 65, 84
2, 11427, Note_on_c, 0, 81, 0
2, 11430, Note_on_c, 0, 84, 53
2, 11457, Note_on_c, 0, 84, 0
2, 11460, Note_on_c, 0, 89, 51
2, 11475, Note_on_c, 0, 65, 0
2, 11487, Note_on_c, 0, 89, 0
2, 11490, Note_on_c, 0, 93, 56
2, 11516, Control_c, 0, 64, 127
2, 11517, Note_on_c, 0, 93, 0
2, 11520, Note_on_c, 0, 91, 66
2, 11529, Note_on_c, 0, 62, 80
2, 11530, Note_on_c, 0, 58, 83
2, 11531, Note_on_c, 0, 65, 77
2, 11533, Note_on_c, 0, 53, 72
2, 11547, Note_on_c, 0, 91, 0
2, 11550, Note_on_c, 0, 89, 65
2, 11577, Note_on_c, 0, 89, 0
2, 11580, Note_on_c, 0, 86, 54
2, 11607, Note_on_c, 0, 86, 0
2, 11610, Note_on_c, 0, 82, 54
2, 11637, Note_on_c, 0, 82, 0
2, 11640, Note_on_c, 0, 79, 63
2, 11667, Note_on_c, 0, 79, 0
2, 11670, Note_on_c, 0, 77, 57
2, 11697, Note_on_c, 0, 77, 0
2, 11700, Note_on_c, 0, 74, 62
2, 11701, Note_on_c, 0, 62, 0
2, 11702, Note_on_c, 0, 53, 0
2, 11702, Note_on_c, 0, 58, 0
2, 11708, Note_on_c, 0, 65, 0
2, 11727, Note_on_c, 0, 74, 0
2, 11730, Note_on_c, 0, 70, 60
2, 11757, Note_on_c, 0, 70, 0
2, 11760, Note_on_c, 0, 72, 74
2, 11763, Control_c, 0, 64, 0
2, 11766, Note_on_c, 0, 57, 70
2, 11767, Note_on_c, 0, 60, 66
2, 11768, Note_on_c, 0, 65, 72
2, 11769, Note_on_c, 0, 53, 61
2, 11786, Note_on_c, 0, 53, 0
2, 11787, Note_on_c, 0, 72, 0
2, 11789, Note_on_c, 0, 60, 0
2, 11790, Note_on_c, 0, 77, 55
2, 11796, Note_on_c, 0, 57, 0
2, 11796, Note_on_c, 0, 65, 0
2, 11817, Note_on_c, 0, 77, 0
2, 11820, Note_on_c, 0, 79, 49
2, 11847, Note_on_c, 0, 79, 0
2, 11850, Note_on_c, 0, 81, 56
2, 11877, Note_on_c, 0, 81, 0
2, 11880, Note_on_c, 0, 84, 73
2, 11887, Note_on_c, 0, 57, 72
2, 11888, Note_on_c, 0, 60, 68
2, 11890, Note_on_c, 0, 65, 70
2, 11891, Note_on_c, 0, 53, 57
2, 11904, Note_on_c, 0, 53, 0
2, 11907, Note_on_c, 0, 60, 0
2, 11907, Note_on_c, 0, 84, 0
2, 11910, Note_on_c, 0, 89, 52
2, 11911, Note_on_c, 0, 57, 0
2, 11912, Note_on_c, 0, 65, 0
2, 11937, Note_on_c, 0, 89, 0
2, 11940, Note_on_c, 0, 91, 52
2, 11967, Note_on_c, 0, 91, 0
2, 11970, Note_on_c, 0, 93, 53
2, 11997, Note_on_c, 0, 93, 0
2, 12000, Note_on_c, 0, 91, 58
2, 12001, Control_c, 0, 64, 127
2, 12008, Note_on_c, 0, 62, 74
2, 12010, Note_on_c, 0, 58, 71
2, 12011, Note_on_c, 0, 65, 77
2, 12012, Note_on_c, 0, 53, 70
2, 12027, Note_on_c, 0, 91, 0
2, 12030, Note_on_c, 0, 89, 56
2, 12057, Note_on_c, 0, 89, 0
2, 12060, Note_on_c, 0, 86, 61
2, 12087, Note_on_c, 0, 86, 0
2, 12090, Note_on_c, 0, 82, 56
2, 12117, Note_on_c, 0, 82, 0
2, 12120, Note_on_c, 0, 79, 59
2, 12147, Note_on_c, 0, 79, 0
2, 12150, Note_on_c, 0, 77, 51
2, 12166, Note_on_c, 0, 62, 0
2, 12167, Note_on_c, 0, 58, 0
2, 12173, Note_on_c, 0, 65, 0
2, 12174, Note_on_c, 0, 53, 0
2, 12177, Note_on_c, 0, 77, 0
2, 12180, Note_on_c, 0, 74, 61
2, 12207, Note_on_c, 0, 74, 0
2, 12210, Note_on_c, 0, 70, 54
2, 12237, Note_on_c, 0, 70, 0
2, 12239, Note_on_c, 0, 60, 68
2, 12240, Note_on_c, 0, 72, 71
2, 12240, Note_on_c, 0, 57, 69
2, 12241, Control_c, 0, 64, 0
2, 12242, Note_on_c, 0, 65, 67
2, 12243, Note_on_c, 0, 53, 60
2, 12259, Note_on_c, 0, 53, 0
2, 12260, Note_on_c, 0, 60, 0
2, 12262, Note_on_c, 0, 57, 0
2, 12267, Note_on_c, 0, 72, 0
2, 12267, Note_on_c, 0, 65, 0
2, 12270, Note_on_c, 0, 77, 49
2, 12297, Note_on_c, 0, 77, 0
2, 12300, Note_on_c, 0, 79, 49
2, 12327, Note_on_c, 0, 79, 0
2, 12330, Note_on_c, 0, 81, 56
2, 12356, Note_on_c, 0, 65, 69
2, 12357, Note_on_c, 0, 81, 0
2, 12357, Note_on_c, 0, 60, 72
2, 12359, Note_on_c, 0, 53, 66
2, 12360, Note_on_c, 0, 84, 75
2, 12360, Note_on_c, 0, 57, 78
2, 12371, Note_on_c, 0, 60, 0
2, 12372, Note_on_c, 0, 65, 0
2, 12373, Note_on_c, 0, 53, 0
2, 12375, Note_on_c, 0, 57, 0
2, 12387, Note_on_c, 0, 84, 0
2, 12390, Note_on_c, 0, 89, 58
2, 12417, Note_on_c, 0, 89, 0
2, 12420, Note_on_c, 0, 91, 62
2, 12447, Note_on_c, 0, 91, 0
2, 12448, Note_on_c, 0, 46, 60
2, 12450, Note_on_c, 0, 93, 61
2, 12466, Control_c, 0, 64, 127
2, 12468, Note_on_c, 0, 53, 66
2, 12475, Note_on_c, 0, 46, 0
2, 12477, Note_on_c, 0, 93, 0
2, 12478, Note_on_c, 0, 55, 68
2, 12480, Note_on_c, 0, 91, 73
2, 12493, Note_on_c, 0, 62, 76
2, 12507, Note_on_c, 0, 91, 0
2, 12510, Note_on_c, 0, 93, 57
2, 12537, Note_on_c, 0, 93, 0
2, 12540, Note_on_c, 0, 91, 66
2, 12567, Note_on_c, 0, 91, 0
2, 12570, Note_on_c, 0, 89, 62
2, 12597, Note_on_c, 0, 89, 0
2, 12600, Note_on_c, 0, 86, 75
2, 12627, Note_on_c, 0, 86, 0
2, 12630, Note_on_c, 0, 82, 57
2, 12657, Note_on_c, 0, 82, 0
2, 12660, Note_on_c, 0, 84, 60
2, 12687, Note_on_c, 0, 84, 0
2, 12690, Note_on_c, 0, 81, 62
2, 12717, Note_on_c, 0, 81, 0
2, 12720, Note_on_c, 0, 79, 72
2, 12747, Note_on_c, 0, 79, 0
2, 12750, Note_on_c, 0, 81, 61
2, 12777, Note_on_c, 0, 81, 0
2, 12780, Note_on_c, 0, 79, 62
2, 12807, Note_on_c, 0, 79, 0
2, 12810, Note_on_c, 0, 77, 62
2, 12836, Control_c, 0, 64, 0
2, 12837, Note_on_c, 0, 77, 0
2, 12840, Note_on_c, 0, 74, 73
2, 12867, Note_on_c, 0, 74, 0
2, 12870, Note_on_c, 0, 70, 57
2, 12876, Note_on_c, 0, 62, 0
2, 12876, Note_on_c, 0, 53, 0
2, 12879, Note_on_c, 0, 55, 0
2, 12897, Note_on_c, 0, 70, 0
2, 12900, Note_on_c, 0, 72, 54
2, 12927, Note_on_c, 0, 72, 0
2, 12930, Note_on_c, 0, 69, 56
2, 12950, Control_c, 0, 64, 127
2, 12957, Note_on_c, 0, 69, 0
2, 12959, Note_on_c, 0, 55, 58
2, 12960, Note_on_c, 0, 67, 75
2, 12960, Note_on_c, 0, 62, 79
2, 12961, Note_on_c, 0, 53, 69
2, 12963, Note_on_c, 0, 48, 62
2, 12987, Note_on_c, 0, 67, 0
2, 12990, Note_on_c, 0, 69, 60
2, 13017, Note_on_c, 0, 69, 0
2, 13020, Note_on_c, 0, 67, 51
2, 13047, Note_on_c, 0, 67, 0
2, 13050, Note_on_c, 0, 74, 59
2, 13077, Note_on_c, 0, 74, 0
2, 13080, Note_on_c, 0, 72, 74
2, 13107, Note_on_c, 0, 72, 0
2, 13110, Note_on_c, 0, 74, 58
2, 13137, Note_on_c, 0, 74, 0
2, 13139, Control_c, 0, 64, 0
2, 13140, Note_on_c, 0, 72, 58
2, 13167, Note_on_c, 0, 72, 0
2, 13170, Note_on_c, 0, 81, 58
2, 13177, Note_on_c, 0, 62, 0
2, 13186, Note_on_c, 0, 53, 0
2, 13186, Control_c, 0, 64, 127
2, 13197, Note_on_c, 0, 81, 0
2, 13200, Note_on_c, 0, 79, 72
2, 13204, Note_on_c, 0, 52, 60
2, 13210, Note_on_c, 0, 60, 78
2, 13227, Note_on_c, 0, 79, 0
2, 13230, Note_on_c, 0, 81, 62
2, 13257, Note_on_c, 0, 81, 0
2, 13260, Note_on_c, 0, 79, 65
2, 13287, Note_on_c, 0, 79, 0
2, 13290, Note_on_c, 0, 86, 58
2, 13294, Note_on_c, 0, 60, 0
2, 13317, Note_on_c, 0, 86, 0
2, 13320, Note_on_c, 0, 84, 73
2, 13327, Note_on_c, 0, 58, 75
2, 13347, Note_on_c, 0, 84, 0
2, 13350, Note_on_c, 0, 86, 61
2, 13352, Control_c, 0, 64, 0
2, 13366, Note_on_c, 0, 52, 0
2, 13366, Note_on_c, 0, 58, 0
2, 13370, Note_on_c, 0, 55, 0
2, 13370, Note_on_c, 0, 48, 0
2, 13377, Note_on_c, 0, 86, 0
2, 13380, Note_on_c, 0, 84, 62
2, 13407, Note_on_c, 0, 84, 0
2, 13410, Note_on_c, 0, 98, 67
2, 13413, Note_on_c, 0, 41, 63
2, 13428, Control_c, 0, 64, 127
2, 13430, Note_on_c, 0, 48, 73
2, 13433, Note_on_c, 0, 41, 0
2, 13437, Note_on_c, 0, 98, 0
2, 13440, Note_on_c, 0, 96, 69
2, 13445, Note_on_c, 0, 52, 73
2, 13462, Note_on_c, 0, 58, 83
2, 13467, Note_on_c, 0, 96, 0
2, 13470, Note_on_c, 0, 98, 58
2, 13497, Note_on_c, 0, 98, 0
2, 13500, Note_on_c, 0, 96, 66
2, 13527, Note_on_c, 0, 96, 0
2, 13530, Note_on_c, 0, 94, 58
2, 13557, Note_on_c, 0, 94, 0
2, 13560, Note_on_c, 0, 91, 52
2, 13587, Note_on_c, 0, 91, 0
2, 13590, Note_on_c, 0, 88, 59
2, 13617, Note_on_c, 0, 88, 0
2, 13620, Note_on_c, 0, 89, 65
2, 13647, Note_on_c, 0, 89, 0
2, 13650, Note_on_c, 0, 86, 58
2, 13677, Note_on_c, 0, 86, 0
2, 13680, Note_on_c, 0, 84, 47
2, 13707, Note_on_c, 0, 84, 0
2, 13710, Note_on_c, 0, 86, 63
2, 13737, Note_on_c, 0, 86, 0
2, 13740, Note_on_c, 0, 84, 61
2, 13767, Note_on_c, 0, 84, 0
2, 13770, Note_on_c, 0, 82, 54
2, 13781, Note_on_c, 0, 52, 0
2, 13782, Note_on_c, 0, 58, 0
2, 13784, Note_on_c, 0, 48, 0
2, 13797, Note_on_c, 0, 82, 0
2, 13800, Note_on_c, 0, 79, 48
2, 13827, Note_on_c, 0, 79, 0
2, 13830, Note_on_c, 0, 76, 58
2, 13857, Note_on_c, 0, 76, 0
2, 13860, Note_on_c, 0, 77, 51
2, 13883, Control_c, 0, 64, 0
2, 13887, Note_on_c, 0, 77, 0
2, 13890, Note_on_c, 0, 74, 57
2, 13903, Note_on_c, 0, 41, 70
2, 13917, Note_on_c, 0, 74, 0
2, 13919, Control_c, 0, 64, 127
2, 13920, Note_on_c, 0, 72, 48
2, 13926, Note_on_c, 0, 48, 66
2, 13932, Note_on_c, 0, 41, 0
2, 13938, Note_on_c, 0, 53, 66
2, 13947, Note_on_c, 0, 72, 0
2, 13950, Note_on_c, 0, 74, 61
2, 13967, Note_on_c, 0, 57, 70
2, 13977, Note_on_c, 0, 74, 0
2, 13980, Note_on_c, 0, 72, 56
2, 14007, Note_on_c, 0, 72, 0
2, 14010, Note_on_c, 0, 69, 57
2, 14037, Note_on_c, 0, 69, 0
2, 14040, Note_on_c, 0, 65, 62
2, 14067, Note_on_c, 0, 65, 0
2, 14070, Note_on_c, 0, 60, 58
2, 14097, Note_on_c, 0, 60, 0
2, 14100, Note_on_c, 0, 62, 58
2, 14127, Note_on_c, 0, 62, 0
2, 14128, Note_on_c, 0, 57, 0
2, 14130, Note_on_c, 0, 58, 59
2, 14138, Note_on_c, 0, 48, 0
2, 14147, Note_on_c, 0, 53, 0
2, 14157, Note_on_c, 0, 58, 0
2, 14160, Note_on_c, 0, 57, 56
2, 14172, Control_c, 0, 64, 0
2, 14187, Note_on_c, 0, 57, 0
2, 14190, Note_on_c, 0, 52, 65
2, 14217, Note_on_c, 0, 52, 0
2, 14220, Note_on_c, 0, 53, 65
2, 14247, Note_on_c, 0, 53, 0
2, 14250, Note_on_c, 0, 50, 63
2, 14277, Note_on_c, 0, 50, 0
2, 14280, Note_on_c, 0, 48, 65
2, 14307, Note_on_c, 0, 48, 0
2, 14310, Note_on_c, 0, 43, 56
2, 14337, Note_on_c, 0, 43, 0
2, 14340, Note_on_c, 0, 45, 71
2, 14367, Note_on_c, 0, 45, 0
2, 14370, Note_on_c, 0, 41, 67
2, 14397, Note_on_c, 0, 41, 0
2, 14400, Note_on_c, 0, 89, 68
2, 14411, Note_on_c, 0, 38, 75
2, 14413, Note_on_c, 0, 45, 87
2, 14426, Control_c, 0, 64, 127
2, 14427, Note_on_c, 0, 89, 0
2, 14430, Note_on_c, 0, 88, 57
2, 14457, Note_on_c, 0, 88, 0
2, 14460, Note_on_c, 0, 86, 62
2, 14487, Note_on_c, 0, 86, 0
2, 14490, Note_on_c, 0, 81, 62
2, 14517, Note_on_c, 0, 81, 0
2, 14520, Note_on_c, 0, 77, 66
2, 14547, Note_on_c, 0, 77, 0
2, 14550, Note_on_c, 0, 76, 58
2, 14577, Note_on_c, 0, 76, 0
2, 14580, Note_on_c, 0, 74, 48
2, 14600, Note_on_c, 0, 45, 0
2, 14607, Note_on_c, 0, 74, 0
2, 14610, Note_on_c, 0, 69, 55
2, 14620, Control_c, 0, 64, 0
2, 14637, Note_on_c, 0, 69, 0
2, 14638, Note_on_c, 0, 44, 69
2, 14640, Note_on_c, 0, 65, 63
2, 14655, Note_on_c, 0, 45, 79
2, 14665, Note_on_c, 0, 44, 0
2, 14667, Note_on_c, 0, 65, 0
2, 14670, Note_on_c, 0, 64, 58
2, 14691, Note_on_c, 0, 45, 0
2, 14697, Note_on_c, 0, 64, 0
2, 14700, Note_on_c, 0, 62, 60
2, 14727, Note_on_c, 0, 62, 0
2, 14730, Note_on_c, 0, 57, 60
2, 14757, Note_on_c, 0, 57, 0
2, 14757, Note_on_c, 0, 45, 83
2, 14760, Note_on_c, 0, 53, 62
2, 14779, Note_on_c, 0, 45, 0
2, 14787, Note_on_c, 0, 53, 0
2, 14787, Note_on_c, 0, 38, 0
2, 14790, Note_on_c, 0, 52, 55
2, 14817, Note_on_c, 0, 52, 0
2, 14820, Note_on_c, 0, 50, 49
2, 14847, Note_on_c, 0, 50, 0
2, 14850, Note_on_c, 0, 45, 49
2, 14863, Control_c, 0, 64, 127
2, 14877, Note_on_c, 0, 45, 0
2, 14880, Note_on_c, 0, 50, 53
2, 14881, Note_on_c, 0, 38, 92
2, 14882, Note_on_c, 0, 26, 96
2, 14906, Note_on_c, 0, 38, 0
2, 14907, Note_on_c, 0, 50, 0
2, 14910, Note_on_c, 0, 52, 49
2, 14918, Note_on_c, 0, 26, 0
2, 14937, Note_on_c, 0, 52, 0
2, 14940, Note_on_c, 0, 53, 50
2, 14967, Note_on_c, 0, 53, 0
2, 14970, Note_on_c, 0, 57, 45
2, 14997, Note_on_c, 0, 57, 0
2, 15000, Note_on_c, 0, 62, 52
2, 15002, Note_on_c, 0, 46, 83
2, 15003, Control_c, 0, 64, 0
2, 15027, Note_on_c, 0, 62, 0
2, 15030, Note_on_c, 0, 64, 50
2, 15057, Note_on_c, 0, 64, 0
2, 15060, Note_on_c, 0, 65, 52
2, 15087, Note_on_c, 0, 65, 0
2, 15090, Note_on_c, 0, 69, 47
2, 15091, Note_on_c, 0, 45, 70
2, 15102, Note_on_c, 0, 46, 0
2, 15117, Note_on_c, 0, 69, 0
2, 15117, Control_c, 0, 64, 127
2, 15120, Note_on_c, 0, 74, 49
2, 15120, Note_on_c, 0, 53, 76
2, 15122, Note_on_c, 0, 45, 0
2, 15147, Note_on_c, 0, 74, 0
2, 15150, Note_on_c, 0, 76, 60
2, 15177, Note_on_c, 0, 76, 0
2, 15180, Note_on_c, 0, 77, 56
2, 15207, Note_on_c, 0, 77, 0
2, 15210, Note_on_c, 0, 81, 49
2, 15227, Note_on_c, 0, 53, 0
2, 15231, Note_on_c, 0, 50, 75
2, 15233, Control_c, 0, 64, 0
2, 15237, Note_on_c, 0, 81, 0
2, 15240, Note_on_c, 0, 86, 62
2, 15267, Note_on_c, 0, 86, 0
2, 15270, Note_on_c, 0, 88, 65
2, 15297, Note_on_c, 0, 88, 0
2, 15300, Note_on_c, 0, 89, 53
2, 15318, Note_on_c, 0, 41, 77
2, 15320, Note_on_c, 0, 50, 0
2, 15327, Note_on_c, 0, 89, 0
2, 15330, Note_on_c, 0, 88, 65
2, 15352, Control_c, 0, 64, 127
2, 15353, Note_on_c, 0, 41, 0
2, 15354, Note_on_c, 0, 38, 79
2, 15356, Note_on_c, 0, 45, 84
2, 15357, Note_on_c, 0, 88, 0
2, 15360, Note_on_c, 0, 86, 58
2, 15387, Note_on_c, 0, 86, 0
2, 15390, Note_on_c, 0, 81, 65
2, 15417, Note_on_c, 0, 81, 0
2, 15420, Note_on_c, 0, 77, 60
2, 15447, Note_on_c, 0, 77, 0
2, 15450, Note_on_c, 0, 76, 55
2, 15477, Note_on_c, 0, 76, 0
2, 15480, Note_on_c, 0, 74, 53
2, 15507, Note_on_c, 0, 74, 0
2, 15510, Note_on_c, 0, 69, 53
2, 15537, Note_on_c, 0, 69, 0
2, 15540, Note_on_c, 0, 65, 55
2, 15551, Note_on_c, 0, 45, 0
2, 15567, Note_on_c, 0, 65, 0
2, 15570, Note_on_c, 0, 64, 62
2, 15581, Control_c, 0, 64, 0
2, 15597, Note_on_c, 0, 64, 0
2, 15600, Note_on_c, 0, 62, 49
2, 15604, Note_on_c, 0, 44, 73
2, 15613, Note_on_c, 0, 45, 84
2, 15627, Note_on_c, 0, 62, 0
2, 15630, Note_on_c, 0, 57, 54
2, 15634, Note_on_c, 0, 44, 0
2, 15648, Note_on_c, 0, 45, 0
2, 15657, Note_on_c, 0, 57, 0
2, 15660, Note_on_c, 0, 53, 60
2, 15687, Note_on_c, 0, 53, 0
2, 15690, Note_on_c, 0, 52, 60
2, 15717, Note_on_c, 0, 52, 0
2, 15720, Note_on_c, 0, 50, 60
2, 15724, Note_on_c, 0, 45, 91
2, 15745, Note_on_c, 0, 45, 0
2, 15747, Note_on_c, 0, 50, 0
2, 15750, Note_on_c, 0, 45, 53
2, 15759, Note_on_c, 0, 38, 0
2, 15777, Note_on_c, 0, 45, 0
2, 15780, Note_on_c, 0, 50, 58
2, 15807, Note_on_c, 0, 50, 0
2, 15810, Note_on_c, 0, 53, 63
2, 15823, Control_c, 0, 64, 127
2, 15837, Note_on_c, 0, 53, 0
2, 15840, Note_on_c, 0, 52, 54
2, 15845, Note_on_c, 0, 37, 91
2, 15847, Note_on_c, 0, 25, 91
2, 15867, Note_on_c, 0, 52, 0
2, 15870, Note_on_c, 0, 45, 55
2, 15878, Note_on_c, 0, 37, 0
2, 15879, Note_on_c, 0, 25, 0
2, 15897, Note_on_c, 0, 45, 0
2, 15900, Note_on_c, 0, 52, 45
2, 15927, Note_on_c, 0, 52, 0
2, 15930, Note_on_c, 0, 53, 48
2, 15954, Control_c, 0, 64, 0
2, 15957, Note_on_c, 0, 53, 0
2, 15957, Note_on_c, 0, 46, 77
2, 15960, Note_on_c, 0, 55, 57
2, 15987, Note_on_c, 0, 55, 0
2, 15990, Note_on_c, 0, 57, 56
2, 16017, Note_on_c, 0, 57, 0
2, 16020, Note_on_c, 0, 64, 51
2, 16047, Note_on_c, 0, 64, 0
2, 16050, Note_on_c, 0, 65, 53
2, 16052, Note_on_c, 0, 45, 71
2, 16063, Note_on_c, 0, 46, 0
2, 16070, Control_c, 0, 64, 127
2, 16077, Note_on_c, 0, 65, 0
2, 16080, Note_on_c, 0, 67, 52
2, 16081, Note_on_c, 0, 52, 72
2, 16083, Note_on_c, 0, 45, 0
2, 16107, Note_on_c, 0, 67, 0
2, 16110, Note_on_c, 0, 69, 51
2, 16137, Note_on_c, 0, 69, 0
2, 16140, Note_on_c, 0, 76, 49
2, 16167, Note_on_c, 0, 76, 0
2, 16170, Note_on_c, 0, 77, 53
2, 16191, Control_c, 0, 64, 0
2, 16197, Note_on_c, 0, 77, 0
2, 16198, Note_on_c, 0, 58, 87
2, 16200, Note_on_c, 0, 79, 58
2, 16207, Note_on_c, 0, 52, 0
2, 16223, Note_on_c, 0, 58, 0
2, 16227, Note_on_c, 0, 79, 0
2, 16230, Note_on_c, 0, 81, 55
2, 16257, Note_on_c, 0, 81, 0
2, 16260, Note_on_c, 0, 88, 57
2, 16287, Note_on_c, 0, 88, 0
2, 16287, Note_on_c, 0, 37, 68
2, 16290, Note_on_c, 0, 89, 65
2, 16296, Control_c, 0, 64, 127
2, 16311, Note_on_c, 0, 45, 76
2, 16315, Note_on_c, 0, 37, 0
2, 16317, Note_on_c, 0, 89, 0
2, 16320, Note_on_c, 0, 91, 58
2, 16343, Note_on_c, 0, 57, 85
2, 16347, Note_on_c, 0, 91, 0
2, 16350, Note_on_c, 0, 89, 60
2, 16377, Note_on_c, 0, 89, 0
2, 16380, Note_on_c, 0, 88, 56
2, 16407, Note_on_c, 0, 88, 0
2, 16410, Note_on_c, 0, 81, 53
2, 16437, Note_on_c, 0, 81, 0
2, 16440, Note_on_c, 0, 79, 56
2, 16460, Note_on_c, 0, 57, 0
2, 16462, Note_on_c, 0, 45, 0
2, 16467, Note_on_c, 0, 79, 0
2, 16470, Note_on_c, 0, 77, 52
2, 16491, Control_c, 0, 64, 0
2, 16497, Note_on_c, 0, 77, 0
2, 16500, Note_on_c, 0, 76, 44
2, 16527, Note_on_c, 0, 76, 0
2, 16530, Note_on_c, 0, 69, 48
2, 16557, Note_on_c, 0, 69, 0
2, 16560, Note_on_c, 0, 67, 58
2, 16566, Note_on_c, 0, 44, 82
2, 16581, Note_on_c, 0, 45, 75
2, 16587, Note_on_c, 0, 67, 0
2, 16590, Note_on_c, 0, 65, 56
2, 16593, Note_on_c, 0, 44, 0
2, 16613, Note_on_c, 0, 45, 0
2, 16617, Note_on_c, 0, 65, 0
2, 16620, Note_on_c, 0, 64, 55
2, 16647, Note_on_c, 0, 64, 0
2, 16650, Note_on_c, 0, 57, 46
2, 16677, Note_on_c, 0, 57, 0
2, 16680, Note_on_c, 0, 55, 51
2, 16690, Note_on_c, 0, 45, 89
2, 16707, Note_on_c, 0, 55, 0
2, 16710, Note_on_c, 0, 45, 0
2, 16710, Note_on_c, 0, 53, 48
2, 16737, Note_on_c, 0, 53, 0
2, 16740, Note_on_c, 0, 52, 56
2, 16767, Note_on_c, 0, 52, 0
2, 16770, Note_on_c, 0, 45, 50
2, 16782, Control_c, 0, 64, 127
2, 16797, Note_on_c, 0, 45, 0
2, 16800, Note_on_c, 0, 52, 45
2, 16804, Note_on_c, 0, 37, 93
2, 16806, Note_on_c, 0, 25, 93
2, 16824, Note_on_c, 0, 25, 0
2, 16825, Note_on_c, 0, 37, 0
2, 16827, Note_on_c, 0, 52, 0
2, 16830, Note_on_c, 0, 53, 55
2, 16857, Note_on_c, 0, 53, 0
2, 16860, Note_on_c, 0, 55, 62
2, 16887, Note_on_c, 0, 55, 0
2, 16890, Note_on_c, 0, 57, 54
2, 16917, Note_on_c, 0, 57, 0
2, 16920, Note_on_c, 0, 64, 53
2, 16922, Note_on_c, 0, 46, 91
2, 16930, Control_c, 0, 64, 0
2, 16947, Note_on_c, 0, 64, 0
2, 16950, Note_on_c, 0, 65, 57
2, 16977, Note_on_c, 0, 65, 0
2, 16980, Note_on_c, 0, 67, 60
2, 17007, Note_on_c, 0, 67, 0
2, 17010, Note_on_c, 0, 69, 50
2, 17012, Note_on_c, 0, 45, 75
2, 17022, Note_on_c, 0, 46, 0
2, 17037, Note_on_c, 0, 69, 0
2, 17037, Note_on_c, 0, 55, 76
2, 17040, Note_on_c, 0, 76, 58
2, 17041, Control_c, 0, 64, 127
2, 17043, Note_on_c, 0, 45, 0
2, 17067, Note_on_c, 0, 76, 0
2, 17070, Note_on_c, 0, 77, 61
2, 17097, Note_on_c, 0, 77, 0
2, 17100, Note_on_c, 0, 79, 62
2, 17123, Note_on_c, 0, 55, 0
2, 17127, Note_on_c, 0, 79, 0
2, 17130, Note_on_c, 0, 81, 52
2, 17157, Note_on_c, 0, 81, 0
2, 17158, Control_c, 0, 64, 0
2, 17160, Note_on_c, 0, 88, 55
2, 17162, Note_on_c, 0, 52, 76
2, 17187, Note_on_c, 0, 88, 0
2, 17190, Note_on_c, 0, 89, 56
2, 17217, Note_on_c, 0, 89, 0
2, 17220, Note_on_c, 0, 52, 0
2, 17220, Note_on_c, 0, 91, 66
2, 17244, Note_on_c, 0, 40, 78
2, 17247, Note_on_c, 0, 91, 0
2, 17250, Note_on_c, 0, 89, 57
2, 17269, Control_c, 0, 64, 127
2, 17271, Note_on_c, 0, 40, 0
2, 17276, Note_on_c, 0, 45, 86
2, 17277, Note_on_c, 0, 89, 0
2, 17280, Note_on_c, 0, 88, 60
2, 17281, Note_on_c, 0, 37, 77
2, 17307, Note_on_c, 0, 88, 0
2, 17310, Note_on_c, 0, 81, 50
2, 17337, Note_on_c, 0, 81, 0
2, 17340, Note_on_c, 0, 79, 60
2, 17367, Note_on_c, 0, 79, 0
2, 17370, Note_on_c, 0, 77, 56
2, 17397, Note_on_c, 0, 77, 0
2, 17400, Note_on_c, 0, 76, 51
2, 17427, Note_on_c, 0, 76, 0
2, 17430, Note_on_c, 0, 69, 45
2, 17454, Note_on_c, 0, 45, 0
2, 17457, Note_on_c, 0, 69, 0
2, 17460, Note_on_c, 0, 67, 58
2, 17487, Note_on_c, 0, 67, 0
2, 17490, Note_on_c, 0, 65, 55
2, 17495, Control_c, 0, 64, 0
2, 17516, Note_on_c, 0, 44, 68
2, 17517, Note_on_c, 0, 65, 0
2, 17520, Note_on_c, 0, 64, 54
2, 17528, Note_on_c, 0, 45, 78
2, 17545, Note_on_c, 0, 44, 0
2, 17547, Note_on_c, 0, 64, 0
2, 17550, Note_on_c, 0, 57, 58
2, 17566, Note_on_c, 0, 45, 0
2, 17577, Note_on_c, 0, 57, 0
2, 17580, Note_on_c, 0, 55, 63
2, 17607, Note_on_c, 0, 55, 0
2, 17610, Note_on_c, 0, 53, 55
2, 17637, Note_on_c, 0, 53, 0
2, 17639, Note_on_c, 0, 45, 91
2, 17640, Note_on_c, 0, 52, 58
2, 17663, Note_on_c, 0, 45, 0
2, 17667, Note_on_c, 0, 52, 0
2, 17670, Note_on_c, 0, 45, 39
2, 17692, Note_on_c, 0, 37, 0
2, 17697, Note_on_c, 0, 45, 0
2, 17700, Note_on_c, 0, 52, 61
2, 17727, Note_on_c, 0, 52, 0
2, 17730, Note_on_c, 0, 55, 64
2, 17750, Control_c, 0, 64, 127
2, 17757, Note_on_c, 0, 55, 0
2, 17760, Note_on_c, 0, 54, 60
2, 17764, Note_on_c, 0, 36, 86
2, 17787, Note_on_c, 0, 54, 0
2, 17790, Note_on_c, 0, 45, 50
2, 17817, Note_on_c, 0, 45, 0
2, 17820, Note_on_c, 0, 51, 54
2, 17828, Note_on_c, 0, 36, 0
2, 17847, Note_on_c, 0, 51, 0
2, 17850, Note_on_c, 0, 52, 56
2, 17877, Note_on_c, 0, 52, 0
2, 17880, Note_on_c, 0, 54, 57
2, 17884, Control_c, 0, 64, 0
2, 17890, Note_on_c, 0, 47, 79
2, 17907, Note_on_c, 0, 54, 0
2, 17910, Note_on_c, 0, 57, 45
2, 17937, Note_on_c, 0, 57, 0
2, 17940, Note_on_c, 0, 63, 48
2, 17966, Note_on_c, 0, 45, 77
2, 17967, Note_on_c, 0, 63, 0
2, 17970, Note_on_c, 0, 64, 46
2, 17977, Note_on_c, 0, 47, 0
2, 17992, Control_c, 0, 64, 127
2, 17997, Note_on_c, 0, 64, 0
2, 18000, Note_on_c, 0, 66, 59
2, 18000, Note_on_c, 0, 48, 73
2, 18011, Note_on_c, 0, 45, 0
2, 18027, Note_on_c, 0, 66, 0
2, 18030, Note_on_c, 0, 69, 48
2, 18057, Note_on_c, 0, 69, 0
2, 18060, Note_on_c, 0, 75, 58
2, 18087, Note_on_c, 0, 75, 0
2, 18090, Note_on_c, 0, 76, 62
2, 18117, Note_on_c, 0, 76, 0
2, 18117, Note_on_c, 0, 48, 0
2, 18118, Note_on_c, 0, 60, 91
2, 18120, Note_on_c, 0, 78, 60
2, 18127, Control_c, 0, 64, 0
2, 18147, Note_on_c, 0, 78, 0
2, 18150, Note_on_c, 0, 81, 60
2, 18177, Note_on_c, 0, 81, 0
2, 18180, Note_on_c, 0, 87, 60
2, 18207, Note_on_c, 0, 87, 0
2, 18210, Note_on_c, 0, 88, 71
2, 18223, Control_c, 0, 64, 127
2, 18234, Note_on_c, 0, 60, 0
2, 18237, Note_on_c, 0, 88, 0
2, 18240, Note_on_c, 0, 90, 68
2, 18242, Note_on_c, 0, 59, 83
2, 18244, Note_on_c, 0, 47, 81
2, 18267, Note_on_c, 0, 90, 0
2, 18270, Note_on_c, 0, 88, 71
2, 18297, Note_on_c, 0, 88, 0
2, 18300, Note_on_c, 0, 87, 71
2, 18306, Note_on_c, 0, 47, 0
2, 18306, Note_on_c, 0, 59, 0
2, 18327, Note_on_c, 0, 87, 0
2, 18330, Note_on_c, 0, 96, 72
2, 18357, Note_on_c, 0, 96, 0
2, 18360, Note_on_c, 0, 90, 73
2, 18360, Note_on_c, 0, 66, 65
2, 18387, Note_on_c, 0, 66, 0
2, 18387, Note_on_c, 0, 90, 0
2, 18390, Note_on_c, 0, 88, 74
2, 18390, Note_on_c, 0, 68, 69
2, 18417, Note_on_c, 0, 68, 0
2, 18417, Note_on_c, 0, 88, 0
2, 18420, Note_on_c, 0, 87, 78
2, 18420, Note_on_c, 0, 69, 70
2, 18447, Note_on_c, 0, 69, 0
2, 18447, Note_on_c, 0, 87, 0
2, 18450, Note_on_c, 0, 81, 78
2, 18450, Note_on_c, 0, 78, 66
2, 18456, Control_c, 0, 64, 0
2, 18472, Note_on_c, 0, 78, 0
2, 18477, Note_on_c, 0, 81, 0
2, 18480, Note_on_c, 0, 89, 79
2, 18480, Note_on_c, 0, 65, 70
2, 18484, Control_c, 0, 64, 127
2, 18507, Note_on_c, 0, 65, 0
2, 18507, Note_on_c, 0, 89, 0
2, 18510, Note_on_c, 0, 87, 81
2, 18510, Note_on_c, 0, 66, 68
2, 18537, Note_on_c, 0, 66, 0
2, 18537, Note_on_c, 0, 87, 0
2, 18540, Note_on_c, 0, 86, 81
2, 18540, Note_on_c, 0, 68, 71
2, 18567, Note_on_c, 0, 68, 0
2, 18567, Note_on_c, 0, 86, 0
2, 18570, Note_on_c, 0, 95, 82
2, 18570, Note_on_c, 0, 59, 71
2, 18597, Note_on_c, 0, 59, 0
2, 18597, Note_on_c, 0, 95, 0
2, 18600, Note_on_c, 0, 89, 82
2, 18600, Note_on_c, 0, 65, 71
2, 18627, Note_on_c, 0, 65, 0
2, 18627, Note_on_c, 0, 89, 0
2, 18630, Note_on_c, 0, 87, 84
2, 18630, Note_on_c, 0, 66, 74
2, 18657, Note_on_c, 0, 66, 0
2, 18657, Note_on_c, 0, 87, 0
2, 18660, Note_on_c, 0, 86, 85
2, 18660, Note_on_c, 0, 68, 77
2, 18687, Note_on_c, 0, 68, 0
2, 18687, Note_on_c, 0, 86, 0
2, 18690, Note_on_c, 0, 80, 86
2, 18690, Note_on_c, 0, 77, 81
2, 18701, Control_c, 0, 64, 0
2, 18706, Note_on_c, 0, 77, 0
2, 18717, Note_on_c, 0, 80, 0
2, 18720, Note_on_c, 0, 89, 86
2, 18726, Control_c, 0, 64, 127
2, 18736, Note_on_c, 0, 58, 87
2, 18747, Note_on_c, 0, 89, 0
2, 18750, Note_on_c, 0, 87, 85
2, 18777, Note_on_c, 0, 87, 0
2, 18780, Note_on_c, 0, 86, 82
2, 18782, Note_on_c, 0, 58, 0
2, 18807, Note_on_c, 0, 86, 0
2, 18810, Note_on_c, 0, 94, 81
2, 18837, Note_on_c, 0, 94, 0
2, 18840, Note_on_c, 0, 89, 84
2, 18845, Note_on_c, 0, 70, 85
2, 18847, Note_on_c, 0, 58, 87
2, 18867, Note_on_c, 0, 70, 0
2, 18867, Note_on_c, 0, 89, 0
2, 18870, Note_on_c, 0, 58, 0
2, 18870, Note_on_c, 0, 87, 86
2, 18897, Note_on_c, 0, 87, 0
2, 18900, Note_on_c, 0, 86, 82
2, 18915, Control_c, 0, 64, 0
2, 18927, Note_on_c, 0, 86, 0
2, 18929, Note_on_c, 0, 65, 86
2, 18930, Note_on_c, 0, 80, 80
2, 18930, Note_on_c, 0, 53, 84
2, 18942, Note_on_c, 0, 65, 0
2, 18943, Note_on_c, 0, 53, 0
2, 18957, Note_on_c, 0, 80, 0
2, 18960, Note_on_c, 0, 77, 83
2, 18961, Control_c, 0, 64, 127
2, 18973, Note_on_c, 0, 58, 93
2, 18975, Note_on_c, 0, 46, 89
2, 18987, Note_on_c, 0, 77, 0
2, 18990, Note_on_c, 0, 75, 78
2, 19017, Note_on_c, 0, 75, 0
2, 19020, Note_on_c, 0, 74, 78
2, 19038, Note_on_c, 0, 46, 0
2, 19038, Note_on_c, 0, 58, 0
2, 19047, Note_on_c, 0, 74, 0
2, 19050, Note_on_c, 0, 68, 80
2, 19077, Note_on_c, 0, 68, 0
2, 19078, Control_c, 0, 64, 0
2, 19080, Note_on_c, 0, 65, 81
2, 19088, Note_on_c, 0, 41, 84
2, 19089, Note_on_c, 0, 53, 87
2, 19093, Control_c, 0, 64, 127
2, 19107, Note_on_c, 0, 65, 0
2, 19110, Note_on_c, 0, 63, 83
2, 19128, Note_on_c, 0, 53, 0
2, 19136, Note_on_c, 0, 41, 0
2, 19137, Note_on_c, 0, 63, 0
2, 19140, Note_on_c, 0, 62, 81
2, 19167, Note_on_c, 0, 62, 0
2, 19170, Note_on_c, 0, 56, 83
2, 19171, Control_c, 0, 64, 0
2, 19197, Note_on_c, 0, 56, 0
2, 19205, Note_on_c, 0, 46, 91
2, 19207, Note_on_c, 0, 34, 95
2, 19209, Control_c, 0, 64, 127
2, 19248, Note_on_c, 0, 34, 0
2, 19250, Note_on_c, 0, 46, 0
2, 19320, Note_on_c, 0, 89, 63
2, 19320, Note_on_c, 0, 65, 76
2, 19347, Note_on_c, 0, 65, 0
2, 19347, Note_on_c, 0, 89, 0
2, 19350, Note_on_c, 0, 87, 67
2, 19350, Note_on_c, 0, 67, 75
2, 19377, Note_on_c, 0, 67, 0
2, 19377, Note_on_c, 0, 87, 0
2, 19380, Note_on_c, 0, 86, 68
2, 19380, Note_on_c, 0, 68, 76
2, 19407, Note_on_c, 0, 68, 0
2, 19407, Note_on_c, 0, 86, 0
2, 19407, Control_c, 0, 64, 0
2, 19410, Note_on_c, 0, 80, 72
2, 19410, Note_on_c, 0, 77, 80
2, 19432, Note_on_c, 0, 77, 0
2, 19437, Note_on_c, 0, 80, 0
2, 19440, Note_on_c, 0, 88, 74
2, 19440, Note_on_c, 0, 64, 81
2, 19467, Note_on_c, 0, 64, 0
2, 19467, Note_on_c, 0, 88, 0
2, 19470, Note_on_c, 0, 86, 76
2, 19470, Note_on_c, 0, 65, 84
2, 19497, Note_on_c, 0, 65, 0
2, 19497, Note_on_c, 0, 86, 0
2, 19500, Note_on_c, 0, 85, 78
2, 19500, Note_on_c, 0, 67, 85
2, 19527, Note_on_c, 0, 67, 0
2, 19527, Note_on_c, 0, 85, 0
2, 19530, Note_on_c, 0, 94, 79
2, 19530, Note_on_c, 0, 58, 88
2, 19557, Note_on_c, 0, 58, 0
2, 19557, Note_on_c, 0, 94, 0
2, 19560, Note_on_c, 0, 88, 79
2, 19560, Note_on_c, 0, 64, 87
2, 19587, Note_on_c, 0, 64, 0
2, 19587, Note_on_c, 0, 88, 0
2, 19590, Note_on_c, 0, 86, 75
2, 19590, Note_on_c, 0, 65, 88
2, 19617, Note_on_c, 0, 65, 0
2, 19617, Note_on_c, 0, 86, 0
2, 19620, Note_on_c, 0, 85, 77
2, 19620, Note_on_c, 0, 67, 88
2, 19647, Note_on_c, 0, 67, 0
2, 19647, Note_on_c, 0, 85, 0
2, 19650, Note_on_c, 0, 79, 77
2, 19650, Note_on_c, 0, 76, 91
2, 19665, Control_c, 0, 64, 127
2, 19667, Note_on_c, 0, 76, 0
2, 19677, Note_on_c, 0, 79, 0
2, 19678, Note_on_c, 0, 57, 98
2, 19680, Note_on_c, 0, 88, 78
2, 19707, Note_on_c, 0, 88, 0
2, 19710, Note_on_c, 0, 86, 77
2, 19737, Note_on_c, 0, 86, 0
2, 19740, Note_on_c, 0, 85, 78
2, 19746, Note_on_c, 0, 57, 0
2, 19767, Note_on_c, 0, 85, 0
2, 19770, Note_on_c, 0, 93, 76
2, 19778, Control_c, 0, 64, 0
2, 19795, Note_on_c, 0, 69, 83
2, 19796, Note_on_c, 0, 57, 86
2, 19797, Note_on_c, 0, 93, 0
2, 19800, Note_on_c, 0, 88, 79
2, 19808, Control_c, 0, 64, 127
2, 19818, Note_on_c, 0, 69, 0
2, 19823, Note_on_c, 0, 57, 0
2, 19827, Note_on_c, 0, 88, 0
2, 19830, Note_on_c, 0, 86, 77
2, 19857, Note_on_c, 0, 86, 0
2, 19860, Note_on_c, 0, 85, 79
2, 19877, Note_on_c, 0, 52, 83
2, 19878, Note_on_c, 0, 64, 89
2, 19887, Note_on_c, 0, 85, 0
2, 19888, Control_c, 0, 64, 0
2, 19890, Note_on_c, 0, 79, 74
2, 19894, Note_on_c, 0, 64, 0
2, 19896, Note_on_c, 0, 52, 0
2, 19914, Control_c, 0, 64, 127
2, 19917, Note_on_c, 0, 79, 0
2, 19920, Note_on_c, 0, 76, 77
2, 19926, Note_on_c, 0, 45, 91
2, 19929, Note_on_c, 0, 57, 92
2, 19947, Note_on_c, 0, 76, 0
2, 19950, Note_on_c, 0, 74, 78
2, 19977, Note_on_c, 0, 74, 0
2, 19980, Note_on_c, 0, 73, 79
2, 19984, Note_on_c, 0, 57, 0
2, 19991, Note_on_c, 0, 45, 0
2, 20007, Note_on_c, 0, 73, 0
2, 20010, Note_on_c, 0, 67, 79
2, 20022, Control_c, 0, 64, 0
2, 20037, Note_on_c, 0, 67, 0
2, 20040, Note_on_c, 0, 64, 78
2, 20042, Control_c, 0, 64, 127
2, 20044, Note_on_c, 0, 40, 91
2, 20046, Note_on_c, 0, 52, 94
2, 20067, Note_on_c, 0, 64, 0
2, 20070, Note_on_c, 0, 62, 78
2, 20097, Note_on_c, 0, 62, 0
2, 20100, Note_on_c, 0, 61, 80
2, 20108, Note_on_c, 0, 52, 0
2, 20117, Note_on_c, 0, 40, 0
2, 20127, Note_on_c, 0, 61, 0
2, 20130, Note_on_c, 0, 55, 82
2, 20142, Control_c, 0, 64, 0
2, 20157, Note_on_c, 0, 55, 0
2, 20164, Control_c, 0, 64, 127
2, 20167, Note_on_c, 0, 33, 100
2, 20168, Note_on_c, 0, 45, 91
2, 20206, Note_on_c, 0, 33, 0
2, 20210, Note_on_c, 0, 45, 0
2, 20273, Control_c, 0, 64, 0
2, 20280, Note_on_c, 0, 88, 88
2, 20280, Note_on_c, 0, 64, 53
2, 20307, Note_on_c, 0, 64, 0
2, 20307, Note_on_c, 0, 88, 0
2, 20310, Note_on_c, 0, 86, 72
2, 20310, Note_on_c, 0, 66, 54
2, 20337, Note_on_c, 0, 66, 0
2, 20337, Note_on_c, 0, 86, 0
2, 20340, Note_on_c, 0, 85, 74
2, 20340, Note_on_c, 0, 67, 63
2, 20367, Note_on_c, 0, 67, 0
2, 20367, Note_on_c, 0, 85, 0
2, 20370, Note_on_c, 0, 79, 72
2, 20370, Note_on_c, 0, 76, 64
2, 20397, Note_on_c, 0, 76, 0
2, 20397, Note_on_c, 0, 79, 0
2, 20400, Note_on_c, 0, 86, 89
2, 20400, Note_on_c, 0, 62, 51
2, 20427, Note_on_c, 0, 62, 0
2, 20427, Note_on_c, 0, 86, 0
2, 20430, Note_on_c, 0, 85, 78
2, 20430, Note_on_c, 0, 64, 52
2, 20457, Note_on_c, 0, 64, 0
2, 20457, Note_on_c, 0, 85, 0
2, 20460, Note_on_c, 0, 83, 76
2, 20460, Note_on_c, 0, 66, 55
2, 20487, Note_on_c, 0, 66, 0
2, 20487, Note_on_c, 0, 83, 0
2, 20490, Note_on_c, 0, 78, 73
2, 20490, Note_on_c, 0, 74, 47
2, 20517, Note_on_c, 0, 74, 0
2, 20517, Note_on_c, 0, 78, 0
2, 20520, Note_on_c, 0, 85, 84
2, 20520, Note_on_c, 0, 61, 49
2, 20547, Note_on_c, 0, 61, 0
2, 20547, Note_on_c, 0, 85, 0
2, 20550, Note_on_c, 0, 83, 73
2, 20550, Note_on_c, 0, 62, 48
2, 20577, Note_on_c, 0, 62, 0
2, 20577, Note_on_c, 0, 83, 0
2, 20580, Note_on_c, 0, 81, 72
2, 20580, Note_on_c, 0, 64, 58
2, 20607, Note_on_c, 0, 64, 0
2, 20607, Note_on_c, 0, 81, 0
2, 20610, Note_on_c, 0, 76, 76
2, 20610, Note_on_c, 0, 73, 54
2, 20637, Note_on_c, 0, 73, 0
2, 20637, Note_on_c, 0, 76, 0
2, 20640, Note_on_c, 0, 83, 88
2, 20640, Note_on_c, 0, 59, 50
2, 20667, Note_on_c, 0, 59, 0
2, 20667, Note_on_c, 0, 83, 0
2, 20670, Note_on_c, 0, 81, 75
2, 20670, Note_on_c, 0, 61, 50
2, 20697, Note_on_c, 0, 61, 0
2, 20697, Note_on_c, 0, 81, 0
2, 20700, Note_on_c, 0, 79, 78
2, 20700, Note_on_c, 0, 62, 60
2, 20727, Note_on_c, 0, 62, 0
2, 20727, Note_on_c, 0, 79, 0
2, 20730, Note_on_c, 0, 74, 77
2, 20730, Note_on_c, 0, 71, 58
2, 20757, Note_on_c, 0, 71, 0
2, 20757, Note_on_c, 0, 74, 0
2, 20760, Note_on_c, 0, 81, 88
2, 20760, Note_on_c, 0, 57, 51
2, 20762, Control_c, 0, 64, 127
2, 20787, Note_on_c, 0, 57, 0
2, 20787, Note_on_c, 0, 81, 0
2, 20790, Note_on_c, 0, 79, 78
2, 20790, Note_on_c, 0, 59, 58
2, 20817, Note_on_c, 0, 59, 0
2, 20817, Note_on_c, 0, 79, 0
2, 20820, Note_on_c, 0, 78, 78
2, 20820, Note_on_c, 0, 61, 54
2, 20847, Note_on_c, 0, 61, 0
2, 20847, Note_on_c, 0, 78, 0
2, 20850, Note_on_c, 0, 73, 79
2, 20850, Note_on_c, 0, 69, 63
2, 20876, Control_c, 0, 64, 0
2, 20877, Note_on_c, 0, 69, 0
2, 20877, Note_on_c, 0, 73, 0
2, 20880, Note_on_c, 0, 79, 86
2, 20880, Note_on_c, 0, 55, 56
2, 20907, Note_on_c, 0, 55, 0
2, 20907, Note_on_c, 0, 79, 0
2, 20910, Note_on_c, 0, 78, 77
2, 20910, Note_on_c, 0, 57, 53
2, 20937, Note_on_c, 0, 57, 0
2, 20937, Note_on_c, 0, 78, 0
2, 20940, Note_on_c, 0, 76, 75
2, 20940, Note_on_c, 0, 59, 53
2, 20967, Note_on_c, 0, 59, 0
2, 20967, Note_on_c, 0, 76, 0
2, 20970, Note_on_c, 0, 71, 76
2, 20970, Note_on_c, 0, 67, 51
2, 20997, Note_on_c, 0, 67, 0
2, 20997, Note_on_c, 0, 71, 0
2, 21000, Note_on_c, 0, 78, 86
2, 21000, Note_on_c, 0, 54, 48
2, 21027, Note_on_c, 0, 54, 0
2, 21027, Note_on_c, 0, 78, 0
2, 21030, Note_on_c, 0, 76, 74
2, 21030, Note_on_c, 0, 55, 55
2, 21057, Note_on_c, 0, 55, 0
2, 21057, Note_on_c, 0, 76, 0
2, 21060, Note_on_c, 0, 74, 73
2, 21060, Note_on_c, 0, 57, 62
2, 21087, Note_on_c, 0, 57, 0
2, 21087, Note_on_c, 0, 74, 0
2, 21090, Note_on_c, 0, 69, 68
2, 21090, Note_on_c, 0, 66, 57
2, 21114, Control_c, 0, 64, 127
2, 21117, Note_on_c, 0, 66, 0
2, 21117, Note_on_c, 0, 69, 0
2, 21120, Note_on_c, 0, 76, 81
2, 21120, Note_on_c, 0, 52, 48
2, 21147, Note_on_c, 0, 52, 0
2, 21147, Note_on_c, 0, 76, 0
2, 21150, Note_on_c, 0, 74, 66
2, 21150, Note_on_c, 0, 54, 60
2, 21177, Note_on_c, 0, 54, 0
2, 21177, Note_on_c, 0, 74, 0
2, 21180, Note_on_c, 0, 73, 65
2, 21180, Note_on_c, 0, 55, 58
2, 21207, Note_on_c, 0, 55, 0
2, 21207, Note_on_c, 0, 73, 0
2, 21210, Note_on_c, 0, 67, 67
2, 21210, Note_on_c, 0, 64, 61
2, 21227, Control_c, 0, 64, 0
2, 21237, Note_on_c, 0, 64, 0
2, 21237, Note_on_c, 0, 67, 0
2, 21240, Note_on_c, 0, 74, 82
2, 21240, Note_on_c, 0, 51, 48
2, 21267, Note_on_c, 0, 51, 0
2, 21267, Note_on_c, 0, 74, 0
2, 21270, Note_on_c, 0, 73, 66
2, 21270, Note_on_c, 0, 52, 51
2, 21297, Note_on_c, 0, 52, 0
2, 21297, Note_on_c, 0, 73, 0
2, 21300, Note_on_c, 0, 71, 65
2, 21300, Note_on_c, 0, 54, 41
2, 21327, Note_on_c, 0, 54, 0
2, 21327, Note_on_c, 0, 71, 0
2, 21330, Note_on_c, 0, 68, 67
2, 21330, Note_on_c, 0, 62, 47
2, 21354, Control_c, 0, 64, 127
2, 21357, Note_on_c, 0, 62, 0
2, 21357, Note_on_c, 0, 68, 0
2, 21360, Note_on_c, 0, 74, 71
2, 21360, Note_on_c, 0, 54, 47
2, 21387, Note_on_c, 0, 54, 0
2, 21387, Note_on_c, 0, 74, 0
2, 21390, Note_on_c, 0, 73, 66
2, 21390, Note_on_c, 0, 55, 55
2, 21417, Note_on_c, 0, 55, 0
2, 21417, Note_on_c, 0, 73, 0
2, 21420, Note_on_c, 0, 71, 66
2, 21420, Note_on_c, 0, 57, 46
2, 21447, Note_on_c, 0, 57, 0
2, 21447, Note_on_c, 0, 71, 0
2, 21450, Note_on_c, 0, 66, 65
2, 21450, Note_on_c, 0, 62, 62
2, 21472, Control_c, 0, 64, 0
2, 21477, Note_on_c, 0, 62, 0
2, 21477, Note_on_c, 0, 66, 0
2, 21480, Note_on_c, 0, 74, 64
2, 21480, Note_on_c, 0, 55, 51
2, 21507, Note_on_c, 0, 55, 0
2, 21507, Note_on_c, 0, 74, 0
2, 21510, Note_on_c, 0, 73, 62
2, 21510, Note_on_c, 0, 57, 60
2, 21537, Note_on_c, 0, 57, 0
2, 21537, Note_on_c, 0, 73, 0
2, 21540, Note_on_c, 0, 71, 59
2, 21540, Note_on_c, 0, 59, 53
2, 21567, Note_on_c, 0, 59, 0
2, 21567, Note_on_c, 0, 71, 0
2, 21570, Note_on_c, 0, 65, 60
2, 21570, Note_on_c, 0, 62, 60
2, 21597, Note_on_c, 0, 62, 0
2, 21597, Note_on_c, 0, 65, 0
2, 21600, Note_on_c, 0, 73, 74
2, 21600, Note_on_c, 0, 57, 50
2, 21627, Note_on_c, 0, 57, 0
2, 21627, Note_on_c, 0, 73, 0
2, 21630, Note_on_c, 0, 71, 58
2, 21630, Note_on_c, 0, 59, 52
2, 21657, Note_on_c, 0, 59, 0
2, 21657, Note_on_c, 0, 71, 0
2, 21660, Note_on_c, 0, 69, 58
2, 21660, Note_on_c, 0, 60, 60
2, 21687, Note_on_c, 0, 60, 0
2, 21687, Note_on_c, 0, 69, 0
2, 21690, Note_on_c, 0, 66, 60
2, 21690, Note_on_c, 0, 61, 61
2, 21717, Note_on_c, 0, 61, 0
2, 21717, Note_on_c, 0, 66, 0
2, 21720, Note_on_c, 0, 72, 75
2, 21720, Note_on_c, 0, 51, 49
2, 21747, Note_on_c, 0, 51, 0
2, 21747, Note_on_c, 0, 72, 0
2, 21750, Note_on_c, 0, 71, 59
2, 21750, Note_on_c, 0, 52, 56
2, 21777, Note_on_c, 0, 52, 0
2, 21777, Note_on_c, 0, 71, 0
2, 21780, Note_on_c, 0, 69, 55
2, 21780, Note_on_c, 0, 54, 61
2, 21807, Note_on_c, 0, 54, 0
2, 21807, Note_on_c, 0, 69, 0
2, 21810, Note_on_c, 0, 66, 54
2, 21810, Note_on_c, 0, 60, 59
2, 21836, Control_c, 0, 64, 127
2, 21837, Note_on_c, 0, 60, 0
2, 21837, Note_on_c, 0, 66, 0
2, 21840, Note_on_c, 0, 72, 52
2, 21840, Note_on_c, 0, 52, 45
2, 21867, Note_on_c, 0, 52, 0
2, 21867, Note_on_c, 0, 72, 0
2, 21870, Note_on_c, 0, 71, 54
2, 21870, Note_on_c, 0, 54, 58
2, 21897, Note_on_c, 0, 54, 0
2, 21897, Note_on_c, 0, 71, 0
2, 21900, Note_on_c, 0, 69, 53
2, 21900, Note_on_c, 0, 55, 60
2, 21927, Note_on_c, 0, 55, 0
2, 21927, Note_on_c, 0, 69, 0
2, 21930, Note_on_c, 0, 64, 53
2, 21930, Note_on_c, 0, 60, 58
2, 21951, Control_c, 0, 64, 0
2, 21957, Note_on_c, 0, 60, 0
2, 21957, Note_on_c, 0, 64, 0
2, 21960, Note_on_c, 0, 72, 50
2, 21960, Note_on_c, 0, 54, 56
2, 21987, Note_on_c, 0, 54, 0
2, 21987, Note_on_c, 0, 72, 0
2, 21990, Note_on_c, 0, 71, 51
2, 21990, Note_on_c, 0, 55, 60
2, 22017, Note_on_c, 0, 55, 0
2, 22017, Note_on_c, 0, 71, 0
2, 22020, Note_on_c, 0, 69, 50
2, 22020, Note_on_c, 0, 57, 49
2, 22047, Note_on_c, 0, 57, 0
2, 22047, Note_on_c, 0, 69, 0
2, 22050, Note_on_c, 0, 63, 50
2, 22050, Note_on_c, 0, 60, 56
2, 22077, Note_on_c, 0, 60, 0
2, 22077, Note_on_c, 0, 63, 0
2, 22080, Note_on_c, 0, 71, 66
2, 22080, Note_on_c, 0, 55, 58
2, 22107, Note_on_c, 0, 55, 0
2, 22107, Note_on_c, 0, 71, 0
2, 22110, Note_on_c, 0, 69, 52
2, 22110, Note_on_c, 0, 57, 53
2, 22137, Note_on_c, 0, 57, 0
2, 22137, Note_on_c, 0, 69, 0
2, 22140, Note_on_c, 0, 67, 49
2, 22140, Note_on_c, 0, 58, 58
2, 22167, Note_on_c, 0, 58, 0
2, 22167, Note_on_c, 0, 67, 0
2, 22170, Note_on_c, 0, 64, 49
2, 22170, Note_on_c, 0, 59, 63
2, 22197, Note_on_c, 0, 59, 0
2, 22197, Note_on_c, 0, 64, 0
2, 22200, Note_on_c, 0, 70, 64
2, 22200, Note_on_c, 0, 49, 48
2, 22227, Note_on_c, 0, 49, 0
2, 22227, Note_on_c, 0, 70, 0
2, 22230, Note_on_c, 0, 69, 49
2, 22230, Note_on_c, 0, 50, 48
2, 22257, Note_on_c, 0, 50, 0
2, 22257, Note_on_c, 0, 69, 0
2, 22260, Note_on_c, 0, 67, 49
2, 22260, Note_on_c, 0, 52, 50
2, 22287, Note_on_c, 0, 52, 0
2, 22287, Note_on_c, 0, 67, 0
2, 22290, Note_on_c, 0, 64, 49
2, 22290, Note_on_c, 0, 58, 41
2, 22312, Control_c, 0, 64, 127
2, 22317, Note_on_c, 0, 58, 0
2, 22317, Note_on_c, 0, 64, 0
2, 22320, Note_on_c, 0, 70, 49
2, 22320, Note_on_c, 0, 50, 46
2, 22347, Note_on_c, 0, 50, 0
2, 22347, Note_on_c, 0, 70, 0
2, 22350, Note_on_c, 0, 69, 51
2, 22350, Note_on_c, 0, 52, 53
2, 22377, Note_on_c, 0, 52, 0
2, 22377, Note_on_c, 0, 69, 0
2, 22380, Note_on_c, 0, 67, 49
2, 22380, Note_on_c, 0, 53, 56
2, 22407, Note_on_c, 0, 53, 0
2, 22407, Note_on_c, 0, 67, 0
2, 22410, Note_on_c, 0, 62, 50
2, 22410, Note_on_c, 0, 58, 59
2, 22430, Control_c, 0, 64, 0
2, 22437, Note_on_c, 0, 58, 0
2, 22437, Note_on_c, 0, 62, 0
2, 22440, Note_on_c, 0, 70, 48
2, 22440, Note_on_c, 0, 52, 43
2, 22467, Note_on_c, 0, 52, 0
2, 22467, Note_on_c, 0, 70, 0
2, 22470, Note_on_c, 0, 69, 49
2, 22470, Note_on_c, 0, 53, 55
2, 22497, Note_on_c, 0, 53, 0
2, 22497, Note_on_c, 0, 69, 0
2, 22500, Note_on_c, 0, 67, 47
2, 22500, Note_on_c, 0, 55, 55
2, 22527, Note_on_c, 0, 55, 0
2, 22527, Note_on_c, 0, 67, 0
2, 22530, Note_on_c, 0, 61, 48
2, 22530, Note_on_c, 0, 58, 52
2, 22557, Note_on_c, 0, 58, 0
2, 22557, Note_on_c, 0, 61, 0
2, 22560, Note_on_c, 0, 62, 68
2, 22560, Note_on_c, 0, 57, 50
2, 22587, Note_on_c, 0, 57, 0
2, 22587, Note_on_c, 0, 62, 0
2, 22590, Note_on_c, 0, 64, 45
2, 22590, Note_on_c, 0, 55, 58
2, 22617, Note_on_c, 0, 55, 0
2, 22617, Note_on_c, 0, 64, 0
2, 22620, Note_on_c, 0, 65, 43
2, 22620, Note_on_c, 0, 53, 55
2, 22647, Note_on_c, 0, 53, 0
2, 22647, Note_on_c, 0, 65, 0
2, 22650, Note_on_c, 0, 74, 47
2, 22650, Note_on_c, 0, 45, 51
2, 22677, Note_on_c, 0, 45, 0
2, 22677, Note_on_c, 0, 74, 0
2, 22680, Note_on_c, 0, 61, 63
2, 22680, Note_on_c, 0, 55, 52
2, 22707, Note_on_c, 0, 55, 0
2, 22707, Note_on_c, 0, 61, 0
2, 22710, Note_on_c, 0, 62, 46
2, 22710, Note_on_c, 0, 53, 56
2, 22737, Note_on_c, 0, 53, 0
2, 22737, Note_on_c, 0, 62, 0
2, 22740, Note_on_c, 0, 64, 44
2, 22740, Note_on_c, 0, 52, 55
2, 22767, Note_on_c, 0, 52, 0
2, 22767, Note_on_c, 0, 64, 0
2, 22770, Note_on_c, 0, 73, 48
2, 22770, Note_on_c, 0, 45, 58
2, 22789, Control_c, 0, 64, 127
2, 22797, Note_on_c, 0, 45, 0
2, 22797, Note_on_c, 0, 73, 0
2, 22800, Note_on_c, 0, 62, 64
2, 22800, Note_on_c, 0, 57, 55
2, 22827, Note_on_c, 0, 57, 0
2, 22827, Note_on_c, 0, 62, 0
2, 22830, Note_on_c, 0, 64, 50
2, 22830, Note_on_c, 0, 55, 61
2, 22857, Note_on_c, 0, 55, 0
2, 22857, Note_on_c, 0, 64, 0
2, 22860, Note_on_c, 0, 65, 54
2, 22860, Note_on_c, 0, 53, 52
2, 22875, Control_c, 0, 64, 0
2, 22887, Note_on_c, 0, 53, 0
2, 22887, Note_on_c, 0, 65, 0
2, 22890, Note_on_c, 0, 74, 54
2, 22890, Note_on_c, 0, 45, 51
2, 22909, Control_c, 0, 64, 127
2, 22917, Note_on_c, 0, 45, 0
2, 22917, Note_on_c, 0, 74, 0
2, 22920, Note_on_c, 0, 65, 71
2, 22920, Note_on_c, 0, 53, 62
2, 22947, Note_on_c, 0, 53, 0
2, 22947, Note_on_c, 0, 65, 0
2, 22950, Note_on_c, 0, 67, 59
2, 22950, Note_on_c, 0, 52, 53
2, 22977, Note_on_c, 0, 52, 0
2, 22977, Note_on_c, 0, 67, 0
2, 22980, Note_on_c, 0, 68, 64
2, 22980, Note_on_c, 0, 50, 60
2, 23006, Control_c, 0, 64, 0
2, 23007, Note_on_c, 0, 50, 0
2, 23007, Note_on_c, 0, 68, 0
2, 23010, Note_on_c, 0, 77, 67
2, 23010, Note_on_c, 0, 45, 56
2, 23037, Note_on_c, 0, 77, 0
2, 23037, Control_c, 0, 64, 127
2, 23040, Note_on_c, 0, 69, 69
2, 23041, Note_on_c, 0, 49, 79
2, 23067, Note_on_c, 0, 69, 0
2, 23070, Note_on_c, 0, 71, 63
2, 23078, Note_on_c, 0, 45, 0
2, 23086, Note_on_c, 0, 49, 0
2, 23097, Note_on_c, 0, 71, 0
2, 23100, Note_on_c, 0, 73, 49
2, 23124, Control_c, 0, 64, 0
2, 23127, Note_on_c, 0, 73, 0
2, 23130, Note_on_c, 0, 81, 62
2, 23151, Note_on_c, 0, 81, 0
2, 23160, Note_on_c, 0, 81, 53
2, 23161, Control_c, 0, 64, 127
2, 23165, Note_on_c, 0, 45, 89
2, 23165, Note_on_c, 0, 33, 89
2, 23187, Note_on_c, 0, 81, 0
2, 23190, Note_on_c, 0, 83, 56
2, 23217, Note_on_c, 0, 83, 0
2, 23220, Note_on_c, 0, 85, 52
2, 23247, Note_on_c, 0, 85, 0
2, 23250, Note_on_c, 0, 93, 56
2, 23277, Note_on_c, 0, 93, 0
2, 23280, Note_on_c, 0, 85, 63
2, 23298, Control_c, 0, 64, 0
2, 23307, Note_on_c, 0, 85, 0
2, 23310, Note_on_c, 0, 83, 53
2, 23316, Control_c, 0, 64, 127
2, 23330, Note_on_c, 0, 45, 0
2, 23331, Note_on_c, 0, 33, 0
2, 23337, Note_on_c, 0, 83, 0
2, 23340, Note_on_c, 0, 81, 60
2, 23361, Note_on_c, 0, 81, 0
2, 23370, Note_on_c, 0, 81, 60
2, 23397, Note_on_c, 0, 81, 0
2, 23400, Note_on_c, 0, 73, 52
2, 23408, Note_on_c, 0, 52, 81
2, 23409, Note_on_c, 0, 49, 67
2, 23427, Note_on_c, 0, 73, 0
2, 23430, Note_on_c, 0, 71, 60
2, 23457, Note_on_c, 0, 71, 0
2, 23460, Note_on_c, 0, 69, 57
2, 23479, Note_on_c, 0, 49, 0
2, 23480, Note_on_c, 0, 52, 0
2, 23481, Note_on_c, 0, 69, 0
2, 23487, Control_c, 0, 64, 0
2, 23490, Note_on_c, 0, 69, 58
2, 23517, Note_on_c, 0, 69, 0
2, 23520, Note_on_c, 0, 70, 62
2, 23525, Note_on_c, 0, 45, 59
2, 23526, Note_on_c, 0, 53, 87
2, 23528, Note_on_c, 0, 50, 61
2, 23533, Control_c, 0, 64, 127
2, 23547, Note_on_c, 0, 70, 0
2, 23550, Note_on_c, 0, 72, 62
2, 23577, Note_on_c, 0, 72, 0
2, 23580, Note_on_c, 0, 74, 66
2, 23607, Note_on_c, 0, 74, 0
2, 23610, Note_on_c, 0, 82, 68
2, 23630, Control_c, 0, 64, 0
2, 23631, Note_on_c, 0, 82, 0
2, 23640, Note_on_c, 0, 82, 59
2, 23646, Note_on_c, 0, 55, 80
2, 23648, Note_on_c, 0, 53, 0
2, 23656, Control_c, 0, 64, 127
2, 23667, Note_on_c, 0, 82, 0
2, 23670, Note_on_c, 0, 84, 68
2, 23687, Note_on_c, 0, 50, 0
2, 23690, Note_on_c, 0, 45, 0
2, 23697, Note_on_c, 0, 84, 0
2, 23700, Note_on_c, 0, 86, 62
2, 23720, Control_c, 0, 64, 0
2, 23721, Note_on_c, 0, 53, 71
2, 23727, Note_on_c, 0, 86, 0
2, 23730, Note_on_c, 0, 94, 63
2, 23738, Note_on_c, 0, 55, 0
2, 23752, Control_c, 0, 64, 127
2, 23754, Note_on_c, 0, 58, 83
2, 23757, Note_on_c, 0, 94, 0
2, 23760, Note_on_c, 0, 86, 70
2, 23787, Note_on_c, 0, 86, 0
2, 23790, Note_on_c, 0, 84, 65
2, 23817, Note_on_c, 0, 84, 0
2, 23820, Note_on_c, 0, 82, 53
2, 23838, Control_c, 0, 64, 0
2, 23841, Note_on_c, 0, 82, 0
2, 23850, Note_on_c, 0, 82, 58
2, 23861, Control_c, 0, 64, 127
2, 23871, Note_on_c, 0, 62, 80
2, 23872, Note_on_c, 0, 58, 0
2, 23877, Note_on_c, 0, 82, 0
2, 23880, Note_on_c, 0, 74, 54
2, 23907, Note_on_c, 0, 74, 0
2, 23910, Note_on_c, 0, 72, 48
2, 23922, Note_on_c, 0, 62, 0
2, 23926, Note_on_c, 0, 53, 0
2, 23933, Control_c, 0, 64, 0
2, 23937, Note_on_c, 0, 72, 0
2, 23940, Note_on_c, 0, 70, 57
2, 23961, Note_on_c, 0, 70, 0
2, 23970, Note_on_c, 0, 70, 57
2, 23972, Note_on_c, 0, 45, 65
2, 23981, Control_c, 0, 64, 127
2, 23991, Note_on_c, 0, 51, 68
2, 23994, Note_on_c, 0, 54, 77
2, 23997, Note_on_c, 0, 70, 0
2, 24000, Note_on_c, 0, 71, 52
2, 24013, Note_on_c, 0, 59, 81
2, 24027, Note_on_c, 0, 71, 0
2, 24030, Note_on_c, 0, 73, 61
2, 24036, Note_on_c, 0, 45, 0
2, 24042, Note_on_c, 0, 59, 0
2, 24046, Note_on_c, 0, 54, 0
2, 24048, Note_on_c, 0, 51, 0
2, 24057, Note_on_c, 0, 73, 0
2, 24060, Note_on_c, 0, 75, 58
2, 24087, Note_on_c, 0, 75, 0
2, 24090, Note_on_c, 0, 83, 66
2, 24111, Note_on_c, 0, 83, 0
2, 24120, Note_on_c, 0, 83, 58
2, 24122, Note_on_c, 0, 45, 89
2, 24125, Note_on_c, 0, 33, 94
2, 24147, Note_on_c, 0, 83, 0
2, 24150, Note_on_c, 0, 85, 57
2, 24177, Note_on_c, 0, 85, 0
2, 24180, Note_on_c, 0, 87, 62
2, 24207, Note_on_c, 0, 87, 0
2, 24210, Note_on_c, 0, 95, 62
2, 24237, Note_on_c, 0, 95, 0
2, 24240, Note_on_c, 0, 87, 64
2, 24267, Note_on_c, 0, 87, 0
2, 24270, Note_on_c, 0, 85, 54
2, 24287, Note_on_c, 0, 33, 0
2, 24289, Note_on_c, 0, 45, 0
2, 24297, Note_on_c, 0, 85, 0
2, 24297, Control_c, 0, 64, 0
2, 24300, Note_on_c, 0, 83, 62
2, 24321, Note_on_c, 0, 83, 0
2, 24330, Note_on_c, 0, 83, 56
2, 24357, Note_on_c, 0, 83, 0
2, 24359, Control_c, 0, 64, 127
2, 24360, Note_on_c, 0, 75, 56
2, 24365, Note_on_c, 0, 50, 56
2, 24365, Note_on_c, 0, 53, 79
2, 24387, Note_on_c, 0, 75, 0
2, 24390, Note_on_c, 0, 73, 53
2, 24417, Note_on_c, 0, 73, 0
2, 24420, Note_on_c, 0, 71, 56
2, 24431, Note_on_c, 0, 50, 0
2, 24434, Note_on_c, 0, 53, 0
2, 24441, Note_on_c, 0, 71, 0
2, 24447, Control_c, 0, 64, 0
2, 24450, Note_on_c, 0, 71, 56
2, 24477, Note_on_c, 0, 71, 0
2, 24479, Note_on_c, 0, 45, 67
2, 24480, Note_on_c, 0, 72, 60
2, 24480, Control_c, 0, 64, 127
2, 24481, Note_on_c, 0, 55, 75
2, 24482, Note_on_c, 0, 52, 60
2, 24507, Note_on_c, 0, 72, 0
2, 24510, Note_on_c, 0, 74, 55
2, 24537, Note_on_c, 0, 74, 0
2, 24540, Note_on_c, 0, 76, 62
2, 24567, Note_on_c, 0, 76, 0
2, 24570, Note_on_c, 0, 84, 63
2, 24591, Note_on_c, 0, 84, 0
2, 24600, Note_on_c, 0, 55, 0
2, 24600, Note_on_c, 0, 84, 55
2, 24601, Note_on_c, 0, 57, 87
2, 24627, Note_on_c, 0, 84, 0
2, 24630, Note_on_c, 0, 86, 62
2, 24636, Note_on_c, 0, 45, 0
2, 24651, Note_on_c, 0, 52, 0
2, 24657, Note_on_c, 0, 86, 0
2, 24660, Note_on_c, 0, 88, 63
2, 24683, Note_on_c, 0, 55, 75
2, 24685, Control_c, 0, 64, 0
2, 24687, Note_on_c, 0, 88, 0
2, 24690, Note_on_c, 0, 96, 58
2, 24696, Note_on_c, 0, 57, 0
2, 24713, Control_c, 0, 64, 127
2, 24714, Note_on_c, 0, 60, 72
2, 24717, Note_on_c, 0, 96, 0
2, 24720, Note_on_c, 0, 88, 57
2, 24747, Note_on_c, 0, 88, 0
2, 24750, Note_on_c, 0, 86, 64
2, 24777, Note_on_c, 0, 86, 0
2, 24780, Note_on_c, 0, 84, 65
2, 24801, Note_on_c, 0, 84, 0
2, 24810, Note_on_c, 0, 84, 69
2, 24836, Note_on_c, 0, 64, 80
2, 24837, Note_on_c, 0, 84, 0
2, 24840, Note_on_c, 0, 76, 69
2, 24851, Note_on_c, 0, 60, 0
2, 24867, Note_on_c, 0, 76, 0
2, 24870, Note_on_c, 0, 74, 69
2, 24874, Control_c, 0, 64, 0
2, 24876, Note_on_c, 0, 55, 0
2, 24887, Note_on_c, 0, 64, 0
2, 24897, Note_on_c, 0, 74, 0
2, 24900, Note_on_c, 0, 72, 69
2, 24921, Note_on_c, 0, 72, 0
2, 24929, Note_on_c, 0, 45, 63
2, 24930, Note_on_c, 0, 72, 70
2, 24933, Control_c, 0, 64, 127
2, 24953, Note_on_c, 0, 52, 66
2, 24956, Note_on_c, 0, 45, 0
2, 24957, Note_on_c, 0, 72, 0
2, 24960, Note_on_c, 0, 73, 71
2, 24964, Note_on_c, 0, 55, 73
2, 24978, Note_on_c, 0, 61, 78
2, 24987, Note_on_c, 0, 73, 0
2, 24990, Note_on_c, 0, 74, 66
2, 25007, Note_on_c, 0, 61, 0
2, 25007, Note_on_c, 0, 55, 0
2, 25016, Note_on_c, 0, 52, 0
2, 25017, Note_on_c, 0, 74, 0
2, 25020, Note_on_c, 0, 76, 67
2, 25047, Note_on_c, 0, 76, 0
2, 25050, Note_on_c, 0, 85, 54
2, 25072, Control_c, 0, 64, 0
2, 25077, Note_on_c, 0, 85, 0
2, 25080, Note_on_c, 0, 76, 55
2, 25086, Note_on_c, 0, 33, 98
2, 25086, Note_on_c, 0, 45, 87
2, 25094, Control_c, 0, 64, 127
2, 25107, Note_on_c, 0, 76, 0
2, 25110, Note_on_c, 0, 77, 62
2, 25137, Note_on_c, 0, 77, 0
2, 25140, Note_on_c, 0, 79, 63
2, 25167, Note_on_c, 0, 79, 0
2, 25170, Note_on_c, 0, 88, 60
2, 25197, Note_on_c, 0, 88, 0
2, 25200, Note_on_c, 0, 79, 48
2, 25209, Note_on_c, 0, 33, 0
2, 25211, Note_on_c, 0, 45, 0
2, 25227, Note_on_c, 0, 79, 0
2, 25230, Note_on_c, 0, 81, 60
2, 25257, Note_on_c, 0, 81, 0
2, 25260, Note_on_c, 0, 82, 64
2, 25283, Control_c, 0, 64, 0
2, 25287, Note_on_c, 0, 82, 0
2, 25290, Note_on_c, 0, 91, 56
2, 25317, Note_on_c, 0, 91, 0
2, 25320, Note_on_c, 0, 82, 64
2, 25320, Note_on_c, 0, 55, 69
2, 25347, Note_on_c, 0, 55, 0
2, 25347, Note_on_c, 0, 82, 0
2, 25350, Note_on_c, 0, 83, 68
2, 25350, Note_on_c, 0, 57, 67
2, 25377, Note_on_c, 0, 57, 0
2, 25377, Note_on_c, 0, 83, 0
2, 25380, Note_on_c, 0, 85, 61
2, 25380, Note_on_c, 0, 58, 67
2, 25407, Note_on_c, 0, 58, 0
2, 25407, Note_on_c, 0, 85, 0
2, 25410, Note_on_c, 0, 94, 60
2, 25410, Note_on_c, 0, 64, 72
2, 25437, Note_on_c, 0, 64, 0
2, 25437, Note_on_c, 0, 94, 0
2, 25440, Note_on_c, 0, 79, 60
2, 25440, Note_on_c, 0, 58, 71
2, 25467, Note_on_c, 0, 58, 0
2, 25467, Note_on_c, 0, 79, 0
2, 25470, Note_on_c, 0, 81, 59
2, 25470, Note_on_c, 0, 60, 68
2, 25497, Note_on_c, 0, 60, 0
2, 25497, Note_on_c, 0, 81, 0
2, 25500, Note_on_c, 0, 82, 62
2, 25500, Note_on_c, 0, 61, 69
2, 25527, Note_on_c, 0, 61, 0
2, 25527, Note_on_c, 0, 82, 0
2, 25530, Note_on_c, 0, 91, 58
2, 25530, Note_on_c, 0, 67, 74
2, 25557, Note_on_c, 0, 67, 0
2, 25557, Note_on_c, 0, 91, 0
2, 25560, Note_on_c, 0, 76, 66
2, 25560, Note_on_c, 0, 61, 74
2, 25587, Note_on_c, 0, 61, 0
2, 25587, Note_on_c, 0, 76, 0
2, 25590, Note_on_c, 0, 77, 72
2, 25590, Note_on_c, 0, 62, 76
2, 25617, Note_on_c, 0, 62, 0
2, 25617, Note_on_c, 0, 77, 0
2, 25620, Note_on_c, 0, 79, 68
2, 25620, Note_on_c, 0, 64, 76
2, 25647, Note_on_c, 0, 64, 0
2, 25647, Note_on_c, 0, 79, 0
2, 25650, Note_on_c, 0, 88, 66
2, 25650, Note_on_c, 0, 70, 80
2, 25677, Note_on_c, 0, 70, 0
2, 25677, Note_on_c, 0, 88, 0
2, 25680, Note_on_c, 0, 79, 68
2, 25680, Note_on_c, 0, 64, 77
2, 25707, Note_on_c, 0, 64, 0
2, 25707, Note_on_c, 0, 79, 0
2, 25710, Note_on_c, 0, 81, 67
2, 25710, Note_on_c, 0, 65, 84
2, 25737, Note_on_c, 0, 65, 0
2, 25737, Note_on_c, 0, 81, 0
2, 25740, Note_on_c, 0, 82, 76
2, 25740, Note_on_c, 0, 67, 84
2, 25767, Note_on_c, 0, 67, 0
2, 25767, Note_on_c, 0, 82, 0
2, 25770, Note_on_c, 0, 91, 71
2, 25770, Note_on_c, 0, 73, 84
2, 25797, Note_on_c, 0, 73, 0
2, 25797, Note_on_c, 0, 91, 0
2, 25800, Note_on_c, 0, 82, 69
2, 25800, Note_on_c, 0, 67, 88
2, 25827, Note_on_c, 0, 67, 0
2, 25827, Note_on_c, 0, 82, 0
2, 25830, Note_on_c, 0, 84, 70
2, 25830, Note_on_c, 0, 69, 85
2, 25857, Note_on_c, 0, 69, 0
2, 25857, Note_on_c, 0, 84, 0
2, 25860, Note_on_c, 0, 85, 81
2, 25860, Note_on_c, 0, 70, 87
2, 25887, Note_on_c, 0, 70, 0
2, 25887, Note_on_c, 0, 85, 0
2, 25890, Note_on_c, 0, 94, 80
2, 25890, Note_on_c, 0, 76, 88
2, 25917, Note_on_c, 0, 76, 0
2, 25917, Note_on_c, 0, 94, 0
2, 25920, Note_on_c, 0, 88, 76
2, 25920, Note_on_c, 0, 79, 90
2, 25947, Note_on_c, 0, 88, 0
2, 25950, Note_on_c, 0, 86, 76
2, 25966, Note_on_c, 0, 79, 0
2, 25977, Note_on_c, 0, 86, 0
2, 25980, Note_on_c, 0, 85, 80
2, 26007, Note_on_c, 0, 85, 0
2, 26010, Note_on_c, 0, 79, 76
2, 26037, Note_on_c, 0, 79, 0
2, 26040, Note_on_c, 0, 88, 81
2, 26040, Note_on_c, 0, 67, 74
2, 26067, Note_on_c, 0, 67, 0
2, 26067, Note_on_c, 0, 88, 0
2, 26070, Note_on_c, 0, 86, 74
2, 26070, Note_on_c, 0, 69, 72
2, 26097, Note_on_c, 0, 69, 0
2, 26097, Note_on_c, 0, 86, 0
2, 26100, Note_on_c, 0, 85, 78
2, 26100, Note_on_c, 0, 70, 76
2, 26127, Note_on_c, 0, 70, 0
2, 26127, Note_on_c, 0, 85, 0
2, 26130, Note_on_c, 0, 94, 76
2, 26130, Note_on_c, 0, 61, 74
2, 26155, Control_c, 0, 64, 127
2, 26157, Note_on_c, 0, 61, 0
2, 26157, Note_on_c, 0, 94, 0
2, 26160, Note_on_c, 0, 88, 81
2, 26160, Note_on_c, 0, 67, 76
2, 26187, Note_on_c, 0, 67, 0
2, 26187, Note_on_c, 0, 88, 0
2, 26190, Note_on_c, 0, 86, 77
2, 26190, Note_on_c, 0, 69, 75
2, 26217, Note_on_c, 0, 69, 0
2, 26217, Note_on_c, 0, 86, 0
2, 26220, Note_on_c, 0, 85, 78
2, 26220, Note_on_c, 0, 70, 78
2, 26247, Note_on_c, 0, 70, 0
2, 26247, Note_on_c, 0, 85, 0
2, 26250, Note_on_c, 0, 79, 80
2, 26250, Note_on_c, 0, 76, 75
2, 26277, Note_on_c, 0, 76, 0
2, 26277, Note_on_c, 0, 79, 0
2, 26280, Note_on_c, 0, 88, 81
2, 26280, Note_on_c, 0, 67, 74
2, 26307, Note_on_c, 0, 67, 0
2, 26307, Note_on_c, 0, 88, 0
2, 26310, Note_on_c, 0, 86, 79
2, 26310, Note_on_c, 0, 69, 78
2, 26337, Note_on_c, 0, 69, 0
2, 26337, Note_on_c, 0, 86, 0
2, 26340, Note_on_c, 0, 85, 75
2, 26340, Note_on_c, 0, 70, 75
2, 26363, Control_c, 0, 64, 0
2, 26367, Note_on_c, 0, 70, 0
2, 26367, Note_on_c, 0, 85, 0
2, 26370, Note_on_c, 0, 94, 78
2, 26370, Note_on_c, 0, 61, 74
2, 26395, Control_c, 0, 64, 127
2, 26397, Note_on_c, 0, 61, 0
2, 26397, Note_on_c, 0, 94, 0
2, 26400, Note_on_c, 0, 88, 73
2, 26400, Note_on_c, 0, 67, 74
2, 26427, Note_on_c, 0, 67, 0
2, 26427, Note_on_c, 0, 88, 0
2, 26430, Note_on_c, 0, 86, 70
2, 26430, Note_on_c, 0, 69, 73
2, 26457, Note_on_c, 0, 69, 0
2, 26457, Note_on_c, 0, 86, 0
2, 26460, Note_on_c, 0, 85, 69
2, 26460, Note_on_c, 0, 70, 74
2, 26487, Note_on_c, 0, 70, 0
2, 26487, Note_on_c, 0, 85, 0
2, 26490, Note_on_c, 0, 79, 73
2, 26490, Note_on_c, 0, 76, 77
2, 26517, Note_on_c, 0, 76, 0
2, 26517, Note_on_c, 0, 79, 0
2, 26520, Note_on_c, 0, 85, 73
2, 26520, Note_on_c, 0, 70, 76
2, 26547, Note_on_c, 0, 70, 0
2, 26547, Note_on_c, 0, 85, 0
2, 26550, Note_on_c, 0, 86, 68
2, 26550, Note_on_c, 0, 69, 76
2, 26577, Note_on_c, 0, 69, 0
2, 26577, Note_on_c, 0, 86, 0
2, 26580, Note_on_c, 0, 88, 75
2, 26580, Note_on_c, 0, 67, 79
2, 26607, Note_on_c, 0, 67, 0
2, 26607, Note_on_c, 0, 88, 0
2, 26608, Control_c, 0, 64, 0
2, 26610, Note_on_c, 0, 94, 71
2, 26610, Note_on_c, 0, 61, 78
2, 26637, Note_on_c, 0, 61, 0
2, 26637, Note_on_c, 0, 94, 0
2, 26640, Note_on_c, 0, 88, 72
2, 26640, Note_on_c, 0, 67, 75
2, 26647, Control_c, 0, 64, 127
2, 26667, Note_on_c, 0, 67, 0
2, 26667, Note_on_c, 0, 88, 0
2, 26670, Note_on_c, 0, 86, 76
2, 26670, Note_on_c, 0, 69, 77
2, 26697, Note_on_c, 0, 69, 0
2, 26697, Note_on_c, 0, 86, 0
2, 26700, Note_on_c, 0, 85, 73
2, 26700, Note_on_c, 0, 70, 77
2, 26727, Note_on_c, 0, 70, 0
2, 26727, Note_on_c, 0, 85, 0
2, 26730, Note_on_c, 0, 79, 71
2, 26730, Note_on_c, 0, 76, 77
2, 26757, Note_on_c, 0, 76, 0
2, 26757, Note_on_c, 0, 79, 0
2, 26760, Note_on_c, 0, 85, 70
2, 26760, Note_on_c, 0, 70, 81
2, 26787, Note_on_c, 0, 70, 0
2, 26787, Note_on_c, 0, 85, 0
2, 26790, Note_on_c, 0, 86, 68
2, 26790, Note_on_c, 0, 69, 78
2, 26817, Note_on_c, 0, 69, 0
2, 26817, Note_on_c, 0, 86, 0
2, 26820, Note_on_c, 0, 88, 65
2, 26820, Note_on_c, 0, 67, 74
2, 26839, Control_c, 0, 64, 0
2, 26847, Note_on_c, 0, 67, 0
2, 26847, Note_on_c, 0, 88, 0
2, 26850, Note_on_c, 0, 94, 65
2, 26850, Note_on_c, 0, 61, 76
2, 26869, Control_c, 0, 64, 127
2, 26877, Note_on_c, 0, 61, 0
2, 26877, Note_on_c, 0, 94, 0
2, 26880, Note_on_c, 0, 88, 65
2, 26880, Note_on_c, 0, 67, 77
2, 26907, Note_on_c, 0, 67, 0
2, 26907, Note_on_c, 0, 88, 0
2, 26910, Note_on_c, 0, 86, 67
2, 26910, Note_on_c, 0, 69, 74
2, 26937, Note_on_c, 0, 69, 0
2, 26937, Note_on_c, 0, 86, 0
2, 26940, Note_on_c, 0, 84, 69
2, 26940, Note_on_c, 0, 70, 71
2, 26967, Note_on_c, 0, 70, 0
2, 26967, Note_on_c, 0, 84, 0
2, 26970, Note_on_c, 0, 79, 69
2, 26970, Note_on_c, 0, 76, 73
2, 26997, Note_on_c, 0, 76, 0
2, 26997, Note_on_c, 0, 79, 0
2, 27000, Note_on_c, 0, 88, 60
2, 27000, Note_on_c, 0, 67, 67
2, 27027, Note_on_c, 0, 67, 0
2, 27027, Note_on_c, 0, 88, 0
2, 27030, Note_on_c, 0, 86, 56
2, 27030, Note_on_c, 0, 69, 67
2, 27057, Note_on_c, 0, 69, 0
2, 27057, Note_on_c, 0, 86, 0
2, 27060, Note_on_c, 0, 84, 56
2, 27060, Note_on_c, 0, 70, 62
2, 27081, Control_c, 0, 64, 0
2, 27087, Note_on_c, 0, 70, 0
2, 27087, Note_on_c, 0, 84, 0
2, 27090, Note_on_c, 0, 94, 62
2, 27090, Note_on_c, 0, 60, 62
2, 27107, Control_c, 0, 64, 127
2, 27117, Note_on_c, 0, 60, 0
2, 27117, Note_on_c, 0, 94, 0
2, 27120, Note_on_c, 0, 88, 69
2, 27120, Note_on_c, 0, 67, 56
2, 27147, Note_on_c, 0, 67, 0
2, 27147, Note_on_c, 0, 88, 0
2, 27150, Note_on_c, 0, 86, 63
2, 27150, Note_on_c, 0, 69, 59
2, 27177, Note_on_c, 0, 69, 0
2, 27177, Note_on_c, 0, 86, 0
2, 27180, Note_on_c, 0, 84, 58
2, 27180, Note_on_c, 0, 70, 55
2, 27207, Note_on_c, 0, 70, 0
2, 27207, Note_on_c, 0, 84, 0
2, 27210, Note_on_c, 0, 79, 63
2, 27210, Note_on_c, 0, 76, 53
2, 27237, Note_on_c, 0, 76, 0
2, 27237, Note_on_c, 0, 79, 0
2, 27240, Note_on_c, 0, 88, 56
2, 27240, Note_on_c, 0, 67, 56
2, 27267, Note_on_c, 0, 67, 0
2, 27267, Note_on_c, 0, 88, 0
2, 27270, Note_on_c, 0, 86, 61
2, 27270, Note_on_c, 0, 69, 51
2, 27297, Note_on_c, 0, 69, 0
2, 27297, Note_on_c, 0, 86, 0
2, 27300, Note_on_c, 0, 84, 59
2, 27300, Note_on_c, 0, 70, 48
2, 27304, Control_c, 0, 64, 0
2, 27327, Note_on_c, 0, 70, 0
2, 27327, Note_on_c, 0, 84, 0
2, 27330, Note_on_c, 0, 94, 62
2, 27330, Note_on_c, 0, 60, 49
2, 27343, Control_c, 0, 64, 127
2, 27357, Note_on_c, 0, 60, 0
2, 27357, Note_on_c, 0, 94, 0
2, 27360, Note_on_c, 0, 88, 57
2, 27360, Note_on_c, 0, 67, 47
2, 27387, Note_on_c, 0, 67, 0
2, 27387, Note_on_c, 0, 88, 0
2, 27390, Note_on_c, 0, 86, 60
2, 27390, Note_on_c, 0, 69, 49
2, 27417, Note_on_c, 0, 69, 0
2, 27417, Note_on_c, 0, 86, 0
2, 27420, Note_on_c, 0, 84, 58
2, 27420, Note_on_c, 0, 70, 47
2, 27447, Note_on_c, 0, 70, 0
2, 27447, Note_on_c, 0, 84, 0
2, 27450, Note_on_c, 0, 79, 54
2, 27450, Note_on_c, 0, 76, 43
2, 27477, Note_on_c, 0, 76, 0
2, 27477, Note_on_c, 0, 79, 0
2, 27480, Note_on_c, 0, 84, 58
2, 27480, Note_on_c, 0, 70, 43
2, 27507, Note_on_c, 0, 70, 0
2, 27507, Note_on_c, 0, 84, 0
2, 27510, Note_on_c, 0, 86, 55
2, 27510, Note_on_c, 0, 69, 40
2, 27528, Control_c, 0, 64, 0
2, 27537, Note_on_c, 0, 69, 0
2, 27537, Note_on_c, 0, 86, 0
2, 27540, Note_on_c, 0, 88, 52
2, 27540, Note_on_c, 0, 67, 39
2, 27561, Control_c, 0, 64, 127
2, 27567, Note_on_c, 0, 67, 0
2, 27567, Note_on_c, 0, 88, 0
2, 27570, Note_on_c, 0, 94, 57
2, 27570, Note_on_c, 0, 60, 40
2, 27597, Note_on_c, 0, 60, 0
2, 27597, Note_on_c, 0, 94, 0
2, 27600, Note_on_c, 0, 88, 53
2, 27600, Note_on_c, 0, 67, 37
2, 27627, Note_on_c, 0, 67, 0
2, 27627, Note_on_c, 0, 88, 0
2, 27630, Note_on_c, 0, 86, 51
2, 27630, Note_on_c, 0, 69, 34
2, 27657, Note_on_c, 0, 69, 0
2, 27657, Note_on_c, 0, 86, 0
2, 27660, Note_on_c, 0, 84, 50
2, 27660, Note_on_c, 0, 70, 35
2, 27687, Note_on_c, 0, 70, 0
2, 27687, Note_on_c, 0, 84, 0
2, 27690, Note_on_c, 0, 79, 49
2, 27690, Note_on_c, 0, 76, 32
2, 27717, Note_on_c, 0, 76, 0
2, 27717, Note_on_c, 0, 79, 0
2, 27720, Note_on_c, 0, 84, 47
2, 27720, Note_on_c, 0, 70, 33
2, 27747, Note_on_c, 0, 70, 0
2, 27747, Note_on_c, 0, 84, 0
2, 27750, Note_on_c, 0, 86, 50
2, 27750, Note_on_c, 0, 69, 31
2, 27777, Note_on_c, 0, 69, 0
2, 27777, Note_on_c, 0, 86, 0
2, 27780, Note_on_c, 0, 88, 45
2, 27780, Note_on_c, 0, 67, 31
2, 27791, Control_c, 0, 64, 0
2, 27807, Note_on_c, 0, 67, 0
2, 27807, Note_on_c, 0, 88, 0
2, 27810, Note_on_c, 0, 94, 44
2, 27810, Note_on_c, 0, 60, 31
2, 27813, Control_c, 0, 64, 127
2, 27837, Note_on_c, 0, 60, 0
2, 27837, Note_on_c, 0, 94, 0
2, 27840, Note_on_c, 0, 88, 37
2, 27840, Note_on_c, 0, 67, 32
2, 27867, Note_on_c, 0, 67, 0
2, 27867, Note_on_c, 0, 88, 0
2, 27870, Note_on_c, 0, 86, 35
2, 27870, Note_on_c, 0, 69, 33
2, 27897, Note_on_c, 0, 69, 0
2, 27897, Note_on_c, 0, 86, 0
2, 27900, Note_on_c, 0, 84, 38
2, 27900, Note_on_c, 0, 70, 35
2, 27927, Note_on_c, 0, 70, 0
2, 27927, Note_on_c, 0, 84, 0
2, 27930, Note_on_c, 0, 79, 38
2, 27930, Note_on_c, 0, 76, 37
2, 27957, Note_on_c, 0, 76, 0
2, 27957, Note_on_c, 0, 79, 0
2, 27960, Note_on_c, 0, 89, 38
2, 27960, Note_on_c, 0, 68, 39
2, 27987, Note_on_c, 0, 68, 0
2, 27987, Note_on_c, 0, 89, 0
2, 27990, Note_on_c, 0, 88, 37
2, 27990, Note_on_c, 0, 69, 40
2, 28017, Note_on_c, 0, 69, 0
2, 28017, Note_on_c, 0, 88, 0
2, 28020, Note_on_c, 0, 86, 37
2, 28020, Note_on_c, 0, 71, 41
2, 28047, Note_on_c, 0, 71, 0
2, 28047, Note_on_c, 0, 86, 0
2, 28048, Control_c, 0, 64, 0
2, 28050, Note_on_c, 0, 80, 41
2, 28050, Note_on_c, 0, 77, 41
2, 28077, Note_on_c, 0, 77, 0
2, 28077, Note_on_c, 0, 80, 0
2, 28080, Note_on_c, 0, 89, 41
2, 28080, Note_on_c, 0, 68, 41
2, 28107, Note_on_c, 0, 68, 0
2, 28107, Note_on_c, 0, 89, 0
2, 28110, Note_on_c, 0, 88, 41
2, 28110, Note_on_c, 0, 69, 41
2, 28137, Note_on_c, 0, 69, 0
2, 28137, Note_on_c, 0, 88, 0
2, 28140, Note_on_c, 0, 86, 43
2, 28140, Note_on_c, 0, 71, 41
2, 28167, Note_on_c, 0, 71, 0
2, 28167, Note_on_c, 0, 86, 0
2, 28170, Note_on_c, 0, 80, 43
2, 28170, Note_on_c, 0, 77, 41
2, 28188, Control_c, 0, 64, 127
2, 28197, Note_on_c, 0, 77, 0
2, 28197, Note_on_c, 0, 80, 0
2, 28200, Note_on_c, 0, 88, 44
2, 28200, Note_on_c, 0, 67, 41
2, 28227, Note_on_c, 0, 67, 0
2, 28227, Note_on_c, 0, 88, 0
2, 28230, Note_on_c, 0, 86, 44
2, 28230, Note_on_c, 0, 69, 41
2, 28257, Note_on_c, 0, 69, 0
2, 28257, Note_on_c, 0, 86, 0
2, 28260, Note_on_c, 0, 85, 43
2, 28260, Note_on_c, 0, 70, 41
2, 28287, Note_on_c, 0, 70, 0
2, 28287, Note_on_c, 0, 85, 0
2, 28290, Note_on_c, 0, 79, 45
2, 28290, Note_on_c, 0, 76, 41
2, 28317, Note_on_c, 0, 76, 0
2, 28317, Note_on_c, 0, 79, 0
2, 28320, Note_on_c, 0, 88, 48
2, 28320, Note_on_c, 0, 67, 41
2, 28329, Control_c, 0, 64, 0
2, 28347, Note_on_c, 0, 67, 0
2, 28347, Note_on_c, 0, 88, 0
2, 28350, Note_on_c, 0, 86, 48
2, 28350, Note_on_c, 0, 69, 42
2, 28377, Note_on_c, 0, 69, 0
2, 28377, Note_on_c, 0, 86, 0
2, 28380, Note_on_c, 0, 85, 49
2, 28380, Note_on_c, 0, 70, 42
2, 28407, Note_on_c, 0, 70, 0
2, 28407, Note_on_c, 0, 85, 0
2, 28410, Note_on_c, 0, 79, 50
2, 28410, Note_on_c, 0, 76, 42
2, 28424, Control_c, 0, 64, 127
2, 28437, Note_on_c, 0, 76, 0
2, 28437, Note_on_c, 0, 79, 0
2, 28440, Note_on_c, 0, 89, 50
2, 28440, Note_on_c, 0, 68, 42
2, 28467, Note_on_c, 0, 68, 0
2, 28467, Note_on_c, 0, 89, 0
2, 28470, Note_on_c, 0, 88, 51
2, 28470, Note_on_c, 0, 69, 42
2, 28497, Note_on_c, 0, 69, 0
2, 28497, Note_on_c, 0, 88, 0
2, 28500, Note_on_c, 0, 86, 50
2, 28500, Note_on_c, 0, 71, 43
2, 28527, Note_on_c, 0, 71, 0
2, 28527, Note_on_c, 0, 86, 0
2, 28530, Note_on_c, 0, 80, 51
2, 28530, Note_on_c, 0, 77, 44
2, 28557, Note_on_c, 0, 77, 0
2, 28557, Note_on_c, 0, 80, 0
2, 28560, Note_on_c, 0, 89, 51
2, 28560, Note_on_c, 0, 68, 45
2, 28575, Control_c, 0, 64, 0
2, 28587, Note_on_c, 0, 68, 0
2, 28587, Note_on_c, 0, 89, 0
2, 28590, Note_on_c, 0, 88, 51
2, 28590, Note_on_c, 0, 69, 46
2, 28617, Note_on_c, 0, 69, 0
2, 28617, Note_on_c, 0, 88, 0
2, 28620, Note_on_c, 0, 86, 53
2, 28620, Note_on_c, 0, 71, 46
2, 28647, Note_on_c, 0, 71, 0
2, 28647, Note_on_c, 0, 86, 0
2, 28650, Note_on_c, 0, 80, 50
2, 28650, Note_on_c, 0, 77, 47
2, 28667, Control_c, 0, 64, 127
2, 28677, Note_on_c, 0, 77, 0
2, 28677, Note_on_c, 0, 80, 0
2, 28680, Note_on_c, 0, 90, 52
2, 28680, Note_on_c, 0, 69, 47
2, 28707, Note_on_c, 0, 69, 0
2, 28707, Note_on_c, 0, 90, 0
2, 28710, Note_on_c, 0, 88, 49
2, 28710, Note_on_c, 0, 70, 49
2, 28737, Note_on_c, 0, 70, 0
2, 28737, Note_on_c, 0, 88, 0
2, 28740, Note_on_c, 0, 87, 50
2, 28740, Note_on_c, 0, 72, 51
2, 28767, Note_on_c, 0, 72, 0
2, 28767, Note_on_c, 0, 87, 0
2, 28770, Note_on_c, 0, 81, 49
2, 28770, Note_on_c, 0, 78, 53
2, 28797, Note_on_c, 0, 78, 0
2, 28797, Note_on_c, 0, 81, 0
2, 28800, Note_on_c, 0, 90, 49
2, 28800, Note_on_c, 0, 69, 53
2, 28827, Note_on_c, 0, 69, 0
2, 28827, Note_on_c, 0, 90, 0
2, 28830, Note_on_c, 0, 88, 51
2, 28830, Note_on_c, 0, 70, 54
2, 28838, Control_c, 0, 64, 0
2, 28857, Note_on_c, 0, 70, 0
2, 28857, Note_on_c, 0, 88, 0
2, 28860, Note_on_c, 0, 87, 50
2, 28860, Note_on_c, 0, 72, 54
2, 28887, Note_on_c, 0, 72, 0
2, 28887, Note_on_c, 0, 87, 0
2, 28890, Note_on_c, 0, 81, 49
2, 28890, Note_on_c, 0, 78, 55
2, 28911, Control_c, 0, 64, 127
2, 28917, Note_on_c, 0, 78, 0
2, 28917, Note_on_c, 0, 81, 0
2, 28920, Note_on_c, 0, 91, 47
2, 28920, Note_on_c, 0, 70, 55
2, 28947, Note_on_c, 0, 70, 0
2, 28947, Note_on_c, 0, 91, 0
2, 28950, Note_on_c, 0, 89, 52
2, 28950, Note_on_c, 0, 72, 54
2, 28977, Note_on_c, 0, 72, 0
2, 28977, Note_on_c, 0, 89, 0
2, 28980, Note_on_c, 0, 88, 51
2, 28980, Note_on_c, 0, 73, 55
2, 29007, Note_on_c, 0, 73, 0
2, 29007, Note_on_c, 0, 88, 0
2, 29010, Note_on_c, 0, 82, 50
2, 29010, Note_on_c, 0, 79, 55
2, 29037, Note_on_c, 0, 79, 0
2, 29037, Note_on_c, 0, 82, 0
2, 29040, Note_on_c, 0, 91, 55
2, 29040, Note_on_c, 0, 70, 56
2, 29044, Control_c, 0, 64, 0
2, 29067, Note_on_c, 0, 70, 0
2, 29067, Note_on_c, 0, 91, 0
2, 29070, Note_on_c, 0, 89, 55
2, 29070, Note_on_c, 0, 72, 58
2, 29097, Note_on_c, 0, 72, 0
2, 29097, Note_on_c, 0, 89, 0
2, 29100, Note_on_c, 0, 88, 53
2, 29100, Note_on_c, 0, 73, 58
2, 29127, Note_on_c, 0, 73, 0
2, 29127, Note_on_c, 0, 88, 0
2, 29130, Note_on_c, 0, 82, 51
2, 29130, Note_on_c, 0, 79, 59
2, 29147, Control_c, 0, 64, 127
2, 29157, Note_on_c, 0, 79, 0
2, 29157, Note_on_c, 0, 82, 0
2, 29160, Note_on_c, 0, 90, 52
2, 29160, Note_on_c, 0, 69, 61
2, 29187, Note_on_c, 0, 69, 0
2, 29187, Note_on_c, 0, 90, 0
2, 29190, Note_on_c, 0, 88, 57
2, 29190, Note_on_c, 0, 70, 63
2, 29217, Note_on_c, 0, 70, 0
2, 29217, Note_on_c, 0, 88, 0
2, 29220, Note_on_c, 0, 87, 55
2, 29220, Note_on_c, 0, 72, 63
2, 29247, Note_on_c, 0, 72, 0
2, 29247, Note_on_c, 0, 87, 0
2, 29250, Note_on_c, 0, 81, 58
2, 29250, Note_on_c, 0, 78, 64
2, 29277, Note_on_c, 0, 78, 0
2, 29277, Note_on_c, 0, 81, 0
2, 29280, Note_on_c, 0, 90, 60
2, 29280, Control_c, 0, 64, 0
2, 29280, Note_on_c, 0, 69, 66
2, 29307, Note_on_c, 0, 69, 0
2, 29307, Note_on_c, 0, 90, 0
2, 29310, Note_on_c, 0, 88, 58
2, 29310, Note_on_c, 0, 70, 67
2, 29337, Note_on_c, 0, 70, 0
2, 29337, Note_on_c, 0, 88, 0
2, 29340, Note_on_c, 0, 87, 57
2, 29340, Note_on_c, 0, 72, 67
2, 29367, Note_on_c, 0, 72, 0
2, 29367, Note_on_c, 0, 87, 0
2, 29370, Note_on_c, 0, 81, 52
2, 29370, Note_on_c, 0, 78, 68
2, 29385, Control_c, 0, 64, 127
2, 29397, Note_on_c, 0, 78, 0
2, 29397, Note_on_c, 0, 81, 0
2, 29400, Note_on_c, 0, 91, 51
2, 29400, Note_on_c, 0, 70, 67
2, 29427, Note_on_c, 0, 70, 0
2, 29427, Note_on_c, 0, 91, 0
2, 29430, Note_on_c, 0, 89, 66
2, 29430, Note_on_c, 0, 72, 66
2, 29457, Note_on_c, 0, 72, 0
2, 29457, Note_on_c, 0, 89, 0
2, 29460, Note_on_c, 0, 88, 56
2, 29460, Note_on_c, 0, 73, 66
2, 29487, Note_on_c, 0, 73, 0
2, 29487, Note_on_c, 0, 88, 0
2, 29490, Note_on_c, 0, 82, 57
2, 29490, Note_on_c, 0, 79, 66
2, 29517, Note_on_c, 0, 79, 0
2, 29517, Note_on_c, 0, 82, 0
2, 29520, Note_on_c, 0, 91, 65
2, 29520, Note_on_c, 0, 70, 66
2, 29547, Note_on_c, 0, 70, 0
2, 29547, Note_on_c, 0, 91, 0
2, 29550, Note_on_c, 0, 89, 53
2, 29550, Note_on_c, 0, 72, 66
2, 29577, Note_on_c, 0, 72, 0
2, 29577, Note_on_c, 0, 89, 0
2, 29580, Note_on_c, 0, 88, 50
2, 29580, Note_on_c, 0, 73, 66
2, 29607, Note_on_c, 0, 73, 0
2, 29607, Note_on_c, 0, 88, 0
2, 29610, Note_on_c, 0, 82, 48
2, 29610, Note_on_c, 0, 79, 66
2, 29612, Control_c, 0, 64, 0
2, 29637, Note_on_c, 0, 79, 0
2, 29637, Note_on_c, 0, 82, 0
2, 29640, Note_on_c, 0, 92, 62
2, 29640, Note_on_c, 0, 71, 67
2, 29667, Note_on_c, 0, 71, 0
2, 29667, Note_on_c, 0, 92, 0
2, 29670, Note_on_c, 0, 91, 63
2, 29670, Note_on_c, 0, 72, 68
2, 29697, Note_on_c, 0, 72, 0
2, 29697, Note_on_c, 0, 91, 0
2, 29700, Note_on_c, 0, 89, 62
2, 29700, Note_on_c, 0, 74, 69
2, 29727, Note_on_c, 0, 74, 0
2, 29727, Note_on_c, 0, 89, 0
2, 29730, Note_on_c, 0, 83, 63
2, 29730, Note_on_c, 0, 80, 69
2, 29741, Control_c, 0, 64, 127
2, 29747, Note_on_c, 0, 80, 0
2, 29757, Note_on_c, 0, 83, 0
2, 29760, Note_on_c, 0, 93, 74
2, 29762, Note_on_c, 0, 65, 76
2, 29783, Note_on_c, 0, 72, 76
2, 29787, Note_on_c, 0, 65, 0
2, 29787, Note_on_c, 0, 93, 0
2, 29790, Note_on_c, 0, 91, 67
2, 29809, Note_on_c, 0, 81, 83
2, 29817, Note_on_c, 0, 91, 0
2, 29820, Note_on_c, 0, 89, 68
2, 29827, Note_on_c, 0, 72, 0
2, 29835, Note_on_c, 0, 81, 0
2, 29847, Note_on_c, 0, 89, 0
2, 29850, Note_on_c, 0, 84, 61
2, 29877, Note_on_c, 0, 84, 0
2, 29880, Note_on_c, 0, 81, 65
2, 29907, Note_on_c, 0, 81, 0
2, 29910, Note_on_c, 0, 79, 60
2, 29937, Note_on_c, 0, 79, 0
2, 29940, Note_on_c, 0, 77, 60
2, 29957, Control_c, 0, 64, 0
2, 29967, Note_on_c, 0, 77, 0
2, 29970, Note_on_c, 0, 72, 58
2, 29997, Note_on_c, 0, 72, 0
2, 30000, Note_on_c, 0, 69, 54
2, 30012, Note_on_c, 0, 60, 71
2, 30013, Note_on_c, 0, 53, 78
2, 30027, Note_on_c, 0, 69, 0
2, 30030, Note_on_c, 0, 67, 60
2, 30034, Note_on_c, 0, 60, 0
2, 30040, Note_on_c, 0, 53, 0
2, 30057, Note_on_c, 0, 67, 0
2, 30060, Note_on_c, 0, 65, 53
2, 30087, Note_on_c, 0, 65, 0
2, 30090, Note_on_c, 0, 60, 52
2, 30117, Note_on_c, 0, 60, 0
2, 30120, Note_on_c, 0, 57, 56
2, 30130, Note_on_c, 0, 41, 86
2, 30133, Note_on_c, 0, 48, 83
2, 30147, Note_on_c, 0, 57, 0
2, 30150, Note_on_c, 0, 55, 55
2, 30154, Note_on_c, 0, 48, 0
2, 30161, Note_on_c, 0, 41, 0
2, 30177, Note_on_c, 0, 55, 0
2, 30180, Note_on_c, 0, 53, 54
2, 30207, Note_on_c, 0, 53, 0
2, 30210, Note_on_c, 0, 48, 60
2, 30216, Control_c, 0, 64, 127
2, 30237, Note_on_c, 0, 48, 0
2, 30240, Note_on_c, 0, 53, 48
2, 30243, Note_on_c, 0, 41, 80
2, 30244, Note_on_c, 0, 29, 89
2, 30267, Note_on_c, 0, 53, 0
2, 30269, Note_on_c, 0, 29, 0
2, 30270, Note_on_c, 0, 55, 53
2, 30281, Note_on_c, 0, 41, 0
2, 30297, Note_on_c, 0, 55, 0
2, 30300, Note_on_c, 0, 57, 55
2, 30327, Note_on_c, 0, 57, 0
2, 30330, Note_on_c, 0, 60, 58
2, 30352, Control_c, 0, 64, 0
2, 30357, Note_on_c, 0, 60, 0
2, 30360, Note_on_c, 0, 65, 54
2, 30365, Note_on_c, 0, 50, 77
2, 30387, Note_on_c, 0, 65, 0
2, 30390, Note_on_c, 0, 67, 48
2, 30417, Note_on_c, 0, 67, 0
2, 30420, Note_on_c, 0, 69, 58
2, 30447, Note_on_c, 0, 69, 0
2, 30450, Note_on_c, 0, 72, 55
2, 30450, Note_on_c, 0, 48, 75
2, 30459, Note_on_c, 0, 50, 0
2, 30477, Note_on_c, 0, 72, 0
2, 30478, Note_on_c, 0, 57, 70
2, 30480, Note_on_c, 0, 77, 55
2, 30481, Note_on_c, 0, 48, 0
2, 30507, Note_on_c, 0, 77, 0
2, 30510, Note_on_c, 0, 79, 55
2, 30537, Note_on_c, 0, 79, 0
2, 30540, Note_on_c, 0, 81, 54
2, 30567, Note_on_c, 0, 81, 0
2, 30570, Note_on_c, 0, 84, 53
2, 30589, Note_on_c, 0, 53, 70
2, 30597, Note_on_c, 0, 84, 0
2, 30597, Note_on_c, 0, 57, 0
2, 30600, Note_on_c, 0, 89, 58
2, 30627, Note_on_c, 0, 89, 0
2, 30630, Note_on_c, 0, 91, 51
2, 30657, Note_on_c, 0, 91, 0
2, 30660, Note_on_c, 0, 93, 55
2, 30678, Note_on_c, 0, 53, 0
2, 30678, Note_on_c, 0, 45, 73
2, 30687, Note_on_c, 0, 93, 0
2, 30690, Note_on_c, 0, 91, 53
2, 30697, Control_c, 0, 64, 127
2, 30711, Note_on_c, 0, 45, 0
2, 30716, Note_on_c, 0, 41, 68
2, 30717, Note_on_c, 0, 91, 0
2, 30719, Note_on_c, 0, 48, 83
2, 30720, Note_on_c, 0, 89, 69
2, 30747, Note_on_c, 0, 89, 0
2, 30750, Note_on_c, 0, 84, 56
2, 30777, Note_on_c, 0, 84, 0
2, 30780, Note_on_c, 0, 81, 55
2, 30807, Note_on_c, 0, 81, 0
2, 30810, Note_on_c, 0, 79, 58
2, 30837, Note_on_c, 0, 79, 0
2, 30840, Note_on_c, 0, 77, 66
2, 30867, Note_on_c, 0, 77, 0
2, 30870, Note_on_c, 0, 72, 55
2, 30888, Note_on_c, 0, 48, 0
2, 30897, Note_on_c, 0, 72, 0
2, 30900, Note_on_c, 0, 69, 56
2, 30927, Note_on_c, 0, 69, 0
2, 30930, Note_on_c, 0, 67, 60
2, 30939, Control_c, 0, 64, 0
2, 30956, Note_on_c, 0, 47, 64
2, 30957, Note_on_c, 0, 67, 0
2, 30960, Note_on_c, 0, 65, 65
2, 30964, Note_on_c, 0, 48, 76
2, 30979, Note_on_c, 0, 47, 0
2, 30987, Note_on_c, 0, 65, 0
2, 30989, Note_on_c, 0, 48, 0
2, 30990, Note_on_c, 0, 60, 53
2, 31017, Note_on_c, 0, 60, 0
2, 31020, Note_on_c, 0, 57, 49
2, 31047, Note_on_c, 0, 57, 0
2, 31050, Note_on_c, 0, 55, 52
2, 31077, Note_on_c, 0, 55, 0
2, 31080, Note_on_c, 0, 53, 62
2, 31080, Note_on_c, 0, 48, 92
2, 31100, Note_on_c, 0, 48, 0
2, 31107, Note_on_c, 0, 53, 0
2, 31110, Note_on_c, 0, 48, 49
2, 31130, Note_on_c, 0, 41, 0
2, 31137, Note_on_c, 0, 48, 0
2, 31140, Note_on_c, 0, 53, 56
2, 31167, Note_on_c, 0, 53, 0
2, 31170, Note_on_c, 0, 57, 63
2, 31191, Control_c, 0, 64, 127
2, 31197, Note_on_c, 0, 57, 0
2, 31200, Note_on_c, 0, 55, 68
2, 31206, Note_on_c, 0, 40, 96
2, 31207, Note_on_c, 0, 28, 100
2, 31227, Note_on_c, 0, 55, 0
2, 31230, Note_on_c, 0, 48, 51
2, 31248, Note_on_c, 0, 40, 0
2, 31250, Note_on_c, 0, 28, 0
2, 31257, Note_on_c, 0, 48, 0
2, 31260, Note_on_c, 0, 55, 63
2, 31287, Note_on_c, 0, 55, 0
2, 31290, Note_on_c, 0, 57, 60
2, 31317, Note_on_c, 0, 57, 0
2, 31320, Note_on_c, 0, 58, 66
2, 31323, Control_c, 0, 64, 0
2, 31325, Note_on_c, 0, 50, 83
2, 31347, Note_on_c, 0, 58, 0
2, 31350, Note_on_c, 0, 60, 48
2, 31377, Note_on_c, 0, 60, 0
2, 31380, Note_on_c, 0, 67, 55
2, 31407, Note_on_c, 0, 67, 0
2, 31410, Note_on_c, 0, 69, 53
2, 31419, Note_on_c, 0, 48, 76
2, 31425, Note_on_c, 0, 50, 0
2, 31437, Note_on_c, 0, 69, 0
2, 31437, Control_c, 0, 64, 127
2, 31440, Note_on_c, 0, 70, 67
2, 31446, Note_on_c, 0, 55, 91
2, 31457, Note_on_c, 0, 48, 0
2, 31467, Note_on_c, 0, 70, 0
2, 31470, Note_on_c, 0, 72, 50
2, 31497, Note_on_c, 0, 72, 0
2, 31500, Note_on_c, 0, 79, 59
2, 31527, Note_on_c, 0, 79, 0
2, 31530, Note_on_c, 0, 81, 58
2, 31556, Control_c, 0, 64, 0
2, 31557, Note_on_c, 0, 81, 0
2, 31560, Note_on_c, 0, 82, 66
2, 31573, Note_on_c, 0, 62, 87
2, 31582, Note_on_c, 0, 55, 0
2, 31587, Note_on_c, 0, 82, 0
2, 31590, Note_on_c, 0, 84, 47
2, 31594, Note_on_c, 0, 62, 0
2, 31617, Note_on_c, 0, 84, 0
2, 31620, Note_on_c, 0, 91, 56
2, 31647, Note_on_c, 0, 91, 0
2, 31650, Note_on_c, 0, 93, 59
2, 31658, Note_on_c, 0, 40, 57
2, 31667, Note_on_c, 0, 40, 0
2, 31670, Note_on_c, 0, 48, 78
2, 31677, Note_on_c, 0, 93, 0
2, 31680, Note_on_c, 0, 94, 68
2, 31686, Control_c, 0, 64, 127
2, 31692, Note_on_c, 0, 60, 91
2, 31707, Note_on_c, 0, 94, 0
2, 31710, Note_on_c, 0, 93, 58
2, 31737, Note_on_c, 0, 93, 0
2, 31740, Note_on_c, 0, 91, 50
2, 31767, Note_on_c, 0, 91, 0
2, 31770, Note_on_c, 0, 84, 60
2, 31797, Note_on_c, 0, 84, 0
2, 31800, Note_on_c, 0, 82, 65
2, 31822, Note_on_c, 0, 60, 0
2, 31827, Note_on_c, 0, 82, 0
2, 31828, Note_on_c, 0, 48, 0
2, 31830, Note_on_c, 0, 81, 62
2, 31857, Note_on_c, 0, 81, 0
2, 31860, Note_on_c, 0, 79, 57
2, 31886, Control_c, 0, 64, 0
2, 31887, Note_on_c, 0, 79, 0
2, 31890, Note_on_c, 0, 72, 55
2, 31917, Note_on_c, 0, 72, 0
2, 31917, Note_on_c, 0, 47, 68
2, 31920, Note_on_c, 0, 70, 64
2, 31933, Note_on_c, 0, 48, 84
2, 31947, Note_on_c, 0, 70, 0
2, 31950, Note_on_c, 0, 69, 55
2, 31951, Note_on_c, 0, 47, 0
2, 31968, Note_on_c, 0, 48, 0
2, 31977, Note_on_c, 0, 69, 0
2, 31980, Note_on_c, 0, 67, 47
2, 32007, Note_on_c, 0, 67, 0
2, 32010, Note_on_c, 0, 60, 50
2, 32037, Note_on_c, 0, 60, 0
2, 32040, Note_on_c, 0, 58, 61
2, 32047, Note_on_c, 0, 48, 98
2, 32067, Note_on_c, 0, 58, 0
2, 32070, Note_on_c, 0, 57, 51
2, 32081, Note_on_c, 0, 48, 0
2, 32097, Note_on_c, 0, 57, 0
2, 32100, Note_on_c, 0, 55, 58
2, 32127, Note_on_c, 0, 55, 0
2, 32130, Note_on_c, 0, 48, 47
2, 32157, Note_on_c, 0, 48, 0
2, 32160, Note_on_c, 0, 55, 67
2, 32163, Control_c, 0, 64, 127
2, 32166, Note_on_c, 0, 28, 89
2, 32167, Note_on_c, 0, 40, 89
2, 32187, Note_on_c, 0, 55, 0
2, 32190, Note_on_c, 0, 57, 56
2, 32205, Note_on_c, 0, 28, 0
2, 32214, Note_on_c, 0, 40, 0
2, 32217, Note_on_c, 0, 57, 0
2, 32220, Note_on_c, 0, 58, 63
2, 32247, Note_on_c, 0, 58, 0
2, 32250, Note_on_c, 0, 60, 44
2, 32277, Note_on_c, 0, 60, 0
2, 32280, Note_on_c, 0, 67, 67
2, 32287, Control_c, 0, 64, 0
2, 32291, Note_on_c, 0, 50, 76
2, 32307, Note_on_c, 0, 67, 0
2, 32310, Note_on_c, 0, 69, 52
2, 32337, Note_on_c, 0, 69, 0
2, 32340, Note_on_c, 0, 70, 55
2, 32367, Note_on_c, 0, 70, 0
2, 32370, Note_on_c, 0, 72, 50
2, 32375, Note_on_c, 0, 48, 69
2, 32390, Note_on_c, 0, 50, 0
2, 32397, Note_on_c, 0, 72, 0
2, 32400, Note_on_c, 0, 79, 65
2, 32404, Control_c, 0, 64, 127
2, 32410, Note_on_c, 0, 58, 83
2, 32414, Note_on_c, 0, 48, 0
2, 32427, Note_on_c, 0, 79, 0
2, 32430, Note_on_c, 0, 81, 58
2, 32457, Note_on_c, 0, 81, 0
2, 32460, Note_on_c, 0, 82, 59
2, 32487, Note_on_c, 0, 82, 0
2, 32490, Note_on_c, 0, 84, 49
2, 32517, Note_on_c, 0, 84, 0
2, 32517, Note_on_c, 0, 58, 0
2, 32520, Note_on_c, 0, 91, 66
2, 32522, Note_on_c, 0, 55, 73
2, 32529, Control_c, 0, 64, 0
2, 32547, Note_on_c, 0, 91, 0
2, 32550, Note_on_c, 0, 93, 55
2, 32577, Note_on_c, 0, 93, 0
2, 32580, Note_on_c, 0, 94, 60
2, 32607, Note_on_c, 0, 94, 0
2, 32608, Note_on_c, 0, 55, 0
2, 32610, Note_on_c, 0, 93, 64
2, 32613, Note_on_c, 0, 43, 73
2, 32637, Note_on_c, 0, 93, 0
2, 32640, Note_on_c, 0, 91, 58
2, 32646, Note_on_c, 0, 43, 0
2, 32647, Control_c, 0, 64, 127
2, 32647, Note_on_c, 0, 40, 71
2, 32649, Note_on_c, 0, 48, 86
2, 32667, Note_on_c, 0, 91, 0
2, 32670, Note_on_c, 0, 84, 50
2, 32697, Note_on_c, 0, 84, 0
2, 32700, Note_on_c, 0, 82, 50
2, 32727, Note_on_c, 0, 82, 0
2, 32730, Note_on_c, 0, 81, 57
2, 32757, Note_on_c, 0, 81, 0
2, 32760, Note_on_c, 0, 79, 56
2, 32787, Note_on_c, 0, 79, 0
2, 32790, Note_on_c, 0, 72, 47
2, 32812, Note_on_c, 0, 48, 0
2, 32817, Note_on_c, 0, 72, 0
2, 32820, Note_on_c, 0, 70, 49
2, 32847, Note_on_c, 0, 70, 0
2, 32850, Note_on_c, 0, 69, 59
2, 32867, Control_c, 0, 64, 0
2, 32877, Note_on_c, 0, 69, 0
2, 32880, Note_on_c, 0, 67, 56
2, 32884, Note_on_c, 0, 47, 64
2, 32896, Note_on_c, 0, 48, 79
2, 32907, Note_on_c, 0, 67, 0
2, 32910, Note_on_c, 0, 60, 61
2, 32915, Note_on_c, 0, 47, 0
2, 32928, Note_on_c, 0, 48, 0
2, 32937, Note_on_c, 0, 60, 0
2, 32940, Note_on_c, 0, 58, 54
2, 32967, Note_on_c, 0, 58, 0
2, 32970, Note_on_c, 0, 57, 60
2, 32997, Note_on_c, 0, 57, 0
2, 33000, Note_on_c, 0, 55, 62
2, 33002, Note_on_c, 0, 48, 94
2, 33024, Note_on_c, 0, 48, 0
2, 33027, Note_on_c, 0, 55, 0
2, 33030, Note_on_c, 0, 48, 51
2, 33055, Note_on_c, 0, 40, 0
2, 33057, Note_on_c, 0, 48, 0
2, 33060, Note_on_c, 0, 55, 62
2, 33087, Note_on_c, 0, 55, 0
2, 33090, Note_on_c, 0, 58, 58
2, 33117, Note_on_c, 0, 58, 0
2, 33120, Note_on_c, 0, 57, 60
2, 33122, Control_c, 0, 64, 127
2, 33127, Note_on_c, 0, 29, 91
2, 33128, Note_on_c, 0, 41, 92
2, 33147, Note_on_c, 0, 57, 0
2, 33149, Note_on_c, 0, 29, 0
2, 33150, Note_on_c, 0, 48, 50
2, 33162, Note_on_c, 0, 41, 0
2, 33177, Note_on_c, 0, 48, 0
2, 33180, Note_on_c, 0, 53, 62
2, 33207, Note_on_c, 0, 53, 0
2, 33210, Note_on_c, 0, 55, 63
2, 33233, Control_c, 0, 64, 0
2, 33237, Note_on_c, 0, 55, 0
2, 33240, Note_on_c, 0, 57, 64
2, 33241, Note_on_c, 0, 50, 73
2, 33267, Note_on_c, 0, 57, 0
2, 33270, Note_on_c, 0, 60, 58
2, 33297, Note_on_c, 0, 60, 0
2, 33300, Note_on_c, 0, 65, 58
2, 33318, Note_on_c, 0, 50, 0
2, 33327, Note_on_c, 0, 65, 0
2, 33330, Note_on_c, 0, 67, 61
2, 33330, Note_on_c, 0, 48, 78
2, 33357, Note_on_c, 0, 67, 0
2, 33357, Note_on_c, 0, 53, 79
2, 33359, Control_c, 0, 64, 127
2, 33360, Note_on_c, 0, 69, 60
2, 33368, Note_on_c, 0, 48, 0
2, 33387, Note_on_c, 0, 69, 0
2, 33390, Note_on_c, 0, 72, 50
2, 33417, Note_on_c, 0, 72, 0
2, 33420, Note_on_c, 0, 77, 58
2, 33447, Note_on_c, 0, 77, 0
2, 33450, Note_on_c, 0, 79, 60
2, 33466, Control_c, 0, 64, 0
2, 33477, Note_on_c, 0, 79, 0
2, 33477, Note_on_c, 0, 53, 0
2, 33480, Note_on_c, 0, 81, 58
2, 33488, Note_on_c, 0, 65, 94
2, 33507, Note_on_c, 0, 81, 0
2, 33510, Note_on_c, 0, 84, 46
2, 33537, Note_on_c, 0, 84, 0
2, 33540, Note_on_c, 0, 89, 58
2, 33567, Note_on_c, 0, 89, 0
2, 33568, Note_on_c, 0, 65, 0
2, 33570, Note_on_c, 0, 93, 48
2, 33597, Note_on_c, 0, 93, 0
2, 33600, Note_on_c, 0, 91, 60
2, 33601, Note_on_c, 0, 62, 82
2, 33603, Note_on_c, 0, 58, 85
2, 33604, Control_c, 0, 64, 127
2, 33604, Note_on_c, 0, 65, 82
2, 33605, Note_on_c, 0, 53, 79
2, 33627, Note_on_c, 0, 91, 0
2, 33630, Note_on_c, 0, 89, 62
2, 33657, Note_on_c, 0, 89, 0
2, 33660, Note_on_c, 0, 86, 56
2, 33687, Note_on_c, 0, 86, 0
2, 33690, Note_on_c, 0, 82, 60
2, 33717, Note_on_c, 0, 82, 0
2, 33720, Note_on_c, 0, 79, 61
2, 33747, Note_on_c, 0, 79, 0
2, 33750, Note_on_c, 0, 77, 58
2, 33777, Note_on_c, 0, 77, 0
2, 33780, Note_on_c, 0, 74, 59
2, 33783, Note_on_c, 0, 65, 0
2, 33784, Note_on_c, 0, 62, 0
2, 33784, Note_on_c, 0, 58, 0
2, 33787, Note_on_c, 0, 53, 0
2, 33807, Note_on_c, 0, 74, 0
2, 33810, Note_on_c, 0, 70, 60
2, 33837, Note_on_c, 0, 70, 0
2, 33840, Note_on_c, 0, 72, 72
2, 33841, Control_c, 0, 64, 0
2, 33849, Note_on_c, 0, 53, 73
2, 33850, Note_on_c, 0, 65, 83
2, 33851, Note_on_c, 0, 60, 79
2, 33852, Note_on_c, 0, 57, 60
2, 33867, Note_on_c, 0, 72, 0
2, 33870, Note_on_c, 0, 65, 0
2, 33870, Note_on_c, 0, 77, 58
2, 33871, Note_on_c, 0, 60, 0
2, 33876, Note_on_c, 0, 57, 0
2, 33878, Note_on_c, 0, 53, 0
2, 33897, Note_on_c, 0, 77, 0
2, 33900, Note_on_c, 0, 79, 62
2, 33927, Note_on_c, 0, 79, 0
2, 33930, Note_on_c, 0, 81, 67
2, 33957, Note_on_c, 0, 81, 0
2, 33960, Note_on_c, 0, 84, 73
2, 33969, Note_on_c, 0, 65, 81
2, 33970, Note_on_c, 0, 57, 79
2, 33972, Note_on_c, 0, 60, 79
2, 33973, Note_on_c, 0, 53, 75
2, 33987, Note_on_c, 0, 84, 0
2, 33990, Note_on_c, 0, 60, 0
2, 33990, Note_on_c, 0, 65, 0
2, 33990, Note_on_c, 0, 89, 58
2, 33991, Note_on_c, 0, 53, 0
2, 33993, Note_on_c, 0, 57, 0
2, 34017, Note_on_c, 0, 89, 0
2, 34020, Note_on_c, 0, 91, 66
2, 34047, Note_on_c, 0, 91, 0
2, 34050, Note_on_c, 0, 93, 60
2, 34077, Note_on_c, 0, 93, 0
2, 34080, Note_on_c, 0, 91, 64
2, 34080, Control_c, 0, 64, 127
2, 34088, Note_on_c, 0, 53, 76
2, 34089, Note_on_c, 0, 65, 86
2, 34090, Note_on_c, 0, 62, 84
2, 34091, Note_on_c, 0, 58, 82
2, 34107, Note_on_c, 0, 91, 0
2, 34110, Note_on_c, 0, 89, 60
2, 34137, Note_on_c, 0, 89, 0
2, 34140, Note_on_c, 0, 86, 66
2, 34167, Note_on_c, 0, 86, 0
2, 34170, Note_on_c, 0, 82, 57
2, 34197, Note_on_c, 0, 82, 0
2, 34200, Note_on_c, 0, 79, 58
2, 34227, Note_on_c, 0, 79, 0
2, 34230, Note_on_c, 0, 77, 53
2, 34253, Note_on_c, 0, 65, 0
2, 34254, Note_on_c, 0, 58, 0
2, 34254, Note_on_c, 0, 62, 0
2, 34256, Note_on_c, 0, 53, 0
2, 34257, Note_on_c, 0, 77, 0
2, 34260, Note_on_c, 0, 74, 59
2, 34287, Note_on_c, 0, 74, 0
2, 34290, Note_on_c, 0, 70, 51
2, 34317, Note_on_c, 0, 70, 0
2, 34320, Note_on_c, 0, 72, 69
2, 34321, Control_c, 0, 64, 0
2, 34329, Note_on_c, 0, 53, 73
2, 34330, Note_on_c, 0, 60, 79
2, 34331, Note_on_c, 0, 65, 79
2, 34333, Note_on_c, 0, 57, 63
2, 34347, Note_on_c, 0, 72, 0
2, 34350, Note_on_c, 0, 77, 57
2, 34354, Note_on_c, 0, 60, 0
2, 34356, Note_on_c, 0, 57, 0
2, 34358, Note_on_c, 0, 65, 0
2, 34360, Note_on_c, 0, 53, 0
2, 34377, Note_on_c, 0, 77, 0
2, 34380, Note_on_c, 0, 79, 62
2, 34407, Note_on_c, 0, 79, 0
2, 34410, Note_on_c, 0, 81, 58
2, 34437, Note_on_c, 0, 81, 0
2, 34440, Note_on_c, 0, 84, 71
2, 34446, Note_on_c, 0, 53, 68
2, 34448, Note_on_c, 0, 60, 73
2, 34449, Note_on_c, 0, 57, 65
2, 34450, Note_on_c, 0, 65, 75
2, 34467, Note_on_c, 0, 84, 0
2, 34468, Note_on_c, 0, 65, 0
2, 34468, Note_on_c, 0, 60, 0
2, 34469, Note_on_c, 0, 53, 0
2, 34470, Note_on_c, 0, 57, 0
2, 34470, Note_on_c, 0, 89, 58
2, 34497, Note_on_c, 0, 89, 0
2, 34500, Note_on_c, 0, 91, 56
2, 34527, Note_on_c, 0, 91, 0
2, 34530, Note_on_c, 0, 93, 64
2, 34530, Note_on_c, 0, 49, 72
2, 34553, Note_on_c, 0, 55, 74
2, 34557, Note_on_c, 0, 93, 0
2, 34559, Note_on_c, 0, 49, 0
2, 34559, Control_c, 0, 64, 127
2, 34560, Note_on_c, 0, 91, 63
2, 34563, Note_on_c, 0, 59, 76
2, 34579, Note_on_c, 0, 65, 92
2, 34587, Note_on_c, 0, 91, 0
2, 34590, Note_on_c, 0, 93, 68
2, 34616, Note_on_c, 0, 55, 0
2, 34617, Note_on_c, 0, 93, 0
2, 34620, Note_on_c, 0, 91, 61
2, 34628, Note_on_c, 0, 59, 0
2, 34631, Note_on_c, 0, 65, 0
2, 34647, Note_on_c, 0, 91, 0
2, 34650, Note_on_c, 0, 89, 62
2, 34677, Note_on_c, 0, 89, 0
2, 34680, Note_on_c, 0, 83, 58
2, 34707, Note_on_c, 0, 83, 0
2, 34710, Note_on_c, 0, 79, 65
2, 34737, Note_on_c, 0, 79, 0
2, 34740, Note_on_c, 0, 77, 62
2, 34767, Note_on_c, 0, 77, 0
2, 34770, Note_on_c, 0, 71, 60
2, 34797, Note_on_c, 0, 71, 0
2, 34800, Note_on_c, 0, 67, 62
2, 34827, Note_on_c, 0, 67, 0
2, 34830, Note_on_c, 0, 65, 60
2, 34857, Note_on_c, 0, 65, 0
2, 34860, Note_on_c, 0, 59, 53
2, 34887, Note_on_c, 0, 59, 0
2, 34890, Note_on_c, 0, 55, 62
2, 34910, Control_c, 0, 64, 0
2, 34917, Note_on_c, 0, 55, 0
2, 34920, Note_on_c, 0, 53, 55
2, 34947, Note_on_c, 0, 53, 0
2, 34950, Note_on_c, 0, 47, 71
2, 34980, Note_on_c, 0, 43, 62
2, 35007, Note_on_c, 0, 43, 0
2, 35010, Note_on_c, 0, 41, 58
2, 35037, Note_on_c, 0, 41, 0
2, 35039, Note_on_c, 0, 35, 89
2, 35052, Control_c, 0, 64, 127
2, 35070, Note_on_c, 0, 49, 59
2, 35097, Note_on_c, 0, 49, 0
2, 35100, Note_on_c, 0, 53, 63
2, 35127, Note_on_c, 0, 53, 0
2, 35130, Note_on_c, 0, 55, 62
2, 35157, Note_on_c, 0, 55, 0
2, 35160, Note_on_c, 0, 61, 61
2, 35187, Note_on_c, 0, 61, 0
2, 35190, Note_on_c, 0, 65, 65
2, 35217, Note_on_c, 0, 65, 0
2, 35220, Note_on_c, 0, 67, 63
2, 35247, Note_on_c, 0, 67, 0
2, 35250, Note_on_c, 0, 73, 66
2, 35277, Note_on_c, 0, 73, 0
2, 35280, Note_on_c, 0, 77, 68
2, 35307, Note_on_c, 0, 77, 0
2, 35310, Note_on_c, 0, 79, 71
2, 35337, Note_on_c, 0, 79, 0
2, 35340, Note_on_c, 0, 85, 70
2, 35367, Note_on_c, 0, 85, 0
2, 35370, Note_on_c, 0, 89, 72
2, 35397, Note_on_c, 0, 89, 0
2, 35400, Note_on_c, 0, 91, 72
2, 35427, Note_on_c, 0, 91, 0
2, 35430, Note_on_c, 0, 97, 72
2, 35457, Note_on_c, 0, 97, 0
2, 35457, Note_on_c, 0, 47, 0
2, 35457, Control_c, 0, 64, 0
2, 35460, Note_on_c, 0, 101, 74
2, 35471, Note_on_c, 0, 35, 0
2, 35487, Note_on_c, 0, 101, 0
2, 35490, Note_on_c, 0, 89, 76
2, 35500, Control_c, 0, 64, 127
2, 35517, Note_on_c, 0, 89, 0
2, 35518, Note_on_c, 0, 48, 95
2, 35519, Note_on_c, 0, 36, 95
2, 35520, Note_on_c, 0, 96, 77
2, 35547, Note_on_c, 0, 96, 0
2, 35550, Note_on_c, 0, 91, 75
2, 35577, Note_on_c, 0, 91, 0
2, 35580, Note_on_c, 0, 89, 77
2, 35607, Note_on_c, 0, 89, 0
2, 35610, Note_on_c, 0, 84, 78
2, 35637, Note_on_c, 0, 84, 0
2, 35640, Note_on_c, 0, 79, 77
2, 35667, Note_on_c, 0, 79, 0
2, 35670, Note_on_c, 0, 77, 76
2, 35697, Note_on_c, 0, 77, 0
2, 35700, Note_on_c, 0, 72, 79
2, 35727, Note_on_c, 0, 72, 0
2, 35730, Note_on_c, 0, 67, 77
2, 35757, Note_on_c, 0, 67, 0
2, 35760, Note_on_c, 0, 65, 77
2, 35787, Note_on_c, 0, 65, 0
2, 35790, Note_on_c, 0, 60, 77
2, 35817, Note_on_c, 0, 60, 0
2, 35820, Note_on_c, 0, 55, 81
2, 35839, Note_on_c, 0, 36, 0
2, 35839, Note_on_c, 0, 48, 0
2, 35847, Note_on_c, 0, 55, 0
2, 35850, Note_on_c, 0, 53, 79
2, 35872, Control_c, 0, 64, 0
2, 35877, Note_on_c, 0, 53, 0
2, 35880, Note_on_c, 0, 48, 79
2, 35907, Note_on_c, 0, 48, 0
2, 35910, Note_on_c, 0, 41, 79
2, 35937, Note_on_c, 0, 41, 0
2, 35940, Note_on_c, 0, 40, 76
2, 35967, Note_on_c, 0, 40, 0
2, 35970, Note_on_c, 0, 38, 73
2, 35994, Note_on_c, 0, 70, 76
2, 35995, Note_on_c, 0, 58, 69
2, 35997, Note_on_c, 0, 38, 0
2, 35997, Note_on_c, 0, 64, 71
2, 36000, Note_on_c, 0, 36, 49
2, 36027, Note_on_c, 0, 36, 0
2, 36030, Note_on_c, 0, 38, 64
2, 36057, Note_on_c, 0, 38, 0
2, 36060, Note_on_c, 0, 40, 67
2, 36087, Note_on_c, 0, 40, 0
2, 36090, Note_on_c, 0, 48, 52
2, 36117, Note_on_c, 0, 48, 0
2, 36120, Note_on_c, 0, 38, 58
2, 36124, Note_on_c, 0, 62, 56
2, 36136, Note_on_c, 0, 64, 0
2, 36147, Note_on_c, 0, 38, 0
2, 36150, Note_on_c, 0, 40, 60
2, 36167, Note_on_c, 0, 62, 0
2, 36177, Note_on_c, 0, 40, 0
2, 36180, Note_on_c, 0, 41, 58
2, 36207, Note_on_c, 0, 41, 0
2, 36210, Note_on_c, 0, 48, 52
2, 36237, Note_on_c, 0, 48, 0
2, 36239, Note_on_c, 0, 62, 56
2, 36240, Note_on_c, 0, 38, 66
2, 36242, Control_c, 0, 64, 127
2, 36267, Note_on_c, 0, 38, 0
2, 36270, Note_on_c, 0, 40, 58
2, 36274, Note_on_c, 0, 62, 0
2, 36296, Note_on_c, 0, 70, 0
2, 36297, Note_on_c, 0, 40, 0
2, 36300, Note_on_c, 0, 41, 66
2, 36308, Note_on_c, 0, 58, 0
2, 36327, Note_on_c, 0, 41, 0
2, 36330, Note_on_c, 0, 48, 51
2, 36352, Control_c, 0, 64, 0
2, 36357, Note_on_c, 0, 48, 0
2, 36360, Note_on_c, 0, 40, 66
2, 36363, Note_on_c, 0, 69, 62
2, 36364, Note_on_c, 0, 60, 51
2, 36366, Note_on_c, 0, 58, 51
2, 36387, Note_on_c, 0, 40, 0
2, 36390, Note_on_c, 0, 41, 66
2, 36417, Note_on_c, 0, 41, 0
2, 36420, Note_on_c, 0, 43, 68
2, 36447, Note_on_c, 0, 43, 0
2, 36450, Note_on_c, 0, 48, 63
2, 36454, Note_on_c, 0, 67, 45
2, 36457, Note_on_c, 0, 60, 0
2, 36462, Note_on_c, 0, 58, 0
2, 36463, Note_on_c, 0, 69, 0
2, 36476, Control_c, 0, 64, 127
2, 36477, Note_on_c, 0, 48, 0
2, 36480, Note_on_c, 0, 41, 43
2, 36483, Note_on_c, 0, 65, 50
2, 36494, Note_on_c, 0, 67, 0
2, 36508, Note_on_c, 0, 65, 0
2, 36510, Note_on_c, 0, 57, 44
2, 36530, Note_on_c, 0, 41, 0
2, 36537, Note_on_c, 0, 57, 0
2, 36540, Note_on_c, 0, 64, 43
2, 36567, Note_on_c, 0, 64, 0
2, 36570, Note_on_c, 0, 67, 44
2, 36597, Note_on_c, 0, 67, 0
2, 36600, Note_on_c, 0, 65, 47
2, 36602, Control_c, 0, 64, 0
2, 36627, Note_on_c, 0, 65, 0
2, 36630, Note_on_c, 0, 69, 46
2, 36657, Note_on_c, 0, 69, 0
2, 36660, Note_on_c, 0, 76, 43
2, 36687, Note_on_c, 0, 76, 0
2, 36690, Note_on_c, 0, 79, 47
2, 36708, Control_c, 0, 64, 127
2, 36717, Note_on_c, 0, 79, 0
2, 36717, Note_on_c, 0, 51, 50
2, 36720, Note_on_c, 0, 77, 43
2, 36720, Note_on_c, 0, 60, 62
2, 36747, Note_on_c, 0, 77, 0
2, 36750, Note_on_c, 0, 81, 44
2, 36777, Note_on_c, 0, 81, 0
2, 36780, Note_on_c, 0, 79, 45
2, 36793, Note_on_c, 0, 60, 0
2, 36807, Note_on_c, 0, 79, 0
2, 36810, Note_on_c, 0, 74, 46
2, 36837, Note_on_c, 0, 74, 0
2, 36840, Note_on_c, 0, 51, 0
2, 36840, Note_on_c, 0, 77, 46
2, 36844, Note_on_c, 0, 41, 63
2, 36867, Note_on_c, 0, 77, 0
2, 36870, Note_on_c, 0, 75, 47
2, 36874, Control_c, 0, 64, 0
2, 36897, Note_on_c, 0, 75, 0
2, 36900, Note_on_c, 0, 67, 47
2, 36908, Note_on_c, 0, 41, 0
2, 36927, Note_on_c, 0, 67, 0
2, 36930, Note_on_c, 0, 69, 47
2, 36951, Control_c, 0, 64, 127
2, 36957, Note_on_c, 0, 69, 0
2, 36960, Note_on_c, 0, 70, 46
2, 36966, Note_on_c, 0, 50, 52
2, 36967, Note_on_c, 0, 58, 68
2, 36987, Note_on_c, 0, 70, 0
2, 36990, Note_on_c, 0, 75, 46
2, 37017, Note_on_c, 0, 75, 0
2, 37020, Note_on_c, 0, 74, 42
2, 37047, Note_on_c, 0, 74, 0
2, 37050, Note_on_c, 0, 64, 45
2, 37067, Note_on_c, 0, 58, 0
2, 37077, Note_on_c, 0, 64, 0
2, 37080, Note_on_c, 0, 65, 43
2, 37087, Note_on_c, 0, 41, 62
2, 37093, Control_c, 0, 64, 0
2, 37101, Note_on_c, 0, 50, 0
2, 37107, Note_on_c, 0, 65, 0
2, 37110, Note_on_c, 0, 72, 41
2, 37137, Note_on_c, 0, 72, 0
2, 37140, Note_on_c, 0, 70, 43
2, 37167, Note_on_c, 0, 70, 0
2, 37170, Note_on_c, 0, 61, 41
2, 37197, Note_on_c, 0, 61, 0
2, 37200, Note_on_c, 0, 62, 44
2, 37227, Note_on_c, 0, 62, 0
2, 37230, Note_on_c, 0, 69, 42
2, 37257, Note_on_c, 0, 69, 0
2, 37260, Note_on_c, 0, 67, 42
2, 37287, Note_on_c, 0, 67, 0
2, 37290, Note_on_c, 0, 60, 43
2, 37317, Note_on_c, 0, 60, 0
2, 37320, Note_on_c, 0, 59, 41
2, 37320, Note_on_c, 0, 53, 70
2, 37321, Note_on_c, 0, 50, 56
2, 37347, Note_on_c, 0, 59, 0
2, 37350, Note_on_c, 0, 63, 45
2, 37377, Note_on_c, 0, 63, 0
2, 37380, Note_on_c, 0, 62, 43
2, 37407, Note_on_c, 0, 62, 0
2, 37410, Note_on_c, 0, 57, 44
2, 37412, Note_on_c, 0, 48, 56
2, 37430, Note_on_c, 0, 50, 0
2, 37437, Note_on_c, 0, 57, 0
2, 37440, Note_on_c, 0, 55, 43
2, 37446, Control_c, 0, 64, 127
2, 37447, Note_on_c, 0, 46, 58
2, 37461, Note_on_c, 0, 48, 0
2, 37467, Note_on_c, 0, 55, 0
2, 37470, Note_on_c, 0, 57, 49
2, 37497, Note_on_c, 0, 57, 0
2, 37500, Note_on_c, 0, 55, 50
2, 37527, Note_on_c, 0, 55, 0
2, 37530, Note_on_c, 0, 62, 49
2, 37539, Note_on_c, 0, 53, 0
2, 37552, Control_c, 0, 64, 0
2, 37557, Note_on_c, 0, 62, 0
2, 37560, Note_on_c, 0, 60, 46
2, 37565, Note_on_c, 0, 52, 73
2, 37587, Note_on_c, 0, 60, 0
2, 37590, Note_on_c, 0, 62, 45
2, 37617, Note_on_c, 0, 62, 0
2, 37620, Note_on_c, 0, 60, 47
2, 37647, Note_on_c, 0, 60, 0
2, 37650, Note_on_c, 0, 65, 49
2, 37651, Note_on_c, 0, 50, 71
2, 37666, Note_on_c, 0, 52, 0
2, 37670, Control_c, 0, 64, 127
2, 37677, Note_on_c, 0, 65, 0
2, 37680, Note_on_c, 0, 64, 47
2, 37683, Note_on_c, 0, 48, 79
2, 37692, Note_on_c, 0, 50, 0
2, 37707, Note_on_c, 0, 64, 0
2, 37710, Note_on_c, 0, 65, 51
2, 37737, Note_on_c, 0, 65, 0
2, 37740, Note_on_c, 0, 64, 46
2, 37752, Note_on_c, 0, 48, 0
2, 37767, Note_on_c, 0, 64, 0
2, 37770, Note_on_c, 0, 69, 49
2, 37777, Control_c, 0, 64, 0
2, 37797, Note_on_c, 0, 69, 0
2, 37797, Note_on_c, 0, 48, 78
2, 37800, Note_on_c, 0, 67, 48
2, 37827, Note_on_c, 0, 67, 0
2, 37830, Note_on_c, 0, 69, 47
2, 37850, Note_on_c, 0, 46, 0
2, 37855, Note_on_c, 0, 48, 0
2, 37857, Note_on_c, 0, 69, 0
2, 37858, Note_on_c, 0, 41, 0
2, 37860, Note_on_c, 0, 67, 53
2, 37881, Note_on_c, 0, 41, 70
2, 37887, Note_on_c, 0, 67, 0
2, 37890, Note_on_c, 0, 74, 47
2, 37902, Control_c, 0, 64, 127
2, 37903, Note_on_c, 0, 48, 71
2, 37908, Note_on_c, 0, 41, 0
2, 37917, Note_on_c, 0, 74, 0
2, 37920, Note_on_c, 0, 72, 49
2, 37928, Note_on_c, 0, 57, 79
2, 37947, Note_on_c, 0, 72, 0
2, 37950, Note_on_c, 0, 76, 55
2, 37977, Note_on_c, 0, 76, 0
2, 37980, Note_on_c, 0, 79, 50
2, 38007, Note_on_c, 0, 79, 0
2, 38010, Note_on_c, 0, 77, 53
2, 38024, Note_on_c, 0, 57, 0
2, 38028, Note_on_c, 0, 48, 0
2, 38033, Note_on_c, 0, 53, 78
2, 38037, Note_on_c, 0, 77, 0
2, 38040, Note_on_c, 0, 80, 48
2, 38050, Control_c, 0, 64, 0
2, 38067, Note_on_c, 0, 80, 0
2, 38070, Note_on_c, 0, 82, 52
2, 38097, Note_on_c, 0, 82, 0
2, 38100, Note_on_c, 0, 81, 48
2, 38127, Note_on_c, 0, 81, 0
2, 38130, Note_on_c, 0, 83, 51
2, 38139, Note_on_c, 0, 53, 0
2, 38157, Note_on_c, 0, 83, 0
2, 38160, Note_on_c, 0, 86, 59
2, 38187, Note_on_c, 0, 86, 0
2, 38190, Note_on_c, 0, 84, 53
2, 38217, Note_on_c, 0, 84, 0
2, 38220, Note_on_c, 0, 88, 57
2, 38247, Note_on_c, 0, 88, 0
2, 38250, Note_on_c, 0, 91, 52
2, 38261, Control_c, 0, 64, 127
2, 38277, Note_on_c, 0, 91, 0
2, 38280, Note_on_c, 0, 89, 51
2, 38282, Note_on_c, 0, 65, 83
2, 38307, Note_on_c, 0, 89, 0
2, 38310, Note_on_c, 0, 92, 53
2, 38337, Note_on_c, 0, 92, 0
2, 38340, Note_on_c, 0, 94, 45
2, 38367, Note_on_c, 0, 94, 0
2, 38369, Note_on_c, 0, 65, 0
2, 38370, Note_on_c, 0, 93, 49
2, 38374, Control_c, 0, 64, 0
2, 38397, Note_on_c, 0, 93, 0
2, 38398, Control_c, 0, 64, 127
2, 38400, Note_on_c, 0, 95, 48
2, 38405, Note_on_c, 0, 65, 80
2, 38412, Note_on_c, 0, 53, 61
2, 38413, Note_on_c, 0, 63, 61
2, 38427, Note_on_c, 0, 95, 0
2, 38430, Note_on_c, 0, 96, 48
2, 38457, Note_on_c, 0, 96, 0
2, 38460, Note_on_c, 0, 101, 45
2, 38487, Note_on_c, 0, 101, 0
2, 38487, Note_on_c, 0, 65, 0
2, 38490, Note_on_c, 0, 100, 46
2, 38517, Note_on_c, 0, 100, 0
2, 38520, Note_on_c, 0, 99, 51
2, 38525, Note_on_c, 0, 65, 79
2, 38531, Control_c, 0, 64, 0
2, 38547, Note_on_c, 0, 99, 0
2, 38550, Note_on_c, 0, 96, 46
2, 38577, Note_on_c, 0, 96, 0
2, 38580, Note_on_c, 0, 98, 50
2, 38607, Note_on_c, 0, 98, 0
2, 38610, Note_on_c, 0, 63, 0
2, 38610, Note_on_c, 0, 53, 0
2, 38610, Note_on_c, 0, 94, 48
2, 38637, Note_on_c, 0, 94, 0
2, 38640, Note_on_c, 0, 93, 48
2, 38640, Control_c, 0, 64, 127
2, 38647, Note_on_c, 0, 63, 61
2, 38648, Note_on_c, 0, 55, 61
2, 38667, Note_on_c, 0, 93, 0
2, 38670, Note_on_c, 0, 98, 52
2, 38697, Note_on_c, 0, 98, 0
2, 38700, Note_on_c, 0, 96, 50
2, 38711, Note_on_c, 0, 65, 0
2, 38727, Note_on_c, 0, 55, 0
2, 38727, Note_on_c, 0, 96, 0
2, 38730, Note_on_c, 0, 91, 50
2, 38738, Note_on_c, 0, 63, 0
2, 38739, Control_c, 0, 64, 0
2, 38757, Note_on_c, 0, 91, 0
2, 38757, Note_on_c, 0, 65, 75
2, 38760, Note_on_c, 0, 89, 53
2, 38762, Note_on_c, 0, 63, 53
2, 38763, Note_on_c, 0, 57, 53
2, 38765, Control_c, 0, 64, 127
2, 38787, Note_on_c, 0, 89, 0
2, 38790, Note_on_c, 0, 86, 47
2, 38817, Note_on_c, 0, 86, 0
2, 38820, Note_on_c, 0, 87, 49
2, 38842, Control_c, 0, 64, 0
2, 38845, Note_on_c, 0, 63, 0
2, 38846, Note_on_c, 0, 57, 0
2, 38847, Note_on_c, 0, 87, 0
2, 38850, Note_on_c, 0, 84, 46
2, 38855, Note_on_c, 0, 65, 0
2, 38875, Control_c, 0, 64, 127
2, 38877, Note_on_c, 0, 84, 0
2, 38880, Note_on_c, 0, 82, 46
2, 38885, Note_on_c, 0, 65, 79
2, 38888, Note_on_c, 0, 62, 51
2, 38889, Note_on_c, 0, 58, 51
2, 38907, Note_on_c, 0, 82, 0
2, 38910, Note_on_c, 0, 87, 52
2, 38937, Note_on_c, 0, 87, 0
2, 38940, Note_on_c, 0, 86, 47
2, 38967, Note_on_c, 0, 86, 0
2, 38970, Note_on_c, 0, 76, 48
2, 38978, Note_on_c, 0, 65, 0
2, 38997, Note_on_c, 0, 76, 0
2, 39000, Note_on_c, 0, 77, 44
2, 39003, Control_c, 0, 64, 0
2, 39006, Note_on_c, 0, 65, 66
2, 39013, Control_c, 0, 64, 127
2, 39027, Note_on_c, 0, 77, 0
2, 39030, Note_on_c, 0, 84, 43
2, 39053, Control_c, 0, 64, 0
2, 39057, Note_on_c, 0, 84, 0
2, 39060, Note_on_c, 0, 82, 45
2, 39087, Note_on_c, 0, 82, 0
2, 39090, Note_on_c, 0, 73, 45
2, 39111, Control_c, 0, 64, 127
2, 39117, Note_on_c, 0, 73, 0
2, 39120, Note_on_c, 0, 74, 45
2, 39127, Note_on_c, 0, 53, 59
2, 39133, Note_on_c, 0, 58, 0
2, 39147, Note_on_c, 0, 74, 0
2, 39150, Note_on_c, 0, 81, 41
2, 39177, Note_on_c, 0, 81, 0
2, 39180, Note_on_c, 0, 79, 43
2, 39191, Control_c, 0, 64, 0
2, 39201, Note_on_c, 0, 65, 0
2, 39207, Note_on_c, 0, 79, 0
2, 39210, Note_on_c, 0, 72, 44
2, 39231, Control_c, 0, 64, 127
2, 39237, Note_on_c, 0, 72, 0
2, 39240, Note_on_c, 0, 70, 44
2, 39242, Note_on_c, 0, 65, 62
2, 39267, Note_on_c, 0, 70, 0
2, 39270, Note_on_c, 0, 75, 46
2, 39297, Note_on_c, 0, 75, 0
2, 39300, Note_on_c, 0, 74, 45
2, 39316, Control_c, 0, 64, 0
2, 39317, Note_on_c, 0, 60, 60
2, 39326, Note_on_c, 0, 62, 0
2, 39327, Note_on_c, 0, 74, 0
2, 39330, Note_on_c, 0, 69, 43
2, 39351, Control_c, 0, 64, 127
2, 39356, Note_on_c, 0, 58, 64
2, 39357, Note_on_c, 0, 69, 0
2, 39360, Note_on_c, 0, 67, 45
2, 39364, Note_on_c, 0, 60, 0
2, 39387, Note_on_c, 0, 67, 0
2, 39390, Note_on_c, 0, 69, 48
2, 39417, Note_on_c, 0, 69, 0
2, 39420, Note_on_c, 0, 67, 45
2, 39447, Note_on_c, 0, 67, 0
2, 39450, Note_on_c, 0, 74, 48
2, 39475, Note_on_c, 0, 64, 76
2, 39477, Note_on_c, 0, 74, 0
2, 39478, Note_on_c, 0, 65, 0
2, 39480, Note_on_c, 0, 72, 48
2, 39507, Note_on_c, 0, 72, 0
2, 39510, Note_on_c, 0, 74, 52
2, 39537, Note_on_c, 0, 74, 0
2, 39540, Note_on_c, 0, 72, 48
2, 39554, Control_c, 0, 64, 0
2, 39567, Note_on_c, 0, 72, 0
2, 39568, Note_on_c, 0, 62, 71
2, 39570, Note_on_c, 0, 77, 53
2, 39577, Note_on_c, 0, 64, 0
2, 39590, Control_c, 0, 64, 127
2, 39597, Note_on_c, 0, 77, 0
2, 39600, Note_on_c, 0, 76, 51
2, 39601, Note_on_c, 0, 60, 72
2, 39613, Note_on_c, 0, 62, 0
2, 39627, Note_on_c, 0, 76, 0
2, 39630, Note_on_c, 0, 77, 56
2, 39657, Note_on_c, 0, 77, 0
2, 39660, Note_on_c, 0, 76, 51
2, 39684, Note_on_c, 0, 60, 0
2, 39687, Note_on_c, 0, 76, 0
2, 39690, Note_on_c, 0, 86, 48
2, 39717, Note_on_c, 0, 86, 0
2, 39717, Note_on_c, 0, 60, 75
2, 39720, Note_on_c, 0, 84, 49
2, 39747, Note_on_c, 0, 84, 0
2, 39750, Note_on_c, 0, 86, 45
2, 39751, Control_c, 0, 64, 0
2, 39763, Note_on_c, 0, 53, 0
2, 39775, Note_on_c, 0, 58, 0
2, 39777, Note_on_c, 0, 86, 0
2, 39780, Note_on_c, 0, 84, 48
2, 39807, Note_on_c, 0, 84, 0
2, 39810, Note_on_c, 0, 98, 44
2, 39828, Control_c, 0, 64, 127
2, 39837, Note_on_c, 0, 98, 0
2, 39840, Note_on_c, 0, 96, 46
2, 39844, Note_on_c, 0, 62, 73
2, 39844, Note_on_c, 0, 53, 58
2, 39847, Note_on_c, 0, 57, 61
2, 39849, Note_on_c, 0, 60, 0
2, 39867, Note_on_c, 0, 96, 0
2, 39870, Note_on_c, 0, 98, 43
2, 39897, Note_on_c, 0, 98, 0
2, 39900, Note_on_c, 0, 96, 47
2, 39927, Note_on_c, 0, 96, 0
2, 39930, Note_on_c, 0, 91, 48
2, 39957, Note_on_c, 0, 91, 0
2, 39959, Control_c, 0, 64, 0
2, 39960, Note_on_c, 0, 89, 52
2, 39963, Note_on_c, 0, 60, 72
2, 39969, Note_on_c, 0, 62, 0
2, 39987, Note_on_c, 0, 89, 0
2, 39990, Note_on_c, 0, 91, 50
2, 40017, Note_on_c, 0, 91, 0
2, 40020, Note_on_c, 0, 89, 48
2, 40047, Note_on_c, 0, 89, 0
2, 40050, Note_on_c, 0, 86, 47
2, 40068, Note_on_c, 0, 60, 0
2, 40077, Note_on_c, 0, 86, 0
2, 40080, Note_on_c, 0, 84, 52
2, 40107, Note_on_c, 0, 84, 0
2, 40110, Note_on_c, 0, 86, 55
2, 40137, Note_on_c, 0, 86, 0
2, 40140, Note_on_c, 0, 84, 49
2, 40167, Note_on_c, 0, 84, 0
2, 40170, Note_on_c, 0, 79, 54
2, 40197, Note_on_c, 0, 79, 0
2, 40200, Note_on_c, 0, 77, 49
2, 40209, Note_on_c, 0, 65, 76
2, 40227, Note_on_c, 0, 77, 0
2, 40230, Note_on_c, 0, 79, 52
2, 40257, Note_on_c, 0, 79, 0
2, 40260, Note_on_c, 0, 77, 47
2, 40287, Note_on_c, 0, 77, 0
2, 40290, Note_on_c, 0, 74, 46
2, 40291, Note_on_c, 0, 57, 0
2, 40292, Note_on_c, 0, 53, 0
2, 40317, Note_on_c, 0, 74, 0
2, 40320, Note_on_c, 0, 72, 48
2, 40322, Control_c, 0, 64, 127
2, 40327, Note_on_c, 0, 55, 56
2, 40328, Note_on_c, 0, 53, 52
2, 40329, Note_on_c, 0, 58, 52
2, 40347, Note_on_c, 0, 72, 0
2, 40350, Note_on_c, 0, 74, 43
2, 40377, Note_on_c, 0, 74, 0
2, 40380, Note_on_c, 0, 72, 46
2, 40407, Note_on_c, 0, 72, 0
2, 40410, Note_on_c, 0, 77, 46
2, 40437, Note_on_c, 0, 77, 0
2, 40440, Note_on_c, 0, 76, 48
2, 40446, Note_on_c, 0, 64, 72
2, 40461, Note_on_c, 0, 65, 0
2, 40467, Note_on_c, 0, 76, 0
2, 40470, Note_on_c, 0, 77, 52
2, 40481, Control_c, 0, 64, 0
2, 40497, Note_on_c, 0, 77, 0
2, 40500, Note_on_c, 0, 76, 44
2, 40527, Note_on_c, 0, 76, 0
2, 40530, Note_on_c, 0, 86, 46
2, 40530, Note_on_c, 0, 62, 69
2, 40539, Note_on_c, 0, 64, 0
2, 40550, Control_c, 0, 64, 127
2, 40557, Note_on_c, 0, 86, 0
2, 40560, Note_on_c, 0, 84, 50
2, 40565, Note_on_c, 0, 60, 66
2, 40586, Note_on_c, 0, 62, 0
2, 40587, Note_on_c, 0, 84, 0
2, 40590, Note_on_c, 0, 86, 44
2, 40617, Note_on_c, 0, 86, 0
2, 40620, Note_on_c, 0, 84, 47
2, 40636, Note_on_c, 0, 60, 0
2, 40647, Note_on_c, 0, 84, 0
2, 40650, Note_on_c, 0, 89, 51
2, 40675, Note_on_c, 0, 60, 75
2, 40677, Note_on_c, 0, 89, 0
2, 40680, Note_on_c, 0, 88, 47
2, 40688, Control_c, 0, 64, 0
2, 40707, Note_on_c, 0, 88, 0
2, 40710, Note_on_c, 0, 89, 50
2, 40737, Note_on_c, 0, 89, 0
2, 40740, Note_on_c, 0, 88, 50
2, 40748, Note_on_c, 0, 58, 0
2, 40749, Note_on_c, 0, 55, 0
2, 40752, Note_on_c, 0, 53, 0
2, 40758, Note_on_c, 0, 60, 0
2, 40767, Note_on_c, 0, 88, 0
2, 40770, Note_on_c, 0, 98, 48
2, 40774, Control_c, 0, 64, 127
2, 40795, Note_on_c, 0, 53, 47
2, 40796, Note_on_c, 0, 57, 58
2, 40797, Note_on_c, 0, 98, 0
2, 40798, Note_on_c, 0, 62, 70
2, 40800, Note_on_c, 0, 96, 49
2, 40827, Note_on_c, 0, 96, 0
2, 40830, Note_on_c, 0, 98, 47
2, 40857, Note_on_c, 0, 98, 0
2, 40860, Note_on_c, 0, 96, 47
2, 40887, Note_on_c, 0, 96, 0
2, 40890, Note_on_c, 0, 91, 49
2, 40915, Control_c, 0, 64, 0
2, 40915, Note_on_c, 0, 60, 70
2, 40917, Note_on_c, 0, 91, 0
2, 40920, Note_on_c, 0, 89, 51
2, 40922, Note_on_c, 0, 62, 0
2, 40947, Note_on_c, 0, 89, 0
2, 40950, Note_on_c, 0, 91, 53
2, 40977, Note_on_c, 0, 91, 0
2, 40980, Note_on_c, 0, 89, 47
2, 40994, Note_on_c, 0, 57, 0
2, 40995, Note_on_c, 0, 53, 0
2, 41007, Note_on_c, 0, 89, 0
2, 41010, Note_on_c, 0, 86, 51
2, 41037, Note_on_c, 0, 86, 0
2, 41040, Note_on_c, 0, 84, 49
2, 41043, Note_on_c, 0, 69, 65
2, 41067, Note_on_c, 0, 84, 0
2, 41070, Note_on_c, 0, 86, 52
2, 41097, Note_on_c, 0, 86, 0
2, 41100, Note_on_c, 0, 84, 49
2, 41125, Note_on_c, 0, 69, 0
2, 41127, Note_on_c, 0, 84, 0
2, 41130, Note_on_c, 0, 79, 49
2, 41136, Control_c, 0, 64, 127
2, 41143, Note_on_c, 0, 60, 0
2, 41157, Note_on_c, 0, 79, 0
2, 41158, Note_on_c, 0, 58, 66
2, 41159, Note_on_c, 0, 67, 72
2, 41160, Note_on_c, 0, 77, 52
2, 41187, Note_on_c, 0, 77, 0
2, 41190, Note_on_c, 0, 79, 47
2, 41193, Note_on_c, 0, 67, 0
2, 41194, Note_on_c, 0, 58, 0
2, 41217, Note_on_c, 0, 79, 0
2, 41220, Note_on_c, 0, 77, 50
2, 41221, Note_on_c, 0, 57, 65
2, 41223, Note_on_c, 0, 65, 74
2, 41233, Control_c, 0, 64, 0
2, 41247, Note_on_c, 0, 77, 0
2, 41250, Note_on_c, 0, 74, 50
2, 41263, Note_on_c, 0, 65, 0
2, 41263, Note_on_c, 0, 57, 0
2, 41274, Control_c, 0, 64, 127
2, 41277, Note_on_c, 0, 74, 0
2, 41280, Note_on_c, 0, 72, 52
2, 41284, Note_on_c, 0, 53, 51
2, 41286, Note_on_c, 0, 58, 61
2, 41287, Note_on_c, 0, 55, 62
2, 41288, Note_on_c, 0, 65, 76
2, 41307, Note_on_c, 0, 72, 0
2, 41310, Note_on_c, 0, 75, 54
2, 41337, Note_on_c, 0, 75, 0
2, 41340, Note_on_c, 0, 77, 44
2, 41367, Note_on_c, 0, 77, 0
2, 41370, Note_on_c, 0, 76, 48
2, 41391, Control_c, 0, 64, 0
2, 41397, Note_on_c, 0, 76, 0
2, 41400, Note_on_c, 0, 78, 50
2, 41413, Note_on_c, 0, 64, 73
2, 41420, Note_on_c, 0, 65, 0
2, 41427, Note_on_c, 0, 78, 0
2, 41430, Note_on_c, 0, 81, 49
2, 41457, Note_on_c, 0, 81, 0
2, 41460, Note_on_c, 0, 79, 54
2, 41487, Note_on_c, 0, 79, 0
2, 41489, Note_on_c, 0, 62, 67
2, 41490, Note_on_c, 0, 64, 0
2, 41490, Note_on_c, 0, 83, 50
2, 41517, Note_on_c, 0, 83, 0
2, 41517, Note_on_c, 0, 60, 74
2, 41520, Note_on_c, 0, 86, 52
2, 41524, Control_c, 0, 64, 127
2, 41534, Note_on_c, 0, 62, 0
2, 41547, Note_on_c, 0, 86, 0
2, 41550, Note_on_c, 0, 84, 51
2, 41577, Note_on_c, 0, 84, 0
2, 41580, Note_on_c, 0, 87, 56
2, 41582, Note_on_c, 0, 60, 0
2, 41607, Note_on_c, 0, 87, 0
2, 41610, Note_on_c, 0, 89, 56
2, 41634, Note_on_c, 0, 58, 0
2, 41637, Note_on_c, 0, 89, 0
2, 41637, Note_on_c, 0, 60, 69
2, 41638, Note_on_c, 0, 55, 0
2, 41639, Control_c, 0, 64, 0
2, 41640, Note_on_c, 0, 88, 58
2, 41641, Note_on_c, 0, 53, 0
2, 41667, Note_on_c, 0, 88, 0
2, 41670, Note_on_c, 0, 90, 56
2, 41693, Note_on_c, 0, 60, 0
2, 41697, Note_on_c, 0, 90, 0
2, 41700, Note_on_c, 0, 93, 55
2, 41724, Note_on_c, 0, 53, 58
2, 41727, Note_on_c, 0, 93, 0
2, 41730, Note_on_c, 0, 91, 56
2, 41739, Note_on_c, 0, 60, 75
2, 41743, Note_on_c, 0, 53, 0
2, 41746, Control_c, 0, 64, 127
2, 41751, Note_on_c, 0, 64, 67
2, 41757, Note_on_c, 0, 91, 0
2, 41760, Note_on_c, 0, 94, 50
2, 41780, Note_on_c, 0, 70, 72
2, 41787, Note_on_c, 0, 94, 0
2, 41790, Note_on_c, 0, 90, 50
2, 41817, Note_on_c, 0, 90, 0
2, 41820, Note_on_c, 0, 91, 48
2, 41847, Note_on_c, 0, 91, 0
2, 41850, Note_on_c, 0, 98, 46
2, 41876, Note_on_c, 0, 70, 0
2, 41876, Note_on_c, 0, 64, 0
2, 41877, Note_on_c, 0, 98, 0
2, 41880, Note_on_c, 0, 96, 48
2, 41884, Note_on_c, 0, 60, 0
2, 41907, Note_on_c, 0, 96, 0
2, 41910, Note_on_c, 0, 93, 51
2, 41937, Note_on_c, 0, 93, 0
2, 41940, Note_on_c, 0, 91, 48
2, 41942, Control_c, 0, 64, 0
2, 41967, Note_on_c, 0, 91, 0
2, 41970, Note_on_c, 0, 98, 46
2, 41997, Note_on_c, 0, 98, 0
2, 42000, Note_on_c, 0, 94, 49
2, 42027, Note_on_c, 0, 94, 0
2, 42030, Note_on_c, 0, 90, 49
2, 42057, Note_on_c, 0, 90, 0
2, 42060, Note_on_c, 0, 91, 48
2, 42087, Note_on_c, 0, 91, 0
2, 42090, Note_on_c, 0, 98, 44
2, 42117, Note_on_c, 0, 98, 0
2, 42120, Note_on_c, 0, 96, 43
2, 42147, Note_on_c, 0, 96, 0
2, 42150, Note_on_c, 0, 93, 44
2, 42177, Note_on_c, 0, 93, 0
2, 42180, Note_on_c, 0, 91, 44
2, 42201, Control_c, 0, 64, 127
2, 42207, Note_on_c, 0, 91, 0
2, 42207, Note_on_c, 0, 65, 45
2, 42210, Note_on_c, 0, 98, 43
2, 42226, Note_on_c, 0, 72, 51
2, 42232, Note_on_c, 0, 65, 0
2, 42237, Note_on_c, 0, 98, 0
2, 42240, Note_on_c, 0, 94, 40
2, 42245, Note_on_c, 0, 76, 48
2, 42263, Note_on_c, 0, 82, 58
2, 42267, Note_on_c, 0, 94, 0
2, 42270, Note_on_c, 0, 90, 44
2, 42297, Note_on_c, 0, 90, 0
2, 42300, Note_on_c, 0, 91, 44
2, 42327, Note_on_c, 0, 91, 0
2, 42328, Note_on_c, 0, 76, 0
2, 42329, Note_on_c, 0, 82, 0
2, 42330, Note_on_c, 0, 98, 42
2, 42345, Note_on_c, 0, 72, 0
2, 42357, Note_on_c, 0, 98, 0
2, 42360, Note_on_c, 0, 96, 37
2, 42387, Note_on_c, 0, 96, 0
2, 42390, Note_on_c, 0, 93, 39
2, 42417, Note_on_c, 0, 93, 0
2, 42420, Note_on_c, 0, 91, 42
2, 42447, Note_on_c, 0, 91, 0
2, 42450, Note_on_c, 0, 98, 40
2, 42477, Note_on_c, 0, 98, 0
2, 42480, Note_on_c, 0, 94, 42
2, 42507, Note_on_c, 0, 94, 0
2, 42510, Note_on_c, 0, 90, 47
2, 42537, Note_on_c, 0, 90, 0
2, 42540, Note_on_c, 0, 91, 43
2, 42567, Note_on_c, 0, 91, 0
2, 42570, Note_on_c, 0, 98, 37
2, 42597, Note_on_c, 0, 98, 0
2, 42600, Note_on_c, 0, 96, 41
2, 42627, Note_on_c, 0, 96, 0
2, 42630, Note_on_c, 0, 93, 40
2, 42657, Note_on_c, 0, 93, 0
2, 42660, Note_on_c, 0, 91, 43
2, 42687, Note_on_c, 0, 91, 0
2, 42690, Note_on_c, 0, 98, 39
2, 42717, Note_on_c, 0, 98, 0
2, 42720, Note_on_c, 0, 96, 41
2, 42747, Note_on_c, 0, 96, 0
2, 42750, Note_on_c, 0, 93, 40
2, 42777, Note_on_c, 0, 93, 0
2, 42780, Note_on_c, 0, 91, 39
2, 42807, Note_on_c, 0, 91, 0
2, 42810, Note_on_c, 0, 98, 42
2, 42837, Note_on_c, 0, 98, 0
2, 42840, Note_on_c, 0, 96, 42
2, 42867, Note_on_c, 0, 96, 0
2, 42870, Note_on_c, 0, 93, 41
2, 42897, Note_on_c, 0, 93, 0
2, 42900, Note_on_c, 0, 91, 46
2, 42927, Note_on_c, 0, 91, 0
2, 42930, Note_on_c, 0, 98, 46
2, 42957, Note_on_c, 0, 98, 0
2, 42960, Note_on_c, 0, 96, 42
2, 42987, Note_on_c, 0, 96, 0
2, 42990, Note_on_c, 0, 93, 45
2, 43004, Control_c, 0, 64, 0
2, 43017, Note_on_c, 0, 93, 0
2, 43020, Note_on_c, 0, 91, 41
2, 43033, Control_c, 0, 64, 127
2, 43047, Note_on_c, 0, 91, 0
2, 43050, Note_on_c, 0, 98, 43
2, 43077, Note_on_c, 0, 98, 0
2, 43080, Note_on_c, 0, 96, 45
2, 43107, Note_on_c, 0, 96, 0
2, 43110, Note_on_c, 0, 91, 46
2, 43127, Control_c, 0, 64, 0
2, 43137, Note_on_c, 0, 91, 0
2, 43140, Note_on_c, 0, 93, 47
2, 43160, Control_c, 0, 64, 127
2, 43167, Note_on_c, 0, 93, 0
2, 43170, Note_on_c, 0, 91, 48
2, 43195, Note_on_c, 0, 65, 47
2, 43197, Note_on_c, 0, 91, 0
2, 43209, Note_on_c, 0, 72, 54
2, 43225, Note_on_c, 0, 81, 50
2, 43231, Note_on_c, 0, 65, 0
2, 43239, Note_on_c, 0, 89, 57
2, 43243, Note_on_c, 0, 72, 0
2, 43255, Note_on_c, 0, 81, 0
2, 43259, Note_on_c, 0, 89, 0
2, 43278, Control_c, 0, 64, 0
2, 43320, Note_on_c, 0, 77, 80
2, 43320, Note_on_c, 0, 89, 80
2, 43344, Note_on_c, 0, 89, 0
2, 43344, Note_on_c, 0, 77, 0
2, 43350, Note_on_c, 0, 82, 68
2, 43350, Note_on_c, 0, 94, 76
2, 43374, Note_on_c, 0, 94, 0
2, 43374, Note_on_c, 0, 82, 0
2, 43380, Note_on_c, 0, 93, 69
2, 43380, Note_on_c, 0, 81, 62
2, 43404, Note_on_c, 0, 81, 0
2, 43404, Note_on_c, 0, 93, 0
2, 43410, Note_on_c, 0, 86, 62
2, 43410, Note_on_c, 0, 74, 54
2, 43434, Note_on_c, 0, 74, 0
2, 43434, Note_on_c, 0, 86, 0
2, 43440, Note_on_c, 0, 84, 78
2, 43440, Note_on_c, 0, 72, 78
2, 43443, Control_c, 0, 64, 127
2, 43464, Note_on_c, 0, 72, 0
2, 43464, Note_on_c, 0, 84, 0
2, 43470, Note_on_c, 0, 91, 66
2, 43470, Note_on_c, 0, 79, 60
2, 43494, Note_on_c, 0, 79, 0
2, 43494, Note_on_c, 0, 91, 0
2, 43500, Note_on_c, 0, 89, 64
2, 43500, Note_on_c, 0, 77, 53
2, 43524, Note_on_c, 0, 77, 0
2, 43524, Note_on_c, 0, 89, 0
2, 43530, Note_on_c, 0, 70, 65
2, 43530, Note_on_c, 0, 82, 68
2, 43554, Note_on_c, 0, 82, 0
2, 43554, Note_on_c, 0, 70, 0
2, 43560, Note_on_c, 0, 81, 79
2, 43560, Note_on_c, 0, 69, 79
2, 43564, Control_c, 0, 64, 0
2, 43584, Note_on_c, 0, 69, 0
2, 43584, Note_on_c, 0, 81, 0
2, 43590, Note_on_c, 0, 86, 68
2, 43590, Note_on_c, 0, 74, 58
2, 43614, Note_on_c, 0, 74, 0
2, 43614, Note_on_c, 0, 86, 0
2, 43620, Note_on_c, 0, 84, 66
2, 43620, Note_on_c, 0, 72, 58
2, 43644, Note_on_c, 0, 72, 0
2, 43644, Note_on_c, 0, 84, 0
2, 43650, Note_on_c, 0, 79, 67
2, 43650, Note_on_c, 0, 67, 58
2, 43674, Note_on_c, 0, 67, 0
2, 43674, Note_on_c, 0, 79, 0
2, 43677, Control_c, 0, 64, 127
2, 43680, Note_on_c, 0, 77, 77
2, 43680, Note_on_c, 0, 65, 77
2, 43704, Note_on_c, 0, 65, 0
2, 43704, Note_on_c, 0, 77, 0
2, 43710, Note_on_c, 0, 70, 63
2, 43710, Note_on_c, 0, 82, 65
2, 43734, Note_on_c, 0, 82, 0
2, 43734, Note_on_c, 0, 70, 0
2, 43740, Note_on_c, 0, 81, 63
2, 43740, Note_on_c, 0, 69, 62
2, 43764, Note_on_c, 0, 69, 0
2, 43764, Note_on_c, 0, 81, 0
2, 43770, Note_on_c, 0, 74, 60
2, 43770, Note_on_c, 0, 62, 53
2, 43794, Note_on_c, 0, 62, 0
2, 43794, Note_on_c, 0, 74, 0
2, 43799, Control_c, 0, 64, 0
2, 43800, Note_on_c, 0, 60, 76
2, 43800, Note_on_c, 0, 72, 76
2, 43824, Note_on_c, 0, 72, 0
2, 43824, Note_on_c, 0, 60, 0
2, 43830, Note_on_c, 0, 79, 62
2, 43830, Note_on_c, 0, 67, 56
2, 43854, Note_on_c, 0, 67, 0
2, 43854, Note_on_c, 0, 79, 0
2, 43860, Note_on_c, 0, 77, 51
2, 43860, Note_on_c, 0, 65, 52
2, 43884, Note_on_c, 0, 65, 0
2, 43884, Note_on_c, 0, 77, 0
2, 43890, Note_on_c, 0, 70, 61
2, 43890, Note_on_c, 0, 58, 56
2, 43902, Control_c, 0, 64, 127
2, 43914, Note_on_c, 0, 58, 0
2, 43914, Note_on_c, 0, 70, 0
2, 43920, Note_on_c, 0, 69, 76
2, 43920, Note_on_c, 0, 57, 76
2, 43944, Note_on_c, 0, 57, 0
2, 43944, Note_on_c, 0, 69, 0
2, 43950, Note_on_c, 0, 74, 62
2, 43950, Note_on_c, 0, 62, 55
2, 43974, Note_on_c, 0, 62, 0
2, 43974, Note_on_c, 0, 74, 0
2, 43980, Note_on_c, 0, 72, 52
2, 43980, Note_on_c, 0, 60, 58
2, 44004, Note_on_c, 0, 60, 0
2, 44004, Note_on_c, 0, 72, 0
2, 44010, Note_on_c, 0, 67, 53
2, 44010, Note_on_c, 0, 55, 55
2, 44027, Control_c, 0, 64, 0
2, 44034, Note_on_c, 0, 55, 0
2, 44034, Note_on_c, 0, 67, 0
2, 44040, Note_on_c, 0, 65, 72
2, 44040, Note_on_c, 0, 53, 72
2, 44064, Note_on_c, 0, 53, 0
2, 44064, Note_on_c, 0, 65, 0
2, 44070, Note_on_c, 0, 70, 63
2, 44070, Note_on_c, 0, 58, 52
2, 44094, Note_on_c, 0, 58, 0
2, 44094, Note_on_c, 0, 70, 0
2, 44100, Note_on_c, 0, 69, 57
2, 44100, Note_on_c, 0, 57, 60
2, 44124, Note_on_c, 0, 57, 0
2, 44124, Note_on_c, 0, 69, 0
2, 44130, Note_on_c, 0, 62, 59
2, 44130, Note_on_c, 0, 50, 53
2, 44134, Control_c, 0, 64, 127
2, 44154, Note_on_c, 0, 50, 0
2, 44154, Note_on_c, 0, 62, 0
2, 44160, Note_on_c, 0, 48, 69
2, 44160, Note_on_c, 0, 60, 69
2, 44184, Note_on_c, 0, 60, 0
2, 44184, Note_on_c, 0, 48, 0
2, 44190, Note_on_c, 0, 67, 51
2, 44190, Note_on_c, 0, 55, 32
2, 44214, Note_on_c, 0, 55, 0
2, 44214, Note_on_c, 0, 67, 0
2, 44220, Note_on_c, 0, 65, 51
2, 44220, Note_on_c, 0, 53, 50
2, 44240, Control_c, 0, 64, 0
2, 44244, Note_on_c, 0, 53, 0
2, 44244, Note_on_c, 0, 65, 0
2, 44250, Note_on_c, 0, 58, 52
2, 44250, Note_on_c, 0, 46, 48
2, 44269, Control_c, 0, 64, 127
2, 44274, Note_on_c, 0, 46, 0
2, 44274, Note_on_c, 0, 58, 0
2, 44280, Note_on_c, 0, 57, 70
2, 44280, Note_on_c, 0, 45, 70
2, 44304, Note_on_c, 0, 45, 0
2, 44304, Note_on_c, 0, 57, 0
2, 44310, Note_on_c, 0, 62, 55
2, 44310, Note_on_c, 0, 50, 51
2, 44334, Note_on_c, 0, 50, 0
2, 44334, Note_on_c, 0, 62, 0
2, 44340, Note_on_c, 0, 60, 52
2, 44340, Note_on_c, 0, 48, 52
2, 44358, Control_c, 0, 64, 0
2, 44364, Note_on_c, 0, 48, 0
2, 44364, Note_on_c, 0, 60, 0
2, 44370, Note_on_c, 0, 43, 52
2, 44370, Note_on_c, 0, 55, 55
2, 44388, Control_c, 0, 64, 127
2, 44394, Note_on_c, 0, 55, 0
2, 44394, Note_on_c, 0, 43, 0
2, 44400, Note_on_c, 0, 53, 70
2, 44400, Note_on_c, 0, 41, 70
2, 44424, Note_on_c, 0, 41, 0
2, 44424, Note_on_c, 0, 53, 0
2, 44430, Note_on_c, 0, 62, 57
2, 44430, Note_on_c, 0, 50, 56
2, 44454, Note_on_c, 0, 50, 0
2, 44454, Note_on_c, 0, 62, 0
2, 44460, Note_on_c, 0, 60, 62
2, 44460, Note_on_c, 0, 48, 62
2, 44476, Control_c, 0, 64, 0
2, 44484, Note_on_c, 0, 48, 0
2, 44484, Note_on_c, 0, 60, 0
2, 44490, Note_on_c, 0, 58, 58
2, 44490, Note_on_c, 0, 46, 58
2, 44503, Control_c, 0, 64, 127
2, 44514, Note_on_c, 0, 46, 0
2, 44514, Note_on_c, 0, 58, 0
2, 44520, Note_on_c, 0, 57, 75
2, 44520, Note_on_c, 0, 45, 75
2, 44544, Note_on_c, 0, 45, 0
2, 44544, Note_on_c, 0, 57, 0
2, 44550, Note_on_c, 0, 62, 67
2, 44550, Note_on_c, 0, 50, 56
2, 44574, Note_on_c, 0, 50, 0
2, 44574, Note_on_c, 0, 62, 0
2, 44580, Note_on_c, 0, 60, 70
2, 44580, Note_on_c, 0, 48, 62
2, 44599, Control_c, 0, 64, 0
2, 44604, Note_on_c, 0, 48, 0
2, 44604, Note_on_c, 0, 60, 0
2, 44610, Note_on_c, 0, 43, 66
2, 44610, Note_on_c, 0, 55, 58
2, 44624, Control_c, 0, 64, 127
2, 44634, Note_on_c, 0, 55, 0
2, 44634, Note_on_c, 0, 43, 0
2, 44640, Note_on_c, 0, 41, 77
2, 44640, Note_on_c, 0, 53, 77
2, 44664, Note_on_c, 0, 53, 0
2, 44664, Note_on_c, 0, 41, 0
2, 44670, Note_on_c, 0, 62, 66
2, 44670, Note_on_c, 0, 50, 54
2, 44694, Note_on_c, 0, 50, 0
2, 44694, Note_on_c, 0, 62, 0
2, 44700, Note_on_c, 0, 60, 62
2, 44700, Note_on_c, 0, 48, 60
2, 44719, Control_c, 0, 64, 0
2, 44724, Note_on_c, 0, 48, 0
2, 44724, Note_on_c, 0, 60, 0
2, 44730, Note_on_c, 0, 46, 66
2, 44730, Note_on_c, 0, 58, 59
2, 44740, Control_c, 0, 64, 127
2, 44754, Note_on_c, 0, 58, 0
2, 44754, Note_on_c, 0, 46, 0
2, 44760, Note_on_c, 0, 45, 76
2, 44760, Note_on_c, 0, 57, 76
2, 44784, Note_on_c, 0, 57, 0
2, 44784, Note_on_c, 0, 45, 0
2, 44790, Note_on_c, 0, 62, 65
2, 44790, Note_on_c, 0, 50, 53
2, 44814, Note_on_c, 0, 50, 0
2, 44814, Note_on_c, 0, 62, 0
2, 44820, Note_on_c, 0, 48, 61
2, 44820, Note_on_c, 0, 60, 49
2, 44842, Control_c, 0, 64, 0
2, 44844, Note_on_c, 0, 60, 0
2, 44844, Note_on_c, 0, 48, 0
2, 44850, Note_on_c, 0, 43, 64
2, 44850, Note_on_c, 0, 55, 58
2, 44866, Control_c, 0, 64, 127
2, 44874, Note_on_c, 0, 55, 0
2, 44874, Note_on_c, 0, 43, 0
2, 44880, Note_on_c, 0, 53, 74
2, 44880, Note_on_c, 0, 41, 74
2, 44904, Note_on_c, 0, 41, 0
2, 44904, Note_on_c, 0, 53, 0
2, 44910, Note_on_c, 0, 62, 66
2, 44910, Note_on_c, 0, 50, 52
2, 44934, Note_on_c, 0, 50, 0
2, 44934, Note_on_c, 0, 62, 0
2, 44940, Note_on_c, 0, 60, 69
2, 44940, Note_on_c, 0, 48, 56
2, 44956, Control_c, 0, 64, 0
2, 44964, Note_on_c, 0, 48, 0
2, 44964, Note_on_c, 0, 60, 0
2, 44970, Note_on_c, 0, 46, 68
2, 44970, Note_on_c, 0, 58, 53
2, 44988, Control_c, 0, 64, 127
2, 44994, Note_on_c, 0, 58, 0
2, 44994, Note_on_c, 0, 46, 0
2, 45000, Note_on_c, 0, 57, 77
2, 45000, Note_on_c, 0, 45, 77
2, 45024, Note_on_c, 0, 45, 0
2, 45024, Note_on_c, 0, 57, 0
2, 45030, Note_on_c, 0, 62, 66
2, 45030, Note_on_c, 0, 50, 47
2, 45054, Note_on_c, 0, 50, 0
2, 45054, Note_on_c, 0, 62, 0
2, 45060, Note_on_c, 0, 60, 70
2, 45060, Note_on_c, 0, 48, 60
2, 45075, Control_c, 0, 64, 0
2, 45084, Note_on_c, 0, 48, 0
2, 45084, Note_on_c, 0, 60, 0
2, 45090, Note_on_c, 0, 43, 66
2, 45090, Note_on_c, 0, 55, 56
2, 45114, Note_on_c, 0, 55, 0
2, 45114, Note_on_c, 0, 43, 0
2, 45117, Control_c, 0, 64, 127
2, 45120, Note_on_c, 0, 41, 77
2, 45120, Note_on_c, 0, 53, 77
2, 45144, Note_on_c, 0, 53, 0
2, 45144, Note_on_c, 0, 41, 0
2, 45150, Note_on_c, 0, 57, 71
2, 45150, Note_on_c, 0, 45, 69
2, 45174, Note_on_c, 0, 45, 0
2, 45174, Note_on_c, 0, 57, 0
2, 45180, Note_on_c, 0, 60, 70
2, 45180, Note_on_c, 0, 48, 68
2, 45204, Note_on_c, 0, 48, 0
2, 45204, Note_on_c, 0, 60, 0
2, 45210, Note_on_c, 0, 64, 68
2, 45210, Note_on_c, 0, 52, 60
2, 45234, Note_on_c, 0, 52, 0
2, 45234, Note_on_c, 0, 64, 0
2, 45240, Note_on_c, 0, 65, 79
2, 45240, Note_on_c, 0, 53, 79
2, 45264, Note_on_c, 0, 53, 0
2, 45264, Note_on_c, 0, 65, 0
2, 45270, Note_on_c, 0, 57, 69
2, 45270, Note_on_c, 0, 69, 65
2, 45294, Note_on_c, 0, 69, 0
2, 45294, Note_on_c, 0, 57, 0
2, 45300, Note_on_c, 0, 72, 67
2, 45300, Note_on_c, 0, 60, 71
2, 45324, Note_on_c, 0, 60, 0
2, 45324, Note_on_c, 0, 72, 0
2, 45330, Note_on_c, 0, 76, 73
2, 45330, Note_on_c, 0, 64, 56
2, 45354, Note_on_c, 0, 64, 0
2, 45354, Note_on_c, 0, 76, 0
2, 45360, Note_on_c, 0, 77, 80
2, 45360, Note_on_c, 0, 65, 80
2, 45384, Note_on_c, 0, 65, 0
2, 45384, Note_on_c, 0, 77, 0
2, 45390, Note_on_c, 0, 69, 64
2, 45390, Note_on_c, 0, 81, 64
2, 45414, Note_on_c, 0, 81, 0
2, 45414, Note_on_c, 0, 69, 0
2, 45420, Note_on_c, 0, 84, 66
2, 45420, Note_on_c, 0, 72, 64
2, 45444, Note_on_c, 0, 72, 0
2, 45444, Note_on_c, 0, 84, 0
2, 45450, Note_on_c, 0, 88, 74
2, 45450, Note_on_c, 0, 76, 58
2, 45474, Note_on_c, 0, 76, 0
2, 45474, Note_on_c, 0, 88, 0
2, 45480, Note_on_c, 0, 77, 79
2, 45480, Note_on_c, 0, 89, 79
2, 45504, Note_on_c, 0, 89, 0
2, 45504, Note_on_c, 0, 77, 0
2, 45510, Note_on_c, 0, 93, 64
2, 45510, Note_on_c, 0, 81, 65
2, 45534, Note_on_c, 0, 81, 0
2, 45534, Note_on_c, 0, 93, 0
2, 45540, Note_on_c, 0, 96, 72
2, 45540, Note_on_c, 0, 84, 62
2, 45564, Note_on_c, 0, 84, 0
2, 45564, Note_on_c, 0, 96, 0
2, 45570, Note_on_c, 0, 88, 66
2, 45570, Note_on_c, 0, 100, 75
2, 45594, Note_on_c, 0, 100, 0
2, 45594, Note_on_c, 0, 88, 0
2, 45600, Note_on_c, 0, 89, 84
2, 45600, Note_on_c, 0, 101, 84
2, 45614, Control_c, 0, 64, 0
2, 45620, Note_on_c, 0, 89, 0
2, 45621, Note_on_c, 0, 101, 0
2, 45691, Note_on_c, 0, 49, 62
2, 45705, Control_c, 0, 64, 127
2, 45709, Note_on_c, 0, 52, 66
2, 45733, Note_on_c, 0, 57, 56
2, 45740, Note_on_c, 0, 69, 56
2, 45746, Note_on_c, 0, 61, 67
2, 45747, Note_on_c, 0, 76, 62
2, 45759, Note_on_c, 0, 81, 73
2, 45781, Note_on_c, 0, 52, 0
2, 45783, Note_on_c, 0, 49, 0
2, 45790, Note_on_c, 0, 57, 0
2, 45792, Note_on_c, 0, 76, 0
2, 45796, Note_on_c, 0, 61, 0
2, 45797, Note_on_c, 0, 69, 0
2, 45808, Note_on_c, 0, 81, 0
2, 45818, Note_on_c, 0, 50, 66
2, 45818, Control_c, 0, 64, 0
2, 45826, Note_on_c, 0, 53, 62
2, 45832, Note_on_c, 0, 57, 72
2, 45835, Control_c, 0, 64, 127
2, 45850, Note_on_c, 0, 62, 61
2, 45856, Note_on_c, 0, 74, 62
2, 45857, Note_on_c, 0, 69, 53
2, 45868, Note_on_c, 0, 77, 62
2, 45877, Note_on_c, 0, 81, 67
2, 45898, Note_on_c, 0, 62, 0
2, 45898, Note_on_c, 0, 50, 0
2, 45902, Note_on_c, 0, 53, 0
2, 45902, Note_on_c, 0, 57, 0
2, 45905, Note_on_c, 0, 74, 0
2, 45906, Note_on_c, 0, 69, 0
2, 45910, Note_on_c, 0, 77, 0
2, 45916, Note_on_c, 0, 81, 0
2, 45927, Control_c, 0, 64, 0
2, 45935, Note_on_c, 0, 48, 53
2, 45946, Control_c, 0, 64, 127
2, 45954, Note_on_c, 0, 55, 55
2, 45969, Note_on_c, 0, 48, 0
2, 45973, Note_on_c, 0, 58, 52
2, 45996, Note_on_c, 0, 64, 55
2, 46000, Note_on_c, 0, 55, 0
2, 46004, Note_on_c, 0, 72, 53
2, 46011, Note_on_c, 0, 58, 0
2, 46018, Note_on_c, 0, 79, 61
2, 46019, Note_on_c, 0, 64, 0
2, 46038, Note_on_c, 0, 84, 68
2, 46050, Note_on_c, 0, 72, 0
2, 46057, Note_on_c, 0, 79, 0
2, 46072, Note_on_c, 0, 84, 0
2, 46091, Control_c, 0, 64, 0
2, 46106, Note_on_c, 0, 41, 47
2, 46113, Control_c, 0, 64, 127
2, 46140, Note_on_c, 0, 48, 55
2, 46148, Note_on_c, 0, 41, 0
2, 46171, Note_on_c, 0, 57, 51
2, 46177, Note_on_c, 0, 48, 0
2, 46208, Note_on_c, 0, 57, 0
2, 46214, Note_on_c, 0, 65, 53
2, 46243, Note_on_c, 0, 72, 56
2, 46249, Note_on_c, 0, 65, 0
2, 46251, Note_on_c, 0, 77, 53
2, 46266, Note_on_c, 0, 81, 56
2, 46291, Note_on_c, 0, 84, 60
2, 46294, Note_on_c, 0, 77, 0
2, 46302, Note_on_c, 0, 72, 0
2, 46314, Note_on_c, 0, 81, 0
2, 46331, Note_on_c, 0, 84, 0
2, 46335, Note_on_c, 0, 89, 65
2, 46376, Note_on_c, 0, 89, 0
2, 47410, Control_c, 0, 64, 0
2, 47410, End_track
3, 0, Start_track
3, 0, MIDI_port, 0
3, 0, Title_t, "in F Major"
3, 0, End_track
4, 0, Start_track
4, 0, MIDI_port, 0
4, 0, Title_t, "Op. 10, No. 8"
4, 0, End_track
5, 0, Start_track
5, 0, MIDI_port, 0
5, 0, Title_t, "Chopin, Frederic"
5, 0, End_track
6, 0, Start_track
6, 0, MIDI_port, 0
6, 0, Title_t, "Sequenced by Anousone Kitisa"
6, 0, End_track
0, 0, End_of_file