0, 0, Header, 1, 11, 384
1, 0, Start_track
1, 0, Sequencer_specific, 03, 00, 00, 41
1, 0, Time_signature, 4, 2, 24, 8
1, 0, Key_signature, 0, "major"
1, 0, Tempo, 750000
1, 11312, Tempo, 714286
1, 23640, Tempo, 500000
1, 23956, Tempo, 714286
1, 32604, Tempo, 500000
1, 33040, Tempo, 714286
1, 65664, Tempo, 681818
1, 69428, Tempo, 600000
1, 71324, Tempo, 666667
1, 96640, Tempo, 631579
1, 102364, Tempo, 666667
1, 109664, Tempo, 521739
1, 110504, Tempo, 666667
1, 113576, Tempo, 600000
1, 135228, Tempo, 500000
1, 136112, Tempo, 600000
1, 181908, Tempo, 545455
1, 198360, Tempo, 461538
1, 201664, Tempo, 545455
1, 245004, Tempo, 750000
1, 255672, Tempo, 600000
1, 255672, End_track
2, 0, Start_track
2, 0, MIDI_port, 0
2, 0, Title_t, "Pianoforte"
2, 0, Control_c, 0, 0, 0
2, 0, Control_c, 0, 32, 0
2, 0, Program_c, 0, 0
2, 0, Control_c, 0, 91, 127
2, 36, Control_c, 0, 91, 127
2, 11364, Control_c, 0, 64, 24
2, 11372, Control_c, 0, 64, 40
2, 11380, Control_c, 0, 64, 56
2, 11392, Control_c, 0, 64, 72
2, 11400, Control_c, 0, 64, 88
2, 11408, Control_c, 0, 64, 104
2, 11420, Control_c, 0, 64, 127
2, 11520, Note_on_c, 0, 32, 60
2, 11976, Note_on_c, 0, 32, 0
2, 12020, Note_on_c, 0, 44, 65
2, 12308, Note_on_c, 0, 51, 70
2, 12312, Note_on_c, 0, 44, 0
2, 12496, Note_on_c, 0, 51, 0
2, 12548, Note_on_c, 0, 60, 73
2, 12776, Note_on_c, 0, 60, 0
2, 12784, Note_on_c, 0, 56, 70
2, 12948, Note_on_c, 0, 56, 0
2, 12996, Note_on_c, 0, 60, 71
2, 13304, Note_on_c, 0, 60, 0
2, 13324, Note_on_c, 0, 63, 67
2, 13464, Control_c, 0, 64, 104
2, 13476, Control_c, 0, 64, 56
2, 13484, Control_c, 0, 64, 24
2, 13496, Control_c, 0, 64, 0
2, 14236, Note_on_c, 0, 62, 58
2, 14260, Control_c, 0, 64, 24
2, 14264, Note_on_c, 0, 63, 0
2, 14272, Control_c, 0, 64, 56
2, 14280, Control_c, 0, 64, 88
2, 14292, Control_c, 0, 64, 127
2, 14396, Note_on_c, 0, 63, 67
2, 14400, Note_on_c, 0, 62, 0
2, 14412, Control_c, 0, 64, 88
2, 14424, Control_c, 0, 64, 24
2, 14436, Control_c, 0, 64, 0
2, 14468, Control_c, 0, 64, 24
2, 14476, Control_c, 0, 64, 56
2, 14488, Control_c, 0, 64, 104
2, 14516, Note_on_c, 0, 65, 66
2, 14520, Note_on_c, 0, 63, 0
2, 14520, Control_c, 0, 64, 72
2, 14528, Control_c, 0, 64, 40
2, 14536, Control_c, 0, 64, 0
2, 14612, Note_on_c, 0, 63, 64
2, 14616, Note_on_c, 0, 65, 0
2, 14684, Note_on_c, 0, 62, 74
2, 14692, Note_on_c, 0, 63, 0
2, 14756, Note_on_c, 0, 63, 69
2, 14764, Note_on_c, 0, 62, 0
2, 14820, Note_on_c, 0, 63, 0
2, 14840, Note_on_c, 0, 65, 67
2, 14924, Note_on_c, 0, 67, 64
2, 14928, Note_on_c, 0, 65, 0
2, 14932, Control_c, 0, 64, 56
2, 14944, Control_c, 0, 64, 88
2, 14952, Control_c, 0, 64, 127
2, 14984, Note_on_c, 0, 68, 67
2, 15004, Note_on_c, 0, 67, 0
2, 15068, Note_on_c, 0, 70, 67
2, 15096, Note_on_c, 0, 68, 0
2, 15112, Note_on_c, 0, 70, 0
2, 15168, Note_on_c, 0, 72, 76
2, 15176, Control_c, 0, 64, 104
2, 15192, Note_on_c, 0, 32, 42
2, 15192, Control_c, 0, 64, 24
2, 15200, Control_c, 0, 64, 0
2, 15252, Control_c, 0, 64, 72
2, 15260, Note_on_c, 0, 75, 70
2, 15260, Control_c, 0, 64, 127
2, 15276, Note_on_c, 0, 72, 0
2, 15288, Note_on_c, 0, 32, 0
2, 15348, Note_on_c, 0, 80, 68
2, 15352, Note_on_c, 0, 75, 0
2, 15440, Note_on_c, 0, 80, 0
2, 15464, Note_on_c, 0, 87, 86
2, 15616, Note_on_c, 0, 51, 37
2, 15796, Note_on_c, 0, 51, 0
2, 15912, Note_on_c, 0, 63, 27
2, 15924, Note_on_c, 0, 56, 32
2, 15928, Note_on_c, 0, 60, 33
2, 16084, Note_on_c, 0, 87, 0
2, 16204, Note_on_c, 0, 51, 42
2, 16304, Note_on_c, 0, 56, 0
2, 16308, Note_on_c, 0, 51, 0
2, 16324, Note_on_c, 0, 60, 0
2, 16352, Note_on_c, 0, 63, 0
2, 16356, Note_on_c, 0, 86, 66
2, 16420, Note_on_c, 0, 87, 71
2, 16424, Note_on_c, 0, 86, 0
2, 16476, Note_on_c, 0, 87, 0
2, 16488, Note_on_c, 0, 89, 73
2, 16536, Note_on_c, 0, 89, 0
2, 16540, Note_on_c, 0, 68, 45
2, 16540, Note_on_c, 0, 87, 73
2, 16544, Note_on_c, 0, 56, 35
2, 16548, Note_on_c, 0, 60, 42
2, 16580, Note_on_c, 0, 87, 0
2, 16588, Note_on_c, 0, 89, 68
2, 16632, Note_on_c, 0, 89, 0
2, 16632, Note_on_c, 0, 87, 70
2, 16644, Note_on_c, 0, 68, 0
2, 16652, Note_on_c, 0, 60, 0
2, 16656, Note_on_c, 0, 56, 0
2, 16676, Note_on_c, 0, 87, 0
2, 16680, Note_on_c, 0, 89, 70
2, 16728, Note_on_c, 0, 89, 0
2, 16728, Note_on_c, 0, 87, 67
2, 16768, Note_on_c, 0, 87, 0
2, 16768, Note_on_c, 0, 89, 73
2, 16816, Note_on_c, 0, 89, 0
2, 16816, Note_on_c, 0, 87, 67
2, 16820, Note_on_c, 0, 51, 54
2, 16856, Note_on_c, 0, 87, 0
2, 16856, Note_on_c, 0, 89, 70
2, 16904, Note_on_c, 0, 89, 0
2, 16908, Note_on_c, 0, 87, 65
2, 16940, Note_on_c, 0, 87, 0
2, 16940, Note_on_c, 0, 89, 76
2, 16992, Note_on_c, 0, 89, 0
2, 16996, Note_on_c, 0, 87, 67
2, 17032, Note_on_c, 0, 89, 70
2, 17036, Note_on_c, 0, 87, 0
2, 17080, Note_on_c, 0, 89, 0
2, 17080, Note_on_c, 0, 87, 64
2, 17084, Note_on_c, 0, 51, 0
2, 17096, Note_on_c, 0, 56, 35
2, 17104, Note_on_c, 0, 63, 19
2, 17112, Note_on_c, 0, 60, 33
2, 17116, Note_on_c, 0, 89, 73
2, 17120, Note_on_c, 0, 87, 0
2, 17168, Note_on_c, 0, 89, 0
2, 17168, Note_on_c, 0, 87, 61
2, 17208, Note_on_c, 0, 87, 0
2, 17208, Note_on_c, 0, 89, 66
2, 17248, Note_on_c, 0, 89, 0
2, 17252, Note_on_c, 0, 87, 51
2, 17288, Note_on_c, 0, 87, 0
2, 17292, Note_on_c, 0, 89, 58
2, 17304, Note_on_c, 0, 87, 42
2, 17312, Note_on_c, 0, 89, 0
2, 17360, Note_on_c, 0, 87, 0
2, 17360, Note_on_c, 0, 86, 70
2, 17428, Note_on_c, 0, 87, 83
2, 17436, Note_on_c, 0, 86, 0
2, 17524, Note_on_c, 0, 87, 0
2, 17532, Note_on_c, 0, 92, 83
2, 17564, Note_on_c, 0, 51, 38
2, 17620, Note_on_c, 0, 63, 0
2, 17628, Note_on_c, 0, 60, 0
2, 17636, Note_on_c, 0, 92, 0
2, 17660, Note_on_c, 0, 89, 79
2, 17664, Note_on_c, 0, 51, 0
2, 17668, Note_on_c, 0, 56, 0
2, 17752, Note_on_c, 0, 89, 0
2, 17760, Note_on_c, 0, 87, 76
2, 17844, Note_on_c, 0, 87, 0
2, 17856, Note_on_c, 0, 84, 74
2, 18000, Note_on_c, 0, 84, 0
2, 18004, Note_on_c, 0, 82, 75
2, 18056, Note_on_c, 0, 41, 45
2, 18068, Control_c, 0, 64, 104
2, 18080, Control_c, 0, 64, 24
2, 18092, Control_c, 0, 64, 0
2, 18152, Control_c, 0, 64, 88
2, 18164, Control_c, 0, 64, 127
2, 18192, Note_on_c, 0, 41, 0
2, 18380, Note_on_c, 0, 48, 45
2, 18612, Note_on_c, 0, 48, 0
2, 18664, Note_on_c, 0, 80, 60
2, 18680, Note_on_c, 0, 82, 0
2, 18688, Note_on_c, 0, 56, 34
2, 18688, Note_on_c, 0, 60, 35
2, 18692, Note_on_c, 0, 53, 35
2, 18936, Note_on_c, 0, 53, 0
2, 18960, Note_on_c, 0, 48, 48
2, 19024, Note_on_c, 0, 48, 0
2, 19080, Note_on_c, 0, 56, 0
2, 19092, Note_on_c, 0, 60, 0
2, 19260, Note_on_c, 0, 56, 32
2, 19264, Note_on_c, 0, 65, 32
2, 19268, Note_on_c, 0, 53, 31
2, 19320, Note_on_c, 0, 80, 0
2, 19380, Note_on_c, 0, 65, 0
2, 19388, Note_on_c, 0, 53, 0
2, 19408, Note_on_c, 0, 56, 0
2, 19420, Note_on_c, 0, 80, 72
2, 19480, Note_on_c, 0, 80, 0
2, 19516, Note_on_c, 0, 80, 63
2, 19536, Note_on_c, 0, 48, 58
2, 19616, Note_on_c, 0, 80, 0
2, 19632, Note_on_c, 0, 82, 63
2, 19712, Note_on_c, 0, 82, 0
2, 19716, Note_on_c, 0, 80, 79
2, 19788, Note_on_c, 0, 48, 0
2, 19820, Note_on_c, 0, 80, 0
2, 19820, Note_on_c, 0, 79, 82
2, 19828, Note_on_c, 0, 56, 30
2, 19836, Note_on_c, 0, 60, 34
2, 19844, Note_on_c, 0, 53, 27
2, 19940, Note_on_c, 0, 79, 0
2, 19944, Note_on_c, 0, 80, 87
2, 20064, Note_on_c, 0, 80, 0
2, 20084, Note_on_c, 0, 82, 76
2, 20124, Note_on_c, 0, 48, 38
2, 20128, Note_on_c, 0, 60, 0
2, 20164, Note_on_c, 0, 53, 0
2, 20168, Note_on_c, 0, 56, 0
2, 20180, Note_on_c, 0, 48, 0
2, 20212, Note_on_c, 0, 82, 0
2, 20228, Note_on_c, 0, 84, 81
2, 20304, Note_on_c, 0, 84, 0
2, 20344, Note_on_c, 0, 73, 52
2, 20404, Control_c, 0, 64, 88
2, 20416, Note_on_c, 0, 77, 75
2, 20416, Note_on_c, 0, 34, 42
2, 20416, Control_c, 0, 64, 0
2, 20488, Note_on_c, 0, 85, 85
2, 20508, Control_c, 0, 64, 127
2, 20512, Note_on_c, 0, 34, 0
2, 20756, Note_on_c, 0, 53, 40
2, 20824, Note_on_c, 0, 73, 0
2, 20836, Note_on_c, 0, 85, 0
2, 20876, Note_on_c, 0, 77, 0
2, 20912, Note_on_c, 0, 70, 56
2, 20964, Note_on_c, 0, 53, 0
2, 20968, Note_on_c, 0, 70, 0
2, 20968, Note_on_c, 0, 77, 77
2, 21000, Note_on_c, 0, 65, 34
2, 21004, Note_on_c, 0, 58, 33
2, 21012, Note_on_c, 0, 61, 33
2, 21032, Note_on_c, 0, 85, 90
2, 21040, Note_on_c, 0, 77, 0
2, 21236, Note_on_c, 0, 85, 0
2, 21264, Note_on_c, 0, 65, 0
2, 21268, Note_on_c, 0, 53, 51
2, 21284, Note_on_c, 0, 58, 0
2, 21300, Note_on_c, 0, 53, 0
2, 21304, Note_on_c, 0, 61, 0
2, 21364, Note_on_c, 0, 85, 80
2, 21424, Note_on_c, 0, 85, 0
2, 21460, Note_on_c, 0, 69, 51
2, 21500, Note_on_c, 0, 75, 62
2, 21508, Control_c, 0, 64, 24
2, 21516, Note_on_c, 0, 69, 0
2, 21520, Control_c, 0, 64, 0
2, 21524, Note_on_c, 0, 46, 50
2, 21540, Note_on_c, 0, 78, 67
2, 21556, Note_on_c, 0, 75, 0
2, 21568, Control_c, 0, 64, 127
2, 21608, Note_on_c, 0, 78, 0
2, 21616, Note_on_c, 0, 84, 92
2, 21628, Note_on_c, 0, 46, 0
2, 21672, Note_on_c, 0, 84, 0
2, 21788, Note_on_c, 0, 85, 86
2, 21872, Note_on_c, 0, 85, 0
2, 21892, Note_on_c, 0, 84, 96
2, 21896, Note_on_c, 0, 54, 40
2, 21976, Note_on_c, 0, 84, 0
2, 21992, Note_on_c, 0, 83, 87
2, 22084, Note_on_c, 0, 83, 0
2, 22084, Note_on_c, 0, 84, 100
2, 22192, Note_on_c, 0, 54, 0
2, 22200, Note_on_c, 0, 84, 0
2, 22200, Note_on_c, 0, 87, 90
2, 22212, Note_on_c, 0, 63, 50
2, 22212, Note_on_c, 0, 66, 45
2, 22224, Note_on_c, 0, 57, 48
2, 22380, Note_on_c, 0, 85, 90
2, 22384, Note_on_c, 0, 87, 0
2, 22484, Note_on_c, 0, 54, 49
2, 22536, Note_on_c, 0, 66, 0
2, 22556, Note_on_c, 0, 57, 0
2, 22560, Note_on_c, 0, 63, 0
2, 22572, Note_on_c, 0, 84, 88
2, 22584, Note_on_c, 0, 85, 0
2, 22604, Note_on_c, 0, 54, 0
2, 22648, Note_on_c, 0, 84, 0
2, 22788, Note_on_c, 0, 84, 84
2, 22828, Note_on_c, 0, 34, 56
2, 22840, Control_c, 0, 64, 56
2, 22848, Control_c, 0, 64, 0
2, 22912, Control_c, 0, 64, 88
2, 22924, Control_c, 0, 64, 127
2, 22932, Note_on_c, 0, 34, 0
2, 23116, Note_on_c, 0, 53, 54
2, 23344, Note_on_c, 0, 53, 0
2, 23388, Note_on_c, 0, 58, 27
2, 23392, Note_on_c, 0, 65, 34
2, 23396, Note_on_c, 0, 61, 48
2, 23648, Note_on_c, 0, 53, 48
2, 23656, Note_on_c, 0, 82, 75
2, 23708, Note_on_c, 0, 65, 0
2, 23748, Note_on_c, 0, 53, 0
2, 23748, Note_on_c, 0, 61, 0
2, 23760, Note_on_c, 0, 58, 0
2, 23764, Note_on_c, 0, 82, 0
2, 23768, Note_on_c, 0, 84, 0
2, 23780, Note_on_c, 0, 79, 68
2, 23856, Note_on_c, 0, 79, 0
2, 23872, Note_on_c, 0, 80, 78
2, 23948, Note_on_c, 0, 80, 0
2, 23956, Note_on_c, 0, 82, 69
2, 24008, Control_c, 0, 64, 72
2, 24012, Control_c, 0, 64, 0
2, 24020, Note_on_c, 0, 82, 0
2, 24044, Note_on_c, 0, 40, 50
2, 24044, Note_on_c, 0, 80, 71
2, 24068, Control_c, 0, 64, 104
2, 24080, Control_c, 0, 64, 127
2, 24092, Note_on_c, 0, 80, 0
2, 24116, Note_on_c, 0, 82, 71
2, 24160, Note_on_c, 0, 82, 0
2, 24180, Note_on_c, 0, 80, 69
2, 24224, Note_on_c, 0, 80, 0
2, 24228, Note_on_c, 0, 82, 71
2, 24272, Note_on_c, 0, 82, 0
2, 24284, Note_on_c, 0, 80, 71
2, 24308, Note_on_c, 0, 52, 57
2, 24324, Note_on_c, 0, 80, 0
2, 24324, Note_on_c, 0, 82, 55
2, 24368, Note_on_c, 0, 82, 0
2, 24368, Note_on_c, 0, 80, 70
2, 24396, Note_on_c, 0, 52, 0
2, 24408, Note_on_c, 0, 80, 0
2, 24416, Note_on_c, 0, 82, 70
2, 24456, Note_on_c, 0, 80, 70
2, 24460, Note_on_c, 0, 82, 0
2, 24500, Note_on_c, 0, 80, 0
2, 24500, Note_on_c, 0, 82, 70
2, 24548, Note_on_c, 0, 82, 0
2, 24552, Note_on_c, 0, 80, 70
2, 24568, Note_on_c, 0, 68, 55
2, 24580, Note_on_c, 0, 58, 34
2, 24584, Note_on_c, 0, 61, 47
2, 24596, Note_on_c, 0, 82, 65
2, 24604, Note_on_c, 0, 80, 0
2, 24640, Note_on_c, 0, 82, 0
2, 24652, Note_on_c, 0, 80, 69
2, 24672, Note_on_c, 0, 68, 0
2, 24676, Note_on_c, 0, 80, 0
2, 24684, Note_on_c, 0, 82, 69
2, 24728, Note_on_c, 0, 80, 68
2, 24740, Note_on_c, 0, 82, 0
2, 24788, Note_on_c, 0, 79, 70
2, 24792, Note_on_c, 0, 80, 0
2, 24852, Note_on_c, 0, 79, 0
2, 24852, Note_on_c, 0, 80, 73
2, 24924, Note_on_c, 0, 80, 0
2, 24936, Note_on_c, 0, 84, 79
2, 24944, Note_on_c, 0, 52, 41
2, 25024, Note_on_c, 0, 61, 0
2, 25044, Note_on_c, 0, 58, 0
2, 25052, Note_on_c, 0, 52, 0
2, 25104, Note_on_c, 0, 40, 0
2, 25160, Note_on_c, 0, 84, 0
2, 25204, Note_on_c, 0, 82, 71
2, 25296, Note_on_c, 0, 82, 0
2, 25304, Note_on_c, 0, 80, 69
2, 25332, Note_on_c, 0, 39, 36
2, 25352, Control_c, 0, 64, 88
2, 25360, Control_c, 0, 64, 0
2, 25432, Control_c, 0, 64, 127
2, 25460, Note_on_c, 0, 39, 0
2, 25632, Note_on_c, 0, 51, 47
2, 25732, Note_on_c, 0, 51, 0
2, 25740, Note_on_c, 0, 79, 71
2, 25764, Note_on_c, 0, 80, 0
2, 25852, Note_on_c, 0, 79, 0
2, 25892, Note_on_c, 0, 67, 48
2, 25896, Note_on_c, 0, 58, 30
2, 25900, Note_on_c, 0, 61, 33
2, 25916, Note_on_c, 0, 79, 68
2, 25976, Note_on_c, 0, 79, 0
2, 25984, Note_on_c, 0, 80, 70
2, 25988, Note_on_c, 0, 67, 0
2, 26036, Note_on_c, 0, 80, 0
2, 26040, Note_on_c, 0, 79, 55
2, 26080, Note_on_c, 0, 79, 0
2, 26080, Note_on_c, 0, 80, 64
2, 26120, Note_on_c, 0, 80, 0
2, 26132, Note_on_c, 0, 79, 66
2, 26168, Note_on_c, 0, 79, 0
2, 26172, Note_on_c, 0, 80, 61
2, 26172, Note_on_c, 0, 51, 46
2, 26216, Note_on_c, 0, 61, 0
2, 26216, Note_on_c, 0, 58, 0
2, 26224, Note_on_c, 0, 79, 68
2, 26240, Note_on_c, 0, 80, 0
2, 26256, Note_on_c, 0, 51, 0
2, 26292, Note_on_c, 0, 79, 0
2, 26304, Note_on_c, 0, 77, 71
2, 26352, Note_on_c, 0, 77, 0
2, 26372, Note_on_c, 0, 79, 78
2, 26428, Note_on_c, 0, 79, 0
2, 26440, Note_on_c, 0, 82, 65
2, 26500, Note_on_c, 0, 80, 75
2, 26516, Note_on_c, 0, 82, 0
2, 26580, Note_on_c, 0, 80, 0
2, 26588, Note_on_c, 0, 79, 78
2, 26620, Control_c, 0, 64, 104
2, 26632, Control_c, 0, 64, 0
2, 26636, Note_on_c, 0, 39, 39
2, 26692, Control_c, 0, 64, 88
2, 26700, Control_c, 0, 64, 127
2, 26720, Note_on_c, 0, 39, 0
2, 26884, Note_on_c, 0, 51, 48
2, 27004, Note_on_c, 0, 77, 71
2, 27012, Note_on_c, 0, 51, 0
2, 27024, Note_on_c, 0, 79, 0
2, 27080, Note_on_c, 0, 77, 0
2, 27140, Note_on_c, 0, 65, 41
2, 27148, Note_on_c, 0, 56, 32
2, 27152, Note_on_c, 0, 60, 42
2, 27152, Note_on_c, 0, 77, 73
2, 27200, Note_on_c, 0, 77, 0
2, 27216, Note_on_c, 0, 79, 68
2, 27256, Note_on_c, 0, 79, 0
2, 27260, Note_on_c, 0, 77, 68
2, 27288, Note_on_c, 0, 65, 0
2, 27300, Note_on_c, 0, 77, 0
2, 27304, Note_on_c, 0, 79, 68
2, 27340, Note_on_c, 0, 77, 74
2, 27344, Note_on_c, 0, 79, 0
2, 27380, Note_on_c, 0, 77, 0
2, 27396, Note_on_c, 0, 79, 63
2, 27432, Note_on_c, 0, 79, 0
2, 27456, Note_on_c, 0, 51, 44
2, 27484, Note_on_c, 0, 77, 64
2, 27508, Note_on_c, 0, 60, 0
2, 27540, Note_on_c, 0, 77, 0
2, 27548, Note_on_c, 0, 76, 70
2, 27552, Note_on_c, 0, 56, 0
2, 27564, Note_on_c, 0, 51, 0
2, 27596, Note_on_c, 0, 76, 0
2, 27612, Note_on_c, 0, 77, 69
2, 27664, Note_on_c, 0, 77, 0
2, 27672, Note_on_c, 0, 80, 71
2, 27756, Note_on_c, 0, 80, 0
2, 27756, Note_on_c, 0, 79, 70
2, 27840, Note_on_c, 0, 79, 0
2, 27848, Note_on_c, 0, 77, 78
2, 27852, Note_on_c, 0, 39, 46
2, 27888, Control_c, 0, 64, 104
2, 27896, Control_c, 0, 64, 0
2, 27944, Note_on_c, 0, 39, 0
2, 27960, Control_c, 0, 64, 127
2, 28132, Note_on_c, 0, 55, 47
2, 28216, Note_on_c, 0, 75, 71
2, 28252, Note_on_c, 0, 77, 0
2, 28296, Note_on_c, 0, 75, 0
2, 28344, Note_on_c, 0, 55, 0
2, 28372, Note_on_c, 0, 75, 69
2, 28372, Note_on_c, 0, 58, 34
2, 28380, Note_on_c, 0, 63, 39
2, 28420, Note_on_c, 0, 75, 0
2, 28432, Note_on_c, 0, 77, 68
2, 28476, Note_on_c, 0, 77, 0
2, 28476, Note_on_c, 0, 75, 65
2, 28520, Note_on_c, 0, 75, 0
2, 28532, Note_on_c, 0, 77, 62
2, 28564, Note_on_c, 0, 77, 0
2, 28564, Note_on_c, 0, 75, 54
2, 28600, Note_on_c, 0, 75, 0
2, 28612, Note_on_c, 0, 77, 70
2, 28640, Note_on_c, 0, 55, 38
2, 28656, Note_on_c, 0, 75, 57
2, 28668, Note_on_c, 0, 77, 0
2, 28684, Note_on_c, 0, 55, 0
2, 28720, Note_on_c, 0, 75, 0
2, 28720, Note_on_c, 0, 74, 80
2, 28728, Note_on_c, 0, 63, 0
2, 28752, Note_on_c, 0, 58, 0
2, 28796, Note_on_c, 0, 74, 0
2, 28800, Note_on_c, 0, 75, 78
2, 28868, Note_on_c, 0, 75, 0
2, 28888, Note_on_c, 0, 79, 77
2, 28956, Note_on_c, 0, 79, 0
2, 28972, Note_on_c, 0, 77, 80
2, 29056, Control_c, 0, 64, 72
2, 29068, Control_c, 0, 64, 0
2, 29076, Note_on_c, 0, 75, 78
2, 29080, Note_on_c, 0, 77, 0
2, 29080, Note_on_c, 0, 41, 47
2, 29120, Control_c, 0, 64, 104
2, 29128, Control_c, 0, 64, 127
2, 29148, Note_on_c, 0, 41, 0
2, 29188, Note_on_c, 0, 73, 75
2, 29200, Note_on_c, 0, 75, 0
2, 29272, Note_on_c, 0, 73, 0
2, 29276, Note_on_c, 0, 75, 77
2, 29364, Note_on_c, 0, 75, 0
2, 29372, Note_on_c, 0, 73, 75
2, 29396, Note_on_c, 0, 61, 36
2, 29404, Note_on_c, 0, 56, 37
2, 29488, Note_on_c, 0, 72, 79
2, 29492, Note_on_c, 0, 73, 0
2, 29504, Note_on_c, 0, 61, 0
2, 29524, Note_on_c, 0, 56, 0
2, 29592, Note_on_c, 0, 72, 0
2, 29600, Note_on_c, 0, 73, 82
2, 29732, Note_on_c, 0, 72, 80
2, 29736, Note_on_c, 0, 73, 0
2, 29756, Control_c, 0, 64, 72
2, 29764, Note_on_c, 0, 43, 48
2, 29768, Control_c, 0, 64, 0
2, 29820, Control_c, 0, 64, 56
2, 29832, Control_c, 0, 64, 127
2, 29856, Note_on_c, 0, 43, 0
2, 29872, Note_on_c, 0, 72, 0
2, 29876, Note_on_c, 0, 73, 80
2, 29988, Note_on_c, 0, 73, 0
2, 29992, Note_on_c, 0, 77, 82
2, 30104, Note_on_c, 0, 51, 47
2, 30104, Note_on_c, 0, 58, 36
2, 30108, Note_on_c, 0, 63, 29
2, 30128, Control_c, 0, 64, 72
2, 30140, Control_c, 0, 64, 0
2, 30200, Control_c, 0, 64, 127
2, 30252, Note_on_c, 0, 75, 76
2, 30256, Note_on_c, 0, 77, 0
2, 30272, Note_on_c, 0, 63, 0
2, 30296, Note_on_c, 0, 58, 0
2, 30304, Note_on_c, 0, 51, 0
2, 30396, Note_on_c, 0, 73, 75
2, 30400, Note_on_c, 0, 75, 0
2, 30564, Note_on_c, 0, 73, 0
2, 30592, Note_on_c, 0, 72, 77
2, 30620, Note_on_c, 0, 32, 50
2, 30656, Control_c, 0, 64, 24
2, 30668, Control_c, 0, 64, 0
2, 30740, Control_c, 0, 64, 127
2, 30748, Note_on_c, 0, 32, 0
2, 30948, Note_on_c, 0, 51, 50
2, 31080, Note_on_c, 0, 72, 0
2, 31184, Note_on_c, 0, 72, 79
2, 31204, Note_on_c, 0, 56, 40
2, 31224, Note_on_c, 0, 51, 0
2, 31464, Note_on_c, 0, 60, 59
2, 31520, Note_on_c, 0, 60, 0
2, 31532, Note_on_c, 0, 72, 0
2, 31536, Note_on_c, 0, 56, 0
2, 31568, Note_on_c, 0, 72, 80
2, 31660, Note_on_c, 0, 72, 0
2, 31732, Note_on_c, 0, 72, 83
2, 31764, Note_on_c, 0, 37, 40
2, 31800, Control_c, 0, 64, 104
2, 31812, Control_c, 0, 64, 0
2, 31872, Control_c, 0, 64, 127
2, 31884, Note_on_c, 0, 37, 0
2, 32064, Note_on_c, 0, 61, 36
2, 32072, Note_on_c, 0, 53, 36
2, 32076, Note_on_c, 0, 58, 33
2, 32104, Note_on_c, 0, 53, 0
2, 32108, Note_on_c, 0, 58, 0
2, 32132, Note_on_c, 0, 61, 0
2, 32132, Note_on_c, 0, 72, 0
2, 32144, Note_on_c, 0, 65, 72
2, 32228, Note_on_c, 0, 70, 79
2, 32228, Note_on_c, 0, 65, 38
2, 32228, Note_on_c, 0, 61, 38
2, 32228, Note_on_c, 0, 58, 38
2, 32244, Note_on_c, 0, 65, 0
2, 32308, Note_on_c, 0, 73, 83
2, 32324, Note_on_c, 0, 70, 0
2, 32352, Note_on_c, 0, 73, 0
2, 32372, Note_on_c, 0, 65, 0
2, 32372, Note_on_c, 0, 61, 0
2, 32372, Note_on_c, 0, 58, 0
2, 32392, Note_on_c, 0, 77, 85
2, 32460, Note_on_c, 0, 77, 0
2, 32476, Note_on_c, 0, 82, 80
2, 32476, Note_on_c, 0, 70, 42
2, 32476, Note_on_c, 0, 65, 42
2, 32476, Note_on_c, 0, 61, 42
2, 32548, Note_on_c, 0, 82, 0
2, 32604, Note_on_c, 0, 91, 84
2, 32636, Note_on_c, 0, 70, 0
2, 32636, Note_on_c, 0, 61, 0
2, 32636, Note_on_c, 0, 65, 0
2, 32796, Note_on_c, 0, 91, 0
2, 33040, Note_on_c, 0, 89, 83
2, 33156, Note_on_c, 0, 89, 0
2, 33192, Note_on_c, 0, 82, 72
2, 33208, Note_on_c, 0, 39, 34
2, 33216, Note_on_c, 0, 27, 36
2, 33216, Control_c, 0, 64, 72
2, 33228, Control_c, 0, 64, 0
2, 33292, Note_on_c, 0, 27, 0
2, 33292, Control_c, 0, 64, 127
2, 33304, Note_on_c, 0, 39, 0
2, 33504, Note_on_c, 0, 63, 32
2, 33516, Note_on_c, 0, 55, 38
2, 33520, Note_on_c, 0, 58, 33
2, 33548, Note_on_c, 0, 55, 0
2, 33564, Note_on_c, 0, 63, 0
2, 33576, Note_on_c, 0, 58, 0
2, 33760, Note_on_c, 0, 58, 37
2, 33772, Note_on_c, 0, 67, 44
2, 33772, Note_on_c, 0, 63, 31
2, 33840, Note_on_c, 0, 58, 0
2, 33852, Note_on_c, 0, 63, 0
2, 33852, Note_on_c, 0, 67, 0
2, 34060, Note_on_c, 0, 70, 27
2, 34064, Note_on_c, 0, 82, 0
2, 34064, Note_on_c, 0, 63, 28
2, 34072, Note_on_c, 0, 81, 68
2, 34076, Note_on_c, 0, 67, 32
2, 34160, Note_on_c, 0, 81, 0
2, 34160, Note_on_c, 0, 82, 75
2, 34164, Note_on_c, 0, 70, 0
2, 34188, Note_on_c, 0, 67, 0
2, 34204, Note_on_c, 0, 63, 0
2, 34232, Note_on_c, 0, 82, 0
2, 34240, Note_on_c, 0, 85, 72
2, 34312, Note_on_c, 0, 85, 0
2, 34316, Note_on_c, 0, 84, 82
2, 34412, Note_on_c, 0, 84, 0
2, 34416, Note_on_c, 0, 82, 71
2, 34420, Note_on_c, 0, 75, 39
2, 34436, Note_on_c, 0, 67, 39
2, 34456, Note_on_c, 0, 70, 25
2, 34508, Note_on_c, 0, 75, 0
2, 34536, Note_on_c, 0, 67, 0
2, 34540, Note_on_c, 0, 70, 0
2, 34720, Note_on_c, 0, 70, 37
2, 34732, Note_on_c, 0, 67, 39
2, 34744, Note_on_c, 0, 63, 35
2, 34788, Note_on_c, 0, 67, 0
2, 34820, Note_on_c, 0, 63, 0
2, 34820, Note_on_c, 0, 70, 0
2, 35004, Note_on_c, 0, 58, 37
2, 35008, Note_on_c, 0, 67, 38
2, 35016, Note_on_c, 0, 63, 27
2, 35108, Note_on_c, 0, 82, 0
2, 35116, Note_on_c, 0, 67, 0
2, 35136, Note_on_c, 0, 63, 0
2, 35144, Note_on_c, 0, 58, 0
2, 35324, Note_on_c, 0, 83, 74
2, 35328, Note_on_c, 0, 71, 62
2, 35344, Note_on_c, 0, 63, 27
2, 35348, Note_on_c, 0, 55, 42
2, 35356, Note_on_c, 0, 61, 29
2, 35468, Note_on_c, 0, 55, 0
2, 35472, Note_on_c, 0, 63, 0
2, 35476, Note_on_c, 0, 61, 0
2, 35480, Note_on_c, 0, 71, 0
2, 35684, Note_on_c, 0, 83, 0
2, 35708, Note_on_c, 0, 72, 64
2, 35708, Note_on_c, 0, 84, 68
2, 35736, Control_c, 0, 64, 104
2, 35744, Note_on_c, 0, 32, 48
2, 35748, Control_c, 0, 64, 0
2, 35768, Note_on_c, 0, 44, 22
2, 35820, Control_c, 0, 64, 127
2, 35844, Note_on_c, 0, 32, 0
2, 35852, Note_on_c, 0, 44, 0
2, 36028, Note_on_c, 0, 51, 44
2, 36100, Note_on_c, 0, 72, 0
2, 36224, Note_on_c, 0, 84, 0
2, 36256, Note_on_c, 0, 51, 0
2, 36268, Note_on_c, 0, 85, 85
2, 36268, Note_on_c, 0, 63, 25
2, 36276, Note_on_c, 0, 73, 61
2, 36288, Note_on_c, 0, 56, 30
2, 36304, Note_on_c, 0, 60, 31
2, 36508, Note_on_c, 0, 60, 0
2, 36528, Note_on_c, 0, 56, 0
2, 36528, Note_on_c, 0, 51, 49
2, 36556, Note_on_c, 0, 73, 0
2, 36560, Note_on_c, 0, 85, 0
2, 36584, Note_on_c, 0, 63, 0
2, 36636, Note_on_c, 0, 84, 89
2, 36644, Note_on_c, 0, 72, 74
2, 36692, Note_on_c, 0, 72, 0
2, 36720, Note_on_c, 0, 84, 0
2, 36800, Note_on_c, 0, 51, 0
2, 36808, Note_on_c, 0, 82, 77
2, 36820, Note_on_c, 0, 70, 60
2, 36824, Note_on_c, 0, 61, 47
2, 36824, Note_on_c, 0, 56, 42
2, 36832, Note_on_c, 0, 63, 39
2, 36904, Control_c, 0, 64, 104
2, 36912, Control_c, 0, 64, 0
2, 37048, Control_c, 0, 64, 88
2, 37060, Control_c, 0, 64, 127
2, 37076, Note_on_c, 0, 56, 0
2, 37080, Note_on_c, 0, 55, 56
2, 37112, Note_on_c, 0, 70, 0
2, 37312, Note_on_c, 0, 82, 0
2, 37328, Note_on_c, 0, 87, 82
2, 37328, Note_on_c, 0, 75, 70
2, 37340, Note_on_c, 0, 55, 0
2, 37356, Note_on_c, 0, 53, 43
2, 37556, Note_on_c, 0, 53, 0
2, 37568, Note_on_c, 0, 61, 0
2, 37596, Note_on_c, 0, 55, 51
2, 37624, Note_on_c, 0, 87, 0
2, 37644, Note_on_c, 0, 75, 0
2, 37728, Note_on_c, 0, 63, 0
2, 37800, Note_on_c, 0, 55, 0
2, 37840, Note_on_c, 0, 80, 80
2, 37848, Note_on_c, 0, 68, 55
2, 37860, Note_on_c, 0, 56, 28
2, 37864, Note_on_c, 0, 60, 39
2, 37868, Note_on_c, 0, 63, 26
2, 37936, Control_c, 0, 64, 24
2, 37944, Control_c, 0, 64, 0
2, 38020, Control_c, 0, 64, 127
2, 38104, Note_on_c, 0, 60, 0
2, 38120, Note_on_c, 0, 51, 50
2, 38124, Note_on_c, 0, 56, 0
2, 38204, Note_on_c, 0, 63, 0
2, 38208, Note_on_c, 0, 68, 0
2, 38212, Note_on_c, 0, 80, 0
2, 38340, Note_on_c, 0, 79, 80
2, 38344, Note_on_c, 0, 51, 0
2, 38352, Note_on_c, 0, 67, 48
2, 38356, Note_on_c, 0, 58, 39
2, 38372, Note_on_c, 0, 61, 28
2, 38372, Note_on_c, 0, 63, 28
2, 38388, Control_c, 0, 64, 0
2, 38460, Control_c, 0, 64, 56
2, 38472, Control_c, 0, 64, 127
2, 38604, Note_on_c, 0, 61, 0
2, 38604, Note_on_c, 0, 51, 57
2, 38608, Note_on_c, 0, 58, 0
2, 38636, Note_on_c, 0, 67, 0
2, 38696, Note_on_c, 0, 79, 0
2, 38752, Note_on_c, 0, 77, 80
2, 38752, Note_on_c, 0, 65, 59
2, 38764, Note_on_c, 0, 56, 43
2, 38808, Note_on_c, 0, 65, 0
2, 38872, Note_on_c, 0, 77, 0
2, 38880, Note_on_c, 0, 56, 0
2, 38892, Note_on_c, 0, 79, 78
2, 38896, Note_on_c, 0, 67, 59
2, 38896, Note_on_c, 0, 58, 43
2, 38936, Control_c, 0, 64, 40
2, 38948, Control_c, 0, 64, 0
2, 38984, Note_on_c, 0, 51, 0
2, 39028, Control_c, 0, 64, 72
2, 39040, Control_c, 0, 64, 127
2, 39124, Note_on_c, 0, 58, 0
2, 39132, Note_on_c, 0, 63, 0
2, 39132, Note_on_c, 0, 51, 49
2, 39352, Note_on_c, 0, 51, 0
2, 39380, Note_on_c, 0, 61, 46
2, 39380, Note_on_c, 0, 63, 44
2, 39392, Note_on_c, 0, 58, 40
2, 39664, Note_on_c, 0, 51, 44
2, 39728, Note_on_c, 0, 58, 0
2, 39736, Note_on_c, 0, 63, 0
2, 39760, Note_on_c, 0, 61, 0
2, 39776, Note_on_c, 0, 67, 0
2, 39788, Note_on_c, 0, 51, 0
2, 39804, Note_on_c, 0, 79, 0
2, 39948, Note_on_c, 0, 80, 81
2, 39952, Note_on_c, 0, 68, 57
2, 39984, Note_on_c, 0, 44, 43
2, 39992, Control_c, 0, 64, 72
2, 40000, Control_c, 0, 64, 0
2, 40064, Control_c, 0, 64, 72
2, 40072, Control_c, 0, 64, 127
2, 40088, Note_on_c, 0, 44, 0
2, 40220, Note_on_c, 0, 51, 51
2, 40324, Note_on_c, 0, 68, 0
2, 40340, Note_on_c, 0, 80, 0
2, 40412, Note_on_c, 0, 51, 0
2, 40460, Note_on_c, 0, 79, 82
2, 40464, Note_on_c, 0, 67, 50
2, 40464, Note_on_c, 0, 63, 36
2, 40472, Note_on_c, 0, 56, 29
2, 40488, Note_on_c, 0, 60, 39
2, 40708, Note_on_c, 0, 79, 0
2, 40712, Note_on_c, 0, 51, 50
2, 40732, Note_on_c, 0, 67, 0
2, 40744, Note_on_c, 0, 63, 0
2, 40748, Note_on_c, 0, 60, 0
2, 40764, Note_on_c, 0, 56, 0
2, 40796, Note_on_c, 0, 51, 0
2, 40832, Note_on_c, 0, 77, 85
2, 40840, Note_on_c, 0, 65, 64
2, 40880, Note_on_c, 0, 65, 0
2, 40904, Note_on_c, 0, 77, 0
2, 40968, Note_on_c, 0, 79, 79
2, 40976, Note_on_c, 0, 67, 60
2, 41000, Note_on_c, 0, 39, 44
2, 41012, Control_c, 0, 64, 24
2, 41024, Control_c, 0, 64, 0
2, 41084, Control_c, 0, 64, 127
2, 41088, Note_on_c, 0, 39, 0
2, 41216, Note_on_c, 0, 51, 49
2, 41264, Note_on_c, 0, 67, 0
2, 41312, Note_on_c, 0, 79, 0
2, 41312, Note_on_c, 0, 72, 82
2, 41360, Note_on_c, 0, 72, 0
2, 41392, Note_on_c, 0, 72, 83
2, 41508, Note_on_c, 0, 63, 55
2, 41512, Note_on_c, 0, 84, 87
2, 41768, Note_on_c, 0, 61, 54
2, 41780, Note_on_c, 0, 72, 0
2, 41856, Note_on_c, 0, 84, 0
2, 41892, Note_on_c, 0, 61, 0
2, 41896, Note_on_c, 0, 82, 71
2, 41896, Note_on_c, 0, 70, 55
2, 41956, Note_on_c, 0, 63, 0
2, 41964, Note_on_c, 0, 70, 0
2, 42024, Note_on_c, 0, 82, 0
2, 42064, Note_on_c, 0, 80, 73
2, 42068, Note_on_c, 0, 68, 50
2, 42092, Note_on_c, 0, 60, 48
2, 42136, Control_c, 0, 64, 88
2, 42148, Control_c, 0, 64, 0
2, 42244, Control_c, 0, 64, 127
2, 42316, Note_on_c, 0, 60, 0
2, 42320, Note_on_c, 0, 63, 35
2, 42360, Note_on_c, 0, 80, 0
2, 42388, Note_on_c, 0, 68, 0
2, 42560, Note_on_c, 0, 79, 74
2, 42560, Note_on_c, 0, 67, 59
2, 42580, Note_on_c, 0, 58, 32
2, 42596, Note_on_c, 0, 63, 0
2, 42688, Note_on_c, 0, 67, 0
2, 42772, Note_on_c, 0, 79, 0
2, 42832, Note_on_c, 0, 77, 76
2, 42840, Note_on_c, 0, 58, 0
2, 42840, Note_on_c, 0, 65, 53
2, 42856, Note_on_c, 0, 56, 35
2, 42924, Note_on_c, 0, 65, 0
2, 43036, Note_on_c, 0, 77, 0
2, 43088, Note_on_c, 0, 56, 0
2, 43096, Note_on_c, 0, 67, 51
2, 43096, Note_on_c, 0, 79, 73
2, 43100, Note_on_c, 0, 58, 34
2, 43128, Control_c, 0, 64, 56
2, 43140, Control_c, 0, 64, 0
2, 43224, Control_c, 0, 64, 88
2, 43232, Control_c, 0, 64, 127
2, 43352, Note_on_c, 0, 58, 0
2, 43352, Note_on_c, 0, 63, 49
2, 43388, Note_on_c, 0, 51, 0
2, 43592, Note_on_c, 0, 63, 0
2, 43608, Note_on_c, 0, 56, 47
2, 43644, Control_c, 0, 64, 72
2, 43656, Control_c, 0, 64, 0
2, 43708, Control_c, 0, 64, 72
2, 43720, Control_c, 0, 64, 127
2, 43820, Note_on_c, 0, 56, 0
2, 43840, Note_on_c, 0, 79, 0
2, 43844, Note_on_c, 0, 67, 0
2, 43908, Note_on_c, 0, 55, 46
2, 43976, Note_on_c, 0, 55, 0
2, 44064, Note_on_c, 0, 65, 52
2, 44128, Note_on_c, 0, 68, 62
2, 44160, Control_c, 0, 64, 56
2, 44172, Control_c, 0, 64, 0
2, 44220, Note_on_c, 0, 37, 50
2, 44224, Control_c, 0, 64, 127
2, 44292, Note_on_c, 0, 77, 81
2, 44316, Note_on_c, 0, 37, 0
2, 44556, Note_on_c, 0, 56, 50
2, 44760, Note_on_c, 0, 77, 0
2, 44772, Note_on_c, 0, 68, 0
2, 44776, Note_on_c, 0, 75, 79
2, 44808, Note_on_c, 0, 53, 48
2, 45020, Note_on_c, 0, 75, 0
2, 45028, Note_on_c, 0, 73, 78
2, 45032, Note_on_c, 0, 65, 0
2, 45068, Note_on_c, 0, 61, 48
2, 45096, Note_on_c, 0, 53, 0
2, 45108, Note_on_c, 0, 56, 0
2, 45112, Note_on_c, 0, 73, 0
2, 45116, Note_on_c, 0, 61, 0
2, 45188, Note_on_c, 0, 63, 46
2, 45228, Note_on_c, 0, 68, 58
2, 45272, Note_on_c, 0, 73, 69
2, 45296, Control_c, 0, 64, 104
2, 45304, Control_c, 0, 64, 24
2, 45320, Control_c, 0, 64, 0
2, 45340, Note_on_c, 0, 75, 85
2, 45340, Note_on_c, 0, 44, 42
2, 45376, Note_on_c, 0, 68, 0
2, 45388, Control_c, 0, 64, 127
2, 45424, Note_on_c, 0, 44, 0
2, 45596, Note_on_c, 0, 73, 0
2, 45600, Note_on_c, 0, 56, 42
2, 45624, Note_on_c, 0, 63, 0
2, 45720, Note_on_c, 0, 63, 48
2, 45748, Note_on_c, 0, 75, 0
2, 45764, Note_on_c, 0, 68, 61
2, 45768, Note_on_c, 0, 63, 0
2, 45776, Note_on_c, 0, 56, 0
2, 45796, Note_on_c, 0, 72, 74
2, 45804, Note_on_c, 0, 68, 0
2, 45808, Note_on_c, 0, 51, 34
2, 45824, Note_on_c, 0, 72, 0
2, 45880, Note_on_c, 0, 80, 89
2, 45996, Note_on_c, 0, 80, 0
2, 46128, Note_on_c, 0, 60, 49
2, 46152, Note_on_c, 0, 60, 0
2, 46176, Note_on_c, 0, 51, 0
2, 46324, Note_on_c, 0, 63, 58
2, 46328, Control_c, 0, 64, 0
2, 46356, Note_on_c, 0, 41, 46
2, 46372, Note_on_c, 0, 53, 34
2, 46380, Control_c, 0, 64, 127
2, 46384, Note_on_c, 0, 68, 64
2, 46436, Note_on_c, 0, 41, 0
2, 46472, Note_on_c, 0, 75, 85
2, 46500, Note_on_c, 0, 68, 0
2, 46576, Note_on_c, 0, 53, 0
2, 46696, Note_on_c, 0, 56, 29
2, 46724, Note_on_c, 0, 63, 0
2, 46768, Note_on_c, 0, 56, 0
2, 46864, Note_on_c, 0, 63, 45
2, 46924, Note_on_c, 0, 70, 59
2, 46932, Note_on_c, 0, 75, 0
2, 46940, Control_c, 0, 64, 0
2, 46944, Note_on_c, 0, 43, 49
2, 46944, Note_on_c, 0, 55, 32
2, 46972, Control_c, 0, 64, 88
2, 46980, Control_c, 0, 64, 127
2, 46992, Note_on_c, 0, 73, 68
2, 47000, Note_on_c, 0, 70, 0
2, 47004, Note_on_c, 0, 43, 0
2, 47020, Note_on_c, 0, 63, 0
2, 47056, Note_on_c, 0, 75, 75
2, 47060, Note_on_c, 0, 73, 0
2, 47060, Note_on_c, 0, 55, 0
2, 47112, Note_on_c, 0, 75, 0
2, 47128, Note_on_c, 0, 73, 68
2, 47172, Note_on_c, 0, 73, 0
2, 47184, Note_on_c, 0, 75, 70
2, 47220, Note_on_c, 0, 58, 31
2, 47240, Note_on_c, 0, 73, 62
2, 47252, Note_on_c, 0, 75, 0
2, 47256, Note_on_c, 0, 58, 0
2, 47296, Note_on_c, 0, 72, 84
2, 47300, Note_on_c, 0, 73, 0
2, 47364, Note_on_c, 0, 72, 0
2, 47368, Note_on_c, 0, 75, 81
2, 47432, Note_on_c, 0, 73, 69
2, 47436, Note_on_c, 0, 75, 0
2, 47524, Note_on_c, 0, 72, 81
2, 47548, Note_on_c, 0, 73, 0
2, 47568, Note_on_c, 0, 72, 0
2, 47612, Note_on_c, 0, 72, 77
2, 47628, Note_on_c, 0, 63, 57
2, 47636, Note_on_c, 0, 68, 34
2, 47640, Note_on_c, 0, 56, 20
2, 47660, Note_on_c, 0, 44, 26
2, 47664, Control_c, 0, 64, 24
2, 47672, Control_c, 0, 64, 0
2, 47736, Control_c, 0, 64, 127
2, 47764, Note_on_c, 0, 44, 0
2, 47788, Note_on_c, 0, 56, 0
2, 47872, Note_on_c, 0, 68, 0
2, 47904, Note_on_c, 0, 60, 45
2, 47912, Note_on_c, 0, 63, 0
2, 47976, Note_on_c, 0, 60, 0
2, 48056, Note_on_c, 0, 72, 0
2, 48196, Note_on_c, 0, 78, 73
2, 48200, Note_on_c, 0, 66, 51
2, 48200, Note_on_c, 0, 75, 64
2, 48208, Note_on_c, 0, 72, 62
2, 48216, Note_on_c, 0, 69, 45
2, 48228, Note_on_c, 0, 57, 35
2, 48236, Note_on_c, 0, 45, 49
2, 48252, Control_c, 0, 64, 72
2, 48260, Control_c, 0, 64, 0
2, 48320, Note_on_c, 0, 45, 0
2, 48324, Control_c, 0, 64, 127
2, 48360, Note_on_c, 0, 57, 0
2, 48524, Note_on_c, 0, 63, 45
2, 48604, Note_on_c, 0, 63, 0
2, 48612, Note_on_c, 0, 69, 0
2, 48620, Note_on_c, 0, 72, 0
2, 48664, Note_on_c, 0, 75, 0
2, 48664, Note_on_c, 0, 66, 0
2, 48728, Note_on_c, 0, 78, 0
2, 48856, Note_on_c, 0, 79, 71
2, 48860, Note_on_c, 0, 67, 46
2, 48864, Note_on_c, 0, 70, 46
2, 48868, Note_on_c, 0, 75, 47
2, 48880, Note_on_c, 0, 46, 43
2, 48912, Control_c, 0, 64, 40
2, 48924, Control_c, 0, 64, 0
2, 49024, Note_on_c, 0, 46, 0
2, 49024, Control_c, 0, 64, 127
2, 49072, Note_on_c, 0, 70, 0
2, 49096, Note_on_c, 0, 67, 0
2, 49120, Note_on_c, 0, 75, 0
2, 49140, Note_on_c, 0, 79, 0
2, 49192, Note_on_c, 0, 58, 46
2, 49304, Note_on_c, 0, 87, 63
2, 49308, Note_on_c, 0, 91, 77
2, 49380, Note_on_c, 0, 91, 0
2, 49384, Note_on_c, 0, 87, 0
2, 49424, Note_on_c, 0, 89, 82
2, 49424, Note_on_c, 0, 86, 77
2, 49488, Note_on_c, 0, 86, 0
2, 49500, Note_on_c, 0, 89, 0
2, 49528, Note_on_c, 0, 58, 0
2, 49528, Note_on_c, 0, 82, 74
2, 49548, Note_on_c, 0, 63, 30
2, 49556, Note_on_c, 0, 55, 39
2, 49592, Note_on_c, 0, 82, 0
2, 49632, Note_on_c, 0, 87, 73
2, 49644, Note_on_c, 0, 84, 76
2, 49696, Note_on_c, 0, 84, 0
2, 49700, Note_on_c, 0, 87, 0
2, 49732, Note_on_c, 0, 86, 76
2, 49736, Note_on_c, 0, 82, 69
2, 49800, Note_on_c, 0, 82, 0
2, 49800, Note_on_c, 0, 86, 0
2, 49828, Note_on_c, 0, 79, 72
2, 49832, Note_on_c, 0, 58, 37
2, 49852, Note_on_c, 0, 55, 0
2, 49852, Note_on_c, 0, 63, 0
2, 49864, Note_on_c, 0, 58, 0
2, 49900, Note_on_c, 0, 79, 0
2, 49920, Note_on_c, 0, 80, 69
2, 49924, Note_on_c, 0, 84, 71
2, 49980, Note_on_c, 0, 84, 0
2, 49992, Note_on_c, 0, 80, 0
2, 50020, Note_on_c, 0, 82, 70
2, 50020, Note_on_c, 0, 79, 74
2, 50064, Note_on_c, 0, 79, 0
2, 50096, Note_on_c, 0, 82, 0
2, 50136, Note_on_c, 0, 75, 71
2, 50156, Note_on_c, 0, 34, 50
2, 50160, Control_c, 0, 64, 88
2, 50172, Control_c, 0, 64, 0
2, 50212, Control_c, 0, 64, 88
2, 50224, Control_c, 0, 64, 127
2, 50228, Note_on_c, 0, 75, 0
2, 50244, Note_on_c, 0, 80, 69
2, 50252, Note_on_c, 0, 34, 0
2, 50252, Note_on_c, 0, 77, 71
2, 50308, Note_on_c, 0, 80, 0
2, 50312, Note_on_c, 0, 77, 0
2, 50340, Note_on_c, 0, 79, 73
2, 50340, Note_on_c, 0, 75, 70
2, 50400, Note_on_c, 0, 75, 0
2, 50404, Note_on_c, 0, 79, 0
2, 50440, Note_on_c, 0, 72, 76
2, 50456, Note_on_c, 0, 58, 34
2, 50504, Note_on_c, 0, 72, 0
2, 50532, Note_on_c, 0, 74, 65
2, 50536, Note_on_c, 0, 77, 64
2, 50584, Note_on_c, 0, 77, 0
2, 50584, Note_on_c, 0, 74, 0
2, 50624, Note_on_c, 0, 75, 72
2, 50636, Note_on_c, 0, 72, 65
2, 50656, Note_on_c, 0, 72, 0
2, 50692, Note_on_c, 0, 75, 0
2, 50736, Note_on_c, 0, 58, 0
2, 50736, Note_on_c, 0, 68, 59
2, 50748, Note_on_c, 0, 65, 43
2, 50804, Note_on_c, 0, 68, 0
2, 50832, Note_on_c, 0, 74, 74
2, 50836, Note_on_c, 0, 70, 67
2, 50900, Note_on_c, 0, 70, 0
2, 50908, Note_on_c, 0, 74, 0
2, 50928, Note_on_c, 0, 72, 71
2, 51008, Note_on_c, 0, 72, 0
2, 51040, Note_on_c, 0, 70, 75
2, 51044, Note_on_c, 0, 67, 59
2, 51064, Note_on_c, 0, 67, 0
2, 51076, Note_on_c, 0, 58, 28
2, 51088, Note_on_c, 0, 65, 0
2, 51108, Note_on_c, 0, 70, 0
2, 51152, Note_on_c, 0, 58, 0
2, 51152, Note_on_c, 0, 72, 77
2, 51152, Note_on_c, 0, 66, 50
2, 51184, Note_on_c, 0, 69, 26
2, 51204, Note_on_c, 0, 69, 0
2, 51204, Note_on_c, 0, 66, 0
2, 51224, Note_on_c, 0, 72, 0
2, 51272, Note_on_c, 0, 74, 79
2, 51272, Note_on_c, 0, 65, 56
2, 51272, Note_on_c, 0, 68, 65
2, 51336, Note_on_c, 0, 68, 0
2, 51340, Note_on_c, 0, 65, 0
2, 51340, Note_on_c, 0, 74, 0
2, 51432, Note_on_c, 0, 75, 77
2, 51436, Note_on_c, 0, 63, 47
2, 51448, Note_on_c, 0, 67, 53
2, 51460, Control_c, 0, 64, 104
2, 51468, Note_on_c, 0, 39, 36
2, 51472, Control_c, 0, 64, 0
2, 51544, Control_c, 0, 64, 56
2, 51556, Control_c, 0, 64, 127
2, 51564, Note_on_c, 0, 39, 0
2, 51712, Note_on_c, 0, 63, 0
2, 51744, Note_on_c, 0, 51, 47
2, 51780, Note_on_c, 0, 67, 0
2, 51960, Note_on_c, 0, 51, 0
2, 52012, Note_on_c, 0, 64, 48
2, 52016, Note_on_c, 0, 75, 0
2, 52020, Note_on_c, 0, 56, 48
2, 52024, Note_on_c, 0, 59, 47
2, 52048, Control_c, 0, 64, 72
2, 52060, Control_c, 0, 64, 0
2, 52072, Control_c, 0, 64, 24
2, 52080, Control_c, 0, 64, 88
2, 52092, Control_c, 0, 64, 127
2, 52172, Note_on_c, 0, 76, 75
2, 52260, Note_on_c, 0, 80, 83
2, 52276, Note_on_c, 0, 56, 0
2, 52288, Note_on_c, 0, 51, 38
2, 52308, Note_on_c, 0, 59, 0
2, 52336, Note_on_c, 0, 80, 0
2, 52360, Note_on_c, 0, 83, 86
2, 52380, Note_on_c, 0, 51, 0
2, 52388, Note_on_c, 0, 64, 0
2, 52424, Note_on_c, 0, 76, 0
2, 52432, Note_on_c, 0, 83, 0
2, 52448, Note_on_c, 0, 88, 87
2, 52452, Note_on_c, 0, 76, 24
2, 52516, Note_on_c, 0, 76, 0
2, 52532, Note_on_c, 0, 88, 0
2, 52536, Note_on_c, 0, 87, 85
2, 52636, Note_on_c, 0, 86, 94
2, 52640, Control_c, 0, 64, 0
2, 52644, Note_on_c, 0, 87, 0
2, 52644, Note_on_c, 0, 65, 47
2, 52644, Note_on_c, 0, 56, 42
2, 52652, Note_on_c, 0, 59, 47
2, 52672, Control_c, 0, 64, 72
2, 52680, Control_c, 0, 64, 127
2, 52692, Note_on_c, 0, 86, 0
2, 52724, Note_on_c, 0, 65, 0
2, 52796, Note_on_c, 0, 101, 81
2, 52804, Note_on_c, 0, 56, 0
2, 52852, Note_on_c, 0, 101, 0
2, 52880, Note_on_c, 0, 98, 88
2, 52916, Note_on_c, 0, 51, 48
2, 52964, Note_on_c, 0, 98, 0
2, 52972, Note_on_c, 0, 95, 92
2, 52984, Note_on_c, 0, 51, 0
2, 53000, Note_on_c, 0, 59, 0
2, 53064, Note_on_c, 0, 92, 93
2, 53068, Note_on_c, 0, 95, 0
2, 53164, Note_on_c, 0, 89, 92
2, 53172, Note_on_c, 0, 92, 0
2, 53216, Note_on_c, 0, 89, 0
2, 53256, Note_on_c, 0, 68, 43
2, 53264, Note_on_c, 0, 59, 37
2, 53264, Note_on_c, 0, 62, 47
2, 53272, Note_on_c, 0, 86, 84
2, 53332, Note_on_c, 0, 62, 0
2, 53336, Note_on_c, 0, 86, 0
2, 53340, Note_on_c, 0, 68, 0
2, 53356, Note_on_c, 0, 59, 0
2, 53376, Note_on_c, 0, 83, 82
2, 53448, Note_on_c, 0, 83, 0
2, 53468, Note_on_c, 0, 80, 71
2, 53564, Note_on_c, 0, 80, 0
2, 53572, Note_on_c, 0, 77, 82
2, 53604, Note_on_c, 0, 51, 38
2, 53632, Note_on_c, 0, 77, 0
2, 53676, Note_on_c, 0, 74, 79
2, 53680, Note_on_c, 0, 51, 0
2, 53732, Note_on_c, 0, 74, 0
2, 53768, Note_on_c, 0, 79, 80
2, 53848, Note_on_c, 0, 79, 0
2, 53908, Note_on_c, 0, 77, 82
2, 53928, Control_c, 0, 64, 56
2, 53932, Note_on_c, 0, 67, 42
2, 53936, Note_on_c, 0, 58, 34
2, 53940, Note_on_c, 0, 63, 33
2, 53940, Control_c, 0, 64, 0
2, 53992, Control_c, 0, 64, 127
2, 54028, Note_on_c, 0, 75, 77
2, 54032, Note_on_c, 0, 67, 0
2, 54044, Note_on_c, 0, 63, 0
2, 54044, Note_on_c, 0, 77, 0
2, 54044, Note_on_c, 0, 58, 0
2, 54072, Note_on_c, 0, 75, 0
2, 54144, Note_on_c, 0, 79, 74
2, 54224, Note_on_c, 0, 51, 42
2, 54236, Note_on_c, 0, 82, 71
2, 54288, Note_on_c, 0, 51, 0
2, 54324, Note_on_c, 0, 82, 0
2, 54332, Note_on_c, 0, 87, 76
2, 54416, Note_on_c, 0, 79, 0
2, 54428, Note_on_c, 0, 91, 85
2, 54432, Note_on_c, 0, 87, 0
2, 54476, Note_on_c, 0, 91, 0
2, 54540, Control_c, 0, 64, 88
2, 54548, Control_c, 0, 64, 0
2, 54552, Note_on_c, 0, 78, 73
2, 54556, Note_on_c, 0, 69, 44
2, 54560, Note_on_c, 0, 63, 43
2, 54568, Control_c, 0, 64, 40
2, 54572, Note_on_c, 0, 60, 34
2, 54580, Control_c, 0, 64, 127
2, 54624, Note_on_c, 0, 69, 0
2, 54628, Note_on_c, 0, 60, 0
2, 54636, Note_on_c, 0, 63, 0
2, 54640, Note_on_c, 0, 78, 0
2, 54652, Note_on_c, 0, 77, 76
2, 54744, Note_on_c, 0, 77, 0
2, 54764, Note_on_c, 0, 81, 77
2, 54840, Note_on_c, 0, 81, 0
2, 54864, Note_on_c, 0, 84, 79
2, 54900, Note_on_c, 0, 51, 43
2, 54936, Note_on_c, 0, 84, 0
2, 54964, Note_on_c, 0, 89, 85
2, 54988, Note_on_c, 0, 51, 0
2, 55040, Note_on_c, 0, 89, 0
2, 55068, Note_on_c, 0, 93, 92
2, 55112, Note_on_c, 0, 93, 0
2, 55200, Note_on_c, 0, 78, 75
2, 55212, Note_on_c, 0, 70, 44
2, 55220, Note_on_c, 0, 65, 47
2, 55220, Control_c, 0, 64, 104
2, 55224, Note_on_c, 0, 61, 38
2, 55232, Control_c, 0, 64, 0
2, 55280, Control_c, 0, 64, 127
2, 55316, Note_on_c, 0, 78, 0
2, 55320, Note_on_c, 0, 70, 0
2, 55320, Note_on_c, 0, 65, 0
2, 55324, Note_on_c, 0, 77, 89
2, 55340, Note_on_c, 0, 61, 0
2, 55424, Note_on_c, 0, 77, 0
2, 55424, Note_on_c, 0, 82, 73
2, 55524, Note_on_c, 0, 51, 40
2, 55528, Note_on_c, 0, 85, 74
2, 55536, Note_on_c, 0, 82, 0
2, 55576, Note_on_c, 0, 85, 0
2, 55600, Note_on_c, 0, 51, 0
2, 55644, Note_on_c, 0, 89, 85
2, 55696, Note_on_c, 0, 89, 0
2, 55744, Note_on_c, 0, 94, 89
2, 55868, Note_on_c, 0, 94, 0
2, 55872, Note_on_c, 0, 92, 92
2, 55880, Note_on_c, 0, 70, 35
2, 55880, Note_on_c, 0, 62, 45
2, 55888, Note_on_c, 0, 68, 36
2, 55888, Control_c, 0, 64, 104
2, 55904, Control_c, 0, 64, 0
2, 55952, Control_c, 0, 64, 127
2, 55972, Note_on_c, 0, 89, 84
2, 55988, Note_on_c, 0, 70, 0
2, 55992, Note_on_c, 0, 68, 0
2, 55992, Note_on_c, 0, 62, 0
2, 56004, Note_on_c, 0, 92, 0
2, 56080, Note_on_c, 0, 89, 0
2, 56084, Note_on_c, 0, 86, 78
2, 56128, Note_on_c, 0, 86, 0
2, 56188, Note_on_c, 0, 82, 80
2, 56192, Note_on_c, 0, 51, 37
2, 56268, Note_on_c, 0, 51, 0
2, 56280, Note_on_c, 0, 82, 0
2, 56296, Note_on_c, 0, 80, 69
2, 56388, Note_on_c, 0, 80, 0
2, 56400, Note_on_c, 0, 77, 83
2, 56436, Note_on_c, 0, 51, 53
2, 56440, Control_c, 0, 64, 40
2, 56448, Control_c, 0, 64, 0
2, 56480, Control_c, 0, 64, 104
2, 56484, Note_on_c, 0, 77, 0
2, 56492, Control_c, 0, 64, 127
2, 56496, Note_on_c, 0, 51, 0
2, 56500, Note_on_c, 0, 58, 38
2, 56556, Note_on_c, 0, 63, 25
2, 56564, Note_on_c, 0, 79, 82
2, 56588, Note_on_c, 0, 67, 38
2, 56596, Note_on_c, 0, 58, 0
2, 56616, Note_on_c, 0, 63, 0
2, 56624, Note_on_c, 0, 67, 0
2, 56656, Note_on_c, 0, 79, 0
2, 56692, Note_on_c, 0, 70, 77
2, 56808, Note_on_c, 0, 75, 74
2, 56812, Note_on_c, 0, 70, 0
2, 56904, Note_on_c, 0, 75, 0
2, 56912, Note_on_c, 0, 67, 80
2, 56960, Note_on_c, 0, 67, 0
2, 57036, Note_on_c, 0, 63, 65
2, 57092, Note_on_c, 0, 63, 0
2, 57120, Note_on_c, 0, 58, 77
2, 57208, Note_on_c, 0, 58, 0
2, 57232, Note_on_c, 0, 67, 81
2, 57308, Note_on_c, 0, 67, 0
2, 57340, Note_on_c, 0, 58, 73
2, 57444, Note_on_c, 0, 63, 71
2, 57468, Note_on_c, 0, 58, 0
2, 57548, Note_on_c, 0, 63, 0
2, 57548, Note_on_c, 0, 55, 82
2, 57604, Note_on_c, 0, 55, 0
2, 57664, Note_on_c, 0, 51, 80
2, 57764, Note_on_c, 0, 51, 0
2, 57772, Note_on_c, 0, 39, 80
2, 57832, Note_on_c, 0, 39, 0
2, 57892, Note_on_c, 0, 34, 78
2, 57972, Control_c, 0, 64, 56
2, 57984, Control_c, 0, 64, 0
2, 58036, Note_on_c, 0, 49, 71
2, 58056, Control_c, 0, 64, 104
2, 58064, Control_c, 0, 64, 127
2, 58148, Note_on_c, 0, 53, 77
2, 58212, Note_on_c, 0, 49, 0
2, 58228, Note_on_c, 0, 34, 0
2, 58260, Note_on_c, 0, 53, 64
2, 58272, Note_on_c, 0, 65, 79
2, 58300, Note_on_c, 0, 53, 0
2, 58300, Note_on_c, 0, 53, 0
2, 58376, Note_on_c, 0, 58, 73
2, 58400, Note_on_c, 0, 65, 0
2, 58508, Note_on_c, 0, 58, 0
2, 58516, Note_on_c, 0, 61, 76
2, 58584, Note_on_c, 0, 61, 0
2, 58624, Note_on_c, 0, 65, 79
2, 58628, Control_c, 0, 64, 104
2, 58640, Control_c, 0, 64, 56
2, 58648, Control_c, 0, 64, 0
2, 58692, Control_c, 0, 64, 88
2, 58704, Control_c, 0, 64, 127
2, 58744, Note_on_c, 0, 77, 83
2, 58852, Note_on_c, 0, 70, 83
2, 58884, Note_on_c, 0, 65, 0
2, 58900, Note_on_c, 0, 77, 0
2, 58996, Note_on_c, 0, 73, 84
2, 59020, Note_on_c, 0, 70, 0
2, 59060, Note_on_c, 0, 73, 0
2, 59128, Note_on_c, 0, 77, 87
2, 59272, Note_on_c, 0, 89, 91
2, 59304, Note_on_c, 0, 89, 0
2, 59304, Note_on_c, 0, 77, 0
2, 59504, Note_on_c, 0, 63, 90
2, 59508, Note_on_c, 0, 51, 84
2, 59516, Note_on_c, 0, 61, 71
2, 59520, Note_on_c, 0, 58, 69
2, 59536, Control_c, 0, 64, 88
2, 59540, Note_on_c, 0, 43, 67
2, 59548, Note_on_c, 0, 31, 69
2, 59548, Control_c, 0, 64, 0
2, 59636, Control_c, 0, 64, 88
2, 59644, Control_c, 0, 64, 127
2, 59692, Note_on_c, 0, 51, 0
2, 59708, Note_on_c, 0, 58, 0
2, 59712, Note_on_c, 0, 31, 0
2, 59728, Note_on_c, 0, 61, 0
2, 59728, Note_on_c, 0, 43, 0
2, 59736, Note_on_c, 0, 63, 0
2, 60028, Note_on_c, 0, 75, 97
2, 60032, Note_on_c, 0, 63, 86
2, 60036, Note_on_c, 0, 73, 74
2, 60036, Note_on_c, 0, 70, 72
2, 60036, Note_on_c, 0, 67, 74
2, 60040, Note_on_c, 0, 51, 68
2, 60044, Note_on_c, 0, 55, 69
2, 60044, Note_on_c, 0, 46, 68
2, 60052, Note_on_c, 0, 43, 71
2, 60180, Control_c, 0, 64, 56
2, 60188, Control_c, 0, 64, 0
2, 60244, Control_c, 0, 64, 56
2, 60252, Control_c, 0, 64, 127
2, 60352, Note_on_c, 0, 43, 0
2, 60384, Note_on_c, 0, 55, 0
2, 60400, Note_on_c, 0, 46, 0
2, 60412, Note_on_c, 0, 51, 0
2, 60508, Note_on_c, 0, 73, 0
2, 60520, Note_on_c, 0, 70, 0
2, 60528, Note_on_c, 0, 67, 0
2, 60536, Note_on_c, 0, 75, 0
2, 60552, Note_on_c, 0, 63, 0
2, 60708, Note_on_c, 0, 62, 68
2, 60820, Note_on_c, 0, 63, 76
2, 60836, Note_on_c, 0, 62, 0
2, 60916, Note_on_c, 0, 63, 0
2, 60928, Note_on_c, 0, 65, 75
2, 61032, Note_on_c, 0, 63, 75
2, 61036, Note_on_c, 0, 65, 0
2, 61076, Control_c, 0, 64, 72
2, 61088, Control_c, 0, 64, 56
2, 61100, Control_c, 0, 64, 88
2, 61108, Control_c, 0, 64, 127
2, 61128, Note_on_c, 0, 63, 0
2, 61132, Note_on_c, 0, 65, 62
2, 61192, Note_on_c, 0, 65, 0
2, 61200, Note_on_c, 0, 63, 60
2, 61244, Note_on_c, 0, 63, 0
2, 61252, Note_on_c, 0, 65, 55
2, 61300, Note_on_c, 0, 65, 0
2, 61304, Note_on_c, 0, 63, 59
2, 61348, Note_on_c, 0, 63, 0
2, 61348, Note_on_c, 0, 65, 56
2, 61396, Note_on_c, 0, 65, 0
2, 61400, Note_on_c, 0, 63, 54
2, 61440, Note_on_c, 0, 63, 0
2, 61440, Note_on_c, 0, 65, 55
2, 61484, Note_on_c, 0, 63, 54
2, 61488, Note_on_c, 0, 65, 0
2, 61528, Note_on_c, 0, 63, 0
2, 61528, Note_on_c, 0, 65, 62
2, 61576, Note_on_c, 0, 65, 0
2, 61584, Note_on_c, 0, 63, 59
2, 61616, Note_on_c, 0, 65, 62
2, 61620, Note_on_c, 0, 63, 0
2, 61664, Note_on_c, 0, 65, 0
2, 61668, Note_on_c, 0, 63, 60
2, 61708, Note_on_c, 0, 65, 58
2, 61712, Note_on_c, 0, 63, 0
2, 61752, Note_on_c, 0, 63, 58
2, 61756, Note_on_c, 0, 65, 0
2, 61800, Note_on_c, 0, 63, 0
2, 61800, Note_on_c, 0, 65, 61
2, 61844, Note_on_c, 0, 65, 0
2, 61852, Note_on_c, 0, 63, 56
2, 61892, Note_on_c, 0, 63, 0
2, 61900, Note_on_c, 0, 65, 60
2, 61964, Note_on_c, 0, 63, 46
2, 61980, Note_on_c, 0, 65, 0
2, 62044, Note_on_c, 0, 63, 0
2, 62052, Note_on_c, 0, 62, 68
2, 62120, Note_on_c, 0, 62, 0
2, 62128, Note_on_c, 0, 63, 62
2, 62188, Note_on_c, 0, 63, 0
2, 62212, Note_on_c, 0, 65, 70
2, 62288, Note_on_c, 0, 65, 0
2, 62292, Note_on_c, 0, 67, 64
2, 62356, Note_on_c, 0, 68, 61
2, 62372, Note_on_c, 0, 67, 0
2, 62428, Note_on_c, 0, 70, 69
2, 62444, Note_on_c, 0, 68, 0
2, 62456, Note_on_c, 0, 70, 0
2, 62520, Note_on_c, 0, 72, 72
2, 62564, Control_c, 0, 64, 88
2, 62568, Note_on_c, 0, 44, 37
2, 62576, Control_c, 0, 64, 0
2, 62580, Note_on_c, 0, 32, 38
2, 62612, Note_on_c, 0, 75, 67
2, 62624, Note_on_c, 0, 72, 0
2, 62640, Control_c, 0, 64, 127
2, 62656, Note_on_c, 0, 32, 0
2, 62688, Note_on_c, 0, 44, 0
2, 62712, Note_on_c, 0, 75, 0
2, 62712, Note_on_c, 0, 80, 67
2, 62764, Note_on_c, 0, 80, 0
2, 62808, Note_on_c, 0, 87, 83
2, 62944, Note_on_c, 0, 51, 39
2, 63124, Note_on_c, 0, 51, 0
2, 63200, Note_on_c, 0, 63, 27
2, 63204, Note_on_c, 0, 56, 42
2, 63216, Note_on_c, 0, 60, 41
2, 63516, Note_on_c, 0, 51, 46
2, 63564, Note_on_c, 0, 56, 0
2, 63584, Note_on_c, 0, 51, 0
2, 63596, Note_on_c, 0, 60, 0
2, 63612, Note_on_c, 0, 63, 0
2, 63724, Note_on_c, 0, 87, 0
2, 63784, Note_on_c, 0, 68, 42
2, 63796, Note_on_c, 0, 60, 39
2, 63796, Note_on_c, 0, 56, 32
2, 63872, Note_on_c, 0, 89, 74
2, 63924, Note_on_c, 0, 68, 0
2, 63936, Note_on_c, 0, 87, 69
2, 63944, Note_on_c, 0, 89, 0
2, 63964, Note_on_c, 0, 60, 0
2, 63976, Note_on_c, 0, 56, 0
2, 63984, Note_on_c, 0, 87, 0
2, 64000, Note_on_c, 0, 86, 71
2, 64056, Note_on_c, 0, 86, 0
2, 64056, Note_on_c, 0, 87, 71
2, 64100, Note_on_c, 0, 87, 0
2, 64120, Note_on_c, 0, 89, 77
2, 64148, Note_on_c, 0, 51, 48
2, 64176, Note_on_c, 0, 89, 0
2, 64180, Note_on_c, 0, 91, 74
2, 64224, Note_on_c, 0, 51, 0
2, 64228, Note_on_c, 0, 91, 0
2, 64236, Note_on_c, 0, 92, 77
2, 64292, Note_on_c, 0, 92, 0
2, 64292, Note_on_c, 0, 94, 73
2, 64352, Note_on_c, 0, 94, 0
2, 64352, Note_on_c, 0, 96, 75
2, 64408, Note_on_c, 0, 96, 0
2, 64408, Note_on_c, 0, 91, 78
2, 64456, Note_on_c, 0, 91, 0
2, 64456, Note_on_c, 0, 94, 73
2, 64512, Note_on_c, 0, 92, 85
2, 64528, Note_on_c, 0, 94, 0
2, 64540, Note_on_c, 0, 56, 40
2, 64540, Note_on_c, 0, 60, 38
2, 64540, Note_on_c, 0, 63, 40
2, 64568, Note_on_c, 0, 91, 82
2, 64580, Note_on_c, 0, 92, 0
2, 64600, Note_on_c, 0, 63, 0
2, 64600, Note_on_c, 0, 56, 0
2, 64600, Note_on_c, 0, 60, 0
2, 64620, Note_on_c, 0, 91, 0
2, 64628, Note_on_c, 0, 89, 82
2, 64672, Note_on_c, 0, 89, 0
2, 64684, Note_on_c, 0, 87, 68
2, 64748, Note_on_c, 0, 87, 0
2, 64748, Note_on_c, 0, 85, 69
2, 64804, Note_on_c, 0, 85, 0
2, 64804, Note_on_c, 0, 84, 78
2, 64864, Note_on_c, 0, 84, 0
2, 64864, Note_on_c, 0, 85, 72
2, 64920, Note_on_c, 0, 85, 0
2, 64920, Note_on_c, 0, 84, 76
2, 64976, Note_on_c, 0, 84, 0
2, 64984, Note_on_c, 0, 82, 75
2, 65028, Note_on_c, 0, 82, 0
2, 65040, Note_on_c, 0, 84, 82
2, 65044, Note_on_c, 0, 51, 47
2, 65092, Note_on_c, 0, 84, 0
2, 65092, Note_on_c, 0, 85, 71
2, 65104, Note_on_c, 0, 51, 0
2, 65152, Note_on_c, 0, 85, 0
2, 65156, Note_on_c, 0, 87, 72
2, 65232, Note_on_c, 0, 91, 76
2, 65252, Note_on_c, 0, 87, 0
2, 65292, Note_on_c, 0, 91, 0
2, 65308, Note_on_c, 0, 89, 77
2, 65372, Note_on_c, 0, 89, 0
2, 65380, Note_on_c, 0, 87, 71
2, 65448, Note_on_c, 0, 87, 0
2, 65456, Note_on_c, 0, 85, 72
2, 65524, Note_on_c, 0, 85, 0
2, 65536, Note_on_c, 0, 84, 75
2, 65660, Note_on_c, 0, 84, 0
2, 65664, Note_on_c, 0, 82, 65
2, 65688, Note_on_c, 0, 29, 46
2, 65692, Control_c, 0, 64, 88
2, 65696, Control_c, 0, 64, 24
2, 65704, Control_c, 0, 64, 0
2, 65744, Control_c, 0, 64, 56
2, 65744, Control_c, 0, 64, 127
2, 65752, Control_c, 0, 64, 127
2, 65780, Note_on_c, 0, 29, 0
2, 65996, Note_on_c, 0, 48, 45
2, 66004, Control_c, 0, 64, 40
2, 66016, Control_c, 0, 64, 88
2, 66024, Control_c, 0, 64, 127
2, 66168, Note_on_c, 0, 82, 0
2, 66292, Note_on_c, 0, 48, 0
2, 66308, Note_on_c, 0, 80, 71
2, 66320, Note_on_c, 0, 56, 34
2, 66324, Note_on_c, 0, 60, 41
2, 66336, Note_on_c, 0, 53, 33
2, 66604, Note_on_c, 0, 48, 45
2, 66648, Note_on_c, 0, 53, 0
2, 66668, Note_on_c, 0, 48, 0
2, 66680, Note_on_c, 0, 80, 0
2, 66704, Note_on_c, 0, 56, 0
2, 66708, Note_on_c, 0, 60, 0
2, 66764, Note_on_c, 0, 80, 68
2, 66840, Note_on_c, 0, 80, 0
2, 66912, Note_on_c, 0, 80, 73
2, 66912, Note_on_c, 0, 56, 32
2, 66916, Note_on_c, 0, 65, 54
2, 66924, Note_on_c, 0, 53, 44
2, 67012, Note_on_c, 0, 65, 0
2, 67012, Note_on_c, 0, 80, 0
2, 67016, Note_on_c, 0, 82, 65
2, 67032, Note_on_c, 0, 53, 0
2, 67048, Note_on_c, 0, 56, 0
2, 67072, Note_on_c, 0, 82, 0
2, 67084, Note_on_c, 0, 80, 62
2, 67128, Note_on_c, 0, 80, 0
2, 67136, Note_on_c, 0, 82, 64
2, 67180, Note_on_c, 0, 82, 0
2, 67184, Note_on_c, 0, 80, 65
2, 67196, Note_on_c, 0, 48, 45
2, 67220, Note_on_c, 0, 80, 0
2, 67228, Note_on_c, 0, 82, 54
2, 67272, Note_on_c, 0, 82, 0
2, 67276, Note_on_c, 0, 80, 65
2, 67316, Note_on_c, 0, 80, 0
2, 67324, Note_on_c, 0, 82, 54
2, 67376, Note_on_c, 0, 82, 0
2, 67376, Note_on_c, 0, 80, 65
2, 67412, Note_on_c, 0, 80, 0
2, 67420, Note_on_c, 0, 82, 54
2, 67448, Note_on_c, 0, 48, 0
2, 67464, Note_on_c, 0, 53, 43
2, 67468, Note_on_c, 0, 56, 25
2, 67476, Note_on_c, 0, 82, 0
2, 67476, Note_on_c, 0, 60, 28
2, 67484, Note_on_c, 0, 80, 60
2, 67512, Note_on_c, 0, 80, 0
2, 67516, Note_on_c, 0, 82, 59
2, 67568, Note_on_c, 0, 82, 0
2, 67580, Note_on_c, 0, 80, 59
2, 67612, Note_on_c, 0, 80, 0
2, 67616, Note_on_c, 0, 82, 58
2, 67660, Note_on_c, 0, 82, 0
2, 67668, Note_on_c, 0, 80, 58
2, 67692, Note_on_c, 0, 80, 0
2, 67716, Note_on_c, 0, 82, 57
2, 67748, Note_on_c, 0, 48, 48
2, 67780, Note_on_c, 0, 82, 0
2, 67780, Note_on_c, 0, 80, 58
2, 67796, Note_on_c, 0, 60, 0
2, 67844, Note_on_c, 0, 56, 0
2, 67852, Note_on_c, 0, 53, 0
2, 67852, Note_on_c, 0, 79, 67
2, 67856, Note_on_c, 0, 48, 0
2, 67868, Note_on_c, 0, 80, 0
2, 67916, Note_on_c, 0, 79, 0
2, 67932, Note_on_c, 0, 80, 71
2, 68004, Note_on_c, 0, 80, 0
2, 68016, Note_on_c, 0, 82, 70
2, 68100, Note_on_c, 0, 84, 79
2, 68120, Note_on_c, 0, 82, 0
2, 68164, Note_on_c, 0, 84, 0
2, 68200, Note_on_c, 0, 73, 60
2, 68212, Control_c, 0, 64, 72
2, 68224, Note_on_c, 0, 34, 40
2, 68224, Control_c, 0, 64, 0
2, 68260, Note_on_c, 0, 77, 77
2, 68300, Control_c, 0, 64, 72
2, 68312, Control_c, 0, 64, 127
2, 68320, Note_on_c, 0, 85, 86
2, 68328, Note_on_c, 0, 34, 0
2, 68356, Note_on_c, 0, 77, 0
2, 68400, Note_on_c, 0, 73, 0
2, 68500, Note_on_c, 0, 85, 0
2, 68588, Note_on_c, 0, 53, 55
2, 68660, Note_on_c, 0, 65, 63
2, 68684, Note_on_c, 0, 65, 0
2, 68740, Note_on_c, 0, 65, 66
2, 68788, Note_on_c, 0, 73, 67
2, 68812, Note_on_c, 0, 65, 0
2, 68852, Note_on_c, 0, 77, 75
2, 68856, Note_on_c, 0, 73, 0
2, 68868, Note_on_c, 0, 77, 0
2, 68876, Note_on_c, 0, 53, 0
2, 68912, Note_on_c, 0, 61, 30
2, 68920, Note_on_c, 0, 58, 32
2, 68936, Note_on_c, 0, 85, 89
2, 69020, Note_on_c, 0, 85, 0
2, 69204, Note_on_c, 0, 85, 87
2, 69208, Note_on_c, 0, 53, 38
2, 69224, Note_on_c, 0, 61, 0
2, 69236, Note_on_c, 0, 58, 0
2, 69240, Note_on_c, 0, 53, 0
2, 69272, Note_on_c, 0, 85, 0
2, 69376, Note_on_c, 0, 85, 86
2, 69428, Note_on_c, 0, 85, 0
2, 69428, Note_on_c, 0, 69, 75
2, 69452, Control_c, 0, 64, 56
2, 69460, Control_c, 0, 64, 0
2, 69480, Note_on_c, 0, 75, 62
2, 69484, Note_on_c, 0, 69, 0
2, 69484, Note_on_c, 0, 34, 49
2, 69512, Note_on_c, 0, 78, 65
2, 69516, Control_c, 0, 64, 88
2, 69524, Control_c, 0, 64, 127
2, 69532, Note_on_c, 0, 75, 0
2, 69548, Note_on_c, 0, 34, 0
2, 69556, Note_on_c, 0, 78, 0
2, 69576, Note_on_c, 0, 84, 87
2, 69616, Note_on_c, 0, 84, 0
2, 69656, Note_on_c, 0, 85, 65
2, 69720, Note_on_c, 0, 85, 0
2, 69724, Note_on_c, 0, 84, 76
2, 69788, Note_on_c, 0, 84, 0
2, 69788, Note_on_c, 0, 83, 74
2, 69836, Note_on_c, 0, 83, 0
2, 69848, Note_on_c, 0, 84, 81
2, 69908, Note_on_c, 0, 85, 79
2, 69920, Note_on_c, 0, 84, 0
2, 69972, Note_on_c, 0, 87, 79
2, 69976, Note_on_c, 0, 85, 0
2, 69988, Note_on_c, 0, 54, 47
2, 70032, Note_on_c, 0, 89, 83
2, 70048, Note_on_c, 0, 54, 0
2, 70052, Note_on_c, 0, 87, 0
2, 70108, Note_on_c, 0, 92, 81
2, 70112, Note_on_c, 0, 89, 0
2, 70172, Note_on_c, 0, 92, 0
2, 70172, Note_on_c, 0, 90, 76
2, 70232, Note_on_c, 0, 90, 0
2, 70236, Note_on_c, 0, 87, 76
2, 70292, Note_on_c, 0, 87, 0
2, 70292, Note_on_c, 0, 84, 76
2, 70348, Note_on_c, 0, 84, 0
2, 70356, Note_on_c, 0, 81, 69
2, 70372, Note_on_c, 0, 66, 53
2, 70372, Note_on_c, 0, 63, 50
2, 70372, Note_on_c, 0, 57, 50
2, 70416, Note_on_c, 0, 78, 67
2, 70420, Note_on_c, 0, 81, 0
2, 70432, Note_on_c, 0, 57, 0
2, 70432, Note_on_c, 0, 66, 0
2, 70432, Note_on_c, 0, 63, 0
2, 70488, Note_on_c, 0, 75, 65
2, 70504, Note_on_c, 0, 78, 0
2, 70548, Note_on_c, 0, 75, 0
2, 70552, Note_on_c, 0, 72, 74
2, 70604, Note_on_c, 0, 72, 0
2, 70616, Note_on_c, 0, 69, 71
2, 70676, Note_on_c, 0, 69, 0
2, 70684, Note_on_c, 0, 70, 64
2, 70732, Note_on_c, 0, 70, 0
2, 70744, Note_on_c, 0, 69, 72
2, 70796, Note_on_c, 0, 69, 0
2, 70808, Note_on_c, 0, 68, 59
2, 70824, Note_on_c, 0, 54, 50
2, 70864, Note_on_c, 0, 68, 0
2, 70868, Note_on_c, 0, 69, 66
2, 70884, Note_on_c, 0, 54, 0
2, 70900, Control_c, 0, 64, 104
2, 70904, Control_c, 0, 64, 72
2, 70928, Control_c, 0, 64, 127
2, 70932, Note_on_c, 0, 69, 0
2, 70932, Note_on_c, 0, 70, 71
2, 70984, Note_on_c, 0, 70, 0
2, 70996, Note_on_c, 0, 71, 73
2, 71060, Note_on_c, 0, 71, 0
2, 71068, Note_on_c, 0, 72, 73
2, 71068, Control_c, 0, 64, 88
2, 71076, Control_c, 0, 64, 0
2, 71096, Control_c, 0, 64, 40
2, 71104, Control_c, 0, 64, 127
2, 71148, Control_c, 0, 64, 104
2, 71152, Note_on_c, 0, 72, 0
2, 71152, Note_on_c, 0, 75, 65
2, 71156, Control_c, 0, 64, 0
2, 71184, Control_c, 0, 64, 72
2, 71192, Control_c, 0, 64, 127
2, 71236, Control_c, 0, 64, 104
2, 71240, Note_on_c, 0, 73, 57
2, 71244, Control_c, 0, 64, 24
2, 71252, Control_c, 0, 64, 0
2, 71256, Note_on_c, 0, 75, 0
2, 71280, Control_c, 0, 64, 72
2, 71288, Control_c, 0, 64, 127
2, 71324, Note_on_c, 0, 73, 0
2, 71324, Note_on_c, 0, 72, 71
2, 71332, Control_c, 0, 64, 104
2, 71340, Control_c, 0, 64, 24
2, 71348, Control_c, 0, 64, 0
2, 71364, Control_c, 0, 64, 24
2, 71368, Control_c, 0, 64, 88
2, 71376, Control_c, 0, 64, 127
2, 71408, Note_on_c, 0, 72, 0
2, 71412, Note_on_c, 0, 72, 69
2, 71428, Note_on_c, 0, 46, 50
2, 71428, Control_c, 0, 64, 40
2, 71440, Control_c, 0, 64, 88
2, 71448, Control_c, 0, 64, 127
2, 71556, Note_on_c, 0, 46, 0
2, 71756, Note_on_c, 0, 53, 40
2, 71988, Note_on_c, 0, 53, 0
2, 72036, Note_on_c, 0, 58, 38
2, 72048, Note_on_c, 0, 65, 39
2, 72052, Note_on_c, 0, 61, 41
2, 72292, Note_on_c, 0, 70, 57
2, 72308, Note_on_c, 0, 65, 0
2, 72308, Note_on_c, 0, 72, 0
2, 72312, Note_on_c, 0, 53, 41
2, 72376, Note_on_c, 0, 61, 0
2, 72384, Note_on_c, 0, 58, 0
2, 72396, Note_on_c, 0, 53, 0
2, 72440, Note_on_c, 0, 67, 61
2, 72452, Note_on_c, 0, 70, 0
2, 72504, Note_on_c, 0, 67, 0
2, 72512, Note_on_c, 0, 68, 62
2, 72580, Note_on_c, 0, 68, 0
2, 72580, Note_on_c, 0, 70, 63
2, 72624, Note_on_c, 0, 40, 45
2, 72624, Control_c, 0, 64, 104
2, 72636, Control_c, 0, 64, 56
2, 72640, Note_on_c, 0, 68, 69
2, 72648, Note_on_c, 0, 70, 0
2, 72648, Control_c, 0, 64, 0
2, 72704, Note_on_c, 0, 68, 0
2, 72712, Note_on_c, 0, 70, 72
2, 72720, Control_c, 0, 64, 72
2, 72736, Control_c, 0, 64, 127
2, 72740, Note_on_c, 0, 40, 0
2, 72764, Note_on_c, 0, 70, 0
2, 72764, Note_on_c, 0, 68, 59
2, 72812, Note_on_c, 0, 70, 59
2, 72820, Note_on_c, 0, 68, 0
2, 72868, Note_on_c, 0, 70, 0
2, 72872, Note_on_c, 0, 68, 53
2, 72912, Note_on_c, 0, 70, 54
2, 72916, Note_on_c, 0, 68, 0
2, 72944, Note_on_c, 0, 52, 51
2, 72968, Note_on_c, 0, 70, 0
2, 72976, Note_on_c, 0, 68, 55
2, 73012, Note_on_c, 0, 70, 56
2, 73020, Note_on_c, 0, 68, 0
2, 73068, Note_on_c, 0, 70, 0
2, 73068, Note_on_c, 0, 68, 51
2, 73112, Note_on_c, 0, 70, 61
2, 73116, Note_on_c, 0, 68, 0
2, 73164, Note_on_c, 0, 70, 0
2, 73172, Note_on_c, 0, 68, 56
2, 73208, Note_on_c, 0, 70, 51
2, 73212, Note_on_c, 0, 68, 0
2, 73212, Note_on_c, 0, 61, 38
2, 73220, Note_on_c, 0, 52, 0
2, 73228, Note_on_c, 0, 56, 37
2, 73248, Note_on_c, 0, 70, 0
2, 73260, Note_on_c, 0, 68, 33
2, 73284, Note_on_c, 0, 68, 0
2, 73284, Note_on_c, 0, 70, 53
2, 73320, Note_on_c, 0, 68, 56
2, 73344, Note_on_c, 0, 70, 0
2, 73380, Note_on_c, 0, 68, 0
2, 73388, Note_on_c, 0, 67, 68
2, 73452, Note_on_c, 0, 68, 65
2, 73460, Note_on_c, 0, 67, 0
2, 73540, Note_on_c, 0, 68, 0
2, 73540, Note_on_c, 0, 72, 78
2, 73544, Note_on_c, 0, 52, 33
2, 73576, Note_on_c, 0, 61, 0
2, 73588, Note_on_c, 0, 56, 0
2, 73604, Note_on_c, 0, 52, 0
2, 73624, Note_on_c, 0, 70, 70
2, 73656, Note_on_c, 0, 72, 0
2, 73708, Note_on_c, 0, 70, 0
2, 73708, Note_on_c, 0, 68, 76
2, 73784, Note_on_c, 0, 68, 0
2, 73828, Note_on_c, 0, 68, 67
2, 73876, Note_on_c, 0, 39, 40
2, 73892, Control_c, 0, 64, 88
2, 73904, Control_c, 0, 64, 0
2, 73968, Note_on_c, 0, 39, 0
2, 73972, Control_c, 0, 64, 104
2, 73980, Control_c, 0, 64, 127
2, 74124, Note_on_c, 0, 51, 49
2, 74252, Note_on_c, 0, 68, 0
2, 74280, Note_on_c, 0, 67, 59
2, 74284, Note_on_c, 0, 51, 0
2, 74460, Note_on_c, 0, 61, 34
2, 74468, Note_on_c, 0, 58, 32
2, 74488, Control_c, 0, 64, 88
2, 74500, Control_c, 0, 64, 24
2, 74512, Control_c, 0, 64, 0
2, 74536, Control_c, 0, 64, 72
2, 74540, Note_on_c, 0, 68, 62
2, 74544, Control_c, 0, 64, 127
2, 74564, Note_on_c, 0, 67, 0
2, 74620, Note_on_c, 0, 68, 0
2, 74624, Note_on_c, 0, 70, 63
2, 74672, Note_on_c, 0, 70, 0
2, 74700, Note_on_c, 0, 72, 75
2, 74756, Note_on_c, 0, 72, 0
2, 74764, Note_on_c, 0, 73, 73
2, 74788, Note_on_c, 0, 51, 25
2, 74824, Note_on_c, 0, 75, 71
2, 74828, Note_on_c, 0, 73, 0
2, 74844, Note_on_c, 0, 61, 0
2, 74852, Note_on_c, 0, 58, 0
2, 74868, Note_on_c, 0, 75, 0
2, 74884, Note_on_c, 0, 77, 74
2, 74896, Note_on_c, 0, 51, 0
2, 74948, Note_on_c, 0, 79, 83
2, 74956, Note_on_c, 0, 77, 0
2, 75016, Note_on_c, 0, 79, 0
2, 75020, Note_on_c, 0, 80, 78
2, 75088, Note_on_c, 0, 80, 0
2, 75088, Note_on_c, 0, 79, 85
2, 75160, Note_on_c, 0, 79, 0
2, 75160, Note_on_c, 0, 82, 76
2, 75228, Note_on_c, 0, 80, 79
2, 75260, Note_on_c, 0, 82, 0
2, 75300, Note_on_c, 0, 79, 84
2, 75308, Note_on_c, 0, 80, 0
2, 75352, Note_on_c, 0, 79, 0
2, 75392, Note_on_c, 0, 79, 85
2, 75392, Control_c, 0, 64, 88
2, 75400, Note_on_c, 0, 39, 32
2, 75400, Control_c, 0, 64, 0
2, 75468, Control_c, 0, 64, 88
2, 75476, Control_c, 0, 64, 127
2, 75484, Note_on_c, 0, 39, 0
2, 75656, Note_on_c, 0, 51, 58
2, 75784, Note_on_c, 0, 51, 0
2, 75816, Note_on_c, 0, 77, 76
2, 75836, Note_on_c, 0, 79, 0
2, 75912, Note_on_c, 0, 77, 0
2, 75972, Note_on_c, 0, 65, 48
2, 75980, Note_on_c, 0, 56, 34
2, 75988, Note_on_c, 0, 77, 77
2, 75988, Note_on_c, 0, 60, 39
2, 76048, Note_on_c, 0, 77, 0
2, 76056, Note_on_c, 0, 79, 74
2, 76100, Note_on_c, 0, 79, 0
2, 76104, Note_on_c, 0, 65, 0
2, 76108, Note_on_c, 0, 77, 70
2, 76156, Note_on_c, 0, 77, 0
2, 76160, Note_on_c, 0, 79, 66
2, 76204, Note_on_c, 0, 79, 0
2, 76244, Note_on_c, 0, 79, 69
2, 76280, Note_on_c, 0, 77, 66
2, 76292, Note_on_c, 0, 79, 0
2, 76292, Note_on_c, 0, 51, 32
2, 76340, Note_on_c, 0, 77, 0
2, 76348, Note_on_c, 0, 76, 77
2, 76364, Note_on_c, 0, 60, 0
2, 76380, Note_on_c, 0, 56, 0
2, 76412, Note_on_c, 0, 76, 0
2, 76416, Note_on_c, 0, 77, 83
2, 76432, Note_on_c, 0, 51, 0
2, 76484, Note_on_c, 0, 77, 0
2, 76488, Note_on_c, 0, 80, 71
2, 76572, Note_on_c, 0, 79, 76
2, 76608, Note_on_c, 0, 80, 0
2, 76640, Note_on_c, 0, 79, 0
2, 76644, Note_on_c, 0, 77, 83
2, 76696, Note_on_c, 0, 77, 0
2, 76732, Note_on_c, 0, 77, 84
2, 76744, Note_on_c, 0, 39, 40
2, 76756, Control_c, 0, 64, 88
2, 76768, Control_c, 0, 64, 24
2, 76780, Control_c, 0, 64, 0
2, 76832, Control_c, 0, 64, 88
2, 76836, Note_on_c, 0, 39, 0
2, 76844, Control_c, 0, 64, 127
2, 77020, Note_on_c, 0, 55, 49
2, 77136, Note_on_c, 0, 75, 65
2, 77156, Note_on_c, 0, 77, 0
2, 77208, Note_on_c, 0, 75, 0
2, 77232, Note_on_c, 0, 55, 0
2, 77276, Note_on_c, 0, 75, 70
2, 77296, Note_on_c, 0, 63, 35
2, 77300, Note_on_c, 0, 58, 33
2, 77328, Note_on_c, 0, 75, 0
2, 77332, Note_on_c, 0, 77, 70
2, 77384, Note_on_c, 0, 77, 0
2, 77384, Note_on_c, 0, 75, 60
2, 77432, Note_on_c, 0, 75, 0
2, 77436, Note_on_c, 0, 77, 55
2, 77472, Note_on_c, 0, 77, 0
2, 77488, Note_on_c, 0, 75, 36
2, 77524, Note_on_c, 0, 77, 39
2, 77552, Note_on_c, 0, 77, 0
2, 77568, Note_on_c, 0, 55, 33
2, 77584, Note_on_c, 0, 74, 67
2, 77592, Note_on_c, 0, 75, 0
2, 77632, Note_on_c, 0, 63, 0
2, 77644, Note_on_c, 0, 58, 0
2, 77656, Note_on_c, 0, 74, 0
2, 77656, Note_on_c, 0, 75, 69
2, 77660, Note_on_c, 0, 55, 0
2, 77728, Note_on_c, 0, 75, 0
2, 77740, Note_on_c, 0, 79, 75
2, 77820, Note_on_c, 0, 77, 69
2, 77832, Note_on_c, 0, 79, 0
2, 77888, Note_on_c, 0, 75, 70
2, 77892, Note_on_c, 0, 77, 0
2, 77940, Note_on_c, 0, 75, 0
2, 77984, Note_on_c, 0, 75, 72
2, 78016, Control_c, 0, 64, 40
2, 78024, Note_on_c, 0, 41, 42
2, 78028, Control_c, 0, 64, 0
2, 78068, Control_c, 0, 64, 88
2, 78080, Note_on_c, 0, 41, 0
2, 78080, Control_c, 0, 64, 127
2, 78084, Note_on_c, 0, 73, 62
2, 78092, Note_on_c, 0, 75, 0
2, 78144, Note_on_c, 0, 73, 0
2, 78156, Note_on_c, 0, 75, 65
2, 78204, Note_on_c, 0, 75, 0
2, 78204, Note_on_c, 0, 73, 77
2, 78252, Note_on_c, 0, 73, 0
2, 78260, Note_on_c, 0, 75, 69
2, 78312, Note_on_c, 0, 73, 69
2, 78320, Note_on_c, 0, 75, 0
2, 78324, Note_on_c, 0, 68, 44
2, 78328, Note_on_c, 0, 61, 44
2, 78328, Note_on_c, 0, 56, 37
2, 78376, Note_on_c, 0, 68, 0
2, 78388, Note_on_c, 0, 56, 0
2, 78388, Note_on_c, 0, 61, 0
2, 78416, Note_on_c, 0, 73, 0
2, 78428, Note_on_c, 0, 72, 85
2, 78516, Note_on_c, 0, 72, 0
2, 78532, Note_on_c, 0, 73, 80
2, 78584, Note_on_c, 0, 73, 0
2, 78620, Note_on_c, 0, 73, 78
2, 78680, Note_on_c, 0, 73, 0
2, 78748, Note_on_c, 0, 43, 44
2, 78776, Control_c, 0, 64, 72
2, 78784, Control_c, 0, 64, 0
2, 78796, Note_on_c, 0, 89, 92
2, 78840, Control_c, 0, 64, 127
2, 78864, Note_on_c, 0, 43, 0
2, 78924, Note_on_c, 0, 89, 0
2, 78932, Note_on_c, 0, 87, 77
2, 79020, Note_on_c, 0, 85, 82
2, 79032, Note_on_c, 0, 87, 0
2, 79088, Note_on_c, 0, 82, 71
2, 79128, Note_on_c, 0, 85, 0
2, 79156, Note_on_c, 0, 82, 0
2, 79156, Note_on_c, 0, 79, 85
2, 79196, Note_on_c, 0, 79, 0
2, 79224, Note_on_c, 0, 77, 77
2, 79272, Note_on_c, 0, 77, 0
2, 79292, Note_on_c, 0, 75, 77
2, 79364, Note_on_c, 0, 75, 0
2, 79380, Note_on_c, 0, 73, 73
2, 79388, Note_on_c, 0, 61, 32
2, 79392, Note_on_c, 0, 51, 38
2, 79400, Note_on_c, 0, 58, 37
2, 79448, Note_on_c, 0, 73, 0
2, 79456, Note_on_c, 0, 70, 74
2, 79484, Note_on_c, 0, 58, 0
2, 79488, Note_on_c, 0, 61, 0
2, 79496, Note_on_c, 0, 51, 0
2, 79516, Note_on_c, 0, 70, 0
2, 79536, Note_on_c, 0, 63, 70
2, 79616, Note_on_c, 0, 63, 0
2, 79632, Note_on_c, 0, 65, 70
2, 79704, Note_on_c, 0, 65, 0
2, 79720, Note_on_c, 0, 67, 68
2, 79796, Note_on_c, 0, 67, 0
2, 79808, Note_on_c, 0, 68, 67
2, 79908, Note_on_c, 0, 68, 0
2, 79912, Note_on_c, 0, 70, 65
2, 79992, Note_on_c, 0, 70, 0
2, 80052, Note_on_c, 0, 72, 74
2, 80088, Note_on_c, 0, 32, 42
2, 80100, Control_c, 0, 64, 56
2, 80108, Control_c, 0, 64, 0
2, 80164, Control_c, 0, 64, 56
2, 80176, Control_c, 0, 64, 127
2, 80188, Note_on_c, 0, 32, 0
2, 80228, Note_on_c, 0, 72, 0
2, 80332, Note_on_c, 0, 72, 79
2, 80416, Note_on_c, 0, 72, 0
2, 80416, Note_on_c, 0, 56, 46
2, 80432, Note_on_c, 0, 48, 44
2, 80488, Note_on_c, 0, 56, 0
2, 80496, Note_on_c, 0, 48, 0
2, 80536, Note_on_c, 0, 72, 83
2, 80628, Note_on_c, 0, 72, 0
2, 80676, Note_on_c, 0, 51, 48
2, 80676, Note_on_c, 0, 60, 42
2, 80700, Note_on_c, 0, 72, 84
2, 80744, Note_on_c, 0, 51, 0
2, 80760, Note_on_c, 0, 72, 0
2, 80768, Note_on_c, 0, 60, 0
2, 80840, Note_on_c, 0, 72, 81
2, 80888, Note_on_c, 0, 72, 0
2, 80896, Note_on_c, 0, 75, 77
2, 80956, Note_on_c, 0, 73, 82
2, 80968, Note_on_c, 0, 75, 0
2, 81032, Note_on_c, 0, 63, 48
2, 81040, Note_on_c, 0, 56, 42
2, 81084, Note_on_c, 0, 73, 0
2, 81104, Note_on_c, 0, 63, 0
2, 81124, Note_on_c, 0, 56, 0
2, 81284, Note_on_c, 0, 72, 78
2, 81332, Note_on_c, 0, 72, 0
2, 81384, Note_on_c, 0, 72, 70
2, 81436, Note_on_c, 0, 37, 43
2, 81444, Control_c, 0, 64, 104
2, 81456, Control_c, 0, 64, 24
2, 81468, Control_c, 0, 64, 0
2, 81516, Note_on_c, 0, 37, 0
2, 81520, Control_c, 0, 64, 72
2, 81532, Control_c, 0, 64, 127
2, 81740, Note_on_c, 0, 58, 33
2, 81756, Note_on_c, 0, 53, 43
2, 81796, Note_on_c, 0, 72, 0
2, 81816, Note_on_c, 0, 53, 0
2, 81824, Note_on_c, 0, 65, 69
2, 81836, Note_on_c, 0, 58, 0
2, 81896, Note_on_c, 0, 65, 0
2, 81916, Note_on_c, 0, 72, 84
2, 81996, Note_on_c, 0, 72, 0
2, 82004, Note_on_c, 0, 70, 76
2, 82004, Note_on_c, 0, 58, 30
2, 82004, Note_on_c, 0, 65, 48
2, 82004, Note_on_c, 0, 56, 27
2, 82036, Note_on_c, 0, 56, 0
2, 82068, Note_on_c, 0, 65, 0
2, 82068, Note_on_c, 0, 58, 0
2, 82084, Note_on_c, 0, 73, 78
2, 82092, Note_on_c, 0, 70, 0
2, 82124, Note_on_c, 0, 73, 0
2, 82156, Note_on_c, 0, 77, 94
2, 82224, Note_on_c, 0, 77, 0
2, 82240, Note_on_c, 0, 82, 81
2, 82240, Note_on_c, 0, 68, 40
2, 82240, Note_on_c, 0, 61, 38
2, 82240, Note_on_c, 0, 58, 38
2, 82328, Note_on_c, 0, 82, 0
2, 82372, Note_on_c, 0, 68, 0
2, 82384, Note_on_c, 0, 58, 0
2, 82396, Note_on_c, 0, 61, 0
2, 82396, Note_on_c, 0, 91, 94
2, 82688, Note_on_c, 0, 91, 0
2, 82768, Note_on_c, 0, 89, 74
2, 82852, Note_on_c, 0, 89, 0
2, 82916, Note_on_c, 0, 82, 71
2, 82948, Note_on_c, 0, 39, 37
2, 82960, Control_c, 0, 64, 104
2, 82976, Control_c, 0, 64, 0
2, 83048, Control_c, 0, 64, 127
2, 83056, Note_on_c, 0, 39, 0
2, 83268, Note_on_c, 0, 63, 34
2, 83288, Note_on_c, 0, 55, 31
2, 83292, Note_on_c, 0, 58, 25
2, 83316, Note_on_c, 0, 55, 0
2, 83336, Note_on_c, 0, 58, 0
2, 83352, Note_on_c, 0, 63, 0
2, 83536, Note_on_c, 0, 58, 29
2, 83540, Note_on_c, 0, 63, 25
2, 83540, Note_on_c, 0, 67, 24
2, 83584, Note_on_c, 0, 63, 0
2, 83608, Note_on_c, 0, 67, 0
2, 83608, Note_on_c, 0, 58, 0
2, 83628, Note_on_c, 0, 82, 0
2, 83644, Note_on_c, 0, 81, 66
2, 83724, Note_on_c, 0, 82, 75
2, 83728, Note_on_c, 0, 81, 0
2, 83800, Note_on_c, 0, 82, 0
2, 83808, Note_on_c, 0, 84, 74
2, 83824, Note_on_c, 0, 70, 36
2, 83840, Note_on_c, 0, 67, 28
2, 83848, Note_on_c, 0, 63, 14
2, 83884, Note_on_c, 0, 67, 0
2, 83884, Note_on_c, 0, 84, 0
2, 83888, Note_on_c, 0, 82, 71
2, 83892, Note_on_c, 0, 70, 0
2, 83916, Note_on_c, 0, 63, 0
2, 83952, Note_on_c, 0, 82, 0
2, 83956, Note_on_c, 0, 85, 73
2, 84032, Note_on_c, 0, 84, 85
2, 84036, Note_on_c, 0, 85, 0
2, 84124, Note_on_c, 0, 84, 0
2, 84124, Note_on_c, 0, 82, 79
2, 84128, Note_on_c, 0, 75, 42
2, 84144, Note_on_c, 0, 70, 38
2, 84148, Note_on_c, 0, 67, 37
2, 84184, Note_on_c, 0, 75, 0
2, 84212, Note_on_c, 0, 70, 0
2, 84236, Note_on_c, 0, 67, 0
2, 84420, Note_on_c, 0, 70, 47
2, 84432, Note_on_c, 0, 63, 32
2, 84496, Note_on_c, 0, 70, 0
2, 84512, Note_on_c, 0, 63, 0
2, 84728, Note_on_c, 0, 75, 78
2, 84744, Note_on_c, 0, 67, 43
2, 84748, Note_on_c, 0, 82, 0
2, 84752, Note_on_c, 0, 58, 29
2, 84756, Note_on_c, 0, 63, 29
2, 84828, Control_c, 0, 64, 104
2, 84840, Control_c, 0, 64, 88
2, 84852, Control_c, 0, 64, 127
2, 84856, Note_on_c, 0, 67, 0
2, 84888, Note_on_c, 0, 63, 0
2, 84916, Note_on_c, 0, 58, 0
2, 85040, Note_on_c, 0, 63, 37
2, 85056, Note_on_c, 0, 55, 41
2, 85064, Note_on_c, 0, 61, 32
2, 85092, Note_on_c, 0, 55, 0
2, 85116, Note_on_c, 0, 63, 0
2, 85120, Note_on_c, 0, 61, 0
2, 85388, Note_on_c, 0, 84, 89
2, 85396, Note_on_c, 0, 72, 63
2, 85408, Note_on_c, 0, 32, 52
2, 85412, Control_c, 0, 64, 56
2, 85424, Control_c, 0, 64, 0
2, 85480, Note_on_c, 0, 32, 0
2, 85480, Control_c, 0, 64, 56
2, 85492, Control_c, 0, 64, 127
2, 85684, Note_on_c, 0, 56, 48
2, 85720, Note_on_c, 0, 84, 0
2, 85752, Note_on_c, 0, 72, 0
2, 85912, Note_on_c, 0, 75, 0
2, 85924, Note_on_c, 0, 56, 0
2, 85952, Note_on_c, 0, 82, 82
2, 85960, Note_on_c, 0, 70, 63
2, 85960, Note_on_c, 0, 75, 55
2, 85972, Note_on_c, 0, 66, 39
2, 85980, Note_on_c, 0, 60, 49
2, 85988, Note_on_c, 0, 51, 44
2, 86148, Note_on_c, 0, 66, 0
2, 86164, Note_on_c, 0, 51, 0
2, 86208, Note_on_c, 0, 70, 0
2, 86216, Note_on_c, 0, 56, 55
2, 86232, Note_on_c, 0, 82, 0
2, 86240, Note_on_c, 0, 60, 0
2, 86272, Note_on_c, 0, 56, 0
2, 86316, Note_on_c, 0, 75, 0
2, 86336, Note_on_c, 0, 80, 88
2, 86336, Note_on_c, 0, 68, 75
2, 86400, Note_on_c, 0, 68, 0
2, 86424, Note_on_c, 0, 80, 0
2, 86476, Note_on_c, 0, 80, 81
2, 86480, Note_on_c, 0, 68, 69
2, 86512, Note_on_c, 0, 37, 56
2, 86520, Control_c, 0, 64, 72
2, 86532, Control_c, 0, 64, 0
2, 86596, Control_c, 0, 64, 127
2, 86604, Note_on_c, 0, 37, 0
2, 86736, Note_on_c, 0, 68, 0
2, 86788, Note_on_c, 0, 56, 60
2, 86992, Note_on_c, 0, 56, 0
2, 87000, Note_on_c, 0, 80, 0
2, 87016, Note_on_c, 0, 85, 88
2, 87024, Note_on_c, 0, 73, 69
2, 87028, Note_on_c, 0, 61, 44
2, 87040, Note_on_c, 0, 80, 46
2, 87040, Note_on_c, 0, 65, 46
2, 87044, Note_on_c, 0, 53, 46
2, 87060, Note_on_c, 0, 80, 0
2, 87312, Note_on_c, 0, 53, 0
2, 87316, Note_on_c, 0, 56, 46
2, 87340, Note_on_c, 0, 65, 0
2, 87340, Note_on_c, 0, 80, 1
2, 87348, Note_on_c, 0, 61, 0
2, 87380, Note_on_c, 0, 56, 0
2, 87432, Note_on_c, 0, 73, 0
2, 87440, Note_on_c, 0, 85, 0
2, 87552, Note_on_c, 0, 80, 0
2, 87596, Note_on_c, 0, 84, 88
2, 87604, Note_on_c, 0, 72, 73
2, 87604, Control_c, 0, 64, 72
2, 87612, Note_on_c, 0, 78, 63
2, 87616, Note_on_c, 0, 32, 58
2, 87616, Control_c, 0, 64, 0
2, 87672, Control_c, 0, 64, 127
2, 87676, Note_on_c, 0, 32, 0
2, 87692, Note_on_c, 0, 72, 0
2, 87704, Note_on_c, 0, 84, 0
2, 87792, Note_on_c, 0, 78, 0
2, 87804, Note_on_c, 0, 85, 88
2, 87812, Note_on_c, 0, 73, 76
2, 87880, Note_on_c, 0, 56, 61
2, 87904, Note_on_c, 0, 73, 0
2, 87904, Note_on_c, 0, 85, 0
2, 87956, Note_on_c, 0, 84, 94
2, 87964, Note_on_c, 0, 72, 82
2, 88008, Note_on_c, 0, 72, 0
2, 88028, Note_on_c, 0, 84, 0
2, 88084, Note_on_c, 0, 56, 0
2, 88084, Note_on_c, 0, 82, 85
2, 88096, Note_on_c, 0, 70, 77
2, 88108, Note_on_c, 0, 66, 37
2, 88108, Note_on_c, 0, 60, 54
2, 88116, Note_on_c, 0, 51, 38
2, 88144, Note_on_c, 0, 70, 0
2, 88180, Note_on_c, 0, 82, 0
2, 88208, Note_on_c, 0, 84, 93
2, 88212, Note_on_c, 0, 72, 84
2, 88240, Note_on_c, 0, 66, 0
2, 88252, Note_on_c, 0, 72, 0
2, 88272, Note_on_c, 0, 84, 0
2, 88276, Note_on_c, 0, 51, 0
2, 88316, Note_on_c, 0, 56, 42
2, 88324, Note_on_c, 0, 85, 90
2, 88328, Note_on_c, 0, 60, 0
2, 88328, Note_on_c, 0, 73, 85
2, 88376, Note_on_c, 0, 73, 0
2, 88392, Note_on_c, 0, 56, 0
2, 88400, Note_on_c, 0, 85, 0
2, 88428, Note_on_c, 0, 87, 97
2, 88432, Note_on_c, 0, 75, 91
2, 88472, Note_on_c, 0, 87, 0
2, 88480, Note_on_c, 0, 75, 0
2, 88632, Note_on_c, 0, 80, 85
2, 88636, Note_on_c, 0, 68, 78
2, 88640, Note_on_c, 0, 78, 71
2, 88648, Note_on_c, 0, 75, 51
2, 88676, Note_on_c, 0, 37, 38
2, 88700, Control_c, 0, 64, 56
2, 88712, Control_c, 0, 64, 0
2, 88764, Note_on_c, 0, 37, 0
2, 88764, Control_c, 0, 64, 72
2, 88776, Control_c, 0, 64, 127
2, 88932, Note_on_c, 0, 75, 0
2, 88936, Note_on_c, 0, 56, 48
2, 89060, Note_on_c, 0, 78, 0
2, 89160, Note_on_c, 0, 56, 0
2, 89172, Note_on_c, 0, 77, 55
2, 89176, Note_on_c, 0, 73, 35
2, 89180, Note_on_c, 0, 61, 37
2, 89188, Note_on_c, 0, 65, 38
2, 89192, Note_on_c, 0, 53, 49
2, 89260, Note_on_c, 0, 68, 0
2, 89292, Note_on_c, 0, 80, 0
2, 89420, Note_on_c, 0, 77, 0
2, 89424, Note_on_c, 0, 73, 0
2, 89440, Note_on_c, 0, 53, 0
2, 89440, Note_on_c, 0, 70, 67
2, 89440, Note_on_c, 0, 82, 73
2, 89444, Note_on_c, 0, 56, 40
2, 89452, Note_on_c, 0, 65, 0
2, 89488, Note_on_c, 0, 61, 0
2, 89504, Note_on_c, 0, 70, 0
2, 89524, Note_on_c, 0, 56, 0
2, 89556, Note_on_c, 0, 82, 0
2, 89636, Note_on_c, 0, 72, 63
2, 89680, Note_on_c, 0, 75, 69
2, 89752, Note_on_c, 0, 80, 62
2, 89796, Note_on_c, 0, 75, 0
2, 89800, Note_on_c, 0, 44, 32
2, 89812, Note_on_c, 0, 32, 35
2, 89816, Control_c, 0, 64, 40
2, 89828, Control_c, 0, 64, 0
2, 89844, Note_on_c, 0, 80, 0
2, 89844, Note_on_c, 0, 84, 85
2, 89904, Control_c, 0, 64, 104
2, 89912, Note_on_c, 0, 32, 0
2, 89916, Control_c, 0, 64, 127
2, 89932, Note_on_c, 0, 44, 0
2, 90000, Note_on_c, 0, 84, 0
2, 90128, Note_on_c, 0, 60, 51
2, 90128, Note_on_c, 0, 51, 44
2, 90160, Note_on_c, 0, 72, 0
2, 90200, Note_on_c, 0, 75, 76
2, 90248, Note_on_c, 0, 75, 0
2, 90256, Note_on_c, 0, 77, 70
2, 90276, Note_on_c, 0, 51, 0
2, 90288, Note_on_c, 0, 77, 0
2, 90308, Note_on_c, 0, 75, 57
2, 90316, Note_on_c, 0, 60, 0
2, 90328, Note_on_c, 0, 75, 0
2, 90340, Note_on_c, 0, 77, 66
2, 90384, Note_on_c, 0, 75, 71
2, 90396, Note_on_c, 0, 77, 0
2, 90448, Note_on_c, 0, 75, 0
2, 90448, Note_on_c, 0, 74, 86
2, 90448, Note_on_c, 0, 60, 45
2, 90452, Note_on_c, 0, 56, 35
2, 90456, Note_on_c, 0, 63, 32
2, 90480, Note_on_c, 0, 60, 0
2, 90484, Note_on_c, 0, 56, 0
2, 90496, Note_on_c, 0, 63, 0
2, 90532, Note_on_c, 0, 74, 0
2, 90536, Note_on_c, 0, 75, 80
2, 90608, Note_on_c, 0, 75, 0
2, 90628, Note_on_c, 0, 77, 90
2, 90696, Note_on_c, 0, 77, 0
2, 90732, Note_on_c, 0, 79, 77
2, 90764, Note_on_c, 0, 68, 45
2, 90772, Note_on_c, 0, 63, 33
2, 90780, Note_on_c, 0, 60, 35
2, 90796, Note_on_c, 0, 79, 0
2, 90804, Note_on_c, 0, 68, 0
2, 90804, Note_on_c, 0, 63, 0
2, 90812, Note_on_c, 0, 60, 0
2, 90832, Note_on_c, 0, 80, 86
2, 90880, Note_on_c, 0, 80, 0
2, 90928, Note_on_c, 0, 82, 88
2, 90996, Note_on_c, 0, 82, 0
2, 91012, Note_on_c, 0, 68, 63
2, 91056, Control_c, 0, 64, 72
2, 91064, Control_c, 0, 64, 0
2, 91076, Note_on_c, 0, 68, 0
2, 91076, Note_on_c, 0, 74, 81
2, 91080, Note_on_c, 0, 40, 51
2, 91120, Control_c, 0, 64, 56
2, 91132, Control_c, 0, 64, 127
2, 91160, Note_on_c, 0, 40, 0
2, 91160, Note_on_c, 0, 83, 92
2, 91328, Note_on_c, 0, 74, 0
2, 91440, Note_on_c, 0, 52, 47
2, 91440, Note_on_c, 0, 62, 47
2, 91444, Note_on_c, 0, 56, 38
2, 91488, Note_on_c, 0, 62, 0
2, 91492, Note_on_c, 0, 52, 0
2, 91504, Note_on_c, 0, 56, 0
2, 91720, Note_on_c, 0, 83, 0
2, 91720, Note_on_c, 0, 82, 84
2, 91740, Note_on_c, 0, 58, 40
2, 91744, Note_on_c, 0, 52, 54
2, 91744, Note_on_c, 0, 62, 46
2, 91816, Note_on_c, 0, 58, 0
2, 91828, Note_on_c, 0, 62, 0
2, 91832, Note_on_c, 0, 52, 0
2, 92028, Note_on_c, 0, 62, 48
2, 92028, Note_on_c, 0, 59, 49
2, 92036, Note_on_c, 0, 52, 41
2, 92080, Note_on_c, 0, 62, 0
2, 92084, Note_on_c, 0, 59, 0
2, 92112, Note_on_c, 0, 52, 0
2, 92124, Note_on_c, 0, 82, 0
2, 92164, Note_on_c, 0, 80, 77
2, 92220, Note_on_c, 0, 80, 0
2, 92280, Note_on_c, 0, 67, 47
2, 92324, Note_on_c, 0, 70, 57
2, 92356, Control_c, 0, 64, 72
2, 92360, Note_on_c, 0, 39, 44
2, 92368, Control_c, 0, 64, 0
2, 92376, Note_on_c, 0, 75, 73
2, 92420, Note_on_c, 0, 70, 0
2, 92436, Note_on_c, 0, 79, 74
2, 92444, Control_c, 0, 64, 104
2, 92452, Note_on_c, 0, 39, 0
2, 92456, Note_on_c, 0, 75, 0
2, 92456, Control_c, 0, 64, 127
2, 92728, Note_on_c, 0, 63, 38
2, 92744, Note_on_c, 0, 58, 28
2, 92744, Note_on_c, 0, 55, 46
2, 92812, Note_on_c, 0, 63, 0
2, 92816, Note_on_c, 0, 55, 0
2, 92820, Note_on_c, 0, 58, 0
2, 92928, Note_on_c, 0, 67, 0
2, 93012, Note_on_c, 0, 75, 85
2, 93032, Note_on_c, 0, 63, 35
2, 93036, Note_on_c, 0, 79, 0
2, 93036, Note_on_c, 0, 55, 49
2, 93056, Note_on_c, 0, 58, 25
2, 93092, Note_on_c, 0, 58, 0
2, 93108, Note_on_c, 0, 55, 0
2, 93108, Note_on_c, 0, 63, 0
2, 93268, Note_on_c, 0, 75, 0
2, 93272, Note_on_c, 0, 63, 50
2, 93280, Note_on_c, 0, 55, 43
2, 93300, Note_on_c, 0, 58, 22
2, 93332, Note_on_c, 0, 58, 0
2, 93332, Note_on_c, 0, 55, 0
2, 93340, Note_on_c, 0, 63, 0
2, 93380, Note_on_c, 0, 75, 93
2, 93448, Note_on_c, 0, 75, 0
2, 93496, Note_on_c, 0, 75, 86
2, 93532, Note_on_c, 0, 52, 60
2, 93592, Control_c, 0, 64, 104
2, 93604, Control_c, 0, 64, 24
2, 93616, Control_c, 0, 64, 0
2, 93700, Control_c, 0, 64, 127
2, 93756, Note_on_c, 0, 52, 0
2, 93796, Note_on_c, 0, 61, 36
2, 93800, Note_on_c, 0, 56, 42
2, 93856, Note_on_c, 0, 75, 0
2, 93884, Note_on_c, 0, 56, 0
2, 93884, Note_on_c, 0, 68, 73
2, 93916, Note_on_c, 0, 61, 0
2, 93956, Note_on_c, 0, 73, 73
2, 93964, Note_on_c, 0, 68, 0
2, 93992, Note_on_c, 0, 73, 0
2, 94024, Note_on_c, 0, 76, 93
2, 94028, Note_on_c, 0, 61, 43
2, 94032, Note_on_c, 0, 56, 39
2, 94096, Note_on_c, 0, 76, 0
2, 94096, Note_on_c, 0, 80, 75
2, 94116, Note_on_c, 0, 56, 0
2, 94132, Note_on_c, 0, 61, 0
2, 94164, Note_on_c, 0, 85, 72
2, 94184, Note_on_c, 0, 80, 0
2, 94224, Note_on_c, 0, 88, 76
2, 94248, Note_on_c, 0, 85, 0
2, 94260, Note_on_c, 0, 88, 0
2, 94296, Note_on_c, 0, 61, 40
2, 94300, Note_on_c, 0, 56, 42
2, 94316, Note_on_c, 0, 92, 108
2, 94364, Note_on_c, 0, 92, 0
2, 94368, Note_on_c, 0, 56, 0
2, 94372, Note_on_c, 0, 61, 0
2, 94524, Note_on_c, 0, 92, 105
2, 94564, Note_on_c, 0, 92, 0
2, 94604, Note_on_c, 0, 92, 91
2, 94632, Note_on_c, 0, 51, 50
2, 94656, Control_c, 0, 64, 40
2, 94668, Control_c, 0, 64, 0
2, 94720, Control_c, 0, 64, 72
2, 94732, Control_c, 0, 64, 127
2, 94872, Note_on_c, 0, 83, 88
2, 94892, Note_on_c, 0, 56, 38
2, 94896, Note_on_c, 0, 92, 0
2, 94896, Note_on_c, 0, 59, 49
2, 94936, Note_on_c, 0, 83, 0
2, 94988, Note_on_c, 0, 59, 0
2, 95000, Note_on_c, 0, 56, 0
2, 95136, Note_on_c, 0, 71, 82
2, 95148, Note_on_c, 0, 56, 38
2, 95160, Note_on_c, 0, 59, 36
2, 95232, Note_on_c, 0, 59, 0
2, 95236, Note_on_c, 0, 71, 0
2, 95240, Note_on_c, 0, 56, 0
2, 95272, Note_on_c, 0, 51, 0
2, 95388, Note_on_c, 0, 56, 45
2, 95396, Note_on_c, 0, 59, 56
2, 95456, Note_on_c, 0, 59, 0
2, 95468, Note_on_c, 0, 56, 0
2, 95516, Note_on_c, 0, 71, 93
2, 95580, Note_on_c, 0, 71, 0
2, 95640, Note_on_c, 0, 71, 84
2, 95680, Note_on_c, 0, 49, 46
2, 95696, Control_c, 0, 64, 104
2, 95708, Control_c, 0, 64, 40
2, 95720, Control_c, 0, 64, 0
2, 95784, Control_c, 0, 64, 104
2, 95792, Control_c, 0, 64, 127
2, 95872, Note_on_c, 0, 49, 0
2, 95896, Note_on_c, 0, 58, 46
2, 95904, Note_on_c, 0, 55, 51
2, 95932, Note_on_c, 0, 55, 0
2, 95948, Note_on_c, 0, 71, 0
2, 95968, Note_on_c, 0, 64, 79
2, 95972, Note_on_c, 0, 58, 0
2, 96048, Note_on_c, 0, 67, 82
2, 96060, Note_on_c, 0, 64, 0
2, 96116, Note_on_c, 0, 70, 80
2, 96120, Note_on_c, 0, 67, 0
2, 96132, Note_on_c, 0, 64, 44
2, 96136, Note_on_c, 0, 55, 48
2, 96136, Note_on_c, 0, 58, 35
2, 96148, Note_on_c, 0, 70, 0
2, 96168, Note_on_c, 0, 55, 0
2, 96188, Note_on_c, 0, 76, 93
2, 96208, Note_on_c, 0, 58, 0
2, 96216, Note_on_c, 0, 64, 0
2, 96264, Note_on_c, 0, 76, 0
2, 96264, Note_on_c, 0, 79, 87
2, 96324, Note_on_c, 0, 82, 82
2, 96340, Note_on_c, 0, 79, 0
2, 96392, Note_on_c, 0, 82, 0
2, 96420, Note_on_c, 0, 88, 97
2, 96436, Note_on_c, 0, 64, 56
2, 96440, Note_on_c, 0, 55, 46
2, 96440, Note_on_c, 0, 58, 40
2, 96488, Note_on_c, 0, 64, 0
2, 96496, Note_on_c, 0, 55, 0
2, 96520, Note_on_c, 0, 58, 0
2, 96528, Note_on_c, 0, 88, 0
2, 96640, Note_on_c, 0, 88, 100
2, 96704, Note_on_c, 0, 88, 0
2, 96760, Note_on_c, 0, 88, 96
2, 96796, Note_on_c, 0, 47, 60
2, 96804, Control_c, 0, 64, 104
2, 96812, Control_c, 0, 64, 24
2, 96824, Control_c, 0, 64, 0
2, 96892, Control_c, 0, 64, 104
2, 96896, Note_on_c, 0, 47, 0
2, 96900, Control_c, 0, 64, 127
2, 97068, Note_on_c, 0, 63, 33
2, 97068, Note_on_c, 0, 51, 43
2, 97076, Note_on_c, 0, 56, 32
2, 97152, Note_on_c, 0, 51, 0
2, 97168, Note_on_c, 0, 56, 0
2, 97168, Note_on_c, 0, 63, 0
2, 97316, Note_on_c, 0, 80, 53
2, 97324, Note_on_c, 0, 51, 43
2, 97328, Note_on_c, 0, 63, 33
2, 97328, Note_on_c, 0, 56, 32
2, 97416, Note_on_c, 0, 63, 0
2, 97424, Note_on_c, 0, 51, 0
2, 97424, Note_on_c, 0, 56, 0
2, 97472, Note_on_c, 0, 88, 0
2, 97568, Note_on_c, 0, 87, 91
2, 97588, Note_on_c, 0, 63, 36
2, 97588, Note_on_c, 0, 51, 45
2, 97596, Note_on_c, 0, 56, 34
2, 97644, Note_on_c, 0, 63, 0
2, 97656, Note_on_c, 0, 56, 0
2, 97672, Note_on_c, 0, 51, 0
2, 97752, Note_on_c, 0, 87, 0
2, 97820, Note_on_c, 0, 80, 0
2, 97864, Note_on_c, 0, 87, 85
2, 97884, Control_c, 0, 64, 72
2, 97896, Note_on_c, 0, 46, 47
2, 97896, Control_c, 0, 64, 0
2, 97960, Control_c, 0, 64, 56
2, 97968, Note_on_c, 0, 46, 0
2, 97972, Control_c, 0, 64, 127
2, 98176, Note_on_c, 0, 56, 32
2, 98176, Note_on_c, 0, 62, 39
2, 98196, Note_on_c, 0, 53, 41
2, 98260, Note_on_c, 0, 87, 0
2, 98268, Note_on_c, 0, 86, 84
2, 98340, Note_on_c, 0, 86, 0
2, 98348, Note_on_c, 0, 82, 71
2, 98356, Note_on_c, 0, 53, 0
2, 98360, Note_on_c, 0, 62, 0
2, 98380, Note_on_c, 0, 56, 0
2, 98420, Note_on_c, 0, 83, 81
2, 98424, Note_on_c, 0, 82, 0
2, 98480, Note_on_c, 0, 83, 0
2, 98484, Note_on_c, 0, 85, 72
2, 98516, Note_on_c, 0, 56, 42
2, 98520, Note_on_c, 0, 62, 47
2, 98528, Note_on_c, 0, 53, 47
2, 98536, Note_on_c, 0, 85, 0
2, 98540, Note_on_c, 0, 83, 82
2, 98588, Note_on_c, 0, 85, 70
2, 98592, Note_on_c, 0, 83, 0
2, 98636, Note_on_c, 0, 83, 70
2, 98640, Note_on_c, 0, 85, 0
2, 98644, Note_on_c, 0, 62, 0
2, 98648, Note_on_c, 0, 53, 0
2, 98684, Note_on_c, 0, 85, 72
2, 98688, Note_on_c, 0, 56, 0
2, 98696, Note_on_c, 0, 83, 0
2, 98736, Note_on_c, 0, 83, 72
2, 98744, Note_on_c, 0, 85, 0
2, 98792, Note_on_c, 0, 85, 70
2, 98828, Note_on_c, 0, 83, 0
2, 98840, Note_on_c, 0, 56, 42
2, 98844, Note_on_c, 0, 83, 63
2, 98848, Note_on_c, 0, 62, 43
2, 98856, Note_on_c, 0, 53, 41
2, 98880, Note_on_c, 0, 85, 0
2, 98916, Note_on_c, 0, 83, 0
2, 98920, Note_on_c, 0, 82, 78
2, 99008, Note_on_c, 0, 82, 0
2, 99028, Note_on_c, 0, 80, 75
2, 99032, Note_on_c, 0, 53, 0
2, 99104, Note_on_c, 0, 56, 0
2, 99132, Note_on_c, 0, 62, 0
2, 99148, Note_on_c, 0, 80, 0
2, 99156, Note_on_c, 0, 79, 81
2, 99188, Note_on_c, 0, 52, 46
2, 99200, Control_c, 0, 64, 72
2, 99208, Control_c, 0, 64, 0
2, 99264, Note_on_c, 0, 80, 82
2, 99276, Note_on_c, 0, 79, 0
2, 99276, Control_c, 0, 64, 56
2, 99288, Control_c, 0, 64, 127
2, 99328, Note_on_c, 0, 80, 0
2, 99332, Note_on_c, 0, 79, 81
2, 99400, Note_on_c, 0, 79, 0
2, 99404, Note_on_c, 0, 78, 80
2, 99476, Note_on_c, 0, 78, 0
2, 99480, Note_on_c, 0, 79, 81
2, 99548, Note_on_c, 0, 80, 82
2, 99556, Note_on_c, 0, 56, 41
2, 99556, Note_on_c, 0, 61, 42
2, 99560, Note_on_c, 0, 79, 0
2, 99612, Note_on_c, 0, 52, 0
2, 99632, Note_on_c, 0, 61, 0
2, 99640, Note_on_c, 0, 83, 84
2, 99648, Note_on_c, 0, 56, 0
2, 99660, Note_on_c, 0, 80, 0
2, 99724, Note_on_c, 0, 83, 0
2, 99724, Note_on_c, 0, 82, 82
2, 99808, Note_on_c, 0, 80, 79
2, 99824, Note_on_c, 0, 82, 0
2, 99896, Note_on_c, 0, 79, 82
2, 99908, Note_on_c, 0, 80, 0
2, 99948, Control_c, 0, 64, 72
2, 99952, Note_on_c, 0, 43, 49
2, 99956, Control_c, 0, 64, 0
2, 99972, Note_on_c, 0, 79, 0
2, 99980, Note_on_c, 0, 76, 82
2, 100012, Control_c, 0, 64, 56
2, 100024, Control_c, 0, 64, 127
2, 100052, Note_on_c, 0, 76, 0
2, 100052, Note_on_c, 0, 43, 0
2, 100068, Note_on_c, 0, 75, 71
2, 100128, Note_on_c, 0, 75, 0
2, 100148, Note_on_c, 0, 76, 80
2, 100216, Note_on_c, 0, 76, 0
2, 100228, Note_on_c, 0, 75, 79
2, 100296, Note_on_c, 0, 75, 0
2, 100308, Note_on_c, 0, 74, 76
2, 100372, Note_on_c, 0, 75, 79
2, 100376, Note_on_c, 0, 74, 0
2, 100444, Note_on_c, 0, 75, 0
2, 100456, Note_on_c, 0, 76, 82
2, 100468, Note_on_c, 0, 63, 32
2, 100472, Note_on_c, 0, 51, 42
2, 100488, Note_on_c, 0, 58, 28
2, 100528, Note_on_c, 0, 76, 0
2, 100544, Note_on_c, 0, 63, 0
2, 100544, Note_on_c, 0, 70, 72
2, 100556, Note_on_c, 0, 58, 0
2, 100592, Note_on_c, 0, 51, 0
2, 100620, Note_on_c, 0, 70, 0
2, 100644, Note_on_c, 0, 76, 75
2, 100712, Note_on_c, 0, 76, 0
2, 100724, Note_on_c, 0, 75, 74
2, 100808, Note_on_c, 0, 75, 0
2, 100820, Note_on_c, 0, 73, 73
2, 100872, Note_on_c, 0, 73, 0
2, 100936, Note_on_c, 0, 73, 74
2, 100968, Control_c, 0, 64, 104
2, 100976, Note_on_c, 0, 44, 49
2, 100976, Control_c, 0, 64, 40
2, 100992, Control_c, 0, 64, 0
2, 101052, Control_c, 0, 64, 56
2, 101064, Control_c, 0, 64, 127
2, 101076, Note_on_c, 0, 44, 0
2, 101276, Note_on_c, 0, 59, 34
2, 101280, Note_on_c, 0, 51, 28
2, 101296, Note_on_c, 0, 56, 29
2, 101432, Note_on_c, 0, 51, 0
2, 101444, Note_on_c, 0, 71, 68
2, 101456, Note_on_c, 0, 73, 0
2, 101536, Note_on_c, 0, 59, 0
2, 101584, Note_on_c, 0, 56, 0
2, 101592, Note_on_c, 0, 71, 0
2, 101636, Note_on_c, 0, 69, 66
2, 101660, Note_on_c, 0, 49, 47
2, 101660, Control_c, 0, 64, 88
2, 101672, Control_c, 0, 64, 24
2, 101684, Control_c, 0, 64, 0
2, 101752, Note_on_c, 0, 69, 0
2, 101760, Note_on_c, 0, 71, 68
2, 101760, Control_c, 0, 64, 56
2, 101772, Control_c, 0, 64, 127
2, 101828, Note_on_c, 0, 71, 0
2, 101848, Note_on_c, 0, 69, 66
2, 101928, Note_on_c, 0, 69, 0
2, 101936, Note_on_c, 0, 68, 67
2, 101996, Note_on_c, 0, 52, 42
2, 102000, Note_on_c, 0, 57, 38
2, 102016, Note_on_c, 0, 68, 0
2, 102016, Note_on_c, 0, 49, 0
2, 102032, Note_on_c, 0, 69, 70
2, 102104, Note_on_c, 0, 69, 0
2, 102116, Note_on_c, 0, 57, 0
2, 102120, Note_on_c, 0, 52, 0
2, 102132, Note_on_c, 0, 71, 74
2, 102208, Note_on_c, 0, 71, 0
2, 102224, Note_on_c, 0, 73, 81
2, 102336, Note_on_c, 0, 73, 0
2, 102364, Note_on_c, 0, 71, 69
2, 102404, Note_on_c, 0, 39, 46
2, 102444, Control_c, 0, 64, 88
2, 102456, Control_c, 0, 64, 24
2, 102468, Control_c, 0, 64, 0
2, 102532, Control_c, 0, 64, 127
2, 102584, Note_on_c, 0, 39, 0
2, 102712, Note_on_c, 0, 51, 42
2, 102836, Note_on_c, 0, 70, 78
2, 102848, Note_on_c, 0, 71, 0
2, 102988, Note_on_c, 0, 68, 67
2, 102996, Note_on_c, 0, 70, 0
2, 103000, Note_on_c, 0, 63, 38
2, 103004, Note_on_c, 0, 59, 34
2, 103060, Control_c, 0, 64, 56
2, 103072, Control_c, 0, 64, 0
2, 103076, Note_on_c, 0, 51, 0
2, 103136, Control_c, 0, 64, 127
2, 103248, Note_on_c, 0, 51, 46
2, 103252, Note_on_c, 0, 59, 0
2, 103328, Note_on_c, 0, 63, 0
2, 103508, Note_on_c, 0, 63, 35
2, 103516, Note_on_c, 0, 51, 0
2, 103524, Note_on_c, 0, 59, 35
2, 103740, Note_on_c, 0, 59, 0
2, 103772, Note_on_c, 0, 51, 38
2, 103788, Note_on_c, 0, 63, 0
2, 103892, Note_on_c, 0, 67, 66
2, 103896, Note_on_c, 0, 68, 0
2, 103956, Note_on_c, 0, 67, 0
2, 104024, Note_on_c, 0, 67, 63
2, 104052, Note_on_c, 0, 51, 0
2, 104052, Note_on_c, 0, 61, 30
2, 104052, Note_on_c, 0, 58, 32
2, 104060, Control_c, 0, 64, 88
2, 104072, Control_c, 0, 64, 0
2, 104112, Note_on_c, 0, 67, 0
2, 104124, Note_on_c, 0, 68, 67
2, 104136, Control_c, 0, 64, 56
2, 104148, Control_c, 0, 64, 127
2, 104196, Note_on_c, 0, 68, 0
2, 104212, Note_on_c, 0, 67, 70
2, 104280, Note_on_c, 0, 67, 0
2, 104288, Note_on_c, 0, 65, 65
2, 104360, Note_on_c, 0, 65, 0
2, 104364, Note_on_c, 0, 67, 69
2, 104384, Note_on_c, 0, 51, 40
2, 104440, Note_on_c, 0, 67, 0
2, 104448, Note_on_c, 0, 68, 71
2, 104476, Note_on_c, 0, 51, 0
2, 104544, Note_on_c, 0, 68, 0
2, 104548, Control_c, 0, 64, 88
2, 104552, Note_on_c, 0, 70, 69
2, 104560, Control_c, 0, 64, 24
2, 104568, Control_c, 0, 64, 0
2, 104676, Control_c, 0, 64, 104
2, 104688, Control_c, 0, 64, 127
2, 104800, Note_on_c, 0, 61, 0
2, 104812, Note_on_c, 0, 58, 0
2, 104924, Note_on_c, 0, 70, 0
2, 104980, Note_on_c, 0, 68, 57
2, 105040, Note_on_c, 0, 68, 0
2, 105116, Note_on_c, 0, 68, 59
2, 105156, Note_on_c, 0, 52, 38
2, 105156, Note_on_c, 0, 56, 35
2, 105156, Note_on_c, 0, 59, 37
2, 105156, Control_c, 0, 64, 88
2, 105164, Control_c, 0, 64, 24
2, 105176, Control_c, 0, 64, 0
2, 105340, Note_on_c, 0, 59, 0
2, 105340, Note_on_c, 0, 56, 0
2, 105340, Note_on_c, 0, 52, 0
2, 105344, Note_on_c, 0, 68, 0
2, 107000, Note_on_c, 0, 51, 77
2, 107000, Note_on_c, 0, 39, 61
2, 107068, Note_on_c, 0, 39, 0
2, 107084, Note_on_c, 0, 52, 85
2, 107084, Note_on_c, 0, 40, 63
2, 107096, Note_on_c, 0, 51, 0
2, 107144, Note_on_c, 0, 52, 0
2, 107144, Note_on_c, 0, 54, 67
2, 107144, Note_on_c, 0, 42, 61
2, 107152, Note_on_c, 0, 40, 0
2, 107220, Note_on_c, 0, 42, 0
2, 107224, Note_on_c, 0, 52, 81
2, 107224, Note_on_c, 0, 40, 67
2, 107240, Note_on_c, 0, 54, 0
2, 107288, Note_on_c, 0, 51, 82
2, 107288, Note_on_c, 0, 39, 62
2, 107304, Note_on_c, 0, 40, 0
2, 107312, Note_on_c, 0, 52, 0
2, 107356, Note_on_c, 0, 49, 79
2, 107356, Note_on_c, 0, 37, 57
2, 107360, Note_on_c, 0, 51, 0
2, 107360, Note_on_c, 0, 39, 0
2, 107412, Note_on_c, 0, 49, 0
2, 107420, Note_on_c, 0, 37, 0
2, 107436, Note_on_c, 0, 47, 82
2, 107436, Note_on_c, 0, 35, 74
2, 107516, Note_on_c, 0, 46, 80
2, 107516, Note_on_c, 0, 34, 72
2, 107524, Note_on_c, 0, 47, 0
2, 107568, Note_on_c, 0, 35, 0
2, 107612, Note_on_c, 0, 44, 84
2, 107612, Note_on_c, 0, 32, 71
2, 107616, Note_on_c, 0, 34, 0
2, 107620, Note_on_c, 0, 46, 0
2, 107916, Note_on_c, 0, 32, 0
2, 107920, Note_on_c, 0, 44, 0
2, 109604, Note_on_c, 0, 51, 72
2, 109604, Note_on_c, 0, 39, 70
2, 109656, Note_on_c, 0, 39, 0
2, 109656, Note_on_c, 0, 51, 0
2, 109664, Note_on_c, 0, 58, 74
2, 109664, Note_on_c, 0, 46, 72
2, 109712, Note_on_c, 0, 46, 0
2, 109712, Note_on_c, 0, 58, 0
2, 109724, Note_on_c, 0, 61, 76
2, 109724, Note_on_c, 0, 49, 72
2, 109772, Note_on_c, 0, 49, 0
2, 109772, Note_on_c, 0, 61, 0
2, 109784, Note_on_c, 0, 64, 78
2, 109784, Note_on_c, 0, 52, 72
2, 109832, Note_on_c, 0, 52, 0
2, 109832, Note_on_c, 0, 64, 0
2, 109844, Note_on_c, 0, 63, 77
2, 109844, Note_on_c, 0, 51, 72
2, 109892, Note_on_c, 0, 51, 0
2, 109892, Note_on_c, 0, 63, 0
2, 109904, Note_on_c, 0, 61, 76
2, 109904, Note_on_c, 0, 49, 72
2, 109952, Note_on_c, 0, 49, 0
2, 109952, Note_on_c, 0, 61, 0
2, 109964, Note_on_c, 0, 59, 75
2, 109964, Note_on_c, 0, 47, 72
2, 110012, Note_on_c, 0, 47, 0
2, 110012, Note_on_c, 0, 59, 0
2, 110024, Note_on_c, 0, 58, 74
2, 110024, Note_on_c, 0, 46, 72
2, 110072, Note_on_c, 0, 46, 0
2, 110072, Note_on_c, 0, 58, 0
2, 110084, Note_on_c, 0, 56, 73
2, 110084, Note_on_c, 0, 44, 72
2, 110132, Note_on_c, 0, 44, 0
2, 110132, Note_on_c, 0, 56, 0
2, 110144, Note_on_c, 0, 55, 73
2, 110144, Note_on_c, 0, 43, 69
2, 110192, Note_on_c, 0, 43, 0
2, 110192, Note_on_c, 0, 55, 0
2, 110204, Note_on_c, 0, 52, 72
2, 110204, Note_on_c, 0, 40, 69
2, 110252, Note_on_c, 0, 40, 0
2, 110252, Note_on_c, 0, 52, 0
2, 110264, Note_on_c, 0, 51, 71
2, 110264, Note_on_c, 0, 39, 72
2, 110312, Note_on_c, 0, 39, 0
2, 110312, Note_on_c, 0, 51, 0
2, 110324, Note_on_c, 0, 49, 70
2, 110324, Note_on_c, 0, 37, 68
2, 110372, Note_on_c, 0, 37, 0
2, 110372, Note_on_c, 0, 49, 0
2, 110384, Note_on_c, 0, 47, 70
2, 110384, Note_on_c, 0, 35, 68
2, 110432, Note_on_c, 0, 35, 0
2, 110432, Note_on_c, 0, 47, 0
2, 110444, Note_on_c, 0, 46, 70
2, 110444, Note_on_c, 0, 34, 68
2, 110492, Note_on_c, 0, 34, 0
2, 110492, Note_on_c, 0, 46, 0
2, 110504, Note_on_c, 0, 44, 77
2, 110504, Note_on_c, 0, 32, 72
2, 110784, Note_on_c, 0, 32, 0
2, 110784, Note_on_c, 0, 44, 0
2, 112708, Note_on_c, 0, 51, 71
2, 112708, Note_on_c, 0, 39, 71
2, 112756, Note_on_c, 0, 39, 0
2, 112756, Note_on_c, 0, 51, 0
2, 112768, Note_on_c, 0, 55, 72
2, 112768, Note_on_c, 0, 43, 72
2, 112816, Note_on_c, 0, 43, 0
2, 112816, Note_on_c, 0, 55, 0
2, 112828, Note_on_c, 0, 58, 73
2, 112828, Note_on_c, 0, 46, 73
2, 112876, Note_on_c, 0, 46, 0
2, 112876, Note_on_c, 0, 58, 0
2, 112888, Note_on_c, 0, 61, 74
2, 112888, Note_on_c, 0, 49, 74
2, 112936, Note_on_c, 0, 49, 0
2, 112936, Note_on_c, 0, 61, 0
2, 112948, Note_on_c, 0, 63, 75
2, 112948, Note_on_c, 0, 51, 75
2, 112996, Note_on_c, 0, 51, 0
2, 112996, Note_on_c, 0, 63, 0
2, 113008, Note_on_c, 0, 67, 76
2, 113008, Note_on_c, 0, 55, 76
2, 113056, Note_on_c, 0, 55, 0
2, 113056, Note_on_c, 0, 67, 0
2, 113068, Note_on_c, 0, 70, 77
2, 113068, Note_on_c, 0, 58, 77
2, 113116, Note_on_c, 0, 58, 0
2, 113116, Note_on_c, 0, 70, 0
2, 113128, Note_on_c, 0, 73, 78
2, 113128, Note_on_c, 0, 61, 78
2, 113176, Note_on_c, 0, 61, 0
2, 113176, Note_on_c, 0, 73, 0
2, 113188, Note_on_c, 0, 75, 79
2, 113188, Note_on_c, 0, 63, 79
2, 113236, Note_on_c, 0, 63, 0
2, 113236, Note_on_c, 0, 75, 0
2, 113248, Note_on_c, 0, 79, 80
2, 113248, Note_on_c, 0, 67, 80
2, 113296, Note_on_c, 0, 67, 0
2, 113296, Note_on_c, 0, 79, 0
2, 113308, Note_on_c, 0, 82, 81
2, 113308, Note_on_c, 0, 70, 81
2, 113356, Note_on_c, 0, 70, 0
2, 113356, Note_on_c, 0, 82, 0
2, 113368, Note_on_c, 0, 85, 82
2, 113368, Note_on_c, 0, 73, 82
2, 113416, Note_on_c, 0, 73, 0
2, 113416, Note_on_c, 0, 85, 0
2, 113428, Note_on_c, 0, 87, 83
2, 113428, Note_on_c, 0, 75, 83
2, 113476, Note_on_c, 0, 75, 0
2, 113476, Note_on_c, 0, 87, 0
2, 113488, Note_on_c, 0, 91, 84
2, 113488, Note_on_c, 0, 79, 84
2, 113556, Note_on_c, 0, 79, 0
2, 113556, Note_on_c, 0, 91, 0
2, 113576, Note_on_c, 0, 92, 91
2, 113576, Note_on_c, 0, 80, 91
2, 114288, Note_on_c, 0, 80, 0
2, 114288, Note_on_c, 0, 92, 0
2, 115200, Note_on_c, 0, 87, 85
2, 115200, Note_on_c, 0, 75, 76
2, 115332, Note_on_c, 0, 87, 0
2, 115336, Note_on_c, 0, 82, 81
2, 115336, Note_on_c, 0, 70, 69
2, 115340, Note_on_c, 0, 75, 0
2, 115664, Note_on_c, 0, 83, 88
2, 115664, Note_on_c, 0, 71, 63
2, 115676, Note_on_c, 0, 82, 0
2, 115692, Note_on_c, 0, 70, 0
2, 115732, Note_on_c, 0, 83, 0
2, 115736, Note_on_c, 0, 85, 75
2, 115736, Note_on_c, 0, 73, 63
2, 115744, Note_on_c, 0, 71, 0
2, 115816, Note_on_c, 0, 83, 84
2, 115816, Note_on_c, 0, 71, 66
2, 115820, Note_on_c, 0, 73, 0
2, 115840, Note_on_c, 0, 85, 0
2, 115904, Note_on_c, 0, 83, 0
2, 115908, Note_on_c, 0, 82, 82
2, 115908, Note_on_c, 0, 70, 78
2, 115920, Note_on_c, 0, 71, 0
2, 116220, Note_on_c, 0, 82, 0
2, 116244, Note_on_c, 0, 70, 0
2, 116244, Note_on_c, 0, 80, 65
2, 116244, Note_on_c, 0, 68, 43
2, 116660, Note_on_c, 0, 68, 0
2, 116692, Note_on_c, 0, 79, 69
2, 116692, Note_on_c, 0, 67, 61
2, 116716, Note_on_c, 0, 80, 0
2, 116796, Note_on_c, 0, 79, 0
2, 116808, Note_on_c, 0, 67, 0
2, 116812, Note_on_c, 0, 80, 69
2, 116812, Note_on_c, 0, 68, 60
2, 116900, Note_on_c, 0, 80, 0
2, 116916, Note_on_c, 0, 82, 69
2, 116916, Note_on_c, 0, 70, 54
2, 116940, Note_on_c, 0, 68, 0
2, 117004, Note_on_c, 0, 70, 0
2, 117020, Note_on_c, 0, 82, 0
2, 117020, Note_on_c, 0, 83, 78
2, 117020, Note_on_c, 0, 71, 68
2, 117088, Note_on_c, 0, 83, 0
2, 117100, Note_on_c, 0, 71, 0
2, 117104, Note_on_c, 0, 70, 63
2, 117104, Note_on_c, 0, 82, 79
2, 117192, Note_on_c, 0, 80, 77
2, 117192, Note_on_c, 0, 68, 62
2, 117208, Note_on_c, 0, 70, 0
2, 117212, Note_on_c, 0, 82, 0
2, 117276, Note_on_c, 0, 68, 0
2, 117276, Note_on_c, 0, 78, 72
2, 117276, Note_on_c, 0, 66, 61
2, 117308, Note_on_c, 0, 80, 0
2, 117344, Note_on_c, 0, 66, 0
2, 117356, Note_on_c, 0, 78, 0
2, 117360, Note_on_c, 0, 76, 74
2, 117360, Note_on_c, 0, 64, 61
2, 117428, Note_on_c, 0, 75, 73
2, 117428, Note_on_c, 0, 63, 61
2, 117444, Note_on_c, 0, 64, 0
2, 117456, Note_on_c, 0, 76, 0
2, 117512, Note_on_c, 0, 73, 70
2, 117512, Note_on_c, 0, 61, 64
2, 117516, Note_on_c, 0, 75, 0
2, 117520, Note_on_c, 0, 63, 0
2, 117588, Note_on_c, 0, 61, 0
2, 117596, Note_on_c, 0, 71, 69
2, 117596, Note_on_c, 0, 59, 60
2, 117600, Note_on_c, 0, 73, 0
2, 117668, Note_on_c, 0, 59, 0
2, 117684, Note_on_c, 0, 73, 64
2, 117684, Note_on_c, 0, 61, 64
2, 117692, Note_on_c, 0, 71, 0
2, 117764, Note_on_c, 0, 73, 0
2, 117768, Note_on_c, 0, 71, 70
2, 117768, Note_on_c, 0, 59, 60
2, 117772, Note_on_c, 0, 61, 0
2, 117852, Note_on_c, 0, 71, 0
2, 117852, Note_on_c, 0, 70, 65
2, 117852, Note_on_c, 0, 58, 58
2, 117860, Note_on_c, 0, 59, 0
2, 117940, Note_on_c, 0, 70, 0
2, 117940, Note_on_c, 0, 71, 74
2, 117940, Note_on_c, 0, 59, 63
2, 117944, Note_on_c, 0, 58, 0
2, 118024, Note_on_c, 0, 71, 0
2, 118028, Note_on_c, 0, 73, 68
2, 118028, Note_on_c, 0, 61, 59
2, 118032, Note_on_c, 0, 59, 0
2, 118316, Note_on_c, 0, 61, 0
2, 118320, Note_on_c, 0, 73, 0
2, 118324, Note_on_c, 0, 63, 61
2, 118324, Note_on_c, 0, 75, 69
2, 118364, Note_on_c, 0, 75, 0
2, 118368, Note_on_c, 0, 63, 0
2, 118400, Note_on_c, 0, 75, 73
2, 118400, Note_on_c, 0, 63, 68
2, 118880, Note_on_c, 0, 75, 0
2, 118924, Note_on_c, 0, 63, 0
2, 118940, Note_on_c, 0, 68, 49
2, 118940, Note_on_c, 0, 56, 39
2, 119416, Note_on_c, 0, 56, 0
2, 119460, Note_on_c, 0, 68, 0
2, 119616, Note_on_c, 0, 68, 42
2, 119616, Note_on_c, 0, 56, 43
2, 119736, Note_on_c, 0, 68, 0
2, 119740, Note_on_c, 0, 56, 0
2, 119744, Note_on_c, 0, 67, 58
2, 119744, Note_on_c, 0, 55, 59
2, 119824, Note_on_c, 0, 67, 0
2, 119832, Note_on_c, 0, 68, 60
2, 119832, Note_on_c, 0, 56, 53
2, 119836, Note_on_c, 0, 55, 0
2, 119932, Note_on_c, 0, 68, 0
2, 119936, Note_on_c, 0, 70, 62
2, 119936, Note_on_c, 0, 58, 50
2, 119960, Note_on_c, 0, 56, 0
2, 120028, Note_on_c, 0, 70, 0
2, 120036, Note_on_c, 0, 58, 0
2, 120044, Note_on_c, 0, 71, 68
2, 120044, Note_on_c, 0, 59, 54
2, 120132, Note_on_c, 0, 71, 0
2, 120156, Note_on_c, 0, 59, 0
2, 120164, Note_on_c, 0, 70, 62
2, 120164, Note_on_c, 0, 58, 49
2, 120256, Note_on_c, 0, 70, 0
2, 120268, Note_on_c, 0, 58, 0
2, 120268, Note_on_c, 0, 71, 74
2, 120268, Note_on_c, 0, 59, 59
2, 120424, Note_on_c, 0, 59, 0
2, 120432, Note_on_c, 0, 75, 73
2, 120432, Note_on_c, 0, 63, 53
2, 120444, Note_on_c, 0, 71, 0
2, 120960, Note_on_c, 0, 73, 46
2, 120960, Note_on_c, 0, 61, 40
2, 120968, Note_on_c, 0, 75, 0
2, 120996, Note_on_c, 0, 63, 0
2, 121436, Note_on_c, 0, 73, 0
2, 121464, Note_on_c, 0, 61, 0
2, 121584, Note_on_c, 0, 73, 45
2, 121584, Note_on_c, 0, 61, 35
2, 121672, Note_on_c, 0, 73, 0
2, 121680, Note_on_c, 0, 75, 52
2, 121680, Note_on_c, 0, 63, 37
2, 121692, Note_on_c, 0, 61, 0
2, 121736, Note_on_c, 0, 75, 0
2, 121744, Note_on_c, 0, 63, 0
2, 121776, Note_on_c, 0, 76, 54
2, 121776, Note_on_c, 0, 64, 46
2, 121840, Note_on_c, 0, 64, 0
2, 121840, Note_on_c, 0, 76, 0
2, 121852, Note_on_c, 0, 78, 52
2, 121852, Note_on_c, 0, 66, 42
2, 121904, Note_on_c, 0, 78, 0
2, 121928, Note_on_c, 0, 66, 0
2, 121936, Note_on_c, 0, 68, 43
2, 121936, Note_on_c, 0, 80, 57
2, 122012, Note_on_c, 0, 82, 57
2, 122012, Note_on_c, 0, 70, 44
2, 122028, Note_on_c, 0, 80, 0
2, 122036, Note_on_c, 0, 68, 0
2, 122076, Note_on_c, 0, 70, 0
2, 122100, Note_on_c, 0, 83, 69
2, 122100, Note_on_c, 0, 71, 53
2, 122124, Note_on_c, 0, 82, 0
2, 122144, Note_on_c, 0, 83, 0
2, 122176, Note_on_c, 0, 71, 0
2, 122184, Note_on_c, 0, 87, 59
2, 122184, Note_on_c, 0, 75, 47
2, 122268, Note_on_c, 0, 75, 0
2, 122276, Note_on_c, 0, 73, 54
2, 122276, Note_on_c, 0, 85, 69
2, 122288, Note_on_c, 0, 87, 0
2, 122360, Note_on_c, 0, 73, 0
2, 122372, Note_on_c, 0, 83, 70
2, 122372, Note_on_c, 0, 71, 55
2, 122380, Note_on_c, 0, 85, 0
2, 122420, Note_on_c, 0, 71, 0
2, 122436, Note_on_c, 0, 83, 0
2, 122472, Note_on_c, 0, 71, 53
2, 122472, Note_on_c, 0, 83, 65
2, 123044, Note_on_c, 0, 70, 44
2, 123044, Note_on_c, 0, 82, 45
2, 123048, Note_on_c, 0, 83, 0
2, 123064, Note_on_c, 0, 71, 0
2, 123532, Note_on_c, 0, 82, 0
2, 123564, Note_on_c, 0, 70, 0
2, 126016, Note_on_c, 0, 88, 74
2, 126016, Note_on_c, 0, 76, 93
2, 126108, Note_on_c, 0, 76, 0
2, 126128, Note_on_c, 0, 88, 0
2, 126136, Note_on_c, 0, 84, 93
2, 126136, Note_on_c, 0, 72, 81
2, 126468, Note_on_c, 0, 84, 0
2, 126492, Note_on_c, 0, 72, 0
2, 126492, Note_on_c, 0, 85, 81
2, 126496, Note_on_c, 0, 73, 77
2, 126584, Note_on_c, 0, 73, 0
2, 126584, Note_on_c, 0, 85, 0
2, 126584, Note_on_c, 0, 75, 76
2, 126588, Note_on_c, 0, 87, 83
2, 126676, Note_on_c, 0, 75, 0
2, 126680, Note_on_c, 0, 85, 93
2, 126684, Note_on_c, 0, 73, 79
2, 126704, Note_on_c, 0, 87, 0
2, 126740, Note_on_c, 0, 73, 0
2, 126744, Note_on_c, 0, 85, 0
2, 126776, Note_on_c, 0, 73, 80
2, 126776, Note_on_c, 0, 85, 90
2, 127256, Note_on_c, 0, 79, 80
2, 127264, Note_on_c, 0, 85, 0
2, 127264, Note_on_c, 0, 67, 67
2, 127284, Note_on_c, 0, 73, 0
2, 127812, Note_on_c, 0, 67, 0
2, 127828, Note_on_c, 0, 79, 0
2, 127908, Note_on_c, 0, 67, 79
2, 127912, Note_on_c, 0, 79, 90
2, 128020, Note_on_c, 0, 79, 0
2, 128032, Note_on_c, 0, 68, 64
2, 128036, Note_on_c, 0, 67, 0
2, 128040, Note_on_c, 0, 80, 78
2, 128128, Note_on_c, 0, 68, 0
2, 128140, Note_on_c, 0, 80, 0
2, 128140, Note_on_c, 0, 69, 75
2, 128144, Note_on_c, 0, 81, 82
2, 128236, Note_on_c, 0, 69, 0
2, 128256, Note_on_c, 0, 81, 0
2, 128260, Note_on_c, 0, 82, 83
2, 128264, Note_on_c, 0, 70, 61
2, 128344, Note_on_c, 0, 70, 0
2, 128360, Note_on_c, 0, 61, 55
2, 128372, Note_on_c, 0, 73, 76
2, 128408, Note_on_c, 0, 82, 0
2, 128460, Note_on_c, 0, 61, 0
2, 128464, Note_on_c, 0, 63, 61
2, 128480, Note_on_c, 0, 75, 81
2, 128504, Note_on_c, 0, 73, 0
2, 128556, Note_on_c, 0, 63, 0
2, 128576, Note_on_c, 0, 66, 65
2, 128580, Note_on_c, 0, 75, 0
2, 128580, Note_on_c, 0, 78, 79
2, 128692, Note_on_c, 0, 76, 83
2, 128700, Note_on_c, 0, 78, 0
2, 128704, Note_on_c, 0, 66, 0
2, 128704, Note_on_c, 0, 64, 63
2, 128792, Note_on_c, 0, 75, 81
2, 128796, Note_on_c, 0, 64, 0
2, 128800, Note_on_c, 0, 63, 60
2, 128808, Note_on_c, 0, 76, 0
2, 128892, Note_on_c, 0, 73, 77
2, 128900, Note_on_c, 0, 61, 56
2, 128908, Note_on_c, 0, 75, 0
2, 128932, Note_on_c, 0, 63, 0
2, 128976, Note_on_c, 0, 61, 0
2, 128996, Note_on_c, 0, 59, 70
2, 129000, Note_on_c, 0, 73, 0
2, 129000, Note_on_c, 0, 71, 81
2, 129108, Note_on_c, 0, 71, 0
2, 129112, Note_on_c, 0, 70, 78
2, 129116, Note_on_c, 0, 58, 71
2, 129120, Note_on_c, 0, 59, 0
2, 129212, Note_on_c, 0, 70, 0
2, 129220, Note_on_c, 0, 71, 85
2, 129228, Note_on_c, 0, 58, 0
2, 129236, Note_on_c, 0, 59, 71
2, 129312, Note_on_c, 0, 59, 0
2, 129316, Note_on_c, 0, 58, 62
2, 129324, Note_on_c, 0, 71, 0
2, 129324, Note_on_c, 0, 70, 81
2, 129412, Note_on_c, 0, 70, 0
2, 129412, Note_on_c, 0, 58, 0
2, 129420, Note_on_c, 0, 69, 80
2, 129428, Note_on_c, 0, 57, 65
2, 129508, Note_on_c, 0, 70, 74
2, 129512, Note_on_c, 0, 69, 0
2, 129516, Note_on_c, 0, 57, 0
2, 129520, Note_on_c, 0, 58, 71
2, 129588, Note_on_c, 0, 70, 0
2, 129604, Note_on_c, 0, 58, 0
2, 129608, Note_on_c, 0, 71, 83
2, 129616, Note_on_c, 0, 59, 76
2, 129736, Note_on_c, 0, 63, 65
2, 129740, Note_on_c, 0, 75, 81
2, 129748, Note_on_c, 0, 71, 0
2, 129752, Note_on_c, 0, 59, 0
2, 129860, Note_on_c, 0, 73, 75
2, 129868, Note_on_c, 0, 61, 67
2, 129876, Note_on_c, 0, 63, 0
2, 129880, Note_on_c, 0, 75, 0
2, 129960, Note_on_c, 0, 61, 0
2, 129972, Note_on_c, 0, 59, 70
2, 129972, Note_on_c, 0, 71, 80
2, 129988, Note_on_c, 0, 73, 0
2, 130064, Note_on_c, 0, 70, 80
2, 130068, Note_on_c, 0, 58, 61
2, 130080, Note_on_c, 0, 71, 0
2, 130080, Note_on_c, 0, 59, 0
2, 130160, Note_on_c, 0, 70, 0
2, 130164, Note_on_c, 0, 68, 73
2, 130164, Note_on_c, 0, 56, 63
2, 130168, Note_on_c, 0, 58, 0
2, 130244, Note_on_c, 0, 68, 0
2, 130256, Note_on_c, 0, 56, 0
2, 130264, Note_on_c, 0, 55, 74
2, 130272, Note_on_c, 0, 67, 74
2, 130360, Note_on_c, 0, 67, 0
2, 130364, Note_on_c, 0, 68, 80
2, 130368, Note_on_c, 0, 56, 79
2, 130376, Note_on_c, 0, 55, 0
2, 130456, Note_on_c, 0, 56, 0
2, 130476, Note_on_c, 0, 70, 75
2, 130480, Note_on_c, 0, 58, 62
2, 130500, Note_on_c, 0, 68, 0
2, 130572, Note_on_c, 0, 70, 0
2, 130572, Note_on_c, 0, 61, 70
2, 130576, Note_on_c, 0, 58, 0
2, 130580, Note_on_c, 0, 49, 65
2, 130672, Note_on_c, 0, 49, 0
2, 130672, Note_on_c, 0, 61, 0
2, 130672, Note_on_c, 0, 51, 68
2, 130676, Note_on_c, 0, 63, 71
2, 130768, Note_on_c, 0, 63, 0
2, 130772, Note_on_c, 0, 51, 0
2, 130780, Note_on_c, 0, 64, 79
2, 130784, Note_on_c, 0, 52, 77
2, 130872, Note_on_c, 0, 64, 0
2, 130892, Note_on_c, 0, 58, 75
2, 130896, Note_on_c, 0, 52, 0
2, 130900, Note_on_c, 0, 46, 69
2, 131000, Note_on_c, 0, 58, 0
2, 131008, Note_on_c, 0, 52, 74
2, 131008, Note_on_c, 0, 64, 83
2, 131020, Note_on_c, 0, 46, 0
2, 131108, Note_on_c, 0, 64, 0
2, 131112, Note_on_c, 0, 52, 0
2, 131124, Note_on_c, 0, 63, 78
2, 131132, Note_on_c, 0, 51, 78
2, 131372, Note_on_c, 0, 51, 0
2, 131448, Note_on_c, 0, 63, 0
2, 131464, Note_on_c, 0, 61, 77
2, 131468, Note_on_c, 0, 49, 85
2, 131512, Note_on_c, 0, 49, 0
2, 131512, Note_on_c, 0, 61, 0
2, 131544, Note_on_c, 0, 61, 88
2, 131556, Note_on_c, 0, 49, 79
2, 131964, Note_on_c, 0, 49, 0
2, 131964, Note_on_c, 0, 60, 83
2, 131968, Note_on_c, 0, 61, 0
2, 131980, Note_on_c, 0, 48, 76
2, 132152, Note_on_c, 0, 63, 72
2, 132152, Note_on_c, 0, 51, 69
2, 132180, Note_on_c, 0, 48, 0
2, 132180, Note_on_c, 0, 60, 0
2, 132228, Note_on_c, 0, 66, 71
2, 132236, Note_on_c, 0, 54, 58
2, 132268, Note_on_c, 0, 51, 0
2, 132280, Note_on_c, 0, 63, 0
2, 132300, Note_on_c, 0, 69, 76
2, 132300, Note_on_c, 0, 57, 66
2, 132328, Note_on_c, 0, 66, 0
2, 132332, Note_on_c, 0, 54, 0
2, 132372, Note_on_c, 0, 72, 86
2, 132372, Note_on_c, 0, 60, 58
2, 132380, Note_on_c, 0, 69, 0
2, 132384, Note_on_c, 0, 57, 0
2, 132416, Note_on_c, 0, 60, 0
2, 132440, Note_on_c, 0, 72, 0
2, 132440, Note_on_c, 0, 75, 77
2, 132440, Note_on_c, 0, 63, 61
2, 132504, Note_on_c, 0, 63, 0
2, 132504, Note_on_c, 0, 78, 71
2, 132504, Note_on_c, 0, 66, 67
2, 132520, Note_on_c, 0, 75, 0
2, 132576, Note_on_c, 0, 66, 0
2, 132584, Note_on_c, 0, 81, 92
2, 132584, Note_on_c, 0, 69, 79
2, 132596, Note_on_c, 0, 78, 0
2, 132864, Note_on_c, 0, 80, 84
2, 132884, Note_on_c, 0, 68, 60
2, 132888, Note_on_c, 0, 81, 0
2, 132908, Note_on_c, 0, 69, 0
2, 133000, Note_on_c, 0, 78, 77
2, 133012, Note_on_c, 0, 80, 0
2, 133012, Note_on_c, 0, 68, 0
2, 133012, Note_on_c, 0, 66, 58
2, 133104, Note_on_c, 0, 66, 0
2, 133116, Note_on_c, 0, 78, 0
2, 133132, Note_on_c, 0, 76, 84
2, 133140, Note_on_c, 0, 64, 62
2, 133208, Note_on_c, 0, 64, 0
2, 133224, Note_on_c, 0, 76, 0
2, 133252, Note_on_c, 0, 75, 75
2, 133264, Note_on_c, 0, 63, 62
2, 133332, Note_on_c, 0, 75, 0
2, 133336, Note_on_c, 0, 63, 0
2, 133380, Note_on_c, 0, 73, 77
2, 133392, Note_on_c, 0, 61, 61
2, 133476, Note_on_c, 0, 61, 0
2, 133500, Note_on_c, 0, 73, 0
2, 133516, Note_on_c, 0, 72, 88
2, 133524, Note_on_c, 0, 60, 69
2, 133628, Note_on_c, 0, 60, 0
2, 133644, Note_on_c, 0, 72, 0
2, 133680, Note_on_c, 0, 75, 85
2, 133684, Note_on_c, 0, 63, 68
2, 134228, Note_on_c, 0, 61, 58
2, 134232, Note_on_c, 0, 73, 69
2, 134236, Note_on_c, 0, 75, 0
2, 134240, Note_on_c, 0, 63, 0
2, 134524, Note_on_c, 0, 61, 0
2, 134548, Note_on_c, 0, 73, 0
2, 134632, Note_on_c, 0, 68, 77
2, 134652, Note_on_c, 0, 56, 64
2, 134776, Note_on_c, 0, 68, 0
2, 134780, Note_on_c, 0, 56, 0
2, 134796, Note_on_c, 0, 64, 77
2, 134796, Note_on_c, 0, 76, 89
2, 135224, Note_on_c, 0, 64, 0
2, 135228, Note_on_c, 0, 63, 65
2, 135228, Note_on_c, 0, 75, 76
2, 135244, Note_on_c, 0, 76, 0
2, 135292, Note_on_c, 0, 63, 0
2, 135316, Note_on_c, 0, 75, 0
2, 135320, Note_on_c, 0, 76, 79
2, 135320, Note_on_c, 0, 64, 72
2, 135384, Note_on_c, 0, 64, 0
2, 135384, Note_on_c, 0, 63, 55
2, 135384, Note_on_c, 0, 75, 67
2, 135400, Note_on_c, 0, 76, 0
2, 135436, Note_on_c, 0, 73, 70
2, 135436, Note_on_c, 0, 61, 58
2, 135444, Note_on_c, 0, 75, 0
2, 135444, Note_on_c, 0, 63, 0
2, 135500, Note_on_c, 0, 75, 71
2, 135500, Note_on_c, 0, 63, 57
2, 135512, Note_on_c, 0, 73, 0
2, 135516, Note_on_c, 0, 61, 0
2, 135560, Note_on_c, 0, 63, 0
2, 135568, Note_on_c, 0, 76, 76
2, 135568, Note_on_c, 0, 64, 71
2, 135584, Note_on_c, 0, 75, 0
2, 135612, Note_on_c, 0, 78, 78
2, 135612, Note_on_c, 0, 66, 65
2, 135648, Note_on_c, 0, 76, 0
2, 135652, Note_on_c, 0, 64, 0
2, 135688, Note_on_c, 0, 80, 82
2, 135688, Note_on_c, 0, 68, 73
2, 135692, Note_on_c, 0, 66, 0
2, 135704, Note_on_c, 0, 78, 0
2, 135952, Note_on_c, 0, 68, 0
2, 136024, Note_on_c, 0, 63, 71
2, 136024, Note_on_c, 0, 75, 82
2, 136056, Note_on_c, 0, 80, 0
2, 136112, Note_on_c, 0, 75, 0
2, 136112, Note_on_c, 0, 78, 80
2, 136128, Note_on_c, 0, 66, 74
2, 136132, Note_on_c, 0, 63, 0
2, 136712, Note_on_c, 0, 78, 0
2, 136724, Note_on_c, 0, 76, 68
2, 136728, Note_on_c, 0, 64, 61
2, 136736, Note_on_c, 0, 66, 0
2, 137028, Note_on_c, 0, 64, 0
2, 137116, Note_on_c, 0, 76, 0
2, 137280, Note_on_c, 0, 79, 81
2, 137280, Note_on_c, 0, 67, 63
2, 137348, Note_on_c, 0, 67, 0
2, 137348, Note_on_c, 0, 68, 59
2, 137364, Note_on_c, 0, 80, 83
2, 137384, Note_on_c, 0, 79, 0
2, 137420, Note_on_c, 0, 70, 60
2, 137432, Note_on_c, 0, 82, 71
2, 137440, Note_on_c, 0, 68, 0
2, 137456, Note_on_c, 0, 80, 0
2, 137500, Note_on_c, 0, 70, 0
2, 137508, Note_on_c, 0, 83, 86
2, 137516, Note_on_c, 0, 71, 65
2, 137528, Note_on_c, 0, 82, 0
2, 137564, Note_on_c, 0, 83, 0
2, 137576, Note_on_c, 0, 82, 69
2, 137588, Note_on_c, 0, 71, 0
2, 137588, Note_on_c, 0, 70, 64
2, 137656, Note_on_c, 0, 70, 0
2, 137660, Note_on_c, 0, 83, 85
2, 137668, Note_on_c, 0, 71, 68
2, 137684, Note_on_c, 0, 82, 0
2, 137736, Note_on_c, 0, 85, 65
2, 137740, Note_on_c, 0, 73, 71
2, 137748, Note_on_c, 0, 71, 0
2, 137748, Note_on_c, 0, 83, 0
2, 137808, Note_on_c, 0, 87, 69
2, 137824, Note_on_c, 0, 73, 0
2, 137824, Note_on_c, 0, 75, 77
2, 137836, Note_on_c, 0, 85, 0
2, 137888, Note_on_c, 0, 88, 97
2, 137896, Note_on_c, 0, 87, 0
2, 137904, Note_on_c, 0, 75, 0
2, 137904, Note_on_c, 0, 76, 85
2, 138312, Note_on_c, 0, 88, 0
2, 138316, Note_on_c, 0, 76, 0
2, 138324, Note_on_c, 0, 79, 79
2, 138336, Note_on_c, 0, 67, 75
2, 138428, Note_on_c, 0, 67, 0
2, 138428, Note_on_c, 0, 68, 83
2, 138428, Note_on_c, 0, 80, 95
2, 138444, Note_on_c, 0, 79, 0
2, 138828, Note_on_c, 0, 80, 0
2, 138840, Note_on_c, 0, 68, 0
2, 139040, Note_on_c, 0, 95, 99
2, 139048, Note_on_c, 0, 83, 77
2, 139480, Note_on_c, 0, 83, 0
2, 139484, Note_on_c, 0, 95, 0
2, 139652, Note_on_c, 0, 91, 88
2, 139664, Note_on_c, 0, 79, 62
2, 139740, Note_on_c, 0, 79, 0
2, 139744, Note_on_c, 0, 91, 0
2, 139752, Note_on_c, 0, 80, 71
2, 139760, Note_on_c, 0, 92, 85
2, 139844, Note_on_c, 0, 92, 0
2, 139848, Note_on_c, 0, 80, 0
2, 139852, Note_on_c, 0, 82, 62
2, 139852, Note_on_c, 0, 94, 71
2, 139916, Note_on_c, 0, 94, 0
2, 139940, Note_on_c, 0, 82, 0
2, 139948, Note_on_c, 0, 92, 83
2, 139948, Note_on_c, 0, 80, 61
2, 140016, Note_on_c, 0, 92, 0
2, 140024, Note_on_c, 0, 80, 0
2, 140032, Note_on_c, 0, 77, 68
2, 140036, Note_on_c, 0, 89, 74
2, 140108, Note_on_c, 0, 89, 0
2, 140112, Note_on_c, 0, 86, 79
2, 140124, Note_on_c, 0, 77, 0
2, 140124, Note_on_c, 0, 74, 63
2, 140176, Note_on_c, 0, 74, 0
2, 140208, Note_on_c, 0, 86, 0
2, 140208, Note_on_c, 0, 83, 84
2, 140208, Note_on_c, 0, 71, 61
2, 140288, Note_on_c, 0, 71, 0
2, 140308, Note_on_c, 0, 67, 54
2, 140308, Note_on_c, 0, 79, 82
2, 140324, Note_on_c, 0, 83, 0
2, 140392, Note_on_c, 0, 67, 0
2, 140396, Note_on_c, 0, 79, 0
2, 140408, Note_on_c, 0, 68, 77
2, 140408, Note_on_c, 0, 80, 85
2, 140500, Note_on_c, 0, 80, 0
2, 140500, Note_on_c, 0, 82, 74
2, 140504, Note_on_c, 0, 68, 0
2, 140504, Note_on_c, 0, 70, 69
2, 140592, Note_on_c, 0, 80, 75
2, 140592, Note_on_c, 0, 68, 64
2, 140600, Note_on_c, 0, 70, 0
2, 140604, Note_on_c, 0, 82, 0
2, 140672, Note_on_c, 0, 68, 0
2, 140672, Note_on_c, 0, 65, 65
2, 140676, Note_on_c, 0, 80, 0
2, 140676, Note_on_c, 0, 77, 81
2, 140756, Note_on_c, 0, 77, 0
2, 140760, Note_on_c, 0, 74, 82
2, 140768, Note_on_c, 0, 62, 65
2, 140776, Note_on_c, 0, 65, 0
2, 140824, Note_on_c, 0, 62, 0
2, 140844, Note_on_c, 0, 74, 0
2, 140852, Note_on_c, 0, 71, 71
2, 140864, Note_on_c, 0, 59, 73
2, 140944, Note_on_c, 0, 68, 69
2, 140944, Note_on_c, 0, 56, 59
2, 140964, Note_on_c, 0, 59, 0
2, 140964, Note_on_c, 0, 71, 0
2, 141032, Note_on_c, 0, 70, 67
2, 141040, Note_on_c, 0, 68, 0
2, 141044, Note_on_c, 0, 58, 58
2, 141048, Note_on_c, 0, 56, 0
2, 141128, Note_on_c, 0, 68, 69
2, 141128, Note_on_c, 0, 56, 62
2, 141136, Note_on_c, 0, 70, 0
2, 141144, Note_on_c, 0, 58, 0
2, 141224, Note_on_c, 0, 56, 0
2, 141224, Note_on_c, 0, 67, 72
2, 141228, Note_on_c, 0, 55, 68
2, 141232, Note_on_c, 0, 68, 0
2, 141320, Note_on_c, 0, 55, 0
2, 141320, Note_on_c, 0, 56, 69
2, 141324, Note_on_c, 0, 68, 74
2, 141340, Note_on_c, 0, 67, 0
2, 141444, Note_on_c, 0, 68, 0
2, 141444, Note_on_c, 0, 71, 68
2, 141444, Note_on_c, 0, 59, 67
2, 141456, Note_on_c, 0, 56, 0
2, 142064, Note_on_c, 0, 70, 47
2, 142064, Note_on_c, 0, 58, 46
2, 142096, Note_on_c, 0, 59, 0
2, 142096, Note_on_c, 0, 71, 0
2, 143076, Note_on_c, 0, 70, 0
2, 143084, Note_on_c, 0, 58, 0
2, 143268, Note_on_c, 0, 66, 60
2, 143276, Note_on_c, 0, 54, 51
2, 143456, Control_c, 0, 64, 56
2, 143468, Control_c, 0, 64, 88
2, 143480, Control_c, 0, 64, 104
2, 143496, Control_c, 0, 64, 127
2, 143604, Note_on_c, 0, 66, 0
2, 143608, Note_on_c, 0, 54, 0
2, 143760, Note_on_c, 0, 66, 55
2, 143760, Note_on_c, 0, 54, 49
2, 143844, Note_on_c, 0, 54, 0
2, 143852, Note_on_c, 0, 66, 0
2, 143940, Note_on_c, 0, 54, 46
2, 143940, Note_on_c, 0, 66, 58
2, 144000, Control_c, 0, 64, 104
2, 144012, Control_c, 0, 64, 56
2, 144024, Control_c, 0, 64, 24
2, 144036, Control_c, 0, 64, 0
2, 144164, Control_c, 0, 64, 40
2, 144176, Control_c, 0, 64, 56
2, 144192, Control_c, 0, 64, 72
2, 144216, Control_c, 0, 64, 88
2, 144360, Control_c, 0, 64, 104
2, 144500, Control_c, 0, 64, 127
2, 144632, Control_c, 0, 64, 88
2, 144644, Control_c, 0, 64, 40
2, 144656, Control_c, 0, 64, 0
2, 144688, Note_on_c, 0, 54, 0
2, 144688, Note_on_c, 0, 68, 65
2, 144688, Note_on_c, 0, 56, 56
2, 144728, Note_on_c, 0, 66, 0
2, 144824, Control_c, 0, 64, 24
2, 144836, Control_c, 0, 64, 40
2, 144848, Note_on_c, 0, 56, 0
2, 144848, Note_on_c, 0, 70, 67
2, 144848, Control_c, 0, 64, 56
2, 144852, Note_on_c, 0, 68, 0
2, 144852, Note_on_c, 0, 58, 46
2, 144860, Control_c, 0, 64, 72
2, 144876, Control_c, 0, 64, 88
2, 144952, Control_c, 0, 64, 72
2, 144968, Control_c, 0, 64, 40
2, 144980, Control_c, 0, 64, 0
2, 145004, Note_on_c, 0, 58, 0
2, 145004, Note_on_c, 0, 70, 0
2, 145008, Note_on_c, 0, 71, 69
2, 145008, Note_on_c, 0, 59, 56
2, 145152, Note_on_c, 0, 73, 73
2, 145156, Note_on_c, 0, 61, 56
2, 145160, Note_on_c, 0, 71, 0
2, 145168, Note_on_c, 0, 59, 0
2, 145172, Control_c, 0, 64, 24
2, 145188, Control_c, 0, 64, 40
2, 145252, Control_c, 0, 64, 0
2, 145288, Note_on_c, 0, 63, 46
2, 145296, Note_on_c, 0, 61, 0
2, 145296, Note_on_c, 0, 75, 73
2, 145300, Note_on_c, 0, 73, 0
2, 145436, Note_on_c, 0, 61, 57
2, 145436, Note_on_c, 0, 73, 69
2, 145448, Note_on_c, 0, 63, 0
2, 145460, Note_on_c, 0, 75, 0
2, 145480, Control_c, 0, 64, 24
2, 145496, Control_c, 0, 64, 40
2, 145508, Control_c, 0, 64, 56
2, 145556, Note_on_c, 0, 61, 0
2, 145556, Control_c, 0, 64, 72
2, 145560, Note_on_c, 0, 73, 0
2, 145564, Note_on_c, 0, 71, 69
2, 145580, Note_on_c, 0, 59, 57
2, 145656, Note_on_c, 0, 71, 0
2, 145680, Note_on_c, 0, 59, 0
2, 145688, Control_c, 0, 64, 24
2, 145700, Note_on_c, 0, 63, 61
2, 145700, Control_c, 0, 64, 0
2, 145704, Note_on_c, 0, 51, 58
2, 145780, Control_c, 0, 64, 24
2, 145792, Control_c, 0, 64, 40
2, 145820, Note_on_c, 0, 63, 0
2, 145824, Note_on_c, 0, 51, 0
2, 145856, Note_on_c, 0, 64, 72
2, 145856, Note_on_c, 0, 52, 54
2, 145868, Control_c, 0, 64, 56
2, 145908, Control_c, 0, 64, 72
2, 145984, Note_on_c, 0, 64, 0
2, 145988, Control_c, 0, 64, 88
2, 145992, Note_on_c, 0, 52, 0
2, 145996, Note_on_c, 0, 66, 68
2, 145996, Note_on_c, 0, 54, 55
2, 146152, Control_c, 0, 64, 56
2, 146164, Note_on_c, 0, 54, 0
2, 146168, Control_c, 0, 64, 40
2, 146176, Control_c, 0, 64, 0
2, 146184, Note_on_c, 0, 67, 70
2, 146192, Note_on_c, 0, 55, 54
2, 146204, Note_on_c, 0, 66, 0
2, 146320, Control_c, 0, 64, 40
2, 146336, Control_c, 0, 64, 56
2, 146340, Note_on_c, 0, 67, 0
2, 146340, Note_on_c, 0, 64, 68
2, 146348, Note_on_c, 0, 52, 49
2, 146348, Control_c, 0, 64, 72
2, 146360, Note_on_c, 0, 55, 0
2, 146360, Control_c, 0, 64, 88
2, 146388, Control_c, 0, 64, 104
2, 146424, Control_c, 0, 64, 127
2, 146444, Note_on_c, 0, 64, 0
2, 146448, Note_on_c, 0, 52, 0
2, 146460, Note_on_c, 0, 61, 67
2, 146460, Note_on_c, 0, 49, 56
2, 146556, Note_on_c, 0, 61, 0
2, 146572, Note_on_c, 0, 58, 65
2, 146576, Note_on_c, 0, 49, 0
2, 146592, Note_on_c, 0, 46, 55
2, 146668, Note_on_c, 0, 58, 0
2, 146724, Note_on_c, 0, 46, 0
2, 146760, Note_on_c, 0, 55, 63
2, 146760, Note_on_c, 0, 43, 45
2, 146788, Control_c, 0, 64, 104
2, 146800, Control_c, 0, 64, 88
2, 146812, Control_c, 0, 64, 72
2, 146824, Control_c, 0, 64, 56
2, 146836, Control_c, 0, 64, 40
2, 146852, Control_c, 0, 64, 0
2, 147056, Control_c, 0, 64, 40
2, 147072, Control_c, 0, 64, 56
2, 147084, Control_c, 0, 64, 72
2, 147096, Control_c, 0, 64, 88
2, 147108, Control_c, 0, 64, 104
2, 147120, Control_c, 0, 64, 127
2, 147336, Note_on_c, 0, 43, 0
2, 147380, Note_on_c, 0, 42, 29
2, 147380, Note_on_c, 0, 54, 47
2, 147388, Note_on_c, 0, 55, 0
2, 147392, Control_c, 0, 64, 104
2, 147408, Control_c, 0, 64, 88
2, 147420, Control_c, 0, 64, 56
2, 147432, Control_c, 0, 64, 24
2, 147444, Control_c, 0, 64, 0
2, 147548, Control_c, 0, 64, 40
2, 147564, Control_c, 0, 64, 104
2, 147576, Control_c, 0, 64, 127
2, 147624, Note_on_c, 0, 54, 0
2, 147704, Note_on_c, 0, 42, 0
2, 148116, Control_c, 0, 64, 88
2, 148132, Control_c, 0, 64, 24
2, 148144, Control_c, 0, 64, 0
2, 148232, Control_c, 0, 64, 56
2, 148244, Control_c, 0, 64, 127
2, 148580, Control_c, 0, 64, 104
2, 148592, Control_c, 0, 64, 56
2, 148608, Control_c, 0, 64, 0
2, 148696, Control_c, 0, 64, 72
2, 148708, Control_c, 0, 64, 127
2, 148988, Note_on_c, 0, 66, 62
2, 148988, Note_on_c, 0, 54, 39
2, 148988, Control_c, 0, 64, 104
2, 148988, Control_c, 0, 64, 56
2, 148988, Control_c, 0, 64, 24
2, 148988, Control_c, 0, 64, 0
2, 149024, Control_c, 0, 64, 24
2, 149036, Control_c, 0, 64, 56
2, 149048, Control_c, 0, 64, 72
2, 149060, Control_c, 0, 64, 88
2, 149076, Control_c, 0, 64, 104
2, 149124, Control_c, 0, 64, 127
2, 149296, Control_c, 0, 64, 88
2, 149308, Control_c, 0, 64, 40
2, 149320, Control_c, 0, 64, 0
2, 149332, Note_on_c, 0, 68, 58
2, 149336, Note_on_c, 0, 56, 42
2, 149344, Note_on_c, 0, 66, 0
2, 149368, Note_on_c, 0, 54, 0
2, 149484, Note_on_c, 0, 56, 0
2, 149500, Note_on_c, 0, 68, 0
2, 149504, Note_on_c, 0, 58, 47
2, 149504, Note_on_c, 0, 70, 64
2, 149632, Note_on_c, 0, 70, 0
2, 149644, Note_on_c, 0, 58, 0
2, 149644, Note_on_c, 0, 71, 74
2, 149656, Note_on_c, 0, 59, 62
2, 149768, Note_on_c, 0, 73, 77
2, 149768, Note_on_c, 0, 61, 61
2, 149784, Note_on_c, 0, 59, 0
2, 149792, Note_on_c, 0, 71, 0
2, 149896, Note_on_c, 0, 61, 0
2, 149904, Note_on_c, 0, 64, 66
2, 149908, Note_on_c, 0, 76, 77
2, 149936, Note_on_c, 0, 73, 0
2, 150036, Note_on_c, 0, 75, 82
2, 150040, Note_on_c, 0, 63, 55
2, 150044, Note_on_c, 0, 64, 0
2, 150056, Note_on_c, 0, 76, 0
2, 150148, Note_on_c, 0, 63, 0
2, 150152, Note_on_c, 0, 73, 69
2, 150152, Note_on_c, 0, 61, 47
2, 150168, Note_on_c, 0, 75, 0
2, 150240, Note_on_c, 0, 61, 0
2, 150264, Note_on_c, 0, 71, 77
2, 150264, Note_on_c, 0, 59, 61
2, 150268, Note_on_c, 0, 73, 0
2, 150376, Note_on_c, 0, 59, 0
2, 150376, Note_on_c, 0, 71, 0
2, 150376, Note_on_c, 0, 70, 71
2, 150380, Note_on_c, 0, 58, 51
2, 150480, Note_on_c, 0, 70, 0
2, 150484, Note_on_c, 0, 58, 0
2, 150496, Note_on_c, 0, 71, 79
2, 150504, Note_on_c, 0, 59, 64
2, 150532, Control_c, 0, 64, 24
2, 150548, Control_c, 0, 64, 40
2, 150596, Note_on_c, 0, 71, 0
2, 150612, Note_on_c, 0, 59, 0
2, 150624, Note_on_c, 0, 51, 54
2, 150628, Note_on_c, 0, 63, 68
2, 150724, Note_on_c, 0, 63, 0
2, 150724, Note_on_c, 0, 51, 0
2, 150740, Control_c, 0, 64, 24
2, 150752, Note_on_c, 0, 52, 59
2, 150752, Note_on_c, 0, 64, 70
2, 150780, Control_c, 0, 64, 40
2, 150792, Control_c, 0, 64, 56
2, 150868, Note_on_c, 0, 64, 0
2, 150872, Note_on_c, 0, 52, 0
2, 150872, Note_on_c, 0, 66, 69
2, 150880, Note_on_c, 0, 54, 54
2, 151024, Note_on_c, 0, 54, 0
2, 151024, Control_c, 0, 64, 24
2, 151036, Control_c, 0, 64, 0
2, 151052, Note_on_c, 0, 69, 68
2, 151052, Note_on_c, 0, 57, 54
2, 151072, Note_on_c, 0, 66, 0
2, 151288, Note_on_c, 0, 68, 62
2, 151300, Note_on_c, 0, 56, 53
2, 151304, Note_on_c, 0, 69, 0
2, 151320, Note_on_c, 0, 57, 0
2, 151448, Note_on_c, 0, 66, 64
2, 151448, Note_on_c, 0, 54, 53
2, 151452, Note_on_c, 0, 56, 0
2, 151468, Note_on_c, 0, 68, 0
2, 151492, Control_c, 0, 64, 24
2, 151504, Control_c, 0, 64, 40
2, 151516, Control_c, 0, 64, 56
2, 151560, Note_on_c, 0, 63, 63
2, 151564, Note_on_c, 0, 66, 0
2, 151564, Control_c, 0, 64, 72
2, 151584, Note_on_c, 0, 51, 49
2, 151604, Note_on_c, 0, 54, 0
2, 151620, Control_c, 0, 64, 88
2, 151648, Note_on_c, 0, 51, 0
2, 151672, Note_on_c, 0, 63, 0
2, 151680, Note_on_c, 0, 60, 74
2, 151696, Note_on_c, 0, 48, 71
2, 151832, Note_on_c, 0, 60, 0
2, 151840, Note_on_c, 0, 48, 0
2, 151856, Note_on_c, 0, 45, 55
2, 151856, Note_on_c, 0, 57, 67
2, 151864, Control_c, 0, 64, 72
2, 151876, Control_c, 0, 64, 56
2, 151904, Control_c, 0, 64, 40
2, 151916, Control_c, 0, 64, 24
2, 151928, Control_c, 0, 64, 0
2, 152112, Control_c, 0, 64, 24
2, 152124, Control_c, 0, 64, 56
2, 152136, Control_c, 0, 64, 72
2, 152160, Control_c, 0, 64, 88
2, 152200, Control_c, 0, 64, 104
2, 152304, Control_c, 0, 64, 127
2, 152444, Note_on_c, 0, 57, 0
2, 152460, Note_on_c, 0, 56, 40
2, 152460, Note_on_c, 0, 44, 32
2, 152484, Note_on_c, 0, 45, 0
2, 152508, Control_c, 0, 64, 104
2, 152524, Control_c, 0, 64, 88
2, 152536, Control_c, 0, 64, 72
2, 152548, Control_c, 0, 64, 40
2, 152560, Control_c, 0, 64, 0
2, 152664, Control_c, 0, 64, 24
2, 152680, Control_c, 0, 64, 72
2, 152692, Control_c, 0, 64, 127
2, 152716, Note_on_c, 0, 44, 0
2, 152716, Note_on_c, 0, 56, 0
2, 153064, Control_c, 0, 64, 104
2, 153076, Control_c, 0, 64, 88
2, 153092, Control_c, 0, 64, 40
2, 153104, Control_c, 0, 64, 0
2, 153208, Control_c, 0, 64, 56
2, 153220, Control_c, 0, 64, 104
2, 153232, Control_c, 0, 64, 127
2, 153596, Control_c, 0, 64, 104
2, 153620, Control_c, 0, 64, 88
2, 153632, Control_c, 0, 64, 56
2, 153648, Control_c, 0, 64, 24
2, 153660, Control_c, 0, 64, 0
2, 154244, Note_on_c, 0, 61, 63
2, 154244, Note_on_c, 0, 49, 45
2, 154336, Note_on_c, 0, 61, 0
2, 154340, Note_on_c, 0, 63, 61
2, 154340, Note_on_c, 0, 51, 62
2, 154360, Note_on_c, 0, 49, 0
2, 154396, Note_on_c, 0, 63, 0
2, 154404, Note_on_c, 0, 51, 0
2, 154420, Note_on_c, 0, 52, 66
2, 154420, Note_on_c, 0, 64, 62
2, 154484, Note_on_c, 0, 64, 0
2, 154496, Note_on_c, 0, 66, 68
2, 154496, Note_on_c, 0, 54, 53
2, 154504, Note_on_c, 0, 52, 0
2, 154568, Note_on_c, 0, 68, 70
2, 154568, Note_on_c, 0, 56, 56
2, 154580, Note_on_c, 0, 54, 0
2, 154608, Note_on_c, 0, 66, 0
2, 154636, Note_on_c, 0, 58, 62
2, 154636, Note_on_c, 0, 70, 73
2, 154656, Note_on_c, 0, 68, 0
2, 154656, Note_on_c, 0, 56, 0
2, 154676, Note_on_c, 0, 70, 0
2, 154692, Note_on_c, 0, 58, 0
2, 154708, Note_on_c, 0, 72, 76
2, 154708, Note_on_c, 0, 60, 70
2, 154760, Note_on_c, 0, 72, 0
2, 154764, Note_on_c, 0, 61, 59
2, 154780, Note_on_c, 0, 73, 77
2, 154788, Note_on_c, 0, 60, 0
2, 154840, Note_on_c, 0, 61, 0
2, 154844, Note_on_c, 0, 75, 79
2, 154844, Note_on_c, 0, 63, 67
2, 154868, Note_on_c, 0, 73, 0
2, 154912, Note_on_c, 0, 75, 0
2, 154928, Note_on_c, 0, 63, 0
2, 154928, Note_on_c, 0, 76, 85
2, 154928, Note_on_c, 0, 64, 82
2, 155268, Control_c, 0, 64, 24
2, 155304, Control_c, 0, 64, 40
2, 155392, Control_c, 0, 64, 0
2, 155428, Note_on_c, 0, 73, 60
2, 155428, Note_on_c, 0, 61, 47
2, 155432, Note_on_c, 0, 64, 0
2, 155444, Note_on_c, 0, 76, 0
2, 155500, Note_on_c, 0, 73, 0
2, 155528, Note_on_c, 0, 61, 0
2, 155528, Note_on_c, 0, 76, 68
2, 155528, Note_on_c, 0, 64, 60
2, 155612, Note_on_c, 0, 76, 0
2, 155616, Note_on_c, 0, 78, 70
2, 155616, Note_on_c, 0, 66, 53
2, 155620, Note_on_c, 0, 64, 0
2, 155660, Control_c, 0, 64, 24
2, 155692, Note_on_c, 0, 66, 0
2, 155696, Note_on_c, 0, 80, 74
2, 155696, Note_on_c, 0, 68, 59
2, 155704, Control_c, 0, 64, 40
2, 155712, Control_c, 0, 64, 56
2, 155716, Note_on_c, 0, 78, 0
2, 155756, Note_on_c, 0, 70, 67
2, 155756, Note_on_c, 0, 82, 76
2, 155768, Control_c, 0, 64, 72
2, 155772, Note_on_c, 0, 68, 0
2, 155772, Note_on_c, 0, 80, 0
2, 155792, Note_on_c, 0, 82, 0
2, 155808, Control_c, 0, 64, 88
2, 155816, Note_on_c, 0, 70, 0
2, 155816, Note_on_c, 0, 84, 82
2, 155816, Note_on_c, 0, 72, 73
2, 155864, Note_on_c, 0, 84, 0
2, 155884, Note_on_c, 0, 85, 83
2, 155884, Note_on_c, 0, 73, 68
2, 155892, Note_on_c, 0, 72, 0
2, 155916, Control_c, 0, 64, 72
2, 155948, Note_on_c, 0, 87, 80
2, 155948, Note_on_c, 0, 75, 72
2, 155952, Control_c, 0, 64, 56
2, 155956, Note_on_c, 0, 85, 0
2, 155972, Control_c, 0, 64, 40
2, 155980, Control_c, 0, 64, 24
2, 155992, Control_c, 0, 64, 0
2, 156020, Note_on_c, 0, 73, 0
2, 156024, Note_on_c, 0, 87, 0
2, 156028, Note_on_c, 0, 75, 0
2, 156032, Note_on_c, 0, 88, 86
2, 156032, Note_on_c, 0, 76, 86
2, 156244, Note_on_c, 0, 88, 0
2, 156248, Note_on_c, 0, 76, 0
2, 156292, Note_on_c, 0, 73, 64
2, 156292, Note_on_c, 0, 85, 73
2, 156396, Note_on_c, 0, 85, 0
2, 156400, Note_on_c, 0, 81, 70
2, 156400, Note_on_c, 0, 69, 60
2, 156412, Note_on_c, 0, 73, 0
2, 156484, Note_on_c, 0, 81, 0
2, 156500, Note_on_c, 0, 76, 82
2, 156500, Note_on_c, 0, 64, 67
2, 156516, Note_on_c, 0, 69, 0
2, 156560, Note_on_c, 0, 64, 0
2, 156560, Note_on_c, 0, 76, 0
2, 156612, Note_on_c, 0, 73, 77
2, 156612, Note_on_c, 0, 61, 69
2, 156700, Note_on_c, 0, 61, 0
2, 156704, Note_on_c, 0, 73, 0
2, 156708, Note_on_c, 0, 69, 74
2, 156708, Note_on_c, 0, 57, 62
2, 156784, Note_on_c, 0, 69, 0
2, 156800, Note_on_c, 0, 57, 0
2, 156800, Note_on_c, 0, 64, 71
2, 156800, Note_on_c, 0, 52, 74
2, 156856, Note_on_c, 0, 52, 0
2, 156904, Note_on_c, 0, 64, 0
2, 156916, Note_on_c, 0, 61, 71
2, 156916, Note_on_c, 0, 49, 58
2, 157000, Note_on_c, 0, 61, 0
2, 157004, Note_on_c, 0, 49, 0
2, 157012, Note_on_c, 0, 62, 82
2, 157012, Note_on_c, 0, 50, 73
2, 157096, Note_on_c, 0, 50, 0
2, 157104, Note_on_c, 0, 62, 0
2, 157108, Note_on_c, 0, 52, 76
2, 157108, Note_on_c, 0, 64, 76
2, 157212, Note_on_c, 0, 64, 0
2, 157212, Note_on_c, 0, 52, 0
2, 157220, Note_on_c, 0, 57, 82
2, 157220, Note_on_c, 0, 45, 88
2, 157816, Note_on_c, 0, 55, 72
2, 157816, Note_on_c, 0, 43, 74
2, 157828, Note_on_c, 0, 45, 0
2, 157828, Note_on_c, 0, 57, 0
2, 157888, Note_on_c, 0, 43, 0
2, 157892, Note_on_c, 0, 56, 74
2, 157892, Note_on_c, 0, 44, 74
2, 157912, Note_on_c, 0, 55, 0
2, 157960, Note_on_c, 0, 44, 0
2, 157972, Note_on_c, 0, 56, 0
2, 157976, Note_on_c, 0, 45, 70
2, 157976, Note_on_c, 0, 57, 70
2, 158036, Note_on_c, 0, 45, 0
2, 158044, Note_on_c, 0, 56, 73
2, 158044, Note_on_c, 0, 44, 58
2, 158048, Note_on_c, 0, 57, 0
2, 158104, Note_on_c, 0, 44, 0
2, 158116, Note_on_c, 0, 56, 0
2, 158120, Note_on_c, 0, 57, 74
2, 158120, Note_on_c, 0, 45, 58
2, 158180, Note_on_c, 0, 45, 0
2, 158180, Note_on_c, 0, 44, 65
2, 158180, Note_on_c, 0, 56, 73
2, 158188, Note_on_c, 0, 57, 0
2, 158236, Note_on_c, 0, 44, 0
2, 158244, Note_on_c, 0, 56, 0
2, 158248, Note_on_c, 0, 57, 70
2, 158248, Note_on_c, 0, 45, 66
2, 158308, Note_on_c, 0, 45, 0
2, 158316, Note_on_c, 0, 56, 70
2, 158316, Note_on_c, 0, 44, 62
2, 158332, Note_on_c, 0, 57, 0
2, 158396, Note_on_c, 0, 55, 73
2, 158396, Note_on_c, 0, 43, 66
2, 158404, Note_on_c, 0, 56, 0
2, 158408, Note_on_c, 0, 44, 0
2, 158468, Note_on_c, 0, 56, 74
2, 158468, Note_on_c, 0, 44, 71
2, 158488, Note_on_c, 0, 55, 0
2, 158500, Note_on_c, 0, 43, 0
2, 158568, Note_on_c, 0, 44, 0
2, 158572, Note_on_c, 0, 56, 0
2, 158572, Note_on_c, 0, 43, 69
2, 158580, Note_on_c, 0, 55, 75
2, 159076, Note_on_c, 0, 55, 0
2, 159096, Note_on_c, 0, 43, 0
2, 159232, Note_on_c, 0, 44, 47
2, 159232, Note_on_c, 0, 56, 55
2, 159312, Note_on_c, 0, 56, 0
2, 159316, Note_on_c, 0, 58, 56
2, 159316, Note_on_c, 0, 46, 51
2, 159352, Note_on_c, 0, 44, 0
2, 159360, Note_on_c, 0, 58, 0
2, 159364, Note_on_c, 0, 46, 0
2, 159384, Note_on_c, 0, 59, 58
2, 159384, Note_on_c, 0, 47, 58
2, 159444, Note_on_c, 0, 47, 0
2, 159448, Note_on_c, 0, 59, 0
2, 159448, Note_on_c, 0, 61, 60
2, 159448, Note_on_c, 0, 49, 67
2, 159512, Note_on_c, 0, 63, 62
2, 159512, Note_on_c, 0, 51, 69
2, 159520, Note_on_c, 0, 49, 0
2, 159520, Note_on_c, 0, 61, 0
2, 159556, Note_on_c, 0, 63, 0
2, 159560, Note_on_c, 0, 51, 0
2, 159572, Note_on_c, 0, 65, 71
2, 159572, Note_on_c, 0, 53, 60
2, 159640, Note_on_c, 0, 53, 0
2, 159640, Note_on_c, 0, 65, 0
2, 159640, Note_on_c, 0, 67, 74
2, 159640, Note_on_c, 0, 55, 74
2, 159688, Note_on_c, 0, 55, 0
2, 159696, Note_on_c, 0, 56, 71
2, 159696, Note_on_c, 0, 68, 69
2, 159720, Note_on_c, 0, 67, 0
2, 159760, Note_on_c, 0, 70, 73
2, 159760, Note_on_c, 0, 58, 68
2, 159768, Note_on_c, 0, 56, 0
2, 159780, Note_on_c, 0, 68, 0
2, 159796, Note_on_c, 0, 70, 0
2, 159800, Note_on_c, 0, 58, 0
2, 159812, Note_on_c, 0, 59, 74
2, 159812, Note_on_c, 0, 71, 65
2, 159856, Note_on_c, 0, 71, 0
2, 159868, Note_on_c, 0, 73, 76
2, 159868, Note_on_c, 0, 61, 60
2, 159888, Note_on_c, 0, 59, 0
2, 159920, Note_on_c, 0, 61, 0
2, 159928, Note_on_c, 0, 63, 78
2, 159932, Note_on_c, 0, 73, 0
2, 159936, Note_on_c, 0, 75, 91
2, 160396, Note_on_c, 0, 75, 0
2, 160400, Note_on_c, 0, 63, 0
2, 160524, Note_on_c, 0, 71, 59
2, 160524, Note_on_c, 0, 59, 56
2, 160592, Note_on_c, 0, 75, 69
2, 160592, Note_on_c, 0, 63, 59
2, 160616, Note_on_c, 0, 59, 0
2, 160616, Note_on_c, 0, 71, 0
2, 160644, Note_on_c, 0, 75, 0
2, 160652, Note_on_c, 0, 63, 0
2, 160664, Note_on_c, 0, 65, 64
2, 160664, Note_on_c, 0, 77, 76
2, 160708, Note_on_c, 0, 65, 0
2, 160720, Note_on_c, 0, 77, 0
2, 160732, Note_on_c, 0, 79, 74
2, 160732, Note_on_c, 0, 67, 60
2, 160792, Note_on_c, 0, 67, 0
2, 160796, Note_on_c, 0, 80, 77
2, 160796, Note_on_c, 0, 68, 64
2, 160824, Note_on_c, 0, 79, 0
2, 160860, Note_on_c, 0, 82, 62
2, 160860, Note_on_c, 0, 70, 61
2, 160864, Note_on_c, 0, 68, 0
2, 160872, Note_on_c, 0, 80, 0
2, 160884, Note_on_c, 0, 82, 0
2, 160900, Note_on_c, 0, 70, 0
2, 160908, Note_on_c, 0, 83, 77
2, 160908, Note_on_c, 0, 71, 64
2, 160964, Note_on_c, 0, 83, 0
2, 160964, Note_on_c, 0, 85, 76
2, 160964, Note_on_c, 0, 73, 67
2, 160984, Note_on_c, 0, 71, 0
2, 161032, Note_on_c, 0, 73, 0
2, 161044, Note_on_c, 0, 85, 0
2, 161044, Note_on_c, 0, 87, 86
2, 161044, Note_on_c, 0, 75, 67
2, 161240, Note_on_c, 0, 83, 70
2, 161240, Note_on_c, 0, 71, 60
2, 161244, Note_on_c, 0, 87, 0
2, 161284, Note_on_c, 0, 75, 0
2, 161344, Note_on_c, 0, 68, 49
2, 161348, Note_on_c, 0, 83, 0
2, 161348, Note_on_c, 0, 80, 74
2, 161356, Note_on_c, 0, 71, 0
2, 161424, Note_on_c, 0, 68, 0
2, 161436, Note_on_c, 0, 75, 70
2, 161436, Note_on_c, 0, 63, 46
2, 161440, Note_on_c, 0, 80, 0
2, 161492, Note_on_c, 0, 63, 0
2, 161512, Note_on_c, 0, 75, 0
2, 161532, Note_on_c, 0, 83, 75
2, 161532, Note_on_c, 0, 71, 68
2, 161616, Note_on_c, 0, 71, 0
2, 161620, Note_on_c, 0, 80, 77
2, 161620, Note_on_c, 0, 68, 54
2, 161624, Note_on_c, 0, 83, 0
2, 161696, Note_on_c, 0, 75, 78
2, 161696, Note_on_c, 0, 63, 52
2, 161716, Note_on_c, 0, 68, 0
2, 161728, Note_on_c, 0, 80, 0
2, 161760, Note_on_c, 0, 63, 0
2, 161772, Note_on_c, 0, 75, 0
2, 161772, Note_on_c, 0, 59, 65
2, 161772, Note_on_c, 0, 71, 78
2, 161832, Note_on_c, 0, 71, 0
2, 161844, Note_on_c, 0, 59, 0
2, 161864, Note_on_c, 0, 56, 56
2, 161864, Note_on_c, 0, 68, 61
2, 161956, Note_on_c, 0, 56, 0
2, 161956, Note_on_c, 0, 51, 62
2, 161956, Note_on_c, 0, 63, 63
2, 161976, Note_on_c, 0, 68, 0
2, 162016, Note_on_c, 0, 51, 0
2, 162044, Note_on_c, 0, 63, 0
2, 162052, Note_on_c, 0, 47, 53
2, 162052, Note_on_c, 0, 59, 69
2, 162136, Note_on_c, 0, 47, 0
2, 162140, Note_on_c, 0, 56, 65
2, 162140, Note_on_c, 0, 44, 60
2, 162148, Note_on_c, 0, 59, 0
2, 162240, Note_on_c, 0, 44, 0
2, 162240, Note_on_c, 0, 56, 0
2, 162268, Note_on_c, 0, 62, 74
2, 162268, Note_on_c, 0, 50, 55
2, 162268, Note_on_c, 0, 52, 65
2, 162360, Note_on_c, 0, 44, 58
2, 162360, Note_on_c, 0, 56, 76
2, 162368, Note_on_c, 0, 50, 0
2, 162372, Note_on_c, 0, 62, 0
2, 162428, Note_on_c, 0, 44, 0
2, 162452, Note_on_c, 0, 56, 0
2, 162456, Note_on_c, 0, 57, 77
2, 162456, Note_on_c, 0, 45, 66
2, 162524, Note_on_c, 0, 45, 0
2, 162544, Note_on_c, 0, 57, 0
2, 162544, Note_on_c, 0, 58, 78
2, 162544, Note_on_c, 0, 46, 67
2, 162620, Note_on_c, 0, 58, 0
2, 162624, Note_on_c, 0, 46, 0
2, 162628, Note_on_c, 0, 59, 80
2, 162628, Note_on_c, 0, 47, 71
2, 162652, Note_on_c, 0, 52, 0
2, 162724, Note_on_c, 0, 49, 82
2, 162724, Note_on_c, 0, 61, 61
2, 162724, Note_on_c, 0, 52, 65
2, 162728, Note_on_c, 0, 47, 0
2, 162728, Note_on_c, 0, 59, 0
2, 162808, Note_on_c, 0, 49, 0
2, 162816, Note_on_c, 0, 61, 0
2, 162816, Note_on_c, 0, 59, 78
2, 162816, Note_on_c, 0, 47, 66
2, 162892, Note_on_c, 0, 58, 76
2, 162892, Note_on_c, 0, 46, 58
2, 162900, Note_on_c, 0, 59, 0
2, 162912, Note_on_c, 0, 47, 0
2, 162964, Note_on_c, 0, 46, 0
2, 162984, Note_on_c, 0, 58, 0
2, 162984, Note_on_c, 0, 56, 73
2, 162984, Note_on_c, 0, 44, 61
2, 163076, Note_on_c, 0, 44, 0
2, 163088, Note_on_c, 0, 43, 70
2, 163088, Note_on_c, 0, 55, 66
2, 163092, Note_on_c, 0, 56, 0
2, 163108, Note_on_c, 0, 52, 0
2, 163176, Note_on_c, 0, 56, 72
2, 163176, Note_on_c, 0, 44, 56
2, 163184, Note_on_c, 0, 43, 0
2, 163184, Note_on_c, 0, 55, 0
2, 163272, Note_on_c, 0, 54, 70
2, 163272, Note_on_c, 0, 42, 63
2, 163276, Note_on_c, 0, 56, 0
2, 163284, Note_on_c, 0, 44, 0
2, 163348, Note_on_c, 0, 42, 0
2, 163392, Note_on_c, 0, 40, 67
2, 163392, Note_on_c, 0, 52, 63
2, 163400, Note_on_c, 0, 54, 0
2, 163548, Note_on_c, 0, 51, 62
2, 163548, Note_on_c, 0, 39, 57
2, 163556, Note_on_c, 0, 52, 0
2, 163564, Note_on_c, 0, 40, 0
2, 163980, Note_on_c, 0, 39, 0
2, 163992, Note_on_c, 0, 51, 0
2, 165428, Note_on_c, 0, 75, 58
2, 165428, Note_on_c, 0, 63, 45
2, 165584, Note_on_c, 0, 63, 0
2, 165584, Note_on_c, 0, 75, 0
2, 165588, Note_on_c, 0, 73, 67
2, 165588, Note_on_c, 0, 61, 45
2, 165716, Note_on_c, 0, 75, 74
2, 165716, Note_on_c, 0, 63, 58
2, 165740, Note_on_c, 0, 73, 0
2, 165744, Note_on_c, 0, 61, 0
2, 165848, Note_on_c, 0, 75, 0
2, 165848, Note_on_c, 0, 63, 0
2, 165856, Note_on_c, 0, 76, 82
2, 165856, Note_on_c, 0, 64, 62
2, 165992, Note_on_c, 0, 76, 0
2, 165996, Note_on_c, 0, 61, 60
2, 165996, Note_on_c, 0, 73, 76
2, 166008, Note_on_c, 0, 64, 0
2, 166124, Note_on_c, 0, 70, 71
2, 166124, Note_on_c, 0, 58, 50
2, 166144, Note_on_c, 0, 73, 0
2, 166148, Note_on_c, 0, 61, 0
2, 166300, Note_on_c, 0, 68, 65
2, 166300, Note_on_c, 0, 56, 51
2, 166304, Note_on_c, 0, 70, 0
2, 166316, Note_on_c, 0, 58, 0
2, 166956, Note_on_c, 0, 67, 43
2, 166956, Note_on_c, 0, 55, 42
2, 166964, Note_on_c, 0, 56, 0
2, 166976, Note_on_c, 0, 68, 0
2, 167396, Note_on_c, 0, 55, 0
2, 167480, Note_on_c, 0, 67, 0
2, 167560, Note_on_c, 0, 75, 69
2, 167560, Note_on_c, 0, 63, 46
2, 167660, Note_on_c, 0, 63, 0
2, 167664, Note_on_c, 0, 75, 0
2, 167740, Note_on_c, 0, 75, 69
2, 167740, Note_on_c, 0, 63, 46
2, 167884, Note_on_c, 0, 75, 0
2, 167888, Note_on_c, 0, 76, 77
2, 167888, Note_on_c, 0, 64, 62
2, 167896, Note_on_c, 0, 63, 0
2, 167980, Note_on_c, 0, 64, 0
2, 168000, Note_on_c, 0, 76, 0
2, 168016, Note_on_c, 0, 75, 75
2, 168016, Note_on_c, 0, 63, 57
2, 168116, Note_on_c, 0, 75, 0
2, 168120, Note_on_c, 0, 63, 0
2, 168136, Note_on_c, 0, 73, 72
2, 168136, Note_on_c, 0, 61, 45
2, 168244, Note_on_c, 0, 75, 82
2, 168244, Note_on_c, 0, 63, 64
2, 168248, Note_on_c, 0, 73, 0
2, 168292, Note_on_c, 0, 61, 0
2, 168416, Note_on_c, 0, 63, 0
2, 168428, Note_on_c, 0, 78, 70
2, 168428, Note_on_c, 0, 66, 50
2, 168456, Note_on_c, 0, 75, 0
2, 168672, Note_on_c, 0, 66, 0
2, 168676, Note_on_c, 0, 78, 0
2, 168680, Note_on_c, 0, 76, 74
2, 168680, Note_on_c, 0, 64, 63
2, 168832, Note_on_c, 0, 64, 0
2, 168856, Note_on_c, 0, 73, 67
2, 168856, Note_on_c, 0, 61, 55
2, 168860, Note_on_c, 0, 76, 0
2, 169032, Note_on_c, 0, 73, 0
2, 169048, Note_on_c, 0, 71, 64
2, 169048, Note_on_c, 0, 59, 57
2, 169052, Note_on_c, 0, 61, 0
2, 169348, Note_on_c, 0, 70, 61
2, 169348, Note_on_c, 0, 58, 54
2, 169368, Note_on_c, 0, 71, 0
2, 169376, Note_on_c, 0, 59, 0
2, 169552, Note_on_c, 0, 58, 0
2, 169588, Note_on_c, 0, 70, 0
2, 169628, Note_on_c, 0, 70, 73
2, 169628, Note_on_c, 0, 58, 58
2, 169776, Note_on_c, 0, 58, 0
2, 169788, Note_on_c, 0, 70, 0
2, 169828, Note_on_c, 0, 70, 77
2, 169828, Note_on_c, 0, 58, 56
2, 169932, Note_on_c, 0, 70, 0
2, 169936, Note_on_c, 0, 58, 0
2, 169984, Note_on_c, 0, 70, 71
2, 169984, Note_on_c, 0, 58, 62
2, 170084, Note_on_c, 0, 58, 0
2, 170100, Note_on_c, 0, 70, 0
2, 170156, Note_on_c, 0, 70, 63
2, 170156, Note_on_c, 0, 58, 56
2, 170468, Note_on_c, 0, 68, 64
2, 170468, Note_on_c, 0, 56, 51
2, 170472, Note_on_c, 0, 58, 0
2, 170492, Note_on_c, 0, 70, 0
2, 170632, Note_on_c, 0, 56, 0
2, 170640, Note_on_c, 0, 68, 0
2, 170640, Note_on_c, 0, 70, 67
2, 170640, Note_on_c, 0, 58, 53
2, 170832, Note_on_c, 0, 58, 0
2, 170836, Note_on_c, 0, 71, 73
2, 170836, Note_on_c, 0, 59, 52
2, 170860, Note_on_c, 0, 70, 0
2, 171024, Note_on_c, 0, 71, 0
2, 171024, Note_on_c, 0, 70, 67
2, 171024, Note_on_c, 0, 58, 54
2, 171048, Note_on_c, 0, 59, 0
2, 171172, Note_on_c, 0, 70, 0
2, 171172, Note_on_c, 0, 68, 64
2, 171172, Note_on_c, 0, 56, 53
2, 171176, Note_on_c, 0, 58, 0
2, 171336, Note_on_c, 0, 56, 0
2, 171356, Note_on_c, 0, 68, 0
2, 171360, Note_on_c, 0, 59, 52
2, 171360, Note_on_c, 0, 47, 54
2, 171532, Note_on_c, 0, 47, 0
2, 171552, Note_on_c, 0, 61, 56
2, 171552, Note_on_c, 0, 49, 51
2, 171580, Note_on_c, 0, 59, 0
2, 171792, Note_on_c, 0, 61, 0
2, 171800, Note_on_c, 0, 49, 0
2, 171800, Note_on_c, 0, 63, 54
2, 171800, Note_on_c, 0, 51, 49
2, 172668, Note_on_c, 0, 63, 0
2, 172680, Note_on_c, 0, 51, 0
2, 172992, Note_on_c, 0, 62, 39
2, 172992, Note_on_c, 0, 50, 39
2, 173072, Note_on_c, 0, 50, 0
2, 173072, Note_on_c, 0, 62, 0
2, 173080, Note_on_c, 0, 63, 43
2, 173080, Note_on_c, 0, 51, 43
2, 173140, Note_on_c, 0, 51, 0
2, 173140, Note_on_c, 0, 63, 0
2, 173160, Note_on_c, 0, 65, 43
2, 173160, Note_on_c, 0, 53, 43
2, 173228, Note_on_c, 0, 53, 0
2, 173228, Note_on_c, 0, 65, 0
2, 173244, Note_on_c, 0, 67, 36
2, 173244, Note_on_c, 0, 55, 36
2, 173320, Note_on_c, 0, 68, 45
2, 173320, Note_on_c, 0, 56, 45
2, 173324, Note_on_c, 0, 55, 0
2, 173324, Note_on_c, 0, 67, 0
2, 173400, Note_on_c, 0, 70, 45
2, 173400, Note_on_c, 0, 58, 45
2, 173420, Note_on_c, 0, 68, 0
2, 173420, Note_on_c, 0, 56, 0
2, 173440, Note_on_c, 0, 70, 0
2, 173440, Note_on_c, 0, 58, 0
2, 173480, Note_on_c, 0, 71, 44
2, 173480, Note_on_c, 0, 59, 44
2, 173540, Note_on_c, 0, 59, 0
2, 173540, Note_on_c, 0, 71, 0
2, 173556, Note_on_c, 0, 73, 43
2, 173556, Note_on_c, 0, 61, 43
2, 173624, Note_on_c, 0, 75, 51
2, 173624, Note_on_c, 0, 63, 51
2, 173648, Note_on_c, 0, 61, 0
2, 173648, Note_on_c, 0, 73, 0
2, 173680, Note_on_c, 0, 75, 0
2, 173680, Note_on_c, 0, 63, 0
2, 173696, Note_on_c, 0, 77, 53
2, 173696, Note_on_c, 0, 65, 53
2, 173764, Note_on_c, 0, 79, 60
2, 173764, Note_on_c, 0, 67, 60
2, 173768, Note_on_c, 0, 65, 0
2, 173768, Note_on_c, 0, 77, 0
2, 173836, Note_on_c, 0, 79, 0
2, 173836, Note_on_c, 0, 67, 0
2, 173848, Note_on_c, 0, 80, 56
2, 173848, Note_on_c, 0, 68, 56
2, 173932, Note_on_c, 0, 68, 0
2, 173932, Note_on_c, 0, 80, 0
2, 173932, Note_on_c, 0, 83, 57
2, 173932, Note_on_c, 0, 71, 57
2, 174012, Note_on_c, 0, 71, 0
2, 174012, Note_on_c, 0, 83, 0
2, 174016, Note_on_c, 0, 82, 48
2, 174016, Note_on_c, 0, 70, 48
2, 174096, Note_on_c, 0, 80, 49
2, 174096, Note_on_c, 0, 68, 49
2, 174116, Note_on_c, 0, 70, 0
2, 174116, Note_on_c, 0, 82, 0
2, 174164, Note_on_c, 0, 80, 0
2, 174164, Note_on_c, 0, 68, 0
2, 174192, Note_on_c, 0, 71, 42
2, 174192, Note_on_c, 0, 59, 42
2, 174272, Note_on_c, 0, 73, 42
2, 174272, Note_on_c, 0, 61, 42
2, 174276, Note_on_c, 0, 59, 0
2, 174276, Note_on_c, 0, 71, 0
2, 174356, Note_on_c, 0, 75, 44
2, 174356, Note_on_c, 0, 63, 44
2, 174360, Note_on_c, 0, 73, 0
2, 174360, Note_on_c, 0, 61, 0
2, 174448, Note_on_c, 0, 78, 44
2, 174448, Note_on_c, 0, 66, 36
2, 174456, Note_on_c, 0, 75, 0
2, 174456, Note_on_c, 0, 63, 0
2, 174524, Note_on_c, 0, 78, 0
2, 174524, Note_on_c, 0, 66, 0
2, 174540, Note_on_c, 0, 76, 40
2, 174540, Note_on_c, 0, 64, 49
2, 174640, Note_on_c, 0, 64, 0
2, 174640, Note_on_c, 0, 76, 0
2, 174652, Note_on_c, 0, 75, 47
2, 174652, Note_on_c, 0, 63, 45
2, 175184, Note_on_c, 0, 63, 0
2, 175184, Note_on_c, 0, 75, 0
2, 175548, Note_on_c, 0, 74, 36
2, 175548, Note_on_c, 0, 62, 36
2, 175596, Control_c, 0, 64, 40
2, 175596, Control_c, 0, 64, 40
2, 175604, Control_c, 0, 64, 72
2, 175604, Control_c, 0, 64, 72
2, 175608, Note_on_c, 0, 62, 0
2, 175608, Note_on_c, 0, 74, 0
2, 175616, Note_on_c, 0, 75, 56
2, 175616, Note_on_c, 0, 63, 56
2, 175616, Control_c, 0, 64, 104
2, 175616, Control_c, 0, 64, 104
2, 175624, Control_c, 0, 64, 127
2, 175624, Control_c, 0, 64, 127
2, 175684, Note_on_c, 0, 63, 0
2, 175684, Note_on_c, 0, 75, 0
2, 175692, Note_on_c, 0, 77, 55
2, 175692, Note_on_c, 0, 65, 55
2, 175748, Note_on_c, 0, 65, 0
2, 175748, Note_on_c, 0, 77, 0
2, 175752, Note_on_c, 0, 75, 59
2, 175752, Note_on_c, 0, 63, 59
2, 175808, Note_on_c, 0, 63, 0
2, 175808, Note_on_c, 0, 75, 0
2, 175816, Note_on_c, 0, 77, 56
2, 175816, Note_on_c, 0, 65, 56
2, 175860, Note_on_c, 0, 65, 0
2, 175860, Note_on_c, 0, 77, 0
2, 175868, Note_on_c, 0, 75, 49
2, 175868, Note_on_c, 0, 63, 49
2, 175924, Note_on_c, 0, 63, 0
2, 175924, Note_on_c, 0, 75, 0
2, 175932, Note_on_c, 0, 77, 58
2, 175932, Note_on_c, 0, 65, 58
2, 175976, Note_on_c, 0, 65, 0
2, 175976, Note_on_c, 0, 77, 0
2, 175988, Note_on_c, 0, 75, 47
2, 175988, Note_on_c, 0, 63, 47
2, 176036, Note_on_c, 0, 63, 0
2, 176036, Note_on_c, 0, 75, 0
2, 176040, Note_on_c, 0, 77, 60
2, 176040, Note_on_c, 0, 65, 60
2, 176096, Note_on_c, 0, 65, 0
2, 176096, Note_on_c, 0, 77, 0
2, 176104, Note_on_c, 0, 75, 57
2, 176104, Note_on_c, 0, 63, 57
2, 176152, Note_on_c, 0, 63, 0
2, 176152, Note_on_c, 0, 75, 0
2, 176156, Note_on_c, 0, 77, 55
2, 176156, Note_on_c, 0, 65, 55
2, 176208, Note_on_c, 0, 65, 0
2, 176208, Note_on_c, 0, 77, 0
2, 176216, Note_on_c, 0, 75, 43
2, 176216, Note_on_c, 0, 63, 43
2, 176272, Note_on_c, 0, 63, 0
2, 176272, Note_on_c, 0, 75, 0
2, 176276, Note_on_c, 0, 77, 55
2, 176276, Note_on_c, 0, 65, 55
2, 176324, Note_on_c, 0, 65, 0
2, 176324, Note_on_c, 0, 77, 0
2, 176332, Note_on_c, 0, 75, 51
2, 176332, Note_on_c, 0, 63, 51
2, 176376, Note_on_c, 0, 63, 0
2, 176376, Note_on_c, 0, 75, 0
2, 176380, Note_on_c, 0, 77, 61
2, 176380, Note_on_c, 0, 65, 61
2, 176436, Note_on_c, 0, 65, 0
2, 176436, Note_on_c, 0, 77, 0
2, 176440, Note_on_c, 0, 75, 51
2, 176440, Note_on_c, 0, 63, 51
2, 176488, Note_on_c, 0, 63, 0
2, 176488, Note_on_c, 0, 75, 0
2, 176492, Note_on_c, 0, 77, 62
2, 176492, Note_on_c, 0, 65, 62
2, 176540, Note_on_c, 0, 65, 0
2, 176540, Note_on_c, 0, 77, 0
2, 176548, Note_on_c, 0, 75, 42
2, 176548, Note_on_c, 0, 63, 42
2, 176568, Note_on_c, 0, 63, 0
2, 176568, Note_on_c, 0, 75, 0
2, 176580, Note_on_c, 0, 77, 49
2, 176580, Note_on_c, 0, 65, 49
2, 176628, Note_on_c, 0, 75, 54
2, 176628, Note_on_c, 0, 63, 54
2, 176636, Note_on_c, 0, 65, 0
2, 176636, Note_on_c, 0, 77, 0
2, 176700, Note_on_c, 0, 75, 0
2, 176700, Note_on_c, 0, 63, 0
2, 176708, Note_on_c, 0, 74, 73
2, 176708, Note_on_c, 0, 62, 73
2, 176728, Control_c, 0, 64, 72
2, 176728, Control_c, 0, 64, 72
2, 176736, Control_c, 0, 64, 24
2, 176736, Control_c, 0, 64, 24
2, 176748, Control_c, 0, 64, 0
2, 176748, Control_c, 0, 64, 0
2, 176796, Note_on_c, 0, 75, 69
2, 176796, Note_on_c, 0, 63, 69
2, 176800, Note_on_c, 0, 62, 0
2, 176800, Note_on_c, 0, 74, 0
2, 176800, Control_c, 0, 64, 56
2, 176800, Control_c, 0, 64, 56
2, 176812, Control_c, 0, 64, 88
2, 176812, Control_c, 0, 64, 88
2, 176820, Control_c, 0, 64, 127
2, 176820, Control_c, 0, 64, 127
2, 176852, Note_on_c, 0, 75, 0
2, 176852, Note_on_c, 0, 63, 0
2, 176868, Note_on_c, 0, 74, 54
2, 176868, Note_on_c, 0, 62, 54
2, 176920, Note_on_c, 0, 62, 0
2, 176920, Note_on_c, 0, 74, 0
2, 176920, Note_on_c, 0, 75, 65
2, 176920, Note_on_c, 0, 63, 65
2, 176976, Note_on_c, 0, 63, 0
2, 176976, Note_on_c, 0, 75, 0
2, 176992, Note_on_c, 0, 74, 59
2, 176992, Note_on_c, 0, 62, 59
2, 177040, Note_on_c, 0, 62, 0
2, 177040, Note_on_c, 0, 74, 0
2, 177040, Note_on_c, 0, 75, 65
2, 177040, Note_on_c, 0, 63, 65
2, 177092, Note_on_c, 0, 63, 0
2, 177092, Note_on_c, 0, 75, 0
2, 177104, Note_on_c, 0, 74, 56
2, 177104, Note_on_c, 0, 62, 56
2, 177160, Note_on_c, 0, 62, 0
2, 177160, Note_on_c, 0, 74, 0
2, 177160, Note_on_c, 0, 75, 62
2, 177160, Note_on_c, 0, 63, 62
2, 177204, Note_on_c, 0, 63, 0
2, 177204, Note_on_c, 0, 75, 0
2, 177216, Note_on_c, 0, 74, 51
2, 177216, Note_on_c, 0, 62, 51
2, 177268, Note_on_c, 0, 62, 0
2, 177268, Note_on_c, 0, 74, 0
2, 177268, Note_on_c, 0, 75, 60
2, 177268, Note_on_c, 0, 63, 60
2, 177312, Note_on_c, 0, 63, 0
2, 177312, Note_on_c, 0, 75, 0
2, 177328, Note_on_c, 0, 74, 48
2, 177328, Note_on_c, 0, 62, 48
2, 177372, Note_on_c, 0, 75, 52
2, 177372, Note_on_c, 0, 63, 52
2, 177376, Note_on_c, 0, 62, 0
2, 177376, Note_on_c, 0, 74, 0
2, 177428, Note_on_c, 0, 75, 0
2, 177428, Note_on_c, 0, 63, 0
2, 177444, Note_on_c, 0, 74, 49
2, 177444, Note_on_c, 0, 62, 49
2, 177488, Note_on_c, 0, 75, 52
2, 177488, Note_on_c, 0, 63, 52
2, 177492, Note_on_c, 0, 62, 0
2, 177492, Note_on_c, 0, 74, 0
2, 177544, Note_on_c, 0, 75, 0
2, 177544, Note_on_c, 0, 63, 0
2, 177552, Note_on_c, 0, 74, 48
2, 177552, Note_on_c, 0, 62, 48
2, 177588, Note_on_c, 0, 75, 44
2, 177588, Note_on_c, 0, 63, 44
2, 177596, Note_on_c, 0, 62, 0
2, 177596, Note_on_c, 0, 74, 0
2, 177644, Note_on_c, 0, 75, 0
2, 177644, Note_on_c, 0, 63, 0
2, 177652, Note_on_c, 0, 74, 48
2, 177652, Note_on_c, 0, 62, 48
2, 177696, Note_on_c, 0, 75, 46
2, 177696, Note_on_c, 0, 63, 46
2, 177700, Note_on_c, 0, 62, 0
2, 177700, Note_on_c, 0, 74, 0
2, 177744, Note_on_c, 0, 75, 0
2, 177744, Note_on_c, 0, 63, 0
2, 177760, Note_on_c, 0, 74, 51
2, 177760, Note_on_c, 0, 62, 51
2, 177808, Note_on_c, 0, 62, 0
2, 177808, Note_on_c, 0, 74, 0
2, 177808, Note_on_c, 0, 75, 59
2, 177808, Note_on_c, 0, 63, 59
2, 177860, Note_on_c, 0, 63, 0
2, 177860, Note_on_c, 0, 75, 0
2, 177872, Note_on_c, 0, 74, 46
2, 177872, Note_on_c, 0, 62, 46
2, 177916, Note_on_c, 0, 75, 46
2, 177916, Note_on_c, 0, 63, 46
2, 177920, Note_on_c, 0, 62, 0
2, 177920, Note_on_c, 0, 74, 0
2, 177960, Note_on_c, 0, 75, 0
2, 177960, Note_on_c, 0, 63, 0
2, 177972, Note_on_c, 0, 74, 58
2, 177972, Note_on_c, 0, 62, 58
2, 178020, Note_on_c, 0, 62, 0
2, 178020, Note_on_c, 0, 74, 0
2, 178020, Note_on_c, 0, 75, 56
2, 178020, Note_on_c, 0, 63, 56
2, 178068, Note_on_c, 0, 63, 0
2, 178068, Note_on_c, 0, 75, 0
2, 178072, Note_on_c, 0, 74, 58
2, 178072, Note_on_c, 0, 62, 58
2, 178120, Note_on_c, 0, 62, 0
2, 178120, Note_on_c, 0, 74, 0
2, 178120, Note_on_c, 0, 75, 56
2, 178120, Note_on_c, 0, 63, 56
2, 178164, Note_on_c, 0, 63, 0
2, 178164, Note_on_c, 0, 75, 0
2, 178168, Note_on_c, 0, 74, 61
2, 178168, Note_on_c, 0, 62, 61
2, 178220, Note_on_c, 0, 62, 0
2, 178220, Note_on_c, 0, 74, 0
2, 178220, Note_on_c, 0, 75, 56
2, 178220, Note_on_c, 0, 63, 56
2, 178264, Note_on_c, 0, 63, 0
2, 178264, Note_on_c, 0, 75, 0
2, 178276, Note_on_c, 0, 74, 57
2, 178276, Note_on_c, 0, 62, 57
2, 178300, Note_on_c, 0, 62, 0
2, 178300, Note_on_c, 0, 74, 0
2, 178312, Note_on_c, 0, 75, 57
2, 178312, Note_on_c, 0, 63, 57
2, 178364, Note_on_c, 0, 63, 0
2, 178364, Note_on_c, 0, 75, 0
2, 178364, Note_on_c, 0, 74, 54
2, 178364, Note_on_c, 0, 62, 54
2, 178420, Note_on_c, 0, 62, 0
2, 178420, Note_on_c, 0, 74, 0
2, 178428, Note_on_c, 0, 73, 77
2, 178428, Note_on_c, 0, 61, 77
2, 178480, Control_c, 0, 64, 72
2, 178480, Control_c, 0, 64, 72
2, 178492, Control_c, 0, 64, 24
2, 178492, Control_c, 0, 64, 24
2, 178500, Control_c, 0, 64, 0
2, 178500, Control_c, 0, 64, 0
2, 178528, Note_on_c, 0, 75, 61
2, 178528, Note_on_c, 0, 63, 61
2, 178532, Note_on_c, 0, 61, 0
2, 178532, Note_on_c, 0, 73, 0
2, 178552, Control_c, 0, 64, 56
2, 178552, Control_c, 0, 64, 56
2, 178564, Control_c, 0, 64, 127
2, 178564, Control_c, 0, 64, 127
2, 178584, Note_on_c, 0, 75, 0
2, 178584, Note_on_c, 0, 63, 0
2, 178596, Note_on_c, 0, 73, 58
2, 178596, Note_on_c, 0, 61, 58
2, 178648, Note_on_c, 0, 61, 0
2, 178648, Note_on_c, 0, 73, 0
2, 178656, Note_on_c, 0, 75, 52
2, 178656, Note_on_c, 0, 63, 52
2, 178704, Note_on_c, 0, 63, 0
2, 178704, Note_on_c, 0, 75, 0
2, 178716, Note_on_c, 0, 73, 46
2, 178716, Note_on_c, 0, 61, 46
2, 178756, Note_on_c, 0, 61, 0
2, 178756, Note_on_c, 0, 73, 0
2, 178764, Note_on_c, 0, 75, 52
2, 178764, Note_on_c, 0, 63, 52
2, 178812, Note_on_c, 0, 63, 0
2, 178812, Note_on_c, 0, 75, 0
2, 178824, Note_on_c, 0, 73, 49
2, 178824, Note_on_c, 0, 61, 49
2, 178868, Note_on_c, 0, 61, 0
2, 178868, Note_on_c, 0, 73, 0
2, 178876, Note_on_c, 0, 75, 48
2, 178876, Note_on_c, 0, 63, 48
2, 178920, Note_on_c, 0, 63, 0
2, 178920, Note_on_c, 0, 75, 0
2, 178932, Note_on_c, 0, 73, 52
2, 178932, Note_on_c, 0, 61, 52
2, 178976, Note_on_c, 0, 61, 0
2, 178976, Note_on_c, 0, 73, 0
2, 178984, Note_on_c, 0, 75, 51
2, 178984, Note_on_c, 0, 63, 51
2, 179040, Note_on_c, 0, 63, 0
2, 179040, Note_on_c, 0, 75, 0
2, 179052, Note_on_c, 0, 73, 26
2, 179052, Note_on_c, 0, 61, 26
2, 179072, Note_on_c, 0, 61, 0
2, 179072, Note_on_c, 0, 73, 0
2, 179088, Note_on_c, 0, 75, 46
2, 179088, Note_on_c, 0, 63, 46
2, 179140, Note_on_c, 0, 63, 0
2, 179140, Note_on_c, 0, 75, 0
2, 179148, Note_on_c, 0, 73, 36
2, 179148, Note_on_c, 0, 61, 36
2, 179192, Note_on_c, 0, 61, 0
2, 179192, Note_on_c, 0, 73, 0
2, 179200, Note_on_c, 0, 75, 53
2, 179200, Note_on_c, 0, 63, 53
2, 179248, Note_on_c, 0, 63, 0
2, 179248, Note_on_c, 0, 75, 0
2, 179260, Note_on_c, 0, 73, 44
2, 179260, Note_on_c, 0, 61, 44
2, 179296, Note_on_c, 0, 61, 0
2, 179296, Note_on_c, 0, 73, 0
2, 179300, Note_on_c, 0, 75, 38
2, 179300, Note_on_c, 0, 63, 38
2, 179352, Note_on_c, 0, 63, 0
2, 179352, Note_on_c, 0, 75, 0
2, 179364, Note_on_c, 0, 73, 49
2, 179364, Note_on_c, 0, 61, 49
2, 179404, Note_on_c, 0, 61, 0
2, 179404, Note_on_c, 0, 73, 0
2, 179408, Note_on_c, 0, 75, 48
2, 179408, Note_on_c, 0, 63, 48
2, 179464, Note_on_c, 0, 63, 0
2, 179464, Note_on_c, 0, 75, 0
2, 179476, Note_on_c, 0, 73, 53
2, 179476, Note_on_c, 0, 61, 53
2, 179520, Note_on_c, 0, 61, 0
2, 179520, Note_on_c, 0, 73, 0
2, 179524, Note_on_c, 0, 75, 39
2, 179524, Note_on_c, 0, 63, 39
2, 179580, Note_on_c, 0, 63, 0
2, 179580, Note_on_c, 0, 75, 0
2, 179588, Note_on_c, 0, 73, 53
2, 179588, Note_on_c, 0, 61, 53
2, 179636, Note_on_c, 0, 61, 0
2, 179636, Note_on_c, 0, 73, 0
2, 179644, Note_on_c, 0, 75, 57
2, 179644, Note_on_c, 0, 63, 57
2, 179696, Note_on_c, 0, 63, 0
2, 179696, Note_on_c, 0, 75, 0
2, 179708, Note_on_c, 0, 73, 52
2, 179708, Note_on_c, 0, 61, 52
2, 179740, Note_on_c, 0, 61, 0
2, 179740, Note_on_c, 0, 73, 0
2, 179756, Note_on_c, 0, 75, 51
2, 179756, Note_on_c, 0, 63, 51
2, 179812, Note_on_c, 0, 63, 0
2, 179812, Note_on_c, 0, 75, 0
2, 179812, Note_on_c, 0, 73, 47
2, 179812, Note_on_c, 0, 61, 47
2, 179864, Note_on_c, 0, 61, 0
2, 179864, Note_on_c, 0, 73, 0
2, 179884, Note_on_c, 0, 72, 51
2, 179884, Note_on_c, 0, 60, 51
2, 179904, Note_on_c, 0, 72, 51
2, 179904, Note_on_c, 0, 60, 51
2, 179948, Note_on_c, 0, 60, 0
2, 179948, Note_on_c, 0, 72, 0
2, 179948, Note_on_c, 0, 60, 0
2, 179948, Note_on_c, 0, 72, 0
2, 179952, Note_on_c, 0, 73, 50
2, 179952, Note_on_c, 0, 61, 50
2, 179996, Note_on_c, 0, 61, 0
2, 179996, Note_on_c, 0, 73, 0
2, 180004, Note_on_c, 0, 75, 55
2, 180004, Note_on_c, 0, 63, 55
2, 180044, Note_on_c, 0, 63, 0
2, 180044, Note_on_c, 0, 75, 0
2, 180068, Note_on_c, 0, 77, 56
2, 180068, Note_on_c, 0, 65, 56
2, 180120, Note_on_c, 0, 65, 0
2, 180120, Note_on_c, 0, 77, 0
2, 180136, Note_on_c, 0, 79, 42
2, 180136, Note_on_c, 0, 67, 42
2, 180188, Note_on_c, 0, 80, 54
2, 180188, Note_on_c, 0, 68, 54
2, 180192, Note_on_c, 0, 67, 0
2, 180192, Note_on_c, 0, 79, 0
2, 180256, Note_on_c, 0, 82, 51
2, 180256, Note_on_c, 0, 70, 51
2, 180276, Note_on_c, 0, 80, 0
2, 180276, Note_on_c, 0, 68, 0
2, 180284, Note_on_c, 0, 82, 0
2, 180284, Note_on_c, 0, 70, 0
2, 180324, Note_on_c, 0, 84, 50
2, 180324, Note_on_c, 0, 72, 50
2, 180372, Note_on_c, 0, 72, 0
2, 180372, Note_on_c, 0, 84, 0
2, 180376, Note_on_c, 0, 85, 54
2, 180376, Note_on_c, 0, 73, 54
2, 180432, Note_on_c, 0, 73, 0
2, 180432, Note_on_c, 0, 85, 0
2, 180436, Note_on_c, 0, 87, 57
2, 180436, Note_on_c, 0, 75, 57
2, 180484, Note_on_c, 0, 75, 0
2, 180484, Note_on_c, 0, 87, 0
2, 180508, Note_on_c, 0, 89, 52
2, 180508, Note_on_c, 0, 77, 52
2, 180560, Note_on_c, 0, 77, 0
2, 180560, Note_on_c, 0, 89, 0
2, 180572, Note_on_c, 0, 91, 44
2, 180572, Note_on_c, 0, 79, 44
2, 180636, Note_on_c, 0, 79, 0
2, 180636, Note_on_c, 0, 91, 0
2, 180640, Note_on_c, 0, 92, 51
2, 180640, Note_on_c, 0, 80, 51
2, 180724, Note_on_c, 0, 94, 41
2, 180724, Note_on_c, 0, 82, 41
2, 180736, Note_on_c, 0, 80, 0
2, 180736, Note_on_c, 0, 92, 0
2, 180984, Note_on_c, 0, 94, 0
2, 180984, Note_on_c, 0, 82, 0
2, 181440, Control_c, 0, 64, 104
2, 181440, Control_c, 0, 64, 104
2, 181452, Control_c, 0, 64, 88
2, 181452, Control_c, 0, 64, 88
2, 181472, Control_c, 0, 64, 72
2, 181472, Control_c, 0, 64, 72
2, 181480, Control_c, 0, 64, 56
2, 181480, Control_c, 0, 64, 56
2, 181840, Note_on_c, 0, 94, 43
2, 181840, Note_on_c, 0, 85, 33
2, 181840, Note_on_c, 0, 89, 26
2, 181900, Control_c, 0, 64, 40
2, 181912, Control_c, 0, 64, 88
2, 181924, Control_c, 0, 64, 127
2, 181952, Note_on_c, 0, 89, 0
2, 181988, Note_on_c, 0, 85, 0
2, 182004, Note_on_c, 0, 94, 0
2, 182028, Note_on_c, 0, 92, 62
2, 182028, Note_on_c, 0, 87, 42
2, 182028, Note_on_c, 0, 84, 36
2, 182120, Note_on_c, 0, 92, 0
2, 182156, Note_on_c, 0, 87, 0
2, 182184, Note_on_c, 0, 84, 0
2, 182228, Note_on_c, 0, 99, 62
2, 182228, Note_on_c, 0, 82, 33
2, 182228, Note_on_c, 0, 91, 42
2, 182320, Note_on_c, 0, 99, 0
2, 182328, Note_on_c, 0, 91, 0
2, 182372, Note_on_c, 0, 82, 0
2, 182404, Note_on_c, 0, 96, 71
2, 182404, Note_on_c, 0, 89, 44
2, 182404, Note_on_c, 0, 80, 33
2, 182436, Note_on_c, 0, 89, 0
2, 182500, Note_on_c, 0, 96, 0
2, 182548, Note_on_c, 0, 80, 0
2, 182576, Note_on_c, 0, 92, 69
2, 182576, Note_on_c, 0, 87, 36
2, 182576, Note_on_c, 0, 84, 36
2, 182632, Note_on_c, 0, 87, 0
2, 182672, Note_on_c, 0, 92, 0
2, 182732, Note_on_c, 0, 84, 0
2, 182752, Note_on_c, 0, 91, 66
2, 182752, Note_on_c, 0, 85, 46
2, 182752, Note_on_c, 0, 82, 42
2, 182800, Note_on_c, 0, 85, 0
2, 182836, Note_on_c, 0, 91, 0
2, 182892, Note_on_c, 0, 82, 0
2, 182928, Note_on_c, 0, 97, 60
2, 182928, Note_on_c, 0, 80, 45
2, 182928, Note_on_c, 0, 89, 61
2, 183008, Note_on_c, 0, 97, 0
2, 183024, Note_on_c, 0, 89, 0
2, 183100, Note_on_c, 0, 94, 62
2, 183100, Note_on_c, 0, 87, 47
2, 183100, Note_on_c, 0, 79, 52
2, 183104, Note_on_c, 0, 80, 0
2, 183156, Note_on_c, 0, 87, 0
2, 183216, Note_on_c, 0, 94, 0
2, 183236, Note_on_c, 0, 79, 0
2, 183280, Note_on_c, 0, 91, 63
2, 183280, Note_on_c, 0, 85, 42
2, 183280, Note_on_c, 0, 82, 42
2, 183364, Note_on_c, 0, 85, 0
2, 183400, Note_on_c, 0, 91, 0
2, 183444, Note_on_c, 0, 82, 0
2, 183448, Note_on_c, 0, 89, 65
2, 183448, Note_on_c, 0, 80, 51
2, 183448, Note_on_c, 0, 84, 36
2, 183516, Note_on_c, 0, 84, 0
2, 183516, Note_on_c, 0, 89, 0
2, 183592, Note_on_c, 0, 80, 0
2, 183636, Note_on_c, 0, 96, 58
2, 183636, Note_on_c, 0, 79, 36
2, 183648, Note_on_c, 0, 87, 59
2, 183692, Note_on_c, 0, 96, 0
2, 183796, Note_on_c, 0, 87, 0
2, 183804, Note_on_c, 0, 79, 0
2, 183820, Note_on_c, 0, 92, 62
2, 183820, Note_on_c, 0, 85, 37
2, 183820, Note_on_c, 0, 77, 42
2, 183892, Note_on_c, 0, 85, 0
2, 183948, Note_on_c, 0, 77, 0
2, 183948, Note_on_c, 0, 92, 0
2, 184012, Note_on_c, 0, 89, 64
2, 184012, Note_on_c, 0, 84, 40
2, 184012, Note_on_c, 0, 80, 43
2, 184016, Control_c, 0, 64, 88
2, 184028, Control_c, 0, 64, 40
2, 184040, Control_c, 0, 64, 0
2, 184052, Control_c, 0, 64, 24
2, 184068, Control_c, 0, 64, 72
2, 184080, Control_c, 0, 64, 127
2, 184088, Note_on_c, 0, 84, 0
2, 184152, Note_on_c, 0, 89, 0
2, 184180, Note_on_c, 0, 80, 0
2, 184188, Note_on_c, 0, 87, 63
2, 184188, Note_on_c, 0, 82, 35
2, 184188, Note_on_c, 0, 79, 38
2, 184272, Note_on_c, 0, 87, 0
2, 184292, Note_on_c, 0, 82, 0
2, 184312, Note_on_c, 0, 79, 0
2, 184380, Note_on_c, 0, 94, 57
2, 184380, Note_on_c, 0, 85, 56
2, 184380, Note_on_c, 0, 77, 41
2, 184460, Note_on_c, 0, 94, 0
2, 184488, Note_on_c, 0, 85, 0
2, 184532, Note_on_c, 0, 77, 0
2, 184548, Note_on_c, 0, 91, 68
2, 184548, Note_on_c, 0, 84, 45
2, 184548, Note_on_c, 0, 75, 46
2, 184580, Note_on_c, 0, 84, 0
2, 184636, Note_on_c, 0, 91, 0
2, 184692, Note_on_c, 0, 75, 0
2, 184720, Note_on_c, 0, 87, 61
2, 184720, Note_on_c, 0, 82, 37
2, 184720, Note_on_c, 0, 79, 46
2, 184740, Control_c, 0, 64, 88
2, 184752, Control_c, 0, 64, 56
2, 184764, Control_c, 0, 64, 24
2, 184796, Note_on_c, 0, 82, 0
2, 184804, Control_c, 0, 64, 127
2, 184872, Note_on_c, 0, 87, 0
2, 184884, Note_on_c, 0, 79, 0
2, 184900, Note_on_c, 0, 85, 62
2, 184900, Note_on_c, 0, 77, 35
2, 184900, Note_on_c, 0, 80, 45
2, 184976, Note_on_c, 0, 80, 0
2, 184976, Note_on_c, 0, 85, 0
2, 185028, Note_on_c, 0, 77, 0
2, 185080, Note_on_c, 0, 92, 60
2, 185080, Note_on_c, 0, 75, 44
2, 185080, Note_on_c, 0, 84, 49
2, 185160, Note_on_c, 0, 84, 0
2, 185164, Note_on_c, 0, 92, 0
2, 185264, Note_on_c, 0, 75, 0
2, 185264, Note_on_c, 0, 89, 63
2, 185264, Note_on_c, 0, 73, 37
2, 185264, Note_on_c, 0, 82, 44
2, 185324, Note_on_c, 0, 82, 0
2, 185364, Note_on_c, 0, 89, 0
2, 185408, Note_on_c, 0, 73, 0
2, 185424, Control_c, 0, 64, 88
2, 185436, Control_c, 0, 64, 56
2, 185440, Note_on_c, 0, 85, 60
2, 185440, Note_on_c, 0, 80, 44
2, 185440, Note_on_c, 0, 77, 45
2, 185444, Control_c, 0, 64, 24
2, 185488, Control_c, 0, 64, 127
2, 185520, Note_on_c, 0, 80, 0
2, 185556, Note_on_c, 0, 85, 0
2, 185564, Note_on_c, 0, 77, 0
2, 185616, Note_on_c, 0, 84, 64
2, 185616, Note_on_c, 0, 75, 45
2, 185616, Note_on_c, 0, 79, 40
2, 185664, Note_on_c, 0, 79, 0
2, 185680, Note_on_c, 0, 84, 0
2, 185764, Note_on_c, 0, 75, 0
2, 185808, Note_on_c, 0, 73, 39
2, 185808, Note_on_c, 0, 91, 56
2, 185808, Note_on_c, 0, 82, 55
2, 185864, Note_on_c, 0, 91, 0
2, 185940, Note_on_c, 0, 82, 0
2, 185968, Note_on_c, 0, 73, 0
2, 185980, Note_on_c, 0, 87, 62
2, 185980, Note_on_c, 0, 72, 47
2, 185980, Note_on_c, 0, 80, 39
2, 186032, Note_on_c, 0, 80, 0
2, 186108, Note_on_c, 0, 72, 0
2, 186120, Note_on_c, 0, 87, 0
2, 186172, Control_c, 0, 64, 72
2, 186180, Note_on_c, 0, 84, 66
2, 186180, Note_on_c, 0, 75, 45
2, 186180, Note_on_c, 0, 79, 52
2, 186188, Control_c, 0, 64, 24
2, 186200, Control_c, 0, 64, 0
2, 186236, Control_c, 0, 64, 104
2, 186244, Note_on_c, 0, 79, 0
2, 186252, Control_c, 0, 64, 127
2, 186316, Note_on_c, 0, 84, 0
2, 186352, Note_on_c, 0, 75, 0
2, 186356, Note_on_c, 0, 82, 61
2, 186356, Note_on_c, 0, 73, 35
2, 186356, Note_on_c, 0, 77, 49
2, 186400, Note_on_c, 0, 77, 0
2, 186444, Note_on_c, 0, 82, 0
2, 186496, Note_on_c, 0, 73, 0
2, 186548, Note_on_c, 0, 89, 70
2, 186548, Note_on_c, 0, 80, 57
2, 186548, Note_on_c, 0, 72, 44
2, 186628, Note_on_c, 0, 89, 0
2, 186712, Note_on_c, 0, 80, 0
2, 186716, Note_on_c, 0, 72, 0
2, 186748, Note_on_c, 0, 85, 65
2, 186748, Note_on_c, 0, 79, 48
2, 186748, Note_on_c, 0, 70, 40
2, 186792, Note_on_c, 0, 79, 0
2, 186916, Note_on_c, 0, 70, 0
2, 186920, Note_on_c, 0, 85, 0
2, 186960, Note_on_c, 0, 82, 57
2, 186960, Note_on_c, 0, 77, 56
2, 186960, Note_on_c, 0, 73, 34
2, 186960, Control_c, 0, 64, 88
2, 186972, Control_c, 0, 64, 40
2, 186988, Control_c, 0, 64, 0
2, 187020, Note_on_c, 0, 77, 0
2, 187024, Control_c, 0, 64, 56
2, 187040, Control_c, 0, 64, 127
2, 187132, Note_on_c, 0, 73, 0
2, 187188, Note_on_c, 0, 72, 39
2, 187196, Note_on_c, 0, 80, 57
2, 187196, Note_on_c, 0, 75, 40
2, 187228, Note_on_c, 0, 82, 0
2, 187328, Note_on_c, 0, 75, 0
2, 187400, Note_on_c, 0, 72, 0
2, 187452, Note_on_c, 0, 77, 52
2, 187452, Note_on_c, 0, 71, 38
2, 187452, Note_on_c, 0, 74, 34
2, 187488, Control_c, 0, 64, 72
2, 187504, Control_c, 0, 64, 24
2, 187516, Control_c, 0, 64, 0
2, 187556, Control_c, 0, 64, 40
2, 187568, Control_c, 0, 64, 104
2, 187580, Control_c, 0, 64, 127
2, 187628, Note_on_c, 0, 74, 0
2, 187636, Note_on_c, 0, 77, 0
2, 187768, Note_on_c, 0, 71, 0
2, 187824, Note_on_c, 0, 76, 45
2, 187824, Note_on_c, 0, 73, 29
2, 187824, Note_on_c, 0, 70, 28
2, 187916, Control_c, 0, 64, 88
2, 187928, Control_c, 0, 64, 24
2, 187940, Control_c, 0, 64, 0
2, 187984, Note_on_c, 0, 76, 0
2, 187992, Control_c, 0, 64, 24
2, 188008, Control_c, 0, 64, 88
2, 188020, Control_c, 0, 64, 127
2, 188248, Note_on_c, 0, 80, 0
2, 188332, Note_on_c, 0, 70, 0
2, 188444, Note_on_c, 0, 79, 38
2, 188444, Note_on_c, 0, 75, 30
2, 188444, Note_on_c, 0, 63, 26
2, 188540, Control_c, 0, 64, 88
2, 188552, Control_c, 0, 64, 56
2, 188564, Control_c, 0, 64, 24
2, 188576, Control_c, 0, 64, 0
2, 188708, Control_c, 0, 64, 40
2, 188720, Control_c, 0, 64, 104
2, 188732, Control_c, 0, 64, 127
2, 188776, Note_on_c, 0, 73, 0
2, 188856, Note_on_c, 0, 63, 0
2, 188904, Note_on_c, 0, 75, 0
2, 188928, Note_on_c, 0, 79, 0
2, 189012, Control_c, 0, 64, 40
2, 189024, Control_c, 0, 64, 72
2, 189032, Control_c, 0, 64, 104
2, 189044, Control_c, 0, 64, 127
2, 189068, Note_on_c, 0, 72, 56
2, 189080, Note_on_c, 0, 32, 47
2, 189120, Note_on_c, 0, 72, 0
2, 189148, Note_on_c, 0, 32, 0
2, 189188, Note_on_c, 0, 72, 71
2, 189244, Note_on_c, 0, 72, 0
2, 189276, Note_on_c, 0, 75, 67
2, 189352, Note_on_c, 0, 75, 0
2, 189368, Note_on_c, 0, 80, 70
2, 189476, Note_on_c, 0, 80, 0
2, 189512, Note_on_c, 0, 87, 74
2, 189520, Note_on_c, 0, 51, 33
2, 189776, Note_on_c, 0, 51, 0
2, 189892, Note_on_c, 0, 63, 23
2, 189896, Note_on_c, 0, 56, 33
2, 189900, Note_on_c, 0, 60, 36
2, 190040, Note_on_c, 0, 60, 0
2, 190064, Note_on_c, 0, 56, 0
2, 190256, Note_on_c, 0, 51, 38
2, 190324, Note_on_c, 0, 51, 0
2, 190324, Note_on_c, 0, 63, 0
2, 190488, Note_on_c, 0, 87, 0
2, 190616, Note_on_c, 0, 68, 38
2, 190620, Note_on_c, 0, 56, 35
2, 190624, Note_on_c, 0, 60, 44
2, 190624, Control_c, 0, 64, 72
2, 190632, Control_c, 0, 64, 40
2, 190644, Control_c, 0, 64, 24
2, 190652, Control_c, 0, 64, 40
2, 190664, Control_c, 0, 64, 72
2, 190676, Control_c, 0, 64, 127
2, 190704, Note_on_c, 0, 68, 0
2, 190712, Note_on_c, 0, 60, 0
2, 190712, Note_on_c, 0, 89, 73
2, 190752, Note_on_c, 0, 56, 0
2, 190768, Note_on_c, 0, 89, 0
2, 190800, Note_on_c, 0, 87, 69
2, 190864, Note_on_c, 0, 87, 0
2, 190880, Note_on_c, 0, 86, 65
2, 190948, Note_on_c, 0, 87, 71
2, 190952, Note_on_c, 0, 86, 0
2, 191000, Note_on_c, 0, 87, 0
2, 191032, Note_on_c, 0, 89, 74
2, 191044, Note_on_c, 0, 51, 45
2, 191104, Note_on_c, 0, 89, 0
2, 191116, Note_on_c, 0, 91, 70
2, 191176, Note_on_c, 0, 91, 0
2, 191200, Note_on_c, 0, 92, 72
2, 191216, Note_on_c, 0, 51, 0
2, 191260, Note_on_c, 0, 92, 0
2, 191280, Note_on_c, 0, 94, 71
2, 191356, Note_on_c, 0, 94, 0
2, 191360, Note_on_c, 0, 96, 73
2, 191440, Note_on_c, 0, 91, 73
2, 191448, Note_on_c, 0, 96, 0
2, 191508, Note_on_c, 0, 91, 0
2, 191508, Note_on_c, 0, 94, 68
2, 191584, Note_on_c, 0, 92, 78
2, 191604, Note_on_c, 0, 94, 0
2, 191612, Note_on_c, 0, 56, 26
2, 191616, Note_on_c, 0, 63, 19
2, 191636, Note_on_c, 0, 60, 22
2, 191660, Note_on_c, 0, 92, 0
2, 191660, Note_on_c, 0, 91, 78
2, 191720, Note_on_c, 0, 56, 0
2, 191728, Note_on_c, 0, 60, 0
2, 191732, Note_on_c, 0, 91, 0
2, 191740, Note_on_c, 0, 89, 78
2, 191772, Note_on_c, 0, 63, 0
2, 191800, Note_on_c, 0, 89, 0
2, 191808, Note_on_c, 0, 87, 68
2, 191884, Note_on_c, 0, 87, 0
2, 191896, Note_on_c, 0, 85, 65
2, 191980, Note_on_c, 0, 85, 0
2, 191980, Note_on_c, 0, 84, 71
2, 192060, Note_on_c, 0, 84, 0
2, 192064, Note_on_c, 0, 85, 62
2, 192136, Note_on_c, 0, 85, 0
2, 192148, Note_on_c, 0, 84, 75
2, 192224, Note_on_c, 0, 84, 0
2, 192228, Note_on_c, 0, 82, 55
2, 192228, Note_on_c, 0, 51, 45
2, 192288, Note_on_c, 0, 82, 0
2, 192304, Note_on_c, 0, 84, 67
2, 192380, Note_on_c, 0, 84, 0
2, 192380, Note_on_c, 0, 85, 67
2, 192392, Note_on_c, 0, 51, 0
2, 192452, Note_on_c, 0, 85, 0
2, 192468, Note_on_c, 0, 87, 70
2, 192572, Note_on_c, 0, 91, 74
2, 192604, Note_on_c, 0, 87, 0
2, 192660, Note_on_c, 0, 91, 0
2, 192680, Note_on_c, 0, 89, 78
2, 192772, Note_on_c, 0, 89, 0
2, 192776, Note_on_c, 0, 87, 70
2, 192864, Note_on_c, 0, 87, 0
2, 192876, Note_on_c, 0, 85, 71
2, 192960, Note_on_c, 0, 85, 0
2, 192964, Note_on_c, 0, 84, 75
2, 193088, Note_on_c, 0, 82, 60
2, 193092, Note_on_c, 0, 84, 0
2, 193132, Note_on_c, 0, 41, 45
2, 193132, Control_c, 0, 64, 104
2, 193144, Control_c, 0, 64, 40
2, 193152, Control_c, 0, 64, 0
2, 193188, Control_c, 0, 64, 127
2, 193252, Note_on_c, 0, 41, 0
2, 193504, Note_on_c, 0, 48, 38
2, 193788, Note_on_c, 0, 48, 0
2, 193800, Note_on_c, 0, 82, 0
2, 193876, Note_on_c, 0, 80, 62
2, 193892, Note_on_c, 0, 60, 26
2, 193908, Note_on_c, 0, 56, 25
2, 193924, Note_on_c, 0, 53, 30
2, 194276, Note_on_c, 0, 48, 37
2, 194320, Note_on_c, 0, 53, 0
2, 194348, Note_on_c, 0, 48, 0
2, 194356, Note_on_c, 0, 60, 0
2, 194364, Note_on_c, 0, 56, 0
2, 194664, Note_on_c, 0, 65, 33
2, 194664, Note_on_c, 0, 56, 28
2, 194676, Note_on_c, 0, 53, 33
2, 194720, Note_on_c, 0, 80, 0
2, 194808, Note_on_c, 0, 65, 0
2, 194816, Note_on_c, 0, 80, 62
2, 194836, Note_on_c, 0, 53, 0
2, 194856, Note_on_c, 0, 56, 0
2, 194876, Note_on_c, 0, 80, 0
2, 194944, Note_on_c, 0, 80, 77
2, 195004, Note_on_c, 0, 80, 0
2, 195060, Note_on_c, 0, 80, 68
2, 195092, Note_on_c, 0, 48, 44
2, 195120, Note_on_c, 0, 80, 0
2, 195180, Note_on_c, 0, 80, 69
2, 195232, Note_on_c, 0, 80, 0
2, 195292, Note_on_c, 0, 80, 68
2, 195352, Note_on_c, 0, 80, 0
2, 195380, Note_on_c, 0, 79, 67
2, 195452, Note_on_c, 0, 80, 68
2, 195456, Note_on_c, 0, 79, 0
2, 195492, Note_on_c, 0, 48, 0
2, 195516, Note_on_c, 0, 56, 26
2, 195516, Note_on_c, 0, 60, 22
2, 195528, Note_on_c, 0, 53, 22
2, 195548, Note_on_c, 0, 80, 0
2, 195548, Note_on_c, 0, 82, 64
2, 195620, Note_on_c, 0, 82, 0
2, 195628, Note_on_c, 0, 80, 71
2, 195692, Note_on_c, 0, 80, 0
2, 195700, Note_on_c, 0, 82, 65
2, 195768, Note_on_c, 0, 80, 62
2, 195772, Note_on_c, 0, 82, 0
2, 195832, Note_on_c, 0, 80, 0
2, 195832, Note_on_c, 0, 82, 64
2, 195900, Note_on_c, 0, 82, 0
2, 195900, Note_on_c, 0, 80, 60
2, 195976, Note_on_c, 0, 80, 0
2, 195976, Note_on_c, 0, 82, 60
2, 195988, Note_on_c, 0, 48, 43
2, 196052, Note_on_c, 0, 80, 60
2, 196064, Note_on_c, 0, 82, 0
2, 196148, Note_on_c, 0, 80, 0
2, 196164, Note_on_c, 0, 79, 68
2, 196196, Note_on_c, 0, 60, 0
2, 196240, Note_on_c, 0, 53, 0
2, 196244, Note_on_c, 0, 48, 0
2, 196244, Note_on_c, 0, 80, 77
2, 196248, Note_on_c, 0, 56, 0
2, 196268, Note_on_c, 0, 79, 0
2, 196328, Note_on_c, 0, 82, 68
2, 196336, Note_on_c, 0, 80, 0
2, 196428, Note_on_c, 0, 84, 70
2, 196456, Note_on_c, 0, 82, 0
2, 196472, Note_on_c, 0, 84, 0
2, 196536, Note_on_c, 0, 70, 47
2, 196536, Note_on_c, 0, 34, 45
2, 196540, Control_c, 0, 64, 72
2, 196548, Control_c, 0, 64, 24
2, 196560, Control_c, 0, 64, 0
2, 196588, Note_on_c, 0, 70, 0
2, 196592, Note_on_c, 0, 73, 56
2, 196592, Control_c, 0, 64, 24
2, 196604, Control_c, 0, 64, 104
2, 196612, Control_c, 0, 64, 127
2, 196640, Note_on_c, 0, 73, 0
2, 196648, Note_on_c, 0, 77, 67
2, 196660, Note_on_c, 0, 34, 0
2, 196692, Note_on_c, 0, 77, 0
2, 196740, Note_on_c, 0, 85, 84
2, 197084, Note_on_c, 0, 53, 45
2, 197248, Note_on_c, 0, 85, 0
2, 197272, Note_on_c, 0, 73, 66
2, 197340, Note_on_c, 0, 77, 70
2, 197392, Note_on_c, 0, 73, 0
2, 197440, Note_on_c, 0, 53, 0
2, 197464, Note_on_c, 0, 77, 0
2, 197464, Note_on_c, 0, 58, 44
2, 197472, Note_on_c, 0, 65, 44
2, 197476, Note_on_c, 0, 85, 90
2, 197476, Note_on_c, 0, 61, 44
2, 197732, Note_on_c, 0, 85, 0
2, 197864, Note_on_c, 0, 85, 92
2, 197884, Note_on_c, 0, 53, 43
2, 197968, Note_on_c, 0, 65, 0
2, 197980, Note_on_c, 0, 85, 0
2, 197996, Note_on_c, 0, 61, 0
2, 198008, Note_on_c, 0, 58, 0
2, 198008, Note_on_c, 0, 53, 0
2, 198120, Note_on_c, 0, 85, 80
2, 198208, Note_on_c, 0, 85, 0
2, 198308, Control_c, 0, 64, 127
2, 198312, Note_on_c, 0, 57, 77
2, 198312, Note_on_c, 0, 34, 46
2, 198376, Note_on_c, 0, 57, 0
2, 198408, Note_on_c, 0, 34, 0
2, 198424, Note_on_c, 0, 57, 70
2, 198516, Note_on_c, 0, 57, 0
2, 198520, Note_on_c, 0, 58, 73
2, 198592, Note_on_c, 0, 58, 0
2, 198600, Note_on_c, 0, 57, 77
2, 198672, Note_on_c, 0, 57, 0
2, 198676, Note_on_c, 0, 56, 69
2, 198728, Note_on_c, 0, 56, 0
2, 198744, Note_on_c, 0, 57, 71
2, 198812, Note_on_c, 0, 57, 0
2, 198836, Note_on_c, 0, 60, 79
2, 198904, Note_on_c, 0, 60, 0
2, 198912, Note_on_c, 0, 63, 68
2, 198992, Note_on_c, 0, 66, 69
2, 199020, Note_on_c, 0, 63, 0
2, 199040, Note_on_c, 0, 66, 0
2, 199088, Note_on_c, 0, 69, 73
2, 199088, Note_on_c, 0, 54, 50
2, 199140, Note_on_c, 0, 69, 0
2, 199172, Note_on_c, 0, 72, 82
2, 199184, Note_on_c, 0, 54, 0
2, 199240, Note_on_c, 0, 75, 76
2, 199252, Note_on_c, 0, 72, 0
2, 199312, Note_on_c, 0, 78, 71
2, 199344, Note_on_c, 0, 75, 0
2, 199360, Note_on_c, 0, 78, 0
2, 199396, Note_on_c, 0, 81, 75
2, 199456, Note_on_c, 0, 81, 0
2, 199468, Note_on_c, 0, 84, 82
2, 199540, Note_on_c, 0, 85, 82
2, 199544, Note_on_c, 0, 84, 0
2, 199600, Note_on_c, 0, 85, 0
2, 199608, Note_on_c, 0, 86, 86
2, 199680, Note_on_c, 0, 87, 81
2, 199684, Note_on_c, 0, 86, 0
2, 199756, Note_on_c, 0, 87, 0
2, 199756, Note_on_c, 0, 88, 88
2, 199764, Note_on_c, 0, 57, 54
2, 199764, Note_on_c, 0, 63, 56
2, 199764, Note_on_c, 0, 66, 58
2, 199836, Note_on_c, 0, 89, 93
2, 199848, Note_on_c, 0, 88, 0
2, 199912, Note_on_c, 0, 92, 90
2, 199924, Note_on_c, 0, 66, 0
2, 199924, Note_on_c, 0, 57, 0
2, 199924, Note_on_c, 0, 63, 0
2, 199940, Note_on_c, 0, 89, 0
2, 200008, Note_on_c, 0, 92, 0
2, 200008, Note_on_c, 0, 90, 75
2, 200092, Note_on_c, 0, 87, 83
2, 200104, Note_on_c, 0, 90, 0
2, 200172, Note_on_c, 0, 84, 81
2, 200204, Note_on_c, 0, 87, 0
2, 200244, Note_on_c, 0, 81, 78
2, 200252, Note_on_c, 0, 84, 0
2, 200296, Note_on_c, 0, 81, 0
2, 200324, Note_on_c, 0, 78, 73
2, 200408, Note_on_c, 0, 75, 76
2, 200428, Note_on_c, 0, 78, 0
2, 200492, Note_on_c, 0, 72, 78
2, 200496, Note_on_c, 0, 75, 0
2, 200564, Note_on_c, 0, 72, 0
2, 200568, Note_on_c, 0, 69, 72
2, 200592, Note_on_c, 0, 54, 53
2, 200652, Note_on_c, 0, 70, 65
2, 200656, Note_on_c, 0, 69, 0
2, 200728, Note_on_c, 0, 70, 0
2, 200732, Note_on_c, 0, 69, 76
2, 200752, Note_on_c, 0, 54, 0
2, 200804, Note_on_c, 0, 69, 0
2, 200812, Note_on_c, 0, 68, 62
2, 200896, Note_on_c, 0, 69, 77
2, 200900, Note_on_c, 0, 68, 0
2, 200976, Note_on_c, 0, 69, 0
2, 200984, Note_on_c, 0, 70, 65
2, 201052, Note_on_c, 0, 70, 0
2, 201072, Note_on_c, 0, 71, 70
2, 201156, Note_on_c, 0, 71, 0
2, 201180, Note_on_c, 0, 72, 77
2, 201276, Note_on_c, 0, 72, 0
2, 201276, Note_on_c, 0, 75, 74
2, 201376, Note_on_c, 0, 73, 73
2, 201392, Note_on_c, 0, 75, 0
2, 201464, Note_on_c, 0, 73, 0
2, 201476, Note_on_c, 0, 72, 84
2, 201556, Note_on_c, 0, 72, 0
2, 201616, Note_on_c, 0, 72, 74
2, 201636, Note_on_c, 0, 34, 45
2, 201652, Control_c, 0, 64, 104
2, 201664, Control_c, 0, 64, 24
2, 201676, Control_c, 0, 64, 0
2, 201724, Note_on_c, 0, 72, 26
2, 201728, Control_c, 0, 64, 24
2, 201740, Control_c, 0, 64, 104
2, 201748, Control_c, 0, 64, 127
2, 201756, Note_on_c, 0, 34, 0
2, 202056, Note_on_c, 0, 53, 37
2, 202324, Note_on_c, 0, 53, 0
2, 202388, Note_on_c, 0, 65, 37
2, 202392, Note_on_c, 0, 61, 36
2, 202392, Note_on_c, 0, 58, 35
2, 202628, Note_on_c, 0, 72, 0
2, 202628, Note_on_c, 0, 72, 0
2, 202744, Note_on_c, 0, 70, 54
2, 202764, Note_on_c, 0, 53, 38
2, 202780, Note_on_c, 0, 65, 0
2, 202840, Note_on_c, 0, 61, 0
2, 202848, Note_on_c, 0, 58, 0
2, 202852, Note_on_c, 0, 53, 0
2, 202900, Note_on_c, 0, 70, 0
2, 202960, Note_on_c, 0, 67, 47
2, 203028, Note_on_c, 0, 67, 0
2, 203044, Note_on_c, 0, 68, 58
2, 203128, Note_on_c, 0, 68, 0
2, 203132, Note_on_c, 0, 70, 60
2, 203136, Control_c, 0, 64, 88
2, 203144, Control_c, 0, 64, 40
2, 203160, Control_c, 0, 64, 0
2, 203188, Note_on_c, 0, 40, 43
2, 203204, Note_on_c, 0, 70, 0
2, 203208, Note_on_c, 0, 68, 67
2, 203248, Control_c, 0, 64, 56
2, 203260, Control_c, 0, 64, 127
2, 203276, Note_on_c, 0, 68, 0
2, 203280, Note_on_c, 0, 70, 59
2, 203296, Note_on_c, 0, 40, 0
2, 203344, Note_on_c, 0, 70, 0
2, 203348, Note_on_c, 0, 68, 56
2, 203412, Note_on_c, 0, 68, 0
2, 203416, Note_on_c, 0, 70, 48
2, 203480, Note_on_c, 0, 70, 0
2, 203484, Note_on_c, 0, 68, 53
2, 203536, Note_on_c, 0, 70, 47
2, 203544, Note_on_c, 0, 68, 0
2, 203544, Note_on_c, 0, 52, 52
2, 203604, Note_on_c, 0, 70, 0
2, 203616, Note_on_c, 0, 68, 53
2, 203660, Note_on_c, 0, 70, 51
2, 203672, Note_on_c, 0, 68, 0
2, 203728, Note_on_c, 0, 70, 0
2, 203736, Note_on_c, 0, 68, 50
2, 203792, Note_on_c, 0, 70, 50
2, 203800, Note_on_c, 0, 68, 0
2, 203856, Note_on_c, 0, 70, 0
2, 203860, Note_on_c, 0, 52, 0
2, 203868, Note_on_c, 0, 68, 46
2, 203880, Note_on_c, 0, 61, 37
2, 203884, Note_on_c, 0, 56, 53
2, 203928, Note_on_c, 0, 68, 0
2, 203928, Note_on_c, 0, 70, 55
2, 203988, Note_on_c, 0, 68, 53
2, 204008, Note_on_c, 0, 70, 0
2, 204068, Note_on_c, 0, 68, 0
2, 204084, Note_on_c, 0, 67, 59
2, 204176, Note_on_c, 0, 68, 54
2, 204188, Note_on_c, 0, 67, 0
2, 204284, Note_on_c, 0, 68, 0
2, 204284, Note_on_c, 0, 72, 68
2, 204296, Note_on_c, 0, 52, 33
2, 204336, Note_on_c, 0, 61, 0
2, 204372, Note_on_c, 0, 56, 0
2, 204396, Note_on_c, 0, 52, 0
2, 204404, Note_on_c, 0, 70, 61
2, 204412, Note_on_c, 0, 72, 0
2, 204492, Note_on_c, 0, 70, 0
2, 204520, Note_on_c, 0, 68, 64
2, 204592, Note_on_c, 0, 68, 0
2, 204668, Note_on_c, 0, 68, 51
2, 204696, Control_c, 0, 64, 56
2, 204708, Control_c, 0, 64, 0
2, 204724, Note_on_c, 0, 39, 35
2, 204792, Control_c, 0, 64, 72
2, 204808, Control_c, 0, 64, 127
2, 204812, Note_on_c, 0, 39, 0
2, 204820, Note_on_c, 0, 68, 0
2, 204836, Note_on_c, 0, 67, 60
2, 204932, Note_on_c, 0, 67, 0
2, 204936, Note_on_c, 0, 68, 67
2, 205064, Note_on_c, 0, 51, 51
2, 205068, Note_on_c, 0, 70, 70
2, 205080, Note_on_c, 0, 68, 0
2, 205124, Note_on_c, 0, 70, 0
2, 205156, Note_on_c, 0, 51, 0
2, 205176, Note_on_c, 0, 72, 80
2, 205280, Note_on_c, 0, 72, 0
2, 205280, Note_on_c, 0, 73, 79
2, 205376, Note_on_c, 0, 67, 54
2, 205384, Note_on_c, 0, 61, 36
2, 205392, Note_on_c, 0, 58, 37
2, 205392, Note_on_c, 0, 75, 77
2, 205412, Note_on_c, 0, 73, 0
2, 205464, Note_on_c, 0, 75, 0
2, 205484, Note_on_c, 0, 67, 0
2, 205516, Note_on_c, 0, 77, 86
2, 205604, Note_on_c, 0, 77, 0
2, 205624, Note_on_c, 0, 79, 77
2, 205680, Note_on_c, 0, 79, 0
2, 205716, Note_on_c, 0, 79, 82
2, 205836, Note_on_c, 0, 79, 0
2, 205840, Note_on_c, 0, 91, 90
2, 205852, Note_on_c, 0, 51, 43
2, 205896, Note_on_c, 0, 61, 0
2, 205916, Note_on_c, 0, 58, 0
2, 205976, Note_on_c, 0, 51, 0
2, 206216, Control_c, 0, 64, 104
2, 206232, Note_on_c, 0, 39, 43
2, 206232, Control_c, 0, 64, 0
2, 206316, Control_c, 0, 64, 88
2, 206328, Control_c, 0, 64, 127
2, 206344, Note_on_c, 0, 39, 0
2, 206348, Note_on_c, 0, 91, 0
2, 206388, Note_on_c, 0, 89, 75
2, 206504, Note_on_c, 0, 89, 0
2, 206532, Note_on_c, 0, 87, 73
2, 206660, Note_on_c, 0, 87, 0
2, 206660, Note_on_c, 0, 85, 73
2, 206696, Note_on_c, 0, 51, 56
2, 206764, Note_on_c, 0, 85, 0
2, 206772, Note_on_c, 0, 84, 79
2, 206812, Note_on_c, 0, 51, 0
2, 206828, Note_on_c, 0, 84, 0
2, 206888, Note_on_c, 0, 82, 71
2, 206976, Note_on_c, 0, 82, 0
2, 207008, Note_on_c, 0, 80, 75
2, 207012, Note_on_c, 0, 65, 40
2, 207032, Note_on_c, 0, 56, 22
2, 207040, Note_on_c, 0, 60, 40
2, 207108, Note_on_c, 0, 80, 0
2, 207120, Note_on_c, 0, 79, 74
2, 207132, Note_on_c, 0, 65, 0
2, 207192, Note_on_c, 0, 79, 0
2, 207268, Note_on_c, 0, 77, 66
2, 207324, Note_on_c, 0, 77, 0
2, 207352, Note_on_c, 0, 77, 75
2, 207436, Note_on_c, 0, 77, 0
2, 207452, Note_on_c, 0, 56, 0
2, 207460, Note_on_c, 0, 60, 0
2, 207460, Note_on_c, 0, 51, 42
2, 207464, Note_on_c, 0, 65, 70
2, 207588, Note_on_c, 0, 51, 0
2, 207672, Note_on_c, 0, 65, 0
2, 207888, Note_on_c, 0, 39, 46
2, 207936, Control_c, 0, 64, 24
2, 207944, Control_c, 0, 64, 72
2, 207956, Control_c, 0, 64, 127
2, 208012, Note_on_c, 0, 39, 0
2, 208040, Note_on_c, 0, 63, 46
2, 208136, Note_on_c, 0, 63, 0
2, 208156, Note_on_c, 0, 66, 58
2, 208244, Note_on_c, 0, 66, 0
2, 208280, Note_on_c, 0, 67, 58
2, 208288, Control_c, 0, 64, 104
2, 208300, Control_c, 0, 64, 56
2, 208312, Control_c, 0, 64, 40
2, 208324, Control_c, 0, 64, 24
2, 208336, Control_c, 0, 64, 40
2, 208348, Note_on_c, 0, 55, 32
2, 208348, Control_c, 0, 64, 88
2, 208360, Control_c, 0, 64, 127
2, 208380, Note_on_c, 0, 67, 0
2, 208396, Note_on_c, 0, 68, 57
2, 208476, Note_on_c, 0, 68, 0
2, 208492, Note_on_c, 0, 69, 74
2, 208584, Note_on_c, 0, 69, 0
2, 208592, Note_on_c, 0, 70, 65
2, 208652, Note_on_c, 0, 55, 0
2, 208656, Note_on_c, 0, 70, 0
2, 208672, Note_on_c, 0, 63, 31
2, 208676, Note_on_c, 0, 71, 76
2, 208684, Note_on_c, 0, 58, 32
2, 208684, Control_c, 0, 64, 104
2, 208692, Control_c, 0, 64, 56
2, 208704, Control_c, 0, 64, 0
2, 208752, Note_on_c, 0, 71, 0
2, 208752, Control_c, 0, 64, 40
2, 208756, Note_on_c, 0, 72, 79
2, 208760, Control_c, 0, 64, 104
2, 208772, Control_c, 0, 64, 127
2, 208824, Note_on_c, 0, 72, 0
2, 208828, Note_on_c, 0, 73, 65
2, 208896, Note_on_c, 0, 73, 0
2, 208900, Note_on_c, 0, 74, 79
2, 208976, Note_on_c, 0, 75, 69
2, 208980, Note_on_c, 0, 74, 0
2, 209052, Note_on_c, 0, 79, 74
2, 209068, Note_on_c, 0, 75, 0
2, 209120, Note_on_c, 0, 77, 77
2, 209152, Note_on_c, 0, 79, 0
2, 209204, Note_on_c, 0, 75, 81
2, 209216, Note_on_c, 0, 77, 0
2, 209272, Note_on_c, 0, 75, 0
2, 209308, Note_on_c, 0, 75, 79
2, 209404, Note_on_c, 0, 63, 0
2, 209412, Note_on_c, 0, 87, 90
2, 209412, Note_on_c, 0, 55, 49
2, 209432, Note_on_c, 0, 58, 0
2, 209460, Note_on_c, 0, 75, 0
2, 209508, Note_on_c, 0, 55, 0
2, 209724, Control_c, 0, 64, 104
2, 209736, Control_c, 0, 64, 40
2, 209748, Control_c, 0, 64, 0
2, 209764, Note_on_c, 0, 41, 46
2, 209768, Note_on_c, 0, 53, 42
2, 209808, Control_c, 0, 64, 72
2, 209820, Control_c, 0, 64, 127
2, 209848, Note_on_c, 0, 41, 0
2, 209884, Note_on_c, 0, 86, 83
2, 209892, Note_on_c, 0, 53, 0
2, 209908, Note_on_c, 0, 87, 0
2, 209968, Note_on_c, 0, 86, 0
2, 209996, Note_on_c, 0, 85, 84
2, 210052, Note_on_c, 0, 85, 0
2, 210116, Note_on_c, 0, 85, 68
2, 210164, Note_on_c, 0, 85, 0
2, 210180, Note_on_c, 0, 87, 69
2, 210212, Note_on_c, 0, 85, 70
2, 210224, Note_on_c, 0, 68, 42
2, 210228, Note_on_c, 0, 56, 34
2, 210236, Note_on_c, 0, 87, 0
2, 210236, Note_on_c, 0, 61, 40
2, 210308, Note_on_c, 0, 56, 0
2, 210312, Note_on_c, 0, 68, 0
2, 210316, Note_on_c, 0, 61, 0
2, 210352, Note_on_c, 0, 85, 0
2, 210372, Note_on_c, 0, 84, 84
2, 210472, Note_on_c, 0, 84, 0
2, 210540, Note_on_c, 0, 85, 78
2, 210600, Note_on_c, 0, 85, 0
2, 210620, Note_on_c, 0, 85, 78
2, 210692, Note_on_c, 0, 85, 0
2, 210692, Control_c, 0, 64, 88
2, 210696, Note_on_c, 0, 87, 30
2, 210704, Control_c, 0, 64, 0
2, 210724, Note_on_c, 0, 87, 0
2, 210732, Note_on_c, 0, 55, 44
2, 210736, Note_on_c, 0, 43, 34
2, 210748, Control_c, 0, 64, 88
2, 210760, Control_c, 0, 64, 127
2, 210824, Note_on_c, 0, 101, 84
2, 210832, Note_on_c, 0, 43, 0
2, 210844, Note_on_c, 0, 55, 0
2, 210924, Note_on_c, 0, 101, 0
2, 210944, Note_on_c, 0, 99, 79
2, 211036, Note_on_c, 0, 97, 77
2, 211048, Note_on_c, 0, 99, 0
2, 211104, Note_on_c, 0, 94, 75
2, 211172, Note_on_c, 0, 97, 0
2, 211188, Note_on_c, 0, 94, 0
2, 211188, Note_on_c, 0, 91, 79
2, 211228, Note_on_c, 0, 91, 0
2, 211276, Note_on_c, 0, 89, 78
2, 211352, Note_on_c, 0, 89, 0
2, 211364, Note_on_c, 0, 87, 68
2, 211380, Note_on_c, 0, 70, 34
2, 211380, Note_on_c, 0, 63, 36
2, 211380, Note_on_c, 0, 61, 34
2, 211424, Note_on_c, 0, 61, 0
2, 211440, Note_on_c, 0, 70, 0
2, 211452, Note_on_c, 0, 63, 0
2, 211456, Note_on_c, 0, 85, 68
2, 211464, Note_on_c, 0, 87, 0
2, 211532, Note_on_c, 0, 82, 61
2, 211540, Note_on_c, 0, 85, 0
2, 211592, Note_on_c, 0, 82, 0
2, 211608, Note_on_c, 0, 79, 61
2, 211668, Note_on_c, 0, 79, 0
2, 211688, Note_on_c, 0, 77, 69
2, 211720, Note_on_c, 0, 77, 0
2, 211768, Note_on_c, 0, 75, 61
2, 211856, Note_on_c, 0, 75, 0
2, 211868, Note_on_c, 0, 73, 47
2, 211924, Note_on_c, 0, 73, 0
2, 211944, Note_on_c, 0, 70, 47
2, 212004, Note_on_c, 0, 70, 0
2, 212040, Note_on_c, 0, 63, 45
2, 212128, Note_on_c, 0, 63, 0
2, 212160, Note_on_c, 0, 65, 48
2, 212228, Note_on_c, 0, 65, 0
2, 212256, Note_on_c, 0, 67, 49
2, 212324, Note_on_c, 0, 67, 0
2, 212348, Note_on_c, 0, 68, 50
2, 212444, Note_on_c, 0, 68, 0
2, 212456, Note_on_c, 0, 70, 51
2, 212528, Note_on_c, 0, 70, 0
2, 212616, Note_on_c, 0, 72, 56
2, 212648, Note_on_c, 0, 44, 44
2, 212648, Note_on_c, 0, 32, 45
2, 212680, Control_c, 0, 64, 40
2, 212692, Control_c, 0, 64, 0
2, 212696, Control_c, 0, 64, 56
2, 212708, Control_c, 0, 64, 104
2, 212724, Control_c, 0, 64, 127
2, 212828, Note_on_c, 0, 32, 0
2, 212836, Note_on_c, 0, 44, 0
2, 212852, Note_on_c, 0, 72, 0
2, 212944, Note_on_c, 0, 72, 71
2, 213120, Note_on_c, 0, 72, 0
2, 213136, Note_on_c, 0, 56, 36
2, 213156, Note_on_c, 0, 48, 44
2, 213248, Note_on_c, 0, 56, 0
2, 213268, Note_on_c, 0, 48, 0
2, 213296, Note_on_c, 0, 72, 79
2, 213392, Note_on_c, 0, 72, 0
2, 213516, Note_on_c, 0, 72, 85
2, 213516, Note_on_c, 0, 60, 35
2, 213524, Note_on_c, 0, 51, 34
2, 213540, Note_on_c, 0, 56, 22
2, 213584, Note_on_c, 0, 56, 0
2, 213588, Note_on_c, 0, 51, 0
2, 213612, Note_on_c, 0, 72, 0
2, 213624, Note_on_c, 0, 60, 0
2, 213728, Note_on_c, 0, 72, 72
2, 213792, Note_on_c, 0, 72, 0
2, 213792, Note_on_c, 0, 75, 76
2, 213872, Note_on_c, 0, 73, 79
2, 213896, Note_on_c, 0, 75, 0
2, 213956, Note_on_c, 0, 73, 0
2, 213972, Note_on_c, 0, 63, 39
2, 213984, Note_on_c, 0, 56, 35
2, 214068, Note_on_c, 0, 63, 0
2, 214084, Note_on_c, 0, 56, 0
2, 214336, Note_on_c, 0, 72, 74
2, 214388, Note_on_c, 0, 72, 0
2, 214448, Note_on_c, 0, 72, 81
2, 214480, Control_c, 0, 64, 104
2, 214492, Note_on_c, 0, 37, 41
2, 214492, Note_on_c, 0, 49, 44
2, 214496, Control_c, 0, 64, 0
2, 214596, Control_c, 0, 64, 127
2, 214604, Note_on_c, 0, 37, 0
2, 214612, Note_on_c, 0, 49, 0
2, 214868, Note_on_c, 0, 58, 38
2, 214896, Note_on_c, 0, 53, 40
2, 214936, Note_on_c, 0, 53, 0
2, 214948, Note_on_c, 0, 58, 0
2, 215032, Note_on_c, 0, 72, 0
2, 215116, Note_on_c, 0, 64, 63
2, 215184, Note_on_c, 0, 64, 0
2, 215248, Note_on_c, 0, 65, 68
2, 215268, Note_on_c, 0, 56, 43
2, 215276, Control_c, 0, 64, 88
2, 215288, Control_c, 0, 64, 0
2, 215348, Control_c, 0, 64, 72
2, 215364, Control_c, 0, 64, 127
2, 215372, Note_on_c, 0, 72, 76
2, 215376, Note_on_c, 0, 56, 0
2, 215412, Note_on_c, 0, 65, 0
2, 215464, Note_on_c, 0, 72, 0
2, 215472, Note_on_c, 0, 70, 71
2, 215576, Note_on_c, 0, 73, 79
2, 215592, Note_on_c, 0, 70, 0
2, 215632, Note_on_c, 0, 73, 0
2, 215688, Note_on_c, 0, 77, 87
2, 215764, Note_on_c, 0, 77, 0
2, 215788, Note_on_c, 0, 82, 74
2, 215792, Note_on_c, 0, 68, 33
2, 215792, Note_on_c, 0, 58, 30
2, 215792, Note_on_c, 0, 61, 37
2, 215928, Note_on_c, 0, 61, 0
2, 215936, Note_on_c, 0, 58, 0
2, 215948, Note_on_c, 0, 68, 0
2, 215964, Note_on_c, 0, 91, 88
2, 215980, Note_on_c, 0, 82, 0
2, 216380, Note_on_c, 0, 91, 0
2, 216420, Note_on_c, 0, 89, 74
2, 216536, Note_on_c, 0, 89, 0
2, 216616, Note_on_c, 0, 82, 73
2, 216640, Note_on_c, 0, 39, 38
2, 216640, Note_on_c, 0, 51, 35
2, 216640, Control_c, 0, 64, 88
2, 216656, Control_c, 0, 64, 0
2, 216740, Control_c, 0, 64, 127
2, 216756, Note_on_c, 0, 39, 0
2, 216768, Note_on_c, 0, 51, 0
2, 217040, Note_on_c, 0, 63, 40
2, 217040, Note_on_c, 0, 55, 42
2, 217040, Note_on_c, 0, 58, 37
2, 217088, Note_on_c, 0, 58, 0
2, 217100, Note_on_c, 0, 55, 0
2, 217136, Note_on_c, 0, 63, 0
2, 217440, Note_on_c, 0, 67, 44
2, 217440, Note_on_c, 0, 63, 39
2, 217440, Note_on_c, 0, 58, 38
2, 217520, Note_on_c, 0, 67, 0
2, 217524, Note_on_c, 0, 58, 0
2, 217524, Note_on_c, 0, 63, 0
2, 217548, Note_on_c, 0, 82, 0
2, 217564, Note_on_c, 0, 81, 73
2, 217660, Note_on_c, 0, 82, 77
2, 217668, Note_on_c, 0, 81, 0
2, 217764, Note_on_c, 0, 82, 0
2, 217772, Note_on_c, 0, 84, 82
2, 217776, Note_on_c, 0, 70, 46
2, 217792, Note_on_c, 0, 63, 39
2, 217792, Note_on_c, 0, 67, 32
2, 217832, Note_on_c, 0, 67, 0
2, 217840, Note_on_c, 0, 70, 0
2, 217852, Note_on_c, 0, 63, 0
2, 217864, Note_on_c, 0, 84, 0
2, 217868, Note_on_c, 0, 82, 79
2, 217956, Note_on_c, 0, 82, 0
2, 217956, Note_on_c, 0, 85, 77
2, 218052, Note_on_c, 0, 84, 85
2, 218060, Note_on_c, 0, 85, 0
2, 218140, Note_on_c, 0, 84, 0
2, 218152, Note_on_c, 0, 82, 82
2, 218152, Note_on_c, 0, 75, 47
2, 218152, Note_on_c, 0, 70, 38
2, 218164, Note_on_c, 0, 67, 39
2, 218204, Note_on_c, 0, 67, 0
2, 218208, Note_on_c, 0, 70, 0
2, 218224, Note_on_c, 0, 75, 0
2, 218548, Note_on_c, 0, 70, 41
2, 218548, Note_on_c, 0, 63, 36
2, 218548, Note_on_c, 0, 67, 38
2, 218588, Note_on_c, 0, 67, 0
2, 218632, Note_on_c, 0, 70, 0
2, 218644, Note_on_c, 0, 63, 0
2, 218924, Note_on_c, 0, 75, 72
2, 218960, Note_on_c, 0, 58, 37
2, 218960, Note_on_c, 0, 67, 39
2, 218964, Note_on_c, 0, 82, 0
2, 218964, Note_on_c, 0, 63, 40
2, 219028, Note_on_c, 0, 67, 0
2, 219068, Note_on_c, 0, 58, 0
2, 219072, Note_on_c, 0, 63, 0
2, 219340, Note_on_c, 0, 63, 40
2, 219340, Note_on_c, 0, 55, 41
2, 219340, Note_on_c, 0, 61, 41
2, 219428, Note_on_c, 0, 61, 0
2, 219428, Note_on_c, 0, 63, 0
2, 219432, Note_on_c, 0, 55, 0
2, 219460, Note_on_c, 0, 75, 0
2, 219784, Note_on_c, 0, 84, 82
2, 219792, Note_on_c, 0, 72, 70
2, 219792, Control_c, 0, 64, 104
2, 219808, Control_c, 0, 64, 24
2, 219812, Note_on_c, 0, 44, 33
2, 219816, Note_on_c, 0, 32, 42
2, 219824, Control_c, 0, 64, 0
2, 219908, Control_c, 0, 64, 88
2, 219916, Note_on_c, 0, 32, 0
2, 219924, Control_c, 0, 64, 127
2, 219928, Note_on_c, 0, 44, 0
2, 220176, Note_on_c, 0, 51, 48
2, 220280, Note_on_c, 0, 72, 0
2, 220424, Note_on_c, 0, 84, 0
2, 220492, Note_on_c, 0, 51, 0
2, 220508, Note_on_c, 0, 85, 86
2, 220516, Note_on_c, 0, 63, 27
2, 220524, Note_on_c, 0, 73, 63
2, 220536, Note_on_c, 0, 60, 48
2, 220536, Note_on_c, 0, 56, 32
2, 220752, Note_on_c, 0, 73, 0
2, 220760, Note_on_c, 0, 85, 0
2, 220860, Note_on_c, 0, 84, 92
2, 220872, Note_on_c, 0, 60, 0
2, 220872, Note_on_c, 0, 72, 74
2, 220880, Note_on_c, 0, 56, 0
2, 220888, Note_on_c, 0, 51, 44
2, 221008, Note_on_c, 0, 72, 0
2, 221076, Note_on_c, 0, 63, 0
2, 221104, Note_on_c, 0, 84, 0
2, 221244, Note_on_c, 0, 82, 79
2, 221252, Note_on_c, 0, 70, 62
2, 221256, Note_on_c, 0, 51, 0
2, 221268, Note_on_c, 0, 63, 40
2, 221280, Note_on_c, 0, 61, 37
2, 221292, Note_on_c, 0, 56, 26
2, 221356, Control_c, 0, 64, 88
2, 221372, Control_c, 0, 64, 0
2, 221512, Control_c, 0, 64, 72
2, 221528, Control_c, 0, 64, 127
2, 221608, Note_on_c, 0, 56, 0
2, 221612, Note_on_c, 0, 55, 52
2, 221640, Note_on_c, 0, 70, 0
2, 221936, Note_on_c, 0, 55, 0
2, 221944, Note_on_c, 0, 87, 80
2, 221956, Note_on_c, 0, 82, 0
2, 221956, Note_on_c, 0, 75, 62
2, 221984, Note_on_c, 0, 53, 42
2, 222196, Note_on_c, 0, 53, 0
2, 222260, Note_on_c, 0, 61, 0
2, 222300, Note_on_c, 0, 55, 51
2, 222328, Note_on_c, 0, 87, 0
2, 222340, Note_on_c, 0, 75, 0
2, 222444, Note_on_c, 0, 63, 0
2, 222592, Note_on_c, 0, 55, 0
2, 222632, Note_on_c, 0, 80, 79
2, 222640, Note_on_c, 0, 68, 56
2, 222652, Note_on_c, 0, 63, 32
2, 222668, Note_on_c, 0, 60, 45
2, 222668, Note_on_c, 0, 56, 35
2, 222720, Control_c, 0, 64, 88
2, 222736, Control_c, 0, 64, 24
2, 222748, Control_c, 0, 64, 0
2, 222832, Control_c, 0, 64, 88
2, 222848, Control_c, 0, 64, 127
2, 222972, Note_on_c, 0, 56, 0
2, 222984, Note_on_c, 0, 60, 0
2, 222996, Note_on_c, 0, 51, 44
2, 223080, Note_on_c, 0, 68, 0
2, 223096, Note_on_c, 0, 63, 0
2, 223104, Note_on_c, 0, 80, 0
2, 223308, Note_on_c, 0, 79, 79
2, 223316, Note_on_c, 0, 51, 0
2, 223316, Note_on_c, 0, 63, 29
2, 223320, Note_on_c, 0, 58, 42
2, 223328, Note_on_c, 0, 67, 58
2, 223404, Control_c, 0, 64, 24
2, 223416, Control_c, 0, 64, 0
2, 223488, Control_c, 0, 64, 104
2, 223500, Control_c, 0, 64, 127
2, 223652, Note_on_c, 0, 56, 46
2, 223672, Note_on_c, 0, 58, 0
2, 223720, Note_on_c, 0, 67, 0
2, 223768, Note_on_c, 0, 79, 0
2, 223820, Note_on_c, 0, 77, 84
2, 223824, Note_on_c, 0, 65, 62
2, 223888, Note_on_c, 0, 65, 0
2, 223952, Note_on_c, 0, 77, 0
2, 223988, Note_on_c, 0, 79, 85
2, 223996, Note_on_c, 0, 67, 64
2, 224012, Note_on_c, 0, 58, 39
2, 224028, Control_c, 0, 64, 88
2, 224032, Note_on_c, 0, 56, 0
2, 224044, Control_c, 0, 64, 0
2, 224080, Note_on_c, 0, 63, 0
2, 224112, Control_c, 0, 64, 56
2, 224124, Control_c, 0, 64, 127
2, 224324, Note_on_c, 0, 58, 0
2, 224336, Note_on_c, 0, 51, 50
2, 224636, Note_on_c, 0, 51, 0
2, 224644, Note_on_c, 0, 63, 39
2, 224652, Note_on_c, 0, 61, 37
2, 224660, Note_on_c, 0, 58, 29
2, 224768, Control_c, 0, 64, 72
2, 224780, Control_c, 0, 64, 56
2, 224792, Control_c, 0, 64, 88
2, 224804, Control_c, 0, 64, 127
2, 225024, Note_on_c, 0, 51, 40
2, 225052, Note_on_c, 0, 63, 0
2, 225076, Note_on_c, 0, 58, 0
2, 225088, Note_on_c, 0, 61, 0
2, 225120, Note_on_c, 0, 67, 0
2, 225148, Note_on_c, 0, 51, 0
2, 225172, Note_on_c, 0, 79, 0
2, 225368, Note_on_c, 0, 80, 79
2, 225368, Note_on_c, 0, 68, 58
2, 225368, Note_on_c, 0, 44, 44
2, 225404, Control_c, 0, 64, 72
2, 225416, Control_c, 0, 64, 0
2, 225464, Note_on_c, 0, 44, 0
2, 225504, Control_c, 0, 64, 104
2, 225520, Control_c, 0, 64, 127
2, 225776, Note_on_c, 0, 51, 44
2, 225784, Note_on_c, 0, 68, 0
2, 226028, Note_on_c, 0, 51, 0
2, 226044, Note_on_c, 0, 80, 0
2, 226052, Note_on_c, 0, 82, 77
2, 226068, Note_on_c, 0, 70, 60
2, 226076, Note_on_c, 0, 56, 33
2, 226080, Note_on_c, 0, 60, 38
2, 226084, Note_on_c, 0, 63, 18
2, 226292, Note_on_c, 0, 70, 0
2, 226320, Note_on_c, 0, 82, 0
2, 226380, Note_on_c, 0, 80, 85
2, 226384, Note_on_c, 0, 68, 65
2, 226404, Note_on_c, 0, 63, 0
2, 226404, Note_on_c, 0, 51, 44
2, 226416, Note_on_c, 0, 60, 0
2, 226440, Note_on_c, 0, 56, 0
2, 226480, Note_on_c, 0, 51, 0
2, 226500, Note_on_c, 0, 68, 0
2, 226500, Note_on_c, 0, 80, 0
2, 226728, Note_on_c, 0, 79, 81
2, 226732, Note_on_c, 0, 67, 61
2, 226740, Control_c, 0, 64, 88
2, 226756, Control_c, 0, 64, 0
2, 226768, Note_on_c, 0, 39, 43
2, 226852, Control_c, 0, 64, 127
2, 226876, Note_on_c, 0, 39, 0
2, 227076, Note_on_c, 0, 51, 42
2, 227100, Note_on_c, 0, 67, 0
2, 227184, Note_on_c, 0, 79, 0
2, 227212, Note_on_c, 0, 72, 77
2, 227276, Note_on_c, 0, 72, 0
2, 227336, Note_on_c, 0, 72, 81
2, 227484, Note_on_c, 0, 84, 89
2, 227516, Note_on_c, 0, 63, 50
2, 227840, Note_on_c, 0, 84, 0
2, 227844, Note_on_c, 0, 61, 47
2, 227868, Note_on_c, 0, 72, 0
2, 227988, Note_on_c, 0, 82, 73
2, 228000, Note_on_c, 0, 70, 59
2, 228016, Note_on_c, 0, 61, 0
2, 228068, Note_on_c, 0, 70, 0
2, 228100, Note_on_c, 0, 63, 0
2, 228104, Note_on_c, 0, 82, 0
2, 228176, Note_on_c, 0, 80, 73
2, 228184, Note_on_c, 0, 68, 54
2, 228212, Note_on_c, 0, 60, 47
2, 228288, Control_c, 0, 64, 40
2, 228300, Control_c, 0, 64, 0
2, 228384, Control_c, 0, 64, 127
2, 228524, Note_on_c, 0, 63, 34
2, 228544, Note_on_c, 0, 60, 0
2, 228584, Note_on_c, 0, 80, 0
2, 228608, Note_on_c, 0, 68, 0
2, 228840, Note_on_c, 0, 79, 75
2, 228848, Note_on_c, 0, 67, 53
2, 228856, Note_on_c, 0, 58, 40
2, 228876, Note_on_c, 0, 63, 0
2, 228984, Note_on_c, 0, 67, 0
2, 229076, Note_on_c, 0, 79, 0
2, 229096, Note_on_c, 0, 51, 0
2, 229184, Note_on_c, 0, 58, 0
2, 229184, Note_on_c, 0, 77, 76
2, 229192, Note_on_c, 0, 65, 44
2, 229216, Note_on_c, 0, 56, 34
2, 229292, Note_on_c, 0, 65, 0
2, 229424, Note_on_c, 0, 77, 0
2, 229532, Note_on_c, 0, 56, 0
2, 229536, Note_on_c, 0, 79, 77
2, 229540, Note_on_c, 0, 67, 59
2, 229544, Note_on_c, 0, 58, 42
2, 229552, Control_c, 0, 64, 88
2, 229568, Control_c, 0, 64, 0
2, 229636, Control_c, 0, 64, 40
2, 229652, Control_c, 0, 64, 127
2, 229872, Note_on_c, 0, 58, 0
2, 229872, Note_on_c, 0, 63, 44
2, 230204, Note_on_c, 0, 63, 0
2, 230244, Note_on_c, 0, 56, 43
2, 230296, Note_on_c, 0, 67, 0
2, 230336, Note_on_c, 0, 79, 0
2, 230512, Note_on_c, 0, 56, 0
2, 230588, Note_on_c, 0, 55, 40
2, 230704, Note_on_c, 0, 55, 0
2, 231020, Note_on_c, 0, 77, 80
2, 231020, Note_on_c, 0, 68, 46
2, 231020, Note_on_c, 0, 65, 42
2, 231020, Note_on_c, 0, 37, 44
2, 231020, Control_c, 0, 64, 104
2, 231036, Control_c, 0, 64, 40
2, 231052, Control_c, 0, 64, 0
2, 231136, Note_on_c, 0, 37, 0
2, 231136, Control_c, 0, 64, 56
2, 231148, Control_c, 0, 64, 127
2, 231408, Note_on_c, 0, 56, 37
2, 231500, Note_on_c, 0, 77, 0
2, 231728, Note_on_c, 0, 75, 77
2, 231764, Note_on_c, 0, 53, 39
2, 231840, Note_on_c, 0, 68, 0
2, 232004, Note_on_c, 0, 75, 0
2, 232032, Note_on_c, 0, 65, 0
2, 232056, Note_on_c, 0, 73, 83
2, 232060, Note_on_c, 0, 61, 46
2, 232132, Note_on_c, 0, 53, 0
2, 232136, Note_on_c, 0, 61, 0
2, 232144, Note_on_c, 0, 56, 0
2, 232224, Note_on_c, 0, 73, 0
2, 232284, Note_on_c, 0, 63, 50
2, 232336, Note_on_c, 0, 70, 66
2, 232372, Control_c, 0, 64, 24
2, 232384, Control_c, 0, 64, 0
2, 232392, Note_on_c, 0, 73, 65
2, 232436, Note_on_c, 0, 43, 53
2, 232456, Control_c, 0, 64, 127
2, 232472, Note_on_c, 0, 75, 88
2, 232476, Note_on_c, 0, 63, 0
2, 232492, Note_on_c, 0, 70, 0
2, 232504, Note_on_c, 0, 73, 0
2, 232528, Note_on_c, 0, 43, 0
2, 232552, Note_on_c, 0, 75, 0
2, 232824, Note_on_c, 0, 58, 54
2, 232888, Note_on_c, 0, 58, 0
2, 232968, Note_on_c, 0, 63, 54
2, 232996, Control_c, 0, 64, 0
2, 233028, Note_on_c, 0, 68, 57
2, 233052, Note_on_c, 0, 63, 0
2, 233068, Note_on_c, 0, 72, 81
2, 233068, Control_c, 0, 64, 104
2, 233080, Control_c, 0, 64, 127
2, 233084, Note_on_c, 0, 68, 0
2, 233112, Note_on_c, 0, 44, 53
2, 233140, Note_on_c, 0, 72, 0
2, 233208, Note_on_c, 0, 80, 89
2, 233224, Note_on_c, 0, 44, 0
2, 233256, Note_on_c, 0, 80, 0
2, 233532, Note_on_c, 0, 60, 65
2, 233588, Note_on_c, 0, 60, 0
2, 233776, Note_on_c, 0, 63, 55
2, 233832, Control_c, 0, 64, 40
2, 233848, Control_c, 0, 64, 0
2, 233868, Note_on_c, 0, 68, 71
2, 233888, Note_on_c, 0, 53, 42
2, 233892, Note_on_c, 0, 41, 45
2, 233920, Control_c, 0, 64, 104
2, 233936, Control_c, 0, 64, 127
2, 233940, Note_on_c, 0, 41, 0
2, 233984, Note_on_c, 0, 75, 89
2, 233996, Note_on_c, 0, 53, 0
2, 234036, Note_on_c, 0, 68, 0
2, 234244, Note_on_c, 0, 63, 0
2, 234272, Note_on_c, 0, 56, 48
2, 234344, Note_on_c, 0, 56, 0
2, 234464, Note_on_c, 0, 63, 39
2, 234504, Note_on_c, 0, 75, 0
2, 234540, Note_on_c, 0, 70, 58
2, 234556, Control_c, 0, 64, 72
2, 234572, Control_c, 0, 64, 0
2, 234616, Note_on_c, 0, 55, 59
2, 234624, Note_on_c, 0, 43, 51
2, 234632, Note_on_c, 0, 73, 74
2, 234644, Note_on_c, 0, 70, 0
2, 234644, Control_c, 0, 64, 88
2, 234656, Note_on_c, 0, 43, 0
2, 234660, Control_c, 0, 64, 127
2, 234708, Note_on_c, 0, 73, 0
2, 234716, Note_on_c, 0, 75, 77
2, 234736, Note_on_c, 0, 55, 0
2, 234800, Note_on_c, 0, 75, 0
2, 234804, Note_on_c, 0, 73, 65
2, 234860, Note_on_c, 0, 73, 0
2, 234892, Note_on_c, 0, 75, 79
2, 234928, Note_on_c, 0, 58, 45
2, 234956, Note_on_c, 0, 75, 0
2, 234976, Note_on_c, 0, 73, 64
2, 234980, Note_on_c, 0, 58, 0
2, 235016, Note_on_c, 0, 73, 0
2, 235052, Note_on_c, 0, 75, 69
2, 235116, Note_on_c, 0, 73, 61
2, 235120, Note_on_c, 0, 75, 0
2, 235172, Note_on_c, 0, 73, 0
2, 235184, Note_on_c, 0, 72, 74
2, 235188, Note_on_c, 0, 63, 0
2, 235264, Note_on_c, 0, 72, 0
2, 235284, Note_on_c, 0, 75, 79
2, 235368, Note_on_c, 0, 73, 74
2, 235376, Note_on_c, 0, 75, 0
2, 235464, Note_on_c, 0, 73, 0
2, 235480, Note_on_c, 0, 72, 74
2, 235544, Note_on_c, 0, 72, 0
2, 235592, Note_on_c, 0, 72, 75
2, 235596, Control_c, 0, 64, 104
2, 235604, Note_on_c, 0, 56, 25
2, 235612, Control_c, 0, 64, 24
2, 235620, Note_on_c, 0, 63, 39
2, 235624, Note_on_c, 0, 44, 41
2, 235624, Note_on_c, 0, 68, 43
2, 235624, Control_c, 0, 64, 0
2, 235708, Control_c, 0, 64, 104
2, 235720, Note_on_c, 0, 44, 0
2, 235720, Control_c, 0, 64, 127
2, 235740, Note_on_c, 0, 56, 0
2, 235900, Note_on_c, 0, 63, 0
2, 235968, Note_on_c, 0, 60, 43
2, 236044, Note_on_c, 0, 60, 0
2, 236044, Note_on_c, 0, 72, 0
2, 236112, Note_on_c, 0, 68, 0
2, 236396, Note_on_c, 0, 77, 79
2, 236396, Note_on_c, 0, 65, 47
2, 236396, Note_on_c, 0, 38, 36
2, 236396, Note_on_c, 0, 50, 24
2, 236396, Note_on_c, 0, 71, 56
2, 236396, Note_on_c, 0, 68, 42
2, 236440, Control_c, 0, 64, 56
2, 236464, Control_c, 0, 64, 0
2, 236488, Note_on_c, 0, 38, 0
2, 236540, Note_on_c, 0, 50, 0
2, 236548, Control_c, 0, 64, 88
2, 236560, Control_c, 0, 64, 127
2, 236840, Note_on_c, 0, 77, 0
2, 236856, Note_on_c, 0, 59, 47
2, 236872, Note_on_c, 0, 71, 0
2, 236920, Note_on_c, 0, 68, 0
2, 236948, Note_on_c, 0, 59, 0
2, 236956, Note_on_c, 0, 65, 0
2, 237256, Note_on_c, 0, 63, 59
2, 237256, Note_on_c, 0, 60, 48
2, 237256, Note_on_c, 0, 39, 46
2, 237324, Control_c, 0, 64, 56
2, 237336, Control_c, 0, 64, 127
2, 237360, Note_on_c, 0, 39, 0
2, 237372, Note_on_c, 0, 60, 0
2, 237432, Note_on_c, 0, 63, 0
2, 237476, Note_on_c, 0, 65, 65
2, 237476, Note_on_c, 0, 61, 58
2, 237508, Note_on_c, 0, 61, 0
2, 237524, Note_on_c, 0, 65, 0
2, 237676, Note_on_c, 0, 63, 56
2, 237676, Note_on_c, 0, 67, 71
2, 237676, Note_on_c, 0, 51, 45
2, 237772, Note_on_c, 0, 63, 0
2, 237780, Note_on_c, 0, 67, 0
2, 237860, Note_on_c, 0, 68, 67
2, 237860, Note_on_c, 0, 65, 66
2, 237880, Note_on_c, 0, 65, 0
2, 237920, Note_on_c, 0, 51, 0
2, 237932, Note_on_c, 0, 68, 0
2, 238056, Note_on_c, 0, 70, 74
2, 238056, Note_on_c, 0, 67, 70
2, 238076, Note_on_c, 0, 63, 43
2, 238084, Note_on_c, 0, 56, 38
2, 238092, Note_on_c, 0, 60, 44
2, 238124, Note_on_c, 0, 67, 0
2, 238188, Note_on_c, 0, 70, 0
2, 238260, Note_on_c, 0, 72, 81
2, 238260, Note_on_c, 0, 68, 68
2, 238324, Note_on_c, 0, 68, 0
2, 238324, Note_on_c, 0, 72, 0
2, 238432, Note_on_c, 0, 51, 45
2, 238444, Note_on_c, 0, 73, 56
2, 238444, Note_on_c, 0, 70, 75
2, 238464, Note_on_c, 0, 73, 0
2, 238508, Note_on_c, 0, 56, 0
2, 238520, Note_on_c, 0, 70, 0
2, 238588, Note_on_c, 0, 60, 0
2, 238596, Note_on_c, 0, 63, 0
2, 238620, Note_on_c, 0, 74, 82
2, 238620, Note_on_c, 0, 71, 72
2, 238680, Note_on_c, 0, 71, 0
2, 238688, Note_on_c, 0, 74, 0
2, 238696, Note_on_c, 0, 51, 0
2, 238808, Note_on_c, 0, 75, 77
2, 238808, Note_on_c, 0, 72, 72
2, 238808, Note_on_c, 0, 56, 43
2, 238808, Note_on_c, 0, 60, 50
2, 238808, Note_on_c, 0, 68, 53
2, 238812, Control_c, 0, 64, 56
2, 238824, Control_c, 0, 64, 0
2, 238928, Note_on_c, 0, 68, 0
2, 238928, Note_on_c, 0, 60, 0
2, 238928, Control_c, 0, 64, 127
2, 238944, Note_on_c, 0, 72, 0
2, 238956, Note_on_c, 0, 75, 0
2, 238960, Note_on_c, 0, 56, 0
2, 239000, Note_on_c, 0, 77, 88
2, 239000, Note_on_c, 0, 73, 77
2, 239048, Note_on_c, 0, 77, 0
2, 239056, Note_on_c, 0, 73, 0
2, 239180, Note_on_c, 0, 79, 86
2, 239180, Note_on_c, 0, 75, 70
2, 239180, Note_on_c, 0, 51, 49
2, 239248, Note_on_c, 0, 75, 0
2, 239304, Note_on_c, 0, 79, 0
2, 239360, Note_on_c, 0, 80, 85
2, 239360, Note_on_c, 0, 77, 88
2, 239408, Note_on_c, 0, 77, 0
2, 239408, Note_on_c, 0, 51, 0
2, 239436, Note_on_c, 0, 80, 0
2, 239560, Note_on_c, 0, 82, 84
2, 239560, Note_on_c, 0, 79, 78
2, 239560, Note_on_c, 0, 60, 49
2, 239560, Note_on_c, 0, 56, 39
2, 239560, Note_on_c, 0, 63, 44
2, 239648, Note_on_c, 0, 79, 0
2, 239696, Note_on_c, 0, 82, 0
2, 239740, Note_on_c, 0, 80, 75
2, 239740, Note_on_c, 0, 84, 85
2, 239788, Note_on_c, 0, 80, 0
2, 239808, Note_on_c, 0, 84, 0
2, 239948, Note_on_c, 0, 85, 87
2, 239948, Note_on_c, 0, 82, 80
2, 239948, Note_on_c, 0, 51, 47
2, 240024, Note_on_c, 0, 63, 0
2, 240024, Note_on_c, 0, 60, 0
2, 240060, Note_on_c, 0, 56, 0
2, 240064, Note_on_c, 0, 82, 0
2, 240064, Note_on_c, 0, 51, 0
2, 240100, Note_on_c, 0, 85, 0
2, 240172, Note_on_c, 0, 87, 85
2, 240172, Note_on_c, 0, 84, 80
2, 240236, Note_on_c, 0, 84, 0
2, 240312, Note_on_c, 0, 87, 0
2, 240440, Note_on_c, 0, 88, 82
2, 240440, Note_on_c, 0, 39, 56
2, 240440, Note_on_c, 0, 85, 73
2, 240464, Control_c, 0, 64, 56
2, 240476, Control_c, 0, 64, 0
2, 240548, Control_c, 0, 64, 104
2, 240560, Control_c, 0, 64, 127
2, 240584, Note_on_c, 0, 39, 0
2, 240608, Note_on_c, 0, 88, 0
2, 240632, Note_on_c, 0, 85, 0
2, 240724, Note_on_c, 0, 88, 88
2, 240724, Note_on_c, 0, 82, 82
2, 240808, Note_on_c, 0, 88, 0
2, 240824, Note_on_c, 0, 82, 0
2, 240928, Note_on_c, 0, 85, 82
2, 240928, Note_on_c, 0, 81, 74
2, 240928, Note_on_c, 0, 51, 55
2, 240984, Note_on_c, 0, 81, 0
2, 241036, Note_on_c, 0, 85, 0
2, 241132, Note_on_c, 0, 85, 85
2, 241132, Note_on_c, 0, 80, 83
2, 241176, Note_on_c, 0, 51, 0
2, 241208, Note_on_c, 0, 80, 0
2, 241216, Note_on_c, 0, 85, 0
2, 241340, Note_on_c, 0, 79, 83
2, 241340, Note_on_c, 0, 82, 77
2, 241340, Note_on_c, 0, 61, 49
2, 241340, Note_on_c, 0, 67, 49
2, 241344, Note_on_c, 0, 58, 45
2, 241416, Note_on_c, 0, 79, 0
2, 241444, Note_on_c, 0, 82, 0
2, 241452, Note_on_c, 0, 67, 0
2, 241544, Note_on_c, 0, 82, 88
2, 241544, Note_on_c, 0, 76, 64
2, 241608, Note_on_c, 0, 82, 0
2, 241644, Note_on_c, 0, 76, 0
2, 241752, Note_on_c, 0, 79, 77
2, 241752, Note_on_c, 0, 75, 73
2, 241780, Note_on_c, 0, 51, 43
2, 241804, Note_on_c, 0, 61, 0
2, 241816, Note_on_c, 0, 58, 0
2, 241824, Note_on_c, 0, 79, 0
2, 241844, Note_on_c, 0, 75, 0
2, 241900, Note_on_c, 0, 51, 0
2, 241972, Note_on_c, 0, 79, 79
2, 241972, Note_on_c, 0, 74, 78
2, 242032, Note_on_c, 0, 74, 0
2, 242032, Note_on_c, 0, 79, 0
2, 242188, Note_on_c, 0, 73, 64
2, 242188, Note_on_c, 0, 76, 75
2, 242188, Note_on_c, 0, 39, 54
2, 242192, Control_c, 0, 64, 104
2, 242208, Control_c, 0, 64, 40
2, 242224, Control_c, 0, 64, 0
2, 242296, Note_on_c, 0, 39, 0
2, 242296, Note_on_c, 0, 76, 0
2, 242296, Control_c, 0, 64, 88
2, 242308, Control_c, 0, 64, 127
2, 242344, Note_on_c, 0, 73, 0
2, 242420, Note_on_c, 0, 76, 80
2, 242420, Note_on_c, 0, 70, 69
2, 242500, Note_on_c, 0, 76, 0
2, 242516, Note_on_c, 0, 70, 0
2, 242628, Note_on_c, 0, 73, 73
2, 242628, Note_on_c, 0, 69, 66
2, 242628, Note_on_c, 0, 51, 46
2, 242688, Note_on_c, 0, 69, 0
2, 242724, Note_on_c, 0, 73, 0
2, 242860, Note_on_c, 0, 73, 69
2, 242860, Note_on_c, 0, 68, 65
2, 242936, Note_on_c, 0, 68, 0
2, 242936, Note_on_c, 0, 73, 0
2, 243072, Note_on_c, 0, 51, 0
2, 243096, Note_on_c, 0, 70, 65
2, 243096, Note_on_c, 0, 67, 70
2, 243096, Note_on_c, 0, 58, 41
2, 243096, Note_on_c, 0, 61, 41
2, 243120, Control_c, 0, 64, 72
2, 243132, Control_c, 0, 64, 0
2, 243200, Control_c, 0, 64, 56
2, 243208, Note_on_c, 0, 67, 0
2, 243216, Control_c, 0, 64, 127
2, 243248, Note_on_c, 0, 70, 0
2, 243344, Note_on_c, 0, 67, 75
2, 243344, Note_on_c, 0, 64, 67
2, 243400, Note_on_c, 0, 67, 0
2, 243436, Note_on_c, 0, 64, 0
2, 243440, Note_on_c, 0, 61, 0
2, 243624, Note_on_c, 0, 67, 74
2, 243624, Note_on_c, 0, 63, 59
2, 243624, Note_on_c, 0, 51, 44
2, 243720, Note_on_c, 0, 67, 0
2, 243772, Note_on_c, 0, 63, 0
2, 243776, Note_on_c, 0, 58, 0
2, 243792, Note_on_c, 0, 51, 0
2, 243924, Note_on_c, 0, 61, 59
2, 243924, Note_on_c, 0, 67, 70
2, 244008, Note_on_c, 0, 61, 0
2, 244036, Note_on_c, 0, 67, 0
2, 244304, Note_on_c, 0, 68, 63
2, 244304, Note_on_c, 0, 60, 56
2, 244304, Note_on_c, 0, 56, 40
2, 244304, Note_on_c, 0, 44, 39
2, 244396, Control_c, 0, 64, 104
2, 244408, Control_c, 0, 64, 24
2, 244428, Control_c, 0, 64, 0
2, 244540, Control_c, 0, 64, 88
2, 244552, Control_c, 0, 64, 127
2, 244644, Note_on_c, 0, 44, 0
2, 244660, Note_on_c, 0, 56, 0
2, 244672, Note_on_c, 0, 60, 0
2, 244724, Note_on_c, 0, 68, 0
2, 245076, Control_c, 0, 64, 72
2, 245092, Control_c, 0, 64, 0
2, 245192, Control_c, 0, 64, 88
2, 245208, Control_c, 0, 64, 127
2, 245648, Control_c, 0, 64, 88
2, 245660, Control_c, 0, 64, 24
2, 245676, Control_c, 0, 64, 0
2, 245744, Control_c, 0, 64, 40
2, 245760, Control_c, 0, 64, 104
2, 245772, Control_c, 0, 64, 127
2, 246128, Control_c, 0, 64, 88
2, 246144, Control_c, 0, 64, 40
2, 246156, Control_c, 0, 64, 0
2, 246200, Control_c, 0, 64, 56
2, 246216, Control_c, 0, 64, 127
2, 246724, Control_c, 0, 64, 88
2, 246740, Control_c, 0, 64, 40
2, 246752, Control_c, 0, 64, 0
2, 246840, Control_c, 0, 64, 40
2, 246856, Control_c, 0, 64, 104
2, 246868, Control_c, 0, 64, 127
2, 255664, Note_on_c, 0, 32, 46
2, 255724, Control_c, 0, 64, 88
2, 255736, Control_c, 0, 64, 40
2, 255752, Control_c, 0, 64, 0
2, 255808, Control_c, 0, 64, 24
2, 255824, Control_c, 0, 64, 88
2, 255836, Control_c, 0, 64, 127
2, 256112, Note_on_c, 0, 51, 46
2, 256400, Note_on_c, 0, 51, 0
2, 256492, Note_on_c, 0, 60, 59
2, 256500, Note_on_c, 0, 32, 0
2, 256832, Note_on_c, 0, 60, 0
2, 256848, Note_on_c, 0, 56, 54
2, 257152, Note_on_c, 0, 56, 0
2, 257196, Note_on_c, 0, 60, 60
2, 257504, Note_on_c, 0, 60, 0
2, 257524, Note_on_c, 0, 63, 56
2, 257792, Note_on_c, 0, 63, 0
2, 257852, Note_on_c, 0, 72, 67
2, 258180, Note_on_c, 0, 72, 0
2, 258212, Note_on_c, 0, 68, 58
2, 258356, Note_on_c, 0, 68, 0
2, 258560, Note_on_c, 0, 72, 59
2, 258924, Note_on_c, 0, 72, 0
2, 258952, Note_on_c, 0, 75, 62
2, 259352, Note_on_c, 0, 75, 0
2, 259352, Note_on_c, 0, 80, 60
2, 259476, Note_on_c, 0, 80, 0
2, 259812, Note_on_c, 0, 84, 59
2, 260112, Note_on_c, 0, 84, 0
2, 260456, Note_on_c, 0, 92, 67
2, 261036, Note_on_c, 0, 92, 0
2, 262016, Control_c, 0, 64, 88
2, 262028, Control_c, 0, 64, 56
2, 262044, Control_c, 0, 64, 0
2, 265112, Control_c, 0, 64, 24
2, 265128, Control_c, 0, 64, 40
2, 265140, Control_c, 0, 64, 56
2, 265156, Control_c, 0, 64, 72
2, 265168, Control_c, 0, 64, 88
2, 265184, Control_c, 0, 64, 104
2, 265212, Control_c, 0, 64, 127
2, 265212, End_track
3, 0, Start_track
3, 0, MIDI_port, 0
3, 0, Title_t, "violins 1 & 2"
3, 0, Control_c, 1, 0, 0
3, 0, Control_c, 1, 32, 0
3, 0, Program_c, 1, 49
3, 36, Control_c, 1, 91, 127
3, 616, Note_on_c, 1, 68, 48
3, 1164, Note_on_c, 1, 65, 47
3, 1256, Note_on_c, 1, 68, 0
3, 1656, Note_on_c, 1, 63, 46
3, 1692, Note_on_c, 1, 65, 0
3, 1892, Note_on_c, 1, 65, 48
3, 1908, Note_on_c, 1, 63, 0
3, 2172, Note_on_c, 1, 65, 0
3, 2176, Note_on_c, 1, 62, 55
3, 2760, Note_on_c, 1, 62, 0
3, 4852, Note_on_c, 1, 60, 49
3, 5408, Note_on_c, 1, 58, 41
3, 5424, Note_on_c, 1, 60, 0
3, 5924, Note_on_c, 1, 60, 45
3, 5972, Note_on_c, 1, 58, 0
3, 6184, Note_on_c, 1, 61, 49
3, 6248, Note_on_c, 1, 60, 0
3, 6456, Note_on_c, 1, 63, 44
3, 6512, Note_on_c, 1, 61, 0
3, 7080, Note_on_c, 1, 63, 0
3, 9952, Note_on_c, 1, 68, 38
3, 9952, Note_on_c, 1, 60, 36
3, 10588, Note_on_c, 1, 60, 0
3, 10588, Note_on_c, 1, 68, 0
3, 10640, Note_on_c, 1, 68, 47
3, 10640, Note_on_c, 1, 60, 36
3, 11236, Note_on_c, 1, 68, 0
3, 11276, Note_on_c, 1, 60, 0
3, 11312, Note_on_c, 1, 68, 43
3, 11312, Note_on_c, 1, 60, 36
3, 12756, Note_on_c, 1, 60, 0
3, 12772, Note_on_c, 1, 68, 0
3, 18004, Note_on_c, 1, 56, 40
3, 18004, Note_on_c, 1, 60, 40
3, 19264, Note_on_c, 1, 65, 37
3, 19832, Note_on_c, 1, 60, 0
3, 19832, Note_on_c, 1, 56, 0
3, 20488, Note_on_c, 1, 61, 37
3, 21092, Note_on_c, 1, 65, 0
3, 21548, Note_on_c, 1, 61, 0
3, 21616, Note_on_c, 1, 66, 41
3, 21616, Note_on_c, 1, 57, 36
3, 22676, Note_on_c, 1, 57, 0
3, 22676, Note_on_c, 1, 66, 0
3, 22788, Note_on_c, 1, 65, 40
3, 22788, Note_on_c, 1, 58, 36
3, 23848, Note_on_c, 1, 65, 0
3, 24044, Note_on_c, 1, 68, 45
3, 25000, Note_on_c, 1, 58, 0
3, 25104, Note_on_c, 1, 68, 0
3, 25304, Note_on_c, 1, 67, 42
3, 25304, Note_on_c, 1, 58, 42
3, 26364, Note_on_c, 1, 58, 0
3, 26364, Note_on_c, 1, 67, 0
3, 26588, Note_on_c, 1, 56, 42
3, 26588, Note_on_c, 1, 65, 42
3, 27648, Note_on_c, 1, 65, 0
3, 27648, Note_on_c, 1, 56, 0
3, 27848, Note_on_c, 1, 63, 42
3, 27848, Note_on_c, 1, 55, 42
3, 28908, Note_on_c, 1, 55, 0
3, 28908, Note_on_c, 1, 63, 0
3, 29076, Note_on_c, 1, 61, 42
3, 29076, Note_on_c, 1, 56, 42
3, 29520, Note_on_c, 1, 56, 0
3, 29732, Note_on_c, 1, 58, 42
3, 30072, Note_on_c, 1, 61, 0
3, 30408, Note_on_c, 1, 58, 0
3, 30592, Note_on_c, 1, 60, 42
3, 31268, Note_on_c, 1, 60, 0
3, 31732, Note_on_c, 1, 58, 36
3, 31732, Note_on_c, 1, 61, 42
3, 33164, Note_on_c, 1, 61, 0
3, 33164, Note_on_c, 1, 58, 0
3, 33192, Note_on_c, 1, 58, 42
3, 33960, Note_on_c, 1, 58, 0
3, 35708, Note_on_c, 1, 63, 44
3, 35708, Note_on_c, 1, 60, 44
3, 36768, Note_on_c, 1, 60, 0
3, 36808, Note_on_c, 1, 61, 44
3, 37536, Note_on_c, 1, 63, 0
3, 37840, Note_on_c, 1, 60, 44
3, 37868, Note_on_c, 1, 61, 0
3, 38224, Note_on_c, 1, 60, 0
3, 38344, Note_on_c, 1, 61, 45
3, 39496, Note_on_c, 1, 61, 0
3, 39948, Note_on_c, 1, 60, 41
3, 39948, Note_on_c, 1, 63, 44
3, 40716, Note_on_c, 1, 60, 0
3, 40968, Note_on_c, 1, 58, 41
3, 41352, Note_on_c, 1, 58, 0
3, 41512, Note_on_c, 1, 61, 45
3, 41896, Note_on_c, 1, 61, 0
3, 42064, Note_on_c, 1, 60, 42
3, 42064, Note_on_c, 1, 63, 44
3, 42448, Note_on_c, 1, 60, 0
3, 42512, Note_on_c, 1, 63, 0
3, 42560, Note_on_c, 1, 58, 42
3, 42820, Note_on_c, 1, 58, 0
3, 42832, Note_on_c, 1, 60, 41
3, 43092, Note_on_c, 1, 60, 0
3, 43096, Note_on_c, 1, 58, 40
3, 44124, Note_on_c, 1, 58, 0
3, 44292, Note_on_c, 1, 65, 39
3, 44292, Note_on_c, 1, 56, 34
3, 44628, Note_on_c, 1, 63, 0
3, 44776, Note_on_c, 1, 61, 35
3, 44784, Note_on_c, 1, 56, 0
3, 45320, Note_on_c, 1, 65, 0
3, 45340, Note_on_c, 1, 68, 38
3, 45880, Note_on_c, 1, 60, 36
3, 45928, Note_on_c, 1, 61, 0
3, 46472, Note_on_c, 1, 61, 38
3, 46648, Note_on_c, 1, 60, 0
3, 46876, Note_on_c, 1, 68, 0
3, 46992, Note_on_c, 1, 70, 39
3, 47240, Note_on_c, 1, 61, 0
3, 47376, Note_on_c, 1, 70, 0
3, 47612, Note_on_c, 1, 60, 39
3, 47612, Note_on_c, 1, 63, 39
3, 47996, Note_on_c, 1, 63, 0
3, 47996, Note_on_c, 1, 60, 0
3, 48196, Note_on_c, 1, 72, 41
3, 48196, Note_on_c, 1, 63, 41
3, 48820, Note_on_c, 1, 63, 0
3, 48820, Note_on_c, 1, 72, 0
3, 48856, Note_on_c, 1, 63, 41
3, 48856, Note_on_c, 1, 70, 44
3, 49240, Note_on_c, 1, 70, 0
3, 49240, Note_on_c, 1, 63, 0
3, 50136, Note_on_c, 1, 70, 39
3, 50136, Note_on_c, 1, 56, 35
3, 51288, Note_on_c, 1, 56, 0
3, 51288, Note_on_c, 1, 70, 0
3, 51432, Note_on_c, 1, 63, 40
3, 51432, Note_on_c, 1, 55, 40
3, 51836, Note_on_c, 1, 55, 0
3, 51836, Note_on_c, 1, 63, 0
3, 52012, Note_on_c, 1, 64, 40
3, 52012, Note_on_c, 1, 56, 40
3, 52636, Note_on_c, 1, 65, 41
3, 52652, Note_on_c, 1, 64, 0
3, 53104, Note_on_c, 1, 65, 0
3, 53272, Note_on_c, 1, 68, 45
3, 53272, Note_on_c, 1, 59, 45
3, 53420, Note_on_c, 1, 56, 0
3, 53908, Note_on_c, 1, 67, 41
3, 53908, Note_on_c, 1, 58, 41
3, 53912, Note_on_c, 1, 68, 0
3, 53916, Note_on_c, 1, 59, 0
3, 54500, Note_on_c, 1, 67, 0
3, 54500, Note_on_c, 1, 58, 0
3, 54552, Note_on_c, 1, 60, 44
3, 54552, Note_on_c, 1, 69, 46
3, 55140, Note_on_c, 1, 60, 0
3, 55144, Note_on_c, 1, 69, 0
3, 55200, Note_on_c, 1, 70, 48
3, 55200, Note_on_c, 1, 61, 48
3, 55800, Note_on_c, 1, 61, 0
3, 55804, Note_on_c, 1, 70, 0
3, 55872, Note_on_c, 1, 62, 45
3, 55872, Note_on_c, 1, 70, 45
3, 56456, Note_on_c, 1, 70, 0
3, 56456, Note_on_c, 1, 62, 0
3, 56564, Note_on_c, 1, 70, 44
3, 56564, Note_on_c, 1, 63, 44
3, 56960, Note_on_c, 1, 63, 0
3, 56960, Note_on_c, 1, 70, 0
3, 57892, Note_on_c, 1, 70, 51
3, 58624, Note_on_c, 1, 61, 51
3, 60416, Note_on_c, 1, 61, 0
3, 60580, Note_on_c, 1, 70, 0
3, 65664, Note_on_c, 1, 60, 48
3, 65664, Note_on_c, 1, 56, 48
3, 66248, Note_on_c, 1, 56, 0
3, 66248, Note_on_c, 1, 60, 0
3, 67476, Note_on_c, 1, 65, 48
3, 67476, Note_on_c, 1, 56, 48
3, 68060, Note_on_c, 1, 56, 0
3, 68060, Note_on_c, 1, 65, 0
3, 68320, Note_on_c, 1, 65, 48
3, 68320, Note_on_c, 1, 61, 48
3, 69532, Note_on_c, 1, 61, 0
3, 69532, Note_on_c, 1, 65, 0
3, 69572, Control_c, 1, 11, 127
3, 69576, Note_on_c, 1, 57, 50
3, 69576, Note_on_c, 1, 66, 54
3, 69956, Control_c, 1, 11, 110
3, 70340, Control_c, 1, 11, 100
3, 70888, Control_c, 1, 11, 95
3, 71112, Note_on_c, 1, 66, 0
3, 71112, Note_on_c, 1, 57, 0
3, 71408, Control_c, 1, 11, 90
3, 71412, Note_on_c, 1, 65, 38
3, 71412, Note_on_c, 1, 58, 36
3, 71956, Note_on_c, 1, 58, 0
3, 71956, Note_on_c, 1, 65, 0
3, 72636, Control_c, 1, 11, 110
3, 72640, Note_on_c, 1, 68, 56
3, 72640, Note_on_c, 1, 58, 49
3, 73020, Control_c, 1, 11, 100
3, 73404, Control_c, 1, 11, 95
3, 73408, Note_on_c, 1, 68, 0
3, 73824, Control_c, 1, 11, 90
3, 73828, Note_on_c, 1, 67, 48
3, 74372, Note_on_c, 1, 67, 0
3, 74560, Note_on_c, 1, 58, 0
3, 75388, Control_c, 1, 11, 110
3, 75392, Note_on_c, 1, 65, 48
3, 75392, Note_on_c, 1, 56, 48
3, 75936, Note_on_c, 1, 56, 0
3, 75936, Note_on_c, 1, 65, 0
3, 76732, Note_on_c, 1, 63, 48
3, 76732, Note_on_c, 1, 55, 48
3, 77276, Note_on_c, 1, 55, 0
3, 77276, Note_on_c, 1, 63, 0
3, 77984, Note_on_c, 1, 61, 50
3, 77984, Note_on_c, 1, 56, 48
3, 78752, Note_on_c, 1, 56, 0
3, 78796, Note_on_c, 1, 58, 51
3, 79136, Note_on_c, 1, 61, 0
3, 79948, Note_on_c, 1, 58, 0
3, 80052, Note_on_c, 1, 60, 51
3, 81204, Note_on_c, 1, 60, 0
3, 81384, Note_on_c, 1, 61, 51
3, 81384, Note_on_c, 1, 58, 48
3, 82536, Note_on_c, 1, 58, 0
3, 82536, Note_on_c, 1, 61, 0
3, 82916, Note_on_c, 1, 58, 48
3, 83440, Note_on_c, 1, 58, 0
3, 85388, Note_on_c, 1, 63, 49
3, 85388, Note_on_c, 1, 60, 49
3, 85912, Note_on_c, 1, 60, 0
3, 85912, Note_on_c, 1, 63, 0
3, 85952, Note_on_c, 1, 66, 53
3, 85952, Note_on_c, 1, 63, 53
3, 86476, Note_on_c, 1, 66, 0
3, 86476, Note_on_c, 1, 65, 51
3, 86860, Note_on_c, 1, 63, 0
3, 87016, Note_on_c, 1, 61, 48
3, 87384, Note_on_c, 1, 65, 0
3, 87540, Note_on_c, 1, 61, 0
3, 87596, Note_on_c, 1, 66, 55
3, 87596, Note_on_c, 1, 63, 55
3, 88888, Note_on_c, 1, 63, 0
3, 88888, Note_on_c, 1, 66, 0
3, 89172, Note_on_c, 1, 65, 48
3, 89172, Note_on_c, 1, 61, 48
3, 89696, Note_on_c, 1, 61, 0
3, 89696, Note_on_c, 1, 65, 0
3, 89844, Note_on_c, 1, 63, 48
3, 89844, Note_on_c, 1, 60, 48
3, 90368, Note_on_c, 1, 60, 0
3, 90368, Note_on_c, 1, 63, 0
3, 91160, Note_on_c, 1, 62, 57
3, 91160, Note_on_c, 1, 68, 57
3, 92264, Note_on_c, 1, 68, 0
3, 92268, Note_on_c, 1, 62, 0
3, 92436, Note_on_c, 1, 67, 49
3, 92436, Note_on_c, 1, 63, 49
3, 92960, Note_on_c, 1, 63, 0
3, 92960, Note_on_c, 1, 67, 0
3, 93956, Note_on_c, 1, 61, 59
3, 93956, Note_on_c, 1, 56, 57
3, 94480, Note_on_c, 1, 61, 0
3, 94604, Note_on_c, 1, 59, 52
3, 94864, Note_on_c, 1, 56, 0
3, 95128, Note_on_c, 1, 59, 0
3, 96048, Note_on_c, 1, 58, 52
3, 96048, Note_on_c, 1, 55, 52
3, 96572, Note_on_c, 1, 55, 0
3, 96572, Note_on_c, 1, 58, 0
3, 96760, Note_on_c, 1, 63, 54
3, 96760, Note_on_c, 1, 56, 54
3, 97668, Note_on_c, 1, 63, 0
3, 97864, Note_on_c, 1, 62, 50
3, 98436, Note_on_c, 1, 56, 0
3, 98772, Note_on_c, 1, 62, 0
3, 99156, Note_on_c, 1, 61, 50
3, 99980, Note_on_c, 1, 58, 48
3, 100064, Note_on_c, 1, 61, 0
3, 100504, Note_on_c, 1, 58, 0
3, 100936, Note_on_c, 1, 59, 49
3, 101460, Note_on_c, 1, 59, 0
3, 101636, Note_on_c, 1, 64, 52
3, 102308, Note_on_c, 1, 64, 0
3, 102364, Note_on_c, 1, 59, 49
3, 102364, Note_on_c, 1, 63, 49
3, 102964, Note_on_c, 1, 63, 0
3, 102964, Note_on_c, 1, 59, 0
3, 104024, Note_on_c, 1, 67, 49
3, 104024, Note_on_c, 1, 61, 49
3, 104932, Note_on_c, 1, 61, 0
3, 104932, Note_on_c, 1, 67, 0
3, 105112, Control_c, 1, 11, 90
3, 105116, Note_on_c, 1, 59, 45
3, 105116, Note_on_c, 1, 68, 45
3, 105640, Note_on_c, 1, 68, 0
3, 105640, Note_on_c, 1, 59, 0
3, 105772, Note_on_c, 1, 73, 86
3, 105772, Note_on_c, 1, 64, 67
3, 106204, Note_on_c, 1, 73, 0
3, 106204, Note_on_c, 1, 71, 76
3, 106396, Note_on_c, 1, 69, 64
3, 106396, Note_on_c, 1, 61, 62
3, 106404, Note_on_c, 1, 64, 0
3, 106416, Note_on_c, 1, 71, 0
3, 107000, Note_on_c, 1, 67, 74
3, 107000, Note_on_c, 1, 61, 67
3, 107052, Note_on_c, 1, 61, 0
3, 107052, Note_on_c, 1, 69, 0
3, 107588, Note_on_c, 1, 67, 0
3, 107588, Note_on_c, 1, 61, 0
3, 107612, Note_on_c, 1, 59, 59
3, 107612, Note_on_c, 1, 68, 63
3, 108096, Note_on_c, 1, 68, 0
3, 108096, Note_on_c, 1, 59, 0
3, 108280, Control_c, 1, 11, 115
3, 108288, Note_on_c, 1, 73, 86
3, 108288, Note_on_c, 1, 64, 62
3, 108760, Note_on_c, 1, 71, 76
3, 108800, Note_on_c, 1, 73, 0
3, 108940, Note_on_c, 1, 61, 62
3, 108940, Note_on_c, 1, 69, 66
3, 108960, Note_on_c, 1, 71, 0
3, 109076, Note_on_c, 1, 64, 0
3, 109492, Note_on_c, 1, 61, 0
3, 109548, Note_on_c, 1, 69, 0
3, 109604, Note_on_c, 1, 61, 66
3, 109604, Note_on_c, 1, 67, 76
3, 110496, Note_on_c, 1, 67, 0
3, 110496, Note_on_c, 1, 61, 0
3, 110504, Note_on_c, 1, 59, 54
3, 110504, Note_on_c, 1, 68, 60
3, 110980, Note_on_c, 1, 68, 0
3, 110980, Note_on_c, 1, 59, 0
3, 111272, Control_c, 1, 11, 120
3, 111276, Note_on_c, 1, 73, 86
3, 111276, Note_on_c, 1, 64, 69
3, 111788, Note_on_c, 1, 71, 77
3, 111824, Note_on_c, 1, 73, 0
3, 111968, Note_on_c, 1, 69, 67
3, 111968, Note_on_c, 1, 61, 64
3, 112004, Note_on_c, 1, 71, 0
3, 112044, Note_on_c, 1, 64, 0
3, 112616, Note_on_c, 1, 69, 0
3, 112708, Note_on_c, 1, 67, 76
3, 112708, Note_on_c, 1, 61, 69
3, 112736, Note_on_c, 1, 61, 0
3, 113568, Note_on_c, 1, 67, 0
3, 113568, Note_on_c, 1, 61, 0
3, 113576, Note_on_c, 1, 68, 76
3, 113576, Note_on_c, 1, 59, 72
3, 113664, Note_on_c, 1, 59, 0
3, 113664, Note_on_c, 1, 68, 0
3, 113664, Note_on_c, 1, 59, 53
3, 113664, Note_on_c, 1, 56, 49
3, 113664, Note_on_c, 1, 51, 49
3, 113664, Note_on_c, 1, 44, 49
3, 113696, Note_on_c, 1, 44, 0
3, 113696, Note_on_c, 1, 59, 0
3, 113696, Note_on_c, 1, 56, 0
3, 113696, Note_on_c, 1, 51, 0
3, 113712, Note_on_c, 1, 59, 53
3, 113712, Note_on_c, 1, 56, 49
3, 113712, Note_on_c, 1, 51, 49
3, 113712, Note_on_c, 1, 44, 49
3, 113744, Note_on_c, 1, 44, 0
3, 113744, Note_on_c, 1, 59, 0
3, 113744, Note_on_c, 1, 56, 0
3, 113744, Note_on_c, 1, 51, 0
3, 113760, Note_on_c, 1, 59, 53
3, 113760, Note_on_c, 1, 56, 49
3, 113760, Note_on_c, 1, 51, 49
3, 113760, Note_on_c, 1, 44, 49
3, 113792, Note_on_c, 1, 44, 0
3, 113792, Note_on_c, 1, 59, 0
3, 113792, Note_on_c, 1, 56, 0
3, 113792, Note_on_c, 1, 51, 0
3, 113808, Note_on_c, 1, 59, 53
3, 113808, Note_on_c, 1, 56, 49
3, 113808, Note_on_c, 1, 51, 49
3, 113808, Note_on_c, 1, 44, 49
3, 113840, Note_on_c, 1, 44, 0
3, 113840, Note_on_c, 1, 59, 0
3, 113840, Note_on_c, 1, 56, 0
3, 113840, Note_on_c, 1, 51, 0
3, 113856, Note_on_c, 1, 59, 53
3, 113856, Note_on_c, 1, 56, 49
3, 113856, Note_on_c, 1, 51, 49
3, 113856, Note_on_c, 1, 44, 49
3, 113888, Note_on_c, 1, 44, 0
3, 113888, Note_on_c, 1, 59, 0
3, 113888, Note_on_c, 1, 56, 0
3, 113888, Note_on_c, 1, 51, 0
3, 113904, Note_on_c, 1, 59, 53
3, 113904, Note_on_c, 1, 56, 49
3, 113904, Note_on_c, 1, 51, 49
3, 113904, Note_on_c, 1, 44, 49
3, 113936, Note_on_c, 1, 44, 0
3, 113936, Note_on_c, 1, 59, 0
3, 113936, Note_on_c, 1, 56, 0
3, 113936, Note_on_c, 1, 51, 0
3, 113952, Note_on_c, 1, 59, 53
3, 113952, Note_on_c, 1, 56, 49
3, 113952, Note_on_c, 1, 51, 49
3, 113952, Note_on_c, 1, 44, 49
3, 113984, Note_on_c, 1, 44, 0
3, 113984, Note_on_c, 1, 59, 0
3, 113984, Note_on_c, 1, 56, 0
3, 113984, Note_on_c, 1, 51, 0
3, 114000, Note_on_c, 1, 59, 53
3, 114000, Note_on_c, 1, 56, 49
3, 114000, Note_on_c, 1, 51, 49
3, 114000, Note_on_c, 1, 44, 49
3, 114032, Note_on_c, 1, 44, 0
3, 114032, Note_on_c, 1, 59, 0
3, 114032, Note_on_c, 1, 56, 0
3, 114032, Note_on_c, 1, 51, 0
3, 114048, Note_on_c, 1, 59, 53
3, 114048, Note_on_c, 1, 56, 49
3, 114048, Note_on_c, 1, 51, 49
3, 114048, Note_on_c, 1, 44, 49
3, 114080, Note_on_c, 1, 44, 0
3, 114080, Note_on_c, 1, 59, 0
3, 114080, Note_on_c, 1, 56, 0
3, 114080, Note_on_c, 1, 51, 0
3, 114096, Note_on_c, 1, 59, 53
3, 114096, Note_on_c, 1, 56, 49
3, 114096, Note_on_c, 1, 51, 49
3, 114096, Note_on_c, 1, 44, 49
3, 114128, Note_on_c, 1, 44, 0
3, 114128, Note_on_c, 1, 59, 0
3, 114128, Note_on_c, 1, 56, 0
3, 114128, Note_on_c, 1, 51, 0
3, 114144, Note_on_c, 1, 59, 53
3, 114144, Note_on_c, 1, 56, 49
3, 114144, Note_on_c, 1, 51, 49
3, 114144, Note_on_c, 1, 44, 49
3, 114176, Note_on_c, 1, 44, 0
3, 114176, Note_on_c, 1, 59, 0
3, 114176, Note_on_c, 1, 56, 0
3, 114176, Note_on_c, 1, 51, 0
3, 114192, Note_on_c, 1, 59, 53
3, 114192, Note_on_c, 1, 56, 49
3, 114192, Note_on_c, 1, 51, 49
3, 114192, Note_on_c, 1, 44, 49
3, 114224, Note_on_c, 1, 44, 0
3, 114224, Note_on_c, 1, 59, 0
3, 114224, Note_on_c, 1, 56, 0
3, 114224, Note_on_c, 1, 51, 0
3, 114240, Note_on_c, 1, 59, 53
3, 114240, Note_on_c, 1, 56, 49
3, 114240, Note_on_c, 1, 51, 49
3, 114240, Note_on_c, 1, 44, 49
3, 114272, Note_on_c, 1, 44, 0
3, 114272, Note_on_c, 1, 59, 0
3, 114272, Note_on_c, 1, 56, 0
3, 114272, Note_on_c, 1, 51, 0
3, 114288, Note_on_c, 1, 59, 53
3, 114288, Note_on_c, 1, 56, 49
3, 114288, Note_on_c, 1, 51, 49
3, 114288, Note_on_c, 1, 44, 49
3, 114320, Note_on_c, 1, 44, 0
3, 114320, Note_on_c, 1, 59, 0
3, 114320, Note_on_c, 1, 56, 0
3, 114320, Note_on_c, 1, 51, 0
3, 114336, Note_on_c, 1, 59, 53
3, 114336, Note_on_c, 1, 56, 49
3, 114336, Note_on_c, 1, 51, 49
3, 114336, Note_on_c, 1, 44, 49
3, 114368, Note_on_c, 1, 44, 0
3, 114368, Note_on_c, 1, 59, 0
3, 114368, Note_on_c, 1, 56, 0
3, 114368, Note_on_c, 1, 51, 0
3, 114384, Note_on_c, 1, 59, 53
3, 114384, Note_on_c, 1, 56, 49
3, 114384, Note_on_c, 1, 51, 49
3, 114384, Note_on_c, 1, 44, 49
3, 114416, Note_on_c, 1, 44, 0
3, 114416, Note_on_c, 1, 59, 0
3, 114416, Note_on_c, 1, 56, 0
3, 114416, Note_on_c, 1, 51, 0
3, 114432, Note_on_c, 1, 59, 53
3, 114432, Note_on_c, 1, 56, 49
3, 114432, Note_on_c, 1, 51, 49
3, 114432, Note_on_c, 1, 44, 49
3, 114464, Note_on_c, 1, 44, 0
3, 114464, Note_on_c, 1, 59, 0
3, 114464, Note_on_c, 1, 56, 0
3, 114464, Note_on_c, 1, 51, 0
3, 114480, Note_on_c, 1, 59, 53
3, 114480, Note_on_c, 1, 56, 49
3, 114480, Note_on_c, 1, 51, 49
3, 114480, Note_on_c, 1, 44, 49
3, 114512, Note_on_c, 1, 44, 0
3, 114512, Note_on_c, 1, 59, 0
3, 114512, Note_on_c, 1, 56, 0
3, 114512, Note_on_c, 1, 51, 0
3, 114528, Note_on_c, 1, 59, 53
3, 114528, Note_on_c, 1, 56, 49
3, 114528, Note_on_c, 1, 51, 49
3, 114528, Note_on_c, 1, 44, 49
3, 114560, Note_on_c, 1, 44, 0
3, 114560, Note_on_c, 1, 59, 0
3, 114560, Note_on_c, 1, 56, 0
3, 114560, Note_on_c, 1, 51, 0
3, 114576, Note_on_c, 1, 59, 53
3, 114576, Note_on_c, 1, 56, 49
3, 114576, Note_on_c, 1, 51, 49
3, 114576, Note_on_c, 1, 44, 49
3, 114608, Note_on_c, 1, 44, 0
3, 114608, Note_on_c, 1, 59, 0
3, 114608, Note_on_c, 1, 56, 0
3, 114608, Note_on_c, 1, 51, 0
3, 114624, Note_on_c, 1, 59, 53
3, 114624, Note_on_c, 1, 56, 49
3, 114624, Note_on_c, 1, 51, 49
3, 114624, Note_on_c, 1, 44, 49
3, 114656, Note_on_c, 1, 44, 0
3, 114656, Note_on_c, 1, 59, 0
3, 114656, Note_on_c, 1, 56, 0
3, 114656, Note_on_c, 1, 51, 0
3, 114672, Note_on_c, 1, 59, 53
3, 114672, Note_on_c, 1, 56, 49
3, 114672, Note_on_c, 1, 51, 49
3, 114672, Note_on_c, 1, 44, 49
3, 114704, Note_on_c, 1, 44, 0
3, 114704, Note_on_c, 1, 59, 0
3, 114704, Note_on_c, 1, 56, 0
3, 114704, Note_on_c, 1, 51, 0
3, 114720, Note_on_c, 1, 59, 53
3, 114720, Note_on_c, 1, 56, 49
3, 114720, Note_on_c, 1, 51, 49
3, 114720, Note_on_c, 1, 44, 49
3, 114752, Note_on_c, 1, 44, 0
3, 114752, Note_on_c, 1, 59, 0
3, 114752, Note_on_c, 1, 56, 0
3, 114752, Note_on_c, 1, 51, 0
3, 114768, Note_on_c, 1, 59, 53
3, 114768, Note_on_c, 1, 56, 49
3, 114768, Note_on_c, 1, 51, 49
3, 114768, Note_on_c, 1, 44, 49
3, 114800, Note_on_c, 1, 44, 0
3, 114800, Note_on_c, 1, 59, 0
3, 114800, Note_on_c, 1, 56, 0
3, 114800, Note_on_c, 1, 51, 0
3, 114816, Note_on_c, 1, 59, 53
3, 114816, Note_on_c, 1, 56, 49
3, 114816, Note_on_c, 1, 51, 49
3, 114816, Note_on_c, 1, 44, 49
3, 114848, Note_on_c, 1, 44, 0
3, 114848, Note_on_c, 1, 59, 0
3, 114848, Note_on_c, 1, 56, 0
3, 114848, Note_on_c, 1, 51, 0
3, 114864, Note_on_c, 1, 59, 53
3, 114864, Note_on_c, 1, 56, 49
3, 114864, Note_on_c, 1, 51, 49
3, 114864, Note_on_c, 1, 44, 49
3, 114896, Note_on_c, 1, 44, 0
3, 114896, Note_on_c, 1, 59, 0
3, 114896, Note_on_c, 1, 56, 0
3, 114896, Note_on_c, 1, 51, 0
3, 114912, Note_on_c, 1, 59, 53
3, 114912, Note_on_c, 1, 56, 49
3, 114912, Note_on_c, 1, 51, 49
3, 114912, Note_on_c, 1, 44, 49
3, 114944, Note_on_c, 1, 44, 0
3, 114944, Note_on_c, 1, 59, 0
3, 114944, Note_on_c, 1, 56, 0
3, 114944, Note_on_c, 1, 51, 0
3, 114960, Note_on_c, 1, 59, 53
3, 114960, Note_on_c, 1, 56, 49
3, 114960, Note_on_c, 1, 51, 49
3, 114960, Note_on_c, 1, 44, 49
3, 114992, Note_on_c, 1, 44, 0
3, 114992, Note_on_c, 1, 59, 0
3, 114992, Note_on_c, 1, 56, 0
3, 114992, Note_on_c, 1, 51, 0
3, 115008, Note_on_c, 1, 59, 53
3, 115008, Note_on_c, 1, 56, 49
3, 115008, Note_on_c, 1, 51, 49
3, 115008, Note_on_c, 1, 44, 49
3, 115040, Note_on_c, 1, 44, 0
3, 115040, Note_on_c, 1, 59, 0
3, 115040, Note_on_c, 1, 56, 0
3, 115040, Note_on_c, 1, 51, 0
3, 115056, Note_on_c, 1, 59, 53
3, 115056, Note_on_c, 1, 56, 49
3, 115056, Note_on_c, 1, 51, 49
3, 115056, Note_on_c, 1, 44, 49
3, 115088, Note_on_c, 1, 44, 0
3, 115088, Note_on_c, 1, 59, 0
3, 115088, Note_on_c, 1, 56, 0
3, 115088, Note_on_c, 1, 51, 0
3, 115104, Note_on_c, 1, 59, 53
3, 115104, Note_on_c, 1, 56, 49
3, 115104, Note_on_c, 1, 51, 49
3, 115104, Note_on_c, 1, 44, 49
3, 115136, Note_on_c, 1, 44, 0
3, 115136, Note_on_c, 1, 59, 0
3, 115136, Note_on_c, 1, 56, 0
3, 115136, Note_on_c, 1, 51, 0
3, 115152, Note_on_c, 1, 59, 53
3, 115152, Note_on_c, 1, 56, 49
3, 115152, Note_on_c, 1, 51, 49
3, 115152, Note_on_c, 1, 44, 49
3, 115184, Note_on_c, 1, 44, 0
3, 115184, Note_on_c, 1, 59, 0
3, 115184, Note_on_c, 1, 56, 0
3, 115184, Note_on_c, 1, 51, 0
3, 115200, Note_on_c, 1, 59, 53
3, 115200, Note_on_c, 1, 56, 49
3, 115200, Note_on_c, 1, 51, 49
3, 115200, Note_on_c, 1, 44, 49
3, 115232, Note_on_c, 1, 44, 0
3, 115232, Note_on_c, 1, 59, 0
3, 115232, Note_on_c, 1, 56, 0
3, 115232, Note_on_c, 1, 51, 0
3, 115248, Note_on_c, 1, 59, 53
3, 115248, Note_on_c, 1, 56, 49
3, 115248, Note_on_c, 1, 51, 49
3, 115248, Note_on_c, 1, 44, 49
3, 115280, Note_on_c, 1, 44, 0
3, 115280, Note_on_c, 1, 59, 0
3, 115280, Note_on_c, 1, 56, 0
3, 115280, Note_on_c, 1, 51, 0
3, 115296, Note_on_c, 1, 59, 53
3, 115296, Note_on_c, 1, 56, 49
3, 115296, Note_on_c, 1, 51, 49
3, 115296, Note_on_c, 1, 44, 49
3, 115328, Note_on_c, 1, 44, 0
3, 115328, Note_on_c, 1, 59, 0
3, 115328, Note_on_c, 1, 56, 0
3, 115328, Note_on_c, 1, 51, 0
3, 115344, Note_on_c, 1, 59, 53
3, 115344, Note_on_c, 1, 56, 49
3, 115344, Note_on_c, 1, 51, 49
3, 115344, Note_on_c, 1, 44, 49
3, 115376, Note_on_c, 1, 44, 0
3, 115376, Note_on_c, 1, 59, 0
3, 115376, Note_on_c, 1, 56, 0
3, 115376, Note_on_c, 1, 51, 0
3, 115392, Note_on_c, 1, 59, 53
3, 115392, Note_on_c, 1, 56, 49
3, 115392, Note_on_c, 1, 51, 49
3, 115392, Note_on_c, 1, 44, 49
3, 115424, Note_on_c, 1, 44, 0
3, 115424, Note_on_c, 1, 59, 0
3, 115424, Note_on_c, 1, 56, 0
3, 115424, Note_on_c, 1, 51, 0
3, 115440, Note_on_c, 1, 59, 53
3, 115440, Note_on_c, 1, 56, 49
3, 115440, Note_on_c, 1, 51, 49
3, 115440, Note_on_c, 1, 44, 49
3, 115472, Note_on_c, 1, 44, 0
3, 115472, Note_on_c, 1, 59, 0
3, 115472, Note_on_c, 1, 56, 0
3, 115472, Note_on_c, 1, 51, 0
3, 115488, Note_on_c, 1, 59, 53
3, 115488, Note_on_c, 1, 56, 49
3, 115488, Note_on_c, 1, 51, 49
3, 115488, Note_on_c, 1, 44, 49
3, 115520, Note_on_c, 1, 44, 0
3, 115520, Note_on_c, 1, 59, 0
3, 115520, Note_on_c, 1, 56, 0
3, 115520, Note_on_c, 1, 51, 0
3, 115536, Note_on_c, 1, 59, 53
3, 115536, Note_on_c, 1, 56, 49
3, 115536, Note_on_c, 1, 51, 49
3, 115536, Note_on_c, 1, 44, 49
3, 115568, Note_on_c, 1, 44, 0
3, 115568, Note_on_c, 1, 59, 0
3, 115568, Note_on_c, 1, 56, 0
3, 115568, Note_on_c, 1, 51, 0
3, 115584, Note_on_c, 1, 59, 53
3, 115584, Note_on_c, 1, 56, 49
3, 115584, Note_on_c, 1, 51, 49
3, 115584, Note_on_c, 1, 44, 49
3, 115616, Note_on_c, 1, 44, 0
3, 115616, Note_on_c, 1, 59, 0
3, 115616, Note_on_c, 1, 56, 0
3, 115616, Note_on_c, 1, 51, 0
3, 115632, Note_on_c, 1, 59, 53
3, 115632, Note_on_c, 1, 56, 49
3, 115632, Note_on_c, 1, 51, 49
3, 115632, Note_on_c, 1, 44, 49
3, 115664, Note_on_c, 1, 44, 0
3, 115664, Note_on_c, 1, 59, 0
3, 115664, Note_on_c, 1, 56, 0
3, 115664, Note_on_c, 1, 51, 0
3, 115680, Note_on_c, 1, 59, 53
3, 115680, Note_on_c, 1, 56, 49
3, 115680, Note_on_c, 1, 51, 49
3, 115680, Note_on_c, 1, 44, 49
3, 115712, Note_on_c, 1, 44, 0
3, 115712, Note_on_c, 1, 59, 0
3, 115712, Note_on_c, 1, 56, 0
3, 115712, Note_on_c, 1, 51, 0
3, 115728, Note_on_c, 1, 59, 53
3, 115728, Note_on_c, 1, 56, 49
3, 115728, Note_on_c, 1, 51, 49
3, 115728, Note_on_c, 1, 44, 49
3, 115760, Note_on_c, 1, 44, 0
3, 115760, Note_on_c, 1, 59, 0
3, 115760, Note_on_c, 1, 56, 0
3, 115760, Note_on_c, 1, 51, 0
3, 115776, Note_on_c, 1, 59, 53
3, 115776, Note_on_c, 1, 56, 49
3, 115776, Note_on_c, 1, 51, 49
3, 115776, Note_on_c, 1, 44, 49
3, 115808, Note_on_c, 1, 44, 0
3, 115808, Note_on_c, 1, 59, 0
3, 115808, Note_on_c, 1, 56, 0
3, 115808, Note_on_c, 1, 51, 0
3, 115824, Note_on_c, 1, 59, 53
3, 115824, Note_on_c, 1, 56, 49
3, 115824, Note_on_c, 1, 51, 49
3, 115824, Note_on_c, 1, 44, 49
3, 115856, Note_on_c, 1, 44, 0
3, 115856, Note_on_c, 1, 59, 0
3, 115856, Note_on_c, 1, 56, 0
3, 115856, Note_on_c, 1, 51, 0
3, 115872, Note_on_c, 1, 59, 53
3, 115872, Note_on_c, 1, 56, 49
3, 115872, Note_on_c, 1, 51, 49
3, 115872, Note_on_c, 1, 44, 49
3, 115904, Note_on_c, 1, 44, 0
3, 115904, Note_on_c, 1, 59, 0
3, 115904, Note_on_c, 1, 56, 0
3, 115904, Note_on_c, 1, 51, 0
3, 115920, Note_on_c, 1, 59, 53
3, 115920, Note_on_c, 1, 56, 49
3, 115920, Note_on_c, 1, 51, 49
3, 115920, Note_on_c, 1, 44, 49
3, 115952, Note_on_c, 1, 44, 0
3, 115952, Note_on_c, 1, 59, 0
3, 115952, Note_on_c, 1, 56, 0
3, 115952, Note_on_c, 1, 51, 0
3, 115968, Note_on_c, 1, 59, 53
3, 115968, Note_on_c, 1, 56, 49
3, 115968, Note_on_c, 1, 51, 49
3, 115968, Note_on_c, 1, 44, 49
3, 116000, Note_on_c, 1, 44, 0
3, 116000, Note_on_c, 1, 59, 0
3, 116000, Note_on_c, 1, 56, 0
3, 116000, Note_on_c, 1, 51, 0
3, 116016, Note_on_c, 1, 59, 53
3, 116016, Note_on_c, 1, 56, 49
3, 116016, Note_on_c, 1, 51, 49
3, 116016, Note_on_c, 1, 44, 49
3, 116048, Note_on_c, 1, 44, 0
3, 116048, Note_on_c, 1, 59, 0
3, 116048, Note_on_c, 1, 56, 0
3, 116048, Note_on_c, 1, 51, 0
3, 116064, Note_on_c, 1, 59, 53
3, 116064, Note_on_c, 1, 56, 49
3, 116064, Note_on_c, 1, 51, 49
3, 116064, Note_on_c, 1, 44, 49
3, 116096, Note_on_c, 1, 44, 0
3, 116096, Note_on_c, 1, 59, 0
3, 116096, Note_on_c, 1, 56, 0
3, 116096, Note_on_c, 1, 51, 0
3, 116112, Note_on_c, 1, 59, 53
3, 116112, Note_on_c, 1, 56, 49
3, 116112, Note_on_c, 1, 51, 49
3, 116112, Note_on_c, 1, 44, 49
3, 116144, Note_on_c, 1, 44, 0
3, 116144, Note_on_c, 1, 59, 0
3, 116144, Note_on_c, 1, 56, 0
3, 116144, Note_on_c, 1, 51, 0
3, 116160, Note_on_c, 1, 59, 53
3, 116160, Note_on_c, 1, 56, 49
3, 116160, Note_on_c, 1, 51, 49
3, 116160, Note_on_c, 1, 44, 49
3, 116192, Note_on_c, 1, 44, 0
3, 116192, Note_on_c, 1, 59, 0
3, 116192, Note_on_c, 1, 56, 0
3, 116192, Note_on_c, 1, 51, 0
3, 116208, Note_on_c, 1, 59, 53
3, 116208, Note_on_c, 1, 56, 49
3, 116208, Note_on_c, 1, 51, 49
3, 116208, Note_on_c, 1, 44, 49
3, 116240, Note_on_c, 1, 44, 0
3, 116240, Note_on_c, 1, 59, 0
3, 116240, Note_on_c, 1, 56, 0
3, 116240, Note_on_c, 1, 51, 0
3, 116256, Note_on_c, 1, 59, 53
3, 116256, Note_on_c, 1, 56, 49
3, 116256, Note_on_c, 1, 51, 49
3, 116256, Note_on_c, 1, 44, 49
3, 116288, Note_on_c, 1, 44, 0
3, 116288, Note_on_c, 1, 59, 0
3, 116288, Note_on_c, 1, 56, 0
3, 116288, Note_on_c, 1, 51, 0
3, 116304, Note_on_c, 1, 59, 53
3, 116304, Note_on_c, 1, 56, 49
3, 116304, Note_on_c, 1, 51, 49
3, 116304, Note_on_c, 1, 44, 49
3, 116336, Note_on_c, 1, 44, 0
3, 116336, Note_on_c, 1, 59, 0
3, 116336, Note_on_c, 1, 56, 0
3, 116336, Note_on_c, 1, 51, 0
3, 116352, Note_on_c, 1, 59, 53
3, 116352, Note_on_c, 1, 56, 49
3, 116352, Note_on_c, 1, 51, 49
3, 116352, Note_on_c, 1, 44, 49
3, 116384, Note_on_c, 1, 44, 0
3, 116384, Note_on_c, 1, 59, 0
3, 116384, Note_on_c, 1, 56, 0
3, 116384, Note_on_c, 1, 51, 0
3, 116400, Note_on_c, 1, 59, 53
3, 116400, Note_on_c, 1, 56, 49
3, 116400, Note_on_c, 1, 51, 49
3, 116400, Note_on_c, 1, 44, 49
3, 116432, Note_on_c, 1, 44, 0
3, 116432, Note_on_c, 1, 59, 0
3, 116432, Note_on_c, 1, 56, 0
3, 116432, Note_on_c, 1, 51, 0
3, 116448, Note_on_c, 1, 59, 53
3, 116448, Note_on_c, 1, 56, 49
3, 116448, Note_on_c, 1, 51, 49
3, 116448, Note_on_c, 1, 44, 49
3, 116480, Note_on_c, 1, 44, 0
3, 116480, Note_on_c, 1, 59, 0
3, 116480, Note_on_c, 1, 56, 0
3, 116480, Note_on_c, 1, 51, 0
3, 116496, Note_on_c, 1, 59, 53
3, 116496, Note_on_c, 1, 56, 49
3, 116496, Note_on_c, 1, 51, 49
3, 116496, Note_on_c, 1, 44, 49
3, 116528, Note_on_c, 1, 44, 0
3, 116528, Note_on_c, 1, 59, 0
3, 116528, Note_on_c, 1, 56, 0
3, 116528, Note_on_c, 1, 51, 0
3, 116544, Note_on_c, 1, 59, 53
3, 116544, Note_on_c, 1, 56, 49
3, 116544, Note_on_c, 1, 51, 49
3, 116544, Note_on_c, 1, 44, 49
3, 116576, Note_on_c, 1, 44, 0
3, 116576, Note_on_c, 1, 59, 0
3, 116576, Note_on_c, 1, 56, 0
3, 116576, Note_on_c, 1, 51, 0
3, 116592, Note_on_c, 1, 59, 53
3, 116592, Note_on_c, 1, 56, 49
3, 116592, Note_on_c, 1, 51, 49
3, 116592, Note_on_c, 1, 44, 49
3, 116624, Note_on_c, 1, 44, 0
3, 116624, Note_on_c, 1, 59, 0
3, 116624, Note_on_c, 1, 56, 0
3, 116624, Note_on_c, 1, 51, 0
3, 116640, Note_on_c, 1, 59, 53
3, 116640, Note_on_c, 1, 56, 49
3, 116640, Note_on_c, 1, 51, 49
3, 116640, Note_on_c, 1, 44, 49
3, 116672, Note_on_c, 1, 44, 0
3, 116672, Note_on_c, 1, 59, 0
3, 116672, Note_on_c, 1, 56, 0
3, 116672, Note_on_c, 1, 51, 0
3, 116688, Note_on_c, 1, 59, 53
3, 116688, Note_on_c, 1, 56, 49
3, 116688, Note_on_c, 1, 51, 49
3, 116688, Note_on_c, 1, 44, 49
3, 116720, Note_on_c, 1, 44, 0
3, 116720, Note_on_c, 1, 59, 0
3, 116720, Note_on_c, 1, 56, 0
3, 116720, Note_on_c, 1, 51, 0
3, 116736, Note_on_c, 1, 59, 53
3, 116736, Note_on_c, 1, 56, 49
3, 116736, Note_on_c, 1, 51, 49
3, 116736, Note_on_c, 1, 44, 49
3, 116768, Note_on_c, 1, 44, 0
3, 116768, Note_on_c, 1, 59, 0
3, 116768, Note_on_c, 1, 56, 0
3, 116768, Note_on_c, 1, 51, 0
3, 116784, Note_on_c, 1, 59, 53
3, 116784, Note_on_c, 1, 56, 49
3, 116784, Note_on_c, 1, 51, 49
3, 116784, Note_on_c, 1, 44, 49
3, 116816, Note_on_c, 1, 44, 0
3, 116816, Note_on_c, 1, 59, 0
3, 116816, Note_on_c, 1, 56, 0
3, 116816, Note_on_c, 1, 51, 0
3, 116832, Note_on_c, 1, 59, 53
3, 116832, Note_on_c, 1, 56, 49
3, 116832, Note_on_c, 1, 51, 49
3, 116832, Note_on_c, 1, 44, 49
3, 116864, Note_on_c, 1, 44, 0
3, 116864, Note_on_c, 1, 59, 0
3, 116864, Note_on_c, 1, 56, 0
3, 116864, Note_on_c, 1, 51, 0
3, 116880, Note_on_c, 1, 59, 53
3, 116880, Note_on_c, 1, 56, 49
3, 116880, Note_on_c, 1, 51, 49
3, 116880, Note_on_c, 1, 44, 49
3, 116912, Note_on_c, 1, 44, 0
3, 116912, Note_on_c, 1, 59, 0
3, 116912, Note_on_c, 1, 56, 0
3, 116912, Note_on_c, 1, 51, 0
3, 116928, Note_on_c, 1, 59, 53
3, 116928, Note_on_c, 1, 56, 49
3, 116928, Note_on_c, 1, 51, 49
3, 116928, Note_on_c, 1, 44, 49
3, 116960, Note_on_c, 1, 44, 0
3, 116960, Note_on_c, 1, 59, 0
3, 116960, Note_on_c, 1, 56, 0
3, 116960, Note_on_c, 1, 51, 0
3, 116976, Note_on_c, 1, 59, 53
3, 116976, Note_on_c, 1, 56, 49
3, 116976, Note_on_c, 1, 51, 49
3, 116976, Note_on_c, 1, 44, 49
3, 117008, Note_on_c, 1, 44, 0
3, 117008, Note_on_c, 1, 59, 0
3, 117008, Note_on_c, 1, 56, 0
3, 117008, Note_on_c, 1, 51, 0
3, 117024, Note_on_c, 1, 59, 53
3, 117024, Note_on_c, 1, 56, 49
3, 117024, Note_on_c, 1, 51, 49
3, 117024, Note_on_c, 1, 44, 49
3, 117056, Note_on_c, 1, 44, 0
3, 117056, Note_on_c, 1, 59, 0
3, 117056, Note_on_c, 1, 56, 0
3, 117056, Note_on_c, 1, 51, 0
3, 117072, Note_on_c, 1, 59, 53
3, 117072, Note_on_c, 1, 56, 49
3, 117072, Note_on_c, 1, 51, 49
3, 117072, Note_on_c, 1, 44, 49
3, 117104, Note_on_c, 1, 44, 0
3, 117104, Note_on_c, 1, 59, 0
3, 117104, Note_on_c, 1, 56, 0
3, 117104, Note_on_c, 1, 51, 0
3, 117120, Note_on_c, 1, 59, 53
3, 117120, Note_on_c, 1, 56, 49
3, 117120, Note_on_c, 1, 51, 49
3, 117120, Note_on_c, 1, 44, 49
3, 117152, Note_on_c, 1, 44, 0
3, 117152, Note_on_c, 1, 59, 0
3, 117152, Note_on_c, 1, 56, 0
3, 117152, Note_on_c, 1, 51, 0
3, 117168, Note_on_c, 1, 59, 53
3, 117168, Note_on_c, 1, 56, 49
3, 117168, Note_on_c, 1, 51, 49
3, 117168, Note_on_c, 1, 44, 49
3, 117200, Note_on_c, 1, 44, 0
3, 117200, Note_on_c, 1, 59, 0
3, 117200, Note_on_c, 1, 56, 0
3, 117200, Note_on_c, 1, 51, 0
3, 117216, Note_on_c, 1, 59, 53
3, 117216, Note_on_c, 1, 56, 49
3, 117216, Note_on_c, 1, 51, 49
3, 117216, Note_on_c, 1, 44, 49
3, 117248, Note_on_c, 1, 44, 0
3, 117248, Note_on_c, 1, 59, 0
3, 117248, Note_on_c, 1, 56, 0
3, 117248, Note_on_c, 1, 51, 0
3, 117264, Note_on_c, 1, 59, 53
3, 117264, Note_on_c, 1, 56, 49
3, 117264, Note_on_c, 1, 51, 49
3, 117264, Note_on_c, 1, 44, 49
3, 117296, Note_on_c, 1, 44, 0
3, 117296, Note_on_c, 1, 59, 0
3, 117296, Note_on_c, 1, 56, 0
3, 117296, Note_on_c, 1, 51, 0
3, 117312, Note_on_c, 1, 59, 53
3, 117312, Note_on_c, 1, 56, 49
3, 117312, Note_on_c, 1, 51, 49
3, 117312, Note_on_c, 1, 44, 49
3, 117344, Note_on_c, 1, 44, 0
3, 117344, Note_on_c, 1, 59, 0
3, 117344, Note_on_c, 1, 56, 0
3, 117344, Note_on_c, 1, 51, 0
3, 117360, Note_on_c, 1, 59, 53
3, 117360, Note_on_c, 1, 56, 49
3, 117360, Note_on_c, 1, 51, 49
3, 117360, Note_on_c, 1, 44, 49
3, 117392, Note_on_c, 1, 44, 0
3, 117392, Note_on_c, 1, 59, 0
3, 117392, Note_on_c, 1, 56, 0
3, 117392, Note_on_c, 1, 51, 0
3, 117408, Note_on_c, 1, 59, 53
3, 117408, Note_on_c, 1, 56, 49
3, 117408, Note_on_c, 1, 51, 49
3, 117408, Note_on_c, 1, 44, 49
3, 117440, Note_on_c, 1, 44, 0
3, 117440, Note_on_c, 1, 59, 0
3, 117440, Note_on_c, 1, 56, 0
3, 117440, Note_on_c, 1, 51, 0
3, 117456, Note_on_c, 1, 59, 53
3, 117456, Note_on_c, 1, 56, 49
3, 117456, Note_on_c, 1, 51, 49
3, 117456, Note_on_c, 1, 44, 49
3, 117488, Note_on_c, 1, 44, 0
3, 117488, Note_on_c, 1, 59, 0
3, 117488, Note_on_c, 1, 56, 0
3, 117488, Note_on_c, 1, 51, 0
3, 117504, Note_on_c, 1, 59, 53
3, 117504, Note_on_c, 1, 56, 49
3, 117504, Note_on_c, 1, 51, 49
3, 117504, Note_on_c, 1, 44, 49
3, 117536, Note_on_c, 1, 44, 0
3, 117536, Note_on_c, 1, 59, 0
3, 117536, Note_on_c, 1, 56, 0
3, 117536, Note_on_c, 1, 51, 0
3, 117552, Note_on_c, 1, 59, 53
3, 117552, Note_on_c, 1, 56, 49
3, 117552, Note_on_c, 1, 51, 49
3, 117552, Note_on_c, 1, 44, 49
3, 117584, Note_on_c, 1, 44, 0
3, 117584, Note_on_c, 1, 59, 0
3, 117584, Note_on_c, 1, 56, 0
3, 117584, Note_on_c, 1, 51, 0
3, 117600, Note_on_c, 1, 59, 53
3, 117600, Note_on_c, 1, 56, 49
3, 117600, Note_on_c, 1, 51, 49
3, 117600, Note_on_c, 1, 44, 49
3, 117632, Note_on_c, 1, 44, 0
3, 117632, Note_on_c, 1, 59, 0
3, 117632, Note_on_c, 1, 56, 0
3, 117632, Note_on_c, 1, 51, 0
3, 117648, Note_on_c, 1, 59, 53
3, 117648, Note_on_c, 1, 56, 49
3, 117648, Note_on_c, 1, 51, 49
3, 117648, Note_on_c, 1, 44, 49
3, 117680, Note_on_c, 1, 44, 0
3, 117680, Note_on_c, 1, 59, 0
3, 117680, Note_on_c, 1, 56, 0
3, 117680, Note_on_c, 1, 51, 0
3, 117696, Note_on_c, 1, 59, 53
3, 117696, Note_on_c, 1, 56, 49
3, 117696, Note_on_c, 1, 51, 49
3, 117696, Note_on_c, 1, 44, 49
3, 117728, Note_on_c, 1, 44, 0
3, 117728, Note_on_c, 1, 59, 0
3, 117728, Note_on_c, 1, 56, 0
3, 117728, Note_on_c, 1, 51, 0
3, 117744, Note_on_c, 1, 59, 53
3, 117744, Note_on_c, 1, 56, 49
3, 117744, Note_on_c, 1, 51, 49
3, 117744, Note_on_c, 1, 44, 49
3, 117776, Note_on_c, 1, 44, 0
3, 117776, Note_on_c, 1, 59, 0
3, 117776, Note_on_c, 1, 56, 0
3, 117776, Note_on_c, 1, 51, 0
3, 117792, Note_on_c, 1, 59, 53
3, 117792, Note_on_c, 1, 56, 49
3, 117792, Note_on_c, 1, 51, 49
3, 117792, Note_on_c, 1, 44, 49
3, 117824, Note_on_c, 1, 44, 0
3, 117824, Note_on_c, 1, 59, 0
3, 117824, Note_on_c, 1, 56, 0
3, 117824, Note_on_c, 1, 51, 0
3, 117840, Note_on_c, 1, 59, 53
3, 117840, Note_on_c, 1, 56, 49
3, 117840, Note_on_c, 1, 51, 49
3, 117840, Note_on_c, 1, 44, 49
3, 117872, Note_on_c, 1, 44, 0
3, 117872, Note_on_c, 1, 59, 0
3, 117872, Note_on_c, 1, 56, 0
3, 117872, Note_on_c, 1, 51, 0
3, 117888, Note_on_c, 1, 59, 53
3, 117888, Note_on_c, 1, 56, 49
3, 117888, Note_on_c, 1, 51, 49
3, 117888, Note_on_c, 1, 44, 49
3, 117920, Note_on_c, 1, 44, 0
3, 117920, Note_on_c, 1, 59, 0
3, 117920, Note_on_c, 1, 56, 0
3, 117920, Note_on_c, 1, 51, 0
3, 117936, Note_on_c, 1, 59, 53
3, 117936, Note_on_c, 1, 56, 49
3, 117936, Note_on_c, 1, 51, 49
3, 117936, Note_on_c, 1, 44, 49
3, 117968, Note_on_c, 1, 44, 0
3, 117968, Note_on_c, 1, 59, 0
3, 117968, Note_on_c, 1, 56, 0
3, 117968, Note_on_c, 1, 51, 0
3, 117984, Note_on_c, 1, 59, 53
3, 117984, Note_on_c, 1, 56, 49
3, 117984, Note_on_c, 1, 51, 49
3, 117984, Note_on_c, 1, 44, 49
3, 118016, Note_on_c, 1, 44, 0
3, 118016, Note_on_c, 1, 59, 0
3, 118016, Note_on_c, 1, 56, 0
3, 118016, Note_on_c, 1, 51, 0
3, 118032, Note_on_c, 1, 59, 53
3, 118032, Note_on_c, 1, 56, 49
3, 118032, Note_on_c, 1, 51, 49
3, 118032, Note_on_c, 1, 44, 49
3, 118064, Note_on_c, 1, 44, 0
3, 118064, Note_on_c, 1, 59, 0
3, 118064, Note_on_c, 1, 56, 0
3, 118064, Note_on_c, 1, 51, 0
3, 118080, Note_on_c, 1, 59, 53
3, 118080, Note_on_c, 1, 56, 49
3, 118080, Note_on_c, 1, 51, 49
3, 118080, Note_on_c, 1, 44, 49
3, 118112, Note_on_c, 1, 44, 0
3, 118112, Note_on_c, 1, 59, 0
3, 118112, Note_on_c, 1, 56, 0
3, 118112, Note_on_c, 1, 51, 0
3, 118128, Note_on_c, 1, 59, 53
3, 118128, Note_on_c, 1, 56, 49
3, 118128, Note_on_c, 1, 51, 49
3, 118128, Note_on_c, 1, 44, 49
3, 118160, Note_on_c, 1, 44, 0
3, 118160, Note_on_c, 1, 59, 0
3, 118160, Note_on_c, 1, 56, 0
3, 118160, Note_on_c, 1, 51, 0
3, 118176, Note_on_c, 1, 59, 53
3, 118176, Note_on_c, 1, 56, 49
3, 118176, Note_on_c, 1, 51, 49
3, 118176, Note_on_c, 1, 44, 49
3, 118208, Note_on_c, 1, 44, 0
3, 118208, Note_on_c, 1, 59, 0
3, 118208, Note_on_c, 1, 56, 0
3, 118208, Note_on_c, 1, 51, 0
3, 118224, Note_on_c, 1, 59, 53
3, 118224, Note_on_c, 1, 56, 49
3, 118224, Note_on_c, 1, 51, 49
3, 118224, Note_on_c, 1, 44, 49
3, 118256, Note_on_c, 1, 44, 0
3, 118256, Note_on_c, 1, 59, 0
3, 118256, Note_on_c, 1, 56, 0
3, 118256, Note_on_c, 1, 51, 0
3, 118272, Note_on_c, 1, 59, 53
3, 118272, Note_on_c, 1, 56, 49
3, 118272, Note_on_c, 1, 51, 49
3, 118272, Note_on_c, 1, 44, 49
3, 118304, Note_on_c, 1, 44, 0
3, 118304, Note_on_c, 1, 59, 0
3, 118304, Note_on_c, 1, 56, 0
3, 118304, Note_on_c, 1, 51, 0
3, 118320, Note_on_c, 1, 59, 53
3, 118320, Note_on_c, 1, 56, 49
3, 118320, Note_on_c, 1, 51, 49
3, 118320, Note_on_c, 1, 44, 49
3, 118352, Note_on_c, 1, 44, 0
3, 118352, Note_on_c, 1, 59, 0
3, 118352, Note_on_c, 1, 56, 0
3, 118352, Note_on_c, 1, 51, 0
3, 118368, Note_on_c, 1, 59, 53
3, 118368, Note_on_c, 1, 56, 49
3, 118368, Note_on_c, 1, 51, 49
3, 118368, Note_on_c, 1, 44, 49
3, 118400, Note_on_c, 1, 44, 0
3, 118400, Note_on_c, 1, 59, 0
3, 118400, Note_on_c, 1, 56, 0
3, 118400, Note_on_c, 1, 51, 0
3, 118416, Note_on_c, 1, 59, 53
3, 118416, Note_on_c, 1, 56, 49
3, 118416, Note_on_c, 1, 51, 49
3, 118416, Note_on_c, 1, 44, 49
3, 118448, Note_on_c, 1, 44, 0
3, 118448, Note_on_c, 1, 59, 0
3, 118448, Note_on_c, 1, 56, 0
3, 118448, Note_on_c, 1, 51, 0
3, 118464, Note_on_c, 1, 59, 53
3, 118464, Note_on_c, 1, 56, 49
3, 118464, Note_on_c, 1, 51, 49
3, 118464, Note_on_c, 1, 44, 49
3, 118496, Note_on_c, 1, 44, 0
3, 118496, Note_on_c, 1, 59, 0
3, 118496, Note_on_c, 1, 56, 0
3, 118496, Note_on_c, 1, 51, 0
3, 118512, Note_on_c, 1, 59, 53
3, 118512, Note_on_c, 1, 56, 49
3, 118512, Note_on_c, 1, 51, 49
3, 118512, Note_on_c, 1, 44, 49
3, 118544, Note_on_c, 1, 44, 0
3, 118544, Note_on_c, 1, 59, 0
3, 118544, Note_on_c, 1, 56, 0
3, 118544, Note_on_c, 1, 51, 0
3, 118560, Note_on_c, 1, 59, 53
3, 118560, Note_on_c, 1, 56, 49
3, 118560, Note_on_c, 1, 51, 49
3, 118560, Note_on_c, 1, 44, 49
3, 118592, Note_on_c, 1, 44, 0
3, 118592, Note_on_c, 1, 59, 0
3, 118592, Note_on_c, 1, 56, 0
3, 118592, Note_on_c, 1, 51, 0
3, 118608, Note_on_c, 1, 59, 53
3, 118608, Note_on_c, 1, 56, 49
3, 118608, Note_on_c, 1, 51, 49
3, 118608, Note_on_c, 1, 44, 49
3, 118640, Note_on_c, 1, 44, 0
3, 118640, Note_on_c, 1, 59, 0
3, 118640, Note_on_c, 1, 56, 0
3, 118640, Note_on_c, 1, 51, 0
3, 118656, Note_on_c, 1, 59, 53
3, 118656, Note_on_c, 1, 56, 49
3, 118656, Note_on_c, 1, 51, 49
3, 118656, Note_on_c, 1, 44, 49
3, 118688, Note_on_c, 1, 44, 0
3, 118688, Note_on_c, 1, 59, 0
3, 118688, Note_on_c, 1, 56, 0
3, 118688, Note_on_c, 1, 51, 0
3, 118704, Note_on_c, 1, 59, 53
3, 118704, Note_on_c, 1, 56, 49
3, 118704, Note_on_c, 1, 51, 49
3, 118704, Note_on_c, 1, 44, 49
3, 118736, Note_on_c, 1, 44, 0
3, 118736, Note_on_c, 1, 59, 0
3, 118736, Note_on_c, 1, 56, 0
3, 118736, Note_on_c, 1, 51, 0
3, 118752, Note_on_c, 1, 59, 53
3, 118752, Note_on_c, 1, 56, 49
3, 118752, Note_on_c, 1, 51, 49
3, 118752, Note_on_c, 1, 44, 49
3, 118784, Note_on_c, 1, 44, 0
3, 118784, Note_on_c, 1, 59, 0
3, 118784, Note_on_c, 1, 56, 0
3, 118784, Note_on_c, 1, 51, 0
3, 118800, Note_on_c, 1, 59, 53
3, 118800, Note_on_c, 1, 56, 49
3, 118800, Note_on_c, 1, 51, 49
3, 118800, Note_on_c, 1, 44, 49
3, 118832, Note_on_c, 1, 44, 0
3, 118832, Note_on_c, 1, 59, 0
3, 118832, Note_on_c, 1, 56, 0
3, 118832, Note_on_c, 1, 51, 0
3, 118848, Note_on_c, 1, 59, 53
3, 118848, Note_on_c, 1, 56, 49
3, 118848, Note_on_c, 1, 51, 49
3, 118848, Note_on_c, 1, 44, 49
3, 118880, Note_on_c, 1, 44, 0
3, 118880, Note_on_c, 1, 59, 0
3, 118880, Note_on_c, 1, 56, 0
3, 118880, Note_on_c, 1, 51, 0
3, 118896, Note_on_c, 1, 59, 53
3, 118896, Note_on_c, 1, 56, 49
3, 118896, Note_on_c, 1, 51, 49
3, 118896, Note_on_c, 1, 44, 49
3, 118928, Note_on_c, 1, 44, 0
3, 118928, Note_on_c, 1, 59, 0
3, 118928, Note_on_c, 1, 56, 0
3, 118928, Note_on_c, 1, 51, 0
3, 118944, Note_on_c, 1, 59, 53
3, 118944, Note_on_c, 1, 56, 49
3, 118944, Note_on_c, 1, 51, 49
3, 118944, Note_on_c, 1, 44, 49
3, 118976, Note_on_c, 1, 44, 0
3, 118976, Note_on_c, 1, 59, 0
3, 118976, Note_on_c, 1, 56, 0
3, 118976, Note_on_c, 1, 51, 0
3, 118992, Note_on_c, 1, 59, 53
3, 118992, Note_on_c, 1, 56, 49
3, 118992, Note_on_c, 1, 51, 49
3, 118992, Note_on_c, 1, 44, 49
3, 119024, Note_on_c, 1, 44, 0
3, 119024, Note_on_c, 1, 59, 0
3, 119024, Note_on_c, 1, 56, 0
3, 119024, Note_on_c, 1, 51, 0
3, 119040, Note_on_c, 1, 59, 53
3, 119040, Note_on_c, 1, 56, 49
3, 119040, Note_on_c, 1, 51, 49
3, 119040, Note_on_c, 1, 44, 49
3, 119072, Note_on_c, 1, 44, 0
3, 119072, Note_on_c, 1, 59, 0
3, 119072, Note_on_c, 1, 56, 0
3, 119072, Note_on_c, 1, 51, 0
3, 119088, Note_on_c, 1, 59, 53
3, 119088, Note_on_c, 1, 56, 49
3, 119088, Note_on_c, 1, 51, 49
3, 119088, Note_on_c, 1, 44, 49
3, 119120, Note_on_c, 1, 44, 0
3, 119120, Note_on_c, 1, 59, 0
3, 119120, Note_on_c, 1, 56, 0
3, 119120, Note_on_c, 1, 51, 0
3, 119136, Note_on_c, 1, 59, 53
3, 119136, Note_on_c, 1, 56, 49
3, 119136, Note_on_c, 1, 51, 49
3, 119136, Note_on_c, 1, 44, 49
3, 119168, Note_on_c, 1, 44, 0
3, 119168, Note_on_c, 1, 59, 0
3, 119168, Note_on_c, 1, 56, 0
3, 119168, Note_on_c, 1, 51, 0
3, 119184, Note_on_c, 1, 59, 53
3, 119184, Note_on_c, 1, 56, 49
3, 119184, Note_on_c, 1, 51, 49
3, 119184, Note_on_c, 1, 44, 49
3, 119216, Note_on_c, 1, 44, 0
3, 119216, Note_on_c, 1, 59, 0
3, 119216, Note_on_c, 1, 56, 0
3, 119216, Note_on_c, 1, 51, 0
3, 119232, Note_on_c, 1, 59, 53
3, 119232, Note_on_c, 1, 56, 49
3, 119232, Note_on_c, 1, 51, 49
3, 119232, Note_on_c, 1, 44, 49
3, 119264, Note_on_c, 1, 44, 0
3, 119264, Note_on_c, 1, 59, 0
3, 119264, Note_on_c, 1, 56, 0
3, 119264, Note_on_c, 1, 51, 0
3, 119280, Note_on_c, 1, 59, 53
3, 119280, Note_on_c, 1, 56, 49
3, 119280, Note_on_c, 1, 51, 49
3, 119280, Note_on_c, 1, 44, 49
3, 119312, Note_on_c, 1, 44, 0
3, 119312, Note_on_c, 1, 59, 0
3, 119312, Note_on_c, 1, 56, 0
3, 119312, Note_on_c, 1, 51, 0
3, 119328, Note_on_c, 1, 59, 53
3, 119328, Note_on_c, 1, 56, 49
3, 119328, Note_on_c, 1, 51, 49
3, 119328, Note_on_c, 1, 44, 49
3, 119360, Note_on_c, 1, 44, 0
3, 119360, Note_on_c, 1, 59, 0
3, 119360, Note_on_c, 1, 56, 0
3, 119360, Note_on_c, 1, 51, 0
3, 119376, Note_on_c, 1, 59, 53
3, 119376, Note_on_c, 1, 56, 49
3, 119376, Note_on_c, 1, 51, 49
3, 119376, Note_on_c, 1, 44, 49
3, 119408, Note_on_c, 1, 44, 0
3, 119408, Note_on_c, 1, 59, 0
3, 119408, Note_on_c, 1, 56, 0
3, 119408, Note_on_c, 1, 51, 0
3, 119424, Note_on_c, 1, 59, 53
3, 119424, Note_on_c, 1, 56, 49
3, 119424, Note_on_c, 1, 51, 49
3, 119424, Note_on_c, 1, 44, 49
3, 119456, Note_on_c, 1, 44, 0
3, 119456, Note_on_c, 1, 59, 0
3, 119456, Note_on_c, 1, 56, 0
3, 119456, Note_on_c, 1, 51, 0
3, 119472, Note_on_c, 1, 59, 53
3, 119472, Note_on_c, 1, 56, 49
3, 119472, Note_on_c, 1, 51, 49
3, 119472, Note_on_c, 1, 44, 49
3, 119504, Note_on_c, 1, 44, 0
3, 119504, Note_on_c, 1, 59, 0
3, 119504, Note_on_c, 1, 56, 0
3, 119504, Note_on_c, 1, 51, 0
3, 119520, Note_on_c, 1, 59, 53
3, 119520, Note_on_c, 1, 56, 49
3, 119520, Note_on_c, 1, 51, 49
3, 119520, Note_on_c, 1, 44, 49
3, 119552, Note_on_c, 1, 44, 0
3, 119552, Note_on_c, 1, 59, 0
3, 119552, Note_on_c, 1, 56, 0
3, 119552, Note_on_c, 1, 51, 0
3, 119568, Note_on_c, 1, 59, 53
3, 119568, Note_on_c, 1, 56, 49
3, 119568, Note_on_c, 1, 51, 49
3, 119568, Note_on_c, 1, 44, 49
3, 119600, Note_on_c, 1, 44, 0
3, 119600, Note_on_c, 1, 59, 0
3, 119600, Note_on_c, 1, 56, 0
3, 119600, Note_on_c, 1, 51, 0
3, 119616, Note_on_c, 1, 59, 53
3, 119616, Note_on_c, 1, 56, 49
3, 119616, Note_on_c, 1, 51, 49
3, 119616, Note_on_c, 1, 44, 49
3, 119648, Note_on_c, 1, 44, 0
3, 119648, Note_on_c, 1, 59, 0
3, 119648, Note_on_c, 1, 56, 0
3, 119648, Note_on_c, 1, 51, 0
3, 119664, Note_on_c, 1, 59, 53
3, 119664, Note_on_c, 1, 56, 49
3, 119664, Note_on_c, 1, 51, 49
3, 119664, Note_on_c, 1, 44, 49
3, 119696, Note_on_c, 1, 44, 0
3, 119696, Note_on_c, 1, 59, 0
3, 119696, Note_on_c, 1, 56, 0
3, 119696, Note_on_c, 1, 51, 0
3, 119712, Note_on_c, 1, 59, 53
3, 119712, Note_on_c, 1, 56, 49
3, 119712, Note_on_c, 1, 51, 49
3, 119712, Note_on_c, 1, 44, 49
3, 119744, Note_on_c, 1, 44, 0
3, 119744, Note_on_c, 1, 59, 0
3, 119744, Note_on_c, 1, 56, 0
3, 119744, Note_on_c, 1, 51, 0
3, 119760, Note_on_c, 1, 59, 53
3, 119760, Note_on_c, 1, 56, 49
3, 119760, Note_on_c, 1, 51, 49
3, 119760, Note_on_c, 1, 44, 49
3, 119792, Note_on_c, 1, 44, 0
3, 119792, Note_on_c, 1, 59, 0
3, 119792, Note_on_c, 1, 56, 0
3, 119792, Note_on_c, 1, 51, 0
3, 119808, Note_on_c, 1, 59, 53
3, 119808, Note_on_c, 1, 56, 49
3, 119808, Note_on_c, 1, 51, 49
3, 119808, Note_on_c, 1, 44, 49
3, 119840, Note_on_c, 1, 44, 0
3, 119840, Note_on_c, 1, 59, 0
3, 119840, Note_on_c, 1, 56, 0
3, 119840, Note_on_c, 1, 51, 0
3, 119856, Note_on_c, 1, 59, 53
3, 119856, Note_on_c, 1, 56, 49
3, 119856, Note_on_c, 1, 51, 49
3, 119856, Note_on_c, 1, 44, 49
3, 119888, Note_on_c, 1, 44, 0
3, 119888, Note_on_c, 1, 59, 0
3, 119888, Note_on_c, 1, 56, 0
3, 119888, Note_on_c, 1, 51, 0
3, 119904, Note_on_c, 1, 59, 53
3, 119904, Note_on_c, 1, 56, 49
3, 119904, Note_on_c, 1, 51, 49
3, 119904, Note_on_c, 1, 44, 49
3, 119936, Note_on_c, 1, 44, 0
3, 119936, Note_on_c, 1, 59, 0
3, 119936, Note_on_c, 1, 56, 0
3, 119936, Note_on_c, 1, 51, 0
3, 119952, Note_on_c, 1, 59, 53
3, 119952, Note_on_c, 1, 56, 49
3, 119952, Note_on_c, 1, 51, 49
3, 119952, Note_on_c, 1, 44, 49
3, 119984, Note_on_c, 1, 44, 0
3, 119984, Note_on_c, 1, 59, 0
3, 119984, Note_on_c, 1, 56, 0
3, 119984, Note_on_c, 1, 51, 0
3, 120000, Note_on_c, 1, 59, 53
3, 120000, Note_on_c, 1, 56, 49
3, 120000, Note_on_c, 1, 51, 49
3, 120000, Note_on_c, 1, 44, 49
3, 120032, Note_on_c, 1, 44, 0
3, 120032, Note_on_c, 1, 59, 0
3, 120032, Note_on_c, 1, 56, 0
3, 120032, Note_on_c, 1, 51, 0
3, 120048, Note_on_c, 1, 59, 53
3, 120048, Note_on_c, 1, 56, 49
3, 120048, Note_on_c, 1, 51, 49
3, 120048, Note_on_c, 1, 44, 49
3, 120080, Note_on_c, 1, 44, 0
3, 120080, Note_on_c, 1, 59, 0
3, 120080, Note_on_c, 1, 56, 0
3, 120080, Note_on_c, 1, 51, 0
3, 120096, Note_on_c, 1, 59, 53
3, 120096, Note_on_c, 1, 56, 49
3, 120096, Note_on_c, 1, 51, 49
3, 120096, Note_on_c, 1, 44, 49
3, 120128, Note_on_c, 1, 44, 0
3, 120128, Note_on_c, 1, 59, 0
3, 120128, Note_on_c, 1, 56, 0
3, 120128, Note_on_c, 1, 51, 0
3, 120144, Note_on_c, 1, 59, 53
3, 120144, Note_on_c, 1, 56, 49
3, 120144, Note_on_c, 1, 51, 49
3, 120144, Note_on_c, 1, 44, 49
3, 120176, Note_on_c, 1, 44, 0
3, 120176, Note_on_c, 1, 59, 0
3, 120176, Note_on_c, 1, 56, 0
3, 120176, Note_on_c, 1, 51, 0
3, 120192, Note_on_c, 1, 59, 53
3, 120192, Note_on_c, 1, 56, 49
3, 120192, Note_on_c, 1, 51, 49
3, 120192, Note_on_c, 1, 44, 49
3, 120224, Note_on_c, 1, 44, 0
3, 120224, Note_on_c, 1, 59, 0
3, 120224, Note_on_c, 1, 56, 0
3, 120224, Note_on_c, 1, 51, 0
3, 120240, Note_on_c, 1, 59, 53
3, 120240, Note_on_c, 1, 56, 49
3, 120240, Note_on_c, 1, 51, 49
3, 120240, Note_on_c, 1, 44, 49
3, 120272, Note_on_c, 1, 44, 0
3, 120272, Note_on_c, 1, 59, 0
3, 120272, Note_on_c, 1, 56, 0
3, 120272, Note_on_c, 1, 51, 0
3, 120288, Note_on_c, 1, 59, 53
3, 120288, Note_on_c, 1, 56, 49
3, 120288, Note_on_c, 1, 51, 49
3, 120288, Note_on_c, 1, 44, 49
3, 120320, Note_on_c, 1, 44, 0
3, 120320, Note_on_c, 1, 59, 0
3, 120320, Note_on_c, 1, 56, 0
3, 120320, Note_on_c, 1, 51, 0
3, 120336, Note_on_c, 1, 59, 53
3, 120336, Note_on_c, 1, 56, 49
3, 120336, Note_on_c, 1, 51, 49
3, 120336, Note_on_c, 1, 44, 49
3, 120368, Note_on_c, 1, 44, 0
3, 120368, Note_on_c, 1, 59, 0
3, 120368, Note_on_c, 1, 56, 0
3, 120368, Note_on_c, 1, 51, 0
3, 120384, Note_on_c, 1, 59, 53
3, 120384, Note_on_c, 1, 56, 49
3, 120384, Note_on_c, 1, 51, 49
3, 120384, Note_on_c, 1, 44, 49
3, 120416, Note_on_c, 1, 44, 0
3, 120416, Note_on_c, 1, 59, 0
3, 120416, Note_on_c, 1, 56, 0
3, 120416, Note_on_c, 1, 51, 0
3, 120432, Note_on_c, 1, 61, 48
3, 120432, Note_on_c, 1, 56, 48
3, 120432, Note_on_c, 1, 52, 48
3, 120432, Note_on_c, 1, 44, 48
3, 120464, Note_on_c, 1, 44, 0
3, 120464, Note_on_c, 1, 61, 0
3, 120464, Note_on_c, 1, 56, 0
3, 120464, Note_on_c, 1, 52, 0
3, 120480, Note_on_c, 1, 61, 48
3, 120480, Note_on_c, 1, 56, 48
3, 120480, Note_on_c, 1, 52, 48
3, 120480, Note_on_c, 1, 44, 48
3, 120512, Note_on_c, 1, 44, 0
3, 120512, Note_on_c, 1, 61, 0
3, 120512, Note_on_c, 1, 56, 0
3, 120512, Note_on_c, 1, 52, 0
3, 120528, Note_on_c, 1, 61, 48
3, 120528, Note_on_c, 1, 56, 48
3, 120528, Note_on_c, 1, 52, 48
3, 120528, Note_on_c, 1, 44, 48
3, 120560, Note_on_c, 1, 44, 0
3, 120560, Note_on_c, 1, 61, 0
3, 120560, Note_on_c, 1, 56, 0
3, 120560, Note_on_c, 1, 52, 0
3, 120576, Note_on_c, 1, 61, 48
3, 120576, Note_on_c, 1, 56, 48
3, 120576, Note_on_c, 1, 52, 48
3, 120576, Note_on_c, 1, 44, 48
3, 120608, Note_on_c, 1, 44, 0
3, 120608, Note_on_c, 1, 61, 0
3, 120608, Note_on_c, 1, 56, 0
3, 120608, Note_on_c, 1, 52, 0
3, 120624, Note_on_c, 1, 61, 48
3, 120624, Note_on_c, 1, 56, 48
3, 120624, Note_on_c, 1, 52, 48
3, 120624, Note_on_c, 1, 44, 48
3, 120656, Note_on_c, 1, 44, 0
3, 120656, Note_on_c, 1, 61, 0
3, 120656, Note_on_c, 1, 56, 0
3, 120656, Note_on_c, 1, 52, 0
3, 120672, Note_on_c, 1, 61, 48
3, 120672, Note_on_c, 1, 56, 48
3, 120672, Note_on_c, 1, 52, 48
3, 120672, Note_on_c, 1, 44, 48
3, 120704, Note_on_c, 1, 44, 0
3, 120704, Note_on_c, 1, 61, 0
3, 120704, Note_on_c, 1, 56, 0
3, 120704, Note_on_c, 1, 52, 0
3, 120720, Note_on_c, 1, 61, 48
3, 120720, Note_on_c, 1, 56, 48
3, 120720, Note_on_c, 1, 52, 48
3, 120720, Note_on_c, 1, 44, 48
3, 120752, Note_on_c, 1, 44, 0
3, 120752, Note_on_c, 1, 61, 0
3, 120752, Note_on_c, 1, 56, 0
3, 120752, Note_on_c, 1, 52, 0
3, 120768, Note_on_c, 1, 61, 48
3, 120768, Note_on_c, 1, 56, 48
3, 120768, Note_on_c, 1, 52, 48
3, 120768, Note_on_c, 1, 44, 48
3, 120800, Note_on_c, 1, 44, 0
3, 120800, Note_on_c, 1, 61, 0
3, 120800, Note_on_c, 1, 56, 0
3, 120800, Note_on_c, 1, 52, 0
3, 120816, Note_on_c, 1, 61, 48
3, 120816, Note_on_c, 1, 56, 48
3, 120816, Note_on_c, 1, 52, 48
3, 120816, Note_on_c, 1, 44, 48
3, 120848, Note_on_c, 1, 44, 0
3, 120848, Note_on_c, 1, 61, 0
3, 120848, Note_on_c, 1, 56, 0
3, 120848, Note_on_c, 1, 52, 0
3, 120864, Note_on_c, 1, 61, 48
3, 120864, Note_on_c, 1, 56, 48
3, 120864, Note_on_c, 1, 52, 48
3, 120864, Note_on_c, 1, 44, 48
3, 120896, Note_on_c, 1, 44, 0
3, 120896, Note_on_c, 1, 61, 0
3, 120896, Note_on_c, 1, 56, 0
3, 120896, Note_on_c, 1, 52, 0
3, 120912, Note_on_c, 1, 61, 48
3, 120912, Note_on_c, 1, 56, 48
3, 120912, Note_on_c, 1, 52, 48
3, 120912, Note_on_c, 1, 44, 48
3, 120944, Note_on_c, 1, 44, 0
3, 120944, Note_on_c, 1, 61, 0
3, 120944, Note_on_c, 1, 56, 0
3, 120944, Note_on_c, 1, 52, 0
3, 120960, Note_on_c, 1, 61, 48
3, 120960, Note_on_c, 1, 56, 48
3, 120960, Note_on_c, 1, 52, 48
3, 120960, Note_on_c, 1, 44, 48
3, 120992, Note_on_c, 1, 44, 0
3, 120992, Note_on_c, 1, 61, 0
3, 120992, Note_on_c, 1, 56, 0
3, 120992, Note_on_c, 1, 52, 0
3, 121008, Note_on_c, 1, 61, 48
3, 121008, Note_on_c, 1, 56, 48
3, 121008, Note_on_c, 1, 52, 48
3, 121008, Note_on_c, 1, 44, 48
3, 121040, Note_on_c, 1, 44, 0
3, 121040, Note_on_c, 1, 61, 0
3, 121040, Note_on_c, 1, 56, 0
3, 121040, Note_on_c, 1, 52, 0
3, 121056, Note_on_c, 1, 61, 48
3, 121056, Note_on_c, 1, 56, 48
3, 121056, Note_on_c, 1, 52, 48
3, 121056, Note_on_c, 1, 44, 48
3, 121088, Note_on_c, 1, 44, 0
3, 121088, Note_on_c, 1, 61, 0
3, 121088, Note_on_c, 1, 56, 0
3, 121088, Note_on_c, 1, 52, 0
3, 121104, Note_on_c, 1, 61, 48
3, 121104, Note_on_c, 1, 56, 48
3, 121104, Note_on_c, 1, 52, 48
3, 121104, Note_on_c, 1, 44, 48
3, 121136, Note_on_c, 1, 44, 0
3, 121136, Note_on_c, 1, 61, 0
3, 121136, Note_on_c, 1, 56, 0
3, 121136, Note_on_c, 1, 52, 0
3, 121152, Note_on_c, 1, 61, 48
3, 121152, Note_on_c, 1, 56, 48
3, 121152, Note_on_c, 1, 52, 48
3, 121152, Note_on_c, 1, 44, 48
3, 121184, Note_on_c, 1, 44, 0
3, 121184, Note_on_c, 1, 61, 0
3, 121184, Note_on_c, 1, 56, 0
3, 121184, Note_on_c, 1, 52, 0
3, 121200, Note_on_c, 1, 61, 48
3, 121200, Note_on_c, 1, 56, 48
3, 121200, Note_on_c, 1, 52, 48
3, 121200, Note_on_c, 1, 44, 48
3, 121232, Note_on_c, 1, 44, 0
3, 121232, Note_on_c, 1, 61, 0
3, 121232, Note_on_c, 1, 56, 0
3, 121232, Note_on_c, 1, 52, 0
3, 121248, Note_on_c, 1, 61, 48
3, 121248, Note_on_c, 1, 56, 48
3, 121248, Note_on_c, 1, 52, 48
3, 121248, Note_on_c, 1, 44, 48
3, 121280, Note_on_c, 1, 44, 0
3, 121280, Note_on_c, 1, 61, 0
3, 121280, Note_on_c, 1, 56, 0
3, 121280, Note_on_c, 1, 52, 0
3, 121296, Note_on_c, 1, 61, 48
3, 121296, Note_on_c, 1, 56, 48
3, 121296, Note_on_c, 1, 52, 48
3, 121296, Note_on_c, 1, 44, 48
3, 121328, Note_on_c, 1, 44, 0
3, 121328, Note_on_c, 1, 61, 0
3, 121328, Note_on_c, 1, 56, 0
3, 121328, Note_on_c, 1, 52, 0
3, 121344, Note_on_c, 1, 61, 48
3, 121344, Note_on_c, 1, 56, 48
3, 121344, Note_on_c, 1, 52, 48
3, 121344, Note_on_c, 1, 44, 48
3, 121376, Note_on_c, 1, 44, 0
3, 121376, Note_on_c, 1, 61, 0
3, 121376, Note_on_c, 1, 56, 0
3, 121376, Note_on_c, 1, 52, 0
3, 121392, Note_on_c, 1, 61, 48
3, 121392, Note_on_c, 1, 56, 48
3, 121392, Note_on_c, 1, 52, 48
3, 121392, Note_on_c, 1, 44, 48
3, 121424, Note_on_c, 1, 44, 0
3, 121424, Note_on_c, 1, 61, 0
3, 121424, Note_on_c, 1, 56, 0
3, 121424, Note_on_c, 1, 52, 0
3, 121440, Note_on_c, 1, 61, 48
3, 121440, Note_on_c, 1, 56, 48
3, 121440, Note_on_c, 1, 52, 48
3, 121440, Note_on_c, 1, 44, 48
3, 121472, Note_on_c, 1, 44, 0
3, 121472, Note_on_c, 1, 61, 0
3, 121472, Note_on_c, 1, 56, 0
3, 121472, Note_on_c, 1, 52, 0
3, 121488, Note_on_c, 1, 61, 48
3, 121488, Note_on_c, 1, 56, 48
3, 121488, Note_on_c, 1, 52, 48
3, 121488, Note_on_c, 1, 44, 48
3, 121520, Note_on_c, 1, 44, 0
3, 121520, Note_on_c, 1, 61, 0
3, 121520, Note_on_c, 1, 56, 0
3, 121520, Note_on_c, 1, 52, 0
3, 121536, Note_on_c, 1, 61, 48
3, 121536, Note_on_c, 1, 56, 48
3, 121536, Note_on_c, 1, 52, 48
3, 121536, Note_on_c, 1, 44, 48
3, 121568, Note_on_c, 1, 44, 0
3, 121568, Note_on_c, 1, 61, 0
3, 121568, Note_on_c, 1, 56, 0
3, 121568, Note_on_c, 1, 52, 0
3, 121584, Note_on_c, 1, 61, 48
3, 121584, Note_on_c, 1, 56, 48
3, 121584, Note_on_c, 1, 52, 48
3, 121584, Note_on_c, 1, 44, 48
3, 121616, Note_on_c, 1, 44, 0
3, 121616, Note_on_c, 1, 61, 0
3, 121616, Note_on_c, 1, 56, 0
3, 121616, Note_on_c, 1, 52, 0
3, 121632, Note_on_c, 1, 61, 48
3, 121632, Note_on_c, 1, 56, 48
3, 121632, Note_on_c, 1, 52, 48
3, 121632, Note_on_c, 1, 44, 48
3, 121664, Note_on_c, 1, 44, 0
3, 121664, Note_on_c, 1, 61, 0
3, 121664, Note_on_c, 1, 56, 0
3, 121664, Note_on_c, 1, 52, 0
3, 121680, Note_on_c, 1, 61, 48
3, 121680, Note_on_c, 1, 56, 48
3, 121680, Note_on_c, 1, 52, 48
3, 121680, Note_on_c, 1, 44, 48
3, 121712, Note_on_c, 1, 44, 0
3, 121712, Note_on_c, 1, 61, 0
3, 121712, Note_on_c, 1, 56, 0
3, 121712, Note_on_c, 1, 52, 0
3, 121728, Note_on_c, 1, 61, 48
3, 121728, Note_on_c, 1, 56, 48
3, 121728, Note_on_c, 1, 52, 48
3, 121728, Note_on_c, 1, 44, 48
3, 121760, Note_on_c, 1, 44, 0
3, 121760, Note_on_c, 1, 61, 0
3, 121760, Note_on_c, 1, 56, 0
3, 121760, Note_on_c, 1, 52, 0
3, 121776, Note_on_c, 1, 61, 48
3, 121776, Note_on_c, 1, 56, 48
3, 121776, Note_on_c, 1, 52, 48
3, 121776, Note_on_c, 1, 44, 48
3, 121808, Note_on_c, 1, 44, 0
3, 121808, Note_on_c, 1, 61, 0
3, 121808, Note_on_c, 1, 56, 0
3, 121808, Note_on_c, 1, 52, 0
3, 121824, Note_on_c, 1, 61, 48
3, 121824, Note_on_c, 1, 56, 48
3, 121824, Note_on_c, 1, 52, 48
3, 121824, Note_on_c, 1, 44, 48
3, 121856, Note_on_c, 1, 44, 0
3, 121856, Note_on_c, 1, 61, 0
3, 121856, Note_on_c, 1, 56, 0
3, 121856, Note_on_c, 1, 52, 0
3, 121872, Note_on_c, 1, 61, 48
3, 121872, Note_on_c, 1, 56, 48
3, 121872, Note_on_c, 1, 52, 48
3, 121872, Note_on_c, 1, 44, 48
3, 121904, Note_on_c, 1, 44, 0
3, 121904, Note_on_c, 1, 61, 0
3, 121904, Note_on_c, 1, 56, 0
3, 121904, Note_on_c, 1, 52, 0
3, 121920, Note_on_c, 1, 61, 48
3, 121920, Note_on_c, 1, 56, 48
3, 121920, Note_on_c, 1, 52, 48
3, 121920, Note_on_c, 1, 44, 48
3, 121952, Note_on_c, 1, 44, 0
3, 121952, Note_on_c, 1, 61, 0
3, 121952, Note_on_c, 1, 56, 0
3, 121952, Note_on_c, 1, 52, 0
3, 121968, Note_on_c, 1, 61, 48
3, 121968, Note_on_c, 1, 56, 48
3, 121968, Note_on_c, 1, 52, 48
3, 121968, Note_on_c, 1, 44, 48
3, 122000, Note_on_c, 1, 44, 0
3, 122000, Note_on_c, 1, 61, 0
3, 122000, Note_on_c, 1, 56, 0
3, 122000, Note_on_c, 1, 52, 0
3, 122016, Note_on_c, 1, 61, 48
3, 122016, Note_on_c, 1, 56, 48
3, 122016, Note_on_c, 1, 52, 48
3, 122016, Note_on_c, 1, 44, 48
3, 122048, Note_on_c, 1, 44, 0
3, 122048, Note_on_c, 1, 61, 0
3, 122048, Note_on_c, 1, 56, 0
3, 122048, Note_on_c, 1, 52, 0
3, 122064, Note_on_c, 1, 61, 48
3, 122064, Note_on_c, 1, 56, 48
3, 122064, Note_on_c, 1, 52, 48
3, 122064, Note_on_c, 1, 44, 48
3, 122096, Note_on_c, 1, 44, 0
3, 122096, Note_on_c, 1, 61, 0
3, 122096, Note_on_c, 1, 56, 0
3, 122096, Note_on_c, 1, 52, 0
3, 122112, Note_on_c, 1, 61, 48
3, 122112, Note_on_c, 1, 56, 48
3, 122112, Note_on_c, 1, 52, 48
3, 122112, Note_on_c, 1, 44, 48
3, 122144, Note_on_c, 1, 44, 0
3, 122144, Note_on_c, 1, 61, 0
3, 122144, Note_on_c, 1, 56, 0
3, 122144, Note_on_c, 1, 52, 0
3, 122160, Note_on_c, 1, 61, 48
3, 122160, Note_on_c, 1, 56, 48
3, 122160, Note_on_c, 1, 52, 48
3, 122160, Note_on_c, 1, 44, 48
3, 122192, Note_on_c, 1, 44, 0
3, 122192, Note_on_c, 1, 61, 0
3, 122192, Note_on_c, 1, 56, 0
3, 122192, Note_on_c, 1, 52, 0
3, 122208, Note_on_c, 1, 61, 48
3, 122208, Note_on_c, 1, 56, 48
3, 122208, Note_on_c, 1, 52, 48
3, 122208, Note_on_c, 1, 44, 48
3, 122240, Note_on_c, 1, 44, 0
3, 122240, Note_on_c, 1, 61, 0
3, 122240, Note_on_c, 1, 56, 0
3, 122240, Note_on_c, 1, 52, 0
3, 122256, Note_on_c, 1, 61, 48
3, 122256, Note_on_c, 1, 56, 48
3, 122256, Note_on_c, 1, 52, 48
3, 122256, Note_on_c, 1, 44, 48
3, 122288, Note_on_c, 1, 44, 0
3, 122288, Note_on_c, 1, 61, 0
3, 122288, Note_on_c, 1, 56, 0
3, 122288, Note_on_c, 1, 52, 0
3, 122304, Note_on_c, 1, 61, 48
3, 122304, Note_on_c, 1, 56, 48
3, 122304, Note_on_c, 1, 52, 48
3, 122304, Note_on_c, 1, 44, 48
3, 122336, Note_on_c, 1, 44, 0
3, 122336, Note_on_c, 1, 61, 0
3, 122336, Note_on_c, 1, 56, 0
3, 122336, Note_on_c, 1, 52, 0
3, 122352, Note_on_c, 1, 61, 48
3, 122352, Note_on_c, 1, 56, 48
3, 122352, Note_on_c, 1, 52, 48
3, 122352, Note_on_c, 1, 44, 48
3, 122384, Note_on_c, 1, 44, 0
3, 122384, Note_on_c, 1, 61, 0
3, 122384, Note_on_c, 1, 56, 0
3, 122384, Note_on_c, 1, 52, 0
3, 122400, Note_on_c, 1, 61, 48
3, 122400, Note_on_c, 1, 56, 48
3, 122400, Note_on_c, 1, 52, 48
3, 122400, Note_on_c, 1, 44, 48
3, 122432, Note_on_c, 1, 44, 0
3, 122432, Note_on_c, 1, 61, 0
3, 122432, Note_on_c, 1, 56, 0
3, 122432, Note_on_c, 1, 52, 0
3, 122448, Note_on_c, 1, 61, 48
3, 122448, Note_on_c, 1, 56, 48
3, 122448, Note_on_c, 1, 52, 48
3, 122448, Note_on_c, 1, 44, 48
3, 122480, Note_on_c, 1, 44, 0
3, 122480, Note_on_c, 1, 61, 0
3, 122480, Note_on_c, 1, 56, 0
3, 122480, Note_on_c, 1, 52, 0
3, 122496, Note_on_c, 1, 61, 48
3, 122496, Note_on_c, 1, 56, 48
3, 122496, Note_on_c, 1, 52, 48
3, 122496, Note_on_c, 1, 44, 48
3, 122528, Note_on_c, 1, 44, 0
3, 122528, Note_on_c, 1, 61, 0
3, 122528, Note_on_c, 1, 56, 0
3, 122528, Note_on_c, 1, 52, 0
3, 122544, Note_on_c, 1, 61, 48
3, 122544, Note_on_c, 1, 56, 48
3, 122544, Note_on_c, 1, 52, 48
3, 122544, Note_on_c, 1, 44, 48
3, 122576, Note_on_c, 1, 44, 0
3, 122576, Note_on_c, 1, 61, 0
3, 122576, Note_on_c, 1, 56, 0
3, 122576, Note_on_c, 1, 52, 0
3, 122592, Note_on_c, 1, 61, 48
3, 122592, Note_on_c, 1, 56, 48
3, 122592, Note_on_c, 1, 52, 48
3, 122592, Note_on_c, 1, 44, 48
3, 122624, Note_on_c, 1, 44, 0
3, 122624, Note_on_c, 1, 61, 0
3, 122624, Note_on_c, 1, 56, 0
3, 122624, Note_on_c, 1, 52, 0
3, 122640, Note_on_c, 1, 61, 48
3, 122640, Note_on_c, 1, 56, 48
3, 122640, Note_on_c, 1, 52, 48
3, 122640, Note_on_c, 1, 44, 48
3, 122672, Note_on_c, 1, 44, 0
3, 122672, Note_on_c, 1, 61, 0
3, 122672, Note_on_c, 1, 56, 0
3, 122672, Note_on_c, 1, 52, 0
3, 122688, Note_on_c, 1, 61, 48
3, 122688, Note_on_c, 1, 56, 48
3, 122688, Note_on_c, 1, 52, 48
3, 122688, Note_on_c, 1, 44, 48
3, 122720, Note_on_c, 1, 44, 0
3, 122720, Note_on_c, 1, 61, 0
3, 122720, Note_on_c, 1, 56, 0
3, 122720, Note_on_c, 1, 52, 0
3, 122736, Note_on_c, 1, 61, 48
3, 122736, Note_on_c, 1, 56, 48
3, 122736, Note_on_c, 1, 52, 48
3, 122736, Note_on_c, 1, 44, 48
3, 122768, Note_on_c, 1, 44, 0
3, 122768, Note_on_c, 1, 61, 0
3, 122768, Note_on_c, 1, 56, 0
3, 122768, Note_on_c, 1, 52, 0
3, 122784, Note_on_c, 1, 61, 48
3, 122784, Note_on_c, 1, 56, 48
3, 122784, Note_on_c, 1, 52, 48
3, 122784, Note_on_c, 1, 44, 48
3, 122816, Note_on_c, 1, 44, 0
3, 122816, Note_on_c, 1, 61, 0
3, 122816, Note_on_c, 1, 56, 0
3, 122816, Note_on_c, 1, 52, 0
3, 122832, Note_on_c, 1, 61, 48
3, 122832, Note_on_c, 1, 56, 48
3, 122832, Note_on_c, 1, 52, 48
3, 122832, Note_on_c, 1, 44, 48
3, 122864, Note_on_c, 1, 44, 0
3, 122864, Note_on_c, 1, 61, 0
3, 122864, Note_on_c, 1, 56, 0
3, 122864, Note_on_c, 1, 52, 0
3, 122880, Note_on_c, 1, 61, 48
3, 122880, Note_on_c, 1, 56, 48
3, 122880, Note_on_c, 1, 52, 48
3, 122880, Note_on_c, 1, 44, 48
3, 122912, Note_on_c, 1, 44, 0
3, 122912, Note_on_c, 1, 61, 0
3, 122912, Note_on_c, 1, 56, 0
3, 122912, Note_on_c, 1, 52, 0
3, 122928, Note_on_c, 1, 61, 48
3, 122928, Note_on_c, 1, 56, 48
3, 122928, Note_on_c, 1, 52, 48
3, 122928, Note_on_c, 1, 44, 48
3, 122960, Note_on_c, 1, 44, 0
3, 122960, Note_on_c, 1, 61, 0
3, 122960, Note_on_c, 1, 56, 0
3, 122960, Note_on_c, 1, 52, 0
3, 122976, Note_on_c, 1, 61, 48
3, 122976, Note_on_c, 1, 56, 48
3, 122976, Note_on_c, 1, 52, 48
3, 122976, Note_on_c, 1, 44, 48
3, 123008, Note_on_c, 1, 44, 0
3, 123008, Note_on_c, 1, 61, 0
3, 123008, Note_on_c, 1, 56, 0
3, 123008, Note_on_c, 1, 52, 0
3, 123024, Note_on_c, 1, 61, 48
3, 123024, Note_on_c, 1, 56, 48
3, 123024, Note_on_c, 1, 52, 48
3, 123024, Note_on_c, 1, 44, 48
3, 123056, Note_on_c, 1, 44, 0
3, 123056, Note_on_c, 1, 61, 0
3, 123056, Note_on_c, 1, 56, 0
3, 123056, Note_on_c, 1, 52, 0
3, 123072, Note_on_c, 1, 61, 48
3, 123072, Note_on_c, 1, 56, 48
3, 123072, Note_on_c, 1, 52, 48
3, 123072, Note_on_c, 1, 44, 48
3, 123104, Note_on_c, 1, 44, 0
3, 123104, Note_on_c, 1, 61, 0
3, 123104, Note_on_c, 1, 56, 0
3, 123104, Note_on_c, 1, 52, 0
3, 123120, Note_on_c, 1, 61, 48
3, 123120, Note_on_c, 1, 56, 48
3, 123120, Note_on_c, 1, 52, 48
3, 123120, Note_on_c, 1, 44, 48
3, 123152, Note_on_c, 1, 44, 0
3, 123152, Note_on_c, 1, 61, 0
3, 123152, Note_on_c, 1, 56, 0
3, 123152, Note_on_c, 1, 52, 0
3, 123168, Note_on_c, 1, 61, 48
3, 123168, Note_on_c, 1, 56, 48
3, 123168, Note_on_c, 1, 52, 48
3, 123168, Note_on_c, 1, 44, 48
3, 123200, Note_on_c, 1, 44, 0
3, 123200, Note_on_c, 1, 61, 0
3, 123200, Note_on_c, 1, 56, 0
3, 123200, Note_on_c, 1, 52, 0
3, 123216, Note_on_c, 1, 61, 48
3, 123216, Note_on_c, 1, 56, 48
3, 123216, Note_on_c, 1, 52, 48
3, 123216, Note_on_c, 1, 44, 48
3, 123248, Note_on_c, 1, 44, 0
3, 123248, Note_on_c, 1, 61, 0
3, 123248, Note_on_c, 1, 56, 0
3, 123248, Note_on_c, 1, 52, 0
3, 123264, Note_on_c, 1, 61, 48
3, 123264, Note_on_c, 1, 56, 48
3, 123264, Note_on_c, 1, 52, 48
3, 123264, Note_on_c, 1, 44, 48
3, 123296, Note_on_c, 1, 44, 0
3, 123296, Note_on_c, 1, 61, 0
3, 123296, Note_on_c, 1, 56, 0
3, 123296, Note_on_c, 1, 52, 0
3, 123312, Note_on_c, 1, 61, 49
3, 123312, Note_on_c, 1, 56, 49
3, 123312, Note_on_c, 1, 52, 49
3, 123312, Note_on_c, 1, 44, 49
3, 123344, Note_on_c, 1, 44, 0
3, 123344, Note_on_c, 1, 61, 0
3, 123344, Note_on_c, 1, 56, 0
3, 123344, Note_on_c, 1, 52, 0
3, 123360, Note_on_c, 1, 61, 49
3, 123360, Note_on_c, 1, 56, 49
3, 123360, Note_on_c, 1, 52, 49
3, 123360, Note_on_c, 1, 44, 49
3, 123392, Note_on_c, 1, 44, 0
3, 123392, Note_on_c, 1, 61, 0
3, 123392, Note_on_c, 1, 56, 0
3, 123392, Note_on_c, 1, 52, 0
3, 123408, Note_on_c, 1, 61, 49
3, 123408, Note_on_c, 1, 56, 49
3, 123408, Note_on_c, 1, 52, 49
3, 123408, Note_on_c, 1, 44, 49
3, 123440, Note_on_c, 1, 44, 0
3, 123440, Note_on_c, 1, 61, 0
3, 123440, Note_on_c, 1, 56, 0
3, 123440, Note_on_c, 1, 52, 0
3, 123456, Note_on_c, 1, 61, 49
3, 123456, Note_on_c, 1, 56, 49
3, 123456, Note_on_c, 1, 52, 49
3, 123456, Note_on_c, 1, 44, 49
3, 123488, Note_on_c, 1, 44, 0
3, 123488, Note_on_c, 1, 61, 0
3, 123488, Note_on_c, 1, 56, 0
3, 123488, Note_on_c, 1, 52, 0
3, 123504, Note_on_c, 1, 61, 49
3, 123504, Note_on_c, 1, 56, 49
3, 123504, Note_on_c, 1, 52, 49
3, 123504, Note_on_c, 1, 44, 49
3, 123536, Note_on_c, 1, 44, 0
3, 123536, Note_on_c, 1, 61, 0
3, 123536, Note_on_c, 1, 56, 0
3, 123536, Note_on_c, 1, 52, 0
3, 123552, Note_on_c, 1, 61, 50
3, 123552, Note_on_c, 1, 56, 50
3, 123552, Note_on_c, 1, 52, 50
3, 123552, Note_on_c, 1, 44, 50
3, 123584, Note_on_c, 1, 44, 0
3, 123584, Note_on_c, 1, 61, 0
3, 123584, Note_on_c, 1, 56, 0
3, 123584, Note_on_c, 1, 52, 0
3, 123600, Note_on_c, 1, 61, 50
3, 123600, Note_on_c, 1, 56, 50
3, 123600, Note_on_c, 1, 52, 50
3, 123600, Note_on_c, 1, 44, 50
3, 123632, Note_on_c, 1, 44, 0
3, 123632, Note_on_c, 1, 61, 0
3, 123632, Note_on_c, 1, 56, 0
3, 123632, Note_on_c, 1, 52, 0
3, 123648, Note_on_c, 1, 61, 50
3, 123648, Note_on_c, 1, 56, 50
3, 123648, Note_on_c, 1, 52, 50
3, 123648, Note_on_c, 1, 44, 50
3, 123680, Note_on_c, 1, 44, 0
3, 123680, Note_on_c, 1, 61, 0
3, 123680, Note_on_c, 1, 56, 0
3, 123680, Note_on_c, 1, 52, 0
3, 123696, Note_on_c, 1, 61, 50
3, 123696, Note_on_c, 1, 56, 50
3, 123696, Note_on_c, 1, 52, 50
3, 123696, Note_on_c, 1, 44, 50
3, 123728, Note_on_c, 1, 44, 0
3, 123728, Note_on_c, 1, 61, 0
3, 123728, Note_on_c, 1, 56, 0
3, 123728, Note_on_c, 1, 52, 0
3, 123744, Note_on_c, 1, 61, 50
3, 123744, Note_on_c, 1, 56, 50
3, 123744, Note_on_c, 1, 52, 50
3, 123744, Note_on_c, 1, 44, 50
3, 123776, Note_on_c, 1, 44, 0
3, 123776, Note_on_c, 1, 61, 0
3, 123776, Note_on_c, 1, 56, 0
3, 123776, Note_on_c, 1, 52, 0
3, 123792, Note_on_c, 1, 61, 51
3, 123792, Note_on_c, 1, 56, 51
3, 123792, Note_on_c, 1, 52, 51
3, 123792, Note_on_c, 1, 44, 51
3, 123824, Note_on_c, 1, 44, 0
3, 123824, Note_on_c, 1, 61, 0
3, 123824, Note_on_c, 1, 56, 0
3, 123824, Note_on_c, 1, 52, 0
3, 123840, Note_on_c, 1, 61, 51
3, 123840, Note_on_c, 1, 56, 51
3, 123840, Note_on_c, 1, 52, 51
3, 123840, Note_on_c, 1, 44, 51
3, 123872, Note_on_c, 1, 44, 0
3, 123872, Note_on_c, 1, 61, 0
3, 123872, Note_on_c, 1, 56, 0
3, 123872, Note_on_c, 1, 52, 0
3, 123888, Note_on_c, 1, 61, 51
3, 123888, Note_on_c, 1, 56, 51
3, 123888, Note_on_c, 1, 52, 51
3, 123888, Note_on_c, 1, 44, 51
3, 123920, Note_on_c, 1, 44, 0
3, 123920, Note_on_c, 1, 61, 0
3, 123920, Note_on_c, 1, 56, 0
3, 123920, Note_on_c, 1, 52, 0
3, 123936, Note_on_c, 1, 61, 51
3, 123936, Note_on_c, 1, 56, 51
3, 123936, Note_on_c, 1, 52, 51
3, 123936, Note_on_c, 1, 44, 51
3, 123968, Note_on_c, 1, 44, 0
3, 123968, Note_on_c, 1, 61, 0
3, 123968, Note_on_c, 1, 56, 0
3, 123968, Note_on_c, 1, 52, 0
3, 123984, Note_on_c, 1, 61, 51
3, 123984, Note_on_c, 1, 56, 51
3, 123984, Note_on_c, 1, 52, 51
3, 123984, Note_on_c, 1, 44, 51
3, 124016, Note_on_c, 1, 44, 0
3, 124016, Note_on_c, 1, 61, 0
3, 124016, Note_on_c, 1, 56, 0
3, 124016, Note_on_c, 1, 52, 0
3, 124032, Note_on_c, 1, 61, 52
3, 124032, Note_on_c, 1, 56, 52
3, 124032, Note_on_c, 1, 52, 52
3, 124032, Note_on_c, 1, 44, 52
3, 124064, Note_on_c, 1, 44, 0
3, 124064, Note_on_c, 1, 61, 0
3, 124064, Note_on_c, 1, 56, 0
3, 124064, Note_on_c, 1, 52, 0
3, 124080, Note_on_c, 1, 61, 52
3, 124080, Note_on_c, 1, 56, 52
3, 124080, Note_on_c, 1, 52, 52
3, 124080, Note_on_c, 1, 44, 52
3, 124112, Note_on_c, 1, 44, 0
3, 124112, Note_on_c, 1, 61, 0
3, 124112, Note_on_c, 1, 56, 0
3, 124112, Note_on_c, 1, 52, 0
3, 124128, Note_on_c, 1, 61, 52
3, 124128, Note_on_c, 1, 56, 52
3, 124128, Note_on_c, 1, 52, 52
3, 124128, Note_on_c, 1, 44, 52
3, 124160, Note_on_c, 1, 44, 0
3, 124160, Note_on_c, 1, 61, 0
3, 124160, Note_on_c, 1, 56, 0
3, 124160, Note_on_c, 1, 52, 0
3, 124176, Note_on_c, 1, 61, 52
3, 124176, Note_on_c, 1, 56, 52
3, 124176, Note_on_c, 1, 52, 52
3, 124176, Note_on_c, 1, 44, 52
3, 124208, Note_on_c, 1, 44, 0
3, 124208, Note_on_c, 1, 61, 0
3, 124208, Note_on_c, 1, 56, 0
3, 124208, Note_on_c, 1, 52, 0
3, 124224, Note_on_c, 1, 61, 52
3, 124224, Note_on_c, 1, 56, 52
3, 124224, Note_on_c, 1, 52, 52
3, 124224, Note_on_c, 1, 44, 52
3, 124256, Note_on_c, 1, 44, 0
3, 124256, Note_on_c, 1, 61, 0
3, 124256, Note_on_c, 1, 56, 0
3, 124256, Note_on_c, 1, 52, 0
3, 124272, Note_on_c, 1, 61, 52
3, 124272, Note_on_c, 1, 56, 52
3, 124272, Note_on_c, 1, 52, 52
3, 124272, Note_on_c, 1, 44, 52
3, 124304, Note_on_c, 1, 44, 0
3, 124304, Note_on_c, 1, 61, 0
3, 124304, Note_on_c, 1, 56, 0
3, 124304, Note_on_c, 1, 52, 0
3, 124320, Note_on_c, 1, 61, 53
3, 124320, Note_on_c, 1, 56, 53
3, 124320, Note_on_c, 1, 52, 53
3, 124320, Note_on_c, 1, 44, 53
3, 124352, Note_on_c, 1, 44, 0
3, 124352, Note_on_c, 1, 61, 0
3, 124352, Note_on_c, 1, 56, 0
3, 124352, Note_on_c, 1, 52, 0
3, 124368, Note_on_c, 1, 61, 53
3, 124368, Note_on_c, 1, 56, 53
3, 124368, Note_on_c, 1, 52, 53
3, 124368, Note_on_c, 1, 44, 53
3, 124400, Note_on_c, 1, 44, 0
3, 124400, Note_on_c, 1, 61, 0
3, 124400, Note_on_c, 1, 56, 0
3, 124400, Note_on_c, 1, 52, 0
3, 124416, Note_on_c, 1, 61, 53
3, 124416, Note_on_c, 1, 56, 53
3, 124416, Note_on_c, 1, 52, 53
3, 124416, Note_on_c, 1, 44, 53
3, 124448, Note_on_c, 1, 44, 0
3, 124448, Note_on_c, 1, 61, 0
3, 124448, Note_on_c, 1, 56, 0
3, 124448, Note_on_c, 1, 52, 0
3, 124464, Note_on_c, 1, 61, 53
3, 124464, Note_on_c, 1, 56, 53
3, 124464, Note_on_c, 1, 52, 53
3, 124464, Note_on_c, 1, 44, 53
3, 124496, Note_on_c, 1, 44, 0
3, 124496, Note_on_c, 1, 61, 0
3, 124496, Note_on_c, 1, 56, 0
3, 124496, Note_on_c, 1, 52, 0
3, 124512, Note_on_c, 1, 61, 53
3, 124512, Note_on_c, 1, 56, 53
3, 124512, Note_on_c, 1, 52, 53
3, 124512, Note_on_c, 1, 44, 53
3, 124544, Note_on_c, 1, 44, 0
3, 124544, Note_on_c, 1, 61, 0
3, 124544, Note_on_c, 1, 56, 0
3, 124544, Note_on_c, 1, 52, 0
3, 124560, Note_on_c, 1, 61, 54
3, 124560, Note_on_c, 1, 56, 54
3, 124560, Note_on_c, 1, 52, 54
3, 124560, Note_on_c, 1, 44, 54
3, 124592, Note_on_c, 1, 44, 0
3, 124592, Note_on_c, 1, 61, 0
3, 124592, Note_on_c, 1, 56, 0
3, 124592, Note_on_c, 1, 52, 0
3, 124608, Note_on_c, 1, 61, 54
3, 124608, Note_on_c, 1, 56, 54
3, 124608, Note_on_c, 1, 52, 54
3, 124608, Note_on_c, 1, 44, 54
3, 124640, Note_on_c, 1, 44, 0
3, 124640, Note_on_c, 1, 61, 0
3, 124640, Note_on_c, 1, 56, 0
3, 124640, Note_on_c, 1, 52, 0
3, 124656, Note_on_c, 1, 61, 54
3, 124656, Note_on_c, 1, 56, 54
3, 124656, Note_on_c, 1, 52, 54
3, 124656, Note_on_c, 1, 44, 54
3, 124688, Note_on_c, 1, 44, 0
3, 124688, Note_on_c, 1, 61, 0
3, 124688, Note_on_c, 1, 56, 0
3, 124688, Note_on_c, 1, 52, 0
3, 124704, Note_on_c, 1, 61, 54
3, 124704, Note_on_c, 1, 56, 54
3, 124704, Note_on_c, 1, 52, 54
3, 124704, Note_on_c, 1, 44, 54
3, 124736, Note_on_c, 1, 44, 0
3, 124736, Note_on_c, 1, 61, 0
3, 124736, Note_on_c, 1, 56, 0
3, 124736, Note_on_c, 1, 52, 0
3, 124752, Note_on_c, 1, 61, 54
3, 124752, Note_on_c, 1, 56, 54
3, 124752, Note_on_c, 1, 52, 54
3, 124752, Note_on_c, 1, 44, 54
3, 124784, Note_on_c, 1, 44, 0
3, 124784, Note_on_c, 1, 61, 0
3, 124784, Note_on_c, 1, 56, 0
3, 124784, Note_on_c, 1, 52, 0
3, 124800, Note_on_c, 1, 61, 55
3, 124800, Note_on_c, 1, 56, 55
3, 124800, Note_on_c, 1, 52, 55
3, 124800, Note_on_c, 1, 44, 55
3, 124832, Note_on_c, 1, 44, 0
3, 124832, Note_on_c, 1, 61, 0
3, 124832, Note_on_c, 1, 56, 0
3, 124832, Note_on_c, 1, 52, 0
3, 124848, Note_on_c, 1, 61, 55
3, 124848, Note_on_c, 1, 56, 55
3, 124848, Note_on_c, 1, 52, 55
3, 124848, Note_on_c, 1, 44, 55
3, 124880, Note_on_c, 1, 44, 0
3, 124880, Note_on_c, 1, 61, 0
3, 124880, Note_on_c, 1, 56, 0
3, 124880, Note_on_c, 1, 52, 0
3, 124896, Note_on_c, 1, 61, 55
3, 124896, Note_on_c, 1, 56, 55
3, 124896, Note_on_c, 1, 52, 55
3, 124896, Note_on_c, 1, 44, 55
3, 124928, Note_on_c, 1, 44, 0
3, 124928, Note_on_c, 1, 61, 0
3, 124928, Note_on_c, 1, 56, 0
3, 124928, Note_on_c, 1, 52, 0
3, 124944, Note_on_c, 1, 61, 55
3, 124944, Note_on_c, 1, 56, 55
3, 124944, Note_on_c, 1, 52, 55
3, 124944, Note_on_c, 1, 44, 55
3, 124976, Note_on_c, 1, 44, 0
3, 124976, Note_on_c, 1, 61, 0
3, 124976, Note_on_c, 1, 56, 0
3, 124976, Note_on_c, 1, 52, 0
3, 124992, Note_on_c, 1, 61, 55
3, 124992, Note_on_c, 1, 56, 55
3, 124992, Note_on_c, 1, 52, 55
3, 124992, Note_on_c, 1, 44, 55
3, 125024, Note_on_c, 1, 44, 0
3, 125024, Note_on_c, 1, 61, 0
3, 125024, Note_on_c, 1, 56, 0
3, 125024, Note_on_c, 1, 52, 0
3, 125040, Note_on_c, 1, 61, 56
3, 125040, Note_on_c, 1, 56, 56
3, 125040, Note_on_c, 1, 52, 56
3, 125040, Note_on_c, 1, 44, 56
3, 125072, Note_on_c, 1, 44, 0
3, 125072, Note_on_c, 1, 61, 0
3, 125072, Note_on_c, 1, 56, 0
3, 125072, Note_on_c, 1, 52, 0
3, 125088, Note_on_c, 1, 61, 56
3, 125088, Note_on_c, 1, 56, 56
3, 125088, Note_on_c, 1, 52, 56
3, 125088, Note_on_c, 1, 44, 56
3, 125120, Note_on_c, 1, 44, 0
3, 125120, Note_on_c, 1, 61, 0
3, 125120, Note_on_c, 1, 56, 0
3, 125120, Note_on_c, 1, 52, 0
3, 125136, Note_on_c, 1, 61, 56
3, 125136, Note_on_c, 1, 56, 56
3, 125136, Note_on_c, 1, 52, 56
3, 125136, Note_on_c, 1, 44, 56
3, 125168, Note_on_c, 1, 44, 0
3, 125168, Note_on_c, 1, 61, 0
3, 125168, Note_on_c, 1, 56, 0
3, 125168, Note_on_c, 1, 52, 0
3, 125184, Note_on_c, 1, 61, 56
3, 125184, Note_on_c, 1, 56, 56
3, 125184, Note_on_c, 1, 52, 56
3, 125184, Note_on_c, 1, 44, 56
3, 125216, Note_on_c, 1, 44, 0
3, 125216, Note_on_c, 1, 61, 0
3, 125216, Note_on_c, 1, 56, 0
3, 125216, Note_on_c, 1, 52, 0
3, 125232, Note_on_c, 1, 61, 56
3, 125232, Note_on_c, 1, 56, 56
3, 125232, Note_on_c, 1, 52, 56
3, 125232, Note_on_c, 1, 44, 56
3, 125264, Note_on_c, 1, 44, 0
3, 125264, Note_on_c, 1, 61, 0
3, 125264, Note_on_c, 1, 56, 0
3, 125264, Note_on_c, 1, 52, 0
3, 125280, Note_on_c, 1, 61, 57
3, 125280, Note_on_c, 1, 56, 57
3, 125280, Note_on_c, 1, 52, 57
3, 125280, Note_on_c, 1, 44, 57
3, 125312, Note_on_c, 1, 44, 0
3, 125312, Note_on_c, 1, 61, 0
3, 125312, Note_on_c, 1, 56, 0
3, 125312, Note_on_c, 1, 52, 0
3, 125328, Note_on_c, 1, 61, 57
3, 125328, Note_on_c, 1, 56, 57
3, 125328, Note_on_c, 1, 52, 57
3, 125328, Note_on_c, 1, 44, 57
3, 125360, Note_on_c, 1, 44, 0
3, 125360, Note_on_c, 1, 61, 0
3, 125360, Note_on_c, 1, 56, 0
3, 125360, Note_on_c, 1, 52, 0
3, 125376, Note_on_c, 1, 61, 57
3, 125376, Note_on_c, 1, 56, 57
3, 125376, Note_on_c, 1, 52, 57
3, 125376, Note_on_c, 1, 44, 57
3, 125408, Note_on_c, 1, 44, 0
3, 125408, Note_on_c, 1, 61, 0
3, 125408, Note_on_c, 1, 56, 0
3, 125408, Note_on_c, 1, 52, 0
3, 125424, Note_on_c, 1, 61, 57
3, 125424, Note_on_c, 1, 56, 57
3, 125424, Note_on_c, 1, 52, 57
3, 125424, Note_on_c, 1, 44, 57
3, 125456, Note_on_c, 1, 44, 0
3, 125456, Note_on_c, 1, 61, 0
3, 125456, Note_on_c, 1, 56, 0
3, 125456, Note_on_c, 1, 52, 0
3, 125472, Note_on_c, 1, 61, 57
3, 125472, Note_on_c, 1, 56, 57
3, 125472, Note_on_c, 1, 52, 57
3, 125472, Note_on_c, 1, 44, 57
3, 125504, Note_on_c, 1, 44, 0
3, 125504, Note_on_c, 1, 61, 0
3, 125504, Note_on_c, 1, 56, 0
3, 125504, Note_on_c, 1, 52, 0
3, 125520, Note_on_c, 1, 61, 58
3, 125520, Note_on_c, 1, 56, 58
3, 125520, Note_on_c, 1, 52, 58
3, 125520, Note_on_c, 1, 44, 58
3, 125552, Note_on_c, 1, 44, 0
3, 125552, Note_on_c, 1, 61, 0
3, 125552, Note_on_c, 1, 56, 0
3, 125552, Note_on_c, 1, 52, 0
3, 125568, Note_on_c, 1, 61, 58
3, 125568, Note_on_c, 1, 56, 58
3, 125568, Note_on_c, 1, 52, 58
3, 125568, Note_on_c, 1, 44, 58
3, 125600, Note_on_c, 1, 44, 0
3, 125600, Note_on_c, 1, 61, 0
3, 125600, Note_on_c, 1, 56, 0
3, 125600, Note_on_c, 1, 52, 0
3, 125616, Note_on_c, 1, 61, 58
3, 125616, Note_on_c, 1, 56, 58
3, 125616, Note_on_c, 1, 52, 58
3, 125616, Note_on_c, 1, 44, 58
3, 125648, Note_on_c, 1, 44, 0
3, 125648, Note_on_c, 1, 61, 0
3, 125648, Note_on_c, 1, 56, 0
3, 125648, Note_on_c, 1, 52, 0
3, 125664, Note_on_c, 1, 61, 58
3, 125664, Note_on_c, 1, 56, 58
3, 125664, Note_on_c, 1, 52, 58
3, 125664, Note_on_c, 1, 44, 58
3, 125696, Note_on_c, 1, 44, 0
3, 125696, Note_on_c, 1, 61, 0
3, 125696, Note_on_c, 1, 56, 0
3, 125696, Note_on_c, 1, 52, 0
3, 125712, Note_on_c, 1, 61, 58
3, 125712, Note_on_c, 1, 56, 58
3, 125712, Note_on_c, 1, 52, 58
3, 125712, Note_on_c, 1, 44, 58
3, 125744, Note_on_c, 1, 44, 0
3, 125744, Note_on_c, 1, 61, 0
3, 125744, Note_on_c, 1, 56, 0
3, 125744, Note_on_c, 1, 52, 0
3, 125760, Note_on_c, 1, 61, 58
3, 125760, Note_on_c, 1, 56, 58
3, 125760, Note_on_c, 1, 52, 58
3, 125760, Note_on_c, 1, 44, 58
3, 125792, Note_on_c, 1, 44, 0
3, 125792, Note_on_c, 1, 61, 0
3, 125792, Note_on_c, 1, 56, 0
3, 125792, Note_on_c, 1, 52, 0
3, 125808, Note_on_c, 1, 61, 59
3, 125808, Note_on_c, 1, 56, 59
3, 125808, Note_on_c, 1, 52, 59
3, 125808, Note_on_c, 1, 44, 59
3, 125840, Note_on_c, 1, 44, 0
3, 125840, Note_on_c, 1, 61, 0
3, 125840, Note_on_c, 1, 56, 0
3, 125840, Note_on_c, 1, 52, 0
3, 125856, Note_on_c, 1, 61, 59
3, 125856, Note_on_c, 1, 56, 59
3, 125856, Note_on_c, 1, 52, 59
3, 125856, Note_on_c, 1, 44, 59
3, 125888, Note_on_c, 1, 44, 0
3, 125888, Note_on_c, 1, 61, 0
3, 125888, Note_on_c, 1, 56, 0
3, 125888, Note_on_c, 1, 52, 0
3, 125904, Note_on_c, 1, 61, 59
3, 125904, Note_on_c, 1, 56, 59
3, 125904, Note_on_c, 1, 52, 59
3, 125904, Note_on_c, 1, 44, 59
3, 125936, Note_on_c, 1, 44, 0
3, 125936, Note_on_c, 1, 61, 0
3, 125936, Note_on_c, 1, 56, 0
3, 125936, Note_on_c, 1, 52, 0
3, 125952, Note_on_c, 1, 61, 59
3, 125952, Note_on_c, 1, 56, 59
3, 125952, Note_on_c, 1, 52, 59
3, 125952, Note_on_c, 1, 44, 59
3, 125984, Note_on_c, 1, 44, 0
3, 125984, Note_on_c, 1, 61, 0
3, 125984, Note_on_c, 1, 56, 0
3, 125984, Note_on_c, 1, 52, 0
3, 126000, Note_on_c, 1, 61, 59
3, 126000, Note_on_c, 1, 56, 59
3, 126000, Note_on_c, 1, 52, 59
3, 126000, Note_on_c, 1, 44, 59
3, 126032, Note_on_c, 1, 44, 0
3, 126032, Note_on_c, 1, 61, 0
3, 126032, Note_on_c, 1, 56, 0
3, 126032, Note_on_c, 1, 52, 0
3, 126048, Note_on_c, 1, 61, 60
3, 126048, Note_on_c, 1, 56, 60
3, 126048, Note_on_c, 1, 52, 60
3, 126048, Note_on_c, 1, 44, 60
3, 126080, Note_on_c, 1, 44, 0
3, 126080, Note_on_c, 1, 61, 0
3, 126080, Note_on_c, 1, 56, 0
3, 126080, Note_on_c, 1, 52, 0
3, 126096, Note_on_c, 1, 61, 60
3, 126096, Note_on_c, 1, 56, 60
3, 126096, Note_on_c, 1, 52, 60
3, 126096, Note_on_c, 1, 44, 60
3, 126128, Note_on_c, 1, 44, 0
3, 126128, Note_on_c, 1, 61, 0
3, 126128, Note_on_c, 1, 56, 0
3, 126128, Note_on_c, 1, 52, 0
3, 126144, Note_on_c, 1, 61, 60
3, 126144, Note_on_c, 1, 56, 60
3, 126144, Note_on_c, 1, 52, 60
3, 126144, Note_on_c, 1, 44, 60
3, 126176, Note_on_c, 1, 44, 0
3, 126176, Note_on_c, 1, 61, 0
3, 126176, Note_on_c, 1, 56, 0
3, 126176, Note_on_c, 1, 52, 0
3, 126192, Note_on_c, 1, 61, 60
3, 126192, Note_on_c, 1, 56, 60
3, 126192, Note_on_c, 1, 52, 60
3, 126192, Note_on_c, 1, 44, 60
3, 126224, Note_on_c, 1, 44, 0
3, 126224, Note_on_c, 1, 61, 0
3, 126224, Note_on_c, 1, 56, 0
3, 126224, Note_on_c, 1, 52, 0
3, 126240, Note_on_c, 1, 61, 60
3, 126240, Note_on_c, 1, 56, 60
3, 126240, Note_on_c, 1, 52, 60
3, 126240, Note_on_c, 1, 44, 60
3, 126272, Note_on_c, 1, 44, 0
3, 126272, Note_on_c, 1, 61, 0
3, 126272, Note_on_c, 1, 56, 0
3, 126272, Note_on_c, 1, 52, 0
3, 126288, Note_on_c, 1, 61, 60
3, 126288, Note_on_c, 1, 56, 60
3, 126288, Note_on_c, 1, 52, 60
3, 126288, Note_on_c, 1, 44, 60
3, 126320, Note_on_c, 1, 44, 0
3, 126320, Note_on_c, 1, 61, 0
3, 126320, Note_on_c, 1, 56, 0
3, 126320, Note_on_c, 1, 52, 0
3, 126336, Note_on_c, 1, 61, 60
3, 126336, Note_on_c, 1, 56, 60
3, 126336, Note_on_c, 1, 52, 60
3, 126336, Note_on_c, 1, 44, 60
3, 126368, Note_on_c, 1, 44, 0
3, 126368, Note_on_c, 1, 61, 0
3, 126368, Note_on_c, 1, 56, 0
3, 126368, Note_on_c, 1, 52, 0
3, 126384, Note_on_c, 1, 61, 60
3, 126384, Note_on_c, 1, 56, 60
3, 126384, Note_on_c, 1, 52, 60
3, 126384, Note_on_c, 1, 44, 60
3, 126416, Note_on_c, 1, 44, 0
3, 126416, Note_on_c, 1, 61, 0
3, 126416, Note_on_c, 1, 56, 0
3, 126416, Note_on_c, 1, 52, 0
3, 126432, Note_on_c, 1, 61, 60
3, 126432, Note_on_c, 1, 56, 60
3, 126432, Note_on_c, 1, 52, 60
3, 126432, Note_on_c, 1, 44, 60
3, 126464, Note_on_c, 1, 44, 0
3, 126464, Note_on_c, 1, 61, 0
3, 126464, Note_on_c, 1, 56, 0
3, 126464, Note_on_c, 1, 52, 0
3, 126480, Note_on_c, 1, 61, 60
3, 126480, Note_on_c, 1, 56, 60
3, 126480, Note_on_c, 1, 52, 60
3, 126480, Note_on_c, 1, 44, 60
3, 126512, Note_on_c, 1, 44, 0
3, 126512, Note_on_c, 1, 61, 0
3, 126512, Note_on_c, 1, 56, 0
3, 126512, Note_on_c, 1, 52, 0
3, 126528, Note_on_c, 1, 61, 60
3, 126528, Note_on_c, 1, 56, 60
3, 126528, Note_on_c, 1, 52, 60
3, 126528, Note_on_c, 1, 44, 60
3, 126560, Note_on_c, 1, 44, 0
3, 126560, Note_on_c, 1, 61, 0
3, 126560, Note_on_c, 1, 56, 0
3, 126560, Note_on_c, 1, 52, 0
3, 126576, Note_on_c, 1, 61, 60
3, 126576, Note_on_c, 1, 56, 60
3, 126576, Note_on_c, 1, 52, 60
3, 126576, Note_on_c, 1, 44, 60
3, 126608, Note_on_c, 1, 44, 0
3, 126608, Note_on_c, 1, 61, 0
3, 126608, Note_on_c, 1, 56, 0
3, 126608, Note_on_c, 1, 52, 0
3, 126624, Note_on_c, 1, 61, 60
3, 126624, Note_on_c, 1, 56, 60
3, 126624, Note_on_c, 1, 52, 60
3, 126624, Note_on_c, 1, 44, 60
3, 126656, Note_on_c, 1, 44, 0
3, 126656, Note_on_c, 1, 61, 0
3, 126656, Note_on_c, 1, 56, 0
3, 126656, Note_on_c, 1, 52, 0
3, 126672, Note_on_c, 1, 61, 60
3, 126672, Note_on_c, 1, 56, 60
3, 126672, Note_on_c, 1, 52, 60
3, 126672, Note_on_c, 1, 44, 60
3, 126704, Note_on_c, 1, 44, 0
3, 126704, Note_on_c, 1, 61, 0
3, 126704, Note_on_c, 1, 56, 0
3, 126704, Note_on_c, 1, 52, 0
3, 126720, Note_on_c, 1, 61, 60
3, 126720, Note_on_c, 1, 56, 60
3, 126752, Note_on_c, 1, 56, 0
3, 126752, Note_on_c, 1, 61, 0
3, 126776, Note_on_c, 1, 61, 60
3, 126776, Note_on_c, 1, 58, 60
3, 126776, Note_on_c, 1, 52, 60
3, 126776, Note_on_c, 1, 43, 60
3, 126808, Note_on_c, 1, 43, 0
3, 126808, Note_on_c, 1, 61, 0
3, 126808, Note_on_c, 1, 58, 0
3, 126808, Note_on_c, 1, 52, 0
3, 126824, Note_on_c, 1, 61, 60
3, 126824, Note_on_c, 1, 58, 60
3, 126824, Note_on_c, 1, 52, 60
3, 126824, Note_on_c, 1, 43, 60
3, 126856, Note_on_c, 1, 43, 0
3, 126856, Note_on_c, 1, 61, 0
3, 126856, Note_on_c, 1, 58, 0
3, 126856, Note_on_c, 1, 52, 0
3, 126872, Note_on_c, 1, 61, 60
3, 126872, Note_on_c, 1, 58, 60
3, 126872, Note_on_c, 1, 52, 60
3, 126872, Note_on_c, 1, 43, 60
3, 126904, Note_on_c, 1, 43, 0
3, 126904, Note_on_c, 1, 61, 0
3, 126904, Note_on_c, 1, 58, 0
3, 126904, Note_on_c, 1, 52, 0
3, 126920, Note_on_c, 1, 61, 60
3, 126920, Note_on_c, 1, 58, 60
3, 126920, Note_on_c, 1, 52, 60
3, 126920, Note_on_c, 1, 43, 60
3, 126952, Note_on_c, 1, 43, 0
3, 126952, Note_on_c, 1, 61, 0
3, 126952, Note_on_c, 1, 58, 0
3, 126952, Note_on_c, 1, 52, 0
3, 126968, Note_on_c, 1, 61, 60
3, 126968, Note_on_c, 1, 58, 60
3, 126968, Note_on_c, 1, 52, 60
3, 126968, Note_on_c, 1, 43, 60
3, 127000, Note_on_c, 1, 43, 0
3, 127000, Note_on_c, 1, 61, 0
3, 127000, Note_on_c, 1, 58, 0
3, 127000, Note_on_c, 1, 52, 0
3, 127016, Note_on_c, 1, 61, 60
3, 127016, Note_on_c, 1, 58, 60
3, 127016, Note_on_c, 1, 52, 60
3, 127016, Note_on_c, 1, 43, 60
3, 127048, Note_on_c, 1, 43, 0
3, 127048, Note_on_c, 1, 61, 0
3, 127048, Note_on_c, 1, 58, 0
3, 127048, Note_on_c, 1, 52, 0
3, 127064, Note_on_c, 1, 61, 60
3, 127064, Note_on_c, 1, 58, 60
3, 127064, Note_on_c, 1, 52, 60
3, 127064, Note_on_c, 1, 43, 60
3, 127096, Note_on_c, 1, 43, 0
3, 127096, Note_on_c, 1, 61, 0
3, 127096, Note_on_c, 1, 58, 0
3, 127096, Note_on_c, 1, 52, 0
3, 127112, Note_on_c, 1, 61, 60
3, 127112, Note_on_c, 1, 58, 60
3, 127112, Note_on_c, 1, 52, 60
3, 127112, Note_on_c, 1, 43, 60
3, 127144, Note_on_c, 1, 43, 0
3, 127144, Note_on_c, 1, 61, 0
3, 127144, Note_on_c, 1, 58, 0
3, 127144, Note_on_c, 1, 52, 0
3, 127160, Note_on_c, 1, 61, 60
3, 127160, Note_on_c, 1, 58, 60
3, 127160, Note_on_c, 1, 52, 60
3, 127160, Note_on_c, 1, 43, 60
3, 127192, Note_on_c, 1, 43, 0
3, 127192, Note_on_c, 1, 61, 0
3, 127192, Note_on_c, 1, 58, 0
3, 127192, Note_on_c, 1, 52, 0
3, 127208, Note_on_c, 1, 61, 60
3, 127208, Note_on_c, 1, 58, 60
3, 127208, Note_on_c, 1, 52, 60
3, 127208, Note_on_c, 1, 43, 60
3, 127240, Note_on_c, 1, 43, 0
3, 127240, Note_on_c, 1, 61, 0
3, 127240, Note_on_c, 1, 58, 0
3, 127240, Note_on_c, 1, 52, 0
3, 127256, Note_on_c, 1, 61, 60
3, 127256, Note_on_c, 1, 58, 60
3, 127256, Note_on_c, 1, 52, 60
3, 127256, Note_on_c, 1, 43, 60
3, 127288, Note_on_c, 1, 43, 0
3, 127288, Note_on_c, 1, 61, 0
3, 127288, Note_on_c, 1, 58, 0
3, 127288, Note_on_c, 1, 52, 0
3, 127304, Note_on_c, 1, 61, 60
3, 127304, Note_on_c, 1, 58, 60
3, 127304, Note_on_c, 1, 52, 60
3, 127304, Note_on_c, 1, 43, 60
3, 127336, Note_on_c, 1, 43, 0
3, 127336, Note_on_c, 1, 61, 0
3, 127336, Note_on_c, 1, 58, 0
3, 127336, Note_on_c, 1, 52, 0
3, 127352, Note_on_c, 1, 61, 60
3, 127352, Note_on_c, 1, 58, 60
3, 127352, Note_on_c, 1, 52, 60
3, 127352, Note_on_c, 1, 43, 60
3, 127384, Note_on_c, 1, 43, 0
3, 127384, Note_on_c, 1, 61, 0
3, 127384, Note_on_c, 1, 58, 0
3, 127384, Note_on_c, 1, 52, 0
3, 127400, Note_on_c, 1, 61, 60
3, 127400, Note_on_c, 1, 58, 60
3, 127400, Note_on_c, 1, 52, 60
3, 127400, Note_on_c, 1, 43, 60
3, 127432, Note_on_c, 1, 43, 0
3, 127432, Note_on_c, 1, 61, 0
3, 127432, Note_on_c, 1, 58, 0
3, 127432, Note_on_c, 1, 52, 0
3, 127448, Note_on_c, 1, 61, 60
3, 127448, Note_on_c, 1, 58, 60
3, 127448, Note_on_c, 1, 52, 60
3, 127448, Note_on_c, 1, 43, 60
3, 127480, Note_on_c, 1, 43, 0
3, 127480, Note_on_c, 1, 61, 0
3, 127480, Note_on_c, 1, 58, 0
3, 127480, Note_on_c, 1, 52, 0
3, 127496, Note_on_c, 1, 61, 60
3, 127496, Note_on_c, 1, 58, 60
3, 127496, Note_on_c, 1, 52, 60
3, 127496, Note_on_c, 1, 43, 60
3, 127528, Note_on_c, 1, 43, 0
3, 127528, Note_on_c, 1, 61, 0
3, 127528, Note_on_c, 1, 58, 0
3, 127528, Note_on_c, 1, 52, 0
3, 127544, Note_on_c, 1, 61, 60
3, 127544, Note_on_c, 1, 58, 60
3, 127544, Note_on_c, 1, 52, 60
3, 127544, Note_on_c, 1, 43, 60
3, 127576, Note_on_c, 1, 43, 0
3, 127576, Note_on_c, 1, 61, 0
3, 127576, Note_on_c, 1, 58, 0
3, 127576, Note_on_c, 1, 52, 0
3, 127592, Note_on_c, 1, 61, 60
3, 127592, Note_on_c, 1, 58, 60
3, 127592, Note_on_c, 1, 52, 60
3, 127592, Note_on_c, 1, 43, 60
3, 127624, Note_on_c, 1, 43, 0
3, 127624, Note_on_c, 1, 61, 0
3, 127624, Note_on_c, 1, 58, 0
3, 127624, Note_on_c, 1, 52, 0
3, 127640, Note_on_c, 1, 61, 60
3, 127640, Note_on_c, 1, 58, 60
3, 127640, Note_on_c, 1, 52, 60
3, 127640, Note_on_c, 1, 43, 60
3, 127672, Note_on_c, 1, 43, 0
3, 127672, Note_on_c, 1, 61, 0
3, 127672, Note_on_c, 1, 58, 0
3, 127672, Note_on_c, 1, 52, 0
3, 127688, Note_on_c, 1, 61, 60
3, 127688, Note_on_c, 1, 58, 60
3, 127688, Note_on_c, 1, 52, 60
3, 127688, Note_on_c, 1, 43, 60
3, 127720, Note_on_c, 1, 43, 0
3, 127720, Note_on_c, 1, 61, 0
3, 127720, Note_on_c, 1, 58, 0
3, 127720, Note_on_c, 1, 52, 0
3, 127736, Note_on_c, 1, 61, 60
3, 127736, Note_on_c, 1, 58, 60
3, 127736, Note_on_c, 1, 52, 60
3, 127736, Note_on_c, 1, 43, 60
3, 127768, Note_on_c, 1, 43, 0
3, 127768, Note_on_c, 1, 61, 0
3, 127768, Note_on_c, 1, 58, 0
3, 127768, Note_on_c, 1, 52, 0
3, 127784, Note_on_c, 1, 61, 60
3, 127784, Note_on_c, 1, 58, 60
3, 127784, Note_on_c, 1, 52, 60
3, 127784, Note_on_c, 1, 43, 60
3, 127816, Note_on_c, 1, 43, 0
3, 127816, Note_on_c, 1, 61, 0
3, 127816, Note_on_c, 1, 58, 0
3, 127816, Note_on_c, 1, 52, 0
3, 127832, Note_on_c, 1, 61, 60
3, 127832, Note_on_c, 1, 58, 60
3, 127832, Note_on_c, 1, 52, 60
3, 127832, Note_on_c, 1, 43, 60
3, 127864, Note_on_c, 1, 43, 0
3, 127864, Note_on_c, 1, 61, 0
3, 127864, Note_on_c, 1, 58, 0
3, 127864, Note_on_c, 1, 52, 0
3, 127880, Note_on_c, 1, 61, 60
3, 127880, Note_on_c, 1, 58, 60
3, 127880, Note_on_c, 1, 52, 60
3, 127880, Note_on_c, 1, 43, 60
3, 127912, Note_on_c, 1, 43, 0
3, 127912, Note_on_c, 1, 61, 0
3, 127912, Note_on_c, 1, 58, 0
3, 127912, Note_on_c, 1, 52, 0
3, 127928, Note_on_c, 1, 61, 60
3, 127928, Note_on_c, 1, 58, 60
3, 127928, Note_on_c, 1, 52, 60
3, 127928, Note_on_c, 1, 43, 60
3, 127960, Note_on_c, 1, 43, 0
3, 127960, Note_on_c, 1, 61, 0
3, 127960, Note_on_c, 1, 58, 0
3, 127960, Note_on_c, 1, 52, 0
3, 127976, Note_on_c, 1, 61, 60
3, 127976, Note_on_c, 1, 58, 60
3, 127976, Note_on_c, 1, 52, 60
3, 127976, Note_on_c, 1, 43, 60
3, 128008, Note_on_c, 1, 43, 0
3, 128008, Note_on_c, 1, 61, 0
3, 128008, Note_on_c, 1, 58, 0
3, 128008, Note_on_c, 1, 52, 0
3, 128024, Note_on_c, 1, 61, 60
3, 128024, Note_on_c, 1, 58, 60
3, 128024, Note_on_c, 1, 52, 60
3, 128024, Note_on_c, 1, 43, 60
3, 128056, Note_on_c, 1, 43, 0
3, 128056, Note_on_c, 1, 61, 0
3, 128056, Note_on_c, 1, 58, 0
3, 128056, Note_on_c, 1, 52, 0
3, 128072, Note_on_c, 1, 61, 60
3, 128072, Note_on_c, 1, 58, 60
3, 128072, Note_on_c, 1, 52, 60
3, 128072, Note_on_c, 1, 43, 60
3, 128104, Note_on_c, 1, 43, 0
3, 128104, Note_on_c, 1, 61, 0
3, 128104, Note_on_c, 1, 58, 0
3, 128104, Note_on_c, 1, 52, 0
3, 128120, Note_on_c, 1, 61, 60
3, 128120, Note_on_c, 1, 58, 60
3, 128120, Note_on_c, 1, 52, 60
3, 128120, Note_on_c, 1, 43, 60
3, 128152, Note_on_c, 1, 43, 0
3, 128152, Note_on_c, 1, 61, 0
3, 128152, Note_on_c, 1, 58, 0
3, 128152, Note_on_c, 1, 52, 0
3, 128168, Note_on_c, 1, 61, 60
3, 128168, Note_on_c, 1, 58, 60
3, 128168, Note_on_c, 1, 52, 60
3, 128168, Note_on_c, 1, 43, 60
3, 128200, Note_on_c, 1, 43, 0
3, 128200, Note_on_c, 1, 61, 0
3, 128200, Note_on_c, 1, 58, 0
3, 128200, Note_on_c, 1, 52, 0
3, 128216, Note_on_c, 1, 61, 60
3, 128216, Note_on_c, 1, 58, 60
3, 128216, Note_on_c, 1, 52, 60
3, 128216, Note_on_c, 1, 43, 60
3, 128248, Note_on_c, 1, 43, 0
3, 128248, Note_on_c, 1, 61, 0
3, 128248, Note_on_c, 1, 58, 0
3, 128248, Note_on_c, 1, 52, 0
3, 128264, Note_on_c, 1, 61, 60
3, 128264, Note_on_c, 1, 58, 60
3, 128264, Note_on_c, 1, 52, 60
3, 128264, Note_on_c, 1, 43, 60
3, 128296, Note_on_c, 1, 43, 0
3, 128296, Note_on_c, 1, 61, 0
3, 128296, Note_on_c, 1, 58, 0
3, 128296, Note_on_c, 1, 52, 0
3, 128312, Note_on_c, 1, 61, 60
3, 128312, Note_on_c, 1, 58, 60
3, 128312, Note_on_c, 1, 52, 60
3, 128312, Note_on_c, 1, 43, 60
3, 128344, Note_on_c, 1, 43, 0
3, 128344, Note_on_c, 1, 61, 0
3, 128344, Note_on_c, 1, 58, 0
3, 128344, Note_on_c, 1, 52, 0
3, 128360, Note_on_c, 1, 61, 60
3, 128360, Note_on_c, 1, 58, 60
3, 128360, Note_on_c, 1, 52, 60
3, 128360, Note_on_c, 1, 43, 60
3, 128392, Note_on_c, 1, 43, 0
3, 128392, Note_on_c, 1, 61, 0
3, 128392, Note_on_c, 1, 58, 0
3, 128392, Note_on_c, 1, 52, 0
3, 128408, Note_on_c, 1, 61, 60
3, 128408, Note_on_c, 1, 58, 60
3, 128408, Note_on_c, 1, 52, 60
3, 128408, Note_on_c, 1, 43, 60
3, 128440, Note_on_c, 1, 43, 0
3, 128440, Note_on_c, 1, 61, 0
3, 128440, Note_on_c, 1, 58, 0
3, 128440, Note_on_c, 1, 52, 0
3, 128456, Note_on_c, 1, 61, 60
3, 128456, Note_on_c, 1, 58, 60
3, 128456, Note_on_c, 1, 52, 60
3, 128456, Note_on_c, 1, 43, 60
3, 128488, Note_on_c, 1, 43, 0
3, 128488, Note_on_c, 1, 61, 0
3, 128488, Note_on_c, 1, 58, 0
3, 128488, Note_on_c, 1, 52, 0
3, 128504, Note_on_c, 1, 61, 60
3, 128504, Note_on_c, 1, 58, 60
3, 128504, Note_on_c, 1, 52, 60
3, 128504, Note_on_c, 1, 43, 60
3, 128536, Note_on_c, 1, 43, 0
3, 128536, Note_on_c, 1, 61, 0
3, 128536, Note_on_c, 1, 58, 0
3, 128536, Note_on_c, 1, 52, 0
3, 128552, Note_on_c, 1, 61, 60
3, 128552, Note_on_c, 1, 58, 60
3, 128552, Note_on_c, 1, 52, 60
3, 128552, Note_on_c, 1, 43, 60
3, 128584, Note_on_c, 1, 43, 0
3, 128584, Note_on_c, 1, 61, 0
3, 128584, Note_on_c, 1, 58, 0
3, 128584, Note_on_c, 1, 52, 0
3, 128600, Note_on_c, 1, 61, 60
3, 128600, Note_on_c, 1, 58, 60
3, 128600, Note_on_c, 1, 52, 60
3, 128600, Note_on_c, 1, 43, 60
3, 128632, Note_on_c, 1, 43, 0
3, 128632, Note_on_c, 1, 61, 0
3, 128632, Note_on_c, 1, 58, 0
3, 128632, Note_on_c, 1, 52, 0
3, 128648, Note_on_c, 1, 61, 60
3, 128648, Note_on_c, 1, 58, 60
3, 128648, Note_on_c, 1, 52, 60
3, 128648, Note_on_c, 1, 43, 60
3, 128680, Note_on_c, 1, 43, 0
3, 128680, Note_on_c, 1, 61, 0
3, 128680, Note_on_c, 1, 58, 0
3, 128680, Note_on_c, 1, 52, 0
3, 128696, Note_on_c, 1, 61, 60
3, 128696, Note_on_c, 1, 58, 60
3, 128696, Note_on_c, 1, 52, 60
3, 128696, Note_on_c, 1, 43, 60
3, 128728, Note_on_c, 1, 43, 0
3, 128728, Note_on_c, 1, 61, 0
3, 128728, Note_on_c, 1, 58, 0
3, 128728, Note_on_c, 1, 52, 0
3, 128744, Note_on_c, 1, 61, 60
3, 128744, Note_on_c, 1, 58, 60
3, 128744, Note_on_c, 1, 52, 60
3, 128744, Note_on_c, 1, 43, 60
3, 128776, Note_on_c, 1, 43, 0
3, 128776, Note_on_c, 1, 61, 0
3, 128776, Note_on_c, 1, 58, 0
3, 128776, Note_on_c, 1, 52, 0
3, 128792, Note_on_c, 1, 61, 60
3, 128792, Note_on_c, 1, 58, 60
3, 128792, Note_on_c, 1, 52, 60
3, 128792, Note_on_c, 1, 43, 60
3, 128824, Note_on_c, 1, 43, 0
3, 128824, Note_on_c, 1, 61, 0
3, 128824, Note_on_c, 1, 58, 0
3, 128824, Note_on_c, 1, 52, 0
3, 128840, Note_on_c, 1, 61, 60
3, 128840, Note_on_c, 1, 58, 60
3, 128840, Note_on_c, 1, 52, 60
3, 128840, Note_on_c, 1, 43, 60
3, 128872, Note_on_c, 1, 43, 0
3, 128872, Note_on_c, 1, 61, 0
3, 128872, Note_on_c, 1, 58, 0
3, 128872, Note_on_c, 1, 52, 0
3, 128888, Note_on_c, 1, 61, 60
3, 128888, Note_on_c, 1, 58, 60
3, 128888, Note_on_c, 1, 52, 60
3, 128888, Note_on_c, 1, 43, 60
3, 128920, Note_on_c, 1, 43, 0
3, 128920, Note_on_c, 1, 61, 0
3, 128920, Note_on_c, 1, 58, 0
3, 128920, Note_on_c, 1, 52, 0
3, 128936, Note_on_c, 1, 61, 60
3, 128936, Note_on_c, 1, 58, 60
3, 128936, Note_on_c, 1, 52, 60
3, 128936, Note_on_c, 1, 43, 60
3, 128968, Note_on_c, 1, 43, 0
3, 128968, Note_on_c, 1, 61, 0
3, 128968, Note_on_c, 1, 58, 0
3, 128968, Note_on_c, 1, 52, 0
3, 128984, Note_on_c, 1, 61, 60
3, 128984, Note_on_c, 1, 58, 60
3, 128984, Note_on_c, 1, 52, 60
3, 128984, Note_on_c, 1, 43, 60
3, 129016, Note_on_c, 1, 43, 0
3, 129016, Note_on_c, 1, 61, 0
3, 129016, Note_on_c, 1, 58, 0
3, 129016, Note_on_c, 1, 52, 0
3, 129032, Note_on_c, 1, 61, 60
3, 129032, Note_on_c, 1, 58, 60
3, 129032, Note_on_c, 1, 52, 60
3, 129032, Note_on_c, 1, 43, 60
3, 129064, Note_on_c, 1, 43, 0
3, 129064, Note_on_c, 1, 61, 0
3, 129064, Note_on_c, 1, 58, 0
3, 129064, Note_on_c, 1, 52, 0
3, 129112, Note_on_c, 1, 61, 60
3, 129112, Note_on_c, 1, 58, 60
3, 129112, Note_on_c, 1, 51, 60
3, 129112, Note_on_c, 1, 43, 60
3, 129144, Note_on_c, 1, 43, 0
3, 129144, Note_on_c, 1, 61, 0
3, 129144, Note_on_c, 1, 58, 0
3, 129144, Note_on_c, 1, 51, 0
3, 129160, Note_on_c, 1, 61, 60
3, 129160, Note_on_c, 1, 58, 60
3, 129160, Note_on_c, 1, 51, 60
3, 129160, Note_on_c, 1, 43, 60
3, 129192, Note_on_c, 1, 43, 0
3, 129192, Note_on_c, 1, 61, 0
3, 129192, Note_on_c, 1, 58, 0
3, 129192, Note_on_c, 1, 51, 0
3, 129208, Note_on_c, 1, 61, 60
3, 129208, Note_on_c, 1, 58, 60
3, 129208, Note_on_c, 1, 51, 60
3, 129208, Note_on_c, 1, 43, 60
3, 129240, Note_on_c, 1, 43, 0
3, 129240, Note_on_c, 1, 61, 0
3, 129240, Note_on_c, 1, 58, 0
3, 129240, Note_on_c, 1, 51, 0
3, 129256, Note_on_c, 1, 61, 60
3, 129256, Note_on_c, 1, 58, 60
3, 129256, Note_on_c, 1, 51, 60
3, 129256, Note_on_c, 1, 43, 60
3, 129288, Note_on_c, 1, 43, 0
3, 129288, Note_on_c, 1, 61, 0
3, 129288, Note_on_c, 1, 58, 0
3, 129288, Note_on_c, 1, 51, 0
3, 129304, Note_on_c, 1, 61, 60
3, 129304, Note_on_c, 1, 58, 60
3, 129304, Note_on_c, 1, 51, 60
3, 129304, Note_on_c, 1, 43, 60
3, 129336, Note_on_c, 1, 43, 0
3, 129336, Note_on_c, 1, 61, 0
3, 129336, Note_on_c, 1, 58, 0
3, 129336, Note_on_c, 1, 51, 0
3, 129352, Note_on_c, 1, 61, 60
3, 129352, Note_on_c, 1, 58, 60
3, 129352, Note_on_c, 1, 51, 60
3, 129352, Note_on_c, 1, 43, 60
3, 129384, Note_on_c, 1, 43, 0
3, 129384, Note_on_c, 1, 61, 0
3, 129384, Note_on_c, 1, 58, 0
3, 129384, Note_on_c, 1, 51, 0
3, 129400, Note_on_c, 1, 61, 60
3, 129400, Note_on_c, 1, 58, 60
3, 129400, Note_on_c, 1, 51, 60
3, 129400, Note_on_c, 1, 43, 60
3, 129432, Note_on_c, 1, 43, 0
3, 129432, Note_on_c, 1, 61, 0
3, 129432, Note_on_c, 1, 58, 0
3, 129432, Note_on_c, 1, 51, 0
3, 129448, Note_on_c, 1, 61, 60
3, 129448, Note_on_c, 1, 58, 60
3, 129448, Note_on_c, 1, 51, 60
3, 129448, Note_on_c, 1, 43, 60
3, 129480, Note_on_c, 1, 43, 0
3, 129480, Note_on_c, 1, 61, 0
3, 129480, Note_on_c, 1, 58, 0
3, 129480, Note_on_c, 1, 51, 0
3, 129496, Note_on_c, 1, 61, 60
3, 129496, Note_on_c, 1, 58, 60
3, 129496, Note_on_c, 1, 51, 60
3, 129496, Note_on_c, 1, 43, 60
3, 129528, Note_on_c, 1, 43, 0
3, 129528, Note_on_c, 1, 61, 0
3, 129528, Note_on_c, 1, 58, 0
3, 129528, Note_on_c, 1, 51, 0
3, 129544, Note_on_c, 1, 61, 60
3, 129544, Note_on_c, 1, 58, 60
3, 129544, Note_on_c, 1, 51, 60
3, 129544, Note_on_c, 1, 43, 60
3, 129576, Note_on_c, 1, 43, 0
3, 129576, Note_on_c, 1, 61, 0
3, 129576, Note_on_c, 1, 58, 0
3, 129576, Note_on_c, 1, 51, 0
3, 129592, Note_on_c, 1, 61, 60
3, 129592, Note_on_c, 1, 58, 60
3, 129592, Note_on_c, 1, 51, 60
3, 129592, Note_on_c, 1, 43, 60
3, 129624, Note_on_c, 1, 43, 0
3, 129624, Note_on_c, 1, 61, 0
3, 129624, Note_on_c, 1, 58, 0
3, 129624, Note_on_c, 1, 51, 0
3, 129640, Note_on_c, 1, 61, 60
3, 129640, Note_on_c, 1, 58, 60
3, 129640, Note_on_c, 1, 51, 60
3, 129640, Note_on_c, 1, 43, 60
3, 129672, Note_on_c, 1, 43, 0
3, 129672, Note_on_c, 1, 61, 0
3, 129672, Note_on_c, 1, 58, 0
3, 129672, Note_on_c, 1, 51, 0
3, 129688, Note_on_c, 1, 61, 60
3, 129688, Note_on_c, 1, 58, 60
3, 129688, Note_on_c, 1, 51, 60
3, 129688, Note_on_c, 1, 43, 60
3, 129720, Note_on_c, 1, 43, 0
3, 129720, Note_on_c, 1, 61, 0
3, 129720, Note_on_c, 1, 58, 0
3, 129720, Note_on_c, 1, 51, 0
3, 129736, Note_on_c, 1, 61, 60
3, 129736, Note_on_c, 1, 58, 60
3, 129736, Note_on_c, 1, 51, 60
3, 129736, Note_on_c, 1, 43, 60
3, 129768, Note_on_c, 1, 43, 0
3, 129768, Note_on_c, 1, 61, 0
3, 129768, Note_on_c, 1, 58, 0
3, 129768, Note_on_c, 1, 51, 0
3, 129784, Note_on_c, 1, 61, 60
3, 129784, Note_on_c, 1, 58, 60
3, 129784, Note_on_c, 1, 51, 60
3, 129784, Note_on_c, 1, 43, 60
3, 129816, Note_on_c, 1, 43, 0
3, 129816, Note_on_c, 1, 61, 0
3, 129816, Note_on_c, 1, 58, 0
3, 129816, Note_on_c, 1, 51, 0
3, 129832, Note_on_c, 1, 61, 60
3, 129832, Note_on_c, 1, 58, 60
3, 129832, Note_on_c, 1, 51, 60
3, 129832, Note_on_c, 1, 43, 60
3, 129864, Note_on_c, 1, 43, 0
3, 129864, Note_on_c, 1, 61, 0
3, 129864, Note_on_c, 1, 58, 0
3, 129864, Note_on_c, 1, 51, 0
3, 129880, Note_on_c, 1, 61, 60
3, 129880, Note_on_c, 1, 58, 60
3, 129880, Note_on_c, 1, 51, 60
3, 129880, Note_on_c, 1, 43, 60
3, 129912, Note_on_c, 1, 43, 0
3, 129912, Note_on_c, 1, 61, 0
3, 129912, Note_on_c, 1, 58, 0
3, 129912, Note_on_c, 1, 51, 0
3, 129928, Note_on_c, 1, 61, 60
3, 129928, Note_on_c, 1, 58, 60
3, 129928, Note_on_c, 1, 51, 60
3, 129928, Note_on_c, 1, 43, 60
3, 129960, Note_on_c, 1, 43, 0
3, 129960, Note_on_c, 1, 61, 0
3, 129960, Note_on_c, 1, 58, 0
3, 129960, Note_on_c, 1, 51, 0
3, 129976, Note_on_c, 1, 61, 60
3, 129976, Note_on_c, 1, 58, 60
3, 129976, Note_on_c, 1, 51, 60
3, 129976, Note_on_c, 1, 43, 60
3, 130008, Note_on_c, 1, 43, 0
3, 130008, Note_on_c, 1, 61, 0
3, 130008, Note_on_c, 1, 58, 0
3, 130008, Note_on_c, 1, 51, 0
3, 130024, Note_on_c, 1, 61, 60
3, 130024, Note_on_c, 1, 58, 60
3, 130024, Note_on_c, 1, 51, 60
3, 130024, Note_on_c, 1, 43, 60
3, 130056, Note_on_c, 1, 43, 0
3, 130056, Note_on_c, 1, 61, 0
3, 130056, Note_on_c, 1, 58, 0
3, 130056, Note_on_c, 1, 51, 0
3, 130072, Note_on_c, 1, 61, 60
3, 130072, Note_on_c, 1, 58, 60
3, 130072, Note_on_c, 1, 51, 60
3, 130072, Note_on_c, 1, 43, 60
3, 130104, Note_on_c, 1, 43, 0
3, 130104, Note_on_c, 1, 61, 0
3, 130104, Note_on_c, 1, 58, 0
3, 130104, Note_on_c, 1, 51, 0
3, 130120, Note_on_c, 1, 61, 60
3, 130120, Note_on_c, 1, 58, 60
3, 130120, Note_on_c, 1, 51, 60
3, 130120, Note_on_c, 1, 43, 60
3, 130152, Note_on_c, 1, 43, 0
3, 130152, Note_on_c, 1, 61, 0
3, 130152, Note_on_c, 1, 58, 0
3, 130152, Note_on_c, 1, 51, 0
3, 130168, Note_on_c, 1, 61, 60
3, 130168, Note_on_c, 1, 58, 60
3, 130168, Note_on_c, 1, 51, 60
3, 130168, Note_on_c, 1, 43, 60
3, 130200, Note_on_c, 1, 43, 0
3, 130200, Note_on_c, 1, 61, 0
3, 130200, Note_on_c, 1, 58, 0
3, 130200, Note_on_c, 1, 51, 0
3, 130216, Note_on_c, 1, 61, 60
3, 130216, Note_on_c, 1, 58, 60
3, 130216, Note_on_c, 1, 51, 60
3, 130216, Note_on_c, 1, 43, 60
3, 130248, Note_on_c, 1, 43, 0
3, 130248, Note_on_c, 1, 61, 0
3, 130248, Note_on_c, 1, 58, 0
3, 130248, Note_on_c, 1, 51, 0
3, 130264, Note_on_c, 1, 61, 60
3, 130264, Note_on_c, 1, 58, 60
3, 130264, Note_on_c, 1, 51, 60
3, 130264, Note_on_c, 1, 43, 60
3, 130296, Note_on_c, 1, 43, 0
3, 130296, Note_on_c, 1, 61, 0
3, 130296, Note_on_c, 1, 58, 0
3, 130296, Note_on_c, 1, 51, 0
3, 130312, Note_on_c, 1, 61, 60
3, 130312, Note_on_c, 1, 58, 60
3, 130312, Note_on_c, 1, 51, 60
3, 130312, Note_on_c, 1, 43, 60
3, 130344, Note_on_c, 1, 43, 0
3, 130344, Note_on_c, 1, 61, 0
3, 130344, Note_on_c, 1, 58, 0
3, 130344, Note_on_c, 1, 51, 0
3, 130360, Note_on_c, 1, 61, 60
3, 130360, Note_on_c, 1, 58, 60
3, 130360, Note_on_c, 1, 51, 60
3, 130360, Note_on_c, 1, 43, 60
3, 130392, Note_on_c, 1, 43, 0
3, 130392, Note_on_c, 1, 61, 0
3, 130392, Note_on_c, 1, 58, 0
3, 130392, Note_on_c, 1, 51, 0
3, 130408, Note_on_c, 1, 61, 60
3, 130408, Note_on_c, 1, 58, 60
3, 130408, Note_on_c, 1, 51, 60
3, 130408, Note_on_c, 1, 43, 60
3, 130440, Note_on_c, 1, 43, 0
3, 130440, Note_on_c, 1, 61, 0
3, 130440, Note_on_c, 1, 58, 0
3, 130440, Note_on_c, 1, 51, 0
3, 130456, Note_on_c, 1, 61, 60
3, 130456, Note_on_c, 1, 58, 60
3, 130456, Note_on_c, 1, 51, 60
3, 130456, Note_on_c, 1, 43, 60
3, 130488, Note_on_c, 1, 43, 0
3, 130488, Note_on_c, 1, 61, 0
3, 130488, Note_on_c, 1, 58, 0
3, 130488, Note_on_c, 1, 51, 0
3, 130504, Note_on_c, 1, 61, 60
3, 130504, Note_on_c, 1, 58, 60
3, 130504, Note_on_c, 1, 51, 60
3, 130504, Note_on_c, 1, 43, 60
3, 130536, Note_on_c, 1, 43, 0
3, 130536, Note_on_c, 1, 61, 0
3, 130536, Note_on_c, 1, 58, 0
3, 130536, Note_on_c, 1, 51, 0
3, 130552, Note_on_c, 1, 61, 60
3, 130552, Note_on_c, 1, 58, 60
3, 130552, Note_on_c, 1, 51, 60
3, 130552, Note_on_c, 1, 43, 60
3, 130584, Note_on_c, 1, 43, 0
3, 130584, Note_on_c, 1, 61, 0
3, 130584, Note_on_c, 1, 58, 0
3, 130584, Note_on_c, 1, 51, 0
3, 130600, Note_on_c, 1, 61, 60
3, 130600, Note_on_c, 1, 58, 60
3, 130600, Note_on_c, 1, 51, 60
3, 130600, Note_on_c, 1, 43, 60
3, 130632, Note_on_c, 1, 43, 0
3, 130632, Note_on_c, 1, 61, 0
3, 130632, Note_on_c, 1, 58, 0
3, 130632, Note_on_c, 1, 51, 0
3, 130648, Note_on_c, 1, 61, 60
3, 130648, Note_on_c, 1, 58, 60
3, 130648, Note_on_c, 1, 51, 60
3, 130648, Note_on_c, 1, 43, 60
3, 130680, Note_on_c, 1, 43, 0
3, 130680, Note_on_c, 1, 61, 0
3, 130680, Note_on_c, 1, 58, 0
3, 130680, Note_on_c, 1, 51, 0
3, 130696, Note_on_c, 1, 61, 60
3, 130696, Note_on_c, 1, 58, 60
3, 130696, Note_on_c, 1, 51, 60
3, 130696, Note_on_c, 1, 43, 60
3, 130728, Note_on_c, 1, 43, 0
3, 130728, Note_on_c, 1, 61, 0
3, 130728, Note_on_c, 1, 58, 0
3, 130728, Note_on_c, 1, 51, 0
3, 130744, Note_on_c, 1, 61, 60
3, 130744, Note_on_c, 1, 58, 60
3, 130744, Note_on_c, 1, 51, 60
3, 130744, Note_on_c, 1, 43, 60
3, 130776, Note_on_c, 1, 43, 0
3, 130776, Note_on_c, 1, 61, 0
3, 130776, Note_on_c, 1, 58, 0
3, 130776, Note_on_c, 1, 51, 0
3, 130792, Note_on_c, 1, 61, 60
3, 130792, Note_on_c, 1, 58, 60
3, 130792, Note_on_c, 1, 51, 60
3, 130792, Note_on_c, 1, 43, 60
3, 130824, Note_on_c, 1, 43, 0
3, 130824, Note_on_c, 1, 61, 0
3, 130824, Note_on_c, 1, 58, 0
3, 130824, Note_on_c, 1, 51, 0
3, 130840, Note_on_c, 1, 61, 60
3, 130840, Note_on_c, 1, 58, 60
3, 130840, Note_on_c, 1, 51, 60
3, 130840, Note_on_c, 1, 43, 60
3, 130872, Note_on_c, 1, 43, 0
3, 130872, Note_on_c, 1, 61, 0
3, 130872, Note_on_c, 1, 58, 0
3, 130872, Note_on_c, 1, 51, 0
3, 130888, Note_on_c, 1, 61, 60
3, 130888, Note_on_c, 1, 58, 60
3, 130888, Note_on_c, 1, 51, 60
3, 130888, Note_on_c, 1, 43, 60
3, 130920, Note_on_c, 1, 43, 0
3, 130920, Note_on_c, 1, 61, 0
3, 130920, Note_on_c, 1, 58, 0
3, 130920, Note_on_c, 1, 51, 0
3, 130936, Note_on_c, 1, 61, 60
3, 130936, Note_on_c, 1, 58, 60
3, 130936, Note_on_c, 1, 51, 60
3, 130936, Note_on_c, 1, 43, 60
3, 130968, Note_on_c, 1, 43, 0
3, 130968, Note_on_c, 1, 61, 0
3, 130968, Note_on_c, 1, 58, 0
3, 130968, Note_on_c, 1, 51, 0
3, 130984, Note_on_c, 1, 61, 60
3, 130984, Note_on_c, 1, 58, 60
3, 130984, Note_on_c, 1, 51, 60
3, 130984, Note_on_c, 1, 43, 60
3, 131016, Note_on_c, 1, 43, 0
3, 131016, Note_on_c, 1, 61, 0
3, 131016, Note_on_c, 1, 58, 0
3, 131016, Note_on_c, 1, 51, 0
3, 131032, Note_on_c, 1, 61, 60
3, 131032, Note_on_c, 1, 58, 60
3, 131032, Note_on_c, 1, 51, 60
3, 131032, Note_on_c, 1, 43, 60
3, 131064, Note_on_c, 1, 43, 0
3, 131064, Note_on_c, 1, 61, 0
3, 131064, Note_on_c, 1, 58, 0
3, 131064, Note_on_c, 1, 51, 0
3, 131080, Note_on_c, 1, 61, 60
3, 131080, Note_on_c, 1, 58, 60
3, 131080, Note_on_c, 1, 51, 60
3, 131080, Note_on_c, 1, 43, 60
3, 131112, Note_on_c, 1, 43, 0
3, 131112, Note_on_c, 1, 61, 0
3, 131112, Note_on_c, 1, 58, 0
3, 131112, Note_on_c, 1, 51, 0
3, 131128, Note_on_c, 1, 61, 60
3, 131128, Note_on_c, 1, 58, 60
3, 131128, Note_on_c, 1, 51, 60
3, 131128, Note_on_c, 1, 43, 60
3, 131160, Note_on_c, 1, 43, 0
3, 131160, Note_on_c, 1, 61, 0
3, 131160, Note_on_c, 1, 58, 0
3, 131160, Note_on_c, 1, 51, 0
3, 131176, Note_on_c, 1, 61, 60
3, 131176, Note_on_c, 1, 58, 60
3, 131176, Note_on_c, 1, 51, 60
3, 131176, Note_on_c, 1, 43, 60
3, 131208, Note_on_c, 1, 43, 0
3, 131208, Note_on_c, 1, 61, 0
3, 131208, Note_on_c, 1, 58, 0
3, 131208, Note_on_c, 1, 51, 0
3, 131224, Note_on_c, 1, 61, 60
3, 131224, Note_on_c, 1, 58, 60
3, 131224, Note_on_c, 1, 51, 60
3, 131224, Note_on_c, 1, 43, 60
3, 131256, Note_on_c, 1, 43, 0
3, 131256, Note_on_c, 1, 61, 0
3, 131256, Note_on_c, 1, 58, 0
3, 131256, Note_on_c, 1, 51, 0
3, 131272, Note_on_c, 1, 61, 60
3, 131272, Note_on_c, 1, 58, 60
3, 131272, Note_on_c, 1, 51, 60
3, 131272, Note_on_c, 1, 43, 60
3, 131304, Note_on_c, 1, 43, 0
3, 131304, Note_on_c, 1, 61, 0
3, 131304, Note_on_c, 1, 58, 0
3, 131304, Note_on_c, 1, 51, 0
3, 131320, Note_on_c, 1, 61, 60
3, 131320, Note_on_c, 1, 58, 60
3, 131320, Note_on_c, 1, 51, 60
3, 131320, Note_on_c, 1, 43, 60
3, 131352, Note_on_c, 1, 43, 0
3, 131352, Note_on_c, 1, 61, 0
3, 131352, Note_on_c, 1, 58, 0
3, 131352, Note_on_c, 1, 51, 0
3, 131368, Note_on_c, 1, 61, 60
3, 131368, Note_on_c, 1, 58, 60
3, 131368, Note_on_c, 1, 51, 60
3, 131368, Note_on_c, 1, 43, 60
3, 131400, Note_on_c, 1, 43, 0
3, 131400, Note_on_c, 1, 61, 0
3, 131400, Note_on_c, 1, 58, 0
3, 131400, Note_on_c, 1, 51, 0
3, 131416, Note_on_c, 1, 61, 60
3, 131416, Note_on_c, 1, 58, 60
3, 131416, Note_on_c, 1, 51, 60
3, 131416, Note_on_c, 1, 43, 60
3, 131448, Note_on_c, 1, 43, 0
3, 131448, Note_on_c, 1, 61, 0
3, 131448, Note_on_c, 1, 58, 0
3, 131448, Note_on_c, 1, 51, 0
3, 131464, Note_on_c, 1, 61, 60
3, 131464, Note_on_c, 1, 58, 60
3, 131464, Note_on_c, 1, 51, 60
3, 131464, Note_on_c, 1, 43, 60
3, 131496, Note_on_c, 1, 43, 0
3, 131496, Note_on_c, 1, 61, 0
3, 131496, Note_on_c, 1, 58, 0
3, 131496, Note_on_c, 1, 51, 0
3, 131544, Note_on_c, 1, 61, 60
3, 131544, Note_on_c, 1, 57, 60
3, 131544, Note_on_c, 1, 51, 60
3, 131544, Note_on_c, 1, 42, 60
3, 131576, Note_on_c, 1, 42, 0
3, 131576, Note_on_c, 1, 61, 0
3, 131576, Note_on_c, 1, 57, 0
3, 131576, Note_on_c, 1, 51, 0
3, 131592, Note_on_c, 1, 61, 60
3, 131592, Note_on_c, 1, 57, 60
3, 131592, Note_on_c, 1, 51, 60
3, 131592, Note_on_c, 1, 42, 60
3, 131624, Note_on_c, 1, 42, 0
3, 131624, Note_on_c, 1, 61, 0
3, 131624, Note_on_c, 1, 57, 0
3, 131624, Note_on_c, 1, 51, 0
3, 131640, Note_on_c, 1, 61, 60
3, 131640, Note_on_c, 1, 57, 60
3, 131640, Note_on_c, 1, 51, 60
3, 131640, Note_on_c, 1, 42, 60
3, 131672, Note_on_c, 1, 42, 0
3, 131672, Note_on_c, 1, 61, 0
3, 131672, Note_on_c, 1, 57, 0
3, 131672, Note_on_c, 1, 51, 0
3, 131688, Note_on_c, 1, 61, 60
3, 131688, Note_on_c, 1, 57, 60
3, 131688, Note_on_c, 1, 51, 60
3, 131688, Note_on_c, 1, 42, 60
3, 131720, Note_on_c, 1, 42, 0
3, 131720, Note_on_c, 1, 61, 0
3, 131720, Note_on_c, 1, 57, 0
3, 131720, Note_on_c, 1, 51, 0
3, 131736, Note_on_c, 1, 61, 60
3, 131736, Note_on_c, 1, 57, 60
3, 131736, Note_on_c, 1, 51, 60
3, 131736, Note_on_c, 1, 42, 60
3, 131768, Note_on_c, 1, 42, 0
3, 131768, Note_on_c, 1, 61, 0
3, 131768, Note_on_c, 1, 57, 0
3, 131768, Note_on_c, 1, 51, 0
3, 131784, Note_on_c, 1, 61, 60
3, 131784, Note_on_c, 1, 57, 60
3, 131784, Note_on_c, 1, 51, 60
3, 131784, Note_on_c, 1, 42, 60
3, 131816, Note_on_c, 1, 42, 0
3, 131816, Note_on_c, 1, 61, 0
3, 131816, Note_on_c, 1, 57, 0
3, 131816, Note_on_c, 1, 51, 0
3, 131832, Note_on_c, 1, 61, 60
3, 131832, Note_on_c, 1, 57, 60
3, 131832, Note_on_c, 1, 51, 60
3, 131832, Note_on_c, 1, 42, 60
3, 131864, Note_on_c, 1, 42, 0
3, 131864, Note_on_c, 1, 61, 0
3, 131864, Note_on_c, 1, 57, 0
3, 131864, Note_on_c, 1, 51, 0
3, 131880, Note_on_c, 1, 61, 60
3, 131880, Note_on_c, 1, 57, 60
3, 131880, Note_on_c, 1, 51, 60
3, 131880, Note_on_c, 1, 42, 60
3, 131912, Note_on_c, 1, 42, 0
3, 131912, Note_on_c, 1, 61, 0
3, 131912, Note_on_c, 1, 57, 0
3, 131912, Note_on_c, 1, 51, 0
3, 131928, Note_on_c, 1, 61, 60
3, 131928, Note_on_c, 1, 57, 60
3, 131928, Note_on_c, 1, 51, 60
3, 131928, Note_on_c, 1, 42, 60
3, 131960, Note_on_c, 1, 42, 0
3, 131960, Note_on_c, 1, 61, 0
3, 131960, Note_on_c, 1, 57, 0
3, 131960, Note_on_c, 1, 51, 0
3, 131976, Note_on_c, 1, 60, 60
3, 131976, Note_on_c, 1, 57, 60
3, 131976, Note_on_c, 1, 51, 60
3, 131976, Note_on_c, 1, 42, 60
3, 132008, Note_on_c, 1, 42, 0
3, 132008, Note_on_c, 1, 60, 0
3, 132008, Note_on_c, 1, 57, 0
3, 132008, Note_on_c, 1, 51, 0
3, 132024, Note_on_c, 1, 60, 60
3, 132024, Note_on_c, 1, 57, 60
3, 132024, Note_on_c, 1, 51, 60
3, 132024, Note_on_c, 1, 42, 60
3, 132056, Note_on_c, 1, 42, 0
3, 132056, Note_on_c, 1, 60, 0
3, 132056, Note_on_c, 1, 57, 0
3, 132056, Note_on_c, 1, 51, 0
3, 132072, Note_on_c, 1, 60, 60
3, 132072, Note_on_c, 1, 57, 60
3, 132072, Note_on_c, 1, 51, 60
3, 132072, Note_on_c, 1, 42, 60
3, 132104, Note_on_c, 1, 42, 0
3, 132104, Note_on_c, 1, 60, 0
3, 132104, Note_on_c, 1, 57, 0
3, 132104, Note_on_c, 1, 51, 0
3, 132120, Note_on_c, 1, 60, 60
3, 132120, Note_on_c, 1, 57, 60
3, 132120, Note_on_c, 1, 51, 60
3, 132120, Note_on_c, 1, 42, 60
3, 132152, Note_on_c, 1, 42, 0
3, 132152, Note_on_c, 1, 60, 0
3, 132152, Note_on_c, 1, 57, 0
3, 132152, Note_on_c, 1, 51, 0
3, 132168, Note_on_c, 1, 60, 60
3, 132168, Note_on_c, 1, 57, 60
3, 132168, Note_on_c, 1, 51, 60
3, 132168, Note_on_c, 1, 42, 60
3, 132200, Note_on_c, 1, 42, 0
3, 132200, Note_on_c, 1, 60, 0
3, 132200, Note_on_c, 1, 57, 0
3, 132200, Note_on_c, 1, 51, 0
3, 132216, Note_on_c, 1, 60, 60
3, 132216, Note_on_c, 1, 57, 60
3, 132216, Note_on_c, 1, 51, 60
3, 132216, Note_on_c, 1, 42, 60
3, 132248, Note_on_c, 1, 42, 0
3, 132248, Note_on_c, 1, 60, 0
3, 132248, Note_on_c, 1, 57, 0
3, 132248, Note_on_c, 1, 51, 0
3, 132264, Note_on_c, 1, 60, 60
3, 132264, Note_on_c, 1, 57, 60
3, 132264, Note_on_c, 1, 51, 60
3, 132264, Note_on_c, 1, 42, 60
3, 132296, Note_on_c, 1, 42, 0
3, 132296, Note_on_c, 1, 60, 0
3, 132296, Note_on_c, 1, 57, 0
3, 132296, Note_on_c, 1, 51, 0
3, 132312, Note_on_c, 1, 60, 60
3, 132312, Note_on_c, 1, 57, 60
3, 132312, Note_on_c, 1, 51, 60
3, 132312, Note_on_c, 1, 42, 60
3, 132344, Note_on_c, 1, 42, 0
3, 132344, Note_on_c, 1, 60, 0
3, 132344, Note_on_c, 1, 57, 0
3, 132344, Note_on_c, 1, 51, 0
3, 132360, Note_on_c, 1, 60, 60
3, 132360, Note_on_c, 1, 57, 60
3, 132360, Note_on_c, 1, 51, 60
3, 132360, Note_on_c, 1, 42, 60
3, 132392, Note_on_c, 1, 42, 0
3, 132392, Note_on_c, 1, 60, 0
3, 132392, Note_on_c, 1, 57, 0
3, 132392, Note_on_c, 1, 51, 0
3, 132408, Note_on_c, 1, 60, 60
3, 132408, Note_on_c, 1, 57, 60
3, 132408, Note_on_c, 1, 51, 60
3, 132408, Note_on_c, 1, 42, 60
3, 132440, Note_on_c, 1, 42, 0
3, 132440, Note_on_c, 1, 60, 0
3, 132440, Note_on_c, 1, 57, 0
3, 132440, Note_on_c, 1, 51, 0
3, 132456, Note_on_c, 1, 60, 60
3, 132456, Note_on_c, 1, 57, 60
3, 132456, Note_on_c, 1, 51, 60
3, 132456, Note_on_c, 1, 42, 60
3, 132488, Note_on_c, 1, 42, 0
3, 132488, Note_on_c, 1, 60, 0
3, 132488, Note_on_c, 1, 57, 0
3, 132488, Note_on_c, 1, 51, 0
3, 132504, Note_on_c, 1, 60, 60
3, 132504, Note_on_c, 1, 57, 60
3, 132504, Note_on_c, 1, 51, 60
3, 132504, Note_on_c, 1, 42, 60
3, 132536, Note_on_c, 1, 42, 0
3, 132536, Note_on_c, 1, 60, 0
3, 132536, Note_on_c, 1, 57, 0
3, 132536, Note_on_c, 1, 51, 0
3, 132552, Note_on_c, 1, 60, 60
3, 132552, Note_on_c, 1, 57, 60
3, 132552, Note_on_c, 1, 51, 60
3, 132552, Note_on_c, 1, 42, 60
3, 132584, Note_on_c, 1, 42, 0
3, 132584, Note_on_c, 1, 60, 0
3, 132584, Note_on_c, 1, 57, 0
3, 132584, Note_on_c, 1, 51, 0
3, 132600, Note_on_c, 1, 60, 60
3, 132600, Note_on_c, 1, 57, 60
3, 132600, Note_on_c, 1, 51, 60
3, 132600, Note_on_c, 1, 42, 60
3, 132632, Note_on_c, 1, 42, 0
3, 132632, Note_on_c, 1, 60, 0
3, 132632, Note_on_c, 1, 57, 0
3, 132632, Note_on_c, 1, 51, 0
3, 132648, Note_on_c, 1, 60, 60
3, 132648, Note_on_c, 1, 57, 60
3, 132648, Note_on_c, 1, 51, 60
3, 132648, Note_on_c, 1, 42, 60
3, 132680, Note_on_c, 1, 42, 0
3, 132680, Note_on_c, 1, 60, 0
3, 132680, Note_on_c, 1, 57, 0
3, 132680, Note_on_c, 1, 51, 0
3, 132696, Note_on_c, 1, 60, 60
3, 132696, Note_on_c, 1, 57, 60
3, 132696, Note_on_c, 1, 51, 60
3, 132696, Note_on_c, 1, 42, 60
3, 132728, Note_on_c, 1, 42, 0
3, 132728, Note_on_c, 1, 60, 0
3, 132728, Note_on_c, 1, 57, 0
3, 132728, Note_on_c, 1, 51, 0
3, 132744, Note_on_c, 1, 60, 60
3, 132744, Note_on_c, 1, 57, 60
3, 132744, Note_on_c, 1, 51, 60
3, 132744, Note_on_c, 1, 42, 60
3, 132776, Note_on_c, 1, 42, 0
3, 132776, Note_on_c, 1, 60, 0
3, 132776, Note_on_c, 1, 57, 0
3, 132776, Note_on_c, 1, 51, 0
3, 132792, Note_on_c, 1, 60, 60
3, 132792, Note_on_c, 1, 57, 60
3, 132792, Note_on_c, 1, 51, 60
3, 132792, Note_on_c, 1, 42, 60
3, 132824, Note_on_c, 1, 42, 0
3, 132824, Note_on_c, 1, 60, 0
3, 132824, Note_on_c, 1, 57, 0
3, 132824, Note_on_c, 1, 51, 0
3, 132840, Note_on_c, 1, 60, 60
3, 132840, Note_on_c, 1, 57, 60
3, 132840, Note_on_c, 1, 51, 60
3, 132840, Note_on_c, 1, 42, 60
3, 132872, Note_on_c, 1, 42, 0
3, 132872, Note_on_c, 1, 60, 0
3, 132872, Note_on_c, 1, 57, 0
3, 132872, Note_on_c, 1, 51, 0
3, 132888, Note_on_c, 1, 60, 60
3, 132888, Note_on_c, 1, 57, 60
3, 132888, Note_on_c, 1, 51, 60
3, 132888, Note_on_c, 1, 42, 60
3, 132920, Note_on_c, 1, 42, 0
3, 132920, Note_on_c, 1, 60, 0
3, 132920, Note_on_c, 1, 57, 0
3, 132920, Note_on_c, 1, 51, 0
3, 132936, Note_on_c, 1, 60, 60
3, 132936, Note_on_c, 1, 57, 60
3, 132936, Note_on_c, 1, 51, 60
3, 132936, Note_on_c, 1, 42, 60
3, 132968, Note_on_c, 1, 42, 0
3, 132968, Note_on_c, 1, 60, 0
3, 132968, Note_on_c, 1, 57, 0
3, 132968, Note_on_c, 1, 51, 0
3, 132984, Note_on_c, 1, 60, 60
3, 132984, Note_on_c, 1, 57, 60
3, 132984, Note_on_c, 1, 51, 60
3, 132984, Note_on_c, 1, 42, 60
3, 133016, Note_on_c, 1, 42, 0
3, 133016, Note_on_c, 1, 60, 0
3, 133016, Note_on_c, 1, 57, 0
3, 133016, Note_on_c, 1, 51, 0
3, 133032, Note_on_c, 1, 60, 60
3, 133032, Note_on_c, 1, 57, 60
3, 133032, Note_on_c, 1, 51, 60
3, 133032, Note_on_c, 1, 42, 60
3, 133064, Note_on_c, 1, 42, 0
3, 133064, Note_on_c, 1, 60, 0
3, 133064, Note_on_c, 1, 57, 0
3, 133064, Note_on_c, 1, 51, 0
3, 133080, Note_on_c, 1, 60, 60
3, 133080, Note_on_c, 1, 57, 60
3, 133080, Note_on_c, 1, 51, 60
3, 133080, Note_on_c, 1, 42, 60
3, 133112, Note_on_c, 1, 42, 0
3, 133112, Note_on_c, 1, 60, 0
3, 133112, Note_on_c, 1, 57, 0
3, 133112, Note_on_c, 1, 51, 0
3, 133128, Note_on_c, 1, 60, 60
3, 133128, Note_on_c, 1, 57, 60
3, 133128, Note_on_c, 1, 51, 60
3, 133128, Note_on_c, 1, 42, 60
3, 133160, Note_on_c, 1, 42, 0
3, 133160, Note_on_c, 1, 60, 0
3, 133160, Note_on_c, 1, 57, 0
3, 133160, Note_on_c, 1, 51, 0
3, 133176, Note_on_c, 1, 60, 60
3, 133176, Note_on_c, 1, 57, 60
3, 133176, Note_on_c, 1, 51, 60
3, 133176, Note_on_c, 1, 42, 60
3, 133208, Note_on_c, 1, 42, 0
3, 133208, Note_on_c, 1, 60, 0
3, 133208, Note_on_c, 1, 57, 0
3, 133208, Note_on_c, 1, 51, 0
3, 133224, Note_on_c, 1, 60, 60
3, 133224, Note_on_c, 1, 57, 60
3, 133224, Note_on_c, 1, 51, 60
3, 133224, Note_on_c, 1, 42, 60
3, 133256, Note_on_c, 1, 42, 0
3, 133256, Note_on_c, 1, 60, 0
3, 133256, Note_on_c, 1, 57, 0
3, 133256, Note_on_c, 1, 51, 0
3, 133272, Note_on_c, 1, 60, 60
3, 133272, Note_on_c, 1, 57, 60
3, 133272, Note_on_c, 1, 51, 60
3, 133272, Note_on_c, 1, 42, 60
3, 133304, Note_on_c, 1, 42, 0
3, 133304, Note_on_c, 1, 60, 0
3, 133304, Note_on_c, 1, 57, 0
3, 133304, Note_on_c, 1, 51, 0
3, 133320, Note_on_c, 1, 60, 60
3, 133320, Note_on_c, 1, 57, 60
3, 133320, Note_on_c, 1, 51, 60
3, 133320, Note_on_c, 1, 42, 60
3, 133352, Note_on_c, 1, 42, 0
3, 133352, Note_on_c, 1, 60, 0
3, 133352, Note_on_c, 1, 57, 0
3, 133352, Note_on_c, 1, 51, 0
3, 133368, Note_on_c, 1, 60, 60
3, 133368, Note_on_c, 1, 57, 60
3, 133368, Note_on_c, 1, 51, 60
3, 133368, Note_on_c, 1, 42, 60
3, 133400, Note_on_c, 1, 42, 0
3, 133400, Note_on_c, 1, 60, 0
3, 133400, Note_on_c, 1, 57, 0
3, 133400, Note_on_c, 1, 51, 0
3, 133416, Note_on_c, 1, 60, 60
3, 133416, Note_on_c, 1, 57, 60
3, 133416, Note_on_c, 1, 51, 60
3, 133416, Note_on_c, 1, 42, 60
3, 133448, Note_on_c, 1, 42, 0
3, 133448, Note_on_c, 1, 60, 0
3, 133448, Note_on_c, 1, 57, 0
3, 133448, Note_on_c, 1, 51, 0
3, 133464, Note_on_c, 1, 60, 60
3, 133464, Note_on_c, 1, 57, 60
3, 133464, Note_on_c, 1, 51, 60
3, 133464, Note_on_c, 1, 42, 60
3, 133496, Note_on_c, 1, 42, 0
3, 133496, Note_on_c, 1, 60, 0
3, 133496, Note_on_c, 1, 57, 0
3, 133496, Note_on_c, 1, 51, 0
3, 133512, Note_on_c, 1, 60, 60
3, 133512, Note_on_c, 1, 57, 60
3, 133512, Note_on_c, 1, 51, 60
3, 133512, Note_on_c, 1, 42, 60
3, 133544, Note_on_c, 1, 42, 0
3, 133544, Note_on_c, 1, 60, 0
3, 133544, Note_on_c, 1, 57, 0
3, 133544, Note_on_c, 1, 51, 0
3, 133560, Note_on_c, 1, 60, 60
3, 133560, Note_on_c, 1, 57, 60
3, 133560, Note_on_c, 1, 51, 60
3, 133560, Note_on_c, 1, 42, 60
3, 133592, Note_on_c, 1, 42, 0
3, 133592, Note_on_c, 1, 60, 0
3, 133592, Note_on_c, 1, 57, 0
3, 133592, Note_on_c, 1, 51, 0
3, 133608, Note_on_c, 1, 60, 60
3, 133608, Note_on_c, 1, 57, 60
3, 133608, Note_on_c, 1, 51, 60
3, 133608, Note_on_c, 1, 42, 60
3, 133632, Note_on_c, 1, 42, 0
3, 133632, Note_on_c, 1, 60, 0
3, 133632, Note_on_c, 1, 57, 0
3, 133632, Note_on_c, 1, 51, 0
3, 133648, Note_on_c, 1, 60, 60
3, 133648, Note_on_c, 1, 57, 60
3, 133648, Note_on_c, 1, 51, 60
3, 133648, Note_on_c, 1, 42, 60
3, 133672, Note_on_c, 1, 61, 70
3, 133672, Note_on_c, 1, 56, 70
3, 133672, Note_on_c, 1, 52, 70
3, 133672, Note_on_c, 1, 40, 70
3, 133680, Note_on_c, 1, 42, 0
3, 133680, Note_on_c, 1, 51, 0
3, 133680, Note_on_c, 1, 60, 0
3, 133680, Note_on_c, 1, 57, 0
3, 133704, Note_on_c, 1, 61, 0
3, 133704, Note_on_c, 1, 40, 0
3, 133704, Note_on_c, 1, 56, 0
3, 133704, Note_on_c, 1, 52, 0
3, 133720, Note_on_c, 1, 61, 70
3, 133720, Note_on_c, 1, 56, 70
3, 133720, Note_on_c, 1, 52, 70
3, 133720, Note_on_c, 1, 40, 70
3, 133752, Note_on_c, 1, 40, 0
3, 133752, Note_on_c, 1, 61, 0
3, 133752, Note_on_c, 1, 56, 0
3, 133752, Note_on_c, 1, 52, 0
3, 133768, Note_on_c, 1, 61, 70
3, 133768, Note_on_c, 1, 56, 70
3, 133768, Note_on_c, 1, 52, 70
3, 133768, Note_on_c, 1, 40, 70
3, 133800, Note_on_c, 1, 40, 0
3, 133800, Note_on_c, 1, 61, 0
3, 133800, Note_on_c, 1, 56, 0
3, 133800, Note_on_c, 1, 52, 0
3, 133816, Note_on_c, 1, 61, 70
3, 133816, Note_on_c, 1, 56, 70
3, 133816, Note_on_c, 1, 52, 70
3, 133816, Note_on_c, 1, 40, 70
3, 133848, Note_on_c, 1, 40, 0
3, 133848, Note_on_c, 1, 61, 0
3, 133848, Note_on_c, 1, 56, 0
3, 133848, Note_on_c, 1, 52, 0
3, 133864, Note_on_c, 1, 61, 70
3, 133864, Note_on_c, 1, 56, 70
3, 133864, Note_on_c, 1, 52, 70
3, 133864, Note_on_c, 1, 40, 70
3, 133896, Note_on_c, 1, 40, 0
3, 133896, Note_on_c, 1, 61, 0
3, 133896, Note_on_c, 1, 56, 0
3, 133896, Note_on_c, 1, 52, 0
3, 133912, Note_on_c, 1, 61, 70
3, 133912, Note_on_c, 1, 56, 70
3, 133912, Note_on_c, 1, 52, 70
3, 133912, Note_on_c, 1, 40, 70
3, 133944, Note_on_c, 1, 40, 0
3, 133944, Note_on_c, 1, 61, 0
3, 133944, Note_on_c, 1, 56, 0
3, 133944, Note_on_c, 1, 52, 0
3, 133960, Note_on_c, 1, 61, 70
3, 133960, Note_on_c, 1, 56, 70
3, 133960, Note_on_c, 1, 52, 70
3, 133960, Note_on_c, 1, 40, 70
3, 133992, Note_on_c, 1, 40, 0
3, 133992, Note_on_c, 1, 61, 0
3, 133992, Note_on_c, 1, 56, 0
3, 133992, Note_on_c, 1, 52, 0
3, 134008, Note_on_c, 1, 61, 70
3, 134008, Note_on_c, 1, 56, 70
3, 134008, Note_on_c, 1, 52, 70
3, 134008, Note_on_c, 1, 40, 70
3, 134040, Note_on_c, 1, 40, 0
3, 134040, Note_on_c, 1, 61, 0
3, 134040, Note_on_c, 1, 56, 0
3, 134040, Note_on_c, 1, 52, 0
3, 134056, Note_on_c, 1, 61, 70
3, 134056, Note_on_c, 1, 56, 70
3, 134056, Note_on_c, 1, 52, 70
3, 134056, Note_on_c, 1, 40, 70
3, 134088, Note_on_c, 1, 40, 0
3, 134088, Note_on_c, 1, 61, 0
3, 134088, Note_on_c, 1, 56, 0
3, 134088, Note_on_c, 1, 52, 0
3, 134104, Note_on_c, 1, 61, 70
3, 134104, Note_on_c, 1, 56, 70
3, 134104, Note_on_c, 1, 52, 70
3, 134104, Note_on_c, 1, 40, 70
3, 134136, Note_on_c, 1, 40, 0
3, 134136, Note_on_c, 1, 61, 0
3, 134136, Note_on_c, 1, 56, 0
3, 134136, Note_on_c, 1, 52, 0
3, 134152, Note_on_c, 1, 61, 70
3, 134152, Note_on_c, 1, 56, 70
3, 134152, Note_on_c, 1, 52, 70
3, 134152, Note_on_c, 1, 40, 70
3, 134184, Note_on_c, 1, 40, 0
3, 134184, Note_on_c, 1, 61, 0
3, 134184, Note_on_c, 1, 56, 0
3, 134184, Note_on_c, 1, 52, 0
3, 134200, Note_on_c, 1, 61, 70
3, 134200, Note_on_c, 1, 56, 70
3, 134200, Note_on_c, 1, 52, 70
3, 134200, Note_on_c, 1, 40, 70
3, 134232, Note_on_c, 1, 40, 0
3, 134232, Note_on_c, 1, 61, 0
3, 134232, Note_on_c, 1, 56, 0
3, 134232, Note_on_c, 1, 52, 0
3, 134248, Note_on_c, 1, 61, 70
3, 134248, Note_on_c, 1, 56, 70
3, 134248, Note_on_c, 1, 52, 70
3, 134280, Note_on_c, 1, 52, 0
3, 134280, Note_on_c, 1, 56, 0
3, 134280, Note_on_c, 1, 61, 0
3, 134296, Note_on_c, 1, 61, 70
3, 134296, Note_on_c, 1, 56, 70
3, 134296, Note_on_c, 1, 52, 70
3, 134328, Note_on_c, 1, 52, 0
3, 134328, Note_on_c, 1, 56, 0
3, 134328, Note_on_c, 1, 61, 0
3, 134344, Note_on_c, 1, 61, 70
3, 134344, Note_on_c, 1, 56, 70
3, 134344, Note_on_c, 1, 52, 70
3, 134376, Note_on_c, 1, 52, 0
3, 134376, Note_on_c, 1, 56, 0
3, 134376, Note_on_c, 1, 61, 0
3, 134392, Note_on_c, 1, 61, 70
3, 134392, Note_on_c, 1, 56, 70
3, 134392, Note_on_c, 1, 52, 70
3, 134424, Note_on_c, 1, 52, 0
3, 134424, Note_on_c, 1, 56, 0
3, 134424, Note_on_c, 1, 61, 0
3, 134440, Note_on_c, 1, 61, 70
3, 134440, Note_on_c, 1, 56, 70
3, 134440, Note_on_c, 1, 52, 70
3, 134472, Note_on_c, 1, 52, 0
3, 134472, Note_on_c, 1, 56, 0
3, 134472, Note_on_c, 1, 61, 0
3, 134488, Note_on_c, 1, 61, 70
3, 134488, Note_on_c, 1, 56, 70
3, 134488, Note_on_c, 1, 52, 70
3, 134520, Note_on_c, 1, 52, 0
3, 134520, Note_on_c, 1, 56, 0
3, 134520, Note_on_c, 1, 61, 0
3, 134536, Note_on_c, 1, 61, 70
3, 134536, Note_on_c, 1, 56, 70
3, 134536, Note_on_c, 1, 52, 70
3, 134568, Note_on_c, 1, 52, 0
3, 134568, Note_on_c, 1, 56, 0
3, 134568, Note_on_c, 1, 61, 0
3, 134584, Note_on_c, 1, 61, 70
3, 134584, Note_on_c, 1, 56, 70
3, 134584, Note_on_c, 1, 52, 70
3, 134616, Note_on_c, 1, 52, 0
3, 134616, Note_on_c, 1, 56, 0
3, 134616, Note_on_c, 1, 61, 0
3, 134632, Note_on_c, 1, 61, 70
3, 134632, Note_on_c, 1, 56, 70
3, 134632, Note_on_c, 1, 52, 70
3, 134664, Note_on_c, 1, 52, 0
3, 134664, Note_on_c, 1, 56, 0
3, 134664, Note_on_c, 1, 61, 0
3, 134680, Note_on_c, 1, 61, 70
3, 134680, Note_on_c, 1, 56, 70
3, 134680, Note_on_c, 1, 52, 70
3, 134712, Note_on_c, 1, 52, 0
3, 134712, Note_on_c, 1, 56, 0
3, 134712, Note_on_c, 1, 61, 0
3, 134728, Note_on_c, 1, 61, 70
3, 134728, Note_on_c, 1, 56, 70
3, 134728, Note_on_c, 1, 52, 70
3, 134760, Note_on_c, 1, 52, 0
3, 134760, Note_on_c, 1, 56, 0
3, 134760, Note_on_c, 1, 61, 0
3, 134792, Note_on_c, 1, 63, 75
3, 134792, Note_on_c, 1, 56, 75
3, 134792, Note_on_c, 1, 54, 75
3, 134792, Note_on_c, 1, 48, 75
3, 134824, Note_on_c, 1, 48, 0
3, 134824, Note_on_c, 1, 63, 0
3, 134824, Note_on_c, 1, 56, 0
3, 134824, Note_on_c, 1, 54, 0
3, 134840, Note_on_c, 1, 63, 75
3, 134840, Note_on_c, 1, 56, 75
3, 134840, Note_on_c, 1, 54, 75
3, 134840, Note_on_c, 1, 48, 75
3, 134872, Note_on_c, 1, 48, 0
3, 134872, Note_on_c, 1, 63, 0
3, 134872, Note_on_c, 1, 56, 0
3, 134872, Note_on_c, 1, 54, 0
3, 134888, Note_on_c, 1, 63, 75
3, 134888, Note_on_c, 1, 56, 75
3, 134888, Note_on_c, 1, 54, 75
3, 134888, Note_on_c, 1, 48, 75
3, 134920, Note_on_c, 1, 48, 0
3, 134920, Note_on_c, 1, 63, 0
3, 134920, Note_on_c, 1, 56, 0
3, 134920, Note_on_c, 1, 54, 0
3, 134936, Note_on_c, 1, 63, 75
3, 134936, Note_on_c, 1, 56, 75
3, 134936, Note_on_c, 1, 54, 75
3, 134936, Note_on_c, 1, 48, 75
3, 134968, Note_on_c, 1, 48, 0
3, 134968, Note_on_c, 1, 63, 0
3, 134968, Note_on_c, 1, 56, 0
3, 134968, Note_on_c, 1, 54, 0
3, 134984, Note_on_c, 1, 63, 75
3, 134984, Note_on_c, 1, 56, 75
3, 134984, Note_on_c, 1, 54, 75
3, 134984, Note_on_c, 1, 48, 75
3, 135016, Note_on_c, 1, 48, 0
3, 135016, Note_on_c, 1, 63, 0
3, 135016, Note_on_c, 1, 56, 0
3, 135016, Note_on_c, 1, 54, 0
3, 135032, Note_on_c, 1, 63, 75
3, 135032, Note_on_c, 1, 56, 75
3, 135032, Note_on_c, 1, 54, 75
3, 135032, Note_on_c, 1, 48, 75
3, 135064, Note_on_c, 1, 48, 0
3, 135064, Note_on_c, 1, 63, 0
3, 135064, Note_on_c, 1, 56, 0
3, 135064, Note_on_c, 1, 54, 0
3, 135080, Note_on_c, 1, 63, 75
3, 135080, Note_on_c, 1, 56, 75
3, 135080, Note_on_c, 1, 54, 75
3, 135080, Note_on_c, 1, 48, 75
3, 135112, Note_on_c, 1, 48, 0
3, 135112, Note_on_c, 1, 63, 0
3, 135112, Note_on_c, 1, 56, 0
3, 135112, Note_on_c, 1, 54, 0
3, 135128, Note_on_c, 1, 63, 75
3, 135128, Note_on_c, 1, 56, 75
3, 135128, Note_on_c, 1, 54, 75
3, 135128, Note_on_c, 1, 48, 75
3, 135160, Note_on_c, 1, 48, 0
3, 135160, Note_on_c, 1, 63, 0
3, 135160, Note_on_c, 1, 56, 0
3, 135160, Note_on_c, 1, 54, 0
3, 135176, Note_on_c, 1, 63, 75
3, 135176, Note_on_c, 1, 56, 75
3, 135176, Note_on_c, 1, 54, 75
3, 135176, Note_on_c, 1, 48, 75
3, 135208, Note_on_c, 1, 48, 0
3, 135208, Note_on_c, 1, 63, 0
3, 135208, Note_on_c, 1, 56, 0
3, 135208, Note_on_c, 1, 54, 0
3, 135224, Note_on_c, 1, 63, 75
3, 135224, Note_on_c, 1, 56, 75
3, 135224, Note_on_c, 1, 54, 75
3, 135224, Note_on_c, 1, 48, 75
3, 135256, Note_on_c, 1, 48, 0
3, 135256, Note_on_c, 1, 63, 0
3, 135256, Note_on_c, 1, 56, 0
3, 135256, Note_on_c, 1, 54, 0
3, 135272, Note_on_c, 1, 63, 75
3, 135272, Note_on_c, 1, 56, 75
3, 135272, Note_on_c, 1, 54, 75
3, 135272, Note_on_c, 1, 48, 75
3, 135304, Note_on_c, 1, 48, 0
3, 135304, Note_on_c, 1, 63, 0
3, 135304, Note_on_c, 1, 56, 0
3, 135304, Note_on_c, 1, 54, 0
3, 135320, Note_on_c, 1, 63, 75
3, 135320, Note_on_c, 1, 56, 75
3, 135320, Note_on_c, 1, 54, 75
3, 135320, Note_on_c, 1, 48, 75
3, 135352, Note_on_c, 1, 48, 0
3, 135352, Note_on_c, 1, 63, 0
3, 135352, Note_on_c, 1, 56, 0
3, 135352, Note_on_c, 1, 54, 0
3, 135368, Note_on_c, 1, 63, 75
3, 135368, Note_on_c, 1, 56, 75
3, 135368, Note_on_c, 1, 54, 75
3, 135368, Note_on_c, 1, 48, 75
3, 135400, Note_on_c, 1, 48, 0
3, 135400, Note_on_c, 1, 63, 0
3, 135400, Note_on_c, 1, 56, 0
3, 135400, Note_on_c, 1, 54, 0
3, 135416, Note_on_c, 1, 63, 75
3, 135416, Note_on_c, 1, 56, 75
3, 135416, Note_on_c, 1, 54, 75
3, 135416, Note_on_c, 1, 48, 75
3, 135448, Note_on_c, 1, 48, 0
3, 135448, Note_on_c, 1, 63, 0
3, 135448, Note_on_c, 1, 56, 0
3, 135448, Note_on_c, 1, 54, 0
3, 135464, Note_on_c, 1, 63, 75
3, 135464, Note_on_c, 1, 56, 75
3, 135464, Note_on_c, 1, 54, 75
3, 135464, Note_on_c, 1, 48, 75
3, 135496, Note_on_c, 1, 48, 0
3, 135496, Note_on_c, 1, 63, 0
3, 135496, Note_on_c, 1, 56, 0
3, 135496, Note_on_c, 1, 54, 0
3, 135512, Note_on_c, 1, 63, 75
3, 135512, Note_on_c, 1, 56, 75
3, 135512, Note_on_c, 1, 54, 75
3, 135512, Note_on_c, 1, 48, 75
3, 135544, Note_on_c, 1, 48, 0
3, 135544, Note_on_c, 1, 63, 0
3, 135544, Note_on_c, 1, 56, 0
3, 135544, Note_on_c, 1, 54, 0
3, 135560, Note_on_c, 1, 63, 75
3, 135560, Note_on_c, 1, 56, 75
3, 135560, Note_on_c, 1, 54, 75
3, 135560, Note_on_c, 1, 48, 75
3, 135592, Note_on_c, 1, 48, 0
3, 135592, Note_on_c, 1, 63, 0
3, 135592, Note_on_c, 1, 56, 0
3, 135592, Note_on_c, 1, 54, 0
3, 135608, Note_on_c, 1, 63, 75
3, 135608, Note_on_c, 1, 56, 75
3, 135608, Note_on_c, 1, 54, 75
3, 135608, Note_on_c, 1, 48, 75
3, 135640, Note_on_c, 1, 48, 0
3, 135640, Note_on_c, 1, 63, 0
3, 135640, Note_on_c, 1, 56, 0
3, 135640, Note_on_c, 1, 54, 0
3, 135656, Note_on_c, 1, 63, 75
3, 135656, Note_on_c, 1, 56, 75
3, 135656, Note_on_c, 1, 54, 75
3, 135656, Note_on_c, 1, 48, 75
3, 135688, Note_on_c, 1, 48, 0
3, 135688, Note_on_c, 1, 63, 0
3, 135688, Note_on_c, 1, 56, 0
3, 135688, Note_on_c, 1, 54, 0
3, 135704, Note_on_c, 1, 63, 75
3, 135704, Note_on_c, 1, 56, 75
3, 135704, Note_on_c, 1, 54, 75
3, 135704, Note_on_c, 1, 48, 75
3, 135736, Note_on_c, 1, 48, 0
3, 135736, Note_on_c, 1, 63, 0
3, 135736, Note_on_c, 1, 56, 0
3, 135736, Note_on_c, 1, 54, 0
3, 135752, Note_on_c, 1, 63, 75
3, 135752, Note_on_c, 1, 56, 75
3, 135752, Note_on_c, 1, 54, 75
3, 135752, Note_on_c, 1, 48, 75
3, 135784, Note_on_c, 1, 48, 0
3, 135784, Note_on_c, 1, 63, 0
3, 135784, Note_on_c, 1, 56, 0
3, 135784, Note_on_c, 1, 54, 0
3, 135800, Note_on_c, 1, 63, 75
3, 135800, Note_on_c, 1, 56, 75
3, 135800, Note_on_c, 1, 54, 75
3, 135800, Note_on_c, 1, 48, 75
3, 135832, Note_on_c, 1, 48, 0
3, 135832, Note_on_c, 1, 63, 0
3, 135832, Note_on_c, 1, 56, 0
3, 135832, Note_on_c, 1, 54, 0
3, 135848, Note_on_c, 1, 63, 75
3, 135848, Note_on_c, 1, 56, 75
3, 135848, Note_on_c, 1, 54, 75
3, 135848, Note_on_c, 1, 48, 75
3, 135880, Note_on_c, 1, 48, 0
3, 135880, Note_on_c, 1, 63, 0
3, 135880, Note_on_c, 1, 56, 0
3, 135880, Note_on_c, 1, 54, 0
3, 135896, Note_on_c, 1, 63, 75
3, 135896, Note_on_c, 1, 56, 75
3, 135896, Note_on_c, 1, 54, 75
3, 135896, Note_on_c, 1, 48, 75
3, 135928, Note_on_c, 1, 48, 0
3, 135928, Note_on_c, 1, 63, 0
3, 135928, Note_on_c, 1, 56, 0
3, 135928, Note_on_c, 1, 54, 0
3, 135944, Note_on_c, 1, 63, 75
3, 135944, Note_on_c, 1, 56, 75
3, 135944, Note_on_c, 1, 54, 75
3, 135944, Note_on_c, 1, 48, 75
3, 135976, Note_on_c, 1, 48, 0
3, 135976, Note_on_c, 1, 63, 0
3, 135976, Note_on_c, 1, 56, 0
3, 135976, Note_on_c, 1, 54, 0
3, 135992, Note_on_c, 1, 63, 75
3, 135992, Note_on_c, 1, 56, 75
3, 135992, Note_on_c, 1, 54, 75
3, 135992, Note_on_c, 1, 48, 75
3, 136024, Note_on_c, 1, 48, 0
3, 136024, Note_on_c, 1, 63, 0
3, 136024, Note_on_c, 1, 56, 0
3, 136024, Note_on_c, 1, 54, 0
3, 136040, Note_on_c, 1, 63, 75
3, 136040, Note_on_c, 1, 56, 75
3, 136040, Note_on_c, 1, 54, 75
3, 136040, Note_on_c, 1, 48, 75
3, 136072, Note_on_c, 1, 48, 0
3, 136072, Note_on_c, 1, 63, 0
3, 136072, Note_on_c, 1, 56, 0
3, 136072, Note_on_c, 1, 54, 0
3, 136128, Note_on_c, 1, 64, 75
3, 136128, Note_on_c, 1, 56, 75
3, 136128, Note_on_c, 1, 52, 75
3, 136128, Note_on_c, 1, 49, 75
3, 136160, Note_on_c, 1, 49, 0
3, 136160, Note_on_c, 1, 64, 0
3, 136160, Note_on_c, 1, 56, 0
3, 136160, Note_on_c, 1, 52, 0
3, 136176, Note_on_c, 1, 64, 75
3, 136176, Note_on_c, 1, 56, 75
3, 136176, Note_on_c, 1, 52, 75
3, 136176, Note_on_c, 1, 49, 75
3, 136208, Note_on_c, 1, 49, 0
3, 136208, Note_on_c, 1, 64, 0
3, 136208, Note_on_c, 1, 56, 0
3, 136208, Note_on_c, 1, 52, 0
3, 136224, Note_on_c, 1, 64, 75
3, 136224, Note_on_c, 1, 56, 75
3, 136224, Note_on_c, 1, 52, 75
3, 136224, Note_on_c, 1, 49, 75
3, 136256, Note_on_c, 1, 49, 0
3, 136256, Note_on_c, 1, 64, 0
3, 136256, Note_on_c, 1, 56, 0
3, 136256, Note_on_c, 1, 52, 0
3, 136272, Note_on_c, 1, 64, 75
3, 136272, Note_on_c, 1, 56, 75
3, 136272, Note_on_c, 1, 52, 75
3, 136272, Note_on_c, 1, 49, 75
3, 136304, Note_on_c, 1, 49, 0
3, 136304, Note_on_c, 1, 64, 0
3, 136304, Note_on_c, 1, 56, 0
3, 136304, Note_on_c, 1, 52, 0
3, 136320, Note_on_c, 1, 64, 75
3, 136320, Note_on_c, 1, 56, 75
3, 136320, Note_on_c, 1, 52, 75
3, 136320, Note_on_c, 1, 49, 75
3, 136352, Note_on_c, 1, 49, 0
3, 136352, Note_on_c, 1, 64, 0
3, 136352, Note_on_c, 1, 56, 0
3, 136352, Note_on_c, 1, 52, 0
3, 136368, Note_on_c, 1, 64, 75
3, 136368, Note_on_c, 1, 56, 75
3, 136368, Note_on_c, 1, 52, 75
3, 136368, Note_on_c, 1, 49, 75
3, 136400, Note_on_c, 1, 49, 0
3, 136400, Note_on_c, 1, 64, 0
3, 136400, Note_on_c, 1, 56, 0
3, 136400, Note_on_c, 1, 52, 0
3, 136416, Note_on_c, 1, 64, 75
3, 136416, Note_on_c, 1, 56, 75
3, 136416, Note_on_c, 1, 52, 75
3, 136416, Note_on_c, 1, 49, 75
3, 136448, Note_on_c, 1, 49, 0
3, 136448, Note_on_c, 1, 64, 0
3, 136448, Note_on_c, 1, 56, 0
3, 136448, Note_on_c, 1, 52, 0
3, 136464, Note_on_c, 1, 64, 75
3, 136464, Note_on_c, 1, 56, 75
3, 136464, Note_on_c, 1, 52, 75
3, 136464, Note_on_c, 1, 49, 75
3, 136496, Note_on_c, 1, 49, 0
3, 136496, Note_on_c, 1, 64, 0
3, 136496, Note_on_c, 1, 56, 0
3, 136496, Note_on_c, 1, 52, 0
3, 136512, Note_on_c, 1, 64, 75
3, 136512, Note_on_c, 1, 56, 75
3, 136512, Note_on_c, 1, 52, 75
3, 136512, Note_on_c, 1, 49, 75
3, 136544, Note_on_c, 1, 49, 0
3, 136544, Note_on_c, 1, 64, 0
3, 136544, Note_on_c, 1, 56, 0
3, 136544, Note_on_c, 1, 52, 0
3, 136560, Note_on_c, 1, 64, 75
3, 136560, Note_on_c, 1, 56, 75
3, 136560, Note_on_c, 1, 52, 75
3, 136560, Note_on_c, 1, 49, 75
3, 136592, Note_on_c, 1, 49, 0
3, 136592, Note_on_c, 1, 64, 0
3, 136592, Note_on_c, 1, 56, 0
3, 136592, Note_on_c, 1, 52, 0
3, 136608, Note_on_c, 1, 64, 75
3, 136608, Note_on_c, 1, 56, 75
3, 136608, Note_on_c, 1, 52, 75
3, 136608, Note_on_c, 1, 49, 75
3, 136640, Note_on_c, 1, 49, 0
3, 136640, Note_on_c, 1, 64, 0
3, 136640, Note_on_c, 1, 56, 0
3, 136640, Note_on_c, 1, 52, 0
3, 136656, Note_on_c, 1, 64, 75
3, 136656, Note_on_c, 1, 56, 75
3, 136656, Note_on_c, 1, 52, 75
3, 136656, Note_on_c, 1, 49, 75
3, 136688, Note_on_c, 1, 49, 0
3, 136688, Note_on_c, 1, 64, 0
3, 136688, Note_on_c, 1, 56, 0
3, 136688, Note_on_c, 1, 52, 0
3, 136704, Note_on_c, 1, 64, 75
3, 136704, Note_on_c, 1, 56, 75
3, 136704, Note_on_c, 1, 52, 75
3, 136704, Note_on_c, 1, 49, 75
3, 136736, Note_on_c, 1, 49, 0
3, 136736, Note_on_c, 1, 64, 0
3, 136736, Note_on_c, 1, 56, 0
3, 136736, Note_on_c, 1, 52, 0
3, 136752, Note_on_c, 1, 64, 75
3, 136752, Note_on_c, 1, 56, 75
3, 136752, Note_on_c, 1, 52, 75
3, 136752, Note_on_c, 1, 49, 75
3, 136784, Note_on_c, 1, 49, 0
3, 136784, Note_on_c, 1, 64, 0
3, 136784, Note_on_c, 1, 56, 0
3, 136784, Note_on_c, 1, 52, 0
3, 136800, Note_on_c, 1, 64, 75
3, 136800, Note_on_c, 1, 56, 75
3, 136800, Note_on_c, 1, 52, 75
3, 136800, Note_on_c, 1, 49, 75
3, 136832, Note_on_c, 1, 49, 0
3, 136832, Note_on_c, 1, 64, 0
3, 136832, Note_on_c, 1, 56, 0
3, 136832, Note_on_c, 1, 52, 0
3, 136848, Note_on_c, 1, 64, 75
3, 136848, Note_on_c, 1, 56, 75
3, 136848, Note_on_c, 1, 52, 75
3, 136848, Note_on_c, 1, 49, 75
3, 136880, Note_on_c, 1, 49, 0
3, 136880, Note_on_c, 1, 64, 0
3, 136880, Note_on_c, 1, 56, 0
3, 136880, Note_on_c, 1, 52, 0
3, 136896, Note_on_c, 1, 64, 75
3, 136896, Note_on_c, 1, 56, 75
3, 136896, Note_on_c, 1, 52, 75
3, 136896, Note_on_c, 1, 49, 75
3, 136928, Note_on_c, 1, 49, 0
3, 136928, Note_on_c, 1, 64, 0
3, 136928, Note_on_c, 1, 56, 0
3, 136928, Note_on_c, 1, 52, 0
3, 136944, Note_on_c, 1, 64, 75
3, 136944, Note_on_c, 1, 56, 75
3, 136944, Note_on_c, 1, 52, 75
3, 136944, Note_on_c, 1, 49, 75
3, 136976, Note_on_c, 1, 49, 0
3, 136976, Note_on_c, 1, 64, 0
3, 136976, Note_on_c, 1, 56, 0
3, 136976, Note_on_c, 1, 52, 0
3, 136992, Note_on_c, 1, 64, 75
3, 136992, Note_on_c, 1, 56, 75
3, 136992, Note_on_c, 1, 52, 75
3, 136992, Note_on_c, 1, 49, 75
3, 137024, Note_on_c, 1, 49, 0
3, 137024, Note_on_c, 1, 64, 0
3, 137024, Note_on_c, 1, 56, 0
3, 137024, Note_on_c, 1, 52, 0
3, 137040, Note_on_c, 1, 64, 75
3, 137040, Note_on_c, 1, 56, 75
3, 137040, Note_on_c, 1, 52, 75
3, 137040, Note_on_c, 1, 49, 75
3, 137072, Note_on_c, 1, 49, 0
3, 137072, Note_on_c, 1, 64, 0
3, 137072, Note_on_c, 1, 56, 0
3, 137072, Note_on_c, 1, 52, 0
3, 137088, Note_on_c, 1, 64, 75
3, 137088, Note_on_c, 1, 56, 75
3, 137088, Note_on_c, 1, 52, 75
3, 137088, Note_on_c, 1, 49, 75
3, 137120, Note_on_c, 1, 49, 0
3, 137120, Note_on_c, 1, 64, 0
3, 137120, Note_on_c, 1, 56, 0
3, 137120, Note_on_c, 1, 52, 0
3, 137136, Note_on_c, 1, 64, 75
3, 137136, Note_on_c, 1, 56, 75
3, 137136, Note_on_c, 1, 52, 75
3, 137136, Note_on_c, 1, 49, 75
3, 137168, Note_on_c, 1, 49, 0
3, 137168, Note_on_c, 1, 64, 0
3, 137168, Note_on_c, 1, 56, 0
3, 137168, Note_on_c, 1, 52, 0
3, 137184, Note_on_c, 1, 64, 75
3, 137184, Note_on_c, 1, 56, 75
3, 137184, Note_on_c, 1, 52, 75
3, 137184, Note_on_c, 1, 49, 75
3, 137216, Note_on_c, 1, 49, 0
3, 137216, Note_on_c, 1, 64, 0
3, 137216, Note_on_c, 1, 56, 0
3, 137216, Note_on_c, 1, 52, 0
3, 137232, Note_on_c, 1, 64, 75
3, 137232, Note_on_c, 1, 56, 75
3, 137232, Note_on_c, 1, 52, 75
3, 137232, Note_on_c, 1, 49, 75
3, 137264, Note_on_c, 1, 49, 0
3, 137264, Note_on_c, 1, 64, 0
3, 137264, Note_on_c, 1, 56, 0
3, 137264, Note_on_c, 1, 52, 0
3, 137280, Note_on_c, 1, 64, 80
3, 137280, Note_on_c, 1, 56, 80
3, 137280, Note_on_c, 1, 58, 80
3, 137280, Note_on_c, 1, 49, 80
3, 137312, Note_on_c, 1, 49, 0
3, 137312, Note_on_c, 1, 64, 0
3, 137312, Note_on_c, 1, 56, 0
3, 137312, Note_on_c, 1, 58, 0
3, 137328, Note_on_c, 1, 64, 80
3, 137328, Note_on_c, 1, 56, 80
3, 137328, Note_on_c, 1, 58, 80
3, 137328, Note_on_c, 1, 49, 80
3, 137360, Note_on_c, 1, 49, 0
3, 137360, Note_on_c, 1, 64, 0
3, 137360, Note_on_c, 1, 56, 0
3, 137360, Note_on_c, 1, 58, 0
3, 137376, Note_on_c, 1, 64, 80
3, 137376, Note_on_c, 1, 56, 80
3, 137376, Note_on_c, 1, 58, 80
3, 137376, Note_on_c, 1, 49, 80
3, 137408, Note_on_c, 1, 49, 0
3, 137408, Note_on_c, 1, 64, 0
3, 137408, Note_on_c, 1, 56, 0
3, 137408, Note_on_c, 1, 58, 0
3, 137424, Note_on_c, 1, 64, 80
3, 137424, Note_on_c, 1, 56, 80
3, 137424, Note_on_c, 1, 58, 80
3, 137424, Note_on_c, 1, 49, 80
3, 137456, Note_on_c, 1, 49, 0
3, 137456, Note_on_c, 1, 64, 0
3, 137456, Note_on_c, 1, 56, 0
3, 137456, Note_on_c, 1, 58, 0
3, 137472, Note_on_c, 1, 64, 80
3, 137472, Note_on_c, 1, 56, 80
3, 137472, Note_on_c, 1, 58, 80
3, 137472, Note_on_c, 1, 49, 80
3, 137504, Note_on_c, 1, 49, 0
3, 137504, Note_on_c, 1, 64, 0
3, 137504, Note_on_c, 1, 56, 0
3, 137504, Note_on_c, 1, 58, 0
3, 137520, Note_on_c, 1, 64, 80
3, 137520, Note_on_c, 1, 56, 80
3, 137520, Note_on_c, 1, 58, 80
3, 137520, Note_on_c, 1, 49, 80
3, 137552, Note_on_c, 1, 49, 0
3, 137552, Note_on_c, 1, 64, 0
3, 137552, Note_on_c, 1, 56, 0
3, 137552, Note_on_c, 1, 58, 0
3, 137568, Note_on_c, 1, 64, 80
3, 137568, Note_on_c, 1, 56, 80
3, 137568, Note_on_c, 1, 58, 80
3, 137568, Note_on_c, 1, 49, 80
3, 137600, Note_on_c, 1, 49, 0
3, 137600, Note_on_c, 1, 64, 0
3, 137600, Note_on_c, 1, 56, 0
3, 137600, Note_on_c, 1, 58, 0
3, 137616, Note_on_c, 1, 64, 80
3, 137616, Note_on_c, 1, 56, 80
3, 137616, Note_on_c, 1, 58, 80
3, 137616, Note_on_c, 1, 49, 80
3, 137648, Note_on_c, 1, 49, 0
3, 137648, Note_on_c, 1, 64, 0
3, 137648, Note_on_c, 1, 56, 0
3, 137648, Note_on_c, 1, 58, 0
3, 137664, Note_on_c, 1, 64, 80
3, 137664, Note_on_c, 1, 56, 80
3, 137664, Note_on_c, 1, 58, 80
3, 137664, Note_on_c, 1, 49, 80
3, 137696, Note_on_c, 1, 49, 0
3, 137696, Note_on_c, 1, 64, 0
3, 137696, Note_on_c, 1, 56, 0
3, 137696, Note_on_c, 1, 58, 0
3, 137712, Note_on_c, 1, 64, 80
3, 137712, Note_on_c, 1, 56, 80
3, 137712, Note_on_c, 1, 58, 80
3, 137712, Note_on_c, 1, 49, 80
3, 137744, Note_on_c, 1, 49, 0
3, 137744, Note_on_c, 1, 64, 0
3, 137744, Note_on_c, 1, 56, 0
3, 137744, Note_on_c, 1, 58, 0
3, 137760, Note_on_c, 1, 64, 80
3, 137760, Note_on_c, 1, 56, 80
3, 137760, Note_on_c, 1, 58, 80
3, 137760, Note_on_c, 1, 49, 80
3, 137792, Note_on_c, 1, 49, 0
3, 137792, Note_on_c, 1, 64, 0
3, 137792, Note_on_c, 1, 56, 0
3, 137792, Note_on_c, 1, 58, 0
3, 137808, Note_on_c, 1, 64, 80
3, 137808, Note_on_c, 1, 56, 80
3, 137808, Note_on_c, 1, 58, 80
3, 137808, Note_on_c, 1, 49, 80
3, 137840, Note_on_c, 1, 49, 0
3, 137840, Note_on_c, 1, 64, 0
3, 137840, Note_on_c, 1, 56, 0
3, 137840, Note_on_c, 1, 58, 0
3, 137856, Note_on_c, 1, 64, 80
3, 137856, Note_on_c, 1, 56, 80
3, 137856, Note_on_c, 1, 58, 80
3, 137856, Note_on_c, 1, 49, 80
3, 137888, Note_on_c, 1, 49, 0
3, 137888, Note_on_c, 1, 64, 0
3, 137888, Note_on_c, 1, 56, 0
3, 137888, Note_on_c, 1, 58, 0
3, 137904, Note_on_c, 1, 64, 80
3, 137904, Note_on_c, 1, 56, 80
3, 137904, Note_on_c, 1, 58, 80
3, 137904, Note_on_c, 1, 49, 80
3, 137936, Note_on_c, 1, 49, 0
3, 137936, Note_on_c, 1, 64, 0
3, 137936, Note_on_c, 1, 56, 0
3, 137936, Note_on_c, 1, 58, 0
3, 137952, Note_on_c, 1, 64, 80
3, 137952, Note_on_c, 1, 56, 80
3, 137952, Note_on_c, 1, 58, 80
3, 137952, Note_on_c, 1, 49, 80
3, 137984, Note_on_c, 1, 49, 0
3, 137984, Note_on_c, 1, 64, 0
3, 137984, Note_on_c, 1, 56, 0
3, 137984, Note_on_c, 1, 58, 0
3, 138000, Note_on_c, 1, 64, 80
3, 138000, Note_on_c, 1, 56, 80
3, 138000, Note_on_c, 1, 58, 80
3, 138000, Note_on_c, 1, 49, 80
3, 138032, Note_on_c, 1, 49, 0
3, 138032, Note_on_c, 1, 64, 0
3, 138032, Note_on_c, 1, 56, 0
3, 138032, Note_on_c, 1, 58, 0
3, 138048, Note_on_c, 1, 64, 80
3, 138048, Note_on_c, 1, 56, 80
3, 138048, Note_on_c, 1, 58, 80
3, 138048, Note_on_c, 1, 49, 80
3, 138080, Note_on_c, 1, 49, 0
3, 138080, Note_on_c, 1, 64, 0
3, 138080, Note_on_c, 1, 56, 0
3, 138080, Note_on_c, 1, 58, 0
3, 138096, Note_on_c, 1, 64, 80
3, 138096, Note_on_c, 1, 56, 80
3, 138096, Note_on_c, 1, 58, 80
3, 138096, Note_on_c, 1, 49, 80
3, 138128, Note_on_c, 1, 49, 0
3, 138128, Note_on_c, 1, 64, 0
3, 138128, Note_on_c, 1, 56, 0
3, 138128, Note_on_c, 1, 58, 0
3, 138144, Note_on_c, 1, 64, 80
3, 138144, Note_on_c, 1, 56, 80
3, 138144, Note_on_c, 1, 58, 80
3, 138144, Note_on_c, 1, 49, 80
3, 138176, Note_on_c, 1, 49, 0
3, 138176, Note_on_c, 1, 64, 0
3, 138176, Note_on_c, 1, 56, 0
3, 138176, Note_on_c, 1, 58, 0
3, 138192, Note_on_c, 1, 64, 80
3, 138192, Note_on_c, 1, 56, 80
3, 138192, Note_on_c, 1, 58, 80
3, 138192, Note_on_c, 1, 49, 80
3, 138224, Note_on_c, 1, 49, 0
3, 138224, Note_on_c, 1, 64, 0
3, 138224, Note_on_c, 1, 56, 0
3, 138224, Note_on_c, 1, 58, 0
3, 138240, Note_on_c, 1, 64, 80
3, 138240, Note_on_c, 1, 56, 80
3, 138240, Note_on_c, 1, 58, 80
3, 138240, Note_on_c, 1, 49, 80
3, 138272, Note_on_c, 1, 49, 0
3, 138272, Note_on_c, 1, 64, 0
3, 138272, Note_on_c, 1, 56, 0
3, 138272, Note_on_c, 1, 58, 0
3, 138288, Note_on_c, 1, 64, 80
3, 138288, Note_on_c, 1, 56, 80
3, 138288, Note_on_c, 1, 58, 80
3, 138288, Note_on_c, 1, 49, 80
3, 138320, Note_on_c, 1, 49, 0
3, 138320, Note_on_c, 1, 64, 0
3, 138320, Note_on_c, 1, 56, 0
3, 138320, Note_on_c, 1, 58, 0
3, 138336, Note_on_c, 1, 64, 80
3, 138336, Note_on_c, 1, 56, 80
3, 138336, Note_on_c, 1, 58, 80
3, 138336, Note_on_c, 1, 49, 80
3, 138368, Note_on_c, 1, 49, 0
3, 138368, Note_on_c, 1, 64, 0
3, 138368, Note_on_c, 1, 56, 0
3, 138368, Note_on_c, 1, 58, 0
3, 138384, Note_on_c, 1, 64, 80
3, 138384, Note_on_c, 1, 56, 80
3, 138384, Note_on_c, 1, 58, 80
3, 138384, Note_on_c, 1, 49, 80
3, 138416, Note_on_c, 1, 49, 0
3, 138416, Note_on_c, 1, 64, 0
3, 138416, Note_on_c, 1, 56, 0
3, 138416, Note_on_c, 1, 58, 0
3, 138428, Note_on_c, 1, 65, 90
3, 138428, Note_on_c, 1, 56, 90
3, 138428, Note_on_c, 1, 59, 90
3, 138428, Note_on_c, 1, 50, 90
3, 138460, Note_on_c, 1, 50, 0
3, 138460, Note_on_c, 1, 65, 0
3, 138460, Note_on_c, 1, 56, 0
3, 138460, Note_on_c, 1, 59, 0
3, 138476, Note_on_c, 1, 65, 90
3, 138476, Note_on_c, 1, 56, 90
3, 138476, Note_on_c, 1, 59, 90
3, 138476, Note_on_c, 1, 50, 90
3, 138508, Note_on_c, 1, 50, 0
3, 138508, Note_on_c, 1, 65, 0
3, 138508, Note_on_c, 1, 56, 0
3, 138508, Note_on_c, 1, 59, 0
3, 138524, Note_on_c, 1, 65, 90
3, 138524, Note_on_c, 1, 56, 90
3, 138524, Note_on_c, 1, 59, 90
3, 138524, Note_on_c, 1, 50, 90
3, 138556, Note_on_c, 1, 50, 0
3, 138556, Note_on_c, 1, 65, 0
3, 138556, Note_on_c, 1, 56, 0
3, 138556, Note_on_c, 1, 59, 0
3, 138572, Note_on_c, 1, 65, 90
3, 138572, Note_on_c, 1, 56, 90
3, 138572, Note_on_c, 1, 59, 90
3, 138572, Note_on_c, 1, 50, 90
3, 138604, Note_on_c, 1, 50, 0
3, 138604, Note_on_c, 1, 65, 0
3, 138604, Note_on_c, 1, 56, 0
3, 138604, Note_on_c, 1, 59, 0
3, 138620, Note_on_c, 1, 65, 90
3, 138620, Note_on_c, 1, 56, 90
3, 138620, Note_on_c, 1, 59, 90
3, 138620, Note_on_c, 1, 50, 90
3, 138652, Note_on_c, 1, 50, 0
3, 138652, Note_on_c, 1, 65, 0
3, 138652, Note_on_c, 1, 56, 0
3, 138652, Note_on_c, 1, 59, 0
3, 138668, Note_on_c, 1, 65, 90
3, 138668, Note_on_c, 1, 56, 90
3, 138668, Note_on_c, 1, 59, 90
3, 138668, Note_on_c, 1, 50, 90
3, 138700, Note_on_c, 1, 50, 0
3, 138700, Note_on_c, 1, 65, 0
3, 138700, Note_on_c, 1, 56, 0
3, 138700, Note_on_c, 1, 59, 0
3, 138716, Note_on_c, 1, 65, 90
3, 138716, Note_on_c, 1, 56, 90
3, 138716, Note_on_c, 1, 59, 90
3, 138716, Note_on_c, 1, 50, 90
3, 138748, Note_on_c, 1, 50, 0
3, 138748, Note_on_c, 1, 65, 0
3, 138748, Note_on_c, 1, 56, 0
3, 138748, Note_on_c, 1, 59, 0
3, 138764, Note_on_c, 1, 65, 90
3, 138764, Note_on_c, 1, 56, 90
3, 138764, Note_on_c, 1, 59, 90
3, 138764, Note_on_c, 1, 50, 90
3, 138796, Note_on_c, 1, 50, 0
3, 138796, Note_on_c, 1, 65, 0
3, 138796, Note_on_c, 1, 56, 0
3, 138796, Note_on_c, 1, 59, 0
3, 138812, Note_on_c, 1, 65, 90
3, 138812, Note_on_c, 1, 56, 90
3, 138812, Note_on_c, 1, 59, 90
3, 138812, Note_on_c, 1, 50, 90
3, 138844, Note_on_c, 1, 50, 0
3, 138844, Note_on_c, 1, 65, 0
3, 138844, Note_on_c, 1, 56, 0
3, 138844, Note_on_c, 1, 59, 0
3, 138860, Note_on_c, 1, 65, 90
3, 138860, Note_on_c, 1, 56, 90
3, 138860, Note_on_c, 1, 59, 90
3, 138860, Note_on_c, 1, 50, 90
3, 138892, Note_on_c, 1, 50, 0
3, 138892, Note_on_c, 1, 65, 0
3, 138892, Note_on_c, 1, 56, 0
3, 138892, Note_on_c, 1, 59, 0
3, 138908, Note_on_c, 1, 65, 90
3, 138908, Note_on_c, 1, 56, 90
3, 138908, Note_on_c, 1, 59, 90
3, 138908, Note_on_c, 1, 50, 90
3, 138940, Note_on_c, 1, 50, 0
3, 138940, Note_on_c, 1, 65, 0
3, 138940, Note_on_c, 1, 56, 0
3, 138940, Note_on_c, 1, 59, 0
3, 138956, Note_on_c, 1, 65, 90
3, 138956, Note_on_c, 1, 56, 90
3, 138956, Note_on_c, 1, 59, 90
3, 138956, Note_on_c, 1, 50, 90
3, 138988, Note_on_c, 1, 50, 0
3, 138988, Note_on_c, 1, 65, 0
3, 138988, Note_on_c, 1, 56, 0
3, 138988, Note_on_c, 1, 59, 0
3, 139004, Note_on_c, 1, 65, 90
3, 139004, Note_on_c, 1, 56, 90
3, 139004, Note_on_c, 1, 59, 90
3, 139004, Note_on_c, 1, 50, 90
3, 139036, Note_on_c, 1, 50, 0
3, 139036, Note_on_c, 1, 65, 0
3, 139036, Note_on_c, 1, 56, 0
3, 139036, Note_on_c, 1, 59, 0
3, 139052, Note_on_c, 1, 65, 90
3, 139052, Note_on_c, 1, 56, 90
3, 139052, Note_on_c, 1, 59, 90
3, 139052, Note_on_c, 1, 50, 90
3, 139084, Note_on_c, 1, 50, 0
3, 139084, Note_on_c, 1, 65, 0
3, 139084, Note_on_c, 1, 56, 0
3, 139084, Note_on_c, 1, 59, 0
3, 139100, Note_on_c, 1, 65, 90
3, 139100, Note_on_c, 1, 56, 90
3, 139100, Note_on_c, 1, 59, 90
3, 139100, Note_on_c, 1, 50, 90
3, 139132, Note_on_c, 1, 50, 0
3, 139132, Note_on_c, 1, 65, 0
3, 139132, Note_on_c, 1, 56, 0
3, 139132, Note_on_c, 1, 59, 0
3, 139148, Note_on_c, 1, 65, 90
3, 139148, Note_on_c, 1, 56, 90
3, 139148, Note_on_c, 1, 59, 90
3, 139148, Note_on_c, 1, 50, 90
3, 139180, Note_on_c, 1, 50, 0
3, 139180, Note_on_c, 1, 65, 0
3, 139180, Note_on_c, 1, 56, 0
3, 139180, Note_on_c, 1, 59, 0
3, 139196, Note_on_c, 1, 65, 90
3, 139196, Note_on_c, 1, 56, 90
3, 139196, Note_on_c, 1, 59, 90
3, 139196, Note_on_c, 1, 50, 90
3, 139228, Note_on_c, 1, 50, 0
3, 139228, Note_on_c, 1, 65, 0
3, 139228, Note_on_c, 1, 56, 0
3, 139228, Note_on_c, 1, 59, 0
3, 139244, Note_on_c, 1, 65, 90
3, 139244, Note_on_c, 1, 56, 90
3, 139244, Note_on_c, 1, 59, 90
3, 139244, Note_on_c, 1, 50, 90
3, 139276, Note_on_c, 1, 50, 0
3, 139276, Note_on_c, 1, 65, 0
3, 139276, Note_on_c, 1, 56, 0
3, 139276, Note_on_c, 1, 59, 0
3, 139292, Note_on_c, 1, 65, 90
3, 139292, Note_on_c, 1, 56, 90
3, 139292, Note_on_c, 1, 59, 90
3, 139292, Note_on_c, 1, 50, 90
3, 139324, Note_on_c, 1, 50, 0
3, 139324, Note_on_c, 1, 65, 0
3, 139324, Note_on_c, 1, 56, 0
3, 139324, Note_on_c, 1, 59, 0
3, 139340, Note_on_c, 1, 65, 90
3, 139340, Note_on_c, 1, 56, 90
3, 139340, Note_on_c, 1, 59, 90
3, 139340, Note_on_c, 1, 50, 90
3, 139372, Note_on_c, 1, 50, 0
3, 139372, Note_on_c, 1, 65, 0
3, 139372, Note_on_c, 1, 56, 0
3, 139372, Note_on_c, 1, 59, 0
3, 139388, Note_on_c, 1, 65, 90
3, 139388, Note_on_c, 1, 56, 90
3, 139388, Note_on_c, 1, 59, 90
3, 139388, Note_on_c, 1, 50, 90
3, 139420, Note_on_c, 1, 50, 0
3, 139420, Note_on_c, 1, 65, 0
3, 139420, Note_on_c, 1, 56, 0
3, 139420, Note_on_c, 1, 59, 0
3, 139436, Note_on_c, 1, 65, 90
3, 139436, Note_on_c, 1, 56, 90
3, 139436, Note_on_c, 1, 59, 90
3, 139436, Note_on_c, 1, 50, 90
3, 139468, Note_on_c, 1, 50, 0
3, 139468, Note_on_c, 1, 65, 0
3, 139468, Note_on_c, 1, 56, 0
3, 139468, Note_on_c, 1, 59, 0
3, 139484, Note_on_c, 1, 65, 90
3, 139484, Note_on_c, 1, 56, 90
3, 139484, Note_on_c, 1, 59, 90
3, 139484, Note_on_c, 1, 50, 90
3, 139516, Note_on_c, 1, 50, 0
3, 139516, Note_on_c, 1, 65, 0
3, 139516, Note_on_c, 1, 56, 0
3, 139516, Note_on_c, 1, 59, 0
3, 139532, Note_on_c, 1, 65, 90
3, 139532, Note_on_c, 1, 56, 90
3, 139532, Note_on_c, 1, 59, 90
3, 139532, Note_on_c, 1, 50, 90
3, 139564, Note_on_c, 1, 50, 0
3, 139564, Note_on_c, 1, 65, 0
3, 139564, Note_on_c, 1, 56, 0
3, 139564, Note_on_c, 1, 59, 0
3, 139580, Note_on_c, 1, 65, 90
3, 139580, Note_on_c, 1, 56, 90
3, 139580, Note_on_c, 1, 59, 90
3, 139580, Note_on_c, 1, 50, 90
3, 139612, Note_on_c, 1, 50, 0
3, 139612, Note_on_c, 1, 65, 0
3, 139612, Note_on_c, 1, 56, 0
3, 139612, Note_on_c, 1, 59, 0
3, 139628, Note_on_c, 1, 65, 90
3, 139628, Note_on_c, 1, 56, 90
3, 139628, Note_on_c, 1, 59, 90
3, 139628, Note_on_c, 1, 50, 90
3, 139660, Note_on_c, 1, 50, 0
3, 139660, Note_on_c, 1, 65, 0
3, 139660, Note_on_c, 1, 56, 0
3, 139660, Note_on_c, 1, 59, 0
3, 139676, Note_on_c, 1, 65, 90
3, 139676, Note_on_c, 1, 56, 90
3, 139676, Note_on_c, 1, 59, 90
3, 139676, Note_on_c, 1, 50, 90
3, 139708, Note_on_c, 1, 50, 0
3, 139708, Note_on_c, 1, 65, 0
3, 139708, Note_on_c, 1, 56, 0
3, 139708, Note_on_c, 1, 59, 0
3, 139724, Note_on_c, 1, 65, 90
3, 139724, Note_on_c, 1, 56, 90
3, 139724, Note_on_c, 1, 59, 90
3, 139724, Note_on_c, 1, 50, 90
3, 139756, Note_on_c, 1, 50, 0
3, 139756, Note_on_c, 1, 65, 0
3, 139756, Note_on_c, 1, 56, 0
3, 139756, Note_on_c, 1, 59, 0
3, 139772, Note_on_c, 1, 65, 90
3, 139772, Note_on_c, 1, 56, 90
3, 139772, Note_on_c, 1, 59, 90
3, 139772, Note_on_c, 1, 50, 90
3, 139804, Note_on_c, 1, 50, 0
3, 139804, Note_on_c, 1, 65, 0
3, 139804, Note_on_c, 1, 56, 0
3, 139804, Note_on_c, 1, 59, 0
3, 139820, Note_on_c, 1, 65, 90
3, 139820, Note_on_c, 1, 56, 90
3, 139820, Note_on_c, 1, 59, 90
3, 139820, Note_on_c, 1, 50, 90
3, 139852, Note_on_c, 1, 50, 0
3, 139852, Note_on_c, 1, 65, 0
3, 139852, Note_on_c, 1, 56, 0
3, 139852, Note_on_c, 1, 59, 0
3, 139868, Note_on_c, 1, 65, 90
3, 139868, Note_on_c, 1, 56, 90
3, 139868, Note_on_c, 1, 59, 90
3, 139868, Note_on_c, 1, 50, 90
3, 139900, Note_on_c, 1, 50, 0
3, 139900, Note_on_c, 1, 65, 0
3, 139900, Note_on_c, 1, 56, 0
3, 139900, Note_on_c, 1, 59, 0
3, 139916, Note_on_c, 1, 65, 90
3, 139916, Note_on_c, 1, 56, 90
3, 139916, Note_on_c, 1, 59, 90
3, 139916, Note_on_c, 1, 50, 90
3, 139948, Note_on_c, 1, 50, 0
3, 139948, Note_on_c, 1, 65, 0
3, 139948, Note_on_c, 1, 56, 0
3, 139948, Note_on_c, 1, 59, 0
3, 139964, Note_on_c, 1, 65, 90
3, 139964, Note_on_c, 1, 56, 90
3, 139964, Note_on_c, 1, 59, 90
3, 139964, Note_on_c, 1, 50, 90
3, 139996, Note_on_c, 1, 50, 0
3, 139996, Note_on_c, 1, 65, 0
3, 139996, Note_on_c, 1, 56, 0
3, 139996, Note_on_c, 1, 59, 0
3, 140012, Note_on_c, 1, 65, 90
3, 140012, Note_on_c, 1, 56, 90
3, 140012, Note_on_c, 1, 59, 90
3, 140012, Note_on_c, 1, 50, 90
3, 140044, Note_on_c, 1, 50, 0
3, 140044, Note_on_c, 1, 65, 0
3, 140044, Note_on_c, 1, 56, 0
3, 140044, Note_on_c, 1, 59, 0
3, 140060, Note_on_c, 1, 65, 90
3, 140060, Note_on_c, 1, 56, 90
3, 140060, Note_on_c, 1, 59, 90
3, 140060, Note_on_c, 1, 50, 90
3, 140092, Note_on_c, 1, 50, 0
3, 140092, Note_on_c, 1, 65, 0
3, 140092, Note_on_c, 1, 56, 0
3, 140092, Note_on_c, 1, 59, 0
3, 140108, Note_on_c, 1, 65, 90
3, 140108, Note_on_c, 1, 56, 90
3, 140108, Note_on_c, 1, 59, 90
3, 140108, Note_on_c, 1, 50, 90
3, 140140, Note_on_c, 1, 50, 0
3, 140140, Note_on_c, 1, 65, 0
3, 140140, Note_on_c, 1, 56, 0
3, 140140, Note_on_c, 1, 59, 0
3, 140156, Note_on_c, 1, 65, 90
3, 140156, Note_on_c, 1, 56, 90
3, 140156, Note_on_c, 1, 59, 90
3, 140156, Note_on_c, 1, 50, 90
3, 140188, Note_on_c, 1, 50, 0
3, 140188, Note_on_c, 1, 65, 0
3, 140188, Note_on_c, 1, 56, 0
3, 140188, Note_on_c, 1, 59, 0
3, 140204, Note_on_c, 1, 65, 90
3, 140204, Note_on_c, 1, 56, 90
3, 140204, Note_on_c, 1, 59, 90
3, 140204, Note_on_c, 1, 50, 90
3, 140236, Note_on_c, 1, 50, 0
3, 140236, Note_on_c, 1, 65, 0
3, 140236, Note_on_c, 1, 56, 0
3, 140236, Note_on_c, 1, 59, 0
3, 140252, Note_on_c, 1, 65, 90
3, 140252, Note_on_c, 1, 56, 90
3, 140252, Note_on_c, 1, 59, 90
3, 140252, Note_on_c, 1, 50, 90
3, 140284, Note_on_c, 1, 50, 0
3, 140284, Note_on_c, 1, 65, 0
3, 140284, Note_on_c, 1, 56, 0
3, 140284, Note_on_c, 1, 59, 0
3, 140300, Note_on_c, 1, 65, 90
3, 140300, Note_on_c, 1, 56, 90
3, 140300, Note_on_c, 1, 59, 90
3, 140300, Note_on_c, 1, 50, 90
3, 140332, Note_on_c, 1, 50, 0
3, 140332, Note_on_c, 1, 65, 0
3, 140332, Note_on_c, 1, 56, 0
3, 140332, Note_on_c, 1, 59, 0
3, 140348, Note_on_c, 1, 65, 90
3, 140348, Note_on_c, 1, 56, 90
3, 140348, Note_on_c, 1, 59, 90
3, 140348, Note_on_c, 1, 50, 90
3, 140380, Note_on_c, 1, 50, 0
3, 140380, Note_on_c, 1, 65, 0
3, 140380, Note_on_c, 1, 56, 0
3, 140380, Note_on_c, 1, 59, 0
3, 140396, Note_on_c, 1, 65, 90
3, 140396, Note_on_c, 1, 56, 90
3, 140396, Note_on_c, 1, 59, 90
3, 140396, Note_on_c, 1, 50, 90
3, 140428, Note_on_c, 1, 50, 0
3, 140428, Note_on_c, 1, 65, 0
3, 140428, Note_on_c, 1, 56, 0
3, 140428, Note_on_c, 1, 59, 0
3, 140444, Note_on_c, 1, 65, 90
3, 140444, Note_on_c, 1, 56, 90
3, 140444, Note_on_c, 1, 59, 90
3, 140444, Note_on_c, 1, 50, 90
3, 140476, Note_on_c, 1, 50, 0
3, 140476, Note_on_c, 1, 65, 0
3, 140476, Note_on_c, 1, 56, 0
3, 140476, Note_on_c, 1, 59, 0
3, 140492, Note_on_c, 1, 65, 90
3, 140492, Note_on_c, 1, 56, 90
3, 140492, Note_on_c, 1, 59, 90
3, 140492, Note_on_c, 1, 50, 90
3, 140524, Note_on_c, 1, 50, 0
3, 140524, Note_on_c, 1, 65, 0
3, 140524, Note_on_c, 1, 56, 0
3, 140524, Note_on_c, 1, 59, 0
3, 140540, Note_on_c, 1, 65, 90
3, 140540, Note_on_c, 1, 56, 90
3, 140540, Note_on_c, 1, 59, 90
3, 140540, Note_on_c, 1, 50, 90
3, 140572, Note_on_c, 1, 50, 0
3, 140572, Note_on_c, 1, 65, 0
3, 140572, Note_on_c, 1, 56, 0
3, 140572, Note_on_c, 1, 59, 0
3, 140588, Note_on_c, 1, 65, 90
3, 140588, Note_on_c, 1, 56, 90
3, 140588, Note_on_c, 1, 59, 90
3, 140588, Note_on_c, 1, 50, 90
3, 140620, Note_on_c, 1, 50, 0
3, 140620, Note_on_c, 1, 65, 0
3, 140620, Note_on_c, 1, 56, 0
3, 140620, Note_on_c, 1, 59, 0
3, 140636, Note_on_c, 1, 65, 90
3, 140636, Note_on_c, 1, 56, 90
3, 140636, Note_on_c, 1, 59, 90
3, 140636, Note_on_c, 1, 50, 90
3, 140668, Note_on_c, 1, 50, 0
3, 140668, Note_on_c, 1, 65, 0
3, 140668, Note_on_c, 1, 56, 0
3, 140668, Note_on_c, 1, 59, 0
3, 140684, Note_on_c, 1, 65, 90
3, 140684, Note_on_c, 1, 56, 90
3, 140684, Note_on_c, 1, 59, 90
3, 140684, Note_on_c, 1, 50, 90
3, 140716, Note_on_c, 1, 50, 0
3, 140716, Note_on_c, 1, 65, 0
3, 140716, Note_on_c, 1, 56, 0
3, 140716, Note_on_c, 1, 59, 0
3, 140732, Note_on_c, 1, 65, 90
3, 140732, Note_on_c, 1, 56, 90
3, 140732, Note_on_c, 1, 59, 90
3, 140732, Note_on_c, 1, 50, 90
3, 140764, Note_on_c, 1, 50, 0
3, 140764, Note_on_c, 1, 65, 0
3, 140764, Note_on_c, 1, 56, 0
3, 140764, Note_on_c, 1, 59, 0
3, 140780, Note_on_c, 1, 65, 90
3, 140780, Note_on_c, 1, 56, 90
3, 140780, Note_on_c, 1, 59, 90
3, 140780, Note_on_c, 1, 50, 90
3, 140812, Note_on_c, 1, 50, 0
3, 140812, Note_on_c, 1, 65, 0
3, 140812, Note_on_c, 1, 56, 0
3, 140812, Note_on_c, 1, 59, 0
3, 140828, Note_on_c, 1, 65, 90
3, 140828, Note_on_c, 1, 56, 90
3, 140828, Note_on_c, 1, 59, 90
3, 140828, Note_on_c, 1, 50, 90
3, 140860, Note_on_c, 1, 50, 0
3, 140860, Note_on_c, 1, 65, 0
3, 140860, Note_on_c, 1, 56, 0
3, 140860, Note_on_c, 1, 59, 0
3, 140876, Note_on_c, 1, 65, 90
3, 140876, Note_on_c, 1, 56, 90
3, 140876, Note_on_c, 1, 59, 90
3, 140876, Note_on_c, 1, 50, 90
3, 140908, Note_on_c, 1, 50, 0
3, 140908, Note_on_c, 1, 65, 0
3, 140908, Note_on_c, 1, 56, 0
3, 140908, Note_on_c, 1, 59, 0
3, 140924, Note_on_c, 1, 65, 90
3, 140924, Note_on_c, 1, 56, 90
3, 140924, Note_on_c, 1, 59, 90
3, 140924, Note_on_c, 1, 50, 90
3, 140956, Note_on_c, 1, 50, 0
3, 140956, Note_on_c, 1, 65, 0
3, 140956, Note_on_c, 1, 56, 0
3, 140956, Note_on_c, 1, 59, 0
3, 140972, Note_on_c, 1, 65, 90
3, 140972, Note_on_c, 1, 56, 90
3, 140972, Note_on_c, 1, 59, 90
3, 140972, Note_on_c, 1, 50, 90
3, 141004, Note_on_c, 1, 50, 0
3, 141004, Note_on_c, 1, 65, 0
3, 141004, Note_on_c, 1, 56, 0
3, 141004, Note_on_c, 1, 59, 0
3, 141020, Note_on_c, 1, 65, 90
3, 141020, Note_on_c, 1, 56, 90
3, 141020, Note_on_c, 1, 59, 90
3, 141020, Note_on_c, 1, 50, 90
3, 141052, Note_on_c, 1, 50, 0
3, 141052, Note_on_c, 1, 65, 0
3, 141052, Note_on_c, 1, 56, 0
3, 141052, Note_on_c, 1, 59, 0
3, 141068, Note_on_c, 1, 65, 90
3, 141068, Note_on_c, 1, 56, 90
3, 141068, Note_on_c, 1, 59, 90
3, 141068, Note_on_c, 1, 50, 90
3, 141100, Note_on_c, 1, 50, 0
3, 141100, Note_on_c, 1, 65, 0
3, 141100, Note_on_c, 1, 56, 0
3, 141100, Note_on_c, 1, 59, 0
3, 141116, Note_on_c, 1, 65, 90
3, 141116, Note_on_c, 1, 56, 90
3, 141116, Note_on_c, 1, 59, 90
3, 141116, Note_on_c, 1, 50, 90
3, 141148, Note_on_c, 1, 50, 0
3, 141148, Note_on_c, 1, 65, 0
3, 141148, Note_on_c, 1, 56, 0
3, 141148, Note_on_c, 1, 59, 0
3, 141164, Note_on_c, 1, 65, 90
3, 141164, Note_on_c, 1, 56, 90
3, 141164, Note_on_c, 1, 59, 90
3, 141164, Note_on_c, 1, 50, 90
3, 141196, Note_on_c, 1, 50, 0
3, 141196, Note_on_c, 1, 65, 0
3, 141196, Note_on_c, 1, 56, 0
3, 141196, Note_on_c, 1, 59, 0
3, 141212, Note_on_c, 1, 65, 90
3, 141212, Note_on_c, 1, 56, 90
3, 141212, Note_on_c, 1, 59, 90
3, 141212, Note_on_c, 1, 50, 90
3, 141244, Note_on_c, 1, 50, 0
3, 141244, Note_on_c, 1, 65, 0
3, 141244, Note_on_c, 1, 56, 0
3, 141244, Note_on_c, 1, 59, 0
3, 141260, Note_on_c, 1, 65, 90
3, 141260, Note_on_c, 1, 56, 90
3, 141260, Note_on_c, 1, 59, 90
3, 141260, Note_on_c, 1, 50, 90
3, 141264, Note_on_c, 1, 50, 64
3, 141264, Note_on_c, 1, 56, 64
3, 141264, Note_on_c, 1, 59, 64
3, 141264, Note_on_c, 1, 65, 64
3, 141292, Note_on_c, 1, 65, 0
3, 141292, Note_on_c, 1, 65, 0
3, 141292, Note_on_c, 1, 50, 0
3, 141292, Note_on_c, 1, 56, 0
3, 141292, Note_on_c, 1, 59, 0
3, 141292, Note_on_c, 1, 50, 0
3, 141292, Note_on_c, 1, 56, 0
3, 141292, Note_on_c, 1, 59, 0
3, 141308, Note_on_c, 1, 65, 90
3, 141308, Note_on_c, 1, 56, 90
3, 141308, Note_on_c, 1, 59, 90
3, 141308, Note_on_c, 1, 50, 90
3, 141340, Note_on_c, 1, 50, 0
3, 141340, Note_on_c, 1, 65, 0
3, 141340, Note_on_c, 1, 56, 0
3, 141340, Note_on_c, 1, 59, 0
3, 141356, Note_on_c, 1, 65, 90
3, 141356, Note_on_c, 1, 56, 90
3, 141356, Note_on_c, 1, 59, 90
3, 141356, Note_on_c, 1, 50, 90
3, 141388, Note_on_c, 1, 50, 0
3, 141388, Note_on_c, 1, 65, 0
3, 141388, Note_on_c, 1, 56, 0
3, 141388, Note_on_c, 1, 59, 0
3, 141404, Note_on_c, 1, 65, 90
3, 141404, Note_on_c, 1, 56, 90
3, 141404, Note_on_c, 1, 59, 90
3, 141404, Note_on_c, 1, 50, 90
3, 141436, Note_on_c, 1, 50, 0
3, 141436, Note_on_c, 1, 65, 0
3, 141436, Note_on_c, 1, 56, 0
3, 141436, Note_on_c, 1, 59, 0
3, 141448, Note_on_c, 1, 63, 80
3, 141448, Note_on_c, 1, 59, 80
3, 141448, Note_on_c, 1, 56, 80
3, 141448, Note_on_c, 1, 51, 80
3, 141480, Note_on_c, 1, 51, 0
3, 141480, Note_on_c, 1, 63, 0
3, 141480, Note_on_c, 1, 59, 0
3, 141480, Note_on_c, 1, 56, 0
3, 141496, Note_on_c, 1, 63, 80
3, 141496, Note_on_c, 1, 59, 80
3, 141496, Note_on_c, 1, 56, 80
3, 141496, Note_on_c, 1, 51, 80
3, 141528, Note_on_c, 1, 51, 0
3, 141528, Note_on_c, 1, 63, 0
3, 141528, Note_on_c, 1, 59, 0
3, 141528, Note_on_c, 1, 56, 0
3, 141544, Note_on_c, 1, 63, 80
3, 141544, Note_on_c, 1, 59, 80
3, 141544, Note_on_c, 1, 56, 80
3, 141544, Note_on_c, 1, 51, 80
3, 141576, Note_on_c, 1, 51, 0
3, 141576, Note_on_c, 1, 63, 0
3, 141576, Note_on_c, 1, 59, 0
3, 141576, Note_on_c, 1, 56, 0
3, 141592, Note_on_c, 1, 63, 80
3, 141592, Note_on_c, 1, 59, 80
3, 141592, Note_on_c, 1, 56, 80
3, 141592, Note_on_c, 1, 51, 80
3, 141624, Note_on_c, 1, 51, 0
3, 141624, Note_on_c, 1, 63, 0
3, 141624, Note_on_c, 1, 59, 0
3, 141624, Note_on_c, 1, 56, 0
3, 141640, Note_on_c, 1, 63, 80
3, 141640, Note_on_c, 1, 59, 80
3, 141640, Note_on_c, 1, 56, 80
3, 141640, Note_on_c, 1, 51, 80
3, 141672, Note_on_c, 1, 51, 0
3, 141672, Note_on_c, 1, 63, 0
3, 141672, Note_on_c, 1, 59, 0
3, 141672, Note_on_c, 1, 56, 0
3, 141688, Note_on_c, 1, 63, 80
3, 141688, Note_on_c, 1, 59, 80
3, 141688, Note_on_c, 1, 56, 80
3, 141688, Note_on_c, 1, 51, 80
3, 141720, Note_on_c, 1, 51, 0
3, 141720, Note_on_c, 1, 63, 0
3, 141720, Note_on_c, 1, 59, 0
3, 141720, Note_on_c, 1, 56, 0
3, 141736, Note_on_c, 1, 63, 80
3, 141736, Note_on_c, 1, 59, 80
3, 141736, Note_on_c, 1, 56, 80
3, 141736, Note_on_c, 1, 51, 80
3, 141768, Note_on_c, 1, 51, 0
3, 141768, Note_on_c, 1, 63, 0
3, 141768, Note_on_c, 1, 59, 0
3, 141768, Note_on_c, 1, 56, 0
3, 141784, Note_on_c, 1, 63, 80
3, 141784, Note_on_c, 1, 59, 80
3, 141784, Note_on_c, 1, 56, 80
3, 141784, Note_on_c, 1, 51, 80
3, 141816, Note_on_c, 1, 51, 0
3, 141816, Note_on_c, 1, 63, 0
3, 141816, Note_on_c, 1, 59, 0
3, 141816, Note_on_c, 1, 56, 0
3, 141832, Note_on_c, 1, 63, 80
3, 141832, Note_on_c, 1, 59, 80
3, 141832, Note_on_c, 1, 56, 80
3, 141832, Note_on_c, 1, 51, 80
3, 141864, Note_on_c, 1, 51, 0
3, 141864, Note_on_c, 1, 63, 0
3, 141864, Note_on_c, 1, 59, 0
3, 141864, Note_on_c, 1, 56, 0
3, 141880, Note_on_c, 1, 63, 80
3, 141880, Note_on_c, 1, 59, 80
3, 141880, Note_on_c, 1, 56, 80
3, 141880, Note_on_c, 1, 51, 80
3, 141912, Note_on_c, 1, 51, 0
3, 141912, Note_on_c, 1, 63, 0
3, 141912, Note_on_c, 1, 59, 0
3, 141912, Note_on_c, 1, 56, 0
3, 141928, Note_on_c, 1, 63, 80
3, 141928, Note_on_c, 1, 59, 80
3, 141928, Note_on_c, 1, 56, 80
3, 141928, Note_on_c, 1, 51, 80
3, 141960, Note_on_c, 1, 51, 0
3, 141960, Note_on_c, 1, 63, 0
3, 141960, Note_on_c, 1, 59, 0
3, 141960, Note_on_c, 1, 56, 0
3, 141976, Note_on_c, 1, 63, 80
3, 141976, Note_on_c, 1, 59, 80
3, 141976, Note_on_c, 1, 56, 80
3, 141976, Note_on_c, 1, 51, 80
3, 142008, Note_on_c, 1, 51, 0
3, 142008, Note_on_c, 1, 63, 0
3, 142008, Note_on_c, 1, 59, 0
3, 142008, Note_on_c, 1, 56, 0
3, 142020, Note_on_c, 1, 63, 80
3, 142020, Note_on_c, 1, 59, 80
3, 142020, Note_on_c, 1, 56, 80
3, 142020, Note_on_c, 1, 51, 80
3, 142052, Note_on_c, 1, 51, 0
3, 142052, Note_on_c, 1, 63, 0
3, 142052, Note_on_c, 1, 59, 0
3, 142052, Note_on_c, 1, 56, 0
3, 142064, Note_on_c, 1, 63, 70
3, 142064, Note_on_c, 1, 58, 70
3, 142064, Note_on_c, 1, 55, 70
3, 142064, Note_on_c, 1, 51, 70
3, 142096, Note_on_c, 1, 51, 0
3, 142096, Note_on_c, 1, 63, 0
3, 142096, Note_on_c, 1, 58, 0
3, 142096, Note_on_c, 1, 55, 0
3, 142112, Note_on_c, 1, 63, 70
3, 142112, Note_on_c, 1, 58, 70
3, 142112, Note_on_c, 1, 55, 70
3, 142112, Note_on_c, 1, 51, 70
3, 142144, Note_on_c, 1, 51, 0
3, 142144, Note_on_c, 1, 63, 0
3, 142144, Note_on_c, 1, 58, 0
3, 142144, Note_on_c, 1, 55, 0
3, 142160, Note_on_c, 1, 63, 70
3, 142160, Note_on_c, 1, 58, 70
3, 142160, Note_on_c, 1, 55, 70
3, 142160, Note_on_c, 1, 51, 70
3, 142192, Note_on_c, 1, 51, 0
3, 142192, Note_on_c, 1, 63, 0
3, 142192, Note_on_c, 1, 58, 0
3, 142192, Note_on_c, 1, 55, 0
3, 142208, Note_on_c, 1, 63, 70
3, 142208, Note_on_c, 1, 58, 70
3, 142208, Note_on_c, 1, 55, 70
3, 142208, Note_on_c, 1, 51, 70
3, 142240, Note_on_c, 1, 51, 0
3, 142240, Note_on_c, 1, 63, 0
3, 142240, Note_on_c, 1, 58, 0
3, 142240, Note_on_c, 1, 55, 0
3, 142256, Note_on_c, 1, 63, 70
3, 142256, Note_on_c, 1, 58, 70
3, 142256, Note_on_c, 1, 55, 70
3, 142256, Note_on_c, 1, 51, 70
3, 142288, Note_on_c, 1, 51, 0
3, 142288, Note_on_c, 1, 63, 0
3, 142288, Note_on_c, 1, 58, 0
3, 142288, Note_on_c, 1, 55, 0
3, 142304, Note_on_c, 1, 63, 70
3, 142304, Note_on_c, 1, 58, 70
3, 142304, Note_on_c, 1, 55, 70
3, 142304, Note_on_c, 1, 51, 70
3, 142336, Note_on_c, 1, 51, 0
3, 142336, Note_on_c, 1, 63, 0
3, 142336, Note_on_c, 1, 58, 0
3, 142336, Note_on_c, 1, 55, 0
3, 142352, Note_on_c, 1, 63, 70
3, 142352, Note_on_c, 1, 58, 70
3, 142352, Note_on_c, 1, 55, 70
3, 142352, Note_on_c, 1, 51, 70
3, 142384, Note_on_c, 1, 51, 0
3, 142384, Note_on_c, 1, 63, 0
3, 142384, Note_on_c, 1, 58, 0
3, 142384, Note_on_c, 1, 55, 0
3, 142400, Note_on_c, 1, 63, 70
3, 142400, Note_on_c, 1, 58, 70
3, 142400, Note_on_c, 1, 55, 70
3, 142400, Note_on_c, 1, 51, 70
3, 142432, Note_on_c, 1, 51, 0
3, 142432, Note_on_c, 1, 63, 0
3, 142432, Note_on_c, 1, 58, 0
3, 142432, Note_on_c, 1, 55, 0
3, 142448, Note_on_c, 1, 63, 70
3, 142448, Note_on_c, 1, 58, 70
3, 142448, Note_on_c, 1, 55, 70
3, 142448, Note_on_c, 1, 51, 70
3, 142480, Note_on_c, 1, 51, 0
3, 142480, Note_on_c, 1, 63, 0
3, 142480, Note_on_c, 1, 58, 0
3, 142480, Note_on_c, 1, 55, 0
3, 142496, Note_on_c, 1, 63, 70
3, 142496, Note_on_c, 1, 58, 70
3, 142496, Note_on_c, 1, 55, 70
3, 142496, Note_on_c, 1, 51, 70
3, 142528, Note_on_c, 1, 51, 0
3, 142528, Note_on_c, 1, 63, 0
3, 142528, Note_on_c, 1, 58, 0
3, 142528, Note_on_c, 1, 55, 0
3, 142544, Note_on_c, 1, 63, 70
3, 142544, Note_on_c, 1, 58, 70
3, 142544, Note_on_c, 1, 55, 70
3, 142544, Note_on_c, 1, 51, 70
3, 142576, Note_on_c, 1, 51, 0
3, 142576, Note_on_c, 1, 63, 0
3, 142576, Note_on_c, 1, 58, 0
3, 142576, Note_on_c, 1, 55, 0
3, 142592, Note_on_c, 1, 63, 70
3, 142592, Note_on_c, 1, 58, 70
3, 142592, Note_on_c, 1, 55, 70
3, 142592, Note_on_c, 1, 51, 70
3, 142624, Note_on_c, 1, 51, 0
3, 142624, Note_on_c, 1, 63, 0
3, 142624, Note_on_c, 1, 58, 0
3, 142624, Note_on_c, 1, 55, 0
3, 142640, Note_on_c, 1, 63, 70
3, 142640, Note_on_c, 1, 58, 70
3, 142640, Note_on_c, 1, 55, 70
3, 142640, Note_on_c, 1, 51, 70
3, 142672, Note_on_c, 1, 51, 0
3, 142672, Note_on_c, 1, 63, 0
3, 142672, Note_on_c, 1, 58, 0
3, 142672, Note_on_c, 1, 55, 0
3, 142688, Note_on_c, 1, 63, 70
3, 142688, Note_on_c, 1, 58, 70
3, 142688, Note_on_c, 1, 55, 70
3, 142688, Note_on_c, 1, 51, 70
3, 142720, Note_on_c, 1, 51, 0
3, 142720, Note_on_c, 1, 63, 0
3, 142720, Note_on_c, 1, 58, 0
3, 142720, Note_on_c, 1, 55, 0
3, 142736, Note_on_c, 1, 63, 70
3, 142736, Note_on_c, 1, 58, 70
3, 142736, Note_on_c, 1, 55, 70
3, 142736, Note_on_c, 1, 51, 70
3, 142768, Note_on_c, 1, 51, 0
3, 142768, Note_on_c, 1, 63, 0
3, 142768, Note_on_c, 1, 58, 0
3, 142768, Note_on_c, 1, 55, 0
3, 142784, Note_on_c, 1, 63, 70
3, 142784, Note_on_c, 1, 58, 70
3, 142784, Note_on_c, 1, 55, 70
3, 142784, Note_on_c, 1, 51, 70
3, 142816, Note_on_c, 1, 51, 0
3, 142816, Note_on_c, 1, 63, 0
3, 142816, Note_on_c, 1, 58, 0
3, 142816, Note_on_c, 1, 55, 0
3, 142832, Note_on_c, 1, 63, 70
3, 142832, Note_on_c, 1, 58, 70
3, 142832, Note_on_c, 1, 55, 70
3, 142832, Note_on_c, 1, 51, 70
3, 142864, Note_on_c, 1, 51, 0
3, 142864, Note_on_c, 1, 63, 0
3, 142864, Note_on_c, 1, 58, 0
3, 142864, Note_on_c, 1, 55, 0
3, 142880, Note_on_c, 1, 63, 70
3, 142880, Note_on_c, 1, 58, 70
3, 142880, Note_on_c, 1, 55, 70
3, 142880, Note_on_c, 1, 51, 70
3, 142912, Note_on_c, 1, 51, 0
3, 142912, Note_on_c, 1, 63, 0
3, 142912, Note_on_c, 1, 58, 0
3, 142912, Note_on_c, 1, 55, 0
3, 142928, Note_on_c, 1, 63, 70
3, 142928, Note_on_c, 1, 58, 70
3, 142928, Note_on_c, 1, 55, 70
3, 142928, Note_on_c, 1, 51, 70
3, 142960, Note_on_c, 1, 51, 0
3, 142960, Note_on_c, 1, 63, 0
3, 142960, Note_on_c, 1, 58, 0
3, 142960, Note_on_c, 1, 55, 0
3, 142976, Note_on_c, 1, 63, 70
3, 142976, Note_on_c, 1, 58, 70
3, 142976, Note_on_c, 1, 55, 70
3, 142976, Note_on_c, 1, 51, 70
3, 143008, Note_on_c, 1, 51, 0
3, 143008, Note_on_c, 1, 63, 0
3, 143008, Note_on_c, 1, 58, 0
3, 143008, Note_on_c, 1, 55, 0
3, 143024, Note_on_c, 1, 63, 70
3, 143024, Note_on_c, 1, 58, 70
3, 143024, Note_on_c, 1, 55, 70
3, 143024, Note_on_c, 1, 51, 70
3, 143056, Note_on_c, 1, 51, 0
3, 143056, Note_on_c, 1, 63, 0
3, 143056, Note_on_c, 1, 58, 0
3, 143056, Note_on_c, 1, 55, 0
3, 143072, Note_on_c, 1, 63, 70
3, 143072, Note_on_c, 1, 58, 70
3, 143072, Note_on_c, 1, 55, 70
3, 143072, Note_on_c, 1, 51, 70
3, 143104, Note_on_c, 1, 51, 0
3, 143104, Note_on_c, 1, 63, 0
3, 143104, Note_on_c, 1, 58, 0
3, 143104, Note_on_c, 1, 55, 0
3, 143120, Note_on_c, 1, 63, 70
3, 143120, Note_on_c, 1, 58, 70
3, 143120, Note_on_c, 1, 55, 70
3, 143120, Note_on_c, 1, 51, 70
3, 143152, Note_on_c, 1, 51, 0
3, 143152, Note_on_c, 1, 63, 0
3, 143152, Note_on_c, 1, 58, 0
3, 143152, Note_on_c, 1, 55, 0
3, 143168, Note_on_c, 1, 63, 70
3, 143168, Note_on_c, 1, 58, 70
3, 143168, Note_on_c, 1, 55, 70
3, 143168, Note_on_c, 1, 51, 70
3, 143200, Note_on_c, 1, 51, 0
3, 143200, Note_on_c, 1, 63, 0
3, 143200, Note_on_c, 1, 58, 0
3, 143200, Note_on_c, 1, 55, 0
3, 143268, Note_on_c, 1, 64, 70
3, 143268, Note_on_c, 1, 58, 70
3, 143268, Note_on_c, 1, 54, 70
3, 143268, Note_on_c, 1, 49, 70
3, 143300, Note_on_c, 1, 49, 0
3, 143300, Note_on_c, 1, 64, 0
3, 143300, Note_on_c, 1, 58, 0
3, 143300, Note_on_c, 1, 54, 0
3, 143316, Note_on_c, 1, 64, 70
3, 143316, Note_on_c, 1, 58, 70
3, 143316, Note_on_c, 1, 54, 70
3, 143316, Note_on_c, 1, 49, 70
3, 143348, Note_on_c, 1, 49, 0
3, 143348, Note_on_c, 1, 64, 0
3, 143348, Note_on_c, 1, 58, 0
3, 143348, Note_on_c, 1, 54, 0
3, 143364, Note_on_c, 1, 64, 70
3, 143364, Note_on_c, 1, 58, 70
3, 143364, Note_on_c, 1, 54, 70
3, 143364, Note_on_c, 1, 49, 70
3, 143396, Note_on_c, 1, 49, 0
3, 143396, Note_on_c, 1, 64, 0
3, 143396, Note_on_c, 1, 58, 0
3, 143396, Note_on_c, 1, 54, 0
3, 143412, Note_on_c, 1, 64, 70
3, 143412, Note_on_c, 1, 58, 70
3, 143412, Note_on_c, 1, 54, 70
3, 143412, Note_on_c, 1, 49, 70
3, 143444, Note_on_c, 1, 49, 0
3, 143444, Note_on_c, 1, 64, 0
3, 143444, Note_on_c, 1, 58, 0
3, 143444, Note_on_c, 1, 54, 0
3, 143460, Note_on_c, 1, 64, 70
3, 143460, Note_on_c, 1, 58, 70
3, 143460, Note_on_c, 1, 54, 70
3, 143460, Note_on_c, 1, 49, 70
3, 143492, Note_on_c, 1, 49, 0
3, 143492, Note_on_c, 1, 64, 0
3, 143492, Note_on_c, 1, 58, 0
3, 143492, Note_on_c, 1, 54, 0
3, 143508, Note_on_c, 1, 64, 70
3, 143508, Note_on_c, 1, 58, 70
3, 143508, Note_on_c, 1, 54, 70
3, 143508, Note_on_c, 1, 49, 70
3, 143540, Note_on_c, 1, 49, 0
3, 143540, Note_on_c, 1, 64, 0
3, 143540, Note_on_c, 1, 58, 0
3, 143540, Note_on_c, 1, 54, 0
3, 143556, Note_on_c, 1, 64, 70
3, 143556, Note_on_c, 1, 58, 70
3, 143556, Note_on_c, 1, 54, 70
3, 143556, Note_on_c, 1, 49, 70
3, 143588, Note_on_c, 1, 49, 0
3, 143588, Note_on_c, 1, 64, 0
3, 143588, Note_on_c, 1, 58, 0
3, 143588, Note_on_c, 1, 54, 0
3, 143604, Note_on_c, 1, 64, 70
3, 143604, Note_on_c, 1, 58, 70
3, 143604, Note_on_c, 1, 54, 70
3, 143604, Note_on_c, 1, 49, 70
3, 143636, Note_on_c, 1, 49, 0
3, 143636, Note_on_c, 1, 64, 0
3, 143636, Note_on_c, 1, 58, 0
3, 143636, Note_on_c, 1, 54, 0
3, 143652, Note_on_c, 1, 64, 70
3, 143652, Note_on_c, 1, 58, 70
3, 143652, Note_on_c, 1, 54, 70
3, 143652, Note_on_c, 1, 49, 70
3, 143684, Note_on_c, 1, 49, 0
3, 143684, Note_on_c, 1, 64, 0
3, 143684, Note_on_c, 1, 58, 0
3, 143684, Note_on_c, 1, 54, 0
3, 143700, Note_on_c, 1, 64, 70
3, 143700, Note_on_c, 1, 58, 70
3, 143700, Note_on_c, 1, 54, 70
3, 143700, Note_on_c, 1, 49, 70
3, 143732, Note_on_c, 1, 49, 0
3, 143732, Note_on_c, 1, 64, 0
3, 143732, Note_on_c, 1, 58, 0
3, 143732, Note_on_c, 1, 54, 0
3, 143748, Note_on_c, 1, 64, 70
3, 143748, Note_on_c, 1, 58, 70
3, 143748, Note_on_c, 1, 54, 70
3, 143748, Note_on_c, 1, 49, 70
3, 143780, Note_on_c, 1, 49, 0
3, 143780, Note_on_c, 1, 64, 0
3, 143780, Note_on_c, 1, 58, 0
3, 143780, Note_on_c, 1, 54, 0
3, 143796, Note_on_c, 1, 64, 70
3, 143796, Note_on_c, 1, 58, 70
3, 143796, Note_on_c, 1, 54, 70
3, 143796, Note_on_c, 1, 49, 70
3, 143828, Note_on_c, 1, 49, 0
3, 143828, Note_on_c, 1, 64, 0
3, 143828, Note_on_c, 1, 58, 0
3, 143828, Note_on_c, 1, 54, 0
3, 143844, Note_on_c, 1, 64, 70
3, 143844, Note_on_c, 1, 58, 70
3, 143844, Note_on_c, 1, 54, 70
3, 143844, Note_on_c, 1, 49, 70
3, 143876, Note_on_c, 1, 49, 0
3, 143876, Note_on_c, 1, 64, 0
3, 143876, Note_on_c, 1, 58, 0
3, 143876, Note_on_c, 1, 54, 0
3, 143892, Note_on_c, 1, 64, 70
3, 143892, Note_on_c, 1, 58, 70
3, 143892, Note_on_c, 1, 54, 70
3, 143892, Note_on_c, 1, 49, 70
3, 143924, Note_on_c, 1, 49, 0
3, 143924, Note_on_c, 1, 64, 0
3, 143924, Note_on_c, 1, 58, 0
3, 143924, Note_on_c, 1, 54, 0
3, 143940, Note_on_c, 1, 63, 65
3, 143940, Note_on_c, 1, 59, 65
3, 143940, Note_on_c, 1, 54, 65
3, 143940, Note_on_c, 1, 47, 65
3, 143972, Note_on_c, 1, 47, 0
3, 143972, Note_on_c, 1, 63, 0
3, 143972, Note_on_c, 1, 59, 0
3, 143972, Note_on_c, 1, 54, 0
3, 143988, Note_on_c, 1, 63, 65
3, 143988, Note_on_c, 1, 59, 65
3, 143988, Note_on_c, 1, 54, 65
3, 143988, Note_on_c, 1, 47, 65
3, 144020, Note_on_c, 1, 47, 0
3, 144020, Note_on_c, 1, 63, 0
3, 144020, Note_on_c, 1, 59, 0
3, 144020, Note_on_c, 1, 54, 0
3, 144036, Note_on_c, 1, 63, 65
3, 144036, Note_on_c, 1, 59, 65
3, 144036, Note_on_c, 1, 54, 65
3, 144036, Note_on_c, 1, 47, 65
3, 144068, Note_on_c, 1, 47, 0
3, 144068, Note_on_c, 1, 63, 0
3, 144068, Note_on_c, 1, 59, 0
3, 144068, Note_on_c, 1, 54, 0
3, 144084, Note_on_c, 1, 63, 65
3, 144084, Note_on_c, 1, 59, 65
3, 144084, Note_on_c, 1, 54, 65
3, 144084, Note_on_c, 1, 47, 65
3, 144116, Note_on_c, 1, 47, 0
3, 144116, Note_on_c, 1, 63, 0
3, 144116, Note_on_c, 1, 59, 0
3, 144116, Note_on_c, 1, 54, 0
3, 144132, Note_on_c, 1, 63, 65
3, 144132, Note_on_c, 1, 59, 65
3, 144132, Note_on_c, 1, 54, 65
3, 144132, Note_on_c, 1, 47, 65
3, 144164, Note_on_c, 1, 47, 0
3, 144164, Note_on_c, 1, 63, 0
3, 144164, Note_on_c, 1, 59, 0
3, 144164, Note_on_c, 1, 54, 0
3, 144180, Note_on_c, 1, 63, 65
3, 144180, Note_on_c, 1, 59, 65
3, 144180, Note_on_c, 1, 54, 65
3, 144180, Note_on_c, 1, 47, 65
3, 144212, Note_on_c, 1, 47, 0
3, 144212, Note_on_c, 1, 63, 0
3, 144212, Note_on_c, 1, 59, 0
3, 144212, Note_on_c, 1, 54, 0
3, 144228, Note_on_c, 1, 63, 65
3, 144228, Note_on_c, 1, 59, 65
3, 144228, Note_on_c, 1, 54, 65
3, 144228, Note_on_c, 1, 47, 65
3, 144260, Note_on_c, 1, 47, 0
3, 144260, Note_on_c, 1, 63, 0
3, 144260, Note_on_c, 1, 59, 0
3, 144260, Note_on_c, 1, 54, 0
3, 144276, Note_on_c, 1, 63, 65
3, 144276, Note_on_c, 1, 59, 65
3, 144276, Note_on_c, 1, 54, 65
3, 144276, Note_on_c, 1, 47, 65
3, 144308, Note_on_c, 1, 47, 0
3, 144308, Note_on_c, 1, 63, 0
3, 144308, Note_on_c, 1, 59, 0
3, 144308, Note_on_c, 1, 54, 0
3, 144324, Note_on_c, 1, 63, 65
3, 144324, Note_on_c, 1, 59, 65
3, 144324, Note_on_c, 1, 54, 65
3, 144324, Note_on_c, 1, 47, 65
3, 144356, Note_on_c, 1, 47, 0
3, 144356, Note_on_c, 1, 63, 0
3, 144356, Note_on_c, 1, 59, 0
3, 144356, Note_on_c, 1, 54, 0
3, 144372, Note_on_c, 1, 63, 65
3, 144372, Note_on_c, 1, 59, 65
3, 144372, Note_on_c, 1, 54, 65
3, 144372, Note_on_c, 1, 47, 65
3, 144404, Note_on_c, 1, 47, 0
3, 144404, Note_on_c, 1, 63, 0
3, 144404, Note_on_c, 1, 59, 0
3, 144404, Note_on_c, 1, 54, 0
3, 144420, Note_on_c, 1, 63, 65
3, 144420, Note_on_c, 1, 59, 65
3, 144420, Note_on_c, 1, 54, 65
3, 144420, Note_on_c, 1, 47, 65
3, 144452, Note_on_c, 1, 47, 0
3, 144452, Note_on_c, 1, 63, 0
3, 144452, Note_on_c, 1, 59, 0
3, 144452, Note_on_c, 1, 54, 0
3, 144468, Note_on_c, 1, 63, 65
3, 144468, Note_on_c, 1, 59, 65
3, 144468, Note_on_c, 1, 54, 65
3, 144468, Note_on_c, 1, 47, 65
3, 144500, Note_on_c, 1, 47, 0
3, 144500, Note_on_c, 1, 63, 0
3, 144500, Note_on_c, 1, 59, 0
3, 144500, Note_on_c, 1, 54, 0
3, 144516, Note_on_c, 1, 63, 65
3, 144516, Note_on_c, 1, 59, 65
3, 144516, Note_on_c, 1, 54, 65
3, 144516, Note_on_c, 1, 47, 65
3, 144548, Note_on_c, 1, 47, 0
3, 144548, Note_on_c, 1, 63, 0
3, 144548, Note_on_c, 1, 59, 0
3, 144548, Note_on_c, 1, 54, 0
3, 144564, Note_on_c, 1, 63, 65
3, 144564, Note_on_c, 1, 59, 65
3, 144564, Note_on_c, 1, 54, 65
3, 144564, Note_on_c, 1, 47, 65
3, 144596, Note_on_c, 1, 47, 0
3, 144596, Note_on_c, 1, 63, 0
3, 144596, Note_on_c, 1, 59, 0
3, 144596, Note_on_c, 1, 54, 0
3, 144612, Note_on_c, 1, 63, 65
3, 144612, Note_on_c, 1, 59, 65
3, 144612, Note_on_c, 1, 54, 65
3, 144612, Note_on_c, 1, 47, 65
3, 144644, Note_on_c, 1, 47, 0
3, 144644, Note_on_c, 1, 63, 0
3, 144644, Note_on_c, 1, 59, 0
3, 144644, Note_on_c, 1, 54, 0
3, 144660, Note_on_c, 1, 63, 65
3, 144660, Note_on_c, 1, 59, 65
3, 144660, Note_on_c, 1, 54, 65
3, 144660, Note_on_c, 1, 47, 65
3, 144692, Note_on_c, 1, 47, 0
3, 144692, Note_on_c, 1, 63, 0
3, 144692, Note_on_c, 1, 59, 0
3, 144692, Note_on_c, 1, 54, 0
3, 144708, Note_on_c, 1, 63, 65
3, 144708, Note_on_c, 1, 59, 65
3, 144708, Note_on_c, 1, 54, 65
3, 144708, Note_on_c, 1, 47, 65
3, 144740, Note_on_c, 1, 47, 0
3, 144740, Note_on_c, 1, 63, 0
3, 144740, Note_on_c, 1, 59, 0
3, 144740, Note_on_c, 1, 54, 0
3, 144756, Note_on_c, 1, 63, 65
3, 144756, Note_on_c, 1, 59, 65
3, 144756, Note_on_c, 1, 54, 65
3, 144756, Note_on_c, 1, 47, 65
3, 144788, Note_on_c, 1, 47, 0
3, 144788, Note_on_c, 1, 63, 0
3, 144788, Note_on_c, 1, 59, 0
3, 144788, Note_on_c, 1, 54, 0
3, 144804, Note_on_c, 1, 63, 65
3, 144804, Note_on_c, 1, 59, 65
3, 144804, Note_on_c, 1, 54, 65
3, 144804, Note_on_c, 1, 47, 65
3, 144836, Note_on_c, 1, 47, 0
3, 144836, Note_on_c, 1, 63, 0
3, 144836, Note_on_c, 1, 59, 0
3, 144836, Note_on_c, 1, 54, 0
3, 144852, Note_on_c, 1, 63, 65
3, 144852, Note_on_c, 1, 59, 65
3, 144852, Note_on_c, 1, 54, 65
3, 144852, Note_on_c, 1, 47, 65
3, 144884, Note_on_c, 1, 47, 0
3, 144884, Note_on_c, 1, 63, 0
3, 144884, Note_on_c, 1, 59, 0
3, 144884, Note_on_c, 1, 54, 0
3, 144900, Note_on_c, 1, 63, 65
3, 144900, Note_on_c, 1, 59, 65
3, 144900, Note_on_c, 1, 54, 65
3, 144900, Note_on_c, 1, 47, 65
3, 144932, Note_on_c, 1, 47, 0
3, 144932, Note_on_c, 1, 63, 0
3, 144932, Note_on_c, 1, 59, 0
3, 144932, Note_on_c, 1, 54, 0
3, 144948, Note_on_c, 1, 63, 65
3, 144948, Note_on_c, 1, 59, 65
3, 144948, Note_on_c, 1, 54, 65
3, 144948, Note_on_c, 1, 47, 65
3, 144980, Note_on_c, 1, 47, 0
3, 144980, Note_on_c, 1, 63, 0
3, 144980, Note_on_c, 1, 59, 0
3, 144980, Note_on_c, 1, 54, 0
3, 144996, Note_on_c, 1, 63, 65
3, 144996, Note_on_c, 1, 59, 65
3, 144996, Note_on_c, 1, 54, 65
3, 144996, Note_on_c, 1, 47, 65
3, 145028, Note_on_c, 1, 47, 0
3, 145028, Note_on_c, 1, 63, 0
3, 145028, Note_on_c, 1, 59, 0
3, 145028, Note_on_c, 1, 54, 0
3, 145044, Note_on_c, 1, 63, 65
3, 145044, Note_on_c, 1, 59, 65
3, 145044, Note_on_c, 1, 54, 65
3, 145044, Note_on_c, 1, 47, 65
3, 145076, Note_on_c, 1, 47, 0
3, 145076, Note_on_c, 1, 63, 0
3, 145076, Note_on_c, 1, 59, 0
3, 145076, Note_on_c, 1, 54, 0
3, 145092, Note_on_c, 1, 63, 65
3, 145092, Note_on_c, 1, 59, 65
3, 145092, Note_on_c, 1, 54, 65
3, 145092, Note_on_c, 1, 47, 65
3, 145124, Note_on_c, 1, 47, 0
3, 145124, Note_on_c, 1, 63, 0
3, 145124, Note_on_c, 1, 59, 0
3, 145124, Note_on_c, 1, 54, 0
3, 145140, Note_on_c, 1, 63, 65
3, 145140, Note_on_c, 1, 59, 65
3, 145140, Note_on_c, 1, 54, 65
3, 145140, Note_on_c, 1, 47, 65
3, 145172, Note_on_c, 1, 47, 0
3, 145172, Note_on_c, 1, 63, 0
3, 145172, Note_on_c, 1, 59, 0
3, 145172, Note_on_c, 1, 54, 0
3, 145188, Note_on_c, 1, 63, 65
3, 145188, Note_on_c, 1, 59, 65
3, 145188, Note_on_c, 1, 54, 65
3, 145188, Note_on_c, 1, 47, 65
3, 145220, Note_on_c, 1, 47, 0
3, 145220, Note_on_c, 1, 63, 0
3, 145220, Note_on_c, 1, 59, 0
3, 145220, Note_on_c, 1, 54, 0
3, 145236, Note_on_c, 1, 63, 65
3, 145236, Note_on_c, 1, 59, 65
3, 145236, Note_on_c, 1, 54, 65
3, 145236, Note_on_c, 1, 47, 65
3, 145268, Note_on_c, 1, 47, 0
3, 145268, Note_on_c, 1, 63, 0
3, 145268, Note_on_c, 1, 59, 0
3, 145268, Note_on_c, 1, 54, 0
3, 145284, Note_on_c, 1, 63, 65
3, 145284, Note_on_c, 1, 59, 65
3, 145284, Note_on_c, 1, 54, 65
3, 145284, Note_on_c, 1, 47, 65
3, 145316, Note_on_c, 1, 47, 0
3, 145316, Note_on_c, 1, 63, 0
3, 145316, Note_on_c, 1, 59, 0
3, 145316, Note_on_c, 1, 54, 0
3, 145332, Note_on_c, 1, 63, 65
3, 145332, Note_on_c, 1, 59, 65
3, 145332, Note_on_c, 1, 54, 65
3, 145332, Note_on_c, 1, 47, 65
3, 145364, Note_on_c, 1, 47, 0
3, 145364, Note_on_c, 1, 63, 0
3, 145364, Note_on_c, 1, 59, 0
3, 145364, Note_on_c, 1, 54, 0
3, 145380, Note_on_c, 1, 63, 65
3, 145380, Note_on_c, 1, 59, 65
3, 145380, Note_on_c, 1, 54, 65
3, 145380, Note_on_c, 1, 47, 65
3, 145412, Note_on_c, 1, 47, 0
3, 145412, Note_on_c, 1, 63, 0
3, 145412, Note_on_c, 1, 59, 0
3, 145412, Note_on_c, 1, 54, 0
3, 145428, Note_on_c, 1, 63, 65
3, 145428, Note_on_c, 1, 59, 65
3, 145428, Note_on_c, 1, 54, 65
3, 145428, Note_on_c, 1, 47, 65
3, 145460, Note_on_c, 1, 47, 0
3, 145460, Note_on_c, 1, 63, 0
3, 145460, Note_on_c, 1, 59, 0
3, 145460, Note_on_c, 1, 54, 0
3, 145476, Note_on_c, 1, 63, 65
3, 145476, Note_on_c, 1, 59, 65
3, 145476, Note_on_c, 1, 54, 65
3, 145476, Note_on_c, 1, 47, 65
3, 145508, Note_on_c, 1, 47, 0
3, 145508, Note_on_c, 1, 63, 0
3, 145508, Note_on_c, 1, 59, 0
3, 145508, Note_on_c, 1, 54, 0
3, 145524, Note_on_c, 1, 63, 65
3, 145524, Note_on_c, 1, 59, 65
3, 145524, Note_on_c, 1, 54, 65
3, 145524, Note_on_c, 1, 47, 65
3, 145556, Note_on_c, 1, 47, 0
3, 145556, Note_on_c, 1, 63, 0
3, 145556, Note_on_c, 1, 59, 0
3, 145556, Note_on_c, 1, 54, 0
3, 145572, Note_on_c, 1, 63, 65
3, 145572, Note_on_c, 1, 59, 65
3, 145572, Note_on_c, 1, 54, 65
3, 145572, Note_on_c, 1, 47, 65
3, 145604, Note_on_c, 1, 47, 0
3, 145604, Note_on_c, 1, 63, 0
3, 145604, Note_on_c, 1, 59, 0
3, 145604, Note_on_c, 1, 54, 0
3, 145620, Note_on_c, 1, 63, 65
3, 145620, Note_on_c, 1, 59, 65
3, 145620, Note_on_c, 1, 54, 65
3, 145620, Note_on_c, 1, 47, 65
3, 145652, Note_on_c, 1, 47, 0
3, 145652, Note_on_c, 1, 63, 0
3, 145652, Note_on_c, 1, 59, 0
3, 145652, Note_on_c, 1, 54, 0
3, 145668, Note_on_c, 1, 63, 65
3, 145668, Note_on_c, 1, 59, 65
3, 145668, Note_on_c, 1, 54, 65
3, 145668, Note_on_c, 1, 47, 65
3, 145700, Note_on_c, 1, 47, 0
3, 145700, Note_on_c, 1, 63, 0
3, 145700, Note_on_c, 1, 59, 0
3, 145700, Note_on_c, 1, 54, 0
3, 145716, Note_on_c, 1, 63, 65
3, 145716, Note_on_c, 1, 59, 65
3, 145716, Note_on_c, 1, 54, 65
3, 145716, Note_on_c, 1, 47, 65
3, 145748, Note_on_c, 1, 47, 0
3, 145748, Note_on_c, 1, 63, 0
3, 145748, Note_on_c, 1, 59, 0
3, 145748, Note_on_c, 1, 54, 0
3, 145764, Note_on_c, 1, 63, 65
3, 145764, Note_on_c, 1, 59, 65
3, 145764, Note_on_c, 1, 54, 65
3, 145764, Note_on_c, 1, 47, 65
3, 145796, Note_on_c, 1, 47, 0
3, 145796, Note_on_c, 1, 63, 0
3, 145796, Note_on_c, 1, 59, 0
3, 145796, Note_on_c, 1, 54, 0
3, 145812, Note_on_c, 1, 63, 65
3, 145812, Note_on_c, 1, 59, 65
3, 145812, Note_on_c, 1, 54, 65
3, 145812, Note_on_c, 1, 47, 65
3, 145844, Note_on_c, 1, 47, 0
3, 145844, Note_on_c, 1, 63, 0
3, 145844, Note_on_c, 1, 59, 0
3, 145844, Note_on_c, 1, 54, 0
3, 145860, Note_on_c, 1, 63, 65
3, 145860, Note_on_c, 1, 59, 65
3, 145860, Note_on_c, 1, 54, 65
3, 145860, Note_on_c, 1, 47, 65
3, 145892, Note_on_c, 1, 47, 0
3, 145892, Note_on_c, 1, 63, 0
3, 145892, Note_on_c, 1, 59, 0
3, 145892, Note_on_c, 1, 54, 0
3, 145908, Note_on_c, 1, 63, 65
3, 145908, Note_on_c, 1, 59, 65
3, 145908, Note_on_c, 1, 54, 65
3, 145908, Note_on_c, 1, 47, 65
3, 145940, Note_on_c, 1, 47, 0
3, 145940, Note_on_c, 1, 63, 0
3, 145940, Note_on_c, 1, 59, 0
3, 145940, Note_on_c, 1, 54, 0
3, 145956, Note_on_c, 1, 63, 65
3, 145956, Note_on_c, 1, 59, 65
3, 145956, Note_on_c, 1, 54, 65
3, 145956, Note_on_c, 1, 47, 65
3, 145988, Note_on_c, 1, 47, 0
3, 145988, Note_on_c, 1, 63, 0
3, 145988, Note_on_c, 1, 59, 0
3, 145988, Note_on_c, 1, 54, 0
3, 145996, Note_on_c, 1, 64, 65
3, 145996, Note_on_c, 1, 58, 65
3, 145996, Note_on_c, 1, 54, 65
3, 145996, Note_on_c, 1, 42, 65
3, 146028, Note_on_c, 1, 42, 0
3, 146028, Note_on_c, 1, 64, 0
3, 146028, Note_on_c, 1, 58, 0
3, 146028, Note_on_c, 1, 54, 0
3, 146044, Note_on_c, 1, 64, 65
3, 146044, Note_on_c, 1, 58, 65
3, 146044, Note_on_c, 1, 54, 65
3, 146044, Note_on_c, 1, 42, 65
3, 146076, Note_on_c, 1, 42, 0
3, 146076, Note_on_c, 1, 64, 0
3, 146076, Note_on_c, 1, 58, 0
3, 146076, Note_on_c, 1, 54, 0
3, 146092, Note_on_c, 1, 64, 65
3, 146092, Note_on_c, 1, 58, 65
3, 146092, Note_on_c, 1, 54, 65
3, 146092, Note_on_c, 1, 42, 65
3, 146124, Note_on_c, 1, 42, 0
3, 146124, Note_on_c, 1, 64, 0
3, 146124, Note_on_c, 1, 58, 0
3, 146124, Note_on_c, 1, 54, 0
3, 146140, Note_on_c, 1, 64, 65
3, 146140, Note_on_c, 1, 58, 65
3, 146140, Note_on_c, 1, 54, 65
3, 146140, Note_on_c, 1, 42, 65
3, 146172, Note_on_c, 1, 42, 0
3, 146172, Note_on_c, 1, 64, 0
3, 146172, Note_on_c, 1, 58, 0
3, 146172, Note_on_c, 1, 54, 0
3, 146188, Note_on_c, 1, 64, 65
3, 146188, Note_on_c, 1, 58, 65
3, 146188, Note_on_c, 1, 54, 65
3, 146188, Note_on_c, 1, 42, 65
3, 146220, Note_on_c, 1, 42, 0
3, 146220, Note_on_c, 1, 64, 0
3, 146220, Note_on_c, 1, 58, 0
3, 146220, Note_on_c, 1, 54, 0
3, 146236, Note_on_c, 1, 64, 65
3, 146236, Note_on_c, 1, 58, 65
3, 146236, Note_on_c, 1, 54, 65
3, 146236, Note_on_c, 1, 42, 65
3, 146268, Note_on_c, 1, 42, 0
3, 146268, Note_on_c, 1, 64, 0
3, 146268, Note_on_c, 1, 58, 0
3, 146268, Note_on_c, 1, 54, 0
3, 146284, Note_on_c, 1, 64, 65
3, 146284, Note_on_c, 1, 58, 65
3, 146284, Note_on_c, 1, 54, 65
3, 146284, Note_on_c, 1, 42, 65
3, 146316, Note_on_c, 1, 42, 0
3, 146316, Note_on_c, 1, 64, 0
3, 146316, Note_on_c, 1, 58, 0
3, 146316, Note_on_c, 1, 54, 0
3, 146332, Note_on_c, 1, 64, 65
3, 146332, Note_on_c, 1, 58, 65
3, 146332, Note_on_c, 1, 54, 65
3, 146332, Note_on_c, 1, 42, 65
3, 146364, Note_on_c, 1, 42, 0
3, 146364, Note_on_c, 1, 64, 0
3, 146364, Note_on_c, 1, 58, 0
3, 146364, Note_on_c, 1, 54, 0
3, 146380, Note_on_c, 1, 64, 65
3, 146380, Note_on_c, 1, 58, 65
3, 146380, Note_on_c, 1, 54, 65
3, 146380, Note_on_c, 1, 42, 65
3, 146412, Note_on_c, 1, 42, 0
3, 146412, Note_on_c, 1, 64, 0
3, 146412, Note_on_c, 1, 58, 0
3, 146412, Note_on_c, 1, 54, 0
3, 146428, Note_on_c, 1, 64, 65
3, 146428, Note_on_c, 1, 58, 65
3, 146428, Note_on_c, 1, 54, 65
3, 146428, Note_on_c, 1, 42, 65
3, 146460, Note_on_c, 1, 42, 0
3, 146460, Note_on_c, 1, 64, 0
3, 146460, Note_on_c, 1, 58, 0
3, 146460, Note_on_c, 1, 54, 0
3, 146476, Note_on_c, 1, 64, 65
3, 146476, Note_on_c, 1, 58, 65
3, 146476, Note_on_c, 1, 54, 65
3, 146476, Note_on_c, 1, 42, 65
3, 146508, Note_on_c, 1, 42, 0
3, 146508, Note_on_c, 1, 64, 0
3, 146508, Note_on_c, 1, 58, 0
3, 146508, Note_on_c, 1, 54, 0
3, 146524, Note_on_c, 1, 64, 65
3, 146524, Note_on_c, 1, 58, 65
3, 146524, Note_on_c, 1, 54, 65
3, 146524, Note_on_c, 1, 42, 65
3, 146556, Note_on_c, 1, 42, 0
3, 146556, Note_on_c, 1, 64, 0
3, 146556, Note_on_c, 1, 58, 0
3, 146556, Note_on_c, 1, 54, 0
3, 146572, Note_on_c, 1, 64, 65
3, 146572, Note_on_c, 1, 58, 65
3, 146572, Note_on_c, 1, 54, 65
3, 146572, Note_on_c, 1, 42, 65
3, 146604, Note_on_c, 1, 42, 0
3, 146604, Note_on_c, 1, 64, 0
3, 146604, Note_on_c, 1, 58, 0
3, 146604, Note_on_c, 1, 54, 0
3, 146620, Note_on_c, 1, 64, 65
3, 146620, Note_on_c, 1, 58, 65
3, 146620, Note_on_c, 1, 54, 65
3, 146620, Note_on_c, 1, 42, 65
3, 146652, Note_on_c, 1, 42, 0
3, 146652, Note_on_c, 1, 64, 0
3, 146652, Note_on_c, 1, 58, 0
3, 146652, Note_on_c, 1, 54, 0
3, 146668, Note_on_c, 1, 64, 65
3, 146668, Note_on_c, 1, 58, 65
3, 146668, Note_on_c, 1, 54, 65
3, 146668, Note_on_c, 1, 42, 65
3, 146700, Note_on_c, 1, 42, 0
3, 146700, Note_on_c, 1, 64, 0
3, 146700, Note_on_c, 1, 58, 0
3, 146700, Note_on_c, 1, 54, 0
3, 146716, Note_on_c, 1, 64, 65
3, 146716, Note_on_c, 1, 58, 65
3, 146716, Note_on_c, 1, 54, 65
3, 146716, Note_on_c, 1, 42, 65
3, 146748, Note_on_c, 1, 42, 0
3, 146748, Note_on_c, 1, 64, 0
3, 146748, Note_on_c, 1, 58, 0
3, 146748, Note_on_c, 1, 54, 0
3, 146760, Note_on_c, 1, 64, 65
3, 146760, Note_on_c, 1, 58, 65
3, 146760, Note_on_c, 1, 52, 65
3, 146760, Note_on_c, 1, 43, 65
3, 146792, Note_on_c, 1, 43, 0
3, 146792, Note_on_c, 1, 64, 0
3, 146792, Note_on_c, 1, 58, 0
3, 146792, Note_on_c, 1, 52, 0
3, 146808, Note_on_c, 1, 64, 65
3, 146808, Note_on_c, 1, 58, 65
3, 146808, Note_on_c, 1, 52, 65
3, 146808, Note_on_c, 1, 43, 65
3, 146840, Note_on_c, 1, 43, 0
3, 146840, Note_on_c, 1, 64, 0
3, 146840, Note_on_c, 1, 58, 0
3, 146840, Note_on_c, 1, 52, 0
3, 146856, Note_on_c, 1, 64, 65
3, 146856, Note_on_c, 1, 58, 65
3, 146856, Note_on_c, 1, 52, 65
3, 146856, Note_on_c, 1, 43, 65
3, 146888, Note_on_c, 1, 43, 0
3, 146888, Note_on_c, 1, 64, 0
3, 146888, Note_on_c, 1, 58, 0
3, 146888, Note_on_c, 1, 52, 0
3, 146904, Note_on_c, 1, 64, 65
3, 146904, Note_on_c, 1, 58, 65
3, 146904, Note_on_c, 1, 52, 65
3, 146904, Note_on_c, 1, 43, 65
3, 146936, Note_on_c, 1, 43, 0
3, 146936, Note_on_c, 1, 64, 0
3, 146936, Note_on_c, 1, 58, 0
3, 146936, Note_on_c, 1, 52, 0
3, 146952, Note_on_c, 1, 64, 65
3, 146952, Note_on_c, 1, 58, 65
3, 146952, Note_on_c, 1, 52, 65
3, 146952, Note_on_c, 1, 43, 65
3, 146984, Note_on_c, 1, 43, 0
3, 146984, Note_on_c, 1, 64, 0
3, 146984, Note_on_c, 1, 58, 0
3, 146984, Note_on_c, 1, 52, 0
3, 147000, Note_on_c, 1, 64, 65
3, 147000, Note_on_c, 1, 58, 65
3, 147000, Note_on_c, 1, 52, 65
3, 147000, Note_on_c, 1, 43, 65
3, 147032, Note_on_c, 1, 43, 0
3, 147032, Note_on_c, 1, 64, 0
3, 147032, Note_on_c, 1, 58, 0
3, 147032, Note_on_c, 1, 52, 0
3, 147048, Note_on_c, 1, 64, 65
3, 147048, Note_on_c, 1, 58, 65
3, 147048, Note_on_c, 1, 52, 65
3, 147048, Note_on_c, 1, 43, 65
3, 147080, Note_on_c, 1, 43, 0
3, 147080, Note_on_c, 1, 64, 0
3, 147080, Note_on_c, 1, 58, 0
3, 147080, Note_on_c, 1, 52, 0
3, 147096, Note_on_c, 1, 64, 65
3, 147096, Note_on_c, 1, 58, 65
3, 147096, Note_on_c, 1, 52, 65
3, 147096, Note_on_c, 1, 43, 65
3, 147128, Note_on_c, 1, 43, 0
3, 147128, Note_on_c, 1, 64, 0
3, 147128, Note_on_c, 1, 58, 0
3, 147128, Note_on_c, 1, 52, 0
3, 147144, Note_on_c, 1, 64, 65
3, 147144, Note_on_c, 1, 58, 65
3, 147144, Note_on_c, 1, 52, 65
3, 147144, Note_on_c, 1, 43, 65
3, 147176, Note_on_c, 1, 43, 0
3, 147176, Note_on_c, 1, 64, 0
3, 147176, Note_on_c, 1, 58, 0
3, 147176, Note_on_c, 1, 52, 0
3, 147192, Note_on_c, 1, 64, 65
3, 147192, Note_on_c, 1, 58, 65
3, 147192, Note_on_c, 1, 52, 65
3, 147192, Note_on_c, 1, 43, 65
3, 147224, Note_on_c, 1, 43, 0
3, 147224, Note_on_c, 1, 64, 0
3, 147224, Note_on_c, 1, 58, 0
3, 147224, Note_on_c, 1, 52, 0
3, 147240, Note_on_c, 1, 64, 65
3, 147240, Note_on_c, 1, 58, 65
3, 147240, Note_on_c, 1, 52, 65
3, 147240, Note_on_c, 1, 43, 65
3, 147272, Note_on_c, 1, 43, 0
3, 147272, Note_on_c, 1, 64, 0
3, 147272, Note_on_c, 1, 58, 0
3, 147272, Note_on_c, 1, 52, 0
3, 147288, Note_on_c, 1, 64, 65
3, 147288, Note_on_c, 1, 58, 65
3, 147288, Note_on_c, 1, 52, 65
3, 147288, Note_on_c, 1, 43, 65
3, 147320, Note_on_c, 1, 43, 0
3, 147320, Note_on_c, 1, 64, 0
3, 147320, Note_on_c, 1, 58, 0
3, 147320, Note_on_c, 1, 52, 0
3, 147336, Note_on_c, 1, 64, 65
3, 147336, Note_on_c, 1, 58, 65
3, 147336, Note_on_c, 1, 52, 65
3, 147336, Note_on_c, 1, 43, 65
3, 147368, Note_on_c, 1, 43, 0
3, 147368, Note_on_c, 1, 64, 0
3, 147368, Note_on_c, 1, 58, 0
3, 147368, Note_on_c, 1, 52, 0
3, 147380, Note_on_c, 1, 64, 65
3, 147380, Note_on_c, 1, 58, 65
3, 147380, Note_on_c, 1, 54, 65
3, 147380, Note_on_c, 1, 42, 65
3, 147412, Note_on_c, 1, 42, 0
3, 147412, Note_on_c, 1, 64, 0
3, 147412, Note_on_c, 1, 58, 0
3, 147412, Note_on_c, 1, 54, 0
3, 147428, Note_on_c, 1, 64, 65
3, 147428, Note_on_c, 1, 58, 65
3, 147428, Note_on_c, 1, 54, 65
3, 147428, Note_on_c, 1, 42, 65
3, 147460, Note_on_c, 1, 42, 0
3, 147460, Note_on_c, 1, 64, 0
3, 147460, Note_on_c, 1, 58, 0
3, 147460, Note_on_c, 1, 54, 0
3, 147476, Note_on_c, 1, 64, 65
3, 147476, Note_on_c, 1, 58, 65
3, 147476, Note_on_c, 1, 54, 65
3, 147476, Note_on_c, 1, 42, 65
3, 147508, Note_on_c, 1, 42, 0
3, 147508, Note_on_c, 1, 64, 0
3, 147508, Note_on_c, 1, 58, 0
3, 147508, Note_on_c, 1, 54, 0
3, 147524, Note_on_c, 1, 64, 65
3, 147524, Note_on_c, 1, 58, 65
3, 147524, Note_on_c, 1, 54, 65
3, 147524, Note_on_c, 1, 42, 65
3, 147556, Note_on_c, 1, 42, 0
3, 147556, Note_on_c, 1, 64, 0
3, 147556, Note_on_c, 1, 58, 0
3, 147556, Note_on_c, 1, 54, 0
3, 147572, Note_on_c, 1, 64, 65
3, 147572, Note_on_c, 1, 58, 65
3, 147572, Note_on_c, 1, 54, 65
3, 147572, Note_on_c, 1, 42, 65
3, 147604, Note_on_c, 1, 42, 0
3, 147604, Note_on_c, 1, 64, 0
3, 147604, Note_on_c, 1, 58, 0
3, 147604, Note_on_c, 1, 54, 0
3, 147620, Note_on_c, 1, 64, 65
3, 147620, Note_on_c, 1, 58, 65
3, 147620, Note_on_c, 1, 54, 65
3, 147620, Note_on_c, 1, 42, 65
3, 147652, Note_on_c, 1, 42, 0
3, 147652, Note_on_c, 1, 64, 0
3, 147652, Note_on_c, 1, 58, 0
3, 147652, Note_on_c, 1, 54, 0
3, 147668, Note_on_c, 1, 64, 65
3, 147668, Note_on_c, 1, 58, 65
3, 147668, Note_on_c, 1, 54, 65
3, 147668, Note_on_c, 1, 42, 65
3, 147700, Note_on_c, 1, 42, 0
3, 147700, Note_on_c, 1, 64, 0
3, 147700, Note_on_c, 1, 58, 0
3, 147700, Note_on_c, 1, 54, 0
3, 147716, Note_on_c, 1, 64, 65
3, 147716, Note_on_c, 1, 58, 65
3, 147716, Note_on_c, 1, 54, 65
3, 147716, Note_on_c, 1, 42, 65
3, 147748, Note_on_c, 1, 42, 0
3, 147748, Note_on_c, 1, 64, 0
3, 147748, Note_on_c, 1, 58, 0
3, 147748, Note_on_c, 1, 54, 0
3, 147764, Note_on_c, 1, 64, 65
3, 147764, Note_on_c, 1, 58, 65
3, 147764, Note_on_c, 1, 54, 65
3, 147764, Note_on_c, 1, 42, 65
3, 147796, Note_on_c, 1, 42, 0
3, 147796, Note_on_c, 1, 64, 0
3, 147796, Note_on_c, 1, 58, 0
3, 147796, Note_on_c, 1, 54, 0
3, 147812, Note_on_c, 1, 64, 65
3, 147812, Note_on_c, 1, 58, 65
3, 147812, Note_on_c, 1, 54, 65
3, 147812, Note_on_c, 1, 42, 65
3, 147844, Note_on_c, 1, 42, 0
3, 147844, Note_on_c, 1, 64, 0
3, 147844, Note_on_c, 1, 58, 0
3, 147844, Note_on_c, 1, 54, 0
3, 147860, Note_on_c, 1, 64, 65
3, 147860, Note_on_c, 1, 58, 65
3, 147860, Note_on_c, 1, 54, 65
3, 147860, Note_on_c, 1, 42, 65
3, 147892, Note_on_c, 1, 42, 0
3, 147892, Note_on_c, 1, 64, 0
3, 147892, Note_on_c, 1, 58, 0
3, 147892, Note_on_c, 1, 54, 0
3, 147908, Note_on_c, 1, 64, 65
3, 147908, Note_on_c, 1, 58, 65
3, 147908, Note_on_c, 1, 54, 65
3, 147908, Note_on_c, 1, 42, 65
3, 147940, Note_on_c, 1, 42, 0
3, 147940, Note_on_c, 1, 64, 0
3, 147940, Note_on_c, 1, 58, 0
3, 147940, Note_on_c, 1, 54, 0
3, 147956, Note_on_c, 1, 64, 65
3, 147956, Note_on_c, 1, 58, 65
3, 147956, Note_on_c, 1, 54, 65
3, 147956, Note_on_c, 1, 42, 65
3, 147988, Note_on_c, 1, 42, 0
3, 147988, Note_on_c, 1, 64, 0
3, 147988, Note_on_c, 1, 58, 0
3, 147988, Note_on_c, 1, 54, 0
3, 148004, Note_on_c, 1, 64, 65
3, 148004, Note_on_c, 1, 58, 65
3, 148004, Note_on_c, 1, 54, 65
3, 148004, Note_on_c, 1, 42, 65
3, 148036, Note_on_c, 1, 42, 0
3, 148036, Note_on_c, 1, 64, 0
3, 148036, Note_on_c, 1, 58, 0
3, 148036, Note_on_c, 1, 54, 0
3, 148052, Note_on_c, 1, 64, 65
3, 148052, Note_on_c, 1, 61, 65
3, 148052, Note_on_c, 1, 54, 65
3, 148052, Note_on_c, 1, 42, 65
3, 148084, Note_on_c, 1, 42, 0
3, 148084, Note_on_c, 1, 64, 0
3, 148084, Note_on_c, 1, 61, 0
3, 148084, Note_on_c, 1, 54, 0
3, 148100, Note_on_c, 1, 64, 65
3, 148100, Note_on_c, 1, 61, 65
3, 148100, Note_on_c, 1, 54, 65
3, 148100, Note_on_c, 1, 42, 65
3, 148132, Note_on_c, 1, 42, 0
3, 148132, Note_on_c, 1, 64, 0
3, 148132, Note_on_c, 1, 61, 0
3, 148132, Note_on_c, 1, 54, 0
3, 148148, Note_on_c, 1, 64, 65
3, 148148, Note_on_c, 1, 61, 65
3, 148148, Note_on_c, 1, 54, 65
3, 148148, Note_on_c, 1, 42, 65
3, 148180, Note_on_c, 1, 42, 0
3, 148180, Note_on_c, 1, 64, 0
3, 148180, Note_on_c, 1, 61, 0
3, 148180, Note_on_c, 1, 54, 0
3, 148196, Note_on_c, 1, 64, 65
3, 148196, Note_on_c, 1, 61, 65
3, 148196, Note_on_c, 1, 54, 65
3, 148196, Note_on_c, 1, 42, 65
3, 148228, Note_on_c, 1, 42, 0
3, 148228, Note_on_c, 1, 64, 0
3, 148228, Note_on_c, 1, 61, 0
3, 148228, Note_on_c, 1, 54, 0
3, 148244, Note_on_c, 1, 64, 65
3, 148244, Note_on_c, 1, 61, 65
3, 148244, Note_on_c, 1, 54, 65
3, 148244, Note_on_c, 1, 42, 65
3, 148276, Note_on_c, 1, 42, 0
3, 148276, Note_on_c, 1, 64, 0
3, 148276, Note_on_c, 1, 61, 0
3, 148276, Note_on_c, 1, 54, 0
3, 148292, Note_on_c, 1, 64, 65
3, 148292, Note_on_c, 1, 61, 65
3, 148292, Note_on_c, 1, 54, 65
3, 148292, Note_on_c, 1, 42, 65
3, 148324, Note_on_c, 1, 42, 0
3, 148324, Note_on_c, 1, 64, 0
3, 148324, Note_on_c, 1, 61, 0
3, 148324, Note_on_c, 1, 54, 0
3, 148340, Note_on_c, 1, 64, 65
3, 148340, Note_on_c, 1, 61, 65
3, 148340, Note_on_c, 1, 54, 65
3, 148340, Note_on_c, 1, 42, 65
3, 148372, Note_on_c, 1, 42, 0
3, 148372, Note_on_c, 1, 64, 0
3, 148372, Note_on_c, 1, 61, 0
3, 148372, Note_on_c, 1, 54, 0
3, 148388, Note_on_c, 1, 64, 65
3, 148388, Note_on_c, 1, 61, 65
3, 148388, Note_on_c, 1, 54, 65
3, 148388, Note_on_c, 1, 42, 65
3, 148420, Note_on_c, 1, 42, 0
3, 148420, Note_on_c, 1, 64, 0
3, 148420, Note_on_c, 1, 61, 0
3, 148420, Note_on_c, 1, 54, 0
3, 148436, Note_on_c, 1, 64, 65
3, 148436, Note_on_c, 1, 61, 65
3, 148436, Note_on_c, 1, 54, 65
3, 148436, Note_on_c, 1, 42, 65
3, 148468, Note_on_c, 1, 42, 0
3, 148468, Note_on_c, 1, 64, 0
3, 148468, Note_on_c, 1, 61, 0
3, 148468, Note_on_c, 1, 54, 0
3, 148484, Note_on_c, 1, 64, 65
3, 148484, Note_on_c, 1, 61, 65
3, 148484, Note_on_c, 1, 54, 65
3, 148484, Note_on_c, 1, 42, 65
3, 148516, Note_on_c, 1, 42, 0
3, 148516, Note_on_c, 1, 64, 0
3, 148516, Note_on_c, 1, 61, 0
3, 148516, Note_on_c, 1, 54, 0
3, 148532, Note_on_c, 1, 64, 65
3, 148532, Note_on_c, 1, 61, 65
3, 148532, Note_on_c, 1, 54, 65
3, 148532, Note_on_c, 1, 42, 65
3, 148564, Note_on_c, 1, 42, 0
3, 148564, Note_on_c, 1, 64, 0
3, 148564, Note_on_c, 1, 61, 0
3, 148564, Note_on_c, 1, 54, 0
3, 148580, Note_on_c, 1, 64, 65
3, 148580, Note_on_c, 1, 61, 65
3, 148580, Note_on_c, 1, 54, 65
3, 148580, Note_on_c, 1, 42, 65
3, 148612, Note_on_c, 1, 42, 0
3, 148612, Note_on_c, 1, 64, 0
3, 148612, Note_on_c, 1, 61, 0
3, 148612, Note_on_c, 1, 54, 0
3, 148640, Note_on_c, 1, 63, 65
3, 148640, Note_on_c, 1, 59, 65
3, 148640, Note_on_c, 1, 54, 65
3, 148640, Note_on_c, 1, 47, 65
3, 148672, Note_on_c, 1, 47, 0
3, 148672, Note_on_c, 1, 63, 0
3, 148672, Note_on_c, 1, 59, 0
3, 148672, Note_on_c, 1, 54, 0
3, 148688, Note_on_c, 1, 63, 65
3, 148688, Note_on_c, 1, 59, 65
3, 148688, Note_on_c, 1, 54, 65
3, 148688, Note_on_c, 1, 47, 65
3, 148720, Note_on_c, 1, 47, 0
3, 148720, Note_on_c, 1, 63, 0
3, 148720, Note_on_c, 1, 59, 0
3, 148720, Note_on_c, 1, 54, 0
3, 148736, Note_on_c, 1, 63, 65
3, 148736, Note_on_c, 1, 59, 65
3, 148736, Note_on_c, 1, 54, 65
3, 148736, Note_on_c, 1, 47, 65
3, 148768, Note_on_c, 1, 47, 0
3, 148768, Note_on_c, 1, 63, 0
3, 148768, Note_on_c, 1, 59, 0
3, 148768, Note_on_c, 1, 54, 0
3, 148784, Note_on_c, 1, 63, 65
3, 148784, Note_on_c, 1, 59, 65
3, 148784, Note_on_c, 1, 54, 65
3, 148784, Note_on_c, 1, 47, 65
3, 148816, Note_on_c, 1, 47, 0
3, 148816, Note_on_c, 1, 63, 0
3, 148816, Note_on_c, 1, 59, 0
3, 148816, Note_on_c, 1, 54, 0
3, 148832, Note_on_c, 1, 63, 65
3, 148832, Note_on_c, 1, 59, 65
3, 148832, Note_on_c, 1, 54, 65
3, 148832, Note_on_c, 1, 47, 65
3, 148864, Note_on_c, 1, 47, 0
3, 148864, Note_on_c, 1, 63, 0
3, 148864, Note_on_c, 1, 59, 0
3, 148864, Note_on_c, 1, 54, 0
3, 148880, Note_on_c, 1, 63, 65
3, 148880, Note_on_c, 1, 59, 65
3, 148880, Note_on_c, 1, 54, 65
3, 148880, Note_on_c, 1, 47, 65
3, 148912, Note_on_c, 1, 47, 0
3, 148912, Note_on_c, 1, 63, 0
3, 148912, Note_on_c, 1, 59, 0
3, 148912, Note_on_c, 1, 54, 0
3, 148928, Note_on_c, 1, 63, 65
3, 148928, Note_on_c, 1, 59, 65
3, 148928, Note_on_c, 1, 54, 65
3, 148928, Note_on_c, 1, 47, 65
3, 148960, Note_on_c, 1, 47, 0
3, 148960, Note_on_c, 1, 63, 0
3, 148960, Note_on_c, 1, 59, 0
3, 148960, Note_on_c, 1, 54, 0
3, 148976, Note_on_c, 1, 63, 65
3, 148976, Note_on_c, 1, 59, 65
3, 148976, Note_on_c, 1, 54, 65
3, 148976, Note_on_c, 1, 47, 65
3, 149008, Note_on_c, 1, 47, 0
3, 149008, Note_on_c, 1, 63, 0
3, 149008, Note_on_c, 1, 59, 0
3, 149008, Note_on_c, 1, 54, 0
3, 149024, Note_on_c, 1, 63, 65
3, 149024, Note_on_c, 1, 59, 65
3, 149024, Note_on_c, 1, 54, 65
3, 149024, Note_on_c, 1, 47, 65
3, 149056, Note_on_c, 1, 47, 0
3, 149056, Note_on_c, 1, 63, 0
3, 149056, Note_on_c, 1, 59, 0
3, 149056, Note_on_c, 1, 54, 0
3, 149072, Note_on_c, 1, 63, 65
3, 149072, Note_on_c, 1, 59, 65
3, 149072, Note_on_c, 1, 54, 65
3, 149072, Note_on_c, 1, 47, 65
3, 149104, Note_on_c, 1, 47, 0
3, 149104, Note_on_c, 1, 63, 0
3, 149104, Note_on_c, 1, 59, 0
3, 149104, Note_on_c, 1, 54, 0
3, 149120, Note_on_c, 1, 63, 65
3, 149120, Note_on_c, 1, 59, 65
3, 149120, Note_on_c, 1, 54, 65
3, 149120, Note_on_c, 1, 47, 65
3, 149152, Note_on_c, 1, 47, 0
3, 149152, Note_on_c, 1, 63, 0
3, 149152, Note_on_c, 1, 59, 0
3, 149152, Note_on_c, 1, 54, 0
3, 149168, Note_on_c, 1, 63, 65
3, 149168, Note_on_c, 1, 59, 65
3, 149168, Note_on_c, 1, 54, 65
3, 149168, Note_on_c, 1, 47, 65
3, 149200, Note_on_c, 1, 47, 0
3, 149200, Note_on_c, 1, 63, 0
3, 149200, Note_on_c, 1, 59, 0
3, 149200, Note_on_c, 1, 54, 0
3, 149216, Note_on_c, 1, 63, 65
3, 149216, Note_on_c, 1, 59, 65
3, 149216, Note_on_c, 1, 54, 65
3, 149216, Note_on_c, 1, 47, 65
3, 149248, Note_on_c, 1, 47, 0
3, 149248, Note_on_c, 1, 63, 0
3, 149248, Note_on_c, 1, 59, 0
3, 149248, Note_on_c, 1, 54, 0
3, 149264, Note_on_c, 1, 63, 65
3, 149264, Note_on_c, 1, 59, 65
3, 149264, Note_on_c, 1, 54, 65
3, 149264, Note_on_c, 1, 47, 65
3, 149296, Note_on_c, 1, 47, 0
3, 149296, Note_on_c, 1, 63, 0
3, 149296, Note_on_c, 1, 59, 0
3, 149296, Note_on_c, 1, 54, 0
3, 149312, Note_on_c, 1, 63, 65
3, 149312, Note_on_c, 1, 59, 65
3, 149312, Note_on_c, 1, 54, 65
3, 149312, Note_on_c, 1, 47, 65
3, 149344, Note_on_c, 1, 47, 0
3, 149344, Note_on_c, 1, 63, 0
3, 149344, Note_on_c, 1, 59, 0
3, 149344, Note_on_c, 1, 54, 0
3, 149360, Note_on_c, 1, 63, 65
3, 149360, Note_on_c, 1, 59, 65
3, 149360, Note_on_c, 1, 54, 65
3, 149360, Note_on_c, 1, 47, 65
3, 149392, Note_on_c, 1, 47, 0
3, 149392, Note_on_c, 1, 63, 0
3, 149392, Note_on_c, 1, 59, 0
3, 149392, Note_on_c, 1, 54, 0
3, 149408, Note_on_c, 1, 63, 65
3, 149408, Note_on_c, 1, 59, 65
3, 149408, Note_on_c, 1, 54, 65
3, 149408, Note_on_c, 1, 47, 65
3, 149440, Note_on_c, 1, 47, 0
3, 149440, Note_on_c, 1, 63, 0
3, 149440, Note_on_c, 1, 59, 0
3, 149440, Note_on_c, 1, 54, 0
3, 149456, Note_on_c, 1, 63, 65
3, 149456, Note_on_c, 1, 59, 65
3, 149456, Note_on_c, 1, 54, 65
3, 149456, Note_on_c, 1, 47, 65
3, 149488, Note_on_c, 1, 47, 0
3, 149488, Note_on_c, 1, 63, 0
3, 149488, Note_on_c, 1, 59, 0
3, 149488, Note_on_c, 1, 54, 0
3, 149504, Note_on_c, 1, 63, 65
3, 149504, Note_on_c, 1, 59, 65
3, 149504, Note_on_c, 1, 54, 65
3, 149504, Note_on_c, 1, 47, 65
3, 149536, Note_on_c, 1, 47, 0
3, 149536, Note_on_c, 1, 63, 0
3, 149536, Note_on_c, 1, 59, 0
3, 149536, Note_on_c, 1, 54, 0
3, 149552, Note_on_c, 1, 63, 65
3, 149552, Note_on_c, 1, 59, 65
3, 149552, Note_on_c, 1, 54, 65
3, 149552, Note_on_c, 1, 47, 65
3, 149584, Note_on_c, 1, 47, 0
3, 149584, Note_on_c, 1, 63, 0
3, 149584, Note_on_c, 1, 59, 0
3, 149584, Note_on_c, 1, 54, 0
3, 149600, Note_on_c, 1, 63, 65
3, 149600, Note_on_c, 1, 59, 65
3, 149600, Note_on_c, 1, 54, 65
3, 149600, Note_on_c, 1, 47, 65
3, 149632, Note_on_c, 1, 47, 0
3, 149632, Note_on_c, 1, 63, 0
3, 149632, Note_on_c, 1, 59, 0
3, 149632, Note_on_c, 1, 54, 0
3, 149648, Note_on_c, 1, 63, 65
3, 149648, Note_on_c, 1, 59, 65
3, 149648, Note_on_c, 1, 54, 65
3, 149648, Note_on_c, 1, 47, 65
3, 149680, Note_on_c, 1, 47, 0
3, 149680, Note_on_c, 1, 63, 0
3, 149680, Note_on_c, 1, 59, 0
3, 149680, Note_on_c, 1, 54, 0
3, 149696, Note_on_c, 1, 63, 65
3, 149696, Note_on_c, 1, 59, 65
3, 149696, Note_on_c, 1, 54, 65
3, 149696, Note_on_c, 1, 47, 65
3, 149728, Note_on_c, 1, 47, 0
3, 149728, Note_on_c, 1, 63, 0
3, 149728, Note_on_c, 1, 59, 0
3, 149728, Note_on_c, 1, 54, 0
3, 149744, Note_on_c, 1, 63, 65
3, 149744, Note_on_c, 1, 59, 65
3, 149744, Note_on_c, 1, 54, 65
3, 149744, Note_on_c, 1, 47, 65
3, 149776, Note_on_c, 1, 47, 0
3, 149776, Note_on_c, 1, 63, 0
3, 149776, Note_on_c, 1, 59, 0
3, 149776, Note_on_c, 1, 54, 0
3, 149792, Note_on_c, 1, 63, 65
3, 149792, Note_on_c, 1, 59, 65
3, 149792, Note_on_c, 1, 54, 65
3, 149792, Note_on_c, 1, 47, 65
3, 149824, Note_on_c, 1, 47, 0
3, 149824, Note_on_c, 1, 63, 0
3, 149824, Note_on_c, 1, 59, 0
3, 149824, Note_on_c, 1, 54, 0
3, 149840, Note_on_c, 1, 63, 65
3, 149840, Note_on_c, 1, 59, 65
3, 149840, Note_on_c, 1, 54, 65
3, 149840, Note_on_c, 1, 47, 65
3, 149872, Note_on_c, 1, 47, 0
3, 149872, Note_on_c, 1, 63, 0
3, 149872, Note_on_c, 1, 59, 0
3, 149872, Note_on_c, 1, 54, 0
3, 149888, Note_on_c, 1, 63, 65
3, 149888, Note_on_c, 1, 59, 65
3, 149888, Note_on_c, 1, 54, 65
3, 149888, Note_on_c, 1, 47, 65
3, 149920, Note_on_c, 1, 47, 0
3, 149920, Note_on_c, 1, 63, 0
3, 149920, Note_on_c, 1, 59, 0
3, 149920, Note_on_c, 1, 54, 0
3, 149936, Note_on_c, 1, 63, 65
3, 149936, Note_on_c, 1, 59, 65
3, 149936, Note_on_c, 1, 54, 65
3, 149936, Note_on_c, 1, 47, 65
3, 149968, Note_on_c, 1, 47, 0
3, 149968, Note_on_c, 1, 63, 0
3, 149968, Note_on_c, 1, 59, 0
3, 149968, Note_on_c, 1, 54, 0
3, 149984, Note_on_c, 1, 63, 65
3, 149984, Note_on_c, 1, 59, 65
3, 149984, Note_on_c, 1, 54, 65
3, 149984, Note_on_c, 1, 47, 65
3, 150016, Note_on_c, 1, 47, 0
3, 150016, Note_on_c, 1, 63, 0
3, 150016, Note_on_c, 1, 59, 0
3, 150016, Note_on_c, 1, 54, 0
3, 150032, Note_on_c, 1, 63, 65
3, 150032, Note_on_c, 1, 59, 65
3, 150032, Note_on_c, 1, 54, 65
3, 150032, Note_on_c, 1, 47, 65
3, 150064, Note_on_c, 1, 47, 0
3, 150064, Note_on_c, 1, 63, 0
3, 150064, Note_on_c, 1, 59, 0
3, 150064, Note_on_c, 1, 54, 0
3, 150080, Note_on_c, 1, 63, 65
3, 150080, Note_on_c, 1, 59, 65
3, 150080, Note_on_c, 1, 54, 65
3, 150080, Note_on_c, 1, 47, 65
3, 150112, Note_on_c, 1, 47, 0
3, 150112, Note_on_c, 1, 63, 0
3, 150112, Note_on_c, 1, 59, 0
3, 150112, Note_on_c, 1, 54, 0
3, 150128, Note_on_c, 1, 63, 65
3, 150128, Note_on_c, 1, 59, 65
3, 150128, Note_on_c, 1, 54, 65
3, 150128, Note_on_c, 1, 47, 65
3, 150160, Note_on_c, 1, 47, 0
3, 150160, Note_on_c, 1, 63, 0
3, 150160, Note_on_c, 1, 59, 0
3, 150160, Note_on_c, 1, 54, 0
3, 150176, Note_on_c, 1, 63, 65
3, 150176, Note_on_c, 1, 59, 65
3, 150176, Note_on_c, 1, 54, 65
3, 150176, Note_on_c, 1, 47, 65
3, 150208, Note_on_c, 1, 47, 0
3, 150208, Note_on_c, 1, 63, 0
3, 150208, Note_on_c, 1, 59, 0
3, 150208, Note_on_c, 1, 54, 0
3, 150224, Note_on_c, 1, 63, 65
3, 150224, Note_on_c, 1, 59, 65
3, 150224, Note_on_c, 1, 54, 65
3, 150224, Note_on_c, 1, 47, 65
3, 150256, Note_on_c, 1, 47, 0
3, 150256, Note_on_c, 1, 63, 0
3, 150256, Note_on_c, 1, 59, 0
3, 150256, Note_on_c, 1, 54, 0
3, 150272, Note_on_c, 1, 63, 65
3, 150272, Note_on_c, 1, 59, 65
3, 150272, Note_on_c, 1, 54, 65
3, 150272, Note_on_c, 1, 47, 65
3, 150304, Note_on_c, 1, 47, 0
3, 150304, Note_on_c, 1, 63, 0
3, 150304, Note_on_c, 1, 59, 0
3, 150304, Note_on_c, 1, 54, 0
3, 150320, Note_on_c, 1, 63, 65
3, 150320, Note_on_c, 1, 59, 65
3, 150320, Note_on_c, 1, 54, 65
3, 150320, Note_on_c, 1, 47, 65
3, 150352, Note_on_c, 1, 47, 0
3, 150352, Note_on_c, 1, 63, 0
3, 150352, Note_on_c, 1, 59, 0
3, 150352, Note_on_c, 1, 54, 0
3, 150368, Note_on_c, 1, 63, 65
3, 150368, Note_on_c, 1, 59, 65
3, 150368, Note_on_c, 1, 54, 65
3, 150368, Note_on_c, 1, 47, 65
3, 150400, Note_on_c, 1, 47, 0
3, 150400, Note_on_c, 1, 63, 0
3, 150400, Note_on_c, 1, 59, 0
3, 150400, Note_on_c, 1, 54, 0
3, 150416, Note_on_c, 1, 63, 65
3, 150416, Note_on_c, 1, 59, 65
3, 150416, Note_on_c, 1, 54, 65
3, 150416, Note_on_c, 1, 47, 65
3, 150448, Note_on_c, 1, 47, 0
3, 150448, Note_on_c, 1, 63, 0
3, 150448, Note_on_c, 1, 59, 0
3, 150448, Note_on_c, 1, 54, 0
3, 150464, Note_on_c, 1, 63, 65
3, 150464, Note_on_c, 1, 59, 65
3, 150464, Note_on_c, 1, 54, 65
3, 150464, Note_on_c, 1, 47, 65
3, 150496, Note_on_c, 1, 47, 0
3, 150496, Note_on_c, 1, 63, 0
3, 150496, Note_on_c, 1, 59, 0
3, 150496, Note_on_c, 1, 54, 0
3, 150512, Note_on_c, 1, 63, 65
3, 150512, Note_on_c, 1, 59, 65
3, 150512, Note_on_c, 1, 54, 65
3, 150512, Note_on_c, 1, 47, 65
3, 150544, Note_on_c, 1, 47, 0
3, 150544, Note_on_c, 1, 63, 0
3, 150544, Note_on_c, 1, 59, 0
3, 150544, Note_on_c, 1, 54, 0
3, 150560, Note_on_c, 1, 63, 65
3, 150560, Note_on_c, 1, 59, 65
3, 150560, Note_on_c, 1, 54, 65
3, 150560, Note_on_c, 1, 47, 65
3, 150592, Note_on_c, 1, 47, 0
3, 150592, Note_on_c, 1, 63, 0
3, 150592, Note_on_c, 1, 59, 0
3, 150592, Note_on_c, 1, 54, 0
3, 150608, Note_on_c, 1, 63, 65
3, 150608, Note_on_c, 1, 59, 65
3, 150608, Note_on_c, 1, 54, 65
3, 150608, Note_on_c, 1, 47, 65
3, 150640, Note_on_c, 1, 47, 0
3, 150640, Note_on_c, 1, 63, 0
3, 150640, Note_on_c, 1, 59, 0
3, 150640, Note_on_c, 1, 54, 0
3, 150656, Note_on_c, 1, 63, 65
3, 150656, Note_on_c, 1, 59, 65
3, 150656, Note_on_c, 1, 54, 65
3, 150656, Note_on_c, 1, 47, 65
3, 150688, Note_on_c, 1, 47, 0
3, 150688, Note_on_c, 1, 63, 0
3, 150688, Note_on_c, 1, 59, 0
3, 150688, Note_on_c, 1, 54, 0
3, 150704, Note_on_c, 1, 63, 65
3, 150704, Note_on_c, 1, 59, 65
3, 150704, Note_on_c, 1, 54, 65
3, 150704, Note_on_c, 1, 47, 65
3, 150736, Note_on_c, 1, 47, 0
3, 150736, Note_on_c, 1, 63, 0
3, 150736, Note_on_c, 1, 59, 0
3, 150736, Note_on_c, 1, 54, 0
3, 150752, Note_on_c, 1, 63, 65
3, 150752, Note_on_c, 1, 59, 65
3, 150752, Note_on_c, 1, 54, 65
3, 150752, Note_on_c, 1, 47, 65
3, 150784, Note_on_c, 1, 47, 0
3, 150784, Note_on_c, 1, 63, 0
3, 150784, Note_on_c, 1, 59, 0
3, 150784, Note_on_c, 1, 54, 0
3, 150800, Note_on_c, 1, 63, 65
3, 150800, Note_on_c, 1, 59, 65
3, 150800, Note_on_c, 1, 54, 65
3, 150800, Note_on_c, 1, 47, 65
3, 150832, Note_on_c, 1, 47, 0
3, 150832, Note_on_c, 1, 63, 0
3, 150832, Note_on_c, 1, 59, 0
3, 150832, Note_on_c, 1, 54, 0
3, 150848, Note_on_c, 1, 63, 65
3, 150848, Note_on_c, 1, 59, 65
3, 150848, Note_on_c, 1, 54, 65
3, 150848, Note_on_c, 1, 47, 65
3, 150880, Note_on_c, 1, 47, 0
3, 150880, Note_on_c, 1, 63, 0
3, 150880, Note_on_c, 1, 59, 0
3, 150880, Note_on_c, 1, 54, 0
3, 150896, Note_on_c, 1, 63, 65
3, 150896, Note_on_c, 1, 59, 65
3, 150896, Note_on_c, 1, 54, 65
3, 150896, Note_on_c, 1, 47, 65
3, 150928, Note_on_c, 1, 47, 0
3, 150928, Note_on_c, 1, 63, 0
3, 150928, Note_on_c, 1, 59, 0
3, 150928, Note_on_c, 1, 54, 0
3, 150944, Note_on_c, 1, 63, 65
3, 150944, Note_on_c, 1, 59, 65
3, 150944, Note_on_c, 1, 54, 65
3, 150944, Note_on_c, 1, 47, 65
3, 150976, Note_on_c, 1, 47, 0
3, 150976, Note_on_c, 1, 63, 0
3, 150976, Note_on_c, 1, 59, 0
3, 150976, Note_on_c, 1, 54, 0
3, 150992, Note_on_c, 1, 63, 65
3, 150992, Note_on_c, 1, 59, 65
3, 150992, Note_on_c, 1, 54, 65
3, 150992, Note_on_c, 1, 47, 65
3, 151024, Note_on_c, 1, 47, 0
3, 151024, Note_on_c, 1, 63, 0
3, 151024, Note_on_c, 1, 59, 0
3, 151024, Note_on_c, 1, 54, 0
3, 151040, Note_on_c, 1, 63, 65
3, 151040, Note_on_c, 1, 59, 65
3, 151040, Note_on_c, 1, 54, 65
3, 151040, Note_on_c, 1, 47, 65
3, 151072, Note_on_c, 1, 47, 0
3, 151072, Note_on_c, 1, 63, 0
3, 151072, Note_on_c, 1, 59, 0
3, 151072, Note_on_c, 1, 54, 0
3, 151084, Note_on_c, 1, 63, 70
3, 151084, Note_on_c, 1, 57, 70
3, 151084, Note_on_c, 1, 54, 70
3, 151084, Note_on_c, 1, 48, 70
3, 151116, Note_on_c, 1, 48, 0
3, 151116, Note_on_c, 1, 63, 0
3, 151116, Note_on_c, 1, 57, 0
3, 151116, Note_on_c, 1, 54, 0
3, 151132, Note_on_c, 1, 63, 70
3, 151132, Note_on_c, 1, 57, 70
3, 151132, Note_on_c, 1, 54, 70
3, 151132, Note_on_c, 1, 48, 70
3, 151164, Note_on_c, 1, 48, 0
3, 151164, Note_on_c, 1, 63, 0
3, 151164, Note_on_c, 1, 57, 0
3, 151164, Note_on_c, 1, 54, 0
3, 151180, Note_on_c, 1, 63, 70
3, 151180, Note_on_c, 1, 57, 70
3, 151180, Note_on_c, 1, 54, 70
3, 151180, Note_on_c, 1, 48, 70
3, 151212, Note_on_c, 1, 48, 0
3, 151212, Note_on_c, 1, 63, 0
3, 151212, Note_on_c, 1, 57, 0
3, 151212, Note_on_c, 1, 54, 0
3, 151228, Note_on_c, 1, 63, 70
3, 151228, Note_on_c, 1, 57, 70
3, 151228, Note_on_c, 1, 54, 70
3, 151228, Note_on_c, 1, 48, 70
3, 151260, Note_on_c, 1, 48, 0
3, 151260, Note_on_c, 1, 63, 0
3, 151260, Note_on_c, 1, 57, 0
3, 151260, Note_on_c, 1, 54, 0
3, 151276, Note_on_c, 1, 63, 70
3, 151276, Note_on_c, 1, 57, 70
3, 151276, Note_on_c, 1, 54, 70
3, 151276, Note_on_c, 1, 48, 70
3, 151308, Note_on_c, 1, 48, 0
3, 151308, Note_on_c, 1, 63, 0
3, 151308, Note_on_c, 1, 57, 0
3, 151308, Note_on_c, 1, 54, 0
3, 151324, Note_on_c, 1, 63, 70
3, 151324, Note_on_c, 1, 57, 70
3, 151324, Note_on_c, 1, 54, 70
3, 151324, Note_on_c, 1, 48, 70
3, 151356, Note_on_c, 1, 48, 0
3, 151356, Note_on_c, 1, 63, 0
3, 151356, Note_on_c, 1, 57, 0
3, 151356, Note_on_c, 1, 54, 0
3, 151372, Note_on_c, 1, 63, 70
3, 151372, Note_on_c, 1, 57, 70
3, 151372, Note_on_c, 1, 54, 70
3, 151372, Note_on_c, 1, 48, 70
3, 151404, Note_on_c, 1, 48, 0
3, 151404, Note_on_c, 1, 63, 0
3, 151404, Note_on_c, 1, 57, 0
3, 151404, Note_on_c, 1, 54, 0
3, 151420, Note_on_c, 1, 63, 70
3, 151420, Note_on_c, 1, 57, 70
3, 151420, Note_on_c, 1, 54, 70
3, 151420, Note_on_c, 1, 48, 70
3, 151452, Note_on_c, 1, 48, 0
3, 151452, Note_on_c, 1, 63, 0
3, 151452, Note_on_c, 1, 57, 0
3, 151452, Note_on_c, 1, 54, 0
3, 151468, Note_on_c, 1, 63, 70
3, 151468, Note_on_c, 1, 57, 70
3, 151468, Note_on_c, 1, 54, 70
3, 151468, Note_on_c, 1, 48, 70
3, 151500, Note_on_c, 1, 48, 0
3, 151500, Note_on_c, 1, 63, 0
3, 151500, Note_on_c, 1, 57, 0
3, 151500, Note_on_c, 1, 54, 0
3, 151516, Note_on_c, 1, 63, 70
3, 151516, Note_on_c, 1, 57, 70
3, 151516, Note_on_c, 1, 54, 70
3, 151516, Note_on_c, 1, 48, 70
3, 151548, Note_on_c, 1, 48, 0
3, 151548, Note_on_c, 1, 63, 0
3, 151548, Note_on_c, 1, 57, 0
3, 151548, Note_on_c, 1, 54, 0
3, 151564, Note_on_c, 1, 63, 70
3, 151564, Note_on_c, 1, 57, 70
3, 151564, Note_on_c, 1, 54, 70
3, 151564, Note_on_c, 1, 48, 70
3, 151596, Note_on_c, 1, 48, 0
3, 151596, Note_on_c, 1, 63, 0
3, 151596, Note_on_c, 1, 57, 0
3, 151596, Note_on_c, 1, 54, 0
3, 151612, Note_on_c, 1, 63, 70
3, 151612, Note_on_c, 1, 57, 70
3, 151612, Note_on_c, 1, 54, 70
3, 151612, Note_on_c, 1, 48, 70
3, 151644, Note_on_c, 1, 48, 0
3, 151644, Note_on_c, 1, 63, 0
3, 151644, Note_on_c, 1, 57, 0
3, 151644, Note_on_c, 1, 54, 0
3, 151660, Note_on_c, 1, 63, 70
3, 151660, Note_on_c, 1, 57, 70
3, 151660, Note_on_c, 1, 54, 70
3, 151660, Note_on_c, 1, 48, 70
3, 151692, Note_on_c, 1, 48, 0
3, 151692, Note_on_c, 1, 63, 0
3, 151692, Note_on_c, 1, 57, 0
3, 151692, Note_on_c, 1, 54, 0
3, 151708, Note_on_c, 1, 63, 70
3, 151708, Note_on_c, 1, 57, 70
3, 151708, Note_on_c, 1, 54, 70
3, 151708, Note_on_c, 1, 48, 70
3, 151740, Note_on_c, 1, 48, 0
3, 151740, Note_on_c, 1, 63, 0
3, 151740, Note_on_c, 1, 57, 0
3, 151740, Note_on_c, 1, 54, 0
3, 151756, Note_on_c, 1, 63, 70
3, 151756, Note_on_c, 1, 57, 70
3, 151756, Note_on_c, 1, 54, 70
3, 151756, Note_on_c, 1, 48, 70
3, 151788, Note_on_c, 1, 48, 0
3, 151788, Note_on_c, 1, 63, 0
3, 151788, Note_on_c, 1, 57, 0
3, 151788, Note_on_c, 1, 54, 0
3, 151804, Note_on_c, 1, 63, 70
3, 151804, Note_on_c, 1, 57, 70
3, 151804, Note_on_c, 1, 54, 70
3, 151804, Note_on_c, 1, 48, 70
3, 151836, Note_on_c, 1, 48, 0
3, 151836, Note_on_c, 1, 63, 0
3, 151836, Note_on_c, 1, 57, 0
3, 151836, Note_on_c, 1, 54, 0
3, 151852, Note_on_c, 1, 63, 70
3, 151852, Note_on_c, 1, 57, 70
3, 151852, Note_on_c, 1, 54, 70
3, 151852, Note_on_c, 1, 48, 70
3, 151884, Note_on_c, 1, 48, 0
3, 151884, Note_on_c, 1, 63, 0
3, 151884, Note_on_c, 1, 57, 0
3, 151884, Note_on_c, 1, 54, 0
3, 151900, Note_on_c, 1, 63, 70
3, 151900, Note_on_c, 1, 57, 70
3, 151900, Note_on_c, 1, 54, 70
3, 151900, Note_on_c, 1, 48, 70
3, 151932, Note_on_c, 1, 48, 0
3, 151932, Note_on_c, 1, 63, 0
3, 151932, Note_on_c, 1, 57, 0
3, 151932, Note_on_c, 1, 54, 0
3, 151948, Note_on_c, 1, 63, 70
3, 151948, Note_on_c, 1, 57, 70
3, 151948, Note_on_c, 1, 54, 70
3, 151948, Note_on_c, 1, 48, 70
3, 151980, Note_on_c, 1, 48, 0
3, 151980, Note_on_c, 1, 63, 0
3, 151980, Note_on_c, 1, 57, 0
3, 151980, Note_on_c, 1, 54, 0
3, 151996, Note_on_c, 1, 63, 70
3, 151996, Note_on_c, 1, 57, 70
3, 151996, Note_on_c, 1, 54, 70
3, 151996, Note_on_c, 1, 48, 70
3, 152028, Note_on_c, 1, 48, 0
3, 152028, Note_on_c, 1, 63, 0
3, 152028, Note_on_c, 1, 57, 0
3, 152028, Note_on_c, 1, 54, 0
3, 152044, Note_on_c, 1, 63, 70
3, 152044, Note_on_c, 1, 57, 70
3, 152044, Note_on_c, 1, 54, 70
3, 152044, Note_on_c, 1, 48, 70
3, 152076, Note_on_c, 1, 48, 0
3, 152076, Note_on_c, 1, 63, 0
3, 152076, Note_on_c, 1, 57, 0
3, 152076, Note_on_c, 1, 54, 0
3, 152092, Note_on_c, 1, 63, 70
3, 152092, Note_on_c, 1, 57, 70
3, 152092, Note_on_c, 1, 54, 70
3, 152092, Note_on_c, 1, 48, 70
3, 152124, Note_on_c, 1, 48, 0
3, 152124, Note_on_c, 1, 63, 0
3, 152124, Note_on_c, 1, 57, 0
3, 152124, Note_on_c, 1, 54, 0
3, 152140, Note_on_c, 1, 63, 70
3, 152140, Note_on_c, 1, 57, 70
3, 152140, Note_on_c, 1, 54, 70
3, 152140, Note_on_c, 1, 48, 70
3, 152172, Note_on_c, 1, 48, 0
3, 152172, Note_on_c, 1, 63, 0
3, 152172, Note_on_c, 1, 57, 0
3, 152172, Note_on_c, 1, 54, 0
3, 152188, Note_on_c, 1, 63, 70
3, 152188, Note_on_c, 1, 57, 70
3, 152188, Note_on_c, 1, 54, 70
3, 152188, Note_on_c, 1, 48, 70
3, 152220, Note_on_c, 1, 48, 0
3, 152220, Note_on_c, 1, 63, 0
3, 152220, Note_on_c, 1, 57, 0
3, 152220, Note_on_c, 1, 54, 0
3, 152236, Note_on_c, 1, 63, 70
3, 152236, Note_on_c, 1, 57, 70
3, 152236, Note_on_c, 1, 54, 70
3, 152236, Note_on_c, 1, 48, 70
3, 152268, Note_on_c, 1, 48, 0
3, 152268, Note_on_c, 1, 63, 0
3, 152268, Note_on_c, 1, 57, 0
3, 152268, Note_on_c, 1, 54, 0
3, 152284, Note_on_c, 1, 63, 70
3, 152284, Note_on_c, 1, 57, 70
3, 152284, Note_on_c, 1, 54, 70
3, 152284, Note_on_c, 1, 48, 70
3, 152316, Note_on_c, 1, 48, 0
3, 152316, Note_on_c, 1, 63, 0
3, 152316, Note_on_c, 1, 57, 0
3, 152316, Note_on_c, 1, 54, 0
3, 152332, Note_on_c, 1, 63, 70
3, 152332, Note_on_c, 1, 57, 70
3, 152332, Note_on_c, 1, 54, 70
3, 152332, Note_on_c, 1, 48, 70
3, 152364, Note_on_c, 1, 48, 0
3, 152364, Note_on_c, 1, 63, 0
3, 152364, Note_on_c, 1, 57, 0
3, 152364, Note_on_c, 1, 54, 0
3, 152380, Note_on_c, 1, 63, 70
3, 152380, Note_on_c, 1, 57, 70
3, 152380, Note_on_c, 1, 54, 70
3, 152380, Note_on_c, 1, 48, 70
3, 152412, Note_on_c, 1, 48, 0
3, 152412, Note_on_c, 1, 63, 0
3, 152412, Note_on_c, 1, 57, 0
3, 152412, Note_on_c, 1, 54, 0
3, 152428, Note_on_c, 1, 63, 70
3, 152428, Note_on_c, 1, 57, 70
3, 152428, Note_on_c, 1, 54, 70
3, 152428, Note_on_c, 1, 48, 70
3, 152460, Note_on_c, 1, 48, 0
3, 152460, Note_on_c, 1, 63, 0
3, 152460, Note_on_c, 1, 57, 0
3, 152460, Note_on_c, 1, 54, 0
3, 152476, Note_on_c, 1, 63, 70
3, 152476, Note_on_c, 1, 57, 70
3, 152476, Note_on_c, 1, 54, 70
3, 152476, Note_on_c, 1, 48, 70
3, 152508, Note_on_c, 1, 48, 0
3, 152508, Note_on_c, 1, 63, 0
3, 152508, Note_on_c, 1, 57, 0
3, 152508, Note_on_c, 1, 54, 0
3, 152524, Note_on_c, 1, 63, 70
3, 152524, Note_on_c, 1, 57, 70
3, 152524, Note_on_c, 1, 54, 70
3, 152524, Note_on_c, 1, 48, 70
3, 152556, Note_on_c, 1, 48, 0
3, 152556, Note_on_c, 1, 63, 0
3, 152556, Note_on_c, 1, 57, 0
3, 152556, Note_on_c, 1, 54, 0
3, 152572, Note_on_c, 1, 63, 70
3, 152572, Note_on_c, 1, 57, 70
3, 152572, Note_on_c, 1, 54, 70
3, 152572, Note_on_c, 1, 48, 70
3, 152604, Note_on_c, 1, 48, 0
3, 152604, Note_on_c, 1, 63, 0
3, 152604, Note_on_c, 1, 57, 0
3, 152604, Note_on_c, 1, 54, 0
3, 152620, Note_on_c, 1, 63, 70
3, 152620, Note_on_c, 1, 57, 70
3, 152620, Note_on_c, 1, 54, 70
3, 152620, Note_on_c, 1, 48, 70
3, 152652, Note_on_c, 1, 48, 0
3, 152652, Note_on_c, 1, 63, 0
3, 152652, Note_on_c, 1, 57, 0
3, 152652, Note_on_c, 1, 54, 0
3, 152668, Note_on_c, 1, 63, 70
3, 152668, Note_on_c, 1, 56, 70
3, 152668, Note_on_c, 1, 54, 70
3, 152668, Note_on_c, 1, 48, 70
3, 152700, Note_on_c, 1, 48, 0
3, 152700, Note_on_c, 1, 63, 0
3, 152700, Note_on_c, 1, 56, 0
3, 152700, Note_on_c, 1, 54, 0
3, 152716, Note_on_c, 1, 63, 70
3, 152716, Note_on_c, 1, 56, 70
3, 152716, Note_on_c, 1, 54, 70
3, 152716, Note_on_c, 1, 48, 70
3, 152748, Note_on_c, 1, 48, 0
3, 152748, Note_on_c, 1, 63, 0
3, 152748, Note_on_c, 1, 56, 0
3, 152748, Note_on_c, 1, 54, 0
3, 152764, Note_on_c, 1, 63, 70
3, 152764, Note_on_c, 1, 56, 70
3, 152764, Note_on_c, 1, 54, 70
3, 152764, Note_on_c, 1, 48, 70
3, 152796, Note_on_c, 1, 48, 0
3, 152796, Note_on_c, 1, 63, 0
3, 152796, Note_on_c, 1, 56, 0
3, 152796, Note_on_c, 1, 54, 0
3, 152812, Note_on_c, 1, 63, 70
3, 152812, Note_on_c, 1, 56, 70
3, 152812, Note_on_c, 1, 54, 70
3, 152812, Note_on_c, 1, 48, 70
3, 152844, Note_on_c, 1, 48, 0
3, 152844, Note_on_c, 1, 63, 0
3, 152844, Note_on_c, 1, 56, 0
3, 152844, Note_on_c, 1, 54, 0
3, 152860, Note_on_c, 1, 63, 70
3, 152860, Note_on_c, 1, 56, 70
3, 152860, Note_on_c, 1, 54, 70
3, 152860, Note_on_c, 1, 48, 70
3, 152892, Note_on_c, 1, 48, 0
3, 152892, Note_on_c, 1, 63, 0
3, 152892, Note_on_c, 1, 56, 0
3, 152892, Note_on_c, 1, 54, 0
3, 152908, Note_on_c, 1, 63, 70
3, 152908, Note_on_c, 1, 56, 70
3, 152908, Note_on_c, 1, 54, 70
3, 152908, Note_on_c, 1, 48, 70
3, 152940, Note_on_c, 1, 48, 0
3, 152940, Note_on_c, 1, 63, 0
3, 152940, Note_on_c, 1, 56, 0
3, 152940, Note_on_c, 1, 54, 0
3, 152956, Note_on_c, 1, 63, 70
3, 152956, Note_on_c, 1, 56, 70
3, 152956, Note_on_c, 1, 54, 70
3, 152956, Note_on_c, 1, 48, 70
3, 152988, Note_on_c, 1, 48, 0
3, 152988, Note_on_c, 1, 63, 0
3, 152988, Note_on_c, 1, 56, 0
3, 152988, Note_on_c, 1, 54, 0
3, 153004, Note_on_c, 1, 63, 70
3, 153004, Note_on_c, 1, 56, 70
3, 153004, Note_on_c, 1, 54, 70
3, 153004, Note_on_c, 1, 48, 70
3, 153036, Note_on_c, 1, 48, 0
3, 153036, Note_on_c, 1, 63, 0
3, 153036, Note_on_c, 1, 56, 0
3, 153036, Note_on_c, 1, 54, 0
3, 153052, Note_on_c, 1, 63, 70
3, 153052, Note_on_c, 1, 56, 70
3, 153052, Note_on_c, 1, 54, 70
3, 153052, Note_on_c, 1, 48, 70
3, 153084, Note_on_c, 1, 48, 0
3, 153084, Note_on_c, 1, 63, 0
3, 153084, Note_on_c, 1, 56, 0
3, 153084, Note_on_c, 1, 54, 0
3, 153100, Note_on_c, 1, 63, 70
3, 153100, Note_on_c, 1, 56, 70
3, 153100, Note_on_c, 1, 54, 70
3, 153100, Note_on_c, 1, 48, 70
3, 153132, Note_on_c, 1, 48, 0
3, 153132, Note_on_c, 1, 63, 0
3, 153132, Note_on_c, 1, 56, 0
3, 153132, Note_on_c, 1, 54, 0
3, 153148, Note_on_c, 1, 63, 70
3, 153148, Note_on_c, 1, 56, 70
3, 153148, Note_on_c, 1, 54, 70
3, 153148, Note_on_c, 1, 48, 70
3, 153180, Note_on_c, 1, 48, 0
3, 153180, Note_on_c, 1, 63, 0
3, 153180, Note_on_c, 1, 56, 0
3, 153180, Note_on_c, 1, 54, 0
3, 153196, Note_on_c, 1, 63, 70
3, 153196, Note_on_c, 1, 56, 70
3, 153196, Note_on_c, 1, 54, 70
3, 153196, Note_on_c, 1, 48, 70
3, 153228, Note_on_c, 1, 48, 0
3, 153228, Note_on_c, 1, 63, 0
3, 153228, Note_on_c, 1, 56, 0
3, 153228, Note_on_c, 1, 54, 0
3, 153244, Note_on_c, 1, 63, 70
3, 153244, Note_on_c, 1, 56, 70
3, 153244, Note_on_c, 1, 54, 70
3, 153244, Note_on_c, 1, 44, 70
3, 153276, Note_on_c, 1, 44, 0
3, 153276, Note_on_c, 1, 63, 0
3, 153276, Note_on_c, 1, 56, 0
3, 153276, Note_on_c, 1, 54, 0
3, 153292, Note_on_c, 1, 63, 70
3, 153292, Note_on_c, 1, 56, 70
3, 153292, Note_on_c, 1, 54, 70
3, 153292, Note_on_c, 1, 44, 70
3, 153324, Note_on_c, 1, 44, 0
3, 153324, Note_on_c, 1, 63, 0
3, 153324, Note_on_c, 1, 56, 0
3, 153324, Note_on_c, 1, 54, 0
3, 153340, Note_on_c, 1, 63, 70
3, 153340, Note_on_c, 1, 56, 70
3, 153340, Note_on_c, 1, 54, 70
3, 153340, Note_on_c, 1, 44, 70
3, 153372, Note_on_c, 1, 44, 0
3, 153372, Note_on_c, 1, 63, 0
3, 153372, Note_on_c, 1, 56, 0
3, 153372, Note_on_c, 1, 54, 0
3, 153388, Note_on_c, 1, 63, 70
3, 153388, Note_on_c, 1, 56, 70
3, 153388, Note_on_c, 1, 54, 70
3, 153388, Note_on_c, 1, 44, 70
3, 153420, Note_on_c, 1, 44, 0
3, 153420, Note_on_c, 1, 63, 0
3, 153420, Note_on_c, 1, 56, 0
3, 153420, Note_on_c, 1, 54, 0
3, 153436, Note_on_c, 1, 63, 70
3, 153436, Note_on_c, 1, 56, 70
3, 153436, Note_on_c, 1, 54, 70
3, 153436, Note_on_c, 1, 44, 70
3, 153468, Note_on_c, 1, 44, 0
3, 153468, Note_on_c, 1, 63, 0
3, 153468, Note_on_c, 1, 56, 0
3, 153468, Note_on_c, 1, 54, 0
3, 153484, Note_on_c, 1, 63, 70
3, 153484, Note_on_c, 1, 56, 70
3, 153484, Note_on_c, 1, 54, 70
3, 153484, Note_on_c, 1, 44, 70
3, 153516, Note_on_c, 1, 44, 0
3, 153516, Note_on_c, 1, 63, 0
3, 153516, Note_on_c, 1, 56, 0
3, 153516, Note_on_c, 1, 54, 0
3, 153532, Note_on_c, 1, 63, 70
3, 153532, Note_on_c, 1, 56, 70
3, 153532, Note_on_c, 1, 54, 70
3, 153532, Note_on_c, 1, 44, 70
3, 153564, Note_on_c, 1, 44, 0
3, 153564, Note_on_c, 1, 63, 0
3, 153564, Note_on_c, 1, 56, 0
3, 153564, Note_on_c, 1, 54, 0
3, 153580, Note_on_c, 1, 63, 70
3, 153580, Note_on_c, 1, 56, 70
3, 153580, Note_on_c, 1, 54, 70
3, 153580, Note_on_c, 1, 44, 70
3, 153612, Note_on_c, 1, 44, 0
3, 153612, Note_on_c, 1, 63, 0
3, 153612, Note_on_c, 1, 56, 0
3, 153612, Note_on_c, 1, 54, 0
3, 153628, Note_on_c, 1, 63, 70
3, 153628, Note_on_c, 1, 56, 70
3, 153628, Note_on_c, 1, 54, 70
3, 153628, Note_on_c, 1, 44, 70
3, 153660, Note_on_c, 1, 44, 0
3, 153660, Note_on_c, 1, 63, 0
3, 153660, Note_on_c, 1, 56, 0
3, 153660, Note_on_c, 1, 54, 0
3, 153676, Note_on_c, 1, 63, 70
3, 153676, Note_on_c, 1, 56, 70
3, 153676, Note_on_c, 1, 54, 70
3, 153676, Note_on_c, 1, 44, 70
3, 153708, Note_on_c, 1, 44, 0
3, 153708, Note_on_c, 1, 63, 0
3, 153708, Note_on_c, 1, 56, 0
3, 153708, Note_on_c, 1, 54, 0
3, 153724, Note_on_c, 1, 63, 70
3, 153724, Note_on_c, 1, 56, 70
3, 153724, Note_on_c, 1, 54, 70
3, 153724, Note_on_c, 1, 44, 70
3, 153756, Note_on_c, 1, 44, 0
3, 153756, Note_on_c, 1, 63, 0
3, 153756, Note_on_c, 1, 56, 0
3, 153756, Note_on_c, 1, 54, 0
3, 153772, Note_on_c, 1, 63, 70
3, 153772, Note_on_c, 1, 56, 70
3, 153772, Note_on_c, 1, 54, 70
3, 153772, Note_on_c, 1, 44, 70
3, 153804, Note_on_c, 1, 44, 0
3, 153804, Note_on_c, 1, 63, 0
3, 153804, Note_on_c, 1, 56, 0
3, 153804, Note_on_c, 1, 54, 0
3, 153820, Note_on_c, 1, 63, 70
3, 153820, Note_on_c, 1, 56, 70
3, 153820, Note_on_c, 1, 54, 70
3, 153820, Note_on_c, 1, 44, 70
3, 153852, Note_on_c, 1, 44, 0
3, 153852, Note_on_c, 1, 63, 0
3, 153852, Note_on_c, 1, 56, 0
3, 153852, Note_on_c, 1, 54, 0
3, 153852, Note_on_c, 1, 64, 70
3, 153852, Note_on_c, 1, 56, 70
3, 153852, Note_on_c, 1, 52, 70
3, 153852, Note_on_c, 1, 49, 70
3, 153884, Note_on_c, 1, 49, 0
3, 153884, Note_on_c, 1, 64, 0
3, 153884, Note_on_c, 1, 56, 0
3, 153884, Note_on_c, 1, 52, 0
3, 153900, Note_on_c, 1, 64, 70
3, 153900, Note_on_c, 1, 56, 70
3, 153900, Note_on_c, 1, 52, 70
3, 153900, Note_on_c, 1, 49, 70
3, 153932, Note_on_c, 1, 49, 0
3, 153932, Note_on_c, 1, 64, 0
3, 153932, Note_on_c, 1, 56, 0
3, 153932, Note_on_c, 1, 52, 0
3, 153948, Note_on_c, 1, 64, 70
3, 153948, Note_on_c, 1, 56, 70
3, 153948, Note_on_c, 1, 52, 70
3, 153948, Note_on_c, 1, 49, 70
3, 153980, Note_on_c, 1, 49, 0
3, 153980, Note_on_c, 1, 64, 0
3, 153980, Note_on_c, 1, 56, 0
3, 153980, Note_on_c, 1, 52, 0
3, 153996, Note_on_c, 1, 64, 70
3, 153996, Note_on_c, 1, 56, 70
3, 153996, Note_on_c, 1, 52, 70
3, 153996, Note_on_c, 1, 49, 70
3, 154028, Note_on_c, 1, 49, 0
3, 154028, Note_on_c, 1, 64, 0
3, 154028, Note_on_c, 1, 56, 0
3, 154028, Note_on_c, 1, 52, 0
3, 154044, Note_on_c, 1, 64, 70
3, 154044, Note_on_c, 1, 56, 70
3, 154044, Note_on_c, 1, 52, 70
3, 154044, Note_on_c, 1, 49, 70
3, 154076, Note_on_c, 1, 49, 0
3, 154076, Note_on_c, 1, 64, 0
3, 154076, Note_on_c, 1, 56, 0
3, 154076, Note_on_c, 1, 52, 0
3, 154092, Note_on_c, 1, 64, 70
3, 154092, Note_on_c, 1, 56, 70
3, 154092, Note_on_c, 1, 52, 70
3, 154092, Note_on_c, 1, 49, 70
3, 154124, Note_on_c, 1, 49, 0
3, 154124, Note_on_c, 1, 64, 0
3, 154124, Note_on_c, 1, 56, 0
3, 154124, Note_on_c, 1, 52, 0
3, 154140, Note_on_c, 1, 64, 70
3, 154140, Note_on_c, 1, 56, 70
3, 154140, Note_on_c, 1, 52, 70
3, 154140, Note_on_c, 1, 49, 70
3, 154172, Note_on_c, 1, 49, 0
3, 154172, Note_on_c, 1, 64, 0
3, 154172, Note_on_c, 1, 56, 0
3, 154172, Note_on_c, 1, 52, 0
3, 154188, Note_on_c, 1, 64, 70
3, 154188, Note_on_c, 1, 56, 70
3, 154188, Note_on_c, 1, 52, 70
3, 154188, Note_on_c, 1, 49, 70
3, 154220, Note_on_c, 1, 49, 0
3, 154220, Note_on_c, 1, 64, 0
3, 154220, Note_on_c, 1, 56, 0
3, 154220, Note_on_c, 1, 52, 0
3, 154236, Note_on_c, 1, 64, 70
3, 154236, Note_on_c, 1, 56, 70
3, 154236, Note_on_c, 1, 52, 70
3, 154236, Note_on_c, 1, 49, 70
3, 154268, Note_on_c, 1, 49, 0
3, 154268, Note_on_c, 1, 64, 0
3, 154268, Note_on_c, 1, 56, 0
3, 154268, Note_on_c, 1, 52, 0
3, 154284, Note_on_c, 1, 64, 70
3, 154284, Note_on_c, 1, 56, 70
3, 154284, Note_on_c, 1, 52, 70
3, 154284, Note_on_c, 1, 49, 70
3, 154316, Note_on_c, 1, 49, 0
3, 154316, Note_on_c, 1, 64, 0
3, 154316, Note_on_c, 1, 56, 0
3, 154316, Note_on_c, 1, 52, 0
3, 154332, Note_on_c, 1, 64, 70
3, 154332, Note_on_c, 1, 56, 70
3, 154332, Note_on_c, 1, 52, 70
3, 154332, Note_on_c, 1, 49, 70
3, 154364, Note_on_c, 1, 49, 0
3, 154364, Note_on_c, 1, 64, 0
3, 154364, Note_on_c, 1, 56, 0
3, 154364, Note_on_c, 1, 52, 0
3, 154380, Note_on_c, 1, 64, 70
3, 154380, Note_on_c, 1, 56, 70
3, 154380, Note_on_c, 1, 52, 70
3, 154380, Note_on_c, 1, 49, 70
3, 154412, Note_on_c, 1, 49, 0
3, 154412, Note_on_c, 1, 64, 0
3, 154412, Note_on_c, 1, 56, 0
3, 154412, Note_on_c, 1, 52, 0
3, 154428, Note_on_c, 1, 64, 70
3, 154428, Note_on_c, 1, 56, 70
3, 154428, Note_on_c, 1, 52, 70
3, 154428, Note_on_c, 1, 49, 70
3, 154460, Note_on_c, 1, 49, 0
3, 154460, Note_on_c, 1, 64, 0
3, 154460, Note_on_c, 1, 56, 0
3, 154460, Note_on_c, 1, 52, 0
3, 154476, Note_on_c, 1, 64, 70
3, 154476, Note_on_c, 1, 56, 70
3, 154476, Note_on_c, 1, 52, 70
3, 154476, Note_on_c, 1, 49, 70
3, 154508, Note_on_c, 1, 49, 0
3, 154508, Note_on_c, 1, 64, 0
3, 154508, Note_on_c, 1, 56, 0
3, 154508, Note_on_c, 1, 52, 0
3, 154524, Note_on_c, 1, 64, 70
3, 154524, Note_on_c, 1, 56, 70
3, 154524, Note_on_c, 1, 52, 70
3, 154524, Note_on_c, 1, 49, 70
3, 154556, Note_on_c, 1, 49, 0
3, 154556, Note_on_c, 1, 64, 0
3, 154556, Note_on_c, 1, 56, 0
3, 154556, Note_on_c, 1, 52, 0
3, 154572, Note_on_c, 1, 64, 70
3, 154572, Note_on_c, 1, 56, 70
3, 154572, Note_on_c, 1, 52, 70
3, 154572, Note_on_c, 1, 49, 70
3, 154604, Note_on_c, 1, 49, 0
3, 154604, Note_on_c, 1, 64, 0
3, 154604, Note_on_c, 1, 56, 0
3, 154604, Note_on_c, 1, 52, 0
3, 154620, Note_on_c, 1, 64, 70
3, 154620, Note_on_c, 1, 56, 70
3, 154620, Note_on_c, 1, 52, 70
3, 154620, Note_on_c, 1, 49, 70
3, 154652, Note_on_c, 1, 49, 0
3, 154652, Note_on_c, 1, 64, 0
3, 154652, Note_on_c, 1, 56, 0
3, 154652, Note_on_c, 1, 52, 0
3, 154668, Note_on_c, 1, 64, 70
3, 154668, Note_on_c, 1, 56, 70
3, 154668, Note_on_c, 1, 52, 70
3, 154668, Note_on_c, 1, 49, 70
3, 154700, Note_on_c, 1, 49, 0
3, 154700, Note_on_c, 1, 64, 0
3, 154700, Note_on_c, 1, 56, 0
3, 154700, Note_on_c, 1, 52, 0
3, 154716, Note_on_c, 1, 64, 70
3, 154716, Note_on_c, 1, 56, 70
3, 154716, Note_on_c, 1, 52, 70
3, 154716, Note_on_c, 1, 49, 70
3, 154748, Note_on_c, 1, 49, 0
3, 154748, Note_on_c, 1, 64, 0
3, 154748, Note_on_c, 1, 56, 0
3, 154748, Note_on_c, 1, 52, 0
3, 154764, Note_on_c, 1, 64, 70
3, 154764, Note_on_c, 1, 56, 70
3, 154764, Note_on_c, 1, 52, 70
3, 154764, Note_on_c, 1, 49, 70
3, 154796, Note_on_c, 1, 49, 0
3, 154796, Note_on_c, 1, 64, 0
3, 154796, Note_on_c, 1, 56, 0
3, 154796, Note_on_c, 1, 52, 0
3, 154812, Note_on_c, 1, 64, 70
3, 154812, Note_on_c, 1, 56, 70
3, 154812, Note_on_c, 1, 52, 70
3, 154812, Note_on_c, 1, 49, 70
3, 154844, Note_on_c, 1, 49, 0
3, 154844, Note_on_c, 1, 64, 0
3, 154844, Note_on_c, 1, 56, 0
3, 154844, Note_on_c, 1, 52, 0
3, 154860, Note_on_c, 1, 64, 70
3, 154860, Note_on_c, 1, 56, 70
3, 154860, Note_on_c, 1, 52, 70
3, 154860, Note_on_c, 1, 49, 70
3, 154892, Note_on_c, 1, 49, 0
3, 154892, Note_on_c, 1, 64, 0
3, 154892, Note_on_c, 1, 56, 0
3, 154892, Note_on_c, 1, 52, 0
3, 154908, Note_on_c, 1, 64, 70
3, 154908, Note_on_c, 1, 56, 70
3, 154908, Note_on_c, 1, 52, 70
3, 154908, Note_on_c, 1, 49, 70
3, 154940, Note_on_c, 1, 49, 0
3, 154940, Note_on_c, 1, 64, 0
3, 154940, Note_on_c, 1, 56, 0
3, 154940, Note_on_c, 1, 52, 0
3, 154956, Note_on_c, 1, 64, 70
3, 154956, Note_on_c, 1, 56, 70
3, 154956, Note_on_c, 1, 52, 70
3, 154956, Note_on_c, 1, 49, 70
3, 154988, Note_on_c, 1, 49, 0
3, 154988, Note_on_c, 1, 64, 0
3, 154988, Note_on_c, 1, 56, 0
3, 154988, Note_on_c, 1, 52, 0
3, 155004, Note_on_c, 1, 64, 70
3, 155004, Note_on_c, 1, 56, 70
3, 155004, Note_on_c, 1, 52, 70
3, 155004, Note_on_c, 1, 49, 70
3, 155036, Note_on_c, 1, 49, 0
3, 155036, Note_on_c, 1, 64, 0
3, 155036, Note_on_c, 1, 56, 0
3, 155036, Note_on_c, 1, 52, 0
3, 155052, Note_on_c, 1, 64, 70
3, 155052, Note_on_c, 1, 56, 70
3, 155052, Note_on_c, 1, 52, 70
3, 155052, Note_on_c, 1, 49, 70
3, 155084, Note_on_c, 1, 49, 0
3, 155084, Note_on_c, 1, 64, 0
3, 155084, Note_on_c, 1, 56, 0
3, 155084, Note_on_c, 1, 52, 0
3, 155100, Note_on_c, 1, 64, 85
3, 155100, Note_on_c, 1, 56, 85
3, 155100, Note_on_c, 1, 52, 85
3, 155100, Note_on_c, 1, 47, 85
3, 155132, Note_on_c, 1, 47, 0
3, 155132, Note_on_c, 1, 64, 0
3, 155132, Note_on_c, 1, 56, 0
3, 155132, Note_on_c, 1, 52, 0
3, 155148, Note_on_c, 1, 64, 85
3, 155148, Note_on_c, 1, 56, 85
3, 155148, Note_on_c, 1, 52, 85
3, 155148, Note_on_c, 1, 47, 85
3, 155180, Note_on_c, 1, 47, 0
3, 155180, Note_on_c, 1, 64, 0
3, 155180, Note_on_c, 1, 56, 0
3, 155180, Note_on_c, 1, 52, 0
3, 155196, Note_on_c, 1, 64, 85
3, 155196, Note_on_c, 1, 56, 85
3, 155196, Note_on_c, 1, 52, 85
3, 155196, Note_on_c, 1, 47, 85
3, 155228, Note_on_c, 1, 47, 0
3, 155228, Note_on_c, 1, 64, 0
3, 155228, Note_on_c, 1, 56, 0
3, 155228, Note_on_c, 1, 52, 0
3, 155244, Note_on_c, 1, 64, 85
3, 155244, Note_on_c, 1, 56, 85
3, 155244, Note_on_c, 1, 52, 85
3, 155244, Note_on_c, 1, 47, 85
3, 155276, Note_on_c, 1, 47, 0
3, 155276, Note_on_c, 1, 64, 0
3, 155276, Note_on_c, 1, 56, 0
3, 155276, Note_on_c, 1, 52, 0
3, 155292, Note_on_c, 1, 64, 85
3, 155292, Note_on_c, 1, 56, 85
3, 155292, Note_on_c, 1, 52, 85
3, 155292, Note_on_c, 1, 47, 85
3, 155324, Note_on_c, 1, 47, 0
3, 155324, Note_on_c, 1, 64, 0
3, 155324, Note_on_c, 1, 56, 0
3, 155324, Note_on_c, 1, 52, 0
3, 155340, Note_on_c, 1, 64, 85
3, 155340, Note_on_c, 1, 56, 85
3, 155340, Note_on_c, 1, 52, 85
3, 155340, Note_on_c, 1, 47, 85
3, 155372, Note_on_c, 1, 47, 0
3, 155372, Note_on_c, 1, 64, 0
3, 155372, Note_on_c, 1, 56, 0
3, 155372, Note_on_c, 1, 52, 0
3, 155388, Note_on_c, 1, 64, 85
3, 155388, Note_on_c, 1, 56, 85
3, 155388, Note_on_c, 1, 52, 85
3, 155388, Note_on_c, 1, 47, 85
3, 155420, Note_on_c, 1, 47, 0
3, 155420, Note_on_c, 1, 64, 0
3, 155420, Note_on_c, 1, 56, 0
3, 155420, Note_on_c, 1, 52, 0
3, 155436, Note_on_c, 1, 64, 85
3, 155436, Note_on_c, 1, 56, 85
3, 155436, Note_on_c, 1, 52, 85
3, 155436, Note_on_c, 1, 47, 85
3, 155468, Note_on_c, 1, 47, 0
3, 155468, Note_on_c, 1, 64, 0
3, 155468, Note_on_c, 1, 56, 0
3, 155468, Note_on_c, 1, 52, 0
3, 155484, Note_on_c, 1, 64, 85
3, 155484, Note_on_c, 1, 56, 85
3, 155484, Note_on_c, 1, 52, 85
3, 155484, Note_on_c, 1, 47, 85
3, 155516, Note_on_c, 1, 47, 0
3, 155516, Note_on_c, 1, 64, 0
3, 155516, Note_on_c, 1, 56, 0
3, 155516, Note_on_c, 1, 52, 0
3, 155532, Note_on_c, 1, 64, 85
3, 155532, Note_on_c, 1, 56, 85
3, 155532, Note_on_c, 1, 52, 85
3, 155532, Note_on_c, 1, 47, 85
3, 155564, Note_on_c, 1, 47, 0
3, 155564, Note_on_c, 1, 64, 0
3, 155564, Note_on_c, 1, 56, 0
3, 155564, Note_on_c, 1, 52, 0
3, 155580, Note_on_c, 1, 64, 85
3, 155580, Note_on_c, 1, 56, 85
3, 155580, Note_on_c, 1, 52, 85
3, 155580, Note_on_c, 1, 47, 85
3, 155612, Note_on_c, 1, 47, 0
3, 155612, Note_on_c, 1, 64, 0
3, 155612, Note_on_c, 1, 56, 0
3, 155612, Note_on_c, 1, 52, 0
3, 155628, Note_on_c, 1, 64, 85
3, 155628, Note_on_c, 1, 56, 85
3, 155628, Note_on_c, 1, 52, 85
3, 155628, Note_on_c, 1, 47, 85
3, 155660, Note_on_c, 1, 47, 0
3, 155660, Note_on_c, 1, 64, 0
3, 155660, Note_on_c, 1, 56, 0
3, 155660, Note_on_c, 1, 52, 0
3, 155676, Note_on_c, 1, 64, 85
3, 155676, Note_on_c, 1, 56, 85
3, 155676, Note_on_c, 1, 52, 85
3, 155676, Note_on_c, 1, 47, 85
3, 155708, Note_on_c, 1, 47, 0
3, 155708, Note_on_c, 1, 64, 0
3, 155708, Note_on_c, 1, 56, 0
3, 155708, Note_on_c, 1, 52, 0
3, 155724, Note_on_c, 1, 64, 85
3, 155724, Note_on_c, 1, 56, 85
3, 155724, Note_on_c, 1, 52, 85
3, 155724, Note_on_c, 1, 47, 85
3, 155756, Note_on_c, 1, 47, 0
3, 155756, Note_on_c, 1, 64, 0
3, 155756, Note_on_c, 1, 56, 0
3, 155756, Note_on_c, 1, 52, 0
3, 155772, Note_on_c, 1, 64, 90
3, 155772, Note_on_c, 1, 56, 90
3, 155772, Note_on_c, 1, 52, 90
3, 155772, Note_on_c, 1, 47, 90
3, 155804, Note_on_c, 1, 47, 0
3, 155804, Note_on_c, 1, 64, 0
3, 155804, Note_on_c, 1, 56, 0
3, 155804, Note_on_c, 1, 52, 0
3, 155820, Note_on_c, 1, 64, 90
3, 155820, Note_on_c, 1, 56, 90
3, 155820, Note_on_c, 1, 52, 90
3, 155820, Note_on_c, 1, 47, 90
3, 155852, Note_on_c, 1, 47, 0
3, 155852, Note_on_c, 1, 64, 0
3, 155852, Note_on_c, 1, 56, 0
3, 155852, Note_on_c, 1, 52, 0
3, 155868, Note_on_c, 1, 64, 90
3, 155868, Note_on_c, 1, 56, 90
3, 155868, Note_on_c, 1, 52, 90
3, 155868, Note_on_c, 1, 47, 90
3, 155900, Note_on_c, 1, 47, 0
3, 155900, Note_on_c, 1, 64, 0
3, 155900, Note_on_c, 1, 56, 0
3, 155900, Note_on_c, 1, 52, 0
3, 155916, Note_on_c, 1, 64, 90
3, 155916, Note_on_c, 1, 56, 90
3, 155916, Note_on_c, 1, 52, 90
3, 155916, Note_on_c, 1, 47, 90
3, 155948, Note_on_c, 1, 47, 0
3, 155948, Note_on_c, 1, 64, 0
3, 155948, Note_on_c, 1, 56, 0
3, 155948, Note_on_c, 1, 52, 0
3, 155964, Note_on_c, 1, 64, 90
3, 155964, Note_on_c, 1, 56, 90
3, 155964, Note_on_c, 1, 52, 90
3, 155964, Note_on_c, 1, 47, 90
3, 155996, Note_on_c, 1, 47, 0
3, 155996, Note_on_c, 1, 64, 0
3, 155996, Note_on_c, 1, 56, 0
3, 155996, Note_on_c, 1, 52, 0
3, 156012, Note_on_c, 1, 64, 90
3, 156012, Note_on_c, 1, 56, 90
3, 156012, Note_on_c, 1, 52, 90
3, 156012, Note_on_c, 1, 47, 90
3, 156044, Note_on_c, 1, 47, 0
3, 156044, Note_on_c, 1, 64, 0
3, 156044, Note_on_c, 1, 56, 0
3, 156044, Note_on_c, 1, 52, 0
3, 156060, Note_on_c, 1, 64, 90
3, 156060, Note_on_c, 1, 56, 90
3, 156060, Note_on_c, 1, 52, 90
3, 156060, Note_on_c, 1, 47, 90
3, 156092, Note_on_c, 1, 47, 0
3, 156092, Note_on_c, 1, 64, 0
3, 156092, Note_on_c, 1, 56, 0
3, 156092, Note_on_c, 1, 52, 0
3, 156108, Note_on_c, 1, 64, 90
3, 156108, Note_on_c, 1, 56, 90
3, 156108, Note_on_c, 1, 52, 90
3, 156108, Note_on_c, 1, 47, 90
3, 156140, Note_on_c, 1, 47, 0
3, 156140, Note_on_c, 1, 64, 0
3, 156140, Note_on_c, 1, 56, 0
3, 156140, Note_on_c, 1, 52, 0
3, 156156, Note_on_c, 1, 64, 90
3, 156156, Note_on_c, 1, 56, 90
3, 156156, Note_on_c, 1, 52, 90
3, 156156, Note_on_c, 1, 47, 90
3, 156188, Note_on_c, 1, 47, 0
3, 156188, Note_on_c, 1, 64, 0
3, 156188, Note_on_c, 1, 56, 0
3, 156188, Note_on_c, 1, 52, 0
3, 156216, Note_on_c, 1, 64, 95
3, 156216, Note_on_c, 1, 61, 95
3, 156216, Note_on_c, 1, 52, 95
3, 156216, Note_on_c, 1, 45, 95
3, 156248, Note_on_c, 1, 45, 0
3, 156248, Note_on_c, 1, 64, 0
3, 156248, Note_on_c, 1, 61, 0
3, 156248, Note_on_c, 1, 52, 0
3, 156264, Note_on_c, 1, 64, 95
3, 156264, Note_on_c, 1, 61, 95
3, 156264, Note_on_c, 1, 52, 95
3, 156264, Note_on_c, 1, 45, 95
3, 156296, Note_on_c, 1, 45, 0
3, 156296, Note_on_c, 1, 64, 0
3, 156296, Note_on_c, 1, 61, 0
3, 156296, Note_on_c, 1, 52, 0
3, 156312, Note_on_c, 1, 64, 95
3, 156312, Note_on_c, 1, 61, 95
3, 156312, Note_on_c, 1, 52, 95
3, 156312, Note_on_c, 1, 45, 95
3, 156344, Note_on_c, 1, 45, 0
3, 156344, Note_on_c, 1, 64, 0
3, 156344, Note_on_c, 1, 61, 0
3, 156344, Note_on_c, 1, 52, 0
3, 156360, Note_on_c, 1, 64, 95
3, 156360, Note_on_c, 1, 61, 95
3, 156360, Note_on_c, 1, 52, 95
3, 156360, Note_on_c, 1, 45, 95
3, 156392, Note_on_c, 1, 45, 0
3, 156392, Note_on_c, 1, 64, 0
3, 156392, Note_on_c, 1, 61, 0
3, 156392, Note_on_c, 1, 52, 0
3, 156408, Note_on_c, 1, 64, 95
3, 156408, Note_on_c, 1, 61, 95
3, 156408, Note_on_c, 1, 52, 95
3, 156408, Note_on_c, 1, 45, 95
3, 156440, Note_on_c, 1, 45, 0
3, 156440, Note_on_c, 1, 64, 0
3, 156440, Note_on_c, 1, 61, 0
3, 156440, Note_on_c, 1, 52, 0
3, 156456, Note_on_c, 1, 64, 95
3, 156456, Note_on_c, 1, 61, 95
3, 156456, Note_on_c, 1, 52, 95
3, 156456, Note_on_c, 1, 45, 95
3, 156488, Note_on_c, 1, 45, 0
3, 156488, Note_on_c, 1, 64, 0
3, 156488, Note_on_c, 1, 61, 0
3, 156488, Note_on_c, 1, 52, 0
3, 156504, Note_on_c, 1, 64, 95
3, 156504, Note_on_c, 1, 61, 95
3, 156504, Note_on_c, 1, 52, 95
3, 156504, Note_on_c, 1, 45, 95
3, 156536, Note_on_c, 1, 45, 0
3, 156536, Note_on_c, 1, 64, 0
3, 156536, Note_on_c, 1, 61, 0
3, 156536, Note_on_c, 1, 52, 0
3, 156552, Note_on_c, 1, 64, 95
3, 156552, Note_on_c, 1, 61, 95
3, 156552, Note_on_c, 1, 52, 95
3, 156552, Note_on_c, 1, 45, 95
3, 156584, Note_on_c, 1, 45, 0
3, 156584, Note_on_c, 1, 64, 0
3, 156584, Note_on_c, 1, 61, 0
3, 156584, Note_on_c, 1, 52, 0
3, 156600, Note_on_c, 1, 64, 95
3, 156600, Note_on_c, 1, 61, 95
3, 156600, Note_on_c, 1, 52, 95
3, 156600, Note_on_c, 1, 45, 95
3, 156632, Note_on_c, 1, 45, 0
3, 156632, Note_on_c, 1, 64, 0
3, 156632, Note_on_c, 1, 61, 0
3, 156632, Note_on_c, 1, 52, 0
3, 156648, Note_on_c, 1, 64, 95
3, 156648, Note_on_c, 1, 61, 95
3, 156648, Note_on_c, 1, 52, 95
3, 156648, Note_on_c, 1, 45, 95
3, 156680, Note_on_c, 1, 45, 0
3, 156680, Note_on_c, 1, 64, 0
3, 156680, Note_on_c, 1, 61, 0
3, 156680, Note_on_c, 1, 52, 0
3, 156696, Note_on_c, 1, 64, 95
3, 156696, Note_on_c, 1, 61, 95
3, 156696, Note_on_c, 1, 52, 95
3, 156696, Note_on_c, 1, 45, 95
3, 156728, Note_on_c, 1, 45, 0
3, 156728, Note_on_c, 1, 64, 0
3, 156728, Note_on_c, 1, 61, 0
3, 156728, Note_on_c, 1, 52, 0
3, 156744, Note_on_c, 1, 64, 95
3, 156744, Note_on_c, 1, 61, 95
3, 156744, Note_on_c, 1, 52, 95
3, 156744, Note_on_c, 1, 45, 95
3, 156776, Note_on_c, 1, 45, 0
3, 156776, Note_on_c, 1, 64, 0
3, 156776, Note_on_c, 1, 61, 0
3, 156776, Note_on_c, 1, 52, 0
3, 156792, Note_on_c, 1, 64, 95
3, 156792, Note_on_c, 1, 61, 95
3, 156792, Note_on_c, 1, 52, 95
3, 156792, Note_on_c, 1, 45, 95
3, 156824, Note_on_c, 1, 45, 0
3, 156824, Note_on_c, 1, 64, 0
3, 156824, Note_on_c, 1, 61, 0
3, 156824, Note_on_c, 1, 52, 0
3, 156840, Note_on_c, 1, 64, 95
3, 156840, Note_on_c, 1, 61, 95
3, 156840, Note_on_c, 1, 52, 95
3, 156840, Note_on_c, 1, 45, 95
3, 156872, Note_on_c, 1, 45, 0
3, 156872, Note_on_c, 1, 64, 0
3, 156872, Note_on_c, 1, 61, 0
3, 156872, Note_on_c, 1, 52, 0
3, 156888, Note_on_c, 1, 64, 95
3, 156888, Note_on_c, 1, 61, 95
3, 156888, Note_on_c, 1, 52, 95
3, 156888, Note_on_c, 1, 45, 95
3, 156920, Note_on_c, 1, 45, 0
3, 156920, Note_on_c, 1, 64, 0
3, 156920, Note_on_c, 1, 61, 0
3, 156920, Note_on_c, 1, 52, 0
3, 156936, Note_on_c, 1, 64, 95
3, 156936, Note_on_c, 1, 61, 95
3, 156936, Note_on_c, 1, 52, 95
3, 156936, Note_on_c, 1, 45, 95
3, 156968, Note_on_c, 1, 45, 0
3, 156968, Note_on_c, 1, 64, 0
3, 156968, Note_on_c, 1, 61, 0
3, 156968, Note_on_c, 1, 52, 0
3, 156984, Note_on_c, 1, 64, 95
3, 156984, Note_on_c, 1, 61, 95
3, 156984, Note_on_c, 1, 52, 95
3, 156984, Note_on_c, 1, 45, 95
3, 157016, Note_on_c, 1, 45, 0
3, 157016, Note_on_c, 1, 64, 0
3, 157016, Note_on_c, 1, 61, 0
3, 157016, Note_on_c, 1, 52, 0
3, 157032, Note_on_c, 1, 64, 95
3, 157032, Note_on_c, 1, 61, 95
3, 157032, Note_on_c, 1, 52, 95
3, 157032, Note_on_c, 1, 45, 95
3, 157064, Note_on_c, 1, 45, 0
3, 157064, Note_on_c, 1, 64, 0
3, 157064, Note_on_c, 1, 61, 0
3, 157064, Note_on_c, 1, 52, 0
3, 157080, Note_on_c, 1, 64, 95
3, 157080, Note_on_c, 1, 61, 95
3, 157080, Note_on_c, 1, 52, 95
3, 157080, Note_on_c, 1, 45, 95
3, 157112, Note_on_c, 1, 45, 0
3, 157112, Note_on_c, 1, 64, 0
3, 157112, Note_on_c, 1, 61, 0
3, 157112, Note_on_c, 1, 52, 0
3, 157128, Note_on_c, 1, 64, 95
3, 157128, Note_on_c, 1, 61, 95
3, 157128, Note_on_c, 1, 52, 95
3, 157128, Note_on_c, 1, 45, 95
3, 157160, Note_on_c, 1, 45, 0
3, 157160, Note_on_c, 1, 64, 0
3, 157160, Note_on_c, 1, 61, 0
3, 157160, Note_on_c, 1, 52, 0
3, 157176, Note_on_c, 1, 64, 95
3, 157176, Note_on_c, 1, 61, 95
3, 157176, Note_on_c, 1, 52, 95
3, 157176, Note_on_c, 1, 45, 95
3, 157208, Note_on_c, 1, 45, 0
3, 157208, Note_on_c, 1, 64, 0
3, 157208, Note_on_c, 1, 61, 0
3, 157208, Note_on_c, 1, 52, 0
3, 157224, Note_on_c, 1, 64, 95
3, 157224, Note_on_c, 1, 61, 95
3, 157224, Note_on_c, 1, 52, 95
3, 157224, Note_on_c, 1, 45, 95
3, 157256, Note_on_c, 1, 45, 0
3, 157256, Note_on_c, 1, 64, 0
3, 157256, Note_on_c, 1, 61, 0
3, 157256, Note_on_c, 1, 52, 0
3, 157272, Note_on_c, 1, 64, 95
3, 157272, Note_on_c, 1, 61, 95
3, 157272, Note_on_c, 1, 52, 95
3, 157272, Note_on_c, 1, 45, 95
3, 157304, Note_on_c, 1, 45, 0
3, 157304, Note_on_c, 1, 64, 0
3, 157304, Note_on_c, 1, 61, 0
3, 157304, Note_on_c, 1, 52, 0
3, 157320, Note_on_c, 1, 64, 95
3, 157320, Note_on_c, 1, 61, 95
3, 157320, Note_on_c, 1, 52, 95
3, 157320, Note_on_c, 1, 45, 95
3, 157352, Note_on_c, 1, 45, 0
3, 157352, Note_on_c, 1, 64, 0
3, 157352, Note_on_c, 1, 61, 0
3, 157352, Note_on_c, 1, 52, 0
3, 157368, Note_on_c, 1, 64, 95
3, 157368, Note_on_c, 1, 61, 95
3, 157368, Note_on_c, 1, 52, 95
3, 157368, Note_on_c, 1, 45, 95
3, 157400, Note_on_c, 1, 45, 0
3, 157400, Note_on_c, 1, 64, 0
3, 157400, Note_on_c, 1, 61, 0
3, 157400, Note_on_c, 1, 52, 0
3, 157416, Note_on_c, 1, 64, 95
3, 157416, Note_on_c, 1, 61, 95
3, 157416, Note_on_c, 1, 52, 95
3, 157416, Note_on_c, 1, 45, 95
3, 157448, Note_on_c, 1, 45, 0
3, 157448, Note_on_c, 1, 64, 0
3, 157448, Note_on_c, 1, 61, 0
3, 157448, Note_on_c, 1, 52, 0
3, 157464, Note_on_c, 1, 64, 95
3, 157464, Note_on_c, 1, 61, 95
3, 157464, Note_on_c, 1, 52, 95
3, 157464, Note_on_c, 1, 45, 95
3, 157496, Note_on_c, 1, 45, 0
3, 157496, Note_on_c, 1, 64, 0
3, 157496, Note_on_c, 1, 61, 0
3, 157496, Note_on_c, 1, 52, 0
3, 157512, Note_on_c, 1, 64, 95
3, 157512, Note_on_c, 1, 61, 95
3, 157512, Note_on_c, 1, 52, 95
3, 157512, Note_on_c, 1, 45, 95
3, 157544, Note_on_c, 1, 45, 0
3, 157544, Note_on_c, 1, 64, 0
3, 157544, Note_on_c, 1, 61, 0
3, 157544, Note_on_c, 1, 52, 0
3, 157560, Note_on_c, 1, 64, 95
3, 157560, Note_on_c, 1, 61, 95
3, 157560, Note_on_c, 1, 52, 95
3, 157560, Note_on_c, 1, 45, 95
3, 157592, Note_on_c, 1, 45, 0
3, 157592, Note_on_c, 1, 64, 0
3, 157592, Note_on_c, 1, 61, 0
3, 157592, Note_on_c, 1, 52, 0
3, 157608, Note_on_c, 1, 64, 95
3, 157608, Note_on_c, 1, 61, 95
3, 157608, Note_on_c, 1, 52, 95
3, 157608, Note_on_c, 1, 45, 95
3, 157640, Note_on_c, 1, 45, 0
3, 157640, Note_on_c, 1, 64, 0
3, 157640, Note_on_c, 1, 61, 0
3, 157640, Note_on_c, 1, 52, 0
3, 157656, Note_on_c, 1, 64, 95
3, 157656, Note_on_c, 1, 61, 95
3, 157656, Note_on_c, 1, 52, 95
3, 157656, Note_on_c, 1, 45, 95
3, 157688, Note_on_c, 1, 45, 0
3, 157688, Note_on_c, 1, 64, 0
3, 157688, Note_on_c, 1, 61, 0
3, 157688, Note_on_c, 1, 52, 0
3, 157704, Note_on_c, 1, 64, 95
3, 157704, Note_on_c, 1, 61, 95
3, 157704, Note_on_c, 1, 52, 95
3, 157704, Note_on_c, 1, 45, 95
3, 157736, Note_on_c, 1, 45, 0
3, 157736, Note_on_c, 1, 64, 0
3, 157736, Note_on_c, 1, 61, 0
3, 157736, Note_on_c, 1, 52, 0
3, 157752, Note_on_c, 1, 64, 95
3, 157752, Note_on_c, 1, 61, 95
3, 157752, Note_on_c, 1, 52, 95
3, 157752, Note_on_c, 1, 45, 95
3, 157784, Note_on_c, 1, 45, 0
3, 157784, Note_on_c, 1, 64, 0
3, 157784, Note_on_c, 1, 61, 0
3, 157784, Note_on_c, 1, 52, 0
3, 157800, Note_on_c, 1, 64, 95
3, 157800, Note_on_c, 1, 61, 95
3, 157800, Note_on_c, 1, 52, 95
3, 157800, Note_on_c, 1, 45, 95
3, 157832, Note_on_c, 1, 45, 0
3, 157832, Note_on_c, 1, 64, 0
3, 157832, Note_on_c, 1, 61, 0
3, 157832, Note_on_c, 1, 52, 0
3, 157848, Note_on_c, 1, 64, 95
3, 157848, Note_on_c, 1, 61, 95
3, 157848, Note_on_c, 1, 52, 95
3, 157848, Note_on_c, 1, 45, 95
3, 157880, Note_on_c, 1, 45, 0
3, 157880, Note_on_c, 1, 64, 0
3, 157880, Note_on_c, 1, 61, 0
3, 157880, Note_on_c, 1, 52, 0
3, 157896, Note_on_c, 1, 64, 95
3, 157896, Note_on_c, 1, 61, 95
3, 157896, Note_on_c, 1, 52, 95
3, 157896, Note_on_c, 1, 45, 95
3, 157928, Note_on_c, 1, 45, 0
3, 157928, Note_on_c, 1, 64, 0
3, 157928, Note_on_c, 1, 61, 0
3, 157928, Note_on_c, 1, 52, 0
3, 157944, Note_on_c, 1, 64, 95
3, 157944, Note_on_c, 1, 61, 95
3, 157944, Note_on_c, 1, 52, 95
3, 157944, Note_on_c, 1, 45, 95
3, 157976, Note_on_c, 1, 45, 0
3, 157976, Note_on_c, 1, 64, 0
3, 157976, Note_on_c, 1, 61, 0
3, 157976, Note_on_c, 1, 52, 0
3, 157992, Note_on_c, 1, 64, 95
3, 157992, Note_on_c, 1, 61, 95
3, 157992, Note_on_c, 1, 52, 95
3, 157992, Note_on_c, 1, 45, 95
3, 158024, Note_on_c, 1, 45, 0
3, 158024, Note_on_c, 1, 64, 0
3, 158024, Note_on_c, 1, 61, 0
3, 158024, Note_on_c, 1, 52, 0
3, 158040, Note_on_c, 1, 64, 95
3, 158040, Note_on_c, 1, 61, 95
3, 158040, Note_on_c, 1, 52, 95
3, 158040, Note_on_c, 1, 45, 95
3, 158072, Note_on_c, 1, 45, 0
3, 158072, Note_on_c, 1, 64, 0
3, 158072, Note_on_c, 1, 61, 0
3, 158072, Note_on_c, 1, 52, 0
3, 158128, Note_on_c, 1, 64, 95
3, 158128, Note_on_c, 1, 61, 95
3, 158128, Note_on_c, 1, 52, 95
3, 158128, Note_on_c, 1, 44, 95
3, 158160, Note_on_c, 1, 44, 0
3, 158160, Note_on_c, 1, 64, 0
3, 158160, Note_on_c, 1, 61, 0
3, 158160, Note_on_c, 1, 52, 0
3, 158176, Note_on_c, 1, 64, 95
3, 158176, Note_on_c, 1, 61, 95
3, 158176, Note_on_c, 1, 52, 95
3, 158176, Note_on_c, 1, 44, 95
3, 158208, Note_on_c, 1, 44, 0
3, 158208, Note_on_c, 1, 64, 0
3, 158208, Note_on_c, 1, 61, 0
3, 158208, Note_on_c, 1, 52, 0
3, 158224, Note_on_c, 1, 64, 95
3, 158224, Note_on_c, 1, 61, 95
3, 158224, Note_on_c, 1, 52, 95
3, 158224, Note_on_c, 1, 44, 95
3, 158256, Note_on_c, 1, 44, 0
3, 158256, Note_on_c, 1, 64, 0
3, 158256, Note_on_c, 1, 61, 0
3, 158256, Note_on_c, 1, 52, 0
3, 158272, Note_on_c, 1, 64, 95
3, 158272, Note_on_c, 1, 61, 95
3, 158272, Note_on_c, 1, 52, 95
3, 158272, Note_on_c, 1, 44, 95
3, 158304, Note_on_c, 1, 44, 0
3, 158304, Note_on_c, 1, 64, 0
3, 158304, Note_on_c, 1, 61, 0
3, 158304, Note_on_c, 1, 52, 0
3, 158320, Note_on_c, 1, 64, 95
3, 158320, Note_on_c, 1, 61, 95
3, 158320, Note_on_c, 1, 52, 95
3, 158320, Note_on_c, 1, 44, 95
3, 158352, Note_on_c, 1, 44, 0
3, 158352, Note_on_c, 1, 64, 0
3, 158352, Note_on_c, 1, 61, 0
3, 158352, Note_on_c, 1, 52, 0
3, 158368, Note_on_c, 1, 64, 95
3, 158368, Note_on_c, 1, 61, 95
3, 158368, Note_on_c, 1, 52, 95
3, 158368, Note_on_c, 1, 44, 95
3, 158400, Note_on_c, 1, 44, 0
3, 158400, Note_on_c, 1, 64, 0
3, 158400, Note_on_c, 1, 61, 0
3, 158400, Note_on_c, 1, 52, 0
3, 158416, Note_on_c, 1, 64, 95
3, 158416, Note_on_c, 1, 61, 95
3, 158416, Note_on_c, 1, 52, 95
3, 158416, Note_on_c, 1, 44, 95
3, 158448, Note_on_c, 1, 44, 0
3, 158448, Note_on_c, 1, 64, 0
3, 158448, Note_on_c, 1, 61, 0
3, 158448, Note_on_c, 1, 52, 0
3, 158464, Note_on_c, 1, 64, 95
3, 158464, Note_on_c, 1, 61, 95
3, 158464, Note_on_c, 1, 52, 95
3, 158464, Note_on_c, 1, 44, 95
3, 158496, Note_on_c, 1, 44, 0
3, 158496, Note_on_c, 1, 64, 0
3, 158496, Note_on_c, 1, 61, 0
3, 158496, Note_on_c, 1, 52, 0
3, 158512, Note_on_c, 1, 64, 95
3, 158512, Note_on_c, 1, 61, 95
3, 158512, Note_on_c, 1, 52, 95
3, 158512, Note_on_c, 1, 44, 95
3, 158544, Note_on_c, 1, 44, 0
3, 158544, Note_on_c, 1, 64, 0
3, 158544, Note_on_c, 1, 61, 0
3, 158544, Note_on_c, 1, 52, 0
3, 158560, Note_on_c, 1, 64, 95
3, 158560, Note_on_c, 1, 61, 95
3, 158560, Note_on_c, 1, 52, 95
3, 158560, Note_on_c, 1, 44, 95
3, 158592, Note_on_c, 1, 44, 0
3, 158592, Note_on_c, 1, 64, 0
3, 158592, Note_on_c, 1, 61, 0
3, 158592, Note_on_c, 1, 52, 0
3, 158608, Note_on_c, 1, 64, 95
3, 158608, Note_on_c, 1, 61, 95
3, 158608, Note_on_c, 1, 52, 95
3, 158608, Note_on_c, 1, 44, 95
3, 158640, Note_on_c, 1, 44, 0
3, 158640, Note_on_c, 1, 64, 0
3, 158640, Note_on_c, 1, 61, 0
3, 158640, Note_on_c, 1, 52, 0
3, 158656, Note_on_c, 1, 64, 95
3, 158656, Note_on_c, 1, 61, 95
3, 158656, Note_on_c, 1, 52, 95
3, 158656, Note_on_c, 1, 44, 95
3, 158688, Note_on_c, 1, 44, 0
3, 158688, Note_on_c, 1, 64, 0
3, 158688, Note_on_c, 1, 61, 0
3, 158688, Note_on_c, 1, 52, 0
3, 158740, Note_on_c, 1, 63, 95
3, 158740, Note_on_c, 1, 58, 95
3, 158740, Note_on_c, 1, 51, 95
3, 158740, Note_on_c, 1, 43, 95
3, 158772, Note_on_c, 1, 43, 0
3, 158772, Note_on_c, 1, 63, 0
3, 158772, Note_on_c, 1, 58, 0
3, 158772, Note_on_c, 1, 51, 0
3, 158788, Note_on_c, 1, 63, 95
3, 158788, Note_on_c, 1, 58, 95
3, 158788, Note_on_c, 1, 51, 95
3, 158788, Note_on_c, 1, 43, 95
3, 158820, Note_on_c, 1, 43, 0
3, 158820, Note_on_c, 1, 63, 0
3, 158820, Note_on_c, 1, 58, 0
3, 158820, Note_on_c, 1, 51, 0
3, 158836, Note_on_c, 1, 63, 95
3, 158836, Note_on_c, 1, 58, 95
3, 158836, Note_on_c, 1, 51, 95
3, 158836, Note_on_c, 1, 43, 95
3, 158868, Note_on_c, 1, 43, 0
3, 158868, Note_on_c, 1, 63, 0
3, 158868, Note_on_c, 1, 58, 0
3, 158868, Note_on_c, 1, 51, 0
3, 158884, Note_on_c, 1, 63, 95
3, 158884, Note_on_c, 1, 58, 95
3, 158884, Note_on_c, 1, 51, 95
3, 158884, Note_on_c, 1, 43, 95
3, 158916, Note_on_c, 1, 43, 0
3, 158916, Note_on_c, 1, 63, 0
3, 158916, Note_on_c, 1, 58, 0
3, 158916, Note_on_c, 1, 51, 0
3, 158932, Note_on_c, 1, 63, 95
3, 158932, Note_on_c, 1, 58, 95
3, 158932, Note_on_c, 1, 51, 95
3, 158932, Note_on_c, 1, 43, 95
3, 158964, Note_on_c, 1, 43, 0
3, 158964, Note_on_c, 1, 63, 0
3, 158964, Note_on_c, 1, 58, 0
3, 158964, Note_on_c, 1, 51, 0
3, 158980, Note_on_c, 1, 63, 95
3, 158980, Note_on_c, 1, 58, 95
3, 158980, Note_on_c, 1, 51, 95
3, 158980, Note_on_c, 1, 43, 95
3, 159012, Note_on_c, 1, 43, 0
3, 159012, Note_on_c, 1, 63, 0
3, 159012, Note_on_c, 1, 58, 0
3, 159012, Note_on_c, 1, 51, 0
3, 159028, Note_on_c, 1, 63, 95
3, 159028, Note_on_c, 1, 58, 95
3, 159028, Note_on_c, 1, 51, 95
3, 159028, Note_on_c, 1, 43, 95
3, 159060, Note_on_c, 1, 43, 0
3, 159060, Note_on_c, 1, 63, 0
3, 159060, Note_on_c, 1, 58, 0
3, 159060, Note_on_c, 1, 51, 0
3, 159076, Note_on_c, 1, 63, 95
3, 159076, Note_on_c, 1, 58, 95
3, 159076, Note_on_c, 1, 51, 95
3, 159076, Note_on_c, 1, 43, 95
3, 159108, Note_on_c, 1, 43, 0
3, 159108, Note_on_c, 1, 63, 0
3, 159108, Note_on_c, 1, 58, 0
3, 159108, Note_on_c, 1, 51, 0
3, 159124, Note_on_c, 1, 63, 95
3, 159124, Note_on_c, 1, 58, 95
3, 159124, Note_on_c, 1, 51, 95
3, 159124, Note_on_c, 1, 43, 95
3, 159156, Note_on_c, 1, 43, 0
3, 159156, Note_on_c, 1, 63, 0
3, 159156, Note_on_c, 1, 58, 0
3, 159156, Note_on_c, 1, 51, 0
3, 159172, Note_on_c, 1, 63, 95
3, 159172, Note_on_c, 1, 58, 95
3, 159172, Note_on_c, 1, 51, 95
3, 159172, Note_on_c, 1, 43, 95
3, 159204, Note_on_c, 1, 43, 0
3, 159204, Note_on_c, 1, 63, 0
3, 159204, Note_on_c, 1, 58, 0
3, 159204, Note_on_c, 1, 51, 0
3, 159220, Note_on_c, 1, 63, 95
3, 159220, Note_on_c, 1, 58, 95
3, 159220, Note_on_c, 1, 51, 95
3, 159220, Note_on_c, 1, 43, 95
3, 159252, Note_on_c, 1, 43, 0
3, 159252, Note_on_c, 1, 63, 0
3, 159252, Note_on_c, 1, 58, 0
3, 159252, Note_on_c, 1, 51, 0
3, 159268, Note_on_c, 1, 63, 95
3, 159268, Note_on_c, 1, 58, 95
3, 159268, Note_on_c, 1, 51, 95
3, 159268, Note_on_c, 1, 43, 95
3, 159300, Note_on_c, 1, 43, 0
3, 159300, Note_on_c, 1, 63, 0
3, 159300, Note_on_c, 1, 58, 0
3, 159300, Note_on_c, 1, 51, 0
3, 159316, Note_on_c, 1, 63, 95
3, 159316, Note_on_c, 1, 58, 95
3, 159316, Note_on_c, 1, 51, 95
3, 159316, Note_on_c, 1, 43, 95
3, 159348, Note_on_c, 1, 43, 0
3, 159348, Note_on_c, 1, 63, 0
3, 159348, Note_on_c, 1, 58, 0
3, 159348, Note_on_c, 1, 51, 0
3, 159364, Note_on_c, 1, 63, 95
3, 159364, Note_on_c, 1, 58, 95
3, 159364, Note_on_c, 1, 51, 95
3, 159364, Note_on_c, 1, 43, 95
3, 159396, Note_on_c, 1, 43, 0
3, 159396, Note_on_c, 1, 63, 0
3, 159396, Note_on_c, 1, 58, 0
3, 159396, Note_on_c, 1, 51, 0
3, 159412, Note_on_c, 1, 63, 95
3, 159412, Note_on_c, 1, 58, 95
3, 159412, Note_on_c, 1, 51, 95
3, 159412, Note_on_c, 1, 43, 95
3, 159444, Note_on_c, 1, 43, 0
3, 159444, Note_on_c, 1, 63, 0
3, 159444, Note_on_c, 1, 58, 0
3, 159444, Note_on_c, 1, 51, 0
3, 159460, Note_on_c, 1, 63, 95
3, 159460, Note_on_c, 1, 58, 95
3, 159460, Note_on_c, 1, 51, 95
3, 159460, Note_on_c, 1, 43, 95
3, 159492, Note_on_c, 1, 43, 0
3, 159492, Note_on_c, 1, 63, 0
3, 159492, Note_on_c, 1, 58, 0
3, 159492, Note_on_c, 1, 51, 0
3, 159508, Note_on_c, 1, 63, 95
3, 159508, Note_on_c, 1, 58, 95
3, 159508, Note_on_c, 1, 51, 95
3, 159508, Note_on_c, 1, 43, 95
3, 159540, Note_on_c, 1, 43, 0
3, 159540, Note_on_c, 1, 63, 0
3, 159540, Note_on_c, 1, 58, 0
3, 159540, Note_on_c, 1, 51, 0
3, 159556, Note_on_c, 1, 63, 95
3, 159556, Note_on_c, 1, 58, 95
3, 159556, Note_on_c, 1, 51, 95
3, 159556, Note_on_c, 1, 43, 95
3, 159588, Note_on_c, 1, 43, 0
3, 159588, Note_on_c, 1, 63, 0
3, 159588, Note_on_c, 1, 58, 0
3, 159588, Note_on_c, 1, 51, 0
3, 159604, Note_on_c, 1, 63, 95
3, 159604, Note_on_c, 1, 58, 95
3, 159604, Note_on_c, 1, 51, 95
3, 159604, Note_on_c, 1, 43, 95
3, 159636, Note_on_c, 1, 43, 0
3, 159636, Note_on_c, 1, 63, 0
3, 159636, Note_on_c, 1, 58, 0
3, 159636, Note_on_c, 1, 51, 0
3, 159652, Note_on_c, 1, 63, 95
3, 159652, Note_on_c, 1, 58, 95
3, 159652, Note_on_c, 1, 51, 95
3, 159652, Note_on_c, 1, 43, 95
3, 159684, Note_on_c, 1, 43, 0
3, 159684, Note_on_c, 1, 63, 0
3, 159684, Note_on_c, 1, 58, 0
3, 159684, Note_on_c, 1, 51, 0
3, 159700, Note_on_c, 1, 63, 95
3, 159700, Note_on_c, 1, 58, 95
3, 159700, Note_on_c, 1, 51, 95
3, 159700, Note_on_c, 1, 43, 95
3, 159732, Note_on_c, 1, 43, 0
3, 159732, Note_on_c, 1, 63, 0
3, 159732, Note_on_c, 1, 58, 0
3, 159732, Note_on_c, 1, 51, 0
3, 159748, Note_on_c, 1, 63, 95
3, 159748, Note_on_c, 1, 58, 95
3, 159748, Note_on_c, 1, 51, 95
3, 159748, Note_on_c, 1, 43, 95
3, 159780, Note_on_c, 1, 43, 0
3, 159780, Note_on_c, 1, 63, 0
3, 159780, Note_on_c, 1, 58, 0
3, 159780, Note_on_c, 1, 51, 0
3, 159796, Note_on_c, 1, 63, 95
3, 159796, Note_on_c, 1, 58, 95
3, 159796, Note_on_c, 1, 51, 95
3, 159796, Note_on_c, 1, 43, 95
3, 159828, Note_on_c, 1, 43, 0
3, 159828, Note_on_c, 1, 63, 0
3, 159828, Note_on_c, 1, 58, 0
3, 159828, Note_on_c, 1, 51, 0
3, 159844, Note_on_c, 1, 63, 95
3, 159844, Note_on_c, 1, 58, 95
3, 159844, Note_on_c, 1, 51, 95
3, 159844, Note_on_c, 1, 43, 95
3, 159876, Note_on_c, 1, 43, 0
3, 159876, Note_on_c, 1, 63, 0
3, 159876, Note_on_c, 1, 58, 0
3, 159876, Note_on_c, 1, 51, 0
3, 159892, Note_on_c, 1, 63, 95
3, 159892, Note_on_c, 1, 58, 95
3, 159892, Note_on_c, 1, 51, 95
3, 159892, Note_on_c, 1, 43, 95
3, 159924, Note_on_c, 1, 43, 0
3, 159924, Note_on_c, 1, 63, 0
3, 159924, Note_on_c, 1, 58, 0
3, 159924, Note_on_c, 1, 51, 0
3, 159940, Note_on_c, 1, 63, 95
3, 159940, Note_on_c, 1, 58, 95
3, 159940, Note_on_c, 1, 51, 95
3, 159940, Note_on_c, 1, 43, 95
3, 159972, Note_on_c, 1, 43, 0
3, 159972, Note_on_c, 1, 63, 0
3, 159972, Note_on_c, 1, 58, 0
3, 159972, Note_on_c, 1, 51, 0
3, 159988, Note_on_c, 1, 63, 95
3, 159988, Note_on_c, 1, 58, 95
3, 159988, Note_on_c, 1, 51, 95
3, 159988, Note_on_c, 1, 43, 95
3, 160020, Note_on_c, 1, 43, 0
3, 160020, Note_on_c, 1, 63, 0
3, 160020, Note_on_c, 1, 58, 0
3, 160020, Note_on_c, 1, 51, 0
3, 160036, Note_on_c, 1, 63, 95
3, 160036, Note_on_c, 1, 58, 95
3, 160036, Note_on_c, 1, 51, 95
3, 160036, Note_on_c, 1, 43, 95
3, 160068, Note_on_c, 1, 43, 0
3, 160068, Note_on_c, 1, 63, 0
3, 160068, Note_on_c, 1, 58, 0
3, 160068, Note_on_c, 1, 51, 0
3, 160100, Note_on_c, 1, 63, 100
3, 160100, Note_on_c, 1, 59, 100
3, 160100, Note_on_c, 1, 51, 100
3, 160100, Note_on_c, 1, 44, 100
3, 160132, Note_on_c, 1, 44, 0
3, 160132, Note_on_c, 1, 63, 0
3, 160132, Note_on_c, 1, 59, 0
3, 160132, Note_on_c, 1, 51, 0
3, 160148, Note_on_c, 1, 63, 100
3, 160148, Note_on_c, 1, 59, 100
3, 160148, Note_on_c, 1, 51, 100
3, 160148, Note_on_c, 1, 44, 100
3, 160180, Note_on_c, 1, 44, 0
3, 160180, Note_on_c, 1, 63, 0
3, 160180, Note_on_c, 1, 59, 0
3, 160180, Note_on_c, 1, 51, 0
3, 160196, Note_on_c, 1, 63, 100
3, 160196, Note_on_c, 1, 59, 100
3, 160196, Note_on_c, 1, 51, 100
3, 160196, Note_on_c, 1, 44, 100
3, 160228, Note_on_c, 1, 44, 0
3, 160228, Note_on_c, 1, 63, 0
3, 160228, Note_on_c, 1, 59, 0
3, 160228, Note_on_c, 1, 51, 0
3, 160244, Note_on_c, 1, 63, 100
3, 160244, Note_on_c, 1, 59, 100
3, 160244, Note_on_c, 1, 51, 100
3, 160244, Note_on_c, 1, 44, 100
3, 160276, Note_on_c, 1, 44, 0
3, 160276, Note_on_c, 1, 63, 0
3, 160276, Note_on_c, 1, 59, 0
3, 160276, Note_on_c, 1, 51, 0
3, 160292, Note_on_c, 1, 63, 100
3, 160292, Note_on_c, 1, 59, 100
3, 160292, Note_on_c, 1, 51, 100
3, 160292, Note_on_c, 1, 44, 100
3, 160324, Note_on_c, 1, 44, 0
3, 160324, Note_on_c, 1, 63, 0
3, 160324, Note_on_c, 1, 59, 0
3, 160324, Note_on_c, 1, 51, 0
3, 160340, Note_on_c, 1, 63, 100
3, 160340, Note_on_c, 1, 59, 100
3, 160340, Note_on_c, 1, 51, 100
3, 160340, Note_on_c, 1, 44, 100
3, 160372, Note_on_c, 1, 44, 0
3, 160372, Note_on_c, 1, 63, 0
3, 160372, Note_on_c, 1, 59, 0
3, 160372, Note_on_c, 1, 51, 0
3, 160388, Note_on_c, 1, 63, 100
3, 160388, Note_on_c, 1, 59, 100
3, 160388, Note_on_c, 1, 51, 100
3, 160388, Note_on_c, 1, 44, 100
3, 160420, Note_on_c, 1, 44, 0
3, 160420, Note_on_c, 1, 63, 0
3, 160420, Note_on_c, 1, 59, 0
3, 160420, Note_on_c, 1, 51, 0
3, 160436, Note_on_c, 1, 63, 100
3, 160436, Note_on_c, 1, 59, 100
3, 160436, Note_on_c, 1, 51, 100
3, 160436, Note_on_c, 1, 44, 100
3, 160468, Note_on_c, 1, 44, 0
3, 160468, Note_on_c, 1, 63, 0
3, 160468, Note_on_c, 1, 59, 0
3, 160468, Note_on_c, 1, 51, 0
3, 160484, Note_on_c, 1, 63, 100
3, 160484, Note_on_c, 1, 59, 100
3, 160484, Note_on_c, 1, 51, 100
3, 160484, Note_on_c, 1, 44, 100
3, 160516, Note_on_c, 1, 44, 0
3, 160516, Note_on_c, 1, 63, 0
3, 160516, Note_on_c, 1, 59, 0
3, 160516, Note_on_c, 1, 51, 0
3, 160532, Note_on_c, 1, 63, 100
3, 160532, Note_on_c, 1, 59, 100
3, 160532, Note_on_c, 1, 51, 100
3, 160532, Note_on_c, 1, 44, 100
3, 160564, Note_on_c, 1, 44, 0
3, 160564, Note_on_c, 1, 63, 0
3, 160564, Note_on_c, 1, 59, 0
3, 160564, Note_on_c, 1, 51, 0
3, 160580, Note_on_c, 1, 63, 100
3, 160580, Note_on_c, 1, 59, 100
3, 160580, Note_on_c, 1, 51, 100
3, 160580, Note_on_c, 1, 44, 100
3, 160612, Note_on_c, 1, 44, 0
3, 160612, Note_on_c, 1, 63, 0
3, 160612, Note_on_c, 1, 59, 0
3, 160612, Note_on_c, 1, 51, 0
3, 160628, Note_on_c, 1, 63, 100
3, 160628, Note_on_c, 1, 59, 100
3, 160628, Note_on_c, 1, 51, 100
3, 160628, Note_on_c, 1, 44, 100
3, 160660, Note_on_c, 1, 44, 0
3, 160660, Note_on_c, 1, 63, 0
3, 160660, Note_on_c, 1, 59, 0
3, 160660, Note_on_c, 1, 51, 0
3, 160684, Note_on_c, 1, 63, 105
3, 160684, Note_on_c, 1, 59, 105
3, 160684, Note_on_c, 1, 51, 105
3, 160684, Note_on_c, 1, 42, 105
3, 160716, Note_on_c, 1, 42, 0
3, 160716, Note_on_c, 1, 63, 0
3, 160716, Note_on_c, 1, 59, 0
3, 160716, Note_on_c, 1, 51, 0
3, 160732, Note_on_c, 1, 63, 105
3, 160732, Note_on_c, 1, 59, 105
3, 160732, Note_on_c, 1, 51, 105
3, 160732, Note_on_c, 1, 42, 105
3, 160764, Note_on_c, 1, 42, 0
3, 160764, Note_on_c, 1, 63, 0
3, 160764, Note_on_c, 1, 59, 0
3, 160764, Note_on_c, 1, 51, 0
3, 160780, Note_on_c, 1, 63, 105
3, 160780, Note_on_c, 1, 59, 105
3, 160780, Note_on_c, 1, 51, 105
3, 160780, Note_on_c, 1, 42, 105
3, 160812, Note_on_c, 1, 42, 0
3, 160812, Note_on_c, 1, 63, 0
3, 160812, Note_on_c, 1, 59, 0
3, 160812, Note_on_c, 1, 51, 0
3, 160828, Note_on_c, 1, 63, 105
3, 160828, Note_on_c, 1, 59, 105
3, 160828, Note_on_c, 1, 51, 105
3, 160828, Note_on_c, 1, 42, 105
3, 160860, Note_on_c, 1, 42, 0
3, 160860, Note_on_c, 1, 63, 0
3, 160860, Note_on_c, 1, 59, 0
3, 160860, Note_on_c, 1, 51, 0
3, 160876, Note_on_c, 1, 63, 105
3, 160876, Note_on_c, 1, 59, 105
3, 160876, Note_on_c, 1, 51, 105
3, 160876, Note_on_c, 1, 42, 105
3, 160908, Note_on_c, 1, 42, 0
3, 160908, Note_on_c, 1, 63, 0
3, 160908, Note_on_c, 1, 59, 0
3, 160908, Note_on_c, 1, 51, 0
3, 160924, Note_on_c, 1, 63, 105
3, 160924, Note_on_c, 1, 59, 105
3, 160924, Note_on_c, 1, 51, 105
3, 160924, Note_on_c, 1, 42, 105
3, 160956, Note_on_c, 1, 42, 0
3, 160956, Note_on_c, 1, 63, 0
3, 160956, Note_on_c, 1, 59, 0
3, 160956, Note_on_c, 1, 51, 0
3, 160972, Note_on_c, 1, 63, 105
3, 160972, Note_on_c, 1, 59, 105
3, 160972, Note_on_c, 1, 51, 105
3, 160972, Note_on_c, 1, 42, 105
3, 161004, Note_on_c, 1, 42, 0
3, 161004, Note_on_c, 1, 63, 0
3, 161004, Note_on_c, 1, 59, 0
3, 161004, Note_on_c, 1, 51, 0
3, 161020, Note_on_c, 1, 63, 105
3, 161020, Note_on_c, 1, 59, 105
3, 161020, Note_on_c, 1, 51, 105
3, 161020, Note_on_c, 1, 42, 105
3, 161052, Note_on_c, 1, 42, 0
3, 161052, Note_on_c, 1, 63, 0
3, 161052, Note_on_c, 1, 59, 0
3, 161052, Note_on_c, 1, 51, 0
3, 161068, Note_on_c, 1, 63, 105
3, 161068, Note_on_c, 1, 59, 105
3, 161068, Note_on_c, 1, 51, 105
3, 161068, Note_on_c, 1, 42, 105
3, 161100, Note_on_c, 1, 42, 0
3, 161100, Note_on_c, 1, 63, 0
3, 161100, Note_on_c, 1, 59, 0
3, 161100, Note_on_c, 1, 51, 0
3, 161116, Note_on_c, 1, 63, 105
3, 161116, Note_on_c, 1, 59, 105
3, 161116, Note_on_c, 1, 51, 105
3, 161116, Note_on_c, 1, 42, 105
3, 161148, Note_on_c, 1, 42, 0
3, 161148, Note_on_c, 1, 63, 0
3, 161148, Note_on_c, 1, 59, 0
3, 161148, Note_on_c, 1, 51, 0
3, 161164, Note_on_c, 1, 63, 105
3, 161164, Note_on_c, 1, 59, 105
3, 161164, Note_on_c, 1, 51, 105
3, 161164, Note_on_c, 1, 42, 105
3, 161196, Note_on_c, 1, 42, 0
3, 161196, Note_on_c, 1, 63, 0
3, 161196, Note_on_c, 1, 59, 0
3, 161196, Note_on_c, 1, 51, 0
3, 161204, Note_on_c, 1, 63, 105
3, 161204, Note_on_c, 1, 56, 105
3, 161204, Note_on_c, 1, 59, 105
3, 161204, Note_on_c, 1, 40, 105
3, 161236, Note_on_c, 1, 40, 0
3, 161236, Note_on_c, 1, 63, 0
3, 161236, Note_on_c, 1, 56, 0
3, 161236, Note_on_c, 1, 59, 0
3, 161252, Note_on_c, 1, 63, 105
3, 161252, Note_on_c, 1, 56, 105
3, 161252, Note_on_c, 1, 59, 105
3, 161252, Note_on_c, 1, 40, 105
3, 161284, Note_on_c, 1, 40, 0
3, 161284, Note_on_c, 1, 63, 0
3, 161284, Note_on_c, 1, 56, 0
3, 161284, Note_on_c, 1, 59, 0
3, 161300, Note_on_c, 1, 63, 105
3, 161300, Note_on_c, 1, 56, 105
3, 161300, Note_on_c, 1, 59, 105
3, 161300, Note_on_c, 1, 40, 105
3, 161332, Note_on_c, 1, 40, 0
3, 161332, Note_on_c, 1, 63, 0
3, 161332, Note_on_c, 1, 56, 0
3, 161332, Note_on_c, 1, 59, 0
3, 161348, Note_on_c, 1, 63, 105
3, 161348, Note_on_c, 1, 56, 105
3, 161348, Note_on_c, 1, 59, 105
3, 161348, Note_on_c, 1, 40, 105
3, 161380, Note_on_c, 1, 40, 0
3, 161380, Note_on_c, 1, 63, 0
3, 161380, Note_on_c, 1, 56, 0
3, 161380, Note_on_c, 1, 59, 0
3, 161396, Note_on_c, 1, 63, 105
3, 161396, Note_on_c, 1, 56, 105
3, 161396, Note_on_c, 1, 59, 105
3, 161396, Note_on_c, 1, 40, 105
3, 161428, Note_on_c, 1, 40, 0
3, 161428, Note_on_c, 1, 63, 0
3, 161428, Note_on_c, 1, 56, 0
3, 161428, Note_on_c, 1, 59, 0
3, 161444, Note_on_c, 1, 63, 105
3, 161444, Note_on_c, 1, 56, 105
3, 161444, Note_on_c, 1, 59, 105
3, 161444, Note_on_c, 1, 40, 105
3, 161476, Note_on_c, 1, 40, 0
3, 161476, Note_on_c, 1, 63, 0
3, 161476, Note_on_c, 1, 56, 0
3, 161476, Note_on_c, 1, 59, 0
3, 161492, Note_on_c, 1, 63, 105
3, 161492, Note_on_c, 1, 56, 105
3, 161492, Note_on_c, 1, 59, 105
3, 161492, Note_on_c, 1, 40, 105
3, 161524, Note_on_c, 1, 40, 0
3, 161524, Note_on_c, 1, 63, 0
3, 161524, Note_on_c, 1, 56, 0
3, 161524, Note_on_c, 1, 59, 0
3, 161540, Note_on_c, 1, 63, 105
3, 161540, Note_on_c, 1, 56, 105
3, 161540, Note_on_c, 1, 59, 105
3, 161540, Note_on_c, 1, 40, 105
3, 161572, Note_on_c, 1, 40, 0
3, 161572, Note_on_c, 1, 63, 0
3, 161572, Note_on_c, 1, 56, 0
3, 161572, Note_on_c, 1, 59, 0
3, 161588, Note_on_c, 1, 63, 105
3, 161588, Note_on_c, 1, 56, 105
3, 161588, Note_on_c, 1, 59, 105
3, 161588, Note_on_c, 1, 40, 105
3, 161620, Note_on_c, 1, 40, 0
3, 161620, Note_on_c, 1, 63, 0
3, 161620, Note_on_c, 1, 56, 0
3, 161620, Note_on_c, 1, 59, 0
3, 161636, Note_on_c, 1, 63, 105
3, 161636, Note_on_c, 1, 56, 105
3, 161636, Note_on_c, 1, 59, 105
3, 161636, Note_on_c, 1, 40, 105
3, 161668, Note_on_c, 1, 40, 0
3, 161668, Note_on_c, 1, 63, 0
3, 161668, Note_on_c, 1, 56, 0
3, 161668, Note_on_c, 1, 59, 0
3, 161684, Note_on_c, 1, 63, 105
3, 161684, Note_on_c, 1, 56, 105
3, 161684, Note_on_c, 1, 59, 105
3, 161684, Note_on_c, 1, 40, 105
3, 161716, Note_on_c, 1, 40, 0
3, 161716, Note_on_c, 1, 63, 0
3, 161716, Note_on_c, 1, 56, 0
3, 161716, Note_on_c, 1, 59, 0
3, 161732, Note_on_c, 1, 63, 105
3, 161732, Note_on_c, 1, 56, 105
3, 161732, Note_on_c, 1, 59, 105
3, 161732, Note_on_c, 1, 40, 105
3, 161764, Note_on_c, 1, 40, 0
3, 161764, Note_on_c, 1, 63, 0
3, 161764, Note_on_c, 1, 56, 0
3, 161764, Note_on_c, 1, 59, 0
3, 161780, Note_on_c, 1, 63, 105
3, 161780, Note_on_c, 1, 56, 105
3, 161780, Note_on_c, 1, 59, 105
3, 161780, Note_on_c, 1, 40, 105
3, 161812, Note_on_c, 1, 40, 0
3, 161812, Note_on_c, 1, 63, 0
3, 161812, Note_on_c, 1, 56, 0
3, 161812, Note_on_c, 1, 59, 0
3, 161828, Note_on_c, 1, 63, 105
3, 161828, Note_on_c, 1, 56, 105
3, 161828, Note_on_c, 1, 59, 105
3, 161828, Note_on_c, 1, 40, 105
3, 161860, Note_on_c, 1, 40, 0
3, 161860, Note_on_c, 1, 63, 0
3, 161860, Note_on_c, 1, 56, 0
3, 161860, Note_on_c, 1, 59, 0
3, 161876, Note_on_c, 1, 63, 105
3, 161876, Note_on_c, 1, 56, 105
3, 161876, Note_on_c, 1, 59, 105
3, 161876, Note_on_c, 1, 40, 105
3, 161908, Note_on_c, 1, 40, 0
3, 161908, Note_on_c, 1, 63, 0
3, 161908, Note_on_c, 1, 56, 0
3, 161908, Note_on_c, 1, 59, 0
3, 161924, Note_on_c, 1, 63, 105
3, 161924, Note_on_c, 1, 56, 105
3, 161924, Note_on_c, 1, 59, 105
3, 161924, Note_on_c, 1, 40, 105
3, 161956, Note_on_c, 1, 40, 0
3, 161956, Note_on_c, 1, 63, 0
3, 161956, Note_on_c, 1, 56, 0
3, 161956, Note_on_c, 1, 59, 0
3, 161972, Note_on_c, 1, 63, 105
3, 161972, Note_on_c, 1, 56, 105
3, 161972, Note_on_c, 1, 59, 105
3, 161972, Note_on_c, 1, 40, 105
3, 162004, Note_on_c, 1, 40, 0
3, 162004, Note_on_c, 1, 63, 0
3, 162004, Note_on_c, 1, 56, 0
3, 162004, Note_on_c, 1, 59, 0
3, 162020, Note_on_c, 1, 63, 105
3, 162020, Note_on_c, 1, 56, 105
3, 162020, Note_on_c, 1, 59, 105
3, 162020, Note_on_c, 1, 40, 105
3, 162052, Note_on_c, 1, 40, 0
3, 162052, Note_on_c, 1, 63, 0
3, 162052, Note_on_c, 1, 56, 0
3, 162052, Note_on_c, 1, 59, 0
3, 162068, Note_on_c, 1, 63, 105
3, 162068, Note_on_c, 1, 56, 105
3, 162068, Note_on_c, 1, 59, 105
3, 162068, Note_on_c, 1, 40, 105
3, 162100, Note_on_c, 1, 40, 0
3, 162100, Note_on_c, 1, 63, 0
3, 162100, Note_on_c, 1, 56, 0
3, 162100, Note_on_c, 1, 59, 0
3, 162116, Note_on_c, 1, 63, 105
3, 162116, Note_on_c, 1, 56, 105
3, 162116, Note_on_c, 1, 59, 105
3, 162116, Note_on_c, 1, 40, 105
3, 162148, Note_on_c, 1, 40, 0
3, 162148, Note_on_c, 1, 63, 0
3, 162148, Note_on_c, 1, 56, 0
3, 162148, Note_on_c, 1, 59, 0
3, 162164, Note_on_c, 1, 63, 105
3, 162164, Note_on_c, 1, 56, 105
3, 162164, Note_on_c, 1, 59, 105
3, 162164, Note_on_c, 1, 40, 105
3, 162196, Note_on_c, 1, 40, 0
3, 162196, Note_on_c, 1, 63, 0
3, 162196, Note_on_c, 1, 56, 0
3, 162196, Note_on_c, 1, 59, 0
3, 162212, Note_on_c, 1, 63, 105
3, 162212, Note_on_c, 1, 56, 105
3, 162212, Note_on_c, 1, 59, 105
3, 162212, Note_on_c, 1, 40, 105
3, 162244, Note_on_c, 1, 40, 0
3, 162244, Note_on_c, 1, 63, 0
3, 162244, Note_on_c, 1, 56, 0
3, 162244, Note_on_c, 1, 59, 0
3, 162260, Note_on_c, 1, 63, 105
3, 162260, Note_on_c, 1, 56, 105
3, 162260, Note_on_c, 1, 59, 105
3, 162260, Note_on_c, 1, 40, 105
3, 162292, Note_on_c, 1, 40, 0
3, 162292, Note_on_c, 1, 63, 0
3, 162292, Note_on_c, 1, 56, 0
3, 162292, Note_on_c, 1, 59, 0
3, 162308, Note_on_c, 1, 63, 105
3, 162308, Note_on_c, 1, 56, 105
3, 162308, Note_on_c, 1, 59, 105
3, 162308, Note_on_c, 1, 40, 105
3, 162340, Note_on_c, 1, 40, 0
3, 162340, Note_on_c, 1, 63, 0
3, 162340, Note_on_c, 1, 56, 0
3, 162340, Note_on_c, 1, 59, 0
3, 162420, Note_on_c, 1, 62, 95
3, 162420, Note_on_c, 1, 56, 95
3, 162420, Note_on_c, 1, 59, 95
3, 162420, Note_on_c, 1, 40, 95
3, 162452, Note_on_c, 1, 40, 0
3, 162452, Note_on_c, 1, 62, 0
3, 162452, Note_on_c, 1, 56, 0
3, 162452, Note_on_c, 1, 59, 0
3, 162468, Note_on_c, 1, 62, 95
3, 162468, Note_on_c, 1, 56, 95
3, 162468, Note_on_c, 1, 59, 95
3, 162468, Note_on_c, 1, 40, 95
3, 162500, Note_on_c, 1, 40, 0
3, 162500, Note_on_c, 1, 62, 0
3, 162500, Note_on_c, 1, 56, 0
3, 162500, Note_on_c, 1, 59, 0
3, 162516, Note_on_c, 1, 62, 95
3, 162516, Note_on_c, 1, 56, 95
3, 162516, Note_on_c, 1, 59, 95
3, 162516, Note_on_c, 1, 40, 95
3, 162548, Note_on_c, 1, 40, 0
3, 162548, Note_on_c, 1, 62, 0
3, 162548, Note_on_c, 1, 56, 0
3, 162548, Note_on_c, 1, 59, 0
3, 162564, Note_on_c, 1, 62, 95
3, 162564, Note_on_c, 1, 56, 95
3, 162564, Note_on_c, 1, 59, 95
3, 162564, Note_on_c, 1, 40, 95
3, 162596, Note_on_c, 1, 40, 0
3, 162596, Note_on_c, 1, 62, 0
3, 162596, Note_on_c, 1, 56, 0
3, 162596, Note_on_c, 1, 59, 0
3, 162612, Note_on_c, 1, 62, 95
3, 162612, Note_on_c, 1, 56, 95
3, 162612, Note_on_c, 1, 59, 95
3, 162612, Note_on_c, 1, 40, 95
3, 162644, Note_on_c, 1, 40, 0
3, 162644, Note_on_c, 1, 62, 0
3, 162644, Note_on_c, 1, 56, 0
3, 162644, Note_on_c, 1, 59, 0
3, 162660, Note_on_c, 1, 62, 95
3, 162660, Note_on_c, 1, 56, 95
3, 162660, Note_on_c, 1, 59, 95
3, 162660, Note_on_c, 1, 40, 95
3, 162692, Note_on_c, 1, 40, 0
3, 162692, Note_on_c, 1, 62, 0
3, 162692, Note_on_c, 1, 56, 0
3, 162692, Note_on_c, 1, 59, 0
3, 162708, Note_on_c, 1, 62, 95
3, 162708, Note_on_c, 1, 56, 95
3, 162708, Note_on_c, 1, 59, 95
3, 162708, Note_on_c, 1, 40, 95
3, 162740, Note_on_c, 1, 40, 0
3, 162740, Note_on_c, 1, 62, 0
3, 162740, Note_on_c, 1, 56, 0
3, 162740, Note_on_c, 1, 59, 0
3, 162756, Note_on_c, 1, 62, 95
3, 162756, Note_on_c, 1, 56, 95
3, 162756, Note_on_c, 1, 59, 95
3, 162756, Note_on_c, 1, 40, 95
3, 162788, Note_on_c, 1, 40, 0
3, 162788, Note_on_c, 1, 62, 0
3, 162788, Note_on_c, 1, 56, 0
3, 162788, Note_on_c, 1, 59, 0
3, 162804, Note_on_c, 1, 62, 95
3, 162804, Note_on_c, 1, 56, 95
3, 162804, Note_on_c, 1, 59, 95
3, 162804, Note_on_c, 1, 40, 95
3, 162836, Note_on_c, 1, 40, 0
3, 162836, Note_on_c, 1, 62, 0
3, 162836, Note_on_c, 1, 56, 0
3, 162836, Note_on_c, 1, 59, 0
3, 162852, Note_on_c, 1, 62, 95
3, 162852, Note_on_c, 1, 56, 95
3, 162852, Note_on_c, 1, 59, 95
3, 162852, Note_on_c, 1, 40, 95
3, 162884, Note_on_c, 1, 40, 0
3, 162884, Note_on_c, 1, 62, 0
3, 162884, Note_on_c, 1, 56, 0
3, 162884, Note_on_c, 1, 59, 0
3, 162900, Note_on_c, 1, 62, 95
3, 162900, Note_on_c, 1, 56, 95
3, 162900, Note_on_c, 1, 59, 95
3, 162900, Note_on_c, 1, 40, 95
3, 162932, Note_on_c, 1, 40, 0
3, 162932, Note_on_c, 1, 62, 0
3, 162932, Note_on_c, 1, 56, 0
3, 162932, Note_on_c, 1, 59, 0
3, 162948, Note_on_c, 1, 62, 95
3, 162948, Note_on_c, 1, 56, 95
3, 162948, Note_on_c, 1, 59, 95
3, 162948, Note_on_c, 1, 40, 95
3, 162980, Note_on_c, 1, 40, 0
3, 162980, Note_on_c, 1, 62, 0
3, 162980, Note_on_c, 1, 56, 0
3, 162980, Note_on_c, 1, 59, 0
3, 162996, Note_on_c, 1, 62, 95
3, 162996, Note_on_c, 1, 56, 95
3, 162996, Note_on_c, 1, 59, 95
3, 162996, Note_on_c, 1, 40, 95
3, 163028, Note_on_c, 1, 40, 0
3, 163028, Note_on_c, 1, 62, 0
3, 163028, Note_on_c, 1, 56, 0
3, 163028, Note_on_c, 1, 59, 0
3, 163044, Note_on_c, 1, 62, 95
3, 163044, Note_on_c, 1, 56, 95
3, 163044, Note_on_c, 1, 59, 95
3, 163044, Note_on_c, 1, 40, 95
3, 163076, Note_on_c, 1, 40, 0
3, 163076, Note_on_c, 1, 62, 0
3, 163076, Note_on_c, 1, 56, 0
3, 163076, Note_on_c, 1, 59, 0
3, 163092, Note_on_c, 1, 62, 90
3, 163092, Note_on_c, 1, 56, 90
3, 163092, Note_on_c, 1, 56, 90
3, 163092, Note_on_c, 1, 40, 90
3, 163124, Note_on_c, 1, 40, 0
3, 163124, Note_on_c, 1, 62, 0
3, 163124, Note_on_c, 1, 56, 0
3, 163124, Note_on_c, 1, 56, 0
3, 163140, Note_on_c, 1, 62, 90
3, 163140, Note_on_c, 1, 56, 90
3, 163140, Note_on_c, 1, 56, 90
3, 163140, Note_on_c, 1, 40, 90
3, 163172, Note_on_c, 1, 40, 0
3, 163172, Note_on_c, 1, 62, 0
3, 163172, Note_on_c, 1, 56, 0
3, 163172, Note_on_c, 1, 56, 0
3, 163188, Note_on_c, 1, 62, 90
3, 163188, Note_on_c, 1, 56, 90
3, 163188, Note_on_c, 1, 56, 90
3, 163188, Note_on_c, 1, 40, 90
3, 163220, Note_on_c, 1, 40, 0
3, 163220, Note_on_c, 1, 62, 0
3, 163220, Note_on_c, 1, 56, 0
3, 163220, Note_on_c, 1, 56, 0
3, 163236, Note_on_c, 1, 62, 90
3, 163236, Note_on_c, 1, 56, 90
3, 163236, Note_on_c, 1, 56, 90
3, 163236, Note_on_c, 1, 40, 90
3, 163268, Note_on_c, 1, 40, 0
3, 163268, Note_on_c, 1, 62, 0
3, 163268, Note_on_c, 1, 56, 0
3, 163268, Note_on_c, 1, 56, 0
3, 163284, Note_on_c, 1, 62, 90
3, 163284, Note_on_c, 1, 56, 90
3, 163284, Note_on_c, 1, 56, 90
3, 163284, Note_on_c, 1, 40, 90
3, 163316, Note_on_c, 1, 40, 0
3, 163316, Note_on_c, 1, 62, 0
3, 163316, Note_on_c, 1, 56, 0
3, 163316, Note_on_c, 1, 56, 0
3, 163332, Note_on_c, 1, 62, 90
3, 163332, Note_on_c, 1, 56, 90
3, 163332, Note_on_c, 1, 56, 90
3, 163332, Note_on_c, 1, 40, 90
3, 163364, Note_on_c, 1, 40, 0
3, 163364, Note_on_c, 1, 62, 0
3, 163364, Note_on_c, 1, 56, 0
3, 163364, Note_on_c, 1, 56, 0
3, 163380, Note_on_c, 1, 62, 90
3, 163380, Note_on_c, 1, 56, 90
3, 163380, Note_on_c, 1, 56, 90
3, 163380, Note_on_c, 1, 40, 90
3, 163412, Note_on_c, 1, 40, 0
3, 163412, Note_on_c, 1, 62, 0
3, 163412, Note_on_c, 1, 56, 0
3, 163412, Note_on_c, 1, 56, 0
3, 163428, Note_on_c, 1, 62, 90
3, 163428, Note_on_c, 1, 56, 90
3, 163428, Note_on_c, 1, 56, 90
3, 163428, Note_on_c, 1, 40, 90
3, 163460, Note_on_c, 1, 40, 0
3, 163460, Note_on_c, 1, 62, 0
3, 163460, Note_on_c, 1, 56, 0
3, 163460, Note_on_c, 1, 56, 0
3, 163476, Note_on_c, 1, 62, 90
3, 163476, Note_on_c, 1, 56, 90
3, 163476, Note_on_c, 1, 56, 90
3, 163476, Note_on_c, 1, 40, 90
3, 163508, Note_on_c, 1, 40, 0
3, 163508, Note_on_c, 1, 62, 0
3, 163508, Note_on_c, 1, 56, 0
3, 163508, Note_on_c, 1, 56, 0
3, 163524, Note_on_c, 1, 62, 90
3, 163524, Note_on_c, 1, 56, 90
3, 163524, Note_on_c, 1, 56, 90
3, 163524, Note_on_c, 1, 40, 90
3, 163556, Note_on_c, 1, 40, 0
3, 163556, Note_on_c, 1, 62, 0
3, 163556, Note_on_c, 1, 56, 0
3, 163556, Note_on_c, 1, 56, 0
3, 163572, Note_on_c, 1, 62, 90
3, 163572, Note_on_c, 1, 56, 90
3, 163572, Note_on_c, 1, 56, 90
3, 163572, Note_on_c, 1, 40, 90
3, 163604, Note_on_c, 1, 40, 0
3, 163604, Note_on_c, 1, 62, 0
3, 163604, Note_on_c, 1, 56, 0
3, 163604, Note_on_c, 1, 56, 0
3, 163620, Note_on_c, 1, 62, 90
3, 163620, Note_on_c, 1, 56, 90
3, 163620, Note_on_c, 1, 56, 90
3, 163620, Note_on_c, 1, 40, 90
3, 163652, Note_on_c, 1, 40, 0
3, 163652, Note_on_c, 1, 62, 0
3, 163652, Note_on_c, 1, 56, 0
3, 163652, Note_on_c, 1, 56, 0
3, 163692, Note_on_c, 1, 63, 80
3, 163692, Note_on_c, 1, 51, 80
3, 163692, Note_on_c, 1, 39, 80
3, 163724, Note_on_c, 1, 39, 0
3, 163724, Note_on_c, 1, 51, 0
3, 163724, Note_on_c, 1, 63, 0
3, 163740, Note_on_c, 1, 63, 80
3, 163740, Note_on_c, 1, 51, 80
3, 163740, Note_on_c, 1, 39, 80
3, 163772, Note_on_c, 1, 39, 0
3, 163772, Note_on_c, 1, 51, 0
3, 163772, Note_on_c, 1, 63, 0
3, 163788, Note_on_c, 1, 63, 80
3, 163788, Note_on_c, 1, 51, 80
3, 163788, Note_on_c, 1, 39, 80
3, 163820, Note_on_c, 1, 39, 0
3, 163820, Note_on_c, 1, 51, 0
3, 163820, Note_on_c, 1, 63, 0
3, 163836, Note_on_c, 1, 63, 80
3, 163836, Note_on_c, 1, 51, 80
3, 163836, Note_on_c, 1, 39, 80
3, 163868, Note_on_c, 1, 39, 0
3, 163868, Note_on_c, 1, 51, 0
3, 163868, Note_on_c, 1, 63, 0
3, 163884, Note_on_c, 1, 63, 80
3, 163884, Note_on_c, 1, 51, 80
3, 163884, Note_on_c, 1, 39, 80
3, 163916, Note_on_c, 1, 39, 0
3, 163916, Note_on_c, 1, 51, 0
3, 163916, Note_on_c, 1, 63, 0
3, 163932, Note_on_c, 1, 63, 80
3, 163932, Note_on_c, 1, 51, 80
3, 163932, Note_on_c, 1, 39, 80
3, 163964, Note_on_c, 1, 39, 0
3, 163964, Note_on_c, 1, 51, 0
3, 163964, Note_on_c, 1, 63, 0
3, 163980, Note_on_c, 1, 63, 80
3, 163980, Note_on_c, 1, 51, 80
3, 163980, Note_on_c, 1, 39, 80
3, 164012, Note_on_c, 1, 39, 0
3, 164012, Note_on_c, 1, 51, 0
3, 164012, Note_on_c, 1, 63, 0
3, 164028, Note_on_c, 1, 63, 80
3, 164028, Note_on_c, 1, 51, 80
3, 164028, Note_on_c, 1, 39, 80
3, 164060, Note_on_c, 1, 39, 0
3, 164060, Note_on_c, 1, 51, 0
3, 164060, Note_on_c, 1, 63, 0
3, 164076, Note_on_c, 1, 63, 80
3, 164076, Note_on_c, 1, 51, 80
3, 164076, Note_on_c, 1, 39, 80
3, 164108, Note_on_c, 1, 39, 0
3, 164108, Note_on_c, 1, 51, 0
3, 164108, Note_on_c, 1, 63, 0
3, 164124, Note_on_c, 1, 63, 80
3, 164124, Note_on_c, 1, 51, 80
3, 164124, Note_on_c, 1, 39, 80
3, 164156, Note_on_c, 1, 39, 0
3, 164156, Note_on_c, 1, 51, 0
3, 164156, Note_on_c, 1, 63, 0
3, 164172, Note_on_c, 1, 63, 80
3, 164172, Note_on_c, 1, 51, 80
3, 164172, Note_on_c, 1, 39, 80
3, 164204, Note_on_c, 1, 39, 0
3, 164204, Note_on_c, 1, 51, 0
3, 164204, Note_on_c, 1, 63, 0
3, 164220, Note_on_c, 1, 63, 80
3, 164220, Note_on_c, 1, 51, 80
3, 164220, Note_on_c, 1, 39, 80
3, 164252, Note_on_c, 1, 39, 0
3, 164252, Note_on_c, 1, 51, 0
3, 164252, Note_on_c, 1, 63, 0
3, 164264, Note_on_c, 1, 63, 80
3, 164264, Note_on_c, 1, 51, 80
3, 164264, Note_on_c, 1, 39, 80
3, 164296, Note_on_c, 1, 39, 0
3, 164296, Note_on_c, 1, 51, 0
3, 164296, Note_on_c, 1, 63, 0
3, 164304, Note_on_c, 1, 63, 75
3, 164304, Note_on_c, 1, 58, 75
3, 164304, Note_on_c, 1, 55, 75
3, 164304, Note_on_c, 1, 51, 75
3, 164336, Note_on_c, 1, 51, 0
3, 164336, Note_on_c, 1, 63, 0
3, 164336, Note_on_c, 1, 58, 0
3, 164336, Note_on_c, 1, 55, 0
3, 164352, Note_on_c, 1, 63, 75
3, 164352, Note_on_c, 1, 58, 75
3, 164352, Note_on_c, 1, 55, 75
3, 164352, Note_on_c, 1, 51, 75
3, 164384, Note_on_c, 1, 51, 0
3, 164384, Note_on_c, 1, 63, 0
3, 164384, Note_on_c, 1, 58, 0
3, 164384, Note_on_c, 1, 55, 0
3, 164400, Note_on_c, 1, 63, 75
3, 164400, Note_on_c, 1, 58, 75
3, 164400, Note_on_c, 1, 55, 75
3, 164400, Note_on_c, 1, 51, 75
3, 164432, Note_on_c, 1, 51, 0
3, 164432, Note_on_c, 1, 63, 0
3, 164432, Note_on_c, 1, 58, 0
3, 164432, Note_on_c, 1, 55, 0
3, 164448, Note_on_c, 1, 63, 75
3, 164448, Note_on_c, 1, 58, 75
3, 164448, Note_on_c, 1, 55, 75
3, 164448, Note_on_c, 1, 51, 75
3, 164480, Note_on_c, 1, 51, 0
3, 164480, Note_on_c, 1, 63, 0
3, 164480, Note_on_c, 1, 58, 0
3, 164480, Note_on_c, 1, 55, 0
3, 164496, Note_on_c, 1, 63, 75
3, 164496, Note_on_c, 1, 58, 75
3, 164496, Note_on_c, 1, 55, 75
3, 164496, Note_on_c, 1, 51, 75
3, 164528, Note_on_c, 1, 51, 0
3, 164528, Note_on_c, 1, 63, 0
3, 164528, Note_on_c, 1, 58, 0
3, 164528, Note_on_c, 1, 55, 0
3, 164544, Note_on_c, 1, 63, 75
3, 164544, Note_on_c, 1, 58, 75
3, 164544, Note_on_c, 1, 55, 75
3, 164544, Note_on_c, 1, 51, 75
3, 164576, Note_on_c, 1, 51, 0
3, 164576, Note_on_c, 1, 63, 0
3, 164576, Note_on_c, 1, 58, 0
3, 164576, Note_on_c, 1, 55, 0
3, 164592, Note_on_c, 1, 63, 75
3, 164592, Note_on_c, 1, 58, 75
3, 164592, Note_on_c, 1, 55, 75
3, 164592, Note_on_c, 1, 51, 75
3, 164624, Note_on_c, 1, 51, 0
3, 164624, Note_on_c, 1, 63, 0
3, 164624, Note_on_c, 1, 58, 0
3, 164624, Note_on_c, 1, 55, 0
3, 164640, Note_on_c, 1, 63, 75
3, 164640, Note_on_c, 1, 58, 75
3, 164640, Note_on_c, 1, 55, 75
3, 164640, Note_on_c, 1, 51, 75
3, 164672, Note_on_c, 1, 51, 0
3, 164672, Note_on_c, 1, 63, 0
3, 164672, Note_on_c, 1, 58, 0
3, 164672, Note_on_c, 1, 55, 0
3, 164688, Note_on_c, 1, 63, 75
3, 164688, Note_on_c, 1, 58, 75
3, 164688, Note_on_c, 1, 55, 75
3, 164688, Note_on_c, 1, 51, 75
3, 164720, Note_on_c, 1, 51, 0
3, 164720, Note_on_c, 1, 63, 0
3, 164720, Note_on_c, 1, 58, 0
3, 164720, Note_on_c, 1, 55, 0
3, 164736, Note_on_c, 1, 63, 75
3, 164736, Note_on_c, 1, 58, 75
3, 164736, Note_on_c, 1, 55, 75
3, 164736, Note_on_c, 1, 51, 75
3, 164768, Note_on_c, 1, 51, 0
3, 164768, Note_on_c, 1, 63, 0
3, 164768, Note_on_c, 1, 58, 0
3, 164768, Note_on_c, 1, 55, 0
3, 164784, Note_on_c, 1, 63, 75
3, 164784, Note_on_c, 1, 58, 75
3, 164784, Note_on_c, 1, 55, 75
3, 164784, Note_on_c, 1, 51, 75
3, 164816, Note_on_c, 1, 51, 0
3, 164816, Note_on_c, 1, 63, 0
3, 164816, Note_on_c, 1, 58, 0
3, 164816, Note_on_c, 1, 55, 0
3, 164832, Note_on_c, 1, 63, 75
3, 164832, Note_on_c, 1, 58, 75
3, 164832, Note_on_c, 1, 55, 75
3, 164832, Note_on_c, 1, 51, 75
3, 164864, Note_on_c, 1, 51, 0
3, 164864, Note_on_c, 1, 63, 0
3, 164864, Note_on_c, 1, 58, 0
3, 164864, Note_on_c, 1, 55, 0
3, 164880, Note_on_c, 1, 63, 75
3, 164880, Note_on_c, 1, 58, 75
3, 164880, Note_on_c, 1, 55, 75
3, 164880, Note_on_c, 1, 51, 75
3, 164912, Note_on_c, 1, 51, 0
3, 164912, Note_on_c, 1, 63, 0
3, 164912, Note_on_c, 1, 58, 0
3, 164912, Note_on_c, 1, 55, 0
3, 164920, Note_on_c, 1, 61, 75
3, 164920, Note_on_c, 1, 56, 75
3, 164920, Note_on_c, 1, 52, 75
3, 164952, Note_on_c, 1, 52, 0
3, 164952, Note_on_c, 1, 56, 0
3, 164952, Note_on_c, 1, 61, 0
3, 164968, Note_on_c, 1, 61, 75
3, 164968, Note_on_c, 1, 56, 75
3, 164968, Note_on_c, 1, 52, 75
3, 165000, Note_on_c, 1, 52, 0
3, 165000, Note_on_c, 1, 56, 0
3, 165000, Note_on_c, 1, 61, 0
3, 165016, Note_on_c, 1, 61, 75
3, 165016, Note_on_c, 1, 56, 75
3, 165016, Note_on_c, 1, 52, 75
3, 165048, Note_on_c, 1, 52, 0
3, 165048, Note_on_c, 1, 56, 0
3, 165048, Note_on_c, 1, 61, 0
3, 165064, Note_on_c, 1, 61, 75
3, 165064, Note_on_c, 1, 56, 75
3, 165064, Note_on_c, 1, 52, 75
3, 165096, Note_on_c, 1, 52, 0
3, 165096, Note_on_c, 1, 56, 0
3, 165096, Note_on_c, 1, 61, 0
3, 165112, Note_on_c, 1, 61, 75
3, 165112, Note_on_c, 1, 56, 75
3, 165112, Note_on_c, 1, 52, 75
3, 165144, Note_on_c, 1, 52, 0
3, 165144, Note_on_c, 1, 56, 0
3, 165144, Note_on_c, 1, 61, 0
3, 165160, Note_on_c, 1, 61, 75
3, 165160, Note_on_c, 1, 56, 75
3, 165160, Note_on_c, 1, 52, 75
3, 165192, Note_on_c, 1, 52, 0
3, 165192, Note_on_c, 1, 56, 0
3, 165192, Note_on_c, 1, 61, 0
3, 165208, Note_on_c, 1, 61, 75
3, 165208, Note_on_c, 1, 56, 75
3, 165208, Note_on_c, 1, 52, 75
3, 165240, Note_on_c, 1, 52, 0
3, 165240, Note_on_c, 1, 56, 0
3, 165240, Note_on_c, 1, 61, 0
3, 165256, Note_on_c, 1, 61, 75
3, 165256, Note_on_c, 1, 56, 75
3, 165256, Note_on_c, 1, 52, 75
3, 165288, Note_on_c, 1, 52, 0
3, 165288, Note_on_c, 1, 56, 0
3, 165288, Note_on_c, 1, 61, 0
3, 165304, Note_on_c, 1, 61, 75
3, 165304, Note_on_c, 1, 56, 75
3, 165304, Note_on_c, 1, 52, 75
3, 165336, Note_on_c, 1, 52, 0
3, 165336, Note_on_c, 1, 56, 0
3, 165336, Note_on_c, 1, 61, 0
3, 165352, Note_on_c, 1, 61, 75
3, 165352, Note_on_c, 1, 56, 75
3, 165352, Note_on_c, 1, 52, 75
3, 165384, Note_on_c, 1, 52, 0
3, 165384, Note_on_c, 1, 56, 0
3, 165384, Note_on_c, 1, 61, 0
3, 165400, Note_on_c, 1, 61, 75
3, 165400, Note_on_c, 1, 56, 75
3, 165400, Note_on_c, 1, 52, 75
3, 165432, Note_on_c, 1, 52, 0
3, 165432, Note_on_c, 1, 56, 0
3, 165432, Note_on_c, 1, 61, 0
3, 165448, Note_on_c, 1, 61, 75
3, 165448, Note_on_c, 1, 56, 75
3, 165448, Note_on_c, 1, 52, 75
3, 165480, Note_on_c, 1, 52, 0
3, 165480, Note_on_c, 1, 56, 0
3, 165480, Note_on_c, 1, 61, 0
3, 165496, Note_on_c, 1, 64, 75
3, 165496, Note_on_c, 1, 61, 75
3, 165496, Note_on_c, 1, 56, 75
3, 165496, Note_on_c, 1, 49, 75
3, 165528, Note_on_c, 1, 49, 0
3, 165528, Note_on_c, 1, 64, 0
3, 165528, Note_on_c, 1, 61, 0
3, 165528, Note_on_c, 1, 56, 0
3, 165544, Note_on_c, 1, 64, 75
3, 165544, Note_on_c, 1, 61, 75
3, 165544, Note_on_c, 1, 56, 75
3, 165544, Note_on_c, 1, 49, 75
3, 165576, Note_on_c, 1, 49, 0
3, 165576, Note_on_c, 1, 64, 0
3, 165576, Note_on_c, 1, 61, 0
3, 165576, Note_on_c, 1, 56, 0
3, 165592, Note_on_c, 1, 64, 75
3, 165592, Note_on_c, 1, 61, 75
3, 165592, Note_on_c, 1, 56, 75
3, 165592, Note_on_c, 1, 49, 75
3, 165624, Note_on_c, 1, 49, 0
3, 165624, Note_on_c, 1, 64, 0
3, 165624, Note_on_c, 1, 61, 0
3, 165624, Note_on_c, 1, 56, 0
3, 165640, Note_on_c, 1, 64, 75
3, 165640, Note_on_c, 1, 61, 75
3, 165640, Note_on_c, 1, 56, 75
3, 165640, Note_on_c, 1, 49, 75
3, 165672, Note_on_c, 1, 49, 0
3, 165672, Note_on_c, 1, 64, 0
3, 165672, Note_on_c, 1, 61, 0
3, 165672, Note_on_c, 1, 56, 0
3, 165688, Note_on_c, 1, 64, 75
3, 165688, Note_on_c, 1, 61, 75
3, 165688, Note_on_c, 1, 56, 75
3, 165688, Note_on_c, 1, 49, 75
3, 165720, Note_on_c, 1, 49, 0
3, 165720, Note_on_c, 1, 64, 0
3, 165720, Note_on_c, 1, 61, 0
3, 165720, Note_on_c, 1, 56, 0
3, 165736, Note_on_c, 1, 64, 75
3, 165736, Note_on_c, 1, 61, 75
3, 165736, Note_on_c, 1, 56, 75
3, 165736, Note_on_c, 1, 49, 75
3, 165768, Note_on_c, 1, 49, 0
3, 165768, Note_on_c, 1, 64, 0
3, 165768, Note_on_c, 1, 61, 0
3, 165768, Note_on_c, 1, 56, 0
3, 165784, Note_on_c, 1, 64, 75
3, 165784, Note_on_c, 1, 61, 75
3, 165784, Note_on_c, 1, 56, 75
3, 165784, Note_on_c, 1, 49, 75
3, 165816, Note_on_c, 1, 49, 0
3, 165816, Note_on_c, 1, 64, 0
3, 165816, Note_on_c, 1, 61, 0
3, 165816, Note_on_c, 1, 56, 0
3, 165832, Note_on_c, 1, 64, 75
3, 165832, Note_on_c, 1, 61, 75
3, 165832, Note_on_c, 1, 56, 75
3, 165832, Note_on_c, 1, 49, 75
3, 165864, Note_on_c, 1, 49, 0
3, 165864, Note_on_c, 1, 64, 0
3, 165864, Note_on_c, 1, 61, 0
3, 165864, Note_on_c, 1, 56, 0
3, 165880, Note_on_c, 1, 64, 75
3, 165880, Note_on_c, 1, 61, 75
3, 165880, Note_on_c, 1, 56, 75
3, 165880, Note_on_c, 1, 49, 75
3, 165912, Note_on_c, 1, 49, 0
3, 165912, Note_on_c, 1, 64, 0
3, 165912, Note_on_c, 1, 61, 0
3, 165912, Note_on_c, 1, 56, 0
3, 165928, Note_on_c, 1, 64, 75
3, 165928, Note_on_c, 1, 61, 75
3, 165928, Note_on_c, 1, 56, 75
3, 165928, Note_on_c, 1, 49, 75
3, 165960, Note_on_c, 1, 49, 0
3, 165960, Note_on_c, 1, 64, 0
3, 165960, Note_on_c, 1, 61, 0
3, 165960, Note_on_c, 1, 56, 0
3, 165976, Note_on_c, 1, 64, 75
3, 165976, Note_on_c, 1, 61, 75
3, 165976, Note_on_c, 1, 56, 75
3, 165976, Note_on_c, 1, 49, 75
3, 166008, Note_on_c, 1, 49, 0
3, 166008, Note_on_c, 1, 64, 0
3, 166008, Note_on_c, 1, 61, 0
3, 166008, Note_on_c, 1, 56, 0
3, 166024, Note_on_c, 1, 64, 75
3, 166024, Note_on_c, 1, 61, 75
3, 166024, Note_on_c, 1, 56, 75
3, 166024, Note_on_c, 1, 49, 75
3, 166056, Note_on_c, 1, 49, 0
3, 166056, Note_on_c, 1, 64, 0
3, 166056, Note_on_c, 1, 61, 0
3, 166056, Note_on_c, 1, 56, 0
3, 166072, Note_on_c, 1, 64, 75
3, 166072, Note_on_c, 1, 61, 75
3, 166072, Note_on_c, 1, 56, 75
3, 166072, Note_on_c, 1, 49, 75
3, 166104, Note_on_c, 1, 49, 0
3, 166104, Note_on_c, 1, 64, 0
3, 166104, Note_on_c, 1, 61, 0
3, 166104, Note_on_c, 1, 56, 0
3, 166120, Note_on_c, 1, 64, 75
3, 166120, Note_on_c, 1, 61, 75
3, 166120, Note_on_c, 1, 56, 75
3, 166120, Note_on_c, 1, 49, 75
3, 166152, Note_on_c, 1, 49, 0
3, 166152, Note_on_c, 1, 64, 0
3, 166152, Note_on_c, 1, 61, 0
3, 166152, Note_on_c, 1, 56, 0
3, 166168, Note_on_c, 1, 64, 75
3, 166168, Note_on_c, 1, 61, 75
3, 166168, Note_on_c, 1, 56, 75
3, 166168, Note_on_c, 1, 49, 75
3, 166200, Note_on_c, 1, 49, 0
3, 166200, Note_on_c, 1, 64, 0
3, 166200, Note_on_c, 1, 61, 0
3, 166200, Note_on_c, 1, 56, 0
3, 166216, Note_on_c, 1, 64, 75
3, 166216, Note_on_c, 1, 61, 75
3, 166216, Note_on_c, 1, 56, 75
3, 166216, Note_on_c, 1, 49, 75
3, 166248, Note_on_c, 1, 49, 0
3, 166248, Note_on_c, 1, 64, 0
3, 166248, Note_on_c, 1, 61, 0
3, 166248, Note_on_c, 1, 56, 0
3, 166264, Note_on_c, 1, 64, 75
3, 166264, Note_on_c, 1, 61, 75
3, 166264, Note_on_c, 1, 56, 75
3, 166264, Note_on_c, 1, 49, 75
3, 166296, Note_on_c, 1, 49, 0
3, 166296, Note_on_c, 1, 64, 0
3, 166296, Note_on_c, 1, 61, 0
3, 166296, Note_on_c, 1, 56, 0
3, 166312, Note_on_c, 1, 64, 75
3, 166312, Note_on_c, 1, 61, 75
3, 166312, Note_on_c, 1, 56, 75
3, 166312, Note_on_c, 1, 49, 75
3, 166344, Note_on_c, 1, 49, 0
3, 166344, Note_on_c, 1, 64, 0
3, 166344, Note_on_c, 1, 61, 0
3, 166344, Note_on_c, 1, 56, 0
3, 166360, Note_on_c, 1, 64, 75
3, 166360, Note_on_c, 1, 61, 75
3, 166360, Note_on_c, 1, 56, 75
3, 166360, Note_on_c, 1, 49, 75
3, 166392, Note_on_c, 1, 49, 0
3, 166392, Note_on_c, 1, 64, 0
3, 166392, Note_on_c, 1, 61, 0
3, 166392, Note_on_c, 1, 56, 0
3, 166424, Note_on_c, 1, 63, 70
3, 166424, Note_on_c, 1, 58, 70
3, 166424, Note_on_c, 1, 55, 70
3, 166424, Note_on_c, 1, 51, 70
3, 166456, Note_on_c, 1, 51, 0
3, 166456, Note_on_c, 1, 63, 0
3, 166456, Note_on_c, 1, 58, 0
3, 166456, Note_on_c, 1, 55, 0
3, 166472, Note_on_c, 1, 63, 70
3, 166472, Note_on_c, 1, 58, 70
3, 166472, Note_on_c, 1, 55, 70
3, 166472, Note_on_c, 1, 51, 70
3, 166504, Note_on_c, 1, 51, 0
3, 166504, Note_on_c, 1, 63, 0
3, 166504, Note_on_c, 1, 58, 0
3, 166504, Note_on_c, 1, 55, 0
3, 166520, Note_on_c, 1, 63, 70
3, 166520, Note_on_c, 1, 58, 70
3, 166520, Note_on_c, 1, 55, 70
3, 166520, Note_on_c, 1, 51, 70
3, 166552, Note_on_c, 1, 51, 0
3, 166552, Note_on_c, 1, 63, 0
3, 166552, Note_on_c, 1, 58, 0
3, 166552, Note_on_c, 1, 55, 0
3, 166568, Note_on_c, 1, 63, 70
3, 166568, Note_on_c, 1, 58, 70
3, 166568, Note_on_c, 1, 55, 70
3, 166568, Note_on_c, 1, 51, 70
3, 166600, Note_on_c, 1, 51, 0
3, 166600, Note_on_c, 1, 63, 0
3, 166600, Note_on_c, 1, 58, 0
3, 166600, Note_on_c, 1, 55, 0
3, 166616, Note_on_c, 1, 63, 70
3, 166616, Note_on_c, 1, 58, 70
3, 166616, Note_on_c, 1, 55, 70
3, 166616, Note_on_c, 1, 51, 70
3, 166648, Note_on_c, 1, 51, 0
3, 166648, Note_on_c, 1, 63, 0
3, 166648, Note_on_c, 1, 58, 0
3, 166648, Note_on_c, 1, 55, 0
3, 166664, Note_on_c, 1, 63, 70
3, 166664, Note_on_c, 1, 58, 70
3, 166664, Note_on_c, 1, 55, 70
3, 166664, Note_on_c, 1, 51, 70
3, 166696, Note_on_c, 1, 51, 0
3, 166696, Note_on_c, 1, 63, 0
3, 166696, Note_on_c, 1, 58, 0
3, 166696, Note_on_c, 1, 55, 0
3, 166712, Note_on_c, 1, 63, 70
3, 166712, Note_on_c, 1, 58, 70
3, 166712, Note_on_c, 1, 55, 70
3, 166712, Note_on_c, 1, 51, 70
3, 166744, Note_on_c, 1, 51, 0
3, 166744, Note_on_c, 1, 63, 0
3, 166744, Note_on_c, 1, 58, 0
3, 166744, Note_on_c, 1, 55, 0
3, 166760, Note_on_c, 1, 63, 70
3, 166760, Note_on_c, 1, 58, 70
3, 166760, Note_on_c, 1, 55, 70
3, 166760, Note_on_c, 1, 51, 70
3, 166792, Note_on_c, 1, 51, 0
3, 166792, Note_on_c, 1, 63, 0
3, 166792, Note_on_c, 1, 58, 0
3, 166792, Note_on_c, 1, 55, 0
3, 166808, Note_on_c, 1, 63, 70
3, 166808, Note_on_c, 1, 58, 70
3, 166808, Note_on_c, 1, 55, 70
3, 166808, Note_on_c, 1, 51, 70
3, 166840, Note_on_c, 1, 51, 0
3, 166840, Note_on_c, 1, 63, 0
3, 166840, Note_on_c, 1, 58, 0
3, 166840, Note_on_c, 1, 55, 0
3, 166856, Note_on_c, 1, 63, 70
3, 166856, Note_on_c, 1, 58, 70
3, 166856, Note_on_c, 1, 55, 70
3, 166856, Note_on_c, 1, 51, 70
3, 166888, Note_on_c, 1, 51, 0
3, 166888, Note_on_c, 1, 63, 0
3, 166888, Note_on_c, 1, 58, 0
3, 166888, Note_on_c, 1, 55, 0
3, 166904, Note_on_c, 1, 63, 70
3, 166904, Note_on_c, 1, 58, 70
3, 166904, Note_on_c, 1, 55, 70
3, 166904, Note_on_c, 1, 51, 70
3, 166936, Note_on_c, 1, 51, 0
3, 166936, Note_on_c, 1, 63, 0
3, 166936, Note_on_c, 1, 58, 0
3, 166936, Note_on_c, 1, 55, 0
3, 166952, Note_on_c, 1, 63, 70
3, 166952, Note_on_c, 1, 58, 70
3, 166952, Note_on_c, 1, 55, 70
3, 166952, Note_on_c, 1, 51, 70
3, 166984, Note_on_c, 1, 51, 0
3, 166984, Note_on_c, 1, 63, 0
3, 166984, Note_on_c, 1, 58, 0
3, 166984, Note_on_c, 1, 55, 0
3, 167000, Note_on_c, 1, 63, 70
3, 167000, Note_on_c, 1, 58, 70
3, 167000, Note_on_c, 1, 55, 70
3, 167000, Note_on_c, 1, 51, 70
3, 167032, Note_on_c, 1, 51, 0
3, 167032, Note_on_c, 1, 63, 0
3, 167032, Note_on_c, 1, 58, 0
3, 167032, Note_on_c, 1, 55, 0
3, 167048, Note_on_c, 1, 63, 70
3, 167048, Note_on_c, 1, 58, 70
3, 167048, Note_on_c, 1, 55, 70
3, 167048, Note_on_c, 1, 51, 70
3, 167080, Note_on_c, 1, 51, 0
3, 167080, Note_on_c, 1, 63, 0
3, 167080, Note_on_c, 1, 58, 0
3, 167080, Note_on_c, 1, 55, 0
3, 167096, Note_on_c, 1, 63, 70
3, 167096, Note_on_c, 1, 58, 70
3, 167096, Note_on_c, 1, 55, 70
3, 167096, Note_on_c, 1, 51, 70
3, 167128, Note_on_c, 1, 51, 0
3, 167128, Note_on_c, 1, 63, 0
3, 167128, Note_on_c, 1, 58, 0
3, 167128, Note_on_c, 1, 55, 0
3, 167144, Note_on_c, 1, 63, 70
3, 167144, Note_on_c, 1, 58, 70
3, 167144, Note_on_c, 1, 55, 70
3, 167144, Note_on_c, 1, 51, 70
3, 167176, Note_on_c, 1, 51, 0
3, 167176, Note_on_c, 1, 63, 0
3, 167176, Note_on_c, 1, 58, 0
3, 167176, Note_on_c, 1, 55, 0
3, 167192, Note_on_c, 1, 63, 70
3, 167192, Note_on_c, 1, 58, 70
3, 167192, Note_on_c, 1, 55, 70
3, 167192, Note_on_c, 1, 51, 70
3, 167224, Note_on_c, 1, 51, 0
3, 167224, Note_on_c, 1, 63, 0
3, 167224, Note_on_c, 1, 58, 0
3, 167224, Note_on_c, 1, 55, 0
3, 167240, Note_on_c, 1, 63, 70
3, 167240, Note_on_c, 1, 58, 70
3, 167240, Note_on_c, 1, 55, 70
3, 167240, Note_on_c, 1, 51, 70
3, 167272, Note_on_c, 1, 51, 0
3, 167272, Note_on_c, 1, 63, 0
3, 167272, Note_on_c, 1, 58, 0
3, 167272, Note_on_c, 1, 55, 0
3, 167288, Note_on_c, 1, 63, 70
3, 167288, Note_on_c, 1, 58, 70
3, 167288, Note_on_c, 1, 55, 70
3, 167288, Note_on_c, 1, 51, 70
3, 167320, Note_on_c, 1, 51, 0
3, 167320, Note_on_c, 1, 63, 0
3, 167320, Note_on_c, 1, 58, 0
3, 167320, Note_on_c, 1, 55, 0
3, 167336, Note_on_c, 1, 63, 70
3, 167336, Note_on_c, 1, 58, 70
3, 167336, Note_on_c, 1, 55, 70
3, 167336, Note_on_c, 1, 51, 70
3, 167368, Note_on_c, 1, 51, 0
3, 167368, Note_on_c, 1, 63, 0
3, 167368, Note_on_c, 1, 58, 0
3, 167368, Note_on_c, 1, 55, 0
3, 167384, Note_on_c, 1, 63, 70
3, 167384, Note_on_c, 1, 58, 70
3, 167384, Note_on_c, 1, 55, 70
3, 167384, Note_on_c, 1, 51, 70
3, 167416, Note_on_c, 1, 51, 0
3, 167416, Note_on_c, 1, 63, 0
3, 167416, Note_on_c, 1, 58, 0
3, 167416, Note_on_c, 1, 55, 0
3, 167432, Note_on_c, 1, 63, 70
3, 167432, Note_on_c, 1, 58, 70
3, 167432, Note_on_c, 1, 55, 70
3, 167432, Note_on_c, 1, 51, 70
3, 167464, Note_on_c, 1, 51, 0
3, 167464, Note_on_c, 1, 63, 0
3, 167464, Note_on_c, 1, 58, 0
3, 167464, Note_on_c, 1, 55, 0
3, 167480, Note_on_c, 1, 63, 70
3, 167480, Note_on_c, 1, 58, 70
3, 167480, Note_on_c, 1, 55, 70
3, 167480, Note_on_c, 1, 51, 70
3, 167512, Note_on_c, 1, 51, 0
3, 167512, Note_on_c, 1, 63, 0
3, 167512, Note_on_c, 1, 58, 0
3, 167512, Note_on_c, 1, 55, 0
3, 167528, Note_on_c, 1, 63, 70
3, 167528, Note_on_c, 1, 58, 70
3, 167528, Note_on_c, 1, 55, 70
3, 167528, Note_on_c, 1, 51, 70
3, 167560, Note_on_c, 1, 51, 0
3, 167560, Note_on_c, 1, 63, 0
3, 167560, Note_on_c, 1, 58, 0
3, 167560, Note_on_c, 1, 55, 0
3, 167576, Note_on_c, 1, 63, 70
3, 167576, Note_on_c, 1, 58, 70
3, 167576, Note_on_c, 1, 55, 70
3, 167576, Note_on_c, 1, 51, 70
3, 167608, Note_on_c, 1, 51, 0
3, 167608, Note_on_c, 1, 63, 0
3, 167608, Note_on_c, 1, 58, 0
3, 167608, Note_on_c, 1, 55, 0
3, 167624, Note_on_c, 1, 63, 70
3, 167624, Note_on_c, 1, 58, 70
3, 167624, Note_on_c, 1, 55, 70
3, 167624, Note_on_c, 1, 51, 70
3, 167656, Note_on_c, 1, 51, 0
3, 167656, Note_on_c, 1, 63, 0
3, 167656, Note_on_c, 1, 58, 0
3, 167656, Note_on_c, 1, 55, 0
3, 167672, Note_on_c, 1, 63, 70
3, 167672, Note_on_c, 1, 58, 70
3, 167672, Note_on_c, 1, 55, 70
3, 167672, Note_on_c, 1, 51, 70
3, 167704, Note_on_c, 1, 51, 0
3, 167704, Note_on_c, 1, 63, 0
3, 167704, Note_on_c, 1, 58, 0
3, 167704, Note_on_c, 1, 55, 0
3, 167720, Note_on_c, 1, 63, 70
3, 167720, Note_on_c, 1, 58, 70
3, 167720, Note_on_c, 1, 55, 70
3, 167720, Note_on_c, 1, 51, 70
3, 167752, Note_on_c, 1, 51, 0
3, 167752, Note_on_c, 1, 63, 0
3, 167752, Note_on_c, 1, 58, 0
3, 167752, Note_on_c, 1, 55, 0
3, 167768, Note_on_c, 1, 63, 70
3, 167768, Note_on_c, 1, 58, 70
3, 167768, Note_on_c, 1, 55, 70
3, 167768, Note_on_c, 1, 51, 70
3, 167800, Note_on_c, 1, 51, 0
3, 167800, Note_on_c, 1, 63, 0
3, 167800, Note_on_c, 1, 58, 0
3, 167800, Note_on_c, 1, 55, 0
3, 167816, Note_on_c, 1, 63, 70
3, 167816, Note_on_c, 1, 58, 70
3, 167816, Note_on_c, 1, 55, 70
3, 167816, Note_on_c, 1, 51, 70
3, 167848, Note_on_c, 1, 51, 0
3, 167848, Note_on_c, 1, 63, 0
3, 167848, Note_on_c, 1, 58, 0
3, 167848, Note_on_c, 1, 55, 0
3, 167864, Note_on_c, 1, 61, 70
3, 167864, Note_on_c, 1, 56, 70
3, 167864, Note_on_c, 1, 52, 70
3, 167896, Note_on_c, 1, 52, 0
3, 167896, Note_on_c, 1, 56, 0
3, 167896, Note_on_c, 1, 61, 0
3, 167912, Note_on_c, 1, 61, 70
3, 167912, Note_on_c, 1, 56, 70
3, 167912, Note_on_c, 1, 52, 70
3, 167944, Note_on_c, 1, 52, 0
3, 167944, Note_on_c, 1, 56, 0
3, 167944, Note_on_c, 1, 61, 0
3, 167960, Note_on_c, 1, 61, 70
3, 167960, Note_on_c, 1, 56, 70
3, 167960, Note_on_c, 1, 52, 70
3, 167992, Note_on_c, 1, 52, 0
3, 167992, Note_on_c, 1, 56, 0
3, 167992, Note_on_c, 1, 61, 0
3, 168008, Note_on_c, 1, 61, 70
3, 168008, Note_on_c, 1, 56, 70
3, 168008, Note_on_c, 1, 52, 70
3, 168040, Note_on_c, 1, 52, 0
3, 168040, Note_on_c, 1, 56, 0
3, 168040, Note_on_c, 1, 61, 0
3, 168056, Note_on_c, 1, 61, 70
3, 168056, Note_on_c, 1, 56, 70
3, 168056, Note_on_c, 1, 52, 70
3, 168088, Note_on_c, 1, 52, 0
3, 168088, Note_on_c, 1, 56, 0
3, 168088, Note_on_c, 1, 61, 0
3, 168104, Note_on_c, 1, 61, 70
3, 168104, Note_on_c, 1, 56, 70
3, 168104, Note_on_c, 1, 52, 70
3, 168136, Note_on_c, 1, 52, 0
3, 168136, Note_on_c, 1, 56, 0
3, 168136, Note_on_c, 1, 61, 0
3, 168152, Note_on_c, 1, 61, 70
3, 168152, Note_on_c, 1, 56, 70
3, 168152, Note_on_c, 1, 52, 70
3, 168184, Note_on_c, 1, 52, 0
3, 168184, Note_on_c, 1, 56, 0
3, 168184, Note_on_c, 1, 61, 0
3, 168200, Note_on_c, 1, 61, 70
3, 168200, Note_on_c, 1, 56, 70
3, 168200, Note_on_c, 1, 52, 70
3, 168232, Note_on_c, 1, 52, 0
3, 168232, Note_on_c, 1, 56, 0
3, 168232, Note_on_c, 1, 61, 0
3, 168248, Note_on_c, 1, 61, 70
3, 168248, Note_on_c, 1, 56, 70
3, 168248, Note_on_c, 1, 52, 70
3, 168280, Note_on_c, 1, 52, 0
3, 168280, Note_on_c, 1, 56, 0
3, 168280, Note_on_c, 1, 61, 0
3, 168296, Note_on_c, 1, 61, 70
3, 168296, Note_on_c, 1, 56, 70
3, 168296, Note_on_c, 1, 52, 70
3, 168328, Note_on_c, 1, 52, 0
3, 168328, Note_on_c, 1, 56, 0
3, 168328, Note_on_c, 1, 61, 0
3, 168344, Note_on_c, 1, 61, 70
3, 168344, Note_on_c, 1, 56, 70
3, 168344, Note_on_c, 1, 52, 70
3, 168376, Note_on_c, 1, 52, 0
3, 168376, Note_on_c, 1, 56, 0
3, 168376, Note_on_c, 1, 61, 0
3, 168392, Note_on_c, 1, 61, 70
3, 168392, Note_on_c, 1, 56, 70
3, 168392, Note_on_c, 1, 52, 70
3, 168424, Note_on_c, 1, 52, 0
3, 168424, Note_on_c, 1, 56, 0
3, 168424, Note_on_c, 1, 61, 0
3, 168440, Note_on_c, 1, 61, 70
3, 168440, Note_on_c, 1, 56, 70
3, 168440, Note_on_c, 1, 52, 70
3, 168472, Note_on_c, 1, 52, 0
3, 168472, Note_on_c, 1, 56, 0
3, 168472, Note_on_c, 1, 61, 0
3, 168488, Note_on_c, 1, 61, 70
3, 168488, Note_on_c, 1, 56, 70
3, 168488, Note_on_c, 1, 52, 70
3, 168520, Note_on_c, 1, 52, 0
3, 168520, Note_on_c, 1, 56, 0
3, 168520, Note_on_c, 1, 61, 0
3, 168548, Note_on_c, 1, 64, 70
3, 168548, Note_on_c, 1, 61, 70
3, 168548, Note_on_c, 1, 56, 70
3, 168548, Note_on_c, 1, 49, 70
3, 168580, Note_on_c, 1, 49, 0
3, 168580, Note_on_c, 1, 64, 0
3, 168580, Note_on_c, 1, 61, 0
3, 168580, Note_on_c, 1, 56, 0
3, 168596, Note_on_c, 1, 64, 70
3, 168596, Note_on_c, 1, 61, 70
3, 168596, Note_on_c, 1, 56, 70
3, 168596, Note_on_c, 1, 49, 70
3, 168628, Note_on_c, 1, 49, 0
3, 168628, Note_on_c, 1, 64, 0
3, 168628, Note_on_c, 1, 61, 0
3, 168628, Note_on_c, 1, 56, 0
3, 168644, Note_on_c, 1, 64, 70
3, 168644, Note_on_c, 1, 61, 70
3, 168644, Note_on_c, 1, 56, 70
3, 168644, Note_on_c, 1, 49, 70
3, 168676, Note_on_c, 1, 49, 0
3, 168676, Note_on_c, 1, 64, 0
3, 168676, Note_on_c, 1, 61, 0
3, 168676, Note_on_c, 1, 56, 0
3, 168692, Note_on_c, 1, 64, 70
3, 168692, Note_on_c, 1, 61, 70
3, 168692, Note_on_c, 1, 56, 70
3, 168692, Note_on_c, 1, 49, 70
3, 168724, Note_on_c, 1, 49, 0
3, 168724, Note_on_c, 1, 64, 0
3, 168724, Note_on_c, 1, 61, 0
3, 168724, Note_on_c, 1, 56, 0
3, 168740, Note_on_c, 1, 64, 70
3, 168740, Note_on_c, 1, 61, 70
3, 168740, Note_on_c, 1, 56, 70
3, 168740, Note_on_c, 1, 49, 70
3, 168772, Note_on_c, 1, 49, 0
3, 168772, Note_on_c, 1, 64, 0
3, 168772, Note_on_c, 1, 61, 0
3, 168772, Note_on_c, 1, 56, 0
3, 168788, Note_on_c, 1, 64, 70
3, 168788, Note_on_c, 1, 61, 70
3, 168788, Note_on_c, 1, 56, 70
3, 168788, Note_on_c, 1, 49, 70
3, 168820, Note_on_c, 1, 49, 0
3, 168820, Note_on_c, 1, 64, 0
3, 168820, Note_on_c, 1, 61, 0
3, 168820, Note_on_c, 1, 56, 0
3, 168836, Note_on_c, 1, 64, 70
3, 168836, Note_on_c, 1, 61, 70
3, 168836, Note_on_c, 1, 56, 70
3, 168836, Note_on_c, 1, 49, 70
3, 168868, Note_on_c, 1, 49, 0
3, 168868, Note_on_c, 1, 64, 0
3, 168868, Note_on_c, 1, 61, 0
3, 168868, Note_on_c, 1, 56, 0
3, 168884, Note_on_c, 1, 64, 70
3, 168884, Note_on_c, 1, 61, 70
3, 168884, Note_on_c, 1, 56, 70
3, 168884, Note_on_c, 1, 49, 70
3, 168916, Note_on_c, 1, 49, 0
3, 168916, Note_on_c, 1, 64, 0
3, 168916, Note_on_c, 1, 61, 0
3, 168916, Note_on_c, 1, 56, 0
3, 168932, Note_on_c, 1, 64, 70
3, 168932, Note_on_c, 1, 61, 70
3, 168932, Note_on_c, 1, 56, 70
3, 168932, Note_on_c, 1, 49, 70
3, 168964, Note_on_c, 1, 49, 0
3, 168964, Note_on_c, 1, 64, 0
3, 168964, Note_on_c, 1, 61, 0
3, 168964, Note_on_c, 1, 56, 0
3, 168980, Note_on_c, 1, 64, 70
3, 168980, Note_on_c, 1, 61, 70
3, 168980, Note_on_c, 1, 56, 70
3, 168980, Note_on_c, 1, 49, 70
3, 169012, Note_on_c, 1, 49, 0
3, 169012, Note_on_c, 1, 64, 0
3, 169012, Note_on_c, 1, 61, 0
3, 169012, Note_on_c, 1, 56, 0
3, 169028, Note_on_c, 1, 64, 70
3, 169028, Note_on_c, 1, 61, 70
3, 169028, Note_on_c, 1, 56, 70
3, 169028, Note_on_c, 1, 49, 70
3, 169060, Note_on_c, 1, 49, 0
3, 169060, Note_on_c, 1, 64, 0
3, 169060, Note_on_c, 1, 61, 0
3, 169060, Note_on_c, 1, 56, 0
3, 169076, Note_on_c, 1, 64, 70
3, 169076, Note_on_c, 1, 61, 70
3, 169076, Note_on_c, 1, 56, 70
3, 169076, Note_on_c, 1, 49, 70
3, 169108, Note_on_c, 1, 49, 0
3, 169108, Note_on_c, 1, 64, 0
3, 169108, Note_on_c, 1, 61, 0
3, 169108, Note_on_c, 1, 56, 0
3, 169124, Note_on_c, 1, 64, 70
3, 169124, Note_on_c, 1, 61, 70
3, 169124, Note_on_c, 1, 56, 70
3, 169124, Note_on_c, 1, 49, 70
3, 169156, Note_on_c, 1, 49, 0
3, 169156, Note_on_c, 1, 64, 0
3, 169156, Note_on_c, 1, 61, 0
3, 169156, Note_on_c, 1, 56, 0
3, 169164, Note_on_c, 1, 63, 75
3, 169164, Note_on_c, 1, 58, 75
3, 169164, Note_on_c, 1, 55, 75
3, 169164, Note_on_c, 1, 51, 75
3, 169196, Note_on_c, 1, 51, 0
3, 169196, Note_on_c, 1, 63, 0
3, 169196, Note_on_c, 1, 58, 0
3, 169196, Note_on_c, 1, 55, 0
3, 169212, Note_on_c, 1, 63, 75
3, 169212, Note_on_c, 1, 58, 75
3, 169212, Note_on_c, 1, 55, 75
3, 169212, Note_on_c, 1, 51, 75
3, 169244, Note_on_c, 1, 51, 0
3, 169244, Note_on_c, 1, 63, 0
3, 169244, Note_on_c, 1, 58, 0
3, 169244, Note_on_c, 1, 55, 0
3, 169260, Note_on_c, 1, 63, 75
3, 169260, Note_on_c, 1, 58, 75
3, 169260, Note_on_c, 1, 55, 75
3, 169260, Note_on_c, 1, 51, 75
3, 169292, Note_on_c, 1, 51, 0
3, 169292, Note_on_c, 1, 63, 0
3, 169292, Note_on_c, 1, 58, 0
3, 169292, Note_on_c, 1, 55, 0
3, 169308, Note_on_c, 1, 63, 75
3, 169308, Note_on_c, 1, 58, 75
3, 169308, Note_on_c, 1, 55, 75
3, 169308, Note_on_c, 1, 51, 75
3, 169340, Note_on_c, 1, 51, 0
3, 169340, Note_on_c, 1, 63, 0
3, 169340, Note_on_c, 1, 58, 0
3, 169340, Note_on_c, 1, 55, 0
3, 169356, Note_on_c, 1, 63, 75
3, 169356, Note_on_c, 1, 58, 75
3, 169356, Note_on_c, 1, 55, 75
3, 169356, Note_on_c, 1, 51, 75
3, 169388, Note_on_c, 1, 51, 0
3, 169388, Note_on_c, 1, 63, 0
3, 169388, Note_on_c, 1, 58, 0
3, 169388, Note_on_c, 1, 55, 0
3, 169404, Note_on_c, 1, 63, 75
3, 169404, Note_on_c, 1, 58, 75
3, 169404, Note_on_c, 1, 55, 75
3, 169404, Note_on_c, 1, 51, 75
3, 169436, Note_on_c, 1, 51, 0
3, 169436, Note_on_c, 1, 63, 0
3, 169436, Note_on_c, 1, 58, 0
3, 169436, Note_on_c, 1, 55, 0
3, 169452, Note_on_c, 1, 63, 75
3, 169452, Note_on_c, 1, 58, 75
3, 169452, Note_on_c, 1, 55, 75
3, 169452, Note_on_c, 1, 51, 75
3, 169484, Note_on_c, 1, 51, 0
3, 169484, Note_on_c, 1, 63, 0
3, 169484, Note_on_c, 1, 58, 0
3, 169484, Note_on_c, 1, 55, 0
3, 169500, Note_on_c, 1, 63, 75
3, 169500, Note_on_c, 1, 58, 75
3, 169500, Note_on_c, 1, 55, 75
3, 169500, Note_on_c, 1, 51, 75
3, 169532, Note_on_c, 1, 51, 0
3, 169532, Note_on_c, 1, 63, 0
3, 169532, Note_on_c, 1, 58, 0
3, 169532, Note_on_c, 1, 55, 0
3, 169548, Note_on_c, 1, 63, 75
3, 169548, Note_on_c, 1, 58, 75
3, 169548, Note_on_c, 1, 55, 75
3, 169548, Note_on_c, 1, 51, 75
3, 169580, Note_on_c, 1, 51, 0
3, 169580, Note_on_c, 1, 63, 0
3, 169580, Note_on_c, 1, 58, 0
3, 169580, Note_on_c, 1, 55, 0
3, 169596, Note_on_c, 1, 63, 75
3, 169596, Note_on_c, 1, 58, 75
3, 169596, Note_on_c, 1, 55, 75
3, 169596, Note_on_c, 1, 51, 75
3, 169628, Note_on_c, 1, 51, 0
3, 169628, Note_on_c, 1, 63, 0
3, 169628, Note_on_c, 1, 58, 0
3, 169628, Note_on_c, 1, 55, 0
3, 169644, Note_on_c, 1, 63, 75
3, 169644, Note_on_c, 1, 58, 75
3, 169644, Note_on_c, 1, 55, 75
3, 169644, Note_on_c, 1, 51, 75
3, 169676, Note_on_c, 1, 51, 0
3, 169676, Note_on_c, 1, 63, 0
3, 169676, Note_on_c, 1, 58, 0
3, 169676, Note_on_c, 1, 55, 0
3, 169692, Note_on_c, 1, 63, 75
3, 169692, Note_on_c, 1, 58, 75
3, 169692, Note_on_c, 1, 55, 75
3, 169692, Note_on_c, 1, 51, 75
3, 169724, Note_on_c, 1, 51, 0
3, 169724, Note_on_c, 1, 63, 0
3, 169724, Note_on_c, 1, 58, 0
3, 169724, Note_on_c, 1, 55, 0
3, 169740, Note_on_c, 1, 63, 75
3, 169740, Note_on_c, 1, 58, 75
3, 169740, Note_on_c, 1, 55, 75
3, 169740, Note_on_c, 1, 51, 75
3, 169772, Note_on_c, 1, 51, 0
3, 169772, Note_on_c, 1, 63, 0
3, 169772, Note_on_c, 1, 58, 0
3, 169772, Note_on_c, 1, 55, 0
3, 169788, Note_on_c, 1, 63, 75
3, 169788, Note_on_c, 1, 58, 75
3, 169788, Note_on_c, 1, 55, 75
3, 169788, Note_on_c, 1, 51, 75
3, 169820, Note_on_c, 1, 51, 0
3, 169820, Note_on_c, 1, 63, 0
3, 169820, Note_on_c, 1, 58, 0
3, 169820, Note_on_c, 1, 55, 0
3, 169836, Note_on_c, 1, 63, 75
3, 169836, Note_on_c, 1, 58, 75
3, 169836, Note_on_c, 1, 55, 75
3, 169836, Note_on_c, 1, 51, 75
3, 169868, Note_on_c, 1, 51, 0
3, 169868, Note_on_c, 1, 63, 0
3, 169868, Note_on_c, 1, 58, 0
3, 169868, Note_on_c, 1, 55, 0
3, 169884, Note_on_c, 1, 63, 75
3, 169884, Note_on_c, 1, 58, 75
3, 169884, Note_on_c, 1, 55, 75
3, 169884, Note_on_c, 1, 51, 75
3, 169916, Note_on_c, 1, 51, 0
3, 169916, Note_on_c, 1, 63, 0
3, 169916, Note_on_c, 1, 58, 0
3, 169916, Note_on_c, 1, 55, 0
3, 169932, Note_on_c, 1, 63, 75
3, 169932, Note_on_c, 1, 58, 75
3, 169932, Note_on_c, 1, 55, 75
3, 169932, Note_on_c, 1, 51, 75
3, 169964, Note_on_c, 1, 51, 0
3, 169964, Note_on_c, 1, 63, 0
3, 169964, Note_on_c, 1, 58, 0
3, 169964, Note_on_c, 1, 55, 0
3, 169980, Note_on_c, 1, 63, 75
3, 169980, Note_on_c, 1, 58, 75
3, 169980, Note_on_c, 1, 55, 75
3, 169980, Note_on_c, 1, 51, 75
3, 170012, Note_on_c, 1, 51, 0
3, 170012, Note_on_c, 1, 63, 0
3, 170012, Note_on_c, 1, 58, 0
3, 170012, Note_on_c, 1, 55, 0
3, 170028, Note_on_c, 1, 63, 75
3, 170028, Note_on_c, 1, 58, 75
3, 170028, Note_on_c, 1, 55, 75
3, 170028, Note_on_c, 1, 51, 75
3, 170060, Note_on_c, 1, 51, 0
3, 170060, Note_on_c, 1, 63, 0
3, 170060, Note_on_c, 1, 58, 0
3, 170060, Note_on_c, 1, 55, 0
3, 170076, Note_on_c, 1, 63, 75
3, 170076, Note_on_c, 1, 58, 75
3, 170076, Note_on_c, 1, 55, 75
3, 170076, Note_on_c, 1, 51, 75
3, 170108, Note_on_c, 1, 51, 0
3, 170108, Note_on_c, 1, 63, 0
3, 170108, Note_on_c, 1, 58, 0
3, 170108, Note_on_c, 1, 55, 0
3, 170124, Note_on_c, 1, 63, 75
3, 170124, Note_on_c, 1, 58, 75
3, 170124, Note_on_c, 1, 55, 75
3, 170124, Note_on_c, 1, 51, 75
3, 170156, Note_on_c, 1, 51, 0
3, 170156, Note_on_c, 1, 63, 0
3, 170156, Note_on_c, 1, 58, 0
3, 170156, Note_on_c, 1, 55, 0
3, 170172, Note_on_c, 1, 63, 75
3, 170172, Note_on_c, 1, 58, 75
3, 170172, Note_on_c, 1, 55, 75
3, 170172, Note_on_c, 1, 51, 75
3, 170204, Note_on_c, 1, 51, 0
3, 170204, Note_on_c, 1, 63, 0
3, 170204, Note_on_c, 1, 58, 0
3, 170204, Note_on_c, 1, 55, 0
3, 170220, Note_on_c, 1, 63, 75
3, 170220, Note_on_c, 1, 58, 75
3, 170220, Note_on_c, 1, 55, 75
3, 170220, Note_on_c, 1, 51, 75
3, 170252, Note_on_c, 1, 51, 0
3, 170252, Note_on_c, 1, 63, 0
3, 170252, Note_on_c, 1, 58, 0
3, 170252, Note_on_c, 1, 55, 0
3, 170268, Note_on_c, 1, 63, 70
3, 170268, Note_on_c, 1, 59, 70
3, 170268, Note_on_c, 1, 56, 70
3, 170268, Note_on_c, 1, 44, 70
3, 170300, Note_on_c, 1, 44, 0
3, 170300, Note_on_c, 1, 63, 0
3, 170300, Note_on_c, 1, 59, 0
3, 170300, Note_on_c, 1, 56, 0
3, 170316, Note_on_c, 1, 63, 70
3, 170316, Note_on_c, 1, 59, 70
3, 170316, Note_on_c, 1, 56, 70
3, 170316, Note_on_c, 1, 44, 70
3, 170348, Note_on_c, 1, 44, 0
3, 170348, Note_on_c, 1, 63, 0
3, 170348, Note_on_c, 1, 59, 0
3, 170348, Note_on_c, 1, 56, 0
3, 170364, Note_on_c, 1, 63, 70
3, 170364, Note_on_c, 1, 59, 70
3, 170364, Note_on_c, 1, 56, 70
3, 170364, Note_on_c, 1, 44, 70
3, 170396, Note_on_c, 1, 44, 0
3, 170396, Note_on_c, 1, 63, 0
3, 170396, Note_on_c, 1, 59, 0
3, 170396, Note_on_c, 1, 56, 0
3, 170412, Note_on_c, 1, 63, 70
3, 170412, Note_on_c, 1, 59, 70
3, 170412, Note_on_c, 1, 56, 70
3, 170412, Note_on_c, 1, 44, 70
3, 170444, Note_on_c, 1, 44, 0
3, 170444, Note_on_c, 1, 63, 0
3, 170444, Note_on_c, 1, 59, 0
3, 170444, Note_on_c, 1, 56, 0
3, 170460, Note_on_c, 1, 63, 70
3, 170460, Note_on_c, 1, 59, 70
3, 170460, Note_on_c, 1, 56, 70
3, 170460, Note_on_c, 1, 44, 70
3, 170492, Note_on_c, 1, 44, 0
3, 170492, Note_on_c, 1, 63, 0
3, 170492, Note_on_c, 1, 59, 0
3, 170492, Note_on_c, 1, 56, 0
3, 170508, Note_on_c, 1, 63, 70
3, 170508, Note_on_c, 1, 59, 70
3, 170508, Note_on_c, 1, 56, 70
3, 170508, Note_on_c, 1, 44, 70
3, 170540, Note_on_c, 1, 44, 0
3, 170540, Note_on_c, 1, 63, 0
3, 170540, Note_on_c, 1, 59, 0
3, 170540, Note_on_c, 1, 56, 0
3, 170556, Note_on_c, 1, 63, 70
3, 170556, Note_on_c, 1, 59, 70
3, 170556, Note_on_c, 1, 56, 70
3, 170556, Note_on_c, 1, 44, 70
3, 170588, Note_on_c, 1, 44, 0
3, 170588, Note_on_c, 1, 63, 0
3, 170588, Note_on_c, 1, 59, 0
3, 170588, Note_on_c, 1, 56, 0
3, 170604, Note_on_c, 1, 63, 70
3, 170604, Note_on_c, 1, 59, 70
3, 170604, Note_on_c, 1, 56, 70
3, 170604, Note_on_c, 1, 44, 70
3, 170636, Note_on_c, 1, 44, 0
3, 170636, Note_on_c, 1, 63, 0
3, 170636, Note_on_c, 1, 59, 0
3, 170636, Note_on_c, 1, 56, 0
3, 170652, Note_on_c, 1, 63, 70
3, 170652, Note_on_c, 1, 59, 70
3, 170652, Note_on_c, 1, 56, 70
3, 170652, Note_on_c, 1, 44, 70
3, 170684, Note_on_c, 1, 44, 0
3, 170684, Note_on_c, 1, 63, 0
3, 170684, Note_on_c, 1, 59, 0
3, 170684, Note_on_c, 1, 56, 0
3, 170700, Note_on_c, 1, 63, 70
3, 170700, Note_on_c, 1, 59, 70
3, 170700, Note_on_c, 1, 56, 70
3, 170700, Note_on_c, 1, 44, 70
3, 170732, Note_on_c, 1, 44, 0
3, 170732, Note_on_c, 1, 63, 0
3, 170732, Note_on_c, 1, 59, 0
3, 170732, Note_on_c, 1, 56, 0
3, 170748, Note_on_c, 1, 63, 70
3, 170748, Note_on_c, 1, 59, 70
3, 170748, Note_on_c, 1, 56, 70
3, 170748, Note_on_c, 1, 44, 70
3, 170780, Note_on_c, 1, 44, 0
3, 170780, Note_on_c, 1, 63, 0
3, 170780, Note_on_c, 1, 59, 0
3, 170780, Note_on_c, 1, 56, 0
3, 170796, Note_on_c, 1, 63, 70
3, 170796, Note_on_c, 1, 59, 70
3, 170796, Note_on_c, 1, 56, 70
3, 170796, Note_on_c, 1, 44, 70
3, 170828, Note_on_c, 1, 44, 0
3, 170828, Note_on_c, 1, 63, 0
3, 170828, Note_on_c, 1, 59, 0
3, 170828, Note_on_c, 1, 56, 0
3, 170844, Note_on_c, 1, 63, 70
3, 170844, Note_on_c, 1, 59, 70
3, 170844, Note_on_c, 1, 56, 70
3, 170844, Note_on_c, 1, 44, 70
3, 170876, Note_on_c, 1, 44, 0
3, 170876, Note_on_c, 1, 63, 0
3, 170876, Note_on_c, 1, 59, 0
3, 170876, Note_on_c, 1, 56, 0
3, 170892, Note_on_c, 1, 63, 70
3, 170892, Note_on_c, 1, 59, 70
3, 170892, Note_on_c, 1, 56, 70
3, 170892, Note_on_c, 1, 44, 70
3, 170924, Note_on_c, 1, 44, 0
3, 170924, Note_on_c, 1, 63, 0
3, 170924, Note_on_c, 1, 59, 0
3, 170924, Note_on_c, 1, 56, 0
3, 170940, Note_on_c, 1, 63, 70
3, 170940, Note_on_c, 1, 59, 70
3, 170940, Note_on_c, 1, 56, 70
3, 170940, Note_on_c, 1, 44, 70
3, 170972, Note_on_c, 1, 44, 0
3, 170972, Note_on_c, 1, 63, 0
3, 170972, Note_on_c, 1, 59, 0
3, 170972, Note_on_c, 1, 56, 0
3, 170988, Note_on_c, 1, 63, 70
3, 170988, Note_on_c, 1, 59, 70
3, 170988, Note_on_c, 1, 56, 70
3, 170988, Note_on_c, 1, 44, 70
3, 171020, Note_on_c, 1, 44, 0
3, 171020, Note_on_c, 1, 63, 0
3, 171020, Note_on_c, 1, 59, 0
3, 171020, Note_on_c, 1, 56, 0
3, 171036, Note_on_c, 1, 63, 70
3, 171036, Note_on_c, 1, 59, 70
3, 171036, Note_on_c, 1, 56, 70
3, 171036, Note_on_c, 1, 44, 70
3, 171068, Note_on_c, 1, 44, 0
3, 171068, Note_on_c, 1, 63, 0
3, 171068, Note_on_c, 1, 59, 0
3, 171068, Note_on_c, 1, 56, 0
3, 171084, Note_on_c, 1, 63, 70
3, 171084, Note_on_c, 1, 59, 70
3, 171084, Note_on_c, 1, 56, 70
3, 171084, Note_on_c, 1, 44, 70
3, 171116, Note_on_c, 1, 44, 0
3, 171116, Note_on_c, 1, 63, 0
3, 171116, Note_on_c, 1, 59, 0
3, 171116, Note_on_c, 1, 56, 0
3, 171132, Note_on_c, 1, 63, 70
3, 171132, Note_on_c, 1, 59, 70
3, 171132, Note_on_c, 1, 56, 70
3, 171132, Note_on_c, 1, 44, 70
3, 171164, Note_on_c, 1, 44, 0
3, 171164, Note_on_c, 1, 63, 0
3, 171164, Note_on_c, 1, 59, 0
3, 171164, Note_on_c, 1, 56, 0
3, 171180, Note_on_c, 1, 63, 70
3, 171180, Note_on_c, 1, 59, 70
3, 171180, Note_on_c, 1, 56, 70
3, 171180, Note_on_c, 1, 44, 70
3, 171212, Note_on_c, 1, 44, 0
3, 171212, Note_on_c, 1, 63, 0
3, 171212, Note_on_c, 1, 59, 0
3, 171212, Note_on_c, 1, 56, 0
3, 171228, Note_on_c, 1, 63, 70
3, 171228, Note_on_c, 1, 59, 70
3, 171228, Note_on_c, 1, 56, 70
3, 171228, Note_on_c, 1, 44, 70
3, 171260, Note_on_c, 1, 44, 0
3, 171260, Note_on_c, 1, 63, 0
3, 171260, Note_on_c, 1, 59, 0
3, 171260, Note_on_c, 1, 56, 0
3, 171276, Note_on_c, 1, 63, 70
3, 171276, Note_on_c, 1, 59, 70
3, 171276, Note_on_c, 1, 56, 70
3, 171276, Note_on_c, 1, 44, 70
3, 171308, Note_on_c, 1, 44, 0
3, 171308, Note_on_c, 1, 63, 0
3, 171308, Note_on_c, 1, 59, 0
3, 171308, Note_on_c, 1, 56, 0
3, 171324, Note_on_c, 1, 63, 70
3, 171324, Note_on_c, 1, 59, 70
3, 171324, Note_on_c, 1, 56, 70
3, 171324, Note_on_c, 1, 44, 70
3, 171356, Note_on_c, 1, 44, 0
3, 171356, Note_on_c, 1, 63, 0
3, 171356, Note_on_c, 1, 59, 0
3, 171356, Note_on_c, 1, 56, 0
3, 171372, Note_on_c, 1, 63, 70
3, 171372, Note_on_c, 1, 59, 70
3, 171372, Note_on_c, 1, 56, 70
3, 171372, Note_on_c, 1, 44, 70
3, 171404, Note_on_c, 1, 44, 0
3, 171404, Note_on_c, 1, 63, 0
3, 171404, Note_on_c, 1, 59, 0
3, 171404, Note_on_c, 1, 56, 0
3, 171420, Note_on_c, 1, 63, 70
3, 171420, Note_on_c, 1, 59, 70
3, 171420, Note_on_c, 1, 56, 70
3, 171420, Note_on_c, 1, 44, 70
3, 171452, Note_on_c, 1, 44, 0
3, 171452, Note_on_c, 1, 63, 0
3, 171452, Note_on_c, 1, 59, 0
3, 171452, Note_on_c, 1, 56, 0
3, 171468, Note_on_c, 1, 63, 70
3, 171468, Note_on_c, 1, 59, 70
3, 171468, Note_on_c, 1, 56, 70
3, 171468, Note_on_c, 1, 44, 70
3, 171500, Note_on_c, 1, 44, 0
3, 171500, Note_on_c, 1, 63, 0
3, 171500, Note_on_c, 1, 59, 0
3, 171500, Note_on_c, 1, 56, 0
3, 171516, Note_on_c, 1, 63, 70
3, 171516, Note_on_c, 1, 59, 70
3, 171516, Note_on_c, 1, 56, 70
3, 171516, Note_on_c, 1, 44, 70
3, 171548, Note_on_c, 1, 44, 0
3, 171548, Note_on_c, 1, 63, 0
3, 171548, Note_on_c, 1, 59, 0
3, 171548, Note_on_c, 1, 56, 0
3, 171564, Note_on_c, 1, 63, 70
3, 171564, Note_on_c, 1, 59, 70
3, 171564, Note_on_c, 1, 56, 70
3, 171564, Note_on_c, 1, 44, 70
3, 171596, Note_on_c, 1, 44, 0
3, 171596, Note_on_c, 1, 63, 0
3, 171596, Note_on_c, 1, 59, 0
3, 171596, Note_on_c, 1, 56, 0
3, 171612, Note_on_c, 1, 63, 70
3, 171612, Note_on_c, 1, 59, 70
3, 171612, Note_on_c, 1, 56, 70
3, 171612, Note_on_c, 1, 44, 70
3, 171644, Note_on_c, 1, 44, 0
3, 171644, Note_on_c, 1, 63, 0
3, 171644, Note_on_c, 1, 59, 0
3, 171644, Note_on_c, 1, 56, 0
3, 171660, Note_on_c, 1, 63, 70
3, 171660, Note_on_c, 1, 59, 70
3, 171660, Note_on_c, 1, 56, 70
3, 171660, Note_on_c, 1, 44, 70
3, 171692, Note_on_c, 1, 44, 0
3, 171692, Note_on_c, 1, 63, 0
3, 171692, Note_on_c, 1, 59, 0
3, 171692, Note_on_c, 1, 56, 0
3, 171708, Note_on_c, 1, 63, 70
3, 171708, Note_on_c, 1, 59, 70
3, 171708, Note_on_c, 1, 56, 70
3, 171708, Note_on_c, 1, 44, 70
3, 171740, Note_on_c, 1, 44, 0
3, 171740, Note_on_c, 1, 63, 0
3, 171740, Note_on_c, 1, 59, 0
3, 171740, Note_on_c, 1, 56, 0
3, 171756, Note_on_c, 1, 63, 70
3, 171756, Note_on_c, 1, 59, 70
3, 171756, Note_on_c, 1, 56, 70
3, 171756, Note_on_c, 1, 44, 70
3, 171788, Note_on_c, 1, 44, 0
3, 171788, Note_on_c, 1, 63, 0
3, 171788, Note_on_c, 1, 59, 0
3, 171788, Note_on_c, 1, 56, 0
3, 171804, Note_on_c, 1, 63, 70
3, 171804, Note_on_c, 1, 59, 70
3, 171804, Note_on_c, 1, 56, 70
3, 171804, Note_on_c, 1, 44, 70
3, 171836, Note_on_c, 1, 44, 0
3, 171836, Note_on_c, 1, 63, 0
3, 171836, Note_on_c, 1, 59, 0
3, 171836, Note_on_c, 1, 56, 0
3, 171852, Note_on_c, 1, 63, 70
3, 171852, Note_on_c, 1, 59, 70
3, 171852, Note_on_c, 1, 56, 70
3, 171852, Note_on_c, 1, 44, 70
3, 171884, Note_on_c, 1, 44, 0
3, 171884, Note_on_c, 1, 63, 0
3, 171884, Note_on_c, 1, 59, 0
3, 171884, Note_on_c, 1, 56, 0
3, 171904, Note_on_c, 1, 63, 70
3, 171904, Note_on_c, 1, 58, 70
3, 171904, Note_on_c, 1, 55, 70
3, 171904, Note_on_c, 1, 51, 70
3, 171936, Note_on_c, 1, 51, 0
3, 171936, Note_on_c, 1, 63, 0
3, 171936, Note_on_c, 1, 58, 0
3, 171936, Note_on_c, 1, 55, 0
3, 171952, Note_on_c, 1, 63, 70
3, 171952, Note_on_c, 1, 58, 70
3, 171952, Note_on_c, 1, 55, 70
3, 171952, Note_on_c, 1, 51, 70
3, 171984, Note_on_c, 1, 51, 0
3, 171984, Note_on_c, 1, 63, 0
3, 171984, Note_on_c, 1, 58, 0
3, 171984, Note_on_c, 1, 55, 0
3, 172000, Note_on_c, 1, 63, 70
3, 172000, Note_on_c, 1, 58, 70
3, 172000, Note_on_c, 1, 55, 70
3, 172000, Note_on_c, 1, 51, 70
3, 172032, Note_on_c, 1, 51, 0
3, 172032, Note_on_c, 1, 63, 0
3, 172032, Note_on_c, 1, 58, 0
3, 172032, Note_on_c, 1, 55, 0
3, 172048, Note_on_c, 1, 63, 70
3, 172048, Note_on_c, 1, 58, 70
3, 172048, Note_on_c, 1, 55, 70
3, 172048, Note_on_c, 1, 51, 70
3, 172080, Note_on_c, 1, 51, 0
3, 172080, Note_on_c, 1, 63, 0
3, 172080, Note_on_c, 1, 58, 0
3, 172080, Note_on_c, 1, 55, 0
3, 172096, Note_on_c, 1, 63, 70
3, 172096, Note_on_c, 1, 58, 70
3, 172096, Note_on_c, 1, 55, 70
3, 172096, Note_on_c, 1, 51, 70
3, 172128, Note_on_c, 1, 51, 0
3, 172128, Note_on_c, 1, 63, 0
3, 172128, Note_on_c, 1, 58, 0
3, 172128, Note_on_c, 1, 55, 0
3, 172144, Note_on_c, 1, 63, 70
3, 172144, Note_on_c, 1, 58, 70
3, 172144, Note_on_c, 1, 55, 70
3, 172144, Note_on_c, 1, 51, 70
3, 172176, Note_on_c, 1, 51, 0
3, 172176, Note_on_c, 1, 63, 0
3, 172176, Note_on_c, 1, 58, 0
3, 172176, Note_on_c, 1, 55, 0
3, 172192, Note_on_c, 1, 63, 70
3, 172192, Note_on_c, 1, 58, 70
3, 172192, Note_on_c, 1, 55, 70
3, 172192, Note_on_c, 1, 51, 70
3, 172224, Note_on_c, 1, 51, 0
3, 172224, Note_on_c, 1, 63, 0
3, 172224, Note_on_c, 1, 58, 0
3, 172224, Note_on_c, 1, 55, 0
3, 172240, Note_on_c, 1, 63, 70
3, 172240, Note_on_c, 1, 58, 70
3, 172240, Note_on_c, 1, 55, 70
3, 172240, Note_on_c, 1, 51, 70
3, 172272, Note_on_c, 1, 51, 0
3, 172272, Note_on_c, 1, 63, 0
3, 172272, Note_on_c, 1, 58, 0
3, 172272, Note_on_c, 1, 55, 0
3, 172288, Note_on_c, 1, 63, 70
3, 172288, Note_on_c, 1, 58, 70
3, 172288, Note_on_c, 1, 55, 70
3, 172288, Note_on_c, 1, 51, 70
3, 172320, Note_on_c, 1, 51, 0
3, 172320, Note_on_c, 1, 63, 0
3, 172320, Note_on_c, 1, 58, 0
3, 172320, Note_on_c, 1, 55, 0
3, 172336, Note_on_c, 1, 63, 70
3, 172336, Note_on_c, 1, 58, 70
3, 172336, Note_on_c, 1, 55, 70
3, 172336, Note_on_c, 1, 51, 70
3, 172368, Note_on_c, 1, 51, 0
3, 172368, Note_on_c, 1, 63, 0
3, 172368, Note_on_c, 1, 58, 0
3, 172368, Note_on_c, 1, 55, 0
3, 172384, Note_on_c, 1, 63, 70
3, 172384, Note_on_c, 1, 58, 70
3, 172384, Note_on_c, 1, 55, 70
3, 172384, Note_on_c, 1, 51, 70
3, 172416, Note_on_c, 1, 51, 0
3, 172416, Note_on_c, 1, 63, 0
3, 172416, Note_on_c, 1, 58, 0
3, 172416, Note_on_c, 1, 55, 0
3, 172432, Note_on_c, 1, 63, 70
3, 172432, Note_on_c, 1, 58, 70
3, 172432, Note_on_c, 1, 55, 70
3, 172432, Note_on_c, 1, 51, 70
3, 172464, Note_on_c, 1, 51, 0
3, 172464, Note_on_c, 1, 63, 0
3, 172464, Note_on_c, 1, 58, 0
3, 172464, Note_on_c, 1, 55, 0
3, 172480, Note_on_c, 1, 63, 70
3, 172480, Note_on_c, 1, 58, 70
3, 172480, Note_on_c, 1, 55, 70
3, 172480, Note_on_c, 1, 51, 70
3, 172512, Note_on_c, 1, 51, 0
3, 172512, Note_on_c, 1, 63, 0
3, 172512, Note_on_c, 1, 58, 0
3, 172512, Note_on_c, 1, 55, 0
3, 172528, Note_on_c, 1, 63, 70
3, 172528, Note_on_c, 1, 58, 70
3, 172528, Note_on_c, 1, 55, 70
3, 172528, Note_on_c, 1, 51, 70
3, 172560, Note_on_c, 1, 51, 0
3, 172560, Note_on_c, 1, 63, 0
3, 172560, Note_on_c, 1, 58, 0
3, 172560, Note_on_c, 1, 55, 0
3, 172576, Note_on_c, 1, 63, 70
3, 172576, Note_on_c, 1, 58, 70
3, 172576, Note_on_c, 1, 55, 70
3, 172576, Note_on_c, 1, 51, 70
3, 172608, Note_on_c, 1, 51, 0
3, 172608, Note_on_c, 1, 63, 0
3, 172608, Note_on_c, 1, 58, 0
3, 172608, Note_on_c, 1, 55, 0
3, 172624, Note_on_c, 1, 63, 70
3, 172624, Note_on_c, 1, 58, 70
3, 172624, Note_on_c, 1, 55, 70
3, 172624, Note_on_c, 1, 51, 70
3, 172656, Note_on_c, 1, 51, 0
3, 172656, Note_on_c, 1, 63, 0
3, 172656, Note_on_c, 1, 58, 0
3, 172656, Note_on_c, 1, 55, 0
3, 172672, Note_on_c, 1, 63, 70
3, 172672, Note_on_c, 1, 58, 70
3, 172672, Note_on_c, 1, 55, 70
3, 172672, Note_on_c, 1, 51, 70
3, 172704, Note_on_c, 1, 51, 0
3, 172704, Note_on_c, 1, 63, 0
3, 172704, Note_on_c, 1, 58, 0
3, 172704, Note_on_c, 1, 55, 0
3, 172720, Note_on_c, 1, 63, 70
3, 172720, Note_on_c, 1, 58, 70
3, 172720, Note_on_c, 1, 55, 70
3, 172720, Note_on_c, 1, 51, 70
3, 172752, Note_on_c, 1, 51, 0
3, 172752, Note_on_c, 1, 63, 0
3, 172752, Note_on_c, 1, 58, 0
3, 172752, Note_on_c, 1, 55, 0
3, 172768, Note_on_c, 1, 63, 70
3, 172768, Note_on_c, 1, 58, 70
3, 172768, Note_on_c, 1, 55, 70
3, 172768, Note_on_c, 1, 51, 70
3, 172800, Note_on_c, 1, 51, 0
3, 172800, Note_on_c, 1, 63, 0
3, 172800, Note_on_c, 1, 58, 0
3, 172800, Note_on_c, 1, 55, 0
3, 172816, Note_on_c, 1, 63, 70
3, 172816, Note_on_c, 1, 58, 70
3, 172816, Note_on_c, 1, 55, 70
3, 172816, Note_on_c, 1, 51, 70
3, 172848, Note_on_c, 1, 51, 0
3, 172848, Note_on_c, 1, 63, 0
3, 172848, Note_on_c, 1, 58, 0
3, 172848, Note_on_c, 1, 55, 0
3, 172864, Note_on_c, 1, 63, 70
3, 172864, Note_on_c, 1, 58, 70
3, 172864, Note_on_c, 1, 55, 70
3, 172864, Note_on_c, 1, 51, 70
3, 172896, Note_on_c, 1, 51, 0
3, 172896, Note_on_c, 1, 63, 0
3, 172896, Note_on_c, 1, 58, 0
3, 172896, Note_on_c, 1, 55, 0
3, 172912, Note_on_c, 1, 63, 70
3, 172912, Note_on_c, 1, 58, 70
3, 172912, Note_on_c, 1, 55, 70
3, 172912, Note_on_c, 1, 51, 70
3, 172944, Note_on_c, 1, 51, 0
3, 172944, Note_on_c, 1, 63, 0
3, 172944, Note_on_c, 1, 58, 0
3, 172944, Note_on_c, 1, 55, 0
3, 172960, Note_on_c, 1, 63, 65
3, 172960, Note_on_c, 1, 59, 65
3, 172960, Note_on_c, 1, 56, 65
3, 172960, Note_on_c, 1, 44, 65
3, 172992, Note_on_c, 1, 44, 0
3, 172992, Note_on_c, 1, 63, 0
3, 172992, Note_on_c, 1, 59, 0
3, 172992, Note_on_c, 1, 56, 0
3, 173008, Note_on_c, 1, 63, 65
3, 173008, Note_on_c, 1, 59, 65
3, 173008, Note_on_c, 1, 56, 65
3, 173008, Note_on_c, 1, 44, 65
3, 173040, Note_on_c, 1, 44, 0
3, 173040, Note_on_c, 1, 63, 0
3, 173040, Note_on_c, 1, 59, 0
3, 173040, Note_on_c, 1, 56, 0
3, 173056, Note_on_c, 1, 63, 65
3, 173056, Note_on_c, 1, 59, 65
3, 173056, Note_on_c, 1, 56, 65
3, 173056, Note_on_c, 1, 44, 65
3, 173088, Note_on_c, 1, 44, 0
3, 173088, Note_on_c, 1, 63, 0
3, 173088, Note_on_c, 1, 59, 0
3, 173088, Note_on_c, 1, 56, 0
3, 173104, Note_on_c, 1, 63, 65
3, 173104, Note_on_c, 1, 59, 65
3, 173104, Note_on_c, 1, 56, 65
3, 173104, Note_on_c, 1, 44, 65
3, 173136, Note_on_c, 1, 44, 0
3, 173136, Note_on_c, 1, 63, 0
3, 173136, Note_on_c, 1, 59, 0
3, 173136, Note_on_c, 1, 56, 0
3, 173152, Note_on_c, 1, 63, 65
3, 173152, Note_on_c, 1, 59, 65
3, 173152, Note_on_c, 1, 56, 65
3, 173152, Note_on_c, 1, 44, 65
3, 173184, Note_on_c, 1, 44, 0
3, 173184, Note_on_c, 1, 63, 0
3, 173184, Note_on_c, 1, 59, 0
3, 173184, Note_on_c, 1, 56, 0
3, 173200, Note_on_c, 1, 63, 65
3, 173200, Note_on_c, 1, 59, 65
3, 173200, Note_on_c, 1, 56, 65
3, 173200, Note_on_c, 1, 44, 65
3, 173232, Note_on_c, 1, 44, 0
3, 173232, Note_on_c, 1, 63, 0
3, 173232, Note_on_c, 1, 59, 0
3, 173232, Note_on_c, 1, 56, 0
3, 173248, Note_on_c, 1, 63, 65
3, 173248, Note_on_c, 1, 59, 65
3, 173248, Note_on_c, 1, 56, 65
3, 173248, Note_on_c, 1, 44, 65
3, 173280, Note_on_c, 1, 44, 0
3, 173280, Note_on_c, 1, 63, 0
3, 173280, Note_on_c, 1, 59, 0
3, 173280, Note_on_c, 1, 56, 0
3, 173296, Note_on_c, 1, 63, 65
3, 173296, Note_on_c, 1, 59, 65
3, 173296, Note_on_c, 1, 56, 65
3, 173296, Note_on_c, 1, 44, 65
3, 173328, Note_on_c, 1, 44, 0
3, 173328, Note_on_c, 1, 63, 0
3, 173328, Note_on_c, 1, 59, 0
3, 173328, Note_on_c, 1, 56, 0
3, 173344, Note_on_c, 1, 63, 65
3, 173344, Note_on_c, 1, 59, 65
3, 173344, Note_on_c, 1, 56, 65
3, 173344, Note_on_c, 1, 44, 65
3, 173376, Note_on_c, 1, 44, 0
3, 173376, Note_on_c, 1, 63, 0
3, 173376, Note_on_c, 1, 59, 0
3, 173376, Note_on_c, 1, 56, 0
3, 173392, Note_on_c, 1, 63, 65
3, 173392, Note_on_c, 1, 59, 65
3, 173392, Note_on_c, 1, 56, 65
3, 173392, Note_on_c, 1, 44, 65
3, 173424, Note_on_c, 1, 44, 0
3, 173424, Note_on_c, 1, 63, 0
3, 173424, Note_on_c, 1, 59, 0
3, 173424, Note_on_c, 1, 56, 0
3, 173440, Note_on_c, 1, 63, 65
3, 173440, Note_on_c, 1, 59, 65
3, 173440, Note_on_c, 1, 56, 65
3, 173440, Note_on_c, 1, 44, 65
3, 173472, Note_on_c, 1, 44, 0
3, 173472, Note_on_c, 1, 63, 0
3, 173472, Note_on_c, 1, 59, 0
3, 173472, Note_on_c, 1, 56, 0
3, 173488, Note_on_c, 1, 63, 65
3, 173488, Note_on_c, 1, 59, 65
3, 173488, Note_on_c, 1, 56, 65
3, 173488, Note_on_c, 1, 44, 65
3, 173520, Note_on_c, 1, 44, 0
3, 173520, Note_on_c, 1, 63, 0
3, 173520, Note_on_c, 1, 59, 0
3, 173520, Note_on_c, 1, 56, 0
3, 173536, Note_on_c, 1, 63, 65
3, 173536, Note_on_c, 1, 59, 65
3, 173536, Note_on_c, 1, 56, 65
3, 173536, Note_on_c, 1, 44, 65
3, 173568, Note_on_c, 1, 44, 0
3, 173568, Note_on_c, 1, 63, 0
3, 173568, Note_on_c, 1, 59, 0
3, 173568, Note_on_c, 1, 56, 0
3, 173584, Note_on_c, 1, 63, 65
3, 173584, Note_on_c, 1, 59, 65
3, 173584, Note_on_c, 1, 56, 65
3, 173584, Note_on_c, 1, 44, 65
3, 173616, Note_on_c, 1, 44, 0
3, 173616, Note_on_c, 1, 63, 0
3, 173616, Note_on_c, 1, 59, 0
3, 173616, Note_on_c, 1, 56, 0
3, 173632, Note_on_c, 1, 63, 65
3, 173632, Note_on_c, 1, 59, 65
3, 173632, Note_on_c, 1, 56, 65
3, 173632, Note_on_c, 1, 44, 65
3, 173664, Note_on_c, 1, 44, 0
3, 173664, Note_on_c, 1, 63, 0
3, 173664, Note_on_c, 1, 59, 0
3, 173664, Note_on_c, 1, 56, 0
3, 173680, Note_on_c, 1, 63, 65
3, 173680, Note_on_c, 1, 59, 65
3, 173680, Note_on_c, 1, 56, 65
3, 173680, Note_on_c, 1, 44, 65
3, 173712, Note_on_c, 1, 44, 0
3, 173712, Note_on_c, 1, 63, 0
3, 173712, Note_on_c, 1, 59, 0
3, 173712, Note_on_c, 1, 56, 0
3, 173728, Note_on_c, 1, 63, 65
3, 173728, Note_on_c, 1, 59, 65
3, 173728, Note_on_c, 1, 56, 65
3, 173728, Note_on_c, 1, 44, 65
3, 173760, Note_on_c, 1, 44, 0
3, 173760, Note_on_c, 1, 63, 0
3, 173760, Note_on_c, 1, 59, 0
3, 173760, Note_on_c, 1, 56, 0
3, 173776, Note_on_c, 1, 63, 65
3, 173776, Note_on_c, 1, 59, 65
3, 173776, Note_on_c, 1, 56, 65
3, 173776, Note_on_c, 1, 44, 65
3, 173808, Note_on_c, 1, 44, 0
3, 173808, Note_on_c, 1, 63, 0
3, 173808, Note_on_c, 1, 59, 0
3, 173808, Note_on_c, 1, 56, 0
3, 173824, Note_on_c, 1, 63, 65
3, 173824, Note_on_c, 1, 59, 65
3, 173824, Note_on_c, 1, 56, 65
3, 173824, Note_on_c, 1, 44, 65
3, 173856, Note_on_c, 1, 44, 0
3, 173856, Note_on_c, 1, 63, 0
3, 173856, Note_on_c, 1, 59, 0
3, 173856, Note_on_c, 1, 56, 0
3, 173872, Note_on_c, 1, 63, 65
3, 173872, Note_on_c, 1, 59, 65
3, 173872, Note_on_c, 1, 56, 65
3, 173872, Note_on_c, 1, 44, 65
3, 173904, Note_on_c, 1, 44, 0
3, 173904, Note_on_c, 1, 63, 0
3, 173904, Note_on_c, 1, 59, 0
3, 173904, Note_on_c, 1, 56, 0
3, 173920, Note_on_c, 1, 63, 65
3, 173920, Note_on_c, 1, 59, 65
3, 173920, Note_on_c, 1, 56, 65
3, 173920, Note_on_c, 1, 44, 65
3, 173952, Note_on_c, 1, 44, 0
3, 173952, Note_on_c, 1, 63, 0
3, 173952, Note_on_c, 1, 59, 0
3, 173952, Note_on_c, 1, 56, 0
3, 173968, Note_on_c, 1, 63, 65
3, 173968, Note_on_c, 1, 59, 65
3, 173968, Note_on_c, 1, 56, 65
3, 173968, Note_on_c, 1, 44, 65
3, 174000, Note_on_c, 1, 44, 0
3, 174000, Note_on_c, 1, 63, 0
3, 174000, Note_on_c, 1, 59, 0
3, 174000, Note_on_c, 1, 56, 0
3, 174016, Note_on_c, 1, 63, 65
3, 174016, Note_on_c, 1, 59, 65
3, 174016, Note_on_c, 1, 56, 65
3, 174016, Note_on_c, 1, 44, 65
3, 174048, Note_on_c, 1, 44, 0
3, 174048, Note_on_c, 1, 63, 0
3, 174048, Note_on_c, 1, 59, 0
3, 174048, Note_on_c, 1, 56, 0
3, 174064, Note_on_c, 1, 63, 65
3, 174064, Note_on_c, 1, 59, 65
3, 174064, Note_on_c, 1, 56, 65
3, 174064, Note_on_c, 1, 44, 65
3, 174096, Note_on_c, 1, 44, 0
3, 174096, Note_on_c, 1, 63, 0
3, 174096, Note_on_c, 1, 59, 0
3, 174096, Note_on_c, 1, 56, 0
3, 174112, Note_on_c, 1, 63, 65
3, 174112, Note_on_c, 1, 59, 65
3, 174112, Note_on_c, 1, 56, 65
3, 174112, Note_on_c, 1, 44, 65
3, 174144, Note_on_c, 1, 44, 0
3, 174144, Note_on_c, 1, 63, 0
3, 174144, Note_on_c, 1, 59, 0
3, 174144, Note_on_c, 1, 56, 0
3, 174160, Note_on_c, 1, 63, 65
3, 174160, Note_on_c, 1, 59, 65
3, 174160, Note_on_c, 1, 56, 65
3, 174160, Note_on_c, 1, 44, 65
3, 174192, Note_on_c, 1, 44, 0
3, 174192, Note_on_c, 1, 63, 0
3, 174192, Note_on_c, 1, 59, 0
3, 174192, Note_on_c, 1, 56, 0
3, 174208, Note_on_c, 1, 63, 65
3, 174208, Note_on_c, 1, 59, 65
3, 174208, Note_on_c, 1, 56, 65
3, 174208, Note_on_c, 1, 44, 65
3, 174240, Note_on_c, 1, 44, 0
3, 174240, Note_on_c, 1, 63, 0
3, 174240, Note_on_c, 1, 59, 0
3, 174240, Note_on_c, 1, 56, 0
3, 174256, Note_on_c, 1, 63, 65
3, 174256, Note_on_c, 1, 59, 65
3, 174256, Note_on_c, 1, 56, 65
3, 174256, Note_on_c, 1, 44, 65
3, 174288, Note_on_c, 1, 44, 0
3, 174288, Note_on_c, 1, 63, 0
3, 174288, Note_on_c, 1, 59, 0
3, 174288, Note_on_c, 1, 56, 0
3, 174304, Note_on_c, 1, 63, 65
3, 174304, Note_on_c, 1, 59, 65
3, 174304, Note_on_c, 1, 56, 65
3, 174304, Note_on_c, 1, 44, 65
3, 174336, Note_on_c, 1, 44, 0
3, 174336, Note_on_c, 1, 63, 0
3, 174336, Note_on_c, 1, 59, 0
3, 174336, Note_on_c, 1, 56, 0
3, 174352, Note_on_c, 1, 63, 65
3, 174352, Note_on_c, 1, 59, 65
3, 174352, Note_on_c, 1, 56, 65
3, 174352, Note_on_c, 1, 44, 65
3, 174384, Note_on_c, 1, 44, 0
3, 174384, Note_on_c, 1, 63, 0
3, 174384, Note_on_c, 1, 59, 0
3, 174384, Note_on_c, 1, 56, 0
3, 174400, Note_on_c, 1, 63, 65
3, 174400, Note_on_c, 1, 59, 65
3, 174400, Note_on_c, 1, 56, 65
3, 174400, Note_on_c, 1, 44, 65
3, 174432, Note_on_c, 1, 44, 0
3, 174432, Note_on_c, 1, 63, 0
3, 174432, Note_on_c, 1, 59, 0
3, 174432, Note_on_c, 1, 56, 0
3, 174448, Note_on_c, 1, 63, 65
3, 174448, Note_on_c, 1, 59, 65
3, 174448, Note_on_c, 1, 56, 65
3, 174448, Note_on_c, 1, 44, 65
3, 174480, Note_on_c, 1, 44, 0
3, 174480, Note_on_c, 1, 63, 0
3, 174480, Note_on_c, 1, 59, 0
3, 174480, Note_on_c, 1, 56, 0
3, 174496, Note_on_c, 1, 63, 65
3, 174496, Note_on_c, 1, 59, 65
3, 174496, Note_on_c, 1, 56, 65
3, 174496, Note_on_c, 1, 44, 65
3, 174528, Note_on_c, 1, 44, 0
3, 174528, Note_on_c, 1, 63, 0
3, 174528, Note_on_c, 1, 59, 0
3, 174528, Note_on_c, 1, 56, 0
3, 174544, Note_on_c, 1, 63, 65
3, 174544, Note_on_c, 1, 59, 65
3, 174544, Note_on_c, 1, 56, 65
3, 174544, Note_on_c, 1, 44, 65
3, 174576, Note_on_c, 1, 44, 0
3, 174576, Note_on_c, 1, 63, 0
3, 174576, Note_on_c, 1, 59, 0
3, 174576, Note_on_c, 1, 56, 0
3, 174592, Note_on_c, 1, 63, 65
3, 174592, Note_on_c, 1, 59, 65
3, 174592, Note_on_c, 1, 56, 65
3, 174592, Note_on_c, 1, 44, 65
3, 174624, Note_on_c, 1, 44, 0
3, 174624, Note_on_c, 1, 63, 0
3, 174624, Note_on_c, 1, 59, 0
3, 174624, Note_on_c, 1, 56, 0
3, 174640, Note_on_c, 1, 63, 65
3, 174640, Note_on_c, 1, 59, 65
3, 174640, Note_on_c, 1, 56, 65
3, 174640, Note_on_c, 1, 44, 65
3, 174672, Note_on_c, 1, 44, 0
3, 174672, Note_on_c, 1, 63, 0
3, 174672, Note_on_c, 1, 59, 0
3, 174672, Note_on_c, 1, 56, 0
3, 174688, Note_on_c, 1, 63, 65
3, 174688, Note_on_c, 1, 59, 65
3, 174688, Note_on_c, 1, 56, 65
3, 174688, Note_on_c, 1, 44, 65
3, 174720, Note_on_c, 1, 44, 0
3, 174720, Note_on_c, 1, 63, 0
3, 174720, Note_on_c, 1, 59, 0
3, 174720, Note_on_c, 1, 56, 0
3, 174736, Note_on_c, 1, 63, 65
3, 174736, Note_on_c, 1, 58, 65
3, 174736, Note_on_c, 1, 55, 65
3, 174736, Note_on_c, 1, 51, 65
3, 174768, Note_on_c, 1, 51, 0
3, 174768, Note_on_c, 1, 63, 0
3, 174768, Note_on_c, 1, 58, 0
3, 174768, Note_on_c, 1, 55, 0
3, 174784, Note_on_c, 1, 63, 65
3, 174784, Note_on_c, 1, 58, 65
3, 174784, Note_on_c, 1, 55, 65
3, 174784, Note_on_c, 1, 51, 65
3, 174816, Note_on_c, 1, 51, 0
3, 174816, Note_on_c, 1, 63, 0
3, 174816, Note_on_c, 1, 58, 0
3, 174816, Note_on_c, 1, 55, 0
3, 174832, Note_on_c, 1, 63, 65
3, 174832, Note_on_c, 1, 58, 65
3, 174832, Note_on_c, 1, 55, 65
3, 174832, Note_on_c, 1, 51, 65
3, 174864, Note_on_c, 1, 51, 0
3, 174864, Note_on_c, 1, 63, 0
3, 174864, Note_on_c, 1, 58, 0
3, 174864, Note_on_c, 1, 55, 0
3, 174880, Note_on_c, 1, 63, 65
3, 174880, Note_on_c, 1, 58, 65
3, 174880, Note_on_c, 1, 55, 65
3, 174880, Note_on_c, 1, 51, 65
3, 174912, Note_on_c, 1, 51, 0
3, 174912, Note_on_c, 1, 63, 0
3, 174912, Note_on_c, 1, 58, 0
3, 174912, Note_on_c, 1, 55, 0
3, 174928, Note_on_c, 1, 63, 65
3, 174928, Note_on_c, 1, 58, 65
3, 174928, Note_on_c, 1, 55, 65
3, 174928, Note_on_c, 1, 51, 65
3, 174960, Note_on_c, 1, 51, 0
3, 174960, Note_on_c, 1, 63, 0
3, 174960, Note_on_c, 1, 58, 0
3, 174960, Note_on_c, 1, 55, 0
3, 174976, Note_on_c, 1, 63, 65
3, 174976, Note_on_c, 1, 58, 65
3, 174976, Note_on_c, 1, 55, 65
3, 174976, Note_on_c, 1, 51, 65
3, 175008, Note_on_c, 1, 51, 0
3, 175008, Note_on_c, 1, 63, 0
3, 175008, Note_on_c, 1, 58, 0
3, 175008, Note_on_c, 1, 55, 0
3, 175024, Note_on_c, 1, 63, 65
3, 175024, Note_on_c, 1, 58, 65
3, 175024, Note_on_c, 1, 55, 65
3, 175024, Note_on_c, 1, 51, 65
3, 175056, Note_on_c, 1, 51, 0
3, 175056, Note_on_c, 1, 63, 0
3, 175056, Note_on_c, 1, 58, 0
3, 175056, Note_on_c, 1, 55, 0
3, 175072, Note_on_c, 1, 63, 65
3, 175072, Note_on_c, 1, 58, 65
3, 175072, Note_on_c, 1, 55, 65
3, 175072, Note_on_c, 1, 51, 65
3, 175104, Note_on_c, 1, 51, 0
3, 175104, Note_on_c, 1, 63, 0
3, 175104, Note_on_c, 1, 58, 0
3, 175104, Note_on_c, 1, 55, 0
3, 175120, Note_on_c, 1, 63, 65
3, 175120, Note_on_c, 1, 58, 65
3, 175120, Note_on_c, 1, 55, 65
3, 175120, Note_on_c, 1, 51, 65
3, 175152, Note_on_c, 1, 51, 0
3, 175152, Note_on_c, 1, 63, 0
3, 175152, Note_on_c, 1, 58, 0
3, 175152, Note_on_c, 1, 55, 0
3, 175168, Note_on_c, 1, 63, 65
3, 175168, Note_on_c, 1, 58, 65
3, 175168, Note_on_c, 1, 55, 65
3, 175168, Note_on_c, 1, 51, 65
3, 175200, Note_on_c, 1, 51, 0
3, 175200, Note_on_c, 1, 63, 0
3, 175200, Note_on_c, 1, 58, 0
3, 175200, Note_on_c, 1, 55, 0
3, 175216, Note_on_c, 1, 63, 65
3, 175216, Note_on_c, 1, 58, 65
3, 175216, Note_on_c, 1, 55, 65
3, 175216, Note_on_c, 1, 51, 65
3, 175248, Note_on_c, 1, 51, 0
3, 175248, Note_on_c, 1, 63, 0
3, 175248, Note_on_c, 1, 58, 0
3, 175248, Note_on_c, 1, 55, 0
3, 175264, Note_on_c, 1, 63, 65
3, 175264, Note_on_c, 1, 58, 65
3, 175264, Note_on_c, 1, 55, 65
3, 175264, Note_on_c, 1, 51, 65
3, 175296, Note_on_c, 1, 51, 0
3, 175296, Note_on_c, 1, 63, 0
3, 175296, Note_on_c, 1, 58, 0
3, 175296, Note_on_c, 1, 55, 0
3, 175312, Note_on_c, 1, 63, 65
3, 175312, Note_on_c, 1, 58, 65
3, 175312, Note_on_c, 1, 55, 65
3, 175312, Note_on_c, 1, 51, 65
3, 175344, Note_on_c, 1, 51, 0
3, 175344, Note_on_c, 1, 63, 0
3, 175344, Note_on_c, 1, 58, 0
3, 175344, Note_on_c, 1, 55, 0
3, 175360, Note_on_c, 1, 63, 65
3, 175360, Note_on_c, 1, 58, 65
3, 175360, Note_on_c, 1, 55, 65
3, 175360, Note_on_c, 1, 51, 65
3, 175392, Note_on_c, 1, 51, 0
3, 175392, Note_on_c, 1, 63, 0
3, 175392, Note_on_c, 1, 58, 0
3, 175392, Note_on_c, 1, 55, 0
3, 175408, Note_on_c, 1, 63, 65
3, 175408, Note_on_c, 1, 58, 65
3, 175408, Note_on_c, 1, 55, 65
3, 175408, Note_on_c, 1, 51, 65
3, 175440, Note_on_c, 1, 51, 0
3, 175440, Note_on_c, 1, 63, 0
3, 175440, Note_on_c, 1, 58, 0
3, 175440, Note_on_c, 1, 55, 0
3, 175456, Note_on_c, 1, 63, 65
3, 175456, Note_on_c, 1, 58, 65
3, 175456, Note_on_c, 1, 55, 65
3, 175456, Note_on_c, 1, 51, 65
3, 175488, Note_on_c, 1, 51, 0
3, 175488, Note_on_c, 1, 63, 0
3, 175488, Note_on_c, 1, 58, 0
3, 175488, Note_on_c, 1, 55, 0
3, 175504, Note_on_c, 1, 63, 65
3, 175504, Note_on_c, 1, 58, 65
3, 175504, Note_on_c, 1, 55, 65
3, 175504, Note_on_c, 1, 51, 65
3, 175536, Note_on_c, 1, 51, 0
3, 175536, Note_on_c, 1, 63, 0
3, 175536, Note_on_c, 1, 58, 0
3, 175536, Note_on_c, 1, 55, 0
3, 175552, Note_on_c, 1, 63, 65
3, 175552, Note_on_c, 1, 58, 65
3, 175552, Note_on_c, 1, 55, 65
3, 175552, Note_on_c, 1, 51, 65
3, 175584, Note_on_c, 1, 51, 0
3, 175584, Note_on_c, 1, 63, 0
3, 175584, Note_on_c, 1, 58, 0
3, 175584, Note_on_c, 1, 55, 0
3, 175600, Note_on_c, 1, 63, 65
3, 175600, Note_on_c, 1, 58, 65
3, 175600, Note_on_c, 1, 55, 65
3, 175600, Note_on_c, 1, 51, 65
3, 175632, Note_on_c, 1, 51, 0
3, 175632, Note_on_c, 1, 63, 0
3, 175632, Note_on_c, 1, 58, 0
3, 175632, Note_on_c, 1, 55, 0
3, 175648, Note_on_c, 1, 63, 65
3, 175648, Note_on_c, 1, 58, 65
3, 175648, Note_on_c, 1, 55, 65
3, 175648, Note_on_c, 1, 51, 65
3, 175680, Note_on_c, 1, 51, 0
3, 175680, Note_on_c, 1, 63, 0
3, 175680, Note_on_c, 1, 58, 0
3, 175680, Note_on_c, 1, 55, 0
3, 175696, Note_on_c, 1, 63, 65
3, 175696, Note_on_c, 1, 58, 65
3, 175696, Note_on_c, 1, 55, 65
3, 175696, Note_on_c, 1, 51, 65
3, 175728, Note_on_c, 1, 51, 0
3, 175728, Note_on_c, 1, 63, 0
3, 175728, Note_on_c, 1, 58, 0
3, 175728, Note_on_c, 1, 55, 0
3, 175744, Note_on_c, 1, 63, 65
3, 175744, Note_on_c, 1, 58, 65
3, 175744, Note_on_c, 1, 55, 65
3, 175744, Note_on_c, 1, 51, 65
3, 175776, Note_on_c, 1, 51, 0
3, 175776, Note_on_c, 1, 63, 0
3, 175776, Note_on_c, 1, 58, 0
3, 175776, Note_on_c, 1, 55, 0
3, 175840, Note_on_c, 1, 63, 65
3, 175840, Note_on_c, 1, 58, 65
3, 175840, Note_on_c, 1, 55, 65
3, 175840, Note_on_c, 1, 51, 65
3, 175872, Note_on_c, 1, 51, 0
3, 175872, Note_on_c, 1, 63, 0
3, 175872, Note_on_c, 1, 58, 0
3, 175872, Note_on_c, 1, 55, 0
3, 176032, Note_on_c, 1, 63, 65
3, 176032, Note_on_c, 1, 58, 65
3, 176032, Note_on_c, 1, 55, 65
3, 176032, Note_on_c, 1, 51, 65
3, 176064, Note_on_c, 1, 51, 0
3, 176064, Note_on_c, 1, 63, 0
3, 176064, Note_on_c, 1, 58, 0
3, 176064, Note_on_c, 1, 55, 0
3, 176128, Note_on_c, 1, 63, 65
3, 176128, Note_on_c, 1, 58, 65
3, 176128, Note_on_c, 1, 55, 65
3, 176128, Note_on_c, 1, 51, 65
3, 176160, Note_on_c, 1, 51, 0
3, 176160, Note_on_c, 1, 63, 0
3, 176160, Note_on_c, 1, 58, 0
3, 176160, Note_on_c, 1, 55, 0
3, 176224, Note_on_c, 1, 63, 65
3, 176224, Note_on_c, 1, 58, 65
3, 176224, Note_on_c, 1, 55, 65
3, 176224, Note_on_c, 1, 51, 65
3, 176256, Note_on_c, 1, 51, 0
3, 176256, Note_on_c, 1, 63, 0
3, 176256, Note_on_c, 1, 58, 0
3, 176256, Note_on_c, 1, 55, 0
3, 176320, Note_on_c, 1, 63, 65
3, 176320, Note_on_c, 1, 58, 65
3, 176320, Note_on_c, 1, 55, 65
3, 176320, Note_on_c, 1, 51, 65
3, 176352, Note_on_c, 1, 51, 0
3, 176352, Note_on_c, 1, 63, 0
3, 176352, Note_on_c, 1, 58, 0
3, 176352, Note_on_c, 1, 55, 0
3, 176416, Note_on_c, 1, 63, 65
3, 176416, Note_on_c, 1, 58, 65
3, 176416, Note_on_c, 1, 55, 65
3, 176416, Note_on_c, 1, 51, 65
3, 176448, Note_on_c, 1, 51, 0
3, 176448, Note_on_c, 1, 63, 0
3, 176448, Note_on_c, 1, 58, 0
3, 176448, Note_on_c, 1, 55, 0
3, 176512, Note_on_c, 1, 63, 65
3, 176512, Note_on_c, 1, 58, 65
3, 176512, Note_on_c, 1, 55, 65
3, 176512, Note_on_c, 1, 51, 65
3, 176544, Note_on_c, 1, 51, 0
3, 176544, Note_on_c, 1, 63, 0
3, 176544, Note_on_c, 1, 58, 0
3, 176544, Note_on_c, 1, 55, 0
3, 176608, Note_on_c, 1, 63, 65
3, 176608, Note_on_c, 1, 58, 65
3, 176608, Note_on_c, 1, 55, 65
3, 176608, Note_on_c, 1, 51, 65
3, 176640, Note_on_c, 1, 51, 0
3, 176640, Note_on_c, 1, 63, 0
3, 176640, Note_on_c, 1, 58, 0
3, 176640, Note_on_c, 1, 55, 0
3, 176712, Note_on_c, 1, 63, 65
3, 176712, Note_on_c, 1, 58, 65
3, 176712, Note_on_c, 1, 55, 65
3, 176712, Note_on_c, 1, 51, 65
3, 176744, Note_on_c, 1, 51, 0
3, 176744, Note_on_c, 1, 63, 0
3, 176744, Note_on_c, 1, 58, 0
3, 176744, Note_on_c, 1, 55, 0
3, 176788, Note_on_c, 1, 65, 75
3, 176788, Note_on_c, 1, 58, 75
3, 176788, Note_on_c, 1, 56, 75
3, 176788, Note_on_c, 1, 51, 75
3, 176820, Note_on_c, 1, 51, 0
3, 176820, Note_on_c, 1, 65, 0
3, 176820, Note_on_c, 1, 58, 0
3, 176820, Note_on_c, 1, 56, 0
3, 176884, Note_on_c, 1, 65, 75
3, 176884, Note_on_c, 1, 58, 75
3, 176884, Note_on_c, 1, 56, 75
3, 176884, Note_on_c, 1, 51, 75
3, 176916, Note_on_c, 1, 51, 0
3, 176916, Note_on_c, 1, 65, 0
3, 176916, Note_on_c, 1, 58, 0
3, 176916, Note_on_c, 1, 56, 0
3, 176980, Note_on_c, 1, 65, 75
3, 176980, Note_on_c, 1, 58, 75
3, 176980, Note_on_c, 1, 56, 75
3, 176980, Note_on_c, 1, 51, 75
3, 177012, Note_on_c, 1, 51, 0
3, 177012, Note_on_c, 1, 65, 0
3, 177012, Note_on_c, 1, 58, 0
3, 177012, Note_on_c, 1, 56, 0
3, 177076, Note_on_c, 1, 65, 75
3, 177076, Note_on_c, 1, 58, 75
3, 177076, Note_on_c, 1, 56, 75
3, 177076, Note_on_c, 1, 51, 75
3, 177108, Note_on_c, 1, 51, 0
3, 177108, Note_on_c, 1, 65, 0
3, 177108, Note_on_c, 1, 58, 0
3, 177108, Note_on_c, 1, 56, 0
3, 177172, Note_on_c, 1, 65, 75
3, 177172, Note_on_c, 1, 58, 75
3, 177172, Note_on_c, 1, 56, 75
3, 177172, Note_on_c, 1, 51, 75
3, 177204, Note_on_c, 1, 51, 0
3, 177204, Note_on_c, 1, 65, 0
3, 177204, Note_on_c, 1, 58, 0
3, 177204, Note_on_c, 1, 56, 0
3, 177268, Note_on_c, 1, 65, 75
3, 177268, Note_on_c, 1, 58, 75
3, 177268, Note_on_c, 1, 56, 75
3, 177268, Note_on_c, 1, 51, 75
3, 177300, Note_on_c, 1, 51, 0
3, 177300, Note_on_c, 1, 65, 0
3, 177300, Note_on_c, 1, 58, 0
3, 177300, Note_on_c, 1, 56, 0
3, 177364, Note_on_c, 1, 65, 75
3, 177364, Note_on_c, 1, 58, 75
3, 177364, Note_on_c, 1, 56, 75
3, 177364, Note_on_c, 1, 51, 75
3, 177396, Note_on_c, 1, 51, 0
3, 177396, Note_on_c, 1, 65, 0
3, 177396, Note_on_c, 1, 58, 0
3, 177396, Note_on_c, 1, 56, 0
3, 177460, Note_on_c, 1, 58, 75
3, 177460, Note_on_c, 1, 56, 75
3, 177460, Note_on_c, 1, 51, 75
3, 177492, Note_on_c, 1, 51, 0
3, 177492, Note_on_c, 1, 56, 0
3, 177492, Note_on_c, 1, 58, 0
3, 177556, Note_on_c, 1, 65, 75
3, 177556, Note_on_c, 1, 58, 75
3, 177556, Note_on_c, 1, 56, 75
3, 177556, Note_on_c, 1, 51, 75
3, 177588, Note_on_c, 1, 51, 0
3, 177588, Note_on_c, 1, 65, 0
3, 177588, Note_on_c, 1, 58, 0
3, 177588, Note_on_c, 1, 56, 0
3, 177652, Note_on_c, 1, 65, 75
3, 177652, Note_on_c, 1, 58, 75
3, 177652, Note_on_c, 1, 56, 75
3, 177652, Note_on_c, 1, 51, 75
3, 177684, Note_on_c, 1, 51, 0
3, 177684, Note_on_c, 1, 65, 0
3, 177684, Note_on_c, 1, 58, 0
3, 177684, Note_on_c, 1, 56, 0
3, 177748, Note_on_c, 1, 65, 75
3, 177748, Note_on_c, 1, 58, 75
3, 177748, Note_on_c, 1, 56, 75
3, 177748, Note_on_c, 1, 51, 75
3, 177780, Note_on_c, 1, 51, 0
3, 177780, Note_on_c, 1, 65, 0
3, 177780, Note_on_c, 1, 58, 0
3, 177780, Note_on_c, 1, 56, 0
3, 177844, Note_on_c, 1, 65, 75
3, 177844, Note_on_c, 1, 58, 75
3, 177844, Note_on_c, 1, 56, 75
3, 177844, Note_on_c, 1, 51, 75
3, 177876, Note_on_c, 1, 51, 0
3, 177876, Note_on_c, 1, 65, 0
3, 177876, Note_on_c, 1, 58, 0
3, 177876, Note_on_c, 1, 56, 0
3, 177940, Note_on_c, 1, 65, 75
3, 177940, Note_on_c, 1, 58, 75
3, 177940, Note_on_c, 1, 56, 75
3, 177940, Note_on_c, 1, 51, 75
3, 177972, Note_on_c, 1, 51, 0
3, 177972, Note_on_c, 1, 65, 0
3, 177972, Note_on_c, 1, 58, 0
3, 177972, Note_on_c, 1, 56, 0
3, 178036, Note_on_c, 1, 65, 75
3, 178036, Note_on_c, 1, 58, 75
3, 178036, Note_on_c, 1, 56, 75
3, 178036, Note_on_c, 1, 51, 75
3, 178068, Note_on_c, 1, 51, 0
3, 178068, Note_on_c, 1, 65, 0
3, 178068, Note_on_c, 1, 58, 0
3, 178068, Note_on_c, 1, 56, 0
3, 178132, Note_on_c, 1, 65, 75
3, 178132, Note_on_c, 1, 58, 75
3, 178132, Note_on_c, 1, 56, 75
3, 178132, Note_on_c, 1, 51, 75
3, 178164, Note_on_c, 1, 51, 0
3, 178164, Note_on_c, 1, 65, 0
3, 178164, Note_on_c, 1, 58, 0
3, 178164, Note_on_c, 1, 56, 0
3, 178228, Note_on_c, 1, 65, 75
3, 178228, Note_on_c, 1, 58, 75
3, 178228, Note_on_c, 1, 56, 75
3, 178228, Note_on_c, 1, 51, 75
3, 178260, Note_on_c, 1, 51, 0
3, 178260, Note_on_c, 1, 65, 0
3, 178260, Note_on_c, 1, 58, 0
3, 178260, Note_on_c, 1, 56, 0
3, 178324, Note_on_c, 1, 65, 75
3, 178324, Note_on_c, 1, 58, 75
3, 178324, Note_on_c, 1, 56, 75
3, 178324, Note_on_c, 1, 51, 75
3, 178356, Note_on_c, 1, 51, 0
3, 178356, Note_on_c, 1, 65, 0
3, 178356, Note_on_c, 1, 58, 0
3, 178356, Note_on_c, 1, 56, 0
3, 178420, Note_on_c, 1, 65, 75
3, 178420, Note_on_c, 1, 58, 75
3, 178420, Note_on_c, 1, 56, 75
3, 178420, Note_on_c, 1, 51, 75
3, 178452, Note_on_c, 1, 51, 0
3, 178452, Note_on_c, 1, 65, 0
3, 178452, Note_on_c, 1, 58, 0
3, 178452, Note_on_c, 1, 56, 0
3, 178500, Note_on_c, 1, 61, 80
3, 178500, Note_on_c, 1, 58, 80
3, 178500, Note_on_c, 1, 67, 80
3, 178500, Note_on_c, 1, 51, 80
3, 178532, Note_on_c, 1, 51, 0
3, 178532, Note_on_c, 1, 61, 0
3, 178532, Note_on_c, 1, 58, 0
3, 178532, Note_on_c, 1, 67, 0
3, 178596, Note_on_c, 1, 61, 80
3, 178596, Note_on_c, 1, 58, 80
3, 178596, Note_on_c, 1, 67, 80
3, 178596, Note_on_c, 1, 51, 80
3, 178628, Note_on_c, 1, 51, 0
3, 178628, Note_on_c, 1, 61, 0
3, 178628, Note_on_c, 1, 58, 0
3, 178628, Note_on_c, 1, 67, 0
3, 178692, Note_on_c, 1, 61, 80
3, 178692, Note_on_c, 1, 58, 80
3, 178692, Note_on_c, 1, 67, 80
3, 178692, Note_on_c, 1, 51, 80
3, 178724, Note_on_c, 1, 51, 0
3, 178724, Note_on_c, 1, 61, 0
3, 178724, Note_on_c, 1, 58, 0
3, 178724, Note_on_c, 1, 67, 0
3, 178788, Note_on_c, 1, 61, 80
3, 178788, Note_on_c, 1, 58, 80
3, 178788, Note_on_c, 1, 67, 80
3, 178788, Note_on_c, 1, 51, 80
3, 178820, Note_on_c, 1, 51, 0
3, 178820, Note_on_c, 1, 61, 0
3, 178820, Note_on_c, 1, 58, 0
3, 178820, Note_on_c, 1, 67, 0
3, 178884, Note_on_c, 1, 61, 80
3, 178884, Note_on_c, 1, 58, 80
3, 178884, Note_on_c, 1, 67, 80
3, 178884, Note_on_c, 1, 51, 80
3, 178916, Note_on_c, 1, 51, 0
3, 178916, Note_on_c, 1, 61, 0
3, 178916, Note_on_c, 1, 58, 0
3, 178916, Note_on_c, 1, 67, 0
3, 178980, Note_on_c, 1, 61, 80
3, 178980, Note_on_c, 1, 58, 80
3, 178980, Note_on_c, 1, 67, 80
3, 178980, Note_on_c, 1, 51, 80
3, 179012, Note_on_c, 1, 51, 0
3, 179012, Note_on_c, 1, 61, 0
3, 179012, Note_on_c, 1, 58, 0
3, 179012, Note_on_c, 1, 67, 0
3, 179076, Note_on_c, 1, 61, 80
3, 179076, Note_on_c, 1, 58, 80
3, 179076, Note_on_c, 1, 67, 80
3, 179076, Note_on_c, 1, 51, 80
3, 179108, Note_on_c, 1, 51, 0
3, 179108, Note_on_c, 1, 61, 0
3, 179108, Note_on_c, 1, 58, 0
3, 179108, Note_on_c, 1, 67, 0
3, 179172, Note_on_c, 1, 61, 80
3, 179172, Note_on_c, 1, 58, 80
3, 179172, Note_on_c, 1, 67, 80
3, 179172, Note_on_c, 1, 51, 80
3, 179204, Note_on_c, 1, 51, 0
3, 179204, Note_on_c, 1, 61, 0
3, 179204, Note_on_c, 1, 58, 0
3, 179204, Note_on_c, 1, 67, 0
3, 179268, Note_on_c, 1, 61, 80
3, 179268, Note_on_c, 1, 58, 80
3, 179268, Note_on_c, 1, 67, 80
3, 179268, Note_on_c, 1, 51, 80
3, 179300, Note_on_c, 1, 51, 0
3, 179300, Note_on_c, 1, 61, 0
3, 179300, Note_on_c, 1, 58, 0
3, 179300, Note_on_c, 1, 67, 0
3, 179364, Note_on_c, 1, 61, 80
3, 179364, Note_on_c, 1, 58, 80
3, 179364, Note_on_c, 1, 67, 80
3, 179364, Note_on_c, 1, 51, 80
3, 179396, Note_on_c, 1, 51, 0
3, 179396, Note_on_c, 1, 61, 0
3, 179396, Note_on_c, 1, 58, 0
3, 179396, Note_on_c, 1, 67, 0
3, 179460, Note_on_c, 1, 61, 80
3, 179460, Note_on_c, 1, 58, 80
3, 179460, Note_on_c, 1, 67, 80
3, 179460, Note_on_c, 1, 51, 80
3, 179492, Note_on_c, 1, 51, 0
3, 179492, Note_on_c, 1, 61, 0
3, 179492, Note_on_c, 1, 58, 0
3, 179492, Note_on_c, 1, 67, 0
3, 179556, Note_on_c, 1, 61, 80
3, 179556, Note_on_c, 1, 58, 80
3, 179556, Note_on_c, 1, 67, 80
3, 179556, Note_on_c, 1, 51, 80
3, 179588, Note_on_c, 1, 51, 0
3, 179588, Note_on_c, 1, 61, 0
3, 179588, Note_on_c, 1, 58, 0
3, 179588, Note_on_c, 1, 67, 0
3, 179652, Note_on_c, 1, 61, 80
3, 179652, Note_on_c, 1, 58, 80
3, 179652, Note_on_c, 1, 67, 80
3, 179652, Note_on_c, 1, 51, 80
3, 179684, Note_on_c, 1, 51, 0
3, 179684, Note_on_c, 1, 61, 0
3, 179684, Note_on_c, 1, 58, 0
3, 179684, Note_on_c, 1, 67, 0
3, 179748, Note_on_c, 1, 61, 80
3, 179748, Note_on_c, 1, 58, 80
3, 179748, Note_on_c, 1, 67, 80
3, 179748, Note_on_c, 1, 51, 80
3, 179780, Note_on_c, 1, 51, 0
3, 179780, Note_on_c, 1, 61, 0
3, 179780, Note_on_c, 1, 58, 0
3, 179780, Note_on_c, 1, 67, 0
3, 179844, Note_on_c, 1, 61, 80
3, 179844, Note_on_c, 1, 58, 80
3, 179844, Note_on_c, 1, 67, 80
3, 179844, Note_on_c, 1, 51, 80
3, 179876, Note_on_c, 1, 51, 0
3, 179876, Note_on_c, 1, 61, 0
3, 179876, Note_on_c, 1, 58, 0
3, 179876, Note_on_c, 1, 67, 0
3, 179940, Note_on_c, 1, 61, 80
3, 179940, Note_on_c, 1, 58, 80
3, 179940, Note_on_c, 1, 67, 80
3, 179940, Note_on_c, 1, 51, 80
3, 179972, Note_on_c, 1, 51, 0
3, 179972, Note_on_c, 1, 61, 0
3, 179972, Note_on_c, 1, 58, 0
3, 179972, Note_on_c, 1, 67, 0
3, 193124, Control_c, 1, 11, 90
3, 193136, Note_on_c, 1, 60, 55
3, 193136, Note_on_c, 1, 56, 55
3, 194160, Note_on_c, 1, 56, 0
3, 194160, Note_on_c, 1, 60, 0
3, 195564, Note_on_c, 1, 65, 57
3, 195564, Note_on_c, 1, 56, 55
3, 196588, Note_on_c, 1, 56, 0
3, 196588, Note_on_c, 1, 65, 0
3, 196640, Note_on_c, 1, 65, 57
3, 196640, Note_on_c, 1, 61, 55
3, 198360, Note_on_c, 1, 57, 55
3, 198360, Note_on_c, 1, 66, 59
3, 198432, Note_on_c, 1, 61, 0
3, 198432, Note_on_c, 1, 65, 0
3, 201304, Note_on_c, 1, 57, 0
3, 201304, Note_on_c, 1, 66, 0
3, 201664, Note_on_c, 1, 65, 50
3, 201664, Note_on_c, 1, 58, 50
3, 202368, Note_on_c, 1, 58, 0
3, 202368, Note_on_c, 1, 65, 0
3, 203256, Note_on_c, 1, 68, 53
3, 203256, Note_on_c, 1, 58, 50
3, 204608, Note_on_c, 1, 58, 0
3, 204664, Note_on_c, 1, 68, 0
3, 204716, Note_on_c, 1, 58, 50
3, 205440, Note_on_c, 1, 67, 55
3, 205844, Note_on_c, 1, 58, 0
3, 206280, Note_on_c, 1, 56, 52
3, 206464, Note_on_c, 1, 67, 0
3, 207060, Note_on_c, 1, 65, 52
3, 207512, Note_on_c, 1, 56, 0
3, 207860, Note_on_c, 1, 65, 0
3, 207936, Note_on_c, 1, 55, 52
3, 208812, Note_on_c, 1, 55, 0
3, 208832, Note_on_c, 1, 63, 52
3, 209812, Note_on_c, 1, 56, 52
3, 209812, Note_on_c, 1, 61, 52
3, 209896, Note_on_c, 1, 63, 0
3, 210804, Note_on_c, 1, 56, 0
3, 210816, Note_on_c, 1, 58, 52
3, 212224, Note_on_c, 1, 58, 0
3, 212340, Note_on_c, 1, 61, 0
3, 212664, Note_on_c, 1, 60, 52
3, 213304, Note_on_c, 1, 60, 0
3, 214496, Note_on_c, 1, 58, 55
3, 214496, Note_on_c, 1, 61, 55
3, 216524, Note_on_c, 1, 61, 0
3, 216524, Note_on_c, 1, 58, 0
3, 216664, Note_on_c, 1, 58, 50
3, 217288, Note_on_c, 1, 58, 0
3, 218972, Note_on_c, 1, 63, 50
3, 218972, Note_on_c, 1, 58, 50
3, 219612, Note_on_c, 1, 58, 0
3, 219832, Note_on_c, 1, 60, 50
3, 221192, Note_on_c, 1, 60, 0
3, 221268, Note_on_c, 1, 61, 50
3, 222656, Note_on_c, 1, 60, 50
3, 222676, Note_on_c, 1, 61, 0
3, 222712, Note_on_c, 1, 63, 0
3, 223296, Note_on_c, 1, 60, 0
3, 223332, Note_on_c, 1, 61, 50
3, 225124, Note_on_c, 1, 61, 0
3, 225392, Note_on_c, 1, 60, 50
3, 226752, Note_on_c, 1, 58, 50
3, 226800, Note_on_c, 1, 60, 0
3, 227392, Note_on_c, 1, 58, 0
3, 227504, Note_on_c, 1, 61, 50
3, 228144, Note_on_c, 1, 61, 0
3, 228200, Note_on_c, 1, 60, 50
3, 228840, Note_on_c, 1, 60, 0
3, 228864, Note_on_c, 1, 58, 50
3, 229100, Note_on_c, 1, 58, 0
3, 229208, Note_on_c, 1, 60, 50
3, 229448, Note_on_c, 1, 60, 0
3, 229560, Note_on_c, 1, 58, 50
3, 230328, Note_on_c, 1, 58, 0
3, 231044, Note_on_c, 1, 65, 58
3, 231044, Note_on_c, 1, 56, 58
3, 232004, Note_on_c, 1, 56, 0
3, 232004, Note_on_c, 1, 65, 0
3, 232496, Note_on_c, 1, 70, 60
3, 232496, Note_on_c, 1, 61, 60
3, 233184, Note_on_c, 1, 61, 0
3, 233184, Note_on_c, 1, 70, 0
3, 233232, Note_on_c, 1, 60, 60
3, 233232, Note_on_c, 1, 68, 60
3, 234640, Note_on_c, 1, 68, 0
3, 234640, Note_on_c, 1, 60, 0
3, 234656, Note_on_c, 1, 58, 60
3, 234656, Note_on_c, 1, 63, 60
3, 235296, Note_on_c, 1, 58, 0
3, 235616, Note_on_c, 1, 60, 60
3, 236220, Note_on_c, 1, 63, 0
3, 236256, Note_on_c, 1, 60, 0
3, 236420, Note_on_c, 1, 65, 64
3, 236420, Note_on_c, 1, 59, 64
3, 237212, Note_on_c, 1, 65, 0
3, 237220, Note_on_c, 1, 59, 0
3, 237280, Note_on_c, 1, 60, 64
3, 237280, Note_on_c, 1, 63, 64
3, 240224, Note_on_c, 1, 63, 0
3, 240224, Note_on_c, 1, 60, 0
3, 240464, Note_on_c, 1, 61, 64
3, 240464, Note_on_c, 1, 67, 64
3, 244060, Note_on_c, 1, 67, 0
3, 244060, Note_on_c, 1, 61, 0
3, 244328, Note_on_c, 1, 68, 60
3, 244328, Note_on_c, 1, 60, 60
3, 244968, Note_on_c, 1, 60, 0
3, 244968, Note_on_c, 1, 68, 0
3, 244992, Note_on_c, 1, 68, 48
3, 245540, Note_on_c, 1, 65, 47
3, 245632, Note_on_c, 1, 68, 0
3, 246032, Note_on_c, 1, 63, 46
3, 246068, Note_on_c, 1, 65, 0
3, 246268, Note_on_c, 1, 65, 48
3, 246284, Note_on_c, 1, 63, 0
3, 246548, Note_on_c, 1, 65, 0
3, 246552, Note_on_c, 1, 62, 55
3, 247136, Note_on_c, 1, 62, 0
3, 249228, Note_on_c, 1, 60, 49
3, 249784, Note_on_c, 1, 58, 41
3, 249800, Note_on_c, 1, 60, 0
3, 250300, Note_on_c, 1, 60, 45
3, 250348, Note_on_c, 1, 58, 0
3, 250560, Note_on_c, 1, 61, 49
3, 250624, Note_on_c, 1, 60, 0
3, 250832, Note_on_c, 1, 63, 44
3, 250888, Note_on_c, 1, 61, 0
3, 251456, Note_on_c, 1, 63, 0
3, 254328, Note_on_c, 1, 68, 38
3, 254328, Note_on_c, 1, 60, 36
3, 254964, Note_on_c, 1, 60, 0
3, 254964, Note_on_c, 1, 68, 0
3, 255016, Note_on_c, 1, 68, 47
3, 255016, Note_on_c, 1, 60, 36
3, 255612, Note_on_c, 1, 68, 0
3, 255652, Note_on_c, 1, 60, 0
3, 255688, Note_on_c, 1, 68, 43
3, 255688, Note_on_c, 1, 60, 36
3, 261356, Note_on_c, 1, 60, 0
3, 261372, Note_on_c, 1, 68, 0
3, 261372, End_track
4, 0, Start_track
4, 0, MIDI_port, 0
4, 0, Title_t, "viola"
4, 0, Control_c, 2, 0, 0
4, 0, Control_c, 2, 32, 0
4, 0, Program_c, 2, 49
4, 0, Control_c, 2, 7, 80
4, 0, Control_c, 2, 91, 127
4, 16, Control_c, 2, 7, 60
4, 56, Control_c, 2, 91, 127
4, 616, Note_on_c, 2, 56, 52
4, 1164, Note_on_c, 2, 53, 49
4, 1256, Note_on_c, 2, 56, 0
4, 1656, Note_on_c, 2, 51, 48
4, 1692, Note_on_c, 2, 53, 0
4, 1892, Note_on_c, 2, 53, 51
4, 1908, Note_on_c, 2, 51, 0
4, 2172, Note_on_c, 2, 53, 0
4, 2176, Note_on_c, 2, 50, 58
4, 2760, Note_on_c, 2, 50, 0
4, 4852, Note_on_c, 2, 48, 52
4, 5408, Note_on_c, 2, 46, 43
4, 5424, Note_on_c, 2, 48, 0
4, 5924, Note_on_c, 2, 48, 46
4, 5972, Note_on_c, 2, 46, 0
4, 6184, Note_on_c, 2, 49, 51
4, 6256, Note_on_c, 2, 48, 0
4, 6456, Note_on_c, 2, 51, 46
4, 6508, Note_on_c, 2, 49, 0
4, 7064, Note_on_c, 2, 51, 0
4, 9952, Note_on_c, 2, 51, 39
4, 10588, Note_on_c, 2, 51, 0
4, 10640, Note_on_c, 2, 51, 49
4, 11236, Note_on_c, 2, 51, 0
4, 11312, Note_on_c, 2, 51, 45
4, 12772, Note_on_c, 2, 51, 0
4, 18004, Note_on_c, 2, 53, 44
4, 19264, Note_on_c, 2, 60, 44
4, 19540, Note_on_c, 2, 53, 0
4, 20032, Note_on_c, 2, 60, 0
4, 20488, Note_on_c, 2, 58, 38
4, 21256, Note_on_c, 2, 58, 0
4, 21616, Note_on_c, 2, 63, 40
4, 22384, Note_on_c, 2, 63, 0
4, 22788, Note_on_c, 2, 61, 38
4, 25092, Note_on_c, 2, 61, 0
4, 26588, Note_on_c, 2, 60, 38
4, 27356, Note_on_c, 2, 60, 0
4, 27848, Note_on_c, 2, 58, 37
4, 28616, Note_on_c, 2, 58, 0
4, 29732, Note_on_c, 2, 51, 37
4, 30500, Note_on_c, 2, 51, 0
4, 30592, Note_on_c, 2, 51, 37
4, 31360, Note_on_c, 2, 51, 0
4, 31732, Note_on_c, 2, 53, 37
4, 33164, Note_on_c, 2, 53, 0
4, 33192, Note_on_c, 2, 55, 38
4, 33960, Note_on_c, 2, 55, 0
4, 35708, Note_on_c, 2, 51, 38
4, 38780, Note_on_c, 2, 51, 0
4, 39948, Note_on_c, 2, 51, 38
4, 40716, Note_on_c, 2, 51, 0
4, 42064, Note_on_c, 2, 51, 38
4, 42448, Note_on_c, 2, 51, 0
4, 42560, Note_on_c, 2, 55, 38
4, 42832, Note_on_c, 2, 56, 40
4, 42944, Note_on_c, 2, 55, 0
4, 43096, Note_on_c, 2, 55, 37
4, 43216, Note_on_c, 2, 56, 0
4, 43480, Note_on_c, 2, 55, 0
4, 50136, Note_on_c, 2, 62, 48
4, 51288, Note_on_c, 2, 62, 0
4, 51432, Note_on_c, 2, 63, 48
4, 51800, Note_on_c, 2, 63, 0
4, 52012, Note_on_c, 2, 59, 45
4, 53248, Note_on_c, 2, 59, 0
4, 53272, Note_on_c, 2, 62, 45
4, 53740, Note_on_c, 2, 62, 0
4, 53908, Note_on_c, 2, 63, 44
4, 54968, Note_on_c, 2, 63, 0
4, 55200, Note_on_c, 2, 65, 48
4, 56260, Note_on_c, 2, 65, 0
4, 56564, Note_on_c, 2, 67, 40
4, 56964, Note_on_c, 2, 67, 0
4, 58624, Note_on_c, 2, 65, 54
4, 59504, Note_on_c, 2, 63, 52
4, 59648, Note_on_c, 2, 65, 0
4, 60144, Note_on_c, 2, 63, 0
4, 65664, Note_on_c, 2, 53, 50
4, 66260, Note_on_c, 2, 53, 0
4, 67476, Note_on_c, 2, 60, 50
4, 68060, Note_on_c, 2, 60, 0
4, 68320, Note_on_c, 2, 58, 50
4, 69532, Note_on_c, 2, 58, 0
4, 69576, Note_on_c, 2, 63, 53
4, 71112, Note_on_c, 2, 63, 0
4, 71412, Note_on_c, 2, 61, 50
4, 71956, Note_on_c, 2, 61, 0
4, 72640, Note_on_c, 2, 61, 50
4, 74560, Note_on_c, 2, 61, 0
4, 75392, Note_on_c, 2, 60, 50
4, 76160, Note_on_c, 2, 60, 0
4, 76732, Note_on_c, 2, 58, 50
4, 77300, Note_on_c, 2, 58, 0
4, 80052, Note_on_c, 2, 51, 50
4, 81332, Note_on_c, 2, 51, 0
4, 81384, Note_on_c, 2, 53, 53
4, 82688, Note_on_c, 2, 53, 0
4, 82916, Note_on_c, 2, 55, 53
4, 83460, Note_on_c, 2, 55, 0
4, 85388, Note_on_c, 2, 56, 57
4, 89228, Note_on_c, 2, 56, 0
4, 89844, Note_on_c, 2, 56, 53
4, 90400, Note_on_c, 2, 56, 0
4, 91160, Note_on_c, 2, 56, 53
4, 92268, Note_on_c, 2, 56, 0
4, 92436, Note_on_c, 2, 58, 53
4, 92960, Note_on_c, 2, 58, 0
4, 99980, Note_on_c, 2, 43, 53
4, 100748, Note_on_c, 2, 43, 0
4, 102364, Note_on_c, 2, 56, 49
4, 102988, Note_on_c, 2, 56, 0
4, 104024, Note_on_c, 2, 58, 49
4, 104932, Note_on_c, 2, 58, 0
4, 105116, Note_on_c, 2, 59, 46
4, 105640, Note_on_c, 2, 59, 0
4, 193124, Control_c, 2, 11, 90
4, 193136, Note_on_c, 2, 53, 50
4, 194160, Note_on_c, 2, 53, 0
4, 195564, Note_on_c, 2, 60, 50
4, 196204, Note_on_c, 2, 60, 0
4, 196640, Note_on_c, 2, 58, 50
4, 198360, Note_on_c, 2, 63, 55
4, 198432, Note_on_c, 2, 58, 0
4, 201304, Note_on_c, 2, 63, 0
4, 201664, Note_on_c, 2, 61, 50
4, 202376, Note_on_c, 2, 61, 0
4, 203256, Note_on_c, 2, 61, 52
4, 206084, Note_on_c, 2, 61, 0
4, 206280, Note_on_c, 2, 60, 52
4, 207936, Note_on_c, 2, 58, 52
4, 207956, Note_on_c, 2, 60, 0
4, 209344, Note_on_c, 2, 58, 0
4, 210816, Note_on_c, 2, 51, 52
4, 212224, Note_on_c, 2, 51, 0
4, 212664, Note_on_c, 2, 51, 52
4, 213572, Note_on_c, 2, 51, 0
4, 214496, Note_on_c, 2, 53, 52
4, 216524, Note_on_c, 2, 53, 0
4, 216664, Note_on_c, 2, 55, 50
4, 217176, Note_on_c, 2, 55, 0
4, 218972, Note_on_c, 2, 55, 50
4, 219612, Note_on_c, 2, 55, 0
4, 219832, Note_on_c, 2, 51, 50
4, 230456, Note_on_c, 2, 51, 0
4, 245000, Note_on_c, 2, 56, 52
4, 245548, Note_on_c, 2, 53, 49
4, 245640, Note_on_c, 2, 56, 0
4, 246040, Note_on_c, 2, 51, 48
4, 246076, Note_on_c, 2, 53, 0
4, 246276, Note_on_c, 2, 53, 51
4, 246292, Note_on_c, 2, 51, 0
4, 246556, Note_on_c, 2, 53, 0
4, 246560, Note_on_c, 2, 50, 58
4, 247144, Note_on_c, 2, 50, 0
4, 249236, Note_on_c, 2, 48, 52
4, 249792, Note_on_c, 2, 46, 43
4, 249808, Note_on_c, 2, 48, 0
4, 250308, Note_on_c, 2, 48, 46
4, 250356, Note_on_c, 2, 46, 0
4, 250568, Note_on_c, 2, 49, 51
4, 250640, Note_on_c, 2, 48, 0
4, 250840, Note_on_c, 2, 51, 46
4, 250892, Note_on_c, 2, 49, 0
4, 251448, Note_on_c, 2, 51, 0
4, 254336, Note_on_c, 2, 51, 39
4, 254972, Note_on_c, 2, 51, 0
4, 255024, Note_on_c, 2, 51, 49
4, 255620, Note_on_c, 2, 51, 0
4, 255696, Note_on_c, 2, 51, 45
4, 261380, Note_on_c, 2, 51, 0
4, 261380, End_track
5, 0, Start_track
5, 0, MIDI_port, 0
5, 0, Title_t, "cellos"
5, 0, Control_c, 3, 0, 0
5, 0, Control_c, 3, 32, 0
5, 0, Program_c, 3, 49
5, 0, Control_c, 3, 7, 70
5, 0, Control_c, 3, 91, 127
5, 16, Control_c, 3, 7, 90
5, 36, Control_c, 3, 91, 127
5, 9952, Note_on_c, 3, 44, 42
5, 10628, Note_on_c, 3, 44, 0
5, 10640, Note_on_c, 3, 44, 42
5, 11312, Note_on_c, 3, 44, 42
5, 11316, Note_on_c, 3, 44, 0
5, 12756, Note_on_c, 3, 44, 0
5, 18004, Note_on_c, 3, 41, 37
5, 19924, Note_on_c, 3, 41, 0
5, 20488, Note_on_c, 3, 46, 37
5, 23176, Note_on_c, 3, 46, 0
5, 24044, Note_on_c, 3, 40, 44
5, 25196, Note_on_c, 3, 40, 0
5, 25304, Note_on_c, 3, 39, 38
5, 28376, Note_on_c, 3, 39, 0
5, 29076, Note_on_c, 3, 41, 41
5, 29732, Note_on_c, 3, 43, 42
5, 29844, Note_on_c, 3, 41, 0
5, 30500, Note_on_c, 3, 43, 0
5, 30592, Note_on_c, 3, 44, 45
5, 31732, Note_on_c, 3, 37, 42
5, 31744, Note_on_c, 3, 44, 0
5, 33164, Note_on_c, 3, 37, 0
5, 33192, Note_on_c, 3, 39, 44
5, 33960, Note_on_c, 3, 39, 0
5, 35708, Note_on_c, 3, 44, 44
5, 36808, Note_on_c, 3, 39, 44
5, 36860, Note_on_c, 3, 44, 0
5, 37576, Note_on_c, 3, 39, 0
5, 37840, Note_on_c, 3, 44, 44
5, 38224, Note_on_c, 3, 44, 0
5, 38344, Note_on_c, 3, 39, 44
5, 39948, Note_on_c, 3, 44, 44
5, 40264, Note_on_c, 3, 39, 0
5, 40968, Note_on_c, 3, 39, 44
5, 41580, Note_on_c, 3, 44, 0
5, 42064, Note_on_c, 3, 44, 44
5, 42120, Note_on_c, 3, 39, 0
5, 42448, Note_on_c, 3, 44, 0
5, 42560, Note_on_c, 3, 51, 44
5, 43712, Note_on_c, 3, 51, 0
5, 44292, Note_on_c, 3, 49, 44
5, 45340, Note_on_c, 3, 44, 44
5, 45444, Note_on_c, 3, 49, 0
5, 46472, Note_on_c, 3, 41, 44
5, 46492, Note_on_c, 3, 44, 0
5, 46992, Note_on_c, 3, 43, 46
5, 47012, Note_on_c, 3, 41, 0
5, 47528, Note_on_c, 3, 43, 0
5, 47612, Note_on_c, 3, 44, 47
5, 48136, Note_on_c, 3, 44, 0
5, 48196, Note_on_c, 3, 45, 49
5, 48820, Note_on_c, 3, 45, 0
5, 48856, Note_on_c, 3, 46, 52
5, 49240, Note_on_c, 3, 46, 0
5, 50136, Note_on_c, 3, 46, 52
5, 51288, Note_on_c, 3, 46, 0
5, 51432, Note_on_c, 3, 39, 47
5, 52200, Note_on_c, 3, 39, 0
5, 58624, Note_on_c, 3, 46, 52
5, 59504, Note_on_c, 3, 43, 52
5, 59648, Note_on_c, 3, 46, 0
5, 60144, Note_on_c, 3, 43, 0
5, 65664, Note_on_c, 3, 41, 50
5, 66248, Note_on_c, 3, 41, 0
5, 67476, Note_on_c, 3, 41, 50
5, 68060, Note_on_c, 3, 41, 0
5, 68320, Note_on_c, 3, 46, 50
5, 71836, Note_on_c, 3, 46, 0
5, 72640, Note_on_c, 3, 52, 54
5, 73528, Note_on_c, 3, 52, 0
5, 73828, Note_on_c, 3, 51, 50
5, 74360, Note_on_c, 3, 51, 0
5, 75392, Note_on_c, 3, 51, 50
5, 75936, Note_on_c, 3, 51, 0
5, 76732, Note_on_c, 3, 51, 50
5, 77276, Note_on_c, 3, 51, 0
5, 77984, Note_on_c, 3, 41, 54
5, 78528, Note_on_c, 3, 41, 0
5, 78796, Note_on_c, 3, 43, 56
5, 79340, Note_on_c, 3, 43, 0
5, 80052, Note_on_c, 3, 44, 56
5, 81364, Note_on_c, 3, 44, 0
5, 81384, Note_on_c, 3, 37, 56
5, 82696, Note_on_c, 3, 37, 0
5, 82916, Note_on_c, 3, 39, 50
5, 83460, Note_on_c, 3, 39, 0
5, 85388, Note_on_c, 3, 44, 50
5, 86316, Note_on_c, 3, 44, 0
5, 86476, Note_on_c, 3, 49, 55
5, 87404, Note_on_c, 3, 49, 0
5, 87596, Note_on_c, 3, 44, 50
5, 88524, Note_on_c, 3, 44, 0
5, 88632, Note_on_c, 3, 49, 55
5, 89560, Note_on_c, 3, 49, 0
5, 89844, Note_on_c, 3, 44, 55
5, 90388, Note_on_c, 3, 44, 0
5, 91160, Note_on_c, 3, 52, 57
5, 92248, Note_on_c, 3, 52, 0
5, 92436, Note_on_c, 3, 51, 50
5, 92980, Note_on_c, 3, 51, 0
5, 93956, Note_on_c, 3, 52, 54
5, 94340, Note_on_c, 3, 52, 0
5, 94604, Note_on_c, 3, 51, 49
5, 95148, Note_on_c, 3, 51, 0
5, 96048, Note_on_c, 3, 49, 54
5, 96592, Note_on_c, 3, 49, 0
5, 96760, Note_on_c, 3, 47, 50
5, 97688, Note_on_c, 3, 47, 0
5, 97864, Note_on_c, 3, 46, 50
5, 98792, Note_on_c, 3, 46, 0
5, 99156, Note_on_c, 3, 52, 54
5, 99700, Note_on_c, 3, 52, 0
5, 99980, Note_on_c, 3, 43, 54
5, 100524, Note_on_c, 3, 43, 0
5, 100936, Note_on_c, 3, 44, 54
5, 101480, Note_on_c, 3, 44, 0
5, 101636, Note_on_c, 3, 49, 54
5, 102180, Note_on_c, 3, 49, 0
5, 102364, Note_on_c, 3, 51, 56
5, 102908, Note_on_c, 3, 51, 0
5, 104024, Note_on_c, 3, 51, 48
5, 104568, Note_on_c, 3, 51, 0
5, 105116, Note_on_c, 3, 52, 52
5, 105660, Note_on_c, 3, 52, 0
5, 105772, Note_on_c, 3, 45, 70
5, 106204, Note_on_c, 3, 47, 66
5, 106208, Note_on_c, 3, 45, 0
5, 106396, Note_on_c, 3, 49, 63
5, 106432, Note_on_c, 3, 47, 0
5, 106800, Note_on_c, 3, 49, 0
5, 107000, Note_on_c, 3, 51, 66
5, 107484, Note_on_c, 3, 51, 0
5, 107612, Note_on_c, 3, 44, 66
5, 108096, Note_on_c, 3, 44, 0
5, 108288, Note_on_c, 3, 43, 66
5, 108760, Note_on_c, 3, 44, 68
5, 108804, Note_on_c, 3, 43, 0
5, 108940, Note_on_c, 3, 49, 70
5, 108968, Note_on_c, 3, 44, 0
5, 109416, Note_on_c, 3, 49, 0
5, 109604, Note_on_c, 3, 51, 72
5, 110384, Note_on_c, 3, 44, 65
5, 110500, Note_on_c, 3, 51, 0
5, 110860, Note_on_c, 3, 44, 0
5, 111276, Note_on_c, 3, 43, 59
5, 111788, Note_on_c, 3, 44, 60
5, 111844, Note_on_c, 3, 43, 0
5, 111968, Note_on_c, 3, 49, 63
5, 112012, Note_on_c, 3, 44, 0
5, 112708, Note_on_c, 3, 51, 66
5, 112736, Note_on_c, 3, 49, 0
5, 113476, Note_on_c, 3, 51, 0
5, 113576, Note_on_c, 3, 44, 70
5, 114140, Note_on_c, 3, 44, 0
5, 193124, Control_c, 3, 11, 90
5, 193136, Note_on_c, 3, 41, 50
5, 194160, Note_on_c, 3, 41, 0
5, 195564, Note_on_c, 3, 41, 50
5, 196204, Note_on_c, 3, 41, 0
5, 196640, Note_on_c, 3, 46, 50
5, 201504, Note_on_c, 3, 46, 0
5, 203256, Note_on_c, 3, 52, 55
5, 204672, Note_on_c, 3, 52, 0
5, 206280, Note_on_c, 3, 51, 55
5, 209108, Note_on_c, 3, 51, 0
5, 209812, Note_on_c, 3, 53, 55
5, 210720, Note_on_c, 3, 53, 0
5, 210816, Note_on_c, 3, 55, 55
5, 212492, Note_on_c, 3, 55, 0
5, 212664, Note_on_c, 3, 56, 55
5, 213576, Note_on_c, 3, 56, 0
5, 214496, Note_on_c, 3, 49, 55
5, 216656, Note_on_c, 3, 49, 0
5, 216664, Note_on_c, 3, 51, 50
5, 217176, Note_on_c, 3, 51, 0
5, 218972, Note_on_c, 3, 51, 55
5, 219612, Note_on_c, 3, 51, 0
5, 219832, Note_on_c, 3, 44, 55
5, 221240, Note_on_c, 3, 44, 0
5, 221284, Note_on_c, 3, 39, 55
5, 222676, Note_on_c, 3, 44, 55
5, 222692, Note_on_c, 3, 39, 0
5, 223316, Note_on_c, 3, 44, 0
5, 223352, Note_on_c, 3, 39, 55
5, 225144, Note_on_c, 3, 39, 0
5, 225412, Note_on_c, 3, 44, 55
5, 226772, Note_on_c, 3, 39, 55
5, 226820, Note_on_c, 3, 44, 0
5, 228180, Note_on_c, 3, 39, 0
5, 228220, Note_on_c, 3, 44, 55
5, 228860, Note_on_c, 3, 44, 0
5, 228884, Note_on_c, 3, 51, 55
5, 230676, Note_on_c, 3, 51, 0
5, 231064, Note_on_c, 3, 49, 60
5, 232024, Note_on_c, 3, 49, 0
5, 232516, Note_on_c, 3, 43, 60
5, 233204, Note_on_c, 3, 43, 0
5, 233252, Note_on_c, 3, 44, 60
5, 233892, Note_on_c, 3, 44, 0
5, 234028, Note_on_c, 3, 53, 60
5, 234604, Note_on_c, 3, 53, 0
5, 234676, Note_on_c, 3, 55, 63
5, 235384, Note_on_c, 3, 55, 0
5, 235636, Note_on_c, 3, 56, 65
5, 236196, Note_on_c, 3, 56, 0
5, 236440, Note_on_c, 3, 50, 65
5, 236960, Note_on_c, 3, 50, 0
5, 237300, Note_on_c, 3, 51, 67
5, 241780, Note_on_c, 3, 51, 0
5, 254336, Note_on_c, 3, 44, 42
5, 255012, Note_on_c, 3, 44, 0
5, 255024, Note_on_c, 3, 44, 42
5, 255696, Note_on_c, 3, 44, 42
5, 255700, Note_on_c, 3, 44, 0
5, 261364, Note_on_c, 3, 44, 0
5, 261364, End_track
6, 0, Start_track
6, 0, MIDI_port, 0
6, 0, Title_t, "Bass"
6, 0, Control_c, 4, 0, 0
6, 0, Control_c, 4, 32, 0
6, 0, Program_c, 4, 43
6, 0, Control_c, 4, 7, 45
6, 0, Control_c, 4, 91, 127
6, 4, Control_c, 4, 7, 45
6, 36, Control_c, 4, 91, 127
6, 616, Note_on_c, 4, 56, 48
6, 1164, Note_on_c, 4, 53, 48
6, 1256, Note_on_c, 4, 56, 0
6, 1656, Note_on_c, 4, 51, 48
6, 1692, Note_on_c, 4, 53, 0
6, 1892, Note_on_c, 4, 53, 49
6, 1908, Note_on_c, 4, 51, 0
6, 2172, Note_on_c, 4, 53, 0
6, 2176, Note_on_c, 4, 50, 57
6, 2760, Note_on_c, 4, 50, 0
6, 4852, Note_on_c, 4, 48, 51
6, 5408, Note_on_c, 4, 46, 43
6, 5424, Note_on_c, 4, 48, 0
6, 5924, Note_on_c, 4, 48, 46
6, 5972, Note_on_c, 4, 46, 0
6, 6184, Note_on_c, 4, 49, 50
6, 6264, Note_on_c, 4, 48, 0
6, 6456, Note_on_c, 4, 51, 46
6, 6516, Note_on_c, 4, 49, 0
6, 7024, Note_on_c, 4, 51, 0
6, 11312, Note_on_c, 4, 56, 40
6, 12772, Note_on_c, 4, 56, 0
6, 35708, Note_on_c, 4, 56, 50
6, 36808, Note_on_c, 4, 51, 50
6, 36860, Note_on_c, 4, 56, 0
6, 37576, Note_on_c, 4, 51, 0
6, 37840, Note_on_c, 4, 56, 50
6, 38224, Note_on_c, 4, 56, 0
6, 38344, Note_on_c, 4, 51, 50
6, 39496, Note_on_c, 4, 51, 0
6, 39948, Note_on_c, 4, 56, 50
6, 40716, Note_on_c, 4, 56, 0
6, 40968, Note_on_c, 4, 51, 50
6, 41736, Note_on_c, 4, 51, 0
6, 42064, Note_on_c, 4, 56, 50
6, 42448, Note_on_c, 4, 56, 0
6, 42560, Note_on_c, 4, 51, 50
6, 43712, Note_on_c, 4, 51, 0
6, 44292, Note_on_c, 4, 49, 50
6, 45340, Note_on_c, 4, 44, 50
6, 45444, Note_on_c, 4, 49, 0
6, 46472, Note_on_c, 4, 53, 50
6, 46492, Note_on_c, 4, 44, 0
6, 46980, Note_on_c, 4, 53, 0
6, 46992, Note_on_c, 4, 55, 50
6, 47512, Note_on_c, 4, 55, 0
6, 47612, Note_on_c, 4, 56, 50
6, 48132, Note_on_c, 4, 56, 0
6, 48196, Note_on_c, 4, 57, 52
6, 48824, Note_on_c, 4, 57, 0
6, 48856, Note_on_c, 4, 58, 54
6, 49376, Note_on_c, 4, 58, 0
6, 58624, Note_on_c, 4, 46, 49
6, 59504, Note_on_c, 4, 43, 49
6, 59648, Note_on_c, 4, 46, 0
6, 60144, Note_on_c, 4, 43, 0
6, 85388, Note_on_c, 4, 56, 50
6, 86320, Note_on_c, 4, 56, 0
6, 86476, Note_on_c, 4, 49, 50
6, 87380, Note_on_c, 4, 49, 0
6, 87596, Note_on_c, 4, 56, 50
6, 88500, Note_on_c, 4, 56, 0
6, 88632, Note_on_c, 4, 49, 50
6, 89536, Note_on_c, 4, 49, 0
6, 89844, Note_on_c, 4, 56, 50
6, 90364, Note_on_c, 4, 56, 0
6, 91160, Note_on_c, 4, 52, 50
6, 92248, Note_on_c, 4, 52, 0
6, 92436, Note_on_c, 4, 51, 47
6, 92956, Note_on_c, 4, 51, 0
6, 105772, Note_on_c, 4, 45, 72
6, 106204, Note_on_c, 4, 47, 67
6, 106208, Note_on_c, 4, 45, 0
6, 106396, Note_on_c, 4, 49, 64
6, 106432, Note_on_c, 4, 47, 0
6, 106800, Note_on_c, 4, 49, 0
6, 107000, Note_on_c, 4, 51, 66
6, 107484, Note_on_c, 4, 51, 0
6, 107612, Note_on_c, 4, 44, 66
6, 108096, Note_on_c, 4, 44, 0
6, 108288, Note_on_c, 4, 43, 65
6, 108760, Note_on_c, 4, 44, 68
6, 108804, Note_on_c, 4, 43, 0
6, 108940, Note_on_c, 4, 49, 70
6, 108960, Note_on_c, 4, 44, 0
6, 109408, Note_on_c, 4, 49, 0
6, 109604, Note_on_c, 4, 51, 72
6, 110384, Note_on_c, 4, 44, 64
6, 110464, Note_on_c, 4, 51, 0
6, 111244, Note_on_c, 4, 44, 0
6, 111276, Note_on_c, 4, 43, 70
6, 111788, Note_on_c, 4, 44, 72
6, 111840, Note_on_c, 4, 43, 0
6, 111968, Note_on_c, 4, 49, 74
6, 112012, Note_on_c, 4, 44, 0
6, 112708, Note_on_c, 4, 51, 76
6, 112736, Note_on_c, 4, 49, 0
6, 113476, Note_on_c, 4, 51, 0
6, 113576, Note_on_c, 4, 44, 78
6, 114136, Note_on_c, 4, 44, 0
6, 115908, Note_on_c, 4, 44, 75
6, 116064, Note_on_c, 4, 44, 0
6, 120432, Note_on_c, 4, 44, 75
6, 120672, Note_on_c, 4, 44, 0
6, 123044, Note_on_c, 4, 44, 55
6, 123244, Note_on_c, 4, 44, 0
6, 123456, Note_on_c, 4, 44, 55
6, 123616, Note_on_c, 4, 44, 0
6, 123620, Note_on_c, 4, 44, 54
6, 123900, Note_on_c, 4, 44, 0
6, 124160, Note_on_c, 4, 44, 55
6, 124440, Note_on_c, 4, 44, 0
6, 124744, Note_on_c, 4, 44, 55
6, 125024, Note_on_c, 4, 44, 0
6, 126776, Note_on_c, 4, 43, 80
6, 126976, Note_on_c, 4, 43, 0
6, 131544, Note_on_c, 4, 54, 85
6, 131824, Note_on_c, 4, 54, 0
6, 131964, Note_on_c, 4, 54, 85
6, 132244, Note_on_c, 4, 54, 0
6, 132584, Note_on_c, 4, 54, 85
6, 132864, Note_on_c, 4, 54, 0
6, 133132, Note_on_c, 4, 54, 85
6, 133412, Note_on_c, 4, 54, 0
6, 133680, Note_on_c, 4, 52, 85
6, 133960, Note_on_c, 4, 52, 0
6, 134796, Note_on_c, 4, 48, 85
6, 135076, Note_on_c, 4, 48, 0
6, 136112, Note_on_c, 4, 49, 86
6, 136392, Note_on_c, 4, 49, 0
6, 139040, Note_on_c, 4, 50, 80
6, 139244, Note_on_c, 4, 50, 0
6, 139396, Note_on_c, 4, 50, 80
6, 139496, Note_on_c, 4, 50, 0
6, 139536, Note_on_c, 4, 50, 80
6, 139824, Note_on_c, 4, 50, 0
6, 140640, Note_on_c, 4, 50, 75
6, 141148, Note_on_c, 4, 50, 0
6, 141428, Note_on_c, 4, 51, 75
6, 141932, Note_on_c, 4, 51, 0
6, 142640, Note_on_c, 4, 51, 65
6, 143144, Note_on_c, 4, 51, 0
6, 143268, Note_on_c, 4, 49, 70
6, 143772, Note_on_c, 4, 49, 0
6, 143940, Note_on_c, 4, 47, 65
6, 144568, Note_on_c, 4, 47, 0
6, 148040, Note_on_c, 4, 54, 55
6, 148640, Note_on_c, 4, 47, 50
6, 148680, Note_on_c, 4, 54, 0
6, 149280, Note_on_c, 4, 47, 0
6, 153244, Control_c, 4, 7, 55
6, 153248, Note_on_c, 4, 56, 60
6, 153856, Note_on_c, 4, 49, 55
6, 153888, Note_on_c, 4, 56, 0
6, 154496, Note_on_c, 4, 49, 0
6, 155000, Note_on_c, 4, 47, 60
6, 155032, Note_on_c, 4, 47, 0
6, 155048, Note_on_c, 4, 47, 60
6, 155080, Note_on_c, 4, 47, 0
6, 155096, Note_on_c, 4, 47, 60
6, 155128, Note_on_c, 4, 47, 0
6, 155144, Note_on_c, 4, 47, 60
6, 155176, Note_on_c, 4, 47, 0
6, 155192, Note_on_c, 4, 47, 60
6, 155224, Note_on_c, 4, 47, 0
6, 155240, Note_on_c, 4, 47, 60
6, 155272, Note_on_c, 4, 47, 0
6, 155288, Note_on_c, 4, 47, 60
6, 155320, Note_on_c, 4, 47, 0
6, 155336, Note_on_c, 4, 47, 60
6, 155368, Note_on_c, 4, 47, 0
6, 155384, Note_on_c, 4, 47, 60
6, 155416, Note_on_c, 4, 47, 0
6, 155432, Note_on_c, 4, 47, 60
6, 155464, Note_on_c, 4, 47, 0
6, 155480, Note_on_c, 4, 47, 60
6, 155512, Note_on_c, 4, 47, 0
6, 155528, Note_on_c, 4, 47, 60
6, 155560, Note_on_c, 4, 47, 0
6, 155576, Note_on_c, 4, 47, 60
6, 155608, Note_on_c, 4, 47, 0
6, 155624, Note_on_c, 4, 47, 60
6, 155656, Note_on_c, 4, 47, 0
6, 155672, Note_on_c, 4, 47, 60
6, 155704, Note_on_c, 4, 47, 0
6, 155720, Note_on_c, 4, 47, 60
6, 155752, Note_on_c, 4, 47, 0
6, 155768, Note_on_c, 4, 47, 60
6, 155800, Note_on_c, 4, 47, 0
6, 155816, Note_on_c, 4, 47, 60
6, 155848, Note_on_c, 4, 47, 0
6, 155864, Note_on_c, 4, 47, 60
6, 155896, Note_on_c, 4, 47, 0
6, 155912, Note_on_c, 4, 47, 60
6, 155944, Note_on_c, 4, 47, 0
6, 155960, Note_on_c, 4, 47, 60
6, 155992, Note_on_c, 4, 47, 0
6, 156008, Note_on_c, 4, 47, 60
6, 156040, Note_on_c, 4, 47, 0
6, 156056, Note_on_c, 4, 47, 60
6, 156088, Note_on_c, 4, 47, 0
6, 156100, Note_on_c, 4, 45, 70
6, 156132, Note_on_c, 4, 45, 0
6, 156148, Note_on_c, 4, 45, 70
6, 156180, Note_on_c, 4, 45, 0
6, 156196, Note_on_c, 4, 45, 70
6, 156228, Note_on_c, 4, 45, 0
6, 156244, Note_on_c, 4, 45, 70
6, 156276, Note_on_c, 4, 45, 0
6, 156292, Note_on_c, 4, 45, 70
6, 156324, Note_on_c, 4, 45, 0
6, 156340, Note_on_c, 4, 45, 70
6, 156372, Note_on_c, 4, 45, 0
6, 156388, Note_on_c, 4, 45, 70
6, 156420, Note_on_c, 4, 45, 0
6, 156436, Note_on_c, 4, 45, 70
6, 156468, Note_on_c, 4, 45, 0
6, 156484, Note_on_c, 4, 45, 70
6, 156516, Note_on_c, 4, 45, 0
6, 156532, Note_on_c, 4, 45, 70
6, 156564, Note_on_c, 4, 45, 0
6, 156580, Note_on_c, 4, 45, 70
6, 156612, Note_on_c, 4, 45, 0
6, 156628, Note_on_c, 4, 45, 70
6, 156660, Note_on_c, 4, 45, 0
6, 156676, Note_on_c, 4, 45, 70
6, 156708, Note_on_c, 4, 45, 0
6, 156724, Note_on_c, 4, 45, 70
6, 156756, Note_on_c, 4, 45, 0
6, 156772, Note_on_c, 4, 45, 70
6, 156804, Note_on_c, 4, 45, 0
6, 156820, Note_on_c, 4, 45, 70
6, 156852, Note_on_c, 4, 45, 0
6, 156868, Note_on_c, 4, 45, 70
6, 156900, Note_on_c, 4, 45, 0
6, 156916, Note_on_c, 4, 45, 70
6, 156948, Note_on_c, 4, 45, 0
6, 156964, Note_on_c, 4, 45, 70
6, 156996, Note_on_c, 4, 45, 0
6, 157012, Note_on_c, 4, 45, 70
6, 157044, Note_on_c, 4, 45, 0
6, 157060, Note_on_c, 4, 45, 70
6, 157092, Note_on_c, 4, 45, 0
6, 157108, Note_on_c, 4, 45, 70
6, 157140, Note_on_c, 4, 45, 0
6, 157156, Note_on_c, 4, 45, 70
6, 157188, Note_on_c, 4, 45, 0
6, 157204, Note_on_c, 4, 45, 70
6, 157236, Note_on_c, 4, 45, 0
6, 157252, Note_on_c, 4, 45, 70
6, 157284, Note_on_c, 4, 45, 0
6, 157300, Note_on_c, 4, 45, 70
6, 157332, Note_on_c, 4, 45, 0
6, 157348, Note_on_c, 4, 45, 70
6, 157380, Note_on_c, 4, 45, 0
6, 157396, Note_on_c, 4, 45, 70
6, 157428, Note_on_c, 4, 45, 0
6, 157444, Note_on_c, 4, 45, 70
6, 157476, Note_on_c, 4, 45, 0
6, 157492, Note_on_c, 4, 45, 70
6, 157524, Note_on_c, 4, 45, 0
6, 157540, Note_on_c, 4, 45, 70
6, 157572, Note_on_c, 4, 45, 0
6, 157588, Note_on_c, 4, 45, 70
6, 157620, Note_on_c, 4, 45, 0
6, 157636, Note_on_c, 4, 45, 70
6, 157668, Note_on_c, 4, 45, 0
6, 157684, Note_on_c, 4, 45, 70
6, 157716, Note_on_c, 4, 45, 0
6, 157732, Note_on_c, 4, 45, 70
6, 157764, Note_on_c, 4, 45, 0
6, 157780, Note_on_c, 4, 45, 70
6, 157812, Note_on_c, 4, 45, 0
6, 157828, Note_on_c, 4, 45, 70
6, 157860, Note_on_c, 4, 45, 0
6, 157876, Note_on_c, 4, 45, 70
6, 157908, Note_on_c, 4, 45, 0
6, 157924, Note_on_c, 4, 45, 70
6, 157956, Note_on_c, 4, 45, 0
6, 157972, Note_on_c, 4, 45, 70
6, 158004, Note_on_c, 4, 45, 0
6, 158020, Note_on_c, 4, 45, 70
6, 158052, Note_on_c, 4, 45, 0
6, 158068, Note_on_c, 4, 45, 70
6, 158100, Note_on_c, 4, 45, 0
6, 158116, Note_on_c, 4, 45, 70
6, 158148, Note_on_c, 4, 45, 0
6, 158164, Note_on_c, 4, 45, 70
6, 158196, Note_on_c, 4, 45, 0
6, 158212, Note_on_c, 4, 45, 70
6, 158244, Note_on_c, 4, 45, 0
6, 158260, Note_on_c, 4, 45, 70
6, 158292, Note_on_c, 4, 45, 0
6, 158308, Note_on_c, 4, 45, 70
6, 158340, Note_on_c, 4, 45, 0
6, 158356, Note_on_c, 4, 45, 70
6, 158388, Note_on_c, 4, 45, 0
6, 158404, Note_on_c, 4, 45, 70
6, 158436, Note_on_c, 4, 45, 0
6, 158452, Note_on_c, 4, 45, 70
6, 158484, Note_on_c, 4, 45, 0
6, 158500, Note_on_c, 4, 45, 70
6, 158532, Note_on_c, 4, 45, 0
6, 158548, Note_on_c, 4, 45, 70
6, 158580, Note_on_c, 4, 45, 0
6, 158596, Note_on_c, 4, 45, 70
6, 158628, Note_on_c, 4, 45, 0
6, 161104, Note_on_c, 4, 52, 65
6, 161488, Note_on_c, 4, 52, 0
6, 161592, Note_on_c, 4, 52, 65
6, 161976, Note_on_c, 4, 52, 0
6, 162016, Note_on_c, 4, 52, 65
6, 162232, Note_on_c, 4, 52, 0
6, 162328, Note_on_c, 4, 52, 65
6, 162712, Note_on_c, 4, 52, 0
6, 162784, Note_on_c, 4, 52, 65
6, 163168, Note_on_c, 4, 52, 0
6, 163608, Note_on_c, 4, 51, 60
6, 163992, Note_on_c, 4, 51, 0
6, 165488, Note_on_c, 4, 49, 60
6, 165872, Note_on_c, 4, 49, 0
6, 166224, Note_on_c, 4, 49, 60
6, 166336, Note_on_c, 4, 49, 0
6, 166360, Note_on_c, 4, 51, 59
6, 166904, Note_on_c, 4, 51, 0
6, 168488, Note_on_c, 4, 49, 60
6, 168872, Note_on_c, 4, 49, 0
6, 168956, Note_on_c, 4, 49, 60
6, 169076, Note_on_c, 4, 49, 0
6, 169108, Note_on_c, 4, 51, 60
6, 169612, Note_on_c, 4, 51, 0
6, 170216, Note_on_c, 4, 56, 63
6, 170720, Note_on_c, 4, 56, 0
6, 171860, Note_on_c, 4, 51, 60
6, 172364, Note_on_c, 4, 51, 0
6, 173992, Note_on_c, 4, 56, 50
6, 174496, Note_on_c, 4, 56, 0
6, 174712, Note_on_c, 4, 51, 55
6, 176752, Note_on_c, 4, 51, 0
6, 176768, Note_on_c, 4, 51, 65
6, 178488, Note_on_c, 4, 51, 70
6, 178808, Note_on_c, 4, 51, 0
6, 180144, Note_on_c, 4, 51, 0
6, 193124, Control_c, 4, 11, 90
6, 245000, Note_on_c, 4, 56, 48
6, 245548, Note_on_c, 4, 53, 48
6, 245640, Note_on_c, 4, 56, 0
6, 246040, Note_on_c, 4, 51, 48
6, 246076, Note_on_c, 4, 53, 0
6, 246276, Note_on_c, 4, 53, 49
6, 246292, Note_on_c, 4, 51, 0
6, 246556, Note_on_c, 4, 53, 0
6, 246560, Note_on_c, 4, 50, 57
6, 247144, Note_on_c, 4, 50, 0
6, 249236, Note_on_c, 4, 48, 51
6, 249792, Note_on_c, 4, 46, 43
6, 249808, Note_on_c, 4, 48, 0
6, 250308, Note_on_c, 4, 48, 46
6, 250356, Note_on_c, 4, 46, 0
6, 250568, Note_on_c, 4, 49, 50
6, 250648, Note_on_c, 4, 48, 0
6, 250840, Note_on_c, 4, 51, 46
6, 250900, Note_on_c, 4, 49, 0
6, 251408, Note_on_c, 4, 51, 0
6, 255696, Note_on_c, 4, 56, 40
6, 261380, Note_on_c, 4, 56, 0
6, 261380, End_track
7, 0, Start_track
7, 0, MIDI_port, 0
7, 0, Title_t, "flute"
7, 0, Control_c, 5, 0, 0
7, 0, Control_c, 5, 32, 0
7, 0, Program_c, 5, 73
7, 0, Control_c, 5, 7, 70
7, 0, Control_c, 5, 91, 127
7, 16, Control_c, 5, 7, 45
7, 36, Control_c, 5, 91, 127
7, 2728, Note_on_c, 5, 82, 84
7, 2728, Note_on_c, 5, 70, 77
7, 3248, Note_on_c, 5, 83, 100
7, 3248, Note_on_c, 5, 71, 83
7, 3280, Note_on_c, 5, 70, 0
7, 3280, Note_on_c, 5, 82, 0
7, 3704, Note_on_c, 5, 83, 0
7, 3704, Note_on_c, 5, 71, 0
7, 3776, Note_on_c, 5, 83, 77
7, 3776, Note_on_c, 5, 71, 83
7, 4232, Note_on_c, 5, 71, 0
7, 4308, Note_on_c, 5, 84, 84
7, 4308, Note_on_c, 5, 72, 83
7, 4340, Note_on_c, 5, 83, 0
7, 4764, Note_on_c, 5, 72, 0
7, 4872, Note_on_c, 5, 84, 0
7, 7004, Note_on_c, 5, 79, 75
7, 7264, Note_on_c, 5, 80, 90
7, 7272, Note_on_c, 5, 79, 0
7, 7544, Note_on_c, 5, 82, 83
7, 7584, Note_on_c, 5, 80, 0
7, 8072, Note_on_c, 5, 84, 81
7, 8100, Note_on_c, 5, 82, 0
7, 8360, Note_on_c, 5, 82, 81
7, 8388, Note_on_c, 5, 84, 0
7, 8692, Note_on_c, 5, 80, 76
7, 8716, Note_on_c, 5, 82, 0
7, 9964, Note_on_c, 5, 80, 0
7, 57892, Note_on_c, 5, 77, 61
7, 57892, Note_on_c, 5, 85, 61
7, 58916, Note_on_c, 5, 77, 0
7, 59504, Note_on_c, 5, 79, 61
7, 59504, Note_on_c, 5, 82, 75
7, 59580, Note_on_c, 5, 85, 0
7, 60144, Note_on_c, 5, 79, 0
7, 60148, Note_on_c, 5, 82, 0
7, 111276, Note_on_c, 5, 85, 94
7, 111788, Note_on_c, 5, 83, 88
7, 111836, Note_on_c, 5, 85, 0
7, 111968, Note_on_c, 5, 81, 88
7, 112012, Note_on_c, 5, 83, 0
7, 112708, Note_on_c, 5, 79, 91
7, 112736, Note_on_c, 5, 81, 0
7, 113476, Note_on_c, 5, 79, 0
7, 113576, Note_on_c, 5, 80, 96
7, 113876, Note_on_c, 5, 80, 0
7, 148040, Note_on_c, 5, 82, 50
7, 148040, Note_on_c, 5, 76, 48
7, 148640, Note_on_c, 5, 75, 47
7, 148640, Note_on_c, 5, 83, 52
7, 148680, Note_on_c, 5, 76, 0
7, 148680, Note_on_c, 5, 82, 0
7, 149280, Note_on_c, 5, 75, 0
7, 149280, Note_on_c, 5, 83, 0
7, 153248, Note_on_c, 5, 84, 50
7, 153248, Note_on_c, 5, 78, 50
7, 153856, Note_on_c, 5, 76, 50
7, 153856, Note_on_c, 5, 85, 50
7, 153888, Note_on_c, 5, 78, 0
7, 153888, Note_on_c, 5, 84, 0
7, 154496, Note_on_c, 5, 76, 0
7, 154496, Note_on_c, 5, 85, 0
7, 174724, Note_on_c, 5, 79, 60
7, 174724, Note_on_c, 5, 75, 60
7, 176780, Note_on_c, 5, 77, 65
7, 176780, Note_on_c, 5, 80, 65
7, 176792, Note_on_c, 5, 75, 0
7, 176792, Note_on_c, 5, 79, 0
7, 178464, Note_on_c, 5, 77, 0
7, 178464, Note_on_c, 5, 80, 0
7, 178500, Note_on_c, 5, 79, 75
7, 178500, Note_on_c, 5, 82, 75
7, 179952, Note_on_c, 5, 82, 0
7, 179952, Note_on_c, 5, 79, 0
7, 247112, Note_on_c, 5, 82, 84
7, 247112, Note_on_c, 5, 70, 77
7, 247632, Note_on_c, 5, 83, 100
7, 247632, Note_on_c, 5, 71, 83
7, 247664, Note_on_c, 5, 70, 0
7, 247664, Note_on_c, 5, 82, 0
7, 248088, Note_on_c, 5, 83, 0
7, 248088, Note_on_c, 5, 71, 0
7, 248160, Note_on_c, 5, 83, 77
7, 248160, Note_on_c, 5, 71, 83
7, 248616, Note_on_c, 5, 71, 0
7, 248692, Note_on_c, 5, 84, 84
7, 248692, Note_on_c, 5, 72, 83
7, 248724, Note_on_c, 5, 83, 0
7, 249148, Note_on_c, 5, 72, 0
7, 249256, Note_on_c, 5, 84, 0
7, 251388, Note_on_c, 5, 79, 75
7, 251648, Note_on_c, 5, 80, 90
7, 251656, Note_on_c, 5, 79, 0
7, 251928, Note_on_c, 5, 82, 83
7, 251968, Note_on_c, 5, 80, 0
7, 252456, Note_on_c, 5, 84, 81
7, 252484, Note_on_c, 5, 82, 0
7, 252744, Note_on_c, 5, 82, 81
7, 252772, Note_on_c, 5, 84, 0
7, 253076, Note_on_c, 5, 80, 76
7, 253100, Note_on_c, 5, 82, 0
7, 254348, Note_on_c, 5, 80, 0
7, 254348, End_track
8, 0, Start_track
8, 0, MIDI_port, 0
8, 0, Title_t, "Oboe"
8, 0, Control_c, 6, 0, 0
8, 0, Control_c, 6, 32, 0
8, 0, Program_c, 6, 68
8, 0, Control_c, 6, 7, 60
8, 0, Control_c, 6, 91, 127
8, 16, Control_c, 6, 7, 40
8, 36, Control_c, 6, 91, 127
8, 2728, Note_on_c, 6, 77, 68
8, 3776, Note_on_c, 6, 77, 63
8, 4048, Note_on_c, 6, 77, 0
8, 4308, Note_on_c, 6, 76, 68
8, 4340, Note_on_c, 6, 77, 0
8, 4872, Note_on_c, 6, 76, 0
8, 7004, Note_on_c, 6, 73, 61
8, 7264, Note_on_c, 6, 72, 73
8, 7272, Note_on_c, 6, 73, 0
8, 7544, Note_on_c, 6, 77, 67
8, 7584, Note_on_c, 6, 72, 0
8, 8072, Note_on_c, 6, 75, 66
8, 8100, Note_on_c, 6, 77, 0
8, 8360, Note_on_c, 6, 73, 66
8, 8388, Note_on_c, 6, 75, 0
8, 8692, Note_on_c, 6, 72, 62
8, 8716, Note_on_c, 6, 73, 0
8, 9964, Note_on_c, 6, 72, 0
8, 57892, Note_on_c, 6, 73, 50
8, 60452, Note_on_c, 6, 73, 0
8, 111276, Note_on_c, 6, 73, 72
8, 111788, Note_on_c, 6, 71, 70
8, 111836, Note_on_c, 6, 73, 0
8, 111968, Note_on_c, 6, 69, 70
8, 112012, Note_on_c, 6, 71, 0
8, 112708, Note_on_c, 6, 70, 72
8, 112736, Note_on_c, 6, 69, 0
8, 113476, Note_on_c, 6, 70, 0
8, 113576, Note_on_c, 6, 71, 75
8, 113876, Note_on_c, 6, 71, 0
8, 247112, Note_on_c, 6, 77, 68
8, 248160, Note_on_c, 6, 77, 63
8, 248432, Note_on_c, 6, 77, 0
8, 248692, Note_on_c, 6, 76, 68
8, 248724, Note_on_c, 6, 77, 0
8, 249256, Note_on_c, 6, 76, 0
8, 251388, Note_on_c, 6, 73, 61
8, 251648, Note_on_c, 6, 72, 73
8, 251656, Note_on_c, 6, 73, 0
8, 251928, Note_on_c, 6, 77, 67
8, 251968, Note_on_c, 6, 72, 0
8, 252456, Note_on_c, 6, 75, 66
8, 252484, Note_on_c, 6, 77, 0
8, 252744, Note_on_c, 6, 73, 66
8, 252772, Note_on_c, 6, 75, 0
8, 253076, Note_on_c, 6, 72, 62
8, 253100, Note_on_c, 6, 73, 0
8, 254348, Note_on_c, 6, 72, 0
8, 254348, End_track
9, 0, Start_track
9, 0, MIDI_port, 0
9, 0, Title_t, "Clarinet"
9, 0, Control_c, 7, 0, 0
9, 0, Control_c, 7, 32, 0
9, 0, Program_c, 7, 71
9, 0, Control_c, 7, 7, 60
9, 0, Control_c, 7, 91, 127
9, 16, Control_c, 7, 7, 40
9, 36, Control_c, 7, 91, 127
9, 2728, Note_on_c, 7, 68, 75
9, 4040, Note_on_c, 7, 67, 69
9, 4048, Note_on_c, 7, 68, 0
9, 4300, Note_on_c, 7, 67, 0
9, 4308, Note_on_c, 7, 67, 75
9, 4872, Note_on_c, 7, 67, 0
9, 7004, Note_on_c, 7, 70, 67
9, 7264, Note_on_c, 7, 68, 81
9, 7272, Note_on_c, 7, 70, 0
9, 7544, Note_on_c, 7, 73, 74
9, 7584, Note_on_c, 7, 68, 0
9, 8072, Note_on_c, 7, 67, 73
9, 8100, Note_on_c, 7, 73, 0
9, 8692, Note_on_c, 7, 68, 68
9, 8772, Note_on_c, 7, 67, 0
9, 9964, Note_on_c, 7, 68, 0
9, 57892, Note_on_c, 7, 70, 50
9, 58920, Note_on_c, 7, 70, 0
9, 59504, Note_on_c, 7, 63, 50
9, 60528, Note_on_c, 7, 63, 0
9, 111276, Note_on_c, 7, 76, 72
9, 111276, Note_on_c, 7, 64, 72
9, 112224, Note_on_c, 7, 64, 0
9, 112224, Note_on_c, 7, 76, 0
9, 112708, Note_on_c, 7, 73, 74
9, 112708, Note_on_c, 7, 63, 74
9, 113476, Note_on_c, 7, 63, 0
9, 113476, Note_on_c, 7, 73, 0
9, 113576, Note_on_c, 7, 71, 76
9, 113876, Note_on_c, 7, 71, 0
9, 148040, Note_on_c, 7, 73, 45
9, 148040, Note_on_c, 7, 66, 45
9, 148640, Note_on_c, 7, 71, 46
9, 148640, Note_on_c, 7, 59, 45
9, 148680, Note_on_c, 7, 66, 0
9, 148680, Note_on_c, 7, 73, 0
9, 149280, Note_on_c, 7, 71, 0
9, 149280, Note_on_c, 7, 59, 0
9, 153248, Note_on_c, 7, 75, 50
9, 153248, Note_on_c, 7, 68, 50
9, 153856, Note_on_c, 7, 73, 50
9, 153856, Note_on_c, 7, 61, 50
9, 153888, Note_on_c, 7, 68, 0
9, 153888, Note_on_c, 7, 75, 0
9, 154496, Note_on_c, 7, 73, 0
9, 154496, Note_on_c, 7, 61, 0
9, 174724, Note_on_c, 7, 63, 65
9, 174724, Note_on_c, 7, 67, 65
9, 176780, Note_on_c, 7, 68, 70
9, 176780, Note_on_c, 7, 65, 70
9, 176792, Note_on_c, 7, 67, 0
9, 176792, Note_on_c, 7, 63, 0
9, 178464, Note_on_c, 7, 68, 0
9, 178464, Note_on_c, 7, 65, 0
9, 178500, Note_on_c, 7, 70, 75
9, 178500, Note_on_c, 7, 67, 75
9, 179940, Note_on_c, 7, 67, 0
9, 179940, Note_on_c, 7, 70, 0
9, 247112, Note_on_c, 7, 68, 75
9, 248424, Note_on_c, 7, 67, 69
9, 248432, Note_on_c, 7, 68, 0
9, 248684, Note_on_c, 7, 67, 0
9, 248692, Note_on_c, 7, 67, 75
9, 249256, Note_on_c, 7, 67, 0
9, 251388, Note_on_c, 7, 70, 67
9, 251648, Note_on_c, 7, 68, 81
9, 251656, Note_on_c, 7, 70, 0
9, 251928, Note_on_c, 7, 73, 74
9, 251968, Note_on_c, 7, 68, 0
9, 252456, Note_on_c, 7, 67, 73
9, 252484, Note_on_c, 7, 73, 0
9, 253076, Note_on_c, 7, 68, 68
9, 253156, Note_on_c, 7, 67, 0
9, 254348, Note_on_c, 7, 68, 0
9, 254348, End_track
10, 0, Start_track
10, 0, MIDI_port, 0
10, 0, Title_t, "Bassoon"
10, 0, Control_c, 8, 0, 0
10, 0, Control_c, 8, 32, 0
10, 0, Program_c, 8, 70
10, 0, Control_c, 8, 7, 60
10, 0, Control_c, 8, 91, 127
10, 16, Control_c, 8, 7, 40
10, 36, Control_c, 8, 91, 127
10, 2728, Note_on_c, 8, 62, 71
10, 3776, Note_on_c, 8, 61, 66
10, 3904, Note_on_c, 8, 62, 0
10, 4308, Note_on_c, 8, 60, 71
10, 4340, Note_on_c, 8, 61, 0
10, 4872, Note_on_c, 8, 60, 0
10, 7004, Note_on_c, 8, 63, 64
10, 7264, Note_on_c, 8, 63, 0
10, 7264, Note_on_c, 8, 65, 77
10, 7544, Note_on_c, 8, 58, 70
10, 7584, Note_on_c, 8, 65, 0
10, 8072, Note_on_c, 8, 63, 69
10, 8100, Note_on_c, 8, 58, 0
10, 8692, Note_on_c, 8, 56, 65
10, 8772, Note_on_c, 8, 63, 0
10, 9964, Note_on_c, 8, 56, 0
10, 111276, Note_on_c, 8, 55, 72
10, 111788, Note_on_c, 8, 56, 74
10, 111840, Note_on_c, 8, 55, 0
10, 111968, Note_on_c, 8, 61, 76
10, 112012, Note_on_c, 8, 56, 0
10, 112708, Note_on_c, 8, 63, 76
10, 112736, Note_on_c, 8, 61, 0
10, 113476, Note_on_c, 8, 63, 0
10, 113576, Note_on_c, 8, 56, 78
10, 113876, Note_on_c, 8, 56, 0
10, 221952, Control_c, 8, 7, 50
10, 221988, Note_on_c, 8, 51, 67
10, 222668, Note_on_c, 8, 51, 0
10, 222676, Note_on_c, 8, 60, 70
10, 223344, Note_on_c, 8, 60, 0
10, 223352, Note_on_c, 8, 61, 75
10, 223696, Note_on_c, 8, 60, 73
10, 223736, Note_on_c, 8, 61, 0
10, 224032, Note_on_c, 8, 58, 72
10, 224080, Note_on_c, 8, 60, 0
10, 224688, Note_on_c, 8, 58, 0
10, 224688, Note_on_c, 8, 63, 75
10, 225412, Note_on_c, 8, 56, 72
10, 225456, Note_on_c, 8, 63, 0
10, 226080, Note_on_c, 8, 56, 0
10, 226092, Note_on_c, 8, 55, 72
10, 226424, Note_on_c, 8, 53, 72
10, 226432, Note_on_c, 8, 55, 0
10, 226768, Note_on_c, 8, 53, 0
10, 226772, Note_on_c, 8, 55, 74
10, 227656, Note_on_c, 8, 55, 0
10, 228220, Note_on_c, 8, 56, 72
10, 228560, Note_on_c, 8, 56, 0
10, 228568, Note_on_c, 8, 60, 70
10, 228852, Note_on_c, 8, 60, 0
10, 228884, Note_on_c, 8, 63, 74
10, 230228, Note_on_c, 8, 63, 0
10, 230288, Note_on_c, 8, 58, 70
10, 230632, Note_on_c, 8, 60, 70
10, 230640, Note_on_c, 8, 58, 0
10, 231036, Note_on_c, 8, 60, 0
10, 231064, Note_on_c, 8, 61, 70
10, 231744, Note_on_c, 8, 61, 0
10, 231772, Note_on_c, 8, 63, 70
10, 232112, Note_on_c, 8, 63, 0
10, 232120, Note_on_c, 8, 65, 70
10, 232516, Note_on_c, 8, 63, 70
10, 232536, Note_on_c, 8, 65, 0
10, 233220, Note_on_c, 8, 63, 0
10, 233252, Note_on_c, 8, 60, 70
10, 233848, Note_on_c, 8, 60, 0
10, 234028, Note_on_c, 8, 56, 70
10, 234660, Note_on_c, 8, 56, 0
10, 234676, Note_on_c, 8, 58, 70
10, 235584, Note_on_c, 8, 58, 0
10, 235636, Note_on_c, 8, 60, 70
10, 236408, Note_on_c, 8, 60, 0
10, 236440, Note_on_c, 8, 50, 70
10, 237264, Note_on_c, 8, 50, 0
10, 237296, Note_on_c, 8, 51, 67
10, 244084, Note_on_c, 8, 51, 0
10, 244348, Note_on_c, 8, 44, 60
10, 245020, Note_on_c, 8, 44, 0
10, 247112, Note_on_c, 8, 62, 71
10, 248160, Note_on_c, 8, 61, 66
10, 248288, Note_on_c, 8, 62, 0
10, 248692, Note_on_c, 8, 60, 71
10, 248724, Note_on_c, 8, 61, 0
10, 249256, Note_on_c, 8, 60, 0
10, 251388, Note_on_c, 8, 63, 64
10, 251648, Note_on_c, 8, 63, 0
10, 251648, Note_on_c, 8, 65, 77
10, 251928, Note_on_c, 8, 58, 70
10, 251968, Note_on_c, 8, 65, 0
10, 252456, Note_on_c, 8, 63, 69
10, 252484, Note_on_c, 8, 58, 0
10, 253076, Note_on_c, 8, 56, 65
10, 253156, Note_on_c, 8, 63, 0
10, 254348, Note_on_c, 8, 56, 0
10, 254348, End_track
11, 0, Start_track
11, 0, MIDI_port, 0
11, 0, Title_t, "French Horns"
11, 0, Control_c, 10, 0, 0
11, 0, Control_c, 10, 32, 0
11, 0, Program_c, 10, 60
11, 0, Control_c, 10, 7, 50
11, 36, Control_c, 10, 91, 127
11, 169728, Note_on_c, 10, 63, 50
11, 169728, Note_on_c, 10, 51, 50
11, 170112, Note_on_c, 10, 51, 0
11, 170112, Note_on_c, 10, 63, 0
11, 170124, Note_on_c, 10, 51, 50
11, 170124, Note_on_c, 10, 63, 50
11, 170248, Note_on_c, 10, 63, 0
11, 170252, Note_on_c, 10, 51, 0
11, 170256, Note_on_c, 10, 51, 50
11, 170256, Note_on_c, 10, 63, 50
11, 171800, Note_on_c, 10, 51, 0
11, 171804, Note_on_c, 10, 63, 0
11, 171872, Note_on_c, 10, 51, 60
11, 171872, Note_on_c, 10, 63, 60
11, 172248, Note_on_c, 10, 63, 0
11, 172248, Note_on_c, 10, 51, 0
11, 172416, Note_on_c, 10, 63, 65
11, 172416, Note_on_c, 10, 51, 65
11, 172672, Note_on_c, 10, 51, 0
11, 172672, Note_on_c, 10, 63, 0
11, 172752, Note_on_c, 10, 63, 65
11, 172752, Note_on_c, 10, 51, 65
11, 172872, Note_on_c, 10, 51, 0
11, 172872, Note_on_c, 10, 63, 0
11, 172912, Note_on_c, 10, 51, 65
11, 172912, Note_on_c, 10, 63, 65
11, 174724, Note_on_c, 10, 63, 65
11, 174724, Note_on_c, 10, 51, 65
11, 174748, Note_on_c, 10, 51, 0
11, 174748, Note_on_c, 10, 63, 0
11, 175396, Note_on_c, 10, 63, 0
11, 175396, Note_on_c, 10, 51, 0
11, 237300, Note_on_c, 10, 68, 55
11, 237300, Note_on_c, 10, 60, 55
11, 240244, Note_on_c, 10, 60, 0
11, 240244, Note_on_c, 10, 68, 0
11, 240484, Note_on_c, 10, 70, 55
11, 240484, Note_on_c, 10, 63, 55
11, 243812, Note_on_c, 10, 63, 0
11, 243812, Note_on_c, 10, 70, 0
11, 244348, Note_on_c, 10, 68, 50
11, 244348, Note_on_c, 10, 60, 50
11, 245072, Note_on_c, 10, 60, 0
11, 245072, Note_on_c, 10, 68, 0
11, 245072, End_track
0, 0, End_of_file