0, 0, Header, 1, 6, 120
1, 0, Start_track
1, 0, MIDI_port, 0
1, 0, System_exclusive, 0A, 41, 10, 42, 12, 40, 00, 7F, 00, 41, F7
1, 0, MIDI_port, 0
1, 0, System_exclusive, 0A, 41, 10, 42, 12, 40, 01, 30, 03, 0C, F7
1, 0, MIDI_port, 0
1, 0, Time_signature, 3, 2, 24, 8
1, 0, Key_signature, -3, "major"
1, 0, Tempo, 300000
1, 0, Marker_t, "untitled"
1, 1018, Tempo, 1052632
1, 1082, Tempo, 1224490
1, 1123, Tempo, 952381
1, 1166, Tempo, 909091
1, 1263, Tempo, 857143
1, 1732, Tempo, 895522
1, 1754, Tempo, 909091
1, 1776, Tempo, 923077
1, 1960, Tempo, 882353
1, 1966, Tempo, 869565
1, 2338, Tempo, 882353
1, 2372, Tempo, 895522
1, 2406, Tempo, 909091
1, 2440, Tempo, 923077
1, 2474, Tempo, 937500
1, 2508, Tempo, 952381
1, 2520, Tempo, 1250000
1, 2552, Tempo, 937500
1, 2580, Tempo, 865801
1, 2640, Tempo, 855920
1, 2703, Tempo, 837989
1, 2880, Tempo, 852273
1, 2943, Tempo, 855920
1, 3356, Tempo, 847458
1, 3476, Tempo, 814111
1, 3603, Tempo, 834492
1, 3720, Tempo, 865801
1, 3840, Tempo, 900901
1, 3960, Tempo, 1052632
1, 4016, Tempo, 843882
1, 5246, Tempo, 833333
1, 5266, Tempo, 845070
1, 5286, Tempo, 857143
1, 5306, Tempo, 869565
1, 5324, Tempo, 882353
1, 5344, Tempo, 895522
1, 5364, Tempo, 909091
1, 5382, Tempo, 923077
1, 5400, Tempo, 1090909
1, 5432, Tempo, 952381
1, 5460, Tempo, 937500
1, 5488, Tempo, 923077
1, 5514, Tempo, 909091
1, 5542, Tempo, 895522
1, 5568, Tempo, 882353
1, 5596, Tempo, 869565
1, 5622, Tempo, 857143
1, 6390, Tempo, 846262
1, 6473, Tempo, 857143
1, 6536, Tempo, 872093
1, 6588, Tempo, 909091
1, 6606, Tempo, 923077
1, 6624, Tempo, 937500
1, 6640, Tempo, 952381
1, 6658, Tempo, 967742
1, 6668, Tempo, 952381
1, 6678, Tempo, 937500
1, 6686, Tempo, 923077
1, 6696, Tempo, 909091
1, 6704, Tempo, 895522
1, 6708, Tempo, 1016949
1, 6710, Tempo, 882353
1, 6724, Tempo, 895522
1, 6738, Tempo, 909091
1, 6752, Tempo, 923077
1, 6766, Tempo, 937500
1, 6778, Tempo, 952381
1, 6792, Tempo, 967742
1, 6806, Tempo, 983607
1, 6820, Tempo, 1000000
1, 6834, Tempo, 1016949
1, 6846, Tempo, 1250000
1, 6868, Tempo, 952381
1, 6906, Tempo, 895522
1, 6963, Tempo, 886263
1, 7033, Tempo, 870827
1, 7130, Tempo, 853485
1, 7326, Tempo, 843882
1, 7540, Tempo, 831025
1, 7753, Tempo, 823045
1, 8763, Tempo, 829876
1, 8863, Tempo, 842697
1, 8956, Tempo, 819672
1, 9050, Tempo, 804290
1, 9163, Tempo, 790514
1, 9576, Tempo, 801068
1, 9618, Tempo, 857143
1, 9660, Tempo, 887574
1, 9696, Tempo, 1016949
1, 9723, Tempo, 1282051
1, 9762, Tempo, 882353
1, 9816, Tempo, 852273
1, 9893, Tempo, 826446
1, 9976, Tempo, 803213
1, 10273, Tempo, 816327
1, 10333, Tempo, 853485
1, 10396, Tempo, 896861
1, 10466, Tempo, 868307
1, 10526, Tempo, 842697
1, 10616, Tempo, 820793
1, 10663, Tempo, 937500
1, 10733, Tempo, 949367
1, 10793, Tempo, 895522
1, 10880, Tempo, 869565
1, 10936, Tempo, 847458
1, 10993, Tempo, 882353
1, 11053, Tempo, 923077
1, 11106, Tempo, 983607
1, 11163, Tempo, 960000
1, 11203, Tempo, 845070
1, 11350, Tempo, 823045
1, 11520, Tempo, 816327
1, 11696, Tempo, 808625
1, 11700, Tempo, 809717
1, 11880, Tempo, 801068
1, 12233, Tempo, 808625
1, 12310, Tempo, 836820
1, 12413, Tempo, 860832
1, 12460, Tempo, 909091
1, 12514, Tempo, 1052632
1, 12566, Tempo, 1121495
1, 12596, Tempo, 1282051
1, 12630, Tempo, 1090909
1, 12663, Tempo, 902256
1, 12740, Tempo, 853485
1, 12806, Tempo, 833333
1, 14426, Tempo, 849858
1, 14603, Tempo, 868307
1, 14760, Tempo, 910470
1, 14883, Tempo, 829876
1, 15013, Tempo, 807537
1, 15136, Tempo, 793651
1, 15246, Tempo, 747198
1, 16203, Tempo, 774194
1, 16273, Tempo, 805369
1, 16360, Tempo, 845070
1, 16423, Tempo, 923077
1, 16500, Tempo, 975610
1, 16560, Tempo, 1132075
1, 16613, Tempo, 845070
1, 16680, Tempo, 810811
1, 16746, Tempo, 800000
1, 16840, Tempo, 816327
1, 16920, Tempo, 851064
1, 17040, Tempo, 875912
1, 17120, Tempo, 895522
1, 17203, Tempo, 930233
1, 17240, Tempo, 960000
1, 17286, Tempo, 916031
1, 17333, Tempo, 875912
1, 17390, Tempo, 845070
1, 17733, Tempo, 875912
1, 17816, Tempo, 895522
1, 17883, Tempo, 916031
1, 17946, Tempo, 952381
1, 17980, Tempo, 1034483
1, 18016, Tempo, 816327
1, 18183, Tempo, 750000
1, 18283, Tempo, 745342
1, 18286, Tempo, 750000
1, 18363, Tempo, 800000
1, 18473, Tempo, 745342
1, 18546, Tempo, 769231
1, 18636, Tempo, 800000
1, 18720, Tempo, 875912
1, 18963, Tempo, 930233
1, 19020, Tempo, 888889
1, 19083, Tempo, 863309
1, 19143, Tempo, 882353
1, 19200, Tempo, 902256
1, 19263, Tempo, 930233
1, 19323, Tempo, 967742
1, 19386, Tempo, 1081081
1, 19443, Tempo, 1034483
1, 19473, Tempo, 805369
1, 19913, Tempo, 875912
1, 19998, Tempo, 1090909
1, 20045, Tempo, 1008403
1, 20160, Tempo, 1237113
1, 20240, Tempo, 750000
1, 20643, Tempo, 714286
1, 20643, End_track
2, 0, Start_track
2, 0, MIDI_port, 0
2, 0, Title_t, "Etude No. 11"
2, 119, Control_c, 0, 93, 20
2, 119, Control_c, 0, 0, 0
2, 119, Control_c, 0, 91, 64
2, 122, Control_c, 0, 0, 0
2, 122, Program_c, 0, 0
2, 123, Control_c, 0, 7, 127
2, 300, Control_c, 0, 64, 127
2, 1021, Note_on_c, 0, 82, 56
2, 1034, Note_on_c, 0, 82, 0
2, 1058, Note_on_c, 0, 70, 36
2, 1067, Note_on_c, 0, 79, 41
2, 1069, Note_on_c, 0, 70, 0
2, 1077, Note_on_c, 0, 79, 0
2, 1078, Note_on_c, 0, 39, 53
2, 1080, Note_on_c, 0, 87, 56
2, 1084, Note_on_c, 0, 39, 0
2, 1085, Note_on_c, 0, 87, 0
2, 1121, Note_on_c, 0, 51, 43
2, 1128, Note_on_c, 0, 70, 40
2, 1129, Note_on_c, 0, 58, 46
2, 1131, Note_on_c, 0, 51, 0
2, 1136, Note_on_c, 0, 79, 46
2, 1140, Note_on_c, 0, 67, 47
2, 1142, Note_on_c, 0, 82, 50
2, 1145, Note_on_c, 0, 58, 0
2, 1148, Note_on_c, 0, 70, 0
2, 1150, Note_on_c, 0, 67, 0
2, 1156, Note_on_c, 0, 79, 0
2, 1164, Note_on_c, 0, 82, 0
2, 1181, Note_on_c, 0, 51, 42
2, 1183, Note_on_c, 0, 70, 47
2, 1188, Note_on_c, 0, 51, 0
2, 1188, Note_on_c, 0, 58, 43
2, 1189, Note_on_c, 0, 79, 50
2, 1197, Note_on_c, 0, 67, 45
2, 1201, Note_on_c, 0, 81, 59
2, 1202, Note_on_c, 0, 58, 0
2, 1205, Note_on_c, 0, 67, 0
2, 1210, Note_on_c, 0, 79, 0
2, 1212, Note_on_c, 0, 70, 0
2, 1220, Note_on_c, 0, 81, 0
2, 1241, Note_on_c, 0, 51, 45
2, 1242, Note_on_c, 0, 70, 41
2, 1250, Note_on_c, 0, 51, 0
2, 1250, Note_on_c, 0, 58, 45
2, 1253, Note_on_c, 0, 79, 45
2, 1255, Note_on_c, 0, 82, 55
2, 1258, Note_on_c, 0, 67, 46
2, 1264, Note_on_c, 0, 58, 0
2, 1264, Note_on_c, 0, 70, 0
2, 1265, Note_on_c, 0, 79, 0
2, 1271, Note_on_c, 0, 67, 0
2, 1276, Note_on_c, 0, 82, 0
2, 1295, Note_on_c, 0, 51, 47
2, 1297, Note_on_c, 0, 70, 40
2, 1305, Note_on_c, 0, 58, 48
2, 1307, Note_on_c, 0, 51, 0
2, 1309, Note_on_c, 0, 79, 46
2, 1315, Note_on_c, 0, 67, 50
2, 1319, Note_on_c, 0, 70, 0
2, 1320, Note_on_c, 0, 84, 59
2, 1325, Note_on_c, 0, 58, 0
2, 1325, Note_on_c, 0, 67, 0
2, 1328, Note_on_c, 0, 79, 0
2, 1336, Note_on_c, 0, 84, 0
2, 1355, Note_on_c, 0, 51, 48
2, 1360, Note_on_c, 0, 70, 40
2, 1365, Note_on_c, 0, 58, 51
2, 1367, Note_on_c, 0, 51, 0
2, 1370, Note_on_c, 0, 79, 47
2, 1376, Note_on_c, 0, 67, 53
2, 1378, Note_on_c, 0, 82, 57
2, 1385, Note_on_c, 0, 79, 0
2, 1385, Note_on_c, 0, 70, 0
2, 1386, Note_on_c, 0, 58, 0
2, 1390, Note_on_c, 0, 67, 0
2, 1396, Note_on_c, 0, 82, 0
2, 1412, Note_on_c, 0, 70, 45
2, 1412, Control_c, 0, 64, 0
2, 1418, Note_on_c, 0, 50, 42
2, 1423, Note_on_c, 0, 80, 48
2, 1425, Note_on_c, 0, 70, 0
2, 1426, Control_c, 0, 64, 127
2, 1427, Note_on_c, 0, 50, 0
2, 1428, Note_on_c, 0, 58, 42
2, 1436, Note_on_c, 0, 80, 0
2, 1440, Note_on_c, 0, 89, 61
2, 1440, Note_on_c, 0, 68, 47
2, 1445, Note_on_c, 0, 68, 0
2, 1446, Note_on_c, 0, 58, 0
2, 1449, Note_on_c, 0, 89, 0
2, 1478, Note_on_c, 0, 50, 41
2, 1482, Note_on_c, 0, 70, 35
2, 1485, Note_on_c, 0, 50, 0
2, 1485, Note_on_c, 0, 58, 42
2, 1490, Note_on_c, 0, 80, 43
2, 1498, Note_on_c, 0, 82, 58
2, 1498, Note_on_c, 0, 68, 43
2, 1504, Note_on_c, 0, 58, 0
2, 1505, Note_on_c, 0, 68, 0
2, 1506, Note_on_c, 0, 70, 0
2, 1519, Note_on_c, 0, 80, 0
2, 1524, Note_on_c, 0, 82, 0
2, 1537, Note_on_c, 0, 50, 47
2, 1538, Note_on_c, 0, 70, 43
2, 1542, Note_on_c, 0, 50, 0
2, 1544, Note_on_c, 0, 58, 50
2, 1546, Note_on_c, 0, 80, 48
2, 1557, Note_on_c, 0, 81, 58
2, 1557, Note_on_c, 0, 68, 51
2, 1564, Note_on_c, 0, 70, 0
2, 1565, Note_on_c, 0, 68, 0
2, 1566, Note_on_c, 0, 58, 0
2, 1572, Note_on_c, 0, 80, 0
2, 1580, Note_on_c, 0, 81, 0
2, 1597, Note_on_c, 0, 70, 43
2, 1598, Note_on_c, 0, 50, 46
2, 1606, Note_on_c, 0, 80, 47
2, 1607, Note_on_c, 0, 58, 48
2, 1609, Note_on_c, 0, 50, 0
2, 1618, Note_on_c, 0, 82, 59
2, 1619, Note_on_c, 0, 68, 50
2, 1625, Note_on_c, 0, 68, 0
2, 1626, Note_on_c, 0, 70, 0
2, 1629, Note_on_c, 0, 58, 0
2, 1630, Note_on_c, 0, 80, 0
2, 1640, Note_on_c, 0, 82, 0
2, 1654, Note_on_c, 0, 70, 41
2, 1659, Note_on_c, 0, 50, 47
2, 1665, Note_on_c, 0, 58, 50
2, 1666, Note_on_c, 0, 50, 0
2, 1668, Note_on_c, 0, 80, 47
2, 1675, Note_on_c, 0, 70, 0
2, 1678, Note_on_c, 0, 84, 57
2, 1682, Note_on_c, 0, 68, 55
2, 1690, Note_on_c, 0, 68, 0
2, 1691, Note_on_c, 0, 80, 0
2, 1698, Note_on_c, 0, 84, 0
2, 1700, Note_on_c, 0, 58, 0
2, 1714, Note_on_c, 0, 70, 42
2, 1718, Note_on_c, 0, 50, 55
2, 1727, Note_on_c, 0, 58, 55
2, 1728, Note_on_c, 0, 80, 50
2, 1731, Note_on_c, 0, 50, 0
2, 1738, Note_on_c, 0, 82, 57
2, 1741, Note_on_c, 0, 68, 59
2, 1742, Note_on_c, 0, 70, 0
2, 1748, Note_on_c, 0, 68, 0
2, 1751, Note_on_c, 0, 80, 0
2, 1752, Note_on_c, 0, 58, 0
2, 1755, Note_on_c, 0, 82, 0
2, 1766, Note_on_c, 0, 70, 40
2, 1775, Control_c, 0, 64, 0
2, 1777, Note_on_c, 0, 79, 47
2, 1777, Note_on_c, 0, 51, 46
2, 1780, Note_on_c, 0, 70, 0
2, 1785, Note_on_c, 0, 82, 48
2, 1787, Note_on_c, 0, 58, 47
2, 1788, Note_on_c, 0, 79, 0
2, 1788, Control_c, 0, 64, 127
2, 1791, Note_on_c, 0, 51, 0
2, 1793, Note_on_c, 0, 82, 0
2, 1799, Note_on_c, 0, 67, 48
2, 1800, Note_on_c, 0, 91, 59
2, 1808, Note_on_c, 0, 91, 0
2, 1809, Note_on_c, 0, 67, 0
2, 1813, Note_on_c, 0, 58, 0
2, 1837, Control_c, 0, 64, 0
2, 1837, Note_on_c, 0, 53, 41
2, 1841, Note_on_c, 0, 70, 45
2, 1847, Control_c, 0, 64, 127
2, 1847, Note_on_c, 0, 58, 45
2, 1849, Note_on_c, 0, 53, 0
2, 1850, Note_on_c, 0, 74, 50
2, 1854, Note_on_c, 0, 82, 50
2, 1855, Note_on_c, 0, 62, 45
2, 1861, Note_on_c, 0, 70, 0
2, 1861, Note_on_c, 0, 68, 47
2, 1863, Note_on_c, 0, 74, 0
2, 1863, Note_on_c, 0, 86, 61
2, 1864, Note_on_c, 0, 62, 0
2, 1869, Note_on_c, 0, 58, 0
2, 1872, Note_on_c, 0, 82, 0
2, 1875, Note_on_c, 0, 86, 0
2, 1877, Note_on_c, 0, 68, 0
2, 1893, Control_c, 0, 64, 0
2, 1895, Note_on_c, 0, 70, 43
2, 1901, Note_on_c, 0, 55, 45
2, 1904, Control_c, 0, 64, 127
2, 1907, Note_on_c, 0, 75, 47
2, 1907, Note_on_c, 0, 58, 46
2, 1914, Note_on_c, 0, 82, 56
2, 1915, Note_on_c, 0, 63, 47
2, 1916, Note_on_c, 0, 70, 0
2, 1920, Note_on_c, 0, 75, 0
2, 1920, Note_on_c, 0, 67, 47
2, 1921, Note_on_c, 0, 55, 0
2, 1921, Note_on_c, 0, 87, 66
2, 1926, Note_on_c, 0, 82, 0
2, 1928, Note_on_c, 0, 58, 0
2, 1929, Note_on_c, 0, 63, 0
2, 1931, Note_on_c, 0, 67, 0
2, 1933, Note_on_c, 0, 87, 0
2, 1960, Note_on_c, 0, 71, 51
2, 1961, Note_on_c, 0, 43, 53
2, 1969, Note_on_c, 0, 51, 55
2, 1970, Note_on_c, 0, 71, 0
2, 1970, Note_on_c, 0, 75, 55
2, 1971, Note_on_c, 0, 43, 0
2, 1978, Note_on_c, 0, 59, 57
2, 1981, Note_on_c, 0, 75, 0
2, 1983, Note_on_c, 0, 86, 64
2, 1984, Note_on_c, 0, 51, 0
2, 1988, Note_on_c, 0, 86, 0
2, 1988, Note_on_c, 0, 59, 0
2, 2019, Control_c, 0, 64, 0
2, 2022, Note_on_c, 0, 44, 57
2, 2025, Note_on_c, 0, 72, 56
2, 2029, Note_on_c, 0, 51, 58
2, 2030, Note_on_c, 0, 44, 0
2, 2030, Control_c, 0, 64, 127
2, 2032, Note_on_c, 0, 75, 58
2, 2037, Note_on_c, 0, 60, 61
2, 2040, Note_on_c, 0, 51, 0
2, 2043, Note_on_c, 0, 60, 0
2, 2045, Note_on_c, 0, 84, 71
2, 2054, Note_on_c, 0, 72, 0
2, 2057, Note_on_c, 0, 75, 0
2, 2064, Note_on_c, 0, 84, 0
2, 2075, Note_on_c, 0, 45, 57
2, 2080, Control_c, 0, 64, 0
2, 2082, Note_on_c, 0, 53, 59
2, 2083, Note_on_c, 0, 72, 57
2, 2086, Note_on_c, 0, 45, 0
2, 2089, Control_c, 0, 64, 127
2, 2091, Note_on_c, 0, 77, 61
2, 2097, Note_on_c, 0, 53, 0
2, 2098, Note_on_c, 0, 63, 63
2, 2100, Note_on_c, 0, 72, 0
2, 2104, Note_on_c, 0, 63, 0
2, 2104, Note_on_c, 0, 89, 72
2, 2108, Note_on_c, 0, 77, 0
2, 2116, Note_on_c, 0, 89, 0
2, 2137, Note_on_c, 0, 46, 59
2, 2144, Note_on_c, 0, 51, 61
2, 2145, Note_on_c, 0, 70, 53
2, 2145, Control_c, 0, 64, 0
2, 2151, Note_on_c, 0, 46, 0
2, 2152, Control_c, 0, 64, 127
2, 2153, Note_on_c, 0, 55, 63
2, 2156, Note_on_c, 0, 70, 0
2, 2156, Note_on_c, 0, 79, 61
2, 2159, Note_on_c, 0, 51, 0
2, 2159, Note_on_c, 0, 63, 64
2, 2165, Note_on_c, 0, 79, 0
2, 2167, Note_on_c, 0, 87, 77
2, 2171, Note_on_c, 0, 55, 0
2, 2172, Note_on_c, 0, 63, 0
2, 2176, Note_on_c, 0, 87, 0
2, 2198, Note_on_c, 0, 46, 58
2, 2204, Control_c, 0, 64, 0
2, 2206, Note_on_c, 0, 54, 58
2, 2209, Note_on_c, 0, 72, 48
2, 2213, Control_c, 0, 64, 127
2, 2214, Note_on_c, 0, 46, 0
2, 2214, Note_on_c, 0, 78, 48
2, 2215, Note_on_c, 0, 72, 0
2, 2215, Note_on_c, 0, 57, 59
2, 2221, Note_on_c, 0, 54, 0
2, 2221, Note_on_c, 0, 81, 52
2, 2223, Note_on_c, 0, 63, 61
2, 2227, Note_on_c, 0, 78, 0
2, 2228, Note_on_c, 0, 87, 71
2, 2230, Note_on_c, 0, 81, 0
2, 2231, Note_on_c, 0, 57, 0
2, 2234, Note_on_c, 0, 63, 0
2, 2240, Note_on_c, 0, 87, 0
2, 2257, Note_on_c, 0, 46, 61
2, 2266, Note_on_c, 0, 53, 61
2, 2267, Control_c, 0, 64, 0
2, 2268, Note_on_c, 0, 70, 46
2, 2269, Note_on_c, 0, 46, 0
2, 2274, Note_on_c, 0, 77, 50
2, 2275, Control_c, 0, 64, 127
2, 2275, Note_on_c, 0, 58, 61
2, 2281, Note_on_c, 0, 70, 0
2, 2282, Note_on_c, 0, 53, 0
2, 2282, Note_on_c, 0, 82, 57
2, 2284, Note_on_c, 0, 62, 61
2, 2287, Note_on_c, 0, 77, 0
2, 2287, Note_on_c, 0, 58, 0
2, 2287, Note_on_c, 0, 86, 67
2, 2292, Note_on_c, 0, 82, 0
2, 2292, Note_on_c, 0, 62, 0
2, 2294, Note_on_c, 0, 86, 0
2, 2323, Note_on_c, 0, 48, 58
2, 2327, Note_on_c, 0, 70, 43
2, 2327, Control_c, 0, 64, 0
2, 2330, Note_on_c, 0, 55, 59
2, 2336, Note_on_c, 0, 76, 52
2, 2336, Control_c, 0, 64, 127
2, 2336, Note_on_c, 0, 58, 59
2, 2339, Note_on_c, 0, 48, 0
2, 2340, Note_on_c, 0, 79, 53
2, 2343, Note_on_c, 0, 64, 59
2, 2346, Note_on_c, 0, 85, 63
2, 2349, Note_on_c, 0, 70, 0
2, 2350, Note_on_c, 0, 55, 0
2, 2352, Note_on_c, 0, 76, 0
2, 2353, Note_on_c, 0, 58, 0
2, 2354, Note_on_c, 0, 64, 0
2, 2355, Note_on_c, 0, 79, 0
2, 2361, Note_on_c, 0, 85, 0
2, 2383, Note_on_c, 0, 48, 58
2, 2385, Control_c, 0, 64, 0
2, 2386, Note_on_c, 0, 68, 45
2, 2392, Note_on_c, 0, 56, 58
2, 2393, Note_on_c, 0, 48, 0
2, 2393, Note_on_c, 0, 77, 52
2, 2393, Control_c, 0, 64, 127
2, 2394, Note_on_c, 0, 68, 0
2, 2397, Note_on_c, 0, 80, 55
2, 2405, Note_on_c, 0, 65, 58
2, 2406, Note_on_c, 0, 56, 0
2, 2407, Note_on_c, 0, 84, 63
2, 2409, Note_on_c, 0, 77, 0
2, 2410, Note_on_c, 0, 65, 0
2, 2414, Note_on_c, 0, 80, 0
2, 2417, Note_on_c, 0, 84, 0
2, 2437, Note_on_c, 0, 48, 50
2, 2440, Control_c, 0, 64, 0
2, 2444, Note_on_c, 0, 55, 48
2, 2446, Note_on_c, 0, 72, 48
2, 2450, Control_c, 0, 64, 127
2, 2451, Note_on_c, 0, 79, 59
2, 2452, Note_on_c, 0, 48, 0
2, 2454, Note_on_c, 0, 60, 48
2, 2456, Note_on_c, 0, 82, 53
2, 2464, Note_on_c, 0, 67, 47
2, 2465, Note_on_c, 0, 55, 0
2, 2466, Note_on_c, 0, 88, 62
2, 2468, Note_on_c, 0, 60, 0
2, 2468, Note_on_c, 0, 79, 0
2, 2471, Note_on_c, 0, 72, 0
2, 2473, Note_on_c, 0, 67, 0
2, 2477, Note_on_c, 0, 82, 0
2, 2483, Note_on_c, 0, 88, 0
2, 2501, Control_c, 0, 64, 0
2, 2503, Note_on_c, 0, 72, 43
2, 2508, Note_on_c, 0, 80, 45
2, 2511, Control_c, 0, 64, 127
2, 2513, Note_on_c, 0, 72, 0
2, 2520, Note_on_c, 0, 41, 57
2, 2523, Note_on_c, 0, 89, 57
2, 2524, Note_on_c, 0, 80, 0
2, 2528, Note_on_c, 0, 41, 0
2, 2533, Note_on_c, 0, 89, 0
2, 2563, Note_on_c, 0, 53, 51
2, 2565, Note_on_c, 0, 72, 43
2, 2570, Note_on_c, 0, 80, 47
2, 2574, Note_on_c, 0, 60, 52
2, 2575, Note_on_c, 0, 53, 0
2, 2580, Note_on_c, 0, 84, 57
2, 2583, Note_on_c, 0, 68, 53
2, 2592, Note_on_c, 0, 60, 0
2, 2595, Note_on_c, 0, 68, 0
2, 2598, Note_on_c, 0, 72, 0
2, 2601, Note_on_c, 0, 80, 0
2, 2612, Note_on_c, 0, 84, 0
2, 2617, Note_on_c, 0, 53, 46
2, 2624, Note_on_c, 0, 71, 39
2, 2626, Note_on_c, 0, 60, 47
2, 2629, Note_on_c, 0, 53, 0
2, 2629, Note_on_c, 0, 80, 40
2, 2636, Note_on_c, 0, 68, 50
2, 2641, Note_on_c, 0, 83, 56
2, 2642, Note_on_c, 0, 71, 0
2, 2650, Note_on_c, 0, 68, 0
2, 2652, Note_on_c, 0, 60, 0
2, 2653, Note_on_c, 0, 80, 0
2, 2660, Note_on_c, 0, 83, 0
2, 2676, Note_on_c, 0, 53, 46
2, 2682, Note_on_c, 0, 72, 40
2, 2688, Note_on_c, 0, 60, 47
2, 2690, Note_on_c, 0, 80, 45
2, 2692, Note_on_c, 0, 53, 0
2, 2699, Note_on_c, 0, 84, 55
2, 2699, Note_on_c, 0, 68, 47
2, 2703, Note_on_c, 0, 72, 0
2, 2707, Note_on_c, 0, 80, 0
2, 2710, Note_on_c, 0, 68, 0
2, 2711, Note_on_c, 0, 60, 0
2, 2732, Note_on_c, 0, 84, 0
2, 2733, Note_on_c, 0, 53, 46
2, 2742, Note_on_c, 0, 73, 41
2, 2743, Note_on_c, 0, 60, 47
2, 2746, Note_on_c, 0, 80, 43
2, 2747, Note_on_c, 0, 53, 0
2, 2755, Note_on_c, 0, 68, 48
2, 2758, Note_on_c, 0, 85, 55
2, 2759, Note_on_c, 0, 73, 0
2, 2766, Note_on_c, 0, 80, 0
2, 2767, Note_on_c, 0, 60, 0
2, 2769, Note_on_c, 0, 68, 0
2, 2790, Note_on_c, 0, 85, 0
2, 2794, Note_on_c, 0, 53, 48
2, 2800, Note_on_c, 0, 72, 41
2, 2802, Note_on_c, 0, 60, 50
2, 2807, Note_on_c, 0, 53, 0
2, 2807, Note_on_c, 0, 80, 46
2, 2813, Note_on_c, 0, 68, 51
2, 2818, Note_on_c, 0, 84, 52
2, 2822, Note_on_c, 0, 72, 0
2, 2827, Note_on_c, 0, 80, 0
2, 2829, Note_on_c, 0, 60, 0
2, 2829, Note_on_c, 0, 68, 0
2, 2844, Note_on_c, 0, 84, 0
2, 2852, Note_on_c, 0, 72, 37
2, 2856, Note_on_c, 0, 52, 43
2, 2859, Control_c, 0, 64, 0
2, 2860, Note_on_c, 0, 79, 42
2, 2864, Note_on_c, 0, 58, 45
2, 2866, Control_c, 0, 64, 127
2, 2867, Note_on_c, 0, 72, 0
2, 2867, Note_on_c, 0, 82, 48
2, 2871, Note_on_c, 0, 52, 0
2, 2871, Note_on_c, 0, 79, 0
2, 2873, Note_on_c, 0, 60, 45
2, 2875, Note_on_c, 0, 82, 0
2, 2877, Note_on_c, 0, 67, 46
2, 2882, Note_on_c, 0, 91, 58
2, 2885, Note_on_c, 0, 60, 0
2, 2888, Note_on_c, 0, 67, 0
2, 2889, Note_on_c, 0, 58, 0
2, 2891, Note_on_c, 0, 91, 0
2, 2916, Note_on_c, 0, 52, 42
2, 2921, Note_on_c, 0, 72, 45
2, 2924, Note_on_c, 0, 58, 43
2, 2928, Note_on_c, 0, 79, 53
2, 2930, Note_on_c, 0, 60, 45
2, 2931, Note_on_c, 0, 52, 0
2, 2931, Note_on_c, 0, 82, 53
2, 2937, Note_on_c, 0, 67, 45
2, 2942, Note_on_c, 0, 84, 63
2, 2945, Note_on_c, 0, 58, 0
2, 2946, Note_on_c, 0, 60, 0
2, 2948, Note_on_c, 0, 67, 0
2, 2951, Note_on_c, 0, 72, 0
2, 2952, Note_on_c, 0, 79, 0
2, 2962, Note_on_c, 0, 82, 0
2, 2974, Note_on_c, 0, 84, 0
2, 2974, Note_on_c, 0, 52, 48
2, 2983, Note_on_c, 0, 71, 45
2, 2983, Note_on_c, 0, 58, 48
2, 2987, Note_on_c, 0, 79, 47
2, 2988, Note_on_c, 0, 60, 50
2, 2990, Note_on_c, 0, 52, 0
2, 2994, Note_on_c, 0, 82, 52
2, 2997, Note_on_c, 0, 67, 50
2, 3001, Note_on_c, 0, 83, 67
2, 3005, Note_on_c, 0, 58, 0
2, 3006, Note_on_c, 0, 60, 0
2, 3006, Note_on_c, 0, 79, 0
2, 3008, Note_on_c, 0, 71, 0
2, 3009, Note_on_c, 0, 67, 0
2, 3016, Note_on_c, 0, 82, 0
2, 3034, Note_on_c, 0, 83, 0
2, 3039, Note_on_c, 0, 52, 50
2, 3041, Note_on_c, 0, 72, 48
2, 3045, Note_on_c, 0, 58, 51
2, 3046, Note_on_c, 0, 79, 55
2, 3051, Note_on_c, 0, 82, 50
2, 3053, Note_on_c, 0, 60, 51
2, 3055, Note_on_c, 0, 52, 0
2, 3060, Note_on_c, 0, 67, 52
2, 3061, Note_on_c, 0, 84, 69
2, 3069, Note_on_c, 0, 58, 0
2, 3072, Note_on_c, 0, 72, 0
2, 3072, Note_on_c, 0, 60, 0
2, 3072, Note_on_c, 0, 67, 0
2, 3073, Note_on_c, 0, 79, 0
2, 3082, Note_on_c, 0, 82, 0
2, 3093, Note_on_c, 0, 84, 0
2, 3098, Note_on_c, 0, 52, 52
2, 3105, Note_on_c, 0, 73, 50
2, 3107, Note_on_c, 0, 58, 52
2, 3108, Note_on_c, 0, 79, 52
2, 3110, Note_on_c, 0, 60, 53
2, 3112, Note_on_c, 0, 82, 50
2, 3113, Note_on_c, 0, 52, 0
2, 3119, Note_on_c, 0, 67, 53
2, 3122, Note_on_c, 0, 85, 71
2, 3123, Note_on_c, 0, 79, 0
2, 3126, Note_on_c, 0, 73, 0
2, 3131, Note_on_c, 0, 60, 0
2, 3131, Note_on_c, 0, 67, 0
2, 3133, Note_on_c, 0, 82, 0
2, 3134, Note_on_c, 0, 58, 0
2, 3153, Note_on_c, 0, 85, 0
2, 3157, Note_on_c, 0, 52, 56
2, 3161, Note_on_c, 0, 72, 51
2, 3165, Note_on_c, 0, 58, 56
2, 3167, Note_on_c, 0, 79, 57
2, 3171, Note_on_c, 0, 82, 59
2, 3171, Note_on_c, 0, 60, 56
2, 3174, Note_on_c, 0, 52, 0
2, 3178, Note_on_c, 0, 67, 57
2, 3185, Note_on_c, 0, 58, 0
2, 3185, Note_on_c, 0, 84, 73
2, 3187, Note_on_c, 0, 60, 0
2, 3188, Note_on_c, 0, 79, 0
2, 3189, Note_on_c, 0, 67, 0
2, 3190, Note_on_c, 0, 72, 0
2, 3196, Note_on_c, 0, 82, 0
2, 3202, Note_on_c, 0, 84, 0
2, 3216, Note_on_c, 0, 72, 46
2, 3216, Control_c, 0, 64, 0
2, 3219, Note_on_c, 0, 53, 61
2, 3225, Note_on_c, 0, 80, 52
2, 3226, Note_on_c, 0, 56, 61
2, 3227, Control_c, 0, 64, 127
2, 3229, Note_on_c, 0, 72, 0
2, 3233, Note_on_c, 0, 60, 62
2, 3234, Note_on_c, 0, 84, 59
2, 3236, Note_on_c, 0, 53, 0
2, 3240, Note_on_c, 0, 84, 0
2, 3241, Note_on_c, 0, 68, 63
2, 3242, Note_on_c, 0, 80, 0
2, 3244, Note_on_c, 0, 56, 0
2, 3248, Note_on_c, 0, 60, 0
2, 3249, Note_on_c, 0, 92, 77
2, 3256, Note_on_c, 0, 92, 0
2, 3256, Note_on_c, 0, 68, 0
2, 3280, Control_c, 0, 64, 0
2, 3281, Note_on_c, 0, 75, 52
2, 3282, Note_on_c, 0, 55, 62
2, 3287, Control_c, 0, 64, 127
2, 3287, Note_on_c, 0, 58, 62
2, 3289, Note_on_c, 0, 82, 62
2, 3293, Note_on_c, 0, 55, 0
2, 3297, Note_on_c, 0, 75, 0
2, 3297, Note_on_c, 0, 63, 63
2, 3300, Note_on_c, 0, 87, 67
2, 3303, Note_on_c, 0, 70, 66
2, 3305, Note_on_c, 0, 58, 0
2, 3307, Note_on_c, 0, 82, 0
2, 3307, Note_on_c, 0, 91, 75
2, 3310, Note_on_c, 0, 63, 0
2, 3318, Note_on_c, 0, 70, 0
2, 3318, Note_on_c, 0, 87, 0
2, 3323, Note_on_c, 0, 91, 0
2, 3336, Control_c, 0, 64, 0
2, 3343, Note_on_c, 0, 56, 66
2, 3344, Note_on_c, 0, 77, 58
2, 3345, Control_c, 0, 64, 127
2, 3350, Note_on_c, 0, 63, 67
2, 3352, Note_on_c, 0, 56, 0
2, 3353, Note_on_c, 0, 84, 61
2, 3354, Note_on_c, 0, 87, 63
2, 3360, Note_on_c, 0, 63, 0
2, 3362, Note_on_c, 0, 89, 75
2, 3362, Note_on_c, 0, 72, 68
2, 3369, Note_on_c, 0, 72, 0
2, 3370, Note_on_c, 0, 77, 0
2, 3371, Note_on_c, 0, 84, 0
2, 3376, Note_on_c, 0, 87, 0
2, 3385, Note_on_c, 0, 89, 0
2, 3398, Note_on_c, 0, 56, 66
2, 3407, Note_on_c, 0, 75, 61
2, 3412, Note_on_c, 0, 65, 68
2, 3413, Note_on_c, 0, 83, 64
2, 3415, Note_on_c, 0, 56, 0
2, 3416, Note_on_c, 0, 87, 67
2, 3419, Note_on_c, 0, 71, 68
2, 3422, Note_on_c, 0, 75, 0
2, 3426, Note_on_c, 0, 89, 78
2, 3432, Note_on_c, 0, 83, 0
2, 3432, Note_on_c, 0, 65, 0
2, 3437, Note_on_c, 0, 71, 0
2, 3439, Note_on_c, 0, 87, 0
2, 3442, Note_on_c, 0, 89, 0
2, 3459, Control_c, 0, 64, 0
2, 3462, Note_on_c, 0, 58, 64
2, 3463, Note_on_c, 0, 74, 53
2, 3470, Note_on_c, 0, 82, 68
2, 3470, Control_c, 0, 64, 127
2, 3472, Note_on_c, 0, 65, 66
2, 3478, Note_on_c, 0, 74, 0
2, 3479, Note_on_c, 0, 70, 67
2, 3482, Note_on_c, 0, 89, 77
2, 3487, Note_on_c, 0, 82, 0
2, 3488, Note_on_c, 0, 65, 0
2, 3489, Note_on_c, 0, 58, 0
2, 3495, Note_on_c, 0, 70, 0
2, 3496, Note_on_c, 0, 89, 0
2, 3519, Note_on_c, 0, 74, 55
2, 3523, Note_on_c, 0, 58, 58
2, 3528, Note_on_c, 0, 80, 64
2, 3530, Note_on_c, 0, 74, 0
2, 3534, Note_on_c, 0, 65, 59
2, 3538, Note_on_c, 0, 80, 0
2, 3541, Note_on_c, 0, 91, 80
2, 3543, Note_on_c, 0, 68, 62
2, 3549, Note_on_c, 0, 91, 0
2, 3549, Note_on_c, 0, 58, 0
2, 3550, Note_on_c, 0, 65, 0
2, 3557, Note_on_c, 0, 68, 0
2, 3584, Note_on_c, 0, 75, 53
2, 3585, Control_c, 0, 64, 0
2, 3591, Note_on_c, 0, 79, 64
2, 3594, Control_c, 0, 64, 127
2, 3594, Note_on_c, 0, 63, 56
2, 3600, Note_on_c, 0, 87, 82
2, 3600, Note_on_c, 0, 67, 62
2, 3608, Note_on_c, 0, 63, 0
2, 3611, Note_on_c, 0, 79, 0
2, 3612, Note_on_c, 0, 75, 0
2, 3616, Note_on_c, 0, 67, 0
2, 3618, Note_on_c, 0, 87, 0
2, 3641, Note_on_c, 0, 57, 58
2, 3643, Control_c, 0, 64, 0
2, 3648, Note_on_c, 0, 75, 56
2, 3649, Note_on_c, 0, 66, 59
2, 3651, Note_on_c, 0, 57, 0
2, 3651, Control_c, 0, 64, 127
2, 3654, Note_on_c, 0, 78, 59
2, 3659, Note_on_c, 0, 72, 61
2, 3662, Note_on_c, 0, 87, 74
2, 3670, Note_on_c, 0, 66, 0
2, 3672, Note_on_c, 0, 72, 0
2, 3673, Note_on_c, 0, 75, 0
2, 3674, Note_on_c, 0, 78, 0
2, 3682, Note_on_c, 0, 87, 0
2, 3702, Note_on_c, 0, 74, 53
2, 3704, Control_c, 0, 64, 0
2, 3704, Note_on_c, 0, 58, 58
2, 3711, Note_on_c, 0, 77, 58
2, 3713, Control_c, 0, 64, 127
2, 3713, Note_on_c, 0, 65, 59
2, 3717, Note_on_c, 0, 70, 61
2, 3721, Note_on_c, 0, 86, 72
2, 3723, Note_on_c, 0, 58, 0
2, 3725, Note_on_c, 0, 65, 0
2, 3728, Note_on_c, 0, 74, 0
2, 3730, Note_on_c, 0, 70, 0
2, 3732, Note_on_c, 0, 77, 0
2, 3737, Note_on_c, 0, 86, 0
2, 3760, Control_c, 0, 64, 0
2, 3760, Note_on_c, 0, 52, 56
2, 3766, Note_on_c, 0, 70, 51
2, 3769, Control_c, 0, 64, 127
2, 3770, Note_on_c, 0, 61, 57
2, 3773, Note_on_c, 0, 52, 0
2, 3775, Note_on_c, 0, 79, 57
2, 3781, Note_on_c, 0, 85, 71
2, 3782, Note_on_c, 0, 67, 57
2, 3789, Note_on_c, 0, 79, 0
2, 3791, Note_on_c, 0, 70, 0
2, 3793, Note_on_c, 0, 61, 0
2, 3798, Note_on_c, 0, 67, 0
2, 3802, Note_on_c, 0, 85, 0
2, 3815, Control_c, 0, 64, 0
2, 3824, Note_on_c, 0, 68, 46
2, 3824, Note_on_c, 0, 53, 61
2, 3826, Control_c, 0, 64, 127
2, 3832, Note_on_c, 0, 68, 0
2, 3832, Note_on_c, 0, 60, 61
2, 3833, Note_on_c, 0, 80, 48
2, 3838, Note_on_c, 0, 80, 0
2, 3840, Note_on_c, 0, 84, 68
2, 3840, Note_on_c, 0, 65, 62
2, 3848, Note_on_c, 0, 60, 0
2, 3848, Note_on_c, 0, 53, 0
2, 3852, Note_on_c, 0, 84, 0
2, 3852, Note_on_c, 0, 65, 0
2, 3876, Note_on_c, 0, 46, 57
2, 3884, Note_on_c, 0, 68, 47
2, 3885, Note_on_c, 0, 53, 57
2, 3890, Note_on_c, 0, 46, 0
2, 3890, Note_on_c, 0, 77, 50
2, 3892, Note_on_c, 0, 68, 0
2, 3892, Note_on_c, 0, 56, 57
2, 3900, Note_on_c, 0, 62, 58
2, 3901, Note_on_c, 0, 77, 0
2, 3902, Note_on_c, 0, 53, 0
2, 3902, Note_on_c, 0, 86, 68
2, 3908, Note_on_c, 0, 56, 0
2, 3909, Note_on_c, 0, 86, 0
2, 3912, Note_on_c, 0, 62, 0
2, 3940, Control_c, 0, 64, 0
2, 3944, Note_on_c, 0, 67, 42
2, 3945, Control_c, 0, 64, 127
2, 3950, Note_on_c, 0, 75, 47
2, 3951, Note_on_c, 0, 67, 0
2, 3958, Note_on_c, 0, 39, 57
2, 3961, Note_on_c, 0, 75, 0
2, 3963, Note_on_c, 0, 87, 66
2, 3969, Note_on_c, 0, 87, 0
2, 3972, Note_on_c, 0, 39, 0
2, 4006, Note_on_c, 0, 70, 39
2, 4007, Note_on_c, 0, 51, 48
2, 4010, Note_on_c, 0, 75, 41
2, 4011, Note_on_c, 0, 58, 48
2, 4014, Note_on_c, 0, 51, 0
2, 4021, Note_on_c, 0, 82, 62
2, 4023, Note_on_c, 0, 67, 51
2, 4024, Note_on_c, 0, 70, 0
2, 4028, Note_on_c, 0, 75, 0
2, 4033, Note_on_c, 0, 67, 0
2, 4034, Note_on_c, 0, 58, 0
2, 4047, Note_on_c, 0, 82, 0
2, 4063, Note_on_c, 0, 51, 51
2, 4068, Note_on_c, 0, 70, 43
2, 4070, Note_on_c, 0, 51, 0
2, 4070, Note_on_c, 0, 58, 52
2, 4073, Note_on_c, 0, 75, 46
2, 4082, Note_on_c, 0, 81, 58
2, 4082, Note_on_c, 0, 67, 53
2, 4083, Note_on_c, 0, 58, 0
2, 4084, Note_on_c, 0, 70, 0
2, 4086, Note_on_c, 0, 75, 0
2, 4093, Note_on_c, 0, 67, 0
2, 4112, Note_on_c, 0, 81, 0
2, 4126, Note_on_c, 0, 51, 50
2, 4127, Note_on_c, 0, 70, 42
2, 4132, Note_on_c, 0, 58, 51
2, 4134, Note_on_c, 0, 51, 0
2, 4134, Note_on_c, 0, 75, 46
2, 4141, Note_on_c, 0, 82, 57
2, 4143, Note_on_c, 0, 70, 0
2, 4143, Note_on_c, 0, 67, 52
2, 4145, Note_on_c, 0, 75, 0
2, 4151, Note_on_c, 0, 58, 0
2, 4153, Note_on_c, 0, 67, 0
2, 4169, Note_on_c, 0, 82, 0
2, 4184, Note_on_c, 0, 70, 39
2, 4188, Note_on_c, 0, 51, 50
2, 4192, Note_on_c, 0, 51, 0
2, 4192, Note_on_c, 0, 75, 45
2, 4192, Note_on_c, 0, 58, 50
2, 4200, Note_on_c, 0, 70, 0
2, 4203, Note_on_c, 0, 84, 57
2, 4203, Note_on_c, 0, 67, 51
2, 4208, Note_on_c, 0, 75, 0
2, 4212, Note_on_c, 0, 67, 0
2, 4213, Note_on_c, 0, 58, 0
2, 4219, Note_on_c, 0, 84, 0
2, 4244, Note_on_c, 0, 70, 41
2, 4244, Note_on_c, 0, 51, 50
2, 4252, Note_on_c, 0, 58, 50
2, 4253, Note_on_c, 0, 75, 46
2, 4254, Note_on_c, 0, 51, 0
2, 4262, Note_on_c, 0, 82, 57
2, 4263, Note_on_c, 0, 67, 51
2, 4264, Note_on_c, 0, 70, 0
2, 4264, Note_on_c, 0, 58, 0
2, 4267, Note_on_c, 0, 75, 0
2, 4271, Note_on_c, 0, 67, 0
2, 4285, Note_on_c, 0, 82, 0
2, 4295, Control_c, 0, 64, 0
2, 4300, Control_c, 0, 64, 127
2, 4302, Note_on_c, 0, 50, 48
2, 4304, Note_on_c, 0, 70, 46
2, 4308, Note_on_c, 0, 58, 48
2, 4310, Note_on_c, 0, 80, 50
2, 4311, Note_on_c, 0, 50, 0
2, 4312, Note_on_c, 0, 70, 0
2, 4317, Note_on_c, 0, 80, 0
2, 4319, Note_on_c, 0, 58, 0
2, 4323, Note_on_c, 0, 89, 61
2, 4323, Note_on_c, 0, 68, 51
2, 4327, Note_on_c, 0, 68, 0
2, 4328, Note_on_c, 0, 89, 0
2, 4358, Note_on_c, 0, 50, 55
2, 4362, Note_on_c, 0, 70, 45
2, 4365, Note_on_c, 0, 50, 0
2, 4365, Note_on_c, 0, 58, 56
2, 4370, Note_on_c, 0, 80, 51
2, 4378, Note_on_c, 0, 82, 57
2, 4378, Note_on_c, 0, 68, 56
2, 4384, Note_on_c, 0, 58, 0
2, 4385, Note_on_c, 0, 68, 0
2, 4386, Note_on_c, 0, 70, 0
2, 4399, Note_on_c, 0, 80, 0
2, 4404, Note_on_c, 0, 82, 0
2, 4417, Note_on_c, 0, 50, 50
2, 4418, Note_on_c, 0, 70, 47
2, 4422, Note_on_c, 0, 50, 0
2, 4424, Note_on_c, 0, 58, 51
2, 4426, Note_on_c, 0, 80, 52
2, 4437, Note_on_c, 0, 81, 57
2, 4437, Note_on_c, 0, 68, 51
2, 4444, Note_on_c, 0, 70, 0
2, 4445, Note_on_c, 0, 68, 0
2, 4446, Note_on_c, 0, 58, 0
2, 4452, Note_on_c, 0, 80, 0
2, 4460, Note_on_c, 0, 81, 0
2, 4477, Note_on_c, 0, 70, 47
2, 4478, Note_on_c, 0, 50, 51
2, 4486, Note_on_c, 0, 80, 50
2, 4487, Note_on_c, 0, 58, 52
2, 4489, Note_on_c, 0, 50, 0
2, 4498, Note_on_c, 0, 82, 53
2, 4499, Note_on_c, 0, 68, 53
2, 4505, Note_on_c, 0, 68, 0
2, 4506, Note_on_c, 0, 70, 0
2, 4509, Note_on_c, 0, 58, 0
2, 4510, Note_on_c, 0, 80, 0
2, 4520, Note_on_c, 0, 82, 0
2, 4534, Note_on_c, 0, 70, 40
2, 4539, Note_on_c, 0, 50, 53
2, 4545, Note_on_c, 0, 58, 53
2, 4546, Note_on_c, 0, 50, 0
2, 4548, Note_on_c, 0, 80, 45
2, 4555, Note_on_c, 0, 70, 0
2, 4558, Note_on_c, 0, 84, 57
2, 4562, Note_on_c, 0, 68, 57
2, 4570, Note_on_c, 0, 68, 0
2, 4571, Note_on_c, 0, 80, 0
2, 4578, Note_on_c, 0, 84, 0
2, 4580, Note_on_c, 0, 58, 0
2, 4594, Note_on_c, 0, 70, 42
2, 4598, Note_on_c, 0, 50, 51
2, 4607, Note_on_c, 0, 58, 52
2, 4608, Note_on_c, 0, 80, 52
2, 4611, Note_on_c, 0, 50, 0
2, 4618, Note_on_c, 0, 82, 56
2, 4621, Note_on_c, 0, 68, 53
2, 4622, Note_on_c, 0, 70, 0
2, 4628, Note_on_c, 0, 68, 0
2, 4631, Note_on_c, 0, 80, 0
2, 4632, Note_on_c, 0, 58, 0
2, 4635, Note_on_c, 0, 82, 0
2, 4646, Note_on_c, 0, 70, 42
2, 4657, Note_on_c, 0, 79, 47
2, 4657, Note_on_c, 0, 51, 55
2, 4660, Note_on_c, 0, 70, 0
2, 4665, Note_on_c, 0, 82, 52
2, 4665, Control_c, 0, 64, 0
2, 4667, Note_on_c, 0, 58, 59
2, 4668, Note_on_c, 0, 79, 0
2, 4671, Note_on_c, 0, 51, 0
2, 4673, Note_on_c, 0, 82, 0
2, 4676, Control_c, 0, 64, 127
2, 4679, Note_on_c, 0, 67, 61
2, 4680, Note_on_c, 0, 91, 63
2, 4688, Note_on_c, 0, 91, 0
2, 4689, Note_on_c, 0, 67, 0
2, 4693, Note_on_c, 0, 58, 0
2, 4717, Note_on_c, 0, 53, 53
2, 4721, Note_on_c, 0, 70, 48
2, 4725, Control_c, 0, 64, 0
2, 4727, Note_on_c, 0, 58, 57
2, 4729, Note_on_c, 0, 53, 0
2, 4730, Note_on_c, 0, 74, 55
2, 4732, Control_c, 0, 64, 127
2, 4734, Note_on_c, 0, 82, 57
2, 4735, Note_on_c, 0, 62, 58
2, 4741, Note_on_c, 0, 70, 0
2, 4741, Note_on_c, 0, 68, 59
2, 4743, Note_on_c, 0, 74, 0
2, 4743, Note_on_c, 0, 86, 63
2, 4744, Note_on_c, 0, 62, 0
2, 4749, Note_on_c, 0, 58, 0
2, 4752, Note_on_c, 0, 82, 0
2, 4755, Note_on_c, 0, 86, 0
2, 4757, Note_on_c, 0, 68, 0
2, 4775, Note_on_c, 0, 70, 47
2, 4777, Control_c, 0, 64, 0
2, 4781, Note_on_c, 0, 55, 57
2, 4786, Control_c, 0, 64, 127
2, 4787, Note_on_c, 0, 75, 56
2, 4787, Note_on_c, 0, 58, 57
2, 4794, Note_on_c, 0, 82, 62
2, 4795, Note_on_c, 0, 63, 59
2, 4796, Note_on_c, 0, 70, 0
2, 4800, Note_on_c, 0, 75, 0
2, 4800, Note_on_c, 0, 67, 61
2, 4801, Note_on_c, 0, 55, 0
2, 4801, Note_on_c, 0, 87, 67
2, 4806, Note_on_c, 0, 82, 0
2, 4808, Note_on_c, 0, 58, 0
2, 4809, Note_on_c, 0, 63, 0
2, 4811, Note_on_c, 0, 67, 0
2, 4813, Note_on_c, 0, 87, 0
2, 4840, Note_on_c, 0, 71, 48
2, 4841, Note_on_c, 0, 43, 57
2, 4849, Note_on_c, 0, 51, 61
2, 4850, Note_on_c, 0, 71, 0
2, 4850, Note_on_c, 0, 75, 55
2, 4851, Note_on_c, 0, 43, 0
2, 4858, Note_on_c, 0, 59, 63
2, 4861, Note_on_c, 0, 75, 0
2, 4863, Note_on_c, 0, 86, 69
2, 4864, Note_on_c, 0, 51, 0
2, 4868, Note_on_c, 0, 86, 0
2, 4868, Note_on_c, 0, 59, 0
2, 4898, Control_c, 0, 64, 0
2, 4902, Note_on_c, 0, 44, 58
2, 4905, Note_on_c, 0, 72, 56
2, 4908, Control_c, 0, 64, 127
2, 4909, Note_on_c, 0, 51, 61
2, 4910, Note_on_c, 0, 44, 0
2, 4912, Note_on_c, 0, 75, 61
2, 4917, Note_on_c, 0, 60, 63
2, 4920, Note_on_c, 0, 51, 0
2, 4923, Note_on_c, 0, 60, 0
2, 4925, Note_on_c, 0, 84, 69
2, 4934, Note_on_c, 0, 72, 0
2, 4937, Note_on_c, 0, 75, 0
2, 4944, Note_on_c, 0, 84, 0
2, 4955, Note_on_c, 0, 45, 66
2, 4961, Control_c, 0, 64, 0
2, 4962, Note_on_c, 0, 53, 67
2, 4963, Note_on_c, 0, 72, 59
2, 4966, Note_on_c, 0, 45, 0
2, 4969, Control_c, 0, 64, 127
2, 4971, Note_on_c, 0, 77, 63
2, 4977, Note_on_c, 0, 53, 0
2, 4978, Note_on_c, 0, 63, 72
2, 4980, Note_on_c, 0, 72, 0
2, 4984, Note_on_c, 0, 63, 0
2, 4984, Note_on_c, 0, 89, 77
2, 4988, Note_on_c, 0, 77, 0
2, 4996, Note_on_c, 0, 89, 0
2, 5017, Note_on_c, 0, 46, 69
2, 5020, Control_c, 0, 64, 0
2, 5024, Note_on_c, 0, 51, 73
2, 5025, Note_on_c, 0, 70, 63
2, 5028, Control_c, 0, 64, 127
2, 5031, Note_on_c, 0, 46, 0
2, 5033, Note_on_c, 0, 55, 74
2, 5036, Note_on_c, 0, 70, 0
2, 5036, Note_on_c, 0, 79, 72
2, 5039, Note_on_c, 0, 51, 0
2, 5039, Note_on_c, 0, 63, 74
2, 5045, Note_on_c, 0, 79, 0
2, 5047, Note_on_c, 0, 87, 84
2, 5051, Note_on_c, 0, 55, 0
2, 5052, Note_on_c, 0, 63, 0
2, 5056, Note_on_c, 0, 87, 0
2, 5078, Note_on_c, 0, 46, 73
2, 5081, Control_c, 0, 64, 0
2, 5086, Note_on_c, 0, 54, 74
2, 5089, Note_on_c, 0, 72, 64
2, 5090, Control_c, 0, 64, 127
2, 5094, Note_on_c, 0, 46, 0
2, 5094, Note_on_c, 0, 78, 68
2, 5095, Note_on_c, 0, 72, 0
2, 5095, Note_on_c, 0, 57, 74
2, 5101, Note_on_c, 0, 54, 0
2, 5101, Note_on_c, 0, 81, 72
2, 5103, Note_on_c, 0, 63, 74
2, 5107, Note_on_c, 0, 78, 0
2, 5108, Note_on_c, 0, 87, 84
2, 5110, Note_on_c, 0, 81, 0
2, 5111, Note_on_c, 0, 57, 0
2, 5114, Note_on_c, 0, 63, 0
2, 5120, Note_on_c, 0, 87, 0
2, 5137, Note_on_c, 0, 46, 69
2, 5144, Control_c, 0, 64, 0
2, 5146, Note_on_c, 0, 53, 71
2, 5148, Note_on_c, 0, 70, 57
2, 5149, Note_on_c, 0, 46, 0
2, 5152, Control_c, 0, 64, 127
2, 5154, Note_on_c, 0, 77, 59
2, 5155, Note_on_c, 0, 58, 71
2, 5161, Note_on_c, 0, 70, 0
2, 5162, Note_on_c, 0, 53, 0
2, 5162, Note_on_c, 0, 82, 66
2, 5164, Note_on_c, 0, 62, 71
2, 5167, Note_on_c, 0, 77, 0
2, 5167, Note_on_c, 0, 58, 0
2, 5167, Note_on_c, 0, 86, 79
2, 5172, Note_on_c, 0, 82, 0
2, 5172, Note_on_c, 0, 62, 0
2, 5174, Note_on_c, 0, 86, 0
2, 5203, Note_on_c, 0, 48, 69
2, 5206, Control_c, 0, 64, 0
2, 5207, Note_on_c, 0, 70, 51
2, 5210, Note_on_c, 0, 55, 69
2, 5213, Control_c, 0, 64, 127
2, 5216, Note_on_c, 0, 76, 64
2, 5216, Note_on_c, 0, 58, 69
2, 5219, Note_on_c, 0, 48, 0
2, 5220, Note_on_c, 0, 79, 67
2, 5223, Note_on_c, 0, 64, 69
2, 5226, Note_on_c, 0, 85, 77
2, 5229, Note_on_c, 0, 70, 0
2, 5230, Note_on_c, 0, 55, 0
2, 5232, Note_on_c, 0, 76, 0
2, 5233, Note_on_c, 0, 58, 0
2, 5234, Note_on_c, 0, 64, 0
2, 5235, Note_on_c, 0, 79, 0
2, 5241, Note_on_c, 0, 85, 0
2, 5263, Note_on_c, 0, 48, 66
2, 5265, Control_c, 0, 64, 0
2, 5266, Note_on_c, 0, 68, 40
2, 5272, Control_c, 0, 64, 127
2, 5272, Note_on_c, 0, 56, 66
2, 5273, Note_on_c, 0, 48, 0
2, 5273, Note_on_c, 0, 77, 58
2, 5274, Note_on_c, 0, 68, 0
2, 5277, Note_on_c, 0, 80, 61
2, 5285, Note_on_c, 0, 65, 66
2, 5286, Note_on_c, 0, 56, 0
2, 5287, Note_on_c, 0, 84, 73
2, 5289, Note_on_c, 0, 77, 0
2, 5290, Note_on_c, 0, 65, 0
2, 5294, Note_on_c, 0, 80, 0
2, 5297, Note_on_c, 0, 84, 0
2, 5317, Note_on_c, 0, 48, 61
2, 5322, Control_c, 0, 64, 0
2, 5324, Note_on_c, 0, 55, 61
2, 5326, Note_on_c, 0, 72, 48
2, 5329, Control_c, 0, 64, 127
2, 5331, Note_on_c, 0, 79, 59
2, 5332, Note_on_c, 0, 48, 0
2, 5334, Note_on_c, 0, 60, 62
2, 5336, Note_on_c, 0, 82, 53
2, 5344, Note_on_c, 0, 67, 62
2, 5345, Note_on_c, 0, 55, 0
2, 5346, Note_on_c, 0, 88, 66
2, 5348, Note_on_c, 0, 60, 0
2, 5348, Note_on_c, 0, 79, 0
2, 5351, Note_on_c, 0, 72, 0
2, 5353, Note_on_c, 0, 67, 0
2, 5357, Note_on_c, 0, 82, 0
2, 5363, Note_on_c, 0, 88, 0
2, 5383, Note_on_c, 0, 72, 43
2, 5383, Control_c, 0, 64, 0
2, 5388, Note_on_c, 0, 80, 48
2, 5390, Control_c, 0, 64, 127
2, 5393, Note_on_c, 0, 72, 0
2, 5397, Note_on_c, 0, 41, 56
2, 5403, Note_on_c, 0, 89, 64
2, 5404, Note_on_c, 0, 80, 0
2, 5405, Note_on_c, 0, 41, 0
2, 5413, Note_on_c, 0, 89, 0
2, 5443, Note_on_c, 0, 53, 43
2, 5445, Note_on_c, 0, 72, 48
2, 5450, Note_on_c, 0, 80, 51
2, 5454, Note_on_c, 0, 60, 48
2, 5455, Note_on_c, 0, 53, 0
2, 5460, Note_on_c, 0, 84, 63
2, 5463, Note_on_c, 0, 68, 51
2, 5472, Note_on_c, 0, 60, 0
2, 5475, Note_on_c, 0, 68, 0
2, 5478, Note_on_c, 0, 72, 0
2, 5481, Note_on_c, 0, 80, 0
2, 5492, Note_on_c, 0, 84, 0
2, 5497, Note_on_c, 0, 53, 48
2, 5504, Note_on_c, 0, 71, 41
2, 5506, Note_on_c, 0, 60, 50
2, 5509, Note_on_c, 0, 53, 0
2, 5509, Note_on_c, 0, 80, 45
2, 5516, Note_on_c, 0, 68, 51
2, 5521, Note_on_c, 0, 83, 57
2, 5522, Note_on_c, 0, 71, 0
2, 5530, Note_on_c, 0, 68, 0
2, 5532, Note_on_c, 0, 60, 0
2, 5533, Note_on_c, 0, 80, 0
2, 5555, Note_on_c, 0, 83, 0
2, 5556, Note_on_c, 0, 53, 48
2, 5562, Note_on_c, 0, 72, 46
2, 5568, Note_on_c, 0, 60, 50
2, 5570, Note_on_c, 0, 80, 52
2, 5572, Note_on_c, 0, 53, 0
2, 5579, Note_on_c, 0, 84, 57
2, 5579, Note_on_c, 0, 68, 50
2, 5583, Note_on_c, 0, 72, 0
2, 5587, Note_on_c, 0, 80, 0
2, 5590, Note_on_c, 0, 68, 0
2, 5591, Note_on_c, 0, 60, 0
2, 5612, Note_on_c, 0, 84, 0
2, 5613, Note_on_c, 0, 53, 50
2, 5622, Note_on_c, 0, 73, 43
2, 5623, Note_on_c, 0, 60, 51
2, 5626, Note_on_c, 0, 80, 47
2, 5627, Note_on_c, 0, 53, 0
2, 5635, Note_on_c, 0, 68, 51
2, 5638, Note_on_c, 0, 85, 59
2, 5639, Note_on_c, 0, 73, 0
2, 5646, Note_on_c, 0, 80, 0
2, 5647, Note_on_c, 0, 60, 0
2, 5649, Note_on_c, 0, 68, 0
2, 5670, Note_on_c, 0, 85, 0
2, 5674, Note_on_c, 0, 53, 50
2, 5680, Note_on_c, 0, 72, 47
2, 5682, Note_on_c, 0, 60, 51
2, 5687, Note_on_c, 0, 53, 0
2, 5687, Note_on_c, 0, 80, 50
2, 5693, Note_on_c, 0, 68, 52
2, 5698, Note_on_c, 0, 84, 56
2, 5702, Note_on_c, 0, 72, 0
2, 5707, Note_on_c, 0, 80, 0
2, 5709, Note_on_c, 0, 60, 0
2, 5709, Note_on_c, 0, 68, 0
2, 5727, Note_on_c, 0, 84, 0
2, 5732, Note_on_c, 0, 72, 45
2, 5733, Control_c, 0, 64, 0
2, 5736, Note_on_c, 0, 52, 48
2, 5740, Note_on_c, 0, 79, 45
2, 5740, Control_c, 0, 64, 127
2, 5744, Note_on_c, 0, 58, 51
2, 5747, Note_on_c, 0, 72, 0
2, 5747, Note_on_c, 0, 82, 52
2, 5751, Note_on_c, 0, 52, 0
2, 5751, Note_on_c, 0, 79, 0
2, 5753, Note_on_c, 0, 60, 52
2, 5755, Note_on_c, 0, 82, 0
2, 5757, Note_on_c, 0, 67, 52
2, 5762, Note_on_c, 0, 91, 61
2, 5765, Note_on_c, 0, 60, 0
2, 5768, Note_on_c, 0, 67, 0
2, 5769, Note_on_c, 0, 58, 0
2, 5771, Note_on_c, 0, 91, 0
2, 5796, Note_on_c, 0, 52, 53
2, 5801, Note_on_c, 0, 72, 51
2, 5804, Note_on_c, 0, 58, 55
2, 5808, Note_on_c, 0, 79, 57
2, 5810, Note_on_c, 0, 60, 56
2, 5811, Note_on_c, 0, 52, 0
2, 5811, Note_on_c, 0, 82, 57
2, 5817, Note_on_c, 0, 67, 57
2, 5822, Note_on_c, 0, 84, 62
2, 5825, Note_on_c, 0, 58, 0
2, 5826, Note_on_c, 0, 60, 0
2, 5828, Note_on_c, 0, 67, 0
2, 5831, Note_on_c, 0, 72, 0
2, 5832, Note_on_c, 0, 79, 0
2, 5842, Note_on_c, 0, 82, 0
2, 5854, Note_on_c, 0, 84, 0
2, 5854, Note_on_c, 0, 52, 53
2, 5863, Note_on_c, 0, 71, 42
2, 5863, Note_on_c, 0, 58, 56
2, 5867, Note_on_c, 0, 79, 57
2, 5868, Note_on_c, 0, 60, 56
2, 5870, Note_on_c, 0, 52, 0
2, 5874, Note_on_c, 0, 82, 58
2, 5877, Note_on_c, 0, 67, 57
2, 5881, Note_on_c, 0, 83, 67
2, 5885, Note_on_c, 0, 58, 0
2, 5886, Note_on_c, 0, 60, 0
2, 5886, Note_on_c, 0, 79, 0
2, 5888, Note_on_c, 0, 71, 0
2, 5889, Note_on_c, 0, 67, 0
2, 5896, Note_on_c, 0, 82, 0
2, 5911, Note_on_c, 0, 83, 0
2, 5919, Note_on_c, 0, 52, 56
2, 5921, Note_on_c, 0, 72, 53
2, 5925, Note_on_c, 0, 58, 56
2, 5926, Note_on_c, 0, 79, 56
2, 5931, Note_on_c, 0, 82, 59
2, 5933, Note_on_c, 0, 60, 58
2, 5935, Note_on_c, 0, 52, 0
2, 5940, Note_on_c, 0, 67, 58
2, 5941, Note_on_c, 0, 84, 73
2, 5949, Note_on_c, 0, 58, 0
2, 5952, Note_on_c, 0, 72, 0
2, 5952, Note_on_c, 0, 60, 0
2, 5952, Note_on_c, 0, 67, 0
2, 5953, Note_on_c, 0, 79, 0
2, 5962, Note_on_c, 0, 82, 0
2, 5972, Note_on_c, 0, 84, 0
2, 5978, Note_on_c, 0, 52, 61
2, 5985, Note_on_c, 0, 73, 47
2, 5987, Note_on_c, 0, 58, 61
2, 5988, Note_on_c, 0, 79, 59
2, 5990, Note_on_c, 0, 60, 62
2, 5992, Note_on_c, 0, 82, 61
2, 5993, Note_on_c, 0, 52, 0
2, 5999, Note_on_c, 0, 67, 63
2, 6002, Note_on_c, 0, 85, 73
2, 6003, Note_on_c, 0, 79, 0
2, 6006, Note_on_c, 0, 73, 0
2, 6011, Note_on_c, 0, 60, 0
2, 6011, Note_on_c, 0, 67, 0
2, 6013, Note_on_c, 0, 82, 0
2, 6014, Note_on_c, 0, 58, 0
2, 6031, Note_on_c, 0, 85, 0
2, 6037, Note_on_c, 0, 52, 64
2, 6041, Note_on_c, 0, 72, 56
2, 6045, Note_on_c, 0, 58, 64
2, 6047, Note_on_c, 0, 79, 59
2, 6051, Note_on_c, 0, 82, 62
2, 6051, Note_on_c, 0, 60, 66
2, 6054, Note_on_c, 0, 52, 0
2, 6058, Note_on_c, 0, 67, 67
2, 6065, Note_on_c, 0, 58, 0
2, 6065, Note_on_c, 0, 84, 73
2, 6067, Note_on_c, 0, 60, 0
2, 6068, Note_on_c, 0, 79, 0
2, 6069, Note_on_c, 0, 67, 0
2, 6070, Note_on_c, 0, 72, 0
2, 6076, Note_on_c, 0, 82, 0
2, 6082, Note_on_c, 0, 84, 0
2, 6096, Note_on_c, 0, 72, 57
2, 6103, Note_on_c, 0, 53, 74
2, 6105, Note_on_c, 0, 80, 64
2, 6108, Control_c, 0, 64, 0
2, 6109, Note_on_c, 0, 72, 0
2, 6113, Note_on_c, 0, 60, 75
2, 6114, Note_on_c, 0, 84, 71
2, 6115, Control_c, 0, 64, 127
2, 6120, Note_on_c, 0, 84, 0
2, 6120, Note_on_c, 0, 53, 0
2, 6121, Note_on_c, 0, 68, 78
2, 6122, Note_on_c, 0, 80, 0
2, 6128, Note_on_c, 0, 60, 0
2, 6129, Note_on_c, 0, 92, 85
2, 6136, Note_on_c, 0, 92, 0
2, 6136, Note_on_c, 0, 68, 0
2, 6161, Note_on_c, 0, 75, 68
2, 6162, Note_on_c, 0, 55, 66
2, 6167, Note_on_c, 0, 58, 66
2, 6169, Note_on_c, 0, 82, 72
2, 6170, Control_c, 0, 64, 0
2, 6173, Note_on_c, 0, 55, 0
2, 6175, Control_c, 0, 64, 127
2, 6177, Note_on_c, 0, 75, 0
2, 6177, Note_on_c, 0, 63, 66
2, 6180, Note_on_c, 0, 87, 80
2, 6183, Note_on_c, 0, 70, 66
2, 6185, Note_on_c, 0, 58, 0
2, 6187, Note_on_c, 0, 82, 0
2, 6187, Note_on_c, 0, 91, 84
2, 6190, Note_on_c, 0, 63, 0
2, 6198, Note_on_c, 0, 70, 0
2, 6198, Note_on_c, 0, 87, 0
2, 6203, Note_on_c, 0, 91, 0
2, 6223, Note_on_c, 0, 56, 69
2, 6224, Note_on_c, 0, 77, 58
2, 6228, Control_c, 0, 64, 0
2, 6229, Note_on_c, 0, 84, 64
2, 6230, Note_on_c, 0, 63, 71
2, 6232, Note_on_c, 0, 56, 0
2, 6235, Control_c, 0, 64, 127
2, 6236, Note_on_c, 0, 87, 68
2, 6240, Note_on_c, 0, 63, 0
2, 6242, Note_on_c, 0, 89, 83
2, 6242, Note_on_c, 0, 72, 74
2, 6247, Note_on_c, 0, 84, 0
2, 6249, Note_on_c, 0, 72, 0
2, 6250, Note_on_c, 0, 77, 0
2, 6258, Note_on_c, 0, 87, 0
2, 6265, Note_on_c, 0, 89, 0
2, 6278, Note_on_c, 0, 56, 64
2, 6287, Note_on_c, 0, 75, 52
2, 6292, Note_on_c, 0, 65, 67
2, 6293, Note_on_c, 0, 83, 69
2, 6295, Note_on_c, 0, 56, 0
2, 6296, Note_on_c, 0, 87, 73
2, 6299, Note_on_c, 0, 71, 67
2, 6302, Note_on_c, 0, 75, 0
2, 6306, Note_on_c, 0, 89, 83
2, 6312, Note_on_c, 0, 83, 0
2, 6312, Note_on_c, 0, 65, 0
2, 6317, Note_on_c, 0, 71, 0
2, 6319, Note_on_c, 0, 87, 0
2, 6322, Note_on_c, 0, 89, 0
2, 6342, Note_on_c, 0, 58, 67
2, 6343, Note_on_c, 0, 74, 53
2, 6350, Note_on_c, 0, 82, 68
2, 6352, Control_c, 0, 64, 0
2, 6352, Note_on_c, 0, 65, 68
2, 6358, Note_on_c, 0, 74, 0
2, 6359, Note_on_c, 0, 70, 69
2, 6360, Control_c, 0, 64, 127
2, 6362, Note_on_c, 0, 89, 83
2, 6367, Note_on_c, 0, 82, 0
2, 6368, Note_on_c, 0, 65, 0
2, 6369, Note_on_c, 0, 58, 0
2, 6375, Note_on_c, 0, 70, 0
2, 6376, Note_on_c, 0, 89, 0
2, 6399, Note_on_c, 0, 74, 62
2, 6403, Note_on_c, 0, 58, 66
2, 6408, Note_on_c, 0, 80, 72
2, 6410, Note_on_c, 0, 74, 0
2, 6414, Note_on_c, 0, 65, 67
2, 6418, Note_on_c, 0, 80, 0
2, 6421, Note_on_c, 0, 91, 83
2, 6423, Note_on_c, 0, 68, 68
2, 6429, Note_on_c, 0, 91, 0
2, 6429, Note_on_c, 0, 58, 0
2, 6430, Note_on_c, 0, 65, 0
2, 6437, Note_on_c, 0, 68, 0
2, 6464, Note_on_c, 0, 75, 64
2, 6465, Control_c, 0, 64, 0
2, 6471, Note_on_c, 0, 79, 77
2, 6474, Note_on_c, 0, 63, 73
2, 6475, Control_c, 0, 64, 127
2, 6480, Note_on_c, 0, 87, 90
2, 6480, Note_on_c, 0, 67, 64
2, 6488, Note_on_c, 0, 63, 0
2, 6491, Note_on_c, 0, 79, 0
2, 6492, Note_on_c, 0, 75, 0
2, 6496, Note_on_c, 0, 67, 0
2, 6498, Note_on_c, 0, 87, 0
2, 6523, Control_c, 0, 64, 0
2, 6524, Note_on_c, 0, 51, 51
2, 6525, Note_on_c, 0, 75, 42
2, 6529, Control_c, 0, 64, 127
2, 6531, Note_on_c, 0, 58, 51
2, 6533, Note_on_c, 0, 78, 51
2, 6534, Note_on_c, 0, 51, 0
2, 6541, Note_on_c, 0, 87, 61
2, 6541, Note_on_c, 0, 66, 59
2, 6546, Note_on_c, 0, 75, 0
2, 6549, Note_on_c, 0, 78, 0
2, 6552, Note_on_c, 0, 66, 0
2, 6552, Note_on_c, 0, 58, 0
2, 6558, Note_on_c, 0, 87, 0
2, 6579, Note_on_c, 0, 51, 48
2, 6585, Note_on_c, 0, 71, 46
2, 6587, Control_c, 0, 64, 0
2, 6589, Note_on_c, 0, 59, 50
2, 6591, Note_on_c, 0, 78, 48
2, 6595, Note_on_c, 0, 71, 0
2, 6596, Note_on_c, 0, 51, 0
2, 6597, Control_c, 0, 64, 127
2, 6598, Note_on_c, 0, 66, 53
2, 6602, Note_on_c, 0, 66, 0
2, 6604, Note_on_c, 0, 59, 0
2, 6605, Note_on_c, 0, 87, 63
2, 6606, Note_on_c, 0, 78, 0
2, 6624, Note_on_c, 0, 87, 0
2, 6641, Note_on_c, 0, 52, 47
2, 6643, Note_on_c, 0, 68, 46
2, 6651, Note_on_c, 0, 76, 51
2, 6651, Note_on_c, 0, 61, 51
2, 6652, Control_c, 0, 64, 0
2, 6654, Note_on_c, 0, 68, 0
2, 6659, Note_on_c, 0, 64, 52
2, 6660, Note_on_c, 0, 52, 0
2, 6661, Control_c, 0, 64, 127
2, 6662, Note_on_c, 0, 85, 64
2, 6666, Note_on_c, 0, 61, 0
2, 6667, Note_on_c, 0, 76, 0
2, 6673, Note_on_c, 0, 64, 0
2, 6680, Note_on_c, 0, 85, 0
2, 6706, Note_on_c, 0, 54, 52
2, 6707, Note_on_c, 0, 66, 50
2, 6707, Control_c, 0, 64, 0
2, 6712, Note_on_c, 0, 59, 56
2, 6716, Note_on_c, 0, 75, 55
2, 6716, Control_c, 0, 64, 127
2, 6716, Note_on_c, 0, 63, 56
2, 6723, Note_on_c, 0, 66, 0
2, 6723, Note_on_c, 0, 78, 58
2, 6724, Note_on_c, 0, 54, 0
2, 6725, Note_on_c, 0, 59, 0
2, 6729, Note_on_c, 0, 75, 0
2, 6736, Note_on_c, 0, 63, 0
2, 6739, Note_on_c, 0, 78, 0
2, 6763, Note_on_c, 0, 66, 45
2, 6767, Note_on_c, 0, 54, 52
2, 6769, Note_on_c, 0, 73, 47
2, 6769, Control_c, 0, 64, 0
2, 6773, Note_on_c, 0, 66, 0
2, 6775, Note_on_c, 0, 61, 56
2, 6779, Control_c, 0, 64, 127
2, 6780, Note_on_c, 0, 82, 61
2, 6781, Note_on_c, 0, 73, 0
2, 6782, Note_on_c, 0, 64, 57
2, 6789, Note_on_c, 0, 54, 0
2, 6789, Note_on_c, 0, 61, 0
2, 6793, Note_on_c, 0, 64, 0
2, 6797, Note_on_c, 0, 82, 0
2, 6821, Note_on_c, 0, 66, 43
2, 6824, Note_on_c, 0, 47, 51
2, 6831, Control_c, 0, 64, 0
2, 6832, Note_on_c, 0, 66, 0
2, 6832, Note_on_c, 0, 75, 50
2, 6833, Note_on_c, 0, 54, 53
2, 6834, Note_on_c, 0, 47, 0
2, 6840, Control_c, 0, 64, 127
2, 6843, Note_on_c, 0, 83, 58
2, 6845, Note_on_c, 0, 75, 0
2, 6847, Note_on_c, 0, 63, 58
2, 6853, Note_on_c, 0, 54, 0
2, 6854, Note_on_c, 0, 63, 0
2, 6859, Note_on_c, 0, 83, 0
2, 6885, Note_on_c, 0, 66, 41
2, 6886, Note_on_c, 0, 47, 53
2, 6891, Note_on_c, 0, 75, 46
2, 6894, Note_on_c, 0, 54, 53
2, 6896, Note_on_c, 0, 47, 0
2, 6896, Note_on_c, 0, 78, 59
2, 6907, Note_on_c, 0, 63, 55
2, 6910, Note_on_c, 0, 54, 0
2, 6913, Note_on_c, 0, 63, 0
2, 6920, Note_on_c, 0, 75, 0
2, 6922, Note_on_c, 0, 78, 0
2, 6924, Note_on_c, 0, 66, 0
2, 6942, Note_on_c, 0, 47, 53
2, 6944, Note_on_c, 0, 65, 43
2, 6950, Note_on_c, 0, 75, 46
2, 6951, Note_on_c, 0, 47, 0
2, 6952, Note_on_c, 0, 54, 56
2, 6959, Note_on_c, 0, 77, 63
2, 6963, Note_on_c, 0, 63, 57
2, 6970, Note_on_c, 0, 63, 0
2, 6971, Note_on_c, 0, 54, 0
2, 6972, Note_on_c, 0, 65, 0
2, 6979, Note_on_c, 0, 77, 0
2, 6982, Note_on_c, 0, 75, 0
2, 6998, Note_on_c, 0, 47, 52
2, 7005, Note_on_c, 0, 66, 46
2, 7008, Note_on_c, 0, 47, 0
2, 7008, Note_on_c, 0, 54, 56
2, 7010, Note_on_c, 0, 75, 50
2, 7021, Note_on_c, 0, 63, 57
2, 7022, Note_on_c, 0, 78, 62
2, 7029, Note_on_c, 0, 63, 0
2, 7030, Note_on_c, 0, 54, 0
2, 7040, Note_on_c, 0, 75, 0
2, 7043, Note_on_c, 0, 78, 0
2, 7046, Note_on_c, 0, 66, 0
2, 7055, Note_on_c, 0, 45, 56
2, 7064, Control_c, 0, 64, 0
2, 7066, Note_on_c, 0, 66, 46
2, 7067, Note_on_c, 0, 45, 0
2, 7067, Note_on_c, 0, 54, 58
2, 7071, Control_c, 0, 64, 127
2, 7076, Note_on_c, 0, 75, 51
2, 7080, Note_on_c, 0, 63, 61
2, 7083, Note_on_c, 0, 80, 59
2, 7089, Note_on_c, 0, 54, 0
2, 7090, Note_on_c, 0, 63, 0
2, 7093, Note_on_c, 0, 66, 0
2, 7095, Note_on_c, 0, 75, 0
2, 7111, Note_on_c, 0, 80, 0
2, 7120, Note_on_c, 0, 45, 55
2, 7128, Note_on_c, 0, 66, 45
2, 7131, Note_on_c, 0, 45, 0
2, 7132, Note_on_c, 0, 54, 55
2, 7135, Note_on_c, 0, 73, 50
2, 7141, Note_on_c, 0, 61, 56
2, 7144, Note_on_c, 0, 81, 61
2, 7146, Note_on_c, 0, 54, 0
2, 7147, Note_on_c, 0, 61, 0
2, 7153, Note_on_c, 0, 66, 0
2, 7156, Note_on_c, 0, 73, 0
2, 7167, Note_on_c, 0, 81, 0
2, 7181, Note_on_c, 0, 44, 56
2, 7184, Note_on_c, 0, 66, 45
2, 7190, Control_c, 0, 64, 0
2, 7191, Note_on_c, 0, 54, 56
2, 7193, Note_on_c, 0, 44, 0
2, 7195, Note_on_c, 0, 72, 48
2, 7198, Control_c, 0, 64, 127
2, 7202, Note_on_c, 0, 60, 56
2, 7206, Note_on_c, 0, 81, 63
2, 7213, Note_on_c, 0, 60, 0
2, 7213, Note_on_c, 0, 54, 0
2, 7216, Note_on_c, 0, 66, 0
2, 7217, Note_on_c, 0, 72, 0
2, 7222, Note_on_c, 0, 81, 0
2, 7243, Note_on_c, 0, 44, 47
2, 7246, Note_on_c, 0, 66, 37
2, 7252, Note_on_c, 0, 54, 50
2, 7253, Note_on_c, 0, 44, 0
2, 7253, Note_on_c, 0, 72, 46
2, 7260, Note_on_c, 0, 80, 61
2, 7266, Note_on_c, 0, 60, 62
2, 7273, Note_on_c, 0, 66, 0
2, 7275, Note_on_c, 0, 72, 0
2, 7277, Note_on_c, 0, 54, 0
2, 7278, Note_on_c, 0, 60, 0
2, 7284, Note_on_c, 0, 80, 0
2, 7298, Note_on_c, 0, 66, 46
2, 7302, Note_on_c, 0, 44, 53
2, 7306, Note_on_c, 0, 72, 48
2, 7308, Note_on_c, 0, 54, 55
2, 7310, Note_on_c, 0, 44, 0
2, 7314, Note_on_c, 0, 79, 59
2, 7318, Note_on_c, 0, 60, 62
2, 7329, Note_on_c, 0, 60, 0
2, 7329, Note_on_c, 0, 66, 0
2, 7329, Note_on_c, 0, 72, 0
2, 7330, Note_on_c, 0, 54, 0
2, 7333, Note_on_c, 0, 79, 0
2, 7357, Note_on_c, 0, 44, 53
2, 7358, Note_on_c, 0, 66, 50
2, 7362, Note_on_c, 0, 54, 55
2, 7364, Note_on_c, 0, 44, 0
2, 7367, Note_on_c, 0, 72, 55
2, 7371, Note_on_c, 0, 60, 64
2, 7376, Note_on_c, 0, 80, 59
2, 7378, Note_on_c, 0, 54, 0
2, 7380, Note_on_c, 0, 60, 0
2, 7385, Note_on_c, 0, 72, 0
2, 7386, Note_on_c, 0, 66, 0
2, 7395, Note_on_c, 0, 80, 0
2, 7415, Note_on_c, 0, 68, 56
2, 7415, Note_on_c, 0, 48, 56
2, 7418, Control_c, 0, 64, 0
2, 7423, Note_on_c, 0, 56, 56
2, 7425, Note_on_c, 0, 48, 0
2, 7426, Note_on_c, 0, 78, 61
2, 7428, Control_c, 0, 64, 127
2, 7430, Note_on_c, 0, 68, 0
2, 7436, Note_on_c, 0, 66, 65
2, 7438, Note_on_c, 0, 78, 0
2, 7439, Note_on_c, 0, 85, 71
2, 7444, Note_on_c, 0, 66, 0
2, 7447, Note_on_c, 0, 85, 0
2, 7447, Note_on_c, 0, 56, 0
2, 7474, Note_on_c, 0, 48, 59
2, 7479, Note_on_c, 0, 68, 59
2, 7481, Note_on_c, 0, 56, 61
2, 7482, Note_on_c, 0, 48, 0
2, 7486, Note_on_c, 0, 78, 64
2, 7488, Note_on_c, 0, 68, 0
2, 7494, Note_on_c, 0, 78, 0
2, 7497, Note_on_c, 0, 66, 64
2, 7501, Note_on_c, 0, 87, 73
2, 7505, Note_on_c, 0, 66, 0
2, 7507, Note_on_c, 0, 87, 0
2, 7508, Note_on_c, 0, 56, 0
2, 7536, Control_c, 0, 64, 0
2, 7538, Note_on_c, 0, 68, 61
2, 7539, Note_on_c, 0, 49, 57
2, 7544, Note_on_c, 0, 56, 59
2, 7546, Control_c, 0, 64, 127
2, 7548, Note_on_c, 0, 49, 0
2, 7549, Note_on_c, 0, 68, 0
2, 7551, Note_on_c, 0, 76, 64
2, 7554, Note_on_c, 0, 76, 0
2, 7555, Note_on_c, 0, 64, 64
2, 7560, Note_on_c, 0, 88, 74
2, 7563, Note_on_c, 0, 56, 0
2, 7566, Note_on_c, 0, 88, 0
2, 7566, Note_on_c, 0, 64, 0
2, 7598, Note_on_c, 0, 49, 50
2, 7605, Note_on_c, 0, 68, 42
2, 7609, Note_on_c, 0, 56, 52
2, 7612, Note_on_c, 0, 49, 0
2, 7614, Note_on_c, 0, 76, 51
2, 7619, Note_on_c, 0, 64, 58
2, 7622, Note_on_c, 0, 80, 62
2, 7632, Note_on_c, 0, 64, 0
2, 7632, Note_on_c, 0, 56, 0
2, 7635, Note_on_c, 0, 68, 0
2, 7637, Note_on_c, 0, 76, 0
2, 7641, Note_on_c, 0, 80, 0
2, 7657, Note_on_c, 0, 49, 51
2, 7660, Note_on_c, 0, 67, 45
2, 7667, Note_on_c, 0, 56, 53
2, 7671, Note_on_c, 0, 49, 0
2, 7671, Note_on_c, 0, 76, 50
2, 7678, Note_on_c, 0, 64, 57
2, 7682, Note_on_c, 0, 79, 62
2, 7686, Note_on_c, 0, 56, 0
2, 7687, Note_on_c, 0, 67, 0
2, 7690, Note_on_c, 0, 64, 0
2, 7691, Note_on_c, 0, 76, 0
2, 7697, Note_on_c, 0, 79, 0
2, 7717, Note_on_c, 0, 49, 56
2, 7724, Note_on_c, 0, 68, 42
2, 7728, Note_on_c, 0, 56, 57
2, 7730, Note_on_c, 0, 76, 50
2, 7732, Note_on_c, 0, 49, 0
2, 7738, Note_on_c, 0, 64, 57
2, 7743, Note_on_c, 0, 80, 59
2, 7744, Note_on_c, 0, 56, 0
2, 7747, Note_on_c, 0, 64, 0
2, 7751, Note_on_c, 0, 68, 0
2, 7753, Note_on_c, 0, 76, 0
2, 7760, Note_on_c, 0, 80, 0
2, 7777, Note_on_c, 0, 47, 52
2, 7779, Note_on_c, 0, 68, 45
2, 7781, Control_c, 0, 64, 0
2, 7788, Note_on_c, 0, 47, 0
2, 7788, Control_c, 0, 64, 127
2, 7789, Note_on_c, 0, 56, 53
2, 7792, Note_on_c, 0, 76, 51
2, 7800, Note_on_c, 0, 64, 54
2, 7801, Note_on_c, 0, 82, 59
2, 7809, Note_on_c, 0, 76, 0
2, 7809, Note_on_c, 0, 56, 0
2, 7810, Note_on_c, 0, 68, 0
2, 7811, Note_on_c, 0, 64, 0
2, 7821, Note_on_c, 0, 82, 0
2, 7837, Note_on_c, 0, 47, 48
2, 7840, Note_on_c, 0, 68, 47
2, 7849, Note_on_c, 0, 56, 50
2, 7850, Note_on_c, 0, 47, 0
2, 7850, Note_on_c, 0, 75, 51
2, 7860, Note_on_c, 0, 83, 61
2, 7860, Note_on_c, 0, 63, 58
2, 7866, Note_on_c, 0, 56, 0
2, 7867, Note_on_c, 0, 68, 0
2, 7867, Note_on_c, 0, 75, 0
2, 7868, Note_on_c, 0, 63, 0
2, 7879, Note_on_c, 0, 83, 0
2, 7896, Note_on_c, 0, 46, 53
2, 7899, Note_on_c, 0, 68, 45
2, 7906, Control_c, 0, 64, 0
2, 7909, Note_on_c, 0, 46, 0
2, 7909, Note_on_c, 0, 56, 55
2, 7911, Note_on_c, 0, 74, 51
2, 7915, Control_c, 0, 64, 127
2, 7919, Note_on_c, 0, 62, 59
2, 7920, Note_on_c, 0, 83, 61
2, 7927, Note_on_c, 0, 56, 0
2, 7928, Note_on_c, 0, 68, 0
2, 7931, Note_on_c, 0, 62, 0
2, 7931, Note_on_c, 0, 74, 0
2, 7942, Note_on_c, 0, 83, 0
2, 7956, Note_on_c, 0, 46, 55
2, 7967, Note_on_c, 0, 68, 51
2, 7968, Note_on_c, 0, 46, 0
2, 7968, Note_on_c, 0, 56, 56
2, 7975, Note_on_c, 0, 74, 56
2, 7978, Note_on_c, 0, 62, 51
2, 7984, Note_on_c, 0, 82, 63
2, 7987, Note_on_c, 0, 56, 0
2, 7989, Note_on_c, 0, 62, 0
2, 7995, Note_on_c, 0, 74, 0
2, 7999, Note_on_c, 0, 68, 0
2, 8007, Note_on_c, 0, 82, 0
2, 8015, Note_on_c, 0, 46, 47
2, 8025, Note_on_c, 0, 68, 48
2, 8028, Note_on_c, 0, 56, 50
2, 8029, Note_on_c, 0, 46, 0
2, 8033, Note_on_c, 0, 74, 53
2, 8038, Note_on_c, 0, 62, 54
2, 8041, Note_on_c, 0, 81, 62
2, 8048, Note_on_c, 0, 56, 0
2, 8051, Note_on_c, 0, 62, 0
2, 8053, Note_on_c, 0, 68, 0
2, 8056, Note_on_c, 0, 74, 0
2, 8064, Note_on_c, 0, 81, 0
2, 8076, Note_on_c, 0, 46, 53
2, 8085, Note_on_c, 0, 68, 52
2, 8087, Note_on_c, 0, 56, 55
2, 8089, Note_on_c, 0, 46, 0
2, 8094, Note_on_c, 0, 74, 59
2, 8098, Note_on_c, 0, 62, 57
2, 8103, Note_on_c, 0, 82, 64
2, 8104, Note_on_c, 0, 56, 0
2, 8107, Note_on_c, 0, 62, 0
2, 8111, Note_on_c, 0, 74, 0
2, 8112, Note_on_c, 0, 68, 0
2, 8125, Note_on_c, 0, 82, 0
2, 8135, Note_on_c, 0, 50, 52
2, 8141, Note_on_c, 0, 70, 52
2, 8143, Note_on_c, 0, 58, 53
2, 8144, Control_c, 0, 64, 0
2, 8145, Note_on_c, 0, 50, 0
2, 8154, Note_on_c, 0, 70, 0
2, 8154, Note_on_c, 0, 80, 57
2, 8154, Control_c, 0, 64, 127
2, 8157, Note_on_c, 0, 68, 64
2, 8162, Note_on_c, 0, 80, 0
2, 8163, Note_on_c, 0, 58, 0
2, 8163, Note_on_c, 0, 87, 63
2, 8164, Note_on_c, 0, 68, 0
2, 8170, Note_on_c, 0, 87, 0
2, 8195, Note_on_c, 0, 50, 50
2, 8202, Note_on_c, 0, 58, 51
2, 8203, Note_on_c, 0, 50, 0
2, 8207, Note_on_c, 0, 70, 50
2, 8211, Note_on_c, 0, 80, 52
2, 8213, Note_on_c, 0, 70, 0
2, 8214, Note_on_c, 0, 68, 67
2, 8220, Note_on_c, 0, 80, 0
2, 8224, Note_on_c, 0, 68, 0
2, 8227, Note_on_c, 0, 58, 0
2, 8227, Note_on_c, 0, 89, 67
2, 8237, Note_on_c, 0, 89, 0
2, 8262, Note_on_c, 0, 51, 52
2, 8263, Control_c, 0, 64, 0
2, 8267, Note_on_c, 0, 70, 59
2, 8273, Control_c, 0, 64, 127
2, 8273, Note_on_c, 0, 58, 55
2, 8274, Note_on_c, 0, 51, 0
2, 8275, Note_on_c, 0, 78, 61
2, 8276, Note_on_c, 0, 70, 0
2, 8280, Note_on_c, 0, 78, 0
2, 8282, Note_on_c, 0, 66, 59
2, 8288, Note_on_c, 0, 90, 74
2, 8290, Note_on_c, 0, 58, 0
2, 8291, Note_on_c, 0, 66, 0
2, 8293, Note_on_c, 0, 90, 0
2, 8324, Note_on_c, 0, 51, 55
2, 8329, Note_on_c, 0, 70, 39
2, 8335, Note_on_c, 0, 58, 56
2, 8336, Note_on_c, 0, 78, 48
2, 8337, Note_on_c, 0, 51, 0
2, 8342, Note_on_c, 0, 66, 57
2, 8343, Note_on_c, 0, 82, 53
2, 8351, Note_on_c, 0, 58, 0
2, 8354, Note_on_c, 0, 66, 0
2, 8357, Note_on_c, 0, 70, 0
2, 8361, Note_on_c, 0, 78, 0
2, 8361, Note_on_c, 0, 82, 0
2, 8381, Note_on_c, 0, 51, 53
2, 8389, Note_on_c, 0, 69, 41
2, 8389, Note_on_c, 0, 58, 55
2, 8394, Note_on_c, 0, 51, 0
2, 8395, Note_on_c, 0, 78, 50
2, 8400, Note_on_c, 0, 66, 53
2, 8402, Note_on_c, 0, 81, 57
2, 8410, Note_on_c, 0, 66, 0
2, 8410, Note_on_c, 0, 58, 0
2, 8410, Note_on_c, 0, 69, 0
2, 8418, Note_on_c, 0, 78, 0
2, 8420, Note_on_c, 0, 81, 0
2, 8438, Note_on_c, 0, 51, 55
2, 8448, Note_on_c, 0, 58, 55
2, 8451, Note_on_c, 0, 70, 42
2, 8452, Note_on_c, 0, 51, 0
2, 8455, Note_on_c, 0, 78, 45
2, 8457, Note_on_c, 0, 66, 64
2, 8462, Note_on_c, 0, 58, 0
2, 8464, Note_on_c, 0, 82, 56
2, 8466, Note_on_c, 0, 66, 0
2, 8474, Note_on_c, 0, 70, 0
2, 8479, Note_on_c, 0, 78, 0
2, 8481, Note_on_c, 0, 82, 0
2, 8499, Note_on_c, 0, 49, 53
2, 8501, Control_c, 0, 64, 0
2, 8508, Note_on_c, 0, 58, 55
2, 8509, Note_on_c, 0, 49, 0
2, 8510, Note_on_c, 0, 71, 41
2, 8510, Control_c, 0, 64, 127
2, 8517, Note_on_c, 0, 77, 47
2, 8519, Note_on_c, 0, 65, 59
2, 8525, Note_on_c, 0, 83, 62
2, 8531, Note_on_c, 0, 65, 0
2, 8532, Note_on_c, 0, 58, 0
2, 8533, Note_on_c, 0, 71, 0
2, 8537, Note_on_c, 0, 77, 0
2, 8542, Note_on_c, 0, 83, 0
2, 8557, Note_on_c, 0, 49, 57
2, 8567, Note_on_c, 0, 70, 41
2, 8568, Note_on_c, 0, 49, 0
2, 8569, Note_on_c, 0, 58, 59
2, 8575, Note_on_c, 0, 77, 41
2, 8578, Note_on_c, 0, 65, 56
2, 8580, Note_on_c, 0, 70, 0
2, 8585, Note_on_c, 0, 85, 57
2, 8587, Note_on_c, 0, 77, 0
2, 8588, Note_on_c, 0, 65, 0
2, 8594, Note_on_c, 0, 58, 0
2, 8599, Note_on_c, 0, 85, 0
2, 8620, Control_c, 0, 64, 0
2, 8624, Note_on_c, 0, 66, 45
2, 8625, Note_on_c, 0, 47, 57
2, 8630, Note_on_c, 0, 75, 50
2, 8631, Note_on_c, 0, 66, 0
2, 8632, Control_c, 0, 64, 127
2, 8634, Note_on_c, 0, 54, 61
2, 8635, Note_on_c, 0, 47, 0
2, 8638, Note_on_c, 0, 75, 0
2, 8646, Note_on_c, 0, 87, 58
2, 8647, Note_on_c, 0, 63, 58
2, 8652, Note_on_c, 0, 87, 0
2, 8653, Note_on_c, 0, 54, 0
2, 8655, Note_on_c, 0, 63, 0
2, 8686, Note_on_c, 0, 47, 63
2, 8689, Note_on_c, 0, 66, 50
2, 8694, Note_on_c, 0, 47, 0
2, 8694, Note_on_c, 0, 54, 66
2, 8697, Note_on_c, 0, 75, 52
2, 8704, Note_on_c, 0, 78, 59
2, 8706, Note_on_c, 0, 63, 59
2, 8713, Note_on_c, 0, 54, 0
2, 8714, Note_on_c, 0, 66, 0
2, 8715, Note_on_c, 0, 75, 0
2, 8716, Note_on_c, 0, 63, 0
2, 8723, Note_on_c, 0, 78, 0
2, 8742, Note_on_c, 0, 47, 63
2, 8747, Note_on_c, 0, 65, 48
2, 8751, Note_on_c, 0, 54, 66
2, 8752, Note_on_c, 0, 47, 0
2, 8757, Note_on_c, 0, 75, 53
2, 8764, Note_on_c, 0, 77, 64
2, 8764, Note_on_c, 0, 63, 61
2, 8772, Note_on_c, 0, 54, 0
2, 8773, Note_on_c, 0, 63, 0
2, 8774, Note_on_c, 0, 65, 0
2, 8779, Note_on_c, 0, 77, 0
2, 8780, Note_on_c, 0, 75, 0
2, 8802, Note_on_c, 0, 47, 62
2, 8808, Note_on_c, 0, 66, 55
2, 8811, Note_on_c, 0, 47, 0
2, 8811, Note_on_c, 0, 54, 63
2, 8814, Note_on_c, 0, 75, 59
2, 8823, Note_on_c, 0, 63, 59
2, 8825, Note_on_c, 0, 78, 69
2, 8830, Note_on_c, 0, 54, 0
2, 8831, Note_on_c, 0, 63, 0
2, 8835, Note_on_c, 0, 66, 0
2, 8837, Note_on_c, 0, 75, 0
2, 8843, Note_on_c, 0, 78, 0
2, 8863, Note_on_c, 0, 46, 64
2, 8865, Note_on_c, 0, 66, 55
2, 8866, Control_c, 0, 64, 0
2, 8872, Note_on_c, 0, 75, 59
2, 8872, Note_on_c, 0, 54, 61
2, 8873, Note_on_c, 0, 46, 0
2, 8875, Control_c, 0, 64, 127
2, 8882, Note_on_c, 0, 80, 68
2, 8882, Note_on_c, 0, 63, 72
2, 8892, Note_on_c, 0, 63, 0
2, 8892, Note_on_c, 0, 66, 0
2, 8893, Note_on_c, 0, 75, 0
2, 8896, Note_on_c, 0, 54, 0
2, 8899, Note_on_c, 0, 80, 0
2, 8920, Note_on_c, 0, 66, 55
2, 8923, Note_on_c, 0, 46, 68
2, 8929, Note_on_c, 0, 73, 58
2, 8930, Note_on_c, 0, 46, 0
2, 8933, Note_on_c, 0, 54, 67
2, 8934, Note_on_c, 0, 66, 0
2, 8939, Note_on_c, 0, 61, 67
2, 8941, Note_on_c, 0, 82, 71
2, 8946, Note_on_c, 0, 73, 0
2, 8947, Note_on_c, 0, 54, 0
2, 8949, Note_on_c, 0, 61, 0
2, 8954, Note_on_c, 0, 82, 0
2, 8979, Note_on_c, 0, 63, 61
2, 8985, Note_on_c, 0, 71, 63
2, 8986, Note_on_c, 0, 63, 0
2, 8986, Note_on_c, 0, 44, 77
2, 8989, Control_c, 0, 64, 0
2, 8992, Note_on_c, 0, 71, 0
2, 8994, Note_on_c, 0, 51, 79
2, 8998, Note_on_c, 0, 44, 0
2, 8998, Control_c, 0, 64, 127
2, 9000, Note_on_c, 0, 83, 74
2, 9003, Note_on_c, 0, 59, 70
2, 9009, Note_on_c, 0, 83, 0
2, 9015, Note_on_c, 0, 51, 0
2, 9017, Note_on_c, 0, 59, 0
2, 9039, Note_on_c, 0, 63, 50
2, 9041, Note_on_c, 0, 44, 62
2, 9049, Note_on_c, 0, 71, 58
2, 9054, Note_on_c, 0, 51, 72
2, 9057, Note_on_c, 0, 75, 74
2, 9059, Note_on_c, 0, 44, 0
2, 9062, Note_on_c, 0, 59, 61
2, 9068, Note_on_c, 0, 63, 0
2, 9069, Note_on_c, 0, 71, 0
2, 9073, Note_on_c, 0, 51, 0
2, 9075, Note_on_c, 0, 59, 0
2, 9078, Note_on_c, 0, 75, 0
2, 9097, Control_c, 0, 64, 0
2, 9101, Note_on_c, 0, 62, 51
2, 9103, Note_on_c, 0, 44, 63
2, 9108, Control_c, 0, 64, 127
2, 9109, Note_on_c, 0, 71, 59
2, 9113, Note_on_c, 0, 50, 77
2, 9118, Note_on_c, 0, 74, 71
2, 9119, Note_on_c, 0, 44, 0
2, 9121, Note_on_c, 0, 59, 64
2, 9126, Note_on_c, 0, 62, 0
2, 9130, Note_on_c, 0, 50, 0
2, 9132, Note_on_c, 0, 71, 0
2, 9134, Note_on_c, 0, 74, 0
2, 9137, Note_on_c, 0, 59, 0
2, 9160, Note_on_c, 0, 63, 53
2, 9162, Note_on_c, 0, 44, 63
2, 9169, Note_on_c, 0, 71, 59
2, 9172, Note_on_c, 0, 51, 77
2, 9177, Note_on_c, 0, 44, 0
2, 9180, Note_on_c, 0, 75, 75
2, 9180, Note_on_c, 0, 59, 67
2, 9191, Note_on_c, 0, 51, 0
2, 9192, Note_on_c, 0, 63, 0
2, 9192, Note_on_c, 0, 59, 0
2, 9193, Note_on_c, 0, 71, 0
2, 9201, Note_on_c, 0, 75, 0
2, 9212, Note_on_c, 0, 44, 62
2, 9219, Control_c, 0, 64, 0
2, 9220, Note_on_c, 0, 64, 55
2, 9227, Note_on_c, 0, 52, 78
2, 9228, Control_c, 0, 64, 127
2, 9231, Note_on_c, 0, 44, 0
2, 9232, Note_on_c, 0, 71, 61
2, 9237, Note_on_c, 0, 59, 64
2, 9242, Note_on_c, 0, 76, 72
2, 9244, Note_on_c, 0, 52, 0
2, 9249, Note_on_c, 0, 64, 0
2, 9251, Note_on_c, 0, 59, 0
2, 9253, Note_on_c, 0, 71, 0
2, 9257, Note_on_c, 0, 76, 0
2, 9277, Note_on_c, 0, 44, 61
2, 9285, Note_on_c, 0, 63, 55
2, 9289, Note_on_c, 0, 51, 78
2, 9293, Note_on_c, 0, 44, 0
2, 9294, Note_on_c, 0, 71, 61
2, 9298, Note_on_c, 0, 59, 62
2, 9300, Note_on_c, 0, 75, 73
2, 9310, Note_on_c, 0, 71, 0
2, 9310, Note_on_c, 0, 63, 0
2, 9311, Note_on_c, 0, 51, 0
2, 9313, Note_on_c, 0, 59, 0
2, 9319, Note_on_c, 0, 75, 0
2, 9338, Note_on_c, 0, 64, 55
2, 9338, Control_c, 0, 64, 0
2, 9341, Note_on_c, 0, 44, 67
2, 9347, Control_c, 0, 64, 127
2, 9350, Note_on_c, 0, 71, 59
2, 9353, Note_on_c, 0, 52, 78
2, 9359, Note_on_c, 0, 44, 0
2, 9361, Note_on_c, 0, 59, 69
2, 9363, Note_on_c, 0, 76, 73
2, 9368, Note_on_c, 0, 52, 0
2, 9370, Note_on_c, 0, 64, 0
2, 9372, Note_on_c, 0, 71, 0
2, 9376, Note_on_c, 0, 59, 0
2, 9379, Note_on_c, 0, 76, 0
2, 9396, Note_on_c, 0, 44, 73
2, 9406, Note_on_c, 0, 65, 62
2, 9408, Note_on_c, 0, 53, 82
2, 9411, Note_on_c, 0, 71, 64
2, 9412, Note_on_c, 0, 44, 0
2, 9415, Note_on_c, 0, 59, 74
2, 9422, Note_on_c, 0, 77, 75
2, 9426, Note_on_c, 0, 53, 0
2, 9430, Note_on_c, 0, 59, 0
2, 9430, Note_on_c, 0, 65, 0
2, 9433, Note_on_c, 0, 71, 0
2, 9439, Note_on_c, 0, 77, 0
2, 9455, Note_on_c, 0, 44, 72
2, 9460, Control_c, 0, 64, 0
2, 9461, Note_on_c, 0, 64, 58
2, 9467, Note_on_c, 0, 71, 62
2, 9470, Control_c, 0, 64, 127
2, 9470, Note_on_c, 0, 52, 89
2, 9474, Note_on_c, 0, 44, 0
2, 9476, Note_on_c, 0, 59, 69
2, 9478, Note_on_c, 0, 76, 77
2, 9487, Note_on_c, 0, 52, 0
2, 9490, Note_on_c, 0, 64, 0
2, 9490, Note_on_c, 0, 71, 0
2, 9491, Note_on_c, 0, 59, 0
2, 9495, Note_on_c, 0, 76, 0
2, 9517, Note_on_c, 0, 44, 78
2, 9522, Note_on_c, 0, 65, 64
2, 9528, Note_on_c, 0, 53, 89
2, 9529, Note_on_c, 0, 71, 67
2, 9532, Note_on_c, 0, 44, 0
2, 9535, Note_on_c, 0, 59, 71
2, 9541, Note_on_c, 0, 77, 80
2, 9543, Note_on_c, 0, 53, 0
2, 9551, Note_on_c, 0, 59, 0
2, 9551, Note_on_c, 0, 65, 0
2, 9552, Note_on_c, 0, 71, 0
2, 9557, Note_on_c, 0, 77, 0
2, 9575, Control_c, 0, 64, 0
2, 9579, Note_on_c, 0, 44, 74
2, 9584, Note_on_c, 0, 66, 75
2, 9585, Control_c, 0, 64, 127
2, 9590, Note_on_c, 0, 54, 88
2, 9591, Note_on_c, 0, 71, 79
2, 9593, Note_on_c, 0, 44, 0
2, 9595, Note_on_c, 0, 59, 75
2, 9600, Note_on_c, 0, 78, 89
2, 9607, Note_on_c, 0, 54, 0
2, 9609, Note_on_c, 0, 71, 0
2, 9612, Note_on_c, 0, 66, 0
2, 9613, Note_on_c, 0, 59, 0
2, 9617, Note_on_c, 0, 78, 0
2, 9640, Note_on_c, 0, 44, 68
2, 9643, Note_on_c, 0, 63, 72
2, 9647, Note_on_c, 0, 51, 85
2, 9651, Note_on_c, 0, 44, 0
2, 9651, Note_on_c, 0, 71, 74
2, 9655, Note_on_c, 0, 59, 69
2, 9659, Note_on_c, 0, 75, 84
2, 9663, Note_on_c, 0, 51, 0
2, 9667, Note_on_c, 0, 71, 0
2, 9669, Note_on_c, 0, 59, 0
2, 9670, Note_on_c, 0, 63, 0
2, 9676, Note_on_c, 0, 75, 0
2, 9694, Control_c, 0, 64, 0
2, 9704, Note_on_c, 0, 62, 53
2, 9705, Control_c, 0, 64, 127
2, 9712, Note_on_c, 0, 70, 58
2, 9716, Note_on_c, 0, 46, 85
2, 9717, Note_on_c, 0, 34, 89
2, 9720, Note_on_c, 0, 74, 71
2, 9726, Note_on_c, 0, 62, 0
2, 9730, Note_on_c, 0, 70, 0
2, 9735, Note_on_c, 0, 74, 0
2, 9741, Note_on_c, 0, 34, 0
2, 9743, Note_on_c, 0, 46, 0
2, 9763, Note_on_c, 0, 46, 51
2, 9767, Note_on_c, 0, 68, 47
2, 9773, Note_on_c, 0, 77, 59
2, 9773, Note_on_c, 0, 53, 51
2, 9779, Note_on_c, 0, 46, 0
2, 9783, Note_on_c, 0, 82, 51
2, 9785, Note_on_c, 0, 62, 52
2, 9798, Note_on_c, 0, 62, 0
2, 9799, Note_on_c, 0, 53, 0
2, 9799, Note_on_c, 0, 68, 0
2, 9799, Note_on_c, 0, 77, 0
2, 9816, Note_on_c, 0, 82, 0
2, 9820, Note_on_c, 0, 46, 51
2, 9823, Note_on_c, 0, 68, 46
2, 9830, Note_on_c, 0, 53, 51
2, 9831, Note_on_c, 0, 46, 0
2, 9831, Note_on_c, 0, 76, 57
2, 9838, Note_on_c, 0, 82, 48
2, 9841, Note_on_c, 0, 62, 51
2, 9845, Note_on_c, 0, 68, 0
2, 9846, Note_on_c, 0, 76, 0
2, 9848, Note_on_c, 0, 53, 0
2, 9852, Note_on_c, 0, 62, 0
2, 9871, Note_on_c, 0, 82, 0
2, 9879, Note_on_c, 0, 46, 48
2, 9880, Note_on_c, 0, 68, 45
2, 9888, Note_on_c, 0, 53, 50
2, 9889, Note_on_c, 0, 46, 0
2, 9892, Note_on_c, 0, 77, 57
2, 9898, Note_on_c, 0, 62, 51
2, 9900, Note_on_c, 0, 82, 51
2, 9909, Note_on_c, 0, 62, 0
2, 9909, Note_on_c, 0, 68, 0
2, 9913, Note_on_c, 0, 53, 0
2, 9913, Note_on_c, 0, 77, 0
2, 9931, Note_on_c, 0, 82, 0
2, 9931, Control_c, 0, 64, 0
2, 9935, Note_on_c, 0, 46, 45
2, 9939, Control_c, 0, 64, 127
2, 9940, Note_on_c, 0, 68, 39
2, 9946, Note_on_c, 0, 53, 46
2, 9948, Note_on_c, 0, 46, 0
2, 9951, Note_on_c, 0, 79, 56
2, 9957, Note_on_c, 0, 63, 47
2, 9962, Note_on_c, 0, 82, 50
2, 9967, Note_on_c, 0, 63, 0
2, 9968, Note_on_c, 0, 53, 0
2, 9970, Note_on_c, 0, 68, 0
2, 9970, Note_on_c, 0, 79, 0
2, 9984, Note_on_c, 0, 82, 0
2, 9997, Control_c, 0, 64, 0
2, 9998, Note_on_c, 0, 46, 46
2, 10003, Note_on_c, 0, 68, 45
2, 10003, Control_c, 0, 64, 127
2, 10005, Note_on_c, 0, 53, 47
2, 10009, Note_on_c, 0, 46, 0
2, 10011, Note_on_c, 0, 74, 58
2, 10014, Note_on_c, 0, 53, 0
2, 10020, Note_on_c, 0, 82, 50
2, 10021, Note_on_c, 0, 65, 48
2, 10026, Note_on_c, 0, 65, 0
2, 10032, Note_on_c, 0, 68, 0
2, 10032, Note_on_c, 0, 74, 0
2, 10045, Note_on_c, 0, 82, 0
2, 10055, Control_c, 0, 64, 0
2, 10058, Note_on_c, 0, 46, 48
2, 10061, Note_on_c, 0, 67, 46
2, 10064, Control_c, 0, 64, 127
2, 10069, Note_on_c, 0, 75, 58
2, 10072, Note_on_c, 0, 46, 0
2, 10072, Note_on_c, 0, 55, 50
2, 10073, Note_on_c, 0, 67, 0
2, 10079, Note_on_c, 0, 82, 48
2, 10084, Note_on_c, 0, 63, 52
2, 10086, Note_on_c, 0, 75, 0
2, 10089, Note_on_c, 0, 82, 0
2, 10090, Note_on_c, 0, 55, 0
2, 10094, Note_on_c, 0, 63, 0
2, 10112, Control_c, 0, 64, 0
2, 10115, Control_c, 0, 67, 127
2, 10122, Control_c, 0, 64, 127
2, 10122, Note_on_c, 0, 46, 43
2, 10124, Note_on_c, 0, 69, 35
2, 10131, Note_on_c, 0, 75, 40
2, 10132, Note_on_c, 0, 46, 0
2, 10132, Note_on_c, 0, 54, 43
2, 10140, Note_on_c, 0, 69, 0
2, 10145, Note_on_c, 0, 84, 53
2, 10145, Note_on_c, 0, 63, 45
2, 10149, Note_on_c, 0, 75, 0
2, 10153, Note_on_c, 0, 54, 0
2, 10155, Note_on_c, 0, 63, 0
2, 10159, Note_on_c, 0, 84, 0
2, 10178, Note_on_c, 0, 46, 39
2, 10182, Note_on_c, 0, 69, 40
2, 10187, Note_on_c, 0, 46, 0
2, 10187, Note_on_c, 0, 75, 41
2, 10191, Note_on_c, 0, 54, 39
2, 10199, Note_on_c, 0, 83, 52
2, 10203, Note_on_c, 0, 63, 40
2, 10210, Note_on_c, 0, 75, 0
2, 10213, Note_on_c, 0, 69, 0
2, 10214, Note_on_c, 0, 54, 0
2, 10215, Note_on_c, 0, 63, 0
2, 10217, Note_on_c, 0, 83, 0
2, 10239, Note_on_c, 0, 46, 39
2, 10242, Note_on_c, 0, 69, 35
2, 10249, Note_on_c, 0, 75, 37
2, 10250, Note_on_c, 0, 46, 0
2, 10250, Note_on_c, 0, 54, 40
2, 10254, Note_on_c, 0, 69, 0
2, 10262, Note_on_c, 0, 63, 42
2, 10263, Note_on_c, 0, 84, 53
2, 10269, Note_on_c, 0, 54, 0
2, 10269, Note_on_c, 0, 75, 0
2, 10272, Note_on_c, 0, 63, 0
2, 10280, Note_on_c, 0, 84, 0
2, 10301, Note_on_c, 0, 46, 40
2, 10303, Note_on_c, 0, 69, 36
2, 10305, Control_c, 0, 64, 0
2, 10308, Note_on_c, 0, 75, 37
2, 10309, Note_on_c, 0, 53, 42
2, 10310, Note_on_c, 0, 46, 0
2, 10312, Control_c, 0, 64, 127
2, 10313, Note_on_c, 0, 69, 0
2, 10319, Note_on_c, 0, 63, 43
2, 10324, Note_on_c, 0, 86, 52
2, 10325, Note_on_c, 0, 75, 0
2, 10325, Note_on_c, 0, 53, 0
2, 10328, Note_on_c, 0, 63, 0
2, 10336, Note_on_c, 0, 86, 0
2, 10359, Note_on_c, 0, 46, 39
2, 10364, Note_on_c, 0, 69, 39
2, 10368, Note_on_c, 0, 53, 40
2, 10370, Note_on_c, 0, 75, 40
2, 10371, Note_on_c, 0, 46, 0
2, 10377, Note_on_c, 0, 69, 0
2, 10380, Note_on_c, 0, 63, 41
2, 10382, Note_on_c, 0, 84, 52
2, 10385, Note_on_c, 0, 53, 0
2, 10387, Note_on_c, 0, 75, 0
2, 10387, Note_on_c, 0, 63, 0
2, 10398, Note_on_c, 0, 84, 0
2, 10417, Note_on_c, 0, 74, 41
2, 10418, Control_c, 0, 64, 0
2, 10429, Note_on_c, 0, 81, 46
2, 10429, Control_c, 0, 64, 127
2, 10431, Note_on_c, 0, 74, 0
2, 10437, Note_on_c, 0, 34, 51
2, 10438, Note_on_c, 0, 81, 0
2, 10442, Note_on_c, 0, 89, 53
2, 10450, Note_on_c, 0, 89, 0
2, 10458, Note_on_c, 0, 34, 0
2, 10467, Control_c, 0, 67, 0
2, 10484, Note_on_c, 0, 68, 46
2, 10486, Note_on_c, 0, 46, 46
2, 10494, Note_on_c, 0, 77, 63
2, 10496, Note_on_c, 0, 53, 48
2, 10500, Note_on_c, 0, 82, 48
2, 10501, Note_on_c, 0, 46, 0
2, 10507, Note_on_c, 0, 77, 0
2, 10507, Note_on_c, 0, 62, 50
2, 10511, Note_on_c, 0, 68, 0
2, 10517, Note_on_c, 0, 82, 0
2, 10521, Note_on_c, 0, 62, 0
2, 10524, Note_on_c, 0, 53, 0
2, 10540, Note_on_c, 0, 68, 42
2, 10544, Note_on_c, 0, 46, 47
2, 10548, Note_on_c, 0, 76, 63
2, 10555, Note_on_c, 0, 53, 48
2, 10556, Note_on_c, 0, 46, 0
2, 10560, Note_on_c, 0, 82, 47
2, 10564, Note_on_c, 0, 61, 50
2, 10568, Note_on_c, 0, 68, 0
2, 10568, Note_on_c, 0, 76, 0
2, 10575, Note_on_c, 0, 61, 0
2, 10579, Note_on_c, 0, 82, 0
2, 10579, Note_on_c, 0, 53, 0
2, 10597, Note_on_c, 0, 46, 46
2, 10600, Note_on_c, 0, 68, 43
2, 10608, Note_on_c, 0, 77, 61
2, 10609, Note_on_c, 0, 53, 47
2, 10610, Note_on_c, 0, 46, 0
2, 10620, Note_on_c, 0, 82, 45
2, 10620, Note_on_c, 0, 62, 47
2, 10630, Note_on_c, 0, 68, 0
2, 10631, Note_on_c, 0, 62, 0
2, 10631, Note_on_c, 0, 77, 0
2, 10636, Note_on_c, 0, 53, 0
2, 10643, Note_on_c, 0, 82, 0
2, 10654, Note_on_c, 0, 46, 46
2, 10664, Control_c, 0, 64, 0
2, 10665, Note_on_c, 0, 46, 0
2, 10665, Note_on_c, 0, 53, 46
2, 10666, Note_on_c, 0, 68, 48
2, 10674, Control_c, 0, 64, 127
2, 10675, Note_on_c, 0, 79, 64
2, 10678, Note_on_c, 0, 63, 46
2, 10682, Note_on_c, 0, 82, 46
2, 10690, Note_on_c, 0, 63, 0
2, 10690, Note_on_c, 0, 68, 0
2, 10691, Note_on_c, 0, 79, 0
2, 10694, Note_on_c, 0, 53, 0
2, 10700, Note_on_c, 0, 82, 0
2, 10708, Note_on_c, 0, 68, 40
2, 10715, Note_on_c, 0, 46, 39
2, 10717, Note_on_c, 0, 80, 69
2, 10724, Note_on_c, 0, 82, 45
2, 10724, Note_on_c, 0, 53, 40
2, 10726, Note_on_c, 0, 46, 0
2, 10731, Note_on_c, 0, 80, 0
2, 10733, Note_on_c, 0, 53, 0
2, 10737, Note_on_c, 0, 68, 0
2, 10740, Note_on_c, 0, 65, 40
2, 10745, Note_on_c, 0, 82, 0
2, 10749, Note_on_c, 0, 68, 47
2, 10752, Note_on_c, 0, 65, 0
2, 10757, Note_on_c, 0, 74, 66
2, 10764, Note_on_c, 0, 82, 45
2, 10773, Note_on_c, 0, 68, 0
2, 10776, Note_on_c, 0, 74, 0
2, 10778, Note_on_c, 0, 82, 0
2, 10778, Note_on_c, 0, 46, 46
2, 10779, Control_c, 0, 64, 0
2, 10788, Note_on_c, 0, 67, 41
2, 10789, Control_c, 0, 64, 127
2, 10792, Note_on_c, 0, 46, 0
2, 10792, Note_on_c, 0, 55, 48
2, 10794, Note_on_c, 0, 75, 68
2, 10801, Note_on_c, 0, 67, 0
2, 10803, Note_on_c, 0, 82, 43
2, 10803, Note_on_c, 0, 63, 48
2, 10809, Note_on_c, 0, 75, 0
2, 10811, Note_on_c, 0, 82, 0
2, 10813, Note_on_c, 0, 55, 0
2, 10816, Note_on_c, 0, 63, 0
2, 10825, Control_c, 0, 67, 127
2, 10841, Note_on_c, 0, 46, 43
2, 10842, Note_on_c, 0, 69, 34
2, 10850, Note_on_c, 0, 75, 41
2, 10850, Control_c, 0, 64, 0
2, 10851, Note_on_c, 0, 46, 0
2, 10851, Note_on_c, 0, 54, 39
2, 10856, Control_c, 0, 64, 127
2, 10859, Note_on_c, 0, 69, 0
2, 10860, Note_on_c, 0, 63, 40
2, 10864, Note_on_c, 0, 84, 55
2, 10870, Note_on_c, 0, 63, 0
2, 10872, Note_on_c, 0, 75, 0
2, 10872, Note_on_c, 0, 54, 0
2, 10879, Note_on_c, 0, 84, 0
2, 10896, Note_on_c, 0, 46, 41
2, 10905, Note_on_c, 0, 69, 42
2, 10906, Note_on_c, 0, 46, 0
2, 10909, Note_on_c, 0, 75, 45
2, 10911, Note_on_c, 0, 54, 41
2, 10917, Note_on_c, 0, 63, 41
2, 10921, Note_on_c, 0, 83, 52
2, 10925, Note_on_c, 0, 54, 0
2, 10927, Note_on_c, 0, 63, 0
2, 10931, Note_on_c, 0, 69, 0
2, 10934, Note_on_c, 0, 75, 0
2, 10941, Note_on_c, 0, 83, 0
2, 10955, Note_on_c, 0, 46, 42
2, 10961, Note_on_c, 0, 69, 36
2, 10964, Note_on_c, 0, 46, 0
2, 10964, Note_on_c, 0, 54, 41
2, 10967, Note_on_c, 0, 75, 41
2, 10976, Note_on_c, 0, 63, 43
2, 10979, Note_on_c, 0, 69, 0
2, 10983, Note_on_c, 0, 84, 52
2, 10985, Note_on_c, 0, 54, 0
2, 10987, Note_on_c, 0, 63, 0
2, 10989, Note_on_c, 0, 75, 0
2, 10997, Note_on_c, 0, 84, 0
2, 11015, Note_on_c, 0, 46, 43
2, 11017, Note_on_c, 0, 69, 37
2, 11022, Note_on_c, 0, 75, 40
2, 11025, Note_on_c, 0, 53, 45
2, 11027, Note_on_c, 0, 46, 0
2, 11027, Control_c, 0, 64, 0
2, 11029, Note_on_c, 0, 69, 0
2, 11035, Control_c, 0, 64, 127
2, 11036, Note_on_c, 0, 63, 41
2, 11042, Note_on_c, 0, 75, 0
2, 11042, Note_on_c, 0, 86, 52
2, 11048, Note_on_c, 0, 63, 0
2, 11051, Note_on_c, 0, 86, 0
2, 11051, Note_on_c, 0, 53, 0
2, 11075, Note_on_c, 0, 46, 43
2, 11079, Note_on_c, 0, 69, 42
2, 11085, Note_on_c, 0, 75, 45
2, 11087, Note_on_c, 0, 53, 46
2, 11088, Note_on_c, 0, 46, 0
2, 11092, Note_on_c, 0, 69, 0
2, 11099, Note_on_c, 0, 84, 53
2, 11099, Note_on_c, 0, 63, 48
2, 11106, Note_on_c, 0, 75, 0
2, 11108, Note_on_c, 0, 53, 0
2, 11108, Note_on_c, 0, 63, 0
2, 11118, Note_on_c, 0, 84, 0
2, 11137, Note_on_c, 0, 74, 39
2, 11137, Control_c, 0, 64, 0
2, 11145, Control_c, 0, 64, 127
2, 11151, Note_on_c, 0, 80, 47
2, 11158, Note_on_c, 0, 74, 0
2, 11160, Note_on_c, 0, 34, 55
2, 11161, Note_on_c, 0, 89, 53
2, 11164, Note_on_c, 0, 80, 0
2, 11172, Note_on_c, 0, 89, 0
2, 11180, Note_on_c, 0, 34, 0
2, 11180, Control_c, 0, 67, 0
2, 11201, Note_on_c, 0, 46, 48
2, 11206, Note_on_c, 0, 68, 42
2, 11212, Note_on_c, 0, 77, 55
2, 11212, Note_on_c, 0, 53, 51
2, 11213, Note_on_c, 0, 46, 0
2, 11221, Note_on_c, 0, 82, 46
2, 11223, Note_on_c, 0, 62, 51
2, 11229, Note_on_c, 0, 77, 0
2, 11232, Note_on_c, 0, 68, 0
2, 11234, Note_on_c, 0, 62, 0
2, 11239, Note_on_c, 0, 53, 0
2, 11242, Note_on_c, 0, 82, 0
2, 11264, Note_on_c, 0, 68, 43
2, 11266, Note_on_c, 0, 46, 52
2, 11269, Note_on_c, 0, 76, 52
2, 11276, Note_on_c, 0, 53, 53
2, 11277, Note_on_c, 0, 46, 0
2, 11280, Note_on_c, 0, 82, 45
2, 11284, Note_on_c, 0, 68, 0
2, 11284, Note_on_c, 0, 61, 55
2, 11287, Note_on_c, 0, 76, 0
2, 11295, Note_on_c, 0, 53, 0
2, 11295, Note_on_c, 0, 61, 0
2, 11302, Note_on_c, 0, 82, 0
2, 11321, Note_on_c, 0, 46, 50
2, 11323, Note_on_c, 0, 68, 41
2, 11331, Note_on_c, 0, 77, 52
2, 11331, Note_on_c, 0, 53, 51
2, 11334, Note_on_c, 0, 46, 0
2, 11342, Note_on_c, 0, 62, 51
2, 11343, Note_on_c, 0, 82, 46
2, 11347, Note_on_c, 0, 53, 0
2, 11348, Note_on_c, 0, 68, 0
2, 11350, Note_on_c, 0, 77, 0
2, 11353, Note_on_c, 0, 62, 0
2, 11363, Note_on_c, 0, 82, 0
2, 11376, Note_on_c, 0, 46, 47
2, 11381, Note_on_c, 0, 68, 45
2, 11386, Note_on_c, 0, 53, 48
2, 11387, Note_on_c, 0, 46, 0
2, 11387, Control_c, 0, 64, 0
2, 11391, Note_on_c, 0, 79, 53
2, 11396, Control_c, 0, 64, 127
2, 11397, Note_on_c, 0, 63, 50
2, 11404, Note_on_c, 0, 53, 0
2, 11404, Note_on_c, 0, 82, 47
2, 11409, Note_on_c, 0, 63, 0
2, 11410, Note_on_c, 0, 68, 0
2, 11411, Note_on_c, 0, 79, 0
2, 11424, Note_on_c, 0, 82, 0
2, 11438, Note_on_c, 0, 46, 50
2, 11442, Note_on_c, 0, 68, 41
2, 11446, Note_on_c, 0, 53, 50
2, 11448, Note_on_c, 0, 46, 0
2, 11451, Note_on_c, 0, 77, 56
2, 11457, Note_on_c, 0, 62, 50
2, 11460, Note_on_c, 0, 82, 46
2, 11465, Note_on_c, 0, 53, 0
2, 11466, Note_on_c, 0, 77, 0
2, 11468, Note_on_c, 0, 62, 0
2, 11475, Note_on_c, 0, 68, 0
2, 11484, Note_on_c, 0, 82, 0
2, 11490, Control_c, 0, 64, 0
2, 11500, Note_on_c, 0, 46, 48
2, 11501, Note_on_c, 0, 69, 43
2, 11501, Control_c, 0, 64, 127
2, 11510, Note_on_c, 0, 54, 48
2, 11511, Note_on_c, 0, 78, 57
2, 11513, Note_on_c, 0, 46, 0
2, 11520, Note_on_c, 0, 63, 50
2, 11522, Note_on_c, 0, 83, 47
2, 11527, Note_on_c, 0, 69, 0
2, 11529, Note_on_c, 0, 78, 0
2, 11530, Note_on_c, 0, 63, 0
2, 11531, Note_on_c, 0, 54, 0
2, 11541, Note_on_c, 0, 83, 0
2, 11557, Note_on_c, 0, 46, 55
2, 11561, Note_on_c, 0, 69, 47
2, 11569, Note_on_c, 0, 46, 0
2, 11570, Note_on_c, 0, 78, 57
2, 11570, Note_on_c, 0, 54, 56
2, 11579, Note_on_c, 0, 63, 55
2, 11583, Note_on_c, 0, 83, 48
2, 11590, Note_on_c, 0, 63, 0
2, 11590, Note_on_c, 0, 54, 0
2, 11590, Note_on_c, 0, 69, 0
2, 11593, Note_on_c, 0, 78, 0
2, 11599, Note_on_c, 0, 83, 0
2, 11614, Note_on_c, 0, 46, 56
2, 11616, Control_c, 0, 64, 0
2, 11621, Note_on_c, 0, 69, 51
2, 11623, Control_c, 0, 64, 127
2, 11624, Note_on_c, 0, 46, 0
2, 11625, Note_on_c, 0, 54, 57
2, 11628, Note_on_c, 0, 77, 63
2, 11634, Note_on_c, 0, 62, 57
2, 11642, Note_on_c, 0, 83, 53
2, 11645, Note_on_c, 0, 62, 0
2, 11645, Note_on_c, 0, 54, 0
2, 11646, Note_on_c, 0, 69, 0
2, 11648, Note_on_c, 0, 77, 0
2, 11660, Note_on_c, 0, 83, 0
2, 11672, Note_on_c, 0, 46, 55
2, 11680, Note_on_c, 0, 46, 0
2, 11683, Note_on_c, 0, 69, 50
2, 11685, Note_on_c, 0, 54, 55
2, 11690, Note_on_c, 0, 78, 61
2, 11697, Note_on_c, 0, 63, 56
2, 11704, Note_on_c, 0, 54, 0
2, 11705, Note_on_c, 0, 63, 0
2, 11707, Note_on_c, 0, 83, 52
2, 11710, Note_on_c, 0, 69, 0
2, 11713, Note_on_c, 0, 78, 0
2, 11718, Note_on_c, 0, 83, 0
2, 11732, Note_on_c, 0, 46, 57
2, 11738, Control_c, 0, 64, 0
2, 11740, Note_on_c, 0, 46, 0
2, 11740, Note_on_c, 0, 54, 57
2, 11741, Note_on_c, 0, 69, 53
2, 11745, Control_c, 0, 64, 127
2, 11748, Note_on_c, 0, 54, 0
2, 11750, Note_on_c, 0, 80, 67
2, 11755, Note_on_c, 0, 65, 61
2, 11760, Note_on_c, 0, 83, 55
2, 11764, Note_on_c, 0, 65, 0
2, 11765, Note_on_c, 0, 69, 0
2, 11768, Note_on_c, 0, 80, 0
2, 11778, Note_on_c, 0, 83, 0
2, 11797, Note_on_c, 0, 46, 59
2, 11800, Note_on_c, 0, 69, 55
2, 11806, Note_on_c, 0, 46, 0
2, 11806, Note_on_c, 0, 54, 62
2, 11811, Note_on_c, 0, 78, 66
2, 11817, Note_on_c, 0, 63, 63
2, 11818, Note_on_c, 0, 54, 0
2, 11823, Note_on_c, 0, 63, 0
2, 11823, Note_on_c, 0, 83, 58
2, 11826, Note_on_c, 0, 69, 0
2, 11829, Note_on_c, 0, 78, 0
2, 11841, Note_on_c, 0, 83, 0
2, 11860, Note_on_c, 0, 70, 58
2, 11860, Note_on_c, 0, 46, 62
2, 11863, Control_c, 0, 64, 0
2, 11868, Note_on_c, 0, 79, 69
2, 11870, Control_c, 0, 64, 127
2, 11871, Note_on_c, 0, 46, 0
2, 11873, Note_on_c, 0, 55, 63
2, 11881, Note_on_c, 0, 84, 62
2, 11884, Note_on_c, 0, 64, 64
2, 11886, Note_on_c, 0, 70, 0
2, 11888, Note_on_c, 0, 55, 0
2, 11890, Note_on_c, 0, 79, 0
2, 11897, Note_on_c, 0, 84, 0
2, 11898, Note_on_c, 0, 64, 0
2, 11922, Note_on_c, 0, 46, 61
2, 11923, Note_on_c, 0, 70, 63
2, 11930, Note_on_c, 0, 46, 0
2, 11931, Note_on_c, 0, 79, 72
2, 11936, Note_on_c, 0, 55, 62
2, 11943, Note_on_c, 0, 70, 0
2, 11943, Note_on_c, 0, 64, 63
2, 11944, Note_on_c, 0, 84, 61
2, 11949, Note_on_c, 0, 55, 0
2, 11953, Note_on_c, 0, 79, 0
2, 11954, Note_on_c, 0, 64, 0
2, 11961, Note_on_c, 0, 84, 0
2, 11974, Note_on_c, 0, 70, 53
2, 11981, Note_on_c, 0, 46, 61
2, 11982, Control_c, 0, 64, 0
2, 11986, Note_on_c, 0, 78, 72
2, 11989, Note_on_c, 0, 46, 0
2, 11990, Control_c, 0, 64, 127
2, 11992, Note_on_c, 0, 55, 61
2, 12001, Note_on_c, 0, 84, 62
2, 12001, Note_on_c, 0, 63, 63
2, 12004, Note_on_c, 0, 70, 0
2, 12007, Note_on_c, 0, 78, 0
2, 12012, Note_on_c, 0, 63, 0
2, 12012, Note_on_c, 0, 55, 0
2, 12017, Note_on_c, 0, 84, 0
2, 12037, Note_on_c, 0, 70, 52
2, 12037, Note_on_c, 0, 46, 61
2, 12046, Note_on_c, 0, 46, 0
2, 12046, Note_on_c, 0, 79, 73
2, 12050, Note_on_c, 0, 55, 62
2, 12058, Note_on_c, 0, 64, 62
2, 12060, Note_on_c, 0, 84, 59
2, 12062, Note_on_c, 0, 70, 0
2, 12069, Note_on_c, 0, 64, 0
2, 12070, Note_on_c, 0, 55, 0
2, 12072, Note_on_c, 0, 79, 0
2, 12078, Note_on_c, 0, 84, 0
2, 12092, Note_on_c, 0, 46, 59
2, 12093, Control_c, 0, 64, 0
2, 12097, Note_on_c, 0, 70, 56
2, 12101, Note_on_c, 0, 46, 0
2, 12101, Control_c, 0, 64, 127
2, 12104, Note_on_c, 0, 55, 61
2, 12108, Note_on_c, 0, 81, 78
2, 12112, Note_on_c, 0, 55, 0
2, 12118, Note_on_c, 0, 65, 62
2, 12121, Note_on_c, 0, 84, 61
2, 12123, Note_on_c, 0, 70, 0
2, 12124, Note_on_c, 0, 65, 0
2, 12129, Note_on_c, 0, 81, 0
2, 12136, Note_on_c, 0, 84, 0
2, 12152, Note_on_c, 0, 46, 59
2, 12153, Note_on_c, 0, 70, 61
2, 12162, Note_on_c, 0, 79, 77
2, 12164, Note_on_c, 0, 46, 0
2, 12166, Note_on_c, 0, 55, 59
2, 12176, Note_on_c, 0, 84, 62
2, 12177, Note_on_c, 0, 55, 0
2, 12178, Note_on_c, 0, 70, 0
2, 12178, Note_on_c, 0, 64, 62
2, 12185, Note_on_c, 0, 79, 0
2, 12188, Note_on_c, 0, 64, 0
2, 12189, Note_on_c, 0, 84, 0
2, 12199, Control_c, 0, 64, 0
2, 12205, Control_c, 0, 64, 127
2, 12210, Note_on_c, 0, 46, 63
2, 12217, Note_on_c, 0, 72, 37
2, 12222, Note_on_c, 0, 77, 55
2, 12222, Note_on_c, 0, 53, 63
2, 12225, Note_on_c, 0, 46, 0
2, 12228, Note_on_c, 0, 81, 67
2, 12230, Note_on_c, 0, 57, 64
2, 12240, Note_on_c, 0, 63, 66
2, 12242, Note_on_c, 0, 84, 74
2, 12244, Note_on_c, 0, 77, 0
2, 12246, Note_on_c, 0, 72, 0
2, 12247, Note_on_c, 0, 57, 0
2, 12251, Note_on_c, 0, 81, 0
2, 12251, Note_on_c, 0, 63, 0
2, 12254, Note_on_c, 0, 53, 0
2, 12257, Note_on_c, 0, 84, 0
2, 12266, Control_c, 0, 64, 0
2, 12275, Control_c, 0, 64, 127
2, 12278, Note_on_c, 0, 46, 63
2, 12281, Note_on_c, 0, 74, 40
2, 12288, Note_on_c, 0, 53, 66
2, 12292, Note_on_c, 0, 82, 78
2, 12293, Note_on_c, 0, 46, 0
2, 12294, Note_on_c, 0, 56, 66
2, 12297, Note_on_c, 0, 74, 0
2, 12302, Note_on_c, 0, 89, 67
2, 12302, Note_on_c, 0, 62, 68
2, 12309, Note_on_c, 0, 82, 0
2, 12312, Note_on_c, 0, 56, 0
2, 12314, Note_on_c, 0, 62, 0
2, 12316, Note_on_c, 0, 53, 0
2, 12316, Note_on_c, 0, 89, 0
2, 12336, Note_on_c, 0, 46, 69
2, 12341, Note_on_c, 0, 73, 42
2, 12346, Note_on_c, 0, 82, 74
2, 12346, Note_on_c, 0, 53, 69
2, 12348, Note_on_c, 0, 46, 0
2, 12350, Note_on_c, 0, 56, 73
2, 12351, Note_on_c, 0, 73, 0
2, 12357, Note_on_c, 0, 88, 80
2, 12358, Note_on_c, 0, 62, 73
2, 12361, Note_on_c, 0, 82, 0
2, 12368, Note_on_c, 0, 56, 0
2, 12371, Note_on_c, 0, 62, 0
2, 12372, Note_on_c, 0, 53, 0
2, 12376, Note_on_c, 0, 88, 0
2, 12393, Note_on_c, 0, 46, 69
2, 12399, Note_on_c, 0, 74, 50
2, 12406, Note_on_c, 0, 46, 0
2, 12406, Note_on_c, 0, 53, 71
2, 12408, Note_on_c, 0, 82, 78
2, 12408, Note_on_c, 0, 56, 71
2, 12410, Note_on_c, 0, 74, 0
2, 12414, Note_on_c, 0, 62, 72
2, 12420, Note_on_c, 0, 89, 88
2, 12421, Note_on_c, 0, 82, 0
2, 12424, Note_on_c, 0, 56, 0
2, 12425, Note_on_c, 0, 62, 0
2, 12427, Note_on_c, 0, 89, 0
2, 12428, Note_on_c, 0, 53, 0
2, 12450, Note_on_c, 0, 46, 71
2, 12459, Note_on_c, 0, 74, 45
2, 12463, Note_on_c, 0, 53, 71
2, 12464, Note_on_c, 0, 46, 0
2, 12465, Note_on_c, 0, 84, 84
2, 12467, Note_on_c, 0, 56, 73
2, 12468, Note_on_c, 0, 74, 0
2, 12473, Note_on_c, 0, 84, 0
2, 12473, Note_on_c, 0, 62, 73
2, 12481, Note_on_c, 0, 92, 87
2, 12483, Note_on_c, 0, 56, 0
2, 12485, Note_on_c, 0, 62, 0
2, 12486, Note_on_c, 0, 53, 0
2, 12488, Note_on_c, 0, 92, 0
2, 12511, Note_on_c, 0, 46, 69
2, 12521, Note_on_c, 0, 74, 57
2, 12523, Note_on_c, 0, 46, 0
2, 12523, Note_on_c, 0, 53, 72
2, 12527, Note_on_c, 0, 56, 72
2, 12532, Note_on_c, 0, 74, 0
2, 12532, Note_on_c, 0, 82, 73
2, 12533, Note_on_c, 0, 62, 72
2, 12539, Note_on_c, 0, 82, 0
2, 12543, Note_on_c, 0, 62, 0
2, 12543, Note_on_c, 0, 56, 0
2, 12543, Note_on_c, 0, 91, 85
2, 12545, Note_on_c, 0, 53, 0
2, 12550, Note_on_c, 0, 91, 0
2, 12581, Note_on_c, 0, 70, 50
2, 12582, Control_c, 0, 64, 0
2, 12587, Note_on_c, 0, 79, 72
2, 12590, Note_on_c, 0, 70, 0
2, 12591, Control_c, 0, 64, 127
2, 12595, Note_on_c, 0, 39, 93
2, 12601, Note_on_c, 0, 87, 90
2, 12602, Note_on_c, 0, 79, 0
2, 12603, Note_on_c, 0, 39, 0
2, 12612, Note_on_c, 0, 87, 0
2, 12635, Note_on_c, 0, 70, 50
2, 12639, Note_on_c, 0, 51, 71
2, 12645, Note_on_c, 0, 79, 57
2, 12647, Note_on_c, 0, 58, 72
2, 12652, Note_on_c, 0, 51, 0
2, 12656, Note_on_c, 0, 82, 89
2, 12660, Note_on_c, 0, 67, 74
2, 12665, Note_on_c, 0, 70, 0
2, 12667, Note_on_c, 0, 79, 0
2, 12669, Note_on_c, 0, 67, 0
2, 12670, Note_on_c, 0, 58, 0
2, 12674, Note_on_c, 0, 82, 0
2, 12694, Note_on_c, 0, 70, 56
2, 12700, Note_on_c, 0, 79, 57
2, 12700, Note_on_c, 0, 51, 68
2, 12707, Note_on_c, 0, 58, 68
2, 12713, Note_on_c, 0, 51, 0
2, 12713, Note_on_c, 0, 81, 89
2, 12720, Note_on_c, 0, 67, 72
2, 12724, Note_on_c, 0, 79, 0
2, 12725, Note_on_c, 0, 70, 0
2, 12729, Note_on_c, 0, 58, 0
2, 12731, Note_on_c, 0, 81, 0
2, 12731, Note_on_c, 0, 67, 0
2, 12755, Note_on_c, 0, 70, 51
2, 12755, Note_on_c, 0, 51, 68
2, 12763, Note_on_c, 0, 79, 57
2, 12765, Note_on_c, 0, 58, 69
2, 12770, Note_on_c, 0, 51, 0
2, 12775, Note_on_c, 0, 82, 88
2, 12778, Note_on_c, 0, 67, 72
2, 12782, Note_on_c, 0, 70, 0
2, 12783, Note_on_c, 0, 79, 0
2, 12788, Note_on_c, 0, 67, 0
2, 12791, Note_on_c, 0, 82, 0
2, 12793, Note_on_c, 0, 58, 0
2, 12804, Note_on_c, 0, 70, 47
2, 12814, Note_on_c, 0, 79, 53
2, 12814, Note_on_c, 0, 51, 63
2, 12820, Note_on_c, 0, 70, 0
2, 12824, Note_on_c, 0, 86, 77
2, 12824, Note_on_c, 0, 58, 66
2, 12827, Note_on_c, 0, 51, 0
2, 12836, Note_on_c, 0, 67, 67
2, 12840, Note_on_c, 0, 84, 90
2, 12842, Note_on_c, 0, 79, 0
2, 12843, Note_on_c, 0, 86, 0
2, 12845, Note_on_c, 0, 67, 0
2, 12849, Note_on_c, 0, 58, 0
2, 12854, Note_on_c, 0, 84, 0
2, 12874, Note_on_c, 0, 70, 50
2, 12877, Note_on_c, 0, 51, 64
2, 12885, Note_on_c, 0, 79, 58
2, 12885, Note_on_c, 0, 58, 66
2, 12889, Note_on_c, 0, 51, 0
2, 12897, Note_on_c, 0, 82, 89
2, 12897, Note_on_c, 0, 67, 67
2, 12903, Note_on_c, 0, 70, 0
2, 12905, Note_on_c, 0, 79, 0
2, 12906, Note_on_c, 0, 67, 0
2, 12908, Note_on_c, 0, 58, 0
2, 12914, Note_on_c, 0, 82, 0
2, 12933, Control_c, 0, 64, 0
2, 12933, Note_on_c, 0, 50, 69
2, 12936, Note_on_c, 0, 70, 57
2, 12943, Control_c, 0, 64, 127
2, 12944, Note_on_c, 0, 58, 69
2, 12945, Note_on_c, 0, 50, 0
2, 12946, Note_on_c, 0, 80, 61
2, 12947, Note_on_c, 0, 70, 0
2, 12954, Note_on_c, 0, 68, 69
2, 12958, Note_on_c, 0, 80, 0
2, 12961, Note_on_c, 0, 58, 0
2, 12962, Note_on_c, 0, 89, 90
2, 12964, Note_on_c, 0, 68, 0
2, 12974, Note_on_c, 0, 89, 0
2, 12997, Note_on_c, 0, 50, 68
2, 13004, Note_on_c, 0, 70, 47
2, 13008, Note_on_c, 0, 58, 71
2, 13012, Note_on_c, 0, 50, 0
2, 13013, Note_on_c, 0, 80, 59
2, 13021, Note_on_c, 0, 68, 82
2, 13023, Note_on_c, 0, 82, 88
2, 13030, Note_on_c, 0, 68, 0
2, 13030, Note_on_c, 0, 58, 0
2, 13030, Note_on_c, 0, 70, 0
2, 13037, Note_on_c, 0, 80, 0
2, 13044, Note_on_c, 0, 82, 0
2, 13056, Note_on_c, 0, 50, 66
2, 13059, Note_on_c, 0, 70, 52
2, 13066, Note_on_c, 0, 80, 56
2, 13069, Note_on_c, 0, 58, 67
2, 13070, Note_on_c, 0, 50, 0
2, 13078, Note_on_c, 0, 81, 90
2, 13079, Note_on_c, 0, 68, 68
2, 13087, Note_on_c, 0, 70, 0
2, 13088, Note_on_c, 0, 58, 0
2, 13089, Note_on_c, 0, 68, 0
2, 13092, Note_on_c, 0, 80, 0
2, 13097, Note_on_c, 0, 81, 0
2, 13113, Note_on_c, 0, 70, 52
2, 13117, Note_on_c, 0, 50, 71
2, 13122, Note_on_c, 0, 80, 58
2, 13127, Note_on_c, 0, 58, 72
2, 13130, Note_on_c, 0, 50, 0
2, 13133, Note_on_c, 0, 82, 91
2, 13136, Note_on_c, 0, 68, 72
2, 13139, Note_on_c, 0, 70, 0
2, 13145, Note_on_c, 0, 58, 0
2, 13146, Note_on_c, 0, 80, 0
2, 13147, Note_on_c, 0, 68, 0
2, 13149, Note_on_c, 0, 82, 0
2, 13163, Note_on_c, 0, 70, 58
2, 13173, Note_on_c, 0, 80, 56
2, 13173, Note_on_c, 0, 50, 71
2, 13178, Note_on_c, 0, 70, 0
2, 13185, Note_on_c, 0, 58, 74
2, 13186, Note_on_c, 0, 86, 74
2, 13187, Note_on_c, 0, 50, 0
2, 13195, Note_on_c, 0, 68, 75
2, 13200, Note_on_c, 0, 80, 0
2, 13202, Note_on_c, 0, 58, 0
2, 13202, Note_on_c, 0, 84, 89
2, 13204, Note_on_c, 0, 68, 0
2, 13206, Note_on_c, 0, 86, 0
2, 13214, Note_on_c, 0, 84, 0
2, 13231, Note_on_c, 0, 70, 56
2, 13234, Note_on_c, 0, 50, 71
2, 13243, Note_on_c, 0, 80, 64
2, 13246, Note_on_c, 0, 58, 74
2, 13248, Note_on_c, 0, 50, 0
2, 13253, Note_on_c, 0, 68, 74
2, 13255, Note_on_c, 0, 70, 0
2, 13255, Note_on_c, 0, 82, 90
2, 13259, Note_on_c, 0, 58, 0
2, 13263, Note_on_c, 0, 68, 0
2, 13264, Note_on_c, 0, 80, 0
2, 13269, Note_on_c, 0, 82, 0
2, 13281, Note_on_c, 0, 70, 68
2, 13288, Note_on_c, 0, 51, 74
2, 13294, Note_on_c, 0, 79, 59
2, 13297, Note_on_c, 0, 70, 0
2, 13301, Note_on_c, 0, 82, 63
2, 13301, Note_on_c, 0, 58, 78
2, 13304, Control_c, 0, 64, 0
2, 13305, Note_on_c, 0, 79, 0
2, 13305, Note_on_c, 0, 51, 0
2, 13311, Note_on_c, 0, 82, 0
2, 13312, Note_on_c, 0, 67, 79
2, 13313, Control_c, 0, 64, 127
2, 13319, Note_on_c, 0, 91, 99
2, 13322, Note_on_c, 0, 67, 0
2, 13323, Note_on_c, 0, 58, 0
2, 13326, Note_on_c, 0, 91, 0
2, 13350, Note_on_c, 0, 53, 62
2, 13357, Note_on_c, 0, 70, 46
2, 13362, Control_c, 0, 64, 0
2, 13363, Note_on_c, 0, 58, 69
2, 13367, Note_on_c, 0, 53, 0
2, 13368, Note_on_c, 0, 70, 0
2, 13368, Note_on_c, 0, 74, 40
2, 13368, Control_c, 0, 64, 127
2, 13368, Note_on_c, 0, 62, 69
2, 13375, Note_on_c, 0, 82, 62
2, 13376, Note_on_c, 0, 68, 79
2, 13383, Note_on_c, 0, 74, 0
2, 13383, Note_on_c, 0, 86, 91
2, 13385, Note_on_c, 0, 62, 0
2, 13388, Note_on_c, 0, 82, 0
2, 13395, Note_on_c, 0, 58, 0
2, 13397, Note_on_c, 0, 86, 0
2, 13399, Note_on_c, 0, 68, 0
2, 13413, Note_on_c, 0, 70, 68
2, 13417, Note_on_c, 0, 55, 64
2, 13418, Control_c, 0, 64, 0
2, 13421, Note_on_c, 0, 58, 64
2, 13424, Note_on_c, 0, 70, 0
2, 13426, Note_on_c, 0, 75, 32
2, 13428, Control_c, 0, 64, 127
2, 13428, Note_on_c, 0, 63, 69
2, 13433, Note_on_c, 0, 82, 68
2, 13436, Note_on_c, 0, 67, 74
2, 13441, Note_on_c, 0, 87, 94
2, 13446, Note_on_c, 0, 82, 0
2, 13446, Note_on_c, 0, 75, 0
2, 13447, Note_on_c, 0, 55, 0
2, 13448, Note_on_c, 0, 63, 0
2, 13448, Note_on_c, 0, 58, 0
2, 13450, Note_on_c, 0, 67, 0
2, 13455, Note_on_c, 0, 87, 0
2, 13474, Note_on_c, 0, 71, 69
2, 13475, Note_on_c, 0, 43, 69
2, 13485, Note_on_c, 0, 51, 72
2, 13486, Note_on_c, 0, 43, 0
2, 13486, Note_on_c, 0, 71, 0
2, 13487, Note_on_c, 0, 75, 53
2, 13496, Note_on_c, 0, 59, 74
2, 13501, Note_on_c, 0, 86, 89
2, 13502, Note_on_c, 0, 75, 0
2, 13507, Note_on_c, 0, 59, 0
2, 13508, Note_on_c, 0, 51, 0
2, 13512, Note_on_c, 0, 86, 0
2, 13534, Note_on_c, 0, 44, 67
2, 13540, Note_on_c, 0, 72, 37
2, 13540, Control_c, 0, 64, 0
2, 13542, Note_on_c, 0, 51, 69
2, 13544, Note_on_c, 0, 44, 0
2, 13549, Note_on_c, 0, 75, 74
2, 13552, Control_c, 0, 64, 127
2, 13552, Note_on_c, 0, 60, 71
2, 13557, Note_on_c, 0, 51, 0
2, 13558, Note_on_c, 0, 72, 0
2, 13560, Note_on_c, 0, 60, 0
2, 13560, Note_on_c, 0, 84, 90
2, 13563, Note_on_c, 0, 75, 0
2, 13570, Note_on_c, 0, 84, 0
2, 13592, Note_on_c, 0, 45, 67
2, 13597, Note_on_c, 0, 72, 48
2, 13597, Control_c, 0, 64, 0
2, 13602, Note_on_c, 0, 53, 69
2, 13603, Note_on_c, 0, 45, 0
2, 13603, Note_on_c, 0, 77, 68
2, 13607, Note_on_c, 0, 72, 0
2, 13612, Control_c, 0, 64, 127
2, 13613, Note_on_c, 0, 77, 0
2, 13616, Note_on_c, 0, 63, 73
2, 13619, Note_on_c, 0, 53, 0
2, 13620, Note_on_c, 0, 89, 91
2, 13626, Note_on_c, 0, 63, 0
2, 13629, Note_on_c, 0, 89, 0
2, 13653, Note_on_c, 0, 46, 66
2, 13656, Note_on_c, 0, 70, 50
2, 13657, Control_c, 0, 64, 0
2, 13666, Note_on_c, 0, 79, 57
2, 13667, Note_on_c, 0, 70, 0
2, 13669, Note_on_c, 0, 46, 0
2, 13669, Note_on_c, 0, 55, 69
2, 13670, Control_c, 0, 64, 127
2, 13678, Note_on_c, 0, 79, 0
2, 13681, Note_on_c, 0, 87, 89
2, 13681, Note_on_c, 0, 63, 69
2, 13686, Note_on_c, 0, 55, 0
2, 13691, Note_on_c, 0, 87, 0
2, 13693, Note_on_c, 0, 63, 0
2, 13719, Note_on_c, 0, 70, 56
2, 13719, Note_on_c, 0, 46, 72
2, 13725, Note_on_c, 0, 78, 71
2, 13727, Control_c, 0, 64, 0
2, 13728, Note_on_c, 0, 70, 0
2, 13731, Note_on_c, 0, 54, 72
2, 13733, Note_on_c, 0, 81, 68
2, 13734, Note_on_c, 0, 46, 0
2, 13735, Note_on_c, 0, 78, 0
2, 13737, Control_c, 0, 64, 127
2, 13741, Note_on_c, 0, 57, 72
2, 13743, Note_on_c, 0, 87, 88
2, 13744, Note_on_c, 0, 81, 0
2, 13750, Note_on_c, 0, 63, 72
2, 13754, Note_on_c, 0, 87, 0
2, 13755, Note_on_c, 0, 57, 0
2, 13758, Note_on_c, 0, 54, 0
2, 13760, Note_on_c, 0, 63, 0
2, 13779, Note_on_c, 0, 70, 58
2, 13779, Note_on_c, 0, 46, 61
2, 13786, Note_on_c, 0, 77, 66
2, 13789, Note_on_c, 0, 53, 61
2, 13791, Control_c, 0, 64, 0
2, 13792, Note_on_c, 0, 46, 0
2, 13792, Note_on_c, 0, 70, 0
2, 13792, Note_on_c, 0, 82, 69
2, 13796, Note_on_c, 0, 77, 0
2, 13798, Control_c, 0, 64, 127
2, 13798, Note_on_c, 0, 58, 61
2, 13799, Note_on_c, 0, 86, 80
2, 13806, Note_on_c, 0, 82, 0
2, 13806, Note_on_c, 0, 53, 0
2, 13807, Note_on_c, 0, 62, 63
2, 13808, Note_on_c, 0, 86, 0
2, 13812, Note_on_c, 0, 58, 0
2, 13820, Note_on_c, 0, 62, 0
2, 13840, Note_on_c, 0, 70, 59
2, 13840, Note_on_c, 0, 48, 56
2, 13847, Control_c, 0, 64, 0
2, 13851, Note_on_c, 0, 76, 66
2, 13851, Note_on_c, 0, 55, 57
2, 13853, Note_on_c, 0, 48, 0
2, 13855, Note_on_c, 0, 79, 66
2, 13855, Note_on_c, 0, 58, 57
2, 13857, Control_c, 0, 64, 127
2, 13861, Note_on_c, 0, 70, 0
2, 13862, Note_on_c, 0, 85, 72
2, 13863, Note_on_c, 0, 64, 58
2, 13866, Note_on_c, 0, 76, 0
2, 13869, Note_on_c, 0, 79, 0
2, 13874, Note_on_c, 0, 58, 0
2, 13874, Note_on_c, 0, 64, 0
2, 13875, Note_on_c, 0, 85, 0
2, 13876, Note_on_c, 0, 55, 0
2, 13896, Note_on_c, 0, 48, 69
2, 13902, Note_on_c, 0, 68, 59
2, 13905, Control_c, 0, 64, 0
2, 13907, Note_on_c, 0, 48, 0
2, 13907, Note_on_c, 0, 56, 71
2, 13909, Note_on_c, 0, 77, 63
2, 13914, Control_c, 0, 64, 127
2, 13916, Note_on_c, 0, 68, 0
2, 13916, Note_on_c, 0, 80, 71
2, 13918, Note_on_c, 0, 65, 72
2, 13920, Note_on_c, 0, 56, 0
2, 13923, Note_on_c, 0, 84, 83
2, 13925, Note_on_c, 0, 77, 0
2, 13925, Note_on_c, 0, 65, 0
2, 13929, Note_on_c, 0, 80, 0
2, 13935, Note_on_c, 0, 84, 0
2, 13952, Note_on_c, 0, 48, 69
2, 13959, Note_on_c, 0, 55, 75
2, 13960, Note_on_c, 0, 48, 0
2, 13961, Note_on_c, 0, 72, 51
2, 13961, Control_c, 0, 64, 0
2, 13968, Note_on_c, 0, 60, 75
2, 13969, Control_c, 0, 64, 127
2, 13970, Note_on_c, 0, 79, 64
2, 13971, Note_on_c, 0, 55, 0
2, 13976, Note_on_c, 0, 82, 68
2, 13978, Note_on_c, 0, 72, 0
2, 13981, Note_on_c, 0, 67, 80
2, 13982, Note_on_c, 0, 60, 0
2, 13984, Note_on_c, 0, 79, 0
2, 13988, Note_on_c, 0, 67, 0
2, 13988, Note_on_c, 0, 88, 89
2, 13995, Note_on_c, 0, 82, 0
2, 13998, Note_on_c, 0, 88, 0
2, 14015, Control_c, 0, 64, 0
2, 14024, Note_on_c, 0, 72, 66
2, 14029, Control_c, 0, 64, 127
2, 14030, Note_on_c, 0, 80, 69
2, 14035, Note_on_c, 0, 72, 0
2, 14038, Note_on_c, 0, 41, 89
2, 14043, Note_on_c, 0, 89, 93
2, 14044, Note_on_c, 0, 80, 0
2, 14055, Note_on_c, 0, 89, 0
2, 14059, Note_on_c, 0, 41, 0
2, 14085, Note_on_c, 0, 72, 42
2, 14085, Note_on_c, 0, 53, 63
2, 14095, Note_on_c, 0, 80, 62
2, 14096, Note_on_c, 0, 60, 61
2, 14098, Note_on_c, 0, 53, 0
2, 14107, Note_on_c, 0, 84, 88
2, 14107, Note_on_c, 0, 68, 68
2, 14116, Note_on_c, 0, 72, 0
2, 14116, Note_on_c, 0, 60, 0
2, 14119, Note_on_c, 0, 68, 0
2, 14119, Note_on_c, 0, 80, 0
2, 14121, Note_on_c, 0, 84, 0
2, 14145, Note_on_c, 0, 53, 75
2, 14146, Note_on_c, 0, 71, 48
2, 14152, Note_on_c, 0, 80, 62
2, 14157, Note_on_c, 0, 60, 79
2, 14158, Note_on_c, 0, 53, 0
2, 14163, Note_on_c, 0, 83, 90
2, 14165, Note_on_c, 0, 68, 82
2, 14170, Note_on_c, 0, 71, 0
2, 14174, Note_on_c, 0, 80, 0
2, 14176, Note_on_c, 0, 60, 0
2, 14177, Note_on_c, 0, 68, 0
2, 14179, Note_on_c, 0, 83, 0
2, 14200, Note_on_c, 0, 53, 55
2, 14202, Note_on_c, 0, 72, 48
2, 14210, Note_on_c, 0, 80, 64
2, 14213, Note_on_c, 0, 60, 71
2, 14216, Note_on_c, 0, 53, 0
2, 14221, Note_on_c, 0, 84, 91
2, 14221, Note_on_c, 0, 68, 62
2, 14225, Note_on_c, 0, 72, 0
2, 14230, Note_on_c, 0, 80, 0
2, 14232, Note_on_c, 0, 60, 0
2, 14233, Note_on_c, 0, 68, 0
2, 14234, Note_on_c, 0, 84, 0
2, 14253, Note_on_c, 0, 73, 51
2, 14258, Note_on_c, 0, 53, 68
2, 14260, Note_on_c, 0, 80, 66
2, 14269, Note_on_c, 0, 87, 82
2, 14271, Note_on_c, 0, 60, 71
2, 14272, Note_on_c, 0, 73, 0
2, 14273, Note_on_c, 0, 53, 0
2, 14278, Note_on_c, 0, 80, 0
2, 14279, Note_on_c, 0, 68, 72
2, 14283, Note_on_c, 0, 85, 91
2, 14287, Note_on_c, 0, 87, 0
2, 14289, Note_on_c, 0, 60, 0
2, 14290, Note_on_c, 0, 85, 0
2, 14292, Note_on_c, 0, 68, 0
2, 14316, Note_on_c, 0, 53, 56
2, 14327, Note_on_c, 0, 72, 51
2, 14329, Note_on_c, 0, 60, 67
2, 14333, Note_on_c, 0, 53, 0
2, 14333, Note_on_c, 0, 80, 69
2, 14339, Note_on_c, 0, 68, 69
2, 14344, Note_on_c, 0, 84, 90
2, 14348, Note_on_c, 0, 72, 0
2, 14349, Note_on_c, 0, 60, 0
2, 14351, Note_on_c, 0, 68, 0
2, 14351, Note_on_c, 0, 80, 0
2, 14356, Note_on_c, 0, 84, 0
2, 14375, Note_on_c, 0, 72, 40
2, 14380, Note_on_c, 0, 52, 55
2, 14382, Note_on_c, 0, 79, 63
2, 14383, Control_c, 0, 64, 0
2, 14387, Note_on_c, 0, 58, 72
2, 14388, Note_on_c, 0, 82, 66
2, 14389, Note_on_c, 0, 72, 0
2, 14392, Note_on_c, 0, 52, 0
2, 14392, Control_c, 0, 64, 127
2, 14392, Note_on_c, 0, 60, 53
2, 14393, Note_on_c, 0, 79, 0
2, 14398, Note_on_c, 0, 82, 0
2, 14400, Note_on_c, 0, 67, 73
2, 14403, Note_on_c, 0, 91, 93
2, 14408, Note_on_c, 0, 60, 0
2, 14409, Note_on_c, 0, 58, 0
2, 14411, Note_on_c, 0, 67, 0
2, 14415, Note_on_c, 0, 91, 0
2, 14437, Note_on_c, 0, 52, 66
2, 14441, Note_on_c, 0, 72, 52
2, 14447, Note_on_c, 0, 79, 55
2, 14447, Note_on_c, 0, 58, 71
2, 14450, Note_on_c, 0, 60, 61
2, 14451, Note_on_c, 0, 52, 0
2, 14452, Note_on_c, 0, 82, 58
2, 14459, Note_on_c, 0, 67, 66
2, 14461, Note_on_c, 0, 84, 89
2, 14468, Note_on_c, 0, 58, 0
2, 14469, Note_on_c, 0, 60, 0
2, 14471, Note_on_c, 0, 79, 0
2, 14471, Note_on_c, 0, 67, 0
2, 14473, Note_on_c, 0, 82, 0
2, 14475, Note_on_c, 0, 72, 0
2, 14481, Note_on_c, 0, 84, 0
2, 14495, Note_on_c, 0, 52, 46
2, 14498, Note_on_c, 0, 71, 46
2, 14503, Note_on_c, 0, 79, 51
2, 14504, Note_on_c, 0, 58, 69
2, 14508, Note_on_c, 0, 52, 0
2, 14508, Note_on_c, 0, 60, 53
2, 14509, Note_on_c, 0, 82, 58
2, 14517, Note_on_c, 0, 83, 87
2, 14518, Note_on_c, 0, 67, 79
2, 14523, Note_on_c, 0, 58, 0
2, 14525, Note_on_c, 0, 71, 0
2, 14527, Note_on_c, 0, 79, 0
2, 14528, Note_on_c, 0, 82, 0
2, 14528, Note_on_c, 0, 60, 0
2, 14530, Note_on_c, 0, 67, 0
2, 14536, Note_on_c, 0, 83, 0
2, 14555, Note_on_c, 0, 72, 46
2, 14555, Note_on_c, 0, 52, 69
2, 14562, Note_on_c, 0, 79, 59
2, 14563, Note_on_c, 0, 58, 63
2, 14566, Note_on_c, 0, 52, 0
2, 14566, Note_on_c, 0, 60, 64
2, 14567, Note_on_c, 0, 82, 61
2, 14575, Note_on_c, 0, 67, 83
2, 14577, Note_on_c, 0, 84, 88
2, 14583, Note_on_c, 0, 72, 0
2, 14586, Note_on_c, 0, 79, 0
2, 14587, Note_on_c, 0, 60, 0
2, 14587, Note_on_c, 0, 58, 0
2, 14587, Note_on_c, 0, 67, 0
2, 14588, Note_on_c, 0, 82, 0
2, 14594, Note_on_c, 0, 84, 0
2, 14609, Note_on_c, 0, 73, 46
2, 14611, Note_on_c, 0, 52, 63
2, 14619, Note_on_c, 0, 79, 55
2, 14620, Note_on_c, 0, 82, 56
2, 14620, Note_on_c, 0, 58, 71
2, 14621, Note_on_c, 0, 79, 0
2, 14622, Note_on_c, 0, 52, 0
2, 14622, Note_on_c, 0, 60, 74
2, 14628, Note_on_c, 0, 73, 0
2, 14628, Note_on_c, 0, 87, 82
2, 14631, Note_on_c, 0, 67, 72
2, 14640, Note_on_c, 0, 85, 91
2, 14642, Note_on_c, 0, 60, 0
2, 14643, Note_on_c, 0, 67, 0
2, 14644, Note_on_c, 0, 82, 0
2, 14644, Note_on_c, 0, 58, 0
2, 14646, Note_on_c, 0, 87, 0
2, 14656, Note_on_c, 0, 85, 0
2, 14668, Note_on_c, 0, 52, 59
2, 14678, Note_on_c, 0, 58, 62
2, 14679, Note_on_c, 0, 60, 75
2, 14680, Note_on_c, 0, 52, 0
2, 14681, Note_on_c, 0, 72, 51
2, 14687, Note_on_c, 0, 79, 53
2, 14689, Note_on_c, 0, 67, 58
2, 14693, Note_on_c, 0, 82, 56
2, 14697, Note_on_c, 0, 60, 0
2, 14697, Note_on_c, 0, 58, 0
2, 14702, Note_on_c, 0, 67, 0
2, 14703, Note_on_c, 0, 84, 90
2, 14709, Note_on_c, 0, 79, 0
2, 14709, Note_on_c, 0, 72, 0
2, 14715, Note_on_c, 0, 82, 0
2, 14717, Note_on_c, 0, 84, 0
2, 14734, Note_on_c, 0, 53, 62
2, 14737, Note_on_c, 0, 72, 59
2, 14741, Note_on_c, 0, 80, 63
2, 14743, Control_c, 0, 64, 0
2, 14743, Note_on_c, 0, 56, 71
2, 14749, Note_on_c, 0, 72, 0
2, 14749, Note_on_c, 0, 84, 72
2, 14749, Note_on_c, 0, 60, 66
2, 14750, Note_on_c, 0, 53, 0
2, 14754, Note_on_c, 0, 80, 0
2, 14755, Control_c, 0, 64, 127
2, 14756, Note_on_c, 0, 84, 0
2, 14756, Note_on_c, 0, 68, 82
2, 14762, Note_on_c, 0, 92, 96
2, 14763, Note_on_c, 0, 60, 0
2, 14764, Note_on_c, 0, 56, 0
2, 14768, Note_on_c, 0, 68, 0
2, 14773, Note_on_c, 0, 92, 0
2, 14799, Note_on_c, 0, 75, 45
2, 14799, Note_on_c, 0, 55, 50
2, 14805, Control_c, 0, 64, 0
2, 14806, Note_on_c, 0, 82, 55
2, 14807, Note_on_c, 0, 58, 72
2, 14812, Note_on_c, 0, 55, 0
2, 14813, Note_on_c, 0, 87, 58
2, 14813, Control_c, 0, 64, 127
2, 14814, Note_on_c, 0, 75, 0
2, 14814, Note_on_c, 0, 63, 69
2, 14820, Note_on_c, 0, 82, 0
2, 14823, Note_on_c, 0, 91, 85
2, 14823, Note_on_c, 0, 70, 64
2, 14826, Note_on_c, 0, 58, 0
2, 14828, Note_on_c, 0, 63, 0
2, 14829, Note_on_c, 0, 87, 0
2, 14835, Note_on_c, 0, 70, 0
2, 14838, Note_on_c, 0, 91, 0
2, 14859, Note_on_c, 0, 56, 64
2, 14862, Control_c, 0, 64, 0
2, 14864, Note_on_c, 0, 77, 43
2, 14869, Note_on_c, 0, 63, 67
2, 14871, Control_c, 0, 64, 127
2, 14872, Note_on_c, 0, 56, 0
2, 14872, Note_on_c, 0, 84, 47
2, 14877, Note_on_c, 0, 87, 51
2, 14879, Note_on_c, 0, 72, 55
2, 14883, Note_on_c, 0, 89, 80
2, 14887, Note_on_c, 0, 63, 0
2, 14887, Note_on_c, 0, 77, 0
2, 14889, Note_on_c, 0, 84, 0
2, 14890, Note_on_c, 0, 72, 0
2, 14895, Note_on_c, 0, 87, 0
2, 14904, Note_on_c, 0, 89, 0
2, 14917, Note_on_c, 0, 56, 56
2, 14923, Note_on_c, 0, 77, 47
2, 14928, Note_on_c, 0, 83, 50
2, 14928, Note_on_c, 0, 63, 58
2, 14931, Note_on_c, 0, 56, 0
2, 14935, Note_on_c, 0, 87, 53
2, 14936, Note_on_c, 0, 71, 63
2, 14941, Note_on_c, 0, 89, 72
2, 14944, Note_on_c, 0, 63, 0
2, 14947, Note_on_c, 0, 83, 0
2, 14948, Note_on_c, 0, 71, 0
2, 14951, Note_on_c, 0, 77, 0
2, 14955, Note_on_c, 0, 87, 0
2, 14956, Note_on_c, 0, 89, 0
2, 14976, Control_c, 0, 64, 0
2, 14978, Note_on_c, 0, 58, 57
2, 14980, Note_on_c, 0, 74, 45
2, 14986, Control_c, 0, 64, 127
2, 14988, Note_on_c, 0, 82, 53
2, 14991, Note_on_c, 0, 74, 0
2, 14991, Note_on_c, 0, 65, 61
2, 14997, Note_on_c, 0, 70, 61
2, 15000, Note_on_c, 0, 89, 69
2, 15002, Note_on_c, 0, 82, 0
2, 15003, Note_on_c, 0, 58, 0
2, 15006, Note_on_c, 0, 65, 0
2, 15010, Note_on_c, 0, 89, 0
2, 15013, Note_on_c, 0, 70, 0
2, 15032, Note_on_c, 0, 58, 59
2, 15042, Note_on_c, 0, 77, 41
2, 15043, Note_on_c, 0, 65, 59
2, 15048, Note_on_c, 0, 58, 0
2, 15048, Note_on_c, 0, 68, 62
2, 15050, Note_on_c, 0, 86, 48
2, 15057, Note_on_c, 0, 65, 0
2, 15058, Note_on_c, 0, 91, 62
2, 15058, Note_on_c, 0, 74, 64
2, 15063, Note_on_c, 0, 77, 0
2, 15063, Note_on_c, 0, 68, 0
2, 15067, Note_on_c, 0, 86, 0
2, 15068, Note_on_c, 0, 74, 0
2, 15071, Note_on_c, 0, 91, 0
2, 15089, Note_on_c, 0, 58, 45
2, 15092, Control_c, 0, 64, 0
2, 15096, Note_on_c, 0, 76, 43
2, 15101, Note_on_c, 0, 64, 50
2, 15104, Note_on_c, 0, 86, 51
2, 15105, Note_on_c, 0, 58, 0
2, 15106, Control_c, 0, 64, 127
2, 15109, Note_on_c, 0, 76, 0
2, 15112, Note_on_c, 0, 67, 53
2, 15115, Note_on_c, 0, 74, 53
2, 15116, Note_on_c, 0, 91, 57
2, 15123, Note_on_c, 0, 67, 0
2, 15124, Note_on_c, 0, 86, 0
2, 15125, Note_on_c, 0, 64, 0
2, 15129, Note_on_c, 0, 91, 0
2, 15130, Note_on_c, 0, 74, 0
2, 15150, Note_on_c, 0, 58, 47
2, 15152, Control_c, 0, 64, 0
2, 15160, Note_on_c, 0, 76, 35
2, 15163, Control_c, 0, 64, 127
2, 15164, Note_on_c, 0, 85, 39
2, 15164, Note_on_c, 0, 64, 50
2, 15165, Note_on_c, 0, 58, 0
2, 15167, Note_on_c, 0, 76, 0
2, 15171, Note_on_c, 0, 67, 53
2, 15175, Note_on_c, 0, 73, 53
2, 15176, Note_on_c, 0, 91, 56
2, 15180, Note_on_c, 0, 85, 0
2, 15182, Note_on_c, 0, 67, 0
2, 15183, Note_on_c, 0, 64, 0
2, 15189, Note_on_c, 0, 73, 0
2, 15190, Note_on_c, 0, 91, 0
2, 15209, Note_on_c, 0, 57, 42
2, 15211, Control_c, 0, 64, 0
2, 15221, Note_on_c, 0, 76, 35
2, 15222, Control_c, 0, 64, 127
2, 15223, Note_on_c, 0, 57, 0
2, 15223, Note_on_c, 0, 64, 51
2, 15224, Note_on_c, 0, 85, 39
2, 15224, Note_on_c, 0, 67, 51
2, 15230, Note_on_c, 0, 76, 0
2, 15234, Note_on_c, 0, 73, 51
2, 15235, Note_on_c, 0, 91, 56
2, 15238, Note_on_c, 0, 64, 0
2, 15239, Note_on_c, 0, 67, 0
2, 15239, Note_on_c, 0, 85, 0
2, 15243, Note_on_c, 0, 73, 0
2, 15249, Note_on_c, 0, 91, 0
2, 15271, Note_on_c, 0, 57, 46
2, 15281, Note_on_c, 0, 57, 0
2, 15281, Note_on_c, 0, 63, 46
2, 15282, Note_on_c, 0, 75, 35
2, 15285, Control_c, 0, 64, 0
2, 15289, Note_on_c, 0, 85, 39
2, 15289, Note_on_c, 0, 66, 50
2, 15293, Note_on_c, 0, 73, 50
2, 15294, Control_c, 0, 64, 127
2, 15298, Note_on_c, 0, 66, 0
2, 15299, Note_on_c, 0, 90, 59
2, 15300, Note_on_c, 0, 63, 0
2, 15304, Note_on_c, 0, 73, 0
2, 15304, Note_on_c, 0, 75, 0
2, 15308, Note_on_c, 0, 85, 0
2, 15317, Note_on_c, 0, 90, 0
2, 15333, Note_on_c, 0, 57, 42
2, 15341, Note_on_c, 0, 75, 39
2, 15345, Note_on_c, 0, 57, 0
2, 15345, Note_on_c, 0, 63, 46
2, 15347, Note_on_c, 0, 85, 43
2, 15351, Note_on_c, 0, 66, 51
2, 15354, Note_on_c, 0, 73, 51
2, 15358, Note_on_c, 0, 66, 0
2, 15360, Note_on_c, 0, 90, 58
2, 15361, Note_on_c, 0, 63, 0
2, 15365, Note_on_c, 0, 73, 0
2, 15367, Note_on_c, 0, 75, 0
2, 15369, Note_on_c, 0, 85, 0
2, 15378, Note_on_c, 0, 90, 0
2, 15398, Note_on_c, 0, 56, 47
2, 15404, Note_on_c, 0, 75, 30
2, 15407, Control_c, 0, 64, 0
2, 15409, Note_on_c, 0, 56, 0
2, 15409, Note_on_c, 0, 63, 50
2, 15414, Note_on_c, 0, 66, 53
2, 15415, Note_on_c, 0, 84, 39
2, 15415, Control_c, 0, 64, 127
2, 15418, Note_on_c, 0, 72, 53
2, 15420, Note_on_c, 0, 75, 0
2, 15423, Note_on_c, 0, 90, 61
2, 15425, Note_on_c, 0, 63, 0
2, 15425, Note_on_c, 0, 66, 0
2, 15430, Note_on_c, 0, 84, 0
2, 15430, Note_on_c, 0, 72, 0
2, 15441, Note_on_c, 0, 90, 0
2, 15457, Note_on_c, 0, 56, 47
2, 15463, Note_on_c, 0, 75, 35
2, 15468, Note_on_c, 0, 63, 52
2, 15470, Note_on_c, 0, 56, 0
2, 15472, Note_on_c, 0, 84, 43
2, 15473, Note_on_c, 0, 66, 53
2, 15479, Note_on_c, 0, 72, 53
2, 15480, Note_on_c, 0, 90, 64
2, 15481, Note_on_c, 0, 75, 0
2, 15484, Note_on_c, 0, 63, 0
2, 15486, Note_on_c, 0, 66, 0
2, 15486, Note_on_c, 0, 84, 0
2, 15490, Note_on_c, 0, 72, 0
2, 15493, Note_on_c, 0, 90, 0
2, 15516, Note_on_c, 0, 56, 48
2, 15522, Control_c, 0, 64, 0
2, 15524, Note_on_c, 0, 74, 35
2, 15525, Control_c, 0, 64, 127
2, 15529, Note_on_c, 0, 62, 52
2, 15532, Note_on_c, 0, 56, 0
2, 15532, Note_on_c, 0, 84, 41
2, 15532, Note_on_c, 0, 65, 55
2, 15541, Note_on_c, 0, 89, 62
2, 15541, Note_on_c, 0, 72, 57
2, 15542, Note_on_c, 0, 62, 0
2, 15543, Note_on_c, 0, 74, 0
2, 15548, Note_on_c, 0, 65, 0
2, 15550, Note_on_c, 0, 84, 0
2, 15551, Note_on_c, 0, 72, 0
2, 15558, Note_on_c, 0, 89, 0
2, 15577, Note_on_c, 0, 56, 45
2, 15582, Note_on_c, 0, 74, 34
2, 15588, Note_on_c, 0, 62, 47
2, 15590, Note_on_c, 0, 56, 0
2, 15593, Note_on_c, 0, 84, 40
2, 15597, Note_on_c, 0, 65, 50
2, 15598, Note_on_c, 0, 62, 0
2, 15600, Note_on_c, 0, 72, 52
2, 15601, Note_on_c, 0, 89, 63
2, 15602, Note_on_c, 0, 74, 0
2, 15610, Note_on_c, 0, 65, 0
2, 15611, Note_on_c, 0, 72, 0
2, 15611, Note_on_c, 0, 84, 0
2, 15614, Note_on_c, 0, 89, 0
2, 15640, Note_on_c, 0, 55, 46
2, 15643, Note_on_c, 0, 74, 36
2, 15645, Control_c, 0, 64, 0
2, 15651, Note_on_c, 0, 62, 48
2, 15652, Note_on_c, 0, 55, 0
2, 15652, Control_c, 0, 64, 127
2, 15653, Note_on_c, 0, 83, 42
2, 15654, Note_on_c, 0, 65, 52
2, 15657, Note_on_c, 0, 74, 0
2, 15661, Note_on_c, 0, 89, 61
2, 15661, Note_on_c, 0, 71, 52
2, 15669, Note_on_c, 0, 65, 0
2, 15670, Note_on_c, 0, 62, 0
2, 15670, Note_on_c, 0, 83, 0
2, 15671, Note_on_c, 0, 71, 0
2, 15678, Note_on_c, 0, 89, 0
2, 15698, Note_on_c, 0, 55, 42
2, 15706, Note_on_c, 0, 74, 39
2, 15708, Note_on_c, 0, 62, 48
2, 15710, Note_on_c, 0, 55, 0
2, 15717, Note_on_c, 0, 83, 46
2, 15717, Note_on_c, 0, 65, 48
2, 15719, Note_on_c, 0, 74, 0
2, 15719, Note_on_c, 0, 71, 52
2, 15723, Note_on_c, 0, 89, 58
2, 15725, Note_on_c, 0, 62, 0
2, 15727, Note_on_c, 0, 65, 0
2, 15731, Note_on_c, 0, 71, 0
2, 15731, Note_on_c, 0, 83, 0
2, 15736, Note_on_c, 0, 89, 0
2, 15763, Note_on_c, 0, 55, 52
2, 15765, Control_c, 0, 64, 0
2, 15768, Note_on_c, 0, 73, 42
2, 15770, Control_c, 0, 64, 127
2, 15772, Note_on_c, 0, 61, 56
2, 15776, Note_on_c, 0, 55, 0
2, 15776, Note_on_c, 0, 64, 56
2, 15777, Note_on_c, 0, 83, 45
2, 15785, Note_on_c, 0, 71, 56
2, 15787, Note_on_c, 0, 88, 66
2, 15789, Note_on_c, 0, 73, 0
2, 15794, Note_on_c, 0, 64, 0
2, 15796, Note_on_c, 0, 61, 0
2, 15796, Note_on_c, 0, 71, 0
2, 15797, Note_on_c, 0, 83, 0
2, 15803, Note_on_c, 0, 88, 0
2, 15821, Note_on_c, 0, 55, 48
2, 15826, Note_on_c, 0, 73, 42
2, 15829, Note_on_c, 0, 61, 51
2, 15832, Note_on_c, 0, 55, 0
2, 15834, Note_on_c, 0, 64, 53
2, 15837, Note_on_c, 0, 83, 46
2, 15841, Note_on_c, 0, 71, 55
2, 15845, Note_on_c, 0, 88, 68
2, 15847, Note_on_c, 0, 64, 0
2, 15847, Note_on_c, 0, 61, 0
2, 15851, Note_on_c, 0, 71, 0
2, 15852, Note_on_c, 0, 73, 0
2, 15853, Note_on_c, 0, 83, 0
2, 15860, Note_on_c, 0, 88, 0
2, 15883, Note_on_c, 0, 54, 56
2, 15885, Control_c, 0, 64, 0
2, 15888, Note_on_c, 0, 73, 41
2, 15890, Control_c, 0, 64, 127
2, 15891, Note_on_c, 0, 61, 56
2, 15894, Note_on_c, 0, 54, 0
2, 15895, Note_on_c, 0, 64, 61
2, 15896, Note_on_c, 0, 82, 45
2, 15905, Note_on_c, 0, 70, 66
2, 15906, Note_on_c, 0, 88, 67
2, 15907, Note_on_c, 0, 73, 0
2, 15913, Note_on_c, 0, 82, 0
2, 15913, Note_on_c, 0, 64, 0
2, 15914, Note_on_c, 0, 61, 0
2, 15915, Note_on_c, 0, 70, 0
2, 15924, Note_on_c, 0, 88, 0
2, 15942, Note_on_c, 0, 54, 57
2, 15947, Note_on_c, 0, 73, 36
2, 15950, Note_on_c, 0, 61, 59
2, 15953, Note_on_c, 0, 54, 0
2, 15954, Note_on_c, 0, 82, 43
2, 15955, Note_on_c, 0, 64, 59
2, 15962, Note_on_c, 0, 70, 63
2, 15964, Note_on_c, 0, 88, 69
2, 15966, Note_on_c, 0, 73, 0
2, 15970, Note_on_c, 0, 64, 0
2, 15971, Note_on_c, 0, 82, 0
2, 15972, Note_on_c, 0, 61, 0
2, 15973, Note_on_c, 0, 70, 0
2, 15976, Note_on_c, 0, 88, 0
2, 16000, Note_on_c, 0, 54, 52
2, 16002, Control_c, 0, 64, 0
2, 16006, Note_on_c, 0, 72, 39
2, 16007, Control_c, 0, 64, 127
2, 16010, Note_on_c, 0, 60, 57
2, 16013, Note_on_c, 0, 82, 42
2, 16014, Note_on_c, 0, 54, 0
2, 16016, Note_on_c, 0, 63, 57
2, 16017, Note_on_c, 0, 72, 0
2, 16022, Note_on_c, 0, 70, 59
2, 16025, Note_on_c, 0, 87, 67
2, 16027, Note_on_c, 0, 82, 0
2, 16028, Note_on_c, 0, 63, 0
2, 16031, Note_on_c, 0, 70, 0
2, 16033, Note_on_c, 0, 60, 0
2, 16038, Note_on_c, 0, 87, 0
2, 16057, Note_on_c, 0, 54, 59
2, 16065, Note_on_c, 0, 60, 63
2, 16068, Note_on_c, 0, 72, 40
2, 16070, Note_on_c, 0, 54, 0
2, 16071, Note_on_c, 0, 63, 64
2, 16075, Note_on_c, 0, 82, 42
2, 16078, Note_on_c, 0, 72, 0
2, 16079, Note_on_c, 0, 70, 72
2, 16085, Note_on_c, 0, 87, 72
2, 16087, Note_on_c, 0, 60, 0
2, 16088, Note_on_c, 0, 82, 0
2, 16088, Note_on_c, 0, 63, 0
2, 16090, Note_on_c, 0, 70, 0
2, 16098, Note_on_c, 0, 87, 0
2, 16120, Note_on_c, 0, 53, 58
2, 16120, Control_c, 0, 64, 0
2, 16127, Control_c, 0, 64, 127
2, 16128, Note_on_c, 0, 72, 42
2, 16130, Note_on_c, 0, 60, 62
2, 16133, Note_on_c, 0, 81, 46
2, 16133, Note_on_c, 0, 63, 66
2, 16134, Note_on_c, 0, 53, 0
2, 16138, Note_on_c, 0, 72, 0
2, 16142, Note_on_c, 0, 69, 66
2, 16144, Note_on_c, 0, 87, 72
2, 16146, Note_on_c, 0, 81, 0
2, 16153, Note_on_c, 0, 63, 0
2, 16153, Note_on_c, 0, 60, 0
2, 16154, Note_on_c, 0, 69, 0
2, 16160, Note_on_c, 0, 87, 0
2, 16177, Note_on_c, 0, 53, 67
2, 16186, Note_on_c, 0, 72, 41
2, 16188, Note_on_c, 0, 60, 72
2, 16191, Note_on_c, 0, 53, 0
2, 16192, Note_on_c, 0, 63, 72
2, 16193, Note_on_c, 0, 81, 47
2, 16198, Note_on_c, 0, 72, 0
2, 16199, Note_on_c, 0, 69, 75
2, 16202, Note_on_c, 0, 87, 73
2, 16203, Note_on_c, 0, 81, 0
2, 16209, Note_on_c, 0, 63, 0
2, 16210, Note_on_c, 0, 69, 0
2, 16211, Note_on_c, 0, 87, 0
2, 16216, Note_on_c, 0, 60, 0
2, 16241, Note_on_c, 0, 69, 45
2, 16244, Note_on_c, 0, 53, 66
2, 16249, Note_on_c, 0, 75, 53
2, 16251, Note_on_c, 0, 69, 0
2, 16253, Note_on_c, 0, 60, 67
2, 16261, Note_on_c, 0, 84, 77
2, 16263, Note_on_c, 0, 65, 72
2, 16264, Note_on_c, 0, 75, 0
2, 16264, Note_on_c, 0, 53, 0
2, 16268, Note_on_c, 0, 60, 0
2, 16272, Note_on_c, 0, 84, 0
2, 16275, Note_on_c, 0, 65, 0
2, 16300, Control_c, 0, 64, 0
2, 16301, Note_on_c, 0, 68, 43
2, 16301, Note_on_c, 0, 46, 62
2, 16309, Note_on_c, 0, 74, 52
2, 16310, Control_c, 0, 64, 127
2, 16311, Note_on_c, 0, 68, 0
2, 16312, Note_on_c, 0, 46, 0
2, 16312, Note_on_c, 0, 53, 66
2, 16315, Note_on_c, 0, 56, 69
2, 16322, Note_on_c, 0, 84, 83
2, 16325, Note_on_c, 0, 62, 73
2, 16326, Note_on_c, 0, 74, 0
2, 16332, Note_on_c, 0, 84, 0
2, 16336, Note_on_c, 0, 62, 0
2, 16336, Note_on_c, 0, 56, 0
2, 16339, Note_on_c, 0, 53, 0
2, 16360, Note_on_c, 0, 68, 50
2, 16360, Note_on_c, 0, 46, 69
2, 16369, Note_on_c, 0, 53, 72
2, 16371, Note_on_c, 0, 46, 0
2, 16372, Note_on_c, 0, 74, 58
2, 16374, Note_on_c, 0, 56, 72
2, 16379, Note_on_c, 0, 68, 0
2, 16381, Note_on_c, 0, 82, 85
2, 16383, Note_on_c, 0, 62, 75
2, 16385, Note_on_c, 0, 74, 0
2, 16393, Note_on_c, 0, 82, 0
2, 16394, Note_on_c, 0, 56, 0
2, 16394, Note_on_c, 0, 62, 0
2, 16396, Note_on_c, 0, 53, 0
2, 16415, Note_on_c, 0, 46, 74
2, 16423, Note_on_c, 0, 68, 55
2, 16425, Note_on_c, 0, 53, 77
2, 16426, Note_on_c, 0, 46, 0
2, 16429, Note_on_c, 0, 56, 79
2, 16431, Note_on_c, 0, 74, 57
2, 16439, Note_on_c, 0, 80, 87
2, 16439, Note_on_c, 0, 62, 82
2, 16443, Note_on_c, 0, 68, 0
2, 16445, Note_on_c, 0, 74, 0
2, 16449, Note_on_c, 0, 56, 0
2, 16450, Note_on_c, 0, 62, 0
2, 16452, Note_on_c, 0, 53, 0
2, 16457, Note_on_c, 0, 80, 0
2, 16476, Note_on_c, 0, 46, 75
2, 16479, Note_on_c, 0, 68, 52
2, 16487, Note_on_c, 0, 53, 78
2, 16488, Note_on_c, 0, 46, 0
2, 16489, Note_on_c, 0, 74, 58
2, 16491, Note_on_c, 0, 56, 78
2, 16499, Note_on_c, 0, 68, 0
2, 16501, Note_on_c, 0, 62, 82
2, 16502, Note_on_c, 0, 77, 85
2, 16506, Note_on_c, 0, 74, 0
2, 16510, Note_on_c, 0, 56, 0
2, 16512, Note_on_c, 0, 62, 0
2, 16512, Note_on_c, 0, 77, 0
2, 16514, Note_on_c, 0, 53, 0
2, 16535, Control_c, 0, 64, 0
2, 16540, Control_c, 0, 64, 127
2, 16541, Note_on_c, 0, 39, 80
2, 16551, Note_on_c, 0, 39, 0
2, 16552, Note_on_c, 0, 67, 66
2, 16561, Note_on_c, 0, 75, 94
2, 16569, Note_on_c, 0, 67, 0
2, 16575, Note_on_c, 0, 75, 0
2, 16598, Note_on_c, 0, 51, 56
2, 16606, Note_on_c, 0, 58, 68
2, 16609, Note_on_c, 0, 73, 46
2, 16610, Note_on_c, 0, 51, 0
2, 16617, Note_on_c, 0, 82, 64
2, 16619, Note_on_c, 0, 67, 51
2, 16625, Note_on_c, 0, 87, 47
2, 16633, Note_on_c, 0, 82, 0
2, 16634, Note_on_c, 0, 67, 0
2, 16636, Note_on_c, 0, 73, 0
2, 16644, Note_on_c, 0, 87, 0
2, 16656, Note_on_c, 0, 51, 56
2, 16667, Note_on_c, 0, 51, 0
2, 16668, Note_on_c, 0, 61, 59
2, 16669, Note_on_c, 0, 73, 45
2, 16676, Note_on_c, 0, 81, 63
2, 16676, Note_on_c, 0, 67, 54
2, 16685, Note_on_c, 0, 87, 43
2, 16690, Note_on_c, 0, 67, 0
2, 16691, Note_on_c, 0, 61, 0
2, 16692, Note_on_c, 0, 73, 0
2, 16693, Note_on_c, 0, 81, 0
2, 16707, Note_on_c, 0, 87, 0
2, 16713, Note_on_c, 0, 51, 50
2, 16727, Note_on_c, 0, 51, 0
2, 16727, Note_on_c, 0, 61, 56
2, 16729, Note_on_c, 0, 73, 42
2, 16734, Note_on_c, 0, 67, 59
2, 16739, Note_on_c, 0, 82, 65
2, 16745, Note_on_c, 0, 61, 0
2, 16747, Note_on_c, 0, 67, 0
2, 16749, Note_on_c, 0, 87, 45
2, 16757, Note_on_c, 0, 73, 0
2, 16759, Note_on_c, 0, 82, 0
2, 16766, Note_on_c, 0, 87, 0
2, 16770, Note_on_c, 0, 51, 51
2, 16784, Note_on_c, 0, 73, 42
2, 16785, Note_on_c, 0, 51, 0
2, 16787, Note_on_c, 0, 61, 57
2, 16793, Note_on_c, 0, 67, 51
2, 16795, Note_on_c, 0, 84, 65
2, 16798, Note_on_c, 0, 61, 0
2, 16804, Note_on_c, 0, 87, 45
2, 16808, Note_on_c, 0, 67, 0
2, 16813, Note_on_c, 0, 84, 0
2, 16813, Note_on_c, 0, 73, 0
2, 16824, Note_on_c, 0, 87, 0
2, 16831, Note_on_c, 0, 51, 52
2, 16843, Note_on_c, 0, 73, 40
2, 16846, Note_on_c, 0, 51, 0
2, 16848, Note_on_c, 0, 61, 61
2, 16854, Note_on_c, 0, 67, 53
2, 16855, Note_on_c, 0, 79, 65
2, 16863, Note_on_c, 0, 61, 0
2, 16863, Note_on_c, 0, 87, 39
2, 16864, Note_on_c, 0, 67, 0
2, 16868, Note_on_c, 0, 58, 0
2, 16869, Note_on_c, 0, 79, 0
2, 16872, Note_on_c, 0, 73, 0
2, 16880, Note_on_c, 0, 87, 0
2, 16893, Control_c, 0, 64, 0
2, 16893, Note_on_c, 0, 51, 53
2, 16905, Note_on_c, 0, 72, 41
2, 16905, Control_c, 0, 64, 127
2, 16905, Note_on_c, 0, 60, 53
2, 16906, Note_on_c, 0, 51, 0
2, 16908, Note_on_c, 0, 80, 63
2, 16912, Note_on_c, 0, 72, 0
2, 16919, Note_on_c, 0, 87, 42
2, 16919, Note_on_c, 0, 68, 57
2, 16921, Note_on_c, 0, 80, 0
2, 16930, Note_on_c, 0, 87, 0
2, 16931, Note_on_c, 0, 60, 0
2, 16931, Note_on_c, 0, 68, 0
2, 16953, Note_on_c, 0, 51, 45
2, 16955, Control_c, 0, 67, 126
2, 16957, Control_c, 0, 64, 0
2, 16957, Control_c, 0, 67, 127
2, 16960, Note_on_c, 0, 74, 32
2, 16965, Control_c, 0, 64, 127
2, 16966, Note_on_c, 0, 51, 0
2, 16968, Note_on_c, 0, 80, 39
2, 16968, Note_on_c, 0, 59, 48
2, 16972, Note_on_c, 0, 74, 0
2, 16976, Note_on_c, 0, 68, 50
2, 16982, Note_on_c, 0, 89, 57
2, 16985, Note_on_c, 0, 80, 0
2, 16987, Note_on_c, 0, 68, 0
2, 16988, Note_on_c, 0, 59, 0
2, 16995, Note_on_c, 0, 89, 0
2, 17014, Note_on_c, 0, 51, 45
2, 17024, Note_on_c, 0, 74, 34
2, 17025, Note_on_c, 0, 51, 0
2, 17026, Note_on_c, 0, 59, 47
2, 17031, Note_on_c, 0, 80, 39
2, 17036, Note_on_c, 0, 68, 48
2, 17038, Note_on_c, 0, 74, 0
2, 17043, Note_on_c, 0, 88, 57
2, 17046, Note_on_c, 0, 68, 0
2, 17047, Note_on_c, 0, 59, 0
2, 17049, Note_on_c, 0, 80, 0
2, 17060, Note_on_c, 0, 88, 0
2, 17073, Note_on_c, 0, 51, 43
2, 17083, Note_on_c, 0, 74, 36
2, 17084, Note_on_c, 0, 51, 0
2, 17084, Note_on_c, 0, 59, 47
2, 17090, Note_on_c, 0, 80, 40
2, 17095, Note_on_c, 0, 74, 0
2, 17098, Note_on_c, 0, 68, 48
2, 17102, Note_on_c, 0, 89, 57
2, 17104, Note_on_c, 0, 80, 0
2, 17109, Note_on_c, 0, 59, 0
2, 17109, Note_on_c, 0, 68, 0
2, 17115, Note_on_c, 0, 89, 0
2, 17133, Control_c, 0, 64, 0
2, 17138, Note_on_c, 0, 74, 36
2, 17141, Note_on_c, 0, 51, 43
2, 17144, Control_c, 0, 64, 127
2, 17149, Note_on_c, 0, 80, 43
2, 17149, Note_on_c, 0, 58, 43
2, 17151, Note_on_c, 0, 74, 0
2, 17152, Note_on_c, 0, 51, 0
2, 17159, Note_on_c, 0, 80, 0
2, 17161, Note_on_c, 0, 68, 48
2, 17164, Note_on_c, 0, 91, 56
2, 17166, Note_on_c, 0, 58, 0
2, 17172, Note_on_c, 0, 68, 0
2, 17175, Note_on_c, 0, 91, 0
2, 17197, Note_on_c, 0, 51, 46
2, 17203, Note_on_c, 0, 74, 30
2, 17208, Note_on_c, 0, 58, 48
2, 17210, Note_on_c, 0, 51, 0
2, 17214, Note_on_c, 0, 80, 37
2, 17217, Note_on_c, 0, 74, 0
2, 17220, Note_on_c, 0, 68, 47
2, 17225, Note_on_c, 0, 89, 55
2, 17227, Note_on_c, 0, 58, 0
2, 17228, Note_on_c, 0, 80, 0
2, 17231, Note_on_c, 0, 68, 0
2, 17242, Note_on_c, 0, 89, 0
2, 17255, Control_c, 0, 64, 0
2, 17263, Note_on_c, 0, 79, 36
2, 17266, Control_c, 0, 64, 127
2, 17268, Note_on_c, 0, 87, 39
2, 17274, Note_on_c, 0, 79, 0
2, 17282, Note_on_c, 0, 87, 0
2, 17283, Note_on_c, 0, 94, 51
2, 17283, Note_on_c, 0, 39, 63
2, 17289, Note_on_c, 0, 94, 0
2, 17297, Note_on_c, 0, 39, 0
2, 17315, Control_c, 0, 67, 0
2, 17324, Note_on_c, 0, 51, 57
2, 17325, Note_on_c, 0, 73, 47
2, 17333, Note_on_c, 0, 82, 64
2, 17333, Note_on_c, 0, 58, 62
2, 17337, Note_on_c, 0, 51, 0
2, 17341, Note_on_c, 0, 87, 50
2, 17346, Note_on_c, 0, 67, 47
2, 17351, Note_on_c, 0, 73, 0
2, 17351, Note_on_c, 0, 82, 0
2, 17356, Note_on_c, 0, 87, 0
2, 17360, Note_on_c, 0, 67, 0
2, 17383, Note_on_c, 0, 51, 53
2, 17385, Note_on_c, 0, 73, 48
2, 17391, Note_on_c, 0, 81, 66
2, 17396, Note_on_c, 0, 51, 0
2, 17398, Note_on_c, 0, 61, 57
2, 17401, Note_on_c, 0, 87, 50
2, 17405, Note_on_c, 0, 67, 48
2, 17407, Note_on_c, 0, 73, 0
2, 17409, Note_on_c, 0, 61, 0
2, 17410, Note_on_c, 0, 81, 0
2, 17417, Note_on_c, 0, 67, 0
2, 17422, Note_on_c, 0, 87, 0
2, 17437, Note_on_c, 0, 51, 52
2, 17446, Note_on_c, 0, 73, 47
2, 17448, Note_on_c, 0, 51, 0
2, 17452, Note_on_c, 0, 82, 67
2, 17453, Note_on_c, 0, 61, 56
2, 17458, Note_on_c, 0, 67, 46
2, 17460, Note_on_c, 0, 87, 43
2, 17463, Note_on_c, 0, 61, 0
2, 17466, Note_on_c, 0, 73, 0
2, 17469, Note_on_c, 0, 82, 0
2, 17471, Note_on_c, 0, 67, 0
2, 17481, Note_on_c, 0, 87, 0
2, 17495, Note_on_c, 0, 51, 56
2, 17506, Note_on_c, 0, 51, 0
2, 17506, Note_on_c, 0, 73, 46
2, 17511, Note_on_c, 0, 61, 61
2, 17513, Note_on_c, 0, 84, 64
2, 17516, Note_on_c, 0, 67, 49
2, 17522, Note_on_c, 0, 87, 47
2, 17524, Note_on_c, 0, 61, 0
2, 17527, Note_on_c, 0, 67, 0
2, 17530, Note_on_c, 0, 73, 0
2, 17531, Note_on_c, 0, 84, 0
2, 17542, Note_on_c, 0, 87, 0
2, 17551, Note_on_c, 0, 51, 57
2, 17565, Note_on_c, 0, 51, 0
2, 17567, Note_on_c, 0, 73, 41
2, 17567, Note_on_c, 0, 61, 59
2, 17571, Note_on_c, 0, 67, 47
2, 17574, Note_on_c, 0, 79, 66
2, 17578, Note_on_c, 0, 61, 0
2, 17581, Note_on_c, 0, 87, 46
2, 17583, Note_on_c, 0, 67, 0
2, 17583, Note_on_c, 0, 58, 0
2, 17586, Note_on_c, 0, 79, 0
2, 17595, Note_on_c, 0, 73, 0
2, 17600, Note_on_c, 0, 87, 0
2, 17613, Note_on_c, 0, 51, 55
2, 17620, Control_c, 0, 64, 0
2, 17622, Note_on_c, 0, 72, 43
2, 17627, Note_on_c, 0, 51, 0
2, 17627, Note_on_c, 0, 60, 58
2, 17629, Control_c, 0, 64, 127
2, 17630, Note_on_c, 0, 80, 65
2, 17632, Note_on_c, 0, 72, 0
2, 17637, Note_on_c, 0, 68, 59
2, 17641, Note_on_c, 0, 87, 46
2, 17643, Note_on_c, 0, 80, 0
2, 17647, Note_on_c, 0, 68, 0
2, 17648, Note_on_c, 0, 60, 0
2, 17650, Note_on_c, 0, 87, 0
2, 17670, Control_c, 0, 67, 127
2, 17671, Control_c, 0, 64, 0
2, 17676, Note_on_c, 0, 51, 50
2, 17681, Control_c, 0, 64, 127
2, 17687, Note_on_c, 0, 51, 0
2, 17687, Note_on_c, 0, 74, 34
2, 17689, Note_on_c, 0, 59, 50
2, 17693, Note_on_c, 0, 80, 39
2, 17696, Note_on_c, 0, 74, 0
2, 17697, Note_on_c, 0, 68, 51
2, 17703, Note_on_c, 0, 89, 57
2, 17707, Note_on_c, 0, 80, 0
2, 17708, Note_on_c, 0, 68, 0
2, 17709, Note_on_c, 0, 59, 0
2, 17715, Note_on_c, 0, 89, 0
2, 17734, Note_on_c, 0, 51, 45
2, 17745, Note_on_c, 0, 51, 0
2, 17745, Note_on_c, 0, 59, 46
2, 17749, Note_on_c, 0, 74, 34
2, 17754, Note_on_c, 0, 80, 40
2, 17754, Note_on_c, 0, 68, 47
2, 17762, Note_on_c, 0, 74, 0
2, 17762, Note_on_c, 0, 88, 58
2, 17765, Note_on_c, 0, 59, 0
2, 17767, Note_on_c, 0, 68, 0
2, 17768, Note_on_c, 0, 80, 0
2, 17777, Note_on_c, 0, 88, 0
2, 17793, Note_on_c, 0, 51, 46
2, 17803, Note_on_c, 0, 51, 0
2, 17804, Note_on_c, 0, 74, 35
2, 17805, Note_on_c, 0, 59, 47
2, 17813, Note_on_c, 0, 80, 42
2, 17813, Note_on_c, 0, 68, 48
2, 17817, Note_on_c, 0, 74, 0
2, 17823, Note_on_c, 0, 59, 0
2, 17823, Note_on_c, 0, 68, 0
2, 17825, Note_on_c, 0, 89, 57
2, 17828, Note_on_c, 0, 80, 0
2, 17837, Note_on_c, 0, 89, 0
2, 17855, Note_on_c, 0, 51, 43
2, 17861, Note_on_c, 0, 74, 34
2, 17863, Control_c, 0, 64, 0
2, 17866, Note_on_c, 0, 58, 47
2, 17869, Note_on_c, 0, 51, 0
2, 17871, Note_on_c, 0, 74, 0
2, 17871, Note_on_c, 0, 80, 41
2, 17872, Control_c, 0, 64, 127
2, 17878, Note_on_c, 0, 80, 0
2, 17881, Note_on_c, 0, 68, 48
2, 17884, Note_on_c, 0, 91, 59
2, 17888, Note_on_c, 0, 68, 0
2, 17888, Note_on_c, 0, 58, 0
2, 17895, Note_on_c, 0, 91, 0
2, 17921, Note_on_c, 0, 51, 42
2, 17928, Note_on_c, 0, 74, 37
2, 17931, Note_on_c, 0, 58, 45
2, 17933, Note_on_c, 0, 51, 0
2, 17933, Note_on_c, 0, 80, 40
2, 17936, Note_on_c, 0, 74, 0
2, 17942, Note_on_c, 0, 89, 57
2, 17943, Note_on_c, 0, 80, 0
2, 17943, Note_on_c, 0, 68, 46
2, 17951, Note_on_c, 0, 89, 0
2, 17953, Note_on_c, 0, 68, 0
2, 17954, Note_on_c, 0, 58, 0
2, 17980, Note_on_c, 0, 51, 45
2, 17981, Control_c, 0, 64, 0
2, 17986, Note_on_c, 0, 79, 45
2, 17989, Control_c, 0, 64, 127
2, 17989, Note_on_c, 0, 58, 45
2, 17992, Note_on_c, 0, 51, 0
2, 17993, Note_on_c, 0, 87, 47
2, 17994, Note_on_c, 0, 79, 0
2, 18001, Note_on_c, 0, 67, 46
2, 18004, Note_on_c, 0, 87, 0
2, 18006, Note_on_c, 0, 58, 0
2, 18007, Note_on_c, 0, 94, 58
2, 18011, Note_on_c, 0, 94, 0
2, 18011, Note_on_c, 0, 67, 0
2, 18025, Control_c, 0, 67, 0
2, 18043, Control_c, 0, 64, 0
2, 18043, Note_on_c, 0, 56, 69
2, 18045, Note_on_c, 0, 80, 56
2, 18049, Control_c, 0, 64, 127
2, 18053, Note_on_c, 0, 87, 82
2, 18055, Note_on_c, 0, 63, 74
2, 18057, Note_on_c, 0, 80, 0
2, 18057, Note_on_c, 0, 56, 0
2, 18062, Note_on_c, 0, 95, 91
2, 18064, Note_on_c, 0, 71, 74
2, 18068, Note_on_c, 0, 87, 0
2, 18073, Note_on_c, 0, 63, 0
2, 18076, Note_on_c, 0, 95, 0
2, 18077, Note_on_c, 0, 71, 0
2, 18099, Control_c, 0, 64, 0
2, 18104, Note_on_c, 0, 79, 68
2, 18104, Note_on_c, 0, 55, 68
2, 18106, Control_c, 0, 64, 127
2, 18110, Note_on_c, 0, 86, 69
2, 18114, Note_on_c, 0, 79, 0
2, 18114, Note_on_c, 0, 62, 71
2, 18115, Note_on_c, 0, 55, 0
2, 18117, Note_on_c, 0, 65, 74
2, 18122, Note_on_c, 0, 95, 95
2, 18124, Note_on_c, 0, 86, 0
2, 18124, Note_on_c, 0, 71, 84
2, 18130, Note_on_c, 0, 62, 0
2, 18131, Note_on_c, 0, 65, 0
2, 18134, Note_on_c, 0, 95, 0
2, 18138, Note_on_c, 0, 71, 0
2, 18154, Control_c, 0, 64, 0
2, 18159, Note_on_c, 0, 79, 57
2, 18162, Control_c, 0, 64, 127
2, 18165, Note_on_c, 0, 60, 73
2, 18166, Note_on_c, 0, 88, 64
2, 18169, Note_on_c, 0, 79, 0
2, 18171, Note_on_c, 0, 64, 80
2, 18177, Note_on_c, 0, 88, 0
2, 18179, Note_on_c, 0, 70, 83
2, 18181, Note_on_c, 0, 96, 90
2, 18189, Note_on_c, 0, 64, 0
2, 18189, Note_on_c, 0, 60, 0
2, 18191, Note_on_c, 0, 70, 0
2, 18193, Note_on_c, 0, 96, 0
2, 18216, Control_c, 0, 64, 0
2, 18219, Note_on_c, 0, 53, 69
2, 18222, Control_c, 0, 64, 127
2, 18224, Note_on_c, 0, 81, 58
2, 18229, Note_on_c, 0, 60, 73
2, 18230, Note_on_c, 0, 87, 77
2, 18233, Note_on_c, 0, 81, 0
2, 18233, Note_on_c, 0, 53, 0
2, 18235, Note_on_c, 0, 63, 73
2, 18239, Note_on_c, 0, 87, 0
2, 18241, Note_on_c, 0, 96, 99
2, 18243, Note_on_c, 0, 69, 83
2, 18246, Note_on_c, 0, 60, 0
2, 18247, Note_on_c, 0, 63, 0
2, 18250, Note_on_c, 0, 69, 0
2, 18255, Note_on_c, 0, 96, 0
2, 18272, Control_c, 0, 64, 0
2, 18278, Note_on_c, 0, 58, 75
2, 18283, Control_c, 0, 64, 127
2, 18287, Note_on_c, 0, 82, 51
2, 18288, Note_on_c, 0, 65, 75
2, 18292, Note_on_c, 0, 58, 0
2, 18292, Note_on_c, 0, 68, 75
2, 18293, Note_on_c, 0, 86, 84
2, 18300, Note_on_c, 0, 74, 80
2, 18301, Note_on_c, 0, 82, 0
2, 18301, Note_on_c, 0, 94, 94
2, 18304, Note_on_c, 0, 86, 0
2, 18304, Note_on_c, 0, 65, 0
2, 18308, Note_on_c, 0, 68, 0
2, 18312, Note_on_c, 0, 94, 0
2, 18315, Note_on_c, 0, 74, 0
2, 18334, Control_c, 0, 64, 0
2, 18341, Control_c, 0, 64, 127
2, 18343, Note_on_c, 0, 63, 69
2, 18345, Note_on_c, 0, 79, 66
2, 18348, Note_on_c, 0, 67, 77
2, 18351, Note_on_c, 0, 87, 75
2, 18356, Note_on_c, 0, 75, 80
2, 18358, Note_on_c, 0, 91, 93
2, 18359, Note_on_c, 0, 79, 0
2, 18362, Note_on_c, 0, 87, 0
2, 18363, Note_on_c, 0, 67, 0
2, 18364, Note_on_c, 0, 63, 0
2, 18367, Note_on_c, 0, 75, 0
2, 18371, Note_on_c, 0, 91, 0
2, 18395, Note_on_c, 0, 56, 48
2, 18396, Control_c, 0, 64, 0
2, 18405, Control_c, 0, 64, 127
2, 18406, Note_on_c, 0, 63, 51
2, 18407, Note_on_c, 0, 80, 43
2, 18408, Note_on_c, 0, 56, 0
2, 18413, Note_on_c, 0, 87, 50
2, 18415, Note_on_c, 0, 71, 53
2, 18419, Note_on_c, 0, 80, 0
2, 18422, Note_on_c, 0, 95, 57
2, 18426, Note_on_c, 0, 87, 0
2, 18427, Note_on_c, 0, 71, 0
2, 18428, Note_on_c, 0, 63, 0
2, 18434, Note_on_c, 0, 95, 0
2, 18458, Control_c, 0, 64, 0
2, 18458, Note_on_c, 0, 55, 47
2, 18462, Note_on_c, 0, 79, 41
2, 18464, Control_c, 0, 64, 127
2, 18466, Note_on_c, 0, 62, 50
2, 18468, Note_on_c, 0, 55, 0
2, 18469, Note_on_c, 0, 86, 46
2, 18473, Note_on_c, 0, 79, 0
2, 18474, Note_on_c, 0, 65, 52
2, 18479, Note_on_c, 0, 71, 55
2, 18480, Note_on_c, 0, 95, 61
2, 18481, Note_on_c, 0, 86, 0
2, 18484, Note_on_c, 0, 62, 0
2, 18486, Note_on_c, 0, 65, 0
2, 18492, Note_on_c, 0, 71, 0
2, 18495, Note_on_c, 0, 95, 0
2, 18512, Control_c, 0, 64, 0
2, 18521, Control_c, 0, 64, 127
2, 18522, Note_on_c, 0, 60, 48
2, 18525, Note_on_c, 0, 79, 41
2, 18529, Note_on_c, 0, 64, 51
2, 18530, Note_on_c, 0, 88, 47
2, 18532, Note_on_c, 0, 79, 0
2, 18534, Note_on_c, 0, 70, 53
2, 18539, Note_on_c, 0, 88, 0
2, 18542, Note_on_c, 0, 64, 0
2, 18543, Note_on_c, 0, 70, 0
2, 18544, Note_on_c, 0, 60, 0
2, 18545, Note_on_c, 0, 96, 59
2, 18546, Note_on_c, 0, 96, 0
2, 18575, Control_c, 0, 64, 0
2, 18578, Note_on_c, 0, 53, 47
2, 18585, Note_on_c, 0, 60, 48
2, 18586, Note_on_c, 0, 81, 45
2, 18586, Control_c, 0, 64, 127
2, 18588, Note_on_c, 0, 53, 0
2, 18590, Note_on_c, 0, 63, 51
2, 18592, Note_on_c, 0, 87, 48
2, 18594, Note_on_c, 0, 81, 0
2, 18597, Note_on_c, 0, 69, 51
2, 18601, Note_on_c, 0, 60, 0
2, 18601, Note_on_c, 0, 87, 0
2, 18603, Note_on_c, 0, 63, 0
2, 18604, Note_on_c, 0, 96, 57
2, 18606, Note_on_c, 0, 69, 0
2, 18610, Note_on_c, 0, 96, 0
2, 18634, Control_c, 0, 64, 0
2, 18639, Note_on_c, 0, 58, 40
2, 18643, Control_c, 0, 64, 127
2, 18649, Note_on_c, 0, 82, 40
2, 18649, Note_on_c, 0, 65, 45
2, 18653, Note_on_c, 0, 58, 0
2, 18655, Note_on_c, 0, 68, 45
2, 18659, Note_on_c, 0, 86, 46
2, 18662, Note_on_c, 0, 94, 57
2, 18663, Note_on_c, 0, 74, 45
2, 18667, Note_on_c, 0, 65, 0
2, 18670, Note_on_c, 0, 86, 0
2, 18670, Note_on_c, 0, 82, 0
2, 18674, Note_on_c, 0, 68, 0
2, 18675, Note_on_c, 0, 94, 0
2, 18678, Note_on_c, 0, 74, 0
2, 18692, Control_c, 0, 64, 0
2, 18703, Control_c, 0, 64, 127
2, 18707, Note_on_c, 0, 63, 45
2, 18718, Note_on_c, 0, 70, 48
2, 18723, Note_on_c, 0, 87, 51
2, 18723, Note_on_c, 0, 91, 57
2, 18724, Note_on_c, 0, 79, 51
2, 18724, Note_on_c, 0, 75, 51
2, 18730, Note_on_c, 0, 63, 0
2, 18732, Note_on_c, 0, 70, 0
2, 18736, Note_on_c, 0, 75, 0
2, 18773, Note_on_c, 0, 58, 52
2, 18778, Note_on_c, 0, 67, 61
2, 18785, Note_on_c, 0, 75, 50
2, 18789, Note_on_c, 0, 58, 0
2, 18792, Note_on_c, 0, 67, 0
2, 18798, Note_on_c, 0, 75, 0
2, 18829, Note_on_c, 0, 57, 52
2, 18832, Control_c, 0, 64, 0
2, 18838, Note_on_c, 0, 66, 63
2, 18841, Control_c, 0, 64, 127
2, 18844, Note_on_c, 0, 57, 0
2, 18847, Note_on_c, 0, 75, 55
2, 18851, Note_on_c, 0, 66, 0
2, 18857, Note_on_c, 0, 75, 0
2, 18885, Control_c, 0, 64, 0
2, 18893, Note_on_c, 0, 58, 55
2, 18895, Control_c, 0, 64, 127
2, 18900, Note_on_c, 0, 67, 64
2, 18907, Note_on_c, 0, 58, 0
2, 18907, Note_on_c, 0, 75, 57
2, 18912, Note_on_c, 0, 91, 0
2, 18913, Note_on_c, 0, 67, 0
2, 18913, Note_on_c, 0, 87, 0
2, 18916, Note_on_c, 0, 79, 0
2, 18917, Note_on_c, 0, 75, 0
2, 18941, Control_c, 0, 64, 0
2, 18948, Note_on_c, 0, 59, 52
2, 18949, Control_c, 0, 64, 127
2, 18958, Note_on_c, 0, 68, 64
2, 18963, Note_on_c, 0, 75, 51
2, 18964, Note_on_c, 0, 59, 0
2, 18964, Note_on_c, 0, 91, 64
2, 18965, Note_on_c, 0, 80, 41
2, 18967, Note_on_c, 0, 68, 0
2, 18975, Note_on_c, 0, 75, 0
2, 18999, Control_c, 0, 64, 0
2, 19009, Note_on_c, 0, 58, 53
2, 19010, Control_c, 0, 64, 127
2, 19018, Note_on_c, 0, 68, 62
2, 19024, Note_on_c, 0, 58, 0
2, 19024, Note_on_c, 0, 74, 51
2, 19029, Note_on_c, 0, 68, 0
2, 19034, Note_on_c, 0, 74, 0
2, 19052, Note_on_c, 0, 89, 57
2, 19059, Control_c, 0, 64, 0
2, 19060, Note_on_c, 0, 80, 0
2, 19065, Note_on_c, 0, 91, 0
2, 19070, Control_c, 0, 64, 127
2, 19070, Note_on_c, 0, 63, 55
2, 19078, Note_on_c, 0, 67, 63
2, 19080, Note_on_c, 0, 87, 58
2, 19083, Note_on_c, 0, 79, 43
2, 19085, Note_on_c, 0, 75, 56
2, 19087, Note_on_c, 0, 89, 0
2, 19094, Note_on_c, 0, 63, 0
2, 19095, Note_on_c, 0, 67, 0
2, 19098, Note_on_c, 0, 75, 0
2, 19133, Note_on_c, 0, 46, 55
2, 19138, Note_on_c, 0, 55, 61
2, 19147, Note_on_c, 0, 63, 56
2, 19149, Note_on_c, 0, 46, 0
2, 19153, Note_on_c, 0, 55, 0
2, 19157, Note_on_c, 0, 63, 0
2, 19172, Note_on_c, 0, 79, 0
2, 19179, Note_on_c, 0, 87, 0
2, 19189, Control_c, 0, 64, 0
2, 19192, Note_on_c, 0, 45, 47
2, 19197, Note_on_c, 0, 54, 59
2, 19199, Control_c, 0, 64, 127
2, 19205, Note_on_c, 0, 63, 50
2, 19207, Note_on_c, 0, 45, 0
2, 19210, Note_on_c, 0, 54, 0
2, 19215, Note_on_c, 0, 63, 0
2, 19247, Control_c, 0, 64, 0
2, 19252, Note_on_c, 0, 46, 47
2, 19255, Control_c, 0, 64, 127
2, 19259, Note_on_c, 0, 55, 53
2, 19265, Note_on_c, 0, 63, 48
2, 19266, Note_on_c, 0, 46, 0
2, 19273, Note_on_c, 0, 55, 0
2, 19277, Note_on_c, 0, 63, 0
2, 19302, Control_c, 0, 64, 0
2, 19307, Note_on_c, 0, 47, 47
2, 19313, Control_c, 0, 64, 127
2, 19317, Note_on_c, 0, 56, 55
2, 19322, Note_on_c, 0, 47, 0
2, 19322, Note_on_c, 0, 63, 48
2, 19324, Note_on_c, 0, 79, 61
2, 19325, Note_on_c, 0, 68, 40
2, 19326, Note_on_c, 0, 56, 0
2, 19334, Note_on_c, 0, 63, 0
2, 19359, Control_c, 0, 64, 0
2, 19371, Control_c, 0, 64, 127
2, 19371, Note_on_c, 0, 46, 46
2, 19377, Note_on_c, 0, 56, 56
2, 19384, Note_on_c, 0, 62, 48
2, 19385, Note_on_c, 0, 46, 0
2, 19389, Note_on_c, 0, 56, 0
2, 19394, Note_on_c, 0, 62, 0
2, 19399, Note_on_c, 0, 77, 59
2, 19405, Note_on_c, 0, 79, 0
2, 19417, Control_c, 0, 64, 0
2, 19418, Note_on_c, 0, 75, 61
2, 19421, Note_on_c, 0, 77, 0
2, 19425, Note_on_c, 0, 68, 0
2, 19428, Note_on_c, 0, 75, 0
2, 19434, Control_c, 0, 64, 127
2, 19442, Note_on_c, 0, 67, 50
2, 19442, Note_on_c, 0, 75, 82
2, 19443, Note_on_c, 0, 39, 82
2, 19455, Note_on_c, 0, 39, 0
2, 19478, Note_on_c, 0, 67, 0
2, 19481, Note_on_c, 0, 43, 58
2, 19484, Note_on_c, 0, 75, 0
2, 19491, Note_on_c, 0, 51, 62
2, 19493, Note_on_c, 0, 43, 0
2, 19501, Note_on_c, 0, 63, 59
2, 19501, Note_on_c, 0, 58, 64
2, 19505, Note_on_c, 0, 70, 64
2, 19508, Note_on_c, 0, 63, 0
2, 19508, Note_on_c, 0, 51, 0
2, 19515, Note_on_c, 0, 58, 0
2, 19515, Note_on_c, 0, 70, 0
2, 19515, Note_on_c, 0, 79, 74
2, 19527, Note_on_c, 0, 79, 0
2, 19541, Note_on_c, 0, 46, 62
2, 19550, Note_on_c, 0, 55, 66
2, 19551, Note_on_c, 0, 67, 56
2, 19552, Note_on_c, 0, 46, 0
2, 19561, Note_on_c, 0, 67, 0
2, 19561, Note_on_c, 0, 75, 63
2, 19563, Note_on_c, 0, 63, 69
2, 19564, Note_on_c, 0, 55, 0
2, 19570, Note_on_c, 0, 75, 0
2, 19571, Note_on_c, 0, 82, 83
2, 19576, Note_on_c, 0, 63, 0
2, 19584, Note_on_c, 0, 82, 0
2, 19601, Note_on_c, 0, 51, 69
2, 19610, Note_on_c, 0, 70, 59
2, 19611, Note_on_c, 0, 58, 73
2, 19614, Note_on_c, 0, 51, 0
2, 19616, Note_on_c, 0, 79, 63
2, 19617, Note_on_c, 0, 70, 0
2, 19621, Note_on_c, 0, 67, 75
2, 19624, Note_on_c, 0, 58, 0
2, 19626, Note_on_c, 0, 79, 0
2, 19629, Note_on_c, 0, 87, 82
2, 19636, Note_on_c, 0, 67, 0
2, 19642, Note_on_c, 0, 87, 0
2, 19660, Note_on_c, 0, 55, 68
2, 19669, Note_on_c, 0, 63, 68
2, 19670, Note_on_c, 0, 75, 62
2, 19671, Note_on_c, 0, 55, 0
2, 19675, Note_on_c, 0, 82, 66
2, 19678, Note_on_c, 0, 75, 0
2, 19682, Note_on_c, 0, 70, 74
2, 19683, Note_on_c, 0, 82, 0
2, 19683, Note_on_c, 0, 63, 0
2, 19685, Note_on_c, 0, 91, 84
2, 19695, Note_on_c, 0, 70, 0
2, 19698, Note_on_c, 0, 91, 0
2, 19721, Note_on_c, 0, 58, 80
2, 19726, Note_on_c, 0, 79, 67
2, 19731, Note_on_c, 0, 58, 0
2, 19731, Note_on_c, 0, 67, 80
2, 19733, Note_on_c, 0, 79, 0
2, 19734, Note_on_c, 0, 87, 72
2, 19738, Note_on_c, 0, 67, 0
2, 19740, Note_on_c, 0, 75, 83
2, 19744, Note_on_c, 0, 87, 0
2, 19745, Note_on_c, 0, 94, 89
2, 19753, Note_on_c, 0, 75, 0
2, 19758, Note_on_c, 0, 94, 0
2, 19783, Note_on_c, 0, 63, 80
2, 19789, Note_on_c, 0, 82, 74
2, 19792, Note_on_c, 0, 70, 85
2, 19793, Note_on_c, 0, 91, 78
2, 19795, Note_on_c, 0, 63, 0
2, 19796, Note_on_c, 0, 82, 0
2, 19801, Note_on_c, 0, 79, 87
2, 19806, Note_on_c, 0, 99, 96
2, 19862, Note_on_c, 0, 70, 0
2, 19866, Note_on_c, 0, 91, 0
2, 19869, Note_on_c, 0, 79, 0
2, 19873, Note_on_c, 0, 99, 0
2, 19932, Control_c, 0, 64, 0
2, 19965, Note_on_c, 0, 58, 72
2, 19968, Control_c, 0, 64, 127
2, 19976, Note_on_c, 0, 62, 51
2, 19980, Note_on_c, 0, 65, 59
2, 19980, Note_on_c, 0, 68, 64
2, 19981, Note_on_c, 0, 70, 78
2, 19987, Note_on_c, 0, 62, 0
2, 19991, Note_on_c, 0, 68, 0
2, 19992, Note_on_c, 0, 58, 0
2, 19993, Note_on_c, 0, 65, 0
2, 19996, Note_on_c, 0, 70, 0
2, 20044, Note_on_c, 0, 82, 91
2, 20045, Note_on_c, 0, 46, 87
2, 20110, Note_on_c, 0, 82, 0
2, 20111, Note_on_c, 0, 46, 0
2, 20259, Control_c, 0, 64, 0
2, 20267, Control_c, 0, 64, 127
2, 20271, Note_on_c, 0, 67, 69
2, 20271, Note_on_c, 0, 51, 77
2, 20282, Note_on_c, 0, 67, 0
2, 20284, Note_on_c, 0, 51, 0
2, 20285, Note_on_c, 0, 58, 68
2, 20298, Note_on_c, 0, 67, 52
2, 20298, Note_on_c, 0, 75, 77
2, 20305, Note_on_c, 0, 58, 0
2, 20306, Note_on_c, 0, 75, 0
2, 20307, Note_on_c, 0, 67, 0
2, 20383, Note_on_c, 0, 87, 94
2, 20384, Note_on_c, 0, 39, 90
2, 20828, Note_on_c, 0, 87, 0
2, 20836, Note_on_c, 0, 39, 0
2, 20987, Control_c, 0, 64, 0
2, 20987, End_track
3, 0, Start_track
3, 0, MIDI_port, 0
3, 0, Title_t, "In Eb Major"
3, 0, End_track
4, 0, Start_track
4, 0, MIDI_port, 0
4, 0, Title_t, "Op. 10, No. 11"
4, 0, End_track
5, 0, Start_track
5, 0, MIDI_port, 0
5, 0, Title_t, "Chopin, Frederic"
5, 0, End_track
6, 0, Start_track
6, 0, MIDI_port, 0
6, 0, Title_t, "Sequenced by Anousone Kitisa"
6, 0, End_track
0, 0, End_of_file