0, 0, Header, 1, 6, 192
1, 0, Start_track
1, 0, Sequencer_specific, 0A, 00, 00, 5B, 23, 02, 00, 03, 00, 33, 00
1, 0, Title_t, "Scherzo n\2601 in Si minore, Op.20"
1, 0, MIDI_port, 0
1, 0, Text_t, "By Fryderyk Chopin (1810-1849)"
1, 0, Copyright_t, "Copyright \251 2003 by Dario Galimberti - http://dariogalimberti.interfree.it"
1, 0, Tempo, 223880
1, 0, Key_signature, 2, "major"
1, 0, Time_signature, 3, 2, 24, 8
1, 4608, Tempo, 171428
1, 24384, Tempo, 181268
1, 24576, Tempo, 248962
1, 24768, Tempo, 317460
1, 24960, Tempo, 227272
1, 25152, Tempo, 212765
1, 25344, Tempo, 208333
1, 26112, Tempo, 242914
1, 26496, Tempo, 232558
1, 26688, Tempo, 171428
1, 26880, Tempo, 256410
1, 27072, Tempo, 171428
1, 27264, Tempo, 196721
1, 27456, Tempo, 215827
1, 27648, Tempo, 171428
1, 28032, Tempo, 186335
1, 28416, Tempo, 178041
1, 28608, Tempo, 223048
1, 28800, Tempo, 180180
1, 29184, Tempo, 229007
1, 29376, Tempo, 176991
1, 29568, Tempo, 157068
1, 29760, Tempo, 176991
1, 29952, Tempo, 248962
1, 30144, Tempo, 189873
1, 30528, Tempo, 208333
1, 30720, Tempo, 204081
1, 31104, Tempo, 257510
1, 31296, Tempo, 224719
1, 31680, Tempo, 327868
1, 31872, Tempo, 257510
1, 32064, Tempo, 428571
1, 32256, Tempo, 310880
1, 32640, Tempo, 375000
1, 32832, Tempo, 297029
1, 33984, Tempo, 224719
1, 34176, Tempo, 214285
1, 34368, Tempo, 257510
1, 34560, Tempo, 185758
1, 35136, Tempo, 731707
1, 35184, Tempo, 233463
1, 36288, Tempo, 266666
1, 36480, Tempo, 200000
1, 36672, Tempo, 625000
1, 36864, Tempo, 263157
1, 38016, Tempo, 405405
1, 38592, Time_signature, 1, 2, 24, 8
1, 38784, Tempo, 171428
1, 38784, Time_signature, 3, 2, 24, 8
1, 66432, Tempo, 226415
1, 66720, Tempo, 211267
1, 67008, Tempo, 196721
1, 67296, Tempo, 181268
1, 67584, Tempo, 241935
1, 67872, Tempo, 211267
1, 68160, Tempo, 256410
1, 68448, Tempo, 241935
1, 68736, Tempo, 226415
1, 69024, Tempo, 211267
1, 69312, Tempo, 196721
1, 69600, Tempo, 181268
1, 69888, Tempo, 241935
1, 70176, Tempo, 211267
1, 70464, Tempo, 256410
1, 70752, Tempo, 241935
1, 71040, Tempo, 171428
1, 90816, Tempo, 181268
1, 91008, Tempo, 248962
1, 91200, Tempo, 317460
1, 91392, Tempo, 227272
1, 91584, Tempo, 212765
1, 91776, Tempo, 208333
1, 92544, Tempo, 242914
1, 92928, Tempo, 232558
1, 93120, Tempo, 171428
1, 93312, Tempo, 256410
1, 93504, Tempo, 171428
1, 93696, Tempo, 196721
1, 93888, Tempo, 215827
1, 94080, Tempo, 171428
1, 94464, Tempo, 186335
1, 94848, Tempo, 178041
1, 95040, Tempo, 223048
1, 95232, Tempo, 180180
1, 95616, Tempo, 229007
1, 95808, Tempo, 176991
1, 96000, Tempo, 157068
1, 96192, Tempo, 176991
1, 96384, Tempo, 248962
1, 96576, Tempo, 189873
1, 96960, Tempo, 208333
1, 97152, Tempo, 204081
1, 97536, Tempo, 257510
1, 97728, Tempo, 224719
1, 98112, Tempo, 327868
1, 98304, Tempo, 257510
1, 98496, Tempo, 428571
1, 98688, Tempo, 310880
1, 99072, Tempo, 375000
1, 99264, Tempo, 297029
1, 100416, Tempo, 224719
1, 100608, Tempo, 214285
1, 100800, Tempo, 257510
1, 100992, Tempo, 185758
1, 101568, Tempo, 731707
1, 101616, Tempo, 233463
1, 102720, Tempo, 266666
1, 102912, Tempo, 200000
1, 103104, Tempo, 625000
1, 103296, Tempo, 263157
1, 104448, Tempo, 405405
1, 105024, Time_signature, 1, 2, 24, 8
1, 105216, Tempo, 171428
1, 105216, Time_signature, 3, 2, 24, 8
1, 132864, Tempo, 226415
1, 133152, Tempo, 211267
1, 133440, Tempo, 196721
1, 133728, Tempo, 181268
1, 134016, Tempo, 241935
1, 134304, Tempo, 211267
1, 134592, Tempo, 256410
1, 134880, Tempo, 241935
1, 135168, Tempo, 226415
1, 135456, Tempo, 211267
1, 135744, Tempo, 196721
1, 136032, Tempo, 181268
1, 136320, Tempo, 241935
1, 136608, Tempo, 211267
1, 136896, Tempo, 256410
1, 137184, Tempo, 241935
1, 137472, Tempo, 171428
1, 157248, Tempo, 181268
1, 157440, Tempo, 248962
1, 157632, Tempo, 317460
1, 157824, Tempo, 227272
1, 158016, Tempo, 212765
1, 158208, Tempo, 208333
1, 158976, Tempo, 242914
1, 159360, Tempo, 232558
1, 159552, Tempo, 171428
1, 159744, Tempo, 256410
1, 159936, Tempo, 171428
1, 160128, Tempo, 196721
1, 160320, Tempo, 215827
1, 160512, Tempo, 171428
1, 160896, Tempo, 186335
1, 161280, Tempo, 178041
1, 161472, Tempo, 223048
1, 161664, Tempo, 180180
1, 162048, Tempo, 229007
1, 162240, Tempo, 176991
1, 162432, Tempo, 157068
1, 162624, Tempo, 176991
1, 162816, Tempo, 248962
1, 163008, Tempo, 189873
1, 163392, Tempo, 208333
1, 163584, Tempo, 204081
1, 163968, Tempo, 257510
1, 164160, Tempo, 224719
1, 164544, Tempo, 327868
1, 164736, Tempo, 257510
1, 164928, Tempo, 428571
1, 165120, Tempo, 310880
1, 165504, Tempo, 375000
1, 165696, Tempo, 218978
1, 166848, Tempo, 248962
1, 167232, Tempo, 295566
1, 167424, Tempo, 218978
1, 168000, Tempo, 1000000
1, 168048, Tempo, 240963
1, 169152, Tempo, 248962
1, 169536, Tempo, 295566
1, 169728, Tempo, 218978
1, 170304, Tempo, 722891
1, 170352, Tempo, 280373
1, 170880, Tempo, 196721
1, 171456, Tempo, 1621621
1, 171504, Tempo, 331491
1, 172032, Tempo, 241935
1, 172608, Tempo, 2400000
1, 172656, Tempo, 468750
1, 173184, Tempo, 324324
1, 173760, Tempo, 2400000
1, 173808, Tempo, 967741
1, 174336, Tempo, 681818
1, 174336, Key_signature, 5, "major"
1, 174528, Tempo, 638297
1, 174720, Tempo, 566037
1, 174912, Tempo, 612244
1, 175104, Tempo, 545454
1, 175296, Tempo, 612244
1, 175488, Tempo, 588235
1, 176064, Tempo, 545454
1, 176256, Tempo, 612244
1, 176448, Tempo, 566037
1, 176640, Tempo, 588235
1, 176832, Tempo, 566037
1, 177408, Tempo, 545454
1, 177600, Tempo, 638297
1, 177792, Tempo, 588235
1, 178176, Tempo, 681818
1, 178368, Tempo, 545454
1, 178560, Tempo, 659340
1, 178944, Tempo, 571428
1, 179136, Tempo, 545454
1, 179328, Tempo, 571428
1, 179520, Tempo, 545454
1, 179712, Tempo, 571428
1, 180288, Tempo, 545454
1, 180480, Tempo, 625000
1, 180672, Tempo, 571428
1, 180864, Tempo, 545454
1, 181248, Tempo, 600000
1, 181824, Tempo, 571428
1, 182016, Tempo, 652173
1, 182208, Tempo, 731707
1, 182400, Tempo, 759493
1, 182688, Tempo, 1090909
1, 182784, Tempo, 705882
1, 182976, Tempo, 740740
1, 183360, Tempo, 500000
1, 183744, Tempo, 566037
1, 184032, Tempo, 1034482
1, 184128, Tempo, 512820
1, 184512, Tempo, 697674
1, 184704, Tempo, 566037
1, 184896, Tempo, 500000
1, 185184, Tempo, 769230
1, 185232, Tempo, 606060
1, 185280, Tempo, 545454
1, 185664, Tempo, 500000
1, 185760, Tempo, 454545
1, 185856, Tempo, 500000
1, 186048, Tempo, 454545
1, 186336, Tempo, 681818
1, 186432, Tempo, 437956
1, 186720, Tempo, 545454
1, 187008, Tempo, 681818
1, 187200, Tempo, 638297
1, 187248, Tempo, 1500000
1, 187296, Tempo, 545454
1, 187488, Tempo, 857142
1, 187584, Tempo, 500000
1, 187968, Tempo, 408163
1, 188160, Tempo, 545454
1, 188208, Tempo, 582524
1, 188448, Tempo, 361445
1, 188544, Tempo, 500000
1, 188736, Tempo, 500000
1, 189696, Tempo, 431654
1, 189888, Tempo, 483870
1, 190176, Tempo, 588235
1, 190272, Tempo, 566037
1, 190464, Tempo, 483870
1, 191040, Tempo, 472440
1, 191328, Tempo, 697674
1, 191424, Tempo, 576923
1, 192192, Tempo, 705882
1, 192576, Tempo, 1034482
1, 192768, Tempo, 681818
1, 192960, Tempo, 638297
1, 193152, Tempo, 566037
1, 193344, Tempo, 612244
1, 193536, Tempo, 545454
1, 193728, Tempo, 612244
1, 193920, Tempo, 588235
1, 194496, Tempo, 545454
1, 194688, Tempo, 612244
1, 194880, Tempo, 566037
1, 195072, Tempo, 588235
1, 195264, Tempo, 566037
1, 195840, Tempo, 545454
1, 196032, Tempo, 638297
1, 196224, Tempo, 588235
1, 196608, Tempo, 681818
1, 196800, Tempo, 545454
1, 196992, Tempo, 659340
1, 197376, Tempo, 571428
1, 197568, Tempo, 545454
1, 197760, Tempo, 571428
1, 197952, Tempo, 545454
1, 198144, Tempo, 571428
1, 198720, Tempo, 545454
1, 198912, Tempo, 625000
1, 199104, Tempo, 571428
1, 199296, Tempo, 545454
1, 199680, Tempo, 600000
1, 200256, Tempo, 571428
1, 200448, Tempo, 652173
1, 200640, Tempo, 731707
1, 200832, Tempo, 759493
1, 201120, Tempo, 1090909
1, 201216, Tempo, 705882
1, 201408, Tempo, 740740
1, 201792, Tempo, 500000
1, 202176, Tempo, 566037
1, 202464, Tempo, 1034482
1, 202560, Tempo, 512820
1, 202944, Tempo, 697674
1, 203136, Tempo, 566037
1, 203328, Tempo, 500000
1, 203616, Tempo, 769230
1, 203664, Tempo, 606060
1, 203712, Tempo, 545454
1, 204096, Tempo, 500000
1, 204192, Tempo, 454545
1, 204288, Tempo, 500000
1, 204480, Tempo, 454545
1, 204768, Tempo, 681818
1, 204864, Tempo, 437956
1, 205152, Tempo, 545454
1, 205440, Tempo, 681818
1, 205632, Tempo, 638297
1, 205680, Tempo, 1500000
1, 205728, Tempo, 545454
1, 205920, Tempo, 857142
1, 206016, Tempo, 500000
1, 206400, Tempo, 408163
1, 206592, Tempo, 545454
1, 206640, Tempo, 582524
1, 206880, Tempo, 361445
1, 206976, Tempo, 500000
1, 207168, Tempo, 500000
1, 208128, Tempo, 431654
1, 208320, Tempo, 483870
1, 208608, Tempo, 588235
1, 208704, Tempo, 566037
1, 208896, Tempo, 483870
1, 209472, Tempo, 472440
1, 209760, Tempo, 697674
1, 209856, Tempo, 576923
1, 210624, Tempo, 705882
1, 211008, Tempo, 1034482
1, 211200, Tempo, 681818
1, 211392, Tempo, 638297
1, 211584, Tempo, 566037
1, 211776, Tempo, 612244
1, 211968, Tempo, 545454
1, 212160, Tempo, 612244
1, 212352, Tempo, 588235
1, 212928, Tempo, 545454
1, 213120, Tempo, 612244
1, 213312, Tempo, 566037
1, 213504, Tempo, 588235
1, 213696, Tempo, 566037
1, 214272, Tempo, 545454
1, 214464, Tempo, 638297
1, 214656, Tempo, 588235
1, 215040, Tempo, 681818
1, 215232, Tempo, 545454
1, 215424, Tempo, 659340
1, 215808, Tempo, 571428
1, 216000, Tempo, 545454
1, 216192, Tempo, 571428
1, 216384, Tempo, 545454
1, 216576, Tempo, 571428
1, 217152, Tempo, 545454
1, 217344, Tempo, 625000
1, 217536, Tempo, 571428
1, 217728, Tempo, 545454
1, 218112, Tempo, 722891
1, 218304, Tempo, 638297
1, 218496, Tempo, 1000000
1, 218688, Tempo, 869565
1, 218880, Tempo, 705882
1, 219072, Tempo, 789473
1, 219264, Tempo, 810810
1, 219456, Tempo, 833333
1, 219648, Tempo, 789473
1, 219840, Tempo, 810810
1, 220032, Tempo, 1000000
1, 220224, Tempo, 967741
1, 220416, Tempo, 833333
1, 220992, Tempo, 769230
1, 221280, Tempo, 1224489
1, 221376, Tempo, 1000000
1, 221568, Tempo, 2142857
1, 221760, Tempo, 833333
1, 221952, Tempo, 769230
1, 222144, Tempo, 923076
1, 222336, Tempo, 1463414
1, 222432, Tempo, 2857142
1, 222528, Tempo, 1578947
1, 222720, Tempo, 171428
1, 222720, Key_signature, 2, "major"
1, 242496, Tempo, 181268
1, 242688, Tempo, 248962
1, 242880, Tempo, 317460
1, 243072, Tempo, 227272
1, 243264, Tempo, 212765
1, 243456, Tempo, 208333
1, 244224, Tempo, 242914
1, 244608, Tempo, 232558
1, 244800, Tempo, 171428
1, 244992, Tempo, 256410
1, 245184, Tempo, 171428
1, 245376, Tempo, 196721
1, 245568, Tempo, 215827
1, 245760, Tempo, 171428
1, 246144, Tempo, 186335
1, 246528, Tempo, 178041
1, 246720, Tempo, 223048
1, 246912, Tempo, 180180
1, 247296, Tempo, 229007
1, 247488, Tempo, 176991
1, 247680, Tempo, 157068
1, 247872, Tempo, 176991
1, 248064, Tempo, 248962
1, 248256, Tempo, 189873
1, 248640, Tempo, 208333
1, 248832, Tempo, 204081
1, 249216, Tempo, 257510
1, 249408, Tempo, 224719
1, 249792, Tempo, 327868
1, 249984, Tempo, 257510
1, 250176, Tempo, 428571
1, 250368, Tempo, 310880
1, 250752, Tempo, 375000
1, 250944, Tempo, 297029
1, 252096, Tempo, 224719
1, 252288, Tempo, 214285
1, 252480, Tempo, 257510
1, 252672, Tempo, 185758
1, 253248, Tempo, 731707
1, 253296, Tempo, 233463
1, 254400, Tempo, 266666
1, 254592, Tempo, 200000
1, 254784, Tempo, 625000
1, 254976, Tempo, 263157
1, 256128, Tempo, 405405
1, 256704, Time_signature, 1, 2, 24, 8
1, 256896, Tempo, 171428
1, 256896, Time_signature, 3, 2, 24, 8
1, 284544, Tempo, 226415
1, 284832, Tempo, 211267
1, 285120, Tempo, 196721
1, 285408, Tempo, 181268
1, 285696, Tempo, 241935
1, 285984, Tempo, 211267
1, 286272, Tempo, 256410
1, 286560, Tempo, 241935
1, 286848, Tempo, 226415
1, 287136, Tempo, 211267
1, 287424, Tempo, 196721
1, 287712, Tempo, 181268
1, 288000, Tempo, 241935
1, 288288, Tempo, 211267
1, 288576, Tempo, 256410
1, 288864, Tempo, 241935
1, 289152, Tempo, 171428
1, 308928, Tempo, 200000
1, 309120, Tempo, 267857
1, 309504, Tempo, 200000
1, 309696, Tempo, 219780
1, 309888, Tempo, 176470
1, 310656, Tempo, 239043
1, 310848, Tempo, 335195
1, 311040, Tempo, 315789
1, 311424, Tempo, 276497
1, 311616, Tempo, 219780
1, 311808, Tempo, 171428
1, 312576, Tempo, 239043
1, 312768, Tempo, 181818
1, 312960, Tempo, 219780
1, 313344, Tempo, 220588
1, 313920, Tempo, 181268
1, 314112, Tempo, 171428
1, 314304, Tempo, 218181
1, 314496, Tempo, 287081
1, 314688, Tempo, 184049
1, 315072, Tempo, 208333
1, 315264, Tempo, 204081
1, 315648, Tempo, 229885
1, 316224, Tempo, 340909
1, 316416, Tempo, 218181
1, 316608, Tempo, 368098
1, 316800, Tempo, 235294
1, 317184, Tempo, 461538
1, 317376, Tempo, 197368
1, 318528, Tempo, 240963
1, 318720, Tempo, 160857
1, 318912, Tempo, 171428
1, 319104, Tempo, 178041
1, 319488, Tempo, 253164
1, 319680, Tempo, 168539
1, 320832, Tempo, 206896
1, 321024, Tempo, 160857
1, 321216, Tempo, 137931
1, 321408, Tempo, 178041
1, 321792, Tempo, 184049
1, 321984, Tempo, 160857
1, 322944, Tempo, 206896
1, 323136, Tempo, 153452
1, 324288, Tempo, 187500
1, 324864, Tempo, 218181
1, 325440, Tempo, 233463
1, 326016, Tempo, 166666
1, 340416, Tempo, 181268
1, 341184, Tempo, 309278
1, 341376, Tempo, 200000
1, 341568, Tempo, 133037
1, 341760, Tempo, 141843
1, 341952, Tempo, 155038
1, 342144, Tempo, 151133
1, 342720, Tempo, 155038
1, 343296, Tempo, 151133
1, 343872, Tempo, 155038
1, 344448, Tempo, 166666
1, 355968, Tempo, 260869
1, 356544, Time_signature, 1, 2, 24, 8
1, 356736, Tempo, 260869
1, 356736, Time_signature, 3, 2, 24, 8
1, 357888, Tempo, 2000000
1, 357888, End_track
2, 0, Start_track
2, 0, Title_t, "Pianoforte"
2, 0, MIDI_port, 0
2, 0, Program_c, 0, 0
2, 0, Control_c, 0, 7, 127
2, 0, Control_c, 0, 10, 64
2, 0, Control_c, 0, 91, 64
2, 0, Note_on_c, 0, 83, 127
2, 0, Note_on_c, 0, 88, 123
2, 0, Note_on_c, 0, 95, 127
2, 0, Note_on_c, 0, 67, 122
2, 0, Note_on_c, 0, 76, 127
2, 0, Note_on_c, 0, 73, 127
2, 0, Note_on_c, 0, 79, 127
2, 2256, Note_on_c, 0, 83, 0
2, 2256, Note_on_c, 0, 88, 0
2, 2256, Note_on_c, 0, 95, 0
2, 2256, Note_on_c, 0, 67, 0
2, 2256, Note_on_c, 0, 76, 0
2, 2256, Note_on_c, 0, 73, 0
2, 2256, Note_on_c, 0, 79, 0
2, 2304, Note_on_c, 0, 64, 127
2, 2304, Note_on_c, 0, 61, 123
2, 2304, Note_on_c, 0, 54, 127
2, 2304, Note_on_c, 0, 46, 127
2, 2304, Note_on_c, 0, 34, 127
2, 2304, Note_on_c, 0, 66, 123
2, 4560, Note_on_c, 0, 64, 0
2, 4560, Note_on_c, 0, 61, 0
2, 4560, Note_on_c, 0, 54, 0
2, 4560, Note_on_c, 0, 46, 0
2, 4560, Note_on_c, 0, 34, 0
2, 4560, Note_on_c, 0, 66, 0
2, 4608, Note_on_c, 0, 41, 59
2, 4608, Note_on_c, 0, 50, 64
2, 4704, Note_on_c, 0, 41, 0
2, 4704, Note_on_c, 0, 50, 0
2, 4704, Note_on_c, 0, 42, 46
2, 4800, Note_on_c, 0, 42, 0
2, 4800, Note_on_c, 0, 36, 43
2, 4894, Note_on_c, 0, 36, 0
2, 4896, Note_on_c, 0, 53, 73
2, 4992, Note_on_c, 0, 53, 0
2, 4992, Note_on_c, 0, 54, 75
2, 5088, Note_on_c, 0, 54, 0
2, 5088, Note_on_c, 0, 59, 85
2, 5184, Note_on_c, 0, 59, 0
2, 5184, Note_on_c, 0, 55, 62
2, 5184, Note_on_c, 0, 52, 68
2, 5184, Note_on_c, 0, 62, 86
2, 5280, Note_on_c, 0, 62, 0
2, 5280, Note_on_c, 0, 58, 84
2, 5376, Note_on_c, 0, 55, 0
2, 5376, Note_on_c, 0, 52, 0
2, 5376, Note_on_c, 0, 58, 0
2, 5376, Note_on_c, 0, 50, 42
2, 5376, Note_on_c, 0, 54, 48
2, 5376, Note_on_c, 0, 61, 97
2, 5472, Note_on_c, 0, 61, 0
2, 5472, Note_on_c, 0, 59, 95
2, 5536, Note_on_c, 0, 50, 0
2, 5536, Note_on_c, 0, 54, 0
2, 5568, Note_on_c, 0, 59, 0
2, 5568, Note_on_c, 0, 62, 99
2, 5664, Note_on_c, 0, 62, 0
2, 5664, Note_on_c, 0, 66, 108
2, 5760, Note_on_c, 0, 66, 0
2, 5760, Note_on_c, 0, 50, 64
2, 5760, Note_on_c, 0, 41, 65
2, 5760, Note_on_c, 0, 71, 108
2, 5854, Note_on_c, 0, 71, 0
2, 5856, Note_on_c, 0, 50, 0
2, 5856, Note_on_c, 0, 41, 0
2, 5856, Note_on_c, 0, 42, 50
2, 5952, Note_on_c, 0, 42, 0
2, 5952, Note_on_c, 0, 36, 49
2, 6046, Note_on_c, 0, 36, 0
2, 6048, Note_on_c, 0, 53, 69
2, 6144, Note_on_c, 0, 53, 0
2, 6144, Note_on_c, 0, 54, 70
2, 6240, Note_on_c, 0, 54, 0
2, 6240, Note_on_c, 0, 59, 77
2, 6336, Note_on_c, 0, 59, 0
2, 6336, Note_on_c, 0, 55, 66
2, 6336, Note_on_c, 0, 52, 59
2, 6336, Note_on_c, 0, 62, 85
2, 6432, Note_on_c, 0, 62, 0
2, 6432, Note_on_c, 0, 58, 81
2, 6528, Note_on_c, 0, 55, 0
2, 6528, Note_on_c, 0, 52, 0
2, 6528, Note_on_c, 0, 58, 0
2, 6528, Note_on_c, 0, 54, 45
2, 6528, Note_on_c, 0, 61, 88
2, 6528, Note_on_c, 0, 50, 42
2, 6624, Note_on_c, 0, 61, 0
2, 6624, Note_on_c, 0, 59, 89
2, 6688, Note_on_c, 0, 54, 0
2, 6688, Note_on_c, 0, 50, 0
2, 6720, Note_on_c, 0, 59, 0
2, 6720, Note_on_c, 0, 62, 98
2, 6816, Note_on_c, 0, 62, 0
2, 6816, Note_on_c, 0, 66, 105
2, 6912, Note_on_c, 0, 66, 0
2, 6912, Note_on_c, 0, 47, 97
2, 6912, Note_on_c, 0, 74, 112
2, 6960, Note_on_c, 0, 47, 0
2, 7006, Note_on_c, 0, 74, 0
2, 7104, Note_on_c, 0, 76, 62
2, 7200, Note_on_c, 0, 76, 0
2, 7200, Note_on_c, 0, 70, 58
2, 7296, Note_on_c, 0, 70, 0
2, 7296, Note_on_c, 0, 74, 69
2, 7392, Note_on_c, 0, 74, 0
2, 7392, Note_on_c, 0, 71, 64
2, 7488, Note_on_c, 0, 71, 0
2, 7488, Note_on_c, 0, 62, 47
2, 7488, Note_on_c, 0, 54, 49
2, 7488, Note_on_c, 0, 79, 75
2, 7536, Note_on_c, 0, 62, 0
2, 7536, Note_on_c, 0, 54, 0
2, 7584, Note_on_c, 0, 79, 0
2, 7584, Note_on_c, 0, 73, 76
2, 7680, Note_on_c, 0, 73, 0
2, 7680, Note_on_c, 0, 47, 49
2, 7680, Note_on_c, 0, 78, 73
2, 7728, Note_on_c, 0, 47, 0
2, 7776, Note_on_c, 0, 78, 0
2, 7776, Note_on_c, 0, 74, 86
2, 7872, Note_on_c, 0, 74, 0
2, 7872, Note_on_c, 0, 85, 84
2, 7872, Note_on_c, 0, 62, 54
2, 7872, Note_on_c, 0, 54, 58
2, 7920, Note_on_c, 0, 62, 0
2, 7920, Note_on_c, 0, 54, 0
2, 7968, Note_on_c, 0, 85, 0
2, 7968, Note_on_c, 0, 77, 85
2, 8064, Note_on_c, 0, 77, 0
2, 8064, Note_on_c, 0, 83, 85
2, 8064, Note_on_c, 0, 47, 59
2, 8112, Note_on_c, 0, 47, 0
2, 8160, Note_on_c, 0, 83, 0
2, 8160, Note_on_c, 0, 78, 91
2, 8256, Note_on_c, 0, 78, 0
2, 8256, Note_on_c, 0, 88, 98
2, 8256, Note_on_c, 0, 54, 60
2, 8256, Note_on_c, 0, 62, 62
2, 8304, Note_on_c, 0, 54, 0
2, 8304, Note_on_c, 0, 62, 0
2, 8352, Note_on_c, 0, 88, 0
2, 8352, Note_on_c, 0, 82, 98
2, 8448, Note_on_c, 0, 82, 0
2, 8448, Note_on_c, 0, 47, 67
2, 8448, Note_on_c, 0, 86, 97
2, 8496, Note_on_c, 0, 47, 0
2, 8544, Note_on_c, 0, 86, 0
2, 8544, Note_on_c, 0, 83, 107
2, 8640, Note_on_c, 0, 83, 0
2, 8640, Note_on_c, 0, 95, 105
2, 8640, Note_on_c, 0, 54, 72
2, 8640, Note_on_c, 0, 62, 73
2, 8688, Note_on_c, 0, 95, 0
2, 8688, Note_on_c, 0, 54, 0
2, 8688, Note_on_c, 0, 62, 0
2, 9216, Note_on_c, 0, 42, 64
2, 9216, Note_on_c, 0, 52, 61
2, 9312, Note_on_c, 0, 42, 0
2, 9312, Note_on_c, 0, 52, 0
2, 9312, Note_on_c, 0, 43, 49
2, 9408, Note_on_c, 0, 43, 0
2, 9408, Note_on_c, 0, 35, 42
2, 9502, Note_on_c, 0, 35, 0
2, 9504, Note_on_c, 0, 58, 61
2, 9600, Note_on_c, 0, 58, 0
2, 9600, Note_on_c, 0, 59, 72
2, 9696, Note_on_c, 0, 59, 0
2, 9696, Note_on_c, 0, 64, 76
2, 9792, Note_on_c, 0, 64, 0
2, 9792, Note_on_c, 0, 57, 68
2, 9792, Note_on_c, 0, 60, 65
2, 9792, Note_on_c, 0, 67, 80
2, 9888, Note_on_c, 0, 67, 0
2, 9888, Note_on_c, 0, 63, 88
2, 9984, Note_on_c, 0, 57, 0
2, 9984, Note_on_c, 0, 60, 0
2, 9984, Note_on_c, 0, 63, 0
2, 9984, Note_on_c, 0, 66, 87
2, 9984, Note_on_c, 0, 55, 46
2, 9984, Note_on_c, 0, 59, 45
2, 10080, Note_on_c, 0, 66, 0
2, 10080, Note_on_c, 0, 64, 91
2, 10144, Note_on_c, 0, 55, 0
2, 10144, Note_on_c, 0, 59, 0
2, 10176, Note_on_c, 0, 64, 0
2, 10176, Note_on_c, 0, 67, 95
2, 10272, Note_on_c, 0, 67, 0
2, 10272, Note_on_c, 0, 71, 105
2, 10368, Note_on_c, 0, 71, 0
2, 10368, Note_on_c, 0, 42, 68
2, 10368, Note_on_c, 0, 52, 62
2, 10368, Note_on_c, 0, 76, 104
2, 10400, Note_on_c, 0, 76, 0
2, 10464, Note_on_c, 0, 42, 0
2, 10464, Note_on_c, 0, 52, 0
2, 10464, Note_on_c, 0, 43, 47
2, 10560, Note_on_c, 0, 43, 0
2, 10560, Note_on_c, 0, 35, 46
2, 10654, Note_on_c, 0, 35, 0
2, 10656, Note_on_c, 0, 58, 64
2, 10752, Note_on_c, 0, 58, 0
2, 10752, Note_on_c, 0, 59, 68
2, 10848, Note_on_c, 0, 59, 0
2, 10848, Note_on_c, 0, 64, 72
2, 10944, Note_on_c, 0, 64, 0
2, 10944, Note_on_c, 0, 60, 64
2, 10944, Note_on_c, 0, 57, 68
2, 10944, Note_on_c, 0, 67, 82
2, 11040, Note_on_c, 0, 67, 0
2, 11040, Note_on_c, 0, 63, 88
2, 11136, Note_on_c, 0, 60, 0
2, 11136, Note_on_c, 0, 57, 0
2, 11136, Note_on_c, 0, 63, 0
2, 11136, Note_on_c, 0, 59, 43
2, 11136, Note_on_c, 0, 55, 47
2, 11136, Note_on_c, 0, 66, 92
2, 11232, Note_on_c, 0, 66, 0
2, 11232, Note_on_c, 0, 64, 89
2, 11296, Note_on_c, 0, 59, 0
2, 11296, Note_on_c, 0, 55, 0
2, 11328, Note_on_c, 0, 64, 0
2, 11328, Note_on_c, 0, 67, 101
2, 11424, Note_on_c, 0, 67, 0
2, 11424, Note_on_c, 0, 71, 105
2, 11520, Note_on_c, 0, 71, 0
2, 11520, Note_on_c, 0, 47, 43
2, 11520, Note_on_c, 0, 79, 112
2, 11568, Note_on_c, 0, 47, 0
2, 11614, Note_on_c, 0, 79, 0
2, 11712, Note_on_c, 0, 78, 59
2, 11808, Note_on_c, 0, 78, 0
2, 11808, Note_on_c, 0, 70, 58
2, 11904, Note_on_c, 0, 70, 0
2, 11904, Note_on_c, 0, 76, 69
2, 12000, Note_on_c, 0, 76, 0
2, 12000, Note_on_c, 0, 71, 70
2, 12096, Note_on_c, 0, 71, 0
2, 12096, Note_on_c, 0, 55, 52
2, 12096, Note_on_c, 0, 64, 51
2, 12096, Note_on_c, 0, 81, 75
2, 12144, Note_on_c, 0, 55, 0
2, 12144, Note_on_c, 0, 64, 0
2, 12192, Note_on_c, 0, 81, 0
2, 12192, Note_on_c, 0, 75, 78
2, 12288, Note_on_c, 0, 75, 0
2, 12288, Note_on_c, 0, 79, 74
2, 12288, Note_on_c, 0, 47, 63
2, 12336, Note_on_c, 0, 47, 0
2, 12384, Note_on_c, 0, 79, 0
2, 12384, Note_on_c, 0, 76, 85
2, 12480, Note_on_c, 0, 76, 0
2, 12480, Note_on_c, 0, 55, 72
2, 12480, Note_on_c, 0, 84, 89
2, 12480, Note_on_c, 0, 64, 65
2, 12528, Note_on_c, 0, 55, 0
2, 12528, Note_on_c, 0, 64, 0
2, 12576, Note_on_c, 0, 84, 0
2, 12576, Note_on_c, 0, 78, 91
2, 12672, Note_on_c, 0, 78, 0
2, 12672, Note_on_c, 0, 47, 78
2, 12672, Note_on_c, 0, 83, 90
2, 12720, Note_on_c, 0, 47, 0
2, 12768, Note_on_c, 0, 83, 0
2, 12768, Note_on_c, 0, 79, 91
2, 12864, Note_on_c, 0, 79, 0
2, 12864, Note_on_c, 0, 64, 80
2, 12864, Note_on_c, 0, 90, 98
2, 12864, Note_on_c, 0, 55, 77
2, 12912, Note_on_c, 0, 64, 0
2, 12912, Note_on_c, 0, 55, 0
2, 12960, Note_on_c, 0, 90, 0
2, 12960, Note_on_c, 0, 82, 102
2, 13056, Note_on_c, 0, 82, 0
2, 13056, Note_on_c, 0, 47, 82
2, 13056, Note_on_c, 0, 88, 101
2, 13104, Note_on_c, 0, 47, 0
2, 13152, Note_on_c, 0, 88, 0
2, 13152, Note_on_c, 0, 83, 101
2, 13248, Note_on_c, 0, 83, 0
2, 13248, Note_on_c, 0, 55, 92
2, 13248, Note_on_c, 0, 64, 93
2, 13248, Note_on_c, 0, 100, 105
2, 13296, Note_on_c, 0, 55, 0
2, 13296, Note_on_c, 0, 64, 0
2, 13408, Note_on_c, 0, 100, 0
2, 13824, Note_on_c, 0, 73, 73
2, 13824, Note_on_c, 0, 76, 77
2, 13824, Note_on_c, 0, 70, 76
2, 13824, Note_on_c, 0, 90, 112
2, 13824, Note_on_c, 0, 78, 97
2, 13984, Note_on_c, 0, 78, 0
2, 14016, Note_on_c, 0, 90, 0
2, 14016, Note_on_c, 0, 91, 110
2, 14016, Note_on_c, 0, 79, 93
2, 14112, Note_on_c, 0, 91, 0
2, 14112, Note_on_c, 0, 90, 106
2, 14208, Note_on_c, 0, 90, 0
2, 14208, Note_on_c, 0, 89, 103
2, 14304, Note_on_c, 0, 89, 0
2, 14304, Note_on_c, 0, 88, 112
2, 14400, Note_on_c, 0, 73, 0
2, 14400, Note_on_c, 0, 76, 0
2, 14400, Note_on_c, 0, 70, 0
2, 14400, Note_on_c, 0, 88, 0
2, 14400, Note_on_c, 0, 88, 112
2, 14400, Note_on_c, 0, 71, 79
2, 14400, Note_on_c, 0, 74, 75
2, 14496, Note_on_c, 0, 88, 0
2, 14496, Note_on_c, 0, 86, 105
2, 14560, Note_on_c, 0, 79, 0
2, 14560, Note_on_c, 0, 71, 0
2, 14560, Note_on_c, 0, 74, 0
2, 14592, Note_on_c, 0, 86, 0
2, 14592, Note_on_c, 0, 54, 73
2, 14592, Note_on_c, 0, 85, 109
2, 14592, Note_on_c, 0, 66, 80
2, 14688, Note_on_c, 0, 85, 0
2, 14688, Note_on_c, 0, 83, 103
2, 14752, Note_on_c, 0, 54, 0
2, 14752, Note_on_c, 0, 66, 0
2, 14784, Note_on_c, 0, 83, 0
2, 14784, Note_on_c, 0, 81, 111
2, 14880, Note_on_c, 0, 81, 0
2, 14880, Note_on_c, 0, 79, 103
2, 14976, Note_on_c, 0, 79, 0
2, 14976, Note_on_c, 0, 78, 113
2, 14976, Note_on_c, 0, 69, 75
2, 14976, Note_on_c, 0, 73, 73
2, 15024, Note_on_c, 0, 69, 0
2, 15024, Note_on_c, 0, 73, 0
2, 15072, Note_on_c, 0, 78, 0
2, 15072, Note_on_c, 0, 79, 109
2, 15168, Note_on_c, 0, 79, 0
2, 15168, Note_on_c, 0, 77, 107
2, 15168, Note_on_c, 0, 54, 70
2, 15216, Note_on_c, 0, 54, 0
2, 15264, Note_on_c, 0, 77, 0
2, 15264, Note_on_c, 0, 78, 103
2, 15360, Note_on_c, 0, 78, 0
2, 15360, Note_on_c, 0, 83, 98
2, 15360, Note_on_c, 0, 67, 73
2, 15360, Note_on_c, 0, 71, 73
2, 15408, Note_on_c, 0, 67, 0
2, 15408, Note_on_c, 0, 71, 0
2, 15456, Note_on_c, 0, 83, 0
2, 15456, Note_on_c, 0, 76, 94
2, 15552, Note_on_c, 0, 76, 0
2, 15552, Note_on_c, 0, 74, 97
2, 15552, Note_on_c, 0, 69, 78
2, 15552, Note_on_c, 0, 66, 70
2, 15600, Note_on_c, 0, 69, 0
2, 15600, Note_on_c, 0, 66, 0
2, 15648, Note_on_c, 0, 74, 0
2, 15648, Note_on_c, 0, 76, 93
2, 15744, Note_on_c, 0, 76, 0
2, 15744, Note_on_c, 0, 54, 74
2, 15744, Note_on_c, 0, 73, 85
2, 15792, Note_on_c, 0, 54, 0
2, 15840, Note_on_c, 0, 73, 0
2, 15840, Note_on_c, 0, 74, 85
2, 15936, Note_on_c, 0, 74, 0
2, 15936, Note_on_c, 0, 64, 63
2, 15936, Note_on_c, 0, 67, 79
2, 15936, Note_on_c, 0, 79, 86
2, 16032, Note_on_c, 0, 79, 0
2, 16032, Note_on_c, 0, 71, 73
2, 16096, Note_on_c, 0, 64, 0
2, 16126, Note_on_c, 0, 71, 0
2, 16128, Note_on_c, 0, 70, 80
2, 16128, Note_on_c, 0, 61, 64
2, 16224, Note_on_c, 0, 70, 0
2, 16224, Note_on_c, 0, 76, 80
2, 16288, Note_on_c, 0, 67, 0
2, 16320, Note_on_c, 0, 76, 0
2, 16320, Note_on_c, 0, 54, 61
2, 16320, Note_on_c, 0, 68, 70
2, 16416, Note_on_c, 0, 68, 0
2, 16416, Note_on_c, 0, 69, 73
2, 16464, Note_on_c, 0, 61, 0
2, 16512, Note_on_c, 0, 69, 0
2, 16512, Note_on_c, 0, 66, 77
2, 16512, Note_on_c, 0, 62, 77
2, 16512, Note_on_c, 0, 78, 71
2, 16608, Note_on_c, 0, 78, 0
2, 16608, Note_on_c, 0, 74, 77
2, 16672, Note_on_c, 0, 66, 0
2, 16704, Note_on_c, 0, 62, 0
2, 16704, Note_on_c, 0, 74, 0
2, 16704, Note_on_c, 0, 70, 73
2, 16704, Note_on_c, 0, 67, 72
2, 16704, Note_on_c, 0, 61, 77
2, 16800, Note_on_c, 0, 70, 0
2, 16800, Note_on_c, 0, 74, 79
2, 16864, Note_on_c, 0, 54, 0
2, 16864, Note_on_c, 0, 67, 0
2, 16896, Note_on_c, 0, 74, 0
2, 16896, Note_on_c, 0, 54, 78
2, 16896, Note_on_c, 0, 68, 74
2, 16896, Note_on_c, 0, 54, 57
2, 16992, Note_on_c, 0, 68, 0
2, 16992, Note_on_c, 0, 69, 78
2, 17040, Note_on_c, 0, 61, 0
2, 17056, Note_on_c, 0, 54, 0
2, 17088, Note_on_c, 0, 69, 0
2, 17088, Note_on_c, 0, 62, 73
2, 17088, Note_on_c, 0, 66, 75
2, 17088, Note_on_c, 0, 78, 73
2, 17184, Note_on_c, 0, 78, 0
2, 17184, Note_on_c, 0, 74, 78
2, 17248, Note_on_c, 0, 66, 0
2, 17280, Note_on_c, 0, 62, 0
2, 17280, Note_on_c, 0, 74, 0
2, 17280, Note_on_c, 0, 59, 78
2, 17280, Note_on_c, 0, 68, 72
2, 17280, Note_on_c, 0, 65, 79
2, 17376, Note_on_c, 0, 68, 0
2, 17376, Note_on_c, 0, 74, 73
2, 17440, Note_on_c, 0, 54, 0
2, 17440, Note_on_c, 0, 65, 0
2, 17472, Note_on_c, 0, 74, 0
2, 17472, Note_on_c, 0, 54, 79
2, 17472, Note_on_c, 0, 66, 80
2, 17472, Note_on_c, 0, 54, 55
2, 17568, Note_on_c, 0, 66, 0
2, 17568, Note_on_c, 0, 67, 76
2, 17616, Note_on_c, 0, 59, 0
2, 17632, Note_on_c, 0, 54, 0
2, 17664, Note_on_c, 0, 67, 0
2, 17664, Note_on_c, 0, 76, 77
2, 17664, Note_on_c, 0, 64, 76
2, 17664, Note_on_c, 0, 61, 73
2, 17760, Note_on_c, 0, 76, 0
2, 17760, Note_on_c, 0, 73, 72
2, 17824, Note_on_c, 0, 64, 0
2, 17856, Note_on_c, 0, 61, 0
2, 17856, Note_on_c, 0, 73, 0
2, 17856, Note_on_c, 0, 58, 80
2, 17856, Note_on_c, 0, 67, 73
2, 17952, Note_on_c, 0, 67, 0
2, 17952, Note_on_c, 0, 73, 70
2, 18016, Note_on_c, 0, 54, 0
2, 18048, Note_on_c, 0, 73, 0
2, 18048, Note_on_c, 0, 65, 71
2, 18048, Note_on_c, 0, 54, 57
2, 18144, Note_on_c, 0, 65, 0
2, 18144, Note_on_c, 0, 66, 73
2, 18192, Note_on_c, 0, 58, 0
2, 18240, Note_on_c, 0, 66, 0
2, 18240, Note_on_c, 0, 59, 76
2, 18240, Note_on_c, 0, 62, 79
2, 18240, Note_on_c, 0, 74, 73
2, 18336, Note_on_c, 0, 74, 0
2, 18336, Note_on_c, 0, 71, 74
2, 18400, Note_on_c, 0, 62, 0
2, 18430, Note_on_c, 0, 71, 0
2, 18432, Note_on_c, 0, 59, 0
2, 18432, Note_on_c, 0, 66, 73
2, 18432, Note_on_c, 0, 58, 62
2, 18432, Note_on_c, 0, 64, 72
2, 18526, Note_on_c, 0, 54, 0
2, 18526, Note_on_c, 0, 66, 0
2, 18526, Note_on_c, 0, 58, 0
2, 18526, Note_on_c, 0, 64, 0
2, 18624, Note_on_c, 0, 42, 73
2, 18624, Note_on_c, 0, 30, 76
2, 18624, Note_on_c, 0, 67, 94
2, 18672, Note_on_c, 0, 42, 0
2, 18672, Note_on_c, 0, 30, 0
2, 18720, Note_on_c, 0, 67, 0
2, 18720, Note_on_c, 0, 66, 90
2, 18816, Note_on_c, 0, 66, 0
2, 18816, Note_on_c, 0, 65, 94
2, 18912, Note_on_c, 0, 65, 0
2, 18912, Note_on_c, 0, 64, 91
2, 19008, Note_on_c, 0, 64, 0
2, 19008, Note_on_c, 0, 64, 93
2, 19008, Note_on_c, 0, 55, 80
2, 19008, Note_on_c, 0, 50, 75
2, 19008, Note_on_c, 0, 47, 73
2, 19056, Note_on_c, 0, 55, 0
2, 19056, Note_on_c, 0, 50, 0
2, 19056, Note_on_c, 0, 47, 0
2, 19104, Note_on_c, 0, 64, 0
2, 19104, Note_on_c, 0, 62, 93
2, 19200, Note_on_c, 0, 62, 0
2, 19200, Note_on_c, 0, 61, 88
2, 19200, Note_on_c, 0, 30, 70
2, 19200, Note_on_c, 0, 42, 73
2, 19248, Note_on_c, 0, 30, 0
2, 19248, Note_on_c, 0, 42, 0
2, 19296, Note_on_c, 0, 61, 0
2, 19296, Note_on_c, 0, 59, 88
2, 19392, Note_on_c, 0, 59, 0
2, 19392, Note_on_c, 0, 57, 92
2, 19488, Note_on_c, 0, 57, 0
2, 19488, Note_on_c, 0, 55, 88
2, 19584, Note_on_c, 0, 55, 0
2, 19584, Note_on_c, 0, 49, 78
2, 19584, Note_on_c, 0, 45, 78
2, 19584, Note_on_c, 0, 54, 96
2, 19632, Note_on_c, 0, 49, 0
2, 19632, Note_on_c, 0, 45, 0
2, 19680, Note_on_c, 0, 54, 0
2, 19680, Note_on_c, 0, 55, 94
2, 19776, Note_on_c, 0, 55, 0
2, 19776, Note_on_c, 0, 53, 87
2, 19776, Note_on_c, 0, 30, 71
2, 19824, Note_on_c, 0, 30, 0
2, 19872, Note_on_c, 0, 53, 0
2, 19872, Note_on_c, 0, 54, 81
2, 19968, Note_on_c, 0, 54, 0
2, 19968, Note_on_c, 0, 59, 80
2, 19968, Note_on_c, 0, 47, 78
2, 19968, Note_on_c, 0, 43, 77
2, 20016, Note_on_c, 0, 47, 0
2, 20016, Note_on_c, 0, 43, 0
2, 20064, Note_on_c, 0, 59, 0
2, 20064, Note_on_c, 0, 53, 77
2, 20160, Note_on_c, 0, 53, 0
2, 20160, Note_on_c, 0, 45, 76
2, 20160, Note_on_c, 0, 42, 77
2, 20160, Note_on_c, 0, 50, 79
2, 20208, Note_on_c, 0, 45, 0
2, 20208, Note_on_c, 0, 42, 0
2, 20256, Note_on_c, 0, 50, 0
2, 20256, Note_on_c, 0, 52, 80
2, 20352, Note_on_c, 0, 52, 0
2, 20352, Note_on_c, 0, 49, 75
2, 20352, Note_on_c, 0, 30, 76
2, 20400, Note_on_c, 0, 30, 0
2, 20448, Note_on_c, 0, 49, 0
2, 20448, Note_on_c, 0, 50, 69
2, 20544, Note_on_c, 0, 50, 0
2, 20544, Note_on_c, 0, 55, 70
2, 20544, Note_on_c, 0, 43, 75
2, 20544, Note_on_c, 0, 40, 76
2, 20640, Note_on_c, 0, 55, 0
2, 20640, Note_on_c, 0, 47, 66
2, 20704, Note_on_c, 0, 40, 0
2, 20734, Note_on_c, 0, 47, 0
2, 20736, Note_on_c, 0, 46, 64
2, 20736, Note_on_c, 0, 37, 76
2, 20832, Note_on_c, 0, 46, 0
2, 20832, Note_on_c, 0, 49, 58
2, 20928, Note_on_c, 0, 49, 0
2, 20928, Note_on_c, 0, 52, 63
2, 21024, Note_on_c, 0, 52, 0
2, 21024, Note_on_c, 0, 55, 65
2, 21120, Note_on_c, 0, 55, 0
2, 21120, Note_on_c, 0, 58, 59
2, 21216, Note_on_c, 0, 58, 0
2, 21216, Note_on_c, 0, 61, 62
2, 21312, Note_on_c, 0, 61, 0
2, 21312, Note_on_c, 0, 63, 67
2, 21408, Note_on_c, 0, 63, 0
2, 21408, Note_on_c, 0, 64, 63
2, 21504, Note_on_c, 0, 64, 0
2, 21504, Note_on_c, 0, 65, 62
2, 21600, Note_on_c, 0, 65, 0
2, 21600, Note_on_c, 0, 66, 63
2, 21648, Note_on_c, 0, 37, 0
2, 21696, Note_on_c, 0, 66, 0
2, 21696, Note_on_c, 0, 35, 76
2, 21696, Note_on_c, 0, 67, 65
2, 21792, Note_on_c, 0, 67, 0
2, 21792, Note_on_c, 0, 62, 65
2, 21856, Note_on_c, 0, 35, 0
2, 21888, Note_on_c, 0, 62, 0
2, 21888, Note_on_c, 0, 34, 76
2, 21888, Note_on_c, 0, 61, 67
2, 21982, Note_on_c, 0, 61, 0
2, 21984, Note_on_c, 0, 64, 71
2, 22048, Note_on_c, 0, 43, 0
2, 22048, Note_on_c, 0, 34, 0
2, 22080, Note_on_c, 0, 64, 0
2, 22080, Note_on_c, 0, 73, 75
2, 22080, Note_on_c, 0, 76, 78
2, 22176, Note_on_c, 0, 73, 0
2, 22176, Note_on_c, 0, 76, 0
2, 22176, Note_on_c, 0, 70, 78
2, 22272, Note_on_c, 0, 70, 0
2, 22272, Note_on_c, 0, 67, 77
2, 22368, Note_on_c, 0, 67, 0
2, 22368, Note_on_c, 0, 65, 78
2, 22464, Note_on_c, 0, 65, 0
2, 22464, Note_on_c, 0, 64, 82
2, 22560, Note_on_c, 0, 64, 0
2, 22560, Note_on_c, 0, 63, 81
2, 22656, Note_on_c, 0, 63, 0
2, 22656, Note_on_c, 0, 62, 83
2, 22656, Note_on_c, 0, 55, 73
2, 22704, Note_on_c, 0, 55, 0
2, 22752, Note_on_c, 0, 62, 0
2, 22752, Note_on_c, 0, 61, 75
2, 22848, Note_on_c, 0, 61, 0
2, 22848, Note_on_c, 0, 60, 77
2, 22848, Note_on_c, 0, 55, 71
2, 22896, Note_on_c, 0, 55, 0
2, 22944, Note_on_c, 0, 60, 0
2, 22944, Note_on_c, 0, 59, 83
2, 23038, Note_on_c, 0, 59, 0
2, 23040, Note_on_c, 0, 49, 73
2, 23040, Note_on_c, 0, 58, 85
2, 23040, Note_on_c, 0, 55, 70
2, 23136, Note_on_c, 0, 58, 0
2, 23136, Note_on_c, 0, 61, 88
2, 23232, Note_on_c, 0, 61, 0
2, 23232, Note_on_c, 0, 64, 87
2, 23328, Note_on_c, 0, 64, 0
2, 23328, Note_on_c, 0, 67, 87
2, 23424, Note_on_c, 0, 67, 0
2, 23424, Note_on_c, 0, 70, 85
2, 23520, Note_on_c, 0, 70, 0
2, 23520, Note_on_c, 0, 73, 93
2, 23616, Note_on_c, 0, 73, 0
2, 23616, Note_on_c, 0, 75, 96
2, 23712, Note_on_c, 0, 75, 0
2, 23712, Note_on_c, 0, 76, 97
2, 23808, Note_on_c, 0, 76, 0
2, 23808, Note_on_c, 0, 77, 97
2, 23904, Note_on_c, 0, 77, 0
2, 23904, Note_on_c, 0, 78, 99
2, 24000, Note_on_c, 0, 49, 0
2, 24000, Note_on_c, 0, 78, 0
2, 24000, Note_on_c, 0, 79, 100
2, 24000, Note_on_c, 0, 47, 73
2, 24096, Note_on_c, 0, 79, 0
2, 24096, Note_on_c, 0, 74, 109
2, 24192, Note_on_c, 0, 47, 0
2, 24192, Note_on_c, 0, 74, 0
2, 24192, Note_on_c, 0, 73, 108
2, 24192, Note_on_c, 0, 46, 70
2, 24224, Note_on_c, 0, 73, 0
2, 24286, Note_on_c, 0, 55, 0
2, 24286, Note_on_c, 0, 46, 0
2, 24384, Note_on_c, 0, 76, 104
2, 24384, Note_on_c, 0, 70, 110
2, 24384, Note_on_c, 0, 79, 113
2, 24384, Note_on_c, 0, 82, 108
2, 24384, Note_on_c, 0, 48, 89
2, 24384, Note_on_c, 0, 60, 97
2, 24432, Note_on_c, 0, 76, 0
2, 24432, Note_on_c, 0, 70, 0
2, 24432, Note_on_c, 0, 79, 0
2, 24432, Note_on_c, 0, 82, 0
2, 24432, Note_on_c, 0, 48, 0
2, 24432, Note_on_c, 0, 60, 0
2, 24576, Note_on_c, 0, 83, 110
2, 24576, Note_on_c, 0, 59, 97
2, 24576, Note_on_c, 0, 71, 107
2, 24576, Note_on_c, 0, 76, 107
2, 24576, Note_on_c, 0, 79, 105
2, 24576, Note_on_c, 0, 47, 89
2, 24624, Note_on_c, 0, 83, 0
2, 24624, Note_on_c, 0, 59, 0
2, 24624, Note_on_c, 0, 71, 0
2, 24624, Note_on_c, 0, 76, 0
2, 24624, Note_on_c, 0, 79, 0
2, 24624, Note_on_c, 0, 47, 0
2, 24768, Note_on_c, 0, 58, 92
2, 24768, Note_on_c, 0, 46, 93
2, 24768, Note_on_c, 0, 76, 113
2, 24768, Note_on_c, 0, 79, 110
2, 24768, Note_on_c, 0, 85, 107
2, 24768, Note_on_c, 0, 73, 113
2, 24928, Note_on_c, 0, 58, 0
2, 24928, Note_on_c, 0, 46, 0
2, 24928, Note_on_c, 0, 76, 0
2, 24928, Note_on_c, 0, 79, 0
2, 24928, Note_on_c, 0, 85, 0
2, 24928, Note_on_c, 0, 73, 0
2, 24960, Note_on_c, 0, 55, 72
2, 24960, Note_on_c, 0, 43, 70
2, 25152, Note_on_c, 0, 55, 0
2, 25152, Note_on_c, 0, 43, 0
2, 25152, Note_on_c, 0, 46, 79
2, 25152, Note_on_c, 0, 34, 75
2, 25312, Note_on_c, 0, 46, 0
2, 25312, Note_on_c, 0, 34, 0
2, 25344, Note_on_c, 0, 47, 79
2, 25344, Note_on_c, 0, 35, 78
2, 26112, Note_on_c, 0, 74, 77
2, 26112, Note_on_c, 0, 62, 75
2, 26112, Note_on_c, 0, 67, 73
2, 26304, Note_on_c, 0, 74, 0
2, 26304, Note_on_c, 0, 62, 0
2, 26304, Note_on_c, 0, 67, 0
2, 26304, Note_on_c, 0, 67, 68
2, 26304, Note_on_c, 0, 62, 66
2, 26304, Note_on_c, 0, 55, 67
2, 26464, Note_on_c, 0, 67, 0
2, 26464, Note_on_c, 0, 62, 0
2, 26464, Note_on_c, 0, 55, 0
2, 26496, Note_on_c, 0, 61, 76
2, 26496, Note_on_c, 0, 55, 79
2, 26496, Note_on_c, 0, 66, 53
2, 26688, Note_on_c, 0, 66, 0
2, 26688, Note_on_c, 0, 64, 50
2, 26832, Note_on_c, 0, 47, 0
2, 26832, Note_on_c, 0, 35, 0
2, 26832, Note_on_c, 0, 61, 0
2, 26832, Note_on_c, 0, 55, 0
2, 26848, Note_on_c, 0, 64, 0
2, 26880, Note_on_c, 0, 46, 96
2, 26880, Note_on_c, 0, 34, 93
2, 27040, Note_on_c, 0, 46, 0
2, 27040, Note_on_c, 0, 34, 0
2, 27072, Note_on_c, 0, 45, 88
2, 27072, Note_on_c, 0, 57, 94
2, 27264, Note_on_c, 0, 45, 0
2, 27264, Note_on_c, 0, 57, 0
2, 27264, Note_on_c, 0, 55, 93
2, 27264, Note_on_c, 0, 43, 91
2, 27456, Note_on_c, 0, 55, 0
2, 27456, Note_on_c, 0, 43, 0
2, 27456, Note_on_c, 0, 34, 90
2, 27456, Note_on_c, 0, 46, 94
2, 27616, Note_on_c, 0, 34, 0
2, 27616, Note_on_c, 0, 46, 0
2, 27648, Note_on_c, 0, 35, 88
2, 27648, Note_on_c, 0, 47, 92
2, 28032, Note_on_c, 0, 76, 91
2, 28032, Note_on_c, 0, 64, 91
2, 28032, Note_on_c, 0, 67, 92
2, 28416, Note_on_c, 0, 76, 0
2, 28416, Note_on_c, 0, 64, 0
2, 28416, Note_on_c, 0, 67, 0
2, 28416, Note_on_c, 0, 74, 92
2, 28416, Note_on_c, 0, 62, 88
2, 28416, Note_on_c, 0, 67, 90
2, 28608, Note_on_c, 0, 74, 0
2, 28608, Note_on_c, 0, 62, 0
2, 28608, Note_on_c, 0, 67, 0
2, 28608, Note_on_c, 0, 55, 82
2, 28608, Note_on_c, 0, 62, 88
2, 28608, Note_on_c, 0, 67, 83
2, 28768, Note_on_c, 0, 55, 0
2, 28768, Note_on_c, 0, 62, 0
2, 28768, Note_on_c, 0, 67, 0
2, 28800, Note_on_c, 0, 66, 75
2, 28800, Note_on_c, 0, 61, 63
2, 28800, Note_on_c, 0, 55, 60
2, 29136, Note_on_c, 0, 66, 0
2, 29184, Note_on_c, 0, 64, 64
2, 29328, Note_on_c, 0, 35, 0
2, 29328, Note_on_c, 0, 47, 0
2, 29376, Note_on_c, 0, 35, 90
2, 29376, Note_on_c, 0, 47, 83
2, 29424, Note_on_c, 0, 35, 0
2, 29424, Note_on_c, 0, 47, 0
2, 29568, Note_on_c, 0, 47, 80
2, 29568, Note_on_c, 0, 35, 85
2, 29760, Note_on_c, 0, 47, 0
2, 29760, Note_on_c, 0, 35, 0
2, 29760, Note_on_c, 0, 46, 81
2, 29760, Note_on_c, 0, 34, 86
2, 29904, Note_on_c, 0, 61, 0
2, 29904, Note_on_c, 0, 55, 0
2, 29904, Note_on_c, 0, 64, 0
2, 29920, Note_on_c, 0, 46, 0
2, 29920, Note_on_c, 0, 34, 0
2, 29952, Note_on_c, 0, 35, 81
2, 29952, Note_on_c, 0, 59, 60
2, 29952, Note_on_c, 0, 64, 62
2, 29952, Note_on_c, 0, 47, 82
2, 29952, Note_on_c, 0, 54, 56
2, 30144, Note_on_c, 0, 64, 0
2, 30144, Note_on_c, 0, 62, 56
2, 30288, Note_on_c, 0, 59, 0
2, 30288, Note_on_c, 0, 54, 0
2, 30304, Note_on_c, 0, 62, 0
2, 30480, Note_on_c, 0, 35, 0
2, 30480, Note_on_c, 0, 47, 0
2, 30528, Note_on_c, 0, 47, 77
2, 30528, Note_on_c, 0, 35, 74
2, 30576, Note_on_c, 0, 47, 0
2, 30576, Note_on_c, 0, 35, 0
2, 30720, Note_on_c, 0, 47, 70
2, 30720, Note_on_c, 0, 35, 67
2, 30912, Note_on_c, 0, 47, 0
2, 30912, Note_on_c, 0, 35, 0
2, 30912, Note_on_c, 0, 46, 65
2, 30912, Note_on_c, 0, 34, 69
2, 31072, Note_on_c, 0, 46, 0
2, 31072, Note_on_c, 0, 34, 0
2, 31104, Note_on_c, 0, 64, 55
2, 31104, Note_on_c, 0, 59, 60
2, 31104, Note_on_c, 0, 35, 70
2, 31104, Note_on_c, 0, 54, 57
2, 31104, Note_on_c, 0, 47, 69
2, 31296, Note_on_c, 0, 64, 0
2, 31296, Note_on_c, 0, 62, 53
2, 31440, Note_on_c, 0, 59, 0
2, 31440, Note_on_c, 0, 54, 0
2, 31456, Note_on_c, 0, 62, 0
2, 31632, Note_on_c, 0, 35, 0
2, 31632, Note_on_c, 0, 47, 0
2, 31680, Note_on_c, 0, 47, 57
2, 31680, Note_on_c, 0, 35, 56
2, 31872, Note_on_c, 0, 47, 0
2, 31872, Note_on_c, 0, 35, 0
2, 31872, Note_on_c, 0, 37, 55
2, 31872, Note_on_c, 0, 49, 53
2, 32064, Note_on_c, 0, 37, 0
2, 32064, Note_on_c, 0, 49, 0
2, 32064, Note_on_c, 0, 50, 52
2, 32064, Note_on_c, 0, 38, 59
2, 32224, Note_on_c, 0, 50, 0
2, 32224, Note_on_c, 0, 38, 0
2, 32256, Note_on_c, 0, 59, 59
2, 32256, Note_on_c, 0, 40, 57
2, 32256, Note_on_c, 0, 28, 51
2, 32256, Note_on_c, 0, 55, 60
2, 32256, Note_on_c, 0, 62, 43
2, 32640, Note_on_c, 0, 62, 0
2, 32640, Note_on_c, 0, 61, 51
2, 32784, Note_on_c, 0, 59, 0
2, 32784, Note_on_c, 0, 40, 0
2, 32784, Note_on_c, 0, 28, 0
2, 32784, Note_on_c, 0, 55, 0
2, 32800, Note_on_c, 0, 61, 0
2, 32832, Note_on_c, 0, 76, 75
2, 32832, Note_on_c, 0, 64, 60
2, 33984, Note_on_c, 0, 74, 40
2, 33984, Note_on_c, 0, 62, 46
2, 34144, Note_on_c, 0, 74, 0
2, 34144, Note_on_c, 0, 62, 0
2, 34176, Note_on_c, 0, 61, 48
2, 34176, Note_on_c, 0, 73, 44
2, 34336, Note_on_c, 0, 61, 0
2, 34336, Note_on_c, 0, 73, 0
2, 34368, Note_on_c, 0, 59, 50
2, 34368, Note_on_c, 0, 71, 44
2, 34528, Note_on_c, 0, 59, 0
2, 34528, Note_on_c, 0, 71, 0
2, 34560, Note_on_c, 0, 73, 43
2, 34560, Note_on_c, 0, 61, 49
2, 35088, Note_on_c, 0, 76, 0
2, 35088, Note_on_c, 0, 64, 0
2, 35088, Note_on_c, 0, 73, 0
2, 35088, Note_on_c, 0, 61, 0
2, 35136, Note_on_c, 0, 64, 74
2, 35136, Note_on_c, 0, 71, 78
2, 35136, Control_c, 0, 64, 127
2, 35136, Note_on_c, 0, 55, 62
2, 35136, Note_on_c, 0, 43, 58
2, 35184, Note_on_c, 0, 64, 0
2, 35184, Note_on_c, 0, 71, 0
2, 35184, Note_on_c, 0, 55, 0
2, 35184, Note_on_c, 0, 43, 0
2, 35184, Note_on_c, 0, 64, 58
2, 35184, Note_on_c, 0, 76, 70
2, 36288, Note_on_c, 0, 62, 50
2, 36288, Control_c, 0, 64, 0
2, 36288, Note_on_c, 0, 74, 43
2, 36448, Note_on_c, 0, 62, 0
2, 36448, Note_on_c, 0, 74, 0
2, 36480, Note_on_c, 0, 73, 44
2, 36480, Note_on_c, 0, 61, 43
2, 36640, Note_on_c, 0, 73, 0
2, 36640, Note_on_c, 0, 61, 0
2, 36672, Note_on_c, 0, 71, 44
2, 36672, Note_on_c, 0, 59, 47
2, 36816, Note_on_c, 0, 64, 0
2, 36816, Note_on_c, 0, 76, 0
2, 36832, Note_on_c, 0, 71, 0
2, 36832, Note_on_c, 0, 59, 0
2, 36864, Note_on_c, 0, 73, 62
2, 36864, Note_on_c, 0, 66, 62
2, 36864, Note_on_c, 0, 70, 55
2, 36864, Note_on_c, 0, 54, 62
2, 36864, Note_on_c, 0, 64, 65
2, 38016, Note_on_c, 0, 73, 0
2, 38016, Note_on_c, 0, 70, 0
2, 38016, Note_on_c, 0, 64, 0
2, 38016, Note_on_c, 0, 47, 35
2, 38016, Note_on_c, 0, 62, 46
2, 38016, Note_on_c, 0, 71, 46
2, 38176, Note_on_c, 0, 66, 0
2, 38176, Note_on_c, 0, 54, 0
2, 38176, Note_on_c, 0, 47, 0
2, 38176, Note_on_c, 0, 62, 0
2, 38176, Note_on_c, 0, 71, 0
2, 38784, Note_on_c, 0, 42, 83
2, 38784, Note_on_c, 0, 50, 82
2, 38880, Note_on_c, 0, 42, 0
2, 38880, Note_on_c, 0, 50, 0
2, 38880, Note_on_c, 0, 43, 56
2, 38976, Note_on_c, 0, 43, 0
2, 38976, Note_on_c, 0, 34, 61
2, 39070, Note_on_c, 0, 34, 0
2, 39072, Note_on_c, 0, 50, 57
2, 39168, Note_on_c, 0, 50, 0
2, 39168, Note_on_c, 0, 55, 55
2, 39264, Note_on_c, 0, 55, 0
2, 39264, Note_on_c, 0, 62, 62
2, 39360, Note_on_c, 0, 62, 0
2, 39360, Note_on_c, 0, 64, 84
2, 39360, Note_on_c, 0, 33, 59
2, 39456, Note_on_c, 0, 33, 0
2, 39456, Note_on_c, 0, 43, 55
2, 39552, Note_on_c, 0, 43, 0
2, 39552, Note_on_c, 0, 49, 64
2, 39646, Note_on_c, 0, 49, 0
2, 39648, Note_on_c, 0, 64, 0
2, 39648, Note_on_c, 0, 55, 63
2, 39744, Note_on_c, 0, 55, 0
2, 39744, Note_on_c, 0, 57, 63
2, 39840, Note_on_c, 0, 57, 0
2, 39840, Note_on_c, 0, 55, 60
2, 39934, Note_on_c, 0, 55, 0
2, 39936, Note_on_c, 0, 54, 86
2, 39936, Note_on_c, 0, 44, 81
2, 40032, Note_on_c, 0, 54, 0
2, 40032, Note_on_c, 0, 44, 0
2, 40032, Note_on_c, 0, 45, 63
2, 40128, Note_on_c, 0, 45, 0
2, 40128, Note_on_c, 0, 38, 61
2, 40128, Note_on_c, 0, 54, 57
2, 40224, Note_on_c, 0, 54, 0
2, 40224, Note_on_c, 0, 57, 63
2, 40288, Note_on_c, 0, 38, 0
2, 40320, Note_on_c, 0, 57, 0
2, 40320, Note_on_c, 0, 66, 79
2, 40416, Note_on_c, 0, 66, 0
2, 40416, Note_on_c, 0, 66, 80
2, 40512, Note_on_c, 0, 66, 0
2, 40512, Note_on_c, 0, 78, 97
2, 40672, Note_on_c, 0, 78, 0
2, 41088, Note_on_c, 0, 46, 55
2, 41088, Note_on_c, 0, 54, 55
2, 41184, Note_on_c, 0, 46, 0
2, 41184, Note_on_c, 0, 54, 0
2, 41184, Note_on_c, 0, 47, 65
2, 41280, Note_on_c, 0, 47, 0
2, 41280, Note_on_c, 0, 38, 60
2, 41374, Note_on_c, 0, 38, 0
2, 41376, Note_on_c, 0, 54, 61
2, 41472, Note_on_c, 0, 54, 0
2, 41472, Note_on_c, 0, 59, 59
2, 41568, Note_on_c, 0, 59, 0
2, 41568, Note_on_c, 0, 66, 63
2, 41664, Note_on_c, 0, 66, 0
2, 41664, Note_on_c, 0, 68, 87
2, 41664, Note_on_c, 0, 37, 57
2, 41760, Note_on_c, 0, 37, 0
2, 41760, Note_on_c, 0, 47, 60
2, 41856, Note_on_c, 0, 47, 0
2, 41856, Note_on_c, 0, 52, 56
2, 41950, Note_on_c, 0, 52, 0
2, 41952, Note_on_c, 0, 68, 0
2, 41952, Note_on_c, 0, 59, 60
2, 42048, Note_on_c, 0, 59, 0
2, 42048, Note_on_c, 0, 61, 62
2, 42144, Note_on_c, 0, 61, 0
2, 42144, Note_on_c, 0, 59, 55
2, 42238, Note_on_c, 0, 59, 0
2, 42240, Note_on_c, 0, 48, 85
2, 42240, Note_on_c, 0, 57, 81
2, 42336, Note_on_c, 0, 48, 0
2, 42336, Note_on_c, 0, 57, 0
2, 42336, Note_on_c, 0, 49, 57
2, 42432, Note_on_c, 0, 49, 0
2, 42432, Note_on_c, 0, 57, 71
2, 42432, Note_on_c, 0, 42, 63
2, 42526, Note_on_c, 0, 42, 0
2, 42528, Note_on_c, 0, 57, 0
2, 42528, Note_on_c, 0, 61, 72
2, 42624, Note_on_c, 0, 61, 0
2, 42624, Note_on_c, 0, 69, 83
2, 42720, Note_on_c, 0, 69, 0
2, 42720, Note_on_c, 0, 69, 83
2, 42816, Note_on_c, 0, 69, 0
2, 42816, Note_on_c, 0, 81, 93
2, 42910, Note_on_c, 0, 81, 0
2, 43392, Note_on_c, 0, 49, 55
2, 43392, Note_on_c, 0, 57, 56
2, 43488, Note_on_c, 0, 49, 0
2, 43488, Note_on_c, 0, 57, 0
2, 43488, Note_on_c, 0, 50, 57
2, 43584, Note_on_c, 0, 50, 0
2, 43584, Note_on_c, 0, 41, 65
2, 43678, Note_on_c, 0, 41, 0
2, 43680, Note_on_c, 0, 57, 60
2, 43776, Note_on_c, 0, 57, 0
2, 43776, Note_on_c, 0, 62, 63
2, 43872, Note_on_c, 0, 62, 0
2, 43872, Note_on_c, 0, 69, 66
2, 43968, Note_on_c, 0, 69, 0
2, 43968, Note_on_c, 0, 71, 90
2, 43968, Note_on_c, 0, 40, 69
2, 44064, Note_on_c, 0, 40, 0
2, 44064, Note_on_c, 0, 50, 67
2, 44160, Note_on_c, 0, 50, 0
2, 44160, Note_on_c, 0, 56, 70
2, 44254, Note_on_c, 0, 56, 0
2, 44256, Note_on_c, 0, 71, 0
2, 44256, Note_on_c, 0, 62, 74
2, 44352, Note_on_c, 0, 62, 0
2, 44352, Note_on_c, 0, 64, 75
2, 44448, Note_on_c, 0, 64, 0
2, 44448, Note_on_c, 0, 62, 72
2, 44542, Note_on_c, 0, 62, 0
2, 44544, Note_on_c, 0, 51, 80
2, 44544, Note_on_c, 0, 61, 81
2, 44640, Note_on_c, 0, 51, 0
2, 44640, Note_on_c, 0, 61, 0
2, 44640, Note_on_c, 0, 52, 84
2, 44736, Note_on_c, 0, 52, 0
2, 44736, Note_on_c, 0, 45, 89
2, 44830, Note_on_c, 0, 45, 0
2, 44832, Note_on_c, 0, 61, 88
2, 44928, Note_on_c, 0, 61, 0
2, 44928, Note_on_c, 0, 64, 90
2, 45024, Note_on_c, 0, 64, 0
2, 45024, Note_on_c, 0, 73, 127
2, 45118, Note_on_c, 0, 73, 0
2, 45120, Note_on_c, 0, 61, 97
2, 45120, Note_on_c, 0, 50, 89
2, 45216, Note_on_c, 0, 61, 0
2, 45216, Note_on_c, 0, 50, 0
2, 45216, Note_on_c, 0, 51, 88
2, 45312, Note_on_c, 0, 51, 0
2, 45312, Note_on_c, 0, 45, 94
2, 45406, Note_on_c, 0, 45, 0
2, 45408, Note_on_c, 0, 61, 88
2, 45504, Note_on_c, 0, 61, 0
2, 45504, Note_on_c, 0, 67, 87
2, 45600, Note_on_c, 0, 67, 0
2, 45600, Note_on_c, 0, 75, 127
2, 45696, Note_on_c, 0, 61, 84
2, 45696, Note_on_c, 0, 50, 85
2, 45792, Note_on_c, 0, 61, 0
2, 45792, Note_on_c, 0, 50, 0
2, 45792, Note_on_c, 0, 51, 90
2, 45856, Note_on_c, 0, 75, 0
2, 45888, Note_on_c, 0, 51, 0
2, 45888, Note_on_c, 0, 44, 83
2, 45982, Note_on_c, 0, 44, 0
2, 45984, Note_on_c, 0, 60, 82
2, 46080, Note_on_c, 0, 60, 0
2, 46080, Note_on_c, 0, 68, 90
2, 46176, Note_on_c, 0, 68, 0
2, 46176, Note_on_c, 0, 72, 113
2, 46272, Note_on_c, 0, 49, 77
2, 46272, Note_on_c, 0, 60, 77
2, 46368, Note_on_c, 0, 49, 0
2, 46368, Note_on_c, 0, 60, 0
2, 46368, Note_on_c, 0, 50, 79
2, 46432, Note_on_c, 0, 72, 0
2, 46464, Note_on_c, 0, 50, 0
2, 46464, Note_on_c, 0, 44, 78
2, 46558, Note_on_c, 0, 44, 0
2, 46560, Note_on_c, 0, 60, 84
2, 46656, Note_on_c, 0, 60, 0
2, 46656, Note_on_c, 0, 66, 77
2, 46752, Note_on_c, 0, 66, 0
2, 46752, Note_on_c, 0, 74, 113
2, 46848, Note_on_c, 0, 59, 75
2, 46848, Note_on_c, 0, 48, 70
2, 46944, Note_on_c, 0, 59, 0
2, 46944, Note_on_c, 0, 48, 0
2, 46944, Note_on_c, 0, 50, 76
2, 47008, Note_on_c, 0, 74, 0
2, 47040, Note_on_c, 0, 50, 0
2, 47040, Note_on_c, 0, 43, 74
2, 47134, Note_on_c, 0, 43, 0
2, 47136, Note_on_c, 0, 59, 77
2, 47232, Note_on_c, 0, 59, 0
2, 47232, Note_on_c, 0, 67, 71
2, 47328, Note_on_c, 0, 67, 0
2, 47328, Note_on_c, 0, 71, 97
2, 47424, Note_on_c, 0, 48, 72
2, 47424, Note_on_c, 0, 59, 70
2, 47520, Note_on_c, 0, 48, 0
2, 47520, Note_on_c, 0, 59, 0
2, 47520, Note_on_c, 0, 49, 65
2, 47584, Note_on_c, 0, 71, 0
2, 47616, Note_on_c, 0, 49, 0
2, 47616, Note_on_c, 0, 43, 70
2, 47710, Note_on_c, 0, 43, 0
2, 47712, Note_on_c, 0, 59, 70
2, 47808, Note_on_c, 0, 59, 0
2, 47808, Note_on_c, 0, 65, 60
2, 47904, Note_on_c, 0, 65, 0
2, 47904, Note_on_c, 0, 73, 83
2, 48000, Control_c, 0, 64, 127
2, 48000, Note_on_c, 0, 58, 56
2, 48096, Note_on_c, 0, 58, 0
2, 48096, Note_on_c, 0, 49, 62
2, 48160, Note_on_c, 0, 73, 0
2, 48192, Note_on_c, 0, 49, 0
2, 48192, Note_on_c, 0, 42, 55
2, 48286, Note_on_c, 0, 42, 0
2, 48288, Note_on_c, 0, 58, 64
2, 48384, Note_on_c, 0, 58, 0
2, 48384, Note_on_c, 0, 66, 60
2, 48480, Note_on_c, 0, 66, 0
2, 48480, Note_on_c, 0, 73, 79
2, 48528, Control_c, 0, 64, 0
2, 48576, Control_c, 0, 64, 127
2, 48576, Note_on_c, 0, 61, 63
2, 48672, Note_on_c, 0, 61, 0
2, 48672, Note_on_c, 0, 54, 60
2, 48736, Note_on_c, 0, 73, 0
2, 48768, Note_on_c, 0, 54, 0
2, 48768, Note_on_c, 0, 46, 62
2, 48862, Note_on_c, 0, 46, 0
2, 48864, Note_on_c, 0, 61, 66
2, 48960, Note_on_c, 0, 61, 0
2, 48960, Note_on_c, 0, 70, 58
2, 49056, Note_on_c, 0, 70, 0
2, 49056, Note_on_c, 0, 78, 57
2, 49104, Control_c, 0, 64, 0
2, 49150, Note_on_c, 0, 78, 0
2, 49152, Note_on_c, 0, 62, 55
2, 49152, Control_c, 0, 64, 127
2, 49248, Note_on_c, 0, 62, 0
2, 49248, Note_on_c, 0, 54, 56
2, 49344, Note_on_c, 0, 54, 0
2, 49344, Note_on_c, 0, 44, 59
2, 49438, Note_on_c, 0, 44, 0
2, 49440, Note_on_c, 0, 62, 60
2, 49536, Note_on_c, 0, 62, 0
2, 49536, Note_on_c, 0, 71, 65
2, 49632, Note_on_c, 0, 71, 0
2, 49632, Note_on_c, 0, 78, 91
2, 49680, Control_c, 0, 64, 0
2, 49726, Note_on_c, 0, 78, 0
2, 49728, Control_c, 0, 64, 127
2, 49728, Note_on_c, 0, 65, 58
2, 49824, Note_on_c, 0, 65, 0
2, 49824, Note_on_c, 0, 59, 60
2, 49920, Note_on_c, 0, 59, 0
2, 49920, Note_on_c, 0, 49, 65
2, 50014, Note_on_c, 0, 49, 0
2, 50016, Note_on_c, 0, 65, 60
2, 50112, Note_on_c, 0, 65, 0
2, 50112, Note_on_c, 0, 71, 66
2, 50208, Note_on_c, 0, 71, 0
2, 50208, Note_on_c, 0, 80, 69
2, 50256, Control_c, 0, 64, 0
2, 50302, Note_on_c, 0, 80, 0
2, 50304, Control_c, 0, 64, 127
2, 50304, Note_on_c, 0, 68, 65
2, 50400, Note_on_c, 0, 68, 0
2, 50400, Note_on_c, 0, 58, 58
2, 50496, Note_on_c, 0, 58, 0
2, 50496, Note_on_c, 0, 52, 56
2, 50590, Note_on_c, 0, 52, 0
2, 50592, Note_on_c, 0, 68, 68
2, 50688, Note_on_c, 0, 68, 0
2, 50688, Note_on_c, 0, 73, 71
2, 50784, Note_on_c, 0, 73, 0
2, 50784, Note_on_c, 0, 82, 62
2, 50832, Control_c, 0, 64, 0
2, 50878, Note_on_c, 0, 82, 0
2, 50880, Control_c, 0, 64, 127
2, 50880, Note_on_c, 0, 67, 65
2, 50976, Note_on_c, 0, 67, 0
2, 50976, Note_on_c, 0, 58, 61
2, 51072, Note_on_c, 0, 58, 0
2, 51072, Note_on_c, 0, 51, 61
2, 51166, Note_on_c, 0, 51, 0
2, 51168, Note_on_c, 0, 67, 71
2, 51264, Note_on_c, 0, 67, 0
2, 51264, Note_on_c, 0, 75, 66
2, 51360, Note_on_c, 0, 75, 0
2, 51360, Note_on_c, 0, 82, 68
2, 51408, Control_c, 0, 64, 0
2, 51454, Note_on_c, 0, 82, 0
2, 51456, Note_on_c, 0, 71, 65
2, 51456, Control_c, 0, 64, 127
2, 51552, Note_on_c, 0, 71, 0
2, 51552, Note_on_c, 0, 63, 64
2, 51648, Note_on_c, 0, 63, 0
2, 51648, Note_on_c, 0, 56, 59
2, 51742, Note_on_c, 0, 56, 0
2, 51744, Note_on_c, 0, 68, 72
2, 51840, Note_on_c, 0, 68, 0
2, 51840, Note_on_c, 0, 75, 72
2, 51936, Note_on_c, 0, 75, 0
2, 51936, Note_on_c, 0, 83, 74
2, 51984, Control_c, 0, 64, 0
2, 52030, Note_on_c, 0, 83, 0
2, 52032, Note_on_c, 0, 65, 65
2, 52032, Control_c, 0, 64, 127
2, 52128, Note_on_c, 0, 65, 0
2, 52128, Note_on_c, 0, 59, 63
2, 52224, Note_on_c, 0, 59, 0
2, 52224, Note_on_c, 0, 49, 63
2, 52318, Note_on_c, 0, 49, 0
2, 52320, Note_on_c, 0, 65, 79
2, 52416, Note_on_c, 0, 65, 0
2, 52416, Note_on_c, 0, 71, 81
2, 52512, Note_on_c, 0, 71, 0
2, 52512, Note_on_c, 0, 80, 79
2, 52560, Control_c, 0, 64, 0
2, 52606, Note_on_c, 0, 80, 0
2, 52608, Note_on_c, 0, 70, 72
2, 52608, Control_c, 0, 64, 127
2, 52704, Note_on_c, 0, 70, 0
2, 52704, Note_on_c, 0, 61, 75
2, 52800, Note_on_c, 0, 61, 0
2, 52800, Note_on_c, 0, 54, 67
2, 52894, Note_on_c, 0, 54, 0
2, 52896, Note_on_c, 0, 66, 92
2, 52992, Note_on_c, 0, 66, 0
2, 52992, Note_on_c, 0, 70, 88
2, 53088, Note_on_c, 0, 70, 0
2, 53088, Note_on_c, 0, 78, 94
2, 53136, Control_c, 0, 64, 0
2, 53182, Note_on_c, 0, 78, 0
2, 53184, Control_c, 0, 64, 127
2, 53184, Note_on_c, 0, 66, 79
2, 53184, Note_on_c, 0, 73, 80
2, 53280, Note_on_c, 0, 66, 0
2, 53280, Note_on_c, 0, 73, 0
2, 53280, Note_on_c, 0, 58, 78
2, 53374, Note_on_c, 0, 58, 0
2, 53376, Note_on_c, 0, 90, 96
2, 53472, Note_on_c, 0, 90, 0
2, 53472, Note_on_c, 0, 82, 89
2, 53568, Note_on_c, 0, 82, 0
2, 53568, Note_on_c, 0, 90, 109
2, 53664, Note_on_c, 0, 78, 97
2, 53712, Control_c, 0, 64, 0
2, 53728, Note_on_c, 0, 90, 0
2, 53758, Note_on_c, 0, 78, 0
2, 53760, Control_c, 0, 64, 127
2, 53760, Note_on_c, 0, 66, 71
2, 53760, Note_on_c, 0, 74, 73
2, 53856, Note_on_c, 0, 66, 0
2, 53856, Note_on_c, 0, 74, 0
2, 53856, Note_on_c, 0, 56, 72
2, 53950, Note_on_c, 0, 56, 0
2, 53952, Note_on_c, 0, 90, 97
2, 54048, Note_on_c, 0, 90, 0
2, 54048, Note_on_c, 0, 83, 95
2, 54144, Note_on_c, 0, 83, 0
2, 54144, Note_on_c, 0, 90, 110
2, 54240, Note_on_c, 0, 78, 99
2, 54288, Control_c, 0, 64, 0
2, 54304, Note_on_c, 0, 90, 0
2, 54334, Note_on_c, 0, 78, 0
2, 54336, Note_on_c, 0, 68, 80
2, 54336, Control_c, 0, 64, 127
2, 54336, Note_on_c, 0, 77, 83
2, 54336, Note_on_c, 0, 71, 83
2, 54432, Note_on_c, 0, 68, 0
2, 54432, Note_on_c, 0, 77, 0
2, 54432, Note_on_c, 0, 71, 0
2, 54432, Note_on_c, 0, 61, 82
2, 54526, Note_on_c, 0, 61, 0
2, 54528, Note_on_c, 0, 92, 102
2, 54624, Note_on_c, 0, 92, 0
2, 54624, Note_on_c, 0, 85, 95
2, 54720, Note_on_c, 0, 85, 0
2, 54720, Note_on_c, 0, 92, 107
2, 54816, Note_on_c, 0, 83, 101
2, 54864, Control_c, 0, 64, 0
2, 54880, Note_on_c, 0, 92, 0
2, 54910, Note_on_c, 0, 83, 0
2, 54912, Note_on_c, 0, 80, 78
2, 54912, Note_on_c, 0, 70, 82
2, 54912, Note_on_c, 0, 73, 81
2, 54912, Control_c, 0, 64, 127
2, 55008, Note_on_c, 0, 80, 0
2, 55008, Note_on_c, 0, 70, 0
2, 55008, Note_on_c, 0, 73, 0
2, 55008, Note_on_c, 0, 64, 81
2, 55102, Note_on_c, 0, 64, 0
2, 55104, Note_on_c, 0, 94, 108
2, 55200, Note_on_c, 0, 94, 0
2, 55200, Note_on_c, 0, 85, 106
2, 55296, Note_on_c, 0, 85, 0
2, 55296, Note_on_c, 0, 94, 111
2, 55392, Note_on_c, 0, 94, 0
2, 55392, Note_on_c, 0, 80, 106
2, 55440, Control_c, 0, 64, 0
2, 55486, Note_on_c, 0, 80, 0
2, 55488, Control_c, 0, 64, 127
2, 55488, Note_on_c, 0, 70, 89
2, 55488, Note_on_c, 0, 73, 85
2, 55488, Note_on_c, 0, 79, 88
2, 55584, Note_on_c, 0, 70, 0
2, 55584, Note_on_c, 0, 73, 0
2, 55584, Note_on_c, 0, 79, 0
2, 55584, Note_on_c, 0, 63, 87
2, 55678, Note_on_c, 0, 63, 0
2, 55680, Note_on_c, 0, 94, 111
2, 55776, Note_on_c, 0, 94, 0
2, 55776, Note_on_c, 0, 85, 107
2, 55872, Note_on_c, 0, 85, 0
2, 55872, Note_on_c, 0, 94, 110
2, 55968, Note_on_c, 0, 94, 0
2, 55968, Note_on_c, 0, 79, 108
2, 56016, Control_c, 0, 64, 0
2, 56062, Note_on_c, 0, 79, 0
2, 56064, Note_on_c, 0, 78, 90
2, 56064, Note_on_c, 0, 71, 97
2, 56064, Note_on_c, 0, 66, 98
2, 56064, Control_c, 0, 64, 127
2, 56160, Note_on_c, 0, 78, 0
2, 56160, Note_on_c, 0, 71, 0
2, 56160, Note_on_c, 0, 66, 0
2, 56160, Note_on_c, 0, 62, 96
2, 56254, Note_on_c, 0, 62, 0
2, 56256, Note_on_c, 0, 95, 112
2, 56352, Note_on_c, 0, 95, 0
2, 56352, Note_on_c, 0, 86, 119
2, 56448, Note_on_c, 0, 86, 0
2, 56448, Note_on_c, 0, 95, 114
2, 56544, Note_on_c, 0, 95, 0
2, 56544, Note_on_c, 0, 78, 123
2, 56592, Control_c, 0, 64, 0
2, 56638, Note_on_c, 0, 78, 0
2, 56640, Control_c, 0, 64, 127
2, 56640, Note_on_c, 0, 68, 105
2, 56640, Note_on_c, 0, 71, 104
2, 56640, Note_on_c, 0, 77, 106
2, 56736, Note_on_c, 0, 68, 0
2, 56736, Note_on_c, 0, 71, 0
2, 56736, Note_on_c, 0, 77, 0
2, 56736, Note_on_c, 0, 61, 106
2, 56830, Note_on_c, 0, 61, 0
2, 56832, Note_on_c, 0, 92, 121
2, 56928, Note_on_c, 0, 92, 0
2, 56928, Note_on_c, 0, 83, 126
2, 57024, Note_on_c, 0, 83, 0
2, 57024, Note_on_c, 0, 92, 127
2, 57120, Note_on_c, 0, 92, 0
2, 57120, Note_on_c, 0, 77, 127
2, 57168, Control_c, 0, 64, 0
2, 57214, Note_on_c, 0, 77, 0
2, 57216, Note_on_c, 0, 61, 103
2, 57216, Note_on_c, 0, 70, 109
2, 57216, Control_c, 0, 64, 127
2, 57216, Note_on_c, 0, 66, 105
2, 57312, Note_on_c, 0, 61, 0
2, 57312, Note_on_c, 0, 70, 0
2, 57312, Note_on_c, 0, 66, 0
2, 57312, Note_on_c, 0, 54, 106
2, 57406, Note_on_c, 0, 54, 0
2, 57408, Note_on_c, 0, 90, 123
2, 57408, Note_on_c, 0, 85, 127
2, 57504, Note_on_c, 0, 90, 0
2, 57504, Note_on_c, 0, 85, 0
2, 57504, Note_on_c, 0, 82, 127
2, 57600, Note_on_c, 0, 82, 0
2, 57600, Note_on_c, 0, 85, 127
2, 57600, Note_on_c, 0, 90, 122
2, 57696, Note_on_c, 0, 85, 0
2, 57696, Note_on_c, 0, 90, 0
2, 57696, Note_on_c, 0, 78, 127
2, 57744, Control_c, 0, 64, 0
2, 57790, Note_on_c, 0, 78, 0
2, 57792, Note_on_c, 0, 62, 109
2, 57792, Note_on_c, 0, 71, 104
2, 57792, Control_c, 0, 64, 127
2, 57888, Note_on_c, 0, 62, 0
2, 57888, Note_on_c, 0, 71, 0
2, 57888, Note_on_c, 0, 54, 110
2, 57982, Note_on_c, 0, 54, 0
2, 57984, Note_on_c, 0, 91, 127
2, 57984, Note_on_c, 0, 86, 127
2, 58080, Note_on_c, 0, 91, 0
2, 58080, Note_on_c, 0, 86, 0
2, 58080, Note_on_c, 0, 83, 123
2, 58176, Note_on_c, 0, 83, 0
2, 58176, Note_on_c, 0, 86, 123
2, 58176, Note_on_c, 0, 91, 127
2, 58272, Note_on_c, 0, 86, 0
2, 58272, Note_on_c, 0, 91, 0
2, 58272, Note_on_c, 0, 79, 127
2, 58320, Control_c, 0, 64, 0
2, 58366, Note_on_c, 0, 79, 0
2, 58368, Control_c, 0, 64, 127
2, 58368, Note_on_c, 0, 61, 108
2, 58368, Note_on_c, 0, 70, 105
2, 58464, Note_on_c, 0, 61, 0
2, 58464, Note_on_c, 0, 70, 0
2, 58464, Note_on_c, 0, 54, 108
2, 58558, Note_on_c, 0, 54, 0
2, 58560, Note_on_c, 0, 85, 125
2, 58560, Note_on_c, 0, 90, 123
2, 58656, Note_on_c, 0, 85, 0
2, 58656, Note_on_c, 0, 90, 0
2, 58656, Note_on_c, 0, 82, 127
2, 58752, Note_on_c, 0, 82, 0
2, 58752, Note_on_c, 0, 90, 124
2, 58752, Note_on_c, 0, 85, 127
2, 58848, Note_on_c, 0, 90, 0
2, 58848, Note_on_c, 0, 85, 0
2, 58848, Note_on_c, 0, 78, 122
2, 58896, Control_c, 0, 64, 0
2, 58942, Note_on_c, 0, 78, 0
2, 58944, Note_on_c, 0, 69, 107
2, 58944, Control_c, 0, 64, 127
2, 58944, Note_on_c, 0, 60, 112
2, 59040, Note_on_c, 0, 69, 0
2, 59040, Note_on_c, 0, 60, 0
2, 59040, Note_on_c, 0, 54, 110
2, 59134, Note_on_c, 0, 54, 0
2, 59136, Note_on_c, 0, 84, 127
2, 59136, Note_on_c, 0, 89, 127
2, 59232, Note_on_c, 0, 84, 0
2, 59232, Note_on_c, 0, 89, 0
2, 59232, Note_on_c, 0, 81, 126
2, 59328, Note_on_c, 0, 81, 0
2, 59328, Note_on_c, 0, 84, 127
2, 59328, Note_on_c, 0, 89, 127
2, 59424, Note_on_c, 0, 84, 0
2, 59424, Note_on_c, 0, 89, 0
2, 59424, Note_on_c, 0, 77, 127
2, 59472, Control_c, 0, 64, 0
2, 59518, Note_on_c, 0, 77, 0
2, 59520, Note_on_c, 0, 68, 107
2, 59520, Note_on_c, 0, 59, 110
2, 59520, Control_c, 0, 64, 127
2, 59616, Note_on_c, 0, 68, 0
2, 59616, Note_on_c, 0, 59, 0
2, 59616, Note_on_c, 0, 54, 110
2, 59710, Note_on_c, 0, 54, 0
2, 59712, Note_on_c, 0, 88, 124
2, 59712, Note_on_c, 0, 83, 127
2, 59808, Note_on_c, 0, 88, 0
2, 59808, Note_on_c, 0, 83, 0
2, 59808, Note_on_c, 0, 80, 127
2, 59904, Note_on_c, 0, 80, 0
2, 59904, Note_on_c, 0, 83, 127
2, 59904, Note_on_c, 0, 88, 122
2, 60000, Note_on_c, 0, 83, 0
2, 60000, Note_on_c, 0, 88, 0
2, 60000, Note_on_c, 0, 76, 126
2, 60048, Control_c, 0, 64, 0
2, 60094, Note_on_c, 0, 76, 0
2, 60096, Note_on_c, 0, 60, 105
2, 60096, Note_on_c, 0, 69, 110
2, 60096, Control_c, 0, 64, 127
2, 60192, Note_on_c, 0, 60, 0
2, 60192, Note_on_c, 0, 69, 0
2, 60192, Note_on_c, 0, 54, 104
2, 60286, Note_on_c, 0, 54, 0
2, 60288, Note_on_c, 0, 89, 125
2, 60288, Note_on_c, 0, 84, 127
2, 60384, Note_on_c, 0, 89, 0
2, 60384, Note_on_c, 0, 84, 0
2, 60384, Note_on_c, 0, 81, 127
2, 60480, Note_on_c, 0, 81, 0
2, 60480, Note_on_c, 0, 89, 124
2, 60480, Note_on_c, 0, 84, 127
2, 60576, Note_on_c, 0, 89, 0
2, 60576, Note_on_c, 0, 84, 0
2, 60576, Note_on_c, 0, 77, 127
2, 60624, Control_c, 0, 64, 0
2, 60670, Note_on_c, 0, 77, 0
2, 60672, Control_c, 0, 64, 127
2, 60672, Note_on_c, 0, 68, 112
2, 60672, Note_on_c, 0, 59, 107
2, 60768, Note_on_c, 0, 68, 0
2, 60768, Note_on_c, 0, 59, 0
2, 60768, Note_on_c, 0, 54, 105
2, 60862, Note_on_c, 0, 54, 0
2, 60864, Note_on_c, 0, 83, 127
2, 60864, Note_on_c, 0, 88, 123
2, 60960, Note_on_c, 0, 83, 0
2, 60960, Note_on_c, 0, 88, 0
2, 60960, Note_on_c, 0, 80, 127
2, 61056, Note_on_c, 0, 80, 0
2, 61056, Note_on_c, 0, 83, 127
2, 61056, Note_on_c, 0, 88, 127
2, 61152, Note_on_c, 0, 83, 0
2, 61152, Note_on_c, 0, 88, 0
2, 61152, Note_on_c, 0, 76, 127
2, 61200, Control_c, 0, 64, 0
2, 61246, Note_on_c, 0, 76, 0
2, 61248, Control_c, 0, 64, 127
2, 61248, Note_on_c, 0, 67, 104
2, 61248, Note_on_c, 0, 59, 104
2, 61344, Note_on_c, 0, 67, 0
2, 61344, Note_on_c, 0, 59, 0
2, 61344, Note_on_c, 0, 54, 113
2, 61438, Note_on_c, 0, 54, 0
2, 61440, Note_on_c, 0, 83, 127
2, 61440, Note_on_c, 0, 88, 123
2, 61536, Note_on_c, 0, 83, 0
2, 61536, Note_on_c, 0, 88, 0
2, 61536, Note_on_c, 0, 79, 123
2, 61632, Note_on_c, 0, 79, 0
2, 61632, Note_on_c, 0, 83, 127
2, 61632, Note_on_c, 0, 88, 127
2, 61728, Note_on_c, 0, 83, 0
2, 61728, Note_on_c, 0, 88, 0
2, 61728, Note_on_c, 0, 76, 123
2, 61776, Control_c, 0, 64, 0
2, 61822, Note_on_c, 0, 76, 0
2, 61824, Note_on_c, 0, 76, 127
2, 61824, Control_c, 0, 64, 127
2, 61824, Note_on_c, 0, 54, 124
2, 61824, Note_on_c, 0, 61, 127
2, 61824, Note_on_c, 0, 64, 123
2, 61824, Note_on_c, 0, 79, 122
2, 61824, Note_on_c, 0, 88, 127
2, 61824, Note_on_c, 0, 82, 127
2, 61824, Note_on_c, 0, 85, 122
2, 61872, Note_on_c, 0, 76, 0
2, 61872, Note_on_c, 0, 54, 0
2, 61872, Note_on_c, 0, 61, 0
2, 61872, Note_on_c, 0, 64, 0
2, 61872, Note_on_c, 0, 79, 0
2, 61872, Note_on_c, 0, 88, 0
2, 61872, Note_on_c, 0, 82, 0
2, 61872, Note_on_c, 0, 85, 0
2, 62400, Note_on_c, 0, 88, 104
2, 62400, Note_on_c, 0, 67, 106
2, 62496, Note_on_c, 0, 88, 0
2, 62496, Note_on_c, 0, 79, 109
2, 62560, Note_on_c, 0, 67, 0
2, 62592, Note_on_c, 0, 79, 0
2, 62592, Note_on_c, 0, 73, 111
2, 62592, Note_on_c, 0, 85, 125
2, 62686, Note_on_c, 0, 73, 0
2, 62688, Note_on_c, 0, 85, 0
2, 62688, Note_on_c, 0, 91, 125
2, 62688, Note_on_c, 0, 94, 124
2, 62784, Note_on_c, 0, 91, 0
2, 62784, Note_on_c, 0, 94, 0
2, 62784, Note_on_c, 0, 85, 127
2, 62880, Note_on_c, 0, 85, 0
2, 62880, Note_on_c, 0, 100, 123
2, 62974, Note_on_c, 0, 100, 0
2, 62976, Note_on_c, 0, 85, 111
2, 62976, Note_on_c, 0, 64, 102
2, 63072, Note_on_c, 0, 85, 0
2, 63072, Note_on_c, 0, 76, 109
2, 63136, Note_on_c, 0, 64, 0
2, 63168, Note_on_c, 0, 76, 0
2, 63168, Note_on_c, 0, 82, 127
2, 63168, Note_on_c, 0, 70, 113
2, 63262, Note_on_c, 0, 70, 0
2, 63264, Note_on_c, 0, 82, 0
2, 63264, Note_on_c, 0, 91, 122
2, 63264, Note_on_c, 0, 88, 122
2, 63360, Note_on_c, 0, 91, 0
2, 63360, Note_on_c, 0, 88, 0
2, 63360, Note_on_c, 0, 82, 127
2, 63456, Note_on_c, 0, 82, 0
2, 63456, Note_on_c, 0, 97, 127
2, 63550, Note_on_c, 0, 97, 0
2, 63552, Note_on_c, 0, 61, 106
2, 63552, Note_on_c, 0, 82, 103
2, 63648, Note_on_c, 0, 82, 0
2, 63648, Note_on_c, 0, 73, 108
2, 63712, Note_on_c, 0, 61, 0
2, 63744, Note_on_c, 0, 73, 0
2, 63744, Note_on_c, 0, 67, 113
2, 63744, Note_on_c, 0, 79, 127
2, 63838, Note_on_c, 0, 67, 0
2, 63840, Note_on_c, 0, 79, 0
2, 63840, Note_on_c, 0, 88, 127
2, 63840, Note_on_c, 0, 85, 127
2, 63936, Note_on_c, 0, 88, 0
2, 63936, Note_on_c, 0, 85, 0
2, 63936, Note_on_c, 0, 79, 124
2, 64032, Note_on_c, 0, 79, 0
2, 64032, Note_on_c, 0, 94, 127
2, 64126, Note_on_c, 0, 94, 0
2, 64128, Note_on_c, 0, 59, 108
2, 64128, Note_on_c, 0, 79, 109
2, 64224, Note_on_c, 0, 79, 0
2, 64224, Note_on_c, 0, 70, 109
2, 64288, Note_on_c, 0, 59, 0
2, 64320, Note_on_c, 0, 70, 0
2, 64320, Note_on_c, 0, 76, 127
2, 64320, Note_on_c, 0, 64, 109
2, 64414, Note_on_c, 0, 64, 0
2, 64416, Note_on_c, 0, 76, 0
2, 64416, Note_on_c, 0, 85, 127
2, 64416, Note_on_c, 0, 82, 127
2, 64512, Note_on_c, 0, 85, 0
2, 64512, Note_on_c, 0, 82, 0
2, 64512, Note_on_c, 0, 76, 122
2, 64608, Note_on_c, 0, 76, 0
2, 64608, Note_on_c, 0, 91, 127
2, 64702, Note_on_c, 0, 91, 0
2, 64704, Note_on_c, 0, 55, 100
2, 64704, Note_on_c, 0, 76, 108
2, 64800, Note_on_c, 0, 76, 0
2, 64800, Note_on_c, 0, 67, 104
2, 64864, Note_on_c, 0, 55, 0
2, 64896, Note_on_c, 0, 67, 0
2, 64896, Note_on_c, 0, 61, 110
2, 64896, Note_on_c, 0, 73, 127
2, 64990, Note_on_c, 0, 61, 0
2, 64992, Note_on_c, 0, 73, 0
2, 64992, Note_on_c, 0, 82, 127
2, 64992, Note_on_c, 0, 79, 127
2, 65088, Note_on_c, 0, 82, 0
2, 65088, Note_on_c, 0, 79, 0
2, 65088, Note_on_c, 0, 73, 126
2, 65184, Note_on_c, 0, 73, 0
2, 65184, Note_on_c, 0, 88, 127
2, 65278, Note_on_c, 0, 88, 0
2, 65280, Note_on_c, 0, 52, 105
2, 65280, Note_on_c, 0, 73, 108
2, 65376, Note_on_c, 0, 73, 0
2, 65376, Note_on_c, 0, 64, 111
2, 65440, Note_on_c, 0, 52, 0
2, 65472, Note_on_c, 0, 64, 0
2, 65472, Note_on_c, 0, 70, 122
2, 65472, Note_on_c, 0, 58, 111
2, 65566, Note_on_c, 0, 58, 0
2, 65568, Note_on_c, 0, 70, 0
2, 65568, Note_on_c, 0, 76, 122
2, 65568, Note_on_c, 0, 79, 127
2, 65664, Note_on_c, 0, 76, 0
2, 65664, Note_on_c, 0, 79, 0
2, 65664, Note_on_c, 0, 70, 127
2, 65760, Note_on_c, 0, 70, 0
2, 65760, Note_on_c, 0, 85, 127
2, 65854, Note_on_c, 0, 85, 0
2, 65856, Note_on_c, 0, 70, 106
2, 65856, Note_on_c, 0, 49, 103
2, 65952, Note_on_c, 0, 70, 0
2, 65952, Note_on_c, 0, 61, 111
2, 66016, Note_on_c, 0, 49, 0
2, 66048, Note_on_c, 0, 61, 0
2, 66048, Note_on_c, 0, 67, 127
2, 66048, Note_on_c, 0, 55, 105
2, 66142, Note_on_c, 0, 55, 0
2, 66144, Note_on_c, 0, 67, 0
2, 66144, Note_on_c, 0, 73, 123
2, 66144, Note_on_c, 0, 76, 127
2, 66240, Note_on_c, 0, 73, 0
2, 66240, Note_on_c, 0, 76, 0
2, 66240, Note_on_c, 0, 67, 127
2, 66336, Note_on_c, 0, 67, 0
2, 66336, Note_on_c, 0, 82, 127
2, 66384, Control_c, 0, 64, 0
2, 66430, Note_on_c, 0, 82, 0
2, 66432, Control_c, 0, 64, 127
2, 66432, Note_on_c, 0, 64, 127
2, 66528, Note_on_c, 0, 55, 111
2, 66624, Note_on_c, 0, 55, 0
2, 66624, Note_on_c, 0, 49, 112
2, 66688, Note_on_c, 0, 64, 0
2, 66718, Note_on_c, 0, 49, 0
2, 66720, Note_on_c, 0, 61, 127
2, 66816, Note_on_c, 0, 67, 124
2, 66912, Note_on_c, 0, 67, 0
2, 66912, Note_on_c, 0, 76, 125
2, 66976, Note_on_c, 0, 61, 0
2, 66984, Control_c, 0, 64, 0
2, 67006, Note_on_c, 0, 76, 0
2, 67008, Note_on_c, 0, 64, 126
2, 67008, Control_c, 0, 64, 127
2, 67104, Note_on_c, 0, 55, 108
2, 67200, Note_on_c, 0, 55, 0
2, 67200, Note_on_c, 0, 48, 107
2, 67264, Note_on_c, 0, 64, 0
2, 67294, Note_on_c, 0, 48, 0
2, 67296, Note_on_c, 0, 60, 125
2, 67392, Note_on_c, 0, 67, 123
2, 67488, Note_on_c, 0, 67, 0
2, 67488, Note_on_c, 0, 76, 127
2, 67536, Control_c, 0, 64, 0
2, 67552, Note_on_c, 0, 60, 0
2, 67582, Note_on_c, 0, 76, 0
2, 67584, Control_c, 0, 64, 127
2, 67584, Note_on_c, 0, 64, 123
2, 67680, Note_on_c, 0, 55, 112
2, 67776, Note_on_c, 0, 55, 0
2, 67776, Note_on_c, 0, 47, 107
2, 67840, Note_on_c, 0, 64, 0
2, 67870, Note_on_c, 0, 47, 0
2, 67872, Note_on_c, 0, 59, 125
2, 67968, Note_on_c, 0, 67, 127
2, 68064, Note_on_c, 0, 67, 0
2, 68064, Note_on_c, 0, 76, 127
2, 68112, Control_c, 0, 64, 0
2, 68128, Note_on_c, 0, 59, 0
2, 68158, Note_on_c, 0, 76, 0
2, 68160, Note_on_c, 0, 64, 127
2, 68160, Control_c, 0, 64, 127
2, 68256, Note_on_c, 0, 55, 103
2, 68352, Note_on_c, 0, 55, 0
2, 68352, Note_on_c, 0, 46, 113
2, 68416, Note_on_c, 0, 64, 0
2, 68446, Note_on_c, 0, 46, 0
2, 68448, Note_on_c, 0, 58, 127
2, 68544, Note_on_c, 0, 67, 124
2, 68640, Note_on_c, 0, 67, 0
2, 68640, Note_on_c, 0, 76, 127
2, 68688, Control_c, 0, 64, 0
2, 68704, Note_on_c, 0, 58, 0
2, 68734, Note_on_c, 0, 76, 0
2, 68736, Note_on_c, 0, 64, 127
2, 68736, Control_c, 0, 64, 127
2, 68832, Note_on_c, 0, 55, 105
2, 68928, Note_on_c, 0, 55, 0
2, 68928, Note_on_c, 0, 49, 113
2, 68992, Note_on_c, 0, 64, 0
2, 69022, Note_on_c, 0, 49, 0
2, 69024, Note_on_c, 0, 61, 125
2, 69120, Note_on_c, 0, 67, 123
2, 69216, Note_on_c, 0, 67, 0
2, 69216, Note_on_c, 0, 76, 127
2, 69264, Control_c, 0, 64, 0
2, 69280, Note_on_c, 0, 61, 0
2, 69310, Note_on_c, 0, 76, 0
2, 69312, Note_on_c, 0, 64, 126
2, 69312, Control_c, 0, 64, 127
2, 69408, Note_on_c, 0, 55, 105
2, 69504, Note_on_c, 0, 55, 0
2, 69504, Note_on_c, 0, 48, 105
2, 69568, Note_on_c, 0, 64, 0
2, 69598, Note_on_c, 0, 48, 0
2, 69600, Note_on_c, 0, 60, 127
2, 69696, Note_on_c, 0, 67, 127
2, 69792, Note_on_c, 0, 67, 0
2, 69792, Note_on_c, 0, 76, 127
2, 69840, Control_c, 0, 64, 0
2, 69856, Note_on_c, 0, 60, 0
2, 69886, Note_on_c, 0, 76, 0
2, 69888, Control_c, 0, 64, 127
2, 69888, Note_on_c, 0, 64, 127
2, 69984, Note_on_c, 0, 55, 105
2, 70080, Note_on_c, 0, 55, 0
2, 70080, Note_on_c, 0, 47, 107
2, 70144, Note_on_c, 0, 64, 0
2, 70174, Note_on_c, 0, 47, 0
2, 70176, Note_on_c, 0, 59, 122
2, 70272, Note_on_c, 0, 67, 125
2, 70368, Note_on_c, 0, 67, 0
2, 70368, Note_on_c, 0, 76, 127
2, 70416, Control_c, 0, 64, 0
2, 70432, Note_on_c, 0, 59, 0
2, 70462, Note_on_c, 0, 76, 0
2, 70464, Note_on_c, 0, 64, 127
2, 70464, Control_c, 0, 64, 127
2, 70560, Note_on_c, 0, 55, 107
2, 70656, Note_on_c, 0, 55, 0
2, 70656, Note_on_c, 0, 46, 110
2, 70720, Note_on_c, 0, 64, 0
2, 70750, Note_on_c, 0, 46, 0
2, 70752, Note_on_c, 0, 58, 123
2, 70848, Note_on_c, 0, 67, 127
2, 70944, Note_on_c, 0, 67, 0
2, 70944, Note_on_c, 0, 76, 123
2, 70992, Control_c, 0, 64, 0
2, 71008, Note_on_c, 0, 58, 0
2, 71038, Note_on_c, 0, 76, 0
2, 71040, Note_on_c, 0, 41, 67
2, 71040, Note_on_c, 0, 50, 58
2, 71136, Note_on_c, 0, 41, 0
2, 71136, Note_on_c, 0, 50, 0
2, 71136, Note_on_c, 0, 42, 49
2, 71232, Note_on_c, 0, 42, 0
2, 71232, Note_on_c, 0, 36, 43
2, 71326, Note_on_c, 0, 36, 0
2, 71328, Note_on_c, 0, 53, 46
2, 71424, Note_on_c, 0, 53, 0
2, 71424, Note_on_c, 0, 54, 62
2, 71520, Note_on_c, 0, 54, 0
2, 71520, Note_on_c, 0, 59, 65
2, 71616, Note_on_c, 0, 59, 0
2, 71616, Note_on_c, 0, 52, 59
2, 71616, Note_on_c, 0, 55, 59
2, 71616, Note_on_c, 0, 62, 68
2, 71712, Note_on_c, 0, 62, 0
2, 71712, Note_on_c, 0, 58, 75
2, 71808, Note_on_c, 0, 52, 0
2, 71808, Note_on_c, 0, 55, 0
2, 71808, Note_on_c, 0, 58, 0
2, 71808, Note_on_c, 0, 61, 79
2, 71808, Note_on_c, 0, 50, 41
2, 71808, Note_on_c, 0, 54, 43
2, 71904, Note_on_c, 0, 61, 0
2, 71904, Note_on_c, 0, 59, 92
2, 71968, Note_on_c, 0, 50, 0
2, 71968, Note_on_c, 0, 54, 0
2, 72000, Note_on_c, 0, 59, 0
2, 72000, Note_on_c, 0, 62, 94
2, 72096, Note_on_c, 0, 62, 0
2, 72096, Note_on_c, 0, 66, 106
2, 72192, Note_on_c, 0, 66, 0
2, 72192, Note_on_c, 0, 41, 63
2, 72192, Note_on_c, 0, 71, 113
2, 72192, Note_on_c, 0, 50, 59
2, 72286, Note_on_c, 0, 71, 0
2, 72288, Note_on_c, 0, 41, 0
2, 72288, Note_on_c, 0, 50, 0
2, 72288, Note_on_c, 0, 42, 50
2, 72384, Note_on_c, 0, 42, 0
2, 72384, Note_on_c, 0, 36, 45
2, 72478, Note_on_c, 0, 36, 0
2, 72480, Note_on_c, 0, 53, 54
2, 72576, Note_on_c, 0, 53, 0
2, 72576, Note_on_c, 0, 54, 55
2, 72672, Note_on_c, 0, 54, 0
2, 72672, Note_on_c, 0, 59, 59
2, 72768, Note_on_c, 0, 59, 0
2, 72768, Note_on_c, 0, 62, 65
2, 72768, Note_on_c, 0, 52, 63
2, 72768, Note_on_c, 0, 55, 64
2, 72864, Note_on_c, 0, 62, 0
2, 72864, Note_on_c, 0, 58, 75
2, 72960, Note_on_c, 0, 52, 0
2, 72960, Note_on_c, 0, 55, 0
2, 72960, Note_on_c, 0, 58, 0
2, 72960, Note_on_c, 0, 61, 83
2, 72960, Note_on_c, 0, 54, 48
2, 72960, Note_on_c, 0, 50, 41
2, 73056, Note_on_c, 0, 61, 0
2, 73056, Note_on_c, 0, 59, 89
2, 73120, Note_on_c, 0, 54, 0
2, 73120, Note_on_c, 0, 50, 0
2, 73152, Note_on_c, 0, 59, 0
2, 73152, Note_on_c, 0, 62, 93
2, 73248, Note_on_c, 0, 62, 0
2, 73248, Note_on_c, 0, 66, 98
2, 73344, Note_on_c, 0, 66, 0
2, 73344, Note_on_c, 0, 74, 106
2, 73344, Note_on_c, 0, 47, 80
2, 73392, Note_on_c, 0, 47, 0
2, 73438, Note_on_c, 0, 74, 0
2, 73536, Note_on_c, 0, 76, 47
2, 73632, Note_on_c, 0, 76, 0
2, 73632, Note_on_c, 0, 70, 54
2, 73728, Note_on_c, 0, 70, 0
2, 73728, Note_on_c, 0, 74, 57
2, 73824, Note_on_c, 0, 74, 0
2, 73824, Note_on_c, 0, 71, 62
2, 73920, Note_on_c, 0, 71, 0
2, 73920, Note_on_c, 0, 54, 42
2, 73920, Note_on_c, 0, 79, 65
2, 73920, Note_on_c, 0, 62, 46
2, 73968, Note_on_c, 0, 54, 0
2, 73968, Note_on_c, 0, 62, 0
2, 74016, Note_on_c, 0, 79, 0
2, 74016, Note_on_c, 0, 73, 66
2, 74112, Note_on_c, 0, 73, 0
2, 74112, Note_on_c, 0, 78, 72
2, 74112, Note_on_c, 0, 47, 52
2, 74160, Note_on_c, 0, 47, 0
2, 74208, Note_on_c, 0, 78, 0
2, 74208, Note_on_c, 0, 74, 67
2, 74304, Note_on_c, 0, 74, 0
2, 74304, Note_on_c, 0, 62, 60
2, 74304, Note_on_c, 0, 85, 72
2, 74304, Note_on_c, 0, 54, 62
2, 74352, Note_on_c, 0, 62, 0
2, 74352, Note_on_c, 0, 54, 0
2, 74400, Note_on_c, 0, 85, 0
2, 74400, Note_on_c, 0, 77, 75
2, 74496, Note_on_c, 0, 77, 0
2, 74496, Note_on_c, 0, 47, 72
2, 74496, Note_on_c, 0, 83, 79
2, 74544, Note_on_c, 0, 47, 0
2, 74592, Note_on_c, 0, 83, 0
2, 74592, Note_on_c, 0, 78, 89
2, 74688, Note_on_c, 0, 78, 0
2, 74688, Note_on_c, 0, 62, 76
2, 74688, Note_on_c, 0, 54, 81
2, 74688, Note_on_c, 0, 88, 96
2, 74736, Note_on_c, 0, 62, 0
2, 74736, Note_on_c, 0, 54, 0
2, 74784, Note_on_c, 0, 88, 0
2, 74784, Note_on_c, 0, 82, 95
2, 74880, Note_on_c, 0, 82, 0
2, 74880, Note_on_c, 0, 86, 104
2, 74880, Note_on_c, 0, 47, 85
2, 74928, Note_on_c, 0, 47, 0
2, 74976, Note_on_c, 0, 86, 0
2, 74976, Note_on_c, 0, 83, 101
2, 75072, Note_on_c, 0, 83, 0
2, 75072, Note_on_c, 0, 54, 92
2, 75072, Note_on_c, 0, 62, 91
2, 75072, Note_on_c, 0, 95, 109
2, 75120, Note_on_c, 0, 54, 0
2, 75120, Note_on_c, 0, 62, 0
2, 75120, Note_on_c, 0, 95, 0
2, 75648, Note_on_c, 0, 52, 61
2, 75648, Note_on_c, 0, 42, 65
2, 75744, Note_on_c, 0, 52, 0
2, 75744, Note_on_c, 0, 42, 0
2, 75744, Note_on_c, 0, 43, 44
2, 75840, Note_on_c, 0, 43, 0
2, 75840, Note_on_c, 0, 35, 45
2, 75934, Note_on_c, 0, 35, 0
2, 75936, Note_on_c, 0, 58, 62
2, 76032, Note_on_c, 0, 58, 0
2, 76032, Note_on_c, 0, 59, 62
2, 76128, Note_on_c, 0, 59, 0
2, 76128, Note_on_c, 0, 64, 75
2, 76224, Note_on_c, 0, 64, 0
2, 76224, Note_on_c, 0, 67, 70
2, 76224, Note_on_c, 0, 60, 58
2, 76224, Note_on_c, 0, 57, 61
2, 76320, Note_on_c, 0, 67, 0
2, 76320, Note_on_c, 0, 63, 79
2, 76416, Note_on_c, 0, 60, 0
2, 76416, Note_on_c, 0, 57, 0
2, 76416, Note_on_c, 0, 63, 0
2, 76416, Note_on_c, 0, 55, 40
2, 76416, Note_on_c, 0, 66, 83
2, 76416, Note_on_c, 0, 59, 43
2, 76512, Note_on_c, 0, 66, 0
2, 76512, Note_on_c, 0, 64, 91
2, 76576, Note_on_c, 0, 55, 0
2, 76576, Note_on_c, 0, 59, 0
2, 76608, Note_on_c, 0, 64, 0
2, 76608, Note_on_c, 0, 67, 99
2, 76704, Note_on_c, 0, 67, 0
2, 76704, Note_on_c, 0, 71, 99
2, 76800, Note_on_c, 0, 71, 0
2, 76800, Note_on_c, 0, 52, 46
2, 76800, Note_on_c, 0, 76, 104
2, 76800, Note_on_c, 0, 42, 48
2, 76832, Note_on_c, 0, 76, 0
2, 76896, Note_on_c, 0, 52, 0
2, 76896, Note_on_c, 0, 42, 0
2, 76896, Note_on_c, 0, 43, 42
2, 76992, Note_on_c, 0, 43, 0
2, 76992, Note_on_c, 0, 35, 42
2, 77086, Note_on_c, 0, 35, 0
2, 77088, Note_on_c, 0, 58, 47
2, 77184, Note_on_c, 0, 58, 0
2, 77184, Note_on_c, 0, 59, 54
2, 77280, Note_on_c, 0, 59, 0
2, 77280, Note_on_c, 0, 64, 62
2, 77376, Note_on_c, 0, 64, 0
2, 77376, Note_on_c, 0, 60, 63
2, 77376, Note_on_c, 0, 57, 60
2, 77376, Note_on_c, 0, 67, 68
2, 77472, Note_on_c, 0, 67, 0
2, 77472, Note_on_c, 0, 63, 75
2, 77568, Note_on_c, 0, 60, 0
2, 77568, Note_on_c, 0, 57, 0
2, 77568, Note_on_c, 0, 63, 0
2, 77568, Note_on_c, 0, 59, 42
2, 77568, Note_on_c, 0, 66, 84
2, 77568, Note_on_c, 0, 55, 43
2, 77664, Note_on_c, 0, 66, 0
2, 77664, Note_on_c, 0, 64, 87
2, 77728, Note_on_c, 0, 59, 0
2, 77728, Note_on_c, 0, 55, 0
2, 77760, Note_on_c, 0, 64, 0
2, 77760, Note_on_c, 0, 67, 89
2, 77856, Note_on_c, 0, 67, 0
2, 77856, Note_on_c, 0, 71, 103
2, 77952, Note_on_c, 0, 71, 0
2, 77952, Note_on_c, 0, 79, 112
2, 77952, Note_on_c, 0, 47, 41
2, 78000, Note_on_c, 0, 47, 0
2, 78046, Note_on_c, 0, 79, 0
2, 78144, Note_on_c, 0, 78, 42
2, 78240, Note_on_c, 0, 78, 0
2, 78240, Note_on_c, 0, 70, 46
2, 78336, Note_on_c, 0, 70, 0
2, 78336, Note_on_c, 0, 76, 49
2, 78432, Note_on_c, 0, 76, 0
2, 78432, Note_on_c, 0, 71, 51
2, 78528, Note_on_c, 0, 71, 0
2, 78528, Note_on_c, 0, 55, 48
2, 78528, Note_on_c, 0, 81, 62
2, 78528, Note_on_c, 0, 64, 48
2, 78576, Note_on_c, 0, 55, 0
2, 78576, Note_on_c, 0, 64, 0
2, 78624, Note_on_c, 0, 81, 0
2, 78624, Note_on_c, 0, 75, 63
2, 78720, Note_on_c, 0, 75, 0
2, 78720, Note_on_c, 0, 79, 70
2, 78720, Note_on_c, 0, 47, 56
2, 78768, Note_on_c, 0, 47, 0
2, 78816, Note_on_c, 0, 79, 0
2, 78816, Note_on_c, 0, 76, 70
2, 78912, Note_on_c, 0, 76, 0
2, 78912, Note_on_c, 0, 84, 75
2, 78912, Note_on_c, 0, 64, 59
2, 78912, Note_on_c, 0, 55, 55
2, 78960, Note_on_c, 0, 64, 0
2, 78960, Note_on_c, 0, 55, 0
2, 79008, Note_on_c, 0, 84, 0
2, 79008, Note_on_c, 0, 78, 84
2, 79104, Note_on_c, 0, 78, 0
2, 79104, Note_on_c, 0, 47, 64
2, 79104, Note_on_c, 0, 83, 85
2, 79152, Note_on_c, 0, 47, 0
2, 79200, Note_on_c, 0, 83, 0
2, 79200, Note_on_c, 0, 79, 93
2, 79296, Note_on_c, 0, 79, 0
2, 79296, Note_on_c, 0, 55, 74
2, 79296, Note_on_c, 0, 90, 91
2, 79296, Note_on_c, 0, 64, 72
2, 79344, Note_on_c, 0, 55, 0
2, 79344, Note_on_c, 0, 64, 0
2, 79392, Note_on_c, 0, 90, 0
2, 79392, Note_on_c, 0, 82, 98
2, 79488, Note_on_c, 0, 82, 0
2, 79488, Note_on_c, 0, 88, 103
2, 79488, Note_on_c, 0, 47, 84
2, 79536, Note_on_c, 0, 47, 0
2, 79584, Note_on_c, 0, 88, 0
2, 79584, Note_on_c, 0, 83, 105
2, 79680, Note_on_c, 0, 83, 0
2, 79680, Note_on_c, 0, 55, 90
2, 79680, Note_on_c, 0, 100, 110
2, 79680, Note_on_c, 0, 64, 93
2, 79728, Note_on_c, 0, 55, 0
2, 79728, Note_on_c, 0, 64, 0
2, 79840, Note_on_c, 0, 100, 0
2, 80256, Note_on_c, 0, 78, 80
2, 80256, Note_on_c, 0, 90, 90
2, 80256, Note_on_c, 0, 70, 60
2, 80256, Note_on_c, 0, 76, 60
2, 80256, Note_on_c, 0, 73, 63
2, 80416, Note_on_c, 0, 78, 0
2, 80448, Note_on_c, 0, 90, 0
2, 80448, Note_on_c, 0, 91, 94
2, 80448, Note_on_c, 0, 79, 73
2, 80544, Note_on_c, 0, 91, 0
2, 80544, Note_on_c, 0, 90, 92
2, 80640, Note_on_c, 0, 90, 0
2, 80640, Note_on_c, 0, 89, 95
2, 80736, Note_on_c, 0, 89, 0
2, 80736, Note_on_c, 0, 88, 91
2, 80832, Note_on_c, 0, 70, 0
2, 80832, Note_on_c, 0, 76, 0
2, 80832, Note_on_c, 0, 73, 0
2, 80832, Note_on_c, 0, 88, 0
2, 80832, Note_on_c, 0, 74, 57
2, 80832, Note_on_c, 0, 88, 94
2, 80832, Note_on_c, 0, 71, 61
2, 80928, Note_on_c, 0, 88, 0
2, 80928, Note_on_c, 0, 86, 89
2, 80992, Note_on_c, 0, 79, 0
2, 80992, Note_on_c, 0, 74, 0
2, 80992, Note_on_c, 0, 71, 0
2, 81024, Note_on_c, 0, 86, 0
2, 81024, Note_on_c, 0, 85, 95
2, 81024, Note_on_c, 0, 54, 76
2, 81024, Note_on_c, 0, 66, 76
2, 81120, Note_on_c, 0, 85, 0
2, 81120, Note_on_c, 0, 83, 88
2, 81184, Note_on_c, 0, 54, 0
2, 81184, Note_on_c, 0, 66, 0
2, 81216, Note_on_c, 0, 83, 0
2, 81216, Note_on_c, 0, 81, 90
2, 81312, Note_on_c, 0, 81, 0
2, 81312, Note_on_c, 0, 79, 91
2, 81408, Note_on_c, 0, 79, 0
2, 81408, Note_on_c, 0, 78, 89
2, 81408, Note_on_c, 0, 69, 71
2, 81408, Note_on_c, 0, 73, 74
2, 81456, Note_on_c, 0, 69, 0
2, 81456, Note_on_c, 0, 73, 0
2, 81504, Note_on_c, 0, 78, 0
2, 81504, Note_on_c, 0, 79, 88
2, 81600, Note_on_c, 0, 79, 0
2, 81600, Note_on_c, 0, 54, 74
2, 81600, Note_on_c, 0, 77, 85
2, 81648, Note_on_c, 0, 54, 0
2, 81696, Note_on_c, 0, 77, 0
2, 81696, Note_on_c, 0, 78, 85
2, 81792, Note_on_c, 0, 78, 0
2, 81792, Note_on_c, 0, 67, 77
2, 81792, Note_on_c, 0, 71, 75
2, 81792, Note_on_c, 0, 83, 85
2, 81840, Note_on_c, 0, 67, 0
2, 81840, Note_on_c, 0, 71, 0
2, 81888, Note_on_c, 0, 83, 0
2, 81888, Note_on_c, 0, 76, 83
2, 81984, Note_on_c, 0, 76, 0
2, 81984, Note_on_c, 0, 66, 75
2, 81984, Note_on_c, 0, 74, 88
2, 81984, Note_on_c, 0, 69, 71
2, 82032, Note_on_c, 0, 66, 0
2, 82032, Note_on_c, 0, 69, 0
2, 82080, Note_on_c, 0, 74, 0
2, 82080, Note_on_c, 0, 76, 86
2, 82176, Note_on_c, 0, 76, 0
2, 82176, Note_on_c, 0, 73, 81
2, 82176, Note_on_c, 0, 54, 77
2, 82224, Note_on_c, 0, 54, 0
2, 82272, Note_on_c, 0, 73, 0
2, 82272, Note_on_c, 0, 74, 82
2, 82368, Note_on_c, 0, 74, 0
2, 82368, Note_on_c, 0, 67, 80
2, 82368, Note_on_c, 0, 64, 56
2, 82368, Note_on_c, 0, 79, 81
2, 82464, Note_on_c, 0, 79, 0
2, 82464, Note_on_c, 0, 71, 73
2, 82528, Note_on_c, 0, 64, 0
2, 82558, Note_on_c, 0, 71, 0
2, 82560, Note_on_c, 0, 70, 78
2, 82560, Note_on_c, 0, 61, 64
2, 82656, Note_on_c, 0, 70, 0
2, 82656, Note_on_c, 0, 76, 78
2, 82720, Note_on_c, 0, 67, 0
2, 82752, Note_on_c, 0, 76, 0
2, 82752, Note_on_c, 0, 54, 65
2, 82752, Note_on_c, 0, 68, 80
2, 82848, Note_on_c, 0, 68, 0
2, 82848, Note_on_c, 0, 69, 77
2, 82896, Note_on_c, 0, 61, 0
2, 82944, Note_on_c, 0, 69, 0
2, 82944, Note_on_c, 0, 66, 72
2, 82944, Note_on_c, 0, 62, 79
2, 82944, Note_on_c, 0, 78, 80
2, 83040, Note_on_c, 0, 78, 0
2, 83040, Note_on_c, 0, 74, 73
2, 83104, Note_on_c, 0, 66, 0
2, 83136, Note_on_c, 0, 62, 0
2, 83136, Note_on_c, 0, 74, 0
2, 83136, Note_on_c, 0, 70, 74
2, 83136, Note_on_c, 0, 67, 72
2, 83136, Note_on_c, 0, 61, 78
2, 83232, Note_on_c, 0, 70, 0
2, 83232, Note_on_c, 0, 74, 73
2, 83296, Note_on_c, 0, 54, 0
2, 83296, Note_on_c, 0, 67, 0
2, 83328, Note_on_c, 0, 74, 0
2, 83328, Note_on_c, 0, 54, 78
2, 83328, Note_on_c, 0, 68, 79
2, 83328, Note_on_c, 0, 54, 57
2, 83424, Note_on_c, 0, 68, 0
2, 83424, Note_on_c, 0, 69, 75
2, 83472, Note_on_c, 0, 61, 0
2, 83488, Note_on_c, 0, 54, 0
2, 83520, Note_on_c, 0, 69, 0
2, 83520, Note_on_c, 0, 62, 78
2, 83520, Note_on_c, 0, 78, 73
2, 83520, Note_on_c, 0, 66, 74
2, 83616, Note_on_c, 0, 78, 0
2, 83616, Note_on_c, 0, 74, 71
2, 83680, Note_on_c, 0, 66, 0
2, 83712, Note_on_c, 0, 62, 0
2, 83712, Note_on_c, 0, 74, 0
2, 83712, Note_on_c, 0, 65, 73
2, 83712, Note_on_c, 0, 59, 79
2, 83712, Note_on_c, 0, 68, 79
2, 83808, Note_on_c, 0, 68, 0
2, 83808, Note_on_c, 0, 74, 75
2, 83872, Note_on_c, 0, 54, 0
2, 83872, Note_on_c, 0, 65, 0
2, 83904, Note_on_c, 0, 74, 0
2, 83904, Note_on_c, 0, 54, 59
2, 83904, Note_on_c, 0, 54, 76
2, 83904, Note_on_c, 0, 66, 70
2, 84000, Note_on_c, 0, 66, 0
2, 84000, Note_on_c, 0, 67, 74
2, 84048, Note_on_c, 0, 59, 0
2, 84064, Note_on_c, 0, 54, 0
2, 84096, Note_on_c, 0, 67, 0
2, 84096, Note_on_c, 0, 76, 76
2, 84096, Note_on_c, 0, 64, 75
2, 84096, Note_on_c, 0, 61, 76
2, 84192, Note_on_c, 0, 76, 0
2, 84192, Note_on_c, 0, 73, 76
2, 84256, Note_on_c, 0, 64, 0
2, 84288, Note_on_c, 0, 61, 0
2, 84288, Note_on_c, 0, 73, 0
2, 84288, Note_on_c, 0, 58, 74
2, 84288, Note_on_c, 0, 67, 74
2, 84384, Note_on_c, 0, 67, 0
2, 84384, Note_on_c, 0, 73, 72
2, 84448, Note_on_c, 0, 54, 0
2, 84480, Note_on_c, 0, 73, 0
2, 84480, Note_on_c, 0, 54, 61
2, 84480, Note_on_c, 0, 65, 73
2, 84576, Note_on_c, 0, 65, 0
2, 84576, Note_on_c, 0, 66, 72
2, 84624, Note_on_c, 0, 58, 0
2, 84672, Note_on_c, 0, 66, 0
2, 84672, Note_on_c, 0, 59, 71
2, 84672, Note_on_c, 0, 74, 76
2, 84672, Note_on_c, 0, 62, 74
2, 84768, Note_on_c, 0, 74, 0
2, 84768, Note_on_c, 0, 71, 80
2, 84832, Note_on_c, 0, 62, 0
2, 84862, Note_on_c, 0, 71, 0
2, 84864, Note_on_c, 0, 59, 0
2, 84864, Note_on_c, 0, 66, 75
2, 84864, Note_on_c, 0, 58, 58
2, 84864, Note_on_c, 0, 64, 79
2, 84958, Note_on_c, 0, 54, 0
2, 84958, Note_on_c, 0, 66, 0
2, 84958, Note_on_c, 0, 58, 0
2, 84958, Note_on_c, 0, 64, 0
2, 85056, Note_on_c, 0, 67, 94
2, 85056, Note_on_c, 0, 30, 76
2, 85056, Note_on_c, 0, 42, 77
2, 85104, Note_on_c, 0, 30, 0
2, 85104, Note_on_c, 0, 42, 0
2, 85152, Note_on_c, 0, 67, 0
2, 85152, Note_on_c, 0, 66, 96
2, 85248, Note_on_c, 0, 66, 0
2, 85248, Note_on_c, 0, 65, 95
2, 85344, Note_on_c, 0, 65, 0
2, 85344, Note_on_c, 0, 64, 87
2, 85440, Note_on_c, 0, 64, 0
2, 85440, Note_on_c, 0, 55, 73
2, 85440, Note_on_c, 0, 64, 92
2, 85440, Note_on_c, 0, 50, 70
2, 85440, Note_on_c, 0, 47, 73
2, 85488, Note_on_c, 0, 55, 0
2, 85488, Note_on_c, 0, 50, 0
2, 85488, Note_on_c, 0, 47, 0
2, 85536, Note_on_c, 0, 64, 0
2, 85536, Note_on_c, 0, 62, 94
2, 85632, Note_on_c, 0, 62, 0
2, 85632, Note_on_c, 0, 61, 96
2, 85632, Note_on_c, 0, 42, 77
2, 85632, Note_on_c, 0, 30, 72
2, 85680, Note_on_c, 0, 42, 0
2, 85680, Note_on_c, 0, 30, 0
2, 85728, Note_on_c, 0, 61, 0
2, 85728, Note_on_c, 0, 59, 96
2, 85824, Note_on_c, 0, 59, 0
2, 85824, Note_on_c, 0, 57, 89
2, 85920, Note_on_c, 0, 57, 0
2, 85920, Note_on_c, 0, 55, 97
2, 86016, Note_on_c, 0, 55, 0
2, 86016, Note_on_c, 0, 45, 72
2, 86016, Note_on_c, 0, 49, 80
2, 86016, Note_on_c, 0, 54, 94
2, 86064, Note_on_c, 0, 45, 0
2, 86064, Note_on_c, 0, 49, 0
2, 86112, Note_on_c, 0, 54, 0
2, 86112, Note_on_c, 0, 55, 85
2, 86208, Note_on_c, 0, 55, 0
2, 86208, Note_on_c, 0, 53, 88
2, 86208, Note_on_c, 0, 30, 72
2, 86256, Note_on_c, 0, 30, 0
2, 86304, Note_on_c, 0, 53, 0
2, 86304, Note_on_c, 0, 54, 83
2, 86400, Note_on_c, 0, 54, 0
2, 86400, Note_on_c, 0, 47, 73
2, 86400, Note_on_c, 0, 59, 85
2, 86400, Note_on_c, 0, 43, 76
2, 86448, Note_on_c, 0, 47, 0
2, 86448, Note_on_c, 0, 43, 0
2, 86496, Note_on_c, 0, 59, 0
2, 86496, Note_on_c, 0, 53, 84
2, 86592, Note_on_c, 0, 53, 0
2, 86592, Note_on_c, 0, 42, 77
2, 86592, Note_on_c, 0, 45, 80
2, 86592, Note_on_c, 0, 50, 74
2, 86640, Note_on_c, 0, 42, 0
2, 86640, Note_on_c, 0, 45, 0
2, 86688, Note_on_c, 0, 50, 0
2, 86688, Note_on_c, 0, 52, 78
2, 86784, Note_on_c, 0, 52, 0
2, 86784, Note_on_c, 0, 49, 77
2, 86784, Note_on_c, 0, 30, 77
2, 86832, Note_on_c, 0, 30, 0
2, 86880, Note_on_c, 0, 49, 0
2, 86880, Note_on_c, 0, 50, 72
2, 86976, Note_on_c, 0, 50, 0
2, 86976, Note_on_c, 0, 55, 71
2, 86976, Note_on_c, 0, 40, 77
2, 86976, Note_on_c, 0, 43, 75
2, 87072, Note_on_c, 0, 55, 0
2, 87072, Note_on_c, 0, 47, 61
2, 87136, Note_on_c, 0, 40, 0
2, 87166, Note_on_c, 0, 47, 0
2, 87168, Note_on_c, 0, 46, 60
2, 87168, Note_on_c, 0, 37, 70
2, 87264, Note_on_c, 0, 46, 0
2, 87264, Note_on_c, 0, 49, 57
2, 87360, Note_on_c, 0, 49, 0
2, 87360, Note_on_c, 0, 52, 57
2, 87456, Note_on_c, 0, 52, 0
2, 87456, Note_on_c, 0, 55, 59
2, 87552, Note_on_c, 0, 55, 0
2, 87552, Note_on_c, 0, 58, 61
2, 87648, Note_on_c, 0, 58, 0
2, 87648, Note_on_c, 0, 61, 60
2, 87744, Note_on_c, 0, 61, 0
2, 87744, Note_on_c, 0, 63, 64
2, 87840, Note_on_c, 0, 63, 0
2, 87840, Note_on_c, 0, 64, 61
2, 87936, Note_on_c, 0, 64, 0
2, 87936, Note_on_c, 0, 65, 69
2, 88032, Note_on_c, 0, 65, 0
2, 88032, Note_on_c, 0, 66, 71
2, 88080, Note_on_c, 0, 37, 0
2, 88128, Note_on_c, 0, 66, 0
2, 88128, Note_on_c, 0, 67, 72
2, 88128, Note_on_c, 0, 35, 74
2, 88224, Note_on_c, 0, 67, 0
2, 88224, Note_on_c, 0, 62, 68
2, 88288, Note_on_c, 0, 35, 0
2, 88320, Note_on_c, 0, 62, 0
2, 88320, Note_on_c, 0, 34, 79
2, 88320, Note_on_c, 0, 61, 76
2, 88414, Note_on_c, 0, 61, 0
2, 88416, Note_on_c, 0, 64, 71
2, 88480, Note_on_c, 0, 43, 0
2, 88480, Note_on_c, 0, 34, 0
2, 88512, Note_on_c, 0, 64, 0
2, 88512, Note_on_c, 0, 76, 78
2, 88512, Note_on_c, 0, 73, 75
2, 88608, Note_on_c, 0, 76, 0
2, 88608, Note_on_c, 0, 73, 0
2, 88608, Note_on_c, 0, 70, 73
2, 88704, Note_on_c, 0, 70, 0
2, 88704, Note_on_c, 0, 67, 71
2, 88800, Note_on_c, 0, 67, 0
2, 88800, Note_on_c, 0, 65, 79
2, 88896, Note_on_c, 0, 65, 0
2, 88896, Note_on_c, 0, 64, 74
2, 88992, Note_on_c, 0, 64, 0
2, 88992, Note_on_c, 0, 63, 73
2, 89088, Note_on_c, 0, 63, 0
2, 89088, Note_on_c, 0, 62, 77
2, 89088, Note_on_c, 0, 55, 77
2, 89136, Note_on_c, 0, 55, 0
2, 89184, Note_on_c, 0, 62, 0
2, 89184, Note_on_c, 0, 61, 85
2, 89280, Note_on_c, 0, 61, 0
2, 89280, Note_on_c, 0, 60, 83
2, 89280, Note_on_c, 0, 55, 80
2, 89328, Note_on_c, 0, 55, 0
2, 89376, Note_on_c, 0, 60, 0
2, 89376, Note_on_c, 0, 59, 77
2, 89470, Note_on_c, 0, 59, 0
2, 89472, Note_on_c, 0, 58, 84
2, 89472, Note_on_c, 0, 49, 73
2, 89472, Note_on_c, 0, 55, 80
2, 89568, Note_on_c, 0, 58, 0
2, 89568, Note_on_c, 0, 61, 81
2, 89664, Note_on_c, 0, 61, 0
2, 89664, Note_on_c, 0, 64, 90
2, 89760, Note_on_c, 0, 64, 0
2, 89760, Note_on_c, 0, 67, 86
2, 89856, Note_on_c, 0, 67, 0
2, 89856, Note_on_c, 0, 70, 92
2, 89952, Note_on_c, 0, 70, 0
2, 89952, Note_on_c, 0, 73, 88
2, 90048, Note_on_c, 0, 73, 0
2, 90048, Note_on_c, 0, 75, 90
2, 90144, Note_on_c, 0, 75, 0
2, 90144, Note_on_c, 0, 76, 96
2, 90240, Note_on_c, 0, 76, 0
2, 90240, Note_on_c, 0, 77, 96
2, 90336, Note_on_c, 0, 77, 0
2, 90336, Note_on_c, 0, 78, 103
2, 90432, Note_on_c, 0, 49, 0
2, 90432, Note_on_c, 0, 78, 0
2, 90432, Note_on_c, 0, 47, 75
2, 90432, Note_on_c, 0, 79, 97
2, 90528, Note_on_c, 0, 79, 0
2, 90528, Note_on_c, 0, 74, 98
2, 90624, Note_on_c, 0, 47, 0
2, 90624, Note_on_c, 0, 74, 0
2, 90624, Note_on_c, 0, 46, 74
2, 90624, Note_on_c, 0, 73, 100
2, 90656, Note_on_c, 0, 73, 0
2, 90718, Note_on_c, 0, 55, 0
2, 90718, Note_on_c, 0, 46, 0
2, 90816, Note_on_c, 0, 48, 96
2, 90816, Note_on_c, 0, 76, 112
2, 90816, Note_on_c, 0, 60, 95
2, 90816, Note_on_c, 0, 79, 103
2, 90816, Note_on_c, 0, 82, 110
2, 90816, Note_on_c, 0, 70, 108
2, 90864, Note_on_c, 0, 48, 0
2, 90864, Note_on_c, 0, 76, 0
2, 90864, Note_on_c, 0, 60, 0
2, 90864, Note_on_c, 0, 79, 0
2, 90864, Note_on_c, 0, 82, 0
2, 90864, Note_on_c, 0, 70, 0
2, 91008, Note_on_c, 0, 71, 105
2, 91008, Note_on_c, 0, 83, 108
2, 91008, Note_on_c, 0, 47, 93
2, 91008, Note_on_c, 0, 79, 103
2, 91008, Note_on_c, 0, 59, 95
2, 91008, Note_on_c, 0, 76, 103
2, 91056, Note_on_c, 0, 71, 0
2, 91056, Note_on_c, 0, 83, 0
2, 91056, Note_on_c, 0, 47, 0
2, 91056, Note_on_c, 0, 79, 0
2, 91056, Note_on_c, 0, 59, 0
2, 91056, Note_on_c, 0, 76, 0
2, 91200, Note_on_c, 0, 73, 104
2, 91200, Note_on_c, 0, 85, 110
2, 91200, Note_on_c, 0, 79, 113
2, 91200, Note_on_c, 0, 46, 92
2, 91200, Note_on_c, 0, 76, 109
2, 91200, Note_on_c, 0, 58, 89
2, 91360, Note_on_c, 0, 73, 0
2, 91360, Note_on_c, 0, 85, 0
2, 91360, Note_on_c, 0, 79, 0
2, 91360, Note_on_c, 0, 46, 0
2, 91360, Note_on_c, 0, 76, 0
2, 91360, Note_on_c, 0, 58, 0
2, 91392, Note_on_c, 0, 55, 94
2, 91392, Note_on_c, 0, 43, 93
2, 91584, Note_on_c, 0, 55, 0
2, 91584, Note_on_c, 0, 43, 0
2, 91584, Note_on_c, 0, 46, 91
2, 91584, Note_on_c, 0, 34, 91
2, 91744, Note_on_c, 0, 46, 0
2, 91744, Note_on_c, 0, 34, 0
2, 91776, Note_on_c, 0, 47, 91
2, 91776, Note_on_c, 0, 35, 92
2, 92544, Note_on_c, 0, 74, 96
2, 92544, Note_on_c, 0, 62, 89
2, 92544, Note_on_c, 0, 67, 91
2, 92736, Note_on_c, 0, 74, 0
2, 92736, Note_on_c, 0, 62, 0
2, 92736, Note_on_c, 0, 67, 0
2, 92736, Note_on_c, 0, 55, 92
2, 92736, Note_on_c, 0, 62, 91
2, 92736, Note_on_c, 0, 67, 88
2, 92896, Note_on_c, 0, 55, 0
2, 92896, Note_on_c, 0, 62, 0
2, 92896, Note_on_c, 0, 67, 0
2, 92928, Note_on_c, 0, 66, 72
2, 92928, Note_on_c, 0, 55, 76
2, 92928, Note_on_c, 0, 61, 74
2, 93120, Note_on_c, 0, 66, 0
2, 93120, Note_on_c, 0, 64, 58
2, 93264, Note_on_c, 0, 47, 0
2, 93264, Note_on_c, 0, 35, 0
2, 93264, Note_on_c, 0, 55, 0
2, 93264, Note_on_c, 0, 61, 0
2, 93280, Note_on_c, 0, 64, 0
2, 93312, Note_on_c, 0, 46, 91
2, 93312, Note_on_c, 0, 34, 96
2, 93472, Note_on_c, 0, 46, 0
2, 93472, Note_on_c, 0, 34, 0
2, 93504, Note_on_c, 0, 45, 91
2, 93504, Note_on_c, 0, 57, 87
2, 93696, Note_on_c, 0, 45, 0
2, 93696, Note_on_c, 0, 57, 0
2, 93696, Note_on_c, 0, 55, 89
2, 93696, Note_on_c, 0, 43, 94
2, 93888, Note_on_c, 0, 55, 0
2, 93888, Note_on_c, 0, 43, 0
2, 93888, Note_on_c, 0, 34, 89
2, 93888, Note_on_c, 0, 46, 90
2, 94048, Note_on_c, 0, 34, 0
2, 94048, Note_on_c, 0, 46, 0
2, 94080, Note_on_c, 0, 47, 91
2, 94080, Note_on_c, 0, 35, 87
2, 94464, Note_on_c, 0, 64, 89
2, 94464, Note_on_c, 0, 67, 87
2, 94464, Note_on_c, 0, 76, 93
2, 94848, Note_on_c, 0, 64, 0
2, 94848, Note_on_c, 0, 67, 0
2, 94848, Note_on_c, 0, 76, 0
2, 94848, Note_on_c, 0, 74, 95
2, 94848, Note_on_c, 0, 62, 92
2, 94848, Note_on_c, 0, 67, 90
2, 95040, Note_on_c, 0, 74, 0
2, 95040, Note_on_c, 0, 62, 0
2, 95040, Note_on_c, 0, 67, 0
2, 95040, Note_on_c, 0, 67, 82
2, 95040, Note_on_c, 0, 62, 82
2, 95040, Note_on_c, 0, 55, 86
2, 95200, Note_on_c, 0, 67, 0
2, 95200, Note_on_c, 0, 62, 0
2, 95200, Note_on_c, 0, 55, 0
2, 95232, Note_on_c, 0, 61, 60
2, 95232, Note_on_c, 0, 66, 73
2, 95232, Note_on_c, 0, 55, 58
2, 95568, Note_on_c, 0, 66, 0
2, 95616, Note_on_c, 0, 64, 63
2, 95760, Note_on_c, 0, 47, 0
2, 95760, Note_on_c, 0, 35, 0
2, 95808, Note_on_c, 0, 35, 82
2, 95808, Note_on_c, 0, 47, 81
2, 95856, Note_on_c, 0, 35, 0
2, 95856, Note_on_c, 0, 47, 0
2, 96000, Note_on_c, 0, 35, 79
2, 96000, Note_on_c, 0, 47, 86
2, 96192, Note_on_c, 0, 35, 0
2, 96192, Note_on_c, 0, 47, 0
2, 96192, Note_on_c, 0, 34, 80
2, 96192, Note_on_c, 0, 46, 83
2, 96336, Note_on_c, 0, 61, 0
2, 96336, Note_on_c, 0, 55, 0
2, 96336, Note_on_c, 0, 64, 0
2, 96352, Note_on_c, 0, 34, 0
2, 96352, Note_on_c, 0, 46, 0
2, 96384, Note_on_c, 0, 59, 64
2, 96384, Note_on_c, 0, 35, 85
2, 96384, Note_on_c, 0, 64, 59
2, 96384, Note_on_c, 0, 47, 75
2, 96384, Note_on_c, 0, 54, 64
2, 96576, Note_on_c, 0, 64, 0
2, 96576, Note_on_c, 0, 62, 62
2, 96720, Note_on_c, 0, 59, 0
2, 96720, Note_on_c, 0, 54, 0
2, 96736, Note_on_c, 0, 62, 0
2, 96912, Note_on_c, 0, 35, 0
2, 96912, Note_on_c, 0, 47, 0
2, 96960, Note_on_c, 0, 35, 70
2, 96960, Note_on_c, 0, 47, 71
2, 97008, Note_on_c, 0, 35, 0
2, 97008, Note_on_c, 0, 47, 0
2, 97152, Note_on_c, 0, 35, 76
2, 97152, Note_on_c, 0, 47, 70
2, 97344, Note_on_c, 0, 35, 0
2, 97344, Note_on_c, 0, 47, 0
2, 97344, Note_on_c, 0, 34, 66
2, 97344, Note_on_c, 0, 46, 64
2, 97504, Note_on_c, 0, 34, 0
2, 97504, Note_on_c, 0, 46, 0
2, 97536, Note_on_c, 0, 47, 70
2, 97536, Note_on_c, 0, 64, 63
2, 97536, Note_on_c, 0, 59, 47
2, 97536, Note_on_c, 0, 35, 62
2, 97536, Note_on_c, 0, 54, 49
2, 97728, Note_on_c, 0, 64, 0
2, 97728, Note_on_c, 0, 62, 61
2, 97872, Note_on_c, 0, 59, 0
2, 97872, Note_on_c, 0, 54, 0
2, 97888, Note_on_c, 0, 62, 0
2, 98064, Note_on_c, 0, 47, 0
2, 98064, Note_on_c, 0, 35, 0
2, 98112, Note_on_c, 0, 47, 58
2, 98112, Note_on_c, 0, 35, 64
2, 98304, Note_on_c, 0, 47, 0
2, 98304, Note_on_c, 0, 35, 0
2, 98304, Note_on_c, 0, 49, 57
2, 98304, Note_on_c, 0, 37, 63
2, 98496, Note_on_c, 0, 49, 0
2, 98496, Note_on_c, 0, 37, 0
2, 98496, Note_on_c, 0, 38, 53
2, 98496, Note_on_c, 0, 50, 54
2, 98656, Note_on_c, 0, 38, 0
2, 98656, Note_on_c, 0, 50, 0
2, 98688, Note_on_c, 0, 59, 42
2, 98688, Note_on_c, 0, 62, 63
2, 98688, Note_on_c, 0, 55, 45
2, 98688, Note_on_c, 0, 40, 52
2, 98688, Note_on_c, 0, 28, 51
2, 99072, Note_on_c, 0, 62, 0
2, 99072, Note_on_c, 0, 61, 57
2, 99216, Note_on_c, 0, 59, 0
2, 99216, Note_on_c, 0, 55, 0
2, 99216, Note_on_c, 0, 40, 0
2, 99216, Note_on_c, 0, 28, 0
2, 99232, Note_on_c, 0, 61, 0
2, 99264, Note_on_c, 0, 76, 72
2, 99264, Note_on_c, 0, 64, 57
2, 100416, Note_on_c, 0, 74, 42
2, 100416, Note_on_c, 0, 62, 50
2, 100576, Note_on_c, 0, 74, 0
2, 100576, Note_on_c, 0, 62, 0
2, 100608, Note_on_c, 0, 73, 50
2, 100608, Note_on_c, 0, 61, 40
2, 100768, Note_on_c, 0, 73, 0
2, 100768, Note_on_c, 0, 61, 0
2, 100800, Note_on_c, 0, 71, 40
2, 100800, Note_on_c, 0, 59, 46
2, 100960, Note_on_c, 0, 71, 0
2, 100960, Note_on_c, 0, 59, 0
2, 100992, Note_on_c, 0, 73, 47
2, 100992, Note_on_c, 0, 61, 44
2, 101520, Note_on_c, 0, 76, 0
2, 101520, Note_on_c, 0, 64, 0
2, 101520, Note_on_c, 0, 73, 0
2, 101520, Note_on_c, 0, 61, 0
2, 101568, Control_c, 0, 64, 127
2, 101568, Note_on_c, 0, 64, 73
2, 101568, Note_on_c, 0, 71, 80
2, 101568, Note_on_c, 0, 55, 59
2, 101568, Note_on_c, 0, 43, 58
2, 101616, Note_on_c, 0, 64, 0
2, 101616, Note_on_c, 0, 71, 0
2, 101616, Note_on_c, 0, 55, 0
2, 101616, Note_on_c, 0, 43, 0
2, 101616, Note_on_c, 0, 64, 57
2, 101616, Note_on_c, 0, 76, 72
2, 102720, Note_on_c, 0, 62, 40
2, 102720, Note_on_c, 0, 74, 41
2, 102720, Control_c, 0, 64, 0
2, 102880, Note_on_c, 0, 62, 0
2, 102880, Note_on_c, 0, 74, 0
2, 102912, Note_on_c, 0, 73, 42
2, 102912, Note_on_c, 0, 61, 42
2, 103072, Note_on_c, 0, 73, 0
2, 103072, Note_on_c, 0, 61, 0
2, 103104, Note_on_c, 0, 59, 43
2, 103104, Note_on_c, 0, 71, 50
2, 103248, Note_on_c, 0, 64, 0
2, 103248, Note_on_c, 0, 76, 0
2, 103264, Note_on_c, 0, 59, 0
2, 103264, Note_on_c, 0, 71, 0
2, 103296, Note_on_c, 0, 73, 62
2, 103296, Note_on_c, 0, 70, 59
2, 103296, Note_on_c, 0, 64, 63
2, 103296, Note_on_c, 0, 54, 65
2, 103296, Note_on_c, 0, 66, 63
2, 104448, Note_on_c, 0, 73, 0
2, 104448, Note_on_c, 0, 70, 0
2, 104448, Note_on_c, 0, 64, 0
2, 104448, Note_on_c, 0, 71, 49
2, 104448, Note_on_c, 0, 47, 28
2, 104448, Note_on_c, 0, 62, 50
2, 104608, Note_on_c, 0, 54, 0
2, 104608, Note_on_c, 0, 66, 0
2, 104608, Note_on_c, 0, 71, 0
2, 104608, Note_on_c, 0, 47, 0
2, 104608, Note_on_c, 0, 62, 0
2, 105216, Note_on_c, 0, 50, 81
2, 105216, Note_on_c, 0, 42, 86
2, 105312, Note_on_c, 0, 50, 0
2, 105312, Note_on_c, 0, 42, 0
2, 105312, Note_on_c, 0, 43, 61
2, 105408, Note_on_c, 0, 43, 0
2, 105408, Note_on_c, 0, 34, 64
2, 105502, Note_on_c, 0, 34, 0
2, 105504, Note_on_c, 0, 50, 56
2, 105600, Note_on_c, 0, 50, 0
2, 105600, Note_on_c, 0, 55, 56
2, 105696, Note_on_c, 0, 55, 0
2, 105696, Note_on_c, 0, 62, 57
2, 105792, Note_on_c, 0, 62, 0
2, 105792, Note_on_c, 0, 33, 58
2, 105792, Note_on_c, 0, 64, 80
2, 105888, Note_on_c, 0, 33, 0
2, 105888, Note_on_c, 0, 43, 57
2, 105984, Note_on_c, 0, 43, 0
2, 105984, Note_on_c, 0, 49, 56
2, 106078, Note_on_c, 0, 49, 0
2, 106080, Note_on_c, 0, 64, 0
2, 106080, Note_on_c, 0, 55, 63
2, 106176, Note_on_c, 0, 55, 0
2, 106176, Note_on_c, 0, 57, 64
2, 106272, Note_on_c, 0, 57, 0
2, 106272, Note_on_c, 0, 55, 60
2, 106366, Note_on_c, 0, 55, 0
2, 106368, Note_on_c, 0, 44, 81
2, 106368, Note_on_c, 0, 54, 84
2, 106464, Note_on_c, 0, 44, 0
2, 106464, Note_on_c, 0, 54, 0
2, 106464, Note_on_c, 0, 45, 55
2, 106560, Note_on_c, 0, 45, 0
2, 106560, Note_on_c, 0, 54, 62
2, 106560, Note_on_c, 0, 38, 62
2, 106656, Note_on_c, 0, 54, 0
2, 106656, Note_on_c, 0, 57, 69
2, 106720, Note_on_c, 0, 38, 0
2, 106752, Note_on_c, 0, 57, 0
2, 106752, Note_on_c, 0, 66, 71
2, 106848, Note_on_c, 0, 66, 0
2, 106848, Note_on_c, 0, 66, 83
2, 106944, Note_on_c, 0, 66, 0
2, 106944, Note_on_c, 0, 78, 88
2, 107104, Note_on_c, 0, 78, 0
2, 107520, Note_on_c, 0, 54, 58
2, 107520, Note_on_c, 0, 46, 62
2, 107616, Note_on_c, 0, 54, 0
2, 107616, Note_on_c, 0, 46, 0
2, 107616, Note_on_c, 0, 47, 63
2, 107712, Note_on_c, 0, 47, 0
2, 107712, Note_on_c, 0, 38, 62
2, 107806, Note_on_c, 0, 38, 0
2, 107808, Note_on_c, 0, 54, 59
2, 107904, Note_on_c, 0, 54, 0
2, 107904, Note_on_c, 0, 59, 57
2, 108000, Note_on_c, 0, 59, 0
2, 108000, Note_on_c, 0, 66, 59
2, 108096, Note_on_c, 0, 66, 0
2, 108096, Note_on_c, 0, 68, 85
2, 108096, Note_on_c, 0, 37, 65
2, 108192, Note_on_c, 0, 37, 0
2, 108192, Note_on_c, 0, 47, 65
2, 108288, Note_on_c, 0, 47, 0
2, 108288, Note_on_c, 0, 52, 60
2, 108382, Note_on_c, 0, 52, 0
2, 108384, Note_on_c, 0, 68, 0
2, 108384, Note_on_c, 0, 59, 57
2, 108480, Note_on_c, 0, 59, 0
2, 108480, Note_on_c, 0, 61, 61
2, 108576, Note_on_c, 0, 61, 0
2, 108576, Note_on_c, 0, 59, 64
2, 108670, Note_on_c, 0, 59, 0
2, 108672, Note_on_c, 0, 48, 81
2, 108672, Note_on_c, 0, 57, 84
2, 108768, Note_on_c, 0, 48, 0
2, 108768, Note_on_c, 0, 57, 0
2, 108768, Note_on_c, 0, 49, 64
2, 108864, Note_on_c, 0, 49, 0
2, 108864, Note_on_c, 0, 42, 56
2, 108864, Note_on_c, 0, 57, 67
2, 108958, Note_on_c, 0, 42, 0
2, 108960, Note_on_c, 0, 57, 0
2, 108960, Note_on_c, 0, 61, 76
2, 109056, Note_on_c, 0, 61, 0
2, 109056, Note_on_c, 0, 69, 85
2, 109152, Note_on_c, 0, 69, 0
2, 109152, Note_on_c, 0, 69, 85
2, 109248, Note_on_c, 0, 69, 0
2, 109248, Note_on_c, 0, 81, 97
2, 109342, Note_on_c, 0, 81, 0
2, 109824, Note_on_c, 0, 57, 55
2, 109824, Note_on_c, 0, 49, 65
2, 109920, Note_on_c, 0, 57, 0
2, 109920, Note_on_c, 0, 49, 0
2, 109920, Note_on_c, 0, 50, 57
2, 110016, Note_on_c, 0, 50, 0
2, 110016, Note_on_c, 0, 41, 62
2, 110110, Note_on_c, 0, 41, 0
2, 110112, Note_on_c, 0, 57, 64
2, 110208, Note_on_c, 0, 57, 0
2, 110208, Note_on_c, 0, 62, 58
2, 110304, Note_on_c, 0, 62, 0
2, 110304, Note_on_c, 0, 69, 68
2, 110400, Note_on_c, 0, 69, 0
2, 110400, Note_on_c, 0, 71, 94
2, 110400, Note_on_c, 0, 40, 65
2, 110496, Note_on_c, 0, 40, 0
2, 110496, Note_on_c, 0, 50, 75
2, 110592, Note_on_c, 0, 50, 0
2, 110592, Note_on_c, 0, 56, 76
2, 110686, Note_on_c, 0, 56, 0
2, 110688, Note_on_c, 0, 71, 0
2, 110688, Note_on_c, 0, 62, 71
2, 110784, Note_on_c, 0, 62, 0
2, 110784, Note_on_c, 0, 64, 73
2, 110880, Note_on_c, 0, 64, 0
2, 110880, Note_on_c, 0, 62, 78
2, 110974, Note_on_c, 0, 62, 0
2, 110976, Note_on_c, 0, 61, 78
2, 110976, Note_on_c, 0, 51, 84
2, 111072, Note_on_c, 0, 61, 0
2, 111072, Note_on_c, 0, 51, 0
2, 111072, Note_on_c, 0, 52, 85
2, 111168, Note_on_c, 0, 52, 0
2, 111168, Note_on_c, 0, 45, 86
2, 111262, Note_on_c, 0, 45, 0
2, 111264, Note_on_c, 0, 61, 86
2, 111360, Note_on_c, 0, 61, 0
2, 111360, Note_on_c, 0, 64, 86
2, 111456, Note_on_c, 0, 64, 0
2, 111456, Note_on_c, 0, 73, 121
2, 111550, Note_on_c, 0, 73, 0
2, 111552, Note_on_c, 0, 61, 97
2, 111552, Note_on_c, 0, 50, 96
2, 111648, Note_on_c, 0, 61, 0
2, 111648, Note_on_c, 0, 50, 0
2, 111648, Note_on_c, 0, 51, 96
2, 111744, Note_on_c, 0, 51, 0
2, 111744, Note_on_c, 0, 45, 90
2, 111838, Note_on_c, 0, 45, 0
2, 111840, Note_on_c, 0, 61, 92
2, 111936, Note_on_c, 0, 61, 0
2, 111936, Note_on_c, 0, 67, 92
2, 112032, Note_on_c, 0, 67, 0
2, 112032, Note_on_c, 0, 75, 127
2, 112128, Note_on_c, 0, 50, 87
2, 112128, Note_on_c, 0, 61, 82
2, 112224, Note_on_c, 0, 50, 0
2, 112224, Note_on_c, 0, 61, 0
2, 112224, Note_on_c, 0, 51, 81
2, 112288, Note_on_c, 0, 75, 0
2, 112320, Note_on_c, 0, 51, 0
2, 112320, Note_on_c, 0, 44, 83
2, 112414, Note_on_c, 0, 44, 0
2, 112416, Note_on_c, 0, 60, 87
2, 112512, Note_on_c, 0, 60, 0
2, 112512, Note_on_c, 0, 68, 88
2, 112608, Note_on_c, 0, 68, 0
2, 112608, Note_on_c, 0, 72, 117
2, 112704, Note_on_c, 0, 49, 77
2, 112704, Note_on_c, 0, 60, 82
2, 112800, Note_on_c, 0, 49, 0
2, 112800, Note_on_c, 0, 60, 0
2, 112800, Note_on_c, 0, 50, 83
2, 112864, Note_on_c, 0, 72, 0
2, 112896, Note_on_c, 0, 50, 0
2, 112896, Note_on_c, 0, 44, 82
2, 112990, Note_on_c, 0, 44, 0
2, 112992, Note_on_c, 0, 60, 84
2, 113088, Note_on_c, 0, 60, 0
2, 113088, Note_on_c, 0, 66, 81
2, 113184, Note_on_c, 0, 66, 0
2, 113184, Note_on_c, 0, 74, 105
2, 113280, Note_on_c, 0, 48, 78
2, 113280, Note_on_c, 0, 59, 73
2, 113376, Note_on_c, 0, 48, 0
2, 113376, Note_on_c, 0, 59, 0
2, 113376, Note_on_c, 0, 50, 70
2, 113440, Note_on_c, 0, 74, 0
2, 113472, Note_on_c, 0, 50, 0
2, 113472, Note_on_c, 0, 43, 74
2, 113566, Note_on_c, 0, 43, 0
2, 113568, Note_on_c, 0, 59, 74
2, 113664, Note_on_c, 0, 59, 0
2, 113664, Note_on_c, 0, 67, 76
2, 113760, Note_on_c, 0, 67, 0
2, 113760, Note_on_c, 0, 71, 95
2, 113856, Note_on_c, 0, 59, 64
2, 113856, Note_on_c, 0, 48, 64
2, 113952, Note_on_c, 0, 59, 0
2, 113952, Note_on_c, 0, 48, 0
2, 113952, Note_on_c, 0, 49, 73
2, 114016, Note_on_c, 0, 71, 0
2, 114048, Note_on_c, 0, 49, 0
2, 114048, Note_on_c, 0, 43, 72
2, 114142, Note_on_c, 0, 43, 0
2, 114144, Note_on_c, 0, 59, 68
2, 114240, Note_on_c, 0, 59, 0
2, 114240, Note_on_c, 0, 65, 60
2, 114336, Note_on_c, 0, 65, 0
2, 114336, Note_on_c, 0, 73, 82
2, 114432, Note_on_c, 0, 58, 64
2, 114432, Control_c, 0, 64, 127
2, 114528, Note_on_c, 0, 58, 0
2, 114528, Note_on_c, 0, 49, 61
2, 114592, Note_on_c, 0, 73, 0
2, 114624, Note_on_c, 0, 49, 0
2, 114624, Note_on_c, 0, 42, 59
2, 114718, Note_on_c, 0, 42, 0
2, 114720, Note_on_c, 0, 58, 57
2, 114816, Note_on_c, 0, 58, 0
2, 114816, Note_on_c, 0, 66, 57
2, 114912, Note_on_c, 0, 66, 0
2, 114912, Note_on_c, 0, 73, 79
2, 114960, Control_c, 0, 64, 0
2, 115008, Note_on_c, 0, 61, 59
2, 115008, Control_c, 0, 64, 127
2, 115104, Note_on_c, 0, 61, 0
2, 115104, Note_on_c, 0, 54, 61
2, 115168, Note_on_c, 0, 73, 0
2, 115200, Note_on_c, 0, 54, 0
2, 115200, Note_on_c, 0, 46, 62
2, 115294, Note_on_c, 0, 46, 0
2, 115296, Note_on_c, 0, 61, 63
2, 115392, Note_on_c, 0, 61, 0
2, 115392, Note_on_c, 0, 70, 61
2, 115488, Note_on_c, 0, 70, 0
2, 115488, Note_on_c, 0, 78, 57
2, 115536, Control_c, 0, 64, 0
2, 115582, Note_on_c, 0, 78, 0
2, 115584, Control_c, 0, 64, 127
2, 115584, Note_on_c, 0, 62, 59
2, 115680, Note_on_c, 0, 62, 0
2, 115680, Note_on_c, 0, 54, 57
2, 115776, Note_on_c, 0, 54, 0
2, 115776, Note_on_c, 0, 44, 57
2, 115870, Note_on_c, 0, 44, 0
2, 115872, Note_on_c, 0, 62, 68
2, 115968, Note_on_c, 0, 62, 0
2, 115968, Note_on_c, 0, 71, 64
2, 116064, Note_on_c, 0, 71, 0
2, 116064, Note_on_c, 0, 78, 92
2, 116112, Control_c, 0, 64, 0
2, 116158, Note_on_c, 0, 78, 0
2, 116160, Control_c, 0, 64, 127
2, 116160, Note_on_c, 0, 65, 55
2, 116256, Note_on_c, 0, 65, 0
2, 116256, Note_on_c, 0, 59, 55
2, 116352, Note_on_c, 0, 59, 0
2, 116352, Note_on_c, 0, 49, 61
2, 116446, Note_on_c, 0, 49, 0
2, 116448, Note_on_c, 0, 65, 69
2, 116544, Note_on_c, 0, 65, 0
2, 116544, Note_on_c, 0, 71, 68
2, 116640, Note_on_c, 0, 71, 0
2, 116640, Note_on_c, 0, 80, 65
2, 116688, Control_c, 0, 64, 0
2, 116734, Note_on_c, 0, 80, 0
2, 116736, Note_on_c, 0, 68, 59
2, 116736, Control_c, 0, 64, 127
2, 116832, Note_on_c, 0, 68, 0
2, 116832, Note_on_c, 0, 58, 65
2, 116928, Note_on_c, 0, 58, 0
2, 116928, Note_on_c, 0, 52, 59
2, 117022, Note_on_c, 0, 52, 0
2, 117024, Note_on_c, 0, 68, 63
2, 117120, Note_on_c, 0, 68, 0
2, 117120, Note_on_c, 0, 73, 70
2, 117216, Note_on_c, 0, 73, 0
2, 117216, Note_on_c, 0, 82, 62
2, 117264, Control_c, 0, 64, 0
2, 117310, Note_on_c, 0, 82, 0
2, 117312, Note_on_c, 0, 67, 59
2, 117312, Control_c, 0, 64, 127
2, 117408, Note_on_c, 0, 67, 0
2, 117408, Note_on_c, 0, 58, 66
2, 117504, Note_on_c, 0, 58, 0
2, 117504, Note_on_c, 0, 51, 62
2, 117598, Note_on_c, 0, 51, 0
2, 117600, Note_on_c, 0, 67, 73
2, 117696, Note_on_c, 0, 67, 0
2, 117696, Note_on_c, 0, 75, 68
2, 117792, Note_on_c, 0, 75, 0
2, 117792, Note_on_c, 0, 82, 70
2, 117840, Control_c, 0, 64, 0
2, 117886, Note_on_c, 0, 82, 0
2, 117888, Control_c, 0, 64, 127
2, 117888, Note_on_c, 0, 71, 62
2, 117984, Note_on_c, 0, 71, 0
2, 117984, Note_on_c, 0, 63, 65
2, 118080, Note_on_c, 0, 63, 0
2, 118080, Note_on_c, 0, 56, 64
2, 118174, Note_on_c, 0, 56, 0
2, 118176, Note_on_c, 0, 68, 81
2, 118272, Note_on_c, 0, 68, 0
2, 118272, Note_on_c, 0, 75, 76
2, 118368, Note_on_c, 0, 75, 0
2, 118368, Note_on_c, 0, 83, 80
2, 118416, Control_c, 0, 64, 0
2, 118462, Note_on_c, 0, 83, 0
2, 118464, Control_c, 0, 64, 127
2, 118464, Note_on_c, 0, 65, 68
2, 118560, Note_on_c, 0, 65, 0
2, 118560, Note_on_c, 0, 59, 59
2, 118656, Note_on_c, 0, 59, 0
2, 118656, Note_on_c, 0, 49, 69
2, 118750, Note_on_c, 0, 49, 0
2, 118752, Note_on_c, 0, 65, 78
2, 118848, Note_on_c, 0, 65, 0
2, 118848, Note_on_c, 0, 71, 81
2, 118944, Note_on_c, 0, 71, 0
2, 118944, Note_on_c, 0, 80, 79
2, 118992, Control_c, 0, 64, 0
2, 119038, Note_on_c, 0, 80, 0
2, 119040, Note_on_c, 0, 70, 69
2, 119040, Control_c, 0, 64, 127
2, 119136, Note_on_c, 0, 70, 0
2, 119136, Note_on_c, 0, 61, 65
2, 119232, Note_on_c, 0, 61, 0
2, 119232, Note_on_c, 0, 54, 75
2, 119326, Note_on_c, 0, 54, 0
2, 119328, Note_on_c, 0, 66, 90
2, 119424, Note_on_c, 0, 66, 0
2, 119424, Note_on_c, 0, 70, 88
2, 119520, Note_on_c, 0, 70, 0
2, 119520, Note_on_c, 0, 78, 85
2, 119568, Control_c, 0, 64, 0
2, 119614, Note_on_c, 0, 78, 0
2, 119616, Note_on_c, 0, 66, 79
2, 119616, Note_on_c, 0, 73, 70
2, 119616, Control_c, 0, 64, 127
2, 119712, Note_on_c, 0, 66, 0
2, 119712, Note_on_c, 0, 73, 0
2, 119712, Note_on_c, 0, 58, 76
2, 119806, Note_on_c, 0, 58, 0
2, 119808, Note_on_c, 0, 90, 97
2, 119904, Note_on_c, 0, 90, 0
2, 119904, Note_on_c, 0, 82, 92
2, 120000, Note_on_c, 0, 82, 0
2, 120000, Note_on_c, 0, 90, 110
2, 120096, Note_on_c, 0, 78, 93
2, 120144, Control_c, 0, 64, 0
2, 120160, Note_on_c, 0, 90, 0
2, 120190, Note_on_c, 0, 78, 0
2, 120192, Note_on_c, 0, 66, 76
2, 120192, Note_on_c, 0, 74, 73
2, 120192, Control_c, 0, 64, 127
2, 120288, Note_on_c, 0, 66, 0
2, 120288, Note_on_c, 0, 74, 0
2, 120288, Note_on_c, 0, 56, 75
2, 120382, Note_on_c, 0, 56, 0
2, 120384, Note_on_c, 0, 90, 90
2, 120480, Note_on_c, 0, 90, 0
2, 120480, Note_on_c, 0, 83, 91
2, 120576, Note_on_c, 0, 83, 0
2, 120576, Note_on_c, 0, 90, 110
2, 120672, Note_on_c, 0, 78, 91
2, 120720, Control_c, 0, 64, 0
2, 120736, Note_on_c, 0, 90, 0
2, 120766, Note_on_c, 0, 78, 0
2, 120768, Note_on_c, 0, 68, 75
2, 120768, Note_on_c, 0, 71, 76
2, 120768, Note_on_c, 0, 77, 78
2, 120768, Control_c, 0, 64, 127
2, 120864, Note_on_c, 0, 68, 0
2, 120864, Note_on_c, 0, 71, 0
2, 120864, Note_on_c, 0, 77, 0
2, 120864, Note_on_c, 0, 61, 80
2, 120958, Note_on_c, 0, 61, 0
2, 120960, Note_on_c, 0, 92, 103
2, 121056, Note_on_c, 0, 92, 0
2, 121056, Note_on_c, 0, 85, 97
2, 121152, Note_on_c, 0, 85, 0
2, 121152, Note_on_c, 0, 92, 110
2, 121248, Note_on_c, 0, 83, 103
2, 121296, Control_c, 0, 64, 0
2, 121312, Note_on_c, 0, 92, 0
2, 121342, Note_on_c, 0, 83, 0
2, 121344, Control_c, 0, 64, 127
2, 121344, Note_on_c, 0, 73, 87
2, 121344, Note_on_c, 0, 80, 86
2, 121344, Note_on_c, 0, 70, 81
2, 121440, Note_on_c, 0, 73, 0
2, 121440, Note_on_c, 0, 80, 0
2, 121440, Note_on_c, 0, 70, 0
2, 121440, Note_on_c, 0, 64, 80
2, 121534, Note_on_c, 0, 64, 0
2, 121536, Note_on_c, 0, 94, 106
2, 121632, Note_on_c, 0, 94, 0
2, 121632, Note_on_c, 0, 85, 102
2, 121728, Note_on_c, 0, 85, 0
2, 121728, Note_on_c, 0, 94, 110
2, 121824, Note_on_c, 0, 94, 0
2, 121824, Note_on_c, 0, 80, 112
2, 121872, Control_c, 0, 64, 0
2, 121918, Note_on_c, 0, 80, 0
2, 121920, Note_on_c, 0, 70, 94
2, 121920, Note_on_c, 0, 73, 88
2, 121920, Note_on_c, 0, 79, 84
2, 121920, Control_c, 0, 64, 127
2, 122016, Note_on_c, 0, 70, 0
2, 122016, Note_on_c, 0, 73, 0
2, 122016, Note_on_c, 0, 79, 0
2, 122016, Note_on_c, 0, 63, 95
2, 122110, Note_on_c, 0, 63, 0
2, 122112, Note_on_c, 0, 94, 115
2, 122208, Note_on_c, 0, 94, 0
2, 122208, Note_on_c, 0, 85, 114
2, 122304, Note_on_c, 0, 85, 0
2, 122304, Note_on_c, 0, 94, 110
2, 122400, Note_on_c, 0, 94, 0
2, 122400, Note_on_c, 0, 79, 116
2, 122448, Control_c, 0, 64, 0
2, 122494, Note_on_c, 0, 79, 0
2, 122496, Control_c, 0, 64, 127
2, 122496, Note_on_c, 0, 71, 94
2, 122496, Note_on_c, 0, 66, 98
2, 122496, Note_on_c, 0, 78, 94
2, 122592, Note_on_c, 0, 71, 0
2, 122592, Note_on_c, 0, 66, 0
2, 122592, Note_on_c, 0, 78, 0
2, 122592, Note_on_c, 0, 62, 98
2, 122686, Note_on_c, 0, 62, 0
2, 122688, Note_on_c, 0, 95, 120
2, 122784, Note_on_c, 0, 95, 0
2, 122784, Note_on_c, 0, 86, 122
2, 122880, Note_on_c, 0, 86, 0
2, 122880, Note_on_c, 0, 95, 119
2, 122976, Note_on_c, 0, 95, 0
2, 122976, Note_on_c, 0, 78, 121
2, 123024, Control_c, 0, 64, 0
2, 123070, Note_on_c, 0, 78, 0
2, 123072, Control_c, 0, 64, 127
2, 123072, Note_on_c, 0, 71, 102
2, 123072, Note_on_c, 0, 68, 103
2, 123072, Note_on_c, 0, 77, 104
2, 123168, Note_on_c, 0, 71, 0
2, 123168, Note_on_c, 0, 68, 0
2, 123168, Note_on_c, 0, 77, 0
2, 123168, Note_on_c, 0, 61, 106
2, 123262, Note_on_c, 0, 61, 0
2, 123264, Note_on_c, 0, 92, 117
2, 123360, Note_on_c, 0, 92, 0
2, 123360, Note_on_c, 0, 83, 127
2, 123456, Note_on_c, 0, 83, 0
2, 123456, Note_on_c, 0, 92, 120
2, 123552, Note_on_c, 0, 92, 0
2, 123552, Note_on_c, 0, 77, 126
2, 123600, Control_c, 0, 64, 0
2, 123646, Note_on_c, 0, 77, 0
2, 123648, Note_on_c, 0, 70, 108
2, 123648, Note_on_c, 0, 61, 110
2, 123648, Control_c, 0, 64, 127
2, 123648, Note_on_c, 0, 66, 107
2, 123744, Note_on_c, 0, 70, 0
2, 123744, Note_on_c, 0, 61, 0
2, 123744, Note_on_c, 0, 66, 0
2, 123744, Note_on_c, 0, 54, 110
2, 123838, Note_on_c, 0, 54, 0
2, 123840, Note_on_c, 0, 90, 126
2, 123840, Note_on_c, 0, 85, 123
2, 123936, Note_on_c, 0, 90, 0
2, 123936, Note_on_c, 0, 85, 0
2, 123936, Note_on_c, 0, 82, 124
2, 124032, Note_on_c, 0, 82, 0
2, 124032, Note_on_c, 0, 90, 126
2, 124032, Note_on_c, 0, 85, 123
2, 124128, Note_on_c, 0, 90, 0
2, 124128, Note_on_c, 0, 85, 0
2, 124128, Note_on_c, 0, 78, 126
2, 124176, Control_c, 0, 64, 0
2, 124222, Note_on_c, 0, 78, 0
2, 124224, Control_c, 0, 64, 127
2, 124224, Note_on_c, 0, 62, 107
2, 124224, Note_on_c, 0, 71, 105
2, 124320, Note_on_c, 0, 62, 0
2, 124320, Note_on_c, 0, 71, 0
2, 124320, Note_on_c, 0, 54, 111
2, 124414, Note_on_c, 0, 54, 0
2, 124416, Note_on_c, 0, 86, 127
2, 124416, Note_on_c, 0, 91, 127
2, 124512, Note_on_c, 0, 86, 0
2, 124512, Note_on_c, 0, 91, 0
2, 124512, Note_on_c, 0, 83, 127
2, 124608, Note_on_c, 0, 83, 0
2, 124608, Note_on_c, 0, 86, 123
2, 124608, Note_on_c, 0, 91, 125
2, 124704, Note_on_c, 0, 86, 0
2, 124704, Note_on_c, 0, 91, 0
2, 124704, Note_on_c, 0, 79, 127
2, 124752, Control_c, 0, 64, 0
2, 124798, Note_on_c, 0, 79, 0
2, 124800, Note_on_c, 0, 61, 113
2, 124800, Control_c, 0, 64, 127
2, 124800, Note_on_c, 0, 70, 109
2, 124896, Note_on_c, 0, 61, 0
2, 124896, Note_on_c, 0, 70, 0
2, 124896, Note_on_c, 0, 54, 104
2, 124990, Note_on_c, 0, 54, 0
2, 124992, Note_on_c, 0, 90, 127
2, 124992, Note_on_c, 0, 85, 127
2, 125088, Note_on_c, 0, 90, 0
2, 125088, Note_on_c, 0, 85, 0
2, 125088, Note_on_c, 0, 82, 122
2, 125184, Note_on_c, 0, 82, 0
2, 125184, Note_on_c, 0, 90, 127
2, 125184, Note_on_c, 0, 85, 124
2, 125280, Note_on_c, 0, 90, 0
2, 125280, Note_on_c, 0, 85, 0
2, 125280, Note_on_c, 0, 78, 123
2, 125328, Control_c, 0, 64, 0
2, 125374, Note_on_c, 0, 78, 0
2, 125376, Note_on_c, 0, 69, 104
2, 125376, Note_on_c, 0, 60, 113
2, 125376, Control_c, 0, 64, 127
2, 125472, Note_on_c, 0, 69, 0
2, 125472, Note_on_c, 0, 60, 0
2, 125472, Note_on_c, 0, 54, 105
2, 125566, Note_on_c, 0, 54, 0
2, 125568, Note_on_c, 0, 84, 124
2, 125568, Note_on_c, 0, 89, 127
2, 125664, Note_on_c, 0, 84, 0
2, 125664, Note_on_c, 0, 89, 0
2, 125664, Note_on_c, 0, 81, 127
2, 125760, Note_on_c, 0, 81, 0
2, 125760, Note_on_c, 0, 84, 127
2, 125760, Note_on_c, 0, 89, 127
2, 125856, Note_on_c, 0, 84, 0
2, 125856, Note_on_c, 0, 89, 0
2, 125856, Note_on_c, 0, 77, 124
2, 125904, Control_c, 0, 64, 0
2, 125950, Note_on_c, 0, 77, 0
2, 125952, Control_c, 0, 64, 127
2, 125952, Note_on_c, 0, 68, 104
2, 125952, Note_on_c, 0, 59, 110
2, 126048, Note_on_c, 0, 68, 0
2, 126048, Note_on_c, 0, 59, 0
2, 126048, Note_on_c, 0, 54, 110
2, 126142, Note_on_c, 0, 54, 0
2, 126144, Note_on_c, 0, 83, 127
2, 126144, Note_on_c, 0, 88, 127
2, 126240, Note_on_c, 0, 83, 0
2, 126240, Note_on_c, 0, 88, 0
2, 126240, Note_on_c, 0, 80, 125
2, 126336, Note_on_c, 0, 80, 0
2, 126336, Note_on_c, 0, 88, 127
2, 126336, Note_on_c, 0, 83, 127
2, 126432, Note_on_c, 0, 88, 0
2, 126432, Note_on_c, 0, 83, 0
2, 126432, Note_on_c, 0, 76, 127
2, 126480, Control_c, 0, 64, 0
2, 126526, Note_on_c, 0, 76, 0
2, 126528, Note_on_c, 0, 69, 109
2, 126528, Note_on_c, 0, 60, 103
2, 126528, Control_c, 0, 64, 127
2, 126624, Note_on_c, 0, 69, 0
2, 126624, Note_on_c, 0, 60, 0
2, 126624, Note_on_c, 0, 54, 108
2, 126718, Note_on_c, 0, 54, 0
2, 126720, Note_on_c, 0, 89, 127
2, 126720, Note_on_c, 0, 84, 127
2, 126816, Note_on_c, 0, 89, 0
2, 126816, Note_on_c, 0, 84, 0
2, 126816, Note_on_c, 0, 81, 127
2, 126912, Note_on_c, 0, 81, 0
2, 126912, Note_on_c, 0, 84, 127
2, 126912, Note_on_c, 0, 89, 126
2, 127008, Note_on_c, 0, 84, 0
2, 127008, Note_on_c, 0, 89, 0
2, 127008, Note_on_c, 0, 77, 127
2, 127056, Control_c, 0, 64, 0
2, 127102, Note_on_c, 0, 77, 0
2, 127104, Control_c, 0, 64, 127
2, 127104, Note_on_c, 0, 68, 105
2, 127104, Note_on_c, 0, 59, 113
2, 127200, Note_on_c, 0, 68, 0
2, 127200, Note_on_c, 0, 59, 0
2, 127200, Note_on_c, 0, 54, 109
2, 127294, Note_on_c, 0, 54, 0
2, 127296, Note_on_c, 0, 88, 127
2, 127296, Note_on_c, 0, 83, 122
2, 127392, Note_on_c, 0, 88, 0
2, 127392, Note_on_c, 0, 83, 0
2, 127392, Note_on_c, 0, 80, 127
2, 127488, Note_on_c, 0, 80, 0
2, 127488, Note_on_c, 0, 83, 126
2, 127488, Note_on_c, 0, 88, 122
2, 127584, Note_on_c, 0, 83, 0
2, 127584, Note_on_c, 0, 88, 0
2, 127584, Note_on_c, 0, 76, 127
2, 127632, Control_c, 0, 64, 0
2, 127678, Note_on_c, 0, 76, 0
2, 127680, Note_on_c, 0, 67, 111
2, 127680, Note_on_c, 0, 59, 104
2, 127680, Control_c, 0, 64, 127
2, 127776, Note_on_c, 0, 67, 0
2, 127776, Note_on_c, 0, 59, 0
2, 127776, Note_on_c, 0, 54, 107
2, 127870, Note_on_c, 0, 54, 0
2, 127872, Note_on_c, 0, 88, 127
2, 127872, Note_on_c, 0, 83, 127
2, 127968, Note_on_c, 0, 88, 0
2, 127968, Note_on_c, 0, 83, 0
2, 127968, Note_on_c, 0, 79, 125
2, 128064, Note_on_c, 0, 79, 0
2, 128064, Note_on_c, 0, 83, 123
2, 128064, Note_on_c, 0, 88, 127
2, 128160, Note_on_c, 0, 83, 0
2, 128160, Note_on_c, 0, 88, 0
2, 128160, Note_on_c, 0, 76, 122
2, 128208, Control_c, 0, 64, 0
2, 128254, Note_on_c, 0, 76, 0
2, 128256, Note_on_c, 0, 54, 122
2, 128256, Note_on_c, 0, 79, 122
2, 128256, Note_on_c, 0, 85, 127
2, 128256, Control_c, 0, 64, 127
2, 128256, Note_on_c, 0, 82, 124
2, 128256, Note_on_c, 0, 88, 126
2, 128256, Note_on_c, 0, 64, 127
2, 128256, Note_on_c, 0, 76, 127
2, 128256, Note_on_c, 0, 61, 122
2, 128304, Note_on_c, 0, 54, 0
2, 128304, Note_on_c, 0, 79, 0
2, 128304, Note_on_c, 0, 85, 0
2, 128304, Note_on_c, 0, 82, 0
2, 128304, Note_on_c, 0, 88, 0
2, 128304, Note_on_c, 0, 64, 0
2, 128304, Note_on_c, 0, 76, 0
2, 128304, Note_on_c, 0, 61, 0
2, 128832, Note_on_c, 0, 88, 105
2, 128832, Note_on_c, 0, 67, 105
2, 128928, Note_on_c, 0, 88, 0
2, 128928, Note_on_c, 0, 79, 108
2, 128992, Note_on_c, 0, 67, 0
2, 129024, Note_on_c, 0, 79, 0
2, 129024, Note_on_c, 0, 73, 103
2, 129024, Note_on_c, 0, 85, 127
2, 129118, Note_on_c, 0, 73, 0
2, 129120, Note_on_c, 0, 85, 0
2, 129120, Note_on_c, 0, 94, 127
2, 129120, Note_on_c, 0, 91, 123
2, 129216, Note_on_c, 0, 94, 0
2, 129216, Note_on_c, 0, 91, 0
2, 129216, Note_on_c, 0, 85, 125
2, 129312, Note_on_c, 0, 85, 0
2, 129312, Note_on_c, 0, 100, 125
2, 129406, Note_on_c, 0, 100, 0
2, 129408, Note_on_c, 0, 85, 109
2, 129408, Note_on_c, 0, 64, 107
2, 129504, Note_on_c, 0, 85, 0
2, 129504, Note_on_c, 0, 76, 103
2, 129568, Note_on_c, 0, 64, 0
2, 129600, Note_on_c, 0, 76, 0
2, 129600, Note_on_c, 0, 82, 125
2, 129600, Note_on_c, 0, 70, 110
2, 129694, Note_on_c, 0, 70, 0
2, 129696, Note_on_c, 0, 82, 0
2, 129696, Note_on_c, 0, 88, 124
2, 129696, Note_on_c, 0, 91, 127
2, 129792, Note_on_c, 0, 88, 0
2, 129792, Note_on_c, 0, 91, 0
2, 129792, Note_on_c, 0, 82, 126
2, 129888, Note_on_c, 0, 82, 0
2, 129888, Note_on_c, 0, 97, 126
2, 129982, Note_on_c, 0, 97, 0
2, 129984, Note_on_c, 0, 61, 104
2, 129984, Note_on_c, 0, 82, 107
2, 130080, Note_on_c, 0, 82, 0
2, 130080, Note_on_c, 0, 73, 111
2, 130144, Note_on_c, 0, 61, 0
2, 130176, Note_on_c, 0, 73, 0
2, 130176, Note_on_c, 0, 79, 124
2, 130176, Note_on_c, 0, 67, 111
2, 130270, Note_on_c, 0, 67, 0
2, 130272, Note_on_c, 0, 79, 0
2, 130272, Note_on_c, 0, 88, 126
2, 130272, Note_on_c, 0, 85, 125
2, 130368, Note_on_c, 0, 88, 0
2, 130368, Note_on_c, 0, 85, 0
2, 130368, Note_on_c, 0, 79, 127
2, 130464, Note_on_c, 0, 79, 0
2, 130464, Note_on_c, 0, 94, 123
2, 130558, Note_on_c, 0, 94, 0
2, 130560, Note_on_c, 0, 79, 113
2, 130560, Note_on_c, 0, 59, 102
2, 130656, Note_on_c, 0, 79, 0
2, 130656, Note_on_c, 0, 70, 110
2, 130720, Note_on_c, 0, 59, 0
2, 130752, Note_on_c, 0, 70, 0
2, 130752, Note_on_c, 0, 64, 110
2, 130752, Note_on_c, 0, 76, 126
2, 130846, Note_on_c, 0, 64, 0
2, 130848, Note_on_c, 0, 76, 0
2, 130848, Note_on_c, 0, 82, 127
2, 130848, Note_on_c, 0, 85, 127
2, 130944, Note_on_c, 0, 82, 0
2, 130944, Note_on_c, 0, 85, 0
2, 130944, Note_on_c, 0, 76, 127
2, 131040, Note_on_c, 0, 76, 0
2, 131040, Note_on_c, 0, 91, 126
2, 131134, Note_on_c, 0, 91, 0
2, 131136, Note_on_c, 0, 55, 100
2, 131136, Note_on_c, 0, 76, 112
2, 131232, Note_on_c, 0, 76, 0
2, 131232, Note_on_c, 0, 67, 104
2, 131296, Note_on_c, 0, 55, 0
2, 131328, Note_on_c, 0, 67, 0
2, 131328, Note_on_c, 0, 73, 122
2, 131328, Note_on_c, 0, 61, 111
2, 131422, Note_on_c, 0, 61, 0
2, 131424, Note_on_c, 0, 73, 0
2, 131424, Note_on_c, 0, 82, 127
2, 131424, Note_on_c, 0, 79, 122
2, 131520, Note_on_c, 0, 82, 0
2, 131520, Note_on_c, 0, 79, 0
2, 131520, Note_on_c, 0, 73, 127
2, 131616, Note_on_c, 0, 73, 0
2, 131616, Note_on_c, 0, 88, 127
2, 131710, Note_on_c, 0, 88, 0
2, 131712, Note_on_c, 0, 52, 103
2, 131712, Note_on_c, 0, 73, 103
2, 131808, Note_on_c, 0, 73, 0
2, 131808, Note_on_c, 0, 64, 103
2, 131872, Note_on_c, 0, 52, 0
2, 131904, Note_on_c, 0, 64, 0
2, 131904, Note_on_c, 0, 58, 107
2, 131904, Note_on_c, 0, 70, 127
2, 131998, Note_on_c, 0, 58, 0
2, 132000, Note_on_c, 0, 70, 0
2, 132000, Note_on_c, 0, 76, 127
2, 132000, Note_on_c, 0, 79, 127
2, 132096, Note_on_c, 0, 76, 0
2, 132096, Note_on_c, 0, 79, 0
2, 132096, Note_on_c, 0, 70, 127
2, 132192, Note_on_c, 0, 70, 0
2, 132192, Note_on_c, 0, 85, 127
2, 132286, Note_on_c, 0, 85, 0
2, 132288, Note_on_c, 0, 70, 107
2, 132288, Note_on_c, 0, 49, 108
2, 132384, Note_on_c, 0, 70, 0
2, 132384, Note_on_c, 0, 61, 111
2, 132448, Note_on_c, 0, 49, 0
2, 132480, Note_on_c, 0, 61, 0
2, 132480, Note_on_c, 0, 67, 127
2, 132480, Note_on_c, 0, 55, 105
2, 132574, Note_on_c, 0, 55, 0
2, 132576, Note_on_c, 0, 67, 0
2, 132576, Note_on_c, 0, 76, 127
2, 132576, Note_on_c, 0, 73, 123
2, 132672, Note_on_c, 0, 76, 0
2, 132672, Note_on_c, 0, 73, 0
2, 132672, Note_on_c, 0, 67, 127
2, 132768, Note_on_c, 0, 67, 0
2, 132768, Note_on_c, 0, 82, 127
2, 132816, Control_c, 0, 64, 0
2, 132862, Note_on_c, 0, 82, 0
2, 132864, Control_c, 0, 64, 127
2, 132864, Note_on_c, 0, 64, 127
2, 132960, Note_on_c, 0, 55, 110
2, 133056, Note_on_c, 0, 55, 0
2, 133056, Note_on_c, 0, 49, 105
2, 133120, Note_on_c, 0, 64, 0
2, 133150, Note_on_c, 0, 49, 0
2, 133152, Note_on_c, 0, 61, 127
2, 133248, Note_on_c, 0, 67, 127
2, 133344, Note_on_c, 0, 67, 0
2, 133344, Note_on_c, 0, 76, 127
2, 133408, Note_on_c, 0, 61, 0
2, 133416, Control_c, 0, 64, 0
2, 133438, Note_on_c, 0, 76, 0
2, 133440, Control_c, 0, 64, 127
2, 133440, Note_on_c, 0, 64, 127
2, 133536, Note_on_c, 0, 55, 111
2, 133632, Note_on_c, 0, 55, 0
2, 133632, Note_on_c, 0, 48, 107
2, 133696, Note_on_c, 0, 64, 0
2, 133726, Note_on_c, 0, 48, 0
2, 133728, Note_on_c, 0, 60, 127
2, 133824, Note_on_c, 0, 67, 123
2, 133920, Note_on_c, 0, 67, 0
2, 133920, Note_on_c, 0, 76, 127
2, 133968, Control_c, 0, 64, 0
2, 133984, Note_on_c, 0, 60, 0
2, 134014, Note_on_c, 0, 76, 0
2, 134016, Note_on_c, 0, 64, 127
2, 134016, Control_c, 0, 64, 127
2, 134112, Note_on_c, 0, 55, 111
2, 134208, Note_on_c, 0, 55, 0
2, 134208, Note_on_c, 0, 47, 109
2, 134272, Note_on_c, 0, 64, 0
2, 134302, Note_on_c, 0, 47, 0
2, 134304, Note_on_c, 0, 59, 127
2, 134400, Note_on_c, 0, 67, 126
2, 134496, Note_on_c, 0, 67, 0
2, 134496, Note_on_c, 0, 76, 126
2, 134544, Control_c, 0, 64, 0
2, 134560, Note_on_c, 0, 59, 0
2, 134590, Note_on_c, 0, 76, 0
2, 134592, Note_on_c, 0, 64, 127
2, 134592, Control_c, 0, 64, 127
2, 134688, Note_on_c, 0, 55, 106
2, 134784, Note_on_c, 0, 55, 0
2, 134784, Note_on_c, 0, 46, 111
2, 134848, Note_on_c, 0, 64, 0
2, 134878, Note_on_c, 0, 46, 0
2, 134880, Note_on_c, 0, 58, 123
2, 134976, Note_on_c, 0, 67, 127
2, 135072, Note_on_c, 0, 67, 0
2, 135072, Note_on_c, 0, 76, 127
2, 135120, Control_c, 0, 64, 0
2, 135136, Note_on_c, 0, 58, 0
2, 135166, Note_on_c, 0, 76, 0
2, 135168, Note_on_c, 0, 64, 125
2, 135168, Control_c, 0, 64, 127
2, 135264, Note_on_c, 0, 55, 106
2, 135360, Note_on_c, 0, 55, 0
2, 135360, Note_on_c, 0, 49, 112
2, 135424, Note_on_c, 0, 64, 0
2, 135454, Note_on_c, 0, 49, 0
2, 135456, Note_on_c, 0, 61, 127
2, 135552, Note_on_c, 0, 67, 122
2, 135648, Note_on_c, 0, 67, 0
2, 135648, Note_on_c, 0, 76, 127
2, 135696, Control_c, 0, 64, 0
2, 135712, Note_on_c, 0, 61, 0
2, 135742, Note_on_c, 0, 76, 0
2, 135744, Control_c, 0, 64, 127
2, 135744, Note_on_c, 0, 64, 127
2, 135840, Note_on_c, 0, 55, 106
2, 135936, Note_on_c, 0, 55, 0
2, 135936, Note_on_c, 0, 48, 109
2, 136000, Note_on_c, 0, 64, 0
2, 136030, Note_on_c, 0, 48, 0
2, 136032, Note_on_c, 0, 60, 127
2, 136128, Note_on_c, 0, 67, 125
2, 136224, Note_on_c, 0, 67, 0
2, 136224, Note_on_c, 0, 76, 123
2, 136272, Control_c, 0, 64, 0
2, 136288, Note_on_c, 0, 60, 0
2, 136318, Note_on_c, 0, 76, 0
2, 136320, Control_c, 0, 64, 127
2, 136320, Note_on_c, 0, 64, 125
2, 136416, Note_on_c, 0, 55, 111
2, 136512, Note_on_c, 0, 55, 0
2, 136512, Note_on_c, 0, 47, 109
2, 136576, Note_on_c, 0, 64, 0
2, 136606, Note_on_c, 0, 47, 0
2, 136608, Note_on_c, 0, 59, 123
2, 136704, Note_on_c, 0, 67, 127
2, 136800, Note_on_c, 0, 67, 0
2, 136800, Note_on_c, 0, 76, 123
2, 136848, Control_c, 0, 64, 0
2, 136864, Note_on_c, 0, 59, 0
2, 136894, Note_on_c, 0, 76, 0
2, 136896, Note_on_c, 0, 64, 122
2, 136896, Control_c, 0, 64, 127
2, 136992, Note_on_c, 0, 55, 110
2, 137088, Note_on_c, 0, 55, 0
2, 137088, Note_on_c, 0, 46, 110
2, 137152, Note_on_c, 0, 64, 0
2, 137182, Note_on_c, 0, 46, 0
2, 137184, Note_on_c, 0, 58, 126
2, 137280, Note_on_c, 0, 67, 127
2, 137376, Note_on_c, 0, 67, 0
2, 137376, Note_on_c, 0, 76, 127
2, 137424, Control_c, 0, 64, 0
2, 137440, Note_on_c, 0, 58, 0
2, 137470, Note_on_c, 0, 76, 0
2, 137472, Note_on_c, 0, 41, 62
2, 137472, Note_on_c, 0, 50, 59
2, 137568, Note_on_c, 0, 41, 0
2, 137568, Note_on_c, 0, 50, 0
2, 137568, Note_on_c, 0, 42, 44
2, 137664, Note_on_c, 0, 42, 0
2, 137664, Note_on_c, 0, 36, 46
2, 137758, Note_on_c, 0, 36, 0
2, 137760, Note_on_c, 0, 53, 53
2, 137856, Note_on_c, 0, 53, 0
2, 137856, Note_on_c, 0, 54, 56
2, 137952, Note_on_c, 0, 54, 0
2, 137952, Note_on_c, 0, 59, 63
2, 138048, Note_on_c, 0, 59, 0
2, 138048, Note_on_c, 0, 62, 66
2, 138048, Note_on_c, 0, 52, 65
2, 138048, Note_on_c, 0, 55, 65
2, 138144, Note_on_c, 0, 62, 0
2, 138144, Note_on_c, 0, 58, 74
2, 138240, Note_on_c, 0, 52, 0
2, 138240, Note_on_c, 0, 55, 0
2, 138240, Note_on_c, 0, 58, 0
2, 138240, Note_on_c, 0, 61, 79
2, 138240, Note_on_c, 0, 50, 47
2, 138240, Note_on_c, 0, 54, 41
2, 138336, Note_on_c, 0, 61, 0
2, 138336, Note_on_c, 0, 59, 87
2, 138400, Note_on_c, 0, 50, 0
2, 138400, Note_on_c, 0, 54, 0
2, 138432, Note_on_c, 0, 59, 0
2, 138432, Note_on_c, 0, 62, 89
2, 138528, Note_on_c, 0, 62, 0
2, 138528, Note_on_c, 0, 66, 97
2, 138624, Note_on_c, 0, 66, 0
2, 138624, Note_on_c, 0, 41, 64
2, 138624, Note_on_c, 0, 71, 113
2, 138624, Note_on_c, 0, 50, 68
2, 138718, Note_on_c, 0, 71, 0
2, 138720, Note_on_c, 0, 41, 0
2, 138720, Note_on_c, 0, 50, 0
2, 138720, Note_on_c, 0, 42, 46
2, 138816, Note_on_c, 0, 42, 0
2, 138816, Note_on_c, 0, 36, 43
2, 138910, Note_on_c, 0, 36, 0
2, 138912, Note_on_c, 0, 53, 54
2, 139008, Note_on_c, 0, 53, 0
2, 139008, Note_on_c, 0, 54, 60
2, 139104, Note_on_c, 0, 54, 0
2, 139104, Note_on_c, 0, 59, 58
2, 139200, Note_on_c, 0, 59, 0
2, 139200, Note_on_c, 0, 62, 66
2, 139200, Note_on_c, 0, 55, 59
2, 139200, Note_on_c, 0, 52, 62
2, 139296, Note_on_c, 0, 62, 0
2, 139296, Note_on_c, 0, 58, 76
2, 139392, Note_on_c, 0, 55, 0
2, 139392, Note_on_c, 0, 52, 0
2, 139392, Note_on_c, 0, 58, 0
2, 139392, Note_on_c, 0, 61, 86
2, 139392, Note_on_c, 0, 54, 47
2, 139392, Note_on_c, 0, 50, 49
2, 139488, Note_on_c, 0, 61, 0
2, 139488, Note_on_c, 0, 59, 90
2, 139552, Note_on_c, 0, 54, 0
2, 139552, Note_on_c, 0, 50, 0
2, 139584, Note_on_c, 0, 59, 0
2, 139584, Note_on_c, 0, 62, 92
2, 139680, Note_on_c, 0, 62, 0
2, 139680, Note_on_c, 0, 66, 98
2, 139776, Note_on_c, 0, 66, 0
2, 139776, Note_on_c, 0, 47, 76
2, 139776, Note_on_c, 0, 74, 110
2, 139824, Note_on_c, 0, 47, 0
2, 139870, Note_on_c, 0, 74, 0
2, 139968, Note_on_c, 0, 76, 49
2, 140064, Note_on_c, 0, 76, 0
2, 140064, Note_on_c, 0, 70, 55
2, 140160, Note_on_c, 0, 70, 0
2, 140160, Note_on_c, 0, 74, 58
2, 140256, Note_on_c, 0, 74, 0
2, 140256, Note_on_c, 0, 71, 52
2, 140352, Note_on_c, 0, 71, 0
2, 140352, Note_on_c, 0, 54, 48
2, 140352, Note_on_c, 0, 62, 45
2, 140352, Note_on_c, 0, 79, 58
2, 140400, Note_on_c, 0, 54, 0
2, 140400, Note_on_c, 0, 62, 0
2, 140448, Note_on_c, 0, 79, 0
2, 140448, Note_on_c, 0, 73, 65
2, 140544, Note_on_c, 0, 73, 0
2, 140544, Note_on_c, 0, 78, 73
2, 140544, Note_on_c, 0, 47, 57
2, 140592, Note_on_c, 0, 47, 0
2, 140640, Note_on_c, 0, 78, 0
2, 140640, Note_on_c, 0, 74, 76
2, 140736, Note_on_c, 0, 74, 0
2, 140736, Note_on_c, 0, 62, 57
2, 140736, Note_on_c, 0, 85, 76
2, 140736, Note_on_c, 0, 54, 56
2, 140784, Note_on_c, 0, 62, 0
2, 140784, Note_on_c, 0, 54, 0
2, 140832, Note_on_c, 0, 85, 0
2, 140832, Note_on_c, 0, 77, 79
2, 140928, Note_on_c, 0, 77, 0
2, 140928, Note_on_c, 0, 47, 68
2, 140928, Note_on_c, 0, 83, 86
2, 140976, Note_on_c, 0, 47, 0
2, 141024, Note_on_c, 0, 83, 0
2, 141024, Note_on_c, 0, 78, 88
2, 141120, Note_on_c, 0, 78, 0
2, 141120, Note_on_c, 0, 62, 73
2, 141120, Note_on_c, 0, 88, 96
2, 141120, Note_on_c, 0, 54, 72
2, 141168, Note_on_c, 0, 62, 0
2, 141168, Note_on_c, 0, 54, 0
2, 141216, Note_on_c, 0, 88, 0
2, 141216, Note_on_c, 0, 82, 91
2, 141312, Note_on_c, 0, 82, 0
2, 141312, Note_on_c, 0, 47, 86
2, 141312, Note_on_c, 0, 86, 105
2, 141360, Note_on_c, 0, 47, 0
2, 141408, Note_on_c, 0, 86, 0
2, 141408, Note_on_c, 0, 83, 104
2, 141504, Note_on_c, 0, 83, 0
2, 141504, Note_on_c, 0, 95, 106
2, 141504, Note_on_c, 0, 62, 87
2, 141504, Note_on_c, 0, 54, 88
2, 141552, Note_on_c, 0, 95, 0
2, 141552, Note_on_c, 0, 62, 0
2, 141552, Note_on_c, 0, 54, 0
2, 142080, Note_on_c, 0, 52, 62
2, 142080, Note_on_c, 0, 42, 63
2, 142176, Note_on_c, 0, 52, 0
2, 142176, Note_on_c, 0, 42, 0
2, 142176, Note_on_c, 0, 43, 49
2, 142272, Note_on_c, 0, 43, 0
2, 142272, Note_on_c, 0, 35, 45
2, 142366, Note_on_c, 0, 35, 0
2, 142368, Note_on_c, 0, 58, 57
2, 142464, Note_on_c, 0, 58, 0
2, 142464, Note_on_c, 0, 59, 65
2, 142560, Note_on_c, 0, 59, 0
2, 142560, Note_on_c, 0, 64, 71
2, 142656, Note_on_c, 0, 64, 0
2, 142656, Note_on_c, 0, 67, 79
2, 142656, Note_on_c, 0, 57, 65
2, 142656, Note_on_c, 0, 60, 58
2, 142752, Note_on_c, 0, 67, 0
2, 142752, Note_on_c, 0, 63, 84
2, 142848, Note_on_c, 0, 57, 0
2, 142848, Note_on_c, 0, 60, 0
2, 142848, Note_on_c, 0, 63, 0
2, 142848, Note_on_c, 0, 66, 88
2, 142848, Note_on_c, 0, 55, 43
2, 142848, Note_on_c, 0, 59, 49
2, 142944, Note_on_c, 0, 66, 0
2, 142944, Note_on_c, 0, 64, 88
2, 143008, Note_on_c, 0, 55, 0
2, 143008, Note_on_c, 0, 59, 0
2, 143040, Note_on_c, 0, 64, 0
2, 143040, Note_on_c, 0, 67, 99
2, 143136, Note_on_c, 0, 67, 0
2, 143136, Note_on_c, 0, 71, 101
2, 143232, Note_on_c, 0, 71, 0
2, 143232, Note_on_c, 0, 42, 47
2, 143232, Note_on_c, 0, 76, 109
2, 143232, Note_on_c, 0, 52, 47
2, 143264, Note_on_c, 0, 76, 0
2, 143328, Note_on_c, 0, 42, 0
2, 143328, Note_on_c, 0, 52, 0
2, 143328, Note_on_c, 0, 43, 43
2, 143424, Note_on_c, 0, 43, 0
2, 143424, Note_on_c, 0, 35, 41
2, 143518, Note_on_c, 0, 35, 0
2, 143520, Note_on_c, 0, 58, 47
2, 143616, Note_on_c, 0, 58, 0
2, 143616, Note_on_c, 0, 59, 58
2, 143712, Note_on_c, 0, 59, 0
2, 143712, Note_on_c, 0, 64, 62
2, 143808, Note_on_c, 0, 64, 0
2, 143808, Note_on_c, 0, 57, 59
2, 143808, Note_on_c, 0, 67, 73
2, 143808, Note_on_c, 0, 60, 59
2, 143904, Note_on_c, 0, 67, 0
2, 143904, Note_on_c, 0, 63, 71
2, 144000, Note_on_c, 0, 57, 0
2, 144000, Note_on_c, 0, 60, 0
2, 144000, Note_on_c, 0, 63, 0
2, 144000, Note_on_c, 0, 55, 43
2, 144000, Note_on_c, 0, 66, 78
2, 144000, Note_on_c, 0, 59, 46
2, 144096, Note_on_c, 0, 66, 0
2, 144096, Note_on_c, 0, 64, 91
2, 144160, Note_on_c, 0, 55, 0
2, 144160, Note_on_c, 0, 59, 0
2, 144192, Note_on_c, 0, 64, 0
2, 144192, Note_on_c, 0, 67, 99
2, 144288, Note_on_c, 0, 67, 0
2, 144288, Note_on_c, 0, 71, 106
2, 144384, Note_on_c, 0, 71, 0
2, 144384, Note_on_c, 0, 47, 47
2, 144384, Note_on_c, 0, 79, 105
2, 144432, Note_on_c, 0, 47, 0
2, 144478, Note_on_c, 0, 79, 0
2, 144576, Note_on_c, 0, 78, 50
2, 144672, Note_on_c, 0, 78, 0
2, 144672, Note_on_c, 0, 70, 53
2, 144768, Note_on_c, 0, 70, 0
2, 144768, Note_on_c, 0, 76, 55
2, 144864, Note_on_c, 0, 76, 0
2, 144864, Note_on_c, 0, 71, 52
2, 144960, Note_on_c, 0, 71, 0
2, 144960, Note_on_c, 0, 81, 57
2, 144960, Note_on_c, 0, 64, 49
2, 144960, Note_on_c, 0, 55, 48
2, 145008, Note_on_c, 0, 64, 0
2, 145008, Note_on_c, 0, 55, 0
2, 145056, Note_on_c, 0, 81, 0
2, 145056, Note_on_c, 0, 75, 69
2, 145152, Note_on_c, 0, 75, 0
2, 145152, Note_on_c, 0, 79, 63
2, 145152, Note_on_c, 0, 47, 54
2, 145200, Note_on_c, 0, 47, 0
2, 145248, Note_on_c, 0, 79, 0
2, 145248, Note_on_c, 0, 76, 76
2, 145344, Note_on_c, 0, 76, 0
2, 145344, Note_on_c, 0, 64, 63
2, 145344, Note_on_c, 0, 84, 78
2, 145344, Note_on_c, 0, 55, 60
2, 145392, Note_on_c, 0, 64, 0
2, 145392, Note_on_c, 0, 55, 0
2, 145440, Note_on_c, 0, 84, 0
2, 145440, Note_on_c, 0, 78, 81
2, 145536, Note_on_c, 0, 78, 0
2, 145536, Note_on_c, 0, 83, 79
2, 145536, Note_on_c, 0, 47, 71
2, 145584, Note_on_c, 0, 47, 0
2, 145632, Note_on_c, 0, 83, 0
2, 145632, Note_on_c, 0, 79, 84
2, 145728, Note_on_c, 0, 79, 0
2, 145728, Note_on_c, 0, 64, 75
2, 145728, Note_on_c, 0, 90, 93
2, 145728, Note_on_c, 0, 55, 81
2, 145776, Note_on_c, 0, 64, 0
2, 145776, Note_on_c, 0, 55, 0
2, 145824, Note_on_c, 0, 90, 0
2, 145824, Note_on_c, 0, 82, 101
2, 145920, Note_on_c, 0, 82, 0
2, 145920, Note_on_c, 0, 47, 79
2, 145920, Note_on_c, 0, 88, 101
2, 145968, Note_on_c, 0, 47, 0
2, 146016, Note_on_c, 0, 88, 0
2, 146016, Note_on_c, 0, 83, 107
2, 146112, Note_on_c, 0, 83, 0
2, 146112, Note_on_c, 0, 100, 103
2, 146112, Note_on_c, 0, 64, 92
2, 146112, Note_on_c, 0, 55, 95
2, 146160, Note_on_c, 0, 64, 0
2, 146160, Note_on_c, 0, 55, 0
2, 146272, Note_on_c, 0, 100, 0
2, 146688, Note_on_c, 0, 78, 75
2, 146688, Note_on_c, 0, 76, 61
2, 146688, Note_on_c, 0, 90, 93
2, 146688, Note_on_c, 0, 70, 62
2, 146688, Note_on_c, 0, 73, 64
2, 146848, Note_on_c, 0, 78, 0
2, 146880, Note_on_c, 0, 90, 0
2, 146880, Note_on_c, 0, 91, 91
2, 146880, Note_on_c, 0, 79, 78
2, 146976, Note_on_c, 0, 91, 0
2, 146976, Note_on_c, 0, 90, 87
2, 147072, Note_on_c, 0, 90, 0
2, 147072, Note_on_c, 0, 89, 95
2, 147168, Note_on_c, 0, 89, 0
2, 147168, Note_on_c, 0, 88, 87
2, 147264, Note_on_c, 0, 76, 0
2, 147264, Note_on_c, 0, 70, 0
2, 147264, Note_on_c, 0, 73, 0
2, 147264, Note_on_c, 0, 88, 0
2, 147264, Note_on_c, 0, 74, 64
2, 147264, Note_on_c, 0, 71, 64
2, 147264, Note_on_c, 0, 88, 94
2, 147360, Note_on_c, 0, 88, 0
2, 147360, Note_on_c, 0, 86, 95
2, 147424, Note_on_c, 0, 79, 0
2, 147424, Note_on_c, 0, 74, 0
2, 147424, Note_on_c, 0, 71, 0
2, 147456, Note_on_c, 0, 86, 0
2, 147456, Note_on_c, 0, 54, 80
2, 147456, Note_on_c, 0, 66, 70
2, 147456, Note_on_c, 0, 85, 93
2, 147552, Note_on_c, 0, 85, 0
2, 147552, Note_on_c, 0, 83, 91
2, 147616, Note_on_c, 0, 54, 0
2, 147616, Note_on_c, 0, 66, 0
2, 147648, Note_on_c, 0, 83, 0
2, 147648, Note_on_c, 0, 81, 90
2, 147744, Note_on_c, 0, 81, 0
2, 147744, Note_on_c, 0, 79, 97
2, 147840, Note_on_c, 0, 79, 0
2, 147840, Note_on_c, 0, 78, 88
2, 147840, Note_on_c, 0, 69, 73
2, 147840, Note_on_c, 0, 73, 79
2, 147888, Note_on_c, 0, 69, 0
2, 147888, Note_on_c, 0, 73, 0
2, 147936, Note_on_c, 0, 78, 0
2, 147936, Note_on_c, 0, 79, 96
2, 148032, Note_on_c, 0, 79, 0
2, 148032, Note_on_c, 0, 77, 85
2, 148032, Note_on_c, 0, 54, 76
2, 148080, Note_on_c, 0, 54, 0
2, 148128, Note_on_c, 0, 77, 0
2, 148128, Note_on_c, 0, 78, 88
2, 148224, Note_on_c, 0, 78, 0
2, 148224, Note_on_c, 0, 67, 80
2, 148224, Note_on_c, 0, 83, 84
2, 148224, Note_on_c, 0, 71, 75
2, 148272, Note_on_c, 0, 67, 0
2, 148272, Note_on_c, 0, 71, 0
2, 148320, Note_on_c, 0, 83, 0
2, 148320, Note_on_c, 0, 76, 85
2, 148416, Note_on_c, 0, 76, 0
2, 148416, Note_on_c, 0, 66, 74
2, 148416, Note_on_c, 0, 69, 71
2, 148416, Note_on_c, 0, 74, 83
2, 148464, Note_on_c, 0, 66, 0
2, 148464, Note_on_c, 0, 69, 0
2, 148512, Note_on_c, 0, 74, 0
2, 148512, Note_on_c, 0, 76, 81
2, 148608, Note_on_c, 0, 76, 0
2, 148608, Note_on_c, 0, 73, 81
2, 148608, Note_on_c, 0, 54, 77
2, 148656, Note_on_c, 0, 54, 0
2, 148704, Note_on_c, 0, 73, 0
2, 148704, Note_on_c, 0, 74, 83
2, 148800, Note_on_c, 0, 74, 0
2, 148800, Note_on_c, 0, 64, 57
2, 148800, Note_on_c, 0, 67, 77
2, 148800, Note_on_c, 0, 79, 83
2, 148896, Note_on_c, 0, 79, 0
2, 148896, Note_on_c, 0, 71, 76
2, 148960, Note_on_c, 0, 64, 0
2, 148990, Note_on_c, 0, 71, 0
2, 148992, Note_on_c, 0, 61, 56
2, 148992, Note_on_c, 0, 70, 76
2, 149088, Note_on_c, 0, 70, 0
2, 149088, Note_on_c, 0, 76, 77
2, 149152, Note_on_c, 0, 67, 0
2, 149184, Note_on_c, 0, 76, 0
2, 149184, Note_on_c, 0, 68, 79
2, 149184, Note_on_c, 0, 54, 61
2, 149280, Note_on_c, 0, 68, 0
2, 149280, Note_on_c, 0, 69, 74
2, 149328, Note_on_c, 0, 61, 0
2, 149376, Note_on_c, 0, 69, 0
2, 149376, Note_on_c, 0, 78, 76
2, 149376, Note_on_c, 0, 66, 75
2, 149376, Note_on_c, 0, 62, 77
2, 149472, Note_on_c, 0, 78, 0
2, 149472, Note_on_c, 0, 74, 76
2, 149536, Note_on_c, 0, 66, 0
2, 149568, Note_on_c, 0, 62, 0
2, 149568, Note_on_c, 0, 74, 0
2, 149568, Note_on_c, 0, 61, 71
2, 149568, Note_on_c, 0, 67, 71
2, 149568, Note_on_c, 0, 70, 77
2, 149664, Note_on_c, 0, 70, 0
2, 149664, Note_on_c, 0, 74, 80
2, 149728, Note_on_c, 0, 54, 0
2, 149728, Note_on_c, 0, 67, 0
2, 149760, Note_on_c, 0, 74, 0
2, 149760, Note_on_c, 0, 68, 79
2, 149760, Note_on_c, 0, 54, 80
2, 149760, Note_on_c, 0, 54, 61
2, 149856, Note_on_c, 0, 68, 0
2, 149856, Note_on_c, 0, 69, 74
2, 149904, Note_on_c, 0, 61, 0
2, 149920, Note_on_c, 0, 54, 0
2, 149952, Note_on_c, 0, 69, 0
2, 149952, Note_on_c, 0, 66, 77
2, 149952, Note_on_c, 0, 62, 73
2, 149952, Note_on_c, 0, 78, 76
2, 150048, Note_on_c, 0, 78, 0
2, 150048, Note_on_c, 0, 74, 73
2, 150112, Note_on_c, 0, 66, 0
2, 150144, Note_on_c, 0, 62, 0
2, 150144, Note_on_c, 0, 74, 0
2, 150144, Note_on_c, 0, 59, 73
2, 150144, Note_on_c, 0, 68, 73
2, 150144, Note_on_c, 0, 65, 70
2, 150240, Note_on_c, 0, 68, 0
2, 150240, Note_on_c, 0, 74, 79
2, 150304, Note_on_c, 0, 54, 0
2, 150304, Note_on_c, 0, 65, 0
2, 150336, Note_on_c, 0, 74, 0
2, 150336, Note_on_c, 0, 66, 70
2, 150336, Note_on_c, 0, 54, 72
2, 150336, Note_on_c, 0, 54, 56
2, 150432, Note_on_c, 0, 66, 0
2, 150432, Note_on_c, 0, 67, 75
2, 150480, Note_on_c, 0, 59, 0
2, 150496, Note_on_c, 0, 54, 0
2, 150528, Note_on_c, 0, 67, 0
2, 150528, Note_on_c, 0, 64, 72
2, 150528, Note_on_c, 0, 61, 80
2, 150528, Note_on_c, 0, 76, 73
2, 150624, Note_on_c, 0, 76, 0
2, 150624, Note_on_c, 0, 73, 79
2, 150688, Note_on_c, 0, 64, 0
2, 150720, Note_on_c, 0, 61, 0
2, 150720, Note_on_c, 0, 73, 0
2, 150720, Note_on_c, 0, 67, 73
2, 150720, Note_on_c, 0, 58, 80
2, 150816, Note_on_c, 0, 67, 0
2, 150816, Note_on_c, 0, 73, 76
2, 150880, Note_on_c, 0, 54, 0
2, 150912, Note_on_c, 0, 73, 0
2, 150912, Note_on_c, 0, 65, 70
2, 150912, Note_on_c, 0, 54, 59
2, 151008, Note_on_c, 0, 65, 0
2, 151008, Note_on_c, 0, 66, 74
2, 151056, Note_on_c, 0, 58, 0
2, 151104, Note_on_c, 0, 66, 0
2, 151104, Note_on_c, 0, 59, 72
2, 151104, Note_on_c, 0, 62, 78
2, 151104, Note_on_c, 0, 74, 73
2, 151200, Note_on_c, 0, 74, 0
2, 151200, Note_on_c, 0, 71, 80
2, 151264, Note_on_c, 0, 62, 0
2, 151294, Note_on_c, 0, 71, 0
2, 151296, Note_on_c, 0, 59, 0
2, 151296, Note_on_c, 0, 66, 80
2, 151296, Note_on_c, 0, 58, 58
2, 151296, Note_on_c, 0, 64, 77
2, 151390, Note_on_c, 0, 54, 0
2, 151390, Note_on_c, 0, 66, 0
2, 151390, Note_on_c, 0, 58, 0
2, 151390, Note_on_c, 0, 64, 0
2, 151488, Note_on_c, 0, 67, 96
2, 151488, Note_on_c, 0, 30, 77
2, 151488, Note_on_c, 0, 42, 77
2, 151536, Note_on_c, 0, 30, 0
2, 151536, Note_on_c, 0, 42, 0
2, 151584, Note_on_c, 0, 67, 0
2, 151584, Note_on_c, 0, 66, 93
2, 151680, Note_on_c, 0, 66, 0
2, 151680, Note_on_c, 0, 65, 95
2, 151776, Note_on_c, 0, 65, 0
2, 151776, Note_on_c, 0, 64, 90
2, 151872, Note_on_c, 0, 64, 0
2, 151872, Note_on_c, 0, 55, 77
2, 151872, Note_on_c, 0, 47, 71
2, 151872, Note_on_c, 0, 50, 71
2, 151872, Note_on_c, 0, 64, 94
2, 151920, Note_on_c, 0, 55, 0
2, 151920, Note_on_c, 0, 47, 0
2, 151920, Note_on_c, 0, 50, 0
2, 151968, Note_on_c, 0, 64, 0
2, 151968, Note_on_c, 0, 62, 95
2, 152064, Note_on_c, 0, 62, 0
2, 152064, Note_on_c, 0, 30, 73
2, 152064, Note_on_c, 0, 42, 71
2, 152064, Note_on_c, 0, 61, 91
2, 152112, Note_on_c, 0, 30, 0
2, 152112, Note_on_c, 0, 42, 0
2, 152160, Note_on_c, 0, 61, 0
2, 152160, Note_on_c, 0, 59, 93
2, 152256, Note_on_c, 0, 59, 0
2, 152256, Note_on_c, 0, 57, 97
2, 152352, Note_on_c, 0, 57, 0
2, 152352, Note_on_c, 0, 55, 94
2, 152448, Note_on_c, 0, 55, 0
2, 152448, Note_on_c, 0, 49, 79
2, 152448, Note_on_c, 0, 45, 78
2, 152448, Note_on_c, 0, 54, 89
2, 152496, Note_on_c, 0, 49, 0
2, 152496, Note_on_c, 0, 45, 0
2, 152544, Note_on_c, 0, 54, 0
2, 152544, Note_on_c, 0, 55, 94
2, 152640, Note_on_c, 0, 55, 0
2, 152640, Note_on_c, 0, 30, 70
2, 152640, Note_on_c, 0, 53, 90
2, 152688, Note_on_c, 0, 30, 0
2, 152736, Note_on_c, 0, 53, 0
2, 152736, Note_on_c, 0, 54, 87
2, 152832, Note_on_c, 0, 54, 0
2, 152832, Note_on_c, 0, 43, 73
2, 152832, Note_on_c, 0, 47, 73
2, 152832, Note_on_c, 0, 59, 85
2, 152880, Note_on_c, 0, 43, 0
2, 152880, Note_on_c, 0, 47, 0
2, 152928, Note_on_c, 0, 59, 0
2, 152928, Note_on_c, 0, 53, 83
2, 153024, Note_on_c, 0, 53, 0
2, 153024, Note_on_c, 0, 50, 80
2, 153024, Note_on_c, 0, 42, 80
2, 153024, Note_on_c, 0, 45, 70
2, 153072, Note_on_c, 0, 42, 0
2, 153072, Note_on_c, 0, 45, 0
2, 153120, Note_on_c, 0, 50, 0
2, 153120, Note_on_c, 0, 52, 79
2, 153216, Note_on_c, 0, 52, 0
2, 153216, Note_on_c, 0, 49, 76
2, 153216, Note_on_c, 0, 30, 75
2, 153264, Note_on_c, 0, 30, 0
2, 153312, Note_on_c, 0, 49, 0
2, 153312, Note_on_c, 0, 50, 73
2, 153408, Note_on_c, 0, 50, 0
2, 153408, Note_on_c, 0, 55, 62
2, 153408, Note_on_c, 0, 40, 78
2, 153408, Note_on_c, 0, 43, 78
2, 153504, Note_on_c, 0, 55, 0
2, 153504, Note_on_c, 0, 47, 65
2, 153568, Note_on_c, 0, 40, 0
2, 153598, Note_on_c, 0, 47, 0
2, 153600, Note_on_c, 0, 46, 55
2, 153600, Note_on_c, 0, 37, 72
2, 153696, Note_on_c, 0, 46, 0
2, 153696, Note_on_c, 0, 49, 57
2, 153792, Note_on_c, 0, 49, 0
2, 153792, Note_on_c, 0, 52, 61
2, 153888, Note_on_c, 0, 52, 0
2, 153888, Note_on_c, 0, 55, 58
2, 153984, Note_on_c, 0, 55, 0
2, 153984, Note_on_c, 0, 58, 59
2, 154080, Note_on_c, 0, 58, 0
2, 154080, Note_on_c, 0, 61, 66
2, 154176, Note_on_c, 0, 61, 0
2, 154176, Note_on_c, 0, 63, 63
2, 154272, Note_on_c, 0, 63, 0
2, 154272, Note_on_c, 0, 64, 67
2, 154368, Note_on_c, 0, 64, 0
2, 154368, Note_on_c, 0, 65, 70
2, 154464, Note_on_c, 0, 65, 0
2, 154464, Note_on_c, 0, 66, 73
2, 154512, Note_on_c, 0, 37, 0
2, 154560, Note_on_c, 0, 66, 0
2, 154560, Note_on_c, 0, 67, 70
2, 154560, Note_on_c, 0, 35, 77
2, 154656, Note_on_c, 0, 67, 0
2, 154656, Note_on_c, 0, 62, 69
2, 154720, Note_on_c, 0, 35, 0
2, 154752, Note_on_c, 0, 62, 0
2, 154752, Note_on_c, 0, 61, 67
2, 154752, Note_on_c, 0, 34, 73
2, 154846, Note_on_c, 0, 61, 0
2, 154848, Note_on_c, 0, 64, 67
2, 154912, Note_on_c, 0, 43, 0
2, 154912, Note_on_c, 0, 34, 0
2, 154944, Note_on_c, 0, 64, 0
2, 154944, Note_on_c, 0, 73, 69
2, 154944, Note_on_c, 0, 76, 77
2, 155040, Note_on_c, 0, 73, 0
2, 155040, Note_on_c, 0, 76, 0
2, 155040, Note_on_c, 0, 70, 77
2, 155136, Note_on_c, 0, 70, 0
2, 155136, Note_on_c, 0, 67, 75
2, 155232, Note_on_c, 0, 67, 0
2, 155232, Note_on_c, 0, 65, 78
2, 155328, Note_on_c, 0, 65, 0
2, 155328, Note_on_c, 0, 64, 81
2, 155424, Note_on_c, 0, 64, 0
2, 155424, Note_on_c, 0, 63, 81
2, 155520, Note_on_c, 0, 63, 0
2, 155520, Note_on_c, 0, 55, 70
2, 155520, Note_on_c, 0, 62, 80
2, 155568, Note_on_c, 0, 55, 0
2, 155616, Note_on_c, 0, 62, 0
2, 155616, Note_on_c, 0, 61, 82
2, 155712, Note_on_c, 0, 61, 0
2, 155712, Note_on_c, 0, 60, 77
2, 155712, Note_on_c, 0, 55, 75
2, 155760, Note_on_c, 0, 55, 0
2, 155808, Note_on_c, 0, 60, 0
2, 155808, Note_on_c, 0, 59, 84
2, 155902, Note_on_c, 0, 59, 0
2, 155904, Note_on_c, 0, 58, 79
2, 155904, Note_on_c, 0, 55, 71
2, 155904, Note_on_c, 0, 49, 80
2, 156000, Note_on_c, 0, 58, 0
2, 156000, Note_on_c, 0, 61, 83
2, 156096, Note_on_c, 0, 61, 0
2, 156096, Note_on_c, 0, 64, 84
2, 156192, Note_on_c, 0, 64, 0
2, 156192, Note_on_c, 0, 67, 83
2, 156288, Note_on_c, 0, 67, 0
2, 156288, Note_on_c, 0, 70, 90
2, 156384, Note_on_c, 0, 70, 0
2, 156384, Note_on_c, 0, 73, 88
2, 156480, Note_on_c, 0, 73, 0
2, 156480, Note_on_c, 0, 75, 88
2, 156576, Note_on_c, 0, 75, 0
2, 156576, Note_on_c, 0, 76, 90
2, 156672, Note_on_c, 0, 76, 0
2, 156672, Note_on_c, 0, 77, 94
2, 156768, Note_on_c, 0, 77, 0
2, 156768, Note_on_c, 0, 78, 99
2, 156864, Note_on_c, 0, 49, 0
2, 156864, Note_on_c, 0, 78, 0
2, 156864, Note_on_c, 0, 47, 75
2, 156864, Note_on_c, 0, 79, 98
2, 156960, Note_on_c, 0, 79, 0
2, 156960, Note_on_c, 0, 74, 100
2, 157056, Note_on_c, 0, 47, 0
2, 157056, Note_on_c, 0, 74, 0
2, 157056, Note_on_c, 0, 73, 104
2, 157056, Note_on_c, 0, 46, 73
2, 157088, Note_on_c, 0, 73, 0
2, 157150, Note_on_c, 0, 55, 0
2, 157150, Note_on_c, 0, 46, 0
2, 157248, Note_on_c, 0, 48, 90
2, 157248, Note_on_c, 0, 70, 108
2, 157248, Note_on_c, 0, 60, 90
2, 157248, Note_on_c, 0, 76, 109
2, 157248, Note_on_c, 0, 82, 113
2, 157248, Note_on_c, 0, 79, 112
2, 157296, Note_on_c, 0, 48, 0
2, 157296, Note_on_c, 0, 70, 0
2, 157296, Note_on_c, 0, 60, 0
2, 157296, Note_on_c, 0, 76, 0
2, 157296, Note_on_c, 0, 82, 0
2, 157296, Note_on_c, 0, 79, 0
2, 157440, Note_on_c, 0, 76, 103
2, 157440, Note_on_c, 0, 79, 109
2, 157440, Note_on_c, 0, 47, 90
2, 157440, Note_on_c, 0, 59, 87
2, 157440, Note_on_c, 0, 83, 113
2, 157440, Note_on_c, 0, 71, 106
2, 157488, Note_on_c, 0, 76, 0
2, 157488, Note_on_c, 0, 79, 0
2, 157488, Note_on_c, 0, 47, 0
2, 157488, Note_on_c, 0, 59, 0
2, 157488, Note_on_c, 0, 83, 0
2, 157488, Note_on_c, 0, 71, 0
2, 157632, Note_on_c, 0, 79, 107
2, 157632, Note_on_c, 0, 58, 94
2, 157632, Note_on_c, 0, 76, 110
2, 157632, Note_on_c, 0, 46, 89
2, 157632, Note_on_c, 0, 73, 112
2, 157632, Note_on_c, 0, 85, 108
2, 157792, Note_on_c, 0, 79, 0
2, 157792, Note_on_c, 0, 58, 0
2, 157792, Note_on_c, 0, 76, 0
2, 157792, Note_on_c, 0, 46, 0
2, 157792, Note_on_c, 0, 73, 0
2, 157792, Note_on_c, 0, 85, 0
2, 157824, Note_on_c, 0, 55, 88
2, 157824, Note_on_c, 0, 43, 87
2, 158016, Note_on_c, 0, 55, 0
2, 158016, Note_on_c, 0, 43, 0
2, 158016, Note_on_c, 0, 46, 95
2, 158016, Note_on_c, 0, 34, 92
2, 158176, Note_on_c, 0, 46, 0
2, 158176, Note_on_c, 0, 34, 0
2, 158208, Note_on_c, 0, 35, 92
2, 158208, Note_on_c, 0, 47, 96
2, 158976, Note_on_c, 0, 62, 88
2, 158976, Note_on_c, 0, 74, 95
2, 158976, Note_on_c, 0, 67, 93
2, 159168, Note_on_c, 0, 62, 0
2, 159168, Note_on_c, 0, 74, 0
2, 159168, Note_on_c, 0, 67, 0
2, 159168, Note_on_c, 0, 62, 89
2, 159168, Note_on_c, 0, 55, 96
2, 159168, Note_on_c, 0, 67, 89
2, 159328, Note_on_c, 0, 62, 0
2, 159328, Note_on_c, 0, 55, 0
2, 159328, Note_on_c, 0, 67, 0
2, 159360, Note_on_c, 0, 61, 76
2, 159360, Note_on_c, 0, 55, 73
2, 159360, Note_on_c, 0, 66, 74
2, 159552, Note_on_c, 0, 66, 0
2, 159552, Note_on_c, 0, 64, 59
2, 159696, Note_on_c, 0, 35, 0
2, 159696, Note_on_c, 0, 47, 0
2, 159696, Note_on_c, 0, 61, 0
2, 159696, Note_on_c, 0, 55, 0
2, 159712, Note_on_c, 0, 64, 0
2, 159744, Note_on_c, 0, 46, 94
2, 159744, Note_on_c, 0, 34, 96
2, 159904, Note_on_c, 0, 46, 0
2, 159904, Note_on_c, 0, 34, 0
2, 159936, Note_on_c, 0, 45, 93
2, 159936, Note_on_c, 0, 57, 88
2, 160128, Note_on_c, 0, 45, 0
2, 160128, Note_on_c, 0, 57, 0
2, 160128, Note_on_c, 0, 55, 91
2, 160128, Note_on_c, 0, 43, 96
2, 160320, Note_on_c, 0, 55, 0
2, 160320, Note_on_c, 0, 43, 0
2, 160320, Note_on_c, 0, 34, 96
2, 160320, Note_on_c, 0, 46, 92
2, 160480, Note_on_c, 0, 34, 0
2, 160480, Note_on_c, 0, 46, 0
2, 160512, Note_on_c, 0, 35, 95
2, 160512, Note_on_c, 0, 47, 93
2, 160896, Note_on_c, 0, 67, 91
2, 160896, Note_on_c, 0, 76, 87
2, 160896, Note_on_c, 0, 64, 90
2, 161280, Note_on_c, 0, 67, 0
2, 161280, Note_on_c, 0, 76, 0
2, 161280, Note_on_c, 0, 64, 0
2, 161280, Note_on_c, 0, 67, 92
2, 161280, Note_on_c, 0, 74, 91
2, 161280, Note_on_c, 0, 62, 91
2, 161472, Note_on_c, 0, 67, 0
2, 161472, Note_on_c, 0, 74, 0
2, 161472, Note_on_c, 0, 62, 0
2, 161472, Note_on_c, 0, 55, 84
2, 161472, Note_on_c, 0, 67, 81
2, 161472, Note_on_c, 0, 62, 81
2, 161632, Note_on_c, 0, 55, 0
2, 161632, Note_on_c, 0, 67, 0
2, 161632, Note_on_c, 0, 62, 0
2, 161664, Note_on_c, 0, 66, 80
2, 161664, Note_on_c, 0, 61, 57
2, 161664, Note_on_c, 0, 55, 59
2, 162000, Note_on_c, 0, 66, 0
2, 162048, Note_on_c, 0, 64, 62
2, 162192, Note_on_c, 0, 35, 0
2, 162192, Note_on_c, 0, 47, 0
2, 162240, Note_on_c, 0, 47, 87
2, 162240, Note_on_c, 0, 35, 91
2, 162288, Note_on_c, 0, 47, 0
2, 162288, Note_on_c, 0, 35, 0
2, 162432, Note_on_c, 0, 35, 81
2, 162432, Note_on_c, 0, 47, 89
2, 162624, Note_on_c, 0, 35, 0
2, 162624, Note_on_c, 0, 47, 0
2, 162624, Note_on_c, 0, 46, 77
2, 162624, Note_on_c, 0, 34, 81
2, 162768, Note_on_c, 0, 61, 0
2, 162768, Note_on_c, 0, 55, 0
2, 162768, Note_on_c, 0, 64, 0
2, 162784, Note_on_c, 0, 46, 0
2, 162784, Note_on_c, 0, 34, 0
2, 162816, Note_on_c, 0, 54, 65
2, 162816, Note_on_c, 0, 59, 59
2, 162816, Note_on_c, 0, 47, 81
2, 162816, Note_on_c, 0, 35, 77
2, 162816, Note_on_c, 0, 64, 65
2, 163008, Note_on_c, 0, 64, 0
2, 163008, Note_on_c, 0, 62, 65
2, 163152, Note_on_c, 0, 54, 0
2, 163152, Note_on_c, 0, 59, 0
2, 163168, Note_on_c, 0, 62, 0
2, 163344, Note_on_c, 0, 47, 0
2, 163344, Note_on_c, 0, 35, 0
2, 163392, Note_on_c, 0, 47, 78
2, 163392, Note_on_c, 0, 35, 78
2, 163440, Note_on_c, 0, 47, 0
2, 163440, Note_on_c, 0, 35, 0
2, 163584, Note_on_c, 0, 35, 73
2, 163584, Note_on_c, 0, 47, 73
2, 163776, Note_on_c, 0, 35, 0
2, 163776, Note_on_c, 0, 47, 0
2, 163776, Note_on_c, 0, 46, 71
2, 163776, Note_on_c, 0, 34, 66
2, 163936, Note_on_c, 0, 46, 0
2, 163936, Note_on_c, 0, 34, 0
2, 163968, Note_on_c, 0, 54, 41
2, 163968, Note_on_c, 0, 35, 72
2, 163968, Note_on_c, 0, 64, 59
2, 163968, Note_on_c, 0, 47, 72
2, 163968, Note_on_c, 0, 59, 41
2, 164160, Note_on_c, 0, 64, 0
2, 164160, Note_on_c, 0, 62, 59
2, 164304, Note_on_c, 0, 54, 0
2, 164304, Note_on_c, 0, 59, 0
2, 164320, Note_on_c, 0, 62, 0
2, 164496, Note_on_c, 0, 35, 0
2, 164496, Note_on_c, 0, 47, 0
2, 164544, Note_on_c, 0, 35, 56
2, 164544, Note_on_c, 0, 47, 56
2, 164736, Note_on_c, 0, 35, 0
2, 164736, Note_on_c, 0, 47, 0
2, 164736, Note_on_c, 0, 49, 63
2, 164736, Note_on_c, 0, 37, 56
2, 164928, Note_on_c, 0, 49, 0
2, 164928, Note_on_c, 0, 37, 0
2, 164928, Note_on_c, 0, 50, 53
2, 164928, Note_on_c, 0, 38, 57
2, 165088, Note_on_c, 0, 50, 0
2, 165088, Note_on_c, 0, 38, 0
2, 165120, Note_on_c, 0, 40, 54
2, 165120, Note_on_c, 0, 62, 59
2, 165120, Note_on_c, 0, 55, 48
2, 165120, Note_on_c, 0, 28, 54
2, 165120, Note_on_c, 0, 59, 49
2, 165504, Note_on_c, 0, 62, 0
2, 165504, Note_on_c, 0, 61, 55
2, 165648, Note_on_c, 0, 40, 0
2, 165648, Note_on_c, 0, 55, 0
2, 165648, Note_on_c, 0, 28, 0
2, 165648, Note_on_c, 0, 59, 0
2, 165664, Note_on_c, 0, 61, 0
2, 165696, Note_on_c, 0, 76, 79
2, 165696, Note_on_c, 0, 64, 63
2, 166848, Note_on_c, 0, 62, 45
2, 166848, Note_on_c, 0, 74, 40
2, 167008, Note_on_c, 0, 62, 0
2, 167008, Note_on_c, 0, 74, 0
2, 167040, Note_on_c, 0, 61, 45
2, 167040, Note_on_c, 0, 73, 47
2, 167200, Note_on_c, 0, 61, 0
2, 167200, Note_on_c, 0, 73, 0
2, 167232, Note_on_c, 0, 59, 47
2, 167232, Note_on_c, 0, 71, 40
2, 167392, Note_on_c, 0, 59, 0
2, 167392, Note_on_c, 0, 71, 0
2, 167424, Note_on_c, 0, 61, 49
2, 167952, Note_on_c, 0, 76, 0
2, 167952, Note_on_c, 0, 64, 0
2, 167952, Note_on_c, 0, 61, 0
2, 168000, Note_on_c, 0, 64, 74
2, 168000, Control_c, 0, 64, 127
2, 168000, Note_on_c, 0, 71, 76
2, 168000, Note_on_c, 0, 55, 64
2, 168000, Note_on_c, 0, 43, 60
2, 168048, Note_on_c, 0, 64, 0
2, 168048, Note_on_c, 0, 71, 0
2, 168048, Note_on_c, 0, 55, 0
2, 168048, Note_on_c, 0, 43, 0
2, 168048, Note_on_c, 0, 76, 73
2, 168048, Note_on_c, 0, 64, 58
2, 168576, Control_c, 0, 64, 0
2, 169152, Note_on_c, 0, 74, 44
2, 169152, Note_on_c, 0, 62, 40
2, 169312, Note_on_c, 0, 74, 0
2, 169312, Note_on_c, 0, 62, 0
2, 169344, Note_on_c, 0, 73, 43
2, 169344, Note_on_c, 0, 61, 44
2, 169504, Note_on_c, 0, 73, 0
2, 169504, Note_on_c, 0, 61, 0
2, 169536, Note_on_c, 0, 59, 41
2, 169536, Note_on_c, 0, 71, 41
2, 169696, Note_on_c, 0, 59, 0
2, 169696, Note_on_c, 0, 71, 0
2, 169728, Note_on_c, 0, 61, 42
2, 169728, Note_on_c, 0, 73, 40
2, 170256, Note_on_c, 0, 76, 0
2, 170256, Note_on_c, 0, 64, 0
2, 170256, Note_on_c, 0, 61, 0
2, 170256, Note_on_c, 0, 73, 0
2, 170304, Note_on_c, 0, 64, 75
2, 170304, Note_on_c, 0, 71, 77
2, 170304, Control_c, 0, 64, 127
2, 170304, Note_on_c, 0, 55, 65
2, 170304, Note_on_c, 0, 43, 55
2, 170350, Note_on_c, 0, 64, 0
2, 170350, Note_on_c, 0, 71, 0
2, 170350, Note_on_c, 0, 55, 0
2, 170350, Note_on_c, 0, 43, 0
2, 170352, Note_on_c, 0, 76, 74
2, 170352, Note_on_c, 0, 64, 63
2, 170880, Note_on_c, 0, 76, 0
2, 170880, Note_on_c, 0, 64, 0
2, 170880, Note_on_c, 0, 73, 63
2, 170880, Note_on_c, 0, 59, 48
2, 170880, Note_on_c, 0, 61, 47
2, 171040, Note_on_c, 0, 59, 0
2, 171040, Note_on_c, 0, 61, 0
2, 171408, Note_on_c, 0, 73, 0
2, 171408, Control_c, 0, 64, 0
2, 171456, Control_c, 0, 64, 127
2, 171456, Note_on_c, 0, 65, 57
2, 171456, Note_on_c, 0, 71, 61
2, 171456, Note_on_c, 0, 55, 42
2, 171456, Note_on_c, 0, 43, 47
2, 171502, Note_on_c, 0, 65, 0
2, 171502, Note_on_c, 0, 71, 0
2, 171502, Note_on_c, 0, 55, 0
2, 171502, Note_on_c, 0, 43, 0
2, 171504, Note_on_c, 0, 65, 48
2, 171504, Note_on_c, 0, 77, 58
2, 172032, Note_on_c, 0, 65, 0
2, 172032, Note_on_c, 0, 77, 0
2, 172032, Note_on_c, 0, 73, 61
2, 172032, Note_on_c, 0, 59, 42
2, 172032, Note_on_c, 0, 61, 45
2, 172192, Note_on_c, 0, 59, 0
2, 172192, Note_on_c, 0, 61, 0
2, 172560, Note_on_c, 0, 73, 0
2, 172560, Control_c, 0, 64, 0
2, 172608, Note_on_c, 0, 64, 58
2, 172608, Note_on_c, 0, 42, 50
2, 172608, Note_on_c, 0, 54, 45
2, 172608, Control_c, 0, 64, 127
2, 172608, Note_on_c, 0, 71, 58
2, 172654, Note_on_c, 0, 64, 0
2, 172654, Note_on_c, 0, 42, 0
2, 172654, Note_on_c, 0, 54, 0
2, 172654, Note_on_c, 0, 71, 0
2, 172656, Note_on_c, 0, 66, 43
2, 172656, Note_on_c, 0, 78, 58
2, 173184, Note_on_c, 0, 66, 0
2, 173184, Note_on_c, 0, 78, 0
2, 173184, Note_on_c, 0, 61, 40
2, 173184, Note_on_c, 0, 73, 64
2, 173184, Note_on_c, 0, 64, 49
2, 173344, Note_on_c, 0, 61, 0
2, 173344, Note_on_c, 0, 64, 0
2, 173712, Note_on_c, 0, 73, 0
2, 173712, Control_c, 0, 64, 0
2, 173760, Note_on_c, 0, 70, 62
2, 173760, Control_c, 0, 64, 127
2, 173760, Note_on_c, 0, 42, 46
2, 173760, Note_on_c, 0, 64, 58
2, 173760, Note_on_c, 0, 54, 50
2, 173808, Note_on_c, 0, 70, 0
2, 173808, Note_on_c, 0, 42, 0
2, 173808, Note_on_c, 0, 64, 0
2, 173808, Note_on_c, 0, 54, 0
2, 173808, Note_on_c, 0, 66, 50
2, 173808, Note_on_c, 0, 78, 58
2, 174288, Note_on_c, 0, 66, 0
2, 174288, Note_on_c, 0, 78, 0
2, 174288, Control_c, 0, 64, 0
2, 174336, Control_c, 0, 64, 127
2, 174336, Note_on_c, 0, 63, 65
2, 174336, Note_on_c, 0, 35, 48
2, 174430, Note_on_c, 0, 63, 0
2, 174430, Note_on_c, 0, 35, 0
2, 174432, Note_on_c, 0, 78, 41
2, 174432, Note_on_c, 0, 54, 49
2, 174526, Note_on_c, 0, 78, 0
2, 174526, Note_on_c, 0, 54, 0
2, 174528, Note_on_c, 0, 63, 47
2, 174528, Note_on_c, 0, 59, 46
2, 174622, Note_on_c, 0, 63, 0
2, 174622, Note_on_c, 0, 59, 0
2, 174624, Note_on_c, 0, 78, 51
2, 174624, Note_on_c, 0, 47, 40
2, 174718, Note_on_c, 0, 78, 0
2, 174718, Note_on_c, 0, 47, 0
2, 174720, Note_on_c, 0, 63, 49
2, 174720, Note_on_c, 0, 54, 47
2, 174880, Note_on_c, 0, 63, 0
2, 174880, Note_on_c, 0, 54, 0
2, 174888, Control_c, 0, 64, 0
2, 174912, Note_on_c, 0, 64, 85
2, 174912, Control_c, 0, 64, 127
2, 174912, Note_on_c, 0, 35, 48
2, 175006, Note_on_c, 0, 64, 0
2, 175006, Note_on_c, 0, 35, 0
2, 175008, Note_on_c, 0, 78, 55
2, 175008, Note_on_c, 0, 54, 41
2, 175102, Note_on_c, 0, 78, 0
2, 175102, Note_on_c, 0, 54, 0
2, 175104, Note_on_c, 0, 64, 52
2, 175104, Note_on_c, 0, 59, 40
2, 175198, Note_on_c, 0, 64, 0
2, 175198, Note_on_c, 0, 59, 0
2, 175200, Note_on_c, 0, 47, 43
2, 175200, Note_on_c, 0, 78, 56
2, 175294, Note_on_c, 0, 47, 0
2, 175294, Note_on_c, 0, 78, 0
2, 175296, Note_on_c, 0, 63, 70
2, 175296, Note_on_c, 0, 54, 40
2, 175456, Note_on_c, 0, 63, 0
2, 175456, Note_on_c, 0, 54, 0
2, 175464, Control_c, 0, 64, 0
2, 175488, Control_c, 0, 64, 127
2, 175488, Note_on_c, 0, 35, 44
2, 175488, Note_on_c, 0, 61, 62
2, 175582, Note_on_c, 0, 35, 0
2, 175582, Note_on_c, 0, 61, 0
2, 175584, Note_on_c, 0, 54, 40
2, 175584, Note_on_c, 0, 78, 42
2, 175678, Note_on_c, 0, 54, 0
2, 175678, Note_on_c, 0, 78, 0
2, 175680, Note_on_c, 0, 59, 50
2, 175680, Note_on_c, 0, 61, 49
2, 175774, Note_on_c, 0, 59, 0
2, 175774, Note_on_c, 0, 61, 0
2, 175776, Note_on_c, 0, 78, 53
2, 175776, Note_on_c, 0, 47, 48
2, 175870, Note_on_c, 0, 78, 0
2, 175870, Note_on_c, 0, 47, 0
2, 175872, Note_on_c, 0, 64, 70
2, 175872, Note_on_c, 0, 54, 43
2, 176032, Note_on_c, 0, 64, 0
2, 176032, Note_on_c, 0, 54, 0
2, 176040, Control_c, 0, 64, 0
2, 176064, Note_on_c, 0, 68, 87
2, 176064, Control_c, 0, 64, 127
2, 176064, Note_on_c, 0, 35, 49
2, 176158, Note_on_c, 0, 68, 0
2, 176158, Note_on_c, 0, 35, 0
2, 176160, Note_on_c, 0, 54, 43
2, 176160, Note_on_c, 0, 78, 61
2, 176254, Note_on_c, 0, 54, 0
2, 176254, Note_on_c, 0, 78, 0
2, 176256, Note_on_c, 0, 68, 53
2, 176256, Note_on_c, 0, 59, 46
2, 176350, Note_on_c, 0, 68, 0
2, 176350, Note_on_c, 0, 59, 0
2, 176352, Note_on_c, 0, 47, 41
2, 176352, Note_on_c, 0, 78, 56
2, 176446, Note_on_c, 0, 47, 0
2, 176446, Note_on_c, 0, 78, 0
2, 176448, Note_on_c, 0, 66, 67
2, 176448, Note_on_c, 0, 54, 43
2, 176608, Note_on_c, 0, 66, 0
2, 176608, Note_on_c, 0, 54, 0
2, 176616, Control_c, 0, 64, 0
2, 176640, Control_c, 0, 64, 127
2, 176640, Note_on_c, 0, 35, 49
2, 176640, Note_on_c, 0, 63, 62
2, 176734, Note_on_c, 0, 35, 0
2, 176734, Note_on_c, 0, 63, 0
2, 176736, Note_on_c, 0, 54, 45
2, 176736, Note_on_c, 0, 78, 44
2, 176830, Note_on_c, 0, 54, 0
2, 176830, Note_on_c, 0, 78, 0
2, 176832, Note_on_c, 0, 63, 47
2, 176832, Note_on_c, 0, 59, 45
2, 176926, Note_on_c, 0, 63, 0
2, 176926, Note_on_c, 0, 59, 0
2, 176928, Note_on_c, 0, 47, 40
2, 176928, Note_on_c, 0, 78, 44
2, 177022, Note_on_c, 0, 47, 0
2, 177022, Note_on_c, 0, 78, 0
2, 177024, Note_on_c, 0, 63, 51
2, 177024, Note_on_c, 0, 54, 40
2, 177184, Note_on_c, 0, 54, 0
2, 177192, Control_c, 0, 64, 0
2, 177216, Note_on_c, 0, 36, 40
2, 177216, Control_c, 0, 64, 127
2, 177310, Note_on_c, 0, 63, 0
2, 177310, Note_on_c, 0, 36, 0
2, 177312, Note_on_c, 0, 56, 45
2, 177312, Note_on_c, 0, 78, 74
2, 177406, Note_on_c, 0, 56, 0
2, 177406, Note_on_c, 0, 78, 0
2, 177408, Note_on_c, 0, 63, 41
2, 177408, Note_on_c, 0, 66, 48
2, 177502, Note_on_c, 0, 63, 0
2, 177502, Note_on_c, 0, 66, 0
2, 177504, Note_on_c, 0, 78, 57
2, 177504, Note_on_c, 0, 48, 40
2, 177598, Note_on_c, 0, 78, 0
2, 177598, Note_on_c, 0, 48, 0
2, 177600, Note_on_c, 0, 56, 42
2, 177600, Note_on_c, 0, 80, 76
2, 177760, Note_on_c, 0, 56, 0
2, 177760, Note_on_c, 0, 80, 0
2, 177768, Control_c, 0, 64, 0
2, 177792, Note_on_c, 0, 66, 63
2, 177792, Control_c, 0, 64, 127
2, 177792, Note_on_c, 0, 37, 48
2, 177886, Note_on_c, 0, 66, 0
2, 177886, Note_on_c, 0, 37, 0
2, 177888, Note_on_c, 0, 58, 48
2, 177888, Note_on_c, 0, 82, 84
2, 177982, Note_on_c, 0, 58, 0
2, 177982, Note_on_c, 0, 82, 0
2, 177984, Note_on_c, 0, 66, 58
2, 177984, Note_on_c, 0, 61, 40
2, 178078, Note_on_c, 0, 66, 0
2, 178078, Note_on_c, 0, 61, 0
2, 178080, Note_on_c, 0, 49, 40
2, 178080, Note_on_c, 0, 80, 60
2, 178174, Note_on_c, 0, 49, 0
2, 178174, Note_on_c, 0, 80, 0
2, 178176, Note_on_c, 0, 65, 59
2, 178176, Note_on_c, 0, 59, 48
2, 178336, Note_on_c, 0, 65, 0
2, 178336, Note_on_c, 0, 59, 0
2, 178344, Control_c, 0, 64, 0
2, 178368, Note_on_c, 0, 42, 41
2, 178368, Note_on_c, 0, 66, 56
2, 178368, Control_c, 0, 64, 127
2, 178462, Note_on_c, 0, 42, 0
2, 178462, Note_on_c, 0, 66, 0
2, 178464, Note_on_c, 0, 49, 42
2, 178464, Note_on_c, 0, 78, 75
2, 178558, Note_on_c, 0, 49, 0
2, 178558, Note_on_c, 0, 78, 0
2, 178560, Note_on_c, 0, 58, 46
2, 178560, Note_on_c, 0, 66, 57
2, 178654, Note_on_c, 0, 58, 0
2, 178654, Note_on_c, 0, 66, 0
2, 178656, Note_on_c, 0, 42, 46
2, 178656, Note_on_c, 0, 78, 47
2, 178750, Note_on_c, 0, 42, 0
2, 178750, Note_on_c, 0, 78, 0
2, 178752, Note_on_c, 0, 58, 46
2, 178752, Note_on_c, 0, 64, 66
2, 178912, Note_on_c, 0, 58, 0
2, 178912, Note_on_c, 0, 64, 0
2, 178920, Control_c, 0, 64, 0
2, 178944, Control_c, 0, 64, 127
2, 178944, Note_on_c, 0, 63, 62
2, 178944, Note_on_c, 0, 35, 41
2, 179038, Note_on_c, 0, 63, 0
2, 179038, Note_on_c, 0, 35, 0
2, 179040, Note_on_c, 0, 78, 46
2, 179040, Note_on_c, 0, 54, 41
2, 179134, Note_on_c, 0, 78, 0
2, 179134, Note_on_c, 0, 54, 0
2, 179136, Note_on_c, 0, 63, 40
2, 179136, Note_on_c, 0, 59, 44
2, 179230, Note_on_c, 0, 63, 0
2, 179230, Note_on_c, 0, 59, 0
2, 179232, Note_on_c, 0, 78, 49
2, 179232, Note_on_c, 0, 47, 46
2, 179326, Note_on_c, 0, 78, 0
2, 179326, Note_on_c, 0, 47, 0
2, 179328, Note_on_c, 0, 63, 46
2, 179328, Note_on_c, 0, 54, 44
2, 179488, Note_on_c, 0, 63, 0
2, 179488, Note_on_c, 0, 54, 0
2, 179496, Control_c, 0, 64, 0
2, 179520, Control_c, 0, 64, 127
2, 179520, Note_on_c, 0, 35, 50
2, 179520, Note_on_c, 0, 64, 85
2, 179614, Note_on_c, 0, 35, 0
2, 179614, Note_on_c, 0, 64, 0
2, 179616, Note_on_c, 0, 78, 64
2, 179616, Note_on_c, 0, 54, 49
2, 179710, Note_on_c, 0, 78, 0
2, 179710, Note_on_c, 0, 54, 0
2, 179712, Note_on_c, 0, 59, 46
2, 179712, Note_on_c, 0, 64, 58
2, 179806, Note_on_c, 0, 59, 0
2, 179806, Note_on_c, 0, 64, 0
2, 179808, Note_on_c, 0, 78, 57
2, 179808, Note_on_c, 0, 47, 46
2, 179902, Note_on_c, 0, 78, 0
2, 179902, Note_on_c, 0, 47, 0
2, 179904, Note_on_c, 0, 54, 40
2, 179904, Note_on_c, 0, 63, 70
2, 180064, Note_on_c, 0, 54, 0
2, 180064, Note_on_c, 0, 63, 0
2, 180072, Control_c, 0, 64, 0
2, 180096, Note_on_c, 0, 35, 44
2, 180096, Note_on_c, 0, 61, 66
2, 180096, Control_c, 0, 64, 127
2, 180190, Note_on_c, 0, 35, 0
2, 180190, Note_on_c, 0, 61, 0
2, 180192, Note_on_c, 0, 54, 49
2, 180192, Note_on_c, 0, 78, 40
2, 180286, Note_on_c, 0, 54, 0
2, 180286, Note_on_c, 0, 78, 0
2, 180288, Note_on_c, 0, 59, 47
2, 180288, Note_on_c, 0, 61, 51
2, 180382, Note_on_c, 0, 59, 0
2, 180382, Note_on_c, 0, 61, 0
2, 180384, Note_on_c, 0, 47, 49
2, 180384, Note_on_c, 0, 78, 56
2, 180478, Note_on_c, 0, 47, 0
2, 180478, Note_on_c, 0, 78, 0
2, 180480, Note_on_c, 0, 64, 73
2, 180480, Note_on_c, 0, 54, 50
2, 180640, Note_on_c, 0, 64, 0
2, 180640, Note_on_c, 0, 54, 0
2, 180648, Control_c, 0, 64, 0
2, 180672, Note_on_c, 0, 35, 50
2, 180672, Control_c, 0, 64, 127
2, 180672, Note_on_c, 0, 68, 83
2, 180766, Note_on_c, 0, 35, 0
2, 180766, Note_on_c, 0, 68, 0
2, 180768, Note_on_c, 0, 78, 63
2, 180768, Note_on_c, 0, 54, 41
2, 180862, Note_on_c, 0, 78, 0
2, 180862, Note_on_c, 0, 54, 0
2, 180864, Note_on_c, 0, 59, 41
2, 180864, Note_on_c, 0, 68, 62
2, 180958, Note_on_c, 0, 59, 0
2, 180958, Note_on_c, 0, 68, 0
2, 180960, Note_on_c, 0, 78, 51
2, 180960, Note_on_c, 0, 47, 44
2, 181054, Note_on_c, 0, 78, 0
2, 181054, Note_on_c, 0, 47, 0
2, 181056, Note_on_c, 0, 66, 68
2, 181056, Note_on_c, 0, 54, 47
2, 181216, Note_on_c, 0, 66, 0
2, 181216, Note_on_c, 0, 54, 0
2, 181224, Control_c, 0, 64, 0
2, 181248, Control_c, 0, 64, 127
2, 181248, Note_on_c, 0, 35, 45
2, 181248, Note_on_c, 0, 63, 64
2, 181342, Note_on_c, 0, 35, 0
2, 181342, Note_on_c, 0, 63, 0
2, 181344, Note_on_c, 0, 78, 46
2, 181344, Note_on_c, 0, 54, 50
2, 181438, Note_on_c, 0, 78, 0
2, 181438, Note_on_c, 0, 54, 0
2, 181440, Note_on_c, 0, 63, 41
2, 181440, Note_on_c, 0, 59, 50
2, 181534, Note_on_c, 0, 63, 0
2, 181534, Note_on_c, 0, 59, 0
2, 181536, Note_on_c, 0, 78, 44
2, 181536, Note_on_c, 0, 47, 44
2, 181630, Note_on_c, 0, 78, 0
2, 181630, Note_on_c, 0, 47, 0
2, 181632, Note_on_c, 0, 63, 51
2, 181632, Note_on_c, 0, 54, 46
2, 181792, Note_on_c, 0, 54, 0
2, 181800, Control_c, 0, 64, 0
2, 181824, Control_c, 0, 64, 127
2, 181824, Note_on_c, 0, 39, 40
2, 181918, Note_on_c, 0, 63, 0
2, 181918, Note_on_c, 0, 39, 0
2, 181920, Note_on_c, 0, 78, 51
2, 181920, Note_on_c, 0, 54, 47
2, 182014, Note_on_c, 0, 78, 0
2, 182014, Note_on_c, 0, 54, 0
2, 182016, Note_on_c, 0, 58, 47
2, 182016, Note_on_c, 0, 63, 48
2, 182110, Note_on_c, 0, 58, 0
2, 182110, Note_on_c, 0, 63, 0
2, 182112, Note_on_c, 0, 51, 41
2, 182112, Note_on_c, 0, 78, 53
2, 182206, Note_on_c, 0, 51, 0
2, 182206, Note_on_c, 0, 78, 0
2, 182208, Note_on_c, 0, 54, 41
2, 182208, Note_on_c, 0, 63, 53
2, 182368, Note_on_c, 0, 54, 0
2, 182368, Note_on_c, 0, 63, 0
2, 182376, Control_c, 0, 64, 0
2, 182400, Note_on_c, 0, 37, 43
2, 182400, Control_c, 0, 64, 127
2, 182400, Note_on_c, 0, 64, 65
2, 182494, Note_on_c, 0, 37, 0
2, 182494, Note_on_c, 0, 64, 0
2, 182496, Note_on_c, 0, 56, 44
2, 182496, Note_on_c, 0, 76, 56
2, 182590, Note_on_c, 0, 56, 0
2, 182590, Note_on_c, 0, 76, 0
2, 182592, Note_on_c, 0, 68, 55
2, 182592, Note_on_c, 0, 61, 46
2, 182686, Note_on_c, 0, 68, 0
2, 182686, Note_on_c, 0, 61, 0
2, 182688, Note_on_c, 0, 49, 49
2, 182688, Note_on_c, 0, 73, 49
2, 182782, Note_on_c, 0, 49, 0
2, 182782, Note_on_c, 0, 73, 0
2, 182784, Note_on_c, 0, 70, 47
2, 182784, Note_on_c, 0, 54, 40
2, 182784, Note_on_c, 0, 75, 56
2, 182784, Note_on_c, 0, 63, 55
2, 182944, Note_on_c, 0, 70, 0
2, 182944, Note_on_c, 0, 54, 0
2, 182944, Note_on_c, 0, 75, 0
2, 182944, Note_on_c, 0, 63, 0
2, 182952, Control_c, 0, 64, 0
2, 182976, Note_on_c, 0, 47, 40
2, 182976, Note_on_c, 0, 63, 49
2, 182976, Control_c, 0, 64, 127
2, 182976, Note_on_c, 0, 71, 47
2, 183070, Note_on_c, 0, 47, 0
2, 183072, Note_on_c, 0, 54, 44
2, 183166, Note_on_c, 0, 54, 0
2, 183168, Note_on_c, 0, 59, 49
2, 183262, Note_on_c, 0, 59, 0
2, 183264, Note_on_c, 0, 47, 42
2, 183312, Note_on_c, 0, 71, 0
2, 183358, Note_on_c, 0, 47, 0
2, 183360, Note_on_c, 0, 54, 43
2, 183360, Note_on_c, 0, 71, 73
2, 183504, Note_on_c, 0, 63, 0
2, 183520, Note_on_c, 0, 54, 0
2, 183528, Control_c, 0, 64, 0
2, 183552, Note_on_c, 0, 64, 55
2, 183552, Control_c, 0, 64, 127
2, 183552, Note_on_c, 0, 44, 41
2, 183646, Note_on_c, 0, 44, 0
2, 183648, Note_on_c, 0, 52, 48
2, 183712, Note_on_c, 0, 71, 0
2, 183742, Note_on_c, 0, 52, 0
2, 183744, Note_on_c, 0, 59, 46
2, 183744, Note_on_c, 0, 70, 81
2, 183838, Note_on_c, 0, 59, 0
2, 183840, Note_on_c, 0, 44, 47
2, 183934, Note_on_c, 0, 44, 0
2, 183936, Note_on_c, 0, 59, 45
2, 184000, Note_on_c, 0, 70, 0
2, 184032, Note_on_c, 0, 68, 83
2, 184032, Control_c, 0, 64, 0
2, 184078, Note_on_c, 0, 68, 0
2, 184080, Control_c, 0, 64, 127
2, 184080, Note_on_c, 0, 67, 77
2, 184096, Note_on_c, 0, 59, 0
2, 184096, Note_on_c, 0, 67, 0
2, 184096, Note_on_c, 0, 68, 80
2, 184112, Note_on_c, 0, 68, 0
2, 184112, Note_on_c, 0, 70, 73
2, 184128, Note_on_c, 0, 70, 0
2, 184128, Note_on_c, 0, 46, 50
2, 184128, Note_on_c, 0, 68, 76
2, 184222, Note_on_c, 0, 46, 0
2, 184224, Note_on_c, 0, 52, 51
2, 184318, Note_on_c, 0, 52, 0
2, 184320, Note_on_c, 0, 61, 58
2, 184384, Note_on_c, 0, 68, 0
2, 184414, Note_on_c, 0, 61, 0
2, 184416, Note_on_c, 0, 66, 82
2, 184416, Note_on_c, 0, 46, 50
2, 184510, Note_on_c, 0, 66, 0
2, 184510, Note_on_c, 0, 46, 0
2, 184512, Note_on_c, 0, 66, 85
2, 184512, Note_on_c, 0, 54, 59
2, 184608, Control_c, 0, 64, 0
2, 184654, Note_on_c, 0, 66, 0
2, 184656, Note_on_c, 0, 64, 0
2, 184656, Note_on_c, 0, 63, 79
2, 184656, Control_c, 0, 64, 127
2, 184672, Note_on_c, 0, 54, 0
2, 184680, Note_on_c, 0, 63, 0
2, 184680, Note_on_c, 0, 66, 80
2, 184704, Note_on_c, 0, 66, 0
2, 184704, Note_on_c, 0, 75, 84
2, 184704, Control_c, 0, 64, 127
2, 184704, Note_on_c, 0, 47, 61
2, 184704, Note_on_c, 0, 66, 61
2, 184798, Note_on_c, 0, 47, 0
2, 184800, Note_on_c, 0, 54, 55
2, 184864, Note_on_c, 0, 75, 0
2, 184894, Note_on_c, 0, 54, 0
2, 184896, Note_on_c, 0, 73, 79
2, 184896, Note_on_c, 0, 63, 59
2, 184990, Note_on_c, 0, 63, 0
2, 184992, Note_on_c, 0, 47, 60
2, 185086, Note_on_c, 0, 47, 0
2, 185088, Control_c, 0, 64, 0
2, 185088, Note_on_c, 0, 56, 57
2, 185152, Note_on_c, 0, 73, 0
2, 185184, Note_on_c, 0, 71, 80
2, 185230, Note_on_c, 0, 71, 0
2, 185232, Note_on_c, 0, 66, 0
2, 185232, Note_on_c, 0, 63, 82
2, 185232, Control_c, 0, 64, 127
2, 185248, Note_on_c, 0, 56, 0
2, 185256, Note_on_c, 0, 63, 0
2, 185256, Note_on_c, 0, 68, 86
2, 185280, Note_on_c, 0, 68, 0
2, 185280, Note_on_c, 0, 71, 82
2, 185280, Note_on_c, 0, 68, 61
2, 185280, Note_on_c, 0, 49, 64
2, 185302, Note_on_c, 0, 71, 0
2, 185304, Note_on_c, 0, 73, 88
2, 185326, Note_on_c, 0, 73, 0
2, 185328, Note_on_c, 0, 71, 84
2, 185374, Note_on_c, 0, 49, 0
2, 185376, Note_on_c, 0, 56, 60
2, 185470, Note_on_c, 0, 56, 0
2, 185472, Note_on_c, 0, 64, 66
2, 185566, Note_on_c, 0, 71, 0
2, 185566, Note_on_c, 0, 64, 0
2, 185568, Note_on_c, 0, 49, 72
2, 185568, Note_on_c, 0, 70, 89
2, 185662, Note_on_c, 0, 49, 0
2, 185662, Note_on_c, 0, 70, 0
2, 185664, Note_on_c, 0, 58, 76
2, 185664, Note_on_c, 0, 67, 86
2, 185664, Note_on_c, 0, 70, 89
2, 185758, Note_on_c, 0, 67, 0
2, 185758, Note_on_c, 0, 70, 0
2, 185760, Note_on_c, 0, 67, 85
2, 185760, Control_c, 0, 64, 0
2, 185792, Note_on_c, 0, 67, 0
2, 185792, Note_on_c, 0, 69, 93
2, 185808, Note_on_c, 0, 68, 0
2, 185808, Control_c, 0, 64, 127
2, 185824, Note_on_c, 0, 58, 0
2, 185824, Note_on_c, 0, 72, 96
2, 185856, Note_on_c, 0, 72, 0
2, 185856, Note_on_c, 0, 51, 73
2, 185856, Note_on_c, 0, 78, 91
2, 185950, Note_on_c, 0, 51, 0
2, 185952, Note_on_c, 0, 60, 79
2, 186016, Note_on_c, 0, 78, 0
2, 186046, Note_on_c, 0, 60, 0
2, 186048, Note_on_c, 0, 66, 73
2, 186048, Note_on_c, 0, 76, 92
2, 186142, Note_on_c, 0, 66, 0
2, 186144, Note_on_c, 0, 51, 80
2, 186238, Note_on_c, 0, 51, 0
2, 186240, Note_on_c, 0, 66, 77
2, 186304, Note_on_c, 0, 76, 0
2, 186336, Note_on_c, 0, 75, 88
2, 186384, Note_on_c, 0, 69, 0
2, 186400, Note_on_c, 0, 66, 0
2, 186408, Control_c, 0, 64, 0
2, 186430, Note_on_c, 0, 75, 0
2, 186432, Note_on_c, 0, 68, 72
2, 186432, Note_on_c, 0, 75, 89
2, 186432, Control_c, 0, 64, 127
2, 186432, Note_on_c, 0, 52, 78
2, 186526, Note_on_c, 0, 52, 0
2, 186528, Note_on_c, 0, 61, 79
2, 186622, Note_on_c, 0, 61, 0
2, 186624, Note_on_c, 0, 64, 75
2, 186688, Note_on_c, 0, 75, 0
2, 186718, Note_on_c, 0, 64, 0
2, 186720, Note_on_c, 0, 73, 94
2, 186720, Note_on_c, 0, 52, 72
2, 186814, Note_on_c, 0, 73, 0
2, 186814, Note_on_c, 0, 52, 0
2, 186816, Note_on_c, 0, 61, 71
2, 186816, Note_on_c, 0, 73, 93
2, 186976, Note_on_c, 0, 61, 0
2, 186976, Note_on_c, 0, 73, 0
2, 186984, Control_c, 0, 64, 0
2, 187008, Note_on_c, 0, 68, 0
2, 187008, Note_on_c, 0, 52, 74
2, 187008, Note_on_c, 0, 74, 89
2, 187008, Control_c, 0, 64, 127
2, 187032, Note_on_c, 0, 80, 92
2, 187102, Note_on_c, 0, 52, 0
2, 187104, Note_on_c, 0, 59, 70
2, 187198, Note_on_c, 0, 59, 0
2, 187200, Note_on_c, 0, 80, 0
2, 187200, Note_on_c, 0, 64, 64
2, 187200, Note_on_c, 0, 80, 86
2, 187224, Note_on_c, 0, 80, 0
2, 187224, Note_on_c, 0, 82, 82
2, 187248, Note_on_c, 0, 82, 0
2, 187248, Note_on_c, 0, 80, 81
2, 187294, Note_on_c, 0, 64, 0
2, 187296, Note_on_c, 0, 80, 0
2, 187296, Note_on_c, 0, 79, 81
2, 187296, Note_on_c, 0, 52, 58
2, 187390, Note_on_c, 0, 52, 0
2, 187392, Note_on_c, 0, 79, 0
2, 187392, Note_on_c, 0, 58, 54
2, 187392, Note_on_c, 0, 80, 86
2, 187488, Note_on_c, 0, 80, 0
2, 187488, Note_on_c, 0, 82, 80
2, 187536, Note_on_c, 0, 74, 0
2, 187552, Note_on_c, 0, 58, 0
2, 187560, Control_c, 0, 64, 0
2, 187584, Note_on_c, 0, 82, 0
2, 187584, Note_on_c, 0, 75, 62
2, 187584, Note_on_c, 0, 79, 79
2, 187584, Control_c, 0, 64, 127
2, 187584, Note_on_c, 0, 51, 49
2, 187678, Note_on_c, 0, 51, 0
2, 187680, Note_on_c, 0, 58, 44
2, 187774, Note_on_c, 0, 58, 0
2, 187776, Note_on_c, 0, 63, 49
2, 187870, Note_on_c, 0, 63, 0
2, 187872, Note_on_c, 0, 51, 46
2, 187920, Note_on_c, 0, 79, 0
2, 187966, Note_on_c, 0, 51, 0
2, 187968, Note_on_c, 0, 75, 63
2, 187968, Note_on_c, 0, 58, 40
2, 188112, Note_on_c, 0, 75, 0
2, 188128, Note_on_c, 0, 75, 0
2, 188128, Note_on_c, 0, 58, 0
2, 188136, Control_c, 0, 64, 0
2, 188160, Note_on_c, 0, 67, 40
2, 188160, Control_c, 0, 64, 127
2, 188160, Note_on_c, 0, 75, 64
2, 188160, Note_on_c, 0, 51, 47
2, 188208, Note_on_c, 0, 75, 0
2, 188208, Note_on_c, 0, 73, 57
2, 188254, Note_on_c, 0, 51, 0
2, 188256, Note_on_c, 0, 58, 44
2, 188350, Note_on_c, 0, 58, 0
2, 188352, Note_on_c, 0, 63, 43
2, 188446, Note_on_c, 0, 63, 0
2, 188448, Note_on_c, 0, 73, 0
2, 188448, Note_on_c, 0, 71, 60
2, 188448, Note_on_c, 0, 51, 47
2, 188542, Note_on_c, 0, 51, 0
2, 188544, Note_on_c, 0, 71, 0
2, 188544, Note_on_c, 0, 70, 64
2, 188544, Note_on_c, 0, 58, 45
2, 188688, Note_on_c, 0, 67, 0
2, 188704, Note_on_c, 0, 58, 0
2, 188712, Control_c, 0, 64, 0
2, 188736, Note_on_c, 0, 70, 0
2, 188736, Note_on_c, 0, 68, 45
2, 188736, Control_c, 0, 64, 127
2, 188736, Note_on_c, 0, 73, 64
2, 188736, Note_on_c, 0, 52, 46
2, 188830, Note_on_c, 0, 52, 0
2, 188832, Note_on_c, 0, 58, 40
2, 188926, Note_on_c, 0, 58, 0
2, 188928, Note_on_c, 0, 64, 48
2, 189022, Note_on_c, 0, 64, 0
2, 189024, Note_on_c, 0, 73, 0
2, 189024, Note_on_c, 0, 73, 65
2, 189024, Note_on_c, 0, 52, 48
2, 189118, Note_on_c, 0, 73, 0
2, 189118, Note_on_c, 0, 52, 0
2, 189120, Note_on_c, 0, 58, 46
2, 189120, Note_on_c, 0, 73, 56
2, 189264, Note_on_c, 0, 68, 0
2, 189280, Note_on_c, 0, 58, 0
2, 189280, Note_on_c, 0, 73, 0
2, 189288, Control_c, 0, 64, 0
2, 189312, Note_on_c, 0, 51, 44
2, 189312, Note_on_c, 0, 72, 63
2, 189312, Control_c, 0, 64, 127
2, 189336, Note_on_c, 0, 72, 0
2, 189336, Note_on_c, 0, 73, 64
2, 189360, Note_on_c, 0, 73, 0
2, 189360, Note_on_c, 0, 75, 62
2, 189384, Note_on_c, 0, 75, 0
2, 189384, Note_on_c, 0, 73, 55
2, 189384, Note_on_c, 0, 67, 61
2, 189406, Note_on_c, 0, 51, 0
2, 189408, Note_on_c, 0, 58, 46
2, 189502, Note_on_c, 0, 58, 0
2, 189504, Note_on_c, 0, 63, 42
2, 189598, Note_on_c, 0, 63, 0
2, 189600, Note_on_c, 0, 73, 0
2, 189600, Note_on_c, 0, 71, 57
2, 189600, Note_on_c, 0, 51, 46
2, 189694, Note_on_c, 0, 51, 0
2, 189696, Note_on_c, 0, 71, 0
2, 189696, Note_on_c, 0, 58, 48
2, 189696, Note_on_c, 0, 70, 63
2, 189840, Note_on_c, 0, 67, 0
2, 189856, Note_on_c, 0, 58, 0
2, 189864, Control_c, 0, 64, 0
2, 189888, Note_on_c, 0, 70, 0
2, 189888, Control_c, 0, 64, 127
2, 189888, Note_on_c, 0, 52, 41
2, 189888, Note_on_c, 0, 68, 40
2, 189888, Note_on_c, 0, 73, 63
2, 189982, Note_on_c, 0, 52, 0
2, 189984, Note_on_c, 0, 58, 40
2, 190078, Note_on_c, 0, 58, 0
2, 190080, Note_on_c, 0, 64, 45
2, 190174, Note_on_c, 0, 64, 0
2, 190176, Note_on_c, 0, 73, 0
2, 190176, Note_on_c, 0, 73, 59
2, 190176, Note_on_c, 0, 52, 49
2, 190270, Note_on_c, 0, 73, 0
2, 190270, Note_on_c, 0, 52, 0
2, 190272, Note_on_c, 0, 58, 43
2, 190272, Note_on_c, 0, 73, 63
2, 190416, Note_on_c, 0, 68, 0
2, 190432, Note_on_c, 0, 58, 0
2, 190432, Note_on_c, 0, 73, 0
2, 190440, Control_c, 0, 64, 0
2, 190464, Note_on_c, 0, 73, 61
2, 190464, Note_on_c, 0, 51, 42
2, 190464, Control_c, 0, 64, 127
2, 190464, Note_on_c, 0, 67, 49
2, 190558, Note_on_c, 0, 51, 0
2, 190560, Note_on_c, 0, 58, 44
2, 190654, Note_on_c, 0, 58, 0
2, 190656, Note_on_c, 0, 63, 41
2, 190750, Note_on_c, 0, 63, 0
2, 190752, Note_on_c, 0, 51, 39
2, 190846, Note_on_c, 0, 51, 0
2, 190848, Note_on_c, 0, 58, 48
2, 190992, Note_on_c, 0, 67, 0
2, 191008, Note_on_c, 0, 58, 0
2, 191016, Control_c, 0, 64, 0
2, 191040, Note_on_c, 0, 67, 41
2, 191040, Control_c, 0, 64, 127
2, 191040, Note_on_c, 0, 52, 39
2, 191134, Note_on_c, 0, 52, 0
2, 191136, Note_on_c, 0, 58, 39
2, 191230, Note_on_c, 0, 58, 0
2, 191232, Note_on_c, 0, 64, 45
2, 191296, Note_on_c, 0, 67, 0
2, 191326, Note_on_c, 0, 64, 0
2, 191328, Note_on_c, 0, 52, 40
2, 191328, Note_on_c, 0, 67, 40
2, 191422, Note_on_c, 0, 52, 0
2, 191422, Note_on_c, 0, 67, 0
2, 191424, Note_on_c, 0, 58, 37
2, 191424, Note_on_c, 0, 67, 40
2, 191584, Note_on_c, 0, 58, 0
2, 191584, Note_on_c, 0, 67, 0
2, 191592, Control_c, 0, 64, 0
2, 191616, Control_c, 0, 64, 127
2, 191616, Note_on_c, 0, 68, 43
2, 191616, Note_on_c, 0, 52, 45
2, 191710, Note_on_c, 0, 52, 0
2, 191712, Note_on_c, 0, 58, 42
2, 191806, Note_on_c, 0, 58, 0
2, 191808, Note_on_c, 0, 64, 36
2, 191902, Note_on_c, 0, 64, 0
2, 191904, Note_on_c, 0, 52, 41
2, 191998, Note_on_c, 0, 52, 0
2, 192000, Note_on_c, 0, 58, 36
2, 192144, Note_on_c, 0, 68, 0
2, 192160, Note_on_c, 0, 58, 0
2, 192168, Control_c, 0, 64, 0
2, 192192, Note_on_c, 0, 66, 43
2, 192192, Note_on_c, 0, 54, 39
2, 192192, Control_c, 0, 64, 127
2, 192286, Note_on_c, 0, 54, 0
2, 192288, Note_on_c, 0, 58, 37
2, 192382, Note_on_c, 0, 58, 0
2, 192384, Note_on_c, 0, 64, 30
2, 192478, Note_on_c, 0, 64, 0
2, 192480, Note_on_c, 0, 54, 34
2, 192528, Note_on_c, 0, 66, 0
2, 192574, Note_on_c, 0, 54, 0
2, 192576, Note_on_c, 0, 58, 30
2, 192576, Note_on_c, 0, 64, 47
2, 192720, Note_on_c, 0, 73, 0
2, 192736, Note_on_c, 0, 58, 0
2, 192736, Note_on_c, 0, 64, 0
2, 192744, Control_c, 0, 64, 0
2, 192768, Control_c, 0, 64, 127
2, 192768, Note_on_c, 0, 35, 42
2, 192768, Note_on_c, 0, 63, 59
2, 192862, Note_on_c, 0, 35, 0
2, 192862, Note_on_c, 0, 63, 0
2, 192864, Note_on_c, 0, 78, 44
2, 192864, Note_on_c, 0, 54, 43
2, 192958, Note_on_c, 0, 78, 0
2, 192958, Note_on_c, 0, 54, 0
2, 192960, Note_on_c, 0, 63, 44
2, 192960, Note_on_c, 0, 59, 48
2, 193054, Note_on_c, 0, 63, 0
2, 193054, Note_on_c, 0, 59, 0
2, 193056, Note_on_c, 0, 47, 50
2, 193056, Note_on_c, 0, 78, 55
2, 193150, Note_on_c, 0, 47, 0
2, 193150, Note_on_c, 0, 78, 0
2, 193152, Note_on_c, 0, 54, 49
2, 193152, Note_on_c, 0, 63, 54
2, 193312, Note_on_c, 0, 54, 0
2, 193312, Note_on_c, 0, 63, 0
2, 193320, Control_c, 0, 64, 0
2, 193344, Note_on_c, 0, 35, 50
2, 193344, Note_on_c, 0, 64, 79
2, 193344, Control_c, 0, 64, 127
2, 193438, Note_on_c, 0, 35, 0
2, 193438, Note_on_c, 0, 64, 0
2, 193440, Note_on_c, 0, 78, 63
2, 193440, Note_on_c, 0, 54, 42
2, 193534, Note_on_c, 0, 78, 0
2, 193534, Note_on_c, 0, 54, 0
2, 193536, Note_on_c, 0, 59, 43
2, 193536, Note_on_c, 0, 64, 57
2, 193630, Note_on_c, 0, 59, 0
2, 193630, Note_on_c, 0, 64, 0
2, 193632, Note_on_c, 0, 78, 49
2, 193632, Note_on_c, 0, 47, 46
2, 193726, Note_on_c, 0, 78, 0
2, 193726, Note_on_c, 0, 47, 0
2, 193728, Note_on_c, 0, 54, 46
2, 193728, Note_on_c, 0, 63, 74
2, 193888, Note_on_c, 0, 54, 0
2, 193888, Note_on_c, 0, 63, 0
2, 193896, Control_c, 0, 64, 0
2, 193920, Note_on_c, 0, 35, 43
2, 193920, Control_c, 0, 64, 127
2, 193920, Note_on_c, 0, 61, 61
2, 194014, Note_on_c, 0, 35, 0
2, 194014, Note_on_c, 0, 61, 0
2, 194016, Note_on_c, 0, 54, 43
2, 194016, Note_on_c, 0, 78, 44
2, 194110, Note_on_c, 0, 54, 0
2, 194110, Note_on_c, 0, 78, 0
2, 194112, Note_on_c, 0, 61, 53
2, 194112, Note_on_c, 0, 59, 41
2, 194206, Note_on_c, 0, 61, 0
2, 194206, Note_on_c, 0, 59, 0
2, 194208, Note_on_c, 0, 47, 43
2, 194208, Note_on_c, 0, 78, 48
2, 194302, Note_on_c, 0, 47, 0
2, 194302, Note_on_c, 0, 78, 0
2, 194304, Note_on_c, 0, 64, 78
2, 194304, Note_on_c, 0, 54, 47
2, 194464, Note_on_c, 0, 64, 0
2, 194464, Note_on_c, 0, 54, 0
2, 194472, Control_c, 0, 64, 0
2, 194496, Note_on_c, 0, 35, 42
2, 194496, Control_c, 0, 64, 127
2, 194496, Note_on_c, 0, 68, 85
2, 194590, Note_on_c, 0, 35, 0
2, 194590, Note_on_c, 0, 68, 0
2, 194592, Note_on_c, 0, 78, 60
2, 194592, Note_on_c, 0, 54, 49
2, 194686, Note_on_c, 0, 78, 0
2, 194686, Note_on_c, 0, 54, 0
2, 194688, Note_on_c, 0, 59, 46
2, 194688, Note_on_c, 0, 68, 55
2, 194782, Note_on_c, 0, 59, 0
2, 194782, Note_on_c, 0, 68, 0
2, 194784, Note_on_c, 0, 78, 56
2, 194784, Note_on_c, 0, 47, 43
2, 194878, Note_on_c, 0, 78, 0
2, 194878, Note_on_c, 0, 47, 0
2, 194880, Note_on_c, 0, 66, 76
2, 194880, Note_on_c, 0, 54, 43
2, 195040, Note_on_c, 0, 66, 0
2, 195040, Note_on_c, 0, 54, 0
2, 195048, Control_c, 0, 64, 0
2, 195072, Note_on_c, 0, 35, 43
2, 195072, Control_c, 0, 64, 127
2, 195072, Note_on_c, 0, 63, 59
2, 195166, Note_on_c, 0, 35, 0
2, 195166, Note_on_c, 0, 63, 0
2, 195168, Note_on_c, 0, 54, 50
2, 195168, Note_on_c, 0, 78, 44
2, 195262, Note_on_c, 0, 54, 0
2, 195262, Note_on_c, 0, 78, 0
2, 195264, Note_on_c, 0, 59, 45
2, 195264, Note_on_c, 0, 63, 44
2, 195358, Note_on_c, 0, 59, 0
2, 195358, Note_on_c, 0, 63, 0
2, 195360, Note_on_c, 0, 47, 40
2, 195360, Note_on_c, 0, 78, 46
2, 195454, Note_on_c, 0, 47, 0
2, 195454, Note_on_c, 0, 78, 0
2, 195456, Note_on_c, 0, 63, 44
2, 195456, Note_on_c, 0, 54, 47
2, 195616, Note_on_c, 0, 54, 0
2, 195624, Control_c, 0, 64, 0
2, 195648, Note_on_c, 0, 36, 47
2, 195648, Control_c, 0, 64, 127
2, 195742, Note_on_c, 0, 63, 0
2, 195742, Note_on_c, 0, 36, 0
2, 195744, Note_on_c, 0, 78, 73
2, 195744, Note_on_c, 0, 56, 42
2, 195838, Note_on_c, 0, 78, 0
2, 195838, Note_on_c, 0, 56, 0
2, 195840, Note_on_c, 0, 63, 47
2, 195840, Note_on_c, 0, 66, 52
2, 195934, Note_on_c, 0, 63, 0
2, 195934, Note_on_c, 0, 66, 0
2, 195936, Note_on_c, 0, 48, 43
2, 195936, Note_on_c, 0, 78, 59
2, 196030, Note_on_c, 0, 48, 0
2, 196030, Note_on_c, 0, 78, 0
2, 196032, Note_on_c, 0, 56, 48
2, 196032, Note_on_c, 0, 80, 76
2, 196192, Note_on_c, 0, 56, 0
2, 196192, Note_on_c, 0, 80, 0
2, 196200, Control_c, 0, 64, 0
2, 196224, Control_c, 0, 64, 127
2, 196224, Note_on_c, 0, 66, 59
2, 196224, Note_on_c, 0, 37, 49
2, 196318, Note_on_c, 0, 66, 0
2, 196318, Note_on_c, 0, 37, 0
2, 196320, Note_on_c, 0, 58, 44
2, 196320, Note_on_c, 0, 82, 86
2, 196414, Note_on_c, 0, 58, 0
2, 196414, Note_on_c, 0, 82, 0
2, 196416, Note_on_c, 0, 66, 55
2, 196416, Note_on_c, 0, 61, 49
2, 196510, Note_on_c, 0, 66, 0
2, 196510, Note_on_c, 0, 61, 0
2, 196512, Note_on_c, 0, 49, 45
2, 196512, Note_on_c, 0, 80, 59
2, 196606, Note_on_c, 0, 49, 0
2, 196606, Note_on_c, 0, 80, 0
2, 196608, Note_on_c, 0, 65, 61
2, 196608, Note_on_c, 0, 59, 48
2, 196768, Note_on_c, 0, 65, 0
2, 196768, Note_on_c, 0, 59, 0
2, 196776, Control_c, 0, 64, 0
2, 196800, Note_on_c, 0, 66, 49
2, 196800, Note_on_c, 0, 42, 50
2, 196800, Control_c, 0, 64, 127
2, 196894, Note_on_c, 0, 66, 0
2, 196894, Note_on_c, 0, 42, 0
2, 196896, Note_on_c, 0, 78, 79
2, 196896, Note_on_c, 0, 49, 41
2, 196990, Note_on_c, 0, 78, 0
2, 196990, Note_on_c, 0, 49, 0
2, 196992, Note_on_c, 0, 66, 47
2, 196992, Note_on_c, 0, 58, 40
2, 197086, Note_on_c, 0, 66, 0
2, 197086, Note_on_c, 0, 58, 0
2, 197088, Note_on_c, 0, 78, 46
2, 197088, Note_on_c, 0, 42, 40
2, 197182, Note_on_c, 0, 78, 0
2, 197182, Note_on_c, 0, 42, 0
2, 197184, Note_on_c, 0, 64, 67
2, 197184, Note_on_c, 0, 58, 44
2, 197344, Note_on_c, 0, 64, 0
2, 197344, Note_on_c, 0, 58, 0
2, 197352, Control_c, 0, 64, 0
2, 197376, Note_on_c, 0, 63, 60
2, 197376, Control_c, 0, 64, 127
2, 197376, Note_on_c, 0, 35, 48
2, 197470, Note_on_c, 0, 63, 0
2, 197470, Note_on_c, 0, 35, 0
2, 197472, Note_on_c, 0, 78, 49
2, 197472, Note_on_c, 0, 54, 40
2, 197566, Note_on_c, 0, 78, 0
2, 197566, Note_on_c, 0, 54, 0
2, 197568, Note_on_c, 0, 63, 50
2, 197568, Note_on_c, 0, 59, 42
2, 197662, Note_on_c, 0, 63, 0
2, 197662, Note_on_c, 0, 59, 0
2, 197664, Note_on_c, 0, 78, 49
2, 197664, Note_on_c, 0, 47, 49
2, 197758, Note_on_c, 0, 78, 0
2, 197758, Note_on_c, 0, 47, 0
2, 197760, Note_on_c, 0, 63, 46
2, 197760, Note_on_c, 0, 54, 43
2, 197920, Note_on_c, 0, 63, 0
2, 197920, Note_on_c, 0, 54, 0
2, 197928, Control_c, 0, 64, 0
2, 197952, Note_on_c, 0, 35, 49
2, 197952, Control_c, 0, 64, 127
2, 197952, Note_on_c, 0, 64, 79
2, 198046, Note_on_c, 0, 35, 0
2, 198046, Note_on_c, 0, 64, 0
2, 198048, Note_on_c, 0, 54, 48
2, 198048, Note_on_c, 0, 78, 55
2, 198142, Note_on_c, 0, 54, 0
2, 198142, Note_on_c, 0, 78, 0
2, 198144, Note_on_c, 0, 64, 58
2, 198144, Note_on_c, 0, 59, 40
2, 198238, Note_on_c, 0, 64, 0
2, 198238, Note_on_c, 0, 59, 0
2, 198240, Note_on_c, 0, 47, 48
2, 198240, Note_on_c, 0, 78, 53
2, 198334, Note_on_c, 0, 47, 0
2, 198334, Note_on_c, 0, 78, 0
2, 198336, Note_on_c, 0, 54, 49
2, 198336, Note_on_c, 0, 63, 69
2, 198496, Note_on_c, 0, 54, 0
2, 198496, Note_on_c, 0, 63, 0
2, 198504, Control_c, 0, 64, 0
2, 198528, Control_c, 0, 64, 127
2, 198528, Note_on_c, 0, 35, 41
2, 198528, Note_on_c, 0, 61, 60
2, 198622, Note_on_c, 0, 35, 0
2, 198622, Note_on_c, 0, 61, 0
2, 198624, Note_on_c, 0, 54, 40
2, 198624, Note_on_c, 0, 78, 44
2, 198718, Note_on_c, 0, 54, 0
2, 198718, Note_on_c, 0, 78, 0
2, 198720, Note_on_c, 0, 59, 47
2, 198720, Note_on_c, 0, 61, 48
2, 198814, Note_on_c, 0, 59, 0
2, 198814, Note_on_c, 0, 61, 0
2, 198816, Note_on_c, 0, 78, 46
2, 198816, Note_on_c, 0, 47, 42
2, 198910, Note_on_c, 0, 78, 0
2, 198910, Note_on_c, 0, 47, 0
2, 198912, Note_on_c, 0, 64, 78
2, 198912, Note_on_c, 0, 54, 41
2, 199072, Note_on_c, 0, 64, 0
2, 199072, Note_on_c, 0, 54, 0
2, 199080, Control_c, 0, 64, 0
2, 199104, Control_c, 0, 64, 127
2, 199104, Note_on_c, 0, 35, 40
2, 199104, Note_on_c, 0, 68, 86
2, 199198, Note_on_c, 0, 35, 0
2, 199198, Note_on_c, 0, 68, 0
2, 199200, Note_on_c, 0, 78, 62
2, 199200, Note_on_c, 0, 54, 41
2, 199294, Note_on_c, 0, 78, 0
2, 199294, Note_on_c, 0, 54, 0
2, 199296, Note_on_c, 0, 68, 54
2, 199296, Note_on_c, 0, 59, 42
2, 199390, Note_on_c, 0, 68, 0
2, 199390, Note_on_c, 0, 59, 0
2, 199392, Note_on_c, 0, 47, 41
2, 199392, Note_on_c, 0, 78, 57
2, 199486, Note_on_c, 0, 47, 0
2, 199486, Note_on_c, 0, 78, 0
2, 199488, Note_on_c, 0, 66, 66
2, 199488, Note_on_c, 0, 54, 49
2, 199648, Note_on_c, 0, 66, 0
2, 199648, Note_on_c, 0, 54, 0
2, 199656, Control_c, 0, 64, 0
2, 199680, Note_on_c, 0, 35, 46
2, 199680, Control_c, 0, 64, 127
2, 199680, Note_on_c, 0, 63, 60
2, 199774, Note_on_c, 0, 35, 0
2, 199774, Note_on_c, 0, 63, 0
2, 199776, Note_on_c, 0, 54, 49
2, 199776, Note_on_c, 0, 78, 43
2, 199870, Note_on_c, 0, 54, 0
2, 199870, Note_on_c, 0, 78, 0
2, 199872, Note_on_c, 0, 63, 49
2, 199872, Note_on_c, 0, 59, 45
2, 199966, Note_on_c, 0, 63, 0
2, 199966, Note_on_c, 0, 59, 0
2, 199968, Note_on_c, 0, 47, 40
2, 199968, Note_on_c, 0, 78, 52
2, 200062, Note_on_c, 0, 47, 0
2, 200062, Note_on_c, 0, 78, 0
2, 200064, Note_on_c, 0, 54, 46
2, 200064, Note_on_c, 0, 63, 47
2, 200224, Note_on_c, 0, 54, 0
2, 200232, Control_c, 0, 64, 0
2, 200256, Control_c, 0, 64, 127
2, 200256, Note_on_c, 0, 39, 43
2, 200350, Note_on_c, 0, 63, 0
2, 200350, Note_on_c, 0, 39, 0
2, 200352, Note_on_c, 0, 78, 55
2, 200352, Note_on_c, 0, 54, 48
2, 200446, Note_on_c, 0, 78, 0
2, 200446, Note_on_c, 0, 54, 0
2, 200448, Note_on_c, 0, 58, 45
2, 200448, Note_on_c, 0, 63, 54
2, 200542, Note_on_c, 0, 58, 0
2, 200542, Note_on_c, 0, 63, 0
2, 200544, Note_on_c, 0, 78, 56
2, 200544, Note_on_c, 0, 51, 48
2, 200638, Note_on_c, 0, 78, 0
2, 200638, Note_on_c, 0, 51, 0
2, 200640, Note_on_c, 0, 54, 50
2, 200640, Note_on_c, 0, 63, 61
2, 200800, Note_on_c, 0, 54, 0
2, 200800, Note_on_c, 0, 63, 0
2, 200808, Control_c, 0, 64, 0
2, 200832, Control_c, 0, 64, 127
2, 200832, Note_on_c, 0, 37, 49
2, 200832, Note_on_c, 0, 64, 64
2, 200926, Note_on_c, 0, 37, 0
2, 200926, Note_on_c, 0, 64, 0
2, 200928, Note_on_c, 0, 56, 49
2, 200928, Note_on_c, 0, 76, 56
2, 201022, Note_on_c, 0, 56, 0
2, 201022, Note_on_c, 0, 76, 0
2, 201024, Note_on_c, 0, 61, 49
2, 201024, Note_on_c, 0, 68, 56
2, 201118, Note_on_c, 0, 61, 0
2, 201118, Note_on_c, 0, 68, 0
2, 201120, Note_on_c, 0, 49, 43
2, 201120, Note_on_c, 0, 73, 56
2, 201214, Note_on_c, 0, 49, 0
2, 201214, Note_on_c, 0, 73, 0
2, 201216, Note_on_c, 0, 54, 42
2, 201216, Note_on_c, 0, 63, 55
2, 201216, Note_on_c, 0, 75, 51
2, 201216, Note_on_c, 0, 70, 49
2, 201376, Note_on_c, 0, 54, 0
2, 201376, Note_on_c, 0, 63, 0
2, 201376, Note_on_c, 0, 75, 0
2, 201376, Note_on_c, 0, 70, 0
2, 201384, Control_c, 0, 64, 0
2, 201408, Control_c, 0, 64, 127
2, 201408, Note_on_c, 0, 63, 42
2, 201408, Note_on_c, 0, 71, 50
2, 201408, Note_on_c, 0, 47, 50
2, 201502, Note_on_c, 0, 47, 0
2, 201504, Note_on_c, 0, 54, 47
2, 201598, Note_on_c, 0, 54, 0
2, 201600, Note_on_c, 0, 59, 44
2, 201694, Note_on_c, 0, 59, 0
2, 201696, Note_on_c, 0, 47, 43
2, 201744, Note_on_c, 0, 71, 0
2, 201790, Note_on_c, 0, 47, 0
2, 201792, Note_on_c, 0, 54, 45
2, 201792, Note_on_c, 0, 71, 75
2, 201936, Note_on_c, 0, 63, 0
2, 201952, Note_on_c, 0, 54, 0
2, 201960, Control_c, 0, 64, 0
2, 201984, Control_c, 0, 64, 127
2, 201984, Note_on_c, 0, 44, 40
2, 201984, Note_on_c, 0, 64, 61
2, 202078, Note_on_c, 0, 44, 0
2, 202080, Note_on_c, 0, 52, 50
2, 202144, Note_on_c, 0, 71, 0
2, 202174, Note_on_c, 0, 52, 0
2, 202176, Note_on_c, 0, 70, 79
2, 202176, Note_on_c, 0, 59, 42
2, 202270, Note_on_c, 0, 59, 0
2, 202272, Note_on_c, 0, 44, 48
2, 202366, Note_on_c, 0, 44, 0
2, 202368, Note_on_c, 0, 59, 52
2, 202432, Note_on_c, 0, 70, 0
2, 202464, Note_on_c, 0, 68, 77
2, 202464, Control_c, 0, 64, 0
2, 202510, Note_on_c, 0, 68, 0
2, 202512, Note_on_c, 0, 67, 74
2, 202512, Control_c, 0, 64, 127
2, 202528, Note_on_c, 0, 59, 0
2, 202528, Note_on_c, 0, 67, 0
2, 202528, Note_on_c, 0, 68, 79
2, 202544, Note_on_c, 0, 68, 0
2, 202544, Note_on_c, 0, 70, 76
2, 202560, Note_on_c, 0, 70, 0
2, 202560, Note_on_c, 0, 46, 51
2, 202560, Note_on_c, 0, 68, 77
2, 202654, Note_on_c, 0, 46, 0
2, 202656, Note_on_c, 0, 52, 54
2, 202750, Note_on_c, 0, 52, 0
2, 202752, Note_on_c, 0, 61, 56
2, 202816, Note_on_c, 0, 68, 0
2, 202846, Note_on_c, 0, 61, 0
2, 202848, Note_on_c, 0, 46, 49
2, 202848, Note_on_c, 0, 66, 85
2, 202942, Note_on_c, 0, 46, 0
2, 202942, Note_on_c, 0, 66, 0
2, 202944, Note_on_c, 0, 54, 57
2, 202944, Note_on_c, 0, 66, 77
2, 203040, Control_c, 0, 64, 0
2, 203086, Note_on_c, 0, 66, 0
2, 203088, Note_on_c, 0, 64, 0
2, 203088, Control_c, 0, 64, 127
2, 203088, Note_on_c, 0, 63, 85
2, 203104, Note_on_c, 0, 54, 0
2, 203112, Note_on_c, 0, 63, 0
2, 203112, Note_on_c, 0, 66, 83
2, 203136, Note_on_c, 0, 66, 0
2, 203136, Control_c, 0, 64, 127
2, 203136, Note_on_c, 0, 75, 76
2, 203136, Note_on_c, 0, 66, 65
2, 203136, Note_on_c, 0, 47, 60
2, 203230, Note_on_c, 0, 47, 0
2, 203232, Note_on_c, 0, 54, 53
2, 203296, Note_on_c, 0, 75, 0
2, 203326, Note_on_c, 0, 54, 0
2, 203328, Note_on_c, 0, 73, 83
2, 203328, Note_on_c, 0, 63, 56
2, 203422, Note_on_c, 0, 63, 0
2, 203424, Note_on_c, 0, 47, 60
2, 203518, Note_on_c, 0, 47, 0
2, 203520, Note_on_c, 0, 56, 57
2, 203520, Control_c, 0, 64, 0
2, 203584, Note_on_c, 0, 73, 0
2, 203616, Note_on_c, 0, 71, 85
2, 203662, Note_on_c, 0, 71, 0
2, 203664, Note_on_c, 0, 66, 0
2, 203664, Control_c, 0, 64, 127
2, 203664, Note_on_c, 0, 63, 87
2, 203680, Note_on_c, 0, 56, 0
2, 203688, Note_on_c, 0, 63, 0
2, 203688, Note_on_c, 0, 68, 86
2, 203712, Note_on_c, 0, 68, 0
2, 203712, Note_on_c, 0, 49, 59
2, 203712, Note_on_c, 0, 68, 65
2, 203712, Note_on_c, 0, 71, 84
2, 203734, Note_on_c, 0, 71, 0
2, 203736, Note_on_c, 0, 73, 84
2, 203758, Note_on_c, 0, 73, 0
2, 203760, Note_on_c, 0, 71, 83
2, 203806, Note_on_c, 0, 49, 0
2, 203808, Note_on_c, 0, 56, 60
2, 203902, Note_on_c, 0, 56, 0
2, 203904, Note_on_c, 0, 64, 64
2, 203998, Note_on_c, 0, 71, 0
2, 203998, Note_on_c, 0, 64, 0
2, 204000, Note_on_c, 0, 70, 92
2, 204000, Note_on_c, 0, 49, 69
2, 204094, Note_on_c, 0, 70, 0
2, 204094, Note_on_c, 0, 49, 0
2, 204096, Note_on_c, 0, 67, 84
2, 204096, Note_on_c, 0, 58, 72
2, 204096, Note_on_c, 0, 70, 90
2, 204190, Note_on_c, 0, 67, 0
2, 204190, Note_on_c, 0, 70, 0
2, 204192, Control_c, 0, 64, 0
2, 204192, Note_on_c, 0, 67, 87
2, 204224, Note_on_c, 0, 67, 0
2, 204224, Note_on_c, 0, 69, 85
2, 204240, Note_on_c, 0, 68, 0
2, 204240, Control_c, 0, 64, 127
2, 204256, Note_on_c, 0, 58, 0
2, 204256, Note_on_c, 0, 72, 95
2, 204288, Note_on_c, 0, 72, 0
2, 204288, Note_on_c, 0, 51, 71
2, 204288, Note_on_c, 0, 78, 90
2, 204382, Note_on_c, 0, 51, 0
2, 204384, Note_on_c, 0, 60, 76
2, 204448, Note_on_c, 0, 78, 0
2, 204478, Note_on_c, 0, 60, 0
2, 204480, Note_on_c, 0, 76, 93
2, 204480, Note_on_c, 0, 66, 73
2, 204574, Note_on_c, 0, 66, 0
2, 204576, Note_on_c, 0, 51, 79
2, 204670, Note_on_c, 0, 51, 0
2, 204672, Note_on_c, 0, 66, 76
2, 204736, Note_on_c, 0, 76, 0
2, 204768, Note_on_c, 0, 75, 92
2, 204816, Note_on_c, 0, 69, 0
2, 204832, Note_on_c, 0, 66, 0
2, 204840, Control_c, 0, 64, 0
2, 204862, Note_on_c, 0, 75, 0
2, 204864, Note_on_c, 0, 68, 73
2, 204864, Note_on_c, 0, 52, 75
2, 204864, Note_on_c, 0, 75, 92
2, 204864, Control_c, 0, 64, 127
2, 204958, Note_on_c, 0, 52, 0
2, 204960, Note_on_c, 0, 61, 73
2, 205054, Note_on_c, 0, 61, 0
2, 205056, Note_on_c, 0, 64, 70
2, 205120, Note_on_c, 0, 75, 0
2, 205150, Note_on_c, 0, 64, 0
2, 205152, Note_on_c, 0, 52, 71
2, 205152, Note_on_c, 0, 73, 90
2, 205246, Note_on_c, 0, 52, 0
2, 205246, Note_on_c, 0, 73, 0
2, 205248, Note_on_c, 0, 61, 72
2, 205248, Note_on_c, 0, 73, 87
2, 205408, Note_on_c, 0, 61, 0
2, 205408, Note_on_c, 0, 73, 0
2, 205416, Control_c, 0, 64, 0
2, 205440, Note_on_c, 0, 68, 0
2, 205440, Note_on_c, 0, 74, 94
2, 205440, Control_c, 0, 64, 127
2, 205440, Note_on_c, 0, 52, 75
2, 205464, Note_on_c, 0, 80, 97
2, 205534, Note_on_c, 0, 52, 0
2, 205536, Note_on_c, 0, 59, 75
2, 205630, Note_on_c, 0, 59, 0
2, 205632, Note_on_c, 0, 80, 0
2, 205632, Note_on_c, 0, 64, 70
2, 205632, Note_on_c, 0, 80, 90
2, 205656, Note_on_c, 0, 80, 0
2, 205656, Note_on_c, 0, 82, 91
2, 205680, Note_on_c, 0, 82, 0
2, 205680, Note_on_c, 0, 80, 91
2, 205726, Note_on_c, 0, 64, 0
2, 205728, Note_on_c, 0, 80, 0
2, 205728, Note_on_c, 0, 79, 85
2, 205728, Note_on_c, 0, 52, 55
2, 205822, Note_on_c, 0, 52, 0
2, 205824, Note_on_c, 0, 79, 0
2, 205824, Note_on_c, 0, 58, 55
2, 205824, Note_on_c, 0, 80, 85
2, 205920, Note_on_c, 0, 80, 0
2, 205920, Note_on_c, 0, 82, 81
2, 205968, Note_on_c, 0, 74, 0
2, 205984, Note_on_c, 0, 58, 0
2, 205992, Control_c, 0, 64, 0
2, 206016, Note_on_c, 0, 82, 0
2, 206016, Note_on_c, 0, 51, 44
2, 206016, Control_c, 0, 64, 127
2, 206016, Note_on_c, 0, 79, 73
2, 206016, Note_on_c, 0, 75, 56
2, 206110, Note_on_c, 0, 51, 0
2, 206112, Note_on_c, 0, 58, 42
2, 206206, Note_on_c, 0, 58, 0
2, 206208, Note_on_c, 0, 63, 47
2, 206302, Note_on_c, 0, 63, 0
2, 206304, Note_on_c, 0, 51, 50
2, 206352, Note_on_c, 0, 79, 0
2, 206398, Note_on_c, 0, 51, 0
2, 206400, Note_on_c, 0, 75, 57
2, 206400, Note_on_c, 0, 58, 46
2, 206544, Note_on_c, 0, 75, 0
2, 206560, Note_on_c, 0, 75, 0
2, 206560, Note_on_c, 0, 58, 0
2, 206568, Control_c, 0, 64, 0
2, 206592, Note_on_c, 0, 51, 49
2, 206592, Note_on_c, 0, 67, 42
2, 206592, Note_on_c, 0, 75, 56
2, 206592, Control_c, 0, 64, 127
2, 206640, Note_on_c, 0, 75, 0
2, 206640, Note_on_c, 0, 73, 64
2, 206686, Note_on_c, 0, 51, 0
2, 206688, Note_on_c, 0, 58, 50
2, 206782, Note_on_c, 0, 58, 0
2, 206784, Note_on_c, 0, 63, 43
2, 206878, Note_on_c, 0, 63, 0
2, 206880, Note_on_c, 0, 73, 0
2, 206880, Note_on_c, 0, 51, 46
2, 206880, Note_on_c, 0, 71, 60
2, 206974, Note_on_c, 0, 51, 0
2, 206976, Note_on_c, 0, 71, 0
2, 206976, Note_on_c, 0, 70, 59
2, 206976, Note_on_c, 0, 58, 43
2, 207120, Note_on_c, 0, 67, 0
2, 207136, Note_on_c, 0, 58, 0
2, 207144, Control_c, 0, 64, 0
2, 207168, Note_on_c, 0, 70, 0
2, 207168, Control_c, 0, 64, 127
2, 207168, Note_on_c, 0, 68, 44
2, 207168, Note_on_c, 0, 52, 49
2, 207168, Note_on_c, 0, 73, 65
2, 207262, Note_on_c, 0, 52, 0
2, 207264, Note_on_c, 0, 58, 49
2, 207358, Note_on_c, 0, 58, 0
2, 207360, Note_on_c, 0, 64, 46
2, 207454, Note_on_c, 0, 64, 0
2, 207456, Note_on_c, 0, 73, 0
2, 207456, Note_on_c, 0, 73, 56
2, 207456, Note_on_c, 0, 52, 42
2, 207550, Note_on_c, 0, 73, 0
2, 207550, Note_on_c, 0, 52, 0
2, 207552, Note_on_c, 0, 73, 62
2, 207552, Note_on_c, 0, 58, 46
2, 207696, Note_on_c, 0, 68, 0
2, 207712, Note_on_c, 0, 73, 0
2, 207712, Note_on_c, 0, 58, 0
2, 207720, Control_c, 0, 64, 0
2, 207744, Control_c, 0, 64, 127
2, 207744, Note_on_c, 0, 51, 49
2, 207744, Note_on_c, 0, 72, 62
2, 207768, Note_on_c, 0, 72, 0
2, 207768, Note_on_c, 0, 73, 63
2, 207792, Note_on_c, 0, 73, 0
2, 207792, Note_on_c, 0, 75, 65
2, 207816, Note_on_c, 0, 75, 0
2, 207816, Note_on_c, 0, 73, 64
2, 207816, Note_on_c, 0, 67, 57
2, 207838, Note_on_c, 0, 51, 0
2, 207840, Note_on_c, 0, 58, 44
2, 207934, Note_on_c, 0, 58, 0
2, 207936, Note_on_c, 0, 63, 46
2, 208030, Note_on_c, 0, 63, 0
2, 208032, Note_on_c, 0, 73, 0
2, 208032, Note_on_c, 0, 71, 57
2, 208032, Note_on_c, 0, 51, 46
2, 208126, Note_on_c, 0, 51, 0
2, 208128, Note_on_c, 0, 71, 0
2, 208128, Note_on_c, 0, 58, 48
2, 208128, Note_on_c, 0, 70, 65
2, 208272, Note_on_c, 0, 67, 0
2, 208288, Note_on_c, 0, 58, 0
2, 208296, Control_c, 0, 64, 0
2, 208320, Note_on_c, 0, 70, 0
2, 208320, Note_on_c, 0, 68, 41
2, 208320, Note_on_c, 0, 52, 42
2, 208320, Control_c, 0, 64, 127
2, 208320, Note_on_c, 0, 73, 57
2, 208414, Note_on_c, 0, 52, 0
2, 208416, Note_on_c, 0, 58, 40
2, 208510, Note_on_c, 0, 58, 0
2, 208512, Note_on_c, 0, 64, 42
2, 208606, Note_on_c, 0, 64, 0
2, 208608, Note_on_c, 0, 73, 0
2, 208608, Note_on_c, 0, 52, 45
2, 208608, Note_on_c, 0, 73, 59
2, 208702, Note_on_c, 0, 52, 0
2, 208702, Note_on_c, 0, 73, 0
2, 208704, Note_on_c, 0, 58, 49
2, 208704, Note_on_c, 0, 73, 63
2, 208848, Note_on_c, 0, 68, 0
2, 208864, Note_on_c, 0, 58, 0
2, 208864, Note_on_c, 0, 73, 0
2, 208872, Control_c, 0, 64, 0
2, 208896, Note_on_c, 0, 73, 60
2, 208896, Control_c, 0, 64, 127
2, 208896, Note_on_c, 0, 67, 49
2, 208896, Note_on_c, 0, 51, 42
2, 208990, Note_on_c, 0, 51, 0
2, 208992, Note_on_c, 0, 58, 45
2, 209086, Note_on_c, 0, 58, 0
2, 209088, Note_on_c, 0, 63, 41
2, 209182, Note_on_c, 0, 63, 0
2, 209184, Note_on_c, 0, 51, 44
2, 209278, Note_on_c, 0, 51, 0
2, 209280, Note_on_c, 0, 58, 40
2, 209424, Note_on_c, 0, 67, 0
2, 209440, Note_on_c, 0, 58, 0
2, 209448, Control_c, 0, 64, 0
2, 209472, Note_on_c, 0, 52, 43
2, 209472, Note_on_c, 0, 67, 47
2, 209472, Control_c, 0, 64, 127
2, 209566, Note_on_c, 0, 52, 0
2, 209568, Note_on_c, 0, 58, 40
2, 209662, Note_on_c, 0, 58, 0
2, 209664, Note_on_c, 0, 64, 45
2, 209728, Note_on_c, 0, 67, 0
2, 209758, Note_on_c, 0, 64, 0
2, 209760, Note_on_c, 0, 52, 43
2, 209760, Note_on_c, 0, 67, 40
2, 209854, Note_on_c, 0, 52, 0
2, 209854, Note_on_c, 0, 67, 0
2, 209856, Note_on_c, 0, 67, 46
2, 209856, Note_on_c, 0, 58, 42
2, 210016, Note_on_c, 0, 67, 0
2, 210016, Note_on_c, 0, 58, 0
2, 210024, Control_c, 0, 64, 0
2, 210048, Note_on_c, 0, 52, 45
2, 210048, Control_c, 0, 64, 127
2, 210048, Note_on_c, 0, 68, 46
2, 210142, Note_on_c, 0, 52, 0
2, 210144, Note_on_c, 0, 58, 37
2, 210238, Note_on_c, 0, 58, 0
2, 210240, Note_on_c, 0, 64, 35
2, 210334, Note_on_c, 0, 64, 0
2, 210336, Note_on_c, 0, 52, 40
2, 210430, Note_on_c, 0, 52, 0
2, 210432, Note_on_c, 0, 58, 33
2, 210576, Note_on_c, 0, 68, 0
2, 210592, Note_on_c, 0, 58, 0
2, 210600, Control_c, 0, 64, 0
2, 210624, Control_c, 0, 64, 127
2, 210624, Note_on_c, 0, 66, 44
2, 210624, Note_on_c, 0, 54, 32
2, 210718, Note_on_c, 0, 54, 0
2, 210720, Note_on_c, 0, 58, 36
2, 210814, Note_on_c, 0, 58, 0
2, 210816, Note_on_c, 0, 64, 33
2, 210910, Note_on_c, 0, 64, 0
2, 210912, Note_on_c, 0, 54, 28
2, 210960, Note_on_c, 0, 66, 0
2, 211006, Note_on_c, 0, 54, 0
2, 211008, Note_on_c, 0, 64, 41
2, 211008, Note_on_c, 0, 58, 29
2, 211152, Note_on_c, 0, 73, 0
2, 211168, Note_on_c, 0, 64, 0
2, 211168, Note_on_c, 0, 58, 0
2, 211176, Control_c, 0, 64, 0
2, 211200, Note_on_c, 0, 35, 49
2, 211200, Control_c, 0, 64, 127
2, 211200, Note_on_c, 0, 63, 60
2, 211294, Note_on_c, 0, 35, 0
2, 211294, Note_on_c, 0, 63, 0
2, 211296, Note_on_c, 0, 78, 49
2, 211296, Note_on_c, 0, 54, 45
2, 211390, Note_on_c, 0, 78, 0
2, 211390, Note_on_c, 0, 54, 0
2, 211392, Note_on_c, 0, 63, 46
2, 211392, Note_on_c, 0, 59, 48
2, 211486, Note_on_c, 0, 63, 0
2, 211486, Note_on_c, 0, 59, 0
2, 211488, Note_on_c, 0, 47, 43
2, 211488, Note_on_c, 0, 78, 55
2, 211582, Note_on_c, 0, 47, 0
2, 211582, Note_on_c, 0, 78, 0
2, 211584, Note_on_c, 0, 54, 42
2, 211584, Note_on_c, 0, 63, 51
2, 211744, Note_on_c, 0, 54, 0
2, 211744, Note_on_c, 0, 63, 0
2, 211752, Control_c, 0, 64, 0
2, 211776, Note_on_c, 0, 35, 46
2, 211776, Control_c, 0, 64, 127
2, 211776, Note_on_c, 0, 64, 84
2, 211870, Note_on_c, 0, 35, 0
2, 211870, Note_on_c, 0, 64, 0
2, 211872, Note_on_c, 0, 78, 56
2, 211872, Note_on_c, 0, 54, 50
2, 211966, Note_on_c, 0, 78, 0
2, 211966, Note_on_c, 0, 54, 0
2, 211968, Note_on_c, 0, 64, 55
2, 211968, Note_on_c, 0, 59, 44
2, 212062, Note_on_c, 0, 64, 0
2, 212062, Note_on_c, 0, 59, 0
2, 212064, Note_on_c, 0, 78, 50
2, 212064, Note_on_c, 0, 47, 46
2, 212158, Note_on_c, 0, 78, 0
2, 212158, Note_on_c, 0, 47, 0
2, 212160, Note_on_c, 0, 54, 45
2, 212160, Note_on_c, 0, 63, 69
2, 212320, Note_on_c, 0, 54, 0
2, 212320, Note_on_c, 0, 63, 0
2, 212328, Control_c, 0, 64, 0
2, 212352, Note_on_c, 0, 35, 40
2, 212352, Control_c, 0, 64, 127
2, 212352, Note_on_c, 0, 61, 60
2, 212446, Note_on_c, 0, 35, 0
2, 212446, Note_on_c, 0, 61, 0
2, 212448, Note_on_c, 0, 54, 41
2, 212448, Note_on_c, 0, 78, 45
2, 212542, Note_on_c, 0, 54, 0
2, 212542, Note_on_c, 0, 78, 0
2, 212544, Note_on_c, 0, 61, 50
2, 212544, Note_on_c, 0, 59, 49
2, 212638, Note_on_c, 0, 61, 0
2, 212638, Note_on_c, 0, 59, 0
2, 212640, Note_on_c, 0, 47, 48
2, 212640, Note_on_c, 0, 78, 55
2, 212734, Note_on_c, 0, 47, 0
2, 212734, Note_on_c, 0, 78, 0
2, 212736, Note_on_c, 0, 54, 48
2, 212736, Note_on_c, 0, 64, 70
2, 212896, Note_on_c, 0, 54, 0
2, 212896, Note_on_c, 0, 64, 0
2, 212904, Control_c, 0, 64, 0
2, 212928, Note_on_c, 0, 68, 81
2, 212928, Note_on_c, 0, 35, 46
2, 212928, Control_c, 0, 64, 127
2, 213022, Note_on_c, 0, 68, 0
2, 213022, Note_on_c, 0, 35, 0
2, 213024, Note_on_c, 0, 78, 63
2, 213024, Note_on_c, 0, 54, 48
2, 213118, Note_on_c, 0, 78, 0
2, 213118, Note_on_c, 0, 54, 0
2, 213120, Note_on_c, 0, 68, 56
2, 213120, Note_on_c, 0, 59, 42
2, 213214, Note_on_c, 0, 68, 0
2, 213214, Note_on_c, 0, 59, 0
2, 213216, Note_on_c, 0, 47, 41
2, 213216, Note_on_c, 0, 78, 55
2, 213310, Note_on_c, 0, 47, 0
2, 213310, Note_on_c, 0, 78, 0
2, 213312, Note_on_c, 0, 66, 75
2, 213312, Note_on_c, 0, 54, 40
2, 213472, Note_on_c, 0, 66, 0
2, 213472, Note_on_c, 0, 54, 0
2, 213480, Control_c, 0, 64, 0
2, 213504, Control_c, 0, 64, 127
2, 213504, Note_on_c, 0, 35, 41
2, 213504, Note_on_c, 0, 63, 66
2, 213598, Note_on_c, 0, 35, 0
2, 213598, Note_on_c, 0, 63, 0
2, 213600, Note_on_c, 0, 78, 47
2, 213600, Note_on_c, 0, 54, 50
2, 213694, Note_on_c, 0, 78, 0
2, 213694, Note_on_c, 0, 54, 0
2, 213696, Note_on_c, 0, 59, 48
2, 213696, Note_on_c, 0, 63, 44
2, 213790, Note_on_c, 0, 59, 0
2, 213790, Note_on_c, 0, 63, 0
2, 213792, Note_on_c, 0, 47, 41
2, 213792, Note_on_c, 0, 78, 48
2, 213886, Note_on_c, 0, 47, 0
2, 213886, Note_on_c, 0, 78, 0
2, 213888, Note_on_c, 0, 63, 46
2, 213888, Note_on_c, 0, 54, 46
2, 214048, Note_on_c, 0, 54, 0
2, 214056, Control_c, 0, 64, 0
2, 214080, Note_on_c, 0, 36, 41
2, 214080, Control_c, 0, 64, 127
2, 214174, Note_on_c, 0, 63, 0
2, 214174, Note_on_c, 0, 36, 0
2, 214176, Note_on_c, 0, 58, 46
2, 214176, Note_on_c, 0, 78, 70
2, 214270, Note_on_c, 0, 78, 0
2, 214272, Note_on_c, 0, 63, 47
2, 214272, Note_on_c, 0, 66, 53
2, 214336, Note_on_c, 0, 58, 0
2, 214366, Note_on_c, 0, 63, 0
2, 214366, Note_on_c, 0, 66, 0
2, 214368, Note_on_c, 0, 78, 50
2, 214368, Note_on_c, 0, 48, 44
2, 214462, Note_on_c, 0, 78, 0
2, 214464, Note_on_c, 0, 56, 42
2, 214464, Note_on_c, 0, 80, 75
2, 214528, Note_on_c, 0, 48, 0
2, 214624, Note_on_c, 0, 56, 0
2, 214624, Note_on_c, 0, 80, 0
2, 214632, Control_c, 0, 64, 0
2, 214656, Note_on_c, 0, 37, 48
2, 214656, Control_c, 0, 64, 127
2, 214656, Note_on_c, 0, 66, 65
2, 214750, Note_on_c, 0, 37, 0
2, 214750, Note_on_c, 0, 66, 0
2, 214752, Note_on_c, 0, 82, 79
2, 214752, Note_on_c, 0, 56, 41
2, 214846, Note_on_c, 0, 82, 0
2, 214848, Note_on_c, 0, 66, 61
2, 214848, Note_on_c, 0, 61, 47
2, 214912, Note_on_c, 0, 56, 0
2, 214942, Note_on_c, 0, 66, 0
2, 214942, Note_on_c, 0, 61, 0
2, 214944, Note_on_c, 0, 80, 57
2, 214944, Note_on_c, 0, 49, 43
2, 214944, Note_on_c, 0, 49, 47
2, 215038, Note_on_c, 0, 80, 0
2, 215038, Note_on_c, 0, 49, 0
2, 215040, Note_on_c, 0, 65, 54
2, 215040, Note_on_c, 0, 59, 50
2, 215104, Note_on_c, 0, 49, 0
2, 215200, Note_on_c, 0, 65, 0
2, 215200, Note_on_c, 0, 59, 0
2, 215208, Control_c, 0, 64, 0
2, 215232, Note_on_c, 0, 66, 55
2, 215232, Note_on_c, 0, 42, 42
2, 215232, Control_c, 0, 64, 127
2, 215326, Note_on_c, 0, 66, 0
2, 215326, Note_on_c, 0, 42, 0
2, 215328, Note_on_c, 0, 49, 46
2, 215328, Note_on_c, 0, 78, 73
2, 215422, Note_on_c, 0, 49, 0
2, 215422, Note_on_c, 0, 78, 0
2, 215424, Note_on_c, 0, 58, 43
2, 215424, Note_on_c, 0, 66, 50
2, 215518, Note_on_c, 0, 58, 0
2, 215518, Note_on_c, 0, 66, 0
2, 215520, Note_on_c, 0, 42, 45
2, 215520, Note_on_c, 0, 78, 50
2, 215614, Note_on_c, 0, 42, 0
2, 215614, Note_on_c, 0, 78, 0
2, 215616, Note_on_c, 0, 64, 65
2, 215616, Note_on_c, 0, 58, 42
2, 215776, Note_on_c, 0, 64, 0
2, 215776, Note_on_c, 0, 58, 0
2, 215784, Control_c, 0, 64, 0
2, 215808, Note_on_c, 0, 63, 68
2, 215808, Note_on_c, 0, 42, 46
2, 215808, Control_c, 0, 64, 127
2, 215902, Note_on_c, 0, 63, 0
2, 215902, Note_on_c, 0, 42, 0
2, 215904, Note_on_c, 0, 48, 42
2, 215904, Note_on_c, 0, 78, 49
2, 215998, Note_on_c, 0, 48, 0
2, 215998, Note_on_c, 0, 78, 0
2, 216000, Note_on_c, 0, 63, 43
2, 216000, Note_on_c, 0, 57, 45
2, 216094, Note_on_c, 0, 63, 0
2, 216094, Note_on_c, 0, 57, 0
2, 216096, Note_on_c, 0, 42, 42
2, 216096, Note_on_c, 0, 78, 45
2, 216190, Note_on_c, 0, 42, 0
2, 216190, Note_on_c, 0, 78, 0
2, 216192, Note_on_c, 0, 57, 48
2, 216192, Note_on_c, 0, 63, 42
2, 216352, Note_on_c, 0, 57, 0
2, 216352, Note_on_c, 0, 63, 0
2, 216360, Control_c, 0, 64, 0
2, 216384, Note_on_c, 0, 42, 50
2, 216384, Control_c, 0, 64, 127
2, 216384, Note_on_c, 0, 64, 82
2, 216478, Note_on_c, 0, 42, 0
2, 216478, Note_on_c, 0, 64, 0
2, 216480, Note_on_c, 0, 48, 46
2, 216480, Note_on_c, 0, 78, 64
2, 216574, Note_on_c, 0, 48, 0
2, 216574, Note_on_c, 0, 78, 0
2, 216576, Note_on_c, 0, 56, 49
2, 216576, Note_on_c, 0, 64, 52
2, 216670, Note_on_c, 0, 56, 0
2, 216670, Note_on_c, 0, 64, 0
2, 216672, Note_on_c, 0, 78, 56
2, 216672, Note_on_c, 0, 42, 44
2, 216766, Note_on_c, 0, 78, 0
2, 216766, Note_on_c, 0, 42, 0
2, 216768, Note_on_c, 0, 63, 71
2, 216768, Note_on_c, 0, 56, 50
2, 216928, Note_on_c, 0, 63, 0
2, 216928, Note_on_c, 0, 56, 0
2, 216936, Control_c, 0, 64, 0
2, 216960, Note_on_c, 0, 42, 40
2, 216960, Note_on_c, 0, 61, 59
2, 216960, Control_c, 0, 64, 127
2, 217054, Note_on_c, 0, 42, 0
2, 217054, Note_on_c, 0, 61, 0
2, 217056, Note_on_c, 0, 52, 48
2, 217056, Note_on_c, 0, 78, 48
2, 217150, Note_on_c, 0, 52, 0
2, 217150, Note_on_c, 0, 78, 0
2, 217152, Note_on_c, 0, 56, 47
2, 217152, Note_on_c, 0, 61, 49
2, 217246, Note_on_c, 0, 56, 0
2, 217246, Note_on_c, 0, 61, 0
2, 217248, Note_on_c, 0, 78, 49
2, 217248, Note_on_c, 0, 42, 47
2, 217342, Note_on_c, 0, 78, 0
2, 217342, Note_on_c, 0, 42, 0
2, 217344, Note_on_c, 0, 64, 70
2, 217344, Note_on_c, 0, 56, 46
2, 217504, Note_on_c, 0, 64, 0
2, 217504, Note_on_c, 0, 56, 0
2, 217512, Control_c, 0, 64, 0
2, 217536, Note_on_c, 0, 68, 81
2, 217536, Note_on_c, 0, 42, 47
2, 217536, Control_c, 0, 64, 127
2, 217630, Note_on_c, 0, 68, 0
2, 217630, Note_on_c, 0, 42, 0
2, 217632, Note_on_c, 0, 78, 55
2, 217632, Note_on_c, 0, 52, 47
2, 217726, Note_on_c, 0, 78, 0
2, 217726, Note_on_c, 0, 52, 0
2, 217728, Note_on_c, 0, 58, 41
2, 217728, Note_on_c, 0, 68, 53
2, 217822, Note_on_c, 0, 58, 0
2, 217822, Note_on_c, 0, 68, 0
2, 217824, Note_on_c, 0, 78, 52
2, 217824, Note_on_c, 0, 42, 42
2, 217918, Note_on_c, 0, 78, 0
2, 217918, Note_on_c, 0, 42, 0
2, 217920, Note_on_c, 0, 58, 42
2, 217920, Note_on_c, 0, 66, 71
2, 218080, Note_on_c, 0, 58, 0
2, 218080, Note_on_c, 0, 66, 0
2, 218088, Control_c, 0, 64, 0
2, 218112, Note_on_c, 0, 63, 66
2, 218112, Control_c, 0, 64, 127
2, 218112, Note_on_c, 0, 35, 45
2, 218206, Note_on_c, 0, 63, 0
2, 218206, Note_on_c, 0, 35, 0
2, 218208, Note_on_c, 0, 54, 47
2, 218208, Note_on_c, 0, 78, 47
2, 218302, Note_on_c, 0, 54, 0
2, 218302, Note_on_c, 0, 78, 0
2, 218304, Note_on_c, 0, 63, 40
2, 218304, Note_on_c, 0, 59, 45
2, 218398, Note_on_c, 0, 63, 0
2, 218398, Note_on_c, 0, 59, 0
2, 218400, Note_on_c, 0, 47, 41
2, 218400, Note_on_c, 0, 78, 50
2, 218494, Note_on_c, 0, 47, 0
2, 218494, Note_on_c, 0, 78, 0
2, 218496, Note_on_c, 0, 54, 46
2, 218496, Note_on_c, 0, 63, 44
2, 218656, Note_on_c, 0, 54, 0
2, 218656, Note_on_c, 0, 63, 0
2, 218664, Control_c, 0, 64, 0
2, 218688, Note_on_c, 0, 36, 48
2, 218688, Note_on_c, 0, 63, 45
2, 218688, Control_c, 0, 64, 127
2, 218782, Note_on_c, 0, 36, 0
2, 218782, Note_on_c, 0, 63, 0
2, 218784, Note_on_c, 0, 54, 45
2, 218784, Note_on_c, 0, 78, 43
2, 218878, Note_on_c, 0, 54, 0
2, 218878, Note_on_c, 0, 78, 0
2, 218880, Note_on_c, 0, 63, 41
2, 218880, Note_on_c, 0, 57, 43
2, 218974, Note_on_c, 0, 63, 0
2, 218974, Note_on_c, 0, 57, 0
2, 218976, Note_on_c, 0, 48, 45
2, 218976, Note_on_c, 0, 78, 49
2, 219070, Note_on_c, 0, 48, 0
2, 219070, Note_on_c, 0, 78, 0
2, 219072, Note_on_c, 0, 54, 44
2, 219072, Note_on_c, 0, 63, 50
2, 219232, Note_on_c, 0, 54, 0
2, 219232, Note_on_c, 0, 63, 0
2, 219240, Control_c, 0, 64, 0
2, 219264, Control_c, 0, 64, 127
2, 219264, Note_on_c, 0, 61, 40
2, 219264, Note_on_c, 0, 37, 44
2, 219358, Note_on_c, 0, 61, 0
2, 219358, Note_on_c, 0, 37, 0
2, 219360, Note_on_c, 0, 73, 41
2, 219360, Note_on_c, 0, 54, 42
2, 219454, Note_on_c, 0, 73, 0
2, 219456, Note_on_c, 0, 61, 42
2, 219456, Note_on_c, 0, 57, 42
2, 219550, Note_on_c, 0, 61, 0
2, 219552, Note_on_c, 0, 49, 47
2, 219552, Note_on_c, 0, 73, 49
2, 219616, Note_on_c, 0, 54, 0
2, 219616, Note_on_c, 0, 57, 0
2, 219646, Note_on_c, 0, 73, 0
2, 219648, Note_on_c, 0, 53, 45
2, 219648, Note_on_c, 0, 61, 42
2, 219648, Note_on_c, 0, 56, 44
2, 219808, Note_on_c, 0, 61, 0
2, 219816, Control_c, 0, 64, 0
2, 219840, Note_on_c, 0, 61, 40
2, 219840, Control_c, 0, 64, 127
2, 219934, Note_on_c, 0, 61, 0
2, 219936, Note_on_c, 0, 73, 43
2, 220030, Note_on_c, 0, 73, 0
2, 220032, Note_on_c, 0, 61, 46
2, 220126, Note_on_c, 0, 61, 0
2, 220128, Note_on_c, 0, 73, 48
2, 220222, Note_on_c, 0, 73, 0
2, 220224, Note_on_c, 0, 61, 40
2, 220368, Note_on_c, 0, 49, 0
2, 220368, Note_on_c, 0, 53, 0
2, 220368, Note_on_c, 0, 56, 0
2, 220384, Note_on_c, 0, 61, 0
2, 220392, Control_c, 0, 64, 0
2, 220416, Note_on_c, 0, 95, 125
2, 220416, Note_on_c, 0, 83, 126
2, 220416, Note_on_c, 0, 67, 127
2, 220416, Note_on_c, 0, 88, 127
2, 220416, Note_on_c, 0, 76, 127
2, 220416, Note_on_c, 0, 79, 122
2, 220416, Note_on_c, 0, 73, 127
2, 220944, Note_on_c, 0, 95, 0
2, 220944, Note_on_c, 0, 83, 0
2, 220944, Note_on_c, 0, 67, 0
2, 220944, Note_on_c, 0, 88, 0
2, 220944, Note_on_c, 0, 76, 0
2, 220944, Note_on_c, 0, 79, 0
2, 220944, Note_on_c, 0, 73, 0
2, 220992, Control_c, 0, 64, 127
2, 220992, Note_on_c, 0, 61, 46
2, 221086, Note_on_c, 0, 61, 0
2, 221088, Note_on_c, 0, 73, 45
2, 221182, Note_on_c, 0, 73, 0
2, 221184, Note_on_c, 0, 61, 44
2, 221278, Note_on_c, 0, 61, 0
2, 221280, Note_on_c, 0, 73, 47
2, 221374, Note_on_c, 0, 73, 0
2, 221376, Note_on_c, 0, 59, 41
2, 221536, Note_on_c, 0, 59, 0
2, 221544, Control_c, 0, 64, 0
2, 221568, Note_on_c, 0, 46, 126
2, 221568, Note_on_c, 0, 66, 127
2, 221568, Note_on_c, 0, 64, 125
2, 221568, Note_on_c, 0, 34, 123
2, 221568, Note_on_c, 0, 54, 127
2, 221568, Control_c, 0, 64, 127
2, 221568, Note_on_c, 0, 61, 127
2, 221728, Note_on_c, 0, 46, 0
2, 221728, Note_on_c, 0, 66, 0
2, 221728, Note_on_c, 0, 64, 0
2, 221728, Note_on_c, 0, 34, 0
2, 221728, Note_on_c, 0, 54, 0
2, 221728, Note_on_c, 0, 61, 0
2, 221760, Note_on_c, 0, 54, 47
2, 221856, Note_on_c, 0, 73, 41
2, 221920, Note_on_c, 0, 54, 0
2, 221950, Note_on_c, 0, 73, 0
2, 221952, Note_on_c, 0, 61, 50
2, 222112, Note_on_c, 0, 61, 0
2, 222144, Control_c, 0, 64, 0
2, 222144, Note_on_c, 0, 67, 50
2, 222240, Note_on_c, 0, 73, 50
2, 222304, Note_on_c, 0, 67, 0
2, 222334, Note_on_c, 0, 73, 0
2, 222336, Note_on_c, 0, 67, 40
2, 222432, Note_on_c, 0, 73, 46
2, 222496, Note_on_c, 0, 67, 0
2, 222526, Note_on_c, 0, 73, 0
2, 222528, Note_on_c, 0, 66, 45
2, 222688, Note_on_c, 0, 66, 0
2, 222720, Note_on_c, 0, 50, 65
2, 222720, Note_on_c, 0, 41, 62
2, 222816, Note_on_c, 0, 50, 0
2, 222816, Note_on_c, 0, 41, 0
2, 222816, Note_on_c, 0, 42, 48
2, 222912, Note_on_c, 0, 42, 0
2, 222912, Note_on_c, 0, 36, 49
2, 223006, Note_on_c, 0, 36, 0
2, 223008, Note_on_c, 0, 53, 76
2, 223104, Note_on_c, 0, 53, 0
2, 223104, Note_on_c, 0, 54, 79
2, 223200, Note_on_c, 0, 54, 0
2, 223200, Note_on_c, 0, 59, 80
2, 223296, Note_on_c, 0, 59, 0
2, 223296, Note_on_c, 0, 62, 88
2, 223296, Note_on_c, 0, 55, 62
2, 223296, Note_on_c, 0, 52, 67
2, 223392, Note_on_c, 0, 62, 0
2, 223392, Note_on_c, 0, 58, 83
2, 223488, Note_on_c, 0, 55, 0
2, 223488, Note_on_c, 0, 52, 0
2, 223488, Note_on_c, 0, 58, 0
2, 223488, Note_on_c, 0, 54, 46
2, 223488, Note_on_c, 0, 50, 41
2, 223488, Note_on_c, 0, 61, 90
2, 223584, Note_on_c, 0, 61, 0
2, 223584, Note_on_c, 0, 59, 94
2, 223648, Note_on_c, 0, 54, 0
2, 223648, Note_on_c, 0, 50, 0
2, 223680, Note_on_c, 0, 59, 0
2, 223680, Note_on_c, 0, 62, 101
2, 223776, Note_on_c, 0, 62, 0
2, 223776, Note_on_c, 0, 66, 100
2, 223872, Note_on_c, 0, 66, 0
2, 223872, Note_on_c, 0, 71, 103
2, 223872, Note_on_c, 0, 41, 68
2, 223872, Note_on_c, 0, 50, 66
2, 223966, Note_on_c, 0, 71, 0
2, 223968, Note_on_c, 0, 41, 0
2, 223968, Note_on_c, 0, 50, 0
2, 223968, Note_on_c, 0, 42, 50
2, 224064, Note_on_c, 0, 42, 0
2, 224064, Note_on_c, 0, 36, 41
2, 224158, Note_on_c, 0, 36, 0
2, 224160, Note_on_c, 0, 53, 67
2, 224256, Note_on_c, 0, 53, 0
2, 224256, Note_on_c, 0, 54, 70
2, 224352, Note_on_c, 0, 54, 0
2, 224352, Note_on_c, 0, 59, 76
2, 224448, Note_on_c, 0, 59, 0
2, 224448, Note_on_c, 0, 55, 61
2, 224448, Note_on_c, 0, 52, 61
2, 224448, Note_on_c, 0, 62, 85
2, 224544, Note_on_c, 0, 62, 0
2, 224544, Note_on_c, 0, 58, 87
2, 224640, Note_on_c, 0, 55, 0
2, 224640, Note_on_c, 0, 52, 0
2, 224640, Note_on_c, 0, 58, 0
2, 224640, Note_on_c, 0, 61, 87
2, 224640, Note_on_c, 0, 54, 45
2, 224640, Note_on_c, 0, 50, 45
2, 224736, Note_on_c, 0, 61, 0
2, 224736, Note_on_c, 0, 59, 97
2, 224800, Note_on_c, 0, 54, 0
2, 224800, Note_on_c, 0, 50, 0
2, 224832, Note_on_c, 0, 59, 0
2, 224832, Note_on_c, 0, 62, 99
2, 224928, Note_on_c, 0, 62, 0
2, 224928, Note_on_c, 0, 66, 100
2, 225024, Note_on_c, 0, 66, 0
2, 225024, Note_on_c, 0, 74, 108
2, 225024, Note_on_c, 0, 47, 88
2, 225072, Note_on_c, 0, 47, 0
2, 225118, Note_on_c, 0, 74, 0
2, 225216, Note_on_c, 0, 76, 57
2, 225312, Note_on_c, 0, 76, 0
2, 225312, Note_on_c, 0, 70, 64
2, 225408, Note_on_c, 0, 70, 0
2, 225408, Note_on_c, 0, 74, 63
2, 225504, Note_on_c, 0, 74, 0
2, 225504, Note_on_c, 0, 71, 73
2, 225600, Note_on_c, 0, 71, 0
2, 225600, Note_on_c, 0, 62, 41
2, 225600, Note_on_c, 0, 54, 50
2, 225600, Note_on_c, 0, 79, 74
2, 225648, Note_on_c, 0, 62, 0
2, 225648, Note_on_c, 0, 54, 0
2, 225696, Note_on_c, 0, 79, 0
2, 225696, Note_on_c, 0, 73, 76
2, 225792, Note_on_c, 0, 73, 0
2, 225792, Note_on_c, 0, 47, 54
2, 225792, Note_on_c, 0, 78, 75
2, 225840, Note_on_c, 0, 47, 0
2, 225888, Note_on_c, 0, 78, 0
2, 225888, Note_on_c, 0, 74, 78
2, 225984, Note_on_c, 0, 74, 0
2, 225984, Note_on_c, 0, 85, 86
2, 225984, Note_on_c, 0, 62, 57
2, 225984, Note_on_c, 0, 54, 59
2, 226032, Note_on_c, 0, 62, 0
2, 226032, Note_on_c, 0, 54, 0
2, 226080, Note_on_c, 0, 85, 0
2, 226080, Note_on_c, 0, 77, 88
2, 226176, Note_on_c, 0, 77, 0
2, 226176, Note_on_c, 0, 47, 62
2, 226176, Note_on_c, 0, 83, 90
2, 226224, Note_on_c, 0, 47, 0
2, 226272, Note_on_c, 0, 83, 0
2, 226272, Note_on_c, 0, 78, 90
2, 226368, Note_on_c, 0, 78, 0
2, 226368, Note_on_c, 0, 88, 96
2, 226368, Note_on_c, 0, 62, 64
2, 226368, Note_on_c, 0, 54, 60
2, 226416, Note_on_c, 0, 62, 0
2, 226416, Note_on_c, 0, 54, 0
2, 226464, Note_on_c, 0, 88, 0
2, 226464, Note_on_c, 0, 82, 96
2, 226560, Note_on_c, 0, 82, 0
2, 226560, Note_on_c, 0, 47, 72
2, 226560, Note_on_c, 0, 86, 100
2, 226608, Note_on_c, 0, 47, 0
2, 226656, Note_on_c, 0, 86, 0
2, 226656, Note_on_c, 0, 83, 100
2, 226752, Note_on_c, 0, 83, 0
2, 226752, Note_on_c, 0, 62, 71
2, 226752, Note_on_c, 0, 54, 76
2, 226752, Note_on_c, 0, 95, 112
2, 226800, Note_on_c, 0, 62, 0
2, 226800, Note_on_c, 0, 54, 0
2, 226800, Note_on_c, 0, 95, 0
2, 227328, Note_on_c, 0, 42, 58
2, 227328, Note_on_c, 0, 52, 65
2, 227424, Note_on_c, 0, 42, 0
2, 227424, Note_on_c, 0, 52, 0
2, 227424, Note_on_c, 0, 43, 44
2, 227520, Note_on_c, 0, 43, 0
2, 227520, Note_on_c, 0, 35, 42
2, 227614, Note_on_c, 0, 35, 0
2, 227616, Note_on_c, 0, 58, 60
2, 227712, Note_on_c, 0, 58, 0
2, 227712, Note_on_c, 0, 59, 65
2, 227808, Note_on_c, 0, 59, 0
2, 227808, Note_on_c, 0, 64, 76
2, 227904, Note_on_c, 0, 64, 0
2, 227904, Note_on_c, 0, 57, 66
2, 227904, Note_on_c, 0, 67, 73
2, 227904, Note_on_c, 0, 60, 61
2, 228000, Note_on_c, 0, 67, 0
2, 228000, Note_on_c, 0, 63, 86
2, 228096, Note_on_c, 0, 57, 0
2, 228096, Note_on_c, 0, 60, 0
2, 228096, Note_on_c, 0, 63, 0
2, 228096, Note_on_c, 0, 59, 41
2, 228096, Note_on_c, 0, 55, 44
2, 228096, Note_on_c, 0, 66, 84
2, 228192, Note_on_c, 0, 66, 0
2, 228192, Note_on_c, 0, 64, 90
2, 228256, Note_on_c, 0, 59, 0
2, 228256, Note_on_c, 0, 55, 0
2, 228288, Note_on_c, 0, 64, 0
2, 228288, Note_on_c, 0, 67, 99
2, 228384, Note_on_c, 0, 67, 0
2, 228384, Note_on_c, 0, 71, 98
2, 228480, Note_on_c, 0, 71, 0
2, 228480, Note_on_c, 0, 42, 62
2, 228480, Note_on_c, 0, 76, 107
2, 228480, Note_on_c, 0, 52, 62
2, 228512, Note_on_c, 0, 76, 0
2, 228576, Note_on_c, 0, 42, 0
2, 228576, Note_on_c, 0, 52, 0
2, 228576, Note_on_c, 0, 43, 43
2, 228672, Note_on_c, 0, 43, 0
2, 228672, Note_on_c, 0, 35, 44
2, 228766, Note_on_c, 0, 35, 0
2, 228768, Note_on_c, 0, 58, 66
2, 228864, Note_on_c, 0, 58, 0
2, 228864, Note_on_c, 0, 59, 77
2, 228960, Note_on_c, 0, 59, 0
2, 228960, Note_on_c, 0, 64, 74
2, 229056, Note_on_c, 0, 64, 0
2, 229056, Note_on_c, 0, 60, 60
2, 229056, Note_on_c, 0, 57, 58
2, 229056, Note_on_c, 0, 67, 76
2, 229152, Note_on_c, 0, 67, 0
2, 229152, Note_on_c, 0, 63, 88
2, 229248, Note_on_c, 0, 60, 0
2, 229248, Note_on_c, 0, 57, 0
2, 229248, Note_on_c, 0, 63, 0
2, 229248, Note_on_c, 0, 59, 48
2, 229248, Note_on_c, 0, 55, 40
2, 229248, Note_on_c, 0, 66, 87
2, 229344, Note_on_c, 0, 66, 0
2, 229344, Note_on_c, 0, 64, 88
2, 229408, Note_on_c, 0, 59, 0
2, 229408, Note_on_c, 0, 55, 0
2, 229440, Note_on_c, 0, 64, 0
2, 229440, Note_on_c, 0, 67, 101
2, 229536, Note_on_c, 0, 67, 0
2, 229536, Note_on_c, 0, 71, 104
2, 229632, Note_on_c, 0, 71, 0
2, 229632, Note_on_c, 0, 47, 45
2, 229632, Note_on_c, 0, 79, 111
2, 229680, Note_on_c, 0, 47, 0
2, 229726, Note_on_c, 0, 79, 0
2, 229824, Note_on_c, 0, 78, 56
2, 229920, Note_on_c, 0, 78, 0
2, 229920, Note_on_c, 0, 70, 58
2, 230016, Note_on_c, 0, 70, 0
2, 230016, Note_on_c, 0, 76, 71
2, 230112, Note_on_c, 0, 76, 0
2, 230112, Note_on_c, 0, 71, 67
2, 230208, Note_on_c, 0, 71, 0
2, 230208, Note_on_c, 0, 64, 56
2, 230208, Note_on_c, 0, 81, 74
2, 230208, Note_on_c, 0, 55, 60
2, 230256, Note_on_c, 0, 64, 0
2, 230256, Note_on_c, 0, 55, 0
2, 230304, Note_on_c, 0, 81, 0
2, 230304, Note_on_c, 0, 75, 75
2, 230400, Note_on_c, 0, 75, 0
2, 230400, Note_on_c, 0, 47, 64
2, 230400, Note_on_c, 0, 79, 79
2, 230448, Note_on_c, 0, 47, 0
2, 230496, Note_on_c, 0, 79, 0
2, 230496, Note_on_c, 0, 76, 78
2, 230592, Note_on_c, 0, 76, 0
2, 230592, Note_on_c, 0, 64, 72
2, 230592, Note_on_c, 0, 55, 67
2, 230592, Note_on_c, 0, 84, 89
2, 230640, Note_on_c, 0, 64, 0
2, 230640, Note_on_c, 0, 55, 0
2, 230688, Note_on_c, 0, 84, 0
2, 230688, Note_on_c, 0, 78, 87
2, 230784, Note_on_c, 0, 78, 0
2, 230784, Note_on_c, 0, 83, 85
2, 230784, Note_on_c, 0, 47, 78
2, 230832, Note_on_c, 0, 47, 0
2, 230880, Note_on_c, 0, 83, 0
2, 230880, Note_on_c, 0, 79, 90
2, 230976, Note_on_c, 0, 79, 0
2, 230976, Note_on_c, 0, 90, 99
2, 230976, Note_on_c, 0, 64, 83
2, 230976, Note_on_c, 0, 55, 80
2, 231024, Note_on_c, 0, 64, 0
2, 231024, Note_on_c, 0, 55, 0
2, 231072, Note_on_c, 0, 90, 0
2, 231072, Note_on_c, 0, 82, 104
2, 231168, Note_on_c, 0, 82, 0
2, 231168, Note_on_c, 0, 88, 100
2, 231168, Note_on_c, 0, 47, 85
2, 231216, Note_on_c, 0, 47, 0
2, 231264, Note_on_c, 0, 88, 0
2, 231264, Note_on_c, 0, 83, 109
2, 231360, Note_on_c, 0, 83, 0
2, 231360, Note_on_c, 0, 100, 113
2, 231360, Note_on_c, 0, 55, 89
2, 231360, Note_on_c, 0, 64, 88
2, 231408, Note_on_c, 0, 55, 0
2, 231408, Note_on_c, 0, 64, 0
2, 231520, Note_on_c, 0, 100, 0
2, 231936, Note_on_c, 0, 70, 79
2, 231936, Note_on_c, 0, 90, 111
2, 231936, Note_on_c, 0, 78, 90
2, 231936, Note_on_c, 0, 76, 71
2, 231936, Note_on_c, 0, 73, 71
2, 232096, Note_on_c, 0, 78, 0
2, 232128, Note_on_c, 0, 90, 0
2, 232128, Note_on_c, 0, 91, 106
2, 232128, Note_on_c, 0, 79, 96
2, 232224, Note_on_c, 0, 91, 0
2, 232224, Note_on_c, 0, 90, 113
2, 232320, Note_on_c, 0, 90, 0
2, 232320, Note_on_c, 0, 89, 112
2, 232416, Note_on_c, 0, 89, 0
2, 232416, Note_on_c, 0, 88, 107
2, 232512, Note_on_c, 0, 70, 0
2, 232512, Note_on_c, 0, 76, 0
2, 232512, Note_on_c, 0, 73, 0
2, 232512, Note_on_c, 0, 88, 0
2, 232512, Note_on_c, 0, 88, 111
2, 232512, Note_on_c, 0, 71, 75
2, 232512, Note_on_c, 0, 74, 70
2, 232608, Note_on_c, 0, 88, 0
2, 232608, Note_on_c, 0, 86, 103
2, 232672, Note_on_c, 0, 79, 0
2, 232672, Note_on_c, 0, 71, 0
2, 232672, Note_on_c, 0, 74, 0
2, 232704, Note_on_c, 0, 86, 0
2, 232704, Note_on_c, 0, 66, 78
2, 232704, Note_on_c, 0, 85, 105
2, 232704, Note_on_c, 0, 54, 79
2, 232800, Note_on_c, 0, 85, 0
2, 232800, Note_on_c, 0, 83, 112
2, 232864, Note_on_c, 0, 66, 0
2, 232864, Note_on_c, 0, 54, 0
2, 232896, Note_on_c, 0, 83, 0
2, 232896, Note_on_c, 0, 81, 113
2, 232992, Note_on_c, 0, 81, 0
2, 232992, Note_on_c, 0, 79, 105
2, 233088, Note_on_c, 0, 79, 0
2, 233088, Note_on_c, 0, 73, 77
2, 233088, Note_on_c, 0, 69, 70
2, 233088, Note_on_c, 0, 78, 110
2, 233136, Note_on_c, 0, 73, 0
2, 233136, Note_on_c, 0, 69, 0
2, 233184, Note_on_c, 0, 78, 0
2, 233184, Note_on_c, 0, 79, 105
2, 233280, Note_on_c, 0, 79, 0
2, 233280, Note_on_c, 0, 54, 72
2, 233280, Note_on_c, 0, 77, 100
2, 233328, Note_on_c, 0, 54, 0
2, 233376, Note_on_c, 0, 77, 0
2, 233376, Note_on_c, 0, 78, 103
2, 233472, Note_on_c, 0, 78, 0
2, 233472, Note_on_c, 0, 83, 99
2, 233472, Note_on_c, 0, 71, 70
2, 233472, Note_on_c, 0, 67, 71
2, 233520, Note_on_c, 0, 71, 0
2, 233520, Note_on_c, 0, 67, 0
2, 233568, Note_on_c, 0, 83, 0
2, 233568, Note_on_c, 0, 76, 92
2, 233664, Note_on_c, 0, 76, 0
2, 233664, Note_on_c, 0, 69, 77
2, 233664, Note_on_c, 0, 74, 98
2, 233664, Note_on_c, 0, 66, 74
2, 233712, Note_on_c, 0, 69, 0
2, 233712, Note_on_c, 0, 66, 0
2, 233760, Note_on_c, 0, 74, 0
2, 233760, Note_on_c, 0, 76, 93
2, 233856, Note_on_c, 0, 76, 0
2, 233856, Note_on_c, 0, 54, 78
2, 233856, Note_on_c, 0, 73, 84
2, 233904, Note_on_c, 0, 54, 0
2, 233952, Note_on_c, 0, 73, 0
2, 233952, Note_on_c, 0, 74, 88
2, 234048, Note_on_c, 0, 74, 0
2, 234048, Note_on_c, 0, 79, 77
2, 234048, Note_on_c, 0, 67, 80
2, 234048, Note_on_c, 0, 64, 65
2, 234144, Note_on_c, 0, 79, 0
2, 234144, Note_on_c, 0, 71, 75
2, 234208, Note_on_c, 0, 64, 0
2, 234238, Note_on_c, 0, 71, 0
2, 234240, Note_on_c, 0, 70, 71
2, 234240, Note_on_c, 0, 61, 55
2, 234336, Note_on_c, 0, 70, 0
2, 234336, Note_on_c, 0, 76, 75
2, 234400, Note_on_c, 0, 67, 0
2, 234432, Note_on_c, 0, 76, 0
2, 234432, Note_on_c, 0, 68, 73
2, 234432, Note_on_c, 0, 54, 60
2, 234528, Note_on_c, 0, 68, 0
2, 234528, Note_on_c, 0, 69, 73
2, 234576, Note_on_c, 0, 61, 0
2, 234624, Note_on_c, 0, 69, 0
2, 234624, Note_on_c, 0, 78, 79
2, 234624, Note_on_c, 0, 62, 77
2, 234624, Note_on_c, 0, 66, 78
2, 234720, Note_on_c, 0, 78, 0
2, 234720, Note_on_c, 0, 74, 75
2, 234784, Note_on_c, 0, 66, 0
2, 234816, Note_on_c, 0, 62, 0
2, 234816, Note_on_c, 0, 74, 0
2, 234816, Note_on_c, 0, 67, 80
2, 234816, Note_on_c, 0, 70, 76
2, 234816, Note_on_c, 0, 61, 71
2, 234912, Note_on_c, 0, 70, 0
2, 234912, Note_on_c, 0, 74, 72
2, 234976, Note_on_c, 0, 54, 0
2, 234976, Note_on_c, 0, 67, 0
2, 235008, Note_on_c, 0, 74, 0
2, 235008, Note_on_c, 0, 54, 55
2, 235008, Note_on_c, 0, 68, 71
2, 235008, Note_on_c, 0, 54, 79
2, 235104, Note_on_c, 0, 68, 0
2, 235104, Note_on_c, 0, 69, 79
2, 235152, Note_on_c, 0, 61, 0
2, 235168, Note_on_c, 0, 54, 0
2, 235200, Note_on_c, 0, 69, 0
2, 235200, Note_on_c, 0, 66, 74
2, 235200, Note_on_c, 0, 78, 76
2, 235200, Note_on_c, 0, 62, 78
2, 235296, Note_on_c, 0, 78, 0
2, 235296, Note_on_c, 0, 74, 75
2, 235360, Note_on_c, 0, 66, 0
2, 235392, Note_on_c, 0, 62, 0
2, 235392, Note_on_c, 0, 74, 0
2, 235392, Note_on_c, 0, 65, 79
2, 235392, Note_on_c, 0, 59, 80
2, 235392, Note_on_c, 0, 68, 75
2, 235488, Note_on_c, 0, 68, 0
2, 235488, Note_on_c, 0, 74, 79
2, 235552, Note_on_c, 0, 54, 0
2, 235552, Note_on_c, 0, 65, 0
2, 235584, Note_on_c, 0, 74, 0
2, 235584, Note_on_c, 0, 66, 70
2, 235584, Note_on_c, 0, 54, 74
2, 235584, Note_on_c, 0, 54, 58
2, 235680, Note_on_c, 0, 66, 0
2, 235680, Note_on_c, 0, 67, 71
2, 235728, Note_on_c, 0, 59, 0
2, 235744, Note_on_c, 0, 54, 0
2, 235776, Note_on_c, 0, 67, 0
2, 235776, Note_on_c, 0, 76, 77
2, 235776, Note_on_c, 0, 64, 70
2, 235776, Note_on_c, 0, 61, 77
2, 235872, Note_on_c, 0, 76, 0
2, 235872, Note_on_c, 0, 73, 76
2, 235936, Note_on_c, 0, 64, 0
2, 235968, Note_on_c, 0, 61, 0
2, 235968, Note_on_c, 0, 73, 0
2, 235968, Note_on_c, 0, 58, 76
2, 235968, Note_on_c, 0, 67, 76
2, 236064, Note_on_c, 0, 67, 0
2, 236064, Note_on_c, 0, 73, 76
2, 236128, Note_on_c, 0, 54, 0
2, 236160, Note_on_c, 0, 73, 0
2, 236160, Note_on_c, 0, 54, 57
2, 236160, Note_on_c, 0, 65, 79
2, 236256, Note_on_c, 0, 65, 0
2, 236256, Note_on_c, 0, 66, 76
2, 236304, Note_on_c, 0, 58, 0
2, 236352, Note_on_c, 0, 66, 0
2, 236352, Note_on_c, 0, 74, 79
2, 236352, Note_on_c, 0, 59, 73
2, 236352, Note_on_c, 0, 62, 71
2, 236448, Note_on_c, 0, 74, 0
2, 236448, Note_on_c, 0, 71, 73
2, 236512, Note_on_c, 0, 62, 0
2, 236542, Note_on_c, 0, 71, 0
2, 236544, Note_on_c, 0, 59, 0
2, 236544, Note_on_c, 0, 66, 76
2, 236544, Note_on_c, 0, 64, 73
2, 236544, Note_on_c, 0, 58, 59
2, 236638, Note_on_c, 0, 54, 0
2, 236638, Note_on_c, 0, 66, 0
2, 236638, Note_on_c, 0, 64, 0
2, 236638, Note_on_c, 0, 58, 0
2, 236736, Note_on_c, 0, 42, 73
2, 236736, Note_on_c, 0, 67, 94
2, 236736, Note_on_c, 0, 30, 77
2, 236784, Note_on_c, 0, 42, 0
2, 236784, Note_on_c, 0, 30, 0
2, 236832, Note_on_c, 0, 67, 0
2, 236832, Note_on_c, 0, 66, 97
2, 236928, Note_on_c, 0, 66, 0
2, 236928, Note_on_c, 0, 65, 94
2, 237024, Note_on_c, 0, 65, 0
2, 237024, Note_on_c, 0, 64, 96
2, 237120, Note_on_c, 0, 64, 0
2, 237120, Note_on_c, 0, 55, 74
2, 237120, Note_on_c, 0, 47, 70
2, 237120, Note_on_c, 0, 64, 94
2, 237120, Note_on_c, 0, 50, 75
2, 237168, Note_on_c, 0, 55, 0
2, 237168, Note_on_c, 0, 47, 0
2, 237168, Note_on_c, 0, 50, 0
2, 237216, Note_on_c, 0, 64, 0
2, 237216, Note_on_c, 0, 62, 87
2, 237312, Note_on_c, 0, 62, 0
2, 237312, Note_on_c, 0, 61, 96
2, 237312, Note_on_c, 0, 42, 80
2, 237312, Note_on_c, 0, 30, 70
2, 237360, Note_on_c, 0, 42, 0
2, 237360, Note_on_c, 0, 30, 0
2, 237408, Note_on_c, 0, 61, 0
2, 237408, Note_on_c, 0, 59, 96
2, 237504, Note_on_c, 0, 59, 0
2, 237504, Note_on_c, 0, 57, 87
2, 237600, Note_on_c, 0, 57, 0
2, 237600, Note_on_c, 0, 55, 95
2, 237696, Note_on_c, 0, 55, 0
2, 237696, Note_on_c, 0, 54, 96
2, 237696, Note_on_c, 0, 45, 71
2, 237696, Note_on_c, 0, 49, 70
2, 237744, Note_on_c, 0, 45, 0
2, 237744, Note_on_c, 0, 49, 0
2, 237792, Note_on_c, 0, 54, 0
2, 237792, Note_on_c, 0, 55, 89
2, 237888, Note_on_c, 0, 55, 0
2, 237888, Note_on_c, 0, 53, 84
2, 237888, Note_on_c, 0, 30, 73
2, 237936, Note_on_c, 0, 30, 0
2, 237984, Note_on_c, 0, 53, 0
2, 237984, Note_on_c, 0, 54, 85
2, 238080, Note_on_c, 0, 54, 0
2, 238080, Note_on_c, 0, 47, 70
2, 238080, Note_on_c, 0, 59, 85
2, 238080, Note_on_c, 0, 43, 78
2, 238128, Note_on_c, 0, 47, 0
2, 238128, Note_on_c, 0, 43, 0
2, 238176, Note_on_c, 0, 59, 0
2, 238176, Note_on_c, 0, 53, 86
2, 238272, Note_on_c, 0, 53, 0
2, 238272, Note_on_c, 0, 45, 70
2, 238272, Note_on_c, 0, 50, 80
2, 238272, Note_on_c, 0, 42, 79
2, 238320, Note_on_c, 0, 45, 0
2, 238320, Note_on_c, 0, 42, 0
2, 238368, Note_on_c, 0, 50, 0
2, 238368, Note_on_c, 0, 52, 75
2, 238464, Note_on_c, 0, 52, 0
2, 238464, Note_on_c, 0, 30, 70
2, 238464, Note_on_c, 0, 49, 67
2, 238512, Note_on_c, 0, 30, 0
2, 238560, Note_on_c, 0, 49, 0
2, 238560, Note_on_c, 0, 50, 72
2, 238656, Note_on_c, 0, 50, 0
2, 238656, Note_on_c, 0, 43, 70
2, 238656, Note_on_c, 0, 55, 61
2, 238656, Note_on_c, 0, 40, 79
2, 238752, Note_on_c, 0, 55, 0
2, 238752, Note_on_c, 0, 47, 58
2, 238816, Note_on_c, 0, 40, 0
2, 238846, Note_on_c, 0, 47, 0
2, 238848, Note_on_c, 0, 46, 64
2, 238848, Note_on_c, 0, 37, 76
2, 238944, Note_on_c, 0, 46, 0
2, 238944, Note_on_c, 0, 49, 57
2, 239040, Note_on_c, 0, 49, 0
2, 239040, Note_on_c, 0, 52, 63
2, 239136, Note_on_c, 0, 52, 0
2, 239136, Note_on_c, 0, 55, 63
2, 239232, Note_on_c, 0, 55, 0
2, 239232, Note_on_c, 0, 58, 68
2, 239328, Note_on_c, 0, 58, 0
2, 239328, Note_on_c, 0, 61, 67
2, 239424, Note_on_c, 0, 61, 0
2, 239424, Note_on_c, 0, 63, 64
2, 239520, Note_on_c, 0, 63, 0
2, 239520, Note_on_c, 0, 64, 64
2, 239616, Note_on_c, 0, 64, 0
2, 239616, Note_on_c, 0, 65, 63
2, 239712, Note_on_c, 0, 65, 0
2, 239712, Note_on_c, 0, 66, 64
2, 239760, Note_on_c, 0, 37, 0
2, 239808, Note_on_c, 0, 66, 0
2, 239808, Note_on_c, 0, 67, 68
2, 239808, Note_on_c, 0, 35, 79
2, 239904, Note_on_c, 0, 67, 0
2, 239904, Note_on_c, 0, 62, 72
2, 239968, Note_on_c, 0, 35, 0
2, 240000, Note_on_c, 0, 62, 0
2, 240000, Note_on_c, 0, 34, 72
2, 240000, Note_on_c, 0, 61, 76
2, 240094, Note_on_c, 0, 61, 0
2, 240096, Note_on_c, 0, 64, 70
2, 240160, Note_on_c, 0, 43, 0
2, 240160, Note_on_c, 0, 34, 0
2, 240192, Note_on_c, 0, 64, 0
2, 240192, Note_on_c, 0, 76, 75
2, 240192, Note_on_c, 0, 73, 73
2, 240288, Note_on_c, 0, 76, 0
2, 240288, Note_on_c, 0, 73, 0
2, 240288, Note_on_c, 0, 70, 73
2, 240384, Note_on_c, 0, 70, 0
2, 240384, Note_on_c, 0, 67, 72
2, 240480, Note_on_c, 0, 67, 0
2, 240480, Note_on_c, 0, 65, 81
2, 240576, Note_on_c, 0, 65, 0
2, 240576, Note_on_c, 0, 64, 82
2, 240672, Note_on_c, 0, 64, 0
2, 240672, Note_on_c, 0, 63, 73
2, 240768, Note_on_c, 0, 63, 0
2, 240768, Note_on_c, 0, 62, 76
2, 240768, Note_on_c, 0, 55, 74
2, 240816, Note_on_c, 0, 55, 0
2, 240864, Note_on_c, 0, 62, 0
2, 240864, Note_on_c, 0, 61, 79
2, 240960, Note_on_c, 0, 61, 0
2, 240960, Note_on_c, 0, 55, 75
2, 240960, Note_on_c, 0, 60, 79
2, 241008, Note_on_c, 0, 55, 0
2, 241056, Note_on_c, 0, 60, 0
2, 241056, Note_on_c, 0, 59, 85
2, 241150, Note_on_c, 0, 59, 0
2, 241152, Note_on_c, 0, 58, 85
2, 241152, Note_on_c, 0, 49, 75
2, 241152, Note_on_c, 0, 55, 70
2, 241248, Note_on_c, 0, 58, 0
2, 241248, Note_on_c, 0, 61, 88
2, 241344, Note_on_c, 0, 61, 0
2, 241344, Note_on_c, 0, 64, 86
2, 241440, Note_on_c, 0, 64, 0
2, 241440, Note_on_c, 0, 67, 90
2, 241536, Note_on_c, 0, 67, 0
2, 241536, Note_on_c, 0, 70, 87
2, 241632, Note_on_c, 0, 70, 0
2, 241632, Note_on_c, 0, 73, 90
2, 241728, Note_on_c, 0, 73, 0
2, 241728, Note_on_c, 0, 75, 99
2, 241824, Note_on_c, 0, 75, 0
2, 241824, Note_on_c, 0, 76, 100
2, 241920, Note_on_c, 0, 76, 0
2, 241920, Note_on_c, 0, 77, 95
2, 242016, Note_on_c, 0, 77, 0
2, 242016, Note_on_c, 0, 78, 100
2, 242112, Note_on_c, 0, 49, 0
2, 242112, Note_on_c, 0, 78, 0
2, 242112, Note_on_c, 0, 47, 79
2, 242112, Note_on_c, 0, 79, 102
2, 242208, Note_on_c, 0, 79, 0
2, 242208, Note_on_c, 0, 74, 109
2, 242304, Note_on_c, 0, 47, 0
2, 242304, Note_on_c, 0, 74, 0
2, 242304, Note_on_c, 0, 73, 107
2, 242304, Note_on_c, 0, 46, 70
2, 242336, Note_on_c, 0, 73, 0
2, 242398, Note_on_c, 0, 55, 0
2, 242398, Note_on_c, 0, 46, 0
2, 242496, Note_on_c, 0, 76, 108
2, 242496, Note_on_c, 0, 79, 111
2, 242496, Note_on_c, 0, 82, 109
2, 242496, Note_on_c, 0, 60, 96
2, 242496, Note_on_c, 0, 48, 91
2, 242496, Note_on_c, 0, 70, 104
2, 242544, Note_on_c, 0, 76, 0
2, 242544, Note_on_c, 0, 79, 0
2, 242544, Note_on_c, 0, 82, 0
2, 242544, Note_on_c, 0, 60, 0
2, 242544, Note_on_c, 0, 48, 0
2, 242544, Note_on_c, 0, 70, 0
2, 242688, Note_on_c, 0, 83, 106
2, 242688, Note_on_c, 0, 59, 94
2, 242688, Note_on_c, 0, 47, 92
2, 242688, Note_on_c, 0, 79, 104
2, 242688, Note_on_c, 0, 71, 106
2, 242688, Note_on_c, 0, 76, 111
2, 242736, Note_on_c, 0, 83, 0
2, 242736, Note_on_c, 0, 59, 0
2, 242736, Note_on_c, 0, 47, 0
2, 242736, Note_on_c, 0, 79, 0
2, 242736, Note_on_c, 0, 71, 0
2, 242736, Note_on_c, 0, 76, 0
2, 242880, Note_on_c, 0, 76, 113
2, 242880, Note_on_c, 0, 46, 92
2, 242880, Note_on_c, 0, 79, 106
2, 242880, Note_on_c, 0, 73, 110
2, 242880, Note_on_c, 0, 85, 112
2, 242880, Note_on_c, 0, 58, 90
2, 243040, Note_on_c, 0, 76, 0
2, 243040, Note_on_c, 0, 46, 0
2, 243040, Note_on_c, 0, 79, 0
2, 243040, Note_on_c, 0, 73, 0
2, 243040, Note_on_c, 0, 85, 0
2, 243040, Note_on_c, 0, 58, 0
2, 243072, Note_on_c, 0, 55, 80
2, 243072, Note_on_c, 0, 43, 79
2, 243264, Note_on_c, 0, 55, 0
2, 243264, Note_on_c, 0, 43, 0
2, 243264, Note_on_c, 0, 34, 76
2, 243264, Note_on_c, 0, 46, 70
2, 243424, Note_on_c, 0, 34, 0
2, 243424, Note_on_c, 0, 46, 0
2, 243456, Note_on_c, 0, 47, 80
2, 243456, Note_on_c, 0, 35, 80
2, 244224, Note_on_c, 0, 67, 96
2, 244224, Note_on_c, 0, 62, 87
2, 244224, Note_on_c, 0, 74, 90
2, 244416, Note_on_c, 0, 67, 0
2, 244416, Note_on_c, 0, 62, 0
2, 244416, Note_on_c, 0, 74, 0
2, 244416, Note_on_c, 0, 55, 93
2, 244416, Note_on_c, 0, 67, 88
2, 244416, Note_on_c, 0, 62, 89
2, 244576, Note_on_c, 0, 55, 0
2, 244576, Note_on_c, 0, 67, 0
2, 244576, Note_on_c, 0, 62, 0
2, 244608, Note_on_c, 0, 61, 77
2, 244608, Note_on_c, 0, 55, 77
2, 244608, Note_on_c, 0, 66, 79
2, 244800, Note_on_c, 0, 66, 0
2, 244800, Note_on_c, 0, 64, 64
2, 244944, Note_on_c, 0, 47, 0
2, 244944, Note_on_c, 0, 35, 0
2, 244944, Note_on_c, 0, 61, 0
2, 244944, Note_on_c, 0, 55, 0
2, 244960, Note_on_c, 0, 64, 0
2, 244992, Note_on_c, 0, 46, 74
2, 244992, Note_on_c, 0, 34, 73
2, 245152, Note_on_c, 0, 46, 0
2, 245152, Note_on_c, 0, 34, 0
2, 245184, Note_on_c, 0, 45, 78
2, 245184, Note_on_c, 0, 57, 80
2, 245376, Note_on_c, 0, 45, 0
2, 245376, Note_on_c, 0, 57, 0
2, 245376, Note_on_c, 0, 43, 80
2, 245376, Note_on_c, 0, 55, 75
2, 245568, Note_on_c, 0, 43, 0
2, 245568, Note_on_c, 0, 55, 0
2, 245568, Note_on_c, 0, 34, 75
2, 245568, Note_on_c, 0, 46, 76
2, 245728, Note_on_c, 0, 34, 0
2, 245728, Note_on_c, 0, 46, 0
2, 245760, Note_on_c, 0, 35, 75
2, 245760, Note_on_c, 0, 47, 73
2, 246144, Note_on_c, 0, 64, 92
2, 246144, Note_on_c, 0, 76, 93
2, 246144, Note_on_c, 0, 67, 89
2, 246528, Note_on_c, 0, 64, 0
2, 246528, Note_on_c, 0, 76, 0
2, 246528, Note_on_c, 0, 67, 0
2, 246528, Note_on_c, 0, 62, 91
2, 246528, Note_on_c, 0, 74, 87
2, 246528, Note_on_c, 0, 67, 88
2, 246720, Note_on_c, 0, 62, 0
2, 246720, Note_on_c, 0, 74, 0
2, 246720, Note_on_c, 0, 67, 0
2, 246720, Note_on_c, 0, 62, 87
2, 246720, Note_on_c, 0, 67, 80
2, 246720, Note_on_c, 0, 55, 84
2, 246880, Note_on_c, 0, 62, 0
2, 246880, Note_on_c, 0, 67, 0
2, 246880, Note_on_c, 0, 55, 0
2, 246912, Note_on_c, 0, 55, 58
2, 246912, Note_on_c, 0, 61, 59
2, 246912, Note_on_c, 0, 66, 74
2, 247248, Note_on_c, 0, 66, 0
2, 247296, Note_on_c, 0, 64, 65
2, 247440, Note_on_c, 0, 35, 0
2, 247440, Note_on_c, 0, 47, 0
2, 247488, Note_on_c, 0, 47, 67
2, 247488, Note_on_c, 0, 35, 75
2, 247536, Note_on_c, 0, 47, 0
2, 247536, Note_on_c, 0, 35, 0
2, 247680, Note_on_c, 0, 35, 71
2, 247680, Note_on_c, 0, 47, 73
2, 247872, Note_on_c, 0, 35, 0
2, 247872, Note_on_c, 0, 47, 0
2, 247872, Note_on_c, 0, 34, 72
2, 247872, Note_on_c, 0, 46, 74
2, 248016, Note_on_c, 0, 55, 0
2, 248016, Note_on_c, 0, 61, 0
2, 248016, Note_on_c, 0, 64, 0
2, 248032, Note_on_c, 0, 34, 0
2, 248032, Note_on_c, 0, 46, 0
2, 248064, Note_on_c, 0, 59, 55
2, 248064, Note_on_c, 0, 64, 58
2, 248064, Note_on_c, 0, 35, 65
2, 248064, Note_on_c, 0, 47, 70
2, 248064, Note_on_c, 0, 54, 65
2, 248256, Note_on_c, 0, 64, 0
2, 248256, Note_on_c, 0, 62, 61
2, 248400, Note_on_c, 0, 59, 0
2, 248400, Note_on_c, 0, 54, 0
2, 248416, Note_on_c, 0, 62, 0
2, 248592, Note_on_c, 0, 35, 0
2, 248592, Note_on_c, 0, 47, 0
2, 248640, Note_on_c, 0, 35, 61
2, 248640, Note_on_c, 0, 47, 69
2, 248688, Note_on_c, 0, 35, 0
2, 248688, Note_on_c, 0, 47, 0
2, 248832, Note_on_c, 0, 35, 63
2, 248832, Note_on_c, 0, 47, 66
2, 249024, Note_on_c, 0, 35, 0
2, 249024, Note_on_c, 0, 47, 0
2, 249024, Note_on_c, 0, 34, 62
2, 249024, Note_on_c, 0, 46, 64
2, 249184, Note_on_c, 0, 34, 0
2, 249184, Note_on_c, 0, 46, 0
2, 249216, Note_on_c, 0, 35, 56
2, 249216, Note_on_c, 0, 64, 55
2, 249216, Note_on_c, 0, 47, 64
2, 249216, Note_on_c, 0, 59, 64
2, 249216, Note_on_c, 0, 54, 59
2, 249408, Note_on_c, 0, 64, 0
2, 249408, Note_on_c, 0, 62, 52
2, 249552, Note_on_c, 0, 59, 0
2, 249552, Note_on_c, 0, 54, 0
2, 249568, Note_on_c, 0, 62, 0
2, 249744, Note_on_c, 0, 35, 0
2, 249744, Note_on_c, 0, 47, 0
2, 249792, Note_on_c, 0, 35, 57
2, 249792, Note_on_c, 0, 47, 56
2, 249984, Note_on_c, 0, 35, 0
2, 249984, Note_on_c, 0, 47, 0
2, 249984, Note_on_c, 0, 37, 58
2, 249984, Note_on_c, 0, 49, 50
2, 250176, Note_on_c, 0, 37, 0
2, 250176, Note_on_c, 0, 49, 0
2, 250176, Note_on_c, 0, 38, 57
2, 250176, Note_on_c, 0, 50, 53
2, 250336, Note_on_c, 0, 38, 0
2, 250336, Note_on_c, 0, 50, 0
2, 250368, Note_on_c, 0, 62, 46
2, 250368, Note_on_c, 0, 55, 61
2, 250368, Note_on_c, 0, 28, 48
2, 250368, Note_on_c, 0, 59, 56
2, 250368, Note_on_c, 0, 40, 48
2, 250752, Note_on_c, 0, 62, 0
2, 250752, Note_on_c, 0, 61, 45
2, 250896, Note_on_c, 0, 55, 0
2, 250896, Note_on_c, 0, 28, 0
2, 250896, Note_on_c, 0, 59, 0
2, 250896, Note_on_c, 0, 40, 0
2, 250912, Note_on_c, 0, 61, 0
2, 250944, Note_on_c, 0, 76, 63
2, 250944, Note_on_c, 0, 64, 60
2, 252096, Note_on_c, 0, 74, 41
2, 252096, Note_on_c, 0, 62, 49
2, 252256, Note_on_c, 0, 74, 0
2, 252256, Note_on_c, 0, 62, 0
2, 252288, Note_on_c, 0, 61, 45
2, 252288, Note_on_c, 0, 73, 50
2, 252448, Note_on_c, 0, 61, 0
2, 252448, Note_on_c, 0, 73, 0
2, 252480, Note_on_c, 0, 71, 43
2, 252480, Note_on_c, 0, 59, 43
2, 252640, Note_on_c, 0, 71, 0
2, 252640, Note_on_c, 0, 59, 0
2, 252672, Note_on_c, 0, 73, 48
2, 252672, Note_on_c, 0, 61, 49
2, 253200, Note_on_c, 0, 76, 0
2, 253200, Note_on_c, 0, 64, 0
2, 253200, Note_on_c, 0, 73, 0
2, 253200, Note_on_c, 0, 61, 0
2, 253248, Note_on_c, 0, 64, 59
2, 253248, Control_c, 0, 64, 127
2, 253248, Note_on_c, 0, 71, 64
2, 253248, Note_on_c, 0, 55, 64
2, 253248, Note_on_c, 0, 43, 57
2, 253296, Note_on_c, 0, 64, 0
2, 253296, Note_on_c, 0, 71, 0
2, 253296, Note_on_c, 0, 55, 0
2, 253296, Note_on_c, 0, 43, 0
2, 253296, Note_on_c, 0, 76, 58
2, 253296, Note_on_c, 0, 64, 62
2, 254400, Note_on_c, 0, 74, 46
2, 254400, Control_c, 0, 64, 0
2, 254400, Note_on_c, 0, 62, 45
2, 254560, Note_on_c, 0, 74, 0
2, 254560, Note_on_c, 0, 62, 0
2, 254592, Note_on_c, 0, 61, 42
2, 254592, Note_on_c, 0, 73, 42
2, 254752, Note_on_c, 0, 61, 0
2, 254752, Note_on_c, 0, 73, 0
2, 254784, Note_on_c, 0, 71, 44
2, 254784, Note_on_c, 0, 59, 47
2, 254928, Note_on_c, 0, 76, 0
2, 254928, Note_on_c, 0, 64, 0
2, 254944, Note_on_c, 0, 71, 0
2, 254944, Note_on_c, 0, 59, 0
2, 254976, Note_on_c, 0, 73, 60
2, 254976, Note_on_c, 0, 54, 62
2, 254976, Note_on_c, 0, 66, 59
2, 254976, Note_on_c, 0, 64, 58
2, 254976, Note_on_c, 0, 70, 59
2, 256128, Note_on_c, 0, 73, 0
2, 256128, Note_on_c, 0, 64, 0
2, 256128, Note_on_c, 0, 70, 0
2, 256128, Note_on_c, 0, 62, 45
2, 256128, Note_on_c, 0, 47, 27
2, 256128, Note_on_c, 0, 71, 50
2, 256288, Note_on_c, 0, 54, 0
2, 256288, Note_on_c, 0, 66, 0
2, 256288, Note_on_c, 0, 62, 0
2, 256288, Note_on_c, 0, 47, 0
2, 256288, Note_on_c, 0, 71, 0
2, 256896, Note_on_c, 0, 50, 88
2, 256896, Note_on_c, 0, 42, 84
2, 256992, Note_on_c, 0, 50, 0
2, 256992, Note_on_c, 0, 42, 0
2, 256992, Note_on_c, 0, 43, 56
2, 257088, Note_on_c, 0, 43, 0
2, 257088, Note_on_c, 0, 34, 55
2, 257182, Note_on_c, 0, 34, 0
2, 257184, Note_on_c, 0, 50, 65
2, 257280, Note_on_c, 0, 50, 0
2, 257280, Note_on_c, 0, 55, 59
2, 257376, Note_on_c, 0, 55, 0
2, 257376, Note_on_c, 0, 62, 62
2, 257472, Note_on_c, 0, 62, 0
2, 257472, Note_on_c, 0, 64, 81
2, 257472, Note_on_c, 0, 33, 60
2, 257568, Note_on_c, 0, 33, 0
2, 257568, Note_on_c, 0, 43, 57
2, 257664, Note_on_c, 0, 43, 0
2, 257664, Note_on_c, 0, 49, 59
2, 257758, Note_on_c, 0, 49, 0
2, 257760, Note_on_c, 0, 64, 0
2, 257760, Note_on_c, 0, 55, 60
2, 257856, Note_on_c, 0, 55, 0
2, 257856, Note_on_c, 0, 57, 58
2, 257952, Note_on_c, 0, 57, 0
2, 257952, Note_on_c, 0, 55, 60
2, 258046, Note_on_c, 0, 55, 0
2, 258048, Note_on_c, 0, 44, 79
2, 258048, Note_on_c, 0, 54, 85
2, 258144, Note_on_c, 0, 44, 0
2, 258144, Note_on_c, 0, 54, 0
2, 258144, Note_on_c, 0, 45, 64
2, 258240, Note_on_c, 0, 45, 0
2, 258240, Note_on_c, 0, 54, 58
2, 258240, Note_on_c, 0, 38, 61
2, 258336, Note_on_c, 0, 54, 0
2, 258336, Note_on_c, 0, 57, 71
2, 258400, Note_on_c, 0, 38, 0
2, 258432, Note_on_c, 0, 57, 0
2, 258432, Note_on_c, 0, 66, 72
2, 258528, Note_on_c, 0, 66, 0
2, 258528, Note_on_c, 0, 66, 89
2, 258624, Note_on_c, 0, 66, 0
2, 258624, Note_on_c, 0, 78, 88
2, 258784, Note_on_c, 0, 78, 0
2, 259200, Note_on_c, 0, 54, 59
2, 259200, Note_on_c, 0, 46, 61
2, 259296, Note_on_c, 0, 54, 0
2, 259296, Note_on_c, 0, 46, 0
2, 259296, Note_on_c, 0, 47, 55
2, 259392, Note_on_c, 0, 47, 0
2, 259392, Note_on_c, 0, 38, 57
2, 259486, Note_on_c, 0, 38, 0
2, 259488, Note_on_c, 0, 54, 57
2, 259584, Note_on_c, 0, 54, 0
2, 259584, Note_on_c, 0, 59, 63
2, 259680, Note_on_c, 0, 59, 0
2, 259680, Note_on_c, 0, 66, 62
2, 259776, Note_on_c, 0, 66, 0
2, 259776, Note_on_c, 0, 68, 80
2, 259776, Note_on_c, 0, 37, 56
2, 259872, Note_on_c, 0, 37, 0
2, 259872, Note_on_c, 0, 47, 63
2, 259968, Note_on_c, 0, 47, 0
2, 259968, Note_on_c, 0, 52, 59
2, 260062, Note_on_c, 0, 52, 0
2, 260064, Note_on_c, 0, 68, 0
2, 260064, Note_on_c, 0, 59, 55
2, 260160, Note_on_c, 0, 59, 0
2, 260160, Note_on_c, 0, 61, 61
2, 260256, Note_on_c, 0, 61, 0
2, 260256, Note_on_c, 0, 59, 59
2, 260350, Note_on_c, 0, 59, 0
2, 260352, Note_on_c, 0, 48, 87
2, 260352, Note_on_c, 0, 57, 85
2, 260448, Note_on_c, 0, 48, 0
2, 260448, Note_on_c, 0, 57, 0
2, 260448, Note_on_c, 0, 49, 61
2, 260544, Note_on_c, 0, 49, 0
2, 260544, Note_on_c, 0, 57, 66
2, 260544, Note_on_c, 0, 42, 59
2, 260638, Note_on_c, 0, 42, 0
2, 260640, Note_on_c, 0, 57, 0
2, 260640, Note_on_c, 0, 61, 76
2, 260736, Note_on_c, 0, 61, 0
2, 260736, Note_on_c, 0, 69, 84
2, 260832, Note_on_c, 0, 69, 0
2, 260832, Note_on_c, 0, 69, 86
2, 260928, Note_on_c, 0, 69, 0
2, 260928, Note_on_c, 0, 81, 93
2, 261022, Note_on_c, 0, 81, 0
2, 261504, Note_on_c, 0, 49, 55
2, 261504, Note_on_c, 0, 57, 64
2, 261600, Note_on_c, 0, 49, 0
2, 261600, Note_on_c, 0, 57, 0
2, 261600, Note_on_c, 0, 50, 65
2, 261696, Note_on_c, 0, 50, 0
2, 261696, Note_on_c, 0, 41, 62
2, 261790, Note_on_c, 0, 41, 0
2, 261792, Note_on_c, 0, 57, 63
2, 261888, Note_on_c, 0, 57, 0
2, 261888, Note_on_c, 0, 62, 57
2, 261984, Note_on_c, 0, 62, 0
2, 261984, Note_on_c, 0, 69, 67
2, 262080, Note_on_c, 0, 69, 0
2, 262080, Note_on_c, 0, 71, 87
2, 262080, Note_on_c, 0, 40, 64
2, 262176, Note_on_c, 0, 40, 0
2, 262176, Note_on_c, 0, 50, 71
2, 262272, Note_on_c, 0, 50, 0
2, 262272, Note_on_c, 0, 56, 76
2, 262366, Note_on_c, 0, 56, 0
2, 262368, Note_on_c, 0, 71, 0
2, 262368, Note_on_c, 0, 62, 76
2, 262464, Note_on_c, 0, 62, 0
2, 262464, Note_on_c, 0, 64, 73
2, 262560, Note_on_c, 0, 64, 0
2, 262560, Note_on_c, 0, 62, 73
2, 262654, Note_on_c, 0, 62, 0
2, 262656, Note_on_c, 0, 51, 83
2, 262656, Note_on_c, 0, 61, 84
2, 262752, Note_on_c, 0, 51, 0
2, 262752, Note_on_c, 0, 61, 0
2, 262752, Note_on_c, 0, 52, 79
2, 262848, Note_on_c, 0, 52, 0
2, 262848, Note_on_c, 0, 45, 81
2, 262942, Note_on_c, 0, 45, 0
2, 262944, Note_on_c, 0, 61, 80
2, 263040, Note_on_c, 0, 61, 0
2, 263040, Note_on_c, 0, 64, 88
2, 263136, Note_on_c, 0, 64, 0
2, 263136, Note_on_c, 0, 73, 121
2, 263230, Note_on_c, 0, 73, 0
2, 263232, Note_on_c, 0, 61, 89
2, 263232, Note_on_c, 0, 50, 93
2, 263328, Note_on_c, 0, 61, 0
2, 263328, Note_on_c, 0, 50, 0
2, 263328, Note_on_c, 0, 51, 87
2, 263424, Note_on_c, 0, 51, 0
2, 263424, Note_on_c, 0, 45, 87
2, 263518, Note_on_c, 0, 45, 0
2, 263520, Note_on_c, 0, 61, 88
2, 263616, Note_on_c, 0, 61, 0
2, 263616, Note_on_c, 0, 67, 96
2, 263712, Note_on_c, 0, 67, 0
2, 263712, Note_on_c, 0, 75, 127
2, 263808, Note_on_c, 0, 61, 87
2, 263808, Note_on_c, 0, 50, 87
2, 263904, Note_on_c, 0, 61, 0
2, 263904, Note_on_c, 0, 50, 0
2, 263904, Note_on_c, 0, 51, 85
2, 263968, Note_on_c, 0, 75, 0
2, 264000, Note_on_c, 0, 51, 0
2, 264000, Note_on_c, 0, 44, 81
2, 264094, Note_on_c, 0, 44, 0
2, 264096, Note_on_c, 0, 60, 82
2, 264192, Note_on_c, 0, 60, 0
2, 264192, Note_on_c, 0, 68, 80
2, 264288, Note_on_c, 0, 68, 0
2, 264288, Note_on_c, 0, 72, 115
2, 264384, Note_on_c, 0, 49, 85
2, 264384, Note_on_c, 0, 60, 77
2, 264480, Note_on_c, 0, 49, 0
2, 264480, Note_on_c, 0, 60, 0
2, 264480, Note_on_c, 0, 50, 81
2, 264544, Note_on_c, 0, 72, 0
2, 264576, Note_on_c, 0, 50, 0
2, 264576, Note_on_c, 0, 44, 78
2, 264670, Note_on_c, 0, 44, 0
2, 264672, Note_on_c, 0, 60, 75
2, 264768, Note_on_c, 0, 60, 0
2, 264768, Note_on_c, 0, 66, 76
2, 264864, Note_on_c, 0, 66, 0
2, 264864, Note_on_c, 0, 74, 105
2, 264960, Note_on_c, 0, 59, 76
2, 264960, Note_on_c, 0, 48, 70
2, 265056, Note_on_c, 0, 59, 0
2, 265056, Note_on_c, 0, 48, 0
2, 265056, Note_on_c, 0, 50, 76
2, 265120, Note_on_c, 0, 74, 0
2, 265152, Note_on_c, 0, 50, 0
2, 265152, Note_on_c, 0, 43, 72
2, 265246, Note_on_c, 0, 43, 0
2, 265248, Note_on_c, 0, 59, 76
2, 265344, Note_on_c, 0, 59, 0
2, 265344, Note_on_c, 0, 67, 68
2, 265440, Note_on_c, 0, 67, 0
2, 265440, Note_on_c, 0, 71, 97
2, 265536, Note_on_c, 0, 59, 72
2, 265536, Note_on_c, 0, 48, 65
2, 265632, Note_on_c, 0, 59, 0
2, 265632, Note_on_c, 0, 48, 0
2, 265632, Note_on_c, 0, 49, 69
2, 265696, Note_on_c, 0, 71, 0
2, 265728, Note_on_c, 0, 49, 0
2, 265728, Note_on_c, 0, 43, 64
2, 265822, Note_on_c, 0, 43, 0
2, 265824, Note_on_c, 0, 59, 68
2, 265920, Note_on_c, 0, 59, 0
2, 265920, Note_on_c, 0, 65, 59
2, 266016, Note_on_c, 0, 65, 0
2, 266016, Note_on_c, 0, 73, 84
2, 266112, Note_on_c, 0, 58, 59
2, 266112, Control_c, 0, 64, 127
2, 266208, Note_on_c, 0, 58, 0
2, 266208, Note_on_c, 0, 49, 60
2, 266272, Note_on_c, 0, 73, 0
2, 266304, Note_on_c, 0, 49, 0
2, 266304, Note_on_c, 0, 42, 62
2, 266398, Note_on_c, 0, 42, 0
2, 266400, Note_on_c, 0, 58, 63
2, 266496, Note_on_c, 0, 58, 0
2, 266496, Note_on_c, 0, 66, 65
2, 266592, Note_on_c, 0, 66, 0
2, 266592, Note_on_c, 0, 73, 83
2, 266640, Control_c, 0, 64, 0
2, 266688, Note_on_c, 0, 61, 57
2, 266688, Control_c, 0, 64, 127
2, 266784, Note_on_c, 0, 61, 0
2, 266784, Note_on_c, 0, 54, 56
2, 266848, Note_on_c, 0, 73, 0
2, 266880, Note_on_c, 0, 54, 0
2, 266880, Note_on_c, 0, 46, 63
2, 266974, Note_on_c, 0, 46, 0
2, 266976, Note_on_c, 0, 61, 66
2, 267072, Note_on_c, 0, 61, 0
2, 267072, Note_on_c, 0, 70, 58
2, 267168, Note_on_c, 0, 70, 0
2, 267168, Note_on_c, 0, 78, 58
2, 267216, Control_c, 0, 64, 0
2, 267262, Note_on_c, 0, 78, 0
2, 267264, Note_on_c, 0, 62, 55
2, 267264, Control_c, 0, 64, 127
2, 267360, Note_on_c, 0, 62, 0
2, 267360, Note_on_c, 0, 54, 58
2, 267456, Note_on_c, 0, 54, 0
2, 267456, Note_on_c, 0, 44, 59
2, 267550, Note_on_c, 0, 44, 0
2, 267552, Note_on_c, 0, 62, 66
2, 267648, Note_on_c, 0, 62, 0
2, 267648, Note_on_c, 0, 71, 59
2, 267744, Note_on_c, 0, 71, 0
2, 267744, Note_on_c, 0, 78, 91
2, 267792, Control_c, 0, 64, 0
2, 267838, Note_on_c, 0, 78, 0
2, 267840, Control_c, 0, 64, 127
2, 267840, Note_on_c, 0, 65, 58
2, 267936, Note_on_c, 0, 65, 0
2, 267936, Note_on_c, 0, 59, 59
2, 268032, Note_on_c, 0, 59, 0
2, 268032, Note_on_c, 0, 49, 61
2, 268126, Note_on_c, 0, 49, 0
2, 268128, Note_on_c, 0, 65, 63
2, 268224, Note_on_c, 0, 65, 0
2, 268224, Note_on_c, 0, 71, 67
2, 268320, Note_on_c, 0, 71, 0
2, 268320, Note_on_c, 0, 80, 63
2, 268368, Control_c, 0, 64, 0
2, 268414, Note_on_c, 0, 80, 0
2, 268416, Control_c, 0, 64, 127
2, 268416, Note_on_c, 0, 68, 60
2, 268512, Note_on_c, 0, 68, 0
2, 268512, Note_on_c, 0, 58, 64
2, 268608, Note_on_c, 0, 58, 0
2, 268608, Note_on_c, 0, 52, 65
2, 268702, Note_on_c, 0, 52, 0
2, 268704, Note_on_c, 0, 68, 66
2, 268800, Note_on_c, 0, 68, 0
2, 268800, Note_on_c, 0, 73, 62
2, 268896, Note_on_c, 0, 73, 0
2, 268896, Note_on_c, 0, 82, 62
2, 268944, Control_c, 0, 64, 0
2, 268990, Note_on_c, 0, 82, 0
2, 268992, Note_on_c, 0, 67, 65
2, 268992, Control_c, 0, 64, 127
2, 269088, Note_on_c, 0, 67, 0
2, 269088, Note_on_c, 0, 58, 65
2, 269184, Note_on_c, 0, 58, 0
2, 269184, Note_on_c, 0, 51, 60
2, 269278, Note_on_c, 0, 51, 0
2, 269280, Note_on_c, 0, 67, 69
2, 269376, Note_on_c, 0, 67, 0
2, 269376, Note_on_c, 0, 75, 67
2, 269472, Note_on_c, 0, 75, 0
2, 269472, Note_on_c, 0, 82, 70
2, 269520, Control_c, 0, 64, 0
2, 269566, Note_on_c, 0, 82, 0
2, 269568, Note_on_c, 0, 71, 65
2, 269568, Control_c, 0, 64, 127
2, 269664, Note_on_c, 0, 71, 0
2, 269664, Note_on_c, 0, 63, 63
2, 269760, Note_on_c, 0, 63, 0
2, 269760, Note_on_c, 0, 56, 58
2, 269854, Note_on_c, 0, 56, 0
2, 269856, Note_on_c, 0, 68, 78
2, 269952, Note_on_c, 0, 68, 0
2, 269952, Note_on_c, 0, 75, 73
2, 270048, Note_on_c, 0, 75, 0
2, 270048, Note_on_c, 0, 83, 76
2, 270096, Control_c, 0, 64, 0
2, 270142, Note_on_c, 0, 83, 0
2, 270144, Note_on_c, 0, 65, 59
2, 270144, Control_c, 0, 64, 127
2, 270240, Note_on_c, 0, 65, 0
2, 270240, Note_on_c, 0, 59, 64
2, 270336, Note_on_c, 0, 59, 0
2, 270336, Note_on_c, 0, 49, 60
2, 270430, Note_on_c, 0, 49, 0
2, 270432, Note_on_c, 0, 65, 80
2, 270528, Note_on_c, 0, 65, 0
2, 270528, Note_on_c, 0, 71, 88
2, 270624, Note_on_c, 0, 71, 0
2, 270624, Note_on_c, 0, 80, 88
2, 270672, Control_c, 0, 64, 0
2, 270718, Note_on_c, 0, 80, 0
2, 270720, Note_on_c, 0, 70, 68
2, 270720, Control_c, 0, 64, 127
2, 270816, Note_on_c, 0, 70, 0
2, 270816, Note_on_c, 0, 61, 65
2, 270912, Note_on_c, 0, 61, 0
2, 270912, Note_on_c, 0, 54, 69
2, 271006, Note_on_c, 0, 54, 0
2, 271008, Note_on_c, 0, 66, 83
2, 271104, Note_on_c, 0, 66, 0
2, 271104, Note_on_c, 0, 70, 86
2, 271200, Note_on_c, 0, 70, 0
2, 271200, Note_on_c, 0, 78, 92
2, 271248, Control_c, 0, 64, 0
2, 271294, Note_on_c, 0, 78, 0
2, 271296, Control_c, 0, 64, 127
2, 271296, Note_on_c, 0, 73, 80
2, 271296, Note_on_c, 0, 66, 80
2, 271392, Note_on_c, 0, 73, 0
2, 271392, Note_on_c, 0, 66, 0
2, 271392, Note_on_c, 0, 58, 74
2, 271486, Note_on_c, 0, 58, 0
2, 271488, Note_on_c, 0, 90, 95
2, 271584, Note_on_c, 0, 90, 0
2, 271584, Note_on_c, 0, 82, 87
2, 271680, Note_on_c, 0, 82, 0
2, 271680, Note_on_c, 0, 90, 107
2, 271776, Note_on_c, 0, 78, 95
2, 271824, Control_c, 0, 64, 0
2, 271840, Note_on_c, 0, 90, 0
2, 271870, Note_on_c, 0, 78, 0
2, 271872, Note_on_c, 0, 74, 74
2, 271872, Note_on_c, 0, 66, 79
2, 271872, Control_c, 0, 64, 127
2, 271968, Note_on_c, 0, 74, 0
2, 271968, Note_on_c, 0, 66, 0
2, 271968, Note_on_c, 0, 56, 72
2, 272062, Note_on_c, 0, 56, 0
2, 272064, Note_on_c, 0, 90, 87
2, 272160, Note_on_c, 0, 90, 0
2, 272160, Note_on_c, 0, 83, 88
2, 272256, Note_on_c, 0, 83, 0
2, 272256, Note_on_c, 0, 90, 109
2, 272352, Note_on_c, 0, 78, 96
2, 272400, Control_c, 0, 64, 0
2, 272416, Note_on_c, 0, 90, 0
2, 272446, Note_on_c, 0, 78, 0
2, 272448, Note_on_c, 0, 71, 83
2, 272448, Note_on_c, 0, 77, 79
2, 272448, Control_c, 0, 64, 127
2, 272448, Note_on_c, 0, 68, 74
2, 272544, Note_on_c, 0, 71, 0
2, 272544, Note_on_c, 0, 77, 0
2, 272544, Note_on_c, 0, 68, 0
2, 272544, Note_on_c, 0, 61, 84
2, 272638, Note_on_c, 0, 61, 0
2, 272640, Note_on_c, 0, 92, 95
2, 272736, Note_on_c, 0, 92, 0
2, 272736, Note_on_c, 0, 85, 96
2, 272832, Note_on_c, 0, 85, 0
2, 272832, Note_on_c, 0, 92, 107
2, 272928, Note_on_c, 0, 83, 89
2, 272976, Control_c, 0, 64, 0
2, 272992, Note_on_c, 0, 92, 0
2, 273022, Note_on_c, 0, 83, 0
2, 273024, Note_on_c, 0, 70, 87
2, 273024, Note_on_c, 0, 73, 88
2, 273024, Note_on_c, 0, 80, 85
2, 273024, Control_c, 0, 64, 127
2, 273120, Note_on_c, 0, 70, 0
2, 273120, Note_on_c, 0, 73, 0
2, 273120, Note_on_c, 0, 80, 0
2, 273120, Note_on_c, 0, 64, 81
2, 273214, Note_on_c, 0, 64, 0
2, 273216, Note_on_c, 0, 94, 99
2, 273312, Note_on_c, 0, 94, 0
2, 273312, Note_on_c, 0, 85, 90
2, 273408, Note_on_c, 0, 85, 0
2, 273408, Note_on_c, 0, 94, 91
2, 273504, Note_on_c, 0, 94, 0
2, 273504, Note_on_c, 0, 80, 98
2, 273552, Control_c, 0, 64, 0
2, 273598, Note_on_c, 0, 80, 0
2, 273600, Note_on_c, 0, 79, 93
2, 273600, Control_c, 0, 64, 127
2, 273600, Note_on_c, 0, 73, 93
2, 273600, Note_on_c, 0, 70, 91
2, 273696, Note_on_c, 0, 79, 0
2, 273696, Note_on_c, 0, 73, 0
2, 273696, Note_on_c, 0, 70, 0
2, 273696, Note_on_c, 0, 63, 87
2, 273790, Note_on_c, 0, 63, 0
2, 273792, Note_on_c, 0, 94, 99
2, 273888, Note_on_c, 0, 94, 0
2, 273888, Note_on_c, 0, 85, 93
2, 273984, Note_on_c, 0, 85, 0
2, 273984, Note_on_c, 0, 94, 90
2, 274080, Note_on_c, 0, 94, 0
2, 274080, Note_on_c, 0, 79, 98
2, 274128, Control_c, 0, 64, 0
2, 274174, Note_on_c, 0, 79, 0
2, 274176, Note_on_c, 0, 78, 98
2, 274176, Note_on_c, 0, 66, 95
2, 274176, Note_on_c, 0, 71, 95
2, 274176, Control_c, 0, 64, 127
2, 274272, Note_on_c, 0, 78, 0
2, 274272, Note_on_c, 0, 66, 0
2, 274272, Note_on_c, 0, 71, 0
2, 274272, Note_on_c, 0, 62, 94
2, 274366, Note_on_c, 0, 62, 0
2, 274368, Note_on_c, 0, 95, 102
2, 274464, Note_on_c, 0, 95, 0
2, 274464, Note_on_c, 0, 86, 94
2, 274560, Note_on_c, 0, 86, 0
2, 274560, Note_on_c, 0, 95, 96
2, 274656, Note_on_c, 0, 95, 0
2, 274656, Note_on_c, 0, 78, 103
2, 274704, Control_c, 0, 64, 0
2, 274750, Note_on_c, 0, 78, 0
2, 274752, Control_c, 0, 64, 127
2, 274752, Note_on_c, 0, 71, 105
2, 274752, Note_on_c, 0, 77, 100
2, 274752, Note_on_c, 0, 68, 102
2, 274848, Note_on_c, 0, 71, 0
2, 274848, Note_on_c, 0, 77, 0
2, 274848, Note_on_c, 0, 68, 0
2, 274848, Note_on_c, 0, 61, 102
2, 274942, Note_on_c, 0, 61, 0
2, 274944, Note_on_c, 0, 92, 108
2, 275040, Note_on_c, 0, 92, 0
2, 275040, Note_on_c, 0, 83, 106
2, 275136, Note_on_c, 0, 83, 0
2, 275136, Note_on_c, 0, 92, 108
2, 275232, Note_on_c, 0, 92, 0
2, 275232, Note_on_c, 0, 77, 111
2, 275280, Control_c, 0, 64, 0
2, 275326, Note_on_c, 0, 77, 0
2, 275328, Note_on_c, 0, 61, 108
2, 275328, Note_on_c, 0, 66, 106
2, 275328, Control_c, 0, 64, 127
2, 275328, Note_on_c, 0, 70, 108
2, 275424, Note_on_c, 0, 61, 0
2, 275424, Note_on_c, 0, 66, 0
2, 275424, Note_on_c, 0, 70, 0
2, 275424, Note_on_c, 0, 54, 113
2, 275518, Note_on_c, 0, 54, 0
2, 275520, Note_on_c, 0, 90, 111
2, 275520, Note_on_c, 0, 85, 108
2, 275616, Note_on_c, 0, 90, 0
2, 275616, Note_on_c, 0, 85, 0
2, 275616, Note_on_c, 0, 82, 103
2, 275712, Note_on_c, 0, 82, 0
2, 275712, Note_on_c, 0, 90, 107
2, 275712, Note_on_c, 0, 85, 110
2, 275808, Note_on_c, 0, 90, 0
2, 275808, Note_on_c, 0, 85, 0
2, 275808, Note_on_c, 0, 78, 107
2, 275856, Control_c, 0, 64, 0
2, 275902, Note_on_c, 0, 78, 0
2, 275904, Control_c, 0, 64, 127
2, 275904, Note_on_c, 0, 62, 103
2, 275904, Note_on_c, 0, 71, 106
2, 276000, Note_on_c, 0, 62, 0
2, 276000, Note_on_c, 0, 71, 0
2, 276000, Note_on_c, 0, 54, 109
2, 276094, Note_on_c, 0, 54, 0
2, 276096, Note_on_c, 0, 86, 108
2, 276096, Note_on_c, 0, 91, 108
2, 276192, Note_on_c, 0, 86, 0
2, 276192, Note_on_c, 0, 91, 0
2, 276192, Note_on_c, 0, 83, 107
2, 276288, Note_on_c, 0, 83, 0
2, 276288, Note_on_c, 0, 91, 109
2, 276288, Note_on_c, 0, 86, 107
2, 276384, Note_on_c, 0, 91, 0
2, 276384, Note_on_c, 0, 86, 0
2, 276384, Note_on_c, 0, 79, 112
2, 276432, Control_c, 0, 64, 0
2, 276478, Note_on_c, 0, 79, 0
2, 276480, Note_on_c, 0, 61, 104
2, 276480, Note_on_c, 0, 70, 113
2, 276480, Control_c, 0, 64, 127
2, 276576, Note_on_c, 0, 61, 0
2, 276576, Note_on_c, 0, 70, 0
2, 276576, Note_on_c, 0, 54, 106
2, 276670, Note_on_c, 0, 54, 0
2, 276672, Note_on_c, 0, 90, 103
2, 276672, Note_on_c, 0, 85, 108
2, 276768, Note_on_c, 0, 90, 0
2, 276768, Note_on_c, 0, 85, 0
2, 276768, Note_on_c, 0, 82, 113
2, 276864, Note_on_c, 0, 82, 0
2, 276864, Note_on_c, 0, 90, 104
2, 276864, Note_on_c, 0, 85, 109
2, 276960, Note_on_c, 0, 90, 0
2, 276960, Note_on_c, 0, 85, 0
2, 276960, Note_on_c, 0, 78, 107
2, 277008, Control_c, 0, 64, 0
2, 277054, Note_on_c, 0, 78, 0
2, 277056, Control_c, 0, 64, 127
2, 277056, Note_on_c, 0, 69, 106
2, 277056, Note_on_c, 0, 60, 112
2, 277152, Note_on_c, 0, 69, 0
2, 277152, Note_on_c, 0, 60, 0
2, 277152, Note_on_c, 0, 54, 112
2, 277246, Note_on_c, 0, 54, 0
2, 277248, Note_on_c, 0, 84, 105
2, 277248, Note_on_c, 0, 89, 104
2, 277344, Note_on_c, 0, 84, 0
2, 277344, Note_on_c, 0, 89, 0
2, 277344, Note_on_c, 0, 81, 107
2, 277440, Note_on_c, 0, 81, 0
2, 277440, Note_on_c, 0, 84, 112
2, 277440, Note_on_c, 0, 89, 103
2, 277536, Note_on_c, 0, 84, 0
2, 277536, Note_on_c, 0, 89, 0
2, 277536, Note_on_c, 0, 77, 107
2, 277584, Control_c, 0, 64, 0
2, 277630, Note_on_c, 0, 77, 0
2, 277632, Note_on_c, 0, 68, 103
2, 277632, Control_c, 0, 64, 127
2, 277632, Note_on_c, 0, 59, 107
2, 277728, Note_on_c, 0, 68, 0
2, 277728, Note_on_c, 0, 59, 0
2, 277728, Note_on_c, 0, 54, 110
2, 277822, Note_on_c, 0, 54, 0
2, 277824, Note_on_c, 0, 88, 108
2, 277824, Note_on_c, 0, 83, 113
2, 277920, Note_on_c, 0, 88, 0
2, 277920, Note_on_c, 0, 83, 0
2, 277920, Note_on_c, 0, 80, 103
2, 278016, Note_on_c, 0, 80, 0
2, 278016, Note_on_c, 0, 83, 111
2, 278016, Note_on_c, 0, 88, 111
2, 278112, Note_on_c, 0, 83, 0
2, 278112, Note_on_c, 0, 88, 0
2, 278112, Note_on_c, 0, 76, 109
2, 278160, Control_c, 0, 64, 0
2, 278206, Note_on_c, 0, 76, 0
2, 278208, Note_on_c, 0, 60, 104
2, 278208, Note_on_c, 0, 69, 106
2, 278208, Control_c, 0, 64, 127
2, 278304, Note_on_c, 0, 60, 0
2, 278304, Note_on_c, 0, 69, 0
2, 278304, Note_on_c, 0, 54, 104
2, 278398, Note_on_c, 0, 54, 0
2, 278400, Note_on_c, 0, 84, 106
2, 278400, Note_on_c, 0, 89, 108
2, 278496, Note_on_c, 0, 84, 0
2, 278496, Note_on_c, 0, 89, 0
2, 278496, Note_on_c, 0, 81, 113
2, 278592, Note_on_c, 0, 81, 0
2, 278592, Note_on_c, 0, 89, 105
2, 278592, Note_on_c, 0, 84, 113
2, 278688, Note_on_c, 0, 89, 0
2, 278688, Note_on_c, 0, 84, 0
2, 278688, Note_on_c, 0, 77, 113
2, 278736, Control_c, 0, 64, 0
2, 278782, Note_on_c, 0, 77, 0
2, 278784, Control_c, 0, 64, 127
2, 278784, Note_on_c, 0, 68, 109
2, 278784, Note_on_c, 0, 59, 113
2, 278880, Note_on_c, 0, 68, 0
2, 278880, Note_on_c, 0, 59, 0
2, 278880, Note_on_c, 0, 54, 106
2, 278974, Note_on_c, 0, 54, 0
2, 278976, Note_on_c, 0, 88, 105
2, 278976, Note_on_c, 0, 83, 107
2, 279072, Note_on_c, 0, 88, 0
2, 279072, Note_on_c, 0, 83, 0
2, 279072, Note_on_c, 0, 80, 105
2, 279168, Note_on_c, 0, 80, 0
2, 279168, Note_on_c, 0, 88, 113
2, 279168, Note_on_c, 0, 83, 109
2, 279264, Note_on_c, 0, 88, 0
2, 279264, Note_on_c, 0, 83, 0
2, 279264, Note_on_c, 0, 76, 109
2, 279312, Control_c, 0, 64, 0
2, 279358, Note_on_c, 0, 76, 0
2, 279360, Control_c, 0, 64, 127
2, 279360, Note_on_c, 0, 67, 105
2, 279360, Note_on_c, 0, 59, 111
2, 279456, Note_on_c, 0, 67, 0
2, 279456, Note_on_c, 0, 59, 0
2, 279456, Note_on_c, 0, 54, 112
2, 279550, Note_on_c, 0, 54, 0
2, 279552, Note_on_c, 0, 88, 109
2, 279552, Note_on_c, 0, 83, 104
2, 279648, Note_on_c, 0, 88, 0
2, 279648, Note_on_c, 0, 83, 0
2, 279648, Note_on_c, 0, 79, 110
2, 279744, Note_on_c, 0, 79, 0
2, 279744, Note_on_c, 0, 83, 107
2, 279744, Note_on_c, 0, 88, 104
2, 279840, Note_on_c, 0, 83, 0
2, 279840, Note_on_c, 0, 88, 0
2, 279840, Note_on_c, 0, 76, 113
2, 279888, Control_c, 0, 64, 0
2, 279934, Note_on_c, 0, 76, 0
2, 279936, Note_on_c, 0, 82, 103
2, 279936, Control_c, 0, 64, 127
2, 279936, Note_on_c, 0, 76, 111
2, 279936, Note_on_c, 0, 79, 106
2, 279936, Note_on_c, 0, 54, 127
2, 279936, Note_on_c, 0, 85, 108
2, 279936, Note_on_c, 0, 88, 105
2, 279936, Note_on_c, 0, 64, 127
2, 279936, Note_on_c, 0, 61, 126
2, 279984, Note_on_c, 0, 82, 0
2, 279984, Note_on_c, 0, 76, 0
2, 279984, Note_on_c, 0, 79, 0
2, 279984, Note_on_c, 0, 54, 0
2, 279984, Note_on_c, 0, 85, 0
2, 279984, Note_on_c, 0, 88, 0
2, 279984, Note_on_c, 0, 64, 0
2, 279984, Note_on_c, 0, 61, 0
2, 280512, Note_on_c, 0, 88, 104
2, 280512, Note_on_c, 0, 67, 104
2, 280608, Note_on_c, 0, 88, 0
2, 280608, Note_on_c, 0, 79, 111
2, 280672, Note_on_c, 0, 67, 0
2, 280704, Note_on_c, 0, 79, 0
2, 280704, Note_on_c, 0, 85, 126
2, 280704, Note_on_c, 0, 73, 110
2, 280798, Note_on_c, 0, 73, 0
2, 280800, Note_on_c, 0, 85, 0
2, 280800, Note_on_c, 0, 94, 107
2, 280800, Note_on_c, 0, 91, 103
2, 280896, Note_on_c, 0, 94, 0
2, 280896, Note_on_c, 0, 91, 0
2, 280896, Note_on_c, 0, 85, 112
2, 280992, Note_on_c, 0, 85, 0
2, 280992, Note_on_c, 0, 100, 112
2, 281086, Note_on_c, 0, 100, 0
2, 281088, Note_on_c, 0, 85, 107
2, 281088, Note_on_c, 0, 64, 105
2, 281184, Note_on_c, 0, 85, 0
2, 281184, Note_on_c, 0, 76, 110
2, 281248, Note_on_c, 0, 64, 0
2, 281280, Note_on_c, 0, 76, 0
2, 281280, Note_on_c, 0, 82, 127
2, 281280, Note_on_c, 0, 70, 112
2, 281374, Note_on_c, 0, 70, 0
2, 281376, Note_on_c, 0, 82, 0
2, 281376, Note_on_c, 0, 88, 106
2, 281376, Note_on_c, 0, 91, 105
2, 281472, Note_on_c, 0, 88, 0
2, 281472, Note_on_c, 0, 91, 0
2, 281472, Note_on_c, 0, 82, 106
2, 281568, Note_on_c, 0, 82, 0
2, 281568, Note_on_c, 0, 97, 109
2, 281662, Note_on_c, 0, 97, 0
2, 281664, Note_on_c, 0, 61, 107
2, 281664, Note_on_c, 0, 82, 112
2, 281760, Note_on_c, 0, 82, 0
2, 281760, Note_on_c, 0, 73, 106
2, 281824, Note_on_c, 0, 61, 0
2, 281856, Note_on_c, 0, 73, 0
2, 281856, Note_on_c, 0, 79, 108
2, 281856, Note_on_c, 0, 67, 105
2, 281950, Note_on_c, 0, 67, 0
2, 281952, Note_on_c, 0, 79, 0
2, 281952, Note_on_c, 0, 85, 106
2, 281952, Note_on_c, 0, 88, 103
2, 282048, Note_on_c, 0, 85, 0
2, 282048, Note_on_c, 0, 88, 0
2, 282048, Note_on_c, 0, 79, 106
2, 282144, Note_on_c, 0, 79, 0
2, 282144, Note_on_c, 0, 94, 108
2, 282238, Note_on_c, 0, 94, 0
2, 282240, Note_on_c, 0, 79, 111
2, 282240, Note_on_c, 0, 59, 102
2, 282336, Note_on_c, 0, 79, 0
2, 282336, Note_on_c, 0, 70, 109
2, 282400, Note_on_c, 0, 59, 0
2, 282432, Note_on_c, 0, 70, 0
2, 282432, Note_on_c, 0, 64, 111
2, 282432, Note_on_c, 0, 76, 109
2, 282526, Note_on_c, 0, 64, 0
2, 282528, Note_on_c, 0, 76, 0
2, 282528, Note_on_c, 0, 82, 110
2, 282528, Note_on_c, 0, 85, 108
2, 282624, Note_on_c, 0, 82, 0
2, 282624, Note_on_c, 0, 85, 0
2, 282624, Note_on_c, 0, 76, 105
2, 282720, Note_on_c, 0, 76, 0
2, 282720, Note_on_c, 0, 91, 111
2, 282814, Note_on_c, 0, 91, 0
2, 282816, Note_on_c, 0, 55, 106
2, 282816, Note_on_c, 0, 76, 112
2, 282912, Note_on_c, 0, 76, 0
2, 282912, Note_on_c, 0, 67, 104
2, 282976, Note_on_c, 0, 55, 0
2, 283008, Note_on_c, 0, 67, 0
2, 283008, Note_on_c, 0, 61, 111
2, 283008, Note_on_c, 0, 73, 103
2, 283102, Note_on_c, 0, 61, 0
2, 283104, Note_on_c, 0, 73, 0
2, 283104, Note_on_c, 0, 79, 105
2, 283104, Note_on_c, 0, 82, 104
2, 283200, Note_on_c, 0, 79, 0
2, 283200, Note_on_c, 0, 82, 0
2, 283200, Note_on_c, 0, 73, 104
2, 283296, Note_on_c, 0, 73, 0
2, 283296, Note_on_c, 0, 88, 108
2, 283390, Note_on_c, 0, 88, 0
2, 283392, Note_on_c, 0, 52, 108
2, 283392, Note_on_c, 0, 73, 113
2, 283488, Note_on_c, 0, 73, 0
2, 283488, Note_on_c, 0, 64, 104
2, 283552, Note_on_c, 0, 52, 0
2, 283584, Note_on_c, 0, 64, 0
2, 283584, Note_on_c, 0, 58, 104
2, 283584, Note_on_c, 0, 70, 107
2, 283678, Note_on_c, 0, 58, 0
2, 283680, Note_on_c, 0, 70, 0
2, 283680, Note_on_c, 0, 76, 105
2, 283680, Note_on_c, 0, 79, 107
2, 283776, Note_on_c, 0, 76, 0
2, 283776, Note_on_c, 0, 79, 0
2, 283776, Note_on_c, 0, 70, 106
2, 283872, Note_on_c, 0, 70, 0
2, 283872, Note_on_c, 0, 85, 108
2, 283966, Note_on_c, 0, 85, 0
2, 283968, Note_on_c, 0, 49, 100
2, 283968, Note_on_c, 0, 70, 112
2, 284064, Note_on_c, 0, 70, 0
2, 284064, Note_on_c, 0, 61, 113
2, 284128, Note_on_c, 0, 49, 0
2, 284160, Note_on_c, 0, 61, 0
2, 284160, Note_on_c, 0, 55, 108
2, 284160, Note_on_c, 0, 67, 112
2, 284254, Note_on_c, 0, 55, 0
2, 284256, Note_on_c, 0, 67, 0
2, 284256, Note_on_c, 0, 73, 113
2, 284256, Note_on_c, 0, 76, 107
2, 284352, Note_on_c, 0, 73, 0
2, 284352, Note_on_c, 0, 76, 0
2, 284352, Note_on_c, 0, 67, 106
2, 284448, Note_on_c, 0, 67, 0
2, 284448, Note_on_c, 0, 82, 112
2, 284520, Control_c, 0, 64, 0
2, 284542, Note_on_c, 0, 82, 0
2, 284544, Note_on_c, 0, 64, 123
2, 284544, Control_c, 0, 64, 127
2, 284640, Note_on_c, 0, 55, 108
2, 284736, Note_on_c, 0, 55, 0
2, 284736, Note_on_c, 0, 49, 103
2, 284800, Note_on_c, 0, 64, 0
2, 284830, Note_on_c, 0, 49, 0
2, 284832, Note_on_c, 0, 61, 124
2, 284928, Note_on_c, 0, 67, 107
2, 285024, Note_on_c, 0, 67, 0
2, 285024, Note_on_c, 0, 76, 105
2, 285072, Control_c, 0, 64, 0
2, 285088, Note_on_c, 0, 61, 0
2, 285118, Note_on_c, 0, 76, 0
2, 285120, Control_c, 0, 64, 127
2, 285120, Note_on_c, 0, 64, 127
2, 285216, Note_on_c, 0, 55, 104
2, 285312, Note_on_c, 0, 55, 0
2, 285312, Note_on_c, 0, 48, 105
2, 285376, Note_on_c, 0, 64, 0
2, 285406, Note_on_c, 0, 48, 0
2, 285408, Note_on_c, 0, 60, 127
2, 285504, Note_on_c, 0, 67, 110
2, 285600, Note_on_c, 0, 67, 0
2, 285600, Note_on_c, 0, 76, 106
2, 285648, Control_c, 0, 64, 0
2, 285664, Note_on_c, 0, 60, 0
2, 285694, Note_on_c, 0, 76, 0
2, 285696, Control_c, 0, 64, 127
2, 285696, Note_on_c, 0, 64, 124
2, 285792, Note_on_c, 0, 55, 108
2, 285888, Note_on_c, 0, 55, 0
2, 285888, Note_on_c, 0, 47, 107
2, 285952, Note_on_c, 0, 64, 0
2, 285982, Note_on_c, 0, 47, 0
2, 285984, Note_on_c, 0, 59, 124
2, 286080, Note_on_c, 0, 67, 104
2, 286176, Note_on_c, 0, 67, 0
2, 286176, Note_on_c, 0, 76, 112
2, 286224, Control_c, 0, 64, 0
2, 286240, Note_on_c, 0, 59, 0
2, 286270, Note_on_c, 0, 76, 0
2, 286272, Control_c, 0, 64, 127
2, 286272, Note_on_c, 0, 64, 124
2, 286368, Note_on_c, 0, 55, 104
2, 286464, Note_on_c, 0, 55, 0
2, 286464, Note_on_c, 0, 46, 104
2, 286528, Note_on_c, 0, 64, 0
2, 286558, Note_on_c, 0, 46, 0
2, 286560, Note_on_c, 0, 58, 124
2, 286656, Note_on_c, 0, 67, 105
2, 286752, Note_on_c, 0, 67, 0
2, 286752, Note_on_c, 0, 76, 105
2, 286800, Control_c, 0, 64, 0
2, 286816, Note_on_c, 0, 58, 0
2, 286846, Note_on_c, 0, 76, 0
2, 286848, Note_on_c, 0, 64, 127
2, 286848, Control_c, 0, 64, 127
2, 286944, Note_on_c, 0, 55, 103
2, 287040, Note_on_c, 0, 55, 0
2, 287040, Note_on_c, 0, 49, 109
2, 287104, Note_on_c, 0, 64, 0
2, 287134, Note_on_c, 0, 49, 0
2, 287136, Note_on_c, 0, 61, 127
2, 287232, Note_on_c, 0, 67, 106
2, 287328, Note_on_c, 0, 67, 0
2, 287328, Note_on_c, 0, 76, 110
2, 287376, Control_c, 0, 64, 0
2, 287392, Note_on_c, 0, 61, 0
2, 287422, Note_on_c, 0, 76, 0
2, 287424, Note_on_c, 0, 64, 124
2, 287424, Control_c, 0, 64, 127
2, 287520, Note_on_c, 0, 55, 109
2, 287616, Note_on_c, 0, 55, 0
2, 287616, Note_on_c, 0, 48, 110
2, 287680, Note_on_c, 0, 64, 0
2, 287710, Note_on_c, 0, 48, 0
2, 287712, Note_on_c, 0, 60, 124
2, 287808, Note_on_c, 0, 67, 109
2, 287904, Note_on_c, 0, 67, 0
2, 287904, Note_on_c, 0, 76, 110
2, 287952, Control_c, 0, 64, 0
2, 287968, Note_on_c, 0, 60, 0
2, 287998, Note_on_c, 0, 76, 0
2, 288000, Note_on_c, 0, 64, 123
2, 288000, Control_c, 0, 64, 127
2, 288096, Note_on_c, 0, 55, 111
2, 288192, Note_on_c, 0, 55, 0
2, 288192, Note_on_c, 0, 47, 109
2, 288256, Note_on_c, 0, 64, 0
2, 288286, Note_on_c, 0, 47, 0
2, 288288, Note_on_c, 0, 59, 127
2, 288384, Note_on_c, 0, 67, 110
2, 288480, Note_on_c, 0, 67, 0
2, 288480, Note_on_c, 0, 76, 104
2, 288528, Control_c, 0, 64, 0
2, 288544, Note_on_c, 0, 59, 0
2, 288574, Note_on_c, 0, 76, 0
2, 288576, Note_on_c, 0, 64, 127
2, 288576, Control_c, 0, 64, 127
2, 288672, Note_on_c, 0, 55, 107
2, 288768, Note_on_c, 0, 55, 0
2, 288768, Note_on_c, 0, 46, 111
2, 288832, Note_on_c, 0, 64, 0
2, 288862, Note_on_c, 0, 46, 0
2, 288864, Note_on_c, 0, 58, 127
2, 288960, Note_on_c, 0, 67, 103
2, 289056, Note_on_c, 0, 67, 0
2, 289056, Note_on_c, 0, 76, 110
2, 289104, Control_c, 0, 64, 0
2, 289120, Note_on_c, 0, 58, 0
2, 289150, Note_on_c, 0, 76, 0
2, 289152, Note_on_c, 0, 50, 60
2, 289152, Note_on_c, 0, 41, 62
2, 289248, Note_on_c, 0, 50, 0
2, 289248, Note_on_c, 0, 41, 0
2, 289248, Note_on_c, 0, 42, 42
2, 289344, Note_on_c, 0, 42, 0
2, 289344, Note_on_c, 0, 36, 40
2, 289438, Note_on_c, 0, 36, 0
2, 289440, Note_on_c, 0, 53, 48
2, 289536, Note_on_c, 0, 53, 0
2, 289536, Note_on_c, 0, 54, 56
2, 289632, Note_on_c, 0, 54, 0
2, 289632, Note_on_c, 0, 59, 60
2, 289728, Note_on_c, 0, 59, 0
2, 289728, Note_on_c, 0, 55, 60
2, 289728, Note_on_c, 0, 52, 61
2, 289728, Note_on_c, 0, 62, 73
2, 289824, Note_on_c, 0, 62, 0
2, 289824, Note_on_c, 0, 58, 73
2, 289920, Note_on_c, 0, 55, 0
2, 289920, Note_on_c, 0, 52, 0
2, 289920, Note_on_c, 0, 58, 0
2, 289920, Note_on_c, 0, 61, 78
2, 289920, Note_on_c, 0, 50, 50
2, 289920, Note_on_c, 0, 54, 50
2, 290016, Note_on_c, 0, 61, 0
2, 290016, Note_on_c, 0, 59, 86
2, 290080, Note_on_c, 0, 50, 0
2, 290080, Note_on_c, 0, 54, 0
2, 290112, Note_on_c, 0, 59, 0
2, 290112, Note_on_c, 0, 62, 91
2, 290208, Note_on_c, 0, 62, 0
2, 290208, Note_on_c, 0, 66, 99
2, 290304, Note_on_c, 0, 66, 0
2, 290304, Note_on_c, 0, 71, 113
2, 290304, Note_on_c, 0, 41, 62
2, 290304, Note_on_c, 0, 50, 67
2, 290398, Note_on_c, 0, 71, 0
2, 290400, Note_on_c, 0, 41, 0
2, 290400, Note_on_c, 0, 50, 0
2, 290400, Note_on_c, 0, 42, 45
2, 290496, Note_on_c, 0, 42, 0
2, 290496, Note_on_c, 0, 36, 43
2, 290590, Note_on_c, 0, 36, 0
2, 290592, Note_on_c, 0, 53, 53
2, 290688, Note_on_c, 0, 53, 0
2, 290688, Note_on_c, 0, 54, 56
2, 290784, Note_on_c, 0, 54, 0
2, 290784, Note_on_c, 0, 59, 58
2, 290880, Note_on_c, 0, 59, 0
2, 290880, Note_on_c, 0, 55, 60
2, 290880, Note_on_c, 0, 52, 62
2, 290880, Note_on_c, 0, 62, 70
2, 290976, Note_on_c, 0, 62, 0
2, 290976, Note_on_c, 0, 58, 78
2, 291072, Note_on_c, 0, 55, 0
2, 291072, Note_on_c, 0, 52, 0
2, 291072, Note_on_c, 0, 58, 0
2, 291072, Note_on_c, 0, 54, 47
2, 291072, Note_on_c, 0, 61, 86
2, 291072, Note_on_c, 0, 50, 45
2, 291168, Note_on_c, 0, 61, 0
2, 291168, Note_on_c, 0, 59, 82
2, 291232, Note_on_c, 0, 54, 0
2, 291232, Note_on_c, 0, 50, 0
2, 291264, Note_on_c, 0, 59, 0
2, 291264, Note_on_c, 0, 62, 89
2, 291360, Note_on_c, 0, 62, 0
2, 291360, Note_on_c, 0, 66, 100
2, 291456, Note_on_c, 0, 66, 0
2, 291456, Note_on_c, 0, 47, 77
2, 291456, Note_on_c, 0, 74, 110
2, 291504, Note_on_c, 0, 47, 0
2, 291550, Note_on_c, 0, 74, 0
2, 291648, Note_on_c, 0, 76, 52
2, 291744, Note_on_c, 0, 76, 0
2, 291744, Note_on_c, 0, 70, 46
2, 291840, Note_on_c, 0, 70, 0
2, 291840, Note_on_c, 0, 74, 58
2, 291936, Note_on_c, 0, 74, 0
2, 291936, Note_on_c, 0, 71, 61
2, 292032, Note_on_c, 0, 71, 0
2, 292032, Note_on_c, 0, 62, 43
2, 292032, Note_on_c, 0, 54, 46
2, 292032, Note_on_c, 0, 79, 55
2, 292080, Note_on_c, 0, 62, 0
2, 292080, Note_on_c, 0, 54, 0
2, 292128, Note_on_c, 0, 79, 0
2, 292128, Note_on_c, 0, 73, 62
2, 292224, Note_on_c, 0, 73, 0
2, 292224, Note_on_c, 0, 78, 72
2, 292224, Note_on_c, 0, 47, 53
2, 292272, Note_on_c, 0, 47, 0
2, 292320, Note_on_c, 0, 78, 0
2, 292320, Note_on_c, 0, 74, 73
2, 292416, Note_on_c, 0, 74, 0
2, 292416, Note_on_c, 0, 85, 81
2, 292416, Note_on_c, 0, 54, 55
2, 292416, Note_on_c, 0, 62, 56
2, 292464, Note_on_c, 0, 54, 0
2, 292464, Note_on_c, 0, 62, 0
2, 292512, Note_on_c, 0, 85, 0
2, 292512, Note_on_c, 0, 77, 82
2, 292608, Note_on_c, 0, 77, 0
2, 292608, Note_on_c, 0, 47, 70
2, 292608, Note_on_c, 0, 83, 86
2, 292656, Note_on_c, 0, 47, 0
2, 292704, Note_on_c, 0, 83, 0
2, 292704, Note_on_c, 0, 78, 89
2, 292800, Note_on_c, 0, 78, 0
2, 292800, Note_on_c, 0, 88, 96
2, 292800, Note_on_c, 0, 62, 73
2, 292800, Note_on_c, 0, 54, 74
2, 292848, Note_on_c, 0, 62, 0
2, 292848, Note_on_c, 0, 54, 0
2, 292896, Note_on_c, 0, 88, 0
2, 292896, Note_on_c, 0, 82, 96
2, 292992, Note_on_c, 0, 82, 0
2, 292992, Note_on_c, 0, 47, 87
2, 292992, Note_on_c, 0, 86, 102
2, 293040, Note_on_c, 0, 47, 0
2, 293088, Note_on_c, 0, 86, 0
2, 293088, Note_on_c, 0, 83, 103
2, 293184, Note_on_c, 0, 83, 0
2, 293184, Note_on_c, 0, 95, 109
2, 293184, Note_on_c, 0, 54, 89
2, 293184, Note_on_c, 0, 62, 92
2, 293232, Note_on_c, 0, 95, 0
2, 293232, Note_on_c, 0, 54, 0
2, 293232, Note_on_c, 0, 62, 0
2, 293760, Note_on_c, 0, 52, 59
2, 293760, Note_on_c, 0, 42, 66
2, 293856, Note_on_c, 0, 52, 0
2, 293856, Note_on_c, 0, 42, 0
2, 293856, Note_on_c, 0, 43, 48
2, 293952, Note_on_c, 0, 43, 0
2, 293952, Note_on_c, 0, 35, 50
2, 294046, Note_on_c, 0, 35, 0
2, 294048, Note_on_c, 0, 58, 61
2, 294144, Note_on_c, 0, 58, 0
2, 294144, Note_on_c, 0, 59, 66
2, 294240, Note_on_c, 0, 59, 0
2, 294240, Note_on_c, 0, 64, 65
2, 294336, Note_on_c, 0, 64, 0
2, 294336, Note_on_c, 0, 57, 68
2, 294336, Note_on_c, 0, 60, 67
2, 294336, Note_on_c, 0, 67, 73
2, 294432, Note_on_c, 0, 67, 0
2, 294432, Note_on_c, 0, 63, 77
2, 294528, Note_on_c, 0, 57, 0
2, 294528, Note_on_c, 0, 60, 0
2, 294528, Note_on_c, 0, 63, 0
2, 294528, Note_on_c, 0, 59, 50
2, 294528, Note_on_c, 0, 66, 81
2, 294528, Note_on_c, 0, 55, 46
2, 294624, Note_on_c, 0, 66, 0
2, 294624, Note_on_c, 0, 64, 88
2, 294688, Note_on_c, 0, 59, 0
2, 294688, Note_on_c, 0, 55, 0
2, 294720, Note_on_c, 0, 64, 0
2, 294720, Note_on_c, 0, 67, 91
2, 294816, Note_on_c, 0, 67, 0
2, 294816, Note_on_c, 0, 71, 100
2, 294912, Note_on_c, 0, 71, 0
2, 294912, Note_on_c, 0, 42, 45
2, 294912, Note_on_c, 0, 76, 110
2, 294912, Note_on_c, 0, 52, 47
2, 294944, Note_on_c, 0, 76, 0
2, 295008, Note_on_c, 0, 42, 0
2, 295008, Note_on_c, 0, 52, 0
2, 295008, Note_on_c, 0, 43, 50
2, 295104, Note_on_c, 0, 43, 0
2, 295104, Note_on_c, 0, 35, 43
2, 295198, Note_on_c, 0, 35, 0
2, 295200, Note_on_c, 0, 58, 52
2, 295296, Note_on_c, 0, 58, 0
2, 295296, Note_on_c, 0, 59, 59
2, 295392, Note_on_c, 0, 59, 0
2, 295392, Note_on_c, 0, 64, 62
2, 295488, Note_on_c, 0, 64, 0
2, 295488, Note_on_c, 0, 60, 67
2, 295488, Note_on_c, 0, 57, 59
2, 295488, Note_on_c, 0, 67, 74
2, 295584, Note_on_c, 0, 67, 0
2, 295584, Note_on_c, 0, 63, 80
2, 295680, Note_on_c, 0, 60, 0
2, 295680, Note_on_c, 0, 57, 0
2, 295680, Note_on_c, 0, 63, 0
2, 295680, Note_on_c, 0, 66, 82
2, 295680, Note_on_c, 0, 59, 42
2, 295680, Note_on_c, 0, 55, 42
2, 295776, Note_on_c, 0, 66, 0
2, 295776, Note_on_c, 0, 64, 91
2, 295840, Note_on_c, 0, 59, 0
2, 295840, Note_on_c, 0, 55, 0
2, 295872, Note_on_c, 0, 64, 0
2, 295872, Note_on_c, 0, 67, 92
2, 295968, Note_on_c, 0, 67, 0
2, 295968, Note_on_c, 0, 71, 96
2, 296064, Note_on_c, 0, 71, 0
2, 296064, Note_on_c, 0, 47, 44
2, 296064, Note_on_c, 0, 79, 106
2, 296112, Note_on_c, 0, 47, 0
2, 296158, Note_on_c, 0, 79, 0
2, 296256, Note_on_c, 0, 78, 50
2, 296352, Note_on_c, 0, 78, 0
2, 296352, Note_on_c, 0, 70, 49
2, 296448, Note_on_c, 0, 70, 0
2, 296448, Note_on_c, 0, 76, 54
2, 296544, Note_on_c, 0, 76, 0
2, 296544, Note_on_c, 0, 71, 61
2, 296640, Note_on_c, 0, 71, 0
2, 296640, Note_on_c, 0, 64, 45
2, 296640, Note_on_c, 0, 55, 47
2, 296640, Note_on_c, 0, 81, 65
2, 296688, Note_on_c, 0, 64, 0
2, 296688, Note_on_c, 0, 55, 0
2, 296736, Note_on_c, 0, 81, 0
2, 296736, Note_on_c, 0, 75, 61
2, 296832, Note_on_c, 0, 75, 0
2, 296832, Note_on_c, 0, 79, 66
2, 296832, Note_on_c, 0, 47, 49
2, 296880, Note_on_c, 0, 47, 0
2, 296928, Note_on_c, 0, 79, 0
2, 296928, Note_on_c, 0, 76, 67
2, 297024, Note_on_c, 0, 76, 0
2, 297024, Note_on_c, 0, 64, 63
2, 297024, Note_on_c, 0, 84, 77
2, 297024, Note_on_c, 0, 55, 65
2, 297072, Note_on_c, 0, 64, 0
2, 297072, Note_on_c, 0, 55, 0
2, 297120, Note_on_c, 0, 84, 0
2, 297120, Note_on_c, 0, 78, 76
2, 297216, Note_on_c, 0, 78, 0
2, 297216, Note_on_c, 0, 83, 87
2, 297216, Note_on_c, 0, 47, 68
2, 297264, Note_on_c, 0, 47, 0
2, 297312, Note_on_c, 0, 83, 0
2, 297312, Note_on_c, 0, 79, 91
2, 297408, Note_on_c, 0, 79, 0
2, 297408, Note_on_c, 0, 90, 96
2, 297408, Note_on_c, 0, 64, 80
2, 297408, Note_on_c, 0, 55, 73
2, 297456, Note_on_c, 0, 64, 0
2, 297456, Note_on_c, 0, 55, 0
2, 297504, Note_on_c, 0, 90, 0
2, 297504, Note_on_c, 0, 82, 91
2, 297600, Note_on_c, 0, 82, 0
2, 297600, Note_on_c, 0, 88, 97
2, 297600, Note_on_c, 0, 47, 79
2, 297648, Note_on_c, 0, 47, 0
2, 297696, Note_on_c, 0, 88, 0
2, 297696, Note_on_c, 0, 83, 103
2, 297792, Note_on_c, 0, 83, 0
2, 297792, Note_on_c, 0, 64, 90
2, 297792, Note_on_c, 0, 55, 92
2, 297792, Note_on_c, 0, 100, 106
2, 297840, Note_on_c, 0, 64, 0
2, 297840, Note_on_c, 0, 55, 0
2, 297952, Note_on_c, 0, 100, 0
2, 298368, Note_on_c, 0, 73, 65
2, 298368, Note_on_c, 0, 76, 58
2, 298368, Note_on_c, 0, 78, 70
2, 298368, Note_on_c, 0, 90, 96
2, 298368, Note_on_c, 0, 70, 57
2, 298528, Note_on_c, 0, 78, 0
2, 298560, Note_on_c, 0, 90, 0
2, 298560, Note_on_c, 0, 91, 88
2, 298560, Note_on_c, 0, 79, 79
2, 298656, Note_on_c, 0, 91, 0
2, 298656, Note_on_c, 0, 90, 93
2, 298752, Note_on_c, 0, 90, 0
2, 298752, Note_on_c, 0, 89, 94
2, 298848, Note_on_c, 0, 89, 0
2, 298848, Note_on_c, 0, 88, 88
2, 298944, Note_on_c, 0, 73, 0
2, 298944, Note_on_c, 0, 76, 0
2, 298944, Note_on_c, 0, 70, 0
2, 298944, Note_on_c, 0, 88, 0
2, 298944, Note_on_c, 0, 74, 56
2, 298944, Note_on_c, 0, 88, 88
2, 298944, Note_on_c, 0, 71, 61
2, 299040, Note_on_c, 0, 88, 0
2, 299040, Note_on_c, 0, 86, 89
2, 299104, Note_on_c, 0, 79, 0
2, 299104, Note_on_c, 0, 74, 0
2, 299104, Note_on_c, 0, 71, 0
2, 299136, Note_on_c, 0, 86, 0
2, 299136, Note_on_c, 0, 54, 78
2, 299136, Note_on_c, 0, 85, 97
2, 299136, Note_on_c, 0, 66, 70
2, 299232, Note_on_c, 0, 85, 0
2, 299232, Note_on_c, 0, 83, 89
2, 299296, Note_on_c, 0, 54, 0
2, 299296, Note_on_c, 0, 66, 0
2, 299328, Note_on_c, 0, 83, 0
2, 299328, Note_on_c, 0, 81, 91
2, 299424, Note_on_c, 0, 81, 0
2, 299424, Note_on_c, 0, 79, 94
2, 299520, Note_on_c, 0, 79, 0
2, 299520, Note_on_c, 0, 69, 71
2, 299520, Note_on_c, 0, 73, 80
2, 299520, Note_on_c, 0, 78, 89
2, 299568, Note_on_c, 0, 69, 0
2, 299568, Note_on_c, 0, 73, 0
2, 299616, Note_on_c, 0, 78, 0
2, 299616, Note_on_c, 0, 79, 89
2, 299712, Note_on_c, 0, 79, 0
2, 299712, Note_on_c, 0, 77, 90
2, 299712, Note_on_c, 0, 54, 78
2, 299760, Note_on_c, 0, 54, 0
2, 299808, Note_on_c, 0, 77, 0
2, 299808, Note_on_c, 0, 78, 89
2, 299904, Note_on_c, 0, 78, 0
2, 299904, Note_on_c, 0, 83, 87
2, 299904, Note_on_c, 0, 67, 78
2, 299904, Note_on_c, 0, 71, 79
2, 299952, Note_on_c, 0, 67, 0
2, 299952, Note_on_c, 0, 71, 0
2, 300000, Note_on_c, 0, 83, 0
2, 300000, Note_on_c, 0, 76, 89
2, 300096, Note_on_c, 0, 76, 0
2, 300096, Note_on_c, 0, 66, 71
2, 300096, Note_on_c, 0, 74, 88
2, 300096, Note_on_c, 0, 69, 79
2, 300144, Note_on_c, 0, 66, 0
2, 300144, Note_on_c, 0, 69, 0
2, 300192, Note_on_c, 0, 74, 0
2, 300192, Note_on_c, 0, 76, 87
2, 300288, Note_on_c, 0, 76, 0
2, 300288, Note_on_c, 0, 73, 85
2, 300288, Note_on_c, 0, 54, 74
2, 300336, Note_on_c, 0, 54, 0
2, 300384, Note_on_c, 0, 73, 0
2, 300384, Note_on_c, 0, 74, 78
2, 300480, Note_on_c, 0, 74, 0
2, 300480, Note_on_c, 0, 64, 57
2, 300480, Note_on_c, 0, 79, 77
2, 300480, Note_on_c, 0, 67, 78
2, 300576, Note_on_c, 0, 79, 0
2, 300576, Note_on_c, 0, 71, 77
2, 300640, Note_on_c, 0, 64, 0
2, 300670, Note_on_c, 0, 71, 0
2, 300672, Note_on_c, 0, 70, 71
2, 300672, Note_on_c, 0, 61, 56
2, 300768, Note_on_c, 0, 70, 0
2, 300768, Note_on_c, 0, 76, 79
2, 300832, Note_on_c, 0, 67, 0
2, 300864, Note_on_c, 0, 76, 0
2, 300864, Note_on_c, 0, 68, 76
2, 300864, Note_on_c, 0, 54, 58
2, 300960, Note_on_c, 0, 68, 0
2, 300960, Note_on_c, 0, 69, 77
2, 301008, Note_on_c, 0, 61, 0
2, 301056, Note_on_c, 0, 69, 0
2, 301056, Note_on_c, 0, 66, 73
2, 301056, Note_on_c, 0, 62, 78
2, 301056, Note_on_c, 0, 78, 77
2, 301152, Note_on_c, 0, 78, 0
2, 301152, Note_on_c, 0, 74, 72
2, 301216, Note_on_c, 0, 66, 0
2, 301248, Note_on_c, 0, 62, 0
2, 301248, Note_on_c, 0, 74, 0
2, 301248, Note_on_c, 0, 61, 77
2, 301248, Note_on_c, 0, 67, 76
2, 301248, Note_on_c, 0, 70, 70
2, 301344, Note_on_c, 0, 70, 0
2, 301344, Note_on_c, 0, 74, 76
2, 301408, Note_on_c, 0, 54, 0
2, 301408, Note_on_c, 0, 67, 0
2, 301440, Note_on_c, 0, 74, 0
2, 301440, Note_on_c, 0, 54, 60
2, 301440, Note_on_c, 0, 54, 77
2, 301440, Note_on_c, 0, 68, 70
2, 301536, Note_on_c, 0, 68, 0
2, 301536, Note_on_c, 0, 69, 75
2, 301584, Note_on_c, 0, 61, 0
2, 301600, Note_on_c, 0, 54, 0
2, 301632, Note_on_c, 0, 69, 0
2, 301632, Note_on_c, 0, 62, 80
2, 301632, Note_on_c, 0, 66, 70
2, 301632, Note_on_c, 0, 78, 75
2, 301728, Note_on_c, 0, 78, 0
2, 301728, Note_on_c, 0, 74, 74
2, 301792, Note_on_c, 0, 66, 0
2, 301824, Note_on_c, 0, 62, 0
2, 301824, Note_on_c, 0, 74, 0
2, 301824, Note_on_c, 0, 59, 73
2, 301824, Note_on_c, 0, 68, 75
2, 301824, Note_on_c, 0, 65, 77
2, 301920, Note_on_c, 0, 68, 0
2, 301920, Note_on_c, 0, 74, 70
2, 301984, Note_on_c, 0, 54, 0
2, 301984, Note_on_c, 0, 65, 0
2, 302016, Note_on_c, 0, 74, 0
2, 302016, Note_on_c, 0, 66, 74
2, 302016, Note_on_c, 0, 54, 79
2, 302016, Note_on_c, 0, 54, 62
2, 302112, Note_on_c, 0, 66, 0
2, 302112, Note_on_c, 0, 67, 76
2, 302160, Note_on_c, 0, 59, 0
2, 302176, Note_on_c, 0, 54, 0
2, 302208, Note_on_c, 0, 67, 0
2, 302208, Note_on_c, 0, 64, 77
2, 302208, Note_on_c, 0, 76, 78
2, 302208, Note_on_c, 0, 61, 70
2, 302304, Note_on_c, 0, 76, 0
2, 302304, Note_on_c, 0, 73, 70
2, 302368, Note_on_c, 0, 64, 0
2, 302400, Note_on_c, 0, 61, 0
2, 302400, Note_on_c, 0, 73, 0
2, 302400, Note_on_c, 0, 67, 73
2, 302400, Note_on_c, 0, 58, 79
2, 302496, Note_on_c, 0, 67, 0
2, 302496, Note_on_c, 0, 73, 77
2, 302560, Note_on_c, 0, 54, 0
2, 302592, Note_on_c, 0, 73, 0
2, 302592, Note_on_c, 0, 65, 79
2, 302592, Note_on_c, 0, 54, 61
2, 302688, Note_on_c, 0, 65, 0
2, 302688, Note_on_c, 0, 66, 74
2, 302736, Note_on_c, 0, 58, 0
2, 302784, Note_on_c, 0, 66, 0
2, 302784, Note_on_c, 0, 74, 78
2, 302784, Note_on_c, 0, 59, 75
2, 302784, Note_on_c, 0, 62, 71
2, 302880, Note_on_c, 0, 74, 0
2, 302880, Note_on_c, 0, 71, 74
2, 302944, Note_on_c, 0, 62, 0
2, 302974, Note_on_c, 0, 71, 0
2, 302976, Note_on_c, 0, 59, 0
2, 302976, Note_on_c, 0, 64, 71
2, 302976, Note_on_c, 0, 66, 73
2, 302976, Note_on_c, 0, 58, 65
2, 303070, Note_on_c, 0, 54, 0
2, 303070, Note_on_c, 0, 64, 0
2, 303070, Note_on_c, 0, 66, 0
2, 303070, Note_on_c, 0, 58, 0
2, 303168, Note_on_c, 0, 30, 74
2, 303168, Note_on_c, 0, 67, 87
2, 303168, Note_on_c, 0, 42, 78
2, 303216, Note_on_c, 0, 30, 0
2, 303216, Note_on_c, 0, 42, 0
2, 303264, Note_on_c, 0, 67, 0
2, 303264, Note_on_c, 0, 66, 92
2, 303360, Note_on_c, 0, 66, 0
2, 303360, Note_on_c, 0, 65, 92
2, 303456, Note_on_c, 0, 65, 0
2, 303456, Note_on_c, 0, 64, 95
2, 303552, Note_on_c, 0, 64, 0
2, 303552, Note_on_c, 0, 47, 73
2, 303552, Note_on_c, 0, 55, 78
2, 303552, Note_on_c, 0, 50, 77
2, 303552, Note_on_c, 0, 64, 89
2, 303600, Note_on_c, 0, 47, 0
2, 303600, Note_on_c, 0, 55, 0
2, 303600, Note_on_c, 0, 50, 0
2, 303648, Note_on_c, 0, 64, 0
2, 303648, Note_on_c, 0, 62, 87
2, 303744, Note_on_c, 0, 62, 0
2, 303744, Note_on_c, 0, 42, 73
2, 303744, Note_on_c, 0, 61, 96
2, 303744, Note_on_c, 0, 30, 77
2, 303792, Note_on_c, 0, 42, 0
2, 303792, Note_on_c, 0, 30, 0
2, 303840, Note_on_c, 0, 61, 0
2, 303840, Note_on_c, 0, 59, 90
2, 303936, Note_on_c, 0, 59, 0
2, 303936, Note_on_c, 0, 57, 96
2, 304032, Note_on_c, 0, 57, 0
2, 304032, Note_on_c, 0, 55, 88
2, 304128, Note_on_c, 0, 55, 0
2, 304128, Note_on_c, 0, 45, 70
2, 304128, Note_on_c, 0, 49, 77
2, 304128, Note_on_c, 0, 54, 88
2, 304176, Note_on_c, 0, 45, 0
2, 304176, Note_on_c, 0, 49, 0
2, 304224, Note_on_c, 0, 54, 0
2, 304224, Note_on_c, 0, 55, 93
2, 304320, Note_on_c, 0, 55, 0
2, 304320, Note_on_c, 0, 53, 87
2, 304320, Note_on_c, 0, 30, 72
2, 304368, Note_on_c, 0, 30, 0
2, 304416, Note_on_c, 0, 53, 0
2, 304416, Note_on_c, 0, 54, 85
2, 304512, Note_on_c, 0, 54, 0
2, 304512, Note_on_c, 0, 47, 78
2, 304512, Note_on_c, 0, 59, 82
2, 304512, Note_on_c, 0, 43, 78
2, 304560, Note_on_c, 0, 47, 0
2, 304560, Note_on_c, 0, 43, 0
2, 304608, Note_on_c, 0, 59, 0
2, 304608, Note_on_c, 0, 53, 86
2, 304704, Note_on_c, 0, 53, 0
2, 304704, Note_on_c, 0, 42, 70
2, 304704, Note_on_c, 0, 45, 71
2, 304704, Note_on_c, 0, 50, 83
2, 304752, Note_on_c, 0, 42, 0
2, 304752, Note_on_c, 0, 45, 0
2, 304800, Note_on_c, 0, 50, 0
2, 304800, Note_on_c, 0, 52, 75
2, 304896, Note_on_c, 0, 52, 0
2, 304896, Note_on_c, 0, 49, 74
2, 304896, Note_on_c, 0, 30, 72
2, 304944, Note_on_c, 0, 30, 0
2, 304992, Note_on_c, 0, 49, 0
2, 304992, Note_on_c, 0, 50, 66
2, 305088, Note_on_c, 0, 50, 0
2, 305088, Note_on_c, 0, 55, 69
2, 305088, Note_on_c, 0, 43, 108
2, 305088, Note_on_c, 0, 40, 106
2, 305184, Note_on_c, 0, 55, 0
2, 305184, Note_on_c, 0, 47, 64
2, 305248, Note_on_c, 0, 40, 0
2, 305278, Note_on_c, 0, 47, 0
2, 305280, Note_on_c, 0, 46, 62
2, 305280, Note_on_c, 0, 37, 107
2, 305376, Note_on_c, 0, 46, 0
2, 305376, Note_on_c, 0, 49, 59
2, 305472, Note_on_c, 0, 49, 0
2, 305472, Note_on_c, 0, 52, 66
2, 305568, Note_on_c, 0, 52, 0
2, 305568, Note_on_c, 0, 55, 65
2, 305664, Note_on_c, 0, 55, 0
2, 305664, Note_on_c, 0, 58, 61
2, 305760, Note_on_c, 0, 58, 0
2, 305760, Note_on_c, 0, 61, 65
2, 305856, Note_on_c, 0, 61, 0
2, 305856, Note_on_c, 0, 63, 61
2, 305952, Note_on_c, 0, 63, 0
2, 305952, Note_on_c, 0, 64, 63
2, 306048, Note_on_c, 0, 64, 0
2, 306048, Note_on_c, 0, 65, 66
2, 306144, Note_on_c, 0, 65, 0
2, 306144, Note_on_c, 0, 66, 71
2, 306192, Note_on_c, 0, 37, 0
2, 306240, Note_on_c, 0, 66, 0
2, 306240, Note_on_c, 0, 35, 110
2, 306240, Note_on_c, 0, 67, 69
2, 306336, Note_on_c, 0, 67, 0
2, 306336, Note_on_c, 0, 62, 67
2, 306400, Note_on_c, 0, 35, 0
2, 306432, Note_on_c, 0, 62, 0
2, 306432, Note_on_c, 0, 61, 68
2, 306432, Note_on_c, 0, 34, 107
2, 306526, Note_on_c, 0, 61, 0
2, 306528, Note_on_c, 0, 64, 76
2, 306592, Note_on_c, 0, 43, 0
2, 306592, Note_on_c, 0, 34, 0
2, 306624, Note_on_c, 0, 64, 0
2, 306624, Note_on_c, 0, 73, 77
2, 306624, Note_on_c, 0, 76, 71
2, 306720, Note_on_c, 0, 73, 0
2, 306720, Note_on_c, 0, 76, 0
2, 306720, Note_on_c, 0, 70, 78
2, 306816, Note_on_c, 0, 70, 0
2, 306816, Note_on_c, 0, 67, 80
2, 306912, Note_on_c, 0, 67, 0
2, 306912, Note_on_c, 0, 65, 73
2, 307008, Note_on_c, 0, 65, 0
2, 307008, Note_on_c, 0, 64, 76
2, 307104, Note_on_c, 0, 64, 0
2, 307104, Note_on_c, 0, 63, 79
2, 307200, Note_on_c, 0, 63, 0
2, 307200, Note_on_c, 0, 62, 82
2, 307200, Note_on_c, 0, 55, 103
2, 307248, Note_on_c, 0, 55, 0
2, 307296, Note_on_c, 0, 62, 0
2, 307296, Note_on_c, 0, 61, 79
2, 307392, Note_on_c, 0, 61, 0
2, 307392, Note_on_c, 0, 60, 77
2, 307392, Note_on_c, 0, 55, 105
2, 307440, Note_on_c, 0, 55, 0
2, 307488, Note_on_c, 0, 60, 0
2, 307488, Note_on_c, 0, 59, 83
2, 307582, Note_on_c, 0, 59, 0
2, 307584, Note_on_c, 0, 49, 108
2, 307584, Note_on_c, 0, 58, 78
2, 307584, Note_on_c, 0, 55, 104
2, 307680, Note_on_c, 0, 58, 0
2, 307680, Note_on_c, 0, 61, 81
2, 307776, Note_on_c, 0, 61, 0
2, 307776, Note_on_c, 0, 64, 88
2, 307872, Note_on_c, 0, 64, 0
2, 307872, Note_on_c, 0, 67, 86
2, 307968, Note_on_c, 0, 67, 0
2, 307968, Note_on_c, 0, 70, 93
2, 308064, Note_on_c, 0, 70, 0
2, 308064, Note_on_c, 0, 73, 88
2, 308160, Note_on_c, 0, 73, 0
2, 308160, Note_on_c, 0, 75, 97
2, 308256, Note_on_c, 0, 75, 0
2, 308256, Note_on_c, 0, 76, 96
2, 308352, Note_on_c, 0, 76, 0
2, 308352, Note_on_c, 0, 77, 93
2, 308448, Note_on_c, 0, 77, 0
2, 308448, Note_on_c, 0, 78, 97
2, 308544, Note_on_c, 0, 49, 0
2, 308544, Note_on_c, 0, 78, 0
2, 308544, Note_on_c, 0, 47, 110
2, 308544, Note_on_c, 0, 79, 99
2, 308640, Note_on_c, 0, 79, 0
2, 308640, Note_on_c, 0, 74, 102
2, 308736, Note_on_c, 0, 47, 0
2, 308736, Note_on_c, 0, 74, 0
2, 308736, Note_on_c, 0, 73, 109
2, 308736, Note_on_c, 0, 46, 112
2, 308768, Note_on_c, 0, 73, 0
2, 308830, Note_on_c, 0, 55, 0
2, 308830, Note_on_c, 0, 46, 0
2, 308928, Note_on_c, 0, 76, 109
2, 308928, Note_on_c, 0, 48, 91
2, 308928, Note_on_c, 0, 82, 107
2, 308928, Note_on_c, 0, 79, 113
2, 308928, Note_on_c, 0, 70, 110
2, 308928, Note_on_c, 0, 60, 94
2, 308976, Note_on_c, 0, 76, 0
2, 308976, Note_on_c, 0, 48, 0
2, 308976, Note_on_c, 0, 82, 0
2, 308976, Note_on_c, 0, 79, 0
2, 308976, Note_on_c, 0, 70, 0
2, 308976, Note_on_c, 0, 60, 0
2, 309120, Note_on_c, 0, 59, 87
2, 309120, Note_on_c, 0, 83, 112
2, 309120, Note_on_c, 0, 76, 110
2, 309120, Note_on_c, 0, 79, 108
2, 309120, Note_on_c, 0, 71, 108
2, 309120, Note_on_c, 0, 47, 94
2, 309168, Note_on_c, 0, 59, 0
2, 309168, Note_on_c, 0, 83, 0
2, 309168, Note_on_c, 0, 76, 0
2, 309168, Note_on_c, 0, 79, 0
2, 309168, Note_on_c, 0, 71, 0
2, 309168, Note_on_c, 0, 47, 0
2, 309312, Note_on_c, 0, 76, 105
2, 309312, Note_on_c, 0, 85, 104
2, 309312, Note_on_c, 0, 79, 109
2, 309312, Note_on_c, 0, 73, 112
2, 309312, Note_on_c, 0, 46, 88
2, 309312, Note_on_c, 0, 58, 94
2, 309472, Note_on_c, 0, 76, 0
2, 309472, Note_on_c, 0, 85, 0
2, 309472, Note_on_c, 0, 79, 0
2, 309472, Note_on_c, 0, 73, 0
2, 309472, Note_on_c, 0, 46, 0
2, 309472, Note_on_c, 0, 58, 0
2, 309504, Note_on_c, 0, 55, 92
2, 309504, Note_on_c, 0, 43, 92
2, 309696, Note_on_c, 0, 55, 0
2, 309696, Note_on_c, 0, 43, 0
2, 309696, Note_on_c, 0, 34, 92
2, 309696, Note_on_c, 0, 46, 93
2, 309856, Note_on_c, 0, 34, 0
2, 309856, Note_on_c, 0, 46, 0
2, 309888, Note_on_c, 0, 47, 96
2, 309888, Note_on_c, 0, 35, 97
2, 310656, Note_on_c, 0, 67, 95
2, 310656, Note_on_c, 0, 74, 93
2, 310656, Note_on_c, 0, 62, 97
2, 310848, Note_on_c, 0, 67, 0
2, 310848, Note_on_c, 0, 74, 0
2, 310848, Note_on_c, 0, 62, 0
2, 310848, Note_on_c, 0, 55, 95
2, 310848, Note_on_c, 0, 67, 90
2, 310848, Note_on_c, 0, 62, 88
2, 311008, Note_on_c, 0, 55, 0
2, 311008, Note_on_c, 0, 67, 0
2, 311008, Note_on_c, 0, 62, 0
2, 311040, Note_on_c, 0, 61, 65
2, 311040, Note_on_c, 0, 55, 59
2, 311040, Note_on_c, 0, 66, 73
2, 311232, Note_on_c, 0, 66, 0
2, 311232, Note_on_c, 0, 64, 72
2, 311376, Note_on_c, 0, 47, 0
2, 311376, Note_on_c, 0, 35, 0
2, 311376, Note_on_c, 0, 61, 0
2, 311376, Note_on_c, 0, 55, 0
2, 311392, Note_on_c, 0, 64, 0
2, 311424, Note_on_c, 0, 46, 108
2, 311424, Note_on_c, 0, 34, 113
2, 311584, Note_on_c, 0, 46, 0
2, 311584, Note_on_c, 0, 34, 0
2, 311616, Note_on_c, 0, 45, 111
2, 311616, Note_on_c, 0, 57, 110
2, 311808, Note_on_c, 0, 45, 0
2, 311808, Note_on_c, 0, 57, 0
2, 311808, Note_on_c, 0, 55, 107
2, 311808, Note_on_c, 0, 43, 107
2, 312000, Note_on_c, 0, 55, 0
2, 312000, Note_on_c, 0, 43, 0
2, 312000, Note_on_c, 0, 34, 112
2, 312000, Note_on_c, 0, 46, 106
2, 312160, Note_on_c, 0, 34, 0
2, 312160, Note_on_c, 0, 46, 0
2, 312192, Note_on_c, 0, 35, 112
2, 312192, Note_on_c, 0, 47, 103
2, 312576, Note_on_c, 0, 67, 106
2, 312576, Note_on_c, 0, 64, 113
2, 312576, Note_on_c, 0, 76, 106
2, 312768, Note_on_c, 0, 64, 0
2, 312768, Note_on_c, 0, 76, 0
2, 312768, Note_on_c, 0, 75, 103
2, 312768, Note_on_c, 0, 63, 110
2, 312960, Note_on_c, 0, 67, 0
2, 312960, Note_on_c, 0, 75, 0
2, 312960, Note_on_c, 0, 63, 0
2, 312960, Note_on_c, 0, 67, 104
2, 312960, Note_on_c, 0, 62, 113
2, 312960, Note_on_c, 0, 74, 111
2, 313152, Note_on_c, 0, 67, 0
2, 313152, Note_on_c, 0, 62, 0
2, 313152, Note_on_c, 0, 74, 0
2, 313152, Note_on_c, 0, 55, 108
2, 313152, Note_on_c, 0, 67, 108
2, 313152, Note_on_c, 0, 62, 109
2, 313312, Note_on_c, 0, 55, 0
2, 313312, Note_on_c, 0, 67, 0
2, 313312, Note_on_c, 0, 62, 0
2, 313344, Note_on_c, 0, 61, 61
2, 313344, Note_on_c, 0, 66, 97
2, 313344, Note_on_c, 0, 55, 55
2, 313680, Note_on_c, 0, 66, 0
2, 313728, Note_on_c, 0, 64, 55
2, 313872, Note_on_c, 0, 35, 0
2, 313872, Note_on_c, 0, 47, 0
2, 313920, Note_on_c, 0, 35, 105
2, 313920, Note_on_c, 0, 47, 107
2, 313968, Note_on_c, 0, 35, 0
2, 313968, Note_on_c, 0, 47, 0
2, 314112, Note_on_c, 0, 47, 101
2, 314112, Note_on_c, 0, 35, 96
2, 314304, Note_on_c, 0, 47, 0
2, 314304, Note_on_c, 0, 35, 0
2, 314304, Note_on_c, 0, 46, 85
2, 314304, Note_on_c, 0, 34, 88
2, 314448, Note_on_c, 0, 61, 0
2, 314448, Note_on_c, 0, 55, 0
2, 314448, Note_on_c, 0, 64, 0
2, 314464, Note_on_c, 0, 46, 0
2, 314464, Note_on_c, 0, 34, 0
2, 314496, Note_on_c, 0, 59, 61
2, 314496, Note_on_c, 0, 35, 75
2, 314496, Note_on_c, 0, 64, 61
2, 314496, Note_on_c, 0, 47, 79
2, 314496, Note_on_c, 0, 54, 60
2, 314688, Note_on_c, 0, 64, 0
2, 314688, Note_on_c, 0, 62, 59
2, 314832, Note_on_c, 0, 59, 0
2, 314832, Note_on_c, 0, 54, 0
2, 314848, Note_on_c, 0, 62, 0
2, 315024, Note_on_c, 0, 35, 0
2, 315024, Note_on_c, 0, 47, 0
2, 315072, Note_on_c, 0, 35, 44
2, 315072, Note_on_c, 0, 47, 41
2, 315120, Note_on_c, 0, 35, 0
2, 315120, Note_on_c, 0, 47, 0
2, 315264, Note_on_c, 0, 47, 47
2, 315264, Note_on_c, 0, 35, 40
2, 315456, Note_on_c, 0, 47, 0
2, 315456, Note_on_c, 0, 35, 0
2, 315456, Note_on_c, 0, 46, 43
2, 315456, Note_on_c, 0, 34, 49
2, 315616, Note_on_c, 0, 46, 0
2, 315616, Note_on_c, 0, 34, 0
2, 315648, Note_on_c, 0, 59, 49
2, 315648, Note_on_c, 0, 54, 44
2, 315648, Note_on_c, 0, 47, 50
2, 315648, Note_on_c, 0, 35, 43
2, 315648, Note_on_c, 0, 64, 56
2, 315840, Note_on_c, 0, 64, 0
2, 315840, Note_on_c, 0, 62, 56
2, 315984, Note_on_c, 0, 59, 0
2, 315984, Note_on_c, 0, 54, 0
2, 316000, Note_on_c, 0, 62, 0
2, 316176, Note_on_c, 0, 47, 0
2, 316176, Note_on_c, 0, 35, 0
2, 316224, Note_on_c, 0, 35, 91
2, 316224, Note_on_c, 0, 47, 94
2, 316416, Note_on_c, 0, 35, 0
2, 316416, Note_on_c, 0, 47, 0
2, 316416, Note_on_c, 0, 49, 91
2, 316416, Note_on_c, 0, 37, 94
2, 316608, Note_on_c, 0, 49, 0
2, 316608, Note_on_c, 0, 37, 0
2, 316608, Note_on_c, 0, 38, 96
2, 316608, Note_on_c, 0, 50, 95
2, 316768, Note_on_c, 0, 38, 0
2, 316768, Note_on_c, 0, 50, 0
2, 316800, Note_on_c, 0, 59, 97
2, 316800, Note_on_c, 0, 55, 94
2, 316800, Note_on_c, 0, 28, 107
2, 316800, Control_c, 0, 64, 127
2, 316800, Note_on_c, 0, 62, 111
2, 316800, Note_on_c, 0, 40, 103
2, 317184, Note_on_c, 0, 62, 0
2, 317184, Note_on_c, 0, 61, 90
2, 317328, Note_on_c, 0, 59, 0
2, 317328, Note_on_c, 0, 55, 0
2, 317328, Note_on_c, 0, 28, 0
2, 317328, Note_on_c, 0, 40, 0
2, 317344, Note_on_c, 0, 61, 0
2, 317376, Note_on_c, 0, 76, 96
2, 317376, Note_on_c, 0, 64, 105
2, 317952, Control_c, 0, 64, 0
2, 318528, Note_on_c, 0, 74, 92
2, 318528, Note_on_c, 0, 62, 111
2, 318688, Note_on_c, 0, 74, 0
2, 318688, Note_on_c, 0, 62, 0
2, 318720, Note_on_c, 0, 73, 88
2, 318720, Note_on_c, 0, 61, 109
2, 318880, Note_on_c, 0, 73, 0
2, 318880, Note_on_c, 0, 61, 0
2, 318912, Note_on_c, 0, 59, 111
2, 318912, Note_on_c, 0, 71, 89
2, 319072, Note_on_c, 0, 59, 0
2, 319072, Note_on_c, 0, 71, 0
2, 319104, Note_on_c, 0, 61, 105
2, 319104, Note_on_c, 0, 73, 97
2, 319440, Note_on_c, 0, 76, 0
2, 319440, Note_on_c, 0, 64, 0
2, 319440, Note_on_c, 0, 61, 0
2, 319440, Note_on_c, 0, 73, 0
2, 319488, Note_on_c, 0, 43, 106
2, 319488, Note_on_c, 0, 55, 105
2, 319488, Control_c, 0, 64, 127
2, 319488, Note_on_c, 0, 71, 97
2, 319488, Note_on_c, 0, 64, 90
2, 319680, Note_on_c, 0, 43, 0
2, 319680, Note_on_c, 0, 55, 0
2, 319680, Note_on_c, 0, 71, 0
2, 319680, Note_on_c, 0, 64, 0
2, 319680, Note_on_c, 0, 64, 104
2, 319680, Note_on_c, 0, 76, 87
2, 320256, Control_c, 0, 64, 0
2, 320832, Note_on_c, 0, 74, 94
2, 320832, Note_on_c, 0, 62, 110
2, 320992, Note_on_c, 0, 74, 0
2, 320992, Note_on_c, 0, 62, 0
2, 321024, Note_on_c, 0, 61, 107
2, 321024, Note_on_c, 0, 73, 95
2, 321184, Note_on_c, 0, 61, 0
2, 321184, Note_on_c, 0, 73, 0
2, 321216, Note_on_c, 0, 71, 96
2, 321216, Note_on_c, 0, 59, 108
2, 321376, Note_on_c, 0, 71, 0
2, 321376, Note_on_c, 0, 59, 0
2, 321408, Note_on_c, 0, 61, 105
2, 321408, Note_on_c, 0, 73, 93
2, 321744, Note_on_c, 0, 64, 0
2, 321744, Note_on_c, 0, 76, 0
2, 321744, Note_on_c, 0, 61, 0
2, 321744, Note_on_c, 0, 73, 0
2, 321792, Note_on_c, 0, 64, 89
2, 321792, Note_on_c, 0, 43, 112
2, 321792, Note_on_c, 0, 55, 113
2, 321792, Control_c, 0, 64, 127
2, 321792, Note_on_c, 0, 71, 87
2, 321952, Note_on_c, 0, 64, 0
2, 321952, Note_on_c, 0, 43, 0
2, 321952, Note_on_c, 0, 55, 0
2, 321984, Note_on_c, 0, 76, 93
2, 321984, Note_on_c, 0, 64, 105
2, 321984, Note_on_c, 0, 52, 106
2, 322512, Note_on_c, 0, 76, 0
2, 322560, Note_on_c, 0, 64, 0
2, 322560, Note_on_c, 0, 52, 0
2, 322560, Note_on_c, 0, 61, 112
2, 322560, Control_c, 0, 64, 0
2, 322560, Note_on_c, 0, 73, 96
2, 322560, Note_on_c, 0, 59, 103
2, 322720, Note_on_c, 0, 61, 0
2, 322720, Note_on_c, 0, 59, 0
2, 322896, Note_on_c, 0, 71, 0
2, 322896, Note_on_c, 0, 73, 0
2, 322944, Control_c, 0, 64, 127
2, 322944, Note_on_c, 0, 71, 90
2, 322944, Note_on_c, 0, 55, 109
2, 322944, Note_on_c, 0, 43, 107
2, 322944, Note_on_c, 0, 66, 95
2, 323104, Note_on_c, 0, 55, 0
2, 323104, Note_on_c, 0, 43, 0
2, 323104, Note_on_c, 0, 66, 0
2, 323136, Note_on_c, 0, 77, 96
2, 323136, Note_on_c, 0, 53, 103
2, 323136, Note_on_c, 0, 65, 109
2, 323664, Note_on_c, 0, 77, 0
2, 323712, Note_on_c, 0, 53, 0
2, 323712, Note_on_c, 0, 65, 0
2, 323712, Control_c, 0, 64, 0
2, 323712, Note_on_c, 0, 61, 113
2, 323712, Note_on_c, 0, 59, 109
2, 323712, Note_on_c, 0, 73, 93
2, 323872, Note_on_c, 0, 61, 0
2, 323872, Note_on_c, 0, 59, 0
2, 324048, Note_on_c, 0, 71, 0
2, 324048, Note_on_c, 0, 73, 0
2, 324096, Note_on_c, 0, 66, 87
2, 324096, Note_on_c, 0, 54, 113
2, 324096, Note_on_c, 0, 71, 88
2, 324096, Note_on_c, 0, 42, 103
2, 324096, Control_c, 0, 64, 127
2, 324256, Note_on_c, 0, 66, 0
2, 324256, Note_on_c, 0, 54, 0
2, 324256, Note_on_c, 0, 42, 0
2, 324288, Note_on_c, 0, 66, 110
2, 324288, Note_on_c, 0, 78, 91
2, 324288, Note_on_c, 0, 54, 109
2, 324816, Note_on_c, 0, 71, 0
2, 324864, Note_on_c, 0, 66, 0
2, 324864, Note_on_c, 0, 78, 0
2, 324864, Note_on_c, 0, 73, 95
2, 324864, Note_on_c, 0, 61, 107
2, 324864, Note_on_c, 0, 67, 113
2, 324864, Note_on_c, 0, 76, 91
2, 324864, Note_on_c, 0, 79, 97
2, 324864, Note_on_c, 0, 64, 108
2, 324864, Note_on_c, 0, 70, 87
2, 325024, Note_on_c, 0, 54, 0
2, 325024, Note_on_c, 0, 73, 0
2, 325024, Note_on_c, 0, 61, 0
2, 325024, Note_on_c, 0, 67, 0
2, 325024, Note_on_c, 0, 76, 0
2, 325024, Note_on_c, 0, 79, 0
2, 325024, Note_on_c, 0, 64, 0
2, 325024, Note_on_c, 0, 70, 0
2, 325440, Note_on_c, 0, 54, 108
2, 325440, Note_on_c, 0, 58, 107
2, 325440, Note_on_c, 0, 64, 112
2, 325440, Note_on_c, 0, 70, 107
2, 325440, Note_on_c, 0, 42, 105
2, 325600, Note_on_c, 0, 54, 0
2, 325600, Note_on_c, 0, 58, 0
2, 325600, Note_on_c, 0, 64, 0
2, 325600, Note_on_c, 0, 70, 0
2, 325600, Note_on_c, 0, 42, 0
2, 325824, Control_c, 0, 64, 0
2, 326016, Note_on_c, 0, 35, 111
2, 326016, Control_c, 0, 64, 127
2, 326016, Note_on_c, 0, 47, 108
2, 326176, Note_on_c, 0, 35, 0
2, 326176, Note_on_c, 0, 47, 0
2, 326592, Note_on_c, 0, 38, 79
2, 326592, Note_on_c, 0, 26, 70
2, 326592, Note_on_c, 0, 49, 109
2, 326640, Note_on_c, 0, 38, 0
2, 326640, Note_on_c, 0, 26, 0
2, 326686, Note_on_c, 0, 49, 0
2, 326688, Note_on_c, 0, 50, 70
2, 326782, Note_on_c, 0, 50, 0
2, 326784, Note_on_c, 0, 47, 74
2, 326784, Note_on_c, 0, 62, 73
2, 326784, Note_on_c, 0, 42, 74
2, 326878, Note_on_c, 0, 62, 0
2, 326880, Note_on_c, 0, 54, 73
2, 326944, Note_on_c, 0, 47, 0
2, 326944, Note_on_c, 0, 42, 0
2, 326974, Note_on_c, 0, 54, 0
2, 326976, Note_on_c, 0, 59, 76
2, 327070, Note_on_c, 0, 59, 0
2, 327072, Note_on_c, 0, 50, 70
2, 327166, Note_on_c, 0, 50, 0
2, 327168, Note_on_c, 0, 51, 76
2, 327168, Note_on_c, 0, 37, 78
2, 327168, Note_on_c, 0, 25, 81
2, 327168, Control_c, 0, 64, 0
2, 327168, Control_c, 0, 64, 127
2, 327216, Note_on_c, 0, 37, 0
2, 327216, Note_on_c, 0, 25, 0
2, 327262, Note_on_c, 0, 51, 0
2, 327264, Note_on_c, 0, 52, 80
2, 327358, Note_on_c, 0, 52, 0
2, 327360, Note_on_c, 0, 43, 82
2, 327360, Note_on_c, 0, 64, 74
2, 327360, Note_on_c, 0, 47, 80
2, 327454, Note_on_c, 0, 64, 0
2, 327456, Note_on_c, 0, 55, 72
2, 327520, Note_on_c, 0, 43, 0
2, 327520, Note_on_c, 0, 47, 0
2, 327550, Note_on_c, 0, 55, 0
2, 327552, Note_on_c, 0, 59, 80
2, 327646, Note_on_c, 0, 59, 0
2, 327648, Note_on_c, 0, 52, 80
2, 327696, Control_c, 0, 64, 0
2, 327742, Note_on_c, 0, 52, 0
2, 327744, Note_on_c, 0, 42, 77
2, 327744, Note_on_c, 0, 30, 76
2, 327744, Control_c, 0, 64, 127
2, 327744, Note_on_c, 0, 53, 75
2, 327792, Note_on_c, 0, 42, 0
2, 327792, Note_on_c, 0, 30, 0
2, 327838, Note_on_c, 0, 53, 0
2, 327840, Note_on_c, 0, 54, 72
2, 327934, Note_on_c, 0, 54, 0
2, 327936, Note_on_c, 0, 46, 78
2, 327936, Note_on_c, 0, 66, 70
2, 327936, Note_on_c, 0, 52, 77
2, 328030, Note_on_c, 0, 66, 0
2, 328032, Note_on_c, 0, 58, 71
2, 328096, Note_on_c, 0, 46, 0
2, 328096, Note_on_c, 0, 52, 0
2, 328126, Note_on_c, 0, 58, 0
2, 328128, Note_on_c, 0, 61, 81
2, 328222, Note_on_c, 0, 61, 0
2, 328224, Note_on_c, 0, 54, 82
2, 328272, Control_c, 0, 64, 0
2, 328318, Note_on_c, 0, 54, 0
2, 328320, Note_on_c, 0, 35, 78
2, 328320, Note_on_c, 0, 58, 80
2, 328320, Control_c, 0, 64, 127
2, 328320, Note_on_c, 0, 47, 87
2, 328368, Note_on_c, 0, 35, 0
2, 328368, Note_on_c, 0, 47, 0
2, 328414, Note_on_c, 0, 58, 0
2, 328416, Note_on_c, 0, 59, 82
2, 328510, Note_on_c, 0, 59, 0
2, 328512, Note_on_c, 0, 50, 80
2, 328512, Note_on_c, 0, 54, 81
2, 328512, Note_on_c, 0, 71, 76
2, 328606, Note_on_c, 0, 71, 0
2, 328608, Note_on_c, 0, 62, 80
2, 328702, Note_on_c, 0, 62, 0
2, 328704, Note_on_c, 0, 66, 83
2, 328798, Note_on_c, 0, 66, 0
2, 328800, Note_on_c, 0, 59, 83
2, 328848, Note_on_c, 0, 50, 0
2, 328848, Note_on_c, 0, 54, 0
2, 328848, Control_c, 0, 64, 0
2, 328894, Note_on_c, 0, 59, 0
2, 328896, Control_c, 0, 64, 127
2, 328896, Note_on_c, 0, 38, 90
2, 328896, Note_on_c, 0, 61, 80
2, 328896, Note_on_c, 0, 50, 85
2, 328944, Note_on_c, 0, 38, 0
2, 328944, Note_on_c, 0, 50, 0
2, 328990, Note_on_c, 0, 61, 0
2, 328992, Note_on_c, 0, 62, 90
2, 329086, Note_on_c, 0, 62, 0
2, 329088, Note_on_c, 0, 59, 93
2, 329088, Note_on_c, 0, 74, 87
2, 329088, Note_on_c, 0, 54, 88
2, 329182, Note_on_c, 0, 74, 0
2, 329184, Note_on_c, 0, 66, 89
2, 329278, Note_on_c, 0, 66, 0
2, 329280, Note_on_c, 0, 71, 89
2, 329374, Note_on_c, 0, 71, 0
2, 329376, Note_on_c, 0, 62, 93
2, 329424, Note_on_c, 0, 59, 0
2, 329424, Note_on_c, 0, 54, 0
2, 329424, Control_c, 0, 64, 0
2, 329470, Note_on_c, 0, 62, 0
2, 329472, Note_on_c, 0, 49, 92
2, 329472, Note_on_c, 0, 37, 87
2, 329472, Control_c, 0, 64, 127
2, 329472, Note_on_c, 0, 63, 92
2, 329520, Note_on_c, 0, 49, 0
2, 329520, Note_on_c, 0, 37, 0
2, 329566, Note_on_c, 0, 63, 0
2, 329568, Note_on_c, 0, 64, 91
2, 329662, Note_on_c, 0, 64, 0
2, 329664, Note_on_c, 0, 55, 97
2, 329664, Note_on_c, 0, 76, 91
2, 329664, Note_on_c, 0, 59, 94
2, 329758, Note_on_c, 0, 76, 0
2, 329760, Note_on_c, 0, 67, 89
2, 329854, Note_on_c, 0, 67, 0
2, 329856, Note_on_c, 0, 71, 94
2, 329950, Note_on_c, 0, 71, 0
2, 329952, Note_on_c, 0, 64, 94
2, 330000, Note_on_c, 0, 55, 0
2, 330000, Note_on_c, 0, 59, 0
2, 330000, Control_c, 0, 64, 0
2, 330046, Note_on_c, 0, 64, 0
2, 330048, Note_on_c, 0, 42, 101
2, 330048, Note_on_c, 0, 54, 95
2, 330048, Control_c, 0, 64, 127
2, 330048, Note_on_c, 0, 65, 97
2, 330096, Note_on_c, 0, 42, 0
2, 330096, Note_on_c, 0, 54, 0
2, 330142, Note_on_c, 0, 65, 0
2, 330144, Note_on_c, 0, 66, 102
2, 330238, Note_on_c, 0, 66, 0
2, 330240, Note_on_c, 0, 64, 100
2, 330240, Note_on_c, 0, 58, 100
2, 330240, Note_on_c, 0, 78, 94
2, 330334, Note_on_c, 0, 78, 0
2, 330336, Note_on_c, 0, 70, 104
2, 330430, Note_on_c, 0, 70, 0
2, 330432, Note_on_c, 0, 73, 103
2, 330526, Note_on_c, 0, 73, 0
2, 330528, Note_on_c, 0, 66, 105
2, 330576, Note_on_c, 0, 64, 0
2, 330576, Note_on_c, 0, 58, 0
2, 330576, Control_c, 0, 64, 0
2, 330622, Note_on_c, 0, 66, 0
2, 330624, Note_on_c, 0, 59, 102
2, 330624, Note_on_c, 0, 47, 103
2, 330624, Note_on_c, 0, 70, 105
2, 330624, Control_c, 0, 64, 127
2, 330672, Note_on_c, 0, 59, 0
2, 330672, Note_on_c, 0, 47, 0
2, 330718, Note_on_c, 0, 70, 0
2, 330720, Note_on_c, 0, 71, 101
2, 330814, Note_on_c, 0, 71, 0
2, 330816, Note_on_c, 0, 66, 105
2, 330816, Note_on_c, 0, 62, 108
2, 330816, Note_on_c, 0, 83, 99
2, 330910, Note_on_c, 0, 83, 0
2, 330912, Note_on_c, 0, 74, 106
2, 331006, Note_on_c, 0, 74, 0
2, 331008, Note_on_c, 0, 78, 105
2, 331102, Note_on_c, 0, 78, 0
2, 331104, Note_on_c, 0, 71, 108
2, 331152, Note_on_c, 0, 66, 0
2, 331152, Note_on_c, 0, 62, 0
2, 331152, Control_c, 0, 64, 0
2, 331198, Note_on_c, 0, 71, 0
2, 331200, Control_c, 0, 64, 127
2, 331200, Note_on_c, 0, 62, 106
2, 331200, Note_on_c, 0, 50, 106
2, 331200, Note_on_c, 0, 73, 109
2, 331248, Note_on_c, 0, 62, 0
2, 331248, Note_on_c, 0, 50, 0
2, 331294, Note_on_c, 0, 73, 0
2, 331296, Note_on_c, 0, 74, 107
2, 331390, Note_on_c, 0, 74, 0
2, 331392, Note_on_c, 0, 71, 109
2, 331392, Note_on_c, 0, 66, 111
2, 331392, Note_on_c, 0, 86, 106
2, 331486, Note_on_c, 0, 86, 0
2, 331488, Note_on_c, 0, 78, 111
2, 331582, Note_on_c, 0, 78, 0
2, 331584, Note_on_c, 0, 83, 113
2, 331678, Note_on_c, 0, 83, 0
2, 331680, Note_on_c, 0, 74, 108
2, 331728, Note_on_c, 0, 71, 0
2, 331728, Note_on_c, 0, 66, 0
2, 331728, Control_c, 0, 64, 0
2, 331774, Note_on_c, 0, 74, 0
2, 331776, Control_c, 0, 64, 127
2, 331776, Note_on_c, 0, 75, 109
2, 331776, Note_on_c, 0, 61, 113
2, 331776, Note_on_c, 0, 49, 119
2, 331824, Note_on_c, 0, 61, 0
2, 331824, Note_on_c, 0, 49, 0
2, 331870, Note_on_c, 0, 75, 0
2, 331872, Note_on_c, 0, 76, 112
2, 331966, Note_on_c, 0, 76, 0
2, 331968, Note_on_c, 0, 67, 119
2, 331968, Note_on_c, 0, 71, 120
2, 331968, Note_on_c, 0, 88, 121
2, 332062, Note_on_c, 0, 88, 0
2, 332064, Note_on_c, 0, 79, 118
2, 332158, Note_on_c, 0, 79, 0
2, 332160, Note_on_c, 0, 83, 115
2, 332254, Note_on_c, 0, 83, 0
2, 332256, Note_on_c, 0, 76, 116
2, 332304, Note_on_c, 0, 67, 0
2, 332304, Note_on_c, 0, 71, 0
2, 332304, Control_c, 0, 64, 0
2, 332350, Note_on_c, 0, 76, 0
2, 332352, Note_on_c, 0, 54, 123
2, 332352, Note_on_c, 0, 77, 121
2, 332352, Control_c, 0, 64, 127
2, 332352, Note_on_c, 0, 66, 118
2, 332400, Note_on_c, 0, 54, 0
2, 332400, Note_on_c, 0, 66, 0
2, 332446, Note_on_c, 0, 77, 0
2, 332448, Note_on_c, 0, 78, 116
2, 332542, Note_on_c, 0, 78, 0
2, 332544, Note_on_c, 0, 70, 121
2, 332544, Note_on_c, 0, 76, 118
2, 332544, Note_on_c, 0, 90, 123
2, 332638, Note_on_c, 0, 90, 0
2, 332640, Note_on_c, 0, 82, 127
2, 332734, Note_on_c, 0, 82, 0
2, 332736, Note_on_c, 0, 85, 127
2, 332830, Note_on_c, 0, 85, 0
2, 332832, Note_on_c, 0, 78, 127
2, 332880, Note_on_c, 0, 70, 0
2, 332880, Note_on_c, 0, 76, 0
2, 332880, Control_c, 0, 64, 0
2, 332926, Note_on_c, 0, 78, 0
2, 332928, Note_on_c, 0, 67, 127
2, 332928, Note_on_c, 0, 76, 124
2, 332928, Note_on_c, 0, 73, 126
2, 332928, Note_on_c, 0, 82, 127
2, 332928, Note_on_c, 0, 79, 123
2, 332928, Note_on_c, 0, 71, 127
2, 332928, Control_c, 0, 64, 127
2, 333022, Note_on_c, 0, 82, 0
2, 333024, Note_on_c, 0, 83, 125
2, 333118, Note_on_c, 0, 83, 0
2, 333120, Note_on_c, 0, 95, 127
2, 333214, Note_on_c, 0, 95, 0
2, 333216, Note_on_c, 0, 86, 127
2, 333310, Note_on_c, 0, 86, 0
2, 333312, Note_on_c, 0, 90, 124
2, 333406, Note_on_c, 0, 90, 0
2, 333408, Note_on_c, 0, 83, 127
2, 333456, Note_on_c, 0, 67, 0
2, 333456, Note_on_c, 0, 76, 0
2, 333456, Note_on_c, 0, 73, 0
2, 333456, Note_on_c, 0, 79, 0
2, 333456, Note_on_c, 0, 71, 0
2, 333456, Control_c, 0, 64, 0
2, 333502, Note_on_c, 0, 83, 0
2, 333504, Note_on_c, 0, 82, 124
2, 333504, Note_on_c, 0, 73, 127
2, 333504, Note_on_c, 0, 76, 127
2, 333504, Note_on_c, 0, 67, 127
2, 333504, Note_on_c, 0, 79, 125
2, 333504, Note_on_c, 0, 71, 126
2, 333504, Control_c, 0, 64, 127
2, 333598, Note_on_c, 0, 82, 0
2, 333600, Note_on_c, 0, 83, 123
2, 333694, Note_on_c, 0, 83, 0
2, 333696, Note_on_c, 0, 95, 125
2, 333790, Note_on_c, 0, 95, 0
2, 333792, Note_on_c, 0, 86, 127
2, 333886, Note_on_c, 0, 86, 0
2, 333888, Note_on_c, 0, 90, 127
2, 333982, Note_on_c, 0, 90, 0
2, 333984, Note_on_c, 0, 83, 123
2, 334032, Note_on_c, 0, 73, 0
2, 334032, Note_on_c, 0, 76, 0
2, 334032, Note_on_c, 0, 67, 0
2, 334032, Note_on_c, 0, 79, 0
2, 334032, Note_on_c, 0, 71, 0
2, 334032, Control_c, 0, 64, 0
2, 334078, Note_on_c, 0, 83, 0
2, 334080, Note_on_c, 0, 73, 127
2, 334080, Note_on_c, 0, 76, 126
2, 334080, Note_on_c, 0, 79, 122
2, 334080, Note_on_c, 0, 67, 127
2, 334080, Note_on_c, 0, 82, 122
2, 334080, Control_c, 0, 64, 127
2, 334080, Note_on_c, 0, 71, 127
2, 334174, Note_on_c, 0, 82, 0
2, 334176, Note_on_c, 0, 83, 124
2, 334270, Note_on_c, 0, 83, 0
2, 334272, Note_on_c, 0, 95, 123
2, 334366, Note_on_c, 0, 95, 0
2, 334368, Note_on_c, 0, 86, 127
2, 334462, Note_on_c, 0, 86, 0
2, 334464, Note_on_c, 0, 90, 124
2, 334558, Note_on_c, 0, 90, 0
2, 334560, Note_on_c, 0, 83, 127
2, 334608, Note_on_c, 0, 73, 0
2, 334608, Note_on_c, 0, 76, 0
2, 334608, Note_on_c, 0, 79, 0
2, 334608, Note_on_c, 0, 67, 0
2, 334608, Note_on_c, 0, 71, 0
2, 334608, Control_c, 0, 64, 0
2, 334654, Note_on_c, 0, 83, 0
2, 334656, Note_on_c, 0, 67, 123
2, 334656, Note_on_c, 0, 73, 127
2, 334656, Note_on_c, 0, 76, 127
2, 334656, Note_on_c, 0, 79, 127
2, 334656, Control_c, 0, 64, 127
2, 334656, Note_on_c, 0, 82, 127
2, 334656, Note_on_c, 0, 71, 124
2, 334750, Note_on_c, 0, 82, 0
2, 334752, Note_on_c, 0, 83, 126
2, 334846, Note_on_c, 0, 83, 0
2, 334848, Note_on_c, 0, 95, 126
2, 334942, Note_on_c, 0, 95, 0
2, 334944, Note_on_c, 0, 86, 126
2, 335038, Note_on_c, 0, 86, 0
2, 335040, Note_on_c, 0, 90, 127
2, 335134, Note_on_c, 0, 90, 0
2, 335136, Note_on_c, 0, 83, 122
2, 335184, Note_on_c, 0, 67, 0
2, 335184, Note_on_c, 0, 73, 0
2, 335184, Note_on_c, 0, 76, 0
2, 335184, Note_on_c, 0, 79, 0
2, 335184, Note_on_c, 0, 71, 0
2, 335184, Control_c, 0, 64, 0
2, 335230, Note_on_c, 0, 83, 0
2, 335232, Note_on_c, 0, 77, 127
2, 335232, Note_on_c, 0, 71, 127
2, 335232, Note_on_c, 0, 73, 124
2, 335232, Control_c, 0, 64, 127
2, 335232, Note_on_c, 0, 82, 127
2, 335232, Note_on_c, 0, 80, 124
2, 335232, Note_on_c, 0, 68, 122
2, 335326, Note_on_c, 0, 82, 0
2, 335328, Note_on_c, 0, 83, 124
2, 335392, Note_on_c, 0, 77, 0
2, 335392, Note_on_c, 0, 71, 0
2, 335392, Note_on_c, 0, 73, 0
2, 335392, Note_on_c, 0, 80, 0
2, 335392, Note_on_c, 0, 68, 0
2, 335422, Note_on_c, 0, 83, 0
2, 335424, Note_on_c, 0, 95, 127
2, 335518, Note_on_c, 0, 95, 0
2, 335520, Note_on_c, 0, 92, 127
2, 335614, Note_on_c, 0, 92, 0
2, 335616, Note_on_c, 0, 89, 123
2, 335710, Note_on_c, 0, 89, 0
2, 335712, Note_on_c, 0, 85, 124
2, 335760, Control_c, 0, 64, 0
2, 335806, Note_on_c, 0, 85, 0
2, 335808, Note_on_c, 0, 61, 125
2, 335808, Note_on_c, 0, 73, 126
2, 335808, Control_c, 0, 64, 127
2, 335808, Note_on_c, 0, 83, 123
2, 335902, Note_on_c, 0, 83, 0
2, 335904, Note_on_c, 0, 80, 127
2, 335968, Note_on_c, 0, 61, 0
2, 335968, Note_on_c, 0, 73, 0
2, 335998, Note_on_c, 0, 80, 0
2, 336000, Note_on_c, 0, 77, 122
2, 336094, Note_on_c, 0, 77, 0
2, 336096, Note_on_c, 0, 73, 125
2, 336190, Note_on_c, 0, 73, 0
2, 336192, Note_on_c, 0, 83, 127
2, 336286, Note_on_c, 0, 83, 0
2, 336288, Note_on_c, 0, 80, 122
2, 336336, Control_c, 0, 64, 0
2, 336382, Note_on_c, 0, 80, 0
2, 336384, Note_on_c, 0, 77, 122
2, 336384, Note_on_c, 0, 61, 127
2, 336384, Note_on_c, 0, 49, 127
2, 336384, Control_c, 0, 64, 127
2, 336478, Note_on_c, 0, 77, 0
2, 336480, Note_on_c, 0, 73, 127
2, 336544, Note_on_c, 0, 61, 0
2, 336544, Note_on_c, 0, 49, 0
2, 336574, Note_on_c, 0, 73, 0
2, 336576, Note_on_c, 0, 71, 127
2, 336670, Note_on_c, 0, 71, 0
2, 336672, Note_on_c, 0, 68, 127
2, 336766, Note_on_c, 0, 68, 0
2, 336768, Note_on_c, 0, 66, 127
2, 336862, Note_on_c, 0, 66, 0
2, 336864, Note_on_c, 0, 61, 127
2, 336912, Control_c, 0, 64, 0
2, 336958, Note_on_c, 0, 61, 0
2, 336960, Note_on_c, 0, 37, 126
2, 336960, Note_on_c, 0, 49, 127
2, 336960, Control_c, 0, 64, 127
2, 336960, Note_on_c, 0, 59, 123
2, 337054, Note_on_c, 0, 59, 0
2, 337056, Note_on_c, 0, 56, 127
2, 337120, Note_on_c, 0, 37, 0
2, 337120, Note_on_c, 0, 49, 0
2, 337150, Note_on_c, 0, 56, 0
2, 337152, Note_on_c, 0, 53, 127
2, 337246, Note_on_c, 0, 53, 0
2, 337248, Note_on_c, 0, 49, 123
2, 337342, Note_on_c, 0, 49, 0
2, 337344, Note_on_c, 0, 47, 127
2, 337438, Note_on_c, 0, 47, 0
2, 337440, Note_on_c, 0, 44, 126
2, 337488, Control_c, 0, 64, 0
2, 337534, Note_on_c, 0, 44, 0
2, 337536, Control_c, 0, 64, 127
2, 337536, Note_on_c, 0, 36, 123
2, 337536, Note_on_c, 0, 48, 126
2, 337630, Note_on_c, 0, 36, 0
2, 337630, Note_on_c, 0, 48, 0
2, 337632, Note_on_c, 0, 49, 127
2, 337632, Note_on_c, 0, 37, 127
2, 337726, Note_on_c, 0, 49, 0
2, 337726, Note_on_c, 0, 37, 0
2, 337728, Note_on_c, 0, 48, 127
2, 337822, Note_on_c, 0, 48, 0
2, 337824, Note_on_c, 0, 49, 127
2, 337918, Note_on_c, 0, 49, 0
2, 337920, Note_on_c, 0, 48, 127
2, 338014, Note_on_c, 0, 48, 0
2, 338016, Note_on_c, 0, 49, 123
2, 338064, Control_c, 0, 64, 0
2, 338110, Note_on_c, 0, 49, 0
2, 338112, Note_on_c, 0, 50, 127
2, 338112, Control_c, 0, 64, 127
2, 338112, Note_on_c, 0, 38, 127
2, 338206, Note_on_c, 0, 50, 0
2, 338206, Note_on_c, 0, 38, 0
2, 338208, Note_on_c, 0, 49, 123
2, 338208, Note_on_c, 0, 37, 127
2, 338302, Note_on_c, 0, 49, 0
2, 338302, Note_on_c, 0, 37, 0
2, 338304, Note_on_c, 0, 50, 123
2, 338398, Note_on_c, 0, 50, 0
2, 338400, Note_on_c, 0, 49, 127
2, 338494, Note_on_c, 0, 49, 0
2, 338496, Note_on_c, 0, 50, 126
2, 338590, Note_on_c, 0, 50, 0
2, 338592, Note_on_c, 0, 49, 127
2, 338640, Control_c, 0, 64, 0
2, 338686, Note_on_c, 0, 49, 0
2, 338688, Note_on_c, 0, 36, 125
2, 338688, Note_on_c, 0, 48, 127
2, 338688, Control_c, 0, 64, 127
2, 338782, Note_on_c, 0, 36, 0
2, 338782, Note_on_c, 0, 48, 0
2, 338784, Note_on_c, 0, 37, 127
2, 338784, Note_on_c, 0, 49, 127
2, 338878, Note_on_c, 0, 37, 0
2, 338878, Note_on_c, 0, 49, 0
2, 338880, Note_on_c, 0, 48, 123
2, 338974, Note_on_c, 0, 48, 0
2, 338976, Note_on_c, 0, 49, 127
2, 339070, Note_on_c, 0, 49, 0
2, 339072, Note_on_c, 0, 48, 122
2, 339166, Note_on_c, 0, 48, 0
2, 339168, Note_on_c, 0, 49, 127
2, 339216, Control_c, 0, 64, 0
2, 339262, Note_on_c, 0, 49, 0
2, 339264, Control_c, 0, 64, 127
2, 339264, Note_on_c, 0, 50, 124
2, 339264, Note_on_c, 0, 38, 125
2, 339358, Note_on_c, 0, 50, 0
2, 339358, Note_on_c, 0, 38, 0
2, 339360, Note_on_c, 0, 49, 127
2, 339360, Note_on_c, 0, 37, 127
2, 339454, Note_on_c, 0, 49, 0
2, 339454, Note_on_c, 0, 37, 0
2, 339456, Note_on_c, 0, 50, 127
2, 339550, Note_on_c, 0, 50, 0
2, 339552, Note_on_c, 0, 49, 127
2, 339646, Note_on_c, 0, 49, 0
2, 339648, Note_on_c, 0, 50, 127
2, 339742, Note_on_c, 0, 50, 0
2, 339744, Note_on_c, 0, 49, 127
2, 339792, Control_c, 0, 64, 0
2, 339838, Note_on_c, 0, 49, 0
2, 339840, Note_on_c, 0, 30, 124
2, 339840, Note_on_c, 0, 42, 127
2, 339840, Control_c, 0, 64, 127
2, 340000, Note_on_c, 0, 30, 0
2, 340000, Note_on_c, 0, 42, 0
2, 340368, Control_c, 0, 64, 0
2, 340416, Note_on_c, 0, 62, 127
2, 340416, Note_on_c, 0, 86, 127
2, 340416, Note_on_c, 0, 67, 127
2, 340416, Note_on_c, 0, 65, 126
2, 340416, Note_on_c, 0, 77, 124
2, 340416, Note_on_c, 0, 59, 122
2, 340416, Note_on_c, 0, 91, 127
2, 340416, Note_on_c, 0, 54, 125
2, 340416, Note_on_c, 0, 83, 127
2, 340416, Note_on_c, 0, 79, 124
2, 341184, Note_on_c, 0, 62, 0
2, 341184, Note_on_c, 0, 86, 0
2, 341184, Note_on_c, 0, 67, 0
2, 341184, Note_on_c, 0, 65, 0
2, 341184, Note_on_c, 0, 77, 0
2, 341184, Note_on_c, 0, 59, 0
2, 341184, Note_on_c, 0, 91, 0
2, 341184, Note_on_c, 0, 54, 0
2, 341184, Note_on_c, 0, 83, 0
2, 341184, Note_on_c, 0, 79, 0
2, 341184, Note_on_c, 0, 83, 127
2, 341184, Note_on_c, 0, 59, 127
2, 341184, Note_on_c, 0, 62, 127
2, 341184, Note_on_c, 0, 77, 126
2, 341184, Note_on_c, 0, 91, 127
2, 341184, Note_on_c, 0, 79, 127
2, 341184, Note_on_c, 0, 65, 127
2, 341184, Note_on_c, 0, 54, 123
2, 341184, Note_on_c, 0, 86, 127
2, 341184, Note_on_c, 0, 67, 127
2, 341376, Note_on_c, 0, 83, 0
2, 341376, Note_on_c, 0, 59, 0
2, 341376, Note_on_c, 0, 62, 0
2, 341376, Note_on_c, 0, 77, 0
2, 341376, Note_on_c, 0, 91, 0
2, 341376, Note_on_c, 0, 79, 0
2, 341376, Note_on_c, 0, 65, 0
2, 341376, Note_on_c, 0, 54, 0
2, 341376, Note_on_c, 0, 86, 0
2, 341376, Note_on_c, 0, 67, 0
2, 341376, Note_on_c, 0, 54, 123
2, 341376, Note_on_c, 0, 67, 125
2, 341376, Note_on_c, 0, 62, 123
2, 341376, Note_on_c, 0, 59, 123
2, 341376, Note_on_c, 0, 91, 127
2, 341376, Note_on_c, 0, 86, 125
2, 341376, Note_on_c, 0, 83, 125
2, 341376, Note_on_c, 0, 77, 127
2, 341376, Note_on_c, 0, 65, 127
2, 341376, Note_on_c, 0, 79, 126
2, 341568, Note_on_c, 0, 54, 0
2, 341568, Note_on_c, 0, 67, 0
2, 341568, Note_on_c, 0, 62, 0
2, 341568, Note_on_c, 0, 59, 0
2, 341568, Note_on_c, 0, 91, 0
2, 341568, Note_on_c, 0, 86, 0
2, 341568, Note_on_c, 0, 83, 0
2, 341568, Note_on_c, 0, 77, 0
2, 341568, Note_on_c, 0, 65, 0
2, 341568, Note_on_c, 0, 79, 0
2, 341568, Note_on_c, 0, 77, 127
2, 341568, Note_on_c, 0, 65, 124
2, 341568, Note_on_c, 0, 79, 127
2, 341568, Note_on_c, 0, 62, 122
2, 341568, Note_on_c, 0, 59, 127
2, 341568, Note_on_c, 0, 67, 125
2, 341568, Note_on_c, 0, 86, 126
2, 341568, Note_on_c, 0, 54, 127
2, 341568, Note_on_c, 0, 83, 127
2, 341568, Note_on_c, 0, 91, 122
2, 341760, Note_on_c, 0, 77, 0
2, 341760, Note_on_c, 0, 65, 0
2, 341760, Note_on_c, 0, 79, 0
2, 341760, Note_on_c, 0, 62, 0
2, 341760, Note_on_c, 0, 59, 0
2, 341760, Note_on_c, 0, 67, 0
2, 341760, Note_on_c, 0, 86, 0
2, 341760, Note_on_c, 0, 54, 0
2, 341760, Note_on_c, 0, 83, 0
2, 341760, Note_on_c, 0, 91, 0
2, 341760, Note_on_c, 0, 86, 127
2, 341760, Note_on_c, 0, 67, 122
2, 341760, Note_on_c, 0, 77, 127
2, 341760, Note_on_c, 0, 59, 126
2, 341760, Note_on_c, 0, 54, 124
2, 341760, Note_on_c, 0, 62, 126
2, 341760, Note_on_c, 0, 65, 127
2, 341760, Note_on_c, 0, 79, 124
2, 341760, Note_on_c, 0, 91, 127
2, 341760, Note_on_c, 0, 83, 127
2, 341952, Note_on_c, 0, 86, 0
2, 341952, Note_on_c, 0, 67, 0
2, 341952, Note_on_c, 0, 77, 0
2, 341952, Note_on_c, 0, 59, 0
2, 341952, Note_on_c, 0, 54, 0
2, 341952, Note_on_c, 0, 62, 0
2, 341952, Note_on_c, 0, 65, 0
2, 341952, Note_on_c, 0, 79, 0
2, 341952, Note_on_c, 0, 91, 0
2, 341952, Note_on_c, 0, 83, 0
2, 341952, Note_on_c, 0, 83, 122
2, 341952, Note_on_c, 0, 91, 124
2, 341952, Note_on_c, 0, 59, 127
2, 341952, Note_on_c, 0, 62, 125
2, 341952, Note_on_c, 0, 65, 127
2, 341952, Note_on_c, 0, 77, 127
2, 341952, Note_on_c, 0, 86, 127
2, 341952, Note_on_c, 0, 54, 127
2, 341952, Note_on_c, 0, 79, 126
2, 341952, Note_on_c, 0, 67, 126
2, 342144, Note_on_c, 0, 83, 0
2, 342144, Note_on_c, 0, 91, 0
2, 342144, Note_on_c, 0, 59, 0
2, 342144, Note_on_c, 0, 62, 0
2, 342144, Note_on_c, 0, 65, 0
2, 342144, Note_on_c, 0, 77, 0
2, 342144, Note_on_c, 0, 86, 0
2, 342144, Note_on_c, 0, 54, 0
2, 342144, Note_on_c, 0, 79, 0
2, 342144, Note_on_c, 0, 67, 0
2, 342144, Note_on_c, 0, 54, 127
2, 342144, Note_on_c, 0, 86, 122
2, 342144, Note_on_c, 0, 91, 123
2, 342144, Note_on_c, 0, 65, 124
2, 342144, Note_on_c, 0, 67, 127
2, 342144, Note_on_c, 0, 79, 127
2, 342144, Note_on_c, 0, 83, 123
2, 342144, Note_on_c, 0, 59, 127
2, 342144, Note_on_c, 0, 77, 125
2, 342144, Note_on_c, 0, 62, 127
2, 342720, Note_on_c, 0, 54, 0
2, 342720, Note_on_c, 0, 86, 0
2, 342720, Note_on_c, 0, 91, 0
2, 342720, Note_on_c, 0, 65, 0
2, 342720, Note_on_c, 0, 67, 0
2, 342720, Note_on_c, 0, 79, 0
2, 342720, Note_on_c, 0, 83, 0
2, 342720, Note_on_c, 0, 59, 0
2, 342720, Note_on_c, 0, 77, 0
2, 342720, Note_on_c, 0, 62, 0
2, 342720, Note_on_c, 0, 54, 126
2, 342720, Note_on_c, 0, 86, 127
2, 342720, Note_on_c, 0, 91, 124
2, 342720, Note_on_c, 0, 65, 127
2, 342720, Note_on_c, 0, 77, 127
2, 342720, Note_on_c, 0, 79, 124
2, 342720, Note_on_c, 0, 83, 126
2, 342720, Note_on_c, 0, 67, 127
2, 342720, Note_on_c, 0, 59, 122
2, 342720, Note_on_c, 0, 62, 127
2, 343296, Note_on_c, 0, 54, 0
2, 343296, Note_on_c, 0, 86, 0
2, 343296, Note_on_c, 0, 91, 0
2, 343296, Note_on_c, 0, 65, 0
2, 343296, Note_on_c, 0, 77, 0
2, 343296, Note_on_c, 0, 79, 0
2, 343296, Note_on_c, 0, 83, 0
2, 343296, Note_on_c, 0, 67, 0
2, 343296, Note_on_c, 0, 59, 0
2, 343296, Note_on_c, 0, 62, 0
2, 343296, Note_on_c, 0, 77, 127
2, 343296, Note_on_c, 0, 86, 127
2, 343296, Note_on_c, 0, 79, 123
2, 343296, Note_on_c, 0, 91, 127
2, 343296, Note_on_c, 0, 59, 127
2, 343296, Note_on_c, 0, 62, 126
2, 343296, Note_on_c, 0, 65, 127
2, 343296, Note_on_c, 0, 67, 127
2, 343296, Note_on_c, 0, 54, 124
2, 343296, Note_on_c, 0, 83, 123
2, 343872, Note_on_c, 0, 77, 0
2, 343872, Note_on_c, 0, 86, 0
2, 343872, Note_on_c, 0, 79, 0
2, 343872, Note_on_c, 0, 91, 0
2, 343872, Note_on_c, 0, 59, 0
2, 343872, Note_on_c, 0, 62, 0
2, 343872, Note_on_c, 0, 65, 0
2, 343872, Note_on_c, 0, 67, 0
2, 343872, Note_on_c, 0, 54, 0
2, 343872, Note_on_c, 0, 83, 0
2, 343872, Note_on_c, 0, 94, 126
2, 343872, Note_on_c, 0, 58, 125
2, 343872, Note_on_c, 0, 85, 124
2, 343872, Note_on_c, 0, 66, 127
2, 343872, Note_on_c, 0, 64, 127
2, 343872, Note_on_c, 0, 82, 127
2, 343872, Note_on_c, 0, 90, 127
2, 343872, Note_on_c, 0, 61, 125
2, 343872, Note_on_c, 0, 54, 127
2, 343872, Note_on_c, 0, 88, 125
2, 344256, Note_on_c, 0, 94, 0
2, 344256, Note_on_c, 0, 58, 0
2, 344256, Note_on_c, 0, 85, 0
2, 344256, Note_on_c, 0, 66, 0
2, 344256, Note_on_c, 0, 64, 0
2, 344256, Note_on_c, 0, 82, 0
2, 344256, Note_on_c, 0, 90, 0
2, 344256, Note_on_c, 0, 61, 0
2, 344256, Note_on_c, 0, 54, 0
2, 344256, Note_on_c, 0, 88, 0
2, 344448, Control_c, 0, 64, 127
2, 344448, Note_on_c, 0, 23, 122
2, 344448, Note_on_c, 0, 83, 127
2, 344448, Note_on_c, 0, 86, 127
2, 344448, Note_on_c, 0, 95, 127
2, 344496, Note_on_c, 0, 83, 0
2, 344496, Note_on_c, 0, 86, 0
2, 344496, Note_on_c, 0, 95, 0
2, 344608, Note_on_c, 0, 23, 0
2, 344640, Note_on_c, 0, 95, 127
2, 344640, Note_on_c, 0, 98, 125
2, 344734, Note_on_c, 0, 95, 0
2, 344734, Note_on_c, 0, 98, 0
2, 344736, Note_on_c, 0, 90, 127
2, 344830, Note_on_c, 0, 90, 0
2, 344832, Note_on_c, 0, 98, 127
2, 344832, Note_on_c, 0, 95, 126
2, 344926, Note_on_c, 0, 98, 0
2, 344926, Note_on_c, 0, 95, 0
2, 344928, Note_on_c, 0, 85, 124
2, 345022, Note_on_c, 0, 85, 0
2, 345024, Note_on_c, 0, 42, 126
2, 345024, Note_on_c, 0, 50, 127
2, 345024, Note_on_c, 0, 90, 127
2, 345024, Note_on_c, 0, 95, 124
2, 345072, Note_on_c, 0, 42, 0
2, 345072, Note_on_c, 0, 50, 0
2, 345118, Note_on_c, 0, 90, 0
2, 345118, Note_on_c, 0, 95, 0
2, 345120, Note_on_c, 0, 86, 127
2, 345214, Note_on_c, 0, 86, 0
2, 345216, Note_on_c, 0, 95, 127
2, 345216, Note_on_c, 0, 35, 122
2, 345216, Note_on_c, 0, 90, 127
2, 345264, Note_on_c, 0, 35, 0
2, 345310, Note_on_c, 0, 95, 0
2, 345310, Note_on_c, 0, 90, 0
2, 345312, Note_on_c, 0, 82, 127
2, 345406, Note_on_c, 0, 82, 0
2, 345408, Note_on_c, 0, 42, 127
2, 345408, Note_on_c, 0, 86, 127
2, 345408, Note_on_c, 0, 50, 124
2, 345408, Note_on_c, 0, 90, 126
2, 345456, Note_on_c, 0, 42, 0
2, 345456, Note_on_c, 0, 50, 0
2, 345502, Note_on_c, 0, 86, 0
2, 345502, Note_on_c, 0, 90, 0
2, 345504, Note_on_c, 0, 83, 122
2, 345598, Note_on_c, 0, 83, 0
2, 345600, Control_c, 0, 64, 0
2, 345600, Note_on_c, 0, 86, 127
2, 345600, Note_on_c, 0, 35, 127
2, 345600, Note_on_c, 0, 90, 123
2, 345648, Note_on_c, 0, 35, 0
2, 345694, Note_on_c, 0, 86, 0
2, 345694, Note_on_c, 0, 90, 0
2, 345696, Note_on_c, 0, 77, 127
2, 345790, Note_on_c, 0, 77, 0
2, 345792, Note_on_c, 0, 83, 121
2, 345792, Note_on_c, 0, 50, 121
2, 345792, Note_on_c, 0, 86, 127
2, 345792, Note_on_c, 0, 42, 121
2, 345840, Note_on_c, 0, 50, 0
2, 345840, Note_on_c, 0, 42, 0
2, 345886, Note_on_c, 0, 83, 0
2, 345886, Note_on_c, 0, 86, 0
2, 345888, Note_on_c, 0, 78, 127
2, 345982, Note_on_c, 0, 78, 0
2, 345984, Note_on_c, 0, 86, 127
2, 345984, Note_on_c, 0, 83, 119
2, 345984, Note_on_c, 0, 35, 121
2, 346032, Note_on_c, 0, 35, 0
2, 346078, Note_on_c, 0, 86, 0
2, 346078, Note_on_c, 0, 83, 0
2, 346080, Note_on_c, 0, 73, 127
2, 346174, Note_on_c, 0, 73, 0
2, 346176, Note_on_c, 0, 50, 118
2, 346176, Note_on_c, 0, 78, 122
2, 346176, Note_on_c, 0, 42, 127
2, 346176, Note_on_c, 0, 83, 126
2, 346224, Note_on_c, 0, 50, 0
2, 346224, Note_on_c, 0, 42, 0
2, 346270, Note_on_c, 0, 78, 0
2, 346270, Note_on_c, 0, 83, 0
2, 346272, Note_on_c, 0, 74, 118
2, 346366, Note_on_c, 0, 74, 0
2, 346368, Note_on_c, 0, 35, 122
2, 346368, Note_on_c, 0, 83, 123
2, 346368, Note_on_c, 0, 78, 126
2, 346416, Note_on_c, 0, 35, 0
2, 346462, Note_on_c, 0, 83, 0
2, 346462, Note_on_c, 0, 78, 0
2, 346464, Note_on_c, 0, 70, 121
2, 346558, Note_on_c, 0, 70, 0
2, 346560, Note_on_c, 0, 78, 123
2, 346560, Note_on_c, 0, 74, 121
2, 346560, Note_on_c, 0, 42, 122
2, 346560, Note_on_c, 0, 50, 122
2, 346608, Note_on_c, 0, 42, 0
2, 346608, Note_on_c, 0, 50, 0
2, 346654, Note_on_c, 0, 78, 0
2, 346654, Note_on_c, 0, 74, 0
2, 346656, Note_on_c, 0, 71, 121
2, 346750, Note_on_c, 0, 71, 0
2, 346752, Note_on_c, 0, 74, 119
2, 346752, Note_on_c, 0, 35, 121
2, 346752, Note_on_c, 0, 78, 117
2, 346800, Note_on_c, 0, 35, 0
2, 346846, Note_on_c, 0, 74, 0
2, 346846, Note_on_c, 0, 78, 0
2, 346848, Note_on_c, 0, 65, 118
2, 346942, Note_on_c, 0, 65, 0
2, 346944, Note_on_c, 0, 71, 120
2, 346944, Note_on_c, 0, 42, 116
2, 346944, Note_on_c, 0, 74, 110
2, 346944, Note_on_c, 0, 50, 117
2, 346992, Note_on_c, 0, 42, 0
2, 346992, Note_on_c, 0, 50, 0
2, 347038, Note_on_c, 0, 71, 0
2, 347038, Note_on_c, 0, 74, 0
2, 347040, Note_on_c, 0, 66, 113
2, 347134, Note_on_c, 0, 66, 0
2, 347136, Note_on_c, 0, 74, 113
2, 347136, Note_on_c, 0, 35, 107
2, 347136, Note_on_c, 0, 71, 118
2, 347184, Note_on_c, 0, 35, 0
2, 347230, Note_on_c, 0, 74, 0
2, 347230, Note_on_c, 0, 71, 0
2, 347232, Note_on_c, 0, 61, 111
2, 347326, Note_on_c, 0, 61, 0
2, 347328, Note_on_c, 0, 71, 114
2, 347328, Note_on_c, 0, 42, 106
2, 347328, Note_on_c, 0, 66, 116
2, 347328, Note_on_c, 0, 50, 107
2, 347376, Note_on_c, 0, 42, 0
2, 347376, Note_on_c, 0, 50, 0
2, 347422, Note_on_c, 0, 71, 0
2, 347422, Note_on_c, 0, 66, 0
2, 347424, Note_on_c, 0, 62, 107
2, 347518, Note_on_c, 0, 62, 0
2, 347520, Note_on_c, 0, 71, 105
2, 347520, Note_on_c, 0, 66, 111
2, 347520, Note_on_c, 0, 35, 107
2, 347568, Note_on_c, 0, 35, 0
2, 347614, Note_on_c, 0, 71, 0
2, 347614, Note_on_c, 0, 66, 0
2, 347616, Note_on_c, 0, 58, 107
2, 347710, Note_on_c, 0, 58, 0
2, 347712, Note_on_c, 0, 42, 103
2, 347712, Note_on_c, 0, 62, 110
2, 347712, Note_on_c, 0, 66, 107
2, 347712, Note_on_c, 0, 50, 109
2, 347760, Note_on_c, 0, 42, 0
2, 347760, Note_on_c, 0, 50, 0
2, 347806, Note_on_c, 0, 62, 0
2, 347806, Note_on_c, 0, 66, 0
2, 347808, Note_on_c, 0, 59, 109
2, 347902, Note_on_c, 0, 59, 0
2, 347904, Note_on_c, 0, 66, 101
2, 347904, Note_on_c, 0, 62, 103
2, 347904, Note_on_c, 0, 35, 100
2, 347952, Note_on_c, 0, 35, 0
2, 347998, Note_on_c, 0, 66, 0
2, 347998, Note_on_c, 0, 62, 0
2, 348000, Note_on_c, 0, 59, 104
2, 348094, Note_on_c, 0, 59, 0
2, 348096, Note_on_c, 0, 42, 97
2, 348096, Note_on_c, 0, 62, 107
2, 348096, Note_on_c, 0, 50, 104
2, 348096, Note_on_c, 0, 66, 105
2, 348144, Note_on_c, 0, 42, 0
2, 348144, Note_on_c, 0, 50, 0
2, 348190, Note_on_c, 0, 62, 0
2, 348190, Note_on_c, 0, 66, 0
2, 348192, Note_on_c, 0, 53, 97
2, 348286, Note_on_c, 0, 53, 0
2, 348288, Note_on_c, 0, 66, 101
2, 348288, Note_on_c, 0, 35, 100
2, 348288, Note_on_c, 0, 62, 101
2, 348336, Note_on_c, 0, 35, 0
2, 348382, Note_on_c, 0, 66, 0
2, 348382, Note_on_c, 0, 62, 0
2, 348384, Note_on_c, 0, 54, 105
2, 348478, Note_on_c, 0, 54, 0
2, 348480, Note_on_c, 0, 66, 104
2, 348480, Note_on_c, 0, 62, 102
2, 348480, Note_on_c, 0, 50, 102
2, 348480, Note_on_c, 0, 42, 98
2, 348528, Note_on_c, 0, 50, 0
2, 348528, Note_on_c, 0, 42, 0
2, 348574, Note_on_c, 0, 66, 0
2, 348574, Note_on_c, 0, 62, 0
2, 348576, Note_on_c, 0, 59, 103
2, 348670, Note_on_c, 0, 59, 0
2, 348672, Note_on_c, 0, 66, 102
2, 348672, Note_on_c, 0, 62, 99
2, 348672, Note_on_c, 0, 35, 93
2, 348720, Note_on_c, 0, 35, 0
2, 348766, Note_on_c, 0, 66, 0
2, 348766, Note_on_c, 0, 62, 0
2, 348768, Note_on_c, 0, 53, 99
2, 348862, Note_on_c, 0, 53, 0
2, 348864, Note_on_c, 0, 66, 94
2, 348864, Note_on_c, 0, 50, 99
2, 348864, Note_on_c, 0, 62, 97
2, 348864, Note_on_c, 0, 42, 96
2, 348912, Note_on_c, 0, 50, 0
2, 348912, Note_on_c, 0, 42, 0
2, 348958, Note_on_c, 0, 66, 0
2, 348958, Note_on_c, 0, 62, 0
2, 348960, Note_on_c, 0, 54, 90
2, 349054, Note_on_c, 0, 54, 0
2, 349056, Note_on_c, 0, 66, 94
2, 349056, Note_on_c, 0, 62, 92
2, 349056, Note_on_c, 0, 59, 91
2, 349056, Note_on_c, 0, 35, 95
2, 349088, Note_on_c, 0, 35, 0
2, 349150, Note_on_c, 0, 66, 0
2, 349150, Note_on_c, 0, 62, 0
2, 349150, Note_on_c, 0, 59, 0
2, 349248, Note_on_c, 0, 37, 89
2, 349248, Note_on_c, 0, 49, 96
2, 349342, Note_on_c, 0, 37, 0
2, 349342, Note_on_c, 0, 49, 0
2, 349344, Note_on_c, 0, 50, 87
2, 349344, Note_on_c, 0, 38, 96
2, 349438, Note_on_c, 0, 50, 0
2, 349438, Note_on_c, 0, 38, 0
2, 349440, Note_on_c, 0, 51, 95
2, 349440, Note_on_c, 0, 39, 93
2, 349534, Note_on_c, 0, 51, 0
2, 349534, Note_on_c, 0, 39, 0
2, 349536, Note_on_c, 0, 52, 91
2, 349536, Note_on_c, 0, 40, 92
2, 349630, Note_on_c, 0, 52, 0
2, 349630, Note_on_c, 0, 40, 0
2, 349632, Note_on_c, 0, 53, 91
2, 349632, Note_on_c, 0, 40, 99
2, 349726, Note_on_c, 0, 53, 0
2, 349726, Note_on_c, 0, 40, 0
2, 349728, Note_on_c, 0, 54, 94
2, 349728, Note_on_c, 0, 42, 92
2, 349822, Note_on_c, 0, 54, 0
2, 349822, Note_on_c, 0, 42, 0
2, 349824, Note_on_c, 0, 43, 100
2, 349824, Note_on_c, 0, 55, 94
2, 349918, Note_on_c, 0, 43, 0
2, 349918, Note_on_c, 0, 55, 0
2, 349920, Note_on_c, 0, 56, 99
2, 349920, Note_on_c, 0, 44, 102
2, 350014, Note_on_c, 0, 56, 0
2, 350014, Note_on_c, 0, 44, 0
2, 350016, Note_on_c, 0, 57, 104
2, 350016, Note_on_c, 0, 45, 100
2, 350110, Note_on_c, 0, 57, 0
2, 350110, Note_on_c, 0, 45, 0
2, 350112, Note_on_c, 0, 58, 97
2, 350112, Note_on_c, 0, 46, 96
2, 350206, Note_on_c, 0, 58, 0
2, 350206, Note_on_c, 0, 46, 0
2, 350208, Note_on_c, 0, 59, 98
2, 350208, Note_on_c, 0, 47, 96
2, 350302, Note_on_c, 0, 59, 0
2, 350302, Note_on_c, 0, 47, 0
2, 350304, Note_on_c, 0, 48, 95
2, 350304, Note_on_c, 0, 60, 99
2, 350398, Note_on_c, 0, 48, 0
2, 350398, Note_on_c, 0, 60, 0
2, 350400, Note_on_c, 0, 49, 99
2, 350400, Note_on_c, 0, 61, 99
2, 350494, Note_on_c, 0, 49, 0
2, 350494, Note_on_c, 0, 61, 0
2, 350496, Note_on_c, 0, 50, 100
2, 350496, Note_on_c, 0, 62, 97
2, 350590, Note_on_c, 0, 50, 0
2, 350590, Note_on_c, 0, 62, 0
2, 350592, Note_on_c, 0, 63, 99
2, 350592, Note_on_c, 0, 51, 102
2, 350686, Note_on_c, 0, 63, 0
2, 350686, Note_on_c, 0, 51, 0
2, 350688, Note_on_c, 0, 52, 104
2, 350688, Note_on_c, 0, 64, 99
2, 350782, Note_on_c, 0, 52, 0
2, 350782, Note_on_c, 0, 64, 0
2, 350784, Note_on_c, 0, 65, 105
2, 350784, Note_on_c, 0, 53, 97
2, 350878, Note_on_c, 0, 65, 0
2, 350878, Note_on_c, 0, 53, 0
2, 350880, Note_on_c, 0, 54, 95
2, 350880, Note_on_c, 0, 66, 98
2, 350974, Note_on_c, 0, 54, 0
2, 350974, Note_on_c, 0, 66, 0
2, 350976, Note_on_c, 0, 55, 97
2, 350976, Note_on_c, 0, 67, 103
2, 351070, Note_on_c, 0, 55, 0
2, 351070, Note_on_c, 0, 67, 0
2, 351072, Note_on_c, 0, 56, 95
2, 351072, Note_on_c, 0, 68, 98
2, 351166, Note_on_c, 0, 56, 0
2, 351166, Note_on_c, 0, 68, 0
2, 351168, Note_on_c, 0, 69, 99
2, 351168, Note_on_c, 0, 57, 106
2, 351262, Note_on_c, 0, 69, 0
2, 351262, Note_on_c, 0, 57, 0
2, 351264, Note_on_c, 0, 58, 106
2, 351264, Note_on_c, 0, 70, 101
2, 351358, Note_on_c, 0, 58, 0
2, 351358, Note_on_c, 0, 70, 0
2, 351360, Note_on_c, 0, 59, 99
2, 351360, Note_on_c, 0, 71, 97
2, 351454, Note_on_c, 0, 59, 0
2, 351454, Note_on_c, 0, 71, 0
2, 351456, Note_on_c, 0, 60, 104
2, 351456, Note_on_c, 0, 72, 98
2, 351550, Note_on_c, 0, 60, 0
2, 351550, Note_on_c, 0, 72, 0
2, 351552, Note_on_c, 0, 73, 102
2, 351552, Note_on_c, 0, 61, 104
2, 351646, Note_on_c, 0, 73, 0
2, 351646, Note_on_c, 0, 61, 0
2, 351648, Note_on_c, 0, 74, 102
2, 351648, Note_on_c, 0, 62, 106
2, 351742, Note_on_c, 0, 74, 0
2, 351742, Note_on_c, 0, 62, 0
2, 351744, Note_on_c, 0, 75, 108
2, 351744, Note_on_c, 0, 63, 105
2, 351838, Note_on_c, 0, 75, 0
2, 351838, Note_on_c, 0, 63, 0
2, 351840, Note_on_c, 0, 76, 106
2, 351840, Note_on_c, 0, 64, 104
2, 351934, Note_on_c, 0, 76, 0
2, 351934, Note_on_c, 0, 64, 0
2, 351936, Note_on_c, 0, 65, 112
2, 351936, Note_on_c, 0, 77, 111
2, 352030, Note_on_c, 0, 65, 0
2, 352030, Note_on_c, 0, 77, 0
2, 352032, Note_on_c, 0, 78, 106
2, 352032, Note_on_c, 0, 66, 105
2, 352126, Note_on_c, 0, 78, 0
2, 352126, Note_on_c, 0, 66, 0
2, 352128, Note_on_c, 0, 79, 106
2, 352128, Note_on_c, 0, 67, 113
2, 352222, Note_on_c, 0, 79, 0
2, 352222, Note_on_c, 0, 67, 0
2, 352224, Note_on_c, 0, 80, 109
2, 352224, Note_on_c, 0, 68, 112
2, 352318, Note_on_c, 0, 80, 0
2, 352318, Note_on_c, 0, 68, 0
2, 352320, Note_on_c, 0, 81, 108
2, 352320, Note_on_c, 0, 69, 112
2, 352414, Note_on_c, 0, 81, 0
2, 352414, Note_on_c, 0, 69, 0
2, 352416, Note_on_c, 0, 70, 114
2, 352416, Note_on_c, 0, 82, 108
2, 352510, Note_on_c, 0, 70, 0
2, 352510, Note_on_c, 0, 82, 0
2, 352512, Note_on_c, 0, 71, 117
2, 352512, Note_on_c, 0, 83, 118
2, 352606, Note_on_c, 0, 71, 0
2, 352606, Note_on_c, 0, 83, 0
2, 352608, Note_on_c, 0, 72, 111
2, 352608, Note_on_c, 0, 84, 117
2, 352702, Note_on_c, 0, 72, 0
2, 352702, Note_on_c, 0, 84, 0
2, 352704, Note_on_c, 0, 73, 113
2, 352704, Note_on_c, 0, 85, 116
2, 352798, Note_on_c, 0, 73, 0
2, 352798, Note_on_c, 0, 85, 0
2, 352800, Note_on_c, 0, 86, 113
2, 352800, Note_on_c, 0, 74, 112
2, 352894, Note_on_c, 0, 86, 0
2, 352894, Note_on_c, 0, 74, 0
2, 352896, Note_on_c, 0, 75, 123
2, 352896, Note_on_c, 0, 87, 121
2, 352990, Note_on_c, 0, 75, 0
2, 352990, Note_on_c, 0, 87, 0
2, 352992, Note_on_c, 0, 88, 116
2, 352992, Note_on_c, 0, 76, 123
2, 353086, Note_on_c, 0, 88, 0
2, 353086, Note_on_c, 0, 76, 0
2, 353088, Note_on_c, 0, 89, 120
2, 353088, Note_on_c, 0, 77, 125
2, 353182, Note_on_c, 0, 89, 0
2, 353182, Note_on_c, 0, 77, 0
2, 353184, Note_on_c, 0, 78, 124
2, 353184, Note_on_c, 0, 90, 118
2, 353278, Note_on_c, 0, 78, 0
2, 353278, Note_on_c, 0, 90, 0
2, 353280, Note_on_c, 0, 79, 121
2, 353280, Note_on_c, 0, 91, 118
2, 353374, Note_on_c, 0, 79, 0
2, 353374, Note_on_c, 0, 91, 0
2, 353376, Note_on_c, 0, 80, 120
2, 353376, Note_on_c, 0, 92, 122
2, 353470, Note_on_c, 0, 80, 0
2, 353470, Note_on_c, 0, 92, 0
2, 353472, Note_on_c, 0, 81, 127
2, 353472, Note_on_c, 0, 93, 127
2, 353566, Note_on_c, 0, 81, 0
2, 353566, Note_on_c, 0, 93, 0
2, 353568, Note_on_c, 0, 94, 127
2, 353568, Note_on_c, 0, 82, 123
2, 353662, Note_on_c, 0, 94, 0
2, 353662, Note_on_c, 0, 82, 0
2, 353664, Note_on_c, 0, 83, 127
2, 353664, Note_on_c, 0, 95, 127
2, 353664, Control_c, 0, 64, 127
2, 353712, Note_on_c, 0, 83, 0
2, 353712, Note_on_c, 0, 95, 0
2, 354048, Control_c, 0, 64, 0
2, 354240, Note_on_c, 0, 66, 127
2, 354240, Control_c, 0, 64, 127
2, 354240, Note_on_c, 0, 78, 126
2, 354240, Note_on_c, 0, 64, 123
2, 354240, Note_on_c, 0, 54, 127
2, 354240, Note_on_c, 0, 61, 123
2, 354240, Note_on_c, 0, 73, 127
2, 354240, Note_on_c, 0, 70, 127
2, 354400, Note_on_c, 0, 66, 0
2, 354400, Note_on_c, 0, 78, 0
2, 354400, Note_on_c, 0, 64, 0
2, 354400, Note_on_c, 0, 54, 0
2, 354400, Note_on_c, 0, 61, 0
2, 354400, Note_on_c, 0, 73, 0
2, 354400, Note_on_c, 0, 70, 0
2, 354720, Control_c, 0, 64, 0
2, 354816, Note_on_c, 0, 47, 123
2, 354816, Note_on_c, 0, 54, 127
2, 354816, Note_on_c, 0, 71, 124
2, 354816, Note_on_c, 0, 62, 123
2, 354816, Control_c, 0, 64, 127
2, 354816, Note_on_c, 0, 74, 125
2, 354816, Note_on_c, 0, 66, 127
2, 354816, Note_on_c, 0, 59, 123
2, 354976, Note_on_c, 0, 47, 0
2, 354976, Note_on_c, 0, 54, 0
2, 354976, Note_on_c, 0, 71, 0
2, 354976, Note_on_c, 0, 62, 0
2, 354976, Note_on_c, 0, 74, 0
2, 354976, Note_on_c, 0, 66, 0
2, 354976, Note_on_c, 0, 59, 0
2, 355296, Control_c, 0, 64, 0
2, 355392, Note_on_c, 0, 67, 123
2, 355392, Note_on_c, 0, 55, 122
2, 355392, Control_c, 0, 64, 127
2, 355392, Note_on_c, 0, 40, 122
2, 355392, Note_on_c, 0, 47, 127
2, 355392, Note_on_c, 0, 52, 124
2, 355392, Note_on_c, 0, 59, 127
2, 355392, Note_on_c, 0, 64, 127
2, 355552, Note_on_c, 0, 67, 0
2, 355552, Note_on_c, 0, 55, 0
2, 355552, Note_on_c, 0, 40, 0
2, 355552, Note_on_c, 0, 47, 0
2, 355552, Note_on_c, 0, 52, 0
2, 355552, Note_on_c, 0, 59, 0
2, 355552, Note_on_c, 0, 64, 0
2, 355872, Control_c, 0, 64, 0
2, 355968, Control_c, 0, 64, 127
2, 355968, Note_on_c, 0, 59, 122
2, 355968, Note_on_c, 0, 62, 127
2, 355968, Note_on_c, 0, 35, 125
2, 355968, Note_on_c, 0, 66, 127
2, 355968, Note_on_c, 0, 47, 127
2, 355968, Note_on_c, 0, 71, 124
2, 356128, Note_on_c, 0, 59, 0
2, 356128, Note_on_c, 0, 62, 0
2, 356128, Note_on_c, 0, 35, 0
2, 356128, Note_on_c, 0, 66, 0
2, 356128, Note_on_c, 0, 47, 0
2, 356128, Note_on_c, 0, 71, 0
2, 356448, Control_c, 0, 64, 0
2, 356736, Note_on_c, 0, 83, 127
2, 356736, Note_on_c, 0, 35, 124
2, 356736, Note_on_c, 0, 40, 127
2, 356736, Note_on_c, 0, 71, 127
2, 356736, Note_on_c, 0, 47, 125
2, 356736, Note_on_c, 0, 73, 122
2, 356736, Note_on_c, 0, 76, 122
2, 356736, Note_on_c, 0, 43, 122
2, 356736, Control_c, 0, 64, 0
2, 356736, Control_c, 0, 64, 127
2, 357840, Note_on_c, 0, 83, 0
2, 357840, Note_on_c, 0, 35, 0
2, 357840, Note_on_c, 0, 40, 0
2, 357840, Note_on_c, 0, 71, 0
2, 357840, Note_on_c, 0, 47, 0
2, 357840, Note_on_c, 0, 73, 0
2, 357840, Note_on_c, 0, 76, 0
2, 357840, Note_on_c, 0, 43, 0
2, 357888, Note_on_c, 0, 42, 127
2, 357888, Note_on_c, 0, 78, 124
2, 357888, Note_on_c, 0, 74, 127
2, 357888, Note_on_c, 0, 83, 127
2, 357888, Note_on_c, 0, 47, 127
2, 357888, Note_on_c, 0, 71, 125
2, 357888, Note_on_c, 0, 35, 126
2, 358416, Note_on_c, 0, 42, 0
2, 358416, Note_on_c, 0, 78, 0
2, 358416, Note_on_c, 0, 74, 0
2, 358416, Note_on_c, 0, 83, 0
2, 358416, Note_on_c, 0, 47, 0
2, 358416, Note_on_c, 0, 71, 0
2, 358416, Note_on_c, 0, 35, 0
2, 358464, Control_c, 0, 64, 0
2, 358656, Control_c, 0, 121, 127
2, 358656, End_track
3, 0, Start_track
3, 0, Title_t, "by Fryderyk Franciszeck Chopin (1810-1849)"
3, 0, MIDI_port, 0
3, 0, End_track
4, 0, Start_track
4, 0, Title_t, "Copyright \251 2003 by Dario Galimberti"
4, 0, MIDI_port, 0
4, 0, End_track
5, 0, Start_track
5, 0, Title_t, "http://dariogalimberti.interfree.it"
5, 0, MIDI_port, 0
5, 0, End_track
6, 0, Start_track
6, 0, Title_t, "All Rights Reserved"
6, 0, MIDI_port, 0
6, 0, End_track
0, 0, End_of_file