0, 0, Header, 1, 11, 384
1, 0, Start_track
1, 0, Time_signature, 3, 2, 96, 8
1, 0, Sequencer_specific, 03, 00, 00, 41
1, 0, Sequencer_specific, 05, 00, 00, 77, 0E, 00
1, 0, Tempo, 600000
1, 0, End_track
2, 0, Start_track
2, 0, Title_t, "POLONAISE"
2, 0, Control_c, 0, 0, 0
2, 0, Program_c, 0, 0
2, 0, Control_c, 0, 91, 41
2, 0, Control_c, 0, 93, 42
2, 0, Key_signature, 3, "major"
2, 0, Note_on_c, 0, 69, 125
2, 128, Note_off_c, 0, 69, 80
2, 288, Note_on_c, 0, 64, 125
2, 288, Note_on_c, 0, 61, 125
2, 352, Note_off_c, 0, 64, 80
2, 352, Note_off_c, 0, 61, 80
2, 384, Note_on_c, 0, 64, 125
2, 384, Note_on_c, 0, 61, 125
2, 448, Note_off_c, 0, 61, 80
2, 512, Note_off_c, 0, 64, 80
2, 672, Note_on_c, 0, 64, 125
2, 672, Note_on_c, 0, 61, 125
2, 736, Note_off_c, 0, 64, 80
2, 736, Note_off_c, 0, 61, 80
2, 768, Note_on_c, 0, 66, 125
2, 768, Note_on_c, 0, 62, 125
2, 832, Note_off_c, 0, 66, 80
2, 832, Note_off_c, 0, 62, 80
2, 864, Note_on_c, 0, 68, 125
2, 864, Note_on_c, 0, 62, 125
2, 928, Note_off_c, 0, 68, 80
2, 928, Note_off_c, 0, 62, 80
2, 960, Note_on_c, 0, 69, 125
2, 960, Note_on_c, 0, 62, 125
2, 1024, Note_off_c, 0, 69, 80
2, 1024, Note_off_c, 0, 62, 80
2, 1056, Note_on_c, 0, 71, 125
2, 1056, Note_on_c, 0, 62, 125
2, 1120, Note_off_c, 0, 71, 80
2, 1120, Note_off_c, 0, 62, 80
2, 1152, Note_on_c, 0, 73, 125
2, 1152, Note_on_c, 0, 61, 125
2, 1344, Note_off_c, 0, 73, 80
2, 1344, Note_off_c, 0, 61, 80
2, 1440, Note_on_c, 0, 69, 125
2, 1440, Note_on_c, 0, 61, 125
2, 1504, Note_off_c, 0, 69, 80
2, 1504, Note_off_c, 0, 61, 80
2, 1536, Note_on_c, 0, 69, 125
2, 1536, Note_on_c, 0, 61, 125
2, 1664, Note_off_c, 0, 69, 80
2, 1664, Note_off_c, 0, 61, 80
2, 2304, Note_on_c, 0, 73, 125
2, 2304, Note_on_c, 0, 61, 125
2, 2432, Note_off_c, 0, 73, 80
2, 2432, Note_off_c, 0, 61, 80
2, 2592, Note_on_c, 0, 69, 125
2, 2592, Note_on_c, 0, 61, 125
2, 2656, Note_off_c, 0, 69, 80
2, 2656, Note_off_c, 0, 61, 80
2, 2688, Note_on_c, 0, 69, 125
2, 2688, Note_on_c, 0, 61, 125
2, 2816, Note_off_c, 0, 69, 80
2, 2816, Note_off_c, 0, 61, 80
2, 2976, Note_on_c, 0, 68, 125
2, 2976, Note_on_c, 0, 61, 125
2, 3040, Note_off_c, 0, 68, 80
2, 3040, Note_off_c, 0, 61, 80
2, 3072, Note_on_c, 0, 69, 125
2, 3072, Note_on_c, 0, 61, 125
2, 3136, Note_off_c, 0, 69, 80
2, 3136, Note_off_c, 0, 61, 80
2, 3168, Note_on_c, 0, 69, 125
2, 3168, Note_on_c, 0, 71, 125
2, 3168, Note_on_c, 0, 61, 125
2, 3232, Note_off_c, 0, 69, 80
2, 3232, Note_off_c, 0, 71, 80
2, 3232, Note_off_c, 0, 61, 80
2, 3264, Note_on_c, 0, 61, 125
2, 3264, Note_on_c, 0, 69, 125
2, 3264, Note_on_c, 0, 73, 125
2, 3328, Note_off_c, 0, 61, 80
2, 3328, Note_off_c, 0, 69, 80
2, 3328, Note_off_c, 0, 73, 80
2, 3360, Note_on_c, 0, 62, 125
2, 3360, Note_on_c, 0, 69, 125
2, 3360, Note_on_c, 0, 74, 125
2, 3424, Note_off_c, 0, 62, 80
2, 3424, Note_off_c, 0, 69, 80
2, 3424, Note_off_c, 0, 74, 80
2, 3456, Note_on_c, 0, 78, 125
2, 3456, Note_on_c, 0, 69, 125
2, 3456, Note_on_c, 0, 63, 125
2, 3648, Note_off_c, 0, 78, 80
2, 3648, Note_off_c, 0, 69, 80
2, 3648, Note_off_c, 0, 63, 80
2, 3744, Note_on_c, 0, 76, 125
2, 3744, Note_on_c, 0, 69, 125
2, 3744, Note_on_c, 0, 64, 125
2, 3808, Note_off_c, 0, 76, 80
2, 3808, Note_off_c, 0, 69, 80
2, 3808, Note_off_c, 0, 64, 80
2, 3840, Note_on_c, 0, 64, 125
2, 3840, Note_on_c, 0, 69, 125
2, 3840, Note_on_c, 0, 76, 125
2, 3968, Note_off_c, 0, 64, 80
2, 3968, Note_off_c, 0, 69, 80
2, 3968, Note_off_c, 0, 76, 80
2, 4608, Note_on_c, 0, 73, 125
2, 4608, Note_on_c, 0, 77, 125
2, 4608, Note_on_c, 0, 85, 125
2, 4736, Note_off_c, 0, 73, 80
2, 4736, Note_off_c, 0, 77, 80
2, 4736, Note_off_c, 0, 85, 80
2, 4800, Note_on_c, 0, 68, 125
2, 4800, Note_on_c, 0, 73, 125
2, 4800, Note_on_c, 0, 80, 125
2, 4864, Note_off_c, 0, 68, 80
2, 4896, Note_on_c, 0, 68, 125
2, 4896, Note_on_c, 0, 73, 125
2, 4896, Note_on_c, 0, 80, 125
2, 4928, Note_off_c, 0, 73, 80
2, 4928, Note_off_c, 0, 80, 80
2, 4960, Note_off_c, 0, 68, 80
2, 4992, Note_on_c, 0, 68, 125
2, 4992, Note_on_c, 0, 73, 125
2, 4992, Note_on_c, 0, 80, 125
2, 5024, Note_off_c, 0, 73, 80
2, 5024, Note_off_c, 0, 80, 80
2, 5056, Note_off_c, 0, 68, 80
2, 5088, Note_on_c, 0, 68, 125
2, 5088, Note_on_c, 0, 80, 125
2, 5088, Note_on_c, 0, 73, 125
2, 5120, Note_off_c, 0, 73, 80
2, 5120, Note_off_c, 0, 80, 80
2, 5216, Note_off_c, 0, 68, 80
2, 5216, Note_off_c, 0, 80, 80
2, 5216, Note_off_c, 0, 73, 80
2, 5280, Note_on_c, 0, 68, 125
2, 5280, Note_on_c, 0, 80, 125
2, 5280, Note_on_c, 0, 73, 125
2, 5376, Note_on_c, 0, 70, 125
2, 5376, Note_on_c, 0, 75, 125
2, 5376, Note_on_c, 0, 82, 125
2, 5408, Note_off_c, 0, 68, 80
2, 5408, Note_off_c, 0, 80, 80
2, 5408, Note_off_c, 0, 73, 80
2, 5440, Note_off_c, 0, 75, 80
2, 5440, Note_off_c, 0, 82, 80
2, 5472, Note_on_c, 0, 72, 125
2, 5472, Note_on_c, 0, 84, 125
2, 5504, Note_off_c, 0, 70, 80
2, 5536, Note_off_c, 0, 84, 80
2, 5568, Note_on_c, 0, 73, 125
2, 5568, Note_on_c, 0, 85, 125
2, 5568, Note_on_c, 0, 80, 125
2, 5600, Note_off_c, 0, 72, 80
2, 5632, Note_off_c, 0, 85, 80
2, 5632, Note_off_c, 0, 80, 80
2, 5664, Note_on_c, 0, 75, 125
2, 5664, Note_on_c, 0, 87, 125
2, 5696, Note_off_c, 0, 73, 80
2, 5760, Note_on_c, 0, 77, 125
2, 5760, Note_on_c, 0, 85, 125
2, 5760, Note_on_c, 0, 89, 125
2, 5792, Note_off_c, 0, 87, 80
2, 5792, Note_off_c, 0, 75, 80
2, 5952, Note_off_c, 0, 77, 80
2, 5952, Note_off_c, 0, 85, 80
2, 5952, Note_off_c, 0, 89, 80
2, 6048, Note_on_c, 0, 73, 125
2, 6048, Note_on_c, 0, 85, 125
2, 6112, Note_off_c, 0, 73, 80
2, 6112, Note_off_c, 0, 85, 80
2, 6144, Note_on_c, 0, 73, 125
2, 6144, Note_on_c, 0, 85, 125
2, 6272, Note_off_c, 0, 73, 80
2, 6272, Note_off_c, 0, 85, 80
2, 6336, Note_on_c, 0, 73, 125
2, 6336, Note_on_c, 0, 85, 125
2, 6400, Note_off_c, 0, 73, 80
2, 6400, Note_off_c, 0, 85, 80
2, 6432, Note_on_c, 0, 73, 125
2, 6432, Note_on_c, 0, 85, 125
2, 6496, Note_off_c, 0, 73, 80
2, 6496, Note_off_c, 0, 85, 80
2, 6528, Note_on_c, 0, 73, 125
2, 6528, Note_on_c, 0, 85, 125
2, 6592, Note_off_c, 0, 73, 80
2, 6592, Note_off_c, 0, 85, 80
2, 6624, Note_on_c, 0, 73, 125
2, 6624, Note_on_c, 0, 85, 125
2, 6688, Note_off_c, 0, 73, 80
2, 6688, Note_off_c, 0, 85, 80
2, 6720, Note_on_c, 0, 73, 125
2, 6720, Note_on_c, 0, 85, 125
2, 6784, Note_off_c, 0, 73, 80
2, 6784, Note_off_c, 0, 85, 80
2, 6816, Note_on_c, 0, 73, 125
2, 6816, Note_on_c, 0, 85, 125
2, 6880, Note_off_c, 0, 73, 80
2, 6880, Note_off_c, 0, 85, 80
2, 6912, Note_on_c, 0, 73, 125
2, 6912, Note_on_c, 0, 85, 125
2, 7040, Note_off_c, 0, 73, 80
2, 7040, Note_off_c, 0, 85, 80
2, 7104, Note_on_c, 0, 71, 125
2, 7104, Note_on_c, 0, 78, 125
2, 7104, Note_on_c, 0, 83, 125
2, 7200, Note_off_c, 0, 71, 80
2, 7200, Note_off_c, 0, 78, 80
2, 7200, Note_off_c, 0, 83, 80
2, 7200, Note_on_c, 0, 71, 125
2, 7200, Note_on_c, 0, 78, 125
2, 7200, Note_on_c, 0, 83, 125
2, 7264, Note_off_c, 0, 71, 80
2, 7264, Note_off_c, 0, 78, 80
2, 7264, Note_off_c, 0, 83, 80
2, 7296, Note_on_c, 0, 71, 125
2, 7296, Note_on_c, 0, 78, 125
2, 7296, Note_on_c, 0, 83, 125
2, 7424, Note_off_c, 0, 71, 80
2, 7424, Note_off_c, 0, 78, 80
2, 7424, Note_off_c, 0, 83, 80
2, 7488, Note_on_c, 0, 73, 125
2, 7488, Note_on_c, 0, 85, 125
2, 7616, Note_off_c, 0, 73, 80
2, 7616, Note_off_c, 0, 85, 80
2, 7680, Note_on_c, 0, 76, 125
2, 7680, Note_on_c, 0, 81, 125
2, 7680, Note_on_c, 0, 88, 125
2, 7808, Note_off_c, 0, 76, 80
2, 7808, Note_off_c, 0, 81, 80
2, 7808, Note_off_c, 0, 88, 80
2, 7872, Note_on_c, 0, 86, 125
2, 7872, Note_on_c, 0, 74, 125
2, 7936, Note_off_c, 0, 86, 80
2, 7936, Note_off_c, 0, 74, 80
2, 7968, Note_on_c, 0, 85, 125
2, 7968, Note_on_c, 0, 73, 125
2, 8032, Note_off_c, 0, 85, 80
2, 8032, Note_off_c, 0, 73, 80
2, 8064, Note_on_c, 0, 71, 125
2, 8064, Note_on_c, 0, 83, 125
2, 8192, Note_off_c, 0, 71, 80
2, 8192, Note_off_c, 0, 83, 80
2, 8256, Note_on_c, 0, 71, 125
2, 8256, Note_on_c, 0, 76, 125
2, 8256, Note_on_c, 0, 83, 125
2, 8352, Note_off_c, 0, 71, 80
2, 8352, Note_off_c, 0, 76, 80
2, 8352, Note_off_c, 0, 83, 80
2, 8352, Note_on_c, 0, 73, 125
2, 8352, Note_on_c, 0, 85, 125
2, 8416, Note_off_c, 0, 73, 80
2, 8416, Note_off_c, 0, 85, 80
2, 8448, Note_on_c, 0, 71, 125
2, 8448, Note_on_c, 0, 76, 125
2, 8448, Note_on_c, 0, 83, 125
2, 8704, Note_off_c, 0, 71, 80
2, 8704, Note_off_c, 0, 76, 80
2, 8704, Note_off_c, 0, 83, 80
2, 8832, Note_on_c, 0, 69, 125
2, 8832, Note_on_c, 0, 81, 125
2, 8960, Note_off_c, 0, 69, 80
2, 8960, Note_off_c, 0, 81, 80
2, 9216, Note_on_c, 0, 69, 125
2, 9344, Note_off_c, 0, 69, 80
2, 9504, Note_on_c, 0, 64, 125
2, 9504, Note_on_c, 0, 61, 125
2, 9568, Note_off_c, 0, 64, 80
2, 9568, Note_off_c, 0, 61, 80
2, 9600, Note_on_c, 0, 64, 125
2, 9600, Note_on_c, 0, 61, 125
2, 9664, Note_off_c, 0, 61, 80
2, 9728, Note_off_c, 0, 64, 80
2, 9888, Note_on_c, 0, 64, 125
2, 9888, Note_on_c, 0, 61, 125
2, 9952, Note_off_c, 0, 64, 80
2, 9952, Note_off_c, 0, 61, 80
2, 9984, Note_on_c, 0, 66, 125
2, 9984, Note_on_c, 0, 62, 125
2, 10048, Note_off_c, 0, 66, 80
2, 10048, Note_off_c, 0, 62, 80
2, 10080, Note_on_c, 0, 68, 125
2, 10080, Note_on_c, 0, 62, 125
2, 10144, Note_off_c, 0, 68, 80
2, 10144, Note_off_c, 0, 62, 80
2, 10176, Note_on_c, 0, 69, 125
2, 10176, Note_on_c, 0, 62, 125
2, 10240, Note_off_c, 0, 69, 80
2, 10240, Note_off_c, 0, 62, 80
2, 10272, Note_on_c, 0, 71, 125
2, 10272, Note_on_c, 0, 62, 125
2, 10336, Note_off_c, 0, 71, 80
2, 10336, Note_off_c, 0, 62, 80
2, 10368, Note_on_c, 0, 73, 125
2, 10368, Note_on_c, 0, 61, 125
2, 10560, Note_off_c, 0, 73, 80
2, 10560, Note_off_c, 0, 61, 80
2, 10656, Note_on_c, 0, 69, 125
2, 10656, Note_on_c, 0, 61, 125
2, 10720, Note_off_c, 0, 69, 80
2, 10720, Note_off_c, 0, 61, 80
2, 10752, Note_on_c, 0, 69, 125
2, 10752, Note_on_c, 0, 61, 125
2, 10880, Note_off_c, 0, 69, 80
2, 10880, Note_off_c, 0, 61, 80
2, 11520, Note_on_c, 0, 73, 125
2, 11520, Note_on_c, 0, 61, 125
2, 11648, Note_off_c, 0, 73, 80
2, 11648, Note_off_c, 0, 61, 80
2, 11808, Note_on_c, 0, 69, 125
2, 11808, Note_on_c, 0, 61, 125
2, 11872, Note_off_c, 0, 69, 80
2, 11872, Note_off_c, 0, 61, 80
2, 11904, Note_on_c, 0, 69, 125
2, 11904, Note_on_c, 0, 61, 125
2, 12032, Note_off_c, 0, 69, 80
2, 12032, Note_off_c, 0, 61, 80
2, 12192, Note_on_c, 0, 68, 125
2, 12192, Note_on_c, 0, 61, 125
2, 12256, Note_off_c, 0, 68, 80
2, 12256, Note_off_c, 0, 61, 80
2, 12288, Note_on_c, 0, 69, 125
2, 12288, Note_on_c, 0, 61, 125
2, 12352, Note_off_c, 0, 69, 80
2, 12352, Note_off_c, 0, 61, 80
2, 12384, Note_on_c, 0, 69, 125
2, 12384, Note_on_c, 0, 71, 125
2, 12384, Note_on_c, 0, 61, 125
2, 12448, Note_off_c, 0, 69, 80
2, 12448, Note_off_c, 0, 71, 80
2, 12448, Note_off_c, 0, 61, 80
2, 12480, Note_on_c, 0, 61, 125
2, 12480, Note_on_c, 0, 69, 125
2, 12480, Note_on_c, 0, 73, 125
2, 12544, Note_off_c, 0, 61, 80
2, 12544, Note_off_c, 0, 69, 80
2, 12544, Note_off_c, 0, 73, 80
2, 12576, Note_on_c, 0, 62, 125
2, 12576, Note_on_c, 0, 69, 125
2, 12576, Note_on_c, 0, 74, 125
2, 12640, Note_off_c, 0, 62, 80
2, 12640, Note_off_c, 0, 69, 80
2, 12640, Note_off_c, 0, 74, 80
2, 12672, Note_on_c, 0, 78, 125
2, 12672, Note_on_c, 0, 69, 125
2, 12672, Note_on_c, 0, 63, 125
2, 12864, Note_off_c, 0, 78, 80
2, 12864, Note_off_c, 0, 69, 80
2, 12864, Note_off_c, 0, 63, 80
2, 12960, Note_on_c, 0, 76, 125
2, 12960, Note_on_c, 0, 69, 125
2, 12960, Note_on_c, 0, 64, 125
2, 13024, Note_off_c, 0, 76, 80
2, 13024, Note_off_c, 0, 69, 80
2, 13024, Note_off_c, 0, 64, 80
2, 13056, Note_on_c, 0, 64, 125
2, 13056, Note_on_c, 0, 69, 125
2, 13056, Note_on_c, 0, 76, 125
2, 13184, Note_off_c, 0, 64, 80
2, 13184, Note_off_c, 0, 69, 80
2, 13184, Note_off_c, 0, 76, 80
2, 13824, Note_on_c, 0, 73, 125
2, 13824, Note_on_c, 0, 77, 125
2, 13824, Note_on_c, 0, 85, 125
2, 13952, Note_off_c, 0, 73, 80
2, 13952, Note_off_c, 0, 77, 80
2, 13952, Note_off_c, 0, 85, 80
2, 14016, Note_on_c, 0, 68, 125
2, 14016, Note_on_c, 0, 73, 125
2, 14016, Note_on_c, 0, 80, 125
2, 14080, Note_off_c, 0, 68, 80
2, 14112, Note_on_c, 0, 68, 125
2, 14112, Note_on_c, 0, 73, 125
2, 14112, Note_on_c, 0, 80, 125
2, 14144, Note_off_c, 0, 73, 80
2, 14144, Note_off_c, 0, 80, 80
2, 14176, Note_off_c, 0, 68, 80
2, 14208, Note_on_c, 0, 68, 125
2, 14208, Note_on_c, 0, 73, 125
2, 14208, Note_on_c, 0, 80, 125
2, 14240, Note_off_c, 0, 73, 80
2, 14240, Note_off_c, 0, 80, 80
2, 14272, Note_off_c, 0, 68, 80
2, 14304, Note_on_c, 0, 68, 125
2, 14304, Note_on_c, 0, 80, 125
2, 14304, Note_on_c, 0, 73, 125
2, 14336, Note_off_c, 0, 73, 80
2, 14336, Note_off_c, 0, 80, 80
2, 14432, Note_off_c, 0, 68, 80
2, 14432, Note_off_c, 0, 80, 80
2, 14432, Note_off_c, 0, 73, 80
2, 14496, Note_on_c, 0, 68, 125
2, 14496, Note_on_c, 0, 80, 125
2, 14496, Note_on_c, 0, 73, 125
2, 14592, Note_on_c, 0, 70, 125
2, 14592, Note_on_c, 0, 75, 125
2, 14592, Note_on_c, 0, 82, 125
2, 14624, Note_off_c, 0, 68, 80
2, 14624, Note_off_c, 0, 80, 80
2, 14624, Note_off_c, 0, 73, 80
2, 14656, Note_off_c, 0, 75, 80
2, 14656, Note_off_c, 0, 82, 80
2, 14688, Note_on_c, 0, 72, 125
2, 14688, Note_on_c, 0, 84, 125
2, 14720, Note_off_c, 0, 70, 80
2, 14752, Note_off_c, 0, 84, 80
2, 14784, Note_on_c, 0, 73, 125
2, 14784, Note_on_c, 0, 85, 125
2, 14784, Note_on_c, 0, 80, 125
2, 14816, Note_off_c, 0, 72, 80
2, 14848, Note_off_c, 0, 85, 80
2, 14848, Note_off_c, 0, 80, 80
2, 14880, Note_on_c, 0, 75, 125
2, 14880, Note_on_c, 0, 87, 125
2, 14912, Note_off_c, 0, 73, 80
2, 14976, Note_on_c, 0, 77, 125
2, 14976, Note_on_c, 0, 85, 125
2, 14976, Note_on_c, 0, 89, 125
2, 15008, Note_off_c, 0, 75, 80
2, 15008, Note_off_c, 0, 87, 80
2, 15168, Note_off_c, 0, 77, 80
2, 15168, Note_off_c, 0, 85, 80
2, 15168, Note_off_c, 0, 89, 80
2, 15264, Note_on_c, 0, 73, 125
2, 15264, Note_on_c, 0, 85, 125
2, 15328, Note_off_c, 0, 73, 80
2, 15328, Note_off_c, 0, 85, 80
2, 15360, Note_on_c, 0, 73, 125
2, 15360, Note_on_c, 0, 85, 125
2, 15488, Note_off_c, 0, 73, 80
2, 15488, Note_off_c, 0, 85, 80
2, 15552, Note_on_c, 0, 73, 125
2, 15552, Note_on_c, 0, 85, 125
2, 15616, Note_off_c, 0, 73, 80
2, 15616, Note_off_c, 0, 85, 80
2, 15648, Note_on_c, 0, 73, 125
2, 15648, Note_on_c, 0, 85, 125
2, 15712, Note_off_c, 0, 73, 80
2, 15712, Note_off_c, 0, 85, 80
2, 15744, Note_on_c, 0, 73, 125
2, 15744, Note_on_c, 0, 85, 125
2, 15808, Note_off_c, 0, 73, 80
2, 15808, Note_off_c, 0, 85, 80
2, 15840, Note_on_c, 0, 73, 125
2, 15840, Note_on_c, 0, 85, 125
2, 15904, Note_off_c, 0, 73, 80
2, 15904, Note_off_c, 0, 85, 80
2, 15936, Note_on_c, 0, 73, 125
2, 15936, Note_on_c, 0, 85, 125
2, 16000, Note_off_c, 0, 73, 80
2, 16000, Note_off_c, 0, 85, 80
2, 16032, Note_on_c, 0, 73, 125
2, 16032, Note_on_c, 0, 85, 125
2, 16096, Note_off_c, 0, 73, 80
2, 16096, Note_off_c, 0, 85, 80
2, 16128, Note_on_c, 0, 73, 125
2, 16128, Note_on_c, 0, 85, 125
2, 16256, Note_off_c, 0, 73, 80
2, 16256, Note_off_c, 0, 85, 80
2, 16320, Note_on_c, 0, 71, 125
2, 16320, Note_on_c, 0, 78, 125
2, 16320, Note_on_c, 0, 83, 125
2, 16416, Note_off_c, 0, 71, 80
2, 16416, Note_off_c, 0, 78, 80
2, 16416, Note_off_c, 0, 83, 80
2, 16416, Note_on_c, 0, 71, 125
2, 16416, Note_on_c, 0, 78, 125
2, 16416, Note_on_c, 0, 83, 125
2, 16480, Note_off_c, 0, 71, 80
2, 16480, Note_off_c, 0, 78, 80
2, 16480, Note_off_c, 0, 83, 80
2, 16512, Note_on_c, 0, 71, 125
2, 16512, Note_on_c, 0, 78, 125
2, 16512, Note_on_c, 0, 83, 125
2, 16640, Note_off_c, 0, 71, 80
2, 16640, Note_off_c, 0, 78, 80
2, 16640, Note_off_c, 0, 83, 80
2, 16704, Note_on_c, 0, 73, 125
2, 16704, Note_on_c, 0, 85, 125
2, 16832, Note_off_c, 0, 73, 80
2, 16832, Note_off_c, 0, 85, 80
2, 16896, Note_on_c, 0, 76, 125
2, 16896, Note_on_c, 0, 81, 125
2, 16896, Note_on_c, 0, 88, 125
2, 17024, Note_off_c, 0, 76, 80
2, 17024, Note_off_c, 0, 81, 80
2, 17024, Note_off_c, 0, 88, 80
2, 17088, Note_on_c, 0, 86, 125
2, 17088, Note_on_c, 0, 74, 125
2, 17152, Note_off_c, 0, 86, 80
2, 17152, Note_off_c, 0, 74, 80
2, 17184, Note_on_c, 0, 85, 125
2, 17184, Note_on_c, 0, 73, 125
2, 17248, Note_off_c, 0, 85, 80
2, 17248, Note_off_c, 0, 73, 80
2, 17280, Note_on_c, 0, 71, 125
2, 17280, Note_on_c, 0, 83, 125
2, 17408, Note_off_c, 0, 71, 80
2, 17408, Note_off_c, 0, 83, 80
2, 17472, Note_on_c, 0, 71, 125
2, 17472, Note_on_c, 0, 76, 125
2, 17472, Note_on_c, 0, 83, 125
2, 17568, Note_off_c, 0, 71, 80
2, 17568, Note_off_c, 0, 76, 80
2, 17568, Note_off_c, 0, 83, 80
2, 17568, Note_on_c, 0, 73, 125
2, 17568, Note_on_c, 0, 85, 125
2, 17632, Note_off_c, 0, 73, 80
2, 17632, Note_off_c, 0, 85, 80
2, 17664, Note_on_c, 0, 71, 125
2, 17664, Note_on_c, 0, 76, 125
2, 17664, Note_on_c, 0, 83, 125
2, 17920, Note_off_c, 0, 71, 80
2, 17920, Note_off_c, 0, 76, 80
2, 17920, Note_off_c, 0, 83, 80
2, 18048, Note_on_c, 0, 69, 125
2, 18048, Note_on_c, 0, 81, 125
2, 18176, Note_off_c, 0, 69, 80
2, 18176, Note_off_c, 0, 81, 80
2, 18432, Note_on_c, 0, 83, 125
2, 18432, Note_on_c, 0, 83, 125
2, 18432, Note_on_c, 0, 78, 125
2, 18432, Note_on_c, 0, 75, 125
2, 18432, Note_on_c, 0, 71, 125
2, 18432, Note_on_c, 0, 69, 125
2, 18560, Note_off_c, 0, 83, 80
2, 18560, Note_off_c, 0, 83, 80
2, 18560, Note_off_c, 0, 78, 80
2, 18560, Note_off_c, 0, 75, 80
2, 18560, Note_off_c, 0, 71, 80
2, 18560, Note_off_c, 0, 69, 80
2, 18720, Note_on_c, 0, 69, 125
2, 18720, Note_on_c, 0, 71, 125
2, 18720, Note_on_c, 0, 75, 125
2, 18720, Note_on_c, 0, 78, 125
2, 18784, Note_off_c, 0, 69, 80
2, 18784, Note_off_c, 0, 71, 80
2, 18784, Note_off_c, 0, 75, 80
2, 18784, Note_off_c, 0, 78, 80
2, 18816, Note_on_c, 0, 69, 125
2, 18816, Note_on_c, 0, 71, 125
2, 18816, Note_on_c, 0, 75, 125
2, 18816, Note_on_c, 0, 78, 125
2, 18944, Note_off_c, 0, 69, 80
2, 18944, Note_off_c, 0, 71, 80
2, 18944, Note_off_c, 0, 75, 80
2, 18944, Note_off_c, 0, 78, 80
2, 19392, Note_on_c, 0, 68, 125
2, 19392, Note_on_c, 0, 76, 125
2, 19392, Note_on_c, 0, 80, 125
2, 19520, Note_off_c, 0, 68, 80
2, 19520, Note_off_c, 0, 76, 80
2, 19520, Note_off_c, 0, 80, 80
2, 19584, Note_on_c, 0, 69, 125
2, 19584, Note_on_c, 0, 71, 125
2, 19584, Note_on_c, 0, 75, 125
2, 19584, Note_on_c, 0, 78, 125
2, 19584, Note_on_c, 0, 83, 125
2, 19712, Note_off_c, 0, 69, 80
2, 19712, Note_off_c, 0, 71, 80
2, 19712, Note_off_c, 0, 75, 80
2, 19712, Note_off_c, 0, 78, 80
2, 19712, Note_off_c, 0, 83, 80
2, 19776, Note_on_c, 0, 69, 125
2, 19776, Note_on_c, 0, 71, 125
2, 19776, Note_on_c, 0, 75, 125
2, 19776, Note_on_c, 0, 78, 125
2, 19840, Note_off_c, 0, 69, 80
2, 19840, Note_off_c, 0, 71, 80
2, 19840, Note_off_c, 0, 75, 80
2, 19840, Note_off_c, 0, 78, 80
2, 19872, Note_on_c, 0, 69, 125
2, 19872, Note_on_c, 0, 71, 125
2, 19872, Note_on_c, 0, 75, 125
2, 19872, Note_on_c, 0, 78, 125
2, 19936, Note_off_c, 0, 69, 80
2, 19936, Note_off_c, 0, 71, 80
2, 19936, Note_off_c, 0, 75, 80
2, 19936, Note_off_c, 0, 78, 80
2, 19968, Note_on_c, 0, 69, 125
2, 19968, Note_on_c, 0, 71, 125
2, 19968, Note_on_c, 0, 75, 125
2, 19968, Note_on_c, 0, 78, 125
2, 20032, Note_off_c, 0, 69, 80
2, 20032, Note_off_c, 0, 71, 80
2, 20032, Note_off_c, 0, 75, 80
2, 20032, Note_off_c, 0, 78, 80
2, 20064, Note_on_c, 0, 69, 125
2, 20192, Note_off_c, 0, 69, 80
2, 20640, Note_on_c, 0, 68, 125
2, 20640, Note_on_c, 0, 75, 125
2, 20640, Note_on_c, 0, 80, 125
2, 20736, Note_on_c, 0, 64, 125
2, 20736, Note_on_c, 0, 68, 125
2, 20736, Note_on_c, 0, 73, 125
2, 20736, Note_on_c, 0, 76, 125
2, 20736, Note_on_c, 0, 62, 125
2, 20768, Note_off_c, 0, 68, 80
2, 20768, Note_off_c, 0, 80, 80
2, 20768, Note_off_c, 0, 75, 80
2, 20800, Note_off_c, 0, 62, 80
2, 20864, Note_off_c, 0, 64, 80
2, 20864, Note_off_c, 0, 68, 80
2, 20864, Note_off_c, 0, 73, 80
2, 20864, Note_off_c, 0, 76, 80
2, 20928, Note_on_c, 0, 64, 125
2, 20928, Note_on_c, 0, 68, 125
2, 20928, Note_on_c, 0, 73, 125
2, 20928, Note_on_c, 0, 76, 125
2, 20992, Note_off_c, 0, 64, 80
2, 20992, Note_off_c, 0, 68, 80
2, 20992, Note_off_c, 0, 73, 80
2, 20992, Note_off_c, 0, 76, 80
2, 21024, Note_on_c, 0, 64, 125
2, 21024, Note_on_c, 0, 68, 125
2, 21024, Note_on_c, 0, 73, 125
2, 21024, Note_on_c, 0, 76, 125
2, 21088, Note_off_c, 0, 64, 80
2, 21088, Note_off_c, 0, 68, 80
2, 21088, Note_off_c, 0, 73, 80
2, 21088, Note_off_c, 0, 76, 80
2, 21120, Note_on_c, 0, 69, 125
2, 21120, Note_on_c, 0, 73, 125
2, 21120, Note_on_c, 0, 81, 125
2, 21248, Note_off_c, 0, 69, 80
2, 21248, Note_off_c, 0, 73, 80
2, 21248, Note_off_c, 0, 81, 80
2, 21312, Note_on_c, 0, 80, 125
2, 21312, Note_on_c, 0, 73, 125
2, 21312, Note_on_c, 0, 68, 125
2, 21440, Note_off_c, 0, 80, 80
2, 21440, Note_off_c, 0, 73, 80
2, 21440, Note_off_c, 0, 68, 80
2, 21504, Note_on_c, 0, 66, 125
2, 21504, Note_on_c, 0, 73, 125
2, 21504, Note_on_c, 0, 78, 125
2, 21632, Note_off_c, 0, 66, 80
2, 21632, Note_off_c, 0, 73, 80
2, 21632, Note_off_c, 0, 78, 80
2, 21696, Note_on_c, 0, 80, 125
2, 21696, Note_on_c, 0, 75, 125
2, 21696, Note_on_c, 0, 72, 125
2, 21696, Note_on_c, 0, 68, 125
2, 21696, Note_on_c, 0, 66, 125
2, 21824, Note_off_c, 0, 80, 80
2, 21824, Note_off_c, 0, 75, 80
2, 21824, Note_off_c, 0, 72, 80
2, 21824, Note_off_c, 0, 68, 80
2, 21824, Note_off_c, 0, 66, 80
2, 21888, Note_on_c, 0, 64, 125
2, 21888, Note_on_c, 0, 68, 125
2, 21888, Note_on_c, 0, 73, 125
2, 21888, Note_on_c, 0, 76, 125
2, 22016, Note_off_c, 0, 64, 80
2, 22016, Note_off_c, 0, 68, 80
2, 22016, Note_off_c, 0, 73, 80
2, 22016, Note_off_c, 0, 76, 80
2, 22080, Note_on_c, 0, 75, 125
2, 22080, Note_on_c, 0, 73, 125
2, 22080, Note_on_c, 0, 70, 125
2, 22080, Note_on_c, 0, 67, 125
2, 22080, Note_on_c, 0, 63, 125
2, 22080, Note_on_c, 0, 61, 125
2, 22208, Note_off_c, 0, 75, 80
2, 22208, Note_off_c, 0, 73, 80
2, 22208, Note_off_c, 0, 70, 80
2, 22208, Note_off_c, 0, 67, 80
2, 22208, Note_off_c, 0, 63, 80
2, 22208, Note_off_c, 0, 61, 80
2, 22272, Note_on_c, 0, 63, 125
2, 22272, Note_on_c, 0, 60, 125
2, 22272, Note_on_c, 0, 68, 125
2, 22272, Note_on_c, 0, 72, 125
2, 22400, Note_off_c, 0, 63, 80
2, 22400, Note_off_c, 0, 60, 80
2, 22400, Note_off_c, 0, 68, 80
2, 22400, Note_off_c, 0, 72, 80
2, 22464, Note_on_c, 0, 63, 125
2, 22464, Note_on_c, 0, 75, 125
2, 22528, Note_off_c, 0, 63, 80
2, 22528, Note_off_c, 0, 75, 80
2, 22560, Note_on_c, 0, 63, 125
2, 22560, Note_on_c, 0, 75, 125
2, 22624, Note_off_c, 0, 63, 80
2, 22624, Note_off_c, 0, 75, 80
2, 22656, Note_on_c, 0, 63, 125
2, 22656, Note_on_c, 0, 75, 125
2, 22720, Note_off_c, 0, 63, 80
2, 22720, Note_off_c, 0, 75, 80
2, 22752, Note_on_c, 0, 63, 125
2, 22752, Note_on_c, 0, 75, 125
2, 22816, Note_off_c, 0, 63, 80
2, 22816, Note_off_c, 0, 75, 80
2, 22848, Note_on_c, 0, 63, 125
2, 22848, Note_on_c, 0, 75, 125
2, 22912, Note_off_c, 0, 63, 80
2, 22912, Note_off_c, 0, 75, 80
2, 22944, Note_on_c, 0, 63, 125
2, 22944, Note_on_c, 0, 75, 125
2, 23008, Note_off_c, 0, 63, 80
2, 23008, Note_off_c, 0, 75, 80
2, 23040, Note_on_c, 0, 73, 125
2, 23040, Note_on_c, 0, 75, 125
2, 23040, Note_on_c, 0, 79, 125
2, 23040, Note_on_c, 0, 82, 125
2, 23040, Note_on_c, 0, 87, 125
2, 23168, Note_off_c, 0, 73, 80
2, 23168, Note_off_c, 0, 75, 80
2, 23168, Note_off_c, 0, 79, 80
2, 23168, Note_off_c, 0, 82, 80
2, 23168, Note_off_c, 0, 87, 80
2, 23328, Note_on_c, 0, 70, 125
2, 23328, Note_on_c, 0, 73, 125
2, 23328, Note_on_c, 0, 75, 125
2, 23328, Note_on_c, 0, 82, 125
2, 23392, Note_off_c, 0, 70, 80
2, 23392, Note_off_c, 0, 73, 80
2, 23392, Note_off_c, 0, 75, 80
2, 23392, Note_off_c, 0, 82, 80
2, 23424, Note_on_c, 0, 70, 125
2, 23424, Note_on_c, 0, 73, 125
2, 23424, Note_on_c, 0, 75, 125
2, 23424, Note_on_c, 0, 82, 125
2, 23520, Note_on_c, 0, 62, 125
2, 23552, Note_off_c, 0, 70, 80
2, 23552, Note_off_c, 0, 73, 80
2, 23552, Note_off_c, 0, 75, 80
2, 23552, Note_off_c, 0, 82, 80
2, 23584, Note_off_c, 0, 62, 80
2, 23616, Note_on_c, 0, 63, 125
2, 23680, Note_off_c, 0, 63, 80
2, 23712, Note_on_c, 0, 65, 125
2, 23776, Note_off_c, 0, 65, 80
2, 23808, Note_on_c, 0, 63, 125
2, 23936, Note_off_c, 0, 63, 80
2, 24000, Note_on_c, 0, 72, 125
2, 24000, Note_on_c, 0, 75, 125
2, 24000, Note_on_c, 0, 80, 125
2, 24000, Note_on_c, 0, 84, 125
2, 24128, Note_off_c, 0, 72, 80
2, 24128, Note_off_c, 0, 75, 80
2, 24128, Note_off_c, 0, 80, 80
2, 24128, Note_off_c, 0, 84, 80
2, 24192, Note_on_c, 0, 73, 125
2, 24192, Note_on_c, 0, 75, 125
2, 24192, Note_on_c, 0, 79, 125
2, 24192, Note_on_c, 0, 82, 125
2, 24192, Note_on_c, 0, 87, 125
2, 24288, Note_on_c, 0, 70, 125
2, 24288, Note_on_c, 0, 73, 125
2, 24288, Note_on_c, 0, 75, 125
2, 24288, Note_on_c, 0, 82, 125
2, 24320, Note_off_c, 0, 73, 80
2, 24320, Note_off_c, 0, 75, 80
2, 24320, Note_off_c, 0, 79, 80
2, 24320, Note_off_c, 0, 82, 80
2, 24320, Note_off_c, 0, 87, 80
2, 24352, Note_off_c, 0, 70, 80
2, 24352, Note_off_c, 0, 73, 80
2, 24352, Note_off_c, 0, 75, 80
2, 24352, Note_off_c, 0, 82, 80
2, 24384, Note_on_c, 0, 70, 125
2, 24384, Note_on_c, 0, 73, 125
2, 24384, Note_on_c, 0, 73, 125
2, 24384, Note_on_c, 0, 82, 125
2, 24384, Note_on_c, 0, 75, 125
2, 24448, Note_off_c, 0, 70, 80
2, 24448, Note_off_c, 0, 73, 80
2, 24448, Note_off_c, 0, 73, 80
2, 24448, Note_off_c, 0, 82, 80
2, 24448, Note_off_c, 0, 75, 80
2, 24480, Note_on_c, 0, 70, 125
2, 24480, Note_on_c, 0, 73, 125
2, 24480, Note_on_c, 0, 75, 125
2, 24480, Note_on_c, 0, 82, 125
2, 24544, Note_off_c, 0, 70, 80
2, 24544, Note_off_c, 0, 73, 80
2, 24544, Note_off_c, 0, 75, 80
2, 24544, Note_off_c, 0, 82, 80
2, 24576, Note_on_c, 0, 70, 125
2, 24576, Note_on_c, 0, 73, 125
2, 24576, Note_on_c, 0, 75, 125
2, 24576, Note_on_c, 0, 82, 125
2, 24672, Note_on_c, 0, 62, 125
2, 24704, Note_off_c, 0, 70, 80
2, 24704, Note_off_c, 0, 73, 80
2, 24704, Note_off_c, 0, 75, 80
2, 24704, Note_off_c, 0, 82, 80
2, 24736, Note_off_c, 0, 62, 80
2, 24768, Note_on_c, 0, 63, 125
2, 24832, Note_off_c, 0, 63, 80
2, 24864, Note_on_c, 0, 65, 125
2, 24928, Note_off_c, 0, 65, 80
2, 24960, Note_on_c, 0, 63, 125
2, 25088, Note_off_c, 0, 63, 80
2, 25152, Note_on_c, 0, 72, 125
2, 25152, Note_on_c, 0, 75, 125
2, 25152, Note_on_c, 0, 80, 125
2, 25152, Note_on_c, 0, 84, 125
2, 25280, Note_off_c, 0, 72, 80
2, 25280, Note_off_c, 0, 75, 80
2, 25280, Note_off_c, 0, 80, 80
2, 25280, Note_off_c, 0, 84, 80
2, 25344, Note_on_c, 0, 73, 125
2, 25344, Note_on_c, 0, 78, 125
2, 25344, Note_on_c, 0, 85, 125
2, 25440, Note_on_c, 0, 78, 125
2, 25440, Note_on_c, 0, 73, 125
2, 25440, Note_on_c, 0, 66, 125
2, 25472, Note_off_c, 0, 73, 80
2, 25472, Note_off_c, 0, 78, 80
2, 25472, Note_off_c, 0, 85, 80
2, 25504, Note_off_c, 0, 78, 80
2, 25504, Note_off_c, 0, 73, 80
2, 25504, Note_off_c, 0, 66, 80
2, 25536, Note_on_c, 0, 78, 125
2, 25536, Note_on_c, 0, 73, 125
2, 25536, Note_on_c, 0, 66, 125
2, 25600, Note_off_c, 0, 78, 80
2, 25600, Note_off_c, 0, 73, 80
2, 25600, Note_off_c, 0, 66, 80
2, 25632, Note_on_c, 0, 78, 125
2, 25632, Note_on_c, 0, 73, 125
2, 25632, Note_on_c, 0, 66, 125
2, 25696, Note_off_c, 0, 78, 80
2, 25696, Note_off_c, 0, 73, 80
2, 25696, Note_off_c, 0, 66, 80
2, 25728, Note_on_c, 0, 66, 125
2, 25728, Note_on_c, 0, 73, 125
2, 25728, Note_on_c, 0, 78, 125
2, 25856, Note_off_c, 0, 66, 80
2, 25856, Note_off_c, 0, 73, 80
2, 25856, Note_off_c, 0, 78, 80
2, 25920, Note_on_c, 0, 68, 125
2, 25920, Note_on_c, 0, 73, 125
2, 25920, Note_on_c, 0, 76, 125
2, 25920, Note_on_c, 0, 80, 125
2, 26048, Note_off_c, 0, 68, 80
2, 26048, Note_off_c, 0, 73, 80
2, 26048, Note_off_c, 0, 76, 80
2, 26048, Note_off_c, 0, 80, 80
2, 26112, Note_on_c, 0, 69, 125
2, 26112, Note_on_c, 0, 73, 125
2, 26112, Note_on_c, 0, 76, 125
2, 26112, Note_on_c, 0, 81, 125
2, 26240, Note_off_c, 0, 69, 80
2, 26240, Note_off_c, 0, 73, 80
2, 26240, Note_off_c, 0, 76, 80
2, 26240, Note_off_c, 0, 81, 80
2, 26304, Note_on_c, 0, 69, 125
2, 26304, Note_on_c, 0, 71, 125
2, 26304, Note_on_c, 0, 75, 125
2, 26304, Note_on_c, 0, 83, 125
2, 26432, Note_off_c, 0, 69, 80
2, 26432, Note_off_c, 0, 71, 80
2, 26432, Note_off_c, 0, 75, 80
2, 26432, Note_off_c, 0, 83, 80
2, 26496, Note_on_c, 0, 64, 125
2, 26496, Note_on_c, 0, 68, 125
2, 26496, Note_on_c, 0, 76, 125
2, 26624, Note_off_c, 0, 64, 80
2, 26624, Note_off_c, 0, 68, 80
2, 26624, Note_off_c, 0, 76, 80
2, 26688, Note_on_c, 0, 64, 125
2, 26688, Note_on_c, 0, 69, 125
2, 26688, Note_on_c, 0, 76, 125
2, 26784, Note_off_c, 0, 64, 80
2, 26784, Note_off_c, 0, 69, 80
2, 26784, Note_off_c, 0, 76, 80
2, 26784, Note_on_c, 0, 76, 125
2, 26784, Note_on_c, 0, 64, 125
2, 26848, Note_off_c, 0, 76, 80
2, 26848, Note_off_c, 0, 64, 80
2, 26880, Note_on_c, 0, 64, 125
2, 26880, Note_on_c, 0, 69, 125
2, 26880, Note_on_c, 0, 76, 125
2, 26976, Note_on_c, 0, 76, 125
2, 27008, Note_off_c, 0, 64, 80
2, 27008, Note_off_c, 0, 69, 80
2, 27008, Note_off_c, 0, 76, 80
2, 27072, Note_on_c, 0, 69, 125
2, 27072, Note_on_c, 0, 62, 125
2, 27072, Note_on_c, 0, 74, 125
2, 27104, Note_off_c, 0, 76, 80
2, 27136, Note_off_c, 0, 62, 80
2, 27136, Note_off_c, 0, 74, 80
2, 27168, Note_on_c, 0, 73, 125
2, 27168, Note_on_c, 0, 61, 125
2, 27200, Note_off_c, 0, 69, 80
2, 27232, Note_off_c, 0, 73, 80
2, 27232, Note_off_c, 0, 61, 80
2, 27264, Note_on_c, 0, 64, 125
2, 27264, Note_on_c, 0, 62, 125
2, 27264, Note_on_c, 0, 68, 125
2, 27264, Note_on_c, 0, 74, 125
2, 27360, Note_on_c, 0, 74, 125
2, 27392, Note_off_c, 0, 64, 80
2, 27392, Note_off_c, 0, 62, 80
2, 27392, Note_off_c, 0, 68, 80
2, 27392, Note_off_c, 0, 74, 80
2, 27456, Note_on_c, 0, 68, 125
2, 27456, Note_on_c, 0, 64, 125
2, 27456, Note_on_c, 0, 62, 125
2, 27456, Note_on_c, 0, 73, 125
2, 27488, Note_off_c, 0, 74, 80
2, 27520, Note_off_c, 0, 73, 80
2, 27552, Note_on_c, 0, 71, 125
2, 27584, Note_off_c, 0, 68, 80
2, 27584, Note_off_c, 0, 64, 80
2, 27584, Note_off_c, 0, 62, 80
2, 27616, Note_off_c, 0, 71, 80
2, 27648, Note_on_c, 0, 69, 125
2, 27776, Note_off_c, 0, 69, 80
2, 27936, Note_on_c, 0, 64, 125
2, 27936, Note_on_c, 0, 61, 125
2, 28000, Note_off_c, 0, 64, 80
2, 28000, Note_off_c, 0, 61, 80
2, 28032, Note_on_c, 0, 64, 125
2, 28032, Note_on_c, 0, 61, 125
2, 28160, Note_off_c, 0, 64, 80
2, 28160, Note_off_c, 0, 61, 80
2, 28320, Note_on_c, 0, 64, 125
2, 28320, Note_on_c, 0, 61, 125
2, 28384, Note_off_c, 0, 64, 80
2, 28384, Note_off_c, 0, 61, 80
2, 28416, Note_on_c, 0, 66, 125
2, 28416, Note_on_c, 0, 62, 125
2, 28480, Note_off_c, 0, 66, 80
2, 28480, Note_off_c, 0, 62, 80
2, 28512, Note_on_c, 0, 62, 125
2, 28512, Note_on_c, 0, 68, 125
2, 28576, Note_off_c, 0, 62, 80
2, 28576, Note_off_c, 0, 68, 80
2, 28608, Note_on_c, 0, 62, 125
2, 28608, Note_on_c, 0, 69, 125
2, 28672, Note_off_c, 0, 62, 80
2, 28672, Note_off_c, 0, 69, 80
2, 28704, Note_on_c, 0, 62, 125
2, 28704, Note_on_c, 0, 71, 125
2, 28768, Note_off_c, 0, 62, 80
2, 28768, Note_off_c, 0, 71, 80
2, 28800, Note_on_c, 0, 73, 125
2, 28800, Note_on_c, 0, 61, 125
2, 28992, Note_off_c, 0, 73, 80
2, 28992, Note_off_c, 0, 61, 80
2, 29088, Note_on_c, 0, 61, 125
2, 29088, Note_on_c, 0, 69, 125
2, 29152, Note_off_c, 0, 61, 80
2, 29152, Note_off_c, 0, 69, 80
2, 29184, Note_on_c, 0, 61, 125
2, 29184, Note_on_c, 0, 69, 125
2, 29312, Note_off_c, 0, 61, 80
2, 29312, Note_off_c, 0, 69, 80
2, 29952, Note_on_c, 0, 61, 125
2, 29952, Note_on_c, 0, 73, 125
2, 30080, Note_off_c, 0, 61, 80
2, 30080, Note_off_c, 0, 73, 80
2, 30240, Note_on_c, 0, 69, 125
2, 30240, Note_on_c, 0, 61, 125
2, 30304, Note_off_c, 0, 69, 80
2, 30304, Note_off_c, 0, 61, 80
2, 30336, Note_on_c, 0, 61, 125
2, 30336, Note_on_c, 0, 69, 125
2, 30464, Note_off_c, 0, 61, 80
2, 30464, Note_off_c, 0, 69, 80
2, 30624, Note_on_c, 0, 68, 125
2, 30624, Note_on_c, 0, 61, 125
2, 30688, Note_off_c, 0, 68, 80
2, 30688, Note_off_c, 0, 61, 80
2, 30720, Note_on_c, 0, 61, 125
2, 30720, Note_on_c, 0, 68, 125
2, 30784, Note_off_c, 0, 61, 80
2, 30784, Note_off_c, 0, 68, 80
2, 30816, Note_on_c, 0, 61, 125
2, 30816, Note_on_c, 0, 69, 125
2, 30816, Note_on_c, 0, 71, 125
2, 30880, Note_off_c, 0, 61, 80
2, 30880, Note_off_c, 0, 69, 80
2, 30880, Note_off_c, 0, 71, 80
2, 30912, Note_on_c, 0, 61, 125
2, 30912, Note_on_c, 0, 69, 125
2, 30912, Note_on_c, 0, 73, 125
2, 30976, Note_off_c, 0, 61, 80
2, 30976, Note_off_c, 0, 69, 80
2, 30976, Note_off_c, 0, 73, 80
2, 31008, Note_on_c, 0, 61, 125
2, 31008, Note_on_c, 0, 69, 125
2, 31008, Note_on_c, 0, 74, 125
2, 31072, Note_off_c, 0, 61, 80
2, 31072, Note_off_c, 0, 69, 80
2, 31072, Note_off_c, 0, 74, 80
2, 31104, Note_on_c, 0, 63, 125
2, 31104, Note_on_c, 0, 69, 125
2, 31104, Note_on_c, 0, 78, 125
2, 31296, Note_off_c, 0, 63, 80
2, 31296, Note_off_c, 0, 69, 80
2, 31296, Note_off_c, 0, 78, 80
2, 31392, Note_on_c, 0, 64, 125
2, 31392, Note_on_c, 0, 69, 125
2, 31392, Note_on_c, 0, 76, 125
2, 31456, Note_off_c, 0, 64, 80
2, 31456, Note_off_c, 0, 69, 80
2, 31456, Note_off_c, 0, 76, 80
2, 31488, Note_on_c, 0, 64, 125
2, 31488, Note_on_c, 0, 69, 125
2, 31488, Note_on_c, 0, 76, 125
2, 31616, Note_off_c, 0, 64, 80
2, 31616, Note_off_c, 0, 69, 80
2, 31616, Note_off_c, 0, 76, 80
2, 32256, Note_on_c, 0, 73, 125
2, 32256, Note_on_c, 0, 77, 125
2, 32256, Note_on_c, 0, 85, 125
2, 32384, Note_off_c, 0, 73, 80
2, 32384, Note_off_c, 0, 77, 80
2, 32384, Note_off_c, 0, 85, 80
2, 32448, Note_on_c, 0, 68, 125
2, 32448, Note_on_c, 0, 73, 125
2, 32448, Note_on_c, 0, 80, 125
2, 32512, Note_off_c, 0, 68, 80
2, 32512, Note_off_c, 0, 73, 80
2, 32512, Note_off_c, 0, 80, 80
2, 32544, Note_on_c, 0, 68, 125
2, 32544, Note_on_c, 0, 73, 125
2, 32544, Note_on_c, 0, 80, 125
2, 32608, Note_off_c, 0, 68, 80
2, 32608, Note_off_c, 0, 73, 80
2, 32608, Note_off_c, 0, 80, 80
2, 32640, Note_on_c, 0, 68, 125
2, 32640, Note_on_c, 0, 73, 125
2, 32640, Note_on_c, 0, 80, 125
2, 32704, Note_off_c, 0, 68, 80
2, 32704, Note_off_c, 0, 73, 80
2, 32704, Note_off_c, 0, 80, 80
2, 32736, Note_on_c, 0, 68, 125
2, 32736, Note_on_c, 0, 73, 125
2, 32736, Note_on_c, 0, 80, 125
2, 32864, Note_off_c, 0, 68, 80
2, 32864, Note_off_c, 0, 73, 80
2, 32864, Note_off_c, 0, 80, 80
2, 32928, Note_on_c, 0, 68, 125
2, 32928, Note_on_c, 0, 73, 125
2, 32928, Note_on_c, 0, 80, 125
2, 33024, Note_on_c, 0, 70, 125
2, 33024, Note_on_c, 0, 75, 125
2, 33024, Note_on_c, 0, 82, 125
2, 33056, Note_off_c, 0, 68, 80
2, 33056, Note_off_c, 0, 73, 80
2, 33056, Note_off_c, 0, 80, 80
2, 33088, Note_off_c, 0, 70, 80
2, 33088, Note_off_c, 0, 75, 80
2, 33088, Note_off_c, 0, 82, 80
2, 33120, Note_on_c, 0, 72, 125
2, 33120, Note_on_c, 0, 84, 125
2, 33184, Note_off_c, 0, 72, 80
2, 33184, Note_off_c, 0, 84, 80
2, 33216, Note_on_c, 0, 73, 125
2, 33216, Note_on_c, 0, 80, 125
2, 33216, Note_on_c, 0, 85, 125
2, 33280, Note_off_c, 0, 73, 80
2, 33280, Note_off_c, 0, 80, 80
2, 33280, Note_off_c, 0, 85, 80
2, 33312, Note_on_c, 0, 75, 125
2, 33312, Note_on_c, 0, 87, 125
2, 33376, Note_off_c, 0, 75, 80
2, 33376, Note_off_c, 0, 87, 80
2, 33408, Note_on_c, 0, 77, 125
2, 33408, Note_on_c, 0, 85, 125
2, 33408, Note_on_c, 0, 89, 125
2, 33600, Note_off_c, 0, 77, 80
2, 33600, Note_off_c, 0, 85, 80
2, 33600, Note_off_c, 0, 89, 80
2, 33696, Note_on_c, 0, 85, 125
2, 33696, Note_on_c, 0, 73, 125
2, 33760, Note_off_c, 0, 85, 80
2, 33760, Note_off_c, 0, 73, 80
2, 33792, Note_on_c, 0, 73, 125
2, 33792, Note_on_c, 0, 85, 125
2, 33920, Note_off_c, 0, 73, 80
2, 33920, Note_off_c, 0, 85, 80
2, 33984, Note_on_c, 0, 85, 125
2, 33984, Note_on_c, 0, 73, 125
2, 34048, Note_off_c, 0, 85, 80
2, 34048, Note_off_c, 0, 73, 80
2, 34080, Note_on_c, 0, 85, 125
2, 34080, Note_on_c, 0, 73, 125
2, 34144, Note_off_c, 0, 85, 80
2, 34144, Note_off_c, 0, 73, 80
2, 34176, Note_on_c, 0, 85, 125
2, 34176, Note_on_c, 0, 73, 125
2, 34240, Note_off_c, 0, 85, 80
2, 34240, Note_off_c, 0, 73, 80
2, 34272, Note_on_c, 0, 85, 125
2, 34272, Note_on_c, 0, 73, 125
2, 34336, Note_off_c, 0, 85, 80
2, 34336, Note_off_c, 0, 73, 80
2, 34368, Note_on_c, 0, 85, 125
2, 34368, Note_on_c, 0, 73, 125
2, 34432, Note_off_c, 0, 85, 80
2, 34432, Note_off_c, 0, 73, 80
2, 34464, Note_on_c, 0, 85, 125
2, 34464, Note_on_c, 0, 73, 125
2, 34528, Note_off_c, 0, 85, 80
2, 34528, Note_off_c, 0, 73, 80
2, 34560, Note_on_c, 0, 73, 125
2, 34560, Note_on_c, 0, 85, 125
2, 34688, Note_off_c, 0, 73, 80
2, 34688, Note_off_c, 0, 85, 80
2, 34752, Note_on_c, 0, 71, 125
2, 34752, Note_on_c, 0, 83, 125
2, 34752, Note_on_c, 0, 78, 125
2, 34848, Note_off_c, 0, 71, 80
2, 34848, Note_off_c, 0, 83, 80
2, 34848, Note_off_c, 0, 78, 80
2, 34848, Note_on_c, 0, 71, 125
2, 34848, Note_on_c, 0, 78, 125
2, 34848, Note_on_c, 0, 83, 125
2, 34912, Note_off_c, 0, 71, 80
2, 34912, Note_off_c, 0, 78, 80
2, 34912, Note_off_c, 0, 83, 80
2, 34944, Note_on_c, 0, 71, 125
2, 34944, Note_on_c, 0, 78, 125
2, 34944, Note_on_c, 0, 83, 125
2, 35072, Note_off_c, 0, 71, 80
2, 35072, Note_off_c, 0, 78, 80
2, 35072, Note_off_c, 0, 83, 80
2, 35136, Note_on_c, 0, 73, 125
2, 35136, Note_on_c, 0, 85, 125
2, 35264, Note_off_c, 0, 73, 80
2, 35264, Note_off_c, 0, 85, 80
2, 35328, Note_on_c, 0, 76, 125
2, 35328, Note_on_c, 0, 81, 125
2, 35328, Note_on_c, 0, 88, 125
2, 35456, Note_off_c, 0, 76, 80
2, 35456, Note_off_c, 0, 81, 80
2, 35456, Note_off_c, 0, 88, 80
2, 35520, Note_on_c, 0, 74, 125
2, 35520, Note_on_c, 0, 86, 125
2, 35584, Note_off_c, 0, 74, 80
2, 35584, Note_off_c, 0, 86, 80
2, 35616, Note_on_c, 0, 73, 125
2, 35616, Note_on_c, 0, 85, 125
2, 35680, Note_off_c, 0, 73, 80
2, 35680, Note_off_c, 0, 85, 80
2, 35712, Note_on_c, 0, 71, 125
2, 35712, Note_on_c, 0, 83, 125
2, 35840, Note_off_c, 0, 71, 80
2, 35840, Note_off_c, 0, 83, 80
2, 35904, Note_on_c, 0, 71, 125
2, 35904, Note_on_c, 0, 76, 125
2, 35904, Note_on_c, 0, 83, 125
2, 36000, Note_off_c, 0, 71, 80
2, 36000, Note_off_c, 0, 76, 80
2, 36000, Note_off_c, 0, 83, 80
2, 36000, Note_on_c, 0, 73, 125
2, 36000, Note_on_c, 0, 85, 125
2, 36064, Note_off_c, 0, 73, 80
2, 36064, Note_off_c, 0, 85, 80
2, 36096, Note_on_c, 0, 71, 125
2, 36096, Note_on_c, 0, 76, 125
2, 36096, Note_on_c, 0, 83, 125
2, 36352, Note_off_c, 0, 71, 80
2, 36352, Note_off_c, 0, 76, 80
2, 36352, Note_off_c, 0, 83, 80
2, 36480, Note_on_c, 0, 69, 125
2, 36480, Note_on_c, 0, 81, 125
2, 36608, Note_off_c, 0, 69, 80
2, 36608, Note_off_c, 0, 81, 80
2, 36864, Note_on_c, 0, 83, 125
2, 36864, Note_on_c, 0, 83, 125
2, 36864, Note_on_c, 0, 78, 125
2, 36864, Note_on_c, 0, 75, 125
2, 36864, Note_on_c, 0, 71, 125
2, 36864, Note_on_c, 0, 69, 125
2, 36992, Note_off_c, 0, 83, 80
2, 36992, Note_off_c, 0, 83, 80
2, 36992, Note_off_c, 0, 78, 80
2, 36992, Note_off_c, 0, 75, 80
2, 36992, Note_off_c, 0, 71, 80
2, 36992, Note_off_c, 0, 69, 80
2, 37152, Note_on_c, 0, 69, 125
2, 37152, Note_on_c, 0, 71, 125
2, 37152, Note_on_c, 0, 75, 125
2, 37152, Note_on_c, 0, 78, 125
2, 37216, Note_off_c, 0, 69, 80
2, 37216, Note_off_c, 0, 71, 80
2, 37216, Note_off_c, 0, 75, 80
2, 37216, Note_off_c, 0, 78, 80
2, 37248, Note_on_c, 0, 69, 125
2, 37248, Note_on_c, 0, 71, 125
2, 37248, Note_on_c, 0, 75, 125
2, 37248, Note_on_c, 0, 78, 125
2, 37376, Note_off_c, 0, 69, 80
2, 37376, Note_off_c, 0, 71, 80
2, 37376, Note_off_c, 0, 75, 80
2, 37376, Note_off_c, 0, 78, 80
2, 37824, Note_on_c, 0, 68, 125
2, 37824, Note_on_c, 0, 76, 125
2, 37824, Note_on_c, 0, 80, 125
2, 37952, Note_off_c, 0, 68, 80
2, 37952, Note_off_c, 0, 76, 80
2, 37952, Note_off_c, 0, 80, 80
2, 38016, Note_on_c, 0, 69, 125
2, 38016, Note_on_c, 0, 71, 125
2, 38016, Note_on_c, 0, 75, 125
2, 38016, Note_on_c, 0, 78, 125
2, 38016, Note_on_c, 0, 83, 125
2, 38144, Note_off_c, 0, 69, 80
2, 38144, Note_off_c, 0, 71, 80
2, 38144, Note_off_c, 0, 75, 80
2, 38144, Note_off_c, 0, 78, 80
2, 38144, Note_off_c, 0, 83, 80
2, 38208, Note_on_c, 0, 69, 125
2, 38208, Note_on_c, 0, 71, 125
2, 38208, Note_on_c, 0, 75, 125
2, 38208, Note_on_c, 0, 78, 125
2, 38272, Note_off_c, 0, 69, 80
2, 38272, Note_off_c, 0, 71, 80
2, 38272, Note_off_c, 0, 75, 80
2, 38272, Note_off_c, 0, 78, 80
2, 38304, Note_on_c, 0, 69, 125
2, 38304, Note_on_c, 0, 71, 125
2, 38304, Note_on_c, 0, 75, 125
2, 38304, Note_on_c, 0, 78, 125
2, 38368, Note_off_c, 0, 69, 80
2, 38368, Note_off_c, 0, 71, 80
2, 38368, Note_off_c, 0, 75, 80
2, 38368, Note_off_c, 0, 78, 80
2, 38400, Note_on_c, 0, 69, 125
2, 38400, Note_on_c, 0, 71, 125
2, 38400, Note_on_c, 0, 75, 125
2, 38400, Note_on_c, 0, 78, 125
2, 38464, Note_off_c, 0, 69, 80
2, 38464, Note_off_c, 0, 71, 80
2, 38464, Note_off_c, 0, 75, 80
2, 38464, Note_off_c, 0, 78, 80
2, 38496, Note_on_c, 0, 69, 125
2, 38624, Note_off_c, 0, 69, 80
2, 39072, Note_on_c, 0, 68, 125
2, 39072, Note_on_c, 0, 75, 125
2, 39072, Note_on_c, 0, 80, 125
2, 39168, Note_on_c, 0, 64, 125
2, 39168, Note_on_c, 0, 68, 125
2, 39168, Note_on_c, 0, 73, 125
2, 39168, Note_on_c, 0, 76, 125
2, 39168, Note_on_c, 0, 62, 125
2, 39200, Note_off_c, 0, 68, 80
2, 39200, Note_off_c, 0, 75, 80
2, 39200, Note_off_c, 0, 80, 80
2, 39232, Note_off_c, 0, 62, 80
2, 39296, Note_off_c, 0, 64, 80
2, 39296, Note_off_c, 0, 68, 80
2, 39296, Note_off_c, 0, 73, 80
2, 39296, Note_off_c, 0, 76, 80
2, 39360, Note_on_c, 0, 64, 125
2, 39360, Note_on_c, 0, 68, 125
2, 39360, Note_on_c, 0, 73, 125
2, 39360, Note_on_c, 0, 76, 125
2, 39424, Note_off_c, 0, 64, 80
2, 39424, Note_off_c, 0, 68, 80
2, 39424, Note_off_c, 0, 73, 80
2, 39424, Note_off_c, 0, 76, 80
2, 39456, Note_on_c, 0, 64, 125
2, 39456, Note_on_c, 0, 68, 125
2, 39456, Note_on_c, 0, 73, 125
2, 39456, Note_on_c, 0, 76, 125
2, 39520, Note_off_c, 0, 64, 80
2, 39520, Note_off_c, 0, 68, 80
2, 39520, Note_off_c, 0, 73, 80
2, 39520, Note_off_c, 0, 76, 80
2, 39552, Note_on_c, 0, 69, 125
2, 39552, Note_on_c, 0, 73, 125
2, 39552, Note_on_c, 0, 81, 125
2, 39680, Note_off_c, 0, 69, 80
2, 39680, Note_off_c, 0, 73, 80
2, 39680, Note_off_c, 0, 81, 80
2, 39744, Note_on_c, 0, 80, 125
2, 39744, Note_on_c, 0, 73, 125
2, 39744, Note_on_c, 0, 68, 125
2, 39872, Note_off_c, 0, 80, 80
2, 39872, Note_off_c, 0, 73, 80
2, 39872, Note_off_c, 0, 68, 80
2, 39936, Note_on_c, 0, 66, 125
2, 39936, Note_on_c, 0, 73, 125
2, 39936, Note_on_c, 0, 78, 125
2, 40064, Note_off_c, 0, 66, 80
2, 40064, Note_off_c, 0, 73, 80
2, 40064, Note_off_c, 0, 78, 80
2, 40128, Note_on_c, 0, 80, 125
2, 40128, Note_on_c, 0, 75, 125
2, 40128, Note_on_c, 0, 72, 125
2, 40128, Note_on_c, 0, 68, 125
2, 40128, Note_on_c, 0, 66, 125
2, 40256, Note_off_c, 0, 80, 80
2, 40256, Note_off_c, 0, 75, 80
2, 40256, Note_off_c, 0, 72, 80
2, 40256, Note_off_c, 0, 68, 80
2, 40256, Note_off_c, 0, 66, 80
2, 40320, Note_on_c, 0, 64, 125
2, 40320, Note_on_c, 0, 68, 125
2, 40320, Note_on_c, 0, 73, 125
2, 40320, Note_on_c, 0, 76, 125
2, 40448, Note_off_c, 0, 64, 80
2, 40448, Note_off_c, 0, 68, 80
2, 40448, Note_off_c, 0, 73, 80
2, 40448, Note_off_c, 0, 76, 80
2, 40512, Note_on_c, 0, 75, 125
2, 40512, Note_on_c, 0, 73, 125
2, 40512, Note_on_c, 0, 70, 125
2, 40512, Note_on_c, 0, 67, 125
2, 40512, Note_on_c, 0, 63, 125
2, 40512, Note_on_c, 0, 61, 125
2, 40640, Note_off_c, 0, 75, 80
2, 40640, Note_off_c, 0, 73, 80
2, 40640, Note_off_c, 0, 70, 80
2, 40640, Note_off_c, 0, 67, 80
2, 40640, Note_off_c, 0, 63, 80
2, 40640, Note_off_c, 0, 61, 80
2, 40704, Note_on_c, 0, 63, 125
2, 40704, Note_on_c, 0, 60, 125
2, 40704, Note_on_c, 0, 68, 125
2, 40704, Note_on_c, 0, 72, 125
2, 40832, Note_off_c, 0, 63, 80
2, 40832, Note_off_c, 0, 60, 80
2, 40832, Note_off_c, 0, 68, 80
2, 40832, Note_off_c, 0, 72, 80
2, 40896, Note_on_c, 0, 63, 125
2, 40896, Note_on_c, 0, 75, 125
2, 40960, Note_off_c, 0, 63, 80
2, 40960, Note_off_c, 0, 75, 80
2, 40992, Note_on_c, 0, 63, 125
2, 40992, Note_on_c, 0, 75, 125
2, 41056, Note_off_c, 0, 63, 80
2, 41056, Note_off_c, 0, 75, 80
2, 41088, Note_on_c, 0, 63, 125
2, 41088, Note_on_c, 0, 75, 125
2, 41152, Note_off_c, 0, 63, 80
2, 41152, Note_off_c, 0, 75, 80
2, 41184, Note_on_c, 0, 63, 125
2, 41184, Note_on_c, 0, 75, 125
2, 41248, Note_off_c, 0, 63, 80
2, 41248, Note_off_c, 0, 75, 80
2, 41280, Note_on_c, 0, 63, 125
2, 41280, Note_on_c, 0, 75, 125
2, 41344, Note_off_c, 0, 63, 80
2, 41344, Note_off_c, 0, 75, 80
2, 41376, Note_on_c, 0, 63, 125
2, 41376, Note_on_c, 0, 75, 125
2, 41440, Note_off_c, 0, 63, 80
2, 41440, Note_off_c, 0, 75, 80
2, 41472, Note_on_c, 0, 73, 125
2, 41472, Note_on_c, 0, 75, 125
2, 41472, Note_on_c, 0, 79, 125
2, 41472, Note_on_c, 0, 82, 125
2, 41472, Note_on_c, 0, 87, 125
2, 41600, Note_off_c, 0, 73, 80
2, 41600, Note_off_c, 0, 75, 80
2, 41600, Note_off_c, 0, 79, 80
2, 41600, Note_off_c, 0, 82, 80
2, 41600, Note_off_c, 0, 87, 80
2, 41760, Note_on_c, 0, 70, 125
2, 41760, Note_on_c, 0, 73, 125
2, 41760, Note_on_c, 0, 75, 125
2, 41760, Note_on_c, 0, 82, 125
2, 41824, Note_off_c, 0, 70, 80
2, 41824, Note_off_c, 0, 73, 80
2, 41824, Note_off_c, 0, 75, 80
2, 41824, Note_off_c, 0, 82, 80
2, 41856, Note_on_c, 0, 70, 125
2, 41856, Note_on_c, 0, 73, 125
2, 41856, Note_on_c, 0, 75, 125
2, 41856, Note_on_c, 0, 82, 125
2, 41952, Note_on_c, 0, 62, 125
2, 41984, Note_off_c, 0, 70, 80
2, 41984, Note_off_c, 0, 73, 80
2, 41984, Note_off_c, 0, 75, 80
2, 41984, Note_off_c, 0, 82, 80
2, 42016, Note_off_c, 0, 62, 80
2, 42048, Note_on_c, 0, 63, 125
2, 42112, Note_off_c, 0, 63, 80
2, 42144, Note_on_c, 0, 65, 125
2, 42208, Note_off_c, 0, 65, 80
2, 42240, Note_on_c, 0, 63, 125
2, 42368, Note_off_c, 0, 63, 80
2, 42432, Note_on_c, 0, 72, 125
2, 42432, Note_on_c, 0, 75, 125
2, 42432, Note_on_c, 0, 80, 125
2, 42432, Note_on_c, 0, 84, 125
2, 42560, Note_off_c, 0, 72, 80
2, 42560, Note_off_c, 0, 75, 80
2, 42560, Note_off_c, 0, 80, 80
2, 42560, Note_off_c, 0, 84, 80
2, 42624, Note_on_c, 0, 73, 125
2, 42624, Note_on_c, 0, 75, 125
2, 42624, Note_on_c, 0, 79, 125
2, 42624, Note_on_c, 0, 82, 125
2, 42624, Note_on_c, 0, 87, 125
2, 42720, Note_on_c, 0, 70, 125
2, 42720, Note_on_c, 0, 73, 125
2, 42720, Note_on_c, 0, 75, 125
2, 42720, Note_on_c, 0, 82, 125
2, 42752, Note_off_c, 0, 73, 80
2, 42752, Note_off_c, 0, 75, 80
2, 42752, Note_off_c, 0, 79, 80
2, 42752, Note_off_c, 0, 82, 80
2, 42752, Note_off_c, 0, 87, 80
2, 42784, Note_off_c, 0, 70, 80
2, 42784, Note_off_c, 0, 73, 80
2, 42784, Note_off_c, 0, 75, 80
2, 42784, Note_off_c, 0, 82, 80
2, 42816, Note_on_c, 0, 70, 125
2, 42816, Note_on_c, 0, 73, 125
2, 42816, Note_on_c, 0, 73, 125
2, 42816, Note_on_c, 0, 82, 125
2, 42816, Note_on_c, 0, 75, 125
2, 42880, Note_off_c, 0, 70, 80
2, 42880, Note_off_c, 0, 73, 80
2, 42880, Note_off_c, 0, 73, 80
2, 42880, Note_off_c, 0, 82, 80
2, 42880, Note_off_c, 0, 75, 80
2, 42912, Note_on_c, 0, 70, 125
2, 42912, Note_on_c, 0, 73, 125
2, 42912, Note_on_c, 0, 75, 125
2, 42912, Note_on_c, 0, 82, 125
2, 42976, Note_off_c, 0, 70, 80
2, 42976, Note_off_c, 0, 73, 80
2, 42976, Note_off_c, 0, 75, 80
2, 42976, Note_off_c, 0, 82, 80
2, 43008, Note_on_c, 0, 70, 125
2, 43008, Note_on_c, 0, 73, 125
2, 43008, Note_on_c, 0, 75, 125
2, 43008, Note_on_c, 0, 82, 125
2, 43104, Note_on_c, 0, 62, 125
2, 43136, Note_off_c, 0, 70, 80
2, 43136, Note_off_c, 0, 73, 80
2, 43136, Note_off_c, 0, 75, 80
2, 43136, Note_off_c, 0, 82, 80
2, 43168, Note_off_c, 0, 62, 80
2, 43200, Note_on_c, 0, 63, 125
2, 43264, Note_off_c, 0, 63, 80
2, 43296, Note_on_c, 0, 65, 125
2, 43360, Note_off_c, 0, 65, 80
2, 43392, Note_on_c, 0, 63, 125
2, 43520, Note_off_c, 0, 63, 80
2, 43584, Note_on_c, 0, 72, 125
2, 43584, Note_on_c, 0, 75, 125
2, 43584, Note_on_c, 0, 80, 125
2, 43584, Note_on_c, 0, 84, 125
2, 43712, Note_off_c, 0, 72, 80
2, 43712, Note_off_c, 0, 75, 80
2, 43712, Note_off_c, 0, 80, 80
2, 43712, Note_off_c, 0, 84, 80
2, 43776, Note_on_c, 0, 73, 125
2, 43776, Note_on_c, 0, 78, 125
2, 43776, Note_on_c, 0, 85, 125
2, 43872, Note_on_c, 0, 78, 125
2, 43872, Note_on_c, 0, 73, 125
2, 43872, Note_on_c, 0, 66, 125
2, 43904, Note_off_c, 0, 73, 80
2, 43904, Note_off_c, 0, 78, 80
2, 43904, Note_off_c, 0, 85, 80
2, 43936, Note_off_c, 0, 78, 80
2, 43936, Note_off_c, 0, 73, 80
2, 43936, Note_off_c, 0, 66, 80
2, 43968, Note_on_c, 0, 78, 125
2, 43968, Note_on_c, 0, 73, 125
2, 43968, Note_on_c, 0, 66, 125
2, 44032, Note_off_c, 0, 78, 80
2, 44032, Note_off_c, 0, 73, 80
2, 44032, Note_off_c, 0, 66, 80
2, 44064, Note_on_c, 0, 78, 125
2, 44064, Note_on_c, 0, 73, 125
2, 44064, Note_on_c, 0, 66, 125
2, 44128, Note_off_c, 0, 78, 80
2, 44128, Note_off_c, 0, 73, 80
2, 44128, Note_off_c, 0, 66, 80
2, 44160, Note_on_c, 0, 66, 125
2, 44160, Note_on_c, 0, 73, 125
2, 44160, Note_on_c, 0, 78, 125
2, 44288, Note_off_c, 0, 66, 80
2, 44288, Note_off_c, 0, 73, 80
2, 44288, Note_off_c, 0, 78, 80
2, 44352, Note_on_c, 0, 68, 125
2, 44352, Note_on_c, 0, 73, 125
2, 44352, Note_on_c, 0, 76, 125
2, 44352, Note_on_c, 0, 80, 125
2, 44480, Note_off_c, 0, 68, 80
2, 44480, Note_off_c, 0, 73, 80
2, 44480, Note_off_c, 0, 76, 80
2, 44480, Note_off_c, 0, 80, 80
2, 44544, Note_on_c, 0, 69, 125
2, 44544, Note_on_c, 0, 73, 125
2, 44544, Note_on_c, 0, 76, 125
2, 44544, Note_on_c, 0, 81, 125
2, 44672, Note_off_c, 0, 69, 80
2, 44672, Note_off_c, 0, 73, 80
2, 44672, Note_off_c, 0, 76, 80
2, 44672, Note_off_c, 0, 81, 80
2, 44736, Note_on_c, 0, 69, 125
2, 44736, Note_on_c, 0, 71, 125
2, 44736, Note_on_c, 0, 75, 125
2, 44736, Note_on_c, 0, 83, 125
2, 44864, Note_off_c, 0, 69, 80
2, 44864, Note_off_c, 0, 71, 80
2, 44864, Note_off_c, 0, 75, 80
2, 44864, Note_off_c, 0, 83, 80
2, 44928, Note_on_c, 0, 64, 125
2, 44928, Note_on_c, 0, 68, 125
2, 44928, Note_on_c, 0, 76, 125
2, 45056, Note_off_c, 0, 64, 80
2, 45056, Note_off_c, 0, 68, 80
2, 45056, Note_off_c, 0, 76, 80
2, 45120, Note_on_c, 0, 64, 125
2, 45120, Note_on_c, 0, 69, 125
2, 45120, Note_on_c, 0, 76, 125
2, 45216, Note_off_c, 0, 64, 80
2, 45216, Note_off_c, 0, 69, 80
2, 45216, Note_off_c, 0, 76, 80
2, 45216, Note_on_c, 0, 76, 125
2, 45216, Note_on_c, 0, 64, 125
2, 45280, Note_off_c, 0, 76, 80
2, 45280, Note_off_c, 0, 64, 80
2, 45312, Note_on_c, 0, 64, 125
2, 45312, Note_on_c, 0, 69, 125
2, 45312, Note_on_c, 0, 76, 125
2, 45408, Note_on_c, 0, 76, 125
2, 45440, Note_off_c, 0, 64, 80
2, 45440, Note_off_c, 0, 69, 80
2, 45440, Note_off_c, 0, 76, 80
2, 45504, Note_on_c, 0, 69, 125
2, 45504, Note_on_c, 0, 62, 125
2, 45504, Note_on_c, 0, 74, 125
2, 45536, Note_off_c, 0, 76, 80
2, 45568, Note_off_c, 0, 62, 80
2, 45568, Note_off_c, 0, 74, 80
2, 45600, Note_on_c, 0, 73, 125
2, 45600, Note_on_c, 0, 61, 125
2, 45632, Note_off_c, 0, 69, 80
2, 45664, Note_off_c, 0, 73, 80
2, 45664, Note_off_c, 0, 61, 80
2, 45696, Note_on_c, 0, 64, 125
2, 45696, Note_on_c, 0, 62, 125
2, 45696, Note_on_c, 0, 68, 125
2, 45696, Note_on_c, 0, 74, 125
2, 45792, Note_on_c, 0, 74, 125
2, 45824, Note_off_c, 0, 64, 80
2, 45824, Note_off_c, 0, 62, 80
2, 45824, Note_off_c, 0, 68, 80
2, 45824, Note_off_c, 0, 74, 80
2, 45888, Note_on_c, 0, 68, 125
2, 45888, Note_on_c, 0, 64, 125
2, 45888, Note_on_c, 0, 62, 125
2, 45888, Note_on_c, 0, 73, 125
2, 45920, Note_off_c, 0, 74, 80
2, 45952, Note_off_c, 0, 73, 80
2, 45984, Note_on_c, 0, 71, 125
2, 46016, Note_off_c, 0, 68, 80
2, 46016, Note_off_c, 0, 64, 80
2, 46016, Note_off_c, 0, 62, 80
2, 46048, Note_off_c, 0, 71, 80
2, 46080, Note_on_c, 0, 69, 125
2, 46208, Note_off_c, 0, 69, 80
2, 46368, Note_on_c, 0, 64, 125
2, 46368, Note_on_c, 0, 61, 125
2, 46432, Note_off_c, 0, 64, 80
2, 46432, Note_off_c, 0, 61, 80
2, 46464, Note_on_c, 0, 64, 125
2, 46464, Note_on_c, 0, 61, 125
2, 46592, Note_off_c, 0, 64, 80
2, 46592, Note_off_c, 0, 61, 80
2, 46752, Note_on_c, 0, 64, 125
2, 46752, Note_on_c, 0, 61, 125
2, 46816, Note_off_c, 0, 64, 80
2, 46816, Note_off_c, 0, 61, 80
2, 46848, Note_on_c, 0, 66, 125
2, 46848, Note_on_c, 0, 62, 125
2, 46912, Note_off_c, 0, 66, 80
2, 46912, Note_off_c, 0, 62, 80
2, 46944, Note_on_c, 0, 62, 125
2, 46944, Note_on_c, 0, 68, 125
2, 47008, Note_off_c, 0, 62, 80
2, 47008, Note_off_c, 0, 68, 80
2, 47040, Note_on_c, 0, 62, 125
2, 47040, Note_on_c, 0, 69, 125
2, 47104, Note_off_c, 0, 62, 80
2, 47104, Note_off_c, 0, 69, 80
2, 47136, Note_on_c, 0, 62, 125
2, 47136, Note_on_c, 0, 71, 125
2, 47200, Note_off_c, 0, 62, 80
2, 47200, Note_off_c, 0, 71, 80
2, 47232, Note_on_c, 0, 73, 125
2, 47232, Note_on_c, 0, 61, 125
2, 47424, Note_off_c, 0, 73, 80
2, 47424, Note_off_c, 0, 61, 80
2, 47520, Note_on_c, 0, 61, 125
2, 47520, Note_on_c, 0, 69, 125
2, 47584, Note_off_c, 0, 61, 80
2, 47584, Note_off_c, 0, 69, 80
2, 47616, Note_on_c, 0, 61, 125
2, 47616, Note_on_c, 0, 69, 125
2, 47744, Note_off_c, 0, 61, 80
2, 47744, Note_off_c, 0, 69, 80
2, 48384, Note_on_c, 0, 61, 125
2, 48384, Note_on_c, 0, 73, 125
2, 48512, Note_off_c, 0, 61, 80
2, 48512, Note_off_c, 0, 73, 80
2, 48672, Note_on_c, 0, 69, 125
2, 48672, Note_on_c, 0, 61, 125
2, 48736, Note_off_c, 0, 69, 80
2, 48736, Note_off_c, 0, 61, 80
2, 48768, Note_on_c, 0, 61, 125
2, 48768, Note_on_c, 0, 69, 125
2, 48896, Note_off_c, 0, 61, 80
2, 48896, Note_off_c, 0, 69, 80
2, 49056, Note_on_c, 0, 68, 125
2, 49056, Note_on_c, 0, 61, 125
2, 49120, Note_off_c, 0, 68, 80
2, 49120, Note_off_c, 0, 61, 80
2, 49152, Note_on_c, 0, 61, 125
2, 49152, Note_on_c, 0, 68, 125
2, 49216, Note_off_c, 0, 61, 80
2, 49216, Note_off_c, 0, 68, 80
2, 49248, Note_on_c, 0, 61, 125
2, 49248, Note_on_c, 0, 69, 125
2, 49248, Note_on_c, 0, 71, 125
2, 49312, Note_off_c, 0, 61, 80
2, 49312, Note_off_c, 0, 69, 80
2, 49312, Note_off_c, 0, 71, 80
2, 49344, Note_on_c, 0, 61, 125
2, 49344, Note_on_c, 0, 69, 125
2, 49344, Note_on_c, 0, 73, 125
2, 49408, Note_off_c, 0, 61, 80
2, 49408, Note_off_c, 0, 69, 80
2, 49408, Note_off_c, 0, 73, 80
2, 49440, Note_on_c, 0, 61, 125
2, 49440, Note_on_c, 0, 69, 125
2, 49440, Note_on_c, 0, 74, 125
2, 49504, Note_off_c, 0, 61, 80
2, 49504, Note_off_c, 0, 69, 80
2, 49504, Note_off_c, 0, 74, 80
2, 49536, Note_on_c, 0, 63, 125
2, 49536, Note_on_c, 0, 69, 125
2, 49536, Note_on_c, 0, 78, 125
2, 49728, Note_off_c, 0, 63, 80
2, 49728, Note_off_c, 0, 69, 80
2, 49728, Note_off_c, 0, 78, 80
2, 49824, Note_on_c, 0, 64, 125
2, 49824, Note_on_c, 0, 69, 125
2, 49824, Note_on_c, 0, 76, 125
2, 49888, Note_off_c, 0, 64, 80
2, 49888, Note_off_c, 0, 69, 80
2, 49888, Note_off_c, 0, 76, 80
2, 49920, Note_on_c, 0, 64, 125
2, 49920, Note_on_c, 0, 69, 125
2, 49920, Note_on_c, 0, 76, 125
2, 50048, Note_off_c, 0, 64, 80
2, 50048, Note_off_c, 0, 69, 80
2, 50048, Note_off_c, 0, 76, 80
2, 50688, Note_on_c, 0, 73, 125
2, 50688, Note_on_c, 0, 77, 125
2, 50688, Note_on_c, 0, 85, 125
2, 50816, Note_off_c, 0, 73, 80
2, 50816, Note_off_c, 0, 77, 80
2, 50816, Note_off_c, 0, 85, 80
2, 50880, Note_on_c, 0, 68, 125
2, 50880, Note_on_c, 0, 73, 125
2, 50880, Note_on_c, 0, 80, 125
2, 50944, Note_off_c, 0, 68, 80
2, 50944, Note_off_c, 0, 73, 80
2, 50944, Note_off_c, 0, 80, 80
2, 50976, Note_on_c, 0, 68, 125
2, 50976, Note_on_c, 0, 73, 125
2, 50976, Note_on_c, 0, 80, 125
2, 51040, Note_off_c, 0, 68, 80
2, 51040, Note_off_c, 0, 73, 80
2, 51040, Note_off_c, 0, 80, 80
2, 51072, Note_on_c, 0, 68, 125
2, 51072, Note_on_c, 0, 73, 125
2, 51072, Note_on_c, 0, 80, 125
2, 51136, Note_off_c, 0, 68, 80
2, 51136, Note_off_c, 0, 73, 80
2, 51136, Note_off_c, 0, 80, 80
2, 51168, Note_on_c, 0, 68, 125
2, 51168, Note_on_c, 0, 73, 125
2, 51168, Note_on_c, 0, 80, 125
2, 51296, Note_off_c, 0, 68, 80
2, 51296, Note_off_c, 0, 73, 80
2, 51296, Note_off_c, 0, 80, 80
2, 51360, Note_on_c, 0, 68, 125
2, 51360, Note_on_c, 0, 73, 125
2, 51360, Note_on_c, 0, 80, 125
2, 51456, Note_on_c, 0, 70, 125
2, 51456, Note_on_c, 0, 75, 125
2, 51456, Note_on_c, 0, 82, 125
2, 51488, Note_off_c, 0, 68, 80
2, 51488, Note_off_c, 0, 73, 80
2, 51488, Note_off_c, 0, 80, 80
2, 51520, Note_off_c, 0, 70, 80
2, 51520, Note_off_c, 0, 75, 80
2, 51520, Note_off_c, 0, 82, 80
2, 51552, Note_on_c, 0, 72, 125
2, 51552, Note_on_c, 0, 84, 125
2, 51616, Note_off_c, 0, 72, 80
2, 51616, Note_off_c, 0, 84, 80
2, 51648, Note_on_c, 0, 73, 125
2, 51648, Note_on_c, 0, 80, 125
2, 51648, Note_on_c, 0, 85, 125
2, 51712, Note_off_c, 0, 73, 80
2, 51712, Note_off_c, 0, 80, 80
2, 51712, Note_off_c, 0, 85, 80
2, 51744, Note_on_c, 0, 75, 125
2, 51744, Note_on_c, 0, 87, 125
2, 51808, Note_off_c, 0, 75, 80
2, 51808, Note_off_c, 0, 87, 80
2, 51840, Note_on_c, 0, 77, 125
2, 51840, Note_on_c, 0, 85, 125
2, 51840, Note_on_c, 0, 89, 125
2, 52032, Note_off_c, 0, 77, 80
2, 52032, Note_off_c, 0, 85, 80
2, 52032, Note_off_c, 0, 89, 80
2, 52128, Note_on_c, 0, 85, 125
2, 52128, Note_on_c, 0, 73, 125
2, 52192, Note_off_c, 0, 85, 80
2, 52192, Note_off_c, 0, 73, 80
2, 52224, Note_on_c, 0, 73, 125
2, 52224, Note_on_c, 0, 85, 125
2, 52352, Note_off_c, 0, 73, 80
2, 52352, Note_off_c, 0, 85, 80
2, 52416, Note_on_c, 0, 85, 125
2, 52416, Note_on_c, 0, 73, 125
2, 52480, Note_off_c, 0, 85, 80
2, 52480, Note_off_c, 0, 73, 80
2, 52512, Note_on_c, 0, 85, 125
2, 52512, Note_on_c, 0, 73, 125
2, 52576, Note_off_c, 0, 85, 80
2, 52576, Note_off_c, 0, 73, 80
2, 52608, Note_on_c, 0, 85, 125
2, 52608, Note_on_c, 0, 73, 125
2, 52672, Note_off_c, 0, 85, 80
2, 52672, Note_off_c, 0, 73, 80
2, 52704, Note_on_c, 0, 85, 125
2, 52704, Note_on_c, 0, 73, 125
2, 52768, Note_off_c, 0, 85, 80
2, 52768, Note_off_c, 0, 73, 80
2, 52800, Note_on_c, 0, 85, 125
2, 52800, Note_on_c, 0, 73, 125
2, 52864, Note_off_c, 0, 85, 80
2, 52864, Note_off_c, 0, 73, 80
2, 52896, Note_on_c, 0, 85, 125
2, 52896, Note_on_c, 0, 73, 125
2, 52960, Note_off_c, 0, 85, 80
2, 52960, Note_off_c, 0, 73, 80
2, 52992, Note_on_c, 0, 73, 125
2, 52992, Note_on_c, 0, 85, 125
2, 53120, Note_off_c, 0, 73, 80
2, 53120, Note_off_c, 0, 85, 80
2, 53184, Note_on_c, 0, 71, 125
2, 53184, Note_on_c, 0, 83, 125
2, 53184, Note_on_c, 0, 78, 125
2, 53280, Note_off_c, 0, 71, 80
2, 53280, Note_off_c, 0, 83, 80
2, 53280, Note_off_c, 0, 78, 80
2, 53280, Note_on_c, 0, 71, 125
2, 53280, Note_on_c, 0, 78, 125
2, 53280, Note_on_c, 0, 83, 125
2, 53344, Note_off_c, 0, 71, 80
2, 53344, Note_off_c, 0, 78, 80
2, 53344, Note_off_c, 0, 83, 80
2, 53376, Note_on_c, 0, 71, 125
2, 53376, Note_on_c, 0, 78, 125
2, 53376, Note_on_c, 0, 83, 125
2, 53504, Note_off_c, 0, 71, 80
2, 53504, Note_off_c, 0, 78, 80
2, 53504, Note_off_c, 0, 83, 80
2, 53568, Note_on_c, 0, 73, 125
2, 53568, Note_on_c, 0, 85, 125
2, 53696, Note_off_c, 0, 73, 80
2, 53696, Note_off_c, 0, 85, 80
2, 53760, Note_on_c, 0, 76, 125
2, 53760, Note_on_c, 0, 81, 125
2, 53760, Note_on_c, 0, 88, 125
2, 53888, Note_off_c, 0, 76, 80
2, 53888, Note_off_c, 0, 81, 80
2, 53888, Note_off_c, 0, 88, 80
2, 53952, Note_on_c, 0, 74, 125
2, 53952, Note_on_c, 0, 86, 125
2, 54016, Note_off_c, 0, 74, 80
2, 54016, Note_off_c, 0, 86, 80
2, 54048, Note_on_c, 0, 73, 125
2, 54048, Note_on_c, 0, 85, 125
2, 54112, Note_off_c, 0, 73, 80
2, 54112, Note_off_c, 0, 85, 80
2, 54144, Note_on_c, 0, 71, 125
2, 54144, Note_on_c, 0, 83, 125
2, 54272, Note_off_c, 0, 71, 80
2, 54272, Note_off_c, 0, 83, 80
2, 54336, Note_on_c, 0, 71, 125
2, 54336, Note_on_c, 0, 76, 125
2, 54336, Note_on_c, 0, 83, 125
2, 54432, Note_off_c, 0, 71, 80
2, 54432, Note_off_c, 0, 76, 80
2, 54432, Note_off_c, 0, 83, 80
2, 54432, Note_on_c, 0, 73, 125
2, 54432, Note_on_c, 0, 85, 125
2, 54496, Note_off_c, 0, 73, 80
2, 54496, Note_off_c, 0, 85, 80
2, 54528, Note_on_c, 0, 71, 125
2, 54528, Note_on_c, 0, 76, 125
2, 54528, Note_on_c, 0, 83, 125
2, 54784, Note_off_c, 0, 71, 80
2, 54784, Note_off_c, 0, 76, 80
2, 54784, Note_off_c, 0, 83, 80
2, 54912, Note_on_c, 0, 69, 125
2, 54912, Note_on_c, 0, 81, 125
2, 55040, Note_off_c, 0, 69, 80
2, 55040, Note_off_c, 0, 81, 80
2, 55296, Key_signature, 2, "major"
2, 55296, Note_on_c, 0, 74, 125
2, 55808, Note_off_c, 0, 74, 80
2, 56064, Note_on_c, 0, 69, 125
2, 56320, Note_off_c, 0, 69, 80
2, 56448, Note_on_c, 0, 62, 125
2, 56576, Note_off_c, 0, 62, 80
2, 56736, Note_on_c, 0, 57, 125
2, 56800, Note_off_c, 0, 57, 80
2, 56832, Note_on_c, 0, 62, 125
2, 57344, Note_off_c, 0, 62, 80
2, 57600, Note_on_c, 0, 69, 125
2, 58112, Note_off_c, 0, 69, 80
2, 58368, Note_on_c, 0, 64, 125
2, 58624, Note_off_c, 0, 64, 80
2, 60000, Note_on_c, 0, 71, 125
2, 60000, Note_on_c, 0, 67, 125
2, 60000, Note_on_c, 0, 62, 125
2, 60064, Note_off_c, 0, 71, 80
2, 60064, Note_off_c, 0, 67, 80
2, 60064, Note_off_c, 0, 62, 80
2, 60096, Note_on_c, 0, 59, 125
2, 60160, Note_off_c, 0, 59, 80
2, 60192, Note_on_c, 0, 62, 125
2, 60192, Note_on_c, 0, 67, 125
2, 60192, Note_on_c, 0, 71, 125
2, 60256, Note_off_c, 0, 62, 80
2, 60256, Note_off_c, 0, 67, 80
2, 60256, Note_off_c, 0, 71, 80
2, 60288, Note_on_c, 0, 59, 125
2, 60288, Note_on_c, 0, 62, 125
2, 60288, Note_on_c, 0, 67, 125
2, 60288, Note_on_c, 0, 71, 125
2, 60416, Note_off_c, 0, 59, 80
2, 60416, Note_off_c, 0, 62, 80
2, 60416, Note_off_c, 0, 67, 80
2, 60416, Note_off_c, 0, 71, 80
2, 60480, Note_on_c, 0, 61, 125
2, 60480, Note_on_c, 0, 66, 125
2, 60480, Note_on_c, 0, 70, 125
2, 60480, Note_on_c, 0, 73, 125
2, 60608, Note_off_c, 0, 61, 80
2, 60608, Note_off_c, 0, 66, 80
2, 60608, Note_off_c, 0, 70, 80
2, 60608, Note_off_c, 0, 73, 80
2, 60672, Note_on_c, 0, 62, 125
2, 60672, Note_on_c, 0, 66, 125
2, 60672, Note_on_c, 0, 71, 125
2, 60672, Note_on_c, 0, 74, 125
2, 60800, Note_off_c, 0, 62, 80
2, 60800, Note_off_c, 0, 66, 80
2, 60800, Note_off_c, 0, 71, 80
2, 60800, Note_off_c, 0, 74, 80
2, 60864, Note_on_c, 0, 64, 125
2, 60864, Note_on_c, 0, 69, 125
2, 60864, Note_on_c, 0, 73, 125
2, 60864, Note_on_c, 0, 76, 125
2, 60992, Note_off_c, 0, 64, 80
2, 60992, Note_off_c, 0, 69, 80
2, 60992, Note_off_c, 0, 73, 80
2, 60992, Note_off_c, 0, 76, 80
2, 61056, Note_on_c, 0, 66, 125
2, 61056, Note_on_c, 0, 69, 125
2, 61056, Note_on_c, 0, 74, 125
2, 61056, Note_on_c, 0, 78, 125
2, 61152, Note_on_c, 0, 78, 125
2, 61152, Note_on_c, 0, 74, 125
2, 61152, Note_on_c, 0, 69, 125
2, 61184, Note_off_c, 0, 66, 80
2, 61184, Note_off_c, 0, 69, 80
2, 61184, Note_off_c, 0, 74, 80
2, 61184, Note_off_c, 0, 78, 80
2, 61216, Note_off_c, 0, 78, 80
2, 61216, Note_off_c, 0, 74, 80
2, 61216, Note_off_c, 0, 69, 80
2, 61248, Note_on_c, 0, 66, 125
2, 61312, Note_off_c, 0, 66, 80
2, 61344, Note_on_c, 0, 69, 125
2, 61344, Note_on_c, 0, 74, 125
2, 61344, Note_on_c, 0, 78, 125
2, 61408, Note_off_c, 0, 69, 80
2, 61408, Note_off_c, 0, 74, 80
2, 61408, Note_off_c, 0, 78, 80
2, 61440, Note_on_c, 0, 66, 125
2, 61440, Note_on_c, 0, 69, 125
2, 61440, Note_on_c, 0, 74, 125
2, 61440, Note_on_c, 0, 78, 125
2, 61568, Note_off_c, 0, 66, 80
2, 61568, Note_off_c, 0, 69, 80
2, 61568, Note_off_c, 0, 74, 80
2, 61568, Note_off_c, 0, 78, 80
2, 61632, Note_on_c, 0, 68, 125
2, 61632, Note_on_c, 0, 73, 125
2, 61632, Note_on_c, 0, 77, 125
2, 61632, Note_on_c, 0, 80, 125
2, 61760, Note_off_c, 0, 68, 80
2, 61760, Note_off_c, 0, 73, 80
2, 61760, Note_off_c, 0, 77, 80
2, 61760, Note_off_c, 0, 80, 80
2, 61824, Note_on_c, 0, 69, 125
2, 61824, Note_on_c, 0, 73, 125
2, 61824, Note_on_c, 0, 78, 125
2, 61824, Note_on_c, 0, 81, 125
2, 61952, Note_off_c, 0, 69, 80
2, 61952, Note_off_c, 0, 73, 80
2, 61952, Note_off_c, 0, 78, 80
2, 61952, Note_off_c, 0, 81, 80
2, 62016, Note_on_c, 0, 71, 125
2, 62016, Note_on_c, 0, 76, 125
2, 62016, Note_on_c, 0, 80, 125
2, 62016, Note_on_c, 0, 83, 125
2, 62144, Note_off_c, 0, 71, 80
2, 62144, Note_off_c, 0, 76, 80
2, 62144, Note_off_c, 0, 80, 80
2, 62144, Note_off_c, 0, 83, 80
2, 62208, Note_on_c, 0, 73, 125
2, 62208, Note_on_c, 0, 79, 125
2, 62208, Note_on_c, 0, 85, 125
2, 62208, Note_on_c, 0, 69, 125
2, 62272, Note_off_c, 0, 69, 80
2, 62336, Note_off_c, 0, 73, 80
2, 62336, Note_off_c, 0, 79, 80
2, 62336, Note_off_c, 0, 85, 80
2, 62400, Note_on_c, 0, 73, 125
2, 62400, Note_on_c, 0, 79, 125
2, 62400, Note_on_c, 0, 85, 125
2, 62400, Note_on_c, 0, 67, 125
2, 62400, Note_on_c, 0, 69, 125
2, 62400, Note_on_c, 0, 64, 125
2, 62400, Note_on_c, 0, 57, 125
2, 62464, Note_off_c, 0, 73, 80
2, 62464, Note_off_c, 0, 79, 80
2, 62464, Note_off_c, 0, 85, 80
2, 62464, Note_off_c, 0, 67, 80
2, 62464, Note_off_c, 0, 69, 80
2, 62464, Note_off_c, 0, 64, 80
2, 62464, Note_off_c, 0, 57, 80
2, 62496, Note_on_c, 0, 73, 125
2, 62496, Note_on_c, 0, 79, 125
2, 62496, Note_on_c, 0, 85, 125
2, 62496, Note_on_c, 0, 57, 125
2, 62496, Note_on_c, 0, 64, 125
2, 62496, Note_on_c, 0, 67, 125
2, 62496, Note_on_c, 0, 69, 125
2, 62560, Note_off_c, 0, 73, 80
2, 62560, Note_off_c, 0, 79, 80
2, 62560, Note_off_c, 0, 85, 80
2, 62560, Note_off_c, 0, 57, 80
2, 62560, Note_off_c, 0, 64, 80
2, 62560, Note_off_c, 0, 67, 80
2, 62560, Note_off_c, 0, 69, 80
2, 62592, Note_on_c, 0, 73, 125
2, 62592, Note_on_c, 0, 69, 125
2, 62592, Note_on_c, 0, 67, 125
2, 62592, Note_on_c, 0, 64, 125
2, 62592, Note_on_c, 0, 57, 125
2, 62592, Note_on_c, 0, 79, 125
2, 62592, Note_on_c, 0, 85, 125
2, 62720, Note_off_c, 0, 73, 80
2, 62720, Note_off_c, 0, 69, 80
2, 62720, Note_off_c, 0, 67, 80
2, 62720, Note_off_c, 0, 64, 80
2, 62720, Note_off_c, 0, 57, 80
2, 62720, Note_off_c, 0, 79, 80
2, 62720, Note_off_c, 0, 85, 80
2, 62784, Note_on_c, 0, 57, 125
2, 62784, Note_on_c, 0, 64, 125
2, 62784, Note_on_c, 0, 67, 125
2, 62784, Note_on_c, 0, 69, 125
2, 62784, Note_on_c, 0, 73, 125
2, 62784, Note_on_c, 0, 79, 125
2, 62784, Note_on_c, 0, 83, 125
2, 62880, Note_on_c, 0, 57, 125
2, 62880, Note_on_c, 0, 64, 125
2, 62880, Note_on_c, 0, 67, 125
2, 62880, Note_on_c, 0, 69, 125
2, 62880, Note_on_c, 0, 73, 125
2, 62880, Note_on_c, 0, 79, 125
2, 62880, Note_on_c, 0, 81, 125
2, 62912, Note_off_c, 0, 57, 80
2, 62912, Note_off_c, 0, 64, 80
2, 62912, Note_off_c, 0, 67, 80
2, 62912, Note_off_c, 0, 69, 80
2, 62912, Note_off_c, 0, 73, 80
2, 62912, Note_off_c, 0, 79, 80
2, 62912, Note_off_c, 0, 83, 80
2, 62976, Note_on_c, 0, 74, 125
2, 62976, Note_on_c, 0, 78, 125
2, 62976, Note_on_c, 0, 86, 125
2, 62976, Note_on_c, 0, 69, 125
2, 62976, Note_on_c, 0, 69, 125
2, 62976, Note_on_c, 0, 66, 125
2, 62976, Note_on_c, 0, 57, 125
2, 63008, Note_off_c, 0, 57, 80
2, 63008, Note_off_c, 0, 64, 80
2, 63008, Note_off_c, 0, 67, 80
2, 63008, Note_off_c, 0, 69, 80
2, 63008, Note_off_c, 0, 73, 80
2, 63008, Note_off_c, 0, 79, 80
2, 63008, Note_off_c, 0, 81, 80
2, 63104, Note_off_c, 0, 74, 80
2, 63104, Note_off_c, 0, 78, 80
2, 63104, Note_off_c, 0, 86, 80
2, 63104, Note_off_c, 0, 69, 80
2, 63104, Note_off_c, 0, 69, 80
2, 63104, Note_off_c, 0, 66, 80
2, 63104, Note_off_c, 0, 57, 80
2, 63168, Note_on_c, 0, 75, 125
2, 63168, Note_on_c, 0, 81, 125
2, 63168, Note_on_c, 0, 87, 125
2, 63168, Note_on_c, 0, 69, 125
2, 63168, Note_on_c, 0, 66, 125
2, 63168, Note_on_c, 0, 60, 125
2, 63168, Note_on_c, 0, 57, 125
2, 63296, Note_off_c, 0, 75, 80
2, 63296, Note_off_c, 0, 81, 80
2, 63296, Note_off_c, 0, 87, 80
2, 63296, Note_off_c, 0, 69, 80
2, 63296, Note_off_c, 0, 66, 80
2, 63296, Note_off_c, 0, 60, 80
2, 63296, Note_off_c, 0, 57, 80
2, 63360, Note_on_c, 0, 88, 125
2, 63360, Note_on_c, 0, 93, 125
2, 63360, Note_on_c, 0, 79, 125
2, 63360, Note_on_c, 0, 81, 125
2, 63360, Note_on_c, 0, 73, 125
2, 63360, Note_on_c, 0, 69, 125
2, 63488, Note_off_c, 0, 88, 80
2, 63488, Note_off_c, 0, 93, 80
2, 63488, Note_off_c, 0, 79, 80
2, 63488, Note_off_c, 0, 81, 80
2, 63488, Note_off_c, 0, 73, 80
2, 63488, Note_off_c, 0, 69, 80
2, 63552, Note_on_c, 0, 81, 125
2, 63552, Note_on_c, 0, 93, 125
2, 63616, Note_off_c, 0, 81, 80
2, 63616, Note_off_c, 0, 93, 80
2, 63648, Note_on_c, 0, 81, 125
2, 63648, Note_on_c, 0, 93, 125
2, 63712, Note_off_c, 0, 81, 80
2, 63712, Note_off_c, 0, 93, 80
2, 63744, Note_on_c, 0, 81, 125
2, 63744, Note_on_c, 0, 93, 125
2, 63872, Note_off_c, 0, 81, 80
2, 63872, Note_off_c, 0, 93, 80
2, 63936, Note_on_c, 0, 80, 125
2, 63936, Note_on_c, 0, 92, 125
2, 64000, Note_off_c, 0, 80, 80
2, 64000, Note_off_c, 0, 92, 80
2, 64032, Note_on_c, 0, 81, 125
2, 64032, Note_on_c, 0, 93, 125
2, 64096, Note_off_c, 0, 81, 80
2, 64096, Note_off_c, 0, 93, 80
2, 64128, Note_on_c, 0, 82, 125
2, 64128, Note_on_c, 0, 94, 125
2, 64192, Note_off_c, 0, 82, 80
2, 64192, Note_off_c, 0, 94, 80
2, 64224, Note_on_c, 0, 83, 125
2, 64224, Note_on_c, 0, 95, 125
2, 64288, Note_off_c, 0, 83, 80
2, 64288, Note_off_c, 0, 95, 80
2, 64320, Note_on_c, 0, 84, 125
2, 64320, Note_on_c, 0, 96, 125
2, 64384, Note_off_c, 0, 84, 80
2, 64384, Note_off_c, 0, 96, 80
2, 64416, Note_on_c, 0, 85, 125
2, 64416, Note_on_c, 0, 97, 125
2, 64480, Note_off_c, 0, 85, 80
2, 64480, Note_off_c, 0, 97, 80
2, 64512, Note_on_c, 0, 86, 125
2, 64512, Note_on_c, 0, 98, 125
2, 65024, Note_off_c, 0, 86, 80
2, 65024, Note_off_c, 0, 98, 80
2, 65280, Note_on_c, 0, 81, 125
2, 65280, Note_on_c, 0, 93, 125
2, 65536, Note_off_c, 0, 81, 80
2, 65536, Note_off_c, 0, 93, 80
2, 65664, Note_on_c, 0, 74, 125
2, 65664, Note_on_c, 0, 86, 125
2, 65792, Note_off_c, 0, 74, 80
2, 65792, Note_off_c, 0, 86, 80
2, 65952, Note_on_c, 0, 69, 125
2, 65952, Note_on_c, 0, 81, 125
2, 66016, Note_off_c, 0, 69, 80
2, 66016, Note_off_c, 0, 81, 80
2, 66048, Note_on_c, 0, 74, 125
2, 66048, Note_on_c, 0, 86, 125
2, 66560, Note_off_c, 0, 74, 80
2, 66560, Note_off_c, 0, 86, 80
2, 66816, Note_on_c, 0, 93, 125
2, 66816, Note_on_c, 0, 81, 125
2, 67328, Note_off_c, 0, 93, 80
2, 67328, Note_off_c, 0, 81, 80
2, 67584, Note_on_c, 0, 88, 125
2, 67584, Note_on_c, 0, 76, 125
2, 67840, Note_off_c, 0, 88, 80
2, 67840, Note_off_c, 0, 76, 80
2, 67968, Note_on_c, 0, 69, 125
2, 67968, Note_on_c, 0, 81, 125
2, 68096, Note_off_c, 0, 69, 80
2, 68096, Note_off_c, 0, 81, 80
2, 68256, Note_on_c, 0, 64, 125
2, 68256, Note_on_c, 0, 76, 125
2, 68320, Note_off_c, 0, 64, 80
2, 68320, Note_off_c, 0, 76, 80
2, 68352, Note_on_c, 0, 69, 125
2, 68352, Note_on_c, 0, 81, 125
2, 68864, Note_off_c, 0, 69, 80
2, 68864, Note_off_c, 0, 81, 80
2, 69120, Note_on_c, 0, 69, 125
2, 69120, Note_on_c, 0, 75, 125
2, 69120, Note_on_c, 0, 81, 125
2, 69248, Note_off_c, 0, 69, 80
2, 69248, Note_off_c, 0, 75, 80
2, 69248, Note_off_c, 0, 81, 80
2, 69312, Note_on_c, 0, 69, 125
2, 69312, Note_on_c, 0, 75, 125
2, 69312, Note_on_c, 0, 81, 125
2, 69376, Note_off_c, 0, 69, 80
2, 69376, Note_off_c, 0, 75, 80
2, 69376, Note_off_c, 0, 81, 80
2, 69408, Note_on_c, 0, 69, 125
2, 69408, Note_on_c, 0, 75, 125
2, 69408, Note_on_c, 0, 81, 125
2, 69472, Note_off_c, 0, 69, 80
2, 69472, Note_off_c, 0, 75, 80
2, 69472, Note_off_c, 0, 81, 80
2, 69504, Note_on_c, 0, 69, 125
2, 69504, Note_on_c, 0, 75, 125
2, 69504, Note_on_c, 0, 81, 125
2, 69696, Note_on_c, 0, 69, 125
2, 69696, Note_on_c, 0, 75, 125
2, 69696, Note_on_c, 0, 79, 125
2, 69760, Note_off_c, 0, 69, 80
2, 69760, Note_off_c, 0, 75, 80
2, 69760, Note_off_c, 0, 81, 80
2, 69760, Note_off_c, 0, 69, 80
2, 69760, Note_off_c, 0, 75, 80
2, 69760, Note_off_c, 0, 79, 80
2, 69792, Note_on_c, 0, 77, 125
2, 69792, Note_on_c, 0, 75, 125
2, 69792, Note_on_c, 0, 81, 125
2, 69792, Note_on_c, 0, 69, 125
2, 69856, Note_off_c, 0, 77, 80
2, 69856, Note_off_c, 0, 75, 80
2, 69856, Note_off_c, 0, 81, 80
2, 69856, Note_off_c, 0, 69, 80
2, 69888, Note_on_c, 0, 70, 125
2, 69888, Note_on_c, 0, 74, 125
2, 69888, Note_on_c, 0, 77, 125
2, 69888, Note_on_c, 0, 82, 125
2, 70016, Note_off_c, 0, 70, 80
2, 70016, Note_off_c, 0, 74, 80
2, 70016, Note_off_c, 0, 77, 80
2, 70080, Note_on_c, 0, 70, 125
2, 70080, Note_on_c, 0, 74, 125
2, 70080, Note_on_c, 0, 74, 125
2, 70080, Note_on_c, 0, 77, 125
2, 70144, Note_off_c, 0, 82, 80
2, 70208, Note_off_c, 0, 70, 80
2, 70208, Note_off_c, 0, 74, 80
2, 70208, Note_off_c, 0, 74, 80
2, 70208, Note_off_c, 0, 77, 80
2, 70272, Note_on_c, 0, 71, 125
2, 70272, Note_on_c, 0, 77, 125
2, 70272, Note_on_c, 0, 83, 125
2, 70400, Note_off_c, 0, 71, 80
2, 70400, Note_off_c, 0, 77, 80
2, 70400, Note_off_c, 0, 83, 80
2, 70464, Note_on_c, 0, 71, 125
2, 70464, Note_on_c, 0, 77, 125
2, 70464, Note_on_c, 0, 83, 125
2, 70528, Note_off_c, 0, 71, 80
2, 70528, Note_off_c, 0, 77, 80
2, 70528, Note_off_c, 0, 83, 80
2, 70560, Note_on_c, 0, 71, 125
2, 70560, Note_on_c, 0, 77, 125
2, 70560, Note_on_c, 0, 83, 125
2, 70624, Note_off_c, 0, 71, 80
2, 70624, Note_off_c, 0, 77, 80
2, 70624, Note_off_c, 0, 83, 80
2, 70656, Note_on_c, 0, 71, 125
2, 70656, Note_on_c, 0, 77, 125
2, 70656, Note_on_c, 0, 83, 125
2, 70784, Note_off_c, 0, 71, 80
2, 70784, Note_off_c, 0, 77, 80
2, 70784, Note_off_c, 0, 83, 80
2, 70848, Note_on_c, 0, 71, 125
2, 70848, Note_on_c, 0, 77, 125
2, 70848, Note_on_c, 0, 81, 125
2, 70912, Note_off_c, 0, 71, 80
2, 70912, Note_off_c, 0, 77, 80
2, 70912, Note_off_c, 0, 81, 80
2, 70944, Note_on_c, 0, 71, 125
2, 70944, Note_on_c, 0, 77, 125
2, 70944, Note_on_c, 0, 79, 125
2, 70944, Note_on_c, 0, 83, 125
2, 71008, Note_off_c, 0, 71, 80
2, 71008, Note_off_c, 0, 77, 80
2, 71008, Note_off_c, 0, 79, 80
2, 71008, Note_off_c, 0, 83, 80
2, 71040, Note_on_c, 0, 72, 125
2, 71040, Note_on_c, 0, 76, 125
2, 71040, Note_on_c, 0, 79, 125
2, 71040, Note_on_c, 0, 84, 125
2, 71168, Note_off_c, 0, 72, 80
2, 71168, Note_off_c, 0, 76, 80
2, 71168, Note_off_c, 0, 79, 80
2, 71232, Note_on_c, 0, 72, 125
2, 71232, Note_on_c, 0, 76, 125
2, 71232, Note_on_c, 0, 79, 125
2, 71296, Note_off_c, 0, 84, 80
2, 71360, Note_off_c, 0, 72, 80
2, 71360, Note_off_c, 0, 76, 80
2, 71360, Note_off_c, 0, 79, 80
2, 71424, Note_on_c, 0, 73, 125
2, 71424, Note_on_c, 0, 79, 125
2, 71424, Note_on_c, 0, 85, 125
2, 71552, Note_off_c, 0, 73, 80
2, 71552, Note_off_c, 0, 79, 80
2, 71552, Note_off_c, 0, 85, 80
2, 71616, Note_on_c, 0, 73, 125
2, 71616, Note_on_c, 0, 79, 125
2, 71616, Note_on_c, 0, 85, 125
2, 71616, Note_on_c, 0, 69, 125
2, 71616, Note_on_c, 0, 67, 125
2, 71616, Note_on_c, 0, 64, 125
2, 71616, Note_on_c, 0, 61, 125
2, 71616, Note_on_c, 0, 57, 125
2, 71680, Note_off_c, 0, 73, 80
2, 71680, Note_off_c, 0, 79, 80
2, 71680, Note_off_c, 0, 85, 80
2, 71680, Note_off_c, 0, 69, 80
2, 71680, Note_off_c, 0, 67, 80
2, 71680, Note_off_c, 0, 64, 80
2, 71680, Note_off_c, 0, 61, 80
2, 71680, Note_off_c, 0, 57, 80
2, 71712, Note_on_c, 0, 74, 125
2, 71712, Note_on_c, 0, 79, 125
2, 71712, Note_on_c, 0, 86, 125
2, 71712, Note_on_c, 0, 69, 125
2, 71712, Note_on_c, 0, 67, 125
2, 71712, Note_on_c, 0, 64, 125
2, 71712, Note_on_c, 0, 61, 125
2, 71712, Note_on_c, 0, 57, 125
2, 71776, Note_off_c, 0, 74, 80
2, 71776, Note_off_c, 0, 79, 80
2, 71776, Note_off_c, 0, 86, 80
2, 71776, Note_off_c, 0, 69, 80
2, 71776, Note_off_c, 0, 67, 80
2, 71776, Note_off_c, 0, 64, 80
2, 71776, Note_off_c, 0, 61, 80
2, 71776, Note_off_c, 0, 57, 80
2, 71808, Note_on_c, 0, 76, 125
2, 71808, Note_on_c, 0, 79, 125
2, 71808, Note_on_c, 0, 88, 125
2, 71808, Note_on_c, 0, 67, 125
2, 71808, Note_on_c, 0, 69, 125
2, 71808, Note_on_c, 0, 64, 125
2, 71808, Note_on_c, 0, 61, 125
2, 71808, Note_on_c, 0, 57, 125
2, 71936, Note_off_c, 0, 76, 80
2, 71936, Note_off_c, 0, 79, 80
2, 71936, Note_off_c, 0, 88, 80
2, 71936, Note_off_c, 0, 67, 80
2, 71936, Note_off_c, 0, 69, 80
2, 71936, Note_off_c, 0, 64, 80
2, 71936, Note_off_c, 0, 61, 80
2, 71936, Note_off_c, 0, 57, 80
2, 72000, Note_on_c, 0, 73, 125
2, 72000, Note_on_c, 0, 79, 125
2, 72000, Note_on_c, 0, 85, 125
2, 72000, Note_on_c, 0, 67, 125
2, 72000, Note_on_c, 0, 69, 125
2, 72000, Note_on_c, 0, 64, 125
2, 72000, Note_on_c, 0, 61, 125
2, 72000, Note_on_c, 0, 57, 125
2, 72064, Note_off_c, 0, 73, 80
2, 72064, Note_off_c, 0, 79, 80
2, 72064, Note_off_c, 0, 85, 80
2, 72096, Note_on_c, 0, 74, 125
2, 72096, Note_on_c, 0, 86, 125
2, 72096, Note_on_c, 0, 67, 125
2, 72096, Note_on_c, 0, 69, 125
2, 72096, Note_on_c, 0, 64, 125
2, 72096, Note_on_c, 0, 61, 125
2, 72096, Note_on_c, 0, 57, 125
2, 72128, Note_off_c, 0, 67, 80
2, 72128, Note_off_c, 0, 69, 80
2, 72128, Note_off_c, 0, 64, 80
2, 72128, Note_off_c, 0, 61, 80
2, 72128, Note_off_c, 0, 57, 80
2, 72160, Note_off_c, 0, 74, 80
2, 72160, Note_off_c, 0, 86, 80
2, 72160, Note_off_c, 0, 67, 80
2, 72160, Note_off_c, 0, 69, 80
2, 72160, Note_off_c, 0, 64, 80
2, 72160, Note_off_c, 0, 61, 80
2, 72160, Note_off_c, 0, 57, 80
2, 72192, Note_on_c, 0, 76, 125
2, 72192, Note_on_c, 0, 88, 125
2, 72192, Note_on_c, 0, 67, 125
2, 72192, Note_on_c, 0, 69, 125
2, 72192, Note_on_c, 0, 64, 125
2, 72192, Note_on_c, 0, 61, 125
2, 72192, Note_on_c, 0, 57, 125
2, 72256, Note_off_c, 0, 76, 80
2, 72256, Note_off_c, 0, 88, 80
2, 72256, Note_off_c, 0, 67, 80
2, 72256, Note_off_c, 0, 69, 80
2, 72256, Note_off_c, 0, 64, 80
2, 72256, Note_off_c, 0, 61, 80
2, 72256, Note_off_c, 0, 57, 80
2, 72288, Note_on_c, 0, 78, 125
2, 72288, Note_on_c, 0, 90, 125
2, 72288, Note_on_c, 0, 67, 125
2, 72288, Note_on_c, 0, 69, 125
2, 72288, Note_on_c, 0, 64, 125
2, 72288, Note_on_c, 0, 61, 125
2, 72288, Note_on_c, 0, 57, 125
2, 72352, Note_off_c, 0, 78, 80
2, 72352, Note_off_c, 0, 90, 80
2, 72384, Note_on_c, 0, 79, 125
2, 72384, Note_on_c, 0, 91, 125
2, 72384, Note_on_c, 0, 67, 125
2, 72384, Note_on_c, 0, 69, 125
2, 72384, Note_on_c, 0, 64, 125
2, 72384, Note_on_c, 0, 61, 125
2, 72384, Note_on_c, 0, 57, 125
2, 72416, Note_off_c, 0, 67, 80
2, 72416, Note_off_c, 0, 69, 80
2, 72416, Note_off_c, 0, 64, 80
2, 72416, Note_off_c, 0, 61, 80
2, 72416, Note_off_c, 0, 57, 80
2, 72448, Note_off_c, 0, 79, 80
2, 72448, Note_off_c, 0, 91, 80
2, 72448, Note_off_c, 0, 67, 80
2, 72448, Note_off_c, 0, 69, 80
2, 72448, Note_off_c, 0, 64, 80
2, 72448, Note_off_c, 0, 61, 80
2, 72448, Note_off_c, 0, 57, 80
2, 72480, Note_on_c, 0, 80, 125
2, 72480, Note_on_c, 0, 92, 125
2, 72480, Note_on_c, 0, 69, 125
2, 72480, Note_on_c, 0, 67, 125
2, 72480, Note_on_c, 0, 61, 125
2, 72480, Note_on_c, 0, 57, 125
2, 72480, Note_on_c, 0, 64, 125
2, 72544, Note_off_c, 0, 80, 80
2, 72544, Note_off_c, 0, 92, 80
2, 72544, Note_off_c, 0, 69, 80
2, 72544, Note_off_c, 0, 67, 80
2, 72544, Note_off_c, 0, 61, 80
2, 72544, Note_off_c, 0, 57, 80
2, 72544, Note_off_c, 0, 64, 80
2, 72576, Note_on_c, 0, 93, 125
2, 72576, Note_on_c, 0, 81, 125
2, 72640, Note_off_c, 0, 93, 80
2, 72640, Note_off_c, 0, 81, 80
2, 72672, Note_on_c, 0, 94, 125
2, 72672, Note_on_c, 0, 82, 125
2, 72736, Note_off_c, 0, 94, 80
2, 72736, Note_off_c, 0, 82, 80
2, 72768, Note_on_c, 0, 95, 125
2, 72768, Note_on_c, 0, 83, 125
2, 72832, Note_off_c, 0, 95, 80
2, 72832, Note_off_c, 0, 83, 80
2, 72864, Note_on_c, 0, 97, 125
2, 72864, Note_on_c, 0, 85, 125
2, 72928, Note_off_c, 0, 97, 80
2, 72928, Note_off_c, 0, 85, 80
2, 72960, Note_on_c, 0, 88, 125
2, 72960, Note_on_c, 0, 93, 125
2, 72960, Note_on_c, 0, 100, 125
2, 73216, Note_off_c, 0, 88, 80
2, 73216, Note_off_c, 0, 93, 80
2, 73216, Note_off_c, 0, 100, 80
2, 73344, Note_on_c, 0, 86, 125
2, 73344, Note_on_c, 0, 98, 125
2, 73472, Note_off_c, 0, 86, 80
2, 73472, Note_off_c, 0, 98, 80
2, 73728, Note_on_c, 0, 74, 125
2, 74240, Note_off_c, 0, 74, 80
2, 74496, Note_on_c, 0, 69, 125
2, 74752, Note_off_c, 0, 69, 80
2, 74880, Note_on_c, 0, 62, 125
2, 75008, Note_off_c, 0, 62, 80
2, 75168, Note_on_c, 0, 57, 125
2, 75232, Note_off_c, 0, 57, 80
2, 75264, Note_on_c, 0, 62, 125
2, 75776, Note_off_c, 0, 62, 80
2, 76032, Note_on_c, 0, 69, 125
2, 76544, Note_off_c, 0, 69, 80
2, 76800, Note_on_c, 0, 64, 125
2, 77056, Note_off_c, 0, 64, 80
2, 78528, Note_on_c, 0, 62, 125
2, 78528, Note_on_c, 0, 67, 125
2, 78528, Note_on_c, 0, 71, 125
2, 78592, Note_off_c, 0, 62, 80
2, 78592, Note_off_c, 0, 67, 80
2, 78592, Note_off_c, 0, 71, 80
2, 78624, Note_on_c, 0, 59, 125
2, 78688, Note_off_c, 0, 59, 80
2, 78720, Note_on_c, 0, 62, 125
2, 78720, Note_on_c, 0, 59, 125
2, 78720, Note_on_c, 0, 67, 125
2, 78720, Note_on_c, 0, 71, 125
2, 78848, Note_off_c, 0, 62, 80
2, 78848, Note_off_c, 0, 59, 80
2, 78848, Note_off_c, 0, 67, 80
2, 78848, Note_off_c, 0, 71, 80
2, 78912, Note_on_c, 0, 61, 125
2, 78912, Note_on_c, 0, 66, 125
2, 78912, Note_on_c, 0, 70, 125
2, 78912, Note_on_c, 0, 73, 125
2, 79040, Note_off_c, 0, 61, 80
2, 79040, Note_off_c, 0, 66, 80
2, 79040, Note_off_c, 0, 70, 80
2, 79040, Note_off_c, 0, 73, 80
2, 79104, Note_on_c, 0, 62, 125
2, 79104, Note_on_c, 0, 66, 125
2, 79104, Note_on_c, 0, 71, 125
2, 79104, Note_on_c, 0, 74, 125
2, 79232, Note_off_c, 0, 62, 80
2, 79232, Note_off_c, 0, 66, 80
2, 79232, Note_off_c, 0, 71, 80
2, 79232, Note_off_c, 0, 74, 80
2, 79296, Note_on_c, 0, 64, 125
2, 79296, Note_on_c, 0, 69, 125
2, 79296, Note_on_c, 0, 73, 125
2, 79296, Note_on_c, 0, 76, 125
2, 79424, Note_off_c, 0, 64, 80
2, 79424, Note_off_c, 0, 69, 80
2, 79424, Note_off_c, 0, 73, 80
2, 79424, Note_off_c, 0, 76, 80
2, 79488, Note_on_c, 0, 66, 125
2, 79488, Note_on_c, 0, 69, 125
2, 79488, Note_on_c, 0, 74, 125
2, 79488, Note_on_c, 0, 78, 125
2, 79616, Note_off_c, 0, 66, 80
2, 79616, Note_off_c, 0, 69, 80
2, 79616, Note_off_c, 0, 74, 80
2, 79616, Note_off_c, 0, 78, 80
2, 79680, Note_on_c, 0, 69, 125
2, 79680, Note_on_c, 0, 74, 125
2, 79680, Note_on_c, 0, 78, 125
2, 79744, Note_off_c, 0, 69, 80
2, 79744, Note_off_c, 0, 74, 80
2, 79744, Note_off_c, 0, 78, 80
2, 79776, Note_on_c, 0, 66, 125
2, 79840, Note_off_c, 0, 66, 80
2, 79872, Note_on_c, 0, 66, 125
2, 79872, Note_on_c, 0, 69, 125
2, 79872, Note_on_c, 0, 74, 125
2, 79872, Note_on_c, 0, 78, 125
2, 80000, Note_off_c, 0, 66, 80
2, 80000, Note_off_c, 0, 69, 80
2, 80000, Note_off_c, 0, 74, 80
2, 80000, Note_off_c, 0, 78, 80
2, 80064, Note_on_c, 0, 68, 125
2, 80064, Note_on_c, 0, 73, 125
2, 80064, Note_on_c, 0, 77, 125
2, 80064, Note_on_c, 0, 80, 125
2, 80192, Note_off_c, 0, 68, 80
2, 80192, Note_off_c, 0, 73, 80
2, 80192, Note_off_c, 0, 77, 80
2, 80192, Note_off_c, 0, 80, 80
2, 80256, Note_on_c, 0, 69, 125
2, 80256, Note_on_c, 0, 73, 125
2, 80256, Note_on_c, 0, 78, 125
2, 80256, Note_on_c, 0, 81, 125
2, 80384, Note_off_c, 0, 69, 80
2, 80384, Note_off_c, 0, 73, 80
2, 80384, Note_off_c, 0, 78, 80
2, 80384, Note_off_c, 0, 81, 80
2, 80448, Note_on_c, 0, 71, 125
2, 80448, Note_on_c, 0, 76, 125
2, 80448, Note_on_c, 0, 80, 125
2, 80448, Note_on_c, 0, 83, 125
2, 80576, Note_off_c, 0, 71, 80
2, 80576, Note_off_c, 0, 76, 80
2, 80576, Note_off_c, 0, 80, 80
2, 80576, Note_off_c, 0, 83, 80
2, 80640, Note_on_c, 0, 73, 125
2, 80640, Note_on_c, 0, 79, 125
2, 80640, Note_on_c, 0, 85, 125
2, 80768, Note_off_c, 0, 73, 80
2, 80768, Note_off_c, 0, 79, 80
2, 80768, Note_off_c, 0, 85, 80
2, 80832, Note_on_c, 0, 73, 125
2, 80832, Note_on_c, 0, 79, 125
2, 80832, Note_on_c, 0, 85, 125
2, 80832, Note_on_c, 0, 67, 125
2, 80832, Note_on_c, 0, 64, 125
2, 80832, Note_on_c, 0, 69, 125
2, 80832, Note_on_c, 0, 57, 125
2, 80896, Note_off_c, 0, 73, 80
2, 80896, Note_off_c, 0, 79, 80
2, 80896, Note_off_c, 0, 85, 80
2, 80896, Note_off_c, 0, 67, 80
2, 80896, Note_off_c, 0, 64, 80
2, 80896, Note_off_c, 0, 69, 80
2, 80896, Note_off_c, 0, 57, 80
2, 80928, Note_on_c, 0, 73, 125
2, 80928, Note_on_c, 0, 79, 125
2, 80928, Note_on_c, 0, 85, 125
2, 80928, Note_on_c, 0, 57, 125
2, 80928, Note_on_c, 0, 64, 125
2, 80928, Note_on_c, 0, 67, 125
2, 80928, Note_on_c, 0, 69, 125
2, 80992, Note_off_c, 0, 73, 80
2, 80992, Note_off_c, 0, 79, 80
2, 80992, Note_off_c, 0, 85, 80
2, 80992, Note_off_c, 0, 57, 80
2, 80992, Note_off_c, 0, 64, 80
2, 80992, Note_off_c, 0, 67, 80
2, 80992, Note_off_c, 0, 69, 80
2, 81024, Note_on_c, 0, 73, 125
2, 81024, Note_on_c, 0, 79, 125
2, 81024, Note_on_c, 0, 81, 125
2, 81024, Note_on_c, 0, 85, 125
2, 81024, Note_on_c, 0, 57, 125
2, 81024, Note_on_c, 0, 64, 125
2, 81024, Note_on_c, 0, 67, 125
2, 81024, Note_on_c, 0, 69, 125
2, 81152, Note_off_c, 0, 73, 80
2, 81152, Note_off_c, 0, 79, 80
2, 81152, Note_off_c, 0, 81, 80
2, 81152, Note_off_c, 0, 85, 80
2, 81152, Note_off_c, 0, 57, 80
2, 81152, Note_off_c, 0, 64, 80
2, 81152, Note_off_c, 0, 67, 80
2, 81152, Note_off_c, 0, 69, 80
2, 81216, Note_on_c, 0, 73, 125
2, 81216, Note_on_c, 0, 79, 125
2, 81216, Note_on_c, 0, 83, 125
2, 81216, Note_on_c, 0, 57, 125
2, 81216, Note_on_c, 0, 64, 125
2, 81216, Note_on_c, 0, 67, 125
2, 81216, Note_on_c, 0, 69, 125
2, 81280, Note_off_c, 0, 73, 80
2, 81280, Note_off_c, 0, 79, 80
2, 81280, Note_off_c, 0, 83, 80
2, 81280, Note_off_c, 0, 57, 80
2, 81280, Note_off_c, 0, 64, 80
2, 81280, Note_off_c, 0, 67, 80
2, 81280, Note_off_c, 0, 69, 80
2, 81312, Note_on_c, 0, 73, 125
2, 81312, Note_on_c, 0, 79, 125
2, 81312, Note_on_c, 0, 81, 125
2, 81312, Note_on_c, 0, 57, 125
2, 81312, Note_on_c, 0, 64, 125
2, 81312, Note_on_c, 0, 67, 125
2, 81312, Note_on_c, 0, 69, 125
2, 81376, Note_off_c, 0, 73, 80
2, 81376, Note_off_c, 0, 79, 80
2, 81376, Note_off_c, 0, 81, 80
2, 81376, Note_off_c, 0, 57, 80
2, 81376, Note_off_c, 0, 64, 80
2, 81376, Note_off_c, 0, 67, 80
2, 81376, Note_off_c, 0, 69, 80
2, 81408, Note_on_c, 0, 74, 125
2, 81408, Note_on_c, 0, 78, 125
2, 81408, Note_on_c, 0, 86, 125
2, 81408, Note_on_c, 0, 69, 125
2, 81408, Note_on_c, 0, 66, 125
2, 81408, Note_on_c, 0, 57, 125
2, 81536, Note_off_c, 0, 74, 80
2, 81536, Note_off_c, 0, 78, 80
2, 81536, Note_off_c, 0, 86, 80
2, 81536, Note_off_c, 0, 69, 80
2, 81536, Note_off_c, 0, 66, 80
2, 81536, Note_off_c, 0, 57, 80
2, 81600, Note_on_c, 0, 75, 125
2, 81600, Note_on_c, 0, 81, 125
2, 81600, Note_on_c, 0, 87, 125
2, 81600, Note_on_c, 0, 69, 125
2, 81600, Note_on_c, 0, 66, 125
2, 81600, Note_on_c, 0, 60, 125
2, 81600, Note_on_c, 0, 57, 125
2, 81728, Note_off_c, 0, 75, 80
2, 81728, Note_off_c, 0, 81, 80
2, 81728, Note_off_c, 0, 87, 80
2, 81728, Note_off_c, 0, 69, 80
2, 81728, Note_off_c, 0, 66, 80
2, 81728, Note_off_c, 0, 60, 80
2, 81728, Note_off_c, 0, 57, 80
2, 81792, Note_on_c, 0, 76, 125
2, 81792, Note_on_c, 0, 81, 125
2, 81792, Note_on_c, 0, 88, 125
2, 81792, Note_on_c, 0, 69, 125
2, 81792, Note_on_c, 0, 67, 125
2, 81792, Note_on_c, 0, 61, 125
2, 81792, Note_on_c, 0, 57, 125
2, 81920, Note_off_c, 0, 76, 80
2, 81920, Note_off_c, 0, 81, 80
2, 81920, Note_off_c, 0, 88, 80
2, 81920, Note_off_c, 0, 69, 80
2, 81920, Note_off_c, 0, 67, 80
2, 81920, Note_off_c, 0, 61, 80
2, 81920, Note_off_c, 0, 57, 80
2, 81984, Note_on_c, 0, 93, 125
2, 81984, Note_on_c, 0, 81, 125
2, 82048, Note_off_c, 0, 93, 80
2, 82048, Note_off_c, 0, 81, 80
2, 82080, Note_on_c, 0, 93, 125
2, 82080, Note_on_c, 0, 81, 125
2, 82144, Note_off_c, 0, 93, 80
2, 82144, Note_off_c, 0, 81, 80
2, 82176, Note_on_c, 0, 93, 125
2, 82176, Note_on_c, 0, 81, 125
2, 82304, Note_off_c, 0, 93, 80
2, 82304, Note_off_c, 0, 81, 80
2, 82368, Note_on_c, 0, 92, 125
2, 82368, Note_on_c, 0, 80, 125
2, 82432, Note_off_c, 0, 92, 80
2, 82432, Note_off_c, 0, 80, 80
2, 82464, Note_on_c, 0, 93, 125
2, 82464, Note_on_c, 0, 81, 125
2, 82528, Note_off_c, 0, 93, 80
2, 82528, Note_off_c, 0, 81, 80
2, 82560, Note_on_c, 0, 94, 125
2, 82560, Note_on_c, 0, 82, 125
2, 82624, Note_off_c, 0, 94, 80
2, 82624, Note_off_c, 0, 82, 80
2, 82656, Note_on_c, 0, 95, 125
2, 82656, Note_on_c, 0, 83, 125
2, 82720, Note_off_c, 0, 95, 80
2, 82720, Note_off_c, 0, 83, 80
2, 82752, Note_on_c, 0, 96, 125
2, 82752, Note_on_c, 0, 84, 125
2, 82816, Note_off_c, 0, 96, 80
2, 82816, Note_off_c, 0, 84, 80
2, 82848, Note_on_c, 0, 97, 125
2, 82848, Note_on_c, 0, 85, 125
2, 82912, Note_off_c, 0, 97, 80
2, 82912, Note_off_c, 0, 85, 80
2, 82944, Note_on_c, 0, 86, 125
2, 82944, Note_on_c, 0, 98, 125
2, 83456, Note_off_c, 0, 86, 80
2, 83456, Note_off_c, 0, 98, 80
2, 83712, Note_on_c, 0, 81, 125
2, 83712, Note_on_c, 0, 93, 125
2, 83968, Note_off_c, 0, 81, 80
2, 83968, Note_off_c, 0, 93, 80
2, 84096, Note_on_c, 0, 74, 125
2, 84096, Note_on_c, 0, 86, 125
2, 84224, Note_off_c, 0, 74, 80
2, 84224, Note_off_c, 0, 86, 80
2, 84384, Note_on_c, 0, 69, 125
2, 84384, Note_on_c, 0, 81, 125
2, 84448, Note_off_c, 0, 69, 80
2, 84448, Note_off_c, 0, 81, 80
2, 84480, Note_on_c, 0, 86, 125
2, 84480, Note_on_c, 0, 74, 125
2, 84992, Note_off_c, 0, 86, 80
2, 84992, Note_off_c, 0, 74, 80
2, 85248, Note_on_c, 0, 93, 125
2, 85248, Note_on_c, 0, 81, 125
2, 85760, Note_off_c, 0, 93, 80
2, 85760, Note_off_c, 0, 81, 80
2, 86016, Note_on_c, 0, 76, 125
2, 86016, Note_on_c, 0, 88, 125
2, 86272, Note_off_c, 0, 76, 80
2, 86272, Note_off_c, 0, 88, 80
2, 86400, Note_on_c, 0, 69, 125
2, 86400, Note_on_c, 0, 81, 125
2, 86528, Note_off_c, 0, 69, 80
2, 86528, Note_off_c, 0, 81, 80
2, 86688, Note_on_c, 0, 64, 125
2, 86688, Note_on_c, 0, 76, 125
2, 86752, Note_off_c, 0, 64, 80
2, 86752, Note_off_c, 0, 76, 80
2, 86784, Note_on_c, 0, 69, 125
2, 86784, Note_on_c, 0, 81, 125
2, 87296, Note_off_c, 0, 69, 80
2, 87296, Note_off_c, 0, 81, 80
2, 87552, Note_on_c, 0, 69, 125
2, 87552, Note_on_c, 0, 75, 125
2, 87552, Note_on_c, 0, 81, 125
2, 87680, Note_off_c, 0, 69, 80
2, 87680, Note_off_c, 0, 75, 80
2, 87680, Note_off_c, 0, 81, 80
2, 87744, Note_on_c, 0, 69, 125
2, 87744, Note_on_c, 0, 75, 125
2, 87744, Note_on_c, 0, 81, 125
2, 87808, Note_off_c, 0, 69, 80
2, 87808, Note_off_c, 0, 75, 80
2, 87808, Note_off_c, 0, 81, 80
2, 87840, Note_on_c, 0, 69, 125
2, 87840, Note_on_c, 0, 75, 125
2, 87840, Note_on_c, 0, 81, 125
2, 87904, Note_off_c, 0, 69, 80
2, 87904, Note_off_c, 0, 75, 80
2, 87904, Note_off_c, 0, 81, 80
2, 87936, Note_on_c, 0, 69, 125
2, 87936, Note_on_c, 0, 75, 125
2, 87936, Note_on_c, 0, 81, 125
2, 88064, Note_off_c, 0, 69, 80
2, 88064, Note_off_c, 0, 75, 80
2, 88064, Note_off_c, 0, 81, 80
2, 88128, Note_on_c, 0, 69, 125
2, 88128, Note_on_c, 0, 75, 125
2, 88128, Note_on_c, 0, 79, 125
2, 88192, Note_off_c, 0, 69, 80
2, 88192, Note_off_c, 0, 75, 80
2, 88192, Note_off_c, 0, 79, 80
2, 88224, Note_on_c, 0, 69, 125
2, 88224, Note_on_c, 0, 75, 125
2, 88224, Note_on_c, 0, 77, 125
2, 88224, Note_on_c, 0, 81, 125
2, 88288, Note_off_c, 0, 69, 80
2, 88288, Note_off_c, 0, 75, 80
2, 88288, Note_off_c, 0, 77, 80
2, 88288, Note_off_c, 0, 81, 80
2, 88320, Note_on_c, 0, 70, 125
2, 88320, Note_on_c, 0, 74, 125
2, 88320, Note_on_c, 0, 77, 125
2, 88320, Note_on_c, 0, 82, 125
2, 88448, Note_off_c, 0, 70, 80
2, 88448, Note_off_c, 0, 74, 80
2, 88448, Note_off_c, 0, 77, 80
2, 88512, Note_on_c, 0, 70, 125
2, 88512, Note_on_c, 0, 74, 125
2, 88512, Note_on_c, 0, 77, 125
2, 88576, Note_off_c, 0, 82, 80
2, 88640, Note_off_c, 0, 70, 80
2, 88640, Note_off_c, 0, 74, 80
2, 88640, Note_off_c, 0, 77, 80
2, 88704, Note_on_c, 0, 71, 125
2, 88704, Note_on_c, 0, 77, 125
2, 88704, Note_on_c, 0, 83, 125
2, 88832, Note_off_c, 0, 71, 80
2, 88832, Note_off_c, 0, 77, 80
2, 88832, Note_off_c, 0, 83, 80
2, 88896, Note_on_c, 0, 71, 125
2, 88896, Note_on_c, 0, 77, 125
2, 88896, Note_on_c, 0, 83, 125
2, 88960, Note_off_c, 0, 71, 80
2, 88960, Note_off_c, 0, 77, 80
2, 88960, Note_off_c, 0, 83, 80
2, 88992, Note_on_c, 0, 71, 125
2, 88992, Note_on_c, 0, 77, 125
2, 88992, Note_on_c, 0, 83, 125
2, 89056, Note_off_c, 0, 71, 80
2, 89056, Note_off_c, 0, 77, 80
2, 89056, Note_off_c, 0, 83, 80
2, 89088, Note_on_c, 0, 71, 125
2, 89088, Note_on_c, 0, 77, 125
2, 89088, Note_on_c, 0, 83, 125
2, 89216, Note_off_c, 0, 71, 80
2, 89216, Note_off_c, 0, 77, 80
2, 89216, Note_off_c, 0, 83, 80
2, 89280, Note_on_c, 0, 71, 125
2, 89280, Note_on_c, 0, 77, 125
2, 89280, Note_on_c, 0, 81, 125
2, 89344, Note_off_c, 0, 71, 80
2, 89344, Note_off_c, 0, 77, 80
2, 89344, Note_off_c, 0, 81, 80
2, 89376, Note_on_c, 0, 71, 125
2, 89376, Note_on_c, 0, 77, 125
2, 89376, Note_on_c, 0, 79, 125
2, 89376, Note_on_c, 0, 83, 125
2, 89440, Note_off_c, 0, 71, 80
2, 89440, Note_off_c, 0, 77, 80
2, 89440, Note_off_c, 0, 79, 80
2, 89440, Note_off_c, 0, 83, 80
2, 89472, Note_on_c, 0, 72, 125
2, 89472, Note_on_c, 0, 76, 125
2, 89472, Note_on_c, 0, 84, 125
2, 89600, Note_off_c, 0, 72, 80
2, 89600, Note_off_c, 0, 76, 80
2, 89600, Note_off_c, 0, 84, 80
2, 89664, Note_on_c, 0, 72, 125
2, 89664, Note_on_c, 0, 76, 125
2, 89664, Note_on_c, 0, 79, 125
2, 89792, Note_off_c, 0, 72, 80
2, 89792, Note_off_c, 0, 76, 80
2, 89792, Note_off_c, 0, 79, 80
2, 89856, Note_on_c, 0, 73, 125
2, 89856, Note_on_c, 0, 79, 125
2, 89856, Note_on_c, 0, 85, 125
2, 89984, Note_off_c, 0, 73, 80
2, 89984, Note_off_c, 0, 79, 80
2, 89984, Note_off_c, 0, 85, 80
2, 90048, Note_on_c, 0, 73, 125
2, 90048, Note_on_c, 0, 79, 125
2, 90048, Note_on_c, 0, 85, 125
2, 90048, Note_on_c, 0, 69, 125
2, 90048, Note_on_c, 0, 67, 125
2, 90048, Note_on_c, 0, 64, 125
2, 90048, Note_on_c, 0, 61, 125
2, 90048, Note_on_c, 0, 57, 125
2, 90112, Note_off_c, 0, 73, 80
2, 90112, Note_off_c, 0, 79, 80
2, 90112, Note_off_c, 0, 85, 80
2, 90112, Note_off_c, 0, 69, 80
2, 90112, Note_off_c, 0, 67, 80
2, 90112, Note_off_c, 0, 64, 80
2, 90112, Note_off_c, 0, 61, 80
2, 90112, Note_off_c, 0, 57, 80
2, 90144, Note_on_c, 0, 74, 125
2, 90144, Note_on_c, 0, 79, 125
2, 90144, Note_on_c, 0, 86, 125
2, 90144, Note_on_c, 0, 69, 125
2, 90144, Note_on_c, 0, 67, 125
2, 90144, Note_on_c, 0, 64, 125
2, 90144, Note_on_c, 0, 61, 125
2, 90144, Note_on_c, 0, 57, 125
2, 90208, Note_off_c, 0, 74, 80
2, 90208, Note_off_c, 0, 79, 80
2, 90208, Note_off_c, 0, 86, 80
2, 90208, Note_off_c, 0, 69, 80
2, 90208, Note_off_c, 0, 67, 80
2, 90208, Note_off_c, 0, 64, 80
2, 90208, Note_off_c, 0, 61, 80
2, 90208, Note_off_c, 0, 57, 80
2, 90240, Note_on_c, 0, 76, 125
2, 90240, Note_on_c, 0, 79, 125
2, 90240, Note_on_c, 0, 88, 125
2, 90240, Note_on_c, 0, 69, 125
2, 90240, Note_on_c, 0, 67, 125
2, 90240, Note_on_c, 0, 64, 125
2, 90240, Note_on_c, 0, 61, 125
2, 90240, Note_on_c, 0, 57, 125
2, 90368, Note_off_c, 0, 76, 80
2, 90368, Note_off_c, 0, 79, 80
2, 90368, Note_off_c, 0, 88, 80
2, 90368, Note_off_c, 0, 69, 80
2, 90368, Note_off_c, 0, 67, 80
2, 90368, Note_off_c, 0, 64, 80
2, 90368, Note_off_c, 0, 61, 80
2, 90368, Note_off_c, 0, 57, 80
2, 90432, Note_on_c, 0, 73, 125
2, 90432, Note_on_c, 0, 79, 125
2, 90432, Note_on_c, 0, 85, 125
2, 90432, Note_on_c, 0, 69, 125
2, 90432, Note_on_c, 0, 67, 125
2, 90432, Note_on_c, 0, 64, 125
2, 90432, Note_on_c, 0, 61, 125
2, 90432, Note_on_c, 0, 57, 125
2, 90496, Note_off_c, 0, 73, 80
2, 90496, Note_off_c, 0, 79, 80
2, 90496, Note_off_c, 0, 85, 80
2, 90496, Note_off_c, 0, 69, 80
2, 90496, Note_off_c, 0, 67, 80
2, 90496, Note_off_c, 0, 64, 80
2, 90496, Note_off_c, 0, 61, 80
2, 90496, Note_off_c, 0, 57, 80
2, 90528, Note_on_c, 0, 74, 125
2, 90528, Note_on_c, 0, 86, 125
2, 90528, Note_on_c, 0, 69, 125
2, 90528, Note_on_c, 0, 67, 125
2, 90528, Note_on_c, 0, 64, 125
2, 90528, Note_on_c, 0, 61, 125
2, 90528, Note_on_c, 0, 57, 125
2, 90592, Note_off_c, 0, 74, 80
2, 90592, Note_off_c, 0, 86, 80
2, 90592, Note_off_c, 0, 69, 80
2, 90592, Note_off_c, 0, 67, 80
2, 90592, Note_off_c, 0, 64, 80
2, 90592, Note_off_c, 0, 61, 80
2, 90592, Note_off_c, 0, 57, 80
2, 90624, Note_on_c, 0, 76, 125
2, 90624, Note_on_c, 0, 88, 125
2, 90624, Note_on_c, 0, 67, 125
2, 90624, Note_on_c, 0, 69, 125
2, 90624, Note_on_c, 0, 64, 125
2, 90624, Note_on_c, 0, 61, 125
2, 90624, Note_on_c, 0, 57, 125
2, 90688, Note_off_c, 0, 76, 80
2, 90688, Note_off_c, 0, 88, 80
2, 90720, Note_on_c, 0, 78, 125
2, 90720, Note_on_c, 0, 90, 125
2, 90752, Note_off_c, 0, 67, 80
2, 90752, Note_off_c, 0, 69, 80
2, 90752, Note_off_c, 0, 64, 80
2, 90752, Note_off_c, 0, 61, 80
2, 90752, Note_off_c, 0, 57, 80
2, 90784, Note_off_c, 0, 78, 80
2, 90784, Note_off_c, 0, 90, 80
2, 90816, Note_on_c, 0, 79, 125
2, 90816, Note_on_c, 0, 91, 125
2, 90816, Note_on_c, 0, 67, 125
2, 90816, Note_on_c, 0, 69, 125
2, 90816, Note_on_c, 0, 64, 125
2, 90816, Note_on_c, 0, 61, 125
2, 90816, Note_on_c, 0, 57, 125
2, 90880, Note_off_c, 0, 79, 80
2, 90880, Note_off_c, 0, 91, 80
2, 90880, Note_off_c, 0, 67, 80
2, 90880, Note_off_c, 0, 69, 80
2, 90880, Note_off_c, 0, 64, 80
2, 90880, Note_off_c, 0, 61, 80
2, 90880, Note_off_c, 0, 57, 80
2, 90912, Note_on_c, 0, 80, 125
2, 90912, Note_on_c, 0, 92, 125
2, 90912, Note_on_c, 0, 67, 125
2, 90912, Note_on_c, 0, 69, 125
2, 90912, Note_on_c, 0, 64, 125
2, 90912, Note_on_c, 0, 61, 125
2, 90912, Note_on_c, 0, 57, 125
2, 90976, Note_off_c, 0, 80, 80
2, 90976, Note_off_c, 0, 92, 80
2, 90976, Note_off_c, 0, 67, 80
2, 90976, Note_off_c, 0, 69, 80
2, 90976, Note_off_c, 0, 64, 80
2, 90976, Note_off_c, 0, 61, 80
2, 90976, Note_off_c, 0, 57, 80
2, 91008, Note_on_c, 0, 81, 125
2, 91008, Note_on_c, 0, 93, 125
2, 91072, Note_off_c, 0, 81, 80
2, 91072, Note_off_c, 0, 93, 80
2, 91104, Note_on_c, 0, 82, 125
2, 91104, Note_on_c, 0, 94, 125
2, 91168, Note_off_c, 0, 82, 80
2, 91168, Note_off_c, 0, 94, 80
2, 91200, Note_on_c, 0, 83, 125
2, 91200, Note_on_c, 0, 95, 125
2, 91264, Note_off_c, 0, 83, 80
2, 91264, Note_off_c, 0, 95, 80
2, 91296, Note_on_c, 0, 85, 125
2, 91296, Note_on_c, 0, 97, 125
2, 91360, Note_off_c, 0, 85, 80
2, 91360, Note_off_c, 0, 97, 80
2, 91392, Note_on_c, 0, 88, 125
2, 91392, Note_on_c, 0, 93, 125
2, 91392, Note_on_c, 0, 100, 125
2, 91648, Note_off_c, 0, 88, 80
2, 91648, Note_off_c, 0, 93, 80
2, 91648, Note_off_c, 0, 100, 80
2, 91776, Note_on_c, 0, 86, 125
2, 91776, Note_on_c, 0, 98, 125
2, 91904, Note_off_c, 0, 86, 80
2, 91904, Note_off_c, 0, 98, 80
2, 93504, Note_on_c, 0, 74, 125
2, 93504, Note_on_c, 0, 79, 125
2, 93504, Note_on_c, 0, 86, 125
2, 93568, Note_off_c, 0, 74, 80
2, 93568, Note_off_c, 0, 79, 80
2, 93568, Note_off_c, 0, 86, 80
2, 93600, Note_on_c, 0, 74, 125
2, 93600, Note_on_c, 0, 79, 125
2, 93600, Note_on_c, 0, 86, 125
2, 93664, Note_off_c, 0, 74, 80
2, 93664, Note_off_c, 0, 79, 80
2, 93664, Note_off_c, 0, 86, 80
2, 93696, Note_on_c, 0, 74, 125
2, 93696, Note_on_c, 0, 79, 125
2, 93696, Note_on_c, 0, 86, 125
2, 93824, Note_off_c, 0, 74, 80
2, 93824, Note_off_c, 0, 79, 80
2, 93824, Note_off_c, 0, 86, 80
2, 93888, Note_on_c, 0, 74, 125
2, 93888, Note_on_c, 0, 79, 125
2, 93888, Note_on_c, 0, 86, 125
2, 94016, Note_off_c, 0, 74, 80
2, 94016, Note_off_c, 0, 79, 80
2, 94016, Note_off_c, 0, 86, 80
2, 94080, Note_on_c, 0, 74, 125
2, 94080, Note_on_c, 0, 79, 125
2, 94080, Note_on_c, 0, 86, 125
2, 94208, Note_off_c, 0, 74, 80
2, 94208, Note_off_c, 0, 79, 80
2, 94208, Note_off_c, 0, 86, 80
2, 94272, Note_on_c, 0, 74, 125
2, 94272, Note_on_c, 0, 79, 125
2, 94272, Note_on_c, 0, 86, 125
2, 94400, Note_off_c, 0, 74, 80
2, 94400, Note_off_c, 0, 79, 80
2, 94400, Note_off_c, 0, 86, 80
2, 95808, Note_on_c, 0, 74, 125
2, 95808, Note_on_c, 0, 80, 125
2, 95808, Note_on_c, 0, 86, 125
2, 95872, Note_off_c, 0, 74, 80
2, 95872, Note_off_c, 0, 80, 80
2, 95872, Note_off_c, 0, 86, 80
2, 95904, Note_on_c, 0, 74, 125
2, 95904, Note_on_c, 0, 80, 125
2, 95904, Note_on_c, 0, 86, 125
2, 95968, Note_off_c, 0, 74, 80
2, 95968, Note_off_c, 0, 80, 80
2, 95968, Note_off_c, 0, 86, 80
2, 96000, Note_on_c, 0, 74, 125
2, 96000, Note_on_c, 0, 80, 125
2, 96000, Note_on_c, 0, 86, 125
2, 96128, Note_off_c, 0, 74, 80
2, 96128, Note_off_c, 0, 80, 80
2, 96128, Note_off_c, 0, 86, 80
2, 96192, Note_on_c, 0, 74, 125
2, 96192, Note_on_c, 0, 80, 125
2, 96192, Note_on_c, 0, 86, 125
2, 96320, Note_off_c, 0, 74, 80
2, 96320, Note_off_c, 0, 80, 80
2, 96320, Note_off_c, 0, 86, 80
2, 96384, Note_on_c, 0, 74, 125
2, 96384, Note_on_c, 0, 80, 125
2, 96384, Note_on_c, 0, 86, 125
2, 96512, Note_off_c, 0, 74, 80
2, 96512, Note_off_c, 0, 80, 80
2, 96512, Note_off_c, 0, 86, 80
2, 96576, Note_on_c, 0, 74, 125
2, 96576, Note_on_c, 0, 80, 125
2, 96576, Note_on_c, 0, 86, 125
2, 96704, Note_off_c, 0, 74, 80
2, 96704, Note_off_c, 0, 80, 80
2, 96704, Note_off_c, 0, 86, 80
2, 98112, Note_on_c, 0, 74, 125
2, 98112, Note_on_c, 0, 78, 125
2, 98112, Note_on_c, 0, 86, 125
2, 98176, Note_off_c, 0, 74, 80
2, 98176, Note_off_c, 0, 78, 80
2, 98176, Note_off_c, 0, 86, 80
2, 98208, Note_on_c, 0, 74, 125
2, 98208, Note_on_c, 0, 78, 125
2, 98208, Note_on_c, 0, 86, 125
2, 98272, Note_off_c, 0, 74, 80
2, 98272, Note_off_c, 0, 78, 80
2, 98272, Note_off_c, 0, 86, 80
2, 98304, Note_on_c, 0, 74, 125
2, 98304, Note_on_c, 0, 78, 125
2, 98304, Note_on_c, 0, 86, 125
2, 98432, Note_off_c, 0, 74, 80
2, 98432, Note_off_c, 0, 78, 80
2, 98432, Note_off_c, 0, 86, 80
2, 98496, Note_on_c, 0, 74, 125
2, 98496, Note_on_c, 0, 78, 125
2, 98496, Note_on_c, 0, 86, 125
2, 98624, Note_off_c, 0, 74, 80
2, 98624, Note_off_c, 0, 78, 80
2, 98624, Note_off_c, 0, 86, 80
2, 99264, Note_on_c, 0, 74, 125
2, 99264, Note_on_c, 0, 79, 125
2, 99264, Note_on_c, 0, 86, 125
2, 99328, Note_off_c, 0, 74, 80
2, 99328, Note_off_c, 0, 79, 80
2, 99328, Note_off_c, 0, 86, 80
2, 99360, Note_on_c, 0, 74, 125
2, 99360, Note_on_c, 0, 79, 125
2, 99360, Note_on_c, 0, 86, 125
2, 99424, Note_off_c, 0, 74, 80
2, 99424, Note_off_c, 0, 79, 80
2, 99424, Note_off_c, 0, 86, 80
2, 99456, Note_on_c, 0, 74, 125
2, 99456, Note_on_c, 0, 80, 125
2, 99456, Note_on_c, 0, 86, 125
2, 99584, Note_off_c, 0, 74, 80
2, 99584, Note_off_c, 0, 80, 80
2, 99584, Note_off_c, 0, 86, 80
2, 99648, Note_on_c, 0, 74, 125
2, 99648, Note_on_c, 0, 76, 125
2, 99648, Note_on_c, 0, 80, 125
2, 99648, Note_on_c, 0, 86, 125
2, 99648, Note_on_c, 0, 88, 125
2, 99744, Note_on_c, 0, 74, 125
2, 99744, Note_on_c, 0, 76, 125
2, 99744, Note_on_c, 0, 80, 125
2, 99744, Note_on_c, 0, 86, 125
2, 99744, Note_on_c, 0, 88, 125
2, 99776, Note_off_c, 0, 74, 80
2, 99776, Note_off_c, 0, 76, 80
2, 99776, Note_off_c, 0, 80, 80
2, 99776, Note_off_c, 0, 86, 80
2, 99776, Note_off_c, 0, 88, 80
2, 99808, Note_off_c, 0, 74, 80
2, 99808, Note_off_c, 0, 76, 80
2, 99808, Note_off_c, 0, 80, 80
2, 99808, Note_off_c, 0, 86, 80
2, 99808, Note_off_c, 0, 88, 80
2, 99840, Note_on_c, 0, 74, 125
2, 99840, Note_on_c, 0, 76, 125
2, 99840, Note_on_c, 0, 80, 125
2, 99840, Note_on_c, 0, 86, 125
2, 99840, Note_on_c, 0, 88, 125
2, 99968, Note_off_c, 0, 74, 80
2, 99968, Note_off_c, 0, 76, 80
2, 99968, Note_off_c, 0, 80, 80
2, 99968, Note_off_c, 0, 86, 80
2, 99968, Note_off_c, 0, 88, 80
2, 100032, Note_on_c, 0, 74, 125
2, 100032, Note_on_c, 0, 76, 125
2, 100032, Note_on_c, 0, 80, 125
2, 100032, Note_on_c, 0, 86, 125
2, 100032, Note_on_c, 0, 88, 125
2, 100160, Note_off_c, 0, 74, 80
2, 100160, Note_off_c, 0, 76, 80
2, 100160, Note_off_c, 0, 80, 80
2, 100160, Note_off_c, 0, 86, 80
2, 100160, Note_off_c, 0, 88, 80
2, 100224, Note_on_c, 0, 93, 125
2, 100224, Note_on_c, 0, 81, 125
2, 100224, Note_on_c, 0, 85, 125
2, 100352, Note_off_c, 0, 93, 80
2, 100352, Note_off_c, 0, 81, 80
2, 100352, Note_off_c, 0, 85, 80
2, 101280, Note_on_c, 0, 62, 125
2, 101376, Note_on_c, 0, 74, 125
2, 101408, Note_off_c, 0, 62, 80
2, 101888, Note_off_c, 0, 74, 80
2, 102144, Note_on_c, 0, 69, 125
2, 102400, Note_off_c, 0, 69, 80
2, 102528, Note_on_c, 0, 62, 125
2, 102528, Note_on_c, 0, 62, 125
2, 102656, Note_off_c, 0, 62, 80
2, 102656, Note_off_c, 0, 62, 80
2, 102816, Note_on_c, 0, 57, 125
2, 102880, Note_off_c, 0, 57, 80
2, 102912, Note_on_c, 0, 62, 125
2, 103424, Note_off_c, 0, 62, 80
2, 103680, Note_on_c, 0, 69, 125
2, 104192, Note_off_c, 0, 69, 80
2, 104448, Note_on_c, 0, 64, 125
2, 104704, Note_off_c, 0, 64, 80
2, 106080, Note_on_c, 0, 62, 125
2, 106080, Note_on_c, 0, 67, 125
2, 106080, Note_on_c, 0, 71, 125
2, 106144, Note_off_c, 0, 62, 80
2, 106144, Note_off_c, 0, 67, 80
2, 106144, Note_off_c, 0, 71, 80
2, 106176, Note_on_c, 0, 59, 125
2, 106240, Note_off_c, 0, 59, 80
2, 106272, Note_on_c, 0, 62, 125
2, 106272, Note_on_c, 0, 67, 125
2, 106272, Note_on_c, 0, 71, 125
2, 106336, Note_off_c, 0, 62, 80
2, 106336, Note_off_c, 0, 67, 80
2, 106336, Note_off_c, 0, 71, 80
2, 106368, Note_on_c, 0, 59, 125
2, 106368, Note_on_c, 0, 62, 125
2, 106368, Note_on_c, 0, 67, 125
2, 106368, Note_on_c, 0, 71, 125
2, 106496, Note_off_c, 0, 59, 80
2, 106496, Note_off_c, 0, 62, 80
2, 106496, Note_off_c, 0, 67, 80
2, 106496, Note_off_c, 0, 71, 80
2, 106560, Note_on_c, 0, 61, 125
2, 106560, Note_on_c, 0, 66, 125
2, 106560, Note_on_c, 0, 70, 125
2, 106560, Note_on_c, 0, 73, 125
2, 106688, Note_off_c, 0, 61, 80
2, 106688, Note_off_c, 0, 66, 80
2, 106688, Note_off_c, 0, 70, 80
2, 106688, Note_off_c, 0, 73, 80
2, 106752, Note_on_c, 0, 62, 125
2, 106752, Note_on_c, 0, 66, 125
2, 106752, Note_on_c, 0, 71, 125
2, 106752, Note_on_c, 0, 74, 125
2, 106880, Note_off_c, 0, 62, 80
2, 106880, Note_off_c, 0, 66, 80
2, 106880, Note_off_c, 0, 71, 80
2, 106880, Note_off_c, 0, 74, 80
2, 106944, Note_on_c, 0, 64, 125
2, 106944, Note_on_c, 0, 69, 125
2, 106944, Note_on_c, 0, 73, 125
2, 106944, Note_on_c, 0, 76, 125
2, 107072, Note_off_c, 0, 64, 80
2, 107072, Note_off_c, 0, 69, 80
2, 107072, Note_off_c, 0, 73, 80
2, 107072, Note_off_c, 0, 76, 80
2, 107136, Note_on_c, 0, 66, 125
2, 107136, Note_on_c, 0, 69, 125
2, 107136, Note_on_c, 0, 74, 125
2, 107136, Note_on_c, 0, 78, 125
2, 107232, Note_on_c, 0, 69, 125
2, 107232, Note_on_c, 0, 73, 125
2, 107232, Note_on_c, 0, 78, 125
2, 107264, Note_off_c, 0, 66, 80
2, 107264, Note_off_c, 0, 69, 80
2, 107264, Note_off_c, 0, 74, 80
2, 107264, Note_off_c, 0, 78, 80
2, 107296, Note_off_c, 0, 69, 80
2, 107296, Note_off_c, 0, 73, 80
2, 107296, Note_off_c, 0, 78, 80
2, 107328, Note_on_c, 0, 66, 125
2, 107392, Note_off_c, 0, 66, 80
2, 107424, Note_on_c, 0, 69, 125
2, 107424, Note_on_c, 0, 74, 125
2, 107424, Note_on_c, 0, 78, 125
2, 107488, Note_off_c, 0, 69, 80
2, 107488, Note_off_c, 0, 74, 80
2, 107488, Note_off_c, 0, 78, 80
2, 107520, Note_on_c, 0, 69, 125
2, 107520, Note_on_c, 0, 74, 125
2, 107520, Note_on_c, 0, 78, 125
2, 107648, Note_off_c, 0, 69, 80
2, 107648, Note_off_c, 0, 74, 80
2, 107648, Note_off_c, 0, 78, 80
2, 107712, Note_on_c, 0, 68, 125
2, 107712, Note_on_c, 0, 73, 125
2, 107712, Note_on_c, 0, 77, 125
2, 107712, Note_on_c, 0, 80, 125
2, 107840, Note_off_c, 0, 68, 80
2, 107840, Note_off_c, 0, 73, 80
2, 107840, Note_off_c, 0, 77, 80
2, 107840, Note_off_c, 0, 80, 80
2, 107904, Note_on_c, 0, 69, 125
2, 107904, Note_on_c, 0, 73, 125
2, 107904, Note_on_c, 0, 78, 125
2, 107904, Note_on_c, 0, 81, 125
2, 108032, Note_off_c, 0, 69, 80
2, 108032, Note_off_c, 0, 73, 80
2, 108032, Note_off_c, 0, 78, 80
2, 108032, Note_off_c, 0, 81, 80
2, 108096, Note_on_c, 0, 71, 125
2, 108096, Note_on_c, 0, 76, 125
2, 108096, Note_on_c, 0, 80, 125
2, 108096, Note_on_c, 0, 83, 125
2, 108224, Note_off_c, 0, 71, 80
2, 108224, Note_off_c, 0, 76, 80
2, 108224, Note_off_c, 0, 80, 80
2, 108224, Note_off_c, 0, 83, 80
2, 108288, Note_on_c, 0, 73, 125
2, 108288, Note_on_c, 0, 79, 125
2, 108288, Note_on_c, 0, 85, 125
2, 108416, Note_off_c, 0, 73, 80
2, 108416, Note_off_c, 0, 79, 80
2, 108416, Note_off_c, 0, 85, 80
2, 108480, Note_on_c, 0, 73, 125
2, 108480, Note_on_c, 0, 79, 125
2, 108480, Note_on_c, 0, 85, 125
2, 108480, Note_on_c, 0, 67, 125
2, 108480, Note_on_c, 0, 64, 125
2, 108480, Note_on_c, 0, 69, 125
2, 108480, Note_on_c, 0, 57, 125
2, 108544, Note_off_c, 0, 73, 80
2, 108544, Note_off_c, 0, 79, 80
2, 108544, Note_off_c, 0, 85, 80
2, 108544, Note_off_c, 0, 67, 80
2, 108544, Note_off_c, 0, 64, 80
2, 108544, Note_off_c, 0, 69, 80
2, 108544, Note_off_c, 0, 57, 80
2, 108576, Note_on_c, 0, 73, 125
2, 108576, Note_on_c, 0, 79, 125
2, 108576, Note_on_c, 0, 85, 125
2, 108576, Note_on_c, 0, 57, 125
2, 108640, Note_off_c, 0, 73, 80
2, 108640, Note_off_c, 0, 79, 80
2, 108640, Note_off_c, 0, 85, 80
2, 108640, Note_off_c, 0, 57, 80
2, 108672, Note_on_c, 0, 73, 125
2, 108672, Note_on_c, 0, 79, 125
2, 108672, Note_on_c, 0, 85, 125
2, 108672, Note_on_c, 0, 57, 125
2, 108672, Note_on_c, 0, 64, 125
2, 108672, Note_on_c, 0, 67, 125
2, 108672, Note_on_c, 0, 69, 125
2, 108800, Note_off_c, 0, 73, 80
2, 108800, Note_off_c, 0, 79, 80
2, 108800, Note_off_c, 0, 85, 80
2, 108800, Note_off_c, 0, 57, 80
2, 108800, Note_off_c, 0, 64, 80
2, 108800, Note_off_c, 0, 67, 80
2, 108800, Note_off_c, 0, 69, 80
2, 108864, Note_on_c, 0, 73, 125
2, 108864, Note_on_c, 0, 79, 125
2, 108864, Note_on_c, 0, 83, 125
2, 108864, Note_on_c, 0, 57, 125
2, 108864, Note_on_c, 0, 64, 125
2, 108864, Note_on_c, 0, 67, 125
2, 108864, Note_on_c, 0, 69, 125
2, 108928, Note_off_c, 0, 73, 80
2, 108928, Note_off_c, 0, 79, 80
2, 108928, Note_off_c, 0, 83, 80
2, 108928, Note_off_c, 0, 57, 80
2, 108928, Note_off_c, 0, 64, 80
2, 108928, Note_off_c, 0, 67, 80
2, 108928, Note_off_c, 0, 69, 80
2, 108960, Note_on_c, 0, 73, 125
2, 108960, Note_on_c, 0, 79, 125
2, 108960, Note_on_c, 0, 81, 125
2, 108960, Note_on_c, 0, 57, 125
2, 108960, Note_on_c, 0, 64, 125
2, 108960, Note_on_c, 0, 67, 125
2, 108960, Note_on_c, 0, 69, 125
2, 109024, Note_off_c, 0, 73, 80
2, 109024, Note_off_c, 0, 79, 80
2, 109024, Note_off_c, 0, 81, 80
2, 109024, Note_off_c, 0, 57, 80
2, 109024, Note_off_c, 0, 64, 80
2, 109024, Note_off_c, 0, 67, 80
2, 109024, Note_off_c, 0, 69, 80
2, 109056, Note_on_c, 0, 78, 125
2, 109056, Note_on_c, 0, 74, 125
2, 109056, Note_on_c, 0, 86, 125
2, 109056, Note_on_c, 0, 57, 125
2, 109056, Note_on_c, 0, 66, 125
2, 109056, Note_on_c, 0, 69, 125
2, 109184, Note_off_c, 0, 78, 80
2, 109184, Note_off_c, 0, 74, 80
2, 109184, Note_off_c, 0, 86, 80
2, 109184, Note_off_c, 0, 57, 80
2, 109184, Note_off_c, 0, 66, 80
2, 109184, Note_off_c, 0, 69, 80
2, 109248, Note_on_c, 0, 75, 125
2, 109248, Note_on_c, 0, 81, 125
2, 109248, Note_on_c, 0, 87, 125
2, 109248, Note_on_c, 0, 57, 125
2, 109248, Note_on_c, 0, 60, 125
2, 109248, Note_on_c, 0, 66, 125
2, 109248, Note_on_c, 0, 69, 125
2, 109376, Note_off_c, 0, 75, 80
2, 109376, Note_off_c, 0, 81, 80
2, 109376, Note_off_c, 0, 87, 80
2, 109376, Note_off_c, 0, 57, 80
2, 109376, Note_off_c, 0, 60, 80
2, 109376, Note_off_c, 0, 66, 80
2, 109376, Note_off_c, 0, 69, 80
2, 109440, Note_on_c, 0, 88, 125
2, 109440, Note_on_c, 0, 76, 125
2, 109440, Note_on_c, 0, 83, 125
2, 109440, Note_on_c, 0, 67, 125
2, 109568, Note_off_c, 0, 88, 80
2, 109568, Note_off_c, 0, 76, 80
2, 109568, Note_off_c, 0, 83, 80
2, 109568, Note_off_c, 0, 67, 80
2, 109632, Note_on_c, 0, 81, 125
2, 109632, Note_on_c, 0, 93, 125
2, 109696, Note_off_c, 0, 81, 80
2, 109696, Note_off_c, 0, 93, 80
2, 109728, Note_on_c, 0, 81, 125
2, 109728, Note_on_c, 0, 93, 125
2, 109792, Note_off_c, 0, 81, 80
2, 109792, Note_off_c, 0, 93, 80
2, 109824, Note_on_c, 0, 81, 125
2, 109824, Note_on_c, 0, 93, 125
2, 109888, Note_off_c, 0, 93, 80
2, 109952, Note_off_c, 0, 81, 80
2, 110016, Note_on_c, 0, 80, 125
2, 110016, Note_on_c, 0, 92, 125
2, 110080, Note_off_c, 0, 80, 80
2, 110080, Note_off_c, 0, 92, 80
2, 110112, Note_on_c, 0, 81, 125
2, 110112, Note_on_c, 0, 93, 125
2, 110176, Note_off_c, 0, 81, 80
2, 110176, Note_off_c, 0, 93, 80
2, 110208, Note_on_c, 0, 82, 125
2, 110208, Note_on_c, 0, 94, 125
2, 110272, Note_off_c, 0, 82, 80
2, 110272, Note_off_c, 0, 94, 80
2, 110304, Note_on_c, 0, 83, 125
2, 110304, Note_on_c, 0, 95, 125
2, 110368, Note_off_c, 0, 83, 80
2, 110368, Note_off_c, 0, 95, 80
2, 110400, Note_on_c, 0, 84, 125
2, 110400, Note_on_c, 0, 96, 125
2, 110464, Note_off_c, 0, 84, 80
2, 110464, Note_off_c, 0, 96, 80
2, 110496, Note_on_c, 0, 85, 125
2, 110496, Note_on_c, 0, 97, 125
2, 110560, Note_off_c, 0, 85, 80
2, 110560, Note_off_c, 0, 97, 80
2, 110592, Note_on_c, 0, 98, 125
2, 110592, Note_on_c, 0, 86, 125
2, 111104, Note_off_c, 0, 98, 80
2, 111104, Note_off_c, 0, 86, 80
2, 111360, Note_on_c, 0, 81, 125
2, 111360, Note_on_c, 0, 93, 125
2, 111616, Note_off_c, 0, 81, 80
2, 111616, Note_off_c, 0, 93, 80
2, 111744, Note_on_c, 0, 74, 125
2, 111744, Note_on_c, 0, 86, 125
2, 111872, Note_off_c, 0, 74, 80
2, 111872, Note_off_c, 0, 86, 80
2, 112032, Note_on_c, 0, 69, 125
2, 112032, Note_on_c, 0, 81, 125
2, 112096, Note_off_c, 0, 69, 80
2, 112096, Note_off_c, 0, 81, 80
2, 112128, Note_on_c, 0, 74, 125
2, 112128, Note_on_c, 0, 86, 125
2, 112640, Note_off_c, 0, 74, 80
2, 112640, Note_off_c, 0, 86, 80
2, 112896, Note_on_c, 0, 93, 125
2, 112896, Note_on_c, 0, 81, 125
2, 113408, Note_off_c, 0, 93, 80
2, 113408, Note_off_c, 0, 81, 80
2, 113664, Note_on_c, 0, 88, 125
2, 113664, Note_on_c, 0, 76, 125
2, 113920, Note_off_c, 0, 88, 80
2, 113920, Note_off_c, 0, 76, 80
2, 114048, Note_on_c, 0, 69, 125
2, 114048, Note_on_c, 0, 81, 125
2, 114176, Note_off_c, 0, 69, 80
2, 114176, Note_off_c, 0, 81, 80
2, 114336, Note_on_c, 0, 64, 125
2, 114336, Note_on_c, 0, 76, 125
2, 114400, Note_off_c, 0, 64, 80
2, 114400, Note_off_c, 0, 76, 80
2, 114432, Note_on_c, 0, 69, 125
2, 114432, Note_on_c, 0, 81, 125
2, 114944, Note_off_c, 0, 69, 80
2, 114944, Note_off_c, 0, 81, 80
2, 115200, Note_on_c, 0, 69, 125
2, 115200, Note_on_c, 0, 81, 125
2, 115200, Note_on_c, 0, 75, 125
2, 115328, Note_off_c, 0, 69, 80
2, 115328, Note_off_c, 0, 81, 80
2, 115328, Note_off_c, 0, 75, 80
2, 115392, Note_on_c, 0, 69, 125
2, 115392, Note_on_c, 0, 81, 125
2, 115392, Note_on_c, 0, 75, 125
2, 115456, Note_off_c, 0, 69, 80
2, 115456, Note_off_c, 0, 81, 80
2, 115456, Note_off_c, 0, 75, 80
2, 115488, Note_on_c, 0, 69, 125
2, 115488, Note_on_c, 0, 81, 125
2, 115488, Note_on_c, 0, 75, 125
2, 115552, Note_off_c, 0, 69, 80
2, 115552, Note_off_c, 0, 81, 80
2, 115552, Note_off_c, 0, 75, 80
2, 115584, Note_on_c, 0, 69, 125
2, 115584, Note_on_c, 0, 81, 125
2, 115584, Note_on_c, 0, 75, 125
2, 115712, Note_off_c, 0, 69, 80
2, 115712, Note_off_c, 0, 81, 80
2, 115712, Note_off_c, 0, 75, 80
2, 115776, Note_on_c, 0, 69, 125
2, 115776, Note_on_c, 0, 79, 125
2, 115776, Note_on_c, 0, 75, 125
2, 115840, Note_off_c, 0, 69, 80
2, 115840, Note_off_c, 0, 79, 80
2, 115840, Note_off_c, 0, 75, 80
2, 115872, Note_on_c, 0, 69, 125
2, 115872, Note_on_c, 0, 75, 125
2, 115872, Note_on_c, 0, 77, 125
2, 115872, Note_on_c, 0, 81, 125
2, 115936, Note_off_c, 0, 69, 80
2, 115936, Note_off_c, 0, 75, 80
2, 115936, Note_off_c, 0, 77, 80
2, 115936, Note_off_c, 0, 81, 80
2, 115968, Note_on_c, 0, 74, 125
2, 115968, Note_on_c, 0, 77, 125
2, 115968, Note_on_c, 0, 70, 125
2, 115968, Note_on_c, 0, 82, 125
2, 116096, Note_off_c, 0, 74, 80
2, 116096, Note_off_c, 0, 77, 80
2, 116096, Note_off_c, 0, 70, 80
2, 116160, Note_on_c, 0, 74, 125
2, 116160, Note_on_c, 0, 74, 125
2, 116160, Note_on_c, 0, 77, 125
2, 116160, Note_on_c, 0, 70, 125
2, 116224, Note_off_c, 0, 82, 80
2, 116288, Note_off_c, 0, 74, 80
2, 116288, Note_off_c, 0, 74, 80
2, 116288, Note_off_c, 0, 77, 80
2, 116288, Note_off_c, 0, 70, 80
2, 116352, Note_on_c, 0, 71, 125
2, 116352, Note_on_c, 0, 77, 125
2, 116352, Note_on_c, 0, 83, 125
2, 116480, Note_off_c, 0, 71, 80
2, 116480, Note_off_c, 0, 77, 80
2, 116480, Note_off_c, 0, 83, 80
2, 116544, Note_on_c, 0, 71, 125
2, 116544, Note_on_c, 0, 77, 125
2, 116544, Note_on_c, 0, 83, 125
2, 116608, Note_off_c, 0, 71, 80
2, 116608, Note_off_c, 0, 77, 80
2, 116608, Note_off_c, 0, 83, 80
2, 116640, Note_on_c, 0, 71, 125
2, 116640, Note_on_c, 0, 77, 125
2, 116640, Note_on_c, 0, 83, 125
2, 116704, Note_off_c, 0, 71, 80
2, 116704, Note_off_c, 0, 77, 80
2, 116704, Note_off_c, 0, 83, 80
2, 116736, Note_on_c, 0, 71, 125
2, 116736, Note_on_c, 0, 77, 125
2, 116736, Note_on_c, 0, 83, 125
2, 116864, Note_off_c, 0, 71, 80
2, 116864, Note_off_c, 0, 77, 80
2, 116864, Note_off_c, 0, 83, 80
2, 116928, Note_on_c, 0, 71, 125
2, 116928, Note_on_c, 0, 77, 125
2, 116928, Note_on_c, 0, 81, 125
2, 116992, Note_off_c, 0, 71, 80
2, 116992, Note_off_c, 0, 77, 80
2, 116992, Note_off_c, 0, 81, 80
2, 117024, Note_on_c, 0, 71, 125
2, 117024, Note_on_c, 0, 77, 125
2, 117024, Note_on_c, 0, 79, 125
2, 117024, Note_on_c, 0, 83, 125
2, 117088, Note_off_c, 0, 71, 80
2, 117088, Note_off_c, 0, 77, 80
2, 117088, Note_off_c, 0, 79, 80
2, 117088, Note_off_c, 0, 83, 80
2, 117120, Note_on_c, 0, 72, 125
2, 117120, Note_on_c, 0, 76, 125
2, 117120, Note_on_c, 0, 79, 125
2, 117120, Note_on_c, 0, 84, 125
2, 117248, Note_off_c, 0, 72, 80
2, 117248, Note_off_c, 0, 76, 80
2, 117248, Note_off_c, 0, 79, 80
2, 117312, Note_on_c, 0, 72, 125
2, 117312, Note_on_c, 0, 76, 125
2, 117312, Note_on_c, 0, 79, 125
2, 117376, Note_off_c, 0, 84, 80
2, 117440, Note_off_c, 0, 72, 80
2, 117440, Note_off_c, 0, 76, 80
2, 117440, Note_off_c, 0, 79, 80
2, 117504, Note_on_c, 0, 73, 125
2, 117504, Note_on_c, 0, 79, 125
2, 117504, Note_on_c, 0, 85, 125
2, 117632, Note_off_c, 0, 73, 80
2, 117632, Note_off_c, 0, 79, 80
2, 117632, Note_off_c, 0, 85, 80
2, 117696, Note_on_c, 0, 71, 125
2, 117696, Note_on_c, 0, 79, 125
2, 117696, Note_on_c, 0, 85, 125
2, 117696, Note_on_c, 0, 67, 125
2, 117696, Note_on_c, 0, 69, 125
2, 117696, Note_on_c, 0, 64, 125
2, 117696, Note_on_c, 0, 61, 125
2, 117696, Note_on_c, 0, 57, 125
2, 117760, Note_off_c, 0, 71, 80
2, 117760, Note_off_c, 0, 79, 80
2, 117760, Note_off_c, 0, 85, 80
2, 117760, Note_off_c, 0, 67, 80
2, 117760, Note_off_c, 0, 69, 80
2, 117760, Note_off_c, 0, 64, 80
2, 117760, Note_off_c, 0, 61, 80
2, 117760, Note_off_c, 0, 57, 80
2, 117792, Note_on_c, 0, 73, 125
2, 117792, Note_on_c, 0, 79, 125
2, 117792, Note_on_c, 0, 86, 125
2, 117792, Note_on_c, 0, 67, 125
2, 117792, Note_on_c, 0, 69, 125
2, 117792, Note_on_c, 0, 64, 125
2, 117792, Note_on_c, 0, 61, 125
2, 117792, Note_on_c, 0, 57, 125
2, 117856, Note_off_c, 0, 73, 80
2, 117856, Note_off_c, 0, 79, 80
2, 117856, Note_off_c, 0, 86, 80
2, 117856, Note_off_c, 0, 67, 80
2, 117856, Note_off_c, 0, 69, 80
2, 117856, Note_off_c, 0, 64, 80
2, 117856, Note_off_c, 0, 61, 80
2, 117856, Note_off_c, 0, 57, 80
2, 117888, Note_on_c, 0, 76, 125
2, 117888, Note_on_c, 0, 79, 125
2, 117888, Note_on_c, 0, 88, 125
2, 117888, Note_on_c, 0, 67, 125
2, 117888, Note_on_c, 0, 69, 125
2, 117888, Note_on_c, 0, 64, 125
2, 117888, Note_on_c, 0, 61, 125
2, 117888, Note_on_c, 0, 57, 125
2, 118016, Note_off_c, 0, 76, 80
2, 118016, Note_off_c, 0, 79, 80
2, 118016, Note_off_c, 0, 88, 80
2, 118016, Note_off_c, 0, 67, 80
2, 118016, Note_off_c, 0, 69, 80
2, 118016, Note_off_c, 0, 64, 80
2, 118016, Note_off_c, 0, 61, 80
2, 118016, Note_off_c, 0, 57, 80
2, 118080, Note_on_c, 0, 73, 125
2, 118080, Note_on_c, 0, 79, 125
2, 118080, Note_on_c, 0, 85, 125
2, 118080, Note_on_c, 0, 67, 125
2, 118080, Note_on_c, 0, 69, 125
2, 118080, Note_on_c, 0, 64, 125
2, 118080, Note_on_c, 0, 61, 125
2, 118080, Note_on_c, 0, 57, 125
2, 118144, Note_off_c, 0, 73, 80
2, 118144, Note_off_c, 0, 79, 80
2, 118144, Note_off_c, 0, 85, 80
2, 118144, Note_off_c, 0, 67, 80
2, 118144, Note_off_c, 0, 69, 80
2, 118144, Note_off_c, 0, 64, 80
2, 118144, Note_off_c, 0, 61, 80
2, 118144, Note_off_c, 0, 57, 80
2, 118176, Note_on_c, 0, 74, 125
2, 118176, Note_on_c, 0, 86, 125
2, 118176, Note_on_c, 0, 67, 125
2, 118176, Note_on_c, 0, 69, 125
2, 118176, Note_on_c, 0, 64, 125
2, 118176, Note_on_c, 0, 61, 125
2, 118176, Note_on_c, 0, 57, 125
2, 118240, Note_off_c, 0, 74, 80
2, 118240, Note_off_c, 0, 86, 80
2, 118240, Note_off_c, 0, 67, 80
2, 118240, Note_off_c, 0, 69, 80
2, 118240, Note_off_c, 0, 64, 80
2, 118240, Note_off_c, 0, 61, 80
2, 118240, Note_off_c, 0, 57, 80
2, 118272, Note_on_c, 0, 76, 125
2, 118272, Note_on_c, 0, 88, 125
2, 118272, Note_on_c, 0, 67, 125
2, 118272, Note_on_c, 0, 69, 125
2, 118272, Note_on_c, 0, 61, 125
2, 118272, Note_on_c, 0, 57, 125
2, 118272, Note_on_c, 0, 64, 125
2, 118336, Note_off_c, 0, 76, 80
2, 118336, Note_off_c, 0, 88, 80
2, 118336, Note_off_c, 0, 67, 80
2, 118336, Note_off_c, 0, 69, 80
2, 118336, Note_off_c, 0, 61, 80
2, 118336, Note_off_c, 0, 57, 80
2, 118336, Note_off_c, 0, 64, 80
2, 118368, Note_on_c, 0, 78, 125
2, 118368, Note_on_c, 0, 90, 125
2, 118368, Note_on_c, 0, 67, 125
2, 118368, Note_on_c, 0, 69, 125
2, 118368, Note_on_c, 0, 64, 125
2, 118368, Note_on_c, 0, 61, 125
2, 118368, Note_on_c, 0, 57, 125
2, 118432, Note_off_c, 0, 78, 80
2, 118432, Note_off_c, 0, 90, 80
2, 118432, Note_off_c, 0, 67, 80
2, 118432, Note_off_c, 0, 69, 80
2, 118432, Note_off_c, 0, 64, 80
2, 118432, Note_off_c, 0, 61, 80
2, 118432, Note_off_c, 0, 57, 80
2, 118464, Note_on_c, 0, 79, 125
2, 118464, Note_on_c, 0, 91, 125
2, 118464, Note_on_c, 0, 64, 125
2, 118464, Note_on_c, 0, 67, 125
2, 118464, Note_on_c, 0, 69, 125
2, 118464, Note_on_c, 0, 61, 125
2, 118464, Note_on_c, 0, 57, 125
2, 118528, Note_off_c, 0, 79, 80
2, 118528, Note_off_c, 0, 91, 80
2, 118528, Note_off_c, 0, 64, 80
2, 118528, Note_off_c, 0, 67, 80
2, 118528, Note_off_c, 0, 69, 80
2, 118528, Note_off_c, 0, 61, 80
2, 118528, Note_off_c, 0, 57, 80
2, 118560, Note_on_c, 0, 80, 125
2, 118560, Note_on_c, 0, 92, 125
2, 118560, Note_on_c, 0, 69, 125
2, 118560, Note_on_c, 0, 67, 125
2, 118560, Note_on_c, 0, 64, 125
2, 118560, Note_on_c, 0, 61, 125
2, 118560, Note_on_c, 0, 57, 125
2, 118624, Note_off_c, 0, 80, 80
2, 118624, Note_off_c, 0, 92, 80
2, 118624, Note_off_c, 0, 69, 80
2, 118624, Note_off_c, 0, 67, 80
2, 118624, Note_off_c, 0, 64, 80
2, 118624, Note_off_c, 0, 61, 80
2, 118624, Note_off_c, 0, 57, 80
2, 118656, Note_on_c, 0, 81, 125
2, 118656, Note_on_c, 0, 93, 125
2, 118720, Note_off_c, 0, 81, 80
2, 118720, Note_off_c, 0, 93, 80
2, 118752, Note_on_c, 0, 82, 125
2, 118752, Note_on_c, 0, 94, 125
2, 118816, Note_off_c, 0, 82, 80
2, 118816, Note_off_c, 0, 94, 80
2, 118848, Note_on_c, 0, 83, 125
2, 118848, Note_on_c, 0, 95, 125
2, 118912, Note_off_c, 0, 83, 80
2, 118912, Note_off_c, 0, 95, 80
2, 118944, Note_on_c, 0, 85, 125
2, 118944, Note_on_c, 0, 97, 125
2, 119008, Note_off_c, 0, 85, 80
2, 119008, Note_off_c, 0, 97, 80
2, 119040, Note_on_c, 0, 88, 125
2, 119040, Note_on_c, 0, 93, 125
2, 119040, Note_on_c, 0, 100, 125
2, 119296, Note_off_c, 0, 88, 80
2, 119296, Note_off_c, 0, 93, 80
2, 119296, Note_off_c, 0, 100, 80
2, 119424, Note_on_c, 0, 86, 125
2, 119424, Note_on_c, 0, 98, 125
2, 119552, Note_off_c, 0, 86, 80
2, 119552, Note_off_c, 0, 98, 80
2, 121152, Note_on_c, 0, 74, 125
2, 121152, Note_on_c, 0, 79, 125
2, 121152, Note_on_c, 0, 86, 125
2, 121216, Note_off_c, 0, 74, 80
2, 121216, Note_off_c, 0, 79, 80
2, 121216, Note_off_c, 0, 86, 80
2, 121248, Note_on_c, 0, 74, 125
2, 121248, Note_on_c, 0, 79, 125
2, 121248, Note_on_c, 0, 86, 125
2, 121312, Note_off_c, 0, 74, 80
2, 121312, Note_off_c, 0, 79, 80
2, 121312, Note_off_c, 0, 86, 80
2, 121344, Note_on_c, 0, 74, 125
2, 121344, Note_on_c, 0, 79, 125
2, 121344, Note_on_c, 0, 86, 125
2, 121472, Note_off_c, 0, 74, 80
2, 121472, Note_off_c, 0, 79, 80
2, 121472, Note_off_c, 0, 86, 80
2, 121536, Note_on_c, 0, 74, 125
2, 121536, Note_on_c, 0, 79, 125
2, 121536, Note_on_c, 0, 86, 125
2, 121664, Note_off_c, 0, 74, 80
2, 121664, Note_off_c, 0, 79, 80
2, 121664, Note_off_c, 0, 86, 80
2, 121728, Note_on_c, 0, 74, 125
2, 121728, Note_on_c, 0, 79, 125
2, 121728, Note_on_c, 0, 86, 125
2, 121856, Note_off_c, 0, 74, 80
2, 121856, Note_off_c, 0, 79, 80
2, 121856, Note_off_c, 0, 86, 80
2, 121920, Note_on_c, 0, 74, 125
2, 121920, Note_on_c, 0, 79, 125
2, 121920, Note_on_c, 0, 86, 125
2, 122048, Note_off_c, 0, 74, 80
2, 122048, Note_off_c, 0, 79, 80
2, 122048, Note_off_c, 0, 86, 80
2, 123456, Note_on_c, 0, 74, 125
2, 123456, Note_on_c, 0, 80, 125
2, 123456, Note_on_c, 0, 86, 125
2, 123520, Note_off_c, 0, 74, 80
2, 123520, Note_off_c, 0, 80, 80
2, 123520, Note_off_c, 0, 86, 80
2, 123552, Note_on_c, 0, 74, 125
2, 123552, Note_on_c, 0, 80, 125
2, 123552, Note_on_c, 0, 86, 125
2, 123616, Note_off_c, 0, 74, 80
2, 123616, Note_off_c, 0, 80, 80
2, 123616, Note_off_c, 0, 86, 80
2, 123648, Note_on_c, 0, 74, 125
2, 123648, Note_on_c, 0, 80, 125
2, 123648, Note_on_c, 0, 86, 125
2, 123776, Note_off_c, 0, 74, 80
2, 123776, Note_off_c, 0, 80, 80
2, 123776, Note_off_c, 0, 86, 80
2, 123840, Note_on_c, 0, 74, 125
2, 123840, Note_on_c, 0, 80, 125
2, 123840, Note_on_c, 0, 86, 125
2, 123968, Note_off_c, 0, 74, 80
2, 123968, Note_off_c, 0, 80, 80
2, 123968, Note_off_c, 0, 86, 80
2, 124032, Note_on_c, 0, 74, 125
2, 124032, Note_on_c, 0, 80, 125
2, 124032, Note_on_c, 0, 86, 125
2, 124160, Note_off_c, 0, 74, 80
2, 124160, Note_off_c, 0, 80, 80
2, 124160, Note_off_c, 0, 86, 80
2, 124224, Note_on_c, 0, 74, 125
2, 124224, Note_on_c, 0, 80, 125
2, 124224, Note_on_c, 0, 86, 125
2, 124352, Note_off_c, 0, 74, 80
2, 124352, Note_off_c, 0, 80, 80
2, 124352, Note_off_c, 0, 86, 80
2, 125760, Note_on_c, 0, 74, 125
2, 125760, Note_on_c, 0, 78, 125
2, 125760, Note_on_c, 0, 86, 125
2, 125824, Note_off_c, 0, 74, 80
2, 125824, Note_off_c, 0, 78, 80
2, 125824, Note_off_c, 0, 86, 80
2, 125856, Note_on_c, 0, 74, 125
2, 125856, Note_on_c, 0, 78, 125
2, 125856, Note_on_c, 0, 86, 125
2, 125920, Note_off_c, 0, 74, 80
2, 125920, Note_off_c, 0, 78, 80
2, 125920, Note_off_c, 0, 86, 80
2, 125952, Note_on_c, 0, 74, 125
2, 125952, Note_on_c, 0, 78, 125
2, 125952, Note_on_c, 0, 86, 125
2, 126080, Note_off_c, 0, 74, 80
2, 126080, Note_off_c, 0, 78, 80
2, 126080, Note_off_c, 0, 86, 80
2, 126144, Note_on_c, 0, 74, 125
2, 126144, Note_on_c, 0, 78, 125
2, 126144, Note_on_c, 0, 86, 125
2, 126272, Note_off_c, 0, 74, 80
2, 126272, Note_off_c, 0, 78, 80
2, 126272, Note_off_c, 0, 86, 80
2, 126912, Note_on_c, 0, 74, 125
2, 126912, Note_on_c, 0, 79, 125
2, 126912, Note_on_c, 0, 86, 125
2, 126976, Note_off_c, 0, 74, 80
2, 126976, Note_off_c, 0, 79, 80
2, 126976, Note_off_c, 0, 86, 80
2, 127008, Note_on_c, 0, 74, 125
2, 127008, Note_on_c, 0, 79, 125
2, 127008, Note_on_c, 0, 86, 125
2, 127072, Note_off_c, 0, 74, 80
2, 127072, Note_off_c, 0, 79, 80
2, 127072, Note_off_c, 0, 86, 80
2, 127104, Note_on_c, 0, 74, 125
2, 127104, Note_on_c, 0, 80, 125
2, 127104, Note_on_c, 0, 86, 125
2, 127232, Note_off_c, 0, 74, 80
2, 127232, Note_off_c, 0, 80, 80
2, 127232, Note_off_c, 0, 86, 80
2, 127296, Note_on_c, 0, 74, 125
2, 127296, Note_on_c, 0, 76, 125
2, 127296, Note_on_c, 0, 80, 125
2, 127296, Note_on_c, 0, 86, 125
2, 127296, Note_on_c, 0, 88, 125
2, 127392, Note_on_c, 0, 74, 125
2, 127392, Note_on_c, 0, 76, 125
2, 127392, Note_on_c, 0, 80, 125
2, 127392, Note_on_c, 0, 86, 125
2, 127392, Note_on_c, 0, 88, 125
2, 127424, Note_off_c, 0, 74, 80
2, 127424, Note_off_c, 0, 76, 80
2, 127424, Note_off_c, 0, 80, 80
2, 127424, Note_off_c, 0, 86, 80
2, 127424, Note_off_c, 0, 88, 80
2, 127456, Note_off_c, 0, 74, 80
2, 127456, Note_off_c, 0, 76, 80
2, 127456, Note_off_c, 0, 80, 80
2, 127456, Note_off_c, 0, 86, 80
2, 127456, Note_off_c, 0, 88, 80
2, 127488, Note_on_c, 0, 74, 125
2, 127488, Note_on_c, 0, 76, 125
2, 127488, Note_on_c, 0, 80, 125
2, 127488, Note_on_c, 0, 86, 125
2, 127488, Note_on_c, 0, 88, 125
2, 127616, Note_off_c, 0, 74, 80
2, 127616, Note_off_c, 0, 76, 80
2, 127616, Note_off_c, 0, 80, 80
2, 127616, Note_off_c, 0, 86, 80
2, 127616, Note_off_c, 0, 88, 80
2, 127680, Note_on_c, 0, 74, 125
2, 127680, Note_on_c, 0, 76, 125
2, 127680, Note_on_c, 0, 80, 125
2, 127680, Note_on_c, 0, 86, 125
2, 127680, Note_on_c, 0, 88, 125
2, 127808, Note_off_c, 0, 74, 80
2, 127808, Note_off_c, 0, 76, 80
2, 127808, Note_off_c, 0, 80, 80
2, 127808, Note_off_c, 0, 86, 80
2, 127808, Note_off_c, 0, 88, 80
2, 127872, Note_on_c, 0, 93, 125
2, 127872, Note_on_c, 0, 81, 125
2, 127872, Note_on_c, 0, 85, 125
2, 128000, Note_off_c, 0, 93, 80
2, 128000, Note_off_c, 0, 81, 80
2, 128000, Note_off_c, 0, 85, 80
2, 128928, Note_on_c, 0, 62, 125
2, 129024, Note_on_c, 0, 74, 125
2, 129056, Note_off_c, 0, 62, 80
2, 129536, Note_off_c, 0, 74, 80
2, 129792, Note_on_c, 0, 69, 125
2, 130048, Note_off_c, 0, 69, 80
2, 130176, Note_on_c, 0, 62, 125
2, 130176, Note_on_c, 0, 62, 125
2, 130304, Note_off_c, 0, 62, 80
2, 130304, Note_off_c, 0, 62, 80
2, 130464, Note_on_c, 0, 57, 125
2, 130528, Note_off_c, 0, 57, 80
2, 130560, Note_on_c, 0, 62, 125
2, 131072, Note_off_c, 0, 62, 80
2, 131328, Note_on_c, 0, 69, 125
2, 131840, Note_off_c, 0, 69, 80
2, 132096, Note_on_c, 0, 64, 125
2, 132352, Note_off_c, 0, 64, 80
2, 133728, Note_on_c, 0, 62, 125
2, 133728, Note_on_c, 0, 67, 125
2, 133728, Note_on_c, 0, 71, 125
2, 133792, Note_off_c, 0, 62, 80
2, 133792, Note_off_c, 0, 67, 80
2, 133792, Note_off_c, 0, 71, 80
2, 133824, Note_on_c, 0, 59, 125
2, 133888, Note_off_c, 0, 59, 80
2, 133920, Note_on_c, 0, 62, 125
2, 133920, Note_on_c, 0, 67, 125
2, 133920, Note_on_c, 0, 71, 125
2, 133984, Note_off_c, 0, 62, 80
2, 133984, Note_off_c, 0, 67, 80
2, 133984, Note_off_c, 0, 71, 80
2, 134016, Note_on_c, 0, 59, 125
2, 134016, Note_on_c, 0, 62, 125
2, 134016, Note_on_c, 0, 67, 125
2, 134016, Note_on_c, 0, 71, 125
2, 134144, Note_off_c, 0, 59, 80
2, 134144, Note_off_c, 0, 62, 80
2, 134144, Note_off_c, 0, 67, 80
2, 134144, Note_off_c, 0, 71, 80
2, 134208, Note_on_c, 0, 61, 125
2, 134208, Note_on_c, 0, 66, 125
2, 134208, Note_on_c, 0, 70, 125
2, 134208, Note_on_c, 0, 73, 125
2, 134336, Note_off_c, 0, 61, 80
2, 134336, Note_off_c, 0, 66, 80
2, 134336, Note_off_c, 0, 70, 80
2, 134336, Note_off_c, 0, 73, 80
2, 134400, Note_on_c, 0, 62, 125
2, 134400, Note_on_c, 0, 66, 125
2, 134400, Note_on_c, 0, 71, 125
2, 134400, Note_on_c, 0, 74, 125
2, 134528, Note_off_c, 0, 62, 80
2, 134528, Note_off_c, 0, 66, 80
2, 134528, Note_off_c, 0, 71, 80
2, 134528, Note_off_c, 0, 74, 80
2, 134592, Note_on_c, 0, 64, 125
2, 134592, Note_on_c, 0, 69, 125
2, 134592, Note_on_c, 0, 73, 125
2, 134592, Note_on_c, 0, 76, 125
2, 134720, Note_off_c, 0, 64, 80
2, 134720, Note_off_c, 0, 69, 80
2, 134720, Note_off_c, 0, 73, 80
2, 134720, Note_off_c, 0, 76, 80
2, 134784, Note_on_c, 0, 66, 125
2, 134784, Note_on_c, 0, 69, 125
2, 134784, Note_on_c, 0, 74, 125
2, 134784, Note_on_c, 0, 78, 125
2, 134880, Note_on_c, 0, 69, 125
2, 134880, Note_on_c, 0, 73, 125
2, 134880, Note_on_c, 0, 78, 125
2, 134912, Note_off_c, 0, 66, 80
2, 134912, Note_off_c, 0, 69, 80
2, 134912, Note_off_c, 0, 74, 80
2, 134912, Note_off_c, 0, 78, 80
2, 134944, Note_off_c, 0, 69, 80
2, 134944, Note_off_c, 0, 73, 80
2, 134944, Note_off_c, 0, 78, 80
2, 134976, Note_on_c, 0, 66, 125
2, 135040, Note_off_c, 0, 66, 80
2, 135072, Note_on_c, 0, 69, 125
2, 135072, Note_on_c, 0, 74, 125
2, 135072, Note_on_c, 0, 78, 125
2, 135136, Note_off_c, 0, 69, 80
2, 135136, Note_off_c, 0, 74, 80
2, 135136, Note_off_c, 0, 78, 80
2, 135168, Note_on_c, 0, 69, 125
2, 135168, Note_on_c, 0, 74, 125
2, 135168, Note_on_c, 0, 78, 125
2, 135296, Note_off_c, 0, 69, 80
2, 135296, Note_off_c, 0, 74, 80
2, 135296, Note_off_c, 0, 78, 80
2, 135360, Note_on_c, 0, 68, 125
2, 135360, Note_on_c, 0, 73, 125
2, 135360, Note_on_c, 0, 77, 125
2, 135360, Note_on_c, 0, 80, 125
2, 135488, Note_off_c, 0, 68, 80
2, 135488, Note_off_c, 0, 73, 80
2, 135488, Note_off_c, 0, 77, 80
2, 135488, Note_off_c, 0, 80, 80
2, 135552, Note_on_c, 0, 69, 125
2, 135552, Note_on_c, 0, 73, 125
2, 135552, Note_on_c, 0, 78, 125
2, 135552, Note_on_c, 0, 81, 125
2, 135680, Note_off_c, 0, 69, 80
2, 135680, Note_off_c, 0, 73, 80
2, 135680, Note_off_c, 0, 78, 80
2, 135680, Note_off_c, 0, 81, 80
2, 135744, Note_on_c, 0, 71, 125
2, 135744, Note_on_c, 0, 76, 125
2, 135744, Note_on_c, 0, 80, 125
2, 135744, Note_on_c, 0, 83, 125
2, 135872, Note_off_c, 0, 71, 80
2, 135872, Note_off_c, 0, 76, 80
2, 135872, Note_off_c, 0, 80, 80
2, 135872, Note_off_c, 0, 83, 80
2, 135936, Note_on_c, 0, 73, 125
2, 135936, Note_on_c, 0, 79, 125
2, 135936, Note_on_c, 0, 85, 125
2, 136064, Note_off_c, 0, 73, 80
2, 136064, Note_off_c, 0, 79, 80
2, 136064, Note_off_c, 0, 85, 80
2, 136128, Note_on_c, 0, 73, 125
2, 136128, Note_on_c, 0, 79, 125
2, 136128, Note_on_c, 0, 85, 125
2, 136128, Note_on_c, 0, 67, 125
2, 136128, Note_on_c, 0, 64, 125
2, 136128, Note_on_c, 0, 69, 125
2, 136128, Note_on_c, 0, 57, 125
2, 136192, Note_off_c, 0, 73, 80
2, 136192, Note_off_c, 0, 79, 80
2, 136192, Note_off_c, 0, 85, 80
2, 136192, Note_off_c, 0, 67, 80
2, 136192, Note_off_c, 0, 64, 80
2, 136192, Note_off_c, 0, 69, 80
2, 136192, Note_off_c, 0, 57, 80
2, 136224, Note_on_c, 0, 73, 125
2, 136224, Note_on_c, 0, 79, 125
2, 136224, Note_on_c, 0, 85, 125
2, 136224, Note_on_c, 0, 57, 125
2, 136288, Note_off_c, 0, 73, 80
2, 136288, Note_off_c, 0, 79, 80
2, 136288, Note_off_c, 0, 85, 80
2, 136288, Note_off_c, 0, 57, 80
2, 136320, Note_on_c, 0, 73, 125
2, 136320, Note_on_c, 0, 79, 125
2, 136320, Note_on_c, 0, 85, 125
2, 136320, Note_on_c, 0, 57, 125
2, 136320, Note_on_c, 0, 64, 125
2, 136320, Note_on_c, 0, 67, 125
2, 136320, Note_on_c, 0, 69, 125
2, 136448, Note_off_c, 0, 73, 80
2, 136448, Note_off_c, 0, 79, 80
2, 136448, Note_off_c, 0, 85, 80
2, 136448, Note_off_c, 0, 57, 80
2, 136448, Note_off_c, 0, 64, 80
2, 136448, Note_off_c, 0, 67, 80
2, 136448, Note_off_c, 0, 69, 80
2, 136512, Note_on_c, 0, 73, 125
2, 136512, Note_on_c, 0, 79, 125
2, 136512, Note_on_c, 0, 83, 125
2, 136512, Note_on_c, 0, 57, 125
2, 136512, Note_on_c, 0, 64, 125
2, 136512, Note_on_c, 0, 67, 125
2, 136512, Note_on_c, 0, 69, 125
2, 136576, Note_off_c, 0, 73, 80
2, 136576, Note_off_c, 0, 79, 80
2, 136576, Note_off_c, 0, 83, 80
2, 136576, Note_off_c, 0, 57, 80
2, 136576, Note_off_c, 0, 64, 80
2, 136576, Note_off_c, 0, 67, 80
2, 136576, Note_off_c, 0, 69, 80
2, 136608, Note_on_c, 0, 73, 125
2, 136608, Note_on_c, 0, 79, 125
2, 136608, Note_on_c, 0, 81, 125
2, 136608, Note_on_c, 0, 57, 125
2, 136608, Note_on_c, 0, 64, 125
2, 136608, Note_on_c, 0, 67, 125
2, 136608, Note_on_c, 0, 69, 125
2, 136672, Note_off_c, 0, 73, 80
2, 136672, Note_off_c, 0, 79, 80
2, 136672, Note_off_c, 0, 81, 80
2, 136672, Note_off_c, 0, 57, 80
2, 136672, Note_off_c, 0, 64, 80
2, 136672, Note_off_c, 0, 67, 80
2, 136672, Note_off_c, 0, 69, 80
2, 136704, Note_on_c, 0, 78, 125
2, 136704, Note_on_c, 0, 74, 125
2, 136704, Note_on_c, 0, 86, 125
2, 136704, Note_on_c, 0, 57, 125
2, 136704, Note_on_c, 0, 66, 125
2, 136704, Note_on_c, 0, 69, 125
2, 136832, Note_off_c, 0, 78, 80
2, 136832, Note_off_c, 0, 74, 80
2, 136832, Note_off_c, 0, 86, 80
2, 136832, Note_off_c, 0, 57, 80
2, 136832, Note_off_c, 0, 66, 80
2, 136832, Note_off_c, 0, 69, 80
2, 136896, Note_on_c, 0, 75, 125
2, 136896, Note_on_c, 0, 81, 125
2, 136896, Note_on_c, 0, 87, 125
2, 136896, Note_on_c, 0, 57, 125
2, 136896, Note_on_c, 0, 60, 125
2, 136896, Note_on_c, 0, 66, 125
2, 136896, Note_on_c, 0, 69, 125
2, 137024, Note_off_c, 0, 75, 80
2, 137024, Note_off_c, 0, 81, 80
2, 137024, Note_off_c, 0, 87, 80
2, 137024, Note_off_c, 0, 57, 80
2, 137024, Note_off_c, 0, 60, 80
2, 137024, Note_off_c, 0, 66, 80
2, 137024, Note_off_c, 0, 69, 80
2, 137088, Note_on_c, 0, 88, 125
2, 137088, Note_on_c, 0, 76, 125
2, 137088, Note_on_c, 0, 83, 125
2, 137088, Note_on_c, 0, 67, 125
2, 137216, Note_off_c, 0, 88, 80
2, 137216, Note_off_c, 0, 76, 80
2, 137216, Note_off_c, 0, 83, 80
2, 137216, Note_off_c, 0, 67, 80
2, 137280, Note_on_c, 0, 81, 125
2, 137280, Note_on_c, 0, 93, 125
2, 137344, Note_off_c, 0, 81, 80
2, 137344, Note_off_c, 0, 93, 80
2, 137376, Note_on_c, 0, 81, 125
2, 137376, Note_on_c, 0, 93, 125
2, 137440, Note_off_c, 0, 81, 80
2, 137440, Note_off_c, 0, 93, 80
2, 137472, Note_on_c, 0, 81, 125
2, 137472, Note_on_c, 0, 93, 125
2, 137536, Note_off_c, 0, 93, 80
2, 137600, Note_off_c, 0, 81, 80
2, 137664, Note_on_c, 0, 80, 125
2, 137664, Note_on_c, 0, 92, 125
2, 137728, Note_off_c, 0, 80, 80
2, 137728, Note_off_c, 0, 92, 80
2, 137760, Note_on_c, 0, 81, 125
2, 137760, Note_on_c, 0, 93, 125
2, 137824, Note_off_c, 0, 81, 80
2, 137824, Note_off_c, 0, 93, 80
2, 137856, Note_on_c, 0, 82, 125
2, 137856, Note_on_c, 0, 94, 125
2, 137920, Note_off_c, 0, 82, 80
2, 137920, Note_off_c, 0, 94, 80
2, 137952, Note_on_c, 0, 83, 125
2, 137952, Note_on_c, 0, 95, 125
2, 138016, Note_off_c, 0, 83, 80
2, 138016, Note_off_c, 0, 95, 80
2, 138048, Note_on_c, 0, 84, 125
2, 138048, Note_on_c, 0, 96, 125
2, 138112, Note_off_c, 0, 84, 80
2, 138112, Note_off_c, 0, 96, 80
2, 138144, Note_on_c, 0, 85, 125
2, 138144, Note_on_c, 0, 97, 125
2, 138208, Note_off_c, 0, 85, 80
2, 138208, Note_off_c, 0, 97, 80
2, 138240, Note_on_c, 0, 74, 125
2, 138240, Note_on_c, 0, 86, 125
2, 138752, Note_off_c, 0, 74, 80
2, 138752, Note_off_c, 0, 86, 80
2, 139008, Note_on_c, 0, 69, 125
2, 139008, Note_on_c, 0, 81, 125
2, 139264, Note_off_c, 0, 69, 80
2, 139264, Note_off_c, 0, 81, 80
2, 139392, Note_on_c, 0, 74, 125
2, 139392, Note_on_c, 0, 86, 125
2, 139520, Note_off_c, 0, 74, 80
2, 139520, Note_off_c, 0, 86, 80
2, 139680, Note_on_c, 0, 69, 125
2, 139680, Note_on_c, 0, 81, 125
2, 139744, Note_off_c, 0, 69, 80
2, 139744, Note_off_c, 0, 81, 80
2, 139776, Note_on_c, 0, 74, 125
2, 139776, Note_on_c, 0, 86, 125
2, 140288, Note_off_c, 0, 74, 80
2, 140288, Note_off_c, 0, 86, 80
2, 140544, Note_on_c, 0, 93, 125
2, 140544, Note_on_c, 0, 81, 125
2, 141056, Note_off_c, 0, 93, 80
2, 141056, Note_off_c, 0, 81, 80
2, 141312, Note_on_c, 0, 88, 125
2, 141312, Note_on_c, 0, 76, 125
2, 141568, Note_off_c, 0, 88, 80
2, 141568, Note_off_c, 0, 76, 80
2, 141696, Note_on_c, 0, 69, 125
2, 141696, Note_on_c, 0, 81, 125
2, 141824, Note_off_c, 0, 69, 80
2, 141824, Note_off_c, 0, 81, 80
2, 141984, Note_on_c, 0, 64, 125
2, 141984, Note_on_c, 0, 76, 125
2, 142048, Note_off_c, 0, 64, 80
2, 142048, Note_off_c, 0, 76, 80
2, 142080, Note_on_c, 0, 69, 125
2, 142080, Note_on_c, 0, 81, 125
2, 142592, Note_off_c, 0, 69, 80
2, 142592, Note_off_c, 0, 81, 80
2, 142848, Note_on_c, 0, 69, 125
2, 142848, Note_on_c, 0, 81, 125
2, 142848, Note_on_c, 0, 75, 125
2, 142976, Note_off_c, 0, 69, 80
2, 142976, Note_off_c, 0, 81, 80
2, 142976, Note_off_c, 0, 75, 80
2, 143040, Note_on_c, 0, 69, 125
2, 143040, Note_on_c, 0, 81, 125
2, 143040, Note_on_c, 0, 75, 125
2, 143104, Note_off_c, 0, 69, 80
2, 143104, Note_off_c, 0, 81, 80
2, 143104, Note_off_c, 0, 75, 80
2, 143136, Note_on_c, 0, 69, 125
2, 143136, Note_on_c, 0, 81, 125
2, 143136, Note_on_c, 0, 75, 125
2, 143200, Note_off_c, 0, 69, 80
2, 143200, Note_off_c, 0, 81, 80
2, 143200, Note_off_c, 0, 75, 80
2, 143232, Note_on_c, 0, 69, 125
2, 143232, Note_on_c, 0, 81, 125
2, 143232, Note_on_c, 0, 75, 125
2, 143360, Note_off_c, 0, 69, 80
2, 143360, Note_off_c, 0, 81, 80
2, 143360, Note_off_c, 0, 75, 80
2, 143424, Note_on_c, 0, 69, 125
2, 143424, Note_on_c, 0, 79, 125
2, 143424, Note_on_c, 0, 75, 125
2, 143488, Note_off_c, 0, 69, 80
2, 143488, Note_off_c, 0, 79, 80
2, 143488, Note_off_c, 0, 75, 80
2, 143520, Note_on_c, 0, 69, 125
2, 143520, Note_on_c, 0, 75, 125
2, 143520, Note_on_c, 0, 77, 125
2, 143520, Note_on_c, 0, 81, 125
2, 143584, Note_off_c, 0, 69, 80
2, 143584, Note_off_c, 0, 75, 80
2, 143584, Note_off_c, 0, 77, 80
2, 143584, Note_off_c, 0, 81, 80
2, 143616, Note_on_c, 0, 77, 125
2, 143616, Note_on_c, 0, 74, 125
2, 143616, Note_on_c, 0, 70, 125
2, 143616, Note_on_c, 0, 82, 125
2, 143744, Note_off_c, 0, 77, 80
2, 143744, Note_off_c, 0, 74, 80
2, 143744, Note_off_c, 0, 70, 80
2, 143808, Note_on_c, 0, 74, 125
2, 143808, Note_on_c, 0, 77, 125
2, 143808, Note_on_c, 0, 70, 125
2, 143872, Note_off_c, 0, 82, 80
2, 143936, Note_off_c, 0, 74, 80
2, 143936, Note_off_c, 0, 77, 80
2, 143936, Note_off_c, 0, 70, 80
2, 144000, Note_on_c, 0, 71, 125
2, 144000, Note_on_c, 0, 77, 125
2, 144000, Note_on_c, 0, 83, 125
2, 144128, Note_off_c, 0, 71, 80
2, 144128, Note_off_c, 0, 77, 80
2, 144128, Note_off_c, 0, 83, 80
2, 144192, Note_on_c, 0, 71, 125
2, 144192, Note_on_c, 0, 77, 125
2, 144192, Note_on_c, 0, 83, 125
2, 144256, Note_off_c, 0, 71, 80
2, 144256, Note_off_c, 0, 77, 80
2, 144256, Note_off_c, 0, 83, 80
2, 144288, Note_on_c, 0, 71, 125
2, 144288, Note_on_c, 0, 77, 125
2, 144288, Note_on_c, 0, 83, 125
2, 144352, Note_off_c, 0, 71, 80
2, 144352, Note_off_c, 0, 77, 80
2, 144352, Note_off_c, 0, 83, 80
2, 144384, Note_on_c, 0, 71, 125
2, 144384, Note_on_c, 0, 77, 125
2, 144384, Note_on_c, 0, 83, 125
2, 144512, Note_off_c, 0, 71, 80
2, 144512, Note_off_c, 0, 77, 80
2, 144512, Note_off_c, 0, 83, 80
2, 144576, Note_on_c, 0, 71, 125
2, 144576, Note_on_c, 0, 77, 125
2, 144576, Note_on_c, 0, 81, 125
2, 144640, Note_off_c, 0, 71, 80
2, 144640, Note_off_c, 0, 77, 80
2, 144640, Note_off_c, 0, 81, 80
2, 144672, Note_on_c, 0, 71, 125
2, 144672, Note_on_c, 0, 77, 125
2, 144672, Note_on_c, 0, 79, 125
2, 144672, Note_on_c, 0, 83, 125
2, 144736, Note_off_c, 0, 71, 80
2, 144736, Note_off_c, 0, 77, 80
2, 144736, Note_off_c, 0, 79, 80
2, 144736, Note_off_c, 0, 83, 80
2, 144768, Note_on_c, 0, 72, 125
2, 144768, Note_on_c, 0, 76, 125
2, 144768, Note_on_c, 0, 79, 125
2, 144768, Note_on_c, 0, 84, 125
2, 144896, Note_off_c, 0, 72, 80
2, 144896, Note_off_c, 0, 76, 80
2, 144896, Note_off_c, 0, 79, 80
2, 144960, Note_on_c, 0, 72, 125
2, 144960, Note_on_c, 0, 76, 125
2, 144960, Note_on_c, 0, 79, 125
2, 145024, Note_off_c, 0, 84, 80
2, 145088, Note_off_c, 0, 72, 80
2, 145088, Note_off_c, 0, 76, 80
2, 145088, Note_off_c, 0, 79, 80
2, 145152, Note_on_c, 0, 73, 125
2, 145152, Note_on_c, 0, 79, 125
2, 145152, Note_on_c, 0, 85, 125
2, 145280, Note_off_c, 0, 73, 80
2, 145280, Note_off_c, 0, 79, 80
2, 145280, Note_off_c, 0, 85, 80
2, 145344, Note_on_c, 0, 71, 125
2, 145344, Note_on_c, 0, 79, 125
2, 145344, Note_on_c, 0, 85, 125
2, 145344, Note_on_c, 0, 67, 125
2, 145344, Note_on_c, 0, 69, 125
2, 145344, Note_on_c, 0, 64, 125
2, 145344, Note_on_c, 0, 61, 125
2, 145344, Note_on_c, 0, 57, 125
2, 145408, Note_off_c, 0, 71, 80
2, 145408, Note_off_c, 0, 79, 80
2, 145408, Note_off_c, 0, 85, 80
2, 145408, Note_off_c, 0, 67, 80
2, 145408, Note_off_c, 0, 69, 80
2, 145408, Note_off_c, 0, 64, 80
2, 145408, Note_off_c, 0, 61, 80
2, 145408, Note_off_c, 0, 57, 80
2, 145440, Note_on_c, 0, 73, 125
2, 145440, Note_on_c, 0, 79, 125
2, 145440, Note_on_c, 0, 86, 125
2, 145440, Note_on_c, 0, 67, 125
2, 145440, Note_on_c, 0, 69, 125
2, 145440, Note_on_c, 0, 64, 125
2, 145440, Note_on_c, 0, 61, 125
2, 145440, Note_on_c, 0, 57, 125
2, 145504, Note_off_c, 0, 73, 80
2, 145504, Note_off_c, 0, 79, 80
2, 145504, Note_off_c, 0, 86, 80
2, 145504, Note_off_c, 0, 67, 80
2, 145504, Note_off_c, 0, 69, 80
2, 145504, Note_off_c, 0, 64, 80
2, 145504, Note_off_c, 0, 61, 80
2, 145504, Note_off_c, 0, 57, 80
2, 145536, Note_on_c, 0, 76, 125
2, 145536, Note_on_c, 0, 79, 125
2, 145536, Note_on_c, 0, 88, 125
2, 145536, Note_on_c, 0, 67, 125
2, 145536, Note_on_c, 0, 69, 125
2, 145536, Note_on_c, 0, 64, 125
2, 145536, Note_on_c, 0, 61, 125
2, 145536, Note_on_c, 0, 57, 125
2, 145664, Note_off_c, 0, 76, 80
2, 145664, Note_off_c, 0, 79, 80
2, 145664, Note_off_c, 0, 88, 80
2, 145664, Note_off_c, 0, 67, 80
2, 145664, Note_off_c, 0, 69, 80
2, 145664, Note_off_c, 0, 64, 80
2, 145664, Note_off_c, 0, 61, 80
2, 145664, Note_off_c, 0, 57, 80
2, 145728, Note_on_c, 0, 73, 125
2, 145728, Note_on_c, 0, 79, 125
2, 145728, Note_on_c, 0, 85, 125
2, 145728, Note_on_c, 0, 67, 125
2, 145728, Note_on_c, 0, 69, 125
2, 145728, Note_on_c, 0, 64, 125
2, 145728, Note_on_c, 0, 61, 125
2, 145728, Note_on_c, 0, 57, 125
2, 145792, Note_off_c, 0, 73, 80
2, 145792, Note_off_c, 0, 79, 80
2, 145792, Note_off_c, 0, 85, 80
2, 145792, Note_off_c, 0, 67, 80
2, 145792, Note_off_c, 0, 69, 80
2, 145792, Note_off_c, 0, 64, 80
2, 145792, Note_off_c, 0, 61, 80
2, 145792, Note_off_c, 0, 57, 80
2, 145824, Note_on_c, 0, 74, 125
2, 145824, Note_on_c, 0, 86, 125
2, 145824, Note_on_c, 0, 67, 125
2, 145824, Note_on_c, 0, 69, 125
2, 145824, Note_on_c, 0, 64, 125
2, 145824, Note_on_c, 0, 61, 125
2, 145824, Note_on_c, 0, 57, 125
2, 145888, Note_off_c, 0, 74, 80
2, 145888, Note_off_c, 0, 86, 80
2, 145888, Note_off_c, 0, 67, 80
2, 145888, Note_off_c, 0, 69, 80
2, 145888, Note_off_c, 0, 64, 80
2, 145888, Note_off_c, 0, 61, 80
2, 145888, Note_off_c, 0, 57, 80
2, 145920, Note_on_c, 0, 76, 125
2, 145920, Note_on_c, 0, 88, 125
2, 145920, Note_on_c, 0, 67, 125
2, 145920, Note_on_c, 0, 69, 125
2, 145920, Note_on_c, 0, 61, 125
2, 145920, Note_on_c, 0, 57, 125
2, 145920, Note_on_c, 0, 64, 125
2, 145984, Note_off_c, 0, 76, 80
2, 145984, Note_off_c, 0, 88, 80
2, 145984, Note_off_c, 0, 67, 80
2, 145984, Note_off_c, 0, 69, 80
2, 145984, Note_off_c, 0, 61, 80
2, 145984, Note_off_c, 0, 57, 80
2, 145984, Note_off_c, 0, 64, 80
2, 146016, Note_on_c, 0, 78, 125
2, 146016, Note_on_c, 0, 90, 125
2, 146016, Note_on_c, 0, 67, 125
2, 146016, Note_on_c, 0, 69, 125
2, 146016, Note_on_c, 0, 64, 125
2, 146016, Note_on_c, 0, 61, 125
2, 146016, Note_on_c, 0, 57, 125
2, 146080, Note_off_c, 0, 78, 80
2, 146080, Note_off_c, 0, 90, 80
2, 146080, Note_off_c, 0, 67, 80
2, 146080, Note_off_c, 0, 69, 80
2, 146080, Note_off_c, 0, 64, 80
2, 146080, Note_off_c, 0, 61, 80
2, 146080, Note_off_c, 0, 57, 80
2, 146112, Note_on_c, 0, 79, 125
2, 146112, Note_on_c, 0, 91, 125
2, 146112, Note_on_c, 0, 64, 125
2, 146112, Note_on_c, 0, 67, 125
2, 146112, Note_on_c, 0, 69, 125
2, 146112, Note_on_c, 0, 61, 125
2, 146112, Note_on_c, 0, 57, 125
2, 146176, Note_off_c, 0, 79, 80
2, 146176, Note_off_c, 0, 91, 80
2, 146176, Note_off_c, 0, 64, 80
2, 146176, Note_off_c, 0, 67, 80
2, 146176, Note_off_c, 0, 69, 80
2, 146176, Note_off_c, 0, 61, 80
2, 146176, Note_off_c, 0, 57, 80
2, 146208, Note_on_c, 0, 80, 125
2, 146208, Note_on_c, 0, 92, 125
2, 146208, Note_on_c, 0, 69, 125
2, 146208, Note_on_c, 0, 67, 125
2, 146208, Note_on_c, 0, 64, 125
2, 146208, Note_on_c, 0, 61, 125
2, 146208, Note_on_c, 0, 57, 125
2, 146272, Note_off_c, 0, 80, 80
2, 146272, Note_off_c, 0, 92, 80
2, 146272, Note_off_c, 0, 69, 80
2, 146272, Note_off_c, 0, 67, 80
2, 146272, Note_off_c, 0, 64, 80
2, 146272, Note_off_c, 0, 61, 80
2, 146272, Note_off_c, 0, 57, 80
2, 146304, Note_on_c, 0, 81, 125
2, 146304, Note_on_c, 0, 93, 125
2, 146368, Note_off_c, 0, 81, 80
2, 146368, Note_off_c, 0, 93, 80
2, 146400, Note_on_c, 0, 82, 125
2, 146400, Note_on_c, 0, 94, 125
2, 146464, Note_off_c, 0, 82, 80
2, 146464, Note_off_c, 0, 94, 80
2, 146496, Note_on_c, 0, 83, 125
2, 146496, Note_on_c, 0, 95, 125
2, 146560, Note_off_c, 0, 83, 80
2, 146560, Note_off_c, 0, 95, 80
2, 146592, Note_on_c, 0, 85, 125
2, 146592, Note_on_c, 0, 97, 125
2, 146656, Note_off_c, 0, 85, 80
2, 146656, Note_off_c, 0, 97, 80
2, 146688, Note_on_c, 0, 88, 125
2, 146688, Note_on_c, 0, 93, 125
2, 146688, Note_on_c, 0, 100, 125
2, 146944, Note_off_c, 0, 88, 80
2, 146944, Note_off_c, 0, 93, 80
2, 146944, Note_off_c, 0, 100, 80
2, 147072, Note_on_c, 0, 86, 125
2, 147072, Note_on_c, 0, 98, 125
2, 147200, Note_off_c, 0, 86, 80
2, 147200, Note_off_c, 0, 98, 80
2, 147456, Key_signature, 3, "major"
2, 147456, Note_on_c, 0, 57, 125
2, 147456, Note_on_c, 0, 61, 125
2, 147456, Note_on_c, 0, 69, 125
2, 147584, Note_off_c, 0, 57, 80
2, 147584, Note_off_c, 0, 61, 80
2, 147584, Note_off_c, 0, 69, 80
2, 147744, Note_on_c, 0, 64, 125
2, 147744, Note_on_c, 0, 61, 125
2, 147808, Note_off_c, 0, 64, 80
2, 147808, Note_off_c, 0, 61, 80
2, 147840, Note_on_c, 0, 64, 125
2, 147840, Note_on_c, 0, 61, 125
2, 147968, Note_off_c, 0, 64, 80
2, 147968, Note_off_c, 0, 61, 80
2, 148128, Note_on_c, 0, 64, 125
2, 148128, Note_on_c, 0, 61, 125
2, 148192, Note_off_c, 0, 64, 80
2, 148192, Note_off_c, 0, 61, 80
2, 148224, Note_on_c, 0, 66, 125
2, 148224, Note_on_c, 0, 62, 125
2, 148288, Note_off_c, 0, 66, 80
2, 148288, Note_off_c, 0, 62, 80
2, 148320, Note_on_c, 0, 62, 125
2, 148320, Note_on_c, 0, 68, 125
2, 148384, Note_off_c, 0, 62, 80
2, 148384, Note_off_c, 0, 68, 80
2, 148416, Note_on_c, 0, 62, 125
2, 148416, Note_on_c, 0, 69, 125
2, 148480, Note_off_c, 0, 62, 80
2, 148480, Note_off_c, 0, 69, 80
2, 148512, Note_on_c, 0, 62, 125
2, 148512, Note_on_c, 0, 71, 125
2, 148576, Note_off_c, 0, 62, 80
2, 148576, Note_off_c, 0, 71, 80
2, 148608, Note_on_c, 0, 61, 125
2, 148608, Note_on_c, 0, 73, 125
2, 148800, Note_off_c, 0, 61, 80
2, 148800, Note_off_c, 0, 73, 80
2, 148896, Note_on_c, 0, 61, 125
2, 148896, Note_on_c, 0, 69, 125
2, 148960, Note_off_c, 0, 61, 80
2, 148960, Note_off_c, 0, 69, 80
2, 148992, Note_on_c, 0, 69, 125
2, 148992, Note_on_c, 0, 61, 125
2, 149120, Note_off_c, 0, 69, 80
2, 149120, Note_off_c, 0, 61, 80
2, 149760, Note_on_c, 0, 61, 125
2, 149760, Note_on_c, 0, 73, 125
2, 149888, Note_off_c, 0, 61, 80
2, 149888, Note_off_c, 0, 73, 80
2, 150048, Note_on_c, 0, 69, 125
2, 150048, Note_on_c, 0, 61, 125
2, 150112, Note_off_c, 0, 69, 80
2, 150112, Note_off_c, 0, 61, 80
2, 150144, Note_on_c, 0, 61, 125
2, 150144, Note_on_c, 0, 69, 125
2, 150272, Note_off_c, 0, 61, 80
2, 150272, Note_off_c, 0, 69, 80
2, 150432, Note_on_c, 0, 68, 125
2, 150432, Note_on_c, 0, 61, 125
2, 150496, Note_off_c, 0, 68, 80
2, 150496, Note_off_c, 0, 61, 80
2, 150528, Note_on_c, 0, 61, 125
2, 150528, Note_on_c, 0, 69, 125
2, 150592, Note_off_c, 0, 61, 80
2, 150592, Note_off_c, 0, 69, 80
2, 150624, Note_on_c, 0, 61, 125
2, 150624, Note_on_c, 0, 71, 125
2, 150624, Note_on_c, 0, 69, 125
2, 150688, Note_off_c, 0, 61, 80
2, 150688, Note_off_c, 0, 71, 80
2, 150688, Note_off_c, 0, 69, 80
2, 150720, Note_on_c, 0, 61, 125
2, 150720, Note_on_c, 0, 69, 125
2, 150720, Note_on_c, 0, 73, 125
2, 150784, Note_off_c, 0, 61, 80
2, 150784, Note_off_c, 0, 69, 80
2, 150784, Note_off_c, 0, 73, 80
2, 150816, Note_on_c, 0, 62, 125
2, 150816, Note_on_c, 0, 74, 125
2, 150816, Note_on_c, 0, 69, 125
2, 150880, Note_off_c, 0, 62, 80
2, 150880, Note_off_c, 0, 74, 80
2, 150880, Note_off_c, 0, 69, 80
2, 150912, Note_on_c, 0, 63, 125
2, 150912, Note_on_c, 0, 69, 125
2, 150912, Note_on_c, 0, 78, 125
2, 151104, Note_off_c, 0, 63, 80
2, 151104, Note_off_c, 0, 69, 80
2, 151104, Note_off_c, 0, 78, 80
2, 151200, Note_on_c, 0, 76, 125
2, 151200, Note_on_c, 0, 69, 125
2, 151200, Note_on_c, 0, 64, 125
2, 151264, Note_off_c, 0, 76, 80
2, 151264, Note_off_c, 0, 69, 80
2, 151264, Note_off_c, 0, 64, 80
2, 151296, Note_on_c, 0, 64, 125
2, 151296, Note_on_c, 0, 69, 125
2, 151296, Note_on_c, 0, 76, 125
2, 151424, Note_off_c, 0, 64, 80
2, 151424, Note_off_c, 0, 69, 80
2, 151424, Note_off_c, 0, 76, 80
2, 152064, Note_on_c, 0, 73, 125
2, 152064, Note_on_c, 0, 77, 125
2, 152064, Note_on_c, 0, 85, 125
2, 152160, Note_on_c, 0, 80, 125
2, 152160, Note_on_c, 0, 73, 125
2, 152160, Note_on_c, 0, 68, 125
2, 152192, Note_off_c, 0, 73, 80
2, 152192, Note_off_c, 0, 77, 80
2, 152192, Note_off_c, 0, 85, 80
2, 152224, Note_off_c, 0, 80, 80
2, 152224, Note_off_c, 0, 73, 80
2, 152224, Note_off_c, 0, 68, 80
2, 152256, Note_on_c, 0, 80, 125
2, 152256, Note_on_c, 0, 73, 125
2, 152256, Note_on_c, 0, 68, 125
2, 152320, Note_off_c, 0, 80, 80
2, 152320, Note_off_c, 0, 73, 80
2, 152320, Note_off_c, 0, 68, 80
2, 152352, Note_on_c, 0, 80, 125
2, 152352, Note_on_c, 0, 73, 125
2, 152352, Note_on_c, 0, 68, 125
2, 152416, Note_off_c, 0, 80, 80
2, 152416, Note_off_c, 0, 73, 80
2, 152416, Note_off_c, 0, 68, 80
2, 152448, Note_on_c, 0, 68, 125
2, 152448, Note_on_c, 0, 73, 125
2, 152448, Note_on_c, 0, 80, 125
2, 152576, Note_off_c, 0, 68, 80
2, 152576, Note_off_c, 0, 73, 80
2, 152576, Note_off_c, 0, 80, 80
2, 152640, Note_on_c, 0, 68, 125
2, 152640, Note_on_c, 0, 73, 125
2, 152640, Note_on_c, 0, 80, 125
2, 152768, Note_off_c, 0, 68, 80
2, 152768, Note_off_c, 0, 73, 80
2, 152768, Note_off_c, 0, 80, 80
2, 152832, Note_on_c, 0, 70, 125
2, 152832, Note_on_c, 0, 75, 125
2, 152832, Note_on_c, 0, 82, 125
2, 152896, Note_off_c, 0, 70, 80
2, 152896, Note_off_c, 0, 75, 80
2, 152896, Note_off_c, 0, 82, 80
2, 152928, Note_on_c, 0, 72, 125
2, 152928, Note_on_c, 0, 84, 125
2, 152992, Note_off_c, 0, 72, 80
2, 152992, Note_off_c, 0, 84, 80
2, 153024, Note_on_c, 0, 73, 125
2, 153024, Note_on_c, 0, 80, 125
2, 153024, Note_on_c, 0, 85, 125
2, 153088, Note_off_c, 0, 73, 80
2, 153088, Note_off_c, 0, 80, 80
2, 153088, Note_off_c, 0, 85, 80
2, 153120, Note_on_c, 0, 75, 125
2, 153120, Note_on_c, 0, 87, 125
2, 153184, Note_off_c, 0, 75, 80
2, 153184, Note_off_c, 0, 87, 80
2, 153216, Note_on_c, 0, 77, 125
2, 153216, Note_on_c, 0, 85, 125
2, 153216, Note_on_c, 0, 89, 125
2, 153408, Note_off_c, 0, 77, 80
2, 153408, Note_off_c, 0, 85, 80
2, 153408, Note_off_c, 0, 89, 80
2, 153504, Note_on_c, 0, 73, 125
2, 153504, Note_on_c, 0, 85, 125
2, 153568, Note_off_c, 0, 73, 80
2, 153568, Note_off_c, 0, 85, 80
2, 153600, Note_on_c, 0, 73, 125
2, 153600, Note_on_c, 0, 85, 125
2, 153728, Note_off_c, 0, 73, 80
2, 153728, Note_off_c, 0, 85, 80
2, 153792, Note_on_c, 0, 73, 125
2, 153792, Note_on_c, 0, 85, 125
2, 153856, Note_off_c, 0, 73, 80
2, 153856, Note_off_c, 0, 85, 80
2, 153888, Note_on_c, 0, 73, 125
2, 153888, Note_on_c, 0, 85, 125
2, 153952, Note_off_c, 0, 73, 80
2, 153952, Note_off_c, 0, 85, 80
2, 153984, Note_on_c, 0, 73, 125
2, 153984, Note_on_c, 0, 85, 125
2, 154048, Note_off_c, 0, 73, 80
2, 154048, Note_off_c, 0, 85, 80
2, 154080, Note_on_c, 0, 73, 125
2, 154080, Note_on_c, 0, 85, 125
2, 154144, Note_off_c, 0, 73, 80
2, 154144, Note_off_c, 0, 85, 80
2, 154176, Note_on_c, 0, 73, 125
2, 154176, Note_on_c, 0, 85, 125
2, 154240, Note_off_c, 0, 73, 80
2, 154240, Note_off_c, 0, 85, 80
2, 154272, Note_on_c, 0, 73, 125
2, 154272, Note_on_c, 0, 85, 125
2, 154336, Note_off_c, 0, 73, 80
2, 154336, Note_off_c, 0, 85, 80
2, 154368, Note_on_c, 0, 73, 125
2, 154368, Note_on_c, 0, 85, 125
2, 154496, Note_off_c, 0, 73, 80
2, 154496, Note_off_c, 0, 85, 80
2, 154560, Note_on_c, 0, 71, 125
2, 154560, Note_on_c, 0, 78, 125
2, 154560, Note_on_c, 0, 83, 125
2, 154656, Note_off_c, 0, 71, 80
2, 154656, Note_off_c, 0, 78, 80
2, 154656, Note_off_c, 0, 83, 80
2, 154656, Note_on_c, 0, 71, 125
2, 154656, Note_on_c, 0, 78, 125
2, 154656, Note_on_c, 0, 83, 125
2, 154720, Note_off_c, 0, 71, 80
2, 154720, Note_off_c, 0, 78, 80
2, 154720, Note_off_c, 0, 83, 80
2, 154752, Note_on_c, 0, 71, 125
2, 154752, Note_on_c, 0, 83, 125
2, 154752, Note_on_c, 0, 78, 125
2, 154880, Note_off_c, 0, 71, 80
2, 154880, Note_off_c, 0, 83, 80
2, 154880, Note_off_c, 0, 78, 80
2, 154944, Note_on_c, 0, 73, 125
2, 154944, Note_on_c, 0, 85, 125
2, 155072, Note_off_c, 0, 73, 80
2, 155072, Note_off_c, 0, 85, 80
2, 155136, Note_on_c, 0, 76, 125
2, 155136, Note_on_c, 0, 81, 125
2, 155136, Note_on_c, 0, 88, 125
2, 155264, Note_off_c, 0, 76, 80
2, 155264, Note_off_c, 0, 81, 80
2, 155264, Note_off_c, 0, 88, 80
2, 155328, Note_on_c, 0, 74, 125
2, 155328, Note_on_c, 0, 86, 125
2, 155392, Note_off_c, 0, 74, 80
2, 155392, Note_off_c, 0, 86, 80
2, 155424, Note_on_c, 0, 73, 125
2, 155424, Note_on_c, 0, 85, 125
2, 155488, Note_off_c, 0, 73, 80
2, 155488, Note_off_c, 0, 85, 80
2, 155520, Note_on_c, 0, 71, 125
2, 155520, Note_on_c, 0, 83, 125
2, 155648, Note_off_c, 0, 71, 80
2, 155648, Note_off_c, 0, 83, 80
2, 155712, Note_on_c, 0, 71, 125
2, 155712, Note_on_c, 0, 76, 125
2, 155712, Note_on_c, 0, 83, 125
2, 155808, Note_on_c, 0, 73, 125
2, 155808, Note_on_c, 0, 85, 125
2, 155872, Note_off_c, 0, 73, 80
2, 155872, Note_off_c, 0, 85, 80
2, 155904, Note_off_c, 0, 71, 80
2, 155904, Note_off_c, 0, 76, 80
2, 155904, Note_off_c, 0, 83, 80
2, 155904, Note_on_c, 0, 71, 125
2, 155904, Note_on_c, 0, 76, 125
2, 155904, Note_on_c, 0, 83, 125
2, 156160, Note_off_c, 0, 71, 80
2, 156160, Note_off_c, 0, 76, 80
2, 156160, Note_off_c, 0, 83, 80
2, 156288, Note_on_c, 0, 69, 125
2, 156288, Note_on_c, 0, 81, 125
2, 156416, Note_off_c, 0, 69, 80
2, 156416, Note_off_c, 0, 81, 80
2, 156672, Note_on_c, 0, 69, 125
2, 156672, Note_on_c, 0, 71, 125
2, 156672, Note_on_c, 0, 75, 125
2, 156672, Note_on_c, 0, 78, 125
2, 156672, Note_on_c, 0, 83, 125
2, 156800, Note_off_c, 0, 69, 80
2, 156800, Note_off_c, 0, 71, 80
2, 156800, Note_off_c, 0, 75, 80
2, 156800, Note_off_c, 0, 78, 80
2, 156800, Note_off_c, 0, 83, 80
2, 156960, Note_on_c, 0, 69, 125
2, 156960, Note_on_c, 0, 71, 125
2, 156960, Note_on_c, 0, 75, 125
2, 156960, Note_on_c, 0, 78, 125
2, 157024, Note_off_c, 0, 69, 80
2, 157024, Note_off_c, 0, 71, 80
2, 157024, Note_off_c, 0, 75, 80
2, 157024, Note_off_c, 0, 78, 80
2, 157056, Note_on_c, 0, 69, 125
2, 157056, Note_on_c, 0, 71, 125
2, 157056, Note_on_c, 0, 75, 125
2, 157056, Note_on_c, 0, 78, 125
2, 157152, Note_on_c, 0, 74, 125
2, 157184, Note_off_c, 0, 69, 80
2, 157184, Note_off_c, 0, 71, 80
2, 157184, Note_off_c, 0, 75, 80
2, 157184, Note_off_c, 0, 78, 80
2, 157216, Note_off_c, 0, 74, 80
2, 157632, Note_on_c, 0, 68, 125
2, 157632, Note_on_c, 0, 76, 125
2, 157632, Note_on_c, 0, 80, 125
2, 157760, Note_off_c, 0, 68, 80
2, 157760, Note_off_c, 0, 76, 80
2, 157760, Note_off_c, 0, 80, 80
2, 157824, Note_on_c, 0, 69, 125
2, 157824, Note_on_c, 0, 71, 125
2, 157824, Note_on_c, 0, 75, 125
2, 157824, Note_on_c, 0, 78, 125
2, 157824, Note_on_c, 0, 83, 125
2, 157952, Note_off_c, 0, 69, 80
2, 157952, Note_off_c, 0, 71, 80
2, 157952, Note_off_c, 0, 75, 80
2, 157952, Note_off_c, 0, 78, 80
2, 157952, Note_off_c, 0, 83, 80
2, 158016, Note_on_c, 0, 69, 125
2, 158016, Note_on_c, 0, 75, 125
2, 158016, Note_on_c, 0, 78, 125
2, 158016, Note_on_c, 0, 71, 125
2, 158080, Note_off_c, 0, 69, 80
2, 158080, Note_off_c, 0, 75, 80
2, 158080, Note_off_c, 0, 78, 80
2, 158080, Note_off_c, 0, 71, 80
2, 158112, Note_on_c, 0, 69, 125
2, 158112, Note_on_c, 0, 71, 125
2, 158112, Note_on_c, 0, 75, 125
2, 158112, Note_on_c, 0, 78, 125
2, 158176, Note_off_c, 0, 69, 80
2, 158176, Note_off_c, 0, 71, 80
2, 158176, Note_off_c, 0, 75, 80
2, 158176, Note_off_c, 0, 78, 80
2, 158208, Note_on_c, 0, 69, 125
2, 158208, Note_on_c, 0, 71, 125
2, 158208, Note_on_c, 0, 75, 125
2, 158208, Note_on_c, 0, 78, 125
2, 158336, Note_off_c, 0, 69, 80
2, 158336, Note_off_c, 0, 71, 80
2, 158336, Note_off_c, 0, 75, 80
2, 158336, Note_off_c, 0, 78, 80
2, 158784, Note_on_c, 0, 68, 125
2, 158784, Note_on_c, 0, 80, 125
2, 158784, Note_on_c, 0, 75, 125
2, 158912, Note_off_c, 0, 68, 80
2, 158912, Note_off_c, 0, 80, 80
2, 158912, Note_off_c, 0, 75, 80
2, 158976, Note_on_c, 0, 64, 125
2, 158976, Note_on_c, 0, 64, 125
2, 158976, Note_on_c, 0, 68, 125
2, 158976, Note_on_c, 0, 73, 125
2, 158976, Note_on_c, 0, 76, 125
2, 159104, Note_off_c, 0, 64, 80
2, 159104, Note_off_c, 0, 64, 80
2, 159104, Note_off_c, 0, 68, 80
2, 159104, Note_off_c, 0, 73, 80
2, 159104, Note_off_c, 0, 76, 80
2, 159168, Note_on_c, 0, 64, 125
2, 159168, Note_on_c, 0, 68, 125
2, 159168, Note_on_c, 0, 73, 125
2, 159168, Note_on_c, 0, 76, 125
2, 159232, Note_off_c, 0, 64, 80
2, 159232, Note_off_c, 0, 68, 80
2, 159232, Note_off_c, 0, 73, 80
2, 159232, Note_off_c, 0, 76, 80
2, 159264, Note_on_c, 0, 73, 125
2, 159264, Note_on_c, 0, 76, 125
2, 159264, Note_on_c, 0, 64, 125
2, 159264, Note_on_c, 0, 68, 125
2, 159328, Note_off_c, 0, 73, 80
2, 159328, Note_off_c, 0, 76, 80
2, 159328, Note_off_c, 0, 64, 80
2, 159328, Note_off_c, 0, 68, 80
2, 159360, Note_on_c, 0, 69, 125
2, 159360, Note_on_c, 0, 73, 125
2, 159360, Note_on_c, 0, 81, 125
2, 159488, Note_off_c, 0, 69, 80
2, 159488, Note_off_c, 0, 73, 80
2, 159488, Note_off_c, 0, 81, 80
2, 159552, Note_on_c, 0, 68, 125
2, 159552, Note_on_c, 0, 73, 125
2, 159552, Note_on_c, 0, 80, 125
2, 159680, Note_off_c, 0, 68, 80
2, 159680, Note_off_c, 0, 73, 80
2, 159680, Note_off_c, 0, 80, 80
2, 159744, Note_on_c, 0, 66, 125
2, 159744, Note_on_c, 0, 73, 125
2, 159744, Note_on_c, 0, 78, 125
2, 159872, Note_off_c, 0, 66, 80
2, 159872, Note_off_c, 0, 73, 80
2, 159872, Note_off_c, 0, 78, 80
2, 159936, Note_on_c, 0, 68, 125
2, 159936, Note_on_c, 0, 66, 125
2, 159936, Note_on_c, 0, 72, 125
2, 159936, Note_on_c, 0, 75, 125
2, 159936, Note_on_c, 0, 80, 125
2, 160064, Note_off_c, 0, 68, 80
2, 160064, Note_off_c, 0, 66, 80
2, 160064, Note_off_c, 0, 72, 80
2, 160064, Note_off_c, 0, 75, 80
2, 160064, Note_off_c, 0, 80, 80
2, 160128, Note_on_c, 0, 64, 125
2, 160128, Note_on_c, 0, 68, 125
2, 160128, Note_on_c, 0, 76, 125
2, 160256, Note_off_c, 0, 64, 80
2, 160256, Note_off_c, 0, 68, 80
2, 160256, Note_off_c, 0, 76, 80
2, 160320, Note_on_c, 0, 75, 125
2, 160320, Note_on_c, 0, 73, 125
2, 160320, Note_on_c, 0, 70, 125
2, 160320, Note_on_c, 0, 67, 125
2, 160320, Note_on_c, 0, 63, 125
2, 160320, Note_on_c, 0, 61, 125
2, 160448, Note_off_c, 0, 75, 80
2, 160448, Note_off_c, 0, 73, 80
2, 160448, Note_off_c, 0, 70, 80
2, 160448, Note_off_c, 0, 67, 80
2, 160448, Note_off_c, 0, 63, 80
2, 160448, Note_off_c, 0, 61, 80
2, 160512, Note_on_c, 0, 60, 125
2, 160512, Note_on_c, 0, 63, 125
2, 160512, Note_on_c, 0, 68, 125
2, 160512, Note_on_c, 0, 72, 125
2, 160640, Note_off_c, 0, 60, 80
2, 160640, Note_off_c, 0, 63, 80
2, 160640, Note_off_c, 0, 68, 80
2, 160640, Note_off_c, 0, 72, 80
2, 160704, Note_on_c, 0, 63, 125
2, 160704, Note_on_c, 0, 75, 125
2, 160768, Note_off_c, 0, 63, 80
2, 160768, Note_off_c, 0, 75, 80
2, 160800, Note_on_c, 0, 63, 125
2, 160800, Note_on_c, 0, 75, 125
2, 160864, Note_off_c, 0, 63, 80
2, 160864, Note_off_c, 0, 75, 80
2, 160896, Note_on_c, 0, 63, 125
2, 160896, Note_on_c, 0, 75, 125
2, 160960, Note_off_c, 0, 63, 80
2, 160960, Note_off_c, 0, 75, 80
2, 160992, Note_on_c, 0, 63, 125
2, 160992, Note_on_c, 0, 75, 125
2, 161056, Note_off_c, 0, 63, 80
2, 161056, Note_off_c, 0, 75, 80
2, 161088, Note_on_c, 0, 63, 125
2, 161088, Note_on_c, 0, 75, 125
2, 161152, Note_off_c, 0, 63, 80
2, 161152, Note_off_c, 0, 75, 80
2, 161184, Note_on_c, 0, 63, 125
2, 161184, Note_on_c, 0, 75, 125
2, 161248, Note_off_c, 0, 63, 80
2, 161248, Note_off_c, 0, 75, 80
2, 161280, Note_on_c, 0, 73, 125
2, 161280, Note_on_c, 0, 75, 125
2, 161280, Note_on_c, 0, 79, 125
2, 161280, Note_on_c, 0, 82, 125
2, 161280, Note_on_c, 0, 85, 125
2, 161280, Note_on_c, 0, 87, 125
2, 161408, Note_off_c, 0, 73, 80
2, 161408, Note_off_c, 0, 75, 80
2, 161408, Note_off_c, 0, 79, 80
2, 161408, Note_off_c, 0, 82, 80
2, 161408, Note_off_c, 0, 85, 80
2, 161408, Note_off_c, 0, 87, 80
2, 161568, Note_on_c, 0, 70, 125
2, 161568, Note_on_c, 0, 73, 125
2, 161568, Note_on_c, 0, 75, 125
2, 161568, Note_on_c, 0, 82, 125
2, 161632, Note_off_c, 0, 70, 80
2, 161632, Note_off_c, 0, 73, 80
2, 161632, Note_off_c, 0, 75, 80
2, 161632, Note_off_c, 0, 82, 80
2, 161664, Note_on_c, 0, 70, 125
2, 161664, Note_on_c, 0, 73, 125
2, 161664, Note_on_c, 0, 75, 125
2, 161664, Note_on_c, 0, 82, 125
2, 161792, Note_off_c, 0, 70, 80
2, 161792, Note_off_c, 0, 73, 80
2, 161792, Note_off_c, 0, 75, 80
2, 161792, Note_off_c, 0, 82, 80
2, 161856, Note_on_c, 0, 62, 125
2, 161920, Note_off_c, 0, 62, 80
2, 161952, Note_on_c, 0, 63, 125
2, 162016, Note_off_c, 0, 63, 80
2, 162048, Note_on_c, 0, 65, 125
2, 162112, Note_off_c, 0, 65, 80
2, 162144, Note_on_c, 0, 63, 125
2, 162208, Note_off_c, 0, 63, 80
2, 162240, Note_on_c, 0, 72, 125
2, 162240, Note_on_c, 0, 75, 125
2, 162240, Note_on_c, 0, 80, 125
2, 162240, Note_on_c, 0, 84, 125
2, 162368, Note_off_c, 0, 72, 80
2, 162368, Note_off_c, 0, 75, 80
2, 162368, Note_off_c, 0, 80, 80
2, 162368, Note_off_c, 0, 84, 80
2, 162432, Note_on_c, 0, 73, 125
2, 162432, Note_on_c, 0, 75, 125
2, 162432, Note_on_c, 0, 79, 125
2, 162432, Note_on_c, 0, 82, 125
2, 162432, Note_on_c, 0, 87, 125
2, 162528, Note_on_c, 0, 70, 125
2, 162528, Note_on_c, 0, 75, 125
2, 162528, Note_on_c, 0, 73, 125
2, 162528, Note_on_c, 0, 82, 125
2, 162560, Note_off_c, 0, 73, 80
2, 162560, Note_off_c, 0, 75, 80
2, 162560, Note_off_c, 0, 79, 80
2, 162560, Note_off_c, 0, 82, 80
2, 162560, Note_off_c, 0, 87, 80
2, 162592, Note_off_c, 0, 70, 80
2, 162592, Note_off_c, 0, 75, 80
2, 162592, Note_off_c, 0, 73, 80
2, 162592, Note_off_c, 0, 82, 80
2, 162624, Note_on_c, 0, 70, 125
2, 162624, Note_on_c, 0, 75, 125
2, 162624, Note_on_c, 0, 73, 125
2, 162624, Note_on_c, 0, 82, 125
2, 162688, Note_off_c, 0, 70, 80
2, 162688, Note_off_c, 0, 75, 80
2, 162688, Note_off_c, 0, 73, 80
2, 162688, Note_off_c, 0, 82, 80
2, 162720, Note_on_c, 0, 70, 125
2, 162720, Note_on_c, 0, 75, 125
2, 162720, Note_on_c, 0, 73, 125
2, 162720, Note_on_c, 0, 82, 125
2, 162784, Note_off_c, 0, 70, 80
2, 162784, Note_off_c, 0, 75, 80
2, 162784, Note_off_c, 0, 73, 80
2, 162784, Note_off_c, 0, 82, 80
2, 162816, Note_on_c, 0, 70, 125
2, 162816, Note_on_c, 0, 82, 125
2, 162816, Note_on_c, 0, 73, 125
2, 162816, Note_on_c, 0, 75, 125
2, 162912, Note_on_c, 0, 62, 125
2, 162944, Note_off_c, 0, 70, 80
2, 162944, Note_off_c, 0, 82, 80
2, 162944, Note_off_c, 0, 73, 80
2, 162944, Note_off_c, 0, 75, 80
2, 162976, Note_off_c, 0, 62, 80
2, 163008, Note_on_c, 0, 63, 125
2, 163072, Note_off_c, 0, 63, 80
2, 163104, Note_on_c, 0, 65, 125
2, 163168, Note_off_c, 0, 65, 80
2, 163200, Note_on_c, 0, 63, 125
2, 163328, Note_off_c, 0, 63, 80
2, 163392, Note_on_c, 0, 72, 125
2, 163392, Note_on_c, 0, 75, 125
2, 163392, Note_on_c, 0, 80, 125
2, 163392, Note_on_c, 0, 84, 125
2, 163520, Note_off_c, 0, 72, 80
2, 163520, Note_off_c, 0, 75, 80
2, 163520, Note_off_c, 0, 80, 80
2, 163520, Note_off_c, 0, 84, 80
2, 163584, Note_on_c, 0, 73, 125
2, 163584, Note_on_c, 0, 78, 125
2, 163584, Note_on_c, 0, 85, 125
2, 163680, Note_on_c, 0, 66, 125
2, 163680, Note_on_c, 0, 73, 125
2, 163680, Note_on_c, 0, 78, 125
2, 163712, Note_off_c, 0, 73, 80
2, 163712, Note_off_c, 0, 78, 80
2, 163712, Note_off_c, 0, 85, 80
2, 163744, Note_off_c, 0, 66, 80
2, 163744, Note_off_c, 0, 73, 80
2, 163744, Note_off_c, 0, 78, 80
2, 163776, Note_on_c, 0, 66, 125
2, 163776, Note_on_c, 0, 73, 125
2, 163776, Note_on_c, 0, 78, 125
2, 163840, Note_off_c, 0, 66, 80
2, 163840, Note_off_c, 0, 73, 80
2, 163872, Note_on_c, 0, 66, 125
2, 163872, Note_on_c, 0, 73, 125
2, 163872, Note_on_c, 0, 78, 125
2, 163904, Note_off_c, 0, 78, 80
2, 163936, Note_off_c, 0, 66, 80
2, 163936, Note_off_c, 0, 73, 80
2, 163968, Note_on_c, 0, 66, 125
2, 163968, Note_on_c, 0, 73, 125
2, 163968, Note_on_c, 0, 78, 125
2, 164000, Note_off_c, 0, 78, 80
2, 164096, Note_off_c, 0, 66, 80
2, 164096, Note_off_c, 0, 73, 80
2, 164096, Note_off_c, 0, 78, 80
2, 164160, Note_on_c, 0, 68, 125
2, 164160, Note_on_c, 0, 73, 125
2, 164160, Note_on_c, 0, 76, 125
2, 164160, Note_on_c, 0, 80, 125
2, 164288, Note_off_c, 0, 68, 80
2, 164288, Note_off_c, 0, 73, 80
2, 164288, Note_off_c, 0, 76, 80
2, 164288, Note_off_c, 0, 80, 80
2, 164352, Note_on_c, 0, 69, 125
2, 164352, Note_on_c, 0, 73, 125
2, 164352, Note_on_c, 0, 76, 125
2, 164352, Note_on_c, 0, 81, 125
2, 164480, Note_off_c, 0, 69, 80
2, 164480, Note_off_c, 0, 73, 80
2, 164480, Note_off_c, 0, 76, 80
2, 164480, Note_off_c, 0, 81, 80
2, 164544, Note_on_c, 0, 69, 125
2, 164544, Note_on_c, 0, 71, 125
2, 164544, Note_on_c, 0, 75, 125
2, 164544, Note_on_c, 0, 83, 125
2, 164672, Note_off_c, 0, 69, 80
2, 164672, Note_off_c, 0, 71, 80
2, 164672, Note_off_c, 0, 75, 80
2, 164672, Note_off_c, 0, 83, 80
2, 164736, Note_on_c, 0, 64, 125
2, 164736, Note_on_c, 0, 64, 125
2, 164736, Note_on_c, 0, 68, 125
2, 164736, Note_on_c, 0, 76, 125
2, 164864, Note_off_c, 0, 64, 80
2, 164864, Note_off_c, 0, 64, 80
2, 164864, Note_off_c, 0, 68, 80
2, 164864, Note_off_c, 0, 76, 80
2, 164928, Note_on_c, 0, 64, 125
2, 164928, Note_on_c, 0, 69, 125
2, 164928, Note_on_c, 0, 76, 125
2, 165024, Note_off_c, 0, 64, 80
2, 165024, Note_off_c, 0, 69, 80
2, 165024, Note_off_c, 0, 76, 80
2, 165024, Note_on_c, 0, 64, 125
2, 165024, Note_on_c, 0, 76, 125
2, 165088, Note_off_c, 0, 64, 80
2, 165088, Note_off_c, 0, 76, 80
2, 165120, Note_on_c, 0, 64, 125
2, 165120, Note_on_c, 0, 64, 125
2, 165120, Note_on_c, 0, 69, 125
2, 165120, Note_on_c, 0, 76, 125
2, 165216, Note_on_c, 0, 76, 125
2, 165248, Note_off_c, 0, 64, 80
2, 165248, Note_off_c, 0, 64, 80
2, 165248, Note_off_c, 0, 69, 80
2, 165248, Note_off_c, 0, 76, 80
2, 165312, Note_on_c, 0, 69, 125
2, 165312, Note_on_c, 0, 62, 125
2, 165312, Note_on_c, 0, 74, 125
2, 165344, Note_off_c, 0, 76, 80
2, 165376, Note_off_c, 0, 62, 80
2, 165376, Note_off_c, 0, 74, 80
2, 165408, Note_on_c, 0, 73, 125
2, 165408, Note_on_c, 0, 61, 125
2, 165440, Note_off_c, 0, 69, 80
2, 165472, Note_off_c, 0, 73, 80
2, 165472, Note_off_c, 0, 61, 80
2, 165504, Note_on_c, 0, 62, 125
2, 165504, Note_on_c, 0, 64, 125
2, 165504, Note_on_c, 0, 68, 125
2, 165504, Note_on_c, 0, 74, 125
2, 165600, Note_on_c, 0, 74, 125
2, 165632, Note_off_c, 0, 62, 80
2, 165632, Note_off_c, 0, 64, 80
2, 165632, Note_off_c, 0, 68, 80
2, 165632, Note_off_c, 0, 74, 80
2, 165696, Note_on_c, 0, 68, 125
2, 165696, Note_on_c, 0, 64, 125
2, 165696, Note_on_c, 0, 62, 125
2, 165696, Note_on_c, 0, 73, 125
2, 165728, Note_off_c, 0, 74, 80
2, 165760, Note_off_c, 0, 73, 80
2, 165792, Note_on_c, 0, 71, 125
2, 165824, Note_off_c, 0, 68, 80
2, 165824, Note_off_c, 0, 64, 80
2, 165824, Note_off_c, 0, 62, 80
2, 165856, Note_off_c, 0, 71, 80
2, 165888, Note_on_c, 0, 61, 125
2, 165888, Note_on_c, 0, 57, 125
2, 165888, Note_on_c, 0, 69, 125
2, 166016, Note_off_c, 0, 61, 80
2, 166016, Note_off_c, 0, 57, 80
2, 166016, Note_off_c, 0, 69, 80
2, 166176, Note_on_c, 0, 64, 125
2, 166176, Note_on_c, 0, 61, 125
2, 166240, Note_off_c, 0, 64, 80
2, 166240, Note_off_c, 0, 61, 80
2, 166272, Note_on_c, 0, 61, 125
2, 166272, Note_on_c, 0, 61, 125
2, 166272, Note_on_c, 0, 64, 125
2, 166400, Note_off_c, 0, 61, 80
2, 166400, Note_off_c, 0, 61, 80
2, 166400, Note_off_c, 0, 64, 80
2, 166560, Note_on_c, 0, 64, 125
2, 166560, Note_on_c, 0, 61, 125
2, 166624, Note_off_c, 0, 64, 80
2, 166624, Note_off_c, 0, 61, 80
2, 166656, Note_on_c, 0, 62, 125
2, 166656, Note_on_c, 0, 66, 125
2, 166720, Note_off_c, 0, 62, 80
2, 166720, Note_off_c, 0, 66, 80
2, 166752, Note_on_c, 0, 62, 125
2, 166752, Note_on_c, 0, 68, 125
2, 166816, Note_off_c, 0, 62, 80
2, 166816, Note_off_c, 0, 68, 80
2, 166848, Note_on_c, 0, 62, 125
2, 166848, Note_on_c, 0, 69, 125
2, 166912, Note_off_c, 0, 62, 80
2, 166912, Note_off_c, 0, 69, 80
2, 166944, Note_on_c, 0, 62, 125
2, 166944, Note_on_c, 0, 71, 125
2, 167008, Note_off_c, 0, 62, 80
2, 167008, Note_off_c, 0, 71, 80
2, 167040, Note_on_c, 0, 61, 125
2, 167040, Note_on_c, 0, 73, 125
2, 167232, Note_off_c, 0, 61, 80
2, 167232, Note_off_c, 0, 73, 80
2, 167328, Note_on_c, 0, 61, 125
2, 167328, Note_on_c, 0, 69, 125
2, 167392, Note_off_c, 0, 61, 80
2, 167392, Note_off_c, 0, 69, 80
2, 167424, Note_on_c, 0, 69, 125
2, 167424, Note_on_c, 0, 61, 125
2, 167552, Note_off_c, 0, 69, 80
2, 167552, Note_off_c, 0, 61, 80
2, 167808, Note_on_c, 0, 61, 125
2, 167872, Note_off_c, 0, 61, 80
2, 168192, Note_on_c, 0, 61, 125
2, 168192, Note_on_c, 0, 73, 125
2, 168320, Note_off_c, 0, 61, 80
2, 168320, Note_off_c, 0, 73, 80
2, 168480, Note_on_c, 0, 61, 125
2, 168480, Note_on_c, 0, 69, 125
2, 168544, Note_off_c, 0, 61, 80
2, 168544, Note_off_c, 0, 69, 80
2, 168576, Note_on_c, 0, 61, 125
2, 168576, Note_on_c, 0, 69, 125
2, 168704, Note_off_c, 0, 61, 80
2, 168704, Note_off_c, 0, 69, 80
2, 168864, Note_on_c, 0, 68, 125
2, 168864, Note_on_c, 0, 61, 125
2, 168928, Note_off_c, 0, 68, 80
2, 168928, Note_off_c, 0, 61, 80
2, 168960, Note_on_c, 0, 61, 125
2, 168960, Note_on_c, 0, 69, 125
2, 169024, Note_off_c, 0, 61, 80
2, 169024, Note_off_c, 0, 69, 80
2, 169056, Note_on_c, 0, 61, 125
2, 169056, Note_on_c, 0, 69, 125
2, 169056, Note_on_c, 0, 71, 125
2, 169120, Note_off_c, 0, 61, 80
2, 169120, Note_off_c, 0, 69, 80
2, 169120, Note_off_c, 0, 71, 80
2, 169152, Note_on_c, 0, 61, 125
2, 169152, Note_on_c, 0, 69, 125
2, 169152, Note_on_c, 0, 73, 125
2, 169216, Note_off_c, 0, 61, 80
2, 169216, Note_off_c, 0, 69, 80
2, 169216, Note_off_c, 0, 73, 80
2, 169248, Note_on_c, 0, 62, 125
2, 169248, Note_on_c, 0, 69, 125
2, 169248, Note_on_c, 0, 74, 125
2, 169312, Note_off_c, 0, 62, 80
2, 169312, Note_off_c, 0, 69, 80
2, 169312, Note_off_c, 0, 74, 80
2, 169344, Note_on_c, 0, 63, 125
2, 169344, Note_on_c, 0, 69, 125
2, 169344, Note_on_c, 0, 78, 125
2, 169536, Note_off_c, 0, 63, 80
2, 169536, Note_off_c, 0, 69, 80
2, 169536, Note_off_c, 0, 78, 80
2, 169632, Note_on_c, 0, 64, 125
2, 169632, Note_on_c, 0, 69, 125
2, 169632, Note_on_c, 0, 76, 125
2, 169696, Note_off_c, 0, 64, 80
2, 169696, Note_off_c, 0, 69, 80
2, 169696, Note_off_c, 0, 76, 80
2, 169728, Note_on_c, 0, 64, 125
2, 169728, Note_on_c, 0, 69, 125
2, 169728, Note_on_c, 0, 76, 125
2, 169856, Note_off_c, 0, 64, 80
2, 169856, Note_off_c, 0, 69, 80
2, 169856, Note_off_c, 0, 76, 80
2, 170496, Note_on_c, 0, 73, 125
2, 170496, Note_on_c, 0, 77, 125
2, 170496, Note_on_c, 0, 85, 125
2, 170592, Note_on_c, 0, 68, 125
2, 170592, Note_on_c, 0, 73, 125
2, 170592, Note_on_c, 0, 80, 125
2, 170624, Note_off_c, 0, 73, 80
2, 170624, Note_off_c, 0, 77, 80
2, 170624, Note_off_c, 0, 85, 80
2, 170656, Note_off_c, 0, 68, 80
2, 170656, Note_off_c, 0, 73, 80
2, 170656, Note_off_c, 0, 80, 80
2, 170688, Note_on_c, 0, 68, 125
2, 170688, Note_on_c, 0, 71, 125
2, 170688, Note_on_c, 0, 80, 125
2, 170752, Note_off_c, 0, 68, 80
2, 170752, Note_off_c, 0, 71, 80
2, 170752, Note_off_c, 0, 80, 80
2, 170784, Note_on_c, 0, 68, 125
2, 170784, Note_on_c, 0, 71, 125
2, 170784, Note_on_c, 0, 80, 125
2, 170848, Note_off_c, 0, 68, 80
2, 170848, Note_off_c, 0, 71, 80
2, 170848, Note_off_c, 0, 80, 80
2, 170880, Note_on_c, 0, 68, 125
2, 170880, Note_on_c, 0, 73, 125
2, 170880, Note_on_c, 0, 80, 125
2, 171008, Note_off_c, 0, 68, 80
2, 171008, Note_off_c, 0, 73, 80
2, 171008, Note_off_c, 0, 80, 80
2, 171072, Note_on_c, 0, 68, 125
2, 171072, Note_on_c, 0, 73, 125
2, 171072, Note_on_c, 0, 80, 125
2, 171200, Note_off_c, 0, 68, 80
2, 171200, Note_off_c, 0, 73, 80
2, 171200, Note_off_c, 0, 80, 80
2, 171264, Note_on_c, 0, 70, 125
2, 171264, Note_on_c, 0, 75, 125
2, 171264, Note_on_c, 0, 82, 125
2, 171328, Note_off_c, 0, 70, 80
2, 171328, Note_off_c, 0, 75, 80
2, 171328, Note_off_c, 0, 82, 80
2, 171360, Note_on_c, 0, 72, 125
2, 171360, Note_on_c, 0, 84, 125
2, 171424, Note_off_c, 0, 72, 80
2, 171424, Note_off_c, 0, 84, 80
2, 171456, Note_on_c, 0, 73, 125
2, 171456, Note_on_c, 0, 80, 125
2, 171456, Note_on_c, 0, 85, 125
2, 171520, Note_off_c, 0, 73, 80
2, 171520, Note_off_c, 0, 80, 80
2, 171520, Note_off_c, 0, 85, 80
2, 171552, Note_on_c, 0, 75, 125
2, 171552, Note_on_c, 0, 87, 125
2, 171616, Note_off_c, 0, 75, 80
2, 171616, Note_off_c, 0, 87, 80
2, 171648, Note_on_c, 0, 77, 125
2, 171648, Note_on_c, 0, 85, 125
2, 171648, Note_on_c, 0, 89, 125
2, 171840, Note_off_c, 0, 77, 80
2, 171840, Note_off_c, 0, 85, 80
2, 171840, Note_off_c, 0, 89, 80
2, 171936, Note_on_c, 0, 73, 125
2, 171936, Note_on_c, 0, 85, 125
2, 172000, Note_off_c, 0, 73, 80
2, 172000, Note_off_c, 0, 85, 80
2, 172032, Note_on_c, 0, 73, 125
2, 172032, Note_on_c, 0, 85, 125
2, 172160, Note_off_c, 0, 73, 80
2, 172160, Note_off_c, 0, 85, 80
2, 172224, Note_on_c, 0, 73, 125
2, 172224, Note_on_c, 0, 85, 125
2, 172288, Note_off_c, 0, 73, 80
2, 172288, Note_off_c, 0, 85, 80
2, 172320, Note_on_c, 0, 73, 125
2, 172320, Note_on_c, 0, 85, 125
2, 172384, Note_off_c, 0, 73, 80
2, 172384, Note_off_c, 0, 85, 80
2, 172416, Note_on_c, 0, 73, 125
2, 172416, Note_on_c, 0, 85, 125
2, 172480, Note_off_c, 0, 73, 80
2, 172480, Note_off_c, 0, 85, 80
2, 172512, Note_on_c, 0, 73, 125
2, 172512, Note_on_c, 0, 85, 125
2, 172576, Note_off_c, 0, 73, 80
2, 172576, Note_off_c, 0, 85, 80
2, 172608, Note_on_c, 0, 73, 125
2, 172608, Note_on_c, 0, 85, 125
2, 172672, Note_off_c, 0, 73, 80
2, 172672, Note_off_c, 0, 85, 80
2, 172704, Note_on_c, 0, 73, 125
2, 172704, Note_on_c, 0, 85, 125
2, 172768, Note_off_c, 0, 73, 80
2, 172768, Note_off_c, 0, 85, 80
2, 172800, Note_on_c, 0, 73, 125
2, 172800, Note_on_c, 0, 85, 125
2, 172928, Note_off_c, 0, 73, 80
2, 172928, Note_off_c, 0, 85, 80
2, 172992, Note_on_c, 0, 71, 125
2, 172992, Note_on_c, 0, 78, 125
2, 172992, Note_on_c, 0, 83, 125
2, 173088, Note_on_c, 0, 83, 125
2, 173088, Note_on_c, 0, 78, 125
2, 173088, Note_on_c, 0, 71, 125
2, 173152, Note_off_c, 0, 83, 80
2, 173152, Note_off_c, 0, 78, 80
2, 173152, Note_off_c, 0, 71, 80
2, 173184, Note_off_c, 0, 71, 80
2, 173184, Note_off_c, 0, 78, 80
2, 173184, Note_off_c, 0, 83, 80
2, 173184, Note_on_c, 0, 71, 125
2, 173184, Note_on_c, 0, 78, 125
2, 173184, Note_on_c, 0, 83, 125
2, 173312, Note_off_c, 0, 71, 80
2, 173312, Note_off_c, 0, 78, 80
2, 173312, Note_off_c, 0, 83, 80
2, 173376, Note_on_c, 0, 73, 125
2, 173376, Note_on_c, 0, 85, 125
2, 173504, Note_off_c, 0, 73, 80
2, 173504, Note_off_c, 0, 85, 80
2, 173568, Note_on_c, 0, 76, 125
2, 173568, Note_on_c, 0, 81, 125
2, 173568, Note_on_c, 0, 88, 125
2, 173696, Note_off_c, 0, 76, 80
2, 173696, Note_off_c, 0, 81, 80
2, 173696, Note_off_c, 0, 88, 80
2, 173760, Note_on_c, 0, 74, 125
2, 173760, Note_on_c, 0, 86, 125
2, 173824, Note_off_c, 0, 74, 80
2, 173824, Note_off_c, 0, 86, 80
2, 173856, Note_on_c, 0, 73, 125
2, 173856, Note_on_c, 0, 85, 125
2, 173920, Note_off_c, 0, 73, 80
2, 173920, Note_off_c, 0, 85, 80
2, 173952, Note_on_c, 0, 83, 125
2, 173952, Note_on_c, 0, 71, 125
2, 174080, Note_off_c, 0, 83, 80
2, 174080, Note_off_c, 0, 71, 80
2, 174144, Note_on_c, 0, 71, 125
2, 174144, Note_on_c, 0, 76, 125
2, 174144, Note_on_c, 0, 83, 125
2, 174240, Note_off_c, 0, 71, 80
2, 174240, Note_off_c, 0, 76, 80
2, 174240, Note_off_c, 0, 83, 80
2, 174240, Note_on_c, 0, 73, 125
2, 174240, Note_on_c, 0, 85, 125
2, 174304, Note_off_c, 0, 73, 80
2, 174304, Note_off_c, 0, 85, 80
2, 174336, Note_on_c, 0, 71, 125
2, 174336, Note_on_c, 0, 76, 125
2, 174336, Note_on_c, 0, 83, 125
2, 174592, Note_off_c, 0, 71, 80
2, 174592, Note_off_c, 0, 76, 80
2, 174592, Note_off_c, 0, 83, 80
2, 174720, Note_on_c, 0, 69, 125
2, 174720, Note_on_c, 0, 81, 125
2, 174848, Note_off_c, 0, 69, 80
2, 174848, Note_off_c, 0, 81, 80
2, 174848, End_track
3, 0, Start_track
3, 0, Title_t, "F.CHOPIN"
3, 0, Control_c, 1, 0, 0
3, 0, Program_c, 1, 0
3, 0, Control_c, 1, 91, 46
3, 0, Control_c, 1, 93, 50
3, 0, Key_signature, 3, "major"
3, 0, Note_on_c, 1, 57, 118
3, 0, Note_on_c, 1, 61, 118
3, 0, Note_on_c, 1, 45, 118
3, 0, Note_on_c, 1, 33, 118
3, 128, Note_off_c, 1, 57, 75
3, 128, Note_off_c, 1, 61, 75
3, 128, Note_off_c, 1, 45, 75
3, 128, Note_off_c, 1, 33, 75
3, 288, Note_on_c, 1, 57, 118
3, 288, Note_on_c, 1, 52, 118
3, 288, Note_on_c, 1, 45, 118
3, 352, Note_off_c, 1, 57, 75
3, 352, Note_off_c, 1, 52, 75
3, 352, Note_off_c, 1, 45, 75
3, 384, Note_on_c, 1, 57, 118
3, 384, Note_on_c, 1, 52, 118
3, 384, Note_on_c, 1, 45, 118
3, 512, Note_off_c, 1, 57, 75
3, 512, Note_off_c, 1, 52, 75
3, 512, Note_off_c, 1, 45, 75
3, 672, Note_on_c, 1, 57, 118
3, 672, Note_on_c, 1, 52, 118
3, 672, Note_on_c, 1, 45, 118
3, 736, Note_off_c, 1, 57, 75
3, 736, Note_off_c, 1, 52, 75
3, 736, Note_off_c, 1, 45, 75
3, 768, Note_on_c, 1, 59, 118
3, 768, Note_on_c, 1, 52, 118
3, 768, Note_on_c, 1, 45, 118
3, 832, Note_off_c, 1, 59, 75
3, 832, Note_off_c, 1, 52, 75
3, 832, Note_off_c, 1, 45, 75
3, 864, Note_on_c, 1, 59, 118
3, 864, Note_on_c, 1, 52, 118
3, 864, Note_on_c, 1, 45, 118
3, 928, Note_off_c, 1, 59, 75
3, 928, Note_off_c, 1, 52, 75
3, 928, Note_off_c, 1, 45, 75
3, 960, Note_on_c, 1, 59, 118
3, 960, Note_on_c, 1, 52, 118
3, 960, Note_on_c, 1, 45, 118
3, 1024, Note_off_c, 1, 59, 75
3, 1024, Note_off_c, 1, 52, 75
3, 1024, Note_off_c, 1, 45, 75
3, 1056, Note_on_c, 1, 59, 118
3, 1056, Note_on_c, 1, 52, 118
3, 1056, Note_on_c, 1, 45, 118
3, 1120, Note_off_c, 1, 59, 75
3, 1120, Note_off_c, 1, 52, 75
3, 1120, Note_off_c, 1, 45, 75
3, 1152, Note_on_c, 1, 57, 118
3, 1152, Note_on_c, 1, 52, 118
3, 1152, Note_on_c, 1, 45, 118
3, 1344, Note_off_c, 1, 57, 75
3, 1344, Note_off_c, 1, 52, 75
3, 1344, Note_off_c, 1, 45, 75
3, 1440, Note_on_c, 1, 57, 118
3, 1440, Note_on_c, 1, 52, 118
3, 1440, Note_on_c, 1, 45, 118
3, 1504, Note_off_c, 1, 57, 75
3, 1504, Note_off_c, 1, 52, 75
3, 1504, Note_off_c, 1, 45, 75
3, 1536, Note_on_c, 1, 57, 118
3, 1536, Note_on_c, 1, 52, 118
3, 1536, Note_on_c, 1, 45, 118
3, 1664, Note_off_c, 1, 57, 75
3, 1664, Note_off_c, 1, 52, 75
3, 1664, Note_off_c, 1, 45, 75
3, 1728, Note_on_c, 1, 56, 118
3, 1728, Note_on_c, 1, 44, 118
3, 1792, Note_off_c, 1, 56, 75
3, 1792, Note_off_c, 1, 44, 75
3, 1824, Note_on_c, 1, 57, 118
3, 1824, Note_on_c, 1, 45, 118
3, 1888, Note_off_c, 1, 57, 75
3, 1888, Note_off_c, 1, 45, 75
3, 1920, Note_on_c, 1, 59, 118
3, 1920, Note_on_c, 1, 47, 118
3, 1984, Note_off_c, 1, 59, 75
3, 1984, Note_off_c, 1, 47, 75
3, 2016, Note_on_c, 1, 57, 118
3, 2016, Note_on_c, 1, 45, 118
3, 2144, Note_off_c, 1, 57, 75
3, 2144, Note_off_c, 1, 45, 75
3, 2208, Note_on_c, 1, 52, 118
3, 2208, Note_on_c, 1, 40, 118
3, 2304, Note_on_c, 1, 45, 118
3, 2304, Note_on_c, 1, 33, 118
3, 2336, Note_off_c, 1, 52, 75
3, 2336, Note_off_c, 1, 40, 75
3, 2432, Note_off_c, 1, 45, 75
3, 2432, Note_off_c, 1, 33, 75
3, 2592, Note_on_c, 1, 45, 118
3, 2592, Note_on_c, 1, 52, 118
3, 2592, Note_on_c, 1, 57, 118
3, 2656, Note_off_c, 1, 45, 75
3, 2656, Note_off_c, 1, 52, 75
3, 2656, Note_off_c, 1, 57, 75
3, 2688, Note_on_c, 1, 45, 118
3, 2688, Note_on_c, 1, 52, 118
3, 2688, Note_on_c, 1, 57, 118
3, 2816, Note_off_c, 1, 45, 75
3, 2816, Note_off_c, 1, 52, 75
3, 2816, Note_off_c, 1, 57, 75
3, 2976, Note_on_c, 1, 45, 118
3, 2976, Note_on_c, 1, 52, 118
3, 2976, Note_on_c, 1, 57, 118
3, 3040, Note_off_c, 1, 45, 75
3, 3040, Note_off_c, 1, 52, 75
3, 3040, Note_off_c, 1, 57, 75
3, 3072, Note_on_c, 1, 45, 118
3, 3072, Note_on_c, 1, 52, 118
3, 3072, Note_on_c, 1, 57, 118
3, 3136, Note_off_c, 1, 45, 75
3, 3136, Note_off_c, 1, 52, 75
3, 3136, Note_off_c, 1, 57, 75
3, 3168, Note_on_c, 1, 45, 118
3, 3168, Note_on_c, 1, 52, 118
3, 3168, Note_on_c, 1, 57, 118
3, 3232, Note_off_c, 1, 45, 75
3, 3232, Note_off_c, 1, 52, 75
3, 3232, Note_off_c, 1, 57, 75
3, 3264, Note_on_c, 1, 45, 118
3, 3264, Note_on_c, 1, 52, 118
3, 3264, Note_on_c, 1, 57, 118
3, 3328, Note_off_c, 1, 45, 75
3, 3328, Note_off_c, 1, 52, 75
3, 3328, Note_off_c, 1, 57, 75
3, 3360, Note_on_c, 1, 45, 118
3, 3360, Note_on_c, 1, 52, 118
3, 3360, Note_on_c, 1, 59, 118
3, 3424, Note_off_c, 1, 45, 75
3, 3424, Note_off_c, 1, 52, 75
3, 3424, Note_off_c, 1, 59, 75
3, 3456, Note_on_c, 1, 60, 118
3, 3456, Note_on_c, 1, 54, 118
3, 3456, Note_on_c, 1, 51, 118
3, 3456, Note_on_c, 1, 45, 118
3, 3648, Note_off_c, 1, 60, 75
3, 3648, Note_off_c, 1, 54, 75
3, 3648, Note_off_c, 1, 51, 75
3, 3648, Note_off_c, 1, 45, 75
3, 3744, Note_on_c, 1, 52, 118
3, 3744, Note_on_c, 1, 57, 118
3, 3744, Note_on_c, 1, 61, 118
3, 3808, Note_off_c, 1, 52, 75
3, 3808, Note_off_c, 1, 57, 75
3, 3808, Note_off_c, 1, 61, 75
3, 3840, Note_on_c, 1, 52, 118
3, 3840, Note_on_c, 1, 57, 118
3, 3840, Note_on_c, 1, 61, 118
3, 3968, Note_off_c, 1, 52, 75
3, 3968, Note_off_c, 1, 57, 75
3, 3968, Note_off_c, 1, 61, 75
3, 4032, Note_on_c, 1, 56, 118
3, 4032, Note_on_c, 1, 44, 118
3, 4096, Note_off_c, 1, 56, 75
3, 4096, Note_off_c, 1, 44, 75
3, 4128, Note_on_c, 1, 57, 118
3, 4128, Note_on_c, 1, 45, 118
3, 4192, Note_off_c, 1, 57, 75
3, 4192, Note_off_c, 1, 45, 75
3, 4224, Note_on_c, 1, 59, 118
3, 4224, Note_on_c, 1, 47, 118
3, 4288, Note_off_c, 1, 59, 75
3, 4288, Note_off_c, 1, 47, 75
3, 4320, Note_on_c, 1, 57, 118
3, 4320, Note_on_c, 1, 45, 118
3, 4448, Note_off_c, 1, 57, 75
3, 4448, Note_off_c, 1, 45, 75
3, 4512, Note_on_c, 1, 52, 118
3, 4512, Note_on_c, 1, 40, 118
3, 4608, Note_on_c, 1, 32, 118
3, 4608, Note_on_c, 1, 44, 118
3, 4640, Note_off_c, 1, 40, 75
3, 4640, Note_off_c, 1, 28, 75
3, 4736, Note_off_c, 1, 32, 75
3, 4736, Note_off_c, 1, 44, 75
3, 4800, Note_on_c, 1, 53, 118
3, 4800, Note_on_c, 1, 56, 118
3, 4800, Note_on_c, 1, 61, 118
3, 4800, Note_on_c, 1, 65, 118
3, 4864, Note_off_c, 1, 53, 75
3, 4864, Note_off_c, 1, 56, 75
3, 4864, Note_off_c, 1, 61, 75
3, 4864, Note_off_c, 1, 65, 75
3, 4896, Note_on_c, 1, 53, 118
3, 4896, Note_on_c, 1, 56, 118
3, 4896, Note_on_c, 1, 61, 118
3, 4896, Note_on_c, 1, 65, 118
3, 4960, Note_off_c, 1, 53, 75
3, 4960, Note_off_c, 1, 56, 75
3, 4960, Note_off_c, 1, 61, 75
3, 4960, Note_off_c, 1, 65, 75
3, 4992, Note_on_c, 1, 53, 118
3, 4992, Note_on_c, 1, 56, 118
3, 4992, Note_on_c, 1, 61, 118
3, 4992, Note_on_c, 1, 65, 118
3, 5056, Note_off_c, 1, 53, 75
3, 5056, Note_off_c, 1, 56, 75
3, 5056, Note_off_c, 1, 61, 75
3, 5056, Note_off_c, 1, 65, 75
3, 5088, Note_on_c, 1, 53, 118
3, 5088, Note_on_c, 1, 61, 118
3, 5088, Note_on_c, 1, 65, 118
3, 5088, Note_on_c, 1, 56, 118
3, 5216, Note_off_c, 1, 53, 75
3, 5216, Note_off_c, 1, 61, 75
3, 5216, Note_off_c, 1, 65, 75
3, 5216, Note_off_c, 1, 56, 75
3, 5280, Note_on_c, 1, 53, 118
3, 5280, Note_on_c, 1, 56, 118
3, 5280, Note_on_c, 1, 61, 118
3, 5280, Note_on_c, 1, 65, 118
3, 5408, Note_off_c, 1, 53, 75
3, 5408, Note_off_c, 1, 56, 75
3, 5408, Note_off_c, 1, 61, 75
3, 5408, Note_off_c, 1, 65, 75
3, 5472, Note_on_c, 1, 54, 118
3, 5472, Note_on_c, 1, 56, 118
3, 5472, Note_on_c, 1, 60, 118
3, 5472, Note_on_c, 1, 63, 118
3, 5568, Note_on_c, 1, 32, 118
3, 5568, Note_on_c, 1, 44, 118
3, 5600, Note_off_c, 1, 54, 75
3, 5600, Note_off_c, 1, 56, 75
3, 5600, Note_off_c, 1, 60, 75
3, 5600, Note_off_c, 1, 63, 75
3, 5696, Note_off_c, 1, 32, 75
3, 5696, Note_off_c, 1, 44, 75
3, 5760, Note_on_c, 1, 25, 118
3, 5760, Note_on_c, 1, 37, 118
3, 5952, Note_off_c, 1, 25, 75
3, 5952, Note_off_c, 1, 37, 75
3, 6048, Note_on_c, 1, 49, 118
3, 6048, Note_on_c, 1, 61, 118
3, 6112, Note_off_c, 1, 49, 75
3, 6112, Note_off_c, 1, 61, 75
3, 6144, Note_on_c, 1, 49, 118
3, 6144, Note_on_c, 1, 61, 118
3, 6272, Note_off_c, 1, 49, 75
3, 6272, Note_off_c, 1, 61, 75
3, 6336, Note_on_c, 1, 61, 118
3, 6336, Note_on_c, 1, 49, 118
3, 6400, Note_off_c, 1, 61, 75
3, 6400, Note_off_c, 1, 49, 75
3, 6432, Note_on_c, 1, 61, 118
3, 6432, Note_on_c, 1, 49, 118
3, 6496, Note_off_c, 1, 61, 75
3, 6496, Note_off_c, 1, 49, 75
3, 6528, Note_on_c, 1, 61, 118
3, 6528, Note_on_c, 1, 49, 118
3, 6592, Note_off_c, 1, 61, 75
3, 6592, Note_off_c, 1, 49, 75
3, 6624, Note_on_c, 1, 61, 118
3, 6624, Note_on_c, 1, 49, 118
3, 6688, Note_off_c, 1, 61, 75
3, 6688, Note_off_c, 1, 49, 75
3, 6720, Note_on_c, 1, 61, 118
3, 6720, Note_on_c, 1, 49, 118
3, 6784, Note_off_c, 1, 61, 75
3, 6784, Note_off_c, 1, 49, 75
3, 6816, Note_on_c, 1, 61, 118
3, 6816, Note_on_c, 1, 49, 118
3, 6880, Note_off_c, 1, 61, 75
3, 6880, Note_off_c, 1, 49, 75
3, 6912, Note_on_c, 1, 49, 118
3, 6912, Note_on_c, 1, 61, 118
3, 7040, Note_off_c, 1, 49, 75
3, 7040, Note_off_c, 1, 61, 75
3, 7104, Note_on_c, 1, 50, 118
3, 7104, Note_on_c, 1, 54, 118
3, 7104, Note_on_c, 1, 59, 118
3, 7200, Note_off_c, 1, 50, 75
3, 7200, Note_off_c, 1, 54, 75
3, 7200, Note_off_c, 1, 59, 75
3, 7200, Note_on_c, 1, 50, 118
3, 7200, Note_on_c, 1, 54, 118
3, 7200, Note_on_c, 1, 59, 118
3, 7264, Note_off_c, 1, 50, 75
3, 7264, Note_off_c, 1, 54, 75
3, 7264, Note_off_c, 1, 59, 75
3, 7296, Note_on_c, 1, 50, 118
3, 7296, Note_on_c, 1, 54, 118
3, 7296, Note_on_c, 1, 59, 118
3, 7424, Note_off_c, 1, 50, 75
3, 7424, Note_off_c, 1, 54, 75
3, 7424, Note_off_c, 1, 59, 75
3, 7488, Note_on_c, 1, 52, 118
3, 7488, Note_on_c, 1, 56, 118
3, 7488, Note_on_c, 1, 61, 118
3, 7616, Note_off_c, 1, 52, 75
3, 7616, Note_off_c, 1, 56, 75
3, 7616, Note_off_c, 1, 61, 75
3, 7680, Note_on_c, 1, 64, 118
3, 7680, Note_on_c, 1, 57, 118
3, 7680, Note_on_c, 1, 54, 118
3, 7808, Note_off_c, 1, 64, 75
3, 7872, Note_on_c, 1, 62, 118
3, 7936, Note_off_c, 1, 57, 75
3, 7936, Note_off_c, 1, 54, 75
3, 8000, Note_off_c, 1, 62, 75
3, 8064, Note_on_c, 1, 62, 118
3, 8064, Note_on_c, 1, 56, 118
3, 8064, Note_on_c, 1, 52, 118
3, 8192, Note_off_c, 1, 62, 75
3, 8192, Note_off_c, 1, 56, 75
3, 8192, Note_off_c, 1, 52, 75
3, 8256, Note_on_c, 1, 52, 118
3, 8256, Note_on_c, 1, 56, 118
3, 8256, Note_on_c, 1, 62, 118
3, 8256, Note_on_c, 1, 64, 118
3, 8384, Note_off_c, 1, 52, 75
3, 8384, Note_off_c, 1, 56, 75
3, 8384, Note_off_c, 1, 62, 75
3, 8384, Note_off_c, 1, 64, 75
3, 8448, Note_on_c, 1, 52, 118
3, 8448, Note_on_c, 1, 56, 118
3, 8448, Note_on_c, 1, 62, 118
3, 8448, Note_on_c, 1, 64, 118
3, 8704, Note_off_c, 1, 52, 75
3, 8704, Note_off_c, 1, 56, 75
3, 8704, Note_off_c, 1, 62, 75
3, 8704, Note_off_c, 1, 64, 75
3, 8832, Note_on_c, 1, 57, 118
3, 8832, Note_on_c, 1, 61, 118
3, 8832, Note_on_c, 1, 64, 118
3, 8960, Note_off_c, 1, 57, 75
3, 8960, Note_off_c, 1, 61, 75
3, 8960, Note_off_c, 1, 64, 75
3, 9216, Note_on_c, 1, 57, 118
3, 9216, Note_on_c, 1, 61, 118
3, 9216, Note_on_c, 1, 45, 118
3, 9216, Note_on_c, 1, 33, 118
3, 9344, Note_off_c, 1, 57, 75
3, 9344, Note_off_c, 1, 61, 75
3, 9344, Note_off_c, 1, 45, 75
3, 9344, Note_off_c, 1, 33, 75
3, 9504, Note_on_c, 1, 57, 118
3, 9504, Note_on_c, 1, 52, 118
3, 9504, Note_on_c, 1, 45, 118
3, 9568, Note_off_c, 1, 57, 75
3, 9568, Note_off_c, 1, 52, 75
3, 9568, Note_off_c, 1, 45, 75
3, 9600, Note_on_c, 1, 57, 118
3, 9600, Note_on_c, 1, 52, 118
3, 9600, Note_on_c, 1, 45, 118
3, 9728, Note_off_c, 1, 57, 75
3, 9728, Note_off_c, 1, 52, 75
3, 9728, Note_off_c, 1, 45, 75
3, 9888, Note_on_c, 1, 57, 118
3, 9888, Note_on_c, 1, 52, 118
3, 9888, Note_on_c, 1, 45, 118
3, 9952, Note_off_c, 1, 57, 75
3, 9952, Note_off_c, 1, 52, 75
3, 9952, Note_off_c, 1, 45, 75
3, 9984, Note_on_c, 1, 59, 118
3, 9984, Note_on_c, 1, 52, 118
3, 9984, Note_on_c, 1, 45, 118
3, 10048, Note_off_c, 1, 59, 75
3, 10048, Note_off_c, 1, 52, 75
3, 10048, Note_off_c, 1, 45, 75
3, 10080, Note_on_c, 1, 59, 118
3, 10080, Note_on_c, 1, 52, 118
3, 10080, Note_on_c, 1, 45, 118
3, 10144, Note_off_c, 1, 59, 75
3, 10144, Note_off_c, 1, 52, 75
3, 10144, Note_off_c, 1, 45, 75
3, 10176, Note_on_c, 1, 59, 118
3, 10176, Note_on_c, 1, 52, 118
3, 10176, Note_on_c, 1, 45, 118
3, 10240, Note_off_c, 1, 59, 75
3, 10240, Note_off_c, 1, 52, 75
3, 10240, Note_off_c, 1, 45, 75
3, 10272, Note_on_c, 1, 59, 118
3, 10272, Note_on_c, 1, 52, 118
3, 10272, Note_on_c, 1, 45, 118
3, 10336, Note_off_c, 1, 59, 75
3, 10336, Note_off_c, 1, 52, 75
3, 10336, Note_off_c, 1, 45, 75
3, 10368, Note_on_c, 1, 57, 118
3, 10368, Note_on_c, 1, 52, 118
3, 10368, Note_on_c, 1, 45, 118
3, 10560, Note_off_c, 1, 57, 75
3, 10560, Note_off_c, 1, 52, 75
3, 10560, Note_off_c, 1, 45, 75
3, 10656, Note_on_c, 1, 57, 118
3, 10656, Note_on_c, 1, 52, 118
3, 10656, Note_on_c, 1, 45, 118
3, 10720, Note_off_c, 1, 57, 75
3, 10720, Note_off_c, 1, 52, 75
3, 10720, Note_off_c, 1, 45, 75
3, 10752, Note_on_c, 1, 57, 118
3, 10752, Note_on_c, 1, 52, 118
3, 10752, Note_on_c, 1, 45, 118
3, 10880, Note_off_c, 1, 57, 75
3, 10880, Note_off_c, 1, 52, 75
3, 10880, Note_off_c, 1, 45, 75
3, 10944, Note_on_c, 1, 56, 118
3, 10944, Note_on_c, 1, 44, 118
3, 11008, Note_off_c, 1, 56, 75
3, 11008, Note_off_c, 1, 44, 75
3, 11040, Note_on_c, 1, 57, 118
3, 11040, Note_on_c, 1, 45, 118
3, 11104, Note_off_c, 1, 57, 75
3, 11104, Note_off_c, 1, 45, 75
3, 11136, Note_on_c, 1, 59, 118
3, 11136, Note_on_c, 1, 47, 118
3, 11200, Note_off_c, 1, 59, 75
3, 11200, Note_off_c, 1, 47, 75
3, 11232, Note_on_c, 1, 57, 118
3, 11232, Note_on_c, 1, 45, 118
3, 11360, Note_off_c, 1, 57, 75
3, 11360, Note_off_c, 1, 45, 75
3, 11424, Note_on_c, 1, 52, 118
3, 11424, Note_on_c, 1, 40, 118
3, 11520, Note_on_c, 1, 45, 118
3, 11520, Note_on_c, 1, 33, 118
3, 11552, Note_off_c, 1, 52, 75
3, 11552, Note_off_c, 1, 40, 75
3, 11648, Note_off_c, 1, 45, 75
3, 11648, Note_off_c, 1, 33, 75
3, 11808, Note_on_c, 1, 45, 118
3, 11808, Note_on_c, 1, 52, 118
3, 11808, Note_on_c, 1, 57, 118
3, 11872, Note_off_c, 1, 45, 75
3, 11872, Note_off_c, 1, 52, 75
3, 11872, Note_off_c, 1, 57, 75
3, 11904, Note_on_c, 1, 45, 118
3, 11904, Note_on_c, 1, 52, 118
3, 11904, Note_on_c, 1, 57, 118
3, 12032, Note_off_c, 1, 45, 75
3, 12032, Note_off_c, 1, 52, 75
3, 12032, Note_off_c, 1, 57, 75
3, 12192, Note_on_c, 1, 45, 118
3, 12192, Note_on_c, 1, 52, 118
3, 12192, Note_on_c, 1, 57, 118
3, 12256, Note_off_c, 1, 45, 75
3, 12256, Note_off_c, 1, 52, 75
3, 12256, Note_off_c, 1, 57, 75
3, 12288, Note_on_c, 1, 45, 118
3, 12288, Note_on_c, 1, 52, 118
3, 12288, Note_on_c, 1, 57, 118
3, 12352, Note_off_c, 1, 45, 75
3, 12352, Note_off_c, 1, 52, 75
3, 12352, Note_off_c, 1, 57, 75
3, 12384, Note_on_c, 1, 45, 118
3, 12384, Note_on_c, 1, 52, 118
3, 12384, Note_on_c, 1, 57, 118
3, 12448, Note_off_c, 1, 45, 75
3, 12448, Note_off_c, 1, 52, 75
3, 12448, Note_off_c, 1, 57, 75
3, 12480, Note_on_c, 1, 45, 118
3, 12480, Note_on_c, 1, 52, 118
3, 12480, Note_on_c, 1, 57, 118
3, 12544, Note_off_c, 1, 45, 75
3, 12544, Note_off_c, 1, 52, 75
3, 12544, Note_off_c, 1, 57, 75
3, 12576, Note_on_c, 1, 45, 118
3, 12576, Note_on_c, 1, 52, 118
3, 12576, Note_on_c, 1, 59, 118
3, 12640, Note_off_c, 1, 45, 75
3, 12640, Note_off_c, 1, 52, 75
3, 12640, Note_off_c, 1, 59, 75
3, 12672, Note_on_c, 1, 60, 118
3, 12672, Note_on_c, 1, 54, 118
3, 12672, Note_on_c, 1, 51, 118
3, 12672, Note_on_c, 1, 45, 118
3, 12864, Note_off_c, 1, 60, 75
3, 12864, Note_off_c, 1, 54, 75
3, 12864, Note_off_c, 1, 51, 75
3, 12864, Note_off_c, 1, 45, 75
3, 12960, Note_on_c, 1, 52, 118
3, 12960, Note_on_c, 1, 57, 118
3, 12960, Note_on_c, 1, 61, 118
3, 13024, Note_off_c, 1, 52, 75
3, 13024, Note_off_c, 1, 57, 75
3, 13024, Note_off_c, 1, 61, 75
3, 13056, Note_on_c, 1, 52, 118
3, 13056, Note_on_c, 1, 57, 118
3, 13056, Note_on_c, 1, 61, 118
3, 13184, Note_off_c, 1, 52, 75
3, 13184, Note_off_c, 1, 57, 75
3, 13184, Note_off_c, 1, 61, 75
3, 13248, Note_on_c, 1, 56, 118
3, 13248, Note_on_c, 1, 44, 118
3, 13312, Note_off_c, 1, 56, 75
3, 13312, Note_off_c, 1, 44, 75
3, 13344, Note_on_c, 1, 57, 118
3, 13344, Note_on_c, 1, 45, 118
3, 13408, Note_off_c, 1, 57, 75
3, 13408, Note_off_c, 1, 45, 75
3, 13440, Note_on_c, 1, 59, 118
3, 13440, Note_on_c, 1, 47, 118
3, 13504, Note_off_c, 1, 59, 75
3, 13504, Note_off_c, 1, 47, 75
3, 13536, Note_on_c, 1, 57, 118
3, 13536, Note_on_c, 1, 45, 118
3, 13664, Note_off_c, 1, 57, 75
3, 13664, Note_off_c, 1, 45, 75
3, 13728, Note_on_c, 1, 52, 118
3, 13728, Note_on_c, 1, 40, 118
3, 13824, Note_on_c, 1, 32, 118
3, 13824, Note_on_c, 1, 44, 118
3, 13828, Note_off_c, 1, 52, 75
3, 13856, Note_off_c, 1, 40, 75
3, 13952, Note_off_c, 1, 32, 75
3, 13952, Note_off_c, 1, 44, 75
3, 14016, Note_on_c, 1, 53, 118
3, 14016, Note_on_c, 1, 56, 118
3, 14016, Note_on_c, 1, 61, 118
3, 14016, Note_on_c, 1, 65, 118
3, 14080, Note_off_c, 1, 53, 75
3, 14080, Note_off_c, 1, 56, 75
3, 14080, Note_off_c, 1, 61, 75
3, 14080, Note_off_c, 1, 65, 75
3, 14112, Note_on_c, 1, 53, 118
3, 14112, Note_on_c, 1, 56, 118
3, 14112, Note_on_c, 1, 61, 118
3, 14112, Note_on_c, 1, 65, 118
3, 14176, Note_off_c, 1, 53, 75
3, 14176, Note_off_c, 1, 56, 75
3, 14176, Note_off_c, 1, 61, 75
3, 14176, Note_off_c, 1, 65, 75
3, 14208, Note_on_c, 1, 53, 118
3, 14208, Note_on_c, 1, 56, 118
3, 14208, Note_on_c, 1, 61, 118
3, 14208, Note_on_c, 1, 65, 118
3, 14272, Note_off_c, 1, 53, 75
3, 14272, Note_off_c, 1, 56, 75
3, 14272, Note_off_c, 1, 61, 75
3, 14272, Note_off_c, 1, 65, 75
3, 14304, Note_on_c, 1, 53, 118
3, 14304, Note_on_c, 1, 61, 118
3, 14304, Note_on_c, 1, 65, 118
3, 14304, Note_on_c, 1, 56, 118
3, 14432, Note_off_c, 1, 53, 75
3, 14432, Note_off_c, 1, 61, 75
3, 14432, Note_off_c, 1, 65, 75
3, 14432, Note_off_c, 1, 56, 75
3, 14496, Note_on_c, 1, 53, 118
3, 14496, Note_on_c, 1, 56, 118
3, 14496, Note_on_c, 1, 61, 118
3, 14496, Note_on_c, 1, 65, 118
3, 14624, Note_off_c, 1, 53, 75
3, 14624, Note_off_c, 1, 56, 75
3, 14624, Note_off_c, 1, 61, 75
3, 14624, Note_off_c, 1, 65, 75
3, 14688, Note_on_c, 1, 54, 118
3, 14688, Note_on_c, 1, 56, 118
3, 14688, Note_on_c, 1, 60, 118
3, 14688, Note_on_c, 1, 63, 118
3, 14784, Note_on_c, 1, 32, 118
3, 14784, Note_on_c, 1, 44, 118
3, 14816, Note_off_c, 1, 54, 75
3, 14816, Note_off_c, 1, 56, 75
3, 14816, Note_off_c, 1, 60, 75
3, 14816, Note_off_c, 1, 63, 75
3, 14912, Note_off_c, 1, 32, 75
3, 14912, Note_off_c, 1, 44, 75
3, 14976, Note_on_c, 1, 25, 118
3, 14976, Note_on_c, 1, 37, 118
3, 15168, Note_off_c, 1, 25, 75
3, 15168, Note_off_c, 1, 37, 75
3, 15264, Note_on_c, 1, 49, 118
3, 15264, Note_on_c, 1, 61, 118
3, 15328, Note_off_c, 1, 49, 75
3, 15328, Note_off_c, 1, 61, 75
3, 15360, Note_on_c, 1, 49, 118
3, 15360, Note_on_c, 1, 61, 118
3, 15488, Note_off_c, 1, 49, 75
3, 15488, Note_off_c, 1, 61, 75
3, 15552, Note_on_c, 1, 61, 118
3, 15552, Note_on_c, 1, 49, 118
3, 15616, Note_off_c, 1, 61, 75
3, 15616, Note_off_c, 1, 49, 75
3, 15648, Note_on_c, 1, 61, 118
3, 15648, Note_on_c, 1, 49, 118
3, 15712, Note_off_c, 1, 61, 75
3, 15712, Note_off_c, 1, 49, 75
3, 15744, Note_on_c, 1, 61, 118
3, 15744, Note_on_c, 1, 49, 118
3, 15808, Note_off_c, 1, 61, 75
3, 15808, Note_off_c, 1, 49, 75
3, 15840, Note_on_c, 1, 61, 118
3, 15840, Note_on_c, 1, 49, 118
3, 15904, Note_off_c, 1, 61, 75
3, 15904, Note_off_c, 1, 49, 75
3, 15936, Note_on_c, 1, 61, 118
3, 15936, Note_on_c, 1, 49, 118
3, 16000, Note_off_c, 1, 61, 75
3, 16000, Note_off_c, 1, 49, 75
3, 16032, Note_on_c, 1, 61, 118
3, 16032, Note_on_c, 1, 49, 118
3, 16096, Note_off_c, 1, 61, 75
3, 16096, Note_off_c, 1, 49, 75
3, 16128, Note_on_c, 1, 49, 118
3, 16128, Note_on_c, 1, 61, 118
3, 16256, Note_off_c, 1, 49, 75
3, 16256, Note_off_c, 1, 61, 75
3, 16320, Note_on_c, 1, 50, 118
3, 16320, Note_on_c, 1, 54, 118
3, 16320, Note_on_c, 1, 59, 118
3, 16416, Note_off_c, 1, 50, 75
3, 16416, Note_off_c, 1, 54, 75
3, 16416, Note_off_c, 1, 59, 75
3, 16416, Note_on_c, 1, 50, 118
3, 16416, Note_on_c, 1, 54, 118
3, 16416, Note_on_c, 1, 59, 118
3, 16480, Note_off_c, 1, 50, 75
3, 16480, Note_off_c, 1, 54, 75
3, 16480, Note_off_c, 1, 59, 75
3, 16512, Note_on_c, 1, 50, 118
3, 16512, Note_on_c, 1, 54, 118
3, 16512, Note_on_c, 1, 59, 118
3, 16640, Note_off_c, 1, 50, 75
3, 16640, Note_off_c, 1, 54, 75
3, 16640, Note_off_c, 1, 59, 75
3, 16704, Note_on_c, 1, 52, 118
3, 16704, Note_on_c, 1, 56, 118
3, 16704, Note_on_c, 1, 61, 118
3, 16832, Note_off_c, 1, 52, 75
3, 16832, Note_off_c, 1, 56, 75
3, 16832, Note_off_c, 1, 61, 75
3, 16896, Note_on_c, 1, 64, 118
3, 16896, Note_on_c, 1, 57, 118
3, 16896, Note_on_c, 1, 54, 118
3, 17024, Note_off_c, 1, 64, 75
3, 17088, Note_on_c, 1, 62, 118
3, 17152, Note_off_c, 1, 57, 75
3, 17152, Note_off_c, 1, 54, 75
3, 17216, Note_off_c, 1, 62, 75
3, 17280, Note_on_c, 1, 62, 118
3, 17280, Note_on_c, 1, 56, 118
3, 17280, Note_on_c, 1, 52, 118
3, 17408, Note_off_c, 1, 62, 75
3, 17408, Note_off_c, 1, 56, 75
3, 17408, Note_off_c, 1, 52, 75
3, 17472, Note_on_c, 1, 52, 118
3, 17472, Note_on_c, 1, 56, 118
3, 17472, Note_on_c, 1, 62, 118
3, 17472, Note_on_c, 1, 64, 118
3, 17600, Note_off_c, 1, 52, 75
3, 17600, Note_off_c, 1, 56, 75
3, 17600, Note_off_c, 1, 62, 75
3, 17600, Note_off_c, 1, 64, 75
3, 17664, Note_on_c, 1, 52, 118
3, 17664, Note_on_c, 1, 56, 118
3, 17664, Note_on_c, 1, 62, 118
3, 17664, Note_on_c, 1, 64, 118
3, 17920, Note_off_c, 1, 52, 75
3, 17920, Note_off_c, 1, 56, 75
3, 17920, Note_off_c, 1, 62, 75
3, 17920, Note_off_c, 1, 64, 75
3, 18048, Note_on_c, 1, 57, 118
3, 18048, Note_on_c, 1, 61, 118
3, 18048, Note_on_c, 1, 64, 118
3, 18176, Note_off_c, 1, 57, 75
3, 18176, Note_off_c, 1, 61, 75
3, 18176, Note_off_c, 1, 64, 75
3, 18432, Note_on_c, 1, 47, 118
3, 18432, Note_on_c, 1, 35, 118
3, 18560, Note_off_c, 1, 47, 75
3, 18560, Note_off_c, 1, 35, 75
3, 18720, Note_on_c, 1, 59, 118
3, 18720, Note_on_c, 1, 47, 118
3, 18784, Note_off_c, 1, 59, 75
3, 18784, Note_off_c, 1, 47, 75
3, 18816, Note_on_c, 1, 47, 118
3, 18816, Note_on_c, 1, 59, 118
3, 18912, Note_on_c, 1, 58, 118
3, 18912, Note_on_c, 1, 46, 118
3, 18944, Note_off_c, 1, 47, 75
3, 18944, Note_off_c, 1, 59, 75
3, 18976, Note_off_c, 1, 58, 75
3, 18976, Note_off_c, 1, 46, 75
3, 19008, Note_on_c, 1, 59, 118
3, 19008, Note_on_c, 1, 47, 118
3, 19072, Note_off_c, 1, 59, 75
3, 19072, Note_off_c, 1, 47, 75
3, 19104, Note_on_c, 1, 61, 118
3, 19104, Note_on_c, 1, 49, 118
3, 19168, Note_off_c, 1, 61, 75
3, 19168, Note_off_c, 1, 49, 75
3, 19200, Note_on_c, 1, 47, 118
3, 19200, Note_on_c, 1, 59, 118
3, 19328, Note_off_c, 1, 47, 75
3, 19328, Note_off_c, 1, 59, 75
3, 19392, Note_on_c, 1, 52, 118
3, 19392, Note_on_c, 1, 40, 118
3, 19520, Note_off_c, 1, 52, 75
3, 19520, Note_off_c, 1, 40, 75
3, 19584, Note_on_c, 1, 47, 118
3, 19584, Note_on_c, 1, 35, 118
3, 19712, Note_off_c, 1, 47, 75
3, 19712, Note_off_c, 1, 35, 75
3, 19776, Note_on_c, 1, 59, 118
3, 19776, Note_on_c, 1, 47, 118
3, 19840, Note_off_c, 1, 59, 75
3, 19840, Note_off_c, 1, 47, 75
3, 19872, Note_on_c, 1, 59, 118
3, 19872, Note_on_c, 1, 47, 118
3, 19936, Note_off_c, 1, 59, 75
3, 19936, Note_off_c, 1, 47, 75
3, 19968, Note_on_c, 1, 59, 118
3, 19968, Note_on_c, 1, 47, 118
3, 20032, Note_off_c, 1, 59, 75
3, 20032, Note_off_c, 1, 47, 75
3, 20064, Note_on_c, 1, 59, 118
3, 20064, Note_on_c, 1, 47, 118
3, 20192, Note_off_c, 1, 59, 75
3, 20192, Note_off_c, 1, 47, 75
3, 20256, Note_on_c, 1, 58, 118
3, 20256, Note_on_c, 1, 46, 118
3, 20320, Note_off_c, 1, 58, 75
3, 20320, Note_off_c, 1, 46, 75
3, 20352, Note_on_c, 1, 59, 118
3, 20352, Note_on_c, 1, 47, 118
3, 20416, Note_off_c, 1, 59, 75
3, 20416, Note_off_c, 1, 47, 75
3, 20448, Note_on_c, 1, 61, 118
3, 20448, Note_on_c, 1, 49, 118
3, 20512, Note_off_c, 1, 61, 75
3, 20512, Note_off_c, 1, 49, 75
3, 20544, Note_on_c, 1, 59, 118
3, 20544, Note_on_c, 1, 47, 118
3, 20640, Note_on_c, 1, 47, 118
3, 20640, Note_on_c, 1, 35, 118
3, 20672, Note_off_c, 1, 59, 75
3, 20672, Note_off_c, 1, 47, 75
3, 20736, Note_on_c, 1, 37, 118
3, 20736, Note_on_c, 1, 49, 118
3, 20768, Note_off_c, 1, 35, 75
3, 20768, Note_off_c, 1, 23, 75
3, 20864, Note_off_c, 1, 37, 75
3, 20864, Note_off_c, 1, 49, 75
3, 20928, Note_on_c, 1, 37, 118
3, 20928, Note_on_c, 1, 49, 118
3, 20992, Note_off_c, 1, 37, 75
3, 20992, Note_off_c, 1, 49, 75
3, 21024, Note_on_c, 1, 37, 118
3, 21024, Note_on_c, 1, 49, 118
3, 21088, Note_off_c, 1, 37, 75
3, 21088, Note_off_c, 1, 49, 75
3, 21120, Note_on_c, 1, 30, 118
3, 21120, Note_on_c, 1, 42, 118
3, 21248, Note_off_c, 1, 30, 75
3, 21248, Note_off_c, 1, 42, 75
3, 21312, Note_on_c, 1, 32, 118
3, 21312, Note_on_c, 1, 44, 118
3, 21440, Note_off_c, 1, 32, 75
3, 21440, Note_off_c, 1, 44, 75
3, 21504, Note_on_c, 1, 33, 118
3, 21504, Note_on_c, 1, 45, 118
3, 21632, Note_off_c, 1, 33, 75
3, 21632, Note_off_c, 1, 45, 75
3, 21696, Note_on_c, 1, 32, 118
3, 21696, Note_on_c, 1, 44, 118
3, 21824, Note_off_c, 1, 32, 75
3, 21824, Note_off_c, 1, 44, 75
3, 21888, Note_on_c, 1, 49, 118
3, 21888, Note_on_c, 1, 37, 118
3, 22016, Note_off_c, 1, 49, 75
3, 22016, Note_off_c, 1, 37, 75
3, 22080, Note_on_c, 1, 39, 118
3, 22080, Note_on_c, 1, 51, 118
3, 22208, Note_off_c, 1, 39, 75
3, 22208, Note_off_c, 1, 51, 75
3, 22272, Note_on_c, 1, 56, 118
3, 22272, Note_on_c, 1, 44, 118
3, 22400, Note_off_c, 1, 56, 75
3, 22400, Note_off_c, 1, 44, 75
3, 22464, Note_on_c, 1, 51, 118
3, 22464, Note_on_c, 1, 39, 118
3, 22528, Note_off_c, 1, 51, 75
3, 22528, Note_off_c, 1, 39, 75
3, 22560, Note_on_c, 1, 51, 118
3, 22560, Note_on_c, 1, 39, 118
3, 22624, Note_off_c, 1, 51, 75
3, 22624, Note_off_c, 1, 39, 75
3, 22656, Note_on_c, 1, 51, 118
3, 22656, Note_on_c, 1, 39, 118
3, 22720, Note_off_c, 1, 51, 75
3, 22720, Note_off_c, 1, 39, 75
3, 22752, Note_on_c, 1, 51, 118
3, 22752, Note_on_c, 1, 39, 118
3, 22816, Note_off_c, 1, 51, 75
3, 22816, Note_off_c, 1, 39, 75
3, 22848, Note_on_c, 1, 51, 118
3, 22848, Note_on_c, 1, 39, 118
3, 22912, Note_off_c, 1, 51, 75
3, 22912, Note_off_c, 1, 39, 75
3, 22944, Note_on_c, 1, 51, 118
3, 22944, Note_on_c, 1, 39, 118
3, 23008, Note_off_c, 1, 51, 75
3, 23008, Note_off_c, 1, 39, 75
3, 23040, Note_on_c, 1, 27, 118
3, 23040, Note_on_c, 1, 39, 118
3, 23168, Note_off_c, 1, 27, 75
3, 23168, Note_off_c, 1, 39, 75
3, 23328, Note_on_c, 1, 55, 118
3, 23328, Note_on_c, 1, 58, 118
3, 23328, Note_on_c, 1, 61, 118
3, 23328, Note_on_c, 1, 63, 118
3, 23328, Note_on_c, 1, 67, 118
3, 23392, Note_off_c, 1, 55, 75
3, 23392, Note_off_c, 1, 58, 75
3, 23392, Note_off_c, 1, 61, 75
3, 23392, Note_off_c, 1, 63, 75
3, 23392, Note_off_c, 1, 67, 75
3, 23424, Note_on_c, 1, 55, 118
3, 23424, Note_on_c, 1, 58, 118
3, 23424, Note_on_c, 1, 61, 118
3, 23424, Note_on_c, 1, 63, 118
3, 23424, Note_on_c, 1, 67, 118
3, 23520, Note_on_c, 1, 50, 118
3, 23552, Note_off_c, 1, 55, 75
3, 23552, Note_off_c, 1, 58, 75
3, 23552, Note_off_c, 1, 61, 75
3, 23552, Note_off_c, 1, 63, 75
3, 23552, Note_off_c, 1, 67, 75
3, 23584, Note_off_c, 1, 50, 75
3, 23616, Note_on_c, 1, 51, 118
3, 23680, Note_off_c, 1, 51, 75
3, 23712, Note_on_c, 1, 53, 118
3, 23776, Note_off_c, 1, 53, 75
3, 23808, Note_on_c, 1, 51, 118
3, 23936, Note_off_c, 1, 51, 75
3, 24000, Note_on_c, 1, 32, 118
3, 24000, Note_on_c, 1, 44, 118
3, 24128, Note_off_c, 1, 32, 75
3, 24128, Note_off_c, 1, 44, 75
3, 24192, Note_on_c, 1, 27, 118
3, 24192, Note_on_c, 1, 39, 118
3, 24288, Note_on_c, 1, 55, 118
3, 24288, Note_on_c, 1, 58, 118
3, 24288, Note_on_c, 1, 61, 118
3, 24288, Note_on_c, 1, 63, 118
3, 24288, Note_on_c, 1, 67, 118
3, 24320, Note_off_c, 1, 27, 75
3, 24320, Note_off_c, 1, 39, 75
3, 24352, Note_off_c, 1, 55, 75
3, 24352, Note_off_c, 1, 58, 75
3, 24352, Note_off_c, 1, 61, 75
3, 24352, Note_off_c, 1, 63, 75
3, 24352, Note_off_c, 1, 67, 75
3, 24384, Note_on_c, 1, 55, 118
3, 24384, Note_on_c, 1, 58, 118
3, 24384, Note_on_c, 1, 61, 118
3, 24384, Note_on_c, 1, 63, 118
3, 24384, Note_on_c, 1, 67, 118
3, 24448, Note_off_c, 1, 55, 75
3, 24448, Note_off_c, 1, 58, 75
3, 24448, Note_off_c, 1, 61, 75
3, 24448, Note_off_c, 1, 63, 75
3, 24448, Note_off_c, 1, 67, 75
3, 24480, Note_on_c, 1, 55, 118
3, 24480, Note_on_c, 1, 58, 118
3, 24480, Note_on_c, 1, 61, 118
3, 24480, Note_on_c, 1, 63, 118
3, 24480, Note_on_c, 1, 67, 118
3, 24544, Note_off_c, 1, 55, 75
3, 24544, Note_off_c, 1, 58, 75
3, 24544, Note_off_c, 1, 61, 75
3, 24544, Note_off_c, 1, 63, 75
3, 24544, Note_off_c, 1, 67, 75
3, 24576, Note_on_c, 1, 55, 118
3, 24576, Note_on_c, 1, 58, 118
3, 24576, Note_on_c, 1, 61, 118
3, 24576, Note_on_c, 1, 63, 118
3, 24576, Note_on_c, 1, 67, 118
3, 24672, Note_on_c, 1, 50, 118
3, 24704, Note_off_c, 1, 55, 75
3, 24704, Note_off_c, 1, 58, 75
3, 24704, Note_off_c, 1, 61, 75
3, 24704, Note_off_c, 1, 63, 75
3, 24704, Note_off_c, 1, 67, 75
3, 24736, Note_off_c, 1, 50, 75
3, 24768, Note_on_c, 1, 51, 118
3, 24832, Note_off_c, 1, 51, 75
3, 24864, Note_on_c, 1, 53, 118
3, 24928, Note_off_c, 1, 53, 75
3, 24960, Note_on_c, 1, 51, 118
3, 25088, Note_off_c, 1, 51, 75
3, 25152, Note_on_c, 1, 32, 118
3, 25152, Note_on_c, 1, 44, 118
3, 25280, Note_off_c, 1, 32, 75
3, 25280, Note_off_c, 1, 44, 75
3, 25344, Note_on_c, 1, 33, 118
3, 25344, Note_on_c, 1, 45, 118
3, 25440, Note_on_c, 1, 57, 118
3, 25440, Note_on_c, 1, 45, 118
3, 25472, Note_off_c, 1, 33, 75
3, 25472, Note_off_c, 1, 45, 75
3, 25504, Note_off_c, 1, 57, 75
3, 25504, Note_off_c, 1, 45, 75
3, 25536, Note_on_c, 1, 57, 118
3, 25536, Note_on_c, 1, 45, 118
3, 25600, Note_off_c, 1, 57, 75
3, 25600, Note_off_c, 1, 45, 75
3, 25632, Note_on_c, 1, 57, 118
3, 25632, Note_on_c, 1, 45, 118
3, 25696, Note_off_c, 1, 57, 75
3, 25696, Note_off_c, 1, 45, 75
3, 25728, Note_on_c, 1, 45, 118
3, 25728, Note_on_c, 1, 57, 118
3, 25856, Note_off_c, 1, 45, 75
3, 25856, Note_off_c, 1, 57, 75
3, 25920, Note_on_c, 1, 44, 118
3, 25920, Note_on_c, 1, 56, 118
3, 26048, Note_off_c, 1, 44, 75
3, 26048, Note_off_c, 1, 56, 75
3, 26112, Note_on_c, 1, 42, 118
3, 26112, Note_on_c, 1, 54, 118
3, 26240, Note_off_c, 1, 42, 75
3, 26240, Note_off_c, 1, 54, 75
3, 26304, Note_on_c, 1, 35, 118
3, 26304, Note_on_c, 1, 47, 118
3, 26432, Note_off_c, 1, 35, 75
3, 26432, Note_off_c, 1, 47, 75
3, 26496, Note_on_c, 1, 52, 118
3, 26496, Note_on_c, 1, 40, 118
3, 26624, Note_off_c, 1, 52, 75
3, 26624, Note_off_c, 1, 40, 75
3, 26688, Note_on_c, 1, 49, 118
3, 26688, Note_on_c, 1, 37, 118
3, 26816, Note_off_c, 1, 49, 75
3, 26816, Note_off_c, 1, 37, 75
3, 26880, Note_on_c, 1, 54, 118
3, 26880, Note_on_c, 1, 42, 118
3, 27008, Note_off_c, 1, 54, 75
3, 27008, Note_off_c, 1, 42, 75
3, 27072, Note_on_c, 1, 47, 118
3, 27072, Note_on_c, 1, 35, 118
3, 27200, Note_off_c, 1, 47, 75
3, 27200, Note_off_c, 1, 35, 75
3, 27264, Note_on_c, 1, 40, 118
3, 27264, Note_on_c, 1, 52, 118
3, 27392, Note_off_c, 1, 40, 75
3, 27392, Note_off_c, 1, 52, 75
3, 27456, Note_on_c, 1, 28, 118
3, 27456, Note_on_c, 1, 40, 118
3, 27584, Note_off_c, 1, 28, 75
3, 27584, Note_off_c, 1, 40, 75
3, 27648, Note_on_c, 1, 33, 118
3, 27648, Note_on_c, 1, 45, 118
3, 27648, Note_on_c, 1, 57, 118
3, 27648, Note_on_c, 1, 61, 118
3, 27776, Note_off_c, 1, 33, 75
3, 27776, Note_off_c, 1, 45, 75
3, 27776, Note_off_c, 1, 57, 75
3, 27776, Note_off_c, 1, 61, 75
3, 27936, Note_on_c, 1, 57, 118
3, 27936, Note_on_c, 1, 52, 118
3, 27936, Note_on_c, 1, 45, 118
3, 28000, Note_off_c, 1, 57, 75
3, 28000, Note_off_c, 1, 52, 75
3, 28000, Note_off_c, 1, 45, 75
3, 28032, Note_on_c, 1, 57, 118
3, 28032, Note_on_c, 1, 52, 118
3, 28032, Note_on_c, 1, 45, 118
3, 28160, Note_off_c, 1, 57, 75
3, 28160, Note_off_c, 1, 52, 75
3, 28160, Note_off_c, 1, 45, 75
3, 28320, Note_on_c, 1, 45, 118
3, 28320, Note_on_c, 1, 52, 118
3, 28320, Note_on_c, 1, 57, 118
3, 28384, Note_off_c, 1, 45, 75
3, 28384, Note_off_c, 1, 52, 75
3, 28384, Note_off_c, 1, 57, 75
3, 28416, Note_on_c, 1, 45, 118
3, 28416, Note_on_c, 1, 52, 118
3, 28416, Note_on_c, 1, 59, 118
3, 28480, Note_off_c, 1, 45, 75
3, 28480, Note_off_c, 1, 52, 75
3, 28480, Note_off_c, 1, 59, 75
3, 28512, Note_on_c, 1, 45, 118
3, 28512, Note_on_c, 1, 52, 118
3, 28512, Note_on_c, 1, 59, 118
3, 28576, Note_off_c, 1, 45, 75
3, 28576, Note_off_c, 1, 52, 75
3, 28576, Note_off_c, 1, 59, 75
3, 28608, Note_on_c, 1, 45, 118
3, 28608, Note_on_c, 1, 52, 118
3, 28608, Note_on_c, 1, 59, 118
3, 28672, Note_off_c, 1, 45, 75
3, 28672, Note_off_c, 1, 52, 75
3, 28672, Note_off_c, 1, 59, 75
3, 28704, Note_on_c, 1, 45, 118
3, 28704, Note_on_c, 1, 52, 118
3, 28704, Note_on_c, 1, 59, 118
3, 28768, Note_off_c, 1, 45, 75
3, 28768, Note_off_c, 1, 52, 75
3, 28768, Note_off_c, 1, 59, 75
3, 28800, Note_on_c, 1, 57, 118
3, 28800, Note_on_c, 1, 52, 118
3, 28800, Note_on_c, 1, 45, 118
3, 28992, Note_off_c, 1, 57, 75
3, 28992, Note_off_c, 1, 52, 75
3, 28992, Note_off_c, 1, 45, 75
3, 29088, Note_on_c, 1, 45, 118
3, 29088, Note_on_c, 1, 52, 118
3, 29088, Note_on_c, 1, 57, 118
3, 29152, Note_off_c, 1, 45, 75
3, 29152, Note_off_c, 1, 52, 75
3, 29152, Note_off_c, 1, 57, 75
3, 29184, Note_on_c, 1, 45, 118
3, 29184, Note_on_c, 1, 52, 118
3, 29184, Note_on_c, 1, 57, 118
3, 29312, Note_off_c, 1, 45, 75
3, 29312, Note_off_c, 1, 52, 75
3, 29312, Note_off_c, 1, 57, 75
3, 29376, Note_on_c, 1, 44, 118
3, 29376, Note_on_c, 1, 56, 118
3, 29440, Note_off_c, 1, 44, 75
3, 29440, Note_off_c, 1, 56, 75
3, 29472, Note_on_c, 1, 45, 118
3, 29472, Note_on_c, 1, 57, 118
3, 29536, Note_off_c, 1, 45, 75
3, 29536, Note_off_c, 1, 57, 75
3, 29568, Note_on_c, 1, 47, 118
3, 29568, Note_on_c, 1, 59, 118
3, 29632, Note_off_c, 1, 47, 75
3, 29632, Note_off_c, 1, 59, 75
3, 29664, Note_on_c, 1, 45, 118
3, 29664, Note_on_c, 1, 57, 118
3, 29792, Note_off_c, 1, 45, 75
3, 29792, Note_off_c, 1, 57, 75
3, 29856, Note_on_c, 1, 40, 118
3, 29856, Note_on_c, 1, 52, 118
3, 29952, Note_on_c, 1, 33, 118
3, 29952, Note_on_c, 1, 45, 118
3, 29984, Note_off_c, 1, 40, 75
3, 29984, Note_off_c, 1, 52, 75
3, 30080, Note_off_c, 1, 33, 75
3, 30080, Note_off_c, 1, 45, 75
3, 30240, Note_on_c, 1, 57, 118
3, 30240, Note_on_c, 1, 52, 118
3, 30240, Note_on_c, 1, 45, 118
3, 30304, Note_off_c, 1, 57, 75
3, 30304, Note_off_c, 1, 52, 75
3, 30304, Note_off_c, 1, 45, 75
3, 30336, Note_on_c, 1, 45, 118
3, 30336, Note_on_c, 1, 52, 118
3, 30336, Note_on_c, 1, 57, 118
3, 30464, Note_off_c, 1, 45, 75
3, 30464, Note_off_c, 1, 52, 75
3, 30464, Note_off_c, 1, 57, 75
3, 30624, Note_on_c, 1, 57, 118
3, 30624, Note_on_c, 1, 52, 118
3, 30624, Note_on_c, 1, 45, 118
3, 30688, Note_off_c, 1, 57, 75
3, 30688, Note_off_c, 1, 52, 75
3, 30688, Note_off_c, 1, 45, 75
3, 30720, Note_on_c, 1, 45, 118
3, 30720, Note_on_c, 1, 52, 118
3, 30720, Note_on_c, 1, 57, 118
3, 30784, Note_off_c, 1, 45, 75
3, 30784, Note_off_c, 1, 52, 75
3, 30784, Note_off_c, 1, 57, 75
3, 30816, Note_on_c, 1, 45, 118
3, 30816, Note_on_c, 1, 52, 118
3, 30816, Note_on_c, 1, 57, 118
3, 30880, Note_off_c, 1, 45, 75
3, 30880, Note_off_c, 1, 52, 75
3, 30880, Note_off_c, 1, 57, 75
3, 30912, Note_on_c, 1, 45, 118
3, 30912, Note_on_c, 1, 52, 118
3, 30912, Note_on_c, 1, 57, 118
3, 30976, Note_off_c, 1, 45, 75
3, 30976, Note_off_c, 1, 52, 75
3, 30976, Note_off_c, 1, 57, 75
3, 31008, Note_on_c, 1, 45, 118
3, 31008, Note_on_c, 1, 52, 118
3, 31008, Note_on_c, 1, 59, 118
3, 31072, Note_off_c, 1, 45, 75
3, 31072, Note_off_c, 1, 52, 75
3, 31072, Note_off_c, 1, 59, 75
3, 31104, Note_on_c, 1, 60, 118
3, 31104, Note_on_c, 1, 54, 118
3, 31104, Note_on_c, 1, 51, 118
3, 31104, Note_on_c, 1, 45, 118
3, 31296, Note_off_c, 1, 60, 75
3, 31296, Note_off_c, 1, 54, 75
3, 31296, Note_off_c, 1, 51, 75
3, 31296, Note_off_c, 1, 45, 75
3, 31392, Note_on_c, 1, 52, 118
3, 31392, Note_on_c, 1, 57, 118
3, 31392, Note_on_c, 1, 61, 118
3, 31456, Note_off_c, 1, 52, 75
3, 31456, Note_off_c, 1, 57, 75
3, 31456, Note_off_c, 1, 61, 75
3, 31488, Note_on_c, 1, 52, 118
3, 31488, Note_on_c, 1, 57, 118
3, 31488, Note_on_c, 1, 61, 118
3, 31616, Note_off_c, 1, 52, 75
3, 31616, Note_off_c, 1, 57, 75
3, 31616, Note_off_c, 1, 61, 75
3, 31680, Note_on_c, 1, 44, 118
3, 31680, Note_on_c, 1, 56, 118
3, 31744, Note_off_c, 1, 44, 75
3, 31744, Note_off_c, 1, 56, 75
3, 31776, Note_on_c, 1, 45, 118
3, 31776, Note_on_c, 1, 57, 118
3, 31840, Note_off_c, 1, 45, 75
3, 31840, Note_off_c, 1, 57, 75
3, 31872, Note_on_c, 1, 47, 118
3, 31872, Note_on_c, 1, 59, 118
3, 31936, Note_off_c, 1, 47, 75
3, 31936, Note_off_c, 1, 59, 75
3, 31968, Note_on_c, 1, 45, 118
3, 31968, Note_on_c, 1, 57, 118
3, 32096, Note_off_c, 1, 45, 75
3, 32096, Note_off_c, 1, 57, 75
3, 32160, Note_on_c, 1, 40, 118
3, 32160, Note_on_c, 1, 52, 118
3, 32256, Note_on_c, 1, 32, 118
3, 32256, Note_on_c, 1, 44, 118
3, 32288, Note_off_c, 1, 28, 75
3, 32288, Note_off_c, 1, 40, 75
3, 32384, Note_off_c, 1, 32, 75
3, 32384, Note_off_c, 1, 44, 75
3, 32448, Note_on_c, 1, 53, 118
3, 32448, Note_on_c, 1, 56, 118
3, 32448, Note_on_c, 1, 61, 118
3, 32448, Note_on_c, 1, 65, 118
3, 32512, Note_off_c, 1, 53, 75
3, 32512, Note_off_c, 1, 56, 75
3, 32512, Note_off_c, 1, 61, 75
3, 32512, Note_off_c, 1, 65, 75
3, 32544, Note_on_c, 1, 53, 118
3, 32544, Note_on_c, 1, 56, 118
3, 32544, Note_on_c, 1, 61, 118
3, 32544, Note_on_c, 1, 65, 118
3, 32608, Note_off_c, 1, 53, 75
3, 32608, Note_off_c, 1, 56, 75
3, 32608, Note_off_c, 1, 61, 75
3, 32608, Note_off_c, 1, 65, 75
3, 32640, Note_on_c, 1, 53, 118
3, 32640, Note_on_c, 1, 56, 118
3, 32640, Note_on_c, 1, 61, 118
3, 32640, Note_on_c, 1, 65, 118
3, 32704, Note_off_c, 1, 53, 75
3, 32704, Note_off_c, 1, 56, 75
3, 32704, Note_off_c, 1, 61, 75
3, 32704, Note_off_c, 1, 65, 75
3, 32736, Note_on_c, 1, 53, 118
3, 32736, Note_on_c, 1, 56, 118
3, 32736, Note_on_c, 1, 61, 118
3, 32736, Note_on_c, 1, 65, 118
3, 32864, Note_off_c, 1, 53, 75
3, 32864, Note_off_c, 1, 56, 75
3, 32864, Note_off_c, 1, 61, 75
3, 32864, Note_off_c, 1, 65, 75
3, 32928, Note_on_c, 1, 53, 118
3, 32928, Note_on_c, 1, 56, 118
3, 32928, Note_on_c, 1, 61, 118
3, 32928, Note_on_c, 1, 65, 118
3, 33024, Note_on_c, 1, 54, 118
3, 33024, Note_on_c, 1, 56, 118
3, 33024, Note_on_c, 1, 60, 118
3, 33024, Note_on_c, 1, 63, 118
3, 33056, Note_off_c, 1, 53, 75
3, 33056, Note_off_c, 1, 56, 75
3, 33056, Note_off_c, 1, 61, 75
3, 33056, Note_off_c, 1, 65, 75
3, 33152, Note_off_c, 1, 54, 75
3, 33152, Note_off_c, 1, 56, 75
3, 33152, Note_off_c, 1, 60, 75
3, 33152, Note_off_c, 1, 63, 75
3, 33216, Note_on_c, 1, 32, 118
3, 33216, Note_on_c, 1, 44, 118
3, 33344, Note_off_c, 1, 32, 75
3, 33344, Note_off_c, 1, 44, 75
3, 33408, Note_on_c, 1, 25, 118
3, 33408, Note_on_c, 1, 37, 118
3, 33600, Note_off_c, 1, 25, 75
3, 33600, Note_off_c, 1, 37, 75
3, 33696, Note_on_c, 1, 61, 118
3, 33696, Note_on_c, 1, 49, 118
3, 33760, Note_off_c, 1, 61, 75
3, 33760, Note_off_c, 1, 49, 75
3, 33792, Note_on_c, 1, 49, 118
3, 33792, Note_on_c, 1, 61, 118
3, 33920, Note_off_c, 1, 49, 75
3, 33920, Note_off_c, 1, 61, 75
3, 33984, Note_on_c, 1, 61, 118
3, 33984, Note_on_c, 1, 49, 118
3, 34048, Note_off_c, 1, 61, 75
3, 34048, Note_off_c, 1, 49, 75
3, 34080, Note_on_c, 1, 61, 118
3, 34080, Note_on_c, 1, 49, 118
3, 34144, Note_off_c, 1, 61, 75
3, 34144, Note_off_c, 1, 49, 75
3, 34176, Note_on_c, 1, 61, 118
3, 34176, Note_on_c, 1, 49, 118
3, 34240, Note_off_c, 1, 61, 75
3, 34240, Note_off_c, 1, 49, 75
3, 34272, Note_on_c, 1, 61, 118
3, 34272, Note_on_c, 1, 49, 118
3, 34336, Note_off_c, 1, 61, 75
3, 34336, Note_off_c, 1, 49, 75
3, 34368, Note_on_c, 1, 61, 118
3, 34368, Note_on_c, 1, 49, 118
3, 34432, Note_off_c, 1, 61, 75
3, 34432, Note_off_c, 1, 49, 75
3, 34464, Note_on_c, 1, 61, 118
3, 34464, Note_on_c, 1, 49, 118
3, 34528, Note_off_c, 1, 61, 75
3, 34528, Note_off_c, 1, 49, 75
3, 34560, Note_on_c, 1, 49, 118
3, 34560, Note_on_c, 1, 61, 118
3, 34688, Note_off_c, 1, 49, 75
3, 34688, Note_off_c, 1, 61, 75
3, 34752, Note_on_c, 1, 59, 118
3, 34752, Note_on_c, 1, 54, 118
3, 34752, Note_on_c, 1, 50, 118
3, 34848, Note_off_c, 1, 59, 75
3, 34848, Note_off_c, 1, 54, 75
3, 34848, Note_off_c, 1, 50, 75
3, 34848, Note_on_c, 1, 59, 118
3, 34848, Note_on_c, 1, 54, 118
3, 34848, Note_on_c, 1, 50, 118
3, 34912, Note_off_c, 1, 59, 75
3, 34912, Note_off_c, 1, 54, 75
3, 34912, Note_off_c, 1, 50, 75
3, 34944, Note_on_c, 1, 50, 118
3, 34944, Note_on_c, 1, 54, 118
3, 34944, Note_on_c, 1, 59, 118
3, 35072, Note_off_c, 1, 50, 75
3, 35072, Note_off_c, 1, 54, 75
3, 35072, Note_off_c, 1, 59, 75
3, 35136, Note_on_c, 1, 52, 118
3, 35136, Note_on_c, 1, 56, 118
3, 35136, Note_on_c, 1, 61, 118
3, 35264, Note_off_c, 1, 52, 75
3, 35264, Note_off_c, 1, 56, 75
3, 35264, Note_off_c, 1, 61, 75
3, 35328, Note_on_c, 1, 64, 118
3, 35328, Note_on_c, 1, 57, 118
3, 35328, Note_on_c, 1, 54, 118
3, 35456, Note_off_c, 1, 64, 75
3, 35520, Note_on_c, 1, 62, 118
3, 35584, Note_off_c, 1, 57, 75
3, 35584, Note_off_c, 1, 54, 75
3, 35648, Note_off_c, 1, 62, 75
3, 35712, Note_on_c, 1, 52, 118
3, 35712, Note_on_c, 1, 56, 118
3, 35712, Note_on_c, 1, 62, 118
3, 35840, Note_off_c, 1, 52, 75
3, 35840, Note_off_c, 1, 56, 75
3, 35840, Note_off_c, 1, 62, 75
3, 35904, Note_on_c, 1, 52, 118
3, 35904, Note_on_c, 1, 56, 118
3, 35904, Note_on_c, 1, 62, 118
3, 35904, Note_on_c, 1, 64, 118
3, 36032, Note_off_c, 1, 52, 75
3, 36032, Note_off_c, 1, 56, 75
3, 36032, Note_off_c, 1, 62, 75
3, 36032, Note_off_c, 1, 64, 75
3, 36096, Note_on_c, 1, 52, 118
3, 36096, Note_on_c, 1, 56, 118
3, 36096, Note_on_c, 1, 62, 118
3, 36096, Note_on_c, 1, 64, 118
3, 36352, Note_off_c, 1, 52, 75
3, 36352, Note_off_c, 1, 56, 75
3, 36352, Note_off_c, 1, 62, 75
3, 36352, Note_off_c, 1, 64, 75
3, 36480, Note_on_c, 1, 57, 118
3, 36480, Note_on_c, 1, 61, 118
3, 36480, Note_on_c, 1, 64, 118
3, 36608, Note_off_c, 1, 57, 75
3, 36608, Note_off_c, 1, 61, 75
3, 36608, Note_off_c, 1, 64, 75
3, 36864, Note_on_c, 1, 47, 118
3, 36864, Note_on_c, 1, 35, 118
3, 36992, Note_off_c, 1, 47, 75
3, 36992, Note_off_c, 1, 35, 75
3, 37152, Note_on_c, 1, 59, 118
3, 37152, Note_on_c, 1, 47, 118
3, 37216, Note_off_c, 1, 59, 75
3, 37216, Note_off_c, 1, 47, 75
3, 37248, Note_on_c, 1, 47, 118
3, 37248, Note_on_c, 1, 59, 118
3, 37344, Note_on_c, 1, 58, 118
3, 37344, Note_on_c, 1, 46, 118
3, 37376, Note_off_c, 1, 47, 75
3, 37376, Note_off_c, 1, 59, 75
3, 37408, Note_off_c, 1, 58, 75
3, 37408, Note_off_c, 1, 46, 75
3, 37440, Note_on_c, 1, 59, 118
3, 37440, Note_on_c, 1, 47, 118
3, 37504, Note_off_c, 1, 59, 75
3, 37504, Note_off_c, 1, 47, 75
3, 37536, Note_on_c, 1, 61, 118
3, 37536, Note_on_c, 1, 49, 118
3, 37600, Note_off_c, 1, 61, 75
3, 37600, Note_off_c, 1, 49, 75
3, 37632, Note_on_c, 1, 47, 118
3, 37632, Note_on_c, 1, 59, 118
3, 37760, Note_off_c, 1, 47, 75
3, 37760, Note_off_c, 1, 59, 75
3, 37824, Note_on_c, 1, 52, 118
3, 37824, Note_on_c, 1, 40, 118
3, 37952, Note_off_c, 1, 52, 75
3, 37952, Note_off_c, 1, 40, 75
3, 38016, Note_on_c, 1, 47, 118
3, 38016, Note_on_c, 1, 35, 118
3, 38144, Note_off_c, 1, 47, 75
3, 38144, Note_off_c, 1, 35, 75
3, 38208, Note_on_c, 1, 59, 118
3, 38208, Note_on_c, 1, 47, 118
3, 38272, Note_off_c, 1, 59, 75
3, 38272, Note_off_c, 1, 47, 75
3, 38304, Note_on_c, 1, 59, 118
3, 38304, Note_on_c, 1, 47, 118
3, 38368, Note_off_c, 1, 59, 75
3, 38368, Note_off_c, 1, 47, 75
3, 38400, Note_on_c, 1, 59, 118
3, 38400, Note_on_c, 1, 47, 118
3, 38464, Note_off_c, 1, 59, 75
3, 38464, Note_off_c, 1, 47, 75
3, 38496, Note_on_c, 1, 59, 118
3, 38496, Note_on_c, 1, 47, 118
3, 38624, Note_off_c, 1, 59, 75
3, 38624, Note_off_c, 1, 47, 75
3, 38688, Note_on_c, 1, 58, 118
3, 38688, Note_on_c, 1, 46, 118
3, 38752, Note_off_c, 1, 58, 75
3, 38752, Note_off_c, 1, 46, 75
3, 38784, Note_on_c, 1, 59, 118
3, 38784, Note_on_c, 1, 47, 118
3, 38848, Note_off_c, 1, 59, 75
3, 38848, Note_off_c, 1, 47, 75
3, 38880, Note_on_c, 1, 61, 118
3, 38880, Note_on_c, 1, 49, 118
3, 38944, Note_off_c, 1, 61, 75
3, 38944, Note_off_c, 1, 49, 75
3, 38976, Note_on_c, 1, 59, 118
3, 38976, Note_on_c, 1, 47, 118
3, 39072, Note_on_c, 1, 47, 118
3, 39072, Note_on_c, 1, 35, 118
3, 39104, Note_off_c, 1, 59, 75
3, 39104, Note_off_c, 1, 47, 75
3, 39168, Note_on_c, 1, 37, 118
3, 39168, Note_on_c, 1, 49, 118
3, 39172, Note_off_c, 1, 47, 75
3, 39200, Note_off_c, 1, 35, 75
3, 39296, Note_off_c, 1, 37, 75
3, 39296, Note_off_c, 1, 49, 75
3, 39360, Note_on_c, 1, 37, 118
3, 39360, Note_on_c, 1, 49, 118
3, 39424, Note_off_c, 1, 37, 75
3, 39424, Note_off_c, 1, 49, 75
3, 39456, Note_on_c, 1, 37, 118
3, 39456, Note_on_c, 1, 49, 118
3, 39520, Note_off_c, 1, 37, 75
3, 39520, Note_off_c, 1, 49, 75
3, 39552, Note_on_c, 1, 30, 118
3, 39552, Note_on_c, 1, 42, 118
3, 39680, Note_off_c, 1, 30, 75
3, 39680, Note_off_c, 1, 42, 75
3, 39744, Note_on_c, 1, 32, 118
3, 39744, Note_on_c, 1, 44, 118
3, 39872, Note_off_c, 1, 32, 75
3, 39872, Note_off_c, 1, 44, 75
3, 39936, Note_on_c, 1, 33, 118
3, 39936, Note_on_c, 1, 45, 118
3, 40064, Note_off_c, 1, 33, 75
3, 40064, Note_off_c, 1, 45, 75
3, 40128, Note_on_c, 1, 32, 118
3, 40128, Note_on_c, 1, 44, 118
3, 40256, Note_off_c, 1, 32, 75
3, 40256, Note_off_c, 1, 44, 75
3, 40320, Note_on_c, 1, 49, 118
3, 40320, Note_on_c, 1, 37, 118
3, 40448, Note_off_c, 1, 49, 75
3, 40448, Note_off_c, 1, 37, 75
3, 40512, Note_on_c, 1, 39, 118
3, 40512, Note_on_c, 1, 51, 118
3, 40640, Note_off_c, 1, 39, 75
3, 40640, Note_off_c, 1, 51, 75
3, 40704, Note_on_c, 1, 56, 118
3, 40704, Note_on_c, 1, 44, 118
3, 40832, Note_off_c, 1, 56, 75
3, 40832, Note_off_c, 1, 44, 75
3, 40896, Note_on_c, 1, 51, 118
3, 40896, Note_on_c, 1, 39, 118
3, 40960, Note_off_c, 1, 51, 75
3, 40960, Note_off_c, 1, 39, 75
3, 40992, Note_on_c, 1, 51, 118
3, 40992, Note_on_c, 1, 39, 118
3, 41056, Note_off_c, 1, 51, 75
3, 41056, Note_off_c, 1, 39, 75
3, 41088, Note_on_c, 1, 51, 118
3, 41088, Note_on_c, 1, 39, 118
3, 41152, Note_off_c, 1, 51, 75
3, 41152, Note_off_c, 1, 39, 75
3, 41184, Note_on_c, 1, 51, 118
3, 41184, Note_on_c, 1, 39, 118
3, 41248, Note_off_c, 1, 51, 75
3, 41248, Note_off_c, 1, 39, 75
3, 41280, Note_on_c, 1, 51, 118
3, 41280, Note_on_c, 1, 39, 118
3, 41344, Note_off_c, 1, 51, 75
3, 41344, Note_off_c, 1, 39, 75
3, 41376, Note_on_c, 1, 51, 118
3, 41376, Note_on_c, 1, 39, 118
3, 41440, Note_off_c, 1, 51, 75
3, 41440, Note_off_c, 1, 39, 75
3, 41472, Note_on_c, 1, 27, 118
3, 41472, Note_on_c, 1, 39, 118
3, 41600, Note_off_c, 1, 27, 75
3, 41600, Note_off_c, 1, 39, 75
3, 41760, Note_on_c, 1, 55, 118
3, 41760, Note_on_c, 1, 58, 118
3, 41760, Note_on_c, 1, 61, 118
3, 41760, Note_on_c, 1, 63, 118
3, 41760, Note_on_c, 1, 67, 118
3, 41824, Note_off_c, 1, 55, 75
3, 41824, Note_off_c, 1, 58, 75
3, 41824, Note_off_c, 1, 61, 75
3, 41824, Note_off_c, 1, 63, 75
3, 41824, Note_off_c, 1, 67, 75
3, 41856, Note_on_c, 1, 55, 118
3, 41856, Note_on_c, 1, 58, 118
3, 41856, Note_on_c, 1, 61, 118
3, 41856, Note_on_c, 1, 63, 118
3, 41856, Note_on_c, 1, 67, 118
3, 41952, Note_on_c, 1, 50, 118
3, 41984, Note_off_c, 1, 55, 75
3, 41984, Note_off_c, 1, 58, 75
3, 41984, Note_off_c, 1, 61, 75
3, 41984, Note_off_c, 1, 63, 75
3, 41984, Note_off_c, 1, 67, 75
3, 42016, Note_off_c, 1, 50, 75
3, 42048, Note_on_c, 1, 51, 118
3, 42112, Note_off_c, 1, 51, 75
3, 42144, Note_on_c, 1, 53, 118
3, 42208, Note_off_c, 1, 53, 75
3, 42240, Note_on_c, 1, 51, 118
3, 42368, Note_off_c, 1, 51, 75
3, 42432, Note_on_c, 1, 32, 118
3, 42432, Note_on_c, 1, 44, 118
3, 42560, Note_off_c, 1, 32, 75
3, 42560, Note_off_c, 1, 44, 75
3, 42624, Note_on_c, 1, 27, 118
3, 42624, Note_on_c, 1, 39, 118
3, 42720, Note_on_c, 1, 55, 118
3, 42720, Note_on_c, 1, 58, 118
3, 42720, Note_on_c, 1, 61, 118
3, 42720, Note_on_c, 1, 63, 118
3, 42720, Note_on_c, 1, 67, 118
3, 42752, Note_off_c, 1, 27, 75
3, 42752, Note_off_c, 1, 39, 75
3, 42784, Note_off_c, 1, 55, 75
3, 42784, Note_off_c, 1, 58, 75
3, 42784, Note_off_c, 1, 61, 75
3, 42784, Note_off_c, 1, 63, 75
3, 42784, Note_off_c, 1, 67, 75
3, 42816, Note_on_c, 1, 55, 118
3, 42816, Note_on_c, 1, 58, 118
3, 42816, Note_on_c, 1, 61, 118
3, 42816, Note_on_c, 1, 63, 118
3, 42816, Note_on_c, 1, 67, 118
3, 42880, Note_off_c, 1, 55, 75
3, 42880, Note_off_c, 1, 58, 75
3, 42880, Note_off_c, 1, 61, 75
3, 42880, Note_off_c, 1, 63, 75
3, 42880, Note_off_c, 1, 67, 75
3, 42912, Note_on_c, 1, 55, 118
3, 42912, Note_on_c, 1, 58, 118
3, 42912, Note_on_c, 1, 61, 118
3, 42912, Note_on_c, 1, 63, 118
3, 42912, Note_on_c, 1, 67, 118
3, 42976, Note_off_c, 1, 55, 75
3, 42976, Note_off_c, 1, 58, 75
3, 42976, Note_off_c, 1, 61, 75
3, 42976, Note_off_c, 1, 63, 75
3, 42976, Note_off_c, 1, 67, 75
3, 43008, Note_on_c, 1, 55, 118
3, 43008, Note_on_c, 1, 58, 118
3, 43008, Note_on_c, 1, 61, 118
3, 43008, Note_on_c, 1, 63, 118
3, 43008, Note_on_c, 1, 67, 118
3, 43104, Note_on_c, 1, 50, 118
3, 43136, Note_off_c, 1, 55, 75
3, 43136, Note_off_c, 1, 58, 75
3, 43136, Note_off_c, 1, 61, 75
3, 43136, Note_off_c, 1, 63, 75
3, 43136, Note_off_c, 1, 67, 75
3, 43168, Note_off_c, 1, 50, 75
3, 43200, Note_on_c, 1, 51, 118
3, 43264, Note_off_c, 1, 51, 75
3, 43296, Note_on_c, 1, 53, 118
3, 43360, Note_off_c, 1, 53, 75
3, 43392, Note_on_c, 1, 51, 118
3, 43520, Note_off_c, 1, 51, 75
3, 43584, Note_on_c, 1, 32, 118
3, 43584, Note_on_c, 1, 44, 118
3, 43712, Note_off_c, 1, 32, 75
3, 43712, Note_off_c, 1, 44, 75
3, 43776, Note_on_c, 1, 33, 118
3, 43776, Note_on_c, 1, 45, 118
3, 43872, Note_on_c, 1, 57, 118
3, 43872, Note_on_c, 1, 45, 118
3, 43904, Note_off_c, 1, 33, 75
3, 43904, Note_off_c, 1, 45, 75
3, 43936, Note_off_c, 1, 57, 75
3, 43936, Note_off_c, 1, 45, 75
3, 43968, Note_on_c, 1, 57, 118
3, 43968, Note_on_c, 1, 45, 118
3, 44032, Note_off_c, 1, 57, 75
3, 44032, Note_off_c, 1, 45, 75
3, 44064, Note_on_c, 1, 57, 118
3, 44064, Note_on_c, 1, 45, 118
3, 44128, Note_off_c, 1, 57, 75
3, 44128, Note_off_c, 1, 45, 75
3, 44160, Note_on_c, 1, 45, 118
3, 44160, Note_on_c, 1, 57, 118
3, 44288, Note_off_c, 1, 45, 75
3, 44288, Note_off_c, 1, 57, 75
3, 44352, Note_on_c, 1, 44, 118
3, 44352, Note_on_c, 1, 56, 118
3, 44480, Note_off_c, 1, 44, 75
3, 44480, Note_off_c, 1, 56, 75
3, 44544, Note_on_c, 1, 42, 118
3, 44544, Note_on_c, 1, 54, 118
3, 44672, Note_off_c, 1, 42, 75
3, 44672, Note_off_c, 1, 54, 75
3, 44736, Note_on_c, 1, 35, 118
3, 44736, Note_on_c, 1, 47, 118
3, 44864, Note_off_c, 1, 35, 75
3, 44864, Note_off_c, 1, 47, 75
3, 44928, Note_on_c, 1, 52, 118
3, 44928, Note_on_c, 1, 40, 118
3, 45056, Note_off_c, 1, 52, 75
3, 45056, Note_off_c, 1, 40, 75
3, 45120, Note_on_c, 1, 49, 118
3, 45120, Note_on_c, 1, 37, 118
3, 45248, Note_off_c, 1, 49, 75
3, 45248, Note_off_c, 1, 37, 75
3, 45312, Note_on_c, 1, 54, 118
3, 45312, Note_on_c, 1, 42, 118
3, 45440, Note_off_c, 1, 54, 75
3, 45440, Note_off_c, 1, 42, 75
3, 45504, Note_on_c, 1, 47, 118
3, 45504, Note_on_c, 1, 35, 118
3, 45632, Note_off_c, 1, 47, 75
3, 45632, Note_off_c, 1, 35, 75
3, 45696, Note_on_c, 1, 40, 118
3, 45696, Note_on_c, 1, 52, 118
3, 45824, Note_off_c, 1, 40, 75
3, 45824, Note_off_c, 1, 52, 75
3, 45888, Note_on_c, 1, 28, 118
3, 45888, Note_on_c, 1, 40, 118
3, 46016, Note_off_c, 1, 28, 75
3, 46016, Note_off_c, 1, 40, 75
3, 46080, Note_on_c, 1, 33, 118
3, 46080, Note_on_c, 1, 45, 118
3, 46080, Note_on_c, 1, 57, 118
3, 46080, Note_on_c, 1, 61, 118
3, 46208, Note_off_c, 1, 33, 75
3, 46208, Note_off_c, 1, 45, 75
3, 46208, Note_off_c, 1, 57, 75
3, 46208, Note_off_c, 1, 61, 75
3, 46368, Note_on_c, 1, 57, 118
3, 46368, Note_on_c, 1, 52, 118
3, 46368, Note_on_c, 1, 45, 118
3, 46432, Note_off_c, 1, 57, 75
3, 46432, Note_off_c, 1, 52, 75
3, 46432, Note_off_c, 1, 45, 75
3, 46464, Note_on_c, 1, 57, 118
3, 46464, Note_on_c, 1, 52, 118
3, 46464, Note_on_c, 1, 45, 118
3, 46592, Note_off_c, 1, 57, 75
3, 46592, Note_off_c, 1, 52, 75
3, 46592, Note_off_c, 1, 45, 75
3, 46752, Note_on_c, 1, 45, 118
3, 46752, Note_on_c, 1, 52, 118
3, 46752, Note_on_c, 1, 57, 118
3, 46816, Note_off_c, 1, 45, 75
3, 46816, Note_off_c, 1, 52, 75
3, 46816, Note_off_c, 1, 57, 75
3, 46848, Note_on_c, 1, 45, 118
3, 46848, Note_on_c, 1, 52, 118
3, 46848, Note_on_c, 1, 59, 118
3, 46912, Note_off_c, 1, 45, 75
3, 46912, Note_off_c, 1, 52, 75
3, 46912, Note_off_c, 1, 59, 75
3, 46944, Note_on_c, 1, 45, 118
3, 46944, Note_on_c, 1, 52, 118
3, 46944, Note_on_c, 1, 59, 118
3, 47008, Note_off_c, 1, 45, 75
3, 47008, Note_off_c, 1, 52, 75
3, 47008, Note_off_c, 1, 59, 75
3, 47040, Note_on_c, 1, 45, 118
3, 47040, Note_on_c, 1, 52, 118
3, 47040, Note_on_c, 1, 59, 118
3, 47104, Note_off_c, 1, 45, 75
3, 47104, Note_off_c, 1, 52, 75
3, 47104, Note_off_c, 1, 59, 75
3, 47136, Note_on_c, 1, 45, 118
3, 47136, Note_on_c, 1, 52, 118
3, 47136, Note_on_c, 1, 59, 118
3, 47200, Note_off_c, 1, 45, 75
3, 47200, Note_off_c, 1, 52, 75
3, 47200, Note_off_c, 1, 59, 75
3, 47232, Note_on_c, 1, 57, 118
3, 47232, Note_on_c, 1, 52, 118
3, 47232, Note_on_c, 1, 45, 118
3, 47424, Note_off_c, 1, 57, 75
3, 47424, Note_off_c, 1, 52, 75
3, 47424, Note_off_c, 1, 45, 75
3, 47520, Note_on_c, 1, 45, 118
3, 47520, Note_on_c, 1, 52, 118
3, 47520, Note_on_c, 1, 57, 118
3, 47584, Note_off_c, 1, 45, 75
3, 47584, Note_off_c, 1, 52, 75
3, 47584, Note_off_c, 1, 57, 75
3, 47616, Note_on_c, 1, 45, 118
3, 47616, Note_on_c, 1, 52, 118
3, 47616, Note_on_c, 1, 57, 118
3, 47744, Note_off_c, 1, 45, 75
3, 47744, Note_off_c, 1, 52, 75
3, 47744, Note_off_c, 1, 57, 75
3, 47808, Note_on_c, 1, 44, 118
3, 47808, Note_on_c, 1, 56, 118
3, 47872, Note_off_c, 1, 44, 75
3, 47872, Note_off_c, 1, 56, 75
3, 47904, Note_on_c, 1, 45, 118
3, 47904, Note_on_c, 1, 57, 118
3, 47968, Note_off_c, 1, 45, 75
3, 47968, Note_off_c, 1, 57, 75
3, 48000, Note_on_c, 1, 47, 118
3, 48000, Note_on_c, 1, 59, 118
3, 48064, Note_off_c, 1, 47, 75
3, 48064, Note_off_c, 1, 59, 75
3, 48096, Note_on_c, 1, 45, 118
3, 48096, Note_on_c, 1, 57, 118
3, 48224, Note_off_c, 1, 45, 75
3, 48224, Note_off_c, 1, 57, 75
3, 48288, Note_on_c, 1, 40, 118
3, 48288, Note_on_c, 1, 52, 118
3, 48384, Note_on_c, 1, 33, 118
3, 48384, Note_on_c, 1, 45, 118
3, 48416, Note_off_c, 1, 40, 75
3, 48416, Note_off_c, 1, 52, 75
3, 48512, Note_off_c, 1, 33, 75
3, 48512, Note_off_c, 1, 45, 75
3, 48672, Note_on_c, 1, 57, 118
3, 48672, Note_on_c, 1, 52, 118
3, 48672, Note_on_c, 1, 45, 118
3, 48736, Note_off_c, 1, 57, 75
3, 48736, Note_off_c, 1, 52, 75
3, 48736, Note_off_c, 1, 45, 75
3, 48768, Note_on_c, 1, 45, 118
3, 48768, Note_on_c, 1, 52, 118
3, 48768, Note_on_c, 1, 57, 118
3, 48896, Note_off_c, 1, 45, 75
3, 48896, Note_off_c, 1, 52, 75
3, 48896, Note_off_c, 1, 57, 75
3, 49056, Note_on_c, 1, 57, 118
3, 49056, Note_on_c, 1, 52, 118
3, 49056, Note_on_c, 1, 45, 118
3, 49120, Note_off_c, 1, 57, 75
3, 49120, Note_off_c, 1, 52, 75
3, 49120, Note_off_c, 1, 45, 75
3, 49152, Note_on_c, 1, 45, 118
3, 49152, Note_on_c, 1, 52, 118
3, 49152, Note_on_c, 1, 57, 118
3, 49216, Note_off_c, 1, 45, 75
3, 49216, Note_off_c, 1, 52, 75
3, 49216, Note_off_c, 1, 57, 75
3, 49248, Note_on_c, 1, 45, 118
3, 49248, Note_on_c, 1, 52, 118
3, 49248, Note_on_c, 1, 57, 118
3, 49312, Note_off_c, 1, 45, 75
3, 49312, Note_off_c, 1, 52, 75
3, 49312, Note_off_c, 1, 57, 75
3, 49344, Note_on_c, 1, 45, 118
3, 49344, Note_on_c, 1, 52, 118
3, 49344, Note_on_c, 1, 57, 118
3, 49408, Note_off_c, 1, 45, 75
3, 49408, Note_off_c, 1, 52, 75
3, 49408, Note_off_c, 1, 57, 75
3, 49440, Note_on_c, 1, 45, 118
3, 49440, Note_on_c, 1, 52, 118
3, 49440, Note_on_c, 1, 59, 118
3, 49504, Note_off_c, 1, 45, 75
3, 49504, Note_off_c, 1, 52, 75
3, 49504, Note_off_c, 1, 59, 75
3, 49536, Note_on_c, 1, 60, 118
3, 49536, Note_on_c, 1, 54, 118
3, 49536, Note_on_c, 1, 51, 118
3, 49536, Note_on_c, 1, 45, 118
3, 49728, Note_off_c, 1, 60, 75
3, 49728, Note_off_c, 1, 54, 75
3, 49728, Note_off_c, 1, 51, 75
3, 49728, Note_off_c, 1, 45, 75
3, 49824, Note_on_c, 1, 52, 118
3, 49824, Note_on_c, 1, 57, 118
3, 49824, Note_on_c, 1, 61, 118
3, 49888, Note_off_c, 1, 52, 75
3, 49888, Note_off_c, 1, 57, 75
3, 49888, Note_off_c, 1, 61, 75
3, 49920, Note_on_c, 1, 52, 118
3, 49920, Note_on_c, 1, 57, 118
3, 49920, Note_on_c, 1, 61, 118
3, 50048, Note_off_c, 1, 52, 75
3, 50048, Note_off_c, 1, 57, 75
3, 50048, Note_off_c, 1, 61, 75
3, 50112, Note_on_c, 1, 44, 118
3, 50112, Note_on_c, 1, 56, 118
3, 50176, Note_off_c, 1, 44, 75
3, 50176, Note_off_c, 1, 56, 75
3, 50208, Note_on_c, 1, 45, 118
3, 50208, Note_on_c, 1, 57, 118
3, 50272, Note_off_c, 1, 45, 75
3, 50272, Note_off_c, 1, 57, 75
3, 50304, Note_on_c, 1, 47, 118
3, 50304, Note_on_c, 1, 59, 118
3, 50368, Note_off_c, 1, 47, 75
3, 50368, Note_off_c, 1, 59, 75
3, 50400, Note_on_c, 1, 45, 118
3, 50400, Note_on_c, 1, 57, 118
3, 50528, Note_off_c, 1, 45, 75
3, 50528, Note_off_c, 1, 57, 75
3, 50592, Note_on_c, 1, 40, 118
3, 50592, Note_on_c, 1, 52, 118
3, 50688, Note_on_c, 1, 32, 118
3, 50688, Note_on_c, 1, 44, 118
3, 50692, Note_off_c, 1, 52, 75
3, 50720, Note_off_c, 1, 40, 75
3, 50816, Note_off_c, 1, 32, 75
3, 50816, Note_off_c, 1, 44, 75
3, 50880, Note_on_c, 1, 53, 118
3, 50880, Note_on_c, 1, 56, 118
3, 50880, Note_on_c, 1, 61, 118
3, 50880, Note_on_c, 1, 65, 118
3, 50944, Note_off_c, 1, 53, 75
3, 50944, Note_off_c, 1, 56, 75
3, 50944, Note_off_c, 1, 61, 75
3, 50944, Note_off_c, 1, 65, 75
3, 50976, Note_on_c, 1, 53, 118
3, 50976, Note_on_c, 1, 56, 118
3, 50976, Note_on_c, 1, 61, 118
3, 50976, Note_on_c, 1, 65, 118
3, 51040, Note_off_c, 1, 53, 75
3, 51040, Note_off_c, 1, 56, 75
3, 51040, Note_off_c, 1, 61, 75
3, 51040, Note_off_c, 1, 65, 75
3, 51072, Note_on_c, 1, 53, 118
3, 51072, Note_on_c, 1, 56, 118
3, 51072, Note_on_c, 1, 61, 118
3, 51072, Note_on_c, 1, 65, 118
3, 51136, Note_off_c, 1, 53, 75
3, 51136, Note_off_c, 1, 56, 75
3, 51136, Note_off_c, 1, 61, 75
3, 51136, Note_off_c, 1, 65, 75
3, 51168, Note_on_c, 1, 53, 118
3, 51168, Note_on_c, 1, 56, 118
3, 51168, Note_on_c, 1, 61, 118
3, 51168, Note_on_c, 1, 65, 118
3, 51296, Note_off_c, 1, 53, 75
3, 51296, Note_off_c, 1, 56, 75
3, 51296, Note_off_c, 1, 61, 75
3, 51296, Note_off_c, 1, 65, 75
3, 51360, Note_on_c, 1, 53, 118
3, 51360, Note_on_c, 1, 56, 118
3, 51360, Note_on_c, 1, 61, 118
3, 51360, Note_on_c, 1, 65, 118
3, 51456, Note_on_c, 1, 54, 118
3, 51456, Note_on_c, 1, 56, 118
3, 51456, Note_on_c, 1, 60, 118
3, 51456, Note_on_c, 1, 63, 118
3, 51488, Note_off_c, 1, 53, 75
3, 51488, Note_off_c, 1, 56, 75
3, 51488, Note_off_c, 1, 61, 75
3, 51488, Note_off_c, 1, 65, 75
3, 51584, Note_off_c, 1, 54, 75
3, 51584, Note_off_c, 1, 56, 75
3, 51584, Note_off_c, 1, 60, 75
3, 51584, Note_off_c, 1, 63, 75
3, 51648, Note_on_c, 1, 32, 118
3, 51648, Note_on_c, 1, 44, 118
3, 51776, Note_off_c, 1, 32, 75
3, 51776, Note_off_c, 1, 44, 75
3, 51840, Note_on_c, 1, 25, 118
3, 51840, Note_on_c, 1, 37, 118
3, 52032, Note_off_c, 1, 25, 75
3, 52032, Note_off_c, 1, 37, 75
3, 52128, Note_on_c, 1, 61, 118
3, 52128, Note_on_c, 1, 49, 118
3, 52192, Note_off_c, 1, 61, 75
3, 52192, Note_off_c, 1, 49, 75
3, 52224, Note_on_c, 1, 49, 118
3, 52224, Note_on_c, 1, 61, 118
3, 52352, Note_off_c, 1, 49, 75
3, 52352, Note_off_c, 1, 61, 75
3, 52416, Note_on_c, 1, 61, 118
3, 52416, Note_on_c, 1, 49, 118
3, 52480, Note_off_c, 1, 61, 75
3, 52480, Note_off_c, 1, 49, 75
3, 52512, Note_on_c, 1, 61, 118
3, 52512, Note_on_c, 1, 49, 118
3, 52576, Note_off_c, 1, 61, 75
3, 52576, Note_off_c, 1, 49, 75
3, 52608, Note_on_c, 1, 61, 118
3, 52608, Note_on_c, 1, 49, 118
3, 52672, Note_off_c, 1, 61, 75
3, 52672, Note_off_c, 1, 49, 75
3, 52704, Note_on_c, 1, 61, 118
3, 52704, Note_on_c, 1, 49, 118
3, 52768, Note_off_c, 1, 61, 75
3, 52768, Note_off_c, 1, 49, 75
3, 52800, Note_on_c, 1, 61, 118
3, 52800, Note_on_c, 1, 49, 118
3, 52864, Note_off_c, 1, 61, 75
3, 52864, Note_off_c, 1, 49, 75
3, 52896, Note_on_c, 1, 61, 118
3, 52896, Note_on_c, 1, 49, 118
3, 52960, Note_off_c, 1, 61, 75
3, 52960, Note_off_c, 1, 49, 75
3, 52992, Note_on_c, 1, 49, 118
3, 52992, Note_on_c, 1, 61, 118
3, 53120, Note_off_c, 1, 49, 75
3, 53120, Note_off_c, 1, 61, 75
3, 53184, Note_on_c, 1, 59, 118
3, 53184, Note_on_c, 1, 54, 118
3, 53184, Note_on_c, 1, 50, 118
3, 53280, Note_off_c, 1, 59, 75
3, 53280, Note_off_c, 1, 54, 75
3, 53280, Note_off_c, 1, 50, 75
3, 53280, Note_on_c, 1, 59, 118
3, 53280, Note_on_c, 1, 54, 118
3, 53280, Note_on_c, 1, 50, 118
3, 53344, Note_off_c, 1, 59, 75
3, 53344, Note_off_c, 1, 54, 75
3, 53344, Note_off_c, 1, 50, 75
3, 53376, Note_on_c, 1, 50, 118
3, 53376, Note_on_c, 1, 54, 118
3, 53376, Note_on_c, 1, 59, 118
3, 53504, Note_off_c, 1, 50, 75
3, 53504, Note_off_c, 1, 54, 75
3, 53504, Note_off_c, 1, 59, 75
3, 53568, Note_on_c, 1, 52, 118
3, 53568, Note_on_c, 1, 56, 118
3, 53568, Note_on_c, 1, 61, 118
3, 53696, Note_off_c, 1, 52, 75
3, 53696, Note_off_c, 1, 56, 75
3, 53696, Note_off_c, 1, 61, 75
3, 53760, Note_on_c, 1, 64, 118
3, 53760, Note_on_c, 1, 57, 118
3, 53760, Note_on_c, 1, 54, 118
3, 53888, Note_off_c, 1, 64, 75
3, 53952, Note_on_c, 1, 62, 118
3, 54016, Note_off_c, 1, 57, 75
3, 54016, Note_off_c, 1, 54, 75
3, 54080, Note_off_c, 1, 62, 75
3, 54144, Note_on_c, 1, 52, 118
3, 54144, Note_on_c, 1, 56, 118
3, 54144, Note_on_c, 1, 62, 118
3, 54272, Note_off_c, 1, 52, 75
3, 54272, Note_off_c, 1, 56, 75
3, 54272, Note_off_c, 1, 62, 75
3, 54336, Note_on_c, 1, 52, 118
3, 54336, Note_on_c, 1, 56, 118
3, 54336, Note_on_c, 1, 62, 118
3, 54336, Note_on_c, 1, 64, 118
3, 54464, Note_off_c, 1, 52, 75
3, 54464, Note_off_c, 1, 56, 75
3, 54464, Note_off_c, 1, 62, 75
3, 54464, Note_off_c, 1, 64, 75
3, 54528, Note_on_c, 1, 52, 118
3, 54528, Note_on_c, 1, 56, 118
3, 54528, Note_on_c, 1, 62, 118
3, 54528, Note_on_c, 1, 64, 118
3, 54784, Note_off_c, 1, 52, 75
3, 54784, Note_off_c, 1, 56, 75
3, 54784, Note_off_c, 1, 62, 75
3, 54784, Note_off_c, 1, 64, 75
3, 54912, Note_on_c, 1, 57, 118
3, 54912, Note_on_c, 1, 61, 118
3, 54912, Note_on_c, 1, 64, 118
3, 55040, Note_off_c, 1, 57, 75
3, 55040, Note_off_c, 1, 61, 75
3, 55040, Note_off_c, 1, 64, 75
3, 55296, Key_signature, 2, "major"
3, 55296, Note_on_c, 1, 26, 118
3, 55296, Note_on_c, 1, 38, 118
3, 55424, Note_off_c, 1, 26, 75
3, 55424, Note_off_c, 1, 38, 75
3, 55488, Note_on_c, 1, 54, 118
3, 55488, Note_on_c, 1, 57, 118
3, 55488, Note_on_c, 1, 62, 118
3, 55552, Note_off_c, 1, 54, 75
3, 55552, Note_off_c, 1, 57, 75
3, 55552, Note_off_c, 1, 62, 75
3, 55584, Note_on_c, 1, 54, 118
3, 55584, Note_on_c, 1, 57, 118
3, 55584, Note_on_c, 1, 62, 118
3, 55648, Note_off_c, 1, 54, 75
3, 55648, Note_off_c, 1, 57, 75
3, 55648, Note_off_c, 1, 62, 75
3, 55680, Note_on_c, 1, 54, 118
3, 55680, Note_on_c, 1, 57, 118
3, 55680, Note_on_c, 1, 62, 118
3, 55808, Note_off_c, 1, 54, 75
3, 55808, Note_off_c, 1, 57, 75
3, 55808, Note_off_c, 1, 62, 75
3, 55872, Note_on_c, 1, 54, 118
3, 55872, Note_on_c, 1, 57, 118
3, 55872, Note_on_c, 1, 62, 118
3, 56000, Note_off_c, 1, 54, 75
3, 56000, Note_off_c, 1, 57, 75
3, 56000, Note_off_c, 1, 62, 75
3, 56064, Note_on_c, 1, 55, 118
3, 56064, Note_on_c, 1, 57, 118
3, 56064, Note_on_c, 1, 61, 118
3, 56192, Note_off_c, 1, 55, 75
3, 56192, Note_off_c, 1, 57, 75
3, 56192, Note_off_c, 1, 61, 75
3, 56256, Note_on_c, 1, 55, 118
3, 56256, Note_on_c, 1, 57, 118
3, 56256, Note_on_c, 1, 61, 118
3, 56384, Note_off_c, 1, 55, 75
3, 56384, Note_off_c, 1, 57, 75
3, 56384, Note_off_c, 1, 61, 75
3, 56448, Note_on_c, 1, 26, 118
3, 56448, Note_on_c, 1, 38, 118
3, 56576, Note_off_c, 1, 26, 75
3, 56576, Note_off_c, 1, 38, 75
3, 56640, Note_on_c, 1, 54, 118
3, 56640, Note_on_c, 1, 50, 118
3, 56640, Note_on_c, 1, 49, 118
3, 56704, Note_off_c, 1, 54, 75
3, 56704, Note_off_c, 1, 50, 75
3, 56704, Note_off_c, 1, 49, 75
3, 56736, Note_on_c, 1, 54, 118
3, 56736, Note_on_c, 1, 50, 118
3, 56800, Note_off_c, 1, 54, 75
3, 56800, Note_off_c, 1, 50, 75
3, 56832, Note_on_c, 1, 50, 118
3, 56832, Note_on_c, 1, 54, 118
3, 56960, Note_off_c, 1, 50, 75
3, 56960, Note_off_c, 1, 54, 75
3, 57024, Note_on_c, 1, 54, 118
3, 57024, Note_on_c, 1, 57, 118
3, 57152, Note_off_c, 1, 54, 75
3, 57152, Note_off_c, 1, 57, 75
3, 57216, Note_on_c, 1, 52, 118
3, 57216, Note_on_c, 1, 55, 118
3, 57216, Note_on_c, 1, 57, 118
3, 57344, Note_off_c, 1, 52, 75
3, 57344, Note_off_c, 1, 55, 75
3, 57344, Note_off_c, 1, 57, 75
3, 57408, Note_on_c, 1, 50, 118
3, 57408, Note_on_c, 1, 54, 118
3, 57408, Note_on_c, 1, 57, 118
3, 57536, Note_off_c, 1, 50, 75
3, 57536, Note_off_c, 1, 54, 75
3, 57536, Note_off_c, 1, 57, 75
3, 57600, Note_on_c, 1, 45, 118
3, 57728, Note_off_c, 1, 45, 75
3, 57792, Note_on_c, 1, 49, 118
3, 57792, Note_on_c, 1, 52, 118
3, 57792, Note_on_c, 1, 57, 118
3, 57856, Note_off_c, 1, 49, 75
3, 57856, Note_off_c, 1, 52, 75
3, 57856, Note_off_c, 1, 57, 75
3, 57888, Note_on_c, 1, 49, 118
3, 57888, Note_on_c, 1, 52, 118
3, 57888, Note_on_c, 1, 57, 118
3, 57952, Note_off_c, 1, 49, 75
3, 57952, Note_off_c, 1, 52, 75
3, 57952, Note_off_c, 1, 57, 75
3, 57984, Note_on_c, 1, 49, 118
3, 57984, Note_on_c, 1, 52, 118
3, 57984, Note_on_c, 1, 57, 118
3, 58112, Note_off_c, 1, 49, 75
3, 58112, Note_off_c, 1, 52, 75
3, 58112, Note_off_c, 1, 57, 75
3, 58176, Note_on_c, 1, 49, 118
3, 58176, Note_on_c, 1, 52, 118
3, 58176, Note_on_c, 1, 57, 118
3, 58304, Note_off_c, 1, 49, 75
3, 58304, Note_off_c, 1, 52, 75
3, 58304, Note_off_c, 1, 57, 75
3, 58368, Note_on_c, 1, 57, 118
3, 58368, Note_on_c, 1, 47, 118
3, 58368, Note_on_c, 1, 50, 118
3, 58496, Note_off_c, 1, 57, 75
3, 58496, Note_off_c, 1, 47, 75
3, 58496, Note_off_c, 1, 50, 75
3, 58560, Note_on_c, 1, 50, 118
3, 58560, Note_on_c, 1, 47, 118
3, 58560, Note_on_c, 1, 57, 118
3, 58688, Note_off_c, 1, 50, 75
3, 58688, Note_off_c, 1, 47, 75
3, 58688, Note_off_c, 1, 57, 75
3, 58752, Note_on_c, 1, 33, 118
3, 58752, Note_on_c, 1, 45, 118
3, 58752, Note_on_c, 1, 57, 118
3, 58880, Note_off_c, 1, 33, 75
3, 58880, Note_off_c, 1, 45, 75
3, 58880, Note_off_c, 1, 57, 75
3, 58944, Note_on_c, 1, 45, 118
3, 58944, Note_on_c, 1, 49, 118
3, 59008, Note_off_c, 1, 45, 75
3, 59008, Note_off_c, 1, 49, 75
3, 59040, Note_on_c, 1, 45, 118
3, 59040, Note_on_c, 1, 49, 118
3, 59040, Note_on_c, 1, 52, 118
3, 59104, Note_off_c, 1, 45, 75
3, 59104, Note_off_c, 1, 49, 75
3, 59104, Note_off_c, 1, 52, 75
3, 59136, Note_on_c, 1, 57, 118
3, 59136, Note_on_c, 1, 49, 118
3, 59136, Note_on_c, 1, 45, 118
3, 59264, Note_off_c, 1, 49, 75
3, 59264, Note_off_c, 1, 45, 75
3, 59328, Note_on_c, 1, 49, 118
3, 59328, Note_on_c, 1, 52, 118
3, 59456, Note_off_c, 1, 49, 75
3, 59456, Note_off_c, 1, 52, 75
3, 59520, Note_on_c, 1, 47, 118
3, 59520, Note_on_c, 1, 50, 118
3, 59520, Note_on_c, 1, 52, 118
3, 59648, Note_off_c, 1, 57, 75
3, 59648, Note_off_c, 1, 47, 75
3, 59648, Note_off_c, 1, 50, 75
3, 59648, Note_off_c, 1, 52, 75
3, 59712, Note_on_c, 1, 45, 118
3, 59712, Note_on_c, 1, 49, 118
3, 59712, Note_on_c, 1, 52, 118
3, 59840, Note_off_c, 1, 45, 75
3, 59840, Note_off_c, 1, 49, 75
3, 59840, Note_off_c, 1, 52, 75
3, 59904, Note_on_c, 1, 31, 118
3, 59904, Note_on_c, 1, 43, 118
3, 59904, Note_on_c, 1, 59, 118
3, 60000, Note_on_c, 1, 55, 118
3, 60000, Note_on_c, 1, 43, 118
3, 60032, Note_off_c, 1, 31, 75
3, 60032, Note_off_c, 1, 43, 75
3, 60032, Note_off_c, 1, 59, 75
3, 60064, Note_off_c, 1, 55, 75
3, 60064, Note_off_c, 1, 43, 75
3, 60096, Note_on_c, 1, 55, 118
3, 60096, Note_on_c, 1, 43, 118
3, 60160, Note_off_c, 1, 55, 75
3, 60160, Note_off_c, 1, 43, 75
3, 60192, Note_on_c, 1, 43, 118
3, 60192, Note_on_c, 1, 55, 118
3, 60256, Note_off_c, 1, 43, 75
3, 60256, Note_off_c, 1, 55, 75
3, 60288, Note_on_c, 1, 43, 118
3, 60288, Note_on_c, 1, 55, 118
3, 60416, Note_off_c, 1, 43, 75
3, 60416, Note_off_c, 1, 55, 75
3, 60480, Note_on_c, 1, 42, 118
3, 60480, Note_on_c, 1, 54, 118
3, 60608, Note_off_c, 1, 42, 75
3, 60608, Note_off_c, 1, 54, 75
3, 60672, Note_on_c, 1, 35, 118
3, 60672, Note_on_c, 1, 47, 118
3, 60800, Note_off_c, 1, 35, 75
3, 60800, Note_off_c, 1, 47, 75
3, 60864, Note_on_c, 1, 45, 118
3, 60864, Note_on_c, 1, 33, 118
3, 60992, Note_off_c, 1, 45, 75
3, 60992, Note_off_c, 1, 33, 75
3, 61056, Note_on_c, 1, 26, 118
3, 61056, Note_on_c, 1, 38, 118
3, 61152, Note_on_c, 1, 50, 118
3, 61152, Note_on_c, 1, 62, 118
3, 61184, Note_off_c, 1, 26, 75
3, 61184, Note_off_c, 1, 38, 75
3, 61216, Note_off_c, 1, 50, 75
3, 61216, Note_off_c, 1, 62, 75
3, 61248, Note_on_c, 1, 50, 118
3, 61248, Note_on_c, 1, 62, 118
3, 61376, Note_off_c, 1, 50, 75
3, 61376, Note_off_c, 1, 62, 75
3, 61440, Note_on_c, 1, 50, 118
3, 61440, Note_on_c, 1, 62, 118
3, 61568, Note_off_c, 1, 50, 75
3, 61568, Note_off_c, 1, 62, 75
3, 61632, Note_on_c, 1, 49, 118
3, 61632, Note_on_c, 1, 61, 118
3, 61760, Note_off_c, 1, 49, 75
3, 61760, Note_off_c, 1, 61, 75
3, 61824, Note_on_c, 1, 42, 118
3, 61824, Note_on_c, 1, 54, 118
3, 61952, Note_off_c, 1, 42, 75
3, 61952, Note_off_c, 1, 54, 75
3, 62016, Note_on_c, 1, 52, 118
3, 62016, Note_on_c, 1, 40, 118
3, 62144, Note_off_c, 1, 52, 75
3, 62144, Note_off_c, 1, 40, 75
3, 62208, Note_on_c, 1, 33, 118
3, 62208, Note_on_c, 1, 45, 118
3, 62336, Note_off_c, 1, 33, 75
3, 62336, Note_off_c, 1, 45, 75
3, 63552, Note_on_c, 1, 33, 118
3, 63552, Note_on_c, 1, 45, 118
3, 63616, Note_off_c, 1, 33, 75
3, 63616, Note_off_c, 1, 45, 75
3, 63648, Note_on_c, 1, 33, 118
3, 63648, Note_on_c, 1, 45, 118
3, 63712, Note_off_c, 1, 33, 75
3, 63712, Note_off_c, 1, 45, 75
3, 63744, Note_on_c, 1, 33, 118
3, 63744, Note_on_c, 1, 45, 118
3, 63872, Note_off_c, 1, 33, 75
3, 63872, Note_off_c, 1, 45, 75
3, 63936, Note_on_c, 1, 46, 118
3, 63936, Note_on_c, 1, 34, 118
3, 64000, Note_off_c, 1, 46, 75
3, 64000, Note_off_c, 1, 34, 75
3, 64032, Note_on_c, 1, 33, 118
3, 64032, Note_on_c, 1, 45, 118
3, 64096, Note_off_c, 1, 33, 75
3, 64096, Note_off_c, 1, 45, 75
3, 64128, Note_on_c, 1, 32, 118
3, 64128, Note_on_c, 1, 44, 118
3, 64192, Note_off_c, 1, 32, 75
3, 64192, Note_off_c, 1, 44, 75
3, 64224, Note_on_c, 1, 31, 118
3, 64224, Note_on_c, 1, 43, 118
3, 64288, Note_off_c, 1, 31, 75
3, 64288, Note_off_c, 1, 43, 75
3, 64320, Note_on_c, 1, 30, 118
3, 64320, Note_on_c, 1, 42, 118
3, 64384, Note_off_c, 1, 30, 75
3, 64384, Note_off_c, 1, 42, 75
3, 64416, Note_on_c, 1, 28, 118
3, 64416, Note_on_c, 1, 40, 118
3, 64480, Note_off_c, 1, 28, 75
3, 64480, Note_off_c, 1, 40, 75
3, 64512, Note_on_c, 1, 26, 118
3, 64512, Note_on_c, 1, 38, 118
3, 64640, Note_off_c, 1, 26, 75
3, 64640, Note_off_c, 1, 38, 75
3, 64704, Note_on_c, 1, 54, 118
3, 64704, Note_on_c, 1, 57, 118
3, 64704, Note_on_c, 1, 62, 118
3, 64768, Note_off_c, 1, 54, 75
3, 64768, Note_off_c, 1, 57, 75
3, 64768, Note_off_c, 1, 62, 75
3, 64800, Note_on_c, 1, 54, 118
3, 64800, Note_on_c, 1, 57, 118
3, 64800, Note_on_c, 1, 62, 118
3, 64864, Note_off_c, 1, 54, 75
3, 64864, Note_off_c, 1, 57, 75
3, 64864, Note_off_c, 1, 62, 75
3, 64896, Note_on_c, 1, 54, 118
3, 64896, Note_on_c, 1, 57, 118
3, 64896, Note_on_c, 1, 62, 118
3, 65024, Note_off_c, 1, 54, 75
3, 65024, Note_off_c, 1, 57, 75
3, 65024, Note_off_c, 1, 62, 75
3, 65088, Note_on_c, 1, 54, 118
3, 65088, Note_on_c, 1, 57, 118
3, 65088, Note_on_c, 1, 62, 118
3, 65216, Note_off_c, 1, 54, 75
3, 65216, Note_off_c, 1, 57, 75
3, 65216, Note_off_c, 1, 62, 75
3, 65280, Note_on_c, 1, 55, 118
3, 65280, Note_on_c, 1, 57, 118
3, 65280, Note_on_c, 1, 61, 118
3, 65408, Note_off_c, 1, 55, 75
3, 65408, Note_off_c, 1, 57, 75
3, 65408, Note_off_c, 1, 61, 75
3, 65472, Note_on_c, 1, 55, 118
3, 65472, Note_on_c, 1, 57, 118
3, 65472, Note_on_c, 1, 61, 118
3, 65600, Note_off_c, 1, 55, 75
3, 65600, Note_off_c, 1, 57, 75
3, 65600, Note_off_c, 1, 61, 75
3, 65664, Note_on_c, 1, 38, 118
3, 65664, Note_on_c, 1, 50, 118
3, 65792, Note_off_c, 1, 38, 75
3, 65792, Note_off_c, 1, 50, 75
3, 65856, Note_on_c, 1, 50, 118
3, 65856, Note_on_c, 1, 54, 118
3, 65856, Note_on_c, 1, 62, 118
3, 65920, Note_off_c, 1, 50, 75
3, 65920, Note_off_c, 1, 54, 75
3, 65920, Note_off_c, 1, 62, 75
3, 65952, Note_on_c, 1, 50, 118
3, 65952, Note_on_c, 1, 54, 118
3, 65952, Note_on_c, 1, 62, 118
3, 66016, Note_off_c, 1, 50, 75
3, 66016, Note_off_c, 1, 54, 75
3, 66016, Note_off_c, 1, 62, 75
3, 66048, Note_on_c, 1, 50, 118
3, 66048, Note_on_c, 1, 54, 118
3, 66048, Note_on_c, 1, 62, 118
3, 66176, Note_off_c, 1, 50, 75
3, 66176, Note_off_c, 1, 54, 75
3, 66176, Note_off_c, 1, 62, 75
3, 66240, Note_on_c, 1, 62, 118
3, 66240, Note_on_c, 1, 57, 118
3, 66240, Note_on_c, 1, 54, 118
3, 66368, Note_off_c, 1, 62, 75
3, 66368, Note_off_c, 1, 57, 75
3, 66368, Note_off_c, 1, 54, 75
3, 66432, Note_on_c, 1, 62, 118
3, 66432, Note_on_c, 1, 55, 118
3, 66432, Note_on_c, 1, 52, 118
3, 66560, Note_off_c, 1, 62, 75
3, 66560, Note_off_c, 1, 55, 75
3, 66560, Note_off_c, 1, 52, 75
3, 66624, Note_on_c, 1, 50, 118
3, 66624, Note_on_c, 1, 54, 118
3, 66624, Note_on_c, 1, 62, 118
3, 66752, Note_off_c, 1, 50, 75
3, 66752, Note_off_c, 1, 54, 75
3, 66752, Note_off_c, 1, 62, 75
3, 66816, Note_on_c, 1, 45, 118
3, 66816, Note_on_c, 1, 33, 118
3, 66944, Note_off_c, 1, 45, 75
3, 66944, Note_off_c, 1, 33, 75
3, 67008, Note_on_c, 1, 49, 118
3, 67008, Note_on_c, 1, 52, 118
3, 67008, Note_on_c, 1, 57, 118
3, 67072, Note_off_c, 1, 49, 75
3, 67072, Note_off_c, 1, 52, 75
3, 67072, Note_off_c, 1, 57, 75
3, 67104, Note_on_c, 1, 49, 118
3, 67104, Note_on_c, 1, 52, 118
3, 67104, Note_on_c, 1, 57, 118
3, 67168, Note_off_c, 1, 49, 75
3, 67168, Note_off_c, 1, 52, 75
3, 67168, Note_off_c, 1, 57, 75
3, 67200, Note_on_c, 1, 49, 118
3, 67200, Note_on_c, 1, 52, 118
3, 67200, Note_on_c, 1, 57, 118
3, 67328, Note_off_c, 1, 49, 75
3, 67328, Note_off_c, 1, 52, 75
3, 67328, Note_off_c, 1, 57, 75
3, 67392, Note_on_c, 1, 49, 118
3, 67392, Note_on_c, 1, 52, 118
3, 67392, Note_on_c, 1, 57, 118
3, 67520, Note_off_c, 1, 49, 75
3, 67520, Note_off_c, 1, 52, 75
3, 67520, Note_off_c, 1, 57, 75
3, 67584, Note_on_c, 1, 57, 118
3, 67584, Note_on_c, 1, 47, 118
3, 67584, Note_on_c, 1, 50, 118
3, 67712, Note_off_c, 1, 57, 75
3, 67712, Note_off_c, 1, 47, 75
3, 67712, Note_off_c, 1, 50, 75
3, 67776, Note_on_c, 1, 57, 118
3, 67776, Note_on_c, 1, 47, 118
3, 67776, Note_on_c, 1, 50, 118
3, 67904, Note_off_c, 1, 57, 75
3, 67904, Note_off_c, 1, 47, 75
3, 67904, Note_off_c, 1, 50, 75
3, 67968, Note_on_c, 1, 33, 118
3, 67968, Note_on_c, 1, 45, 118
3, 68096, Note_off_c, 1, 33, 75
3, 68096, Note_off_c, 1, 45, 75
3, 68160, Note_on_c, 1, 49, 118
3, 68160, Note_on_c, 1, 52, 118
3, 68160, Note_on_c, 1, 57, 118
3, 68224, Note_off_c, 1, 49, 75
3, 68224, Note_off_c, 1, 52, 75
3, 68224, Note_off_c, 1, 57, 75
3, 68256, Note_on_c, 1, 49, 118
3, 68256, Note_on_c, 1, 52, 118
3, 68256, Note_on_c, 1, 57, 118
3, 68320, Note_off_c, 1, 49, 75
3, 68320, Note_off_c, 1, 52, 75
3, 68320, Note_off_c, 1, 57, 75
3, 68352, Note_on_c, 1, 49, 118
3, 68352, Note_on_c, 1, 52, 118
3, 68352, Note_on_c, 1, 57, 118
3, 68480, Note_off_c, 1, 49, 75
3, 68480, Note_off_c, 1, 52, 75
3, 68480, Note_off_c, 1, 57, 75
3, 68544, Note_on_c, 1, 49, 118
3, 68544, Note_on_c, 1, 52, 118
3, 68544, Note_on_c, 1, 57, 118
3, 68672, Note_off_c, 1, 49, 75
3, 68672, Note_off_c, 1, 52, 75
3, 68672, Note_off_c, 1, 57, 75
3, 68736, Note_on_c, 1, 47, 118
3, 68736, Note_on_c, 1, 50, 118
3, 68736, Note_on_c, 1, 57, 118
3, 68864, Note_off_c, 1, 47, 75
3, 68864, Note_off_c, 1, 50, 75
3, 68864, Note_off_c, 1, 57, 75
3, 68928, Note_on_c, 1, 45, 118
3, 68928, Note_on_c, 1, 49, 118
3, 68928, Note_on_c, 1, 57, 118
3, 69056, Note_off_c, 1, 45, 75
3, 69056, Note_off_c, 1, 49, 75
3, 69056, Note_off_c, 1, 57, 75
3, 69120, Note_on_c, 1, 29, 118
3, 69120, Note_on_c, 1, 41, 118
3, 69248, Note_off_c, 1, 29, 75
3, 69248, Note_off_c, 1, 41, 75
3, 69312, Note_on_c, 1, 53, 118
3, 69312, Note_on_c, 1, 60, 118
3, 69312, Note_on_c, 1, 63, 118
3, 69312, Note_on_c, 1, 65, 118
3, 69376, Note_off_c, 1, 53, 75
3, 69376, Note_off_c, 1, 60, 75
3, 69376, Note_off_c, 1, 63, 75
3, 69376, Note_off_c, 1, 65, 75
3, 69408, Note_on_c, 1, 53, 118
3, 69408, Note_on_c, 1, 60, 118
3, 69408, Note_on_c, 1, 63, 118
3, 69408, Note_on_c, 1, 65, 118
3, 69472, Note_off_c, 1, 53, 75
3, 69472, Note_off_c, 1, 60, 75
3, 69472, Note_off_c, 1, 63, 75
3, 69472, Note_off_c, 1, 65, 75
3, 69504, Note_on_c, 1, 53, 118
3, 69504, Note_on_c, 1, 60, 118
3, 69504, Note_on_c, 1, 63, 118
3, 69504, Note_on_c, 1, 65, 118
3, 69632, Note_off_c, 1, 53, 75
3, 69632, Note_off_c, 1, 60, 75
3, 69632, Note_off_c, 1, 63, 75
3, 69632, Note_off_c, 1, 65, 75
3, 69696, Note_on_c, 1, 53, 118
3, 69696, Note_on_c, 1, 60, 118
3, 69696, Note_on_c, 1, 63, 118
3, 69696, Note_on_c, 1, 65, 118
3, 69792, Note_on_c, 1, 53, 118
3, 69792, Note_on_c, 1, 60, 118
3, 69792, Note_on_c, 1, 63, 118
3, 69792, Note_on_c, 1, 65, 118
3, 69824, Note_off_c, 1, 53, 75
3, 69824, Note_off_c, 1, 60, 75
3, 69824, Note_off_c, 1, 63, 75
3, 69824, Note_off_c, 1, 65, 75
3, 69856, Note_off_c, 1, 53, 75
3, 69856, Note_off_c, 1, 60, 75
3, 69856, Note_off_c, 1, 63, 75
3, 69856, Note_off_c, 1, 65, 75
3, 69888, Note_on_c, 1, 58, 118
3, 69888, Note_on_c, 1, 62, 118
3, 69888, Note_on_c, 1, 65, 118
3, 70016, Note_off_c, 1, 58, 75
3, 70016, Note_off_c, 1, 62, 75
3, 70016, Note_off_c, 1, 65, 75
3, 70080, Note_on_c, 1, 46, 118
3, 70080, Note_on_c, 1, 34, 118
3, 70208, Note_off_c, 1, 46, 75
3, 70208, Note_off_c, 1, 34, 75
3, 70272, Note_on_c, 1, 31, 118
3, 70272, Note_on_c, 1, 43, 118
3, 70400, Note_off_c, 1, 31, 75
3, 70400, Note_off_c, 1, 43, 75
3, 70464, Note_on_c, 1, 55, 118
3, 70464, Note_on_c, 1, 62, 118
3, 70464, Note_on_c, 1, 65, 118
3, 70464, Note_on_c, 1, 67, 118
3, 70528, Note_off_c, 1, 55, 75
3, 70528, Note_off_c, 1, 62, 75
3, 70528, Note_off_c, 1, 65, 75
3, 70528, Note_off_c, 1, 67, 75
3, 70560, Note_on_c, 1, 55, 118
3, 70560, Note_on_c, 1, 62, 118
3, 70560, Note_on_c, 1, 65, 118
3, 70560, Note_on_c, 1, 67, 118
3, 70624, Note_off_c, 1, 55, 75
3, 70624, Note_off_c, 1, 62, 75
3, 70624, Note_off_c, 1, 65, 75
3, 70624, Note_off_c, 1, 67, 75
3, 70656, Note_on_c, 1, 55, 118
3, 70656, Note_on_c, 1, 62, 118
3, 70656, Note_on_c, 1, 65, 118
3, 70656, Note_on_c, 1, 67, 118
3, 70784, Note_off_c, 1, 55, 75
3, 70784, Note_off_c, 1, 62, 75
3, 70784, Note_off_c, 1, 65, 75
3, 70784, Note_off_c, 1, 67, 75
3, 70848, Note_on_c, 1, 55, 118
3, 70848, Note_on_c, 1, 62, 118
3, 70848, Note_on_c, 1, 65, 118
3, 70848, Note_on_c, 1, 67, 118
3, 70912, Note_off_c, 1, 55, 75
3, 70912, Note_off_c, 1, 62, 75
3, 70912, Note_off_c, 1, 65, 75
3, 70912, Note_off_c, 1, 67, 75
3, 70944, Note_on_c, 1, 55, 118
3, 70944, Note_on_c, 1, 62, 118
3, 70944, Note_on_c, 1, 65, 118
3, 70944, Note_on_c, 1, 67, 118
3, 71008, Note_off_c, 1, 55, 75
3, 71008, Note_off_c, 1, 62, 75
3, 71008, Note_off_c, 1, 65, 75
3, 71008, Note_off_c, 1, 67, 75
3, 71040, Note_on_c, 1, 60, 118
3, 71040, Note_on_c, 1, 64, 118
3, 71040, Note_on_c, 1, 67, 118
3, 71168, Note_off_c, 1, 60, 75
3, 71168, Note_off_c, 1, 64, 75
3, 71168, Note_off_c, 1, 67, 75
3, 71232, Note_on_c, 1, 48, 118
3, 71232, Note_on_c, 1, 36, 118
3, 71360, Note_off_c, 1, 48, 75
3, 71360, Note_off_c, 1, 36, 75
3, 71424, Note_on_c, 1, 45, 118
3, 71424, Note_on_c, 1, 33, 118
3, 71552, Note_off_c, 1, 45, 75
3, 71552, Note_off_c, 1, 33, 75
3, 72576, Note_on_c, 1, 69, 118
3, 72576, Note_on_c, 1, 67, 118
3, 72576, Note_on_c, 1, 64, 118
3, 72576, Note_on_c, 1, 61, 118
3, 72576, Note_on_c, 1, 57, 118
3, 72704, Note_off_c, 1, 69, 75
3, 72704, Note_off_c, 1, 67, 75
3, 72704, Note_off_c, 1, 64, 75
3, 72704, Note_off_c, 1, 61, 75
3, 72704, Note_off_c, 1, 57, 75
3, 72768, Note_on_c, 1, 69, 118
3, 72768, Note_on_c, 1, 67, 118
3, 72768, Note_on_c, 1, 64, 118
3, 72768, Note_on_c, 1, 57, 118
3, 72896, Note_off_c, 1, 69, 75
3, 72896, Note_off_c, 1, 67, 75
3, 72896, Note_off_c, 1, 64, 75
3, 72896, Note_off_c, 1, 57, 75
3, 72960, Note_on_c, 1, 67, 118
3, 72960, Note_on_c, 1, 69, 118
3, 72960, Note_on_c, 1, 61, 118
3, 72960, Note_on_c, 1, 57, 118
3, 73216, Note_off_c, 1, 67, 75
3, 73216, Note_off_c, 1, 69, 75
3, 73216, Note_off_c, 1, 61, 75
3, 73216, Note_off_c, 1, 57, 75
3, 73344, Note_on_c, 1, 69, 118
3, 73344, Note_on_c, 1, 66, 118
3, 73344, Note_on_c, 1, 62, 118
3, 73472, Note_off_c, 1, 69, 75
3, 73472, Note_off_c, 1, 66, 75
3, 73472, Note_off_c, 1, 62, 75
3, 73632, Note_on_c, 1, 62, 118
3, 73728, Note_on_c, 1, 26, 118
3, 73728, Note_on_c, 1, 38, 118
3, 73760, Note_off_c, 1, 50, 75
3, 73856, Note_off_c, 1, 26, 75
3, 73856, Note_off_c, 1, 38, 75
3, 73920, Note_on_c, 1, 54, 118
3, 73920, Note_on_c, 1, 57, 118
3, 73920, Note_on_c, 1, 62, 118
3, 73984, Note_off_c, 1, 54, 75
3, 73984, Note_off_c, 1, 57, 75
3, 73984, Note_off_c, 1, 62, 75
3, 74016, Note_on_c, 1, 54, 118
3, 74016, Note_on_c, 1, 57, 118
3, 74016, Note_on_c, 1, 62, 118
3, 74080, Note_off_c, 1, 54, 75
3, 74080, Note_off_c, 1, 57, 75
3, 74080, Note_off_c, 1, 62, 75
3, 74112, Note_on_c, 1, 54, 118
3, 74112, Note_on_c, 1, 57, 118
3, 74112, Note_on_c, 1, 62, 118
3, 74240, Note_off_c, 1, 54, 75
3, 74240, Note_off_c, 1, 57, 75
3, 74240, Note_off_c, 1, 62, 75
3, 74304, Note_on_c, 1, 54, 118
3, 74304, Note_on_c, 1, 57, 118
3, 74304, Note_on_c, 1, 62, 118
3, 74432, Note_off_c, 1, 54, 75
3, 74432, Note_off_c, 1, 57, 75
3, 74432, Note_off_c, 1, 62, 75
3, 74496, Note_on_c, 1, 55, 118
3, 74496, Note_on_c, 1, 57, 118
3, 74496, Note_on_c, 1, 61, 118
3, 74624, Note_off_c, 1, 55, 75
3, 74624, Note_off_c, 1, 57, 75
3, 74624, Note_off_c, 1, 61, 75
3, 74688, Note_on_c, 1, 55, 118
3, 74688, Note_on_c, 1, 57, 118
3, 74688, Note_on_c, 1, 61, 118
3, 74816, Note_off_c, 1, 55, 75
3, 74816, Note_off_c, 1, 57, 75
3, 74816, Note_off_c, 1, 61, 75
3, 74880, Note_on_c, 1, 26, 118
3, 74880, Note_on_c, 1, 38, 118
3, 75008, Note_off_c, 1, 26, 75
3, 75008, Note_off_c, 1, 38, 75
3, 75072, Note_on_c, 1, 54, 118
3, 75072, Note_on_c, 1, 50, 118
3, 75136, Note_off_c, 1, 54, 75
3, 75136, Note_off_c, 1, 50, 75
3, 75168, Note_on_c, 1, 54, 118
3, 75168, Note_on_c, 1, 50, 118
3, 75232, Note_off_c, 1, 54, 75
3, 75232, Note_off_c, 1, 50, 75
3, 75264, Note_on_c, 1, 54, 118
3, 75264, Note_on_c, 1, 50, 118
3, 75392, Note_off_c, 1, 54, 75
3, 75392, Note_off_c, 1, 50, 75
3, 75456, Note_on_c, 1, 54, 118
3, 75456, Note_on_c, 1, 57, 118
3, 75584, Note_off_c, 1, 54, 75
3, 75584, Note_off_c, 1, 57, 75
3, 75648, Note_on_c, 1, 52, 118
3, 75648, Note_on_c, 1, 55, 118
3, 75648, Note_on_c, 1, 57, 118
3, 75776, Note_off_c, 1, 52, 75
3, 75776, Note_off_c, 1, 55, 75
3, 75776, Note_off_c, 1, 57, 75
3, 75840, Note_on_c, 1, 50, 118
3, 75840, Note_on_c, 1, 54, 118
3, 75840, Note_on_c, 1, 57, 118
3, 75968, Note_off_c, 1, 50, 75
3, 75968, Note_off_c, 1, 54, 75
3, 75968, Note_off_c, 1, 57, 75
3, 76032, Note_on_c, 1, 33, 118
3, 76032, Note_on_c, 1, 45, 118
3, 76160, Note_off_c, 1, 33, 75
3, 76160, Note_off_c, 1, 45, 75
3, 76224, Note_on_c, 1, 49, 118
3, 76224, Note_on_c, 1, 52, 118
3, 76224, Note_on_c, 1, 57, 118
3, 76288, Note_off_c, 1, 49, 75
3, 76288, Note_off_c, 1, 52, 75
3, 76288, Note_off_c, 1, 57, 75
3, 76320, Note_on_c, 1, 49, 118
3, 76320, Note_on_c, 1, 52, 118
3, 76320, Note_on_c, 1, 57, 118
3, 76384, Note_off_c, 1, 49, 75
3, 76384, Note_off_c, 1, 52, 75
3, 76384, Note_off_c, 1, 57, 75
3, 76416, Note_on_c, 1, 49, 118
3, 76416, Note_on_c, 1, 52, 118
3, 76416, Note_on_c, 1, 57, 118
3, 76544, Note_off_c, 1, 49, 75
3, 76544, Note_off_c, 1, 52, 75
3, 76544, Note_off_c, 1, 57, 75
3, 76608, Note_on_c, 1, 49, 118
3, 76608, Note_on_c, 1, 52, 118
3, 76608, Note_on_c, 1, 57, 118
3, 76736, Note_off_c, 1, 49, 75
3, 76736, Note_off_c, 1, 52, 75
3, 76736, Note_off_c, 1, 57, 75
3, 76800, Note_on_c, 1, 47, 118
3, 76800, Note_on_c, 1, 50, 118
3, 76800, Note_on_c, 1, 57, 118
3, 76928, Note_off_c, 1, 47, 75
3, 76928, Note_off_c, 1, 50, 75
3, 76928, Note_off_c, 1, 57, 75
3, 76992, Note_on_c, 1, 47, 118
3, 76992, Note_on_c, 1, 50, 118
3, 76992, Note_on_c, 1, 57, 118
3, 77120, Note_off_c, 1, 47, 75
3, 77120, Note_off_c, 1, 50, 75
3, 77120, Note_off_c, 1, 57, 75
3, 77184, Note_on_c, 1, 33, 118
3, 77184, Note_on_c, 1, 45, 118
3, 77184, Note_on_c, 1, 57, 118
3, 77312, Note_off_c, 1, 33, 75
3, 77312, Note_off_c, 1, 45, 75
3, 77312, Note_off_c, 1, 57, 75
3, 77376, Note_on_c, 1, 45, 118
3, 77376, Note_on_c, 1, 49, 118
3, 77440, Note_off_c, 1, 45, 75
3, 77440, Note_off_c, 1, 49, 75
3, 77472, Note_on_c, 1, 52, 118
3, 77472, Note_on_c, 1, 49, 118
3, 77472, Note_on_c, 1, 45, 118
3, 77536, Note_off_c, 1, 52, 75
3, 77536, Note_off_c, 1, 49, 75
3, 77536, Note_off_c, 1, 45, 75
3, 77568, Note_on_c, 1, 57, 118
3, 77568, Note_on_c, 1, 49, 118
3, 77568, Note_on_c, 1, 45, 118
3, 77696, Note_off_c, 1, 49, 75
3, 77696, Note_off_c, 1, 45, 75
3, 77760, Note_on_c, 1, 49, 118
3, 77760, Note_on_c, 1, 52, 118
3, 77888, Note_off_c, 1, 49, 75
3, 77888, Note_off_c, 1, 52, 75
3, 77952, Note_on_c, 1, 47, 118
3, 77952, Note_on_c, 1, 50, 118
3, 77952, Note_on_c, 1, 52, 118
3, 78080, Note_off_c, 1, 57, 75
3, 78080, Note_off_c, 1, 47, 75
3, 78080, Note_off_c, 1, 50, 75
3, 78080, Note_off_c, 1, 52, 75
3, 78144, Note_on_c, 1, 45, 118
3, 78144, Note_on_c, 1, 49, 118
3, 78144, Note_on_c, 1, 52, 118
3, 78272, Note_off_c, 1, 45, 75
3, 78272, Note_off_c, 1, 49, 75
3, 78272, Note_off_c, 1, 52, 75
3, 78336, Note_on_c, 1, 31, 118
3, 78336, Note_on_c, 1, 43, 118
3, 78336, Note_on_c, 1, 59, 118
3, 78464, Note_off_c, 1, 31, 75
3, 78464, Note_off_c, 1, 43, 75
3, 78464, Note_off_c, 1, 59, 75
3, 78528, Note_on_c, 1, 43, 118
3, 78528, Note_on_c, 1, 55, 118
3, 78592, Note_off_c, 1, 43, 75
3, 78592, Note_off_c, 1, 55, 75
3, 78624, Note_on_c, 1, 43, 118
3, 78624, Note_on_c, 1, 55, 118
3, 78688, Note_off_c, 1, 43, 75
3, 78688, Note_off_c, 1, 55, 75
3, 78720, Note_on_c, 1, 43, 118
3, 78720, Note_on_c, 1, 55, 118
3, 78848, Note_off_c, 1, 43, 75
3, 78848, Note_off_c, 1, 55, 75
3, 78912, Note_on_c, 1, 42, 118
3, 78912, Note_on_c, 1, 54, 118
3, 79040, Note_off_c, 1, 42, 75
3, 79040, Note_off_c, 1, 54, 75
3, 79104, Note_on_c, 1, 35, 118
3, 79104, Note_on_c, 1, 47, 118
3, 79232, Note_off_c, 1, 35, 75
3, 79232, Note_off_c, 1, 47, 75
3, 79296, Note_on_c, 1, 33, 118
3, 79296, Note_on_c, 1, 45, 118
3, 79424, Note_off_c, 1, 33, 75
3, 79424, Note_off_c, 1, 45, 75
3, 79488, Note_on_c, 1, 26, 118
3, 79488, Note_on_c, 1, 38, 118
3, 79616, Note_off_c, 1, 26, 75
3, 79616, Note_off_c, 1, 38, 75
3, 79680, Note_on_c, 1, 50, 118
3, 79680, Note_on_c, 1, 62, 118
3, 79744, Note_off_c, 1, 50, 75
3, 79744, Note_off_c, 1, 62, 75
3, 79776, Note_on_c, 1, 50, 118
3, 79776, Note_on_c, 1, 62, 118
3, 79840, Note_off_c, 1, 50, 75
3, 79840, Note_off_c, 1, 62, 75
3, 79872, Note_on_c, 1, 50, 118
3, 79872, Note_on_c, 1, 62, 118
3, 80000, Note_off_c, 1, 50, 75
3, 80000, Note_off_c, 1, 62, 75
3, 80064, Note_on_c, 1, 49, 118
3, 80064, Note_on_c, 1, 61, 118
3, 80192, Note_off_c, 1, 49, 75
3, 80192, Note_off_c, 1, 61, 75
3, 80256, Note_on_c, 1, 42, 118
3, 80256, Note_on_c, 1, 54, 118
3, 80384, Note_off_c, 1, 42, 75
3, 80384, Note_off_c, 1, 54, 75
3, 80448, Note_on_c, 1, 40, 118
3, 80448, Note_on_c, 1, 52, 118
3, 80576, Note_off_c, 1, 40, 75
3, 80576, Note_off_c, 1, 52, 75
3, 80640, Note_on_c, 1, 33, 118
3, 80640, Note_on_c, 1, 33, 118
3, 80640, Note_on_c, 1, 45, 118
3, 80768, Note_off_c, 1, 33, 75
3, 80768, Note_off_c, 1, 33, 75
3, 80768, Note_off_c, 1, 45, 75
3, 81984, Note_on_c, 1, 33, 118
3, 81984, Note_on_c, 1, 45, 118
3, 82048, Note_off_c, 1, 33, 75
3, 82048, Note_off_c, 1, 45, 75
3, 82080, Note_on_c, 1, 33, 118
3, 82080, Note_on_c, 1, 45, 118
3, 82144, Note_off_c, 1, 33, 75
3, 82144, Note_off_c, 1, 45, 75
3, 82176, Note_on_c, 1, 33, 118
3, 82176, Note_on_c, 1, 45, 118
3, 82304, Note_off_c, 1, 33, 75
3, 82304, Note_off_c, 1, 45, 75
3, 82368, Note_on_c, 1, 34, 118
3, 82368, Note_on_c, 1, 46, 118
3, 82432, Note_off_c, 1, 34, 75
3, 82432, Note_off_c, 1, 46, 75
3, 82464, Note_on_c, 1, 33, 118
3, 82464, Note_on_c, 1, 45, 118
3, 82528, Note_off_c, 1, 33, 75
3, 82528, Note_off_c, 1, 45, 75
3, 82560, Note_on_c, 1, 32, 118
3, 82560, Note_on_c, 1, 44, 118
3, 82624, Note_off_c, 1, 32, 75
3, 82624, Note_off_c, 1, 44, 75
3, 82656, Note_on_c, 1, 31, 118
3, 82656, Note_on_c, 1, 43, 118
3, 82720, Note_off_c, 1, 31, 75
3, 82720, Note_off_c, 1, 43, 75
3, 82752, Note_on_c, 1, 30, 118
3, 82752, Note_on_c, 1, 42, 118
3, 82816, Note_off_c, 1, 30, 75
3, 82816, Note_off_c, 1, 42, 75
3, 82848, Note_on_c, 1, 28, 118
3, 82848, Note_on_c, 1, 40, 118
3, 82912, Note_off_c, 1, 28, 75
3, 82912, Note_off_c, 1, 40, 75
3, 82944, Note_on_c, 1, 26, 118
3, 82944, Note_on_c, 1, 38, 118
3, 83072, Note_off_c, 1, 26, 75
3, 83072, Note_off_c, 1, 38, 75
3, 83136, Note_on_c, 1, 54, 118
3, 83136, Note_on_c, 1, 57, 118
3, 83136, Note_on_c, 1, 62, 118
3, 83200, Note_off_c, 1, 54, 75
3, 83200, Note_off_c, 1, 57, 75
3, 83200, Note_off_c, 1, 62, 75
3, 83232, Note_on_c, 1, 54, 118
3, 83232, Note_on_c, 1, 57, 118
3, 83232, Note_on_c, 1, 62, 118
3, 83296, Note_off_c, 1, 54, 75
3, 83296, Note_off_c, 1, 57, 75
3, 83296, Note_off_c, 1, 62, 75
3, 83328, Note_on_c, 1, 54, 118
3, 83328, Note_on_c, 1, 57, 118
3, 83328, Note_on_c, 1, 62, 118
3, 83456, Note_off_c, 1, 54, 75
3, 83456, Note_off_c, 1, 57, 75
3, 83456, Note_off_c, 1, 62, 75
3, 83520, Note_on_c, 1, 54, 118
3, 83520, Note_on_c, 1, 57, 118
3, 83520, Note_on_c, 1, 62, 118
3, 83648, Note_off_c, 1, 54, 75
3, 83648, Note_off_c, 1, 57, 75
3, 83648, Note_off_c, 1, 62, 75
3, 83712, Note_on_c, 1, 55, 118
3, 83712, Note_on_c, 1, 57, 118
3, 83712, Note_on_c, 1, 61, 118
3, 83840, Note_off_c, 1, 55, 75
3, 83840, Note_off_c, 1, 57, 75
3, 83840, Note_off_c, 1, 61, 75
3, 83904, Note_on_c, 1, 55, 118
3, 83904, Note_on_c, 1, 57, 118
3, 83904, Note_on_c, 1, 61, 118
3, 84032, Note_off_c, 1, 55, 75
3, 84032, Note_off_c, 1, 57, 75
3, 84032, Note_off_c, 1, 61, 75
3, 84096, Note_on_c, 1, 38, 118
3, 84096, Note_on_c, 1, 50, 118
3, 84224, Note_off_c, 1, 38, 75
3, 84224, Note_off_c, 1, 50, 75
3, 84288, Note_on_c, 1, 50, 118
3, 84288, Note_on_c, 1, 54, 118
3, 84288, Note_on_c, 1, 62, 118
3, 84352, Note_off_c, 1, 50, 75
3, 84352, Note_off_c, 1, 54, 75
3, 84352, Note_off_c, 1, 62, 75
3, 84384, Note_on_c, 1, 50, 118
3, 84384, Note_on_c, 1, 54, 118
3, 84384, Note_on_c, 1, 62, 118
3, 84448, Note_off_c, 1, 50, 75
3, 84448, Note_off_c, 1, 54, 75
3, 84448, Note_off_c, 1, 62, 75
3, 84480, Note_on_c, 1, 50, 118
3, 84480, Note_on_c, 1, 54, 118
3, 84480, Note_on_c, 1, 62, 118
3, 84608, Note_off_c, 1, 50, 75
3, 84608, Note_off_c, 1, 54, 75
3, 84608, Note_off_c, 1, 62, 75
3, 84672, Note_on_c, 1, 54, 118
3, 84672, Note_on_c, 1, 57, 118
3, 84672, Note_on_c, 1, 62, 118
3, 84800, Note_off_c, 1, 54, 75
3, 84800, Note_off_c, 1, 57, 75
3, 84800, Note_off_c, 1, 62, 75
3, 84864, Note_on_c, 1, 52, 118
3, 84864, Note_on_c, 1, 55, 118
3, 84864, Note_on_c, 1, 62, 118
3, 84992, Note_off_c, 1, 52, 75
3, 84992, Note_off_c, 1, 55, 75
3, 84992, Note_off_c, 1, 62, 75
3, 85056, Note_on_c, 1, 50, 118
3, 85056, Note_on_c, 1, 54, 118
3, 85056, Note_on_c, 1, 62, 118
3, 85184, Note_off_c, 1, 50, 75
3, 85184, Note_off_c, 1, 54, 75
3, 85184, Note_off_c, 1, 62, 75
3, 85248, Note_on_c, 1, 33, 118
3, 85248, Note_on_c, 1, 45, 118
3, 85376, Note_off_c, 1, 33, 75
3, 85376, Note_off_c, 1, 45, 75
3, 85440, Note_on_c, 1, 49, 118
3, 85440, Note_on_c, 1, 52, 118
3, 85440, Note_on_c, 1, 57, 118
3, 85504, Note_off_c, 1, 49, 75
3, 85504, Note_off_c, 1, 52, 75
3, 85504, Note_off_c, 1, 57, 75
3, 85536, Note_on_c, 1, 49, 118
3, 85536, Note_on_c, 1, 52, 118
3, 85536, Note_on_c, 1, 57, 118
3, 85600, Note_off_c, 1, 49, 75
3, 85600, Note_off_c, 1, 52, 75
3, 85600, Note_off_c, 1, 57, 75
3, 85632, Note_on_c, 1, 52, 118
3, 85632, Note_on_c, 1, 49, 118
3, 85632, Note_on_c, 1, 57, 118
3, 85760, Note_off_c, 1, 52, 75
3, 85760, Note_off_c, 1, 49, 75
3, 85760, Note_off_c, 1, 57, 75
3, 85824, Note_on_c, 1, 52, 118
3, 85824, Note_on_c, 1, 49, 118
3, 85824, Note_on_c, 1, 57, 118
3, 85952, Note_off_c, 1, 52, 75
3, 85952, Note_off_c, 1, 49, 75
3, 85952, Note_off_c, 1, 57, 75
3, 86016, Note_on_c, 1, 50, 118
3, 86016, Note_on_c, 1, 47, 118
3, 86016, Note_on_c, 1, 57, 118
3, 86144, Note_off_c, 1, 50, 75
3, 86144, Note_off_c, 1, 47, 75
3, 86144, Note_off_c, 1, 57, 75
3, 86208, Note_on_c, 1, 47, 118
3, 86208, Note_on_c, 1, 50, 118
3, 86208, Note_on_c, 1, 57, 118
3, 86336, Note_off_c, 1, 47, 75
3, 86336, Note_off_c, 1, 50, 75
3, 86336, Note_off_c, 1, 57, 75
3, 86400, Note_on_c, 1, 33, 118
3, 86400, Note_on_c, 1, 45, 118
3, 86528, Note_off_c, 1, 33, 75
3, 86528, Note_off_c, 1, 45, 75
3, 86592, Note_on_c, 1, 49, 118
3, 86592, Note_on_c, 1, 52, 118
3, 86592, Note_on_c, 1, 57, 118
3, 86656, Note_off_c, 1, 49, 75
3, 86656, Note_off_c, 1, 52, 75
3, 86656, Note_off_c, 1, 57, 75
3, 86688, Note_on_c, 1, 49, 118
3, 86688, Note_on_c, 1, 52, 118
3, 86688, Note_on_c, 1, 57, 118
3, 86752, Note_off_c, 1, 49, 75
3, 86752, Note_off_c, 1, 52, 75
3, 86752, Note_off_c, 1, 57, 75
3, 86784, Note_on_c, 1, 52, 118
3, 86784, Note_on_c, 1, 49, 118
3, 86784, Note_on_c, 1, 57, 118
3, 86912, Note_off_c, 1, 52, 75
3, 86912, Note_off_c, 1, 49, 75
3, 86912, Note_off_c, 1, 57, 75
3, 86976, Note_on_c, 1, 49, 118
3, 86976, Note_on_c, 1, 52, 118
3, 86976, Note_on_c, 1, 57, 118
3, 87104, Note_off_c, 1, 49, 75
3, 87104, Note_off_c, 1, 52, 75
3, 87104, Note_off_c, 1, 57, 75
3, 87168, Note_on_c, 1, 57, 118
3, 87168, Note_on_c, 1, 47, 118
3, 87168, Note_on_c, 1, 50, 118
3, 87296, Note_off_c, 1, 57, 75
3, 87296, Note_off_c, 1, 47, 75
3, 87296, Note_off_c, 1, 50, 75
3, 87360, Note_on_c, 1, 57, 118
3, 87360, Note_on_c, 1, 45, 118
3, 87360, Note_on_c, 1, 49, 118
3, 87488, Note_off_c, 1, 57, 75
3, 87488, Note_off_c, 1, 45, 75
3, 87488, Note_off_c, 1, 49, 75
3, 87552, Note_on_c, 1, 29, 118
3, 87552, Note_on_c, 1, 41, 118
3, 87680, Note_off_c, 1, 29, 75
3, 87680, Note_off_c, 1, 41, 75
3, 87744, Note_on_c, 1, 53, 118
3, 87744, Note_on_c, 1, 60, 118
3, 87744, Note_on_c, 1, 63, 118
3, 87744, Note_on_c, 1, 65, 118
3, 87808, Note_off_c, 1, 53, 75
3, 87808, Note_off_c, 1, 60, 75
3, 87808, Note_off_c, 1, 63, 75
3, 87808, Note_off_c, 1, 65, 75
3, 87840, Note_on_c, 1, 53, 118
3, 87840, Note_on_c, 1, 60, 118
3, 87840, Note_on_c, 1, 63, 118
3, 87840, Note_on_c, 1, 65, 118
3, 87904, Note_off_c, 1, 53, 75
3, 87904, Note_off_c, 1, 60, 75
3, 87904, Note_off_c, 1, 63, 75
3, 87904, Note_off_c, 1, 65, 75
3, 87936, Note_on_c, 1, 53, 118
3, 87936, Note_on_c, 1, 60, 118
3, 87936, Note_on_c, 1, 63, 118
3, 87936, Note_on_c, 1, 65, 118
3, 88064, Note_off_c, 1, 53, 75
3, 88064, Note_off_c, 1, 60, 75
3, 88064, Note_off_c, 1, 63, 75
3, 88064, Note_off_c, 1, 65, 75
3, 88128, Note_on_c, 1, 53, 118
3, 88128, Note_on_c, 1, 60, 118
3, 88128, Note_on_c, 1, 63, 118
3, 88128, Note_on_c, 1, 65, 118
3, 88192, Note_off_c, 1, 53, 75
3, 88192, Note_off_c, 1, 60, 75
3, 88192, Note_off_c, 1, 63, 75
3, 88192, Note_off_c, 1, 65, 75
3, 88224, Note_on_c, 1, 53, 118
3, 88224, Note_on_c, 1, 60, 118
3, 88224, Note_on_c, 1, 63, 118
3, 88224, Note_on_c, 1, 65, 118
3, 88288, Note_off_c, 1, 53, 75
3, 88288, Note_off_c, 1, 60, 75
3, 88288, Note_off_c, 1, 63, 75
3, 88288, Note_off_c, 1, 65, 75
3, 88320, Note_on_c, 1, 58, 118
3, 88320, Note_on_c, 1, 62, 118
3, 88320, Note_on_c, 1, 65, 118
3, 88448, Note_off_c, 1, 58, 75
3, 88448, Note_off_c, 1, 62, 75
3, 88448, Note_off_c, 1, 65, 75
3, 88512, Note_on_c, 1, 46, 118
3, 88512, Note_on_c, 1, 34, 118
3, 88640, Note_off_c, 1, 46, 75
3, 88640, Note_off_c, 1, 34, 75
3, 88704, Note_on_c, 1, 31, 118
3, 88704, Note_on_c, 1, 43, 118
3, 88832, Note_off_c, 1, 31, 75
3, 88832, Note_off_c, 1, 43, 75
3, 88896, Note_on_c, 1, 55, 118
3, 88896, Note_on_c, 1, 62, 118
3, 88896, Note_on_c, 1, 65, 118
3, 88896, Note_on_c, 1, 67, 118
3, 88960, Note_off_c, 1, 55, 75
3, 88960, Note_off_c, 1, 62, 75
3, 88960, Note_off_c, 1, 65, 75
3, 88960, Note_off_c, 1, 67, 75
3, 88992, Note_on_c, 1, 55, 118
3, 88992, Note_on_c, 1, 62, 118
3, 88992, Note_on_c, 1, 65, 118
3, 88992, Note_on_c, 1, 67, 118
3, 89056, Note_off_c, 1, 55, 75
3, 89056, Note_off_c, 1, 62, 75
3, 89056, Note_off_c, 1, 65, 75
3, 89056, Note_off_c, 1, 67, 75
3, 89088, Note_on_c, 1, 55, 118
3, 89088, Note_on_c, 1, 62, 118
3, 89088, Note_on_c, 1, 65, 118
3, 89088, Note_on_c, 1, 67, 118
3, 89216, Note_off_c, 1, 55, 75
3, 89216, Note_off_c, 1, 62, 75
3, 89216, Note_off_c, 1, 65, 75
3, 89216, Note_off_c, 1, 67, 75
3, 89280, Note_on_c, 1, 55, 118
3, 89280, Note_on_c, 1, 62, 118
3, 89280, Note_on_c, 1, 65, 118
3, 89280, Note_on_c, 1, 67, 118
3, 89344, Note_off_c, 1, 55, 75
3, 89344, Note_off_c, 1, 62, 75
3, 89344, Note_off_c, 1, 65, 75
3, 89344, Note_off_c, 1, 67, 75
3, 89376, Note_on_c, 1, 55, 118
3, 89376, Note_on_c, 1, 62, 118
3, 89376, Note_on_c, 1, 65, 118
3, 89376, Note_on_c, 1, 67, 118
3, 89440, Note_off_c, 1, 55, 75
3, 89440, Note_off_c, 1, 62, 75
3, 89440, Note_off_c, 1, 65, 75
3, 89440, Note_off_c, 1, 67, 75
3, 89472, Note_on_c, 1, 60, 118
3, 89472, Note_on_c, 1, 64, 118
3, 89472, Note_on_c, 1, 67, 118
3, 89600, Note_off_c, 1, 60, 75
3, 89600, Note_off_c, 1, 64, 75
3, 89600, Note_off_c, 1, 67, 75
3, 89664, Note_on_c, 1, 48, 118
3, 89664, Note_on_c, 1, 36, 118
3, 89792, Note_off_c, 1, 48, 75
3, 89792, Note_off_c, 1, 36, 75
3, 89856, Note_on_c, 1, 45, 118
3, 89856, Note_on_c, 1, 33, 118
3, 89984, Note_off_c, 1, 45, 75
3, 89984, Note_off_c, 1, 33, 75
3, 91008, Note_on_c, 1, 67, 118
3, 91008, Note_on_c, 1, 69, 118
3, 91008, Note_on_c, 1, 64, 118
3, 91008, Note_on_c, 1, 61, 118
3, 91008, Note_on_c, 1, 57, 118
3, 91136, Note_off_c, 1, 67, 75
3, 91136, Note_off_c, 1, 69, 75
3, 91136, Note_off_c, 1, 64, 75
3, 91136, Note_off_c, 1, 61, 75
3, 91136, Note_off_c, 1, 57, 75
3, 91200, Note_on_c, 1, 69, 118
3, 91200, Note_on_c, 1, 67, 118
3, 91200, Note_on_c, 1, 64, 118
3, 91200, Note_on_c, 1, 61, 118
3, 91200, Note_on_c, 1, 57, 118
3, 91328, Note_off_c, 1, 69, 75
3, 91328, Note_off_c, 1, 67, 75
3, 91328, Note_off_c, 1, 64, 75
3, 91328, Note_off_c, 1, 61, 75
3, 91328, Note_off_c, 1, 57, 75
3, 91392, Note_on_c, 1, 67, 118
3, 91392, Note_on_c, 1, 69, 118
3, 91392, Note_on_c, 1, 61, 118
3, 91392, Note_on_c, 1, 57, 118
3, 91648, Note_off_c, 1, 67, 75
3, 91648, Note_off_c, 1, 69, 75
3, 91648, Note_off_c, 1, 61, 75
3, 91648, Note_off_c, 1, 57, 75
3, 91776, Note_on_c, 1, 69, 118
3, 91776, Note_on_c, 1, 66, 118
3, 91776, Note_on_c, 1, 62, 118
3, 91904, Note_off_c, 1, 69, 75
3, 91904, Note_off_c, 1, 66, 75
3, 91904, Note_off_c, 1, 62, 75
3, 92160, Note_on_c, 1, 49, 118
3, 92160, Note_on_c, 1, 37, 118
3, 92256, Note_on_c, 1, 50, 118
3, 92256, Note_on_c, 1, 38, 118
3, 92352, Note_on_c, 1, 49, 118
3, 92352, Note_on_c, 1, 37, 118
3, 92448, Note_on_c, 1, 50, 118
3, 92448, Note_on_c, 1, 38, 118
3, 92544, Note_on_c, 1, 49, 118
3, 92544, Note_on_c, 1, 37, 118
3, 92640, Note_on_c, 1, 50, 118
3, 92640, Note_on_c, 1, 38, 118
3, 92672, Note_off_c, 1, 49, 75
3, 92672, Note_off_c, 1, 37, 75
3, 92672, Note_off_c, 1, 49, 75
3, 92736, Note_on_c, 1, 49, 118
3, 92736, Note_on_c, 1, 49, 118
3, 92736, Note_on_c, 1, 37, 118
3, 92768, Note_off_c, 1, 50, 75
3, 92768, Note_off_c, 1, 38, 75
3, 92768, Note_off_c, 1, 50, 75
3, 92864, Note_off_c, 1, 49, 75
3, 92864, Note_off_c, 1, 37, 75
3, 92864, Note_off_c, 1, 49, 75
3, 92864, Note_off_c, 1, 49, 75
3, 92864, Note_off_c, 1, 37, 75
3, 92928, Note_on_c, 1, 36, 118
3, 92928, Note_on_c, 1, 48, 118
3, 92960, Note_off_c, 1, 50, 75
3, 92960, Note_off_c, 1, 38, 75
3, 92992, Note_off_c, 1, 36, 75
3, 92992, Note_off_c, 1, 48, 75
3, 93024, Note_on_c, 1, 37, 118
3, 93024, Note_on_c, 1, 49, 118
3, 93056, Note_off_c, 1, 37, 75
3, 93088, Note_off_c, 1, 37, 75
3, 93088, Note_off_c, 1, 49, 75
3, 93120, Note_on_c, 1, 38, 118
3, 93120, Note_on_c, 1, 50, 118
3, 93152, Note_off_c, 1, 38, 75
3, 93184, Note_off_c, 1, 38, 75
3, 93184, Note_off_c, 1, 50, 75
3, 93216, Note_on_c, 1, 40, 118
3, 93216, Note_on_c, 1, 52, 118
3, 93280, Note_off_c, 1, 40, 75
3, 93280, Note_off_c, 1, 52, 75
3, 93312, Note_on_c, 1, 46, 118
3, 93312, Note_on_c, 1, 34, 118
3, 93440, Note_off_c, 1, 46, 75
3, 93440, Note_off_c, 1, 34, 75
3, 93504, Note_on_c, 1, 50, 118
3, 93504, Note_on_c, 1, 55, 118
3, 93504, Note_on_c, 1, 62, 118
3, 93568, Note_off_c, 1, 50, 75
3, 93568, Note_off_c, 1, 55, 75
3, 93568, Note_off_c, 1, 62, 75
3, 93600, Note_on_c, 1, 50, 118
3, 93600, Note_on_c, 1, 55, 118
3, 93600, Note_on_c, 1, 62, 118
3, 93664, Note_off_c, 1, 50, 75
3, 93664, Note_off_c, 1, 55, 75
3, 93664, Note_off_c, 1, 62, 75
3, 93696, Note_on_c, 1, 50, 118
3, 93696, Note_on_c, 1, 55, 118
3, 93696, Note_on_c, 1, 62, 118
3, 93824, Note_off_c, 1, 50, 75
3, 93824, Note_off_c, 1, 55, 75
3, 93824, Note_off_c, 1, 62, 75
3, 93888, Note_on_c, 1, 50, 118
3, 93888, Note_on_c, 1, 55, 118
3, 93888, Note_on_c, 1, 62, 118
3, 94016, Note_off_c, 1, 50, 75
3, 94016, Note_off_c, 1, 55, 75
3, 94016, Note_off_c, 1, 62, 75
3, 94080, Note_on_c, 1, 50, 118
3, 94080, Note_on_c, 1, 55, 118
3, 94080, Note_on_c, 1, 62, 118
3, 94208, Note_off_c, 1, 50, 75
3, 94208, Note_off_c, 1, 55, 75
3, 94208, Note_off_c, 1, 62, 75
3, 94272, Note_on_c, 1, 50, 118
3, 94272, Note_on_c, 1, 55, 118
3, 94272, Note_on_c, 1, 62, 118
3, 94400, Note_off_c, 1, 50, 75
3, 94400, Note_off_c, 1, 55, 75
3, 94400, Note_off_c, 1, 62, 75
3, 94464, Note_on_c, 1, 38, 118
3, 94464, Note_on_c, 1, 50, 118
3, 94560, Note_on_c, 1, 40, 118
3, 94560, Note_on_c, 1, 52, 118
3, 94656, Note_on_c, 1, 38, 118
3, 94656, Note_on_c, 1, 50, 118
3, 94752, Note_on_c, 1, 40, 118
3, 94752, Note_on_c, 1, 52, 118
3, 94848, Note_on_c, 1, 38, 118
3, 94848, Note_on_c, 1, 50, 118
3, 94944, Note_on_c, 1, 40, 118
3, 94944, Note_on_c, 1, 52, 118
3, 94976, Note_off_c, 1, 38, 75
3, 94976, Note_off_c, 1, 50, 75
3, 95040, Note_on_c, 1, 38, 118
3, 95040, Note_on_c, 1, 49, 118
3, 95072, Note_off_c, 1, 40, 75
3, 95072, Note_off_c, 1, 52, 75
3, 95136, Note_on_c, 1, 38, 118
3, 95136, Note_on_c, 1, 50, 118
3, 95168, Note_off_c, 1, 38, 75
3, 95168, Note_off_c, 1, 50, 75
3, 95232, Note_on_c, 1, 37, 118
3, 95232, Note_on_c, 1, 49, 118
3, 95264, Note_off_c, 1, 40, 75
3, 95264, Note_off_c, 1, 52, 75
3, 95264, Note_off_c, 1, 40, 75
3, 95264, Note_off_c, 1, 52, 75
3, 95296, Note_off_c, 1, 37, 75
3, 95296, Note_off_c, 1, 49, 75
3, 95328, Note_on_c, 1, 38, 118
3, 95328, Note_on_c, 1, 50, 118
3, 95360, Note_off_c, 1, 38, 75
3, 95360, Note_off_c, 1, 50, 75
3, 95360, Note_off_c, 1, 38, 75
3, 95360, Note_off_c, 1, 38, 75
3, 95360, Note_off_c, 1, 50, 75
3, 95392, Note_off_c, 1, 38, 75
3, 95392, Note_off_c, 1, 50, 75
3, 95424, Note_on_c, 1, 40, 118
3, 95424, Note_on_c, 1, 52, 118
3, 95488, Note_off_c, 1, 40, 75
3, 95488, Note_off_c, 1, 52, 75
3, 95520, Note_on_c, 1, 41, 118
3, 95520, Note_on_c, 1, 53, 118
3, 95552, Note_off_c, 1, 49, 75
3, 95584, Note_off_c, 1, 41, 75
3, 95584, Note_off_c, 1, 53, 75
3, 95616, Note_on_c, 1, 47, 118
3, 95616, Note_on_c, 1, 35, 118
3, 95744, Note_off_c, 1, 47, 75
3, 95744, Note_off_c, 1, 35, 75
3, 95808, Note_on_c, 1, 50, 118
3, 95808, Note_on_c, 1, 56, 118
3, 95808, Note_on_c, 1, 62, 118
3, 95872, Note_off_c, 1, 50, 75
3, 95872, Note_off_c, 1, 56, 75
3, 95872, Note_off_c, 1, 62, 75
3, 95904, Note_on_c, 1, 50, 118
3, 95904, Note_on_c, 1, 56, 118
3, 95904, Note_on_c, 1, 62, 118
3, 95968, Note_off_c, 1, 50, 75
3, 95968, Note_off_c, 1, 56, 75
3, 95968, Note_off_c, 1, 62, 75
3, 96000, Note_on_c, 1, 50, 118
3, 96000, Note_on_c, 1, 56, 118
3, 96000, Note_on_c, 1, 62, 118
3, 96128, Note_off_c, 1, 50, 75
3, 96128, Note_off_c, 1, 56, 75
3, 96128, Note_off_c, 1, 62, 75
3, 96192, Note_on_c, 1, 50, 118
3, 96192, Note_on_c, 1, 56, 118
3, 96192, Note_on_c, 1, 62, 118
3, 96320, Note_off_c, 1, 50, 75
3, 96320, Note_off_c, 1, 56, 75
3, 96320, Note_off_c, 1, 62, 75
3, 96384, Note_on_c, 1, 50, 118
3, 96384, Note_on_c, 1, 56, 118
3, 96384, Note_on_c, 1, 62, 118
3, 96512, Note_off_c, 1, 50, 75
3, 96512, Note_off_c, 1, 56, 75
3, 96512, Note_off_c, 1, 62, 75
3, 96576, Note_on_c, 1, 50, 118
3, 96576, Note_on_c, 1, 56, 118
3, 96576, Note_on_c, 1, 62, 118
3, 96704, Note_off_c, 1, 50, 75
3, 96704, Note_off_c, 1, 56, 75
3, 96704, Note_off_c, 1, 62, 75
3, 96768, Note_on_c, 1, 50, 118
3, 96768, Note_on_c, 1, 38, 118
3, 96864, Note_on_c, 1, 52, 118
3, 96864, Note_on_c, 1, 40, 118
3, 96960, Note_on_c, 1, 50, 118
3, 96960, Note_on_c, 1, 38, 118
3, 96992, Note_off_c, 1, 52, 75
3, 96992, Note_off_c, 1, 40, 75
3, 97056, Note_on_c, 1, 52, 118
3, 97056, Note_on_c, 1, 40, 118
3, 97088, Note_off_c, 1, 50, 75
3, 97088, Note_off_c, 1, 38, 75
3, 97152, Note_on_c, 1, 50, 118
3, 97152, Note_on_c, 1, 38, 118
3, 97184, Note_off_c, 1, 52, 75
3, 97184, Note_off_c, 1, 40, 75
3, 97248, Note_on_c, 1, 52, 118
3, 97248, Note_on_c, 1, 40, 118
3, 97280, Note_off_c, 1, 50, 75
3, 97280, Note_off_c, 1, 38, 75
3, 97280, Note_off_c, 1, 50, 75
3, 97280, Note_off_c, 1, 38, 75
3, 97344, Note_on_c, 1, 50, 118
3, 97344, Note_on_c, 1, 38, 118
3, 97376, Note_off_c, 1, 52, 75
3, 97376, Note_off_c, 1, 40, 75
3, 97472, Note_off_c, 1, 50, 75
3, 97472, Note_off_c, 1, 38, 75
3, 97536, Note_on_c, 1, 37, 118
3, 97536, Note_on_c, 1, 49, 118
3, 97600, Note_off_c, 1, 37, 75
3, 97600, Note_off_c, 1, 49, 75
3, 97632, Note_on_c, 1, 38, 118
3, 97632, Note_on_c, 1, 50, 118
3, 97696, Note_off_c, 1, 38, 75
3, 97696, Note_off_c, 1, 50, 75
3, 97728, Note_on_c, 1, 41, 118
3, 97728, Note_on_c, 1, 53, 118
3, 97792, Note_off_c, 1, 41, 75
3, 97792, Note_off_c, 1, 53, 75
3, 97824, Note_on_c, 1, 42, 118
3, 97824, Note_on_c, 1, 54, 118
3, 97888, Note_off_c, 1, 42, 75
3, 97888, Note_off_c, 1, 54, 75
3, 97920, Note_on_c, 1, 48, 118
3, 97920, Note_on_c, 1, 36, 118
3, 98048, Note_off_c, 1, 48, 75
3, 98048, Note_off_c, 1, 36, 75
3, 98112, Note_on_c, 1, 54, 118
3, 98112, Note_on_c, 1, 50, 118
3, 98112, Note_on_c, 1, 62, 118
3, 98176, Note_off_c, 1, 54, 75
3, 98176, Note_off_c, 1, 50, 75
3, 98176, Note_off_c, 1, 62, 75
3, 98208, Note_on_c, 1, 54, 118
3, 98208, Note_on_c, 1, 50, 118
3, 98208, Note_on_c, 1, 62, 118
3, 98272, Note_off_c, 1, 54, 75
3, 98272, Note_off_c, 1, 50, 75
3, 98272, Note_off_c, 1, 62, 75
3, 98304, Note_on_c, 1, 50, 118
3, 98304, Note_on_c, 1, 54, 118
3, 98304, Note_on_c, 1, 62, 118
3, 98432, Note_off_c, 1, 50, 75
3, 98432, Note_off_c, 1, 54, 75
3, 98432, Note_off_c, 1, 62, 75
3, 98496, Note_on_c, 1, 50, 118
3, 98496, Note_on_c, 1, 54, 118
3, 98496, Note_on_c, 1, 62, 118
3, 98624, Note_off_c, 1, 50, 75
3, 98624, Note_off_c, 1, 54, 75
3, 98624, Note_off_c, 1, 62, 75
3, 98688, Note_on_c, 1, 37, 118
3, 98688, Note_on_c, 1, 49, 118
3, 98752, Note_off_c, 1, 37, 75
3, 98752, Note_off_c, 1, 49, 75
3, 98784, Note_on_c, 1, 38, 118
3, 98784, Note_on_c, 1, 50, 118
3, 98848, Note_off_c, 1, 38, 75
3, 98848, Note_off_c, 1, 50, 75
3, 98880, Note_on_c, 1, 42, 118
3, 98880, Note_on_c, 1, 54, 118
3, 98944, Note_off_c, 1, 42, 75
3, 98944, Note_off_c, 1, 54, 75
3, 98976, Note_on_c, 1, 43, 118
3, 98976, Note_on_c, 1, 55, 118
3, 99040, Note_off_c, 1, 43, 75
3, 99040, Note_off_c, 1, 55, 75
3, 99072, Note_on_c, 1, 47, 118
3, 99072, Note_on_c, 1, 35, 118
3, 99200, Note_off_c, 1, 47, 75
3, 99200, Note_off_c, 1, 35, 75
3, 99264, Note_on_c, 1, 50, 118
3, 99264, Note_on_c, 1, 55, 118
3, 99264, Note_on_c, 1, 62, 118
3, 99328, Note_off_c, 1, 50, 75
3, 99328, Note_off_c, 1, 55, 75
3, 99328, Note_off_c, 1, 62, 75
3, 99360, Note_on_c, 1, 50, 118
3, 99360, Note_on_c, 1, 55, 118
3, 99360, Note_on_c, 1, 62, 118
3, 99424, Note_off_c, 1, 50, 75
3, 99424, Note_off_c, 1, 55, 75
3, 99424, Note_off_c, 1, 62, 75
3, 99456, Note_on_c, 1, 62, 118
3, 99456, Note_on_c, 1, 62, 118
3, 99456, Note_on_c, 1, 55, 118
3, 99456, Note_on_c, 1, 50, 118
3, 99584, Note_off_c, 1, 62, 75
3, 99584, Note_off_c, 1, 62, 75
3, 99584, Note_off_c, 1, 55, 75
3, 99584, Note_off_c, 1, 50, 75
3, 99648, Note_on_c, 1, 46, 118
3, 99648, Note_on_c, 1, 34, 118
3, 99712, Note_off_c, 1, 46, 75
3, 99712, Note_off_c, 1, 34, 75
3, 99744, Note_on_c, 1, 46, 118
3, 99744, Note_on_c, 1, 34, 118
3, 99808, Note_off_c, 1, 46, 75
3, 99808, Note_off_c, 1, 34, 75
3, 99840, Note_on_c, 1, 46, 118
3, 99840, Note_on_c, 1, 34, 118
3, 99968, Note_off_c, 1, 46, 75
3, 99968, Note_off_c, 1, 34, 75
3, 100032, Note_on_c, 1, 46, 118
3, 100032, Note_on_c, 1, 34, 118
3, 100160, Note_off_c, 1, 46, 75
3, 100160, Note_off_c, 1, 34, 75
3, 100224, Note_on_c, 1, 33, 118
3, 100224, Note_on_c, 1, 45, 118
3, 100352, Note_off_c, 1, 33, 75
3, 100352, Note_off_c, 1, 45, 75
3, 100416, Note_on_c, 1, 35, 118
3, 100416, Note_on_c, 1, 59, 118
3, 100416, Note_on_c, 1, 59, 118
3, 100416, Note_on_c, 1, 47, 118
3, 100512, Note_on_c, 1, 62, 118
3, 100512, Note_on_c, 1, 49, 118
3, 100544, Note_off_c, 1, 35, 75
3, 100544, Note_off_c, 1, 59, 75
3, 100544, Note_off_c, 1, 59, 75
3, 100544, Note_off_c, 1, 47, 75
3, 100608, Note_on_c, 1, 33, 118
3, 100608, Note_on_c, 1, 45, 118
3, 100608, Note_on_c, 1, 45, 118
3, 100608, Note_on_c, 1, 57, 118
3, 100640, Note_off_c, 1, 62, 75
3, 100640, Note_off_c, 1, 49, 75
3, 100704, Note_on_c, 1, 61, 118
3, 100704, Note_on_c, 1, 47, 118
3, 100704, Note_on_c, 1, 35, 118
3, 100736, Note_off_c, 1, 33, 75
3, 100736, Note_off_c, 1, 45, 75
3, 100736, Note_off_c, 1, 45, 75
3, 100736, Note_off_c, 1, 57, 75
3, 100800, Note_on_c, 1, 31, 118
3, 100800, Note_on_c, 1, 43, 118
3, 100800, Note_on_c, 1, 55, 118
3, 100832, Note_off_c, 1, 61, 75
3, 100832, Note_off_c, 1, 47, 75
3, 100832, Note_off_c, 1, 35, 75
3, 100896, Note_on_c, 1, 57, 118
3, 100896, Note_on_c, 1, 45, 118
3, 100896, Note_on_c, 1, 33, 118
3, 100928, Note_off_c, 1, 31, 75
3, 100928, Note_off_c, 1, 43, 75
3, 100928, Note_off_c, 1, 55, 75
3, 100992, Note_on_c, 1, 30, 118
3, 100992, Note_on_c, 1, 42, 118
3, 100992, Note_on_c, 1, 54, 118
3, 101024, Note_off_c, 1, 57, 75
3, 101024, Note_off_c, 1, 45, 75
3, 101024, Note_off_c, 1, 33, 75
3, 101088, Note_on_c, 1, 55, 118
3, 101088, Note_on_c, 1, 43, 118
3, 101120, Note_off_c, 1, 30, 75
3, 101120, Note_off_c, 1, 42, 75
3, 101120, Note_off_c, 1, 54, 75
3, 101184, Note_on_c, 1, 28, 118
3, 101184, Note_on_c, 1, 40, 118
3, 101184, Note_on_c, 1, 52, 118
3, 101216, Note_off_c, 1, 55, 75
3, 101216, Note_off_c, 1, 43, 75
3, 101280, Note_on_c, 1, 54, 118
3, 101280, Note_on_c, 1, 42, 118
3, 101312, Note_off_c, 1, 28, 75
3, 101312, Note_off_c, 1, 40, 75
3, 101312, Note_off_c, 1, 52, 75
3, 101344, Note_off_c, 1, 54, 75
3, 101344, Note_off_c, 1, 42, 75
3, 101376, Note_on_c, 1, 26, 118
3, 101376, Note_on_c, 1, 38, 118
3, 101504, Note_off_c, 1, 26, 75
3, 101504, Note_off_c, 1, 38, 75
3, 101568, Note_on_c, 1, 54, 118
3, 101568, Note_on_c, 1, 57, 118
3, 101568, Note_on_c, 1, 62, 118
3, 101632, Note_off_c, 1, 54, 75
3, 101632, Note_off_c, 1, 57, 75
3, 101632, Note_off_c, 1, 62, 75
3, 101664, Note_on_c, 1, 54, 118
3, 101664, Note_on_c, 1, 57, 118
3, 101664, Note_on_c, 1, 62, 118
3, 101728, Note_off_c, 1, 54, 75
3, 101728, Note_off_c, 1, 57, 75
3, 101728, Note_off_c, 1, 62, 75
3, 101760, Note_on_c, 1, 54, 118
3, 101760, Note_on_c, 1, 57, 118
3, 101760, Note_on_c, 1, 62, 118
3, 101888, Note_off_c, 1, 54, 75
3, 101888, Note_off_c, 1, 57, 75
3, 101888, Note_off_c, 1, 62, 75
3, 101952, Note_on_c, 1, 54, 118
3, 101952, Note_on_c, 1, 57, 118
3, 101952, Note_on_c, 1, 62, 118
3, 102080, Note_off_c, 1, 54, 75
3, 102080, Note_off_c, 1, 57, 75
3, 102080, Note_off_c, 1, 62, 75
3, 102144, Note_on_c, 1, 55, 118
3, 102144, Note_on_c, 1, 57, 118
3, 102144, Note_on_c, 1, 61, 118
3, 102272, Note_off_c, 1, 55, 75
3, 102272, Note_off_c, 1, 57, 75
3, 102272, Note_off_c, 1, 61, 75
3, 102336, Note_on_c, 1, 55, 118
3, 102336, Note_on_c, 1, 57, 118
3, 102336, Note_on_c, 1, 61, 118
3, 102464, Note_off_c, 1, 55, 75
3, 102464, Note_off_c, 1, 57, 75
3, 102464, Note_off_c, 1, 61, 75
3, 102528, Note_on_c, 1, 26, 118
3, 102528, Note_on_c, 1, 38, 118
3, 102656, Note_off_c, 1, 26, 75
3, 102656, Note_off_c, 1, 38, 75
3, 102720, Note_on_c, 1, 54, 118
3, 102720, Note_on_c, 1, 50, 118
3, 102784, Note_off_c, 1, 54, 75
3, 102784, Note_off_c, 1, 50, 75
3, 102816, Note_on_c, 1, 54, 118
3, 102816, Note_on_c, 1, 50, 118
3, 102880, Note_off_c, 1, 54, 75
3, 102880, Note_off_c, 1, 50, 75
3, 102912, Note_on_c, 1, 54, 118
3, 102912, Note_on_c, 1, 50, 118
3, 103040, Note_off_c, 1, 54, 75
3, 103040, Note_off_c, 1, 50, 75
3, 103104, Note_on_c, 1, 57, 118
3, 103104, Note_on_c, 1, 54, 118
3, 103232, Note_off_c, 1, 57, 75
3, 103232, Note_off_c, 1, 54, 75
3, 103296, Note_on_c, 1, 52, 118
3, 103296, Note_on_c, 1, 55, 118
3, 103296, Note_on_c, 1, 57, 118
3, 103424, Note_off_c, 1, 52, 75
3, 103424, Note_off_c, 1, 55, 75
3, 103424, Note_off_c, 1, 57, 75
3, 103488, Note_on_c, 1, 50, 118
3, 103488, Note_on_c, 1, 54, 118
3, 103488, Note_on_c, 1, 57, 118
3, 103616, Note_off_c, 1, 50, 75
3, 103616, Note_off_c, 1, 54, 75
3, 103616, Note_off_c, 1, 57, 75
3, 103680, Note_on_c, 1, 45, 118
3, 103680, Note_on_c, 1, 33, 118
3, 103808, Note_off_c, 1, 45, 75
3, 103808, Note_off_c, 1, 33, 75
3, 103872, Note_on_c, 1, 49, 118
3, 103872, Note_on_c, 1, 52, 118
3, 103872, Note_on_c, 1, 57, 118
3, 103936, Note_off_c, 1, 49, 75
3, 103936, Note_off_c, 1, 52, 75
3, 103936, Note_off_c, 1, 57, 75
3, 103968, Note_on_c, 1, 49, 118
3, 103968, Note_on_c, 1, 52, 118
3, 103968, Note_on_c, 1, 57, 118
3, 104032, Note_off_c, 1, 49, 75
3, 104032, Note_off_c, 1, 52, 75
3, 104032, Note_off_c, 1, 57, 75
3, 104064, Note_on_c, 1, 49, 118
3, 104064, Note_on_c, 1, 52, 118
3, 104064, Note_on_c, 1, 57, 118
3, 104192, Note_off_c, 1, 49, 75
3, 104192, Note_off_c, 1, 52, 75
3, 104192, Note_off_c, 1, 57, 75
3, 104256, Note_on_c, 1, 49, 118
3, 104256, Note_on_c, 1, 52, 118
3, 104256, Note_on_c, 1, 57, 118
3, 104384, Note_off_c, 1, 49, 75
3, 104384, Note_off_c, 1, 52, 75
3, 104384, Note_off_c, 1, 57, 75
3, 104448, Note_on_c, 1, 47, 118
3, 104448, Note_on_c, 1, 50, 118
3, 104448, Note_on_c, 1, 57, 118
3, 104576, Note_off_c, 1, 47, 75
3, 104576, Note_off_c, 1, 50, 75
3, 104576, Note_off_c, 1, 57, 75
3, 104640, Note_on_c, 1, 47, 118
3, 104640, Note_on_c, 1, 50, 118
3, 104640, Note_on_c, 1, 57, 118
3, 104768, Note_off_c, 1, 47, 75
3, 104768, Note_off_c, 1, 50, 75
3, 104768, Note_off_c, 1, 57, 75
3, 104832, Note_on_c, 1, 45, 118
3, 104832, Note_on_c, 1, 33, 118
3, 104832, Note_on_c, 1, 57, 118
3, 104960, Note_off_c, 1, 45, 75
3, 104960, Note_off_c, 1, 33, 75
3, 104960, Note_off_c, 1, 57, 75
3, 105024, Note_on_c, 1, 45, 118
3, 105024, Note_on_c, 1, 49, 118
3, 105088, Note_off_c, 1, 45, 75
3, 105088, Note_off_c, 1, 49, 75
3, 105120, Note_on_c, 1, 45, 118
3, 105120, Note_on_c, 1, 49, 118
3, 105120, Note_on_c, 1, 52, 118
3, 105184, Note_off_c, 1, 45, 75
3, 105184, Note_off_c, 1, 49, 75
3, 105184, Note_off_c, 1, 52, 75
3, 105216, Note_on_c, 1, 57, 118
3, 105216, Note_on_c, 1, 49, 118
3, 105216, Note_on_c, 1, 45, 118
3, 105344, Note_off_c, 1, 49, 75
3, 105344, Note_off_c, 1, 45, 75
3, 105408, Note_on_c, 1, 49, 118
3, 105408, Note_on_c, 1, 52, 118
3, 105536, Note_off_c, 1, 49, 75
3, 105536, Note_off_c, 1, 52, 75
3, 105600, Note_on_c, 1, 47, 118
3, 105600, Note_on_c, 1, 50, 118
3, 105600, Note_on_c, 1, 52, 118
3, 105728, Note_off_c, 1, 57, 75
3, 105728, Note_off_c, 1, 47, 75
3, 105728, Note_off_c, 1, 50, 75
3, 105728, Note_off_c, 1, 52, 75
3, 105792, Note_on_c, 1, 45, 118
3, 105792, Note_on_c, 1, 49, 118
3, 105792, Note_on_c, 1, 52, 118
3, 105920, Note_off_c, 1, 45, 75
3, 105920, Note_off_c, 1, 49, 75
3, 105920, Note_off_c, 1, 52, 75
3, 105984, Note_on_c, 1, 31, 118
3, 105984, Note_on_c, 1, 43, 118
3, 105984, Note_on_c, 1, 59, 118
3, 106080, Note_on_c, 1, 43, 118
3, 106080, Note_on_c, 1, 55, 118
3, 106112, Note_off_c, 1, 31, 75
3, 106112, Note_off_c, 1, 43, 75
3, 106112, Note_off_c, 1, 59, 75
3, 106144, Note_off_c, 1, 43, 75
3, 106144, Note_off_c, 1, 55, 75
3, 106272, Note_on_c, 1, 43, 118
3, 106272, Note_on_c, 1, 55, 118
3, 106336, Note_off_c, 1, 43, 75
3, 106336, Note_off_c, 1, 55, 75
3, 106368, Note_on_c, 1, 55, 118
3, 106368, Note_on_c, 1, 43, 118
3, 106496, Note_off_c, 1, 55, 75
3, 106496, Note_off_c, 1, 43, 75
3, 106560, Note_on_c, 1, 54, 118
3, 106560, Note_on_c, 1, 42, 118
3, 106688, Note_off_c, 1, 54, 75
3, 106688, Note_off_c, 1, 42, 75
3, 106752, Note_on_c, 1, 47, 118
3, 106752, Note_on_c, 1, 35, 118
3, 106880, Note_off_c, 1, 47, 75
3, 106880, Note_off_c, 1, 35, 75
3, 106944, Note_on_c, 1, 45, 118
3, 106944, Note_on_c, 1, 33, 118
3, 107072, Note_off_c, 1, 45, 75
3, 107072, Note_off_c, 1, 33, 75
3, 107136, Note_on_c, 1, 26, 118
3, 107136, Note_on_c, 1, 38, 118
3, 107232, Note_on_c, 1, 50, 118
3, 107232, Note_on_c, 1, 62, 118
3, 107264, Note_off_c, 1, 26, 75
3, 107264, Note_off_c, 1, 38, 75
3, 107296, Note_off_c, 1, 50, 75
3, 107296, Note_off_c, 1, 62, 75
3, 107328, Note_on_c, 1, 50, 118
3, 107328, Note_on_c, 1, 62, 118
3, 107392, Note_off_c, 1, 50, 75
3, 107392, Note_off_c, 1, 62, 75
3, 107520, Note_on_c, 1, 50, 118
3, 107520, Note_on_c, 1, 62, 118
3, 107520, Note_on_c, 1, 62, 118
3, 107648, Note_off_c, 1, 50, 75
3, 107648, Note_off_c, 1, 62, 75
3, 107648, Note_off_c, 1, 62, 75
3, 107712, Note_on_c, 1, 49, 118
3, 107712, Note_on_c, 1, 61, 118
3, 107840, Note_off_c, 1, 49, 75
3, 107840, Note_off_c, 1, 61, 75
3, 107904, Note_on_c, 1, 42, 118
3, 107904, Note_on_c, 1, 54, 118
3, 108032, Note_off_c, 1, 42, 75
3, 108032, Note_off_c, 1, 54, 75
3, 108096, Note_on_c, 1, 40, 118
3, 108096, Note_on_c, 1, 52, 118
3, 108224, Note_off_c, 1, 40, 75
3, 108224, Note_off_c, 1, 52, 75
3, 108288, Note_on_c, 1, 45, 118
3, 108288, Note_on_c, 1, 33, 118
3, 108416, Note_off_c, 1, 45, 75
3, 108416, Note_off_c, 1, 33, 75
3, 109632, Note_on_c, 1, 33, 118
3, 109632, Note_on_c, 1, 45, 118
3, 109696, Note_off_c, 1, 33, 75
3, 109696, Note_off_c, 1, 45, 75
3, 109728, Note_on_c, 1, 33, 118
3, 109728, Note_on_c, 1, 45, 118
3, 109792, Note_off_c, 1, 33, 75
3, 109792, Note_off_c, 1, 45, 75
3, 109824, Note_on_c, 1, 33, 118
3, 109824, Note_on_c, 1, 45, 118
3, 109952, Note_off_c, 1, 33, 75
3, 109952, Note_off_c, 1, 45, 75
3, 110016, Note_on_c, 1, 34, 118
3, 110016, Note_on_c, 1, 46, 118
3, 110080, Note_off_c, 1, 34, 75
3, 110080, Note_off_c, 1, 46, 75
3, 110112, Note_on_c, 1, 33, 118
3, 110112, Note_on_c, 1, 45, 118
3, 110176, Note_off_c, 1, 33, 75
3, 110176, Note_off_c, 1, 45, 75
3, 110208, Note_on_c, 1, 32, 118
3, 110208, Note_on_c, 1, 44, 118
3, 110272, Note_off_c, 1, 32, 75
3, 110272, Note_off_c, 1, 44, 75
3, 110304, Note_on_c, 1, 31, 118
3, 110304, Note_on_c, 1, 43, 118
3, 110368, Note_off_c, 1, 31, 75
3, 110368, Note_off_c, 1, 43, 75
3, 110400, Note_on_c, 1, 30, 118
3, 110400, Note_on_c, 1, 42, 118
3, 110464, Note_off_c, 1, 30, 75
3, 110464, Note_off_c, 1, 42, 75
3, 110496, Note_on_c, 1, 28, 118
3, 110496, Note_on_c, 1, 40, 118
3, 110560, Note_off_c, 1, 28, 75
3, 110560, Note_off_c, 1, 40, 75
3, 110592, Note_on_c, 1, 26, 118
3, 110592, Note_on_c, 1, 38, 118
3, 110720, Note_off_c, 1, 26, 75
3, 110720, Note_off_c, 1, 38, 75
3, 110784, Note_on_c, 1, 62, 118
3, 110784, Note_on_c, 1, 54, 118
3, 110784, Note_on_c, 1, 57, 118
3, 110848, Note_off_c, 1, 62, 75
3, 110848, Note_off_c, 1, 54, 75
3, 110848, Note_off_c, 1, 57, 75
3, 110880, Note_on_c, 1, 62, 118
3, 110880, Note_on_c, 1, 54, 118
3, 110880, Note_on_c, 1, 57, 118
3, 110944, Note_off_c, 1, 62, 75
3, 110944, Note_off_c, 1, 54, 75
3, 110944, Note_off_c, 1, 57, 75
3, 110976, Note_on_c, 1, 54, 118
3, 110976, Note_on_c, 1, 57, 118
3, 110976, Note_on_c, 1, 62, 118
3, 111104, Note_off_c, 1, 54, 75
3, 111104, Note_off_c, 1, 57, 75
3, 111104, Note_off_c, 1, 62, 75
3, 111168, Note_on_c, 1, 54, 118
3, 111168, Note_on_c, 1, 57, 118
3, 111168, Note_on_c, 1, 62, 118
3, 111296, Note_off_c, 1, 54, 75
3, 111296, Note_off_c, 1, 57, 75
3, 111296, Note_off_c, 1, 62, 75
3, 111360, Note_on_c, 1, 55, 118
3, 111360, Note_on_c, 1, 57, 118
3, 111360, Note_on_c, 1, 61, 118
3, 111488, Note_off_c, 1, 55, 75
3, 111488, Note_off_c, 1, 57, 75
3, 111488, Note_off_c, 1, 61, 75
3, 111552, Note_on_c, 1, 55, 118
3, 111552, Note_on_c, 1, 57, 118
3, 111552, Note_on_c, 1, 61, 118
3, 111680, Note_off_c, 1, 55, 75
3, 111680, Note_off_c, 1, 57, 75
3, 111680, Note_off_c, 1, 61, 75
3, 111744, Note_on_c, 1, 50, 118
3, 111744, Note_on_c, 1, 38, 118
3, 111872, Note_off_c, 1, 50, 75
3, 111872, Note_off_c, 1, 38, 75
3, 111936, Note_on_c, 1, 50, 118
3, 111936, Note_on_c, 1, 54, 118
3, 111936, Note_on_c, 1, 62, 118
3, 112000, Note_off_c, 1, 50, 75
3, 112000, Note_off_c, 1, 54, 75
3, 112000, Note_off_c, 1, 62, 75
3, 112032, Note_on_c, 1, 50, 118
3, 112032, Note_on_c, 1, 54, 118
3, 112032, Note_on_c, 1, 62, 118
3, 112096, Note_off_c, 1, 50, 75
3, 112096, Note_off_c, 1, 54, 75
3, 112096, Note_off_c, 1, 62, 75
3, 112128, Note_on_c, 1, 50, 118
3, 112128, Note_on_c, 1, 54, 118
3, 112128, Note_on_c, 1, 62, 118
3, 112256, Note_off_c, 1, 50, 75
3, 112256, Note_off_c, 1, 54, 75
3, 112256, Note_off_c, 1, 62, 75
3, 112320, Note_on_c, 1, 54, 118
3, 112320, Note_on_c, 1, 57, 118
3, 112320, Note_on_c, 1, 62, 118
3, 112448, Note_off_c, 1, 54, 75
3, 112448, Note_off_c, 1, 57, 75
3, 112448, Note_off_c, 1, 62, 75
3, 112512, Note_on_c, 1, 52, 118
3, 112512, Note_on_c, 1, 55, 118
3, 112512, Note_on_c, 1, 62, 118
3, 112640, Note_off_c, 1, 52, 75
3, 112640, Note_off_c, 1, 55, 75
3, 112640, Note_off_c, 1, 62, 75
3, 112704, Note_on_c, 1, 50, 118
3, 112704, Note_on_c, 1, 54, 118
3, 112704, Note_on_c, 1, 62, 118
3, 112832, Note_off_c, 1, 50, 75
3, 112832, Note_off_c, 1, 54, 75
3, 112832, Note_off_c, 1, 62, 75
3, 112896, Note_on_c, 1, 45, 118
3, 112896, Note_on_c, 1, 33, 118
3, 113024, Note_off_c, 1, 45, 75
3, 113024, Note_off_c, 1, 33, 75
3, 113088, Note_on_c, 1, 57, 118
3, 113088, Note_on_c, 1, 49, 118
3, 113088, Note_on_c, 1, 52, 118
3, 113152, Note_off_c, 1, 57, 75
3, 113152, Note_off_c, 1, 49, 75
3, 113152, Note_off_c, 1, 52, 75
3, 113184, Note_on_c, 1, 57, 118
3, 113184, Note_on_c, 1, 49, 118
3, 113184, Note_on_c, 1, 52, 118
3, 113248, Note_off_c, 1, 57, 75
3, 113248, Note_off_c, 1, 49, 75
3, 113248, Note_off_c, 1, 52, 75
3, 113280, Note_on_c, 1, 49, 118
3, 113280, Note_on_c, 1, 52, 118
3, 113280, Note_on_c, 1, 57, 118
3, 113408, Note_off_c, 1, 49, 75
3, 113408, Note_off_c, 1, 52, 75
3, 113408, Note_off_c, 1, 57, 75
3, 113472, Note_on_c, 1, 49, 118
3, 113472, Note_on_c, 1, 52, 118
3, 113472, Note_on_c, 1, 57, 118
3, 113600, Note_off_c, 1, 49, 75
3, 113600, Note_off_c, 1, 52, 75
3, 113600, Note_off_c, 1, 57, 75
3, 113664, Note_on_c, 1, 47, 118
3, 113664, Note_on_c, 1, 50, 118
3, 113664, Note_on_c, 1, 57, 118
3, 113792, Note_off_c, 1, 47, 75
3, 113792, Note_off_c, 1, 50, 75
3, 113792, Note_off_c, 1, 57, 75
3, 113856, Note_on_c, 1, 47, 118
3, 113856, Note_on_c, 1, 50, 118
3, 113856, Note_on_c, 1, 57, 118
3, 113984, Note_off_c, 1, 47, 75
3, 113984, Note_off_c, 1, 50, 75
3, 113984, Note_off_c, 1, 57, 75
3, 114048, Note_on_c, 1, 45, 118
3, 114048, Note_on_c, 1, 33, 118
3, 114176, Note_off_c, 1, 45, 75
3, 114176, Note_off_c, 1, 33, 75
3, 114240, Note_on_c, 1, 49, 118
3, 114240, Note_on_c, 1, 52, 118
3, 114240, Note_on_c, 1, 57, 118
3, 114304, Note_off_c, 1, 49, 75
3, 114304, Note_off_c, 1, 52, 75
3, 114304, Note_off_c, 1, 57, 75
3, 114336, Note_on_c, 1, 49, 118
3, 114336, Note_on_c, 1, 52, 118
3, 114336, Note_on_c, 1, 57, 118
3, 114400, Note_off_c, 1, 49, 75
3, 114400, Note_off_c, 1, 52, 75
3, 114400, Note_off_c, 1, 57, 75
3, 114432, Note_on_c, 1, 49, 118
3, 114432, Note_on_c, 1, 52, 118
3, 114432, Note_on_c, 1, 57, 118
3, 114560, Note_off_c, 1, 49, 75
3, 114560, Note_off_c, 1, 52, 75
3, 114560, Note_off_c, 1, 57, 75
3, 114624, Note_on_c, 1, 49, 118
3, 114624, Note_on_c, 1, 52, 118
3, 114624, Note_on_c, 1, 57, 118
3, 114752, Note_off_c, 1, 49, 75
3, 114752, Note_off_c, 1, 52, 75
3, 114752, Note_off_c, 1, 57, 75
3, 114816, Note_on_c, 1, 47, 118
3, 114816, Note_on_c, 1, 50, 118
3, 114816, Note_on_c, 1, 57, 118
3, 114944, Note_off_c, 1, 47, 75
3, 114944, Note_off_c, 1, 50, 75
3, 114944, Note_off_c, 1, 57, 75
3, 115008, Note_on_c, 1, 45, 118
3, 115008, Note_on_c, 1, 49, 118
3, 115008, Note_on_c, 1, 57, 118
3, 115136, Note_off_c, 1, 45, 75
3, 115136, Note_off_c, 1, 49, 75
3, 115136, Note_off_c, 1, 57, 75
3, 115200, Note_on_c, 1, 29, 118
3, 115200, Note_on_c, 1, 41, 118
3, 115328, Note_off_c, 1, 29, 75
3, 115328, Note_off_c, 1, 41, 75
3, 115392, Note_on_c, 1, 53, 118
3, 115392, Note_on_c, 1, 60, 118
3, 115392, Note_on_c, 1, 63, 118
3, 115392, Note_on_c, 1, 65, 118
3, 115456, Note_off_c, 1, 53, 75
3, 115456, Note_off_c, 1, 60, 75
3, 115456, Note_off_c, 1, 63, 75
3, 115456, Note_off_c, 1, 65, 75
3, 115488, Note_on_c, 1, 53, 118
3, 115488, Note_on_c, 1, 60, 118
3, 115488, Note_on_c, 1, 63, 118
3, 115488, Note_on_c, 1, 65, 118
3, 115552, Note_off_c, 1, 53, 75
3, 115552, Note_off_c, 1, 60, 75
3, 115552, Note_off_c, 1, 63, 75
3, 115552, Note_off_c, 1, 65, 75
3, 115584, Note_on_c, 1, 53, 118
3, 115584, Note_on_c, 1, 60, 118
3, 115584, Note_on_c, 1, 63, 118
3, 115584, Note_on_c, 1, 65, 118
3, 115712, Note_off_c, 1, 53, 75
3, 115712, Note_off_c, 1, 60, 75
3, 115712, Note_off_c, 1, 63, 75
3, 115712, Note_off_c, 1, 65, 75
3, 115776, Note_on_c, 1, 53, 118
3, 115776, Note_on_c, 1, 60, 118
3, 115776, Note_on_c, 1, 63, 118
3, 115776, Note_on_c, 1, 65, 118
3, 115840, Note_off_c, 1, 53, 75
3, 115840, Note_off_c, 1, 60, 75
3, 115840, Note_off_c, 1, 63, 75
3, 115840, Note_off_c, 1, 65, 75
3, 115872, Note_on_c, 1, 53, 118
3, 115872, Note_on_c, 1, 60, 118
3, 115872, Note_on_c, 1, 63, 118
3, 115872, Note_on_c, 1, 65, 118
3, 115936, Note_off_c, 1, 53, 75
3, 115936, Note_off_c, 1, 60, 75
3, 115936, Note_off_c, 1, 63, 75
3, 115936, Note_off_c, 1, 65, 75
3, 115968, Note_on_c, 1, 58, 118
3, 115968, Note_on_c, 1, 62, 118
3, 115968, Note_on_c, 1, 65, 118
3, 116096, Note_off_c, 1, 58, 75
3, 116096, Note_off_c, 1, 62, 75
3, 116096, Note_off_c, 1, 65, 75
3, 116160, Note_on_c, 1, 46, 118
3, 116160, Note_on_c, 1, 34, 118
3, 116288, Note_off_c, 1, 46, 75
3, 116288, Note_off_c, 1, 34, 75
3, 116352, Note_on_c, 1, 31, 118
3, 116352, Note_on_c, 1, 43, 118
3, 116480, Note_off_c, 1, 31, 75
3, 116480, Note_off_c, 1, 43, 75
3, 116544, Note_on_c, 1, 55, 118
3, 116544, Note_on_c, 1, 62, 118
3, 116544, Note_on_c, 1, 65, 118
3, 116544, Note_on_c, 1, 67, 118
3, 116608, Note_off_c, 1, 55, 75
3, 116608, Note_off_c, 1, 62, 75
3, 116608, Note_off_c, 1, 65, 75
3, 116608, Note_off_c, 1, 67, 75
3, 116640, Note_on_c, 1, 55, 118
3, 116640, Note_on_c, 1, 62, 118
3, 116640, Note_on_c, 1, 65, 118
3, 116640, Note_on_c, 1, 67, 118
3, 116704, Note_off_c, 1, 55, 75
3, 116704, Note_off_c, 1, 62, 75
3, 116704, Note_off_c, 1, 65, 75
3, 116704, Note_off_c, 1, 67, 75
3, 116736, Note_on_c, 1, 55, 118
3, 116736, Note_on_c, 1, 62, 118
3, 116736, Note_on_c, 1, 65, 118
3, 116736, Note_on_c, 1, 67, 118
3, 116864, Note_off_c, 1, 55, 75
3, 116864, Note_off_c, 1, 62, 75
3, 116864, Note_off_c, 1, 65, 75
3, 116864, Note_off_c, 1, 67, 75
3, 116928, Note_on_c, 1, 55, 118
3, 116928, Note_on_c, 1, 62, 118
3, 116928, Note_on_c, 1, 65, 118
3, 116928, Note_on_c, 1, 67, 118
3, 116992, Note_off_c, 1, 55, 75
3, 116992, Note_off_c, 1, 62, 75
3, 116992, Note_off_c, 1, 65, 75
3, 116992, Note_off_c, 1, 67, 75
3, 117024, Note_on_c, 1, 55, 118
3, 117024, Note_on_c, 1, 62, 118
3, 117024, Note_on_c, 1, 65, 118
3, 117024, Note_on_c, 1, 67, 118
3, 117088, Note_off_c, 1, 55, 75
3, 117088, Note_off_c, 1, 62, 75
3, 117088, Note_off_c, 1, 65, 75
3, 117088, Note_off_c, 1, 67, 75
3, 117120, Note_on_c, 1, 60, 118
3, 117120, Note_on_c, 1, 64, 118
3, 117120, Note_on_c, 1, 67, 118
3, 117248, Note_off_c, 1, 60, 75
3, 117248, Note_off_c, 1, 64, 75
3, 117248, Note_off_c, 1, 67, 75
3, 117312, Note_on_c, 1, 48, 118
3, 117312, Note_on_c, 1, 36, 118
3, 117440, Note_off_c, 1, 48, 75
3, 117440, Note_off_c, 1, 36, 75
3, 117504, Note_on_c, 1, 45, 118
3, 117504, Note_on_c, 1, 33, 118
3, 117632, Note_off_c, 1, 45, 75
3, 117632, Note_off_c, 1, 33, 75
3, 118656, Note_on_c, 1, 67, 118
3, 118656, Note_on_c, 1, 61, 118
3, 118656, Note_on_c, 1, 57, 118
3, 118656, Note_on_c, 1, 64, 118
3, 118656, Note_on_c, 1, 69, 118
3, 118784, Note_off_c, 1, 67, 75
3, 118784, Note_off_c, 1, 61, 75
3, 118784, Note_off_c, 1, 57, 75
3, 118784, Note_off_c, 1, 64, 75
3, 118784, Note_off_c, 1, 69, 75
3, 118848, Note_on_c, 1, 57, 118
3, 118848, Note_on_c, 1, 64, 118
3, 118848, Note_on_c, 1, 67, 118
3, 118848, Note_on_c, 1, 69, 118
3, 118976, Note_off_c, 1, 57, 75
3, 118976, Note_off_c, 1, 64, 75
3, 118976, Note_off_c, 1, 67, 75
3, 118976, Note_off_c, 1, 69, 75
3, 119040, Note_on_c, 1, 61, 118
3, 119040, Note_on_c, 1, 57, 118
3, 119040, Note_on_c, 1, 69, 118
3, 119040, Note_on_c, 1, 67, 118
3, 119296, Note_off_c, 1, 61, 75
3, 119296, Note_off_c, 1, 57, 75
3, 119296, Note_off_c, 1, 69, 75
3, 119296, Note_off_c, 1, 67, 75
3, 119424, Note_on_c, 1, 62, 118
3, 119424, Note_on_c, 1, 66, 118
3, 119424, Note_on_c, 1, 69, 118
3, 119552, Note_off_c, 1, 62, 75
3, 119552, Note_off_c, 1, 66, 75
3, 119552, Note_off_c, 1, 69, 75
3, 119808, Note_on_c, 1, 49, 118
3, 119808, Note_on_c, 1, 37, 118
3, 119904, Note_on_c, 1, 50, 118
3, 119904, Note_on_c, 1, 38, 118
3, 120000, Note_on_c, 1, 49, 118
3, 120000, Note_on_c, 1, 37, 118
3, 120096, Note_on_c, 1, 50, 118
3, 120096, Note_on_c, 1, 38, 118
3, 120192, Note_on_c, 1, 49, 118
3, 120192, Note_on_c, 1, 37, 118
3, 120288, Note_on_c, 1, 50, 118
3, 120288, Note_on_c, 1, 38, 118
3, 120320, Note_off_c, 1, 49, 75
3, 120320, Note_off_c, 1, 37, 75
3, 120320, Note_off_c, 1, 49, 75
3, 120384, Note_on_c, 1, 49, 118
3, 120384, Note_on_c, 1, 49, 118
3, 120384, Note_on_c, 1, 37, 118
3, 120416, Note_off_c, 1, 50, 75
3, 120416, Note_off_c, 1, 38, 75
3, 120416, Note_off_c, 1, 50, 75
3, 120512, Note_off_c, 1, 49, 75
3, 120512, Note_off_c, 1, 37, 75
3, 120512, Note_off_c, 1, 49, 75
3, 120512, Note_off_c, 1, 49, 75
3, 120512, Note_off_c, 1, 37, 75
3, 120576, Note_on_c, 1, 36, 118
3, 120576, Note_on_c, 1, 48, 118
3, 120608, Note_off_c, 1, 50, 75
3, 120608, Note_off_c, 1, 38, 75
3, 120640, Note_off_c, 1, 36, 75
3, 120640, Note_off_c, 1, 48, 75
3, 120672, Note_on_c, 1, 37, 118
3, 120672, Note_on_c, 1, 49, 118
3, 120704, Note_off_c, 1, 37, 75
3, 120736, Note_off_c, 1, 37, 75
3, 120736, Note_off_c, 1, 49, 75
3, 120768, Note_on_c, 1, 38, 118
3, 120768, Note_on_c, 1, 50, 118
3, 120800, Note_off_c, 1, 38, 75
3, 120832, Note_off_c, 1, 38, 75
3, 120832, Note_off_c, 1, 50, 75
3, 120864, Note_on_c, 1, 40, 118
3, 120864, Note_on_c, 1, 52, 118
3, 120928, Note_off_c, 1, 40, 75
3, 120928, Note_off_c, 1, 52, 75
3, 120960, Note_on_c, 1, 46, 118
3, 120960, Note_on_c, 1, 34, 118
3, 121088, Note_off_c, 1, 46, 75
3, 121088, Note_off_c, 1, 34, 75
3, 121152, Note_on_c, 1, 50, 118
3, 121152, Note_on_c, 1, 55, 118
3, 121152, Note_on_c, 1, 62, 118
3, 121216, Note_off_c, 1, 50, 75
3, 121216, Note_off_c, 1, 55, 75
3, 121216, Note_off_c, 1, 62, 75
3, 121248, Note_on_c, 1, 50, 118
3, 121248, Note_on_c, 1, 55, 118
3, 121248, Note_on_c, 1, 62, 118
3, 121312, Note_off_c, 1, 50, 75
3, 121312, Note_off_c, 1, 55, 75
3, 121312, Note_off_c, 1, 62, 75
3, 121344, Note_on_c, 1, 50, 118
3, 121344, Note_on_c, 1, 55, 118
3, 121344, Note_on_c, 1, 62, 118
3, 121472, Note_off_c, 1, 50, 75
3, 121472, Note_off_c, 1, 55, 75
3, 121472, Note_off_c, 1, 62, 75
3, 121536, Note_on_c, 1, 50, 118
3, 121536, Note_on_c, 1, 55, 118
3, 121536, Note_on_c, 1, 62, 118
3, 121664, Note_off_c, 1, 50, 75
3, 121664, Note_off_c, 1, 55, 75
3, 121664, Note_off_c, 1, 62, 75
3, 121728, Note_on_c, 1, 50, 118
3, 121728, Note_on_c, 1, 55, 118
3, 121728, Note_on_c, 1, 62, 118
3, 121856, Note_off_c, 1, 50, 75
3, 121856, Note_off_c, 1, 55, 75
3, 121856, Note_off_c, 1, 62, 75
3, 121920, Note_on_c, 1, 50, 118
3, 121920, Note_on_c, 1, 55, 118
3, 121920, Note_on_c, 1, 62, 118
3, 122048, Note_off_c, 1, 50, 75
3, 122048, Note_off_c, 1, 55, 75
3, 122048, Note_off_c, 1, 62, 75
3, 122112, Note_on_c, 1, 38, 118
3, 122112, Note_on_c, 1, 50, 118
3, 122208, Note_on_c, 1, 40, 118
3, 122208, Note_on_c, 1, 52, 118
3, 122304, Note_on_c, 1, 38, 118
3, 122304, Note_on_c, 1, 50, 118
3, 122400, Note_on_c, 1, 40, 118
3, 122400, Note_on_c, 1, 52, 118
3, 122496, Note_on_c, 1, 38, 118
3, 122496, Note_on_c, 1, 50, 118
3, 122592, Note_on_c, 1, 40, 118
3, 122592, Note_on_c, 1, 52, 118
3, 122624, Note_off_c, 1, 38, 75
3, 122624, Note_off_c, 1, 50, 75
3, 122688, Note_on_c, 1, 38, 118
3, 122688, Note_on_c, 1, 49, 118
3, 122720, Note_off_c, 1, 40, 75
3, 122720, Note_off_c, 1, 52, 75
3, 122784, Note_on_c, 1, 38, 118
3, 122784, Note_on_c, 1, 50, 118
3, 122816, Note_off_c, 1, 38, 75
3, 122816, Note_off_c, 1, 50, 75
3, 122880, Note_on_c, 1, 37, 118
3, 122880, Note_on_c, 1, 49, 118
3, 122912, Note_off_c, 1, 40, 75
3, 122912, Note_off_c, 1, 52, 75
3, 122912, Note_off_c, 1, 40, 75
3, 122912, Note_off_c, 1, 52, 75
3, 122944, Note_off_c, 1, 37, 75
3, 122944, Note_off_c, 1, 49, 75
3, 122976, Note_on_c, 1, 38, 118
3, 122976, Note_on_c, 1, 50, 118
3, 123008, Note_off_c, 1, 38, 75
3, 123008, Note_off_c, 1, 50, 75
3, 123008, Note_off_c, 1, 38, 75
3, 123008, Note_off_c, 1, 38, 75
3, 123008, Note_off_c, 1, 50, 75
3, 123040, Note_off_c, 1, 38, 75
3, 123040, Note_off_c, 1, 50, 75
3, 123072, Note_on_c, 1, 40, 118
3, 123072, Note_on_c, 1, 52, 118
3, 123136, Note_off_c, 1, 40, 75
3, 123136, Note_off_c, 1, 52, 75
3, 123168, Note_on_c, 1, 41, 118
3, 123168, Note_on_c, 1, 53, 118
3, 123200, Note_off_c, 1, 49, 75
3, 123232, Note_off_c, 1, 41, 75
3, 123232, Note_off_c, 1, 53, 75
3, 123264, Note_on_c, 1, 47, 118
3, 123264, Note_on_c, 1, 35, 118
3, 123392, Note_off_c, 1, 47, 75
3, 123392, Note_off_c, 1, 35, 75
3, 123456, Note_on_c, 1, 50, 118
3, 123456, Note_on_c, 1, 56, 118
3, 123456, Note_on_c, 1, 62, 118
3, 123520, Note_off_c, 1, 50, 75
3, 123520, Note_off_c, 1, 56, 75
3, 123520, Note_off_c, 1, 62, 75
3, 123552, Note_on_c, 1, 50, 118
3, 123552, Note_on_c, 1, 56, 118
3, 123552, Note_on_c, 1, 62, 118
3, 123616, Note_off_c, 1, 50, 75
3, 123616, Note_off_c, 1, 56, 75
3, 123616, Note_off_c, 1, 62, 75
3, 123648, Note_on_c, 1, 50, 118
3, 123648, Note_on_c, 1, 56, 118
3, 123648, Note_on_c, 1, 62, 118
3, 123776, Note_off_c, 1, 50, 75
3, 123776, Note_off_c, 1, 56, 75
3, 123776, Note_off_c, 1, 62, 75
3, 123840, Note_on_c, 1, 50, 118
3, 123840, Note_on_c, 1, 56, 118
3, 123840, Note_on_c, 1, 62, 118
3, 123968, Note_off_c, 1, 50, 75
3, 123968, Note_off_c, 1, 56, 75
3, 123968, Note_off_c, 1, 62, 75
3, 124032, Note_on_c, 1, 50, 118
3, 124032, Note_on_c, 1, 56, 118
3, 124032, Note_on_c, 1, 62, 118
3, 124160, Note_off_c, 1, 50, 75
3, 124160, Note_off_c, 1, 56, 75
3, 124160, Note_off_c, 1, 62, 75
3, 124224, Note_on_c, 1, 50, 118
3, 124224, Note_on_c, 1, 56, 118
3, 124224, Note_on_c, 1, 62, 118
3, 124352, Note_off_c, 1, 50, 75
3, 124352, Note_off_c, 1, 56, 75
3, 124352, Note_off_c, 1, 62, 75
3, 124416, Note_on_c, 1, 50, 118
3, 124416, Note_on_c, 1, 38, 118
3, 124512, Note_on_c, 1, 52, 118
3, 124512, Note_on_c, 1, 40, 118
3, 124608, Note_on_c, 1, 52, 118
3, 124608, Note_on_c, 1, 40, 118
3, 124640, Note_off_c, 1, 52, 75
3, 124640, Note_off_c, 1, 40, 75
3, 124704, Note_on_c, 1, 50, 118
3, 124704, Note_on_c, 1, 38, 118
3, 124800, Note_on_c, 1, 50, 118
3, 124800, Note_on_c, 1, 38, 118
3, 124832, Note_off_c, 1, 50, 75
3, 124832, Note_off_c, 1, 38, 75
3, 124896, Note_on_c, 1, 52, 118
3, 124896, Note_on_c, 1, 40, 118
3, 124928, Note_off_c, 1, 50, 75
3, 124928, Note_off_c, 1, 38, 75
3, 124992, Note_on_c, 1, 52, 118
3, 124992, Note_on_c, 1, 40, 118
3, 125024, Note_off_c, 1, 52, 75
3, 125024, Note_off_c, 1, 40, 75
3, 125088, Note_on_c, 1, 50, 118
3, 125088, Note_on_c, 1, 38, 118
3, 125120, Note_off_c, 1, 52, 75
3, 125120, Note_off_c, 1, 40, 75
3, 125184, Note_on_c, 1, 37, 118
3, 125184, Note_on_c, 1, 49, 118
3, 125216, Note_off_c, 1, 50, 75
3, 125216, Note_off_c, 1, 38, 75
3, 125248, Note_off_c, 1, 37, 75
3, 125248, Note_off_c, 1, 49, 75
3, 125280, Note_on_c, 1, 38, 118
3, 125280, Note_on_c, 1, 50, 118
3, 125312, Note_off_c, 1, 50, 75
3, 125312, Note_off_c, 1, 38, 75
3, 125344, Note_off_c, 1, 38, 75
3, 125344, Note_off_c, 1, 50, 75
3, 125376, Note_on_c, 1, 41, 118
3, 125376, Note_on_c, 1, 53, 118
3, 125440, Note_off_c, 1, 41, 75
3, 125440, Note_off_c, 1, 53, 75
3, 125472, Note_on_c, 1, 42, 118
3, 125472, Note_on_c, 1, 54, 118
3, 125504, Note_off_c, 1, 52, 75
3, 125504, Note_off_c, 1, 40, 75
3, 125536, Note_off_c, 1, 42, 75
3, 125536, Note_off_c, 1, 54, 75
3, 125568, Note_on_c, 1, 48, 118
3, 125568, Note_on_c, 1, 36, 118
3, 125696, Note_off_c, 1, 48, 75
3, 125696, Note_off_c, 1, 36, 75
3, 125760, Note_on_c, 1, 54, 118
3, 125760, Note_on_c, 1, 50, 118
3, 125760, Note_on_c, 1, 62, 118
3, 125824, Note_off_c, 1, 54, 75
3, 125824, Note_off_c, 1, 50, 75
3, 125824, Note_off_c, 1, 62, 75
3, 125856, Note_on_c, 1, 54, 118
3, 125856, Note_on_c, 1, 50, 118
3, 125856, Note_on_c, 1, 62, 118
3, 125920, Note_off_c, 1, 54, 75
3, 125920, Note_off_c, 1, 50, 75
3, 125920, Note_off_c, 1, 62, 75
3, 125952, Note_on_c, 1, 50, 118
3, 125952, Note_on_c, 1, 54, 118
3, 125952, Note_on_c, 1, 62, 118
3, 126080, Note_off_c, 1, 50, 75
3, 126080, Note_off_c, 1, 54, 75
3, 126080, Note_off_c, 1, 62, 75
3, 126144, Note_on_c, 1, 50, 118
3, 126144, Note_on_c, 1, 54, 118
3, 126144, Note_on_c, 1, 62, 118
3, 126272, Note_off_c, 1, 50, 75
3, 126272, Note_off_c, 1, 54, 75
3, 126272, Note_off_c, 1, 62, 75
3, 126336, Note_on_c, 1, 37, 118
3, 126336, Note_on_c, 1, 49, 118
3, 126400, Note_off_c, 1, 37, 75
3, 126400, Note_off_c, 1, 49, 75
3, 126432, Note_on_c, 1, 38, 118
3, 126432, Note_on_c, 1, 50, 118
3, 126496, Note_off_c, 1, 38, 75
3, 126496, Note_off_c, 1, 50, 75
3, 126528, Note_on_c, 1, 42, 118
3, 126528, Note_on_c, 1, 54, 118
3, 126592, Note_off_c, 1, 42, 75
3, 126592, Note_off_c, 1, 54, 75
3, 126624, Note_on_c, 1, 43, 118
3, 126624, Note_on_c, 1, 55, 118
3, 126688, Note_off_c, 1, 43, 75
3, 126688, Note_off_c, 1, 55, 75
3, 126720, Note_on_c, 1, 47, 118
3, 126720, Note_on_c, 1, 35, 118
3, 126848, Note_off_c, 1, 47, 75
3, 126848, Note_off_c, 1, 35, 75
3, 126912, Note_on_c, 1, 50, 118
3, 126912, Note_on_c, 1, 55, 118
3, 126912, Note_on_c, 1, 62, 118
3, 126976, Note_off_c, 1, 50, 75
3, 126976, Note_off_c, 1, 55, 75
3, 126976, Note_off_c, 1, 62, 75
3, 127008, Note_on_c, 1, 50, 118
3, 127008, Note_on_c, 1, 55, 118
3, 127008, Note_on_c, 1, 62, 118
3, 127072, Note_off_c, 1, 50, 75
3, 127072, Note_off_c, 1, 55, 75
3, 127072, Note_off_c, 1, 62, 75
3, 127104, Note_on_c, 1, 62, 118
3, 127104, Note_on_c, 1, 62, 118
3, 127104, Note_on_c, 1, 55, 118
3, 127104, Note_on_c, 1, 50, 118
3, 127232, Note_off_c, 1, 62, 75
3, 127232, Note_off_c, 1, 62, 75
3, 127232, Note_off_c, 1, 55, 75
3, 127232, Note_off_c, 1, 50, 75
3, 127296, Note_on_c, 1, 46, 118
3, 127296, Note_on_c, 1, 34, 118
3, 127360, Note_off_c, 1, 46, 75
3, 127360, Note_off_c, 1, 34, 75
3, 127392, Note_on_c, 1, 46, 118
3, 127392, Note_on_c, 1, 34, 118
3, 127456, Note_off_c, 1, 46, 75
3, 127456, Note_off_c, 1, 34, 75
3, 127488, Note_on_c, 1, 46, 118
3, 127488, Note_on_c, 1, 34, 118
3, 127616, Note_off_c, 1, 46, 75
3, 127616, Note_off_c, 1, 34, 75
3, 127680, Note_on_c, 1, 46, 118
3, 127680, Note_on_c, 1, 34, 118
3, 127808, Note_off_c, 1, 46, 75
3, 127808, Note_off_c, 1, 34, 75
3, 127872, Note_on_c, 1, 33, 118
3, 127872, Note_on_c, 1, 45, 118
3, 128000, Note_off_c, 1, 33, 75
3, 128000, Note_off_c, 1, 45, 75
3, 128064, Note_on_c, 1, 35, 118
3, 128064, Note_on_c, 1, 59, 118
3, 128064, Note_on_c, 1, 59, 118
3, 128064, Note_on_c, 1, 47, 118
3, 128160, Note_on_c, 1, 62, 118
3, 128160, Note_on_c, 1, 49, 118
3, 128192, Note_off_c, 1, 35, 75
3, 128192, Note_off_c, 1, 59, 75
3, 128192, Note_off_c, 1, 59, 75
3, 128192, Note_off_c, 1, 47, 75
3, 128256, Note_on_c, 1, 33, 118
3, 128256, Note_on_c, 1, 45, 118
3, 128256, Note_on_c, 1, 45, 118
3, 128256, Note_on_c, 1, 57, 118
3, 128288, Note_off_c, 1, 62, 75
3, 128288, Note_off_c, 1, 49, 75
3, 128352, Note_on_c, 1, 61, 118
3, 128352, Note_on_c, 1, 47, 118
3, 128352, Note_on_c, 1, 35, 118
3, 128384, Note_off_c, 1, 33, 75
3, 128384, Note_off_c, 1, 45, 75
3, 128384, Note_off_c, 1, 45, 75
3, 128384, Note_off_c, 1, 57, 75
3, 128448, Note_on_c, 1, 31, 118
3, 128448, Note_on_c, 1, 43, 118
3, 128448, Note_on_c, 1, 55, 118
3, 128480, Note_off_c, 1, 61, 75
3, 128480, Note_off_c, 1, 47, 75
3, 128480, Note_off_c, 1, 35, 75
3, 128544, Note_on_c, 1, 57, 118
3, 128544, Note_on_c, 1, 45, 118
3, 128544, Note_on_c, 1, 33, 118
3, 128576, Note_off_c, 1, 31, 75
3, 128576, Note_off_c, 1, 43, 75
3, 128576, Note_off_c, 1, 55, 75
3, 128640, Note_on_c, 1, 30, 118
3, 128640, Note_on_c, 1, 42, 118
3, 128640, Note_on_c, 1, 54, 118
3, 128672, Note_off_c, 1, 57, 75
3, 128672, Note_off_c, 1, 45, 75
3, 128672, Note_off_c, 1, 33, 75
3, 128736, Note_on_c, 1, 55, 118
3, 128736, Note_on_c, 1, 43, 118
3, 128768, Note_off_c, 1, 30, 75
3, 128768, Note_off_c, 1, 42, 75
3, 128768, Note_off_c, 1, 54, 75
3, 128832, Note_on_c, 1, 28, 118
3, 128832, Note_on_c, 1, 40, 118
3, 128832, Note_on_c, 1, 52, 118
3, 128864, Note_off_c, 1, 55, 75
3, 128864, Note_off_c, 1, 43, 75
3, 128928, Note_on_c, 1, 54, 118
3, 128928, Note_on_c, 1, 42, 118
3, 128960, Note_off_c, 1, 28, 75
3, 128960, Note_off_c, 1, 40, 75
3, 128960, Note_off_c, 1, 52, 75
3, 128992, Note_off_c, 1, 54, 75
3, 128992, Note_off_c, 1, 42, 75
3, 129024, Note_on_c, 1, 26, 118
3, 129024, Note_on_c, 1, 38, 118
3, 129152, Note_off_c, 1, 26, 75
3, 129152, Note_off_c, 1, 38, 75
3, 129216, Note_on_c, 1, 54, 118
3, 129216, Note_on_c, 1, 57, 118
3, 129216, Note_on_c, 1, 62, 118
3, 129280, Note_off_c, 1, 54, 75
3, 129280, Note_off_c, 1, 57, 75
3, 129280, Note_off_c, 1, 62, 75
3, 129312, Note_on_c, 1, 54, 118
3, 129312, Note_on_c, 1, 57, 118
3, 129312, Note_on_c, 1, 62, 118
3, 129376, Note_off_c, 1, 54, 75
3, 129376, Note_off_c, 1, 57, 75
3, 129376, Note_off_c, 1, 62, 75
3, 129408, Note_on_c, 1, 54, 118
3, 129408, Note_on_c, 1, 57, 118
3, 129408, Note_on_c, 1, 62, 118
3, 129536, Note_off_c, 1, 54, 75
3, 129536, Note_off_c, 1, 57, 75
3, 129536, Note_off_c, 1, 62, 75
3, 129600, Note_on_c, 1, 54, 118
3, 129600, Note_on_c, 1, 57, 118
3, 129600, Note_on_c, 1, 62, 118
3, 129728, Note_off_c, 1, 54, 75
3, 129728, Note_off_c, 1, 57, 75
3, 129728, Note_off_c, 1, 62, 75
3, 129792, Note_on_c, 1, 55, 118
3, 129792, Note_on_c, 1, 57, 118
3, 129792, Note_on_c, 1, 61, 118
3, 129920, Note_off_c, 1, 55, 75
3, 129920, Note_off_c, 1, 57, 75
3, 129920, Note_off_c, 1, 61, 75
3, 129984, Note_on_c, 1, 55, 118
3, 129984, Note_on_c, 1, 57, 118
3, 129984, Note_on_c, 1, 61, 118
3, 130112, Note_off_c, 1, 55, 75
3, 130112, Note_off_c, 1, 57, 75
3, 130112, Note_off_c, 1, 61, 75
3, 130176, Note_on_c, 1, 26, 118
3, 130176, Note_on_c, 1, 38, 118
3, 130304, Note_off_c, 1, 26, 75
3, 130304, Note_off_c, 1, 38, 75
3, 130368, Note_on_c, 1, 54, 118
3, 130368, Note_on_c, 1, 50, 118
3, 130432, Note_off_c, 1, 54, 75
3, 130432, Note_off_c, 1, 50, 75
3, 130464, Note_on_c, 1, 54, 118
3, 130464, Note_on_c, 1, 50, 118
3, 130528, Note_off_c, 1, 54, 75
3, 130528, Note_off_c, 1, 50, 75
3, 130560, Note_on_c, 1, 54, 118
3, 130560, Note_on_c, 1, 50, 118
3, 130688, Note_off_c, 1, 54, 75
3, 130688, Note_off_c, 1, 50, 75
3, 130752, Note_on_c, 1, 57, 118
3, 130752, Note_on_c, 1, 54, 118
3, 130880, Note_off_c, 1, 57, 75
3, 130880, Note_off_c, 1, 54, 75
3, 130944, Note_on_c, 1, 52, 118
3, 130944, Note_on_c, 1, 55, 118
3, 130944, Note_on_c, 1, 57, 118
3, 131072, Note_off_c, 1, 52, 75
3, 131072, Note_off_c, 1, 55, 75
3, 131072, Note_off_c, 1, 57, 75
3, 131136, Note_on_c, 1, 50, 118
3, 131136, Note_on_c, 1, 54, 118
3, 131136, Note_on_c, 1, 57, 118
3, 131264, Note_off_c, 1, 50, 75
3, 131264, Note_off_c, 1, 54, 75
3, 131264, Note_off_c, 1, 57, 75
3, 131328, Note_on_c, 1, 45, 118
3, 131328, Note_on_c, 1, 33, 118
3, 131456, Note_off_c, 1, 45, 75
3, 131456, Note_off_c, 1, 33, 75
3, 131520, Note_on_c, 1, 49, 118
3, 131520, Note_on_c, 1, 52, 118
3, 131520, Note_on_c, 1, 57, 118
3, 131584, Note_off_c, 1, 49, 75
3, 131584, Note_off_c, 1, 52, 75
3, 131584, Note_off_c, 1, 57, 75
3, 131616, Note_on_c, 1, 49, 118
3, 131616, Note_on_c, 1, 52, 118
3, 131616, Note_on_c, 1, 57, 118
3, 131680, Note_off_c, 1, 49, 75
3, 131680, Note_off_c, 1, 52, 75
3, 131680, Note_off_c, 1, 57, 75
3, 131712, Note_on_c, 1, 49, 118
3, 131712, Note_on_c, 1, 52, 118
3, 131712, Note_on_c, 1, 57, 118
3, 131840, Note_off_c, 1, 49, 75
3, 131840, Note_off_c, 1, 52, 75
3, 131840, Note_off_c, 1, 57, 75
3, 131904, Note_on_c, 1, 49, 118
3, 131904, Note_on_c, 1, 52, 118
3, 131904, Note_on_c, 1, 57, 118
3, 132032, Note_off_c, 1, 49, 75
3, 132032, Note_off_c, 1, 52, 75
3, 132032, Note_off_c, 1, 57, 75
3, 132096, Note_on_c, 1, 47, 118
3, 132096, Note_on_c, 1, 50, 118
3, 132096, Note_on_c, 1, 57, 118
3, 132224, Note_off_c, 1, 47, 75
3, 132224, Note_off_c, 1, 50, 75
3, 132224, Note_off_c, 1, 57, 75
3, 132288, Note_on_c, 1, 47, 118
3, 132288, Note_on_c, 1, 50, 118
3, 132288, Note_on_c, 1, 57, 118
3, 132416, Note_off_c, 1, 47, 75
3, 132416, Note_off_c, 1, 50, 75
3, 132416, Note_off_c, 1, 57, 75
3, 132480, Note_on_c, 1, 45, 118
3, 132480, Note_on_c, 1, 33, 118
3, 132480, Note_on_c, 1, 57, 118
3, 132608, Note_off_c, 1, 45, 75
3, 132608, Note_off_c, 1, 33, 75
3, 132608, Note_off_c, 1, 57, 75
3, 132672, Note_on_c, 1, 45, 118
3, 132672, Note_on_c, 1, 49, 118
3, 132736, Note_off_c, 1, 45, 75
3, 132736, Note_off_c, 1, 49, 75
3, 132768, Note_on_c, 1, 45, 118
3, 132768, Note_on_c, 1, 49, 118
3, 132768, Note_on_c, 1, 52, 118
3, 132832, Note_off_c, 1, 45, 75
3, 132832, Note_off_c, 1, 49, 75
3, 132832, Note_off_c, 1, 52, 75
3, 132864, Note_on_c, 1, 57, 118
3, 132864, Note_on_c, 1, 49, 118
3, 132864, Note_on_c, 1, 45, 118
3, 132992, Note_off_c, 1, 49, 75
3, 132992, Note_off_c, 1, 45, 75
3, 133056, Note_on_c, 1, 49, 118
3, 133056, Note_on_c, 1, 52, 118
3, 133184, Note_off_c, 1, 49, 75
3, 133184, Note_off_c, 1, 52, 75
3, 133248, Note_on_c, 1, 47, 118
3, 133248, Note_on_c, 1, 50, 118
3, 133248, Note_on_c, 1, 52, 118
3, 133376, Note_off_c, 1, 57, 75
3, 133376, Note_off_c, 1, 47, 75
3, 133376, Note_off_c, 1, 50, 75
3, 133376, Note_off_c, 1, 52, 75
3, 133440, Note_on_c, 1, 45, 118
3, 133440, Note_on_c, 1, 49, 118
3, 133440, Note_on_c, 1, 52, 118
3, 133568, Note_off_c, 1, 45, 75
3, 133568, Note_off_c, 1, 49, 75
3, 133568, Note_off_c, 1, 52, 75
3, 133632, Note_on_c, 1, 31, 118
3, 133632, Note_on_c, 1, 43, 118
3, 133632, Note_on_c, 1, 59, 118
3, 133728, Note_on_c, 1, 43, 118
3, 133728, Note_on_c, 1, 55, 118
3, 133760, Note_off_c, 1, 31, 75
3, 133760, Note_off_c, 1, 43, 75
3, 133760, Note_off_c, 1, 59, 75
3, 133792, Note_off_c, 1, 43, 75
3, 133792, Note_off_c, 1, 55, 75
3, 133920, Note_on_c, 1, 43, 118
3, 133920, Note_on_c, 1, 55, 118
3, 133984, Note_off_c, 1, 43, 75
3, 133984, Note_off_c, 1, 55, 75
3, 134016, Note_on_c, 1, 55, 118
3, 134016, Note_on_c, 1, 43, 118
3, 134144, Note_off_c, 1, 55, 75
3, 134144, Note_off_c, 1, 43, 75
3, 134208, Note_on_c, 1, 54, 118
3, 134208, Note_on_c, 1, 42, 118
3, 134336, Note_off_c, 1, 54, 75
3, 134336, Note_off_c, 1, 42, 75
3, 134400, Note_on_c, 1, 47, 118
3, 134400, Note_on_c, 1, 35, 118
3, 134528, Note_off_c, 1, 47, 75
3, 134528, Note_off_c, 1, 35, 75
3, 134592, Note_on_c, 1, 45, 118
3, 134592, Note_on_c, 1, 33, 118
3, 134720, Note_off_c, 1, 45, 75
3, 134720, Note_off_c, 1, 33, 75
3, 134784, Note_on_c, 1, 26, 118
3, 134784, Note_on_c, 1, 38, 118
3, 134880, Note_on_c, 1, 50, 118
3, 134880, Note_on_c, 1, 62, 118
3, 134912, Note_off_c, 1, 26, 75
3, 134912, Note_off_c, 1, 38, 75
3, 134944, Note_off_c, 1, 50, 75
3, 134944, Note_off_c, 1, 62, 75
3, 134976, Note_on_c, 1, 50, 118
3, 134976, Note_on_c, 1, 62, 118
3, 135040, Note_off_c, 1, 50, 75
3, 135040, Note_off_c, 1, 62, 75
3, 135168, Note_on_c, 1, 50, 118
3, 135168, Note_on_c, 1, 62, 118
3, 135168, Note_on_c, 1, 62, 118
3, 135296, Note_off_c, 1, 50, 75
3, 135296, Note_off_c, 1, 62, 75
3, 135296, Note_off_c, 1, 62, 75
3, 135360, Note_on_c, 1, 49, 118
3, 135360, Note_on_c, 1, 61, 118
3, 135488, Note_off_c, 1, 49, 75
3, 135488, Note_off_c, 1, 61, 75
3, 135552, Note_on_c, 1, 42, 118
3, 135552, Note_on_c, 1, 54, 118
3, 135680, Note_off_c, 1, 42, 75
3, 135680, Note_off_c, 1, 54, 75
3, 135744, Note_on_c, 1, 40, 118
3, 135744, Note_on_c, 1, 52, 118
3, 135872, Note_off_c, 1, 40, 75
3, 135872, Note_off_c, 1, 52, 75
3, 135936, Note_on_c, 1, 45, 118
3, 135936, Note_on_c, 1, 33, 118
3, 136064, Note_off_c, 1, 45, 75
3, 136064, Note_off_c, 1, 33, 75
3, 137280, Note_on_c, 1, 33, 118
3, 137280, Note_on_c, 1, 45, 118
3, 137344, Note_off_c, 1, 33, 75
3, 137344, Note_off_c, 1, 45, 75
3, 137376, Note_on_c, 1, 33, 118
3, 137376, Note_on_c, 1, 45, 118
3, 137440, Note_off_c, 1, 33, 75
3, 137440, Note_off_c, 1, 45, 75
3, 137472, Note_on_c, 1, 33, 118
3, 137472, Note_on_c, 1, 45, 118
3, 137600, Note_off_c, 1, 33, 75
3, 137600, Note_off_c, 1, 45, 75
3, 137664, Note_on_c, 1, 34, 118
3, 137664, Note_on_c, 1, 46, 118
3, 137728, Note_off_c, 1, 34, 75
3, 137728, Note_off_c, 1, 46, 75
3, 137760, Note_on_c, 1, 33, 118
3, 137760, Note_on_c, 1, 45, 118
3, 137824, Note_off_c, 1, 33, 75
3, 137824, Note_off_c, 1, 45, 75
3, 137856, Note_on_c, 1, 32, 118
3, 137856, Note_on_c, 1, 44, 118
3, 137920, Note_off_c, 1, 32, 75
3, 137920, Note_off_c, 1, 44, 75
3, 137952, Note_on_c, 1, 31, 118
3, 137952, Note_on_c, 1, 43, 118
3, 138016, Note_off_c, 1, 31, 75
3, 138016, Note_off_c, 1, 43, 75
3, 138048, Note_on_c, 1, 30, 118
3, 138048, Note_on_c, 1, 42, 118
3, 138112, Note_off_c, 1, 30, 75
3, 138112, Note_off_c, 1, 42, 75
3, 138144, Note_on_c, 1, 28, 118
3, 138144, Note_on_c, 1, 40, 118
3, 138208, Note_off_c, 1, 28, 75
3, 138208, Note_off_c, 1, 40, 75
3, 138240, Note_on_c, 1, 26, 118
3, 138240, Note_on_c, 1, 38, 118
3, 138368, Note_off_c, 1, 26, 75
3, 138368, Note_off_c, 1, 38, 75
3, 138432, Note_on_c, 1, 62, 118
3, 138432, Note_on_c, 1, 54, 118
3, 138432, Note_on_c, 1, 57, 118
3, 138496, Note_off_c, 1, 62, 75
3, 138496, Note_off_c, 1, 54, 75
3, 138496, Note_off_c, 1, 57, 75
3, 138528, Note_on_c, 1, 62, 118
3, 138528, Note_on_c, 1, 54, 118
3, 138528, Note_on_c, 1, 57, 118
3, 138592, Note_off_c, 1, 62, 75
3, 138592, Note_off_c, 1, 54, 75
3, 138592, Note_off_c, 1, 57, 75
3, 138624, Note_on_c, 1, 54, 118
3, 138624, Note_on_c, 1, 57, 118
3, 138624, Note_on_c, 1, 62, 118
3, 138752, Note_off_c, 1, 54, 75
3, 138752, Note_off_c, 1, 57, 75
3, 138752, Note_off_c, 1, 62, 75
3, 138816, Note_on_c, 1, 54, 118
3, 138816, Note_on_c, 1, 57, 118
3, 138816, Note_on_c, 1, 62, 118
3, 138944, Note_off_c, 1, 54, 75
3, 138944, Note_off_c, 1, 57, 75
3, 138944, Note_off_c, 1, 62, 75
3, 139008, Note_on_c, 1, 55, 118
3, 139008, Note_on_c, 1, 57, 118
3, 139008, Note_on_c, 1, 61, 118
3, 139136, Note_off_c, 1, 55, 75
3, 139136, Note_off_c, 1, 57, 75
3, 139136, Note_off_c, 1, 61, 75
3, 139200, Note_on_c, 1, 55, 118
3, 139200, Note_on_c, 1, 57, 118
3, 139200, Note_on_c, 1, 61, 118
3, 139328, Note_off_c, 1, 55, 75
3, 139328, Note_off_c, 1, 57, 75
3, 139328, Note_off_c, 1, 61, 75
3, 139392, Note_on_c, 1, 50, 118
3, 139392, Note_on_c, 1, 38, 118
3, 139520, Note_off_c, 1, 50, 75
3, 139520, Note_off_c, 1, 38, 75
3, 139584, Note_on_c, 1, 50, 118
3, 139584, Note_on_c, 1, 54, 118
3, 139584, Note_on_c, 1, 62, 118
3, 139648, Note_off_c, 1, 50, 75
3, 139648, Note_off_c, 1, 54, 75
3, 139648, Note_off_c, 1, 62, 75
3, 139680, Note_on_c, 1, 50, 118
3, 139680, Note_on_c, 1, 54, 118
3, 139680, Note_on_c, 1, 62, 118
3, 139744, Note_off_c, 1, 50, 75
3, 139744, Note_off_c, 1, 54, 75
3, 139744, Note_off_c, 1, 62, 75
3, 139776, Note_on_c, 1, 50, 118
3, 139776, Note_on_c, 1, 54, 118
3, 139776, Note_on_c, 1, 62, 118
3, 139904, Note_off_c, 1, 50, 75
3, 139904, Note_off_c, 1, 54, 75
3, 139904, Note_off_c, 1, 62, 75
3, 139968, Note_on_c, 1, 54, 118
3, 139968, Note_on_c, 1, 57, 118
3, 139968, Note_on_c, 1, 62, 118
3, 140096, Note_off_c, 1, 54, 75
3, 140096, Note_off_c, 1, 57, 75
3, 140096, Note_off_c, 1, 62, 75
3, 140160, Note_on_c, 1, 52, 118
3, 140160, Note_on_c, 1, 55, 118
3, 140160, Note_on_c, 1, 62, 118
3, 140288, Note_off_c, 1, 52, 75
3, 140288, Note_off_c, 1, 55, 75
3, 140288, Note_off_c, 1, 62, 75
3, 140352, Note_on_c, 1, 50, 118
3, 140352, Note_on_c, 1, 54, 118
3, 140352, Note_on_c, 1, 62, 118
3, 140480, Note_off_c, 1, 50, 75
3, 140480, Note_off_c, 1, 54, 75
3, 140480, Note_off_c, 1, 62, 75
3, 140544, Note_on_c, 1, 45, 118
3, 140544, Note_on_c, 1, 33, 118
3, 140672, Note_off_c, 1, 45, 75
3, 140672, Note_off_c, 1, 33, 75
3, 140736, Note_on_c, 1, 57, 118
3, 140736, Note_on_c, 1, 49, 118
3, 140736, Note_on_c, 1, 52, 118
3, 140800, Note_off_c, 1, 57, 75
3, 140800, Note_off_c, 1, 49, 75
3, 140800, Note_off_c, 1, 52, 75
3, 140832, Note_on_c, 1, 57, 118
3, 140832, Note_on_c, 1, 49, 118
3, 140832, Note_on_c, 1, 52, 118
3, 140896, Note_off_c, 1, 57, 75
3, 140896, Note_off_c, 1, 49, 75
3, 140896, Note_off_c, 1, 52, 75
3, 140928, Note_on_c, 1, 49, 118
3, 140928, Note_on_c, 1, 52, 118
3, 140928, Note_on_c, 1, 57, 118
3, 141056, Note_off_c, 1, 49, 75
3, 141056, Note_off_c, 1, 52, 75
3, 141056, Note_off_c, 1, 57, 75
3, 141120, Note_on_c, 1, 49, 118
3, 141120, Note_on_c, 1, 52, 118
3, 141120, Note_on_c, 1, 57, 118
3, 141248, Note_off_c, 1, 49, 75
3, 141248, Note_off_c, 1, 52, 75
3, 141248, Note_off_c, 1, 57, 75
3, 141312, Note_on_c, 1, 47, 118
3, 141312, Note_on_c, 1, 50, 118
3, 141312, Note_on_c, 1, 57, 118
3, 141440, Note_off_c, 1, 47, 75
3, 141440, Note_off_c, 1, 50, 75
3, 141440, Note_off_c, 1, 57, 75
3, 141504, Note_on_c, 1, 47, 118
3, 141504, Note_on_c, 1, 50, 118
3, 141504, Note_on_c, 1, 57, 118
3, 141632, Note_off_c, 1, 47, 75
3, 141632, Note_off_c, 1, 50, 75
3, 141632, Note_off_c, 1, 57, 75
3, 141696, Note_on_c, 1, 45, 118
3, 141696, Note_on_c, 1, 33, 118
3, 141824, Note_off_c, 1, 45, 75
3, 141824, Note_off_c, 1, 33, 75
3, 141888, Note_on_c, 1, 49, 118
3, 141888, Note_on_c, 1, 52, 118
3, 141888, Note_on_c, 1, 57, 118
3, 141952, Note_off_c, 1, 49, 75
3, 141952, Note_off_c, 1, 52, 75
3, 141952, Note_off_c, 1, 57, 75
3, 141984, Note_on_c, 1, 49, 118
3, 141984, Note_on_c, 1, 52, 118
3, 141984, Note_on_c, 1, 57, 118
3, 142048, Note_off_c, 1, 49, 75
3, 142048, Note_off_c, 1, 52, 75
3, 142048, Note_off_c, 1, 57, 75
3, 142080, Note_on_c, 1, 49, 118
3, 142080, Note_on_c, 1, 52, 118
3, 142080, Note_on_c, 1, 57, 118
3, 142208, Note_off_c, 1, 49, 75
3, 142208, Note_off_c, 1, 52, 75
3, 142208, Note_off_c, 1, 57, 75
3, 142272, Note_on_c, 1, 49, 118
3, 142272, Note_on_c, 1, 52, 118
3, 142272, Note_on_c, 1, 57, 118
3, 142400, Note_off_c, 1, 49, 75
3, 142400, Note_off_c, 1, 52, 75
3, 142400, Note_off_c, 1, 57, 75
3, 142464, Note_on_c, 1, 47, 118
3, 142464, Note_on_c, 1, 50, 118
3, 142464, Note_on_c, 1, 57, 118
3, 142592, Note_off_c, 1, 47, 75
3, 142592, Note_off_c, 1, 50, 75
3, 142592, Note_off_c, 1, 57, 75
3, 142656, Note_on_c, 1, 45, 118
3, 142656, Note_on_c, 1, 49, 118
3, 142656, Note_on_c, 1, 57, 118
3, 142784, Note_off_c, 1, 45, 75
3, 142784, Note_off_c, 1, 49, 75
3, 142784, Note_off_c, 1, 57, 75
3, 142848, Note_on_c, 1, 29, 118
3, 142848, Note_on_c, 1, 41, 118
3, 142976, Note_off_c, 1, 29, 75
3, 142976, Note_off_c, 1, 41, 75
3, 143040, Note_on_c, 1, 53, 118
3, 143040, Note_on_c, 1, 60, 118
3, 143040, Note_on_c, 1, 63, 118
3, 143040, Note_on_c, 1, 65, 118
3, 143104, Note_off_c, 1, 53, 75
3, 143104, Note_off_c, 1, 60, 75
3, 143104, Note_off_c, 1, 63, 75
3, 143104, Note_off_c, 1, 65, 75
3, 143136, Note_on_c, 1, 53, 118
3, 143136, Note_on_c, 1, 60, 118
3, 143136, Note_on_c, 1, 63, 118
3, 143136, Note_on_c, 1, 65, 118
3, 143200, Note_off_c, 1, 53, 75
3, 143200, Note_off_c, 1, 60, 75
3, 143200, Note_off_c, 1, 63, 75
3, 143200, Note_off_c, 1, 65, 75
3, 143232, Note_on_c, 1, 53, 118
3, 143232, Note_on_c, 1, 60, 118
3, 143232, Note_on_c, 1, 63, 118
3, 143232, Note_on_c, 1, 65, 118
3, 143360, Note_off_c, 1, 53, 75
3, 143360, Note_off_c, 1, 60, 75
3, 143360, Note_off_c, 1, 63, 75
3, 143360, Note_off_c, 1, 65, 75
3, 143424, Note_on_c, 1, 53, 118
3, 143424, Note_on_c, 1, 60, 118
3, 143424, Note_on_c, 1, 63, 118
3, 143424, Note_on_c, 1, 65, 118
3, 143488, Note_off_c, 1, 53, 75
3, 143488, Note_off_c, 1, 60, 75
3, 143488, Note_off_c, 1, 63, 75
3, 143488, Note_off_c, 1, 65, 75
3, 143520, Note_on_c, 1, 53, 118
3, 143520, Note_on_c, 1, 60, 118
3, 143520, Note_on_c, 1, 63, 118
3, 143520, Note_on_c, 1, 65, 118
3, 143584, Note_off_c, 1, 53, 75
3, 143584, Note_off_c, 1, 60, 75
3, 143584, Note_off_c, 1, 63, 75
3, 143584, Note_off_c, 1, 65, 75
3, 143616, Note_on_c, 1, 58, 118
3, 143616, Note_on_c, 1, 62, 118
3, 143616, Note_on_c, 1, 65, 118
3, 143744, Note_off_c, 1, 58, 75
3, 143744, Note_off_c, 1, 62, 75
3, 143744, Note_off_c, 1, 65, 75
3, 143808, Note_on_c, 1, 46, 118
3, 143808, Note_on_c, 1, 34, 118
3, 143936, Note_off_c, 1, 46, 75
3, 143936, Note_off_c, 1, 34, 75
3, 144000, Note_on_c, 1, 31, 118
3, 144000, Note_on_c, 1, 43, 118
3, 144128, Note_off_c, 1, 31, 75
3, 144128, Note_off_c, 1, 43, 75
3, 144192, Note_on_c, 1, 55, 118
3, 144192, Note_on_c, 1, 62, 118
3, 144192, Note_on_c, 1, 65, 118
3, 144192, Note_on_c, 1, 67, 118
3, 144256, Note_off_c, 1, 55, 75
3, 144256, Note_off_c, 1, 62, 75
3, 144256, Note_off_c, 1, 65, 75
3, 144256, Note_off_c, 1, 67, 75
3, 144288, Note_on_c, 1, 55, 118
3, 144288, Note_on_c, 1, 62, 118
3, 144288, Note_on_c, 1, 65, 118
3, 144288, Note_on_c, 1, 67, 118
3, 144352, Note_off_c, 1, 55, 75
3, 144352, Note_off_c, 1, 62, 75
3, 144352, Note_off_c, 1, 65, 75
3, 144352, Note_off_c, 1, 67, 75
3, 144384, Note_on_c, 1, 55, 118
3, 144384, Note_on_c, 1, 62, 118
3, 144384, Note_on_c, 1, 65, 118
3, 144384, Note_on_c, 1, 67, 118
3, 144512, Note_off_c, 1, 55, 75
3, 144512, Note_off_c, 1, 62, 75
3, 144512, Note_off_c, 1, 65, 75
3, 144512, Note_off_c, 1, 67, 75
3, 144576, Note_on_c, 1, 55, 118
3, 144576, Note_on_c, 1, 62, 118
3, 144576, Note_on_c, 1, 65, 118
3, 144576, Note_on_c, 1, 67, 118
3, 144640, Note_off_c, 1, 55, 75
3, 144640, Note_off_c, 1, 62, 75
3, 144640, Note_off_c, 1, 65, 75
3, 144640, Note_off_c, 1, 67, 75
3, 144672, Note_on_c, 1, 55, 118
3, 144672, Note_on_c, 1, 62, 118
3, 144672, Note_on_c, 1, 65, 118
3, 144672, Note_on_c, 1, 67, 118
3, 144736, Note_off_c, 1, 55, 75
3, 144736, Note_off_c, 1, 62, 75
3, 144736, Note_off_c, 1, 65, 75
3, 144736, Note_off_c, 1, 67, 75
3, 144768, Note_on_c, 1, 60, 118
3, 144768, Note_on_c, 1, 64, 118
3, 144768, Note_on_c, 1, 67, 118
3, 144896, Note_off_c, 1, 60, 75
3, 144896, Note_off_c, 1, 64, 75
3, 144896, Note_off_c, 1, 67, 75
3, 144960, Note_on_c, 1, 48, 118
3, 144960, Note_on_c, 1, 36, 118
3, 145088, Note_off_c, 1, 48, 75
3, 145088, Note_off_c, 1, 36, 75
3, 145152, Note_on_c, 1, 45, 118
3, 145152, Note_on_c, 1, 33, 118
3, 145280, Note_off_c, 1, 45, 75
3, 145280, Note_off_c, 1, 33, 75
3, 146304, Note_on_c, 1, 67, 118
3, 146304, Note_on_c, 1, 61, 118
3, 146304, Note_on_c, 1, 57, 118
3, 146304, Note_on_c, 1, 64, 118
3, 146304, Note_on_c, 1, 69, 118
3, 146432, Note_off_c, 1, 67, 75
3, 146432, Note_off_c, 1, 61, 75
3, 146432, Note_off_c, 1, 57, 75
3, 146432, Note_off_c, 1, 64, 75
3, 146432, Note_off_c, 1, 69, 75
3, 146496, Note_on_c, 1, 57, 118
3, 146496, Note_on_c, 1, 64, 118
3, 146496, Note_on_c, 1, 67, 118
3, 146496, Note_on_c, 1, 69, 118
3, 146624, Note_off_c, 1, 57, 75
3, 146624, Note_off_c, 1, 64, 75
3, 146624, Note_off_c, 1, 67, 75
3, 146624, Note_off_c, 1, 69, 75
3, 146688, Note_on_c, 1, 61, 118
3, 146688, Note_on_c, 1, 57, 118
3, 146688, Note_on_c, 1, 69, 118
3, 146688, Note_on_c, 1, 67, 118
3, 146944, Note_off_c, 1, 61, 75
3, 146944, Note_off_c, 1, 57, 75
3, 146944, Note_off_c, 1, 69, 75
3, 146944, Note_off_c, 1, 67, 75
3, 147072, Note_on_c, 1, 62, 118
3, 147072, Note_on_c, 1, 66, 118
3, 147072, Note_on_c, 1, 69, 118
3, 147200, Note_off_c, 1, 62, 75
3, 147200, Note_off_c, 1, 66, 75
3, 147200, Note_off_c, 1, 69, 75
3, 147456, Key_signature, 3, "major"
3, 147456, Note_on_c, 1, 45, 118
3, 147456, Note_on_c, 1, 33, 118
3, 147584, Note_off_c, 1, 45, 75
3, 147584, Note_off_c, 1, 33, 75
3, 147744, Note_on_c, 1, 45, 118
3, 147744, Note_on_c, 1, 52, 118
3, 147744, Note_on_c, 1, 57, 118
3, 147808, Note_off_c, 1, 45, 75
3, 147808, Note_off_c, 1, 52, 75
3, 147808, Note_off_c, 1, 57, 75
3, 147840, Note_on_c, 1, 45, 118
3, 147840, Note_on_c, 1, 52, 118
3, 147840, Note_on_c, 1, 57, 118
3, 147968, Note_off_c, 1, 45, 75
3, 147968, Note_off_c, 1, 52, 75
3, 147968, Note_off_c, 1, 57, 75
3, 148128, Note_on_c, 1, 45, 118
3, 148128, Note_on_c, 1, 52, 118
3, 148128, Note_on_c, 1, 59, 118
3, 148192, Note_off_c, 1, 45, 75
3, 148192, Note_off_c, 1, 52, 75
3, 148192, Note_off_c, 1, 59, 75
3, 148224, Note_on_c, 1, 45, 118
3, 148224, Note_on_c, 1, 52, 118
3, 148224, Note_on_c, 1, 59, 118
3, 148288, Note_off_c, 1, 45, 75
3, 148288, Note_off_c, 1, 52, 75
3, 148288, Note_off_c, 1, 59, 75
3, 148320, Note_on_c, 1, 45, 118
3, 148320, Note_on_c, 1, 52, 118
3, 148320, Note_on_c, 1, 59, 118
3, 148384, Note_off_c, 1, 45, 75
3, 148384, Note_off_c, 1, 52, 75
3, 148384, Note_off_c, 1, 59, 75
3, 148416, Note_on_c, 1, 45, 118
3, 148416, Note_on_c, 1, 52, 118
3, 148416, Note_on_c, 1, 59, 118
3, 148480, Note_off_c, 1, 45, 75
3, 148480, Note_off_c, 1, 52, 75
3, 148480, Note_off_c, 1, 59, 75
3, 148512, Note_on_c, 1, 45, 118
3, 148512, Note_on_c, 1, 52, 118
3, 148512, Note_on_c, 1, 59, 118
3, 148576, Note_off_c, 1, 45, 75
3, 148576, Note_off_c, 1, 52, 75
3, 148576, Note_off_c, 1, 59, 75
3, 148608, Note_on_c, 1, 57, 118
3, 148608, Note_on_c, 1, 52, 118
3, 148608, Note_on_c, 1, 45, 118
3, 148800, Note_off_c, 1, 57, 75
3, 148800, Note_off_c, 1, 52, 75
3, 148800, Note_off_c, 1, 45, 75
3, 148896, Note_on_c, 1, 45, 118
3, 148896, Note_on_c, 1, 52, 118
3, 148896, Note_on_c, 1, 52, 118
3, 148896, Note_on_c, 1, 57, 118
3, 148960, Note_off_c, 1, 45, 75
3, 148960, Note_off_c, 1, 52, 75
3, 148960, Note_off_c, 1, 52, 75
3, 148960, Note_off_c, 1, 57, 75
3, 148992, Note_on_c, 1, 57, 118
3, 148992, Note_on_c, 1, 52, 118
3, 148992, Note_on_c, 1, 45, 118
3, 149088, Note_on_c, 1, 56, 118
3, 149088, Note_on_c, 1, 44, 118
3, 149120, Note_off_c, 1, 57, 75
3, 149120, Note_off_c, 1, 52, 75
3, 149120, Note_off_c, 1, 45, 75
3, 149152, Note_off_c, 1, 56, 75
3, 149152, Note_off_c, 1, 44, 75
3, 149184, Note_on_c, 1, 45, 118
3, 149184, Note_on_c, 1, 57, 118
3, 149248, Note_off_c, 1, 45, 75
3, 149248, Note_off_c, 1, 57, 75
3, 149280, Note_on_c, 1, 47, 118
3, 149280, Note_on_c, 1, 59, 118
3, 149344, Note_off_c, 1, 47, 75
3, 149344, Note_off_c, 1, 59, 75
3, 149376, Note_on_c, 1, 57, 118
3, 149376, Note_on_c, 1, 45, 118
3, 149504, Note_off_c, 1, 57, 75
3, 149504, Note_off_c, 1, 45, 75
3, 149568, Note_on_c, 1, 52, 118
3, 149568, Note_on_c, 1, 40, 118
3, 149696, Note_off_c, 1, 52, 75
3, 149696, Note_off_c, 1, 40, 75
3, 149760, Note_on_c, 1, 45, 118
3, 149760, Note_on_c, 1, 33, 118
3, 149888, Note_off_c, 1, 45, 75
3, 149888, Note_off_c, 1, 33, 75
3, 150048, Note_on_c, 1, 45, 118
3, 150048, Note_on_c, 1, 52, 118
3, 150048, Note_on_c, 1, 57, 118
3, 150112, Note_off_c, 1, 45, 75
3, 150112, Note_off_c, 1, 52, 75
3, 150112, Note_off_c, 1, 57, 75
3, 150144, Note_on_c, 1, 45, 118
3, 150144, Note_on_c, 1, 52, 118
3, 150144, Note_on_c, 1, 57, 118
3, 150272, Note_off_c, 1, 45, 75
3, 150272, Note_off_c, 1, 52, 75
3, 150272, Note_off_c, 1, 57, 75
3, 150432, Note_on_c, 1, 57, 118
3, 150432, Note_on_c, 1, 52, 118
3, 150432, Note_on_c, 1, 45, 118
3, 150496, Note_off_c, 1, 57, 75
3, 150496, Note_off_c, 1, 52, 75
3, 150496, Note_off_c, 1, 45, 75
3, 150528, Note_on_c, 1, 57, 118
3, 150528, Note_on_c, 1, 52, 118
3, 150528, Note_on_c, 1, 45, 118
3, 150592, Note_off_c, 1, 57, 75
3, 150592, Note_off_c, 1, 52, 75
3, 150592, Note_off_c, 1, 45, 75
3, 150624, Note_on_c, 1, 45, 118
3, 150624, Note_on_c, 1, 52, 118
3, 150624, Note_on_c, 1, 57, 118
3, 150688, Note_off_c, 1, 45, 75
3, 150688, Note_off_c, 1, 52, 75
3, 150688, Note_off_c, 1, 57, 75
3, 150720, Note_on_c, 1, 45, 118
3, 150720, Note_on_c, 1, 52, 118
3, 150720, Note_on_c, 1, 57, 118
3, 150784, Note_off_c, 1, 45, 75
3, 150784, Note_off_c, 1, 52, 75
3, 150784, Note_off_c, 1, 57, 75
3, 150816, Note_on_c, 1, 45, 118
3, 150816, Note_on_c, 1, 52, 118
3, 150816, Note_on_c, 1, 59, 118
3, 150880, Note_off_c, 1, 45, 75
3, 150880, Note_off_c, 1, 52, 75
3, 150880, Note_off_c, 1, 59, 75
3, 150912, Note_on_c, 1, 60, 118
3, 150912, Note_on_c, 1, 54, 118
3, 150912, Note_on_c, 1, 51, 118
3, 150912, Note_on_c, 1, 45, 118
3, 151104, Note_off_c, 1, 60, 75
3, 151104, Note_off_c, 1, 54, 75
3, 151104, Note_off_c, 1, 51, 75
3, 151104, Note_off_c, 1, 45, 75
3, 151200, Note_on_c, 1, 52, 118
3, 151200, Note_on_c, 1, 57, 118
3, 151200, Note_on_c, 1, 61, 118
3, 151264, Note_off_c, 1, 52, 75
3, 151264, Note_off_c, 1, 57, 75
3, 151264, Note_off_c, 1, 61, 75
3, 151296, Note_on_c, 1, 52, 118
3, 151296, Note_on_c, 1, 57, 118
3, 151296, Note_on_c, 1, 61, 118
3, 151392, Note_on_c, 1, 44, 118
3, 151392, Note_on_c, 1, 56, 118
3, 151424, Note_off_c, 1, 52, 75
3, 151424, Note_off_c, 1, 57, 75
3, 151424, Note_off_c, 1, 61, 75
3, 151456, Note_off_c, 1, 44, 75
3, 151456, Note_off_c, 1, 56, 75
3, 151488, Note_on_c, 1, 45, 118
3, 151488, Note_on_c, 1, 57, 118
3, 151552, Note_off_c, 1, 45, 75
3, 151552, Note_off_c, 1, 57, 75
3, 151584, Note_on_c, 1, 47, 118
3, 151584, Note_on_c, 1, 59, 118
3, 151648, Note_off_c, 1, 47, 75
3, 151648, Note_off_c, 1, 59, 75
3, 151680, Note_on_c, 1, 57, 118
3, 151680, Note_on_c, 1, 45, 118
3, 151808, Note_off_c, 1, 57, 75
3, 151808, Note_off_c, 1, 45, 75
3, 151872, Note_on_c, 1, 52, 118
3, 151872, Note_on_c, 1, 40, 118
3, 152000, Note_off_c, 1, 52, 75
3, 152000, Note_off_c, 1, 40, 75
3, 152064, Note_on_c, 1, 32, 118
3, 152064, Note_on_c, 1, 44, 118
3, 152160, Note_on_c, 1, 53, 118
3, 152160, Note_on_c, 1, 56, 118
3, 152160, Note_on_c, 1, 61, 118
3, 152160, Note_on_c, 1, 65, 118
3, 152192, Note_off_c, 1, 32, 75
3, 152192, Note_off_c, 1, 44, 75
3, 152224, Note_off_c, 1, 53, 75
3, 152224, Note_off_c, 1, 56, 75
3, 152224, Note_off_c, 1, 61, 75
3, 152224, Note_off_c, 1, 65, 75
3, 152256, Note_on_c, 1, 53, 118
3, 152256, Note_on_c, 1, 56, 118
3, 152256, Note_on_c, 1, 61, 118
3, 152256, Note_on_c, 1, 65, 118
3, 152320, Note_off_c, 1, 53, 75
3, 152320, Note_off_c, 1, 56, 75
3, 152320, Note_off_c, 1, 61, 75
3, 152320, Note_off_c, 1, 65, 75
3, 152352, Note_on_c, 1, 53, 118
3, 152352, Note_on_c, 1, 56, 118
3, 152352, Note_on_c, 1, 61, 118
3, 152352, Note_on_c, 1, 65, 118
3, 152416, Note_off_c, 1, 53, 75
3, 152416, Note_off_c, 1, 56, 75
3, 152416, Note_off_c, 1, 61, 75
3, 152416, Note_off_c, 1, 65, 75
3, 152448, Note_on_c, 1, 53, 118
3, 152448, Note_on_c, 1, 56, 118
3, 152448, Note_on_c, 1, 61, 118
3, 152448, Note_on_c, 1, 65, 118
3, 152576, Note_off_c, 1, 53, 75
3, 152576, Note_off_c, 1, 56, 75
3, 152576, Note_off_c, 1, 61, 75
3, 152576, Note_off_c, 1, 65, 75
3, 152640, Note_on_c, 1, 53, 118
3, 152640, Note_on_c, 1, 56, 118
3, 152640, Note_on_c, 1, 61, 118
3, 152640, Note_on_c, 1, 65, 118
3, 152768, Note_off_c, 1, 53, 75
3, 152768, Note_off_c, 1, 56, 75
3, 152768, Note_off_c, 1, 61, 75
3, 152768, Note_off_c, 1, 65, 75
3, 152832, Note_on_c, 1, 54, 118
3, 152832, Note_on_c, 1, 56, 118
3, 152832, Note_on_c, 1, 60, 118
3, 152832, Note_on_c, 1, 63, 118
3, 152960, Note_off_c, 1, 54, 75
3, 152960, Note_off_c, 1, 56, 75
3, 152960, Note_off_c, 1, 60, 75
3, 152960, Note_off_c, 1, 63, 75
3, 153024, Note_on_c, 1, 32, 118
3, 153024, Note_on_c, 1, 44, 118
3, 153152, Note_off_c, 1, 32, 75
3, 153152, Note_off_c, 1, 44, 75
3, 153216, Note_on_c, 1, 25, 118
3, 153216, Note_on_c, 1, 37, 118
3, 153408, Note_off_c, 1, 25, 75
3, 153408, Note_off_c, 1, 37, 75
3, 153504, Note_on_c, 1, 49, 118
3, 153504, Note_on_c, 1, 61, 118
3, 153568, Note_off_c, 1, 49, 75
3, 153568, Note_off_c, 1, 61, 75
3, 153600, Note_on_c, 1, 49, 118
3, 153600, Note_on_c, 1, 61, 118
3, 153728, Note_off_c, 1, 49, 75
3, 153728, Note_off_c, 1, 61, 75
3, 153792, Note_on_c, 1, 49, 118
3, 153792, Note_on_c, 1, 61, 118
3, 153856, Note_off_c, 1, 49, 75
3, 153856, Note_off_c, 1, 61, 75
3, 153888, Note_on_c, 1, 49, 118
3, 153888, Note_on_c, 1, 61, 118
3, 153952, Note_off_c, 1, 49, 75
3, 153952, Note_off_c, 1, 61, 75
3, 153984, Note_on_c, 1, 49, 118
3, 153984, Note_on_c, 1, 61, 118
3, 154048, Note_off_c, 1, 49, 75
3, 154048, Note_off_c, 1, 61, 75
3, 154080, Note_on_c, 1, 49, 118
3, 154080, Note_on_c, 1, 61, 118
3, 154144, Note_off_c, 1, 49, 75
3, 154144, Note_off_c, 1, 61, 75
3, 154176, Note_on_c, 1, 49, 118
3, 154176, Note_on_c, 1, 61, 118
3, 154240, Note_off_c, 1, 49, 75
3, 154240, Note_off_c, 1, 61, 75
3, 154272, Note_on_c, 1, 49, 118
3, 154272, Note_on_c, 1, 61, 118
3, 154336, Note_off_c, 1, 49, 75
3, 154336, Note_off_c, 1, 61, 75
3, 154368, Note_on_c, 1, 49, 118
3, 154368, Note_on_c, 1, 61, 118
3, 154496, Note_off_c, 1, 49, 75
3, 154496, Note_off_c, 1, 61, 75
3, 154560, Note_on_c, 1, 59, 118
3, 154560, Note_on_c, 1, 54, 118
3, 154560, Note_on_c, 1, 50, 118
3, 154656, Note_off_c, 1, 59, 75
3, 154656, Note_off_c, 1, 54, 75
3, 154656, Note_off_c, 1, 50, 75
3, 154656, Note_on_c, 1, 50, 118
3, 154656, Note_on_c, 1, 54, 118
3, 154656, Note_on_c, 1, 59, 118
3, 154720, Note_off_c, 1, 50, 75
3, 154720, Note_off_c, 1, 54, 75
3, 154720, Note_off_c, 1, 59, 75
3, 154752, Note_on_c, 1, 50, 118
3, 154752, Note_on_c, 1, 54, 118
3, 154752, Note_on_c, 1, 59, 118
3, 154880, Note_off_c, 1, 50, 75
3, 154880, Note_off_c, 1, 54, 75
3, 154880, Note_off_c, 1, 59, 75
3, 154944, Note_on_c, 1, 61, 118
3, 154944, Note_on_c, 1, 56, 118
3, 154944, Note_on_c, 1, 52, 118
3, 155072, Note_off_c, 1, 61, 75
3, 155072, Note_off_c, 1, 56, 75
3, 155072, Note_off_c, 1, 52, 75
3, 155136, Note_on_c, 1, 64, 118
3, 155136, Note_on_c, 1, 57, 118
3, 155136, Note_on_c, 1, 54, 118
3, 155264, Note_off_c, 1, 64, 75
3, 155328, Note_on_c, 1, 62, 118
3, 155392, Note_off_c, 1, 57, 75
3, 155392, Note_off_c, 1, 54, 75
3, 155456, Note_off_c, 1, 62, 75
3, 155520, Note_on_c, 1, 52, 118
3, 155520, Note_on_c, 1, 56, 118
3, 155520, Note_on_c, 1, 62, 118
3, 155648, Note_off_c, 1, 52, 75
3, 155648, Note_off_c, 1, 56, 75
3, 155648, Note_off_c, 1, 62, 75
3, 155712, Note_on_c, 1, 52, 118
3, 155712, Note_on_c, 1, 56, 118
3, 155712, Note_on_c, 1, 62, 118
3, 155712, Note_on_c, 1, 64, 118
3, 155840, Note_off_c, 1, 52, 75
3, 155840, Note_off_c, 1, 56, 75
3, 155840, Note_off_c, 1, 62, 75
3, 155840, Note_off_c, 1, 64, 75
3, 155904, Note_on_c, 1, 52, 118
3, 155904, Note_on_c, 1, 52, 118
3, 155904, Note_on_c, 1, 56, 118
3, 155904, Note_on_c, 1, 62, 118
3, 155904, Note_on_c, 1, 64, 118
3, 156160, Note_off_c, 1, 52, 75
3, 156160, Note_off_c, 1, 52, 75
3, 156160, Note_off_c, 1, 56, 75
3, 156160, Note_off_c, 1, 62, 75
3, 156160, Note_off_c, 1, 64, 75
3, 156288, Note_on_c, 1, 57, 118
3, 156288, Note_on_c, 1, 61, 118
3, 156288, Note_on_c, 1, 64, 118
3, 156416, Note_off_c, 1, 57, 75
3, 156416, Note_off_c, 1, 61, 75
3, 156416, Note_off_c, 1, 64, 75
3, 156672, Note_on_c, 1, 35, 118
3, 156672, Note_on_c, 1, 47, 118
3, 156800, Note_off_c, 1, 35, 75
3, 156800, Note_off_c, 1, 47, 75
3, 156960, Note_on_c, 1, 59, 118
3, 156960, Note_on_c, 1, 47, 118
3, 157024, Note_off_c, 1, 59, 75
3, 157024, Note_off_c, 1, 47, 75
3, 157056, Note_on_c, 1, 47, 118
3, 157056, Note_on_c, 1, 47, 118
3, 157056, Note_on_c, 1, 59, 118
3, 157152, Note_on_c, 1, 46, 118
3, 157152, Note_on_c, 1, 58, 118
3, 157184, Note_off_c, 1, 47, 75
3, 157184, Note_off_c, 1, 47, 75
3, 157184, Note_off_c, 1, 59, 75
3, 157216, Note_off_c, 1, 46, 75
3, 157216, Note_off_c, 1, 58, 75
3, 157248, Note_on_c, 1, 47, 118
3, 157248, Note_on_c, 1, 59, 118
3, 157312, Note_off_c, 1, 47, 75
3, 157312, Note_off_c, 1, 59, 75
3, 157344, Note_on_c, 1, 49, 118
3, 157344, Note_on_c, 1, 61, 118
3, 157408, Note_off_c, 1, 49, 75
3, 157408, Note_off_c, 1, 61, 75
3, 157440, Note_on_c, 1, 59, 118
3, 157440, Note_on_c, 1, 47, 118
3, 157568, Note_off_c, 1, 59, 75
3, 157568, Note_off_c, 1, 47, 75
3, 157632, Note_on_c, 1, 40, 118
3, 157632, Note_on_c, 1, 52, 118
3, 157760, Note_off_c, 1, 40, 75
3, 157760, Note_off_c, 1, 52, 75
3, 157824, Note_on_c, 1, 35, 118
3, 157824, Note_on_c, 1, 47, 118
3, 157952, Note_off_c, 1, 35, 75
3, 157952, Note_off_c, 1, 47, 75
3, 158016, Note_on_c, 1, 59, 118
3, 158016, Note_on_c, 1, 47, 118
3, 158080, Note_off_c, 1, 59, 75
3, 158080, Note_off_c, 1, 47, 75
3, 158112, Note_on_c, 1, 59, 118
3, 158112, Note_on_c, 1, 47, 118
3, 158176, Note_off_c, 1, 59, 75
3, 158176, Note_off_c, 1, 47, 75
3, 158208, Note_on_c, 1, 47, 118
3, 158208, Note_on_c, 1, 47, 118
3, 158208, Note_on_c, 1, 59, 118
3, 158304, Note_on_c, 1, 46, 118
3, 158304, Note_on_c, 1, 58, 118
3, 158336, Note_off_c, 1, 47, 75
3, 158336, Note_off_c, 1, 47, 75
3, 158336, Note_off_c, 1, 59, 75
3, 158368, Note_off_c, 1, 46, 75
3, 158368, Note_off_c, 1, 58, 75
3, 158400, Note_on_c, 1, 47, 118
3, 158400, Note_on_c, 1, 59, 118
3, 158464, Note_off_c, 1, 47, 75
3, 158464, Note_off_c, 1, 59, 75
3, 158496, Note_on_c, 1, 49, 118
3, 158496, Note_on_c, 1, 61, 118
3, 158560, Note_off_c, 1, 49, 75
3, 158560, Note_off_c, 1, 61, 75
3, 158592, Note_on_c, 1, 59, 118
3, 158592, Note_on_c, 1, 47, 118
3, 158720, Note_off_c, 1, 59, 75
3, 158720, Note_off_c, 1, 47, 75
3, 158784, Note_on_c, 1, 47, 118
3, 158784, Note_on_c, 1, 35, 118
3, 158912, Note_off_c, 1, 47, 75
3, 158912, Note_off_c, 1, 35, 75
3, 158976, Note_on_c, 1, 37, 118
3, 158976, Note_on_c, 1, 49, 118
3, 159104, Note_off_c, 1, 37, 75
3, 159104, Note_off_c, 1, 49, 75
3, 159168, Note_on_c, 1, 37, 118
3, 159168, Note_on_c, 1, 49, 118
3, 159232, Note_off_c, 1, 37, 75
3, 159232, Note_off_c, 1, 49, 75
3, 159264, Note_on_c, 1, 37, 118
3, 159264, Note_on_c, 1, 49, 118
3, 159328, Note_off_c, 1, 37, 75
3, 159328, Note_off_c, 1, 49, 75
3, 159360, Note_on_c, 1, 30, 118
3, 159360, Note_on_c, 1, 42, 118
3, 159488, Note_off_c, 1, 30, 75
3, 159488, Note_off_c, 1, 42, 75
3, 159552, Note_on_c, 1, 32, 118
3, 159552, Note_on_c, 1, 44, 118
3, 159680, Note_off_c, 1, 32, 75
3, 159680, Note_off_c, 1, 44, 75
3, 159744, Note_on_c, 1, 33, 118
3, 159744, Note_on_c, 1, 45, 118
3, 159872, Note_off_c, 1, 33, 75
3, 159872, Note_off_c, 1, 45, 75
3, 159936, Note_on_c, 1, 32, 118
3, 159936, Note_on_c, 1, 44, 118
3, 160064, Note_off_c, 1, 32, 75
3, 160064, Note_off_c, 1, 44, 75
3, 160128, Note_on_c, 1, 49, 118
3, 160128, Note_on_c, 1, 37, 118
3, 160256, Note_off_c, 1, 49, 75
3, 160256, Note_off_c, 1, 37, 75
3, 160320, Note_on_c, 1, 51, 118
3, 160320, Note_on_c, 1, 39, 118
3, 160448, Note_off_c, 1, 51, 75
3, 160448, Note_off_c, 1, 39, 75
3, 160512, Note_on_c, 1, 56, 118
3, 160512, Note_on_c, 1, 44, 118
3, 160640, Note_off_c, 1, 56, 75
3, 160640, Note_off_c, 1, 44, 75
3, 160704, Note_on_c, 1, 51, 118
3, 160704, Note_on_c, 1, 39, 118
3, 160768, Note_off_c, 1, 51, 75
3, 160768, Note_off_c, 1, 39, 75
3, 160800, Note_on_c, 1, 51, 118
3, 160800, Note_on_c, 1, 39, 118
3, 160864, Note_off_c, 1, 51, 75
3, 160864, Note_off_c, 1, 39, 75
3, 160896, Note_on_c, 1, 51, 118
3, 160896, Note_on_c, 1, 39, 118
3, 160960, Note_off_c, 1, 51, 75
3, 160960, Note_off_c, 1, 39, 75
3, 160992, Note_on_c, 1, 51, 118
3, 160992, Note_on_c, 1, 39, 118
3, 161056, Note_off_c, 1, 51, 75
3, 161056, Note_off_c, 1, 39, 75
3, 161088, Note_on_c, 1, 51, 118
3, 161088, Note_on_c, 1, 39, 118
3, 161152, Note_off_c, 1, 51, 75
3, 161152, Note_off_c, 1, 39, 75
3, 161184, Note_on_c, 1, 51, 118
3, 161184, Note_on_c, 1, 39, 118
3, 161248, Note_off_c, 1, 51, 75
3, 161248, Note_off_c, 1, 39, 75
3, 161280, Note_on_c, 1, 27, 118
3, 161280, Note_on_c, 1, 39, 118
3, 161408, Note_off_c, 1, 27, 75
3, 161408, Note_off_c, 1, 39, 75
3, 161568, Note_on_c, 1, 55, 118
3, 161568, Note_on_c, 1, 58, 118
3, 161568, Note_on_c, 1, 61, 118
3, 161568, Note_on_c, 1, 63, 118
3, 161568, Note_on_c, 1, 67, 118
3, 161632, Note_off_c, 1, 55, 75
3, 161632, Note_off_c, 1, 58, 75
3, 161632, Note_off_c, 1, 61, 75
3, 161632, Note_off_c, 1, 63, 75
3, 161632, Note_off_c, 1, 67, 75
3, 161664, Note_on_c, 1, 55, 118
3, 161664, Note_on_c, 1, 58, 118
3, 161664, Note_on_c, 1, 61, 118
3, 161664, Note_on_c, 1, 63, 118
3, 161664, Note_on_c, 1, 67, 118
3, 161792, Note_off_c, 1, 55, 75
3, 161792, Note_off_c, 1, 58, 75
3, 161792, Note_off_c, 1, 61, 75
3, 161792, Note_off_c, 1, 63, 75
3, 161792, Note_off_c, 1, 67, 75
3, 161856, Note_on_c, 1, 50, 118
3, 161920, Note_off_c, 1, 50, 75
3, 161952, Note_on_c, 1, 51, 118
3, 162016, Note_off_c, 1, 51, 75
3, 162048, Note_on_c, 1, 53, 118
3, 162112, Note_off_c, 1, 53, 75
3, 162144, Note_on_c, 1, 51, 118
3, 162208, Note_off_c, 1, 51, 75
3, 162240, Note_on_c, 1, 32, 118
3, 162240, Note_on_c, 1, 44, 118
3, 162368, Note_off_c, 1, 32, 75
3, 162368, Note_off_c, 1, 44, 75
3, 162432, Note_on_c, 1, 27, 118
3, 162432, Note_on_c, 1, 39, 118
3, 162528, Note_on_c, 1, 55, 118
3, 162528, Note_on_c, 1, 58, 118
3, 162528, Note_on_c, 1, 61, 118
3, 162528, Note_on_c, 1, 63, 118
3, 162528, Note_on_c, 1, 67, 118
3, 162560, Note_off_c, 1, 27, 75
3, 162560, Note_off_c, 1, 39, 75
3, 162592, Note_off_c, 1, 55, 75
3, 162592, Note_off_c, 1, 58, 75
3, 162592, Note_off_c, 1, 61, 75
3, 162592, Note_off_c, 1, 63, 75
3, 162592, Note_off_c, 1, 67, 75
3, 162624, Note_on_c, 1, 55, 118
3, 162624, Note_on_c, 1, 58, 118
3, 162624, Note_on_c, 1, 61, 118
3, 162624, Note_on_c, 1, 63, 118
3, 162624, Note_on_c, 1, 67, 118
3, 162688, Note_off_c, 1, 55, 75
3, 162688, Note_off_c, 1, 58, 75
3, 162688, Note_off_c, 1, 61, 75
3, 162688, Note_off_c, 1, 63, 75
3, 162688, Note_off_c, 1, 67, 75
3, 162720, Note_on_c, 1, 55, 118
3, 162720, Note_on_c, 1, 58, 118
3, 162720, Note_on_c, 1, 61, 118
3, 162720, Note_on_c, 1, 63, 118
3, 162720, Note_on_c, 1, 67, 118
3, 162784, Note_off_c, 1, 55, 75
3, 162784, Note_off_c, 1, 58, 75
3, 162784, Note_off_c, 1, 61, 75
3, 162784, Note_off_c, 1, 63, 75
3, 162784, Note_off_c, 1, 67, 75
3, 162816, Note_on_c, 1, 55, 118
3, 162816, Note_on_c, 1, 58, 118
3, 162816, Note_on_c, 1, 61, 118
3, 162816, Note_on_c, 1, 63, 118
3, 162816, Note_on_c, 1, 67, 118
3, 162912, Note_on_c, 1, 50, 118
3, 162944, Note_off_c, 1, 55, 75
3, 162944, Note_off_c, 1, 58, 75
3, 162944, Note_off_c, 1, 61, 75
3, 162944, Note_off_c, 1, 63, 75
3, 162944, Note_off_c, 1, 67, 75
3, 162976, Note_off_c, 1, 50, 75
3, 163008, Note_on_c, 1, 51, 118
3, 163072, Note_off_c, 1, 51, 75
3, 163104, Note_on_c, 1, 53, 118
3, 163168, Note_off_c, 1, 53, 75
3, 163200, Note_on_c, 1, 51, 118
3, 163328, Note_off_c, 1, 51, 75
3, 163392, Note_on_c, 1, 32, 118
3, 163392, Note_on_c, 1, 44, 118
3, 163520, Note_off_c, 1, 32, 75
3, 163520, Note_off_c, 1, 44, 75
3, 163584, Note_on_c, 1, 33, 118
3, 163584, Note_on_c, 1, 45, 118
3, 163680, Note_on_c, 1, 45, 118
3, 163680, Note_on_c, 1, 57, 118
3, 163712, Note_off_c, 1, 33, 75
3, 163712, Note_off_c, 1, 45, 75
3, 163744, Note_off_c, 1, 45, 75
3, 163744, Note_off_c, 1, 57, 75
3, 163776, Note_on_c, 1, 45, 118
3, 163776, Note_on_c, 1, 57, 118
3, 163840, Note_off_c, 1, 57, 75
3, 163872, Note_on_c, 1, 45, 118
3, 163872, Note_on_c, 1, 57, 118
3, 163904, Note_off_c, 1, 45, 75
3, 163936, Note_off_c, 1, 45, 75
3, 163936, Note_off_c, 1, 57, 75
3, 163968, Note_on_c, 1, 45, 118
3, 163968, Note_on_c, 1, 57, 118
3, 164096, Note_off_c, 1, 45, 75
3, 164096, Note_off_c, 1, 57, 75
3, 164160, Note_on_c, 1, 44, 118
3, 164160, Note_on_c, 1, 56, 118
3, 164288, Note_off_c, 1, 44, 75
3, 164288, Note_off_c, 1, 56, 75
3, 164352, Note_on_c, 1, 54, 118
3, 164352, Note_on_c, 1, 42, 118
3, 164480, Note_off_c, 1, 54, 75
3, 164480, Note_off_c, 1, 42, 75
3, 164544, Note_on_c, 1, 47, 118
3, 164544, Note_on_c, 1, 35, 118
3, 164672, Note_off_c, 1, 47, 75
3, 164672, Note_off_c, 1, 35, 75
3, 164736, Note_on_c, 1, 52, 118
3, 164736, Note_on_c, 1, 40, 118
3, 164864, Note_off_c, 1, 52, 75
3, 164864, Note_off_c, 1, 40, 75
3, 164928, Note_on_c, 1, 49, 118
3, 164928, Note_on_c, 1, 37, 118
3, 165056, Note_off_c, 1, 49, 75
3, 165056, Note_off_c, 1, 37, 75
3, 165120, Note_on_c, 1, 42, 118
3, 165120, Note_on_c, 1, 54, 118
3, 165248, Note_off_c, 1, 42, 75
3, 165248, Note_off_c, 1, 54, 75
3, 165312, Note_on_c, 1, 47, 118
3, 165312, Note_on_c, 1, 35, 118
3, 165440, Note_off_c, 1, 47, 75
3, 165440, Note_off_c, 1, 35, 75
3, 165504, Note_on_c, 1, 40, 118
3, 165504, Note_on_c, 1, 52, 118
3, 165632, Note_off_c, 1, 40, 75
3, 165632, Note_off_c, 1, 52, 75
3, 165696, Note_on_c, 1, 28, 118
3, 165696, Note_on_c, 1, 40, 118
3, 165824, Note_off_c, 1, 28, 75
3, 165824, Note_off_c, 1, 40, 75
3, 165888, Note_on_c, 1, 33, 118
3, 165888, Note_on_c, 1, 45, 118
3, 166016, Note_off_c, 1, 33, 75
3, 166016, Note_off_c, 1, 45, 75
3, 166176, Note_on_c, 1, 45, 118
3, 166176, Note_on_c, 1, 52, 118
3, 166176, Note_on_c, 1, 57, 118
3, 166240, Note_off_c, 1, 45, 75
3, 166240, Note_off_c, 1, 52, 75
3, 166240, Note_off_c, 1, 57, 75
3, 166272, Note_on_c, 1, 45, 118
3, 166272, Note_on_c, 1, 52, 118
3, 166272, Note_on_c, 1, 57, 118
3, 166400, Note_off_c, 1, 45, 75
3, 166400, Note_off_c, 1, 52, 75
3, 166400, Note_off_c, 1, 57, 75
3, 166560, Note_on_c, 1, 45, 118
3, 166560, Note_on_c, 1, 52, 118
3, 166560, Note_on_c, 1, 57, 118
3, 166624, Note_off_c, 1, 45, 75
3, 166624, Note_off_c, 1, 52, 75
3, 166624, Note_off_c, 1, 57, 75
3, 166656, Note_on_c, 1, 59, 118
3, 166656, Note_on_c, 1, 52, 118
3, 166656, Note_on_c, 1, 45, 118
3, 166720, Note_off_c, 1, 59, 75
3, 166720, Note_off_c, 1, 52, 75
3, 166720, Note_off_c, 1, 45, 75
3, 166752, Note_on_c, 1, 59, 118
3, 166752, Note_on_c, 1, 52, 118
3, 166752, Note_on_c, 1, 45, 118
3, 166816, Note_off_c, 1, 59, 75
3, 166816, Note_off_c, 1, 52, 75
3, 166816, Note_off_c, 1, 45, 75
3, 166848, Note_on_c, 1, 59, 118
3, 166848, Note_on_c, 1, 52, 118
3, 166848, Note_on_c, 1, 45, 118
3, 166912, Note_off_c, 1, 59, 75
3, 166912, Note_off_c, 1, 52, 75
3, 166912, Note_off_c, 1, 45, 75
3, 166944, Note_on_c, 1, 59, 118
3, 166944, Note_on_c, 1, 52, 118
3, 166944, Note_on_c, 1, 45, 118
3, 167008, Note_off_c, 1, 59, 75
3, 167008, Note_off_c, 1, 52, 75
3, 167008, Note_off_c, 1, 45, 75
3, 167040, Note_on_c, 1, 45, 118
3, 167040, Note_on_c, 1, 52, 118
3, 167040, Note_on_c, 1, 57, 118
3, 167232, Note_off_c, 1, 45, 75
3, 167232, Note_off_c, 1, 52, 75
3, 167232, Note_off_c, 1, 57, 75
3, 167328, Note_on_c, 1, 45, 118
3, 167328, Note_on_c, 1, 52, 118
3, 167328, Note_on_c, 1, 57, 118
3, 167392, Note_off_c, 1, 45, 75
3, 167392, Note_off_c, 1, 52, 75
3, 167392, Note_off_c, 1, 57, 75
3, 167424, Note_on_c, 1, 45, 118
3, 167424, Note_on_c, 1, 52, 118
3, 167424, Note_on_c, 1, 57, 118
3, 167520, Note_on_c, 1, 44, 118
3, 167520, Note_on_c, 1, 56, 118
3, 167552, Note_off_c, 1, 45, 75
3, 167552, Note_off_c, 1, 52, 75
3, 167552, Note_off_c, 1, 57, 75
3, 167584, Note_off_c, 1, 44, 75
3, 167584, Note_off_c, 1, 56, 75
3, 167616, Note_on_c, 1, 45, 118
3, 167616, Note_on_c, 1, 57, 118
3, 167680, Note_off_c, 1, 45, 75
3, 167680, Note_off_c, 1, 57, 75
3, 167712, Note_on_c, 1, 47, 118
3, 167712, Note_on_c, 1, 59, 118
3, 167776, Note_off_c, 1, 47, 75
3, 167776, Note_off_c, 1, 59, 75
3, 167808, Note_on_c, 1, 57, 118
3, 167808, Note_on_c, 1, 45, 118
3, 167936, Note_off_c, 1, 57, 75
3, 167936, Note_off_c, 1, 45, 75
3, 168000, Note_on_c, 1, 52, 118
3, 168000, Note_on_c, 1, 40, 118
3, 168128, Note_off_c, 1, 52, 75
3, 168128, Note_off_c, 1, 40, 75
3, 168192, Note_on_c, 1, 33, 118
3, 168192, Note_on_c, 1, 45, 118
3, 168320, Note_off_c, 1, 33, 75
3, 168320, Note_off_c, 1, 45, 75
3, 168480, Note_on_c, 1, 45, 118
3, 168480, Note_on_c, 1, 52, 118
3, 168480, Note_on_c, 1, 57, 118
3, 168544, Note_off_c, 1, 45, 75
3, 168544, Note_off_c, 1, 52, 75
3, 168544, Note_off_c, 1, 57, 75
3, 168576, Note_on_c, 1, 45, 118
3, 168576, Note_on_c, 1, 52, 118
3, 168576, Note_on_c, 1, 57, 118
3, 168704, Note_off_c, 1, 45, 75
3, 168704, Note_off_c, 1, 52, 75
3, 168704, Note_off_c, 1, 57, 75
3, 168864, Note_on_c, 1, 45, 118
3, 168864, Note_on_c, 1, 52, 118
3, 168864, Note_on_c, 1, 57, 118
3, 168928, Note_off_c, 1, 45, 75
3, 168928, Note_off_c, 1, 52, 75
3, 168928, Note_off_c, 1, 57, 75
3, 168960, Note_on_c, 1, 45, 118
3, 168960, Note_on_c, 1, 52, 118
3, 168960, Note_on_c, 1, 57, 118
3, 169024, Note_off_c, 1, 45, 75
3, 169024, Note_off_c, 1, 52, 75
3, 169024, Note_off_c, 1, 57, 75
3, 169056, Note_on_c, 1, 45, 118
3, 169056, Note_on_c, 1, 52, 118
3, 169056, Note_on_c, 1, 57, 118
3, 169120, Note_off_c, 1, 45, 75
3, 169120, Note_off_c, 1, 52, 75
3, 169120, Note_off_c, 1, 57, 75
3, 169152, Note_on_c, 1, 45, 118
3, 169152, Note_on_c, 1, 52, 118
3, 169152, Note_on_c, 1, 57, 118
3, 169216, Note_off_c, 1, 45, 75
3, 169216, Note_off_c, 1, 52, 75
3, 169216, Note_off_c, 1, 57, 75
3, 169248, Note_on_c, 1, 45, 118
3, 169248, Note_on_c, 1, 52, 118
3, 169248, Note_on_c, 1, 59, 118
3, 169312, Note_off_c, 1, 45, 75
3, 169312, Note_off_c, 1, 52, 75
3, 169312, Note_off_c, 1, 59, 75
3, 169344, Note_on_c, 1, 60, 118
3, 169344, Note_on_c, 1, 54, 118
3, 169344, Note_on_c, 1, 51, 118
3, 169344, Note_on_c, 1, 45, 118
3, 169536, Note_off_c, 1, 60, 75
3, 169536, Note_off_c, 1, 54, 75
3, 169536, Note_off_c, 1, 51, 75
3, 169536, Note_off_c, 1, 45, 75
3, 169632, Note_on_c, 1, 52, 118
3, 169632, Note_on_c, 1, 57, 118
3, 169632, Note_on_c, 1, 61, 118
3, 169696, Note_off_c, 1, 52, 75
3, 169696, Note_off_c, 1, 57, 75
3, 169696, Note_off_c, 1, 61, 75
3, 169728, Note_on_c, 1, 61, 118
3, 169728, Note_on_c, 1, 57, 118
3, 169728, Note_on_c, 1, 52, 118
3, 169824, Note_on_c, 1, 44, 118
3, 169824, Note_on_c, 1, 56, 118
3, 169856, Note_off_c, 1, 61, 75
3, 169856, Note_off_c, 1, 57, 75
3, 169856, Note_off_c, 1, 52, 75
3, 169888, Note_off_c, 1, 44, 75
3, 169888, Note_off_c, 1, 56, 75
3, 169920, Note_on_c, 1, 45, 118
3, 169920, Note_on_c, 1, 57, 118
3, 169984, Note_off_c, 1, 45, 75
3, 169984, Note_off_c, 1, 57, 75
3, 170016, Note_on_c, 1, 47, 118
3, 170016, Note_on_c, 1, 59, 118
3, 170080, Note_off_c, 1, 47, 75
3, 170080, Note_off_c, 1, 59, 75
3, 170112, Note_on_c, 1, 45, 118
3, 170112, Note_on_c, 1, 57, 118
3, 170240, Note_off_c, 1, 45, 75
3, 170240, Note_off_c, 1, 57, 75
3, 170304, Note_on_c, 1, 52, 118
3, 170304, Note_on_c, 1, 40, 118
3, 170432, Note_off_c, 1, 52, 75
3, 170432, Note_off_c, 1, 40, 75
3, 170496, Note_on_c, 1, 32, 118
3, 170496, Note_on_c, 1, 44, 118
3, 170592, Note_on_c, 1, 53, 118
3, 170592, Note_on_c, 1, 56, 118
3, 170592, Note_on_c, 1, 61, 118
3, 170592, Note_on_c, 1, 65, 118
3, 170624, Note_off_c, 1, 32, 75
3, 170624, Note_off_c, 1, 44, 75
3, 170656, Note_off_c, 1, 53, 75
3, 170656, Note_off_c, 1, 56, 75
3, 170656, Note_off_c, 1, 61, 75
3, 170656, Note_off_c, 1, 65, 75
3, 170688, Note_on_c, 1, 53, 118
3, 170688, Note_on_c, 1, 56, 118
3, 170688, Note_on_c, 1, 61, 118
3, 170688, Note_on_c, 1, 65, 118
3, 170752, Note_off_c, 1, 53, 75
3, 170752, Note_off_c, 1, 56, 75
3, 170752, Note_off_c, 1, 61, 75
3, 170752, Note_off_c, 1, 65, 75
3, 170784, Note_on_c, 1, 53, 118
3, 170784, Note_on_c, 1, 56, 118
3, 170784, Note_on_c, 1, 61, 118
3, 170784, Note_on_c, 1, 65, 118
3, 170848, Note_off_c, 1, 53, 75
3, 170848, Note_off_c, 1, 56, 75
3, 170848, Note_off_c, 1, 61, 75
3, 170848, Note_off_c, 1, 65, 75
3, 170880, Note_on_c, 1, 53, 118
3, 170880, Note_on_c, 1, 56, 118
3, 170880, Note_on_c, 1, 61, 118
3, 170880, Note_on_c, 1, 65, 118
3, 171008, Note_off_c, 1, 53, 75
3, 171008, Note_off_c, 1, 56, 75
3, 171008, Note_off_c, 1, 61, 75
3, 171008, Note_off_c, 1, 65, 75
3, 171072, Note_on_c, 1, 56, 118
3, 171072, Note_on_c, 1, 53, 118
3, 171072, Note_on_c, 1, 61, 118
3, 171072, Note_on_c, 1, 65, 118
3, 171200, Note_off_c, 1, 56, 75
3, 171200, Note_off_c, 1, 53, 75
3, 171200, Note_off_c, 1, 61, 75
3, 171200, Note_off_c, 1, 65, 75
3, 171264, Note_on_c, 1, 54, 118
3, 171264, Note_on_c, 1, 56, 118
3, 171264, Note_on_c, 1, 60, 118
3, 171264, Note_on_c, 1, 63, 118
3, 171392, Note_off_c, 1, 54, 75
3, 171392, Note_off_c, 1, 56, 75
3, 171392, Note_off_c, 1, 60, 75
3, 171392, Note_off_c, 1, 63, 75
3, 171456, Note_on_c, 1, 32, 118
3, 171456, Note_on_c, 1, 44, 118
3, 171584, Note_off_c, 1, 32, 75
3, 171584, Note_off_c, 1, 44, 75
3, 171648, Note_on_c, 1, 25, 118
3, 171648, Note_on_c, 1, 37, 118
3, 171840, Note_off_c, 1, 25, 75
3, 171840, Note_off_c, 1, 37, 75
3, 171936, Note_on_c, 1, 49, 118
3, 171936, Note_on_c, 1, 61, 118
3, 172000, Note_off_c, 1, 49, 75
3, 172000, Note_off_c, 1, 61, 75
3, 172032, Note_on_c, 1, 49, 118
3, 172032, Note_on_c, 1, 61, 118
3, 172160, Note_off_c, 1, 49, 75
3, 172160, Note_off_c, 1, 61, 75
3, 172224, Note_on_c, 1, 49, 118
3, 172224, Note_on_c, 1, 61, 118
3, 172224, Note_on_c, 1, 38, 118
3, 172288, Note_off_c, 1, 49, 75
3, 172288, Note_off_c, 1, 61, 75
3, 172320, Note_on_c, 1, 49, 118
3, 172320, Note_on_c, 1, 61, 118
3, 172384, Note_off_c, 1, 49, 75
3, 172384, Note_off_c, 1, 61, 75
3, 172416, Note_off_c, 1, 38, 75
3, 172416, Note_on_c, 1, 49, 118
3, 172416, Note_on_c, 1, 61, 118
3, 172480, Note_off_c, 1, 49, 75
3, 172480, Note_off_c, 1, 61, 75
3, 172512, Note_on_c, 1, 49, 118
3, 172512, Note_on_c, 1, 61, 118
3, 172576, Note_off_c, 1, 49, 75
3, 172576, Note_off_c, 1, 61, 75
3, 172608, Note_on_c, 1, 49, 118
3, 172608, Note_on_c, 1, 61, 118
3, 172672, Note_off_c, 1, 49, 75
3, 172672, Note_off_c, 1, 61, 75
3, 172704, Note_on_c, 1, 49, 118
3, 172704, Note_on_c, 1, 61, 118
3, 172768, Note_off_c, 1, 49, 75
3, 172768, Note_off_c, 1, 61, 75
3, 172800, Note_on_c, 1, 49, 118
3, 172800, Note_on_c, 1, 61, 118
3, 172928, Note_off_c, 1, 49, 75
3, 172928, Note_off_c, 1, 61, 75
3, 172992, Note_on_c, 1, 50, 118
3, 172992, Note_on_c, 1, 54, 118
3, 172992, Note_on_c, 1, 59, 118
3, 173088, Note_on_c, 1, 50, 118
3, 173088, Note_on_c, 1, 50, 118
3, 173088, Note_on_c, 1, 54, 118
3, 173088, Note_on_c, 1, 59, 118
3, 173152, Note_off_c, 1, 50, 75
3, 173152, Note_off_c, 1, 50, 75
3, 173152, Note_off_c, 1, 54, 75
3, 173152, Note_off_c, 1, 59, 75
3, 173184, Note_off_c, 1, 50, 75
3, 173184, Note_off_c, 1, 54, 75
3, 173184, Note_off_c, 1, 59, 75
3, 173184, Note_on_c, 1, 50, 118
3, 173184, Note_on_c, 1, 54, 118
3, 173184, Note_on_c, 1, 57, 118
3, 173312, Note_off_c, 1, 50, 75
3, 173312, Note_off_c, 1, 54, 75
3, 173312, Note_off_c, 1, 57, 75
3, 173376, Note_on_c, 1, 52, 118
3, 173376, Note_on_c, 1, 56, 118
3, 173376, Note_on_c, 1, 61, 118
3, 173504, Note_off_c, 1, 52, 75
3, 173504, Note_off_c, 1, 56, 75
3, 173504, Note_off_c, 1, 61, 75
3, 173568, Note_on_c, 1, 54, 118
3, 173568, Note_on_c, 1, 54, 118
3, 173568, Note_on_c, 1, 57, 118
3, 173568, Note_on_c, 1, 64, 118
3, 173696, Note_off_c, 1, 64, 75
3, 173760, Note_on_c, 1, 62, 118
3, 173824, Note_off_c, 1, 54, 75
3, 173824, Note_off_c, 1, 54, 75
3, 173824, Note_off_c, 1, 57, 75
3, 173888, Note_off_c, 1, 62, 75
3, 173952, Note_on_c, 1, 62, 118
3, 173952, Note_on_c, 1, 56, 118
3, 173952, Note_on_c, 1, 52, 118
3, 174080, Note_off_c, 1, 62, 75
3, 174080, Note_off_c, 1, 56, 75
3, 174080, Note_off_c, 1, 52, 75
3, 174144, Note_on_c, 1, 52, 118
3, 174144, Note_on_c, 1, 56, 118
3, 174144, Note_on_c, 1, 62, 118
3, 174144, Note_on_c, 1, 64, 118
3, 174272, Note_off_c, 1, 52, 75
3, 174272, Note_off_c, 1, 56, 75
3, 174272, Note_off_c, 1, 62, 75
3, 174272, Note_off_c, 1, 64, 75
3, 174336, Note_on_c, 1, 52, 118
3, 174336, Note_on_c, 1, 56, 118
3, 174336, Note_on_c, 1, 62, 118
3, 174336, Note_on_c, 1, 64, 118
3, 174592, Note_off_c, 1, 52, 75
3, 174592, Note_off_c, 1, 56, 75
3, 174592, Note_off_c, 1, 62, 75
3, 174592, Note_off_c, 1, 64, 75
3, 174720, Note_on_c, 1, 57, 118
3, 174720, Note_on_c, 1, 61, 118
3, 174720, Note_on_c, 1, 64, 118
3, 174848, Note_off_c, 1, 57, 75
3, 174848, Note_off_c, 1, 61, 75
3, 174848, Note_off_c, 1, 64, 75
3, 174848, End_track
4, 0, Start_track
4, 0, Title_t, "Vic Waldo-Pianist"
4, 0, Key_signature, 0, "major"
4, 0, End_track
5, 0, Start_track
5, 0, Key_signature, 0, "major"
5, 0, End_track
6, 0, Start_track
6, 0, Key_signature, 0, "major"
6, 0, End_track
7, 0, Start_track
7, 0, Key_signature, 0, "major"
7, 0, End_track
8, 0, Start_track
8, 0, Key_signature, 0, "major"
8, 0, End_track
9, 0, Start_track
9, 0, Key_signature, 0, "major"
9, 0, End_track
10, 0, Start_track
10, 0, Key_signature, 0, "major"
10, 0, End_track
11, 0, Start_track
11, 0, Key_signature, 0, "major"
11, 0, End_track
0, 0, End_of_file