0, 0, Header, 1, 7, 480
1, 0, Start_track
1, 0, Title_t, "Untitled"
1, 0, SMPTE_offset, 96, 0, 0, 0, 0
1, 0, Tempo, 625000
1, 0, Time_signature, 4, 2, 24, 8
1, 0, Key_signature, 0, "major"
1, 0, Marker_t, "Chopin"
1, 1920, Tempo, 625000
1, 1920, Marker_t, "Etude,  Op.posth"
1, 3610, Tempo, 638297
1, 3840, Tempo, 652173
1, 3840, Marker_t, "Bunji Hisamori"
1, 4080, Tempo, 631578
1, 5520, Tempo, 645161
1, 5760, Tempo, 659340
1, 5760, Marker_t, "Jan.  2000"
1, 6060, Tempo, 625000
1, 7620, Tempo, 638297
1, 7680, Tempo, 618556
1, 8520, Tempo, 625000
1, 9000, Tempo, 638297
1, 9285, Tempo, 845070
1, 9600, Tempo, 638297
1, 9720, Tempo, 606060
1, 11400, Tempo, 612244
1, 13305, Tempo, 618556
1, 15260, Tempo, 625000
1, 16200, Tempo, 631578
1, 16875, Tempo, 638297
1, 17055, Tempo, 1276595
1, 17280, Tempo, 652173
1, 17340, Tempo, 625000
1, 19140, Tempo, 652173
1, 19260, Tempo, 625000
1, 21010, Tempo, 652173
1, 21375, Tempo, 625000
1, 22980, Tempo, 652173
1, 23100, Tempo, 625000
1, 24840, Tempo, 652173
1, 25200, Tempo, 625000
1, 26820, Tempo, 652173
1, 26940, Tempo, 625000
1, 28690, Tempo, 652173
1, 29040, Tempo, 625000
1, 30660, Tempo, 652173
1, 30780, Tempo, 625000
1, 32530, Tempo, 652173
1, 32880, Tempo, 625000
1, 34450, Tempo, 652173
1, 34800, Tempo, 625000
1, 36360, Tempo, 652173
1, 36720, Tempo, 625000
1, 38290, Tempo, 652173
1, 38460, Tempo, 625000
1, 39240, Tempo, 631578
1, 40080, Tempo, 674157
1, 40320, Tempo, 638297
1, 41160, Tempo, 645161
1, 41820, Tempo, 659340
1, 42000, Tempo, 1276595
1, 42300, Tempo, 625000
1, 44100, Tempo, 652173
1, 44220, Tempo, 625000
1, 46020, Tempo, 652173
1, 46140, Tempo, 625000
1, 47880, Tempo, 652173
1, 48250, Tempo, 625000
1, 49810, Tempo, 652173
1, 50140, Tempo, 625000
1, 51720, Tempo, 652173
1, 52070, Tempo, 625000
1, 53700, Tempo, 652173
1, 53820, Tempo, 625000
1, 54600, Tempo, 631578
1, 55430, Tempo, 674157
1, 55680, Tempo, 638297
1, 56520, Tempo, 645161
1, 57190, Tempo, 659340
1, 57360, Tempo, 1276595
1, 57660, Tempo, 625000
1, 59460, Tempo, 652173
1, 59580, Tempo, 625000
1, 61380, Tempo, 652173
1, 61500, Tempo, 625000
1, 63230, Tempo, 652173
1, 63590, Tempo, 625000
1, 65180, Tempo, 652173
1, 65520, Tempo, 625000
1, 67080, Tempo, 652173
1, 67420, Tempo, 625000
1, 69020, Tempo, 652173
1, 69360, Tempo, 625000
1, 70810, Tempo, 659340
1, 71270, Tempo, 625000
1, 72840, Tempo, 652173
1, 73210, Tempo, 625000
1, 74770, Tempo, 652173
1, 75110, Tempo, 625000
1, 76690, Tempo, 652173
1, 77030, Tempo, 625000
1, 78470, Tempo, 659340
1, 78720, Tempo, 652173
1, 78960, Tempo, 625000
1, 80580, Tempo, 652173
1, 80700, Tempo, 625000
1, 82310, Tempo, 652173
1, 82790, Tempo, 625000
1, 84420, Tempo, 652173
1, 84540, Tempo, 625000
1, 86170, Tempo, 652173
1, 86620, Tempo, 625000
1, 88260, Tempo, 652173
1, 88380, Tempo, 625000
1, 90010, Tempo, 652173
1, 90470, Tempo, 625000
1, 92100, Tempo, 652173
1, 92220, Tempo, 625000
1, 93860, Tempo, 652173
1, 94310, Tempo, 625000
1, 95900, Tempo, 652173
1, 96230, Tempo, 625000
1, 97830, Tempo, 652173
1, 98160, Tempo, 625000
1, 99730, Tempo, 652173
1, 100080, Tempo, 625000
1, 101530, Tempo, 659340
1, 101760, Tempo, 638297
1, 101990, Tempo, 625000
1, 103620, Tempo, 652173
1, 103740, Tempo, 625000
1, 105490, Tempo, 652173
1, 105840, Tempo, 625000
1, 107460, Tempo, 638297
1, 107580, Tempo, 625000
1, 108360, Tempo, 631578
1, 109140, Tempo, 659340
1, 109545, Tempo, 638297
1, 110280, Tempo, 645161
1, 110910, Tempo, 652173
1, 111120, Tempo, 1463414
1, 111344, Tempo, 1224489
1, 111420, Tempo, 625000
1, 113220, Tempo, 652173
1, 113340, Tempo, 625000
1, 115140, Tempo, 652173
1, 115260, Tempo, 625000
1, 117060, Tempo, 652173
1, 117180, Tempo, 625000
1, 118980, Tempo, 652173
1, 119100, Tempo, 625000
1, 120520, Tempo, 652173
1, 120640, Tempo, 638297
1, 121750, Tempo, 652173
1, 122570, Tempo, 750000
1, 122880, Tempo, 789473
1, 123840, Tempo, 810810
1, 127680, Tempo, 845070
1, 132480, Tempo, 500000
1, 132480, Time_signature, 3, 2, 24, 8
1, 132480, Marker_t, "2 "
1, 132960, Tempo, 606060
1, 133020, Tempo, 600000
1, 133680, Tempo, 600000
1, 133860, Tempo, 606060
1, 133920, Tempo, 600000
1, 136300, Tempo, 606060
1, 136500, Tempo, 612244
1, 136560, Tempo, 895522
1, 136800, Tempo, 600000
1, 142200, Tempo, 606060
1, 142320, Tempo, 769230
1, 142560, Tempo, 600000
1, 146760, Tempo, 606060
1, 147760, Tempo, 612244
1, 147840, Tempo, 625000
1, 148080, Tempo, 845070
1, 148320, Tempo, 600000
1, 152580, Tempo, 606060
1, 153740, Tempo, 612244
1, 153840, Tempo, 810810
1, 154080, Tempo, 600000
1, 158340, Tempo, 606060
1, 159600, Tempo, 612244
1, 159720, Tempo, 789473
1, 159840, Tempo, 600000
1, 165370, Tempo, 606060
1, 165480, Tempo, 674157
1, 165600, Tempo, 600000
1, 166980, Tempo, 606060
1, 167880, Tempo, 612244
1, 168090, Tempo, 638297
1, 168240, Tempo, 1176470
1, 168480, Tempo, 600000
1, 172740, Tempo, 606060
1, 172800, Tempo, 600000
1, 178440, Tempo, 606060
1, 179420, Tempo, 612244
1, 179520, Tempo, 674157
1, 179760, Tempo, 1176470
1, 179940, Tempo, 1333333
1, 180000, Tempo, 600000
1, 185400, Tempo, 606060
1, 185520, Tempo, 769230
1, 185760, Tempo, 600000
1, 191160, Tempo, 606060
1, 191280, Tempo, 821917
1, 191520, Tempo, 600000
1, 193380, Tempo, 612244
1, 193440, Tempo, 600000
1, 197220, Tempo, 612244
1, 197280, Tempo, 600000
1, 198660, Tempo, 606060
1, 199620, Tempo, 612244
1, 199760, Tempo, 652173
1, 199920, Tempo, 1132075
1, 200160, Tempo, 600000
1, 204420, Tempo, 606060
1, 204480, Tempo, 600000
1, 211320, Tempo, 606060
1, 211440, Tempo, 789473
1, 211680, Tempo, 600000
1, 215940, Tempo, 606060
1, 216000, Tempo, 600000
1, 226020, Tempo, 606060
1, 226080, Tempo, 600000
1, 227460, Tempo, 606060
1, 228420, Tempo, 612244
1, 228550, Tempo, 652173
1, 228720, Tempo, 1000000
1, 228960, Tempo, 600000
1, 231780, Tempo, 606060
1, 231840, Tempo, 600000
1, 234600, Tempo, 606060
1, 236160, Tempo, 625000
1, 237600, Tempo, 1428571
1, 240480, Tempo, 638297
1, 240480, Time_signature, 2, 2, 24, 8
1, 240480, Marker_t, "(3) "
1, 245100, Tempo, 652173
1, 245160, Tempo, 750000
1, 245280, Tempo, 638297
1, 248940, Tempo, 652173
1, 249000, Tempo, 750000
1, 249120, Tempo, 638297
1, 250920, Tempo, 652173
1, 251040, Tempo, 638297
1, 252840, Tempo, 652173
1, 252960, Tempo, 638297
1, 254760, Tempo, 652173
1, 256570, Tempo, 674157
1, 256680, Tempo, 1071428
1, 256800, Tempo, 638297
1, 260460, Tempo, 652173
1, 260520, Tempo, 750000
1, 260640, Tempo, 638297
1, 264240, Tempo, 652173
1, 264360, Tempo, 769230
1, 264480, Tempo, 638297
1, 268140, Tempo, 652173
1, 268200, Tempo, 750000
1, 268320, Tempo, 638297
1, 272040, Tempo, 674157
1, 272160, Tempo, 638297
1, 273960, Tempo, 652173
1, 274080, Tempo, 638297
1, 275760, Tempo, 652173
1, 275880, Tempo, 895522
1, 276000, Tempo, 638297
1, 277800, Tempo, 652173
1, 277920, Tempo, 638297
1, 278760, Tempo, 652173
1, 279300, Tempo, 659340
1, 279480, Tempo, 722891
1, 279600, Tempo, 1363636
1, 279840, Tempo, 638297
1, 283500, Tempo, 652173
1, 283560, Tempo, 750000
1, 283680, Tempo, 638297
1, 287340, Tempo, 652173
1, 287400, Tempo, 750000
1, 287520, Tempo, 638297
1, 289320, Tempo, 659340
1, 289440, Tempo, 638297
1, 291240, Tempo, 689655
1, 291360, Tempo, 638297
1, 293160, Tempo, 674157
1, 293280, Tempo, 638297
1, 295020, Tempo, 659340
1, 295080, Tempo, 789473
1, 295200, Tempo, 659340
1, 296040, Tempo, 674157
1, 296880, Tempo, 689655
1, 297000, Tempo, 731707
1, 297060, Tempo, 810810
1, 297120, Tempo, 769230
1, 298080, Tempo, 967741
1, 299040, End_track
2, 0, Start_track
2, 0, Instrument_name_t, "Roland Serial MIDI Out Port A"
2, 0, Title_t, "Unnamed Track"
2, 136800, Control_c, 0, 64, 0
2, 180000, Control_c, 0, 64, 0
2, 299040, End_track
3, 0, Start_track
3, 0, Instrument_name_t, "Roland Serial MIDI Out Port A"
3, 0, Title_t, "Unnamed Track"
3, 0, Control_c, 1, 0, 0
3, 0, Control_c, 1, 32, 0
3, 0, Program_c, 1, 0
3, 0, Control_c, 1, 64, 0
3, 0, Control_c, 1, 64, 0
3, 0, Control_c, 1, 10, 73
3, 0, Control_c, 1, 91, 80
3, 0, Control_c, 1, 93, 20
3, 0, Control_c, 1, 1, 0
3, 0, Pitch_bend_c, 1, 8192
3, 0, Control_c, 1, 7, 127
3, 1920, Control_c, 1, 64, 0
3, 1980, Control_c, 1, 64, 127
3, 2240, Note_on_c, 1, 59, 44
3, 2560, Note_off_c, 1, 59, 0
3, 2560, Note_on_c, 1, 60, 45
3, 2880, Note_off_c, 1, 60, 0
3, 2880, Note_on_c, 1, 61, 46
3, 3200, Note_off_c, 1, 61, 0
3, 3200, Note_on_c, 1, 58, 50
3, 3520, Note_off_c, 1, 58, 0
3, 3520, Note_on_c, 1, 65, 48
3, 3840, Control_c, 1, 64, 0
3, 3840, Note_off_c, 1, 65, 0
3, 3840, Note_on_c, 1, 64, 44
3, 3900, Control_c, 1, 64, 127
3, 4160, Note_off_c, 1, 64, 0
3, 4160, Note_on_c, 1, 59, 45
3, 4480, Note_off_c, 1, 59, 0
3, 4480, Note_on_c, 1, 60, 46
3, 4800, Note_off_c, 1, 60, 0
3, 4800, Note_on_c, 1, 61, 48
3, 5120, Note_off_c, 1, 61, 0
3, 5120, Note_on_c, 1, 58, 51
3, 5440, Note_off_c, 1, 58, 0
3, 5440, Note_on_c, 1, 65, 49
3, 5760, Control_c, 1, 64, 0
3, 5760, Note_off_c, 1, 65, 0
3, 5760, Note_on_c, 1, 64, 47
3, 5820, Control_c, 1, 64, 127
3, 6080, Note_off_c, 1, 64, 0
3, 6080, Note_on_c, 1, 59, 45
3, 6400, Note_off_c, 1, 59, 0
3, 6400, Note_on_c, 1, 60, 47
3, 6720, Note_off_c, 1, 60, 0
3, 6720, Note_on_c, 1, 61, 49
3, 7040, Note_off_c, 1, 61, 0
3, 7040, Note_on_c, 1, 60, 51
3, 7360, Note_off_c, 1, 60, 0
3, 7360, Note_on_c, 1, 62, 53
3, 7680, Control_c, 1, 64, 0
3, 7680, Note_off_c, 1, 62, 0
3, 7680, Note_on_c, 1, 65, 55
3, 7740, Control_c, 1, 64, 127
3, 8000, Note_off_c, 1, 65, 0
3, 8000, Note_on_c, 1, 64, 57
3, 8320, Note_off_c, 1, 64, 0
3, 8320, Note_on_c, 1, 65, 59
3, 8640, Note_off_c, 1, 65, 0
3, 8640, Note_on_c, 1, 68, 61
3, 8960, Note_off_c, 1, 68, 0
3, 8960, Note_on_c, 1, 67, 56
3, 9280, Note_off_c, 1, 67, 0
3, 9280, Note_on_c, 1, 68, 55
3, 9600, Control_c, 1, 64, 0
3, 9600, Note_off_c, 1, 68, 0
3, 9600, Note_on_c, 1, 65, 55
3, 9660, Control_c, 1, 64, 127
3, 10080, Note_off_c, 1, 65, 0
3, 17600, Note_on_c, 1, 60, 32
3, 17920, Note_off_c, 1, 60, 0
3, 17920, Note_on_c, 1, 68, 33
3, 18240, Note_off_c, 1, 68, 0
3, 18240, Note_on_c, 1, 67, 33
3, 18560, Note_off_c, 1, 67, 0
3, 18560, Note_on_c, 1, 65, 34
3, 18880, Note_off_c, 1, 65, 0
3, 18880, Note_on_c, 1, 71, 34
3, 19200, Control_c, 1, 64, 0
3, 19200, Note_off_c, 1, 71, 0
3, 19200, Note_on_c, 1, 72, 35
3, 19260, Control_c, 1, 64, 127
3, 19520, Note_off_c, 1, 72, 0
3, 19520, Note_on_c, 1, 73, 35
3, 19840, Note_off_c, 1, 73, 0
3, 19840, Note_on_c, 1, 71, 36
3, 20160, Note_off_c, 1, 71, 0
3, 20160, Note_on_c, 1, 72, 36
3, 20480, Note_off_c, 1, 72, 0
3, 20480, Note_on_c, 1, 60, 36
3, 20800, Note_off_c, 1, 60, 0
3, 20800, Note_on_c, 1, 70, 37
3, 21120, Control_c, 1, 64, 0
3, 21120, Note_off_c, 1, 70, 0
3, 21120, Note_on_c, 1, 69, 37
3, 21180, Control_c, 1, 64, 127
3, 21440, Note_off_c, 1, 69, 0
3, 21440, Note_on_c, 1, 68, 38
3, 21760, Note_off_c, 1, 68, 0
3, 21760, Note_on_c, 1, 67, 38
3, 22080, Note_off_c, 1, 67, 0
3, 22080, Note_on_c, 1, 65, 39
3, 22400, Note_off_c, 1, 65, 0
3, 22400, Note_on_c, 1, 77, 39
3, 22720, Note_off_c, 1, 77, 0
3, 22720, Note_on_c, 1, 71, 40
3, 23040, Control_c, 1, 64, 0
3, 23040, Note_off_c, 1, 71, 0
3, 23040, Note_on_c, 1, 72, 40
3, 23100, Control_c, 1, 64, 127
3, 23360, Note_off_c, 1, 72, 0
3, 23360, Note_on_c, 1, 75, 41
3, 23680, Note_off_c, 1, 75, 0
3, 23680, Note_on_c, 1, 73, 41
3, 24000, Note_off_c, 1, 73, 0
3, 24000, Note_on_c, 1, 72, 42
3, 24320, Note_off_c, 1, 72, 0
3, 24320, Note_on_c, 1, 65, 42
3, 24640, Note_off_c, 1, 65, 0
3, 24640, Note_on_c, 1, 67, 43
3, 24960, Control_c, 1, 64, 0
3, 24960, Note_off_c, 1, 67, 0
3, 24960, Note_on_c, 1, 68, 43
3, 25020, Control_c, 1, 64, 127
3, 25280, Note_off_c, 1, 68, 0
3, 25280, Note_on_c, 1, 64, 44
3, 25600, Note_off_c, 1, 64, 0
3, 25600, Note_on_c, 1, 65, 44
3, 25920, Note_off_c, 1, 65, 0
3, 25920, Note_on_c, 1, 68, 45
3, 26240, Note_off_c, 1, 68, 0
3, 26240, Note_on_c, 1, 71, 45
3, 26560, Note_off_c, 1, 71, 0
3, 26560, Note_on_c, 1, 72, 45
3, 26880, Control_c, 1, 64, 0
3, 26880, Note_off_c, 1, 72, 0
3, 26880, Note_on_c, 1, 73, 46
3, 26940, Control_c, 1, 64, 127
3, 27200, Note_off_c, 1, 73, 0
3, 27200, Note_on_c, 1, 74, 46
3, 27520, Note_off_c, 1, 74, 0
3, 27520, Note_on_c, 1, 77, 47
3, 27840, Note_off_c, 1, 77, 0
3, 27840, Note_on_c, 1, 75, 47
3, 28160, Note_off_c, 1, 75, 0
3, 28160, Note_on_c, 1, 68, 48
3, 28480, Note_off_c, 1, 68, 0
3, 28480, Note_on_c, 1, 70, 48
3, 28800, Control_c, 1, 64, 0
3, 28800, Note_off_c, 1, 70, 0
3, 28800, Note_on_c, 1, 72, 49
3, 28860, Control_c, 1, 64, 127
3, 29120, Note_off_c, 1, 72, 0
3, 29120, Note_on_c, 1, 67, 49
3, 29440, Note_off_c, 1, 67, 0
3, 29440, Note_on_c, 1, 68, 50
3, 29760, Note_off_c, 1, 68, 0
3, 29760, Note_on_c, 1, 71, 50
3, 30080, Note_off_c, 1, 71, 0
3, 30080, Note_on_c, 1, 72, 51
3, 30400, Note_off_c, 1, 72, 0
3, 30400, Note_on_c, 1, 75, 51
3, 30720, Control_c, 1, 64, 0
3, 30720, Note_off_c, 1, 75, 0
3, 30720, Note_on_c, 1, 76, 52
3, 30780, Control_c, 1, 64, 127
3, 31040, Note_off_c, 1, 76, 0
3, 31040, Note_on_c, 1, 77, 52
3, 31360, Note_off_c, 1, 77, 0
3, 31360, Note_on_c, 1, 78, 53
3, 31680, Note_off_c, 1, 78, 0
3, 31680, Note_on_c, 1, 79, 53
3, 32000, Note_off_c, 1, 79, 0
3, 32000, Note_on_c, 1, 74, 54
3, 32320, Note_off_c, 1, 74, 0
3, 32320, Note_on_c, 1, 77, 54
3, 32640, Control_c, 1, 64, 0
3, 32640, Note_off_c, 1, 77, 0
3, 32640, Note_on_c, 1, 76, 54
3, 32700, Control_c, 1, 64, 127
3, 32960, Note_off_c, 1, 76, 0
3, 32960, Note_on_c, 1, 71, 55
3, 33280, Note_off_c, 1, 71, 0
3, 33280, Note_on_c, 1, 72, 55
3, 33600, Note_off_c, 1, 72, 0
3, 33600, Note_on_c, 1, 73, 56
3, 33920, Note_off_c, 1, 73, 0
3, 33920, Note_on_c, 1, 70, 56
3, 34240, Note_off_c, 1, 70, 0
3, 34240, Note_on_c, 1, 77, 57
3, 34560, Control_c, 1, 64, 0
3, 34560, Note_off_c, 1, 77, 0
3, 34560, Note_on_c, 1, 76, 57
3, 34620, Control_c, 1, 64, 127
3, 34880, Note_off_c, 1, 76, 0
3, 34880, Note_on_c, 1, 71, 58
3, 35200, Note_off_c, 1, 71, 0
3, 35200, Note_on_c, 1, 72, 58
3, 35520, Note_off_c, 1, 72, 0
3, 35520, Note_on_c, 1, 73, 59
3, 35840, Note_off_c, 1, 73, 0
3, 35840, Note_on_c, 1, 70, 59
3, 36160, Note_off_c, 1, 70, 0
3, 36160, Note_on_c, 1, 77, 60
3, 36480, Control_c, 1, 64, 0
3, 36480, Note_off_c, 1, 77, 0
3, 36480, Note_on_c, 1, 76, 60
3, 36540, Control_c, 1, 64, 127
3, 36800, Note_off_c, 1, 76, 0
3, 36800, Note_on_c, 1, 71, 61
3, 37120, Note_off_c, 1, 71, 0
3, 37120, Note_on_c, 1, 72, 61
3, 37440, Note_off_c, 1, 72, 0
3, 37440, Note_on_c, 1, 73, 60
3, 37760, Note_off_c, 1, 73, 0
3, 37760, Note_on_c, 1, 72, 59
3, 38080, Note_off_c, 1, 72, 0
3, 38080, Note_on_c, 1, 74, 58
3, 38400, Control_c, 1, 64, 0
3, 38400, Note_off_c, 1, 74, 0
3, 38400, Note_on_c, 1, 77, 56
3, 38460, Control_c, 1, 64, 127
3, 38720, Note_off_c, 1, 77, 0
3, 38720, Note_on_c, 1, 76, 54
3, 39040, Note_off_c, 1, 76, 0
3, 39040, Note_on_c, 1, 77, 52
3, 39360, Note_off_c, 1, 77, 0
3, 39360, Note_on_c, 1, 80, 51
3, 39680, Note_off_c, 1, 80, 0
3, 39680, Note_on_c, 1, 79, 49
3, 40000, Note_off_c, 1, 79, 0
3, 40000, Note_on_c, 1, 80, 47
3, 40320, Control_c, 1, 64, 0
3, 40320, Note_off_c, 1, 80, 0
3, 40320, Note_on_c, 1, 77, 46
3, 40380, Control_c, 1, 64, 127
3, 40800, Note_off_c, 1, 77, 0
3, 42240, Note_on_c, 1, 75, 36
3, 42240, Control_c, 1, 64, 0
3, 42300, Control_c, 1, 64, 127
3, 42560, Note_off_c, 1, 75, 0
3, 42560, Note_on_c, 1, 77, 36
3, 42880, Note_off_c, 1, 77, 0
3, 42880, Note_on_c, 1, 75, 37
3, 43200, Note_off_c, 1, 75, 0
3, 43200, Note_on_c, 1, 77, 37
3, 43520, Note_off_c, 1, 77, 0
3, 43520, Note_on_c, 1, 75, 38
3, 43840, Note_off_c, 1, 75, 0
3, 43840, Note_on_c, 1, 77, 38
3, 44160, Control_c, 1, 64, 0
3, 44160, Note_off_c, 1, 77, 0
3, 44160, Note_on_c, 1, 73, 39
3, 44220, Control_c, 1, 64, 127
3, 44480, Note_off_c, 1, 73, 0
3, 44480, Note_on_c, 1, 75, 39
3, 44800, Note_off_c, 1, 75, 0
3, 44800, Note_on_c, 1, 73, 40
3, 45120, Note_off_c, 1, 73, 0
3, 45120, Note_on_c, 1, 75, 40
3, 45440, Note_off_c, 1, 75, 0
3, 45440, Note_on_c, 1, 73, 41
3, 45760, Note_off_c, 1, 73, 0
3, 45760, Note_on_c, 1, 75, 41
3, 46080, Control_c, 1, 64, 0
3, 46080, Note_off_c, 1, 75, 0
3, 46080, Note_on_c, 1, 72, 42
3, 46140, Control_c, 1, 64, 127
3, 46400, Note_off_c, 1, 72, 0
3, 46400, Note_on_c, 1, 73, 42
3, 46720, Note_off_c, 1, 73, 0
3, 46720, Note_on_c, 1, 72, 43
3, 47040, Note_off_c, 1, 72, 0
3, 47040, Note_on_c, 1, 73, 43
3, 47360, Note_off_c, 1, 73, 0
3, 47360, Note_on_c, 1, 72, 44
3, 47680, Note_off_c, 1, 72, 0
3, 47680, Note_on_c, 1, 73, 44
3, 48000, Control_c, 1, 64, 0
3, 48000, Note_off_c, 1, 73, 0
3, 48000, Note_on_c, 1, 71, 44
3, 48060, Control_c, 1, 64, 127
3, 48320, Note_off_c, 1, 71, 0
3, 48320, Note_on_c, 1, 66, 45
3, 48640, Note_off_c, 1, 66, 0
3, 48640, Note_on_c, 1, 67, 45
3, 48960, Note_off_c, 1, 67, 0
3, 48960, Note_on_c, 1, 68, 46
3, 49280, Note_off_c, 1, 68, 0
3, 49280, Note_on_c, 1, 65, 46
3, 49600, Note_off_c, 1, 65, 0
3, 49600, Note_on_c, 1, 72, 47
3, 49920, Control_c, 1, 64, 0
3, 49920, Note_off_c, 1, 72, 0
3, 49920, Note_on_c, 1, 71, 47
3, 49980, Control_c, 1, 64, 127
3, 50240, Note_off_c, 1, 71, 0
3, 50240, Note_on_c, 1, 66, 47
3, 50560, Note_off_c, 1, 66, 0
3, 50560, Note_on_c, 1, 67, 46
3, 50880, Note_off_c, 1, 67, 0
3, 50880, Note_on_c, 1, 68, 46
3, 51200, Note_off_c, 1, 68, 0
3, 51200, Note_on_c, 1, 65, 45
3, 51520, Note_off_c, 1, 65, 0
3, 51520, Note_on_c, 1, 72, 44
3, 51840, Control_c, 1, 64, 0
3, 51840, Note_off_c, 1, 72, 0
3, 51840, Note_on_c, 1, 71, 44
3, 51900, Control_c, 1, 64, 127
3, 52160, Note_off_c, 1, 71, 0
3, 52160, Note_on_c, 1, 66, 43
3, 52480, Note_off_c, 1, 66, 0
3, 52480, Note_on_c, 1, 67, 42
3, 52800, Note_off_c, 1, 67, 0
3, 52800, Note_on_c, 1, 68, 42
3, 53120, Note_off_c, 1, 68, 0
3, 53120, Note_on_c, 1, 67, 41
3, 53440, Note_off_c, 1, 67, 0
3, 53440, Note_on_c, 1, 69, 40
3, 53760, Control_c, 1, 64, 0
3, 53760, Note_off_c, 1, 69, 0
3, 53760, Note_on_c, 1, 72, 40
3, 53820, Control_c, 1, 64, 127
3, 54080, Note_off_c, 1, 72, 0
3, 54080, Note_on_c, 1, 71, 39
3, 54400, Note_off_c, 1, 71, 0
3, 54400, Note_on_c, 1, 72, 38
3, 54720, Note_off_c, 1, 72, 0
3, 54720, Note_on_c, 1, 75, 38
3, 55040, Note_off_c, 1, 75, 0
3, 55040, Note_on_c, 1, 74, 37
3, 55360, Note_off_c, 1, 74, 0
3, 55360, Note_on_c, 1, 75, 36
3, 55680, Control_c, 1, 64, 0
3, 55680, Note_off_c, 1, 75, 0
3, 55680, Note_on_c, 1, 72, 36
3, 55740, Control_c, 1, 64, 127
3, 56160, Note_off_c, 1, 72, 0
3, 57600, Note_on_c, 1, 70, 28
3, 57600, Control_c, 1, 64, 0
3, 57660, Control_c, 1, 64, 127
3, 57920, Note_off_c, 1, 70, 0
3, 57920, Note_on_c, 1, 72, 28
3, 58240, Note_off_c, 1, 72, 0
3, 58240, Note_on_c, 1, 70, 29
3, 58560, Note_off_c, 1, 70, 0
3, 58560, Note_on_c, 1, 72, 29
3, 58880, Note_off_c, 1, 72, 0
3, 58880, Note_on_c, 1, 70, 30
3, 59200, Note_off_c, 1, 70, 0
3, 59200, Note_on_c, 1, 72, 30
3, 59520, Control_c, 1, 64, 0
3, 59520, Note_off_c, 1, 72, 0
3, 59520, Note_on_c, 1, 68, 31
3, 59580, Control_c, 1, 64, 127
3, 59840, Note_off_c, 1, 68, 0
3, 59840, Note_on_c, 1, 70, 31
3, 60160, Note_off_c, 1, 70, 0
3, 60160, Note_on_c, 1, 68, 32
3, 60480, Note_off_c, 1, 68, 0
3, 60480, Note_on_c, 1, 70, 32
3, 60800, Note_off_c, 1, 70, 0
3, 60800, Note_on_c, 1, 68, 33
3, 61120, Note_off_c, 1, 68, 0
3, 61120, Note_on_c, 1, 70, 33
3, 61440, Control_c, 1, 64, 0
3, 61440, Note_off_c, 1, 70, 0
3, 61440, Note_on_c, 1, 66, 34
3, 61500, Control_c, 1, 64, 127
3, 61760, Note_off_c, 1, 66, 0
3, 61760, Note_on_c, 1, 68, 34
3, 62080, Note_off_c, 1, 68, 0
3, 62080, Note_on_c, 1, 66, 35
3, 62400, Note_off_c, 1, 66, 0
3, 62400, Note_on_c, 1, 68, 35
3, 62720, Note_off_c, 1, 68, 0
3, 62720, Note_on_c, 1, 66, 36
3, 63040, Note_off_c, 1, 66, 0
3, 63040, Note_on_c, 1, 68, 36
3, 63360, Control_c, 1, 64, 0
3, 63360, Note_off_c, 1, 68, 0
3, 63360, Note_on_c, 1, 65, 37
3, 63420, Control_c, 1, 64, 127
3, 63680, Note_off_c, 1, 65, 0
3, 63680, Note_on_c, 1, 77, 37
3, 64000, Note_off_c, 1, 77, 0
3, 64000, Note_on_c, 1, 75, 38
3, 64320, Note_off_c, 1, 75, 0
3, 64320, Note_on_c, 1, 73, 38
3, 64640, Note_off_c, 1, 73, 0
3, 64640, Note_on_c, 1, 68, 39
3, 64960, Note_off_c, 1, 68, 0
3, 64960, Note_on_c, 1, 70, 39
3, 65280, Control_c, 1, 64, 0
3, 65280, Note_off_c, 1, 70, 0
3, 65280, Note_on_c, 1, 71, 39
3, 65340, Control_c, 1, 64, 127
3, 65600, Note_off_c, 1, 71, 0
3, 65600, Note_on_c, 1, 82, 40
3, 65920, Note_off_c, 1, 82, 0
3, 65920, Note_on_c, 1, 80, 40
3, 66240, Note_off_c, 1, 80, 0
3, 66240, Note_on_c, 1, 78, 41
3, 66560, Note_off_c, 1, 78, 0
3, 66560, Note_on_c, 1, 75, 41
3, 66880, Note_off_c, 1, 75, 0
3, 66880, Note_on_c, 1, 78, 42
3, 67200, Control_c, 1, 64, 0
3, 67200, Note_off_c, 1, 78, 0
3, 67200, Note_on_c, 1, 68, 42
3, 67260, Control_c, 1, 64, 127
3, 67520, Note_off_c, 1, 68, 0
3, 67520, Note_on_c, 1, 78, 43
3, 67840, Note_off_c, 1, 78, 0
3, 67840, Note_on_c, 1, 77, 43
3, 68160, Note_off_c, 1, 77, 0
3, 68160, Note_on_c, 1, 75, 44
3, 68480, Note_off_c, 1, 75, 0
3, 68480, Note_on_c, 1, 71, 44
3, 68800, Note_off_c, 1, 71, 0
3, 68800, Note_on_c, 1, 75, 45
3, 69120, Control_c, 1, 64, 0
3, 69120, Note_off_c, 1, 75, 0
3, 69120, Note_on_c, 1, 65, 45
3, 69180, Control_c, 1, 64, 127
3, 69440, Note_off_c, 1, 65, 0
3, 69440, Note_on_c, 1, 75, 45
3, 69760, Note_off_c, 1, 75, 0
3, 69760, Note_on_c, 1, 73, 45
3, 70080, Note_off_c, 1, 73, 0
3, 70080, Note_on_c, 1, 71, 45
3, 70400, Note_off_c, 1, 71, 0
3, 70400, Note_on_c, 1, 68, 46
3, 70720, Note_off_c, 1, 68, 0
3, 70720, Note_on_c, 1, 71, 46
3, 71040, Control_c, 1, 64, 0
3, 71040, Note_off_c, 1, 71, 0
3, 71040, Note_on_c, 1, 58, 46
3, 71100, Control_c, 1, 64, 127
3, 71360, Note_off_c, 1, 58, 0
3, 71360, Note_on_c, 1, 65, 47
3, 71680, Note_off_c, 1, 65, 0
3, 71680, Note_on_c, 1, 64, 47
3, 72000, Note_off_c, 1, 64, 0
3, 72000, Note_on_c, 1, 63, 47
3, 72320, Note_off_c, 1, 63, 0
3, 72320, Note_on_c, 1, 62, 48
3, 72640, Note_off_c, 1, 62, 0
3, 72640, Note_on_c, 1, 65, 48
3, 72960, Control_c, 1, 64, 0
3, 72960, Note_off_c, 1, 65, 0
3, 72960, Note_on_c, 1, 58, 49
3, 73020, Control_c, 1, 64, 127
3, 73280, Note_off_c, 1, 58, 0
3, 73280, Note_on_c, 1, 71, 49
3, 73600, Note_off_c, 1, 71, 0
3, 73600, Note_on_c, 1, 70, 49
3, 73920, Note_off_c, 1, 70, 0
3, 73920, Note_on_c, 1, 69, 50
3, 74240, Note_off_c, 1, 69, 0
3, 74240, Note_on_c, 1, 68, 50
3, 74560, Note_off_c, 1, 68, 0
3, 74560, Note_on_c, 1, 77, 50
3, 74880, Control_c, 1, 64, 0
3, 74880, Note_off_c, 1, 77, 0
3, 74880, Note_on_c, 1, 75, 51
3, 74940, Control_c, 1, 64, 127
3, 75200, Note_off_c, 1, 75, 0
3, 75200, Note_on_c, 1, 74, 51
3, 75520, Note_off_c, 1, 74, 0
3, 75520, Note_on_c, 1, 83, 51
3, 75840, Note_off_c, 1, 83, 0
3, 75840, Note_on_c, 1, 82, 52
3, 76160, Note_off_c, 1, 82, 0
3, 76160, Note_on_c, 1, 81, 52
3, 76480, Note_off_c, 1, 81, 0
3, 76480, Note_on_c, 1, 80, 52
3, 76800, Control_c, 1, 64, 0
3, 76800, Note_off_c, 1, 80, 0
3, 76800, Note_on_c, 1, 77, 53
3, 76860, Control_c, 1, 64, 127
3, 77120, Note_off_c, 1, 77, 0
3, 77120, Note_on_c, 1, 73, 53
3, 77440, Note_off_c, 1, 73, 0
3, 77440, Note_on_c, 1, 71, 53
3, 77760, Note_off_c, 1, 71, 0
3, 77760, Note_on_c, 1, 70, 54
3, 78080, Note_off_c, 1, 70, 0
3, 78080, Note_on_c, 1, 61, 54
3, 78400, Note_off_c, 1, 61, 0
3, 78400, Note_on_c, 1, 59, 54
3, 78720, Control_c, 1, 64, 0
3, 78720, Note_off_c, 1, 59, 0
3, 78720, Note_on_c, 1, 58, 55
3, 78780, Control_c, 1, 64, 127
3, 79040, Note_off_c, 1, 58, 0
3, 79040, Note_on_c, 1, 62, 55
3, 79360, Note_off_c, 1, 62, 0
3, 79360, Note_on_c, 1, 63, 55
3, 79680, Note_off_c, 1, 63, 0
3, 79680, Note_on_c, 1, 65, 56
3, 80000, Note_off_c, 1, 65, 0
3, 80000, Note_on_c, 1, 66, 56
3, 80320, Note_off_c, 1, 66, 0
3, 80320, Note_on_c, 1, 69, 56
3, 80640, Control_c, 1, 64, 0
3, 80640, Note_off_c, 1, 69, 0
3, 80640, Note_on_c, 1, 70, 57
3, 80700, Control_c, 1, 64, 127
3, 80960, Note_off_c, 1, 70, 0
3, 80960, Note_on_c, 1, 71, 57
3, 81280, Note_off_c, 1, 71, 0
3, 81280, Note_on_c, 1, 69, 57
3, 81600, Note_off_c, 1, 69, 0
3, 81600, Note_on_c, 1, 70, 58
3, 81920, Note_off_c, 1, 70, 0
3, 81920, Note_on_c, 1, 61, 58
3, 82240, Note_off_c, 1, 61, 0
3, 82240, Note_on_c, 1, 59, 59
3, 82560, Control_c, 1, 64, 0
3, 82560, Note_off_c, 1, 59, 0
3, 82560, Note_on_c, 1, 58, 59
3, 82620, Control_c, 1, 64, 127
3, 82880, Note_off_c, 1, 58, 0
3, 82880, Note_on_c, 1, 62, 59
3, 83200, Note_off_c, 1, 62, 0
3, 83200, Note_on_c, 1, 65, 60
3, 83520, Note_off_c, 1, 65, 0
3, 83520, Note_on_c, 1, 63, 60
3, 83840, Note_off_c, 1, 63, 0
3, 83840, Note_on_c, 1, 75, 60
3, 84160, Note_off_c, 1, 75, 0
3, 84160, Note_on_c, 1, 69, 61
3, 84480, Control_c, 1, 64, 0
3, 84480, Note_off_c, 1, 69, 0
3, 84480, Note_on_c, 1, 70, 61
3, 84540, Control_c, 1, 64, 127
3, 84800, Note_off_c, 1, 70, 0
3, 84800, Note_on_c, 1, 73, 61
3, 85120, Note_off_c, 1, 73, 0
3, 85120, Note_on_c, 1, 71, 62
3, 85440, Note_off_c, 1, 71, 0
3, 85440, Note_on_c, 1, 70, 62
3, 85760, Note_off_c, 1, 70, 0
3, 85760, Note_on_c, 1, 63, 62
3, 86080, Note_off_c, 1, 63, 0
3, 86080, Note_on_c, 1, 65, 63
3, 86400, Control_c, 1, 64, 0
3, 86400, Note_off_c, 1, 65, 0
3, 86400, Note_on_c, 1, 66, 63
3, 86460, Control_c, 1, 64, 127
3, 86720, Note_off_c, 1, 66, 0
3, 86720, Note_on_c, 1, 62, 63
3, 87040, Note_off_c, 1, 62, 0
3, 87040, Note_on_c, 1, 63, 64
3, 87360, Note_off_c, 1, 63, 0
3, 87360, Note_on_c, 1, 66, 64
3, 87680, Note_off_c, 1, 66, 0
3, 87680, Note_on_c, 1, 70, 64
3, 88000, Note_off_c, 1, 70, 0
3, 88000, Note_on_c, 1, 71, 65
3, 88320, Control_c, 1, 64, 0
3, 88320, Note_off_c, 1, 71, 0
3, 88320, Note_on_c, 1, 72, 65
3, 88380, Control_c, 1, 64, 127
3, 88640, Note_off_c, 1, 72, 0
3, 88640, Note_on_c, 1, 73, 65
3, 88960, Note_off_c, 1, 73, 0
3, 88960, Note_on_c, 1, 71, 66
3, 89280, Note_off_c, 1, 71, 0
3, 89280, Note_on_c, 1, 72, 66
3, 89600, Note_off_c, 1, 72, 0
3, 89600, Note_on_c, 1, 63, 66
3, 89920, Note_off_c, 1, 63, 0
3, 89920, Note_on_c, 1, 61, 67
3, 90240, Control_c, 1, 64, 0
3, 90240, Note_off_c, 1, 61, 0
3, 90240, Note_on_c, 1, 60, 67
3, 90300, Control_c, 1, 64, 127
3, 90560, Note_off_c, 1, 60, 0
3, 90560, Note_on_c, 1, 64, 68
3, 90880, Note_off_c, 1, 64, 0
3, 90880, Note_on_c, 1, 67, 68
3, 91200, Note_off_c, 1, 67, 0
3, 91200, Note_on_c, 1, 65, 68
3, 91520, Note_off_c, 1, 65, 0
3, 91520, Note_on_c, 1, 77, 69
3, 91840, Note_off_c, 1, 77, 0
3, 91840, Note_on_c, 1, 71, 69
3, 92160, Control_c, 1, 64, 0
3, 92160, Note_off_c, 1, 71, 0
3, 92160, Note_on_c, 1, 72, 69
3, 92220, Control_c, 1, 64, 127
3, 92480, Note_off_c, 1, 72, 0
3, 92480, Note_on_c, 1, 75, 70
3, 92800, Note_off_c, 1, 75, 0
3, 92800, Note_on_c, 1, 73, 70
3, 93120, Note_off_c, 1, 73, 0
3, 93120, Note_on_c, 1, 72, 70
3, 93440, Note_off_c, 1, 72, 0
3, 93440, Note_on_c, 1, 67, 71
3, 93760, Note_off_c, 1, 67, 0
3, 93760, Note_on_c, 1, 70, 71
3, 94080, Control_c, 1, 64, 0
3, 94080, Note_off_c, 1, 70, 0
3, 94080, Note_on_c, 1, 69, 71
3, 94140, Control_c, 1, 64, 127
3, 94400, Note_off_c, 1, 69, 0
3, 94400, Note_on_c, 1, 64, 72
3, 94720, Note_off_c, 1, 64, 0
3, 94720, Note_on_c, 1, 65, 72
3, 95040, Note_off_c, 1, 65, 0
3, 95040, Note_on_c, 1, 66, 72
3, 95360, Note_off_c, 1, 66, 0
3, 95360, Note_on_c, 1, 63, 73
3, 95680, Note_off_c, 1, 63, 0
3, 95680, Note_on_c, 1, 70, 73
3, 96000, Control_c, 1, 64, 0
3, 96000, Note_off_c, 1, 70, 0
3, 96000, Note_on_c, 1, 69, 73
3, 96060, Control_c, 1, 64, 127
3, 96320, Note_off_c, 1, 69, 0
3, 96320, Note_on_c, 1, 64, 74
3, 96640, Note_off_c, 1, 64, 0
3, 96640, Note_on_c, 1, 65, 74
3, 96960, Note_off_c, 1, 65, 0
3, 96960, Note_on_c, 1, 66, 74
3, 97280, Note_off_c, 1, 66, 0
3, 97280, Note_on_c, 1, 63, 75
3, 97600, Note_off_c, 1, 63, 0
3, 97600, Note_on_c, 1, 72, 75
3, 97920, Control_c, 1, 64, 0
3, 97920, Note_off_c, 1, 72, 0
3, 97920, Note_on_c, 1, 71, 75
3, 97980, Control_c, 1, 64, 127
3, 98240, Note_off_c, 1, 71, 0
3, 98240, Note_on_c, 1, 66, 76
3, 98560, Note_off_c, 1, 66, 0
3, 98560, Note_on_c, 1, 67, 76
3, 98880, Note_off_c, 1, 67, 0
3, 98880, Note_on_c, 1, 68, 76
3, 99200, Note_off_c, 1, 68, 0
3, 99200, Note_on_c, 1, 65, 76
3, 99520, Note_off_c, 1, 65, 0
3, 99520, Note_on_c, 1, 72, 77
3, 99840, Control_c, 1, 64, 0
3, 99840, Note_off_c, 1, 72, 0
3, 99840, Note_on_c, 1, 71, 78
3, 99900, Control_c, 1, 64, 127
3, 100160, Note_off_c, 1, 71, 0
3, 100160, Note_on_c, 1, 66, 78
3, 100480, Note_off_c, 1, 66, 0
3, 100480, Note_on_c, 1, 67, 79
3, 100800, Note_off_c, 1, 67, 0
3, 100800, Note_on_c, 1, 68, 79
3, 101120, Note_off_c, 1, 68, 0
3, 101120, Note_on_c, 1, 65, 80
3, 101440, Note_off_c, 1, 65, 0
3, 101440, Note_on_c, 1, 80, 80
3, 101760, Control_c, 1, 64, 0
3, 101760, Note_off_c, 1, 80, 0
3, 101760, Note_on_c, 1, 79, 83
3, 101820, Control_c, 1, 64, 127
3, 102080, Note_off_c, 1, 79, 0
3, 102080, Note_on_c, 1, 77, 81
3, 102400, Note_off_c, 1, 77, 0
3, 102400, Note_on_c, 1, 76, 80
3, 102720, Note_off_c, 1, 76, 0
3, 102720, Note_on_c, 1, 77, 78
3, 103040, Note_off_c, 1, 77, 0
3, 103040, Note_on_c, 1, 75, 76
3, 103360, Note_off_c, 1, 75, 0
3, 103360, Note_on_c, 1, 73, 75
3, 103680, Control_c, 1, 64, 0
3, 103680, Note_off_c, 1, 73, 0
3, 103680, Note_on_c, 1, 75, 73
3, 103740, Control_c, 1, 64, 127
3, 104000, Note_off_c, 1, 75, 0
3, 104000, Note_on_c, 1, 73, 71
3, 104320, Note_off_c, 1, 73, 0
3, 104320, Note_on_c, 1, 72, 70
3, 104640, Note_off_c, 1, 72, 0
3, 104640, Note_on_c, 1, 70, 68
3, 104960, Note_off_c, 1, 70, 0
3, 104960, Note_on_c, 1, 68, 66
3, 105280, Note_off_c, 1, 68, 0
3, 105280, Note_on_c, 1, 66, 65
3, 105600, Control_c, 1, 64, 0
3, 105600, Note_off_c, 1, 66, 0
3, 105600, Note_on_c, 1, 65, 63
3, 105660, Control_c, 1, 64, 127
3, 105920, Note_off_c, 1, 65, 0
3, 105920, Note_on_c, 1, 64, 62
3, 106240, Note_off_c, 1, 64, 0
3, 106240, Note_on_c, 1, 71, 60
3, 106560, Note_off_c, 1, 71, 0
3, 106560, Note_on_c, 1, 73, 58
3, 106880, Note_off_c, 1, 73, 0
3, 106880, Note_on_c, 1, 72, 57
3, 107200, Note_off_c, 1, 72, 0
3, 107200, Note_on_c, 1, 74, 55
3, 107520, Control_c, 1, 64, 0
3, 107520, Note_off_c, 1, 74, 0
3, 107520, Note_on_c, 1, 77, 53
3, 107580, Control_c, 1, 64, 127
3, 107840, Note_off_c, 1, 77, 0
3, 107840, Note_on_c, 1, 76, 52
3, 108160, Note_off_c, 1, 76, 0
3, 108160, Note_on_c, 1, 77, 50
3, 108480, Note_off_c, 1, 77, 0
3, 108480, Note_on_c, 1, 80, 48
3, 108800, Note_off_c, 1, 80, 0
3, 108800, Note_on_c, 1, 79, 47
3, 109120, Note_off_c, 1, 79, 0
3, 109120, Note_on_c, 1, 80, 45
3, 109440, Control_c, 1, 64, 0
3, 109440, Note_off_c, 1, 80, 0
3, 109440, Note_on_c, 1, 77, 43
3, 109500, Control_c, 1, 64, 127
3, 111360, Note_off_c, 1, 77, 0
3, 111360, Note_on_c, 1, 75, 34
3, 111360, Control_c, 1, 64, 0
3, 111420, Control_c, 1, 64, 127
3, 111680, Note_off_c, 1, 75, 0
3, 111680, Note_on_c, 1, 77, 35
3, 112000, Note_off_c, 1, 77, 0
3, 112000, Note_on_c, 1, 75, 35
3, 112320, Note_off_c, 1, 75, 0
3, 112320, Note_on_c, 1, 77, 36
3, 112640, Note_off_c, 1, 77, 0
3, 112640, Note_on_c, 1, 75, 37
3, 112960, Note_off_c, 1, 75, 0
3, 112960, Note_on_c, 1, 77, 38
3, 113280, Control_c, 1, 64, 0
3, 113280, Note_off_c, 1, 77, 0
3, 113280, Note_on_c, 1, 73, 38
3, 113340, Control_c, 1, 64, 127
3, 113600, Note_off_c, 1, 73, 0
3, 113600, Note_on_c, 1, 75, 39
3, 113920, Note_off_c, 1, 75, 0
3, 113920, Note_on_c, 1, 73, 40
3, 114240, Note_off_c, 1, 73, 0
3, 114240, Note_on_c, 1, 75, 41
3, 114560, Note_off_c, 1, 75, 0
3, 114560, Note_on_c, 1, 73, 42
3, 114880, Note_off_c, 1, 73, 0
3, 114880, Note_on_c, 1, 75, 42
3, 115200, Control_c, 1, 64, 0
3, 115200, Note_off_c, 1, 75, 0
3, 115200, Note_on_c, 1, 71, 43
3, 115260, Control_c, 1, 64, 127
3, 115520, Note_off_c, 1, 71, 0
3, 115520, Note_on_c, 1, 73, 42
3, 115840, Note_off_c, 1, 73, 0
3, 115840, Note_on_c, 1, 71, 41
3, 116160, Note_off_c, 1, 71, 0
3, 116160, Note_on_c, 1, 73, 40
3, 116480, Note_off_c, 1, 73, 0
3, 116480, Note_on_c, 1, 71, 40
3, 116800, Note_off_c, 1, 71, 0
3, 116800, Note_on_c, 1, 73, 39
3, 117120, Control_c, 1, 64, 0
3, 117120, Note_off_c, 1, 73, 0
3, 117120, Note_on_c, 1, 70, 38
3, 117180, Control_c, 1, 64, 127
3, 117440, Note_off_c, 1, 70, 0
3, 117440, Note_on_c, 1, 72, 37
3, 117760, Note_off_c, 1, 72, 0
3, 117760, Note_on_c, 1, 70, 36
3, 118080, Note_off_c, 1, 70, 0
3, 118080, Note_on_c, 1, 72, 35
3, 118400, Note_off_c, 1, 72, 0
3, 118400, Note_on_c, 1, 70, 34
3, 118720, Note_off_c, 1, 70, 0
3, 118720, Note_on_c, 1, 72, 33
3, 119040, Control_c, 1, 64, 0
3, 119040, Note_off_c, 1, 72, 0
3, 119040, Note_on_c, 1, 70, 33
3, 119100, Control_c, 1, 64, 127
3, 119360, Note_off_c, 1, 70, 0
3, 119360, Note_on_c, 1, 72, 33
3, 119680, Note_off_c, 1, 72, 0
3, 119680, Note_on_c, 1, 70, 32
3, 120000, Note_off_c, 1, 70, 0
3, 120000, Note_on_c, 1, 72, 32
3, 120320, Note_off_c, 1, 72, 0
3, 120320, Note_on_c, 1, 70, 31
3, 120640, Note_off_c, 1, 70, 0
3, 120640, Note_on_c, 1, 65, 30
3, 120960, Control_c, 1, 64, 0
3, 120960, Note_off_c, 1, 65, 0
3, 120960, Note_on_c, 1, 67, 30
3, 121020, Control_c, 1, 64, 127
3, 121280, Note_off_c, 1, 67, 0
3, 121280, Note_on_c, 1, 68, 29
3, 121600, Note_off_c, 1, 68, 0
3, 121600, Note_on_c, 1, 67, 28
3, 121920, Note_off_c, 1, 67, 0
3, 121920, Note_on_c, 1, 68, 28
3, 122240, Note_off_c, 1, 68, 0
3, 122240, Note_on_c, 1, 67, 27
3, 122560, Note_off_c, 1, 67, 0
3, 122560, Note_on_c, 1, 58, 26
3, 122880, Control_c, 1, 64, 0
3, 122880, Note_off_c, 1, 58, 0
3, 122880, Note_on_c, 1, 61, 26
3, 123840, Note_off_c, 1, 61, 0
3, 123840, Note_on_c, 1, 64, 24
3, 124800, Note_off_c, 1, 64, 0
3, 124800, Note_on_c, 1, 65, 22
3, 125760, Note_off_c, 1, 65, 0
3, 126720, Control_c, 1, 64, 127
3, 126720, Note_on_c, 1, 56, 18
3, 127680, Note_off_c, 1, 56, 0
3, 127680, Note_on_c, 1, 56, 16
3, 128640, Note_off_c, 1, 56, 0
3, 128640, Note_on_c, 1, 56, 14
3, 130560, Note_off_c, 1, 56, 0
3, 132480, Control_c, 1, 7, 127
3, 132480, Pitch_bend_c, 1, 8192
3, 132480, Control_c, 1, 1, 0
3, 132480, Control_c, 1, 93, 20
3, 132480, Control_c, 1, 91, 80
3, 132480, Control_c, 1, 10, 73
3, 132480, Control_c, 1, 64, 0
3, 132480, Control_c, 1, 64, 0
3, 132480, Control_c, 1, 0, 0
3, 132480, Control_c, 1, 32, 0
3, 132480, Program_c, 1, 0
3, 132480, Control_c, 1, 64, 0
3, 136800, Note_on_c, 1, 77, 44
3, 136800, Control_c, 1, 64, 127
3, 137280, Note_off_c, 1, 77, 0
3, 137280, Note_on_c, 1, 77, 45
3, 137460, Control_c, 1, 64, 0
3, 137520, Note_off_c, 1, 77, 0
3, 137520, Note_on_c, 1, 73, 45
3, 137760, Note_off_c, 1, 73, 0
3, 137760, Note_on_c, 1, 70, 46
3, 138000, Note_off_c, 1, 70, 0
3, 138000, Note_on_c, 1, 72, 46
3, 138240, Control_c, 1, 64, 127
3, 138240, Note_off_c, 1, 72, 0
3, 138240, Note_on_c, 1, 70, 46
3, 138400, Note_on_c, 1, 68, 47
3, 138401, Note_off_c, 1, 70, 0
3, 138440, Note_on_c, 1, 70, 47
3, 138460, Note_off_c, 1, 68, 0
3, 138480, Note_on_c, 1, 68, 47
3, 138500, Note_off_c, 1, 70, 0
3, 138720, Note_off_c, 1, 68, 0
3, 138720, Note_on_c, 1, 67, 47
3, 138960, Note_off_c, 1, 67, 0
3, 138960, Note_on_c, 1, 68, 48
3, 139200, Note_off_c, 1, 68, 0
3, 139200, Note_on_c, 1, 70, 48
3, 139380, Control_c, 1, 64, 0
3, 139440, Note_off_c, 1, 70, 0
3, 139440, Note_on_c, 1, 72, 49
3, 139680, Control_c, 1, 64, 127
3, 139680, Note_off_c, 1, 72, 0
3, 139680, Note_on_c, 1, 75, 49
3, 139840, Note_on_c, 1, 73, 49
3, 139841, Note_off_c, 1, 75, 0
3, 139880, Note_on_c, 1, 75, 49
3, 139900, Note_off_c, 1, 73, 0
3, 139920, Note_on_c, 1, 73, 50
3, 139940, Note_off_c, 1, 75, 0
3, 140160, Note_off_c, 1, 73, 0
3, 140160, Note_on_c, 1, 72, 50
3, 140340, Control_c, 1, 64, 0
3, 140400, Note_off_c, 1, 72, 0
3, 140400, Note_on_c, 1, 73, 50
3, 140640, Note_off_c, 1, 73, 0
3, 140640, Note_on_c, 1, 77, 51
3, 140880, Note_off_c, 1, 77, 0
3, 140880, Note_on_c, 1, 75, 51
3, 141120, Control_c, 1, 64, 127
3, 141120, Note_off_c, 1, 75, 0
3, 141120, Note_on_c, 1, 73, 54
3, 141360, Note_off_c, 1, 73, 0
3, 141360, Note_on_c, 1, 72, 56
3, 141600, Note_off_c, 1, 72, 0
3, 141600, Note_on_c, 1, 74, 58
3, 141840, Note_off_c, 1, 74, 0
3, 141840, Note_on_c, 1, 75, 61
3, 142080, Note_off_c, 1, 75, 0
3, 142080, Note_on_c, 1, 82, 63
3, 142260, Control_c, 1, 64, 0
3, 142320, Note_off_c, 1, 82, 0
3, 142320, Note_on_c, 1, 80, 55
3, 142512, Note_off_c, 1, 80, 0
3, 142560, Control_c, 1, 64, 127
3, 142560, Note_on_c, 1, 78, 46
3, 142800, Note_off_c, 1, 78, 0
3, 142800, Note_on_c, 1, 74, 46
3, 143040, Note_off_c, 1, 74, 0
3, 143040, Note_on_c, 1, 77, 47
3, 143220, Control_c, 1, 64, 0
3, 143280, Note_off_c, 1, 77, 0
3, 143280, Note_on_c, 1, 75, 47
3, 143520, Control_c, 1, 64, 127
3, 143520, Note_off_c, 1, 75, 0
3, 143520, Note_on_c, 1, 71, 48
3, 143760, Note_off_c, 1, 71, 0
3, 143760, Note_on_c, 1, 73, 48
3, 143940, Control_c, 1, 64, 0
3, 144000, Note_off_c, 1, 73, 0
3, 144000, Note_on_c, 1, 71, 49
3, 144000, Control_c, 1, 64, 127
3, 144157, Note_off_c, 1, 71, 0
3, 144160, Note_on_c, 1, 70, 49
3, 144200, Note_on_c, 1, 71, 49
3, 144217, Note_off_c, 1, 70, 0
3, 144240, Note_on_c, 1, 70, 49
3, 144255, Note_off_c, 1, 71, 0
3, 144480, Note_off_c, 1, 70, 0
3, 144480, Note_on_c, 1, 69, 50
3, 144720, Note_off_c, 1, 69, 0
3, 144720, Note_on_c, 1, 70, 50
3, 144960, Note_off_c, 1, 70, 0
3, 144960, Note_on_c, 1, 72, 50
3, 145140, Control_c, 1, 64, 0
3, 145200, Note_off_c, 1, 72, 0
3, 145200, Note_on_c, 1, 74, 51
3, 145440, Control_c, 1, 64, 127
3, 145440, Note_off_c, 1, 74, 0
3, 145440, Note_on_c, 1, 77, 51
3, 145600, Note_on_c, 1, 75, 53
3, 145601, Note_off_c, 1, 77, 0
3, 145640, Note_on_c, 1, 77, 54
3, 145653, Note_off_c, 1, 75, 0
3, 145680, Note_on_c, 1, 75, 54
3, 145687, Note_off_c, 1, 77, 0
3, 145920, Note_off_c, 1, 75, 0
3, 145920, Note_on_c, 1, 74, 57
3, 146100, Control_c, 1, 64, 0
3, 146160, Note_off_c, 1, 74, 0
3, 146160, Note_on_c, 1, 75, 59
3, 146400, Note_off_c, 1, 75, 0
3, 146400, Note_on_c, 1, 78, 62
3, 146640, Note_off_c, 1, 78, 0
3, 146640, Note_on_c, 1, 72, 58
3, 146880, Control_c, 1, 64, 127
3, 146880, Note_off_c, 1, 72, 0
3, 146880, Note_on_c, 1, 75, 54
3, 147120, Note_off_c, 1, 75, 0
3, 147120, Note_on_c, 1, 74, 53
3, 147360, Note_off_c, 1, 74, 0
3, 147360, Note_on_c, 1, 73, 51
3, 147600, Note_off_c, 1, 73, 0
3, 147600, Note_on_c, 1, 72, 49
3, 147783, Note_off_c, 1, 72, 0
3, 147840, Note_on_c, 1, 75, 47
3, 148020, Control_c, 1, 64, 0
3, 148080, Note_off_c, 1, 75, 0
3, 148080, Note_on_c, 1, 73, 46
3, 148260, Note_off_c, 1, 73, 0
3, 148320, Control_c, 1, 64, 127
3, 148320, Note_on_c, 1, 72, 46
3, 148560, Note_off_c, 1, 72, 0
3, 148560, Note_on_c, 1, 70, 46
3, 148800, Note_off_c, 1, 70, 0
3, 148800, Note_on_c, 1, 69, 47
3, 149040, Note_off_c, 1, 69, 0
3, 149040, Note_on_c, 1, 70, 47
3, 149280, Note_off_c, 1, 70, 0
3, 149280, Note_on_c, 1, 72, 48
3, 149460, Control_c, 1, 64, 0
3, 149520, Note_off_c, 1, 72, 0
3, 149520, Note_on_c, 1, 67, 48
3, 149760, Control_c, 1, 64, 127
3, 149760, Note_off_c, 1, 67, 0
3, 149760, Note_on_c, 1, 70, 49
3, 150000, Note_off_c, 1, 70, 0
3, 150000, Note_on_c, 1, 68, 49
3, 150240, Note_off_c, 1, 68, 0
3, 150240, Note_on_c, 1, 67, 50
3, 150480, Note_off_c, 1, 67, 0
3, 150480, Note_on_c, 1, 68, 50
3, 150720, Note_off_c, 1, 68, 0
3, 150720, Note_on_c, 1, 72, 51
3, 150900, Control_c, 1, 64, 0
3, 150960, Note_off_c, 1, 72, 0
3, 150960, Note_on_c, 1, 77, 51
3, 151147, Note_off_c, 1, 77, 0
3, 151200, Control_c, 1, 64, 127
3, 151200, Note_on_c, 1, 75, 53
3, 151680, Note_off_c, 1, 75, 0
3, 151680, Note_on_c, 1, 73, 58
3, 151860, Control_c, 1, 64, 0
3, 151920, Note_off_c, 1, 73, 0
3, 151920, Note_on_c, 1, 72, 60
3, 152160, Control_c, 1, 64, 127
3, 152160, Note_off_c, 1, 72, 0
3, 152160, Note_on_c, 1, 70, 62
3, 152400, Note_off_c, 1, 70, 0
3, 152400, Note_on_c, 1, 72, 66
3, 152580, Control_c, 1, 64, 0
3, 152640, Note_off_c, 1, 72, 0
3, 152640, Note_on_c, 1, 73, 68
3, 152640, Control_c, 1, 64, 127
3, 153300, Control_c, 1, 64, 0
3, 154080, Control_c, 1, 64, 127
3, 154320, Note_off_c, 1, 73, 0
3, 154320, Note_on_c, 1, 72, 42
3, 154500, Note_off_c, 1, 72, 0
3, 154500, Note_on_c, 1, 73, 43
3, 154560, Note_off_c, 1, 73, 0
3, 154560, Note_on_c, 1, 72, 43
3, 154800, Note_off_c, 1, 72, 0
3, 154800, Note_on_c, 1, 71, 43
3, 154956, Note_off_c, 1, 71, 0
3, 155040, Note_on_c, 1, 73, 44
3, 155460, Control_c, 1, 64, 0
3, 155520, Control_c, 1, 64, 127
3, 155760, Note_off_c, 1, 73, 0
3, 155760, Note_on_c, 1, 72, 45
3, 155940, Note_off_c, 1, 72, 0
3, 155940, Note_on_c, 1, 73, 46
3, 156000, Note_off_c, 1, 73, 0
3, 156000, Note_on_c, 1, 72, 46
3, 156240, Note_off_c, 1, 72, 0
3, 156240, Note_on_c, 1, 70, 46
3, 156480, Note_off_c, 1, 70, 0
3, 156480, Note_on_c, 1, 73, 47
3, 156660, Control_c, 1, 64, 0
3, 156720, Note_off_c, 1, 73, 0
3, 156720, Note_on_c, 1, 72, 48
3, 156960, Note_off_c, 1, 72, 0
3, 156960, Note_on_c, 1, 71, 49
3, 157200, Note_off_c, 1, 71, 0
3, 157200, Note_on_c, 1, 72, 51
3, 157440, Note_off_c, 1, 72, 0
3, 157440, Note_on_c, 1, 73, 53
3, 157680, Note_off_c, 1, 73, 0
3, 157680, Note_on_c, 1, 72, 55
3, 157920, Control_c, 1, 64, 127
3, 157920, Note_off_c, 1, 72, 0
3, 157920, Note_on_c, 1, 77, 59
3, 158160, Note_off_c, 1, 77, 0
3, 158160, Note_on_c, 1, 79, 64
3, 158340, Control_c, 1, 64, 0
3, 158400, Note_off_c, 1, 79, 0
3, 158400, Note_on_c, 1, 80, 68
3, 158400, Control_c, 1, 64, 127
3, 159300, Note_off_c, 1, 80, 0
3, 159360, Note_on_c, 1, 79, 53
3, 159780, Control_c, 1, 64, 0
3, 159805, Note_off_c, 1, 79, 0
3, 159840, Note_on_c, 1, 78, 49
3, 159840, Control_c, 1, 64, 127
3, 160080, Note_off_c, 1, 78, 0
3, 160080, Note_on_c, 1, 71, 49
3, 160260, Note_on_c, 1, 73, 49
3, 160275, Note_off_c, 1, 71, 0
3, 160320, Note_off_c, 1, 73, 0
3, 160320, Note_on_c, 1, 71, 49
3, 160560, Note_off_c, 1, 71, 0
3, 160560, Note_on_c, 1, 70, 48
3, 160800, Note_off_c, 1, 70, 0
3, 160800, Note_on_c, 1, 71, 48
3, 161220, Control_c, 1, 64, 0
3, 161280, Control_c, 1, 64, 127
3, 161760, Note_on_c, 1, 70, 46
3, 161767, Note_off_c, 1, 71, 0
3, 162180, Control_c, 1, 64, 0
3, 162180, Note_off_c, 1, 70, 0
3, 162240, Note_on_c, 1, 76, 46
3, 162720, Control_c, 1, 64, 127
3, 162720, Note_off_c, 1, 76, 0
3, 162720, Note_on_c, 1, 75, 45
3, 162960, Note_off_c, 1, 75, 0
3, 162960, Note_on_c, 1, 68, 44
3, 163140, Note_off_c, 1, 68, 0
3, 163140, Note_on_c, 1, 70, 44
3, 163200, Note_off_c, 1, 70, 0
3, 163200, Note_on_c, 1, 68, 44
3, 163440, Note_off_c, 1, 68, 0
3, 163440, Note_on_c, 1, 67, 44
3, 163680, Note_off_c, 1, 67, 0
3, 163680, Note_on_c, 1, 68, 43
3, 164100, Control_c, 1, 64, 0
3, 164160, Control_c, 1, 64, 127
3, 164640, Note_off_c, 1, 68, 0
3, 164640, Note_on_c, 1, 67, 42
3, 165060, Control_c, 1, 64, 0
3, 165060, Note_off_c, 1, 67, 0
3, 165120, Note_on_c, 1, 73, 41
3, 165600, Control_c, 1, 64, 127
3, 165840, Note_on_c, 1, 72, 40
3, 165845, Note_off_c, 1, 73, 0
3, 166080, Note_off_c, 1, 72, 0
3, 166080, Note_on_c, 1, 70, 40
3, 166260, Control_c, 1, 64, 0
3, 166320, Note_off_c, 1, 70, 0
3, 166320, Note_on_c, 1, 68, 39
3, 166560, Note_off_c, 1, 68, 0
3, 166560, Note_on_c, 1, 72, 39
3, 166800, Note_off_c, 1, 72, 0
3, 166800, Note_on_c, 1, 70, 38
3, 167040, Control_c, 1, 64, 127
3, 167040, Note_off_c, 1, 70, 0
3, 167040, Note_on_c, 1, 68, 38
3, 167700, Control_c, 1, 64, 0
3, 168000, Note_off_c, 1, 68, 0
3, 168000, Note_on_c, 1, 67, 36
3, 168480, Note_off_c, 1, 67, 0
3, 168480, Note_on_c, 1, 68, 36
3, 168900, Note_off_c, 1, 68, 0
3, 168960, Note_on_c, 1, 72, 38
3, 169200, Note_off_c, 1, 72, 0
3, 169200, Note_on_c, 1, 70, 39
3, 169380, Note_off_c, 1, 70, 0
3, 169380, Note_on_c, 1, 72, 39
3, 169440, Note_off_c, 1, 72, 0
3, 169440, Note_on_c, 1, 70, 39
3, 169680, Note_off_c, 1, 70, 0
3, 169680, Note_on_c, 1, 68, 39
3, 169920, Note_off_c, 1, 68, 0
3, 169920, Note_on_c, 1, 72, 40
3, 170160, Note_off_c, 1, 72, 0
3, 170160, Note_on_c, 1, 70, 40
3, 170340, Note_off_c, 1, 70, 0
3, 170340, Note_on_c, 1, 72, 40
3, 170400, Note_off_c, 1, 72, 0
3, 170400, Note_on_c, 1, 70, 40
3, 170640, Note_off_c, 1, 70, 0
3, 170640, Note_on_c, 1, 68, 40
3, 170880, Note_off_c, 1, 68, 0
3, 170880, Note_on_c, 1, 72, 41
3, 171120, Note_off_c, 1, 72, 0
3, 171120, Note_on_c, 1, 70, 41
3, 171305, Note_off_c, 1, 70, 0
3, 171360, Note_on_c, 1, 70, 41
3, 171600, Note_off_c, 1, 70, 0
3, 171600, Note_on_c, 1, 68, 42
3, 171840, Note_off_c, 1, 68, 0
3, 171840, Note_on_c, 1, 72, 42
3, 172080, Note_off_c, 1, 72, 0
3, 172080, Note_on_c, 1, 70, 42
3, 172260, Note_off_c, 1, 70, 0
3, 172260, Note_on_c, 1, 72, 43
3, 172320, Note_off_c, 1, 72, 0
3, 172320, Note_on_c, 1, 70, 43
3, 172560, Note_off_c, 1, 70, 0
3, 172560, Note_on_c, 1, 68, 43
3, 172800, Note_off_c, 1, 68, 0
3, 172800, Note_on_c, 1, 72, 43
3, 173040, Note_off_c, 1, 72, 0
3, 173040, Note_on_c, 1, 70, 44
3, 173220, Note_off_c, 1, 70, 0
3, 173220, Note_on_c, 1, 72, 44
3, 173280, Note_off_c, 1, 72, 0
3, 173280, Note_on_c, 1, 70, 44
3, 173520, Note_off_c, 1, 70, 0
3, 173520, Note_on_c, 1, 68, 44
3, 173760, Note_off_c, 1, 68, 0
3, 173760, Note_on_c, 1, 72, 45
3, 174000, Note_off_c, 1, 72, 0
3, 174000, Note_on_c, 1, 70, 45
3, 174180, Note_off_c, 1, 70, 0
3, 174240, Note_on_c, 1, 68, 44
3, 174720, Note_off_c, 1, 68, 0
3, 174720, Note_on_c, 1, 69, 47
3, 175200, Note_off_c, 1, 69, 0
3, 175200, Note_on_c, 1, 70, 49
3, 175680, Note_off_c, 1, 70, 0
3, 175680, Note_on_c, 1, 71, 51
3, 176160, Note_off_c, 1, 71, 0
3, 176160, Note_on_c, 1, 72, 53
3, 176640, Note_off_c, 1, 72, 0
3, 176640, Note_on_c, 1, 73, 56
3, 177360, Note_off_c, 1, 73, 0
3, 177360, Note_on_c, 1, 74, 63
3, 177840, Note_off_c, 1, 74, 0
3, 177840, Note_on_c, 1, 75, 69
3, 178320, Note_off_c, 1, 75, 0
3, 178320, Note_on_c, 1, 76, 75
3, 178800, Note_off_c, 1, 76, 0
3, 178800, Note_on_c, 1, 77, 72
3, 179040, Note_off_c, 1, 77, 0
3, 179040, Note_on_c, 1, 78, 63
3, 179280, Note_off_c, 1, 78, 0
3, 179280, Note_on_c, 1, 79, 56
3, 179520, Note_off_c, 1, 79, 0
3, 179520, Note_on_c, 1, 80, 50
3, 179760, Note_off_c, 1, 80, 0
3, 179760, Note_on_c, 1, 78, 43
3, 179947, Note_off_c, 1, 78, 0
3, 180000, Control_c, 1, 64, 127
3, 180000, Note_on_c, 1, 77, 40
3, 180480, Note_off_c, 1, 77, 0
3, 180480, Note_on_c, 1, 77, 40
3, 180660, Control_c, 1, 64, 0
3, 180720, Note_off_c, 1, 77, 0
3, 180720, Note_on_c, 1, 73, 41
3, 180960, Note_off_c, 1, 73, 0
3, 180960, Note_on_c, 1, 70, 41
3, 181200, Note_off_c, 1, 70, 0
3, 181200, Note_on_c, 1, 72, 41
3, 181440, Control_c, 1, 64, 127
3, 181440, Note_off_c, 1, 72, 0
3, 181440, Note_on_c, 1, 70, 41
3, 181600, Note_on_c, 1, 68, 42
3, 181601, Note_off_c, 1, 70, 0
3, 181640, Note_on_c, 1, 70, 42
3, 181660, Note_off_c, 1, 68, 0
3, 181680, Note_on_c, 1, 68, 42
3, 181700, Note_off_c, 1, 70, 0
3, 181920, Note_off_c, 1, 68, 0
3, 181920, Note_on_c, 1, 67, 42
3, 182160, Note_off_c, 1, 67, 0
3, 182160, Note_on_c, 1, 68, 42
3, 182400, Note_off_c, 1, 68, 0
3, 182400, Note_on_c, 1, 70, 43
3, 182580, Control_c, 1, 64, 0
3, 182640, Note_off_c, 1, 70, 0
3, 182640, Note_on_c, 1, 72, 43
3, 182880, Control_c, 1, 64, 127
3, 182880, Note_off_c, 1, 72, 0
3, 182880, Note_on_c, 1, 75, 43
3, 183040, Note_on_c, 1, 73, 44
3, 183041, Note_off_c, 1, 75, 0
3, 183080, Note_on_c, 1, 75, 44
3, 183100, Note_off_c, 1, 73, 0
3, 183120, Note_on_c, 1, 73, 44
3, 183140, Note_off_c, 1, 75, 0
3, 183360, Note_off_c, 1, 73, 0
3, 183360, Note_on_c, 1, 72, 44
3, 183540, Control_c, 1, 64, 0
3, 183600, Note_off_c, 1, 72, 0
3, 183600, Note_on_c, 1, 73, 44
3, 183840, Note_off_c, 1, 73, 0
3, 183840, Note_on_c, 1, 77, 45
3, 184080, Note_off_c, 1, 77, 0
3, 184080, Note_on_c, 1, 75, 45
3, 184320, Control_c, 1, 64, 127
3, 184320, Note_off_c, 1, 75, 0
3, 184320, Note_on_c, 1, 73, 46
3, 184560, Note_off_c, 1, 73, 0
3, 184560, Note_on_c, 1, 72, 49
3, 184800, Note_off_c, 1, 72, 0
3, 184800, Note_on_c, 1, 74, 52
3, 185040, Note_off_c, 1, 74, 0
3, 185040, Note_on_c, 1, 75, 55
3, 185280, Note_off_c, 1, 75, 0
3, 185280, Note_on_c, 1, 82, 58
3, 185460, Control_c, 1, 64, 0
3, 185520, Note_off_c, 1, 82, 0
3, 185520, Note_on_c, 1, 80, 51
3, 185712, Note_off_c, 1, 80, 0
3, 185760, Control_c, 1, 64, 127
3, 185760, Note_on_c, 1, 78, 42
3, 186000, Note_off_c, 1, 78, 0
3, 186000, Note_on_c, 1, 74, 42
3, 186240, Note_off_c, 1, 74, 0
3, 186240, Note_on_c, 1, 77, 43
3, 186420, Control_c, 1, 64, 0
3, 186480, Note_off_c, 1, 77, 0
3, 186480, Note_on_c, 1, 75, 44
3, 186720, Control_c, 1, 64, 127
3, 186720, Note_off_c, 1, 75, 0
3, 186720, Note_on_c, 1, 71, 44
3, 186900, Note_off_c, 1, 71, 0
3, 186960, Note_on_c, 1, 73, 45
3, 187140, Control_c, 1, 64, 0
3, 187200, Note_off_c, 1, 73, 0
3, 187200, Note_on_c, 1, 71, 46
3, 187200, Control_c, 1, 64, 127
3, 187356, Note_off_c, 1, 71, 0
3, 187360, Note_on_c, 1, 70, 46
3, 187400, Note_on_c, 1, 72, 46
3, 187417, Note_off_c, 1, 70, 0
3, 187440, Note_on_c, 1, 70, 46
3, 187457, Note_off_c, 1, 72, 0
3, 187680, Note_off_c, 1, 70, 0
3, 187680, Note_on_c, 1, 69, 47
3, 187920, Note_off_c, 1, 69, 0
3, 187920, Note_on_c, 1, 70, 47
3, 188160, Note_off_c, 1, 70, 0
3, 188160, Note_on_c, 1, 72, 48
3, 188340, Control_c, 1, 64, 0
3, 188400, Note_off_c, 1, 72, 0
3, 188400, Note_on_c, 1, 74, 49
3, 188640, Control_c, 1, 64, 127
3, 188640, Note_off_c, 1, 74, 0
3, 188640, Note_on_c, 1, 77, 48
3, 188800, Note_on_c, 1, 75, 48
3, 188801, Note_off_c, 1, 77, 0
3, 188840, Note_on_c, 1, 77, 48
3, 188853, Note_off_c, 1, 75, 0
3, 188880, Note_on_c, 1, 75, 49
3, 188887, Note_off_c, 1, 77, 0
3, 189120, Note_off_c, 1, 75, 0
3, 189120, Note_on_c, 1, 74, 49
3, 189360, Note_off_c, 1, 74, 0
3, 189360, Note_on_c, 1, 75, 50
3, 189600, Note_off_c, 1, 75, 0
3, 189600, Note_on_c, 1, 78, 51
3, 189780, Control_c, 1, 64, 0
3, 189840, Note_off_c, 1, 78, 0
3, 189840, Note_on_c, 1, 72, 52
3, 190080, Control_c, 1, 64, 127
3, 190080, Note_off_c, 1, 72, 0
3, 190080, Note_on_c, 1, 75, 52
3, 190320, Note_off_c, 1, 75, 0
3, 190320, Note_on_c, 1, 74, 53
3, 190560, Note_off_c, 1, 74, 0
3, 190560, Note_on_c, 1, 73, 54
3, 190800, Note_off_c, 1, 73, 0
3, 190800, Note_on_c, 1, 72, 55
3, 190980, Control_c, 1, 64, 0
3, 190985, Note_off_c, 1, 72, 0
3, 191040, Note_on_c, 1, 75, 56
3, 191280, Note_off_c, 1, 75, 0
3, 191280, Note_on_c, 1, 73, 56
3, 191520, Control_c, 1, 64, 127
3, 191520, Note_off_c, 1, 73, 0
3, 191520, Note_on_c, 1, 78, 56
3, 191680, Note_on_c, 1, 77, 57
3, 191685, Note_off_c, 1, 78, 0
3, 191720, Note_on_c, 1, 78, 58
3, 191737, Note_off_c, 1, 77, 0
3, 191760, Note_on_c, 1, 77, 58
3, 191778, Note_off_c, 1, 78, 0
3, 192000, Note_off_c, 1, 77, 0
3, 192000, Note_on_c, 1, 76, 60
3, 192180, Control_c, 1, 64, 0
3, 192240, Note_off_c, 1, 76, 0
3, 192240, Note_on_c, 1, 77, 62
3, 192480, Note_off_c, 1, 77, 0
3, 192480, Note_on_c, 1, 78, 63
3, 192720, Note_off_c, 1, 78, 0
3, 192720, Note_on_c, 1, 74, 65
3, 192960, Control_c, 1, 64, 127
3, 192960, Note_off_c, 1, 74, 0
3, 192960, Note_on_c, 1, 77, 67
3, 193200, Note_off_c, 1, 77, 0
3, 193200, Note_on_c, 1, 75, 71
3, 193380, Note_off_c, 1, 75, 0
3, 193440, Note_on_c, 1, 90, 87
3, 193680, Note_off_c, 1, 90, 0
3, 193680, Note_on_c, 1, 89, 85
3, 193920, Note_off_c, 1, 89, 0
3, 193920, Note_on_c, 1, 87, 82
3, 194100, Control_c, 1, 64, 0
3, 194160, Note_off_c, 1, 87, 0
3, 194160, Note_on_c, 1, 85, 80
3, 194400, Control_c, 1, 64, 127
3, 194400, Note_off_c, 1, 85, 0
3, 194400, Note_on_c, 1, 83, 78
3, 194640, Note_off_c, 1, 83, 0
3, 194640, Note_on_c, 1, 84, 76
3, 194880, Note_off_c, 1, 84, 0
3, 194880, Note_on_c, 1, 81, 73
3, 195120, Note_off_c, 1, 81, 0
3, 195120, Note_on_c, 1, 82, 71
3, 195360, Note_off_c, 1, 82, 0
3, 195360, Note_on_c, 1, 79, 69
3, 195600, Note_off_c, 1, 79, 0
3, 195600, Note_on_c, 1, 80, 67
3, 195840, Control_c, 1, 64, 0
3, 195840, Note_off_c, 1, 80, 0
3, 195840, Note_on_c, 1, 77, 64
3, 196080, Note_off_c, 1, 77, 0
3, 196080, Note_on_c, 1, 78, 62
3, 196320, Note_off_c, 1, 78, 0
3, 196320, Note_on_c, 1, 76, 60
3, 196560, Note_off_c, 1, 76, 0
3, 196560, Note_on_c, 1, 77, 58
3, 196800, Note_off_c, 1, 77, 0
3, 196800, Note_on_c, 1, 74, 55
3, 197040, Note_off_c, 1, 74, 0
3, 197040, Note_on_c, 1, 75, 53
3, 197232, Note_off_c, 1, 75, 0
3, 197280, Note_on_c, 1, 76, 52
3, 197520, Note_off_c, 1, 76, 0
3, 197520, Note_on_c, 1, 77, 51
3, 197705, Note_off_c, 1, 77, 0
3, 197760, Note_on_c, 1, 74, 50
3, 198000, Note_off_c, 1, 74, 0
3, 198000, Note_on_c, 1, 75, 48
3, 198240, Note_off_c, 1, 75, 0
3, 198240, Note_on_c, 1, 76, 47
3, 198480, Note_off_c, 1, 76, 0
3, 198480, Note_on_c, 1, 77, 46
3, 198672, Note_off_c, 1, 77, 0
3, 198720, Note_on_c, 1, 74, 44
3, 198960, Note_off_c, 1, 74, 0
3, 198960, Note_on_c, 1, 75, 43
3, 199200, Note_off_c, 1, 75, 0
3, 199200, Note_on_c, 1, 77, 42
3, 199440, Note_off_c, 1, 77, 0
3, 199440, Note_on_c, 1, 75, 40
3, 199680, Note_off_c, 1, 75, 0
3, 199680, Note_on_c, 1, 73, 39
3, 199920, Note_off_c, 1, 73, 0
3, 199920, Note_on_c, 1, 70, 38
3, 200160, Control_c, 1, 64, 127
3, 200160, Note_off_c, 1, 70, 0
3, 200160, Note_on_c, 1, 72, 40
3, 200400, Note_off_c, 1, 72, 0
3, 200400, Note_on_c, 1, 70, 40
3, 200580, Note_off_c, 1, 70, 0
3, 200580, Note_on_c, 1, 72, 40
3, 200640, Note_off_c, 1, 72, 0
3, 200640, Note_on_c, 1, 70, 41
3, 200880, Note_off_c, 1, 70, 0
3, 200880, Note_on_c, 1, 68, 41
3, 201120, Note_off_c, 1, 68, 0
3, 201120, Note_on_c, 1, 72, 41
3, 201360, Note_off_c, 1, 72, 0
3, 201360, Note_on_c, 1, 70, 42
3, 201540, Control_c, 1, 64, 0
3, 201540, Note_off_c, 1, 70, 0
3, 201540, Note_on_c, 1, 72, 42
3, 201600, Control_c, 1, 64, 127
3, 201600, Note_off_c, 1, 72, 0
3, 201600, Note_on_c, 1, 70, 42
3, 201840, Note_off_c, 1, 70, 0
3, 201840, Note_on_c, 1, 68, 43
3, 202080, Note_off_c, 1, 68, 0
3, 202080, Note_on_c, 1, 72, 43
3, 202320, Note_off_c, 1, 72, 0
3, 202320, Note_on_c, 1, 70, 43
3, 202500, Note_off_c, 1, 70, 0
3, 202500, Note_on_c, 1, 72, 44
3, 202560, Note_off_c, 1, 72, 0
3, 202560, Note_on_c, 1, 70, 44
3, 202800, Note_off_c, 1, 70, 0
3, 202800, Note_on_c, 1, 68, 44
3, 202980, Control_c, 1, 64, 0
3, 202985, Note_off_c, 1, 68, 0
3, 203040, Note_on_c, 1, 67, 46
3, 203040, Control_c, 1, 64, 127
3, 203280, Note_off_c, 1, 67, 0
3, 203280, Note_on_c, 1, 68, 49
3, 203520, Note_off_c, 1, 68, 0
3, 203520, Note_on_c, 1, 70, 52
3, 203760, Note_off_c, 1, 70, 0
3, 203760, Note_on_c, 1, 68, 54
3, 204000, Note_off_c, 1, 68, 0
3, 204000, Note_on_c, 1, 73, 56
3, 204360, Note_off_c, 1, 73, 0
3, 204360, Note_on_c, 1, 75, 63
3, 204420, Control_c, 1, 64, 0
3, 204480, Note_off_c, 1, 75, 0
3, 204480, Note_on_c, 1, 77, 67
3, 204480, Control_c, 1, 64, 127
3, 205860, Control_c, 1, 64, 0
3, 205920, Control_c, 1, 64, 127
3, 206340, Control_c, 1, 64, 0
3, 206400, Note_off_c, 1, 77, 0
3, 206400, Note_on_c, 1, 74, 52
3, 206640, Note_off_c, 1, 74, 0
3, 206640, Note_on_c, 1, 75, 51
3, 206845, Note_off_c, 1, 75, 0
3, 206880, Control_c, 1, 64, 127
3, 206880, Note_on_c, 1, 80, 50
3, 207120, Note_off_c, 1, 80, 0
3, 207120, Note_on_c, 1, 75, 50
3, 207300, Control_c, 1, 64, 0
3, 207360, Note_off_c, 1, 75, 0
3, 207360, Note_on_c, 1, 77, 49
3, 207600, Note_off_c, 1, 77, 0
3, 207600, Note_on_c, 1, 73, 48
3, 207840, Control_c, 1, 64, 127
3, 207840, Note_off_c, 1, 73, 0
3, 207840, Note_on_c, 1, 72, 48
3, 208080, Note_off_c, 1, 72, 0
3, 208080, Note_on_c, 1, 70, 47
3, 208320, Note_off_c, 1, 70, 0
3, 208320, Note_on_c, 1, 72, 46
3, 208500, Control_c, 1, 64, 0
3, 208500, Note_off_c, 1, 72, 0
3, 208500, Note_on_c, 1, 75, 46
3, 208560, Note_off_c, 1, 75, 0
3, 208560, Note_on_c, 1, 73, 45
3, 208745, Note_off_c, 1, 73, 0
3, 208800, Note_on_c, 1, 68, 45
3, 209280, Note_off_c, 1, 68, 0
3, 209280, Note_on_c, 1, 67, 43
3, 209520, Note_off_c, 1, 67, 0
3, 209520, Note_on_c, 1, 68, 42
3, 209760, Note_off_c, 1, 68, 0
3, 209760, Note_on_c, 1, 70, 42
3, 210120, Note_off_c, 1, 70, 0
3, 210120, Note_on_c, 1, 68, 41
3, 210240, Note_off_c, 1, 68, 0
3, 210240, Note_on_c, 1, 68, 40
3, 211680, Control_c, 1, 64, 127
3, 212160, Note_off_c, 1, 68, 0
3, 212160, Note_on_c, 1, 72, 37
3, 212400, Note_off_c, 1, 72, 0
3, 212400, Note_on_c, 1, 70, 37
3, 212580, Note_off_c, 1, 70, 0
3, 212580, Note_on_c, 1, 72, 38
3, 212640, Note_off_c, 1, 72, 0
3, 212640, Note_on_c, 1, 70, 38
3, 212880, Note_off_c, 1, 70, 0
3, 212880, Note_on_c, 1, 68, 38
3, 213060, Control_c, 1, 64, 0
3, 213120, Note_off_c, 1, 68, 0
3, 213120, Note_on_c, 1, 72, 39
3, 213120, Control_c, 1, 64, 127
3, 213360, Note_off_c, 1, 72, 0
3, 213360, Note_on_c, 1, 70, 39
3, 213540, Note_off_c, 1, 70, 0
3, 213540, Note_on_c, 1, 72, 40
3, 213600, Note_off_c, 1, 72, 0
3, 213600, Note_on_c, 1, 70, 40
3, 213840, Note_off_c, 1, 70, 0
3, 213840, Note_on_c, 1, 68, 40
3, 214080, Note_off_c, 1, 68, 0
3, 214080, Note_on_c, 1, 72, 41
3, 214320, Note_off_c, 1, 72, 0
3, 214320, Note_on_c, 1, 70, 41
3, 214500, Control_c, 1, 64, 0
3, 214500, Note_off_c, 1, 70, 0
3, 214560, Note_on_c, 1, 70, 42
3, 214560, Control_c, 1, 64, 127
3, 214800, Note_off_c, 1, 70, 0
3, 214800, Note_on_c, 1, 68, 45
3, 215040, Note_off_c, 1, 68, 0
3, 215040, Note_on_c, 1, 67, 47
3, 215280, Note_off_c, 1, 67, 0
3, 215280, Note_on_c, 1, 68, 50
3, 215520, Note_off_c, 1, 68, 0
3, 215520, Note_on_c, 1, 73, 53
3, 215880, Note_off_c, 1, 73, 0
3, 215880, Note_on_c, 1, 75, 58
3, 215940, Control_c, 1, 64, 0
3, 216000, Note_off_c, 1, 75, 0
3, 216000, Note_on_c, 1, 77, 62
3, 216000, Control_c, 1, 64, 127
3, 217380, Control_c, 1, 64, 0
3, 217440, Control_c, 1, 64, 127
3, 217860, Control_c, 1, 64, 0
3, 217920, Note_off_c, 1, 77, 0
3, 217920, Note_on_c, 1, 74, 46
3, 218160, Note_off_c, 1, 74, 0
3, 218160, Note_on_c, 1, 75, 47
3, 218360, Note_off_c, 1, 75, 0
3, 218400, Control_c, 1, 64, 127
3, 218400, Note_on_c, 1, 80, 47
3, 218640, Note_off_c, 1, 80, 0
3, 218640, Note_on_c, 1, 75, 48
3, 218820, Control_c, 1, 64, 0
3, 218880, Note_off_c, 1, 75, 0
3, 218880, Note_on_c, 1, 77, 49
3, 219120, Control_c, 1, 64, 127
3, 219120, Note_off_c, 1, 77, 0
3, 219120, Note_on_c, 1, 73, 50
3, 219300, Control_c, 1, 64, 0
3, 219312, Note_off_c, 1, 73, 0
3, 219360, Note_on_c, 1, 80, 51
3, 219600, Control_c, 1, 64, 127
3, 219600, Note_off_c, 1, 80, 0
3, 219600, Note_on_c, 1, 75, 52
3, 219780, Control_c, 1, 64, 0
3, 219840, Note_off_c, 1, 75, 0
3, 219840, Note_on_c, 1, 77, 53
3, 220080, Control_c, 1, 64, 127
3, 220080, Note_off_c, 1, 77, 0
3, 220080, Note_on_c, 1, 73, 54
3, 220260, Control_c, 1, 64, 0
3, 220272, Note_off_c, 1, 73, 0
3, 220320, Note_on_c, 1, 80, 55
3, 220560, Control_c, 1, 64, 127
3, 220560, Note_off_c, 1, 80, 0
3, 220560, Note_on_c, 1, 75, 56
3, 220740, Control_c, 1, 64, 0
3, 220752, Note_off_c, 1, 75, 0
3, 220800, Note_on_c, 1, 81, 57
3, 221040, Control_c, 1, 64, 127
3, 221040, Note_off_c, 1, 81, 0
3, 221040, Note_on_c, 1, 76, 59
3, 221220, Control_c, 1, 64, 0
3, 221232, Note_off_c, 1, 76, 0
3, 221280, Note_on_c, 1, 82, 60
3, 221520, Control_c, 1, 64, 127
3, 221520, Note_off_c, 1, 82, 0
3, 221520, Note_on_c, 1, 77, 61
3, 221700, Control_c, 1, 64, 0
3, 221712, Note_off_c, 1, 77, 0
3, 221760, Note_on_c, 1, 83, 63
3, 222000, Control_c, 1, 64, 127
3, 222000, Note_off_c, 1, 83, 0
3, 222000, Note_on_c, 1, 78, 64
3, 222180, Control_c, 1, 64, 0
3, 222192, Note_off_c, 1, 78, 0
3, 222240, Note_on_c, 1, 84, 65
3, 222480, Control_c, 1, 64, 127
3, 222480, Note_off_c, 1, 84, 0
3, 222480, Note_on_c, 1, 79, 67
3, 222660, Control_c, 1, 64, 0
3, 222672, Note_off_c, 1, 79, 0
3, 222720, Note_on_c, 1, 85, 68
3, 222960, Control_c, 1, 64, 127
3, 222960, Note_off_c, 1, 85, 0
3, 222960, Note_on_c, 1, 80, 69
3, 223140, Control_c, 1, 64, 0
3, 223152, Note_off_c, 1, 80, 0
3, 223200, Note_on_c, 1, 86, 71
3, 223440, Control_c, 1, 64, 127
3, 223620, Control_c, 1, 64, 0
3, 223680, Note_off_c, 1, 86, 0
3, 223680, Note_on_c, 1, 87, 73
3, 223920, Note_off_c, 1, 87, 0
3, 223920, Note_on_c, 1, 86, 75
3, 224160, Control_c, 1, 64, 127
3, 224160, Note_off_c, 1, 86, 0
3, 224160, Note_on_c, 1, 89, 76
3, 224400, Note_off_c, 1, 89, 0
3, 224400, Note_on_c, 1, 87, 78
3, 224640, Note_off_c, 1, 87, 0
3, 224640, Note_on_c, 1, 92, 79
3, 225120, Note_off_c, 1, 92, 0
3, 225120, Note_on_c, 1, 87, 82
3, 225360, Note_off_c, 1, 87, 0
3, 225360, Note_on_c, 1, 86, 83
3, 225600, Note_off_c, 1, 86, 0
3, 225600, Note_on_c, 1, 89, 84
3, 225840, Note_off_c, 1, 89, 0
3, 225840, Note_on_c, 1, 87, 88
3, 226080, Note_off_c, 1, 87, 0
3, 226080, Note_on_c, 1, 87, 91
3, 226560, Note_off_c, 1, 87, 0
3, 228900, Control_c, 1, 64, 0
3, 228960, Note_on_c, 1, 77, 39
3, 228960, Control_c, 1, 64, 127
3, 230360, Note_off_c, 1, 77, 0
3, 230400, Note_on_c, 1, 89, 34
3, 231996, Note_off_c, 1, 89, 0
3, 233940, Control_c, 1, 64, 0
3, 234720, Control_c, 1, 64, 127
3, 236160, Note_on_c, 1, 68, 106
3, 237600, Control_c, 1, 64, 0
3, 237600, Note_off_c, 1, 68, 0
3, 237600, Note_on_c, 1, 65, 107
3, 239520, Note_off_c, 1, 65, 0
3, 240480, Control_c, 1, 0, 0
3, 240480, Control_c, 1, 32, 0
3, 240480, Program_c, 1, 0
3, 240480, Control_c, 1, 7, 127
3, 240480, Pitch_bend_c, 1, 8192
3, 240480, Control_c, 1, 1, 0
3, 240480, Control_c, 1, 93, 20
3, 240480, Control_c, 1, 91, 80
3, 240480, Control_c, 1, 10, 73
3, 240480, Control_c, 1, 64, 0
3, 240480, Control_c, 1, 64, 0
3, 241440, Control_c, 1, 64, 0
3, 279840, Control_c, 1, 64, 0
3, 299040, End_track
4, 0, Start_track
4, 0, Instrument_name_t, "Roland Serial MIDI Out Port A"
4, 0, Title_t, "Unnamed Track"
4, 0, Control_c, 2, 0, 0
4, 0, Control_c, 2, 32, 0
4, 0, Program_c, 2, 0
4, 0, Control_c, 2, 64, 0
4, 0, Control_c, 2, 64, 0
4, 0, Control_c, 2, 64, 0
4, 0, Control_c, 2, 64, 0
4, 0, Control_c, 2, 64, 0
4, 0, Control_c, 2, 64, 0
4, 0, Control_c, 2, 64, 0
4, 0, Control_c, 2, 64, 0
4, 0, Control_c, 2, 7, 122
4, 0, Pitch_bend_c, 2, 8192
4, 0, Control_c, 2, 1, 0
4, 0, Control_c, 2, 93, 20
4, 0, Control_c, 2, 91, 80
4, 0, Control_c, 2, 10, 73
4, 123840, Note_on_c, 2, 55, 24
4, 123840, Note_on_c, 2, 60, 24
4, 124800, Note_off_c, 2, 55, 0
4, 124800, Note_off_c, 2, 60, 0
4, 124800, Note_on_c, 2, 56, 22
4, 124800, Note_on_c, 2, 60, 22
4, 125760, Note_off_c, 2, 56, 0
4, 125760, Note_off_c, 2, 60, 0
4, 126720, Control_c, 2, 64, 127
4, 126720, Note_on_c, 2, 53, 18
4, 127680, Note_off_c, 2, 53, 0
4, 127680, Note_on_c, 2, 53, 16
4, 128640, Note_off_c, 2, 53, 0
4, 128640, Note_on_c, 2, 53, 14
4, 130560, Note_off_c, 2, 53, 0
4, 132480, Control_c, 2, 10, 73
4, 132480, Control_c, 2, 91, 80
4, 132480, Control_c, 2, 93, 20
4, 132480, Control_c, 2, 1, 0
4, 132480, Pitch_bend_c, 2, 8192
4, 132480, Control_c, 2, 7, 122
4, 132480, Control_c, 2, 64, 0
4, 132480, Control_c, 2, 64, 0
4, 132480, Control_c, 2, 64, 0
4, 132480, Control_c, 2, 64, 0
4, 132480, Control_c, 2, 64, 0
4, 132480, Control_c, 2, 64, 0
4, 132480, Control_c, 2, 64, 0
4, 132480, Control_c, 2, 64, 0
4, 132480, Control_c, 2, 0, 0
4, 132480, Control_c, 2, 32, 0
4, 132480, Program_c, 2, 0
4, 132480, Control_c, 2, 64, 0
4, 133680, Note_on_c, 2, 68, 47
4, 133776, Note_off_c, 2, 68, 0
4, 133920, Note_on_c, 2, 70, 52
4, 134016, Note_off_c, 2, 70, 0
4, 134160, Note_on_c, 2, 68, 50
4, 134256, Note_off_c, 2, 68, 0
4, 134400, Note_on_c, 2, 70, 49
4, 134496, Note_off_c, 2, 70, 0
4, 134640, Note_on_c, 2, 68, 48
4, 134736, Note_off_c, 2, 68, 0
4, 134880, Note_on_c, 2, 70, 47
4, 134976, Note_off_c, 2, 70, 0
4, 135120, Note_on_c, 2, 68, 46
4, 135216, Note_off_c, 2, 68, 0
4, 135360, Note_on_c, 2, 67, 49
4, 135456, Note_off_c, 2, 67, 0
4, 135600, Note_on_c, 2, 68, 47
4, 135696, Note_off_c, 2, 68, 0
4, 135840, Note_on_c, 2, 67, 45
4, 135936, Note_off_c, 2, 67, 0
4, 136080, Note_on_c, 2, 68, 42
4, 136176, Note_off_c, 2, 68, 0
4, 136320, Note_on_c, 2, 66, 47
4, 136416, Note_off_c, 2, 66, 0
4, 136560, Note_on_c, 2, 68, 44
4, 136656, Note_off_c, 2, 68, 0
4, 136800, Note_on_c, 2, 65, 44
4, 136896, Note_off_c, 2, 65, 0
4, 137040, Note_on_c, 2, 68, 44
4, 137136, Note_off_c, 2, 68, 0
4, 137280, Note_on_c, 2, 65, 45
4, 137376, Note_off_c, 2, 65, 0
4, 137520, Note_on_c, 2, 68, 45
4, 137616, Note_off_c, 2, 68, 0
4, 137760, Note_on_c, 2, 61, 46
4, 137856, Note_off_c, 2, 61, 0
4, 138000, Note_on_c, 2, 66, 46
4, 138096, Note_off_c, 2, 66, 0
4, 138240, Note_on_c, 2, 60, 46
4, 138336, Note_off_c, 2, 60, 0
4, 138480, Note_on_c, 2, 66, 47
4, 138576, Note_off_c, 2, 66, 0
4, 138720, Note_on_c, 2, 60, 47
4, 138816, Note_off_c, 2, 60, 0
4, 138960, Note_on_c, 2, 66, 48
4, 139056, Note_off_c, 2, 66, 0
4, 139200, Note_on_c, 2, 60, 48
4, 139296, Note_off_c, 2, 60, 0
4, 139440, Note_on_c, 2, 66, 49
4, 139536, Note_off_c, 2, 66, 0
4, 139680, Note_on_c, 2, 65, 49
4, 139776, Note_off_c, 2, 65, 0
4, 139920, Note_on_c, 2, 68, 50
4, 140016, Note_off_c, 2, 68, 0
4, 140160, Note_on_c, 2, 65, 50
4, 140256, Note_off_c, 2, 65, 0
4, 140400, Note_on_c, 2, 68, 50
4, 140496, Note_off_c, 2, 68, 0
4, 140640, Note_on_c, 2, 67, 51
4, 140736, Note_off_c, 2, 67, 0
4, 140880, Note_on_c, 2, 70, 51
4, 140976, Note_off_c, 2, 70, 0
4, 141120, Note_on_c, 2, 63, 54
4, 141216, Note_off_c, 2, 63, 0
4, 141360, Note_on_c, 2, 68, 56
4, 141456, Note_off_c, 2, 68, 0
4, 141600, Note_on_c, 2, 63, 58
4, 141696, Note_off_c, 2, 63, 0
4, 141840, Note_on_c, 2, 68, 61
4, 141936, Note_off_c, 2, 68, 0
4, 142080, Note_on_c, 2, 72, 63
4, 142176, Note_off_c, 2, 72, 0
4, 142320, Note_on_c, 2, 75, 55
4, 142416, Note_off_c, 2, 75, 0
4, 142560, Note_on_c, 2, 66, 46
4, 142656, Note_off_c, 2, 66, 0
4, 142800, Note_on_c, 2, 70, 46
4, 142896, Note_off_c, 2, 70, 0
4, 143040, Note_on_c, 2, 66, 47
4, 143136, Note_off_c, 2, 66, 0
4, 143280, Note_on_c, 2, 70, 47
4, 143376, Note_off_c, 2, 70, 0
4, 143520, Note_on_c, 2, 63, 48
4, 143616, Note_off_c, 2, 63, 0
4, 143760, Note_on_c, 2, 68, 48
4, 143856, Note_off_c, 2, 68, 0
4, 144000, Note_on_c, 2, 62, 49
4, 144096, Note_off_c, 2, 62, 0
4, 144240, Note_on_c, 2, 68, 49
4, 144336, Note_off_c, 2, 68, 0
4, 144480, Note_on_c, 2, 62, 50
4, 144576, Note_off_c, 2, 62, 0
4, 144720, Note_on_c, 2, 68, 50
4, 144816, Note_off_c, 2, 68, 0
4, 144960, Note_on_c, 2, 62, 50
4, 145056, Note_off_c, 2, 62, 0
4, 145200, Note_on_c, 2, 68, 51
4, 145296, Note_off_c, 2, 68, 0
4, 145440, Note_on_c, 2, 66, 51
4, 145536, Note_off_c, 2, 66, 0
4, 145680, Note_on_c, 2, 70, 54
4, 145776, Note_off_c, 2, 70, 0
4, 145920, Note_on_c, 2, 66, 57
4, 146016, Note_off_c, 2, 66, 0
4, 146160, Note_on_c, 2, 70, 59
4, 146256, Note_off_c, 2, 70, 0
4, 146400, Note_on_c, 2, 66, 62
4, 146496, Note_off_c, 2, 66, 0
4, 146640, Note_on_c, 2, 68, 58
4, 146736, Note_off_c, 2, 68, 0
4, 146880, Note_on_c, 2, 65, 54
4, 146976, Note_off_c, 2, 65, 0
4, 147120, Note_on_c, 2, 68, 53
4, 147216, Note_off_c, 2, 68, 0
4, 147360, Note_on_c, 2, 65, 51
4, 147456, Note_off_c, 2, 65, 0
4, 147600, Note_on_c, 2, 68, 49
4, 147696, Note_off_c, 2, 68, 0
4, 147840, Note_on_c, 2, 65, 47
4, 147936, Note_off_c, 2, 65, 0
4, 148080, Note_on_c, 2, 68, 46
4, 148176, Note_off_c, 2, 68, 0
4, 148320, Note_on_c, 2, 61, 46
4, 148416, Note_off_c, 2, 61, 0
4, 148560, Note_on_c, 2, 63, 46
4, 148656, Note_off_c, 2, 63, 0
4, 148800, Note_on_c, 2, 61, 47
4, 148896, Note_off_c, 2, 61, 0
4, 149040, Note_on_c, 2, 63, 47
4, 149136, Note_off_c, 2, 63, 0
4, 149280, Note_on_c, 2, 61, 48
4, 149376, Note_off_c, 2, 61, 0
4, 149520, Note_on_c, 2, 63, 48
4, 149616, Note_off_c, 2, 63, 0
4, 149760, Note_on_c, 2, 60, 49
4, 149856, Note_off_c, 2, 60, 0
4, 150000, Note_on_c, 2, 63, 49
4, 150096, Note_off_c, 2, 63, 0
4, 150240, Note_on_c, 2, 60, 50
4, 150336, Note_off_c, 2, 60, 0
4, 150480, Note_on_c, 2, 63, 50
4, 150576, Note_off_c, 2, 63, 0
4, 150720, Note_on_c, 2, 60, 51
4, 150816, Note_off_c, 2, 60, 0
4, 150960, Note_on_c, 2, 68, 51
4, 151056, Note_off_c, 2, 68, 0
4, 151200, Note_on_c, 2, 66, 53
4, 151296, Note_off_c, 2, 66, 0
4, 151440, Note_on_c, 2, 70, 55
4, 151536, Note_off_c, 2, 70, 0
4, 151680, Note_on_c, 2, 63, 58
4, 151776, Note_off_c, 2, 63, 0
4, 151920, Note_on_c, 2, 66, 60
4, 152016, Note_off_c, 2, 66, 0
4, 152160, Note_on_c, 2, 63, 62
4, 152256, Note_off_c, 2, 63, 0
4, 152400, Note_on_c, 2, 65, 66
4, 152496, Note_off_c, 2, 65, 0
4, 152640, Note_on_c, 2, 61, 68
4, 152736, Note_off_c, 2, 61, 0
4, 152880, Note_on_c, 2, 65, 58
4, 152976, Note_off_c, 2, 65, 0
4, 153120, Note_on_c, 2, 61, 55
4, 153216, Note_off_c, 2, 61, 0
4, 153360, Note_on_c, 2, 64, 51
4, 153456, Note_off_c, 2, 64, 0
4, 153600, Note_on_c, 2, 65, 48
4, 153696, Note_off_c, 2, 65, 0
4, 153840, Note_on_c, 2, 70, 45
4, 153936, Note_off_c, 2, 70, 0
4, 154080, Note_on_c, 2, 64, 42
4, 154176, Note_off_c, 2, 64, 0
4, 154320, Note_on_c, 2, 70, 42
4, 154476, Note_off_c, 2, 70, 0
4, 154560, Note_on_c, 2, 64, 43
4, 154716, Note_off_c, 2, 64, 0
4, 154800, Note_on_c, 2, 70, 43
4, 155040, Note_off_c, 2, 70, 0
4, 155040, Note_on_c, 2, 64, 44
4, 155196, Note_off_c, 2, 64, 0
4, 155280, Note_on_c, 2, 70, 44
4, 155436, Note_off_c, 2, 70, 0
4, 155520, Note_on_c, 2, 65, 45
4, 155676, Note_off_c, 2, 65, 0
4, 155760, Note_on_c, 2, 68, 45
4, 155916, Note_off_c, 2, 68, 0
4, 156000, Note_on_c, 2, 65, 46
4, 156156, Note_off_c, 2, 65, 0
4, 156240, Note_on_c, 2, 68, 46
4, 156396, Note_off_c, 2, 68, 0
4, 156480, Note_on_c, 2, 65, 47
4, 156636, Note_off_c, 2, 65, 0
4, 156720, Note_on_c, 2, 68, 48
4, 156876, Note_off_c, 2, 68, 0
4, 156960, Note_on_c, 2, 64, 49
4, 157116, Note_off_c, 2, 64, 0
4, 157200, Note_on_c, 2, 70, 51
4, 157356, Note_off_c, 2, 70, 0
4, 157440, Note_on_c, 2, 64, 53
4, 157596, Note_off_c, 2, 64, 0
4, 157680, Note_on_c, 2, 70, 55
4, 157836, Note_off_c, 2, 70, 0
4, 157920, Note_on_c, 2, 70, 59
4, 158076, Note_off_c, 2, 70, 0
4, 158160, Note_on_c, 2, 72, 64
4, 158316, Note_off_c, 2, 72, 0
4, 158400, Note_on_c, 2, 68, 68
4, 158556, Note_off_c, 2, 68, 0
4, 158640, Note_on_c, 2, 73, 62
4, 158796, Note_off_c, 2, 73, 0
4, 158880, Note_on_c, 2, 68, 56
4, 159036, Note_off_c, 2, 68, 0
4, 159120, Note_on_c, 2, 71, 55
4, 159276, Note_off_c, 2, 71, 0
4, 159360, Note_on_c, 2, 67, 53
4, 159516, Note_off_c, 2, 67, 0
4, 159600, Note_on_c, 2, 72, 51
4, 159756, Note_off_c, 2, 72, 0
4, 159840, Note_on_c, 2, 66, 49
4, 159996, Note_off_c, 2, 66, 0
4, 160080, Note_on_c, 2, 68, 49
4, 160236, Note_off_c, 2, 68, 0
4, 160320, Note_on_c, 2, 66, 49
4, 160476, Note_off_c, 2, 66, 0
4, 160560, Note_on_c, 2, 68, 48
4, 160716, Note_off_c, 2, 68, 0
4, 160800, Note_on_c, 2, 66, 48
4, 160956, Note_off_c, 2, 66, 0
4, 161040, Note_on_c, 2, 68, 48
4, 161196, Note_off_c, 2, 68, 0
4, 161280, Note_on_c, 2, 64, 47
4, 161436, Note_off_c, 2, 64, 0
4, 161520, Note_on_c, 2, 68, 47
4, 161676, Note_off_c, 2, 68, 0
4, 161760, Note_on_c, 2, 64, 46
4, 161916, Note_off_c, 2, 64, 0
4, 162000, Note_on_c, 2, 66, 46
4, 162156, Note_off_c, 2, 66, 0
4, 162240, Note_on_c, 2, 64, 46
4, 162396, Note_off_c, 2, 64, 0
4, 162480, Note_on_c, 2, 67, 45
4, 162636, Note_off_c, 2, 67, 0
4, 162720, Note_on_c, 2, 63, 45
4, 162876, Note_off_c, 2, 63, 0
4, 162960, Note_on_c, 2, 64, 44
4, 163116, Note_off_c, 2, 64, 0
4, 163200, Note_on_c, 2, 63, 44
4, 163356, Note_off_c, 2, 63, 0
4, 163440, Note_on_c, 2, 64, 44
4, 163596, Note_off_c, 2, 64, 0
4, 163680, Note_on_c, 2, 63, 43
4, 163836, Note_off_c, 2, 63, 0
4, 163920, Note_on_c, 2, 64, 43
4, 164076, Note_off_c, 2, 64, 0
4, 164160, Note_on_c, 2, 61, 43
4, 164316, Note_off_c, 2, 61, 0
4, 164400, Note_on_c, 2, 64, 42
4, 164556, Note_off_c, 2, 64, 0
4, 164640, Note_on_c, 2, 61, 42
4, 164796, Note_off_c, 2, 61, 0
4, 164880, Note_on_c, 2, 63, 41
4, 165036, Note_off_c, 2, 63, 0
4, 165120, Note_on_c, 2, 61, 41
4, 165276, Note_off_c, 2, 61, 0
4, 165360, Note_on_c, 2, 66, 41
4, 165516, Note_off_c, 2, 66, 0
4, 165600, Note_on_c, 2, 60, 40
4, 165756, Note_off_c, 2, 60, 0
4, 165840, Note_on_c, 2, 68, 40
4, 165996, Note_off_c, 2, 68, 0
4, 166080, Note_on_c, 2, 60, 40
4, 166236, Note_off_c, 2, 60, 0
4, 166320, Note_on_c, 2, 63, 39
4, 166476, Note_off_c, 2, 63, 0
4, 166560, Note_on_c, 2, 61, 39
4, 166716, Note_off_c, 2, 61, 0
4, 166800, Note_on_c, 2, 65, 38
4, 166956, Note_off_c, 2, 65, 0
4, 167040, Note_on_c, 2, 58, 38
4, 167196, Note_off_c, 2, 58, 0
4, 167280, Note_on_c, 2, 65, 38
4, 167436, Note_off_c, 2, 65, 0
4, 167520, Note_on_c, 2, 58, 37
4, 167676, Note_off_c, 2, 58, 0
4, 167760, Note_on_c, 2, 60, 37
4, 167916, Note_off_c, 2, 60, 0
4, 168000, Note_on_c, 2, 61, 36
4, 168156, Note_off_c, 2, 61, 0
4, 168240, Note_on_c, 2, 63, 36
4, 168396, Note_off_c, 2, 63, 0
4, 168480, Note_on_c, 2, 60, 36
4, 168636, Note_off_c, 2, 60, 0
4, 168720, Note_on_c, 2, 63, 38
4, 168876, Note_off_c, 2, 63, 0
4, 168960, Note_on_c, 2, 60, 38
4, 169116, Note_off_c, 2, 60, 0
4, 169200, Note_on_c, 2, 63, 39
4, 169356, Note_off_c, 2, 63, 0
4, 169440, Note_on_c, 2, 60, 39
4, 169596, Note_off_c, 2, 60, 0
4, 169680, Note_on_c, 2, 63, 39
4, 169836, Note_off_c, 2, 63, 0
4, 169920, Note_on_c, 2, 61, 40
4, 170076, Note_off_c, 2, 61, 0
4, 170160, Note_on_c, 2, 65, 40
4, 170316, Note_off_c, 2, 65, 0
4, 170400, Note_on_c, 2, 61, 40
4, 170556, Note_off_c, 2, 61, 0
4, 170640, Note_on_c, 2, 65, 40
4, 170796, Note_off_c, 2, 65, 0
4, 170880, Note_on_c, 2, 61, 41
4, 171036, Note_off_c, 2, 61, 0
4, 171120, Note_on_c, 2, 65, 41
4, 171276, Note_off_c, 2, 65, 0
4, 171360, Note_on_c, 2, 60, 41
4, 171516, Note_off_c, 2, 60, 0
4, 171600, Note_on_c, 2, 63, 42
4, 171756, Note_off_c, 2, 63, 0
4, 171840, Note_on_c, 2, 60, 42
4, 171996, Note_off_c, 2, 60, 0
4, 172080, Note_on_c, 2, 63, 42
4, 172236, Note_off_c, 2, 63, 0
4, 172320, Note_on_c, 2, 60, 43
4, 172476, Note_off_c, 2, 60, 0
4, 172560, Note_on_c, 2, 63, 43
4, 172716, Note_off_c, 2, 63, 0
4, 172800, Note_on_c, 2, 61, 43
4, 172956, Note_off_c, 2, 61, 0
4, 173040, Note_on_c, 2, 65, 44
4, 173196, Note_off_c, 2, 65, 0
4, 173280, Note_on_c, 2, 61, 44
4, 173436, Note_off_c, 2, 61, 0
4, 173520, Note_on_c, 2, 65, 44
4, 173676, Note_off_c, 2, 65, 0
4, 173760, Note_on_c, 2, 61, 45
4, 173916, Note_off_c, 2, 61, 0
4, 174000, Note_on_c, 2, 65, 45
4, 174156, Note_off_c, 2, 65, 0
4, 174240, Note_on_c, 2, 60, 44
4, 174396, Note_off_c, 2, 60, 0
4, 174480, Note_on_c, 2, 63, 45
4, 174636, Note_off_c, 2, 63, 0
4, 174720, Note_on_c, 2, 66, 47
4, 174876, Note_off_c, 2, 66, 0
4, 174960, Note_on_c, 2, 60, 48
4, 175116, Note_off_c, 2, 60, 0
4, 175200, Note_on_c, 2, 61, 49
4, 175356, Note_off_c, 2, 61, 0
4, 175440, Note_on_c, 2, 67, 50
4, 175596, Note_off_c, 2, 67, 0
4, 175680, Note_on_c, 2, 68, 51
4, 175836, Note_off_c, 2, 68, 0
4, 175920, Note_on_c, 2, 62, 52
4, 176076, Note_off_c, 2, 62, 0
4, 176160, Note_on_c, 2, 63, 53
4, 176316, Note_off_c, 2, 63, 0
4, 176400, Note_on_c, 2, 69, 54
4, 176556, Note_off_c, 2, 69, 0
4, 176640, Note_on_c, 2, 70, 56
4, 176796, Note_off_c, 2, 70, 0
4, 176880, Note_on_c, 2, 64, 57
4, 177036, Note_off_c, 2, 64, 0
4, 177120, Note_on_c, 2, 65, 59
4, 177276, Note_off_c, 2, 65, 0
4, 177360, Note_on_c, 2, 71, 63
4, 177516, Note_off_c, 2, 71, 0
4, 177600, Note_on_c, 2, 66, 66
4, 177756, Note_off_c, 2, 66, 0
4, 177840, Note_on_c, 2, 72, 69
4, 177996, Note_off_c, 2, 72, 0
4, 178080, Note_on_c, 2, 67, 72
4, 178236, Note_off_c, 2, 67, 0
4, 178320, Note_on_c, 2, 73, 75
4, 178476, Note_off_c, 2, 73, 0
4, 178560, Note_on_c, 2, 68, 81
4, 178716, Note_off_c, 2, 68, 0
4, 178800, Note_on_c, 2, 69, 72
4, 178956, Note_off_c, 2, 69, 0
4, 179040, Note_on_c, 2, 70, 63
4, 179196, Note_off_c, 2, 70, 0
4, 179280, Note_on_c, 2, 71, 56
4, 179436, Note_off_c, 2, 71, 0
4, 179520, Note_on_c, 2, 72, 50
4, 179676, Note_off_c, 2, 72, 0
4, 179760, Note_on_c, 2, 75, 43
4, 179916, Note_off_c, 2, 75, 0
4, 180000, Note_on_c, 2, 65, 40
4, 180156, Note_off_c, 2, 65, 0
4, 180240, Note_on_c, 2, 68, 40
4, 180396, Note_off_c, 2, 68, 0
4, 180480, Note_on_c, 2, 65, 40
4, 180636, Note_off_c, 2, 65, 0
4, 180720, Note_on_c, 2, 68, 41
4, 180876, Note_off_c, 2, 68, 0
4, 180960, Note_on_c, 2, 61, 41
4, 181116, Note_off_c, 2, 61, 0
4, 181200, Note_on_c, 2, 66, 41
4, 181356, Note_off_c, 2, 66, 0
4, 181440, Note_on_c, 2, 60, 41
4, 181596, Note_off_c, 2, 60, 0
4, 181680, Note_on_c, 2, 66, 42
4, 181836, Note_off_c, 2, 66, 0
4, 181920, Note_on_c, 2, 60, 42
4, 182076, Note_off_c, 2, 60, 0
4, 182160, Note_on_c, 2, 66, 42
4, 182316, Note_off_c, 2, 66, 0
4, 182400, Note_on_c, 2, 60, 43
4, 182556, Note_off_c, 2, 60, 0
4, 182640, Note_on_c, 2, 66, 43
4, 182796, Note_off_c, 2, 66, 0
4, 182880, Note_on_c, 2, 65, 43
4, 183036, Note_off_c, 2, 65, 0
4, 183120, Note_on_c, 2, 68, 44
4, 183276, Note_off_c, 2, 68, 0
4, 183360, Note_on_c, 2, 65, 44
4, 183516, Note_off_c, 2, 65, 0
4, 183600, Note_on_c, 2, 68, 44
4, 183756, Note_off_c, 2, 68, 0
4, 183840, Note_on_c, 2, 67, 45
4, 183996, Note_off_c, 2, 67, 0
4, 184080, Note_on_c, 2, 70, 45
4, 184236, Note_off_c, 2, 70, 0
4, 184320, Note_on_c, 2, 63, 46
4, 184476, Note_off_c, 2, 63, 0
4, 184560, Note_on_c, 2, 68, 49
4, 184716, Note_off_c, 2, 68, 0
4, 184800, Note_on_c, 2, 63, 52
4, 184956, Note_off_c, 2, 63, 0
4, 185040, Note_on_c, 2, 68, 55
4, 185196, Note_off_c, 2, 68, 0
4, 185280, Note_on_c, 2, 72, 58
4, 185436, Note_off_c, 2, 72, 0
4, 185520, Note_on_c, 2, 75, 51
4, 185676, Note_off_c, 2, 75, 0
4, 185760, Note_on_c, 2, 66, 42
4, 185916, Note_off_c, 2, 66, 0
4, 186000, Note_on_c, 2, 70, 42
4, 186156, Note_off_c, 2, 70, 0
4, 186240, Note_on_c, 2, 66, 43
4, 186396, Note_off_c, 2, 66, 0
4, 186480, Note_on_c, 2, 70, 44
4, 186636, Note_off_c, 2, 70, 0
4, 186720, Note_on_c, 2, 63, 44
4, 186876, Note_off_c, 2, 63, 0
4, 186960, Note_on_c, 2, 68, 45
4, 187116, Note_off_c, 2, 68, 0
4, 187200, Note_on_c, 2, 62, 46
4, 187356, Note_off_c, 2, 62, 0
4, 187440, Note_on_c, 2, 68, 46
4, 187596, Note_off_c, 2, 68, 0
4, 187680, Note_on_c, 2, 62, 47
4, 187836, Note_off_c, 2, 62, 0
4, 187920, Note_on_c, 2, 68, 47
4, 188076, Note_off_c, 2, 68, 0
4, 188160, Note_on_c, 2, 62, 48
4, 188316, Note_off_c, 2, 62, 0
4, 188400, Note_on_c, 2, 68, 49
4, 188556, Note_off_c, 2, 68, 0
4, 188640, Note_on_c, 2, 66, 48
4, 188796, Note_off_c, 2, 66, 0
4, 188880, Note_on_c, 2, 70, 49
4, 189036, Note_off_c, 2, 70, 0
4, 189120, Note_on_c, 2, 66, 49
4, 189276, Note_off_c, 2, 66, 0
4, 189360, Note_on_c, 2, 70, 50
4, 189516, Note_off_c, 2, 70, 0
4, 189600, Note_on_c, 2, 66, 51
4, 189756, Note_off_c, 2, 66, 0
4, 189840, Note_on_c, 2, 68, 52
4, 189996, Note_off_c, 2, 68, 0
4, 190080, Note_on_c, 2, 65, 52
4, 190236, Note_off_c, 2, 65, 0
4, 190320, Note_on_c, 2, 68, 53
4, 190476, Note_off_c, 2, 68, 0
4, 190560, Note_on_c, 2, 65, 54
4, 190716, Note_off_c, 2, 65, 0
4, 190800, Note_on_c, 2, 68, 55
4, 190956, Note_off_c, 2, 68, 0
4, 191040, Note_on_c, 2, 65, 56
4, 191196, Note_off_c, 2, 65, 0
4, 191280, Note_on_c, 2, 68, 56
4, 191436, Note_off_c, 2, 68, 0
4, 191520, Note_on_c, 2, 68, 56
4, 191676, Note_off_c, 2, 68, 0
4, 191760, Note_on_c, 2, 71, 58
4, 191916, Note_off_c, 2, 71, 0
4, 192000, Note_on_c, 2, 68, 60
4, 192156, Note_off_c, 2, 68, 0
4, 192240, Note_on_c, 2, 71, 62
4, 192396, Note_off_c, 2, 71, 0
4, 192480, Note_on_c, 2, 68, 63
4, 192636, Note_off_c, 2, 68, 0
4, 192720, Note_on_c, 2, 71, 65
4, 192876, Note_off_c, 2, 71, 0
4, 192960, Note_on_c, 2, 63, 67
4, 193116, Note_off_c, 2, 63, 0
4, 193200, Note_on_c, 2, 70, 71
4, 193356, Note_off_c, 2, 70, 0
4, 193440, Note_on_c, 2, 75, 87
4, 193596, Note_off_c, 2, 75, 0
4, 193680, Note_on_c, 2, 80, 85
4, 193836, Note_off_c, 2, 80, 0
4, 193920, Note_on_c, 2, 78, 82
4, 194076, Note_off_c, 2, 78, 0
4, 194160, Note_on_c, 2, 82, 80
4, 194316, Note_off_c, 2, 82, 0
4, 194400, Note_on_c, 2, 75, 78
4, 194556, Note_off_c, 2, 75, 0
4, 194640, Note_on_c, 2, 78, 76
4, 194796, Note_off_c, 2, 78, 0
4, 194880, Note_on_c, 2, 73, 73
4, 195036, Note_off_c, 2, 73, 0
4, 195120, Note_on_c, 2, 77, 71
4, 195276, Note_off_c, 2, 77, 0
4, 195360, Note_on_c, 2, 72, 69
4, 195516, Note_off_c, 2, 72, 0
4, 195600, Note_on_c, 2, 75, 67
4, 195756, Note_off_c, 2, 75, 0
4, 195840, Note_on_c, 2, 70, 64
4, 195996, Note_off_c, 2, 70, 0
4, 196080, Note_on_c, 2, 73, 62
4, 196236, Note_off_c, 2, 73, 0
4, 196320, Note_on_c, 2, 69, 60
4, 196476, Note_off_c, 2, 69, 0
4, 196560, Note_on_c, 2, 72, 58
4, 196716, Note_off_c, 2, 72, 0
4, 196800, Note_on_c, 2, 63, 55
4, 196956, Note_off_c, 2, 63, 0
4, 197040, Note_on_c, 2, 70, 53
4, 197196, Note_off_c, 2, 70, 0
4, 197280, Note_on_c, 2, 69, 52
4, 197436, Note_off_c, 2, 69, 0
4, 197520, Note_on_c, 2, 72, 51
4, 197676, Note_off_c, 2, 72, 0
4, 197760, Note_on_c, 2, 63, 50
4, 197916, Note_off_c, 2, 63, 0
4, 198000, Note_on_c, 2, 70, 48
4, 198156, Note_off_c, 2, 70, 0
4, 198240, Note_on_c, 2, 69, 47
4, 198396, Note_off_c, 2, 69, 0
4, 198480, Note_on_c, 2, 72, 46
4, 198636, Note_off_c, 2, 72, 0
4, 198720, Note_on_c, 2, 63, 44
4, 198876, Note_off_c, 2, 63, 0
4, 198960, Note_on_c, 2, 70, 43
4, 199116, Note_off_c, 2, 70, 0
4, 199200, Note_on_c, 2, 66, 42
4, 199356, Note_off_c, 2, 66, 0
4, 199440, Note_on_c, 2, 70, 40
4, 199596, Note_off_c, 2, 70, 0
4, 199680, Note_on_c, 2, 63, 39
4, 199836, Note_off_c, 2, 63, 0
4, 199920, Note_on_c, 2, 66, 38
4, 200076, Note_off_c, 2, 66, 0
4, 200160, Note_on_c, 2, 60, 40
4, 200316, Note_off_c, 2, 60, 0
4, 200400, Note_on_c, 2, 66, 40
4, 200556, Note_off_c, 2, 66, 0
4, 200640, Note_on_c, 2, 60, 41
4, 200796, Note_off_c, 2, 60, 0
4, 200880, Note_on_c, 2, 66, 41
4, 201036, Note_off_c, 2, 66, 0
4, 201120, Note_on_c, 2, 60, 41
4, 201276, Note_off_c, 2, 60, 0
4, 201360, Note_on_c, 2, 66, 42
4, 201516, Note_off_c, 2, 66, 0
4, 201600, Note_on_c, 2, 61, 42
4, 201756, Note_off_c, 2, 61, 0
4, 201840, Note_on_c, 2, 65, 43
4, 201996, Note_off_c, 2, 65, 0
4, 202080, Note_on_c, 2, 61, 43
4, 202236, Note_off_c, 2, 61, 0
4, 202320, Note_on_c, 2, 65, 43
4, 202476, Note_off_c, 2, 65, 0
4, 202560, Note_on_c, 2, 61, 44
4, 202716, Note_off_c, 2, 61, 0
4, 202800, Note_on_c, 2, 65, 44
4, 202956, Note_off_c, 2, 65, 0
4, 203040, Note_on_c, 2, 60, 46
4, 203196, Note_off_c, 2, 60, 0
4, 203280, Note_on_c, 2, 66, 49
4, 203436, Note_off_c, 2, 66, 0
4, 203520, Note_on_c, 2, 60, 52
4, 203676, Note_off_c, 2, 60, 0
4, 203760, Note_on_c, 2, 66, 54
4, 203916, Note_off_c, 2, 66, 0
4, 204000, Note_on_c, 2, 66, 56
4, 204156, Note_off_c, 2, 66, 0
4, 204240, Note_on_c, 2, 68, 60
4, 204396, Note_off_c, 2, 68, 0
4, 204480, Note_on_c, 2, 63, 67
4, 204636, Note_off_c, 2, 63, 0
4, 204720, Note_on_c, 2, 68, 60
4, 204876, Note_off_c, 2, 68, 0
4, 204960, Note_on_c, 2, 63, 56
4, 205116, Note_off_c, 2, 63, 0
4, 205200, Note_on_c, 2, 68, 56
4, 205356, Note_off_c, 2, 68, 0
4, 205440, Note_on_c, 2, 63, 55
4, 205596, Note_off_c, 2, 63, 0
4, 205680, Note_on_c, 2, 68, 54
4, 205836, Note_off_c, 2, 68, 0
4, 205920, Note_on_c, 2, 62, 53
4, 206076, Note_off_c, 2, 62, 0
4, 206160, Note_on_c, 2, 68, 53
4, 206316, Note_off_c, 2, 68, 0
4, 206400, Note_on_c, 2, 67, 52
4, 206556, Note_off_c, 2, 67, 0
4, 206640, Note_on_c, 2, 70, 51
4, 206796, Note_off_c, 2, 70, 0
4, 206880, Note_on_c, 2, 66, 50
4, 207036, Note_off_c, 2, 66, 0
4, 207120, Note_on_c, 2, 68, 50
4, 207276, Note_off_c, 2, 68, 0
4, 207360, Note_on_c, 2, 65, 49
4, 207516, Note_off_c, 2, 65, 0
4, 207600, Note_on_c, 2, 68, 48
4, 207756, Note_off_c, 2, 68, 0
4, 207840, Note_on_c, 2, 61, 48
4, 207996, Note_off_c, 2, 61, 0
4, 208080, Note_on_c, 2, 66, 47
4, 208236, Note_off_c, 2, 66, 0
4, 208320, Note_on_c, 2, 61, 46
4, 208476, Note_off_c, 2, 61, 0
4, 208560, Note_on_c, 2, 66, 45
4, 208716, Note_off_c, 2, 66, 0
4, 208800, Note_on_c, 2, 61, 45
4, 208956, Note_off_c, 2, 61, 0
4, 209040, Note_on_c, 2, 66, 44
4, 209196, Note_off_c, 2, 66, 0
4, 209280, Note_on_c, 2, 60, 43
4, 209436, Note_off_c, 2, 60, 0
4, 209520, Note_on_c, 2, 66, 42
4, 209676, Note_off_c, 2, 66, 0
4, 209760, Note_on_c, 2, 60, 42
4, 209916, Note_off_c, 2, 60, 0
4, 210000, Note_on_c, 2, 66, 41
4, 210156, Note_off_c, 2, 66, 0
4, 210240, Note_on_c, 2, 61, 40
4, 210396, Note_off_c, 2, 61, 0
4, 210480, Note_on_c, 2, 65, 39
4, 210636, Note_off_c, 2, 65, 0
4, 210720, Note_on_c, 2, 60, 39
4, 210876, Note_off_c, 2, 60, 0
4, 210960, Note_on_c, 2, 65, 38
4, 211116, Note_off_c, 2, 65, 0
4, 211200, Note_on_c, 2, 58, 37
4, 211356, Note_off_c, 2, 58, 0
4, 211440, Note_on_c, 2, 65, 37
4, 211596, Note_off_c, 2, 65, 0
4, 211680, Note_on_c, 2, 60, 36
4, 211836, Note_off_c, 2, 60, 0
4, 211920, Note_on_c, 2, 66, 36
4, 212076, Note_off_c, 2, 66, 0
4, 212160, Note_on_c, 2, 60, 37
4, 212316, Note_off_c, 2, 60, 0
4, 212400, Note_on_c, 2, 66, 37
4, 212556, Note_off_c, 2, 66, 0
4, 212640, Note_on_c, 2, 60, 38
4, 212796, Note_off_c, 2, 60, 0
4, 212880, Note_on_c, 2, 66, 38
4, 213036, Note_off_c, 2, 66, 0
4, 213120, Note_on_c, 2, 61, 39
4, 213276, Note_off_c, 2, 61, 0
4, 213360, Note_on_c, 2, 65, 39
4, 213516, Note_off_c, 2, 65, 0
4, 213600, Note_on_c, 2, 61, 40
4, 213756, Note_off_c, 2, 61, 0
4, 213840, Note_on_c, 2, 65, 40
4, 213996, Note_off_c, 2, 65, 0
4, 214080, Note_on_c, 2, 61, 41
4, 214236, Note_off_c, 2, 61, 0
4, 214320, Note_on_c, 2, 65, 41
4, 214476, Note_off_c, 2, 65, 0
4, 214560, Note_on_c, 2, 60, 42
4, 214716, Note_off_c, 2, 60, 0
4, 214800, Note_on_c, 2, 66, 45
4, 214956, Note_off_c, 2, 66, 0
4, 215040, Note_on_c, 2, 60, 47
4, 215196, Note_off_c, 2, 60, 0
4, 215280, Note_on_c, 2, 66, 50
4, 215436, Note_off_c, 2, 66, 0
4, 215520, Note_on_c, 2, 66, 53
4, 215676, Note_off_c, 2, 66, 0
4, 215760, Note_on_c, 2, 68, 56
4, 215916, Note_off_c, 2, 68, 0
4, 216000, Note_on_c, 2, 63, 62
4, 216156, Note_off_c, 2, 63, 0
4, 216240, Note_on_c, 2, 68, 56
4, 216396, Note_off_c, 2, 68, 0
4, 216480, Note_on_c, 2, 63, 51
4, 216636, Note_off_c, 2, 63, 0
4, 216720, Note_on_c, 2, 68, 49
4, 216876, Note_off_c, 2, 68, 0
4, 216960, Note_on_c, 2, 63, 47
4, 217116, Note_off_c, 2, 63, 0
4, 217200, Note_on_c, 2, 68, 45
4, 217356, Note_off_c, 2, 68, 0
4, 217440, Note_on_c, 2, 62, 44
4, 217596, Note_off_c, 2, 62, 0
4, 217680, Note_on_c, 2, 68, 45
4, 217836, Note_off_c, 2, 68, 0
4, 217920, Note_on_c, 2, 67, 46
4, 218076, Note_off_c, 2, 67, 0
4, 218160, Note_on_c, 2, 70, 47
4, 218316, Note_off_c, 2, 70, 0
4, 218400, Note_on_c, 2, 66, 47
4, 218556, Note_off_c, 2, 66, 0
4, 218640, Note_on_c, 2, 68, 48
4, 218796, Note_off_c, 2, 68, 0
4, 218880, Note_on_c, 2, 65, 49
4, 219036, Note_off_c, 2, 65, 0
4, 219120, Note_on_c, 2, 68, 50
4, 219276, Note_off_c, 2, 68, 0
4, 219360, Note_on_c, 2, 66, 51
4, 219516, Note_off_c, 2, 66, 0
4, 219600, Note_on_c, 2, 68, 52
4, 219756, Note_off_c, 2, 68, 0
4, 219840, Note_on_c, 2, 65, 53
4, 219996, Note_off_c, 2, 65, 0
4, 220080, Note_on_c, 2, 68, 54
4, 220236, Note_off_c, 2, 68, 0
4, 220320, Note_on_c, 2, 66, 55
4, 220476, Note_off_c, 2, 66, 0
4, 220560, Note_on_c, 2, 68, 56
4, 220716, Note_off_c, 2, 68, 0
4, 220800, Note_on_c, 2, 67, 57
4, 220956, Note_off_c, 2, 67, 0
4, 221040, Note_on_c, 2, 69, 59
4, 221196, Note_off_c, 2, 69, 0
4, 221280, Note_on_c, 2, 68, 60
4, 221436, Note_off_c, 2, 68, 0
4, 221520, Note_on_c, 2, 70, 61
4, 221676, Note_off_c, 2, 70, 0
4, 221760, Note_on_c, 2, 69, 63
4, 221916, Note_off_c, 2, 69, 0
4, 222000, Note_on_c, 2, 71, 64
4, 222156, Note_off_c, 2, 71, 0
4, 222240, Note_on_c, 2, 70, 65
4, 222396, Note_off_c, 2, 70, 0
4, 222480, Note_on_c, 2, 72, 67
4, 222636, Note_off_c, 2, 72, 0
4, 222720, Note_on_c, 2, 71, 68
4, 222876, Note_off_c, 2, 71, 0
4, 222960, Note_on_c, 2, 73, 69
4, 223116, Note_off_c, 2, 73, 0
4, 223200, Note_on_c, 2, 72, 71
4, 223356, Note_off_c, 2, 72, 0
4, 223440, Note_on_c, 2, 80, 72
4, 223596, Note_off_c, 2, 80, 0
4, 223680, Note_on_c, 2, 78, 73
4, 223836, Note_off_c, 2, 78, 0
4, 223920, Note_on_c, 2, 80, 75
4, 224076, Note_off_c, 2, 80, 0
4, 224160, Note_on_c, 2, 78, 76
4, 224316, Note_off_c, 2, 78, 0
4, 224400, Note_on_c, 2, 80, 78
4, 224556, Note_off_c, 2, 80, 0
4, 224640, Note_on_c, 2, 78, 79
4, 224796, Note_off_c, 2, 78, 0
4, 224880, Note_on_c, 2, 80, 80
4, 225036, Note_off_c, 2, 80, 0
4, 225120, Note_on_c, 2, 78, 82
4, 225276, Note_off_c, 2, 78, 0
4, 225360, Note_on_c, 2, 80, 83
4, 225516, Note_off_c, 2, 80, 0
4, 225600, Note_on_c, 2, 78, 84
4, 225756, Note_off_c, 2, 78, 0
4, 225840, Note_on_c, 2, 80, 88
4, 225996, Note_off_c, 2, 80, 0
4, 226080, Note_on_c, 2, 82, 91
4, 226236, Note_off_c, 2, 82, 0
4, 226320, Note_on_c, 2, 80, 81
4, 226476, Note_off_c, 2, 80, 0
4, 226560, Note_on_c, 2, 82, 70
4, 226716, Note_off_c, 2, 82, 0
4, 226800, Note_on_c, 2, 80, 65
4, 226956, Note_off_c, 2, 80, 0
4, 227040, Note_on_c, 2, 82, 60
4, 227196, Note_off_c, 2, 82, 0
4, 227280, Note_on_c, 2, 80, 56
4, 227436, Note_off_c, 2, 80, 0
4, 227520, Note_on_c, 2, 79, 51
4, 227676, Note_off_c, 2, 79, 0
4, 227760, Note_on_c, 2, 80, 49
4, 227916, Note_off_c, 2, 80, 0
4, 228000, Note_on_c, 2, 79, 46
4, 228156, Note_off_c, 2, 79, 0
4, 228240, Note_on_c, 2, 80, 44
4, 228396, Note_off_c, 2, 80, 0
4, 228480, Note_on_c, 2, 78, 41
4, 228636, Note_off_c, 2, 78, 0
4, 228720, Note_on_c, 2, 80, 39
4, 228876, Note_off_c, 2, 80, 0
4, 229200, Note_on_c, 2, 80, 38
4, 229356, Note_off_c, 2, 80, 0
4, 229440, Note_on_c, 2, 82, 38
4, 229596, Note_off_c, 2, 82, 0
4, 229680, Note_on_c, 2, 84, 37
4, 229836, Note_off_c, 2, 84, 0
4, 229920, Note_on_c, 2, 85, 36
4, 230076, Note_off_c, 2, 85, 0
4, 230160, Note_on_c, 2, 87, 35
4, 230316, Note_off_c, 2, 87, 0
4, 230640, Note_on_c, 2, 92, 34
4, 230796, Note_off_c, 2, 92, 0
4, 230880, Note_on_c, 2, 94, 33
4, 231036, Note_off_c, 2, 94, 0
4, 231120, Note_on_c, 2, 96, 32
4, 231276, Note_off_c, 2, 96, 0
4, 231360, Note_on_c, 2, 97, 31
4, 231516, Note_off_c, 2, 97, 0
4, 231600, Note_on_c, 2, 94, 30
4, 231756, Note_off_c, 2, 94, 0
4, 231840, Note_on_c, 2, 92, 29
4, 232080, Note_on_c, 2, 87, 29
4, 232236, Note_off_c, 2, 87, 0
4, 232320, Note_off_c, 2, 92, 0
4, 232320, Note_on_c, 2, 85, 28
4, 232476, Note_off_c, 2, 85, 0
4, 232560, Note_on_c, 2, 82, 27
4, 232716, Note_off_c, 2, 82, 0
4, 232800, Note_on_c, 2, 80, 27
4, 232956, Note_off_c, 2, 80, 0
4, 233040, Note_on_c, 2, 75, 26
4, 233196, Note_off_c, 2, 75, 0
4, 233280, Note_on_c, 2, 73, 30
4, 233436, Note_off_c, 2, 73, 0
4, 233520, Note_on_c, 2, 70, 34
4, 233676, Note_off_c, 2, 70, 0
4, 233760, Note_on_c, 2, 68, 39
4, 233916, Note_off_c, 2, 68, 0
4, 234000, Note_on_c, 2, 63, 44
4, 234156, Note_off_c, 2, 63, 0
4, 234240, Note_on_c, 2, 61, 56
4, 234396, Note_off_c, 2, 61, 0
4, 234480, Note_on_c, 2, 56, 75
4, 234636, Note_off_c, 2, 56, 0
4, 236160, Note_on_c, 2, 60, 106
4, 236160, Note_on_c, 2, 54, 106
4, 236160, Note_on_c, 2, 63, 106
4, 237600, Note_off_c, 2, 60, 0
4, 237600, Note_off_c, 2, 54, 0
4, 237600, Note_off_c, 2, 63, 0
4, 237600, Note_on_c, 2, 53, 107
4, 237600, Note_on_c, 2, 61, 107
4, 239520, Note_off_c, 2, 53, 0
4, 239520, Note_off_c, 2, 61, 0
4, 240480, Control_c, 2, 0, 0
4, 240480, Control_c, 2, 32, 0
4, 240480, Program_c, 2, 0
4, 240480, Control_c, 2, 64, 0
4, 240480, Control_c, 2, 64, 0
4, 240480, Control_c, 2, 64, 0
4, 240480, Control_c, 2, 64, 0
4, 240480, Control_c, 2, 64, 0
4, 240480, Control_c, 2, 64, 0
4, 240480, Control_c, 2, 64, 0
4, 240480, Control_c, 2, 64, 0
4, 240480, Control_c, 2, 7, 122
4, 240480, Pitch_bend_c, 2, 8192
4, 240480, Control_c, 2, 1, 0
4, 240480, Control_c, 2, 93, 20
4, 240480, Control_c, 2, 91, 80
4, 240480, Control_c, 2, 10, 73
4, 241600, Note_on_c, 2, 72, 58
4, 241760, Note_off_c, 2, 72, 0
4, 241760, Note_on_c, 2, 72, 57
4, 241920, Note_off_c, 2, 72, 0
4, 241920, Note_on_c, 2, 72, 57
4, 242080, Note_off_c, 2, 72, 0
4, 242080, Note_on_c, 2, 70, 56
4, 242240, Note_off_c, 2, 70, 0
4, 242240, Note_on_c, 2, 70, 55
4, 242400, Note_off_c, 2, 70, 0
4, 242400, Note_on_c, 2, 70, 55
4, 242560, Note_off_c, 2, 70, 0
4, 242560, Note_on_c, 2, 68, 54
4, 242720, Note_off_c, 2, 68, 0
4, 242720, Note_on_c, 2, 68, 54
4, 242880, Note_off_c, 2, 68, 0
4, 242880, Note_on_c, 2, 68, 53
4, 243040, Note_off_c, 2, 68, 0
4, 243040, Note_on_c, 2, 63, 53
4, 243200, Note_off_c, 2, 63, 0
4, 243200, Note_on_c, 2, 63, 52
4, 243360, Note_off_c, 2, 63, 0
4, 243360, Note_on_c, 2, 63, 51
4, 243520, Note_off_c, 2, 63, 0
4, 243520, Note_on_c, 2, 68, 53
4, 243680, Note_off_c, 2, 68, 0
4, 243680, Note_on_c, 2, 68, 55
4, 243840, Note_off_c, 2, 68, 0
4, 243840, Note_on_c, 2, 68, 57
4, 244000, Note_off_c, 2, 68, 0
4, 244000, Note_on_c, 2, 70, 59
4, 244160, Note_off_c, 2, 70, 0
4, 244160, Note_on_c, 2, 70, 61
4, 244320, Note_off_c, 2, 70, 0
4, 244320, Note_on_c, 2, 70, 63
4, 244480, Note_off_c, 2, 70, 0
4, 244480, Note_on_c, 2, 72, 65
4, 244640, Note_off_c, 2, 72, 0
4, 244640, Note_on_c, 2, 72, 67
4, 244800, Note_off_c, 2, 72, 0
4, 244800, Note_on_c, 2, 72, 69
4, 244960, Note_off_c, 2, 72, 0
4, 244960, Note_on_c, 2, 73, 71
4, 245120, Note_off_c, 2, 73, 0
4, 245120, Note_on_c, 2, 75, 73
4, 245248, Note_off_c, 2, 75, 0
4, 245280, Note_on_c, 2, 75, 74
4, 245440, Note_off_c, 2, 75, 0
4, 245440, Note_on_c, 2, 77, 72
4, 245600, Note_off_c, 2, 77, 0
4, 245600, Note_on_c, 2, 77, 70
4, 245760, Note_off_c, 2, 77, 0
4, 245760, Note_on_c, 2, 77, 68
4, 245920, Note_off_c, 2, 77, 0
4, 245920, Note_on_c, 2, 75, 66
4, 246080, Note_off_c, 2, 75, 0
4, 246080, Note_on_c, 2, 75, 64
4, 246240, Note_off_c, 2, 75, 0
4, 246240, Note_on_c, 2, 75, 62
4, 246400, Note_off_c, 2, 75, 0
4, 246400, Note_on_c, 2, 73, 60
4, 246560, Note_off_c, 2, 73, 0
4, 246560, Note_on_c, 2, 73, 58
4, 246720, Note_off_c, 2, 73, 0
4, 246720, Note_on_c, 2, 73, 56
4, 246880, Note_off_c, 2, 73, 0
4, 246880, Note_on_c, 2, 68, 54
4, 247040, Note_off_c, 2, 68, 0
4, 247040, Note_on_c, 2, 68, 52
4, 247200, Note_off_c, 2, 68, 0
4, 247200, Note_on_c, 2, 68, 53
4, 247360, Note_off_c, 2, 68, 0
4, 247360, Note_on_c, 2, 73, 55
4, 247520, Note_off_c, 2, 73, 0
4, 247520, Note_on_c, 2, 73, 57
4, 247680, Note_off_c, 2, 73, 0
4, 247680, Note_on_c, 2, 73, 59
4, 247840, Note_off_c, 2, 73, 0
4, 247840, Note_on_c, 2, 75, 61
4, 248000, Note_off_c, 2, 75, 0
4, 248000, Note_on_c, 2, 75, 64
4, 248160, Note_off_c, 2, 75, 0
4, 248160, Note_on_c, 2, 75, 66
4, 248320, Note_off_c, 2, 75, 0
4, 248320, Note_on_c, 2, 77, 68
4, 248480, Note_off_c, 2, 77, 0
4, 248480, Note_on_c, 2, 77, 70
4, 248640, Note_off_c, 2, 77, 0
4, 248640, Note_on_c, 2, 77, 72
4, 248800, Note_off_c, 2, 77, 0
4, 248800, Note_on_c, 2, 79, 74
4, 248960, Note_off_c, 2, 79, 0
4, 248960, Note_on_c, 2, 77, 76
4, 249088, Note_off_c, 2, 77, 0
4, 249120, Note_on_c, 2, 75, 78
4, 249280, Note_off_c, 2, 75, 0
4, 249280, Note_on_c, 2, 75, 76
4, 249440, Note_off_c, 2, 75, 0
4, 249440, Note_on_c, 2, 75, 76
4, 249600, Note_off_c, 2, 75, 0
4, 249600, Note_on_c, 2, 75, 75
4, 249760, Note_off_c, 2, 75, 0
4, 249760, Note_on_c, 2, 77, 74
4, 249920, Note_off_c, 2, 77, 0
4, 249920, Note_on_c, 2, 77, 74
4, 250080, Note_off_c, 2, 77, 0
4, 250080, Note_on_c, 2, 77, 73
4, 250240, Note_off_c, 2, 77, 0
4, 250240, Note_on_c, 2, 75, 72
4, 250400, Note_off_c, 2, 75, 0
4, 250400, Note_on_c, 2, 75, 72
4, 250560, Note_off_c, 2, 75, 0
4, 250560, Note_on_c, 2, 75, 71
4, 250720, Note_off_c, 2, 75, 0
4, 250720, Note_on_c, 2, 73, 70
4, 250880, Note_off_c, 2, 73, 0
4, 250880, Note_on_c, 2, 72, 70
4, 251008, Note_off_c, 2, 72, 0
4, 251040, Note_on_c, 2, 72, 69
4, 251200, Note_off_c, 2, 72, 0
4, 251200, Note_on_c, 2, 72, 68
4, 251360, Note_off_c, 2, 72, 0
4, 251360, Note_on_c, 2, 72, 67
4, 251520, Note_off_c, 2, 72, 0
4, 251520, Note_on_c, 2, 72, 67
4, 251680, Note_off_c, 2, 72, 0
4, 251680, Note_on_c, 2, 73, 66
4, 251840, Note_off_c, 2, 73, 0
4, 251840, Note_on_c, 2, 73, 65
4, 252000, Note_off_c, 2, 73, 0
4, 252000, Note_on_c, 2, 73, 65
4, 252160, Note_off_c, 2, 73, 0
4, 252160, Note_on_c, 2, 72, 64
4, 252320, Note_off_c, 2, 72, 0
4, 252320, Note_on_c, 2, 72, 63
4, 252480, Note_off_c, 2, 72, 0
4, 252480, Note_on_c, 2, 72, 63
4, 252640, Note_off_c, 2, 72, 0
4, 252640, Note_on_c, 2, 70, 62
4, 252800, Note_off_c, 2, 70, 0
4, 252800, Note_on_c, 2, 68, 61
4, 252928, Note_off_c, 2, 68, 0
4, 252960, Note_on_c, 2, 72, 60
4, 253120, Note_off_c, 2, 72, 0
4, 253120, Note_on_c, 2, 70, 60
4, 253280, Note_off_c, 2, 70, 0
4, 253280, Note_on_c, 2, 70, 59
4, 253440, Note_off_c, 2, 70, 0
4, 253440, Note_on_c, 2, 70, 58
4, 253600, Note_off_c, 2, 70, 0
4, 253600, Note_on_c, 2, 72, 58
4, 253760, Note_off_c, 2, 72, 0
4, 253760, Note_on_c, 2, 72, 57
4, 253920, Note_off_c, 2, 72, 0
4, 253920, Note_on_c, 2, 72, 56
4, 254080, Note_off_c, 2, 72, 0
4, 254080, Note_on_c, 2, 68, 56
4, 254240, Note_off_c, 2, 68, 0
4, 254240, Note_on_c, 2, 68, 55
4, 254400, Note_off_c, 2, 68, 0
4, 254400, Note_on_c, 2, 68, 54
4, 254560, Note_off_c, 2, 68, 0
4, 254560, Note_on_c, 2, 72, 54
4, 254720, Note_off_c, 2, 72, 0
4, 254720, Note_on_c, 2, 72, 53
4, 254880, Note_off_c, 2, 72, 0
4, 254880, Note_on_c, 2, 72, 52
4, 255040, Note_off_c, 2, 72, 0
4, 255040, Note_on_c, 2, 70, 51
4, 255200, Note_off_c, 2, 70, 0
4, 255200, Note_on_c, 2, 70, 51
4, 255360, Note_off_c, 2, 70, 0
4, 255360, Note_on_c, 2, 70, 50
4, 255520, Note_off_c, 2, 70, 0
4, 255520, Note_on_c, 2, 72, 49
4, 255680, Note_off_c, 2, 72, 0
4, 255680, Note_on_c, 2, 72, 49
4, 255840, Note_off_c, 2, 72, 0
4, 255840, Note_on_c, 2, 72, 48
4, 256000, Note_off_c, 2, 72, 0
4, 256000, Note_on_c, 2, 68, 47
4, 256160, Note_off_c, 2, 68, 0
4, 256160, Note_on_c, 2, 68, 47
4, 256320, Note_off_c, 2, 68, 0
4, 256320, Note_on_c, 2, 68, 46
4, 256480, Note_off_c, 2, 68, 0
4, 256480, Note_on_c, 2, 68, 45
4, 256640, Note_off_c, 2, 68, 0
4, 256640, Note_on_c, 2, 68, 45
4, 256768, Note_off_c, 2, 68, 0
4, 256800, Note_on_c, 2, 56, 47
4, 256800, Note_on_c, 2, 68, 47
4, 256960, Note_off_c, 2, 56, 0
4, 256960, Note_off_c, 2, 68, 0
4, 256960, Note_on_c, 2, 56, 48
4, 256960, Note_on_c, 2, 68, 48
4, 257120, Note_off_c, 2, 56, 0
4, 257120, Note_off_c, 2, 68, 0
4, 257120, Note_on_c, 2, 57, 50
4, 257120, Note_on_c, 2, 68, 50
4, 257280, Note_off_c, 2, 57, 0
4, 257280, Note_off_c, 2, 68, 0
4, 257280, Note_on_c, 2, 58, 51
4, 257280, Note_on_c, 2, 68, 51
4, 257440, Note_off_c, 2, 58, 0
4, 257440, Note_off_c, 2, 68, 0
4, 257440, Note_on_c, 2, 59, 53
4, 257440, Note_on_c, 2, 68, 53
4, 257600, Note_off_c, 2, 59, 0
4, 257600, Note_off_c, 2, 68, 0
4, 257600, Note_on_c, 2, 59, 54
4, 257600, Note_on_c, 2, 69, 54
4, 257760, Note_off_c, 2, 59, 0
4, 257760, Note_off_c, 2, 69, 0
4, 257760, Note_on_c, 2, 71, 56
4, 257760, Note_on_c, 2, 59, 56
4, 257920, Note_off_c, 2, 59, 0
4, 257920, Note_on_c, 2, 76, 57
4, 257921, Note_off_c, 2, 71, 0
4, 258080, Note_off_c, 2, 76, 0
4, 258400, Note_on_c, 2, 75, 62
4, 258560, Note_off_c, 2, 75, 0
4, 258560, Note_on_c, 2, 73, 63
4, 258720, Note_off_c, 2, 73, 0
4, 258720, Note_on_c, 2, 71, 65
4, 258880, Note_off_c, 2, 71, 0
4, 258880, Note_on_c, 2, 71, 60
4, 259040, Note_off_c, 2, 71, 0
4, 259040, Note_on_c, 2, 71, 59
4, 259200, Note_off_c, 2, 71, 0
4, 259200, Note_on_c, 2, 71, 58
4, 259360, Note_off_c, 2, 71, 0
4, 259360, Note_on_c, 2, 71, 57
4, 259520, Note_off_c, 2, 71, 0
4, 259520, Note_on_c, 2, 71, 56
4, 259680, Note_off_c, 2, 71, 0
4, 259680, Note_on_c, 2, 71, 56
4, 259840, Note_off_c, 2, 71, 0
4, 259840, Note_on_c, 2, 71, 55
4, 260000, Note_off_c, 2, 71, 0
4, 260000, Note_on_c, 2, 71, 54
4, 260160, Note_off_c, 2, 71, 0
4, 260160, Note_on_c, 2, 71, 53
4, 260320, Note_off_c, 2, 71, 0
4, 260320, Note_on_c, 2, 69, 52
4, 260480, Note_off_c, 2, 69, 0
4, 260480, Note_on_c, 2, 69, 51
4, 260608, Note_off_c, 2, 69, 0
4, 260640, Note_on_c, 2, 67, 50
4, 260800, Note_off_c, 2, 67, 0
4, 260800, Note_on_c, 2, 55, 52
4, 260800, Note_on_c, 2, 67, 52
4, 260960, Note_off_c, 2, 55, 0
4, 260960, Note_off_c, 2, 67, 0
4, 260960, Note_on_c, 2, 57, 54
4, 260960, Note_on_c, 2, 67, 54
4, 261120, Note_off_c, 2, 57, 0
4, 261120, Note_off_c, 2, 67, 0
4, 261120, Note_on_c, 2, 62, 56
4, 261120, Note_on_c, 2, 67, 56
4, 261280, Note_off_c, 2, 62, 0
4, 261280, Note_off_c, 2, 67, 0
4, 261280, Note_on_c, 2, 60, 58
4, 261280, Note_on_c, 2, 67, 58
4, 261440, Note_off_c, 2, 60, 0
4, 261440, Note_off_c, 2, 67, 0
4, 261440, Note_on_c, 2, 59, 60
4, 261440, Note_on_c, 2, 67, 60
4, 261600, Note_off_c, 2, 59, 0
4, 261600, Note_off_c, 2, 67, 0
4, 261600, Note_on_c, 2, 60, 61
4, 261600, Note_on_c, 2, 67, 61
4, 261760, Note_off_c, 2, 60, 0
4, 261760, Note_off_c, 2, 67, 0
4, 261760, Note_on_c, 2, 72, 63
4, 261920, Note_off_c, 2, 72, 0
4, 262240, Note_on_c, 2, 71, 69
4, 262400, Note_off_c, 2, 71, 0
4, 262400, Note_on_c, 2, 69, 71
4, 262560, Note_off_c, 2, 69, 0
4, 262560, Note_on_c, 2, 67, 73
4, 262720, Note_off_c, 2, 67, 0
4, 262720, Note_on_c, 2, 67, 70
4, 262880, Note_off_c, 2, 67, 0
4, 262880, Note_on_c, 2, 67, 69
4, 263040, Note_off_c, 2, 67, 0
4, 263040, Note_on_c, 2, 67, 68
4, 263200, Note_off_c, 2, 67, 0
4, 263200, Note_on_c, 2, 67, 66
4, 263360, Note_off_c, 2, 67, 0
4, 263360, Note_on_c, 2, 67, 65
4, 263520, Note_off_c, 2, 67, 0
4, 263520, Note_on_c, 2, 67, 63
4, 263680, Note_off_c, 2, 67, 0
4, 263680, Note_on_c, 2, 67, 62
4, 263840, Note_off_c, 2, 67, 0
4, 263840, Note_on_c, 2, 67, 61
4, 264000, Note_off_c, 2, 67, 0
4, 264000, Note_on_c, 2, 67, 59
4, 264160, Note_off_c, 2, 67, 0
4, 264160, Note_on_c, 2, 65, 58
4, 264320, Note_off_c, 2, 65, 0
4, 264320, Note_on_c, 2, 65, 56
4, 264448, Note_off_c, 2, 65, 0
4, 264480, Note_on_c, 2, 63, 60
4, 264480, Note_on_c, 2, 60, 60
4, 264640, Note_off_c, 2, 63, 0
4, 265115, Note_off_c, 2, 60, 0
4, 265120, Note_on_c, 2, 60, 66
4, 265120, Note_on_c, 2, 64, 66
4, 265280, Note_off_c, 2, 60, 0
4, 265280, Note_off_c, 2, 64, 0
4, 265280, Note_on_c, 2, 60, 67
4, 265280, Note_on_c, 2, 64, 67
4, 265440, Note_off_c, 2, 60, 0
4, 265440, Note_off_c, 2, 64, 0
4, 265440, Note_on_c, 2, 64, 69
4, 265440, Note_on_c, 2, 61, 69
4, 265600, Note_off_c, 2, 64, 0
4, 266075, Note_off_c, 2, 61, 0
4, 266080, Note_on_c, 2, 61, 75
4, 266080, Note_on_c, 2, 64, 75
4, 266240, Note_off_c, 2, 61, 0
4, 266240, Note_off_c, 2, 64, 0
4, 266240, Note_on_c, 2, 61, 76
4, 266240, Note_on_c, 2, 64, 76
4, 266400, Note_off_c, 2, 61, 0
4, 266400, Note_off_c, 2, 64, 0
4, 266400, Note_on_c, 2, 65, 77
4, 266400, Note_on_c, 2, 62, 77
4, 266560, Note_off_c, 2, 65, 0
4, 267040, Note_off_c, 2, 62, 0
4, 267040, Note_on_c, 2, 62, 83
4, 267040, Note_on_c, 2, 66, 83
4, 267200, Note_off_c, 2, 62, 0
4, 267200, Note_off_c, 2, 66, 0
4, 267200, Note_on_c, 2, 66, 84
4, 267200, Note_on_c, 2, 62, 84
4, 267360, Note_off_c, 2, 66, 0
4, 267360, Note_off_c, 2, 62, 0
4, 267360, Note_on_c, 2, 66, 86
4, 267360, Note_on_c, 2, 63, 86
4, 267520, Note_off_c, 2, 66, 0
4, 267995, Note_off_c, 2, 63, 0
4, 268000, Note_on_c, 2, 63, 91
4, 268000, Note_on_c, 2, 67, 91
4, 268160, Note_off_c, 2, 63, 0
4, 268160, Note_off_c, 2, 67, 0
4, 268160, Note_on_c, 2, 63, 94
4, 268160, Note_on_c, 2, 67, 94
4, 268288, Note_off_c, 2, 63, 0
4, 268288, Note_off_c, 2, 67, 0
4, 268320, Note_on_c, 2, 63, 97
4, 268320, Note_on_c, 2, 67, 97
4, 268480, Note_off_c, 2, 63, 0
4, 268480, Note_off_c, 2, 67, 0
4, 268480, Note_on_c, 2, 75, 96
4, 268640, Note_off_c, 2, 75, 0
4, 268640, Note_on_c, 2, 75, 95
4, 268800, Note_off_c, 2, 75, 0
4, 268800, Note_on_c, 2, 75, 93
4, 268960, Note_off_c, 2, 75, 0
4, 268960, Note_on_c, 2, 70, 92
4, 269120, Note_off_c, 2, 70, 0
4, 269120, Note_on_c, 2, 70, 91
4, 269280, Note_off_c, 2, 70, 0
4, 269280, Note_on_c, 2, 70, 90
4, 269440, Note_off_c, 2, 70, 0
4, 269440, Note_on_c, 2, 74, 89
4, 269600, Note_off_c, 2, 74, 0
4, 269600, Note_on_c, 2, 74, 88
4, 269760, Note_off_c, 2, 74, 0
4, 269760, Note_on_c, 2, 74, 87
4, 269920, Note_off_c, 2, 74, 0
4, 269920, Note_on_c, 2, 69, 85
4, 270080, Note_off_c, 2, 69, 0
4, 270080, Note_on_c, 2, 69, 84
4, 270240, Note_off_c, 2, 69, 0
4, 270240, Note_on_c, 2, 69, 83
4, 270400, Note_off_c, 2, 69, 0
4, 270400, Note_on_c, 2, 72, 82
4, 270560, Note_off_c, 2, 72, 0
4, 270560, Note_on_c, 2, 72, 81
4, 270720, Note_off_c, 2, 72, 0
4, 270720, Note_on_c, 2, 72, 80
4, 270880, Note_off_c, 2, 72, 0
4, 270880, Note_on_c, 2, 71, 78
4, 271040, Note_off_c, 2, 71, 0
4, 271040, Note_on_c, 2, 71, 77
4, 271200, Note_off_c, 2, 71, 0
4, 271200, Note_on_c, 2, 71, 79
4, 271360, Note_off_c, 2, 71, 0
4, 271360, Note_on_c, 2, 72, 84
4, 271520, Note_off_c, 2, 72, 0
4, 271520, Note_on_c, 2, 72, 89
4, 271680, Note_off_c, 2, 72, 0
4, 271680, Note_on_c, 2, 72, 94
4, 271840, Note_off_c, 2, 72, 0
4, 271840, Note_on_c, 2, 74, 99
4, 272000, Note_off_c, 2, 74, 0
4, 272000, Note_on_c, 2, 76, 104
4, 272128, Note_off_c, 2, 76, 0
4, 272160, Note_on_c, 2, 76, 108
4, 272320, Note_off_c, 2, 76, 0
4, 272320, Note_on_c, 2, 77, 106
4, 272480, Note_off_c, 2, 77, 0
4, 272480, Note_on_c, 2, 77, 104
4, 272640, Note_off_c, 2, 77, 0
4, 272640, Note_on_c, 2, 77, 102
4, 272800, Note_off_c, 2, 77, 0
4, 272800, Note_on_c, 2, 72, 100
4, 272960, Note_off_c, 2, 72, 0
4, 272960, Note_on_c, 2, 72, 98
4, 273120, Note_off_c, 2, 72, 0
4, 273120, Note_on_c, 2, 72, 96
4, 273280, Note_off_c, 2, 72, 0
4, 273280, Note_on_c, 2, 75, 93
4, 273440, Note_off_c, 2, 75, 0
4, 273440, Note_on_c, 2, 75, 91
4, 273600, Note_off_c, 2, 75, 0
4, 273600, Note_on_c, 2, 75, 89
4, 273760, Note_off_c, 2, 75, 0
4, 273760, Note_on_c, 2, 70, 87
4, 273920, Note_off_c, 2, 70, 0
4, 273920, Note_on_c, 2, 70, 85
4, 274080, Note_off_c, 2, 70, 0
4, 274080, Note_on_c, 2, 70, 83
4, 274240, Note_off_c, 2, 70, 0
4, 274240, Note_on_c, 2, 73, 81
4, 274400, Note_off_c, 2, 73, 0
4, 274400, Note_on_c, 2, 73, 79
4, 274560, Note_off_c, 2, 73, 0
4, 274560, Note_on_c, 2, 73, 77
4, 274720, Note_off_c, 2, 73, 0
4, 274720, Note_on_c, 2, 72, 75
4, 274880, Note_off_c, 2, 72, 0
4, 274880, Note_on_c, 2, 72, 73
4, 275040, Note_off_c, 2, 72, 0
4, 275040, Note_on_c, 2, 72, 71
4, 275200, Note_off_c, 2, 72, 0
4, 275200, Note_on_c, 2, 73, 69
4, 275360, Note_off_c, 2, 73, 0
4, 275360, Note_on_c, 2, 70, 66
4, 275520, Note_off_c, 2, 70, 0
4, 275520, Note_on_c, 2, 70, 64
4, 275680, Note_off_c, 2, 70, 0
4, 275680, Note_on_c, 2, 72, 62
4, 275840, Note_off_c, 2, 72, 0
4, 275840, Note_on_c, 2, 73, 60
4, 275968, Note_off_c, 2, 73, 0
4, 276000, Note_on_c, 2, 73, 58
4, 276160, Note_off_c, 2, 73, 0
4, 276160, Note_on_c, 2, 72, 59
4, 276320, Note_off_c, 2, 72, 0
4, 276320, Note_on_c, 2, 72, 61
4, 276480, Note_off_c, 2, 72, 0
4, 276480, Note_on_c, 2, 72, 63
4, 276640, Note_off_c, 2, 72, 0
4, 276640, Note_on_c, 2, 73, 65
4, 276800, Note_off_c, 2, 73, 0
4, 276800, Note_on_c, 2, 73, 67
4, 276960, Note_off_c, 2, 73, 0
4, 276960, Note_on_c, 2, 73, 69
4, 277120, Note_off_c, 2, 73, 0
4, 277120, Note_on_c, 2, 72, 71
4, 277280, Note_off_c, 2, 72, 0
4, 277280, Note_on_c, 2, 72, 73
4, 277440, Note_off_c, 2, 72, 0
4, 277440, Note_on_c, 2, 72, 75
4, 277600, Note_off_c, 2, 72, 0
4, 277600, Note_on_c, 2, 73, 77
4, 277760, Note_off_c, 2, 73, 0
4, 277760, Note_on_c, 2, 73, 79
4, 277920, Note_off_c, 2, 73, 0
4, 277920, Note_on_c, 2, 73, 81
4, 278080, Note_off_c, 2, 73, 0
4, 278080, Note_on_c, 2, 77, 78
4, 278240, Note_off_c, 2, 77, 0
4, 278240, Note_on_c, 2, 77, 75
4, 278400, Note_off_c, 2, 77, 0
4, 278400, Note_on_c, 2, 77, 73
4, 278560, Note_off_c, 2, 77, 0
4, 278560, Note_on_c, 2, 76, 70
4, 278720, Note_off_c, 2, 76, 0
4, 278720, Note_on_c, 2, 76, 68
4, 278880, Note_off_c, 2, 76, 0
4, 278880, Note_on_c, 2, 76, 66
4, 279040, Note_off_c, 2, 76, 0
4, 279040, Note_on_c, 2, 72, 62
4, 279200, Note_off_c, 2, 72, 0
4, 279200, Note_on_c, 2, 72, 58
4, 279360, Note_off_c, 2, 72, 0
4, 279360, Note_on_c, 2, 73, 54
4, 279520, Note_off_c, 2, 73, 0
4, 279520, Note_on_c, 2, 75, 50
4, 279680, Note_off_c, 2, 75, 0
4, 279680, Note_on_c, 2, 70, 46
4, 279808, Note_off_c, 2, 70, 0
4, 279840, Note_on_c, 2, 72, 57
4, 280000, Note_off_c, 2, 72, 0
4, 280000, Note_on_c, 2, 72, 56
4, 280160, Note_off_c, 2, 72, 0
4, 280160, Note_on_c, 2, 72, 56
4, 280320, Note_off_c, 2, 72, 0
4, 280320, Note_on_c, 2, 72, 55
4, 280480, Note_off_c, 2, 72, 0
4, 280480, Note_on_c, 2, 70, 54
4, 280640, Note_off_c, 2, 70, 0
4, 280640, Note_on_c, 2, 70, 53
4, 280800, Note_off_c, 2, 70, 0
4, 280800, Note_on_c, 2, 70, 53
4, 280960, Note_off_c, 2, 70, 0
4, 280960, Note_on_c, 2, 68, 52
4, 281120, Note_off_c, 2, 68, 0
4, 281120, Note_on_c, 2, 68, 51
4, 281280, Note_off_c, 2, 68, 0
4, 281280, Note_on_c, 2, 68, 50
4, 281440, Note_off_c, 2, 68, 0
4, 281440, Note_on_c, 2, 63, 50
4, 281600, Note_off_c, 2, 63, 0
4, 281600, Note_on_c, 2, 63, 49
4, 281760, Note_off_c, 2, 63, 0
4, 281760, Note_on_c, 2, 63, 50
4, 281920, Note_off_c, 2, 63, 0
4, 281920, Note_on_c, 2, 68, 51
4, 282080, Note_off_c, 2, 68, 0
4, 282080, Note_on_c, 2, 68, 52
4, 282240, Note_off_c, 2, 68, 0
4, 282240, Note_on_c, 2, 68, 53
4, 282400, Note_off_c, 2, 68, 0
4, 282400, Note_on_c, 2, 70, 54
4, 282560, Note_off_c, 2, 70, 0
4, 282560, Note_on_c, 2, 70, 55
4, 282720, Note_off_c, 2, 70, 0
4, 282720, Note_on_c, 2, 70, 56
4, 282880, Note_off_c, 2, 70, 0
4, 282880, Note_on_c, 2, 72, 57
4, 283040, Note_off_c, 2, 72, 0
4, 283040, Note_on_c, 2, 72, 58
4, 283200, Note_off_c, 2, 72, 0
4, 283200, Note_on_c, 2, 72, 59
4, 283360, Note_off_c, 2, 72, 0
4, 283360, Note_on_c, 2, 73, 60
4, 283520, Note_off_c, 2, 73, 0
4, 283520, Note_on_c, 2, 75, 60
4, 283648, Note_off_c, 2, 75, 0
4, 283680, Note_on_c, 2, 75, 63
4, 283840, Note_off_c, 2, 75, 0
4, 283840, Note_on_c, 2, 77, 62
4, 284000, Note_off_c, 2, 77, 0
4, 284000, Note_on_c, 2, 77, 62
4, 284160, Note_off_c, 2, 77, 0
4, 284160, Note_on_c, 2, 77, 61
4, 284320, Note_off_c, 2, 77, 0
4, 284320, Note_on_c, 2, 75, 60
4, 284480, Note_off_c, 2, 75, 0
4, 284480, Note_on_c, 2, 75, 59
4, 284640, Note_off_c, 2, 75, 0
4, 284640, Note_on_c, 2, 75, 59
4, 284800, Note_off_c, 2, 75, 0
4, 284800, Note_on_c, 2, 73, 58
4, 284960, Note_off_c, 2, 73, 0
4, 284960, Note_on_c, 2, 73, 57
4, 285120, Note_off_c, 2, 73, 0
4, 285120, Note_on_c, 2, 73, 56
4, 285280, Note_off_c, 2, 73, 0
4, 285280, Note_on_c, 2, 68, 55
4, 285440, Note_off_c, 2, 68, 0
4, 285440, Note_on_c, 2, 68, 55
4, 285600, Note_off_c, 2, 68, 0
4, 285600, Note_on_c, 2, 68, 55
4, 285760, Note_off_c, 2, 68, 0
4, 285760, Note_on_c, 2, 73, 57
4, 285920, Note_off_c, 2, 73, 0
4, 285920, Note_on_c, 2, 73, 59
4, 286080, Note_off_c, 2, 73, 0
4, 286080, Note_on_c, 2, 73, 61
4, 286240, Note_off_c, 2, 73, 0
4, 286240, Note_on_c, 2, 75, 63
4, 286400, Note_off_c, 2, 75, 0
4, 286400, Note_on_c, 2, 75, 65
4, 286560, Note_off_c, 2, 75, 0
4, 286560, Note_on_c, 2, 75, 67
4, 286720, Note_off_c, 2, 75, 0
4, 286720, Note_on_c, 2, 77, 69
4, 286880, Note_off_c, 2, 77, 0
4, 286880, Note_on_c, 2, 77, 71
4, 287040, Note_off_c, 2, 77, 0
4, 287040, Note_on_c, 2, 77, 73
4, 287200, Note_off_c, 2, 77, 0
4, 287200, Note_on_c, 2, 79, 75
4, 287360, Note_off_c, 2, 79, 0
4, 287360, Note_on_c, 2, 77, 76
4, 287488, Note_off_c, 2, 77, 0
4, 287520, Note_on_c, 2, 75, 78
4, 287680, Note_off_c, 2, 75, 0
4, 287680, Note_on_c, 2, 75, 77
4, 287840, Note_off_c, 2, 75, 0
4, 287840, Note_on_c, 2, 75, 76
4, 288000, Note_off_c, 2, 75, 0
4, 288000, Note_on_c, 2, 75, 75
4, 288160, Note_off_c, 2, 75, 0
4, 288160, Note_on_c, 2, 77, 74
4, 288320, Note_off_c, 2, 77, 0
4, 288320, Note_on_c, 2, 77, 73
4, 288480, Note_off_c, 2, 77, 0
4, 288480, Note_on_c, 2, 77, 72
4, 288640, Note_off_c, 2, 77, 0
4, 288640, Note_on_c, 2, 75, 71
4, 288800, Note_off_c, 2, 75, 0
4, 288800, Note_on_c, 2, 75, 70
4, 288960, Note_off_c, 2, 75, 0
4, 288960, Note_on_c, 2, 75, 69
4, 289120, Note_off_c, 2, 75, 0
4, 289120, Note_on_c, 2, 73, 68
4, 289280, Note_off_c, 2, 73, 0
4, 289280, Note_on_c, 2, 72, 67
4, 289408, Note_off_c, 2, 72, 0
4, 289440, Note_on_c, 2, 72, 66
4, 289600, Note_off_c, 2, 72, 0
4, 289600, Note_on_c, 2, 72, 65
4, 289760, Note_off_c, 2, 72, 0
4, 289760, Note_on_c, 2, 72, 64
4, 289920, Note_off_c, 2, 72, 0
4, 289920, Note_on_c, 2, 72, 63
4, 290080, Note_off_c, 2, 72, 0
4, 290080, Note_on_c, 2, 73, 62
4, 290240, Note_off_c, 2, 73, 0
4, 290240, Note_on_c, 2, 73, 61
4, 290400, Note_off_c, 2, 73, 0
4, 290400, Note_on_c, 2, 73, 60
4, 290560, Note_off_c, 2, 73, 0
4, 290560, Note_on_c, 2, 72, 58
4, 290720, Note_off_c, 2, 72, 0
4, 290720, Note_on_c, 2, 72, 57
4, 290880, Note_off_c, 2, 72, 0
4, 290880, Note_on_c, 2, 72, 56
4, 291040, Note_off_c, 2, 72, 0
4, 291040, Note_on_c, 2, 70, 55
4, 291200, Note_off_c, 2, 70, 0
4, 291200, Note_on_c, 2, 68, 55
4, 291328, Note_off_c, 2, 68, 0
4, 291360, Note_on_c, 2, 72, 54
4, 291520, Note_off_c, 2, 72, 0
4, 291520, Note_on_c, 2, 70, 53
4, 291680, Note_off_c, 2, 70, 0
4, 291680, Note_on_c, 2, 70, 53
4, 291840, Note_off_c, 2, 70, 0
4, 291840, Note_on_c, 2, 70, 52
4, 292000, Note_off_c, 2, 70, 0
4, 292000, Note_on_c, 2, 72, 51
4, 292160, Note_off_c, 2, 72, 0
4, 292160, Note_on_c, 2, 72, 50
4, 292320, Note_off_c, 2, 72, 0
4, 292320, Note_on_c, 2, 72, 50
4, 292480, Note_off_c, 2, 72, 0
4, 292480, Note_on_c, 2, 68, 49
4, 292640, Note_off_c, 2, 68, 0
4, 292640, Note_on_c, 2, 68, 48
4, 292800, Note_off_c, 2, 68, 0
4, 292800, Note_on_c, 2, 68, 48
4, 292960, Note_off_c, 2, 68, 0
4, 292960, Note_on_c, 2, 72, 47
4, 293120, Note_off_c, 2, 72, 0
4, 293120, Note_on_c, 2, 72, 46
4, 293280, Note_off_c, 2, 72, 0
4, 293280, Note_on_c, 2, 72, 45
4, 293440, Note_off_c, 2, 72, 0
4, 293440, Note_on_c, 2, 70, 45
4, 293600, Note_off_c, 2, 70, 0
4, 293600, Note_on_c, 2, 70, 44
4, 293760, Note_off_c, 2, 70, 0
4, 293760, Note_on_c, 2, 70, 43
4, 293920, Note_off_c, 2, 70, 0
4, 293920, Note_on_c, 2, 72, 43
4, 294080, Note_off_c, 2, 72, 0
4, 294080, Note_on_c, 2, 72, 42
4, 294240, Note_off_c, 2, 72, 0
4, 294240, Note_on_c, 2, 72, 41
4, 294400, Note_off_c, 2, 72, 0
4, 294400, Note_on_c, 2, 72, 41
4, 294560, Note_off_c, 2, 72, 0
4, 294560, Note_on_c, 2, 72, 40
4, 294720, Note_off_c, 2, 72, 0
4, 294720, Note_on_c, 2, 72, 39
4, 294880, Note_off_c, 2, 72, 0
4, 294880, Note_on_c, 2, 72, 38
4, 295040, Note_off_c, 2, 72, 0
4, 295040, Note_on_c, 2, 72, 38
4, 295200, Note_off_c, 2, 72, 0
4, 295200, Note_on_c, 2, 75, 37
4, 295360, Note_off_c, 2, 75, 0
4, 295360, Note_on_c, 2, 72, 36
4, 295520, Note_off_c, 2, 72, 0
4, 295520, Note_on_c, 2, 72, 36
4, 295680, Note_off_c, 2, 72, 0
4, 295680, Note_on_c, 2, 72, 35
4, 295840, Note_off_c, 2, 72, 0
4, 295840, Note_on_c, 2, 68, 34
4, 296000, Note_off_c, 2, 68, 0
4, 296000, Note_on_c, 2, 68, 33
4, 296160, Note_off_c, 2, 68, 0
4, 296160, Note_on_c, 2, 68, 33
4, 296320, Note_off_c, 2, 68, 0
4, 296320, Note_on_c, 2, 72, 32
4, 296480, Note_off_c, 2, 72, 0
4, 296480, Note_on_c, 2, 72, 31
4, 296640, Note_off_c, 2, 72, 0
4, 296640, Note_on_c, 2, 72, 31
4, 296800, Note_off_c, 2, 72, 0
4, 296800, Note_on_c, 2, 70, 30
4, 296960, Note_off_c, 2, 70, 0
4, 296960, Note_on_c, 2, 70, 29
4, 297120, Note_off_c, 2, 70, 0
4, 297120, Note_on_c, 2, 70, 28
4, 298080, Note_off_c, 2, 70, 0
4, 298080, Note_on_c, 2, 68, 24
4, 299040, Note_off_c, 2, 68, 0
4, 299040, End_track
5, 0, Start_track
5, 0, Instrument_name_t, "Roland Serial MIDI Out Port A"
5, 0, Title_t, "Unnamed Track"
5, 0, Control_c, 3, 0, 0
5, 0, Control_c, 3, 32, 0
5, 0, Program_c, 3, 0
5, 0, Control_c, 3, 64, 0
5, 0, Control_c, 3, 64, 0
5, 0, Control_c, 3, 7, 102
5, 0, Pitch_bend_c, 3, 8192
5, 0, Control_c, 3, 1, 0
5, 0, Control_c, 3, 93, 20
5, 0, Control_c, 3, 91, 80
5, 0, Control_c, 3, 10, 55
5, 1920, Control_c, 3, 64, 0
5, 1980, Control_c, 3, 64, 127
5, 3840, Control_c, 3, 64, 0
5, 3900, Control_c, 3, 64, 127
5, 5760, Control_c, 3, 64, 0
5, 5820, Control_c, 3, 64, 127
5, 7680, Control_c, 3, 64, 0
5, 7740, Control_c, 3, 64, 127
5, 9600, Control_c, 3, 64, 0
5, 9660, Control_c, 3, 64, 127
5, 9840, Note_on_c, 3, 48, 54
5, 10080, Note_off_c, 3, 48, 0
5, 10080, Note_on_c, 3, 53, 53
5, 10320, Note_off_c, 3, 53, 0
5, 10320, Note_on_c, 3, 56, 52
5, 10560, Note_off_c, 3, 56, 0
5, 10560, Note_on_c, 3, 60, 52
5, 10800, Note_off_c, 3, 60, 0
5, 10800, Note_on_c, 3, 56, 51
5, 11040, Note_off_c, 3, 56, 0
5, 11040, Note_on_c, 3, 53, 50
5, 11280, Note_off_c, 3, 53, 0
5, 11280, Note_on_c, 3, 48, 49
5, 11520, Note_off_c, 3, 48, 0
5, 11760, Note_on_c, 3, 48, 48
5, 12000, Note_off_c, 3, 48, 0
5, 12000, Note_on_c, 3, 53, 47
5, 12240, Note_off_c, 3, 53, 0
5, 12240, Note_on_c, 3, 56, 46
5, 12480, Note_off_c, 3, 56, 0
5, 12480, Note_on_c, 3, 60, 45
5, 12720, Note_off_c, 3, 60, 0
5, 12720, Note_on_c, 3, 56, 44
5, 12960, Note_off_c, 3, 56, 0
5, 12960, Note_on_c, 3, 53, 44
5, 13200, Note_off_c, 3, 53, 0
5, 13200, Note_on_c, 3, 48, 43
5, 13440, Note_off_c, 3, 48, 0
5, 13680, Note_on_c, 3, 48, 41
5, 13920, Note_off_c, 3, 48, 0
5, 13920, Note_on_c, 3, 53, 40
5, 14160, Note_off_c, 3, 53, 0
5, 14160, Note_on_c, 3, 56, 40
5, 14400, Note_off_c, 3, 56, 0
5, 14400, Note_on_c, 3, 60, 39
5, 14640, Note_off_c, 3, 60, 0
5, 14640, Note_on_c, 3, 56, 38
5, 14880, Note_off_c, 3, 56, 0
5, 14880, Note_on_c, 3, 53, 37
5, 15120, Note_off_c, 3, 53, 0
5, 15120, Note_on_c, 3, 48, 36
5, 15360, Note_off_c, 3, 48, 0
5, 15600, Note_on_c, 3, 48, 35
5, 15840, Note_off_c, 3, 48, 0
5, 15840, Note_on_c, 3, 53, 34
5, 16080, Note_off_c, 3, 53, 0
5, 16080, Note_on_c, 3, 56, 33
5, 16320, Note_off_c, 3, 56, 0
5, 16320, Note_on_c, 3, 60, 32
5, 16560, Note_off_c, 3, 60, 0
5, 16560, Note_on_c, 3, 56, 32
5, 16800, Note_off_c, 3, 56, 0
5, 16800, Note_on_c, 3, 53, 31
5, 17040, Note_off_c, 3, 53, 0
5, 17040, Note_on_c, 3, 48, 30
5, 17280, Note_off_c, 3, 48, 0
5, 17520, Note_on_c, 3, 48, 32
5, 17760, Note_off_c, 3, 48, 0
5, 17760, Note_on_c, 3, 53, 32
5, 18000, Note_off_c, 3, 53, 0
5, 18000, Note_on_c, 3, 56, 33
5, 18240, Note_off_c, 3, 56, 0
5, 18240, Note_on_c, 3, 60, 33
5, 18480, Note_off_c, 3, 60, 0
5, 18480, Note_on_c, 3, 56, 34
5, 18720, Note_off_c, 3, 56, 0
5, 18720, Note_on_c, 3, 53, 34
5, 18960, Note_off_c, 3, 53, 0
5, 18960, Note_on_c, 3, 48, 34
5, 19200, Control_c, 3, 64, 0
5, 19200, Note_off_c, 3, 48, 0
5, 19260, Control_c, 3, 64, 127
5, 19440, Note_on_c, 3, 48, 35
5, 19680, Note_off_c, 3, 48, 0
5, 19680, Note_on_c, 3, 55, 35
5, 19920, Note_off_c, 3, 55, 0
5, 19920, Note_on_c, 3, 58, 36
5, 20160, Note_off_c, 3, 58, 0
5, 20160, Note_on_c, 3, 60, 36
5, 20400, Note_off_c, 3, 60, 0
5, 20400, Note_on_c, 3, 58, 36
5, 20640, Note_off_c, 3, 58, 0
5, 20640, Note_on_c, 3, 55, 37
5, 20880, Note_off_c, 3, 55, 0
5, 20880, Note_on_c, 3, 48, 37
5, 21120, Control_c, 3, 64, 0
5, 21120, Note_off_c, 3, 48, 0
5, 21180, Control_c, 3, 64, 127
5, 21360, Note_on_c, 3, 48, 38
5, 21600, Note_off_c, 3, 48, 0
5, 21600, Note_on_c, 3, 53, 38
5, 21840, Note_off_c, 3, 53, 0
5, 21840, Note_on_c, 3, 56, 39
5, 22080, Note_off_c, 3, 56, 0
5, 22080, Note_on_c, 3, 60, 39
5, 22320, Note_off_c, 3, 60, 0
5, 22320, Note_on_c, 3, 56, 39
5, 22560, Note_off_c, 3, 56, 0
5, 22560, Note_on_c, 3, 53, 40
5, 22800, Note_off_c, 3, 53, 0
5, 22800, Note_on_c, 3, 48, 40
5, 23040, Control_c, 3, 64, 0
5, 23040, Note_off_c, 3, 48, 0
5, 23100, Control_c, 3, 64, 127
5, 23280, Note_on_c, 3, 48, 41
5, 23520, Note_off_c, 3, 48, 0
5, 23520, Note_on_c, 3, 55, 41
5, 23760, Note_off_c, 3, 55, 0
5, 23760, Note_on_c, 3, 58, 41
5, 24000, Note_off_c, 3, 58, 0
5, 24000, Note_on_c, 3, 60, 42
5, 24240, Note_off_c, 3, 60, 0
5, 24240, Note_on_c, 3, 58, 42
5, 24480, Note_off_c, 3, 58, 0
5, 24480, Note_on_c, 3, 55, 42
5, 24720, Note_off_c, 3, 55, 0
5, 24720, Note_on_c, 3, 48, 43
5, 24960, Control_c, 3, 64, 0
5, 24960, Note_off_c, 3, 48, 0
5, 25020, Control_c, 3, 64, 127
5, 25200, Note_on_c, 3, 48, 43
5, 25440, Note_off_c, 3, 48, 0
5, 25440, Note_on_c, 3, 53, 44
5, 25680, Note_off_c, 3, 53, 0
5, 25680, Note_on_c, 3, 56, 44
5, 25920, Note_off_c, 3, 56, 0
5, 25920, Note_on_c, 3, 60, 45
5, 26160, Note_off_c, 3, 60, 0
5, 26160, Note_on_c, 3, 56, 45
5, 26400, Note_off_c, 3, 56, 0
5, 26400, Note_on_c, 3, 53, 45
5, 26640, Note_off_c, 3, 53, 0
5, 26640, Note_on_c, 3, 48, 46
5, 26880, Control_c, 3, 64, 0
5, 26880, Note_off_c, 3, 48, 0
5, 26940, Control_c, 3, 64, 127
5, 27120, Note_on_c, 3, 51, 46
5, 27360, Note_off_c, 3, 51, 0
5, 27360, Note_on_c, 3, 58, 47
5, 27600, Note_off_c, 3, 58, 0
5, 27600, Note_on_c, 3, 61, 47
5, 27840, Note_off_c, 3, 61, 0
5, 27840, Note_on_c, 3, 63, 47
5, 28080, Note_off_c, 3, 63, 0
5, 28080, Note_on_c, 3, 61, 48
5, 28320, Note_off_c, 3, 61, 0
5, 28320, Note_on_c, 3, 58, 48
5, 28560, Note_off_c, 3, 58, 0
5, 28560, Note_on_c, 3, 51, 48
5, 28800, Control_c, 3, 64, 0
5, 28800, Note_off_c, 3, 51, 0
5, 28860, Control_c, 3, 64, 127
5, 29040, Note_on_c, 3, 51, 49
5, 29280, Note_off_c, 3, 51, 0
5, 29280, Note_on_c, 3, 56, 50
5, 29520, Note_off_c, 3, 56, 0
5, 29520, Note_on_c, 3, 60, 50
5, 29760, Note_off_c, 3, 60, 0
5, 29760, Note_on_c, 3, 63, 50
5, 30000, Note_off_c, 3, 63, 0
5, 30000, Note_on_c, 3, 60, 51
5, 30240, Note_off_c, 3, 60, 0
5, 30240, Note_on_c, 3, 56, 51
5, 30480, Note_off_c, 3, 56, 0
5, 30480, Note_on_c, 3, 51, 51
5, 30720, Control_c, 3, 64, 0
5, 30720, Note_off_c, 3, 51, 0
5, 30780, Control_c, 3, 64, 127
5, 30960, Note_on_c, 3, 53, 52
5, 31200, Note_off_c, 3, 53, 0
5, 31200, Note_on_c, 3, 55, 52
5, 31440, Note_off_c, 3, 55, 0
5, 31440, Note_on_c, 3, 62, 53
5, 31680, Note_off_c, 3, 62, 0
5, 31680, Note_on_c, 3, 65, 53
5, 31920, Note_off_c, 3, 65, 0
5, 31920, Note_on_c, 3, 62, 53
5, 32160, Note_off_c, 3, 62, 0
5, 32160, Note_on_c, 3, 56, 54
5, 32400, Note_off_c, 3, 56, 0
5, 32400, Note_on_c, 3, 55, 54
5, 32640, Control_c, 3, 64, 0
5, 32640, Note_off_c, 3, 55, 0
5, 32700, Control_c, 3, 64, 127
5, 32880, Note_on_c, 3, 55, 55
5, 33120, Note_off_c, 3, 55, 0
5, 33120, Note_on_c, 3, 58, 55
5, 33360, Note_off_c, 3, 58, 0
5, 33360, Note_on_c, 3, 60, 56
5, 33600, Note_off_c, 3, 60, 0
5, 33600, Note_on_c, 3, 64, 56
5, 33840, Note_off_c, 3, 64, 0
5, 33840, Note_on_c, 3, 60, 56
5, 34080, Note_off_c, 3, 60, 0
5, 34080, Note_on_c, 3, 58, 57
5, 34320, Note_off_c, 3, 58, 0
5, 34320, Note_on_c, 3, 55, 57
5, 34560, Control_c, 3, 64, 0
5, 34560, Note_off_c, 3, 55, 0
5, 34620, Control_c, 3, 64, 127
5, 34800, Note_on_c, 3, 55, 58
5, 35040, Note_off_c, 3, 55, 0
5, 35040, Note_on_c, 3, 58, 58
5, 35280, Note_off_c, 3, 58, 0
5, 35280, Note_on_c, 3, 60, 58
5, 35520, Note_off_c, 3, 60, 0
5, 35520, Note_on_c, 3, 64, 59
5, 35760, Note_off_c, 3, 64, 0
5, 35760, Note_on_c, 3, 60, 59
5, 36000, Note_off_c, 3, 60, 0
5, 36000, Note_on_c, 3, 58, 59
5, 36240, Note_off_c, 3, 58, 0
5, 36240, Note_on_c, 3, 55, 60
5, 36480, Control_c, 3, 64, 0
5, 36480, Note_off_c, 3, 55, 0
5, 36540, Control_c, 3, 64, 127
5, 36720, Note_on_c, 3, 55, 61
5, 36960, Note_off_c, 3, 55, 0
5, 36960, Note_on_c, 3, 58, 61
5, 37200, Note_off_c, 3, 58, 0
5, 37200, Note_on_c, 3, 60, 61
5, 37440, Note_off_c, 3, 60, 0
5, 37440, Note_on_c, 3, 64, 61
5, 37680, Note_off_c, 3, 64, 0
5, 37680, Note_on_c, 3, 60, 60
5, 37920, Note_off_c, 3, 60, 0
5, 37920, Note_on_c, 3, 58, 58
5, 38160, Note_off_c, 3, 58, 0
5, 38160, Note_on_c, 3, 55, 57
5, 38400, Control_c, 3, 64, 0
5, 38400, Note_off_c, 3, 55, 0
5, 38460, Control_c, 3, 64, 127
5, 38640, Note_on_c, 3, 55, 55
5, 38880, Note_off_c, 3, 55, 0
5, 38880, Note_on_c, 3, 58, 53
5, 39120, Note_off_c, 3, 58, 0
5, 39120, Note_on_c, 3, 60, 52
5, 39360, Note_off_c, 3, 60, 0
5, 39360, Note_on_c, 3, 64, 51
5, 39600, Note_off_c, 3, 64, 0
5, 39600, Note_on_c, 3, 60, 49
5, 39840, Note_off_c, 3, 60, 0
5, 39840, Note_on_c, 3, 58, 48
5, 40080, Note_off_c, 3, 58, 0
5, 40080, Note_on_c, 3, 55, 47
5, 40320, Control_c, 3, 64, 0
5, 40320, Note_off_c, 3, 55, 0
5, 40380, Control_c, 3, 64, 127
5, 40560, Note_on_c, 3, 48, 44
5, 40800, Note_off_c, 3, 48, 0
5, 40800, Note_on_c, 3, 53, 43
5, 41040, Note_off_c, 3, 53, 0
5, 41040, Note_on_c, 3, 56, 42
5, 41280, Note_off_c, 3, 56, 0
5, 41280, Note_on_c, 3, 65, 41
5, 41520, Note_off_c, 3, 65, 0
5, 41520, Note_on_c, 3, 60, 38
5, 41760, Note_off_c, 3, 60, 0
5, 41760, Note_on_c, 3, 56, 35
5, 42000, Note_off_c, 3, 56, 0
5, 42000, Note_on_c, 3, 53, 32
5, 42240, Control_c, 3, 64, 0
5, 42240, Note_off_c, 3, 53, 0
5, 42300, Control_c, 3, 64, 127
5, 42480, Note_on_c, 3, 48, 36
5, 42720, Note_off_c, 3, 48, 0
5, 42720, Note_on_c, 3, 53, 37
5, 42960, Note_off_c, 3, 53, 0
5, 42960, Note_on_c, 3, 56, 37
5, 43200, Note_off_c, 3, 56, 0
5, 43200, Note_on_c, 3, 63, 37
5, 43440, Note_off_c, 3, 63, 0
5, 43440, Note_on_c, 3, 60, 38
5, 43680, Note_off_c, 3, 60, 0
5, 43680, Note_on_c, 3, 56, 38
5, 43920, Note_off_c, 3, 56, 0
5, 43920, Note_on_c, 3, 53, 38
5, 44160, Control_c, 3, 64, 0
5, 44160, Note_off_c, 3, 53, 0
5, 44220, Control_c, 3, 64, 127
5, 44400, Note_on_c, 3, 49, 39
5, 44640, Note_off_c, 3, 49, 0
5, 44640, Note_on_c, 3, 53, 39
5, 44880, Note_off_c, 3, 53, 0
5, 44880, Note_on_c, 3, 56, 40
5, 45120, Note_off_c, 3, 56, 0
5, 45120, Note_on_c, 3, 61, 40
5, 45360, Note_off_c, 3, 61, 0
5, 45360, Note_on_c, 3, 56, 41
5, 45600, Note_off_c, 3, 56, 0
5, 45600, Note_on_c, 3, 53, 41
5, 45840, Note_off_c, 3, 53, 0
5, 45840, Note_on_c, 3, 49, 41
5, 46080, Control_c, 3, 64, 0
5, 46080, Note_off_c, 3, 49, 0
5, 46140, Control_c, 3, 64, 127
5, 46320, Note_on_c, 3, 49, 42
5, 46560, Note_off_c, 3, 49, 0
5, 46560, Note_on_c, 3, 53, 42
5, 46800, Note_off_c, 3, 53, 0
5, 46800, Note_on_c, 3, 56, 43
5, 47040, Note_off_c, 3, 56, 0
5, 47040, Note_on_c, 3, 61, 43
5, 47280, Note_off_c, 3, 61, 0
5, 47280, Note_on_c, 3, 56, 43
5, 47520, Note_off_c, 3, 56, 0
5, 47520, Note_on_c, 3, 53, 44
5, 47760, Note_off_c, 3, 53, 0
5, 47760, Note_on_c, 3, 49, 44
5, 48000, Control_c, 3, 64, 0
5, 48000, Note_off_c, 3, 49, 0
5, 48060, Control_c, 3, 64, 127
5, 48240, Note_on_c, 3, 50, 45
5, 48480, Note_off_c, 3, 50, 0
5, 48480, Note_on_c, 3, 53, 45
5, 48720, Note_off_c, 3, 53, 0
5, 48720, Note_on_c, 3, 55, 46
5, 48960, Note_off_c, 3, 55, 0
5, 48960, Note_on_c, 3, 59, 46
5, 49200, Note_off_c, 3, 59, 0
5, 49200, Note_on_c, 3, 55, 46
5, 49440, Note_off_c, 3, 55, 0
5, 49440, Note_on_c, 3, 53, 47
5, 49680, Note_off_c, 3, 53, 0
5, 49680, Note_on_c, 3, 50, 47
5, 49920, Control_c, 3, 64, 0
5, 49920, Note_off_c, 3, 50, 0
5, 49980, Control_c, 3, 64, 127
5, 50160, Note_on_c, 3, 50, 47
5, 50400, Note_off_c, 3, 50, 0
5, 50400, Note_on_c, 3, 53, 47
5, 50640, Note_off_c, 3, 53, 0
5, 50640, Note_on_c, 3, 55, 46
5, 50880, Note_off_c, 3, 55, 0
5, 50880, Note_on_c, 3, 59, 46
5, 51120, Note_off_c, 3, 59, 0
5, 51120, Note_on_c, 3, 55, 45
5, 51360, Note_off_c, 3, 55, 0
5, 51360, Note_on_c, 3, 53, 45
5, 51600, Note_off_c, 3, 53, 0
5, 51600, Note_on_c, 3, 50, 44
5, 51840, Control_c, 3, 64, 0
5, 51840, Note_off_c, 3, 50, 0
5, 51900, Control_c, 3, 64, 127
5, 52080, Note_on_c, 3, 50, 43
5, 52320, Note_off_c, 3, 50, 0
5, 52320, Note_on_c, 3, 53, 43
5, 52560, Note_off_c, 3, 53, 0
5, 52560, Note_on_c, 3, 55, 42
5, 52800, Note_off_c, 3, 55, 0
5, 52800, Note_on_c, 3, 59, 42
5, 53040, Note_off_c, 3, 59, 0
5, 53040, Note_on_c, 3, 55, 41
5, 53280, Note_off_c, 3, 55, 0
5, 53280, Note_on_c, 3, 53, 41
5, 53520, Note_off_c, 3, 53, 0
5, 53520, Note_on_c, 3, 50, 40
5, 53760, Control_c, 3, 64, 0
5, 53760, Note_off_c, 3, 50, 0
5, 53820, Control_c, 3, 64, 127
5, 54000, Note_on_c, 3, 50, 39
5, 54240, Note_off_c, 3, 50, 0
5, 54240, Note_on_c, 3, 53, 39
5, 54480, Note_off_c, 3, 53, 0
5, 54480, Note_on_c, 3, 55, 38
5, 54720, Note_off_c, 3, 55, 0
5, 54720, Note_on_c, 3, 59, 38
5, 54960, Note_off_c, 3, 59, 0
5, 54960, Note_on_c, 3, 55, 37
5, 55200, Note_off_c, 3, 55, 0
5, 55200, Note_on_c, 3, 53, 37
5, 55440, Note_off_c, 3, 53, 0
5, 55440, Note_on_c, 3, 50, 36
5, 55680, Control_c, 3, 64, 0
5, 55680, Note_off_c, 3, 50, 0
5, 55740, Control_c, 3, 64, 127
5, 55920, Note_on_c, 3, 43, 35
5, 56160, Note_off_c, 3, 43, 0
5, 56160, Note_on_c, 3, 48, 35
5, 56400, Note_off_c, 3, 48, 0
5, 56400, Note_on_c, 3, 51, 34
5, 56640, Note_off_c, 3, 51, 0
5, 56640, Note_on_c, 3, 60, 35
5, 56880, Note_off_c, 3, 60, 0
5, 56880, Note_on_c, 3, 55, 32
5, 57120, Note_off_c, 3, 55, 0
5, 57120, Note_on_c, 3, 51, 29
5, 57360, Note_off_c, 3, 51, 0
5, 57360, Note_on_c, 3, 48, 25
5, 57600, Control_c, 3, 64, 0
5, 57600, Note_off_c, 3, 48, 0
5, 57660, Control_c, 3, 64, 127
5, 57840, Note_on_c, 3, 43, 28
5, 58080, Note_off_c, 3, 43, 0
5, 58080, Note_on_c, 3, 48, 28
5, 58320, Note_off_c, 3, 48, 0
5, 58320, Note_on_c, 3, 51, 29
5, 58560, Note_off_c, 3, 51, 0
5, 58560, Note_on_c, 3, 55, 29
5, 58800, Note_off_c, 3, 55, 0
5, 58800, Note_on_c, 3, 51, 30
5, 59040, Note_off_c, 3, 51, 0
5, 59040, Note_on_c, 3, 48, 30
5, 59280, Note_off_c, 3, 48, 0
5, 59280, Note_on_c, 3, 43, 30
5, 59520, Control_c, 3, 64, 0
5, 59520, Note_off_c, 3, 43, 0
5, 59580, Control_c, 3, 64, 127
5, 59760, Note_on_c, 3, 44, 31
5, 60000, Note_off_c, 3, 44, 0
5, 60000, Note_on_c, 3, 48, 31
5, 60240, Note_off_c, 3, 48, 0
5, 60240, Note_on_c, 3, 51, 32
5, 60480, Note_off_c, 3, 51, 0
5, 60480, Note_on_c, 3, 56, 32
5, 60720, Note_off_c, 3, 56, 0
5, 60720, Note_on_c, 3, 51, 33
5, 60960, Note_off_c, 3, 51, 0
5, 60960, Note_on_c, 3, 48, 33
5, 61200, Note_off_c, 3, 48, 0
5, 61200, Note_on_c, 3, 44, 33
5, 61440, Control_c, 3, 64, 0
5, 61440, Note_off_c, 3, 44, 0
5, 61500, Control_c, 3, 64, 127
5, 61680, Note_on_c, 3, 44, 34
5, 61920, Note_off_c, 3, 44, 0
5, 61920, Note_on_c, 3, 48, 34
5, 62160, Note_off_c, 3, 48, 0
5, 62160, Note_on_c, 3, 51, 35
5, 62400, Note_off_c, 3, 51, 0
5, 62400, Note_on_c, 3, 56, 35
5, 62640, Note_off_c, 3, 56, 0
5, 62640, Note_on_c, 3, 51, 35
5, 62880, Note_off_c, 3, 51, 0
5, 62880, Note_on_c, 3, 48, 36
5, 63120, Note_off_c, 3, 48, 0
5, 63120, Note_on_c, 3, 44, 36
5, 63360, Control_c, 3, 64, 0
5, 63360, Note_off_c, 3, 44, 0
5, 63420, Control_c, 3, 64, 127
5, 63600, Note_on_c, 3, 44, 37
5, 63840, Note_off_c, 3, 44, 0
5, 63840, Note_on_c, 3, 49, 37
5, 64080, Note_off_c, 3, 49, 0
5, 64080, Note_on_c, 3, 53, 38
5, 64320, Note_off_c, 3, 53, 0
5, 64320, Note_on_c, 3, 56, 38
5, 64560, Note_off_c, 3, 56, 0
5, 64560, Note_on_c, 3, 53, 38
5, 64800, Note_off_c, 3, 53, 0
5, 64800, Note_on_c, 3, 49, 39
5, 65040, Note_off_c, 3, 49, 0
5, 65040, Note_on_c, 3, 44, 39
5, 65280, Control_c, 3, 64, 0
5, 65280, Note_off_c, 3, 44, 0
5, 65340, Control_c, 3, 64, 127
5, 65520, Note_on_c, 3, 44, 40
5, 65760, Note_off_c, 3, 44, 0
5, 65760, Note_on_c, 3, 49, 40
5, 66000, Note_off_c, 3, 49, 0
5, 66000, Note_on_c, 3, 53, 41
5, 66240, Note_off_c, 3, 53, 0
5, 66240, Note_on_c, 3, 56, 41
5, 66480, Note_off_c, 3, 56, 0
5, 66480, Note_on_c, 3, 53, 41
5, 66720, Note_off_c, 3, 53, 0
5, 66720, Note_on_c, 3, 49, 42
5, 66960, Note_off_c, 3, 49, 0
5, 66960, Note_on_c, 3, 44, 42
5, 67200, Control_c, 3, 64, 0
5, 67200, Note_off_c, 3, 44, 0
5, 67260, Control_c, 3, 64, 127
5, 67440, Note_on_c, 3, 44, 43
5, 67680, Note_off_c, 3, 44, 0
5, 67680, Note_on_c, 3, 49, 43
5, 67920, Note_off_c, 3, 49, 0
5, 67920, Note_on_c, 3, 53, 44
5, 68160, Note_off_c, 3, 53, 0
5, 68160, Note_on_c, 3, 56, 44
5, 68400, Note_off_c, 3, 56, 0
5, 68400, Note_on_c, 3, 53, 44
5, 68640, Note_off_c, 3, 53, 0
5, 68640, Note_on_c, 3, 49, 45
5, 68880, Note_off_c, 3, 49, 0
5, 68880, Note_on_c, 3, 44, 45
5, 69120, Control_c, 3, 64, 0
5, 69120, Note_off_c, 3, 44, 0
5, 69180, Control_c, 3, 64, 127
5, 69360, Note_on_c, 3, 44, 45
5, 69600, Note_off_c, 3, 44, 0
5, 69600, Note_on_c, 3, 49, 45
5, 69840, Note_off_c, 3, 49, 0
5, 69840, Note_on_c, 3, 53, 45
5, 70080, Note_off_c, 3, 53, 0
5, 70080, Note_on_c, 3, 56, 45
5, 70320, Note_off_c, 3, 56, 0
5, 70320, Note_on_c, 3, 53, 46
5, 70560, Note_off_c, 3, 53, 0
5, 70560, Note_on_c, 3, 49, 46
5, 70800, Note_off_c, 3, 49, 0
5, 70800, Note_on_c, 3, 44, 46
5, 71040, Control_c, 3, 64, 0
5, 71040, Note_off_c, 3, 44, 0
5, 71100, Control_c, 3, 64, 127
5, 71280, Note_on_c, 3, 44, 47
5, 71520, Note_off_c, 3, 44, 0
5, 71520, Note_on_c, 3, 46, 47
5, 71760, Note_off_c, 3, 46, 0
5, 71760, Note_on_c, 3, 53, 47
5, 72000, Note_off_c, 3, 53, 0
5, 72000, Note_on_c, 3, 56, 47
5, 72240, Note_off_c, 3, 56, 0
5, 72240, Note_on_c, 3, 53, 48
5, 72480, Note_off_c, 3, 53, 0
5, 72480, Note_on_c, 3, 46, 48
5, 72720, Note_off_c, 3, 46, 0
5, 72720, Note_on_c, 3, 44, 48
5, 72960, Control_c, 3, 64, 0
5, 72960, Note_off_c, 3, 44, 0
5, 73020, Control_c, 3, 64, 127
5, 73200, Note_on_c, 3, 46, 49
5, 73440, Note_off_c, 3, 46, 0
5, 73440, Note_on_c, 3, 53, 49
5, 73680, Note_off_c, 3, 53, 0
5, 73680, Note_on_c, 3, 56, 49
5, 73920, Note_off_c, 3, 56, 0
5, 73920, Note_on_c, 3, 58, 50
5, 74160, Note_off_c, 3, 58, 0
5, 74160, Note_on_c, 3, 56, 50
5, 74400, Note_off_c, 3, 56, 0
5, 74400, Note_on_c, 3, 53, 50
5, 74640, Note_off_c, 3, 53, 0
5, 74640, Note_on_c, 3, 46, 50
5, 74880, Control_c, 3, 64, 0
5, 74880, Note_off_c, 3, 46, 0
5, 74940, Control_c, 3, 64, 127
5, 75120, Note_on_c, 3, 46, 51
5, 75360, Note_off_c, 3, 46, 0
5, 75360, Note_on_c, 3, 53, 51
5, 75600, Note_off_c, 3, 53, 0
5, 75600, Note_on_c, 3, 56, 51
5, 75840, Note_off_c, 3, 56, 0
5, 75840, Note_on_c, 3, 58, 52
5, 76080, Note_off_c, 3, 58, 0
5, 76080, Note_on_c, 3, 56, 52
5, 76320, Note_off_c, 3, 56, 0
5, 76320, Note_on_c, 3, 53, 52
5, 76560, Note_off_c, 3, 53, 0
5, 76560, Note_on_c, 3, 46, 52
5, 76800, Control_c, 3, 64, 0
5, 76800, Note_off_c, 3, 46, 0
5, 76860, Control_c, 3, 64, 127
5, 77040, Note_on_c, 3, 46, 53
5, 77280, Note_off_c, 3, 46, 0
5, 77280, Note_on_c, 3, 53, 53
5, 77520, Note_off_c, 3, 53, 0
5, 77520, Note_on_c, 3, 56, 53
5, 77760, Note_off_c, 3, 56, 0
5, 77760, Note_on_c, 3, 58, 54
5, 78000, Note_off_c, 3, 58, 0
5, 78000, Note_on_c, 3, 56, 54
5, 78240, Note_off_c, 3, 56, 0
5, 78240, Note_on_c, 3, 53, 54
5, 78480, Note_off_c, 3, 53, 0
5, 78480, Note_on_c, 3, 46, 54
5, 78720, Control_c, 3, 64, 0
5, 78720, Note_off_c, 3, 46, 0
5, 78780, Control_c, 3, 64, 127
5, 78960, Note_on_c, 3, 46, 55
5, 79200, Note_off_c, 3, 46, 0
5, 79200, Note_on_c, 3, 51, 55
5, 79440, Note_off_c, 3, 51, 0
5, 79440, Note_on_c, 3, 54, 56
5, 79680, Note_off_c, 3, 54, 0
5, 79680, Note_on_c, 3, 58, 56
5, 79920, Note_off_c, 3, 58, 0
5, 79920, Note_on_c, 3, 54, 56
5, 80160, Note_off_c, 3, 54, 0
5, 80160, Note_on_c, 3, 51, 56
5, 80400, Note_off_c, 3, 51, 0
5, 80400, Note_on_c, 3, 46, 57
5, 80640, Control_c, 3, 64, 0
5, 80640, Note_off_c, 3, 46, 0
5, 80700, Control_c, 3, 64, 127
5, 80880, Note_on_c, 3, 46, 57
5, 81120, Note_off_c, 3, 46, 0
5, 81120, Note_on_c, 3, 53, 57
5, 81360, Note_off_c, 3, 53, 0
5, 81360, Note_on_c, 3, 56, 58
5, 81600, Note_off_c, 3, 56, 0
5, 81600, Note_on_c, 3, 58, 58
5, 81840, Note_off_c, 3, 58, 0
5, 81840, Note_on_c, 3, 56, 58
5, 82080, Note_off_c, 3, 56, 0
5, 82080, Note_on_c, 3, 53, 58
5, 82320, Note_off_c, 3, 53, 0
5, 82320, Note_on_c, 3, 46, 59
5, 82560, Control_c, 3, 64, 0
5, 82560, Note_off_c, 3, 46, 0
5, 82620, Control_c, 3, 64, 127
5, 82800, Note_on_c, 3, 46, 59
5, 83040, Note_off_c, 3, 46, 0
5, 83040, Note_on_c, 3, 51, 59
5, 83280, Note_off_c, 3, 51, 0
5, 83280, Note_on_c, 3, 54, 60
5, 83520, Note_off_c, 3, 54, 0
5, 83520, Note_on_c, 3, 58, 60
5, 83760, Note_off_c, 3, 58, 0
5, 83760, Note_on_c, 3, 54, 60
5, 84000, Note_off_c, 3, 54, 0
5, 84000, Note_on_c, 3, 51, 60
5, 84240, Note_off_c, 3, 51, 0
5, 84240, Note_on_c, 3, 46, 61
5, 84480, Control_c, 3, 64, 0
5, 84480, Note_off_c, 3, 46, 0
5, 84540, Control_c, 3, 64, 127
5, 84720, Note_on_c, 3, 46, 61
5, 84960, Note_off_c, 3, 46, 0
5, 84960, Note_on_c, 3, 53, 61
5, 85200, Note_off_c, 3, 53, 0
5, 85200, Note_on_c, 3, 56, 62
5, 85440, Note_off_c, 3, 56, 0
5, 85440, Note_on_c, 3, 58, 62
5, 85680, Note_off_c, 3, 58, 0
5, 85680, Note_on_c, 3, 56, 62
5, 85920, Note_off_c, 3, 56, 0
5, 85920, Note_on_c, 3, 53, 62
5, 86160, Note_off_c, 3, 53, 0
5, 86160, Note_on_c, 3, 46, 63
5, 86400, Control_c, 3, 64, 0
5, 86400, Note_off_c, 3, 46, 0
5, 86460, Control_c, 3, 64, 127
5, 86640, Note_on_c, 3, 46, 63
5, 86880, Note_off_c, 3, 46, 0
5, 86880, Note_on_c, 3, 51, 64
5, 87120, Note_off_c, 3, 51, 0
5, 87120, Note_on_c, 3, 54, 64
5, 87360, Note_off_c, 3, 54, 0
5, 87360, Note_on_c, 3, 58, 64
5, 87600, Note_off_c, 3, 58, 0
5, 87600, Note_on_c, 3, 54, 64
5, 87840, Note_off_c, 3, 54, 0
5, 87840, Note_on_c, 3, 51, 65
5, 88080, Note_off_c, 3, 51, 0
5, 88080, Note_on_c, 3, 46, 65
5, 88320, Control_c, 3, 64, 0
5, 88320, Note_off_c, 3, 46, 0
5, 88380, Control_c, 3, 64, 127
5, 88560, Note_on_c, 3, 48, 65
5, 88800, Note_off_c, 3, 48, 0
5, 88800, Note_on_c, 3, 55, 66
5, 89040, Note_off_c, 3, 55, 0
5, 89040, Note_on_c, 3, 58, 66
5, 89280, Note_off_c, 3, 58, 0
5, 89280, Note_on_c, 3, 60, 66
5, 89520, Note_off_c, 3, 60, 0
5, 89520, Note_on_c, 3, 58, 66
5, 89760, Note_off_c, 3, 58, 0
5, 89760, Note_on_c, 3, 55, 67
5, 90000, Note_off_c, 3, 55, 0
5, 90000, Note_on_c, 3, 48, 67
5, 90240, Control_c, 3, 64, 0
5, 90240, Note_off_c, 3, 48, 0
5, 90300, Control_c, 3, 64, 127
5, 90480, Note_on_c, 3, 48, 67
5, 90720, Note_off_c, 3, 48, 0
5, 90720, Note_on_c, 3, 53, 68
5, 90960, Note_off_c, 3, 53, 0
5, 90960, Note_on_c, 3, 56, 68
5, 91200, Note_off_c, 3, 56, 0
5, 91200, Note_on_c, 3, 60, 68
5, 91440, Note_off_c, 3, 60, 0
5, 91440, Note_on_c, 3, 56, 68
5, 91680, Note_off_c, 3, 56, 0
5, 91680, Note_on_c, 3, 53, 69
5, 91920, Note_off_c, 3, 53, 0
5, 91920, Note_on_c, 3, 48, 69
5, 92160, Control_c, 3, 64, 0
5, 92160, Note_off_c, 3, 48, 0
5, 92220, Control_c, 3, 64, 127
5, 92400, Note_on_c, 3, 48, 69
5, 92640, Note_off_c, 3, 48, 0
5, 92640, Note_on_c, 3, 55, 70
5, 92880, Note_off_c, 3, 55, 0
5, 92880, Note_on_c, 3, 58, 70
5, 93120, Note_off_c, 3, 58, 0
5, 93120, Note_on_c, 3, 60, 70
5, 93360, Note_off_c, 3, 60, 0
5, 93360, Note_on_c, 3, 58, 71
5, 93600, Note_off_c, 3, 58, 0
5, 93600, Note_on_c, 3, 55, 71
5, 93840, Note_off_c, 3, 55, 0
5, 93840, Note_on_c, 3, 48, 71
5, 94080, Control_c, 3, 64, 0
5, 94080, Note_off_c, 3, 48, 0
5, 94140, Control_c, 3, 64, 127
5, 94320, Note_on_c, 3, 48, 72
5, 94560, Note_off_c, 3, 48, 0
5, 94560, Note_on_c, 3, 51, 72
5, 94800, Note_off_c, 3, 51, 0
5, 94800, Note_on_c, 3, 57, 72
5, 95040, Note_off_c, 3, 57, 0
5, 95040, Note_on_c, 3, 60, 72
5, 95280, Note_off_c, 3, 60, 0
5, 95280, Note_on_c, 3, 57, 73
5, 95520, Note_off_c, 3, 57, 0
5, 95520, Note_on_c, 3, 51, 73
5, 95760, Note_off_c, 3, 51, 0
5, 95760, Note_on_c, 3, 48, 73
5, 96000, Control_c, 3, 64, 0
5, 96000, Note_off_c, 3, 48, 0
5, 96060, Control_c, 3, 64, 127
5, 96240, Note_on_c, 3, 48, 74
5, 96480, Note_off_c, 3, 48, 0
5, 96480, Note_on_c, 3, 51, 74
5, 96720, Note_off_c, 3, 51, 0
5, 96720, Note_on_c, 3, 57, 74
5, 96960, Note_off_c, 3, 57, 0
5, 96960, Note_on_c, 3, 60, 74
5, 97200, Note_off_c, 3, 60, 0
5, 97200, Note_on_c, 3, 57, 75
5, 97440, Note_off_c, 3, 57, 0
5, 97440, Note_on_c, 3, 51, 75
5, 97680, Note_off_c, 3, 51, 0
5, 97680, Note_on_c, 3, 48, 75
5, 97920, Control_c, 3, 64, 0
5, 97920, Note_off_c, 3, 48, 0
5, 97980, Control_c, 3, 64, 127
5, 98160, Note_on_c, 3, 50, 76
5, 98400, Note_off_c, 3, 50, 0
5, 98400, Note_on_c, 3, 55, 76
5, 98640, Note_off_c, 3, 55, 0
5, 98640, Note_on_c, 3, 59, 76
5, 98880, Note_off_c, 3, 59, 0
5, 98880, Note_on_c, 3, 62, 76
5, 99120, Note_off_c, 3, 62, 0
5, 99120, Note_on_c, 3, 59, 76
5, 99360, Note_off_c, 3, 59, 0
5, 99360, Note_on_c, 3, 55, 77
5, 99600, Note_off_c, 3, 55, 0
5, 99600, Note_on_c, 3, 50, 77
5, 99840, Control_c, 3, 64, 0
5, 99840, Note_off_c, 3, 50, 0
5, 99900, Control_c, 3, 64, 127
5, 100080, Note_on_c, 3, 50, 78
5, 100320, Note_off_c, 3, 50, 0
5, 100320, Note_on_c, 3, 53, 78
5, 100560, Note_off_c, 3, 53, 0
5, 100560, Note_on_c, 3, 55, 79
5, 100800, Note_off_c, 3, 55, 0
5, 100800, Note_on_c, 3, 59, 79
5, 101040, Note_off_c, 3, 59, 0
5, 101040, Note_on_c, 3, 55, 80
5, 101280, Note_off_c, 3, 55, 0
5, 101280, Note_on_c, 3, 53, 80
5, 101520, Note_off_c, 3, 53, 0
5, 101520, Note_on_c, 3, 50, 81
5, 101760, Control_c, 3, 64, 0
5, 101760, Note_off_c, 3, 50, 0
5, 101820, Control_c, 3, 64, 127
5, 102000, Note_on_c, 3, 49, 82
5, 102240, Note_off_c, 3, 49, 0
5, 102240, Note_on_c, 3, 53, 81
5, 102480, Note_off_c, 3, 53, 0
5, 102480, Note_on_c, 3, 58, 79
5, 102720, Note_off_c, 3, 58, 0
5, 102720, Note_on_c, 3, 61, 78
5, 102960, Note_off_c, 3, 61, 0
5, 102960, Note_on_c, 3, 58, 77
5, 103200, Note_off_c, 3, 58, 0
5, 103200, Note_on_c, 3, 53, 76
5, 103440, Note_off_c, 3, 53, 0
5, 103440, Note_on_c, 3, 49, 74
5, 103680, Control_c, 3, 64, 0
5, 103680, Note_off_c, 3, 49, 0
5, 103740, Control_c, 3, 64, 127
5, 103920, Note_on_c, 3, 49, 72
5, 104160, Note_off_c, 3, 49, 0
5, 104160, Note_on_c, 3, 53, 71
5, 104400, Note_off_c, 3, 53, 0
5, 104400, Note_on_c, 3, 58, 69
5, 104640, Note_off_c, 3, 58, 0
5, 104640, Note_on_c, 3, 61, 68
5, 104880, Note_off_c, 3, 61, 0
5, 104880, Note_on_c, 3, 58, 67
5, 105120, Note_off_c, 3, 58, 0
5, 105120, Note_on_c, 3, 53, 66
5, 105360, Note_off_c, 3, 53, 0
5, 105360, Note_on_c, 3, 49, 64
5, 105600, Control_c, 3, 64, 0
5, 105600, Note_off_c, 3, 49, 0
5, 105660, Control_c, 3, 64, 127
5, 105840, Note_on_c, 3, 48, 62
5, 106080, Note_off_c, 3, 48, 0
5, 106080, Note_on_c, 3, 55, 61
5, 106320, Note_off_c, 3, 55, 0
5, 106320, Note_on_c, 3, 58, 59
5, 106560, Note_off_c, 3, 58, 0
5, 106560, Note_on_c, 3, 60, 58
5, 106800, Note_off_c, 3, 60, 0
5, 106800, Note_on_c, 3, 58, 57
5, 107040, Note_off_c, 3, 58, 0
5, 107040, Note_on_c, 3, 55, 56
5, 107280, Note_off_c, 3, 55, 0
5, 107280, Note_on_c, 3, 48, 55
5, 107520, Control_c, 3, 64, 0
5, 107520, Note_off_c, 3, 48, 0
5, 107580, Control_c, 3, 64, 127
5, 107760, Note_on_c, 3, 48, 52
5, 108000, Note_off_c, 3, 48, 0
5, 108000, Note_on_c, 3, 55, 51
5, 108240, Note_off_c, 3, 55, 0
5, 108240, Note_on_c, 3, 58, 50
5, 108480, Note_off_c, 3, 58, 0
5, 108480, Note_on_c, 3, 60, 48
5, 108720, Note_off_c, 3, 60, 0
5, 108720, Note_on_c, 3, 58, 47
5, 108960, Note_off_c, 3, 58, 0
5, 108960, Note_on_c, 3, 55, 46
5, 109200, Note_off_c, 3, 55, 0
5, 109200, Note_on_c, 3, 48, 45
5, 109440, Control_c, 3, 64, 0
5, 109440, Note_off_c, 3, 48, 0
5, 109500, Control_c, 3, 64, 127
5, 109680, Note_on_c, 3, 48, 42
5, 109920, Note_off_c, 3, 48, 0
5, 109920, Note_on_c, 3, 53, 41
5, 110160, Note_off_c, 3, 53, 0
5, 110160, Note_on_c, 3, 56, 40
5, 110400, Note_off_c, 3, 56, 0
5, 110400, Note_on_c, 3, 60, 38
5, 110640, Note_off_c, 3, 60, 0
5, 110640, Note_on_c, 3, 56, 37
5, 110880, Note_off_c, 3, 56, 0
5, 110880, Note_on_c, 3, 53, 36
5, 111120, Note_off_c, 3, 53, 0
5, 111120, Note_on_c, 3, 48, 35
5, 111360, Control_c, 3, 64, 0
5, 111360, Note_off_c, 3, 48, 0
5, 111420, Control_c, 3, 64, 127
5, 111600, Note_on_c, 3, 48, 34
5, 111840, Note_off_c, 3, 48, 0
5, 111840, Note_on_c, 3, 53, 35
5, 112080, Note_off_c, 3, 53, 0
5, 112080, Note_on_c, 3, 56, 36
5, 112320, Note_off_c, 3, 56, 0
5, 112320, Note_on_c, 3, 60, 36
5, 112560, Note_off_c, 3, 60, 0
5, 112560, Note_on_c, 3, 56, 37
5, 112800, Note_off_c, 3, 56, 0
5, 112800, Note_on_c, 3, 53, 37
5, 113040, Note_off_c, 3, 53, 0
5, 113040, Note_on_c, 3, 48, 38
5, 113280, Control_c, 3, 64, 0
5, 113280, Note_off_c, 3, 48, 0
5, 113340, Control_c, 3, 64, 127
5, 113520, Note_on_c, 3, 49, 39
5, 113760, Note_off_c, 3, 49, 0
5, 113760, Note_on_c, 3, 53, 40
5, 114000, Note_off_c, 3, 53, 0
5, 114000, Note_on_c, 3, 56, 40
5, 114240, Note_off_c, 3, 56, 0
5, 114240, Note_on_c, 3, 61, 41
5, 114480, Note_off_c, 3, 61, 0
5, 114480, Note_on_c, 3, 56, 41
5, 114720, Note_off_c, 3, 56, 0
5, 114720, Note_on_c, 3, 53, 42
5, 114960, Note_off_c, 3, 53, 0
5, 114960, Note_on_c, 3, 49, 42
5, 115200, Control_c, 3, 64, 0
5, 115200, Note_off_c, 3, 49, 0
5, 115260, Control_c, 3, 64, 127
5, 115440, Note_on_c, 3, 49, 42
5, 115680, Note_off_c, 3, 49, 0
5, 115680, Note_on_c, 3, 53, 42
5, 115920, Note_off_c, 3, 53, 0
5, 115920, Note_on_c, 3, 56, 41
5, 116160, Note_off_c, 3, 56, 0
5, 116160, Note_on_c, 3, 61, 40
5, 116400, Note_off_c, 3, 61, 0
5, 116400, Note_on_c, 3, 56, 40
5, 116640, Note_off_c, 3, 56, 0
5, 116640, Note_on_c, 3, 53, 39
5, 116880, Note_off_c, 3, 53, 0
5, 116880, Note_on_c, 3, 49, 38
5, 117120, Control_c, 3, 64, 0
5, 117120, Note_off_c, 3, 49, 0
5, 117180, Control_c, 3, 64, 127
5, 117360, Note_on_c, 3, 49, 37
5, 117600, Note_off_c, 3, 49, 0
5, 117600, Note_on_c, 3, 54, 37
5, 117840, Note_off_c, 3, 54, 0
5, 117840, Note_on_c, 3, 58, 36
5, 118080, Note_off_c, 3, 58, 0
5, 118080, Note_on_c, 3, 61, 35
5, 118320, Note_off_c, 3, 61, 0
5, 118320, Note_on_c, 3, 58, 35
5, 118560, Note_off_c, 3, 58, 0
5, 118560, Note_on_c, 3, 54, 34
5, 118800, Note_off_c, 3, 54, 0
5, 118800, Note_on_c, 3, 49, 33
5, 119040, Control_c, 3, 64, 0
5, 119040, Note_off_c, 3, 49, 0
5, 119100, Control_c, 3, 64, 127
5, 119280, Note_on_c, 3, 48, 33
5, 119520, Note_off_c, 3, 48, 0
5, 119520, Note_on_c, 3, 52, 33
5, 119760, Note_off_c, 3, 52, 0
5, 119760, Note_on_c, 3, 58, 32
5, 120000, Note_off_c, 3, 58, 0
5, 120960, Control_c, 3, 64, 0
5, 121020, Control_c, 3, 64, 127
5, 122880, Control_c, 3, 64, 0
5, 126720, Control_c, 3, 64, 127
5, 132480, Control_c, 3, 10, 55
5, 132480, Control_c, 3, 91, 80
5, 132480, Control_c, 3, 93, 20
5, 132480, Control_c, 3, 1, 0
5, 132480, Pitch_bend_c, 3, 8192
5, 132480, Control_c, 3, 7, 102
5, 132480, Control_c, 3, 64, 0
5, 132480, Control_c, 3, 64, 0
5, 132480, Control_c, 3, 64, 0
5, 132480, Control_c, 3, 64, 0
5, 132480, Control_c, 3, 0, 0
5, 132480, Control_c, 3, 32, 0
5, 132480, Program_c, 3, 0
5, 132480, Control_c, 3, 64, 0
5, 136800, Control_c, 3, 64, 127
5, 137460, Control_c, 3, 64, 0
5, 138240, Control_c, 3, 64, 127
5, 139380, Control_c, 3, 64, 0
5, 139680, Control_c, 3, 64, 127
5, 140340, Control_c, 3, 64, 0
5, 141120, Control_c, 3, 64, 127
5, 142260, Control_c, 3, 64, 0
5, 142560, Control_c, 3, 64, 127
5, 143220, Control_c, 3, 64, 0
5, 143520, Control_c, 3, 64, 127
5, 143940, Control_c, 3, 64, 0
5, 144000, Control_c, 3, 64, 127
5, 145140, Control_c, 3, 64, 0
5, 145440, Control_c, 3, 64, 127
5, 146100, Control_c, 3, 64, 0
5, 146880, Control_c, 3, 64, 127
5, 148020, Control_c, 3, 64, 0
5, 148320, Control_c, 3, 64, 127
5, 149460, Control_c, 3, 64, 0
5, 149760, Control_c, 3, 64, 127
5, 150900, Control_c, 3, 64, 0
5, 151200, Control_c, 3, 64, 127
5, 151860, Control_c, 3, 64, 0
5, 152160, Control_c, 3, 64, 127
5, 152580, Control_c, 3, 64, 0
5, 152640, Control_c, 3, 64, 127
5, 153300, Control_c, 3, 64, 0
5, 154080, Control_c, 3, 64, 127
5, 155460, Control_c, 3, 64, 0
5, 155520, Control_c, 3, 64, 127
5, 156660, Control_c, 3, 64, 0
5, 157920, Control_c, 3, 64, 127
5, 158340, Control_c, 3, 64, 0
5, 158400, Control_c, 3, 64, 127
5, 159780, Control_c, 3, 64, 0
5, 159840, Control_c, 3, 64, 127
5, 161220, Control_c, 3, 64, 0
5, 161280, Control_c, 3, 64, 127
5, 162180, Control_c, 3, 64, 0
5, 162720, Control_c, 3, 64, 127
5, 164100, Control_c, 3, 64, 0
5, 164160, Control_c, 3, 64, 127
5, 165060, Control_c, 3, 64, 0
5, 165600, Control_c, 3, 64, 127
5, 166260, Control_c, 3, 64, 0
5, 167040, Control_c, 3, 64, 127
5, 167700, Control_c, 3, 64, 0
5, 180000, Control_c, 3, 64, 127
5, 180660, Control_c, 3, 64, 0
5, 181440, Control_c, 3, 64, 127
5, 182580, Control_c, 3, 64, 0
5, 182880, Control_c, 3, 64, 127
5, 183540, Control_c, 3, 64, 0
5, 184320, Control_c, 3, 64, 127
5, 185460, Control_c, 3, 64, 0
5, 185760, Control_c, 3, 64, 127
5, 186420, Control_c, 3, 64, 0
5, 186720, Control_c, 3, 64, 127
5, 187140, Control_c, 3, 64, 0
5, 187200, Control_c, 3, 64, 127
5, 188340, Control_c, 3, 64, 0
5, 188640, Control_c, 3, 64, 127
5, 189780, Control_c, 3, 64, 0
5, 190080, Control_c, 3, 64, 127
5, 190980, Control_c, 3, 64, 0
5, 191520, Control_c, 3, 64, 127
5, 192180, Control_c, 3, 64, 0
5, 192960, Control_c, 3, 64, 127
5, 194100, Control_c, 3, 64, 0
5, 194400, Control_c, 3, 64, 127
5, 195840, Control_c, 3, 64, 0
5, 200160, Control_c, 3, 64, 127
5, 201540, Control_c, 3, 64, 0
5, 201600, Control_c, 3, 64, 127
5, 202980, Control_c, 3, 64, 0
5, 203040, Control_c, 3, 64, 127
5, 204420, Control_c, 3, 64, 0
5, 204480, Control_c, 3, 64, 127
5, 205860, Control_c, 3, 64, 0
5, 205920, Control_c, 3, 64, 127
5, 206340, Control_c, 3, 64, 0
5, 206880, Control_c, 3, 64, 127
5, 207300, Control_c, 3, 64, 0
5, 207840, Control_c, 3, 64, 127
5, 208500, Control_c, 3, 64, 0
5, 211680, Control_c, 3, 64, 127
5, 213060, Control_c, 3, 64, 0
5, 213120, Control_c, 3, 64, 127
5, 214500, Control_c, 3, 64, 0
5, 214560, Control_c, 3, 64, 127
5, 215940, Control_c, 3, 64, 0
5, 216000, Control_c, 3, 64, 127
5, 217380, Control_c, 3, 64, 0
5, 217440, Control_c, 3, 64, 127
5, 217860, Control_c, 3, 64, 0
5, 218400, Control_c, 3, 64, 127
5, 218820, Control_c, 3, 64, 0
5, 219120, Control_c, 3, 64, 127
5, 219300, Control_c, 3, 64, 0
5, 219600, Control_c, 3, 64, 127
5, 219780, Control_c, 3, 64, 0
5, 220080, Control_c, 3, 64, 127
5, 220260, Control_c, 3, 64, 0
5, 220560, Control_c, 3, 64, 127
5, 220740, Control_c, 3, 64, 0
5, 221040, Control_c, 3, 64, 127
5, 221220, Control_c, 3, 64, 0
5, 221520, Control_c, 3, 64, 127
5, 221700, Control_c, 3, 64, 0
5, 222000, Control_c, 3, 64, 127
5, 222180, Control_c, 3, 64, 0
5, 222480, Control_c, 3, 64, 127
5, 222660, Control_c, 3, 64, 0
5, 222960, Control_c, 3, 64, 127
5, 223140, Control_c, 3, 64, 0
5, 223440, Control_c, 3, 64, 127
5, 223620, Control_c, 3, 64, 0
5, 224160, Control_c, 3, 64, 127
5, 228900, Control_c, 3, 64, 0
5, 228960, Control_c, 3, 64, 127
5, 233940, Control_c, 3, 64, 0
5, 234720, Control_c, 3, 64, 127
5, 237600, Control_c, 3, 64, 0
5, 240480, Control_c, 3, 0, 0
5, 240480, Control_c, 3, 32, 0
5, 240480, Program_c, 3, 0
5, 240480, Control_c, 3, 64, 0
5, 240480, Control_c, 3, 64, 0
5, 240480, Control_c, 3, 7, 102
5, 240480, Pitch_bend_c, 3, 8192
5, 240480, Control_c, 3, 1, 0
5, 240480, Control_c, 3, 93, 20
5, 240480, Control_c, 3, 91, 80
5, 240480, Control_c, 3, 10, 55
5, 241600, Note_on_c, 3, 63, 58
5, 241600, Note_on_c, 3, 68, 58
5, 241760, Note_off_c, 3, 63, 0
5, 241760, Note_off_c, 3, 68, 0
5, 241760, Note_on_c, 3, 63, 57
5, 241760, Note_on_c, 3, 68, 57
5, 241920, Note_off_c, 3, 63, 0
5, 241920, Note_off_c, 3, 68, 0
5, 241920, Note_on_c, 3, 63, 57
5, 241920, Note_on_c, 3, 68, 57
5, 242080, Note_off_c, 3, 63, 0
5, 242080, Note_off_c, 3, 68, 0
5, 242080, Note_on_c, 3, 63, 56
5, 242080, Note_on_c, 3, 61, 56
5, 242240, Note_off_c, 3, 63, 0
5, 242240, Note_off_c, 3, 61, 0
5, 242240, Note_on_c, 3, 63, 55
5, 242240, Note_on_c, 3, 61, 55
5, 242400, Note_off_c, 3, 63, 0
5, 242400, Note_off_c, 3, 61, 0
5, 242400, Note_on_c, 3, 63, 55
5, 242400, Note_on_c, 3, 61, 55
5, 242560, Note_off_c, 3, 63, 0
5, 242560, Note_off_c, 3, 61, 0
5, 242560, Note_on_c, 3, 63, 54
5, 242560, Note_on_c, 3, 60, 54
5, 242720, Note_off_c, 3, 63, 0
5, 242720, Note_off_c, 3, 60, 0
5, 242720, Note_on_c, 3, 63, 54
5, 242720, Note_on_c, 3, 60, 54
5, 242880, Note_off_c, 3, 63, 0
5, 242880, Note_off_c, 3, 60, 0
5, 242880, Note_on_c, 3, 63, 53
5, 242880, Note_on_c, 3, 60, 53
5, 243040, Note_off_c, 3, 63, 0
5, 243040, Note_off_c, 3, 60, 0
5, 243040, Note_on_c, 3, 60, 53
5, 243200, Note_off_c, 3, 60, 0
5, 243200, Note_on_c, 3, 61, 52
5, 243200, Note_on_c, 3, 58, 52
5, 243360, Note_off_c, 3, 61, 0
5, 243360, Note_off_c, 3, 58, 0
5, 243360, Note_on_c, 3, 61, 51
5, 243360, Note_on_c, 3, 58, 51
5, 243520, Note_off_c, 3, 61, 0
5, 243520, Note_off_c, 3, 58, 0
5, 243520, Note_on_c, 3, 63, 53
5, 243520, Note_on_c, 3, 61, 53
5, 243680, Note_off_c, 3, 63, 0
5, 243680, Note_off_c, 3, 61, 0
5, 243680, Note_on_c, 3, 63, 55
5, 243680, Note_on_c, 3, 61, 55
5, 243840, Note_off_c, 3, 63, 0
5, 243840, Note_off_c, 3, 61, 0
5, 243840, Note_on_c, 3, 63, 57
5, 243840, Note_on_c, 3, 60, 57
5, 244000, Note_off_c, 3, 63, 0
5, 244000, Note_off_c, 3, 60, 0
5, 244000, Note_on_c, 3, 68, 59
5, 244000, Note_on_c, 3, 63, 59
5, 244160, Note_off_c, 3, 68, 0
5, 244160, Note_off_c, 3, 63, 0
5, 244160, Note_on_c, 3, 67, 61
5, 244160, Note_on_c, 3, 63, 61
5, 244320, Note_off_c, 3, 67, 0
5, 244320, Note_off_c, 3, 63, 0
5, 244320, Note_on_c, 3, 67, 63
5, 244320, Note_on_c, 3, 63, 63
5, 244480, Note_off_c, 3, 67, 0
5, 244480, Note_off_c, 3, 63, 0
5, 244480, Note_on_c, 3, 70, 65
5, 244480, Note_on_c, 3, 63, 65
5, 244640, Note_off_c, 3, 70, 0
5, 244640, Note_off_c, 3, 63, 0
5, 244640, Note_on_c, 3, 68, 67
5, 244640, Note_on_c, 3, 63, 67
5, 244800, Note_off_c, 3, 68, 0
5, 244800, Note_off_c, 3, 63, 0
5, 244800, Note_on_c, 3, 68, 69
5, 244800, Note_on_c, 3, 66, 69
5, 244960, Note_off_c, 3, 68, 0
5, 244960, Note_off_c, 3, 66, 0
5, 244960, Note_on_c, 3, 68, 71
5, 244960, Note_on_c, 3, 66, 71
5, 245120, Note_off_c, 3, 68, 0
5, 245120, Note_off_c, 3, 66, 0
5, 245120, Note_on_c, 3, 68, 73
5, 245120, Note_on_c, 3, 66, 73
5, 245248, Note_off_c, 3, 68, 0
5, 245248, Note_off_c, 3, 66, 0
5, 245280, Note_on_c, 3, 68, 74
5, 245280, Note_on_c, 3, 66, 74
5, 245440, Note_off_c, 3, 68, 0
5, 245440, Note_off_c, 3, 66, 0
5, 245440, Note_on_c, 3, 68, 72
5, 245440, Note_on_c, 3, 65, 72
5, 245600, Note_off_c, 3, 68, 0
5, 245600, Note_off_c, 3, 65, 0
5, 245600, Note_on_c, 3, 70, 70
5, 245600, Note_on_c, 3, 65, 70
5, 245760, Note_off_c, 3, 70, 0
5, 245760, Note_off_c, 3, 65, 0
5, 245760, Note_on_c, 3, 70, 68
5, 245760, Note_on_c, 3, 66, 68
5, 245920, Note_off_c, 3, 70, 0
5, 245920, Note_off_c, 3, 66, 0
5, 245920, Note_on_c, 3, 70, 66
5, 245920, Note_on_c, 3, 66, 66
5, 246080, Note_off_c, 3, 70, 0
5, 246080, Note_off_c, 3, 66, 0
5, 246080, Note_on_c, 3, 68, 64
5, 246080, Note_on_c, 3, 66, 64
5, 246240, Note_off_c, 3, 68, 0
5, 246240, Note_off_c, 3, 66, 0
5, 246240, Note_on_c, 3, 68, 62
5, 246240, Note_on_c, 3, 66, 62
5, 246400, Note_off_c, 3, 68, 0
5, 246400, Note_off_c, 3, 66, 0
5, 246400, Note_on_c, 3, 68, 60
5, 246400, Note_on_c, 3, 66, 60
5, 246560, Note_off_c, 3, 68, 0
5, 246560, Note_off_c, 3, 66, 0
5, 246560, Note_on_c, 3, 68, 58
5, 246560, Note_on_c, 3, 65, 58
5, 246720, Note_off_c, 3, 68, 0
5, 246720, Note_off_c, 3, 65, 0
5, 246720, Note_on_c, 3, 68, 56
5, 246720, Note_on_c, 3, 65, 56
5, 246880, Note_off_c, 3, 68, 0
5, 246880, Note_off_c, 3, 65, 0
5, 246880, Note_on_c, 3, 65, 54
5, 247040, Note_off_c, 3, 65, 0
5, 247040, Note_on_c, 3, 66, 52
5, 247040, Note_on_c, 3, 63, 52
5, 247200, Note_off_c, 3, 66, 0
5, 247200, Note_off_c, 3, 63, 0
5, 247200, Note_on_c, 3, 66, 53
5, 247200, Note_on_c, 3, 63, 53
5, 247360, Note_off_c, 3, 66, 0
5, 247360, Note_off_c, 3, 63, 0
5, 247360, Note_on_c, 3, 68, 55
5, 247360, Note_on_c, 3, 66, 55
5, 247520, Note_off_c, 3, 68, 0
5, 247520, Note_off_c, 3, 66, 0
5, 247520, Note_on_c, 3, 68, 57
5, 247520, Note_on_c, 3, 65, 57
5, 247680, Note_off_c, 3, 68, 0
5, 247680, Note_off_c, 3, 65, 0
5, 247680, Note_on_c, 3, 68, 59
5, 247680, Note_on_c, 3, 65, 59
5, 247840, Note_off_c, 3, 68, 0
5, 247840, Note_off_c, 3, 65, 0
5, 247840, Note_on_c, 3, 73, 61
5, 247840, Note_on_c, 3, 68, 61
5, 247840, Note_on_c, 3, 63, 61
5, 248000, Note_off_c, 3, 73, 0
5, 248000, Note_off_c, 3, 68, 0
5, 248000, Note_off_c, 3, 63, 0
5, 248000, Note_on_c, 3, 72, 64
5, 248000, Note_on_c, 3, 68, 64
5, 248000, Note_on_c, 3, 66, 64
5, 248160, Note_off_c, 3, 72, 0
5, 248160, Note_off_c, 3, 68, 0
5, 248160, Note_off_c, 3, 66, 0
5, 248160, Note_on_c, 3, 72, 66
5, 248160, Note_on_c, 3, 68, 66
5, 248160, Note_on_c, 3, 66, 66
5, 248320, Note_off_c, 3, 72, 0
5, 248320, Note_off_c, 3, 68, 0
5, 248320, Note_off_c, 3, 66, 0
5, 248320, Note_on_c, 3, 73, 68
5, 248320, Note_on_c, 3, 68, 68
5, 248320, Note_on_c, 3, 65, 68
5, 248480, Note_off_c, 3, 73, 0
5, 248480, Note_off_c, 3, 68, 0
5, 248480, Note_off_c, 3, 65, 0
5, 248480, Note_on_c, 3, 73, 70
5, 248480, Note_on_c, 3, 68, 70
5, 248640, Note_off_c, 3, 73, 0
5, 248640, Note_off_c, 3, 68, 0
5, 248640, Note_on_c, 3, 73, 72
5, 248640, Note_on_c, 3, 68, 72
5, 248800, Note_off_c, 3, 73, 0
5, 248800, Note_off_c, 3, 68, 0
5, 248800, Note_on_c, 3, 73, 74
5, 248800, Note_on_c, 3, 68, 74
5, 248960, Note_off_c, 3, 73, 0
5, 248960, Note_off_c, 3, 68, 0
5, 248960, Note_on_c, 3, 73, 76
5, 248960, Note_on_c, 3, 68, 76
5, 249088, Note_off_c, 3, 73, 0
5, 249088, Note_off_c, 3, 68, 0
5, 249120, Note_on_c, 3, 73, 78
5, 249120, Note_on_c, 3, 68, 78
5, 249280, Note_off_c, 3, 73, 0
5, 249280, Note_off_c, 3, 68, 0
5, 249280, Note_on_c, 3, 73, 76
5, 249280, Note_on_c, 3, 67, 76
5, 249440, Note_off_c, 3, 73, 0
5, 249440, Note_off_c, 3, 67, 0
5, 249440, Note_on_c, 3, 73, 76
5, 249440, Note_on_c, 3, 67, 76
5, 249600, Note_off_c, 3, 73, 0
5, 249600, Note_off_c, 3, 67, 0
5, 249600, Note_on_c, 3, 73, 75
5, 249600, Note_on_c, 3, 67, 75
5, 249760, Note_off_c, 3, 73, 0
5, 249760, Note_off_c, 3, 67, 0
5, 249760, Note_on_c, 3, 73, 74
5, 249760, Note_on_c, 3, 67, 74
5, 249920, Note_off_c, 3, 73, 0
5, 249920, Note_off_c, 3, 67, 0
5, 249920, Note_on_c, 3, 73, 74
5, 249920, Note_on_c, 3, 67, 74
5, 250080, Note_off_c, 3, 73, 0
5, 250080, Note_off_c, 3, 67, 0
5, 250080, Note_on_c, 3, 72, 73
5, 250080, Note_on_c, 3, 67, 73
5, 250240, Note_off_c, 3, 72, 0
5, 250240, Note_off_c, 3, 67, 0
5, 250240, Note_on_c, 3, 72, 72
5, 250240, Note_on_c, 3, 68, 72
5, 250400, Note_off_c, 3, 72, 0
5, 250400, Note_off_c, 3, 68, 0
5, 250400, Note_on_c, 3, 72, 72
5, 250400, Note_on_c, 3, 68, 72
5, 250560, Note_off_c, 3, 72, 0
5, 250560, Note_off_c, 3, 68, 0
5, 250560, Note_on_c, 3, 72, 71
5, 250560, Note_on_c, 3, 68, 71
5, 250720, Note_off_c, 3, 72, 0
5, 250720, Note_off_c, 3, 68, 0
5, 250720, Note_on_c, 3, 68, 70
5, 250720, Note_on_c, 3, 63, 70
5, 250880, Note_off_c, 3, 68, 0
5, 250880, Note_off_c, 3, 63, 0
5, 250880, Note_on_c, 3, 68, 70
5, 250880, Note_on_c, 3, 63, 70
5, 251008, Note_off_c, 3, 68, 0
5, 251008, Note_off_c, 3, 63, 0
5, 251040, Note_on_c, 3, 70, 69
5, 251040, Note_on_c, 3, 65, 69
5, 251200, Note_off_c, 3, 70, 0
5, 251200, Note_off_c, 3, 65, 0
5, 251200, Note_on_c, 3, 70, 68
5, 251200, Note_on_c, 3, 64, 68
5, 251360, Note_off_c, 3, 70, 0
5, 251360, Note_off_c, 3, 64, 0
5, 251360, Note_on_c, 3, 70, 67
5, 251360, Note_on_c, 3, 64, 67
5, 251520, Note_off_c, 3, 70, 0
5, 251520, Note_off_c, 3, 64, 0
5, 251520, Note_on_c, 3, 70, 67
5, 251520, Note_on_c, 3, 64, 67
5, 251680, Note_off_c, 3, 70, 0
5, 251680, Note_off_c, 3, 64, 0
5, 251680, Note_on_c, 3, 70, 66
5, 251680, Note_on_c, 3, 64, 66
5, 251840, Note_off_c, 3, 70, 0
5, 251840, Note_off_c, 3, 64, 0
5, 251840, Note_on_c, 3, 70, 65
5, 251840, Note_on_c, 3, 64, 65
5, 252000, Note_off_c, 3, 70, 0
5, 252000, Note_off_c, 3, 64, 0
5, 252000, Note_on_c, 3, 68, 65
5, 252000, Note_on_c, 3, 64, 65
5, 252160, Note_off_c, 3, 68, 0
5, 252160, Note_off_c, 3, 64, 0
5, 252160, Note_on_c, 3, 68, 64
5, 252160, Note_on_c, 3, 65, 64
5, 252320, Note_off_c, 3, 68, 0
5, 252320, Note_off_c, 3, 65, 0
5, 252320, Note_on_c, 3, 68, 63
5, 252320, Note_on_c, 3, 65, 63
5, 252480, Note_off_c, 3, 68, 0
5, 252480, Note_off_c, 3, 65, 0
5, 252480, Note_on_c, 3, 65, 63
5, 252480, Note_on_c, 3, 60, 63
5, 252640, Note_off_c, 3, 65, 0
5, 252640, Note_off_c, 3, 60, 0
5, 252640, Note_on_c, 3, 65, 62
5, 252640, Note_on_c, 3, 60, 62
5, 252800, Note_off_c, 3, 65, 0
5, 252800, Note_off_c, 3, 60, 0
5, 252800, Note_on_c, 3, 65, 61
5, 252800, Note_on_c, 3, 60, 61
5, 252928, Note_off_c, 3, 65, 0
5, 252928, Note_off_c, 3, 60, 0
5, 252960, Note_on_c, 3, 68, 60
5, 252960, Note_on_c, 3, 63, 60
5, 253120, Note_off_c, 3, 68, 0
5, 253120, Note_off_c, 3, 63, 0
5, 253120, Note_on_c, 3, 65, 60
5, 253120, Note_on_c, 3, 61, 60
5, 253280, Note_off_c, 3, 65, 0
5, 253280, Note_off_c, 3, 61, 0
5, 253280, Note_on_c, 3, 65, 59
5, 253280, Note_on_c, 3, 61, 59
5, 253440, Note_off_c, 3, 65, 0
5, 253440, Note_off_c, 3, 61, 0
5, 253440, Note_on_c, 3, 65, 58
5, 253440, Note_on_c, 3, 61, 58
5, 253600, Note_off_c, 3, 65, 0
5, 253600, Note_off_c, 3, 61, 0
5, 253600, Note_on_c, 3, 67, 58
5, 253600, Note_on_c, 3, 63, 58
5, 253760, Note_off_c, 3, 67, 0
5, 253760, Note_off_c, 3, 63, 0
5, 253760, Note_on_c, 3, 63, 57
5, 253760, Note_on_c, 3, 67, 57
5, 253920, Note_off_c, 3, 63, 0
5, 253920, Note_off_c, 3, 67, 0
5, 253920, Note_on_c, 3, 67, 56
5, 253920, Note_on_c, 3, 63, 56
5, 254080, Note_off_c, 3, 67, 0
5, 254080, Note_off_c, 3, 63, 0
5, 254080, Note_on_c, 3, 60, 56
5, 254080, Note_on_c, 3, 63, 56
5, 254240, Note_off_c, 3, 60, 0
5, 254240, Note_off_c, 3, 63, 0
5, 254240, Note_on_c, 3, 60, 55
5, 254240, Note_on_c, 3, 63, 55
5, 254400, Note_off_c, 3, 60, 0
5, 254400, Note_off_c, 3, 63, 0
5, 254400, Note_on_c, 3, 65, 54
5, 254400, Note_on_c, 3, 61, 54
5, 254560, Note_off_c, 3, 65, 0
5, 254560, Note_off_c, 3, 61, 0
5, 254560, Note_on_c, 3, 65, 54
5, 254560, Note_on_c, 3, 61, 54
5, 254720, Note_off_c, 3, 65, 0
5, 254720, Note_off_c, 3, 61, 0
5, 254720, Note_on_c, 3, 65, 53
5, 254720, Note_on_c, 3, 61, 53
5, 254880, Note_off_c, 3, 65, 0
5, 254880, Note_off_c, 3, 61, 0
5, 254880, Note_on_c, 3, 65, 52
5, 254880, Note_on_c, 3, 61, 52
5, 255040, Note_off_c, 3, 65, 0
5, 255040, Note_off_c, 3, 61, 0
5, 255040, Note_on_c, 3, 65, 51
5, 255040, Note_on_c, 3, 61, 51
5, 255200, Note_off_c, 3, 65, 0
5, 255200, Note_off_c, 3, 61, 0
5, 255200, Note_on_c, 3, 61, 51
5, 255200, Note_on_c, 3, 65, 51
5, 255360, Note_off_c, 3, 61, 0
5, 255360, Note_off_c, 3, 65, 0
5, 255360, Note_on_c, 3, 65, 50
5, 255360, Note_on_c, 3, 61, 50
5, 255520, Note_off_c, 3, 65, 0
5, 255520, Note_off_c, 3, 61, 0
5, 255520, Note_on_c, 3, 63, 49
5, 255520, Note_on_c, 3, 67, 49
5, 255680, Note_off_c, 3, 63, 0
5, 255680, Note_off_c, 3, 67, 0
5, 255680, Note_on_c, 3, 67, 49
5, 255680, Note_on_c, 3, 63, 49
5, 255840, Note_off_c, 3, 67, 0
5, 255840, Note_off_c, 3, 63, 0
5, 255840, Note_on_c, 3, 67, 48
5, 255840, Note_on_c, 3, 63, 48
5, 256000, Note_off_c, 3, 67, 0
5, 256000, Note_off_c, 3, 63, 0
5, 256000, Note_on_c, 3, 60, 47
5, 256160, Note_off_c, 3, 60, 0
5, 256160, Note_on_c, 3, 56, 47
5, 256320, Note_off_c, 3, 56, 0
5, 256320, Note_on_c, 3, 56, 46
5, 256480, Note_off_c, 3, 56, 0
5, 256480, Note_on_c, 3, 56, 45
5, 256640, Note_off_c, 3, 56, 0
5, 256640, Note_on_c, 3, 56, 45
5, 256768, Note_off_c, 3, 56, 0
5, 256960, Note_on_c, 3, 64, 48
5, 257120, Note_off_c, 3, 64, 0
5, 257120, Note_on_c, 3, 64, 50
5, 257280, Note_off_c, 3, 64, 0
5, 257280, Note_on_c, 3, 64, 51
5, 257440, Note_off_c, 3, 64, 0
5, 257440, Note_on_c, 3, 64, 53
5, 257600, Note_off_c, 3, 64, 0
5, 257600, Note_on_c, 3, 63, 54
5, 257760, Note_off_c, 3, 63, 0
5, 257760, Note_on_c, 3, 64, 56
5, 257920, Note_off_c, 3, 64, 0
5, 257920, Note_on_c, 3, 68, 57
5, 257920, Note_on_c, 3, 64, 57
5, 258080, Note_off_c, 3, 68, 0
5, 258080, Note_off_c, 3, 64, 0
5, 258080, Note_on_c, 3, 68, 59
5, 258080, Note_on_c, 3, 64, 59
5, 258240, Note_off_c, 3, 68, 0
5, 258240, Note_off_c, 3, 64, 0
5, 258240, Note_on_c, 3, 68, 60
5, 258240, Note_on_c, 3, 64, 60
5, 258400, Note_off_c, 3, 68, 0
5, 258400, Note_off_c, 3, 64, 0
5, 258400, Note_on_c, 3, 68, 62
5, 258400, Note_on_c, 3, 64, 62
5, 258560, Note_off_c, 3, 68, 0
5, 258560, Note_off_c, 3, 64, 0
5, 258560, Note_on_c, 3, 68, 63
5, 258560, Note_on_c, 3, 64, 63
5, 258720, Note_off_c, 3, 68, 0
5, 258720, Note_off_c, 3, 64, 0
5, 258720, Note_on_c, 3, 64, 65
5, 258720, Note_on_c, 3, 66, 65
5, 258880, Note_off_c, 3, 64, 0
5, 258880, Note_off_c, 3, 66, 0
5, 258880, Note_on_c, 3, 66, 60
5, 258880, Note_on_c, 3, 64, 60
5, 259040, Note_off_c, 3, 66, 0
5, 259040, Note_off_c, 3, 64, 0
5, 259040, Note_on_c, 3, 64, 59
5, 259040, Note_on_c, 3, 66, 59
5, 259200, Note_off_c, 3, 64, 0
5, 259200, Note_off_c, 3, 66, 0
5, 259200, Note_on_c, 3, 66, 58
5, 259200, Note_on_c, 3, 64, 58
5, 259360, Note_off_c, 3, 66, 0
5, 259360, Note_off_c, 3, 64, 0
5, 259360, Note_on_c, 3, 66, 57
5, 259360, Note_on_c, 3, 64, 57
5, 259520, Note_off_c, 3, 66, 0
5, 259520, Note_off_c, 3, 64, 0
5, 259520, Note_on_c, 3, 66, 56
5, 259520, Note_on_c, 3, 64, 56
5, 259680, Note_off_c, 3, 66, 0
5, 259680, Note_off_c, 3, 64, 0
5, 259680, Note_on_c, 3, 66, 56
5, 259680, Note_on_c, 3, 64, 56
5, 259840, Note_off_c, 3, 66, 0
5, 259840, Note_off_c, 3, 64, 0
5, 259840, Note_on_c, 3, 66, 55
5, 259840, Note_on_c, 3, 63, 55
5, 260000, Note_off_c, 3, 66, 0
5, 260000, Note_off_c, 3, 63, 0
5, 260000, Note_on_c, 3, 66, 54
5, 260000, Note_on_c, 3, 63, 54
5, 260160, Note_off_c, 3, 66, 0
5, 260160, Note_off_c, 3, 63, 0
5, 260160, Note_on_c, 3, 66, 53
5, 260160, Note_on_c, 3, 61, 53
5, 260320, Note_off_c, 3, 66, 0
5, 260320, Note_off_c, 3, 61, 0
5, 260320, Note_on_c, 3, 66, 52
5, 260320, Note_on_c, 3, 63, 52
5, 260480, Note_off_c, 3, 66, 0
5, 260480, Note_off_c, 3, 63, 0
5, 260480, Note_on_c, 3, 66, 51
5, 260480, Note_on_c, 3, 63, 51
5, 260608, Note_off_c, 3, 66, 0
5, 260608, Note_off_c, 3, 63, 0
5, 260640, Note_on_c, 3, 64, 50
5, 260800, Note_off_c, 3, 64, 0
5, 260800, Note_on_c, 3, 64, 52
5, 260960, Note_off_c, 3, 64, 0
5, 260960, Note_on_c, 3, 64, 54
5, 261120, Note_off_c, 3, 64, 0
5, 261120, Note_on_c, 3, 64, 56
5, 261280, Note_off_c, 3, 64, 0
5, 261280, Note_on_c, 3, 64, 58
5, 261440, Note_off_c, 3, 64, 0
5, 261440, Note_on_c, 3, 65, 60
5, 261600, Note_off_c, 3, 65, 0
5, 261760, Note_on_c, 3, 64, 63
5, 261760, Note_on_c, 3, 60, 63
5, 261920, Note_off_c, 3, 64, 0
5, 261920, Note_off_c, 3, 60, 0
5, 261920, Note_on_c, 3, 64, 65
5, 261920, Note_on_c, 3, 60, 65
5, 262080, Note_off_c, 3, 64, 0
5, 262080, Note_off_c, 3, 60, 0
5, 262080, Note_on_c, 3, 64, 67
5, 262080, Note_on_c, 3, 60, 67
5, 262240, Note_off_c, 3, 64, 0
5, 262240, Note_off_c, 3, 60, 0
5, 262240, Note_on_c, 3, 64, 69
5, 262240, Note_on_c, 3, 60, 69
5, 262400, Note_off_c, 3, 64, 0
5, 262400, Note_off_c, 3, 60, 0
5, 262400, Note_on_c, 3, 64, 71
5, 262400, Note_on_c, 3, 60, 71
5, 262560, Note_off_c, 3, 64, 0
5, 262560, Note_off_c, 3, 60, 0
5, 262560, Note_on_c, 3, 65, 73
5, 262560, Note_on_c, 3, 60, 73
5, 262720, Note_off_c, 3, 65, 0
5, 262720, Note_off_c, 3, 60, 0
5, 262720, Note_on_c, 3, 65, 70
5, 262720, Note_on_c, 3, 60, 70
5, 262880, Note_off_c, 3, 65, 0
5, 262880, Note_off_c, 3, 60, 0
5, 262880, Note_on_c, 3, 65, 69
5, 262880, Note_on_c, 3, 60, 69
5, 263040, Note_off_c, 3, 65, 0
5, 263040, Note_off_c, 3, 60, 0
5, 263040, Note_on_c, 3, 65, 68
5, 263040, Note_on_c, 3, 60, 68
5, 263200, Note_off_c, 3, 65, 0
5, 263200, Note_off_c, 3, 60, 0
5, 263200, Note_on_c, 3, 65, 66
5, 263200, Note_on_c, 3, 60, 66
5, 263360, Note_off_c, 3, 65, 0
5, 263360, Note_off_c, 3, 60, 0
5, 263360, Note_on_c, 3, 65, 65
5, 263360, Note_on_c, 3, 60, 65
5, 263520, Note_off_c, 3, 65, 0
5, 263520, Note_off_c, 3, 60, 0
5, 263520, Note_on_c, 3, 65, 63
5, 263520, Note_on_c, 3, 60, 63
5, 263680, Note_off_c, 3, 65, 0
5, 263680, Note_off_c, 3, 60, 0
5, 263680, Note_on_c, 3, 65, 62
5, 263680, Note_on_c, 3, 59, 62
5, 263840, Note_off_c, 3, 65, 0
5, 263840, Note_off_c, 3, 59, 0
5, 263840, Note_on_c, 3, 65, 61
5, 263840, Note_on_c, 3, 59, 61
5, 264000, Note_off_c, 3, 65, 0
5, 264000, Note_off_c, 3, 59, 0
5, 264000, Note_on_c, 3, 64, 59
5, 264000, Note_on_c, 3, 59, 59
5, 264160, Note_off_c, 3, 64, 0
5, 264160, Note_off_c, 3, 59, 0
5, 264160, Note_on_c, 3, 59, 58
5, 264160, Note_on_c, 3, 62, 58
5, 264320, Note_off_c, 3, 59, 0
5, 264320, Note_off_c, 3, 62, 0
5, 264320, Note_on_c, 3, 59, 56
5, 264320, Note_on_c, 3, 62, 56
5, 264448, Note_off_c, 3, 59, 0
5, 264448, Note_off_c, 3, 62, 0
5, 264640, Note_on_c, 3, 72, 62
5, 264640, Note_on_c, 3, 68, 62
5, 264800, Note_off_c, 3, 72, 0
5, 264800, Note_off_c, 3, 68, 0
5, 264800, Note_on_c, 3, 72, 63
5, 264800, Note_on_c, 3, 68, 63
5, 264960, Note_off_c, 3, 72, 0
5, 264960, Note_off_c, 3, 68, 0
5, 264960, Note_on_c, 3, 72, 65
5, 264960, Note_on_c, 3, 68, 65
5, 265120, Note_off_c, 3, 72, 0
5, 265120, Note_off_c, 3, 68, 0
5, 265600, Note_on_c, 3, 69, 70
5, 265600, Note_on_c, 3, 73, 70
5, 265760, Note_off_c, 3, 69, 0
5, 265760, Note_off_c, 3, 73, 0
5, 265760, Note_on_c, 3, 69, 72
5, 265760, Note_on_c, 3, 73, 72
5, 265920, Note_off_c, 3, 69, 0
5, 265920, Note_off_c, 3, 73, 0
5, 265920, Note_on_c, 3, 69, 73
5, 265920, Note_on_c, 3, 73, 73
5, 266080, Note_off_c, 3, 69, 0
5, 266080, Note_off_c, 3, 73, 0
5, 266560, Note_on_c, 3, 70, 79
5, 266560, Note_on_c, 3, 74, 79
5, 266720, Note_off_c, 3, 70, 0
5, 266720, Note_off_c, 3, 74, 0
5, 266720, Note_on_c, 3, 70, 80
5, 266720, Note_on_c, 3, 74, 80
5, 266880, Note_off_c, 3, 70, 0
5, 266880, Note_off_c, 3, 74, 0
5, 266880, Note_on_c, 3, 70, 82
5, 266880, Note_on_c, 3, 74, 82
5, 267040, Note_off_c, 3, 70, 0
5, 267040, Note_off_c, 3, 74, 0
5, 267520, Note_on_c, 3, 71, 87
5, 267520, Note_on_c, 3, 75, 87
5, 267680, Note_off_c, 3, 71, 0
5, 267680, Note_off_c, 3, 75, 0
5, 267680, Note_on_c, 3, 71, 89
5, 267680, Note_on_c, 3, 75, 89
5, 267840, Note_off_c, 3, 71, 0
5, 267840, Note_off_c, 3, 75, 0
5, 267840, Note_on_c, 3, 71, 90
5, 267840, Note_on_c, 3, 75, 90
5, 268000, Note_off_c, 3, 71, 0
5, 268000, Note_off_c, 3, 75, 0
5, 268480, Note_on_c, 3, 67, 96
5, 268480, Note_on_c, 3, 63, 96
5, 268640, Note_off_c, 3, 67, 0
5, 268640, Note_off_c, 3, 63, 0
5, 268640, Note_on_c, 3, 67, 95
5, 268640, Note_on_c, 3, 63, 95
5, 268800, Note_off_c, 3, 67, 0
5, 268800, Note_off_c, 3, 63, 0
5, 268800, Note_on_c, 3, 66, 93
5, 268800, Note_on_c, 3, 63, 93
5, 268960, Note_off_c, 3, 66, 0
5, 268960, Note_off_c, 3, 63, 0
5, 268960, Note_on_c, 3, 66, 92
5, 268960, Note_on_c, 3, 63, 92
5, 269120, Note_off_c, 3, 66, 0
5, 269120, Note_off_c, 3, 63, 0
5, 269120, Note_on_c, 3, 66, 91
5, 269120, Note_on_c, 3, 63, 91
5, 269280, Note_off_c, 3, 66, 0
5, 269280, Note_off_c, 3, 63, 0
5, 269280, Note_on_c, 3, 65, 90
5, 269280, Note_on_c, 3, 63, 90
5, 269440, Note_off_c, 3, 65, 0
5, 269440, Note_off_c, 3, 63, 0
5, 269440, Note_on_c, 3, 65, 89
5, 269440, Note_on_c, 3, 62, 89
5, 269600, Note_off_c, 3, 65, 0
5, 269600, Note_off_c, 3, 62, 0
5, 269600, Note_on_c, 3, 65, 88
5, 269600, Note_on_c, 3, 62, 88
5, 269760, Note_off_c, 3, 65, 0
5, 269760, Note_off_c, 3, 62, 0
5, 269760, Note_on_c, 3, 65, 87
5, 269760, Note_on_c, 3, 62, 87
5, 269920, Note_off_c, 3, 65, 0
5, 269920, Note_off_c, 3, 62, 0
5, 269920, Note_on_c, 3, 65, 85
5, 269920, Note_on_c, 3, 62, 85
5, 270080, Note_off_c, 3, 65, 0
5, 270080, Note_off_c, 3, 62, 0
5, 270080, Note_on_c, 3, 65, 84
5, 270080, Note_on_c, 3, 62, 84
5, 270240, Note_off_c, 3, 65, 0
5, 270240, Note_off_c, 3, 62, 0
5, 270240, Note_on_c, 3, 62, 83
5, 270240, Note_on_c, 3, 64, 83
5, 270400, Note_off_c, 3, 62, 0
5, 270400, Note_off_c, 3, 64, 0
5, 270400, Note_on_c, 3, 69, 82
5, 270400, Note_on_c, 3, 64, 82
5, 270400, Note_on_c, 3, 60, 82
5, 270560, Note_off_c, 3, 69, 0
5, 270560, Note_off_c, 3, 64, 0
5, 270560, Note_off_c, 3, 60, 0
5, 270560, Note_on_c, 3, 69, 81
5, 270560, Note_on_c, 3, 64, 81
5, 270720, Note_off_c, 3, 69, 0
5, 270720, Note_off_c, 3, 64, 0
5, 270720, Note_on_c, 3, 64, 80
5, 270880, Note_off_c, 3, 64, 0
5, 270880, Note_on_c, 3, 64, 78
5, 270880, Note_on_c, 3, 62, 78
5, 271040, Note_off_c, 3, 64, 0
5, 271040, Note_off_c, 3, 62, 0
5, 271040, Note_on_c, 3, 64, 77
5, 271040, Note_on_c, 3, 62, 77
5, 271200, Note_off_c, 3, 64, 0
5, 271200, Note_off_c, 3, 62, 0
5, 271200, Note_on_c, 3, 62, 79
5, 271200, Note_on_c, 3, 64, 79
5, 271360, Note_off_c, 3, 62, 0
5, 271360, Note_off_c, 3, 64, 0
5, 271360, Note_on_c, 3, 64, 84
5, 271360, Note_on_c, 3, 60, 84
5, 271520, Note_off_c, 3, 64, 0
5, 271520, Note_off_c, 3, 60, 0
5, 271520, Note_on_c, 3, 60, 89
5, 271520, Note_on_c, 3, 64, 89
5, 271680, Note_off_c, 3, 60, 0
5, 271680, Note_off_c, 3, 64, 0
5, 271680, Note_on_c, 3, 69, 94
5, 271680, Note_on_c, 3, 64, 94
5, 271840, Note_off_c, 3, 69, 0
5, 271840, Note_off_c, 3, 64, 0
5, 271840, Note_on_c, 3, 64, 99
5, 271840, Note_on_c, 3, 69, 99
5, 272000, Note_off_c, 3, 64, 0
5, 272000, Note_off_c, 3, 69, 0
5, 272000, Note_on_c, 3, 64, 104
5, 272000, Note_on_c, 3, 69, 104
5, 272128, Note_off_c, 3, 64, 0
5, 272128, Note_off_c, 3, 69, 0
5, 272160, Note_on_c, 3, 72, 108
5, 272160, Note_on_c, 3, 64, 108
5, 272160, Note_on_c, 3, 68, 108
5, 272320, Note_off_c, 3, 72, 0
5, 272320, Note_off_c, 3, 64, 0
5, 272320, Note_off_c, 3, 68, 0
5, 272320, Note_on_c, 3, 72, 106
5, 272320, Note_on_c, 3, 68, 106
5, 272320, Note_on_c, 3, 65, 106
5, 272480, Note_off_c, 3, 72, 0
5, 272480, Note_off_c, 3, 68, 0
5, 272480, Note_off_c, 3, 65, 0
5, 272480, Note_on_c, 3, 72, 104
5, 272480, Note_on_c, 3, 65, 104
5, 272480, Note_on_c, 3, 68, 104
5, 272640, Note_off_c, 3, 72, 0
5, 272640, Note_off_c, 3, 65, 0
5, 272640, Note_off_c, 3, 68, 0
5, 272640, Note_on_c, 3, 72, 102
5, 272640, Note_on_c, 3, 68, 102
5, 272640, Note_on_c, 3, 65, 102
5, 272800, Note_off_c, 3, 72, 0
5, 272800, Note_off_c, 3, 68, 0
5, 272800, Note_off_c, 3, 65, 0
5, 272800, Note_on_c, 3, 65, 100
5, 272800, Note_on_c, 3, 68, 100
5, 272960, Note_off_c, 3, 65, 0
5, 272960, Note_off_c, 3, 68, 0
5, 272960, Note_on_c, 3, 65, 98
5, 272960, Note_on_c, 3, 68, 98
5, 273120, Note_off_c, 3, 65, 0
5, 273120, Note_off_c, 3, 68, 0
5, 273120, Note_on_c, 3, 65, 96
5, 273120, Note_on_c, 3, 67, 96
5, 273280, Note_off_c, 3, 65, 0
5, 273280, Note_off_c, 3, 67, 0
5, 273280, Note_on_c, 3, 67, 93
5, 273280, Note_on_c, 3, 63, 93
5, 273440, Note_off_c, 3, 67, 0
5, 273440, Note_off_c, 3, 63, 0
5, 273440, Note_on_c, 3, 67, 91
5, 273440, Note_on_c, 3, 63, 91
5, 273600, Note_off_c, 3, 67, 0
5, 273600, Note_off_c, 3, 63, 0
5, 273600, Note_on_c, 3, 66, 89
5, 273600, Note_on_c, 3, 63, 89
5, 273760, Note_off_c, 3, 66, 0
5, 273760, Note_off_c, 3, 63, 0
5, 273760, Note_on_c, 3, 66, 87
5, 273760, Note_on_c, 3, 63, 87
5, 273920, Note_off_c, 3, 66, 0
5, 273920, Note_off_c, 3, 63, 0
5, 273920, Note_on_c, 3, 63, 85
5, 273920, Note_on_c, 3, 66, 85
5, 274080, Note_off_c, 3, 63, 0
5, 274080, Note_off_c, 3, 66, 0
5, 274080, Note_on_c, 3, 65, 83
5, 274080, Note_on_c, 3, 63, 83
5, 274240, Note_off_c, 3, 65, 0
5, 274240, Note_off_c, 3, 63, 0
5, 274240, Note_on_c, 3, 65, 81
5, 274240, Note_on_c, 3, 61, 81
5, 274400, Note_off_c, 3, 65, 0
5, 274400, Note_off_c, 3, 61, 0
5, 274400, Note_on_c, 3, 65, 79
5, 274560, Note_off_c, 3, 65, 0
5, 274560, Note_on_c, 3, 65, 77
5, 274720, Note_off_c, 3, 65, 0
5, 274720, Note_on_c, 3, 65, 75
5, 274720, Note_on_c, 3, 63, 75
5, 274880, Note_off_c, 3, 65, 0
5, 274880, Note_off_c, 3, 63, 0
5, 274880, Note_on_c, 3, 65, 73
5, 274880, Note_on_c, 3, 63, 73
5, 275040, Note_off_c, 3, 65, 0
5, 275040, Note_off_c, 3, 63, 0
5, 275040, Note_on_c, 3, 65, 71
5, 275040, Note_on_c, 3, 63, 71
5, 275200, Note_off_c, 3, 65, 0
5, 275200, Note_off_c, 3, 63, 0
5, 275200, Note_on_c, 3, 65, 69
5, 275200, Note_on_c, 3, 61, 69
5, 275360, Note_off_c, 3, 65, 0
5, 275360, Note_off_c, 3, 61, 0
5, 275360, Note_on_c, 3, 65, 66
5, 275360, Note_on_c, 3, 61, 66
5, 275520, Note_off_c, 3, 65, 0
5, 275520, Note_off_c, 3, 61, 0
5, 275520, Note_on_c, 3, 65, 64
5, 275520, Note_on_c, 3, 61, 64
5, 275680, Note_off_c, 3, 65, 0
5, 275680, Note_off_c, 3, 61, 0
5, 275680, Note_on_c, 3, 61, 62
5, 275680, Note_on_c, 3, 65, 62
5, 275840, Note_off_c, 3, 61, 0
5, 275840, Note_off_c, 3, 65, 0
5, 275840, Note_on_c, 3, 70, 60
5, 275840, Note_on_c, 3, 65, 60
5, 275968, Note_off_c, 3, 70, 0
5, 275968, Note_off_c, 3, 65, 0
5, 276000, Note_on_c, 3, 70, 58
5, 276000, Note_on_c, 3, 64, 58
5, 276160, Note_off_c, 3, 70, 0
5, 276160, Note_off_c, 3, 64, 0
5, 276160, Note_on_c, 3, 70, 59
5, 276160, Note_on_c, 3, 64, 59
5, 276320, Note_off_c, 3, 70, 0
5, 276320, Note_off_c, 3, 64, 0
5, 276320, Note_on_c, 3, 70, 61
5, 276320, Note_on_c, 3, 64, 61
5, 276480, Note_off_c, 3, 70, 0
5, 276480, Note_off_c, 3, 64, 0
5, 276480, Note_on_c, 3, 70, 63
5, 276480, Note_on_c, 3, 64, 63
5, 276640, Note_off_c, 3, 70, 0
5, 276640, Note_off_c, 3, 64, 0
5, 276640, Note_on_c, 3, 70, 65
5, 276640, Note_on_c, 3, 64, 65
5, 276800, Note_off_c, 3, 70, 0
5, 276800, Note_off_c, 3, 64, 0
5, 276800, Note_on_c, 3, 70, 67
5, 276800, Note_on_c, 3, 64, 67
5, 276960, Note_off_c, 3, 70, 0
5, 276960, Note_off_c, 3, 64, 0
5, 276960, Note_on_c, 3, 64, 69
5, 276960, Note_on_c, 3, 68, 69
5, 277120, Note_off_c, 3, 64, 0
5, 277120, Note_off_c, 3, 68, 0
5, 277120, Note_on_c, 3, 65, 71
5, 277120, Note_on_c, 3, 68, 71
5, 277280, Note_off_c, 3, 65, 0
5, 277280, Note_off_c, 3, 68, 0
5, 277280, Note_on_c, 3, 65, 73
5, 277280, Note_on_c, 3, 68, 73
5, 277440, Note_off_c, 3, 65, 0
5, 277440, Note_off_c, 3, 68, 0
5, 277440, Note_on_c, 3, 65, 75
5, 277440, Note_on_c, 3, 68, 75
5, 277600, Note_off_c, 3, 65, 0
5, 277600, Note_off_c, 3, 68, 0
5, 277600, Note_on_c, 3, 65, 77
5, 277600, Note_on_c, 3, 68, 77
5, 277760, Note_off_c, 3, 65, 0
5, 277760, Note_off_c, 3, 68, 0
5, 277760, Note_on_c, 3, 65, 79
5, 277760, Note_on_c, 3, 68, 79
5, 277920, Note_off_c, 3, 65, 0
5, 277920, Note_off_c, 3, 68, 0
5, 277920, Note_on_c, 3, 65, 81
5, 277920, Note_on_c, 3, 68, 81
5, 278080, Note_off_c, 3, 65, 0
5, 278080, Note_off_c, 3, 68, 0
5, 278080, Note_on_c, 3, 73, 78
5, 278080, Note_on_c, 3, 68, 78
5, 278240, Note_off_c, 3, 73, 0
5, 278240, Note_off_c, 3, 68, 0
5, 278240, Note_on_c, 3, 73, 75
5, 278240, Note_on_c, 3, 68, 75
5, 278400, Note_off_c, 3, 73, 0
5, 278400, Note_off_c, 3, 68, 0
5, 278400, Note_on_c, 3, 73, 73
5, 278400, Note_on_c, 3, 68, 73
5, 278560, Note_off_c, 3, 73, 0
5, 278560, Note_off_c, 3, 68, 0
5, 278560, Note_on_c, 3, 72, 70
5, 278560, Note_on_c, 3, 67, 70
5, 278720, Note_off_c, 3, 72, 0
5, 278720, Note_off_c, 3, 67, 0
5, 278720, Note_on_c, 3, 72, 68
5, 278720, Note_on_c, 3, 67, 68
5, 278880, Note_off_c, 3, 72, 0
5, 278880, Note_off_c, 3, 67, 0
5, 278880, Note_on_c, 3, 72, 66
5, 278880, Note_on_c, 3, 67, 66
5, 279040, Note_off_c, 3, 72, 0
5, 279040, Note_off_c, 3, 67, 0
5, 279040, Note_on_c, 3, 67, 62
5, 279040, Note_on_c, 3, 64, 62
5, 279200, Note_off_c, 3, 67, 0
5, 279200, Note_off_c, 3, 64, 0
5, 279200, Note_on_c, 3, 67, 58
5, 279200, Note_on_c, 3, 64, 58
5, 279360, Note_off_c, 3, 67, 0
5, 279360, Note_off_c, 3, 64, 0
5, 279360, Note_on_c, 3, 67, 54
5, 279360, Note_on_c, 3, 63, 54
5, 279520, Note_off_c, 3, 67, 0
5, 279520, Note_off_c, 3, 63, 0
5, 279520, Note_on_c, 3, 67, 50
5, 279520, Note_on_c, 3, 63, 50
5, 279680, Note_off_c, 3, 67, 0
5, 279680, Note_off_c, 3, 63, 0
5, 279680, Note_on_c, 3, 67, 46
5, 279680, Note_on_c, 3, 63, 46
5, 279808, Note_off_c, 3, 67, 0
5, 279808, Note_off_c, 3, 63, 0
5, 279840, Note_on_c, 3, 63, 57
5, 279840, Note_on_c, 3, 68, 57
5, 280000, Note_off_c, 3, 63, 0
5, 280000, Note_off_c, 3, 68, 0
5, 280000, Note_on_c, 3, 68, 56
5, 280000, Note_on_c, 3, 63, 56
5, 280160, Note_off_c, 3, 68, 0
5, 280160, Note_off_c, 3, 63, 0
5, 280160, Note_on_c, 3, 68, 56
5, 280160, Note_on_c, 3, 63, 56
5, 280320, Note_off_c, 3, 68, 0
5, 280320, Note_off_c, 3, 63, 0
5, 280320, Note_on_c, 3, 68, 55
5, 280320, Note_on_c, 3, 63, 55
5, 280480, Note_off_c, 3, 68, 0
5, 280480, Note_off_c, 3, 63, 0
5, 280480, Note_on_c, 3, 63, 54
5, 280480, Note_on_c, 3, 61, 54
5, 280640, Note_off_c, 3, 63, 0
5, 280640, Note_off_c, 3, 61, 0
5, 280640, Note_on_c, 3, 63, 53
5, 280640, Note_on_c, 3, 61, 53
5, 280800, Note_off_c, 3, 63, 0
5, 280800, Note_off_c, 3, 61, 0
5, 280800, Note_on_c, 3, 63, 53
5, 280800, Note_on_c, 3, 61, 53
5, 280960, Note_off_c, 3, 63, 0
5, 280960, Note_off_c, 3, 61, 0
5, 280960, Note_on_c, 3, 63, 52
5, 280960, Note_on_c, 3, 60, 52
5, 281120, Note_off_c, 3, 63, 0
5, 281120, Note_off_c, 3, 60, 0
5, 281120, Note_on_c, 3, 63, 51
5, 281120, Note_on_c, 3, 60, 51
5, 281280, Note_off_c, 3, 63, 0
5, 281280, Note_off_c, 3, 60, 0
5, 281280, Note_on_c, 3, 63, 50
5, 281280, Note_on_c, 3, 60, 50
5, 281440, Note_off_c, 3, 63, 0
5, 281440, Note_off_c, 3, 60, 0
5, 281440, Note_on_c, 3, 60, 50
5, 281600, Note_off_c, 3, 60, 0
5, 281600, Note_on_c, 3, 58, 49
5, 281600, Note_on_c, 3, 61, 49
5, 281760, Note_off_c, 3, 58, 0
5, 281760, Note_off_c, 3, 61, 0
5, 281760, Note_on_c, 3, 58, 50
5, 281760, Note_on_c, 3, 61, 50
5, 281920, Note_off_c, 3, 58, 0
5, 281920, Note_off_c, 3, 61, 0
5, 281920, Note_on_c, 3, 63, 51
5, 281920, Note_on_c, 3, 61, 51
5, 282080, Note_off_c, 3, 63, 0
5, 282080, Note_off_c, 3, 61, 0
5, 282080, Note_on_c, 3, 63, 52
5, 282080, Note_on_c, 3, 61, 52
5, 282240, Note_off_c, 3, 63, 0
5, 282240, Note_off_c, 3, 61, 0
5, 282240, Note_on_c, 3, 63, 53
5, 282240, Note_on_c, 3, 60, 53
5, 282400, Note_off_c, 3, 63, 0
5, 282400, Note_off_c, 3, 60, 0
5, 282400, Note_on_c, 3, 68, 54
5, 282400, Note_on_c, 3, 63, 54
5, 282560, Note_off_c, 3, 68, 0
5, 282560, Note_off_c, 3, 63, 0
5, 282560, Note_on_c, 3, 63, 55
5, 282560, Note_on_c, 3, 67, 55
5, 282720, Note_off_c, 3, 63, 0
5, 282720, Note_off_c, 3, 67, 0
5, 282720, Note_on_c, 3, 63, 56
5, 282720, Note_on_c, 3, 67, 56
5, 282880, Note_off_c, 3, 63, 0
5, 282880, Note_off_c, 3, 67, 0
5, 282880, Note_on_c, 3, 70, 57
5, 282880, Note_on_c, 3, 63, 57
5, 283040, Note_off_c, 3, 70, 0
5, 283040, Note_off_c, 3, 63, 0
5, 283040, Note_on_c, 3, 68, 58
5, 283040, Note_on_c, 3, 63, 58
5, 283200, Note_off_c, 3, 68, 0
5, 283200, Note_off_c, 3, 63, 0
5, 283200, Note_on_c, 3, 68, 59
5, 283200, Note_on_c, 3, 66, 59
5, 283360, Note_off_c, 3, 68, 0
5, 283360, Note_off_c, 3, 66, 0
5, 283360, Note_on_c, 3, 68, 60
5, 283360, Note_on_c, 3, 66, 60
5, 283520, Note_off_c, 3, 68, 0
5, 283520, Note_off_c, 3, 66, 0
5, 283520, Note_on_c, 3, 68, 60
5, 283520, Note_on_c, 3, 66, 60
5, 283648, Note_off_c, 3, 68, 0
5, 283648, Note_off_c, 3, 66, 0
5, 283680, Note_on_c, 3, 68, 63
5, 283680, Note_on_c, 3, 66, 63
5, 283840, Note_off_c, 3, 68, 0
5, 283840, Note_off_c, 3, 66, 0
5, 283840, Note_on_c, 3, 68, 62
5, 283840, Note_on_c, 3, 65, 62
5, 284000, Note_off_c, 3, 68, 0
5, 284000, Note_off_c, 3, 65, 0
5, 284000, Note_on_c, 3, 70, 62
5, 284000, Note_on_c, 3, 65, 62
5, 284160, Note_off_c, 3, 70, 0
5, 284160, Note_off_c, 3, 65, 0
5, 284160, Note_on_c, 3, 70, 61
5, 284160, Note_on_c, 3, 66, 61
5, 284320, Note_off_c, 3, 70, 0
5, 284320, Note_off_c, 3, 66, 0
5, 284320, Note_on_c, 3, 70, 60
5, 284320, Note_on_c, 3, 66, 60
5, 284480, Note_off_c, 3, 70, 0
5, 284480, Note_off_c, 3, 66, 0
5, 284480, Note_on_c, 3, 68, 59
5, 284480, Note_on_c, 3, 66, 59
5, 284640, Note_off_c, 3, 68, 0
5, 284640, Note_off_c, 3, 66, 0
5, 284640, Note_on_c, 3, 68, 59
5, 284640, Note_on_c, 3, 66, 59
5, 284800, Note_off_c, 3, 68, 0
5, 284800, Note_off_c, 3, 66, 0
5, 284800, Note_on_c, 3, 68, 58
5, 284800, Note_on_c, 3, 66, 58
5, 284960, Note_off_c, 3, 68, 0
5, 284960, Note_off_c, 3, 66, 0
5, 284960, Note_on_c, 3, 68, 57
5, 284960, Note_on_c, 3, 65, 57
5, 285120, Note_off_c, 3, 68, 0
5, 285120, Note_off_c, 3, 65, 0
5, 285120, Note_on_c, 3, 68, 56
5, 285120, Note_on_c, 3, 65, 56
5, 285280, Note_off_c, 3, 68, 0
5, 285280, Note_off_c, 3, 65, 0
5, 285280, Note_on_c, 3, 65, 55
5, 285440, Note_off_c, 3, 65, 0
5, 285440, Note_on_c, 3, 63, 55
5, 285440, Note_on_c, 3, 66, 55
5, 285600, Note_off_c, 3, 63, 0
5, 285600, Note_off_c, 3, 66, 0
5, 285600, Note_on_c, 3, 63, 55
5, 285600, Note_on_c, 3, 66, 55
5, 285760, Note_off_c, 3, 63, 0
5, 285760, Note_off_c, 3, 66, 0
5, 285760, Note_on_c, 3, 68, 57
5, 285760, Note_on_c, 3, 66, 57
5, 285920, Note_off_c, 3, 68, 0
5, 285920, Note_off_c, 3, 66, 0
5, 285920, Note_on_c, 3, 68, 59
5, 285920, Note_on_c, 3, 65, 59
5, 286080, Note_off_c, 3, 68, 0
5, 286080, Note_off_c, 3, 65, 0
5, 286080, Note_on_c, 3, 68, 61
5, 286080, Note_on_c, 3, 65, 61
5, 286240, Note_off_c, 3, 68, 0
5, 286240, Note_off_c, 3, 65, 0
5, 286240, Note_on_c, 3, 73, 63
5, 286240, Note_on_c, 3, 68, 63
5, 286240, Note_on_c, 3, 63, 63
5, 286400, Note_off_c, 3, 73, 0
5, 286400, Note_off_c, 3, 68, 0
5, 286400, Note_off_c, 3, 63, 0
5, 286400, Note_on_c, 3, 72, 65
5, 286400, Note_on_c, 3, 68, 65
5, 286400, Note_on_c, 3, 66, 65
5, 286560, Note_off_c, 3, 72, 0
5, 286560, Note_off_c, 3, 68, 0
5, 286560, Note_off_c, 3, 66, 0
5, 286560, Note_on_c, 3, 72, 67
5, 286560, Note_on_c, 3, 68, 67
5, 286560, Note_on_c, 3, 66, 67
5, 286720, Note_off_c, 3, 72, 0
5, 286720, Note_off_c, 3, 68, 0
5, 286720, Note_off_c, 3, 66, 0
5, 286720, Note_on_c, 3, 73, 69
5, 286720, Note_on_c, 3, 68, 69
5, 286720, Note_on_c, 3, 65, 69
5, 286880, Note_off_c, 3, 73, 0
5, 286880, Note_off_c, 3, 68, 0
5, 286880, Note_off_c, 3, 65, 0
5, 286880, Note_on_c, 3, 73, 71
5, 286880, Note_on_c, 3, 68, 71
5, 287040, Note_off_c, 3, 73, 0
5, 287040, Note_off_c, 3, 68, 0
5, 287040, Note_on_c, 3, 73, 73
5, 287040, Note_on_c, 3, 68, 73
5, 287200, Note_off_c, 3, 73, 0
5, 287200, Note_off_c, 3, 68, 0
5, 287200, Note_on_c, 3, 73, 75
5, 287200, Note_on_c, 3, 68, 75
5, 287360, Note_off_c, 3, 73, 0
5, 287360, Note_off_c, 3, 68, 0
5, 287360, Note_on_c, 3, 73, 76
5, 287360, Note_on_c, 3, 68, 76
5, 287488, Note_off_c, 3, 73, 0
5, 287488, Note_off_c, 3, 68, 0
5, 287520, Note_on_c, 3, 73, 78
5, 287520, Note_on_c, 3, 68, 78
5, 287680, Note_off_c, 3, 73, 0
5, 287680, Note_off_c, 3, 68, 0
5, 287680, Note_on_c, 3, 73, 77
5, 287680, Note_on_c, 3, 67, 77
5, 287840, Note_off_c, 3, 73, 0
5, 287840, Note_off_c, 3, 67, 0
5, 287840, Note_on_c, 3, 73, 76
5, 287840, Note_on_c, 3, 67, 76
5, 288000, Note_off_c, 3, 73, 0
5, 288000, Note_off_c, 3, 67, 0
5, 288000, Note_on_c, 3, 73, 75
5, 288000, Note_on_c, 3, 67, 75
5, 288160, Note_off_c, 3, 73, 0
5, 288160, Note_off_c, 3, 67, 0
5, 288160, Note_on_c, 3, 73, 74
5, 288160, Note_on_c, 3, 67, 74
5, 288320, Note_off_c, 3, 73, 0
5, 288320, Note_off_c, 3, 67, 0
5, 288320, Note_on_c, 3, 73, 73
5, 288320, Note_on_c, 3, 67, 73
5, 288480, Note_off_c, 3, 73, 0
5, 288480, Note_off_c, 3, 67, 0
5, 288480, Note_on_c, 3, 72, 72
5, 288480, Note_on_c, 3, 67, 72
5, 288640, Note_off_c, 3, 72, 0
5, 288640, Note_off_c, 3, 67, 0
5, 288640, Note_on_c, 3, 72, 71
5, 288640, Note_on_c, 3, 68, 71
5, 288800, Note_off_c, 3, 72, 0
5, 288800, Note_off_c, 3, 68, 0
5, 288800, Note_on_c, 3, 72, 70
5, 288800, Note_on_c, 3, 68, 70
5, 288960, Note_off_c, 3, 72, 0
5, 288960, Note_off_c, 3, 68, 0
5, 288960, Note_on_c, 3, 72, 69
5, 288960, Note_on_c, 3, 68, 69
5, 289120, Note_off_c, 3, 72, 0
5, 289120, Note_off_c, 3, 68, 0
5, 289120, Note_on_c, 3, 68, 68
5, 289120, Note_on_c, 3, 63, 68
5, 289280, Note_off_c, 3, 68, 0
5, 289280, Note_off_c, 3, 63, 0
5, 289280, Note_on_c, 3, 68, 67
5, 289280, Note_on_c, 3, 63, 67
5, 289408, Note_off_c, 3, 68, 0
5, 289408, Note_off_c, 3, 63, 0
5, 289440, Note_on_c, 3, 70, 66
5, 289440, Note_on_c, 3, 65, 66
5, 289600, Note_off_c, 3, 70, 0
5, 289600, Note_off_c, 3, 65, 0
5, 289600, Note_on_c, 3, 70, 65
5, 289600, Note_on_c, 3, 64, 65
5, 289760, Note_off_c, 3, 70, 0
5, 289760, Note_off_c, 3, 64, 0
5, 289760, Note_on_c, 3, 70, 64
5, 289760, Note_on_c, 3, 64, 64
5, 289920, Note_off_c, 3, 70, 0
5, 289920, Note_off_c, 3, 64, 0
5, 289920, Note_on_c, 3, 70, 63
5, 289920, Note_on_c, 3, 64, 63
5, 290080, Note_off_c, 3, 70, 0
5, 290080, Note_off_c, 3, 64, 0
5, 290080, Note_on_c, 3, 70, 62
5, 290080, Note_on_c, 3, 64, 62
5, 290240, Note_off_c, 3, 70, 0
5, 290240, Note_off_c, 3, 64, 0
5, 290240, Note_on_c, 3, 70, 61
5, 290240, Note_on_c, 3, 64, 61
5, 290400, Note_off_c, 3, 70, 0
5, 290400, Note_off_c, 3, 64, 0
5, 290400, Note_on_c, 3, 68, 60
5, 290400, Note_on_c, 3, 64, 60
5, 290560, Note_off_c, 3, 68, 0
5, 290560, Note_off_c, 3, 64, 0
5, 290560, Note_on_c, 3, 68, 58
5, 290560, Note_on_c, 3, 65, 58
5, 290720, Note_off_c, 3, 68, 0
5, 290720, Note_off_c, 3, 65, 0
5, 290720, Note_on_c, 3, 68, 57
5, 290720, Note_on_c, 3, 65, 57
5, 290880, Note_off_c, 3, 68, 0
5, 290880, Note_off_c, 3, 65, 0
5, 290880, Note_on_c, 3, 60, 56
5, 290880, Note_on_c, 3, 65, 56
5, 291040, Note_off_c, 3, 60, 0
5, 291040, Note_off_c, 3, 65, 0
5, 291040, Note_on_c, 3, 60, 55
5, 291040, Note_on_c, 3, 65, 55
5, 291200, Note_off_c, 3, 60, 0
5, 291200, Note_off_c, 3, 65, 0
5, 291200, Note_on_c, 3, 60, 55
5, 291200, Note_on_c, 3, 65, 55
5, 291328, Note_off_c, 3, 60, 0
5, 291328, Note_off_c, 3, 65, 0
5, 291360, Note_on_c, 3, 68, 54
5, 291360, Note_on_c, 3, 63, 54
5, 291520, Note_off_c, 3, 68, 0
5, 291520, Note_off_c, 3, 63, 0
5, 291520, Note_on_c, 3, 61, 53
5, 291520, Note_on_c, 3, 65, 53
5, 291680, Note_off_c, 3, 61, 0
5, 291680, Note_off_c, 3, 65, 0
5, 291680, Note_on_c, 3, 61, 53
5, 291680, Note_on_c, 3, 65, 53
5, 291840, Note_off_c, 3, 61, 0
5, 291840, Note_off_c, 3, 65, 0
5, 291840, Note_on_c, 3, 61, 52
5, 291840, Note_on_c, 3, 65, 52
5, 292000, Note_off_c, 3, 61, 0
5, 292000, Note_off_c, 3, 65, 0
5, 292000, Note_on_c, 3, 63, 51
5, 292000, Note_on_c, 3, 67, 51
5, 292160, Note_off_c, 3, 63, 0
5, 292160, Note_off_c, 3, 67, 0
5, 292160, Note_on_c, 3, 67, 50
5, 292160, Note_on_c, 3, 63, 50
5, 292320, Note_off_c, 3, 67, 0
5, 292320, Note_off_c, 3, 63, 0
5, 292320, Note_on_c, 3, 63, 50
5, 292320, Note_on_c, 3, 67, 50
5, 292480, Note_off_c, 3, 63, 0
5, 292480, Note_off_c, 3, 67, 0
5, 292480, Note_on_c, 3, 63, 49
5, 292480, Note_on_c, 3, 60, 49
5, 292640, Note_off_c, 3, 63, 0
5, 292640, Note_off_c, 3, 60, 0
5, 292640, Note_on_c, 3, 63, 48
5, 292640, Note_on_c, 3, 60, 48
5, 292800, Note_off_c, 3, 63, 0
5, 292800, Note_off_c, 3, 60, 0
5, 292800, Note_on_c, 3, 61, 48
5, 292800, Note_on_c, 3, 65, 48
5, 292960, Note_off_c, 3, 61, 0
5, 292960, Note_off_c, 3, 65, 0
5, 292960, Note_on_c, 3, 61, 47
5, 292960, Note_on_c, 3, 65, 47
5, 293120, Note_off_c, 3, 61, 0
5, 293120, Note_off_c, 3, 65, 0
5, 293120, Note_on_c, 3, 61, 46
5, 293120, Note_on_c, 3, 65, 46
5, 293280, Note_off_c, 3, 61, 0
5, 293280, Note_off_c, 3, 65, 0
5, 293280, Note_on_c, 3, 61, 45
5, 293280, Note_on_c, 3, 65, 45
5, 293440, Note_off_c, 3, 61, 0
5, 293440, Note_off_c, 3, 65, 0
5, 293440, Note_on_c, 3, 61, 45
5, 293440, Note_on_c, 3, 65, 45
5, 293600, Note_off_c, 3, 61, 0
5, 293600, Note_off_c, 3, 65, 0
5, 293600, Note_on_c, 3, 65, 44
5, 293600, Note_on_c, 3, 61, 44
5, 293760, Note_off_c, 3, 65, 0
5, 293760, Note_off_c, 3, 61, 0
5, 293760, Note_on_c, 3, 61, 43
5, 293760, Note_on_c, 3, 65, 43
5, 293920, Note_off_c, 3, 61, 0
5, 293920, Note_off_c, 3, 65, 0
5, 293920, Note_on_c, 3, 67, 43
5, 293920, Note_on_c, 3, 63, 43
5, 294080, Note_off_c, 3, 67, 0
5, 294080, Note_off_c, 3, 63, 0
5, 294080, Note_on_c, 3, 63, 42
5, 294080, Note_on_c, 3, 67, 42
5, 294240, Note_off_c, 3, 63, 0
5, 294240, Note_off_c, 3, 67, 0
5, 294240, Note_on_c, 3, 67, 41
5, 294240, Note_on_c, 3, 63, 41
5, 294400, Note_off_c, 3, 67, 0
5, 294400, Note_off_c, 3, 63, 0
5, 294400, Note_on_c, 3, 67, 41
5, 294400, Note_on_c, 3, 63, 41
5, 294560, Note_off_c, 3, 67, 0
5, 294560, Note_off_c, 3, 63, 0
5, 294560, Note_on_c, 3, 67, 40
5, 294560, Note_on_c, 3, 63, 40
5, 294720, Note_off_c, 3, 67, 0
5, 294720, Note_off_c, 3, 63, 0
5, 294720, Note_on_c, 3, 63, 39
5, 294720, Note_on_c, 3, 67, 39
5, 294880, Note_off_c, 3, 63, 0
5, 294880, Note_off_c, 3, 67, 0
5, 294880, Note_on_c, 3, 68, 38
5, 294880, Note_on_c, 3, 63, 38
5, 295040, Note_off_c, 3, 68, 0
5, 295040, Note_off_c, 3, 63, 0
5, 295040, Note_on_c, 3, 68, 38
5, 295040, Note_on_c, 3, 63, 38
5, 295200, Note_off_c, 3, 68, 0
5, 295200, Note_off_c, 3, 63, 0
5, 295200, Note_on_c, 3, 72, 37
5, 295200, Note_on_c, 3, 68, 37
5, 295200, Note_on_c, 3, 63, 37
5, 295360, Note_off_c, 3, 72, 0
5, 295360, Note_off_c, 3, 68, 0
5, 295360, Note_off_c, 3, 63, 0
5, 295360, Note_on_c, 3, 68, 36
5, 295360, Note_on_c, 3, 63, 36
5, 295520, Note_off_c, 3, 68, 0
5, 295520, Note_off_c, 3, 63, 0
5, 295520, Note_on_c, 3, 68, 36
5, 295520, Note_on_c, 3, 63, 36
5, 295680, Note_off_c, 3, 68, 0
5, 295680, Note_off_c, 3, 63, 0
5, 295680, Note_on_c, 3, 68, 35
5, 295680, Note_on_c, 3, 63, 35
5, 295840, Note_off_c, 3, 68, 0
5, 295840, Note_off_c, 3, 63, 0
5, 295840, Note_on_c, 3, 63, 34
5, 295840, Note_on_c, 3, 60, 34
5, 296000, Note_off_c, 3, 63, 0
5, 296000, Note_off_c, 3, 60, 0
5, 296000, Note_on_c, 3, 63, 33
5, 296000, Note_on_c, 3, 60, 33
5, 296160, Note_off_c, 3, 63, 0
5, 296160, Note_off_c, 3, 60, 0
5, 296160, Note_on_c, 3, 63, 33
5, 296160, Note_on_c, 3, 60, 33
5, 296320, Note_off_c, 3, 63, 0
5, 296320, Note_off_c, 3, 60, 0
5, 296320, Note_on_c, 3, 68, 32
5, 296320, Note_on_c, 3, 63, 32
5, 296480, Note_off_c, 3, 68, 0
5, 296480, Note_off_c, 3, 63, 0
5, 296480, Note_on_c, 3, 68, 31
5, 296480, Note_on_c, 3, 63, 31
5, 296640, Note_off_c, 3, 68, 0
5, 296640, Note_off_c, 3, 63, 0
5, 296640, Note_on_c, 3, 68, 31
5, 296640, Note_on_c, 3, 63, 31
5, 296800, Note_off_c, 3, 68, 0
5, 296800, Note_off_c, 3, 63, 0
5, 296800, Note_on_c, 3, 61, 30
5, 296800, Note_on_c, 3, 67, 30
5, 296960, Note_off_c, 3, 61, 0
5, 296960, Note_off_c, 3, 67, 0
5, 296960, Note_on_c, 3, 61, 29
5, 296960, Note_on_c, 3, 67, 29
5, 297120, Note_off_c, 3, 61, 0
5, 297120, Note_off_c, 3, 67, 0
5, 297120, Note_on_c, 3, 67, 28
5, 297120, Note_on_c, 3, 61, 28
5, 297120, Note_on_c, 3, 63, 28
5, 298080, Note_off_c, 3, 67, 0
5, 298080, Note_off_c, 3, 61, 0
5, 298080, Note_off_c, 3, 63, 0
5, 298080, Note_on_c, 3, 60, 24
5, 299040, Note_off_c, 3, 60, 0
5, 299040, End_track
6, 0, Start_track
6, 0, Instrument_name_t, "Roland Serial MIDI Out Port A"
6, 0, Title_t, "Unnamed Track"
6, 0, Control_c, 4, 0, 0
6, 0, Control_c, 4, 32, 0
6, 0, Program_c, 4, 0
6, 0, Control_c, 4, 64, 0
6, 0, Control_c, 4, 64, 0
6, 0, Control_c, 4, 64, 0
6, 0, Control_c, 4, 64, 0
6, 0, Control_c, 4, 64, 0
6, 0, Control_c, 4, 64, 0
6, 0, Control_c, 4, 64, 0
6, 0, Control_c, 4, 10, 55
6, 0, Control_c, 4, 91, 80
6, 0, Control_c, 4, 93, 20
6, 0, Control_c, 4, 1, 0
6, 0, Pitch_bend_c, 4, 8192
6, 0, Control_c, 4, 7, 120
6, 0, Control_c, 4, 64, 0
6, 0, Control_c, 4, 64, 0
6, 126720, Note_on_c, 4, 48, 18
6, 126720, Control_c, 4, 64, 127
6, 127680, Note_off_c, 4, 48, 0
6, 127680, Note_on_c, 4, 48, 16
6, 128640, Note_off_c, 4, 48, 0
6, 128640, Note_on_c, 4, 48, 14
6, 130560, Note_off_c, 4, 48, 0
6, 132480, Control_c, 4, 64, 0
6, 132480, Control_c, 4, 64, 0
6, 132480, Control_c, 4, 7, 120
6, 132480, Pitch_bend_c, 4, 8192
6, 132480, Control_c, 4, 1, 0
6, 132480, Control_c, 4, 93, 20
6, 132480, Control_c, 4, 91, 80
6, 132480, Control_c, 4, 10, 55
6, 132480, Control_c, 4, 64, 0
6, 132480, Control_c, 4, 64, 0
6, 132480, Control_c, 4, 64, 0
6, 132480, Control_c, 4, 64, 0
6, 132480, Control_c, 4, 64, 0
6, 132480, Control_c, 4, 64, 0
6, 132480, Control_c, 4, 64, 0
6, 132480, Control_c, 4, 64, 0
6, 132480, Control_c, 4, 64, 0
6, 132480, Control_c, 4, 0, 0
6, 132480, Control_c, 4, 32, 0
6, 132480, Program_c, 4, 0
6, 132480, Control_c, 4, 64, 0
6, 136800, Control_c, 4, 64, 127
6, 137280, Note_on_c, 4, 49, 45
6, 137280, Note_on_c, 4, 56, 45
6, 137280, Note_on_c, 4, 61, 45
6, 137460, Control_c, 4, 64, 0
6, 137640, Note_off_c, 4, 49, 0
6, 137640, Note_off_c, 4, 56, 0
6, 137640, Note_off_c, 4, 61, 0
6, 138240, Control_c, 4, 64, 127
6, 138720, Note_on_c, 4, 63, 47
6, 138720, Note_on_c, 4, 56, 47
6, 138720, Note_on_c, 4, 51, 47
6, 139080, Note_off_c, 4, 63, 0
6, 139080, Note_off_c, 4, 56, 0
6, 139080, Note_off_c, 4, 51, 0
6, 139380, Control_c, 4, 64, 0
6, 139680, Control_c, 4, 64, 127
6, 140160, Note_on_c, 4, 53, 50
6, 140160, Note_on_c, 4, 58, 50
6, 140160, Note_on_c, 4, 61, 50
6, 140340, Control_c, 4, 64, 0
6, 140520, Note_off_c, 4, 53, 0
6, 140520, Note_off_c, 4, 58, 0
6, 140520, Note_off_c, 4, 61, 0
6, 140640, Note_on_c, 4, 51, 51
6, 140640, Note_on_c, 4, 58, 51
6, 140640, Note_on_c, 4, 61, 51
6, 141000, Note_off_c, 4, 51, 0
6, 141000, Note_off_c, 4, 58, 0
6, 141000, Note_off_c, 4, 61, 0
6, 141120, Control_c, 4, 64, 127
6, 141600, Note_on_c, 4, 51, 58
6, 141600, Note_on_c, 4, 56, 58
6, 141600, Note_on_c, 4, 60, 58
6, 141960, Note_off_c, 4, 51, 0
6, 141960, Note_off_c, 4, 56, 0
6, 141960, Note_off_c, 4, 60, 0
6, 142080, Note_on_c, 4, 68, 63
6, 142080, Note_on_c, 4, 63, 63
6, 142080, Note_on_c, 4, 60, 63
6, 142260, Control_c, 4, 64, 0
6, 142440, Note_off_c, 4, 68, 0
6, 142440, Note_off_c, 4, 63, 0
6, 142440, Note_off_c, 4, 60, 0
6, 142560, Control_c, 4, 64, 127
6, 143040, Note_on_c, 4, 63, 47
6, 143040, Note_on_c, 4, 51, 47
6, 143040, Note_on_c, 4, 56, 47
6, 143220, Control_c, 4, 64, 0
6, 143400, Note_off_c, 4, 63, 0
6, 143400, Note_off_c, 4, 51, 0
6, 143400, Note_off_c, 4, 56, 0
6, 143520, Note_on_c, 4, 59, 48
6, 143520, Control_c, 4, 64, 127
6, 143880, Note_off_c, 4, 59, 0
6, 143940, Control_c, 4, 64, 0
6, 144000, Control_c, 4, 64, 127
6, 144480, Note_on_c, 4, 58, 50
6, 144480, Note_on_c, 4, 65, 50
6, 144840, Note_off_c, 4, 58, 0
6, 144840, Note_off_c, 4, 65, 0
6, 144960, Note_on_c, 4, 53, 50
6, 144960, Note_on_c, 4, 58, 50
6, 145140, Control_c, 4, 64, 0
6, 145320, Note_off_c, 4, 53, 0
6, 145320, Note_off_c, 4, 58, 0
6, 145440, Control_c, 4, 64, 127
6, 145920, Note_on_c, 4, 51, 57
6, 145920, Note_on_c, 4, 63, 57
6, 145920, Note_on_c, 4, 58, 57
6, 146100, Control_c, 4, 64, 0
6, 146280, Note_off_c, 4, 51, 0
6, 146280, Note_off_c, 4, 63, 0
6, 146280, Note_off_c, 4, 58, 0
6, 146880, Control_c, 4, 64, 127
6, 147360, Note_on_c, 4, 61, 51
6, 147360, Note_on_c, 4, 56, 51
6, 147720, Note_off_c, 4, 61, 0
6, 147720, Note_off_c, 4, 56, 0
6, 148020, Control_c, 4, 64, 0
6, 148320, Control_c, 4, 64, 127
6, 148800, Note_on_c, 4, 55, 47
6, 148800, Note_on_c, 4, 51, 47
6, 149160, Note_off_c, 4, 55, 0
6, 149160, Note_off_c, 4, 51, 0
6, 149460, Control_c, 4, 64, 0
6, 149760, Control_c, 4, 64, 127
6, 150240, Note_on_c, 4, 56, 50
6, 150240, Note_on_c, 4, 51, 50
6, 150600, Note_off_c, 4, 56, 0
6, 150600, Note_off_c, 4, 51, 0
6, 150900, Control_c, 4, 64, 0
6, 151200, Control_c, 4, 64, 127
6, 151680, Note_on_c, 4, 51, 58
6, 151680, Note_on_c, 4, 58, 58
6, 151860, Control_c, 4, 64, 0
6, 152040, Note_off_c, 4, 51, 0
6, 152040, Note_off_c, 4, 58, 0
6, 152160, Note_on_c, 4, 57, 62
6, 152160, Control_c, 4, 64, 127
6, 152520, Note_off_c, 4, 57, 0
6, 152580, Control_c, 4, 64, 0
6, 152640, Control_c, 4, 64, 127
6, 153120, Note_on_c, 4, 58, 55
6, 153120, Note_on_c, 4, 53, 55
6, 153300, Control_c, 4, 64, 0
6, 153480, Note_off_c, 4, 58, 0
6, 153480, Note_off_c, 4, 53, 0
6, 154080, Control_c, 4, 64, 127
6, 154560, Note_on_c, 4, 55, 43
6, 154560, Note_on_c, 4, 60, 43
6, 154920, Note_off_c, 4, 55, 0
6, 154920, Note_off_c, 4, 60, 0
6, 155460, Control_c, 4, 64, 0
6, 155520, Control_c, 4, 64, 127
6, 156000, Note_on_c, 4, 56, 46
6, 156000, Note_on_c, 4, 60, 46
6, 156360, Note_off_c, 4, 56, 0
6, 156360, Note_off_c, 4, 60, 0
6, 156660, Control_c, 4, 64, 0
6, 157440, Note_on_c, 4, 55, 53
6, 157800, Note_off_c, 4, 55, 0
6, 157920, Control_c, 4, 64, 127
6, 157920, Note_on_c, 4, 64, 59
6, 158280, Note_off_c, 4, 64, 0
6, 158340, Control_c, 4, 64, 0
6, 158400, Control_c, 4, 64, 127
6, 158880, Note_on_c, 4, 53, 56
6, 158880, Note_on_c, 4, 61, 56
6, 159360, Note_off_c, 4, 53, 0
6, 159360, Note_off_c, 4, 61, 0
6, 159360, Note_on_c, 4, 52, 53
6, 159360, Note_on_c, 4, 60, 53
6, 159720, Note_off_c, 4, 52, 0
6, 159720, Note_off_c, 4, 60, 0
6, 159780, Control_c, 4, 64, 0
6, 159840, Control_c, 4, 64, 127
6, 160320, Note_on_c, 4, 51, 49
6, 160320, Note_on_c, 4, 59, 49
6, 160680, Note_off_c, 4, 51, 0
6, 160680, Note_off_c, 4, 59, 0
6, 160800, Note_on_c, 4, 51, 48
6, 160800, Note_on_c, 4, 59, 48
6, 161160, Note_off_c, 4, 51, 0
6, 161160, Note_off_c, 4, 59, 0
6, 161220, Control_c, 4, 64, 0
6, 161280, Control_c, 4, 64, 127
6, 161760, Note_on_c, 4, 54, 46
6, 161760, Note_on_c, 4, 49, 46
6, 162120, Note_off_c, 4, 54, 0
6, 162120, Note_off_c, 4, 49, 0
6, 162180, Control_c, 4, 64, 0
6, 162240, Note_on_c, 4, 55, 46
6, 162240, Note_on_c, 4, 49, 46
6, 162600, Note_off_c, 4, 55, 0
6, 162600, Note_off_c, 4, 49, 0
6, 162720, Control_c, 4, 64, 127
6, 163200, Note_on_c, 4, 56, 44
6, 163200, Note_on_c, 4, 47, 44
6, 163560, Note_off_c, 4, 56, 0
6, 163560, Note_off_c, 4, 47, 0
6, 163680, Note_on_c, 4, 56, 43
6, 163680, Note_on_c, 4, 47, 43
6, 164040, Note_off_c, 4, 56, 0
6, 164040, Note_off_c, 4, 47, 0
6, 164100, Control_c, 4, 64, 0
6, 164160, Control_c, 4, 64, 127
6, 164640, Note_on_c, 4, 51, 42
6, 164640, Note_on_c, 4, 58, 42
6, 164640, Note_on_c, 4, 46, 42
6, 165000, Note_off_c, 4, 51, 0
6, 165000, Note_off_c, 4, 58, 0
6, 165000, Note_off_c, 4, 46, 0
6, 165060, Control_c, 4, 64, 0
6, 165600, Control_c, 4, 64, 127
6, 166080, Note_on_c, 4, 56, 40
6, 166080, Note_on_c, 4, 51, 40
6, 166260, Control_c, 4, 64, 0
6, 166440, Note_off_c, 4, 56, 0
6, 166440, Note_off_c, 4, 51, 0
6, 167040, Control_c, 4, 64, 127
6, 167700, Control_c, 4, 64, 0
6, 180000, Control_c, 4, 64, 127
6, 180480, Note_on_c, 4, 56, 40
6, 180480, Note_on_c, 4, 49, 40
6, 180480, Note_on_c, 4, 61, 40
6, 180660, Control_c, 4, 64, 0
6, 180840, Note_off_c, 4, 56, 0
6, 180840, Note_off_c, 4, 49, 0
6, 180840, Note_off_c, 4, 61, 0
6, 181440, Control_c, 4, 64, 127
6, 181920, Note_on_c, 4, 51, 42
6, 181920, Note_on_c, 4, 56, 42
6, 181920, Note_on_c, 4, 63, 42
6, 182280, Note_off_c, 4, 51, 0
6, 182280, Note_off_c, 4, 56, 0
6, 182280, Note_off_c, 4, 63, 0
6, 182580, Control_c, 4, 64, 0
6, 182880, Control_c, 4, 64, 127
6, 183360, Note_on_c, 4, 61, 44
6, 183360, Note_on_c, 4, 58, 44
6, 183360, Note_on_c, 4, 53, 44
6, 183540, Control_c, 4, 64, 0
6, 183720, Note_off_c, 4, 61, 0
6, 183720, Note_off_c, 4, 58, 0
6, 183720, Note_off_c, 4, 53, 0
6, 183840, Note_on_c, 4, 61, 45
6, 183840, Note_on_c, 4, 58, 45
6, 183840, Note_on_c, 4, 51, 45
6, 184200, Note_off_c, 4, 61, 0
6, 184200, Note_off_c, 4, 58, 0
6, 184200, Note_off_c, 4, 51, 0
6, 184320, Control_c, 4, 64, 127
6, 184800, Note_on_c, 4, 60, 52
6, 184800, Note_on_c, 4, 56, 52
6, 184800, Note_on_c, 4, 51, 52
6, 185160, Note_off_c, 4, 60, 0
6, 185160, Note_off_c, 4, 56, 0
6, 185160, Note_off_c, 4, 51, 0
6, 185280, Note_on_c, 4, 68, 58
6, 185280, Note_on_c, 4, 60, 58
6, 185280, Note_on_c, 4, 63, 58
6, 185460, Control_c, 4, 64, 0
6, 185640, Note_off_c, 4, 68, 0
6, 185640, Note_off_c, 4, 60, 0
6, 185640, Note_off_c, 4, 63, 0
6, 185760, Control_c, 4, 64, 127
6, 186240, Note_on_c, 4, 56, 43
6, 186240, Note_on_c, 4, 51, 43
6, 186240, Note_on_c, 4, 63, 43
6, 186420, Control_c, 4, 64, 0
6, 186600, Note_off_c, 4, 56, 0
6, 186600, Note_off_c, 4, 51, 0
6, 186600, Note_off_c, 4, 63, 0
6, 186720, Note_on_c, 4, 59, 44
6, 186720, Control_c, 4, 64, 127
6, 187080, Note_off_c, 4, 59, 0
6, 187140, Control_c, 4, 64, 0
6, 187200, Control_c, 4, 64, 127
6, 187680, Note_on_c, 4, 65, 47
6, 187680, Note_on_c, 4, 58, 47
6, 188040, Note_off_c, 4, 65, 0
6, 188040, Note_off_c, 4, 58, 0
6, 188160, Note_on_c, 4, 58, 48
6, 188160, Note_on_c, 4, 53, 48
6, 188340, Control_c, 4, 64, 0
6, 188520, Note_off_c, 4, 58, 0
6, 188520, Note_off_c, 4, 53, 0
6, 188640, Control_c, 4, 64, 127
6, 189120, Note_on_c, 4, 58, 49
6, 189120, Note_on_c, 4, 63, 49
6, 189120, Note_on_c, 4, 51, 49
6, 189480, Note_off_c, 4, 58, 0
6, 189480, Note_off_c, 4, 63, 0
6, 189480, Note_off_c, 4, 51, 0
6, 189780, Control_c, 4, 64, 0
6, 190080, Control_c, 4, 64, 127
6, 190560, Note_on_c, 4, 61, 54
6, 190560, Note_on_c, 4, 53, 54
6, 190560, Note_on_c, 4, 56, 54
6, 190920, Note_off_c, 4, 61, 0
6, 190920, Note_off_c, 4, 53, 0
6, 190920, Note_off_c, 4, 56, 0
6, 190980, Control_c, 4, 64, 0
6, 191520, Control_c, 4, 64, 127
6, 192000, Note_on_c, 4, 62, 60
6, 192000, Note_on_c, 4, 60, 60
6, 192000, Note_on_c, 4, 53, 60
6, 192180, Control_c, 4, 64, 0
6, 192360, Note_off_c, 4, 62, 0
6, 192360, Note_off_c, 4, 60, 0
6, 192360, Note_off_c, 4, 53, 0
6, 192960, Control_c, 4, 64, 127
6, 193440, Note_on_c, 4, 70, 87
6, 193440, Note_on_c, 4, 58, 87
6, 193440, Note_on_c, 4, 66, 87
6, 193800, Note_off_c, 4, 70, 0
6, 193800, Note_off_c, 4, 58, 0
6, 193800, Note_off_c, 4, 66, 0
6, 193920, Note_on_c, 4, 73, 82
6, 193920, Note_on_c, 4, 70, 82
6, 193920, Note_on_c, 4, 63, 82
6, 194100, Control_c, 4, 64, 0
6, 194280, Note_off_c, 4, 73, 0
6, 194280, Note_off_c, 4, 70, 0
6, 194280, Note_off_c, 4, 63, 0
6, 194400, Control_c, 4, 64, 127
6, 194880, Note_on_c, 4, 56, 73
6, 195240, Note_off_c, 4, 56, 0
6, 195360, Note_on_c, 4, 68, 69
6, 195720, Note_off_c, 4, 68, 0
6, 195840, Control_c, 4, 64, 0
6, 200160, Control_c, 4, 64, 127
6, 201540, Control_c, 4, 64, 0
6, 201600, Control_c, 4, 64, 127
6, 202980, Control_c, 4, 64, 0
6, 203040, Control_c, 4, 64, 127
6, 204420, Control_c, 4, 64, 0
6, 204480, Control_c, 4, 64, 127
6, 205860, Control_c, 4, 64, 0
6, 205920, Control_c, 4, 64, 127
6, 206340, Control_c, 4, 64, 0
6, 206400, Note_on_c, 4, 61, 52
6, 206845, Note_off_c, 4, 61, 0
6, 206860, Note_on_c, 4, 51, 50
6, 206880, Control_c, 4, 64, 127
6, 206880, Note_on_c, 4, 60, 50
6, 207300, Control_c, 4, 64, 0
6, 207340, Note_off_c, 4, 51, 0
6, 207360, Note_off_c, 4, 60, 0
6, 207360, Note_on_c, 4, 61, 49
6, 207360, Note_on_c, 4, 56, 49
6, 207720, Note_off_c, 4, 61, 0
6, 207720, Note_off_c, 4, 56, 0
6, 207840, Control_c, 4, 64, 127
6, 207840, Note_on_c, 4, 58, 48
6, 208200, Note_off_c, 4, 58, 0
6, 208500, Control_c, 4, 64, 0
6, 210240, Note_on_c, 4, 56, 40
6, 210600, Note_off_c, 4, 56, 0
6, 211680, Control_c, 4, 64, 127
6, 213060, Control_c, 4, 64, 0
6, 213120, Control_c, 4, 64, 127
6, 214500, Control_c, 4, 64, 0
6, 214560, Control_c, 4, 64, 127
6, 215940, Control_c, 4, 64, 0
6, 216000, Control_c, 4, 64, 127
6, 217380, Control_c, 4, 64, 0
6, 217440, Control_c, 4, 64, 127
6, 217860, Control_c, 4, 64, 0
6, 218380, Note_on_c, 4, 51, 47
6, 218400, Control_c, 4, 64, 127
6, 218820, Control_c, 4, 64, 0
6, 218875, Note_off_c, 4, 51, 0
6, 218880, Note_on_c, 4, 56, 49
6, 219120, Control_c, 4, 64, 127
6, 219300, Control_c, 4, 64, 0
6, 219325, Note_off_c, 4, 56, 0
6, 219340, Note_on_c, 4, 51, 51
6, 219600, Control_c, 4, 64, 127
6, 219780, Control_c, 4, 64, 0
6, 219835, Note_off_c, 4, 51, 0
6, 219840, Note_on_c, 4, 56, 53
6, 220080, Control_c, 4, 64, 127
6, 220200, Note_off_c, 4, 56, 0
6, 220260, Control_c, 4, 64, 0
6, 220560, Control_c, 4, 64, 127
6, 220740, Control_c, 4, 64, 0
6, 221040, Control_c, 4, 64, 127
6, 221220, Control_c, 4, 64, 0
6, 221520, Control_c, 4, 64, 127
6, 221700, Control_c, 4, 64, 0
6, 222000, Control_c, 4, 64, 127
6, 222180, Control_c, 4, 64, 0
6, 222480, Control_c, 4, 64, 127
6, 222660, Control_c, 4, 64, 0
6, 222960, Control_c, 4, 64, 127
6, 223140, Control_c, 4, 64, 0
6, 223440, Control_c, 4, 64, 127
6, 223620, Control_c, 4, 64, 0
6, 224160, Control_c, 4, 64, 127
6, 225120, Note_on_c, 4, 72, 82
6, 225120, Note_on_c, 4, 63, 82
6, 225480, Note_off_c, 4, 72, 0
6, 225480, Note_off_c, 4, 63, 0
6, 226080, Note_on_c, 4, 78, 91
6, 226080, Note_on_c, 4, 72, 91
6, 226440, Note_off_c, 4, 78, 0
6, 226440, Note_off_c, 4, 72, 0
6, 228900, Control_c, 4, 64, 0
6, 228960, Control_c, 4, 64, 127
6, 233940, Control_c, 4, 64, 0
6, 234720, Control_c, 4, 64, 127
6, 236160, Note_on_c, 4, 44, 106
6, 237600, Control_c, 4, 64, 0
6, 237600, Note_off_c, 4, 44, 0
6, 237600, Note_on_c, 4, 44, 107
6, 239520, Note_off_c, 4, 44, 0
6, 240480, Control_c, 4, 0, 0
6, 240480, Control_c, 4, 32, 0
6, 240480, Program_c, 4, 0
6, 240480, Control_c, 4, 64, 0
6, 240480, Control_c, 4, 64, 0
6, 240480, Control_c, 4, 64, 0
6, 240480, Control_c, 4, 64, 0
6, 240480, Control_c, 4, 64, 0
6, 240480, Control_c, 4, 64, 0
6, 240480, Control_c, 4, 64, 0
6, 240480, Control_c, 4, 10, 55
6, 240480, Control_c, 4, 91, 80
6, 240480, Control_c, 4, 93, 20
6, 240480, Control_c, 4, 1, 0
6, 240480, Pitch_bend_c, 4, 8192
6, 240480, Control_c, 4, 7, 120
6, 240480, Control_c, 4, 64, 0
6, 240480, Control_c, 4, 64, 0
6, 299040, End_track
7, 0, Start_track
7, 0, Instrument_name_t, "Roland Serial MIDI Out Port A"
7, 0, Title_t, "Unnamed Track"
7, 0, Control_c, 5, 0, 0
7, 0, Control_c, 5, 32, 0
7, 0, Program_c, 5, 0
7, 0, Control_c, 5, 64, 0
7, 0, Control_c, 5, 64, 0
7, 0, Control_c, 5, 7, 125
7, 0, Pitch_bend_c, 5, 8192
7, 0, Control_c, 5, 1, 0
7, 0, Control_c, 5, 93, 20
7, 0, Control_c, 5, 91, 80
7, 0, Control_c, 5, 10, 55
7, 9600, Note_on_c, 5, 41, 55
7, 11520, Note_off_c, 5, 41, 0
7, 11520, Note_on_c, 5, 41, 48
7, 13440, Note_off_c, 5, 41, 0
7, 13440, Note_on_c, 5, 41, 42
7, 15360, Note_off_c, 5, 41, 0
7, 15360, Note_on_c, 5, 41, 36
7, 17280, Note_off_c, 5, 41, 0
7, 17280, Note_on_c, 5, 41, 32
7, 19200, Note_off_c, 5, 41, 0
7, 19200, Note_on_c, 5, 40, 35
7, 21120, Note_off_c, 5, 40, 0
7, 21120, Note_on_c, 5, 41, 37
7, 23040, Note_off_c, 5, 41, 0
7, 23040, Note_on_c, 5, 40, 40
7, 24960, Note_off_c, 5, 40, 0
7, 24960, Note_on_c, 5, 41, 43
7, 26880, Note_off_c, 5, 41, 0
7, 26880, Note_on_c, 5, 43, 46
7, 28800, Note_off_c, 5, 43, 0
7, 28800, Note_on_c, 5, 44, 49
7, 30720, Note_off_c, 5, 44, 0
7, 30720, Note_on_c, 5, 47, 52
7, 32640, Note_off_c, 5, 47, 0
7, 32640, Note_on_c, 5, 48, 54
7, 34560, Note_off_c, 5, 48, 0
7, 34560, Note_on_c, 5, 48, 57
7, 36480, Note_off_c, 5, 48, 0
7, 36480, Note_on_c, 5, 48, 60
7, 38400, Note_off_c, 5, 48, 0
7, 38400, Note_on_c, 5, 48, 56
7, 40320, Note_off_c, 5, 48, 0
7, 40320, Note_on_c, 5, 41, 46
7, 42240, Note_off_c, 5, 41, 0
7, 42240, Note_on_c, 5, 41, 36
7, 44160, Note_off_c, 5, 41, 0
7, 44160, Note_on_c, 5, 41, 39
7, 46080, Note_off_c, 5, 41, 0
7, 46080, Note_on_c, 5, 41, 42
7, 48000, Note_off_c, 5, 41, 0
7, 48000, Note_on_c, 5, 43, 44
7, 49920, Note_off_c, 5, 43, 0
7, 49920, Note_on_c, 5, 43, 47
7, 51840, Note_off_c, 5, 43, 0
7, 51840, Note_on_c, 5, 43, 44
7, 53760, Note_off_c, 5, 43, 0
7, 53760, Note_on_c, 5, 43, 40
7, 55680, Note_off_c, 5, 43, 0
7, 55680, Note_on_c, 5, 36, 36
7, 57600, Note_off_c, 5, 36, 0
7, 57600, Note_on_c, 5, 36, 28
7, 59520, Note_off_c, 5, 36, 0
7, 59520, Note_on_c, 5, 36, 31
7, 61440, Note_off_c, 5, 36, 0
7, 61440, Note_on_c, 5, 36, 34
7, 63360, Note_off_c, 5, 36, 0
7, 63360, Note_on_c, 5, 37, 37
7, 65280, Note_off_c, 5, 37, 0
7, 65280, Note_on_c, 5, 37, 39
7, 67200, Note_off_c, 5, 37, 0
7, 67200, Note_on_c, 5, 37, 42
7, 69120, Note_off_c, 5, 37, 0
7, 69120, Note_on_c, 5, 37, 45
7, 71040, Note_off_c, 5, 37, 0
7, 71040, Note_on_c, 5, 38, 46
7, 72960, Note_off_c, 5, 38, 0
7, 72960, Note_on_c, 5, 38, 49
7, 74880, Note_off_c, 5, 38, 0
7, 74880, Note_on_c, 5, 34, 51
7, 76800, Note_off_c, 5, 34, 0
7, 76800, Note_on_c, 5, 38, 53
7, 78720, Note_off_c, 5, 38, 0
7, 78720, Note_on_c, 5, 39, 55
7, 80640, Note_off_c, 5, 39, 0
7, 80640, Note_on_c, 5, 38, 57
7, 82560, Note_off_c, 5, 38, 0
7, 82560, Note_on_c, 5, 39, 59
7, 84480, Note_off_c, 5, 39, 0
7, 84480, Note_on_c, 5, 38, 61
7, 86400, Note_off_c, 5, 38, 0
7, 86400, Note_on_c, 5, 39, 63
7, 88320, Note_off_c, 5, 39, 0
7, 88320, Note_on_c, 5, 40, 65
7, 90240, Note_off_c, 5, 40, 0
7, 90240, Note_on_c, 5, 41, 67
7, 92160, Note_off_c, 5, 41, 0
7, 92160, Note_on_c, 5, 40, 69
7, 94080, Note_off_c, 5, 40, 0
7, 94080, Note_on_c, 5, 41, 71
7, 96000, Note_off_c, 5, 41, 0
7, 96000, Note_on_c, 5, 41, 73
7, 97920, Note_off_c, 5, 41, 0
7, 97920, Note_on_c, 5, 41, 75
7, 99840, Note_off_c, 5, 41, 0
7, 99840, Note_on_c, 5, 41, 78
7, 101760, Note_off_c, 5, 41, 0
7, 101760, Note_on_c, 5, 41, 83
7, 103680, Note_off_c, 5, 41, 0
7, 103680, Note_on_c, 5, 41, 73
7, 105600, Note_off_c, 5, 41, 0
7, 105600, Note_on_c, 5, 41, 63
7, 107520, Note_off_c, 5, 41, 0
7, 107520, Note_on_c, 5, 41, 53
7, 109440, Note_off_c, 5, 41, 0
7, 109440, Note_on_c, 5, 41, 43
7, 111360, Note_off_c, 5, 41, 0
7, 111360, Note_on_c, 5, 41, 34
7, 113280, Note_off_c, 5, 41, 0
7, 113280, Note_on_c, 5, 41, 38
7, 115200, Note_off_c, 5, 41, 0
7, 115200, Note_on_c, 5, 41, 43
7, 117120, Note_off_c, 5, 41, 0
7, 117120, Note_on_c, 5, 42, 38
7, 119040, Note_off_c, 5, 42, 0
7, 119040, Note_on_c, 5, 43, 33
7, 120000, Note_off_c, 5, 43, 0
7, 123840, Note_on_c, 5, 36, 24
7, 123840, Note_on_c, 5, 48, 24
7, 124800, Note_off_c, 5, 36, 0
7, 124800, Note_off_c, 5, 48, 0
7, 124800, Note_on_c, 5, 29, 22
7, 124800, Note_on_c, 5, 41, 22
7, 125760, Note_off_c, 5, 29, 0
7, 125760, Note_off_c, 5, 41, 0
7, 126720, Control_c, 5, 64, 127
7, 126720, Note_on_c, 5, 41, 18
7, 127680, Note_off_c, 5, 41, 0
7, 127680, Note_on_c, 5, 41, 16
7, 128640, Note_off_c, 5, 41, 0
7, 128640, Note_on_c, 5, 41, 14
7, 130560, Note_off_c, 5, 41, 0
7, 132480, Control_c, 5, 10, 55
7, 132480, Control_c, 5, 91, 80
7, 132480, Control_c, 5, 93, 20
7, 132480, Control_c, 5, 1, 0
7, 132480, Pitch_bend_c, 5, 8192
7, 132480, Control_c, 5, 7, 125
7, 132480, Control_c, 5, 64, 0
7, 132480, Control_c, 5, 64, 0
7, 132480, Control_c, 5, 64, 0
7, 132480, Control_c, 5, 64, 0
7, 132480, Control_c, 5, 0, 0
7, 132480, Control_c, 5, 32, 0
7, 132480, Program_c, 5, 0
7, 132480, Control_c, 5, 64, 0
7, 136800, Note_on_c, 5, 37, 44
7, 136800, Control_c, 5, 64, 127
7, 137280, Note_off_c, 5, 37, 0
7, 137460, Control_c, 5, 64, 0
7, 137760, Note_on_c, 5, 42, 46
7, 138120, Note_off_c, 5, 42, 0
7, 138240, Control_c, 5, 64, 127
7, 138240, Note_on_c, 5, 44, 46
7, 138720, Note_off_c, 5, 44, 0
7, 139200, Note_on_c, 5, 44, 48
7, 139380, Control_c, 5, 64, 0
7, 139560, Note_off_c, 5, 44, 0
7, 139680, Note_on_c, 5, 46, 49
7, 139680, Control_c, 5, 64, 127
7, 140160, Note_off_c, 5, 46, 0
7, 140340, Control_c, 5, 64, 0
7, 141120, Note_on_c, 5, 44, 54
7, 141120, Control_c, 5, 64, 127
7, 141600, Note_off_c, 5, 44, 0
7, 142260, Control_c, 5, 64, 0
7, 142560, Note_on_c, 5, 39, 46
7, 142560, Control_c, 5, 64, 127
7, 142920, Note_off_c, 5, 39, 0
7, 143220, Control_c, 5, 64, 0
7, 143520, Note_on_c, 5, 44, 48
7, 143520, Control_c, 5, 64, 127
7, 143880, Note_off_c, 5, 44, 0
7, 143940, Control_c, 5, 64, 0
7, 143960, Note_on_c, 5, 34, 49
7, 144000, Control_c, 5, 64, 127
7, 144001, Note_off_c, 5, 34, 0
7, 145140, Control_c, 5, 64, 0
7, 145440, Note_on_c, 5, 39, 51
7, 145440, Control_c, 5, 64, 127
7, 145800, Note_off_c, 5, 39, 0
7, 146100, Control_c, 5, 64, 0
7, 146400, Note_on_c, 5, 44, 62
7, 146760, Note_off_c, 5, 44, 0
7, 146880, Control_c, 5, 64, 127
7, 146880, Note_on_c, 5, 49, 54
7, 147240, Note_off_c, 5, 49, 0
7, 147840, Note_on_c, 5, 34, 47
7, 147841, Note_off_c, 5, 34, 0
7, 148020, Control_c, 5, 64, 0
7, 148320, Note_on_c, 5, 39, 46
7, 148320, Control_c, 5, 64, 127
7, 148680, Note_off_c, 5, 39, 0
7, 149280, Note_on_c, 5, 39, 48
7, 149460, Control_c, 5, 64, 0
7, 149640, Note_off_c, 5, 39, 0
7, 149760, Note_on_c, 5, 44, 49
7, 149760, Control_c, 5, 64, 127
7, 150120, Note_off_c, 5, 44, 0
7, 150720, Note_on_c, 5, 44, 51
7, 150900, Control_c, 5, 64, 0
7, 151080, Note_off_c, 5, 44, 0
7, 151200, Note_on_c, 5, 39, 53
7, 151200, Control_c, 5, 64, 127
7, 151560, Note_off_c, 5, 39, 0
7, 151860, Control_c, 5, 64, 0
7, 152120, Note_on_c, 5, 41, 62
7, 152160, Control_c, 5, 64, 127
7, 152520, Note_off_c, 5, 41, 0
7, 152580, Control_c, 5, 64, 0
7, 152640, Note_on_c, 5, 46, 68
7, 152640, Control_c, 5, 64, 127
7, 153000, Note_off_c, 5, 46, 0
7, 153300, Control_c, 5, 64, 0
7, 153600, Note_on_c, 5, 43, 48
7, 153960, Note_off_c, 5, 43, 0
7, 154080, Control_c, 5, 64, 127
7, 154080, Note_on_c, 5, 48, 42
7, 154440, Note_off_c, 5, 48, 0
7, 155040, Note_on_c, 5, 36, 44
7, 155460, Control_c, 5, 64, 0
7, 155520, Note_off_c, 5, 36, 0
7, 155520, Note_on_c, 5, 48, 45
7, 155520, Control_c, 5, 64, 127
7, 155880, Note_off_c, 5, 48, 0
7, 156480, Note_on_c, 5, 36, 47
7, 156660, Control_c, 5, 64, 0
7, 156960, Note_off_c, 5, 36, 0
7, 156960, Note_on_c, 5, 48, 49
7, 157320, Note_off_c, 5, 48, 0
7, 157920, Control_c, 5, 64, 127
7, 157920, Note_on_c, 5, 48, 59
7, 158280, Note_off_c, 5, 48, 0
7, 158340, Control_c, 5, 64, 0
7, 158400, Note_on_c, 5, 41, 68
7, 158400, Control_c, 5, 64, 127
7, 158760, Note_off_c, 5, 41, 0
7, 159780, Control_c, 5, 64, 0
7, 159840, Note_on_c, 5, 39, 49
7, 159840, Control_c, 5, 64, 127
7, 160200, Note_off_c, 5, 39, 0
7, 161220, Control_c, 5, 64, 0
7, 161280, Note_on_c, 5, 37, 47
7, 161280, Control_c, 5, 64, 127
7, 161640, Note_off_c, 5, 37, 0
7, 162180, Control_c, 5, 64, 0
7, 162720, Note_on_c, 5, 35, 45
7, 162720, Control_c, 5, 64, 127
7, 163080, Note_off_c, 5, 35, 0
7, 164100, Control_c, 5, 64, 0
7, 164160, Control_c, 5, 64, 127
7, 165060, Control_c, 5, 64, 0
7, 165120, Note_on_c, 5, 39, 41
7, 165480, Note_off_c, 5, 39, 0
7, 165600, Control_c, 5, 64, 127
7, 165600, Note_on_c, 5, 44, 40
7, 165960, Note_off_c, 5, 44, 0
7, 166260, Control_c, 5, 64, 0
7, 167040, Note_on_c, 5, 39, 38
7, 167040, Control_c, 5, 64, 127
7, 167400, Note_off_c, 5, 39, 0
7, 167520, Note_on_c, 5, 51, 37
7, 167700, Control_c, 5, 64, 0
7, 168480, Note_on_c, 5, 44, 36
7, 168480, Control_c, 5, 64, 127
7, 169440, Note_off_c, 5, 51, 0
7, 169440, Note_on_c, 5, 56, 39
7, 169920, Note_off_c, 5, 44, 0
7, 169920, Note_off_c, 5, 56, 0
7, 169920, Note_on_c, 5, 56, 40
7, 170880, Note_off_c, 5, 56, 0
7, 170880, Note_on_c, 5, 44, 41
7, 171360, Note_off_c, 5, 44, 0
7, 171360, Note_on_c, 5, 44, 41
7, 172320, Note_on_c, 5, 56, 43
7, 172680, Note_off_c, 5, 56, 0
7, 172680, Note_on_c, 5, 56, 43
7, 172800, Note_off_c, 5, 44, 0
7, 172800, Note_off_c, 5, 56, 0
7, 172800, Note_on_c, 5, 56, 43
7, 173760, Note_off_c, 5, 56, 0
7, 173760, Note_on_c, 5, 44, 45
7, 174240, Note_off_c, 5, 44, 0
7, 174240, Note_on_c, 5, 44, 44
7, 174720, Note_off_c, 5, 44, 0
7, 179520, Control_c, 5, 64, 0
7, 180000, Note_on_c, 5, 37, 40
7, 180000, Control_c, 5, 64, 127
7, 180480, Note_off_c, 5, 37, 0
7, 180660, Control_c, 5, 64, 0
7, 180960, Note_on_c, 5, 42, 41
7, 181320, Note_off_c, 5, 42, 0
7, 181440, Control_c, 5, 64, 127
7, 181440, Note_on_c, 5, 44, 41
7, 181920, Note_off_c, 5, 44, 0
7, 182400, Note_on_c, 5, 44, 43
7, 182580, Control_c, 5, 64, 0
7, 182760, Note_off_c, 5, 44, 0
7, 182880, Note_on_c, 5, 46, 43
7, 182880, Control_c, 5, 64, 127
7, 183360, Note_off_c, 5, 46, 0
7, 183540, Control_c, 5, 64, 0
7, 184320, Note_on_c, 5, 44, 46
7, 184320, Control_c, 5, 64, 127
7, 184800, Note_off_c, 5, 44, 0
7, 185460, Control_c, 5, 64, 0
7, 185760, Note_on_c, 5, 39, 42
7, 185760, Control_c, 5, 64, 127
7, 186120, Note_off_c, 5, 39, 0
7, 186420, Control_c, 5, 64, 0
7, 186720, Note_on_c, 5, 44, 44
7, 186720, Control_c, 5, 64, 127
7, 187080, Note_off_c, 5, 44, 0
7, 187140, Control_c, 5, 64, 0
7, 187200, Control_c, 5, 64, 127
7, 188340, Control_c, 5, 64, 0
7, 188640, Note_on_c, 5, 39, 48
7, 188640, Control_c, 5, 64, 127
7, 189000, Note_off_c, 5, 39, 0
7, 189600, Note_on_c, 5, 44, 51
7, 189780, Control_c, 5, 64, 0
7, 189960, Note_off_c, 5, 44, 0
7, 190080, Note_on_c, 5, 32, 52
7, 190080, Control_c, 5, 64, 127
7, 190440, Note_off_c, 5, 32, 0
7, 190980, Control_c, 5, 64, 0
7, 191040, Note_on_c, 5, 44, 56
7, 191400, Note_off_c, 5, 44, 0
7, 191520, Control_c, 5, 64, 127
7, 191520, Note_on_c, 5, 32, 56
7, 191880, Note_off_c, 5, 32, 0
7, 192180, Control_c, 5, 64, 0
7, 192480, Note_on_c, 5, 32, 63
7, 192480, Note_on_c, 5, 44, 63
7, 192840, Note_off_c, 5, 32, 0
7, 192840, Note_off_c, 5, 44, 0
7, 192960, Control_c, 5, 64, 127
7, 192960, Note_on_c, 5, 30, 67
7, 192960, Note_on_c, 5, 42, 67
7, 193320, Note_off_c, 5, 30, 0
7, 193320, Note_off_c, 5, 42, 0
7, 194100, Control_c, 5, 64, 0
7, 194400, Note_on_c, 5, 44, 78
7, 194400, Control_c, 5, 64, 127
7, 194760, Note_off_c, 5, 44, 0
7, 195840, Control_c, 5, 64, 0
7, 196800, Note_on_c, 5, 54, 55
7, 196800, Note_on_c, 5, 58, 55
7, 197160, Note_off_c, 5, 54, 0
7, 197160, Note_off_c, 5, 58, 0
7, 197280, Note_on_c, 5, 60, 52
7, 197280, Note_on_c, 5, 53, 52
7, 197640, Note_off_c, 5, 60, 0
7, 197640, Note_off_c, 5, 53, 0
7, 197760, Note_on_c, 5, 54, 50
7, 197760, Note_on_c, 5, 58, 50
7, 198120, Note_off_c, 5, 54, 0
7, 198120, Note_off_c, 5, 58, 0
7, 198240, Note_on_c, 5, 60, 47
7, 198240, Note_on_c, 5, 53, 47
7, 198600, Note_off_c, 5, 60, 0
7, 198600, Note_off_c, 5, 53, 0
7, 198720, Note_on_c, 5, 54, 44
7, 198720, Note_on_c, 5, 58, 44
7, 199080, Note_off_c, 5, 54, 0
7, 199080, Note_off_c, 5, 58, 0
7, 200160, Control_c, 5, 64, 127
7, 200160, Note_on_c, 5, 44, 40
7, 200520, Note_off_c, 5, 44, 0
7, 201120, Note_on_c, 5, 56, 41
7, 201600, Note_off_c, 5, 56, 0
7, 201600, Note_on_c, 5, 56, 42
7, 202560, Note_off_c, 5, 56, 0
7, 202560, Note_on_c, 5, 44, 44
7, 203040, Note_off_c, 5, 44, 0
7, 203040, Note_on_c, 5, 44, 46
7, 204000, Note_off_c, 5, 44, 0
7, 204000, Note_on_c, 5, 56, 56
7, 204420, Control_c, 5, 64, 0
7, 204480, Note_off_c, 5, 56, 0
7, 204480, Note_on_c, 5, 59, 67
7, 204480, Control_c, 5, 64, 127
7, 205440, Note_off_c, 5, 59, 0
7, 205440, Note_on_c, 5, 47, 55
7, 205860, Control_c, 5, 64, 0
7, 205920, Note_off_c, 5, 47, 0
7, 205920, Note_on_c, 5, 46, 53
7, 205920, Control_c, 5, 64, 127
7, 206280, Note_off_c, 5, 46, 0
7, 206340, Control_c, 5, 64, 0
7, 206400, Note_on_c, 5, 51, 52
7, 206840, Note_off_c, 5, 51, 0
7, 206840, Note_on_c, 5, 44, 50
7, 206880, Control_c, 5, 64, 127
7, 207300, Control_c, 5, 64, 0
7, 207350, Note_off_c, 5, 44, 0
7, 207360, Note_on_c, 5, 49, 49
7, 207720, Note_off_c, 5, 49, 0
7, 207840, Control_c, 5, 64, 127
7, 207840, Note_on_c, 5, 42, 48
7, 208200, Note_off_c, 5, 42, 0
7, 208280, Note_on_c, 5, 39, 46
7, 208500, Control_c, 5, 64, 0
7, 208665, Note_off_c, 5, 39, 0
7, 208800, Note_on_c, 5, 51, 45
7, 208800, Note_on_c, 5, 44, 45
7, 209760, Note_off_c, 5, 51, 0
7, 209760, Note_on_c, 5, 56, 42
7, 210240, Note_off_c, 5, 44, 0
7, 210240, Note_off_c, 5, 56, 0
7, 210240, Note_on_c, 5, 49, 40
7, 210600, Note_off_c, 5, 49, 0
7, 211680, Control_c, 5, 64, 127
7, 211680, Note_on_c, 5, 32, 36
7, 212160, Note_off_c, 5, 32, 0
7, 212640, Note_on_c, 5, 56, 38
7, 213120, Note_off_c, 5, 56, 0
7, 213120, Note_on_c, 5, 56, 39
7, 214080, Note_off_c, 5, 56, 0
7, 214080, Note_on_c, 5, 44, 41
7, 214560, Note_off_c, 5, 44, 0
7, 214560, Note_on_c, 5, 44, 42
7, 215520, Note_off_c, 5, 44, 0
7, 215520, Note_on_c, 5, 56, 53
7, 215940, Control_c, 5, 64, 0
7, 216000, Note_off_c, 5, 56, 0
7, 216000, Note_on_c, 5, 59, 62
7, 216000, Control_c, 5, 64, 127
7, 216960, Note_off_c, 5, 59, 0
7, 216960, Note_on_c, 5, 47, 47
7, 217380, Control_c, 5, 64, 0
7, 217440, Note_off_c, 5, 47, 0
7, 217440, Note_on_c, 5, 46, 44
7, 217440, Control_c, 5, 64, 127
7, 217800, Note_off_c, 5, 46, 0
7, 217860, Control_c, 5, 64, 0
7, 217920, Note_on_c, 5, 51, 46
7, 218360, Note_off_c, 5, 51, 0
7, 218360, Note_on_c, 5, 44, 47
7, 218400, Control_c, 5, 64, 127
7, 218400, Note_on_c, 5, 60, 47
7, 218820, Control_c, 5, 64, 0
7, 218875, Note_off_c, 5, 44, 0
7, 218880, Note_off_c, 5, 60, 0
7, 218880, Note_on_c, 5, 61, 49
7, 218880, Note_on_c, 5, 49, 49
7, 219120, Control_c, 5, 64, 127
7, 219300, Control_c, 5, 64, 0
7, 219320, Note_off_c, 5, 61, 0
7, 219320, Note_on_c, 5, 44, 51
7, 219325, Note_off_c, 5, 49, 0
7, 219360, Note_on_c, 5, 60, 51
7, 219600, Control_c, 5, 64, 127
7, 219780, Control_c, 5, 64, 0
7, 219835, Note_off_c, 5, 44, 0
7, 219840, Note_off_c, 5, 60, 0
7, 219840, Note_on_c, 5, 61, 53
7, 219840, Note_on_c, 5, 49, 53
7, 220080, Control_c, 5, 64, 127
7, 220200, Note_off_c, 5, 61, 0
7, 220200, Note_off_c, 5, 49, 0
7, 220260, Control_c, 5, 64, 0
7, 220280, Note_on_c, 5, 44, 54
7, 220320, Note_on_c, 5, 60, 55
7, 220560, Control_c, 5, 64, 127
7, 220680, Note_off_c, 5, 60, 0
7, 220712, Note_off_c, 5, 44, 0
7, 220740, Control_c, 5, 64, 0
7, 220760, Note_on_c, 5, 44, 57
7, 220800, Note_on_c, 5, 61, 57
7, 221040, Control_c, 5, 64, 127
7, 221160, Note_off_c, 5, 61, 0
7, 221192, Note_off_c, 5, 44, 0
7, 221220, Control_c, 5, 64, 0
7, 221240, Note_on_c, 5, 44, 60
7, 221280, Note_on_c, 5, 62, 60
7, 221520, Control_c, 5, 64, 127
7, 221640, Note_off_c, 5, 62, 0
7, 221672, Note_off_c, 5, 44, 0
7, 221700, Control_c, 5, 64, 0
7, 221720, Note_on_c, 5, 44, 62
7, 221760, Note_on_c, 5, 63, 63
7, 222000, Control_c, 5, 64, 127
7, 222120, Note_off_c, 5, 63, 0
7, 222152, Note_off_c, 5, 44, 0
7, 222180, Control_c, 5, 64, 0
7, 222200, Note_on_c, 5, 44, 65
7, 222240, Note_on_c, 5, 64, 65
7, 222480, Control_c, 5, 64, 127
7, 222600, Note_off_c, 5, 64, 0
7, 222632, Note_off_c, 5, 44, 0
7, 222660, Control_c, 5, 64, 0
7, 222680, Note_on_c, 5, 44, 68
7, 222720, Note_on_c, 5, 65, 68
7, 222960, Control_c, 5, 64, 127
7, 223080, Note_off_c, 5, 65, 0
7, 223112, Note_off_c, 5, 44, 0
7, 223140, Control_c, 5, 64, 0
7, 223160, Note_on_c, 5, 44, 70
7, 223200, Note_on_c, 5, 66, 71
7, 223440, Control_c, 5, 64, 127
7, 223560, Note_off_c, 5, 66, 0
7, 223592, Note_off_c, 5, 44, 0
7, 223620, Control_c, 5, 64, 0
7, 224160, Note_on_c, 5, 44, 76
7, 224160, Control_c, 5, 64, 127
7, 224520, Note_off_c, 5, 44, 0
7, 224640, Note_on_c, 5, 56, 79
7, 225000, Note_off_c, 5, 56, 0
7, 225600, Note_on_c, 5, 56, 84
7, 225960, Note_off_c, 5, 56, 0
7, 228900, Control_c, 5, 64, 0
7, 228960, Note_on_c, 5, 61, 39
7, 228960, Control_c, 5, 64, 127
7, 228960, Note_on_c, 5, 68, 39
7, 229440, Note_off_c, 5, 61, 0
7, 229440, Note_off_c, 5, 68, 0
7, 233940, Control_c, 5, 64, 0
7, 234720, Note_on_c, 5, 44, 90
7, 234720, Control_c, 5, 64, 127
7, 235080, Note_off_c, 5, 44, 0
7, 236160, Note_on_c, 5, 32, 106
7, 237600, Control_c, 5, 64, 0
7, 237600, Note_off_c, 5, 32, 0
7, 237600, Note_on_c, 5, 37, 107
7, 239520, Note_off_c, 5, 37, 0
7, 240480, Control_c, 5, 0, 0
7, 240480, Control_c, 5, 32, 0
7, 240480, Program_c, 5, 0
7, 240480, Control_c, 5, 64, 0
7, 240480, Control_c, 5, 64, 0
7, 240480, Control_c, 5, 7, 125
7, 240480, Pitch_bend_c, 5, 8192
7, 240480, Control_c, 5, 1, 0
7, 240480, Control_c, 5, 93, 20
7, 240480, Control_c, 5, 91, 80
7, 240480, Control_c, 5, 10, 55
7, 241440, Note_on_c, 5, 44, 58
7, 241440, Control_c, 5, 7, 127
7, 241680, Note_off_c, 5, 44, 0
7, 241680, Note_on_c, 5, 51, 57
7, 241836, Note_off_c, 5, 51, 0
7, 241920, Note_on_c, 5, 39, 57
7, 242160, Note_off_c, 5, 39, 0
7, 242160, Note_on_c, 5, 51, 56
7, 242316, Note_off_c, 5, 51, 0
7, 242400, Note_on_c, 5, 32, 55
7, 242640, Note_off_c, 5, 32, 0
7, 242640, Note_on_c, 5, 51, 54
7, 242796, Note_off_c, 5, 51, 0
7, 242880, Note_on_c, 5, 27, 53
7, 243120, Note_off_c, 5, 27, 0
7, 243120, Note_on_c, 5, 51, 52
7, 243276, Note_off_c, 5, 51, 0
7, 243360, Note_on_c, 5, 32, 51
7, 243600, Note_off_c, 5, 32, 0
7, 243600, Note_on_c, 5, 51, 54
7, 243756, Note_off_c, 5, 51, 0
7, 243840, Note_on_c, 5, 39, 57
7, 244080, Note_off_c, 5, 39, 0
7, 244080, Note_on_c, 5, 51, 60
7, 244236, Note_off_c, 5, 51, 0
7, 244320, Note_on_c, 5, 44, 63
7, 244560, Note_off_c, 5, 44, 0
7, 244560, Note_on_c, 5, 51, 66
7, 244716, Note_off_c, 5, 51, 0
7, 244800, Note_on_c, 5, 56, 69
7, 244956, Note_off_c, 5, 56, 0
7, 245040, Note_on_c, 5, 63, 72
7, 245196, Note_off_c, 5, 63, 0
7, 245280, Note_on_c, 5, 49, 74
7, 245520, Note_off_c, 5, 49, 0
7, 245520, Note_on_c, 5, 56, 71
7, 245676, Note_off_c, 5, 56, 0
7, 245760, Note_on_c, 5, 44, 68
7, 246000, Note_off_c, 5, 44, 0
7, 246000, Note_on_c, 5, 56, 65
7, 246156, Note_off_c, 5, 56, 0
7, 246240, Note_on_c, 5, 37, 62
7, 246480, Note_off_c, 5, 37, 0
7, 246480, Note_on_c, 5, 56, 59
7, 246636, Note_off_c, 5, 56, 0
7, 246720, Note_on_c, 5, 32, 56
7, 246960, Note_off_c, 5, 32, 0
7, 246960, Note_on_c, 5, 56, 53
7, 247116, Note_off_c, 5, 56, 0
7, 247200, Note_on_c, 5, 37, 53
7, 247440, Note_off_c, 5, 37, 0
7, 247440, Note_on_c, 5, 56, 56
7, 247596, Note_off_c, 5, 56, 0
7, 247680, Note_on_c, 5, 44, 59
7, 247920, Note_off_c, 5, 44, 0
7, 247920, Note_on_c, 5, 56, 62
7, 248076, Note_off_c, 5, 56, 0
7, 248160, Note_on_c, 5, 49, 66
7, 248400, Note_off_c, 5, 49, 0
7, 248400, Note_on_c, 5, 56, 69
7, 248556, Note_off_c, 5, 56, 0
7, 248640, Note_on_c, 5, 46, 72
7, 248880, Note_off_c, 5, 46, 0
7, 248880, Note_on_c, 5, 61, 75
7, 249036, Note_off_c, 5, 61, 0
7, 249120, Note_on_c, 5, 39, 78
7, 249360, Note_off_c, 5, 39, 0
7, 249360, Note_on_c, 5, 51, 76
7, 249600, Note_on_c, 5, 60, 75
7, 249756, Note_off_c, 5, 60, 0
7, 249840, Note_on_c, 5, 58, 74
7, 249996, Note_off_c, 5, 51, 0
7, 249996, Note_off_c, 5, 58, 0
7, 250080, Note_on_c, 5, 44, 73
7, 250320, Note_off_c, 5, 44, 0
7, 250320, Note_on_c, 5, 51, 72
7, 250476, Note_off_c, 5, 51, 0
7, 250560, Note_on_c, 5, 60, 71
7, 250716, Note_off_c, 5, 60, 0
7, 250800, Note_on_c, 5, 44, 70
7, 251040, Note_off_c, 5, 44, 0
7, 251040, Note_on_c, 5, 36, 69
7, 251280, Note_off_c, 5, 36, 0
7, 251280, Note_on_c, 5, 43, 68
7, 251436, Note_off_c, 5, 43, 0
7, 251520, Note_on_c, 5, 56, 67
7, 251676, Note_off_c, 5, 56, 0
7, 251760, Note_on_c, 5, 55, 66
7, 251916, Note_off_c, 5, 55, 0
7, 252000, Note_on_c, 5, 41, 65
7, 252240, Note_off_c, 5, 41, 0
7, 252240, Note_on_c, 5, 56, 64
7, 252396, Note_off_c, 5, 56, 0
7, 252480, Note_on_c, 5, 38, 63
7, 252720, Note_off_c, 5, 38, 0
7, 252720, Note_on_c, 5, 56, 62
7, 252876, Note_off_c, 5, 56, 0
7, 252960, Note_on_c, 5, 39, 60
7, 253200, Note_off_c, 5, 39, 0
7, 253200, Note_on_c, 5, 51, 59
7, 253356, Note_off_c, 5, 51, 0
7, 253380, Note_on_c, 5, 55, 59
7, 253440, Note_off_c, 5, 55, 0
7, 253440, Note_on_c, 5, 53, 58
7, 253596, Note_off_c, 5, 53, 0
7, 253680, Note_on_c, 5, 51, 57
7, 253836, Note_off_c, 5, 51, 0
7, 253920, Note_on_c, 5, 44, 56
7, 254160, Note_off_c, 5, 44, 0
7, 254160, Note_on_c, 5, 51, 55
7, 254316, Note_off_c, 5, 51, 0
7, 254400, Note_on_c, 5, 37, 54
7, 254640, Note_off_c, 5, 37, 0
7, 254640, Note_on_c, 5, 56, 53
7, 254796, Note_off_c, 5, 56, 0
7, 254880, Note_on_c, 5, 34, 52
7, 255120, Note_off_c, 5, 34, 0
7, 255120, Note_on_c, 5, 56, 51
7, 255276, Note_off_c, 5, 56, 0
7, 255360, Note_on_c, 5, 39, 50
7, 255600, Note_off_c, 5, 39, 0
7, 255600, Note_on_c, 5, 51, 49
7, 255756, Note_off_c, 5, 51, 0
7, 255840, Note_on_c, 5, 32, 48
7, 256080, Note_off_c, 5, 32, 0
7, 256080, Note_on_c, 5, 51, 47
7, 256236, Note_off_c, 5, 51, 0
7, 256320, Note_on_c, 5, 44, 46
7, 256476, Note_off_c, 5, 44, 0
7, 256560, Note_on_c, 5, 42, 45
7, 256716, Note_off_c, 5, 42, 0
7, 256800, Note_on_c, 5, 40, 47
7, 257040, Note_off_c, 5, 40, 0
7, 257040, Note_on_c, 5, 47, 49
7, 257196, Note_off_c, 5, 47, 0
7, 257280, Note_on_c, 5, 52, 51
7, 257436, Note_off_c, 5, 52, 0
7, 257520, Note_on_c, 5, 54, 53
7, 257676, Note_off_c, 5, 54, 0
7, 257760, Note_on_c, 5, 56, 56
7, 258000, Note_off_c, 5, 56, 0
7, 258000, Note_on_c, 5, 47, 58
7, 258156, Note_off_c, 5, 47, 0
7, 258240, Note_on_c, 5, 59, 60
7, 258480, Note_off_c, 5, 59, 0
7, 258480, Note_on_c, 5, 47, 63
7, 258636, Note_off_c, 5, 47, 0
7, 258720, Note_on_c, 5, 35, 65
7, 258960, Note_off_c, 5, 35, 0
7, 258960, Note_on_c, 5, 42, 60
7, 259116, Note_off_c, 5, 42, 0
7, 259200, Note_on_c, 5, 54, 58
7, 259356, Note_off_c, 5, 54, 0
7, 259440, Note_on_c, 5, 56, 57
7, 259596, Note_off_c, 5, 56, 0
7, 259680, Note_on_c, 5, 57, 56
7, 259836, Note_off_c, 5, 57, 0
7, 259920, Note_on_c, 5, 54, 54
7, 260076, Note_off_c, 5, 54, 0
7, 260160, Note_on_c, 5, 47, 53
7, 260316, Note_off_c, 5, 47, 0
7, 260400, Note_on_c, 5, 35, 51
7, 260640, Note_off_c, 5, 35, 0
7, 260640, Note_on_c, 5, 36, 50
7, 260880, Note_off_c, 5, 36, 0
7, 260880, Note_on_c, 5, 43, 53
7, 261036, Note_off_c, 5, 43, 0
7, 261120, Note_on_c, 5, 48, 56
7, 261276, Note_off_c, 5, 48, 0
7, 261360, Note_on_c, 5, 50, 59
7, 261516, Note_off_c, 5, 50, 0
7, 261600, Note_on_c, 5, 52, 61
7, 261840, Note_off_c, 5, 52, 0
7, 261840, Note_on_c, 5, 43, 64
7, 261996, Note_off_c, 5, 43, 0
7, 262080, Note_on_c, 5, 55, 67
7, 262320, Note_off_c, 5, 55, 0
7, 262320, Note_on_c, 5, 43, 70
7, 262476, Note_off_c, 5, 43, 0
7, 262560, Note_on_c, 5, 31, 73
7, 262800, Note_off_c, 5, 31, 0
7, 262800, Note_on_c, 5, 43, 70
7, 262956, Note_off_c, 5, 43, 0
7, 263040, Note_on_c, 5, 50, 68
7, 263196, Note_off_c, 5, 50, 0
7, 263280, Note_on_c, 5, 57, 65
7, 263436, Note_off_c, 5, 57, 0
7, 263520, Note_on_c, 5, 55, 63
7, 263676, Note_off_c, 5, 55, 0
7, 263760, Note_on_c, 5, 50, 61
7, 263916, Note_off_c, 5, 50, 0
7, 264000, Note_on_c, 5, 43, 59
7, 264156, Note_off_c, 5, 43, 0
7, 264240, Note_on_c, 5, 31, 57
7, 264480, Note_off_c, 5, 31, 0
7, 264480, Note_on_c, 5, 32, 60
7, 264720, Note_off_c, 5, 32, 0
7, 264720, Note_on_c, 5, 44, 63
7, 264876, Note_off_c, 5, 44, 0
7, 264960, Note_on_c, 5, 52, 65
7, 265116, Note_off_c, 5, 52, 0
7, 265200, Note_on_c, 5, 56, 67
7, 265356, Note_off_c, 5, 56, 0
7, 265440, Note_on_c, 5, 57, 69
7, 265596, Note_off_c, 5, 57, 0
7, 265680, Note_on_c, 5, 52, 71
7, 265836, Note_off_c, 5, 52, 0
7, 265920, Note_on_c, 5, 45, 73
7, 266076, Note_off_c, 5, 45, 0
7, 266160, Note_on_c, 5, 33, 75
7, 266400, Note_off_c, 5, 33, 0
7, 266400, Note_on_c, 5, 34, 77
7, 266640, Note_off_c, 5, 34, 0
7, 266640, Note_on_c, 5, 46, 80
7, 266796, Note_off_c, 5, 46, 0
7, 266880, Note_on_c, 5, 54, 82
7, 267036, Note_off_c, 5, 54, 0
7, 267120, Note_on_c, 5, 58, 84
7, 267276, Note_off_c, 5, 58, 0
7, 267360, Note_on_c, 5, 59, 86
7, 267516, Note_off_c, 5, 59, 0
7, 267600, Note_on_c, 5, 54, 88
7, 267756, Note_off_c, 5, 54, 0
7, 267840, Note_on_c, 5, 47, 90
7, 267996, Note_off_c, 5, 47, 0
7, 268080, Note_on_c, 5, 35, 93
7, 268320, Note_off_c, 5, 35, 0
7, 268320, Note_on_c, 5, 36, 97
7, 268560, Note_off_c, 5, 36, 0
7, 268560, Note_on_c, 5, 55, 95
7, 268716, Note_off_c, 5, 55, 0
7, 268800, Note_on_c, 5, 39, 93
7, 269040, Note_off_c, 5, 39, 0
7, 269040, Note_on_c, 5, 54, 92
7, 269196, Note_off_c, 5, 54, 0
7, 269280, Note_on_c, 5, 46, 90
7, 269520, Note_off_c, 5, 46, 0
7, 269520, Note_on_c, 5, 53, 88
7, 269676, Note_off_c, 5, 53, 0
7, 269760, Note_on_c, 5, 38, 87
7, 270000, Note_off_c, 5, 38, 0
7, 270000, Note_on_c, 5, 57, 85
7, 270156, Note_off_c, 5, 57, 0
7, 270240, Note_on_c, 5, 40, 83
7, 270480, Note_off_c, 5, 40, 0
7, 270480, Note_on_c, 5, 52, 81
7, 270636, Note_off_c, 5, 52, 0
7, 270720, Note_on_c, 5, 56, 80
7, 270876, Note_off_c, 5, 56, 0
7, 270960, Note_on_c, 5, 52, 78
7, 271116, Note_off_c, 5, 52, 0
7, 271200, Note_on_c, 5, 45, 79
7, 271440, Note_off_c, 5, 45, 0
7, 271440, Note_on_c, 5, 52, 86
7, 271596, Note_off_c, 5, 52, 0
7, 271680, Note_on_c, 5, 57, 94
7, 271836, Note_off_c, 5, 57, 0
7, 271920, Note_on_c, 5, 60, 101
7, 272076, Note_off_c, 5, 60, 0
7, 272160, Note_on_c, 5, 41, 108
7, 272400, Note_off_c, 5, 41, 0
7, 272400, Note_on_c, 5, 60, 105
7, 272556, Note_off_c, 5, 60, 0
7, 272640, Note_on_c, 5, 44, 102
7, 272880, Note_off_c, 5, 44, 0
7, 272880, Note_on_c, 5, 60, 99
7, 273036, Note_off_c, 5, 60, 0
7, 273120, Note_on_c, 5, 48, 96
7, 273360, Note_off_c, 5, 48, 0
7, 273360, Note_on_c, 5, 55, 92
7, 273516, Note_off_c, 5, 55, 0
7, 273600, Note_on_c, 5, 39, 89
7, 273840, Note_off_c, 5, 39, 0
7, 273840, Note_on_c, 5, 58, 86
7, 273996, Note_off_c, 5, 58, 0
7, 274080, Note_on_c, 5, 41, 83
7, 274320, Note_off_c, 5, 41, 0
7, 274320, Note_on_c, 5, 53, 80
7, 274476, Note_off_c, 5, 53, 0
7, 274560, Note_on_c, 5, 57, 77
7, 274716, Note_off_c, 5, 57, 0
7, 274800, Note_on_c, 5, 53, 74
7, 274956, Note_off_c, 5, 53, 0
7, 275040, Note_on_c, 5, 46, 71
7, 275280, Note_off_c, 5, 46, 0
7, 275280, Note_on_c, 5, 53, 68
7, 275436, Note_off_c, 5, 53, 0
7, 275520, Note_on_c, 5, 58, 64
7, 275676, Note_off_c, 5, 58, 0
7, 275760, Note_on_c, 5, 43, 61
7, 276000, Note_off_c, 5, 43, 0
7, 276000, Note_on_c, 5, 36, 58
7, 276240, Note_off_c, 5, 36, 0
7, 276240, Note_on_c, 5, 48, 60
7, 276480, Note_on_c, 5, 56, 63
7, 276636, Note_off_c, 5, 56, 0
7, 276720, Note_on_c, 5, 55, 66
7, 276876, Note_off_c, 5, 48, 0
7, 276876, Note_off_c, 5, 55, 0
7, 276960, Note_on_c, 5, 36, 69
7, 277200, Note_off_c, 5, 36, 0
7, 277200, Note_on_c, 5, 48, 72
7, 277440, Note_on_c, 5, 56, 75
7, 277596, Note_off_c, 5, 56, 0
7, 277680, Note_on_c, 5, 61, 78
7, 277836, Note_off_c, 5, 48, 0
7, 277836, Note_off_c, 5, 61, 0
7, 277920, Note_on_c, 5, 48, 81
7, 278160, Note_off_c, 5, 48, 0
7, 278160, Note_on_c, 5, 65, 76
7, 278160, Note_on_c, 5, 56, 76
7, 278316, Note_off_c, 5, 65, 0
7, 278316, Note_off_c, 5, 56, 0
7, 278400, Note_on_c, 5, 48, 73
7, 278640, Note_off_c, 5, 48, 0
7, 278640, Note_on_c, 5, 64, 69
7, 278640, Note_on_c, 5, 55, 69
7, 278796, Note_off_c, 5, 64, 0
7, 278796, Note_off_c, 5, 55, 0
7, 278880, Note_on_c, 5, 48, 66
7, 279120, Note_off_c, 5, 48, 0
7, 279120, Note_on_c, 5, 60, 60
7, 279120, Note_on_c, 5, 55, 60
7, 279276, Note_off_c, 5, 60, 0
7, 279276, Note_off_c, 5, 55, 0
7, 279360, Note_on_c, 5, 46, 54
7, 279600, Note_off_c, 5, 46, 0
7, 279600, Note_on_c, 5, 61, 48
7, 279600, Note_on_c, 5, 51, 48
7, 279756, Note_off_c, 5, 61, 0
7, 279756, Note_off_c, 5, 51, 0
7, 279840, Note_on_c, 5, 44, 57
7, 280080, Note_off_c, 5, 44, 0
7, 280080, Note_on_c, 5, 51, 56
7, 280236, Note_off_c, 5, 51, 0
7, 280320, Note_on_c, 5, 39, 55
7, 280560, Note_off_c, 5, 39, 0
7, 280560, Note_on_c, 5, 51, 54
7, 280716, Note_off_c, 5, 51, 0
7, 280800, Note_on_c, 5, 32, 53
7, 281040, Note_off_c, 5, 32, 0
7, 281040, Note_on_c, 5, 51, 51
7, 281196, Note_off_c, 5, 51, 0
7, 281280, Note_on_c, 5, 27, 50
7, 281520, Note_off_c, 5, 27, 0
7, 281520, Note_on_c, 5, 51, 49
7, 281676, Note_off_c, 5, 51, 0
7, 281760, Note_on_c, 5, 32, 50
7, 282000, Note_off_c, 5, 32, 0
7, 282000, Note_on_c, 5, 51, 52
7, 282156, Note_off_c, 5, 51, 0
7, 282240, Note_on_c, 5, 39, 53
7, 282480, Note_off_c, 5, 39, 0
7, 282480, Note_on_c, 5, 51, 54
7, 282636, Note_off_c, 5, 51, 0
7, 282720, Note_on_c, 5, 44, 56
7, 282960, Note_off_c, 5, 44, 0
7, 282960, Note_on_c, 5, 51, 57
7, 283116, Note_off_c, 5, 51, 0
7, 283200, Note_on_c, 5, 56, 59
7, 283356, Note_off_c, 5, 56, 0
7, 283440, Note_on_c, 5, 63, 60
7, 283596, Note_off_c, 5, 63, 0
7, 283680, Note_on_c, 5, 49, 63
7, 283920, Note_off_c, 5, 49, 0
7, 283920, Note_on_c, 5, 56, 62
7, 284076, Note_off_c, 5, 56, 0
7, 284160, Note_on_c, 5, 44, 61
7, 284400, Note_off_c, 5, 44, 0
7, 284400, Note_on_c, 5, 56, 60
7, 284556, Note_off_c, 5, 56, 0
7, 284640, Note_on_c, 5, 37, 59
7, 284880, Note_off_c, 5, 37, 0
7, 284880, Note_on_c, 5, 56, 57
7, 285036, Note_off_c, 5, 56, 0
7, 285120, Note_on_c, 5, 32, 56
7, 285360, Note_off_c, 5, 32, 0
7, 285360, Note_on_c, 5, 56, 55
7, 285516, Note_off_c, 5, 56, 0
7, 285600, Note_on_c, 5, 37, 55
7, 285840, Note_off_c, 5, 37, 0
7, 285840, Note_on_c, 5, 56, 58
7, 285996, Note_off_c, 5, 56, 0
7, 286080, Note_on_c, 5, 44, 61
7, 286320, Note_off_c, 5, 44, 0
7, 286320, Note_on_c, 5, 56, 64
7, 286476, Note_off_c, 5, 56, 0
7, 286560, Note_on_c, 5, 49, 67
7, 286800, Note_off_c, 5, 49, 0
7, 286800, Note_on_c, 5, 56, 70
7, 286956, Note_off_c, 5, 56, 0
7, 287040, Note_on_c, 5, 46, 73
7, 287280, Note_off_c, 5, 46, 0
7, 287280, Note_on_c, 5, 61, 76
7, 287436, Note_off_c, 5, 61, 0
7, 287520, Note_on_c, 5, 39, 78
7, 287760, Note_off_c, 5, 39, 0
7, 287760, Note_on_c, 5, 51, 76
7, 288000, Note_on_c, 5, 60, 75
7, 288156, Note_off_c, 5, 60, 0
7, 288240, Note_on_c, 5, 58, 73
7, 288396, Note_off_c, 5, 51, 0
7, 288396, Note_off_c, 5, 58, 0
7, 288480, Note_on_c, 5, 44, 72
7, 288720, Note_off_c, 5, 44, 0
7, 288720, Note_on_c, 5, 51, 71
7, 288876, Note_off_c, 5, 51, 0
7, 288960, Note_on_c, 5, 60, 69
7, 289116, Note_off_c, 5, 60, 0
7, 289200, Note_on_c, 5, 44, 68
7, 289440, Note_off_c, 5, 44, 0
7, 289440, Note_on_c, 5, 36, 66
7, 289680, Note_off_c, 5, 36, 0
7, 289680, Note_on_c, 5, 43, 65
7, 289836, Note_off_c, 5, 43, 0
7, 289920, Note_on_c, 5, 56, 63
7, 290076, Note_off_c, 5, 56, 0
7, 290160, Note_on_c, 5, 55, 62
7, 290316, Note_off_c, 5, 55, 0
7, 290400, Note_on_c, 5, 41, 60
7, 290640, Note_off_c, 5, 41, 0
7, 290640, Note_on_c, 5, 56, 57
7, 290796, Note_off_c, 5, 56, 0
7, 290880, Note_on_c, 5, 38, 56
7, 291120, Note_off_c, 5, 38, 0
7, 291120, Note_on_c, 5, 56, 55
7, 291276, Note_off_c, 5, 56, 0
7, 291360, Note_on_c, 5, 39, 54
7, 291600, Note_off_c, 5, 39, 0
7, 291600, Note_on_c, 5, 51, 53
7, 291756, Note_off_c, 5, 51, 0
7, 291780, Note_on_c, 5, 55, 52
7, 291840, Note_off_c, 5, 55, 0
7, 291840, Note_on_c, 5, 53, 52
7, 291996, Note_off_c, 5, 53, 0
7, 292080, Note_on_c, 5, 51, 51
7, 292236, Note_off_c, 5, 51, 0
7, 292320, Note_on_c, 5, 44, 50
7, 292560, Note_off_c, 5, 44, 0
7, 292560, Note_on_c, 5, 51, 49
7, 292716, Note_off_c, 5, 51, 0
7, 292800, Note_on_c, 5, 37, 48
7, 293040, Note_off_c, 5, 37, 0
7, 293040, Note_on_c, 5, 56, 47
7, 293196, Note_off_c, 5, 56, 0
7, 293280, Note_on_c, 5, 34, 45
7, 293520, Note_off_c, 5, 34, 0
7, 293520, Note_on_c, 5, 56, 44
7, 293676, Note_off_c, 5, 56, 0
7, 293760, Note_on_c, 5, 39, 43
7, 294000, Note_on_c, 5, 51, 42
7, 294156, Note_off_c, 5, 39, 0
7, 294156, Note_off_c, 5, 51, 0
7, 295200, Note_on_c, 5, 44, 37
7, 295440, Note_off_c, 5, 44, 0
7, 295440, Note_on_c, 5, 51, 36
7, 295596, Note_off_c, 5, 51, 0
7, 295680, Note_on_c, 5, 44, 35
7, 295920, Note_off_c, 5, 44, 0
7, 295920, Note_on_c, 5, 51, 34
7, 296076, Note_off_c, 5, 51, 0
7, 296560, Note_on_c, 5, 50, 31
7, 296600, Note_off_c, 5, 50, 0
7, 296600, Note_on_c, 5, 51, 31
7, 296640, Note_off_c, 5, 51, 0
7, 296640, Note_on_c, 5, 53, 31
7, 296680, Note_off_c, 5, 53, 0
7, 296680, Note_on_c, 5, 51, 30
7, 296720, Note_off_c, 5, 51, 0
7, 296720, Note_on_c, 5, 53, 30
7, 296760, Note_off_c, 5, 53, 0
7, 296760, Note_on_c, 5, 51, 30
7, 296800, Note_off_c, 5, 51, 0
7, 296800, Note_on_c, 5, 53, 30
7, 296840, Note_off_c, 5, 53, 0
7, 296840, Note_on_c, 5, 51, 30
7, 296880, Note_off_c, 5, 51, 0
7, 296880, Note_on_c, 5, 53, 30
7, 296920, Note_off_c, 5, 53, 0
7, 296920, Note_on_c, 5, 51, 29
7, 296960, Note_off_c, 5, 51, 0
7, 296960, Note_on_c, 5, 53, 29
7, 297000, Note_off_c, 5, 53, 0
7, 297000, Note_on_c, 5, 51, 29
7, 297040, Note_off_c, 5, 51, 0
7, 297040, Note_on_c, 5, 50, 29
7, 297080, Note_off_c, 5, 50, 0
7, 297080, Note_on_c, 5, 51, 29
7, 297120, Note_on_c, 5, 39, 28
7, 298080, Note_off_c, 5, 39, 0
7, 298080, Note_on_c, 5, 44, 24
7, 299040, Note_off_c, 5, 51, 0
7, 299040, Note_off_c, 5, 44, 0
7, 299040, End_track
0, 0, End_of_file