0, 0, Header, 1, 5, 384
1, 0, Start_track
1, 0, Time_signature, 4, 2, 96, 8
1, 0, Sequencer_specific, 03, 00, 00, 41
1, 0, Tempo, 476190
1, 2852, Tempo, 483870
1, 21324, Tempo, 508474
1, 21636, Tempo, 495867
1, 21968, Tempo, 504201
1, 22300, Tempo, 487804
1, 31064, Tempo, 504201
1, 31932, Tempo, 487804
1, 36864, Tempo, 483870
1, 41936, Tempo, 504201
1, 50880, Tempo, 504201
1, 50944, Tempo, 508474
1, 51012, Tempo, 512820
1, 51080, Tempo, 517241
1, 51148, Tempo, 521739
1, 51216, Tempo, 526315
1, 51280, Tempo, 526315
1, 51348, Tempo, 530973
1, 51416, Tempo, 535714
1, 51484, Tempo, 540540
1, 51552, Tempo, 545454
1, 51616, Tempo, 560747
1, 51684, Tempo, 566037
1, 51688, Tempo, 487804
1, 61828, Tempo, 487804
1, 81704, Tempo, 495867
1, 83608, Tempo, 508474
1, 87016, Tempo, 508474
1, 87132, Tempo, 508474
1, 87256, Tempo, 508474
1, 87352, Tempo, 495867
1, 91720, Tempo, 495867
1, 113080, Tempo, 504201
1, 113392, Tempo, 512820
1, 114016, Tempo, 504201
1, 115844, Tempo, 487804
1, 116164, Tempo, 487804
1, 116484, Tempo, 495867
1, 131192, Tempo, 487804
1, 136072, Tempo, 476190
1, 137360, Tempo, 487804
1, 141116, Tempo, 487804
1, 144264, Tempo, 483870
1, 144924, Tempo, 487804
1, 148672, Tempo, 483870
1, 149444, Tempo, 483870
1, 149960, Tempo, 487804
1, 156208, Tempo, 495867
1, 161088, Tempo, 508474
1, 165872, Tempo, 444444
1, 166932, Tempo, 483870
1, 166932, End_track
2, 0, Start_track
2, 0, Title_t, "Tarantelle Op 43"
2, 0, Control_c, 0, 0, 0
2, 0, Program_c, 0, 0
2, 0, Control_c, 0, 7, 127
2, 0, Control_c, 0, 10, 64
2, 0, Control_c, 0, 91, 127
2, 0, Key_signature, 0, "major"
2, 688, Note_on_c, 0, 63, 62
2, 736, Note_off_c, 0, 63, 0
2, 896, Note_on_c, 0, 63, 70
2, 988, Note_on_c, 0, 75, 68
2, 992, Note_off_c, 0, 63, 0
2, 1048, Note_off_c, 0, 75, 0
2, 1184, Note_on_c, 0, 75, 77
2, 1252, Note_off_c, 0, 75, 0
2, 1284, Note_on_c, 0, 63, 74
2, 1344, Note_off_c, 0, 63, 0
2, 1484, Note_on_c, 0, 63, 78
2, 1588, Note_on_c, 0, 75, 77
2, 1608, Note_off_c, 0, 63, 0
2, 1648, Note_off_c, 0, 75, 0
2, 1784, Note_on_c, 0, 75, 78
2, 1868, Note_off_c, 0, 75, 0
2, 1888, Note_on_c, 0, 63, 67
2, 1960, Note_off_c, 0, 63, 0
2, 2080, Note_on_c, 0, 63, 63
2, 2164, Note_off_c, 0, 63, 0
2, 2192, Note_on_c, 0, 62, 67
2, 2256, Note_off_c, 0, 62, 0
2, 2396, Note_on_c, 0, 62, 64
2, 2468, Note_off_c, 0, 62, 0
2, 2512, Note_on_c, 0, 61, 62
2, 2588, Note_off_c, 0, 61, 0
2, 2720, Note_on_c, 0, 61, 59
2, 2828, Note_off_c, 0, 61, 0
2, 2848, Note_on_c, 0, 44, 53
2, 2852, Note_on_c, 0, 60, 68
2, 2912, Note_off_c, 0, 44, 0
2, 2944, Note_on_c, 0, 61, 65
2, 2952, Note_on_c, 0, 56, 47
2, 3012, Note_off_c, 0, 61, 0
2, 3040, Note_off_c, 0, 56, 0
2, 3044, Note_on_c, 0, 62, 60
2, 3056, Note_on_c, 0, 51, 45
2, 3120, Note_off_c, 0, 62, 0
2, 3140, Note_on_c, 0, 63, 64
2, 3160, Note_off_c, 0, 51, 0
2, 3168, Note_on_c, 0, 44, 45
2, 3236, Note_off_c, 0, 63, 0
2, 3244, Note_on_c, 0, 67, 78
2, 3244, Note_on_c, 0, 56, 46
2, 3264, Note_off_c, 0, 44, 0
2, 3284, Note_off_c, 0, 60, 0
2, 3312, Note_off_c, 0, 56, 0
2, 3324, Note_off_c, 0, 67, 0
2, 3328, Note_on_c, 0, 65, 66
2, 3348, Note_on_c, 0, 51, 44
2, 3428, Note_off_c, 0, 65, 0
2, 3440, Note_off_c, 0, 51, 0
2, 3444, Note_on_c, 0, 63, 80
2, 3452, Note_on_c, 0, 58, 65
2, 3452, Note_on_c, 0, 43, 60
2, 3504, Note_off_c, 0, 58, 0
2, 3516, Note_off_c, 0, 63, 0
2, 3560, Note_on_c, 0, 55, 55
2, 3576, Note_off_c, 0, 43, 0
2, 3600, Note_off_c, 0, 55, 0
2, 3644, Note_on_c, 0, 58, 62
2, 3648, Note_on_c, 0, 63, 71
2, 3648, Note_on_c, 0, 51, 49
2, 3692, Note_off_c, 0, 51, 0
2, 3696, Note_off_c, 0, 58, 0
2, 3712, Note_off_c, 0, 63, 0
2, 3748, Note_on_c, 0, 68, 81
2, 3756, Note_on_c, 0, 61, 62
2, 3756, Note_on_c, 0, 41, 60
2, 3800, Note_off_c, 0, 61, 0
2, 3812, Note_off_c, 0, 68, 0
2, 3816, Note_off_c, 0, 41, 0
2, 3868, Note_on_c, 0, 53, 54
2, 3936, Note_off_c, 0, 53, 0
2, 3948, Note_on_c, 0, 68, 72
2, 3964, Note_on_c, 0, 61, 57
2, 3972, Note_on_c, 0, 49, 46
2, 3988, Note_off_c, 0, 61, 0
2, 4000, Note_off_c, 0, 49, 0
2, 4016, Note_off_c, 0, 68, 0
2, 4064, Note_on_c, 0, 40, 56
2, 4064, Note_on_c, 0, 55, 72
2, 4132, Note_off_c, 0, 55, 0
2, 4144, Note_off_c, 0, 40, 0
2, 4168, Note_on_c, 0, 52, 53
2, 4228, Note_off_c, 0, 52, 0
2, 4256, Note_on_c, 0, 55, 72
2, 4284, Note_on_c, 0, 48, 43
2, 4324, Note_off_c, 0, 55, 0
2, 4324, Note_off_c, 0, 48, 0
2, 4364, Note_on_c, 0, 67, 78
2, 4368, Note_on_c, 0, 40, 58
2, 4372, Note_on_c, 0, 60, 66
2, 4436, Note_off_c, 0, 67, 0
2, 4436, Note_off_c, 0, 60, 0
2, 4452, Note_off_c, 0, 40, 0
2, 4460, Note_on_c, 0, 52, 51
2, 4556, Note_off_c, 0, 52, 0
2, 4560, Note_on_c, 0, 67, 77
2, 4564, Note_on_c, 0, 48, 48
2, 4616, Note_off_c, 0, 67, 0
2, 4636, Note_off_c, 0, 48, 0
2, 4672, Note_on_c, 0, 54, 76
2, 4676, Note_on_c, 0, 39, 50
2, 4748, Note_off_c, 0, 54, 0
2, 4752, Note_off_c, 0, 39, 0
2, 4764, Note_on_c, 0, 51, 49
2, 4856, Note_on_c, 0, 54, 67
2, 4876, Note_off_c, 0, 51, 0
2, 4880, Note_on_c, 0, 47, 45
2, 4920, Note_off_c, 0, 47, 0
2, 4928, Note_off_c, 0, 54, 0
2, 4968, Note_on_c, 0, 66, 70
2, 4980, Note_on_c, 0, 59, 68
2, 4980, Note_on_c, 0, 39, 49
2, 5004, Note_off_c, 0, 59, 0
2, 5040, Note_off_c, 0, 66, 0
2, 5048, Note_off_c, 0, 39, 0
2, 5068, Note_on_c, 0, 51, 50
2, 5140, Note_off_c, 0, 51, 0
2, 5160, Note_on_c, 0, 66, 73
2, 5168, Note_on_c, 0, 47, 52
2, 5224, Note_off_c, 0, 66, 0
2, 5232, Note_off_c, 0, 47, 0
2, 5264, Note_on_c, 0, 65, 83
2, 5272, Note_on_c, 0, 53, 70
2, 5272, Note_on_c, 0, 39, 50
2, 5296, Note_off_c, 0, 53, 0
2, 5344, Note_on_c, 0, 51, 57
2, 5364, Note_on_c, 0, 55, 75
2, 5424, Note_off_c, 0, 51, 0
2, 5436, Note_off_c, 0, 39, 0
2, 5436, Note_off_c, 0, 55, 0
2, 5456, Note_on_c, 0, 57, 76
2, 5476, Note_on_c, 0, 41, 49
2, 5552, Note_off_c, 0, 57, 0
2, 5556, Note_on_c, 0, 58, 76
2, 5560, Note_off_c, 0, 41, 0
2, 5568, Note_on_c, 0, 37, 56
2, 5628, Note_off_c, 0, 58, 0
2, 5648, Note_on_c, 0, 60, 85
2, 5648, Note_on_c, 0, 49, 56
2, 5672, Note_off_c, 0, 37, 0
2, 5744, Note_off_c, 0, 60, 0
2, 5744, Note_off_c, 0, 49, 0
2, 5752, Note_on_c, 0, 61, 80
2, 5760, Note_on_c, 0, 41, 48
2, 5836, Note_off_c, 0, 41, 0
2, 5848, Note_on_c, 0, 63, 88
2, 5864, Note_off_c, 0, 61, 0
2, 5868, Note_on_c, 0, 36, 64
2, 5872, Note_off_c, 0, 65, 0
2, 5908, Note_off_c, 0, 63, 0
2, 5952, Note_on_c, 0, 48, 68
2, 5984, Note_off_c, 0, 36, 0
2, 6020, Note_off_c, 0, 48, 0
2, 6052, Note_on_c, 0, 41, 47
2, 6052, Note_on_c, 0, 65, 83
2, 6056, Note_on_c, 0, 63, 65
2, 6108, Note_off_c, 0, 63, 0
2, 6120, Note_off_c, 0, 41, 0
2, 6128, Note_off_c, 0, 65, 0
2, 6152, Note_on_c, 0, 73, 90
2, 6156, Note_on_c, 0, 70, 74
2, 6168, Note_on_c, 0, 34, 55
2, 6200, Note_off_c, 0, 70, 0
2, 6220, Note_off_c, 0, 73, 0
2, 6244, Note_on_c, 0, 46, 63
2, 6304, Note_off_c, 0, 34, 0
2, 6360, Note_on_c, 0, 73, 85
2, 6368, Note_on_c, 0, 70, 64
2, 6380, Note_off_c, 0, 46, 0
2, 6380, Note_on_c, 0, 41, 45
2, 6428, Note_off_c, 0, 73, 0
2, 6428, Note_off_c, 0, 70, 0
2, 6456, Note_on_c, 0, 39, 48
2, 6464, Note_off_c, 0, 41, 0
2, 6464, Note_on_c, 0, 61, 80
2, 6464, Note_on_c, 0, 63, 84
2, 6504, Note_off_c, 0, 39, 0
2, 6512, Note_off_c, 0, 61, 0
2, 6528, Note_off_c, 0, 63, 0
2, 6560, Note_on_c, 0, 55, 67
2, 6616, Note_off_c, 0, 55, 0
2, 6656, Note_on_c, 0, 51, 59
2, 6660, Note_on_c, 0, 61, 65
2, 6660, Note_on_c, 0, 63, 73
2, 6680, Note_off_c, 0, 51, 0
2, 6720, Note_off_c, 0, 61, 0
2, 6732, Note_off_c, 0, 63, 0
2, 6764, Note_on_c, 0, 39, 69
2, 6768, Note_on_c, 0, 72, 83
2, 6776, Note_on_c, 0, 68, 54
2, 6816, Note_off_c, 0, 39, 0
2, 6816, Note_off_c, 0, 68, 0
2, 6828, Note_off_c, 0, 72, 0
2, 6872, Note_on_c, 0, 56, 57
2, 6944, Note_off_c, 0, 56, 0
2, 6968, Note_on_c, 0, 72, 88
2, 6980, Note_on_c, 0, 51, 48
2, 7000, Note_off_c, 0, 51, 0
2, 7036, Note_off_c, 0, 72, 0
2, 7068, Note_on_c, 0, 39, 67
2, 7084, Note_on_c, 0, 70, 74
2, 7088, Note_on_c, 0, 61, 65
2, 7120, Note_off_c, 0, 39, 0
2, 7140, Note_off_c, 0, 61, 0
2, 7160, Note_off_c, 0, 70, 0
2, 7172, Note_on_c, 0, 55, 56
2, 7204, Note_off_c, 0, 55, 0
2, 7280, Note_on_c, 0, 70, 74
2, 7296, Note_on_c, 0, 51, 47
2, 7360, Note_off_c, 0, 70, 0
2, 7376, Note_off_c, 0, 51, 0
2, 7384, Note_on_c, 0, 68, 67
2, 7396, Note_on_c, 0, 60, 59
2, 7400, Note_on_c, 0, 44, 47
2, 7424, Note_off_c, 0, 60, 0
2, 7452, Note_off_c, 0, 68, 0
2, 7488, Note_on_c, 0, 56, 52
2, 7492, Note_off_c, 0, 44, 0
2, 7564, Note_off_c, 0, 56, 0
2, 7596, Note_on_c, 0, 68, 69
2, 7608, Note_on_c, 0, 51, 43
2, 7656, Note_off_c, 0, 51, 0
2, 7664, Note_off_c, 0, 68, 0
2, 7708, Note_on_c, 0, 60, 66
2, 7724, Note_on_c, 0, 44, 44
2, 7796, Note_on_c, 0, 61, 71
2, 7800, Note_on_c, 0, 56, 42
2, 7864, Note_off_c, 0, 61, 0
2, 7884, Note_off_c, 0, 44, 0
2, 7896, Note_off_c, 0, 56, 0
2, 7896, Note_on_c, 0, 62, 64
2, 7904, Note_on_c, 0, 51, 45
2, 7980, Note_off_c, 0, 62, 0
2, 7984, Note_on_c, 0, 63, 73
2, 7988, Note_on_c, 0, 44, 46
2, 8032, Note_off_c, 0, 51, 0
2, 8084, Note_on_c, 0, 67, 69
2, 8088, Note_off_c, 0, 63, 0
2, 8088, Note_on_c, 0, 56, 45
2, 8092, Note_off_c, 0, 44, 0
2, 8160, Note_off_c, 0, 67, 0
2, 8168, Note_off_c, 0, 60, 0
2, 8180, Note_on_c, 0, 65, 70
2, 8208, Note_off_c, 0, 56, 0
2, 8224, Note_on_c, 0, 51, 44
2, 8288, Note_off_c, 0, 65, 0
2, 8288, Note_on_c, 0, 63, 71
2, 8300, Note_on_c, 0, 58, 58
2, 8304, Note_off_c, 0, 51, 0
2, 8312, Note_on_c, 0, 43, 55
2, 8340, Note_off_c, 0, 58, 0
2, 8352, Note_off_c, 0, 63, 0
2, 8384, Note_off_c, 0, 43, 0
2, 8408, Note_on_c, 0, 55, 48
2, 8472, Note_off_c, 0, 55, 0
2, 8492, Note_on_c, 0, 58, 60
2, 8496, Note_on_c, 0, 51, 55
2, 8504, Note_on_c, 0, 63, 61
2, 8560, Note_off_c, 0, 58, 0
2, 8568, Note_off_c, 0, 51, 0
2, 8568, Note_off_c, 0, 63, 0
2, 8600, Note_on_c, 0, 68, 71
2, 8600, Note_on_c, 0, 61, 61
2, 8620, Note_on_c, 0, 41, 62
2, 8656, Note_off_c, 0, 61, 0
2, 8672, Note_off_c, 0, 68, 0
2, 8708, Note_off_c, 0, 41, 0
2, 8732, Note_on_c, 0, 53, 50
2, 8800, Note_on_c, 0, 68, 71
2, 8804, Note_off_c, 0, 53, 0
2, 8812, Note_on_c, 0, 49, 46
2, 8820, Note_on_c, 0, 61, 48
2, 8876, Note_off_c, 0, 68, 0
2, 8876, Note_off_c, 0, 61, 0
2, 8880, Note_off_c, 0, 49, 0
2, 8900, Control_c, 0, 64, 24
2, 8912, Control_c, 0, 64, 40
2, 8912, Note_on_c, 0, 55, 68
2, 8924, Note_on_c, 0, 40, 53
2, 8948, Control_c, 0, 64, 0
2, 8972, Note_off_c, 0, 55, 0
2, 8992, Note_off_c, 0, 40, 0
2, 9012, Note_on_c, 0, 52, 53
2, 9092, Note_off_c, 0, 52, 0
2, 9108, Note_on_c, 0, 55, 72
2, 9136, Note_on_c, 0, 48, 47
2, 9168, Note_off_c, 0, 55, 0
2, 9172, Note_off_c, 0, 48, 0
2, 9212, Note_on_c, 0, 40, 55
2, 9220, Note_on_c, 0, 67, 81
2, 9220, Note_on_c, 0, 60, 69
2, 9248, Control_c, 0, 64, 40
2, 9264, Control_c, 0, 64, 88
2, 9276, Control_c, 0, 64, 127
2, 9296, Note_off_c, 0, 40, 0
2, 9308, Note_off_c, 0, 67, 0
2, 9316, Note_on_c, 0, 52, 51
2, 9392, Note_off_c, 0, 52, 0
2, 9424, Note_on_c, 0, 67, 70
2, 9432, Note_on_c, 0, 48, 26
2, 9456, Note_off_c, 0, 48, 0
2, 9456, Control_c, 0, 64, 88
2, 9468, Control_c, 0, 64, 40
2, 9476, Note_off_c, 0, 67, 0
2, 9480, Control_c, 0, 64, 0
2, 9488, Note_off_c, 0, 60, 0
2, 9516, Note_on_c, 0, 39, 43
2, 9520, Note_on_c, 0, 54, 65
2, 9576, Note_off_c, 0, 39, 0
2, 9592, Note_off_c, 0, 54, 0
2, 9616, Note_on_c, 0, 51, 55
2, 9676, Note_off_c, 0, 51, 0
2, 9716, Note_on_c, 0, 54, 65
2, 9724, Note_on_c, 0, 47, 46
2, 9784, Note_off_c, 0, 54, 0
2, 9804, Note_off_c, 0, 47, 0
2, 9824, Note_on_c, 0, 39, 55
2, 9828, Note_on_c, 0, 66, 72
2, 9840, Note_on_c, 0, 59, 68
2, 9864, Note_off_c, 0, 59, 0
2, 9864, Control_c, 0, 64, 72
2, 9880, Control_c, 0, 64, 127
2, 9904, Note_off_c, 0, 66, 0
2, 9904, Note_on_c, 0, 51, 50
2, 9936, Note_off_c, 0, 39, 0
2, 10020, Note_off_c, 0, 51, 0
2, 10020, Note_on_c, 0, 47, 46
2, 10028, Note_on_c, 0, 66, 71
2, 10064, Note_off_c, 0, 47, 0
2, 10064, Control_c, 0, 64, 104
2, 10076, Control_c, 0, 64, 72
2, 10088, Control_c, 0, 64, 40
2, 10096, Note_off_c, 0, 66, 0
2, 10100, Control_c, 0, 64, 0
2, 10116, Note_on_c, 0, 39, 57
2, 10128, Note_on_c, 0, 53, 78
2, 10128, Note_on_c, 0, 65, 78
2, 10176, Note_off_c, 0, 53, 0
2, 10180, Note_on_c, 0, 51, 54
2, 10224, Note_on_c, 0, 55, 81
2, 10300, Note_off_c, 0, 51, 0
2, 10304, Note_off_c, 0, 39, 0
2, 10304, Note_off_c, 0, 55, 0
2, 10320, Note_on_c, 0, 57, 76
2, 10340, Note_on_c, 0, 41, 47
2, 10416, Note_off_c, 0, 57, 0
2, 10428, Note_on_c, 0, 58, 79
2, 10436, Note_off_c, 0, 41, 0
2, 10440, Note_on_c, 0, 37, 67
2, 10496, Note_off_c, 0, 58, 0
2, 10524, Note_on_c, 0, 60, 85
2, 10528, Note_off_c, 0, 37, 0
2, 10532, Note_on_c, 0, 49, 60
2, 10616, Note_on_c, 0, 61, 81
2, 10624, Note_off_c, 0, 49, 0
2, 10640, Note_off_c, 0, 60, 0
2, 10640, Note_on_c, 0, 41, 57
2, 10696, Note_off_c, 0, 65, 0
2, 10716, Note_on_c, 0, 63, 84
2, 10724, Note_off_c, 0, 41, 0
2, 10736, Note_off_c, 0, 61, 0
2, 10744, Note_on_c, 0, 36, 63
2, 10784, Note_off_c, 0, 63, 0
2, 10832, Note_on_c, 0, 48, 67
2, 10896, Note_off_c, 0, 48, 0
2, 10908, Note_off_c, 0, 36, 0
2, 10936, Note_on_c, 0, 65, 84
2, 10936, Note_on_c, 0, 63, 57
2, 10948, Note_on_c, 0, 41, 60
2, 10988, Note_off_c, 0, 63, 0
2, 11008, Note_off_c, 0, 65, 0
2, 11036, Note_on_c, 0, 73, 86
2, 11040, Note_on_c, 0, 70, 69
2, 11072, Note_on_c, 0, 34, 56
2, 11084, Note_off_c, 0, 41, 0
2, 11088, Note_off_c, 0, 70, 0
2, 11104, Note_off_c, 0, 73, 0
2, 11148, Note_on_c, 0, 46, 60
2, 11232, Note_on_c, 0, 73, 80
2, 11244, Note_on_c, 0, 70, 60
2, 11264, Note_on_c, 0, 41, 48
2, 11272, Note_off_c, 0, 46, 0
2, 11280, Note_off_c, 0, 34, 0
2, 11308, Note_off_c, 0, 73, 0
2, 11320, Note_off_c, 0, 70, 0
2, 11344, Note_on_c, 0, 61, 61
2, 11344, Note_on_c, 0, 63, 70
2, 11360, Note_on_c, 0, 39, 49
2, 11372, Note_off_c, 0, 41, 0
2, 11404, Note_off_c, 0, 39, 0
2, 11424, Note_off_c, 0, 63, 0
2, 11428, Note_off_c, 0, 61, 0
2, 11456, Note_on_c, 0, 55, 60
2, 11520, Note_off_c, 0, 55, 0
2, 11544, Note_on_c, 0, 61, 67
2, 11552, Note_on_c, 0, 63, 73
2, 11556, Note_on_c, 0, 51, 55
2, 11580, Note_off_c, 0, 51, 0
2, 11604, Note_off_c, 0, 61, 0
2, 11616, Note_off_c, 0, 63, 0
2, 11652, Note_on_c, 0, 39, 69
2, 11660, Note_on_c, 0, 72, 83
2, 11664, Note_on_c, 0, 68, 57
2, 11708, Note_off_c, 0, 39, 0
2, 11708, Note_off_c, 0, 68, 0
2, 11724, Note_off_c, 0, 72, 0
2, 11760, Note_on_c, 0, 56, 64
2, 11836, Note_off_c, 0, 56, 0
2, 11856, Note_on_c, 0, 72, 86
2, 11864, Note_on_c, 0, 51, 58
2, 11888, Note_off_c, 0, 51, 0
2, 11928, Note_off_c, 0, 72, 0
2, 11956, Note_on_c, 0, 39, 68
2, 11968, Note_on_c, 0, 70, 71
2, 11968, Note_on_c, 0, 61, 60
2, 12012, Note_off_c, 0, 39, 0
2, 12048, Note_off_c, 0, 70, 0
2, 12048, Note_off_c, 0, 61, 0
2, 12076, Note_on_c, 0, 55, 60
2, 12140, Note_off_c, 0, 55, 0
2, 12168, Note_on_c, 0, 70, 71
2, 12184, Note_on_c, 0, 51, 57
2, 12236, Note_off_c, 0, 70, 0
2, 12248, Note_off_c, 0, 51, 0
2, 12280, Note_on_c, 0, 68, 64
2, 12280, Note_on_c, 0, 44, 51
2, 12288, Note_on_c, 0, 60, 63
2, 12352, Note_off_c, 0, 60, 0
2, 12368, Note_off_c, 0, 68, 0
2, 12384, Note_on_c, 0, 56, 48
2, 12448, Note_off_c, 0, 44, 0
2, 12460, Note_off_c, 0, 56, 0
2, 12484, Note_on_c, 0, 51, 63
2, 12484, Note_on_c, 0, 68, 77
2, 12508, Note_off_c, 0, 51, 0
2, 12540, Note_off_c, 0, 68, 0
2, 12596, Note_on_c, 0, 75, 102
2, 12608, Note_on_c, 0, 63, 88
2, 12612, Note_on_c, 0, 39, 79
2, 12612, Note_on_c, 0, 51, 81
2, 12656, Control_c, 0, 64, 56
2, 12672, Control_c, 0, 64, 127
2, 12716, Note_on_c, 0, 63, 12
2, 12768, Note_off_c, 0, 63, 0
2, 12928, Note_on_c, 0, 73, 81
2, 12948, Note_on_c, 0, 64, 66
2, 12988, Note_off_c, 0, 64, 0
2, 12992, Note_off_c, 0, 63, 0
2, 12996, Note_off_c, 0, 39, 0
2, 12996, Note_off_c, 0, 51, 0
2, 13016, Note_on_c, 0, 68, 76
2, 13052, Note_on_c, 0, 59, 57
2, 13056, Note_off_c, 0, 73, 0
2, 13056, Control_c, 0, 64, 104
2, 13072, Control_c, 0, 64, 88
2, 13084, Control_c, 0, 64, 56
2, 13088, Note_off_c, 0, 68, 0
2, 13096, Control_c, 0, 64, 40
2, 13108, Note_off_c, 0, 59, 0
2, 13108, Control_c, 0, 64, 24
2, 13116, Note_on_c, 0, 70, 79
2, 13120, Control_c, 0, 64, 0
2, 13136, Note_on_c, 0, 61, 57
2, 13200, Note_off_c, 0, 61, 0
2, 13208, Note_off_c, 0, 70, 0
2, 13216, Note_on_c, 0, 71, 85
2, 13228, Note_on_c, 0, 63, 58
2, 13300, Note_off_c, 0, 63, 0
2, 13308, Note_off_c, 0, 71, 0
2, 13312, Note_on_c, 0, 66, 70
2, 13328, Note_on_c, 0, 58, 55
2, 13392, Note_off_c, 0, 66, 0
2, 13408, Note_on_c, 0, 68, 76
2, 13412, Note_off_c, 0, 58, 0
2, 13432, Note_on_c, 0, 59, 65
2, 13500, Note_off_c, 0, 59, 0
2, 13508, Note_on_c, 0, 70, 78
2, 13516, Note_off_c, 0, 68, 0
2, 13520, Note_on_c, 0, 61, 63
2, 13560, Control_c, 0, 64, 24
2, 13572, Control_c, 0, 64, 56
2, 13584, Control_c, 0, 64, 88
2, 13604, Note_off_c, 0, 61, 0
2, 13608, Note_on_c, 0, 64, 68
2, 13616, Note_off_c, 0, 70, 0
2, 13632, Note_on_c, 0, 56, 49
2, 13684, Note_off_c, 0, 64, 0
2, 13700, Note_off_c, 0, 56, 0
2, 13700, Note_on_c, 0, 66, 73
2, 13712, Note_on_c, 0, 58, 59
2, 13712, Control_c, 0, 64, 72
2, 13740, Control_c, 0, 64, 40
2, 13752, Control_c, 0, 64, 0
2, 13796, Note_off_c, 0, 58, 0
2, 13804, Note_on_c, 0, 68, 79
2, 13808, Note_off_c, 0, 75, 0
2, 13816, Note_off_c, 0, 66, 0
2, 13820, Note_on_c, 0, 59, 60
2, 13856, Control_c, 0, 64, 40
2, 13864, Note_off_c, 0, 59, 0
2, 13892, Note_on_c, 0, 63, 69
2, 13912, Note_on_c, 0, 54, 49
2, 13924, Note_off_c, 0, 68, 0
2, 13992, Note_on_c, 0, 64, 87
2, 14000, Note_off_c, 0, 54, 0
2, 14008, Note_on_c, 0, 56, 54
2, 14012, Control_c, 0, 64, 24
2, 14024, Note_off_c, 0, 63, 0
2, 14024, Control_c, 0, 64, 0
2, 14092, Note_off_c, 0, 64, 0
2, 14092, Note_off_c, 0, 56, 0
2, 14096, Note_on_c, 0, 66, 74
2, 14104, Note_on_c, 0, 58, 65
2, 14188, Note_on_c, 0, 61, 67
2, 14192, Note_off_c, 0, 58, 0
2, 14208, Note_off_c, 0, 66, 0
2, 14220, Note_on_c, 0, 52, 55
2, 14276, Note_off_c, 0, 52, 0
2, 14284, Note_off_c, 0, 61, 0
2, 14284, Note_on_c, 0, 63, 71
2, 14292, Note_on_c, 0, 54, 54
2, 14368, Note_off_c, 0, 54, 0
2, 14380, Note_off_c, 0, 63, 0
2, 14384, Note_on_c, 0, 64, 84
2, 14388, Note_on_c, 0, 56, 56
2, 14456, Note_off_c, 0, 56, 0
2, 14476, Note_off_c, 0, 64, 0
2, 14480, Note_on_c, 0, 59, 62
2, 14492, Note_on_c, 0, 51, 61
2, 14552, Note_off_c, 0, 59, 0
2, 14568, Note_off_c, 0, 51, 0
2, 14576, Note_on_c, 0, 61, 67
2, 14592, Note_on_c, 0, 52, 66
2, 14612, Note_off_c, 0, 52, 0
2, 14656, Note_off_c, 0, 61, 0
2, 14688, Note_on_c, 0, 63, 73
2, 14688, Note_on_c, 0, 54, 65
2, 14704, Note_on_c, 0, 59, 48
2, 14784, Control_c, 0, 64, 24
2, 14800, Control_c, 0, 64, 56
2, 14812, Control_c, 0, 64, 104
2, 14824, Control_c, 0, 64, 127
2, 14960, Note_off_c, 0, 59, 0
2, 14968, Control_c, 0, 64, 104
2, 14980, Control_c, 0, 64, 72
2, 14992, Control_c, 0, 64, 56
2, 14996, Note_on_c, 0, 47, 70
2, 15004, Control_c, 0, 64, 24
2, 15008, Note_off_c, 0, 54, 0
2, 15020, Control_c, 0, 64, 0
2, 15096, Note_off_c, 0, 47, 0
2, 15104, Note_on_c, 0, 51, 65
2, 15200, Note_on_c, 0, 52, 76
2, 15216, Note_off_c, 0, 51, 0
2, 15248, Note_off_c, 0, 63, 0
2, 15300, Note_on_c, 0, 54, 61
2, 15300, Note_on_c, 0, 61, 70
2, 15300, Note_on_c, 0, 58, 58
2, 15320, Note_off_c, 0, 52, 0
2, 15360, Note_off_c, 0, 54, 0
2, 15372, Note_off_c, 0, 58, 0
2, 15372, Note_off_c, 0, 61, 0
2, 15400, Note_on_c, 0, 63, 71
2, 15492, Note_on_c, 0, 54, 85
2, 15496, Note_off_c, 0, 63, 0
2, 15500, Note_on_c, 0, 61, 71
2, 15584, Note_off_c, 0, 54, 0
2, 15600, Note_off_c, 0, 61, 0
2, 15600, Note_on_c, 0, 44, 73
2, 15612, Note_on_c, 0, 59, 68
2, 15612, Note_on_c, 0, 56, 48
2, 15684, Note_off_c, 0, 59, 0
2, 15700, Note_on_c, 0, 61, 65
2, 15708, Note_off_c, 0, 44, 0
2, 15712, Note_on_c, 0, 47, 68
2, 15744, Note_off_c, 0, 56, 0
2, 15796, Note_off_c, 0, 61, 0
2, 15796, Note_off_c, 0, 47, 0
2, 15800, Note_on_c, 0, 59, 77
2, 15804, Note_on_c, 0, 49, 77
2, 15876, Note_off_c, 0, 49, 0
2, 15888, Note_off_c, 0, 59, 0
2, 15904, Note_on_c, 0, 58, 74
2, 15904, Note_on_c, 0, 51, 85
2, 15920, Note_on_c, 0, 55, 54
2, 15968, Note_off_c, 0, 51, 0
2, 15984, Note_off_c, 0, 55, 0
2, 15996, Note_off_c, 0, 58, 0
2, 16004, Note_on_c, 0, 59, 62
2, 16096, Note_on_c, 0, 51, 83
2, 16108, Note_off_c, 0, 59, 0
2, 16112, Note_on_c, 0, 58, 67
2, 16164, Note_off_c, 0, 51, 0
2, 16200, Note_off_c, 0, 58, 0
2, 16204, Note_on_c, 0, 40, 81
2, 16216, Note_on_c, 0, 56, 70
2, 16228, Note_on_c, 0, 52, 60
2, 16296, Note_off_c, 0, 56, 0
2, 16296, Note_off_c, 0, 52, 0
2, 16304, Note_on_c, 0, 44, 72
2, 16308, Note_off_c, 0, 40, 0
2, 16316, Note_on_c, 0, 58, 64
2, 16388, Note_off_c, 0, 44, 0
2, 16400, Note_on_c, 0, 46, 83
2, 16408, Note_on_c, 0, 56, 63
2, 16420, Note_off_c, 0, 58, 0
2, 16492, Note_off_c, 0, 46, 0
2, 16500, Note_on_c, 0, 47, 84
2, 16512, Note_off_c, 0, 56, 0
2, 16512, Note_on_c, 0, 54, 77
2, 16516, Note_on_c, 0, 51, 62
2, 16572, Note_off_c, 0, 47, 0
2, 16612, Note_off_c, 0, 54, 0
2, 16620, Note_off_c, 0, 51, 0
2, 16628, Note_on_c, 0, 56, 69
2, 16704, Note_on_c, 0, 47, 84
2, 16728, Note_on_c, 0, 54, 72
2, 16740, Note_off_c, 0, 56, 0
2, 16772, Note_off_c, 0, 47, 0
2, 16812, Note_on_c, 0, 37, 72
2, 16828, Note_off_c, 0, 54, 0
2, 16828, Note_on_c, 0, 52, 73
2, 16840, Note_on_c, 0, 49, 47
2, 16884, Note_off_c, 0, 37, 0
2, 16900, Note_off_c, 0, 52, 0
2, 16904, Note_off_c, 0, 49, 0
2, 16916, Note_on_c, 0, 40, 68
2, 16920, Note_on_c, 0, 54, 59
2, 16976, Note_off_c, 0, 40, 0
2, 17004, Note_off_c, 0, 54, 0
2, 17016, Note_on_c, 0, 42, 76
2, 17020, Note_on_c, 0, 52, 73
2, 17088, Note_off_c, 0, 42, 0
2, 17104, Note_off_c, 0, 52, 0
2, 17136, Note_on_c, 0, 51, 71
2, 17136, Note_on_c, 0, 44, 80
2, 17136, Note_on_c, 0, 47, 62
2, 17184, Note_off_c, 0, 47, 0
2, 17188, Note_off_c, 0, 44, 0
2, 17200, Control_c, 0, 64, 72
2, 17216, Control_c, 0, 64, 127
2, 17220, Note_off_c, 0, 51, 0
2, 17292, Control_c, 0, 64, 88
2, 17304, Control_c, 0, 64, 56
2, 17316, Control_c, 0, 64, 24
2, 17328, Control_c, 0, 64, 0
2, 17464, Note_on_c, 0, 87, 99
2, 17468, Note_on_c, 0, 75, 87
2, 17476, Note_on_c, 0, 39, 84
2, 17476, Note_on_c, 0, 27, 73
2, 17496, Control_c, 0, 64, 72
2, 17508, Control_c, 0, 64, 127
2, 17664, Note_off_c, 0, 75, 0
2, 17668, Note_off_c, 0, 39, 0
2, 17668, Note_off_c, 0, 27, 0
2, 17752, Note_off_c, 0, 87, 0
2, 17776, Note_on_c, 0, 87, 40
2, 17776, Note_on_c, 0, 85, 79
2, 17792, Note_on_c, 0, 76, 75
2, 17844, Note_off_c, 0, 76, 0
2, 17872, Note_on_c, 0, 80, 80
2, 17888, Note_on_c, 0, 71, 59
2, 17916, Note_off_c, 0, 85, 0
2, 17956, Note_off_c, 0, 80, 0
2, 17956, Note_off_c, 0, 71, 0
2, 17968, Note_on_c, 0, 82, 79
2, 17984, Note_on_c, 0, 73, 61
2, 18060, Note_off_c, 0, 73, 0
2, 18064, Control_c, 0, 64, 72
2, 18068, Note_on_c, 0, 83, 87
2, 18072, Note_off_c, 0, 82, 0
2, 18080, Control_c, 0, 64, 0
2, 18084, Note_on_c, 0, 75, 73
2, 18116, Control_c, 0, 64, 24
2, 18128, Control_c, 0, 64, 72
2, 18144, Control_c, 0, 64, 127
2, 18152, Note_off_c, 0, 83, 0
2, 18156, Note_off_c, 0, 75, 0
2, 18168, Note_on_c, 0, 78, 76
2, 18192, Note_on_c, 0, 70, 58
2, 18240, Note_off_c, 0, 78, 0
2, 18264, Note_off_c, 0, 70, 0
2, 18264, Note_on_c, 0, 80, 81
2, 18288, Note_on_c, 0, 71, 61
2, 18352, Note_off_c, 0, 71, 0
2, 18356, Note_off_c, 0, 80, 0
2, 18364, Note_on_c, 0, 82, 79
2, 18376, Note_on_c, 0, 73, 64
2, 18388, Control_c, 0, 64, 88
2, 18416, Note_off_c, 0, 87, 0
2, 18428, Control_c, 0, 64, 127
2, 18460, Note_off_c, 0, 73, 0
2, 18464, Note_off_c, 0, 82, 0
2, 18468, Note_on_c, 0, 76, 75
2, 18488, Note_on_c, 0, 68, 54
2, 18548, Note_off_c, 0, 76, 0
2, 18560, Note_on_c, 0, 78, 80
2, 18564, Note_off_c, 0, 68, 0
2, 18576, Note_on_c, 0, 70, 64
2, 18632, Control_c, 0, 64, 88
2, 18644, Note_off_c, 0, 78, 0
2, 18644, Control_c, 0, 64, 40
2, 18648, Note_off_c, 0, 70, 0
2, 18652, Note_on_c, 0, 80, 85
2, 18660, Control_c, 0, 64, 24
2, 18672, Control_c, 0, 64, 40
2, 18672, Note_on_c, 0, 71, 66
2, 18688, Control_c, 0, 64, 56
2, 18700, Control_c, 0, 64, 88
2, 18712, Control_c, 0, 64, 127
2, 18748, Note_off_c, 0, 71, 0
2, 18752, Note_off_c, 0, 80, 0
2, 18752, Note_on_c, 0, 75, 71
2, 18780, Note_on_c, 0, 66, 51
2, 18836, Note_off_c, 0, 75, 0
2, 18852, Control_c, 0, 64, 88
2, 18860, Note_on_c, 0, 76, 87
2, 18864, Control_c, 0, 64, 56
2, 18872, Note_off_c, 0, 66, 0
2, 18880, Note_on_c, 0, 68, 51
2, 18880, Control_c, 0, 64, 40
2, 18928, Control_c, 0, 64, 88
2, 18944, Note_off_c, 0, 76, 0
2, 18944, Control_c, 0, 64, 127
2, 18948, Note_off_c, 0, 68, 0
2, 18948, Note_on_c, 0, 78, 86
2, 18960, Note_on_c, 0, 70, 65
2, 19044, Note_off_c, 0, 70, 0
2, 19044, Note_on_c, 0, 73, 69
2, 19048, Note_off_c, 0, 78, 0
2, 19072, Note_on_c, 0, 64, 58
2, 19136, Note_off_c, 0, 73, 0
2, 19136, Note_off_c, 0, 64, 0
2, 19136, Note_on_c, 0, 75, 78
2, 19144, Note_on_c, 0, 66, 48
2, 19204, Note_off_c, 0, 66, 0
2, 19224, Note_on_c, 0, 68, 56
2, 19236, Note_off_c, 0, 75, 0
2, 19236, Note_on_c, 0, 76, 92
2, 19300, Note_off_c, 0, 68, 0
2, 19324, Note_off_c, 0, 76, 0
2, 19336, Note_on_c, 0, 71, 70
2, 19336, Note_on_c, 0, 63, 52
2, 19408, Note_off_c, 0, 71, 0
2, 19416, Note_off_c, 0, 63, 0
2, 19424, Note_on_c, 0, 73, 73
2, 19436, Note_on_c, 0, 64, 66
2, 19516, Note_off_c, 0, 73, 0
2, 19524, Note_off_c, 0, 64, 0
2, 19548, Note_on_c, 0, 75, 82
2, 19548, Control_c, 0, 64, 104
2, 19552, Note_on_c, 0, 66, 61
2, 19564, Control_c, 0, 64, 56
2, 19568, Note_on_c, 0, 71, 54
2, 19576, Control_c, 0, 64, 0
2, 19716, Control_c, 0, 64, 56
2, 19728, Control_c, 0, 64, 88
2, 19744, Control_c, 0, 64, 127
2, 19812, Note_off_c, 0, 66, 0
2, 19856, Note_off_c, 0, 71, 0
2, 19868, Note_on_c, 0, 70, 58
2, 19900, Control_c, 0, 64, 104
2, 19912, Control_c, 0, 64, 24
2, 19924, Control_c, 0, 64, 0
2, 20000, Control_c, 0, 64, 40
2, 20012, Control_c, 0, 64, 104
2, 20028, Control_c, 0, 64, 127
2, 20068, Note_on_c, 0, 49, 38
2, 20096, Note_off_c, 0, 49, 0
2, 20112, Note_off_c, 0, 70, 0
2, 20160, Note_off_c, 0, 75, 0
2, 20160, Note_on_c, 0, 69, 73
2, 20168, Control_c, 0, 64, 104
2, 20180, Note_on_c, 0, 64, 54
2, 20184, Control_c, 0, 64, 88
2, 20192, Note_on_c, 0, 57, 41
2, 20196, Control_c, 0, 64, 56
2, 20208, Control_c, 0, 64, 24
2, 20224, Note_off_c, 0, 64, 0
2, 20224, Control_c, 0, 64, 0
2, 20252, Note_off_c, 0, 69, 0
2, 20256, Note_off_c, 0, 57, 0
2, 20268, Note_on_c, 0, 75, 79
2, 20332, Note_on_c, 0, 49, 58
2, 20360, Note_on_c, 0, 73, 75
2, 20396, Note_off_c, 0, 49, 0
2, 20400, Note_off_c, 0, 75, 0
2, 20456, Note_off_c, 0, 73, 0
2, 20460, Note_on_c, 0, 69, 80
2, 20460, Note_on_c, 0, 57, 57
2, 20464, Note_on_c, 0, 64, 59
2, 20500, Note_off_c, 0, 64, 0
2, 20528, Note_off_c, 0, 69, 0
2, 20528, Note_off_c, 0, 57, 0
2, 20548, Note_on_c, 0, 71, 76
2, 20640, Note_off_c, 0, 71, 0
2, 20640, Note_on_c, 0, 49, 59
2, 20644, Note_on_c, 0, 69, 82
2, 20704, Note_off_c, 0, 49, 0
2, 20740, Note_off_c, 0, 69, 0
2, 20748, Note_on_c, 0, 68, 78
2, 20768, Note_on_c, 0, 64, 68
2, 20768, Note_on_c, 0, 58, 56
2, 20788, Control_c, 0, 64, 24
2, 20824, Note_off_c, 0, 64, 0
2, 20832, Note_off_c, 0, 68, 0
2, 20852, Note_on_c, 0, 70, 85
2, 20856, Note_off_c, 0, 58, 0
2, 20916, Note_on_c, 0, 49, 63
2, 20944, Note_off_c, 0, 70, 0
2, 20944, Note_on_c, 0, 68, 77
2, 20984, Control_c, 0, 64, 0
2, 20992, Note_off_c, 0, 49, 0
2, 21040, Note_off_c, 0, 68, 0
2, 21044, Note_on_c, 0, 67, 80
2, 21052, Note_on_c, 0, 63, 65
2, 21060, Note_on_c, 0, 58, 46
2, 21072, Control_c, 0, 64, 24
2, 21088, Control_c, 0, 64, 40
2, 21100, Control_c, 0, 64, 56
2, 21120, Note_off_c, 0, 63, 0
2, 21128, Note_off_c, 0, 58, 0
2, 21136, Note_on_c, 0, 68, 75
2, 21144, Note_off_c, 0, 67, 0
2, 21164, Control_c, 0, 64, 40
2, 21216, Note_on_c, 0, 51, 60
2, 21224, Control_c, 0, 64, 24
2, 21232, Note_on_c, 0, 67, 70
2, 21252, Control_c, 0, 64, 0
2, 21268, Note_off_c, 0, 68, 0
2, 21296, Note_off_c, 0, 51, 0
2, 21308, Note_off_c, 0, 67, 0
2, 21336, Note_on_c, 0, 70, 74
2, 21348, Note_on_c, 0, 63, 64
2, 21356, Note_on_c, 0, 61, 47
2, 21368, Note_on_c, 0, 55, 49
2, 21388, Note_off_c, 0, 61, 0
2, 21400, Note_off_c, 0, 55, 0
2, 21424, Note_off_c, 0, 70, 0
2, 21436, Note_off_c, 0, 63, 0
2, 21440, Note_on_c, 0, 72, 84
2, 21488, Note_on_c, 0, 51, 55
2, 21520, Note_on_c, 0, 70, 74
2, 21540, Note_off_c, 0, 72, 0
2, 21604, Note_off_c, 0, 70, 0
2, 21636, Note_off_c, 0, 51, 0
2, 21636, Note_on_c, 0, 68, 83
2, 21644, Note_on_c, 0, 60, 71
2, 21652, Note_on_c, 0, 63, 57
2, 21652, Note_on_c, 0, 56, 55
2, 21720, Control_c, 0, 64, 56
2, 21728, Note_off_c, 0, 63, 0
2, 21732, Control_c, 0, 64, 104
2, 21740, Note_off_c, 0, 56, 0
2, 21744, Control_c, 0, 64, 127
2, 21976, Note_on_c, 0, 56, 75
2, 21984, Note_on_c, 0, 44, 70
2, 22000, Note_off_c, 0, 60, 0
2, 22028, Note_off_c, 0, 56, 0
2, 22036, Note_off_c, 0, 44, 0
2, 22064, Note_off_c, 0, 68, 0
2, 22156, Control_c, 0, 64, 104
2, 22172, Control_c, 0, 64, 72
2, 22184, Control_c, 0, 64, 40
2, 22196, Control_c, 0, 64, 0
2, 22300, Note_on_c, 0, 75, 100
2, 22308, Note_on_c, 0, 63, 81
2, 22320, Note_on_c, 0, 39, 72
2, 22328, Note_on_c, 0, 51, 75
2, 22352, Control_c, 0, 64, 40
2, 22364, Control_c, 0, 64, 127
2, 22384, Note_off_c, 0, 39, 0
2, 22388, Note_off_c, 0, 51, 0
2, 22448, Note_off_c, 0, 63, 0
2, 22588, Note_off_c, 0, 75, 0
2, 22612, Note_on_c, 0, 75, 50
2, 22624, Note_on_c, 0, 73, 75
2, 22632, Note_on_c, 0, 64, 67
2, 22688, Control_c, 0, 64, 104
2, 22700, Note_off_c, 0, 64, 0
2, 22700, Control_c, 0, 64, 88
2, 22712, Control_c, 0, 64, 56
2, 22720, Note_on_c, 0, 68, 72
2, 22724, Control_c, 0, 64, 40
2, 22736, Note_on_c, 0, 59, 63
2, 22736, Control_c, 0, 64, 24
2, 22752, Note_off_c, 0, 73, 0
2, 22752, Control_c, 0, 64, 0
2, 22804, Note_off_c, 0, 59, 0
2, 22804, Note_on_c, 0, 70, 74
2, 22808, Note_off_c, 0, 68, 0
2, 22832, Note_on_c, 0, 61, 64
2, 22904, Note_off_c, 0, 61, 0
2, 22912, Note_on_c, 0, 71, 84
2, 22924, Note_off_c, 0, 70, 0
2, 22928, Note_on_c, 0, 63, 65
2, 22972, Control_c, 0, 64, 40
2, 22996, Note_off_c, 0, 71, 0
2, 23004, Note_off_c, 0, 63, 0
2, 23008, Note_on_c, 0, 66, 65
2, 23032, Note_on_c, 0, 58, 56
2, 23088, Note_off_c, 0, 66, 0
2, 23100, Note_on_c, 0, 68, 74
2, 23116, Note_off_c, 0, 58, 0
2, 23136, Note_on_c, 0, 59, 66
2, 23152, Control_c, 0, 64, 24
2, 23196, Note_off_c, 0, 68, 0
2, 23196, Note_on_c, 0, 70, 76
2, 23200, Control_c, 0, 64, 0
2, 23208, Note_off_c, 0, 59, 0
2, 23216, Note_on_c, 0, 61, 67
2, 23244, Control_c, 0, 64, 24
2, 23300, Note_off_c, 0, 70, 0
2, 23304, Note_on_c, 0, 64, 64
2, 23308, Note_off_c, 0, 61, 0
2, 23320, Note_on_c, 0, 56, 54
2, 23396, Note_on_c, 0, 66, 65
2, 23408, Note_off_c, 0, 56, 0
2, 23408, Note_on_c, 0, 58, 60
2, 23416, Note_off_c, 0, 64, 0
2, 23436, Control_c, 0, 64, 0
2, 23468, Note_off_c, 0, 75, 0
2, 23480, Note_off_c, 0, 58, 0
2, 23488, Note_off_c, 0, 66, 0
2, 23496, Note_on_c, 0, 68, 73
2, 23504, Note_on_c, 0, 59, 62
2, 23576, Note_off_c, 0, 59, 0
2, 23592, Note_on_c, 0, 63, 65
2, 23600, Note_on_c, 0, 54, 37
2, 23616, Note_off_c, 0, 68, 0
2, 23696, Note_off_c, 0, 54, 0
2, 23704, Note_on_c, 0, 64, 74
2, 23704, Note_on_c, 0, 56, 45
2, 23732, Note_off_c, 0, 63, 0
2, 23768, Note_off_c, 0, 56, 0
2, 23788, Note_off_c, 0, 64, 0
2, 23792, Note_on_c, 0, 58, 44
2, 23792, Note_on_c, 0, 66, 67
2, 23888, Note_off_c, 0, 58, 0
2, 23888, Note_on_c, 0, 61, 65
2, 23892, Note_off_c, 0, 66, 0
2, 23912, Note_on_c, 0, 52, 48
2, 23960, Note_off_c, 0, 52, 0
2, 23980, Note_on_c, 0, 63, 69
2, 23984, Note_off_c, 0, 61, 0
2, 23992, Note_on_c, 0, 54, 53
2, 24048, Note_off_c, 0, 54, 0
2, 24068, Note_on_c, 0, 56, 47
2, 24084, Note_on_c, 0, 64, 87
2, 24108, Note_off_c, 0, 63, 0
2, 24152, Note_off_c, 0, 56, 0
2, 24176, Note_off_c, 0, 64, 0
2, 24176, Note_on_c, 0, 51, 51
2, 24188, Note_on_c, 0, 59, 64
2, 24260, Note_off_c, 0, 59, 0
2, 24264, Note_off_c, 0, 51, 0
2, 24272, Note_on_c, 0, 52, 67
2, 24272, Note_on_c, 0, 61, 73
2, 24352, Note_off_c, 0, 52, 0
2, 24352, Note_off_c, 0, 61, 0
2, 24388, Note_on_c, 0, 63, 76
2, 24388, Note_on_c, 0, 54, 57
2, 24400, Note_on_c, 0, 59, 54
2, 24520, Control_c, 0, 64, 40
2, 24532, Control_c, 0, 64, 88
2, 24544, Control_c, 0, 64, 127
2, 24692, Note_on_c, 0, 47, 79
2, 24712, Control_c, 0, 64, 104
2, 24716, Note_off_c, 0, 59, 0
2, 24724, Control_c, 0, 64, 72
2, 24736, Note_off_c, 0, 54, 0
2, 24736, Control_c, 0, 64, 40
2, 24752, Control_c, 0, 64, 0
2, 24792, Note_on_c, 0, 51, 70
2, 24800, Note_off_c, 0, 47, 0
2, 24884, Note_off_c, 0, 63, 0
2, 24892, Note_off_c, 0, 51, 0
2, 24892, Note_on_c, 0, 52, 85
2, 24996, Note_on_c, 0, 54, 71
2, 25016, Note_off_c, 0, 52, 0
2, 25016, Note_on_c, 0, 61, 71
2, 25016, Note_on_c, 0, 58, 59
2, 25060, Note_off_c, 0, 54, 0
2, 25088, Note_off_c, 0, 58, 0
2, 25104, Note_off_c, 0, 61, 0
2, 25112, Note_on_c, 0, 63, 64
2, 25208, Note_on_c, 0, 54, 84
2, 25212, Note_off_c, 0, 63, 0
2, 25216, Note_on_c, 0, 61, 64
2, 25308, Note_off_c, 0, 54, 0
2, 25312, Note_off_c, 0, 61, 0
2, 25312, Note_on_c, 0, 44, 80
2, 25324, Note_on_c, 0, 59, 70
2, 25324, Note_on_c, 0, 56, 53
2, 25408, Note_off_c, 0, 59, 0
2, 25416, Note_off_c, 0, 44, 0
2, 25420, Note_on_c, 0, 47, 80
2, 25420, Note_on_c, 0, 61, 64
2, 25472, Note_off_c, 0, 56, 0
2, 25496, Note_off_c, 0, 47, 0
2, 25516, Note_off_c, 0, 61, 0
2, 25516, Note_on_c, 0, 59, 80
2, 25520, Note_on_c, 0, 49, 82
2, 25604, Note_off_c, 0, 49, 0
2, 25616, Note_off_c, 0, 59, 0
2, 25616, Note_on_c, 0, 58, 74
2, 25620, Note_on_c, 0, 55, 64
2, 25620, Note_on_c, 0, 51, 84
2, 25692, Note_off_c, 0, 51, 0
2, 25712, Note_off_c, 0, 55, 0
2, 25716, Note_on_c, 0, 59, 68
2, 25824, Note_on_c, 0, 51, 81
2, 25840, Note_off_c, 0, 59, 0
2, 25892, Note_off_c, 0, 51, 0
2, 25920, Note_off_c, 0, 58, 0
2, 25936, Note_on_c, 0, 56, 71
2, 25936, Note_on_c, 0, 40, 76
2, 25944, Note_on_c, 0, 52, 63
2, 26012, Note_off_c, 0, 52, 0
2, 26016, Note_off_c, 0, 56, 0
2, 26036, Note_on_c, 0, 44, 74
2, 26036, Note_on_c, 0, 58, 65
2, 26048, Note_off_c, 0, 40, 0
2, 26112, Note_off_c, 0, 44, 0
2, 26128, Note_on_c, 0, 56, 69
2, 26132, Note_on_c, 0, 46, 86
2, 26140, Note_off_c, 0, 58, 0
2, 26208, Note_off_c, 0, 46, 0
2, 26228, Note_off_c, 0, 56, 0
2, 26236, Note_on_c, 0, 54, 78
2, 26240, Note_on_c, 0, 47, 87
2, 26240, Note_on_c, 0, 51, 67
2, 26308, Note_off_c, 0, 47, 0
2, 26328, Note_off_c, 0, 54, 0
2, 26336, Note_on_c, 0, 56, 74
2, 26376, Note_off_c, 0, 51, 0
2, 26432, Note_on_c, 0, 54, 75
2, 26436, Note_off_c, 0, 56, 0
2, 26440, Note_on_c, 0, 47, 81
2, 26496, Note_off_c, 0, 47, 0
2, 26544, Note_off_c, 0, 54, 0
2, 26544, Note_on_c, 0, 52, 76
2, 26552, Note_on_c, 0, 37, 79
2, 26556, Note_on_c, 0, 49, 52
2, 26620, Note_off_c, 0, 37, 0
2, 26624, Note_off_c, 0, 52, 0
2, 26628, Note_off_c, 0, 49, 0
2, 26632, Note_on_c, 0, 54, 64
2, 26652, Note_on_c, 0, 40, 77
2, 26720, Note_off_c, 0, 40, 0
2, 26736, Note_on_c, 0, 52, 71
2, 26740, Note_off_c, 0, 54, 0
2, 26744, Note_on_c, 0, 42, 79
2, 26832, Note_off_c, 0, 42, 0
2, 26840, Note_off_c, 0, 52, 0
2, 26856, Note_on_c, 0, 51, 81
2, 26860, Note_on_c, 0, 44, 89
2, 26864, Note_on_c, 0, 47, 68
2, 26896, Control_c, 0, 64, 40
2, 26908, Control_c, 0, 64, 127
2, 26912, Note_off_c, 0, 47, 0
2, 26924, Note_off_c, 0, 44, 0
2, 26944, Note_off_c, 0, 51, 0
2, 27040, Control_c, 0, 64, 88
2, 27052, Control_c, 0, 64, 40
2, 27064, Control_c, 0, 64, 0
2, 27072, Note_on_c, 0, 39, 33
2, 27096, Note_off_c, 0, 39, 0
2, 27184, Note_on_c, 0, 87, 108
2, 27188, Note_on_c, 0, 75, 99
2, 27188, Note_on_c, 0, 27, 71
2, 27188, Note_on_c, 0, 39, 92
2, 27216, Control_c, 0, 64, 72
2, 27224, Note_off_c, 0, 27, 0
2, 27232, Control_c, 0, 64, 127
2, 27248, Note_off_c, 0, 39, 0
2, 27372, Note_off_c, 0, 75, 0
2, 27500, Note_on_c, 0, 85, 77
2, 27504, Note_on_c, 0, 76, 71
2, 27568, Note_off_c, 0, 76, 0
2, 27600, Note_on_c, 0, 80, 77
2, 27616, Note_on_c, 0, 71, 53
2, 27648, Note_off_c, 0, 85, 0
2, 27672, Note_off_c, 0, 80, 0
2, 27680, Note_off_c, 0, 71, 0
2, 27692, Note_on_c, 0, 82, 74
2, 27696, Note_on_c, 0, 73, 64
2, 27772, Note_off_c, 0, 73, 0
2, 27788, Note_off_c, 0, 82, 0
2, 27792, Note_on_c, 0, 83, 86
2, 27796, Control_c, 0, 64, 72
2, 27804, Note_on_c, 0, 75, 61
2, 27812, Control_c, 0, 64, 24
2, 27824, Control_c, 0, 64, 0
2, 27840, Control_c, 0, 64, 24
2, 27852, Control_c, 0, 64, 56
2, 27864, Note_off_c, 0, 75, 0
2, 27864, Control_c, 0, 64, 104
2, 27876, Note_off_c, 0, 83, 0
2, 27876, Control_c, 0, 64, 127
2, 27884, Note_on_c, 0, 78, 71
2, 27904, Note_on_c, 0, 70, 54
2, 27972, Note_on_c, 0, 80, 84
2, 27984, Note_off_c, 0, 78, 0
2, 27984, Note_off_c, 0, 70, 0
2, 28012, Note_on_c, 0, 71, 55
2, 28064, Note_off_c, 0, 87, 0
2, 28068, Note_off_c, 0, 71, 0
2, 28076, Note_off_c, 0, 80, 0
2, 28076, Note_on_c, 0, 82, 80
2, 28080, Control_c, 0, 64, 88
2, 28084, Note_on_c, 0, 87, 26
2, 28092, Note_on_c, 0, 73, 67
2, 28096, Control_c, 0, 64, 56
2, 28132, Control_c, 0, 64, 127
2, 28164, Note_off_c, 0, 73, 0
2, 28172, Note_on_c, 0, 76, 74
2, 28184, Note_off_c, 0, 82, 0
2, 28204, Note_on_c, 0, 68, 50
2, 28260, Note_on_c, 0, 78, 84
2, 28276, Note_on_c, 0, 70, 64
2, 28280, Note_off_c, 0, 68, 0
2, 28284, Note_off_c, 0, 76, 0
2, 28320, Note_off_c, 0, 87, 0
2, 28352, Note_off_c, 0, 70, 0
2, 28352, Control_c, 0, 64, 104
2, 28360, Note_on_c, 0, 80, 87
2, 28364, Note_on_c, 0, 71, 68
2, 28368, Control_c, 0, 64, 72
2, 28372, Note_off_c, 0, 78, 0
2, 28376, Control_c, 0, 64, 56
2, 28404, Control_c, 0, 64, 88
2, 28416, Control_c, 0, 64, 104
2, 28432, Control_c, 0, 64, 127
2, 28440, Note_off_c, 0, 71, 0
2, 28452, Note_on_c, 0, 75, 73
2, 28468, Note_on_c, 0, 66, 45
2, 28480, Note_off_c, 0, 80, 0
2, 28556, Note_off_c, 0, 66, 0
2, 28556, Note_on_c, 0, 76, 86
2, 28576, Note_off_c, 0, 75, 0
2, 28576, Note_on_c, 0, 68, 38
2, 28588, Control_c, 0, 64, 104
2, 28600, Control_c, 0, 64, 72
2, 28612, Control_c, 0, 64, 24
2, 28624, Control_c, 0, 64, 0
2, 28632, Note_off_c, 0, 68, 0
2, 28640, Note_off_c, 0, 76, 0
2, 28652, Note_on_c, 0, 78, 83
2, 28656, Note_on_c, 0, 70, 52
2, 28664, Control_c, 0, 64, 72
2, 28672, Control_c, 0, 64, 127
2, 28740, Note_off_c, 0, 70, 0
2, 28748, Note_on_c, 0, 73, 69
2, 28772, Note_off_c, 0, 78, 0
2, 28776, Note_on_c, 0, 64, 48
2, 28832, Note_on_c, 0, 75, 72
2, 28840, Note_off_c, 0, 64, 0
2, 28844, Note_off_c, 0, 73, 0
2, 28860, Note_on_c, 0, 66, 47
2, 28896, Note_off_c, 0, 66, 0
2, 28920, Note_off_c, 0, 75, 0
2, 28928, Note_on_c, 0, 68, 50
2, 28932, Note_on_c, 0, 76, 87
2, 28996, Note_off_c, 0, 68, 0
2, 29020, Note_off_c, 0, 76, 0
2, 29024, Note_on_c, 0, 71, 65
2, 29040, Note_on_c, 0, 63, 49
2, 29104, Note_off_c, 0, 71, 0
2, 29108, Note_off_c, 0, 63, 0
2, 29116, Note_on_c, 0, 73, 67
2, 29136, Note_on_c, 0, 64, 54
2, 29200, Note_off_c, 0, 73, 0
2, 29216, Note_off_c, 0, 64, 0
2, 29244, Note_on_c, 0, 75, 78
2, 29260, Note_on_c, 0, 66, 58
2, 29268, Note_on_c, 0, 71, 47
2, 29296, Control_c, 0, 64, 88
2, 29312, Control_c, 0, 64, 0
2, 29412, Control_c, 0, 64, 72
2, 29424, Control_c, 0, 64, 127
2, 29568, Note_on_c, 0, 70, 59
2, 29592, Control_c, 0, 64, 72
2, 29600, Control_c, 0, 64, 0
2, 29620, Note_off_c, 0, 66, 0
2, 29648, Note_off_c, 0, 71, 0
2, 29656, Control_c, 0, 64, 40
2, 29668, Control_c, 0, 64, 104
2, 29680, Control_c, 0, 64, 127
2, 29800, Note_on_c, 0, 49, 55
2, 29840, Note_off_c, 0, 70, 0
2, 29848, Note_off_c, 0, 75, 0
2, 29852, Note_off_c, 0, 49, 0
2, 29864, Control_c, 0, 64, 88
2, 29876, Control_c, 0, 64, 72
2, 29884, Note_on_c, 0, 69, 68
2, 29888, Control_c, 0, 64, 40
2, 29896, Note_on_c, 0, 64, 59
2, 29900, Note_on_c, 0, 57, 48
2, 29904, Control_c, 0, 64, 24
2, 29928, Control_c, 0, 64, 0
2, 29956, Note_off_c, 0, 64, 0
2, 29972, Note_off_c, 0, 69, 0
2, 29980, Note_on_c, 0, 75, 81
2, 29992, Note_off_c, 0, 57, 0
2, 30080, Note_on_c, 0, 73, 73
2, 30080, Note_on_c, 0, 49, 56
2, 30140, Note_off_c, 0, 75, 0
2, 30156, Note_off_c, 0, 49, 0
2, 30176, Note_on_c, 0, 69, 80
2, 30188, Note_off_c, 0, 73, 0
2, 30204, Note_on_c, 0, 64, 53
2, 30204, Note_on_c, 0, 57, 39
2, 30248, Note_off_c, 0, 69, 0
2, 30260, Note_off_c, 0, 64, 0
2, 30280, Note_on_c, 0, 71, 75
2, 30308, Note_off_c, 0, 57, 0
2, 30368, Note_off_c, 0, 71, 0
2, 30368, Note_on_c, 0, 49, 55
2, 30368, Note_on_c, 0, 69, 80
2, 30448, Note_off_c, 0, 49, 0
2, 30464, Note_off_c, 0, 69, 0
2, 30480, Note_on_c, 0, 68, 82
2, 30480, Control_c, 0, 64, 24
2, 30500, Note_on_c, 0, 64, 61
2, 30500, Note_on_c, 0, 58, 54
2, 30560, Note_off_c, 0, 68, 0
2, 30560, Note_off_c, 0, 64, 0
2, 30576, Note_on_c, 0, 70, 82
2, 30592, Note_off_c, 0, 58, 0
2, 30644, Note_on_c, 0, 49, 56
2, 30672, Note_on_c, 0, 68, 78
2, 30700, Note_off_c, 0, 70, 0
2, 30720, Note_off_c, 0, 49, 0
2, 30772, Note_off_c, 0, 68, 0
2, 30780, Note_on_c, 0, 67, 82
2, 30784, Note_on_c, 0, 63, 64
2, 30796, Note_on_c, 0, 58, 45
2, 30852, Note_off_c, 0, 63, 0
2, 30872, Note_off_c, 0, 58, 0
2, 30872, Note_on_c, 0, 68, 68
2, 30884, Note_off_c, 0, 67, 0
2, 30940, Note_on_c, 0, 51, 57
2, 30960, Note_off_c, 0, 68, 0
2, 30976, Note_on_c, 0, 67, 77
2, 31024, Control_c, 0, 64, 0
2, 31032, Note_off_c, 0, 51, 0
2, 31064, Note_off_c, 0, 67, 0
2, 31076, Note_on_c, 0, 70, 77
2, 31084, Note_on_c, 0, 63, 62
2, 31096, Note_on_c, 0, 55, 63
2, 31156, Note_off_c, 0, 63, 0
2, 31164, Note_off_c, 0, 70, 0
2, 31164, Note_off_c, 0, 55, 0
2, 31176, Note_on_c, 0, 72, 87
2, 31216, Note_on_c, 0, 51, 48
2, 31256, Note_on_c, 0, 70, 71
2, 31280, Note_off_c, 0, 72, 0
2, 31340, Note_off_c, 0, 51, 0
2, 31348, Note_off_c, 0, 70, 0
2, 31376, Note_on_c, 0, 68, 78
2, 31388, Note_on_c, 0, 60, 68
2, 31396, Note_on_c, 0, 63, 50
2, 31404, Note_on_c, 0, 56, 46
2, 31492, Note_off_c, 0, 63, 0
2, 31496, Note_off_c, 0, 56, 0
2, 31516, Control_c, 0, 64, 56
2, 31528, Control_c, 0, 64, 88
2, 31532, Note_off_c, 0, 60, 0
2, 31540, Control_c, 0, 64, 127
2, 31712, Note_on_c, 0, 44, 64
2, 31772, Note_off_c, 0, 44, 0
2, 31920, Note_off_c, 0, 68, 0
2, 31932, Note_on_c, 0, 69, 74
2, 32016, Control_c, 0, 64, 72
2, 32032, Control_c, 0, 64, 40
2, 32044, Note_off_c, 0, 69, 0
2, 32044, Note_on_c, 0, 70, 73
2, 32044, Note_on_c, 0, 49, 62
2, 32044, Control_c, 0, 64, 0
2, 32088, Note_off_c, 0, 49, 0
2, 32108, Note_off_c, 0, 70, 0
2, 32144, Note_on_c, 0, 64, 64
2, 32208, Note_off_c, 0, 64, 0
2, 32248, Note_on_c, 0, 70, 71
2, 32260, Note_on_c, 0, 56, 46
2, 32300, Note_off_c, 0, 70, 0
2, 32328, Note_off_c, 0, 56, 0
2, 32348, Note_on_c, 0, 70, 70
2, 32376, Note_on_c, 0, 51, 53
2, 32452, Note_on_c, 0, 63, 48
2, 32544, Note_off_c, 0, 70, 0
2, 32556, Note_off_c, 0, 63, 0
2, 32564, Note_off_c, 0, 51, 0
2, 32564, Note_on_c, 0, 72, 74
2, 32572, Note_on_c, 0, 55, 53
2, 32652, Note_off_c, 0, 55, 0
2, 32656, Note_off_c, 0, 72, 0
2, 32664, Note_on_c, 0, 68, 63
2, 32688, Note_on_c, 0, 53, 56
2, 32724, Note_off_c, 0, 68, 0
2, 32760, Note_on_c, 0, 60, 55
2, 32812, Note_off_c, 0, 53, 0
2, 32848, Note_on_c, 0, 68, 69
2, 32872, Note_off_c, 0, 60, 0
2, 32872, Note_on_c, 0, 56, 36
2, 32896, Note_off_c, 0, 68, 0
2, 32948, Note_on_c, 0, 68, 69
2, 32960, Note_on_c, 0, 48, 68
2, 32984, Note_off_c, 0, 48, 0
2, 33008, Note_off_c, 0, 68, 0
2, 33028, Note_off_c, 0, 56, 0
2, 33040, Note_on_c, 0, 70, 63
2, 33044, Note_on_c, 0, 63, 69
2, 33076, Note_on_c, 0, 68, 80
2, 33100, Note_off_c, 0, 70, 0
2, 33116, Note_off_c, 0, 63, 0
2, 33160, Note_on_c, 0, 67, 86
2, 33168, Note_off_c, 0, 68, 0
2, 33176, Note_on_c, 0, 56, 52
2, 33252, Note_on_c, 0, 68, 84
2, 33280, Note_off_c, 0, 56, 0
2, 33280, Note_on_c, 0, 49, 73
2, 33288, Note_off_c, 0, 67, 0
2, 33328, Note_off_c, 0, 49, 0
2, 33360, Note_on_c, 0, 70, 78
2, 33368, Note_on_c, 0, 64, 64
2, 33388, Note_off_c, 0, 68, 0
2, 33424, Note_off_c, 0, 70, 0
2, 33432, Note_off_c, 0, 64, 0
2, 33460, Note_on_c, 0, 72, 77
2, 33480, Note_on_c, 0, 56, 46
2, 33520, Note_off_c, 0, 72, 0
2, 33552, Note_off_c, 0, 56, 0
2, 33552, Note_on_c, 0, 73, 84
2, 33560, Note_on_c, 0, 52, 58
2, 33648, Note_on_c, 0, 75, 79
2, 33648, Note_on_c, 0, 61, 56
2, 33656, Note_off_c, 0, 73, 0
2, 33716, Note_off_c, 0, 52, 0
2, 33740, Note_on_c, 0, 76, 83
2, 33744, Note_on_c, 0, 56, 56
2, 33764, Note_off_c, 0, 61, 0
2, 33792, Note_off_c, 0, 56, 0
2, 33800, Note_off_c, 0, 75, 0
2, 33840, Note_off_c, 0, 76, 0
2, 33852, Note_on_c, 0, 68, 82
2, 33872, Note_on_c, 0, 44, 58
2, 33896, Note_off_c, 0, 44, 0
2, 33924, Note_off_c, 0, 68, 0
2, 33968, Note_on_c, 0, 60, 61
2, 34048, Note_off_c, 0, 60, 0
2, 34068, Note_on_c, 0, 68, 70
2, 34088, Note_on_c, 0, 56, 50
2, 34116, Note_off_c, 0, 68, 0
2, 34160, Note_off_c, 0, 56, 0
2, 34168, Note_on_c, 0, 68, 68
2, 34192, Note_on_c, 0, 48, 60
2, 34220, Note_off_c, 0, 48, 0
2, 34288, Note_on_c, 0, 63, 60
2, 34384, Note_on_c, 0, 69, 82
2, 34388, Note_off_c, 0, 68, 0
2, 34396, Note_off_c, 0, 63, 0
2, 34412, Note_on_c, 0, 56, 45
2, 34484, Note_off_c, 0, 69, 0
2, 34484, Note_on_c, 0, 70, 80
2, 34500, Note_on_c, 0, 49, 61
2, 34508, Note_off_c, 0, 56, 0
2, 34536, Note_off_c, 0, 49, 0
2, 34552, Note_off_c, 0, 70, 0
2, 34600, Note_on_c, 0, 64, 53
2, 34680, Note_off_c, 0, 64, 0
2, 34700, Note_on_c, 0, 70, 76
2, 34720, Note_on_c, 0, 56, 37
2, 34744, Note_off_c, 0, 70, 0
2, 34784, Note_off_c, 0, 56, 0
2, 34804, Note_on_c, 0, 70, 68
2, 34816, Note_on_c, 0, 51, 55
2, 34848, Control_c, 0, 64, 72
2, 34860, Control_c, 0, 64, 127
2, 34912, Note_on_c, 0, 63, 52
2, 34976, Control_c, 0, 64, 88
2, 34988, Control_c, 0, 64, 72
2, 34996, Note_off_c, 0, 63, 0
2, 35000, Control_c, 0, 64, 40
2, 35012, Note_off_c, 0, 70, 0
2, 35012, Control_c, 0, 64, 0
2, 35020, Note_off_c, 0, 51, 0
2, 35020, Note_on_c, 0, 72, 79
2, 35020, Note_on_c, 0, 55, 50
2, 35096, Note_off_c, 0, 55, 0
2, 35116, Control_c, 0, 64, 40
2, 35124, Note_on_c, 0, 68, 73
2, 35132, Control_c, 0, 64, 72
2, 35136, Note_off_c, 0, 72, 0
2, 35140, Note_on_c, 0, 53, 55
2, 35184, Control_c, 0, 64, 24
2, 35196, Control_c, 0, 64, 0
2, 35200, Note_off_c, 0, 68, 0
2, 35224, Note_on_c, 0, 60, 56
2, 35252, Note_off_c, 0, 53, 0
2, 35312, Note_off_c, 0, 60, 0
2, 35320, Note_on_c, 0, 68, 73
2, 35332, Note_on_c, 0, 56, 39
2, 35368, Note_off_c, 0, 68, 0
2, 35424, Note_on_c, 0, 68, 71
2, 35436, Note_on_c, 0, 48, 68
2, 35460, Note_off_c, 0, 48, 0
2, 35472, Note_off_c, 0, 68, 0
2, 35504, Note_on_c, 0, 70, 63
2, 35508, Note_off_c, 0, 56, 0
2, 35524, Note_on_c, 0, 63, 71
2, 35528, Note_on_c, 0, 68, 78
2, 35560, Note_off_c, 0, 70, 0
2, 35596, Note_off_c, 0, 63, 0
2, 35616, Note_off_c, 0, 68, 0
2, 35616, Note_on_c, 0, 67, 88
2, 35632, Note_on_c, 0, 56, 67
2, 35712, Note_on_c, 0, 68, 83
2, 35720, Note_off_c, 0, 56, 0
2, 35740, Note_on_c, 0, 49, 76
2, 35744, Note_off_c, 0, 67, 0
2, 35780, Note_off_c, 0, 49, 0
2, 35812, Note_on_c, 0, 70, 82
2, 35824, Note_on_c, 0, 64, 71
2, 35828, Note_off_c, 0, 68, 0
2, 35872, Note_off_c, 0, 70, 0
2, 35896, Note_off_c, 0, 64, 0
2, 35916, Note_on_c, 0, 72, 89
2, 35932, Note_on_c, 0, 56, 49
2, 35972, Note_off_c, 0, 72, 0
2, 36008, Note_off_c, 0, 56, 0
2, 36012, Note_on_c, 0, 73, 88
2, 36016, Note_on_c, 0, 52, 67
2, 36084, Note_off_c, 0, 73, 0
2, 36104, Note_on_c, 0, 75, 90
2, 36116, Note_on_c, 0, 61, 64
2, 36172, Note_off_c, 0, 52, 0
2, 36196, Note_on_c, 0, 76, 92
2, 36204, Note_on_c, 0, 56, 67
2, 36208, Note_off_c, 0, 61, 0
2, 36224, Note_off_c, 0, 75, 0
2, 36260, Note_off_c, 0, 56, 0
2, 36272, Note_off_c, 0, 76, 0
2, 36316, Note_on_c, 0, 80, 91
2, 36320, Note_on_c, 0, 68, 75
2, 36336, Note_on_c, 0, 44, 71
2, 36344, Control_c, 0, 64, 72
2, 36356, Control_c, 0, 64, 127
2, 36396, Note_off_c, 0, 44, 0
2, 36440, Note_on_c, 0, 60, 59
2, 36448, Control_c, 0, 64, 104
2, 36460, Control_c, 0, 64, 72
2, 36468, Control_c, 0, 64, 40
2, 36480, Control_c, 0, 64, 0
2, 36520, Note_off_c, 0, 60, 0
2, 36544, Note_on_c, 0, 56, 50
2, 36556, Note_off_c, 0, 68, 0
2, 36652, Note_on_c, 0, 48, 71
2, 36668, Note_off_c, 0, 56, 0
2, 36668, Control_c, 0, 64, 40
2, 36680, Control_c, 0, 64, 88
2, 36692, Control_c, 0, 64, 127
2, 36704, Note_off_c, 0, 48, 0
2, 36732, Control_c, 0, 64, 40
2, 36744, Control_c, 0, 64, 0
2, 36752, Note_on_c, 0, 63, 55
2, 36828, Note_off_c, 0, 63, 0
2, 36864, Note_on_c, 0, 69, 76
2, 36872, Note_on_c, 0, 56, 43
2, 36944, Note_off_c, 0, 69, 0
2, 36956, Note_off_c, 0, 56, 0
2, 36960, Note_on_c, 0, 70, 83
2, 36964, Control_c, 0, 64, 40
2, 36972, Note_on_c, 0, 49, 62
2, 36976, Control_c, 0, 64, 56
2, 36992, Control_c, 0, 64, 40
2, 37004, Control_c, 0, 64, 0
2, 37016, Note_off_c, 0, 49, 0
2, 37040, Note_off_c, 0, 70, 0
2, 37064, Note_on_c, 0, 64, 53
2, 37136, Note_off_c, 0, 64, 0
2, 37184, Note_on_c, 0, 70, 80
2, 37200, Note_on_c, 0, 56, 48
2, 37232, Note_off_c, 0, 70, 0
2, 37276, Note_off_c, 0, 56, 0
2, 37288, Note_on_c, 0, 70, 85
2, 37296, Note_on_c, 0, 51, 59
2, 37296, Control_c, 0, 64, 72
2, 37312, Control_c, 0, 64, 127
2, 37348, Control_c, 0, 64, 40
2, 37360, Control_c, 0, 64, 0
2, 37380, Note_on_c, 0, 63, 47
2, 37472, Note_off_c, 0, 70, 0
2, 37480, Note_off_c, 0, 63, 0
2, 37484, Note_off_c, 0, 51, 0
2, 37488, Note_on_c, 0, 55, 47
2, 37500, Note_on_c, 0, 72, 75
2, 37596, Note_off_c, 0, 55, 0
2, 37612, Note_on_c, 0, 68, 67
2, 37616, Note_off_c, 0, 72, 0
2, 37620, Control_c, 0, 64, 40
2, 37628, Note_on_c, 0, 53, 55
2, 37632, Control_c, 0, 64, 127
2, 37664, Note_off_c, 0, 80, 0
2, 37672, Control_c, 0, 64, 72
2, 37684, Control_c, 0, 64, 0
2, 37708, Note_off_c, 0, 68, 0
2, 37720, Note_on_c, 0, 60, 56
2, 37748, Note_off_c, 0, 53, 0
2, 37804, Note_off_c, 0, 60, 0
2, 37820, Note_on_c, 0, 68, 72
2, 37824, Note_on_c, 0, 56, 46
2, 37876, Note_off_c, 0, 68, 0
2, 37920, Note_on_c, 0, 68, 71
2, 37928, Note_on_c, 0, 48, 65
2, 37932, Control_c, 0, 64, 40
2, 37952, Note_off_c, 0, 48, 0
2, 37976, Note_off_c, 0, 56, 0
2, 37980, Note_off_c, 0, 68, 0
2, 37984, Control_c, 0, 64, 0
2, 38004, Note_on_c, 0, 70, 64
2, 38016, Note_on_c, 0, 63, 68
2, 38032, Note_on_c, 0, 68, 84
2, 38048, Note_off_c, 0, 70, 0
2, 38080, Note_off_c, 0, 63, 0
2, 38116, Note_off_c, 0, 68, 0
2, 38124, Note_on_c, 0, 67, 80
2, 38132, Note_on_c, 0, 56, 62
2, 38216, Note_on_c, 0, 68, 82
2, 38224, Note_off_c, 0, 56, 0
2, 38232, Note_off_c, 0, 67, 0
2, 38240, Note_on_c, 0, 49, 77
2, 38284, Note_off_c, 0, 49, 0
2, 38320, Note_on_c, 0, 70, 73
2, 38328, Note_on_c, 0, 64, 70
2, 38340, Note_off_c, 0, 68, 0
2, 38384, Note_off_c, 0, 70, 0
2, 38400, Note_off_c, 0, 64, 0
2, 38420, Note_on_c, 0, 72, 85
2, 38448, Note_on_c, 0, 56, 53
2, 38488, Note_off_c, 0, 72, 0
2, 38512, Note_off_c, 0, 56, 0
2, 38524, Note_on_c, 0, 73, 86
2, 38524, Note_on_c, 0, 52, 66
2, 38608, Note_off_c, 0, 73, 0
2, 38616, Note_on_c, 0, 75, 85
2, 38620, Note_on_c, 0, 61, 60
2, 38684, Note_off_c, 0, 52, 0
2, 38696, Note_on_c, 0, 56, 58
2, 38716, Note_on_c, 0, 76, 85
2, 38720, Note_off_c, 0, 61, 0
2, 38756, Note_off_c, 0, 56, 0
2, 38784, Note_off_c, 0, 75, 0
2, 38816, Note_off_c, 0, 76, 0
2, 38832, Note_on_c, 0, 68, 81
2, 38832, Note_on_c, 0, 44, 76
2, 38880, Note_off_c, 0, 44, 0
2, 38904, Note_off_c, 0, 68, 0
2, 38944, Note_on_c, 0, 60, 64
2, 39020, Note_off_c, 0, 60, 0
2, 39036, Note_on_c, 0, 68, 77
2, 39056, Note_on_c, 0, 56, 54
2, 39088, Note_off_c, 0, 68, 0
2, 39140, Note_on_c, 0, 68, 75
2, 39168, Control_c, 0, 64, 24
2, 39176, Note_on_c, 0, 48, 49
2, 39184, Control_c, 0, 64, 72
2, 39192, Note_off_c, 0, 56, 0
2, 39196, Control_c, 0, 64, 104
2, 39200, Note_off_c, 0, 48, 0
2, 39208, Control_c, 0, 64, 127
2, 39260, Control_c, 0, 64, 88
2, 39264, Note_on_c, 0, 63, 62
2, 39312, Control_c, 0, 64, 56
2, 39328, Control_c, 0, 64, 40
2, 39340, Note_off_c, 0, 63, 0
2, 39340, Control_c, 0, 64, 0
2, 39352, Note_off_c, 0, 68, 0
2, 39360, Note_on_c, 0, 69, 76
2, 39376, Note_on_c, 0, 56, 42
2, 39444, Note_off_c, 0, 69, 0
2, 39456, Note_off_c, 0, 56, 0
2, 39456, Control_c, 0, 64, 24
2, 39460, Note_on_c, 0, 70, 77
2, 39468, Control_c, 0, 64, 56
2, 39472, Note_on_c, 0, 49, 62
2, 39480, Control_c, 0, 64, 72
2, 39512, Note_off_c, 0, 49, 0
2, 39520, Control_c, 0, 64, 24
2, 39524, Note_off_c, 0, 70, 0
2, 39532, Control_c, 0, 64, 0
2, 39580, Note_on_c, 0, 64, 56
2, 39664, Note_off_c, 0, 64, 0
2, 39680, Note_on_c, 0, 70, 75
2, 39692, Note_on_c, 0, 56, 46
2, 39724, Note_off_c, 0, 70, 0
2, 39772, Note_off_c, 0, 56, 0
2, 39792, Note_on_c, 0, 70, 69
2, 39796, Note_on_c, 0, 51, 60
2, 39804, Control_c, 0, 64, 56
2, 39816, Control_c, 0, 64, 104
2, 39828, Control_c, 0, 64, 127
2, 39904, Note_on_c, 0, 63, 53
2, 39944, Control_c, 0, 64, 104
2, 39956, Control_c, 0, 64, 88
2, 39968, Control_c, 0, 64, 56
2, 39972, Note_off_c, 0, 51, 0
2, 39980, Note_off_c, 0, 70, 0
2, 39984, Control_c, 0, 64, 24
2, 39996, Control_c, 0, 64, 0
2, 40000, Note_on_c, 0, 72, 77
2, 40000, Note_on_c, 0, 55, 52
2, 40004, Note_off_c, 0, 63, 0
2, 40096, Note_off_c, 0, 55, 0
2, 40108, Note_off_c, 0, 72, 0
2, 40108, Note_on_c, 0, 68, 68
2, 40112, Note_on_c, 0, 53, 53
2, 40128, Control_c, 0, 64, 24
2, 40140, Control_c, 0, 64, 72
2, 40152, Control_c, 0, 64, 88
2, 40176, Note_off_c, 0, 68, 0
2, 40192, Control_c, 0, 64, 24
2, 40196, Note_on_c, 0, 60, 52
2, 40204, Control_c, 0, 64, 0
2, 40256, Note_off_c, 0, 53, 0
2, 40296, Note_on_c, 0, 68, 74
2, 40304, Note_on_c, 0, 56, 47
2, 40312, Note_off_c, 0, 60, 0
2, 40332, Control_c, 0, 64, 56
2, 40344, Note_off_c, 0, 68, 0
2, 40344, Control_c, 0, 64, 88
2, 40356, Control_c, 0, 64, 127
2, 40396, Control_c, 0, 64, 72
2, 40400, Note_on_c, 0, 68, 65
2, 40400, Note_on_c, 0, 48, 72
2, 40408, Control_c, 0, 64, 56
2, 40420, Control_c, 0, 64, 40
2, 40432, Control_c, 0, 64, 24
2, 40448, Note_off_c, 0, 48, 0
2, 40456, Note_off_c, 0, 68, 0
2, 40460, Control_c, 0, 64, 0
2, 40480, Note_off_c, 0, 56, 0
2, 40492, Note_on_c, 0, 70, 72
2, 40496, Note_on_c, 0, 63, 72
2, 40512, Note_on_c, 0, 68, 80
2, 40544, Note_off_c, 0, 70, 0
2, 40564, Note_off_c, 0, 63, 0
2, 40608, Note_on_c, 0, 67, 83
2, 40608, Note_on_c, 0, 56, 58
2, 40620, Note_off_c, 0, 68, 0
2, 40692, Note_on_c, 0, 68, 79
2, 40700, Note_off_c, 0, 56, 0
2, 40700, Note_on_c, 0, 49, 74
2, 40724, Note_off_c, 0, 67, 0
2, 40756, Note_off_c, 0, 49, 0
2, 40800, Note_on_c, 0, 64, 64
2, 40804, Note_on_c, 0, 70, 77
2, 40816, Note_off_c, 0, 68, 0
2, 40864, Note_off_c, 0, 70, 0
2, 40872, Note_off_c, 0, 64, 0
2, 40896, Note_on_c, 0, 72, 86
2, 40908, Note_on_c, 0, 56, 57
2, 40972, Note_off_c, 0, 72, 0
2, 40988, Note_off_c, 0, 56, 0
2, 41004, Note_on_c, 0, 73, 85
2, 41004, Note_on_c, 0, 52, 66
2, 41084, Note_off_c, 0, 73, 0
2, 41100, Note_on_c, 0, 75, 85
2, 41104, Note_on_c, 0, 61, 58
2, 41160, Note_off_c, 0, 52, 0
2, 41176, Note_on_c, 0, 56, 57
2, 41184, Control_c, 0, 64, 24
2, 41188, Note_on_c, 0, 76, 90
2, 41192, Note_off_c, 0, 75, 0
2, 41216, Note_off_c, 0, 61, 0
2, 41220, Control_c, 0, 64, 0
2, 41240, Note_off_c, 0, 56, 0
2, 41272, Note_off_c, 0, 76, 0
2, 41312, Note_on_c, 0, 80, 90
2, 41312, Note_on_c, 0, 44, 75
2, 41320, Note_on_c, 0, 68, 71
2, 41340, Control_c, 0, 64, 56
2, 41352, Control_c, 0, 64, 104
2, 41360, Note_off_c, 0, 44, 0
2, 41360, Control_c, 0, 64, 127
2, 41424, Note_on_c, 0, 60, 68
2, 41452, Note_off_c, 0, 68, 0
2, 41504, Note_off_c, 0, 60, 0
2, 41520, Control_c, 0, 64, 72
2, 41524, Note_on_c, 0, 56, 48
2, 41532, Control_c, 0, 64, 0
2, 41616, Note_off_c, 0, 56, 0
2, 41620, Note_on_c, 0, 48, 75
2, 41624, Control_c, 0, 64, 72
2, 41636, Control_c, 0, 64, 127
2, 41680, Note_off_c, 0, 48, 0
2, 41712, Note_on_c, 0, 56, 40
2, 41732, Note_on_c, 0, 63, 57
2, 41776, Note_off_c, 0, 56, 0
2, 41812, Note_off_c, 0, 80, 0
2, 41816, Note_off_c, 0, 63, 0
2, 41824, Control_c, 0, 64, 104
2, 41836, Note_on_c, 0, 72, 80
2, 41840, Control_c, 0, 64, 56
2, 41856, Control_c, 0, 64, 0
2, 41896, Note_on_c, 0, 58, 55
2, 41900, Note_on_c, 0, 48, 57
2, 41904, Note_off_c, 0, 72, 0
2, 41904, Note_on_c, 0, 55, 60
2, 41924, Note_off_c, 0, 48, 0
2, 41948, Note_on_c, 0, 84, 100
2, 41956, Control_c, 0, 64, 72
2, 41964, Note_on_c, 0, 64, 80
2, 41968, Control_c, 0, 64, 127
2, 41976, Note_off_c, 0, 55, 0
2, 41984, Note_off_c, 0, 58, 0
2, 42008, Note_off_c, 0, 64, 0
2, 42148, Note_off_c, 0, 84, 0
2, 42168, Note_on_c, 0, 72, 88
2, 42228, Control_c, 0, 64, 56
2, 42236, Note_off_c, 0, 72, 0
2, 42240, Control_c, 0, 64, 0
2, 42272, Note_on_c, 0, 72, 78
2, 42272, Note_on_c, 0, 84, 90
2, 42308, Control_c, 0, 64, 72
2, 42320, Note_off_c, 0, 72, 0
2, 42320, Control_c, 0, 64, 127
2, 42368, Note_on_c, 0, 71, 74
2, 42440, Note_off_c, 0, 71, 0
2, 42464, Note_off_c, 0, 84, 0
2, 42480, Note_on_c, 0, 70, 64
2, 42480, Note_on_c, 0, 72, 74
2, 42528, Control_c, 0, 64, 56
2, 42540, Note_off_c, 0, 72, 0
2, 42540, Control_c, 0, 64, 0
2, 42560, Note_off_c, 0, 70, 0
2, 42576, Note_on_c, 0, 85, 92
2, 42588, Note_on_c, 0, 80, 71
2, 42592, Note_on_c, 0, 69, 76
2, 42592, Note_on_c, 0, 77, 70
2, 42600, Control_c, 0, 64, 24
2, 42616, Control_c, 0, 64, 104
2, 42628, Control_c, 0, 64, 127
2, 42640, Note_off_c, 0, 69, 0
2, 42688, Note_on_c, 0, 68, 68
2, 42752, Note_off_c, 0, 85, 0
2, 42752, Note_off_c, 0, 68, 0
2, 42768, Note_off_c, 0, 77, 0
2, 42792, Note_on_c, 0, 72, 76
2, 42792, Note_on_c, 0, 67, 68
2, 42836, Note_off_c, 0, 80, 0
2, 42836, Control_c, 0, 64, 88
2, 42848, Note_off_c, 0, 67, 0
2, 42848, Control_c, 0, 64, 24
2, 42864, Note_off_c, 0, 72, 0
2, 42864, Control_c, 0, 64, 0
2, 42892, Note_on_c, 0, 84, 90
2, 42892, Note_on_c, 0, 66, 69
2, 42928, Control_c, 0, 64, 40
2, 42940, Control_c, 0, 64, 104
2, 42952, Control_c, 0, 64, 127
2, 42956, Note_off_c, 0, 66, 0
2, 42984, Note_on_c, 0, 65, 76
2, 43068, Note_off_c, 0, 65, 0
2, 43088, Note_off_c, 0, 84, 0
2, 43096, Note_on_c, 0, 72, 85
2, 43100, Note_on_c, 0, 64, 74
2, 43136, Control_c, 0, 64, 72
2, 43148, Control_c, 0, 64, 0
2, 43156, Note_off_c, 0, 72, 0
2, 43160, Note_off_c, 0, 64, 0
2, 43192, Note_on_c, 0, 85, 95
2, 43200, Note_on_c, 0, 76, 79
2, 43200, Note_on_c, 0, 79, 73
2, 43204, Note_on_c, 0, 63, 76
2, 43204, Note_on_c, 0, 82, 62
2, 43236, Control_c, 0, 64, 40
2, 43248, Control_c, 0, 64, 104
2, 43264, Control_c, 0, 64, 127
2, 43272, Note_off_c, 0, 63, 0
2, 43308, Note_on_c, 0, 62, 74
2, 43332, Note_off_c, 0, 85, 0
2, 43336, Note_off_c, 0, 82, 0
2, 43368, Note_off_c, 0, 79, 0
2, 43368, Note_off_c, 0, 62, 0
2, 43380, Note_off_c, 0, 76, 0
2, 43408, Note_on_c, 0, 72, 82
2, 43412, Note_on_c, 0, 61, 62
2, 43468, Control_c, 0, 64, 88
2, 43472, Note_off_c, 0, 61, 0
2, 43480, Control_c, 0, 64, 40
2, 43488, Note_off_c, 0, 72, 0
2, 43492, Control_c, 0, 64, 0
2, 43512, Note_on_c, 0, 84, 93
2, 43512, Note_on_c, 0, 60, 72
2, 43548, Control_c, 0, 64, 40
2, 43560, Control_c, 0, 64, 104
2, 43572, Control_c, 0, 64, 127
2, 43584, Note_off_c, 0, 60, 0
2, 43608, Note_on_c, 0, 59, 77
2, 43684, Note_off_c, 0, 59, 0
2, 43692, Note_off_c, 0, 84, 0
2, 43696, Note_on_c, 0, 72, 83
2, 43716, Note_on_c, 0, 58, 71
2, 43752, Control_c, 0, 64, 88
2, 43764, Control_c, 0, 64, 40
2, 43776, Note_off_c, 0, 72, 0
2, 43776, Control_c, 0, 64, 0
2, 43792, Note_off_c, 0, 58, 0
2, 43800, Note_on_c, 0, 85, 93
2, 43808, Note_on_c, 0, 80, 77
2, 43816, Note_on_c, 0, 77, 78
2, 43816, Note_on_c, 0, 57, 77
2, 43832, Control_c, 0, 64, 40
2, 43844, Control_c, 0, 64, 88
2, 43856, Control_c, 0, 64, 127
2, 43884, Note_off_c, 0, 57, 0
2, 43916, Note_on_c, 0, 56, 71
2, 43956, Note_off_c, 0, 85, 0
2, 43976, Note_off_c, 0, 56, 0
2, 43996, Note_off_c, 0, 77, 0
2, 44004, Note_off_c, 0, 80, 0
2, 44012, Control_c, 0, 64, 88
2, 44016, Note_on_c, 0, 72, 93
2, 44016, Note_on_c, 0, 55, 78
2, 44024, Control_c, 0, 64, 40
2, 44036, Control_c, 0, 64, 24
2, 44048, Control_c, 0, 64, 40
2, 44064, Control_c, 0, 64, 56
2, 44076, Control_c, 0, 64, 104
2, 44084, Note_off_c, 0, 55, 0
2, 44088, Control_c, 0, 64, 127
2, 44112, Note_off_c, 0, 72, 0
2, 44112, Note_on_c, 0, 54, 71
2, 44120, Note_on_c, 0, 84, 89
2, 44176, Control_c, 0, 64, 104
2, 44188, Note_off_c, 0, 54, 0
2, 44192, Control_c, 0, 64, 56
2, 44204, Control_c, 0, 64, 40
2, 44216, Control_c, 0, 64, 56
2, 44220, Note_on_c, 0, 53, 74
2, 44228, Control_c, 0, 64, 72
2, 44240, Control_c, 0, 64, 104
2, 44256, Control_c, 0, 64, 127
2, 44304, Note_off_c, 0, 84, 0
2, 44308, Note_on_c, 0, 52, 83
2, 44316, Note_off_c, 0, 53, 0
2, 44316, Note_on_c, 0, 72, 89
2, 44352, Note_off_c, 0, 52, 0
2, 44372, Note_off_c, 0, 72, 0
2, 44384, Control_c, 0, 64, 72
2, 44396, Control_c, 0, 64, 0
2, 44432, Note_on_c, 0, 51, 92
2, 44436, Note_on_c, 0, 87, 99
2, 44440, Note_on_c, 0, 39, 78
2, 44444, Note_on_c, 0, 75, 96
2, 44448, Note_on_c, 0, 79, 80
2, 44448, Note_on_c, 0, 82, 62
2, 44452, Note_on_c, 0, 85, 54
2, 44464, Note_off_c, 0, 39, 0
2, 44468, Note_off_c, 0, 79, 0
2, 44472, Note_off_c, 0, 51, 0
2, 44472, Note_off_c, 0, 82, 0
2, 44476, Note_off_c, 0, 85, 0
2, 44476, Control_c, 0, 64, 88
2, 44488, Control_c, 0, 64, 127
2, 44504, Note_off_c, 0, 75, 0
2, 44508, Note_off_c, 0, 87, 0
2, 44644, Note_on_c, 0, 51, 75
2, 44720, Note_off_c, 0, 51, 0
2, 44720, Control_c, 0, 64, 104
2, 44736, Control_c, 0, 64, 72
2, 44748, Control_c, 0, 64, 40
2, 44752, Note_on_c, 0, 63, 77
2, 44760, Control_c, 0, 64, 24
2, 44764, Note_on_c, 0, 55, 60
2, 44764, Note_on_c, 0, 61, 59
2, 44772, Control_c, 0, 64, 0
2, 44804, Note_off_c, 0, 63, 0
2, 44828, Note_off_c, 0, 55, 0
2, 44844, Note_off_c, 0, 61, 0
2, 44856, Note_on_c, 0, 64, 79
2, 44908, Note_off_c, 0, 64, 0
2, 44912, Note_on_c, 0, 51, 54
2, 44956, Note_on_c, 0, 65, 83
2, 45020, Note_off_c, 0, 51, 0
2, 45020, Note_off_c, 0, 65, 0
2, 45060, Note_on_c, 0, 66, 62
2, 45060, Note_on_c, 0, 60, 70
2, 45064, Note_on_c, 0, 65, 88
2, 45068, Note_on_c, 0, 56, 27
2, 45096, Control_c, 0, 64, 56
2, 45108, Control_c, 0, 64, 88
2, 45120, Note_off_c, 0, 65, 0
2, 45120, Control_c, 0, 64, 127
2, 45124, Note_off_c, 0, 66, 0
2, 45136, Note_off_c, 0, 60, 0
2, 45156, Note_on_c, 0, 67, 76
2, 45200, Note_off_c, 0, 56, 0
2, 45220, Note_off_c, 0, 67, 0
2, 45244, Note_on_c, 0, 51, 48
2, 45248, Control_c, 0, 64, 104
2, 45264, Note_on_c, 0, 68, 73
2, 45312, Control_c, 0, 64, 127
2, 45336, Note_off_c, 0, 68, 0
2, 45356, Note_off_c, 0, 51, 0
2, 45356, Control_c, 0, 64, 40
2, 45360, Note_on_c, 0, 69, 78
2, 45368, Control_c, 0, 64, 0
2, 45376, Note_on_c, 0, 63, 75
2, 45432, Control_c, 0, 64, 24
2, 45440, Note_off_c, 0, 69, 0
2, 45444, Control_c, 0, 64, 56
2, 45456, Control_c, 0, 64, 88
2, 45468, Note_on_c, 0, 70, 73
2, 45468, Control_c, 0, 64, 104
2, 45488, Note_off_c, 0, 63, 0
2, 45536, Note_off_c, 0, 70, 0
2, 45548, Note_on_c, 0, 51, 57
2, 45548, Control_c, 0, 64, 88
2, 45560, Control_c, 0, 64, 72
2, 45568, Note_on_c, 0, 71, 72
2, 45568, Control_c, 0, 64, 40
2, 45584, Control_c, 0, 64, 0
2, 45624, Note_off_c, 0, 51, 0
2, 45640, Note_off_c, 0, 71, 0
2, 45664, Note_on_c, 0, 72, 87
2, 45664, Note_on_c, 0, 55, 39
2, 45672, Note_on_c, 0, 61, 67
2, 45684, Note_on_c, 0, 65, 85
2, 45700, Control_c, 0, 64, 72
2, 45712, Control_c, 0, 64, 127
2, 45740, Note_off_c, 0, 72, 0
2, 45760, Note_off_c, 0, 65, 0
2, 45764, Note_on_c, 0, 73, 74
2, 45792, Note_off_c, 0, 61, 0
2, 45832, Note_off_c, 0, 55, 0
2, 45848, Note_off_c, 0, 73, 0
2, 45872, Note_on_c, 0, 74, 74
2, 45888, Note_on_c, 0, 51, 63
2, 45956, Note_off_c, 0, 74, 0
2, 45968, Note_on_c, 0, 75, 79
2, 45984, Note_off_c, 0, 51, 0
2, 45992, Note_on_c, 0, 63, 76
2, 46044, Note_off_c, 0, 75, 0
2, 46068, Note_on_c, 0, 76, 86
2, 46104, Note_off_c, 0, 63, 0
2, 46152, Note_off_c, 0, 76, 0
2, 46156, Note_on_c, 0, 51, 56
2, 46168, Note_on_c, 0, 77, 94
2, 46180, Control_c, 0, 64, 56
2, 46192, Control_c, 0, 64, 0
2, 46236, Note_off_c, 0, 51, 0
2, 46264, Note_off_c, 0, 77, 0
2, 46276, Note_on_c, 0, 78, 78
2, 46276, Note_on_c, 0, 56, 29
2, 46280, Note_on_c, 0, 60, 70
2, 46284, Note_on_c, 0, 65, 88
2, 46284, Control_c, 0, 64, 40
2, 46296, Control_c, 0, 64, 127
2, 46352, Note_off_c, 0, 78, 0
2, 46356, Note_off_c, 0, 65, 0
2, 46376, Note_off_c, 0, 60, 0
2, 46384, Note_on_c, 0, 79, 82
2, 46404, Note_off_c, 0, 56, 0
2, 46472, Note_off_c, 0, 79, 0
2, 46472, Note_on_c, 0, 51, 60
2, 46496, Note_on_c, 0, 80, 73
2, 46568, Note_off_c, 0, 80, 0
2, 46576, Note_on_c, 0, 63, 76
2, 46592, Note_on_c, 0, 81, 84
2, 46648, Note_off_c, 0, 51, 0
2, 46660, Note_off_c, 0, 81, 0
2, 46668, Note_off_c, 0, 63, 0
2, 46688, Note_on_c, 0, 82, 83
2, 46720, Control_c, 0, 64, 104
2, 46736, Control_c, 0, 64, 40
2, 46748, Control_c, 0, 64, 0
2, 46760, Note_off_c, 0, 82, 0
2, 46764, Note_on_c, 0, 58, 48
2, 46780, Note_on_c, 0, 83, 83
2, 46784, Note_on_c, 0, 48, 75
2, 46796, Note_on_c, 0, 55, 50
2, 46812, Note_on_c, 0, 52, 48
2, 46840, Note_off_c, 0, 52, 0
2, 46844, Note_off_c, 0, 48, 0
2, 46872, Note_off_c, 0, 83, 0
2, 46884, Note_on_c, 0, 64, 85
2, 46892, Note_off_c, 0, 55, 0
2, 46892, Control_c, 0, 64, 40
2, 46896, Note_on_c, 0, 84, 99
2, 46904, Note_off_c, 0, 58, 0
2, 46904, Control_c, 0, 64, 127
2, 46928, Note_off_c, 0, 64, 0
2, 47104, Note_off_c, 0, 84, 0
2, 47120, Note_on_c, 0, 72, 78
2, 47168, Note_off_c, 0, 72, 0
2, 47212, Control_c, 0, 64, 72
2, 47216, Note_on_c, 0, 72, 63
2, 47224, Control_c, 0, 64, 0
2, 47232, Note_on_c, 0, 84, 85
2, 47264, Note_off_c, 0, 72, 0
2, 47316, Note_on_c, 0, 71, 70
2, 47316, Control_c, 0, 64, 56
2, 47328, Control_c, 0, 64, 72
2, 47344, Control_c, 0, 64, 88
2, 47372, Note_off_c, 0, 71, 0
2, 47420, Note_off_c, 0, 84, 0
2, 47424, Note_on_c, 0, 72, 76
2, 47432, Note_on_c, 0, 70, 58
2, 47472, Control_c, 0, 64, 24
2, 47484, Control_c, 0, 64, 0
2, 47488, Note_off_c, 0, 72, 0
2, 47500, Note_off_c, 0, 70, 0
2, 47528, Note_on_c, 0, 85, 87
2, 47536, Note_on_c, 0, 80, 65
2, 47540, Note_on_c, 0, 69, 62
2, 47552, Note_on_c, 0, 77, 51
2, 47560, Control_c, 0, 64, 24
2, 47572, Control_c, 0, 64, 72
2, 47584, Control_c, 0, 64, 104
2, 47596, Note_off_c, 0, 69, 0
2, 47600, Control_c, 0, 64, 127
2, 47636, Note_on_c, 0, 68, 62
2, 47640, Control_c, 0, 64, 104
2, 47652, Control_c, 0, 64, 88
2, 47688, Note_off_c, 0, 85, 0
2, 47688, Control_c, 0, 64, 72
2, 47696, Note_off_c, 0, 68, 0
2, 47716, Control_c, 0, 64, 56
2, 47724, Note_on_c, 0, 72, 78
2, 47728, Control_c, 0, 64, 40
2, 47732, Note_off_c, 0, 80, 0
2, 47740, Control_c, 0, 64, 0
2, 47744, Note_on_c, 0, 67, 65
2, 47756, Note_off_c, 0, 77, 0
2, 47804, Note_off_c, 0, 67, 0
2, 47808, Note_off_c, 0, 72, 0
2, 47824, Note_on_c, 0, 84, 92
2, 47840, Note_on_c, 0, 66, 67
2, 47844, Control_c, 0, 64, 40
2, 47856, Control_c, 0, 64, 88
2, 47872, Control_c, 0, 64, 127
2, 47896, Note_off_c, 0, 66, 0
2, 47932, Note_on_c, 0, 65, 74
2, 47960, Control_c, 0, 64, 104
2, 47972, Control_c, 0, 64, 72
2, 47984, Control_c, 0, 64, 40
2, 48000, Control_c, 0, 64, 0
2, 48004, Note_off_c, 0, 84, 0
2, 48012, Note_off_c, 0, 65, 0
2, 48020, Note_on_c, 0, 72, 85
2, 48036, Note_on_c, 0, 64, 73
2, 48088, Note_off_c, 0, 72, 0
2, 48112, Note_off_c, 0, 64, 0
2, 48128, Note_on_c, 0, 85, 92
2, 48136, Note_on_c, 0, 79, 76
2, 48136, Note_on_c, 0, 63, 73
2, 48140, Note_on_c, 0, 76, 75
2, 48156, Control_c, 0, 64, 72
2, 48168, Control_c, 0, 64, 127
2, 48208, Note_off_c, 0, 63, 0
2, 48240, Note_on_c, 0, 62, 74
2, 48276, Note_off_c, 0, 85, 0
2, 48300, Note_off_c, 0, 76, 0
2, 48300, Note_off_c, 0, 62, 0
2, 48308, Control_c, 0, 64, 104
2, 48320, Control_c, 0, 64, 56
2, 48328, Note_on_c, 0, 72, 83
2, 48336, Control_c, 0, 64, 24
2, 48344, Note_on_c, 0, 61, 65
2, 48348, Control_c, 0, 64, 0
2, 48364, Note_off_c, 0, 79, 0
2, 48400, Note_off_c, 0, 61, 0
2, 48420, Note_off_c, 0, 72, 0
2, 48428, Control_c, 0, 64, 24
2, 48432, Note_on_c, 0, 84, 97
2, 48436, Note_on_c, 0, 60, 78
2, 48440, Control_c, 0, 64, 56
2, 48452, Control_c, 0, 64, 104
2, 48464, Control_c, 0, 64, 127
2, 48516, Note_off_c, 0, 60, 0
2, 48540, Note_on_c, 0, 59, 78
2, 48608, Note_off_c, 0, 59, 0
2, 48624, Note_off_c, 0, 84, 0
2, 48632, Note_on_c, 0, 72, 86
2, 48640, Note_on_c, 0, 58, 74
2, 48704, Note_off_c, 0, 72, 0
2, 48708, Note_off_c, 0, 58, 0
2, 48708, Control_c, 0, 64, 72
2, 48720, Control_c, 0, 64, 24
2, 48732, Note_on_c, 0, 85, 95
2, 48736, Note_on_c, 0, 57, 80
2, 48736, Note_on_c, 0, 80, 79
2, 48736, Control_c, 0, 64, 0
2, 48744, Note_on_c, 0, 77, 81
2, 48784, Control_c, 0, 64, 40
2, 48800, Note_off_c, 0, 57, 0
2, 48800, Control_c, 0, 64, 104
2, 48812, Control_c, 0, 64, 127
2, 48832, Note_on_c, 0, 56, 76
2, 48864, Note_off_c, 0, 85, 0
2, 48896, Note_off_c, 0, 77, 0
2, 48896, Note_off_c, 0, 56, 0
2, 48924, Note_off_c, 0, 80, 0
2, 48928, Control_c, 0, 64, 88
2, 48932, Note_on_c, 0, 72, 100
2, 48940, Note_on_c, 0, 55, 80
2, 48944, Control_c, 0, 64, 24
2, 48952, Control_c, 0, 64, 0
2, 48992, Control_c, 0, 64, 40
2, 49008, Note_off_c, 0, 55, 0
2, 49008, Control_c, 0, 64, 88
2, 49020, Control_c, 0, 64, 127
2, 49028, Note_on_c, 0, 54, 71
2, 49032, Note_off_c, 0, 72, 0
2, 49032, Note_on_c, 0, 84, 99
2, 49104, Note_off_c, 0, 54, 0
2, 49128, Note_on_c, 0, 53, 77
2, 49208, Note_off_c, 0, 84, 0
2, 49212, Note_on_c, 0, 52, 77
2, 49232, Note_off_c, 0, 53, 0
2, 49232, Note_on_c, 0, 72, 87
2, 49264, Note_off_c, 0, 52, 0
2, 49264, Control_c, 0, 64, 88
2, 49276, Note_off_c, 0, 72, 0
2, 49280, Control_c, 0, 64, 40
2, 49292, Control_c, 0, 64, 0
2, 49348, Note_on_c, 0, 87, 95
2, 49352, Note_on_c, 0, 51, 95
2, 49356, Note_on_c, 0, 75, 92
2, 49356, Note_on_c, 0, 39, 75
2, 49360, Note_on_c, 0, 82, 64
2, 49360, Note_on_c, 0, 79, 76
2, 49368, Note_on_c, 0, 85, 69
2, 49380, Control_c, 0, 64, 56
2, 49392, Control_c, 0, 64, 127
2, 49400, Note_off_c, 0, 51, 0
2, 49404, Note_off_c, 0, 39, 0
2, 49408, Note_off_c, 0, 82, 0
2, 49408, Note_off_c, 0, 79, 0
2, 49416, Note_off_c, 0, 85, 0
2, 49424, Note_off_c, 0, 87, 0
2, 49424, Note_off_c, 0, 75, 0
2, 49548, Note_on_c, 0, 51, 77
2, 49600, Note_off_c, 0, 51, 0
2, 49628, Control_c, 0, 64, 88
2, 49640, Control_c, 0, 64, 56
2, 49644, Note_on_c, 0, 63, 82
2, 49648, Note_on_c, 0, 61, 73
2, 49648, Note_on_c, 0, 55, 57
2, 49652, Control_c, 0, 64, 24
2, 49664, Control_c, 0, 64, 0
2, 49708, Note_off_c, 0, 63, 0
2, 49712, Control_c, 0, 64, 56
2, 49728, Control_c, 0, 64, 72
2, 49744, Note_off_c, 0, 61, 0
2, 49744, Note_off_c, 0, 55, 0
2, 49744, Note_on_c, 0, 64, 86
2, 49756, Control_c, 0, 64, 88
2, 49804, Note_off_c, 0, 64, 0
2, 49824, Note_on_c, 0, 51, 54
2, 49844, Note_on_c, 0, 65, 89
2, 49900, Note_off_c, 0, 51, 0
2, 49900, Control_c, 0, 64, 40
2, 49912, Control_c, 0, 64, 0
2, 49920, Note_off_c, 0, 65, 0
2, 49952, Note_on_c, 0, 66, 73
2, 49968, Note_on_c, 0, 60, 72
2, 49968, Note_on_c, 0, 56, 42
2, 49972, Note_on_c, 0, 65, 88
2, 49988, Control_c, 0, 64, 72
2, 50000, Control_c, 0, 64, 127
2, 50016, Note_off_c, 0, 65, 0
2, 50024, Note_off_c, 0, 66, 0
2, 50040, Note_off_c, 0, 60, 0
2, 50052, Note_on_c, 0, 67, 77
2, 50080, Note_off_c, 0, 56, 0
2, 50124, Note_off_c, 0, 67, 0
2, 50136, Note_on_c, 0, 51, 61
2, 50160, Note_on_c, 0, 68, 71
2, 50232, Note_off_c, 0, 51, 0
2, 50232, Control_c, 0, 64, 56
2, 50236, Note_off_c, 0, 68, 0
2, 50244, Control_c, 0, 64, 0
2, 50272, Note_on_c, 0, 69, 80
2, 50276, Note_on_c, 0, 63, 76
2, 50296, Control_c, 0, 64, 56
2, 50308, Control_c, 0, 64, 104
2, 50324, Control_c, 0, 64, 127
2, 50352, Note_off_c, 0, 69, 0
2, 50368, Note_on_c, 0, 70, 71
2, 50380, Note_off_c, 0, 63, 0
2, 50432, Note_on_c, 0, 51, 51
2, 50444, Note_off_c, 0, 70, 0
2, 50468, Note_on_c, 0, 71, 78
2, 50512, Note_off_c, 0, 51, 0
2, 50552, Note_off_c, 0, 71, 0
2, 50564, Note_on_c, 0, 55, 49
2, 50580, Note_on_c, 0, 72, 88
2, 50584, Note_on_c, 0, 65, 85
2, 50584, Note_on_c, 0, 61, 57
2, 50592, Control_c, 0, 64, 72
2, 50608, Control_c, 0, 64, 0
2, 50656, Note_off_c, 0, 65, 0
2, 50672, Note_off_c, 0, 72, 0
2, 50688, Note_on_c, 0, 73, 78
2, 50700, Control_c, 0, 64, 56
2, 50712, Control_c, 0, 64, 104
2, 50724, Control_c, 0, 64, 127
2, 50760, Control_c, 0, 64, 104
2, 50768, Note_off_c, 0, 73, 0
2, 50776, Control_c, 0, 64, 40
2, 50784, Note_on_c, 0, 74, 83
2, 50788, Control_c, 0, 64, 0
2, 50800, Note_on_c, 0, 51, 67
2, 50860, Note_off_c, 0, 74, 0
2, 50880, Control_c, 0, 64, 40
2, 50880, Note_on_c, 0, 75, 86
2, 50880, Note_on_c, 0, 63, 74
2, 50892, Control_c, 0, 64, 56
2, 50900, Control_c, 0, 64, 40
2, 50912, Control_c, 0, 64, 0
2, 50976, Note_off_c, 0, 75, 0
2, 50992, Note_on_c, 0, 77, 92
2, 51020, Control_c, 0, 64, 24
2, 51032, Control_c, 0, 64, 56
2, 51060, Note_off_c, 0, 77, 0
2, 51084, Note_on_c, 0, 75, 85
2, 51088, Control_c, 0, 64, 24
2, 51100, Control_c, 0, 64, 0
2, 51176, Note_off_c, 0, 75, 0
2, 51184, Note_on_c, 0, 77, 92
2, 51260, Note_off_c, 0, 55, 0
2, 51264, Note_off_c, 0, 61, 0
2, 51264, Note_off_c, 0, 51, 0
2, 51264, Note_off_c, 0, 63, 0
2, 51264, Note_off_c, 0, 77, 0
2, 51292, Note_on_c, 0, 75, 81
2, 51376, Note_off_c, 0, 75, 0
2, 51392, Note_on_c, 0, 77, 78
2, 51488, Note_on_c, 0, 75, 73
2, 51524, Note_off_c, 0, 77, 0
2, 51572, Note_on_c, 0, 65, 68
2, 51592, Note_off_c, 0, 75, 0
2, 51652, Note_off_c, 0, 65, 0
2, 51676, Note_on_c, 0, 63, 67
2, 51768, Note_off_c, 0, 63, 0
2, 51820, Note_on_c, 0, 66, 75
2, 51844, Note_on_c, 0, 60, 48
2, 51856, Note_on_c, 0, 44, 47
2, 51888, Note_off_c, 0, 44, 0
2, 51944, Note_on_c, 0, 58, 56
2, 51980, Note_off_c, 0, 60, 0
2, 52012, Note_off_c, 0, 58, 0
2, 52036, Note_on_c, 0, 56, 60
2, 52064, Note_off_c, 0, 56, 0
2, 52148, Note_on_c, 0, 60, 74
2, 52176, Note_on_c, 0, 44, 45
2, 52232, Note_off_c, 0, 66, 0
2, 52244, Note_on_c, 0, 65, 67
2, 52260, Note_on_c, 0, 56, 47
2, 52268, Note_off_c, 0, 44, 0
2, 52304, Note_off_c, 0, 60, 0
2, 52344, Note_on_c, 0, 63, 73
2, 52356, Note_off_c, 0, 65, 0
2, 52364, Note_off_c, 0, 56, 0
2, 52372, Note_on_c, 0, 54, 46
2, 52448, Note_off_c, 0, 54, 0
2, 52452, Note_off_c, 0, 63, 0
2, 52452, Control_c, 0, 64, 40
2, 52452, Note_on_c, 0, 65, 81
2, 52464, Note_on_c, 0, 61, 64
2, 52464, Control_c, 0, 64, 0
2, 52476, Note_on_c, 0, 49, 55
2, 52516, Note_off_c, 0, 65, 0
2, 52572, Note_on_c, 0, 56, 48
2, 52624, Note_off_c, 0, 49, 0
2, 52628, Note_off_c, 0, 61, 0
2, 52684, Note_on_c, 0, 65, 78
2, 52696, Note_on_c, 0, 53, 46
2, 52704, Note_off_c, 0, 56, 0
2, 52736, Note_off_c, 0, 65, 0
2, 52772, Control_c, 0, 64, 127
2, 52780, Note_on_c, 0, 65, 68
2, 52780, Note_on_c, 0, 60, 66
2, 52780, Note_on_c, 0, 44, 51
2, 52784, Note_off_c, 0, 53, 0
2, 52828, Control_c, 0, 64, 104
2, 52832, Note_off_c, 0, 60, 0
2, 52836, Note_off_c, 0, 44, 0
2, 52840, Control_c, 0, 64, 40
2, 52852, Control_c, 0, 64, 0
2, 52856, Note_off_c, 0, 65, 0
2, 52880, Note_on_c, 0, 67, 82
2, 52892, Note_on_c, 0, 60, 55
2, 52960, Note_off_c, 0, 67, 0
2, 52964, Note_off_c, 0, 60, 0
2, 52972, Note_on_c, 0, 68, 79
2, 52984, Note_on_c, 0, 53, 55
2, 53052, Note_off_c, 0, 68, 0
2, 53056, Note_off_c, 0, 53, 0
2, 53084, Note_on_c, 0, 67, 92
2, 53096, Note_on_c, 0, 65, 63
2, 53100, Note_on_c, 0, 46, 64
2, 53120, Note_off_c, 0, 65, 0
2, 53144, Note_off_c, 0, 46, 0
2, 53152, Note_off_c, 0, 67, 0
2, 53184, Note_on_c, 0, 61, 57
2, 53260, Note_off_c, 0, 61, 0
2, 53312, Note_on_c, 0, 67, 90
2, 53312, Note_on_c, 0, 55, 59
2, 53356, Note_off_c, 0, 67, 0
2, 53384, Note_off_c, 0, 55, 0
2, 53408, Note_on_c, 0, 67, 80
2, 53416, Note_on_c, 0, 64, 67
2, 53428, Note_on_c, 0, 48, 69
2, 53468, Note_off_c, 0, 64, 0
2, 53488, Note_off_c, 0, 67, 0
2, 53504, Note_off_c, 0, 48, 0
2, 53508, Note_on_c, 0, 68, 84
2, 53520, Note_on_c, 0, 60, 55
2, 53596, Note_on_c, 0, 70, 87
2, 53600, Note_on_c, 0, 55, 59
2, 53616, Note_off_c, 0, 68, 0
2, 53616, Note_off_c, 0, 60, 0
2, 53704, Note_on_c, 0, 68, 87
2, 53720, Note_on_c, 0, 65, 68
2, 53732, Note_off_c, 0, 70, 0
2, 53740, Note_on_c, 0, 53, 56
2, 53744, Note_off_c, 0, 55, 0
2, 53752, Note_off_c, 0, 65, 0
2, 53776, Note_off_c, 0, 68, 0
2, 53808, Note_on_c, 0, 60, 60
2, 53872, Note_off_c, 0, 53, 0
2, 53876, Note_off_c, 0, 60, 0
2, 53912, Note_on_c, 0, 56, 48
2, 53936, Note_on_c, 0, 68, 75
2, 53968, Note_off_c, 0, 56, 0
2, 53980, Note_off_c, 0, 68, 0
2, 54036, Note_on_c, 0, 68, 69
2, 54048, Note_on_c, 0, 47, 62
2, 54052, Note_on_c, 0, 63, 57
2, 54064, Control_c, 0, 64, 24
2, 54116, Control_c, 0, 64, 0
2, 54136, Note_off_c, 0, 68, 0
2, 54136, Note_on_c, 0, 59, 47
2, 54144, Note_off_c, 0, 47, 0
2, 54172, Note_off_c, 0, 63, 0
2, 54212, Note_off_c, 0, 59, 0
2, 54240, Note_on_c, 0, 68, 70
2, 54244, Note_on_c, 0, 53, 43
2, 54304, Note_off_c, 0, 68, 0
2, 54348, Note_on_c, 0, 68, 67
2, 54356, Note_on_c, 0, 62, 49
2, 54364, Note_off_c, 0, 53, 0
2, 54368, Note_on_c, 0, 46, 49
2, 54408, Note_off_c, 0, 62, 0
2, 54428, Note_off_c, 0, 68, 0
2, 54440, Note_off_c, 0, 46, 0
2, 54456, Note_on_c, 0, 58, 47
2, 54556, Note_on_c, 0, 68, 76
2, 54580, Note_on_c, 0, 53, 41
2, 54592, Note_off_c, 0, 58, 0
2, 54608, Note_off_c, 0, 68, 0
2, 54656, Note_on_c, 0, 68, 77
2, 54660, Note_on_c, 0, 63, 74
2, 54668, Note_off_c, 0, 53, 0
2, 54672, Note_on_c, 0, 47, 63
2, 54672, Control_c, 0, 64, 40
2, 54688, Control_c, 0, 64, 104
2, 54700, Control_c, 0, 64, 127
2, 54768, Note_off_c, 0, 47, 0
2, 54780, Note_on_c, 0, 59, 48
2, 54784, Note_off_c, 0, 68, 0
2, 54796, Note_off_c, 0, 63, 0
2, 54860, Note_off_c, 0, 59, 0
2, 54864, Note_on_c, 0, 68, 72
2, 54880, Note_on_c, 0, 53, 40
2, 54920, Control_c, 0, 64, 88
2, 54924, Note_off_c, 0, 68, 0
2, 54932, Control_c, 0, 64, 24
2, 54944, Control_c, 0, 64, 0
2, 54968, Note_on_c, 0, 68, 71
2, 54976, Note_on_c, 0, 62, 66
2, 54988, Note_on_c, 0, 46, 60
2, 55004, Note_off_c, 0, 53, 0
2, 55032, Note_off_c, 0, 62, 0
2, 55052, Note_off_c, 0, 68, 0
2, 55072, Note_off_c, 0, 46, 0
2, 55088, Note_on_c, 0, 58, 47
2, 55168, Note_on_c, 0, 68, 85
2, 55208, Note_on_c, 0, 53, 41
2, 55224, Note_off_c, 0, 58, 0
2, 55224, Note_off_c, 0, 68, 0
2, 55264, Note_on_c, 0, 68, 79
2, 55276, Note_on_c, 0, 63, 75
2, 55284, Note_off_c, 0, 53, 0
2, 55304, Note_on_c, 0, 47, 51
2, 55320, Control_c, 0, 64, 72
2, 55332, Control_c, 0, 64, 127
2, 55340, Note_off_c, 0, 63, 0
2, 55364, Note_off_c, 0, 68, 0
2, 55384, Note_on_c, 0, 59, 50
2, 55396, Note_off_c, 0, 47, 0
2, 55396, Control_c, 0, 64, 104
2, 55472, Note_off_c, 0, 59, 0
2, 55472, Note_on_c, 0, 68, 85
2, 55500, Note_on_c, 0, 53, 48
2, 55500, Control_c, 0, 64, 56
2, 55512, Control_c, 0, 64, 0
2, 55528, Note_off_c, 0, 68, 0
2, 55572, Note_on_c, 0, 68, 72
2, 55584, Note_off_c, 0, 53, 0
2, 55584, Note_on_c, 0, 62, 70
2, 55600, Note_on_c, 0, 47, 57
2, 55616, Control_c, 0, 64, 24
2, 55648, Note_off_c, 0, 62, 0
2, 55652, Control_c, 0, 64, 0
2, 55664, Note_off_c, 0, 68, 0
2, 55696, Note_off_c, 0, 47, 0
2, 55700, Note_on_c, 0, 59, 47
2, 55772, Note_on_c, 0, 68, 84
2, 55788, Note_off_c, 0, 59, 0
2, 55820, Note_off_c, 0, 68, 0
2, 55876, Note_on_c, 0, 68, 81
2, 55888, Note_on_c, 0, 62, 74
2, 55900, Note_on_c, 0, 47, 62
2, 55912, Control_c, 0, 64, 72
2, 55924, Control_c, 0, 64, 127
2, 55956, Note_off_c, 0, 62, 0
2, 55972, Note_on_c, 0, 59, 53
2, 55976, Note_off_c, 0, 68, 0
2, 56012, Note_off_c, 0, 47, 0
2, 56064, Note_off_c, 0, 59, 0
2, 56064, Note_on_c, 0, 68, 83
2, 56068, Note_on_c, 0, 52, 52
2, 56092, Control_c, 0, 64, 104
2, 56096, Note_off_c, 0, 52, 0
2, 56104, Control_c, 0, 64, 40
2, 56120, Control_c, 0, 64, 0
2, 56140, Note_off_c, 0, 68, 0
2, 56172, Note_on_c, 0, 69, 89
2, 56184, Note_on_c, 0, 62, 63
2, 56184, Note_on_c, 0, 45, 74
2, 56196, Control_c, 0, 64, 56
2, 56208, Control_c, 0, 64, 104
2, 56244, Control_c, 0, 64, 40
2, 56260, Control_c, 0, 64, 0
2, 56268, Note_off_c, 0, 45, 0
2, 56272, Note_on_c, 0, 57, 44
2, 56276, Note_off_c, 0, 69, 0
2, 56288, Note_off_c, 0, 62, 0
2, 56348, Note_off_c, 0, 57, 0
2, 56376, Note_on_c, 0, 69, 76
2, 56384, Note_on_c, 0, 52, 39
2, 56444, Note_off_c, 0, 69, 0
2, 56448, Note_off_c, 0, 52, 0
2, 56488, Note_on_c, 0, 61, 77
2, 56488, Note_on_c, 0, 67, 89
2, 56500, Note_on_c, 0, 45, 66
2, 56504, Control_c, 0, 64, 104
2, 56520, Control_c, 0, 64, 127
2, 56584, Control_c, 0, 64, 104
2, 56588, Note_on_c, 0, 57, 43
2, 56592, Note_off_c, 0, 67, 0
2, 56592, Note_on_c, 0, 69, 74
2, 56596, Control_c, 0, 64, 72
2, 56608, Control_c, 0, 64, 56
2, 56624, Control_c, 0, 64, 40
2, 56636, Control_c, 0, 64, 0
2, 56660, Note_off_c, 0, 69, 0
2, 56664, Note_off_c, 0, 45, 0
2, 56684, Note_on_c, 0, 67, 66
2, 56692, Note_on_c, 0, 51, 55
2, 56720, Note_off_c, 0, 57, 0
2, 56772, Note_off_c, 0, 67, 0
2, 56776, Note_off_c, 0, 51, 0
2, 56792, Note_on_c, 0, 66, 75
2, 56792, Note_on_c, 0, 61, 60
2, 56824, Note_on_c, 0, 45, 55
2, 56832, Control_c, 0, 64, 40
2, 56840, Control_c, 0, 64, 104
2, 56856, Control_c, 0, 64, 127
2, 56896, Control_c, 0, 64, 72
2, 56908, Control_c, 0, 64, 24
2, 56912, Note_on_c, 0, 57, 46
2, 56920, Control_c, 0, 64, 0
2, 56928, Note_off_c, 0, 45, 0
2, 56964, Note_off_c, 0, 61, 0
2, 56984, Note_on_c, 0, 51, 57
2, 56992, Note_off_c, 0, 57, 0
2, 57104, Note_off_c, 0, 51, 0
2, 57112, Note_on_c, 0, 44, 54
2, 57120, Note_on_c, 0, 60, 76
2, 57136, Control_c, 0, 64, 72
2, 57152, Control_c, 0, 64, 127
2, 57176, Note_off_c, 0, 61, 0
2, 57176, Note_off_c, 0, 66, 0
2, 57192, Control_c, 0, 64, 104
2, 57204, Control_c, 0, 64, 56
2, 57212, Note_off_c, 0, 44, 0
2, 57216, Note_on_c, 0, 56, 48
2, 57216, Control_c, 0, 64, 0
2, 57220, Note_on_c, 0, 65, 63
2, 57280, Note_off_c, 0, 60, 0
2, 57312, Note_off_c, 0, 65, 0
2, 57312, Note_on_c, 0, 63, 67
2, 57312, Note_on_c, 0, 54, 46
2, 57316, Note_off_c, 0, 56, 0
2, 57392, Note_off_c, 0, 54, 0
2, 57408, Note_off_c, 0, 63, 0
2, 57428, Note_on_c, 0, 65, 73
2, 57432, Note_on_c, 0, 49, 55
2, 57440, Control_c, 0, 64, 56
2, 57440, Note_on_c, 0, 61, 64
2, 57448, Control_c, 0, 64, 104
2, 57488, Note_off_c, 0, 65, 0
2, 57488, Control_c, 0, 64, 24
2, 57504, Control_c, 0, 64, 0
2, 57524, Note_off_c, 0, 61, 0
2, 57536, Note_off_c, 0, 49, 0
2, 57540, Note_on_c, 0, 56, 42
2, 57644, Note_on_c, 0, 65, 75
2, 57652, Note_on_c, 0, 53, 42
2, 57656, Note_off_c, 0, 56, 0
2, 57696, Note_off_c, 0, 65, 0
2, 57740, Note_on_c, 0, 65, 69
2, 57744, Note_off_c, 0, 53, 0
2, 57744, Note_on_c, 0, 60, 66
2, 57748, Note_on_c, 0, 44, 56
2, 57784, Control_c, 0, 64, 40
2, 57792, Note_off_c, 0, 60, 0
2, 57796, Control_c, 0, 64, 104
2, 57808, Note_off_c, 0, 44, 0
2, 57808, Control_c, 0, 64, 127
2, 57812, Note_off_c, 0, 65, 0
2, 57844, Note_on_c, 0, 67, 77
2, 57860, Note_on_c, 0, 60, 54
2, 57920, Note_off_c, 0, 67, 0
2, 57928, Note_off_c, 0, 60, 0
2, 57936, Note_on_c, 0, 68, 75
2, 57956, Note_on_c, 0, 53, 46
2, 58004, Control_c, 0, 64, 88
2, 58012, Note_off_c, 0, 53, 0
2, 58016, Note_off_c, 0, 68, 0
2, 58016, Control_c, 0, 64, 0
2, 58052, Note_on_c, 0, 67, 87
2, 58060, Note_on_c, 0, 46, 65
2, 58060, Note_on_c, 0, 65, 70
2, 58108, Note_off_c, 0, 46, 0
2, 58120, Control_c, 0, 64, 72
2, 58132, Control_c, 0, 64, 127
2, 58136, Note_off_c, 0, 67, 0
2, 58160, Note_on_c, 0, 61, 55
2, 58176, Note_off_c, 0, 65, 0
2, 58256, Note_off_c, 0, 61, 0
2, 58264, Note_on_c, 0, 67, 85
2, 58284, Note_on_c, 0, 55, 53
2, 58308, Note_off_c, 0, 67, 0
2, 58340, Control_c, 0, 64, 72
2, 58352, Control_c, 0, 64, 0
2, 58356, Note_off_c, 0, 55, 0
2, 58364, Note_on_c, 0, 67, 75
2, 58364, Note_on_c, 0, 64, 75
2, 58400, Note_on_c, 0, 48, 63
2, 58424, Note_off_c, 0, 64, 0
2, 58432, Note_off_c, 0, 48, 0
2, 58436, Note_off_c, 0, 67, 0
2, 58444, Control_c, 0, 64, 56
2, 58456, Control_c, 0, 64, 104
2, 58468, Control_c, 0, 64, 127
2, 58468, Note_on_c, 0, 68, 89
2, 58488, Note_on_c, 0, 60, 57
2, 58548, Note_off_c, 0, 68, 0
2, 58560, Note_on_c, 0, 70, 83
2, 58592, Note_off_c, 0, 60, 0
2, 58592, Note_on_c, 0, 55, 35
2, 58624, Control_c, 0, 64, 40
2, 58636, Control_c, 0, 64, 0
2, 58656, Note_off_c, 0, 70, 0
2, 58660, Note_off_c, 0, 55, 0
2, 58668, Note_on_c, 0, 68, 85
2, 58672, Note_on_c, 0, 65, 70
2, 58696, Note_on_c, 0, 53, 59
2, 58724, Note_off_c, 0, 65, 0
2, 58740, Note_off_c, 0, 68, 0
2, 58780, Note_on_c, 0, 60, 53
2, 58784, Note_on_c, 0, 65, 48
2, 58840, Note_off_c, 0, 53, 0
2, 58880, Note_off_c, 0, 60, 0
2, 58880, Note_on_c, 0, 68, 72
2, 58880, Note_on_c, 0, 56, 46
2, 58928, Note_off_c, 0, 65, 0
2, 58952, Note_off_c, 0, 68, 0
2, 58980, Note_on_c, 0, 69, 75
2, 58988, Note_off_c, 0, 56, 0
2, 58992, Note_on_c, 0, 66, 59
2, 59000, Note_on_c, 0, 51, 58
2, 59064, Note_off_c, 0, 69, 0
2, 59088, Note_off_c, 0, 66, 0
2, 59088, Note_on_c, 0, 60, 51
2, 59100, Note_off_c, 0, 51, 0
2, 59180, Note_on_c, 0, 54, 42
2, 59184, Note_on_c, 0, 69, 81
2, 59212, Note_off_c, 0, 60, 0
2, 59256, Note_off_c, 0, 69, 0
2, 59280, Note_on_c, 0, 70, 82
2, 59288, Note_on_c, 0, 50, 65
2, 59292, Note_off_c, 0, 54, 0
2, 59296, Note_on_c, 0, 65, 57
2, 59368, Note_off_c, 0, 65, 0
2, 59376, Note_off_c, 0, 70, 0
2, 59392, Note_on_c, 0, 58, 50
2, 59396, Note_off_c, 0, 50, 0
2, 59488, Note_on_c, 0, 70, 85
2, 59488, Note_on_c, 0, 53, 50
2, 59508, Note_off_c, 0, 58, 0
2, 59552, Note_off_c, 0, 70, 0
2, 59584, Note_off_c, 0, 53, 0
2, 59584, Note_on_c, 0, 71, 94
2, 59584, Note_on_c, 0, 49, 69
2, 59596, Note_on_c, 0, 65, 72
2, 59596, Note_on_c, 0, 68, 65
2, 59632, Control_c, 0, 64, 56
2, 59644, Control_c, 0, 64, 104
2, 59680, Control_c, 0, 64, 72
2, 59688, Note_on_c, 0, 59, 54
2, 59696, Note_off_c, 0, 49, 0
2, 59696, Note_off_c, 0, 68, 0
2, 59696, Control_c, 0, 64, 40
2, 59704, Note_off_c, 0, 71, 0
2, 59704, Note_off_c, 0, 65, 0
2, 59708, Control_c, 0, 64, 0
2, 59788, Note_off_c, 0, 59, 0
2, 59788, Note_on_c, 0, 71, 94
2, 59792, Note_on_c, 0, 53, 27
2, 59848, Note_off_c, 0, 53, 0
2, 59868, Note_off_c, 0, 71, 0
2, 59896, Note_on_c, 0, 48, 54
2, 59896, Note_on_c, 0, 72, 100
2, 59904, Note_on_c, 0, 68, 73
2, 59904, Note_on_c, 0, 65, 70
2, 59928, Control_c, 0, 64, 40
2, 59940, Control_c, 0, 64, 88
2, 59952, Control_c, 0, 64, 127
2, 59972, Note_off_c, 0, 48, 0
2, 59992, Note_on_c, 0, 60, 58
2, 60008, Note_off_c, 0, 72, 0
2, 60016, Note_off_c, 0, 68, 0
2, 60016, Control_c, 0, 64, 88
2, 60032, Control_c, 0, 64, 72
2, 60044, Control_c, 0, 64, 40
2, 60048, Note_off_c, 0, 65, 0
2, 60056, Control_c, 0, 64, 24
2, 60068, Control_c, 0, 64, 0
2, 60072, Note_off_c, 0, 60, 0
2, 60072, Note_on_c, 0, 53, 31
2, 60108, Note_on_c, 0, 72, 96
2, 60160, Note_off_c, 0, 72, 0
2, 60184, Note_off_c, 0, 53, 0
2, 60184, Note_on_c, 0, 47, 66
2, 60200, Control_c, 0, 64, 24
2, 60208, Note_on_c, 0, 73, 96
2, 60212, Control_c, 0, 64, 88
2, 60212, Note_on_c, 0, 65, 74
2, 60212, Note_on_c, 0, 68, 74
2, 60224, Control_c, 0, 64, 127
2, 60240, Note_off_c, 0, 47, 0
2, 60264, Note_off_c, 0, 68, 0
2, 60268, Note_off_c, 0, 65, 0
2, 60300, Note_on_c, 0, 61, 71
2, 60304, Note_off_c, 0, 73, 0
2, 60384, Note_off_c, 0, 61, 0
2, 60400, Note_on_c, 0, 53, 54
2, 60412, Note_on_c, 0, 73, 89
2, 60444, Control_c, 0, 64, 56
2, 60456, Control_c, 0, 64, 0
2, 60484, Note_off_c, 0, 53, 0
2, 60492, Note_off_c, 0, 73, 0
2, 60504, Note_on_c, 0, 48, 77
2, 60516, Note_on_c, 0, 72, 102
2, 60524, Note_on_c, 0, 68, 69
2, 60556, Note_off_c, 0, 48, 0
2, 60560, Control_c, 0, 64, 88
2, 60576, Control_c, 0, 64, 127
2, 60608, Note_off_c, 0, 68, 0
2, 60612, Note_on_c, 0, 65, 66
2, 60648, Note_off_c, 0, 72, 0
2, 60688, Note_off_c, 0, 65, 0
2, 60704, Note_on_c, 0, 60, 66
2, 60708, Note_on_c, 0, 80, 91
2, 60740, Note_on_c, 0, 72, 49
2, 60748, Note_off_c, 0, 60, 0
2, 60764, Note_off_c, 0, 72, 0
2, 60768, Control_c, 0, 64, 72
2, 60780, Note_off_c, 0, 80, 0
2, 60780, Control_c, 0, 64, 0
2, 60816, Note_on_c, 0, 80, 86
2, 60828, Note_on_c, 0, 70, 77
2, 60832, Note_on_c, 0, 72, 82
2, 60836, Note_on_c, 0, 48, 68
2, 60856, Control_c, 0, 64, 72
2, 60864, Note_off_c, 0, 48, 0
2, 60868, Control_c, 0, 64, 127
2, 60952, Note_on_c, 0, 64, 64
2, 60956, Note_off_c, 0, 80, 0
2, 60956, Note_off_c, 0, 70, 0
2, 60980, Note_off_c, 0, 72, 0
2, 61012, Note_off_c, 0, 64, 0
2, 61028, Note_on_c, 0, 79, 89
2, 61036, Note_on_c, 0, 70, 62
2, 61040, Control_c, 0, 64, 88
2, 61048, Note_on_c, 0, 72, 42
2, 61048, Control_c, 0, 64, 0
2, 61068, Note_off_c, 0, 70, 0
2, 61068, Note_on_c, 0, 60, 58
2, 61072, Note_off_c, 0, 72, 0
2, 61096, Note_off_c, 0, 79, 0
2, 61140, Note_on_c, 0, 79, 92
2, 61148, Note_on_c, 0, 70, 83
2, 61152, Control_c, 0, 64, 72
2, 61156, Note_on_c, 0, 72, 76
2, 61168, Note_off_c, 0, 60, 0
2, 61168, Note_on_c, 0, 53, 74
2, 61168, Control_c, 0, 64, 127
2, 61240, Note_off_c, 0, 79, 0
2, 61248, Note_off_c, 0, 53, 0
2, 61260, Note_on_c, 0, 64, 63
2, 61264, Note_off_c, 0, 70, 0
2, 61312, Note_off_c, 0, 72, 0
2, 61356, Note_off_c, 0, 64, 0
2, 61368, Note_on_c, 0, 77, 94
2, 61380, Note_on_c, 0, 60, 56
2, 61420, Note_off_c, 0, 77, 0
2, 61440, Control_c, 0, 64, 88
2, 61452, Control_c, 0, 64, 0
2, 61476, Note_on_c, 0, 53, 60
2, 61476, Note_on_c, 0, 77, 86
2, 61484, Note_on_c, 0, 68, 75
2, 61488, Note_off_c, 0, 60, 0
2, 61536, Note_off_c, 0, 77, 0
2, 61536, Note_off_c, 0, 68, 0
2, 61540, Control_c, 0, 64, 104
2, 61552, Control_c, 0, 64, 127
2, 61556, Note_on_c, 0, 65, 61
2, 61612, Note_off_c, 0, 65, 0
2, 61648, Note_off_c, 0, 53, 0
2, 61704, Note_on_c, 0, 65, 76
2, 61704, Note_on_c, 0, 60, 47
2, 61760, Note_off_c, 0, 65, 0
2, 61760, Note_off_c, 0, 60, 0
2, 61760, Control_c, 0, 64, 72
2, 61776, Control_c, 0, 64, 0
2, 61828, Note_on_c, 0, 66, 77
2, 61836, Note_on_c, 0, 60, 58
2, 61840, Note_on_c, 0, 44, 57
2, 61916, Note_off_c, 0, 44, 0
2, 61928, Note_on_c, 0, 58, 58
2, 61968, Note_off_c, 0, 60, 0
2, 62028, Note_on_c, 0, 56, 64
2, 62032, Note_off_c, 0, 58, 0
2, 62076, Note_off_c, 0, 56, 0
2, 62144, Note_on_c, 0, 60, 68
2, 62148, Note_on_c, 0, 44, 73
2, 62160, Control_c, 0, 64, 72
2, 62176, Control_c, 0, 64, 88
2, 62188, Control_c, 0, 64, 72
2, 62200, Control_c, 0, 64, 40
2, 62212, Control_c, 0, 64, 0
2, 62252, Note_on_c, 0, 65, 67
2, 62256, Note_on_c, 0, 56, 69
2, 62288, Note_off_c, 0, 60, 0
2, 62304, Note_off_c, 0, 44, 0
2, 62336, Note_off_c, 0, 66, 0
2, 62336, Note_on_c, 0, 54, 53
2, 62348, Note_off_c, 0, 56, 0
2, 62352, Note_off_c, 0, 65, 0
2, 62352, Note_on_c, 0, 63, 67
2, 62432, Note_off_c, 0, 54, 0
2, 62448, Note_off_c, 0, 63, 0
2, 62448, Note_on_c, 0, 49, 60
2, 62464, Note_on_c, 0, 65, 74
2, 62468, Note_on_c, 0, 61, 60
2, 62512, Note_off_c, 0, 65, 0
2, 62528, Note_off_c, 0, 61, 0
2, 62560, Note_on_c, 0, 56, 45
2, 62600, Note_off_c, 0, 49, 0
2, 62680, Note_on_c, 0, 65, 75
2, 62688, Note_off_c, 0, 56, 0
2, 62692, Note_on_c, 0, 53, 44
2, 62728, Note_off_c, 0, 65, 0
2, 62768, Note_on_c, 0, 44, 56
2, 62776, Note_on_c, 0, 65, 62
2, 62776, Note_on_c, 0, 60, 60
2, 62780, Note_off_c, 0, 53, 0
2, 62780, Control_c, 0, 64, 72
2, 62796, Control_c, 0, 64, 127
2, 62836, Note_off_c, 0, 44, 0
2, 62836, Note_off_c, 0, 60, 0
2, 62848, Control_c, 0, 64, 104
2, 62860, Control_c, 0, 64, 56
2, 62864, Note_off_c, 0, 65, 0
2, 62868, Control_c, 0, 64, 24
2, 62880, Control_c, 0, 64, 0
2, 62888, Note_on_c, 0, 67, 70
2, 62896, Note_on_c, 0, 60, 58
2, 62960, Note_off_c, 0, 60, 0
2, 62976, Note_off_c, 0, 67, 0
2, 62980, Note_on_c, 0, 68, 73
2, 62980, Note_on_c, 0, 53, 42
2, 63036, Note_off_c, 0, 53, 0
2, 63068, Note_off_c, 0, 68, 0
2, 63092, Note_on_c, 0, 65, 74
2, 63092, Note_on_c, 0, 46, 60
2, 63100, Note_on_c, 0, 67, 84
2, 63116, Control_c, 0, 64, 24
2, 63128, Control_c, 0, 64, 72
2, 63140, Control_c, 0, 64, 127
2, 63152, Note_off_c, 0, 46, 0
2, 63192, Note_off_c, 0, 67, 0
2, 63192, Note_on_c, 0, 61, 56
2, 63264, Note_off_c, 0, 65, 0
2, 63280, Note_off_c, 0, 61, 0
2, 63296, Note_on_c, 0, 67, 77
2, 63320, Note_on_c, 0, 55, 47
2, 63352, Note_off_c, 0, 67, 0
2, 63360, Control_c, 0, 64, 104
2, 63376, Control_c, 0, 64, 0
2, 63384, Note_off_c, 0, 55, 0
2, 63408, Note_on_c, 0, 67, 75
2, 63408, Note_on_c, 0, 64, 70
2, 63424, Note_on_c, 0, 48, 68
2, 63464, Control_c, 0, 64, 72
2, 63472, Note_off_c, 0, 64, 0
2, 63476, Control_c, 0, 64, 127
2, 63488, Note_off_c, 0, 67, 0
2, 63500, Note_off_c, 0, 48, 0
2, 63504, Note_on_c, 0, 60, 51
2, 63520, Note_on_c, 0, 68, 82
2, 63556, Control_c, 0, 64, 104
2, 63568, Control_c, 0, 64, 72
2, 63584, Control_c, 0, 64, 56
2, 63588, Note_off_c, 0, 60, 0
2, 63588, Note_on_c, 0, 55, 47
2, 63592, Control_c, 0, 64, 40
2, 63600, Note_off_c, 0, 68, 0
2, 63604, Note_on_c, 0, 70, 77
2, 63620, Control_c, 0, 64, 24
2, 63632, Control_c, 0, 64, 0
2, 63708, Note_off_c, 0, 55, 0
2, 63716, Note_off_c, 0, 70, 0
2, 63720, Note_on_c, 0, 68, 78
2, 63720, Note_on_c, 0, 65, 63
2, 63740, Note_on_c, 0, 53, 53
2, 63788, Note_off_c, 0, 68, 0
2, 63824, Note_on_c, 0, 60, 44
2, 63896, Note_off_c, 0, 53, 0
2, 63900, Note_off_c, 0, 60, 0
2, 63916, Note_off_c, 0, 65, 0
2, 63928, Note_on_c, 0, 56, 46
2, 63936, Note_on_c, 0, 68, 67
2, 63968, Note_off_c, 0, 56, 0
2, 63984, Note_off_c, 0, 68, 0
2, 64032, Note_on_c, 0, 68, 61
2, 64048, Note_on_c, 0, 63, 61
2, 64064, Note_on_c, 0, 47, 52
2, 64140, Note_off_c, 0, 68, 0
2, 64152, Note_on_c, 0, 59, 31
2, 64156, Note_off_c, 0, 47, 0
2, 64176, Note_off_c, 0, 63, 0
2, 64232, Note_off_c, 0, 59, 0
2, 64240, Note_on_c, 0, 68, 74
2, 64256, Note_on_c, 0, 53, 46
2, 64300, Note_off_c, 0, 68, 0
2, 64344, Note_on_c, 0, 68, 69
2, 64348, Note_on_c, 0, 62, 65
2, 64352, Control_c, 0, 64, 24
2, 64368, Note_off_c, 0, 53, 0
2, 64368, Note_on_c, 0, 46, 51
2, 64368, Control_c, 0, 64, 56
2, 64384, Control_c, 0, 64, 88
2, 64392, Control_c, 0, 64, 104
2, 64432, Control_c, 0, 64, 88
2, 64444, Note_off_c, 0, 46, 0
2, 64448, Note_off_c, 0, 68, 0
2, 64448, Control_c, 0, 64, 72
2, 64452, Note_on_c, 0, 58, 42
2, 64492, Note_off_c, 0, 62, 0
2, 64544, Control_c, 0, 64, 88
2, 64560, Note_on_c, 0, 68, 78
2, 64580, Note_on_c, 0, 53, 45
2, 64584, Note_off_c, 0, 58, 0
2, 64588, Control_c, 0, 64, 104
2, 64600, Control_c, 0, 64, 88
2, 64608, Note_off_c, 0, 68, 0
2, 64612, Control_c, 0, 64, 40
2, 64624, Control_c, 0, 64, 0
2, 64656, Note_on_c, 0, 63, 78
2, 64656, Note_on_c, 0, 68, 70
2, 64664, Note_off_c, 0, 53, 0
2, 64664, Note_on_c, 0, 47, 61
2, 64720, Control_c, 0, 64, 40
2, 64732, Control_c, 0, 64, 88
2, 64744, Control_c, 0, 64, 127
2, 64752, Note_on_c, 0, 59, 42
2, 64764, Note_off_c, 0, 47, 0
2, 64784, Note_off_c, 0, 68, 0
2, 64848, Note_off_c, 0, 63, 0
2, 64864, Note_off_c, 0, 59, 0
2, 64868, Note_on_c, 0, 53, 45
2, 64876, Note_on_c, 0, 68, 75
2, 64924, Control_c, 0, 64, 104
2, 64928, Note_off_c, 0, 68, 0
2, 64936, Control_c, 0, 64, 40
2, 64948, Control_c, 0, 64, 0
2, 64976, Note_on_c, 0, 68, 70
2, 64980, Note_on_c, 0, 62, 68
2, 64996, Note_on_c, 0, 46, 53
2, 65012, Note_off_c, 0, 53, 0
2, 65016, Control_c, 0, 64, 40
2, 65028, Control_c, 0, 64, 88
2, 65040, Control_c, 0, 64, 127
2, 65056, Note_off_c, 0, 62, 0
2, 65060, Note_off_c, 0, 46, 0
2, 65080, Note_off_c, 0, 68, 0
2, 65084, Note_on_c, 0, 58, 39
2, 65172, Note_on_c, 0, 68, 84
2, 65220, Note_off_c, 0, 58, 0
2, 65224, Note_on_c, 0, 53, 37
2, 65228, Note_off_c, 0, 68, 0
2, 65232, Control_c, 0, 64, 88
2, 65248, Control_c, 0, 64, 0
2, 65268, Note_on_c, 0, 68, 80
2, 65280, Note_on_c, 0, 63, 81
2, 65296, Note_off_c, 0, 53, 0
2, 65296, Note_on_c, 0, 47, 65
2, 65324, Control_c, 0, 64, 24
2, 65332, Note_off_c, 0, 63, 0
2, 65336, Control_c, 0, 64, 72
2, 65348, Control_c, 0, 64, 127
2, 65360, Note_off_c, 0, 68, 0
2, 65376, Note_on_c, 0, 59, 47
2, 65388, Note_off_c, 0, 47, 0
2, 65472, Note_off_c, 0, 59, 0
2, 65488, Note_on_c, 0, 68, 82
2, 65488, Note_on_c, 0, 53, 49
2, 65532, Note_off_c, 0, 68, 0
2, 65532, Control_c, 0, 64, 88
2, 65544, Control_c, 0, 64, 0
2, 65576, Note_on_c, 0, 68, 81
2, 65584, Note_off_c, 0, 53, 0
2, 65588, Note_on_c, 0, 62, 72
2, 65596, Note_on_c, 0, 47, 55
2, 65616, Control_c, 0, 64, 24
2, 65624, Note_off_c, 0, 62, 0
2, 65632, Control_c, 0, 64, 88
2, 65648, Control_c, 0, 64, 127
2, 65656, Note_off_c, 0, 68, 0
2, 65684, Note_on_c, 0, 59, 46
2, 65688, Note_off_c, 0, 47, 0
2, 65756, Note_off_c, 0, 59, 0
2, 65796, Note_on_c, 0, 68, 83
2, 65796, Note_on_c, 0, 53, 48
2, 65836, Note_off_c, 0, 68, 0
2, 65840, Control_c, 0, 64, 88
2, 65856, Control_c, 0, 64, 0
2, 65868, Note_off_c, 0, 53, 0
2, 65884, Note_on_c, 0, 68, 81
2, 65888, Note_on_c, 0, 47, 64
2, 65896, Note_on_c, 0, 62, 77
2, 65944, Control_c, 0, 64, 40
2, 65948, Note_off_c, 0, 62, 0
2, 65956, Control_c, 0, 64, 88
2, 65968, Note_off_c, 0, 68, 0
2, 65988, Note_on_c, 0, 59, 40
2, 65996, Control_c, 0, 64, 72
2, 66008, Control_c, 0, 64, 56
2, 66020, Control_c, 0, 64, 40
2, 66064, Note_off_c, 0, 59, 0
2, 66084, Control_c, 0, 64, 24
2, 66088, Note_off_c, 0, 47, 0
2, 66096, Note_on_c, 0, 68, 85
2, 66096, Note_on_c, 0, 52, 53
2, 66096, Control_c, 0, 64, 0
2, 66128, Note_off_c, 0, 52, 0
2, 66168, Note_off_c, 0, 68, 0
2, 66200, Note_on_c, 0, 69, 92
2, 66200, Note_on_c, 0, 62, 71
2, 66212, Note_on_c, 0, 45, 76
2, 66228, Control_c, 0, 64, 40
2, 66240, Control_c, 0, 64, 56
2, 66272, Note_off_c, 0, 62, 0
2, 66280, Control_c, 0, 64, 0
2, 66288, Note_off_c, 0, 69, 0
2, 66304, Note_off_c, 0, 45, 0
2, 66316, Note_on_c, 0, 57, 34
2, 66412, Note_off_c, 0, 57, 0
2, 66412, Note_on_c, 0, 69, 74
2, 66412, Note_on_c, 0, 52, 37
2, 66468, Note_off_c, 0, 69, 0
2, 66480, Note_off_c, 0, 52, 0
2, 66508, Note_on_c, 0, 61, 75
2, 66516, Note_on_c, 0, 67, 81
2, 66528, Note_on_c, 0, 45, 66
2, 66604, Note_off_c, 0, 45, 0
2, 66608, Note_off_c, 0, 67, 0
2, 66608, Note_on_c, 0, 69, 79
2, 66632, Note_on_c, 0, 57, 45
2, 66684, Note_off_c, 0, 69, 0
2, 66684, Note_off_c, 0, 57, 0
2, 66704, Note_on_c, 0, 67, 75
2, 66720, Note_on_c, 0, 51, 51
2, 66756, Note_off_c, 0, 61, 0
2, 66788, Note_off_c, 0, 51, 0
2, 66800, Note_off_c, 0, 67, 0
2, 66816, Note_on_c, 0, 66, 78
2, 66820, Note_on_c, 0, 61, 62
2, 66848, Note_on_c, 0, 45, 57
2, 66848, Control_c, 0, 64, 40
2, 66860, Control_c, 0, 64, 24
2, 66872, Control_c, 0, 64, 0
2, 66928, Note_on_c, 0, 57, 41
2, 66968, Note_off_c, 0, 45, 0
2, 67016, Note_on_c, 0, 51, 58
2, 67028, Note_off_c, 0, 57, 0
2, 67040, Note_off_c, 0, 61, 0
2, 67136, Note_on_c, 0, 44, 50
2, 67140, Note_on_c, 0, 60, 74
2, 67144, Control_c, 0, 64, 56
2, 67148, Note_off_c, 0, 51, 0
2, 67184, Control_c, 0, 64, 0
2, 67196, Note_off_c, 0, 44, 0
2, 67248, Note_on_c, 0, 56, 44
2, 67256, Note_on_c, 0, 65, 68
2, 67328, Note_off_c, 0, 66, 0
2, 67332, Note_on_c, 0, 54, 45
2, 67340, Note_off_c, 0, 56, 0
2, 67352, Note_off_c, 0, 60, 0
2, 67352, Note_on_c, 0, 63, 65
2, 67364, Note_off_c, 0, 65, 0
2, 67408, Note_off_c, 0, 54, 0
2, 67452, Note_on_c, 0, 49, 51
2, 67456, Note_off_c, 0, 63, 0
2, 67464, Note_on_c, 0, 65, 70
2, 67464, Note_on_c, 0, 61, 61
2, 67480, Control_c, 0, 64, 24
2, 67492, Control_c, 0, 64, 0
2, 67520, Note_off_c, 0, 65, 0
2, 67544, Note_off_c, 0, 61, 0
2, 67556, Note_off_c, 0, 49, 0
2, 67564, Note_on_c, 0, 56, 43
2, 67664, Note_off_c, 0, 56, 0
2, 67680, Note_on_c, 0, 65, 77
2, 67684, Note_on_c, 0, 53, 49
2, 67728, Note_off_c, 0, 65, 0
2, 67764, Control_c, 0, 64, 56
2, 67776, Note_off_c, 0, 53, 0
2, 67776, Control_c, 0, 64, 127
2, 67780, Note_on_c, 0, 44, 50
2, 67780, Note_on_c, 0, 65, 64
2, 67784, Note_on_c, 0, 60, 62
2, 67828, Note_off_c, 0, 60, 0
2, 67840, Note_off_c, 0, 44, 0
2, 67856, Control_c, 0, 64, 88
2, 67860, Note_off_c, 0, 65, 0
2, 67864, Control_c, 0, 64, 56
2, 67876, Control_c, 0, 64, 24
2, 67880, Note_on_c, 0, 67, 75
2, 67892, Control_c, 0, 64, 0
2, 67896, Note_on_c, 0, 60, 58
2, 67940, Note_off_c, 0, 60, 0
2, 67968, Note_off_c, 0, 67, 0
2, 67976, Note_on_c, 0, 68, 71
2, 67980, Note_on_c, 0, 53, 52
2, 68032, Note_off_c, 0, 53, 0
2, 68064, Note_off_c, 0, 68, 0
2, 68088, Note_on_c, 0, 46, 61
2, 68096, Note_on_c, 0, 67, 77
2, 68096, Note_on_c, 0, 65, 64
2, 68112, Control_c, 0, 64, 104
2, 68128, Control_c, 0, 64, 127
2, 68132, Note_off_c, 0, 46, 0
2, 68160, Note_off_c, 0, 67, 0
2, 68164, Control_c, 0, 64, 104
2, 68176, Control_c, 0, 64, 88
2, 68180, Note_off_c, 0, 65, 0
2, 68184, Note_on_c, 0, 61, 60
2, 68192, Control_c, 0, 64, 72
2, 68272, Note_off_c, 0, 61, 0
2, 68280, Control_c, 0, 64, 56
2, 68292, Control_c, 0, 64, 40
2, 68300, Note_on_c, 0, 67, 79
2, 68304, Control_c, 0, 64, 0
2, 68316, Note_on_c, 0, 55, 53
2, 68348, Note_off_c, 0, 67, 0
2, 68392, Note_off_c, 0, 55, 0
2, 68400, Note_on_c, 0, 67, 74
2, 68400, Note_on_c, 0, 64, 68
2, 68420, Control_c, 0, 64, 24
2, 68432, Note_on_c, 0, 48, 67
2, 68432, Control_c, 0, 64, 88
2, 68448, Control_c, 0, 64, 127
2, 68452, Note_off_c, 0, 64, 0
2, 68480, Note_off_c, 0, 67, 0
2, 68492, Note_off_c, 0, 48, 0
2, 68496, Control_c, 0, 64, 104
2, 68508, Note_on_c, 0, 68, 85
2, 68512, Control_c, 0, 64, 88
2, 68524, Note_on_c, 0, 60, 54
2, 68564, Control_c, 0, 64, 127
2, 68584, Note_off_c, 0, 68, 0
2, 68592, Note_on_c, 0, 70, 84
2, 68608, Note_on_c, 0, 55, 27
2, 68612, Note_off_c, 0, 60, 0
2, 68656, Control_c, 0, 64, 40
2, 68668, Control_c, 0, 64, 0
2, 68704, Note_on_c, 0, 68, 86
2, 68712, Note_off_c, 0, 55, 0
2, 68716, Note_on_c, 0, 65, 68
2, 68720, Note_off_c, 0, 70, 0
2, 68748, Note_on_c, 0, 53, 33
2, 68768, Note_off_c, 0, 65, 0
2, 68768, Control_c, 0, 64, 72
2, 68780, Note_off_c, 0, 68, 0
2, 68784, Control_c, 0, 64, 104
2, 68824, Control_c, 0, 64, 40
2, 68832, Note_on_c, 0, 60, 48
2, 68836, Control_c, 0, 64, 0
2, 68836, Note_on_c, 0, 65, 12
2, 68880, Note_off_c, 0, 53, 0
2, 68912, Note_off_c, 0, 60, 0
2, 68924, Note_on_c, 0, 68, 67
2, 68924, Note_on_c, 0, 56, 45
2, 68992, Note_off_c, 0, 68, 0
2, 69008, Note_off_c, 0, 65, 0
2, 69008, Note_off_c, 0, 56, 0
2, 69024, Note_on_c, 0, 69, 76
2, 69040, Note_on_c, 0, 51, 46
2, 69040, Note_on_c, 0, 66, 55
2, 69096, Note_off_c, 0, 69, 0
2, 69128, Note_on_c, 0, 60, 40
2, 69136, Note_off_c, 0, 51, 0
2, 69160, Note_off_c, 0, 66, 0
2, 69228, Note_on_c, 0, 69, 76
2, 69236, Note_on_c, 0, 54, 47
2, 69248, Note_off_c, 0, 60, 0
2, 69288, Note_off_c, 0, 69, 0
2, 69328, Note_off_c, 0, 54, 0
2, 69328, Note_on_c, 0, 70, 73
2, 69328, Note_on_c, 0, 50, 50
2, 69344, Note_on_c, 0, 65, 54
2, 69420, Note_off_c, 0, 70, 0
2, 69432, Note_on_c, 0, 58, 47
2, 69452, Note_off_c, 0, 50, 0
2, 69500, Note_off_c, 0, 58, 0
2, 69512, Note_off_c, 0, 65, 0
2, 69532, Note_on_c, 0, 70, 73
2, 69544, Note_on_c, 0, 53, 45
2, 69600, Note_off_c, 0, 70, 0
2, 69616, Note_off_c, 0, 53, 0
2, 69616, Note_on_c, 0, 49, 64
2, 69632, Note_on_c, 0, 71, 87
2, 69636, Note_on_c, 0, 65, 64
2, 69644, Note_on_c, 0, 68, 54
2, 69716, Note_on_c, 0, 59, 47
2, 69720, Note_off_c, 0, 68, 0
2, 69732, Note_off_c, 0, 49, 0
2, 69744, Note_off_c, 0, 71, 0
2, 69784, Note_off_c, 0, 65, 0
2, 69792, Note_off_c, 0, 59, 0
2, 69832, Note_on_c, 0, 71, 90
2, 69856, Note_on_c, 0, 53, 49
2, 69916, Note_off_c, 0, 71, 0
2, 69936, Note_off_c, 0, 53, 0
2, 69936, Note_on_c, 0, 72, 102
2, 69944, Note_on_c, 0, 65, 77
2, 69944, Note_on_c, 0, 68, 67
2, 69948, Note_on_c, 0, 48, 71
2, 69968, Control_c, 0, 64, 72
2, 69984, Control_c, 0, 64, 127
2, 69988, Note_off_c, 0, 68, 0
2, 70000, Note_off_c, 0, 65, 0
2, 70040, Note_off_c, 0, 72, 0
2, 70048, Note_on_c, 0, 60, 59
2, 70048, Control_c, 0, 64, 72
2, 70060, Note_off_c, 0, 48, 0
2, 70060, Control_c, 0, 64, 40
2, 70076, Control_c, 0, 64, 0
2, 70144, Note_on_c, 0, 72, 99
2, 70148, Note_off_c, 0, 60, 0
2, 70160, Note_on_c, 0, 53, 49
2, 70204, Note_off_c, 0, 72, 0
2, 70240, Control_c, 0, 64, 56
2, 70244, Note_off_c, 0, 53, 0
2, 70252, Note_on_c, 0, 73, 99
2, 70256, Control_c, 0, 64, 127
2, 70256, Note_on_c, 0, 65, 76
2, 70260, Note_on_c, 0, 47, 70
2, 70296, Note_off_c, 0, 65, 0
2, 70316, Note_off_c, 0, 47, 0
2, 70340, Note_off_c, 0, 73, 0
2, 70372, Note_on_c, 0, 61, 59
2, 70384, Control_c, 0, 64, 104
2, 70400, Control_c, 0, 64, 72
2, 70412, Control_c, 0, 64, 56
2, 70420, Control_c, 0, 64, 40
2, 70436, Control_c, 0, 64, 24
2, 70448, Note_on_c, 0, 73, 88
2, 70448, Control_c, 0, 64, 0
2, 70480, Note_off_c, 0, 61, 0
2, 70488, Note_on_c, 0, 53, 56
2, 70520, Note_off_c, 0, 73, 0
2, 70552, Note_on_c, 0, 72, 97
2, 70556, Note_on_c, 0, 68, 64
2, 70564, Note_off_c, 0, 53, 0
2, 70568, Note_on_c, 0, 48, 74
2, 70576, Control_c, 0, 64, 88
2, 70592, Control_c, 0, 64, 127
2, 70624, Note_off_c, 0, 48, 0
2, 70668, Note_off_c, 0, 68, 0
2, 70700, Note_on_c, 0, 65, 62
2, 70720, Note_off_c, 0, 72, 0
2, 70752, Note_on_c, 0, 80, 91
2, 70776, Note_off_c, 0, 65, 0
2, 70784, Control_c, 0, 64, 56
2, 70800, Control_c, 0, 64, 0
2, 70808, Note_on_c, 0, 60, 48
2, 70828, Note_off_c, 0, 80, 0
2, 70832, Note_off_c, 0, 60, 0
2, 70864, Note_on_c, 0, 80, 92
2, 70872, Note_on_c, 0, 70, 78
2, 70876, Note_on_c, 0, 72, 88
2, 70876, Control_c, 0, 64, 72
2, 70884, Control_c, 0, 64, 127
2, 70896, Note_on_c, 0, 48, 63
2, 70924, Note_off_c, 0, 48, 0
2, 70988, Note_off_c, 0, 70, 0
2, 70996, Note_off_c, 0, 80, 0
2, 71008, Note_on_c, 0, 64, 53
2, 71040, Note_off_c, 0, 72, 0
2, 71056, Control_c, 0, 64, 56
2, 71072, Control_c, 0, 64, 0
2, 71072, Note_on_c, 0, 79, 90
2, 71076, Note_on_c, 0, 70, 55
2, 71084, Note_on_c, 0, 72, 42
2, 71088, Note_off_c, 0, 64, 0
2, 71104, Note_off_c, 0, 70, 0
2, 71116, Note_off_c, 0, 72, 0
2, 71116, Note_on_c, 0, 60, 52
2, 71136, Note_off_c, 0, 79, 0
2, 71176, Note_on_c, 0, 79, 92
2, 71180, Note_off_c, 0, 60, 0
2, 71184, Note_on_c, 0, 70, 81
2, 71192, Note_on_c, 0, 72, 75
2, 71200, Control_c, 0, 64, 24
2, 71208, Note_on_c, 0, 53, 68
2, 71212, Control_c, 0, 64, 88
2, 71224, Control_c, 0, 64, 127
2, 71268, Note_off_c, 0, 79, 0
2, 71280, Note_off_c, 0, 70, 0
2, 71296, Note_on_c, 0, 64, 55
2, 71308, Note_off_c, 0, 72, 0
2, 71344, Note_off_c, 0, 53, 0
2, 71376, Note_off_c, 0, 64, 0
2, 71388, Note_on_c, 0, 60, 55
2, 71392, Note_on_c, 0, 77, 93
2, 71436, Note_off_c, 0, 77, 0
2, 71440, Control_c, 0, 64, 104
2, 71456, Control_c, 0, 64, 24
2, 71468, Control_c, 0, 64, 0
2, 71504, Note_on_c, 0, 77, 81
2, 71504, Note_on_c, 0, 68, 78
2, 71508, Control_c, 0, 64, 24
2, 71512, Note_on_c, 0, 65, 78
2, 71516, Note_on_c, 0, 53, 71
2, 71520, Control_c, 0, 64, 104
2, 71528, Note_off_c, 0, 77, 0
2, 71528, Note_off_c, 0, 65, 0
2, 71536, Note_off_c, 0, 60, 0
2, 71536, Control_c, 0, 64, 127
2, 71540, Note_off_c, 0, 68, 0
2, 71568, Note_off_c, 0, 53, 0
2, 71608, Note_on_c, 0, 65, 60
2, 71632, Note_off_c, 0, 65, 0
2, 71712, Control_c, 0, 64, 88
2, 71716, Note_on_c, 0, 65, 88
2, 71716, Note_on_c, 0, 60, 54
2, 71728, Control_c, 0, 64, 72
2, 71740, Control_c, 0, 64, 56
2, 71752, Control_c, 0, 64, 24
2, 71764, Control_c, 0, 64, 0
2, 71792, Note_off_c, 0, 65, 0
2, 71792, Note_off_c, 0, 60, 0
2, 71824, Note_on_c, 0, 72, 105
2, 71832, Note_on_c, 0, 60, 93
2, 71840, Note_on_c, 0, 48, 92
2, 71840, Note_on_c, 0, 36, 80
2, 71876, Note_off_c, 0, 60, 0
2, 71884, Control_c, 0, 64, 72
2, 71896, Control_c, 0, 64, 127
2, 71904, Note_off_c, 0, 48, 0
2, 71912, Note_off_c, 0, 36, 0
2, 71936, Note_off_c, 0, 72, 0
2, 72168, Note_on_c, 0, 85, 87
2, 72180, Note_on_c, 0, 80, 70
2, 72196, Note_on_c, 0, 65, 61
2, 72204, Note_off_c, 0, 80, 0
2, 72240, Note_off_c, 0, 85, 0
2, 72268, Note_on_c, 0, 87, 86
2, 72272, Note_on_c, 0, 73, 62
2, 72320, Note_off_c, 0, 65, 0
2, 72336, Note_off_c, 0, 87, 0
2, 72360, Note_off_c, 0, 73, 0
2, 72368, Note_on_c, 0, 85, 85
2, 72368, Note_on_c, 0, 68, 51
2, 72440, Note_off_c, 0, 85, 0
2, 72448, Note_off_c, 0, 68, 0
2, 72448, Control_c, 0, 64, 56
2, 72464, Control_c, 0, 64, 24
2, 72472, Note_on_c, 0, 84, 89
2, 72488, Note_on_c, 0, 63, 62
2, 72500, Control_c, 0, 64, 88
2, 72512, Control_c, 0, 64, 127
2, 72568, Note_off_c, 0, 84, 0
2, 72576, Note_on_c, 0, 75, 73
2, 72588, Note_on_c, 0, 72, 60
2, 72600, Note_on_c, 0, 84, 21
2, 72620, Note_off_c, 0, 63, 0
2, 72624, Note_off_c, 0, 84, 0
2, 72652, Note_off_c, 0, 75, 0
2, 72652, Note_off_c, 0, 72, 0
2, 72672, Note_on_c, 0, 67, 51
2, 72680, Note_on_c, 0, 79, 74
2, 72736, Note_off_c, 0, 79, 0
2, 72760, Control_c, 0, 64, 72
2, 72772, Control_c, 0, 64, 24
2, 72780, Note_on_c, 0, 82, 84
2, 72792, Note_on_c, 0, 61, 71
2, 72800, Note_on_c, 0, 77, 59
2, 72812, Control_c, 0, 64, 88
2, 72824, Note_off_c, 0, 67, 0
2, 72824, Control_c, 0, 64, 127
2, 72832, Note_off_c, 0, 77, 0
2, 72852, Note_off_c, 0, 82, 0
2, 72880, Note_on_c, 0, 84, 79
2, 72896, Note_off_c, 0, 61, 0
2, 72896, Note_on_c, 0, 70, 50
2, 72960, Note_off_c, 0, 84, 0
2, 72972, Note_on_c, 0, 65, 43
2, 72976, Note_off_c, 0, 70, 0
2, 72976, Note_on_c, 0, 82, 73
2, 73052, Note_off_c, 0, 65, 0
2, 73060, Note_off_c, 0, 82, 0
2, 73084, Control_c, 0, 64, 72
2, 73084, Note_on_c, 0, 80, 77
2, 73092, Note_on_c, 0, 60, 69
2, 73096, Control_c, 0, 64, 40
2, 73108, Control_c, 0, 64, 56
2, 73120, Control_c, 0, 64, 88
2, 73132, Control_c, 0, 64, 127
2, 73156, Note_off_c, 0, 80, 0
2, 73184, Note_off_c, 0, 60, 0
2, 73184, Note_on_c, 0, 72, 71
2, 73188, Note_on_c, 0, 68, 38
2, 73256, Note_off_c, 0, 72, 0
2, 73276, Note_off_c, 0, 68, 0
2, 73276, Note_on_c, 0, 63, 36
2, 73288, Note_on_c, 0, 75, 73
2, 73368, Note_off_c, 0, 63, 0
2, 73368, Note_off_c, 0, 75, 0
2, 73380, Control_c, 0, 64, 56
2, 73388, Note_on_c, 0, 79, 83
2, 73392, Control_c, 0, 64, 0
2, 73400, Note_on_c, 0, 58, 64
2, 73404, Note_on_c, 0, 73, 60
2, 73440, Note_off_c, 0, 73, 0
2, 73444, Control_c, 0, 64, 40
2, 73456, Control_c, 0, 64, 88
2, 73472, Note_off_c, 0, 79, 0
2, 73472, Control_c, 0, 64, 127
2, 73488, Note_on_c, 0, 80, 77
2, 73488, Note_on_c, 0, 67, 50
2, 73508, Note_off_c, 0, 58, 0
2, 73516, Note_on_c, 0, 73, 22
2, 73544, Note_off_c, 0, 73, 0
2, 73568, Note_off_c, 0, 80, 0
2, 73584, Note_off_c, 0, 67, 0
2, 73584, Note_on_c, 0, 79, 70
2, 73596, Note_on_c, 0, 61, 32
2, 73656, Note_off_c, 0, 61, 0
2, 73664, Control_c, 0, 64, 72
2, 73676, Control_c, 0, 64, 0
2, 73688, Note_on_c, 0, 77, 80
2, 73696, Note_off_c, 0, 79, 0
2, 73696, Note_on_c, 0, 56, 62
2, 73728, Control_c, 0, 64, 56
2, 73740, Control_c, 0, 64, 104
2, 73756, Control_c, 0, 64, 127
2, 73760, Note_off_c, 0, 77, 0
2, 73788, Note_on_c, 0, 68, 67
2, 73792, Note_on_c, 0, 65, 42
2, 73800, Note_off_c, 0, 56, 0
2, 73848, Note_off_c, 0, 68, 0
2, 73868, Note_off_c, 0, 65, 0
2, 73876, Note_on_c, 0, 60, 52
2, 73888, Note_on_c, 0, 72, 88
2, 73952, Note_off_c, 0, 72, 0
2, 73956, Note_off_c, 0, 60, 0
2, 73960, Control_c, 0, 64, 104
2, 73972, Control_c, 0, 64, 0
2, 73976, Note_on_c, 0, 75, 84
2, 73984, Note_on_c, 0, 55, 68
2, 73996, Note_on_c, 0, 70, 71
2, 74052, Control_c, 0, 64, 72
2, 74064, Control_c, 0, 64, 127
2, 74072, Note_off_c, 0, 75, 0
2, 74080, Note_on_c, 0, 63, 54
2, 74092, Note_on_c, 0, 77, 85
2, 74100, Note_off_c, 0, 55, 0
2, 74172, Note_off_c, 0, 77, 0
2, 74180, Note_off_c, 0, 63, 0
2, 74180, Note_on_c, 0, 58, 34
2, 74184, Note_on_c, 0, 75, 79
2, 74224, Note_off_c, 0, 70, 0
2, 74272, Note_off_c, 0, 58, 0
2, 74272, Control_c, 0, 64, 104
2, 74284, Note_off_c, 0, 75, 0
2, 74284, Control_c, 0, 64, 0
2, 74296, Note_on_c, 0, 73, 78
2, 74296, Note_on_c, 0, 53, 63
2, 74344, Control_c, 0, 64, 40
2, 74360, Control_c, 0, 64, 104
2, 74364, Note_off_c, 0, 73, 0
2, 74372, Control_c, 0, 64, 127
2, 74384, Note_off_c, 0, 53, 0
2, 74384, Note_on_c, 0, 65, 66
2, 74396, Note_on_c, 0, 61, 40
2, 74464, Note_off_c, 0, 65, 0
2, 74468, Note_on_c, 0, 56, 39
2, 74480, Note_off_c, 0, 61, 0
2, 74488, Note_on_c, 0, 68, 69
2, 74548, Note_off_c, 0, 56, 0
2, 74560, Note_off_c, 0, 68, 0
2, 74568, Control_c, 0, 64, 56
2, 74580, Control_c, 0, 64, 0
2, 74592, Note_on_c, 0, 51, 68
2, 74592, Note_on_c, 0, 72, 87
2, 74600, Note_on_c, 0, 67, 57
2, 74648, Note_off_c, 0, 67, 0
2, 74656, Control_c, 0, 64, 56
2, 74672, Control_c, 0, 64, 104
2, 74680, Note_off_c, 0, 72, 0
2, 74684, Control_c, 0, 64, 127
2, 74688, Note_on_c, 0, 73, 73
2, 74688, Note_on_c, 0, 60, 47
2, 74752, Note_off_c, 0, 51, 0
2, 74776, Note_off_c, 0, 60, 0
2, 74784, Note_on_c, 0, 55, 41
2, 74788, Note_off_c, 0, 73, 0
2, 74796, Note_on_c, 0, 72, 77
2, 74840, Note_off_c, 0, 55, 0
2, 74880, Control_c, 0, 64, 40
2, 74888, Note_off_c, 0, 72, 0
2, 74892, Control_c, 0, 64, 0
2, 74896, Note_on_c, 0, 70, 73
2, 74908, Note_on_c, 0, 49, 67
2, 74940, Control_c, 0, 64, 56
2, 74956, Control_c, 0, 64, 104
2, 74968, Control_c, 0, 64, 127
2, 74976, Note_off_c, 0, 70, 0
2, 74996, Note_on_c, 0, 61, 69
2, 75000, Note_off_c, 0, 49, 0
2, 75008, Note_on_c, 0, 58, 47
2, 75092, Note_off_c, 0, 61, 0
2, 75092, Note_off_c, 0, 58, 0
2, 75092, Note_on_c, 0, 53, 44
2, 75104, Note_on_c, 0, 65, 74
2, 75144, Note_off_c, 0, 53, 0
2, 75168, Note_off_c, 0, 65, 0
2, 75184, Control_c, 0, 64, 56
2, 75200, Note_on_c, 0, 68, 83
2, 75200, Note_on_c, 0, 48, 70
2, 75200, Control_c, 0, 64, 0
2, 75212, Note_on_c, 0, 63, 64
2, 75264, Control_c, 0, 64, 40
2, 75280, Note_off_c, 0, 48, 0
2, 75280, Control_c, 0, 64, 88
2, 75284, Note_on_c, 0, 56, 35
2, 75292, Note_off_c, 0, 68, 0
2, 75292, Control_c, 0, 64, 127
2, 75312, Note_on_c, 0, 70, 77
2, 75376, Note_on_c, 0, 51, 45
2, 75392, Note_off_c, 0, 63, 0
2, 75392, Note_off_c, 0, 56, 0
2, 75396, Note_on_c, 0, 68, 73
2, 75412, Note_off_c, 0, 70, 0
2, 75456, Control_c, 0, 64, 72
2, 75472, Control_c, 0, 64, 0
2, 75476, Note_off_c, 0, 51, 0
2, 75492, Note_off_c, 0, 68, 0
2, 75504, Note_on_c, 0, 67, 77
2, 75516, Note_on_c, 0, 61, 48
2, 75516, Note_on_c, 0, 46, 60
2, 75520, Note_on_c, 0, 65, 48
2, 75552, Control_c, 0, 64, 24
2, 75556, Note_off_c, 0, 65, 0
2, 75564, Control_c, 0, 64, 88
2, 75576, Control_c, 0, 64, 127
2, 75592, Note_on_c, 0, 55, 49
2, 75636, Note_off_c, 0, 67, 0
2, 75644, Note_off_c, 0, 46, 0
2, 75672, Note_off_c, 0, 61, 0
2, 75708, Note_off_c, 0, 55, 0
2, 75708, Note_on_c, 0, 67, 73
2, 75712, Note_on_c, 0, 53, 46
2, 75728, Note_on_c, 0, 65, 51
2, 75756, Note_off_c, 0, 65, 0
2, 75768, Control_c, 0, 64, 104
2, 75776, Note_off_c, 0, 67, 0
2, 75780, Control_c, 0, 64, 24
2, 75792, Note_off_c, 0, 53, 0
2, 75792, Control_c, 0, 64, 0
2, 75800, Note_on_c, 0, 70, 70
2, 75816, Note_on_c, 0, 65, 46
2, 75816, Note_on_c, 0, 62, 56
2, 75828, Note_on_c, 0, 47, 55
2, 75832, Note_on_c, 0, 68, 77
2, 75868, Note_off_c, 0, 70, 0
2, 75884, Note_off_c, 0, 65, 0
2, 75884, Note_off_c, 0, 62, 0
2, 75884, Control_c, 0, 64, 88
2, 75888, Note_off_c, 0, 47, 0
2, 75896, Control_c, 0, 64, 127
2, 75940, Note_on_c, 0, 62, 55
2, 75972, Note_off_c, 0, 68, 0
2, 76000, Note_off_c, 0, 62, 0
2, 76032, Note_on_c, 0, 67, 86
2, 76064, Note_on_c, 0, 55, 43
2, 76104, Note_off_c, 0, 67, 0
2, 76128, Control_c, 0, 64, 72
2, 76140, Note_on_c, 0, 67, 85
2, 76144, Note_off_c, 0, 55, 0
2, 76144, Control_c, 0, 64, 0
2, 76152, Note_on_c, 0, 64, 82
2, 76172, Note_on_c, 0, 48, 69
2, 76220, Control_c, 0, 64, 88
2, 76232, Control_c, 0, 64, 127
2, 76264, Note_on_c, 0, 60, 64
2, 76272, Note_off_c, 0, 64, 0
2, 76332, Note_off_c, 0, 60, 0
2, 76360, Note_on_c, 0, 55, 62
2, 76364, Note_off_c, 0, 48, 0
2, 76432, Note_off_c, 0, 67, 0
2, 76448, Note_on_c, 0, 72, 92
2, 76448, Note_on_c, 0, 60, 81
2, 76468, Note_off_c, 0, 55, 0
2, 76472, Note_on_c, 0, 52, 69
2, 76496, Note_off_c, 0, 60, 0
2, 76504, Note_off_c, 0, 52, 0
2, 76536, Note_off_c, 0, 72, 0
2, 76592, Note_on_c, 0, 48, 40
2, 76640, Note_off_c, 0, 48, 0
2, 76656, Note_on_c, 0, 43, 70
2, 76740, Note_off_c, 0, 43, 0
2, 76752, Control_c, 0, 64, 56
2, 76764, Control_c, 0, 64, 0
2, 76772, Note_on_c, 0, 84, 103
2, 76776, Note_on_c, 0, 72, 100
2, 76804, Note_on_c, 0, 36, 65
2, 76808, Note_on_c, 0, 48, 77
2, 76832, Note_off_c, 0, 72, 0
2, 76832, Note_off_c, 0, 36, 0
2, 76840, Control_c, 0, 64, 40
2, 76852, Control_c, 0, 64, 127
2, 76864, Note_off_c, 0, 48, 0
2, 76876, Note_off_c, 0, 84, 0
2, 77092, Note_on_c, 0, 97, 87
2, 77100, Note_on_c, 0, 92, 73
2, 77132, Note_off_c, 0, 92, 0
2, 77148, Note_on_c, 0, 77, 54
2, 77168, Note_off_c, 0, 97, 0
2, 77184, Note_off_c, 0, 77, 0
2, 77188, Note_on_c, 0, 99, 81
2, 77200, Note_on_c, 0, 85, 48
2, 77256, Note_off_c, 0, 99, 0
2, 77292, Note_on_c, 0, 97, 85
2, 77308, Note_off_c, 0, 85, 0
2, 77312, Note_on_c, 0, 80, 54
2, 77348, Note_off_c, 0, 80, 0
2, 77372, Note_off_c, 0, 97, 0
2, 77380, Control_c, 0, 64, 88
2, 77392, Control_c, 0, 64, 40
2, 77396, Note_on_c, 0, 96, 87
2, 77404, Note_on_c, 0, 75, 69
2, 77408, Control_c, 0, 64, 24
2, 77420, Control_c, 0, 64, 56
2, 77432, Control_c, 0, 64, 104
2, 77444, Control_c, 0, 64, 127
2, 77484, Note_off_c, 0, 96, 0
2, 77496, Note_on_c, 0, 87, 73
2, 77500, Note_on_c, 0, 84, 32
2, 77524, Note_on_c, 0, 96, 42
2, 77544, Note_off_c, 0, 75, 0
2, 77552, Note_off_c, 0, 96, 0
2, 77568, Note_off_c, 0, 87, 0
2, 77568, Note_off_c, 0, 84, 0
2, 77600, Note_on_c, 0, 91, 81
2, 77604, Note_on_c, 0, 79, 58
2, 77664, Note_off_c, 0, 91, 0
2, 77692, Control_c, 0, 64, 104
2, 77700, Note_on_c, 0, 94, 84
2, 77704, Control_c, 0, 64, 72
2, 77712, Note_on_c, 0, 73, 71
2, 77716, Control_c, 0, 64, 88
2, 77724, Note_on_c, 0, 89, 52
2, 77728, Control_c, 0, 64, 127
2, 77740, Note_off_c, 0, 79, 0
2, 77756, Note_off_c, 0, 89, 0
2, 77780, Note_off_c, 0, 94, 0
2, 77808, Note_on_c, 0, 96, 79
2, 77816, Note_off_c, 0, 73, 0
2, 77820, Note_on_c, 0, 82, 43
2, 77880, Note_off_c, 0, 96, 0
2, 77904, Note_on_c, 0, 94, 74
2, 77916, Note_on_c, 0, 77, 38
2, 77936, Note_off_c, 0, 82, 0
2, 77976, Note_off_c, 0, 77, 0
2, 77984, Note_off_c, 0, 94, 0
2, 78000, Control_c, 0, 64, 104
2, 78016, Control_c, 0, 64, 72
2, 78016, Note_on_c, 0, 92, 77
2, 78028, Note_on_c, 0, 72, 74
2, 78028, Control_c, 0, 64, 88
2, 78040, Control_c, 0, 64, 127
2, 78080, Note_off_c, 0, 92, 0
2, 78112, Note_on_c, 0, 84, 61
2, 78120, Note_on_c, 0, 80, 49
2, 78128, Note_off_c, 0, 72, 0
2, 78180, Note_off_c, 0, 84, 0
2, 78192, Note_on_c, 0, 75, 46
2, 78212, Note_on_c, 0, 87, 73
2, 78220, Note_off_c, 0, 80, 0
2, 78288, Note_off_c, 0, 87, 0
2, 78292, Note_off_c, 0, 75, 0
2, 78312, Control_c, 0, 64, 104
2, 78316, Note_on_c, 0, 91, 81
2, 78324, Note_on_c, 0, 70, 73
2, 78324, Control_c, 0, 64, 72
2, 78328, Note_on_c, 0, 85, 59
2, 78356, Note_off_c, 0, 85, 0
2, 78356, Control_c, 0, 64, 127
2, 78392, Note_off_c, 0, 91, 0
2, 78404, Note_on_c, 0, 92, 79
2, 78408, Note_on_c, 0, 79, 59
2, 78436, Note_on_c, 0, 85, 50
2, 78468, Note_off_c, 0, 70, 0
2, 78468, Note_off_c, 0, 85, 0
2, 78480, Note_off_c, 0, 92, 0
2, 78504, Note_off_c, 0, 79, 0
2, 78504, Note_on_c, 0, 91, 77
2, 78524, Note_on_c, 0, 73, 47
2, 78588, Note_off_c, 0, 73, 0
2, 78592, Note_off_c, 0, 91, 0
2, 78608, Note_on_c, 0, 89, 81
2, 78616, Control_c, 0, 64, 88
2, 78620, Note_on_c, 0, 68, 65
2, 78628, Control_c, 0, 64, 104
2, 78640, Control_c, 0, 64, 127
2, 78672, Note_off_c, 0, 89, 0
2, 78696, Note_on_c, 0, 80, 81
2, 78696, Note_on_c, 0, 77, 58
2, 78732, Note_off_c, 0, 68, 0
2, 78768, Note_off_c, 0, 80, 0
2, 78780, Note_off_c, 0, 77, 0
2, 78800, Note_on_c, 0, 84, 84
2, 78800, Note_on_c, 0, 72, 63
2, 78864, Note_off_c, 0, 84, 0
2, 78876, Note_off_c, 0, 72, 0
2, 78896, Control_c, 0, 64, 72
2, 78900, Note_on_c, 0, 87, 86
2, 78908, Note_on_c, 0, 67, 74
2, 78908, Control_c, 0, 64, 40
2, 78916, Note_on_c, 0, 82, 64
2, 78936, Control_c, 0, 64, 88
2, 78948, Control_c, 0, 64, 127
2, 78952, Note_off_c, 0, 82, 0
2, 78996, Note_off_c, 0, 87, 0
2, 79004, Note_on_c, 0, 75, 51
2, 79016, Note_on_c, 0, 89, 79
2, 79024, Note_off_c, 0, 67, 0
2, 79080, Note_off_c, 0, 89, 0
2, 79100, Note_off_c, 0, 75, 0
2, 79104, Note_on_c, 0, 87, 75
2, 79124, Note_on_c, 0, 70, 50
2, 79192, Note_off_c, 0, 87, 0
2, 79204, Note_off_c, 0, 70, 0
2, 79208, Note_on_c, 0, 85, 77
2, 79220, Control_c, 0, 64, 88
2, 79232, Note_on_c, 0, 65, 73
2, 79236, Control_c, 0, 64, 72
2, 79244, Control_c, 0, 64, 88
2, 79256, Control_c, 0, 64, 127
2, 79276, Note_off_c, 0, 85, 0
2, 79296, Note_on_c, 0, 77, 77
2, 79316, Note_on_c, 0, 73, 52
2, 79352, Note_off_c, 0, 65, 0
2, 79372, Note_off_c, 0, 77, 0
2, 79400, Note_on_c, 0, 80, 76
2, 79404, Note_off_c, 0, 73, 0
2, 79404, Note_on_c, 0, 68, 44
2, 79480, Note_off_c, 0, 80, 0
2, 79496, Note_off_c, 0, 68, 0
2, 79504, Control_c, 0, 64, 88
2, 79504, Note_on_c, 0, 84, 86
2, 79512, Note_on_c, 0, 63, 71
2, 79516, Control_c, 0, 64, 24
2, 79524, Note_on_c, 0, 79, 59
2, 79528, Control_c, 0, 64, 0
2, 79556, Control_c, 0, 64, 24
2, 79564, Note_off_c, 0, 79, 0
2, 79568, Control_c, 0, 64, 56
2, 79580, Control_c, 0, 64, 104
2, 79592, Control_c, 0, 64, 127
2, 79604, Note_on_c, 0, 85, 73
2, 79608, Note_off_c, 0, 84, 0
2, 79624, Note_on_c, 0, 72, 58
2, 79680, Note_off_c, 0, 85, 0
2, 79688, Note_off_c, 0, 63, 0
2, 79708, Note_off_c, 0, 72, 0
2, 79708, Note_on_c, 0, 84, 76
2, 79708, Note_on_c, 0, 67, 51
2, 79768, Note_off_c, 0, 67, 0
2, 79784, Note_off_c, 0, 84, 0
2, 79800, Control_c, 0, 64, 72
2, 79808, Note_on_c, 0, 82, 77
2, 79816, Control_c, 0, 64, 56
2, 79828, Control_c, 0, 64, 72
2, 79832, Note_on_c, 0, 61, 70
2, 79840, Control_c, 0, 64, 127
2, 79888, Note_off_c, 0, 82, 0
2, 79912, Note_on_c, 0, 73, 73
2, 79920, Note_off_c, 0, 61, 0
2, 79932, Note_on_c, 0, 70, 43
2, 79992, Note_on_c, 0, 65, 46
2, 80000, Note_off_c, 0, 73, 0
2, 80012, Note_off_c, 0, 70, 0
2, 80016, Note_on_c, 0, 77, 84
2, 80072, Note_off_c, 0, 65, 0
2, 80088, Note_off_c, 0, 77, 0
2, 80100, Control_c, 0, 64, 88
2, 80104, Note_on_c, 0, 80, 85
2, 80104, Note_on_c, 0, 75, 68
2, 80112, Control_c, 0, 64, 24
2, 80112, Note_on_c, 0, 60, 71
2, 80124, Control_c, 0, 64, 0
2, 80136, Control_c, 0, 64, 40
2, 80152, Control_c, 0, 64, 88
2, 80164, Control_c, 0, 64, 127
2, 80200, Note_on_c, 0, 68, 48
2, 80208, Note_off_c, 0, 80, 0
2, 80208, Note_off_c, 0, 75, 0
2, 80208, Note_on_c, 0, 82, 86
2, 80256, Note_off_c, 0, 60, 0
2, 80292, Note_on_c, 0, 63, 47
2, 80312, Note_on_c, 0, 80, 79
2, 80328, Note_off_c, 0, 68, 0
2, 80376, Note_off_c, 0, 82, 0
2, 80400, Note_off_c, 0, 63, 0
2, 80408, Note_off_c, 0, 80, 0
2, 80416, Note_on_c, 0, 79, 87
2, 80416, Note_on_c, 0, 73, 66
2, 80420, Note_on_c, 0, 58, 67
2, 80420, Control_c, 0, 64, 72
2, 80432, Note_on_c, 0, 77, 70
2, 80432, Control_c, 0, 64, 0
2, 80456, Control_c, 0, 64, 24
2, 80464, Note_off_c, 0, 77, 0
2, 80472, Control_c, 0, 64, 72
2, 80484, Control_c, 0, 64, 127
2, 80520, Note_off_c, 0, 58, 0
2, 80520, Note_on_c, 0, 67, 48
2, 80536, Note_off_c, 0, 79, 0
2, 80536, Note_off_c, 0, 73, 0
2, 80600, Note_on_c, 0, 65, 47
2, 80608, Note_on_c, 0, 79, 80
2, 80644, Note_off_c, 0, 67, 0
2, 80680, Control_c, 0, 64, 56
2, 80684, Note_off_c, 0, 79, 0
2, 80692, Note_on_c, 0, 82, 70
2, 80692, Control_c, 0, 64, 0
2, 80712, Note_off_c, 0, 65, 0
2, 80724, Note_on_c, 0, 59, 45
2, 80724, Note_on_c, 0, 77, 58
2, 80728, Note_on_c, 0, 80, 77
2, 80728, Note_on_c, 0, 74, 55
2, 80744, Control_c, 0, 64, 56
2, 80756, Control_c, 0, 64, 127
2, 80768, Note_off_c, 0, 59, 0
2, 80772, Note_off_c, 0, 77, 0
2, 80776, Note_off_c, 0, 82, 0
2, 80796, Note_off_c, 0, 74, 0
2, 80840, Note_on_c, 0, 74, 66
2, 80876, Note_off_c, 0, 80, 0
2, 80888, Note_off_c, 0, 74, 0
2, 80928, Note_on_c, 0, 79, 75
2, 80948, Note_on_c, 0, 67, 52
2, 80984, Note_off_c, 0, 79, 0
2, 81016, Control_c, 0, 64, 104
2, 81028, Note_off_c, 0, 67, 0
2, 81028, Note_on_c, 0, 79, 81
2, 81028, Control_c, 0, 64, 24
2, 81036, Note_on_c, 0, 76, 80
2, 81040, Control_c, 0, 64, 0
2, 81060, Note_on_c, 0, 60, 60
2, 81076, Control_c, 0, 64, 56
2, 81092, Control_c, 0, 64, 104
2, 81104, Control_c, 0, 64, 127
2, 81108, Note_off_c, 0, 76, 0
2, 81232, Note_off_c, 0, 79, 0
2, 81244, Note_on_c, 0, 84, 78
2, 81288, Control_c, 0, 64, 56
2, 81300, Control_c, 0, 64, 0
2, 81332, Note_off_c, 0, 84, 0
2, 81352, Control_c, 0, 64, 72
2, 81356, Note_on_c, 0, 72, 70
2, 81364, Control_c, 0, 64, 127
2, 81368, Note_off_c, 0, 60, 0
2, 81400, Note_off_c, 0, 72, 0
2, 81528, Control_c, 0, 64, 56
2, 81544, Control_c, 0, 64, 0
2, 81576, Note_on_c, 0, 72, 70
2, 81628, Note_off_c, 0, 72, 0
2, 81696, Note_on_c, 0, 66, 78
2, 81696, Note_on_c, 0, 60, 62
2, 81708, Note_on_c, 0, 44, 44
2, 81764, Note_off_c, 0, 44, 0
2, 81796, Note_on_c, 0, 58, 51
2, 81828, Note_off_c, 0, 60, 0
2, 81888, Note_on_c, 0, 56, 64
2, 81896, Note_off_c, 0, 58, 0
2, 81940, Note_off_c, 0, 56, 0
2, 82020, Note_on_c, 0, 44, 64
2, 82020, Note_on_c, 0, 60, 70
2, 82080, Note_off_c, 0, 66, 0
2, 82104, Note_off_c, 0, 60, 0
2, 82108, Note_off_c, 0, 44, 0
2, 82120, Note_on_c, 0, 65, 70
2, 82128, Note_on_c, 0, 56, 54
2, 82212, Note_off_c, 0, 65, 0
2, 82212, Note_on_c, 0, 63, 68
2, 82212, Note_on_c, 0, 54, 52
2, 82220, Note_off_c, 0, 56, 0
2, 82292, Note_off_c, 0, 54, 0
2, 82304, Note_off_c, 0, 63, 0
2, 82332, Note_on_c, 0, 61, 67
2, 82332, Note_on_c, 0, 65, 71
2, 82340, Note_on_c, 0, 49, 56
2, 82392, Note_off_c, 0, 61, 0
2, 82392, Note_off_c, 0, 65, 0
2, 82444, Note_on_c, 0, 56, 44
2, 82488, Note_off_c, 0, 49, 0
2, 82544, Note_on_c, 0, 65, 76
2, 82568, Note_off_c, 0, 56, 0
2, 82572, Note_on_c, 0, 53, 46
2, 82600, Note_off_c, 0, 65, 0
2, 82640, Note_off_c, 0, 53, 0
2, 82648, Note_on_c, 0, 65, 66
2, 82652, Note_on_c, 0, 60, 64
2, 82664, Note_on_c, 0, 44, 62
2, 82664, Control_c, 0, 64, 56
2, 82680, Control_c, 0, 64, 127
2, 82692, Note_off_c, 0, 60, 0
2, 82716, Note_off_c, 0, 44, 0
2, 82728, Note_off_c, 0, 65, 0
2, 82760, Note_on_c, 0, 67, 76
2, 82780, Note_on_c, 0, 60, 59
2, 82840, Note_off_c, 0, 67, 0
2, 82852, Note_on_c, 0, 68, 73
2, 82856, Note_off_c, 0, 60, 0
2, 82880, Note_on_c, 0, 53, 45
2, 82900, Control_c, 0, 64, 72
2, 82908, Control_c, 0, 64, 0
2, 82916, Note_off_c, 0, 53, 0
2, 82940, Note_off_c, 0, 68, 0
2, 82968, Note_on_c, 0, 67, 87
2, 82972, Note_on_c, 0, 65, 68
2, 82980, Note_on_c, 0, 46, 61
2, 83016, Control_c, 0, 64, 24
2, 83028, Control_c, 0, 64, 56
2, 83032, Note_off_c, 0, 65, 0
2, 83032, Note_off_c, 0, 46, 0
2, 83040, Note_off_c, 0, 67, 0
2, 83064, Control_c, 0, 64, 0
2, 83080, Note_on_c, 0, 61, 60
2, 83164, Note_off_c, 0, 61, 0
2, 83188, Note_on_c, 0, 67, 86
2, 83192, Note_on_c, 0, 53, 55
2, 83240, Note_off_c, 0, 67, 0
2, 83264, Note_off_c, 0, 53, 0
2, 83284, Note_on_c, 0, 67, 79
2, 83292, Note_on_c, 0, 64, 62
2, 83304, Note_on_c, 0, 48, 75
2, 83324, Note_off_c, 0, 64, 0
2, 83384, Note_off_c, 0, 48, 0
2, 83388, Note_off_c, 0, 67, 0
2, 83388, Note_on_c, 0, 60, 63
2, 83392, Note_on_c, 0, 68, 88
2, 83488, Note_on_c, 0, 70, 86
2, 83492, Note_off_c, 0, 60, 0
2, 83504, Note_off_c, 0, 68, 0
2, 83508, Note_on_c, 0, 55, 68
2, 83600, Note_on_c, 0, 68, 85
2, 83604, Note_on_c, 0, 65, 70
2, 83616, Note_off_c, 0, 55, 0
2, 83624, Note_off_c, 0, 70, 0
2, 83632, Note_on_c, 0, 53, 56
2, 83652, Note_off_c, 0, 65, 0
2, 83664, Note_off_c, 0, 68, 0
2, 83708, Note_on_c, 0, 60, 56
2, 83768, Note_off_c, 0, 53, 0
2, 83784, Note_off_c, 0, 60, 0
2, 83812, Note_on_c, 0, 56, 44
2, 83816, Note_on_c, 0, 68, 73
2, 83868, Note_off_c, 0, 56, 0
2, 83868, Note_off_c, 0, 68, 0
2, 83912, Note_on_c, 0, 68, 76
2, 83916, Note_on_c, 0, 63, 75
2, 83920, Note_on_c, 0, 47, 57
2, 84004, Note_off_c, 0, 47, 0
2, 84008, Note_off_c, 0, 63, 0
2, 84012, Note_off_c, 0, 68, 0
2, 84016, Note_on_c, 0, 56, 55
2, 84116, Note_off_c, 0, 56, 0
2, 84120, Note_on_c, 0, 68, 65
2, 84152, Note_on_c, 0, 53, 50
2, 84172, Note_off_c, 0, 68, 0
2, 84208, Note_off_c, 0, 53, 0
2, 84216, Note_on_c, 0, 68, 68
2, 84224, Note_on_c, 0, 62, 71
2, 84236, Note_on_c, 0, 46, 54
2, 84252, Control_c, 0, 64, 24
2, 84296, Note_off_c, 0, 62, 0
2, 84308, Control_c, 0, 64, 0
2, 84312, Note_off_c, 0, 68, 0
2, 84316, Note_off_c, 0, 46, 0
2, 84320, Note_on_c, 0, 58, 48
2, 84440, Note_on_c, 0, 68, 70
2, 84464, Note_off_c, 0, 58, 0
2, 84472, Note_on_c, 0, 53, 50
2, 84488, Note_off_c, 0, 68, 0
2, 84524, Note_off_c, 0, 53, 0
2, 84528, Note_on_c, 0, 68, 68
2, 84532, Note_on_c, 0, 63, 73
2, 84552, Note_on_c, 0, 47, 56
2, 84552, Control_c, 0, 64, 56
2, 84564, Control_c, 0, 64, 104
2, 84576, Control_c, 0, 64, 127
2, 84608, Note_off_c, 0, 63, 0
2, 84636, Note_on_c, 0, 59, 46
2, 84640, Note_off_c, 0, 68, 0
2, 84656, Note_off_c, 0, 47, 0
2, 84656, Control_c, 0, 64, 104
2, 84668, Control_c, 0, 64, 88
2, 84708, Control_c, 0, 64, 127
2, 84716, Note_off_c, 0, 59, 0
2, 84728, Note_on_c, 0, 53, 45
2, 84748, Note_on_c, 0, 68, 69
2, 84772, Control_c, 0, 64, 40
2, 84784, Control_c, 0, 64, 0
2, 84800, Note_off_c, 0, 68, 0
2, 84836, Note_off_c, 0, 53, 0
2, 84836, Note_on_c, 0, 68, 67
2, 84840, Note_on_c, 0, 46, 57
2, 84848, Note_on_c, 0, 62, 67
2, 84872, Control_c, 0, 64, 40
2, 84888, Control_c, 0, 64, 88
2, 84896, Control_c, 0, 64, 104
2, 84904, Note_off_c, 0, 62, 0
2, 84912, Control_c, 0, 64, 127
2, 84916, Note_off_c, 0, 68, 0
2, 84936, Note_off_c, 0, 46, 0
2, 84952, Note_on_c, 0, 58, 50
2, 84964, Control_c, 0, 64, 104
2, 85000, Control_c, 0, 64, 127
2, 85048, Note_on_c, 0, 68, 77
2, 85068, Note_off_c, 0, 58, 0
2, 85072, Note_on_c, 0, 53, 48
2, 85096, Control_c, 0, 64, 104
2, 85100, Note_off_c, 0, 68, 0
2, 85108, Control_c, 0, 64, 24
2, 85120, Control_c, 0, 64, 0
2, 85144, Note_off_c, 0, 53, 0
2, 85144, Note_on_c, 0, 68, 75
2, 85160, Note_on_c, 0, 47, 62
2, 85160, Note_on_c, 0, 63, 69
2, 85196, Control_c, 0, 64, 40
2, 85208, Control_c, 0, 64, 104
2, 85212, Note_off_c, 0, 63, 0
2, 85220, Control_c, 0, 64, 127
2, 85240, Note_on_c, 0, 59, 50
2, 85244, Note_off_c, 0, 68, 0
2, 85256, Note_off_c, 0, 47, 0
2, 85328, Note_off_c, 0, 59, 0
2, 85356, Note_on_c, 0, 53, 48
2, 85364, Note_on_c, 0, 68, 84
2, 85424, Note_off_c, 0, 68, 0
2, 85432, Control_c, 0, 64, 88
2, 85444, Control_c, 0, 64, 0
2, 85456, Note_off_c, 0, 53, 0
2, 85464, Note_on_c, 0, 68, 78
2, 85476, Note_on_c, 0, 62, 72
2, 85484, Note_on_c, 0, 47, 57
2, 85528, Note_off_c, 0, 62, 0
2, 85532, Control_c, 0, 64, 56
2, 85544, Control_c, 0, 64, 127
2, 85548, Note_off_c, 0, 68, 0
2, 85556, Note_on_c, 0, 59, 51
2, 85576, Note_off_c, 0, 47, 0
2, 85656, Note_off_c, 0, 59, 0
2, 85672, Note_on_c, 0, 68, 82
2, 85676, Note_on_c, 0, 53, 57
2, 85712, Control_c, 0, 64, 72
2, 85720, Note_off_c, 0, 68, 0
2, 85724, Control_c, 0, 64, 0
2, 85764, Note_on_c, 0, 68, 73
2, 85772, Note_off_c, 0, 53, 0
2, 85776, Note_on_c, 0, 62, 74
2, 85788, Note_on_c, 0, 47, 63
2, 85800, Control_c, 0, 64, 40
2, 85816, Control_c, 0, 64, 104
2, 85828, Control_c, 0, 64, 127
2, 85836, Note_on_c, 0, 59, 52
2, 85848, Note_off_c, 0, 62, 0
2, 85856, Note_off_c, 0, 68, 0
2, 85880, Note_off_c, 0, 47, 0
2, 85932, Note_off_c, 0, 59, 0
2, 85960, Note_on_c, 0, 52, 59
2, 85968, Note_on_c, 0, 68, 81
2, 85988, Note_off_c, 0, 52, 0
2, 86008, Control_c, 0, 64, 104
2, 86024, Control_c, 0, 64, 24
2, 86036, Control_c, 0, 64, 0
2, 86052, Note_off_c, 0, 68, 0
2, 86072, Note_on_c, 0, 69, 83
2, 86084, Note_on_c, 0, 62, 66
2, 86096, Note_on_c, 0, 45, 71
2, 86112, Control_c, 0, 64, 56
2, 86124, Control_c, 0, 64, 72
2, 86140, Control_c, 0, 64, 56
2, 86152, Control_c, 0, 64, 24
2, 86168, Control_c, 0, 64, 0
2, 86172, Note_on_c, 0, 57, 58
2, 86176, Note_off_c, 0, 69, 0
2, 86184, Note_off_c, 0, 45, 0
2, 86200, Note_off_c, 0, 62, 0
2, 86264, Note_off_c, 0, 57, 0
2, 86280, Note_on_c, 0, 69, 70
2, 86296, Note_on_c, 0, 52, 50
2, 86344, Note_off_c, 0, 69, 0
2, 86344, Note_off_c, 0, 52, 0
2, 86384, Control_c, 0, 64, 88
2, 86388, Note_on_c, 0, 61, 81
2, 86392, Note_on_c, 0, 67, 82
2, 86396, Control_c, 0, 64, 127
2, 86396, Note_on_c, 0, 45, 64
2, 86408, Control_c, 0, 64, 104
2, 86420, Control_c, 0, 64, 72
2, 86436, Control_c, 0, 64, 40
2, 86448, Control_c, 0, 64, 0
2, 86472, Note_on_c, 0, 57, 52
2, 86488, Note_on_c, 0, 69, 71
2, 86492, Note_off_c, 0, 67, 0
2, 86544, Note_off_c, 0, 45, 0
2, 86568, Note_off_c, 0, 69, 0
2, 86576, Note_off_c, 0, 57, 0
2, 86588, Note_on_c, 0, 67, 66
2, 86588, Note_on_c, 0, 52, 49
2, 86668, Note_off_c, 0, 52, 0
2, 86692, Note_off_c, 0, 67, 0
2, 86696, Note_on_c, 0, 66, 72
2, 86696, Note_on_c, 0, 61, 75
2, 86724, Note_on_c, 0, 45, 52
2, 86808, Note_off_c, 0, 45, 0
2, 86816, Note_on_c, 0, 57, 42
2, 86908, Note_on_c, 0, 51, 58
2, 86916, Note_off_c, 0, 57, 0
2, 86984, Note_off_c, 0, 61, 0
2, 87008, Note_on_c, 0, 60, 72
2, 87016, Control_c, 0, 64, 24
2, 87028, Note_on_c, 0, 44, 49
2, 87032, Control_c, 0, 64, 127
2, 87040, Note_off_c, 0, 51, 0
2, 87068, Control_c, 0, 64, 0
2, 87112, Note_off_c, 0, 44, 0
2, 87112, Note_on_c, 0, 56, 50
2, 87112, Note_on_c, 0, 65, 70
2, 87144, Note_off_c, 0, 66, 0
2, 87144, Note_off_c, 0, 61, 0
2, 87196, Note_off_c, 0, 65, 0
2, 87224, Note_on_c, 0, 63, 67
2, 87224, Note_on_c, 0, 54, 47
2, 87264, Note_off_c, 0, 60, 0
2, 87272, Note_off_c, 0, 56, 0
2, 87304, Note_off_c, 0, 63, 0
2, 87308, Note_off_c, 0, 54, 0
2, 87324, Control_c, 0, 64, 127
2, 87328, Note_on_c, 0, 61, 80
2, 87332, Note_on_c, 0, 65, 74
2, 87336, Note_on_c, 0, 49, 52
2, 87352, Control_c, 0, 64, 0
2, 87380, Note_off_c, 0, 65, 0
2, 87440, Note_on_c, 0, 56, 46
2, 87468, Note_off_c, 0, 61, 0
2, 87516, Note_off_c, 0, 49, 0
2, 87536, Note_on_c, 0, 65, 78
2, 87564, Note_on_c, 0, 53, 50
2, 87576, Note_off_c, 0, 56, 0
2, 87584, Note_off_c, 0, 65, 0
2, 87624, Control_c, 0, 64, 104
2, 87640, Control_c, 0, 64, 127
2, 87640, Note_on_c, 0, 60, 75
2, 87644, Note_off_c, 0, 53, 0
2, 87648, Note_on_c, 0, 65, 60
2, 87652, Note_on_c, 0, 44, 52
2, 87688, Control_c, 0, 64, 56
2, 87696, Note_off_c, 0, 44, 0
2, 87704, Control_c, 0, 64, 0
2, 87720, Note_off_c, 0, 60, 0
2, 87736, Note_off_c, 0, 65, 0
2, 87756, Note_on_c, 0, 67, 77
2, 87768, Note_on_c, 0, 60, 41
2, 87808, Note_off_c, 0, 60, 0
2, 87832, Note_off_c, 0, 67, 0
2, 87848, Note_on_c, 0, 68, 76
2, 87856, Note_on_c, 0, 53, 45
2, 87900, Note_off_c, 0, 53, 0
2, 87928, Note_off_c, 0, 68, 0
2, 87948, Note_on_c, 0, 65, 77
2, 87952, Note_on_c, 0, 46, 65
2, 87956, Note_on_c, 0, 67, 93
2, 87972, Control_c, 0, 64, 127
2, 88012, Note_off_c, 0, 46, 0
2, 88028, Note_off_c, 0, 67, 0
2, 88060, Note_on_c, 0, 61, 60
2, 88096, Note_off_c, 0, 65, 0
2, 88140, Note_off_c, 0, 61, 0
2, 88172, Note_on_c, 0, 67, 78
2, 88200, Note_on_c, 0, 53, 48
2, 88204, Control_c, 0, 64, 104
2, 88216, Note_off_c, 0, 67, 0
2, 88216, Control_c, 0, 64, 0
2, 88248, Note_off_c, 0, 53, 0
2, 88272, Note_on_c, 0, 64, 77
2, 88276, Note_on_c, 0, 67, 70
2, 88304, Note_on_c, 0, 48, 55
2, 88320, Control_c, 0, 64, 88
2, 88332, Control_c, 0, 64, 127
2, 88340, Note_off_c, 0, 48, 0
2, 88344, Note_off_c, 0, 64, 0
2, 88344, Note_off_c, 0, 67, 0
2, 88376, Note_on_c, 0, 68, 78
2, 88384, Note_on_c, 0, 60, 50
2, 88400, Control_c, 0, 64, 88
2, 88412, Control_c, 0, 64, 56
2, 88424, Control_c, 0, 64, 40
2, 88440, Control_c, 0, 64, 24
2, 88448, Note_off_c, 0, 68, 0
2, 88464, Note_off_c, 0, 60, 0
2, 88464, Control_c, 0, 64, 0
2, 88472, Note_on_c, 0, 70, 74
2, 88472, Note_on_c, 0, 55, 47
2, 88556, Note_off_c, 0, 55, 0
2, 88572, Note_off_c, 0, 70, 0
2, 88576, Note_on_c, 0, 65, 68
2, 88580, Note_on_c, 0, 68, 73
2, 88604, Note_on_c, 0, 53, 50
2, 88604, Control_c, 0, 64, 24
2, 88616, Control_c, 0, 64, 40
2, 88640, Note_off_c, 0, 68, 0
2, 88652, Control_c, 0, 64, 0
2, 88684, Note_on_c, 0, 60, 50
2, 88752, Note_off_c, 0, 53, 0
2, 88760, Note_off_c, 0, 60, 0
2, 88792, Note_on_c, 0, 68, 67
2, 88796, Note_on_c, 0, 56, 48
2, 88844, Note_off_c, 0, 65, 0
2, 88856, Note_off_c, 0, 68, 0
2, 88892, Note_on_c, 0, 69, 68
2, 88908, Note_on_c, 0, 66, 54
2, 88916, Note_on_c, 0, 51, 54
2, 88924, Note_off_c, 0, 56, 0
2, 88964, Note_off_c, 0, 69, 0
2, 88996, Note_on_c, 0, 60, 49
2, 89000, Note_off_c, 0, 51, 0
2, 89008, Note_off_c, 0, 66, 0
2, 89088, Note_off_c, 0, 60, 0
2, 89096, Note_on_c, 0, 69, 77
2, 89096, Note_on_c, 0, 54, 46
2, 89156, Note_off_c, 0, 69, 0
2, 89192, Note_on_c, 0, 70, 73
2, 89200, Note_off_c, 0, 54, 0
2, 89204, Note_on_c, 0, 65, 60
2, 89204, Note_on_c, 0, 50, 59
2, 89268, Note_off_c, 0, 70, 0
2, 89296, Note_on_c, 0, 58, 53
2, 89320, Note_off_c, 0, 50, 0
2, 89336, Note_off_c, 0, 65, 0
2, 89400, Note_off_c, 0, 58, 0
2, 89400, Note_on_c, 0, 70, 75
2, 89404, Note_on_c, 0, 53, 52
2, 89460, Note_off_c, 0, 70, 0
2, 89468, Control_c, 0, 64, 40
2, 89480, Note_off_c, 0, 53, 0
2, 89480, Control_c, 0, 64, 72
2, 89496, Note_on_c, 0, 49, 67
2, 89496, Control_c, 0, 64, 88
2, 89496, Note_on_c, 0, 71, 82
2, 89500, Note_on_c, 0, 68, 58
2, 89504, Note_on_c, 0, 65, 62
2, 89532, Control_c, 0, 64, 40
2, 89544, Control_c, 0, 64, 24
2, 89560, Control_c, 0, 64, 0
2, 89572, Note_off_c, 0, 68, 0
2, 89592, Note_off_c, 0, 71, 0
2, 89592, Note_on_c, 0, 59, 56
2, 89600, Note_off_c, 0, 49, 0
2, 89604, Note_off_c, 0, 65, 0
2, 89672, Note_off_c, 0, 59, 0
2, 89700, Note_on_c, 0, 71, 88
2, 89704, Note_on_c, 0, 53, 58
2, 89780, Note_off_c, 0, 71, 0
2, 89784, Note_off_c, 0, 53, 0
2, 89792, Control_c, 0, 64, 56
2, 89804, Note_on_c, 0, 72, 96
2, 89808, Control_c, 0, 64, 88
2, 89808, Note_on_c, 0, 68, 71
2, 89808, Note_on_c, 0, 65, 76
2, 89812, Note_on_c, 0, 48, 74
2, 89816, Control_c, 0, 64, 104
2, 89856, Control_c, 0, 64, 88
2, 89864, Note_off_c, 0, 65, 0
2, 89872, Note_off_c, 0, 68, 0
2, 89888, Note_off_c, 0, 48, 0
2, 89892, Note_off_c, 0, 72, 0
2, 89896, Control_c, 0, 64, 72
2, 89916, Note_on_c, 0, 60, 62
2, 89936, Control_c, 0, 64, 40
2, 89948, Control_c, 0, 64, 0
2, 89984, Note_off_c, 0, 60, 0
2, 90016, Note_on_c, 0, 72, 97
2, 90040, Note_on_c, 0, 53, 51
2, 90072, Note_off_c, 0, 72, 0
2, 90088, Control_c, 0, 64, 40
2, 90096, Note_off_c, 0, 53, 0
2, 90104, Control_c, 0, 64, 88
2, 90116, Control_c, 0, 64, 127
2, 90120, Note_on_c, 0, 73, 99
2, 90120, Note_on_c, 0, 47, 70
2, 90128, Note_on_c, 0, 65, 82
2, 90136, Note_on_c, 0, 68, 55
2, 90156, Note_off_c, 0, 68, 0
2, 90184, Note_off_c, 0, 65, 0
2, 90212, Note_off_c, 0, 73, 0
2, 90212, Note_off_c, 0, 47, 0
2, 90216, Note_on_c, 0, 61, 74
2, 90308, Note_off_c, 0, 61, 0
2, 90308, Note_on_c, 0, 53, 50
2, 90312, Note_on_c, 0, 73, 91
2, 90360, Control_c, 0, 64, 104
2, 90376, Control_c, 0, 64, 40
2, 90384, Note_off_c, 0, 73, 0
2, 90388, Control_c, 0, 64, 0
2, 90400, Note_off_c, 0, 53, 0
2, 90428, Note_on_c, 0, 72, 94
2, 90436, Note_on_c, 0, 48, 71
2, 90440, Note_on_c, 0, 68, 60
2, 90460, Control_c, 0, 64, 40
2, 90468, Note_off_c, 0, 48, 0
2, 90476, Control_c, 0, 64, 104
2, 90488, Control_c, 0, 64, 127
2, 90528, Note_on_c, 0, 65, 61
2, 90568, Note_off_c, 0, 68, 0
2, 90584, Note_off_c, 0, 72, 0
2, 90584, Note_off_c, 0, 65, 0
2, 90624, Note_on_c, 0, 80, 91
2, 90640, Note_on_c, 0, 72, 68
2, 90648, Note_on_c, 0, 60, 55
2, 90660, Note_off_c, 0, 72, 0
2, 90668, Note_off_c, 0, 60, 0
2, 90672, Control_c, 0, 64, 56
2, 90684, Control_c, 0, 64, 0
2, 90700, Note_off_c, 0, 80, 0
2, 90740, Note_on_c, 0, 80, 85
2, 90748, Note_on_c, 0, 70, 73
2, 90748, Note_on_c, 0, 72, 82
2, 90760, Control_c, 0, 64, 104
2, 90772, Note_on_c, 0, 48, 55
2, 90776, Control_c, 0, 64, 127
2, 90792, Note_off_c, 0, 48, 0
2, 90864, Note_off_c, 0, 80, 0
2, 90864, Note_on_c, 0, 64, 57
2, 90884, Note_off_c, 0, 70, 0
2, 90912, Note_off_c, 0, 72, 0
2, 90936, Note_off_c, 0, 64, 0
2, 90952, Note_on_c, 0, 79, 89
2, 90964, Note_on_c, 0, 70, 47
2, 90968, Note_on_c, 0, 60, 53
2, 90972, Note_on_c, 0, 72, 45
2, 90984, Note_off_c, 0, 70, 0
2, 90992, Control_c, 0, 64, 72
2, 91000, Note_off_c, 0, 72, 0
2, 91004, Control_c, 0, 64, 0
2, 91012, Note_off_c, 0, 79, 0
2, 91048, Note_off_c, 0, 60, 0
2, 91048, Note_on_c, 0, 79, 87
2, 91060, Note_on_c, 0, 72, 70
2, 91060, Note_on_c, 0, 70, 75
2, 91076, Note_on_c, 0, 53, 72
2, 91096, Control_c, 0, 64, 72
2, 91112, Control_c, 0, 64, 127
2, 91128, Note_off_c, 0, 72, 0
2, 91144, Note_off_c, 0, 79, 0
2, 91144, Note_off_c, 0, 70, 0
2, 91196, Note_on_c, 0, 64, 58
2, 91276, Note_off_c, 0, 64, 0
2, 91276, Note_on_c, 0, 77, 86
2, 91276, Note_on_c, 0, 60, 52
2, 91320, Note_off_c, 0, 53, 0
2, 91320, Note_off_c, 0, 77, 0
2, 91320, Note_off_c, 0, 60, 0
2, 91328, Control_c, 0, 64, 72
2, 91340, Control_c, 0, 64, 0
2, 91376, Note_on_c, 0, 77, 78
2, 91376, Note_on_c, 0, 60, 41
2, 91384, Note_on_c, 0, 68, 74
2, 91408, Control_c, 0, 64, 72
2, 91416, Note_off_c, 0, 77, 0
2, 91420, Control_c, 0, 64, 127
2, 91420, Note_on_c, 0, 53, 56
2, 91424, Note_off_c, 0, 68, 0
2, 91452, Note_off_c, 0, 60, 0
2, 91468, Note_off_c, 0, 53, 0
2, 91488, Note_on_c, 0, 65, 57
2, 91528, Note_off_c, 0, 65, 0
2, 91560, Control_c, 0, 64, 104
2, 91576, Control_c, 0, 64, 72
2, 91588, Control_c, 0, 64, 40
2, 91600, Control_c, 0, 64, 24
2, 91608, Note_on_c, 0, 65, 86
2, 91608, Note_on_c, 0, 60, 53
2, 91612, Control_c, 0, 64, 0
2, 91656, Note_off_c, 0, 65, 0
2, 91656, Note_off_c, 0, 60, 0
2, 91712, Note_on_c, 0, 72, 97
2, 91720, Note_on_c, 0, 60, 92
2, 91720, Note_on_c, 0, 63, 77
2, 91724, Note_on_c, 0, 56, 85
2, 91728, Note_on_c, 0, 51, 80
2, 91732, Note_on_c, 0, 44, 76
2, 91736, Note_on_c, 0, 68, 36
2, 91740, Control_c, 0, 64, 72
2, 91752, Control_c, 0, 64, 127
2, 91760, Note_off_c, 0, 68, 0
2, 91768, Note_off_c, 0, 63, 0
2, 91768, Note_off_c, 0, 56, 0
2, 91768, Note_off_c, 0, 51, 0
2, 91784, Note_off_c, 0, 44, 0
2, 91800, Note_off_c, 0, 60, 0
2, 91912, Control_c, 0, 64, 88
2, 91924, Control_c, 0, 64, 40
2, 91932, Control_c, 0, 64, 0
2, 91976, Note_off_c, 0, 72, 0
2, 92048, Note_on_c, 0, 70, 85
2, 92052, Note_on_c, 0, 61, 72
2, 92056, Note_on_c, 0, 64, 72
2, 92064, Note_on_c, 0, 49, 88
2, 92064, Note_on_c, 0, 37, 84
2, 92068, Control_c, 0, 64, 88
2, 92068, Note_on_c, 0, 44, 82
2, 92076, Note_off_c, 0, 64, 0
2, 92080, Control_c, 0, 64, 127
2, 92088, Note_off_c, 0, 44, 0
2, 92092, Note_off_c, 0, 61, 0
2, 92092, Note_off_c, 0, 49, 0
2, 92108, Note_off_c, 0, 37, 0
2, 92112, Note_off_c, 0, 70, 0
2, 92152, Note_on_c, 0, 72, 99
2, 92184, Control_c, 0, 64, 88
2, 92196, Control_c, 0, 64, 72
2, 92208, Control_c, 0, 64, 40
2, 92216, Note_off_c, 0, 72, 0
2, 92220, Control_c, 0, 64, 0
2, 92248, Note_on_c, 0, 70, 90
2, 92328, Note_off_c, 0, 70, 0
2, 92364, Note_on_c, 0, 68, 93
2, 92372, Note_on_c, 0, 60, 87
2, 92376, Note_on_c, 0, 44, 88
2, 92376, Note_on_c, 0, 32, 77
2, 92396, Control_c, 0, 64, 72
2, 92408, Control_c, 0, 64, 127
2, 92416, Note_off_c, 0, 60, 0
2, 92416, Note_off_c, 0, 44, 0
2, 92416, Note_off_c, 0, 32, 0
2, 92456, Note_off_c, 0, 68, 0
2, 92584, Note_on_c, 0, 68, 80
2, 92660, Note_off_c, 0, 68, 0
2, 92672, Control_c, 0, 64, 56
2, 92684, Control_c, 0, 64, 0
2, 92688, Note_on_c, 0, 65, 84
2, 92692, Note_on_c, 0, 72, 78
2, 92712, Note_on_c, 0, 49, 58
2, 92772, Note_off_c, 0, 49, 0
2, 92788, Note_off_c, 0, 72, 0
2, 92808, Note_on_c, 0, 56, 55
2, 92908, Note_off_c, 0, 56, 0
2, 92912, Note_on_c, 0, 72, 69
2, 92920, Note_on_c, 0, 49, 55
2, 92976, Note_off_c, 0, 72, 0
2, 92996, Note_off_c, 0, 49, 0
2, 93000, Note_off_c, 0, 65, 0
2, 93012, Note_on_c, 0, 63, 75
2, 93016, Note_on_c, 0, 68, 65
2, 93036, Note_on_c, 0, 48, 62
2, 93104, Note_off_c, 0, 48, 0
2, 93112, Note_off_c, 0, 68, 0
2, 93124, Note_on_c, 0, 56, 55
2, 93224, Note_off_c, 0, 56, 0
2, 93224, Note_on_c, 0, 68, 64
2, 93240, Note_on_c, 0, 48, 56
2, 93284, Note_off_c, 0, 63, 0
2, 93304, Note_off_c, 0, 48, 0
2, 93320, Note_off_c, 0, 68, 0
2, 93332, Note_on_c, 0, 72, 84
2, 93336, Note_on_c, 0, 49, 53
2, 93336, Note_on_c, 0, 65, 60
2, 93416, Note_off_c, 0, 72, 0
2, 93424, Note_off_c, 0, 49, 0
2, 93432, Note_on_c, 0, 56, 56
2, 93508, Note_off_c, 0, 56, 0
2, 93520, Note_off_c, 0, 65, 0
2, 93540, Note_on_c, 0, 72, 89
2, 93544, Note_on_c, 0, 50, 56
2, 93576, Note_off_c, 0, 50, 0
2, 93620, Note_off_c, 0, 72, 0
2, 93652, Note_on_c, 0, 70, 85
2, 93656, Note_on_c, 0, 61, 70
2, 93660, Note_on_c, 0, 51, 65
2, 93668, Note_on_c, 0, 55, 54
2, 93692, Control_c, 0, 64, 24
2, 93704, Control_c, 0, 64, 0
2, 93708, Note_off_c, 0, 61, 0
2, 93720, Note_off_c, 0, 55, 0
2, 93740, Note_off_c, 0, 51, 0
2, 93740, Note_off_c, 0, 70, 0
2, 93752, Note_on_c, 0, 72, 88
2, 93824, Note_off_c, 0, 72, 0
2, 93848, Note_on_c, 0, 70, 78
2, 93952, Note_on_c, 0, 67, 88
2, 93968, Note_on_c, 0, 39, 58
2, 93968, Note_on_c, 0, 51, 71
2, 93984, Note_off_c, 0, 70, 0
2, 94004, Note_off_c, 0, 51, 0
2, 94008, Note_off_c, 0, 39, 0
2, 94040, Note_off_c, 0, 67, 0
2, 94044, Note_on_c, 0, 65, 81
2, 94120, Note_off_c, 0, 65, 0
2, 94144, Note_on_c, 0, 63, 87
2, 94200, Note_off_c, 0, 63, 0
2, 94268, Note_on_c, 0, 72, 100
2, 94276, Note_on_c, 0, 60, 89
2, 94276, Note_on_c, 0, 56, 82
2, 94276, Note_on_c, 0, 63, 80
2, 94280, Note_on_c, 0, 51, 77
2, 94280, Note_on_c, 0, 44, 73
2, 94296, Control_c, 0, 64, 72
2, 94312, Control_c, 0, 64, 127
2, 94320, Note_off_c, 0, 56, 0
2, 94324, Note_off_c, 0, 51, 0
2, 94328, Note_off_c, 0, 60, 0
2, 94328, Note_off_c, 0, 63, 0
2, 94344, Note_off_c, 0, 44, 0
2, 94520, Note_off_c, 0, 72, 0
2, 94520, Control_c, 0, 64, 104
2, 94532, Control_c, 0, 64, 56
2, 94540, Control_c, 0, 64, 0
2, 94596, Note_on_c, 0, 70, 85
2, 94600, Note_on_c, 0, 61, 72
2, 94608, Note_on_c, 0, 64, 73
2, 94616, Note_on_c, 0, 49, 96
2, 94616, Note_on_c, 0, 37, 76
2, 94620, Note_on_c, 0, 44, 72
2, 94632, Control_c, 0, 64, 72
2, 94640, Note_off_c, 0, 64, 0
2, 94640, Note_off_c, 0, 37, 0
2, 94640, Note_off_c, 0, 44, 0
2, 94648, Note_off_c, 0, 61, 0
2, 94648, Note_off_c, 0, 49, 0
2, 94648, Control_c, 0, 64, 127
2, 94668, Note_off_c, 0, 70, 0
2, 94708, Note_on_c, 0, 72, 96
2, 94736, Control_c, 0, 64, 104
2, 94748, Control_c, 0, 64, 72
2, 94760, Control_c, 0, 64, 40
2, 94772, Note_off_c, 0, 72, 0
2, 94776, Control_c, 0, 64, 0
2, 94800, Note_on_c, 0, 70, 85
2, 94884, Note_off_c, 0, 70, 0
2, 94916, Note_on_c, 0, 68, 91
2, 94920, Note_on_c, 0, 60, 83
2, 94928, Note_on_c, 0, 44, 88
2, 94932, Note_on_c, 0, 32, 73
2, 94944, Control_c, 0, 64, 56
2, 94956, Control_c, 0, 64, 127
2, 94968, Note_off_c, 0, 60, 0
2, 94968, Note_off_c, 0, 44, 0
2, 94968, Note_off_c, 0, 32, 0
2, 95012, Note_off_c, 0, 68, 0
2, 95144, Note_on_c, 0, 68, 79
2, 95216, Control_c, 0, 64, 72
2, 95224, Note_off_c, 0, 68, 0
2, 95228, Control_c, 0, 64, 0
2, 95248, Note_on_c, 0, 72, 86
2, 95248, Note_on_c, 0, 65, 74
2, 95260, Note_on_c, 0, 49, 58
2, 95328, Note_off_c, 0, 49, 0
2, 95352, Note_off_c, 0, 72, 0
2, 95356, Note_on_c, 0, 56, 55
2, 95460, Note_off_c, 0, 56, 0
2, 95464, Note_on_c, 0, 49, 62
2, 95468, Note_on_c, 0, 72, 74
2, 95528, Note_off_c, 0, 49, 0
2, 95532, Note_off_c, 0, 72, 0
2, 95556, Note_off_c, 0, 65, 0
2, 95560, Note_on_c, 0, 68, 77
2, 95568, Note_on_c, 0, 63, 70
2, 95576, Note_on_c, 0, 48, 70
2, 95640, Note_off_c, 0, 48, 0
2, 95660, Note_off_c, 0, 68, 0
2, 95668, Note_on_c, 0, 56, 49
2, 95760, Note_on_c, 0, 68, 72
2, 95780, Note_off_c, 0, 56, 0
2, 95780, Note_on_c, 0, 48, 68
2, 95804, Note_off_c, 0, 63, 0
2, 95852, Note_off_c, 0, 68, 0
2, 95852, Note_off_c, 0, 48, 0
2, 95860, Note_on_c, 0, 49, 64
2, 95864, Note_on_c, 0, 72, 85
2, 95884, Note_on_c, 0, 65, 63
2, 95944, Note_off_c, 0, 49, 0
2, 95964, Note_off_c, 0, 72, 0
2, 95964, Note_on_c, 0, 56, 61
2, 96056, Note_off_c, 0, 65, 0
2, 96056, Note_off_c, 0, 56, 0
2, 96072, Note_on_c, 0, 72, 85
2, 96076, Note_on_c, 0, 50, 63
2, 96108, Note_off_c, 0, 50, 0
2, 96152, Note_off_c, 0, 72, 0
2, 96188, Note_on_c, 0, 70, 86
2, 96188, Note_on_c, 0, 55, 69
2, 96192, Note_on_c, 0, 51, 67
2, 96196, Note_on_c, 0, 61, 65
2, 96220, Note_off_c, 0, 55, 0
2, 96220, Control_c, 0, 64, 40
2, 96248, Note_off_c, 0, 51, 0
2, 96248, Note_off_c, 0, 61, 0
2, 96272, Note_off_c, 0, 70, 0
2, 96272, Control_c, 0, 64, 0
2, 96292, Note_on_c, 0, 72, 93
2, 96348, Note_off_c, 0, 72, 0
2, 96376, Note_on_c, 0, 70, 85
2, 96468, Note_off_c, 0, 70, 0
2, 96484, Note_on_c, 0, 69, 88
2, 96492, Note_on_c, 0, 61, 71
2, 96492, Note_on_c, 0, 67, 74
2, 96496, Note_on_c, 0, 51, 90
2, 96496, Note_on_c, 0, 39, 75
2, 96504, Control_c, 0, 64, 40
2, 96516, Control_c, 0, 64, 88
2, 96528, Control_c, 0, 64, 104
2, 96540, Note_off_c, 0, 51, 0
2, 96540, Note_off_c, 0, 39, 0
2, 96544, Control_c, 0, 64, 88
2, 96556, Control_c, 0, 64, 72
2, 96560, Note_off_c, 0, 61, 0
2, 96568, Note_off_c, 0, 69, 0
2, 96568, Note_off_c, 0, 67, 0
2, 96568, Control_c, 0, 64, 40
2, 96584, Control_c, 0, 64, 0
2, 96588, Note_on_c, 0, 70, 83
2, 96680, Note_on_c, 0, 75, 93
2, 96684, Note_off_c, 0, 70, 0
2, 96728, Note_off_c, 0, 75, 0
2, 96800, Note_on_c, 0, 72, 99
2, 96804, Note_on_c, 0, 60, 83
2, 96804, Note_on_c, 0, 63, 73
2, 96804, Note_on_c, 0, 68, 71
2, 96820, Note_on_c, 0, 56, 87
2, 96820, Note_on_c, 0, 51, 84
2, 96824, Note_on_c, 0, 44, 81
2, 96840, Note_off_c, 0, 60, 0
2, 96840, Note_off_c, 0, 63, 0
2, 96840, Control_c, 0, 64, 56
2, 96856, Note_off_c, 0, 56, 0
2, 96856, Control_c, 0, 64, 127
2, 96860, Note_off_c, 0, 68, 0
2, 96864, Note_off_c, 0, 51, 0
2, 96868, Note_off_c, 0, 44, 0
2, 96872, Note_off_c, 0, 72, 0
2, 97072, Control_c, 0, 64, 40
2, 97084, Control_c, 0, 64, 0
2, 97128, Note_on_c, 0, 70, 84
2, 97136, Note_on_c, 0, 61, 69
2, 97136, Note_on_c, 0, 64, 74
2, 97144, Note_on_c, 0, 49, 97
2, 97144, Note_on_c, 0, 44, 73
2, 97148, Note_on_c, 0, 37, 77
2, 97160, Note_off_c, 0, 64, 0
2, 97164, Control_c, 0, 64, 88
2, 97172, Note_off_c, 0, 37, 0
2, 97176, Note_off_c, 0, 61, 0
2, 97176, Note_off_c, 0, 49, 0
2, 97176, Note_off_c, 0, 44, 0
2, 97176, Control_c, 0, 64, 127
2, 97208, Note_off_c, 0, 70, 0
2, 97232, Note_on_c, 0, 72, 90
2, 97268, Control_c, 0, 64, 104
2, 97276, Control_c, 0, 64, 72
2, 97292, Control_c, 0, 64, 24
2, 97296, Note_off_c, 0, 72, 0
2, 97304, Control_c, 0, 64, 0
2, 97328, Note_on_c, 0, 70, 89
2, 97412, Note_off_c, 0, 70, 0
2, 97448, Note_on_c, 0, 68, 89
2, 97460, Note_on_c, 0, 44, 85
2, 97460, Note_on_c, 0, 60, 77
2, 97464, Note_on_c, 0, 32, 77
2, 97476, Control_c, 0, 64, 104
2, 97488, Note_off_c, 0, 32, 0
2, 97488, Control_c, 0, 64, 127
2, 97496, Note_off_c, 0, 44, 0
2, 97508, Note_off_c, 0, 60, 0
2, 97544, Note_off_c, 0, 68, 0
2, 97668, Note_on_c, 0, 68, 80
2, 97704, Control_c, 0, 64, 88
2, 97720, Control_c, 0, 64, 40
2, 97732, Control_c, 0, 64, 0
2, 97748, Note_off_c, 0, 68, 0
2, 97776, Note_on_c, 0, 72, 77
2, 97784, Note_on_c, 0, 65, 85
2, 97796, Note_on_c, 0, 49, 62
2, 97856, Note_off_c, 0, 49, 0
2, 97872, Note_off_c, 0, 72, 0
2, 97884, Note_on_c, 0, 56, 57
2, 97972, Note_off_c, 0, 56, 0
2, 97980, Note_on_c, 0, 49, 54
2, 97992, Note_on_c, 0, 72, 66
2, 98052, Note_off_c, 0, 49, 0
2, 98056, Note_off_c, 0, 72, 0
2, 98084, Note_off_c, 0, 65, 0
2, 98096, Note_on_c, 0, 68, 61
2, 98100, Note_on_c, 0, 63, 80
2, 98104, Note_on_c, 0, 48, 62
2, 98176, Note_off_c, 0, 48, 0
2, 98192, Note_off_c, 0, 68, 0
2, 98208, Note_on_c, 0, 56, 57
2, 98296, Note_on_c, 0, 68, 74
2, 98300, Note_off_c, 0, 56, 0
2, 98320, Note_on_c, 0, 48, 64
2, 98340, Note_off_c, 0, 63, 0
2, 98392, Note_off_c, 0, 48, 0
2, 98408, Note_off_c, 0, 68, 0
2, 98408, Note_on_c, 0, 49, 62
2, 98412, Note_on_c, 0, 72, 84
2, 98424, Note_on_c, 0, 65, 70
2, 98488, Note_off_c, 0, 49, 0
2, 98500, Note_on_c, 0, 56, 58
2, 98532, Note_off_c, 0, 72, 0
2, 98584, Note_off_c, 0, 56, 0
2, 98588, Note_off_c, 0, 65, 0
2, 98628, Note_on_c, 0, 50, 65
2, 98632, Note_on_c, 0, 72, 84
2, 98716, Note_off_c, 0, 72, 0
2, 98740, Note_on_c, 0, 55, 63
2, 98740, Note_on_c, 0, 70, 80
2, 98740, Note_on_c, 0, 51, 71
2, 98744, Note_on_c, 0, 61, 58
2, 98752, Note_off_c, 0, 50, 0
2, 98776, Control_c, 0, 64, 88
2, 98780, Note_off_c, 0, 55, 0
2, 98792, Control_c, 0, 64, 127
2, 98796, Note_off_c, 0, 51, 0
2, 98804, Note_off_c, 0, 61, 0
2, 98828, Control_c, 0, 64, 72
2, 98832, Note_on_c, 0, 72, 84
2, 98840, Control_c, 0, 64, 40
2, 98856, Note_off_c, 0, 70, 0
2, 98856, Control_c, 0, 64, 24
2, 98868, Control_c, 0, 64, 0
2, 98916, Note_off_c, 0, 72, 0
2, 98924, Note_on_c, 0, 70, 70
2, 99040, Note_on_c, 0, 67, 81
2, 99056, Note_on_c, 0, 51, 67
2, 99060, Note_on_c, 0, 39, 58
2, 99076, Note_off_c, 0, 70, 0
2, 99076, Control_c, 0, 64, 40
2, 99084, Note_off_c, 0, 51, 0
2, 99088, Note_off_c, 0, 39, 0
2, 99088, Control_c, 0, 64, 88
2, 99100, Control_c, 0, 64, 104
2, 99112, Control_c, 0, 64, 127
2, 99128, Note_off_c, 0, 67, 0
2, 99128, Note_on_c, 0, 65, 80
2, 99204, Note_off_c, 0, 65, 0
2, 99236, Note_on_c, 0, 63, 85
2, 99288, Note_off_c, 0, 63, 0
2, 99292, Control_c, 0, 64, 88
2, 99304, Control_c, 0, 64, 0
2, 99356, Note_on_c, 0, 72, 103
2, 99368, Note_on_c, 0, 60, 93
2, 99368, Note_on_c, 0, 63, 75
2, 99380, Note_on_c, 0, 56, 83
2, 99380, Note_on_c, 0, 51, 84
2, 99384, Note_on_c, 0, 44, 76
2, 99396, Note_off_c, 0, 63, 0
2, 99408, Control_c, 0, 64, 72
2, 99416, Note_off_c, 0, 60, 0
2, 99420, Note_off_c, 0, 56, 0
2, 99420, Control_c, 0, 64, 127
2, 99424, Note_off_c, 0, 51, 0
2, 99440, Note_off_c, 0, 44, 0
2, 99612, Note_off_c, 0, 72, 0
2, 99656, Control_c, 0, 64, 56
2, 99668, Control_c, 0, 64, 0
2, 99696, Note_on_c, 0, 61, 77
2, 99696, Note_on_c, 0, 70, 85
2, 99704, Note_on_c, 0, 64, 73
2, 99712, Note_on_c, 0, 49, 93
2, 99720, Note_on_c, 0, 44, 77
2, 99720, Note_on_c, 0, 37, 73
2, 99748, Note_off_c, 0, 64, 0
2, 99748, Control_c, 0, 64, 104
2, 99752, Note_off_c, 0, 61, 0
2, 99752, Note_off_c, 0, 49, 0
2, 99752, Note_off_c, 0, 44, 0
2, 99752, Note_off_c, 0, 37, 0
2, 99760, Control_c, 0, 64, 127
2, 99772, Note_off_c, 0, 70, 0
2, 99800, Note_on_c, 0, 72, 93
2, 99868, Note_off_c, 0, 72, 0
2, 99888, Control_c, 0, 64, 104
2, 99900, Note_on_c, 0, 70, 86
2, 99900, Control_c, 0, 64, 72
2, 99912, Control_c, 0, 64, 40
2, 99928, Control_c, 0, 64, 0
2, 99976, Note_off_c, 0, 70, 0
2, 100016, Note_on_c, 0, 68, 89
2, 100024, Note_on_c, 0, 60, 81
2, 100032, Note_on_c, 0, 44, 85
2, 100036, Note_on_c, 0, 32, 71
2, 100040, Control_c, 0, 64, 40
2, 100056, Control_c, 0, 64, 127
2, 100072, Note_off_c, 0, 44, 0
2, 100072, Note_off_c, 0, 32, 0
2, 100080, Note_off_c, 0, 60, 0
2, 100120, Note_off_c, 0, 68, 0
2, 100240, Note_on_c, 0, 68, 82
2, 100312, Note_off_c, 0, 68, 0
2, 100324, Control_c, 0, 64, 104
2, 100336, Control_c, 0, 64, 24
2, 100344, Note_on_c, 0, 72, 74
2, 100352, Note_on_c, 0, 65, 77
2, 100352, Control_c, 0, 64, 0
2, 100368, Note_on_c, 0, 49, 64
2, 100432, Note_off_c, 0, 49, 0
2, 100448, Note_off_c, 0, 72, 0
2, 100456, Control_c, 0, 64, 24
2, 100464, Note_on_c, 0, 56, 56
2, 100548, Note_off_c, 0, 56, 0
2, 100568, Note_on_c, 0, 72, 67
2, 100568, Note_on_c, 0, 49, 64
2, 100584, Control_c, 0, 64, 0
2, 100632, Note_off_c, 0, 72, 0
2, 100636, Note_off_c, 0, 49, 0
2, 100648, Note_off_c, 0, 65, 0
2, 100676, Note_on_c, 0, 68, 63
2, 100680, Note_on_c, 0, 63, 75
2, 100688, Note_on_c, 0, 48, 66
2, 100688, Control_c, 0, 64, 40
2, 100700, Control_c, 0, 64, 56
2, 100712, Control_c, 0, 64, 72
2, 100728, Control_c, 0, 64, 88
2, 100740, Control_c, 0, 64, 104
2, 100760, Note_off_c, 0, 48, 0
2, 100760, Control_c, 0, 64, 127
2, 100768, Note_off_c, 0, 68, 0
2, 100780, Note_on_c, 0, 56, 52
2, 100820, Note_off_c, 0, 63, 0
2, 100872, Note_on_c, 0, 68, 67
2, 100888, Note_off_c, 0, 56, 0
2, 100896, Note_on_c, 0, 48, 64
2, 100932, Control_c, 0, 64, 72
2, 100948, Control_c, 0, 64, 0
2, 100972, Note_off_c, 0, 48, 0
2, 100976, Note_off_c, 0, 68, 0
2, 100976, Note_on_c, 0, 49, 65
2, 100984, Note_on_c, 0, 72, 82
2, 101000, Note_on_c, 0, 65, 70
2, 101000, Control_c, 0, 64, 24
2, 101012, Control_c, 0, 64, 56
2, 101024, Control_c, 0, 64, 104
2, 101036, Control_c, 0, 64, 127
2, 101064, Note_off_c, 0, 49, 0
2, 101072, Note_on_c, 0, 56, 62
2, 101092, Note_off_c, 0, 72, 0
2, 101152, Note_off_c, 0, 65, 0
2, 101168, Note_off_c, 0, 56, 0
2, 101176, Note_on_c, 0, 72, 82
2, 101188, Note_on_c, 0, 50, 66
2, 101244, Control_c, 0, 64, 104
2, 101256, Note_off_c, 0, 72, 0
2, 101256, Control_c, 0, 64, 24
2, 101272, Note_off_c, 0, 50, 0
2, 101272, Control_c, 0, 64, 0
2, 101288, Note_on_c, 0, 61, 67
2, 101292, Note_on_c, 0, 70, 74
2, 101308, Note_on_c, 0, 55, 65
2, 101316, Note_on_c, 0, 51, 59
2, 101348, Control_c, 0, 64, 72
2, 101352, Note_off_c, 0, 61, 0
2, 101352, Note_off_c, 0, 55, 0
2, 101356, Control_c, 0, 64, 127
2, 101368, Note_off_c, 0, 51, 0
2, 101388, Note_off_c, 0, 70, 0
2, 101400, Note_on_c, 0, 75, 77
2, 101492, Note_off_c, 0, 75, 0
2, 101496, Note_on_c, 0, 63, 73
2, 101588, Note_off_c, 0, 63, 0
2, 101600, Note_on_c, 0, 75, 83
2, 101608, Note_on_c, 0, 51, 70
2, 101616, Note_on_c, 0, 39, 55
2, 101648, Note_off_c, 0, 51, 0
2, 101672, Note_off_c, 0, 39, 0
2, 101688, Note_off_c, 0, 75, 0
2, 101700, Note_on_c, 0, 63, 69
2, 101796, Note_off_c, 0, 63, 0
2, 101816, Note_on_c, 0, 75, 77
2, 101880, Note_off_c, 0, 75, 0
2, 101888, Control_c, 0, 64, 72
2, 101900, Control_c, 0, 64, 0
2, 101932, Note_on_c, 0, 71, 77
2, 101936, Note_on_c, 0, 39, 64
2, 101936, Note_on_c, 0, 27, 54
2, 101956, Control_c, 0, 64, 72
2, 101960, Note_off_c, 0, 27, 0
2, 101968, Control_c, 0, 64, 127
2, 101976, Note_off_c, 0, 39, 0
2, 102036, Note_on_c, 0, 73, 79
2, 102060, Note_off_c, 0, 71, 0
2, 102132, Note_on_c, 0, 75, 77
2, 102156, Note_off_c, 0, 73, 0
2, 102196, Note_off_c, 0, 75, 0
2, 102232, Note_on_c, 0, 76, 88
2, 102240, Note_on_c, 0, 64, 62
2, 102240, Note_on_c, 0, 51, 60
2, 102240, Note_on_c, 0, 59, 53
2, 102256, Note_on_c, 0, 56, 31
2, 102276, Note_off_c, 0, 64, 0
2, 102280, Note_off_c, 0, 59, 0
2, 102280, Note_off_c, 0, 56, 0
2, 102296, Note_off_c, 0, 51, 0
2, 102304, Note_off_c, 0, 76, 0
2, 102340, Note_on_c, 0, 78, 84
2, 102432, Note_on_c, 0, 80, 74
2, 102472, Note_off_c, 0, 78, 0
2, 102532, Note_on_c, 0, 82, 76
2, 102552, Note_on_c, 0, 64, 74
2, 102556, Note_on_c, 0, 51, 64
2, 102556, Note_on_c, 0, 56, 55
2, 102556, Note_on_c, 0, 59, 58
2, 102584, Note_off_c, 0, 80, 0
2, 102588, Note_off_c, 0, 59, 0
2, 102596, Note_off_c, 0, 82, 0
2, 102604, Note_off_c, 0, 64, 0
2, 102616, Note_off_c, 0, 56, 0
2, 102632, Note_off_c, 0, 51, 0
2, 102632, Note_on_c, 0, 83, 75
2, 102704, Note_off_c, 0, 83, 0
2, 102728, Note_on_c, 0, 85, 81
2, 102808, Note_off_c, 0, 85, 0
2, 102836, Note_on_c, 0, 87, 85
2, 102864, Note_on_c, 0, 64, 77
2, 102864, Note_on_c, 0, 56, 62
2, 102868, Note_on_c, 0, 59, 64
2, 102872, Note_on_c, 0, 51, 49
2, 102896, Note_off_c, 0, 59, 0
2, 102900, Note_off_c, 0, 51, 0
2, 102908, Note_off_c, 0, 87, 0
2, 102908, Note_off_c, 0, 64, 0
2, 102920, Note_off_c, 0, 56, 0
2, 102936, Note_on_c, 0, 88, 83
2, 103032, Note_on_c, 0, 85, 81
2, 103108, Note_off_c, 0, 88, 0
2, 103132, Note_on_c, 0, 83, 85
2, 103136, Note_off_c, 0, 85, 0
2, 103152, Note_on_c, 0, 64, 66
2, 103160, Note_on_c, 0, 56, 55
2, 103160, Note_on_c, 0, 59, 53
2, 103164, Note_on_c, 0, 51, 55
2, 103196, Note_off_c, 0, 83, 0
2, 103196, Note_off_c, 0, 59, 0
2, 103200, Note_off_c, 0, 56, 0
2, 103200, Note_off_c, 0, 51, 0
2, 103220, Note_off_c, 0, 64, 0
2, 103236, Note_on_c, 0, 82, 77
2, 103328, Note_on_c, 0, 80, 77
2, 103340, Note_off_c, 0, 82, 0
2, 103432, Note_on_c, 0, 78, 77
2, 103448, Note_on_c, 0, 64, 64
2, 103452, Note_on_c, 0, 51, 43
2, 103456, Note_on_c, 0, 59, 51
2, 103456, Note_on_c, 0, 56, 42
2, 103496, Note_off_c, 0, 80, 0
2, 103516, Note_on_c, 0, 76, 82
2, 103520, Note_off_c, 0, 64, 0
2, 103524, Note_off_c, 0, 78, 0
2, 103528, Note_off_c, 0, 59, 0
2, 103532, Note_off_c, 0, 56, 0
2, 103548, Note_off_c, 0, 51, 0
2, 103608, Note_on_c, 0, 75, 81
2, 103624, Note_off_c, 0, 76, 0
2, 103704, Note_on_c, 0, 64, 58
2, 103708, Note_on_c, 0, 51, 54
2, 103708, Note_on_c, 0, 59, 56
2, 103708, Note_on_c, 0, 56, 40
2, 103720, Note_on_c, 0, 73, 70
2, 103760, Note_off_c, 0, 59, 0
2, 103776, Note_off_c, 0, 75, 0
2, 103776, Note_off_c, 0, 56, 0
2, 103780, Note_off_c, 0, 64, 0
2, 103808, Note_off_c, 0, 73, 0
2, 103812, Note_on_c, 0, 71, 74
2, 103864, Note_off_c, 0, 51, 0
2, 103900, Note_on_c, 0, 68, 71
2, 103908, Control_c, 0, 64, 88
2, 103920, Control_c, 0, 64, 24
2, 103928, Note_off_c, 0, 71, 0
2, 103932, Control_c, 0, 64, 0
2, 103984, Control_c, 0, 64, 24
2, 103988, Note_off_c, 0, 68, 0
2, 103996, Control_c, 0, 64, 72
2, 104008, Control_c, 0, 64, 127
2, 104008, Note_on_c, 0, 70, 77
2, 104016, Note_on_c, 0, 63, 59
2, 104028, Note_on_c, 0, 58, 42
2, 104028, Note_on_c, 0, 51, 43
2, 104040, Note_off_c, 0, 63, 0
2, 104040, Note_on_c, 0, 55, 52
2, 104048, Note_off_c, 0, 58, 0
2, 104068, Note_off_c, 0, 55, 0
2, 104084, Note_off_c, 0, 51, 0
2, 104116, Note_on_c, 0, 75, 79
2, 104144, Note_off_c, 0, 70, 0
2, 104204, Note_on_c, 0, 63, 74
2, 104240, Note_off_c, 0, 75, 0
2, 104276, Note_off_c, 0, 63, 0
2, 104308, Control_c, 0, 64, 56
2, 104316, Note_on_c, 0, 27, 61
2, 104320, Control_c, 0, 64, 0
2, 104324, Note_on_c, 0, 39, 73
2, 104324, Note_on_c, 0, 64, 85
2, 104356, Note_off_c, 0, 27, 0
2, 104372, Note_off_c, 0, 39, 0
2, 104384, Control_c, 0, 64, 56
2, 104392, Note_off_c, 0, 64, 0
2, 104396, Control_c, 0, 64, 127
2, 104420, Note_on_c, 0, 66, 76
2, 104520, Note_on_c, 0, 68, 73
2, 104552, Note_off_c, 0, 66, 0
2, 104612, Note_on_c, 0, 70, 72
2, 104624, Note_on_c, 0, 51, 61
2, 104636, Note_on_c, 0, 64, 54
2, 104640, Note_on_c, 0, 59, 58
2, 104644, Note_on_c, 0, 56, 42
2, 104648, Note_off_c, 0, 68, 0
2, 104668, Note_off_c, 0, 70, 0
2, 104680, Note_off_c, 0, 59, 0
2, 104684, Note_off_c, 0, 56, 0
2, 104688, Note_off_c, 0, 51, 0
2, 104692, Note_off_c, 0, 64, 0
2, 104712, Note_on_c, 0, 71, 76
2, 104776, Note_off_c, 0, 71, 0
2, 104796, Note_on_c, 0, 73, 81
2, 104892, Note_on_c, 0, 75, 83
2, 104904, Note_off_c, 0, 73, 0
2, 104916, Note_on_c, 0, 64, 77
2, 104920, Note_on_c, 0, 56, 56
2, 104920, Note_on_c, 0, 59, 63
2, 104928, Note_on_c, 0, 51, 52
2, 104952, Note_off_c, 0, 75, 0
2, 104952, Note_off_c, 0, 59, 0
2, 104952, Note_off_c, 0, 51, 0
2, 104968, Note_off_c, 0, 64, 0
2, 104976, Note_off_c, 0, 56, 0
2, 104988, Note_on_c, 0, 76, 88
2, 105064, Note_off_c, 0, 76, 0
2, 105084, Note_on_c, 0, 78, 80
2, 105168, Note_off_c, 0, 78, 0
2, 105192, Note_on_c, 0, 80, 87
2, 105208, Note_on_c, 0, 64, 63
2, 105212, Note_on_c, 0, 56, 50
2, 105212, Note_on_c, 0, 51, 52
2, 105220, Note_on_c, 0, 59, 53
2, 105264, Note_off_c, 0, 56, 0
2, 105272, Note_off_c, 0, 80, 0
2, 105288, Note_on_c, 0, 82, 73
2, 105312, Note_off_c, 0, 51, 0
2, 105320, Note_off_c, 0, 64, 0
2, 105384, Note_off_c, 0, 82, 0
2, 105384, Note_on_c, 0, 83, 92
2, 105388, Note_off_c, 0, 59, 0
2, 105472, Note_off_c, 0, 83, 0
2, 105496, Control_c, 0, 64, 88
2, 105500, Note_on_c, 0, 80, 88
2, 105508, Control_c, 0, 64, 40
2, 105512, Note_on_c, 0, 51, 50
2, 105512, Note_on_c, 0, 64, 57
2, 105520, Note_on_c, 0, 56, 51
2, 105520, Note_on_c, 0, 59, 52
2, 105520, Control_c, 0, 64, 0
2, 105572, Control_c, 0, 64, 24
2, 105576, Note_off_c, 0, 80, 0
2, 105584, Note_off_c, 0, 64, 0
2, 105584, Control_c, 0, 64, 72
2, 105592, Note_on_c, 0, 82, 69
2, 105596, Control_c, 0, 64, 127
2, 105600, Note_off_c, 0, 51, 0
2, 105604, Note_off_c, 0, 59, 0
2, 105608, Note_off_c, 0, 56, 0
2, 105692, Note_off_c, 0, 82, 0
2, 105692, Note_on_c, 0, 80, 84
2, 105780, Note_off_c, 0, 80, 0
2, 105792, Control_c, 0, 64, 88
2, 105800, Note_on_c, 0, 78, 80
2, 105804, Control_c, 0, 64, 72
2, 105824, Note_on_c, 0, 64, 51
2, 105824, Note_on_c, 0, 51, 47
2, 105832, Note_on_c, 0, 56, 37
2, 105832, Note_on_c, 0, 59, 43
2, 105844, Control_c, 0, 64, 104
2, 105856, Control_c, 0, 64, 127
2, 105880, Note_off_c, 0, 78, 0
2, 105892, Note_off_c, 0, 64, 0
2, 105896, Note_on_c, 0, 80, 79
2, 105904, Note_off_c, 0, 56, 0
2, 105912, Note_off_c, 0, 59, 0
2, 105936, Note_off_c, 0, 51, 0
2, 105984, Note_on_c, 0, 78, 82
2, 106036, Control_c, 0, 64, 104
2, 106048, Control_c, 0, 64, 72
2, 106064, Note_off_c, 0, 80, 0
2, 106088, Note_on_c, 0, 76, 79
2, 106092, Note_off_c, 0, 78, 0
2, 106116, Control_c, 0, 64, 127
2, 106116, Note_on_c, 0, 64, 54
2, 106120, Note_on_c, 0, 56, 50
2, 106120, Note_on_c, 0, 51, 49
2, 106180, Note_off_c, 0, 64, 0
2, 106188, Note_on_c, 0, 78, 76
2, 106192, Note_off_c, 0, 76, 0
2, 106192, Note_off_c, 0, 56, 0
2, 106288, Note_off_c, 0, 78, 0
2, 106288, Note_on_c, 0, 76, 80
2, 106332, Note_off_c, 0, 51, 0
2, 106344, Control_c, 0, 64, 104
2, 106356, Control_c, 0, 64, 72
2, 106372, Control_c, 0, 64, 40
2, 106384, Control_c, 0, 64, 24
2, 106392, Note_off_c, 0, 76, 0
2, 106396, Control_c, 0, 64, 0
2, 106408, Note_on_c, 0, 75, 87
2, 106420, Note_on_c, 0, 63, 64
2, 106424, Note_on_c, 0, 51, 59
2, 106432, Note_on_c, 0, 55, 60
2, 106432, Note_on_c, 0, 58, 49
2, 106436, Control_c, 0, 64, 72
2, 106448, Control_c, 0, 64, 127
2, 106456, Note_off_c, 0, 58, 0
2, 106464, Note_off_c, 0, 55, 0
2, 106468, Note_off_c, 0, 63, 0
2, 106480, Note_off_c, 0, 75, 0
2, 106480, Note_off_c, 0, 51, 0
2, 106640, Control_c, 0, 64, 88
2, 106652, Control_c, 0, 64, 56
2, 106668, Control_c, 0, 64, 24
2, 106680, Control_c, 0, 64, 0
2, 106728, Note_on_c, 0, 76, 94
2, 106740, Note_on_c, 0, 27, 70
2, 106744, Note_on_c, 0, 39, 86
2, 106772, Control_c, 0, 64, 40
2, 106776, Note_off_c, 0, 27, 0
2, 106784, Control_c, 0, 64, 104
2, 106792, Note_off_c, 0, 39, 0
2, 106796, Control_c, 0, 64, 127
2, 106976, Note_off_c, 0, 76, 0
2, 107016, Note_on_c, 0, 78, 81
2, 107044, Note_on_c, 0, 64, 53
2, 107044, Note_on_c, 0, 51, 43
2, 107044, Note_on_c, 0, 59, 58
2, 107104, Note_off_c, 0, 64, 0
2, 107104, Note_off_c, 0, 51, 0
2, 107116, Note_off_c, 0, 78, 0
2, 107116, Note_on_c, 0, 80, 85
2, 107136, Note_off_c, 0, 59, 0
2, 107208, Note_on_c, 0, 82, 75
2, 107256, Note_off_c, 0, 80, 0
2, 107272, Note_off_c, 0, 82, 0
2, 107300, Note_on_c, 0, 64, 64
2, 107304, Note_on_c, 0, 59, 51
2, 107304, Note_on_c, 0, 51, 55
2, 107304, Note_on_c, 0, 56, 53
2, 107312, Note_on_c, 0, 83, 88
2, 107372, Note_off_c, 0, 56, 0
2, 107380, Note_off_c, 0, 51, 0
2, 107384, Note_off_c, 0, 83, 0
2, 107388, Note_off_c, 0, 64, 0
2, 107400, Note_on_c, 0, 85, 83
2, 107416, Note_off_c, 0, 59, 0
2, 107496, Note_on_c, 0, 87, 82
2, 107528, Note_off_c, 0, 85, 0
2, 107564, Note_off_c, 0, 87, 0
2, 107600, Note_on_c, 0, 88, 87
2, 107608, Note_on_c, 0, 64, 55
2, 107612, Note_on_c, 0, 59, 50
2, 107620, Note_on_c, 0, 56, 53
2, 107620, Note_on_c, 0, 51, 54
2, 107664, Note_off_c, 0, 56, 0
2, 107680, Note_off_c, 0, 88, 0
2, 107692, Note_on_c, 0, 90, 84
2, 107732, Note_off_c, 0, 64, 0
2, 107748, Note_off_c, 0, 51, 0
2, 107752, Note_off_c, 0, 59, 0
2, 107784, Note_off_c, 0, 90, 0
2, 107784, Note_on_c, 0, 92, 90
2, 107872, Note_off_c, 0, 92, 0
2, 107884, Note_on_c, 0, 90, 82
2, 107920, Note_on_c, 0, 64, 58
2, 107924, Note_on_c, 0, 51, 51
2, 107924, Note_on_c, 0, 56, 50
2, 107928, Note_on_c, 0, 59, 48
2, 107984, Note_on_c, 0, 92, 77
2, 108004, Note_off_c, 0, 64, 0
2, 108008, Note_off_c, 0, 90, 0
2, 108024, Note_off_c, 0, 56, 0
2, 108028, Note_off_c, 0, 51, 0
2, 108048, Note_off_c, 0, 59, 0
2, 108076, Note_on_c, 0, 88, 81
2, 108084, Note_off_c, 0, 92, 0
2, 108152, Note_off_c, 0, 88, 0
2, 108184, Note_on_c, 0, 64, 49
2, 108188, Note_on_c, 0, 87, 85
2, 108188, Note_on_c, 0, 56, 31
2, 108196, Note_on_c, 0, 51, 23
2, 108196, Note_on_c, 0, 59, 31
2, 108252, Note_off_c, 0, 87, 0
2, 108276, Note_off_c, 0, 64, 0
2, 108276, Note_off_c, 0, 56, 0
2, 108280, Note_on_c, 0, 88, 85
2, 108300, Note_off_c, 0, 51, 0
2, 108308, Note_off_c, 0, 59, 0
2, 108380, Note_on_c, 0, 85, 84
2, 108424, Note_off_c, 0, 88, 0
2, 108468, Note_on_c, 0, 59, 44
2, 108468, Note_on_c, 0, 64, 43
2, 108472, Note_off_c, 0, 85, 0
2, 108472, Note_on_c, 0, 56, 55
2, 108480, Note_on_c, 0, 83, 83
2, 108488, Note_on_c, 0, 51, 51
2, 108548, Note_off_c, 0, 56, 0
2, 108552, Note_off_c, 0, 59, 0
2, 108568, Note_off_c, 0, 64, 0
2, 108584, Note_on_c, 0, 85, 73
2, 108588, Note_off_c, 0, 83, 0
2, 108676, Note_on_c, 0, 83, 80
2, 108684, Note_off_c, 0, 85, 0
2, 108712, Note_off_c, 0, 51, 0
2, 108720, Control_c, 0, 64, 72
2, 108732, Control_c, 0, 64, 40
2, 108744, Control_c, 0, 64, 0
2, 108760, Note_off_c, 0, 83, 0
2, 108784, Note_on_c, 0, 82, 79
2, 108784, Note_on_c, 0, 63, 60
2, 108788, Control_c, 0, 64, 40
2, 108796, Note_on_c, 0, 58, 46
2, 108800, Control_c, 0, 64, 88
2, 108804, Note_on_c, 0, 51, 35
2, 108812, Control_c, 0, 64, 127
2, 108812, Note_on_c, 0, 55, 34
2, 108824, Note_off_c, 0, 58, 0
2, 108832, Note_off_c, 0, 63, 0
2, 108844, Note_off_c, 0, 55, 0
2, 108868, Note_off_c, 0, 51, 0
2, 108872, Note_off_c, 0, 82, 0
2, 108888, Note_on_c, 0, 87, 80
2, 108984, Note_off_c, 0, 87, 0
2, 108992, Note_on_c, 0, 75, 84
2, 109056, Control_c, 0, 64, 56
2, 109060, Note_off_c, 0, 75, 0
2, 109068, Control_c, 0, 64, 0
2, 109092, Note_on_c, 0, 82, 83
2, 109096, Note_on_c, 0, 39, 69
2, 109104, Note_on_c, 0, 27, 52
2, 109124, Control_c, 0, 64, 56
2, 109128, Note_off_c, 0, 39, 0
2, 109128, Note_off_c, 0, 27, 0
2, 109136, Control_c, 0, 64, 127
2, 109176, Note_off_c, 0, 82, 0
2, 109196, Note_on_c, 0, 80, 80
2, 109296, Note_on_c, 0, 78, 81
2, 109328, Note_off_c, 0, 80, 0
2, 109364, Note_off_c, 0, 78, 0
2, 109392, Control_c, 0, 64, 104
2, 109396, Note_on_c, 0, 80, 85
2, 109404, Control_c, 0, 64, 127
2, 109408, Note_on_c, 0, 64, 70
2, 109416, Note_on_c, 0, 51, 53
2, 109416, Note_on_c, 0, 59, 58
2, 109416, Note_on_c, 0, 56, 43
2, 109444, Note_off_c, 0, 51, 0
2, 109464, Note_off_c, 0, 64, 0
2, 109464, Note_off_c, 0, 59, 0
2, 109464, Note_off_c, 0, 56, 0
2, 109480, Note_off_c, 0, 80, 0
2, 109488, Note_on_c, 0, 78, 80
2, 109576, Note_off_c, 0, 78, 0
2, 109592, Note_on_c, 0, 76, 84
2, 109664, Note_off_c, 0, 76, 0
2, 109700, Note_on_c, 0, 78, 79
2, 109720, Note_on_c, 0, 64, 59
2, 109720, Note_on_c, 0, 56, 53
2, 109720, Note_on_c, 0, 51, 49
2, 109720, Note_on_c, 0, 59, 50
2, 109776, Note_off_c, 0, 78, 0
2, 109776, Note_off_c, 0, 64, 0
2, 109788, Note_off_c, 0, 56, 0
2, 109808, Note_on_c, 0, 76, 89
2, 109816, Note_off_c, 0, 59, 0
2, 109820, Note_off_c, 0, 51, 0
2, 109880, Note_off_c, 0, 76, 0
2, 109904, Note_on_c, 0, 75, 84
2, 109972, Note_off_c, 0, 75, 0
2, 110004, Note_on_c, 0, 76, 89
2, 110008, Note_on_c, 0, 56, 48
2, 110012, Note_on_c, 0, 64, 53
2, 110020, Note_on_c, 0, 51, 49
2, 110024, Note_on_c, 0, 59, 48
2, 110056, Note_off_c, 0, 59, 0
2, 110072, Note_off_c, 0, 64, 0
2, 110076, Note_off_c, 0, 56, 0
2, 110084, Note_off_c, 0, 76, 0
2, 110096, Note_on_c, 0, 75, 77
2, 110112, Note_off_c, 0, 51, 0
2, 110188, Note_on_c, 0, 73, 73
2, 110288, Note_off_c, 0, 75, 0
2, 110296, Control_c, 0, 64, 88
2, 110296, Note_on_c, 0, 72, 88
2, 110308, Note_off_c, 0, 73, 0
2, 110312, Control_c, 0, 64, 56
2, 110320, Note_on_c, 0, 63, 61
2, 110324, Control_c, 0, 64, 24
2, 110328, Note_on_c, 0, 51, 45
2, 110328, Note_on_c, 0, 55, 61
2, 110328, Note_on_c, 0, 61, 49
2, 110336, Control_c, 0, 64, 0
2, 110368, Note_off_c, 0, 72, 0
2, 110400, Note_on_c, 0, 71, 75
2, 110508, Note_on_c, 0, 70, 69
2, 110548, Note_off_c, 0, 71, 0
2, 110596, Note_off_c, 0, 70, 0
2, 110600, Note_on_c, 0, 69, 83
2, 110688, Note_off_c, 0, 69, 0
2, 110700, Note_on_c, 0, 68, 68
2, 110788, Note_off_c, 0, 51, 0
2, 110788, Note_off_c, 0, 55, 0
2, 110796, Note_off_c, 0, 61, 0
2, 110800, Note_off_c, 0, 68, 0
2, 110808, Note_off_c, 0, 63, 0
2, 110808, Note_on_c, 0, 67, 81
2, 110904, Note_off_c, 0, 67, 0
2, 110904, Note_on_c, 0, 66, 78
2, 110996, Note_off_c, 0, 66, 0
2, 111000, Note_on_c, 0, 65, 79
2, 111088, Note_off_c, 0, 65, 0
2, 111088, Note_on_c, 0, 64, 81
2, 111208, Note_on_c, 0, 63, 70
2, 111228, Note_off_c, 0, 64, 0
2, 111304, Note_off_c, 0, 63, 0
2, 111304, Note_on_c, 0, 62, 73
2, 111396, Note_off_c, 0, 62, 0
2, 111416, Note_on_c, 0, 61, 70
2, 111504, Note_off_c, 0, 61, 0
2, 111524, Note_on_c, 0, 60, 83
2, 111548, Note_on_c, 0, 44, 49
2, 111632, Note_on_c, 0, 61, 69
2, 111652, Note_off_c, 0, 44, 0
2, 111656, Note_on_c, 0, 56, 50
2, 111700, Note_off_c, 0, 61, 0
2, 111732, Note_off_c, 0, 56, 0
2, 111736, Note_on_c, 0, 62, 70
2, 111744, Note_on_c, 0, 51, 49
2, 111828, Note_off_c, 0, 62, 0
2, 111832, Note_on_c, 0, 63, 72
2, 111852, Note_off_c, 0, 51, 0
2, 111852, Note_on_c, 0, 44, 48
2, 111932, Note_off_c, 0, 63, 0
2, 111940, Note_on_c, 0, 67, 75
2, 111944, Note_on_c, 0, 56, 50
2, 111960, Note_off_c, 0, 44, 0
2, 112032, Note_on_c, 0, 65, 70
2, 112044, Note_off_c, 0, 60, 0
2, 112044, Note_off_c, 0, 56, 0
2, 112056, Note_off_c, 0, 67, 0
2, 112064, Note_on_c, 0, 51, 48
2, 112136, Note_off_c, 0, 65, 0
2, 112140, Note_on_c, 0, 63, 72
2, 112152, Note_on_c, 0, 58, 64
2, 112152, Note_on_c, 0, 43, 62
2, 112156, Note_off_c, 0, 51, 0
2, 112196, Note_off_c, 0, 58, 0
2, 112200, Note_off_c, 0, 63, 0
2, 112232, Note_off_c, 0, 43, 0
2, 112244, Note_on_c, 0, 55, 48
2, 112324, Note_off_c, 0, 55, 0
2, 112348, Note_on_c, 0, 58, 65
2, 112360, Note_on_c, 0, 51, 55
2, 112360, Note_on_c, 0, 63, 62
2, 112408, Note_off_c, 0, 58, 0
2, 112420, Note_off_c, 0, 51, 0
2, 112444, Note_on_c, 0, 68, 77
2, 112452, Note_on_c, 0, 61, 80
2, 112464, Note_on_c, 0, 41, 66
2, 112472, Note_off_c, 0, 63, 0
2, 112508, Note_off_c, 0, 68, 0
2, 112528, Note_off_c, 0, 41, 0
2, 112576, Note_on_c, 0, 53, 49
2, 112644, Note_off_c, 0, 61, 0
2, 112648, Note_on_c, 0, 49, 51
2, 112656, Note_off_c, 0, 53, 0
2, 112660, Note_on_c, 0, 68, 73
2, 112680, Note_on_c, 0, 61, 56
2, 112724, Note_off_c, 0, 49, 0
2, 112732, Note_off_c, 0, 68, 0
2, 112732, Note_off_c, 0, 61, 0
2, 112760, Note_on_c, 0, 40, 62
2, 112764, Note_on_c, 0, 55, 76
2, 112832, Note_off_c, 0, 55, 0
2, 112840, Note_off_c, 0, 40, 0
2, 112852, Note_on_c, 0, 52, 60
2, 112932, Note_off_c, 0, 52, 0
2, 112932, Control_c, 0, 64, 24
2, 112976, Note_on_c, 0, 55, 70
2, 112992, Note_on_c, 0, 49, 53
2, 113020, Control_c, 0, 64, 0
2, 113028, Note_off_c, 0, 55, 0
2, 113040, Note_off_c, 0, 49, 0
2, 113072, Note_on_c, 0, 67, 80
2, 113072, Note_on_c, 0, 40, 62
2, 113080, Note_on_c, 0, 60, 77
2, 113112, Control_c, 0, 64, 40
2, 113124, Control_c, 0, 64, 72
2, 113136, Control_c, 0, 64, 88
2, 113144, Note_off_c, 0, 67, 0
2, 113160, Note_off_c, 0, 40, 0
2, 113204, Note_on_c, 0, 52, 50
2, 113264, Note_off_c, 0, 52, 0
2, 113272, Note_off_c, 0, 60, 0
2, 113272, Note_on_c, 0, 67, 79
2, 113276, Note_on_c, 0, 48, 53
2, 113304, Note_on_c, 0, 60, 48
2, 113304, Control_c, 0, 64, 0
2, 113336, Note_off_c, 0, 60, 0
2, 113340, Note_off_c, 0, 67, 0
2, 113340, Note_off_c, 0, 48, 0
2, 113368, Note_on_c, 0, 54, 78
2, 113380, Note_on_c, 0, 39, 51
2, 113420, Control_c, 0, 64, 40
2, 113452, Note_off_c, 0, 54, 0
2, 113452, Note_off_c, 0, 39, 0
2, 113468, Note_on_c, 0, 51, 57
2, 113484, Control_c, 0, 64, 24
2, 113528, Note_off_c, 0, 51, 0
2, 113576, Note_on_c, 0, 54, 60
2, 113600, Control_c, 0, 64, 0
2, 113604, Note_on_c, 0, 47, 51
2, 113640, Note_off_c, 0, 54, 0
2, 113680, Note_on_c, 0, 66, 72
2, 113688, Note_off_c, 0, 47, 0
2, 113688, Note_on_c, 0, 59, 74
2, 113692, Control_c, 0, 64, 24
2, 113692, Note_on_c, 0, 39, 53
2, 113704, Control_c, 0, 64, 40
2, 113720, Control_c, 0, 64, 56
2, 113732, Control_c, 0, 64, 72
2, 113772, Note_off_c, 0, 66, 0
2, 113784, Note_on_c, 0, 51, 55
2, 113796, Note_off_c, 0, 39, 0
2, 113804, Control_c, 0, 64, 88
2, 113880, Note_off_c, 0, 59, 0
2, 113892, Note_off_c, 0, 51, 0
2, 113892, Note_on_c, 0, 66, 70
2, 113896, Note_on_c, 0, 47, 52
2, 113924, Control_c, 0, 64, 40
2, 113932, Control_c, 0, 64, 0
2, 113948, Note_off_c, 0, 66, 0
2, 113968, Note_off_c, 0, 47, 0
2, 113996, Note_on_c, 0, 65, 83
2, 113996, Note_on_c, 0, 39, 62
2, 113996, Note_on_c, 0, 53, 68
2, 114000, Control_c, 0, 64, 24
2, 114012, Control_c, 0, 64, 56
2, 114024, Note_off_c, 0, 53, 0
2, 114024, Control_c, 0, 64, 72
2, 114040, Control_c, 0, 64, 88
2, 114064, Note_off_c, 0, 65, 0
2, 114072, Note_off_c, 0, 39, 0
2, 114088, Note_on_c, 0, 51, 60
2, 114092, Note_on_c, 0, 55, 78
2, 114104, Note_on_c, 0, 65, 37
2, 114156, Note_off_c, 0, 51, 0
2, 114164, Note_off_c, 0, 55, 0
2, 114184, Control_c, 0, 64, 40
2, 114188, Note_on_c, 0, 57, 73
2, 114196, Control_c, 0, 64, 0
2, 114220, Note_on_c, 0, 41, 67
2, 114264, Note_off_c, 0, 65, 0
2, 114272, Control_c, 0, 64, 24
2, 114284, Control_c, 0, 64, 56
2, 114296, Note_off_c, 0, 57, 0
2, 114296, Note_on_c, 0, 58, 73
2, 114296, Note_on_c, 0, 37, 67
2, 114296, Control_c, 0, 64, 72
2, 114380, Note_off_c, 0, 58, 0
2, 114392, Note_on_c, 0, 60, 82
2, 114392, Note_on_c, 0, 49, 55
2, 114396, Note_off_c, 0, 41, 0
2, 114408, Note_off_c, 0, 37, 0
2, 114488, Note_on_c, 0, 41, 50
2, 114492, Note_on_c, 0, 61, 71
2, 114492, Control_c, 0, 64, 56
2, 114516, Note_off_c, 0, 60, 0
2, 114516, Note_off_c, 0, 49, 0
2, 114584, Note_off_c, 0, 61, 0
2, 114584, Control_c, 0, 64, 40
2, 114592, Note_on_c, 0, 36, 51
2, 114600, Note_on_c, 0, 63, 77
2, 114604, Note_off_c, 0, 41, 0
2, 114620, Control_c, 0, 64, 24
2, 114648, Control_c, 0, 64, 0
2, 114664, Note_off_c, 0, 63, 0
2, 114708, Note_on_c, 0, 48, 70
2, 114760, Note_off_c, 0, 36, 0
2, 114808, Note_on_c, 0, 41, 49
2, 114820, Note_on_c, 0, 65, 84
2, 114820, Note_on_c, 0, 63, 66
2, 114824, Note_off_c, 0, 48, 0
2, 114876, Note_off_c, 0, 63, 0
2, 114896, Note_off_c, 0, 65, 0
2, 114900, Note_off_c, 0, 41, 0
2, 114916, Note_on_c, 0, 73, 86
2, 114920, Note_on_c, 0, 70, 77
2, 114932, Note_on_c, 0, 34, 65
2, 114968, Note_off_c, 0, 70, 0
2, 114972, Note_off_c, 0, 73, 0
2, 115004, Note_on_c, 0, 46, 58
2, 115124, Note_on_c, 0, 73, 83
2, 115144, Note_on_c, 0, 70, 51
2, 115148, Note_off_c, 0, 34, 0
2, 115152, Note_on_c, 0, 41, 50
2, 115196, Note_off_c, 0, 70, 0
2, 115208, Note_off_c, 0, 46, 0
2, 115216, Note_off_c, 0, 73, 0
2, 115216, Note_on_c, 0, 61, 70
2, 115220, Note_on_c, 0, 39, 50
2, 115228, Note_off_c, 0, 41, 0
2, 115228, Note_on_c, 0, 63, 69
2, 115272, Note_off_c, 0, 61, 0
2, 115276, Note_off_c, 0, 39, 0
2, 115316, Note_off_c, 0, 63, 0
2, 115340, Note_on_c, 0, 55, 56
2, 115412, Note_off_c, 0, 55, 0
2, 115420, Note_on_c, 0, 63, 78
2, 115428, Note_on_c, 0, 61, 57
2, 115428, Note_on_c, 0, 51, 70
2, 115468, Note_off_c, 0, 51, 0
2, 115488, Note_off_c, 0, 61, 0
2, 115508, Note_off_c, 0, 63, 0
2, 115528, Note_on_c, 0, 72, 87
2, 115528, Note_on_c, 0, 39, 68
2, 115528, Note_on_c, 0, 68, 64
2, 115576, Note_off_c, 0, 39, 0
2, 115580, Note_off_c, 0, 68, 0
2, 115600, Note_off_c, 0, 72, 0
2, 115628, Note_on_c, 0, 56, 53
2, 115712, Note_off_c, 0, 56, 0
2, 115736, Note_on_c, 0, 72, 88
2, 115740, Note_on_c, 0, 51, 43
2, 115768, Note_off_c, 0, 51, 0
2, 115812, Note_off_c, 0, 72, 0
2, 115836, Note_on_c, 0, 70, 75
2, 115836, Note_on_c, 0, 39, 64
2, 115840, Note_on_c, 0, 61, 67
2, 115884, Note_off_c, 0, 39, 0
2, 115920, Note_off_c, 0, 61, 0
2, 115928, Note_off_c, 0, 70, 0
2, 115940, Note_on_c, 0, 55, 56
2, 116036, Note_off_c, 0, 55, 0
2, 116056, Note_on_c, 0, 70, 76
2, 116068, Note_on_c, 0, 51, 54
2, 116136, Note_off_c, 0, 70, 0
2, 116156, Note_on_c, 0, 68, 74
2, 116168, Note_on_c, 0, 60, 68
2, 116184, Note_off_c, 0, 51, 0
2, 116184, Note_on_c, 0, 44, 49
2, 116200, Note_off_c, 0, 60, 0
2, 116244, Note_off_c, 0, 68, 0
2, 116260, Note_on_c, 0, 56, 55
2, 116296, Note_off_c, 0, 44, 0
2, 116340, Note_off_c, 0, 56, 0
2, 116376, Note_on_c, 0, 68, 73
2, 116376, Note_on_c, 0, 51, 45
2, 116460, Note_off_c, 0, 68, 0
2, 116472, Note_off_c, 0, 51, 0
2, 116476, Note_on_c, 0, 60, 74
2, 116496, Note_on_c, 0, 44, 54
2, 116520, Control_c, 0, 64, 40
2, 116532, Control_c, 0, 64, 72
2, 116572, Note_on_c, 0, 56, 39
2, 116584, Note_on_c, 0, 61, 74
2, 116584, Control_c, 0, 64, 24
2, 116588, Note_off_c, 0, 44, 0
2, 116596, Control_c, 0, 64, 0
2, 116648, Note_off_c, 0, 61, 0
2, 116652, Note_off_c, 0, 56, 0
2, 116664, Note_on_c, 0, 51, 36
2, 116676, Note_on_c, 0, 62, 66
2, 116740, Control_c, 0, 64, 72
2, 116752, Control_c, 0, 64, 104
2, 116760, Note_off_c, 0, 62, 0
2, 116760, Control_c, 0, 64, 88
2, 116776, Note_on_c, 0, 63, 71
2, 116776, Control_c, 0, 64, 56
2, 116780, Note_on_c, 0, 44, 51
2, 116788, Note_off_c, 0, 51, 0
2, 116788, Control_c, 0, 64, 24
2, 116800, Control_c, 0, 64, 0
2, 116872, Note_off_c, 0, 63, 0
2, 116872, Note_off_c, 0, 44, 0
2, 116872, Note_on_c, 0, 56, 32
2, 116872, Note_on_c, 0, 67, 70
2, 116880, Control_c, 0, 64, 24
2, 116932, Control_c, 0, 64, 0
2, 116948, Note_off_c, 0, 60, 0
2, 116952, Note_on_c, 0, 51, 47
2, 116968, Note_off_c, 0, 56, 0
2, 116968, Note_off_c, 0, 67, 0
2, 116968, Note_on_c, 0, 65, 60
2, 117064, Note_off_c, 0, 65, 0
2, 117064, Note_on_c, 0, 43, 63
2, 117064, Note_on_c, 0, 63, 65
2, 117072, Note_on_c, 0, 58, 60
2, 117076, Note_off_c, 0, 51, 0
2, 117128, Note_off_c, 0, 63, 0
2, 117128, Note_off_c, 0, 58, 0
2, 117164, Note_on_c, 0, 55, 47
2, 117176, Note_off_c, 0, 43, 0
2, 117224, Note_off_c, 0, 55, 0
2, 117224, Control_c, 0, 64, 56
2, 117240, Control_c, 0, 64, 88
2, 117252, Control_c, 0, 64, 127
2, 117272, Note_on_c, 0, 51, 54
2, 117276, Note_on_c, 0, 63, 67
2, 117344, Control_c, 0, 64, 40
2, 117352, Note_off_c, 0, 63, 0
2, 117356, Control_c, 0, 64, 0
2, 117360, Note_off_c, 0, 51, 0
2, 117368, Note_on_c, 0, 68, 79
2, 117376, Note_on_c, 0, 61, 71
2, 117400, Note_on_c, 0, 41, 49
2, 117436, Control_c, 0, 64, 56
2, 117448, Control_c, 0, 64, 104
2, 117464, Note_off_c, 0, 68, 0
2, 117464, Control_c, 0, 64, 127
2, 117468, Note_off_c, 0, 41, 0
2, 117476, Note_off_c, 0, 61, 0
2, 117480, Note_on_c, 0, 53, 57
2, 117544, Note_off_c, 0, 53, 0
2, 117580, Note_on_c, 0, 49, 55
2, 117584, Note_on_c, 0, 68, 71
2, 117596, Note_on_c, 0, 61, 57
2, 117640, Control_c, 0, 64, 56
2, 117656, Control_c, 0, 64, 0
2, 117660, Note_off_c, 0, 49, 0
2, 117668, Note_off_c, 0, 68, 0
2, 117684, Note_on_c, 0, 55, 80
2, 117684, Note_on_c, 0, 40, 53
2, 117720, Control_c, 0, 64, 40
2, 117732, Control_c, 0, 64, 88
2, 117744, Control_c, 0, 64, 127
2, 117768, Note_off_c, 0, 55, 0
2, 117768, Note_off_c, 0, 40, 0
2, 117768, Note_on_c, 0, 52, 50
2, 117796, Note_off_c, 0, 61, 0
2, 117808, Note_off_c, 0, 52, 0
2, 117892, Note_on_c, 0, 55, 75
2, 117892, Note_on_c, 0, 49, 49
2, 117948, Note_off_c, 0, 55, 0
2, 117948, Note_off_c, 0, 49, 0
2, 117964, Control_c, 0, 64, 72
2, 117976, Control_c, 0, 64, 0
2, 117996, Note_on_c, 0, 60, 78
2, 118000, Note_on_c, 0, 40, 63
2, 118000, Note_on_c, 0, 67, 82
2, 118056, Control_c, 0, 64, 40
2, 118068, Control_c, 0, 64, 88
2, 118080, Control_c, 0, 64, 127
2, 118080, Note_on_c, 0, 52, 66
2, 118088, Note_off_c, 0, 67, 0
2, 118096, Note_off_c, 0, 40, 0
2, 118136, Note_off_c, 0, 60, 0
2, 118152, Note_off_c, 0, 52, 0
2, 118212, Note_on_c, 0, 67, 78
2, 118224, Note_on_c, 0, 48, 44
2, 118232, Note_on_c, 0, 60, 60
2, 118260, Note_off_c, 0, 48, 0
2, 118276, Control_c, 0, 64, 104
2, 118288, Control_c, 0, 64, 40
2, 118296, Control_c, 0, 64, 0
2, 118316, Note_on_c, 0, 54, 69
2, 118316, Note_on_c, 0, 39, 54
2, 118364, Control_c, 0, 64, 40
2, 118376, Control_c, 0, 64, 88
2, 118392, Control_c, 0, 64, 127
2, 118404, Note_off_c, 0, 67, 0
2, 118404, Note_on_c, 0, 51, 53
2, 118408, Note_off_c, 0, 60, 0
2, 118408, Note_off_c, 0, 54, 0
2, 118416, Note_off_c, 0, 39, 0
2, 118456, Note_off_c, 0, 51, 0
2, 118520, Note_on_c, 0, 47, 50
2, 118520, Note_on_c, 0, 54, 67
2, 118584, Note_off_c, 0, 54, 0
2, 118588, Note_off_c, 0, 47, 0
2, 118596, Control_c, 0, 64, 40
2, 118608, Control_c, 0, 64, 0
2, 118620, Note_on_c, 0, 39, 56
2, 118632, Note_on_c, 0, 66, 77
2, 118636, Note_on_c, 0, 59, 79
2, 118696, Note_on_c, 0, 51, 57
2, 118700, Control_c, 0, 64, 56
2, 118712, Control_c, 0, 64, 104
2, 118728, Note_off_c, 0, 66, 0
2, 118728, Control_c, 0, 64, 127
2, 118736, Note_off_c, 0, 59, 0
2, 118748, Note_off_c, 0, 39, 0
2, 118776, Note_off_c, 0, 51, 0
2, 118820, Note_on_c, 0, 47, 48
2, 118840, Note_on_c, 0, 66, 69
2, 118888, Note_off_c, 0, 66, 0
2, 118908, Note_off_c, 0, 47, 0
2, 118936, Control_c, 0, 64, 88
2, 118936, Note_on_c, 0, 39, 53
2, 118948, Control_c, 0, 64, 56
2, 118952, Note_on_c, 0, 65, 84
2, 118960, Control_c, 0, 64, 24
2, 118960, Note_on_c, 0, 53, 66
2, 118972, Control_c, 0, 64, 0
2, 118984, Note_off_c, 0, 53, 0
2, 119012, Note_on_c, 0, 51, 61
2, 119048, Note_off_c, 0, 39, 0
2, 119052, Note_on_c, 0, 55, 78
2, 119112, Note_off_c, 0, 51, 0
2, 119120, Note_off_c, 0, 55, 0
2, 119144, Note_on_c, 0, 57, 82
2, 119196, Note_on_c, 0, 41, 48
2, 119224, Note_on_c, 0, 37, 50
2, 119228, Note_off_c, 0, 41, 0
2, 119244, Note_off_c, 0, 57, 0
2, 119248, Note_on_c, 0, 58, 84
2, 119324, Note_off_c, 0, 58, 0
2, 119344, Note_on_c, 0, 60, 86
2, 119344, Note_on_c, 0, 49, 60
2, 119384, Note_off_c, 0, 37, 0
2, 119440, Note_on_c, 0, 61, 76
2, 119448, Note_off_c, 0, 49, 0
2, 119464, Note_on_c, 0, 41, 50
2, 119480, Note_off_c, 0, 60, 0
2, 119516, Note_off_c, 0, 61, 0
2, 119532, Note_on_c, 0, 63, 72
2, 119556, Note_off_c, 0, 41, 0
2, 119576, Note_on_c, 0, 36, 59
2, 119592, Note_off_c, 0, 65, 0
2, 119612, Note_off_c, 0, 63, 0
2, 119648, Note_on_c, 0, 48, 67
2, 119740, Note_off_c, 0, 36, 0
2, 119740, Note_off_c, 0, 48, 0
2, 119756, Note_on_c, 0, 65, 87
2, 119756, Note_on_c, 0, 63, 69
2, 119764, Note_on_c, 0, 41, 48
2, 119816, Note_off_c, 0, 63, 0
2, 119836, Note_off_c, 0, 41, 0
2, 119836, Note_off_c, 0, 65, 0
2, 119848, Note_on_c, 0, 73, 88
2, 119856, Note_on_c, 0, 70, 78
2, 119876, Note_on_c, 0, 34, 70
2, 119920, Note_off_c, 0, 73, 0
2, 119920, Note_off_c, 0, 70, 0
2, 119956, Note_on_c, 0, 46, 54
2, 120024, Note_off_c, 0, 34, 0
2, 120064, Note_on_c, 0, 73, 81
2, 120076, Note_on_c, 0, 70, 61
2, 120088, Note_on_c, 0, 41, 47
2, 120144, Note_off_c, 0, 73, 0
2, 120144, Note_off_c, 0, 70, 0
2, 120152, Note_off_c, 0, 46, 0
2, 120164, Note_on_c, 0, 39, 51
2, 120164, Note_on_c, 0, 61, 75
2, 120168, Note_on_c, 0, 63, 77
2, 120172, Note_off_c, 0, 41, 0
2, 120216, Note_off_c, 0, 39, 0
2, 120232, Note_off_c, 0, 61, 0
2, 120264, Note_off_c, 0, 63, 0
2, 120280, Note_on_c, 0, 55, 66
2, 120344, Note_off_c, 0, 55, 0
2, 120376, Note_on_c, 0, 63, 74
2, 120376, Note_on_c, 0, 51, 63
2, 120376, Note_on_c, 0, 61, 52
2, 120404, Note_off_c, 0, 51, 0
2, 120432, Note_off_c, 0, 61, 0
2, 120456, Note_off_c, 0, 63, 0
2, 120472, Note_on_c, 0, 39, 58
2, 120476, Note_on_c, 0, 72, 88
2, 120488, Note_on_c, 0, 68, 60
2, 120516, Note_off_c, 0, 39, 0
2, 120536, Note_off_c, 0, 68, 0
2, 120552, Note_off_c, 0, 72, 0
2, 120584, Note_on_c, 0, 56, 44
2, 120680, Note_on_c, 0, 51, 63
2, 120680, Note_on_c, 0, 72, 81
2, 120692, Note_off_c, 0, 56, 0
2, 120740, Note_off_c, 0, 51, 0
2, 120756, Note_off_c, 0, 72, 0
2, 120788, Note_on_c, 0, 70, 75
2, 120792, Note_on_c, 0, 61, 64
2, 120792, Note_on_c, 0, 39, 64
2, 120840, Note_off_c, 0, 39, 0
2, 120884, Note_off_c, 0, 61, 0
2, 120888, Note_off_c, 0, 70, 0
2, 120888, Note_on_c, 0, 55, 67
2, 120964, Note_off_c, 0, 55, 0
2, 120988, Note_on_c, 0, 70, 73
2, 121008, Note_on_c, 0, 51, 55
2, 121064, Note_off_c, 0, 70, 0
2, 121100, Note_on_c, 0, 68, 80
2, 121104, Note_off_c, 0, 51, 0
2, 121108, Note_on_c, 0, 44, 59
2, 121112, Note_on_c, 0, 60, 67
2, 121140, Note_off_c, 0, 60, 0
2, 121188, Note_off_c, 0, 68, 0
2, 121200, Note_on_c, 0, 56, 44
2, 121248, Note_off_c, 0, 44, 0
2, 121272, Note_off_c, 0, 56, 0
2, 121276, Note_on_c, 0, 51, 55
2, 121304, Note_off_c, 0, 51, 0
2, 121304, Note_on_c, 0, 68, 80
2, 121372, Note_off_c, 0, 68, 0
2, 121432, Note_on_c, 0, 75, 100
2, 121436, Note_on_c, 0, 63, 92
2, 121444, Note_on_c, 0, 39, 71
2, 121448, Note_on_c, 0, 51, 86
2, 121488, Note_off_c, 0, 63, 0
2, 121488, Control_c, 0, 64, 72
2, 121500, Control_c, 0, 64, 127
2, 121512, Note_off_c, 0, 51, 0
2, 121520, Note_off_c, 0, 39, 0
2, 121736, Note_on_c, 0, 73, 77
2, 121736, Note_on_c, 0, 64, 69
2, 121836, Note_on_c, 0, 68, 74
2, 121844, Note_off_c, 0, 73, 0
2, 121844, Note_off_c, 0, 64, 0
2, 121860, Note_on_c, 0, 59, 48
2, 121912, Note_off_c, 0, 68, 0
2, 121920, Note_off_c, 0, 59, 0
2, 121936, Note_on_c, 0, 70, 71
2, 121952, Note_on_c, 0, 61, 64
2, 121992, Control_c, 0, 64, 104
2, 122008, Note_off_c, 0, 61, 0
2, 122008, Control_c, 0, 64, 56
2, 122020, Control_c, 0, 64, 0
2, 122032, Note_off_c, 0, 70, 0
2, 122040, Note_on_c, 0, 71, 75
2, 122052, Note_on_c, 0, 63, 56
2, 122080, Control_c, 0, 64, 24
2, 122092, Control_c, 0, 64, 56
2, 122108, Control_c, 0, 64, 88
2, 122120, Note_off_c, 0, 71, 0
2, 122120, Note_off_c, 0, 63, 0
2, 122120, Control_c, 0, 64, 104
2, 122132, Note_on_c, 0, 66, 65
2, 122136, Control_c, 0, 64, 127
2, 122140, Note_on_c, 0, 58, 54
2, 122216, Note_off_c, 0, 66, 0
2, 122216, Note_off_c, 0, 58, 0
2, 122232, Note_on_c, 0, 59, 70
2, 122252, Note_on_c, 0, 68, 66
2, 122296, Note_off_c, 0, 68, 0
2, 122300, Control_c, 0, 64, 88
2, 122304, Note_off_c, 0, 59, 0
2, 122312, Control_c, 0, 64, 40
2, 122328, Control_c, 0, 64, 0
2, 122328, Note_on_c, 0, 61, 58
2, 122332, Note_on_c, 0, 70, 74
2, 122376, Control_c, 0, 64, 24
2, 122392, Control_c, 0, 64, 56
2, 122408, Control_c, 0, 64, 72
2, 122420, Note_off_c, 0, 61, 0
2, 122420, Control_c, 0, 64, 104
2, 122420, Note_on_c, 0, 64, 71
2, 122424, Note_on_c, 0, 56, 53
2, 122432, Control_c, 0, 64, 127
2, 122444, Note_off_c, 0, 70, 0
2, 122516, Note_on_c, 0, 66, 72
2, 122520, Note_off_c, 0, 56, 0
2, 122520, Note_on_c, 0, 58, 60
2, 122552, Note_off_c, 0, 75, 0
2, 122552, Note_off_c, 0, 64, 0
2, 122600, Control_c, 0, 64, 72
2, 122604, Note_off_c, 0, 58, 0
2, 122612, Control_c, 0, 64, 24
2, 122620, Note_off_c, 0, 66, 0
2, 122620, Note_on_c, 0, 68, 75
2, 122624, Note_on_c, 0, 59, 73
2, 122624, Control_c, 0, 64, 0
2, 122676, Control_c, 0, 64, 24
2, 122688, Control_c, 0, 64, 56
2, 122704, Control_c, 0, 64, 72
2, 122712, Note_off_c, 0, 59, 0
2, 122712, Note_on_c, 0, 63, 64
2, 122716, Control_c, 0, 64, 88
2, 122728, Note_on_c, 0, 54, 55
2, 122736, Note_off_c, 0, 68, 0
2, 122756, Control_c, 0, 64, 104
2, 122812, Note_on_c, 0, 64, 86
2, 122820, Control_c, 0, 64, 72
2, 122824, Note_off_c, 0, 54, 0
2, 122832, Note_on_c, 0, 56, 63
2, 122832, Control_c, 0, 64, 56
2, 122836, Note_off_c, 0, 63, 0
2, 122840, Control_c, 0, 64, 24
2, 122856, Control_c, 0, 64, 0
2, 122904, Note_off_c, 0, 56, 0
2, 122904, Note_off_c, 0, 64, 0
2, 122912, Note_on_c, 0, 58, 64
2, 122916, Note_on_c, 0, 66, 71
2, 123000, Note_on_c, 0, 61, 69
2, 123008, Note_off_c, 0, 58, 0
2, 123020, Note_on_c, 0, 52, 64
2, 123028, Note_off_c, 0, 66, 0
2, 123092, Note_off_c, 0, 52, 0
2, 123096, Note_on_c, 0, 63, 64
2, 123112, Note_off_c, 0, 61, 0
2, 123112, Note_on_c, 0, 54, 63
2, 123176, Note_off_c, 0, 54, 0
2, 123188, Note_on_c, 0, 56, 64
2, 123200, Note_off_c, 0, 63, 0
2, 123200, Note_on_c, 0, 64, 84
2, 123288, Note_off_c, 0, 56, 0
2, 123292, Note_on_c, 0, 51, 70
2, 123300, Note_on_c, 0, 59, 68
2, 123304, Note_off_c, 0, 64, 0
2, 123372, Note_off_c, 0, 51, 0
2, 123392, Note_off_c, 0, 59, 0
2, 123392, Note_on_c, 0, 52, 74
2, 123396, Note_on_c, 0, 61, 73
2, 123476, Note_off_c, 0, 61, 0
2, 123480, Note_off_c, 0, 52, 0
2, 123504, Note_on_c, 0, 54, 80
2, 123504, Note_on_c, 0, 63, 78
2, 123524, Note_on_c, 0, 59, 64
2, 123656, Control_c, 0, 64, 24
2, 123672, Control_c, 0, 64, 72
2, 123684, Control_c, 0, 64, 88
2, 123776, Note_off_c, 0, 59, 0
2, 123784, Control_c, 0, 64, 56
2, 123800, Note_off_c, 0, 54, 0
2, 123800, Control_c, 0, 64, 40
2, 123808, Note_on_c, 0, 47, 72
2, 123812, Control_c, 0, 64, 24
2, 123824, Control_c, 0, 64, 0
2, 123908, Note_on_c, 0, 51, 72
2, 123920, Note_off_c, 0, 47, 0
2, 124008, Note_on_c, 0, 52, 83
2, 124056, Note_off_c, 0, 63, 0
2, 124072, Note_off_c, 0, 51, 0
2, 124104, Note_on_c, 0, 61, 70
2, 124108, Note_on_c, 0, 58, 62
2, 124116, Note_on_c, 0, 54, 65
2, 124136, Note_off_c, 0, 52, 0
2, 124176, Note_off_c, 0, 58, 0
2, 124180, Note_off_c, 0, 54, 0
2, 124184, Note_off_c, 0, 61, 0
2, 124212, Note_on_c, 0, 63, 69
2, 124304, Note_on_c, 0, 54, 73
2, 124308, Note_off_c, 0, 63, 0
2, 124312, Note_on_c, 0, 61, 67
2, 124408, Note_on_c, 0, 44, 72
2, 124412, Note_off_c, 0, 54, 0
2, 124416, Note_off_c, 0, 61, 0
2, 124416, Note_on_c, 0, 56, 55
2, 124420, Note_on_c, 0, 59, 68
2, 124496, Note_off_c, 0, 59, 0
2, 124516, Note_on_c, 0, 47, 73
2, 124516, Note_on_c, 0, 61, 65
2, 124520, Note_off_c, 0, 44, 0
2, 124564, Note_off_c, 0, 56, 0
2, 124604, Note_on_c, 0, 59, 76
2, 124616, Note_off_c, 0, 61, 0
2, 124616, Note_on_c, 0, 49, 80
2, 124624, Note_off_c, 0, 47, 0
2, 124704, Note_off_c, 0, 59, 0
2, 124708, Note_on_c, 0, 58, 73
2, 124716, Note_on_c, 0, 51, 85
2, 124716, Note_on_c, 0, 55, 65
2, 124740, Note_off_c, 0, 49, 0
2, 124776, Note_off_c, 0, 51, 0
2, 124804, Note_off_c, 0, 55, 0
2, 124824, Note_on_c, 0, 59, 82
2, 124836, Note_off_c, 0, 58, 0
2, 124904, Note_on_c, 0, 51, 81
2, 124924, Note_on_c, 0, 58, 34
2, 124936, Note_off_c, 0, 59, 0
2, 124980, Note_off_c, 0, 51, 0
2, 125016, Note_on_c, 0, 40, 81
2, 125028, Note_off_c, 0, 58, 0
2, 125028, Note_on_c, 0, 56, 77
2, 125036, Note_on_c, 0, 52, 66
2, 125112, Note_off_c, 0, 52, 0
2, 125112, Note_on_c, 0, 44, 74
2, 125128, Note_off_c, 0, 56, 0
2, 125128, Note_on_c, 0, 58, 71
2, 125132, Note_off_c, 0, 40, 0
2, 125192, Note_off_c, 0, 44, 0
2, 125220, Note_on_c, 0, 56, 74
2, 125228, Note_on_c, 0, 46, 85
2, 125240, Note_off_c, 0, 58, 0
2, 125292, Note_off_c, 0, 46, 0
2, 125312, Note_on_c, 0, 54, 84
2, 125324, Note_on_c, 0, 51, 68
2, 125328, Note_on_c, 0, 47, 93
2, 125340, Note_off_c, 0, 56, 0
2, 125412, Note_off_c, 0, 47, 0
2, 125424, Note_on_c, 0, 56, 73
2, 125452, Note_off_c, 0, 54, 0
2, 125468, Note_off_c, 0, 51, 0
2, 125516, Note_on_c, 0, 54, 69
2, 125532, Note_on_c, 0, 47, 82
2, 125540, Note_off_c, 0, 56, 0
2, 125604, Note_off_c, 0, 47, 0
2, 125624, Note_on_c, 0, 52, 76
2, 125628, Note_off_c, 0, 54, 0
2, 125632, Note_on_c, 0, 37, 69
2, 125632, Note_on_c, 0, 49, 56
2, 125700, Note_off_c, 0, 52, 0
2, 125720, Note_on_c, 0, 54, 74
2, 125724, Note_off_c, 0, 37, 0
2, 125740, Note_on_c, 0, 40, 62
2, 125752, Note_off_c, 0, 49, 0
2, 125800, Note_off_c, 0, 40, 0
2, 125816, Note_off_c, 0, 54, 0
2, 125828, Note_on_c, 0, 52, 84
2, 125832, Note_on_c, 0, 42, 78
2, 125912, Note_off_c, 0, 42, 0
2, 125916, Note_off_c, 0, 52, 0
2, 125936, Note_on_c, 0, 51, 88
2, 125944, Note_on_c, 0, 44, 84
2, 125948, Note_on_c, 0, 47, 73
2, 125976, Note_off_c, 0, 47, 0
2, 126000, Note_off_c, 0, 44, 0
2, 126008, Control_c, 0, 64, 24
2, 126020, Note_off_c, 0, 51, 0
2, 126020, Control_c, 0, 64, 56
2, 126028, Control_c, 0, 64, 72
2, 126096, Control_c, 0, 64, 40
2, 126108, Control_c, 0, 64, 0
2, 126252, Note_on_c, 0, 87, 100
2, 126256, Note_on_c, 0, 75, 86
2, 126256, Note_on_c, 0, 27, 71
2, 126264, Note_on_c, 0, 39, 85
2, 126292, Control_c, 0, 64, 72
2, 126304, Note_off_c, 0, 27, 0
2, 126304, Control_c, 0, 64, 127
2, 126312, Note_off_c, 0, 39, 0
2, 126440, Note_off_c, 0, 75, 0
2, 126488, Note_off_c, 0, 87, 0
2, 126564, Note_on_c, 0, 87, 86
2, 126568, Note_on_c, 0, 85, 74
2, 126584, Note_on_c, 0, 76, 70
2, 126644, Note_off_c, 0, 85, 0
2, 126644, Note_off_c, 0, 76, 0
2, 126648, Note_off_c, 0, 87, 0
2, 126664, Note_on_c, 0, 80, 82
2, 126688, Note_on_c, 0, 71, 60
2, 126744, Note_off_c, 0, 80, 0
2, 126748, Note_off_c, 0, 71, 0
2, 126760, Note_on_c, 0, 82, 81
2, 126776, Note_on_c, 0, 73, 62
2, 126832, Note_off_c, 0, 82, 0
2, 126840, Note_off_c, 0, 73, 0
2, 126844, Control_c, 0, 64, 104
2, 126856, Control_c, 0, 64, 72
2, 126864, Note_on_c, 0, 87, 86
2, 126872, Note_on_c, 0, 83, 89
2, 126876, Note_on_c, 0, 75, 69
2, 126884, Control_c, 0, 64, 88
2, 126896, Control_c, 0, 64, 127
2, 126940, Note_off_c, 0, 83, 0
2, 126944, Note_off_c, 0, 75, 0
2, 126964, Note_on_c, 0, 78, 70
2, 126984, Note_on_c, 0, 70, 61
2, 127032, Note_off_c, 0, 87, 0
2, 127056, Note_off_c, 0, 78, 0
2, 127056, Note_off_c, 0, 70, 0
2, 127056, Note_on_c, 0, 80, 74
2, 127088, Note_on_c, 0, 71, 64
2, 127140, Note_off_c, 0, 80, 0
2, 127156, Note_off_c, 0, 71, 0
2, 127172, Note_on_c, 0, 87, 85
2, 127176, Note_on_c, 0, 82, 82
2, 127180, Note_on_c, 0, 73, 71
2, 127244, Note_off_c, 0, 82, 0
2, 127256, Note_off_c, 0, 73, 0
2, 127260, Note_off_c, 0, 87, 0
2, 127272, Note_on_c, 0, 76, 75
2, 127292, Note_on_c, 0, 68, 43
2, 127356, Note_on_c, 0, 78, 71
2, 127368, Note_off_c, 0, 76, 0
2, 127380, Note_off_c, 0, 68, 0
2, 127384, Note_on_c, 0, 70, 60
2, 127428, Note_off_c, 0, 78, 0
2, 127464, Note_off_c, 0, 70, 0
2, 127464, Control_c, 0, 64, 88
2, 127464, Note_on_c, 0, 87, 85
2, 127472, Note_on_c, 0, 80, 83
2, 127480, Control_c, 0, 64, 72
2, 127484, Note_on_c, 0, 71, 71
2, 127488, Control_c, 0, 64, 88
2, 127504, Control_c, 0, 64, 127
2, 127552, Note_off_c, 0, 80, 0
2, 127556, Note_off_c, 0, 87, 0
2, 127572, Note_off_c, 0, 71, 0
2, 127576, Note_on_c, 0, 75, 72
2, 127596, Note_on_c, 0, 66, 55
2, 127664, Note_off_c, 0, 75, 0
2, 127684, Note_on_c, 0, 76, 58
2, 127696, Note_on_c, 0, 68, 62
2, 127720, Note_off_c, 0, 76, 0
2, 127728, Note_off_c, 0, 66, 0
2, 127760, Note_off_c, 0, 68, 0
2, 127768, Note_on_c, 0, 87, 84
2, 127784, Note_on_c, 0, 70, 72
2, 127784, Note_on_c, 0, 78, 71
2, 127812, Note_off_c, 0, 78, 0
2, 127832, Note_off_c, 0, 87, 0
2, 127864, Note_on_c, 0, 73, 76
2, 127868, Note_off_c, 0, 70, 0
2, 127904, Note_on_c, 0, 64, 63
2, 127932, Note_off_c, 0, 73, 0
2, 127960, Note_on_c, 0, 75, 75
2, 127972, Note_off_c, 0, 64, 0
2, 127972, Note_on_c, 0, 66, 62
2, 128040, Note_off_c, 0, 75, 0
2, 128048, Control_c, 0, 64, 104
2, 128060, Note_off_c, 0, 66, 0
2, 128060, Control_c, 0, 64, 72
2, 128068, Note_on_c, 0, 76, 92
2, 128072, Control_c, 0, 64, 40
2, 128076, Note_on_c, 0, 68, 73
2, 128108, Control_c, 0, 64, 72
2, 128120, Control_c, 0, 64, 104
2, 128136, Control_c, 0, 64, 127
2, 128148, Note_off_c, 0, 68, 0
2, 128156, Note_off_c, 0, 76, 0
2, 128168, Note_on_c, 0, 71, 72
2, 128184, Note_on_c, 0, 63, 56
2, 128240, Note_off_c, 0, 71, 0
2, 128264, Note_on_c, 0, 73, 80
2, 128276, Note_on_c, 0, 64, 77
2, 128280, Note_off_c, 0, 63, 0
2, 128344, Note_off_c, 0, 73, 0
2, 128360, Note_off_c, 0, 64, 0
2, 128376, Note_on_c, 0, 75, 85
2, 128384, Note_on_c, 0, 66, 74
2, 128392, Note_on_c, 0, 71, 62
2, 128392, Control_c, 0, 64, 104
2, 128408, Control_c, 0, 64, 56
2, 128420, Control_c, 0, 64, 0
2, 128552, Control_c, 0, 64, 56
2, 128564, Control_c, 0, 64, 104
2, 128572, Control_c, 0, 64, 127
2, 128692, Note_off_c, 0, 71, 0
2, 128692, Note_on_c, 0, 70, 69
2, 128716, Control_c, 0, 64, 88
2, 128728, Note_off_c, 0, 66, 0
2, 128728, Control_c, 0, 64, 24
2, 128744, Control_c, 0, 64, 0
2, 128808, Control_c, 0, 64, 40
2, 128824, Control_c, 0, 64, 104
2, 128836, Control_c, 0, 64, 127
2, 128908, Note_on_c, 0, 49, 58
2, 128952, Note_off_c, 0, 75, 0
2, 128952, Note_off_c, 0, 70, 0
2, 128968, Note_off_c, 0, 49, 0
2, 128976, Control_c, 0, 64, 104
2, 128988, Control_c, 0, 64, 88
2, 128988, Note_on_c, 0, 69, 75
2, 129000, Control_c, 0, 64, 56
2, 129016, Control_c, 0, 64, 40
2, 129020, Note_on_c, 0, 64, 59
2, 129028, Control_c, 0, 64, 24
2, 129032, Note_on_c, 0, 57, 42
2, 129040, Control_c, 0, 64, 0
2, 129064, Note_off_c, 0, 64, 0
2, 129068, Note_off_c, 0, 69, 0
2, 129092, Note_off_c, 0, 57, 0
2, 129092, Note_on_c, 0, 75, 80
2, 129188, Note_on_c, 0, 73, 77
2, 129200, Note_on_c, 0, 49, 56
2, 129224, Note_off_c, 0, 75, 0
2, 129260, Note_off_c, 0, 49, 0
2, 129284, Note_off_c, 0, 73, 0
2, 129284, Note_on_c, 0, 69, 76
2, 129324, Note_on_c, 0, 57, 44
2, 129332, Note_on_c, 0, 64, 37
2, 129352, Note_off_c, 0, 69, 0
2, 129372, Note_off_c, 0, 64, 0
2, 129376, Note_on_c, 0, 71, 77
2, 129428, Note_off_c, 0, 57, 0
2, 129464, Note_off_c, 0, 71, 0
2, 129472, Note_on_c, 0, 69, 86
2, 129480, Note_on_c, 0, 49, 54
2, 129548, Note_off_c, 0, 49, 0
2, 129564, Note_off_c, 0, 69, 0
2, 129584, Note_on_c, 0, 68, 74
2, 129604, Note_on_c, 0, 58, 51
2, 129604, Note_on_c, 0, 64, 52
2, 129656, Note_off_c, 0, 64, 0
2, 129668, Note_off_c, 0, 68, 0
2, 129684, Note_on_c, 0, 70, 80
2, 129696, Note_off_c, 0, 58, 0
2, 129768, Note_on_c, 0, 49, 46
2, 129780, Note_off_c, 0, 70, 0
2, 129784, Note_on_c, 0, 68, 77
2, 129848, Note_off_c, 0, 49, 0
2, 129884, Note_off_c, 0, 68, 0
2, 129884, Note_on_c, 0, 67, 81
2, 129896, Note_on_c, 0, 58, 55
2, 129896, Note_on_c, 0, 63, 62
2, 129968, Note_off_c, 0, 58, 0
2, 129968, Note_off_c, 0, 63, 0
2, 129988, Note_off_c, 0, 67, 0
2, 129988, Note_on_c, 0, 68, 67
2, 130048, Note_on_c, 0, 51, 56
2, 130084, Note_off_c, 0, 68, 0
2, 130084, Note_on_c, 0, 67, 75
2, 130152, Note_off_c, 0, 51, 0
2, 130172, Note_off_c, 0, 67, 0
2, 130196, Note_on_c, 0, 63, 67
2, 130200, Note_on_c, 0, 70, 73
2, 130200, Note_on_c, 0, 55, 60
2, 130208, Note_on_c, 0, 61, 70
2, 130252, Note_off_c, 0, 63, 0
2, 130252, Note_off_c, 0, 61, 0
2, 130260, Note_off_c, 0, 55, 0
2, 130280, Note_off_c, 0, 70, 0
2, 130308, Note_on_c, 0, 72, 86
2, 130392, Note_on_c, 0, 51, 69
2, 130392, Note_on_c, 0, 70, 81
2, 130412, Note_off_c, 0, 72, 0
2, 130480, Note_off_c, 0, 70, 0
2, 130504, Note_on_c, 0, 63, 64
2, 130512, Note_on_c, 0, 68, 87
2, 130512, Note_on_c, 0, 56, 59
2, 130516, Note_on_c, 0, 60, 72
2, 130568, Note_off_c, 0, 63, 0
2, 130572, Control_c, 0, 64, 24
2, 130588, Note_off_c, 0, 56, 0
2, 130588, Control_c, 0, 64, 56
2, 130600, Control_c, 0, 64, 88
2, 130616, Control_c, 0, 64, 104
2, 130624, Note_off_c, 0, 51, 0
2, 130680, Control_c, 0, 64, 88
2, 130692, Control_c, 0, 64, 56
2, 130704, Control_c, 0, 64, 0
2, 130784, Control_c, 0, 64, 40
2, 130796, Control_c, 0, 64, 72
2, 130840, Control_c, 0, 64, 88
2, 130840, Note_on_c, 0, 56, 80
2, 130852, Note_on_c, 0, 44, 70
2, 130856, Control_c, 0, 64, 127
2, 130888, Note_off_c, 0, 60, 0
2, 130892, Note_off_c, 0, 56, 0
2, 130920, Note_off_c, 0, 44, 0
2, 130948, Note_off_c, 0, 68, 0
2, 131020, Control_c, 0, 64, 104
2, 131032, Control_c, 0, 64, 88
2, 131048, Control_c, 0, 64, 56
2, 131060, Control_c, 0, 64, 24
2, 131072, Control_c, 0, 64, 0
2, 131172, Note_on_c, 0, 75, 102
2, 131176, Note_on_c, 0, 63, 85
2, 131184, Note_on_c, 0, 39, 68
2, 131188, Note_on_c, 0, 51, 81
2, 131216, Control_c, 0, 64, 56
2, 131228, Control_c, 0, 64, 127
2, 131244, Note_off_c, 0, 51, 0
2, 131256, Note_off_c, 0, 39, 0
2, 131304, Note_off_c, 0, 63, 0
2, 131488, Note_on_c, 0, 73, 69
2, 131492, Note_on_c, 0, 64, 63
2, 131544, Note_off_c, 0, 64, 0
2, 131584, Note_on_c, 0, 68, 71
2, 131604, Note_on_c, 0, 59, 60
2, 131608, Note_off_c, 0, 73, 0
2, 131656, Note_off_c, 0, 68, 0
2, 131660, Note_off_c, 0, 59, 0
2, 131676, Note_on_c, 0, 70, 74
2, 131692, Note_on_c, 0, 61, 65
2, 131756, Control_c, 0, 64, 104
2, 131764, Note_off_c, 0, 61, 0
2, 131768, Control_c, 0, 64, 56
2, 131784, Control_c, 0, 64, 0
2, 131784, Note_on_c, 0, 71, 82
2, 131796, Note_on_c, 0, 63, 67
2, 131828, Note_off_c, 0, 70, 0
2, 131864, Note_off_c, 0, 71, 0
2, 131880, Note_off_c, 0, 63, 0
2, 131880, Note_on_c, 0, 66, 58
2, 131888, Control_c, 0, 64, 40
2, 131896, Note_on_c, 0, 58, 54
2, 131900, Control_c, 0, 64, 56
2, 131976, Note_on_c, 0, 68, 67
2, 131988, Note_off_c, 0, 58, 0
2, 131992, Note_off_c, 0, 66, 0
2, 132000, Note_on_c, 0, 59, 66
2, 132068, Control_c, 0, 64, 24
2, 132080, Note_off_c, 0, 68, 0
2, 132080, Note_off_c, 0, 59, 0
2, 132080, Control_c, 0, 64, 0
2, 132088, Note_on_c, 0, 70, 73
2, 132100, Note_on_c, 0, 61, 65
2, 132156, Control_c, 0, 64, 24
2, 132168, Control_c, 0, 64, 56
2, 132184, Note_off_c, 0, 61, 0
2, 132184, Control_c, 0, 64, 72
2, 132192, Note_on_c, 0, 64, 64
2, 132200, Note_off_c, 0, 70, 0
2, 132204, Note_on_c, 0, 56, 51
2, 132284, Note_off_c, 0, 64, 0
2, 132284, Note_on_c, 0, 66, 65
2, 132292, Note_off_c, 0, 56, 0
2, 132296, Note_on_c, 0, 58, 59
2, 132364, Note_off_c, 0, 75, 0
2, 132364, Control_c, 0, 64, 24
2, 132376, Control_c, 0, 64, 0
2, 132384, Note_off_c, 0, 58, 0
2, 132388, Note_on_c, 0, 68, 71
2, 132392, Note_off_c, 0, 66, 0
2, 132392, Note_on_c, 0, 59, 72
2, 132440, Control_c, 0, 64, 24
2, 132452, Control_c, 0, 64, 40
2, 132468, Control_c, 0, 64, 56
2, 132472, Note_off_c, 0, 59, 0
2, 132476, Note_on_c, 0, 63, 61
2, 132496, Note_off_c, 0, 68, 0
2, 132496, Note_on_c, 0, 54, 46
2, 132584, Note_off_c, 0, 54, 0
2, 132588, Note_on_c, 0, 64, 76
2, 132596, Note_on_c, 0, 56, 52
2, 132608, Control_c, 0, 64, 24
2, 132624, Control_c, 0, 64, 0
2, 132664, Note_off_c, 0, 63, 0
2, 132668, Note_off_c, 0, 56, 0
2, 132672, Note_off_c, 0, 64, 0
2, 132680, Note_on_c, 0, 58, 61
2, 132684, Note_on_c, 0, 66, 73
2, 132740, Control_c, 0, 64, 24
2, 132752, Control_c, 0, 64, 40
2, 132780, Note_off_c, 0, 58, 0
2, 132780, Note_on_c, 0, 61, 62
2, 132792, Control_c, 0, 64, 56
2, 132792, Note_on_c, 0, 52, 61
2, 132808, Note_off_c, 0, 66, 0
2, 132868, Note_off_c, 0, 52, 0
2, 132872, Note_off_c, 0, 61, 0
2, 132872, Note_on_c, 0, 63, 70
2, 132876, Note_on_c, 0, 54, 57
2, 132904, Control_c, 0, 64, 24
2, 132932, Control_c, 0, 64, 0
2, 132944, Note_off_c, 0, 54, 0
2, 132952, Note_on_c, 0, 56, 53
2, 132968, Note_off_c, 0, 63, 0
2, 132976, Note_on_c, 0, 64, 83
2, 133060, Note_off_c, 0, 56, 0
2, 133072, Note_on_c, 0, 51, 61
2, 133076, Note_on_c, 0, 59, 56
2, 133080, Note_off_c, 0, 64, 0
2, 133148, Note_off_c, 0, 59, 0
2, 133160, Note_off_c, 0, 51, 0
2, 133176, Note_on_c, 0, 52, 70
2, 133176, Note_on_c, 0, 61, 65
2, 133244, Note_off_c, 0, 61, 0
2, 133256, Note_off_c, 0, 52, 0
2, 133276, Note_on_c, 0, 54, 73
2, 133284, Note_on_c, 0, 63, 74
2, 133300, Note_on_c, 0, 59, 50
2, 133412, Control_c, 0, 64, 56
2, 133424, Control_c, 0, 64, 127
2, 133540, Control_c, 0, 64, 72
2, 133552, Control_c, 0, 64, 40
2, 133564, Control_c, 0, 64, 24
2, 133576, Note_on_c, 0, 47, 79
2, 133576, Control_c, 0, 64, 0
2, 133624, Note_off_c, 0, 54, 0
2, 133636, Note_off_c, 0, 59, 0
2, 133640, Control_c, 0, 64, 24
2, 133656, Control_c, 0, 64, 40
2, 133676, Note_on_c, 0, 51, 68
2, 133688, Note_off_c, 0, 47, 0
2, 133704, Control_c, 0, 64, 56
2, 133768, Note_off_c, 0, 51, 0
2, 133768, Note_on_c, 0, 52, 83
2, 133836, Note_off_c, 0, 63, 0
2, 133880, Note_on_c, 0, 54, 76
2, 133888, Note_on_c, 0, 61, 71
2, 133896, Note_on_c, 0, 58, 57
2, 133900, Note_off_c, 0, 52, 0
2, 133944, Note_off_c, 0, 54, 0
2, 133964, Note_off_c, 0, 58, 0
2, 133964, Control_c, 0, 64, 40
2, 133968, Note_off_c, 0, 61, 0
2, 134000, Note_on_c, 0, 63, 64
2, 134088, Note_on_c, 0, 54, 71
2, 134100, Note_on_c, 0, 61, 67
2, 134104, Note_off_c, 0, 63, 0
2, 134160, Control_c, 0, 64, 24
2, 134168, Note_off_c, 0, 54, 0
2, 134192, Note_on_c, 0, 44, 71
2, 134200, Control_c, 0, 64, 0
2, 134204, Note_on_c, 0, 56, 59
2, 134212, Note_off_c, 0, 61, 0
2, 134216, Note_on_c, 0, 59, 64
2, 134280, Note_off_c, 0, 59, 0
2, 134296, Note_off_c, 0, 44, 0
2, 134300, Note_on_c, 0, 61, 67
2, 134304, Note_on_c, 0, 47, 69
2, 134344, Note_off_c, 0, 56, 0
2, 134392, Note_off_c, 0, 47, 0
2, 134404, Note_on_c, 0, 59, 68
2, 134404, Note_on_c, 0, 49, 75
2, 134412, Note_off_c, 0, 61, 0
2, 134496, Note_off_c, 0, 59, 0
2, 134500, Note_on_c, 0, 58, 73
2, 134504, Note_on_c, 0, 55, 67
2, 134512, Note_on_c, 0, 51, 83
2, 134528, Note_off_c, 0, 49, 0
2, 134568, Note_off_c, 0, 51, 0
2, 134588, Note_off_c, 0, 55, 0
2, 134616, Note_on_c, 0, 59, 81
2, 134700, Note_on_c, 0, 58, 80
2, 134700, Note_on_c, 0, 51, 75
2, 134712, Note_off_c, 0, 59, 0
2, 134776, Note_off_c, 0, 58, 0
2, 134776, Note_off_c, 0, 51, 0
2, 134800, Note_off_c, 0, 58, 0
2, 134804, Note_on_c, 0, 40, 73
2, 134820, Note_on_c, 0, 56, 69
2, 134824, Note_on_c, 0, 52, 64
2, 134896, Note_off_c, 0, 52, 0
2, 134904, Note_off_c, 0, 56, 0
2, 134904, Note_on_c, 0, 44, 71
2, 134908, Note_off_c, 0, 40, 0
2, 134912, Note_on_c, 0, 58, 68
2, 134984, Note_off_c, 0, 44, 0
2, 135008, Note_on_c, 0, 56, 70
2, 135012, Note_on_c, 0, 46, 77
2, 135016, Note_off_c, 0, 58, 0
2, 135104, Note_off_c, 0, 46, 0
2, 135116, Note_off_c, 0, 56, 0
2, 135116, Note_on_c, 0, 51, 64
2, 135116, Note_on_c, 0, 54, 73
2, 135128, Note_on_c, 0, 47, 83
2, 135192, Note_off_c, 0, 47, 0
2, 135208, Note_off_c, 0, 51, 0
2, 135208, Note_off_c, 0, 54, 0
2, 135220, Note_on_c, 0, 56, 72
2, 135312, Note_on_c, 0, 47, 80
2, 135312, Note_on_c, 0, 54, 74
2, 135324, Note_off_c, 0, 56, 0
2, 135388, Note_off_c, 0, 47, 0
2, 135428, Note_on_c, 0, 52, 71
2, 135428, Note_on_c, 0, 49, 56
2, 135432, Note_off_c, 0, 54, 0
2, 135432, Note_on_c, 0, 37, 72
2, 135492, Note_off_c, 0, 52, 0
2, 135504, Note_off_c, 0, 49, 0
2, 135516, Note_on_c, 0, 54, 74
2, 135524, Note_off_c, 0, 37, 0
2, 135536, Note_on_c, 0, 40, 68
2, 135616, Note_off_c, 0, 54, 0
2, 135616, Note_off_c, 0, 40, 0
2, 135624, Note_on_c, 0, 52, 70
2, 135640, Note_on_c, 0, 42, 55
2, 135704, Note_off_c, 0, 52, 0
2, 135724, Note_on_c, 0, 51, 80
2, 135736, Note_on_c, 0, 47, 50
2, 135756, Note_on_c, 0, 44, 77
2, 135776, Note_off_c, 0, 42, 0
2, 135776, Note_off_c, 0, 47, 0
2, 135784, Control_c, 0, 64, 24
2, 135796, Control_c, 0, 64, 56
2, 135800, Note_off_c, 0, 44, 0
2, 135808, Note_off_c, 0, 51, 0
2, 135812, Control_c, 0, 64, 88
2, 135824, Control_c, 0, 64, 104
2, 135900, Control_c, 0, 64, 72
2, 135912, Control_c, 0, 64, 40
2, 135928, Control_c, 0, 64, 24
2, 135940, Control_c, 0, 64, 0
2, 136052, Note_on_c, 0, 87, 100
2, 136056, Note_on_c, 0, 75, 90
2, 136068, Note_on_c, 0, 39, 83
2, 136068, Note_on_c, 0, 27, 70
2, 136092, Control_c, 0, 64, 40
2, 136104, Control_c, 0, 64, 104
2, 136112, Note_off_c, 0, 39, 0
2, 136112, Note_off_c, 0, 27, 0
2, 136120, Control_c, 0, 64, 127
2, 136184, Note_off_c, 0, 87, 0
2, 136272, Note_off_c, 0, 75, 0
2, 136296, Note_on_c, 0, 39, 71
2, 136376, Note_off_c, 0, 39, 0
2, 136384, Note_on_c, 0, 85, 79
2, 136392, Note_on_c, 0, 51, 80
2, 136392, Note_on_c, 0, 73, 83
2, 136392, Note_on_c, 0, 82, 77
2, 136452, Note_off_c, 0, 51, 0
2, 136488, Note_off_c, 0, 85, 0
2, 136492, Note_off_c, 0, 73, 0
2, 136496, Note_off_c, 0, 82, 0
2, 136500, Note_on_c, 0, 77, 84
2, 136568, Note_on_c, 0, 39, 62
2, 136600, Note_on_c, 0, 79, 72
2, 136624, Note_off_c, 0, 77, 0
2, 136632, Note_off_c, 0, 39, 0
2, 136664, Control_c, 0, 64, 88
2, 136676, Control_c, 0, 64, 56
2, 136688, Note_off_c, 0, 79, 0
2, 136688, Control_c, 0, 64, 24
2, 136700, Note_on_c, 0, 51, 73
2, 136708, Note_on_c, 0, 83, 89
2, 136708, Note_on_c, 0, 80, 72
2, 136712, Note_on_c, 0, 71, 66
2, 136728, Control_c, 0, 64, 56
2, 136728, Note_on_c, 0, 72, 43
2, 136740, Control_c, 0, 64, 104
2, 136752, Control_c, 0, 64, 127
2, 136756, Note_off_c, 0, 51, 0
2, 136756, Note_off_c, 0, 72, 0
2, 136824, Note_off_c, 0, 83, 0
2, 136824, Note_on_c, 0, 75, 76
2, 136836, Note_off_c, 0, 80, 0
2, 136860, Note_off_c, 0, 71, 0
2, 136892, Note_on_c, 0, 39, 56
2, 136928, Note_off_c, 0, 75, 0
2, 136936, Note_on_c, 0, 76, 74
2, 136964, Note_off_c, 0, 39, 0
2, 137000, Note_off_c, 0, 76, 0
2, 137008, Control_c, 0, 64, 104
2, 137024, Control_c, 0, 64, 56
2, 137028, Note_on_c, 0, 78, 78
2, 137032, Note_on_c, 0, 82, 85
2, 137032, Note_on_c, 0, 51, 74
2, 137036, Note_on_c, 0, 70, 80
2, 137036, Control_c, 0, 64, 24
2, 137076, Control_c, 0, 64, 88
2, 137088, Note_off_c, 0, 51, 0
2, 137088, Control_c, 0, 64, 127
2, 137144, Note_on_c, 0, 73, 73
2, 137160, Note_off_c, 0, 78, 0
2, 137164, Note_off_c, 0, 82, 0
2, 137212, Note_on_c, 0, 39, 60
2, 137220, Note_off_c, 0, 70, 0
2, 137224, Note_on_c, 0, 75, 67
2, 137272, Note_off_c, 0, 73, 0
2, 137272, Note_off_c, 0, 39, 0
2, 137336, Control_c, 0, 64, 88
2, 137340, Note_on_c, 0, 80, 83
2, 137348, Control_c, 0, 64, 24
2, 137348, Note_on_c, 0, 76, 90
2, 137352, Note_on_c, 0, 68, 74
2, 137352, Note_on_c, 0, 51, 71
2, 137360, Control_c, 0, 64, 0
2, 137384, Note_off_c, 0, 75, 0
2, 137384, Control_c, 0, 64, 24
2, 137400, Control_c, 0, 64, 72
2, 137412, Note_off_c, 0, 51, 0
2, 137412, Control_c, 0, 64, 104
2, 137424, Control_c, 0, 64, 127
2, 137440, Note_off_c, 0, 76, 0
2, 137456, Note_on_c, 0, 71, 67
2, 137468, Note_off_c, 0, 80, 0
2, 137496, Note_off_c, 0, 68, 0
2, 137520, Note_on_c, 0, 39, 61
2, 137552, Note_on_c, 0, 73, 62
2, 137584, Note_off_c, 0, 39, 0
2, 137592, Note_off_c, 0, 71, 0
2, 137632, Control_c, 0, 64, 104
2, 137640, Note_off_c, 0, 73, 0
2, 137644, Control_c, 0, 64, 40
2, 137656, Note_on_c, 0, 78, 75
2, 137656, Note_on_c, 0, 75, 68
2, 137656, Control_c, 0, 64, 0
2, 137664, Note_on_c, 0, 66, 68
2, 137684, Note_on_c, 0, 51, 67
2, 137696, Control_c, 0, 64, 72
2, 137708, Control_c, 0, 64, 104
2, 137720, Control_c, 0, 64, 127
2, 137736, Note_off_c, 0, 51, 0
2, 137752, Note_on_c, 0, 70, 76
2, 137764, Note_off_c, 0, 75, 0
2, 137768, Note_off_c, 0, 78, 0
2, 137788, Note_off_c, 0, 66, 0
2, 137852, Note_on_c, 0, 39, 67
2, 137856, Note_on_c, 0, 71, 70
2, 137916, Control_c, 0, 64, 56
2, 137928, Note_off_c, 0, 39, 0
2, 137928, Control_c, 0, 64, 24
2, 137936, Note_off_c, 0, 70, 0
2, 137944, Note_on_c, 0, 73, 74
2, 137948, Note_on_c, 0, 51, 77
2, 137956, Note_on_c, 0, 76, 88
2, 137968, Note_off_c, 0, 71, 0
2, 137968, Control_c, 0, 64, 88
2, 137976, Note_on_c, 0, 64, 59
2, 137980, Control_c, 0, 64, 127
2, 138004, Note_off_c, 0, 51, 0
2, 138068, Note_on_c, 0, 68, 71
2, 138072, Note_off_c, 0, 73, 0
2, 138072, Note_off_c, 0, 76, 0
2, 138112, Note_off_c, 0, 64, 0
2, 138140, Note_on_c, 0, 39, 53
2, 138160, Note_on_c, 0, 70, 64
2, 138184, Note_off_c, 0, 68, 0
2, 138240, Note_off_c, 0, 70, 0
2, 138248, Control_c, 0, 64, 56
2, 138264, Control_c, 0, 64, 0
2, 138268, Note_on_c, 0, 75, 79
2, 138276, Note_on_c, 0, 71, 76
2, 138276, Note_on_c, 0, 51, 71
2, 138280, Note_on_c, 0, 63, 69
2, 138340, Note_off_c, 0, 51, 0
2, 138344, Control_c, 0, 64, 56
2, 138356, Control_c, 0, 64, 104
2, 138360, Note_off_c, 0, 39, 0
2, 138368, Control_c, 0, 64, 127
2, 138456, Note_off_c, 0, 63, 0
2, 138460, Note_off_c, 0, 71, 0
2, 138560, Control_c, 0, 64, 104
2, 138572, Control_c, 0, 64, 56
2, 138584, Control_c, 0, 64, 0
2, 138596, Note_on_c, 0, 69, 74
2, 138600, Note_on_c, 0, 64, 52
2, 138612, Note_on_c, 0, 49, 63
2, 138616, Note_on_c, 0, 37, 51
2, 138680, Note_off_c, 0, 37, 0
2, 138680, Control_c, 0, 64, 40
2, 138684, Note_off_c, 0, 49, 0
2, 138692, Control_c, 0, 64, 104
2, 138696, Note_off_c, 0, 64, 0
2, 138704, Control_c, 0, 64, 127
2, 138728, Note_off_c, 0, 69, 0
2, 138840, Note_off_c, 0, 75, 0
2, 138908, Note_on_c, 0, 73, 83
2, 138916, Note_on_c, 0, 49, 64
2, 138992, Note_off_c, 0, 73, 0
2, 139008, Note_off_c, 0, 49, 0
2, 139012, Note_on_c, 0, 75, 82
2, 139024, Note_on_c, 0, 52, 63
2, 139096, Note_off_c, 0, 75, 0
2, 139096, Note_on_c, 0, 73, 77
2, 139096, Note_on_c, 0, 57, 65
2, 139180, Note_on_c, 0, 64, 50
2, 139192, Note_off_c, 0, 73, 0
2, 139192, Note_off_c, 0, 57, 0
2, 139220, Note_on_c, 0, 69, 82
2, 139220, Control_c, 0, 64, 72
2, 139232, Control_c, 0, 64, 40
2, 139240, Control_c, 0, 64, 0
2, 139284, Control_c, 0, 64, 56
2, 139296, Note_off_c, 0, 69, 0
2, 139296, Control_c, 0, 64, 88
2, 139308, Control_c, 0, 64, 104
2, 139312, Note_off_c, 0, 64, 0
2, 139320, Note_on_c, 0, 71, 71
2, 139320, Control_c, 0, 64, 127
2, 139392, Note_off_c, 0, 52, 0
2, 139400, Note_off_c, 0, 71, 0
2, 139420, Note_on_c, 0, 69, 80
2, 139500, Note_off_c, 0, 69, 0
2, 139524, Note_on_c, 0, 64, 79
2, 139544, Control_c, 0, 64, 88
2, 139552, Control_c, 0, 64, 40
2, 139568, Control_c, 0, 64, 0
2, 139600, Note_off_c, 0, 64, 0
2, 139624, Note_on_c, 0, 76, 82
2, 139632, Control_c, 0, 64, 24
2, 139644, Control_c, 0, 64, 40
2, 139656, Control_c, 0, 64, 56
2, 139672, Control_c, 0, 64, 72
2, 139720, Note_off_c, 0, 76, 0
2, 139720, Note_on_c, 0, 64, 65
2, 139772, Control_c, 0, 64, 56
2, 139784, Control_c, 0, 64, 40
2, 139788, Note_off_c, 0, 64, 0
2, 139812, Control_c, 0, 64, 24
2, 139824, Note_on_c, 0, 61, 73
2, 139864, Control_c, 0, 64, 0
2, 139896, Note_off_c, 0, 61, 0
2, 139924, Note_on_c, 0, 63, 69
2, 140016, Note_on_c, 0, 61, 71
2, 140048, Note_off_c, 0, 63, 0
2, 140116, Note_off_c, 0, 61, 0
2, 140116, Note_on_c, 0, 57, 75
2, 140216, Note_off_c, 0, 57, 0
2, 140232, Note_on_c, 0, 69, 62
2, 140308, Note_off_c, 0, 69, 0
2, 140320, Note_on_c, 0, 57, 59
2, 140392, Note_off_c, 0, 57, 0
2, 140432, Note_on_c, 0, 56, 63
2, 140440, Note_on_c, 0, 49, 57
2, 140440, Note_on_c, 0, 39, 50
2, 140492, Note_off_c, 0, 56, 0
2, 140532, Note_on_c, 0, 58, 53
2, 140624, Note_on_c, 0, 56, 62
2, 140632, Note_off_c, 0, 58, 0
2, 140720, Note_off_c, 0, 56, 0
2, 140744, Note_on_c, 0, 55, 73
2, 140848, Note_on_c, 0, 64, 68
2, 140884, Note_off_c, 0, 49, 0
2, 140920, Note_off_c, 0, 39, 0
2, 140936, Note_off_c, 0, 64, 0
2, 140944, Note_on_c, 0, 63, 65
2, 140976, Note_off_c, 0, 55, 0
2, 141004, Note_off_c, 0, 63, 0
2, 141096, Note_on_c, 0, 54, 67
2, 141100, Note_on_c, 0, 32, 46
2, 141108, Note_on_c, 0, 48, 58
2, 141180, Note_on_c, 0, 44, 40
2, 141192, Note_off_c, 0, 32, 0
2, 141280, Note_on_c, 0, 39, 44
2, 141288, Note_off_c, 0, 44, 0
2, 141368, Note_off_c, 0, 39, 0
2, 141416, Note_on_c, 0, 32, 59
2, 141500, Note_off_c, 0, 54, 0
2, 141504, Note_on_c, 0, 44, 42
2, 141524, Note_off_c, 0, 32, 0
2, 141528, Note_on_c, 0, 53, 64
2, 141572, Note_off_c, 0, 48, 0
2, 141596, Note_on_c, 0, 39, 40
2, 141616, Note_off_c, 0, 44, 0
2, 141620, Note_off_c, 0, 53, 0
2, 141624, Note_on_c, 0, 51, 73
2, 141696, Note_off_c, 0, 39, 0
2, 141716, Note_off_c, 0, 51, 0
2, 141724, Note_on_c, 0, 53, 75
2, 141732, Note_on_c, 0, 32, 61
2, 141736, Note_on_c, 0, 49, 55
2, 141788, Note_off_c, 0, 53, 0
2, 141800, Note_off_c, 0, 32, 0
2, 141816, Note_on_c, 0, 44, 49
2, 141948, Note_on_c, 0, 53, 75
2, 141960, Note_off_c, 0, 44, 0
2, 142008, Note_off_c, 0, 53, 0
2, 142056, Note_on_c, 0, 53, 70
2, 142060, Note_on_c, 0, 32, 53
2, 142124, Note_off_c, 0, 32, 0
2, 142136, Note_on_c, 0, 44, 53
2, 142168, Note_on_c, 0, 55, 81
2, 142172, Note_off_c, 0, 53, 0
2, 142192, Note_off_c, 0, 49, 0
2, 142216, Note_on_c, 0, 41, 45
2, 142224, Note_off_c, 0, 44, 0
2, 142248, Note_on_c, 0, 56, 78
2, 142264, Note_off_c, 0, 55, 0
2, 142292, Note_off_c, 0, 41, 0
2, 142332, Note_off_c, 0, 56, 0
2, 142352, Note_on_c, 0, 32, 54
2, 142360, Note_on_c, 0, 55, 84
2, 142368, Note_on_c, 0, 52, 62
2, 142420, Note_off_c, 0, 32, 0
2, 142432, Note_off_c, 0, 55, 0
2, 142472, Note_on_c, 0, 49, 61
2, 142532, Note_off_c, 0, 52, 0
2, 142532, Note_off_c, 0, 49, 0
2, 142576, Note_on_c, 0, 55, 75
2, 142584, Note_on_c, 0, 52, 30
2, 142604, Note_on_c, 0, 40, 37
2, 142612, Note_off_c, 0, 52, 0
2, 142632, Note_off_c, 0, 55, 0
2, 142672, Note_on_c, 0, 55, 74
2, 142680, Note_on_c, 0, 52, 53
2, 142688, Note_on_c, 0, 32, 57
2, 142692, Note_off_c, 0, 40, 0
2, 142716, Note_off_c, 0, 52, 0
2, 142744, Note_off_c, 0, 32, 0
2, 142780, Note_on_c, 0, 56, 77
2, 142788, Note_off_c, 0, 55, 0
2, 142792, Note_on_c, 0, 49, 57
2, 142832, Note_off_c, 0, 49, 0
2, 142868, Note_on_c, 0, 40, 49
2, 142872, Note_on_c, 0, 58, 67
2, 142928, Note_off_c, 0, 56, 0
2, 142976, Note_on_c, 0, 56, 48
2, 142980, Note_off_c, 0, 58, 0
2, 142980, Note_on_c, 0, 60, 75
2, 142984, Note_off_c, 0, 40, 0
2, 142984, Note_on_c, 0, 32, 62
2, 142996, Note_on_c, 0, 51, 73
2, 143032, Note_off_c, 0, 56, 0
2, 143032, Note_off_c, 0, 32, 0
2, 143052, Note_off_c, 0, 60, 0
2, 143068, Note_off_c, 0, 51, 0
2, 143080, Note_on_c, 0, 48, 66
2, 143144, Note_off_c, 0, 48, 0
2, 143192, Note_on_c, 0, 60, 70
2, 143204, Note_on_c, 0, 39, 44
2, 143208, Note_on_c, 0, 56, 43
2, 143228, Note_off_c, 0, 56, 0
2, 143248, Note_off_c, 0, 60, 0
2, 143272, Note_off_c, 0, 39, 0
2, 143288, Note_on_c, 0, 60, 86
2, 143304, Note_on_c, 0, 52, 62
2, 143304, Note_on_c, 0, 32, 62
2, 143304, Note_on_c, 0, 56, 37
2, 143336, Note_off_c, 0, 32, 0
2, 143376, Note_off_c, 0, 52, 0
2, 143384, Note_off_c, 0, 60, 0
2, 143384, Note_off_c, 0, 56, 0
2, 143400, Note_on_c, 0, 48, 59
2, 143460, Note_off_c, 0, 48, 0
2, 143504, Note_on_c, 0, 60, 82
2, 143520, Note_on_c, 0, 40, 40
2, 143528, Note_on_c, 0, 56, 45
2, 143548, Note_off_c, 0, 40, 0
2, 143552, Note_off_c, 0, 56, 0
2, 143560, Note_off_c, 0, 60, 0
2, 143600, Note_on_c, 0, 56, 60
2, 143608, Note_on_c, 0, 60, 70
2, 143616, Note_on_c, 0, 32, 64
2, 143620, Note_on_c, 0, 53, 68
2, 143644, Note_off_c, 0, 32, 0
2, 143692, Note_off_c, 0, 60, 0
2, 143704, Note_off_c, 0, 56, 0
2, 143704, Note_on_c, 0, 48, 64
2, 143712, Note_off_c, 0, 53, 0
2, 143772, Note_off_c, 0, 48, 0
2, 143816, Note_on_c, 0, 41, 55
2, 143824, Note_on_c, 0, 60, 74
2, 143844, Note_off_c, 0, 41, 0
2, 143844, Note_on_c, 0, 56, 47
2, 143868, Note_off_c, 0, 56, 0
2, 143872, Note_off_c, 0, 60, 0
2, 143928, Note_on_c, 0, 56, 59
2, 143928, Note_on_c, 0, 60, 75
2, 143932, Note_on_c, 0, 32, 67
2, 143940, Note_on_c, 0, 52, 66
2, 143984, Note_off_c, 0, 32, 0
2, 144024, Note_off_c, 0, 56, 0
2, 144024, Control_c, 0, 64, 24
2, 144028, Note_off_c, 0, 60, 0
2, 144028, Note_off_c, 0, 52, 0
2, 144036, Control_c, 0, 64, 40
2, 144044, Note_on_c, 0, 48, 60
2, 144048, Control_c, 0, 64, 56
2, 144060, Control_c, 0, 64, 72
2, 144072, Control_c, 0, 64, 88
2, 144112, Note_off_c, 0, 48, 0
2, 144124, Control_c, 0, 64, 104
2, 144148, Note_on_c, 0, 60, 80
2, 144152, Note_on_c, 0, 56, 55
2, 144152, Note_on_c, 0, 40, 54
2, 144188, Control_c, 0, 64, 56
2, 144196, Note_off_c, 0, 56, 0
2, 144196, Note_off_c, 0, 40, 0
2, 144200, Note_off_c, 0, 60, 0
2, 144200, Control_c, 0, 64, 0
2, 144248, Note_on_c, 0, 56, 65
2, 144256, Note_on_c, 0, 60, 74
2, 144260, Note_on_c, 0, 53, 74
2, 144268, Note_on_c, 0, 32, 63
2, 144280, Control_c, 0, 64, 24
2, 144292, Control_c, 0, 64, 56
2, 144304, Control_c, 0, 64, 88
2, 144316, Control_c, 0, 64, 104
2, 144328, Note_off_c, 0, 32, 0
2, 144348, Note_off_c, 0, 60, 0
2, 144388, Note_off_c, 0, 56, 0
2, 144388, Note_on_c, 0, 48, 45
2, 144392, Note_off_c, 0, 53, 0
2, 144396, Control_c, 0, 64, 88
2, 144428, Note_off_c, 0, 48, 0
2, 144472, Note_on_c, 0, 60, 75
2, 144472, Note_on_c, 0, 41, 53
2, 144488, Note_on_c, 0, 56, 30
2, 144500, Note_off_c, 0, 41, 0
2, 144516, Note_off_c, 0, 56, 0
2, 144520, Note_off_c, 0, 60, 0
2, 144524, Control_c, 0, 64, 24
2, 144536, Control_c, 0, 64, 0
2, 144584, Note_on_c, 0, 56, 52
2, 144592, Note_on_c, 0, 60, 63
2, 144592, Note_on_c, 0, 52, 64
2, 144596, Note_on_c, 0, 32, 55
2, 144616, Note_off_c, 0, 32, 0
2, 144616, Control_c, 0, 64, 24
2, 144628, Control_c, 0, 64, 56
2, 144640, Control_c, 0, 64, 88
2, 144652, Control_c, 0, 64, 104
2, 144688, Note_off_c, 0, 60, 0
2, 144692, Note_off_c, 0, 56, 0
2, 144696, Note_on_c, 0, 48, 59
2, 144708, Note_off_c, 0, 52, 0
2, 144732, Control_c, 0, 64, 127
2, 144752, Note_off_c, 0, 48, 0
2, 144796, Note_on_c, 0, 60, 78
2, 144824, Note_on_c, 0, 40, 41
2, 144848, Control_c, 0, 64, 72
2, 144856, Note_off_c, 0, 60, 0
2, 144856, Note_off_c, 0, 40, 0
2, 144856, Control_c, 0, 64, 24
2, 144872, Control_c, 0, 64, 0
2, 144916, Note_on_c, 0, 59, 72
2, 144920, Note_on_c, 0, 52, 56
2, 144932, Note_on_c, 0, 34, 50
2, 144952, Control_c, 0, 64, 24
2, 144964, Control_c, 0, 64, 72
2, 144976, Control_c, 0, 64, 104
2, 144984, Note_off_c, 0, 52, 0
2, 144984, Note_off_c, 0, 34, 0
2, 144988, Note_off_c, 0, 59, 0
2, 144988, Control_c, 0, 64, 127
2, 145016, Note_on_c, 0, 61, 71
2, 145016, Note_on_c, 0, 47, 58
2, 145032, Note_on_c, 0, 52, 17
2, 145056, Note_off_c, 0, 52, 0
2, 145076, Note_off_c, 0, 47, 0
2, 145092, Note_off_c, 0, 61, 0
2, 145112, Note_on_c, 0, 59, 77
2, 145112, Note_on_c, 0, 40, 46
2, 145156, Control_c, 0, 64, 104
2, 145168, Control_c, 0, 64, 56
2, 145184, Control_c, 0, 64, 0
2, 145192, Note_off_c, 0, 40, 0
2, 145216, Note_on_c, 0, 64, 81
2, 145224, Note_off_c, 0, 59, 0
2, 145224, Note_on_c, 0, 52, 60
2, 145228, Note_on_c, 0, 31, 55
2, 145260, Note_off_c, 0, 31, 0
2, 145260, Control_c, 0, 64, 40
2, 145272, Control_c, 0, 64, 72
2, 145288, Control_c, 0, 64, 104
2, 145300, Control_c, 0, 64, 127
2, 145304, Note_off_c, 0, 64, 0
2, 145328, Note_off_c, 0, 52, 0
2, 145416, Note_on_c, 0, 64, 77
2, 145440, Note_on_c, 0, 40, 39
2, 145480, Note_off_c, 0, 64, 0
2, 145480, Control_c, 0, 64, 56
2, 145496, Control_c, 0, 64, 0
2, 145512, Note_off_c, 0, 40, 0
2, 145520, Note_on_c, 0, 59, 70
2, 145528, Note_on_c, 0, 52, 58
2, 145540, Note_on_c, 0, 32, 57
2, 145572, Control_c, 0, 64, 24
2, 145584, Control_c, 0, 64, 72
2, 145588, Note_off_c, 0, 32, 0
2, 145592, Note_off_c, 0, 52, 0
2, 145596, Control_c, 0, 64, 127
2, 145604, Note_off_c, 0, 59, 0
2, 145624, Note_on_c, 0, 61, 72
2, 145632, Note_on_c, 0, 47, 33
2, 145684, Note_off_c, 0, 47, 0
2, 145700, Note_on_c, 0, 40, 33
2, 145720, Note_on_c, 0, 59, 80
2, 145728, Note_off_c, 0, 40, 0
2, 145760, Note_off_c, 0, 61, 0
2, 145776, Control_c, 0, 64, 104
2, 145788, Control_c, 0, 64, 56
2, 145800, Control_c, 0, 64, 0
2, 145832, Note_on_c, 0, 25, 69
2, 145832, Note_on_c, 0, 64, 83
2, 145836, Note_off_c, 0, 59, 0
2, 145836, Note_on_c, 0, 52, 70
2, 145852, Note_off_c, 0, 25, 0
2, 145864, Control_c, 0, 64, 40
2, 145880, Control_c, 0, 64, 88
2, 145892, Control_c, 0, 64, 127
2, 145904, Note_off_c, 0, 52, 0
2, 145948, Note_on_c, 0, 47, 58
2, 145964, Note_off_c, 0, 64, 0
2, 146016, Note_off_c, 0, 47, 0
2, 146048, Note_on_c, 0, 64, 83
2, 146060, Note_on_c, 0, 40, 44
2, 146088, Note_off_c, 0, 40, 0
2, 146116, Note_off_c, 0, 64, 0
2, 146136, Control_c, 0, 64, 88
2, 146152, Control_c, 0, 64, 24
2, 146164, Control_c, 0, 64, 0
2, 146168, Note_on_c, 0, 63, 86
2, 146176, Note_on_c, 0, 60, 72
2, 146184, Note_on_c, 0, 32, 51
2, 146224, Note_off_c, 0, 32, 0
2, 146256, Control_c, 0, 64, 40
2, 146268, Control_c, 0, 64, 88
2, 146280, Control_c, 0, 64, 127
2, 146340, Note_off_c, 0, 60, 0
2, 146368, Note_on_c, 0, 56, 49
2, 146428, Note_off_c, 0, 56, 0
2, 146448, Control_c, 0, 64, 88
2, 146460, Control_c, 0, 64, 56
2, 146472, Control_c, 0, 64, 24
2, 146480, Note_off_c, 0, 63, 0
2, 146488, Note_on_c, 0, 51, 35
2, 146500, Note_on_c, 0, 60, 80
2, 146512, Control_c, 0, 64, 56
2, 146516, Note_off_c, 0, 51, 0
2, 146520, Control_c, 0, 64, 88
2, 146532, Note_on_c, 0, 44, 58
2, 146536, Control_c, 0, 64, 127
2, 146560, Note_off_c, 0, 60, 0
2, 146596, Note_on_c, 0, 65, 76
2, 146600, Note_on_c, 0, 56, 38
2, 146628, Note_off_c, 0, 44, 0
2, 146676, Note_off_c, 0, 65, 0
2, 146680, Note_on_c, 0, 51, 52
2, 146684, Note_off_c, 0, 56, 0
2, 146692, Note_on_c, 0, 66, 79
2, 146708, Control_c, 0, 64, 104
2, 146720, Control_c, 0, 64, 72
2, 146732, Control_c, 0, 64, 24
2, 146744, Control_c, 0, 64, 0
2, 146764, Note_off_c, 0, 66, 0
2, 146772, Note_off_c, 0, 51, 0
2, 146800, Note_on_c, 0, 61, 62
2, 146804, Note_on_c, 0, 65, 87
2, 146808, Note_on_c, 0, 44, 65
2, 146884, Note_on_c, 0, 56, 57
2, 146896, Note_off_c, 0, 44, 0
2, 146904, Note_off_c, 0, 65, 0
2, 146968, Note_off_c, 0, 56, 0
2, 147008, Note_on_c, 0, 65, 78
2, 147016, Note_on_c, 0, 53, 48
2, 147044, Note_off_c, 0, 53, 0
2, 147064, Note_off_c, 0, 65, 0
2, 147096, Note_on_c, 0, 44, 55
2, 147104, Note_on_c, 0, 65, 75
2, 147176, Note_off_c, 0, 44, 0
2, 147176, Note_on_c, 0, 56, 51
2, 147208, Control_c, 0, 64, 24
2, 147216, Note_on_c, 0, 67, 78
2, 147228, Note_off_c, 0, 65, 0
2, 147236, Control_c, 0, 64, 40
2, 147260, Note_on_c, 0, 53, 55
2, 147284, Note_off_c, 0, 56, 0
2, 147304, Note_on_c, 0, 68, 80
2, 147312, Note_off_c, 0, 61, 0
2, 147336, Note_off_c, 0, 67, 0
2, 147336, Note_off_c, 0, 53, 0
2, 147336, Control_c, 0, 64, 0
2, 147376, Note_off_c, 0, 68, 0
2, 147396, Note_on_c, 0, 44, 57
2, 147420, Note_on_c, 0, 67, 92
2, 147428, Note_on_c, 0, 64, 66
2, 147428, Control_c, 0, 64, 40
2, 147444, Control_c, 0, 64, 88
2, 147456, Control_c, 0, 64, 127
2, 147464, Note_off_c, 0, 44, 0
2, 147496, Control_c, 0, 64, 72
2, 147500, Note_off_c, 0, 67, 0
2, 147508, Control_c, 0, 64, 40
2, 147520, Control_c, 0, 64, 0
2, 147544, Note_on_c, 0, 61, 26
2, 147560, Note_off_c, 0, 64, 0
2, 147568, Note_off_c, 0, 61, 0
2, 147624, Note_on_c, 0, 64, 66
2, 147624, Note_on_c, 0, 67, 79
2, 147648, Control_c, 0, 64, 56
2, 147660, Control_c, 0, 64, 88
2, 147660, Note_on_c, 0, 52, 44
2, 147672, Control_c, 0, 64, 104
2, 147676, Note_off_c, 0, 64, 0
2, 147680, Note_off_c, 0, 67, 0
2, 147708, Note_off_c, 0, 52, 0
2, 147728, Note_on_c, 0, 67, 70
2, 147736, Note_on_c, 0, 44, 58
2, 147736, Note_on_c, 0, 64, 59
2, 147740, Control_c, 0, 64, 88
2, 147768, Control_c, 0, 64, 72
2, 147780, Control_c, 0, 64, 56
2, 147792, Note_off_c, 0, 44, 0
2, 147820, Note_off_c, 0, 67, 0
2, 147832, Note_on_c, 0, 68, 75
2, 147832, Control_c, 0, 64, 72
2, 147844, Control_c, 0, 64, 88
2, 147856, Control_c, 0, 64, 104
2, 147864, Note_on_c, 0, 52, 42
2, 147880, Note_on_c, 0, 61, 29
2, 147908, Note_off_c, 0, 61, 0
2, 147912, Note_on_c, 0, 70, 77
2, 147932, Note_off_c, 0, 64, 0
2, 147960, Control_c, 0, 64, 40
2, 147964, Note_off_c, 0, 68, 0
2, 147972, Control_c, 0, 64, 0
2, 148008, Note_off_c, 0, 52, 0
2, 148008, Note_off_c, 0, 70, 0
2, 148032, Note_on_c, 0, 44, 56
2, 148036, Note_on_c, 0, 72, 72
2, 148040, Note_on_c, 0, 63, 69
2, 148040, Note_on_c, 0, 68, 63
2, 148084, Note_off_c, 0, 44, 0
2, 148100, Control_c, 0, 64, 24
2, 148112, Control_c, 0, 64, 40
2, 148116, Note_off_c, 0, 72, 0
2, 148116, Note_off_c, 0, 68, 0
2, 148124, Control_c, 0, 64, 56
2, 148136, Note_off_c, 0, 63, 0
2, 148144, Note_on_c, 0, 60, 51
2, 148152, Control_c, 0, 64, 72
2, 148164, Control_c, 0, 64, 88
2, 148192, Control_c, 0, 64, 104
2, 148200, Note_off_c, 0, 60, 0
2, 148248, Note_on_c, 0, 72, 80
2, 148256, Note_on_c, 0, 51, 51
2, 148280, Control_c, 0, 64, 72
2, 148296, Note_off_c, 0, 72, 0
2, 148296, Control_c, 0, 64, 0
2, 148316, Note_off_c, 0, 51, 0
2, 148348, Note_on_c, 0, 72, 83
2, 148356, Note_on_c, 0, 64, 70
2, 148368, Note_on_c, 0, 44, 65
2, 148384, Control_c, 0, 64, 56
2, 148396, Control_c, 0, 64, 88
2, 148404, Note_off_c, 0, 64, 0
2, 148408, Note_off_c, 0, 44, 0
2, 148412, Control_c, 0, 64, 104
2, 148424, Note_off_c, 0, 72, 0
2, 148424, Control_c, 0, 64, 127
2, 148488, Note_on_c, 0, 60, 40
2, 148548, Note_off_c, 0, 60, 0
2, 148560, Note_on_c, 0, 72, 75
2, 148568, Note_on_c, 0, 68, 42
2, 148572, Note_on_c, 0, 52, 55
2, 148588, Note_off_c, 0, 72, 0
2, 148596, Note_off_c, 0, 68, 0
2, 148600, Note_off_c, 0, 52, 0
2, 148600, Control_c, 0, 64, 104
2, 148616, Control_c, 0, 64, 40
2, 148632, Control_c, 0, 64, 0
2, 148664, Note_on_c, 0, 68, 69
2, 148664, Note_on_c, 0, 72, 80
2, 148680, Note_on_c, 0, 44, 73
2, 148696, Control_c, 0, 64, 24
2, 148700, Note_on_c, 0, 65, 26
2, 148708, Control_c, 0, 64, 72
2, 148720, Control_c, 0, 64, 127
2, 148740, Note_off_c, 0, 44, 0
2, 148744, Note_off_c, 0, 65, 0
2, 148756, Note_off_c, 0, 72, 0
2, 148760, Note_off_c, 0, 68, 0
2, 148788, Note_on_c, 0, 60, 57
2, 148864, Note_off_c, 0, 60, 0
2, 148880, Note_on_c, 0, 72, 84
2, 148880, Note_on_c, 0, 68, 62
2, 148888, Note_on_c, 0, 53, 49
2, 148912, Note_off_c, 0, 53, 0
2, 148924, Note_off_c, 0, 68, 0
2, 148932, Note_off_c, 0, 72, 0
2, 148952, Control_c, 0, 64, 88
2, 148968, Control_c, 0, 64, 0
2, 148988, Note_on_c, 0, 72, 87
2, 148988, Note_on_c, 0, 44, 71
2, 148992, Note_on_c, 0, 68, 68
2, 148996, Note_on_c, 0, 64, 83
2, 149032, Control_c, 0, 64, 24
2, 149040, Control_c, 0, 64, 72
2, 149052, Note_off_c, 0, 44, 0
2, 149052, Note_off_c, 0, 64, 0
2, 149056, Control_c, 0, 64, 127
2, 149080, Note_off_c, 0, 72, 0
2, 149084, Note_off_c, 0, 68, 0
2, 149120, Note_on_c, 0, 60, 48
2, 149176, Note_off_c, 0, 60, 0
2, 149200, Note_on_c, 0, 72, 80
2, 149208, Note_on_c, 0, 52, 54
2, 149208, Note_on_c, 0, 68, 56
2, 149236, Note_off_c, 0, 68, 0
2, 149244, Note_off_c, 0, 72, 0
2, 149252, Note_off_c, 0, 52, 0
2, 149252, Control_c, 0, 64, 88
2, 149264, Control_c, 0, 64, 24
2, 149276, Control_c, 0, 64, 0
2, 149304, Note_on_c, 0, 72, 82
2, 149304, Note_on_c, 0, 68, 67
2, 149308, Note_on_c, 0, 65, 76
2, 149320, Note_on_c, 0, 44, 73
2, 149336, Control_c, 0, 64, 40
2, 149352, Control_c, 0, 64, 88
2, 149368, Control_c, 0, 64, 127
2, 149376, Note_off_c, 0, 44, 0
2, 149404, Note_off_c, 0, 65, 0
2, 149408, Note_off_c, 0, 72, 0
2, 149416, Note_off_c, 0, 68, 0
2, 149424, Note_on_c, 0, 60, 53
2, 149504, Note_off_c, 0, 60, 0
2, 149528, Note_on_c, 0, 53, 56
2, 149532, Note_on_c, 0, 68, 58
2, 149532, Note_on_c, 0, 72, 73
2, 149564, Note_off_c, 0, 72, 0
2, 149572, Note_off_c, 0, 53, 0
2, 149584, Note_off_c, 0, 68, 0
2, 149584, Control_c, 0, 64, 104
2, 149596, Control_c, 0, 64, 40
2, 149608, Control_c, 0, 64, 0
2, 149640, Note_on_c, 0, 72, 89
2, 149640, Note_on_c, 0, 44, 67
2, 149648, Note_on_c, 0, 64, 74
2, 149676, Control_c, 0, 64, 24
2, 149684, Note_off_c, 0, 44, 0
2, 149688, Control_c, 0, 64, 72
2, 149704, Control_c, 0, 64, 127
2, 149740, Note_off_c, 0, 72, 0
2, 149744, Note_on_c, 0, 60, 59
2, 149752, Note_off_c, 0, 64, 0
2, 149808, Note_off_c, 0, 60, 0
2, 149832, Note_on_c, 0, 72, 78
2, 149860, Note_on_c, 0, 52, 47
2, 149896, Note_off_c, 0, 52, 0
2, 149896, Control_c, 0, 64, 72
2, 149904, Note_off_c, 0, 72, 0
2, 149908, Control_c, 0, 64, 0
2, 149952, Note_on_c, 0, 71, 78
2, 149956, Note_on_c, 0, 64, 62
2, 149972, Note_on_c, 0, 44, 47
2, 149992, Note_off_c, 0, 44, 0
2, 150000, Control_c, 0, 64, 56
2, 150012, Control_c, 0, 64, 104
2, 150016, Note_off_c, 0, 64, 0
2, 150024, Control_c, 0, 64, 127
2, 150028, Note_off_c, 0, 71, 0
2, 150052, Note_on_c, 0, 73, 73
2, 150056, Note_on_c, 0, 59, 41
2, 150116, Note_off_c, 0, 59, 0
2, 150132, Note_off_c, 0, 73, 0
2, 150140, Note_on_c, 0, 52, 58
2, 150152, Note_on_c, 0, 71, 82
2, 150192, Control_c, 0, 64, 104
2, 150204, Control_c, 0, 64, 40
2, 150216, Control_c, 0, 64, 0
2, 150240, Note_off_c, 0, 52, 0
2, 150248, Note_off_c, 0, 71, 0
2, 150260, Note_on_c, 0, 76, 85
2, 150268, Note_on_c, 0, 43, 56
2, 150272, Note_on_c, 0, 64, 64
2, 150296, Control_c, 0, 64, 24
2, 150304, Note_off_c, 0, 43, 0
2, 150308, Control_c, 0, 64, 72
2, 150320, Control_c, 0, 64, 127
2, 150348, Note_off_c, 0, 64, 0
2, 150356, Note_off_c, 0, 76, 0
2, 150376, Note_on_c, 0, 59, 51
2, 150420, Note_off_c, 0, 59, 0
2, 150468, Note_on_c, 0, 76, 78
2, 150496, Note_on_c, 0, 52, 36
2, 150516, Control_c, 0, 64, 88
2, 150528, Note_off_c, 0, 76, 0
2, 150528, Control_c, 0, 64, 24
2, 150536, Control_c, 0, 64, 0
2, 150568, Note_on_c, 0, 71, 78
2, 150576, Note_off_c, 0, 52, 0
2, 150580, Note_on_c, 0, 44, 57
2, 150580, Note_on_c, 0, 64, 55
2, 150604, Control_c, 0, 64, 40
2, 150616, Control_c, 0, 64, 88
2, 150632, Control_c, 0, 64, 127
2, 150648, Note_off_c, 0, 71, 0
2, 150648, Note_off_c, 0, 44, 0
2, 150668, Note_on_c, 0, 73, 73
2, 150680, Note_on_c, 0, 59, 57
2, 150708, Note_off_c, 0, 64, 0
2, 150736, Note_off_c, 0, 59, 0
2, 150760, Note_off_c, 0, 73, 0
2, 150768, Note_on_c, 0, 71, 82
2, 150840, Control_c, 0, 64, 88
2, 150848, Note_off_c, 0, 71, 0
2, 150852, Control_c, 0, 64, 24
2, 150864, Control_c, 0, 64, 0
2, 150872, Note_on_c, 0, 76, 84
2, 150872, Note_on_c, 0, 40, 59
2, 150880, Note_on_c, 0, 64, 63
2, 150896, Note_off_c, 0, 40, 0
2, 150916, Control_c, 0, 64, 56
2, 150928, Control_c, 0, 64, 88
2, 150940, Note_off_c, 0, 64, 0
2, 150940, Control_c, 0, 64, 127
2, 150968, Note_off_c, 0, 76, 0
2, 150988, Note_on_c, 0, 59, 50
2, 151064, Note_off_c, 0, 59, 0
2, 151076, Note_on_c, 0, 76, 75
2, 151080, Note_on_c, 0, 52, 50
2, 151108, Note_off_c, 0, 52, 0
2, 151132, Note_off_c, 0, 76, 0
2, 151132, Control_c, 0, 64, 104
2, 151144, Control_c, 0, 64, 40
2, 151160, Control_c, 0, 64, 0
2, 151192, Note_on_c, 0, 75, 79
2, 151192, Note_on_c, 0, 72, 74
2, 151200, Note_on_c, 0, 44, 59
2, 151224, Note_off_c, 0, 44, 0
2, 151240, Control_c, 0, 64, 56
2, 151252, Control_c, 0, 64, 104
2, 151264, Control_c, 0, 64, 127
2, 151280, Note_off_c, 0, 72, 0
2, 151300, Note_on_c, 0, 60, 56
2, 151384, Note_on_c, 0, 56, 62
2, 151400, Note_off_c, 0, 60, 0
2, 151456, Note_off_c, 0, 75, 0
2, 151456, Control_c, 0, 64, 72
2, 151464, Note_off_c, 0, 56, 0
2, 151472, Control_c, 0, 64, 24
2, 151484, Control_c, 0, 64, 0
2, 151496, Note_on_c, 0, 76, 82
2, 151496, Note_on_c, 0, 73, 73
2, 151504, Note_on_c, 0, 49, 58
2, 151548, Control_c, 0, 64, 56
2, 151556, Note_off_c, 0, 49, 0
2, 151560, Control_c, 0, 64, 104
2, 151576, Note_off_c, 0, 73, 0
2, 151576, Control_c, 0, 64, 127
2, 151596, Note_on_c, 0, 71, 77
2, 151604, Note_on_c, 0, 64, 44
2, 151660, Note_off_c, 0, 64, 0
2, 151676, Note_off_c, 0, 71, 0
2, 151696, Note_on_c, 0, 69, 74
2, 151720, Note_on_c, 0, 57, 45
2, 151728, Control_c, 0, 64, 104
2, 151740, Control_c, 0, 64, 56
2, 151752, Control_c, 0, 64, 0
2, 151764, Note_off_c, 0, 69, 0
2, 151776, Note_off_c, 0, 76, 0
2, 151792, Control_c, 0, 64, 40
2, 151800, Note_off_c, 0, 57, 0
2, 151800, Note_on_c, 0, 49, 56
2, 151800, Note_on_c, 0, 73, 73
2, 151800, Note_on_c, 0, 76, 46
2, 151804, Control_c, 0, 64, 72
2, 151816, Control_c, 0, 64, 104
2, 151832, Control_c, 0, 64, 127
2, 151848, Note_off_c, 0, 49, 0
2, 151900, Note_on_c, 0, 71, 74
2, 151912, Note_on_c, 0, 64, 43
2, 151936, Note_off_c, 0, 76, 0
2, 151952, Note_off_c, 0, 73, 0
2, 151976, Note_off_c, 0, 64, 0
2, 151988, Note_off_c, 0, 71, 0
2, 151992, Note_on_c, 0, 57, 47
2, 152000, Note_on_c, 0, 69, 72
2, 152048, Note_off_c, 0, 69, 0
2, 152076, Control_c, 0, 64, 56
2, 152088, Control_c, 0, 64, 0
2, 152104, Note_off_c, 0, 57, 0
2, 152104, Note_on_c, 0, 75, 85
2, 152104, Note_on_c, 0, 51, 60
2, 152108, Note_on_c, 0, 67, 81
2, 152168, Note_off_c, 0, 67, 0
2, 152168, Control_c, 0, 64, 56
2, 152180, Control_c, 0, 64, 104
2, 152192, Control_c, 0, 64, 127
2, 152208, Note_on_c, 0, 61, 40
2, 152216, Note_on_c, 0, 70, 70
2, 152260, Note_off_c, 0, 75, 0
2, 152280, Note_off_c, 0, 51, 0
2, 152284, Note_on_c, 0, 55, 58
2, 152304, Note_off_c, 0, 70, 0
2, 152312, Note_off_c, 0, 55, 0
2, 152320, Note_off_c, 0, 61, 0
2, 152320, Note_on_c, 0, 63, 73
2, 152372, Note_off_c, 0, 63, 0
2, 152400, Control_c, 0, 64, 104
2, 152412, Control_c, 0, 64, 24
2, 152424, Note_on_c, 0, 44, 70
2, 152424, Control_c, 0, 64, 0
2, 152432, Note_on_c, 0, 75, 81
2, 152436, Note_on_c, 0, 72, 83
2, 152472, Note_off_c, 0, 44, 0
2, 152488, Control_c, 0, 64, 56
2, 152500, Control_c, 0, 64, 104
2, 152516, Control_c, 0, 64, 127
2, 152524, Note_off_c, 0, 72, 0
2, 152536, Note_on_c, 0, 70, 71
2, 152548, Note_off_c, 0, 75, 0
2, 152552, Note_on_c, 0, 60, 50
2, 152632, Note_on_c, 0, 68, 63
2, 152636, Note_off_c, 0, 60, 0
2, 152636, Note_on_c, 0, 56, 46
2, 152640, Note_off_c, 0, 70, 0
2, 152688, Note_off_c, 0, 68, 0
2, 152696, Control_c, 0, 64, 104
2, 152712, Note_off_c, 0, 56, 0
2, 152712, Control_c, 0, 64, 0
2, 152736, Note_on_c, 0, 76, 96
2, 152740, Note_on_c, 0, 73, 81
2, 152748, Note_on_c, 0, 49, 73
2, 152796, Control_c, 0, 64, 72
2, 152800, Note_off_c, 0, 49, 0
2, 152808, Control_c, 0, 64, 127
2, 152828, Note_off_c, 0, 73, 0
2, 152848, Note_on_c, 0, 64, 58
2, 152856, Note_on_c, 0, 71, 73
2, 152920, Note_off_c, 0, 64, 0
2, 152936, Note_off_c, 0, 71, 0
2, 152940, Note_on_c, 0, 57, 44
2, 152964, Note_on_c, 0, 69, 63
2, 152992, Note_off_c, 0, 57, 0
2, 153032, Note_off_c, 0, 69, 0
2, 153064, Note_on_c, 0, 73, 65
2, 153068, Note_on_c, 0, 49, 48
2, 153088, Note_off_c, 0, 49, 0
2, 153160, Note_on_c, 0, 64, 51
2, 153168, Note_on_c, 0, 71, 62
2, 153176, Note_off_c, 0, 73, 0
2, 153244, Note_off_c, 0, 76, 0
2, 153244, Note_off_c, 0, 64, 0
2, 153248, Note_off_c, 0, 71, 0
2, 153264, Note_on_c, 0, 69, 65
2, 153304, Note_off_c, 0, 69, 0
2, 153368, Control_c, 0, 64, 72
2, 153376, Note_on_c, 0, 75, 80
2, 153380, Control_c, 0, 64, 0
2, 153380, Note_on_c, 0, 67, 74
2, 153392, Note_on_c, 0, 51, 61
2, 153440, Note_off_c, 0, 67, 0
2, 153460, Control_c, 0, 64, 24
2, 153472, Control_c, 0, 64, 72
2, 153472, Note_on_c, 0, 61, 34
2, 153484, Control_c, 0, 64, 127
2, 153492, Note_on_c, 0, 70, 64
2, 153516, Note_off_c, 0, 75, 0
2, 153540, Note_on_c, 0, 55, 49
2, 153564, Note_off_c, 0, 61, 0
2, 153564, Note_off_c, 0, 55, 0
2, 153576, Note_off_c, 0, 70, 0
2, 153584, Note_off_c, 0, 51, 0
2, 153588, Note_on_c, 0, 63, 69
2, 153640, Note_off_c, 0, 63, 0
2, 153668, Control_c, 0, 64, 104
2, 153676, Note_on_c, 0, 44, 62
2, 153684, Control_c, 0, 64, 24
2, 153692, Note_on_c, 0, 75, 82
2, 153696, Control_c, 0, 64, 0
2, 153696, Note_on_c, 0, 72, 81
2, 153728, Note_off_c, 0, 44, 0
2, 153748, Control_c, 0, 64, 56
2, 153760, Control_c, 0, 64, 104
2, 153776, Control_c, 0, 64, 127
2, 153792, Note_off_c, 0, 72, 0
2, 153796, Note_on_c, 0, 70, 68
2, 153796, Note_on_c, 0, 60, 56
2, 153816, Note_off_c, 0, 75, 0
2, 153884, Note_on_c, 0, 68, 60
2, 153888, Note_on_c, 0, 56, 51
2, 153896, Note_off_c, 0, 60, 0
2, 153904, Note_off_c, 0, 70, 0
2, 153936, Note_off_c, 0, 68, 0
2, 153952, Note_off_c, 0, 56, 0
2, 153968, Control_c, 0, 64, 72
2, 153980, Control_c, 0, 64, 0
2, 153984, Note_on_c, 0, 76, 87
2, 153984, Note_on_c, 0, 73, 77
2, 153996, Note_on_c, 0, 49, 59
2, 154032, Note_off_c, 0, 49, 0
2, 154032, Control_c, 0, 64, 24
2, 154044, Control_c, 0, 64, 72
2, 154056, Control_c, 0, 64, 127
2, 154076, Note_on_c, 0, 64, 58
2, 154092, Note_on_c, 0, 71, 79
2, 154112, Note_off_c, 0, 76, 0
2, 154148, Note_off_c, 0, 73, 0
2, 154168, Note_off_c, 0, 64, 0
2, 154176, Note_on_c, 0, 57, 43
2, 154180, Note_off_c, 0, 71, 0
2, 154188, Note_on_c, 0, 69, 77
2, 154220, Note_off_c, 0, 57, 0
2, 154244, Note_off_c, 0, 69, 0
2, 154288, Note_on_c, 0, 81, 89
2, 154288, Control_c, 0, 64, 72
2, 154300, Note_on_c, 0, 73, 80
2, 154300, Note_on_c, 0, 49, 75
2, 154304, Control_c, 0, 64, 24
2, 154340, Control_c, 0, 64, 88
2, 154352, Note_off_c, 0, 49, 0
2, 154352, Control_c, 0, 64, 127
2, 154400, Note_on_c, 0, 64, 49
2, 154400, Note_on_c, 0, 76, 75
2, 154412, Note_off_c, 0, 81, 0
2, 154412, Note_off_c, 0, 73, 0
2, 154480, Note_off_c, 0, 64, 0
2, 154496, Note_off_c, 0, 76, 0
2, 154496, Note_on_c, 0, 57, 42
2, 154512, Note_on_c, 0, 69, 52
2, 154516, Note_on_c, 0, 71, 48
2, 154528, Note_off_c, 0, 57, 0
2, 154544, Note_off_c, 0, 69, 0
2, 154544, Note_off_c, 0, 71, 0
2, 154600, Control_c, 0, 64, 104
2, 154612, Control_c, 0, 64, 24
2, 154620, Note_on_c, 0, 75, 82
2, 154624, Note_on_c, 0, 67, 76
2, 154624, Note_on_c, 0, 51, 69
2, 154624, Control_c, 0, 64, 0
2, 154676, Note_off_c, 0, 67, 0
2, 154704, Control_c, 0, 64, 56
2, 154716, Control_c, 0, 64, 104
2, 154720, Note_on_c, 0, 61, 35
2, 154724, Note_on_c, 0, 70, 67
2, 154728, Note_off_c, 0, 75, 0
2, 154728, Control_c, 0, 64, 127
2, 154796, Note_off_c, 0, 51, 0
2, 154796, Note_on_c, 0, 55, 53
2, 154808, Note_off_c, 0, 70, 0
2, 154820, Note_off_c, 0, 61, 0
2, 154820, Note_off_c, 0, 55, 0
2, 154820, Note_on_c, 0, 63, 77
2, 154880, Note_off_c, 0, 63, 0
2, 154924, Control_c, 0, 64, 72
2, 154936, Control_c, 0, 64, 0
2, 154944, Note_on_c, 0, 44, 60
2, 154944, Note_on_c, 0, 75, 81
2, 154944, Note_on_c, 0, 72, 79
2, 154984, Note_off_c, 0, 44, 0
2, 155012, Control_c, 0, 64, 40
2, 155024, Control_c, 0, 64, 88
2, 155036, Note_off_c, 0, 72, 0
2, 155036, Control_c, 0, 64, 127
2, 155040, Note_on_c, 0, 70, 71
2, 155056, Note_on_c, 0, 60, 51
2, 155064, Note_off_c, 0, 75, 0
2, 155128, Note_on_c, 0, 68, 69
2, 155148, Note_off_c, 0, 70, 0
2, 155152, Note_off_c, 0, 60, 0
2, 155152, Note_on_c, 0, 51, 53
2, 155200, Note_off_c, 0, 68, 0
2, 155208, Control_c, 0, 64, 88
2, 155220, Note_off_c, 0, 51, 0
2, 155220, Control_c, 0, 64, 0
2, 155236, Note_on_c, 0, 73, 77
2, 155240, Note_on_c, 0, 76, 85
2, 155240, Note_on_c, 0, 49, 72
2, 155296, Control_c, 0, 64, 24
2, 155300, Note_off_c, 0, 49, 0
2, 155312, Control_c, 0, 64, 88
2, 155324, Control_c, 0, 64, 127
2, 155344, Note_on_c, 0, 71, 82
2, 155344, Note_on_c, 0, 64, 41
2, 155368, Note_off_c, 0, 76, 0
2, 155400, Note_off_c, 0, 73, 0
2, 155412, Note_off_c, 0, 64, 0
2, 155424, Note_on_c, 0, 56, 44
2, 155440, Note_off_c, 0, 71, 0
2, 155440, Note_on_c, 0, 69, 83
2, 155448, Note_off_c, 0, 56, 0
2, 155476, Note_on_c, 0, 57, 24
2, 155492, Note_off_c, 0, 69, 0
2, 155536, Note_off_c, 0, 57, 0
2, 155540, Control_c, 0, 64, 72
2, 155548, Note_on_c, 0, 81, 93
2, 155548, Note_on_c, 0, 73, 86
2, 155552, Note_on_c, 0, 49, 67
2, 155552, Control_c, 0, 64, 0
2, 155612, Note_off_c, 0, 49, 0
2, 155616, Control_c, 0, 64, 72
2, 155632, Control_c, 0, 64, 127
2, 155656, Note_on_c, 0, 76, 74
2, 155660, Note_off_c, 0, 81, 0
2, 155660, Note_off_c, 0, 73, 0
2, 155660, Note_on_c, 0, 64, 43
2, 155704, Note_off_c, 0, 64, 0
2, 155740, Note_on_c, 0, 57, 38
2, 155752, Note_off_c, 0, 76, 0
2, 155760, Note_on_c, 0, 69, 52
2, 155808, Note_off_c, 0, 69, 0
2, 155840, Note_off_c, 0, 57, 0
2, 155852, Control_c, 0, 64, 88
2, 155864, Note_on_c, 0, 51, 59
2, 155864, Control_c, 0, 64, 24
2, 155868, Note_on_c, 0, 75, 81
2, 155876, Control_c, 0, 64, 0
2, 155904, Note_on_c, 0, 67, 28
2, 155940, Note_on_c, 0, 61, 49
2, 155944, Control_c, 0, 64, 56
2, 155956, Control_c, 0, 64, 104
2, 155968, Control_c, 0, 64, 127
2, 155988, Note_on_c, 0, 70, 63
2, 156000, Note_off_c, 0, 67, 0
2, 156044, Note_off_c, 0, 75, 0
2, 156072, Note_on_c, 0, 55, 47
2, 156076, Note_off_c, 0, 70, 0
2, 156084, Note_off_c, 0, 51, 0
2, 156100, Note_on_c, 0, 63, 69
2, 156112, Note_off_c, 0, 61, 0
2, 156148, Note_off_c, 0, 63, 0
2, 156156, Note_off_c, 0, 55, 0
2, 156160, Control_c, 0, 64, 88
2, 156176, Control_c, 0, 64, 0
2, 156180, Note_on_c, 0, 56, 51
2, 156184, Note_on_c, 0, 60, 52
2, 156188, Control_c, 0, 64, 88
2, 156192, Note_on_c, 0, 75, 77
2, 156196, Control_c, 0, 64, 127
2, 156196, Note_on_c, 0, 72, 77
2, 156204, Note_off_c, 0, 56, 0
2, 156208, Note_off_c, 0, 60, 0
2, 156288, Note_on_c, 0, 70, 62
2, 156316, Note_off_c, 0, 75, 0
2, 156324, Note_off_c, 0, 72, 0
2, 156384, Note_off_c, 0, 70, 0
2, 156384, Note_on_c, 0, 38, 50
2, 156396, Note_on_c, 0, 68, 50
2, 156480, Note_off_c, 0, 38, 0
2, 156480, Note_off_c, 0, 68, 0
2, 156480, Control_c, 0, 64, 88
2, 156492, Control_c, 0, 64, 56
2, 156504, Note_on_c, 0, 39, 55
2, 156504, Control_c, 0, 64, 24
2, 156508, Note_on_c, 0, 51, 60
2, 156512, Note_on_c, 0, 76, 86
2, 156512, Control_c, 0, 64, 40
2, 156516, Note_on_c, 0, 73, 73
2, 156528, Control_c, 0, 64, 72
2, 156544, Control_c, 0, 64, 104
2, 156552, Note_off_c, 0, 51, 0
2, 156552, Control_c, 0, 64, 127
2, 156564, Note_off_c, 0, 39, 0
2, 156612, Note_on_c, 0, 71, 70
2, 156620, Note_off_c, 0, 76, 0
2, 156632, Note_off_c, 0, 73, 0
2, 156696, Note_off_c, 0, 71, 0
2, 156704, Note_on_c, 0, 38, 45
2, 156708, Note_on_c, 0, 69, 66
2, 156752, Note_off_c, 0, 38, 0
2, 156772, Control_c, 0, 64, 88
2, 156784, Control_c, 0, 64, 40
2, 156800, Note_off_c, 0, 69, 0
2, 156800, Control_c, 0, 64, 0
2, 156816, Note_on_c, 0, 51, 65
2, 156820, Note_on_c, 0, 76, 90
2, 156820, Note_on_c, 0, 39, 52
2, 156824, Note_on_c, 0, 73, 76
2, 156836, Control_c, 0, 64, 88
2, 156848, Control_c, 0, 64, 127
2, 156864, Note_off_c, 0, 51, 0
2, 156868, Note_off_c, 0, 39, 0
2, 156928, Note_on_c, 0, 71, 68
2, 156948, Note_off_c, 0, 76, 0
2, 156972, Note_off_c, 0, 73, 0
2, 157012, Note_off_c, 0, 71, 0
2, 157012, Note_on_c, 0, 38, 38
2, 157024, Note_on_c, 0, 69, 70
2, 157076, Note_off_c, 0, 38, 0
2, 157088, Control_c, 0, 64, 88
2, 157104, Control_c, 0, 64, 40
2, 157112, Note_off_c, 0, 69, 0
2, 157124, Note_on_c, 0, 51, 64
2, 157132, Note_on_c, 0, 77, 92
2, 157132, Note_on_c, 0, 74, 80
2, 157136, Note_on_c, 0, 39, 52
2, 157140, Control_c, 0, 64, 127
2, 157172, Note_off_c, 0, 51, 0
2, 157176, Note_off_c, 0, 39, 0
2, 157232, Note_on_c, 0, 72, 84
2, 157248, Note_off_c, 0, 74, 0
2, 157252, Note_off_c, 0, 77, 0
2, 157328, Note_off_c, 0, 72, 0
2, 157328, Note_on_c, 0, 71, 71
2, 157328, Note_on_c, 0, 38, 44
2, 157360, Note_off_c, 0, 38, 0
2, 157412, Control_c, 0, 64, 104
2, 157424, Note_off_c, 0, 71, 0
2, 157424, Control_c, 0, 64, 56
2, 157436, Control_c, 0, 64, 40
2, 157440, Note_on_c, 0, 74, 77
2, 157440, Note_on_c, 0, 77, 92
2, 157440, Note_on_c, 0, 51, 65
2, 157448, Note_on_c, 0, 39, 50
2, 157448, Control_c, 0, 64, 56
2, 157460, Control_c, 0, 64, 104
2, 157472, Control_c, 0, 64, 127
2, 157476, Note_off_c, 0, 39, 0
2, 157484, Note_off_c, 0, 51, 0
2, 157536, Note_on_c, 0, 72, 81
2, 157560, Note_off_c, 0, 74, 0
2, 157568, Note_off_c, 0, 77, 0
2, 157632, Note_off_c, 0, 72, 0
2, 157632, Note_on_c, 0, 71, 72
2, 157640, Note_on_c, 0, 38, 54
2, 157688, Note_off_c, 0, 38, 0
2, 157708, Control_c, 0, 64, 104
2, 157712, Note_off_c, 0, 71, 0
2, 157716, Control_c, 0, 64, 56
2, 157728, Control_c, 0, 64, 40
2, 157728, Note_on_c, 0, 78, 93
2, 157736, Note_on_c, 0, 75, 86
2, 157740, Control_c, 0, 64, 72
2, 157744, Note_on_c, 0, 51, 61
2, 157756, Note_on_c, 0, 39, 47
2, 157756, Control_c, 0, 64, 127
2, 157776, Note_off_c, 0, 39, 0
2, 157788, Note_off_c, 0, 51, 0
2, 157832, Note_on_c, 0, 73, 77
2, 157848, Note_off_c, 0, 78, 0
2, 157856, Note_off_c, 0, 75, 0
2, 157920, Note_on_c, 0, 38, 45
2, 157932, Note_on_c, 0, 72, 82
2, 157936, Note_off_c, 0, 73, 0
2, 157952, Note_off_c, 0, 38, 0
2, 158012, Control_c, 0, 64, 104
2, 158016, Note_off_c, 0, 72, 0
2, 158024, Control_c, 0, 64, 72
2, 158036, Control_c, 0, 64, 56
2, 158036, Note_on_c, 0, 78, 91
2, 158040, Note_on_c, 0, 75, 82
2, 158048, Control_c, 0, 64, 88
2, 158060, Note_on_c, 0, 51, 61
2, 158064, Note_on_c, 0, 39, 54
2, 158064, Control_c, 0, 64, 127
2, 158096, Note_off_c, 0, 51, 0
2, 158104, Note_off_c, 0, 39, 0
2, 158144, Note_on_c, 0, 73, 75
2, 158160, Note_off_c, 0, 78, 0
2, 158172, Note_off_c, 0, 75, 0
2, 158224, Note_on_c, 0, 38, 54
2, 158248, Note_off_c, 0, 73, 0
2, 158248, Note_on_c, 0, 72, 84
2, 158256, Note_off_c, 0, 38, 0
2, 158296, Control_c, 0, 64, 88
2, 158304, Control_c, 0, 64, 0
2, 158328, Note_off_c, 0, 72, 0
2, 158344, Note_on_c, 0, 79, 96
2, 158348, Note_on_c, 0, 76, 90
2, 158352, Note_on_c, 0, 51, 65
2, 158356, Note_on_c, 0, 39, 55
2, 158368, Control_c, 0, 64, 56
2, 158384, Control_c, 0, 64, 127
2, 158396, Note_off_c, 0, 51, 0
2, 158396, Note_off_c, 0, 39, 0
2, 158436, Note_off_c, 0, 76, 0
2, 158436, Note_on_c, 0, 75, 86
2, 158460, Note_off_c, 0, 79, 0
2, 158540, Note_off_c, 0, 75, 0
2, 158540, Note_on_c, 0, 73, 75
2, 158544, Note_on_c, 0, 38, 52
2, 158592, Note_off_c, 0, 38, 0
2, 158620, Note_off_c, 0, 73, 0
2, 158624, Control_c, 0, 64, 56
2, 158640, Control_c, 0, 64, 0
2, 158652, Note_on_c, 0, 79, 92
2, 158656, Note_on_c, 0, 76, 92
2, 158660, Note_on_c, 0, 51, 58
2, 158664, Control_c, 0, 64, 72
2, 158672, Note_on_c, 0, 39, 54
2, 158672, Control_c, 0, 64, 127
2, 158704, Note_off_c, 0, 51, 0
2, 158712, Note_off_c, 0, 39, 0
2, 158736, Note_on_c, 0, 75, 82
2, 158768, Note_off_c, 0, 79, 0
2, 158768, Note_off_c, 0, 76, 0
2, 158832, Note_on_c, 0, 73, 71
2, 158848, Note_on_c, 0, 38, 54
2, 158864, Note_off_c, 0, 75, 0
2, 158896, Note_off_c, 0, 73, 0
2, 158920, Note_off_c, 0, 38, 0
2, 158928, Control_c, 0, 64, 104
2, 158944, Control_c, 0, 64, 0
2, 158952, Note_on_c, 0, 80, 88
2, 158960, Note_on_c, 0, 77, 86
2, 158960, Note_on_c, 0, 71, 84
2, 158972, Note_on_c, 0, 51, 61
2, 158972, Note_on_c, 0, 39, 57
2, 159008, Note_off_c, 0, 71, 0
2, 159008, Control_c, 0, 64, 88
2, 159020, Control_c, 0, 64, 127
2, 159024, Note_off_c, 0, 51, 0
2, 159040, Note_off_c, 0, 39, 0
2, 159052, Note_on_c, 0, 75, 65
2, 159076, Note_off_c, 0, 80, 0
2, 159084, Note_off_c, 0, 77, 0
2, 159136, Note_off_c, 0, 75, 0
2, 159136, Note_on_c, 0, 74, 80
2, 159168, Note_on_c, 0, 38, 54
2, 159216, Note_off_c, 0, 38, 0
2, 159228, Note_off_c, 0, 74, 0
2, 159240, Control_c, 0, 64, 104
2, 159252, Control_c, 0, 64, 0
2, 159252, Note_on_c, 0, 78, 80
2, 159252, Note_on_c, 0, 81, 93
2, 159260, Note_on_c, 0, 72, 85
2, 159268, Note_on_c, 0, 51, 65
2, 159280, Note_on_c, 0, 39, 55
2, 159288, Control_c, 0, 64, 88
2, 159300, Control_c, 0, 64, 127
2, 159316, Note_off_c, 0, 51, 0
2, 159332, Note_off_c, 0, 39, 0
2, 159348, Note_on_c, 0, 77, 51
2, 159380, Note_off_c, 0, 72, 0
2, 159388, Note_off_c, 0, 81, 0
2, 159436, Note_on_c, 0, 75, 78
2, 159440, Note_off_c, 0, 77, 0
2, 159440, Note_on_c, 0, 38, 62
2, 159444, Note_off_c, 0, 78, 0
2, 159516, Note_off_c, 0, 38, 0
2, 159536, Note_off_c, 0, 75, 0
2, 159548, Control_c, 0, 64, 72
2, 159548, Note_on_c, 0, 82, 87
2, 159552, Note_on_c, 0, 79, 81
2, 159556, Note_on_c, 0, 73, 82
2, 159556, Control_c, 0, 64, 0
2, 159568, Note_on_c, 0, 51, 67
2, 159568, Note_on_c, 0, 39, 59
2, 159584, Control_c, 0, 64, 72
2, 159596, Control_c, 0, 64, 127
2, 159616, Note_off_c, 0, 51, 0
2, 159640, Note_off_c, 0, 39, 0
2, 159652, Note_on_c, 0, 78, 77
2, 159676, Note_off_c, 0, 79, 0
2, 159680, Note_off_c, 0, 82, 0
2, 159700, Note_off_c, 0, 73, 0
2, 159740, Note_on_c, 0, 76, 78
2, 159744, Note_off_c, 0, 78, 0
2, 159764, Note_on_c, 0, 38, 59
2, 159824, Note_off_c, 0, 76, 0
2, 159824, Note_off_c, 0, 38, 0
2, 159840, Control_c, 0, 64, 0
2, 159844, Note_on_c, 0, 83, 100
2, 159844, Note_on_c, 0, 80, 86
2, 159852, Note_on_c, 0, 74, 89
2, 159868, Note_on_c, 0, 51, 67
2, 159872, Note_on_c, 0, 39, 53
2, 159872, Control_c, 0, 64, 56
2, 159888, Control_c, 0, 64, 127
2, 159912, Note_off_c, 0, 51, 0
2, 159924, Note_off_c, 0, 39, 0
2, 159936, Note_on_c, 0, 78, 71
2, 159960, Note_off_c, 0, 74, 0
2, 159964, Note_off_c, 0, 83, 0
2, 159992, Note_off_c, 0, 80, 0
2, 160032, Note_on_c, 0, 77, 80
2, 160040, Note_on_c, 0, 38, 60
2, 160048, Note_off_c, 0, 78, 0
2, 160100, Note_off_c, 0, 38, 0
2, 160112, Note_off_c, 0, 77, 0
2, 160144, Control_c, 0, 64, 24
2, 160144, Note_on_c, 0, 84, 82
2, 160152, Note_on_c, 0, 81, 84
2, 160160, Control_c, 0, 64, 0
2, 160160, Note_on_c, 0, 75, 85
2, 160164, Note_on_c, 0, 51, 71
2, 160168, Note_on_c, 0, 39, 67
2, 160168, Control_c, 0, 64, 24
2, 160184, Control_c, 0, 64, 104
2, 160192, Control_c, 0, 64, 127
2, 160208, Note_off_c, 0, 51, 0
2, 160224, Note_off_c, 0, 39, 0
2, 160248, Note_on_c, 0, 79, 74
2, 160252, Note_off_c, 0, 84, 0
2, 160280, Note_off_c, 0, 81, 0
2, 160284, Note_off_c, 0, 75, 0
2, 160340, Note_off_c, 0, 79, 0
2, 160340, Note_on_c, 0, 78, 79
2, 160352, Note_on_c, 0, 38, 63
2, 160404, Note_off_c, 0, 38, 0
2, 160416, Note_off_c, 0, 78, 0
2, 160420, Note_on_c, 0, 75, 26
2, 160440, Control_c, 0, 64, 72
2, 160452, Control_c, 0, 64, 0
2, 160464, Note_on_c, 0, 76, 70
2, 160464, Note_on_c, 0, 82, 88
2, 160464, Note_on_c, 0, 85, 91
2, 160476, Note_on_c, 0, 51, 71
2, 160476, Control_c, 0, 64, 40
2, 160476, Note_on_c, 0, 39, 65
2, 160488, Control_c, 0, 64, 104
2, 160504, Control_c, 0, 64, 127
2, 160512, Note_off_c, 0, 75, 0
2, 160536, Note_off_c, 0, 51, 0
2, 160552, Note_off_c, 0, 39, 0
2, 160564, Note_on_c, 0, 80, 85
2, 160608, Note_off_c, 0, 76, 0
2, 160608, Note_off_c, 0, 82, 0
2, 160608, Note_off_c, 0, 85, 0
2, 160656, Note_on_c, 0, 38, 55
2, 160664, Note_on_c, 0, 79, 75
2, 160692, Note_off_c, 0, 80, 0
2, 160720, Note_off_c, 0, 38, 0
2, 160740, Note_off_c, 0, 79, 0
2, 160744, Control_c, 0, 64, 72
2, 160756, Note_on_c, 0, 82, 80
2, 160760, Note_on_c, 0, 87, 95
2, 160760, Note_on_c, 0, 85, 80
2, 160760, Control_c, 0, 64, 0
2, 160768, Note_on_c, 0, 51, 77
2, 160776, Note_on_c, 0, 39, 70
2, 160800, Control_c, 0, 64, 40
2, 160808, Control_c, 0, 64, 127
2, 160816, Note_off_c, 0, 51, 0
2, 160840, Note_off_c, 0, 39, 0
2, 160848, Note_on_c, 0, 79, 78
2, 160888, Note_off_c, 0, 82, 0
2, 160932, Note_off_c, 0, 79, 0
2, 160948, Note_on_c, 0, 75, 80
2, 160996, Note_off_c, 0, 87, 0
2, 160996, Note_off_c, 0, 85, 0
2, 161040, Control_c, 0, 64, 24
2, 161052, Control_c, 0, 64, 0
2, 161056, Note_on_c, 0, 84, 105
2, 161056, Note_on_c, 0, 80, 85
2, 161072, Note_on_c, 0, 44, 73
2, 161076, Note_on_c, 0, 32, 73
2, 161092, Note_off_c, 0, 75, 0
2, 161104, Note_off_c, 0, 80, 0
2, 161116, Note_off_c, 0, 44, 0
2, 161116, Control_c, 0, 64, 127
2, 161132, Note_off_c, 0, 32, 0
2, 161136, Note_off_c, 0, 84, 0
2, 161284, Note_on_c, 0, 44, 71
2, 161376, Control_c, 0, 64, 56
2, 161388, Note_on_c, 0, 56, 71
2, 161388, Control_c, 0, 64, 0
2, 161388, Note_on_c, 0, 87, 85
2, 161392, Note_on_c, 0, 78, 73
2, 161396, Control_c, 0, 64, 40
2, 161408, Control_c, 0, 64, 104
2, 161424, Control_c, 0, 64, 127
2, 161432, Note_off_c, 0, 56, 0
2, 161440, Note_off_c, 0, 44, 0
2, 161444, Note_off_c, 0, 78, 0
2, 161472, Note_off_c, 0, 87, 0
2, 161492, Note_on_c, 0, 89, 87
2, 161556, Note_off_c, 0, 89, 0
2, 161568, Note_on_c, 0, 32, 60
2, 161584, Note_on_c, 0, 87, 84
2, 161652, Control_c, 0, 64, 88
2, 161668, Control_c, 0, 64, 0
2, 161672, Note_off_c, 0, 87, 0
2, 161680, Note_on_c, 0, 80, 84
2, 161680, Note_on_c, 0, 77, 73
2, 161684, Note_on_c, 0, 44, 70
2, 161692, Control_c, 0, 64, 24
2, 161696, Note_off_c, 0, 32, 0
2, 161704, Control_c, 0, 64, 88
2, 161716, Control_c, 0, 64, 127
2, 161728, Note_off_c, 0, 44, 0
2, 161760, Note_off_c, 0, 80, 0
2, 161776, Note_off_c, 0, 77, 0
2, 161780, Note_on_c, 0, 82, 79
2, 161844, Note_on_c, 0, 44, 65
2, 161856, Note_off_c, 0, 82, 0
2, 161872, Note_on_c, 0, 80, 86
2, 161936, Control_c, 0, 64, 88
2, 161952, Control_c, 0, 64, 0
2, 161964, Note_off_c, 0, 80, 0
2, 161964, Note_on_c, 0, 56, 74
2, 161972, Control_c, 0, 64, 56
2, 161976, Note_on_c, 0, 76, 78
2, 161984, Control_c, 0, 64, 127
2, 161988, Note_on_c, 0, 85, 83
2, 162008, Note_off_c, 0, 56, 0
2, 162024, Note_off_c, 0, 44, 0
2, 162048, Note_off_c, 0, 76, 0
2, 162068, Note_on_c, 0, 87, 84
2, 162076, Note_off_c, 0, 85, 0
2, 162144, Note_off_c, 0, 87, 0
2, 162164, Note_on_c, 0, 85, 80
2, 162176, Note_on_c, 0, 32, 58
2, 162204, Control_c, 0, 64, 40
2, 162216, Control_c, 0, 64, 0
2, 162256, Note_off_c, 0, 85, 0
2, 162272, Note_on_c, 0, 84, 93
2, 162272, Note_on_c, 0, 75, 75
2, 162280, Control_c, 0, 64, 127
2, 162288, Note_on_c, 0, 44, 71
2, 162312, Note_off_c, 0, 32, 0
2, 162336, Note_off_c, 0, 44, 0
2, 162348, Note_off_c, 0, 75, 0
2, 162368, Note_on_c, 0, 85, 82
2, 162400, Note_off_c, 0, 84, 0
2, 162464, Note_on_c, 0, 84, 81
2, 162476, Note_on_c, 0, 44, 64
2, 162480, Note_off_c, 0, 85, 0
2, 162528, Note_off_c, 0, 84, 0
2, 162540, Control_c, 0, 64, 72
2, 162552, Control_c, 0, 64, 0
2, 162564, Note_on_c, 0, 87, 90
2, 162576, Note_on_c, 0, 78, 78
2, 162576, Control_c, 0, 64, 72
2, 162576, Note_on_c, 0, 56, 72
2, 162588, Control_c, 0, 64, 127
2, 162624, Note_off_c, 0, 78, 0
2, 162624, Note_off_c, 0, 56, 0
2, 162628, Note_off_c, 0, 44, 0
2, 162652, Note_off_c, 0, 87, 0
2, 162672, Note_on_c, 0, 89, 88
2, 162736, Note_off_c, 0, 89, 0
2, 162760, Control_c, 0, 64, 104
2, 162764, Note_on_c, 0, 32, 70
2, 162764, Note_on_c, 0, 87, 86
2, 162768, Control_c, 0, 64, 56
2, 162784, Control_c, 0, 64, 88
2, 162792, Control_c, 0, 64, 127
2, 162848, Note_off_c, 0, 87, 0
2, 162864, Note_on_c, 0, 80, 85
2, 162868, Note_on_c, 0, 44, 69
2, 162868, Note_on_c, 0, 77, 71
2, 162896, Note_off_c, 0, 32, 0
2, 162912, Note_off_c, 0, 44, 0
2, 162932, Note_off_c, 0, 77, 0
2, 162944, Note_off_c, 0, 80, 0
2, 162956, Control_c, 0, 64, 104
2, 162960, Note_on_c, 0, 82, 79
2, 162968, Control_c, 0, 64, 40
2, 162980, Control_c, 0, 64, 24
2, 162992, Control_c, 0, 64, 72
2, 163004, Control_c, 0, 64, 127
2, 163024, Note_on_c, 0, 44, 64
2, 163052, Note_off_c, 0, 82, 0
2, 163052, Note_on_c, 0, 80, 81
2, 163104, Note_off_c, 0, 44, 0
2, 163116, Control_c, 0, 64, 88
2, 163128, Control_c, 0, 64, 24
2, 163136, Control_c, 0, 64, 40
2, 163140, Note_off_c, 0, 80, 0
2, 163152, Note_on_c, 0, 56, 69
2, 163152, Control_c, 0, 64, 127
2, 163156, Note_on_c, 0, 85, 87
2, 163156, Note_on_c, 0, 76, 76
2, 163192, Note_off_c, 0, 56, 0
2, 163212, Note_off_c, 0, 76, 0
2, 163248, Note_off_c, 0, 85, 0
2, 163252, Note_on_c, 0, 87, 85
2, 163328, Note_off_c, 0, 87, 0
2, 163344, Note_on_c, 0, 32, 50
2, 163344, Note_on_c, 0, 85, 81
2, 163348, Control_c, 0, 64, 56
2, 163360, Control_c, 0, 64, 0
2, 163432, Control_c, 0, 64, 127
2, 163444, Note_on_c, 0, 44, 69
2, 163448, Note_on_c, 0, 84, 94
2, 163452, Note_off_c, 0, 32, 0
2, 163456, Note_on_c, 0, 75, 73
2, 163472, Note_off_c, 0, 85, 0
2, 163484, Note_off_c, 0, 44, 0
2, 163516, Note_off_c, 0, 75, 0
2, 163544, Note_on_c, 0, 85, 84
2, 163556, Note_off_c, 0, 84, 0
2, 163648, Note_on_c, 0, 84, 89
2, 163656, Note_on_c, 0, 56, 61
2, 163672, Note_off_c, 0, 85, 0
2, 163704, Note_off_c, 0, 84, 0
2, 163704, Control_c, 0, 64, 40
2, 163716, Control_c, 0, 64, 0
2, 163740, Control_c, 0, 64, 24
2, 163744, Note_on_c, 0, 87, 90
2, 163752, Control_c, 0, 64, 104
2, 163752, Note_on_c, 0, 78, 78
2, 163756, Note_on_c, 0, 68, 71
2, 163764, Control_c, 0, 64, 127
2, 163792, Note_off_c, 0, 56, 0
2, 163796, Note_off_c, 0, 68, 0
2, 163804, Note_off_c, 0, 78, 0
2, 163828, Note_off_c, 0, 87, 0
2, 163852, Note_on_c, 0, 89, 90
2, 163920, Note_off_c, 0, 89, 0
2, 163940, Note_on_c, 0, 44, 67
2, 163944, Note_on_c, 0, 87, 78
2, 163952, Control_c, 0, 64, 104
2, 163960, Control_c, 0, 64, 24
2, 164000, Control_c, 0, 64, 127
2, 164032, Note_off_c, 0, 87, 0
2, 164048, Note_on_c, 0, 80, 85
2, 164052, Note_on_c, 0, 56, 63
2, 164060, Note_on_c, 0, 77, 65
2, 164084, Note_off_c, 0, 44, 0
2, 164092, Note_off_c, 0, 77, 0
2, 164108, Note_off_c, 0, 56, 0
2, 164128, Note_off_c, 0, 80, 0
2, 164144, Note_on_c, 0, 82, 72
2, 164228, Note_off_c, 0, 82, 0
2, 164228, Note_on_c, 0, 56, 72
2, 164232, Note_on_c, 0, 80, 82
2, 164280, Control_c, 0, 64, 88
2, 164292, Control_c, 0, 64, 0
2, 164324, Note_off_c, 0, 80, 0
2, 164328, Control_c, 0, 64, 40
2, 164336, Note_on_c, 0, 68, 73
2, 164336, Note_on_c, 0, 85, 90
2, 164340, Control_c, 0, 64, 127
2, 164344, Note_on_c, 0, 76, 76
2, 164380, Note_off_c, 0, 68, 0
2, 164384, Note_off_c, 0, 56, 0
2, 164396, Note_off_c, 0, 76, 0
2, 164428, Note_off_c, 0, 85, 0
2, 164432, Note_on_c, 0, 87, 83
2, 164512, Note_off_c, 0, 87, 0
2, 164516, Note_on_c, 0, 44, 71
2, 164528, Note_on_c, 0, 85, 82
2, 164548, Control_c, 0, 64, 56
2, 164560, Control_c, 0, 64, 0
2, 164588, Control_c, 0, 64, 88
2, 164596, Control_c, 0, 64, 127
2, 164616, Note_off_c, 0, 85, 0
2, 164632, Note_on_c, 0, 84, 87
2, 164636, Note_on_c, 0, 75, 72
2, 164640, Note_on_c, 0, 56, 65
2, 164652, Note_off_c, 0, 44, 0
2, 164688, Note_off_c, 0, 56, 0
2, 164700, Note_off_c, 0, 75, 0
2, 164716, Note_off_c, 0, 84, 0
2, 164736, Note_on_c, 0, 85, 76
2, 164816, Control_c, 0, 64, 72
2, 164820, Note_on_c, 0, 56, 69
2, 164832, Note_on_c, 0, 84, 83
2, 164832, Control_c, 0, 64, 0
2, 164868, Note_off_c, 0, 84, 0
2, 164868, Control_c, 0, 64, 72
2, 164880, Note_off_c, 0, 85, 0
2, 164880, Control_c, 0, 64, 127
2, 164904, Note_off_c, 0, 56, 0
2, 164928, Note_on_c, 0, 87, 92
2, 164932, Note_on_c, 0, 78, 82
2, 164940, Note_on_c, 0, 68, 73
2, 164976, Note_off_c, 0, 68, 0
2, 164984, Note_off_c, 0, 78, 0
2, 165008, Note_off_c, 0, 87, 0
2, 165040, Note_on_c, 0, 89, 90
2, 165100, Control_c, 0, 64, 72
2, 165116, Note_off_c, 0, 89, 0
2, 165116, Control_c, 0, 64, 0
2, 165120, Note_on_c, 0, 44, 57
2, 165120, Note_on_c, 0, 87, 90
2, 165136, Control_c, 0, 64, 72
2, 165152, Control_c, 0, 64, 127
2, 165188, Note_off_c, 0, 44, 0
2, 165216, Note_off_c, 0, 87, 0
2, 165224, Control_c, 0, 64, 104
2, 165224, Note_on_c, 0, 80, 91
2, 165228, Note_on_c, 0, 56, 69
2, 165228, Note_on_c, 0, 77, 78
2, 165232, Control_c, 0, 64, 88
2, 165248, Control_c, 0, 64, 127
2, 165272, Note_off_c, 0, 56, 0
2, 165280, Note_off_c, 0, 77, 0
2, 165300, Note_off_c, 0, 80, 0
2, 165316, Note_on_c, 0, 82, 78
2, 165388, Note_on_c, 0, 56, 68
2, 165392, Control_c, 0, 64, 88
2, 165404, Note_off_c, 0, 82, 0
2, 165412, Note_on_c, 0, 80, 85
2, 165432, Control_c, 0, 64, 127
2, 165508, Note_off_c, 0, 80, 0
2, 165516, Note_on_c, 0, 68, 71
2, 165520, Note_on_c, 0, 85, 88
2, 165524, Note_on_c, 0, 76, 72
2, 165556, Note_off_c, 0, 68, 0
2, 165560, Note_off_c, 0, 56, 0
2, 165576, Note_off_c, 0, 76, 0
2, 165612, Note_on_c, 0, 87, 83
2, 165616, Note_off_c, 0, 85, 0
2, 165688, Note_on_c, 0, 44, 55
2, 165704, Note_on_c, 0, 85, 83
2, 165728, Note_off_c, 0, 87, 0
2, 165764, Note_off_c, 0, 85, 0
2, 165840, Note_on_c, 0, 92, 106
2, 165844, Note_on_c, 0, 84, 93
2, 165848, Control_c, 0, 64, 40
2, 165856, Note_on_c, 0, 56, 84
2, 165860, Control_c, 0, 64, 0
2, 165888, Note_off_c, 0, 84, 0
2, 165900, Note_off_c, 0, 56, 0
2, 165900, Note_off_c, 0, 92, 0
2, 165904, Note_off_c, 0, 44, 0
2, 165908, Control_c, 0, 64, 127
2, 166280, Control_c, 0, 64, 88
2, 166288, Control_c, 0, 64, 56
2, 166304, Control_c, 0, 64, 40
2, 166464, Control_c, 0, 64, 0
2, 166916, Control_c, 0, 64, 40
2, 166916, Note_on_c, 0, 75, 92
2, 166920, Note_on_c, 0, 63, 79
2, 166924, Note_on_c, 0, 61, 93
2, 166928, Note_on_c, 0, 67, 85
2, 166928, Note_on_c, 0, 70, 75
2, 166928, Note_on_c, 0, 73, 78
2, 166928, Control_c, 0, 64, 104
2, 166928, Note_on_c, 0, 27, 75
2, 166932, Note_on_c, 0, 39, 105
2, 166940, Control_c, 0, 64, 127
2, 166968, Note_off_c, 0, 61, 0
2, 166972, Note_off_c, 0, 27, 0
2, 166972, Note_off_c, 0, 39, 0
2, 166976, Note_off_c, 0, 63, 0
2, 166984, Note_off_c, 0, 67, 0
2, 166984, Note_off_c, 0, 70, 0
2, 166992, Note_off_c, 0, 73, 0
2, 167000, Note_off_c, 0, 75, 0
2, 167100, Control_c, 0, 64, 88
2, 167112, Control_c, 0, 64, 0
2, 167288, Note_on_c, 0, 72, 100
2, 167288, Note_on_c, 0, 63, 78
2, 167292, Note_on_c, 0, 60, 93
2, 167292, Note_on_c, 0, 68, 77
2, 167300, Note_on_c, 0, 32, 84
2, 167300, Note_on_c, 0, 44, 102
2, 167316, Control_c, 0, 64, 88
2, 167328, Control_c, 0, 64, 127
2, 167340, Note_off_c, 0, 32, 0
2, 167340, Note_off_c, 0, 44, 0
2, 167348, Note_off_c, 0, 60, 0
2, 167360, Note_off_c, 0, 63, 0
2, 167360, Note_off_c, 0, 68, 0
2, 167372, Note_off_c, 0, 72, 0
2, 168276, Control_c, 0, 64, 104
2, 168288, Control_c, 0, 64, 72
2, 168304, Control_c, 0, 64, 24
2, 168312, Control_c, 0, 64, 0
2, 168312, End_track
3, 0, Start_track
3, 0, Title_t, "Frederic Chopin"
3, 0, Key_signature, 0, "major"
3, 0, End_track
4, 0, Start_track
4, 0, Title_t, "Robert Finley, piano"
4, 0, Key_signature, 0, "major"
4, 0, End_track
5, 0, Start_track
5, 0, Title_t, "Copyright 1997"
5, 0, Key_signature, 0, "major"
5, 0, End_track
0, 0, End_of_file