0, 0, Header, 1, 2, 240
1, 0, Start_track
1, 0, Time_signature, 4, 2, 24, 8
1, 0, Tempo, 500000
1, 0, Marker_t, "(6'06"")"
1, 0, Marker_t, "(Presto,ma non tanto)"
1, 0, Marker_t, "\221\346\202R\224\324  \221\346\202S\212y\217\315"
1, 0, Marker_t, "\211\211\221t\201@\201@\217\254\214I\215\216\227T"
1, 0, Marker_t, "1996  4/28"
1, 0, Marker_t, "CHOPIN    PIANO  SONATA  NO.3  4th mov.           \211\211\221t\201@\217\254\214I\215\216\227T"
1, 0, Marker_t, "CVS Ver5.05 Created"
1, 0, Marker_t, "Finale"
1, 0, Marker_t, "\203V\203\207\203p\203\223\201@\203s\203A\203m\203\\\203i\203^"
1, 96, Marker_t, "<Master Reverve>"
1, 678, Marker_t, "<part reverve>"
1, 678, End_track
2, 0, Start_track
2, 0, Title_t, "<Master Volume>"
2, 0, Program_c, 0, 0
2, 0, Control_c, 0, 7, 100
2, 288, Control_c, 0, 0, 0
2, 290, Control_c, 0, 32, 1
2, 486, Control_c, 0, 11, 127
2, 582, Control_c, 0, 10, 64
2, 678, Control_c, 0, 1, 0
2, 678, Control_c, 0, 91, 90
2, 726, Control_c, 0, 99, 1
2, 728, Control_c, 0, 98, 32
2, 730, Control_c, 0, 6, 62
2, 732, Control_c, 0, 99, 1
2, 734, Control_c, 0, 98, 33
2, 736, Control_c, 0, 6, 54
2, 738, Control_c, 0, 99, 1
2, 740, Control_c, 0, 98, 99
2, 742, Control_c, 0, 6, 62
2, 744, Control_c, 0, 99, 1
2, 746, Control_c, 0, 98, 100
2, 748, Control_c, 0, 6, 60
2, 750, Control_c, 0, 99, 1
2, 752, Control_c, 0, 98, 102
2, 754, Control_c, 0, 6, 70
2, 1671, Control_c, 0, 64, 63
2, 1675, Control_c, 0, 64, 127
2, 1678, Note_on_c, 0, 54, 100
2, 1679, Note_on_c, 0, 42, 98
2, 1680, Note_on_c, 0, 30, 92
2, 1680, Note_on_c, 0, 66, 100
2, 1702, Note_off_c, 0, 30, 64
2, 1707, Note_off_c, 0, 42, 64
2, 1707, Note_off_c, 0, 54, 64
2, 1720, Note_off_c, 0, 66, 64
2, 1949, Note_on_c, 0, 42, 97
2, 1950, Note_on_c, 0, 54, 121
2, 1951, Note_on_c, 0, 78, 110
2, 1951, Note_on_c, 0, 66, 118
2, 1974, Note_off_c, 0, 42, 64
2, 1977, Note_off_c, 0, 66, 64
2, 1980, Note_off_c, 0, 54, 64
2, 1993, Note_off_c, 0, 78, 64
2, 2162, Note_on_c, 0, 66, 123
2, 2162, Note_on_c, 0, 54, 114
2, 2164, Note_on_c, 0, 90, 101
2, 2166, Note_on_c, 0, 78, 113
2, 2187, Note_off_c, 0, 66, 64
2, 2188, Note_off_c, 0, 90, 64
2, 2193, Note_off_c, 0, 78, 64
2, 2194, Note_off_c, 0, 54, 64
2, 2378, Note_on_c, 0, 42, 114
2, 2379, Note_on_c, 0, 54, 119
2, 2382, Note_on_c, 0, 66, 107
2, 2383, Note_on_c, 0, 30, 114
2, 2408, Note_off_c, 0, 30, 64
2, 2410, Note_off_c, 0, 42, 64
2, 2414, Note_off_c, 0, 66, 64
2, 2415, Note_off_c, 0, 54, 64
2, 2548, Control_c, 0, 64, 63
2, 2553, Control_c, 0, 64, 0
2, 2569, Note_on_c, 0, 43, 114
2, 2570, Note_on_c, 0, 31, 111
2, 2571, Note_on_c, 0, 66, 116
2, 2572, Note_on_c, 0, 59, 111
2, 2572, Note_on_c, 0, 54, 125
2, 2592, Control_c, 0, 64, 63
2, 2594, Control_c, 0, 64, 127
2, 2598, Note_off_c, 0, 31, 64
2, 2602, Note_off_c, 0, 43, 64
2, 2607, Note_off_c, 0, 54, 64
2, 2623, Note_off_c, 0, 59, 64
2, 2631, Note_off_c, 0, 66, 64
2, 2752, Note_on_c, 0, 55, 112
2, 2753, Note_on_c, 0, 43, 103
2, 2758, Note_on_c, 0, 66, 115
2, 2759, Note_on_c, 0, 78, 110
2, 2760, Note_on_c, 0, 71, 102
2, 2781, Note_off_c, 0, 43, 64
2, 2786, Note_off_c, 0, 66, 64
2, 2788, Note_off_c, 0, 55, 64
2, 2797, Note_off_c, 0, 71, 64
2, 2809, Note_off_c, 0, 78, 64
2, 2949, Note_on_c, 0, 67, 113
2, 2950, Note_on_c, 0, 90, 105
2, 2953, Note_on_c, 0, 83, 99
2, 2953, Note_on_c, 0, 55, 102
2, 2956, Note_on_c, 0, 78, 104
2, 2960, Note_off_c, 0, 67, 64
2, 2980, Note_off_c, 0, 90, 64
2, 2982, Note_off_c, 0, 83, 64
2, 2983, Note_off_c, 0, 55, 64
2, 2989, Note_off_c, 0, 78, 64
2, 3146, Note_on_c, 0, 31, 98
2, 3148, Note_on_c, 0, 43, 113
2, 3151, Note_on_c, 0, 54, 116
2, 3152, Note_on_c, 0, 59, 102
2, 3152, Note_on_c, 0, 66, 107
2, 3176, Note_off_c, 0, 31, 64
2, 3179, Note_off_c, 0, 43, 64
2, 3183, Note_off_c, 0, 66, 64
2, 3184, Note_off_c, 0, 54, 64
2, 3200, Note_off_c, 0, 59, 64
2, 3329, Control_c, 0, 64, 63
2, 3334, Control_c, 0, 64, 0
2, 3362, Note_on_c, 0, 60, 113
2, 3363, Note_on_c, 0, 54, 119
2, 3363, Note_on_c, 0, 66, 115
2, 3366, Note_on_c, 0, 32, 120
2, 3367, Note_on_c, 0, 44, 127
2, 3392, Control_c, 0, 64, 127
2, 3404, Note_off_c, 0, 32, 64
2, 3412, Note_off_c, 0, 54, 64
2, 3415, Note_off_c, 0, 44, 64
2, 3422, Note_off_c, 0, 60, 64
2, 3441, Note_off_c, 0, 66, 64
2, 3573, Note_on_c, 0, 56, 121
2, 3573, Note_on_c, 0, 44, 104
2, 3575, Note_on_c, 0, 78, 109
2, 3575, Note_on_c, 0, 66, 116
2, 3579, Note_on_c, 0, 72, 97
2, 3600, Note_off_c, 0, 44, 64
2, 3603, Note_off_c, 0, 66, 64
2, 3609, Note_off_c, 0, 56, 64
2, 3612, Note_off_c, 0, 72, 64
2, 3627, Note_off_c, 0, 78, 64
2, 3783, Control_c, 0, 64, 63
2, 3788, Control_c, 0, 64, 0
2, 3805, Note_on_c, 0, 66, 127
2, 3807, Note_on_c, 0, 69, 127
2, 3807, Note_on_c, 0, 57, 99
2, 3808, Note_on_c, 0, 90, 118
2, 3810, Note_on_c, 0, 85, 120
2, 3810, Note_on_c, 0, 78, 121
2, 3813, Note_on_c, 0, 61, 104
2, 3813, Control_c, 0, 64, 63
2, 3817, Control_c, 0, 64, 127
2, 3837, Note_off_c, 0, 90, 64
2, 3840, Note_off_c, 0, 78, 64
2, 3841, Note_off_c, 0, 66, 64
2, 3842, Note_off_c, 0, 85, 64
2, 3843, Note_off_c, 0, 69, 64
2, 3850, Note_off_c, 0, 61, 64
2, 3862, Note_off_c, 0, 57, 64
2, 4041, Note_on_c, 0, 33, 100
2, 4044, Note_on_c, 0, 45, 117
2, 4046, Note_on_c, 0, 66, 115
2, 4046, Note_on_c, 0, 54, 121
2, 4047, Note_on_c, 0, 61, 118
2, 4072, Note_off_c, 0, 45, 64
2, 4072, Note_off_c, 0, 33, 64
2, 4075, Note_off_c, 0, 54, 64
2, 4085, Note_off_c, 0, 61, 64
2, 4087, Note_off_c, 0, 66, 64
2, 4307, Control_c, 0, 64, 63
2, 4308, Note_on_c, 0, 34, 109
2, 4309, Note_on_c, 0, 54, 124
2, 4309, Note_on_c, 0, 64, 101
2, 4310, Note_on_c, 0, 66, 116
2, 4310, Note_on_c, 0, 61, 106
2, 4311, Note_on_c, 0, 46, 126
2, 4315, Control_c, 0, 64, 0
2, 4360, Control_c, 0, 64, 63
2, 4361, Control_c, 0, 64, 127
2, 4403, Note_off_c, 0, 34, 64
2, 4421, Note_off_c, 0, 54, 64
2, 4424, Note_off_c, 0, 46, 64
2, 4432, Note_off_c, 0, 61, 64
2, 4454, Note_off_c, 0, 64, 64
2, 4456, Note_off_c, 0, 66, 64
2, 4601, Note_on_c, 0, 78, 114
2, 4604, Note_on_c, 0, 66, 116
2, 4605, Note_on_c, 0, 64, 114
2, 4605, Note_on_c, 0, 54, 114
2, 4607, Note_on_c, 0, 73, 114
2, 4607, Note_on_c, 0, 61, 112
2, 4629, Note_off_c, 0, 66, 64
2, 4639, Note_off_c, 0, 73, 64
2, 4648, Note_off_c, 0, 78, 64
2, 4741, Note_off_c, 0, 54, 64
2, 4751, Note_off_c, 0, 61, 64
2, 4760, Note_off_c, 0, 64, 64
2, 4957, Note_on_c, 0, 90, 109
2, 4957, Note_on_c, 0, 98, 102
2, 4961, Note_on_c, 0, 86, 100
2, 4961, Note_on_c, 0, 74, 127
2, 4962, Note_on_c, 0, 64, 111
2, 4963, Note_on_c, 0, 66, 114
2, 4984, Note_off_c, 0, 90, 64
2, 4986, Note_off_c, 0, 86, 64
2, 4989, Note_off_c, 0, 98, 64
2, 5315, Note_off_c, 0, 74, 64
2, 5326, Note_off_c, 0, 66, 64
2, 5336, Note_off_c, 0, 64, 64
2, 5464, Note_on_c, 0, 97, 110
2, 5464, Note_on_c, 0, 85, 119
2, 5465, Note_on_c, 0, 73, 127
2, 5466, Note_on_c, 0, 64, 98
2, 5469, Note_on_c, 0, 90, 108
2, 5470, Note_on_c, 0, 66, 110
2, 5493, Note_off_c, 0, 85, 64
2, 5498, Note_off_c, 0, 90, 64
2, 5505, Note_off_c, 0, 97, 64
2, 5649, Note_off_c, 0, 73, 64
2, 5929, Note_off_c, 0, 66, 64
2, 5950, Note_off_c, 0, 64, 64
2, 6364, Control_c, 0, 67, 127
2, 6426, Control_c, 0, 67, 127
2, 6514, Control_c, 0, 67, 127
2, 6577, Control_c, 0, 67, 127
2, 6776, Control_c, 0, 64, 63
2, 6833, Control_c, 0, 64, 0
2, 6924, Control_c, 0, 64, 63
2, 6946, Control_c, 0, 64, 127
2, 6969, Note_on_c, 0, 59, 73
2, 6973, Note_on_c, 0, 35, 58
2, 7092, Note_off_c, 0, 35, 64
2, 7092, Note_off_c, 0, 59, 64
2, 7100, Note_on_c, 0, 47, 40
2, 7101, Note_on_c, 0, 50, 64
2, 7138, Note_off_c, 0, 50, 64
2, 7175, Note_off_c, 0, 47, 64
2, 7188, Note_on_c, 0, 42, 53
2, 7192, Note_on_c, 0, 54, 88
2, 7282, Note_off_c, 0, 54, 64
2, 7283, Note_off_c, 0, 42, 64
2, 7291, Note_on_c, 0, 55, 91
2, 7292, Note_on_c, 0, 40, 69
2, 7326, Control_c, 0, 64, 63
2, 7336, Control_c, 0, 64, 0
2, 7377, Note_on_c, 0, 52, 71
2, 7381, Note_on_c, 0, 47, 66
2, 7395, Control_c, 0, 64, 63
2, 7405, Control_c, 0, 64, 127
2, 7443, Note_off_c, 0, 52, 64
2, 7470, Note_on_c, 0, 58, 107
2, 7473, Note_on_c, 0, 43, 67
2, 7479, Note_off_c, 0, 47, 64
2, 7496, Note_off_c, 0, 55, 64
2, 7552, Note_off_c, 0, 40, 64
2, 7560, Note_on_c, 0, 35, 81
2, 7561, Note_off_c, 0, 43, 64
2, 7563, Note_on_c, 0, 59, 99
2, 7574, Note_off_c, 0, 58, 64
2, 7599, Control_c, 0, 64, 63
2, 7604, Control_c, 0, 64, 0
2, 7657, Control_c, 0, 64, 63
2, 7659, Note_on_c, 0, 50, 76
2, 7662, Note_on_c, 0, 47, 54
2, 7664, Control_c, 0, 64, 127
2, 7720, Note_off_c, 0, 50, 64
2, 7730, Note_off_c, 0, 35, 64
2, 7736, Note_on_c, 0, 54, 104
2, 7740, Note_on_c, 0, 42, 72
2, 7750, Note_off_c, 0, 47, 64
2, 7761, Note_off_c, 0, 59, 64
2, 7808, Note_off_c, 0, 54, 64
2, 7827, Note_off_c, 0, 42, 64
2, 7834, Note_on_c, 0, 40, 73
2, 7834, Note_on_c, 0, 55, 100
2, 7864, Control_c, 0, 64, 63
2, 7870, Control_c, 0, 64, 0
2, 7918, Control_c, 0, 64, 63
2, 7919, Note_on_c, 0, 52, 66
2, 7924, Control_c, 0, 64, 127
2, 7926, Note_on_c, 0, 47, 57
2, 7977, Note_off_c, 0, 52, 64
2, 8013, Note_on_c, 0, 58, 103
2, 8023, Note_off_c, 0, 47, 64
2, 8025, Note_on_c, 0, 43, 52
2, 8026, Note_off_c, 0, 55, 64
2, 8093, Note_off_c, 0, 43, 64
2, 8097, Note_off_c, 0, 40, 64
2, 8104, Note_on_c, 0, 35, 67
2, 8110, Note_on_c, 0, 59, 98
2, 8121, Note_off_c, 0, 58, 64
2, 8122, Control_c, 0, 64, 63
2, 8127, Control_c, 0, 64, 0
2, 8170, Control_c, 0, 64, 63
2, 8177, Control_c, 0, 64, 127
2, 8217, Note_on_c, 0, 54, 76
2, 8218, Note_on_c, 0, 47, 41
2, 8219, Note_off_c, 0, 35, 64
2, 8222, Note_on_c, 0, 50, 57
2, 8251, Note_off_c, 0, 59, 64
2, 8269, Note_off_c, 0, 50, 64
2, 8294, Note_on_c, 0, 59, 99
2, 8296, Note_on_c, 0, 42, 73
2, 8300, Note_off_c, 0, 47, 64
2, 8303, Note_off_c, 0, 54, 64
2, 8328, Note_off_c, 0, 59, 64
2, 8367, Note_off_c, 0, 42, 64
2, 8375, Note_on_c, 0, 61, 95
2, 8387, Note_on_c, 0, 40, 61
2, 8392, Note_on_c, 0, 59, 94
2, 8398, Control_c, 0, 64, 63
2, 8404, Control_c, 0, 64, 0
2, 8414, Note_off_c, 0, 61, 64
2, 8443, Control_c, 0, 64, 63
2, 8449, Control_c, 0, 64, 127
2, 8472, Note_on_c, 0, 58, 100
2, 8482, Note_off_c, 0, 59, 64
2, 8482, Note_on_c, 0, 47, 72
2, 8487, Note_on_c, 0, 52, 86
2, 8493, Note_on_c, 0, 55, 88
2, 8525, Note_off_c, 0, 52, 64
2, 8549, Note_off_c, 0, 55, 64
2, 8555, Note_on_c, 0, 59, 104
2, 8559, Note_off_c, 0, 40, 64
2, 8568, Note_on_c, 0, 43, 85
2, 8571, Note_off_c, 0, 47, 64
2, 8577, Note_off_c, 0, 58, 64
2, 8663, Note_on_c, 0, 62, 111
2, 8667, Note_on_c, 0, 38, 76
2, 8680, Note_off_c, 0, 59, 64
2, 8682, Note_off_c, 0, 43, 64
2, 8707, Control_c, 0, 64, 63
2, 8714, Control_c, 0, 64, 0
2, 8771, Control_c, 0, 64, 63
2, 8779, Control_c, 0, 64, 127
2, 8781, Note_on_c, 0, 54, 65
2, 8790, Note_on_c, 0, 50, 49
2, 8854, Note_off_c, 0, 38, 64
2, 8859, Note_off_c, 0, 54, 64
2, 8865, Note_off_c, 0, 50, 64
2, 8872, Note_on_c, 0, 57, 60
2, 8884, Note_on_c, 0, 45, 29
2, 8908, Note_off_c, 0, 57, 64
2, 8944, Note_off_c, 0, 45, 64
2, 8965, Note_on_c, 0, 43, 67
2, 8977, Control_c, 0, 64, 63
2, 8984, Control_c, 0, 64, 0
2, 9040, Control_c, 0, 64, 63
2, 9048, Control_c, 0, 64, 127
2, 9059, Note_on_c, 0, 55, 56
2, 9070, Note_on_c, 0, 50, 51
2, 9136, Note_off_c, 0, 55, 64
2, 9155, Note_on_c, 0, 46, 69
2, 9157, Note_off_c, 0, 50, 64
2, 9161, Note_on_c, 0, 58, 58
2, 9179, Note_off_c, 0, 43, 64
2, 9196, Note_off_c, 0, 46, 64
2, 9204, Note_off_c, 0, 58, 64
2, 9246, Control_c, 0, 64, 63
2, 9251, Control_c, 0, 64, 0
2, 9255, Note_on_c, 0, 38, 85
2, 9301, Control_c, 0, 64, 63
2, 9308, Control_c, 0, 64, 127
2, 9343, Note_on_c, 0, 54, 70
2, 9351, Note_on_c, 0, 50, 49
2, 9378, Note_off_c, 0, 54, 64
2, 9382, Note_off_c, 0, 38, 64
2, 9427, Note_off_c, 0, 50, 64
2, 9433, Note_off_c, 0, 62, 64
2, 9442, Note_on_c, 0, 57, 98
2, 9447, Note_on_c, 0, 45, 57
2, 9513, Note_off_c, 0, 57, 64
2, 9538, Note_on_c, 0, 43, 80
2, 9540, Note_on_c, 0, 58, 113
2, 9543, Note_off_c, 0, 45, 64
2, 9583, Control_c, 0, 64, 63
2, 9589, Control_c, 0, 64, 0
2, 9635, Note_on_c, 0, 55, 86
2, 9640, Note_on_c, 0, 50, 74
2, 9641, Note_on_c, 0, 52, 80
2, 9644, Control_c, 0, 64, 63
2, 9652, Control_c, 0, 64, 127
2, 9679, Note_off_c, 0, 52, 64
2, 9715, Note_off_c, 0, 55, 64
2, 9729, Note_on_c, 0, 46, 90
2, 9729, Note_on_c, 0, 61, 116
2, 9739, Note_off_c, 0, 50, 64
2, 9745, Note_off_c, 0, 58, 64
2, 9746, Note_off_c, 0, 43, 64
2, 9769, Note_off_c, 0, 46, 64
2, 9824, Note_on_c, 0, 38, 101
2, 9825, Note_off_c, 0, 61, 64
2, 9827, Note_on_c, 0, 62, 114
2, 9853, Control_c, 0, 64, 63
2, 9858, Control_c, 0, 64, 0
2, 9909, Control_c, 0, 64, 63
2, 9915, Control_c, 0, 64, 127
2, 9918, Note_on_c, 0, 50, 82
2, 9921, Note_on_c, 0, 54, 86
2, 9966, Note_off_c, 0, 54, 64
2, 10005, Note_on_c, 0, 57, 102
2, 10008, Note_on_c, 0, 45, 96
2, 10011, Note_off_c, 0, 50, 64
2, 10019, Note_off_c, 0, 62, 64
2, 10023, Note_off_c, 0, 38, 64
2, 10083, Note_off_c, 0, 57, 64
2, 10099, Note_on_c, 0, 43, 103
2, 10101, Note_on_c, 0, 58, 119
2, 10108, Note_off_c, 0, 45, 64
2, 10118, Control_c, 0, 64, 63
2, 10125, Control_c, 0, 64, 0
2, 10180, Control_c, 0, 64, 63
2, 10187, Control_c, 0, 64, 127
2, 10189, Note_on_c, 0, 50, 92
2, 10190, Note_on_c, 0, 55, 87
2, 10194, Note_on_c, 0, 52, 85
2, 10226, Note_off_c, 0, 52, 64
2, 10260, Note_off_c, 0, 55, 64
2, 10271, Note_off_c, 0, 50, 64
2, 10279, Note_on_c, 0, 46, 90
2, 10285, Note_on_c, 0, 61, 118
2, 10296, Note_off_c, 0, 58, 64
2, 10303, Note_off_c, 0, 43, 64
2, 10333, Note_off_c, 0, 46, 64
2, 10369, Note_off_c, 0, 61, 64
2, 10377, Note_on_c, 0, 38, 98
2, 10378, Note_on_c, 0, 62, 116
2, 10386, Control_c, 0, 64, 63
2, 10391, Control_c, 0, 64, 0
2, 10451, Control_c, 0, 64, 63
2, 10457, Control_c, 0, 64, 127
2, 10469, Note_on_c, 0, 57, 80
2, 10469, Note_on_c, 0, 50, 83
2, 10471, Note_on_c, 0, 54, 86
2, 10511, Note_off_c, 0, 62, 64
2, 10515, Note_off_c, 0, 54, 64
2, 10537, Note_off_c, 0, 57, 64
2, 10548, Note_off_c, 0, 38, 64
2, 10551, Note_on_c, 0, 45, 87
2, 10551, Note_on_c, 0, 62, 113
2, 10555, Note_off_c, 0, 50, 64
2, 10591, Note_off_c, 0, 62, 64
2, 10600, Note_off_c, 0, 45, 64
2, 10646, Note_on_c, 0, 64, 97
2, 10652, Note_on_c, 0, 43, 85
2, 10658, Note_on_c, 0, 62, 107
2, 10670, Control_c, 0, 64, 63
2, 10676, Control_c, 0, 64, 0
2, 10683, Note_off_c, 0, 64, 64
2, 10736, Control_c, 0, 64, 63
2, 10742, Note_on_c, 0, 61, 116
2, 10742, Note_on_c, 0, 50, 89
2, 10743, Control_c, 0, 64, 127
2, 10747, Note_on_c, 0, 59, 101
2, 10750, Note_on_c, 0, 55, 81
2, 10768, Note_off_c, 0, 62, 64
2, 10806, Note_off_c, 0, 55, 64
2, 10824, Note_off_c, 0, 59, 64
2, 10825, Note_on_c, 0, 62, 116
2, 10829, Note_on_c, 0, 47, 102
2, 10832, Note_off_c, 0, 50, 64
2, 10841, Note_off_c, 0, 43, 64
2, 10845, Note_off_c, 0, 61, 64
2, 10898, Note_off_c, 0, 62, 64
2, 10920, Note_off_c, 0, 47, 64
2, 10942, Note_on_c, 0, 42, 109
2, 10946, Note_on_c, 0, 66, 114
2, 10956, Control_c, 0, 64, 63
2, 10962, Control_c, 0, 64, 0
2, 11064, Control_c, 0, 64, 63
2, 11072, Control_c, 0, 64, 127
2, 11077, Note_on_c, 0, 54, 58
2, 11077, Note_on_c, 0, 58, 65
2, 11163, Note_off_c, 0, 58, 64
2, 11165, Note_off_c, 0, 42, 64
2, 11166, Note_on_c, 0, 61, 78
2, 11168, Note_off_c, 0, 54, 64
2, 11171, Note_on_c, 0, 49, 60
2, 11196, Note_off_c, 0, 61, 64
2, 11233, Note_off_c, 0, 49, 64
2, 11257, Note_on_c, 0, 47, 81
2, 11260, Control_c, 0, 64, 63
2, 11263, Control_c, 0, 64, 0
2, 11337, Control_c, 0, 64, 63
2, 11342, Control_c, 0, 64, 127
2, 11353, Note_on_c, 0, 59, 66
2, 11353, Note_on_c, 0, 54, 65
2, 11415, Note_off_c, 0, 59, 64
2, 11434, Note_off_c, 0, 54, 64
2, 11448, Note_on_c, 0, 62, 60
2, 11456, Note_on_c, 0, 50, 41
2, 11479, Note_off_c, 0, 50, 64
2, 11484, Note_off_c, 0, 62, 64
2, 11491, Note_off_c, 0, 47, 64
2, 11527, Control_c, 0, 64, 63
2, 11532, Control_c, 0, 64, 0
2, 11535, Note_on_c, 0, 42, 89
2, 11581, Control_c, 0, 64, 63
2, 11588, Control_c, 0, 64, 127
2, 11622, Note_on_c, 0, 58, 66
2, 11626, Note_on_c, 0, 54, 42
2, 11684, Note_off_c, 0, 42, 64
2, 11711, Note_off_c, 0, 54, 64
2, 11711, Note_on_c, 0, 61, 101
2, 11717, Note_on_c, 0, 49, 58
2, 11720, Note_off_c, 0, 58, 64
2, 11736, Note_off_c, 0, 66, 64
2, 11803, Note_off_c, 0, 61, 64
2, 11813, Note_off_c, 0, 49, 64
2, 11817, Note_on_c, 0, 62, 91
2, 11819, Note_on_c, 0, 47, 47
2, 11835, Control_c, 0, 64, 63
2, 11842, Control_c, 0, 64, 0
2, 11880, Control_c, 0, 64, 63
2, 11888, Control_c, 0, 64, 127
2, 11924, Note_on_c, 0, 59, 86
2, 11927, Note_on_c, 0, 57, 78
2, 11930, Note_off_c, 0, 47, 64
2, 11933, Note_on_c, 0, 54, 49
2, 12009, Note_off_c, 0, 54, 64
2, 12028, Note_on_c, 0, 63, 104
2, 12030, Note_on_c, 0, 47, 49
2, 12034, Note_off_c, 0, 59, 64
2, 12047, Note_off_c, 0, 62, 64
2, 12122, Note_on_c, 0, 64, 100
2, 12123, Note_on_c, 0, 40, 62
2, 12131, Note_off_c, 0, 47, 64
2, 12132, Note_off_c, 0, 63, 64
2, 12137, Control_c, 0, 64, 63
2, 12145, Control_c, 0, 64, 0
2, 12202, Control_c, 0, 64, 63
2, 12210, Control_c, 0, 64, 127
2, 12218, Note_on_c, 0, 52, 47
2, 12299, Note_on_c, 0, 56, 84
2, 12300, Note_on_c, 0, 47, 66
2, 12301, Note_off_c, 0, 40, 64
2, 12305, Note_off_c, 0, 52, 64
2, 12306, Note_off_c, 0, 57, 64
2, 12331, Note_off_c, 0, 47, 64
2, 12390, Control_c, 0, 64, 63
2, 12393, Control_c, 0, 64, 0
2, 12400, Note_on_c, 0, 45, 84
2, 12439, Note_off_c, 0, 56, 64
2, 12447, Control_c, 0, 64, 63
2, 12448, Control_c, 0, 64, 127
2, 12459, Note_off_c, 0, 64, 64
2, 12488, Note_on_c, 0, 55, 65
2, 12560, Note_on_c, 0, 66, 82
2, 12571, Note_off_c, 0, 45, 64
2, 12573, Note_on_c, 0, 49, 82
2, 12585, Note_off_c, 0, 55, 64
2, 12589, Note_on_c, 0, 64, 84
2, 12595, Note_off_c, 0, 49, 64
2, 12597, Note_off_c, 0, 66, 64
2, 12682, Note_off_c, 0, 64, 64
2, 12687, Control_c, 0, 64, 63
2, 12690, Control_c, 0, 64, 0
2, 12693, Note_on_c, 0, 38, 76
2, 12699, Note_on_c, 0, 62, 88
2, 12722, Control_c, 0, 64, 63
2, 12726, Control_c, 0, 64, 127
2, 12732, Note_off_c, 0, 38, 64
2, 12783, Note_off_c, 0, 62, 64
2, 12793, Note_on_c, 0, 54, 72
2, 12864, Note_off_c, 0, 54, 64
2, 12879, Note_on_c, 0, 61, 101
2, 12881, Note_on_c, 0, 45, 63
2, 12951, Note_off_c, 0, 61, 64
2, 12959, Control_c, 0, 64, 63
2, 12963, Control_c, 0, 64, 0
2, 12968, Note_on_c, 0, 59, 86
2, 12970, Note_on_c, 0, 43, 72
2, 12981, Note_off_c, 0, 45, 64
2, 13055, Note_on_c, 0, 53, 59
2, 13056, Note_off_c, 0, 59, 64
2, 13058, Control_c, 0, 64, 63
2, 13061, Control_c, 0, 64, 127
2, 13148, Note_on_c, 0, 61, 88
2, 13149, Note_on_c, 0, 47, 59
2, 13155, Note_off_c, 0, 43, 64
2, 13172, Note_off_c, 0, 53, 64
2, 13194, Note_off_c, 0, 61, 64
2, 13231, Note_off_c, 0, 47, 64
2, 13248, Note_on_c, 0, 42, 83
2, 13248, Note_on_c, 0, 54, 77
2, 13273, Control_c, 0, 64, 63
2, 13278, Control_c, 0, 64, 0
2, 13321, Control_c, 0, 64, 63
2, 13328, Control_c, 0, 64, 127
2, 13348, Note_on_c, 0, 52, 64
2, 13400, Note_off_c, 0, 54, 64
2, 13410, Note_off_c, 0, 42, 64
2, 13428, Note_off_c, 0, 52, 64
2, 13444, Note_on_c, 0, 46, 69
2, 13460, Note_off_c, 0, 46, 64
2, 13538, Control_c, 0, 64, 63
2, 13545, Control_c, 0, 64, 0
2, 13565, Note_on_c, 0, 35, 51
2, 13575, Note_on_c, 0, 62, 89
2, 13583, Control_c, 0, 64, 63
2, 13588, Control_c, 0, 64, 127
2, 13603, Note_off_c, 0, 35, 64
2, 13624, Note_off_c, 0, 62, 64
2, 13691, Note_on_c, 0, 54, 74
2, 13734, Note_off_c, 0, 54, 64
2, 13752, Note_on_c, 0, 64, 88
2, 13776, Control_c, 0, 64, 63
2, 13779, Control_c, 0, 64, 0
2, 13790, Note_on_c, 0, 62, 94
2, 13801, Note_on_c, 0, 42, 76
2, 13811, Note_off_c, 0, 64, 64
2, 13827, Control_c, 0, 64, 63
2, 13829, Control_c, 0, 64, 127
2, 13841, Note_off_c, 0, 42, 64
2, 13843, Note_off_c, 0, 62, 64
2, 13887, Note_on_c, 0, 35, 91
2, 13895, Note_on_c, 0, 61, 113
2, 13911, Note_off_c, 0, 35, 64
2, 13933, Note_off_c, 0, 61, 64
2, 13980, Note_on_c, 0, 52, 74
2, 14062, Note_off_c, 0, 52, 64
2, 14072, Note_on_c, 0, 42, 83
2, 14073, Note_on_c, 0, 62, 111
2, 14099, Note_off_c, 0, 42, 64
2, 14167, Control_c, 0, 64, 63
2, 14171, Note_on_c, 0, 35, 96
2, 14171, Control_c, 0, 64, 0
2, 14174, Note_on_c, 0, 59, 111
2, 14187, Note_off_c, 0, 62, 64
2, 14207, Control_c, 0, 64, 63
2, 14212, Control_c, 0, 64, 127
2, 14220, Note_off_c, 0, 35, 64
2, 14249, Note_off_c, 0, 59, 64
2, 14267, Note_on_c, 0, 50, 101
2, 14352, Note_off_c, 0, 50, 64
2, 14355, Note_on_c, 0, 61, 109
2, 14356, Note_on_c, 0, 42, 94
2, 14382, Note_off_c, 0, 42, 64
2, 14392, Note_off_c, 0, 61, 64
2, 14436, Control_c, 0, 64, 63
2, 14440, Control_c, 0, 64, 0
2, 14448, Note_on_c, 0, 35, 84
2, 14454, Note_on_c, 0, 54, 101
2, 14460, Note_on_c, 0, 52, 87
2, 14488, Control_c, 0, 64, 63
2, 14493, Control_c, 0, 64, 127
2, 14494, Note_off_c, 0, 35, 64
2, 14552, Note_on_c, 0, 49, 86
2, 14617, Note_off_c, 0, 52, 64
2, 14627, Note_off_c, 0, 49, 64
2, 14634, Note_on_c, 0, 42, 88
2, 14725, Note_off_c, 0, 42, 64
2, 14730, Note_on_c, 0, 35, 68
2, 14735, Control_c, 0, 64, 63
2, 14738, Note_on_c, 0, 62, 84
2, 14740, Control_c, 0, 64, 0
2, 14740, Note_on_c, 0, 50, 68
2, 14748, Note_off_c, 0, 54, 64
2, 14772, Note_off_c, 0, 35, 64
2, 14783, Control_c, 0, 64, 63
2, 14788, Control_c, 0, 64, 127
2, 14825, Note_off_c, 0, 50, 64
2, 14850, Note_off_c, 0, 62, 64
2, 14859, Note_on_c, 0, 54, 85
2, 14900, Note_off_c, 0, 54, 64
2, 14904, Note_on_c, 0, 64, 84
2, 14943, Note_on_c, 0, 62, 99
2, 14952, Note_on_c, 0, 42, 72
2, 14961, Note_off_c, 0, 64, 64
2, 14964, Control_c, 0, 64, 63
2, 14968, Control_c, 0, 64, 0
2, 15002, Control_c, 0, 64, 63
2, 15007, Control_c, 0, 64, 127
2, 15019, Note_off_c, 0, 42, 64
2, 15040, Note_off_c, 0, 62, 64
2, 15048, Note_on_c, 0, 35, 94
2, 15054, Note_on_c, 0, 61, 113
2, 15075, Note_off_c, 0, 35, 64
2, 15088, Note_off_c, 0, 61, 64
2, 15141, Note_on_c, 0, 52, 100
2, 15220, Note_off_c, 0, 52, 64
2, 15228, Note_on_c, 0, 62, 109
2, 15232, Note_on_c, 0, 42, 99
2, 15257, Note_off_c, 0, 42, 64
2, 15323, Note_on_c, 0, 35, 109
2, 15324, Note_on_c, 0, 59, 103
2, 15329, Note_off_c, 0, 62, 64
2, 15331, Control_c, 0, 64, 63
2, 15333, Control_c, 0, 64, 0
2, 15375, Note_off_c, 0, 35, 64
2, 15375, Control_c, 0, 64, 63
2, 15377, Control_c, 0, 64, 127
2, 15421, Note_on_c, 0, 50, 107
2, 15440, Note_off_c, 0, 59, 64
2, 15522, Note_off_c, 0, 50, 64
2, 15523, Note_on_c, 0, 67, 111
2, 15524, Note_on_c, 0, 47, 107
2, 15560, Note_off_c, 0, 47, 64
2, 15584, Note_off_c, 0, 67, 64
2, 15648, Note_on_c, 0, 46, 103
2, 15652, Note_on_c, 0, 66, 116
2, 15662, Control_c, 0, 64, 63
2, 15666, Control_c, 0, 64, 0
2, 15736, Control_c, 0, 64, 63
2, 15737, Control_c, 0, 64, 127
2, 15763, Note_off_c, 0, 46, 64
2, 15791, Note_on_c, 0, 61, 80
2, 15861, Note_off_c, 0, 61, 64
2, 15880, Note_on_c, 0, 54, 80
2, 15906, Note_off_c, 0, 54, 64
2, 15976, Note_on_c, 0, 45, 106
2, 15988, Control_c, 0, 64, 63
2, 15991, Control_c, 0, 64, 0
2, 16007, Control_c, 0, 64, 63
2, 16013, Control_c, 0, 64, 127
2, 16041, Note_off_c, 0, 45, 64
2, 16087, Note_on_c, 0, 60, 81
2, 16158, Note_off_c, 0, 60, 64
2, 16173, Note_on_c, 0, 51, 88
2, 16255, Note_off_c, 0, 66, 64
2, 16266, Note_on_c, 0, 44, 103
2, 16275, Note_on_c, 0, 65, 102
2, 16279, Note_off_c, 0, 51, 64
2, 16288, Control_c, 0, 64, 63
2, 16291, Control_c, 0, 64, 0
2, 16312, Control_c, 0, 64, 63
2, 16318, Control_c, 0, 64, 127
2, 16359, Note_off_c, 0, 44, 64
2, 16389, Note_on_c, 0, 59, 71
2, 16466, Note_off_c, 0, 59, 64
2, 16475, Note_on_c, 0, 49, 75
2, 16566, Note_on_c, 0, 64, 99
2, 16571, Note_off_c, 0, 49, 64
2, 16571, Note_on_c, 0, 43, 91
2, 16576, Control_c, 0, 64, 63
2, 16580, Control_c, 0, 64, 0
2, 16588, Note_off_c, 0, 65, 64
2, 16600, Control_c, 0, 64, 63
2, 16607, Control_c, 0, 64, 127
2, 16639, Note_off_c, 0, 43, 64
2, 16667, Note_on_c, 0, 59, 74
2, 16718, Note_off_c, 0, 59, 64
2, 16763, Note_off_c, 0, 64, 64
2, 16765, Note_on_c, 0, 49, 66
2, 16781, Note_off_c, 0, 49, 64
2, 16854, Note_on_c, 0, 42, 89
2, 16861, Note_on_c, 0, 63, 105
2, 16894, Control_c, 0, 64, 63
2, 16900, Control_c, 0, 64, 0
2, 16933, Control_c, 0, 64, 63
2, 16940, Control_c, 0, 64, 127
2, 16957, Note_on_c, 0, 54, 70
2, 17039, Note_off_c, 0, 42, 64
2, 17043, Note_off_c, 0, 54, 64
2, 17051, Note_on_c, 0, 47, 68
2, 17057, Note_off_c, 0, 63, 64
2, 17145, Note_on_c, 0, 41, 83
2, 17148, Note_on_c, 0, 62, 96
2, 17151, Note_off_c, 0, 47, 64
2, 17161, Control_c, 0, 64, 63
2, 17167, Control_c, 0, 64, 0
2, 17209, Control_c, 0, 64, 63
2, 17215, Control_c, 0, 64, 127
2, 17242, Note_on_c, 0, 55, 60
2, 17250, Note_off_c, 0, 41, 64
2, 17315, Note_off_c, 0, 55, 64
2, 17321, Note_off_c, 0, 62, 64
2, 17334, Note_on_c, 0, 47, 49
2, 17423, Note_on_c, 0, 40, 69
2, 17424, Note_on_c, 0, 61, 93
2, 17441, Control_c, 0, 64, 63
2, 17445, Control_c, 0, 64, 0
2, 17447, Note_off_c, 0, 47, 64
2, 17477, Control_c, 0, 64, 63
2, 17480, Note_off_c, 0, 40, 64
2, 17484, Control_c, 0, 64, 127
2, 17488, Note_off_c, 0, 61, 64
2, 17517, Note_on_c, 0, 55, 67
2, 17574, Control_c, 0, 64, 63
2, 17576, Control_c, 0, 64, 0
2, 17617, Note_on_c, 0, 60, 88
2, 17622, Note_on_c, 0, 48, 70
2, 17630, Note_off_c, 0, 55, 64
2, 17717, Note_on_c, 0, 42, 66
2, 17721, Note_on_c, 0, 64, 74
2, 17735, Note_off_c, 0, 60, 64
2, 17735, Control_c, 0, 64, 63
2, 17739, Control_c, 0, 64, 127
2, 17750, Note_off_c, 0, 48, 64
2, 17803, Note_off_c, 0, 64, 64
2, 17817, Note_on_c, 0, 52, 55
2, 17845, Control_c, 0, 64, 63
2, 17850, Control_c, 0, 64, 0
2, 17904, Control_c, 0, 64, 63
2, 17910, Control_c, 0, 64, 127
2, 17911, Note_on_c, 0, 58, 75
2, 17920, Note_on_c, 0, 49, 69
2, 17927, Note_off_c, 0, 52, 64
2, 17941, Note_off_c, 0, 42, 64
2, 17947, Note_off_c, 0, 49, 64
2, 17976, Note_off_c, 0, 58, 64
2, 18016, Control_c, 0, 64, 63
2, 18021, Control_c, 0, 64, 0
2, 18040, Note_on_c, 0, 59, 78
2, 18045, Note_on_c, 0, 35, 68
2, 18050, Control_c, 0, 64, 63
2, 18056, Control_c, 0, 64, 127
2, 18085, Note_off_c, 0, 35, 64
2, 18106, Note_off_c, 0, 59, 64
2, 18127, Control_c, 0, 67, 0
2, 18188, Note_on_c, 0, 54, 52
2, 18255, Note_off_c, 0, 54, 64
2, 18300, Note_on_c, 0, 78, 78
2, 18302, Note_on_c, 0, 66, 70
2, 18306, Note_on_c, 0, 62, 58
2, 18323, Note_off_c, 0, 66, 64
2, 18330, Note_off_c, 0, 62, 64
2, 18330, Note_off_c, 0, 78, 64
2, 18426, Note_on_c, 0, 64, 57
2, 18431, Note_on_c, 0, 79, 88
2, 18433, Note_on_c, 0, 67, 71
2, 18472, Control_c, 0, 64, 63
2, 18494, Control_c, 0, 64, 127
2, 18534, Note_on_c, 0, 58, 63
2, 18536, Note_on_c, 0, 76, 81
2, 18537, Note_on_c, 0, 73, 75
2, 18540, Note_off_c, 0, 67, 64
2, 18541, Note_on_c, 0, 55, 43
2, 18557, Note_off_c, 0, 79, 64
2, 18565, Note_off_c, 0, 64, 64
2, 18572, Note_off_c, 0, 73, 64
2, 18580, Note_off_c, 0, 76, 64
2, 18611, Note_off_c, 0, 58, 64
2, 18630, Note_on_c, 0, 52, 54
2, 18636, Note_off_c, 0, 55, 64
2, 18637, Note_on_c, 0, 82, 97
2, 18639, Note_on_c, 0, 70, 91
2, 18653, Note_off_c, 0, 52, 64
2, 18667, Note_off_c, 0, 70, 64
2, 18667, Note_off_c, 0, 82, 64
2, 18742, Note_on_c, 0, 47, 78
2, 18744, Control_c, 0, 64, 63
2, 18749, Note_on_c, 0, 83, 93
2, 18753, Note_on_c, 0, 71, 74
2, 18768, Control_c, 0, 64, 127
2, 18785, Note_off_c, 0, 83, 64
2, 18786, Note_off_c, 0, 47, 64
2, 18820, Note_off_c, 0, 71, 64
2, 18858, Note_on_c, 0, 54, 76
2, 18862, Note_on_c, 0, 74, 86
2, 18891, Note_off_c, 0, 74, 64
2, 18949, Note_off_c, 0, 54, 64
2, 18951, Note_on_c, 0, 78, 105
2, 18955, Note_on_c, 0, 66, 98
2, 18960, Note_on_c, 0, 62, 68
2, 18978, Note_off_c, 0, 66, 64
2, 18988, Note_off_c, 0, 78, 64
2, 18991, Note_off_c, 0, 62, 64
2, 19040, Note_on_c, 0, 64, 92
2, 19041, Note_on_c, 0, 79, 102
2, 19044, Note_on_c, 0, 67, 84
2, 19069, Control_c, 0, 64, 63
2, 19078, Control_c, 0, 64, 0
2, 19089, Control_c, 0, 64, 63
2, 19102, Control_c, 0, 64, 127
2, 19130, Note_on_c, 0, 58, 82
2, 19130, Note_on_c, 0, 73, 83
2, 19131, Note_on_c, 0, 55, 77
2, 19131, Note_on_c, 0, 76, 80
2, 19135, Note_off_c, 0, 79, 64
2, 19137, Note_off_c, 0, 67, 64
2, 19163, Note_off_c, 0, 64, 64
2, 19166, Note_off_c, 0, 73, 64
2, 19174, Note_off_c, 0, 76, 64
2, 19218, Note_off_c, 0, 58, 64
2, 19219, Note_on_c, 0, 52, 86
2, 19219, Note_on_c, 0, 82, 103
2, 19220, Note_on_c, 0, 70, 95
2, 19235, Note_off_c, 0, 70, 64
2, 19235, Note_off_c, 0, 55, 64
2, 19249, Note_off_c, 0, 82, 64
2, 19250, Note_off_c, 0, 52, 64
2, 19318, Control_c, 0, 64, 63
2, 19318, Note_on_c, 0, 47, 91
2, 19325, Control_c, 0, 64, 0
2, 19326, Note_on_c, 0, 83, 100
2, 19330, Note_on_c, 0, 71, 84
2, 19345, Control_c, 0, 64, 63
2, 19354, Control_c, 0, 64, 127
2, 19366, Note_off_c, 0, 47, 64
2, 19418, Note_on_c, 0, 78, 90
2, 19418, Note_on_c, 0, 62, 78
2, 19421, Note_on_c, 0, 74, 89
2, 19451, Note_off_c, 0, 83, 64
2, 19452, Note_off_c, 0, 71, 64
2, 19480, Note_off_c, 0, 74, 64
2, 19486, Note_off_c, 0, 78, 64
2, 19510, Note_on_c, 0, 83, 108
2, 19512, Note_on_c, 0, 71, 108
2, 19514, Note_off_c, 0, 62, 64
2, 19516, Note_on_c, 0, 54, 95
2, 19534, Control_c, 0, 64, 63
2, 19541, Control_c, 0, 64, 0
2, 19573, Control_c, 0, 64, 63
2, 19579, Control_c, 0, 64, 127
2, 19601, Note_on_c, 0, 52, 96
2, 19605, Note_off_c, 0, 54, 64
2, 19606, Note_on_c, 0, 76, 91
2, 19607, Note_on_c, 0, 79, 93
2, 19617, Note_off_c, 0, 71, 64
2, 19625, Note_off_c, 0, 83, 64
2, 19635, Note_off_c, 0, 52, 64
2, 19640, Note_off_c, 0, 76, 64
2, 19649, Note_off_c, 0, 79, 64
2, 19691, Note_on_c, 0, 82, 112
2, 19692, Note_on_c, 0, 70, 113
2, 19694, Note_on_c, 0, 67, 89
2, 19715, Note_off_c, 0, 70, 64
2, 19720, Note_off_c, 0, 82, 64
2, 19737, Note_off_c, 0, 67, 64
2, 19793, Note_on_c, 0, 55, 83
2, 19794, Note_on_c, 0, 83, 104
2, 19795, Note_on_c, 0, 59, 90
2, 19796, Note_on_c, 0, 71, 98
2, 19809, Note_off_c, 0, 59, 64
2, 19815, Note_off_c, 0, 71, 64
2, 19821, Note_off_c, 0, 83, 64
2, 19821, Note_off_c, 0, 55, 64
2, 19902, Control_c, 0, 64, 63
2, 19906, Control_c, 0, 64, 0
2, 19913, Note_on_c, 0, 50, 104
2, 19917, Note_on_c, 0, 86, 107
2, 19920, Note_on_c, 0, 74, 99
2, 19932, Control_c, 0, 64, 63
2, 19936, Control_c, 0, 64, 127
2, 19959, Note_off_c, 0, 50, 64
2, 20035, Note_on_c, 0, 66, 81
2, 20036, Note_on_c, 0, 78, 71
2, 20039, Note_on_c, 0, 81, 67
2, 20068, Note_off_c, 0, 74, 64
2, 20103, Note_off_c, 0, 66, 64
2, 20124, Note_on_c, 0, 74, 88
2, 20125, Note_off_c, 0, 81, 64
2, 20125, Note_on_c, 0, 62, 85
2, 20126, Note_on_c, 0, 57, 66
2, 20140, Note_off_c, 0, 78, 64
2, 20210, Note_on_c, 0, 55, 96
2, 20211, Note_on_c, 0, 82, 97
2, 20216, Note_on_c, 0, 79, 86
2, 20229, Control_c, 0, 64, 63
2, 20232, Control_c, 0, 64, 0
2, 20238, Note_off_c, 0, 62, 64
2, 20247, Note_off_c, 0, 57, 64
2, 20249, Note_off_c, 0, 74, 64
2, 20262, Control_c, 0, 64, 63
2, 20267, Control_c, 0, 64, 127
2, 20301, Note_on_c, 0, 67, 86
2, 20310, Note_on_c, 0, 74, 73
2, 20324, Note_off_c, 0, 79, 64
2, 20325, Note_off_c, 0, 82, 64
2, 20394, Note_on_c, 0, 82, 79
2, 20397, Note_on_c, 0, 58, 75
2, 20399, Note_off_c, 0, 67, 64
2, 20401, Note_off_c, 0, 55, 64
2, 20404, Note_on_c, 0, 79, 57
2, 20422, Note_off_c, 0, 58, 64
2, 20440, Note_off_c, 0, 74, 64
2, 20457, Note_off_c, 0, 82, 64
2, 20481, Note_off_c, 0, 79, 64
2, 20493, Note_on_c, 0, 50, 89
2, 20497, Control_c, 0, 64, 63
2, 20497, Note_on_c, 0, 74, 80
2, 20500, Control_c, 0, 64, 0
2, 20522, Control_c, 0, 64, 63
2, 20527, Control_c, 0, 64, 127
2, 20534, Note_off_c, 0, 50, 64
2, 20606, Note_on_c, 0, 78, 79
2, 20610, Note_on_c, 0, 81, 65
2, 20611, Note_off_c, 0, 86, 64
2, 20612, Note_on_c, 0, 66, 72
2, 20615, Note_off_c, 0, 74, 64
2, 20637, Note_off_c, 0, 81, 64
2, 20639, Note_off_c, 0, 78, 64
2, 20673, Note_off_c, 0, 66, 64
2, 20706, Note_on_c, 0, 81, 100
2, 20707, Note_on_c, 0, 57, 68
2, 20712, Note_on_c, 0, 62, 57
2, 20719, Note_off_c, 0, 81, 64
2, 20758, Note_off_c, 0, 62, 64
2, 20806, Note_on_c, 0, 67, 68
2, 20807, Note_on_c, 0, 82, 103
2, 20810, Note_on_c, 0, 70, 91
2, 20839, Control_c, 0, 64, 63
2, 20859, Control_c, 0, 64, 127
2, 20895, Note_on_c, 0, 58, 80
2, 20896, Note_on_c, 0, 61, 91
2, 20900, Note_on_c, 0, 79, 71
2, 20903, Note_on_c, 0, 76, 67
2, 20911, Note_off_c, 0, 57, 64
2, 20929, Note_off_c, 0, 82, 64
2, 20931, Note_off_c, 0, 70, 64
2, 20946, Note_off_c, 0, 67, 64
2, 20951, Note_off_c, 0, 76, 64
2, 20956, Note_off_c, 0, 79, 64
2, 20973, Note_on_c, 0, 55, 83
2, 20984, Note_on_c, 0, 85, 110
2, 20985, Note_on_c, 0, 73, 98
2, 20988, Note_off_c, 0, 61, 64
2, 20996, Note_off_c, 0, 58, 64
2, 21007, Note_off_c, 0, 55, 64
2, 21010, Note_off_c, 0, 73, 64
2, 21024, Note_off_c, 0, 85, 64
2, 21068, Control_c, 0, 64, 63
2, 21072, Control_c, 0, 64, 0
2, 21077, Note_on_c, 0, 50, 96
2, 21078, Note_on_c, 0, 86, 104
2, 21084, Note_on_c, 0, 74, 78
2, 21088, Control_c, 0, 64, 63
2, 21095, Control_c, 0, 64, 127
2, 21111, Note_off_c, 0, 50, 64
2, 21157, Note_off_c, 0, 86, 64
2, 21168, Note_off_c, 0, 74, 64
2, 21171, Note_on_c, 0, 78, 85
2, 21173, Note_on_c, 0, 81, 73
2, 21178, Note_on_c, 0, 66, 82
2, 21203, Note_off_c, 0, 81, 64
2, 21211, Note_off_c, 0, 78, 64
2, 21238, Note_off_c, 0, 66, 64
2, 21251, Note_on_c, 0, 57, 86
2, 21261, Note_on_c, 0, 81, 107
2, 21262, Note_on_c, 0, 69, 101
2, 21274, Note_off_c, 0, 69, 64
2, 21276, Note_off_c, 0, 81, 64
2, 21356, Note_on_c, 0, 67, 89
2, 21357, Note_on_c, 0, 82, 106
2, 21360, Note_on_c, 0, 70, 106
2, 21393, Control_c, 0, 64, 63
2, 21396, Control_c, 0, 64, 0
2, 21415, Control_c, 0, 64, 63
2, 21422, Control_c, 0, 64, 127
2, 21444, Note_on_c, 0, 58, 91
2, 21446, Note_on_c, 0, 79, 87
2, 21448, Note_on_c, 0, 61, 91
2, 21452, Note_on_c, 0, 76, 73
2, 21455, Note_off_c, 0, 57, 64
2, 21463, Note_off_c, 0, 70, 64
2, 21470, Note_off_c, 0, 82, 64
2, 21492, Note_off_c, 0, 76, 64
2, 21507, Note_off_c, 0, 79, 64
2, 21513, Note_off_c, 0, 67, 64
2, 21526, Note_on_c, 0, 55, 77
2, 21536, Note_on_c, 0, 85, 108
2, 21536, Note_on_c, 0, 73, 106
2, 21539, Note_off_c, 0, 61, 64
2, 21549, Note_off_c, 0, 58, 64
2, 21556, Note_off_c, 0, 55, 64
2, 21562, Note_off_c, 0, 73, 64
2, 21567, Note_off_c, 0, 85, 64
2, 21613, Control_c, 0, 64, 63
2, 21618, Control_c, 0, 64, 0
2, 21628, Note_on_c, 0, 50, 99
2, 21635, Note_on_c, 0, 86, 106
2, 21638, Note_on_c, 0, 74, 89
2, 21640, Control_c, 0, 64, 63
2, 21646, Control_c, 0, 64, 127
2, 21665, Note_off_c, 0, 50, 64
2, 21695, Note_off_c, 0, 74, 64
2, 21725, Note_off_c, 0, 86, 64
2, 21729, Note_on_c, 0, 78, 87
2, 21732, Note_on_c, 0, 81, 80
2, 21733, Note_on_c, 0, 66, 96
2, 21775, Note_off_c, 0, 81, 64
2, 21781, Note_off_c, 0, 78, 64
2, 21783, Note_off_c, 0, 66, 64
2, 21818, Note_on_c, 0, 62, 89
2, 21821, Note_on_c, 0, 57, 76
2, 21823, Note_on_c, 0, 86, 111
2, 21824, Note_on_c, 0, 74, 104
2, 21866, Control_c, 0, 64, 63
2, 21869, Control_c, 0, 64, 0
2, 21895, Control_c, 0, 64, 63
2, 21901, Control_c, 0, 64, 127
2, 21908, Note_on_c, 0, 55, 99
2, 21909, Note_on_c, 0, 83, 96
2, 21911, Note_on_c, 0, 79, 96
2, 21919, Note_off_c, 0, 57, 64
2, 21921, Note_off_c, 0, 86, 64
2, 21933, Note_off_c, 0, 62, 64
2, 21934, Note_off_c, 0, 74, 64
2, 21945, Note_off_c, 0, 55, 64
2, 21953, Note_off_c, 0, 79, 64
2, 21959, Note_off_c, 0, 83, 64
2, 21999, Note_on_c, 0, 85, 113
2, 22000, Note_on_c, 0, 73, 114
2, 22002, Note_on_c, 0, 71, 65
2, 22023, Note_off_c, 0, 73, 64
2, 22024, Note_off_c, 0, 85, 64
2, 22034, Note_off_c, 0, 71, 64
2, 22105, Note_on_c, 0, 86, 112
2, 22107, Note_on_c, 0, 59, 97
2, 22107, Note_on_c, 0, 62, 103
2, 22108, Note_on_c, 0, 74, 99
2, 22123, Note_off_c, 0, 74, 64
2, 22131, Note_off_c, 0, 86, 64
2, 22133, Note_off_c, 0, 62, 64
2, 22142, Note_off_c, 0, 59, 64
2, 22222, Control_c, 0, 64, 63
2, 22226, Note_on_c, 0, 54, 105
2, 22227, Control_c, 0, 64, 0
2, 22229, Note_on_c, 0, 90, 115
2, 22232, Note_on_c, 0, 78, 108
2, 22261, Control_c, 0, 64, 63
2, 22263, Control_c, 0, 64, 127
2, 22277, Note_off_c, 0, 54, 64
2, 22347, Note_on_c, 0, 85, 80
2, 22347, Note_on_c, 0, 82, 76
2, 22352, Note_on_c, 0, 73, 92
2, 22370, Note_off_c, 0, 78, 64
2, 22414, Note_off_c, 0, 73, 64
2, 22441, Note_off_c, 0, 82, 64
2, 22441, Note_off_c, 0, 85, 64
2, 22444, Note_on_c, 0, 78, 89
2, 22446, Note_on_c, 0, 66, 91
2, 22447, Note_on_c, 0, 61, 80
2, 22466, Note_off_c, 0, 61, 64
2, 22469, Note_off_c, 0, 66, 64
2, 22535, Control_c, 0, 64, 63
2, 22538, Control_c, 0, 64, 0
2, 22543, Note_on_c, 0, 59, 104
2, 22545, Note_off_c, 0, 78, 64
2, 22546, Note_on_c, 0, 86, 79
2, 22547, Note_on_c, 0, 83, 77
2, 22563, Control_c, 0, 64, 63
2, 22568, Control_c, 0, 64, 127
2, 22588, Note_off_c, 0, 59, 64
2, 22650, Note_off_c, 0, 83, 64
2, 22652, Note_on_c, 0, 74, 102
2, 22657, Note_off_c, 0, 86, 64
2, 22658, Note_on_c, 0, 78, 79
2, 22735, Note_off_c, 0, 74, 64
2, 22760, Note_on_c, 0, 62, 84
2, 22763, Note_on_c, 0, 66, 88
2, 22766, Note_on_c, 0, 86, 60
2, 22770, Note_on_c, 0, 83, 57
2, 22778, Note_off_c, 0, 78, 64
2, 22780, Note_off_c, 0, 66, 64
2, 22788, Note_off_c, 0, 62, 64
2, 22860, Note_off_c, 0, 86, 64
2, 22863, Control_c, 0, 64, 63
2, 22866, Note_off_c, 0, 83, 64
2, 22866, Control_c, 0, 64, 0
2, 22870, Note_on_c, 0, 58, 103
2, 22873, Note_on_c, 0, 78, 94
2, 22890, Control_c, 0, 64, 63
2, 22897, Control_c, 0, 64, 127
2, 22919, Note_off_c, 0, 58, 64
2, 22971, Note_on_c, 0, 73, 91
2, 22972, Note_off_c, 0, 90, 64
2, 22972, Note_on_c, 0, 85, 75
2, 22972, Note_on_c, 0, 82, 70
2, 22988, Note_off_c, 0, 78, 64
2, 22998, Note_off_c, 0, 82, 64
2, 23005, Note_off_c, 0, 85, 64
2, 23010, Note_off_c, 0, 73, 64
2, 23059, Note_on_c, 0, 61, 74
2, 23059, Note_on_c, 0, 85, 100
2, 23060, Note_on_c, 0, 73, 96
2, 23061, Note_on_c, 0, 66, 79
2, 23075, Note_off_c, 0, 66, 64
2, 23077, Note_off_c, 0, 61, 64
2, 23092, Note_off_c, 0, 73, 64
2, 23113, Note_off_c, 0, 85, 64
2, 23147, Control_c, 0, 64, 63
2, 23150, Control_c, 0, 64, 0
2, 23157, Note_on_c, 0, 86, 102
2, 23157, Note_on_c, 0, 57, 96
2, 23159, Note_on_c, 0, 74, 90
2, 23171, Control_c, 0, 64, 63
2, 23179, Control_c, 0, 64, 127
2, 23200, Note_off_c, 0, 57, 64
2, 23227, Note_off_c, 0, 86, 64
2, 23247, Note_off_c, 0, 74, 64
2, 23247, Note_on_c, 0, 71, 82
2, 23248, Note_on_c, 0, 83, 84
2, 23251, Note_on_c, 0, 78, 77
2, 23278, Note_off_c, 0, 78, 64
2, 23290, Note_off_c, 0, 83, 64
2, 23299, Note_off_c, 0, 71, 64
2, 23342, Note_on_c, 0, 87, 98
2, 23343, Note_on_c, 0, 66, 90
2, 23343, Note_on_c, 0, 75, 88
2, 23346, Note_on_c, 0, 59, 75
2, 23360, Note_off_c, 0, 66, 64
2, 23363, Note_off_c, 0, 75, 64
2, 23364, Note_off_c, 0, 59, 64
2, 23372, Note_off_c, 0, 87, 64
2, 23438, Control_c, 0, 64, 63
2, 23442, Control_c, 0, 64, 0
2, 23446, Note_on_c, 0, 56, 110
2, 23449, Note_on_c, 0, 88, 102
2, 23449, Note_on_c, 0, 76, 93
2, 23462, Control_c, 0, 64, 63
2, 23470, Control_c, 0, 64, 127
2, 23503, Note_off_c, 0, 56, 64
2, 23544, Note_on_c, 0, 83, 68
2, 23546, Note_on_c, 0, 80, 68
2, 23548, Note_on_c, 0, 71, 68
2, 23561, Note_off_c, 0, 76, 64
2, 23591, Note_off_c, 0, 71, 64
2, 23619, Note_off_c, 0, 83, 64
2, 23630, Note_on_c, 0, 64, 68
2, 23630, Note_on_c, 0, 59, 62
2, 23632, Note_on_c, 0, 76, 72
2, 23636, Note_off_c, 0, 80, 64
2, 23647, Note_off_c, 0, 64, 64
2, 23652, Note_off_c, 0, 59, 64
2, 23707, Control_c, 0, 64, 63
2, 23710, Control_c, 0, 64, 0
2, 23729, Note_on_c, 0, 85, 88
2, 23731, Note_on_c, 0, 81, 82
2, 23731, Note_on_c, 0, 55, 101
2, 23736, Control_c, 0, 64, 63
2, 23742, Control_c, 0, 64, 127
2, 23770, Note_off_c, 0, 76, 64
2, 23772, Note_off_c, 0, 88, 64
2, 23774, Note_off_c, 0, 55, 64
2, 23789, Note_off_c, 0, 81, 64
2, 23811, Note_off_c, 0, 85, 64
2, 23826, Note_on_c, 0, 69, 73
2, 23875, Note_on_c, 0, 90, 97
2, 23879, Note_on_c, 0, 78, 81
2, 23894, Note_off_c, 0, 78, 64
2, 23897, Note_off_c, 0, 90, 64
2, 23897, Note_off_c, 0, 69, 64
2, 23926, Note_on_c, 0, 61, 90
2, 23930, Note_on_c, 0, 88, 100
2, 23931, Note_on_c, 0, 64, 61
2, 23932, Note_on_c, 0, 76, 84
2, 23945, Note_off_c, 0, 88, 64
2, 23946, Note_off_c, 0, 61, 64
2, 23948, Note_off_c, 0, 64, 64
2, 23951, Note_off_c, 0, 76, 64
2, 24033, Control_c, 0, 64, 63
2, 24037, Control_c, 0, 64, 0
2, 24043, Note_on_c, 0, 54, 94
2, 24046, Note_on_c, 0, 86, 103
2, 24049, Note_on_c, 0, 74, 81
2, 24062, Control_c, 0, 64, 63
2, 24068, Control_c, 0, 64, 127
2, 24083, Note_off_c, 0, 54, 64
2, 24144, Note_off_c, 0, 74, 64
2, 24145, Note_off_c, 0, 86, 64
2, 24147, Note_on_c, 0, 78, 77
2, 24149, Note_on_c, 0, 69, 67
2, 24150, Note_on_c, 0, 81, 70
2, 24201, Note_off_c, 0, 78, 64
2, 24210, Note_off_c, 0, 81, 64
2, 24213, Note_off_c, 0, 69, 64
2, 24240, Note_on_c, 0, 57, 82
2, 24244, Note_on_c, 0, 62, 80
2, 24244, Note_on_c, 0, 85, 95
2, 24247, Note_on_c, 0, 73, 88
2, 24258, Note_off_c, 0, 62, 64
2, 24267, Note_off_c, 0, 57, 64
2, 24269, Note_off_c, 0, 85, 64
2, 24272, Note_off_c, 0, 73, 64
2, 24321, Control_c, 0, 64, 63
2, 24324, Control_c, 0, 64, 0
2, 24336, Note_on_c, 0, 83, 101
2, 24340, Note_on_c, 0, 54, 93
2, 24341, Note_on_c, 0, 71, 78
2, 24345, Control_c, 0, 64, 63
2, 24351, Control_c, 0, 64, 127
2, 24361, Note_off_c, 0, 83, 64
2, 24366, Note_off_c, 0, 71, 64
2, 24373, Note_off_c, 0, 54, 64
2, 24442, Note_on_c, 0, 74, 83
2, 24442, Note_on_c, 0, 80, 85
2, 24443, Note_on_c, 0, 68, 88
2, 24452, Note_on_c, 0, 59, 53
2, 24460, Note_off_c, 0, 74, 64
2, 24469, Note_off_c, 0, 59, 64
2, 24469, Note_off_c, 0, 68, 64
2, 24477, Note_off_c, 0, 80, 64
2, 24534, Note_on_c, 0, 53, 98
2, 24542, Note_on_c, 0, 73, 108
2, 24542, Note_on_c, 0, 85, 99
2, 24553, Note_off_c, 0, 85, 64
2, 24565, Note_off_c, 0, 73, 64
2, 24652, Note_on_c, 0, 52, 93
2, 24664, Note_on_c, 0, 78, 94
2, 24666, Note_on_c, 0, 66, 97
2, 24673, Control_c, 0, 64, 63
2, 24676, Control_c, 0, 64, 0
2, 24677, Note_off_c, 0, 53, 64
2, 24717, Control_c, 0, 64, 63
2, 24721, Control_c, 0, 64, 127
2, 24782, Note_on_c, 0, 64, 63
2, 24785, Note_on_c, 0, 73, 70
2, 24787, Note_on_c, 0, 70, 66
2, 24798, Note_off_c, 0, 66, 64
2, 24868, Note_off_c, 0, 73, 64
2, 24870, Note_off_c, 0, 70, 64
2, 24878, Note_on_c, 0, 58, 72
2, 24879, Note_on_c, 0, 66, 83
2, 24882, Note_on_c, 0, 54, 68
2, 24885, Note_off_c, 0, 64, 64
2, 24888, Note_off_c, 0, 52, 64
2, 24954, Control_c, 0, 64, 63
2, 24958, Control_c, 0, 64, 0
2, 24964, Note_off_c, 0, 58, 64
2, 24982, Control_c, 0, 64, 63
2, 24983, Note_on_c, 0, 50, 92
2, 24985, Note_on_c, 0, 71, 79
2, 24985, Note_on_c, 0, 74, 78
2, 24989, Control_c, 0, 64, 127
2, 24991, Note_off_c, 0, 66, 64
2, 24997, Note_off_c, 0, 54, 64
2, 25009, Note_off_c, 0, 71, 64
2, 25011, Note_off_c, 0, 50, 64
2, 25019, Note_off_c, 0, 74, 64
2, 25024, Note_off_c, 0, 78, 64
2, 25097, Note_on_c, 0, 66, 70
2, 25142, Note_on_c, 0, 88, 100
2, 25143, Note_on_c, 0, 76, 85
2, 25152, Note_off_c, 0, 66, 64
2, 25154, Note_off_c, 0, 88, 64
2, 25164, Note_off_c, 0, 76, 64
2, 25199, Note_on_c, 0, 86, 94
2, 25201, Note_on_c, 0, 74, 70
2, 25207, Note_on_c, 0, 54, 72
2, 25215, Note_on_c, 0, 59, 60
2, 25224, Note_off_c, 0, 86, 64
2, 25230, Note_off_c, 0, 59, 64
2, 25235, Note_off_c, 0, 74, 64
2, 25243, Note_off_c, 0, 54, 64
2, 25332, Control_c, 0, 64, 63
2, 25336, Control_c, 0, 64, 0
2, 25338, Note_on_c, 0, 85, 99
2, 25342, Note_on_c, 0, 46, 94
2, 25343, Note_on_c, 0, 73, 84
2, 25359, Control_c, 0, 64, 63
2, 25367, Control_c, 0, 64, 127
2, 25384, Note_off_c, 0, 46, 64
2, 25404, Note_off_c, 0, 85, 64
2, 25425, Note_off_c, 0, 73, 64
2, 25457, Note_on_c, 0, 78, 95
2, 25460, Note_on_c, 0, 64, 72
2, 25467, Note_on_c, 0, 76, 61
2, 25483, Note_off_c, 0, 76, 64
2, 25488, Note_off_c, 0, 78, 64
2, 25532, Note_off_c, 0, 64, 64
2, 25560, Note_on_c, 0, 54, 92
2, 25565, Note_on_c, 0, 86, 93
2, 25570, Note_on_c, 0, 74, 59
2, 25585, Note_off_c, 0, 86, 64
2, 25585, Note_off_c, 0, 54, 64
2, 25589, Note_off_c, 0, 74, 64
2, 25663, Control_c, 0, 64, 63
2, 25667, Control_c, 0, 64, 0
2, 25670, Note_on_c, 0, 83, 93
2, 25672, Note_on_c, 0, 47, 92
2, 25675, Note_on_c, 0, 71, 75
2, 25683, Control_c, 0, 64, 63
2, 25691, Control_c, 0, 64, 127
2, 25707, Note_off_c, 0, 83, 64
2, 25709, Note_off_c, 0, 47, 64
2, 25734, Note_off_c, 0, 71, 64
2, 25761, Note_on_c, 0, 78, 90
2, 25762, Note_on_c, 0, 62, 89
2, 25765, Note_on_c, 0, 74, 86
2, 25783, Note_off_c, 0, 74, 64
2, 25797, Note_off_c, 0, 78, 64
2, 25843, Note_off_c, 0, 62, 64
2, 25850, Note_on_c, 0, 54, 98
2, 25850, Note_on_c, 0, 74, 104
2, 25851, Note_on_c, 0, 86, 98
2, 25862, Note_on_c, 0, 84, 52
2, 25866, Note_off_c, 0, 74, 64
2, 25869, Note_off_c, 0, 86, 64
2, 25872, Note_off_c, 0, 54, 64
2, 25879, Note_off_c, 0, 84, 64
2, 25947, Control_c, 0, 64, 63
2, 25949, Note_on_c, 0, 45, 104
2, 25952, Control_c, 0, 64, 0
2, 25952, Note_on_c, 0, 78, 94
2, 25958, Note_on_c, 0, 66, 101
2, 25975, Control_c, 0, 64, 63
2, 25983, Control_c, 0, 64, 127
2, 26004, Note_off_c, 0, 45, 64
2, 26031, Note_off_c, 0, 66, 64
2, 26036, Note_off_c, 0, 78, 64
2, 26045, Note_on_c, 0, 59, 81
2, 26052, Note_on_c, 0, 75, 101
2, 26053, Note_on_c, 0, 71, 80
2, 26071, Note_off_c, 0, 71, 64
2, 26092, Note_off_c, 0, 75, 64
2, 26126, Note_off_c, 0, 59, 64
2, 26139, Note_on_c, 0, 51, 99
2, 26139, Note_on_c, 0, 79, 94
2, 26147, Note_on_c, 0, 67, 54
2, 26157, Note_off_c, 0, 79, 64
2, 26166, Note_off_c, 0, 67, 64
2, 26198, Note_off_c, 0, 51, 64
2, 26221, Control_c, 0, 64, 63
2, 26224, Control_c, 0, 64, 0
2, 26230, Note_on_c, 0, 43, 107
2, 26234, Note_on_c, 0, 76, 108
2, 26237, Note_on_c, 0, 64, 82
2, 26245, Control_c, 0, 64, 63
2, 26253, Control_c, 0, 64, 127
2, 26254, Note_off_c, 0, 64, 64
2, 26272, Note_off_c, 0, 76, 64
2, 26286, Note_off_c, 0, 43, 64
2, 26325, Note_on_c, 0, 59, 82
2, 26326, Note_on_c, 0, 71, 80
2, 26333, Note_on_c, 0, 67, 43
2, 26351, Note_off_c, 0, 67, 64
2, 26357, Note_off_c, 0, 71, 64
2, 26388, Note_off_c, 0, 59, 64
2, 26417, Note_on_c, 0, 52, 92
2, 26420, Note_on_c, 0, 83, 98
2, 26426, Note_on_c, 0, 71, 82
2, 26434, Note_off_c, 0, 83, 64
2, 26439, Note_off_c, 0, 52, 64
2, 26440, Note_off_c, 0, 71, 64
2, 26533, Note_on_c, 0, 42, 99
2, 26536, Note_on_c, 0, 74, 106
2, 26537, Note_on_c, 0, 62, 102
2, 26556, Control_c, 0, 64, 63
2, 26560, Control_c, 0, 64, 0
2, 26586, Control_c, 0, 64, 63
2, 26594, Control_c, 0, 64, 127
2, 26647, Note_on_c, 0, 71, 86
2, 26647, Note_on_c, 0, 66, 79
2, 26649, Note_on_c, 0, 54, 92
2, 26662, Note_off_c, 0, 62, 64
2, 26678, Note_off_c, 0, 74, 64
2, 26693, Note_off_c, 0, 66, 64
2, 26705, Note_off_c, 0, 71, 64
2, 26706, Note_off_c, 0, 54, 64
2, 26724, Note_off_c, 0, 42, 64
2, 26737, Note_on_c, 0, 76, 103
2, 26738, Note_on_c, 0, 47, 87
2, 26744, Note_on_c, 0, 64, 62
2, 26757, Note_off_c, 0, 76, 64
2, 26768, Note_off_c, 0, 64, 64
2, 26832, Note_on_c, 0, 40, 109
2, 26834, Note_on_c, 0, 73, 103
2, 26835, Note_off_c, 0, 47, 64
2, 26839, Note_on_c, 0, 61, 103
2, 26841, Control_c, 0, 64, 63
2, 26845, Control_c, 0, 64, 0
2, 26867, Control_c, 0, 64, 63
2, 26873, Control_c, 0, 64, 127
2, 26891, Note_off_c, 0, 40, 64
2, 26921, Note_off_c, 0, 61, 64
2, 26932, Note_on_c, 0, 55, 90
2, 26933, Note_on_c, 0, 70, 103
2, 26936, Note_on_c, 0, 67, 70
2, 26949, Note_off_c, 0, 73, 64
2, 26951, Note_off_c, 0, 67, 64
2, 26967, Note_off_c, 0, 70, 64
2, 27030, Note_on_c, 0, 46, 106
2, 27030, Note_on_c, 0, 79, 100
2, 27032, Note_off_c, 0, 55, 64
2, 27033, Note_on_c, 0, 67, 82
2, 27044, Note_off_c, 0, 79, 64
2, 27048, Note_off_c, 0, 67, 64
2, 27082, Note_off_c, 0, 46, 64
2, 27137, Note_on_c, 0, 79, 111
2, 27139, Control_c, 0, 64, 63
2, 27140, Note_on_c, 0, 67, 101
2, 27141, Note_on_c, 0, 40, 117
2, 27144, Control_c, 0, 64, 0
2, 27170, Control_c, 0, 64, 63
2, 27175, Control_c, 0, 64, 127
2, 27207, Note_off_c, 0, 40, 64
2, 27250, Note_on_c, 0, 70, 117
2, 27250, Note_on_c, 0, 55, 93
2, 27252, Note_on_c, 0, 73, 104
2, 27261, Note_off_c, 0, 67, 64
2, 27267, Note_off_c, 0, 79, 64
2, 27284, Note_off_c, 0, 55, 64
2, 27286, Note_off_c, 0, 73, 64
2, 27310, Note_off_c, 0, 70, 64
2, 27354, Note_on_c, 0, 49, 106
2, 27355, Note_on_c, 0, 82, 114
2, 27356, Note_on_c, 0, 70, 114
2, 27360, Note_on_c, 0, 55, 93
2, 27379, Note_off_c, 0, 70, 64
2, 27386, Note_off_c, 0, 82, 64
2, 27477, Note_on_c, 0, 46, 108
2, 27479, Note_on_c, 0, 85, 115
2, 27480, Note_on_c, 0, 73, 115
2, 27519, Note_off_c, 0, 55, 64
2, 27538, Note_off_c, 0, 73, 64
2, 27546, Note_off_c, 0, 85, 64
2, 27593, Note_off_c, 0, 49, 64
2, 27607, Note_on_c, 0, 86, 107
2, 27608, Note_on_c, 0, 74, 101
2, 27611, Note_on_c, 0, 54, 112
2, 27629, Control_c, 0, 64, 63
2, 27634, Control_c, 0, 64, 0
2, 27644, Control_c, 0, 64, 63
2, 27653, Control_c, 0, 64, 127
2, 27696, Note_off_c, 0, 74, 64
2, 27703, Note_off_c, 0, 86, 64
2, 27739, Note_on_c, 0, 88, 114
2, 27740, Note_on_c, 0, 49, 106
2, 27740, Note_on_c, 0, 76, 107
2, 27756, Note_off_c, 0, 54, 64
2, 27761, Note_off_c, 0, 76, 64
2, 27771, Note_off_c, 0, 88, 64
2, 27782, Note_off_c, 0, 46, 64
2, 27783, Note_off_c, 0, 49, 64
2, 27905, Note_on_c, 0, 91, 93
2, 27905, Note_on_c, 0, 38, 120
2, 27906, Note_on_c, 0, 79, 96
2, 27921, Control_c, 0, 64, 63
2, 27924, Control_c, 0, 64, 0
2, 27951, Control_c, 0, 64, 63
2, 27956, Control_c, 0, 64, 127
2, 28011, Note_off_c, 0, 38, 64
2, 28058, Note_on_c, 0, 86, 90
2, 28064, Note_on_c, 0, 83, 75
2, 28068, Note_on_c, 0, 59, 98
2, 28082, Note_off_c, 0, 79, 64
2, 28170, Note_off_c, 0, 91, 64
2, 28178, Note_on_c, 0, 50, 113
2, 28181, Note_off_c, 0, 59, 64
2, 28181, Note_on_c, 0, 79, 92
2, 28217, Note_off_c, 0, 79, 64
2, 28241, Note_off_c, 0, 83, 64
2, 28266, Note_off_c, 0, 86, 64
2, 28291, Note_on_c, 0, 90, 110
2, 28292, Note_on_c, 0, 78, 120
2, 28293, Note_on_c, 0, 62, 106
2, 28327, Control_c, 0, 64, 63
2, 28331, Control_c, 0, 64, 0
2, 28355, Control_c, 0, 64, 63
2, 28361, Control_c, 0, 64, 127
2, 28400, Note_on_c, 0, 59, 97
2, 28402, Note_on_c, 0, 86, 72
2, 28410, Note_on_c, 0, 83, 57
2, 28422, Note_off_c, 0, 62, 64
2, 28432, Note_off_c, 0, 78, 64
2, 28435, Note_off_c, 0, 50, 64
2, 28484, Note_off_c, 0, 90, 64
2, 28492, Note_off_c, 0, 86, 64
2, 28496, Note_off_c, 0, 59, 64
2, 28496, Note_on_c, 0, 50, 87
2, 28500, Note_on_c, 0, 78, 84
2, 28509, Note_off_c, 0, 83, 64
2, 28518, Note_off_c, 0, 50, 64
2, 28523, Note_off_c, 0, 78, 64
2, 28606, Control_c, 0, 64, 63
2, 28609, Control_c, 0, 64, 0
2, 28609, Note_on_c, 0, 37, 115
2, 28610, Note_on_c, 0, 89, 109
2, 28611, Note_on_c, 0, 77, 108
2, 28632, Control_c, 0, 64, 63
2, 28636, Control_c, 0, 64, 127
2, 28643, Note_off_c, 0, 37, 64
2, 28712, Note_on_c, 0, 85, 87
2, 28714, Note_on_c, 0, 83, 71
2, 28715, Note_on_c, 0, 56, 77
2, 28747, Note_off_c, 0, 77, 64
2, 28793, Note_off_c, 0, 89, 64
2, 28804, Note_off_c, 0, 56, 64
2, 28811, Note_on_c, 0, 49, 85
2, 28812, Note_off_c, 0, 85, 64
2, 28812, Note_on_c, 0, 77, 83
2, 28817, Note_off_c, 0, 83, 64
2, 28840, Note_off_c, 0, 77, 64
2, 28902, Control_c, 0, 64, 63
2, 28905, Control_c, 0, 64, 0
2, 28907, Note_on_c, 0, 88, 103
2, 28908, Note_on_c, 0, 76, 107
2, 28910, Note_on_c, 0, 42, 114
2, 28913, Note_off_c, 0, 49, 64
2, 28926, Control_c, 0, 64, 63
2, 28931, Control_c, 0, 64, 127
2, 28949, Note_off_c, 0, 42, 64
2, 28991, Note_off_c, 0, 88, 64
2, 29023, Note_on_c, 0, 82, 87
2, 29023, Note_on_c, 0, 61, 88
2, 29029, Note_on_c, 0, 78, 87
2, 29049, Note_off_c, 0, 76, 64
2, 29083, Note_off_c, 0, 61, 64
2, 29122, Note_on_c, 0, 54, 87
2, 29127, Note_off_c, 0, 82, 64
2, 29131, Note_on_c, 0, 76, 83
2, 29132, Note_off_c, 0, 78, 64
2, 29163, Note_off_c, 0, 76, 64
2, 29183, Note_off_c, 0, 54, 64
2, 29216, Control_c, 0, 64, 63
2, 29218, Note_on_c, 0, 47, 108
2, 29219, Control_c, 0, 64, 0
2, 29220, Note_on_c, 0, 86, 103
2, 29221, Note_on_c, 0, 74, 102
2, 29242, Control_c, 0, 64, 63
2, 29248, Control_c, 0, 64, 127
2, 29267, Note_off_c, 0, 47, 64
2, 29316, Note_on_c, 0, 62, 80
2, 29320, Note_on_c, 0, 78, 85
2, 29321, Note_on_c, 0, 83, 81
2, 29327, Note_off_c, 0, 86, 64
2, 29350, Note_off_c, 0, 74, 64
2, 29391, Note_off_c, 0, 62, 64
2, 29405, Note_on_c, 0, 54, 82
2, 29407, Note_off_c, 0, 83, 64
2, 29410, Note_on_c, 0, 74, 74
2, 29415, Note_off_c, 0, 78, 64
2, 29420, Note_off_c, 0, 54, 64
2, 29427, Note_off_c, 0, 74, 64
2, 29519, Control_c, 0, 64, 63
2, 29521, Note_on_c, 0, 41, 113
2, 29522, Note_on_c, 0, 74, 93
2, 29523, Note_on_c, 0, 62, 85
2, 29524, Control_c, 0, 64, 0
2, 29545, Control_c, 0, 64, 63
2, 29550, Control_c, 0, 64, 127
2, 29576, Note_off_c, 0, 41, 64
2, 29626, Note_on_c, 0, 68, 86
2, 29628, Note_on_c, 0, 71, 72
2, 29632, Note_off_c, 0, 74, 64
2, 29636, Note_on_c, 0, 56, 73
2, 29648, Note_off_c, 0, 62, 64
2, 29705, Note_off_c, 0, 56, 64
2, 29713, Note_on_c, 0, 62, 89
2, 29717, Note_on_c, 0, 50, 92
2, 29724, Note_off_c, 0, 71, 64
2, 29730, Note_off_c, 0, 68, 64
2, 29739, Note_off_c, 0, 62, 64
2, 29745, Note_off_c, 0, 50, 64
2, 29821, Note_on_c, 0, 42, 108
2, 29830, Note_on_c, 0, 86, 98
2, 29835, Note_on_c, 0, 74, 71
2, 29838, Control_c, 0, 64, 63
2, 29842, Control_c, 0, 64, 0
2, 29863, Control_c, 0, 64, 63
2, 29870, Control_c, 0, 64, 127
2, 29928, Note_on_c, 0, 78, 75
2, 29931, Note_on_c, 0, 83, 84
2, 29936, Note_on_c, 0, 54, 86
2, 29973, Note_off_c, 0, 74, 64
2, 30003, Note_off_c, 0, 54, 64
2, 30027, Note_off_c, 0, 42, 64
2, 30033, Note_on_c, 0, 47, 73
2, 30035, Note_off_c, 0, 86, 64
2, 30039, Note_on_c, 0, 74, 55
2, 30095, Note_off_c, 0, 74, 64
2, 30105, Note_off_c, 0, 83, 64
2, 30121, Note_off_c, 0, 78, 64
2, 30140, Note_on_c, 0, 40, 99
2, 30151, Note_on_c, 0, 85, 110
2, 30153, Note_on_c, 0, 73, 105
2, 30163, Note_off_c, 0, 47, 64
2, 30168, Control_c, 0, 64, 63
2, 30172, Control_c, 0, 64, 0
2, 30188, Control_c, 0, 64, 63
2, 30197, Control_c, 0, 64, 127
2, 30216, Note_off_c, 0, 40, 64
2, 30255, Note_on_c, 0, 54, 88
2, 30255, Note_on_c, 0, 82, 58
2, 30263, Note_off_c, 0, 73, 64
2, 30266, Note_on_c, 0, 78, 35
2, 30311, Note_off_c, 0, 82, 64
2, 30311, Note_off_c, 0, 54, 64
2, 30342, Note_off_c, 0, 85, 64
2, 30347, Note_on_c, 0, 46, 78
2, 30350, Note_on_c, 0, 73, 76
2, 30356, Note_off_c, 0, 78, 64
2, 30374, Note_off_c, 0, 73, 64
2, 30394, Note_off_c, 0, 46, 64
2, 30450, Note_on_c, 0, 66, 109
2, 30458, Note_on_c, 0, 38, 93
2, 30471, Control_c, 0, 64, 63
2, 30474, Control_c, 0, 64, 0
2, 30494, Control_c, 0, 64, 63
2, 30502, Control_c, 0, 64, 127
2, 30545, Note_off_c, 0, 38, 64
2, 30610, Note_on_c, 0, 78, 73
2, 30613, Note_on_c, 0, 59, 67
2, 30616, Note_on_c, 0, 73, 60
2, 30635, Note_off_c, 0, 66, 64
2, 30655, Note_off_c, 0, 73, 64
2, 30671, Note_off_c, 0, 59, 64
2, 30704, Note_off_c, 0, 78, 64
2, 30710, Note_on_c, 0, 66, 72
2, 30716, Note_on_c, 0, 54, 70
2, 30803, Note_on_c, 0, 50, 76
2, 30805, Note_on_c, 0, 78, 91
2, 30808, Note_off_c, 0, 54, 64
2, 30811, Note_on_c, 0, 71, 75
2, 30855, Note_off_c, 0, 66, 64
2, 30905, Note_on_c, 0, 66, 95
2, 30906, Note_on_c, 0, 62, 78
2, 30930, Note_off_c, 0, 71, 64
2, 30948, Note_off_c, 0, 78, 64
2, 30976, Note_off_c, 0, 62, 64
2, 30986, Note_off_c, 0, 50, 64
2, 30995, Note_on_c, 0, 54, 78
2, 31001, Note_on_c, 0, 78, 96
2, 31003, Note_on_c, 0, 71, 83
2, 31019, Note_off_c, 0, 66, 64
2, 31038, Note_off_c, 0, 78, 64
2, 31051, Note_off_c, 0, 71, 64
2, 31092, Note_off_c, 0, 54, 64
2, 31093, Note_on_c, 0, 49, 95
2, 31102, Note_on_c, 0, 65, 108
2, 31113, Control_c, 0, 64, 63
2, 31118, Control_c, 0, 64, 0
2, 31148, Control_c, 0, 64, 63
2, 31156, Control_c, 0, 64, 127
2, 31198, Note_on_c, 0, 61, 85
2, 31209, Note_on_c, 0, 77, 86
2, 31215, Note_on_c, 0, 71, 61
2, 31248, Note_off_c, 0, 77, 64
2, 31249, Note_off_c, 0, 65, 64
2, 31260, Note_off_c, 0, 61, 64
2, 31263, Note_off_c, 0, 71, 64
2, 31285, Note_on_c, 0, 64, 106
2, 31288, Note_on_c, 0, 56, 95
2, 31306, Note_off_c, 0, 49, 64
2, 31313, Note_off_c, 0, 56, 64
2, 31373, Control_c, 0, 64, 63
2, 31376, Control_c, 0, 64, 0
2, 31382, Note_on_c, 0, 42, 100
2, 31386, Note_on_c, 0, 70, 86
2, 31389, Note_on_c, 0, 76, 88
2, 31396, Control_c, 0, 64, 63
2, 31403, Control_c, 0, 64, 127
2, 31425, Note_off_c, 0, 42, 64
2, 31453, Note_off_c, 0, 64, 64
2, 31472, Note_off_c, 0, 76, 64
2, 31472, Note_on_c, 0, 64, 96
2, 31476, Note_on_c, 0, 61, 104
2, 31495, Note_off_c, 0, 70, 64
2, 31524, Note_off_c, 0, 61, 64
2, 31554, Note_off_c, 0, 64, 64
2, 31573, Note_on_c, 0, 70, 108
2, 31576, Note_on_c, 0, 76, 87
2, 31579, Note_on_c, 0, 54, 90
2, 31590, Note_off_c, 0, 76, 64
2, 31598, Note_off_c, 0, 70, 64
2, 31612, Note_off_c, 0, 54, 64
2, 31667, Control_c, 0, 64, 63
2, 31669, Note_on_c, 0, 47, 112
2, 31669, Note_on_c, 0, 63, 116
2, 31670, Control_c, 0, 64, 0
2, 31691, Control_c, 0, 64, 63
2, 31699, Control_c, 0, 64, 127
2, 31745, Note_off_c, 0, 63, 64
2, 31759, Note_off_c, 0, 47, 64
2, 31767, Note_on_c, 0, 59, 97
2, 31768, Note_on_c, 0, 75, 98
2, 31769, Note_on_c, 0, 66, 99
2, 31770, Note_on_c, 0, 71, 85
2, 31807, Note_off_c, 0, 71, 64
2, 31816, Note_off_c, 0, 66, 64
2, 31816, Note_off_c, 0, 75, 64
2, 31817, Note_off_c, 0, 59, 64
2, 31852, Note_on_c, 0, 62, 104
2, 31856, Note_on_c, 0, 54, 107
2, 31879, Note_off_c, 0, 54, 64
2, 31951, Control_c, 0, 64, 63
2, 31953, Note_on_c, 0, 67, 101
2, 31954, Note_on_c, 0, 74, 106
2, 31954, Note_on_c, 0, 71, 101
2, 31956, Note_on_c, 0, 41, 109
2, 31957, Control_c, 0, 64, 0
2, 31960, Note_on_c, 0, 43, 94
2, 31972, Note_off_c, 0, 43, 64
2, 31981, Control_c, 0, 64, 63
2, 31987, Control_c, 0, 64, 127
2, 32005, Note_off_c, 0, 62, 64
2, 32028, Note_off_c, 0, 41, 64
2, 32052, Note_on_c, 0, 55, 78
2, 32054, Note_on_c, 0, 62, 85
2, 32068, Note_off_c, 0, 67, 64
2, 32073, Note_off_c, 0, 74, 64
2, 32084, Note_off_c, 0, 71, 64
2, 32126, Note_off_c, 0, 62, 64
2, 32129, Note_off_c, 0, 55, 64
2, 32133, Note_on_c, 0, 47, 99
2, 32140, Note_on_c, 0, 71, 88
2, 32141, Note_on_c, 0, 74, 91
2, 32142, Note_on_c, 0, 67, 86
2, 32192, Note_off_c, 0, 74, 64
2, 32202, Note_off_c, 0, 47, 64
2, 32218, Control_c, 0, 64, 63
2, 32220, Control_c, 0, 64, 0
2, 32227, Note_on_c, 0, 40, 122
2, 32228, Note_on_c, 0, 60, 114
2, 32234, Note_off_c, 0, 71, 64
2, 32244, Control_c, 0, 64, 63
2, 32250, Control_c, 0, 64, 127
2, 32254, Note_off_c, 0, 67, 64
2, 32269, Note_off_c, 0, 40, 64
2, 32319, Note_on_c, 0, 55, 76
2, 32330, Note_on_c, 0, 67, 106
2, 32331, Note_on_c, 0, 72, 108
2, 32357, Note_off_c, 0, 60, 64
2, 32373, Note_off_c, 0, 72, 64
2, 32383, Note_off_c, 0, 67, 64
2, 32410, Note_on_c, 0, 59, 112
2, 32411, Note_off_c, 0, 55, 64
2, 32416, Note_on_c, 0, 48, 98
2, 32492, Note_off_c, 0, 48, 64
2, 32494, Control_c, 0, 64, 63
2, 32494, Note_on_c, 0, 71, 114
2, 32495, Note_on_c, 0, 64, 113
2, 32495, Note_on_c, 0, 66, 118
2, 32497, Control_c, 0, 64, 0
2, 32502, Note_on_c, 0, 42, 113
2, 32519, Note_off_c, 0, 59, 64
2, 32519, Control_c, 0, 64, 63
2, 32525, Control_c, 0, 64, 127
2, 32538, Note_off_c, 0, 71, 64
2, 32555, Note_off_c, 0, 64, 64
2, 32562, Note_off_c, 0, 66, 64
2, 32585, Note_off_c, 0, 42, 64
2, 32589, Note_on_c, 0, 58, 96
2, 32600, Note_on_c, 0, 54, 77
2, 32631, Note_off_c, 0, 58, 64
2, 32646, Note_off_c, 0, 54, 64
2, 32672, Note_on_c, 0, 70, 112
2, 32673, Note_on_c, 0, 64, 108
2, 32674, Note_on_c, 0, 66, 105
2, 32676, Note_on_c, 0, 49, 108
2, 32696, Note_off_c, 0, 64, 64
2, 32699, Note_off_c, 0, 66, 64
2, 32700, Note_off_c, 0, 49, 64
2, 32705, Note_off_c, 0, 70, 64
2, 32752, Control_c, 0, 64, 63
2, 32755, Control_c, 0, 64, 0
2, 32818, Note_on_c, 0, 83, 117
2, 32818, Note_on_c, 0, 75, 116
2, 32818, Note_on_c, 0, 71, 108
2, 32821, Note_on_c, 0, 35, 112
2, 32822, Note_on_c, 0, 47, 116
2, 32838, Control_c, 0, 64, 127
2, 32841, Note_off_c, 0, 75, 64
2, 32842, Note_off_c, 0, 71, 64
2, 32843, Note_off_c, 0, 83, 64
2, 32851, Note_off_c, 0, 47, 64
2, 32853, Note_off_c, 0, 35, 64
2, 33124, Note_on_c, 0, 63, 127
2, 33125, Note_on_c, 0, 59, 112
2, 33126, Note_on_c, 0, 47, 108
2, 33128, Note_on_c, 0, 54, 119
2, 33141, Control_c, 0, 64, 63
2, 33143, Control_c, 0, 64, 0
2, 33381, Note_off_c, 0, 54, 64
2, 33389, Note_off_c, 0, 63, 64
2, 33393, Note_off_c, 0, 59, 64
2, 33408, Note_on_c, 0, 64, 113
2, 33408, Note_on_c, 0, 59, 63
2, 33410, Note_on_c, 0, 56, 112
2, 33461, Note_off_c, 0, 56, 64
2, 33491, Note_off_c, 0, 64, 64
2, 33500, Note_on_c, 0, 63, 101
2, 33501, Note_on_c, 0, 54, 87
2, 33506, Note_off_c, 0, 59, 64
2, 33526, Note_off_c, 0, 63, 64
2, 33537, Note_off_c, 0, 54, 64
2, 33558, Note_off_c, 0, 47, 64
2, 33578, Note_on_c, 0, 47, 33
2, 33578, Note_on_c, 0, 52, 78
2, 33579, Note_on_c, 0, 68, 100
2, 33581, Note_on_c, 0, 58, 101
2, 33597, Note_off_c, 0, 52, 64
2, 33603, Note_off_c, 0, 58, 64
2, 33613, Note_off_c, 0, 68, 64
2, 33680, Note_on_c, 0, 66, 116
2, 33683, Note_on_c, 0, 59, 100
2, 33683, Note_on_c, 0, 51, 113
2, 33698, Control_c, 0, 64, 63
2, 33699, Note_off_c, 0, 59, 64
2, 33700, Note_off_c, 0, 47, 64
2, 33700, Control_c, 0, 64, 127
2, 33706, Note_off_c, 0, 66, 64
2, 33708, Note_off_c, 0, 51, 64
2, 33746, Control_c, 0, 64, 63
2, 33750, Control_c, 0, 64, 0
2, 33858, Note_on_c, 0, 43, 104
2, 33859, Note_on_c, 0, 59, 101
2, 33859, Note_on_c, 0, 49, 99
2, 33865, Note_on_c, 0, 53, 76
2, 33869, Note_off_c, 0, 49, 64
2, 33878, Note_off_c, 0, 53, 64
2, 33881, Note_off_c, 0, 43, 64
2, 33885, Note_off_c, 0, 59, 64
2, 33972, Note_on_c, 0, 30, 109
2, 33976, Note_on_c, 0, 61, 108
2, 33976, Note_on_c, 0, 59, 100
2, 33977, Note_on_c, 0, 42, 114
2, 33979, Note_on_c, 0, 52, 87
2, 33990, Control_c, 0, 64, 63
2, 33991, Note_off_c, 0, 30, 64
2, 33991, Control_c, 0, 64, 127
2, 33992, Note_off_c, 0, 52, 64
2, 33998, Note_off_c, 0, 42, 64
2, 34004, Note_off_c, 0, 59, 64
2, 34009, Note_off_c, 0, 61, 64
2, 34307, Note_on_c, 0, 58, 80
2, 34309, Note_on_c, 0, 49, 69
2, 34311, Note_on_c, 0, 54, 79
2, 34315, Note_on_c, 0, 52, 80
2, 34317, Note_on_c, 0, 92, 82
2, 34341, Control_c, 0, 64, 127
2, 34381, Note_on_c, 0, 90, 78
2, 34391, Note_off_c, 0, 92, 64
2, 34411, Control_c, 0, 64, 63
2, 34413, Control_c, 0, 64, 0
2, 34429, Control_c, 0, 64, 63
2, 34433, Control_c, 0, 64, 127
2, 34436, Note_off_c, 0, 90, 64
2, 34441, Note_on_c, 0, 88, 72
2, 34483, Note_on_c, 0, 87, 88
2, 34485, Note_off_c, 0, 88, 64
2, 34528, Note_on_c, 0, 85, 97
2, 34541, Note_off_c, 0, 87, 64
2, 34567, Note_off_c, 0, 49, 64
2, 34567, Note_off_c, 0, 85, 64
2, 34567, Note_on_c, 0, 83, 68
2, 34575, Note_off_c, 0, 52, 64
2, 34578, Note_off_c, 0, 54, 64
2, 34586, Note_off_c, 0, 58, 64
2, 34612, Note_on_c, 0, 59, 113
2, 34614, Note_on_c, 0, 54, 106
2, 34618, Note_on_c, 0, 49, 88
2, 34618, Note_on_c, 0, 82, 101
2, 34619, Note_off_c, 0, 83, 64
2, 34620, Note_on_c, 0, 52, 84
2, 34664, Note_on_c, 0, 80, 93
2, 34675, Note_off_c, 0, 82, 64
2, 34676, Control_c, 0, 64, 63
2, 34697, Control_c, 0, 64, 127
2, 34708, Note_on_c, 0, 78, 95
2, 34725, Note_off_c, 0, 80, 64
2, 34749, Note_off_c, 0, 78, 64
2, 34750, Note_on_c, 0, 76, 85
2, 34764, Note_off_c, 0, 49, 64
2, 34774, Note_off_c, 0, 52, 64
2, 34781, Note_off_c, 0, 54, 64
2, 34794, Note_on_c, 0, 75, 97
2, 34796, Note_off_c, 0, 76, 64
2, 34808, Note_off_c, 0, 59, 64
2, 34836, Note_on_c, 0, 73, 99
2, 34847, Note_off_c, 0, 75, 64
2, 34857, Note_on_c, 0, 54, 55
2, 34858, Note_on_c, 0, 52, 27
2, 34876, Note_on_c, 0, 58, 37
2, 34885, Note_off_c, 0, 73, 64
2, 34890, Note_on_c, 0, 71, 83
2, 34893, Note_on_c, 0, 63, 119
2, 34929, Control_c, 0, 64, 63
2, 34932, Control_c, 0, 64, 0
2, 34933, Note_off_c, 0, 71, 64
2, 34941, Note_on_c, 0, 70, 84
2, 34960, Control_c, 0, 64, 63
2, 34967, Control_c, 0, 64, 127
2, 34994, Note_on_c, 0, 68, 76
2, 35000, Note_off_c, 0, 70, 64
2, 35026, Note_off_c, 0, 63, 64
2, 35038, Note_on_c, 0, 66, 81
2, 35048, Note_off_c, 0, 68, 64
2, 35075, Note_on_c, 0, 61, 106
2, 35085, Note_off_c, 0, 66, 64
2, 35086, Note_on_c, 0, 65, 74
2, 35093, Note_off_c, 0, 58, 64
2, 35099, Note_off_c, 0, 54, 64
2, 35100, Note_off_c, 0, 52, 64
2, 35110, Note_off_c, 0, 61, 64
2, 35119, Note_off_c, 0, 65, 64
2, 35134, Note_on_c, 0, 64, 76
2, 35181, Note_on_c, 0, 54, 45
2, 35184, Note_on_c, 0, 63, 100
2, 35186, Note_off_c, 0, 64, 64
2, 35188, Note_on_c, 0, 47, 74
2, 35204, Control_c, 0, 64, 63
2, 35207, Control_c, 0, 64, 0
2, 35256, Control_c, 0, 64, 63
2, 35260, Control_c, 0, 64, 127
2, 35303, Note_off_c, 0, 63, 64
2, 35323, Note_off_c, 0, 47, 64
2, 35336, Note_off_c, 0, 54, 64
2, 35351, Control_c, 0, 64, 63
2, 35356, Control_c, 0, 64, 0
2, 35470, Note_on_c, 0, 65, 96
2, 35475, Note_on_c, 0, 56, 86
2, 35475, Note_on_c, 0, 62, 84
2, 35477, Note_on_c, 0, 46, 86
2, 35483, Control_c, 0, 64, 63
2, 35484, Control_c, 0, 64, 127
2, 35518, Note_off_c, 0, 62, 64
2, 35531, Note_off_c, 0, 46, 64
2, 35535, Note_off_c, 0, 65, 64
2, 35538, Note_off_c, 0, 56, 64
2, 35740, Control_c, 0, 64, 63
2, 35745, Note_on_c, 0, 59, 84
2, 35745, Control_c, 0, 64, 0
2, 35750, Note_on_c, 0, 63, 88
2, 35751, Note_on_c, 0, 68, 90
2, 35755, Note_on_c, 0, 51, 70
2, 35786, Control_c, 0, 64, 63
2, 35793, Control_c, 0, 64, 127
2, 35826, Note_on_c, 0, 58, 80
2, 35830, Note_on_c, 0, 66, 92
2, 35831, Note_off_c, 0, 59, 64
2, 35832, Note_off_c, 0, 68, 64
2, 35835, Note_off_c, 0, 63, 64
2, 35853, Control_c, 0, 64, 63
2, 35863, Control_c, 0, 64, 0
2, 35871, Note_off_c, 0, 66, 64
2, 35876, Note_off_c, 0, 58, 64
2, 35909, Note_on_c, 0, 71, 89
2, 35911, Note_on_c, 0, 56, 72
2, 35913, Note_on_c, 0, 62, 75
2, 35937, Note_off_c, 0, 62, 64
2, 35939, Note_off_c, 0, 71, 64
2, 35947, Note_off_c, 0, 56, 64
2, 35993, Control_c, 0, 64, 63
2, 35999, Control_c, 0, 64, 127
2, 36003, Note_on_c, 0, 70, 97
2, 36006, Note_on_c, 0, 54, 87
2, 36007, Note_on_c, 0, 63, 88
2, 36021, Note_off_c, 0, 63, 64
2, 36030, Note_off_c, 0, 70, 64
2, 36031, Note_off_c, 0, 51, 64
2, 36034, Note_off_c, 0, 54, 64
2, 36055, Control_c, 0, 64, 63
2, 36063, Control_c, 0, 64, 0
2, 36184, Note_on_c, 0, 47, 90
2, 36185, Note_on_c, 0, 35, 89
2, 36186, Note_on_c, 0, 57, 92
2, 36187, Note_on_c, 0, 63, 99
2, 36190, Note_on_c, 0, 53, 75
2, 36205, Note_off_c, 0, 47, 64
2, 36208, Note_off_c, 0, 53, 64
2, 36209, Note_off_c, 0, 35, 64
2, 36213, Note_off_c, 0, 57, 64
2, 36214, Note_off_c, 0, 63, 64
2, 36308, Control_c, 0, 64, 63
2, 36309, Note_on_c, 0, 65, 91
2, 36311, Note_on_c, 0, 58, 76
2, 36312, Control_c, 0, 64, 127
2, 36313, Note_on_c, 0, 63, 90
2, 36313, Note_on_c, 0, 53, 55
2, 36314, Note_on_c, 0, 46, 99
2, 36315, Note_on_c, 0, 34, 101
2, 36331, Note_off_c, 0, 53, 64
2, 36335, Note_off_c, 0, 58, 64
2, 36338, Note_off_c, 0, 34, 64
2, 36338, Note_off_c, 0, 46, 64
2, 36340, Note_off_c, 0, 65, 64
2, 36343, Note_off_c, 0, 63, 64
2, 36635, Control_c, 0, 64, 63
2, 36649, Control_c, 0, 64, 0
2, 36658, Note_on_c, 0, 62, 93
2, 36661, Note_on_c, 0, 58, 77
2, 36663, Note_on_c, 0, 56, 75
2, 36665, Note_on_c, 0, 53, 70
2, 36665, Note_on_c, 0, 95, 70
2, 36717, Note_on_c, 0, 94, 78
2, 36723, Note_off_c, 0, 95, 64
2, 36725, Control_c, 0, 64, 63
2, 36731, Control_c, 0, 64, 127
2, 36764, Note_on_c, 0, 92, 86
2, 36777, Note_off_c, 0, 94, 64
2, 36805, Note_on_c, 0, 90, 91
2, 36825, Note_off_c, 0, 92, 64
2, 36849, Note_on_c, 0, 89, 89
2, 36851, Note_off_c, 0, 90, 64
2, 36868, Note_off_c, 0, 62, 64
2, 36869, Note_off_c, 0, 56, 64
2, 36878, Note_off_c, 0, 58, 64
2, 36879, Note_off_c, 0, 53, 64
2, 36885, Note_on_c, 0, 87, 109
2, 36888, Note_off_c, 0, 89, 64
2, 36931, Note_on_c, 0, 63, 114
2, 36931, Note_on_c, 0, 58, 95
2, 36932, Note_on_c, 0, 56, 90
2, 36933, Note_on_c, 0, 53, 90
2, 36933, Note_on_c, 0, 86, 104
2, 36951, Note_off_c, 0, 87, 64
2, 36957, Control_c, 0, 64, 63
2, 36962, Control_c, 0, 64, 0
2, 36972, Note_off_c, 0, 86, 64
2, 36980, Note_on_c, 0, 83, 81
2, 36995, Control_c, 0, 64, 63
2, 37001, Control_c, 0, 64, 127
2, 37025, Note_off_c, 0, 83, 64
2, 37029, Note_on_c, 0, 82, 103
2, 37071, Note_on_c, 0, 80, 101
2, 37085, Note_off_c, 0, 82, 64
2, 37088, Note_off_c, 0, 53, 64
2, 37103, Note_off_c, 0, 56, 64
2, 37106, Note_on_c, 0, 78, 107
2, 37112, Note_off_c, 0, 58, 64
2, 37119, Note_off_c, 0, 63, 64
2, 37125, Note_off_c, 0, 80, 64
2, 37151, Note_on_c, 0, 77, 98
2, 37152, Note_off_c, 0, 78, 64
2, 37188, Note_off_c, 0, 77, 64
2, 37195, Note_on_c, 0, 66, 120
2, 37195, Note_on_c, 0, 75, 104
2, 37197, Note_on_c, 0, 56, 104
2, 37199, Note_on_c, 0, 58, 89
2, 37220, Control_c, 0, 64, 63
2, 37225, Control_c, 0, 64, 0
2, 37243, Note_on_c, 0, 74, 92
2, 37249, Note_off_c, 0, 75, 64
2, 37265, Control_c, 0, 64, 63
2, 37271, Control_c, 0, 64, 127
2, 37280, Note_off_c, 0, 74, 64
2, 37285, Note_on_c, 0, 71, 84
2, 37326, Note_on_c, 0, 70, 100
2, 37327, Note_off_c, 0, 71, 64
2, 37345, Note_off_c, 0, 66, 64
2, 37377, Note_off_c, 0, 70, 64
2, 37378, Note_on_c, 0, 69, 80
2, 37382, Note_on_c, 0, 65, 92
2, 37416, Note_on_c, 0, 68, 97
2, 37419, Note_off_c, 0, 69, 64
2, 37419, Note_off_c, 0, 56, 64
2, 37420, Note_off_c, 0, 65, 64
2, 37424, Note_off_c, 0, 58, 64
2, 37461, Control_c, 0, 64, 63
2, 37474, Control_c, 0, 64, 0
2, 37476, Note_on_c, 0, 67, 90
2, 37478, Note_off_c, 0, 68, 64
2, 37479, Note_on_c, 0, 63, 82
2, 37482, Note_on_c, 0, 58, 74
2, 37490, Note_on_c, 0, 51, 61
2, 37528, Control_c, 0, 64, 63
2, 37537, Control_c, 0, 64, 127
2, 37566, Note_off_c, 0, 67, 64
2, 37577, Note_off_c, 0, 58, 64
2, 37586, Note_off_c, 0, 51, 64
2, 37586, Note_off_c, 0, 63, 64
2, 37589, Control_c, 0, 64, 63
2, 37617, Control_c, 0, 64, 0
2, 37676, Note_on_c, 0, 51, 70
2, 37681, Note_on_c, 0, 75, 85
2, 37682, Note_on_c, 0, 67, 62
2, 37704, Control_c, 0, 64, 63
2, 37712, Control_c, 0, 64, 127
2, 37768, Note_off_c, 0, 75, 64
2, 37771, Note_on_c, 0, 68, 83
2, 37773, Note_off_c, 0, 67, 64
2, 37774, Note_on_c, 0, 76, 78
2, 37779, Note_on_c, 0, 50, 55
2, 37780, Note_off_c, 0, 51, 64
2, 37851, Note_off_c, 0, 76, 64
2, 37867, Note_on_c, 0, 51, 86
2, 37870, Note_on_c, 0, 75, 105
2, 37870, Note_on_c, 0, 67, 79
2, 37880, Note_off_c, 0, 68, 64
2, 37896, Note_off_c, 0, 50, 64
2, 37939, Note_off_c, 0, 75, 64
2, 37953, Note_on_c, 0, 74, 88
2, 37955, Note_on_c, 0, 68, 92
2, 37958, Note_on_c, 0, 59, 71
2, 37963, Note_off_c, 0, 67, 64
2, 38020, Control_c, 0, 64, 63
2, 38031, Control_c, 0, 64, 0
2, 38047, Note_on_c, 0, 58, 60
2, 38056, Note_on_c, 0, 75, 89
2, 38058, Note_off_c, 0, 68, 64
2, 38059, Note_on_c, 0, 67, 55
2, 38060, Note_off_c, 0, 74, 64
2, 38065, Note_off_c, 0, 59, 64
2, 38107, Control_c, 0, 64, 63
2, 38114, Control_c, 0, 64, 127
2, 38145, Note_off_c, 0, 58, 64
2, 38147, Note_off_c, 0, 75, 64
2, 38150, Note_off_c, 0, 51, 64
2, 38151, Note_off_c, 0, 67, 64
2, 38217, Control_c, 0, 64, 63
2, 38225, Control_c, 0, 64, 0
2, 38234, Note_on_c, 0, 51, 73
2, 38236, Note_on_c, 0, 75, 90
2, 38239, Note_on_c, 0, 67, 63
2, 38289, Control_c, 0, 64, 63
2, 38300, Control_c, 0, 64, 127
2, 38310, Note_off_c, 0, 67, 64
2, 38317, Note_off_c, 0, 75, 64
2, 38324, Note_off_c, 0, 51, 64
2, 38328, Note_on_c, 0, 68, 58
2, 38330, Note_on_c, 0, 76, 65
2, 38332, Note_on_c, 0, 50, 42
2, 38390, Note_off_c, 0, 76, 64
2, 38402, Control_c, 0, 64, 63
2, 38408, Control_c, 0, 64, 0
2, 38412, Note_off_c, 0, 50, 64
2, 38412, Note_on_c, 0, 51, 71
2, 38418, Note_on_c, 0, 75, 88
2, 38418, Note_on_c, 0, 67, 69
2, 38421, Note_off_c, 0, 68, 64
2, 38451, Control_c, 0, 64, 63
2, 38459, Control_c, 0, 64, 127
2, 38471, Note_off_c, 0, 75, 64
2, 38494, Note_off_c, 0, 67, 64
2, 38503, Note_on_c, 0, 74, 65
2, 38508, Note_on_c, 0, 59, 47
2, 38508, Note_on_c, 0, 68, 50
2, 38531, Control_c, 0, 64, 63
2, 38542, Control_c, 0, 64, 0
2, 38578, Note_off_c, 0, 74, 64
2, 38596, Note_on_c, 0, 58, 44
2, 38599, Note_off_c, 0, 68, 64
2, 38604, Note_off_c, 0, 59, 64
2, 38606, Note_on_c, 0, 67, 43
2, 38606, Note_on_c, 0, 75, 68
2, 38613, Control_c, 0, 64, 63
2, 38622, Control_c, 0, 64, 127
2, 38666, Note_off_c, 0, 51, 64
2, 38667, Note_off_c, 0, 75, 64
2, 38674, Note_off_c, 0, 67, 64
2, 38697, Note_off_c, 0, 58, 64
2, 38739, Control_c, 0, 64, 63
2, 38745, Control_c, 0, 64, 0
2, 38775, Note_on_c, 0, 68, 68
2, 38778, Note_on_c, 0, 74, 78
2, 38779, Note_on_c, 0, 64, 47
2, 38864, Note_off_c, 0, 68, 64
2, 38867, Note_on_c, 0, 75, 76
2, 38868, Note_on_c, 0, 63, 61
2, 38869, Note_on_c, 0, 67, 43
2, 38871, Note_off_c, 0, 64, 64
2, 38879, Note_off_c, 0, 74, 64
2, 38883, Control_c, 0, 64, 63
2, 38888, Control_c, 0, 64, 127
2, 38929, Note_off_c, 0, 63, 64
2, 38939, Note_off_c, 0, 75, 64
2, 38946, Note_off_c, 0, 67, 64
2, 38976, Control_c, 0, 64, 63
2, 38981, Control_c, 0, 64, 0
2, 39053, Note_on_c, 0, 68, 54
2, 39058, Note_on_c, 0, 74, 62
2, 39059, Note_on_c, 0, 59, 36
2, 39141, Note_on_c, 0, 58, 55
2, 39144, Note_off_c, 0, 59, 64
2, 39144, Note_on_c, 0, 75, 80
2, 39145, Note_off_c, 0, 68, 64
2, 39145, Note_on_c, 0, 51, 50
2, 39147, Note_on_c, 0, 67, 50
2, 39153, Note_off_c, 0, 74, 64
2, 39156, Control_c, 0, 64, 63
2, 39159, Control_c, 0, 64, 127
2, 39214, Note_off_c, 0, 75, 64
2, 39220, Note_off_c, 0, 67, 64
2, 39224, Note_off_c, 0, 58, 64
2, 39226, Note_on_c, 0, 68, 46
2, 39230, Note_on_c, 0, 74, 57
2, 39233, Note_on_c, 0, 59, 34
2, 39256, Control_c, 0, 64, 63
2, 39267, Control_c, 0, 64, 0
2, 39307, Note_on_c, 0, 75, 75
2, 39311, Note_off_c, 0, 59, 64
2, 39312, Note_off_c, 0, 68, 64
2, 39313, Note_on_c, 0, 58, 43
2, 39313, Note_on_c, 0, 67, 34
2, 39319, Note_off_c, 0, 74, 64
2, 39319, Control_c, 0, 64, 63
2, 39330, Control_c, 0, 64, 127
2, 39379, Note_off_c, 0, 75, 64
2, 39390, Note_on_c, 0, 68, 49
2, 39395, Note_on_c, 0, 74, 61
2, 39401, Note_off_c, 0, 58, 64
2, 39401, Note_on_c, 0, 59, 51
2, 39405, Control_c, 0, 64, 63
2, 39407, Note_off_c, 0, 67, 64
2, 39414, Control_c, 0, 64, 0
2, 39437, Control_c, 0, 64, 63
2, 39445, Control_c, 0, 64, 0
2, 39473, Note_on_c, 0, 75, 66
2, 39478, Note_off_c, 0, 59, 64
2, 39481, Note_off_c, 0, 68, 64
2, 39483, Note_on_c, 0, 58, 46
2, 39487, Note_on_c, 0, 67, 22
2, 39493, Note_off_c, 0, 74, 64
2, 39537, Note_off_c, 0, 75, 64
2, 39563, Note_off_c, 0, 58, 64
2, 39564, Note_on_c, 0, 68, 28
2, 39570, Note_on_c, 0, 74, 51
2, 39570, Note_on_c, 0, 59, 26
2, 39587, Note_off_c, 0, 67, 64
2, 39657, Control_c, 0, 64, 63
2, 39664, Note_on_c, 0, 58, 46
2, 39666, Note_off_c, 0, 59, 64
2, 39672, Note_on_c, 0, 75, 68
2, 39674, Control_c, 0, 64, 127
2, 39680, Note_off_c, 0, 68, 64
2, 39680, Note_on_c, 0, 67, 30
2, 39699, Note_off_c, 0, 74, 64
2, 39719, Note_off_c, 0, 67, 64
2, 39729, Note_off_c, 0, 51, 64
2, 39731, Note_off_c, 0, 75, 64
2, 39763, Note_off_c, 0, 58, 64
2, 39853, Control_c, 0, 64, 63
2, 39875, Control_c, 0, 64, 0
2, 40009, Control_c, 0, 64, 63
2, 40019, Control_c, 0, 64, 127
2, 40020, Note_on_c, 0, 56, 49
2, 40030, Note_on_c, 0, 92, 88
2, 40035, Note_on_c, 0, 60, 46
2, 40043, Note_on_c, 0, 66, 76
2, 40081, Note_off_c, 0, 92, 64
2, 40084, Note_off_c, 0, 66, 64
2, 40087, Note_on_c, 0, 93, 71
2, 40100, Note_off_c, 0, 60, 64
2, 40119, Note_off_c, 0, 56, 64
2, 40132, Note_on_c, 0, 92, 87
2, 40141, Note_off_c, 0, 93, 64
2, 40174, Note_on_c, 0, 90, 84
2, 40190, Note_off_c, 0, 92, 64
2, 40212, Note_off_c, 0, 90, 64
2, 40216, Note_on_c, 0, 88, 74
2, 40224, Note_on_c, 0, 49, 80
2, 40254, Note_on_c, 0, 56, 72
2, 40257, Note_on_c, 0, 87, 98
2, 40258, Note_off_c, 0, 88, 64
2, 40260, Note_off_c, 0, 49, 64
2, 40308, Note_on_c, 0, 64, 104
2, 40309, Note_on_c, 0, 85, 99
2, 40326, Note_off_c, 0, 87, 64
2, 40338, Control_c, 0, 64, 63
2, 40344, Control_c, 0, 64, 0
2, 40357, Note_on_c, 0, 87, 81
2, 40362, Note_off_c, 0, 85, 64
2, 40393, Control_c, 0, 64, 63
2, 40398, Note_on_c, 0, 85, 97
2, 40402, Control_c, 0, 64, 127
2, 40409, Note_off_c, 0, 87, 64
2, 40437, Note_off_c, 0, 85, 64
2, 40441, Note_on_c, 0, 83, 81
2, 40481, Note_off_c, 0, 83, 64
2, 40487, Note_on_c, 0, 82, 103
2, 40488, Note_off_c, 0, 64, 64
2, 40490, Note_off_c, 0, 56, 64
2, 40519, Note_on_c, 0, 80, 98
2, 40533, Note_off_c, 0, 82, 64
2, 40550, Note_on_c, 0, 54, 70
2, 40563, Control_c, 0, 64, 63
2, 40564, Note_on_c, 0, 58, 96
2, 40567, Note_on_c, 0, 64, 107
2, 40567, Note_on_c, 0, 79, 99
2, 40568, Control_c, 0, 64, 0
2, 40572, Note_off_c, 0, 80, 64
2, 40608, Note_off_c, 0, 79, 64
2, 40612, Control_c, 0, 64, 63
2, 40614, Note_on_c, 0, 80, 103
2, 40619, Control_c, 0, 64, 127
2, 40658, Note_on_c, 0, 78, 107
2, 40668, Note_off_c, 0, 64, 64
2, 40670, Note_off_c, 0, 80, 64
2, 40671, Note_off_c, 0, 58, 64
2, 40674, Note_off_c, 0, 54, 64
2, 40701, Note_on_c, 0, 76, 97
2, 40704, Note_off_c, 0, 78, 64
2, 40744, Note_off_c, 0, 76, 64
2, 40747, Note_on_c, 0, 75, 107
2, 40766, Note_on_c, 0, 47, 76
2, 40786, Control_c, 0, 64, 63
2, 40789, Control_c, 0, 64, 0
2, 40792, Note_on_c, 0, 73, 110
2, 40803, Note_on_c, 0, 54, 101
2, 40805, Note_off_c, 0, 75, 64
2, 40810, Note_off_c, 0, 47, 64
2, 40830, Control_c, 0, 64, 63
2, 40836, Control_c, 0, 64, 127
2, 40848, Note_on_c, 0, 75, 101
2, 40854, Note_on_c, 0, 63, 123
2, 40863, Note_off_c, 0, 73, 64
2, 40901, Note_on_c, 0, 76, 96
2, 40906, Note_off_c, 0, 75, 64
2, 40946, Note_on_c, 0, 75, 106
2, 40962, Note_off_c, 0, 76, 64
2, 40984, Note_on_c, 0, 73, 107
2, 41007, Note_off_c, 0, 75, 64
2, 41028, Note_off_c, 0, 73, 64
2, 41029, Note_on_c, 0, 71, 88
2, 41067, Note_on_c, 0, 70, 107
2, 41073, Note_off_c, 0, 71, 64
2, 41096, Note_off_c, 0, 54, 64
2, 41112, Note_on_c, 0, 56, 98
2, 41113, Note_on_c, 0, 53, 89
2, 41114, Note_on_c, 0, 68, 106
2, 41118, Control_c, 0, 64, 63
2, 41120, Control_c, 0, 64, 0
2, 41131, Note_off_c, 0, 70, 64
2, 41162, Note_on_c, 0, 70, 98
2, 41170, Note_off_c, 0, 68, 64
2, 41191, Control_c, 0, 64, 63
2, 41194, Control_c, 0, 64, 127
2, 41208, Note_on_c, 0, 68, 109
2, 41222, Note_off_c, 0, 70, 64
2, 41245, Note_off_c, 0, 63, 64
2, 41248, Note_on_c, 0, 66, 108
2, 41264, Note_off_c, 0, 56, 64
2, 41269, Note_off_c, 0, 68, 64
2, 41272, Note_off_c, 0, 53, 64
2, 41289, Note_off_c, 0, 66, 64
2, 41290, Note_on_c, 0, 65, 84
2, 41329, Note_off_c, 0, 65, 64
2, 41329, Note_on_c, 0, 63, 112
2, 41377, Note_on_c, 0, 56, 106
2, 41378, Note_on_c, 0, 46, 97
2, 41378, Note_on_c, 0, 53, 98
2, 41380, Note_on_c, 0, 62, 100
2, 41384, Control_c, 0, 64, 63
2, 41386, Control_c, 0, 64, 0
2, 41393, Note_off_c, 0, 63, 64
2, 41419, Note_off_c, 0, 62, 64
2, 41422, Control_c, 0, 64, 63
2, 41423, Note_on_c, 0, 59, 90
2, 41428, Control_c, 0, 64, 127
2, 41442, Note_off_c, 0, 56, 64
2, 41452, Note_off_c, 0, 53, 64
2, 41467, Note_off_c, 0, 59, 64
2, 41471, Note_on_c, 0, 58, 104
2, 41479, Note_off_c, 0, 46, 64
2, 41511, Note_on_c, 0, 56, 105
2, 41528, Note_off_c, 0, 58, 64
2, 41550, Note_on_c, 0, 54, 113
2, 41572, Note_off_c, 0, 56, 64
2, 41591, Note_on_c, 0, 53, 97
2, 41594, Note_off_c, 0, 54, 64
2, 41607, Control_c, 0, 64, 63
2, 41611, Control_c, 0, 64, 0
2, 41628, Note_off_c, 0, 53, 64
2, 41634, Note_on_c, 0, 34, 126
2, 41642, Note_on_c, 0, 51, 108
2, 41662, Control_c, 0, 64, 63
2, 41667, Control_c, 0, 64, 127
2, 41677, Note_off_c, 0, 51, 64
2, 41680, Note_on_c, 0, 50, 108
2, 41713, Note_off_c, 0, 50, 64
2, 41726, Note_on_c, 0, 47, 94
2, 41754, Control_c, 0, 64, 63
2, 41756, Note_off_c, 0, 34, 64
2, 41761, Note_off_c, 0, 47, 64
2, 41769, Control_c, 0, 64, 0
2, 41779, Note_on_c, 0, 46, 110
2, 41829, Note_off_c, 0, 46, 64
2, 41830, Note_on_c, 0, 41, 99
2, 41876, Note_off_c, 0, 41, 64
2, 41879, Note_on_c, 0, 46, 119
2, 41933, Note_off_c, 0, 46, 64
2, 41940, Note_on_c, 0, 39, 127
2, 41940, Note_on_c, 0, 27, 120
2, 41953, Control_c, 0, 64, 63
2, 41955, Control_c, 0, 64, 127
2, 42095, Note_off_c, 0, 27, 64
2, 42116, Note_off_c, 0, 39, 64
2, 42284, Note_on_c, 0, 58, 124
2, 42285, Note_on_c, 0, 66, 123
2, 42286, Note_on_c, 0, 51, 120
2, 42288, Note_on_c, 0, 63, 109
2, 42307, Note_off_c, 0, 63, 64
2, 42315, Note_off_c, 0, 66, 64
2, 42412, Note_off_c, 0, 58, 64
2, 42581, Note_on_c, 0, 68, 119
2, 42584, Note_on_c, 0, 59, 108
2, 42586, Note_on_c, 0, 62, 107
2, 42590, Control_c, 0, 64, 63
2, 42593, Control_c, 0, 64, 0
2, 42662, Note_off_c, 0, 68, 64
2, 42662, Note_on_c, 0, 66, 105
2, 42668, Note_off_c, 0, 59, 64
2, 42668, Note_on_c, 0, 58, 95
2, 42683, Note_off_c, 0, 62, 64
2, 42716, Note_off_c, 0, 66, 64
2, 42730, Note_off_c, 0, 58, 64
2, 42740, Note_on_c, 0, 56, 88
2, 42745, Note_on_c, 0, 71, 103
2, 42745, Note_on_c, 0, 62, 101
2, 42774, Note_off_c, 0, 71, 64
2, 42788, Note_off_c, 0, 62, 64
2, 42790, Note_off_c, 0, 56, 64
2, 42831, Note_on_c, 0, 70, 114
2, 42831, Note_on_c, 0, 63, 118
2, 42837, Note_on_c, 0, 54, 104
2, 42844, Control_c, 0, 64, 127
2, 42855, Note_off_c, 0, 63, 64
2, 42858, Note_off_c, 0, 70, 64
2, 42870, Note_off_c, 0, 54, 64
2, 42871, Note_off_c, 0, 51, 64
2, 42932, Control_c, 0, 64, 63
2, 42937, Control_c, 0, 64, 0
2, 43022, Note_on_c, 0, 63, 113
2, 43023, Note_on_c, 0, 47, 103
2, 43024, Note_on_c, 0, 57, 93
2, 43025, Note_on_c, 0, 35, 99
2, 43025, Note_on_c, 0, 53, 90
2, 43042, Note_off_c, 0, 57, 64
2, 43044, Note_off_c, 0, 53, 64
2, 43046, Note_off_c, 0, 47, 64
2, 43049, Note_off_c, 0, 35, 64
2, 43050, Note_off_c, 0, 63, 64
2, 43145, Note_on_c, 0, 58, 101
2, 43145, Note_on_c, 0, 65, 103
2, 43146, Note_on_c, 0, 53, 100
2, 43146, Note_on_c, 0, 63, 103
2, 43149, Note_on_c, 0, 34, 108
2, 43150, Note_on_c, 0, 46, 112
2, 43157, Note_off_c, 0, 53, 64
2, 43158, Control_c, 0, 64, 127
2, 43166, Note_off_c, 0, 58, 64
2, 43169, Note_off_c, 0, 34, 64
2, 43170, Note_off_c, 0, 63, 64
2, 43172, Note_off_c, 0, 65, 64
2, 43173, Note_off_c, 0, 46, 64
2, 43502, Note_on_c, 0, 95, 91
2, 43504, Note_on_c, 0, 62, 86
2, 43507, Note_on_c, 0, 56, 79
2, 43507, Note_on_c, 0, 53, 72
2, 43507, Note_on_c, 0, 58, 76
2, 43524, Control_c, 0, 64, 63
2, 43533, Control_c, 0, 64, 0
2, 43555, Note_on_c, 0, 94, 99
2, 43575, Note_off_c, 0, 95, 64
2, 43587, Control_c, 0, 64, 63
2, 43594, Control_c, 0, 64, 127
2, 43604, Note_on_c, 0, 92, 101
2, 43623, Note_off_c, 0, 94, 64
2, 43647, Note_on_c, 0, 90, 106
2, 43669, Note_off_c, 0, 92, 64
2, 43687, Note_on_c, 0, 89, 94
2, 43694, Note_off_c, 0, 90, 64
2, 43704, Note_off_c, 0, 62, 64
2, 43711, Note_off_c, 0, 53, 64
2, 43713, Note_off_c, 0, 56, 64
2, 43721, Note_off_c, 0, 58, 64
2, 43727, Note_on_c, 0, 87, 110
2, 43729, Note_off_c, 0, 89, 64
2, 43765, Note_on_c, 0, 63, 118
2, 43766, Note_on_c, 0, 58, 101
2, 43766, Note_on_c, 0, 53, 91
2, 43767, Note_on_c, 0, 56, 93
2, 43776, Note_on_c, 0, 86, 103
2, 43784, Note_off_c, 0, 87, 64
2, 43798, Control_c, 0, 64, 63
2, 43805, Control_c, 0, 64, 0
2, 43813, Note_off_c, 0, 86, 64
2, 43820, Note_on_c, 0, 83, 85
2, 43847, Control_c, 0, 64, 63
2, 43853, Control_c, 0, 64, 127
2, 43865, Note_off_c, 0, 83, 64
2, 43866, Note_on_c, 0, 82, 107
2, 43906, Note_on_c, 0, 80, 101
2, 43921, Note_off_c, 0, 82, 64
2, 43931, Note_off_c, 0, 53, 64
2, 43947, Note_on_c, 0, 78, 106
2, 43952, Note_off_c, 0, 56, 64
2, 43957, Note_off_c, 0, 58, 64
2, 43964, Note_off_c, 0, 63, 64
2, 43967, Note_off_c, 0, 80, 64
2, 43990, Note_off_c, 0, 78, 64
2, 43993, Note_on_c, 0, 77, 97
2, 44031, Note_off_c, 0, 77, 64
2, 44036, Note_on_c, 0, 75, 104
2, 44043, Note_on_c, 0, 66, 115
2, 44045, Note_on_c, 0, 56, 104
2, 44049, Note_on_c, 0, 58, 92
2, 44061, Control_c, 0, 64, 63
2, 44068, Control_c, 0, 64, 0
2, 44085, Note_off_c, 0, 75, 64
2, 44086, Note_on_c, 0, 74, 93
2, 44113, Control_c, 0, 64, 63
2, 44120, Control_c, 0, 64, 127
2, 44121, Note_off_c, 0, 74, 64
2, 44129, Note_on_c, 0, 71, 91
2, 44169, Note_off_c, 0, 71, 64
2, 44172, Note_on_c, 0, 70, 99
2, 44179, Note_off_c, 0, 66, 64
2, 44219, Note_off_c, 0, 70, 64
2, 44224, Note_on_c, 0, 69, 90
2, 44228, Note_on_c, 0, 65, 92
2, 44261, Note_on_c, 0, 68, 99
2, 44263, Note_off_c, 0, 69, 64
2, 44265, Note_off_c, 0, 65, 64
2, 44265, Note_off_c, 0, 56, 64
2, 44271, Note_off_c, 0, 58, 64
2, 44321, Note_on_c, 0, 66, 106
2, 44329, Note_off_c, 0, 68, 64
2, 44330, Note_on_c, 0, 63, 90
2, 44331, Note_on_c, 0, 58, 76
2, 44332, Control_c, 0, 64, 63
2, 44338, Note_on_c, 0, 51, 63
2, 44338, Control_c, 0, 64, 0
2, 44408, Control_c, 0, 64, 63
2, 44415, Control_c, 0, 64, 127
2, 44466, Note_off_c, 0, 66, 64
2, 44495, Control_c, 0, 64, 63
2, 44496, Note_off_c, 0, 58, 64
2, 44496, Note_off_c, 0, 63, 64
2, 44503, Control_c, 0, 64, 0
2, 44514, Note_off_c, 0, 51, 64
2, 44651, Note_on_c, 0, 60, 98
2, 44651, Note_on_c, 0, 68, 90
2, 44653, Note_on_c, 0, 66, 88
2, 44657, Note_on_c, 0, 50, 72
2, 44683, Control_c, 0, 64, 63
2, 44689, Control_c, 0, 64, 127
2, 44783, Note_off_c, 0, 66, 64
2, 44800, Note_off_c, 0, 68, 64
2, 44829, Note_off_c, 0, 50, 64
2, 44869, Note_off_c, 0, 60, 64
2, 44947, Note_on_c, 0, 49, 79
2, 44948, Control_c, 0, 64, 63
2, 44954, Control_c, 0, 64, 0
2, 44956, Note_on_c, 0, 71, 73
2, 44958, Note_on_c, 0, 63, 53
2, 44963, Note_on_c, 0, 66, 60
2, 45001, Control_c, 0, 64, 63
2, 45008, Control_c, 0, 64, 127
2, 45037, Note_off_c, 0, 71, 64
2, 45037, Note_on_c, 0, 70, 100
2, 45040, Note_on_c, 0, 61, 90
2, 45058, Note_off_c, 0, 63, 64
2, 45079, Note_off_c, 0, 61, 64
2, 45105, Control_c, 0, 64, 63
2, 45107, Note_off_c, 0, 66, 64
2, 45112, Control_c, 0, 64, 0
2, 45121, Note_on_c, 0, 75, 106
2, 45122, Note_on_c, 0, 59, 81
2, 45125, Note_off_c, 0, 70, 64
2, 45127, Note_on_c, 0, 65, 82
2, 45159, Note_off_c, 0, 75, 64
2, 45184, Note_off_c, 0, 59, 64
2, 45212, Note_off_c, 0, 65, 64
2, 45219, Note_on_c, 0, 58, 70
2, 45220, Note_on_c, 0, 73, 97
2, 45222, Note_on_c, 0, 66, 83
2, 45236, Control_c, 0, 64, 63
2, 45243, Control_c, 0, 64, 127
2, 45257, Note_off_c, 0, 73, 64
2, 45259, Note_off_c, 0, 66, 64
2, 45261, Note_off_c, 0, 58, 64
2, 45277, Note_off_c, 0, 49, 64
2, 45303, Control_c, 0, 64, 63
2, 45311, Control_c, 0, 64, 0
2, 45405, Note_on_c, 0, 66, 100
2, 45408, Note_on_c, 0, 56, 87
2, 45409, Note_on_c, 0, 50, 94
2, 45410, Note_on_c, 0, 60, 81
2, 45412, Note_on_c, 0, 38, 87
2, 45423, Note_off_c, 0, 50, 64
2, 45427, Note_off_c, 0, 60, 64
2, 45429, Note_off_c, 0, 56, 64
2, 45430, Note_off_c, 0, 38, 64
2, 45431, Note_off_c, 0, 66, 64
2, 45528, Control_c, 0, 64, 63
2, 45529, Note_on_c, 0, 68, 97
2, 45532, Control_c, 0, 64, 127
2, 45533, Note_on_c, 0, 56, 88
2, 45535, Note_on_c, 0, 66, 96
2, 45536, Note_on_c, 0, 61, 91
2, 45537, Note_on_c, 0, 49, 95
2, 45541, Note_on_c, 0, 37, 84
2, 45551, Note_off_c, 0, 37, 64
2, 45551, Note_off_c, 0, 49, 64
2, 45551, Note_off_c, 0, 56, 64
2, 45552, Note_off_c, 0, 61, 64
2, 45564, Note_off_c, 0, 68, 64
2, 45568, Note_off_c, 0, 66, 64
2, 45867, Control_c, 0, 64, 63
2, 45880, Control_c, 0, 64, 0
2, 45888, Note_on_c, 0, 61, 81
2, 45889, Note_on_c, 0, 65, 81
2, 45892, Note_on_c, 0, 99, 94
2, 45893, Note_on_c, 0, 59, 65
2, 45904, Note_on_c, 0, 56, 65
2, 45939, Note_on_c, 0, 97, 87
2, 45941, Control_c, 0, 64, 63
2, 45948, Note_off_c, 0, 99, 64
2, 45953, Control_c, 0, 64, 127
2, 45985, Note_off_c, 0, 97, 64
2, 45986, Note_on_c, 0, 95, 76
2, 46027, Note_off_c, 0, 95, 64
2, 46028, Note_on_c, 0, 94, 98
2, 46072, Note_on_c, 0, 92, 98
2, 46088, Note_off_c, 0, 94, 64
2, 46096, Note_off_c, 0, 59, 64
2, 46097, Note_off_c, 0, 65, 64
2, 46097, Note_off_c, 0, 56, 64
2, 46103, Note_off_c, 0, 61, 64
2, 46112, Note_on_c, 0, 90, 106
2, 46135, Note_off_c, 0, 92, 64
2, 46155, Note_on_c, 0, 89, 84
2, 46159, Note_off_c, 0, 90, 64
2, 46165, Note_on_c, 0, 66, 116
2, 46166, Note_on_c, 0, 61, 99
2, 46167, Note_on_c, 0, 56, 86
2, 46170, Note_on_c, 0, 59, 87
2, 46179, Control_c, 0, 64, 63
2, 46183, Control_c, 0, 64, 0
2, 46197, Note_off_c, 0, 89, 64
2, 46203, Note_on_c, 0, 87, 90
2, 46237, Control_c, 0, 64, 63
2, 46244, Control_c, 0, 64, 127
2, 46254, Note_on_c, 0, 85, 97
2, 46263, Note_off_c, 0, 87, 64
2, 46291, Note_off_c, 0, 85, 64
2, 46294, Note_off_c, 0, 56, 64
2, 46295, Note_on_c, 0, 83, 77
2, 46303, Note_off_c, 0, 59, 64
2, 46307, Note_off_c, 0, 61, 64
2, 46336, Note_off_c, 0, 66, 64
2, 46341, Note_off_c, 0, 83, 64
2, 46343, Note_on_c, 0, 82, 95
2, 46389, Note_on_c, 0, 80, 84
2, 46399, Note_off_c, 0, 82, 64
2, 46432, Note_on_c, 0, 59, 40
2, 46435, Note_on_c, 0, 65, 69
2, 46437, Note_on_c, 0, 61, 65
2, 46440, Note_on_c, 0, 70, 88
2, 46443, Note_on_c, 0, 78, 92
2, 46447, Control_c, 0, 64, 63
2, 46451, Note_off_c, 0, 80, 64
2, 46453, Control_c, 0, 64, 0
2, 46485, Note_off_c, 0, 78, 64
2, 46486, Control_c, 0, 64, 63
2, 46491, Control_c, 0, 64, 127
2, 46494, Note_on_c, 0, 77, 66
2, 46500, Control_c, 0, 67, 127
2, 46536, Note_off_c, 0, 77, 64
2, 46541, Note_on_c, 0, 75, 79
2, 46563, Note_off_c, 0, 70, 64
2, 46594, Note_off_c, 0, 61, 64
2, 46599, Note_off_c, 0, 75, 64
2, 46599, Note_on_c, 0, 73, 81
2, 46650, Note_on_c, 0, 68, 85
2, 46652, Control_c, 0, 64, 63
2, 46659, Note_off_c, 0, 73, 64
2, 46662, Note_on_c, 0, 72, 71
2, 46667, Control_c, 0, 64, 127
2, 46705, Note_off_c, 0, 65, 64
2, 46711, Note_off_c, 0, 59, 64
2, 46712, Note_off_c, 0, 72, 64
2, 46713, Note_on_c, 0, 71, 80
2, 46725, Note_off_c, 0, 68, 64
2, 46790, Note_off_c, 0, 71, 64
2, 46798, Note_on_c, 0, 70, 79
2, 46805, Note_on_c, 0, 66, 54
2, 46806, Note_on_c, 0, 61, 61
2, 46812, Note_on_c, 0, 54, 51
2, 46828, Control_c, 0, 64, 63
2, 46834, Control_c, 0, 64, 0
2, 46858, Note_off_c, 0, 70, 64
2, 46863, Note_on_c, 0, 71, 67
2, 46874, Control_c, 0, 64, 63
2, 46881, Control_c, 0, 64, 127
2, 46907, Note_off_c, 0, 71, 64
2, 46907, Note_on_c, 0, 73, 84
2, 46930, Note_off_c, 0, 61, 64
2, 46930, Note_off_c, 0, 66, 64
2, 46941, Note_off_c, 0, 54, 64
2, 46950, Note_off_c, 0, 73, 64
2, 46951, Note_on_c, 0, 75, 92
2, 46985, Note_off_c, 0, 75, 64
2, 46990, Note_on_c, 0, 77, 85
2, 47029, Note_on_c, 0, 78, 96
2, 47033, Note_off_c, 0, 77, 64
2, 47059, Control_c, 0, 64, 63
2, 47064, Control_c, 0, 64, 0
2, 47069, Note_off_c, 0, 78, 64
2, 47073, Note_on_c, 0, 83, 76
2, 47080, Note_on_c, 0, 51, 88
2, 47101, Control_c, 0, 64, 63
2, 47107, Control_c, 0, 64, 127
2, 47112, Note_off_c, 0, 51, 64
2, 47125, Note_on_c, 0, 82, 86
2, 47130, Note_off_c, 0, 83, 64
2, 47161, Note_on_c, 0, 66, 67
2, 47170, Note_on_c, 0, 80, 82
2, 47175, Note_off_c, 0, 82, 64
2, 47215, Note_on_c, 0, 78, 90
2, 47228, Note_off_c, 0, 80, 64
2, 47237, Note_off_c, 0, 66, 64
2, 47251, Note_off_c, 0, 78, 64
2, 47255, Note_on_c, 0, 77, 76
2, 47264, Note_on_c, 0, 58, 71
2, 47298, Note_off_c, 0, 77, 64
2, 47298, Note_on_c, 0, 75, 90
2, 47311, Control_c, 0, 64, 63
2, 47318, Control_c, 0, 64, 0
2, 47346, Note_on_c, 0, 56, 72
2, 47350, Note_off_c, 0, 58, 64
2, 47352, Note_on_c, 0, 73, 88
2, 47356, Note_off_c, 0, 75, 64
2, 47366, Control_c, 0, 64, 63
2, 47374, Control_c, 0, 64, 127
2, 47386, Note_on_c, 0, 72, 73
2, 47387, Note_off_c, 0, 73, 64
2, 47418, Note_off_c, 0, 72, 64
2, 47439, Note_on_c, 0, 63, 63
2, 47440, Note_on_c, 0, 71, 65
2, 47467, Note_off_c, 0, 56, 64
2, 47486, Note_off_c, 0, 71, 64
2, 47486, Note_on_c, 0, 70, 89
2, 47508, Note_off_c, 0, 63, 64
2, 47518, Note_off_c, 0, 70, 64
2, 47532, Note_on_c, 0, 67, 65
2, 47537, Note_on_c, 0, 59, 60
2, 47570, Note_off_c, 0, 59, 64
2, 47570, Note_on_c, 0, 68, 88
2, 47573, Note_off_c, 0, 67, 64
2, 47579, Control_c, 0, 64, 63
2, 47586, Control_c, 0, 64, 0
2, 47617, Note_on_c, 0, 49, 95
2, 47617, Note_on_c, 0, 70, 91
2, 47622, Control_c, 0, 64, 63
2, 47623, Note_off_c, 0, 68, 64
2, 47629, Control_c, 0, 64, 127
2, 47651, Note_off_c, 0, 70, 64
2, 47651, Note_off_c, 0, 49, 64
2, 47654, Note_on_c, 0, 71, 85
2, 47693, Note_off_c, 0, 71, 64
2, 47702, Note_on_c, 0, 72, 65
2, 47707, Note_on_c, 0, 65, 68
2, 47741, Note_on_c, 0, 73, 94
2, 47747, Note_off_c, 0, 72, 64
2, 47790, Note_on_c, 0, 59, 59
2, 47791, Note_off_c, 0, 73, 64
2, 47792, Note_off_c, 0, 65, 64
2, 47793, Note_on_c, 0, 75, 75
2, 47812, Control_c, 0, 64, 63
2, 47819, Control_c, 0, 64, 0
2, 47834, Note_on_c, 0, 73, 88
2, 47837, Note_off_c, 0, 75, 64
2, 47868, Note_on_c, 0, 70, 84
2, 47872, Note_off_c, 0, 73, 64
2, 47877, Note_on_c, 0, 54, 88
2, 47880, Control_c, 0, 64, 63
2, 47887, Control_c, 0, 64, 127
2, 47891, Note_off_c, 0, 59, 64
2, 47905, Note_off_c, 0, 70, 64
2, 47913, Note_on_c, 0, 71, 69
2, 47951, Note_off_c, 0, 71, 64
2, 47960, Note_on_c, 0, 73, 70
2, 47962, Note_on_c, 0, 66, 88
2, 47997, Note_on_c, 0, 75, 88
2, 47999, Note_off_c, 0, 73, 64
2, 48002, Note_off_c, 0, 66, 64
2, 48020, Note_off_c, 0, 75, 64
2, 48038, Note_on_c, 0, 77, 75
2, 48047, Note_off_c, 0, 54, 64
2, 48053, Note_on_c, 0, 58, 67
2, 48076, Note_on_c, 0, 78, 89
2, 48077, Note_off_c, 0, 77, 64
2, 48105, Control_c, 0, 64, 63
2, 48106, Note_off_c, 0, 58, 64
2, 48110, Note_off_c, 0, 78, 64
2, 48110, Control_c, 0, 64, 0
2, 48127, Note_on_c, 0, 51, 109
2, 48127, Note_on_c, 0, 83, 67
2, 48150, Control_c, 0, 64, 63
2, 48156, Control_c, 0, 64, 127
2, 48176, Note_on_c, 0, 82, 85
2, 48177, Note_off_c, 0, 51, 64
2, 48178, Note_off_c, 0, 83, 64
2, 48211, Note_on_c, 0, 66, 80
2, 48230, Note_on_c, 0, 80, 75
2, 48235, Note_off_c, 0, 82, 64
2, 48259, Note_off_c, 0, 66, 64
2, 48271, Note_on_c, 0, 78, 81
2, 48277, Note_off_c, 0, 80, 64
2, 48307, Note_off_c, 0, 78, 64
2, 48308, Note_on_c, 0, 58, 60
2, 48311, Note_on_c, 0, 77, 68
2, 48346, Note_off_c, 0, 77, 64
2, 48348, Note_off_c, 0, 58, 64
2, 48348, Note_on_c, 0, 75, 91
2, 48389, Control_c, 0, 64, 63
2, 48393, Note_on_c, 0, 73, 89
2, 48394, Control_c, 0, 64, 0
2, 48397, Note_off_c, 0, 75, 64
2, 48399, Note_on_c, 0, 56, 104
2, 48431, Note_on_c, 0, 72, 75
2, 48432, Note_off_c, 0, 73, 64
2, 48437, Control_c, 0, 64, 63
2, 48445, Control_c, 0, 64, 127
2, 48461, Note_off_c, 0, 72, 64
2, 48478, Note_on_c, 0, 71, 76
2, 48486, Note_on_c, 0, 63, 65
2, 48527, Note_on_c, 0, 70, 92
2, 48530, Note_off_c, 0, 71, 64
2, 48539, Note_off_c, 0, 56, 64
2, 48547, Note_off_c, 0, 63, 64
2, 48557, Note_off_c, 0, 70, 64
2, 48571, Note_on_c, 0, 67, 63
2, 48573, Note_on_c, 0, 59, 70
2, 48592, Note_off_c, 0, 59, 64
2, 48611, Note_off_c, 0, 67, 64
2, 48614, Note_on_c, 0, 68, 80
2, 48645, Control_c, 0, 64, 63
2, 48649, Control_c, 0, 64, 0
2, 48656, Note_on_c, 0, 70, 89
2, 48658, Note_on_c, 0, 49, 100
2, 48664, Note_off_c, 0, 68, 64
2, 48690, Note_off_c, 0, 70, 64
2, 48690, Control_c, 0, 64, 63
2, 48693, Note_on_c, 0, 71, 81
2, 48695, Note_off_c, 0, 49, 64
2, 48696, Control_c, 0, 64, 127
2, 48737, Note_off_c, 0, 71, 64
2, 48742, Note_on_c, 0, 65, 69
2, 48745, Note_on_c, 0, 72, 59
2, 48786, Note_on_c, 0, 73, 87
2, 48789, Note_off_c, 0, 72, 64
2, 48832, Note_off_c, 0, 73, 64
2, 48833, Note_on_c, 0, 59, 57
2, 48833, Note_on_c, 0, 75, 75
2, 48841, Note_off_c, 0, 65, 64
2, 48879, Note_on_c, 0, 73, 70
2, 48883, Note_off_c, 0, 75, 64
2, 48899, Control_c, 0, 64, 63
2, 48904, Control_c, 0, 64, 0
2, 48908, Note_off_c, 0, 59, 64
2, 48926, Note_on_c, 0, 54, 91
2, 48927, Note_off_c, 0, 73, 64
2, 48930, Note_on_c, 0, 70, 67
2, 48944, Control_c, 0, 64, 63
2, 48950, Control_c, 0, 64, 127
2, 48975, Note_off_c, 0, 70, 64
2, 48987, Note_on_c, 0, 71, 60
2, 49017, Note_on_c, 0, 64, 34
2, 49032, Note_off_c, 0, 71, 64
2, 49038, Note_on_c, 0, 73, 80
2, 49075, Note_on_c, 0, 75, 88
2, 49081, Note_off_c, 0, 73, 64
2, 49107, Note_off_c, 0, 75, 64
2, 49119, Note_on_c, 0, 76, 68
2, 49131, Note_on_c, 0, 58, 61
2, 49148, Note_off_c, 0, 64, 64
2, 49155, Note_off_c, 0, 54, 64
2, 49157, Note_off_c, 0, 76, 64
2, 49157, Note_on_c, 0, 78, 97
2, 49196, Note_off_c, 0, 58, 64
2, 49201, Note_on_c, 0, 80, 98
2, 49209, Note_on_c, 0, 53, 100
2, 49214, Note_off_c, 0, 78, 64
2, 49245, Note_on_c, 0, 82, 98
2, 49264, Note_off_c, 0, 80, 64
2, 49289, Note_off_c, 0, 53, 64
2, 49292, Note_off_c, 0, 82, 64
2, 49296, Note_on_c, 0, 83, 97
2, 49299, Note_on_c, 0, 64, 89
2, 49339, Note_on_c, 0, 85, 107
2, 49340, Note_off_c, 0, 83, 64
2, 49378, Note_on_c, 0, 54, 121
2, 49380, Note_on_c, 0, 87, 106
2, 49386, Note_off_c, 0, 85, 64
2, 49411, Note_off_c, 0, 87, 64
2, 49414, Note_on_c, 0, 88, 99
2, 49436, Note_off_c, 0, 54, 64
2, 49456, Note_off_c, 0, 88, 64
2, 49464, Note_on_c, 0, 56, 123
2, 49473, Note_on_c, 0, 99, 98
2, 49478, Note_off_c, 0, 64, 64
2, 49501, Control_c, 0, 64, 63
2, 49508, Control_c, 0, 64, 0
2, 49516, Note_on_c, 0, 97, 92
2, 49532, Note_off_c, 0, 99, 64
2, 49544, Control_c, 0, 64, 63
2, 49553, Control_c, 0, 64, 127
2, 49558, Note_on_c, 0, 95, 100
2, 49566, Note_on_c, 0, 64, 71
2, 49575, Note_off_c, 0, 97, 64
2, 49597, Note_on_c, 0, 88, 82
2, 49601, Note_off_c, 0, 95, 64
2, 49644, Note_on_c, 0, 91, 96
2, 49647, Note_off_c, 0, 88, 64
2, 49649, Note_on_c, 0, 59, 68
2, 49674, Note_off_c, 0, 56, 64
2, 49681, Note_on_c, 0, 92, 101
2, 49697, Note_off_c, 0, 91, 64
2, 49706, Note_off_c, 0, 59, 64
2, 49732, Note_on_c, 0, 58, 121
2, 49735, Note_on_c, 0, 95, 94
2, 49738, Note_off_c, 0, 64, 64
2, 49740, Control_c, 0, 64, 63
2, 49742, Note_off_c, 0, 92, 64
2, 49747, Control_c, 0, 64, 0
2, 49779, Note_on_c, 0, 94, 93
2, 49789, Note_off_c, 0, 95, 64
2, 49789, Control_c, 0, 64, 63
2, 49808, Control_c, 0, 64, 127
2, 49826, Note_on_c, 0, 92, 86
2, 49833, Note_on_c, 0, 64, 64
2, 49836, Note_off_c, 0, 94, 64
2, 49868, Note_on_c, 0, 90, 88
2, 49874, Note_off_c, 0, 92, 64
2, 49906, Note_off_c, 0, 90, 64
2, 49913, Note_on_c, 0, 88, 68
2, 49919, Note_off_c, 0, 64, 64
2, 49920, Note_on_c, 0, 61, 76
2, 49948, Note_off_c, 0, 58, 64
2, 49952, Note_on_c, 0, 87, 87
2, 49955, Note_off_c, 0, 88, 64
2, 49958, Note_off_c, 0, 61, 64
2, 49997, Note_off_c, 0, 87, 64
2, 50002, Control_c, 0, 64, 63
2, 50005, Note_on_c, 0, 85, 88
2, 50005, Note_on_c, 0, 58, 112
2, 50010, Control_c, 0, 64, 0
2, 50044, Note_off_c, 0, 85, 64
2, 50050, Control_c, 0, 64, 63
2, 50051, Note_on_c, 0, 83, 74
2, 50065, Control_c, 0, 64, 127
2, 50095, Note_on_c, 0, 68, 52
2, 50099, Note_off_c, 0, 83, 64
2, 50102, Note_on_c, 0, 82, 94
2, 50147, Note_on_c, 0, 80, 89
2, 50153, Note_off_c, 0, 82, 64
2, 50174, Note_off_c, 0, 68, 64
2, 50180, Note_on_c, 0, 64, 48
2, 50187, Note_off_c, 0, 80, 64
2, 50190, Note_on_c, 0, 78, 96
2, 50194, Note_off_c, 0, 58, 64
2, 50228, Note_off_c, 0, 78, 64
2, 50230, Note_on_c, 0, 76, 78
2, 50245, Note_off_c, 0, 64, 64
2, 50252, Control_c, 0, 64, 63
2, 50258, Control_c, 0, 64, 0
2, 50266, Note_on_c, 0, 59, 100
2, 50272, Note_off_c, 0, 76, 64
2, 50272, Note_on_c, 0, 75, 98
2, 50296, Control_c, 0, 64, 63
2, 50306, Control_c, 0, 64, 127
2, 50316, Note_off_c, 0, 75, 64
2, 50317, Note_on_c, 0, 73, 95
2, 50351, Note_on_c, 0, 68, 85
2, 50359, Note_off_c, 0, 73, 64
2, 50359, Note_on_c, 0, 72, 83
2, 50360, Control_c, 0, 64, 63
2, 50373, Control_c, 0, 64, 0
2, 50398, Note_on_c, 0, 73, 101
2, 50403, Note_off_c, 0, 72, 64
2, 50437, Note_off_c, 0, 73, 64
2, 50443, Note_off_c, 0, 68, 64
2, 50444, Note_on_c, 0, 74, 77
2, 50449, Note_on_c, 0, 64, 68
2, 50484, Note_on_c, 0, 75, 93
2, 50485, Note_off_c, 0, 74, 64
2, 50508, Control_c, 0, 64, 63
2, 50512, Note_off_c, 0, 64, 64
2, 50518, Control_c, 0, 64, 127
2, 50524, Note_off_c, 0, 75, 64
2, 50528, Note_on_c, 0, 68, 94
2, 50533, Note_on_c, 0, 61, 93
2, 50535, Note_on_c, 0, 76, 79
2, 50541, Note_off_c, 0, 59, 64
2, 50549, Note_off_c, 0, 68, 64
2, 50549, Control_c, 0, 64, 63
2, 50560, Note_off_c, 0, 61, 64
2, 50566, Control_c, 0, 64, 0
2, 50580, Note_off_c, 0, 76, 64
2, 50583, Note_on_c, 0, 77, 57
2, 50635, Control_c, 0, 64, 63
2, 50637, Note_on_c, 0, 78, 91
2, 50638, Note_on_c, 0, 54, 87
2, 50639, Note_off_c, 0, 77, 64
2, 50639, Note_on_c, 0, 61, 70
2, 50641, Note_on_c, 0, 64, 68
2, 50652, Control_c, 0, 64, 127
2, 50674, Note_off_c, 0, 64, 64
2, 50674, Note_off_c, 0, 54, 64
2, 50675, Note_off_c, 0, 61, 64
2, 50679, Note_off_c, 0, 78, 64
2, 50684, Note_on_c, 0, 79, 68
2, 50728, Note_on_c, 0, 80, 81
2, 50729, Note_off_c, 0, 79, 64
2, 50773, Note_off_c, 0, 80, 64
2, 50773, Note_on_c, 0, 79, 63
2, 50784, Control_c, 0, 64, 63
2, 50819, Note_off_c, 0, 79, 64
2, 50820, Note_on_c, 0, 82, 85
2, 50820, Control_c, 0, 64, 0
2, 50868, Note_on_c, 0, 80, 82
2, 50878, Note_off_c, 0, 82, 64
2, 50919, Note_on_c, 0, 78, 79
2, 50928, Note_off_c, 0, 80, 64
2, 50961, Note_off_c, 0, 78, 64
2, 50973, Note_on_c, 0, 76, 48
2, 51020, Note_on_c, 0, 75, 80
2, 51022, Note_off_c, 0, 76, 64
2, 51068, Note_off_c, 0, 75, 64
2, 51073, Note_on_c, 0, 74, 61
2, 51142, Note_off_c, 0, 74, 64
2, 51144, Control_c, 0, 64, 63
2, 51145, Note_on_c, 0, 75, 78
2, 51147, Note_on_c, 0, 59, 67
2, 51157, Control_c, 0, 64, 127
2, 51186, Note_off_c, 0, 75, 64
2, 51198, Note_on_c, 0, 76, 59
2, 51231, Note_off_c, 0, 59, 64
2, 51245, Note_off_c, 0, 76, 64
2, 51249, Note_on_c, 0, 78, 80
2, 51261, Note_on_c, 0, 71, 38
2, 51302, Note_off_c, 0, 71, 64
2, 51304, Note_on_c, 0, 80, 82
2, 51307, Note_off_c, 0, 78, 64
2, 51346, Note_on_c, 0, 63, 70
2, 51356, Note_on_c, 0, 82, 80
2, 51362, Note_off_c, 0, 80, 64
2, 51398, Note_off_c, 0, 82, 64
2, 51402, Note_on_c, 0, 83, 54
2, 51423, Control_c, 0, 64, 63
2, 51427, Control_c, 0, 64, 0
2, 51436, Note_on_c, 0, 56, 86
2, 51448, Note_on_c, 0, 88, 97
2, 51453, Note_off_c, 0, 83, 64
2, 51466, Control_c, 0, 64, 63
2, 51473, Control_c, 0, 64, 127
2, 51493, Note_off_c, 0, 63, 64
2, 51494, Note_on_c, 0, 87, 96
2, 51495, Note_off_c, 0, 56, 64
2, 51504, Note_off_c, 0, 88, 64
2, 51531, Note_on_c, 0, 71, 62
2, 51540, Note_on_c, 0, 85, 80
2, 51542, Note_off_c, 0, 87, 64
2, 51576, Note_off_c, 0, 85, 64
2, 51576, Note_on_c, 0, 83, 64
2, 51602, Note_off_c, 0, 71, 64
2, 51618, Note_on_c, 0, 82, 100
2, 51619, Note_off_c, 0, 83, 64
2, 51625, Note_on_c, 0, 63, 82
2, 51664, Note_on_c, 0, 80, 96
2, 51665, Note_off_c, 0, 63, 64
2, 51670, Note_off_c, 0, 82, 64
2, 51696, Control_c, 0, 64, 63
2, 51701, Control_c, 0, 64, 0
2, 51704, Note_on_c, 0, 61, 103
2, 51706, Note_on_c, 0, 78, 103
2, 51728, Note_off_c, 0, 80, 64
2, 51738, Control_c, 0, 64, 63
2, 51747, Note_off_c, 0, 78, 64
2, 51748, Control_c, 0, 64, 127
2, 51749, Note_on_c, 0, 77, 84
2, 51777, Note_off_c, 0, 77, 64
2, 51785, Note_on_c, 0, 76, 90
2, 51799, Note_on_c, 0, 68, 67
2, 51830, Note_off_c, 0, 76, 64
2, 51837, Note_on_c, 0, 75, 104
2, 51844, Note_off_c, 0, 61, 64
2, 51862, Note_off_c, 0, 68, 64
2, 51868, Note_off_c, 0, 75, 64
2, 51880, Note_on_c, 0, 72, 87
2, 51888, Note_on_c, 0, 64, 65
2, 51909, Note_off_c, 0, 64, 64
2, 51924, Note_on_c, 0, 73, 100
2, 51925, Note_off_c, 0, 72, 64
2, 51946, Control_c, 0, 64, 63
2, 51951, Control_c, 0, 64, 0
2, 51962, Note_on_c, 0, 54, 105
2, 51964, Note_on_c, 0, 75, 101
2, 51974, Note_off_c, 0, 73, 64
2, 51987, Control_c, 0, 64, 63
2, 51993, Control_c, 0, 64, 127
2, 51998, Note_off_c, 0, 54, 64
2, 52004, Note_off_c, 0, 75, 64
2, 52012, Note_on_c, 0, 76, 91
2, 52054, Note_off_c, 0, 76, 64
2, 52057, Note_on_c, 0, 70, 76
2, 52061, Note_on_c, 0, 77, 78
2, 52099, Note_on_c, 0, 78, 94
2, 52101, Note_off_c, 0, 70, 64
2, 52105, Note_off_c, 0, 77, 64
2, 52140, Note_on_c, 0, 64, 51
2, 52149, Note_off_c, 0, 78, 64
2, 52151, Note_on_c, 0, 80, 75
2, 52185, Note_off_c, 0, 64, 64
2, 52190, Note_on_c, 0, 78, 79
2, 52195, Note_off_c, 0, 80, 64
2, 52200, Control_c, 0, 64, 63
2, 52205, Control_c, 0, 64, 0
2, 52227, Note_off_c, 0, 78, 64
2, 52234, Note_on_c, 0, 75, 94
2, 52237, Note_on_c, 0, 59, 96
2, 52244, Control_c, 0, 64, 63
2, 52251, Control_c, 0, 64, 127
2, 52267, Note_off_c, 0, 75, 64
2, 52277, Note_on_c, 0, 76, 68
2, 52280, Note_off_c, 0, 59, 64
2, 52315, Note_off_c, 0, 76, 64
2, 52323, Note_on_c, 0, 78, 85
2, 52336, Note_on_c, 0, 71, 57
2, 52373, Note_on_c, 0, 80, 90
2, 52378, Note_off_c, 0, 78, 64
2, 52396, Note_off_c, 0, 71, 64
2, 52416, Note_on_c, 0, 82, 96
2, 52421, Note_on_c, 0, 63, 90
2, 52428, Note_off_c, 0, 80, 64
2, 52451, Note_off_c, 0, 63, 64
2, 52462, Note_off_c, 0, 82, 64
2, 52468, Note_on_c, 0, 83, 92
2, 52479, Control_c, 0, 64, 63
2, 52483, Control_c, 0, 64, 0
2, 52496, Note_on_c, 0, 56, 105
2, 52512, Note_off_c, 0, 83, 64
2, 52513, Note_on_c, 0, 88, 102
2, 52520, Control_c, 0, 64, 63
2, 52526, Control_c, 0, 64, 127
2, 52533, Note_off_c, 0, 56, 64
2, 52554, Note_on_c, 0, 87, 106
2, 52566, Note_off_c, 0, 88, 64
2, 52592, Note_on_c, 0, 71, 76
2, 52599, Note_on_c, 0, 85, 98
2, 52606, Note_off_c, 0, 87, 64
2, 52631, Note_off_c, 0, 71, 64
2, 52635, Note_off_c, 0, 85, 64
2, 52635, Note_on_c, 0, 83, 76
2, 52676, Note_off_c, 0, 83, 64
2, 52678, Note_on_c, 0, 82, 104
2, 52686, Note_on_c, 0, 63, 90
2, 52717, Note_off_c, 0, 63, 64
2, 52725, Note_on_c, 0, 80, 104
2, 52733, Note_off_c, 0, 82, 64
2, 52753, Control_c, 0, 64, 63
2, 52760, Control_c, 0, 64, 0
2, 52767, Note_on_c, 0, 78, 107
2, 52770, Note_on_c, 0, 61, 115
2, 52789, Note_off_c, 0, 80, 64
2, 52790, Control_c, 0, 64, 63
2, 52801, Control_c, 0, 64, 127
2, 52807, Note_on_c, 0, 77, 83
2, 52809, Note_off_c, 0, 78, 64
2, 52840, Note_off_c, 0, 77, 64
2, 52850, Note_on_c, 0, 76, 90
2, 52855, Note_on_c, 0, 68, 82
2, 52858, Note_off_c, 0, 61, 64
2, 52899, Note_on_c, 0, 75, 105
2, 52904, Note_off_c, 0, 68, 64
2, 52908, Note_off_c, 0, 76, 64
2, 52936, Note_off_c, 0, 75, 64
2, 52944, Note_on_c, 0, 72, 91
2, 52950, Note_on_c, 0, 64, 84
2, 52977, Note_off_c, 0, 64, 64
2, 52987, Note_on_c, 0, 73, 100
2, 52988, Note_off_c, 0, 72, 64
2, 53004, Control_c, 0, 64, 63
2, 53008, Control_c, 0, 64, 0
2, 53027, Note_on_c, 0, 54, 114
2, 53030, Note_on_c, 0, 75, 100
2, 53040, Note_off_c, 0, 73, 64
2, 53047, Control_c, 0, 64, 63
2, 53053, Control_c, 0, 64, 127
2, 53063, Note_off_c, 0, 54, 64
2, 53072, Note_off_c, 0, 75, 64
2, 53081, Note_on_c, 0, 76, 60
2, 53118, Note_off_c, 0, 76, 64
2, 53120, Note_on_c, 0, 70, 79
2, 53125, Note_on_c, 0, 77, 72
2, 53162, Note_on_c, 0, 78, 98
2, 53170, Note_off_c, 0, 77, 64
2, 53170, Note_off_c, 0, 70, 64
2, 53204, Note_on_c, 0, 64, 62
2, 53206, Note_on_c, 0, 80, 87
2, 53211, Note_off_c, 0, 78, 64
2, 53248, Note_on_c, 0, 78, 86
2, 53256, Note_off_c, 0, 80, 64
2, 53266, Note_off_c, 0, 64, 64
2, 53280, Control_c, 0, 64, 63
2, 53285, Control_c, 0, 64, 0
2, 53286, Note_on_c, 0, 59, 104
2, 53291, Note_off_c, 0, 78, 64
2, 53294, Note_on_c, 0, 75, 95
2, 53327, Control_c, 0, 64, 63
2, 53335, Control_c, 0, 64, 127
2, 53338, Note_off_c, 0, 75, 64
2, 53350, Note_on_c, 0, 76, 68
2, 53370, Note_on_c, 0, 71, 48
2, 53393, Note_off_c, 0, 76, 64
2, 53397, Note_on_c, 0, 77, 79
2, 53434, Note_on_c, 0, 78, 99
2, 53441, Note_off_c, 0, 71, 64
2, 53443, Note_off_c, 0, 77, 64
2, 53468, Note_on_c, 0, 63, 72
2, 53477, Note_off_c, 0, 59, 64
2, 53479, Note_off_c, 0, 78, 64
2, 53480, Note_on_c, 0, 79, 88
2, 53517, Note_off_c, 0, 63, 64
2, 53522, Note_on_c, 0, 80, 105
2, 53524, Note_off_c, 0, 79, 64
2, 53565, Note_on_c, 0, 60, 117
2, 53568, Note_off_c, 0, 80, 64
2, 53571, Note_on_c, 0, 81, 89
2, 53583, Control_c, 0, 64, 63
2, 53589, Control_c, 0, 64, 0
2, 53620, Note_off_c, 0, 81, 64
2, 53624, Note_on_c, 0, 82, 94
2, 53630, Control_c, 0, 64, 63
2, 53639, Control_c, 0, 64, 127
2, 53667, Note_on_c, 0, 69, 68
2, 53669, Note_off_c, 0, 82, 64
2, 53676, Note_on_c, 0, 83, 86
2, 53717, Note_off_c, 0, 83, 64
2, 53720, Note_on_c, 0, 84, 100
2, 53749, Note_off_c, 0, 69, 64
2, 53753, Note_on_c, 0, 63, 73
2, 53755, Note_on_c, 0, 85, 108
2, 53762, Note_off_c, 0, 84, 64
2, 53793, Note_off_c, 0, 60, 64
2, 53794, Note_on_c, 0, 86, 99
2, 53797, Note_off_c, 0, 85, 64
2, 53814, Note_off_c, 0, 63, 64
2, 53838, Note_off_c, 0, 86, 64
2, 53838, Note_on_c, 0, 87, 112
2, 53844, Note_on_c, 0, 60, 118
2, 53884, Note_off_c, 0, 87, 64
2, 53884, Note_on_c, 0, 88, 100
2, 53929, Note_on_c, 0, 69, 107
2, 53932, Note_off_c, 0, 88, 64
2, 53933, Note_on_c, 0, 89, 107
2, 53970, Note_on_c, 0, 90, 109
2, 53982, Note_off_c, 0, 89, 64
2, 54012, Note_on_c, 0, 91, 100
2, 54016, Note_off_c, 0, 90, 64
2, 54018, Note_on_c, 0, 63, 99
2, 54051, Note_on_c, 0, 92, 108
2, 54060, Note_off_c, 0, 91, 64
2, 54060, Note_off_c, 0, 60, 64
2, 54076, Note_off_c, 0, 63, 64
2, 54089, Note_off_c, 0, 69, 64
2, 54093, Note_off_c, 0, 92, 64
2, 54094, Note_on_c, 0, 59, 121
2, 54096, Control_c, 0, 64, 63
2, 54099, Note_on_c, 0, 93, 101
2, 54102, Control_c, 0, 64, 0
2, 54139, Note_on_c, 0, 94, 108
2, 54140, Control_c, 0, 64, 63
2, 54145, Control_c, 0, 64, 127
2, 54152, Note_off_c, 0, 93, 64
2, 54182, Note_on_c, 0, 69, 109
2, 54191, Note_on_c, 0, 95, 107
2, 54206, Note_off_c, 0, 94, 64
2, 54222, Control_c, 0, 67, 0
2, 54238, Note_on_c, 0, 96, 113
2, 54258, Note_off_c, 0, 95, 64
2, 54271, Note_on_c, 0, 63, 85
2, 54280, Note_on_c, 0, 93, 103
2, 54300, Note_off_c, 0, 96, 64
2, 54325, Note_on_c, 0, 90, 113
2, 54341, Note_off_c, 0, 93, 64
2, 54343, Note_off_c, 0, 59, 64
2, 54353, Note_off_c, 0, 69, 64
2, 54363, Note_off_c, 0, 63, 64
2, 54376, Note_on_c, 0, 86, 96
2, 54377, Note_on_c, 0, 69, 117
2, 54377, Note_on_c, 0, 59, 113
2, 54378, Note_on_c, 0, 63, 115
2, 54381, Note_off_c, 0, 90, 64
2, 54388, Control_c, 0, 64, 63
2, 54393, Control_c, 0, 64, 0
2, 54411, Control_c, 0, 64, 63
2, 54419, Control_c, 0, 64, 127
2, 54441, Note_on_c, 0, 90, 97
2, 54451, Note_off_c, 0, 86, 64
2, 54461, Note_off_c, 0, 59, 64
2, 54473, Note_off_c, 0, 63, 64
2, 54479, Note_off_c, 0, 69, 64
2, 54487, Note_on_c, 0, 87, 103
2, 54501, Note_off_c, 0, 90, 64
2, 54528, Note_on_c, 0, 93, 90
2, 54538, Note_off_c, 0, 87, 64
2, 54581, Note_on_c, 0, 90, 104
2, 54589, Note_off_c, 0, 93, 64
2, 54621, Note_off_c, 0, 90, 64
2, 54639, Note_on_c, 0, 87, 99
2, 54665, Note_off_c, 0, 87, 64
2, 54673, Note_on_c, 0, 83, 102
2, 54707, Note_off_c, 0, 83, 64
2, 54727, Note_on_c, 0, 87, 99
2, 54770, Note_on_c, 0, 84, 100
2, 54771, Note_off_c, 0, 87, 64
2, 54803, Note_off_c, 0, 84, 64
2, 54810, Note_on_c, 0, 90, 104
2, 54849, Note_on_c, 0, 87, 86
2, 54861, Note_off_c, 0, 90, 64
2, 54899, Note_on_c, 0, 84, 94
2, 54913, Note_off_c, 0, 87, 64
2, 54933, Note_off_c, 0, 84, 64
2, 54938, Note_on_c, 0, 80, 125
2, 54967, Note_off_c, 0, 80, 64
2, 54988, Note_on_c, 0, 84, 70
2, 55015, Note_off_c, 0, 84, 64
2, 55029, Note_on_c, 0, 81, 76
2, 55064, Note_on_c, 0, 87, 100
2, 55075, Note_off_c, 0, 81, 64
2, 55111, Note_on_c, 0, 84, 93
2, 55118, Note_off_c, 0, 87, 64
2, 55146, Note_on_c, 0, 81, 100
2, 55168, Note_off_c, 0, 84, 64
2, 55186, Note_off_c, 0, 81, 64
2, 55196, Note_on_c, 0, 77, 125
2, 55224, Note_off_c, 0, 77, 64
2, 55230, Note_on_c, 0, 81, 99
2, 55276, Note_on_c, 0, 78, 100
2, 55288, Note_off_c, 0, 81, 64
2, 55319, Note_on_c, 0, 84, 100
2, 55324, Note_off_c, 0, 78, 64
2, 55363, Note_on_c, 0, 81, 90
2, 55382, Note_off_c, 0, 84, 64
2, 55403, Note_on_c, 0, 78, 95
2, 55413, Note_off_c, 0, 81, 64
2, 55433, Note_off_c, 0, 78, 64
2, 55440, Note_on_c, 0, 35, 125
2, 55447, Note_on_c, 0, 74, 96
2, 55456, Control_c, 0, 64, 63
2, 55461, Control_c, 0, 64, 0
2, 55483, Note_off_c, 0, 35, 64
2, 55486, Note_on_c, 0, 78, 107
2, 55500, Control_c, 0, 64, 63
2, 55534, Note_on_c, 0, 75, 106
2, 55539, Note_on_c, 0, 36, 118
2, 55554, Note_off_c, 0, 74, 64
2, 55556, Note_off_c, 0, 78, 64
2, 55569, Note_off_c, 0, 36, 64
2, 55569, Control_c, 0, 64, 0
2, 55582, Note_on_c, 0, 81, 92
2, 55594, Note_off_c, 0, 75, 64
2, 55626, Note_on_c, 0, 78, 91
2, 55627, Note_on_c, 0, 37, 104
2, 55644, Note_off_c, 0, 81, 64
2, 55675, Note_on_c, 0, 75, 101
2, 55683, Note_off_c, 0, 78, 64
2, 55683, Note_off_c, 0, 37, 64
2, 55704, Note_off_c, 0, 75, 64
2, 55709, Note_on_c, 0, 38, 111
2, 55717, Note_on_c, 0, 71, 93
2, 55718, Control_c, 0, 64, 63
2, 55719, Control_c, 0, 64, 127
2, 55745, Note_off_c, 0, 38, 64
2, 55753, Control_c, 0, 64, 63
2, 55764, Control_c, 0, 64, 0
2, 55765, Note_on_c, 0, 75, 88
2, 55771, Note_off_c, 0, 71, 64
2, 55795, Note_on_c, 0, 39, 108
2, 55801, Note_on_c, 0, 72, 89
2, 55805, Note_off_c, 0, 75, 64
2, 55844, Note_off_c, 0, 39, 64
2, 55845, Note_on_c, 0, 78, 107
2, 55856, Note_off_c, 0, 72, 64
2, 55887, Note_on_c, 0, 75, 101
2, 55889, Note_on_c, 0, 40, 109
2, 55902, Note_off_c, 0, 78, 64
2, 55927, Note_off_c, 0, 40, 64
2, 55929, Note_on_c, 0, 72, 87
2, 55938, Note_off_c, 0, 75, 64
2, 55974, Note_on_c, 0, 41, 121
2, 55983, Control_c, 0, 64, 63
2, 55983, Control_c, 0, 64, 127
2, 55985, Note_off_c, 0, 72, 64
2, 55988, Note_on_c, 0, 68, 113
2, 56003, Note_off_c, 0, 41, 64
2, 56022, Note_off_c, 0, 68, 64
2, 56037, Note_on_c, 0, 72, 55
2, 56043, Control_c, 0, 64, 63
2, 56050, Control_c, 0, 64, 0
2, 56064, Note_on_c, 0, 42, 116
2, 56067, Note_on_c, 0, 30, 112
2, 56071, Note_on_c, 0, 69, 89
2, 56090, Note_off_c, 0, 42, 64
2, 56090, Note_off_c, 0, 72, 64
2, 56096, Note_off_c, 0, 30, 64
2, 56108, Note_on_c, 0, 75, 108
2, 56123, Note_off_c, 0, 69, 64
2, 56153, Note_on_c, 0, 43, 117
2, 56155, Note_on_c, 0, 31, 109
2, 56155, Note_on_c, 0, 72, 98
2, 56158, Note_off_c, 0, 75, 64
2, 56159, Control_c, 0, 64, 63
2, 56161, Control_c, 0, 64, 127
2, 56174, Note_off_c, 0, 31, 64
2, 56177, Note_off_c, 0, 43, 64
2, 56187, Control_c, 0, 64, 63
2, 56192, Control_c, 0, 64, 0
2, 56198, Note_on_c, 0, 69, 96
2, 56211, Note_off_c, 0, 72, 64
2, 56232, Note_off_c, 0, 69, 64
2, 56243, Note_on_c, 0, 44, 120
2, 56244, Note_on_c, 0, 65, 102
2, 56245, Note_on_c, 0, 32, 119
2, 56268, Note_off_c, 0, 44, 64
2, 56270, Note_off_c, 0, 32, 64
2, 56285, Note_on_c, 0, 69, 102
2, 56302, Note_off_c, 0, 65, 64
2, 56328, Note_on_c, 0, 66, 114
2, 56332, Note_on_c, 0, 45, 113
2, 56333, Note_on_c, 0, 33, 113
2, 56347, Note_off_c, 0, 69, 64
2, 56354, Note_off_c, 0, 45, 64
2, 56356, Note_off_c, 0, 33, 64
2, 56365, Note_on_c, 0, 72, 106
2, 56379, Note_off_c, 0, 66, 64
2, 56412, Note_on_c, 0, 69, 102
2, 56420, Note_on_c, 0, 46, 116
2, 56422, Note_on_c, 0, 34, 109
2, 56436, Note_off_c, 0, 72, 64
2, 56454, Note_off_c, 0, 34, 64
2, 56454, Note_off_c, 0, 46, 64
2, 56456, Note_on_c, 0, 66, 115
2, 56472, Note_off_c, 0, 69, 64
2, 56486, Note_off_c, 0, 66, 64
2, 56501, Note_on_c, 0, 47, 118
2, 56502, Note_on_c, 0, 35, 117
2, 56503, Note_on_c, 0, 62, 113
2, 56514, Control_c, 0, 64, 63
2, 56515, Control_c, 0, 64, 127
2, 56522, Note_off_c, 0, 35, 64
2, 56525, Note_off_c, 0, 47, 64
2, 56554, Note_on_c, 0, 66, 107
2, 56566, Note_off_c, 0, 62, 64
2, 56602, Note_on_c, 0, 48, 112
2, 56604, Note_on_c, 0, 63, 118
2, 56605, Note_on_c, 0, 36, 102
2, 56622, Note_off_c, 0, 66, 64
2, 56623, Note_off_c, 0, 36, 64
2, 56626, Note_off_c, 0, 48, 64
2, 56641, Note_on_c, 0, 69, 102
2, 56658, Note_off_c, 0, 63, 64
2, 56670, Control_c, 0, 64, 63
2, 56673, Control_c, 0, 64, 0
2, 56690, Note_on_c, 0, 66, 107
2, 56691, Note_on_c, 0, 35, 108
2, 56692, Note_on_c, 0, 47, 102
2, 56693, Control_c, 0, 64, 63
2, 56698, Control_c, 0, 64, 127
2, 56704, Note_off_c, 0, 35, 64
2, 56714, Note_off_c, 0, 69, 64
2, 56718, Note_off_c, 0, 47, 64
2, 56733, Note_on_c, 0, 63, 110
2, 56749, Note_off_c, 0, 66, 64
2, 56757, Control_c, 0, 64, 63
2, 56759, Control_c, 0, 64, 0
2, 56760, Note_off_c, 0, 63, 64
2, 56798, Note_on_c, 0, 59, 120
2, 56800, Note_on_c, 0, 42, 109
2, 56801, Note_on_c, 0, 54, 123
2, 56806, Control_c, 0, 64, 63
2, 56807, Control_c, 0, 64, 127
2, 56812, Note_on_c, 0, 44, 58
2, 56827, Note_off_c, 0, 44, 64
2, 56859, Note_off_c, 0, 42, 64
2, 56871, Note_off_c, 0, 54, 64
2, 56886, Note_on_c, 0, 63, 88
2, 56914, Note_off_c, 0, 59, 64
2, 56931, Note_on_c, 0, 60, 92
2, 56942, Note_off_c, 0, 63, 64
2, 56972, Note_on_c, 0, 66, 105
2, 56982, Note_off_c, 0, 60, 64
2, 57018, Note_on_c, 0, 63, 82
2, 57036, Note_off_c, 0, 66, 64
2, 57056, Note_on_c, 0, 60, 97
2, 57074, Note_off_c, 0, 63, 64
2, 57084, Note_off_c, 0, 60, 64
2, 57100, Note_on_c, 0, 56, 125
2, 57122, Note_off_c, 0, 56, 64
2, 57148, Note_on_c, 0, 60, 94
2, 57190, Note_on_c, 0, 57, 76
2, 57195, Note_off_c, 0, 60, 64
2, 57230, Note_on_c, 0, 63, 107
2, 57243, Note_off_c, 0, 57, 64
2, 57276, Note_on_c, 0, 60, 92
2, 57282, Note_off_c, 0, 63, 64
2, 57316, Note_on_c, 0, 57, 99
2, 57333, Note_off_c, 0, 60, 64
2, 57351, Note_off_c, 0, 57, 64
2, 57370, Note_on_c, 0, 50, 121
2, 57412, Control_c, 0, 64, 63
2, 57414, Note_on_c, 0, 54, 106
2, 57416, Control_c, 0, 64, 0
2, 57438, Control_c, 0, 64, 63
2, 57445, Control_c, 0, 64, 127
2, 57457, Note_on_c, 0, 51, 110
2, 57478, Note_off_c, 0, 54, 64
2, 57489, Note_off_c, 0, 50, 64
2, 57498, Note_on_c, 0, 57, 94
2, 57513, Note_off_c, 0, 51, 64
2, 57544, Note_on_c, 0, 54, 106
2, 57566, Note_off_c, 0, 57, 64
2, 57580, Note_on_c, 0, 48, 113
2, 57598, Note_off_c, 0, 54, 64
2, 57609, Note_off_c, 0, 48, 64
2, 57633, Control_c, 0, 64, 63
2, 57635, Note_on_c, 0, 35, 127
2, 57635, Note_on_c, 0, 47, 109
2, 57639, Control_c, 0, 64, 0
2, 57704, Control_c, 0, 64, 63
2, 57706, Note_on_c, 0, 48, 63
2, 57712, Control_c, 0, 64, 127
2, 57741, Note_off_c, 0, 47, 64
2, 57750, Note_off_c, 0, 35, 64
2, 57756, Note_on_c, 0, 51, 89
2, 57774, Note_off_c, 0, 48, 64
2, 57800, Note_off_c, 0, 51, 64
2, 57800, Note_on_c, 0, 57, 64
2, 57849, Note_on_c, 0, 54, 97
2, 57851, Note_off_c, 0, 57, 64
2, 57853, Note_on_c, 0, 36, 68
2, 57881, Control_c, 0, 64, 63
2, 57894, Control_c, 0, 64, 0
2, 57895, Note_on_c, 0, 48, 64
2, 57898, Note_off_c, 0, 54, 64
2, 57924, Note_off_c, 0, 36, 64
2, 57937, Note_on_c, 0, 35, 90
2, 57938, Note_on_c, 0, 47, 86
2, 57943, Control_c, 0, 64, 63
2, 57944, Note_off_c, 0, 48, 64
2, 57965, Control_c, 0, 64, 127
2, 57990, Note_on_c, 0, 48, 82
2, 57994, Note_off_c, 0, 47, 64
2, 58041, Note_on_c, 0, 51, 87
2, 58049, Note_off_c, 0, 35, 64
2, 58055, Note_off_c, 0, 48, 64
2, 58082, Note_on_c, 0, 57, 63
2, 58086, Note_off_c, 0, 51, 64
2, 58129, Note_off_c, 0, 57, 64
2, 58131, Note_on_c, 0, 54, 89
2, 58136, Note_on_c, 0, 36, 61
2, 58151, Control_c, 0, 64, 63
2, 58151, Control_c, 0, 67, 127
2, 58153, Control_c, 0, 67, 0
2, 58158, Control_c, 0, 67, 127
2, 58166, Control_c, 0, 64, 0
2, 58182, Note_off_c, 0, 54, 64
2, 58193, Note_on_c, 0, 48, 8
2, 58203, Note_off_c, 0, 36, 64
2, 58213, Note_on_c, 0, 35, 77
2, 58218, Note_on_c, 0, 47, 67
2, 58226, Note_off_c, 0, 48, 64
2, 58232, Control_c, 0, 64, 63
2, 58240, Control_c, 0, 64, 127
2, 58267, Note_off_c, 0, 47, 64
2, 58273, Note_on_c, 0, 48, 68
2, 58294, Note_off_c, 0, 35, 64
2, 58318, Note_on_c, 0, 51, 78
2, 58323, Note_off_c, 0, 48, 64
2, 58354, Note_on_c, 0, 57, 59
2, 58360, Note_off_c, 0, 51, 64
2, 58396, Note_off_c, 0, 57, 64
2, 58396, Note_on_c, 0, 54, 77
2, 58399, Note_on_c, 0, 36, 55
2, 58448, Note_on_c, 0, 51, 57
2, 58454, Note_off_c, 0, 54, 64
2, 58455, Control_c, 0, 64, 63
2, 58460, Control_c, 0, 64, 0
2, 58467, Note_off_c, 0, 51, 64
2, 58468, Note_off_c, 0, 36, 64
2, 58475, Note_on_c, 0, 35, 67
2, 58478, Note_on_c, 0, 47, 66
2, 58479, Control_c, 0, 64, 63
2, 58488, Control_c, 0, 64, 127
2, 58530, Note_off_c, 0, 47, 64
2, 58535, Note_on_c, 0, 48, 57
2, 58570, Note_off_c, 0, 35, 64
2, 58577, Note_off_c, 0, 48, 64
2, 58579, Note_on_c, 0, 51, 45
2, 58603, Note_off_c, 0, 51, 64
2, 58619, Control_c, 0, 67, 127
2, 58620, Note_on_c, 0, 57, 34
2, 58653, Note_off_c, 0, 57, 64
2, 58658, Note_on_c, 0, 54, 72
2, 58683, Note_on_c, 0, 36, 38
2, 58713, Note_off_c, 0, 54, 64
2, 58721, Note_on_c, 0, 48, 59
2, 58762, Note_off_c, 0, 36, 64
2, 58766, Control_c, 0, 67, 127
2, 58770, Note_on_c, 0, 35, 71
2, 58774, Control_c, 0, 64, 63
2, 58775, Note_on_c, 0, 47, 54
2, 58775, Control_c, 0, 64, 127
2, 58791, Note_off_c, 0, 48, 64
2, 58801, Control_c, 0, 64, 63
2, 58810, Control_c, 0, 64, 0
2, 58821, Control_c, 0, 64, 63
2, 58835, Control_c, 0, 64, 127
2, 58843, Note_off_c, 0, 35, 64
2, 58863, Note_on_c, 0, 36, 59
2, 58885, Note_off_c, 0, 47, 64
2, 58923, Note_on_c, 0, 42, 78
2, 58948, Note_off_c, 0, 36, 64
2, 58975, Note_off_c, 0, 42, 64
2, 58979, Note_on_c, 0, 45, 59
2, 59024, Note_on_c, 0, 48, 96
2, 59025, Note_on_c, 0, 42, 59
2, 59036, Note_off_c, 0, 45, 64
2, 59071, Note_off_c, 0, 42, 64
2, 59078, Note_on_c, 0, 36, 55
2, 59126, Note_on_c, 0, 47, 100
2, 59128, Note_on_c, 0, 35, 90
2, 59135, Note_off_c, 0, 36, 64
2, 59139, Control_c, 0, 64, 63
2, 59141, Note_off_c, 0, 48, 64
2, 59143, Control_c, 0, 64, 0
2, 59175, Control_c, 0, 64, 63
2, 59181, Control_c, 0, 64, 127
2, 59186, Note_on_c, 0, 36, 81
2, 59188, Note_off_c, 0, 35, 64
2, 59237, Note_on_c, 0, 42, 90
2, 59255, Note_off_c, 0, 47, 64
2, 59265, Note_off_c, 0, 36, 64
2, 59288, Note_off_c, 0, 42, 64
2, 59288, Note_on_c, 0, 45, 67
2, 59325, Note_on_c, 0, 54, 120
2, 59336, Note_on_c, 0, 42, 72
2, 59343, Note_off_c, 0, 45, 64
2, 59380, Note_on_c, 0, 36, 77
2, 59381, Note_off_c, 0, 42, 64
2, 59423, Control_c, 0, 64, 63
2, 59426, Control_c, 0, 64, 0
2, 59433, Note_off_c, 0, 36, 64
2, 59437, Note_on_c, 0, 47, 103
2, 59437, Note_on_c, 0, 35, 98
2, 59447, Note_off_c, 0, 54, 64
2, 59457, Control_c, 0, 64, 63
2, 59464, Control_c, 0, 64, 127
2, 59497, Note_on_c, 0, 36, 98
2, 59506, Note_off_c, 0, 35, 64
2, 59520, Note_off_c, 0, 47, 64
2, 59553, Note_on_c, 0, 42, 101
2, 59572, Note_off_c, 0, 36, 64
2, 59608, Note_on_c, 0, 45, 85
2, 59612, Note_off_c, 0, 42, 64
2, 59659, Note_on_c, 0, 60, 114
2, 59660, Note_on_c, 0, 48, 107
2, 59666, Note_off_c, 0, 45, 64
2, 59667, Note_on_c, 0, 42, 92
2, 59720, Note_off_c, 0, 42, 64
2, 59721, Note_off_c, 0, 48, 64
2, 59722, Note_on_c, 0, 36, 77
2, 59781, Note_on_c, 0, 35, 98
2, 59783, Note_off_c, 0, 60, 64
2, 59783, Note_on_c, 0, 59, 111
2, 59788, Note_off_c, 0, 36, 64
2, 59790, Control_c, 0, 64, 63
2, 59793, Control_c, 0, 64, 0
2, 59827, Control_c, 0, 64, 63
2, 59833, Control_c, 0, 64, 127
2, 59863, Note_on_c, 0, 42, 72
2, 59919, Note_off_c, 0, 35, 64
2, 59931, Note_on_c, 0, 57, 81
2, 59937, Note_on_c, 0, 51, 86
2, 59958, Note_off_c, 0, 59, 64
2, 59977, Note_off_c, 0, 51, 64
2, 59986, Note_off_c, 0, 42, 64
2, 59992, Note_on_c, 0, 47, 60
2, 60075, Note_on_c, 0, 63, 96
2, 60090, Note_off_c, 0, 57, 64
2, 60106, Note_off_c, 0, 47, 64
2, 60108, Note_on_c, 0, 42, 43
2, 60202, Note_off_c, 0, 63, 64
2, 60240, Note_on_c, 0, 40, 82
2, 60241, Note_off_c, 0, 42, 64
2, 60243, Note_on_c, 0, 64, 91
2, 60289, Control_c, 0, 64, 63
2, 60294, Control_c, 0, 64, 0
2, 60336, Control_c, 0, 64, 63
2, 60342, Control_c, 0, 64, 127
2, 60345, Note_on_c, 0, 47, 55
2, 60395, Note_on_c, 0, 55, 63
2, 60442, Note_off_c, 0, 47, 64
2, 60452, Note_off_c, 0, 40, 64
2, 60453, Note_on_c, 0, 52, 20
2, 60467, Note_off_c, 0, 55, 64
2, 60491, Note_on_c, 0, 59, 83
2, 60525, Note_off_c, 0, 52, 64
2, 60531, Note_on_c, 0, 47, 68
2, 60576, Note_off_c, 0, 47, 64
2, 60599, Note_off_c, 0, 59, 64
2, 60612, Note_on_c, 0, 45, 93
2, 60616, Note_off_c, 0, 64, 64
2, 60617, Note_on_c, 0, 60, 84
2, 60635, Control_c, 0, 64, 63
2, 60640, Control_c, 0, 64, 0
2, 60681, Control_c, 0, 64, 63
2, 60687, Control_c, 0, 64, 127
2, 60714, Note_on_c, 0, 48, 59
2, 60728, Note_on_c, 0, 57, 71
2, 60786, Note_off_c, 0, 48, 64
2, 60791, Note_on_c, 0, 52, 54
2, 60792, Note_off_c, 0, 60, 64
2, 60821, Note_off_c, 0, 57, 64
2, 60838, Note_off_c, 0, 52, 64
2, 60841, Note_on_c, 0, 63, 107
2, 60873, Note_on_c, 0, 48, 55
2, 60886, Note_off_c, 0, 45, 64
2, 60906, Note_off_c, 0, 48, 64
2, 60949, Note_on_c, 0, 64, 90
2, 60954, Note_on_c, 0, 40, 101
2, 60971, Note_off_c, 0, 63, 64
2, 60999, Control_c, 0, 64, 63
2, 61004, Control_c, 0, 64, 0
2, 61028, Note_on_c, 0, 47, 71
2, 61038, Control_c, 0, 64, 63
2, 61047, Control_c, 0, 64, 127
2, 61077, Note_on_c, 0, 55, 80
2, 61090, Note_off_c, 0, 40, 64
2, 61112, Note_off_c, 0, 47, 64
2, 61121, Note_on_c, 0, 52, 48
2, 61157, Note_off_c, 0, 55, 64
2, 61181, Note_on_c, 0, 59, 93
2, 61182, Note_off_c, 0, 52, 64
2, 61193, Note_on_c, 0, 47, 64
2, 61233, Note_off_c, 0, 47, 64
2, 61265, Note_off_c, 0, 59, 64
2, 61268, Note_off_c, 0, 64, 64
2, 61276, Note_on_c, 0, 45, 101
2, 61280, Note_on_c, 0, 60, 111
2, 61296, Control_c, 0, 64, 63
2, 61302, Control_c, 0, 64, 0
2, 61329, Control_c, 0, 64, 63
2, 61338, Control_c, 0, 64, 127
2, 61351, Note_on_c, 0, 48, 81
2, 61381, Note_on_c, 0, 57, 92
2, 61398, Note_off_c, 0, 60, 64
2, 61431, Note_off_c, 0, 48, 64
2, 61435, Note_on_c, 0, 52, 63
2, 61456, Note_off_c, 0, 57, 64
2, 61472, Note_on_c, 0, 63, 121
2, 61480, Note_off_c, 0, 52, 64
2, 61495, Note_on_c, 0, 48, 74
2, 61496, Note_off_c, 0, 45, 64
2, 61529, Note_off_c, 0, 48, 64
2, 61567, Note_off_c, 0, 63, 64
2, 61570, Note_on_c, 0, 40, 101
2, 61573, Note_on_c, 0, 64, 113
2, 61585, Control_c, 0, 64, 63
2, 61590, Control_c, 0, 64, 0
2, 61624, Control_c, 0, 64, 63
2, 61631, Note_on_c, 0, 47, 82
2, 61633, Control_c, 0, 64, 127
2, 61664, Note_on_c, 0, 59, 78
2, 61664, Note_on_c, 0, 55, 63
2, 61682, Note_off_c, 0, 40, 64
2, 61699, Note_off_c, 0, 64, 64
2, 61702, Note_on_c, 0, 52, 70
2, 61706, Note_off_c, 0, 47, 64
2, 61710, Note_off_c, 0, 55, 64
2, 61752, Note_off_c, 0, 59, 64
2, 61763, Note_on_c, 0, 64, 113
2, 61765, Note_off_c, 0, 52, 64
2, 61773, Note_on_c, 0, 47, 82
2, 61811, Note_off_c, 0, 64, 64
2, 61840, Note_off_c, 0, 47, 64
2, 61859, Note_on_c, 0, 66, 96
2, 61862, Note_on_c, 0, 45, 84
2, 61874, Note_on_c, 0, 64, 98
2, 61894, Note_off_c, 0, 66, 64
2, 61900, Control_c, 0, 64, 63
2, 61905, Control_c, 0, 64, 0
2, 61946, Note_on_c, 0, 48, 76
2, 61947, Control_c, 0, 64, 63
2, 61953, Control_c, 0, 64, 127
2, 61962, Note_on_c, 0, 63, 113
2, 61971, Note_on_c, 0, 60, 100
2, 61973, Note_off_c, 0, 64, 64
2, 61974, Note_on_c, 0, 57, 74
2, 62006, Note_on_c, 0, 52, 71
2, 62011, Note_off_c, 0, 48, 64
2, 62032, Note_off_c, 0, 57, 64
2, 62051, Note_off_c, 0, 45, 64
2, 62058, Note_on_c, 0, 64, 113
2, 62066, Note_on_c, 0, 48, 76
2, 62067, Note_off_c, 0, 52, 64
2, 62067, Note_off_c, 0, 60, 64
2, 62084, Note_off_c, 0, 63, 64
2, 62135, Note_off_c, 0, 48, 64
2, 62138, Note_on_c, 0, 45, 31
2, 62158, Note_off_c, 0, 45, 64
2, 62162, Note_on_c, 0, 43, 94
2, 62164, Note_on_c, 0, 67, 112
2, 62194, Control_c, 0, 64, 63
2, 62195, Note_off_c, 0, 64, 64
2, 62199, Control_c, 0, 64, 0
2, 62235, Control_c, 0, 64, 63
2, 62242, Control_c, 0, 64, 127
2, 62243, Note_on_c, 0, 50, 47
2, 62279, Note_on_c, 0, 59, 91
2, 62330, Note_on_c, 0, 55, 60
2, 62334, Note_off_c, 0, 50, 64
2, 62372, Note_off_c, 0, 59, 64
2, 62379, Note_on_c, 0, 62, 88
2, 62384, Note_off_c, 0, 43, 64
2, 62399, Note_off_c, 0, 55, 64
2, 62406, Note_on_c, 0, 50, 56
2, 62423, Note_off_c, 0, 62, 64
2, 62435, Note_off_c, 0, 50, 64
2, 62471, Note_on_c, 0, 48, 102
2, 62484, Control_c, 0, 64, 63
2, 62488, Control_c, 0, 64, 0
2, 62527, Control_c, 0, 64, 63
2, 62534, Control_c, 0, 64, 127
2, 62536, Note_on_c, 0, 51, 63
2, 62562, Note_on_c, 0, 60, 63
2, 62615, Note_on_c, 0, 55, 52
2, 62616, Note_off_c, 0, 51, 64
2, 62632, Note_off_c, 0, 60, 64
2, 62681, Note_on_c, 0, 63, 71
2, 62693, Note_off_c, 0, 55, 64
2, 62702, Note_on_c, 0, 51, 63
2, 62713, Note_off_c, 0, 48, 64
2, 62741, Note_off_c, 0, 51, 64
2, 62751, Note_off_c, 0, 63, 64
2, 62779, Note_on_c, 0, 43, 102
2, 62786, Control_c, 0, 64, 63
2, 62791, Control_c, 0, 64, 0
2, 62826, Control_c, 0, 64, 63
2, 62834, Control_c, 0, 64, 127
2, 62840, Note_off_c, 0, 67, 64
2, 62855, Note_on_c, 0, 50, 62
2, 62876, Note_on_c, 0, 59, 74
2, 62918, Note_on_c, 0, 55, 41
2, 62922, Note_off_c, 0, 50, 64
2, 62931, Note_off_c, 0, 59, 64
2, 62959, Note_off_c, 0, 43, 64
2, 62979, Note_on_c, 0, 62, 103
2, 62990, Note_off_c, 0, 55, 64
2, 62996, Note_on_c, 0, 50, 63
2, 63054, Note_off_c, 0, 62, 64
2, 63064, Note_off_c, 0, 50, 64
2, 63072, Note_on_c, 0, 63, 118
2, 63075, Note_on_c, 0, 48, 79
2, 63109, Control_c, 0, 64, 63
2, 63114, Control_c, 0, 64, 0
2, 63140, Note_on_c, 0, 51, 90
2, 63146, Control_c, 0, 64, 63
2, 63155, Control_c, 0, 64, 127
2, 63171, Note_on_c, 0, 60, 100
2, 63175, Note_on_c, 0, 57, 81
2, 63215, Note_on_c, 0, 55, 70
2, 63217, Note_off_c, 0, 51, 64
2, 63246, Note_off_c, 0, 57, 64
2, 63265, Note_on_c, 0, 66, 116
2, 63282, Note_off_c, 0, 60, 64
2, 63285, Note_off_c, 0, 63, 64
2, 63290, Note_on_c, 0, 51, 86
2, 63296, Note_off_c, 0, 55, 64
2, 63311, Note_off_c, 0, 48, 64
2, 63339, Note_off_c, 0, 66, 64
2, 63341, Note_off_c, 0, 51, 64
2, 63359, Note_on_c, 0, 67, 117
2, 63362, Note_on_c, 0, 43, 83
2, 63370, Note_on_c, 0, 41, 57
2, 63386, Note_off_c, 0, 41, 64
2, 63399, Control_c, 0, 64, 63
2, 63403, Control_c, 0, 64, 0
2, 63435, Note_on_c, 0, 50, 86
2, 63437, Control_c, 0, 64, 63
2, 63445, Control_c, 0, 64, 127
2, 63463, Note_on_c, 0, 59, 94
2, 63498, Note_on_c, 0, 55, 72
2, 63510, Note_off_c, 0, 50, 64
2, 63529, Note_off_c, 0, 59, 64
2, 63553, Note_on_c, 0, 62, 113
2, 63570, Note_off_c, 0, 55, 64
2, 63571, Note_on_c, 0, 50, 87
2, 63573, Note_off_c, 0, 67, 64
2, 63579, Note_off_c, 0, 43, 64
2, 63641, Note_off_c, 0, 62, 64
2, 63649, Note_on_c, 0, 63, 115
2, 63650, Note_on_c, 0, 48, 100
2, 63656, Note_off_c, 0, 50, 64
2, 63683, Control_c, 0, 64, 63
2, 63688, Control_c, 0, 64, 0
2, 63720, Note_on_c, 0, 51, 98
2, 63727, Control_c, 0, 64, 63
2, 63733, Control_c, 0, 64, 127
2, 63746, Note_on_c, 0, 60, 99
2, 63753, Note_on_c, 0, 57, 78
2, 63793, Note_on_c, 0, 55, 79
2, 63802, Note_off_c, 0, 51, 64
2, 63808, Note_off_c, 0, 57, 64
2, 63848, Note_on_c, 0, 66, 112
2, 63860, Note_off_c, 0, 60, 64
2, 63866, Note_on_c, 0, 51, 82
2, 63873, Note_off_c, 0, 55, 64
2, 63875, Note_off_c, 0, 63, 64
2, 63911, Note_off_c, 0, 48, 64
2, 63915, Note_off_c, 0, 51, 64
2, 63924, Note_off_c, 0, 66, 64
2, 63946, Note_on_c, 0, 43, 107
2, 63949, Note_on_c, 0, 67, 113
2, 63971, Control_c, 0, 64, 63
2, 63975, Control_c, 0, 64, 0
2, 64018, Control_c, 0, 64, 63
2, 64018, Note_on_c, 0, 50, 67
2, 64024, Control_c, 0, 64, 127
2, 64051, Note_on_c, 0, 62, 84
2, 64053, Note_on_c, 0, 59, 76
2, 64089, Note_on_c, 0, 55, 57
2, 64091, Note_off_c, 0, 50, 64
2, 64091, Note_off_c, 0, 67, 64
2, 64120, Note_off_c, 0, 59, 64
2, 64145, Note_on_c, 0, 67, 107
2, 64150, Note_off_c, 0, 43, 64
2, 64158, Note_off_c, 0, 55, 64
2, 64158, Note_on_c, 0, 50, 71
2, 64165, Note_off_c, 0, 62, 64
2, 64199, Note_off_c, 0, 67, 64
2, 64209, Note_off_c, 0, 50, 64
2, 64234, Note_on_c, 0, 48, 80
2, 64235, Note_on_c, 0, 69, 98
2, 64248, Note_on_c, 0, 67, 101
2, 64265, Control_c, 0, 64, 63
2, 64270, Control_c, 0, 64, 0
2, 64277, Note_off_c, 0, 69, 64
2, 64304, Note_on_c, 0, 52, 84
2, 64313, Control_c, 0, 64, 63
2, 64319, Control_c, 0, 64, 127
2, 64341, Note_on_c, 0, 66, 115
2, 64345, Note_on_c, 0, 64, 98
2, 64350, Note_on_c, 0, 60, 85
2, 64362, Note_on_c, 0, 55, 80
2, 64368, Note_off_c, 0, 67, 64
2, 64371, Note_off_c, 0, 52, 64
2, 64391, Note_off_c, 0, 60, 64
2, 64416, Note_off_c, 0, 64, 64
2, 64436, Note_on_c, 0, 67, 112
2, 64438, Note_on_c, 0, 52, 76
2, 64448, Note_off_c, 0, 55, 64
2, 64454, Note_off_c, 0, 66, 64
2, 64457, Note_off_c, 0, 48, 64
2, 64513, Note_off_c, 0, 52, 64
2, 64534, Note_off_c, 0, 67, 64
2, 64535, Note_on_c, 0, 47, 84
2, 64554, Note_on_c, 0, 71, 113
2, 64608, Control_c, 0, 64, 63
2, 64613, Control_c, 0, 64, 0
2, 64645, Note_on_c, 0, 54, 70
2, 64654, Control_c, 0, 64, 63
2, 64661, Control_c, 0, 64, 127
2, 64692, Note_on_c, 0, 63, 88
2, 64715, Note_off_c, 0, 47, 64
2, 64746, Note_on_c, 0, 59, 63
2, 64751, Note_off_c, 0, 54, 64
2, 64753, Note_off_c, 0, 63, 64
2, 64794, Note_on_c, 0, 66, 94
2, 64826, Note_off_c, 0, 59, 64
2, 64829, Note_on_c, 0, 54, 64
2, 64832, Note_off_c, 0, 66, 64
2, 64863, Note_off_c, 0, 54, 64
2, 64896, Note_on_c, 0, 52, 111
2, 64906, Control_c, 0, 64, 63
2, 64911, Control_c, 0, 64, 0
2, 64953, Note_on_c, 0, 55, 71
2, 64956, Control_c, 0, 64, 63
2, 64964, Control_c, 0, 64, 127
2, 65008, Note_on_c, 0, 64, 77
2, 65026, Note_off_c, 0, 55, 64
2, 65034, Note_on_c, 0, 59, 52
2, 65083, Note_off_c, 0, 64, 64
2, 65107, Note_off_c, 0, 59, 64
2, 65124, Note_on_c, 0, 67, 71
2, 65134, Note_on_c, 0, 55, 37
2, 65175, Note_off_c, 0, 55, 64
2, 65184, Note_off_c, 0, 67, 64
2, 65193, Note_off_c, 0, 52, 64
2, 65210, Note_on_c, 0, 47, 111
2, 65215, Control_c, 0, 64, 63
2, 65221, Control_c, 0, 64, 0
2, 65253, Control_c, 0, 64, 63
2, 65261, Control_c, 0, 64, 127
2, 65284, Note_on_c, 0, 54, 84
2, 65310, Note_off_c, 0, 47, 64
2, 65313, Note_on_c, 0, 63, 97
2, 65336, Note_off_c, 0, 71, 64
2, 65356, Note_off_c, 0, 54, 64
2, 65367, Note_on_c, 0, 59, 63
2, 65371, Note_off_c, 0, 63, 64
2, 65406, Note_on_c, 0, 66, 114
2, 65427, Note_off_c, 0, 59, 64
2, 65435, Note_on_c, 0, 54, 79
2, 65460, Note_off_c, 0, 54, 64
2, 65489, Note_off_c, 0, 66, 64
2, 65509, Control_c, 0, 64, 63
2, 65512, Control_c, 0, 64, 0
2, 65514, Note_on_c, 0, 67, 103
2, 65524, Note_on_c, 0, 40, 86
2, 65550, Control_c, 0, 64, 63
2, 65557, Control_c, 0, 64, 127
2, 65569, Note_off_c, 0, 40, 64
2, 65613, Note_on_c, 0, 52, 67
2, 65627, Note_on_c, 0, 64, 84
2, 65628, Note_on_c, 0, 62, 90
2, 65686, Note_off_c, 0, 52, 64
2, 65690, Note_on_c, 0, 59, 46
2, 65716, Note_on_c, 0, 68, 104
2, 65735, Note_off_c, 0, 67, 64
2, 65750, Note_off_c, 0, 64, 64
2, 65752, Note_off_c, 0, 62, 64
2, 65758, Note_off_c, 0, 59, 64
2, 65761, Note_on_c, 0, 52, 67
2, 65816, Note_on_c, 0, 69, 100
2, 65816, Control_c, 0, 64, 63
2, 65820, Control_c, 0, 64, 0
2, 65821, Note_on_c, 0, 45, 84
2, 65831, Note_off_c, 0, 52, 64
2, 65833, Note_off_c, 0, 68, 64
2, 65861, Control_c, 0, 64, 63
2, 65869, Control_c, 0, 64, 127
2, 65902, Note_on_c, 0, 52, 59
2, 65922, Note_on_c, 0, 61, 81
2, 65975, Note_off_c, 0, 52, 64
2, 65990, Note_on_c, 0, 57, 26
2, 65991, Note_off_c, 0, 61, 64
2, 66010, Note_off_c, 0, 45, 64
2, 66018, Note_on_c, 0, 67, 81
2, 66041, Note_off_c, 0, 57, 64
2, 66104, Control_c, 0, 64, 63
2, 66109, Control_c, 0, 64, 0
2, 66113, Note_off_c, 0, 67, 64
2, 66116, Note_on_c, 0, 66, 89
2, 66123, Note_on_c, 0, 38, 107
2, 66126, Note_on_c, 0, 60, 69
2, 66138, Control_c, 0, 64, 63
2, 66146, Control_c, 0, 64, 127
2, 66148, Note_off_c, 0, 69, 64
2, 66162, Note_off_c, 0, 38, 64
2, 66207, Note_on_c, 0, 50, 65
2, 66256, Note_off_c, 0, 60, 64
2, 66260, Note_off_c, 0, 50, 64
2, 66268, Note_on_c, 0, 57, 64
2, 66310, Note_off_c, 0, 66, 64
2, 66311, Note_on_c, 0, 71, 84
2, 66325, Note_off_c, 0, 57, 64
2, 66342, Note_on_c, 0, 50, 62
2, 66355, Note_on_c, 0, 69, 90
2, 66381, Note_off_c, 0, 71, 64
2, 66403, Note_off_c, 0, 69, 64
2, 66421, Note_off_c, 0, 50, 64
2, 66424, Note_on_c, 0, 43, 82
2, 66436, Note_on_c, 0, 67, 107
2, 66451, Control_c, 0, 64, 63
2, 66457, Control_c, 0, 64, 0
2, 66491, Control_c, 0, 64, 63
2, 66499, Control_c, 0, 64, 127
2, 66505, Note_on_c, 0, 50, 68
2, 66538, Note_on_c, 0, 59, 75
2, 66546, Note_off_c, 0, 43, 64
2, 66578, Note_off_c, 0, 50, 64
2, 66580, Note_on_c, 0, 55, 47
2, 66591, Note_off_c, 0, 59, 64
2, 66626, Note_on_c, 0, 66, 116
2, 66629, Note_off_c, 0, 55, 64
2, 66644, Note_on_c, 0, 50, 75
2, 66660, Note_off_c, 0, 67, 64
2, 66666, Note_off_c, 0, 50, 64
2, 66702, Note_off_c, 0, 66, 64
2, 66708, Control_c, 0, 64, 63
2, 66714, Control_c, 0, 64, 0
2, 66725, Note_on_c, 0, 37, 104
2, 66728, Note_on_c, 0, 64, 103
2, 66733, Control_c, 0, 64, 63
2, 66743, Control_c, 0, 64, 127
2, 66761, Note_off_c, 0, 37, 64
2, 66823, Note_on_c, 0, 49, 57
2, 66840, Note_on_c, 0, 58, 96
2, 66863, Note_off_c, 0, 49, 64
2, 66887, Note_on_c, 0, 54, 84
2, 66913, Note_off_c, 0, 54, 64
2, 66913, Note_off_c, 0, 58, 64
2, 66932, Note_on_c, 0, 66, 112
2, 66951, Note_off_c, 0, 64, 64
2, 66980, Note_off_c, 0, 66, 64
2, 66996, Note_on_c, 0, 36, 104
2, 67065, Note_on_c, 0, 35, 104
2, 67070, Note_on_c, 0, 59, 111
2, 67082, Note_off_c, 0, 36, 64
2, 67101, Control_c, 0, 64, 63
2, 67106, Control_c, 0, 64, 0
2, 67153, Control_c, 0, 64, 63
2, 67161, Control_c, 0, 64, 127
2, 67194, Note_on_c, 0, 42, 70
2, 67206, Note_on_c, 0, 51, 104
2, 67240, Note_off_c, 0, 35, 64
2, 67266, Note_off_c, 0, 51, 64
2, 67278, Note_off_c, 0, 42, 64
2, 67279, Note_on_c, 0, 47, 43
2, 67291, Note_on_c, 0, 57, 76
2, 67350, Note_on_c, 0, 42, 71
2, 67352, Note_off_c, 0, 47, 64
2, 67390, Note_off_c, 0, 42, 64
2, 67392, Control_c, 0, 64, 63
2, 67396, Control_c, 0, 64, 0
2, 67407, Note_on_c, 0, 55, 89
2, 67413, Note_on_c, 0, 40, 91
2, 67415, Note_off_c, 0, 57, 64
2, 67436, Control_c, 0, 64, 63
2, 67443, Control_c, 0, 64, 127
2, 67478, Note_off_c, 0, 59, 64
2, 67499, Note_off_c, 0, 55, 64
2, 67512, Note_on_c, 0, 47, 60
2, 67555, Note_off_c, 0, 40, 64
2, 67571, Note_on_c, 0, 52, 70
2, 67588, Note_off_c, 0, 47, 64
2, 67613, Note_on_c, 0, 69, 96
2, 67660, Note_on_c, 0, 47, 68
2, 67667, Note_on_c, 0, 67, 93
2, 67669, Note_off_c, 0, 52, 64
2, 67693, Note_off_c, 0, 69, 64
2, 67710, Note_off_c, 0, 67, 64
2, 67768, Note_on_c, 0, 39, 77
2, 67781, Note_off_c, 0, 47, 64
2, 67784, Note_on_c, 0, 66, 115
2, 67792, Control_c, 0, 64, 63
2, 67797, Control_c, 0, 64, 0
2, 67829, Control_c, 0, 64, 63
2, 67837, Control_c, 0, 64, 127
2, 67857, Note_on_c, 0, 47, 65
2, 67872, Note_off_c, 0, 39, 64
2, 67890, Note_on_c, 0, 57, 71
2, 67892, Note_on_c, 0, 59, 74
2, 67950, Note_off_c, 0, 47, 64
2, 67954, Note_on_c, 0, 54, 63
2, 67962, Note_off_c, 0, 57, 64
2, 67963, Note_off_c, 0, 59, 64
2, 67968, Note_off_c, 0, 66, 64
2, 67981, Note_on_c, 0, 67, 97
2, 67999, Note_off_c, 0, 54, 64
2, 68020, Note_on_c, 0, 47, 63
2, 68057, Note_off_c, 0, 67, 64
2, 68080, Note_on_c, 0, 64, 113
2, 68084, Note_on_c, 0, 40, 98
2, 68094, Note_off_c, 0, 47, 64
2, 68097, Control_c, 0, 64, 63
2, 68103, Control_c, 0, 64, 0
2, 68141, Control_c, 0, 64, 63
2, 68149, Control_c, 0, 64, 127
2, 68157, Note_on_c, 0, 47, 76
2, 68181, Note_on_c, 0, 59, 99
2, 68185, Note_on_c, 0, 55, 84
2, 68219, Note_off_c, 0, 64, 64
2, 68236, Note_off_c, 0, 55, 64
2, 68237, Note_off_c, 0, 47, 64
2, 68242, Note_on_c, 0, 52, 46
2, 68282, Note_on_c, 0, 66, 113
2, 68297, Note_off_c, 0, 59, 64
2, 68300, Note_off_c, 0, 52, 64
2, 68305, Note_on_c, 0, 47, 64
2, 68323, Note_off_c, 0, 40, 64
2, 68338, Note_off_c, 0, 66, 64
2, 68390, Note_on_c, 0, 59, 96
2, 68391, Note_on_c, 0, 40, 76
2, 68400, Note_off_c, 0, 47, 64
2, 68401, Control_c, 0, 64, 63
2, 68405, Control_c, 0, 64, 0
2, 68436, Control_c, 0, 64, 63
2, 68445, Control_c, 0, 64, 127
2, 68465, Note_on_c, 0, 47, 55
2, 68508, Note_on_c, 0, 57, 57
2, 68508, Note_on_c, 0, 54, 76
2, 68564, Note_off_c, 0, 59, 64
2, 68569, Note_on_c, 0, 51, 67
2, 68573, Note_off_c, 0, 47, 64
2, 68594, Note_off_c, 0, 54, 64
2, 68596, Note_off_c, 0, 40, 64
2, 68610, Note_on_c, 0, 59, 76
2, 68628, Note_off_c, 0, 51, 64
2, 68640, Note_on_c, 0, 47, 57
2, 68702, Control_c, 0, 64, 63
2, 68705, Note_on_c, 0, 40, 78
2, 68708, Control_c, 0, 64, 0
2, 68710, Note_on_c, 0, 55, 76
2, 68724, Note_off_c, 0, 57, 64
2, 68733, Note_off_c, 0, 47, 64
2, 68741, Control_c, 0, 64, 63
2, 68748, Control_c, 0, 64, 127
2, 68765, Note_off_c, 0, 59, 64
2, 68789, Note_on_c, 0, 47, 65
2, 68800, Note_off_c, 0, 55, 64
2, 68825, Note_off_c, 0, 40, 64
2, 68854, Note_on_c, 0, 52, 72
2, 68876, Note_off_c, 0, 47, 64
2, 68890, Note_on_c, 0, 69, 94
2, 68938, Note_on_c, 0, 67, 103
2, 68945, Note_off_c, 0, 52, 64
2, 68948, Note_on_c, 0, 47, 73
2, 68969, Note_off_c, 0, 69, 64
2, 68998, Note_off_c, 0, 67, 64
2, 69031, Note_on_c, 0, 40, 89
2, 69042, Note_on_c, 0, 66, 123
2, 69057, Note_off_c, 0, 47, 64
2, 69066, Control_c, 0, 64, 63
2, 69073, Control_c, 0, 64, 0
2, 69103, Control_c, 0, 64, 63
2, 69111, Control_c, 0, 64, 127
2, 69112, Note_on_c, 0, 47, 84
2, 69150, Note_on_c, 0, 57, 90
2, 69151, Note_on_c, 0, 59, 97
2, 69212, Note_on_c, 0, 51, 84
2, 69221, Note_off_c, 0, 59, 64
2, 69221, Note_off_c, 0, 57, 64
2, 69222, Note_off_c, 0, 47, 64
2, 69228, Note_off_c, 0, 66, 64
2, 69239, Note_on_c, 0, 67, 106
2, 69257, Note_off_c, 0, 40, 64
2, 69266, Note_off_c, 0, 51, 64
2, 69284, Note_on_c, 0, 47, 62
2, 69335, Note_off_c, 0, 67, 64
2, 69339, Note_on_c, 0, 40, 100
2, 69339, Note_on_c, 0, 64, 109
2, 69349, Note_on_c, 0, 42, 61
2, 69355, Control_c, 0, 64, 63
2, 69360, Control_c, 0, 64, 0
2, 69362, Note_off_c, 0, 47, 64
2, 69363, Note_off_c, 0, 42, 64
2, 69396, Control_c, 0, 64, 63
2, 69404, Control_c, 0, 64, 127
2, 69413, Note_on_c, 0, 47, 92
2, 69443, Note_on_c, 0, 59, 104
2, 69444, Note_on_c, 0, 55, 97
2, 69479, Note_off_c, 0, 55, 64
2, 69480, Note_off_c, 0, 64, 64
2, 69484, Note_off_c, 0, 59, 64
2, 69499, Note_off_c, 0, 40, 64
2, 69510, Note_on_c, 0, 52, 109
2, 69533, Note_off_c, 0, 47, 64
2, 69577, Note_on_c, 0, 72, 114
2, 69578, Note_on_c, 0, 60, 108
2, 69622, Note_off_c, 0, 72, 64
2, 69629, Note_off_c, 0, 60, 64
2, 69635, Note_off_c, 0, 52, 64
2, 69648, Note_on_c, 0, 47, 88
2, 69723, Note_on_c, 0, 71, 109
2, 69728, Note_on_c, 0, 66, 108
2, 69732, Note_on_c, 0, 39, 108
2, 69761, Control_c, 0, 64, 63
2, 69763, Note_off_c, 0, 47, 64
2, 69765, Control_c, 0, 64, 0
2, 69796, Control_c, 0, 64, 63
2, 69804, Control_c, 0, 64, 127
2, 69825, Note_on_c, 0, 47, 60
2, 69853, Note_off_c, 0, 39, 64
2, 69856, Note_on_c, 0, 59, 89
2, 69881, Note_off_c, 0, 66, 64
2, 69915, Note_off_c, 0, 47, 64
2, 69936, Note_on_c, 0, 54, 60
2, 69949, Note_on_c, 0, 66, 95
2, 69980, Note_off_c, 0, 54, 64
2, 70001, Note_on_c, 0, 47, 76
2, 70007, Note_off_c, 0, 59, 64
2, 70041, Note_off_c, 0, 47, 64
2, 70061, Note_on_c, 0, 59, 91
2, 70064, Note_on_c, 0, 38, 117
2, 70064, Control_c, 0, 64, 63
2, 70068, Control_c, 0, 64, 0
2, 70080, Note_off_c, 0, 66, 64
2, 70098, Control_c, 0, 64, 63
2, 70104, Control_c, 0, 64, 127
2, 70131, Note_off_c, 0, 38, 64
2, 70160, Note_on_c, 0, 44, 59
2, 70172, Note_on_c, 0, 65, 66
2, 70181, Note_off_c, 0, 44, 64
2, 70199, Note_off_c, 0, 59, 64
2, 70242, Note_on_c, 0, 53, 70
2, 70259, Note_on_c, 0, 59, 69
2, 70264, Note_off_c, 0, 71, 64
2, 70281, Note_off_c, 0, 65, 64
2, 70295, Note_off_c, 0, 53, 64
2, 70310, Note_on_c, 0, 44, 72
2, 70322, Note_off_c, 0, 59, 64
2, 70352, Note_off_c, 0, 44, 64
2, 70354, Note_on_c, 0, 70, 112
2, 70357, Note_on_c, 0, 64, 96
2, 70365, Note_on_c, 0, 37, 104
2, 70370, Control_c, 0, 64, 63
2, 70375, Control_c, 0, 64, 0
2, 70403, Control_c, 0, 64, 63
2, 70411, Control_c, 0, 64, 127
2, 70430, Note_off_c, 0, 37, 64
2, 70439, Note_on_c, 0, 40, 84
2, 70457, Note_on_c, 0, 58, 82
2, 70480, Note_off_c, 0, 64, 64
2, 70493, Note_off_c, 0, 40, 64
2, 70524, Note_off_c, 0, 58, 64
2, 70532, Note_on_c, 0, 52, 60
2, 70545, Note_off_c, 0, 70, 64
2, 70546, Note_on_c, 0, 64, 91
2, 70575, Note_off_c, 0, 52, 64
2, 70580, Note_on_c, 0, 40, 82
2, 70645, Note_on_c, 0, 69, 104
2, 70645, Note_on_c, 0, 57, 99
2, 70649, Note_on_c, 0, 36, 111
2, 70656, Control_c, 0, 64, 63
2, 70661, Control_c, 0, 64, 0
2, 70669, Note_off_c, 0, 64, 64
2, 70674, Note_off_c, 0, 40, 64
2, 70690, Control_c, 0, 64, 63
2, 70698, Control_c, 0, 64, 127
2, 70720, Note_on_c, 0, 40, 96
2, 70738, Note_off_c, 0, 36, 64
2, 70741, Note_on_c, 0, 64, 96
2, 70765, Note_off_c, 0, 57, 64
2, 70792, Note_off_c, 0, 40, 64
2, 70799, Note_off_c, 0, 69, 64
2, 70825, Note_off_c, 0, 64, 64
2, 70826, Note_on_c, 0, 52, 87
2, 70827, Note_on_c, 0, 57, 93
2, 70861, Note_off_c, 0, 57, 64
2, 70868, Note_off_c, 0, 52, 64
2, 70873, Note_on_c, 0, 40, 85
2, 70921, Note_on_c, 0, 68, 113
2, 70924, Note_on_c, 0, 64, 103
2, 70925, Control_c, 0, 64, 63
2, 70927, Note_off_c, 0, 40, 64
2, 70929, Control_c, 0, 64, 0
2, 70938, Note_on_c, 0, 35, 106
2, 70964, Control_c, 0, 64, 63
2, 70970, Control_c, 0, 64, 127
2, 70996, Note_off_c, 0, 35, 64
2, 71019, Note_on_c, 0, 40, 61
2, 71022, Note_on_c, 0, 41, 67
2, 71024, Note_on_c, 0, 56, 105
2, 71046, Note_off_c, 0, 64, 64
2, 71059, Note_off_c, 0, 41, 64
2, 71064, Note_off_c, 0, 40, 64
2, 71074, Note_off_c, 0, 56, 64
2, 71084, Note_off_c, 0, 68, 64
2, 71107, Note_on_c, 0, 64, 107
2, 71107, Note_on_c, 0, 52, 89
2, 71142, Note_off_c, 0, 52, 64
2, 71159, Note_on_c, 0, 39, 81
2, 71182, Note_off_c, 0, 39, 64
2, 71210, Note_on_c, 0, 67, 111
2, 71211, Note_on_c, 0, 55, 104
2, 71218, Note_on_c, 0, 34, 105
2, 71227, Control_c, 0, 64, 63
2, 71230, Note_off_c, 0, 64, 64
2, 71233, Control_c, 0, 64, 0
2, 71266, Control_c, 0, 64, 63
2, 71274, Control_c, 0, 64, 127
2, 71278, Note_on_c, 0, 40, 80
2, 71284, Note_off_c, 0, 34, 64
2, 71312, Note_on_c, 0, 60, 108
2, 71333, Note_off_c, 0, 55, 64
2, 71356, Note_off_c, 0, 40, 64
2, 71378, Note_on_c, 0, 48, 32
2, 71381, Note_off_c, 0, 67, 64
2, 71400, Note_on_c, 0, 55, 82
2, 71408, Note_off_c, 0, 60, 64
2, 71426, Note_off_c, 0, 48, 64
2, 71433, Note_on_c, 0, 40, 63
2, 71441, Note_off_c, 0, 55, 64
2, 71479, Note_off_c, 0, 40, 64
2, 71487, Note_on_c, 0, 64, 107
2, 71488, Note_on_c, 0, 33, 116
2, 71490, Note_on_c, 0, 60, 108
2, 71496, Control_c, 0, 64, 63
2, 71502, Control_c, 0, 64, 0
2, 71529, Control_c, 0, 64, 63
2, 71538, Control_c, 0, 64, 127
2, 71575, Note_on_c, 0, 41, 54
2, 71584, Note_off_c, 0, 33, 64
2, 71596, Note_on_c, 0, 52, 84
2, 71612, Note_off_c, 0, 60, 64
2, 71621, Note_off_c, 0, 64, 64
2, 71636, Note_off_c, 0, 52, 64
2, 71645, Note_on_c, 0, 48, 84
2, 71655, Note_off_c, 0, 41, 64
2, 71694, Note_on_c, 0, 65, 109
2, 71695, Note_on_c, 0, 60, 103
2, 71695, Note_on_c, 0, 53, 102
2, 71719, Note_off_c, 0, 53, 64
2, 71725, Note_off_c, 0, 60, 64
2, 71735, Note_off_c, 0, 48, 64
2, 71736, Note_off_c, 0, 65, 64
2, 71736, Note_on_c, 0, 41, 73
2, 71809, Note_off_c, 0, 41, 64
2, 71809, Note_on_c, 0, 69, 99
2, 71811, Note_on_c, 0, 35, 107
2, 71812, Note_on_c, 0, 57, 88
2, 71817, Control_c, 0, 64, 63
2, 71822, Control_c, 0, 64, 0
2, 71853, Control_c, 0, 64, 63
2, 71861, Control_c, 0, 64, 127
2, 71892, Note_off_c, 0, 69, 64
2, 71913, Note_on_c, 0, 42, 66
2, 71924, Note_off_c, 0, 57, 64
2, 71925, Note_on_c, 0, 59, 56
2, 71950, Note_off_c, 0, 59, 64
2, 71950, Note_off_c, 0, 35, 64
2, 72052, Note_off_c, 0, 42, 64
2, 72061, Note_on_c, 0, 63, 106
2, 72064, Note_on_c, 0, 51, 92
2, 72066, Note_on_c, 0, 47, 50
2, 72085, Note_off_c, 0, 51, 64
2, 72098, Note_off_c, 0, 47, 64
2, 72115, Note_off_c, 0, 63, 64
2, 72217, Control_c, 0, 64, 63
2, 72218, Note_on_c, 0, 64, 96
2, 72219, Note_on_c, 0, 28, 106
2, 72221, Note_on_c, 0, 52, 84
2, 72224, Control_c, 0, 64, 0
2, 72236, Control_c, 0, 67, 0
2, 72263, Control_c, 0, 64, 63
2, 72267, Control_c, 0, 64, 127
2, 72271, Note_off_c, 0, 28, 64
2, 72290, Note_off_c, 0, 52, 64
2, 72345, Note_off_c, 0, 64, 64
2, 72411, Note_on_c, 0, 55, 57
2, 72494, Note_off_c, 0, 55, 64
2, 72513, Note_on_c, 0, 47, 53
2, 72533, Note_on_c, 0, 71, 93
2, 72538, Note_on_c, 0, 59, 62
2, 72575, Note_off_c, 0, 59, 64
2, 72596, Note_off_c, 0, 71, 64
2, 72616, Note_on_c, 0, 40, 96
2, 72643, Note_off_c, 0, 47, 64
2, 72650, Note_on_c, 0, 72, 99
2, 72656, Note_on_c, 0, 60, 69
2, 72670, Control_c, 0, 64, 63
2, 72674, Control_c, 0, 64, 0
2, 72708, Control_c, 0, 64, 63
2, 72714, Control_c, 0, 64, 127
2, 72751, Note_off_c, 0, 60, 64
2, 72753, Note_off_c, 0, 40, 64
2, 72757, Note_on_c, 0, 48, 61
2, 72763, Note_on_c, 0, 69, 75
2, 72767, Note_on_c, 0, 66, 84
2, 72783, Note_off_c, 0, 72, 64
2, 72798, Note_off_c, 0, 66, 64
2, 72803, Note_off_c, 0, 69, 64
2, 72817, Note_off_c, 0, 48, 64
2, 72821, Note_on_c, 0, 57, 81
2, 72863, Note_on_c, 0, 75, 107
2, 72865, Note_on_c, 0, 63, 100
2, 72876, Note_off_c, 0, 57, 64
2, 72886, Note_off_c, 0, 63, 64
2, 72897, Note_on_c, 0, 48, 74
2, 72899, Note_off_c, 0, 75, 64
2, 72944, Note_off_c, 0, 48, 64
2, 72969, Note_on_c, 0, 40, 106
2, 72972, Note_on_c, 0, 76, 99
2, 72975, Note_on_c, 0, 64, 85
2, 72994, Control_c, 0, 64, 63
2, 72998, Control_c, 0, 64, 0
2, 73027, Control_c, 0, 64, 63
2, 73035, Control_c, 0, 64, 127
2, 73046, Note_on_c, 0, 47, 80
2, 73070, Note_off_c, 0, 40, 64
2, 73078, Note_on_c, 0, 67, 82
2, 73084, Note_off_c, 0, 76, 64
2, 73094, Note_off_c, 0, 64, 64
2, 73114, Note_off_c, 0, 47, 64
2, 73123, Note_off_c, 0, 67, 64
2, 73127, Note_on_c, 0, 55, 79
2, 73167, Note_on_c, 0, 71, 103
2, 73168, Note_on_c, 0, 59, 100
2, 73193, Note_off_c, 0, 55, 64
2, 73194, Note_off_c, 0, 59, 64
2, 73195, Note_on_c, 0, 47, 91
2, 73203, Note_off_c, 0, 71, 64
2, 73263, Note_on_c, 0, 40, 103
2, 73266, Note_on_c, 0, 72, 101
2, 73267, Note_on_c, 0, 60, 92
2, 73283, Note_off_c, 0, 47, 64
2, 73290, Control_c, 0, 64, 63
2, 73294, Control_c, 0, 64, 0
2, 73329, Control_c, 0, 64, 63
2, 73335, Control_c, 0, 64, 127
2, 73344, Note_on_c, 0, 48, 90
2, 73358, Note_off_c, 0, 40, 64
2, 73371, Note_on_c, 0, 69, 81
2, 73372, Note_on_c, 0, 66, 91
2, 73377, Note_off_c, 0, 60, 64
2, 73393, Note_off_c, 0, 72, 64
2, 73412, Note_off_c, 0, 66, 64
2, 73417, Note_off_c, 0, 48, 64
2, 73420, Note_off_c, 0, 69, 64
2, 73426, Note_on_c, 0, 57, 74
2, 73454, Note_on_c, 0, 63, 106
2, 73455, Note_on_c, 0, 75, 105
2, 73471, Note_off_c, 0, 63, 64
2, 73477, Note_off_c, 0, 57, 64
2, 73483, Note_off_c, 0, 75, 64
2, 73498, Note_on_c, 0, 48, 65
2, 73548, Note_off_c, 0, 48, 64
2, 73563, Note_on_c, 0, 76, 108
2, 73565, Note_on_c, 0, 64, 98
2, 73567, Note_on_c, 0, 40, 106
2, 73589, Control_c, 0, 64, 63
2, 73595, Control_c, 0, 64, 0
2, 73625, Control_c, 0, 64, 63
2, 73632, Control_c, 0, 64, 127
2, 73638, Note_on_c, 0, 47, 79
2, 73661, Note_on_c, 0, 71, 65
2, 73664, Note_on_c, 0, 67, 66
2, 73666, Note_off_c, 0, 40, 64
2, 73703, Note_off_c, 0, 64, 64
2, 73704, Note_off_c, 0, 76, 64
2, 73708, Note_off_c, 0, 47, 64
2, 73722, Note_on_c, 0, 55, 75
2, 73736, Note_off_c, 0, 67, 64
2, 73741, Note_off_c, 0, 71, 64
2, 73748, Note_on_c, 0, 76, 111
2, 73752, Note_on_c, 0, 64, 106
2, 73800, Note_on_c, 0, 47, 87
2, 73825, Note_off_c, 0, 55, 64
2, 73850, Control_c, 0, 64, 63
2, 73853, Control_c, 0, 64, 0
2, 73854, Note_on_c, 0, 72, 99
2, 73857, Note_on_c, 0, 69, 89
2, 73859, Note_on_c, 0, 45, 103
2, 73880, Control_c, 0, 64, 63
2, 73881, Note_off_c, 0, 47, 64
2, 73887, Control_c, 0, 64, 127
2, 73892, Note_off_c, 0, 76, 64
2, 73910, Note_off_c, 0, 64, 64
2, 73929, Note_off_c, 0, 69, 64
2, 73932, Note_off_c, 0, 72, 64
2, 73950, Note_on_c, 0, 48, 90
2, 73958, Note_on_c, 0, 75, 109
2, 73959, Note_on_c, 0, 63, 113
2, 73962, Note_off_c, 0, 45, 64
2, 73980, Note_off_c, 0, 63, 64
2, 73993, Note_off_c, 0, 75, 64
2, 74004, Note_off_c, 0, 48, 64
2, 74049, Note_on_c, 0, 60, 60
2, 74065, Note_on_c, 0, 76, 98
2, 74069, Note_on_c, 0, 64, 61
2, 74079, Note_off_c, 0, 76, 64
2, 74087, Note_off_c, 0, 64, 64
2, 74088, Note_off_c, 0, 60, 64
2, 74105, Note_on_c, 0, 48, 91
2, 74169, Note_off_c, 0, 48, 64
2, 74170, Note_on_c, 0, 79, 104
2, 74172, Note_on_c, 0, 67, 93
2, 74177, Note_on_c, 0, 43, 104
2, 74187, Control_c, 0, 64, 63
2, 74191, Control_c, 0, 64, 0
2, 74224, Control_c, 0, 64, 63
2, 74230, Control_c, 0, 64, 127
2, 74266, Note_on_c, 0, 50, 73
2, 74292, Note_on_c, 0, 74, 72
2, 74294, Note_off_c, 0, 43, 64
2, 74295, Note_on_c, 0, 71, 69
2, 74336, Note_off_c, 0, 50, 64
2, 74344, Note_off_c, 0, 67, 64
2, 74348, Note_on_c, 0, 59, 77
2, 74393, Note_on_c, 0, 67, 84
2, 74396, Note_off_c, 0, 74, 64
2, 74406, Note_off_c, 0, 71, 64
2, 74421, Note_on_c, 0, 50, 81
2, 74441, Note_off_c, 0, 59, 64
2, 74479, Note_off_c, 0, 50, 64
2, 74480, Note_on_c, 0, 48, 103
2, 74489, Note_on_c, 0, 75, 91
2, 74493, Note_on_c, 0, 72, 83
2, 74507, Control_c, 0, 64, 63
2, 74511, Control_c, 0, 64, 0
2, 74531, Note_off_c, 0, 67, 64
2, 74545, Control_c, 0, 64, 63
2, 74551, Control_c, 0, 64, 127
2, 74561, Note_on_c, 0, 51, 89
2, 74591, Note_on_c, 0, 67, 90
2, 74621, Note_off_c, 0, 75, 64
2, 74622, Note_off_c, 0, 72, 64
2, 74637, Note_on_c, 0, 60, 87
2, 74643, Note_off_c, 0, 51, 64
2, 74677, Note_off_c, 0, 48, 64
2, 74682, Note_on_c, 0, 75, 90
2, 74685, Note_on_c, 0, 72, 78
2, 74706, Note_off_c, 0, 60, 64
2, 74708, Note_on_c, 0, 51, 87
2, 74729, Note_off_c, 0, 67, 64
2, 74747, Note_off_c, 0, 51, 64
2, 74773, Note_on_c, 0, 43, 117
2, 74774, Control_c, 0, 64, 63
2, 74777, Note_on_c, 0, 67, 89
2, 74777, Control_c, 0, 64, 0
2, 74786, Note_off_c, 0, 72, 64
2, 74806, Note_off_c, 0, 75, 64
2, 74808, Control_c, 0, 64, 63
2, 74814, Control_c, 0, 64, 127
2, 74865, Note_on_c, 0, 50, 34
2, 74871, Note_off_c, 0, 43, 64
2, 74873, Note_on_c, 0, 74, 68
2, 74874, Note_on_c, 0, 71, 59
2, 74878, Note_off_c, 0, 79, 64
2, 74887, Note_off_c, 0, 67, 64
2, 74913, Note_off_c, 0, 74, 64
2, 74919, Note_off_c, 0, 71, 64
2, 74934, Note_off_c, 0, 50, 64
2, 74934, Note_on_c, 0, 59, 82
2, 74971, Note_on_c, 0, 62, 96
2, 74972, Note_on_c, 0, 74, 107
2, 74992, Note_off_c, 0, 62, 64
2, 74994, Note_off_c, 0, 59, 64
2, 74996, Note_off_c, 0, 74, 64
2, 75001, Note_on_c, 0, 50, 84
2, 75060, Note_on_c, 0, 43, 96
2, 75066, Note_off_c, 0, 50, 64
2, 75070, Note_on_c, 0, 75, 108
2, 75073, Note_on_c, 0, 63, 109
2, 75081, Control_c, 0, 64, 63
2, 75085, Control_c, 0, 64, 0
2, 75108, Control_c, 0, 64, 63
2, 75116, Control_c, 0, 64, 127
2, 75146, Note_on_c, 0, 51, 82
2, 75154, Note_off_c, 0, 43, 64
2, 75176, Note_on_c, 0, 72, 76
2, 75178, Note_on_c, 0, 69, 58
2, 75185, Note_off_c, 0, 63, 64
2, 75199, Note_off_c, 0, 75, 64
2, 75203, Note_off_c, 0, 51, 64
2, 75204, Note_off_c, 0, 69, 64
2, 75220, Note_on_c, 0, 60, 88
2, 75223, Note_off_c, 0, 72, 64
2, 75271, Note_on_c, 0, 78, 109
2, 75274, Note_on_c, 0, 66, 84
2, 75279, Note_off_c, 0, 60, 64
2, 75289, Note_off_c, 0, 66, 64
2, 75298, Note_off_c, 0, 78, 64
2, 75306, Note_on_c, 0, 51, 84
2, 75368, Note_off_c, 0, 51, 64
2, 75375, Note_on_c, 0, 79, 106
2, 75378, Note_on_c, 0, 43, 109
2, 75378, Note_on_c, 0, 67, 99
2, 75385, Control_c, 0, 64, 63
2, 75390, Control_c, 0, 64, 0
2, 75416, Control_c, 0, 64, 63
2, 75424, Control_c, 0, 64, 127
2, 75450, Note_on_c, 0, 50, 80
2, 75472, Note_off_c, 0, 43, 64
2, 75472, Note_on_c, 0, 74, 68
2, 75475, Note_on_c, 0, 71, 67
2, 75491, Note_off_c, 0, 79, 64
2, 75504, Note_off_c, 0, 67, 64
2, 75514, Note_off_c, 0, 50, 64
2, 75518, Note_off_c, 0, 74, 64
2, 75521, Note_off_c, 0, 71, 64
2, 75528, Note_on_c, 0, 59, 71
2, 75564, Note_on_c, 0, 74, 103
2, 75567, Note_on_c, 0, 62, 76
2, 75581, Note_off_c, 0, 62, 64
2, 75585, Note_off_c, 0, 74, 64
2, 75586, Note_off_c, 0, 59, 64
2, 75593, Note_on_c, 0, 50, 82
2, 75651, Note_on_c, 0, 43, 103
2, 75661, Note_on_c, 0, 75, 110
2, 75664, Note_off_c, 0, 50, 64
2, 75666, Note_on_c, 0, 63, 103
2, 75675, Control_c, 0, 64, 63
2, 75680, Control_c, 0, 64, 0
2, 75703, Control_c, 0, 64, 63
2, 75712, Control_c, 0, 64, 127
2, 75738, Note_on_c, 0, 51, 85
2, 75749, Note_off_c, 0, 43, 64
2, 75762, Note_on_c, 0, 72, 73
2, 75765, Note_on_c, 0, 69, 57
2, 75777, Note_off_c, 0, 63, 64
2, 75791, Note_off_c, 0, 75, 64
2, 75799, Note_off_c, 0, 69, 64
2, 75802, Note_off_c, 0, 51, 64
2, 75811, Note_off_c, 0, 72, 64
2, 75824, Note_on_c, 0, 60, 44
2, 75846, Note_on_c, 0, 78, 112
2, 75848, Note_on_c, 0, 66, 106
2, 75871, Note_off_c, 0, 66, 64
2, 75875, Note_off_c, 0, 60, 64
2, 75882, Note_off_c, 0, 78, 64
2, 75895, Note_on_c, 0, 51, 93
2, 75952, Note_off_c, 0, 51, 64
2, 75963, Note_on_c, 0, 43, 103
2, 75965, Note_on_c, 0, 79, 104
2, 75968, Note_on_c, 0, 67, 84
2, 75988, Control_c, 0, 64, 63
2, 75993, Control_c, 0, 64, 0
2, 76023, Control_c, 0, 64, 63
2, 76031, Control_c, 0, 64, 127
2, 76046, Note_on_c, 0, 50, 68
2, 76063, Note_off_c, 0, 43, 64
2, 76078, Note_on_c, 0, 74, 57
2, 76079, Note_on_c, 0, 71, 59
2, 76103, Note_off_c, 0, 50, 64
2, 76118, Note_off_c, 0, 67, 64
2, 76121, Note_on_c, 0, 59, 65
2, 76137, Note_off_c, 0, 79, 64
2, 76154, Note_off_c, 0, 71, 64
2, 76160, Note_off_c, 0, 74, 64
2, 76168, Note_on_c, 0, 79, 104
2, 76173, Note_on_c, 0, 67, 96
2, 76195, Note_on_c, 0, 50, 86
2, 76207, Note_off_c, 0, 59, 64
2, 76256, Control_c, 0, 64, 63
2, 76258, Control_c, 0, 64, 0
2, 76265, Note_on_c, 0, 48, 106
2, 76270, Note_on_c, 0, 76, 101
2, 76271, Note_on_c, 0, 72, 96
2, 76288, Control_c, 0, 64, 63
2, 76292, Note_off_c, 0, 50, 64
2, 76293, Control_c, 0, 64, 127
2, 76299, Note_off_c, 0, 79, 64
2, 76317, Note_off_c, 0, 67, 64
2, 76332, Note_off_c, 0, 72, 64
2, 76335, Note_off_c, 0, 76, 64
2, 76354, Note_on_c, 0, 52, 85
2, 76368, Note_off_c, 0, 48, 64
2, 76374, Note_on_c, 0, 66, 114
2, 76374, Note_on_c, 0, 78, 107
2, 76394, Note_off_c, 0, 66, 64
2, 76396, Note_off_c, 0, 78, 64
2, 76399, Note_off_c, 0, 52, 64
2, 76436, Note_on_c, 0, 64, 71
2, 76479, Note_on_c, 0, 67, 101
2, 76480, Note_on_c, 0, 79, 102
2, 76484, Note_off_c, 0, 64, 64
2, 76497, Note_off_c, 0, 67, 64
2, 76507, Note_off_c, 0, 79, 64
2, 76510, Note_on_c, 0, 52, 78
2, 76580, Note_off_c, 0, 52, 64
2, 76597, Note_on_c, 0, 47, 116
2, 76598, Note_on_c, 0, 83, 101
2, 76599, Note_on_c, 0, 71, 104
2, 76600, Control_c, 0, 64, 63
2, 76604, Control_c, 0, 64, 0
2, 76632, Control_c, 0, 64, 63
2, 76638, Control_c, 0, 64, 127
2, 76701, Note_off_c, 0, 47, 64
2, 76707, Note_on_c, 0, 54, 88
2, 76720, Note_on_c, 0, 78, 84
2, 76724, Note_on_c, 0, 75, 76
2, 76748, Note_off_c, 0, 54, 64
2, 76756, Note_off_c, 0, 71, 64
2, 76782, Note_on_c, 0, 63, 91
2, 76812, Note_on_c, 0, 71, 82
2, 76821, Note_off_c, 0, 78, 64
2, 76836, Note_off_c, 0, 75, 64
2, 76841, Note_off_c, 0, 63, 64
2, 76843, Note_on_c, 0, 54, 92
2, 76909, Note_on_c, 0, 52, 114
2, 76916, Note_on_c, 0, 79, 91
2, 76918, Note_on_c, 0, 76, 93
2, 76922, Control_c, 0, 64, 63
2, 76925, Note_off_c, 0, 54, 64
2, 76925, Control_c, 0, 64, 0
2, 76940, Note_off_c, 0, 71, 64
2, 76956, Control_c, 0, 64, 63
2, 76963, Control_c, 0, 64, 127
2, 77004, Note_on_c, 0, 55, 75
2, 77019, Note_off_c, 0, 52, 64
2, 77041, Note_on_c, 0, 71, 84
2, 77061, Note_off_c, 0, 55, 64
2, 77062, Note_off_c, 0, 79, 64
2, 77067, Note_off_c, 0, 76, 64
2, 77089, Note_on_c, 0, 67, 80
2, 77133, Note_on_c, 0, 79, 82
2, 77136, Note_on_c, 0, 76, 84
2, 77137, Note_off_c, 0, 67, 64
2, 77151, Note_on_c, 0, 55, 71
2, 77164, Note_off_c, 0, 71, 64
2, 77190, Note_off_c, 0, 55, 64
2, 77219, Control_c, 0, 64, 63
2, 77222, Control_c, 0, 64, 0
2, 77224, Note_on_c, 0, 51, 113
2, 77225, Note_off_c, 0, 76, 64
2, 77226, Note_off_c, 0, 79, 64
2, 77232, Note_on_c, 0, 71, 91
2, 77249, Control_c, 0, 64, 63
2, 77257, Control_c, 0, 64, 127
2, 77317, Note_off_c, 0, 51, 64
2, 77318, Note_off_c, 0, 83, 64
2, 77320, Note_on_c, 0, 59, 47
2, 77324, Note_off_c, 0, 71, 64
2, 77324, Note_on_c, 0, 78, 80
2, 77326, Note_on_c, 0, 75, 72
2, 77348, Note_off_c, 0, 75, 64
2, 77357, Note_off_c, 0, 78, 64
2, 77375, Note_off_c, 0, 59, 64
2, 77380, Note_on_c, 0, 66, 80
2, 77415, Note_off_c, 0, 66, 64
2, 77423, Note_on_c, 0, 78, 110
2, 77424, Note_on_c, 0, 66, 95
2, 77439, Note_on_c, 0, 68, 29
2, 77448, Note_off_c, 0, 66, 64
2, 77452, Note_off_c, 0, 68, 64
2, 77457, Note_on_c, 0, 59, 78
2, 77458, Note_off_c, 0, 78, 64
2, 77501, Note_off_c, 0, 59, 64
2, 77533, Note_on_c, 0, 79, 101
2, 77534, Note_on_c, 0, 50, 102
2, 77537, Control_c, 0, 64, 63
2, 77537, Note_on_c, 0, 67, 94
2, 77541, Control_c, 0, 64, 0
2, 77567, Control_c, 0, 64, 63
2, 77574, Control_c, 0, 64, 127
2, 77611, Note_off_c, 0, 79, 64
2, 77617, Note_off_c, 0, 67, 64
2, 77618, Note_on_c, 0, 52, 85
2, 77634, Note_on_c, 0, 76, 71
2, 77636, Note_off_c, 0, 50, 64
2, 77638, Note_on_c, 0, 71, 63
2, 77664, Note_off_c, 0, 71, 64
2, 77671, Note_off_c, 0, 52, 64
2, 77684, Note_off_c, 0, 76, 64
2, 77690, Note_on_c, 0, 64, 78
2, 77723, Note_on_c, 0, 80, 107
2, 77724, Note_on_c, 0, 68, 107
2, 77740, Note_off_c, 0, 64, 64
2, 77748, Note_off_c, 0, 68, 64
2, 77755, Note_on_c, 0, 52, 85
2, 77761, Note_off_c, 0, 80, 64
2, 77838, Note_on_c, 0, 49, 90
2, 77839, Note_on_c, 0, 81, 109
2, 77841, Note_on_c, 0, 69, 102
2, 77845, Note_off_c, 0, 52, 64
2, 77865, Control_c, 0, 64, 63
2, 77870, Control_c, 0, 64, 0
2, 77888, Control_c, 0, 64, 63
2, 77897, Control_c, 0, 64, 127
2, 77947, Note_on_c, 0, 52, 68
2, 77955, Note_on_c, 0, 76, 73
2, 77958, Note_on_c, 0, 73, 72
2, 77966, Note_off_c, 0, 49, 64
2, 77988, Note_off_c, 0, 69, 64
2, 78000, Note_off_c, 0, 52, 64
2, 78034, Note_on_c, 0, 64, 74
2, 78043, Note_on_c, 0, 69, 90
2, 78047, Note_off_c, 0, 76, 64
2, 78062, Note_off_c, 0, 64, 64
2, 78063, Note_off_c, 0, 73, 64
2, 78084, Note_on_c, 0, 52, 91
2, 78143, Control_c, 0, 64, 63
2, 78149, Control_c, 0, 64, 0
2, 78149, Note_on_c, 0, 78, 95
2, 78151, Note_on_c, 0, 48, 96
2, 78151, Note_on_c, 0, 74, 93
2, 78157, Note_off_c, 0, 52, 64
2, 78168, Control_c, 0, 64, 63
2, 78179, Control_c, 0, 64, 127
2, 78212, Note_off_c, 0, 69, 64
2, 78213, Note_off_c, 0, 81, 64
2, 78219, Note_off_c, 0, 74, 64
2, 78224, Note_off_c, 0, 48, 64
2, 78225, Note_off_c, 0, 78, 64
2, 78227, Note_on_c, 0, 54, 89
2, 78282, Note_off_c, 0, 54, 64
2, 78291, Note_on_c, 0, 62, 81
2, 78321, Note_on_c, 0, 83, 92
2, 78321, Note_on_c, 0, 71, 101
2, 78344, Note_off_c, 0, 83, 64
2, 78345, Note_off_c, 0, 71, 64
2, 78371, Note_off_c, 0, 62, 64
2, 78375, Note_on_c, 0, 81, 91
2, 78383, Note_on_c, 0, 54, 83
2, 78403, Note_off_c, 0, 81, 64
2, 78419, Note_off_c, 0, 54, 64
2, 78466, Note_on_c, 0, 79, 100
2, 78469, Note_on_c, 0, 67, 93
2, 78471, Note_on_c, 0, 47, 102
2, 78499, Control_c, 0, 64, 127
2, 78519, Control_c, 0, 64, 63
2, 78525, Control_c, 0, 64, 0
2, 78550, Control_c, 0, 64, 63
2, 78551, Control_c, 0, 64, 127
2, 78554, Note_on_c, 0, 55, 62
2, 78563, Note_on_c, 0, 74, 86
2, 78565, Note_on_c, 0, 71, 82
2, 78606, Note_off_c, 0, 47, 64
2, 78609, Note_off_c, 0, 79, 64
2, 78622, Note_off_c, 0, 67, 64
2, 78641, Note_off_c, 0, 71, 64
2, 78641, Note_off_c, 0, 74, 64
2, 78646, Note_on_c, 0, 62, 81
2, 78654, Note_off_c, 0, 55, 64
2, 78658, Note_on_c, 0, 66, 115
2, 78659, Note_on_c, 0, 78, 114
2, 78681, Note_off_c, 0, 66, 64
2, 78685, Note_off_c, 0, 78, 64
2, 78690, Note_off_c, 0, 62, 64
2, 78706, Note_on_c, 0, 55, 76
2, 78766, Note_on_c, 0, 47, 100
2, 78771, Note_on_c, 0, 76, 100
2, 78772, Note_on_c, 0, 64, 92
2, 78785, Control_c, 0, 64, 63
2, 78786, Note_off_c, 0, 55, 64
2, 78788, Control_c, 0, 64, 0
2, 78809, Control_c, 0, 64, 63
2, 78813, Control_c, 0, 64, 127
2, 78852, Note_off_c, 0, 47, 64
2, 78854, Note_on_c, 0, 55, 52
2, 78858, Note_off_c, 0, 76, 64
2, 78875, Note_off_c, 0, 64, 64
2, 78876, Note_on_c, 0, 67, 90
2, 78882, Note_on_c, 0, 73, 108
2, 78895, Note_off_c, 0, 67, 64
2, 78914, Note_off_c, 0, 73, 64
2, 78924, Note_off_c, 0, 55, 64
2, 78927, Note_on_c, 0, 61, 91
2, 78953, Note_off_c, 0, 61, 64
2, 78964, Note_on_c, 0, 78, 107
2, 78966, Note_on_c, 0, 66, 116
2, 78986, Note_off_c, 0, 66, 64
2, 78988, Note_off_c, 0, 78, 64
2, 79005, Note_on_c, 0, 46, 80
2, 79082, Note_on_c, 0, 45, 79
2, 79090, Note_off_c, 0, 46, 64
2, 79098, Note_on_c, 0, 71, 110
2, 79100, Note_on_c, 0, 59, 110
2, 79133, Control_c, 0, 64, 63
2, 79134, Control_c, 0, 64, 0
2, 79168, Control_c, 0, 64, 63
2, 79172, Control_c, 0, 64, 127
2, 79202, Note_off_c, 0, 45, 64
2, 79203, Note_on_c, 0, 54, 57
2, 79205, Note_on_c, 0, 63, 84
2, 79207, Note_on_c, 0, 66, 89
2, 79212, Note_off_c, 0, 59, 64
2, 79246, Note_off_c, 0, 63, 64
2, 79270, Note_off_c, 0, 54, 64
2, 79297, Note_off_c, 0, 66, 64
2, 79305, Note_on_c, 0, 59, 104
2, 79318, Note_on_c, 0, 54, 63
2, 79337, Note_off_c, 0, 54, 64
2, 79358, Note_off_c, 0, 59, 64
2, 79392, Control_c, 0, 64, 63
2, 79394, Control_c, 0, 64, 0
2, 79402, Note_on_c, 0, 67, 80
2, 79406, Note_on_c, 0, 64, 78
2, 79408, Note_on_c, 0, 59, 11
2, 79411, Note_on_c, 0, 43, 76
2, 79421, Control_c, 0, 64, 63
2, 79427, Control_c, 0, 64, 127
2, 79447, Note_off_c, 0, 59, 64
2, 79461, Note_off_c, 0, 64, 64
2, 79468, Note_off_c, 0, 67, 64
2, 79469, Note_off_c, 0, 71, 64
2, 79495, Note_off_c, 0, 43, 64
2, 79511, Note_on_c, 0, 52, 64
2, 79566, Note_off_c, 0, 52, 64
2, 79568, Note_on_c, 0, 59, 73
2, 79583, Note_on_c, 0, 81, 106
2, 79585, Note_on_c, 0, 69, 99
2, 79603, Note_off_c, 0, 69, 64
2, 79604, Note_off_c, 0, 81, 64
2, 79618, Note_off_c, 0, 59, 64
2, 79639, Note_on_c, 0, 67, 90
2, 79640, Note_on_c, 0, 79, 90
2, 79656, Note_off_c, 0, 67, 64
2, 79660, Note_off_c, 0, 79, 64
2, 79668, Note_on_c, 0, 52, 65
2, 79683, Note_off_c, 0, 52, 64
2, 79769, Note_on_c, 0, 78, 94
2, 79774, Note_on_c, 0, 66, 80
2, 79775, Note_on_c, 0, 39, 74
2, 79776, Control_c, 0, 64, 63
2, 79780, Control_c, 0, 64, 0
2, 79807, Control_c, 0, 64, 63
2, 79812, Control_c, 0, 64, 127
2, 79829, Note_off_c, 0, 78, 64
2, 79841, Note_off_c, 0, 66, 64
2, 79852, Note_off_c, 0, 39, 64
2, 79864, Note_on_c, 0, 47, 57
2, 79876, Note_on_c, 0, 71, 70
2, 79879, Note_on_c, 0, 69, 65
2, 79895, Note_off_c, 0, 69, 64
2, 79899, Note_off_c, 0, 71, 64
2, 79900, Note_off_c, 0, 47, 64
2, 79934, Note_on_c, 0, 57, 69
2, 79982, Note_off_c, 0, 57, 64
2, 79983, Note_on_c, 0, 79, 97
2, 79986, Note_on_c, 0, 67, 75
2, 80001, Note_off_c, 0, 79, 64
2, 80006, Note_off_c, 0, 67, 64
2, 80012, Note_on_c, 0, 47, 59
2, 80091, Note_on_c, 0, 40, 101
2, 80095, Note_on_c, 0, 76, 94
2, 80100, Note_on_c, 0, 64, 75
2, 80113, Control_c, 0, 64, 63
2, 80117, Control_c, 0, 64, 0
2, 80118, Note_off_c, 0, 47, 64
2, 80140, Control_c, 0, 64, 63
2, 80148, Control_c, 0, 64, 127
2, 80177, Note_on_c, 0, 47, 84
2, 80192, Note_on_c, 0, 71, 85
2, 80196, Note_on_c, 0, 67, 81
2, 80204, Note_off_c, 0, 40, 64
2, 80213, Note_off_c, 0, 64, 64
2, 80215, Note_off_c, 0, 76, 64
2, 80217, Note_off_c, 0, 67, 64
2, 80227, Note_off_c, 0, 71, 64
2, 80251, Note_off_c, 0, 47, 64
2, 80260, Note_on_c, 0, 55, 73
2, 80296, Note_on_c, 0, 79, 100
2, 80298, Note_on_c, 0, 67, 82
2, 80310, Note_off_c, 0, 55, 64
2, 80319, Note_on_c, 0, 47, 74
2, 80322, Note_off_c, 0, 79, 64
2, 80326, Note_off_c, 0, 67, 64
2, 80390, Note_off_c, 0, 47, 64
2, 80400, Note_on_c, 0, 38, 103
2, 80405, Note_on_c, 0, 71, 109
2, 80406, Note_on_c, 0, 59, 108
2, 80439, Control_c, 0, 64, 63
2, 80443, Control_c, 0, 64, 0
2, 80468, Control_c, 0, 64, 63
2, 80476, Control_c, 0, 64, 127
2, 80481, Note_on_c, 0, 44, 99
2, 80496, Note_off_c, 0, 38, 64
2, 80509, Note_on_c, 0, 65, 89
2, 80509, Note_on_c, 0, 68, 97
2, 80539, Note_off_c, 0, 71, 64
2, 80542, Note_off_c, 0, 59, 64
2, 80563, Note_on_c, 0, 53, 84
2, 80569, Note_off_c, 0, 44, 64
2, 80602, Note_on_c, 0, 72, 108
2, 80606, Note_on_c, 0, 60, 96
2, 80616, Note_off_c, 0, 53, 64
2, 80621, Note_off_c, 0, 68, 64
2, 80622, Note_off_c, 0, 65, 64
2, 80628, Note_on_c, 0, 44, 93
2, 80636, Note_off_c, 0, 72, 64
2, 80639, Note_off_c, 0, 60, 64
2, 80654, Note_off_c, 0, 44, 64
2, 80707, Note_on_c, 0, 69, 106
2, 80708, Note_on_c, 0, 57, 101
2, 80710, Note_on_c, 0, 36, 118
2, 80721, Control_c, 0, 64, 63
2, 80724, Control_c, 0, 64, 0
2, 80751, Control_c, 0, 64, 63
2, 80758, Control_c, 0, 64, 127
2, 80793, Note_on_c, 0, 45, 92
2, 80799, Note_on_c, 0, 64, 87
2, 80800, Note_on_c, 0, 60, 91
2, 80809, Note_off_c, 0, 36, 64
2, 80814, Note_off_c, 0, 57, 64
2, 80821, Note_off_c, 0, 69, 64
2, 80823, Note_off_c, 0, 60, 64
2, 80831, Note_off_c, 0, 64, 64
2, 80866, Note_off_c, 0, 45, 64
2, 80866, Note_on_c, 0, 52, 77
2, 80912, Note_on_c, 0, 76, 106
2, 80914, Note_on_c, 0, 64, 104
2, 80924, Note_off_c, 0, 52, 64
2, 80931, Note_on_c, 0, 45, 89
2, 80935, Note_off_c, 0, 76, 64
2, 80941, Note_off_c, 0, 64, 64
2, 80954, Note_off_c, 0, 45, 64
2, 81031, Note_on_c, 0, 67, 108
2, 81032, Note_on_c, 0, 55, 91
2, 81033, Note_on_c, 0, 35, 116
2, 81044, Control_c, 0, 64, 63
2, 81047, Control_c, 0, 64, 0
2, 81075, Control_c, 0, 64, 63
2, 81081, Control_c, 0, 64, 127
2, 81120, Note_on_c, 0, 43, 88
2, 81131, Note_off_c, 0, 35, 64
2, 81134, Note_on_c, 0, 59, 91
2, 81135, Note_on_c, 0, 64, 92
2, 81156, Note_off_c, 0, 55, 64
2, 81158, Note_off_c, 0, 67, 64
2, 81167, Note_off_c, 0, 59, 64
2, 81179, Note_off_c, 0, 64, 64
2, 81184, Note_off_c, 0, 43, 64
2, 81196, Note_on_c, 0, 52, 87
2, 81232, Note_on_c, 0, 69, 94
2, 81236, Note_on_c, 0, 57, 73
2, 81241, Note_off_c, 0, 52, 64
2, 81242, Note_on_c, 0, 59, 75
2, 81256, Note_on_c, 0, 43, 90
2, 81259, Note_off_c, 0, 59, 64
2, 81265, Note_off_c, 0, 57, 64
2, 81266, Note_off_c, 0, 69, 64
2, 81287, Note_off_c, 0, 43, 64
2, 81335, Note_on_c, 0, 66, 104
2, 81338, Note_on_c, 0, 33, 114
2, 81338, Note_on_c, 0, 54, 107
2, 81353, Control_c, 0, 64, 63
2, 81356, Control_c, 0, 64, 0
2, 81380, Control_c, 0, 64, 63
2, 81385, Control_c, 0, 64, 127
2, 81406, Note_off_c, 0, 33, 64
2, 81414, Note_off_c, 0, 54, 64
2, 81437, Note_on_c, 0, 40, 61
2, 81438, Note_on_c, 0, 38, 61
2, 81441, Note_off_c, 0, 66, 64
2, 81442, Note_on_c, 0, 64, 83
2, 81449, Note_on_c, 0, 60, 57
2, 81452, Note_off_c, 0, 38, 64
2, 81461, Note_off_c, 0, 40, 64
2, 81465, Note_off_c, 0, 60, 64
2, 81470, Note_off_c, 0, 64, 64
2, 81509, Note_on_c, 0, 52, 76
2, 81547, Note_off_c, 0, 52, 64
2, 81547, Note_on_c, 0, 60, 106
2, 81548, Note_on_c, 0, 72, 111
2, 81579, Note_on_c, 0, 40, 84
2, 81586, Note_off_c, 0, 72, 64
2, 81586, Note_off_c, 0, 60, 64
2, 81658, Control_c, 0, 64, 63
2, 81658, Note_on_c, 0, 72, 112
2, 81659, Note_on_c, 0, 33, 109
2, 81659, Control_c, 0, 64, 0
2, 81660, Note_on_c, 0, 60, 109
2, 81662, Note_off_c, 0, 40, 64
2, 81686, Control_c, 0, 64, 63
2, 81690, Control_c, 0, 64, 127
2, 81711, Note_off_c, 0, 72, 64
2, 81715, Note_off_c, 0, 33, 64
2, 81752, Note_on_c, 0, 45, 73
2, 81784, Note_off_c, 0, 45, 64
2, 81784, Note_on_c, 0, 63, 96
2, 81785, Note_on_c, 0, 66, 108
2, 81787, Note_off_c, 0, 60, 64
2, 81807, Note_off_c, 0, 63, 64
2, 81816, Note_off_c, 0, 66, 64
2, 81846, Note_on_c, 0, 48, 86
2, 81871, Note_off_c, 0, 48, 64
2, 81898, Note_on_c, 0, 63, 113
2, 81898, Note_on_c, 0, 75, 113
2, 81924, Note_off_c, 0, 63, 64
2, 81938, Note_off_c, 0, 75, 64
2, 81950, Note_on_c, 0, 54, 85
2, 81986, Note_off_c, 0, 54, 64
2, 82010, Note_on_c, 0, 78, 104
2, 82013, Note_on_c, 0, 66, 110
2, 82017, Note_on_c, 0, 45, 74
2, 82025, Control_c, 0, 64, 63
2, 82028, Control_c, 0, 64, 0
2, 82054, Control_c, 0, 64, 63
2, 82057, Control_c, 0, 64, 127
2, 82086, Note_off_c, 0, 66, 64
2, 82096, Note_off_c, 0, 78, 64
2, 82096, Note_on_c, 0, 51, 100
2, 82123, Note_off_c, 0, 45, 64
2, 82145, Note_on_c, 0, 79, 108
2, 82146, Note_on_c, 0, 67, 104
2, 82162, Note_off_c, 0, 51, 64
2, 82170, Note_off_c, 0, 67, 64
2, 82170, Note_off_c, 0, 79, 64
2, 82201, Note_on_c, 0, 60, 92
2, 82262, Note_off_c, 0, 60, 64
2, 82277, Note_on_c, 0, 69, 103
2, 82278, Note_on_c, 0, 81, 111
2, 82307, Note_off_c, 0, 69, 64
2, 82322, Note_off_c, 0, 81, 64
2, 82347, Note_on_c, 0, 51, 110
2, 82425, Note_off_c, 0, 51, 64
2, 82467, Note_on_c, 0, 84, 112
2, 82469, Note_on_c, 0, 72, 113
2, 82469, Note_on_c, 0, 43, 120
2, 82500, Control_c, 0, 64, 63
2, 82501, Control_c, 0, 64, 0
2, 82543, Control_c, 0, 64, 63
2, 82544, Control_c, 0, 64, 127
2, 82584, Note_off_c, 0, 84, 64
2, 82613, Note_off_c, 0, 72, 64
2, 82618, Note_off_c, 0, 43, 64
2, 82621, Note_on_c, 0, 51, 70
2, 82635, Note_on_c, 0, 79, 80
2, 82636, Note_on_c, 0, 75, 95
2, 82664, Note_off_c, 0, 51, 64
2, 82716, Note_on_c, 0, 60, 83
2, 82755, Note_on_c, 0, 72, 101
2, 82760, Note_off_c, 0, 79, 64
2, 82777, Note_off_c, 0, 75, 64
2, 82790, Note_off_c, 0, 60, 64
2, 82802, Note_on_c, 0, 51, 93
2, 82803, Note_off_c, 0, 72, 64
2, 82866, Note_off_c, 0, 51, 64
2, 82870, Note_on_c, 0, 71, 109
2, 82870, Note_on_c, 0, 83, 107
2, 82874, Note_on_c, 0, 43, 107
2, 82878, Control_c, 0, 64, 63
2, 82881, Control_c, 0, 64, 0
2, 82907, Control_c, 0, 64, 63
2, 82911, Control_c, 0, 64, 127
2, 82957, Note_on_c, 0, 52, 91
2, 82969, Note_off_c, 0, 43, 64
2, 82986, Note_on_c, 0, 79, 92
2, 82988, Note_on_c, 0, 76, 97
2, 83009, Note_off_c, 0, 71, 64
2, 83037, Note_off_c, 0, 52, 64
2, 83041, Note_on_c, 0, 59, 77
2, 83045, Note_off_c, 0, 83, 64
2, 83080, Note_off_c, 0, 79, 64
2, 83085, Note_on_c, 0, 71, 90
2, 83087, Note_off_c, 0, 76, 64
2, 83099, Note_off_c, 0, 59, 64
2, 83104, Note_on_c, 0, 52, 81
2, 83116, Note_off_c, 0, 71, 64
2, 83135, Note_off_c, 0, 52, 64
2, 83164, Control_c, 0, 64, 63
2, 83167, Control_c, 0, 64, 0
2, 83176, Note_on_c, 0, 42, 114
2, 83178, Note_on_c, 0, 82, 115
2, 83180, Note_on_c, 0, 70, 121
2, 83190, Control_c, 0, 64, 63
2, 83193, Control_c, 0, 64, 127
2, 83210, Note_off_c, 0, 42, 64
2, 83250, Note_off_c, 0, 70, 64
2, 83258, Note_on_c, 0, 54, 99
2, 83284, Note_on_c, 0, 78, 85
2, 83288, Note_on_c, 0, 76, 69
2, 83327, Note_off_c, 0, 82, 64
2, 83335, Note_on_c, 0, 61, 106
2, 83337, Note_off_c, 0, 54, 64
2, 83381, Note_on_c, 0, 70, 93
2, 83383, Note_off_c, 0, 76, 64
2, 83390, Note_off_c, 0, 78, 64
2, 83392, Note_off_c, 0, 61, 64
2, 83397, Note_on_c, 0, 54, 100
2, 83410, Note_off_c, 0, 70, 64
2, 83459, Note_off_c, 0, 54, 64
2, 83463, Note_on_c, 0, 47, 103
2, 83471, Control_c, 0, 64, 63
2, 83473, Note_on_c, 0, 81, 109
2, 83474, Note_on_c, 0, 69, 106
2, 83477, Control_c, 0, 64, 0
2, 83500, Control_c, 0, 64, 63
2, 83504, Control_c, 0, 64, 127
2, 83549, Note_on_c, 0, 54, 101
2, 83557, Note_on_c, 0, 49, 21
2, 83565, Note_off_c, 0, 47, 64
2, 83568, Note_off_c, 0, 49, 64
2, 83578, Note_on_c, 0, 78, 105
2, 83578, Note_on_c, 0, 75, 107
2, 83600, Note_off_c, 0, 81, 64
2, 83602, Note_off_c, 0, 69, 64
2, 83613, Note_off_c, 0, 54, 64
2, 83638, Note_on_c, 0, 63, 109
2, 83677, Note_off_c, 0, 78, 64
2, 83681, Note_off_c, 0, 75, 64
2, 83682, Note_on_c, 0, 69, 87
2, 83693, Note_off_c, 0, 63, 64
2, 83701, Note_on_c, 0, 54, 104
2, 83711, Note_off_c, 0, 69, 64
2, 83770, Note_off_c, 0, 54, 64
2, 83770, Note_on_c, 0, 52, 118
2, 83777, Control_c, 0, 64, 63
2, 83777, Note_on_c, 0, 79, 104
2, 83778, Note_on_c, 0, 67, 102
2, 83781, Control_c, 0, 64, 0
2, 83807, Control_c, 0, 64, 63
2, 83811, Control_c, 0, 64, 127
2, 83849, Note_on_c, 0, 55, 80
2, 83883, Note_on_c, 0, 71, 91
2, 83884, Note_on_c, 0, 76, 92
2, 83888, Note_off_c, 0, 67, 64
2, 83892, Note_off_c, 0, 79, 64
2, 83929, Note_off_c, 0, 55, 64
2, 83936, Note_on_c, 0, 64, 76
2, 83966, Note_off_c, 0, 52, 64
2, 83974, Note_off_c, 0, 64, 64
2, 83976, Note_on_c, 0, 67, 88
2, 83978, Note_off_c, 0, 76, 64
2, 83981, Note_off_c, 0, 71, 64
2, 83984, Note_on_c, 0, 55, 87
2, 84001, Note_off_c, 0, 67, 64
2, 84002, Note_off_c, 0, 55, 64
2, 84085, Note_on_c, 0, 46, 115
2, 84091, Control_c, 0, 64, 63
2, 84091, Note_on_c, 0, 67, 106
2, 84092, Note_on_c, 0, 55, 102
2, 84096, Control_c, 0, 64, 0
2, 84115, Control_c, 0, 64, 63
2, 84121, Control_c, 0, 64, 127
2, 84175, Note_off_c, 0, 46, 64
2, 84180, Note_off_c, 0, 55, 64
2, 84189, Note_on_c, 0, 52, 63
2, 84194, Note_off_c, 0, 67, 64
2, 84198, Note_on_c, 0, 64, 89
2, 84255, Note_off_c, 0, 52, 64
2, 84268, Note_on_c, 0, 60, 84
2, 84289, Note_on_c, 0, 55, 85
2, 84297, Note_off_c, 0, 64, 64
2, 84313, Note_off_c, 0, 60, 64
2, 84317, Note_off_c, 0, 55, 64
2, 84332, Note_on_c, 0, 52, 76
2, 84363, Note_off_c, 0, 52, 64
2, 84398, Note_on_c, 0, 45, 116
2, 84405, Control_c, 0, 64, 63
2, 84407, Note_on_c, 0, 79, 103
2, 84408, Note_on_c, 0, 67, 86
2, 84408, Control_c, 0, 64, 0
2, 84433, Control_c, 0, 64, 63
2, 84438, Control_c, 0, 64, 127
2, 84485, Note_off_c, 0, 45, 64
2, 84487, Note_on_c, 0, 51, 80
2, 84515, Note_on_c, 0, 75, 87
2, 84519, Note_on_c, 0, 72, 66
2, 84522, Note_off_c, 0, 67, 64
2, 84547, Note_off_c, 0, 51, 64
2, 84572, Note_on_c, 0, 60, 63
2, 84574, Note_off_c, 0, 79, 64
2, 84601, Note_on_c, 0, 67, 76
2, 84618, Note_off_c, 0, 60, 64
2, 84628, Note_on_c, 0, 51, 84
2, 84652, Note_off_c, 0, 67, 64
2, 84682, Note_off_c, 0, 72, 64
2, 84693, Note_on_c, 0, 45, 84
2, 84696, Note_on_c, 0, 78, 99
2, 84697, Note_off_c, 0, 75, 64
2, 84702, Note_off_c, 0, 51, 64
2, 84703, Note_on_c, 0, 66, 89
2, 84721, Control_c, 0, 64, 63
2, 84724, Control_c, 0, 64, 0
2, 84750, Control_c, 0, 64, 63
2, 84756, Control_c, 0, 64, 127
2, 84774, Note_on_c, 0, 51, 86
2, 84779, Note_off_c, 0, 45, 64
2, 84794, Note_on_c, 0, 75, 79
2, 84802, Note_on_c, 0, 71, 68
2, 84848, Note_on_c, 0, 59, 59
2, 84853, Note_off_c, 0, 66, 64
2, 84856, Note_off_c, 0, 51, 64
2, 84890, Note_off_c, 0, 78, 64
2, 84897, Note_off_c, 0, 75, 64
2, 84899, Note_on_c, 0, 66, 81
2, 84904, Note_off_c, 0, 59, 64
2, 84905, Note_off_c, 0, 71, 64
2, 84917, Note_on_c, 0, 51, 75
2, 84923, Note_off_c, 0, 66, 64
2, 85014, Note_off_c, 0, 51, 64
2, 85014, Note_on_c, 0, 43, 82
2, 85020, Note_on_c, 0, 59, 100
2, 85043, Control_c, 0, 64, 63
2, 85047, Control_c, 0, 64, 0
2, 85071, Control_c, 0, 64, 63
2, 85078, Control_c, 0, 64, 127
2, 85125, Note_on_c, 0, 51, 56
2, 85147, Note_on_c, 0, 66, 71
2, 85153, Note_on_c, 0, 71, 65
2, 85196, Note_off_c, 0, 59, 64
2, 85206, Note_off_c, 0, 51, 64
2, 85211, Note_on_c, 0, 54, 47
2, 85218, Note_off_c, 0, 71, 64
2, 85218, Note_off_c, 0, 43, 64
2, 85238, Note_on_c, 0, 59, 84
2, 85257, Note_off_c, 0, 66, 64
2, 85263, Note_off_c, 0, 54, 64
2, 85270, Note_on_c, 0, 51, 74
2, 85327, Note_off_c, 0, 51, 64
2, 85335, Note_on_c, 0, 71, 93
2, 85337, Note_on_c, 0, 64, 84
2, 85337, Note_on_c, 0, 43, 80
2, 85397, Note_off_c, 0, 59, 64
2, 85409, Note_on_c, 0, 52, 85
2, 85421, Note_on_c, 0, 59, 91
2, 85454, Note_off_c, 0, 64, 64
2, 85457, Note_off_c, 0, 71, 64
2, 85458, Control_c, 0, 64, 63
2, 85462, Control_c, 0, 64, 0
2, 85468, Control_c, 0, 64, 63
2, 85469, Note_on_c, 0, 55, 82
2, 85475, Control_c, 0, 64, 127
2, 85489, Note_off_c, 0, 52, 64
2, 85516, Note_on_c, 0, 71, 102
2, 85517, Note_on_c, 0, 64, 98
2, 85526, Note_on_c, 0, 52, 92
2, 85542, Note_off_c, 0, 43, 64
2, 85544, Note_off_c, 0, 55, 64
2, 85547, Note_off_c, 0, 59, 64
2, 85557, Note_off_c, 0, 71, 64
2, 85564, Note_off_c, 0, 52, 64
2, 85582, Note_off_c, 0, 64, 64
2, 85604, Note_on_c, 0, 42, 109
2, 85605, Note_on_c, 0, 58, 118
2, 85652, Control_c, 0, 64, 63
2, 85657, Control_c, 0, 64, 0
2, 85670, Note_on_c, 0, 49, 96
2, 85677, Control_c, 0, 64, 63
2, 85683, Control_c, 0, 64, 127
2, 85721, Note_on_c, 0, 70, 105
2, 85723, Note_on_c, 0, 66, 95
2, 85724, Note_on_c, 0, 64, 87
2, 85768, Note_on_c, 0, 54, 87
2, 85770, Note_off_c, 0, 64, 64
2, 85771, Note_off_c, 0, 58, 64
2, 85777, Note_off_c, 0, 49, 64
2, 85778, Note_off_c, 0, 70, 64
2, 85809, Note_off_c, 0, 66, 64
2, 85812, Note_on_c, 0, 57, 102
2, 85830, Note_on_c, 0, 49, 92
2, 85835, Note_off_c, 0, 42, 64
2, 85837, Note_off_c, 0, 54, 64
2, 85864, Note_off_c, 0, 49, 64
2, 85901, Control_c, 0, 64, 63
2, 85904, Control_c, 0, 64, 0
2, 85909, Note_on_c, 0, 35, 121
2, 85911, Note_on_c, 0, 69, 103
2, 85912, Note_on_c, 0, 63, 105
2, 85926, Control_c, 0, 64, 63
2, 85931, Control_c, 0, 64, 127
2, 85949, Note_off_c, 0, 35, 64
2, 85959, Note_off_c, 0, 57, 64
2, 85986, Note_off_c, 0, 69, 64
2, 85995, Note_on_c, 0, 47, 89
2, 86006, Note_on_c, 0, 57, 90
2, 86035, Note_off_c, 0, 63, 64
2, 86036, Note_off_c, 0, 47, 64
2, 86068, Note_on_c, 0, 54, 104
2, 86081, Note_off_c, 0, 57, 64
2, 86102, Note_on_c, 0, 69, 101
2, 86103, Note_on_c, 0, 63, 107
2, 86111, Note_off_c, 0, 54, 64
2, 86120, Note_on_c, 0, 47, 87
2, 86143, Note_off_c, 0, 69, 64
2, 86164, Note_off_c, 0, 63, 64
2, 86184, Note_on_c, 0, 40, 118
2, 86193, Note_on_c, 0, 56, 119
2, 86200, Control_c, 0, 64, 63
2, 86202, Control_c, 0, 64, 0
2, 86211, Note_off_c, 0, 47, 64
2, 86233, Control_c, 0, 64, 63
2, 86237, Control_c, 0, 64, 127
2, 86269, Note_on_c, 0, 47, 97
2, 86310, Note_on_c, 0, 59, 87
2, 86315, Note_off_c, 0, 56, 64
2, 86315, Note_on_c, 0, 64, 94
2, 86317, Note_on_c, 0, 68, 105
2, 86349, Note_off_c, 0, 59, 64
2, 86356, Note_on_c, 0, 52, 80
2, 86357, Note_off_c, 0, 47, 64
2, 86371, Note_off_c, 0, 68, 64
2, 86383, Note_off_c, 0, 64, 64
2, 86404, Note_on_c, 0, 55, 112
2, 86407, Note_on_c, 0, 47, 93
2, 86413, Note_off_c, 0, 52, 64
2, 86422, Note_off_c, 0, 40, 64
2, 86445, Note_off_c, 0, 47, 64
2, 86475, Control_c, 0, 64, 63
2, 86478, Control_c, 0, 64, 0
2, 86478, Note_on_c, 0, 36, 122
2, 86491, Note_on_c, 0, 60, 103
2, 86493, Note_on_c, 0, 67, 103
2, 86493, Note_on_c, 0, 64, 92
2, 86507, Control_c, 0, 64, 63
2, 86511, Control_c, 0, 64, 127
2, 86530, Note_off_c, 0, 36, 64
2, 86561, Note_off_c, 0, 55, 64
2, 86568, Note_on_c, 0, 48, 93
2, 86574, Note_off_c, 0, 67, 64
2, 86590, Note_off_c, 0, 64, 64
2, 86598, Note_on_c, 0, 55, 96
2, 86620, Note_off_c, 0, 48, 64
2, 86628, Note_off_c, 0, 60, 64
2, 86647, Note_on_c, 0, 52, 71
2, 86690, Note_on_c, 0, 60, 99
2, 86690, Note_on_c, 0, 67, 97
2, 86691, Note_on_c, 0, 64, 90
2, 86700, Note_off_c, 0, 52, 64
2, 86702, Note_on_c, 0, 48, 91
2, 86730, Note_off_c, 0, 48, 64
2, 86744, Note_off_c, 0, 55, 64
2, 86747, Note_off_c, 0, 67, 64
2, 86764, Control_c, 0, 64, 63
2, 86767, Control_c, 0, 64, 0
2, 86768, Note_off_c, 0, 64, 64
2, 86776, Note_on_c, 0, 33, 125
2, 86777, Note_on_c, 0, 53, 114
2, 86785, Note_off_c, 0, 60, 64
2, 86792, Control_c, 0, 64, 63
2, 86798, Control_c, 0, 64, 127
2, 86816, Note_off_c, 0, 33, 64
2, 86862, Note_on_c, 0, 45, 94
2, 86877, Note_on_c, 0, 60, 99
2, 86878, Note_on_c, 0, 65, 102
2, 86917, Note_off_c, 0, 45, 64
2, 86921, Note_off_c, 0, 53, 64
2, 86923, Note_off_c, 0, 65, 64
2, 86934, Note_on_c, 0, 48, 98
2, 86939, Note_off_c, 0, 60, 64
2, 86968, Note_on_c, 0, 52, 111
2, 86986, Note_on_c, 0, 45, 91
2, 87000, Note_off_c, 0, 48, 64
2, 87022, Note_off_c, 0, 45, 64
2, 87063, Note_on_c, 0, 59, 111
2, 87063, Note_on_c, 0, 35, 124
2, 87064, Note_on_c, 0, 64, 109
2, 87066, Note_on_c, 0, 57, 92
2, 87068, Control_c, 0, 64, 63
2, 87071, Control_c, 0, 64, 0
2, 87098, Control_c, 0, 64, 63
2, 87104, Control_c, 0, 64, 127
2, 87120, Note_off_c, 0, 64, 64
2, 87120, Note_off_c, 0, 52, 64
2, 87141, Note_off_c, 0, 59, 64
2, 87143, Note_off_c, 0, 57, 64
2, 87150, Note_on_c, 0, 42, 98
2, 87165, Note_on_c, 0, 51, 106
2, 87206, Note_off_c, 0, 35, 64
2, 87214, Note_off_c, 0, 51, 64
2, 87237, Note_off_c, 0, 42, 64
2, 87246, Note_on_c, 0, 59, 102
2, 87246, Note_on_c, 0, 63, 114
2, 87249, Note_on_c, 0, 57, 84
2, 87254, Note_on_c, 0, 47, 92
2, 87264, Note_off_c, 0, 57, 64
2, 87272, Note_off_c, 0, 59, 64
2, 87282, Note_off_c, 0, 63, 64
2, 87284, Note_off_c, 0, 47, 64
2, 87314, Control_c, 0, 64, 63
2, 87318, Control_c, 0, 64, 0
2, 87357, Note_on_c, 0, 67, 113
2, 87358, Note_on_c, 0, 63, 113
2, 87358, Note_on_c, 0, 55, 107
2, 87361, Note_on_c, 0, 34, 106
2, 87362, Note_on_c, 0, 46, 123
2, 87378, Control_c, 0, 64, 63
2, 87379, Control_c, 0, 64, 127
2, 87397, Note_off_c, 0, 55, 64
2, 87398, Note_off_c, 0, 67, 64
2, 87408, Note_off_c, 0, 63, 64
2, 87442, Note_off_c, 0, 34, 64
2, 87453, Note_off_c, 0, 46, 64
2, 87533, Control_c, 0, 64, 63
2, 87535, Control_c, 0, 64, 0
2, 87672, Note_on_c, 0, 67, 104
2, 87677, Note_on_c, 0, 58, 123
2, 87677, Note_on_c, 0, 63, 104
2, 87677, Note_on_c, 0, 46, 109
2, 87702, Control_c, 0, 64, 63
2, 87702, Control_c, 0, 64, 127
2, 87801, Note_off_c, 0, 63, 64
2, 87811, Note_off_c, 0, 67, 64
2, 87840, Note_off_c, 0, 46, 64
2, 87857, Note_off_c, 0, 58, 64
2, 88007, Note_on_c, 0, 68, 109
2, 88007, Note_on_c, 0, 60, 106
2, 88010, Note_on_c, 0, 63, 105
2, 88038, Control_c, 0, 64, 63
2, 88043, Control_c, 0, 64, 0
2, 88051, Control_c, 0, 64, 63
2, 88061, Control_c, 0, 64, 127
2, 88096, Note_on_c, 0, 58, 101
2, 88096, Note_on_c, 0, 67, 86
2, 88103, Note_off_c, 0, 68, 64
2, 88108, Note_off_c, 0, 63, 64
2, 88111, Note_off_c, 0, 60, 64
2, 88131, Note_off_c, 0, 67, 64
2, 88148, Control_c, 0, 64, 63
2, 88153, Control_c, 0, 64, 0
2, 88186, Note_on_c, 0, 56, 96
2, 88191, Note_on_c, 0, 72, 91
2, 88192, Note_on_c, 0, 62, 93
2, 88195, Note_off_c, 0, 58, 64
2, 88205, Note_off_c, 0, 72, 64
2, 88213, Note_off_c, 0, 56, 64
2, 88229, Note_off_c, 0, 62, 64
2, 88282, Control_c, 0, 64, 63
2, 88282, Note_on_c, 0, 63, 108
2, 88282, Note_on_c, 0, 70, 104
2, 88283, Note_on_c, 0, 55, 88
2, 88284, Control_c, 0, 64, 127
2, 88297, Note_off_c, 0, 63, 64
2, 88299, Note_off_c, 0, 70, 64
2, 88308, Note_off_c, 0, 55, 64
2, 88339, Control_c, 0, 64, 63
2, 88346, Control_c, 0, 64, 0
2, 88458, Note_on_c, 0, 63, 104
2, 88460, Note_on_c, 0, 47, 93
2, 88462, Note_on_c, 0, 35, 87
2, 88462, Note_on_c, 0, 57, 74
2, 88464, Note_on_c, 0, 53, 71
2, 88475, Note_off_c, 0, 47, 64
2, 88477, Note_off_c, 0, 57, 64
2, 88479, Note_off_c, 0, 53, 64
2, 88482, Note_off_c, 0, 35, 64
2, 88485, Note_off_c, 0, 63, 64
2, 88557, Note_on_c, 0, 65, 103
2, 88558, Control_c, 0, 64, 63
2, 88559, Note_on_c, 0, 63, 103
2, 88559, Note_on_c, 0, 58, 92
2, 88560, Note_on_c, 0, 53, 73
2, 88561, Control_c, 0, 64, 127
2, 88563, Note_on_c, 0, 34, 95
2, 88566, Note_on_c, 0, 46, 104
2, 88572, Note_off_c, 0, 58, 64
2, 88576, Note_off_c, 0, 53, 64
2, 88583, Note_off_c, 0, 63, 64
2, 88584, Note_off_c, 0, 65, 64
2, 88586, Note_off_c, 0, 34, 64
2, 88587, Note_off_c, 0, 46, 64
2, 88890, Note_on_c, 0, 56, 70
2, 88890, Note_on_c, 0, 62, 79
2, 88891, Note_on_c, 0, 58, 63
2, 88892, Note_on_c, 0, 96, 84
2, 88895, Note_on_c, 0, 53, 60
2, 88906, Control_c, 0, 64, 63
2, 88907, Control_c, 0, 64, 127
2, 88929, Control_c, 0, 64, 63
2, 88934, Control_c, 0, 64, 0
2, 88963, Control_c, 0, 64, 63
2, 88964, Control_c, 0, 64, 127
2, 88984, Note_on_c, 0, 94, 88
2, 88992, Note_off_c, 0, 96, 64
2, 89042, Note_on_c, 0, 92, 90
2, 89049, Note_off_c, 0, 94, 64
2, 89088, Note_on_c, 0, 91, 94
2, 89096, Note_off_c, 0, 53, 64
2, 89101, Note_off_c, 0, 92, 64
2, 89103, Note_off_c, 0, 56, 64
2, 89116, Note_off_c, 0, 62, 64
2, 89119, Note_off_c, 0, 58, 64
2, 89125, Note_on_c, 0, 89, 93
2, 89127, Note_off_c, 0, 91, 64
2, 89161, Note_on_c, 0, 87, 113
2, 89167, Note_off_c, 0, 89, 64
2, 89206, Note_on_c, 0, 86, 106
2, 89209, Note_on_c, 0, 63, 104
2, 89209, Note_on_c, 0, 53, 68
2, 89210, Note_on_c, 0, 56, 83
2, 89211, Note_on_c, 0, 58, 88
2, 89216, Note_off_c, 0, 87, 64
2, 89246, Note_off_c, 0, 86, 64
2, 89246, Note_on_c, 0, 84, 94
2, 89249, Control_c, 0, 64, 63
2, 89254, Control_c, 0, 64, 0
2, 89272, Control_c, 0, 64, 63
2, 89280, Control_c, 0, 64, 127
2, 89291, Note_off_c, 0, 84, 64
2, 89292, Note_on_c, 0, 82, 107
2, 89334, Note_on_c, 0, 80, 108
2, 89350, Note_off_c, 0, 53, 64
2, 89350, Note_off_c, 0, 56, 64
2, 89351, Note_off_c, 0, 82, 64
2, 89356, Note_off_c, 0, 58, 64
2, 89372, Note_off_c, 0, 63, 64
2, 89379, Note_on_c, 0, 79, 102
2, 89386, Note_off_c, 0, 80, 64
2, 89417, Note_on_c, 0, 77, 90
2, 89421, Note_off_c, 0, 79, 64
2, 89462, Note_off_c, 0, 77, 64
2, 89466, Note_on_c, 0, 75, 105
2, 89467, Note_on_c, 0, 67, 104
2, 89469, Note_on_c, 0, 56, 90
2, 89470, Note_on_c, 0, 58, 91
2, 89493, Control_c, 0, 64, 63
2, 89498, Control_c, 0, 64, 0
2, 89515, Note_on_c, 0, 74, 96
2, 89529, Note_off_c, 0, 75, 64
2, 89535, Control_c, 0, 64, 63
2, 89544, Control_c, 0, 64, 127
2, 89555, Note_off_c, 0, 74, 64
2, 89558, Note_on_c, 0, 72, 83
2, 89583, Note_off_c, 0, 67, 64
2, 89596, Note_off_c, 0, 72, 64
2, 89596, Note_on_c, 0, 70, 97
2, 89628, Control_c, 0, 64, 63
2, 89631, Control_c, 0, 64, 0
2, 89643, Note_off_c, 0, 70, 64
2, 89643, Note_on_c, 0, 69, 86
2, 89647, Note_on_c, 0, 65, 84
2, 89662, Control_c, 0, 64, 63
2, 89669, Control_c, 0, 64, 127
2, 89674, Note_off_c, 0, 58, 64
2, 89676, Note_off_c, 0, 56, 64
2, 89681, Note_off_c, 0, 65, 64
2, 89687, Note_off_c, 0, 69, 64
2, 89687, Note_on_c, 0, 68, 94
2, 89738, Control_c, 0, 64, 63
2, 89742, Control_c, 0, 64, 0
2, 89745, Note_on_c, 0, 63, 87
2, 89747, Note_on_c, 0, 67, 86
2, 89748, Note_off_c, 0, 68, 64
2, 89751, Note_on_c, 0, 51, 70
2, 89753, Note_on_c, 0, 58, 66
2, 89781, Control_c, 0, 64, 63
2, 89787, Control_c, 0, 64, 127
2, 89867, Control_c, 0, 64, 63
2, 89870, Control_c, 0, 64, 0
2, 89891, Note_off_c, 0, 67, 64
2, 89906, Note_off_c, 0, 51, 64
2, 89907, Note_off_c, 0, 63, 64
2, 89908, Note_off_c, 0, 58, 64
2, 90055, Note_on_c, 0, 69, 83
2, 90059, Note_on_c, 0, 66, 90
2, 90061, Note_on_c, 0, 60, 55
2, 90063, Note_on_c, 0, 50, 61
2, 90066, Control_c, 0, 64, 63
2, 90068, Control_c, 0, 64, 127
2, 90088, Note_off_c, 0, 66, 64
2, 90104, Note_off_c, 0, 69, 64
2, 90112, Note_off_c, 0, 50, 64
2, 90133, Note_off_c, 0, 60, 64
2, 90340, Note_on_c, 0, 63, 71
2, 90343, Note_on_c, 0, 72, 93
2, 90344, Note_on_c, 0, 55, 55
2, 90347, Note_on_c, 0, 67, 73
2, 90350, Control_c, 0, 64, 63
2, 90355, Control_c, 0, 64, 0
2, 90396, Control_c, 0, 64, 63
2, 90405, Control_c, 0, 64, 127
2, 90427, Note_on_c, 0, 62, 75
2, 90428, Note_on_c, 0, 70, 103
2, 90430, Note_off_c, 0, 63, 64
2, 90447, Note_off_c, 0, 67, 64
2, 90450, Note_off_c, 0, 72, 64
2, 90478, Note_off_c, 0, 70, 64
2, 90503, Control_c, 0, 64, 63
2, 90509, Control_c, 0, 64, 0
2, 90516, Note_off_c, 0, 62, 64
2, 90516, Note_on_c, 0, 75, 99
2, 90522, Note_on_c, 0, 66, 81
2, 90523, Note_on_c, 0, 60, 53
2, 90558, Note_off_c, 0, 75, 64
2, 90559, Note_off_c, 0, 66, 64
2, 90563, Note_off_c, 0, 60, 64
2, 90595, Control_c, 0, 64, 63
2, 90604, Control_c, 0, 64, 127
2, 90613, Note_on_c, 0, 58, 78
2, 90615, Note_on_c, 0, 74, 89
2, 90616, Note_on_c, 0, 67, 87
2, 90636, Note_off_c, 0, 55, 64
2, 90637, Note_off_c, 0, 67, 64
2, 90639, Note_off_c, 0, 74, 64
2, 90640, Note_off_c, 0, 58, 64
2, 90666, Control_c, 0, 64, 63
2, 90671, Control_c, 0, 64, 0
2, 90797, Note_on_c, 0, 67, 101
2, 90798, Note_on_c, 0, 57, 98
2, 90802, Note_on_c, 0, 51, 94
2, 90803, Note_on_c, 0, 61, 92
2, 90803, Note_on_c, 0, 39, 93
2, 90813, Note_off_c, 0, 61, 64
2, 90816, Note_off_c, 0, 57, 64
2, 90817, Note_off_c, 0, 51, 64
2, 90822, Note_off_c, 0, 39, 64
2, 90822, Note_off_c, 0, 67, 64
2, 90923, Note_on_c, 0, 69, 88
2, 90924, Control_c, 0, 64, 63
2, 90925, Note_on_c, 0, 57, 76
2, 90926, Note_on_c, 0, 50, 91
2, 90927, Control_c, 0, 64, 127
2, 90927, Note_on_c, 0, 67, 91
2, 90928, Note_on_c, 0, 38, 84
2, 90929, Note_on_c, 0, 62, 79
2, 90942, Note_off_c, 0, 62, 64
2, 90946, Note_off_c, 0, 50, 64
2, 90946, Note_off_c, 0, 57, 64
2, 90950, Note_off_c, 0, 38, 64
2, 90951, Note_off_c, 0, 69, 64
2, 90959, Note_off_c, 0, 67, 64
2, 91190, Control_c, 0, 64, 63
2, 91197, Control_c, 0, 64, 0
2, 91259, Note_on_c, 0, 99, 94
2, 91262, Note_on_c, 0, 66, 75
2, 91267, Note_on_c, 0, 60, 72
2, 91268, Note_on_c, 0, 62, 76
2, 91269, Note_on_c, 0, 57, 45
2, 91310, Note_on_c, 0, 98, 80
2, 91317, Note_off_c, 0, 99, 64
2, 91332, Control_c, 0, 64, 63
2, 91339, Control_c, 0, 64, 127
2, 91353, Note_off_c, 0, 98, 64
2, 91356, Note_on_c, 0, 96, 67
2, 91396, Note_on_c, 0, 94, 96
2, 91399, Note_off_c, 0, 96, 64
2, 91441, Note_on_c, 0, 93, 90
2, 91461, Note_off_c, 0, 94, 64
2, 91478, Note_on_c, 0, 91, 88
2, 91479, Note_off_c, 0, 93, 64
2, 91480, Note_off_c, 0, 57, 64
2, 91481, Note_off_c, 0, 60, 64
2, 91483, Note_off_c, 0, 62, 64
2, 91488, Note_off_c, 0, 66, 64
2, 91525, Note_off_c, 0, 91, 64
2, 91529, Note_on_c, 0, 67, 104
2, 91537, Note_on_c, 0, 62, 83
2, 91537, Note_on_c, 0, 60, 77
2, 91537, Note_on_c, 0, 90, 103
2, 91551, Note_on_c, 0, 57, 48
2, 91584, Control_c, 0, 64, 63
2, 91584, Note_on_c, 0, 87, 106
2, 91590, Control_c, 0, 64, 0
2, 91592, Note_off_c, 0, 90, 64
2, 91627, Note_on_c, 0, 86, 102
2, 91632, Control_c, 0, 64, 63
2, 91638, Control_c, 0, 64, 127
2, 91648, Note_off_c, 0, 87, 64
2, 91659, Note_off_c, 0, 60, 64
2, 91660, Note_off_c, 0, 57, 64
2, 91664, Note_off_c, 0, 86, 64
2, 91665, Note_on_c, 0, 84, 94
2, 91668, Note_off_c, 0, 62, 64
2, 91700, Note_off_c, 0, 67, 64
2, 91701, Note_on_c, 0, 82, 107
2, 91703, Note_off_c, 0, 84, 64
2, 91743, Note_on_c, 0, 81, 100
2, 91761, Note_off_c, 0, 82, 64
2, 91784, Note_off_c, 0, 81, 64
2, 91789, Note_on_c, 0, 79, 89
2, 91794, Note_on_c, 0, 70, 116
2, 91796, Note_on_c, 0, 60, 98
2, 91801, Note_on_c, 0, 62, 92
2, 91822, Control_c, 0, 64, 63
2, 91826, Control_c, 0, 64, 0
2, 91830, Note_off_c, 0, 79, 64
2, 91838, Note_on_c, 0, 78, 94
2, 91864, Control_c, 0, 64, 63
2, 91869, Control_c, 0, 64, 127
2, 91883, Note_on_c, 0, 75, 97
2, 91890, Note_off_c, 0, 78, 64
2, 91923, Note_on_c, 0, 74, 87
2, 91925, Note_off_c, 0, 75, 64
2, 91948, Note_off_c, 0, 70, 64
2, 91967, Note_off_c, 0, 74, 64
2, 91968, Note_on_c, 0, 73, 101
2, 91977, Note_on_c, 0, 69, 82
2, 91990, Note_off_c, 0, 60, 64
2, 91997, Note_off_c, 0, 62, 64
2, 92008, Note_off_c, 0, 73, 64
2, 92010, Note_on_c, 0, 72, 84
2, 92023, Note_off_c, 0, 69, 64
2, 92054, Control_c, 0, 64, 63
2, 92059, Control_c, 0, 64, 0
2, 92062, Note_on_c, 0, 71, 85
2, 92063, Note_on_c, 0, 67, 84
2, 92066, Note_on_c, 0, 62, 30
2, 92067, Note_off_c, 0, 72, 64
2, 92073, Note_on_c, 0, 55, 63
2, 92109, Control_c, 0, 64, 63
2, 92113, Control_c, 0, 64, 127
2, 92146, Note_off_c, 0, 71, 64
2, 92158, Note_off_c, 0, 62, 64
2, 92162, Note_off_c, 0, 67, 64
2, 92170, Note_off_c, 0, 55, 64
2, 92175, Control_c, 0, 64, 63
2, 92186, Control_c, 0, 64, 0
2, 92243, Control_c, 0, 64, 63
2, 92251, Control_c, 0, 64, 127
2, 92253, Note_on_c, 0, 55, 54
2, 92253, Note_on_c, 0, 79, 73
2, 92254, Note_on_c, 0, 71, 69
2, 92290, Note_off_c, 0, 79, 64
2, 92339, Note_off_c, 0, 71, 64
2, 92345, Note_on_c, 0, 72, 81
2, 92347, Note_on_c, 0, 80, 88
2, 92348, Note_on_c, 0, 54, 75
2, 92350, Note_off_c, 0, 55, 64
2, 92371, Control_c, 0, 64, 63
2, 92375, Control_c, 0, 64, 0
2, 92401, Note_off_c, 0, 80, 64
2, 92404, Control_c, 0, 64, 63
2, 92412, Control_c, 0, 64, 127
2, 92426, Note_on_c, 0, 55, 85
2, 92430, Note_on_c, 0, 79, 89
2, 92431, Note_on_c, 0, 71, 89
2, 92440, Note_off_c, 0, 72, 64
2, 92457, Note_off_c, 0, 54, 64
2, 92495, Note_off_c, 0, 79, 64
2, 92510, Note_off_c, 0, 71, 64
2, 92514, Note_on_c, 0, 63, 78
2, 92514, Note_on_c, 0, 72, 78
2, 92517, Note_on_c, 0, 78, 88
2, 92547, Control_c, 0, 64, 63
2, 92560, Control_c, 0, 64, 0
2, 92585, Note_off_c, 0, 78, 64
2, 92592, Note_off_c, 0, 63, 64
2, 92609, Note_on_c, 0, 62, 57
2, 92612, Note_on_c, 0, 79, 80
2, 92615, Note_on_c, 0, 71, 63
2, 92616, Note_off_c, 0, 72, 64
2, 92631, Control_c, 0, 64, 63
2, 92638, Control_c, 0, 64, 127
2, 92653, Note_off_c, 0, 79, 64
2, 92665, Note_off_c, 0, 71, 64
2, 92668, Note_off_c, 0, 55, 64
2, 92669, Note_off_c, 0, 62, 64
2, 92801, Note_on_c, 0, 67, 72
2, 92804, Control_c, 0, 64, 63
2, 92805, Note_on_c, 0, 59, 63
2, 92808, Control_c, 0, 64, 0
2, 92810, Note_on_c, 0, 50, 68
2, 92840, Note_off_c, 0, 67, 64
2, 92845, Control_c, 0, 64, 63
2, 92853, Control_c, 0, 64, 127
2, 92900, Note_on_c, 0, 68, 88
2, 92900, Note_on_c, 0, 42, 73
2, 92905, Note_off_c, 0, 59, 64
2, 92911, Note_on_c, 0, 60, 33
2, 92916, Control_c, 0, 64, 63
2, 92919, Control_c, 0, 67, 127
2, 92920, Control_c, 0, 67, 0
2, 92945, Control_c, 0, 64, 127
2, 92961, Note_off_c, 0, 68, 64
2, 92976, Note_on_c, 0, 43, 87
2, 92982, Note_off_c, 0, 42, 64
2, 92986, Note_on_c, 0, 67, 76
2, 92991, Note_on_c, 0, 59, 82
2, 93009, Note_off_c, 0, 60, 64
2, 93018, Note_off_c, 0, 50, 64
2, 93057, Note_off_c, 0, 67, 64
2, 93070, Note_on_c, 0, 66, 97
2, 93072, Note_on_c, 0, 60, 80
2, 93073, Note_on_c, 0, 51, 90
2, 93087, Note_off_c, 0, 59, 64
2, 93131, Control_c, 0, 64, 63
2, 93140, Control_c, 0, 64, 0
2, 93159, Note_on_c, 0, 50, 60
2, 93161, Note_on_c, 0, 67, 68
2, 93163, Note_on_c, 0, 59, 59
2, 93165, Note_off_c, 0, 66, 64
2, 93173, Note_off_c, 0, 51, 64
2, 93178, Note_off_c, 0, 60, 64
2, 93208, Control_c, 0, 64, 63
2, 93213, Control_c, 0, 64, 127
2, 93231, Note_off_c, 0, 43, 64
2, 93244, Note_off_c, 0, 50, 64
2, 93246, Note_off_c, 0, 59, 64
2, 93258, Note_off_c, 0, 67, 64
2, 93326, Control_c, 0, 64, 63
2, 93344, Control_c, 0, 64, 0
2, 93377, Note_on_c, 0, 68, 76
2, 93382, Note_on_c, 0, 78, 78
2, 93384, Note_on_c, 0, 72, 60
2, 93390, Control_c, 0, 64, 63
2, 93413, Control_c, 0, 64, 127
2, 93463, Note_off_c, 0, 78, 64
2, 93467, Control_c, 0, 64, 63
2, 93472, Note_on_c, 0, 71, 64
2, 93475, Note_off_c, 0, 72, 64
2, 93475, Note_off_c, 0, 68, 64
2, 93476, Control_c, 0, 64, 0
2, 93476, Note_on_c, 0, 67, 40
2, 93479, Note_on_c, 0, 79, 52
2, 93510, Control_c, 0, 67, 127
2, 93526, Control_c, 0, 64, 63
2, 93533, Control_c, 0, 64, 127
2, 93600, Note_off_c, 0, 71, 64
2, 93602, Note_off_c, 0, 79, 64
2, 93617, Note_off_c, 0, 67, 64
2, 93627, Control_c, 0, 64, 63
2, 93643, Control_c, 0, 64, 0
2, 93651, Note_on_c, 0, 63, 76
2, 93657, Note_on_c, 0, 78, 78
2, 93666, Note_on_c, 0, 72, 57
2, 93726, Note_off_c, 0, 78, 64
2, 93743, Note_on_c, 0, 79, 59
2, 93746, Note_on_c, 0, 71, 61
2, 93750, Note_on_c, 0, 55, 50
2, 93750, Note_on_c, 0, 62, 70
2, 93753, Note_off_c, 0, 72, 64
2, 93755, Note_off_c, 0, 63, 64
2, 93761, Control_c, 0, 64, 63
2, 93766, Control_c, 0, 64, 127
2, 93827, Note_on_c, 0, 72, 65
2, 93828, Note_off_c, 0, 79, 64
2, 93828, Note_on_c, 0, 78, 77
2, 93834, Note_on_c, 0, 63, 67
2, 93835, Note_off_c, 0, 71, 64
2, 93853, Note_off_c, 0, 62, 64
2, 93900, Note_off_c, 0, 78, 64
2, 93906, Note_on_c, 0, 79, 54
2, 93907, Control_c, 0, 64, 63
2, 93911, Note_on_c, 0, 71, 54
2, 93913, Note_off_c, 0, 72, 64
2, 93914, Note_on_c, 0, 62, 65
2, 93915, Control_c, 0, 64, 0
2, 93922, Note_off_c, 0, 63, 64
2, 93955, Control_c, 0, 64, 63
2, 93969, Control_c, 0, 64, 127
2, 93989, Note_on_c, 0, 78, 78
2, 93993, Note_on_c, 0, 63, 63
2, 93995, Note_on_c, 0, 72, 51
2, 93998, Note_off_c, 0, 79, 64
2, 94012, Note_off_c, 0, 71, 64
2, 94013, Note_off_c, 0, 62, 64
2, 94054, Control_c, 0, 64, 63
2, 94062, Control_c, 0, 64, 0
2, 94070, Note_off_c, 0, 78, 64
2, 94075, Note_off_c, 0, 72, 64
2, 94077, Note_on_c, 0, 62, 49
2, 94078, Note_on_c, 0, 79, 59
2, 94079, Note_on_c, 0, 71, 45
2, 94082, Note_off_c, 0, 63, 64
2, 94097, Control_c, 0, 64, 63
2, 94109, Control_c, 0, 64, 127
2, 94160, Control_c, 0, 64, 63
2, 94161, Note_off_c, 0, 71, 64
2, 94163, Note_on_c, 0, 78, 65
2, 94166, Note_off_c, 0, 79, 64
2, 94166, Note_on_c, 0, 63, 50
2, 94168, Note_on_c, 0, 72, 32
2, 94181, Control_c, 0, 64, 0
2, 94186, Note_off_c, 0, 62, 64
2, 94231, Note_off_c, 0, 78, 64
2, 94238, Control_c, 0, 64, 63
2, 94249, Control_c, 0, 64, 127
2, 94253, Note_off_c, 0, 72, 64
2, 94259, Note_on_c, 0, 71, 52
2, 94263, Note_on_c, 0, 62, 41
2, 94267, Note_on_c, 0, 79, 55
2, 94284, Note_off_c, 0, 63, 64
2, 94304, Note_off_c, 0, 71, 64
2, 94313, Note_off_c, 0, 55, 64
2, 94338, Note_off_c, 0, 79, 64
2, 94358, Note_off_c, 0, 62, 64
2, 94456, Control_c, 0, 64, 63
2, 94464, Control_c, 0, 64, 0
2, 94505, Note_on_c, 0, 48, 84
2, 94505, Control_c, 0, 64, 63
2, 94510, Control_c, 0, 64, 127
2, 94526, Control_c, 0, 67, 0
2, 94538, Note_off_c, 0, 48, 64
2, 94600, Note_on_c, 0, 58, 59
2, 94620, Note_on_c, 0, 96, 71
2, 94625, Note_on_c, 0, 64, 62
2, 94666, Note_on_c, 0, 97, 89
2, 94667, Note_off_c, 0, 96, 64
2, 94717, Note_on_c, 0, 96, 81
2, 94725, Note_off_c, 0, 97, 64
2, 94755, Note_on_c, 0, 94, 95
2, 94767, Note_off_c, 0, 96, 64
2, 94790, Note_off_c, 0, 64, 64
2, 94796, Note_on_c, 0, 92, 93
2, 94802, Note_off_c, 0, 58, 64
2, 94815, Note_off_c, 0, 94, 64
2, 94824, Note_on_c, 0, 53, 84
2, 94830, Note_on_c, 0, 91, 75
2, 94834, Note_off_c, 0, 92, 64
2, 94865, Note_off_c, 0, 91, 64
2, 94878, Note_on_c, 0, 89, 92
2, 94879, Note_on_c, 0, 56, 70
2, 94883, Control_c, 0, 64, 63
2, 94884, Note_on_c, 0, 65, 91
2, 94890, Control_c, 0, 64, 0
2, 94922, Note_off_c, 0, 89, 64
2, 94922, Note_on_c, 0, 91, 76
2, 94926, Control_c, 0, 64, 63
2, 94932, Control_c, 0, 64, 127
2, 94970, Note_off_c, 0, 65, 64
2, 94971, Note_on_c, 0, 89, 82
2, 94976, Note_off_c, 0, 91, 64
2, 94992, Note_off_c, 0, 53, 64
2, 94995, Note_off_c, 0, 56, 64
2, 95009, Note_on_c, 0, 87, 107
2, 95024, Note_off_c, 0, 89, 64
2, 95053, Note_on_c, 0, 86, 99
2, 95075, Note_on_c, 0, 46, 84
2, 95076, Note_off_c, 0, 87, 64
2, 95088, Note_on_c, 0, 84, 90
2, 95092, Note_off_c, 0, 86, 64
2, 95104, Note_off_c, 0, 46, 64
2, 95123, Note_off_c, 0, 84, 64
2, 95144, Note_on_c, 0, 62, 102
2, 95146, Note_on_c, 0, 83, 97
2, 95148, Note_on_c, 0, 56, 83
2, 95188, Note_on_c, 0, 84, 94
2, 95191, Note_off_c, 0, 83, 64
2, 95209, Control_c, 0, 64, 63
2, 95215, Control_c, 0, 64, 0
2, 95235, Note_on_c, 0, 82, 103
2, 95242, Note_off_c, 0, 84, 64
2, 95256, Control_c, 0, 64, 63
2, 95265, Control_c, 0, 64, 127
2, 95274, Note_on_c, 0, 80, 103
2, 95287, Note_off_c, 0, 82, 64
2, 95313, Note_on_c, 0, 79, 99
2, 95315, Note_off_c, 0, 62, 64
2, 95320, Note_off_c, 0, 80, 64
2, 95335, Note_on_c, 0, 51, 99
2, 95352, Note_on_c, 0, 77, 84
2, 95370, Note_off_c, 0, 56, 64
2, 95372, Note_off_c, 0, 79, 64
2, 95395, Control_c, 0, 64, 63
2, 95400, Control_c, 0, 64, 0
2, 95405, Note_on_c, 0, 55, 83
2, 95406, Note_on_c, 0, 63, 113
2, 95408, Note_on_c, 0, 79, 98
2, 95409, Note_off_c, 0, 77, 64
2, 95431, Control_c, 0, 64, 63
2, 95440, Control_c, 0, 64, 127
2, 95451, Note_off_c, 0, 79, 64
2, 95452, Note_on_c, 0, 77, 90
2, 95473, Note_off_c, 0, 63, 64
2, 95483, Note_off_c, 0, 55, 64
2, 95493, Note_on_c, 0, 75, 107
2, 95499, Note_off_c, 0, 77, 64
2, 95500, Note_off_c, 0, 51, 64
2, 95536, Note_on_c, 0, 74, 104
2, 95553, Note_off_c, 0, 75, 64
2, 95573, Note_off_c, 0, 74, 64
2, 95575, Note_on_c, 0, 72, 99
2, 95580, Note_on_c, 0, 44, 94
2, 95612, Note_on_c, 0, 51, 97
2, 95617, Note_off_c, 0, 44, 64
2, 95624, Note_off_c, 0, 72, 64
2, 95628, Note_on_c, 0, 70, 113
2, 95662, Note_on_c, 0, 60, 89
2, 95665, Control_c, 0, 64, 63
2, 95671, Note_on_c, 0, 68, 113
2, 95672, Control_c, 0, 64, 0
2, 95685, Note_off_c, 0, 70, 64
2, 95707, Control_c, 0, 64, 63
2, 95716, Note_on_c, 0, 67, 104
2, 95717, Control_c, 0, 64, 127
2, 95732, Note_off_c, 0, 68, 64
2, 95755, Note_on_c, 0, 65, 100
2, 95759, Note_off_c, 0, 67, 64
2, 95794, Note_on_c, 0, 63, 115
2, 95800, Note_off_c, 0, 65, 64
2, 95831, Note_on_c, 0, 62, 113
2, 95832, Note_off_c, 0, 60, 64
2, 95848, Note_off_c, 0, 63, 64
2, 95860, Note_off_c, 0, 51, 64
2, 95868, Note_on_c, 0, 60, 106
2, 95875, Note_off_c, 0, 62, 64
2, 95889, Control_c, 0, 64, 63
2, 95894, Control_c, 0, 64, 0
2, 95904, Note_off_c, 0, 60, 64
2, 95917, Note_on_c, 0, 53, 111
2, 95918, Note_on_c, 0, 59, 112
2, 95918, Note_on_c, 0, 50, 108
2, 95935, Control_c, 0, 64, 63
2, 95941, Control_c, 0, 64, 127
2, 95942, Note_off_c, 0, 53, 64
2, 95948, Note_off_c, 0, 50, 64
2, 95961, Note_on_c, 0, 56, 113
2, 95977, Note_off_c, 0, 59, 64
2, 96001, Note_on_c, 0, 55, 104
2, 96010, Note_off_c, 0, 56, 64
2, 96043, Note_on_c, 0, 53, 106
2, 96050, Note_off_c, 0, 55, 64
2, 96083, Note_on_c, 0, 51, 114
2, 96085, Control_c, 0, 64, 63
2, 96089, Note_off_c, 0, 53, 64
2, 96108, Control_c, 0, 64, 0
2, 96127, Note_on_c, 0, 50, 112
2, 96149, Note_off_c, 0, 51, 64
2, 96169, Note_on_c, 0, 31, 117
2, 96170, Note_on_c, 0, 48, 107
2, 96175, Note_off_c, 0, 50, 64
2, 96186, Control_c, 0, 64, 63
2, 96201, Control_c, 0, 64, 127
2, 96205, Note_off_c, 0, 48, 64
2, 96215, Note_on_c, 0, 47, 111
2, 96258, Note_on_c, 0, 44, 114
2, 96271, Note_off_c, 0, 47, 64
2, 96291, Control_c, 0, 64, 63
2, 96302, Note_off_c, 0, 44, 64
2, 96302, Note_on_c, 0, 43, 106
2, 96306, Note_off_c, 0, 31, 64
2, 96321, Control_c, 0, 64, 0
2, 96347, Note_off_c, 0, 43, 64
2, 96348, Note_on_c, 0, 41, 107
2, 96370, Control_c, 0, 67, 127
2, 96383, Note_off_c, 0, 41, 64
2, 96387, Control_c, 0, 67, 0
2, 96394, Note_on_c, 0, 38, 92
2, 96414, Note_off_c, 0, 38, 64
2, 96461, Note_on_c, 0, 36, 125
2, 96462, Note_on_c, 0, 24, 120
2, 96530, Control_c, 0, 64, 63
2, 96534, Control_c, 0, 64, 127
2, 96598, Note_off_c, 0, 24, 64
2, 96631, Note_off_c, 0, 36, 64
2, 96729, Note_on_c, 0, 63, 125
2, 96731, Note_on_c, 0, 55, 113
2, 96732, Note_on_c, 0, 48, 118
2, 96732, Note_on_c, 0, 60, 117
2, 96905, Control_c, 0, 64, 63
2, 96907, Control_c, 0, 64, 127
2, 96998, Note_off_c, 0, 48, 64
2, 97011, Note_off_c, 0, 63, 64
2, 97012, Note_off_c, 0, 60, 64
2, 97027, Note_on_c, 0, 56, 113
2, 97028, Control_c, 0, 64, 63
2, 97028, Note_on_c, 0, 65, 112
2, 97029, Control_c, 0, 64, 0
2, 97030, Note_on_c, 0, 59, 108
2, 97032, Note_on_c, 0, 48, 98
2, 97047, Note_off_c, 0, 55, 64
2, 97077, Control_c, 0, 64, 63
2, 97078, Control_c, 0, 64, 127
2, 97109, Control_c, 0, 64, 63
2, 97110, Note_on_c, 0, 55, 84
2, 97111, Note_off_c, 0, 65, 64
2, 97112, Control_c, 0, 64, 0
2, 97115, Note_on_c, 0, 60, 100
2, 97115, Note_on_c, 0, 63, 103
2, 97119, Note_off_c, 0, 59, 64
2, 97124, Note_off_c, 0, 56, 64
2, 97145, Control_c, 0, 64, 63
2, 97156, Control_c, 0, 64, 0
2, 97179, Note_off_c, 0, 60, 64
2, 97184, Note_off_c, 0, 63, 64
2, 97201, Note_on_c, 0, 68, 104
2, 97201, Note_on_c, 0, 53, 84
2, 97204, Control_c, 0, 64, 63
2, 97205, Note_on_c, 0, 59, 84
2, 97206, Control_c, 0, 64, 0
2, 97211, Note_off_c, 0, 55, 64
2, 97246, Note_off_c, 0, 68, 64
2, 97258, Control_c, 0, 64, 63
2, 97266, Control_c, 0, 64, 127
2, 97272, Note_off_c, 0, 59, 64
2, 97280, Note_off_c, 0, 53, 64
2, 97292, Control_c, 0, 64, 63
2, 97293, Note_on_c, 0, 67, 101
2, 97294, Note_on_c, 0, 60, 100
2, 97295, Note_on_c, 0, 51, 108
2, 97296, Control_c, 0, 64, 0
2, 97323, Note_off_c, 0, 60, 64
2, 97323, Note_off_c, 0, 67, 64
2, 97325, Note_off_c, 0, 51, 64
2, 97327, Note_off_c, 0, 48, 64
2, 97470, Note_on_c, 0, 60, 102
2, 97473, Note_on_c, 0, 48, 75
2, 97474, Note_on_c, 0, 44, 106
2, 97475, Note_on_c, 0, 53, 84
2, 97475, Note_on_c, 0, 32, 96
2, 97492, Note_off_c, 0, 53, 64
2, 97498, Note_off_c, 0, 44, 64
2, 97498, Note_off_c, 0, 48, 64
2, 97500, Note_off_c, 0, 32, 64
2, 97500, Note_off_c, 0, 60, 64
2, 97602, Note_on_c, 0, 62, 84
2, 97603, Note_on_c, 0, 50, 83
2, 97604, Note_on_c, 0, 53, 84
2, 97605, Note_on_c, 0, 60, 99
2, 97605, Note_on_c, 0, 43, 102
2, 97606, Note_on_c, 0, 31, 96
2, 97612, Control_c, 0, 64, 63
2, 97615, Control_c, 0, 64, 127
2, 97630, Note_off_c, 0, 53, 64
2, 97630, Note_off_c, 0, 50, 64
2, 97631, Note_off_c, 0, 43, 64
2, 97632, Note_off_c, 0, 31, 64
2, 97639, Note_off_c, 0, 62, 64
2, 97646, Note_off_c, 0, 60, 64
2, 97957, Note_on_c, 0, 59, 69
2, 97966, Note_on_c, 0, 53, 71
2, 97966, Note_on_c, 0, 50, 36
2, 97967, Note_on_c, 0, 55, 66
2, 97974, Note_on_c, 0, 92, 87
2, 97981, Control_c, 0, 64, 63
2, 97986, Control_c, 0, 64, 0
2, 98029, Note_on_c, 0, 91, 77
2, 98030, Note_off_c, 0, 92, 64
2, 98040, Control_c, 0, 64, 63
2, 98046, Control_c, 0, 64, 127
2, 98073, Note_off_c, 0, 91, 64
2, 98076, Note_on_c, 0, 89, 78
2, 98116, Note_on_c, 0, 87, 98
2, 98119, Note_off_c, 0, 89, 64
2, 98157, Note_on_c, 0, 86, 97
2, 98167, Note_off_c, 0, 53, 64
2, 98174, Note_off_c, 0, 50, 64
2, 98179, Note_off_c, 0, 87, 64
2, 98193, Note_off_c, 0, 55, 64
2, 98193, Note_off_c, 0, 59, 64
2, 98197, Note_on_c, 0, 84, 84
2, 98198, Note_off_c, 0, 86, 64
2, 98227, Note_on_c, 0, 60, 117
2, 98232, Note_off_c, 0, 84, 64
2, 98234, Note_on_c, 0, 55, 78
2, 98235, Note_on_c, 0, 50, 76
2, 98240, Note_on_c, 0, 53, 75
2, 98241, Note_on_c, 0, 83, 91
2, 98284, Control_c, 0, 64, 63
2, 98291, Note_on_c, 0, 80, 100
2, 98292, Control_c, 0, 64, 0
2, 98301, Note_off_c, 0, 83, 64
2, 98324, Control_c, 0, 64, 63
2, 98331, Control_c, 0, 64, 127
2, 98334, Note_on_c, 0, 79, 87
2, 98356, Note_off_c, 0, 80, 64
2, 98358, Note_off_c, 0, 50, 64
2, 98366, Note_off_c, 0, 53, 64
2, 98372, Note_on_c, 0, 77, 86
2, 98373, Note_off_c, 0, 79, 64
2, 98374, Note_off_c, 0, 55, 64
2, 98398, Note_off_c, 0, 60, 64
2, 98412, Note_on_c, 0, 75, 100
2, 98415, Note_off_c, 0, 77, 64
2, 98455, Note_on_c, 0, 74, 88
2, 98459, Note_off_c, 0, 75, 64
2, 98495, Note_off_c, 0, 74, 64
2, 98503, Note_on_c, 0, 72, 85
2, 98504, Note_on_c, 0, 63, 114
2, 98507, Note_on_c, 0, 53, 72
2, 98508, Note_on_c, 0, 55, 70
2, 98534, Note_off_c, 0, 72, 64
2, 98534, Control_c, 0, 64, 63
2, 98541, Control_c, 0, 64, 0
2, 98546, Note_on_c, 0, 71, 89
2, 98587, Control_c, 0, 64, 63
2, 98595, Control_c, 0, 64, 127
2, 98596, Note_on_c, 0, 68, 92
2, 98601, Note_off_c, 0, 71, 64
2, 98647, Note_off_c, 0, 68, 64
2, 98651, Note_on_c, 0, 67, 71
2, 98657, Note_off_c, 0, 63, 64
2, 98673, Note_off_c, 0, 55, 64
2, 98682, Control_c, 0, 64, 63
2, 98684, Note_on_c, 0, 62, 98
2, 98686, Control_c, 0, 64, 0
2, 98687, Note_off_c, 0, 67, 64
2, 98697, Note_on_c, 0, 66, 85
2, 98717, Control_c, 0, 64, 63
2, 98718, Note_off_c, 0, 53, 64
2, 98727, Control_c, 0, 64, 127
2, 98735, Note_on_c, 0, 65, 85
2, 98736, Note_off_c, 0, 66, 64
2, 98770, Control_c, 0, 64, 63
2, 98774, Note_off_c, 0, 62, 64
2, 98775, Control_c, 0, 64, 0
2, 98784, Note_off_c, 0, 65, 64
2, 98787, Note_on_c, 0, 63, 94
2, 98789, Note_on_c, 0, 55, 82
2, 98799, Note_on_c, 0, 48, 64
2, 98825, Control_c, 0, 64, 63
2, 98832, Control_c, 0, 64, 127
2, 98914, Note_off_c, 0, 63, 64
2, 98922, Control_c, 0, 64, 63
2, 98926, Note_off_c, 0, 55, 64
2, 98928, Control_c, 0, 64, 0
2, 98932, Note_off_c, 0, 48, 64
2, 99083, Control_c, 0, 64, 63
2, 99090, Control_c, 0, 64, 127
2, 99093, Note_on_c, 0, 47, 78
2, 99095, Note_on_c, 0, 57, 63
2, 99095, Note_on_c, 0, 65, 77
2, 99097, Note_on_c, 0, 63, 67
2, 99123, Note_off_c, 0, 57, 64
2, 99129, Note_off_c, 0, 47, 64
2, 99228, Note_off_c, 0, 63, 64
2, 99238, Note_off_c, 0, 65, 64
2, 99390, Note_on_c, 0, 46, 103
2, 99396, Note_on_c, 0, 68, 80
2, 99403, Note_on_c, 0, 63, 67
2, 99406, Note_on_c, 0, 60, 50
2, 99410, Control_c, 0, 64, 63
2, 99416, Control_c, 0, 64, 0
2, 99452, Control_c, 0, 64, 63
2, 99460, Control_c, 0, 64, 127
2, 99470, Note_off_c, 0, 68, 64
2, 99481, Note_on_c, 0, 58, 78
2, 99494, Note_on_c, 0, 67, 75
2, 99498, Note_off_c, 0, 60, 64
2, 99517, Note_off_c, 0, 58, 64
2, 99534, Note_off_c, 0, 63, 64
2, 99546, Control_c, 0, 64, 63
2, 99547, Note_off_c, 0, 67, 64
2, 99553, Control_c, 0, 64, 0
2, 99567, Note_on_c, 0, 72, 73
2, 99569, Note_on_c, 0, 56, 72
2, 99574, Control_c, 0, 64, 63
2, 99582, Note_on_c, 0, 62, 46
2, 99589, Control_c, 0, 64, 127
2, 99594, Note_off_c, 0, 72, 64
2, 99602, Control_c, 0, 64, 63
2, 99610, Control_c, 0, 64, 0
2, 99618, Note_off_c, 0, 56, 64
2, 99656, Control_c, 0, 64, 63
2, 99659, Note_off_c, 0, 62, 64
2, 99663, Note_on_c, 0, 55, 63
2, 99663, Note_on_c, 0, 70, 93
2, 99664, Control_c, 0, 64, 127
2, 99665, Note_on_c, 0, 63, 87
2, 99682, Note_off_c, 0, 55, 64
2, 99684, Note_off_c, 0, 70, 64
2, 99684, Control_c, 0, 64, 63
2, 99685, Note_off_c, 0, 63, 64
2, 99693, Control_c, 0, 64, 0
2, 99695, Note_off_c, 0, 46, 64
2, 99840, Note_on_c, 0, 47, 84
2, 99842, Note_on_c, 0, 63, 91
2, 99842, Note_on_c, 0, 35, 80
2, 99843, Note_on_c, 0, 53, 77
2, 99845, Note_on_c, 0, 57, 68
2, 99853, Note_off_c, 0, 47, 64
2, 99859, Note_off_c, 0, 35, 64
2, 99868, Note_off_c, 0, 57, 64
2, 99869, Note_off_c, 0, 53, 64
2, 99871, Note_off_c, 0, 63, 64
2, 99957, Control_c, 0, 64, 63
2, 99961, Control_c, 0, 64, 127
2, 99966, Note_on_c, 0, 65, 73
2, 99968, Note_on_c, 0, 58, 59
2, 99970, Note_on_c, 0, 63, 77
2, 99971, Note_on_c, 0, 34, 90
2, 99972, Note_on_c, 0, 46, 79
2, 99975, Note_on_c, 0, 53, 30
2, 99988, Note_off_c, 0, 34, 64
2, 99989, Note_off_c, 0, 46, 64
2, 99993, Note_off_c, 0, 53, 64
2, 99993, Note_off_c, 0, 65, 64
2, 99995, Note_off_c, 0, 58, 64
2, 100009, Note_off_c, 0, 63, 64
2, 100311, Control_c, 0, 64, 63
2, 100318, Control_c, 0, 64, 0
2, 100329, Note_on_c, 0, 62, 87
2, 100332, Note_on_c, 0, 58, 78
2, 100333, Note_on_c, 0, 53, 63
2, 100335, Note_on_c, 0, 56, 73
2, 100336, Note_on_c, 0, 96, 76
2, 100384, Control_c, 0, 64, 63
2, 100387, Note_on_c, 0, 94, 83
2, 100392, Note_off_c, 0, 96, 64
2, 100394, Control_c, 0, 64, 127
2, 100433, Note_on_c, 0, 92, 90
2, 100443, Note_off_c, 0, 94, 64
2, 100485, Note_on_c, 0, 91, 85
2, 100503, Note_off_c, 0, 92, 64
2, 100518, Note_off_c, 0, 53, 64
2, 100521, Note_off_c, 0, 56, 64
2, 100527, Note_on_c, 0, 89, 84
2, 100528, Note_off_c, 0, 62, 64
2, 100529, Note_off_c, 0, 91, 64
2, 100534, Note_off_c, 0, 58, 64
2, 100564, Note_on_c, 0, 87, 110
2, 100571, Note_off_c, 0, 89, 64
2, 100611, Note_on_c, 0, 86, 101
2, 100619, Note_on_c, 0, 63, 110
2, 100622, Note_on_c, 0, 58, 89
2, 100624, Note_on_c, 0, 53, 77
2, 100626, Note_on_c, 0, 56, 88
2, 100630, Note_off_c, 0, 87, 64
2, 100652, Note_off_c, 0, 86, 64
2, 100654, Note_on_c, 0, 84, 89
2, 100659, Control_c, 0, 64, 63
2, 100667, Control_c, 0, 64, 0
2, 100702, Note_off_c, 0, 84, 64
2, 100704, Note_on_c, 0, 82, 101
2, 100710, Control_c, 0, 64, 63
2, 100718, Control_c, 0, 64, 127
2, 100746, Note_on_c, 0, 80, 101
2, 100758, Note_off_c, 0, 56, 64
2, 100759, Note_off_c, 0, 53, 64
2, 100762, Note_off_c, 0, 82, 64
2, 100769, Note_off_c, 0, 58, 64
2, 100774, Note_off_c, 0, 63, 64
2, 100790, Note_on_c, 0, 79, 96
2, 100804, Note_off_c, 0, 80, 64
2, 100834, Note_off_c, 0, 79, 64
2, 100834, Note_on_c, 0, 77, 84
2, 100881, Note_off_c, 0, 77, 64
2, 100883, Note_on_c, 0, 75, 95
2, 100884, Note_on_c, 0, 67, 86
2, 100889, Note_on_c, 0, 56, 75
2, 100890, Note_on_c, 0, 58, 67
2, 100898, Control_c, 0, 64, 63
2, 100905, Control_c, 0, 64, 0
2, 100933, Note_off_c, 0, 75, 64
2, 100938, Note_on_c, 0, 74, 76
2, 100948, Control_c, 0, 64, 63
2, 100959, Control_c, 0, 64, 127
2, 100977, Note_off_c, 0, 74, 64
2, 100984, Note_on_c, 0, 72, 76
2, 100999, Note_off_c, 0, 67, 64
2, 101031, Note_off_c, 0, 72, 64
2, 101035, Note_on_c, 0, 70, 81
2, 101081, Control_c, 0, 64, 63
2, 101085, Note_on_c, 0, 65, 63
2, 101087, Control_c, 0, 64, 0
2, 101087, Note_on_c, 0, 69, 74
2, 101088, Note_off_c, 0, 70, 64
2, 101117, Control_c, 0, 64, 63
2, 101127, Note_off_c, 0, 58, 64
2, 101128, Note_off_c, 0, 56, 64
2, 101128, Control_c, 0, 64, 127
2, 101130, Note_off_c, 0, 65, 64
2, 101134, Note_on_c, 0, 68, 83
2, 101140, Note_off_c, 0, 69, 64
2, 101202, Note_off_c, 0, 68, 64
2, 101203, Control_c, 0, 64, 63
2, 101210, Control_c, 0, 64, 0
2, 101212, Note_on_c, 0, 63, 67
2, 101213, Note_on_c, 0, 67, 69
2, 101213, Note_on_c, 0, 58, 57
2, 101224, Note_on_c, 0, 51, 55
2, 101254, Control_c, 0, 64, 63
2, 101261, Control_c, 0, 64, 127
2, 101269, Note_on_c, 0, 68, 80
2, 101270, Note_off_c, 0, 67, 64
2, 101315, Note_off_c, 0, 58, 64
2, 101320, Note_on_c, 0, 70, 82
2, 101321, Note_off_c, 0, 68, 64
2, 101321, Note_off_c, 0, 63, 64
2, 101326, Note_off_c, 0, 51, 64
2, 101357, Note_off_c, 0, 70, 64
2, 101368, Note_on_c, 0, 72, 72
2, 101414, Note_on_c, 0, 74, 63
2, 101422, Note_off_c, 0, 72, 64
2, 101459, Note_on_c, 0, 75, 90
2, 101463, Note_off_c, 0, 74, 64
2, 101466, Control_c, 0, 64, 63
2, 101475, Control_c, 0, 64, 0
2, 101502, Note_on_c, 0, 80, 80
2, 101506, Note_off_c, 0, 75, 64
2, 101506, Control_c, 0, 64, 63
2, 101507, Note_on_c, 0, 48, 81
2, 101516, Control_c, 0, 64, 127
2, 101537, Note_off_c, 0, 48, 64
2, 101555, Note_on_c, 0, 79, 82
2, 101560, Note_off_c, 0, 80, 64
2, 101597, Note_on_c, 0, 77, 81
2, 101598, Note_on_c, 0, 63, 73
2, 101605, Note_off_c, 0, 79, 64
2, 101633, Note_on_c, 0, 75, 95
2, 101649, Note_off_c, 0, 77, 64
2, 101673, Note_off_c, 0, 63, 64
2, 101681, Note_off_c, 0, 75, 64
2, 101685, Note_on_c, 0, 74, 74
2, 101687, Note_on_c, 0, 56, 83
2, 101707, Control_c, 0, 64, 63
2, 101716, Control_c, 0, 64, 0
2, 101717, Note_off_c, 0, 74, 64
2, 101722, Note_on_c, 0, 72, 98
2, 101758, Control_c, 0, 64, 63
2, 101770, Control_c, 0, 64, 127
2, 101772, Note_on_c, 0, 70, 105
2, 101775, Note_on_c, 0, 53, 81
2, 101780, Note_off_c, 0, 72, 64
2, 101784, Note_off_c, 0, 56, 64
2, 101814, Note_on_c, 0, 68, 96
2, 101828, Note_off_c, 0, 70, 64
2, 101856, Note_off_c, 0, 68, 64
2, 101860, Note_on_c, 0, 67, 75
2, 101864, Control_c, 0, 64, 63
2, 101867, Note_on_c, 0, 60, 78
2, 101874, Control_c, 0, 64, 0
2, 101894, Note_off_c, 0, 67, 64
2, 101908, Note_on_c, 0, 65, 76
2, 101941, Note_off_c, 0, 65, 64
2, 101947, Control_c, 0, 64, 63
2, 101952, Note_on_c, 0, 64, 71
2, 101963, Control_c, 0, 64, 127
2, 101965, Note_on_c, 0, 56, 77
2, 101971, Note_off_c, 0, 53, 64
2, 101974, Note_off_c, 0, 60, 64
2, 101986, Note_off_c, 0, 64, 64
2, 101993, Note_on_c, 0, 65, 77
2, 101996, Note_off_c, 0, 56, 64
2, 102039, Note_off_c, 0, 65, 64
2, 102044, Note_on_c, 0, 67, 50
2, 102051, Note_on_c, 0, 46, 86
2, 102053, Control_c, 0, 64, 63
2, 102062, Control_c, 0, 64, 0
2, 102078, Note_off_c, 0, 46, 64
2, 102084, Note_on_c, 0, 68, 85
2, 102086, Note_off_c, 0, 67, 64
2, 102089, Control_c, 0, 64, 63
2, 102102, Control_c, 0, 64, 127
2, 102120, Note_off_c, 0, 68, 64
2, 102129, Note_on_c, 0, 69, 73
2, 102138, Note_on_c, 0, 62, 67
2, 102158, Control_c, 0, 64, 63
2, 102166, Note_on_c, 0, 70, 78
2, 102167, Control_c, 0, 64, 0
2, 102168, Note_off_c, 0, 69, 64
2, 102199, Note_off_c, 0, 70, 64
2, 102214, Note_on_c, 0, 72, 86
2, 102222, Note_on_c, 0, 56, 80
2, 102238, Note_off_c, 0, 62, 64
2, 102261, Note_on_c, 0, 70, 99
2, 102269, Note_off_c, 0, 72, 64
2, 102298, Note_off_c, 0, 70, 64
2, 102305, Note_on_c, 0, 51, 88
2, 102306, Note_off_c, 0, 56, 64
2, 102308, Note_on_c, 0, 67, 71
2, 102337, Control_c, 0, 64, 63
2, 102338, Control_c, 0, 64, 127
2, 102349, Note_off_c, 0, 67, 64
2, 102350, Note_on_c, 0, 68, 90
2, 102389, Note_on_c, 0, 70, 97
2, 102391, Note_off_c, 0, 68, 64
2, 102398, Note_on_c, 0, 63, 84
2, 102416, Note_off_c, 0, 70, 64
2, 102433, Note_on_c, 0, 72, 92
2, 102438, Note_off_c, 0, 51, 64
2, 102455, Note_off_c, 0, 63, 64
2, 102475, Note_off_c, 0, 72, 64
2, 102476, Note_on_c, 0, 74, 99
2, 102491, Note_on_c, 0, 55, 45
2, 102512, Note_on_c, 0, 75, 106
2, 102521, Note_off_c, 0, 55, 64
2, 102522, Note_off_c, 0, 74, 64
2, 102547, Control_c, 0, 64, 63
2, 102552, Control_c, 0, 64, 0
2, 102560, Note_on_c, 0, 80, 99
2, 102567, Note_on_c, 0, 48, 106
2, 102568, Note_off_c, 0, 75, 64
2, 102590, Control_c, 0, 64, 63
2, 102599, Control_c, 0, 64, 127
2, 102601, Note_off_c, 0, 48, 64
2, 102612, Note_on_c, 0, 79, 89
2, 102616, Note_off_c, 0, 80, 64
2, 102653, Note_on_c, 0, 77, 86
2, 102654, Note_on_c, 0, 63, 97
2, 102663, Note_off_c, 0, 79, 64
2, 102692, Note_off_c, 0, 63, 64
2, 102694, Note_on_c, 0, 75, 93
2, 102708, Note_off_c, 0, 77, 64
2, 102735, Note_off_c, 0, 75, 64
2, 102738, Note_on_c, 0, 56, 83
2, 102741, Note_on_c, 0, 74, 64
2, 102775, Note_off_c, 0, 74, 64
2, 102779, Note_on_c, 0, 72, 86
2, 102798, Note_off_c, 0, 56, 64
2, 102809, Control_c, 0, 64, 63
2, 102814, Control_c, 0, 64, 0
2, 102821, Note_on_c, 0, 53, 84
2, 102825, Note_on_c, 0, 70, 94
2, 102832, Note_off_c, 0, 72, 64
2, 102869, Note_on_c, 0, 68, 90
2, 102882, Note_off_c, 0, 70, 64
2, 102908, Note_on_c, 0, 60, 51
2, 102912, Note_off_c, 0, 68, 64
2, 102916, Note_on_c, 0, 67, 64
2, 102952, Note_off_c, 0, 67, 64
2, 102960, Note_on_c, 0, 65, 80
2, 103000, Note_off_c, 0, 65, 64
2, 103006, Note_on_c, 0, 64, 76
2, 103008, Note_off_c, 0, 53, 64
2, 103011, Note_on_c, 0, 56, 74
2, 103019, Note_off_c, 0, 60, 64
2, 103023, Control_c, 0, 64, 63
2, 103024, Control_c, 0, 64, 127
2, 103041, Note_off_c, 0, 64, 64
2, 103044, Note_on_c, 0, 65, 76
2, 103048, Note_off_c, 0, 56, 64
2, 103092, Note_off_c, 0, 65, 64
2, 103092, Note_on_c, 0, 67, 75
2, 103094, Note_on_c, 0, 46, 88
2, 103110, Note_off_c, 0, 46, 64
2, 103134, Note_on_c, 0, 68, 95
2, 103140, Note_off_c, 0, 67, 64
2, 103169, Note_on_c, 0, 62, 78
2, 103171, Note_off_c, 0, 68, 64
2, 103176, Note_on_c, 0, 69, 81
2, 103197, Control_c, 0, 64, 63
2, 103200, Control_c, 0, 64, 0
2, 103217, Note_off_c, 0, 69, 64
2, 103217, Note_on_c, 0, 70, 97
2, 103256, Note_off_c, 0, 70, 64
2, 103258, Note_on_c, 0, 56, 73
2, 103260, Note_on_c, 0, 72, 85
2, 103272, Note_off_c, 0, 62, 64
2, 103303, Note_on_c, 0, 70, 95
2, 103313, Note_off_c, 0, 72, 64
2, 103336, Note_off_c, 0, 56, 64
2, 103343, Note_off_c, 0, 70, 64
2, 103354, Note_on_c, 0, 51, 80
2, 103355, Note_on_c, 0, 67, 63
2, 103375, Control_c, 0, 64, 63
2, 103376, Control_c, 0, 64, 127
2, 103396, Note_on_c, 0, 68, 88
2, 103397, Note_off_c, 0, 67, 64
2, 103442, Note_on_c, 0, 70, 95
2, 103444, Note_off_c, 0, 68, 64
2, 103449, Note_on_c, 0, 61, 61
2, 103475, Note_off_c, 0, 70, 64
2, 103490, Note_on_c, 0, 72, 55
2, 103518, Note_on_c, 0, 55, 47
2, 103519, Note_off_c, 0, 61, 64
2, 103533, Note_off_c, 0, 51, 64
2, 103535, Note_off_c, 0, 72, 64
2, 103536, Note_on_c, 0, 73, 105
2, 103569, Note_on_c, 0, 75, 104
2, 103572, Note_off_c, 0, 55, 64
2, 103579, Note_off_c, 0, 73, 64
2, 103613, Note_off_c, 0, 75, 64
2, 103615, Note_on_c, 0, 77, 96
2, 103618, Note_on_c, 0, 50, 102
2, 103660, Note_on_c, 0, 79, 99
2, 103663, Note_off_c, 0, 77, 64
2, 103700, Note_on_c, 0, 61, 83
2, 103701, Note_on_c, 0, 80, 112
2, 103716, Note_off_c, 0, 79, 64
2, 103737, Control_c, 0, 64, 63
2, 103745, Control_c, 0, 64, 0
2, 103745, Note_on_c, 0, 82, 108
2, 103761, Note_off_c, 0, 80, 64
2, 103771, Note_off_c, 0, 50, 64
2, 103784, Note_off_c, 0, 82, 64
2, 103787, Note_on_c, 0, 51, 115
2, 103789, Control_c, 0, 64, 63
2, 103797, Note_on_c, 0, 84, 97
2, 103800, Control_c, 0, 64, 127
2, 103840, Note_off_c, 0, 84, 64
2, 103841, Note_on_c, 0, 85, 108
2, 103851, Control_c, 0, 64, 63
2, 103859, Control_c, 0, 64, 0
2, 103863, Note_off_c, 0, 61, 64
2, 103877, Note_on_c, 0, 53, 98
2, 103880, Note_off_c, 0, 51, 64
2, 103882, Note_on_c, 0, 87, 108
2, 103891, Note_off_c, 0, 85, 64
2, 103903, Control_c, 0, 64, 63
2, 103914, Control_c, 0, 64, 127
2, 103920, Note_off_c, 0, 87, 64
2, 103927, Note_on_c, 0, 89, 91
2, 103967, Note_on_c, 0, 61, 95
2, 103969, Note_off_c, 0, 89, 64
2, 103973, Note_on_c, 0, 91, 100
2, 104011, Note_on_c, 0, 92, 104
2, 104018, Note_off_c, 0, 91, 64
2, 104035, Note_off_c, 0, 92, 64
2, 104061, Note_on_c, 0, 101, 77
2, 104066, Note_on_c, 0, 56, 76
2, 104082, Note_off_c, 0, 53, 64
2, 104087, Note_off_c, 0, 61, 64
2, 104104, Note_off_c, 0, 56, 64
2, 104105, Note_on_c, 0, 99, 90
2, 104112, Note_off_c, 0, 101, 64
2, 104149, Note_on_c, 0, 55, 106
2, 104151, Note_on_c, 0, 97, 100
2, 104166, Note_off_c, 0, 99, 64
2, 104177, Control_c, 0, 64, 63
2, 104185, Control_c, 0, 64, 0
2, 104195, Note_off_c, 0, 97, 64
2, 104198, Note_on_c, 0, 96, 90
2, 104230, Control_c, 0, 64, 63
2, 104234, Note_off_c, 0, 96, 64
2, 104236, Note_on_c, 0, 65, 65
2, 104239, Control_c, 0, 64, 127
2, 104245, Note_on_c, 0, 94, 93
2, 104279, Note_on_c, 0, 92, 88
2, 104288, Note_off_c, 0, 94, 64
2, 104326, Note_on_c, 0, 61, 69
2, 104329, Note_off_c, 0, 92, 64
2, 104331, Note_on_c, 0, 91, 82
2, 104345, Note_off_c, 0, 65, 64
2, 104366, Note_off_c, 0, 61, 64
2, 104369, Note_off_c, 0, 91, 64
2, 104372, Note_off_c, 0, 55, 64
2, 104379, Note_on_c, 0, 89, 66
2, 104422, Note_on_c, 0, 55, 116
2, 104423, Note_off_c, 0, 89, 64
2, 104426, Note_on_c, 0, 87, 88
2, 104446, Control_c, 0, 64, 63
2, 104455, Control_c, 0, 64, 0
2, 104473, Note_on_c, 0, 85, 82
2, 104477, Note_off_c, 0, 87, 64
2, 104487, Control_c, 0, 64, 63
2, 104501, Control_c, 0, 64, 127
2, 104513, Note_off_c, 0, 85, 64
2, 104514, Note_on_c, 0, 65, 60
2, 104521, Note_on_c, 0, 84, 73
2, 104557, Note_off_c, 0, 84, 64
2, 104561, Note_on_c, 0, 82, 103
2, 104601, Note_on_c, 0, 61, 76
2, 104602, Note_on_c, 0, 80, 96
2, 104612, Note_off_c, 0, 65, 64
2, 104615, Note_off_c, 0, 82, 64
2, 104633, Note_off_c, 0, 55, 64
2, 104641, Note_on_c, 0, 79, 97
2, 104656, Note_off_c, 0, 80, 64
2, 104659, Note_off_c, 0, 61, 64
2, 104687, Note_off_c, 0, 79, 64
2, 104687, Note_on_c, 0, 77, 92
2, 104688, Note_on_c, 0, 56, 113
2, 104697, Control_c, 0, 64, 63
2, 104704, Control_c, 0, 64, 0
2, 104731, Note_on_c, 0, 75, 104
2, 104738, Note_off_c, 0, 77, 64
2, 104761, Control_c, 0, 64, 63
2, 104771, Note_on_c, 0, 65, 85
2, 104775, Control_c, 0, 64, 127
2, 104778, Note_on_c, 0, 73, 103
2, 104788, Note_off_c, 0, 75, 64
2, 104816, Note_off_c, 0, 73, 64
2, 104816, Note_on_c, 0, 72, 87
2, 104851, Note_on_c, 0, 61, 80
2, 104854, Note_off_c, 0, 72, 64
2, 104856, Note_on_c, 0, 70, 100
2, 104861, Note_off_c, 0, 65, 64
2, 104897, Note_on_c, 0, 68, 100
2, 104909, Note_off_c, 0, 70, 64
2, 104914, Control_c, 0, 64, 63
2, 104920, Note_off_c, 0, 61, 64
2, 104924, Control_c, 0, 64, 0
2, 104940, Note_off_c, 0, 68, 64
2, 104947, Note_on_c, 0, 67, 86
2, 104950, Note_on_c, 0, 58, 93
2, 104951, Note_on_c, 0, 61, 76
2, 104955, Note_on_c, 0, 65, 52
2, 104961, Note_off_c, 0, 56, 64
2, 104965, Note_off_c, 0, 61, 64
2, 104973, Note_off_c, 0, 65, 64
2, 104977, Note_off_c, 0, 58, 64
2, 104987, Note_off_c, 0, 67, 64
2, 104994, Note_on_c, 0, 68, 90
2, 105039, Note_on_c, 0, 61, 86
2, 105044, Note_on_c, 0, 58, 77
2, 105045, Note_on_c, 0, 51, 90
2, 105052, Note_on_c, 0, 70, 88
2, 105058, Note_off_c, 0, 68, 64
2, 105061, Control_c, 0, 64, 63
2, 105069, Control_c, 0, 64, 127
2, 105077, Note_off_c, 0, 61, 64
2, 105081, Note_off_c, 0, 58, 64
2, 105082, Note_off_c, 0, 51, 64
2, 105089, Note_off_c, 0, 70, 64
2, 105102, Note_on_c, 0, 71, 80
2, 105141, Note_on_c, 0, 72, 77
2, 105146, Note_off_c, 0, 71, 64
2, 105158, Control_c, 0, 64, 63
2, 105174, Control_c, 0, 64, 0
2, 105185, Note_on_c, 0, 73, 93
2, 105188, Note_off_c, 0, 72, 64
2, 105228, Note_off_c, 0, 73, 64
2, 105228, Note_on_c, 0, 74, 77
2, 105273, Note_on_c, 0, 75, 78
2, 105287, Note_off_c, 0, 74, 64
2, 105329, Note_on_c, 0, 79, 65
2, 105331, Note_off_c, 0, 75, 64
2, 105378, Note_on_c, 0, 77, 77
2, 105384, Note_off_c, 0, 79, 64
2, 105434, Note_on_c, 0, 75, 81
2, 105441, Note_off_c, 0, 77, 64
2, 105486, Note_off_c, 0, 75, 64
2, 105493, Note_on_c, 0, 73, 74
2, 105553, Note_off_c, 0, 73, 64
2, 105576, Note_on_c, 0, 56, 83
2, 105579, Note_on_c, 0, 72, 66
2, 105611, Control_c, 0, 64, 63
2, 105624, Control_c, 0, 64, 127
2, 105633, Note_off_c, 0, 72, 64
2, 105639, Note_on_c, 0, 73, 75
2, 105696, Note_off_c, 0, 73, 64
2, 105696, Note_on_c, 0, 63, 67
2, 105702, Note_on_c, 0, 75, 85
2, 105742, Note_off_c, 0, 75, 64
2, 105748, Note_on_c, 0, 77, 78
2, 105781, Note_off_c, 0, 63, 64
2, 105795, Note_off_c, 0, 56, 64
2, 105801, Note_off_c, 0, 77, 64
2, 105801, Note_on_c, 0, 79, 82
2, 105801, Note_on_c, 0, 60, 68
2, 105841, Note_on_c, 0, 80, 89
2, 105846, Note_off_c, 0, 79, 64
2, 105853, Control_c, 0, 64, 63
2, 105860, Control_c, 0, 64, 0
2, 105884, Note_on_c, 0, 53, 84
2, 105888, Note_on_c, 0, 85, 90
2, 105892, Note_off_c, 0, 80, 64
2, 105903, Control_c, 0, 64, 63
2, 105919, Note_off_c, 0, 60, 64
2, 105919, Control_c, 0, 64, 127
2, 105924, Note_off_c, 0, 53, 64
2, 105943, Note_on_c, 0, 84, 84
2, 105945, Note_off_c, 0, 85, 64
2, 105982, Note_on_c, 0, 82, 92
2, 105993, Note_on_c, 0, 68, 72
2, 105995, Note_off_c, 0, 84, 64
2, 106037, Note_on_c, 0, 80, 84
2, 106055, Note_off_c, 0, 82, 64
2, 106066, Note_off_c, 0, 68, 64
2, 106075, Note_on_c, 0, 60, 76
2, 106083, Note_off_c, 0, 80, 64
2, 106083, Note_on_c, 0, 79, 61
2, 106120, Note_off_c, 0, 79, 64
2, 106124, Note_on_c, 0, 77, 96
2, 106163, Note_on_c, 0, 58, 93
2, 106167, Note_on_c, 0, 75, 99
2, 106171, Control_c, 0, 64, 63
2, 106174, Note_off_c, 0, 77, 64
2, 106177, Control_c, 0, 64, 0
2, 106181, Note_off_c, 0, 60, 64
2, 106217, Note_on_c, 0, 73, 99
2, 106226, Note_off_c, 0, 75, 64
2, 106239, Control_c, 0, 64, 63
2, 106260, Control_c, 0, 64, 127
2, 106261, Note_off_c, 0, 73, 64
2, 106265, Note_on_c, 0, 72, 83
2, 106267, Note_on_c, 0, 65, 65
2, 106300, Note_off_c, 0, 72, 64
2, 106304, Note_on_c, 0, 70, 96
2, 106347, Note_off_c, 0, 65, 64
2, 106349, Note_off_c, 0, 70, 64
2, 106350, Note_on_c, 0, 61, 88
2, 106352, Note_on_c, 0, 69, 94
2, 106360, Note_off_c, 0, 58, 64
2, 106377, Note_off_c, 0, 61, 64
2, 106394, Note_on_c, 0, 70, 95
2, 106397, Note_off_c, 0, 69, 64
2, 106406, Control_c, 0, 64, 63
2, 106414, Control_c, 0, 64, 0
2, 106430, Note_off_c, 0, 70, 64
2, 106430, Note_on_c, 0, 51, 94
2, 106444, Note_on_c, 0, 71, 90
2, 106455, Control_c, 0, 64, 63
2, 106463, Note_off_c, 0, 51, 64
2, 106476, Control_c, 0, 64, 127
2, 106478, Note_off_c, 0, 71, 64
2, 106488, Note_on_c, 0, 72, 90
2, 106525, Note_on_c, 0, 73, 93
2, 106527, Note_on_c, 0, 67, 80
2, 106529, Note_off_c, 0, 72, 64
2, 106564, Note_off_c, 0, 73, 64
2, 106569, Note_on_c, 0, 74, 89
2, 106614, Note_off_c, 0, 74, 64
2, 106614, Note_off_c, 0, 67, 64
2, 106617, Note_on_c, 0, 61, 64
2, 106625, Note_on_c, 0, 77, 57
2, 106669, Note_on_c, 0, 75, 101
2, 106677, Control_c, 0, 64, 63
2, 106679, Note_off_c, 0, 77, 64
2, 106679, Note_off_c, 0, 61, 64
2, 106689, Control_c, 0, 64, 0
2, 106708, Note_off_c, 0, 75, 64
2, 106715, Note_on_c, 0, 72, 83
2, 106716, Note_on_c, 0, 56, 85
2, 106748, Control_c, 0, 64, 63
2, 106757, Note_off_c, 0, 72, 64
2, 106760, Note_on_c, 0, 73, 95
2, 106767, Control_c, 0, 64, 127
2, 106804, Note_on_c, 0, 75, 104
2, 106809, Note_off_c, 0, 73, 64
2, 106812, Note_on_c, 0, 63, 83
2, 106844, Note_off_c, 0, 75, 64
2, 106850, Note_on_c, 0, 77, 90
2, 106868, Note_off_c, 0, 63, 64
2, 106882, Note_off_c, 0, 56, 64
2, 106882, Note_on_c, 0, 60, 66
2, 106896, Note_on_c, 0, 79, 94
2, 106901, Note_off_c, 0, 77, 64
2, 106933, Note_on_c, 0, 80, 109
2, 106941, Note_off_c, 0, 60, 64
2, 106947, Note_off_c, 0, 79, 64
2, 106960, Control_c, 0, 64, 63
2, 106969, Control_c, 0, 64, 0
2, 106978, Note_on_c, 0, 53, 107
2, 106982, Note_on_c, 0, 85, 101
2, 106991, Note_off_c, 0, 80, 64
2, 107003, Control_c, 0, 64, 63
2, 107017, Control_c, 0, 64, 127
2, 107022, Note_off_c, 0, 53, 64
2, 107031, Note_on_c, 0, 84, 91
2, 107045, Note_off_c, 0, 85, 64
2, 107071, Note_on_c, 0, 82, 104
2, 107076, Note_on_c, 0, 68, 98
2, 107086, Note_off_c, 0, 84, 64
2, 107116, Note_on_c, 0, 80, 100
2, 107127, Note_off_c, 0, 68, 64
2, 107136, Note_off_c, 0, 82, 64
2, 107156, Note_on_c, 0, 60, 89
2, 107162, Note_off_c, 0, 80, 64
2, 107164, Note_on_c, 0, 79, 77
2, 107193, Note_off_c, 0, 79, 64
2, 107205, Note_on_c, 0, 77, 84
2, 107216, Note_off_c, 0, 60, 64
2, 107243, Control_c, 0, 64, 63
2, 107250, Control_c, 0, 64, 0
2, 107251, Note_on_c, 0, 58, 105
2, 107253, Note_on_c, 0, 75, 100
2, 107259, Note_off_c, 0, 77, 64
2, 107294, Note_on_c, 0, 73, 98
2, 107312, Note_off_c, 0, 75, 64
2, 107322, Control_c, 0, 64, 63
2, 107335, Control_c, 0, 64, 127
2, 107339, Note_off_c, 0, 73, 64
2, 107341, Note_on_c, 0, 72, 80
2, 107346, Note_on_c, 0, 65, 70
2, 107374, Note_off_c, 0, 72, 64
2, 107384, Note_on_c, 0, 70, 89
2, 107433, Note_off_c, 0, 70, 64
2, 107433, Note_off_c, 0, 65, 64
2, 107434, Note_on_c, 0, 69, 92
2, 107436, Note_on_c, 0, 61, 87
2, 107446, Control_c, 0, 64, 63
2, 107453, Control_c, 0, 64, 0
2, 107455, Note_off_c, 0, 58, 64
2, 107469, Note_off_c, 0, 61, 64
2, 107476, Note_off_c, 0, 69, 64
2, 107477, Note_on_c, 0, 70, 97
2, 107507, Control_c, 0, 64, 63
2, 107522, Note_off_c, 0, 70, 64
2, 107523, Note_on_c, 0, 51, 90
2, 107524, Control_c, 0, 64, 127
2, 107527, Note_on_c, 0, 71, 80
2, 107544, Note_off_c, 0, 51, 64
2, 107570, Note_off_c, 0, 71, 64
2, 107572, Note_on_c, 0, 72, 80
2, 107608, Note_on_c, 0, 67, 65
2, 107611, Note_on_c, 0, 73, 92
2, 107615, Note_off_c, 0, 72, 64
2, 107643, Note_off_c, 0, 73, 64
2, 107653, Note_on_c, 0, 74, 81
2, 107688, Note_off_c, 0, 74, 64
2, 107693, Note_on_c, 0, 77, 88
2, 107695, Note_off_c, 0, 67, 64
2, 107702, Note_on_c, 0, 61, 76
2, 107729, Control_c, 0, 64, 63
2, 107744, Note_on_c, 0, 75, 100
2, 107748, Control_c, 0, 64, 0
2, 107754, Note_off_c, 0, 77, 64
2, 107780, Note_off_c, 0, 75, 64
2, 107788, Note_on_c, 0, 72, 74
2, 107797, Note_off_c, 0, 61, 64
2, 107798, Note_on_c, 0, 56, 75
2, 107836, Note_off_c, 0, 72, 64
2, 107840, Note_on_c, 0, 73, 94
2, 107841, Control_c, 0, 64, 63
2, 107854, Control_c, 0, 64, 127
2, 107890, Note_on_c, 0, 75, 84
2, 107892, Note_off_c, 0, 73, 64
2, 107909, Note_on_c, 0, 66, 64
2, 107924, Note_off_c, 0, 75, 64
2, 107937, Note_on_c, 0, 77, 76
2, 107975, Note_off_c, 0, 77, 64
2, 107976, Note_off_c, 0, 66, 64
2, 107983, Note_on_c, 0, 79, 67
2, 108001, Note_on_c, 0, 60, 48
2, 108009, Note_off_c, 0, 56, 64
2, 108024, Note_off_c, 0, 60, 64
2, 108025, Note_on_c, 0, 80, 90
2, 108030, Note_off_c, 0, 79, 64
2, 108077, Note_on_c, 0, 82, 91
2, 108079, Note_on_c, 0, 55, 112
2, 108081, Note_off_c, 0, 80, 64
2, 108112, Note_off_c, 0, 82, 64
2, 108137, Note_on_c, 0, 84, 71
2, 108169, Note_off_c, 0, 84, 64
2, 108179, Note_on_c, 0, 66, 84
2, 108180, Note_on_c, 0, 85, 90
2, 108221, Note_on_c, 0, 87, 100
2, 108227, Note_off_c, 0, 85, 64
2, 108244, Note_off_c, 0, 55, 64
2, 108260, Note_off_c, 0, 87, 64
2, 108268, Note_off_c, 0, 66, 64
2, 108268, Note_on_c, 0, 89, 89
2, 108270, Note_on_c, 0, 56, 120
2, 108317, Note_on_c, 0, 90, 103
2, 108319, Note_off_c, 0, 89, 64
2, 108345, Note_off_c, 0, 56, 64
2, 108360, Note_off_c, 0, 90, 64
2, 108361, Note_on_c, 0, 58, 113
2, 108362, Note_on_c, 0, 96, 94
2, 108407, Note_on_c, 0, 94, 104
2, 108420, Note_off_c, 0, 96, 64
2, 108421, Control_c, 0, 64, 63
2, 108429, Control_c, 0, 64, 0
2, 108454, Note_on_c, 0, 66, 86
2, 108454, Note_on_c, 0, 92, 98
2, 108468, Note_off_c, 0, 94, 64
2, 108488, Control_c, 0, 64, 63
2, 108495, Control_c, 0, 64, 127
2, 108501, Note_on_c, 0, 90, 104
2, 108526, Note_off_c, 0, 92, 64
2, 108546, Note_on_c, 0, 89, 76
2, 108548, Note_off_c, 0, 90, 64
2, 108554, Note_on_c, 0, 61, 89
2, 108566, Note_off_c, 0, 66, 64
2, 108573, Note_off_c, 0, 58, 64
2, 108590, Note_off_c, 0, 61, 64
2, 108591, Note_off_c, 0, 89, 64
2, 108592, Note_on_c, 0, 87, 103
2, 108624, Note_off_c, 0, 87, 64
2, 108636, Note_on_c, 0, 89, 75
2, 108637, Note_on_c, 0, 60, 111
2, 108653, Control_c, 0, 64, 63
2, 108663, Control_c, 0, 64, 0
2, 108682, Note_on_c, 0, 87, 100
2, 108690, Note_off_c, 0, 89, 64
2, 108697, Control_c, 0, 64, 63
2, 108710, Control_c, 0, 64, 127
2, 108725, Note_on_c, 0, 85, 98
2, 108728, Note_on_c, 0, 70, 70
2, 108737, Note_off_c, 0, 87, 64
2, 108767, Note_off_c, 0, 85, 64
2, 108771, Note_on_c, 0, 84, 85
2, 108801, Note_off_c, 0, 70, 64
2, 108807, Note_off_c, 0, 84, 64
2, 108821, Note_on_c, 0, 82, 94
2, 108827, Note_on_c, 0, 66, 89
2, 108848, Note_off_c, 0, 60, 64
2, 108860, Note_off_c, 0, 66, 64
2, 108862, Note_on_c, 0, 84, 84
2, 108865, Note_off_c, 0, 82, 64
2, 108899, Control_c, 0, 64, 63
2, 108910, Control_c, 0, 64, 0
2, 108911, Note_on_c, 0, 60, 114
2, 108918, Note_on_c, 0, 82, 100
2, 108924, Note_off_c, 0, 84, 64
2, 108947, Control_c, 0, 64, 63
2, 108959, Control_c, 0, 64, 127
2, 108960, Note_on_c, 0, 80, 94
2, 108973, Note_off_c, 0, 82, 64
2, 109009, Note_on_c, 0, 78, 96
2, 109010, Note_on_c, 0, 70, 76
2, 109018, Note_off_c, 0, 80, 64
2, 109050, Note_off_c, 0, 78, 64
2, 109054, Note_on_c, 0, 77, 74
2, 109086, Note_off_c, 0, 70, 64
2, 109095, Note_on_c, 0, 75, 98
2, 109097, Note_off_c, 0, 77, 64
2, 109104, Note_on_c, 0, 66, 78
2, 109133, Note_on_c, 0, 77, 100
2, 109143, Note_off_c, 0, 60, 64
2, 109145, Note_off_c, 0, 75, 64
2, 109162, Note_off_c, 0, 66, 64
2, 109185, Note_on_c, 0, 61, 121
2, 109185, Note_on_c, 0, 75, 109
2, 109186, Control_c, 0, 64, 63
2, 109195, Control_c, 0, 64, 0
2, 109206, Note_off_c, 0, 77, 64
2, 109232, Note_on_c, 0, 73, 105
2, 109233, Control_c, 0, 64, 63
2, 109244, Control_c, 0, 64, 127
2, 109255, Note_off_c, 0, 75, 64
2, 109276, Note_on_c, 0, 68, 93
2, 109280, Note_on_c, 0, 72, 94
2, 109286, Note_off_c, 0, 73, 64
2, 109325, Note_on_c, 0, 73, 103
2, 109331, Note_off_c, 0, 68, 64
2, 109332, Note_off_c, 0, 72, 64
2, 109346, Note_off_c, 0, 61, 64
2, 109364, Note_on_c, 0, 62, 109
2, 109374, Note_on_c, 0, 72, 96
2, 109378, Note_off_c, 0, 73, 64
2, 109414, Note_off_c, 0, 72, 64
2, 109417, Note_on_c, 0, 70, 108
2, 109471, Note_off_c, 0, 62, 64
2, 109473, Control_c, 0, 64, 63
2, 109477, Control_c, 0, 64, 0
2, 109477, Note_on_c, 0, 63, 112
2, 109478, Note_on_c, 0, 66, 118
2, 109480, Note_on_c, 0, 68, 100
2, 109485, Note_off_c, 0, 70, 64
2, 109517, Control_c, 0, 64, 63
2, 109523, Control_c, 0, 64, 127
2, 109529, Note_off_c, 0, 68, 64
2, 109535, Note_on_c, 0, 69, 77
2, 109571, Note_off_c, 0, 69, 64
2, 109592, Note_on_c, 0, 81, 70
2, 109633, Note_on_c, 0, 78, 94
2, 109634, Note_off_c, 0, 81, 64
2, 109675, Note_on_c, 0, 75, 103
2, 109685, Note_off_c, 0, 78, 64
2, 109695, Control_c, 0, 64, 63
2, 109717, Control_c, 0, 64, 127
2, 109720, Note_on_c, 0, 72, 97
2, 109724, Note_off_c, 0, 75, 64
2, 109759, Note_off_c, 0, 66, 64
2, 109760, Note_off_c, 0, 72, 64
2, 109763, Note_on_c, 0, 69, 86
2, 109778, Note_off_c, 0, 63, 64
2, 109799, Note_off_c, 0, 69, 64
2, 109809, Note_on_c, 0, 66, 106
2, 109856, Note_on_c, 0, 63, 112
2, 109857, Note_off_c, 0, 66, 64
2, 109894, Note_off_c, 0, 63, 64
2, 109896, Note_on_c, 0, 60, 104
2, 109927, Note_off_c, 0, 60, 64
2, 109938, Note_on_c, 0, 57, 91
2, 109982, Note_on_c, 0, 54, 109
2, 109983, Note_off_c, 0, 57, 64
2, 110016, Control_c, 0, 64, 63
2, 110019, Control_c, 0, 64, 0
2, 110036, Note_on_c, 0, 51, 119
2, 110039, Note_off_c, 0, 54, 64
2, 110043, Note_on_c, 0, 32, 108
2, 110044, Note_on_c, 0, 44, 113
2, 110050, Control_c, 0, 64, 63
2, 110056, Control_c, 0, 64, 127
2, 110102, Note_off_c, 0, 51, 64
2, 110103, Note_off_c, 0, 32, 64
2, 110120, Note_off_c, 0, 44, 64
2, 110177, Control_c, 0, 67, 127
2, 110219, Note_on_c, 0, 44, 89
2, 110265, Control_c, 0, 64, 63
2, 110272, Control_c, 0, 64, 0
2, 110273, Note_on_c, 0, 51, 77
2, 110324, Note_off_c, 0, 44, 64
2, 110334, Control_c, 0, 64, 63
2, 110341, Control_c, 0, 64, 127
2, 110344, Note_on_c, 0, 68, 80
2, 110347, Note_on_c, 0, 44, 67
2, 110348, Note_on_c, 0, 60, 63
2, 110349, Note_off_c, 0, 51, 64
2, 110396, Note_off_c, 0, 68, 64
2, 110401, Note_on_c, 0, 51, 57
2, 110402, Note_off_c, 0, 44, 64
2, 110431, Note_off_c, 0, 60, 64
2, 110453, Note_off_c, 0, 51, 64
2, 110454, Note_on_c, 0, 61, 83
2, 110459, Note_on_c, 0, 69, 57
2, 110470, Note_on_c, 0, 43, 23
2, 110503, Note_on_c, 0, 51, 55
2, 110521, Note_off_c, 0, 69, 64
2, 110542, Note_off_c, 0, 43, 64
2, 110545, Note_on_c, 0, 68, 89
2, 110547, Note_on_c, 0, 60, 67
2, 110548, Note_on_c, 0, 44, 85
2, 110549, Note_off_c, 0, 61, 64
2, 110556, Note_off_c, 0, 51, 64
2, 110578, Control_c, 0, 64, 63
2, 110591, Note_on_c, 0, 51, 61
2, 110593, Note_off_c, 0, 68, 64
2, 110594, Control_c, 0, 64, 0
2, 110613, Control_c, 0, 64, 63
2, 110632, Control_c, 0, 64, 127
2, 110632, Note_on_c, 0, 61, 75
2, 110633, Note_off_c, 0, 60, 64
2, 110636, Note_on_c, 0, 67, 61
2, 110640, Note_on_c, 0, 45, 73
2, 110643, Note_off_c, 0, 51, 64
2, 110656, Note_off_c, 0, 44, 64
2, 110688, Note_on_c, 0, 51, 72
2, 110706, Control_c, 0, 64, 63
2, 110716, Control_c, 0, 64, 0
2, 110729, Note_off_c, 0, 45, 64
2, 110737, Note_on_c, 0, 68, 83
2, 110739, Note_on_c, 0, 44, 76
2, 110744, Note_off_c, 0, 51, 64
2, 110744, Note_on_c, 0, 60, 55
2, 110749, Note_off_c, 0, 67, 64
2, 110750, Control_c, 0, 64, 63
2, 110755, Note_off_c, 0, 61, 64
2, 110763, Control_c, 0, 64, 127
2, 110787, Note_off_c, 0, 44, 64
2, 110789, Note_on_c, 0, 51, 61
2, 110806, Note_off_c, 0, 60, 64
2, 110809, Note_off_c, 0, 68, 64
2, 110831, Note_on_c, 0, 39, 105
2, 110833, Note_off_c, 0, 51, 64
2, 110855, Control_c, 0, 64, 63
2, 110867, Control_c, 0, 64, 0
2, 110869, Note_on_c, 0, 51, 63
2, 110915, Control_c, 0, 64, 63
2, 110917, Note_on_c, 0, 68, 97
2, 110919, Note_on_c, 0, 60, 84
2, 110923, Note_on_c, 0, 44, 91
2, 110924, Note_off_c, 0, 39, 64
2, 110926, Control_c, 0, 64, 127
2, 110935, Note_off_c, 0, 51, 64
2, 110962, Note_on_c, 0, 51, 79
2, 110992, Note_off_c, 0, 60, 64
2, 111000, Note_off_c, 0, 68, 64
2, 111009, Control_c, 0, 64, 63
2, 111015, Control_c, 0, 64, 0
2, 111016, Note_on_c, 0, 69, 86
2, 111017, Note_on_c, 0, 61, 90
2, 111020, Note_on_c, 0, 43, 86
2, 111024, Note_off_c, 0, 51, 64
2, 111030, Note_off_c, 0, 44, 64
2, 111064, Note_on_c, 0, 51, 97
2, 111066, Control_c, 0, 64, 63
2, 111073, Note_off_c, 0, 69, 64
2, 111073, Control_c, 0, 64, 127
2, 111100, Note_on_c, 0, 68, 106
2, 111105, Note_on_c, 0, 60, 89
2, 111108, Note_on_c, 0, 44, 95
2, 111112, Note_off_c, 0, 61, 64
2, 111124, Note_off_c, 0, 51, 64
2, 111134, Note_off_c, 0, 43, 64
2, 111144, Note_on_c, 0, 51, 91
2, 111168, Note_off_c, 0, 68, 64
2, 111169, Note_off_c, 0, 44, 64
2, 111171, Note_off_c, 0, 60, 64
2, 111188, Control_c, 0, 64, 63
2, 111190, Note_on_c, 0, 61, 103
2, 111191, Note_on_c, 0, 67, 96
2, 111192, Control_c, 0, 64, 0
2, 111200, Note_on_c, 0, 45, 87
2, 111206, Note_off_c, 0, 51, 64
2, 111222, Control_c, 0, 64, 63
2, 111231, Control_c, 0, 64, 127
2, 111235, Note_on_c, 0, 51, 76
2, 111255, Note_off_c, 0, 45, 64
2, 111258, Note_off_c, 0, 67, 64
2, 111263, Control_c, 0, 64, 63
2, 111269, Control_c, 0, 64, 0
2, 111290, Note_on_c, 0, 68, 86
2, 111292, Note_on_c, 0, 44, 72
2, 111300, Note_off_c, 0, 51, 64
2, 111302, Note_on_c, 0, 60, 52
2, 111308, Note_off_c, 0, 61, 64
2, 111312, Control_c, 0, 64, 63
2, 111318, Control_c, 0, 64, 127
2, 111336, Note_off_c, 0, 68, 64
2, 111336, Note_on_c, 0, 51, 55
2, 111337, Note_off_c, 0, 44, 64
2, 111361, Note_off_c, 0, 60, 64
2, 111374, Control_c, 0, 67, 0
2, 111400, Note_off_c, 0, 51, 64
2, 111402, Note_on_c, 0, 39, 58
2, 111404, Note_on_c, 0, 60, 74
2, 111434, Note_on_c, 0, 51, 47
2, 111438, Note_off_c, 0, 39, 64
2, 111448, Note_off_c, 0, 60, 64
2, 111449, Note_on_c, 0, 63, 88
2, 111494, Note_on_c, 0, 44, 74
2, 111497, Note_off_c, 0, 51, 64
2, 111497, Note_on_c, 0, 68, 90
2, 111502, Note_off_c, 0, 63, 64
2, 111531, Note_on_c, 0, 51, 74
2, 111538, Note_off_c, 0, 44, 64
2, 111538, Note_on_c, 0, 70, 92
2, 111543, Note_off_c, 0, 68, 64
2, 111557, Note_off_c, 0, 70, 64
2, 111581, Note_on_c, 0, 39, 98
2, 111582, Note_off_c, 0, 51, 64
2, 111583, Note_on_c, 0, 72, 97
2, 111617, Note_on_c, 0, 51, 74
2, 111619, Note_off_c, 0, 72, 64
2, 111625, Note_on_c, 0, 75, 107
2, 111629, Note_off_c, 0, 39, 64
2, 111672, Note_on_c, 0, 80, 101
2, 111676, Note_on_c, 0, 44, 100
2, 111681, Note_off_c, 0, 75, 64
2, 111689, Note_off_c, 0, 51, 64
2, 111714, Note_on_c, 0, 82, 103
2, 111715, Note_on_c, 0, 51, 97
2, 111723, Note_off_c, 0, 80, 64
2, 111740, Note_off_c, 0, 82, 64
2, 111740, Note_off_c, 0, 44, 64
2, 111768, Note_on_c, 0, 84, 98
2, 111769, Note_on_c, 0, 39, 109
2, 111776, Note_off_c, 0, 51, 64
2, 111794, Note_off_c, 0, 84, 64
2, 111814, Note_on_c, 0, 96, 92
2, 111815, Note_on_c, 0, 51, 101
2, 111820, Note_off_c, 0, 39, 64
2, 111859, Note_on_c, 0, 94, 101
2, 111866, Note_off_c, 0, 96, 64
2, 111872, Note_on_c, 0, 44, 95
2, 111875, Note_off_c, 0, 51, 64
2, 111905, Note_on_c, 0, 51, 89
2, 111907, Note_on_c, 0, 92, 106
2, 111912, Note_off_c, 0, 94, 64
2, 111917, Note_off_c, 0, 44, 64
2, 111953, Note_off_c, 0, 92, 64
2, 111954, Note_on_c, 0, 87, 115
2, 111954, Note_on_c, 0, 39, 109
2, 111955, Note_off_c, 0, 51, 64
2, 111989, Note_on_c, 0, 51, 92
2, 111994, Note_off_c, 0, 87, 64
2, 111998, Note_on_c, 0, 84, 98
2, 111999, Note_off_c, 0, 39, 64
2, 112029, Note_off_c, 0, 84, 64
2, 112047, Note_on_c, 0, 82, 109
2, 112050, Note_on_c, 0, 44, 101
2, 112057, Note_off_c, 0, 51, 64
2, 112090, Note_on_c, 0, 80, 107
2, 112091, Note_on_c, 0, 51, 92
2, 112098, Note_off_c, 0, 44, 64
2, 112098, Note_off_c, 0, 82, 64
2, 112137, Note_off_c, 0, 80, 64
2, 112137, Note_on_c, 0, 75, 114
2, 112140, Note_off_c, 0, 51, 64
2, 112144, Note_on_c, 0, 39, 109
2, 112171, Note_off_c, 0, 75, 64
2, 112173, Note_on_c, 0, 51, 98
2, 112181, Note_on_c, 0, 72, 83
2, 112190, Note_off_c, 0, 39, 64
2, 112211, Note_off_c, 0, 72, 64
2, 112229, Note_on_c, 0, 68, 107
2, 112233, Note_on_c, 0, 44, 88
2, 112240, Note_off_c, 0, 51, 64
2, 112270, Note_off_c, 0, 44, 64
2, 112328, Note_off_c, 0, 68, 64
2, 112328, Note_on_c, 0, 63, 109
2, 112329, Note_on_c, 0, 44, 114
2, 112329, Note_on_c, 0, 32, 121
2, 112349, Note_off_c, 0, 32, 64
2, 112349, Note_off_c, 0, 44, 64
2, 112363, Note_off_c, 0, 63, 64
2, 112379, Note_on_c, 0, 60, 84
2, 112420, Note_off_c, 0, 60, 64
2, 112428, Control_c, 0, 64, 63
2, 112433, Control_c, 0, 64, 0
2, 112464, Note_on_c, 0, 43, 114
2, 112466, Note_on_c, 0, 31, 113
2, 112466, Note_on_c, 0, 69, 106
2, 112467, Note_on_c, 0, 61, 118
2, 112467, Note_on_c, 0, 64, 103
2, 112555, Control_c, 0, 64, 127
2, 112572, Note_off_c, 0, 31, 64
2, 112590, Note_off_c, 0, 61, 64
2, 112597, Note_off_c, 0, 64, 64
2, 112598, Note_off_c, 0, 43, 64
2, 112600, Note_off_c, 0, 69, 64
2, 112719, Control_c, 0, 67, 127
2, 112753, Note_on_c, 0, 69, 55
2, 112754, Control_c, 0, 64, 63
2, 112755, Note_on_c, 0, 61, 67
2, 112756, Note_on_c, 0, 64, 47
2, 112758, Note_on_c, 0, 55, 46
2, 112760, Control_c, 0, 64, 0
2, 112879, Note_on_c, 0, 62, 61
2, 112881, Note_on_c, 0, 71, 83
2, 112883, Note_on_c, 0, 67, 66
2, 112885, Note_off_c, 0, 64, 64
2, 112891, Note_off_c, 0, 69, 64
2, 112899, Control_c, 0, 64, 63
2, 112900, Note_off_c, 0, 61, 64
2, 112904, Control_c, 0, 64, 127
2, 112976, Note_on_c, 0, 69, 85
2, 112979, Note_on_c, 0, 61, 73
2, 112980, Note_off_c, 0, 71, 64
2, 112986, Note_on_c, 0, 64, 59
2, 112988, Note_off_c, 0, 67, 64
2, 112989, Note_off_c, 0, 62, 64
2, 113037, Note_off_c, 0, 69, 64
2, 113041, Control_c, 0, 64, 63
2, 113054, Control_c, 0, 64, 0
2, 113063, Note_off_c, 0, 64, 64
2, 113063, Note_on_c, 0, 59, 80
2, 113067, Note_on_c, 0, 74, 89
2, 113068, Note_on_c, 0, 67, 78
2, 113069, Note_off_c, 0, 61, 64
2, 113150, Note_off_c, 0, 74, 64
2, 113163, Note_on_c, 0, 57, 72
2, 113164, Note_on_c, 0, 73, 86
2, 113170, Note_on_c, 0, 64, 67
2, 113173, Note_off_c, 0, 67, 64
2, 113178, Control_c, 0, 64, 63
2, 113183, Control_c, 0, 64, 127
2, 113185, Note_off_c, 0, 59, 64
2, 113242, Note_off_c, 0, 73, 64
2, 113243, Note_off_c, 0, 64, 64
2, 113256, Note_off_c, 0, 55, 64
2, 113268, Note_off_c, 0, 57, 64
2, 113269, Control_c, 0, 64, 63
2, 113276, Control_c, 0, 64, 0
2, 113350, Note_on_c, 0, 61, 101
2, 113350, Note_on_c, 0, 55, 84
2, 113352, Note_on_c, 0, 69, 91
2, 113356, Note_on_c, 0, 64, 79
2, 113436, Note_off_c, 0, 64, 64
2, 113438, Note_off_c, 0, 69, 64
2, 113444, Note_on_c, 0, 71, 87
2, 113445, Note_on_c, 0, 62, 89
2, 113446, Note_on_c, 0, 67, 77
2, 113449, Note_off_c, 0, 61, 64
2, 113465, Control_c, 0, 64, 63
2, 113472, Control_c, 0, 64, 127
2, 113510, Control_c, 0, 64, 63
2, 113516, Control_c, 0, 64, 0
2, 113523, Note_on_c, 0, 61, 95
2, 113529, Note_off_c, 0, 62, 64
2, 113529, Note_on_c, 0, 69, 86
2, 113531, Note_off_c, 0, 67, 64
2, 113531, Note_on_c, 0, 64, 83
2, 113549, Note_off_c, 0, 71, 64
2, 113600, Note_off_c, 0, 69, 64
2, 113603, Note_off_c, 0, 64, 64
2, 113609, Note_off_c, 0, 61, 64
2, 113613, Note_on_c, 0, 59, 76
2, 113615, Note_on_c, 0, 74, 88
2, 113618, Note_on_c, 0, 67, 75
2, 113660, Note_off_c, 0, 67, 64
2, 113678, Note_off_c, 0, 74, 64
2, 113698, Note_off_c, 0, 59, 64
2, 113720, Note_on_c, 0, 57, 67
2, 113722, Note_on_c, 0, 73, 94
2, 113731, Note_on_c, 0, 64, 70
2, 113733, Note_off_c, 0, 55, 64
2, 113741, Note_off_c, 0, 57, 64
2, 113744, Control_c, 0, 64, 63
2, 113746, Control_c, 0, 64, 127
2, 113754, Note_off_c, 0, 73, 64
2, 113763, Note_off_c, 0, 64, 64
2, 113878, Control_c, 0, 64, 63
2, 113883, Control_c, 0, 64, 0
2, 113896, Note_on_c, 0, 31, 84
2, 113898, Note_on_c, 0, 63, 94
2, 113907, Control_c, 0, 64, 63
2, 113913, Control_c, 0, 64, 127
2, 113933, Note_off_c, 0, 63, 64
2, 113934, Note_off_c, 0, 31, 64
2, 113942, Note_on_c, 0, 64, 60
2, 113948, Note_on_c, 0, 45, 73
2, 113970, Control_c, 0, 67, 0
2, 113987, Note_off_c, 0, 64, 64
2, 113994, Note_off_c, 0, 45, 64
2, 113995, Note_on_c, 0, 33, 81
2, 113999, Note_on_c, 0, 69, 84
2, 114044, Note_off_c, 0, 69, 64
2, 114045, Note_on_c, 0, 45, 59
2, 114047, Note_on_c, 0, 73, 93
2, 114048, Note_off_c, 0, 33, 64
2, 114066, Note_off_c, 0, 73, 64
2, 114078, Note_off_c, 0, 45, 64
2, 114089, Note_on_c, 0, 31, 93
2, 114096, Note_on_c, 0, 76, 93
2, 114114, Note_off_c, 0, 31, 64
2, 114127, Note_off_c, 0, 76, 64
2, 114128, Note_on_c, 0, 45, 77
2, 114138, Note_on_c, 0, 81, 85
2, 114165, Note_off_c, 0, 45, 64
2, 114169, Note_on_c, 0, 33, 114
2, 114180, Note_on_c, 0, 85, 110
2, 114184, Note_off_c, 0, 81, 64
2, 114202, Note_off_c, 0, 33, 64
2, 114205, Note_off_c, 0, 85, 64
2, 114206, Note_on_c, 0, 45, 99
2, 114228, Note_on_c, 0, 88, 91
2, 114240, Note_off_c, 0, 45, 64
2, 114256, Note_on_c, 0, 31, 117
2, 114258, Note_off_c, 0, 88, 64
2, 114264, Note_on_c, 0, 93, 101
2, 114286, Note_off_c, 0, 31, 64
2, 114297, Note_off_c, 0, 93, 64
2, 114302, Note_on_c, 0, 45, 99
2, 114309, Note_on_c, 0, 98, 91
2, 114344, Note_off_c, 0, 45, 64
2, 114345, Note_on_c, 0, 97, 106
2, 114350, Note_on_c, 0, 33, 118
2, 114353, Note_off_c, 0, 98, 64
2, 114380, Note_off_c, 0, 33, 64
2, 114388, Note_on_c, 0, 45, 94
2, 114390, Note_on_c, 0, 93, 104
2, 114393, Note_off_c, 0, 97, 64
2, 114416, Note_off_c, 0, 45, 64
2, 114423, Note_off_c, 0, 93, 64
2, 114431, Note_on_c, 0, 31, 117
2, 114435, Note_on_c, 0, 88, 75
2, 114453, Note_off_c, 0, 31, 64
2, 114460, Note_off_c, 0, 88, 64
2, 114466, Note_on_c, 0, 45, 100
2, 114482, Note_on_c, 0, 85, 112
2, 114503, Note_off_c, 0, 45, 64
2, 114509, Note_on_c, 0, 33, 114
2, 114519, Note_on_c, 0, 81, 108
2, 114528, Note_off_c, 0, 85, 64
2, 114536, Note_off_c, 0, 33, 64
2, 114548, Note_on_c, 0, 45, 92
2, 114552, Note_off_c, 0, 81, 64
2, 114564, Note_on_c, 0, 76, 89
2, 114579, Note_off_c, 0, 45, 64
2, 114588, Note_off_c, 0, 76, 64
2, 114596, Note_on_c, 0, 31, 117
2, 114613, Note_on_c, 0, 73, 115
2, 114622, Note_off_c, 0, 31, 64
2, 114642, Note_on_c, 0, 45, 97
2, 114652, Note_on_c, 0, 69, 104
2, 114658, Note_off_c, 0, 73, 64
2, 114682, Note_off_c, 0, 69, 64
2, 114688, Note_off_c, 0, 45, 64
2, 114698, Note_on_c, 0, 64, 87
2, 114704, Note_on_c, 0, 33, 98
2, 114706, Note_on_c, 0, 35, 108
2, 114724, Note_off_c, 0, 64, 64
2, 114737, Note_off_c, 0, 35, 64
2, 114741, Note_off_c, 0, 33, 64
2, 114747, Note_on_c, 0, 45, 99
2, 114749, Note_on_c, 0, 61, 107
2, 114783, Note_off_c, 0, 45, 64
2, 114797, Note_off_c, 0, 61, 64
2, 114797, Note_on_c, 0, 57, 101
2, 114802, Note_on_c, 0, 31, 120
2, 114827, Note_off_c, 0, 57, 64
2, 114830, Note_off_c, 0, 31, 64
2, 114840, Note_on_c, 0, 52, 78
2, 114874, Control_c, 0, 64, 63
2, 114877, Note_off_c, 0, 52, 64
2, 114880, Control_c, 0, 64, 0
2, 114915, Note_on_c, 0, 61, 120
2, 114915, Note_on_c, 0, 58, 123
2, 114916, Note_on_c, 0, 42, 126
2, 114916, Note_on_c, 0, 30, 119
2, 114917, Note_on_c, 0, 52, 117
2, 114974, Control_c, 0, 64, 63
2, 114975, Control_c, 0, 64, 127
2, 114994, Note_off_c, 0, 52, 64
2, 115000, Note_off_c, 0, 30, 64
2, 115012, Note_off_c, 0, 58, 64
2, 115016, Note_off_c, 0, 42, 64
2, 115017, Note_off_c, 0, 61, 64
2, 115211, Note_on_c, 0, 70, 98
2, 115212, Note_on_c, 0, 54, 84
2, 115213, Note_on_c, 0, 61, 80
2, 115222, Note_on_c, 0, 64, 64
2, 115230, Control_c, 0, 64, 63
2, 115241, Control_c, 0, 64, 0
2, 115341, Control_c, 0, 64, 63
2, 115341, Note_on_c, 0, 62, 71
2, 115342, Note_off_c, 0, 64, 64
2, 115346, Note_on_c, 0, 67, 78
2, 115347, Note_on_c, 0, 71, 82
2, 115348, Control_c, 0, 64, 127
2, 115349, Note_off_c, 0, 70, 64
2, 115354, Note_off_c, 0, 61, 64
2, 115438, Note_on_c, 0, 61, 90
2, 115443, Note_on_c, 0, 70, 97
2, 115446, Note_off_c, 0, 62, 64
2, 115450, Note_on_c, 0, 64, 74
2, 115457, Note_off_c, 0, 67, 64
2, 115466, Note_off_c, 0, 71, 64
2, 115517, Note_off_c, 0, 64, 64
2, 115521, Note_on_c, 0, 59, 89
2, 115528, Note_on_c, 0, 74, 97
2, 115529, Note_on_c, 0, 67, 85
2, 115531, Note_off_c, 0, 61, 64
2, 115545, Note_off_c, 0, 70, 64
2, 115569, Control_c, 0, 64, 63
2, 115581, Control_c, 0, 64, 0
2, 115594, Note_off_c, 0, 74, 64
2, 115626, Note_on_c, 0, 58, 109
2, 115629, Note_on_c, 0, 73, 109
2, 115633, Note_on_c, 0, 64, 84
2, 115647, Note_off_c, 0, 59, 64
2, 115651, Note_off_c, 0, 67, 64
2, 115652, Control_c, 0, 64, 63
2, 115676, Control_c, 0, 64, 127
2, 115712, Note_off_c, 0, 64, 64
2, 115723, Note_off_c, 0, 73, 64
2, 115724, Note_off_c, 0, 54, 64
2, 115733, Note_off_c, 0, 58, 64
2, 115804, Control_c, 0, 64, 63
2, 115812, Note_on_c, 0, 70, 110
2, 115813, Note_on_c, 0, 54, 106
2, 115814, Note_on_c, 0, 61, 109
2, 115814, Note_on_c, 0, 64, 98
2, 115817, Control_c, 0, 64, 0
2, 115866, Control_c, 0, 64, 63
2, 115876, Control_c, 0, 64, 127
2, 115891, Note_off_c, 0, 64, 64
2, 115894, Note_off_c, 0, 70, 64
2, 115901, Note_on_c, 0, 67, 102
2, 115903, Note_on_c, 0, 62, 109
2, 115904, Note_on_c, 0, 71, 103
2, 115921, Note_off_c, 0, 61, 64
2, 115972, Note_off_c, 0, 67, 64
2, 115982, Note_on_c, 0, 61, 118
2, 115986, Note_on_c, 0, 70, 114
2, 115987, Note_on_c, 0, 64, 100
2, 115998, Note_off_c, 0, 62, 64
2, 116015, Note_off_c, 0, 71, 64
2, 116061, Note_off_c, 0, 64, 64
2, 116079, Note_on_c, 0, 59, 112
2, 116081, Note_on_c, 0, 67, 103
2, 116082, Note_on_c, 0, 74, 107
2, 116090, Control_c, 0, 64, 63
2, 116092, Note_off_c, 0, 70, 64
2, 116094, Note_off_c, 0, 61, 64
2, 116104, Control_c, 0, 64, 0
2, 116148, Note_off_c, 0, 74, 64
2, 116182, Note_on_c, 0, 58, 114
2, 116183, Note_on_c, 0, 73, 118
2, 116186, Note_on_c, 0, 64, 102
2, 116195, Control_c, 0, 64, 63
2, 116200, Control_c, 0, 64, 127
2, 116201, Note_off_c, 0, 59, 64
2, 116202, Note_off_c, 0, 67, 64
2, 116217, Note_off_c, 0, 64, 64
2, 116230, Note_off_c, 0, 73, 64
2, 116258, Note_off_c, 0, 54, 64
2, 116279, Note_off_c, 0, 58, 64
2, 116305, Control_c, 0, 64, 63
2, 116312, Control_c, 0, 64, 0
2, 116426, Note_on_c, 0, 70, 115
2, 116429, Note_on_c, 0, 64, 98
2, 116430, Note_on_c, 0, 61, 113
2, 116431, Note_on_c, 0, 49, 104
2, 116438, Control_c, 0, 64, 63
2, 116440, Control_c, 0, 64, 127
2, 116457, Note_off_c, 0, 49, 64
2, 116459, Note_off_c, 0, 61, 64
2, 116495, Note_off_c, 0, 64, 64
2, 116495, Note_off_c, 0, 70, 64
2, 116574, Control_c, 0, 64, 63
2, 116575, Note_on_c, 0, 71, 113
2, 116576, Note_on_c, 0, 62, 113
2, 116577, Note_on_c, 0, 50, 106
2, 116578, Note_on_c, 0, 67, 112
2, 116579, Control_c, 0, 64, 0
2, 116604, Control_c, 0, 64, 63
2, 116608, Control_c, 0, 64, 127
2, 116614, Note_off_c, 0, 62, 64
2, 116616, Note_off_c, 0, 50, 64
2, 116672, Note_off_c, 0, 67, 64
2, 116695, Note_on_c, 0, 70, 107
2, 116698, Note_on_c, 0, 64, 99
2, 116702, Note_on_c, 0, 61, 98
2, 116707, Note_on_c, 0, 49, 80
2, 116710, Note_off_c, 0, 71, 64
2, 116720, Note_off_c, 0, 49, 64
2, 116722, Note_off_c, 0, 61, 64
2, 116744, Note_off_c, 0, 64, 64
2, 116744, Note_off_c, 0, 70, 64
2, 116789, Note_on_c, 0, 59, 103
2, 116790, Control_c, 0, 64, 63
2, 116792, Note_on_c, 0, 67, 109
2, 116793, Note_on_c, 0, 47, 96
2, 116793, Note_on_c, 0, 74, 107
2, 116795, Control_c, 0, 64, 0
2, 116814, Note_off_c, 0, 67, 64
2, 116819, Note_off_c, 0, 47, 64
2, 116819, Note_off_c, 0, 59, 64
2, 116823, Note_off_c, 0, 74, 64
2, 116879, Note_on_c, 0, 74, 112
2, 116879, Note_on_c, 0, 59, 109
2, 116880, Note_on_c, 0, 47, 107
2, 116880, Note_on_c, 0, 67, 112
2, 116897, Control_c, 0, 64, 63
2, 116897, Control_c, 0, 64, 127
2, 116904, Note_off_c, 0, 59, 64
2, 116906, Note_off_c, 0, 47, 64
2, 116916, Note_off_c, 0, 74, 64
2, 116940, Note_off_c, 0, 67, 64
2, 116968, Note_on_c, 0, 73, 108
2, 116970, Note_on_c, 0, 58, 107
2, 116972, Note_on_c, 0, 64, 86
2, 116972, Note_on_c, 0, 46, 101
2, 116976, Note_on_c, 0, 67, 38
2, 116992, Note_off_c, 0, 67, 64
2, 116992, Note_off_c, 0, 58, 64
2, 116993, Note_off_c, 0, 64, 64
2, 116996, Note_off_c, 0, 46, 64
2, 116997, Note_off_c, 0, 73, 64
2, 117069, Note_on_c, 0, 71, 107
2, 117070, Note_on_c, 0, 67, 111
2, 117076, Note_on_c, 0, 50, 107
2, 117077, Note_on_c, 0, 64, 75
2, 117077, Note_on_c, 0, 38, 82
2, 117078, Control_c, 0, 64, 63
2, 117079, Control_c, 0, 64, 0
2, 117083, Note_on_c, 0, 40, 83
2, 117091, Note_off_c, 0, 64, 64
2, 117095, Note_off_c, 0, 40, 64
2, 117097, Note_off_c, 0, 67, 64
2, 117098, Note_off_c, 0, 38, 64
2, 117100, Note_off_c, 0, 50, 64
2, 117104, Note_off_c, 0, 71, 64
2, 117191, Note_on_c, 0, 71, 111
2, 117191, Note_on_c, 0, 67, 114
2, 117193, Note_on_c, 0, 50, 92
2, 117197, Note_on_c, 0, 38, 82
2, 117207, Control_c, 0, 64, 127
2, 117214, Note_off_c, 0, 50, 64
2, 117215, Note_off_c, 0, 38, 64
2, 117230, Note_off_c, 0, 67, 64
2, 117295, Note_off_c, 0, 71, 64
2, 117314, Note_on_c, 0, 70, 119
2, 117316, Note_on_c, 0, 64, 107
2, 117316, Note_on_c, 0, 49, 114
2, 117319, Note_on_c, 0, 37, 113
2, 117342, Note_off_c, 0, 49, 64
2, 117350, Note_off_c, 0, 37, 64
2, 117352, Note_off_c, 0, 64, 64
2, 117360, Note_off_c, 0, 70, 64
2, 117371, Control_c, 0, 64, 63
2, 117375, Control_c, 0, 64, 0
2, 117437, Note_on_c, 0, 47, 116
2, 117437, Note_on_c, 0, 67, 116
2, 117438, Note_on_c, 0, 35, 111
2, 117439, Note_on_c, 0, 74, 116
2, 117444, Control_c, 0, 64, 63
2, 117445, Control_c, 0, 64, 127
2, 117462, Note_off_c, 0, 47, 64
2, 117463, Note_off_c, 0, 35, 64
2, 117465, Note_off_c, 0, 67, 64
2, 117468, Note_off_c, 0, 74, 64
2, 117503, Control_c, 0, 64, 63
2, 117506, Control_c, 0, 64, 0
2, 117612, Note_on_c, 0, 46, 126
2, 117613, Note_on_c, 0, 73, 118
2, 117613, Note_on_c, 0, 34, 120
2, 117616, Note_on_c, 0, 64, 103
2, 117619, Control_c, 0, 64, 127
2, 117632, Note_off_c, 0, 64, 64
2, 117642, Note_off_c, 0, 73, 64
2, 117744, Note_off_c, 0, 34, 64
2, 117771, Note_off_c, 0, 46, 64
2, 117987, Control_c, 0, 64, 63
2, 117993, Control_c, 0, 64, 0
2, 118019, Note_on_c, 0, 64, 120
2, 118020, Note_on_c, 0, 61, 119
2, 118020, Note_on_c, 0, 54, 120
2, 118020, Note_on_c, 0, 90, 123
2, 118033, Control_c, 0, 64, 63
2, 118036, Control_c, 0, 64, 127
2, 118124, Note_on_c, 0, 94, 97
2, 118142, Note_off_c, 0, 90, 64
2, 118160, Note_off_c, 0, 54, 64
2, 118179, Note_off_c, 0, 61, 64
2, 118183, Note_on_c, 0, 91, 76
2, 118188, Note_off_c, 0, 94, 64
2, 118192, Note_off_c, 0, 64, 64
2, 118240, Note_on_c, 0, 97, 95
2, 118256, Note_off_c, 0, 91, 64
2, 118291, Note_on_c, 0, 94, 88
2, 118308, Note_off_c, 0, 97, 64
2, 118342, Note_on_c, 0, 91, 85
2, 118359, Note_off_c, 0, 94, 64
2, 118380, Note_off_c, 0, 91, 64
2, 118385, Note_on_c, 0, 87, 127
2, 118423, Note_off_c, 0, 87, 64
2, 118433, Note_on_c, 0, 91, 88
2, 118478, Note_on_c, 0, 88, 86
2, 118483, Note_off_c, 0, 91, 64
2, 118523, Note_on_c, 0, 94, 82
2, 118534, Note_off_c, 0, 88, 64
2, 118570, Note_on_c, 0, 91, 76
2, 118575, Note_off_c, 0, 94, 64
2, 118608, Note_on_c, 0, 88, 91
2, 118624, Note_off_c, 0, 91, 64
2, 118645, Note_off_c, 0, 88, 64
2, 118649, Note_on_c, 0, 84, 124
2, 118693, Note_on_c, 0, 88, 91
2, 118706, Note_off_c, 0, 84, 64
2, 118735, Note_on_c, 0, 85, 98
2, 118745, Note_off_c, 0, 88, 64
2, 118777, Note_on_c, 0, 91, 88
2, 118779, Note_off_c, 0, 85, 64
2, 118818, Note_on_c, 0, 88, 87
2, 118843, Note_off_c, 0, 91, 64
2, 118851, Note_on_c, 0, 85, 99
2, 118869, Note_off_c, 0, 88, 64
2, 118887, Note_off_c, 0, 85, 64
2, 118900, Note_on_c, 0, 81, 125
2, 118936, Note_off_c, 0, 81, 64
2, 118940, Note_on_c, 0, 85, 98
2, 118986, Note_on_c, 0, 82, 99
2, 118997, Note_off_c, 0, 85, 64
2, 119030, Note_on_c, 0, 88, 72
2, 119039, Note_off_c, 0, 82, 64
2, 119069, Note_on_c, 0, 85, 91
2, 119094, Note_off_c, 0, 88, 64
2, 119110, Note_on_c, 0, 82, 97
2, 119132, Note_off_c, 0, 85, 64
2, 119149, Note_off_c, 0, 82, 64
2, 119152, Note_on_c, 0, 78, 127
2, 119182, Note_off_c, 0, 78, 64
2, 119195, Note_on_c, 0, 82, 92
2, 119233, Note_on_c, 0, 79, 87
2, 119243, Note_off_c, 0, 82, 64
2, 119277, Note_on_c, 0, 85, 98
2, 119281, Note_off_c, 0, 79, 64
2, 119314, Note_on_c, 0, 82, 83
2, 119339, Note_off_c, 0, 85, 64
2, 119356, Note_on_c, 0, 79, 89
2, 119374, Note_off_c, 0, 82, 64
2, 119390, Note_off_c, 0, 79, 64
2, 119395, Note_on_c, 0, 75, 126
2, 119434, Note_on_c, 0, 79, 89
2, 119437, Note_off_c, 0, 75, 64
2, 119478, Note_off_c, 0, 79, 64
2, 119479, Note_on_c, 0, 76, 75
2, 119517, Note_on_c, 0, 82, 91
2, 119522, Note_off_c, 0, 76, 64
2, 119556, Note_on_c, 0, 79, 71
2, 119572, Note_off_c, 0, 82, 64
2, 119594, Note_on_c, 0, 76, 98
2, 119611, Note_off_c, 0, 79, 64
2, 119630, Note_off_c, 0, 76, 64
2, 119632, Control_c, 0, 64, 63
2, 119637, Control_c, 0, 64, 0
2, 119638, Note_on_c, 0, 72, 122
2, 119651, Control_c, 0, 64, 63
2, 119657, Control_c, 0, 64, 127
2, 119676, Note_on_c, 0, 76, 99
2, 119689, Note_off_c, 0, 72, 64
2, 119716, Note_on_c, 0, 73, 107
2, 119732, Note_off_c, 0, 76, 64
2, 119755, Note_on_c, 0, 79, 93
2, 119762, Note_off_c, 0, 73, 64
2, 119799, Note_on_c, 0, 76, 86
2, 119817, Note_off_c, 0, 79, 64
2, 119833, Note_on_c, 0, 73, 90
2, 119842, Note_off_c, 0, 76, 64
2, 119861, Note_off_c, 0, 73, 64
2, 119868, Control_c, 0, 64, 63
2, 119874, Control_c, 0, 64, 0
2, 119876, Note_on_c, 0, 29, 124
2, 119884, Note_on_c, 0, 69, 76
2, 119921, Note_off_c, 0, 29, 64
2, 119922, Note_on_c, 0, 73, 103
2, 119926, Note_off_c, 0, 69, 64
2, 119959, Note_on_c, 0, 30, 100
2, 119964, Note_on_c, 0, 70, 106
2, 119978, Note_off_c, 0, 73, 64
2, 120000, Note_on_c, 0, 76, 90
2, 120011, Control_c, 0, 64, 63
2, 120013, Note_off_c, 0, 70, 64
2, 120016, Control_c, 0, 64, 127
2, 120021, Note_off_c, 0, 30, 64
2, 120037, Note_on_c, 0, 31, 112
2, 120043, Note_on_c, 0, 73, 92
2, 120049, Note_off_c, 0, 76, 64
2, 120075, Note_on_c, 0, 70, 89
2, 120080, Control_c, 0, 64, 63
2, 120087, Note_off_c, 0, 73, 64
2, 120089, Control_c, 0, 64, 0
2, 120094, Note_off_c, 0, 31, 64
2, 120110, Note_off_c, 0, 70, 64
2, 120121, Note_on_c, 0, 32, 125
2, 120121, Note_on_c, 0, 66, 100
2, 120160, Note_on_c, 0, 70, 88
2, 120161, Note_off_c, 0, 66, 64
2, 120173, Note_off_c, 0, 32, 64
2, 120195, Note_on_c, 0, 33, 112
2, 120203, Note_on_c, 0, 68, 29
2, 120211, Note_off_c, 0, 70, 64
2, 120216, Note_on_c, 0, 67, 78
2, 120218, Note_off_c, 0, 68, 64
2, 120245, Note_off_c, 0, 33, 64
2, 120257, Note_on_c, 0, 73, 95
2, 120269, Note_off_c, 0, 67, 64
2, 120280, Note_on_c, 0, 34, 120
2, 120289, Note_on_c, 0, 70, 85
2, 120314, Note_off_c, 0, 73, 64
2, 120323, Note_on_c, 0, 67, 84
2, 120337, Note_off_c, 0, 34, 64
2, 120341, Note_off_c, 0, 70, 64
2, 120356, Control_c, 0, 64, 63
2, 120363, Note_on_c, 0, 35, 117
2, 120365, Note_off_c, 0, 67, 64
2, 120365, Note_on_c, 0, 63, 105
2, 120367, Control_c, 0, 64, 127
2, 120405, Note_off_c, 0, 35, 64
2, 120407, Note_off_c, 0, 63, 64
2, 120433, Note_on_c, 0, 67, 81
2, 120442, Note_on_c, 0, 36, 114
2, 120444, Note_on_c, 0, 24, 112
2, 120449, Note_on_c, 0, 35, 89
2, 120461, Note_off_c, 0, 35, 64
2, 120461, Note_on_c, 0, 64, 90
2, 120468, Note_off_c, 0, 36, 64
2, 120471, Note_off_c, 0, 24, 64
2, 120471, Note_off_c, 0, 67, 64
2, 120501, Note_on_c, 0, 70, 113
2, 120508, Note_off_c, 0, 64, 64
2, 120533, Note_on_c, 0, 37, 116
2, 120533, Note_on_c, 0, 25, 114
2, 120544, Note_on_c, 0, 67, 92
2, 120545, Note_off_c, 0, 70, 64
2, 120557, Control_c, 0, 64, 63
2, 120561, Note_off_c, 0, 37, 64
2, 120562, Note_off_c, 0, 25, 64
2, 120568, Control_c, 0, 64, 0
2, 120580, Note_on_c, 0, 64, 97
2, 120594, Note_off_c, 0, 67, 64
2, 120611, Note_off_c, 0, 64, 64
2, 120619, Note_on_c, 0, 38, 114
2, 120619, Control_c, 0, 64, 63
2, 120621, Note_on_c, 0, 26, 108
2, 120625, Control_c, 0, 64, 127
2, 120627, Note_on_c, 0, 60, 113
2, 120641, Note_off_c, 0, 26, 64
2, 120644, Note_off_c, 0, 38, 64
2, 120667, Note_on_c, 0, 64, 100
2, 120676, Note_off_c, 0, 60, 64
2, 120704, Note_on_c, 0, 61, 118
2, 120705, Note_on_c, 0, 39, 119
2, 120708, Note_on_c, 0, 27, 113
2, 120721, Note_off_c, 0, 64, 64
2, 120734, Note_off_c, 0, 27, 64
2, 120739, Note_off_c, 0, 39, 64
2, 120743, Note_on_c, 0, 67, 98
2, 120756, Note_off_c, 0, 61, 64
2, 120781, Control_c, 0, 64, 63
2, 120786, Note_on_c, 0, 64, 98
2, 120787, Control_c, 0, 64, 0
2, 120793, Note_on_c, 0, 40, 108
2, 120794, Note_on_c, 0, 28, 111
2, 120802, Note_on_c, 0, 38, 76
2, 120810, Note_off_c, 0, 67, 64
2, 120815, Note_off_c, 0, 38, 64
2, 120815, Note_off_c, 0, 28, 64
2, 120818, Note_off_c, 0, 40, 64
2, 120819, Control_c, 0, 64, 63
2, 120822, Note_on_c, 0, 61, 112
2, 120826, Control_c, 0, 64, 127
2, 120844, Note_off_c, 0, 64, 64
2, 120860, Control_c, 0, 64, 63
2, 120863, Note_off_c, 0, 61, 64
2, 120866, Control_c, 0, 64, 0
2, 120873, Note_on_c, 0, 29, 111
2, 120873, Note_on_c, 0, 41, 114
2, 120876, Note_on_c, 0, 57, 101
2, 120883, Note_on_c, 0, 40, 68
2, 120887, Control_c, 0, 64, 63
2, 120893, Control_c, 0, 64, 127
2, 120897, Note_off_c, 0, 40, 64
2, 120898, Note_off_c, 0, 29, 64
2, 120900, Note_off_c, 0, 41, 64
2, 120924, Note_on_c, 0, 61, 107
2, 120935, Note_off_c, 0, 57, 64
2, 120979, Note_on_c, 0, 58, 107
2, 120984, Note_on_c, 0, 43, 113
2, 120987, Note_on_c, 0, 31, 113
2, 120994, Note_on_c, 0, 41, 72
2, 121002, Note_off_c, 0, 61, 64
2, 121008, Note_off_c, 0, 41, 64
2, 121010, Note_off_c, 0, 31, 64
2, 121011, Note_off_c, 0, 43, 64
2, 121032, Note_on_c, 0, 64, 97
2, 121048, Note_off_c, 0, 58, 64
2, 121078, Note_on_c, 0, 42, 121
2, 121080, Note_on_c, 0, 30, 116
2, 121086, Note_on_c, 0, 61, 106
2, 121089, Note_on_c, 0, 32, 76
2, 121092, Control_c, 0, 64, 63
2, 121098, Control_c, 0, 64, 0
2, 121102, Note_off_c, 0, 32, 64
2, 121102, Note_off_c, 0, 64, 64
2, 121103, Note_off_c, 0, 30, 64
2, 121103, Control_c, 0, 64, 63
2, 121110, Note_off_c, 0, 42, 64
2, 121112, Control_c, 0, 64, 127
2, 121123, Note_on_c, 0, 58, 110
2, 121138, Note_off_c, 0, 61, 64
2, 121168, Note_off_c, 0, 58, 64
2, 121186, Note_on_c, 0, 37, 109
2, 121187, Note_on_c, 0, 49, 123
2, 121188, Note_on_c, 0, 54, 120
2, 121200, Control_c, 0, 64, 63
2, 121202, Control_c, 0, 64, 0
2, 121231, Control_c, 0, 64, 63
2, 121236, Control_c, 0, 64, 127
2, 121268, Note_on_c, 0, 58, 83
2, 121289, Note_off_c, 0, 54, 64
2, 121315, Note_on_c, 0, 55, 82
2, 121328, Note_off_c, 0, 58, 64
2, 121363, Note_on_c, 0, 61, 104
2, 121379, Note_off_c, 0, 55, 64
2, 121410, Note_off_c, 0, 49, 64
2, 121411, Note_on_c, 0, 58, 90
2, 121431, Note_off_c, 0, 61, 64
2, 121455, Note_on_c, 0, 55, 96
2, 121476, Note_off_c, 0, 58, 64
2, 121476, Note_off_c, 0, 37, 64
2, 121489, Note_on_c, 0, 51, 123
2, 121495, Note_off_c, 0, 55, 64
2, 121540, Note_on_c, 0, 55, 97
2, 121577, Note_on_c, 0, 52, 97
2, 121582, Note_off_c, 0, 55, 64
2, 121595, Note_off_c, 0, 51, 64
2, 121618, Note_on_c, 0, 58, 100
2, 121624, Note_off_c, 0, 52, 64
2, 121657, Note_on_c, 0, 55, 81
2, 121665, Note_off_c, 0, 58, 64
2, 121695, Note_on_c, 0, 52, 102
2, 121713, Note_off_c, 0, 55, 64
2, 121730, Note_off_c, 0, 52, 64
2, 121736, Note_on_c, 0, 48, 126
2, 121747, Control_c, 0, 64, 63
2, 121750, Control_c, 0, 64, 0
2, 121777, Control_c, 0, 64, 63
2, 121779, Note_on_c, 0, 52, 103
2, 121783, Control_c, 0, 64, 127
2, 121817, Note_on_c, 0, 49, 104
2, 121828, Note_off_c, 0, 52, 64
2, 121828, Note_off_c, 0, 48, 64
2, 121857, Note_on_c, 0, 55, 86
2, 121868, Note_off_c, 0, 49, 64
2, 121904, Note_on_c, 0, 52, 85
2, 121920, Note_off_c, 0, 55, 64
2, 121941, Note_on_c, 0, 49, 103
2, 121947, Note_off_c, 0, 52, 64
2, 121965, Note_off_c, 0, 49, 64
2, 121994, Note_on_c, 0, 30, 126
2, 122001, Note_on_c, 0, 42, 120
2, 122012, Control_c, 0, 64, 63
2, 122015, Control_c, 0, 64, 0
2, 122054, Control_c, 0, 64, 63
2, 122060, Control_c, 0, 64, 127
2, 122083, Note_off_c, 0, 42, 64
2, 122144, Note_off_c, 0, 30, 64
2, 122148, Note_on_c, 0, 43, 87
2, 122192, Note_off_c, 0, 43, 64
2, 122197, Note_on_c, 0, 52, 76
2, 122246, Note_off_c, 0, 52, 64
2, 122246, Note_on_c, 0, 49, 80
2, 122257, Note_on_c, 0, 31, 78
2, 122277, Control_c, 0, 64, 63
2, 122291, Note_on_c, 0, 43, 78
2, 122294, Note_off_c, 0, 49, 64
2, 122308, Control_c, 0, 64, 127
2, 122331, Note_off_c, 0, 31, 64
2, 122342, Control_c, 0, 64, 63
2, 122348, Control_c, 0, 64, 0
2, 122351, Note_off_c, 0, 43, 64
2, 122352, Note_on_c, 0, 42, 92
2, 122352, Note_on_c, 0, 30, 106
2, 122389, Control_c, 0, 64, 63
2, 122395, Control_c, 0, 64, 127
2, 122396, Note_off_c, 0, 42, 64
2, 122403, Note_on_c, 0, 43, 71
2, 122451, Note_on_c, 0, 46, 85
2, 122452, Note_off_c, 0, 43, 64
2, 122469, Note_off_c, 0, 30, 64
2, 122488, Note_off_c, 0, 46, 64
2, 122491, Note_on_c, 0, 52, 65
2, 122528, Note_on_c, 0, 49, 92
2, 122531, Note_off_c, 0, 52, 64
2, 122545, Note_on_c, 0, 31, 91
2, 122568, Note_on_c, 0, 43, 57
2, 122569, Note_off_c, 0, 49, 64
2, 122619, Note_off_c, 0, 31, 64
2, 122620, Note_off_c, 0, 43, 64
2, 122622, Note_on_c, 0, 42, 81
2, 122634, Note_on_c, 0, 30, 94
2, 122645, Control_c, 0, 64, 63
2, 122651, Control_c, 0, 64, 0
2, 122666, Note_off_c, 0, 42, 64
2, 122668, Note_on_c, 0, 43, 69
2, 122687, Control_c, 0, 64, 63
2, 122692, Control_c, 0, 64, 127
2, 122718, Note_on_c, 0, 46, 92
2, 122722, Note_off_c, 0, 43, 64
2, 122765, Note_off_c, 0, 46, 64
2, 122766, Note_on_c, 0, 52, 62
2, 122780, Note_off_c, 0, 30, 64
2, 122804, Note_on_c, 0, 49, 82
2, 122806, Note_off_c, 0, 52, 64
2, 122816, Note_on_c, 0, 31, 65
2, 122845, Note_off_c, 0, 49, 64
2, 122849, Note_on_c, 0, 43, 72
2, 122869, Control_c, 0, 67, 127
2, 122899, Note_off_c, 0, 43, 64
2, 122901, Note_on_c, 0, 42, 75
2, 122905, Note_on_c, 0, 30, 69
2, 122921, Note_off_c, 0, 31, 64
2, 122934, Control_c, 0, 64, 63
2, 122939, Control_c, 0, 64, 0
2, 122946, Note_off_c, 0, 42, 64
2, 122947, Note_on_c, 0, 43, 60
2, 122964, Control_c, 0, 64, 63
2, 122972, Control_c, 0, 64, 127
2, 122999, Note_on_c, 0, 46, 88
2, 123006, Note_off_c, 0, 43, 64
2, 123029, Note_off_c, 0, 30, 64
2, 123049, Note_on_c, 0, 52, 61
2, 123053, Note_off_c, 0, 46, 64
2, 123081, Note_on_c, 0, 31, 79
2, 123084, Note_on_c, 0, 49, 86
2, 123090, Note_off_c, 0, 52, 64
2, 123112, Note_off_c, 0, 31, 64
2, 123129, Note_off_c, 0, 49, 64
2, 123138, Note_on_c, 0, 43, 63
2, 123172, Control_c, 0, 64, 63
2, 123176, Control_c, 0, 64, 0
2, 123193, Note_off_c, 0, 43, 64
2, 123200, Note_on_c, 0, 42, 80
2, 123202, Note_on_c, 0, 30, 80
2, 123208, Control_c, 0, 64, 63
2, 123214, Control_c, 0, 64, 127
2, 123231, Note_off_c, 0, 30, 64
2, 123245, Note_off_c, 0, 42, 64
2, 123316, Note_on_c, 0, 37, 56
2, 123365, Note_off_c, 0, 37, 64
2, 123378, Note_on_c, 0, 42, 38
2, 123425, Note_off_c, 0, 42, 64
2, 123439, Note_on_c, 0, 49, 52
2, 123465, Note_on_c, 0, 55, 100
2, 123471, Note_on_c, 0, 52, 79
2, 123498, Note_off_c, 0, 49, 64
2, 123517, Note_on_c, 0, 42, 63
2, 123550, Note_off_c, 0, 42, 64
2, 123607, Note_on_c, 0, 54, 82
2, 123612, Control_c, 0, 64, 63
2, 123617, Control_c, 0, 64, 0
2, 123638, Control_c, 0, 64, 63
2, 123639, Note_on_c, 0, 30, 65
2, 123648, Control_c, 0, 64, 127
2, 123684, Note_off_c, 0, 30, 64
2, 123695, Note_on_c, 0, 37, 76
2, 123701, Note_off_c, 0, 52, 64
2, 123703, Note_off_c, 0, 55, 64
2, 123722, Note_off_c, 0, 54, 64
2, 123744, Note_on_c, 0, 42, 96
2, 123755, Note_off_c, 0, 37, 64
2, 123795, Note_off_c, 0, 42, 64
2, 123798, Note_on_c, 0, 49, 85
2, 123808, Note_on_c, 0, 56, 123
2, 123815, Note_on_c, 0, 52, 97
2, 123831, Note_off_c, 0, 49, 64
2, 123833, Control_c, 0, 67, 127
2, 123839, Note_on_c, 0, 42, 71
2, 123876, Note_off_c, 0, 42, 64
2, 123876, Note_on_c, 0, 37, 83
2, 123910, Control_c, 0, 64, 63
2, 123914, Control_c, 0, 64, 0
2, 123928, Note_on_c, 0, 54, 93
2, 123930, Note_on_c, 0, 30, 103
2, 123948, Control_c, 0, 64, 63
2, 123949, Note_off_c, 0, 37, 64
2, 123954, Control_c, 0, 64, 127
2, 123983, Note_on_c, 0, 37, 101
2, 123993, Note_off_c, 0, 30, 64
2, 123993, Note_off_c, 0, 56, 64
2, 124014, Note_off_c, 0, 54, 64
2, 124015, Note_off_c, 0, 52, 64
2, 124037, Note_on_c, 0, 42, 108
2, 124058, Note_off_c, 0, 37, 64
2, 124093, Note_on_c, 0, 49, 112
2, 124104, Note_off_c, 0, 42, 64
2, 124143, Note_on_c, 0, 57, 103
2, 124145, Note_on_c, 0, 62, 117
2, 124149, Note_on_c, 0, 52, 111
2, 124153, Note_on_c, 0, 42, 87
2, 124158, Note_off_c, 0, 49, 64
2, 124214, Note_on_c, 0, 37, 91
2, 124219, Note_off_c, 0, 42, 64
2, 124261, Note_on_c, 0, 54, 99
2, 124276, Control_c, 0, 64, 63
2, 124279, Note_on_c, 0, 30, 96
2, 124281, Control_c, 0, 64, 0
2, 124305, Note_off_c, 0, 37, 64
2, 124321, Control_c, 0, 64, 63
2, 124327, Control_c, 0, 64, 127
2, 124347, Note_off_c, 0, 62, 64
2, 124352, Note_on_c, 0, 37, 72
2, 124354, Note_off_c, 0, 30, 64
2, 124375, Note_off_c, 0, 52, 64
2, 124421, Note_off_c, 0, 57, 64
2, 124422, Note_on_c, 0, 42, 80
2, 124427, Note_off_c, 0, 54, 64
2, 124436, Note_off_c, 0, 37, 64
2, 124504, Note_off_c, 0, 42, 64
2, 124505, Note_on_c, 0, 49, 50
2, 124535, Note_on_c, 0, 61, 105
2, 124537, Note_on_c, 0, 58, 92
2, 124542, Note_on_c, 0, 52, 82
2, 124608, Note_off_c, 0, 49, 64
2, 124618, Note_on_c, 0, 42, 64
2, 124640, Note_off_c, 0, 52, 64
2, 124650, Note_off_c, 0, 61, 64
2, 124676, Note_off_c, 0, 58, 64
2, 124705, Note_on_c, 0, 35, 86
2, 124728, Note_off_c, 0, 42, 64
2, 124730, Note_on_c, 0, 59, 98
2, 124735, Note_on_c, 0, 50, 87
2, 124795, Control_c, 0, 64, 63
2, 124798, Control_c, 0, 64, 127
2, 124842, Note_on_c, 0, 42, 70
2, 124843, Control_c, 0, 67, 0
2, 124857, Control_c, 0, 64, 63
2, 124859, Control_c, 0, 64, 0
2, 124891, Control_c, 0, 64, 63
2, 124893, Control_c, 0, 64, 127
2, 124924, Note_on_c, 0, 47, 60
2, 124935, Note_off_c, 0, 35, 64
2, 124946, Note_off_c, 0, 47, 64
2, 124947, Note_off_c, 0, 42, 64
2, 124953, Note_off_c, 0, 50, 64
2, 124976, Note_on_c, 0, 50, 61
2, 125040, Note_on_c, 0, 47, 68
2, 125043, Note_off_c, 0, 50, 64
2, 125044, Note_on_c, 0, 54, 104
2, 125050, Note_off_c, 0, 59, 64
2, 125098, Note_off_c, 0, 47, 64
2, 125098, Note_on_c, 0, 42, 79
2, 125118, Note_off_c, 0, 54, 64
2, 125128, Note_off_c, 0, 42, 64
2, 125158, Note_on_c, 0, 55, 111
2, 125159, Note_on_c, 0, 35, 107
2, 125173, Control_c, 0, 64, 63
2, 125175, Control_c, 0, 64, 0
2, 125203, Control_c, 0, 64, 63
2, 125205, Note_off_c, 0, 35, 64
2, 125207, Control_c, 0, 64, 127
2, 125220, Note_on_c, 0, 40, 84
2, 125267, Note_on_c, 0, 43, 84
2, 125268, Note_off_c, 0, 55, 64
2, 125271, Note_off_c, 0, 40, 64
2, 125304, Note_off_c, 0, 43, 64
2, 125317, Note_on_c, 0, 52, 90
2, 125360, Note_on_c, 0, 43, 91
2, 125360, Note_on_c, 0, 58, 120
2, 125367, Note_off_c, 0, 52, 64
2, 125405, Note_on_c, 0, 40, 94
2, 125416, Note_off_c, 0, 43, 64
2, 125430, Note_off_c, 0, 58, 64
2, 125447, Note_off_c, 0, 40, 64
2, 125455, Control_c, 0, 64, 63
2, 125457, Control_c, 0, 64, 0
2, 125463, Note_on_c, 0, 35, 109
2, 125463, Note_on_c, 0, 59, 122
2, 125485, Control_c, 0, 64, 63
2, 125489, Note_off_c, 0, 35, 64
2, 125489, Control_c, 0, 64, 127
2, 125523, Note_on_c, 0, 42, 87
2, 125561, Note_on_c, 0, 47, 96
2, 125568, Note_off_c, 0, 59, 64
2, 125573, Note_off_c, 0, 42, 64
2, 125599, Note_on_c, 0, 50, 101
2, 125608, Note_off_c, 0, 47, 64
2, 125652, Note_on_c, 0, 47, 92
2, 125654, Note_on_c, 0, 54, 120
2, 125657, Note_off_c, 0, 50, 64
2, 125686, Note_on_c, 0, 42, 96
2, 125693, Note_off_c, 0, 47, 64
2, 125720, Note_off_c, 0, 54, 64
2, 125723, Note_off_c, 0, 42, 64
2, 125752, Control_c, 0, 64, 63
2, 125753, Note_on_c, 0, 55, 109
2, 125756, Note_on_c, 0, 35, 117
2, 125756, Control_c, 0, 64, 0
2, 125776, Control_c, 0, 64, 63
2, 125781, Control_c, 0, 64, 127
2, 125791, Note_off_c, 0, 35, 64
2, 125811, Note_on_c, 0, 40, 90
2, 125842, Note_off_c, 0, 55, 64
2, 125850, Note_on_c, 0, 43, 98
2, 125854, Note_off_c, 0, 40, 64
2, 125885, Note_off_c, 0, 43, 64
2, 125891, Note_on_c, 0, 52, 106
2, 125933, Note_on_c, 0, 58, 121
2, 125933, Note_on_c, 0, 43, 103
2, 125936, Note_off_c, 0, 52, 64
2, 125977, Note_on_c, 0, 40, 94
2, 125986, Note_off_c, 0, 43, 64
2, 125991, Note_off_c, 0, 58, 64
2, 126021, Note_off_c, 0, 40, 64
2, 126035, Control_c, 0, 64, 63
2, 126039, Control_c, 0, 64, 0
2, 126042, Note_on_c, 0, 59, 121
2, 126043, Note_on_c, 0, 35, 107
2, 126058, Control_c, 0, 64, 63
2, 126065, Control_c, 0, 64, 127
2, 126071, Note_off_c, 0, 35, 64
2, 126106, Note_on_c, 0, 42, 93
2, 126136, Note_off_c, 0, 59, 64
2, 126145, Note_on_c, 0, 47, 101
2, 126156, Note_off_c, 0, 42, 64
2, 126183, Note_on_c, 0, 50, 102
2, 126192, Note_off_c, 0, 47, 64
2, 126228, Note_on_c, 0, 59, 124
2, 126231, Note_on_c, 0, 47, 94
2, 126240, Note_off_c, 0, 50, 64
2, 126276, Note_on_c, 0, 42, 94
2, 126290, Note_off_c, 0, 47, 64
2, 126313, Note_off_c, 0, 59, 64
2, 126332, Control_c, 0, 64, 63
2, 126334, Control_c, 0, 64, 0
2, 126336, Note_off_c, 0, 42, 64
2, 126337, Note_on_c, 0, 40, 94
2, 126338, Note_on_c, 0, 59, 117
2, 126370, Control_c, 0, 64, 63
2, 126374, Control_c, 0, 64, 127
2, 126387, Note_on_c, 0, 43, 92
2, 126390, Note_off_c, 0, 40, 64
2, 126431, Note_on_c, 0, 47, 92
2, 126437, Note_off_c, 0, 59, 64
2, 126441, Note_off_c, 0, 43, 64
2, 126469, Note_off_c, 0, 47, 64
2, 126485, Note_on_c, 0, 55, 72
2, 126485, Note_on_c, 0, 58, 118
2, 126520, Note_off_c, 0, 58, 64
2, 126531, Note_off_c, 0, 55, 64
2, 126533, Note_on_c, 0, 47, 85
2, 126538, Note_on_c, 0, 59, 109
2, 126580, Note_on_c, 0, 43, 84
2, 126582, Note_off_c, 0, 59, 64
2, 126586, Note_off_c, 0, 47, 64
2, 126617, Note_off_c, 0, 43, 64
2, 126648, Control_c, 0, 64, 63
2, 126649, Control_c, 0, 64, 0
2, 126654, Note_on_c, 0, 62, 117
2, 126655, Note_on_c, 0, 38, 112
2, 126702, Control_c, 0, 64, 63
2, 126705, Control_c, 0, 64, 127
2, 126714, Note_on_c, 0, 45, 71
2, 126744, Note_off_c, 0, 38, 64
2, 126760, Note_on_c, 0, 50, 83
2, 126769, Note_off_c, 0, 45, 64
2, 126790, Note_off_c, 0, 50, 64
2, 126801, Note_on_c, 0, 54, 84
2, 126829, Note_off_c, 0, 54, 64
2, 126851, Note_on_c, 0, 50, 62
2, 126898, Note_on_c, 0, 45, 75
2, 126900, Note_off_c, 0, 50, 64
2, 126931, Note_off_c, 0, 45, 64
2, 126943, Control_c, 0, 64, 63
2, 126946, Control_c, 0, 64, 0
2, 126957, Note_on_c, 0, 43, 107
2, 126964, Control_c, 0, 64, 63
2, 126971, Control_c, 0, 64, 127
2, 127007, Note_on_c, 0, 46, 97
2, 127022, Note_off_c, 0, 62, 64
2, 127047, Note_on_c, 0, 50, 96
2, 127072, Note_off_c, 0, 43, 64
2, 127079, Note_off_c, 0, 46, 64
2, 127089, Note_on_c, 0, 55, 93
2, 127102, Note_off_c, 0, 50, 64
2, 127109, Note_on_c, 0, 43, 6
2, 127128, Note_on_c, 0, 58, 116
2, 127142, Note_on_c, 0, 50, 75
2, 127144, Note_off_c, 0, 43, 64
2, 127150, Note_off_c, 0, 55, 64
2, 127168, Note_off_c, 0, 58, 64
2, 127181, Note_on_c, 0, 46, 84
2, 127188, Note_off_c, 0, 50, 64
2, 127208, Note_off_c, 0, 46, 64
2, 127245, Control_c, 0, 64, 63
2, 127247, Note_on_c, 0, 38, 87
2, 127250, Control_c, 0, 64, 0
2, 127251, Note_on_c, 0, 62, 103
2, 127284, Control_c, 0, 64, 63
2, 127291, Control_c, 0, 64, 127
2, 127312, Note_off_c, 0, 38, 64
2, 127314, Note_on_c, 0, 45, 58
2, 127344, Note_off_c, 0, 45, 64
2, 127364, Note_off_c, 0, 62, 64
2, 127368, Note_on_c, 0, 50, 60
2, 127412, Note_on_c, 0, 54, 70
2, 127414, Note_off_c, 0, 50, 64
2, 127445, Note_off_c, 0, 54, 64
2, 127470, Note_on_c, 0, 50, 65
2, 127473, Note_on_c, 0, 57, 108
2, 127499, Note_off_c, 0, 57, 64
2, 127506, Note_off_c, 0, 50, 64
2, 127524, Note_on_c, 0, 45, 76
2, 127563, Note_off_c, 0, 45, 64
2, 127577, Control_c, 0, 64, 63
2, 127580, Control_c, 0, 64, 0
2, 127587, Note_on_c, 0, 38, 97
2, 127588, Note_on_c, 0, 58, 118
2, 127618, Control_c, 0, 64, 63
2, 127622, Control_c, 0, 64, 127
2, 127645, Note_on_c, 0, 43, 83
2, 127647, Note_off_c, 0, 38, 64
2, 127678, Note_off_c, 0, 43, 64
2, 127683, Note_off_c, 0, 58, 64
2, 127693, Note_on_c, 0, 46, 88
2, 127718, Note_off_c, 0, 46, 64
2, 127740, Note_on_c, 0, 55, 84
2, 127782, Note_off_c, 0, 55, 64
2, 127788, Note_on_c, 0, 61, 123
2, 127793, Note_on_c, 0, 46, 100
2, 127833, Note_on_c, 0, 43, 99
2, 127835, Note_off_c, 0, 61, 64
2, 127846, Note_off_c, 0, 46, 64
2, 127885, Control_c, 0, 64, 63
2, 127887, Control_c, 0, 64, 0
2, 127889, Note_on_c, 0, 62, 124
2, 127891, Note_on_c, 0, 38, 100
2, 127894, Note_off_c, 0, 43, 64
2, 127934, Control_c, 0, 64, 63
2, 127938, Control_c, 0, 64, 127
2, 127944, Note_on_c, 0, 45, 87
2, 127950, Note_off_c, 0, 38, 64
2, 127981, Note_off_c, 0, 45, 64
2, 127993, Note_on_c, 0, 50, 96
2, 128029, Note_off_c, 0, 62, 64
2, 128038, Note_on_c, 0, 54, 105
2, 128046, Note_off_c, 0, 50, 64
2, 128066, Note_off_c, 0, 54, 64
2, 128081, Note_on_c, 0, 57, 120
2, 128101, Note_on_c, 0, 50, 49
2, 128110, Note_off_c, 0, 57, 64
2, 128120, Note_off_c, 0, 50, 64
2, 128134, Note_on_c, 0, 45, 91
2, 128170, Note_off_c, 0, 45, 64
2, 128173, Control_c, 0, 64, 63
2, 128176, Control_c, 0, 64, 0
2, 128183, Note_on_c, 0, 38, 116
2, 128185, Note_on_c, 0, 58, 118
2, 128218, Control_c, 0, 64, 63
2, 128221, Control_c, 0, 64, 127
2, 128233, Note_on_c, 0, 43, 104
2, 128240, Note_off_c, 0, 38, 64
2, 128261, Note_off_c, 0, 58, 64
2, 128268, Note_off_c, 0, 43, 64
2, 128278, Note_on_c, 0, 46, 108
2, 128304, Note_off_c, 0, 46, 64
2, 128330, Note_on_c, 0, 55, 90
2, 128372, Note_off_c, 0, 55, 64
2, 128380, Note_on_c, 0, 46, 103
2, 128382, Note_on_c, 0, 61, 124
2, 128421, Note_off_c, 0, 61, 64
2, 128423, Note_on_c, 0, 43, 89
2, 128428, Note_off_c, 0, 46, 64
2, 128479, Note_on_c, 0, 38, 112
2, 128480, Control_c, 0, 64, 63
2, 128481, Control_c, 0, 64, 0
2, 128485, Note_off_c, 0, 43, 64
2, 128485, Note_on_c, 0, 62, 122
2, 128523, Control_c, 0, 64, 63
2, 128527, Control_c, 0, 64, 127
2, 128540, Note_on_c, 0, 45, 79
2, 128547, Note_off_c, 0, 38, 64
2, 128577, Note_off_c, 0, 45, 64
2, 128595, Note_on_c, 0, 50, 94
2, 128617, Note_off_c, 0, 62, 64
2, 128636, Note_on_c, 0, 54, 100
2, 128645, Note_off_c, 0, 50, 64
2, 128666, Note_off_c, 0, 54, 64
2, 128670, Note_on_c, 0, 62, 124
2, 128683, Note_on_c, 0, 50, 88
2, 128728, Note_off_c, 0, 50, 64
2, 128729, Note_on_c, 0, 45, 94
2, 128744, Note_off_c, 0, 62, 64
2, 128762, Note_off_c, 0, 45, 64
2, 128775, Note_on_c, 0, 62, 122
2, 128779, Control_c, 0, 64, 63
2, 128779, Note_on_c, 0, 43, 108
2, 128782, Control_c, 0, 64, 0
2, 128827, Control_c, 0, 64, 63
2, 128830, Control_c, 0, 64, 127
2, 128841, Note_on_c, 0, 47, 91
2, 128857, Note_off_c, 0, 43, 64
2, 128886, Note_on_c, 0, 50, 102
2, 128896, Note_off_c, 0, 47, 64
2, 128896, Note_off_c, 0, 62, 64
2, 128931, Note_on_c, 0, 61, 124
2, 128932, Note_off_c, 0, 50, 64
2, 128939, Note_on_c, 0, 59, 100
2, 128978, Note_on_c, 0, 62, 120
2, 128982, Note_off_c, 0, 61, 64
2, 128984, Note_on_c, 0, 50, 81
2, 128985, Note_off_c, 0, 59, 64
2, 129021, Note_on_c, 0, 47, 96
2, 129033, Note_off_c, 0, 50, 64
2, 129056, Note_off_c, 0, 47, 64
2, 129063, Note_off_c, 0, 62, 64
2, 129100, Note_on_c, 0, 42, 108
2, 129100, Control_c, 0, 64, 63
2, 129101, Control_c, 0, 64, 0
2, 129106, Note_on_c, 0, 66, 126
2, 129135, Control_c, 0, 64, 63
2, 129138, Control_c, 0, 64, 127
2, 129181, Note_off_c, 0, 66, 64
2, 129183, Note_on_c, 0, 49, 79
2, 129184, Note_off_c, 0, 42, 64
2, 129227, Note_on_c, 0, 52, 83
2, 129238, Note_off_c, 0, 49, 64
2, 129281, Note_off_c, 0, 52, 64
2, 129291, Note_on_c, 0, 58, 95
2, 129323, Note_off_c, 0, 58, 64
2, 129349, Note_on_c, 0, 52, 49
2, 129381, Note_on_c, 0, 49, 89
2, 129405, Note_off_c, 0, 52, 64
2, 129440, Note_off_c, 0, 49, 64
2, 129443, Note_on_c, 0, 47, 112
2, 129479, Control_c, 0, 64, 63
2, 129482, Control_c, 0, 64, 0
2, 129495, Note_on_c, 0, 50, 103
2, 129499, Control_c, 0, 64, 63
2, 129505, Control_c, 0, 64, 127
2, 129506, Note_off_c, 0, 47, 64
2, 129545, Note_on_c, 0, 54, 112
2, 129557, Note_off_c, 0, 50, 64
2, 129594, Note_on_c, 0, 62, 80
2, 129597, Note_off_c, 0, 54, 64
2, 129639, Note_on_c, 0, 54, 92
2, 129643, Note_off_c, 0, 62, 64
2, 129681, Note_on_c, 0, 50, 86
2, 129696, Note_off_c, 0, 54, 64
2, 129725, Note_off_c, 0, 50, 64
2, 129748, Note_on_c, 0, 46, 109
2, 129755, Control_c, 0, 64, 63
2, 129757, Control_c, 0, 64, 0
2, 129777, Control_c, 0, 64, 63
2, 129783, Control_c, 0, 64, 127
2, 129804, Note_on_c, 0, 49, 83
2, 129820, Note_off_c, 0, 46, 64
2, 129856, Note_on_c, 0, 54, 77
2, 129860, Note_off_c, 0, 49, 64
2, 129891, Note_off_c, 0, 54, 64
2, 129898, Note_on_c, 0, 61, 80
2, 129915, Note_off_c, 0, 61, 64
2, 129944, Note_on_c, 0, 54, 78
2, 129952, Note_on_c, 0, 61, 108
2, 129990, Note_on_c, 0, 49, 73
2, 129995, Note_off_c, 0, 54, 64
2, 130008, Note_off_c, 0, 61, 64
2, 130045, Note_off_c, 0, 49, 64
2, 130066, Note_on_c, 0, 62, 101
2, 130070, Note_on_c, 0, 45, 61
2, 130075, Control_c, 0, 64, 63
2, 130077, Control_c, 0, 64, 0
2, 130114, Control_c, 0, 64, 63
2, 130117, Control_c, 0, 64, 127
2, 130124, Note_on_c, 0, 47, 71
2, 130137, Note_off_c, 0, 45, 64
2, 130173, Note_off_c, 0, 47, 64
2, 130180, Note_off_c, 0, 62, 64
2, 130182, Note_on_c, 0, 54, 96
2, 130215, Note_off_c, 0, 54, 64
2, 130225, Note_on_c, 0, 59, 86
2, 130249, Note_on_c, 0, 63, 119
2, 130270, Note_on_c, 0, 54, 88
2, 130272, Note_off_c, 0, 59, 64
2, 130299, Note_off_c, 0, 63, 64
2, 130311, Note_off_c, 0, 54, 64
2, 130319, Note_on_c, 0, 47, 59
2, 130368, Note_on_c, 0, 64, 112
2, 130368, Note_on_c, 0, 44, 98
2, 130378, Note_off_c, 0, 47, 64
2, 130379, Control_c, 0, 64, 63
2, 130382, Control_c, 0, 64, 0
2, 130420, Note_on_c, 0, 47, 81
2, 130423, Note_off_c, 0, 44, 64
2, 130424, Control_c, 0, 64, 63
2, 130426, Control_c, 0, 64, 127
2, 130466, Note_on_c, 0, 52, 86
2, 130475, Note_off_c, 0, 47, 64
2, 130506, Note_off_c, 0, 52, 64
2, 130511, Note_on_c, 0, 59, 78
2, 130555, Note_off_c, 0, 59, 64
2, 130557, Note_on_c, 0, 52, 71
2, 130599, Note_on_c, 0, 47, 75
2, 130609, Note_off_c, 0, 52, 64
2, 130648, Note_off_c, 0, 47, 64
2, 130649, Control_c, 0, 64, 63
2, 130651, Control_c, 0, 64, 0
2, 130662, Note_on_c, 0, 43, 102
2, 130685, Control_c, 0, 64, 63
2, 130689, Control_c, 0, 64, 127
2, 130722, Note_off_c, 0, 43, 64
2, 130722, Note_on_c, 0, 45, 68
2, 130726, Note_off_c, 0, 64, 64
2, 130775, Note_on_c, 0, 49, 85
2, 130779, Note_off_c, 0, 45, 64
2, 130815, Note_on_c, 0, 66, 107
2, 130816, Note_off_c, 0, 49, 64
2, 130832, Note_on_c, 0, 57, 63
2, 130864, Note_on_c, 0, 64, 102
2, 130870, Note_off_c, 0, 66, 64
2, 130873, Note_off_c, 0, 57, 64
2, 130873, Note_on_c, 0, 49, 78
2, 130910, Note_on_c, 0, 45, 68
2, 130915, Note_off_c, 0, 64, 64
2, 130918, Note_off_c, 0, 49, 64
2, 130952, Note_off_c, 0, 45, 64
2, 130977, Note_on_c, 0, 62, 104
2, 130981, Note_on_c, 0, 42, 78
2, 130983, Control_c, 0, 64, 63
2, 130986, Control_c, 0, 64, 0
2, 131014, Control_c, 0, 64, 63
2, 131019, Control_c, 0, 64, 127
2, 131027, Note_off_c, 0, 42, 64
2, 131038, Note_on_c, 0, 45, 58
2, 131081, Note_off_c, 0, 45, 64
2, 131085, Note_off_c, 0, 62, 64
2, 131087, Note_on_c, 0, 50, 68
2, 131113, Note_off_c, 0, 50, 64
2, 131131, Note_on_c, 0, 57, 63
2, 131165, Note_on_c, 0, 61, 113
2, 131173, Note_off_c, 0, 57, 64
2, 131175, Note_on_c, 0, 50, 76
2, 131218, Note_on_c, 0, 47, 37
2, 131222, Note_off_c, 0, 50, 64
2, 131232, Note_off_c, 0, 61, 64
2, 131248, Note_off_c, 0, 47, 64
2, 131261, Control_c, 0, 64, 63
2, 131264, Control_c, 0, 64, 0
2, 131272, Note_on_c, 0, 59, 108
2, 131277, Note_on_c, 0, 42, 87
2, 131292, Control_c, 0, 64, 63
2, 131297, Control_c, 0, 64, 127
2, 131313, Note_off_c, 0, 42, 64
2, 131329, Note_on_c, 0, 44, 78
2, 131352, Note_off_c, 0, 59, 64
2, 131368, Note_off_c, 0, 44, 64
2, 131375, Note_on_c, 0, 50, 83
2, 131400, Note_off_c, 0, 50, 64
2, 131430, Note_on_c, 0, 56, 88
2, 131450, Note_off_c, 0, 56, 64
2, 131484, Note_on_c, 0, 61, 112
2, 131486, Note_on_c, 0, 44, 90
2, 131513, Note_off_c, 0, 61, 64
2, 131517, Note_off_c, 0, 44, 64
2, 131543, Note_on_c, 0, 42, 89
2, 131573, Note_off_c, 0, 42, 64
2, 131601, Note_on_c, 0, 40, 74
2, 131603, Note_on_c, 0, 54, 105
2, 131604, Control_c, 0, 64, 63
2, 131606, Control_c, 0, 64, 0
2, 131647, Control_c, 0, 64, 63
2, 131650, Control_c, 0, 64, 127
2, 131663, Note_on_c, 0, 42, 81
2, 131668, Note_off_c, 0, 40, 64
2, 131708, Note_off_c, 0, 42, 64
2, 131708, Note_on_c, 0, 46, 79
2, 131711, Note_off_c, 0, 54, 64
2, 131745, Note_off_c, 0, 46, 64
2, 131758, Note_on_c, 0, 54, 80
2, 131799, Note_off_c, 0, 54, 64
2, 131805, Note_on_c, 0, 46, 61
2, 131845, Note_on_c, 0, 42, 76
2, 131849, Note_off_c, 0, 46, 64
2, 131905, Note_off_c, 0, 42, 64
2, 131907, Note_on_c, 0, 38, 65
2, 131908, Note_on_c, 0, 62, 94
2, 131910, Control_c, 0, 64, 63
2, 131912, Control_c, 0, 64, 0
2, 131941, Control_c, 0, 64, 63
2, 131947, Control_c, 0, 64, 127
2, 131962, Note_on_c, 0, 42, 69
2, 131967, Note_off_c, 0, 38, 64
2, 131987, Note_off_c, 0, 62, 64
2, 131992, Note_on_c, 0, 47, 74
2, 132001, Note_off_c, 0, 42, 64
2, 132027, Control_c, 0, 64, 63
2, 132027, Control_c, 0, 64, 0
2, 132055, Note_off_c, 0, 47, 64
2, 132058, Note_on_c, 0, 54, 72
2, 132068, Note_on_c, 0, 64, 94
2, 132104, Note_off_c, 0, 54, 64
2, 132110, Note_on_c, 0, 62, 113
2, 132113, Note_on_c, 0, 47, 64
2, 132122, Control_c, 0, 64, 127
2, 132130, Note_off_c, 0, 64, 64
2, 132160, Note_on_c, 0, 42, 95
2, 132169, Note_off_c, 0, 47, 64
2, 132171, Note_off_c, 0, 62, 64
2, 132191, Note_off_c, 0, 42, 64
2, 132216, Note_on_c, 0, 61, 120
2, 132220, Control_c, 0, 64, 63
2, 132221, Note_on_c, 0, 34, 106
2, 132223, Control_c, 0, 64, 0
2, 132240, Control_c, 0, 64, 63
2, 132244, Control_c, 0, 64, 127
2, 132247, Note_off_c, 0, 34, 64
2, 132286, Note_on_c, 0, 42, 78
2, 132293, Note_off_c, 0, 61, 64
2, 132329, Note_on_c, 0, 49, 110
2, 132337, Note_off_c, 0, 42, 64
2, 132370, Note_on_c, 0, 52, 102
2, 132378, Note_off_c, 0, 49, 64
2, 132418, Note_on_c, 0, 49, 100
2, 132419, Note_on_c, 0, 62, 120
2, 132430, Note_off_c, 0, 52, 64
2, 132463, Note_on_c, 0, 42, 104
2, 132468, Note_off_c, 0, 49, 64
2, 132497, Note_off_c, 0, 42, 64
2, 132512, Control_c, 0, 64, 63
2, 132514, Control_c, 0, 64, 0
2, 132522, Note_on_c, 0, 59, 117
2, 132522, Note_on_c, 0, 35, 113
2, 132532, Note_off_c, 0, 62, 64
2, 132550, Control_c, 0, 64, 63
2, 132553, Note_off_c, 0, 35, 64
2, 132554, Control_c, 0, 64, 127
2, 132591, Note_on_c, 0, 42, 89
2, 132609, Note_off_c, 0, 59, 64
2, 132636, Note_on_c, 0, 47, 96
2, 132649, Note_off_c, 0, 42, 64
2, 132683, Note_on_c, 0, 50, 84
2, 132690, Note_off_c, 0, 47, 64
2, 132731, Note_on_c, 0, 61, 119
2, 132736, Note_off_c, 0, 50, 64
2, 132741, Note_on_c, 0, 47, 82
2, 132764, Note_off_c, 0, 61, 64
2, 132782, Note_off_c, 0, 47, 64
2, 132785, Note_on_c, 0, 42, 80
2, 132814, Note_off_c, 0, 42, 64
2, 132830, Control_c, 0, 64, 63
2, 132833, Control_c, 0, 64, 0
2, 132835, Note_on_c, 0, 54, 105
2, 132839, Note_on_c, 0, 35, 93
2, 132878, Note_off_c, 0, 35, 64
2, 132880, Control_c, 0, 64, 63
2, 132883, Control_c, 0, 64, 127
2, 132895, Note_on_c, 0, 42, 77
2, 132929, Note_off_c, 0, 42, 64
2, 132942, Note_on_c, 0, 46, 77
2, 132964, Note_off_c, 0, 54, 64
2, 132980, Note_off_c, 0, 46, 64
2, 132997, Note_on_c, 0, 52, 58
2, 133044, Note_off_c, 0, 52, 64
2, 133050, Note_on_c, 0, 46, 62
2, 133086, Note_off_c, 0, 46, 64
2, 133086, Note_on_c, 0, 42, 75
2, 133121, Note_off_c, 0, 42, 64
2, 133151, Note_on_c, 0, 35, 82
2, 133153, Note_on_c, 0, 62, 90
2, 133154, Control_c, 0, 64, 63
2, 133158, Control_c, 0, 64, 0
2, 133175, Control_c, 0, 64, 63
2, 133181, Control_c, 0, 64, 127
2, 133183, Note_off_c, 0, 35, 64
2, 133219, Note_on_c, 0, 42, 81
2, 133241, Note_off_c, 0, 62, 64
2, 133251, Note_off_c, 0, 42, 64
2, 133263, Note_on_c, 0, 47, 81
2, 133303, Note_off_c, 0, 47, 64
2, 133306, Note_on_c, 0, 50, 71
2, 133312, Note_on_c, 0, 64, 120
2, 133349, Note_off_c, 0, 50, 64
2, 133361, Note_on_c, 0, 62, 118
2, 133366, Note_on_c, 0, 47, 70
2, 133382, Note_off_c, 0, 64, 64
2, 133396, Note_on_c, 0, 42, 81
2, 133399, Note_off_c, 0, 47, 64
2, 133426, Note_off_c, 0, 42, 64
2, 133430, Note_off_c, 0, 62, 64
2, 133445, Control_c, 0, 64, 63
2, 133448, Control_c, 0, 64, 0
2, 133455, Note_on_c, 0, 35, 112
2, 133457, Note_on_c, 0, 61, 126
2, 133482, Control_c, 0, 64, 63
2, 133484, Note_off_c, 0, 35, 64
2, 133484, Control_c, 0, 64, 127
2, 133514, Note_on_c, 0, 42, 91
2, 133539, Note_off_c, 0, 61, 64
2, 133554, Note_on_c, 0, 46, 106
2, 133559, Note_off_c, 0, 42, 64
2, 133600, Note_on_c, 0, 52, 100
2, 133607, Note_off_c, 0, 46, 64
2, 133651, Note_on_c, 0, 62, 121
2, 133659, Note_on_c, 0, 46, 107
2, 133666, Note_off_c, 0, 52, 64
2, 133700, Note_on_c, 0, 42, 94
2, 133707, Note_off_c, 0, 46, 64
2, 133715, Note_off_c, 0, 62, 64
2, 133738, Note_off_c, 0, 42, 64
2, 133748, Control_c, 0, 64, 63
2, 133751, Control_c, 0, 64, 0
2, 133752, Note_on_c, 0, 59, 113
2, 133755, Note_on_c, 0, 35, 92
2, 133794, Control_c, 0, 64, 63
2, 133798, Control_c, 0, 64, 127
2, 133813, Note_on_c, 0, 42, 100
2, 133817, Note_off_c, 0, 35, 64
2, 133854, Note_off_c, 0, 42, 64
2, 133859, Note_on_c, 0, 47, 102
2, 133884, Note_off_c, 0, 59, 64
2, 133888, Note_off_c, 0, 47, 64
2, 133909, Note_on_c, 0, 54, 119
2, 133936, Note_off_c, 0, 54, 64
2, 133964, Note_on_c, 0, 50, 98
2, 133968, Note_on_c, 0, 67, 121
2, 133989, Control_c, 0, 64, 63
2, 133992, Control_c, 0, 64, 0
2, 134012, Control_c, 0, 64, 63
2, 134020, Control_c, 0, 64, 127
2, 134022, Note_off_c, 0, 50, 64
2, 134035, Note_on_c, 0, 47, 102
2, 134067, Note_off_c, 0, 47, 64
2, 134081, Note_off_c, 0, 67, 64
2, 134106, Control_c, 0, 64, 63
2, 134107, Control_c, 0, 64, 0
2, 134113, Note_on_c, 0, 46, 113
2, 134119, Note_on_c, 0, 66, 125
2, 134156, Control_c, 0, 64, 63
2, 134157, Control_c, 0, 64, 127
2, 134199, Note_on_c, 0, 49, 90
2, 134223, Note_off_c, 0, 46, 64
2, 134256, Note_on_c, 0, 54, 86
2, 134269, Note_off_c, 0, 49, 64
2, 134299, Note_on_c, 0, 61, 101
2, 134303, Note_off_c, 0, 54, 64
2, 134345, Note_on_c, 0, 54, 97
2, 134348, Note_off_c, 0, 61, 64
2, 134384, Note_on_c, 0, 49, 101
2, 134399, Note_off_c, 0, 54, 64
2, 134435, Note_off_c, 0, 49, 64
2, 134439, Note_on_c, 0, 45, 108
2, 134449, Control_c, 0, 64, 63
2, 134451, Control_c, 0, 64, 0
2, 134477, Control_c, 0, 64, 63
2, 134481, Control_c, 0, 64, 127
2, 134517, Note_on_c, 0, 51, 87
2, 134531, Note_off_c, 0, 45, 64
2, 134566, Note_on_c, 0, 54, 96
2, 134577, Note_off_c, 0, 51, 64
2, 134614, Note_off_c, 0, 54, 64
2, 134614, Note_on_c, 0, 60, 71
2, 134667, Note_off_c, 0, 60, 64
2, 134667, Note_on_c, 0, 54, 85
2, 134696, Note_on_c, 0, 51, 86
2, 134703, Note_off_c, 0, 54, 64
2, 134743, Note_off_c, 0, 51, 64
2, 134744, Note_off_c, 0, 66, 64
2, 134766, Note_on_c, 0, 65, 111
2, 134767, Control_c, 0, 64, 63
2, 134768, Note_on_c, 0, 44, 112
2, 134768, Control_c, 0, 64, 0
2, 134792, Control_c, 0, 64, 63
2, 134796, Control_c, 0, 64, 127
2, 134820, Note_off_c, 0, 44, 64
2, 134829, Note_on_c, 0, 47, 49
2, 134871, Note_off_c, 0, 47, 64
2, 134887, Note_off_c, 0, 65, 64
2, 134895, Note_on_c, 0, 53, 83
2, 134931, Note_off_c, 0, 53, 64
2, 134944, Note_on_c, 0, 59, 89
2, 134994, Note_off_c, 0, 59, 64
2, 134995, Note_on_c, 0, 71, 117
2, 135000, Note_on_c, 0, 65, 102
2, 135006, Note_on_c, 0, 53, 79
2, 135054, Note_off_c, 0, 53, 64
2, 135064, Note_on_c, 0, 47, 45
2, 135066, Note_on_c, 0, 48, 43
2, 135074, Note_off_c, 0, 65, 64
2, 135089, Note_off_c, 0, 48, 64
2, 135112, Note_off_c, 0, 47, 64
2, 135120, Note_on_c, 0, 64, 98
2, 135120, Note_on_c, 0, 43, 91
2, 135127, Control_c, 0, 64, 63
2, 135129, Control_c, 0, 64, 0
2, 135158, Control_c, 0, 64, 63
2, 135162, Control_c, 0, 64, 127
2, 135170, Note_on_c, 0, 47, 83
2, 135183, Note_off_c, 0, 43, 64
2, 135216, Note_on_c, 0, 52, 68
2, 135225, Note_off_c, 0, 47, 64
2, 135230, Note_off_c, 0, 64, 64
2, 135240, Note_off_c, 0, 71, 64
2, 135259, Note_off_c, 0, 52, 64
2, 135264, Note_on_c, 0, 59, 90
2, 135307, Note_off_c, 0, 59, 64
2, 135308, Note_on_c, 0, 71, 117
2, 135311, Note_on_c, 0, 52, 77
2, 135311, Note_on_c, 0, 64, 111
2, 135347, Note_on_c, 0, 47, 67
2, 135364, Note_off_c, 0, 52, 64
2, 135400, Control_c, 0, 64, 63
2, 135402, Note_off_c, 0, 47, 64
2, 135402, Control_c, 0, 64, 0
2, 135418, Note_on_c, 0, 63, 99
2, 135418, Note_on_c, 0, 42, 89
2, 135431, Note_off_c, 0, 64, 64
2, 135431, Control_c, 0, 64, 63
2, 135436, Control_c, 0, 64, 127
2, 135456, Note_off_c, 0, 42, 64
2, 135467, Note_on_c, 0, 47, 82
2, 135515, Note_off_c, 0, 47, 64
2, 135515, Note_off_c, 0, 63, 64
2, 135518, Note_on_c, 0, 54, 109
2, 135530, Note_off_c, 0, 71, 64
2, 135550, Note_off_c, 0, 54, 64
2, 135561, Note_on_c, 0, 59, 90
2, 135598, Note_on_c, 0, 71, 107
2, 135602, Note_on_c, 0, 63, 116
2, 135608, Note_on_c, 0, 54, 91
2, 135612, Note_off_c, 0, 59, 64
2, 135635, Note_off_c, 0, 54, 64
2, 135654, Note_on_c, 0, 47, 51
2, 135685, Note_off_c, 0, 47, 64
2, 135705, Control_c, 0, 64, 63
2, 135707, Control_c, 0, 64, 0
2, 135710, Note_on_c, 0, 62, 97
2, 135711, Note_on_c, 0, 41, 92
2, 135727, Note_off_c, 0, 63, 64
2, 135744, Control_c, 0, 64, 63
2, 135748, Control_c, 0, 64, 127
2, 135761, Note_on_c, 0, 43, 79
2, 135762, Note_off_c, 0, 71, 64
2, 135772, Note_off_c, 0, 41, 64
2, 135794, Note_on_c, 0, 47, 74
2, 135796, Note_off_c, 0, 62, 64
2, 135806, Note_off_c, 0, 43, 64
2, 135839, Note_off_c, 0, 47, 64
2, 135851, Note_on_c, 0, 55, 52
2, 135888, Note_off_c, 0, 55, 64
2, 135907, Note_on_c, 0, 47, 73
2, 135909, Note_on_c, 0, 67, 109
2, 135913, Note_on_c, 0, 62, 103
2, 135964, Note_on_c, 0, 43, 68
2, 135967, Note_off_c, 0, 47, 64
2, 136025, Control_c, 0, 64, 63
2, 136031, Control_c, 0, 64, 0
2, 136032, Note_on_c, 0, 40, 84
2, 136036, Note_off_c, 0, 43, 64
2, 136042, Note_on_c, 0, 59, 80
2, 136046, Note_off_c, 0, 62, 64
2, 136065, Control_c, 0, 64, 63
2, 136073, Control_c, 0, 64, 127
2, 136086, Note_off_c, 0, 40, 64
2, 136087, Note_on_c, 0, 43, 80
2, 136144, Note_on_c, 0, 48, 74
2, 136154, Note_off_c, 0, 59, 64
2, 136159, Note_off_c, 0, 43, 64
2, 136163, Note_off_c, 0, 67, 64
2, 136196, Note_off_c, 0, 48, 64
2, 136198, Note_on_c, 0, 55, 63
2, 136245, Note_off_c, 0, 55, 64
2, 136249, Note_on_c, 0, 48, 55
2, 136253, Note_on_c, 0, 67, 96
2, 136256, Note_on_c, 0, 60, 84
2, 136300, Note_off_c, 0, 48, 64
2, 136333, Note_off_c, 0, 60, 64
2, 136374, Note_on_c, 0, 64, 84
2, 136375, Note_on_c, 0, 42, 80
2, 136383, Control_c, 0, 64, 63
2, 136388, Control_c, 0, 64, 0
2, 136420, Control_c, 0, 64, 63
2, 136428, Control_c, 0, 64, 127
2, 136436, Note_on_c, 0, 49, 67
2, 136438, Note_off_c, 0, 42, 64
2, 136444, Note_off_c, 0, 67, 64
2, 136469, Note_off_c, 0, 64, 64
2, 136484, Note_off_c, 0, 49, 64
2, 136503, Note_on_c, 0, 52, 52
2, 136551, Note_on_c, 0, 54, 44
2, 136552, Note_off_c, 0, 52, 64
2, 136569, Note_off_c, 0, 54, 64
2, 136615, Note_on_c, 0, 58, 72
2, 136615, Note_on_c, 0, 52, 57
2, 136619, Note_on_c, 0, 66, 79
2, 136631, Control_c, 0, 64, 63
2, 136637, Control_c, 0, 64, 0
2, 136646, Control_c, 0, 64, 63
2, 136657, Control_c, 0, 64, 127
2, 136683, Note_on_c, 0, 49, 72
2, 136684, Note_off_c, 0, 52, 64
2, 136704, Note_off_c, 0, 49, 64
2, 136714, Note_off_c, 0, 58, 64
2, 136790, Note_on_c, 0, 59, 65
2, 136792, Control_c, 0, 64, 63
2, 136794, Control_c, 0, 64, 0
2, 136800, Note_on_c, 0, 35, 57
2, 136823, Control_c, 0, 64, 63
2, 136828, Control_c, 0, 64, 127
2, 136865, Note_off_c, 0, 35, 64
2, 136888, Note_off_c, 0, 59, 64
2, 136918, Note_off_c, 0, 66, 64
2, 136995, Control_c, 0, 67, 127
2, 137001, Note_on_c, 0, 54, 60
2, 137073, Note_on_c, 0, 62, 56
2, 137108, Control_c, 0, 64, 63
2, 137112, Control_c, 0, 64, 0
2, 137132, Control_c, 0, 64, 63
2, 137140, Control_c, 0, 64, 127
2, 137150, Note_on_c, 0, 78, 73
2, 137152, Note_on_c, 0, 59, 55
2, 137155, Note_on_c, 0, 66, 29
2, 137156, Note_off_c, 0, 54, 64
2, 137181, Note_off_c, 0, 66, 64
2, 137182, Note_off_c, 0, 62, 64
2, 137197, Note_off_c, 0, 78, 64
2, 137216, Note_on_c, 0, 54, 71
2, 137217, Note_off_c, 0, 59, 64
2, 137245, Note_off_c, 0, 54, 64
2, 137294, Note_on_c, 0, 47, 65
2, 137299, Note_on_c, 0, 79, 70
2, 137302, Note_on_c, 0, 67, 37
2, 137318, Control_c, 0, 64, 63
2, 137323, Control_c, 0, 64, 0
2, 137343, Control_c, 0, 64, 63
2, 137350, Control_c, 0, 64, 127
2, 137356, Note_on_c, 0, 52, 78
2, 137369, Note_off_c, 0, 47, 64
2, 137403, Note_off_c, 0, 67, 64
2, 137419, Note_on_c, 0, 55, 73
2, 137420, Note_off_c, 0, 52, 64
2, 137424, Note_on_c, 0, 73, 72
2, 137426, Note_on_c, 0, 76, 73
2, 137434, Note_off_c, 0, 79, 64
2, 137446, Note_off_c, 0, 73, 64
2, 137455, Note_off_c, 0, 76, 64
2, 137456, Note_off_c, 0, 55, 64
2, 137477, Note_on_c, 0, 64, 55
2, 137517, Note_off_c, 0, 64, 64
2, 137526, Note_on_c, 0, 82, 104
2, 137528, Note_on_c, 0, 70, 93
2, 137533, Note_on_c, 0, 55, 70
2, 137543, Note_off_c, 0, 70, 64
2, 137557, Note_off_c, 0, 82, 64
2, 137572, Note_on_c, 0, 52, 71
2, 137575, Note_off_c, 0, 55, 64
2, 137620, Note_off_c, 0, 52, 64
2, 137629, Note_on_c, 0, 47, 88
2, 137631, Note_on_c, 0, 83, 97
2, 137634, Control_c, 0, 64, 63
2, 137636, Note_on_c, 0, 71, 67
2, 137638, Control_c, 0, 64, 0
2, 137664, Control_c, 0, 64, 63
2, 137670, Control_c, 0, 64, 127
2, 137679, Note_off_c, 0, 47, 64
2, 137691, Note_on_c, 0, 54, 89
2, 137727, Note_off_c, 0, 71, 64
2, 137738, Note_on_c, 0, 78, 87
2, 137740, Note_off_c, 0, 83, 64
2, 137740, Note_on_c, 0, 59, 82
2, 137741, Note_on_c, 0, 74, 76
2, 137748, Note_off_c, 0, 54, 64
2, 137765, Note_off_c, 0, 74, 64
2, 137771, Note_off_c, 0, 78, 64
2, 137781, Note_off_c, 0, 59, 64
2, 137790, Note_on_c, 0, 62, 77
2, 137821, Note_on_c, 0, 78, 103
2, 137823, Note_on_c, 0, 66, 106
2, 137843, Note_off_c, 0, 62, 64
2, 137844, Note_off_c, 0, 66, 64
2, 137844, Note_off_c, 0, 78, 64
2, 137845, Note_on_c, 0, 59, 65
2, 137873, Note_on_c, 0, 54, 91
2, 137880, Note_off_c, 0, 59, 64
2, 137918, Note_off_c, 0, 54, 64
2, 137929, Note_on_c, 0, 79, 103
2, 137932, Note_on_c, 0, 67, 90
2, 137933, Note_on_c, 0, 47, 106
2, 137938, Control_c, 0, 64, 63
2, 137941, Control_c, 0, 64, 0
2, 137971, Control_c, 0, 64, 63
2, 137977, Control_c, 0, 64, 127
2, 137982, Note_on_c, 0, 52, 81
2, 137994, Note_off_c, 0, 47, 64
2, 138012, Note_off_c, 0, 67, 64
2, 138027, Note_on_c, 0, 55, 87
2, 138031, Note_on_c, 0, 73, 91
2, 138031, Note_on_c, 0, 76, 88
2, 138032, Note_off_c, 0, 52, 64
2, 138034, Note_off_c, 0, 79, 64
2, 138055, Note_off_c, 0, 73, 64
2, 138063, Note_off_c, 0, 76, 64
2, 138063, Note_off_c, 0, 55, 64
2, 138075, Note_on_c, 0, 64, 86
2, 138116, Note_on_c, 0, 82, 113
2, 138117, Note_on_c, 0, 70, 114
2, 138119, Note_off_c, 0, 64, 64
2, 138128, Note_on_c, 0, 55, 77
2, 138137, Note_off_c, 0, 70, 64
2, 138147, Note_off_c, 0, 82, 64
2, 138163, Note_on_c, 0, 52, 87
2, 138175, Note_off_c, 0, 55, 64
2, 138218, Control_c, 0, 64, 63
2, 138219, Note_on_c, 0, 47, 98
2, 138221, Note_on_c, 0, 83, 102
2, 138222, Control_c, 0, 64, 0
2, 138223, Note_on_c, 0, 71, 92
2, 138226, Note_off_c, 0, 52, 64
2, 138251, Control_c, 0, 64, 63
2, 138256, Control_c, 0, 64, 127
2, 138258, Note_off_c, 0, 47, 64
2, 138285, Note_on_c, 0, 54, 90
2, 138324, Note_on_c, 0, 74, 85
2, 138326, Note_on_c, 0, 59, 94
2, 138326, Note_on_c, 0, 78, 88
2, 138337, Note_off_c, 0, 54, 64
2, 138350, Note_off_c, 0, 71, 64
2, 138357, Note_off_c, 0, 83, 64
2, 138367, Note_on_c, 0, 62, 107
2, 138371, Note_off_c, 0, 74, 64
2, 138381, Note_off_c, 0, 59, 64
2, 138395, Note_off_c, 0, 78, 64
2, 138414, Note_on_c, 0, 83, 109
2, 138416, Note_on_c, 0, 71, 113
2, 138416, Note_on_c, 0, 59, 96
2, 138431, Note_off_c, 0, 62, 64
2, 138462, Note_on_c, 0, 54, 92
2, 138487, Note_off_c, 0, 59, 64
2, 138495, Control_c, 0, 64, 63
2, 138498, Control_c, 0, 64, 0
2, 138504, Note_on_c, 0, 79, 98
2, 138506, Note_on_c, 0, 76, 99
2, 138510, Note_on_c, 0, 52, 111
2, 138523, Note_off_c, 0, 54, 64
2, 138525, Control_c, 0, 64, 63
2, 138528, Control_c, 0, 64, 127
2, 138552, Note_off_c, 0, 83, 64
2, 138555, Note_off_c, 0, 71, 64
2, 138558, Note_on_c, 0, 55, 94
2, 138567, Note_off_c, 0, 52, 64
2, 138570, Note_off_c, 0, 76, 64
2, 138575, Note_off_c, 0, 79, 64
2, 138603, Note_on_c, 0, 59, 97
2, 138608, Note_off_c, 0, 55, 64
2, 138609, Note_on_c, 0, 82, 115
2, 138609, Note_on_c, 0, 70, 121
2, 138628, Note_off_c, 0, 70, 64
2, 138637, Note_off_c, 0, 82, 64
2, 138639, Note_off_c, 0, 59, 64
2, 138657, Note_on_c, 0, 67, 76
2, 138702, Note_off_c, 0, 67, 64
2, 138703, Note_on_c, 0, 59, 84
2, 138711, Note_on_c, 0, 71, 104
2, 138711, Note_on_c, 0, 83, 108
2, 138734, Note_off_c, 0, 71, 64
2, 138741, Note_off_c, 0, 83, 64
2, 138753, Note_on_c, 0, 55, 79
2, 138769, Note_off_c, 0, 59, 64
2, 138810, Note_off_c, 0, 55, 64
2, 138832, Note_on_c, 0, 86, 107
2, 138833, Note_on_c, 0, 74, 100
2, 138835, Note_on_c, 0, 50, 101
2, 138836, Control_c, 0, 64, 63
2, 138839, Control_c, 0, 64, 0
2, 138862, Control_c, 0, 64, 63
2, 138866, Control_c, 0, 64, 127
2, 138875, Note_off_c, 0, 50, 64
2, 138921, Note_on_c, 0, 57, 72
2, 138958, Note_off_c, 0, 57, 64
2, 138974, Note_on_c, 0, 62, 83
2, 138977, Note_on_c, 0, 78, 89
2, 138977, Note_on_c, 0, 81, 75
2, 139000, Note_off_c, 0, 74, 64
2, 139010, Note_off_c, 0, 62, 64
2, 139029, Note_on_c, 0, 66, 90
2, 139063, Note_off_c, 0, 66, 64
2, 139067, Note_on_c, 0, 62, 82
2, 139069, Note_on_c, 0, 74, 102
2, 139084, Note_off_c, 0, 81, 64
2, 139089, Note_off_c, 0, 78, 64
2, 139108, Note_on_c, 0, 57, 86
2, 139127, Note_off_c, 0, 62, 64
2, 139159, Note_on_c, 0, 55, 106
2, 139162, Note_on_c, 0, 82, 100
2, 139164, Note_on_c, 0, 79, 90
2, 139170, Control_c, 0, 64, 63
2, 139172, Control_c, 0, 64, 0
2, 139176, Note_off_c, 0, 57, 64
2, 139205, Note_off_c, 0, 74, 64
2, 139208, Control_c, 0, 64, 63
2, 139212, Control_c, 0, 64, 127
2, 139214, Note_on_c, 0, 58, 100
2, 139241, Note_off_c, 0, 55, 64
2, 139256, Note_on_c, 0, 62, 96
2, 139260, Note_on_c, 0, 74, 97
2, 139269, Note_off_c, 0, 82, 64
2, 139278, Note_off_c, 0, 58, 64
2, 139280, Note_off_c, 0, 79, 64
2, 139300, Note_on_c, 0, 70, 110
2, 139314, Note_off_c, 0, 62, 64
2, 139343, Note_on_c, 0, 82, 96
2, 139346, Note_on_c, 0, 79, 88
2, 139348, Note_off_c, 0, 70, 64
2, 139352, Note_on_c, 0, 62, 90
2, 139390, Note_off_c, 0, 74, 64
2, 139391, Note_on_c, 0, 58, 97
2, 139401, Note_off_c, 0, 62, 64
2, 139415, Note_off_c, 0, 82, 64
2, 139420, Note_off_c, 0, 79, 64
2, 139427, Note_off_c, 0, 58, 64
2, 139427, Control_c, 0, 64, 63
2, 139430, Control_c, 0, 64, 0
2, 139443, Note_on_c, 0, 74, 94
2, 139446, Note_on_c, 0, 50, 118
2, 139461, Control_c, 0, 64, 63
2, 139465, Control_c, 0, 64, 127
2, 139473, Note_off_c, 0, 50, 64
2, 139515, Note_on_c, 0, 57, 68
2, 139519, Note_off_c, 0, 74, 64
2, 139550, Note_on_c, 0, 78, 87
2, 139551, Note_on_c, 0, 81, 79
2, 139554, Note_off_c, 0, 57, 64
2, 139554, Note_off_c, 0, 86, 64
2, 139571, Note_off_c, 0, 81, 64
2, 139574, Note_off_c, 0, 78, 64
2, 139606, Note_on_c, 0, 66, 91
2, 139645, Note_off_c, 0, 66, 64
2, 139657, Note_on_c, 0, 62, 82
2, 139657, Note_on_c, 0, 81, 84
2, 139657, Note_on_c, 0, 69, 90
2, 139687, Note_off_c, 0, 69, 64
2, 139700, Note_on_c, 0, 57, 73
2, 139704, Note_off_c, 0, 62, 64
2, 139705, Note_off_c, 0, 81, 64
2, 139738, Note_off_c, 0, 57, 64
2, 139753, Note_on_c, 0, 82, 101
2, 139757, Note_on_c, 0, 70, 90
2, 139759, Control_c, 0, 64, 63
2, 139760, Note_on_c, 0, 50, 104
2, 139763, Control_c, 0, 64, 0
2, 139782, Control_c, 0, 64, 63
2, 139789, Control_c, 0, 64, 127
2, 139793, Note_off_c, 0, 50, 64
2, 139811, Note_on_c, 0, 55, 89
2, 139846, Note_off_c, 0, 70, 64
2, 139850, Note_off_c, 0, 55, 64
2, 139857, Note_on_c, 0, 58, 99
2, 139860, Note_on_c, 0, 79, 88
2, 139862, Note_on_c, 0, 76, 87
2, 139874, Note_off_c, 0, 82, 64
2, 139884, Note_off_c, 0, 58, 64
2, 139890, Note_off_c, 0, 76, 64
2, 139900, Note_off_c, 0, 79, 64
2, 139908, Note_on_c, 0, 67, 85
2, 139939, Note_on_c, 0, 73, 110
2, 139940, Note_on_c, 0, 85, 112
2, 139951, Note_off_c, 0, 67, 64
2, 139954, Note_on_c, 0, 58, 101
2, 139961, Note_off_c, 0, 73, 64
2, 139965, Note_off_c, 0, 85, 64
2, 139986, Note_on_c, 0, 55, 89
2, 140004, Note_off_c, 0, 58, 64
2, 140028, Control_c, 0, 64, 63
2, 140032, Control_c, 0, 64, 0
2, 140037, Note_off_c, 0, 55, 64
2, 140039, Note_on_c, 0, 86, 109
2, 140040, Note_on_c, 0, 74, 109
2, 140048, Note_on_c, 0, 50, 111
2, 140058, Control_c, 0, 64, 63
2, 140062, Control_c, 0, 64, 127
2, 140074, Note_off_c, 0, 50, 64
2, 140105, Note_off_c, 0, 86, 64
2, 140106, Note_on_c, 0, 57, 79
2, 140130, Note_off_c, 0, 74, 64
2, 140148, Note_on_c, 0, 62, 96
2, 140149, Note_off_c, 0, 57, 64
2, 140151, Note_on_c, 0, 81, 85
2, 140153, Note_on_c, 0, 78, 95
2, 140176, Note_off_c, 0, 81, 64
2, 140183, Note_off_c, 0, 78, 64
2, 140191, Note_off_c, 0, 62, 64
2, 140196, Note_on_c, 0, 66, 112
2, 140231, Note_off_c, 0, 66, 64
2, 140235, Note_on_c, 0, 69, 107
2, 140236, Note_on_c, 0, 81, 107
2, 140239, Note_on_c, 0, 62, 84
2, 140250, Note_off_c, 0, 69, 64
2, 140253, Note_off_c, 0, 81, 64
2, 140275, Note_on_c, 0, 57, 87
2, 140284, Note_off_c, 0, 62, 64
2, 140314, Note_off_c, 0, 57, 64
2, 140329, Control_c, 0, 64, 63
2, 140330, Note_on_c, 0, 82, 103
2, 140333, Note_on_c, 0, 70, 108
2, 140334, Control_c, 0, 64, 0
2, 140336, Note_on_c, 0, 50, 116
2, 140358, Control_c, 0, 64, 63
2, 140362, Control_c, 0, 64, 127
2, 140366, Note_off_c, 0, 50, 64
2, 140382, Note_on_c, 0, 55, 91
2, 140401, Note_off_c, 0, 70, 64
2, 140422, Note_off_c, 0, 55, 64
2, 140425, Note_on_c, 0, 58, 100
2, 140430, Note_on_c, 0, 79, 88
2, 140435, Note_on_c, 0, 76, 80
2, 140436, Note_off_c, 0, 82, 64
2, 140456, Note_off_c, 0, 58, 64
2, 140460, Note_off_c, 0, 76, 64
2, 140471, Note_off_c, 0, 79, 64
2, 140474, Note_on_c, 0, 67, 79
2, 140510, Note_off_c, 0, 67, 64
2, 140513, Note_on_c, 0, 73, 112
2, 140513, Note_on_c, 0, 85, 115
2, 140520, Note_on_c, 0, 58, 98
2, 140534, Note_off_c, 0, 73, 64
2, 140550, Note_off_c, 0, 85, 64
2, 140555, Note_on_c, 0, 55, 89
2, 140570, Note_off_c, 0, 58, 64
2, 140592, Control_c, 0, 64, 63
2, 140595, Control_c, 0, 64, 0
2, 140605, Note_off_c, 0, 55, 64
2, 140617, Note_on_c, 0, 86, 111
2, 140620, Note_on_c, 0, 74, 96
2, 140621, Note_on_c, 0, 50, 109
2, 140632, Control_c, 0, 64, 63
2, 140635, Control_c, 0, 64, 127
2, 140651, Note_off_c, 0, 50, 64
2, 140690, Note_on_c, 0, 57, 74
2, 140695, Note_off_c, 0, 74, 64
2, 140731, Note_off_c, 0, 57, 64
2, 140736, Note_off_c, 0, 86, 64
2, 140736, Note_on_c, 0, 78, 88
2, 140737, Note_on_c, 0, 81, 79
2, 140737, Note_on_c, 0, 62, 92
2, 140776, Note_off_c, 0, 62, 64
2, 140788, Note_on_c, 0, 66, 112
2, 140801, Note_off_c, 0, 81, 64
2, 140802, Note_off_c, 0, 78, 64
2, 140822, Note_off_c, 0, 66, 64
2, 140822, Note_on_c, 0, 86, 116
2, 140823, Note_on_c, 0, 74, 117
2, 140838, Note_on_c, 0, 62, 76
2, 140868, Note_on_c, 0, 57, 80
2, 140890, Note_off_c, 0, 62, 64
2, 140910, Control_c, 0, 64, 63
2, 140912, Control_c, 0, 64, 0
2, 140914, Note_off_c, 0, 57, 64
2, 140914, Note_on_c, 0, 83, 89
2, 140918, Note_on_c, 0, 55, 107
2, 140918, Note_on_c, 0, 79, 84
2, 140940, Control_c, 0, 64, 63
2, 140943, Control_c, 0, 64, 127
2, 140944, Note_off_c, 0, 86, 64
2, 140966, Note_on_c, 0, 59, 104
2, 140978, Note_off_c, 0, 74, 64
2, 140984, Note_off_c, 0, 55, 64
2, 141009, Note_on_c, 0, 62, 101
2, 141017, Note_on_c, 0, 85, 113
2, 141019, Note_off_c, 0, 59, 64
2, 141019, Note_on_c, 0, 73, 119
2, 141020, Note_off_c, 0, 79, 64
2, 141021, Note_off_c, 0, 83, 64
2, 141042, Note_off_c, 0, 73, 64
2, 141047, Note_off_c, 0, 85, 64
2, 141064, Note_off_c, 0, 62, 64
2, 141070, Note_on_c, 0, 71, 86
2, 141117, Note_on_c, 0, 62, 93
2, 141121, Note_off_c, 0, 71, 64
2, 141126, Note_on_c, 0, 74, 109
2, 141126, Note_on_c, 0, 86, 114
2, 141146, Note_off_c, 0, 74, 64
2, 141149, Note_off_c, 0, 86, 64
2, 141173, Note_on_c, 0, 59, 103
2, 141187, Note_off_c, 0, 62, 64
2, 141210, Note_off_c, 0, 59, 64
2, 141257, Note_on_c, 0, 54, 110
2, 141260, Note_on_c, 0, 90, 109
2, 141262, Note_on_c, 0, 78, 108
2, 141268, Control_c, 0, 64, 63
2, 141271, Control_c, 0, 64, 0
2, 141304, Control_c, 0, 64, 63
2, 141307, Control_c, 0, 64, 127
2, 141346, Note_on_c, 0, 61, 89
2, 141364, Note_off_c, 0, 54, 64
2, 141405, Note_on_c, 0, 64, 69
2, 141408, Note_on_c, 0, 85, 90
2, 141409, Note_on_c, 0, 82, 86
2, 141423, Note_off_c, 0, 61, 64
2, 141434, Note_off_c, 0, 78, 64
2, 141464, Note_off_c, 0, 64, 64
2, 141467, Note_on_c, 0, 70, 96
2, 141510, Note_off_c, 0, 70, 64
2, 141511, Note_on_c, 0, 64, 76
2, 141511, Note_on_c, 0, 78, 93
2, 141529, Note_off_c, 0, 85, 64
2, 141534, Note_off_c, 0, 82, 64
2, 141538, Control_c, 0, 67, 0
2, 141554, Note_on_c, 0, 61, 91
2, 141578, Note_off_c, 0, 64, 64
2, 141607, Note_on_c, 0, 86, 80
2, 141607, Note_on_c, 0, 59, 84
2, 141613, Note_on_c, 0, 83, 65
2, 141626, Note_off_c, 0, 61, 64
2, 141662, Control_c, 0, 64, 63
2, 141663, Note_on_c, 0, 62, 96
2, 141678, Control_c, 0, 64, 127
2, 141679, Note_off_c, 0, 78, 64
2, 141686, Note_off_c, 0, 59, 64
2, 141710, Note_on_c, 0, 66, 98
2, 141714, Note_on_c, 0, 78, 89
2, 141736, Note_off_c, 0, 86, 64
2, 141738, Note_off_c, 0, 62, 64
2, 141743, Note_off_c, 0, 83, 64
2, 141762, Note_on_c, 0, 74, 51
2, 141763, Note_off_c, 0, 66, 64
2, 141801, Note_on_c, 0, 66, 94
2, 141803, Note_on_c, 0, 86, 85
2, 141804, Note_on_c, 0, 83, 79
2, 141809, Note_off_c, 0, 74, 64
2, 141823, Note_off_c, 0, 78, 64
2, 141838, Note_on_c, 0, 62, 84
2, 141858, Note_off_c, 0, 66, 64
2, 141880, Note_off_c, 0, 62, 64
2, 141887, Note_on_c, 0, 78, 92
2, 141891, Note_on_c, 0, 58, 99
2, 141893, Control_c, 0, 64, 63
2, 141898, Control_c, 0, 64, 0
2, 141902, Note_off_c, 0, 83, 64
2, 141903, Note_off_c, 0, 86, 64
2, 141911, Control_c, 0, 64, 63
2, 141919, Control_c, 0, 64, 127
2, 141940, Note_on_c, 0, 61, 98
2, 141955, Note_off_c, 0, 58, 64
2, 141988, Note_on_c, 0, 66, 101
2, 141991, Note_on_c, 0, 82, 89
2, 141993, Note_on_c, 0, 85, 92
2, 141998, Note_off_c, 0, 90, 64
2, 142004, Note_off_c, 0, 61, 64
2, 142010, Note_off_c, 0, 78, 64
2, 142017, Note_off_c, 0, 82, 64
2, 142020, Note_off_c, 0, 85, 64
2, 142035, Note_on_c, 0, 73, 104
2, 142042, Note_off_c, 0, 66, 64
2, 142064, Note_off_c, 0, 73, 64
2, 142081, Note_on_c, 0, 66, 97
2, 142087, Note_on_c, 0, 73, 110
2, 142088, Note_on_c, 0, 85, 113
2, 142114, Note_off_c, 0, 73, 64
2, 142125, Note_off_c, 0, 85, 64
2, 142129, Note_on_c, 0, 61, 104
2, 142137, Note_off_c, 0, 66, 64
2, 142166, Note_on_c, 0, 60, 22
2, 142184, Note_off_c, 0, 60, 64
2, 142186, Note_off_c, 0, 61, 64
2, 142195, Note_on_c, 0, 86, 106
2, 142197, Note_on_c, 0, 74, 99
2, 142201, Note_on_c, 0, 57, 96
2, 142210, Control_c, 0, 64, 63
2, 142214, Control_c, 0, 64, 0
2, 142245, Control_c, 0, 64, 63
2, 142249, Control_c, 0, 64, 127
2, 142261, Note_on_c, 0, 59, 87
2, 142288, Note_off_c, 0, 57, 64
2, 142305, Note_on_c, 0, 83, 77
2, 142306, Note_on_c, 0, 78, 88
2, 142316, Note_on_c, 0, 66, 109
2, 142320, Note_off_c, 0, 59, 64
2, 142324, Note_off_c, 0, 86, 64
2, 142335, Note_off_c, 0, 74, 64
2, 142346, Note_off_c, 0, 78, 64
2, 142353, Note_off_c, 0, 83, 64
2, 142358, Note_on_c, 0, 71, 102
2, 142365, Note_off_c, 0, 66, 64
2, 142398, Note_on_c, 0, 75, 121
2, 142399, Note_on_c, 0, 87, 114
2, 142410, Note_on_c, 0, 66, 95
2, 142415, Note_off_c, 0, 71, 64
2, 142426, Note_off_c, 0, 75, 64
2, 142442, Note_off_c, 0, 87, 64
2, 142450, Note_off_c, 0, 66, 64
2, 142462, Note_on_c, 0, 59, 60
2, 142510, Note_on_c, 0, 88, 111
2, 142512, Note_on_c, 0, 76, 98
2, 142514, Note_on_c, 0, 56, 106
2, 142520, Note_off_c, 0, 59, 64
2, 142531, Control_c, 0, 64, 63
2, 142535, Control_c, 0, 64, 0
2, 142554, Control_c, 0, 64, 63
2, 142558, Note_on_c, 0, 59, 88
2, 142559, Control_c, 0, 64, 127
2, 142562, Note_off_c, 0, 56, 64
2, 142609, Note_on_c, 0, 64, 89
2, 142610, Note_on_c, 0, 83, 69
2, 142613, Note_on_c, 0, 80, 89
2, 142630, Note_off_c, 0, 59, 64
2, 142647, Note_off_c, 0, 76, 64
2, 142656, Note_on_c, 0, 71, 87
2, 142660, Note_off_c, 0, 64, 64
2, 142704, Note_off_c, 0, 71, 64
2, 142705, Note_on_c, 0, 64, 83
2, 142709, Note_on_c, 0, 76, 103
2, 142724, Note_off_c, 0, 83, 64
2, 142732, Note_off_c, 0, 80, 64
2, 142742, Note_on_c, 0, 59, 81
2, 142763, Note_off_c, 0, 64, 64
2, 142782, Control_c, 0, 64, 63
2, 142785, Control_c, 0, 64, 0
2, 142799, Note_on_c, 0, 85, 108
2, 142799, Note_on_c, 0, 55, 107
2, 142800, Note_on_c, 0, 81, 99
2, 142806, Control_c, 0, 64, 63
2, 142808, Note_off_c, 0, 59, 64
2, 142812, Control_c, 0, 64, 127
2, 142851, Note_on_c, 0, 61, 85
2, 142853, Note_off_c, 0, 76, 64
2, 142853, Note_off_c, 0, 88, 64
2, 142868, Note_off_c, 0, 81, 64
2, 142870, Note_off_c, 0, 55, 64
2, 142889, Note_off_c, 0, 85, 64
2, 142902, Note_on_c, 0, 64, 98
2, 142914, Note_off_c, 0, 61, 64
2, 142949, Note_off_c, 0, 64, 64
2, 142951, Note_on_c, 0, 69, 76
2, 142951, Note_on_c, 0, 78, 112
2, 142952, Note_on_c, 0, 90, 106
2, 142971, Note_off_c, 0, 90, 64
2, 142971, Note_off_c, 0, 78, 64
2, 142994, Note_off_c, 0, 69, 64
2, 142996, Note_on_c, 0, 88, 102
2, 142999, Note_on_c, 0, 76, 84
2, 143002, Note_on_c, 0, 64, 96
2, 143012, Note_off_c, 0, 88, 64
2, 143020, Note_off_c, 0, 76, 64
2, 143040, Note_on_c, 0, 61, 96
2, 143041, Note_off_c, 0, 64, 64
2, 143097, Note_on_c, 0, 54, 100
2, 143100, Note_on_c, 0, 86, 109
2, 143102, Note_on_c, 0, 74, 88
2, 143104, Control_c, 0, 64, 63
2, 143107, Control_c, 0, 64, 0
2, 143109, Note_off_c, 0, 61, 64
2, 143132, Control_c, 0, 64, 63
2, 143137, Control_c, 0, 64, 127
2, 143148, Note_on_c, 0, 57, 72
2, 143149, Note_off_c, 0, 54, 64
2, 143198, Note_on_c, 0, 62, 84
2, 143198, Note_on_c, 0, 81, 75
2, 143199, Note_on_c, 0, 78, 92
2, 143206, Note_off_c, 0, 86, 64
2, 143209, Note_off_c, 0, 57, 64
2, 143213, Note_off_c, 0, 74, 64
2, 143239, Note_off_c, 0, 78, 64
2, 143239, Note_on_c, 0, 69, 84
2, 143240, Note_off_c, 0, 62, 64
2, 143241, Note_off_c, 0, 81, 64
2, 143281, Note_on_c, 0, 73, 119
2, 143281, Note_on_c, 0, 62, 81
2, 143281, Note_on_c, 0, 85, 112
2, 143282, Note_off_c, 0, 69, 64
2, 143306, Note_off_c, 0, 85, 64
2, 143308, Note_off_c, 0, 73, 64
2, 143311, Note_on_c, 0, 57, 68
2, 143333, Note_off_c, 0, 62, 64
2, 143360, Note_off_c, 0, 57, 64
2, 143382, Note_on_c, 0, 83, 104
2, 143382, Note_on_c, 0, 54, 97
2, 143384, Note_on_c, 0, 71, 100
2, 143384, Control_c, 0, 64, 63
2, 143387, Control_c, 0, 64, 0
2, 143412, Control_c, 0, 64, 63
2, 143417, Control_c, 0, 64, 127
2, 143437, Note_on_c, 0, 56, 89
2, 143451, Note_off_c, 0, 71, 64
2, 143455, Note_off_c, 0, 54, 64
2, 143457, Note_off_c, 0, 83, 64
2, 143484, Note_on_c, 0, 62, 79
2, 143491, Note_off_c, 0, 56, 64
2, 143491, Note_on_c, 0, 80, 101
2, 143492, Note_on_c, 0, 74, 101
2, 143513, Note_off_c, 0, 74, 64
2, 143528, Note_off_c, 0, 80, 64
2, 143528, Note_off_c, 0, 62, 64
2, 143539, Note_on_c, 0, 68, 95
2, 143574, Note_off_c, 0, 68, 64
2, 143594, Note_on_c, 0, 85, 105
2, 143595, Note_on_c, 0, 73, 104
2, 143597, Note_on_c, 0, 56, 82
2, 143619, Note_off_c, 0, 85, 64
2, 143622, Note_off_c, 0, 73, 64
2, 143650, Note_off_c, 0, 56, 64
2, 143706, Note_on_c, 0, 78, 96
2, 143706, Note_on_c, 0, 66, 104
2, 143711, Note_on_c, 0, 52, 80
2, 143726, Control_c, 0, 64, 63
2, 143730, Control_c, 0, 64, 0
2, 143754, Control_c, 0, 64, 63
2, 143760, Control_c, 0, 64, 127
2, 143761, Note_on_c, 0, 54, 85
2, 143773, Note_off_c, 0, 52, 64
2, 143795, Note_off_c, 0, 66, 64
2, 143812, Note_on_c, 0, 58, 71
2, 143815, Note_on_c, 0, 73, 72
2, 143816, Note_on_c, 0, 70, 65
2, 143830, Note_off_c, 0, 54, 64
2, 143845, Note_off_c, 0, 70, 64
2, 143857, Note_off_c, 0, 58, 64
2, 143866, Note_off_c, 0, 73, 64
2, 143869, Note_on_c, 0, 64, 24
2, 143904, Note_on_c, 0, 58, 60
2, 143911, Note_on_c, 0, 66, 86
2, 143924, Note_off_c, 0, 64, 64
2, 143954, Note_on_c, 0, 54, 77
2, 143973, Note_off_c, 0, 58, 64
2, 143986, Control_c, 0, 64, 63
2, 143989, Note_off_c, 0, 66, 64
2, 143990, Control_c, 0, 64, 0
2, 144006, Note_on_c, 0, 50, 72
2, 144006, Note_on_c, 0, 71, 75
2, 144008, Note_on_c, 0, 74, 68
2, 144008, Control_c, 0, 64, 63
2, 144011, Note_off_c, 0, 54, 64
2, 144016, Control_c, 0, 64, 127
2, 144046, Note_off_c, 0, 71, 64
2, 144057, Note_off_c, 0, 74, 64
2, 144061, Note_off_c, 0, 78, 64
2, 144061, Note_on_c, 0, 54, 57
2, 144064, Note_off_c, 0, 50, 64
2, 144099, Note_on_c, 0, 59, 60
2, 144101, Note_on_c, 0, 58, 39
2, 144109, Note_off_c, 0, 54, 64
2, 144114, Note_off_c, 0, 58, 64
2, 144157, Note_off_c, 0, 59, 64
2, 144163, Note_on_c, 0, 88, 93
2, 144163, Note_on_c, 0, 76, 91
2, 144166, Note_on_c, 0, 66, 81
2, 144176, Note_off_c, 0, 88, 64
2, 144184, Note_off_c, 0, 76, 64
2, 144215, Note_off_c, 0, 66, 64
2, 144218, Note_on_c, 0, 74, 101
2, 144220, Note_on_c, 0, 86, 98
2, 144222, Note_on_c, 0, 59, 76
2, 144230, Note_off_c, 0, 86, 64
2, 144230, Note_off_c, 0, 74, 64
2, 144277, Note_on_c, 0, 54, 89
2, 144279, Note_off_c, 0, 59, 64
2, 144312, Note_off_c, 0, 54, 64
2, 144326, Control_c, 0, 64, 63
2, 144330, Control_c, 0, 64, 0
2, 144335, Note_on_c, 0, 85, 103
2, 144337, Note_on_c, 0, 73, 103
2, 144340, Note_on_c, 0, 46, 104
2, 144352, Control_c, 0, 64, 63
2, 144357, Control_c, 0, 64, 127
2, 144369, Note_off_c, 0, 46, 64
2, 144393, Note_off_c, 0, 85, 64
2, 144396, Note_off_c, 0, 73, 64
2, 144408, Note_on_c, 0, 54, 85
2, 144455, Note_on_c, 0, 78, 98
2, 144459, Note_off_c, 0, 54, 64
2, 144462, Note_on_c, 0, 61, 93
2, 144463, Note_on_c, 0, 76, 54
2, 144479, Note_off_c, 0, 76, 64
2, 144481, Note_off_c, 0, 78, 64
2, 144507, Note_off_c, 0, 61, 64
2, 144507, Note_on_c, 0, 64, 82
2, 144558, Note_on_c, 0, 86, 103
2, 144558, Note_on_c, 0, 61, 91
2, 144559, Note_on_c, 0, 74, 94
2, 144567, Note_off_c, 0, 86, 64
2, 144568, Note_off_c, 0, 64, 64
2, 144579, Note_off_c, 0, 74, 64
2, 144599, Note_off_c, 0, 61, 64
2, 144604, Note_on_c, 0, 54, 81
2, 144631, Note_off_c, 0, 54, 64
2, 144651, Control_c, 0, 64, 63
2, 144654, Control_c, 0, 64, 0
2, 144660, Note_on_c, 0, 47, 108
2, 144661, Note_on_c, 0, 83, 100
2, 144661, Note_on_c, 0, 71, 99
2, 144671, Control_c, 0, 64, 63
2, 144676, Control_c, 0, 64, 127
2, 144679, Note_off_c, 0, 83, 64
2, 144688, Note_off_c, 0, 47, 64
2, 144695, Note_off_c, 0, 71, 64
2, 144724, Note_on_c, 0, 54, 90
2, 144767, Note_on_c, 0, 59, 89
2, 144773, Note_on_c, 0, 74, 102
2, 144775, Note_on_c, 0, 78, 104
2, 144784, Note_off_c, 0, 54, 64
2, 144795, Note_off_c, 0, 74, 64
2, 144808, Note_off_c, 0, 78, 64
2, 144812, Note_on_c, 0, 62, 100
2, 144818, Note_off_c, 0, 59, 64
2, 144861, Note_on_c, 0, 86, 108
2, 144864, Note_on_c, 0, 59, 93
2, 144866, Note_on_c, 0, 74, 76
2, 144876, Note_off_c, 0, 62, 64
2, 144879, Note_off_c, 0, 74, 64
2, 144879, Note_off_c, 0, 86, 64
2, 144903, Note_on_c, 0, 54, 104
2, 144910, Note_off_c, 0, 59, 64
2, 144935, Note_off_c, 0, 54, 64
2, 144961, Note_on_c, 0, 45, 100
2, 144962, Control_c, 0, 64, 63
2, 144963, Note_on_c, 0, 78, 95
2, 144966, Note_on_c, 0, 66, 112
2, 144967, Control_c, 0, 64, 0
2, 144988, Control_c, 0, 64, 63
2, 144993, Control_c, 0, 64, 127
2, 145004, Note_off_c, 0, 45, 64
2, 145018, Note_on_c, 0, 51, 99
2, 145042, Note_off_c, 0, 66, 64
2, 145063, Note_on_c, 0, 54, 107
2, 145067, Note_off_c, 0, 51, 64
2, 145068, Note_on_c, 0, 75, 105
2, 145071, Note_off_c, 0, 78, 64
2, 145071, Note_on_c, 0, 72, 92
2, 145097, Note_off_c, 0, 72, 64
2, 145111, Note_off_c, 0, 75, 64
2, 145114, Note_off_c, 0, 54, 64
2, 145115, Note_on_c, 0, 60, 76
2, 145162, Note_on_c, 0, 79, 101
2, 145162, Note_on_c, 0, 54, 94
2, 145164, Note_on_c, 0, 67, 90
2, 145171, Note_off_c, 0, 60, 64
2, 145176, Note_off_c, 0, 79, 64
2, 145184, Note_off_c, 0, 67, 64
2, 145196, Note_on_c, 0, 51, 101
2, 145206, Note_off_c, 0, 54, 64
2, 145237, Note_off_c, 0, 51, 64
2, 145250, Control_c, 0, 64, 63
2, 145254, Control_c, 0, 64, 0
2, 145254, Note_on_c, 0, 43, 120
2, 145256, Note_on_c, 0, 76, 104
2, 145259, Note_on_c, 0, 64, 98
2, 145285, Control_c, 0, 64, 63
2, 145287, Control_c, 0, 64, 127
2, 145303, Note_on_c, 0, 47, 99
2, 145315, Note_off_c, 0, 64, 64
2, 145316, Note_off_c, 0, 76, 64
2, 145318, Note_off_c, 0, 43, 64
2, 145355, Note_off_c, 0, 47, 64
2, 145358, Note_on_c, 0, 52, 62
2, 145359, Note_on_c, 0, 71, 83
2, 145361, Note_on_c, 0, 67, 80
2, 145373, Note_off_c, 0, 67, 64
2, 145383, Note_off_c, 0, 71, 64
2, 145398, Note_off_c, 0, 52, 64
2, 145408, Note_on_c, 0, 59, 79
2, 145454, Note_off_c, 0, 59, 64
2, 145458, Note_on_c, 0, 71, 101
2, 145458, Note_on_c, 0, 83, 106
2, 145458, Note_on_c, 0, 52, 79
2, 145476, Note_off_c, 0, 83, 64
2, 145478, Note_off_c, 0, 71, 64
2, 145500, Note_on_c, 0, 47, 81
2, 145511, Note_off_c, 0, 52, 64
2, 145539, Note_off_c, 0, 47, 64
2, 145568, Note_on_c, 0, 42, 106
2, 145570, Note_on_c, 0, 74, 107
2, 145571, Control_c, 0, 64, 63
2, 145572, Note_on_c, 0, 62, 92
2, 145575, Control_c, 0, 64, 0
2, 145596, Control_c, 0, 64, 63
2, 145599, Note_off_c, 0, 42, 64
2, 145600, Note_off_c, 0, 62, 64
2, 145600, Control_c, 0, 64, 127
2, 145618, Note_on_c, 0, 47, 92
2, 145657, Note_off_c, 0, 74, 64
2, 145658, Note_off_c, 0, 47, 64
2, 145671, Note_on_c, 0, 54, 114
2, 145674, Note_on_c, 0, 66, 109
2, 145674, Note_on_c, 0, 71, 92
2, 145697, Note_off_c, 0, 66, 64
2, 145703, Note_off_c, 0, 71, 64
2, 145708, Note_off_c, 0, 54, 64
2, 145709, Note_on_c, 0, 59, 100
2, 145757, Note_on_c, 0, 54, 89
2, 145761, Note_on_c, 0, 64, 85
2, 145762, Note_off_c, 0, 59, 64
2, 145762, Note_on_c, 0, 76, 104
2, 145779, Note_off_c, 0, 76, 64
2, 145782, Note_off_c, 0, 64, 64
2, 145791, Note_off_c, 0, 54, 64
2, 145792, Note_on_c, 0, 47, 86
2, 145826, Note_off_c, 0, 47, 64
2, 145849, Control_c, 0, 64, 63
2, 145852, Control_c, 0, 64, 0
2, 145857, Note_on_c, 0, 40, 124
2, 145858, Note_on_c, 0, 73, 112
2, 145859, Note_on_c, 0, 61, 115
2, 145873, Control_c, 0, 64, 63
2, 145877, Control_c, 0, 64, 127
2, 145889, Note_off_c, 0, 40, 64
2, 145906, Note_on_c, 0, 46, 108
2, 145914, Note_off_c, 0, 61, 64
2, 145952, Note_on_c, 0, 49, 106
2, 145961, Note_off_c, 0, 73, 64
2, 145964, Note_off_c, 0, 46, 64
2, 145967, Note_on_c, 0, 70, 104
2, 145968, Note_on_c, 0, 67, 90
2, 145984, Note_off_c, 0, 67, 64
2, 145996, Note_off_c, 0, 70, 64
2, 146008, Note_on_c, 0, 55, 97
2, 146009, Note_off_c, 0, 49, 64
2, 146058, Note_on_c, 0, 49, 106
2, 146065, Note_on_c, 0, 67, 97
2, 146065, Note_on_c, 0, 79, 106
2, 146069, Note_off_c, 0, 55, 64
2, 146082, Note_off_c, 0, 67, 64
2, 146084, Note_off_c, 0, 79, 64
2, 146093, Note_on_c, 0, 46, 105
2, 146106, Note_off_c, 0, 49, 64
2, 146142, Note_off_c, 0, 46, 64
2, 146151, Control_c, 0, 64, 63
2, 146155, Control_c, 0, 64, 0
2, 146156, Note_on_c, 0, 79, 108
2, 146157, Note_on_c, 0, 67, 104
2, 146158, Note_on_c, 0, 40, 121
2, 146175, Control_c, 0, 64, 63
2, 146179, Control_c, 0, 64, 127
2, 146180, Note_off_c, 0, 79, 64
2, 146208, Note_off_c, 0, 40, 64
2, 146215, Note_on_c, 0, 46, 100
2, 146230, Note_off_c, 0, 67, 64
2, 146270, Note_on_c, 0, 49, 110
2, 146271, Note_off_c, 0, 46, 64
2, 146271, Note_on_c, 0, 73, 114
2, 146272, Note_on_c, 0, 70, 98
2, 146284, Note_off_c, 0, 70, 64
2, 146295, Note_off_c, 0, 73, 64
2, 146312, Note_on_c, 0, 55, 96
2, 146327, Note_off_c, 0, 49, 64
2, 146379, Note_on_c, 0, 70, 115
2, 146381, Note_on_c, 0, 82, 108
2, 146387, Note_on_c, 0, 49, 104
2, 146400, Note_off_c, 0, 70, 64
2, 146404, Note_off_c, 0, 82, 64
2, 146407, Note_off_c, 0, 55, 64
2, 146435, Note_on_c, 0, 46, 105
2, 146451, Note_off_c, 0, 49, 64
2, 146491, Control_c, 0, 64, 63
2, 146493, Note_on_c, 0, 73, 123
2, 146494, Note_on_c, 0, 85, 119
2, 146494, Control_c, 0, 64, 0
2, 146496, Note_on_c, 0, 40, 106
2, 146509, Note_off_c, 0, 46, 64
2, 146516, Control_c, 0, 64, 63
2, 146520, Control_c, 0, 64, 127
2, 146550, Note_off_c, 0, 73, 64
2, 146562, Note_off_c, 0, 85, 64
2, 146564, Note_on_c, 0, 42, 101
2, 146567, Note_off_c, 0, 40, 64
2, 146624, Note_on_c, 0, 46, 104
2, 146626, Note_on_c, 0, 74, 113
2, 146626, Note_on_c, 0, 86, 111
2, 146641, Note_off_c, 0, 42, 64
2, 146645, Note_off_c, 0, 86, 64
2, 146646, Note_off_c, 0, 74, 64
2, 146691, Note_on_c, 0, 54, 97
2, 146709, Note_off_c, 0, 46, 64
2, 146785, Note_on_c, 0, 76, 104
2, 146786, Note_on_c, 0, 88, 109
2, 146788, Note_on_c, 0, 46, 116
2, 146798, Note_off_c, 0, 88, 64
2, 146802, Note_off_c, 0, 76, 64
2, 146808, Note_off_c, 0, 54, 64
2, 146892, Note_on_c, 0, 42, 118
2, 146906, Note_off_c, 0, 46, 64
2, 146925, Note_off_c, 0, 42, 64
2, 146983, Control_c, 0, 64, 63
2, 146988, Control_c, 0, 64, 0
2, 147029, Note_on_c, 0, 38, 122
2, 147030, Note_on_c, 0, 91, 103
2, 147032, Note_on_c, 0, 79, 108
2, 147085, Control_c, 0, 64, 127
2, 147149, Note_on_c, 0, 43, 109
2, 147166, Note_off_c, 0, 38, 64
2, 147171, Note_off_c, 0, 91, 64
2, 147233, Note_on_c, 0, 82, 97
2, 147233, Note_on_c, 0, 86, 93
2, 147237, Note_on_c, 0, 46, 105
2, 147252, Note_off_c, 0, 43, 64
2, 147259, Note_off_c, 0, 79, 64
2, 147279, Note_off_c, 0, 46, 64
2, 147303, Note_on_c, 0, 55, 96
2, 147365, Note_off_c, 0, 55, 64
2, 147365, Note_on_c, 0, 46, 109
2, 147367, Note_on_c, 0, 79, 100
2, 147386, Note_off_c, 0, 82, 64
2, 147397, Note_off_c, 0, 79, 64
2, 147398, Note_off_c, 0, 86, 64
2, 147406, Note_on_c, 0, 43, 100
2, 147420, Note_off_c, 0, 46, 64
2, 147461, Control_c, 0, 64, 63
2, 147464, Note_on_c, 0, 38, 108
2, 147464, Control_c, 0, 64, 0
2, 147469, Note_on_c, 0, 78, 126
2, 147470, Note_off_c, 0, 43, 64
2, 147472, Note_on_c, 0, 90, 116
2, 147487, Control_c, 0, 64, 63
2, 147490, Control_c, 0, 64, 127
2, 147539, Note_on_c, 0, 42, 95
2, 147551, Note_off_c, 0, 38, 64
2, 147572, Note_off_c, 0, 78, 64
2, 147576, Note_off_c, 0, 90, 64
2, 147589, Note_on_c, 0, 47, 97
2, 147597, Note_on_c, 0, 83, 100
2, 147599, Note_on_c, 0, 86, 99
2, 147603, Note_off_c, 0, 42, 64
2, 147642, Note_off_c, 0, 47, 64
2, 147648, Note_on_c, 0, 54, 118
2, 147692, Note_off_c, 0, 86, 64
2, 147693, Note_on_c, 0, 78, 101
2, 147694, Note_off_c, 0, 54, 64
2, 147697, Note_on_c, 0, 47, 76
2, 147702, Note_off_c, 0, 83, 64
2, 147719, Note_off_c, 0, 78, 64
2, 147737, Note_on_c, 0, 42, 104
2, 147750, Note_off_c, 0, 47, 64
2, 147774, Note_off_c, 0, 42, 64
2, 147774, Control_c, 0, 64, 63
2, 147778, Control_c, 0, 64, 0
2, 147794, Note_on_c, 0, 77, 113
2, 147795, Note_on_c, 0, 89, 113
2, 147795, Note_on_c, 0, 37, 124
2, 147798, Control_c, 0, 64, 63
2, 147801, Control_c, 0, 64, 127
2, 147821, Note_off_c, 0, 37, 64
2, 147862, Note_on_c, 0, 44, 104
2, 147920, Note_on_c, 0, 49, 105
2, 147928, Note_on_c, 0, 85, 94
2, 147929, Note_on_c, 0, 83, 84
2, 147933, Note_off_c, 0, 44, 64
2, 147949, Note_off_c, 0, 77, 64
2, 147969, Note_on_c, 0, 56, 93
2, 147976, Note_off_c, 0, 49, 64
2, 147986, Note_off_c, 0, 89, 64
2, 148007, Note_on_c, 0, 77, 84
2, 148011, Note_on_c, 0, 49, 97
2, 148015, Note_off_c, 0, 83, 64
2, 148015, Note_off_c, 0, 85, 64
2, 148020, Note_off_c, 0, 56, 64
2, 148035, Note_off_c, 0, 77, 64
2, 148040, Note_on_c, 0, 44, 99
2, 148058, Note_off_c, 0, 49, 64
2, 148088, Control_c, 0, 64, 63
2, 148091, Control_c, 0, 64, 0
2, 148094, Note_on_c, 0, 42, 114
2, 148103, Note_on_c, 0, 88, 109
2, 148103, Note_on_c, 0, 76, 113
2, 148116, Note_off_c, 0, 44, 64
2, 148116, Control_c, 0, 64, 63
2, 148119, Control_c, 0, 64, 127
2, 148134, Note_off_c, 0, 42, 64
2, 148156, Note_off_c, 0, 88, 64
2, 148164, Note_on_c, 0, 49, 72
2, 148217, Note_on_c, 0, 54, 103
2, 148218, Note_on_c, 0, 82, 113
2, 148219, Note_on_c, 0, 78, 104
2, 148222, Note_off_c, 0, 49, 64
2, 148237, Note_off_c, 0, 76, 64
2, 148258, Note_on_c, 0, 61, 110
2, 148269, Note_off_c, 0, 54, 64
2, 148305, Note_on_c, 0, 76, 101
2, 148307, Note_on_c, 0, 54, 96
2, 148313, Note_off_c, 0, 61, 64
2, 148321, Note_off_c, 0, 82, 64
2, 148325, Note_off_c, 0, 78, 64
2, 148340, Note_off_c, 0, 76, 64
2, 148346, Note_on_c, 0, 49, 105
2, 148366, Note_off_c, 0, 54, 64
2, 148398, Control_c, 0, 64, 63
2, 148399, Note_on_c, 0, 86, 109
2, 148400, Note_on_c, 0, 74, 109
2, 148401, Note_on_c, 0, 47, 113
2, 148403, Note_off_c, 0, 49, 64
2, 148403, Control_c, 0, 64, 0
2, 148422, Control_c, 0, 64, 63
2, 148425, Control_c, 0, 64, 127
2, 148442, Note_off_c, 0, 47, 64
2, 148462, Note_on_c, 0, 54, 97
2, 148500, Note_off_c, 0, 86, 64
2, 148510, Note_on_c, 0, 59, 94
2, 148515, Note_on_c, 0, 78, 97
2, 148517, Note_on_c, 0, 83, 91
2, 148522, Note_off_c, 0, 54, 64
2, 148537, Note_off_c, 0, 74, 64
2, 148557, Note_on_c, 0, 62, 100
2, 148564, Note_off_c, 0, 59, 64
2, 148602, Note_on_c, 0, 74, 86
2, 148607, Note_off_c, 0, 83, 64
2, 148611, Note_off_c, 0, 78, 64
2, 148611, Note_on_c, 0, 59, 88
2, 148619, Note_off_c, 0, 62, 64
2, 148626, Note_off_c, 0, 74, 64
2, 148647, Note_on_c, 0, 54, 105
2, 148656, Note_off_c, 0, 59, 64
2, 148674, Note_off_c, 0, 54, 64
2, 148728, Note_on_c, 0, 74, 112
2, 148730, Note_on_c, 0, 41, 114
2, 148730, Note_on_c, 0, 62, 112
2, 148746, Control_c, 0, 64, 63
2, 148748, Control_c, 0, 64, 0
2, 148773, Control_c, 0, 64, 63
2, 148777, Control_c, 0, 64, 127
2, 148809, Note_on_c, 0, 47, 83
2, 148827, Note_off_c, 0, 41, 64
2, 148857, Note_on_c, 0, 68, 90
2, 148857, Note_on_c, 0, 71, 87
2, 148858, Note_on_c, 0, 50, 99
2, 148863, Note_off_c, 0, 47, 64
2, 148883, Note_off_c, 0, 62, 64
2, 148904, Note_off_c, 0, 50, 64
2, 148909, Note_on_c, 0, 56, 106
2, 148942, Note_on_c, 0, 62, 104
2, 148954, Note_off_c, 0, 56, 64
2, 148956, Note_on_c, 0, 50, 82
2, 148959, Note_off_c, 0, 68, 64
2, 148964, Note_off_c, 0, 62, 64
2, 148967, Note_off_c, 0, 74, 64
2, 148971, Note_off_c, 0, 71, 64
2, 148989, Note_on_c, 0, 47, 88
2, 149003, Note_off_c, 0, 50, 64
2, 149047, Note_off_c, 0, 47, 64
2, 149067, Note_on_c, 0, 40, 107
2, 149075, Note_on_c, 0, 86, 112
2, 149075, Note_on_c, 0, 74, 109
2, 149094, Control_c, 0, 64, 63
2, 149097, Control_c, 0, 64, 0
2, 149118, Control_c, 0, 64, 63
2, 149122, Control_c, 0, 64, 127
2, 149146, Note_on_c, 0, 46, 82
2, 149172, Note_off_c, 0, 40, 64
2, 149198, Note_on_c, 0, 82, 85
2, 149204, Note_on_c, 0, 50, 91
2, 149204, Note_on_c, 0, 79, 81
2, 149239, Note_off_c, 0, 74, 64
2, 149242, Note_off_c, 0, 46, 64
2, 149251, Note_on_c, 0, 55, 91
2, 149257, Note_off_c, 0, 50, 64
2, 149279, Note_off_c, 0, 86, 64
2, 149292, Note_on_c, 0, 74, 85
2, 149295, Note_on_c, 0, 50, 89
2, 149302, Note_off_c, 0, 55, 64
2, 149328, Note_on_c, 0, 46, 103
2, 149337, Note_off_c, 0, 74, 64
2, 149340, Note_off_c, 0, 79, 64
2, 149344, Note_off_c, 0, 50, 64
2, 149383, Note_on_c, 0, 40, 97
2, 149392, Note_on_c, 0, 73, 116
2, 149392, Note_on_c, 0, 85, 116
2, 149399, Note_off_c, 0, 46, 64
2, 149407, Note_off_c, 0, 82, 64
2, 149413, Control_c, 0, 64, 63
2, 149416, Control_c, 0, 64, 0
2, 149441, Control_c, 0, 64, 63
2, 149444, Control_c, 0, 64, 127
2, 149448, Note_on_c, 0, 46, 79
2, 149469, Note_off_c, 0, 40, 64
2, 149497, Note_on_c, 0, 49, 82
2, 149498, Note_on_c, 0, 82, 78
2, 149504, Note_on_c, 0, 78, 76
2, 149522, Note_off_c, 0, 46, 64
2, 149546, Note_off_c, 0, 73, 64
2, 149548, Note_off_c, 0, 49, 64
2, 149549, Note_on_c, 0, 54, 101
2, 149600, Note_off_c, 0, 85, 64
2, 149603, Note_off_c, 0, 54, 64
2, 149604, Note_on_c, 0, 73, 84
2, 149605, Note_on_c, 0, 49, 78
2, 149610, Note_off_c, 0, 82, 64
2, 149619, Note_off_c, 0, 78, 64
2, 149631, Note_off_c, 0, 73, 64
2, 149645, Note_on_c, 0, 46, 77
2, 149650, Note_off_c, 0, 49, 64
2, 149681, Note_off_c, 0, 46, 64
2, 149749, Note_on_c, 0, 38, 84
2, 149750, Note_on_c, 0, 66, 121
2, 149776, Control_c, 0, 64, 63
2, 149779, Control_c, 0, 64, 0
2, 149799, Control_c, 0, 64, 63
2, 149803, Control_c, 0, 64, 127
2, 149846, Note_on_c, 0, 42, 72
2, 149848, Note_off_c, 0, 38, 64
2, 149910, Note_on_c, 0, 78, 86
2, 149918, Note_on_c, 0, 73, 83
2, 149920, Note_off_c, 0, 42, 64
2, 149923, Note_on_c, 0, 49, 67
2, 149940, Note_off_c, 0, 66, 64
2, 149979, Note_off_c, 0, 49, 64
2, 149982, Note_on_c, 0, 54, 90
2, 150017, Note_off_c, 0, 78, 64
2, 150034, Note_off_c, 0, 54, 64
2, 150035, Note_on_c, 0, 66, 93
2, 150040, Note_on_c, 0, 49, 84
2, 150041, Note_off_c, 0, 73, 64
2, 150086, Note_on_c, 0, 42, 86
2, 150090, Note_off_c, 0, 49, 64
2, 150126, Note_off_c, 0, 42, 64
2, 150138, Note_on_c, 0, 78, 93
2, 150144, Note_on_c, 0, 71, 78
2, 150145, Note_on_c, 0, 38, 85
2, 150153, Control_c, 0, 64, 63
2, 150158, Control_c, 0, 64, 0
2, 150164, Control_c, 0, 64, 63
2, 150172, Control_c, 0, 64, 127
2, 150192, Note_on_c, 0, 42, 89
2, 150204, Note_off_c, 0, 38, 64
2, 150210, Note_off_c, 0, 66, 64
2, 150225, Note_on_c, 0, 47, 89
2, 150241, Note_on_c, 0, 66, 101
2, 150243, Note_off_c, 0, 42, 64
2, 150264, Note_off_c, 0, 71, 64
2, 150272, Note_off_c, 0, 78, 64
2, 150275, Note_on_c, 0, 54, 110
2, 150284, Note_off_c, 0, 47, 64
2, 150323, Note_off_c, 0, 54, 64
2, 150325, Note_on_c, 0, 78, 105
2, 150326, Note_on_c, 0, 71, 96
2, 150330, Note_on_c, 0, 47, 65
2, 150338, Note_off_c, 0, 66, 64
2, 150356, Note_on_c, 0, 42, 93
2, 150358, Note_off_c, 0, 47, 64
2, 150362, Note_off_c, 0, 78, 64
2, 150398, Control_c, 0, 64, 63
2, 150401, Control_c, 0, 64, 0
2, 150409, Note_off_c, 0, 71, 64
2, 150411, Note_on_c, 0, 37, 121
2, 150415, Note_on_c, 0, 65, 112
2, 150420, Note_off_c, 0, 42, 64
2, 150422, Control_c, 0, 64, 63
2, 150426, Control_c, 0, 64, 127
2, 150444, Note_off_c, 0, 37, 64
2, 150478, Note_on_c, 0, 44, 105
2, 150525, Note_on_c, 0, 77, 108
2, 150527, Note_on_c, 0, 71, 102
2, 150533, Note_on_c, 0, 49, 90
2, 150545, Note_off_c, 0, 44, 64
2, 150567, Note_off_c, 0, 65, 64
2, 150581, Note_off_c, 0, 77, 64
2, 150591, Note_on_c, 0, 56, 98
2, 150594, Note_off_c, 0, 49, 64
2, 150615, Note_on_c, 0, 64, 107
2, 150630, Note_on_c, 0, 49, 90
2, 150637, Note_off_c, 0, 56, 64
2, 150639, Note_off_c, 0, 71, 64
2, 150656, Note_on_c, 0, 44, 88
2, 150683, Note_off_c, 0, 49, 64
2, 150704, Control_c, 0, 64, 63
2, 150707, Note_on_c, 0, 43, 109
2, 150707, Control_c, 0, 64, 0
2, 150712, Note_off_c, 0, 44, 64
2, 150715, Note_on_c, 0, 76, 114
2, 150717, Note_on_c, 0, 71, 106
2, 150731, Control_c, 0, 64, 63
2, 150735, Control_c, 0, 64, 127
2, 150757, Note_on_c, 0, 47, 102
2, 150778, Note_off_c, 0, 43, 64
2, 150784, Note_off_c, 0, 64, 64
2, 150807, Note_on_c, 0, 52, 85
2, 150816, Note_on_c, 0, 64, 100
2, 150822, Note_off_c, 0, 47, 64
2, 150825, Note_off_c, 0, 76, 64
2, 150845, Note_off_c, 0, 71, 64
2, 150850, Note_off_c, 0, 52, 64
2, 150856, Note_on_c, 0, 59, 91
2, 150906, Note_off_c, 0, 59, 64
2, 150909, Note_on_c, 0, 52, 79
2, 150911, Note_on_c, 0, 71, 94
2, 150913, Note_on_c, 0, 76, 91
2, 150921, Note_off_c, 0, 64, 64
2, 150940, Note_off_c, 0, 71, 64
2, 150941, Note_on_c, 0, 47, 63
2, 150942, Note_off_c, 0, 76, 64
2, 150946, Note_off_c, 0, 52, 64
2, 150979, Note_off_c, 0, 47, 64
2, 151015, Note_on_c, 0, 42, 110
2, 151017, Control_c, 0, 64, 63
2, 151017, Note_on_c, 0, 63, 123
2, 151020, Control_c, 0, 64, 0
2, 151039, Control_c, 0, 64, 63
2, 151042, Control_c, 0, 64, 127
2, 151054, Note_off_c, 0, 42, 64
2, 151067, Note_on_c, 0, 47, 85
2, 151077, Note_off_c, 0, 47, 64
2, 151078, Note_on_c, 0, 47, 85
2, 151086, Note_off_c, 0, 63, 64
2, 151114, Note_off_c, 0, 47, 64
2, 151126, Note_on_c, 0, 75, 101
2, 151127, Note_on_c, 0, 54, 96
2, 151128, Note_on_c, 0, 71, 86
2, 151129, Note_on_c, 0, 66, 97
2, 151157, Note_off_c, 0, 75, 64
2, 151161, Note_off_c, 0, 54, 64
2, 151175, Note_on_c, 0, 59, 86
2, 151181, Note_off_c, 0, 71, 64
2, 151205, Note_off_c, 0, 66, 64
2, 151210, Note_on_c, 0, 62, 106
2, 151212, Note_off_c, 0, 59, 64
2, 151216, Note_on_c, 0, 54, 95
2, 151235, Note_off_c, 0, 54, 64
2, 151242, Note_on_c, 0, 47, 83
2, 151280, Note_off_c, 0, 47, 64
2, 151299, Note_on_c, 0, 74, 107
2, 151300, Note_on_c, 0, 41, 116
2, 151300, Note_on_c, 0, 67, 99
2, 151300, Note_on_c, 0, 71, 97
2, 151302, Control_c, 0, 64, 63
2, 151306, Control_c, 0, 64, 0
2, 151327, Control_c, 0, 64, 63
2, 151332, Control_c, 0, 64, 127
2, 151348, Note_on_c, 0, 43, 92
2, 151362, Note_off_c, 0, 41, 64
2, 151377, Note_off_c, 0, 62, 64
2, 151382, Note_on_c, 0, 47, 80
2, 151396, Note_off_c, 0, 71, 64
2, 151396, Note_off_c, 0, 74, 64
2, 151399, Note_on_c, 0, 62, 88
2, 151401, Note_off_c, 0, 43, 64
2, 151410, Note_off_c, 0, 67, 64
2, 151428, Note_off_c, 0, 47, 64
2, 151439, Note_on_c, 0, 55, 74
2, 151477, Note_on_c, 0, 47, 68
2, 151481, Note_off_c, 0, 55, 64
2, 151484, Note_on_c, 0, 71, 82
2, 151486, Note_on_c, 0, 74, 85
2, 151488, Note_on_c, 0, 67, 75
2, 151514, Note_on_c, 0, 43, 76
2, 151524, Note_off_c, 0, 47, 64
2, 151524, Note_off_c, 0, 62, 64
2, 151542, Note_off_c, 0, 74, 64
2, 151571, Note_on_c, 0, 60, 108
2, 151571, Control_c, 0, 64, 63
2, 151574, Control_c, 0, 64, 0
2, 151576, Note_on_c, 0, 40, 85
2, 151578, Note_off_c, 0, 43, 64
2, 151592, Note_off_c, 0, 67, 64
2, 151592, Control_c, 0, 64, 63
2, 151593, Note_off_c, 0, 71, 64
2, 151597, Control_c, 0, 64, 127
2, 151617, Note_off_c, 0, 40, 64
2, 151619, Note_on_c, 0, 43, 71
2, 151668, Note_on_c, 0, 48, 59
2, 151671, Note_off_c, 0, 43, 64
2, 151676, Note_on_c, 0, 72, 91
2, 151678, Note_on_c, 0, 67, 84
2, 151710, Note_off_c, 0, 60, 64
2, 151712, Note_off_c, 0, 72, 64
2, 151715, Note_off_c, 0, 67, 64
2, 151723, Note_off_c, 0, 48, 64
2, 151729, Note_on_c, 0, 55, 65
2, 151764, Note_on_c, 0, 48, 65
2, 151767, Note_off_c, 0, 55, 64
2, 151769, Note_on_c, 0, 59, 100
2, 151804, Note_on_c, 0, 43, 45
2, 151806, Note_off_c, 0, 48, 64
2, 151845, Note_off_c, 0, 43, 64
2, 151847, Control_c, 0, 64, 63
2, 151850, Control_c, 0, 64, 0
2, 151869, Note_on_c, 0, 71, 92
2, 151869, Note_on_c, 0, 66, 94
2, 151871, Control_c, 0, 64, 63
2, 151871, Note_on_c, 0, 40, 59
2, 151876, Control_c, 0, 64, 127
2, 151923, Note_on_c, 0, 42, 81
2, 151924, Note_off_c, 0, 71, 64
2, 151936, Note_off_c, 0, 40, 64
2, 151938, Note_off_c, 0, 59, 64
2, 151950, Note_off_c, 0, 66, 64
2, 151974, Note_off_c, 0, 42, 64
2, 151976, Note_on_c, 0, 58, 91
2, 152011, Note_off_c, 0, 58, 64
2, 152025, Note_on_c, 0, 54, 97
2, 152061, Note_off_c, 0, 54, 64
2, 152080, Note_on_c, 0, 70, 88
2, 152085, Note_on_c, 0, 49, 73
2, 152085, Note_on_c, 0, 66, 77
2, 152091, Note_on_c, 0, 61, 54
2, 152105, Note_off_c, 0, 61, 64
2, 152122, Note_off_c, 0, 66, 64
2, 152126, Note_off_c, 0, 49, 64
2, 152135, Note_on_c, 0, 42, 73
2, 152145, Note_off_c, 0, 70, 64
2, 152161, Note_on_c, 0, 66, 27
2, 152188, Note_off_c, 0, 42, 64
2, 152191, Note_off_c, 0, 66, 64
2, 152209, Note_on_c, 0, 38, 82
2, 152212, Note_on_c, 0, 61, 106
2, 152217, Control_c, 0, 64, 63
2, 152220, Control_c, 0, 64, 0
2, 152241, Control_c, 0, 64, 63
2, 152246, Control_c, 0, 64, 127
2, 152269, Note_on_c, 0, 42, 65
2, 152273, Note_off_c, 0, 38, 64
2, 152305, Note_off_c, 0, 61, 64
2, 152324, Note_on_c, 0, 47, 59
2, 152327, Note_off_c, 0, 42, 64
2, 152331, Note_on_c, 0, 73, 87
2, 152340, Note_on_c, 0, 66, 77
2, 152356, Note_off_c, 0, 66, 64
2, 152358, Note_off_c, 0, 73, 64
2, 152376, Note_off_c, 0, 47, 64
2, 152395, Note_on_c, 0, 54, 89
2, 152437, Note_off_c, 0, 54, 64
2, 152449, Note_on_c, 0, 71, 91
2, 152453, Note_on_c, 0, 59, 67
2, 152455, Note_on_c, 0, 66, 75
2, 152458, Note_on_c, 0, 47, 58
2, 152478, Note_off_c, 0, 59, 64
2, 152483, Note_off_c, 0, 71, 64
2, 152493, Note_off_c, 0, 66, 64
2, 152496, Note_off_c, 0, 47, 64
2, 152499, Note_on_c, 0, 42, 76
2, 152549, Control_c, 0, 64, 63
2, 152552, Control_c, 0, 64, 0
2, 152553, Note_on_c, 0, 61, 108
2, 152554, Note_on_c, 0, 38, 77
2, 152557, Note_off_c, 0, 42, 64
2, 152570, Control_c, 0, 64, 63
2, 152575, Control_c, 0, 64, 127
2, 152605, Note_on_c, 0, 42, 71
2, 152607, Note_off_c, 0, 38, 64
2, 152630, Note_off_c, 0, 61, 64
2, 152637, Note_on_c, 0, 47, 65
2, 152643, Note_off_c, 0, 42, 64
2, 152654, Note_on_c, 0, 73, 99
2, 152655, Note_on_c, 0, 66, 105
2, 152679, Note_off_c, 0, 66, 64
2, 152686, Note_off_c, 0, 73, 64
2, 152690, Note_off_c, 0, 47, 64
2, 152700, Note_on_c, 0, 54, 109
2, 152744, Note_off_c, 0, 54, 64
2, 152755, Note_on_c, 0, 47, 76
2, 152755, Note_on_c, 0, 74, 103
2, 152756, Note_on_c, 0, 62, 104
2, 152757, Note_on_c, 0, 71, 97
2, 152776, Note_off_c, 0, 62, 64
2, 152787, Note_off_c, 0, 71, 64
2, 152791, Note_off_c, 0, 74, 64
2, 152791, Note_on_c, 0, 42, 92
2, 152808, Note_off_c, 0, 47, 64
2, 152828, Note_off_c, 0, 42, 64
2, 152842, Control_c, 0, 64, 63
2, 152845, Control_c, 0, 64, 0
2, 152858, Note_on_c, 0, 43, 112
2, 152858, Note_on_c, 0, 63, 118
2, 152868, Control_c, 0, 64, 63
2, 152872, Control_c, 0, 64, 127
2, 152905, Note_on_c, 0, 47, 91
2, 152914, Note_off_c, 0, 43, 64
2, 152916, Note_off_c, 0, 63, 64
2, 152948, Note_off_c, 0, 47, 64
2, 152955, Note_on_c, 0, 49, 99
2, 152959, Note_on_c, 0, 75, 108
2, 152960, Note_on_c, 0, 71, 89
2, 152960, Note_on_c, 0, 67, 96
2, 152983, Note_off_c, 0, 67, 64
2, 152984, Note_off_c, 0, 49, 64
2, 152988, Note_off_c, 0, 71, 64
2, 152993, Note_off_c, 0, 75, 64
2, 153012, Note_on_c, 0, 59, 56
2, 153044, Note_off_c, 0, 59, 64
2, 153066, Note_on_c, 0, 49, 108
2, 153068, Note_on_c, 0, 76, 106
2, 153069, Note_on_c, 0, 71, 99
2, 153069, Note_on_c, 0, 64, 99
2, 153078, Note_off_c, 0, 64, 64
2, 153092, Note_off_c, 0, 71, 64
2, 153106, Note_on_c, 0, 47, 96
2, 153108, Note_off_c, 0, 76, 64
2, 153111, Note_off_c, 0, 49, 64
2, 153153, Note_off_c, 0, 47, 64
2, 153165, Control_c, 0, 64, 63
2, 153169, Control_c, 0, 64, 0
2, 153174, Note_on_c, 0, 66, 123
2, 153176, Note_on_c, 0, 40, 120
2, 153188, Control_c, 0, 64, 63
2, 153192, Control_c, 0, 64, 127
2, 153204, Note_off_c, 0, 40, 64
2, 153251, Note_off_c, 0, 66, 64
2, 153257, Note_on_c, 0, 47, 86
2, 153293, Note_on_c, 0, 78, 106
2, 153296, Note_on_c, 0, 71, 87
2, 153297, Note_on_c, 0, 73, 96
2, 153305, Note_on_c, 0, 52, 97
2, 153316, Note_off_c, 0, 73, 64
2, 153318, Note_off_c, 0, 71, 64
2, 153323, Note_off_c, 0, 78, 64
2, 153346, Note_on_c, 0, 59, 106
2, 153361, Note_off_c, 0, 52, 64
2, 153384, Note_off_c, 0, 47, 64
2, 153389, Note_on_c, 0, 76, 103
2, 153390, Note_on_c, 0, 67, 109
2, 153391, Note_on_c, 0, 79, 107
2, 153394, Note_on_c, 0, 52, 98
2, 153408, Note_off_c, 0, 59, 64
2, 153411, Note_off_c, 0, 67, 64
2, 153412, Note_off_c, 0, 76, 64
2, 153417, Note_off_c, 0, 79, 64
2, 153436, Note_on_c, 0, 47, 98
2, 153452, Note_off_c, 0, 52, 64
2, 153465, Note_off_c, 0, 47, 64
2, 153480, Control_c, 0, 64, 63
2, 153483, Control_c, 0, 64, 0
2, 153488, Note_on_c, 0, 65, 104
2, 153491, Note_on_c, 0, 42, 121
2, 153504, Control_c, 0, 64, 63
2, 153507, Control_c, 0, 64, 127
2, 153517, Note_off_c, 0, 42, 64
2, 153546, Note_on_c, 0, 50, 112
2, 153566, Note_off_c, 0, 65, 64
2, 153586, Note_on_c, 0, 77, 111
2, 153588, Note_on_c, 0, 54, 115
2, 153589, Note_on_c, 0, 71, 102
2, 153589, Note_on_c, 0, 74, 101
2, 153595, Note_off_c, 0, 50, 64
2, 153611, Note_off_c, 0, 71, 64
2, 153615, Note_off_c, 0, 74, 64
2, 153619, Note_off_c, 0, 77, 64
2, 153625, Note_on_c, 0, 59, 101
2, 153628, Note_off_c, 0, 54, 64
2, 153671, Note_on_c, 0, 66, 119
2, 153671, Note_on_c, 0, 78, 115
2, 153675, Note_on_c, 0, 54, 112
2, 153690, Note_off_c, 0, 66, 64
2, 153690, Note_off_c, 0, 59, 64
2, 153700, Note_off_c, 0, 78, 64
2, 153703, Note_on_c, 0, 50, 96
2, 153718, Note_off_c, 0, 54, 64
2, 153734, Note_off_c, 0, 50, 64
2, 153740, Control_c, 0, 64, 63
2, 153744, Control_c, 0, 64, 0
2, 153767, Control_c, 0, 64, 63
2, 153767, Note_on_c, 0, 70, 121
2, 153767, Note_on_c, 0, 42, 120
2, 153769, Control_c, 0, 64, 127
2, 153791, Note_off_c, 0, 42, 64
2, 153818, Note_off_c, 0, 70, 64
2, 153834, Note_on_c, 0, 50, 108
2, 153875, Note_on_c, 0, 82, 110
2, 153876, Note_on_c, 0, 74, 101
2, 153880, Note_on_c, 0, 78, 83
2, 153882, Note_on_c, 0, 54, 110
2, 153898, Note_off_c, 0, 74, 64
2, 153903, Note_off_c, 0, 78, 64
2, 153912, Note_off_c, 0, 82, 64
2, 153923, Note_on_c, 0, 62, 111
2, 153933, Note_off_c, 0, 50, 64
2, 153941, Note_off_c, 0, 54, 64
2, 153973, Note_on_c, 0, 71, 108
2, 153974, Note_on_c, 0, 83, 102
2, 153975, Note_on_c, 0, 54, 113
2, 153982, Note_off_c, 0, 62, 64
2, 154003, Note_off_c, 0, 71, 64
2, 154013, Note_on_c, 0, 50, 81
2, 154017, Note_off_c, 0, 83, 64
2, 154033, Note_off_c, 0, 54, 64
2, 154047, Note_off_c, 0, 50, 64
2, 154056, Control_c, 0, 64, 63
2, 154059, Control_c, 0, 64, 0
2, 154071, Note_on_c, 0, 72, 114
2, 154080, Note_on_c, 0, 42, 107
2, 154082, Control_c, 0, 64, 63
2, 154085, Control_c, 0, 64, 127
2, 154093, Note_on_c, 0, 41, 36
2, 154105, Note_off_c, 0, 41, 64
2, 154111, Note_off_c, 0, 42, 64
2, 154134, Note_on_c, 0, 49, 105
2, 154161, Note_off_c, 0, 72, 64
2, 154186, Note_on_c, 0, 53, 96
2, 154187, Note_on_c, 0, 84, 111
2, 154189, Note_on_c, 0, 77, 107
2, 154190, Note_on_c, 0, 80, 100
2, 154209, Note_off_c, 0, 77, 64
2, 154209, Note_off_c, 0, 49, 64
2, 154212, Note_off_c, 0, 80, 64
2, 154214, Note_off_c, 0, 84, 64
2, 154236, Note_on_c, 0, 59, 91
2, 154244, Note_off_c, 0, 53, 64
2, 154304, Note_on_c, 0, 53, 98
2, 154306, Note_on_c, 0, 73, 124
2, 154306, Note_on_c, 0, 85, 119
2, 154309, Note_off_c, 0, 59, 64
2, 154324, Note_off_c, 0, 73, 64
2, 154332, Note_off_c, 0, 85, 64
2, 154348, Note_off_c, 0, 53, 64
2, 154348, Note_on_c, 0, 49, 103
2, 154420, Note_on_c, 0, 42, 115
2, 154423, Note_on_c, 0, 77, 117
2, 154432, Control_c, 0, 64, 63
2, 154434, Control_c, 0, 64, 0
2, 154438, Note_on_c, 0, 82, 55
2, 154439, Note_off_c, 0, 49, 64
2, 154453, Note_off_c, 0, 82, 64
2, 154462, Control_c, 0, 64, 63
2, 154464, Control_c, 0, 64, 127
2, 154489, Note_on_c, 0, 49, 96
2, 154513, Note_off_c, 0, 42, 64
2, 154567, Note_on_c, 0, 89, 116
2, 154568, Note_on_c, 0, 82, 113
2, 154568, Note_on_c, 0, 85, 113
2, 154569, Note_on_c, 0, 52, 90
2, 154580, Note_off_c, 0, 77, 64
2, 154587, Note_off_c, 0, 82, 64
2, 154590, Note_off_c, 0, 49, 64
2, 154591, Note_off_c, 0, 85, 64
2, 154595, Note_off_c, 0, 89, 64
2, 154646, Note_on_c, 0, 58, 109
2, 154648, Note_off_c, 0, 52, 64
2, 154725, Note_off_c, 0, 58, 64
2, 154761, Note_on_c, 0, 52, 100
2, 154762, Note_on_c, 0, 78, 126
2, 154763, Note_on_c, 0, 90, 123
2, 154779, Note_off_c, 0, 78, 64
2, 154783, Note_off_c, 0, 90, 64
2, 154842, Note_off_c, 0, 52, 64
2, 154872, Note_on_c, 0, 49, 119
2, 154909, Note_off_c, 0, 49, 64
2, 155022, Note_on_c, 0, 47, 114
2, 155036, Control_c, 0, 64, 63
2, 155037, Control_c, 0, 64, 0
2, 155071, Control_c, 0, 64, 63
2, 155072, Control_c, 0, 64, 127
2, 155103, Note_on_c, 0, 54, 93
2, 155104, Note_on_c, 0, 51, 90
2, 155108, Note_off_c, 0, 47, 64
2, 155147, Note_on_c, 0, 95, 116
2, 155148, Note_on_c, 0, 83, 108
2, 155153, Note_on_c, 0, 63, 127
2, 155167, Note_off_c, 0, 54, 64
2, 155168, Note_off_c, 0, 51, 64
2, 155169, Note_off_c, 0, 63, 64
2, 155196, Note_off_c, 0, 83, 64
2, 155270, Note_off_c, 0, 95, 64
2, 155320, Note_on_c, 0, 92, 115
2, 155382, Note_on_c, 0, 90, 105
2, 155395, Note_off_c, 0, 92, 64
2, 155423, Note_on_c, 0, 85, 107
2, 155431, Note_off_c, 0, 90, 64
2, 155462, Note_off_c, 0, 85, 64
2, 155464, Note_on_c, 0, 83, 83
2, 155503, Note_off_c, 0, 83, 64
2, 155509, Note_on_c, 0, 80, 105
2, 155555, Note_on_c, 0, 78, 108
2, 155560, Note_off_c, 0, 80, 64
2, 155596, Note_off_c, 0, 78, 64
2, 155600, Note_on_c, 0, 73, 110
2, 155628, Note_off_c, 0, 73, 64
2, 155639, Note_on_c, 0, 71, 71
2, 155666, Note_off_c, 0, 71, 64
2, 155686, Note_on_c, 0, 68, 106
2, 155730, Note_on_c, 0, 66, 103
2, 155735, Note_off_c, 0, 68, 64
2, 155774, Note_on_c, 0, 61, 107
2, 155776, Note_off_c, 0, 66, 64
2, 155802, Note_off_c, 0, 61, 64
2, 155812, Note_on_c, 0, 59, 73
2, 155843, Note_off_c, 0, 59, 64
2, 155858, Note_on_c, 0, 56, 100
2, 155901, Note_on_c, 0, 54, 95
2, 155905, Note_off_c, 0, 56, 64
2, 155952, Note_on_c, 0, 49, 108
2, 155958, Note_off_c, 0, 54, 64
2, 155986, Note_off_c, 0, 49, 64
2, 155993, Note_on_c, 0, 47, 87
2, 156022, Note_off_c, 0, 47, 64
2, 156029, Control_c, 0, 64, 63
2, 156029, Control_c, 0, 64, 0
2, 156048, Note_on_c, 0, 59, 113
2, 156048, Note_on_c, 0, 49, 127
2, 156049, Note_on_c, 0, 37, 112
2, 156050, Note_on_c, 0, 53, 107
2, 156087, Control_c, 0, 64, 63
2, 156091, Control_c, 0, 64, 127
2, 156170, Note_off_c, 0, 49, 64
2, 156178, Note_off_c, 0, 59, 64
2, 156181, Note_off_c, 0, 53, 64
2, 156205, Note_off_c, 0, 37, 64
2, 156252, Control_c, 0, 64, 63
2, 156254, Control_c, 0, 64, 0
2, 156329, Note_on_c, 0, 42, 127
2, 156329, Note_on_c, 0, 52, 111
2, 156331, Note_on_c, 0, 30, 119
2, 156363, Control_c, 0, 64, 63
2, 156364, Control_c, 0, 64, 127
2, 156399, Note_off_c, 0, 52, 64
2, 156400, Note_on_c, 0, 55, 80
2, 156422, Note_off_c, 0, 30, 64
2, 156439, Note_off_c, 0, 42, 64
2, 156439, Note_on_c, 0, 59, 89
2, 156444, Note_off_c, 0, 55, 64
2, 156476, Note_on_c, 0, 61, 86
2, 156478, Note_off_c, 0, 59, 64
2, 156494, Note_off_c, 0, 61, 64
2, 156520, Note_on_c, 0, 64, 96
2, 156555, Note_off_c, 0, 64, 64
2, 156560, Note_on_c, 0, 67, 97
2, 156605, Note_on_c, 0, 71, 100
2, 156605, Note_on_c, 0, 64, 113
2, 156606, Note_on_c, 0, 59, 104
2, 156607, Note_on_c, 0, 55, 98
2, 156610, Note_off_c, 0, 67, 64
2, 156645, Note_off_c, 0, 71, 64
2, 156646, Note_on_c, 0, 73, 101
2, 156651, Note_off_c, 0, 64, 64
2, 156671, Note_off_c, 0, 73, 64
2, 156694, Note_on_c, 0, 66, 120
2, 156694, Note_on_c, 0, 76, 101
2, 156734, Note_off_c, 0, 76, 64
2, 156736, Note_on_c, 0, 79, 102
2, 156737, Note_off_c, 0, 66, 64
2, 156773, Note_on_c, 0, 67, 122
2, 156779, Note_on_c, 0, 83, 100
2, 156791, Note_off_c, 0, 79, 64
2, 156819, Note_on_c, 0, 85, 109
2, 156827, Note_off_c, 0, 83, 64
2, 156841, Note_off_c, 0, 67, 64
2, 156846, Note_off_c, 0, 85, 64
2, 156860, Note_on_c, 0, 61, 115
2, 156868, Note_on_c, 0, 88, 102
2, 156892, Control_c, 0, 64, 63
2, 156896, Control_c, 0, 64, 0
2, 156908, Note_on_c, 0, 91, 108
2, 156911, Note_off_c, 0, 88, 64
2, 156926, Control_c, 0, 64, 63
2, 156929, Control_c, 0, 64, 127
2, 156955, Note_on_c, 0, 100, 109
2, 156957, Note_off_c, 0, 91, 64
2, 156996, Note_on_c, 0, 97, 105
2, 157001, Note_off_c, 0, 55, 64
2, 157002, Note_off_c, 0, 59, 64
2, 157006, Note_off_c, 0, 100, 64
2, 157018, Note_off_c, 0, 61, 64
2, 157036, Note_on_c, 0, 94, 107
2, 157043, Note_off_c, 0, 97, 64
2, 157071, Note_on_c, 0, 90, 114
2, 157076, Note_off_c, 0, 94, 64
2, 157095, Control_c, 0, 64, 63
2, 157098, Control_c, 0, 64, 0
2, 157110, Note_off_c, 0, 90, 64
2, 157113, Note_on_c, 0, 88, 85
2, 157119, Note_on_c, 0, 64, 122
2, 157120, Note_on_c, 0, 58, 115
2, 157120, Note_on_c, 0, 54, 118
2, 157136, Control_c, 0, 64, 63
2, 157139, Control_c, 0, 64, 127
2, 157143, Note_off_c, 0, 88, 64
2, 157166, Note_on_c, 0, 85, 103
2, 157197, Note_off_c, 0, 64, 64
2, 157210, Note_on_c, 0, 82, 103
2, 157213, Note_off_c, 0, 85, 64
2, 157220, Note_off_c, 0, 58, 64
2, 157222, Note_off_c, 0, 54, 64
2, 157244, Note_off_c, 0, 82, 64
2, 157246, Note_on_c, 0, 78, 98
2, 157277, Note_off_c, 0, 78, 64
2, 157283, Control_c, 0, 64, 63
2, 157286, Control_c, 0, 64, 0
2, 157287, Note_on_c, 0, 76, 87
2, 157316, Control_c, 0, 64, 63
2, 157318, Note_on_c, 0, 47, 107
2, 157318, Control_c, 0, 64, 127
2, 157323, Note_on_c, 0, 73, 100
2, 157324, Note_off_c, 0, 76, 64
2, 157340, Note_off_c, 0, 73, 64
2, 157351, Note_off_c, 0, 47, 64
2, 157429, Note_on_c, 0, 83, 86
2, 157429, Note_on_c, 0, 54, 105
2, 157431, Note_on_c, 0, 95, 111
2, 157433, Note_on_c, 0, 51, 79
2, 157434, Note_on_c, 0, 63, 127
2, 157450, Note_off_c, 0, 83, 64
2, 157456, Note_off_c, 0, 95, 64
2, 157576, Note_on_c, 0, 92, 115
2, 157627, Note_on_c, 0, 90, 101
2, 157628, Note_off_c, 0, 92, 64
2, 157661, Note_off_c, 0, 51, 64
2, 157666, Note_off_c, 0, 54, 64
2, 157667, Note_off_c, 0, 63, 64
2, 157668, Note_off_c, 0, 90, 64
2, 157673, Note_on_c, 0, 85, 112
2, 157703, Note_off_c, 0, 85, 64
2, 157711, Note_on_c, 0, 83, 71
2, 157736, Note_off_c, 0, 83, 64
2, 157753, Note_on_c, 0, 80, 100
2, 157794, Note_on_c, 0, 78, 105
2, 157795, Note_off_c, 0, 80, 64
2, 157834, Note_off_c, 0, 78, 64
2, 157836, Note_on_c, 0, 73, 110
2, 157864, Note_off_c, 0, 73, 64
2, 157875, Note_on_c, 0, 71, 82
2, 157901, Note_off_c, 0, 71, 64
2, 157918, Note_on_c, 0, 68, 100
2, 157961, Note_on_c, 0, 66, 105
2, 157964, Note_off_c, 0, 68, 64
2, 158004, Note_off_c, 0, 66, 64
2, 158004, Note_on_c, 0, 61, 109
2, 158032, Note_off_c, 0, 61, 64
2, 158041, Note_on_c, 0, 59, 80
2, 158070, Note_off_c, 0, 59, 64
2, 158085, Note_on_c, 0, 56, 100
2, 158129, Note_on_c, 0, 54, 101
2, 158135, Note_off_c, 0, 56, 64
2, 158164, Control_c, 0, 64, 63
2, 158169, Control_c, 0, 64, 0
2, 158171, Note_on_c, 0, 49, 107
2, 158182, Note_off_c, 0, 54, 64
2, 158209, Note_on_c, 0, 47, 80
2, 158217, Note_off_c, 0, 49, 64
2, 158244, Note_off_c, 0, 47, 64
2, 158267, Note_on_c, 0, 59, 111
2, 158269, Note_on_c, 0, 49, 127
2, 158270, Note_on_c, 0, 37, 113
2, 158271, Note_on_c, 0, 53, 106
2, 158291, Control_c, 0, 64, 127
2, 158304, Note_off_c, 0, 53, 64
2, 158306, Note_off_c, 0, 59, 64
2, 158317, Note_off_c, 0, 49, 64
2, 158320, Note_off_c, 0, 37, 64
2, 158504, Control_c, 0, 64, 63
2, 158507, Control_c, 0, 64, 0
2, 158562, Note_on_c, 0, 42, 127
2, 158564, Note_on_c, 0, 30, 120
2, 158564, Note_on_c, 0, 52, 101
2, 158646, Note_on_c, 0, 55, 75
2, 158660, Control_c, 0, 64, 63
2, 158660, Control_c, 0, 64, 127
2, 158668, Note_off_c, 0, 52, 64
2, 158686, Note_off_c, 0, 30, 64
2, 158691, Note_on_c, 0, 59, 82
2, 158697, Note_off_c, 0, 55, 64
2, 158706, Note_off_c, 0, 42, 64
2, 158731, Note_on_c, 0, 61, 81
2, 158732, Note_off_c, 0, 59, 64
2, 158742, Note_off_c, 0, 61, 64
2, 158771, Note_on_c, 0, 64, 92
2, 158801, Note_off_c, 0, 64, 64
2, 158807, Note_on_c, 0, 67, 97
2, 158844, Note_on_c, 0, 59, 94
2, 158845, Note_on_c, 0, 71, 100
2, 158845, Note_on_c, 0, 64, 107
2, 158847, Note_on_c, 0, 55, 86
2, 158855, Note_off_c, 0, 67, 64
2, 158886, Note_on_c, 0, 73, 103
2, 158890, Note_off_c, 0, 71, 64
2, 158894, Note_off_c, 0, 64, 64
2, 158912, Note_off_c, 0, 73, 64
2, 158933, Note_on_c, 0, 76, 102
2, 158942, Note_on_c, 0, 66, 120
2, 158973, Note_off_c, 0, 76, 64
2, 158978, Note_on_c, 0, 79, 103
2, 158982, Note_off_c, 0, 66, 64
2, 159017, Note_on_c, 0, 67, 121
2, 159018, Note_on_c, 0, 83, 100
2, 159029, Note_off_c, 0, 79, 64
2, 159055, Note_on_c, 0, 85, 103
2, 159061, Note_off_c, 0, 83, 64
2, 159070, Note_off_c, 0, 67, 64
2, 159080, Note_off_c, 0, 85, 64
2, 159096, Note_on_c, 0, 61, 118
2, 159102, Note_on_c, 0, 88, 102
2, 159141, Note_on_c, 0, 91, 104
2, 159144, Note_off_c, 0, 88, 64
2, 159169, Control_c, 0, 64, 63
2, 159177, Control_c, 0, 64, 0
2, 159188, Note_on_c, 0, 100, 97
2, 159191, Note_off_c, 0, 91, 64
2, 159213, Control_c, 0, 64, 63
2, 159218, Control_c, 0, 64, 127
2, 159233, Note_on_c, 0, 97, 105
2, 159238, Note_off_c, 0, 100, 64
2, 159246, Note_off_c, 0, 59, 64
2, 159253, Note_off_c, 0, 55, 64
2, 159267, Note_off_c, 0, 61, 64
2, 159271, Note_on_c, 0, 94, 106
2, 159280, Note_off_c, 0, 97, 64
2, 159306, Note_on_c, 0, 90, 105
2, 159317, Note_off_c, 0, 94, 64
2, 159337, Control_c, 0, 64, 63
2, 159342, Control_c, 0, 64, 0
2, 159343, Note_on_c, 0, 64, 120
2, 159344, Note_on_c, 0, 58, 115
2, 159345, Note_on_c, 0, 54, 115
2, 159348, Note_off_c, 0, 90, 64
2, 159348, Note_on_c, 0, 88, 85
2, 159372, Control_c, 0, 64, 63
2, 159377, Control_c, 0, 64, 127
2, 159379, Note_off_c, 0, 88, 64
2, 159399, Note_on_c, 0, 85, 100
2, 159443, Note_off_c, 0, 85, 64
2, 159444, Note_on_c, 0, 82, 103
2, 159446, Note_off_c, 0, 64, 64
2, 159468, Note_off_c, 0, 58, 64
2, 159472, Note_off_c, 0, 54, 64
2, 159480, Note_off_c, 0, 82, 64
2, 159481, Note_on_c, 0, 78, 98
2, 159515, Note_off_c, 0, 78, 64
2, 159529, Note_on_c, 0, 76, 58
2, 159558, Note_off_c, 0, 76, 64
2, 159578, Note_on_c, 0, 73, 78
2, 159615, Note_off_c, 0, 73, 64
2, 159661, Control_c, 0, 64, 63
2, 159669, Control_c, 0, 64, 0
2, 159679, Note_on_c, 0, 47, 68
2, 159687, Note_on_c, 0, 70, 77
2, 159711, Control_c, 0, 64, 63
2, 159716, Control_c, 0, 64, 127
2, 159722, Note_off_c, 0, 47, 64
2, 159755, Note_off_c, 0, 70, 64
2, 159756, Note_on_c, 0, 71, 63
2, 159813, Note_on_c, 0, 63, 80
2, 159817, Note_off_c, 0, 71, 64
2, 159824, Note_on_c, 0, 75, 76
2, 159861, Note_off_c, 0, 75, 64
2, 159868, Note_on_c, 0, 71, 75
2, 159912, Note_on_c, 0, 54, 65
2, 159912, Control_c, 0, 64, 63
2, 159918, Note_off_c, 0, 63, 64
2, 159918, Note_on_c, 0, 51, 76
2, 159920, Note_on_c, 0, 72, 77
2, 159923, Note_off_c, 0, 71, 64
2, 159934, Control_c, 0, 64, 127
2, 159945, Note_off_c, 0, 54, 64
2, 159948, Note_off_c, 0, 51, 64
2, 159962, Note_on_c, 0, 76, 85
2, 159965, Note_off_c, 0, 72, 64
2, 160003, Note_off_c, 0, 76, 64
2, 160004, Control_c, 0, 64, 63
2, 160009, Note_on_c, 0, 72, 78
2, 160010, Note_on_c, 0, 46, 77
2, 160027, Control_c, 0, 64, 127
2, 160042, Note_off_c, 0, 46, 64
2, 160045, Note_on_c, 0, 73, 90
2, 160049, Note_off_c, 0, 72, 64
2, 160086, Note_on_c, 0, 77, 81
2, 160089, Note_off_c, 0, 73, 64
2, 160096, Note_on_c, 0, 63, 91
2, 160126, Note_off_c, 0, 77, 64
2, 160134, Note_on_c, 0, 73, 91
2, 160150, Note_off_c, 0, 63, 64
2, 160177, Note_on_c, 0, 54, 80
2, 160180, Note_on_c, 0, 74, 85
2, 160181, Note_on_c, 0, 51, 85
2, 160183, Note_off_c, 0, 73, 64
2, 160194, Note_off_c, 0, 54, 64
2, 160205, Note_off_c, 0, 51, 64
2, 160221, Note_on_c, 0, 78, 93
2, 160228, Note_off_c, 0, 74, 64
2, 160240, Control_c, 0, 64, 63
2, 160247, Control_c, 0, 64, 0
2, 160257, Note_on_c, 0, 46, 99
2, 160269, Note_on_c, 0, 74, 86
2, 160273, Control_c, 0, 64, 63
2, 160274, Note_off_c, 0, 78, 64
2, 160281, Control_c, 0, 64, 127
2, 160290, Note_off_c, 0, 46, 64
2, 160311, Note_on_c, 0, 75, 98
2, 160322, Note_off_c, 0, 74, 64
2, 160348, Note_on_c, 0, 63, 94
2, 160351, Note_on_c, 0, 79, 94
2, 160357, Note_off_c, 0, 75, 64
2, 160378, Note_off_c, 0, 79, 64
2, 160391, Note_on_c, 0, 75, 100
2, 160401, Note_off_c, 0, 63, 64
2, 160433, Note_on_c, 0, 76, 90
2, 160434, Note_off_c, 0, 75, 64
2, 160440, Note_on_c, 0, 51, 92
2, 160441, Note_on_c, 0, 55, 74
2, 160455, Note_off_c, 0, 55, 64
2, 160466, Note_off_c, 0, 51, 64
2, 160475, Note_on_c, 0, 80, 99
2, 160486, Note_off_c, 0, 76, 64
2, 160489, Control_c, 0, 64, 63
2, 160494, Control_c, 0, 64, 0
2, 160513, Note_on_c, 0, 44, 103
2, 160522, Note_on_c, 0, 76, 103
2, 160527, Control_c, 0, 64, 63
2, 160531, Note_off_c, 0, 80, 64
2, 160534, Control_c, 0, 64, 127
2, 160539, Note_off_c, 0, 44, 64
2, 160564, Note_on_c, 0, 77, 100
2, 160570, Note_off_c, 0, 76, 64
2, 160595, Note_on_c, 0, 63, 105
2, 160606, Note_on_c, 0, 81, 99
2, 160610, Note_off_c, 0, 77, 64
2, 160645, Note_on_c, 0, 77, 90
2, 160649, Note_off_c, 0, 81, 64
2, 160675, Note_off_c, 0, 63, 64
2, 160684, Note_on_c, 0, 78, 107
2, 160687, Note_on_c, 0, 51, 87
2, 160689, Note_on_c, 0, 56, 88
2, 160691, Note_off_c, 0, 77, 64
2, 160714, Note_off_c, 0, 51, 64
2, 160723, Note_on_c, 0, 82, 105
2, 160724, Control_c, 0, 64, 63
2, 160726, Note_off_c, 0, 78, 64
2, 160729, Control_c, 0, 64, 0
2, 160741, Note_off_c, 0, 56, 64
2, 160765, Note_on_c, 0, 78, 103
2, 160766, Note_on_c, 0, 49, 108
2, 160767, Note_off_c, 0, 82, 64
2, 160768, Control_c, 0, 64, 63
2, 160773, Control_c, 0, 64, 127
2, 160798, Note_off_c, 0, 49, 64
2, 160805, Note_on_c, 0, 79, 84
2, 160812, Note_off_c, 0, 78, 64
2, 160847, Note_off_c, 0, 79, 64
2, 160849, Note_on_c, 0, 83, 97
2, 160851, Note_on_c, 0, 64, 91
2, 160893, Note_on_c, 0, 79, 98
2, 160905, Note_off_c, 0, 83, 64
2, 160934, Note_off_c, 0, 64, 64
2, 160940, Note_on_c, 0, 80, 103
2, 160941, Note_on_c, 0, 56, 92
2, 160945, Note_on_c, 0, 52, 70
2, 160946, Note_off_c, 0, 79, 64
2, 160961, Note_off_c, 0, 52, 64
2, 160966, Note_off_c, 0, 56, 64
2, 160972, Note_on_c, 0, 84, 101
2, 160982, Note_off_c, 0, 80, 64
2, 160999, Control_c, 0, 64, 63
2, 161004, Control_c, 0, 64, 0
2, 161013, Note_off_c, 0, 84, 64
2, 161020, Note_on_c, 0, 47, 106
2, 161027, Note_on_c, 0, 80, 105
2, 161037, Control_c, 0, 64, 63
2, 161043, Control_c, 0, 64, 127
2, 161051, Note_off_c, 0, 47, 64
2, 161067, Note_off_c, 0, 80, 64
2, 161068, Note_on_c, 0, 81, 78
2, 161104, Note_on_c, 0, 64, 92
2, 161108, Note_on_c, 0, 85, 99
2, 161113, Note_off_c, 0, 81, 64
2, 161150, Note_on_c, 0, 81, 94
2, 161152, Note_off_c, 0, 85, 64
2, 161189, Note_on_c, 0, 82, 104
2, 161190, Note_off_c, 0, 64, 64
2, 161191, Note_on_c, 0, 56, 99
2, 161195, Note_on_c, 0, 52, 77
2, 161196, Note_off_c, 0, 81, 64
2, 161219, Note_off_c, 0, 56, 64
2, 161222, Note_off_c, 0, 52, 64
2, 161226, Note_on_c, 0, 86, 102
2, 161239, Note_off_c, 0, 82, 64
2, 161245, Control_c, 0, 64, 63
2, 161250, Control_c, 0, 64, 0
2, 161261, Note_off_c, 0, 86, 64
2, 161269, Note_on_c, 0, 47, 116
2, 161273, Note_on_c, 0, 82, 110
2, 161281, Control_c, 0, 64, 63
2, 161287, Control_c, 0, 64, 127
2, 161301, Note_off_c, 0, 47, 64
2, 161311, Note_on_c, 0, 83, 84
2, 161313, Note_off_c, 0, 82, 64
2, 161351, Note_on_c, 0, 64, 97
2, 161355, Note_on_c, 0, 87, 108
2, 161367, Note_off_c, 0, 83, 64
2, 161395, Note_on_c, 0, 83, 96
2, 161412, Note_off_c, 0, 87, 64
2, 161425, Note_off_c, 0, 64, 64
2, 161434, Note_on_c, 0, 52, 96
2, 161435, Note_on_c, 0, 56, 105
2, 161440, Note_on_c, 0, 84, 107
2, 161451, Note_off_c, 0, 83, 64
2, 161465, Note_off_c, 0, 52, 64
2, 161467, Note_off_c, 0, 56, 64
2, 161476, Note_on_c, 0, 88, 103
2, 161487, Note_off_c, 0, 84, 64
2, 161491, Control_c, 0, 64, 63
2, 161496, Control_c, 0, 64, 0
2, 161518, Note_on_c, 0, 46, 112
2, 161521, Note_on_c, 0, 84, 106
2, 161527, Control_c, 0, 64, 63
2, 161532, Control_c, 0, 64, 127
2, 161534, Note_off_c, 0, 88, 64
2, 161537, Note_off_c, 0, 46, 64
2, 161558, Note_on_c, 0, 85, 109
2, 161568, Note_off_c, 0, 84, 64
2, 161593, Note_on_c, 0, 64, 100
2, 161595, Note_on_c, 0, 89, 100
2, 161607, Note_off_c, 0, 85, 64
2, 161630, Note_off_c, 0, 89, 64
2, 161641, Note_on_c, 0, 85, 110
2, 161679, Note_on_c, 0, 58, 114
2, 161679, Note_on_c, 0, 86, 85
2, 161679, Note_on_c, 0, 52, 107
2, 161680, Note_off_c, 0, 85, 64
2, 161681, Note_off_c, 0, 64, 64
2, 161715, Note_on_c, 0, 90, 105
2, 161716, Note_off_c, 0, 52, 64
2, 161728, Note_off_c, 0, 86, 64
2, 161745, Note_off_c, 0, 58, 64
2, 161746, Control_c, 0, 64, 63
2, 161749, Control_c, 0, 64, 0
2, 161761, Note_on_c, 0, 86, 108
2, 161762, Note_on_c, 0, 51, 121
2, 161782, Note_off_c, 0, 90, 64
2, 161786, Control_c, 0, 64, 63
2, 161790, Control_c, 0, 64, 127
2, 161798, Note_off_c, 0, 51, 64
2, 161802, Note_on_c, 0, 87, 112
2, 161815, Note_off_c, 0, 86, 64
2, 161839, Note_on_c, 0, 91, 98
2, 161841, Note_on_c, 0, 66, 115
2, 161852, Note_off_c, 0, 87, 64
2, 161869, Note_off_c, 0, 91, 64
2, 161882, Note_on_c, 0, 87, 107
2, 161913, Note_off_c, 0, 87, 64
2, 161923, Note_off_c, 0, 66, 64
2, 161923, Note_on_c, 0, 88, 84
2, 161923, Note_on_c, 0, 54, 107
2, 161926, Note_on_c, 0, 58, 104
2, 161958, Note_off_c, 0, 58, 64
2, 161959, Note_on_c, 0, 92, 109
2, 161962, Note_off_c, 0, 54, 64
2, 161972, Note_off_c, 0, 88, 64
2, 161978, Control_c, 0, 64, 63
2, 161982, Control_c, 0, 64, 0
2, 162000, Note_on_c, 0, 49, 118
2, 162003, Note_on_c, 0, 88, 100
2, 162008, Control_c, 0, 64, 63
2, 162009, Note_on_c, 0, 89, 76
2, 162014, Control_c, 0, 64, 127
2, 162015, Note_off_c, 0, 92, 64
2, 162023, Note_off_c, 0, 89, 64
2, 162023, Note_off_c, 0, 49, 64
2, 162047, Note_on_c, 0, 89, 104
2, 162048, Note_off_c, 0, 88, 64
2, 162075, Note_on_c, 0, 66, 108
2, 162089, Note_on_c, 0, 93, 104
2, 162100, Note_off_c, 0, 89, 64
2, 162123, Note_on_c, 0, 89, 80
2, 162135, Note_off_c, 0, 93, 64
2, 162158, Note_on_c, 0, 54, 99
2, 162159, Note_off_c, 0, 66, 64
2, 162161, Note_on_c, 0, 58, 97
2, 162161, Note_on_c, 0, 90, 114
2, 162172, Note_off_c, 0, 89, 64
2, 162193, Note_off_c, 0, 58, 64
2, 162197, Note_off_c, 0, 54, 64
2, 162199, Note_on_c, 0, 94, 109
2, 162209, Note_off_c, 0, 90, 64
2, 162209, Control_c, 0, 64, 63
2, 162215, Control_c, 0, 64, 0
2, 162233, Note_on_c, 0, 49, 120
2, 162235, Control_c, 0, 64, 63
2, 162240, Note_on_c, 0, 90, 114
2, 162241, Control_c, 0, 64, 127
2, 162254, Note_off_c, 0, 94, 64
2, 162261, Note_off_c, 0, 49, 64
2, 162277, Note_on_c, 0, 91, 92
2, 162278, Note_off_c, 0, 90, 64
2, 162316, Note_on_c, 0, 95, 106
2, 162321, Note_on_c, 0, 66, 113
2, 162323, Note_off_c, 0, 91, 64
2, 162351, Note_off_c, 0, 95, 64
2, 162360, Note_on_c, 0, 90, 110
2, 162375, Note_off_c, 0, 66, 64
2, 162399, Note_on_c, 0, 92, 108
2, 162406, Note_on_c, 0, 63, 110
2, 162407, Note_off_c, 0, 90, 64
2, 162409, Note_on_c, 0, 54, 95
2, 162439, Note_on_c, 0, 96, 104
2, 162441, Note_off_c, 0, 63, 64
2, 162451, Note_off_c, 0, 92, 64
2, 162458, Note_off_c, 0, 54, 64
2, 162475, Control_c, 0, 64, 63
2, 162479, Control_c, 0, 64, 0
2, 162488, Note_on_c, 0, 48, 124
2, 162489, Note_on_c, 0, 90, 112
2, 162491, Note_off_c, 0, 96, 64
2, 162498, Control_c, 0, 64, 63
2, 162505, Control_c, 0, 64, 127
2, 162521, Note_off_c, 0, 48, 64
2, 162535, Note_on_c, 0, 92, 107
2, 162553, Note_off_c, 0, 90, 64
2, 162579, Note_on_c, 0, 66, 114
2, 162581, Note_on_c, 0, 97, 112
2, 162597, Note_off_c, 0, 92, 64
2, 162622, Note_on_c, 0, 90, 106
2, 162644, Note_off_c, 0, 97, 64
2, 162668, Note_on_c, 0, 63, 112
2, 162671, Note_on_c, 0, 56, 104
2, 162671, Note_on_c, 0, 92, 114
2, 162672, Note_off_c, 0, 66, 64
2, 162689, Note_off_c, 0, 63, 64
2, 162689, Note_off_c, 0, 90, 64
2, 162696, Note_off_c, 0, 56, 64
2, 162719, Note_on_c, 0, 99, 114
2, 162732, Control_c, 0, 64, 63
2, 162735, Control_c, 0, 64, 0
2, 162736, Note_off_c, 0, 92, 64
2, 162748, Note_on_c, 0, 49, 103
2, 162764, Control_c, 0, 64, 63
2, 162767, Control_c, 0, 64, 127
2, 162784, Note_off_c, 0, 49, 64
2, 162789, Note_off_c, 0, 99, 64
2, 162824, Note_on_c, 0, 64, 111
2, 162825, Note_on_c, 0, 91, 107
2, 162826, Note_on_c, 0, 56, 107
2, 162846, Note_off_c, 0, 56, 64
2, 162847, Note_off_c, 0, 64, 64
2, 162894, Note_off_c, 0, 91, 64
2, 162899, Note_on_c, 0, 92, 105
2, 162944, Note_on_c, 0, 100, 98
2, 162951, Note_off_c, 0, 92, 64
2, 162987, Note_on_c, 0, 97, 98
2, 162995, Note_off_c, 0, 100, 64
2, 163025, Note_on_c, 0, 58, 93
2, 163029, Note_on_c, 0, 70, 123
2, 163031, Note_on_c, 0, 61, 105
2, 163031, Note_on_c, 0, 64, 103
2, 163035, Note_on_c, 0, 92, 100
2, 163045, Note_off_c, 0, 97, 64
2, 163054, Note_off_c, 0, 70, 64
2, 163054, Note_off_c, 0, 58, 64
2, 163055, Note_off_c, 0, 64, 64
2, 163062, Note_off_c, 0, 61, 64
2, 163075, Note_off_c, 0, 92, 64
2, 163081, Note_on_c, 0, 88, 42
2, 163096, Note_off_c, 0, 88, 64
2, 163135, Note_on_c, 0, 59, 90
2, 163136, Note_on_c, 0, 71, 122
2, 163136, Note_on_c, 0, 64, 114
2, 163137, Note_on_c, 0, 61, 109
2, 163138, Control_c, 0, 64, 63
2, 163142, Control_c, 0, 64, 0
2, 163146, Note_on_c, 0, 85, 110
2, 163158, Control_c, 0, 64, 63
2, 163164, Control_c, 0, 64, 127
2, 163182, Note_off_c, 0, 71, 64
2, 163190, Note_off_c, 0, 64, 64
2, 163197, Note_on_c, 0, 80, 97
2, 163201, Note_off_c, 0, 59, 64
2, 163206, Note_off_c, 0, 61, 64
2, 163209, Note_off_c, 0, 85, 64
2, 163240, Note_on_c, 0, 88, 85
2, 163246, Note_off_c, 0, 80, 64
2, 163272, Note_on_c, 0, 85, 99
2, 163280, Note_off_c, 0, 88, 64
2, 163315, Note_on_c, 0, 80, 101
2, 163324, Note_on_c, 0, 49, 93
2, 163325, Note_on_c, 0, 61, 113
2, 163326, Note_off_c, 0, 85, 64
2, 163344, Note_off_c, 0, 49, 64
2, 163346, Note_off_c, 0, 61, 64
2, 163352, Note_on_c, 0, 76, 86
2, 163354, Note_off_c, 0, 80, 64
2, 163382, Note_off_c, 0, 76, 64
2, 163403, Note_on_c, 0, 64, 111
2, 163406, Note_on_c, 0, 52, 100
2, 163414, Note_on_c, 0, 73, 115
2, 163426, Note_off_c, 0, 64, 64
2, 163430, Note_off_c, 0, 52, 64
2, 163449, Note_on_c, 0, 68, 100
2, 163456, Note_off_c, 0, 73, 64
2, 163484, Note_off_c, 0, 68, 64
2, 163492, Note_on_c, 0, 76, 88
2, 163525, Note_on_c, 0, 73, 105
2, 163536, Note_off_c, 0, 76, 64
2, 163573, Note_on_c, 0, 68, 107
2, 163580, Note_on_c, 0, 56, 114
2, 163580, Note_on_c, 0, 44, 97
2, 163581, Note_off_c, 0, 73, 64
2, 163602, Note_off_c, 0, 44, 64
2, 163605, Note_off_c, 0, 56, 64
2, 163607, Note_off_c, 0, 68, 64
2, 163608, Note_on_c, 0, 64, 83
2, 163632, Note_off_c, 0, 64, 64
2, 163660, Note_on_c, 0, 59, 109
2, 163664, Note_on_c, 0, 47, 84
2, 163673, Note_on_c, 0, 61, 116
2, 163677, Note_off_c, 0, 59, 64
2, 163684, Note_off_c, 0, 47, 64
2, 163705, Note_on_c, 0, 56, 107
2, 163716, Note_off_c, 0, 61, 64
2, 163751, Note_on_c, 0, 64, 92
2, 163754, Note_off_c, 0, 56, 64
2, 163786, Note_on_c, 0, 61, 103
2, 163798, Note_off_c, 0, 64, 64
2, 163836, Note_on_c, 0, 56, 101
2, 163840, Note_on_c, 0, 40, 117
2, 163843, Note_on_c, 0, 28, 112
2, 163856, Note_off_c, 0, 61, 64
2, 163857, Control_c, 0, 64, 63
2, 163866, Control_c, 0, 64, 127
2, 163870, Note_on_c, 0, 52, 94
2, 163878, Note_off_c, 0, 56, 64
2, 163896, Note_off_c, 0, 52, 64
2, 163913, Note_off_c, 0, 40, 64
2, 163915, Note_off_c, 0, 28, 64
2, 163924, Control_c, 0, 64, 63
2, 163925, Control_c, 0, 64, 0
2, 163929, Note_on_c, 0, 49, 118
2, 163929, Note_on_c, 0, 40, 122
2, 163929, Note_on_c, 0, 56, 120
2, 163931, Note_on_c, 0, 28, 114
2, 163959, Control_c, 0, 64, 63
2, 163961, Control_c, 0, 64, 127
2, 163971, Note_off_c, 0, 49, 64
2, 163978, Note_off_c, 0, 40, 64
2, 163979, Note_off_c, 0, 28, 64
2, 163979, Note_off_c, 0, 56, 64
2, 164021, Control_c, 0, 64, 63
2, 164023, Control_c, 0, 64, 0
2, 164081, Control_c, 0, 64, 63
2, 164086, Control_c, 0, 64, 127
2, 164103, Note_on_c, 0, 27, 98
2, 164104, Note_on_c, 0, 49, 114
2, 164104, Note_on_c, 0, 58, 110
2, 164106, Note_on_c, 0, 39, 116
2, 164108, Note_on_c, 0, 55, 65
2, 164109, Note_on_c, 0, 51, 93
2, 164119, Note_off_c, 0, 51, 64
2, 164121, Note_off_c, 0, 27, 64
2, 164122, Note_off_c, 0, 55, 64
2, 164126, Note_off_c, 0, 39, 64
2, 164127, Note_off_c, 0, 49, 64
2, 164140, Note_off_c, 0, 58, 64
2, 164202, Control_c, 0, 64, 63
2, 164203, Note_on_c, 0, 51, 110
2, 164204, Note_on_c, 0, 56, 103
2, 164204, Note_on_c, 0, 59, 107
2, 164205, Note_on_c, 0, 47, 109
2, 164205, Note_on_c, 0, 44, 125
2, 164205, Note_on_c, 0, 32, 109
2, 164208, Control_c, 0, 64, 0
2, 164224, Note_off_c, 0, 51, 64
2, 164225, Note_off_c, 0, 47, 64
2, 164225, Note_off_c, 0, 59, 64
2, 164227, Control_c, 0, 64, 63
2, 164231, Note_off_c, 0, 56, 64
2, 164231, Control_c, 0, 64, 127
2, 164244, Note_off_c, 0, 44, 64
2, 164247, Note_off_c, 0, 32, 64
2, 164283, Control_c, 0, 64, 63
2, 164287, Control_c, 0, 64, 0
2, 164393, Note_on_c, 0, 61, 119
2, 164394, Note_on_c, 0, 42, 116
2, 164394, Note_on_c, 0, 58, 116
2, 164394, Note_on_c, 0, 52, 114
2, 164395, Note_on_c, 0, 30, 113
2, 164397, Control_c, 0, 64, 127
2, 164412, Note_off_c, 0, 30, 64
2, 164412, Note_off_c, 0, 52, 64
2, 164413, Note_off_c, 0, 58, 64
2, 164415, Note_off_c, 0, 42, 64
2, 164423, Note_off_c, 0, 61, 64
2, 164510, Control_c, 0, 64, 63
2, 164512, Note_on_c, 0, 47, 112
2, 164512, Control_c, 0, 64, 0
2, 164513, Note_on_c, 0, 63, 116
2, 164514, Note_on_c, 0, 59, 100
2, 164514, Note_on_c, 0, 51, 118
2, 164514, Note_on_c, 0, 35, 112
2, 164538, Control_c, 0, 64, 63
2, 164543, Control_c, 0, 64, 127
2, 164558, Note_off_c, 0, 35, 64
2, 164562, Note_off_c, 0, 47, 64
2, 164590, Note_off_c, 0, 51, 64
2, 164598, Note_off_c, 0, 59, 64
2, 164606, Note_off_c, 0, 63, 64
2, 164622, Note_on_c, 0, 46, 113
2, 164625, Note_on_c, 0, 34, 112
2, 164647, Note_off_c, 0, 34, 64
2, 164647, Note_off_c, 0, 46, 64
2, 164669, Control_c, 0, 64, 63
2, 164671, Control_c, 0, 64, 0
2, 164709, Note_on_c, 0, 63, 112
2, 164710, Note_on_c, 0, 45, 106
2, 164710, Note_on_c, 0, 54, 110
2, 164710, Note_on_c, 0, 60, 107
2, 164712, Note_on_c, 0, 33, 99
2, 164713, Control_c, 0, 64, 63
2, 164715, Control_c, 0, 64, 127
2, 164732, Note_off_c, 0, 45, 64
2, 164733, Note_off_c, 0, 60, 64
2, 164735, Note_off_c, 0, 33, 64
2, 164736, Note_off_c, 0, 54, 64
2, 164749, Note_off_c, 0, 63, 64
2, 164772, Control_c, 0, 64, 63
2, 164774, Control_c, 0, 64, 0
2, 164804, Note_on_c, 0, 43, 114
2, 164804, Note_on_c, 0, 64, 113
2, 164805, Note_on_c, 0, 31, 108
2, 164805, Note_on_c, 0, 55, 103
2, 164805, Note_on_c, 0, 60, 113
2, 164809, Control_c, 0, 64, 63
2, 164811, Control_c, 0, 64, 127
2, 164824, Note_off_c, 0, 60, 64
2, 164824, Note_off_c, 0, 55, 64
2, 164824, Note_off_c, 0, 31, 64
2, 164827, Note_off_c, 0, 43, 64
2, 164832, Note_off_c, 0, 64, 64
2, 164896, Control_c, 0, 64, 63
2, 164899, Control_c, 0, 64, 0
2, 164983, Note_on_c, 0, 65, 120
2, 164985, Control_c, 0, 64, 63
2, 164985, Control_c, 0, 64, 127
2, 164985, Note_on_c, 0, 59, 111
2, 164986, Note_on_c, 0, 55, 107
2, 164987, Note_on_c, 0, 43, 99
2, 165004, Note_off_c, 0, 59, 64
2, 165008, Note_off_c, 0, 43, 64
2, 165008, Note_off_c, 0, 55, 64
2, 165009, Note_off_c, 0, 65, 64
2, 165066, Control_c, 0, 64, 63
2, 165066, Control_c, 0, 64, 0
2, 165094, Note_on_c, 0, 66, 115
2, 165094, Note_on_c, 0, 58, 118
2, 165097, Note_on_c, 0, 54, 114
2, 165099, Note_on_c, 0, 42, 109
2, 165104, Control_c, 0, 64, 63
2, 165105, Control_c, 0, 64, 127
2, 165123, Note_off_c, 0, 54, 64
2, 165126, Note_off_c, 0, 42, 64
2, 165150, Note_off_c, 0, 58, 64
2, 165150, Note_off_c, 0, 66, 64
2, 165193, Note_on_c, 0, 53, 114
2, 165194, Note_on_c, 0, 41, 106
2, 165218, Note_off_c, 0, 53, 64
2, 165219, Note_off_c, 0, 41, 64
2, 165238, Control_c, 0, 64, 63
2, 165241, Control_c, 0, 64, 0
2, 165273, Control_c, 0, 64, 63
2, 165276, Control_c, 0, 64, 127
2, 165286, Note_on_c, 0, 52, 109
2, 165287, Note_on_c, 0, 58, 109
2, 165287, Note_on_c, 0, 67, 93
2, 165287, Note_on_c, 0, 40, 104
2, 165288, Note_on_c, 0, 70, 106
2, 165290, Note_on_c, 0, 61, 91
2, 165300, Note_off_c, 0, 61, 64
2, 165306, Note_off_c, 0, 52, 64
2, 165307, Note_off_c, 0, 40, 64
2, 165308, Note_off_c, 0, 58, 64
2, 165312, Note_off_c, 0, 67, 64
2, 165319, Note_off_c, 0, 70, 64
2, 165402, Control_c, 0, 64, 63
2, 165404, Note_on_c, 0, 66, 113
2, 165405, Note_on_c, 0, 71, 112
2, 165405, Note_on_c, 0, 59, 113
2, 165406, Control_c, 0, 64, 0
2, 165408, Note_on_c, 0, 51, 124
2, 165409, Note_on_c, 0, 39, 114
2, 165429, Control_c, 0, 64, 63
2, 165432, Control_c, 0, 64, 127
2, 165471, Note_off_c, 0, 39, 64
2, 165475, Note_off_c, 0, 59, 64
2, 165484, Note_off_c, 0, 66, 64
2, 165487, Note_off_c, 0, 51, 64
2, 165488, Note_off_c, 0, 71, 64
2, 165539, Control_c, 0, 64, 63
2, 165541, Control_c, 0, 64, 0
2, 165621, Note_on_c, 0, 56, 121
2, 165622, Note_on_c, 0, 72, 112
2, 165622, Note_on_c, 0, 68, 113
2, 165623, Note_on_c, 0, 44, 114
2, 165623, Note_on_c, 0, 60, 116
2, 165626, Note_on_c, 0, 66, 104
2, 165629, Control_c, 0, 64, 127
2, 165641, Note_off_c, 0, 60, 64
2, 165644, Note_off_c, 0, 56, 64
2, 165648, Note_off_c, 0, 66, 64
2, 165650, Note_off_c, 0, 44, 64
2, 165653, Note_off_c, 0, 68, 64
2, 165656, Note_off_c, 0, 72, 64
2, 165752, Note_on_c, 0, 52, 120
2, 165754, Note_on_c, 0, 40, 117
2, 165754, Note_on_c, 0, 73, 119
2, 165755, Note_on_c, 0, 68, 116
2, 165755, Note_on_c, 0, 61, 123
2, 165756, Control_c, 0, 64, 0
2, 165786, Control_c, 0, 64, 63
2, 165789, Control_c, 0, 64, 127
2, 165846, Note_off_c, 0, 52, 64
2, 165860, Note_off_c, 0, 61, 64
2, 165867, Note_off_c, 0, 40, 64
2, 165868, Note_off_c, 0, 73, 64
2, 165870, Note_off_c, 0, 68, 64
2, 165956, Control_c, 0, 64, 63
2, 165958, Control_c, 0, 64, 0
2, 166026, Note_on_c, 0, 48, 114
2, 166027, Note_on_c, 0, 75, 116
2, 166028, Note_on_c, 0, 63, 121
2, 166029, Note_on_c, 0, 36, 106
2, 166030, Note_on_c, 0, 68, 108
2, 166051, Control_c, 0, 64, 127
2, 166070, Note_off_c, 0, 63, 64
2, 166081, Note_off_c, 0, 75, 64
2, 166088, Note_off_c, 0, 68, 64
2, 166097, Note_off_c, 0, 36, 64
2, 166102, Note_off_c, 0, 48, 64
2, 166178, Note_on_c, 0, 76, 111
2, 166179, Note_on_c, 0, 64, 111
2, 166180, Note_on_c, 0, 68, 113
2, 166180, Note_on_c, 0, 49, 124
2, 166182, Note_on_c, 0, 37, 118
2, 166193, Note_on_c, 0, 39, 58
2, 166205, Note_off_c, 0, 39, 64
2, 166225, Control_c, 0, 64, 63
2, 166228, Control_c, 0, 64, 0
2, 166267, Control_c, 0, 64, 63
2, 166272, Control_c, 0, 64, 127
2, 166363, Note_off_c, 0, 76, 64
2, 166376, Note_off_c, 0, 64, 64
2, 166384, Note_off_c, 0, 37, 64
2, 166395, Note_off_c, 0, 68, 64
2, 166405, Note_off_c, 0, 49, 64
2, 166504, Control_c, 0, 64, 63
2, 166507, Control_c, 0, 64, 0
2, 166530, Note_on_c, 0, 70, 120
2, 166530, Note_on_c, 0, 64, 112
2, 166532, Note_on_c, 0, 54, 125
2, 166532, Note_on_c, 0, 66, 118
2, 166534, Note_on_c, 0, 42, 116
2, 166546, Control_c, 0, 64, 63
2, 166548, Control_c, 0, 64, 127
2, 166575, Note_off_c, 0, 64, 64
2, 166585, Note_off_c, 0, 66, 64
2, 166593, Note_off_c, 0, 54, 64
2, 166596, Note_off_c, 0, 70, 64
2, 166611, Note_off_c, 0, 42, 64
2, 166802, Control_c, 0, 64, 63
2, 166804, Control_c, 0, 64, 0
2, 166809, Note_on_c, 0, 47, 124
2, 166810, Note_on_c, 0, 95, 112
2, 166810, Note_on_c, 0, 35, 122
2, 166888, Control_c, 0, 64, 63
2, 166890, Control_c, 0, 64, 127
2, 166929, Note_on_c, 0, 99, 101
2, 166959, Note_off_c, 0, 95, 64
2, 166980, Note_off_c, 0, 35, 64
2, 167001, Note_on_c, 0, 98, 108
2, 167017, Note_off_c, 0, 47, 64
2, 167031, Note_off_c, 0, 99, 64
2, 167064, Note_on_c, 0, 95, 103
2, 167072, Note_off_c, 0, 98, 64
2, 167121, Note_on_c, 0, 94, 112
2, 167132, Note_off_c, 0, 95, 64
2, 167170, Note_on_c, 0, 97, 106
2, 167180, Note_off_c, 0, 94, 64
2, 167210, Note_on_c, 0, 54, 75
2, 167220, Note_on_c, 0, 59, 87
2, 167222, Note_on_c, 0, 63, 113
2, 167224, Note_on_c, 0, 66, 119
2, 167225, Note_on_c, 0, 96, 100
2, 167246, Note_off_c, 0, 97, 64
2, 167287, Note_on_c, 0, 93, 81
2, 167293, Note_off_c, 0, 96, 64
2, 167341, Note_on_c, 0, 92, 105
2, 167343, Note_off_c, 0, 93, 64
2, 167385, Note_on_c, 0, 95, 101
2, 167386, Note_off_c, 0, 92, 64
2, 167427, Note_off_c, 0, 54, 64
2, 167432, Note_on_c, 0, 94, 109
2, 167435, Note_off_c, 0, 59, 64
2, 167452, Note_off_c, 0, 95, 64
2, 167455, Note_off_c, 0, 63, 64
2, 167466, Note_on_c, 0, 54, 83
2, 167467, Note_off_c, 0, 66, 64
2, 167474, Note_on_c, 0, 91, 93
2, 167483, Note_off_c, 0, 94, 64
2, 167505, Note_on_c, 0, 59, 66
2, 167509, Note_off_c, 0, 54, 64
2, 167519, Note_on_c, 0, 63, 98
2, 167520, Note_off_c, 0, 91, 64
2, 167527, Note_on_c, 0, 68, 124
2, 167529, Note_on_c, 0, 90, 109
2, 167580, Note_on_c, 0, 93, 97
2, 167585, Note_off_c, 0, 90, 64
2, 167626, Note_on_c, 0, 92, 109
2, 167644, Note_off_c, 0, 93, 64
2, 167667, Note_on_c, 0, 89, 89
2, 167668, Note_off_c, 0, 92, 64
2, 167672, Note_off_c, 0, 68, 64
2, 167680, Note_off_c, 0, 59, 64
2, 167684, Note_off_c, 0, 63, 64
2, 167699, Note_off_c, 0, 89, 64
2, 167715, Note_on_c, 0, 88, 91
2, 167754, Note_on_c, 0, 91, 96
2, 167756, Note_off_c, 0, 88, 64
2, 167792, Note_on_c, 0, 54, 85
2, 167798, Note_on_c, 0, 90, 105
2, 167799, Note_off_c, 0, 91, 64
2, 167800, Note_on_c, 0, 66, 125
2, 167800, Note_on_c, 0, 59, 97
2, 167801, Note_on_c, 0, 63, 114
2, 167841, Note_on_c, 0, 87, 108
2, 167865, Note_off_c, 0, 90, 64
2, 167870, Note_off_c, 0, 54, 64
2, 167884, Note_on_c, 0, 86, 94
2, 167885, Note_off_c, 0, 59, 64
2, 167903, Note_off_c, 0, 87, 64
2, 167907, Note_off_c, 0, 63, 64
2, 167922, Note_off_c, 0, 66, 64
2, 167927, Note_on_c, 0, 89, 99
2, 167933, Note_off_c, 0, 86, 64
2, 167970, Note_on_c, 0, 88, 98
2, 167988, Note_off_c, 0, 89, 64
2, 168004, Note_on_c, 0, 85, 112
2, 168026, Note_off_c, 0, 88, 64
2, 168056, Note_on_c, 0, 71, 112
2, 168056, Note_on_c, 0, 66, 88
2, 168058, Note_on_c, 0, 75, 127
2, 168058, Note_on_c, 0, 63, 90
2, 168058, Note_on_c, 0, 84, 106
2, 168074, Note_off_c, 0, 85, 64
2, 168112, Note_off_c, 0, 84, 64
2, 168113, Note_on_c, 0, 87, 94
2, 168155, Note_on_c, 0, 86, 98
2, 168185, Note_off_c, 0, 87, 64
2, 168192, Note_off_c, 0, 86, 64
2, 168194, Note_on_c, 0, 83, 76
2, 168237, Note_on_c, 0, 82, 108
2, 168239, Note_off_c, 0, 83, 64
2, 168279, Note_on_c, 0, 85, 103
2, 168289, Note_off_c, 0, 82, 64
2, 168322, Note_on_c, 0, 84, 100
2, 168346, Note_off_c, 0, 85, 64
2, 168362, Note_off_c, 0, 84, 64
2, 168363, Note_on_c, 0, 81, 83
2, 168406, Note_on_c, 0, 80, 106
2, 168412, Note_off_c, 0, 81, 64
2, 168440, Note_on_c, 0, 83, 98
2, 168448, Note_off_c, 0, 80, 64
2, 168483, Note_on_c, 0, 82, 108
2, 168496, Note_off_c, 0, 83, 64
2, 168523, Note_off_c, 0, 82, 64
2, 168525, Note_on_c, 0, 79, 92
2, 168566, Note_on_c, 0, 78, 109
2, 168571, Note_off_c, 0, 79, 64
2, 168588, Note_off_c, 0, 75, 64
2, 168603, Note_off_c, 0, 71, 64
2, 168604, Note_on_c, 0, 81, 102
2, 168613, Note_off_c, 0, 78, 64
2, 168614, Note_off_c, 0, 66, 64
2, 168630, Note_off_c, 0, 63, 64
2, 168646, Note_on_c, 0, 80, 108
2, 168658, Note_off_c, 0, 81, 64
2, 168683, Note_on_c, 0, 77, 94
2, 168684, Note_off_c, 0, 80, 64
2, 168715, Note_off_c, 0, 77, 64
2, 168728, Note_on_c, 0, 76, 104
2, 168763, Note_on_c, 0, 79, 91
2, 168768, Note_off_c, 0, 76, 64
2, 168803, Note_on_c, 0, 78, 103
2, 168812, Note_off_c, 0, 79, 64
2, 168839, Note_on_c, 0, 75, 104
2, 168855, Control_c, 0, 64, 63
2, 168857, Note_off_c, 0, 78, 64
2, 168864, Control_c, 0, 64, 0
2, 168878, Note_on_c, 0, 74, 88
2, 168892, Note_off_c, 0, 75, 64
2, 168916, Note_on_c, 0, 77, 104
2, 168927, Note_off_c, 0, 74, 64
2, 168961, Note_on_c, 0, 76, 106
2, 168963, Note_on_c, 0, 54, 121
2, 168963, Note_on_c, 0, 42, 93
2, 168975, Note_off_c, 0, 77, 64
2, 168979, Note_off_c, 0, 42, 64
2, 168985, Note_off_c, 0, 54, 64
2, 169003, Note_on_c, 0, 73, 106
2, 169020, Note_off_c, 0, 76, 64
2, 169051, Note_on_c, 0, 59, 118
2, 169053, Note_on_c, 0, 47, 113
2, 169054, Note_on_c, 0, 72, 103
2, 169059, Note_off_c, 0, 73, 64
2, 169081, Control_c, 0, 64, 63
2, 169082, Control_c, 0, 64, 127
2, 169102, Note_on_c, 0, 75, 103
2, 169103, Note_off_c, 0, 72, 64
2, 169142, Note_on_c, 0, 74, 94
2, 169163, Note_off_c, 0, 75, 64
2, 169174, Note_on_c, 0, 71, 89
2, 169175, Note_off_c, 0, 74, 64
2, 169195, Note_off_c, 0, 59, 64
2, 169212, Note_on_c, 0, 70, 112
2, 169219, Note_off_c, 0, 71, 64
2, 169231, Note_off_c, 0, 47, 64
2, 169253, Note_on_c, 0, 73, 109
2, 169265, Note_off_c, 0, 70, 64
2, 169293, Note_on_c, 0, 72, 104
2, 169304, Control_c, 0, 64, 63
2, 169313, Control_c, 0, 64, 0
2, 169318, Note_off_c, 0, 73, 64
2, 169329, Note_on_c, 0, 69, 88
2, 169334, Note_off_c, 0, 72, 64
2, 169356, Control_c, 0, 64, 63
2, 169372, Note_on_c, 0, 68, 109
2, 169374, Note_off_c, 0, 69, 64
2, 169385, Control_c, 0, 64, 0
2, 169405, Note_on_c, 0, 71, 101
2, 169411, Control_c, 0, 64, 63
2, 169412, Control_c, 0, 64, 0
2, 169413, Note_off_c, 0, 68, 64
2, 169443, Note_on_c, 0, 70, 105
2, 169443, Note_on_c, 0, 42, 119
2, 169444, Note_on_c, 0, 30, 98
2, 169448, Control_c, 0, 64, 63
2, 169456, Control_c, 0, 64, 0
2, 169460, Note_off_c, 0, 71, 64
2, 169463, Note_off_c, 0, 30, 64
2, 169466, Note_off_c, 0, 42, 64
2, 169471, Control_c, 0, 64, 63
2, 169481, Note_on_c, 0, 67, 87
2, 169482, Note_off_c, 0, 70, 64
2, 169491, Control_c, 0, 64, 0
2, 169512, Note_off_c, 0, 67, 64
2, 169520, Control_c, 0, 64, 63
2, 169523, Note_on_c, 0, 47, 116
2, 169525, Note_on_c, 0, 66, 119
2, 169526, Note_on_c, 0, 35, 108
2, 169530, Control_c, 0, 64, 127
2, 169544, Note_off_c, 0, 47, 64
2, 169545, Note_off_c, 0, 35, 64
2, 169562, Note_on_c, 0, 69, 99
2, 169567, Note_off_c, 0, 66, 64
2, 169599, Note_on_c, 0, 68, 107
2, 169612, Note_off_c, 0, 69, 64
2, 169617, Control_c, 0, 64, 63
2, 169631, Control_c, 0, 64, 0
2, 169636, Note_off_c, 0, 68, 64
2, 169636, Note_on_c, 0, 65, 90
2, 169663, Note_off_c, 0, 65, 64
2, 169680, Note_on_c, 0, 64, 101
2, 169681, Note_on_c, 0, 42, 107
2, 169683, Note_on_c, 0, 30, 92
2, 169691, Note_off_c, 0, 30, 64
2, 169704, Note_off_c, 0, 42, 64
2, 169712, Note_on_c, 0, 67, 97
2, 169718, Note_off_c, 0, 64, 64
2, 169748, Control_c, 0, 64, 63
2, 169754, Note_off_c, 0, 67, 64
2, 169756, Note_on_c, 0, 66, 109
2, 169756, Note_on_c, 0, 47, 117
2, 169758, Note_on_c, 0, 35, 109
2, 169760, Control_c, 0, 64, 127
2, 169777, Note_off_c, 0, 35, 64
2, 169777, Note_off_c, 0, 47, 64
2, 169793, Note_on_c, 0, 63, 110
2, 169814, Note_off_c, 0, 66, 64
2, 169831, Note_on_c, 0, 62, 101
2, 169847, Note_off_c, 0, 63, 64
2, 169848, Control_c, 0, 64, 63
2, 169864, Control_c, 0, 64, 0
2, 169867, Note_on_c, 0, 65, 100
2, 169871, Note_off_c, 0, 62, 64
2, 169908, Note_on_c, 0, 64, 103
2, 169917, Note_on_c, 0, 30, 80
2, 169919, Note_on_c, 0, 42, 112
2, 169924, Note_off_c, 0, 65, 64
2, 169935, Note_off_c, 0, 30, 64
2, 169941, Note_off_c, 0, 42, 64
2, 169944, Note_on_c, 0, 61, 110
2, 169962, Note_off_c, 0, 64, 64
2, 169990, Note_on_c, 0, 47, 109
2, 169990, Note_on_c, 0, 60, 113
2, 169990, Note_on_c, 0, 35, 100
2, 170000, Control_c, 0, 64, 63
2, 170007, Note_off_c, 0, 61, 64
2, 170010, Control_c, 0, 64, 127
2, 170019, Control_c, 0, 64, 63
2, 170033, Note_on_c, 0, 63, 105
2, 170034, Control_c, 0, 64, 0
2, 170035, Note_off_c, 0, 60, 64
2, 170062, Control_c, 0, 64, 63
2, 170074, Note_on_c, 0, 62, 100
2, 170081, Control_c, 0, 64, 127
2, 170098, Note_off_c, 0, 63, 64
2, 170105, Note_on_c, 0, 59, 91
2, 170109, Note_off_c, 0, 62, 64
2, 170148, Note_on_c, 0, 58, 107
2, 170150, Note_off_c, 0, 59, 64
2, 170184, Note_on_c, 0, 61, 107
2, 170192, Note_off_c, 0, 58, 64
2, 170207, Control_c, 0, 64, 63
2, 170215, Control_c, 0, 64, 0
2, 170221, Note_on_c, 0, 60, 89
2, 170242, Control_c, 0, 64, 63
2, 170244, Note_off_c, 0, 47, 64
2, 170253, Note_off_c, 0, 61, 64
2, 170253, Control_c, 0, 64, 127
2, 170255, Note_off_c, 0, 35, 64
2, 170255, Note_on_c, 0, 57, 93
2, 170257, Note_off_c, 0, 60, 64
2, 170282, Note_off_c, 0, 57, 64
2, 170283, Control_c, 0, 64, 63
2, 170294, Control_c, 0, 64, 0
2, 170296, Note_on_c, 0, 55, 111
2, 170298, Note_on_c, 0, 43, 107
2, 170325, Note_off_c, 0, 43, 64
2, 170332, Note_on_c, 0, 59, 98
2, 170339, Note_off_c, 0, 55, 64
2, 170367, Note_on_c, 0, 54, 113
2, 170369, Note_on_c, 0, 42, 113
2, 170373, Note_off_c, 0, 59, 64
2, 170394, Note_off_c, 0, 42, 64
2, 170398, Note_on_c, 0, 59, 96
2, 170404, Note_off_c, 0, 54, 64
2, 170439, Note_on_c, 0, 53, 99
2, 170439, Note_on_c, 0, 41, 113
2, 170442, Note_off_c, 0, 59, 64
2, 170466, Note_off_c, 0, 53, 64
2, 170469, Note_off_c, 0, 41, 64
2, 170475, Note_on_c, 0, 59, 98
2, 170508, Note_on_c, 0, 52, 100
2, 170513, Note_on_c, 0, 40, 117
2, 170515, Note_off_c, 0, 59, 64
2, 170536, Note_off_c, 0, 52, 64
2, 170539, Note_off_c, 0, 40, 64
2, 170542, Note_on_c, 0, 59, 97
2, 170575, Note_on_c, 0, 51, 116
2, 170583, Note_on_c, 0, 39, 119
2, 170586, Note_off_c, 0, 59, 64
2, 170609, Note_off_c, 0, 39, 64
2, 170609, Note_on_c, 0, 59, 89
2, 170613, Note_off_c, 0, 51, 64
2, 170648, Note_on_c, 0, 38, 117
2, 170649, Note_on_c, 0, 50, 100
2, 170654, Note_off_c, 0, 59, 64
2, 170678, Note_off_c, 0, 50, 64
2, 170678, Note_off_c, 0, 38, 64
2, 170684, Note_on_c, 0, 59, 80
2, 170715, Note_on_c, 0, 37, 118
2, 170715, Note_on_c, 0, 49, 112
2, 170726, Note_off_c, 0, 59, 64
2, 170739, Note_off_c, 0, 49, 64
2, 170743, Note_off_c, 0, 37, 64
2, 170753, Note_on_c, 0, 59, 91
2, 170786, Note_off_c, 0, 59, 64
2, 170788, Note_on_c, 0, 36, 116
2, 170789, Note_on_c, 0, 48, 104
2, 170817, Note_off_c, 0, 48, 64
2, 170819, Note_on_c, 0, 59, 111
2, 170820, Note_off_c, 0, 36, 64
2, 170852, Note_off_c, 0, 59, 64
2, 170877, Note_on_c, 0, 47, 112
2, 170880, Note_on_c, 0, 35, 126
2, 170903, Control_c, 0, 64, 63
2, 170906, Control_c, 0, 64, 127
2, 170970, Note_off_c, 0, 47, 64
2, 170995, Note_off_c, 0, 35, 64
2, 171064, Control_c, 0, 64, 63
2, 171066, Control_c, 0, 64, 0
2, 171147, Note_on_c, 0, 70, 110
2, 171149, Note_on_c, 0, 58, 124
2, 171149, Note_on_c, 0, 66, 107
2, 171150, Note_on_c, 0, 54, 127
2, 171150, Note_on_c, 0, 64, 106
2, 171151, Note_on_c, 0, 42, 113
2, 171151, Note_on_c, 0, 49, 118
2, 171183, Control_c, 0, 64, 127
2, 171236, Note_off_c, 0, 42, 64
2, 171241, Note_off_c, 0, 49, 64
2, 171243, Note_off_c, 0, 58, 64
2, 171245, Note_off_c, 0, 64, 64
2, 171250, Note_off_c, 0, 54, 64
2, 171261, Note_off_c, 0, 66, 64
2, 171262, Note_off_c, 0, 70, 64
2, 171308, Note_on_c, 0, 70, 47
2, 171334, Note_off_c, 0, 70, 64
2, 171393, Control_c, 0, 64, 63
2, 171394, Control_c, 0, 64, 0
2, 171417, Note_on_c, 0, 59, 122
2, 171418, Note_on_c, 0, 47, 111
2, 171419, Note_on_c, 0, 54, 119
2, 171420, Note_on_c, 0, 71, 118
2, 171421, Note_on_c, 0, 63, 121
2, 171450, Control_c, 0, 64, 63
2, 171451, Control_c, 0, 64, 127
2, 171499, Note_off_c, 0, 63, 64
2, 171501, Note_off_c, 0, 47, 64
2, 171513, Note_off_c, 0, 71, 64
2, 171521, Note_off_c, 0, 54, 64
2, 171525, Note_off_c, 0, 59, 64
2, 171639, Control_c, 0, 64, 63
2, 171641, Control_c, 0, 64, 0
2, 171696, Note_on_c, 0, 78, 119
2, 171696, Note_on_c, 0, 64, 120
2, 171698, Note_on_c, 0, 66, 123
2, 171698, Note_on_c, 0, 61, 116
2, 171699, Note_on_c, 0, 54, 121
2, 171699, Note_on_c, 0, 70, 112
2, 171700, Note_on_c, 0, 73, 109
2, 171709, Control_c, 0, 64, 127
2, 171761, Note_off_c, 0, 66, 64
2, 171763, Note_off_c, 0, 64, 64
2, 171765, Note_off_c, 0, 78, 64
2, 171769, Note_off_c, 0, 61, 64
2, 171772, Note_off_c, 0, 70, 64
2, 171773, Note_off_c, 0, 54, 64
2, 171778, Note_off_c, 0, 73, 64
2, 172032, Control_c, 0, 64, 63
2, 172033, Control_c, 0, 64, 0
2, 172034, Note_on_c, 0, 47, 96
2, 172039, Note_on_c, 0, 66, 113
2, 172040, Note_on_c, 0, 59, 125
2, 172041, Note_on_c, 0, 71, 101
2, 172041, Note_on_c, 0, 54, 123
2, 172042, Note_on_c, 0, 63, 114
2, 172043, Note_on_c, 0, 75, 112
2, 172199, Control_c, 0, 64, 63
2, 172206, Control_c, 0, 64, 127
2, 172390, Note_off_c, 0, 59, 64
2, 172402, Note_off_c, 0, 54, 64
2, 172404, Note_off_c, 0, 75, 64
2, 172413, Note_off_c, 0, 63, 64
2, 172414, Note_off_c, 0, 71, 64
2, 172426, Note_off_c, 0, 66, 64
2, 172437, Note_off_c, 0, 47, 64
2, 172707, Note_on_c, 0, 35, 96
2, 172711, Note_on_c, 0, 47, 124
2, 172712, Note_on_c, 0, 54, 114
2, 172713, Note_on_c, 0, 42, 118
2, 172714, Note_on_c, 0, 63, 115
2, 172714, Note_on_c, 0, 51, 120
2, 172715, Note_on_c, 0, 59, 97
2, 173020, Note_off_c, 0, 42, 64
2, 173034, Note_off_c, 0, 35, 64
2, 173053, Note_off_c, 0, 51, 64
2, 173057, Note_off_c, 0, 47, 64
2, 173072, Note_off_c, 0, 54, 64
2, 173081, Note_off_c, 0, 59, 64
2, 173121, Note_off_c, 0, 63, 64
2, 173650, Note_on_c, 0, 95, 112
2, 173651, Note_on_c, 0, 63, 98
2, 173652, Note_on_c, 0, 75, 125
2, 173652, Note_on_c, 0, 83, 113
2, 173653, Note_on_c, 0, 71, 107
2, 173657, Note_on_c, 0, 66, 103
2, 175801, Note_off_c, 0, 75, 64
2, 175819, Note_off_c, 0, 71, 64
2, 175821, Note_off_c, 0, 95, 64
2, 175831, Note_off_c, 0, 66, 64
2, 175841, Note_off_c, 0, 63, 64
2, 175842, Note_off_c, 0, 83, 64
2, 175891, Control_c, 0, 64, 63
2, 175898, Control_c, 0, 64, 0
2, 175898, End_track
0, 0, End_of_file