0, 0, Header, 1, 17, 384
1, 0, Start_track
1, 0, Time_signature, 4, 2, 96, 8
1, 0, Sequencer_specific, 03, 00, 00, 41
1, 0, Tempo, 480000
1, 5916, Tempo, 500000
1, 23520, Tempo, 491803
1, 69820, Tempo, 431654
1, 78108, Tempo, 416666
1, 200948, Tempo, 491803
1, 202404, Tempo, 465116
1, 217924, Tempo, 500000
1, 218308, Tempo, 521739
1, 218752, Tempo, 461538
1, 218752, End_track
2, 0, Start_track
2, 0, Title_t, "Nocturne Op 62 No 1"
2, 0, Control_c, 0, 0, 0
2, 0, Program_c, 0, 0
2, 0, Control_c, 0, 91, 127
2, 0, Key_signature, 0, "major"
2, 1152, Control_c, 0, 91, 127
2, 1388, Note_on_c, 0, 37, 42
2, 1424, Control_c, 0, 64, 40
2, 1440, Control_c, 0, 64, 104
2, 1456, Control_c, 0, 64, 127
2, 1632, Note_on_c, 0, 44, 54
2, 1668, Note_off_c, 0, 37, 0
2, 1796, Note_off_c, 0, 44, 0
2, 1800, Note_on_c, 0, 49, 53
2, 1864, Note_off_c, 0, 49, 0
2, 1948, Note_on_c, 0, 56, 54
2, 2100, Note_on_c, 0, 59, 62
2, 2180, Note_off_c, 0, 56, 0
2, 2180, Note_off_c, 0, 59, 0
2, 2232, Note_on_c, 0, 64, 59
2, 2372, Note_on_c, 0, 68, 71
2, 2712, Note_on_c, 0, 76, 80
2, 3488, Note_off_c, 0, 76, 0
2, 3532, Note_off_c, 0, 64, 0
2, 3544, Note_off_c, 0, 68, 0
2, 4288, Note_on_c, 0, 73, 58
2, 4288, Note_on_c, 0, 58, 45
2, 4288, Note_on_c, 0, 64, 42
2, 4288, Note_on_c, 0, 66, 39
2, 4288, Note_on_c, 0, 42, 41
2, 4492, Control_c, 0, 64, 56
2, 4508, Control_c, 0, 64, 0
2, 4680, Control_c, 0, 64, 56
2, 4696, Control_c, 0, 64, 127
2, 5040, Note_off_c, 0, 42, 0
2, 5040, Note_off_c, 0, 58, 0
2, 5040, Note_off_c, 0, 64, 0
2, 5040, Note_off_c, 0, 66, 0
2, 5040, Note_off_c, 0, 73, 0
2, 5936, Note_on_c, 0, 71, 56
2, 6056, Control_c, 0, 64, 104
2, 6072, Control_c, 0, 64, 24
2, 6088, Control_c, 0, 64, 0
2, 6180, Control_c, 0, 64, 40
2, 6196, Control_c, 0, 64, 104
2, 6212, Control_c, 0, 64, 127
2, 6304, Note_off_c, 0, 71, 0
2, 6312, Note_on_c, 0, 70, 68
2, 6652, Note_off_c, 0, 70, 0
2, 6656, Note_on_c, 0, 68, 66
2, 7004, Note_off_c, 0, 68, 0
2, 7004, Note_on_c, 0, 66, 63
2, 7144, Note_off_c, 0, 66, 0
2, 7464, Note_on_c, 0, 75, 72
2, 7464, Note_on_c, 0, 63, 45
2, 7464, Note_on_c, 0, 35, 49
2, 7544, Control_c, 0, 64, 104
2, 7560, Control_c, 0, 64, 24
2, 7576, Control_c, 0, 64, 0
2, 7596, Note_off_c, 0, 35, 0
2, 7652, Control_c, 0, 64, 24
2, 7668, Control_c, 0, 64, 104
2, 7680, Control_c, 0, 64, 127
2, 7860, Note_on_c, 0, 54, 52
2, 7972, Note_off_c, 0, 75, 0
2, 7980, Note_off_c, 0, 63, 64
2, 8124, Note_off_c, 0, 54, 0
2, 8172, Note_on_c, 0, 59, 40
2, 8172, Note_on_c, 0, 63, 42
2, 8172, Note_on_c, 0, 73, 73
2, 8460, Note_off_c, 0, 73, 0
2, 8500, Note_on_c, 0, 71, 69
2, 8528, Note_off_c, 0, 59, 0
2, 8528, Note_on_c, 0, 54, 33
2, 8536, Note_off_c, 0, 63, 0
2, 8612, Note_off_c, 0, 71, 0
2, 8820, Note_off_c, 0, 54, 0
2, 8820, Note_on_c, 0, 71, 74
2, 8856, Note_on_c, 0, 64, 48
2, 8860, Note_on_c, 0, 61, 32
2, 8908, Control_c, 0, 64, 104
2, 8924, Control_c, 0, 64, 0
2, 9032, Control_c, 0, 64, 56
2, 9048, Control_c, 0, 64, 127
2, 9104, Note_off_c, 0, 71, 0
2, 9156, Note_on_c, 0, 70, 73
2, 9200, Note_on_c, 0, 54, 31
2, 9204, Note_off_c, 0, 61, 0
2, 9216, Note_off_c, 0, 64, 0
2, 9276, Note_off_c, 0, 70, 0
2, 9404, Note_on_c, 0, 70, 67
2, 9460, Note_on_c, 0, 68, 70
2, 9484, Note_off_c, 0, 70, 0
2, 9496, Note_on_c, 0, 64, 46
2, 9500, Note_on_c, 0, 59, 34
2, 9556, Control_c, 0, 64, 56
2, 9564, Note_off_c, 0, 54, 0
2, 9572, Control_c, 0, 64, 0
2, 9696, Control_c, 0, 64, 88
2, 9712, Control_c, 0, 64, 127
2, 9788, Note_on_c, 0, 66, 64
2, 9816, Note_off_c, 0, 64, 0
2, 9816, Note_on_c, 0, 58, 44
2, 9820, Note_off_c, 0, 59, 0
2, 9836, Note_off_c, 0, 68, 0
2, 9984, Note_off_c, 0, 66, 0
2, 10012, Note_off_c, 0, 58, 0
2, 10108, Note_on_c, 0, 63, 50
2, 10172, Note_on_c, 0, 47, 52
2, 10176, Note_on_c, 0, 69, 65
2, 10224, Control_c, 0, 64, 56
2, 10240, Control_c, 0, 64, 0
2, 10272, Note_on_c, 0, 78, 79
2, 10364, Control_c, 0, 64, 56
2, 10380, Control_c, 0, 64, 127
2, 10568, Note_on_c, 0, 54, 45
2, 10604, Note_off_c, 0, 47, 0
2, 10684, Note_off_c, 0, 63, 0
2, 10692, Note_off_c, 0, 78, 0
2, 10760, Note_off_c, 0, 69, 0
2, 10840, Note_on_c, 0, 78, 85
2, 10844, Note_off_c, 0, 54, 0
2, 10868, Note_on_c, 0, 59, 57
2, 11044, Note_off_c, 0, 59, 0
2, 11160, Note_on_c, 0, 60, 60
2, 11220, Note_off_c, 0, 78, 0
2, 11476, Note_off_c, 0, 60, 0
2, 11488, Note_on_c, 0, 78, 84
2, 11520, Note_on_c, 0, 63, 61
2, 11524, Note_on_c, 0, 69, 54
2, 11572, Control_c, 0, 64, 88
2, 11584, Control_c, 0, 64, 0
2, 11680, Control_c, 0, 64, 88
2, 11696, Control_c, 0, 64, 127
2, 11764, Note_off_c, 0, 63, 0
2, 11832, Note_on_c, 0, 48, 55
2, 11876, Note_off_c, 0, 69, 0
2, 11888, Note_off_c, 0, 78, 0
2, 11996, Note_off_c, 0, 48, 0
2, 12132, Note_on_c, 0, 76, 84
2, 12132, Note_on_c, 0, 49, 51
2, 12132, Note_on_c, 0, 68, 43
2, 12132, Note_on_c, 0, 64, 51
2, 12220, Control_c, 0, 64, 24
2, 12240, Control_c, 0, 64, 0
2, 12300, Note_off_c, 0, 64, 0
2, 12320, Note_off_c, 0, 76, 0
2, 12332, Control_c, 0, 64, 72
2, 12340, Note_off_c, 0, 49, 0
2, 12344, Control_c, 0, 64, 127
2, 12416, Note_off_c, 0, 68, 0
2, 12484, Note_on_c, 0, 75, 80
2, 12484, Note_on_c, 0, 66, 49
2, 12484, Note_on_c, 0, 51, 38
2, 12484, Note_on_c, 0, 59, 48
2, 12532, Control_c, 0, 64, 72
2, 12548, Control_c, 0, 64, 0
2, 12596, Control_c, 0, 64, 24
2, 12612, Control_c, 0, 64, 56
2, 12624, Control_c, 0, 64, 127
2, 12676, Note_off_c, 0, 66, 0
2, 12720, Note_off_c, 0, 75, 0
2, 12720, Note_off_c, 0, 51, 0
2, 12812, Note_on_c, 0, 75, 78
2, 12812, Note_on_c, 0, 68, 58
2, 12812, Note_on_c, 0, 52, 48
2, 12868, Note_off_c, 0, 59, 0
2, 12888, Control_c, 0, 64, 88
2, 12904, Control_c, 0, 64, 0
2, 12996, Control_c, 0, 64, 24
2, 13012, Control_c, 0, 64, 104
2, 13028, Control_c, 0, 64, 127
2, 13072, Note_off_c, 0, 52, 0
2, 13076, Note_off_c, 0, 75, 0
2, 13144, Note_on_c, 0, 59, 50
2, 13144, Note_on_c, 0, 73, 74
2, 13344, Note_off_c, 0, 73, 0
2, 13416, Note_off_c, 0, 68, 0
2, 13456, Note_on_c, 0, 76, 78
2, 13464, Note_on_c, 0, 52, 45
2, 13492, Control_c, 0, 64, 104
2, 13508, Control_c, 0, 64, 56
2, 13524, Control_c, 0, 64, 0
2, 13552, Control_c, 0, 64, 24
2, 13568, Control_c, 0, 64, 72
2, 13584, Control_c, 0, 64, 127
2, 13772, Note_off_c, 0, 52, 0
2, 13780, Note_off_c, 0, 76, 0
2, 13792, Note_on_c, 0, 68, 58
2, 13792, Note_on_c, 0, 53, 48
2, 13836, Note_off_c, 0, 53, 0
2, 13844, Note_off_c, 0, 59, 0
2, 13940, Note_off_c, 0, 68, 0
2, 13944, Note_on_c, 0, 75, 82
2, 14056, Note_off_c, 0, 75, 0
2, 14188, Note_on_c, 0, 75, 80
2, 14212, Note_on_c, 0, 64, 53
2, 14216, Note_on_c, 0, 68, 49
2, 14228, Note_on_c, 0, 59, 43
2, 14228, Note_on_c, 0, 54, 46
2, 14268, Control_c, 0, 64, 88
2, 14284, Control_c, 0, 64, 40
2, 14296, Control_c, 0, 64, 0
2, 14404, Control_c, 0, 64, 56
2, 14424, Control_c, 0, 64, 127
2, 14432, Note_off_c, 0, 68, 0
2, 14548, Note_on_c, 0, 66, 58
2, 14560, Control_c, 0, 64, 88
2, 14576, Control_c, 0, 64, 24
2, 14592, Control_c, 0, 64, 0
2, 14640, Control_c, 0, 64, 24
2, 14652, Control_c, 0, 64, 72
2, 14668, Control_c, 0, 64, 127
2, 14684, Note_off_c, 0, 75, 0
2, 14880, Note_on_c, 0, 73, 64
2, 14880, Note_on_c, 0, 58, 42
2, 14908, Note_off_c, 0, 59, 0
2, 14916, Control_c, 0, 64, 72
2, 14932, Control_c, 0, 64, 0
2, 15056, Control_c, 0, 64, 56
2, 15072, Control_c, 0, 64, 127
2, 15240, Note_on_c, 0, 63, 50
2, 15276, Note_off_c, 0, 73, 0
2, 15360, Note_off_c, 0, 64, 64
2, 15360, Note_off_c, 0, 54, 64
2, 15360, Note_off_c, 0, 66, 64
2, 15360, Note_off_c, 0, 58, 64
2, 15404, Note_on_c, 0, 71, 74
2, 15500, Note_off_c, 0, 63, 64
2, 15504, Note_off_c, 0, 71, 0
2, 15600, Note_on_c, 0, 71, 70
2, 15628, Note_on_c, 0, 61, 43
2, 15704, Control_c, 0, 64, 72
2, 15720, Control_c, 0, 64, 0
2, 15812, Control_c, 0, 64, 40
2, 15828, Control_c, 0, 64, 104
2, 15840, Control_c, 0, 64, 127
2, 15916, Note_on_c, 0, 70, 71
2, 15920, Note_off_c, 0, 71, 0
2, 15952, Note_on_c, 0, 54, 44
2, 16156, Note_off_c, 0, 61, 0
2, 16220, Note_off_c, 0, 70, 0
2, 16240, Note_off_c, 0, 54, 0
2, 16256, Note_on_c, 0, 68, 62
2, 16256, Note_on_c, 0, 59, 45
2, 16256, Note_on_c, 0, 64, 43
2, 16384, Control_c, 0, 64, 104
2, 16400, Control_c, 0, 64, 24
2, 16416, Control_c, 0, 64, 0
2, 16508, Control_c, 0, 64, 40
2, 16524, Control_c, 0, 64, 104
2, 16540, Control_c, 0, 64, 127
2, 16568, Note_off_c, 0, 59, 0
2, 16616, Note_on_c, 0, 66, 54
2, 16616, Note_on_c, 0, 58, 45
2, 16620, Note_off_c, 0, 64, 0
2, 16636, Control_c, 0, 64, 88
2, 16648, Control_c, 0, 64, 24
2, 16652, Note_off_c, 0, 68, 0
2, 16664, Control_c, 0, 64, 0
2, 16712, Control_c, 0, 64, 72
2, 16728, Control_c, 0, 64, 127
2, 16852, Note_off_c, 0, 66, 0
2, 16856, Note_off_c, 0, 58, 0
2, 17060, Note_on_c, 0, 75, 73
2, 17060, Note_on_c, 0, 35, 50
2, 17060, Note_on_c, 0, 66, 44
2, 17076, Note_on_c, 0, 63, 44
2, 17144, Control_c, 0, 64, 56
2, 17160, Note_off_c, 0, 35, 0
2, 17160, Control_c, 0, 64, 0
2, 17236, Control_c, 0, 64, 40
2, 17252, Control_c, 0, 64, 127
2, 17420, Note_on_c, 0, 54, 55
2, 17520, Note_off_c, 0, 75, 0
2, 17528, Note_off_c, 0, 63, 0
2, 17616, Note_off_c, 0, 66, 0
2, 17692, Note_off_c, 0, 54, 0
2, 17716, Note_on_c, 0, 73, 75
2, 17728, Note_on_c, 0, 59, 45
2, 17748, Note_on_c, 0, 63, 37
2, 17984, Note_off_c, 0, 73, 0
2, 18028, Note_on_c, 0, 71, 70
2, 18052, Note_off_c, 0, 59, 0
2, 18068, Note_off_c, 0, 63, 0
2, 18068, Note_on_c, 0, 54, 34
2, 18156, Note_off_c, 0, 71, 0
2, 18344, Note_off_c, 0, 54, 0
2, 18360, Note_on_c, 0, 71, 76
2, 18376, Note_on_c, 0, 61, 35
2, 18388, Note_on_c, 0, 64, 47
2, 18428, Control_c, 0, 64, 104
2, 18444, Control_c, 0, 64, 40
2, 18460, Control_c, 0, 64, 0
2, 18556, Control_c, 0, 64, 24
2, 18572, Control_c, 0, 64, 104
2, 18584, Control_c, 0, 64, 127
2, 18644, Note_off_c, 0, 71, 64
2, 18672, Note_on_c, 0, 70, 73
2, 18700, Note_on_c, 0, 54, 42
2, 18704, Note_off_c, 0, 61, 64
2, 18712, Note_off_c, 0, 64, 64
2, 18808, Note_off_c, 0, 70, 0
2, 18964, Note_on_c, 0, 70, 68
2, 19004, Note_on_c, 0, 64, 44
2, 19008, Note_on_c, 0, 59, 37
2, 19020, Control_c, 0, 64, 104
2, 19036, Control_c, 0, 64, 40
2, 19048, Control_c, 0, 64, 0
2, 19064, Note_off_c, 0, 54, 0
2, 19112, Control_c, 0, 64, 24
2, 19128, Control_c, 0, 64, 88
2, 19140, Control_c, 0, 64, 127
2, 19176, Note_on_c, 0, 68, 72
2, 19180, Note_off_c, 0, 70, 0
2, 19260, Note_off_c, 0, 64, 0
2, 19284, Note_on_c, 0, 58, 46
2, 19296, Note_off_c, 0, 59, 0
2, 19328, Note_off_c, 0, 58, 0
2, 19336, Note_off_c, 0, 68, 0
2, 19372, Note_on_c, 0, 66, 65
2, 19444, Note_off_c, 0, 66, 0
2, 19504, Note_on_c, 0, 63, 61
2, 19544, Note_off_c, 0, 63, 0
2, 19616, Note_on_c, 0, 63, 63
2, 19624, Control_c, 0, 64, 40
2, 19640, Control_c, 0, 64, 0
2, 19664, Note_on_c, 0, 35, 51
2, 19716, Note_on_c, 0, 69, 66
2, 19732, Control_c, 0, 64, 56
2, 19748, Control_c, 0, 64, 127
2, 19812, Note_off_c, 0, 35, 0
2, 19840, Note_on_c, 0, 78, 82
2, 20140, Note_on_c, 0, 47, 54
2, 20292, Note_off_c, 0, 78, 64
2, 20348, Note_off_c, 0, 63, 64
2, 20348, Note_off_c, 0, 69, 64
2, 20428, Note_on_c, 0, 78, 82
2, 20452, Note_on_c, 0, 54, 56
2, 20764, Note_on_c, 0, 59, 66
2, 20812, Note_off_c, 0, 54, 0
2, 20816, Note_off_c, 0, 47, 0
2, 20852, Note_off_c, 0, 59, 0
2, 20940, Note_off_c, 0, 78, 0
2, 21116, Note_on_c, 0, 78, 84
2, 21116, Note_on_c, 0, 69, 68
2, 21116, Note_on_c, 0, 63, 45
2, 21116, Note_on_c, 0, 40, 51
2, 21208, Control_c, 0, 64, 104
2, 21224, Control_c, 0, 64, 24
2, 21240, Control_c, 0, 64, 0
2, 21316, Control_c, 0, 64, 56
2, 21332, Control_c, 0, 64, 127
2, 21488, Note_off_c, 0, 40, 64
2, 21496, Note_on_c, 0, 60, 59
2, 21504, Note_off_c, 0, 78, 64
2, 21504, Note_off_c, 0, 69, 64
2, 21504, Note_off_c, 0, 63, 64
2, 21800, Note_off_c, 0, 60, 0
2, 21812, Note_on_c, 0, 76, 80
2, 21828, Note_on_c, 0, 64, 46
2, 21832, Note_on_c, 0, 61, 46
2, 21836, Note_on_c, 0, 68, 46
2, 21952, Control_c, 0, 64, 104
2, 21968, Control_c, 0, 64, 0
2, 22040, Note_off_c, 0, 76, 0
2, 22060, Control_c, 0, 64, 56
2, 22076, Control_c, 0, 64, 127
2, 22152, Note_off_c, 0, 68, 0
2, 22172, Note_on_c, 0, 75, 80
2, 22172, Note_on_c, 0, 71, 58
2, 22172, Note_on_c, 0, 56, 47
2, 22340, Note_off_c, 0, 71, 0
2, 22376, Note_off_c, 0, 75, 0
2, 22400, Note_off_c, 0, 56, 0
2, 22412, Note_off_c, 0, 64, 0
2, 22424, Note_off_c, 0, 61, 0
2, 22500, Note_on_c, 0, 75, 82
2, 22500, Note_on_c, 0, 68, 56
2, 22500, Note_on_c, 0, 59, 44
2, 22500, Note_on_c, 0, 52, 46
2, 22588, Control_c, 0, 64, 56
2, 22604, Control_c, 0, 64, 0
2, 22680, Control_c, 0, 64, 56
2, 22696, Control_c, 0, 64, 127
2, 22744, Note_off_c, 0, 52, 0
2, 22780, Note_off_c, 0, 75, 0
2, 22820, Note_on_c, 0, 73, 81
2, 22856, Note_on_c, 0, 53, 47
2, 22892, Note_off_c, 0, 68, 0
2, 22960, Note_off_c, 0, 59, 0
2, 23020, Note_off_c, 0, 53, 64
2, 23076, Note_off_c, 0, 73, 64
2, 23160, Note_on_c, 0, 75, 77
2, 23160, Note_on_c, 0, 66, 46
2, 23160, Note_on_c, 0, 59, 44
2, 23160, Note_on_c, 0, 54, 47
2, 23208, Control_c, 0, 64, 104
2, 23220, Control_c, 0, 64, 40
2, 23236, Control_c, 0, 64, 0
2, 23300, Control_c, 0, 64, 24
2, 23316, Control_c, 0, 64, 104
2, 23332, Control_c, 0, 64, 127
2, 23384, Note_off_c, 0, 59, 0
2, 23392, Note_off_c, 0, 54, 0
2, 23396, Note_off_c, 0, 75, 0
2, 23396, Note_off_c, 0, 66, 0
2, 23528, Note_on_c, 0, 59, 46
2, 23528, Note_on_c, 0, 56, 43
2, 23528, Note_on_c, 0, 64, 49
2, 23528, Note_on_c, 0, 71, 72
2, 23624, Control_c, 0, 64, 56
2, 23644, Control_c, 0, 64, 0
2, 23720, Control_c, 0, 64, 24
2, 23736, Control_c, 0, 64, 88
2, 23752, Control_c, 0, 64, 127
2, 23816, Note_off_c, 0, 56, 0
2, 23816, Note_off_c, 0, 71, 0
2, 23820, Note_off_c, 0, 59, 0
2, 23828, Note_off_c, 0, 64, 0
2, 23912, Note_on_c, 0, 63, 58
2, 23912, Note_on_c, 0, 54, 49
2, 24028, Control_c, 0, 64, 88
2, 24044, Control_c, 0, 64, 24
2, 24060, Control_c, 0, 64, 0
2, 24136, Control_c, 0, 64, 40
2, 24152, Control_c, 0, 64, 104
2, 24164, Control_c, 0, 64, 127
2, 24240, Note_off_c, 0, 63, 0
2, 24268, Note_on_c, 0, 68, 65
2, 24268, Note_on_c, 0, 60, 47
2, 24560, Note_off_c, 0, 60, 64
2, 24600, Note_off_c, 0, 68, 64
2, 24604, Note_on_c, 0, 64, 55
2, 24604, Note_on_c, 0, 42, 47
2, 24680, Control_c, 0, 64, 56
2, 24692, Control_c, 0, 64, 0
2, 24772, Control_c, 0, 64, 24
2, 24788, Control_c, 0, 64, 104
2, 24804, Control_c, 0, 64, 127
2, 24856, Note_off_c, 0, 64, 0
2, 24940, Note_on_c, 0, 70, 69
2, 24940, Note_on_c, 0, 61, 56
2, 24972, Note_off_c, 0, 54, 64
2, 24984, Note_off_c, 0, 42, 0
2, 25284, Note_off_c, 0, 70, 0
2, 25284, Note_off_c, 0, 61, 0
2, 25300, Note_on_c, 0, 66, 57
2, 25300, Note_on_c, 0, 54, 51
2, 25300, Note_on_c, 0, 35, 49
2, 25360, Control_c, 0, 64, 72
2, 25376, Control_c, 0, 64, 0
2, 25452, Control_c, 0, 64, 40
2, 25472, Control_c, 0, 64, 127
2, 25544, Note_off_c, 0, 54, 0
2, 25548, Note_off_c, 0, 66, 0
2, 25652, Note_off_c, 0, 35, 0
2, 25696, Note_on_c, 0, 63, 49
2, 25696, Note_on_c, 0, 71, 74
2, 26012, Control_c, 0, 64, 88
2, 26024, Control_c, 0, 64, 0
2, 26060, Note_on_c, 0, 39, 49
2, 26148, Control_c, 0, 64, 88
2, 26164, Control_c, 0, 64, 127
2, 26284, Note_off_c, 0, 71, 64
2, 26308, Note_off_c, 0, 63, 64
2, 26324, Note_off_c, 0, 39, 64
2, 26440, Note_on_c, 0, 70, 69
2, 26440, Note_on_c, 0, 55, 47
2, 26440, Note_on_c, 0, 61, 48
2, 26648, Note_off_c, 0, 61, 0
2, 26688, Note_off_c, 0, 70, 0
2, 26720, Note_off_c, 0, 55, 0
2, 26856, Note_on_c, 0, 70, 71
2, 26856, Note_on_c, 0, 59, 48
2, 26856, Note_on_c, 0, 44, 50
2, 27020, Control_c, 0, 64, 104
2, 27036, Control_c, 0, 64, 0
2, 27140, Control_c, 0, 64, 40
2, 27156, Control_c, 0, 64, 104
2, 27168, Note_off_c, 0, 59, 0
2, 27172, Control_c, 0, 64, 127
2, 27208, Note_on_c, 0, 68, 65
2, 27208, Note_on_c, 0, 51, 46
2, 27220, Note_off_c, 0, 44, 0
2, 27224, Note_off_c, 0, 70, 0
2, 27428, Note_off_c, 0, 51, 0
2, 27516, Note_off_c, 0, 68, 0
2, 27540, Note_on_c, 0, 67, 63
2, 27540, Note_on_c, 0, 58, 48
2, 27676, Note_off_c, 0, 58, 64
2, 27700, Note_off_c, 0, 67, 64
2, 27872, Note_on_c, 0, 75, 81
2, 27872, Note_on_c, 0, 60, 50
2, 27872, Note_on_c, 0, 56, 48
2, 27872, Note_on_c, 0, 66, 55
2, 28084, Note_off_c, 0, 66, 0
2, 28092, Note_off_c, 0, 60, 0
2, 28100, Note_off_c, 0, 56, 0
2, 28124, Note_off_c, 0, 75, 0
2, 28240, Note_on_c, 0, 75, 80
2, 28240, Note_on_c, 0, 64, 64
2, 28240, Note_on_c, 0, 49, 48
2, 28412, Control_c, 0, 64, 88
2, 28428, Control_c, 0, 64, 0
2, 28536, Control_c, 0, 64, 40
2, 28552, Control_c, 0, 64, 127
2, 28580, Note_on_c, 0, 68, 53
2, 28580, Note_on_c, 0, 56, 47
2, 28608, Note_off_c, 0, 75, 0
2, 28892, Note_on_c, 0, 76, 76
2, 28892, Note_on_c, 0, 61, 48
2, 28924, Note_off_c, 0, 56, 0
2, 28960, Note_off_c, 0, 68, 0
2, 29208, Note_off_c, 0, 49, 64
2, 29236, Note_on_c, 0, 70, 69
2, 29236, Note_on_c, 0, 56, 49
2, 29256, Note_off_c, 0, 61, 64
2, 29268, Note_off_c, 0, 76, 64
2, 29304, Note_off_c, 0, 64, 64
2, 29312, Note_off_c, 0, 56, 0
2, 29564, Note_off_c, 0, 70, 0
2, 29592, Note_on_c, 0, 73, 77
2, 29592, Note_on_c, 0, 44, 47
2, 29652, Control_c, 0, 64, 104
2, 29668, Control_c, 0, 64, 0
2, 29792, Control_c, 0, 64, 104
2, 29808, Control_c, 0, 64, 127
2, 29824, Note_off_c, 0, 73, 0
2, 29832, Note_on_c, 0, 71, 71
2, 29912, Note_off_c, 0, 44, 0
2, 29940, Note_on_c, 0, 51, 54
2, 29996, Note_off_c, 0, 71, 0
2, 30076, Note_on_c, 0, 75, 72
2, 30076, Note_on_c, 0, 70, 69
2, 30152, Note_off_c, 0, 70, 0
2, 30180, Note_off_c, 0, 75, 0
2, 30272, Note_on_c, 0, 75, 76
2, 30276, Note_off_c, 0, 51, 0
2, 30284, Note_on_c, 0, 59, 48
2, 30284, Note_on_c, 0, 70, 73
2, 30368, Note_off_c, 0, 59, 0
2, 30440, Note_off_c, 0, 70, 0
2, 30472, Note_on_c, 0, 68, 68
2, 30584, Note_on_c, 0, 44, 55
2, 30592, Note_off_c, 0, 68, 0
2, 30604, Note_off_c, 0, 75, 0
2, 30696, Note_on_c, 0, 66, 68
2, 30696, Note_on_c, 0, 75, 83
2, 30732, Note_off_c, 0, 44, 64
2, 30784, Note_off_c, 0, 66, 0
2, 30816, Note_off_c, 0, 75, 0
2, 30916, Note_on_c, 0, 75, 83
2, 30916, Note_on_c, 0, 64, 63
2, 30916, Note_on_c, 0, 49, 54
2, 30984, Control_c, 0, 64, 88
2, 31000, Control_c, 0, 64, 0
2, 31096, Control_c, 0, 64, 104
2, 31108, Control_c, 0, 64, 127
2, 31168, Note_off_c, 0, 75, 0
2, 31228, Note_on_c, 0, 76, 76
2, 31228, Note_on_c, 0, 56, 48
2, 31228, Note_on_c, 0, 68, 55
2, 31248, Note_off_c, 0, 49, 0
2, 31316, Note_on_c, 0, 75, 77
2, 31332, Note_off_c, 0, 64, 0
2, 31360, Note_off_c, 0, 76, 0
2, 31412, Note_on_c, 0, 74, 75
2, 31424, Note_off_c, 0, 75, 0
2, 31484, Note_off_c, 0, 68, 0
2, 31520, Note_on_c, 0, 75, 77
2, 31528, Note_off_c, 0, 74, 0
2, 31596, Note_off_c, 0, 56, 0
2, 31600, Note_off_c, 0, 75, 0
2, 31652, Note_on_c, 0, 78, 78
2, 31652, Note_on_c, 0, 68, 47
2, 31652, Note_on_c, 0, 64, 49
2, 31752, Note_off_c, 0, 64, 0
2, 31984, Note_off_c, 0, 78, 0
2, 31996, Note_on_c, 0, 70, 61
2, 31996, Note_on_c, 0, 49, 47
2, 32076, Note_off_c, 0, 49, 0
2, 32104, Note_off_c, 0, 68, 0
2, 32140, Note_on_c, 0, 76, 78
2, 32152, Note_off_c, 0, 70, 0
2, 32256, Note_off_c, 0, 76, 64
2, 32328, Note_on_c, 0, 75, 77
2, 32328, Note_on_c, 0, 44, 47
2, 32328, Note_on_c, 0, 73, 64
2, 32424, Control_c, 0, 64, 88
2, 32440, Control_c, 0, 64, 0
2, 32564, Control_c, 0, 64, 104
2, 32580, Control_c, 0, 64, 127
2, 32632, Note_off_c, 0, 73, 0
2, 32656, Note_off_c, 0, 44, 0
2, 32688, Note_on_c, 0, 71, 57
2, 32688, Note_on_c, 0, 51, 47
2, 32744, Note_off_c, 0, 75, 0
2, 32900, Note_off_c, 0, 71, 0
2, 32996, Note_off_c, 0, 51, 0
2, 33000, Note_on_c, 0, 75, 84
2, 33000, Note_on_c, 0, 49, 47
2, 33000, Note_on_c, 0, 70, 61
2, 33076, Control_c, 0, 64, 24
2, 33088, Control_c, 0, 64, 0
2, 33108, Note_off_c, 0, 70, 0
2, 33184, Control_c, 0, 64, 104
2, 33200, Control_c, 0, 64, 127
2, 33324, Note_off_c, 0, 49, 0
2, 33340, Note_on_c, 0, 68, 61
2, 33340, Note_on_c, 0, 59, 53
2, 33368, Note_off_c, 0, 75, 0
2, 33424, Note_off_c, 0, 59, 0
2, 33476, Note_on_c, 0, 77, 81
2, 33492, Note_off_c, 0, 68, 0
2, 33568, Note_off_c, 0, 77, 0
2, 33648, Note_on_c, 0, 77, 85
2, 33660, Note_on_c, 0, 73, 61
2, 33696, Note_on_c, 0, 46, 46
2, 33712, Control_c, 0, 64, 88
2, 33728, Control_c, 0, 64, 0
2, 33836, Control_c, 0, 64, 127
2, 33848, Note_off_c, 0, 77, 64
2, 33884, Note_off_c, 0, 46, 64
2, 34012, Note_off_c, 0, 73, 64
2, 34012, Note_on_c, 0, 78, 82
2, 34012, Note_on_c, 0, 61, 50
2, 34012, Note_on_c, 0, 66, 63
2, 34116, Note_off_c, 0, 78, 0
2, 34140, Note_off_c, 0, 61, 0
2, 34164, Note_off_c, 0, 66, 0
2, 34368, Note_on_c, 0, 67, 73
2, 34368, Note_on_c, 0, 47, 52
2, 34424, Control_c, 0, 64, 40
2, 34440, Control_c, 0, 64, 0
2, 34512, Note_off_c, 0, 67, 0
2, 34516, Control_c, 0, 64, 72
2, 34528, Control_c, 0, 64, 127
2, 34540, Note_on_c, 0, 68, 75
2, 34708, Note_off_c, 0, 68, 0
2, 34728, Note_on_c, 0, 73, 76
2, 34728, Note_on_c, 0, 63, 57
2, 34728, Note_on_c, 0, 54, 51
2, 34788, Note_off_c, 0, 47, 0
2, 34808, Note_off_c, 0, 54, 0
2, 34832, Note_off_c, 0, 73, 0
2, 34848, Note_off_c, 0, 63, 0
2, 34892, Note_on_c, 0, 71, 82
2, 35004, Note_off_c, 0, 71, 0
2, 35152, Control_c, 0, 64, 72
2, 35156, Note_on_c, 0, 66, 62
2, 35156, Note_on_c, 0, 37, 50
2, 35156, Note_on_c, 0, 63, 50
2, 35156, Note_on_c, 0, 70, 71
2, 35164, Note_on_c, 0, 59, 49
2, 35168, Control_c, 0, 64, 0
2, 35272, Control_c, 0, 64, 88
2, 35288, Control_c, 0, 64, 127
2, 35292, Note_off_c, 0, 37, 0
2, 35312, Note_off_c, 0, 63, 64
2, 35316, Note_off_c, 0, 59, 64
2, 35324, Note_off_c, 0, 66, 64
2, 35352, Note_off_c, 0, 70, 64
2, 35536, Note_on_c, 0, 49, 46
2, 35536, Note_on_c, 0, 75, 75
2, 35640, Note_off_c, 0, 75, 0
2, 35712, Note_on_c, 0, 73, 74
2, 35824, Note_off_c, 0, 73, 0
2, 35880, Note_off_c, 0, 49, 0
2, 35892, Note_on_c, 0, 70, 71
2, 35892, Note_on_c, 0, 59, 53
2, 35892, Note_on_c, 0, 65, 57
2, 35912, Control_c, 0, 64, 40
2, 35928, Control_c, 0, 64, 0
2, 35972, Control_c, 0, 64, 56
2, 35988, Control_c, 0, 64, 127
2, 36068, Note_on_c, 0, 73, 70
2, 36140, Note_off_c, 0, 70, 0
2, 36156, Note_off_c, 0, 59, 0
2, 36156, Note_off_c, 0, 65, 0
2, 36220, Note_off_c, 0, 73, 0
2, 36248, Note_on_c, 0, 68, 68
2, 36248, Note_on_c, 0, 49, 52
2, 36248, Note_on_c, 0, 59, 52
2, 36248, Note_on_c, 0, 63, 48
2, 36436, Note_on_c, 0, 73, 67
2, 36460, Note_off_c, 0, 49, 0
2, 36476, Note_off_c, 0, 68, 0
2, 36492, Note_off_c, 0, 59, 0
2, 36528, Note_off_c, 0, 63, 0
2, 36600, Note_off_c, 0, 73, 0
2, 36660, Note_on_c, 0, 42, 50
2, 36660, Note_on_c, 0, 66, 64
2, 36660, Note_on_c, 0, 63, 50
2, 36660, Note_on_c, 0, 59, 48
2, 36740, Control_c, 0, 64, 40
2, 36756, Control_c, 0, 64, 0
2, 36864, Control_c, 0, 64, 104
2, 36872, Note_off_c, 0, 59, 64
2, 36876, Note_off_c, 0, 63, 64
2, 36880, Control_c, 0, 64, 127
2, 37072, Note_on_c, 0, 61, 45
2, 37072, Note_on_c, 0, 54, 38
2, 37072, Note_on_c, 0, 58, 38
2, 37144, Control_c, 0, 64, 40
2, 37160, Control_c, 0, 64, 0
2, 37236, Note_off_c, 0, 61, 0
2, 37244, Note_off_c, 0, 58, 0
2, 37252, Control_c, 0, 64, 104
2, 37268, Control_c, 0, 64, 127
2, 37340, Note_off_c, 0, 42, 64
2, 37340, Note_off_c, 0, 54, 0
2, 37404, Note_off_c, 0, 66, 64
2, 37540, Note_on_c, 0, 70, 69
2, 37540, Note_on_c, 0, 66, 47
2, 37540, Note_on_c, 0, 51, 46
2, 37540, Note_on_c, 0, 61, 44
2, 37624, Control_c, 0, 64, 104
2, 37640, Control_c, 0, 64, 24
2, 37656, Control_c, 0, 64, 0
2, 37684, Note_off_c, 0, 61, 0
2, 37748, Control_c, 0, 64, 88
2, 37764, Control_c, 0, 64, 127
2, 37816, Note_off_c, 0, 51, 0
2, 37872, Note_off_c, 0, 66, 0
2, 37876, Note_off_c, 0, 70, 0
2, 37964, Note_on_c, 0, 72, 75
2, 37964, Note_on_c, 0, 56, 47
2, 37964, Note_on_c, 0, 66, 48
2, 37964, Note_on_c, 0, 63, 47
2, 38052, Note_off_c, 0, 56, 0
2, 38128, Note_off_c, 0, 63, 0
2, 38212, Note_off_c, 0, 72, 0
2, 38220, Note_off_c, 0, 66, 0
2, 38368, Note_on_c, 0, 73, 80
2, 38368, Note_on_c, 0, 37, 49
2, 38368, Note_on_c, 0, 64, 52
2, 38412, Control_c, 0, 64, 72
2, 38428, Control_c, 0, 64, 0
2, 38512, Note_off_c, 0, 37, 0
2, 38540, Control_c, 0, 64, 104
2, 38556, Control_c, 0, 64, 127
2, 38636, Note_off_c, 0, 64, 0
2, 38784, Note_on_c, 0, 68, 57
2, 38784, Note_on_c, 0, 56, 46
2, 38792, Note_off_c, 0, 73, 0
2, 38852, Note_off_c, 0, 68, 0
2, 39000, Note_on_c, 0, 68, 66
2, 39092, Note_off_c, 0, 56, 0
2, 39100, Note_on_c, 0, 80, 84
2, 39100, Note_on_c, 0, 64, 49
2, 39232, Note_off_c, 0, 68, 0
2, 39428, Note_off_c, 0, 64, 0
2, 39444, Note_on_c, 0, 56, 50
2, 39444, Note_on_c, 0, 68, 56
2, 39520, Note_off_c, 0, 56, 0
2, 39576, Note_off_c, 0, 68, 0
2, 39788, Note_on_c, 0, 66, 47
2, 39788, Note_on_c, 0, 44, 51
2, 39792, Control_c, 0, 64, 104
2, 39808, Control_c, 0, 64, 0
2, 39896, Note_off_c, 0, 44, 0
2, 39900, Control_c, 0, 64, 56
2, 39916, Control_c, 0, 64, 127
2, 39920, Note_off_c, 0, 66, 64
2, 40084, Note_off_c, 0, 80, 64
2, 40120, Note_on_c, 0, 75, 78
2, 40120, Note_on_c, 0, 56, 48
2, 40120, Note_on_c, 0, 68, 48
2, 40352, Note_off_c, 0, 75, 0
2, 40372, Note_off_c, 0, 68, 0
2, 40408, Note_off_c, 0, 56, 0
2, 40472, Note_on_c, 0, 76, 78
2, 40472, Note_on_c, 0, 66, 43
2, 40472, Note_on_c, 0, 63, 43
2, 40472, Note_on_c, 0, 72, 44
2, 40764, Note_off_c, 0, 72, 0
2, 40820, Note_off_c, 0, 66, 0
2, 40820, Note_on_c, 0, 56, 36
2, 40824, Note_off_c, 0, 63, 0
2, 40840, Note_on_c, 0, 68, 44
2, 40876, Note_off_c, 0, 76, 0
2, 40900, Note_off_c, 0, 56, 0
2, 40980, Note_on_c, 0, 78, 81
2, 41032, Note_off_c, 0, 68, 0
2, 41080, Note_off_c, 0, 78, 0
2, 41164, Note_on_c, 0, 76, 82
2, 41184, Note_on_c, 0, 73, 54
2, 41192, Note_on_c, 0, 49, 49
2, 41248, Control_c, 0, 64, 72
2, 41264, Control_c, 0, 64, 0
2, 41356, Control_c, 0, 64, 56
2, 41372, Control_c, 0, 64, 127
2, 41492, Note_off_c, 0, 76, 64
2, 41508, Note_off_c, 0, 73, 64
2, 41508, Note_on_c, 0, 56, 45
2, 41544, Note_off_c, 0, 49, 64
2, 41580, Note_off_c, 0, 56, 0
2, 41852, Note_on_c, 0, 75, 82
2, 41860, Note_on_c, 0, 60, 53
2, 41860, Note_on_c, 0, 66, 54
2, 41860, Note_on_c, 0, 44, 38
2, 41860, Control_c, 0, 64, 40
2, 41884, Control_c, 0, 64, 0
2, 41976, Control_c, 0, 64, 127
2, 42000, Note_off_c, 0, 44, 0
2, 42004, Note_off_c, 0, 60, 0
2, 42024, Note_off_c, 0, 66, 0
2, 42108, Note_off_c, 0, 75, 0
2, 42220, Note_on_c, 0, 76, 83
2, 42220, Note_on_c, 0, 56, 47
2, 42220, Note_on_c, 0, 68, 56
2, 42400, Note_off_c, 0, 76, 0
2, 42464, Note_off_c, 0, 56, 0
2, 42472, Note_off_c, 0, 68, 0
2, 42584, Note_on_c, 0, 61, 48
2, 42584, Note_on_c, 0, 73, 78
2, 42584, Note_on_c, 0, 64, 45
2, 42584, Note_on_c, 0, 49, 44
2, 42688, Control_c, 0, 64, 40
2, 42704, Control_c, 0, 64, 0
2, 42796, Control_c, 0, 64, 88
2, 42812, Control_c, 0, 64, 127
2, 42912, Note_on_c, 0, 68, 49
2, 42932, Note_on_c, 0, 56, 50
2, 42944, Note_off_c, 0, 49, 0
2, 42972, Note_off_c, 0, 73, 0
2, 43032, Note_off_c, 0, 61, 64
2, 43040, Note_off_c, 0, 56, 64
2, 43128, Note_off_c, 0, 68, 64
2, 43276, Note_on_c, 0, 76, 82
2, 43276, Note_on_c, 0, 46, 48
2, 43276, Note_on_c, 0, 73, 53
2, 43328, Control_c, 0, 64, 72
2, 43340, Control_c, 0, 64, 0
2, 43432, Control_c, 0, 64, 56
2, 43448, Control_c, 0, 64, 127
2, 43484, Note_off_c, 0, 46, 0
2, 43640, Note_on_c, 0, 68, 58
2, 43640, Note_on_c, 0, 61, 43
2, 43644, Note_off_c, 0, 76, 0
2, 43692, Note_off_c, 0, 64, 64
2, 43704, Note_off_c, 0, 61, 0
2, 43708, Note_off_c, 0, 73, 0
2, 43880, Note_off_c, 0, 68, 0
2, 44004, Note_on_c, 0, 75, 80
2, 44004, Note_on_c, 0, 39, 50
2, 44004, Note_on_c, 0, 61, 53
2, 44056, Control_c, 0, 64, 104
2, 44068, Control_c, 0, 64, 0
2, 44120, Note_off_c, 0, 39, 0
2, 44176, Note_off_c, 0, 61, 0
2, 44176, Control_c, 0, 64, 72
2, 44192, Control_c, 0, 64, 127
2, 44360, Note_on_c, 0, 63, 50
2, 44360, Note_on_c, 0, 51, 48
2, 44696, Note_off_c, 0, 51, 64
2, 44708, Note_off_c, 0, 63, 64
2, 44708, Note_on_c, 0, 67, 53
2, 44708, Note_on_c, 0, 58, 47
2, 44796, Note_off_c, 0, 75, 64
2, 44996, Note_off_c, 0, 67, 0
2, 45044, Note_on_c, 0, 73, 74
2, 45068, Note_on_c, 0, 51, 39
2, 45072, Note_on_c, 0, 63, 38
2, 45180, Note_off_c, 0, 73, 0
2, 45188, Note_off_c, 0, 58, 0
2, 45188, Note_off_c, 0, 51, 0
2, 45316, Note_off_c, 0, 63, 0
2, 45396, Note_on_c, 0, 71, 68
2, 45396, Note_on_c, 0, 44, 51
2, 45396, Note_on_c, 0, 68, 50
2, 45476, Control_c, 0, 64, 72
2, 45492, Control_c, 0, 64, 0
2, 45604, Control_c, 0, 64, 56
2, 45620, Control_c, 0, 64, 127
2, 45676, Note_off_c, 0, 71, 0
2, 45680, Note_off_c, 0, 68, 0
2, 45724, Note_on_c, 0, 70, 69
2, 45724, Note_on_c, 0, 63, 49
2, 45724, Note_on_c, 0, 51, 48
2, 45788, Note_off_c, 0, 63, 0
2, 45820, Note_off_c, 0, 70, 0
2, 46044, Note_off_c, 0, 51, 0
2, 46052, Note_on_c, 0, 56, 44
2, 46052, Note_on_c, 0, 68, 62
2, 46052, Note_on_c, 0, 59, 46
2, 46136, Control_c, 0, 64, 72
2, 46160, Control_c, 0, 64, 0
2, 46236, Control_c, 0, 64, 40
2, 46252, Control_c, 0, 64, 127
2, 46264, Note_off_c, 0, 59, 0
2, 46344, Note_off_c, 0, 68, 0
2, 46388, Note_on_c, 0, 71, 70
2, 46388, Note_on_c, 0, 63, 48
2, 46388, Note_on_c, 0, 51, 44
2, 46396, Note_off_c, 0, 56, 0
2, 46416, Note_off_c, 0, 44, 64
2, 46440, Note_off_c, 0, 51, 0
2, 46588, Note_off_c, 0, 63, 0
2, 46644, Note_off_c, 0, 71, 0
2, 46728, Note_on_c, 0, 70, 67
2, 46728, Note_on_c, 0, 67, 58
2, 46728, Note_on_c, 0, 39, 49
2, 46764, Control_c, 0, 64, 104
2, 46776, Control_c, 0, 64, 0
2, 46840, Note_off_c, 0, 39, 0
2, 46872, Control_c, 0, 64, 88
2, 46888, Control_c, 0, 64, 127
2, 46904, Note_off_c, 0, 67, 0
2, 47060, Note_off_c, 0, 70, 0
2, 47080, Note_on_c, 0, 73, 69
2, 47080, Note_on_c, 0, 51, 50
2, 47080, Note_on_c, 0, 63, 48
2, 47172, Note_off_c, 0, 63, 0
2, 47332, Note_off_c, 0, 73, 0
2, 47380, Note_off_c, 0, 51, 0
2, 47408, Note_on_c, 0, 70, 64
2, 47408, Note_on_c, 0, 61, 49
2, 47408, Note_on_c, 0, 55, 49
2, 47480, Note_off_c, 0, 61, 0
2, 47696, Note_off_c, 0, 55, 64
2, 47700, Note_off_c, 0, 70, 64
2, 47732, Note_on_c, 0, 71, 63
2, 47732, Note_on_c, 0, 63, 50
2, 47732, Note_on_c, 0, 51, 48
2, 47812, Note_off_c, 0, 63, 0
2, 47816, Note_off_c, 0, 51, 0
2, 47980, Note_off_c, 0, 71, 0
2, 48096, Note_on_c, 0, 68, 62
2, 48096, Note_on_c, 0, 39, 45
2, 48192, Control_c, 0, 64, 40
2, 48204, Control_c, 0, 64, 0
2, 48236, Note_off_c, 0, 39, 0
2, 48300, Control_c, 0, 64, 88
2, 48312, Control_c, 0, 64, 127
2, 48444, Note_off_c, 0, 68, 0
2, 48456, Note_on_c, 0, 64, 52
2, 48456, Note_on_c, 0, 50, 48
2, 48740, Note_off_c, 0, 64, 0
2, 48748, Note_off_c, 0, 50, 0
2, 48788, Note_on_c, 0, 71, 64
2, 48788, Note_on_c, 0, 56, 48
2, 48788, Note_on_c, 0, 59, 51
2, 49136, Note_off_c, 0, 59, 64
2, 49164, Note_off_c, 0, 56, 64
2, 49164, Note_on_c, 0, 64, 48
2, 49164, Note_on_c, 0, 50, 48
2, 49280, Note_off_c, 0, 50, 0
2, 49320, Note_off_c, 0, 64, 0
2, 49564, Note_on_c, 0, 39, 46
2, 49564, Note_on_c, 0, 67, 51
2, 49596, Control_c, 0, 64, 104
2, 49616, Control_c, 0, 64, 24
2, 49628, Control_c, 0, 64, 0
2, 49708, Control_c, 0, 64, 56
2, 49724, Note_off_c, 0, 39, 0
2, 49724, Control_c, 0, 64, 127
2, 49772, Note_off_c, 0, 71, 64
2, 49880, Note_off_c, 0, 67, 0
2, 49908, Note_on_c, 0, 70, 72
2, 49908, Note_on_c, 0, 63, 44
2, 49908, Note_on_c, 0, 51, 46
2, 49956, Note_off_c, 0, 63, 0
2, 50020, Note_off_c, 0, 70, 0
2, 50248, Note_on_c, 0, 55, 48
2, 50252, Note_off_c, 0, 51, 0
2, 50252, Note_on_c, 0, 75, 78
2, 50252, Note_on_c, 0, 61, 42
2, 50416, Note_off_c, 0, 61, 0
2, 50472, Note_off_c, 0, 75, 0
2, 50584, Note_on_c, 0, 73, 77
2, 50584, Note_on_c, 0, 51, 47
2, 50592, Note_off_c, 0, 55, 0
2, 50604, Note_on_c, 0, 63, 50
2, 50724, Note_off_c, 0, 73, 64
2, 50840, Note_off_c, 0, 63, 64
2, 50848, Note_off_c, 0, 51, 64
2, 50932, Note_on_c, 0, 71, 74
2, 50932, Note_on_c, 0, 68, 44
2, 50932, Note_on_c, 0, 44, 45
2, 51024, Control_c, 0, 64, 40
2, 51040, Control_c, 0, 64, 0
2, 51136, Control_c, 0, 64, 104
2, 51148, Control_c, 0, 64, 127
2, 51212, Note_off_c, 0, 71, 0
2, 51220, Note_off_c, 0, 68, 0
2, 51272, Note_on_c, 0, 63, 50
2, 51272, Note_on_c, 0, 70, 67
2, 51272, Note_on_c, 0, 51, 46
2, 51336, Note_off_c, 0, 63, 0
2, 51384, Note_off_c, 0, 70, 0
2, 51576, Note_off_c, 0, 51, 0
2, 51604, Note_on_c, 0, 56, 44
2, 51604, Note_on_c, 0, 68, 61
2, 51604, Note_on_c, 0, 59, 46
2, 51672, Control_c, 0, 64, 72
2, 51692, Control_c, 0, 64, 0
2, 51768, Control_c, 0, 64, 56
2, 51784, Control_c, 0, 64, 127
2, 51816, Note_off_c, 0, 59, 0
2, 51872, Note_off_c, 0, 68, 0
2, 51896, Note_off_c, 0, 56, 0
2, 51936, Note_on_c, 0, 71, 71
2, 51936, Note_on_c, 0, 63, 48
2, 51936, Note_on_c, 0, 53, 47
2, 51956, Note_off_c, 0, 44, 0
2, 52036, Note_off_c, 0, 53, 0
2, 52044, Note_off_c, 0, 71, 0
2, 52180, Note_off_c, 0, 63, 0
2, 52296, Note_on_c, 0, 70, 70
2, 52296, Note_on_c, 0, 39, 46
2, 52296, Note_on_c, 0, 66, 50
2, 52324, Control_c, 0, 64, 56
2, 52340, Control_c, 0, 64, 0
2, 52420, Note_off_c, 0, 39, 0
2, 52420, Control_c, 0, 64, 40
2, 52436, Control_c, 0, 64, 127
2, 52576, Note_off_c, 0, 66, 0
2, 52580, Note_off_c, 0, 70, 0
2, 52628, Note_on_c, 0, 68, 70
2, 52644, Note_on_c, 0, 63, 49
2, 52648, Note_on_c, 0, 51, 46
2, 52844, Note_off_c, 0, 63, 0
2, 52904, Note_off_c, 0, 68, 0
2, 52940, Note_off_c, 0, 51, 0
2, 52948, Note_on_c, 0, 70, 70
2, 52972, Note_on_c, 0, 54, 33
2, 52976, Note_on_c, 0, 58, 34
2, 53136, Note_off_c, 0, 58, 0
2, 53168, Note_off_c, 0, 70, 0
2, 53292, Note_on_c, 0, 71, 72
2, 53304, Note_on_c, 0, 63, 34
2, 53308, Note_on_c, 0, 51, 38
2, 53324, Note_off_c, 0, 54, 0
2, 53388, Note_off_c, 0, 51, 0
2, 53436, Note_off_c, 0, 71, 0
2, 53480, Note_off_c, 0, 63, 0
2, 53640, Note_on_c, 0, 68, 68
2, 53656, Note_on_c, 0, 65, 43
2, 53680, Note_on_c, 0, 39, 38
2, 53708, Control_c, 0, 64, 104
2, 53720, Control_c, 0, 64, 0
2, 53812, Control_c, 0, 64, 40
2, 53820, Note_off_c, 0, 39, 64
2, 53828, Control_c, 0, 64, 127
2, 53908, Note_off_c, 0, 65, 64
2, 53996, Note_on_c, 0, 63, 45
2, 53996, Note_on_c, 0, 51, 42
2, 54264, Note_off_c, 0, 51, 0
2, 54276, Note_off_c, 0, 63, 0
2, 54340, Note_off_c, 0, 68, 64
2, 54340, Note_on_c, 0, 71, 68
2, 54340, Note_on_c, 0, 59, 43
2, 54340, Note_on_c, 0, 56, 46
2, 54660, Note_off_c, 0, 56, 0
2, 54692, Note_on_c, 0, 63, 45
2, 54692, Note_on_c, 0, 51, 43
2, 54696, Note_off_c, 0, 59, 0
2, 54808, Note_off_c, 0, 51, 0
2, 54888, Note_off_c, 0, 63, 0
2, 54952, Note_off_c, 0, 71, 0
2, 55036, Control_c, 0, 64, 57
2, 55044, Note_on_c, 0, 58, 41
2, 55044, Note_on_c, 0, 66, 43
2, 55044, Note_on_c, 0, 39, 45
2, 55044, Note_on_c, 0, 70, 60
2, 55052, Control_c, 0, 64, 0
2, 55128, Control_c, 0, 64, 72
2, 55148, Control_c, 0, 64, 127
2, 55308, Note_off_c, 0, 39, 64
2, 55308, Note_off_c, 0, 58, 64
2, 55308, Note_off_c, 0, 66, 64
2, 55428, Note_on_c, 0, 58, 49
2, 55440, Note_off_c, 0, 70, 64
2, 55760, Note_off_c, 0, 58, 0
2, 55788, Note_on_c, 0, 82, 77
2, 56132, Note_on_c, 0, 58, 50
2, 56384, Note_off_c, 0, 58, 0
2, 56472, Note_on_c, 0, 62, 50
2, 56472, Note_on_c, 0, 53, 45
2, 56472, Note_on_c, 0, 51, 45
2, 56572, Control_c, 0, 64, 40
2, 56584, Control_c, 0, 64, 0
2, 56680, Control_c, 0, 64, 40
2, 56696, Control_c, 0, 64, 127
2, 56800, Note_on_c, 0, 58, 48
2, 57028, Note_off_c, 0, 58, 0
2, 57092, Note_on_c, 0, 80, 72
2, 57132, Note_off_c, 0, 82, 64
2, 57268, Note_off_c, 0, 80, 0
2, 57280, Note_on_c, 0, 78, 74
2, 57404, Note_off_c, 0, 78, 0
2, 57416, Note_off_c, 0, 53, 64
2, 57440, Note_off_c, 0, 51, 64
2, 57440, Note_on_c, 0, 77, 75
2, 57440, Note_on_c, 0, 58, 45
2, 57460, Note_off_c, 0, 62, 64
2, 57564, Note_off_c, 0, 77, 0
2, 57600, Note_on_c, 0, 80, 76
2, 57680, Note_off_c, 0, 58, 0
2, 57760, Note_on_c, 0, 78, 71
2, 57760, Note_on_c, 0, 63, 53
2, 57760, Note_on_c, 0, 54, 46
2, 57768, Note_on_c, 0, 51, 41
2, 57772, Control_c, 0, 64, 88
2, 57784, Control_c, 0, 64, 40
2, 57792, Note_off_c, 0, 80, 0
2, 57800, Control_c, 0, 64, 0
2, 57884, Control_c, 0, 64, 24
2, 57900, Note_off_c, 0, 78, 0
2, 57900, Control_c, 0, 64, 72
2, 57912, Note_on_c, 0, 77, 71
2, 57912, Control_c, 0, 64, 127
2, 58020, Note_off_c, 0, 77, 0
2, 58068, Note_on_c, 0, 75, 70
2, 58112, Note_on_c, 0, 58, 31
2, 58184, Note_off_c, 0, 75, 0
2, 58212, Note_on_c, 0, 78, 73
2, 58336, Note_off_c, 0, 78, 0
2, 58368, Note_on_c, 0, 77, 71
2, 58396, Note_off_c, 0, 58, 0
2, 58492, Note_off_c, 0, 77, 0
2, 58508, Note_on_c, 0, 75, 70
2, 58644, Note_off_c, 0, 75, 0
2, 58668, Note_on_c, 0, 73, 70
2, 58692, Note_on_c, 0, 58, 31
2, 58716, Note_off_c, 0, 54, 0
2, 58740, Note_off_c, 0, 51, 0
2, 58780, Note_off_c, 0, 73, 0
2, 58796, Note_off_c, 0, 63, 0
2, 58816, Note_on_c, 0, 77, 71
2, 58916, Note_off_c, 0, 58, 0
2, 58956, Note_off_c, 0, 77, 0
2, 58976, Note_on_c, 0, 75, 69
2, 58984, Note_on_c, 0, 63, 53
2, 58984, Control_c, 0, 64, 72
2, 58996, Note_on_c, 0, 51, 46
2, 58996, Note_on_c, 0, 56, 43
2, 59004, Control_c, 0, 64, 0
2, 59112, Control_c, 0, 64, 24
2, 59124, Note_on_c, 0, 73, 68
2, 59124, Control_c, 0, 64, 72
2, 59144, Note_off_c, 0, 75, 0
2, 59144, Control_c, 0, 64, 127
2, 59284, Note_off_c, 0, 73, 0
2, 59284, Note_on_c, 0, 71, 67
2, 59304, Note_on_c, 0, 59, 46
2, 59424, Note_off_c, 0, 71, 0
2, 59448, Note_on_c, 0, 70, 65
2, 59564, Note_off_c, 0, 59, 0
2, 59564, Note_off_c, 0, 70, 0
2, 59612, Note_on_c, 0, 71, 66
2, 59712, Note_off_c, 0, 71, 0
2, 59756, Note_on_c, 0, 73, 68
2, 59908, Note_off_c, 0, 73, 0
2, 59920, Note_on_c, 0, 75, 71
2, 59968, Note_off_c, 0, 56, 0
2, 59988, Note_on_c, 0, 59, 34
2, 60000, Note_off_c, 0, 63, 0
2, 60064, Note_off_c, 0, 75, 0
2, 60076, Note_on_c, 0, 68, 69
2, 60080, Note_off_c, 0, 51, 0
2, 60108, Note_off_c, 0, 59, 0
2, 60280, Note_off_c, 0, 68, 0
2, 60292, Note_on_c, 0, 70, 71
2, 60320, Note_on_c, 0, 54, 35
2, 60324, Note_on_c, 0, 63, 25
2, 60340, Note_on_c, 0, 51, 26
2, 60340, Control_c, 0, 64, 104
2, 60356, Control_c, 0, 64, 88
2, 60372, Control_c, 0, 64, 72
2, 60388, Control_c, 0, 64, 40
2, 60404, Control_c, 0, 64, 0
2, 60564, Control_c, 0, 64, 72
2, 60576, Control_c, 0, 64, 127
2, 60580, Note_off_c, 0, 70, 0
2, 60688, Note_on_c, 0, 58, 36
2, 60920, Note_off_c, 0, 58, 0
2, 61012, Note_on_c, 0, 82, 77
2, 61352, Note_off_c, 0, 54, 0
2, 61380, Note_on_c, 0, 58, 46
2, 61444, Note_off_c, 0, 51, 0
2, 61460, Note_off_c, 0, 63, 0
2, 61604, Note_off_c, 0, 58, 0
2, 61692, Note_on_c, 0, 62, 49
2, 61696, Note_on_c, 0, 51, 40
2, 61696, Control_c, 0, 64, 40
2, 61712, Note_on_c, 0, 53, 43
2, 61712, Control_c, 0, 64, 0
2, 61824, Control_c, 0, 64, 88
2, 61836, Control_c, 0, 64, 127
2, 61900, Note_on_c, 0, 83, 77
2, 61932, Note_off_c, 0, 82, 0
2, 62100, Note_on_c, 0, 58, 42
2, 62208, Note_off_c, 0, 83, 0
2, 62228, Note_on_c, 0, 82, 75
2, 62416, Note_off_c, 0, 82, 0
2, 62424, Note_on_c, 0, 80, 73
2, 62536, Note_off_c, 0, 80, 0
2, 62556, Note_off_c, 0, 58, 0
2, 62568, Note_on_c, 0, 78, 69
2, 62696, Note_off_c, 0, 78, 0
2, 62696, Note_on_c, 0, 80, 77
2, 62836, Note_off_c, 0, 80, 0
2, 62844, Note_on_c, 0, 82, 70
2, 62848, Note_on_c, 0, 58, 43
2, 62852, Note_off_c, 0, 53, 0
2, 62880, Note_off_c, 0, 62, 0
2, 62972, Note_off_c, 0, 82, 0
2, 62976, Note_off_c, 0, 51, 0
2, 63000, Note_on_c, 0, 77, 76
2, 63152, Note_off_c, 0, 77, 0
2, 63156, Note_off_c, 0, 58, 0
2, 63168, Note_on_c, 0, 80, 80
2, 63180, Note_on_c, 0, 63, 51
2, 63188, Note_on_c, 0, 54, 45
2, 63204, Note_on_c, 0, 51, 42
2, 63208, Control_c, 0, 64, 88
2, 63224, Control_c, 0, 64, 24
2, 63240, Control_c, 0, 64, 0
2, 63324, Note_off_c, 0, 80, 0
2, 63324, Note_on_c, 0, 78, 75
2, 63336, Control_c, 0, 64, 56
2, 63352, Control_c, 0, 64, 127
2, 63460, Note_off_c, 0, 78, 0
2, 63484, Note_on_c, 0, 80, 77
2, 63488, Note_on_c, 0, 58, 42
2, 63608, Note_off_c, 0, 80, 0
2, 63636, Note_on_c, 0, 75, 73
2, 63780, Note_off_c, 0, 75, 0
2, 63784, Note_on_c, 0, 78, 77
2, 63836, Note_off_c, 0, 58, 0
2, 63896, Note_off_c, 0, 78, 0
2, 63936, Note_on_c, 0, 77, 78
2, 64064, Note_off_c, 0, 77, 0
2, 64088, Note_on_c, 0, 78, 77
2, 64124, Note_on_c, 0, 58, 42
2, 64172, Note_off_c, 0, 51, 0
2, 64192, Note_off_c, 0, 54, 0
2, 64192, Note_off_c, 0, 78, 0
2, 64204, Note_off_c, 0, 63, 0
2, 64236, Note_on_c, 0, 73, 73
2, 64264, Note_off_c, 0, 58, 0
2, 64348, Note_off_c, 0, 73, 0
2, 64412, Note_on_c, 0, 77, 76
2, 64428, Note_on_c, 0, 63, 48
2, 64428, Note_on_c, 0, 51, 43
2, 64436, Note_on_c, 0, 56, 39
2, 64436, Control_c, 0, 64, 72
2, 64456, Control_c, 0, 64, 24
2, 64472, Control_c, 0, 64, 0
2, 64548, Note_off_c, 0, 77, 0
2, 64556, Note_on_c, 0, 75, 72
2, 64564, Control_c, 0, 64, 56
2, 64580, Control_c, 0, 64, 127
2, 64692, Note_off_c, 0, 75, 0
2, 64720, Note_on_c, 0, 77, 71
2, 64764, Note_on_c, 0, 59, 42
2, 64852, Note_off_c, 0, 77, 0
2, 64884, Note_on_c, 0, 71, 70
2, 65008, Note_off_c, 0, 71, 0
2, 65048, Note_on_c, 0, 75, 72
2, 65084, Note_off_c, 0, 59, 0
2, 65152, Note_off_c, 0, 75, 0
2, 65204, Note_on_c, 0, 70, 66
2, 65364, Note_off_c, 0, 70, 0
2, 65368, Note_on_c, 0, 75, 66
2, 65400, Note_on_c, 0, 59, 38
2, 65432, Note_off_c, 0, 56, 0
2, 65480, Note_off_c, 0, 75, 0
2, 65500, Note_off_c, 0, 63, 0
2, 65512, Note_off_c, 0, 51, 0
2, 65524, Note_on_c, 0, 68, 62
2, 65560, Note_off_c, 0, 59, 0
2, 65668, Note_off_c, 0, 68, 0
2, 65724, Note_on_c, 0, 70, 62
2, 65752, Note_on_c, 0, 54, 41
2, 65752, Note_on_c, 0, 63, 44
2, 65756, Note_on_c, 0, 51, 41
2, 65812, Control_c, 0, 64, 104
2, 65828, Control_c, 0, 64, 88
2, 65844, Control_c, 0, 64, 40
2, 65860, Control_c, 0, 64, 0
2, 66016, Control_c, 0, 64, 56
2, 66032, Control_c, 0, 64, 127
2, 66136, Note_on_c, 0, 58, 37
2, 66244, Note_off_c, 0, 70, 0
2, 66416, Note_off_c, 0, 58, 0
2, 66644, Note_off_c, 0, 51, 0
2, 66660, Note_off_c, 0, 54, 0
2, 66676, Note_off_c, 0, 63, 0
2, 66788, Note_on_c, 0, 58, 33
2, 66968, Note_off_c, 0, 58, 0
2, 67128, Note_on_c, 0, 63, 42
2, 67128, Note_on_c, 0, 56, 35
2, 67128, Note_on_c, 0, 51, 38
2, 67164, Control_c, 0, 64, 88
2, 67180, Control_c, 0, 64, 0
2, 67292, Control_c, 0, 64, 72
2, 67308, Control_c, 0, 64, 127
2, 67468, Note_on_c, 0, 78, 64
2, 67484, Note_on_c, 0, 59, 42
2, 67600, Note_off_c, 0, 78, 0
2, 67640, Note_on_c, 0, 77, 70
2, 67776, Note_off_c, 0, 59, 0
2, 67776, Note_off_c, 0, 77, 0
2, 67804, Note_on_c, 0, 75, 65
2, 67932, Note_off_c, 0, 75, 0
2, 67972, Note_on_c, 0, 70, 59
2, 68144, Note_on_c, 0, 59, 39
2, 68152, Note_on_c, 0, 75, 61
2, 68156, Note_off_c, 0, 70, 0
2, 68256, Note_off_c, 0, 56, 64
2, 68260, Note_off_c, 0, 63, 0
2, 68288, Note_off_c, 0, 75, 0
2, 68300, Note_off_c, 0, 51, 64
2, 68316, Note_on_c, 0, 68, 57
2, 68348, Note_off_c, 0, 59, 0
2, 68492, Note_off_c, 0, 68, 0
2, 68528, Note_on_c, 0, 70, 55
2, 68540, Note_on_c, 0, 51, 36
2, 68540, Note_on_c, 0, 63, 38
2, 68572, Note_on_c, 0, 54, 37
2, 68632, Control_c, 0, 64, 104
2, 68644, Control_c, 0, 64, 56
2, 68660, Control_c, 0, 64, 0
2, 68816, Control_c, 0, 64, 56
2, 68836, Control_c, 0, 64, 127
2, 68888, Note_on_c, 0, 58, 33
2, 69084, Note_off_c, 0, 58, 0
2, 69456, Note_off_c, 0, 63, 64
2, 69492, Note_on_c, 0, 58, 30
2, 69536, Note_off_c, 0, 54, 0
2, 69552, Note_off_c, 0, 51, 64
2, 69716, Note_off_c, 0, 58, 0
2, 69836, Note_on_c, 0, 71, 47
2, 69836, Note_on_c, 0, 63, 55
2, 69836, Note_on_c, 0, 56, 46
2, 69836, Note_on_c, 0, 51, 47
2, 69852, Note_off_c, 0, 70, 0
2, 69852, Control_c, 0, 64, 56
2, 69864, Control_c, 0, 64, 88
2, 69872, Control_c, 0, 64, 127
2, 69924, Note_on_c, 0, 73, 49
2, 69932, Note_off_c, 0, 71, 0
2, 70008, Note_on_c, 0, 75, 64
2, 70016, Note_off_c, 0, 73, 0
2, 70060, Note_off_c, 0, 75, 0
2, 70084, Note_on_c, 0, 77, 66
2, 70092, Note_off_c, 0, 63, 0
2, 70152, Note_off_c, 0, 77, 0
2, 70152, Note_on_c, 0, 78, 62
2, 70220, Note_on_c, 0, 80, 67
2, 70240, Note_off_c, 0, 78, 0
2, 70288, Note_on_c, 0, 82, 62
2, 70316, Note_off_c, 0, 80, 0
2, 70324, Note_off_c, 0, 82, 0
2, 70356, Note_on_c, 0, 83, 67
2, 70416, Note_off_c, 0, 83, 0
2, 70416, Note_on_c, 0, 85, 67
2, 70476, Note_off_c, 0, 56, 0
2, 70476, Note_off_c, 0, 51, 0
2, 70492, Note_on_c, 0, 87, 71
2, 70500, Note_off_c, 0, 85, 0
2, 70548, Note_off_c, 0, 87, 0
2, 70572, Note_on_c, 0, 89, 74
2, 70572, Note_on_c, 0, 65, 70
2, 70632, Note_on_c, 0, 90, 69
2, 70636, Note_off_c, 0, 89, 0
2, 70696, Note_on_c, 0, 92, 78
2, 70720, Note_off_c, 0, 90, 0
2, 70764, Note_on_c, 0, 94, 64
2, 70788, Note_off_c, 0, 92, 0
2, 70796, Note_off_c, 0, 94, 0
2, 70828, Note_off_c, 0, 65, 0
2, 70828, Note_on_c, 0, 95, 77
2, 70888, Note_off_c, 0, 95, 0
2, 70896, Note_on_c, 0, 97, 77
2, 70968, Note_on_c, 0, 99, 82
2, 70980, Note_off_c, 0, 97, 0
2, 71040, Note_off_c, 0, 99, 0
2, 71040, Note_on_c, 0, 101, 82
2, 71108, Note_on_c, 0, 99, 87
2, 71132, Note_off_c, 0, 101, 0
2, 71180, Note_on_c, 0, 97, 75
2, 71232, Note_off_c, 0, 99, 0
2, 71252, Note_off_c, 0, 97, 0
2, 71256, Note_on_c, 0, 95, 81
2, 71320, Note_on_c, 0, 94, 75
2, 71328, Note_off_c, 0, 95, 0
2, 71356, Note_on_c, 0, 66, 77
2, 71392, Note_on_c, 0, 92, 77
2, 71416, Note_off_c, 0, 94, 0
2, 71468, Note_on_c, 0, 90, 67
2, 71508, Note_off_c, 0, 92, 0
2, 71536, Note_off_c, 0, 90, 0
2, 71536, Note_on_c, 0, 89, 80
2, 71600, Note_off_c, 0, 89, 0
2, 71608, Note_on_c, 0, 87, 71
2, 71612, Note_off_c, 0, 66, 0
2, 71688, Note_on_c, 0, 85, 70
2, 71704, Note_off_c, 0, 87, 0
2, 71756, Note_off_c, 0, 85, 0
2, 71768, Note_on_c, 0, 83, 70
2, 71832, Note_off_c, 0, 83, 0
2, 71844, Note_on_c, 0, 82, 65
2, 71932, Note_on_c, 0, 80, 63
2, 71940, Note_off_c, 0, 82, 0
2, 72004, Note_on_c, 0, 78, 67
2, 72012, Note_off_c, 0, 80, 0
2, 72080, Note_off_c, 0, 78, 0
2, 72088, Note_on_c, 0, 77, 74
2, 72124, Note_on_c, 0, 59, 70
2, 72156, Note_off_c, 0, 77, 0
2, 72168, Note_on_c, 0, 75, 68
2, 72260, Note_off_c, 0, 75, 0
2, 72264, Note_on_c, 0, 73, 64
2, 72336, Note_off_c, 0, 73, 0
2, 72348, Note_on_c, 0, 71, 68
2, 72380, Note_off_c, 0, 59, 0
2, 72428, Note_off_c, 0, 71, 0
2, 72444, Note_on_c, 0, 70, 55
2, 72548, Note_off_c, 0, 70, 0
2, 72548, Note_on_c, 0, 68, 58
2, 72640, Note_off_c, 0, 68, 0
2, 72644, Note_on_c, 0, 66, 57
2, 72732, Note_off_c, 0, 66, 0
2, 72748, Note_on_c, 0, 65, 63
2, 72844, Note_off_c, 0, 65, 0
2, 72860, Note_on_c, 0, 63, 58
2, 72964, Note_off_c, 0, 63, 0
2, 72980, Note_on_c, 0, 61, 56
2, 73080, Note_off_c, 0, 61, 0
2, 73100, Note_on_c, 0, 59, 55
2, 73312, Note_on_c, 0, 58, 56
2, 73312, Note_on_c, 0, 54, 45
2, 73312, Note_on_c, 0, 46, 40
2, 73312, Note_on_c, 0, 39, 40
2, 73316, Note_off_c, 0, 59, 0
2, 73472, Control_c, 0, 64, 104
2, 73484, Control_c, 0, 64, 72
2, 73496, Control_c, 0, 64, 0
2, 74516, Note_off_c, 0, 58, 0
2, 74520, Note_off_c, 0, 39, 0
2, 74520, Note_off_c, 0, 46, 0
2, 74520, Note_off_c, 0, 54, 0
2, 75124, Note_on_c, 0, 63, 49
2, 75220, Control_c, 0, 64, 40
2, 75240, Control_c, 0, 64, 88
2, 75256, Control_c, 0, 64, 127
2, 75540, Note_on_c, 0, 66, 64
2, 75552, Note_off_c, 0, 63, 0
2, 75612, Control_c, 0, 64, 88
2, 75632, Control_c, 0, 64, 0
2, 75724, Control_c, 0, 64, 40
2, 75744, Control_c, 0, 64, 104
2, 75760, Control_c, 0, 64, 127
2, 75820, Note_off_c, 0, 66, 0
2, 76156, Note_on_c, 0, 75, 70
2, 76268, Note_off_c, 0, 75, 0
2, 76432, Note_on_c, 0, 75, 77
2, 76696, Control_c, 0, 64, 72
2, 76716, Control_c, 0, 64, 24
2, 76736, Control_c, 0, 64, 0
2, 76868, Control_c, 0, 64, 40
2, 76888, Control_c, 0, 64, 88
2, 76904, Control_c, 0, 64, 127
2, 78084, Note_off_c, 0, 75, 0
2, 78128, Note_on_c, 0, 73, 69
2, 78496, Note_off_c, 0, 73, 0
2, 78560, Note_on_c, 0, 71, 66
2, 79016, Note_on_c, 0, 64, 59
2, 79016, Note_on_c, 0, 42, 47
2, 79036, Control_c, 0, 64, 56
2, 79056, Control_c, 0, 64, 0
2, 79152, Control_c, 0, 64, 40
2, 79172, Control_c, 0, 64, 104
2, 79188, Control_c, 0, 64, 127
2, 79340, Note_off_c, 0, 71, 0
2, 79420, Note_on_c, 0, 70, 67
2, 79420, Note_on_c, 0, 54, 50
2, 79660, Note_off_c, 0, 42, 0
2, 79824, Note_on_c, 0, 68, 65
2, 79824, Note_on_c, 0, 59, 45
2, 79844, Note_off_c, 0, 70, 0
2, 80012, Control_c, 0, 64, 88
2, 80032, Control_c, 0, 64, 24
2, 80052, Control_c, 0, 64, 0
2, 80180, Control_c, 0, 64, 24
2, 80200, Control_c, 0, 64, 72
2, 80216, Note_off_c, 0, 59, 0
2, 80220, Control_c, 0, 64, 127
2, 80248, Note_on_c, 0, 58, 44
2, 80248, Note_on_c, 0, 66, 58
2, 80272, Control_c, 0, 64, 88
2, 80292, Control_c, 0, 64, 24
2, 80312, Control_c, 0, 64, 0
2, 80324, Note_off_c, 0, 68, 0
2, 80368, Note_off_c, 0, 54, 0
2, 80408, Control_c, 0, 64, 56
2, 80428, Control_c, 0, 64, 127
2, 80460, Note_off_c, 0, 64, 0
2, 80484, Note_off_c, 0, 58, 0
2, 80536, Note_off_c, 0, 66, 0
2, 80808, Note_on_c, 0, 75, 79
2, 80808, Note_on_c, 0, 47, 48
2, 80808, Note_on_c, 0, 63, 51
2, 80892, Control_c, 0, 64, 56
2, 80912, Control_c, 0, 64, 0
2, 81004, Control_c, 0, 64, 24
2, 81020, Control_c, 0, 64, 88
2, 81044, Control_c, 0, 64, 127
2, 81124, Note_off_c, 0, 47, 0
2, 81228, Note_on_c, 0, 54, 40
2, 81308, Note_off_c, 0, 63, 0
2, 81544, Note_off_c, 0, 54, 0
2, 81552, Note_off_c, 0, 75, 0
2, 81576, Note_on_c, 0, 73, 71
2, 81608, Note_on_c, 0, 59, 44
2, 81616, Note_on_c, 0, 63, 44
2, 81940, Note_off_c, 0, 73, 0
2, 81996, Note_on_c, 0, 54, 42
2, 81996, Note_on_c, 0, 71, 65
2, 82036, Note_off_c, 0, 63, 0
2, 82060, Note_off_c, 0, 59, 0
2, 82112, Note_off_c, 0, 71, 0
2, 82340, Note_off_c, 0, 54, 0
2, 82396, Note_on_c, 0, 71, 69
2, 82396, Note_on_c, 0, 61, 42
2, 82396, Note_on_c, 0, 64, 49
2, 82464, Control_c, 0, 64, 56
2, 82484, Control_c, 0, 64, 0
2, 82616, Control_c, 0, 64, 88
2, 82636, Control_c, 0, 64, 127
2, 82700, Note_off_c, 0, 71, 0
2, 82768, Note_off_c, 0, 61, 0
2, 82768, Note_on_c, 0, 70, 72
2, 82768, Note_on_c, 0, 54, 46
2, 82836, Note_off_c, 0, 64, 0
2, 82916, Note_off_c, 0, 70, 0
2, 83072, Note_on_c, 0, 70, 68
2, 83160, Note_on_c, 0, 64, 40
2, 83168, Note_on_c, 0, 68, 70
2, 83180, Note_on_c, 0, 59, 42
2, 83188, Note_off_c, 0, 54, 0
2, 83192, Note_off_c, 0, 70, 0
2, 83232, Control_c, 0, 64, 88
2, 83252, Control_c, 0, 64, 0
2, 83384, Control_c, 0, 64, 88
2, 83400, Control_c, 0, 64, 127
2, 83544, Note_off_c, 0, 64, 0
2, 83548, Note_on_c, 0, 66, 61
2, 83552, Note_on_c, 0, 58, 50
2, 83560, Note_off_c, 0, 59, 0
2, 83592, Note_off_c, 0, 58, 0
2, 83616, Note_off_c, 0, 68, 0
2, 83660, Note_off_c, 0, 66, 0
2, 84016, Note_on_c, 0, 78, 74
2, 84016, Note_on_c, 0, 69, 59
2, 84016, Note_on_c, 0, 35, 45
2, 84016, Note_on_c, 0, 63, 47
2, 84032, Control_c, 0, 64, 56
2, 84056, Control_c, 0, 64, 0
2, 84068, Note_off_c, 0, 35, 0
2, 84152, Control_c, 0, 64, 56
2, 84168, Control_c, 0, 64, 127
2, 84440, Note_on_c, 0, 54, 53
2, 84448, Note_off_c, 0, 63, 0
2, 84504, Note_off_c, 0, 78, 0
2, 84508, Note_off_c, 0, 69, 0
2, 84780, Note_off_c, 0, 54, 0
2, 84792, Note_on_c, 0, 78, 78
2, 84792, Note_on_c, 0, 59, 53
2, 85000, Note_off_c, 0, 59, 0
2, 85172, Note_on_c, 0, 60, 56
2, 85256, Note_off_c, 0, 78, 0
2, 85304, Note_off_c, 0, 60, 0
2, 85600, Note_on_c, 0, 78, 83
2, 85600, Note_on_c, 0, 63, 48
2, 85600, Note_on_c, 0, 69, 51
2, 85708, Control_c, 0, 64, 88
2, 85724, Control_c, 0, 64, 24
2, 85744, Control_c, 0, 64, 0
2, 85852, Control_c, 0, 64, 40
2, 85872, Control_c, 0, 64, 127
2, 86044, Note_on_c, 0, 48, 51
2, 86052, Note_off_c, 0, 69, 0
2, 86068, Note_off_c, 0, 63, 0
2, 86080, Note_off_c, 0, 78, 0
2, 86136, Note_off_c, 0, 48, 0
2, 86408, Note_on_c, 0, 68, 45
2, 86408, Note_on_c, 0, 49, 46
2, 86408, Note_on_c, 0, 64, 47
2, 86408, Note_on_c, 0, 76, 81
2, 86452, Control_c, 0, 64, 40
2, 86472, Control_c, 0, 64, 0
2, 86568, Control_c, 0, 64, 56
2, 86580, Note_off_c, 0, 64, 0
2, 86588, Control_c, 0, 64, 127
2, 86604, Note_off_c, 0, 76, 0
2, 86664, Note_off_c, 0, 49, 0
2, 86704, Note_off_c, 0, 68, 0
2, 86820, Note_on_c, 0, 66, 50
2, 86820, Note_on_c, 0, 75, 77
2, 86820, Note_on_c, 0, 51, 43
2, 86820, Note_on_c, 0, 59, 41
2, 86832, Control_c, 0, 64, 72
2, 86848, Control_c, 0, 64, 0
2, 86944, Control_c, 0, 64, 56
2, 86960, Control_c, 0, 64, 127
2, 86980, Note_off_c, 0, 66, 0
2, 87048, Note_off_c, 0, 75, 0
2, 87176, Note_off_c, 0, 51, 0
2, 87224, Note_on_c, 0, 75, 75
2, 87224, Note_on_c, 0, 56, 50
2, 87224, Note_on_c, 0, 64, 57
2, 87316, Control_c, 0, 64, 104
2, 87332, Control_c, 0, 64, 24
2, 87356, Control_c, 0, 64, 0
2, 87468, Control_c, 0, 64, 88
2, 87484, Note_off_c, 0, 59, 0
2, 87484, Control_c, 0, 64, 127
2, 87620, Note_on_c, 0, 59, 51
2, 87620, Note_on_c, 0, 73, 71
2, 87644, Note_off_c, 0, 75, 0
2, 87672, Control_c, 0, 64, 104
2, 87688, Control_c, 0, 64, 40
2, 87704, Note_off_c, 0, 56, 0
2, 87708, Control_c, 0, 64, 0
2, 87764, Control_c, 0, 64, 56
2, 87784, Control_c, 0, 64, 127
2, 87868, Note_off_c, 0, 73, 0
2, 88032, Note_on_c, 0, 52, 43
2, 88032, Note_on_c, 0, 68, 42
2, 88032, Note_on_c, 0, 76, 74
2, 88156, Control_c, 0, 64, 56
2, 88176, Control_c, 0, 64, 0
2, 88224, Note_off_c, 0, 52, 0
2, 88272, Control_c, 0, 64, 56
2, 88292, Control_c, 0, 64, 127
2, 88456, Note_on_c, 0, 53, 49
2, 88528, Note_off_c, 0, 59, 0
2, 88528, Note_off_c, 0, 53, 0
2, 88588, Note_off_c, 0, 76, 0
2, 88644, Note_on_c, 0, 75, 83
2, 88700, Note_off_c, 0, 68, 0
2, 88720, Note_off_c, 0, 64, 0
2, 88768, Note_off_c, 0, 75, 0
2, 88924, Note_on_c, 0, 75, 74
2, 88952, Note_on_c, 0, 64, 45
2, 88956, Note_on_c, 0, 68, 48
2, 88960, Note_on_c, 0, 59, 45
2, 88980, Note_on_c, 0, 54, 47
2, 89032, Control_c, 0, 64, 104
2, 89056, Control_c, 0, 64, 56
2, 89076, Control_c, 0, 64, 0
2, 89176, Note_off_c, 0, 68, 0
2, 89224, Control_c, 0, 64, 88
2, 89240, Control_c, 0, 64, 127
2, 89344, Note_on_c, 0, 66, 54
2, 89388, Control_c, 0, 64, 72
2, 89408, Control_c, 0, 64, 0
2, 89488, Control_c, 0, 64, 24
2, 89504, Control_c, 0, 64, 88
2, 89524, Control_c, 0, 64, 127
2, 89712, Note_off_c, 0, 75, 0
2, 89720, Note_on_c, 0, 73, 67
2, 89720, Note_on_c, 0, 58, 45
2, 89752, Note_off_c, 0, 59, 0
2, 89784, Control_c, 0, 64, 104
2, 89804, Control_c, 0, 64, 40
2, 89820, Control_c, 0, 64, 0
2, 89956, Control_c, 0, 64, 24
2, 89972, Control_c, 0, 64, 72
2, 89992, Control_c, 0, 64, 127
2, 90176, Note_on_c, 0, 63, 48
2, 90220, Note_off_c, 0, 58, 0
2, 90288, Note_off_c, 0, 73, 0
2, 90348, Note_on_c, 0, 71, 70
2, 90476, Note_off_c, 0, 71, 0
2, 90592, Note_on_c, 0, 71, 62
2, 90624, Note_off_c, 0, 54, 0
2, 90624, Note_off_c, 0, 64, 0
2, 90624, Note_off_c, 0, 66, 0
2, 90628, Note_on_c, 0, 61, 39
2, 90656, Note_off_c, 0, 63, 0
2, 90696, Control_c, 0, 64, 72
2, 90716, Control_c, 0, 64, 0
2, 90868, Control_c, 0, 64, 88
2, 90884, Control_c, 0, 64, 127
2, 90992, Note_on_c, 0, 70, 66
2, 90992, Note_on_c, 0, 54, 44
2, 91004, Note_off_c, 0, 71, 0
2, 91100, Note_off_c, 0, 61, 0
2, 91360, Note_off_c, 0, 54, 0
2, 91384, Note_off_c, 0, 70, 0
2, 91400, Note_on_c, 0, 68, 63
2, 91400, Note_on_c, 0, 64, 43
2, 91400, Note_on_c, 0, 59, 47
2, 91508, Control_c, 0, 64, 56
2, 91528, Control_c, 0, 64, 0
2, 91624, Control_c, 0, 64, 24
2, 91644, Control_c, 0, 64, 88
2, 91660, Control_c, 0, 64, 127
2, 91700, Note_on_c, 0, 70, 67
2, 91716, Control_c, 0, 64, 88
2, 91736, Control_c, 0, 64, 24
2, 91752, Control_c, 0, 64, 0
2, 91756, Note_off_c, 0, 68, 0
2, 91828, Control_c, 0, 64, 24
2, 91840, Note_off_c, 0, 59, 0
2, 91848, Control_c, 0, 64, 88
2, 91864, Control_c, 0, 64, 127
2, 91876, Note_on_c, 0, 58, 41
2, 91912, Note_off_c, 0, 64, 0
2, 92000, Note_on_c, 0, 66, 57
2, 92004, Note_off_c, 0, 58, 0
2, 92012, Note_off_c, 0, 70, 0
2, 92208, Note_off_c, 0, 66, 0
2, 92416, Note_on_c, 0, 75, 74
2, 92416, Note_on_c, 0, 35, 48
2, 92416, Note_on_c, 0, 63, 44
2, 92448, Control_c, 0, 64, 88
2, 92468, Control_c, 0, 64, 0
2, 92512, Note_off_c, 0, 35, 0
2, 92580, Control_c, 0, 64, 56
2, 92592, Control_c, 0, 64, 127
2, 92848, Note_on_c, 0, 54, 46
2, 92964, Note_off_c, 0, 63, 0
2, 93016, Note_off_c, 0, 75, 0
2, 93176, Note_on_c, 0, 73, 73
2, 93180, Note_off_c, 0, 54, 0
2, 93208, Note_on_c, 0, 63, 49
2, 93224, Note_on_c, 0, 59, 49
2, 93532, Note_off_c, 0, 73, 0
2, 93584, Note_on_c, 0, 71, 74
2, 93584, Note_on_c, 0, 54, 45
2, 93612, Note_off_c, 0, 59, 0
2, 93620, Note_off_c, 0, 63, 0
2, 93768, Note_off_c, 0, 71, 0
2, 93964, Note_off_c, 0, 54, 0
2, 94012, Note_on_c, 0, 71, 74
2, 94012, Note_on_c, 0, 64, 56
2, 94012, Note_on_c, 0, 61, 45
2, 94056, Control_c, 0, 64, 88
2, 94076, Control_c, 0, 64, 0
2, 94208, Control_c, 0, 64, 40
2, 94216, Note_off_c, 0, 71, 0
2, 94228, Note_on_c, 0, 70, 72
2, 94228, Control_c, 0, 64, 104
2, 94244, Control_c, 0, 64, 127
2, 94396, Note_off_c, 0, 70, 0
2, 94424, Note_on_c, 0, 75, 75
2, 94424, Note_on_c, 0, 54, 45
2, 94476, Note_off_c, 0, 61, 0
2, 94580, Note_off_c, 0, 75, 0
2, 94600, Note_on_c, 0, 73, 71
2, 94624, Note_off_c, 0, 64, 0
2, 94768, Note_off_c, 0, 73, 0
2, 94808, Note_off_c, 0, 54, 0
2, 94816, Note_on_c, 0, 68, 65
2, 94816, Note_on_c, 0, 64, 52
2, 94816, Note_on_c, 0, 59, 48
2, 94880, Control_c, 0, 64, 72
2, 94900, Control_c, 0, 64, 0
2, 95012, Control_c, 0, 64, 72
2, 95016, Note_off_c, 0, 68, 0
2, 95024, Note_on_c, 0, 70, 75
2, 95032, Control_c, 0, 64, 127
2, 95196, Note_off_c, 0, 59, 0
2, 95228, Note_on_c, 0, 68, 68
2, 95228, Note_on_c, 0, 58, 43
2, 95260, Note_off_c, 0, 64, 0
2, 95268, Note_off_c, 0, 70, 0
2, 95288, Note_off_c, 0, 58, 0
2, 95400, Note_off_c, 0, 68, 0
2, 95428, Note_on_c, 0, 66, 67
2, 95524, Note_off_c, 0, 66, 0
2, 95592, Note_on_c, 0, 63, 60
2, 95720, Note_on_c, 0, 35, 51
2, 95724, Control_c, 0, 64, 56
2, 95744, Control_c, 0, 64, 0
2, 95796, Note_on_c, 0, 78, 82
2, 95852, Control_c, 0, 64, 56
2, 95872, Control_c, 0, 64, 127
2, 95940, Note_off_c, 0, 35, 0
2, 96200, Note_on_c, 0, 47, 58
2, 96304, Note_off_c, 0, 78, 0
2, 96572, Note_on_c, 0, 78, 83
2, 96608, Note_on_c, 0, 54, 57
2, 96624, Note_off_c, 0, 47, 0
2, 96992, Note_off_c, 0, 54, 0
2, 97012, Note_on_c, 0, 59, 63
2, 97044, Note_off_c, 0, 63, 0
2, 97080, Note_off_c, 0, 59, 0
2, 97096, Note_off_c, 0, 78, 0
2, 97520, Note_on_c, 0, 78, 83
2, 97540, Note_on_c, 0, 63, 57
2, 97560, Note_on_c, 0, 69, 58
2, 98496, Note_off_c, 0, 69, 0
2, 98504, Note_off_c, 0, 63, 0
2, 98532, Note_off_c, 0, 78, 0
2, 99068, Note_on_c, 0, 63, 38
2, 99188, Control_c, 0, 64, 40
2, 99208, Control_c, 0, 64, 0
2, 99220, Note_on_c, 0, 69, 61
2, 99320, Control_c, 0, 64, 40
2, 99336, Control_c, 0, 64, 104
2, 99356, Control_c, 0, 64, 127
2, 99480, Note_on_c, 0, 78, 82
2, 99820, Note_off_c, 0, 63, 0
2, 99880, Note_off_c, 0, 69, 0
2, 99896, Note_on_c, 0, 48, 40
2, 99908, Note_off_c, 0, 78, 0
2, 99952, Note_off_c, 0, 48, 0
2, 100320, Note_on_c, 0, 76, 76
2, 100320, Note_on_c, 0, 64, 55
2, 100320, Note_on_c, 0, 49, 45
2, 100320, Note_on_c, 0, 68, 42
2, 100320, Note_on_c, 0, 61, 42
2, 100364, Control_c, 0, 64, 104
2, 100388, Control_c, 0, 64, 24
2, 100404, Control_c, 0, 64, 0
2, 100492, Note_off_c, 0, 64, 0
2, 100500, Control_c, 0, 64, 56
2, 100508, Note_off_c, 0, 61, 0
2, 100516, Control_c, 0, 64, 127
2, 100524, Note_off_c, 0, 76, 0
2, 100524, Note_off_c, 0, 68, 0
2, 100548, Note_off_c, 0, 49, 0
2, 100776, Note_on_c, 0, 75, 77
2, 100776, Note_on_c, 0, 51, 44
2, 100776, Note_on_c, 0, 59, 42
2, 100776, Note_on_c, 0, 68, 55
2, 100856, Control_c, 0, 64, 88
2, 100876, Control_c, 0, 64, 0
2, 100968, Control_c, 0, 64, 56
2, 100984, Control_c, 0, 64, 127
2, 101052, Note_off_c, 0, 68, 0
2, 101072, Note_off_c, 0, 75, 0
2, 101072, Note_off_c, 0, 51, 0
2, 101144, Note_off_c, 0, 59, 0
2, 101244, Note_on_c, 0, 75, 73
2, 101244, Note_on_c, 0, 59, 43
2, 101244, Note_on_c, 0, 52, 44
2, 101244, Note_on_c, 0, 68, 52
2, 101380, Control_c, 0, 64, 88
2, 101396, Control_c, 0, 64, 0
2, 101528, Control_c, 0, 64, 72
2, 101548, Control_c, 0, 64, 127
2, 101588, Note_off_c, 0, 75, 0
2, 101652, Note_on_c, 0, 73, 79
2, 101700, Note_off_c, 0, 68, 64
2, 101852, Note_off_c, 0, 52, 64
2, 101864, Note_off_c, 0, 73, 0
2, 102052, Note_on_c, 0, 66, 54
2, 102052, Note_on_c, 0, 75, 77
2, 102052, Note_on_c, 0, 51, 48
2, 102148, Control_c, 0, 64, 40
2, 102168, Control_c, 0, 64, 0
2, 102268, Note_off_c, 0, 59, 64
2, 102312, Control_c, 0, 64, 24
2, 102332, Control_c, 0, 64, 88
2, 102352, Control_c, 0, 64, 127
2, 102444, Note_off_c, 0, 51, 0
2, 102456, Note_on_c, 0, 56, 51
2, 102548, Note_off_c, 0, 75, 0
2, 102600, Note_off_c, 0, 66, 0
2, 102652, Note_on_c, 0, 71, 76
2, 102768, Note_off_c, 0, 71, 0
2, 102892, Note_on_c, 0, 71, 71
2, 102892, Note_on_c, 0, 49, 43
2, 102892, Note_on_c, 0, 64, 50
2, 103048, Control_c, 0, 64, 88
2, 103064, Control_c, 0, 64, 24
2, 103084, Control_c, 0, 64, 0
2, 103244, Note_off_c, 0, 71, 64
2, 103268, Control_c, 0, 64, 56
2, 103288, Control_c, 0, 64, 104
2, 103304, Note_on_c, 0, 70, 70
2, 103308, Control_c, 0, 64, 127
2, 103588, Note_off_c, 0, 70, 0
2, 103704, Note_on_c, 0, 71, 70
2, 103744, Note_off_c, 0, 49, 0
2, 103824, Note_off_c, 0, 56, 0
2, 103848, Note_off_c, 0, 71, 0
2, 104132, Note_on_c, 0, 68, 65
2, 104132, Note_on_c, 0, 59, 44
2, 104132, Note_on_c, 0, 50, 45
2, 104204, Control_c, 0, 64, 88
2, 104224, Control_c, 0, 64, 0
2, 104312, Note_off_c, 0, 64, 0
2, 104340, Control_c, 0, 64, 72
2, 104348, Note_off_c, 0, 50, 0
2, 104356, Note_off_c, 0, 59, 0
2, 104356, Control_c, 0, 64, 127
2, 104508, Note_off_c, 0, 68, 0
2, 104644, Note_on_c, 0, 63, 59
2, 104644, Note_on_c, 0, 60, 45
2, 104644, Note_on_c, 0, 51, 53
2, 104900, Control_c, 0, 64, 40
2, 104916, Control_c, 0, 64, 0
2, 105012, Control_c, 0, 64, 56
2, 105028, Control_c, 0, 64, 127
2, 105044, Note_off_c, 0, 60, 0
2, 105160, Note_off_c, 0, 63, 0
2, 105312, Note_off_c, 0, 51, 0
2, 105504, Note_on_c, 0, 58, 48
2, 105528, Note_on_c, 0, 39, 50
2, 105552, Control_c, 0, 64, 24
2, 105572, Control_c, 0, 64, 0
2, 105644, Note_on_c, 0, 67, 63
2, 105668, Control_c, 0, 64, 88
2, 105688, Control_c, 0, 64, 127
2, 105876, Note_on_c, 0, 73, 73
2, 105960, Note_off_c, 0, 39, 0
2, 106408, Note_off_c, 0, 58, 0
2, 106460, Note_off_c, 0, 73, 0
2, 106472, Note_off_c, 0, 67, 0
2, 107028, Note_on_c, 0, 72, 67
2, 107028, Note_on_c, 0, 39, 45
2, 107084, Control_c, 0, 64, 88
2, 107104, Control_c, 0, 64, 0
2, 107156, Note_off_c, 0, 39, 0
2, 107196, Control_c, 0, 64, 56
2, 107216, Control_c, 0, 64, 127
2, 107548, Note_on_c, 0, 61, 44
2, 107548, Note_on_c, 0, 55, 41
2, 107592, Note_off_c, 0, 55, 0
2, 107648, Note_off_c, 0, 61, 0
2, 108256, Note_on_c, 0, 61, 41
2, 108256, Note_on_c, 0, 55, 37
2, 108316, Note_off_c, 0, 55, 0
2, 108388, Note_off_c, 0, 61, 0
2, 108536, Note_off_c, 0, 72, 64
2, 108628, Note_on_c, 0, 70, 62
2, 108844, Note_off_c, 0, 70, 0
2, 108988, Note_on_c, 0, 51, 55
2, 109160, Control_c, 0, 64, 56
2, 109180, Control_c, 0, 64, 104
2, 109196, Control_c, 0, 64, 127
2, 109752, Note_on_c, 0, 39, 41
2, 109836, Note_off_c, 0, 51, 0
2, 109908, Note_off_c, 0, 39, 0
2, 109972, Note_on_c, 0, 72, 62
2, 110164, Note_on_c, 0, 68, 67
2, 110164, Note_on_c, 0, 32, 47
2, 110204, Control_c, 0, 64, 72
2, 110220, Control_c, 0, 64, 0
2, 110256, Note_off_c, 0, 32, 0
2, 110280, Note_off_c, 0, 72, 0
2, 110316, Control_c, 0, 64, 56
2, 110336, Control_c, 0, 64, 127
2, 110592, Note_on_c, 0, 51, 40
2, 110600, Note_on_c, 0, 56, 27
2, 110604, Note_on_c, 0, 60, 48
2, 110696, Note_off_c, 0, 51, 0
2, 110704, Note_off_c, 0, 60, 0
2, 110708, Note_off_c, 0, 56, 0
2, 111332, Note_on_c, 0, 51, 44
2, 111336, Note_on_c, 0, 60, 34
2, 111336, Note_on_c, 0, 56, 26
2, 111404, Note_off_c, 0, 56, 0
2, 111408, Note_off_c, 0, 60, 0
2, 111416, Note_off_c, 0, 51, 0
2, 111496, Note_off_c, 0, 68, 64
2, 111660, Note_on_c, 0, 68, 71
2, 112040, Note_on_c, 0, 60, 41
2, 112044, Note_on_c, 0, 56, 31
2, 112044, Note_on_c, 0, 52, 48
2, 112116, Control_c, 0, 64, 88
2, 112136, Control_c, 0, 64, 40
2, 112152, Control_c, 0, 64, 0
2, 112240, Note_off_c, 0, 60, 64
2, 112260, Note_off_c, 0, 56, 64
2, 112264, Control_c, 0, 64, 72
2, 112280, Note_off_c, 0, 52, 64
2, 112284, Control_c, 0, 64, 127
2, 112640, Note_on_c, 0, 44, 44
2, 112692, Note_off_c, 0, 44, 0
2, 112796, Note_on_c, 0, 67, 74
2, 112844, Note_off_c, 0, 68, 64
2, 112900, Note_off_c, 0, 67, 0
2, 112996, Note_on_c, 0, 67, 73
2, 113032, Control_c, 0, 64, 88
2, 113048, Note_on_c, 0, 32, 38
2, 113052, Control_c, 0, 64, 24
2, 113068, Control_c, 0, 64, 0
2, 113164, Note_off_c, 0, 32, 0
2, 113180, Control_c, 0, 64, 104
2, 113200, Control_c, 0, 64, 127
2, 113444, Note_on_c, 0, 61, 33
2, 113484, Note_on_c, 0, 58, 27
2, 113528, Note_on_c, 0, 53, 29
2, 113584, Note_off_c, 0, 53, 0
2, 113588, Note_off_c, 0, 61, 64
2, 113588, Note_off_c, 0, 58, 64
2, 114056, Note_on_c, 0, 61, 37
2, 114084, Note_on_c, 0, 53, 41
2, 114084, Note_on_c, 0, 58, 38
2, 114152, Note_off_c, 0, 61, 0
2, 114160, Note_off_c, 0, 53, 0
2, 114164, Note_off_c, 0, 58, 0
2, 114344, Note_off_c, 0, 67, 64
2, 114388, Note_on_c, 0, 65, 74
2, 114724, Note_on_c, 0, 44, 58
2, 114860, Note_off_c, 0, 44, 0
2, 114924, Note_on_c, 0, 69, 79
2, 114936, Note_off_c, 0, 65, 0
2, 115108, Note_on_c, 0, 70, 83
2, 115116, Note_off_c, 0, 69, 0
2, 115448, Note_off_c, 0, 70, 64
2, 115460, Note_on_c, 0, 72, 85
2, 115500, Note_on_c, 0, 37, 46
2, 115544, Note_off_c, 0, 37, 0
2, 115652, Note_off_c, 0, 72, 0
2, 115840, Note_on_c, 0, 73, 87
2, 115840, Control_c, 0, 64, 88
2, 115848, Note_on_c, 0, 32, 56
2, 115860, Control_c, 0, 64, 0
2, 115940, Note_off_c, 0, 32, 0
2, 115988, Control_c, 0, 64, 104
2, 116008, Control_c, 0, 64, 127
2, 116276, Note_on_c, 0, 61, 39
2, 116280, Note_on_c, 0, 58, 37
2, 116288, Note_on_c, 0, 53, 50
2, 116384, Note_off_c, 0, 58, 0
2, 116384, Note_off_c, 0, 53, 0
2, 116400, Note_off_c, 0, 61, 0
2, 116928, Note_on_c, 0, 61, 38
2, 116944, Note_on_c, 0, 53, 41
2, 116952, Note_on_c, 0, 58, 38
2, 117028, Note_off_c, 0, 61, 0
2, 117040, Note_off_c, 0, 53, 0
2, 117048, Note_off_c, 0, 58, 0
2, 117304, Note_on_c, 0, 77, 81
2, 117352, Note_off_c, 0, 73, 64
2, 117652, Note_on_c, 0, 44, 60
2, 118192, Note_off_c, 0, 44, 0
2, 118368, Note_on_c, 0, 37, 51
2, 118404, Note_off_c, 0, 77, 64
2, 118704, Note_off_c, 0, 37, 0
2, 118820, Note_on_c, 0, 63, 64
2, 118820, Note_on_c, 0, 31, 50
2, 118836, Control_c, 0, 64, 104
2, 118856, Control_c, 0, 64, 24
2, 118876, Control_c, 0, 64, 0
2, 118972, Note_off_c, 0, 31, 0
2, 118980, Control_c, 0, 64, 56
2, 119004, Control_c, 0, 64, 127
2, 119292, Note_on_c, 0, 61, 42
2, 119292, Note_on_c, 0, 51, 42
2, 119292, Note_on_c, 0, 58, 38
2, 119400, Note_off_c, 0, 51, 0
2, 119436, Note_off_c, 0, 58, 0
2, 119440, Note_off_c, 0, 61, 0
2, 119944, Note_on_c, 0, 51, 37
2, 119948, Note_on_c, 0, 61, 38
2, 119964, Note_on_c, 0, 58, 38
2, 120056, Note_off_c, 0, 51, 0
2, 120056, Note_off_c, 0, 58, 0
2, 120060, Note_off_c, 0, 61, 0
2, 120300, Note_on_c, 0, 73, 76
2, 120380, Note_off_c, 0, 63, 64
2, 120596, Note_off_c, 0, 73, 0
2, 120652, Note_on_c, 0, 72, 74
2, 120660, Note_on_c, 0, 51, 61
2, 120984, Note_off_c, 0, 72, 0
2, 121012, Note_on_c, 0, 70, 70
2, 121048, Note_off_c, 0, 51, 0
2, 121336, Note_off_c, 0, 70, 64
2, 121344, Note_on_c, 0, 72, 73
2, 121356, Note_on_c, 0, 51, 50
2, 121400, Note_off_c, 0, 51, 0
2, 121700, Control_c, 0, 64, 56
2, 121716, Note_off_c, 0, 72, 0
2, 121720, Control_c, 0, 64, 0
2, 121736, Note_on_c, 0, 68, 67
2, 121752, Note_on_c, 0, 44, 48
2, 121848, Control_c, 0, 64, 104
2, 121872, Control_c, 0, 64, 127
2, 121896, Note_off_c, 0, 44, 0
2, 122140, Note_on_c, 0, 60, 44
2, 122148, Note_on_c, 0, 56, 33
2, 122152, Note_on_c, 0, 53, 44
2, 122400, Note_off_c, 0, 60, 0
2, 122400, Note_off_c, 0, 56, 0
2, 122404, Note_off_c, 0, 53, 0
2, 122792, Note_on_c, 0, 56, 37
2, 122800, Note_on_c, 0, 60, 41
2, 122800, Note_on_c, 0, 51, 35
2, 122884, Note_off_c, 0, 60, 0
2, 122892, Note_off_c, 0, 56, 64
2, 122908, Note_off_c, 0, 51, 0
2, 123172, Note_off_c, 0, 68, 64
2, 123172, Note_on_c, 0, 65, 68
2, 123540, Note_on_c, 0, 60, 44
2, 123540, Note_on_c, 0, 56, 34
2, 123548, Note_on_c, 0, 50, 48
2, 123648, Control_c, 0, 64, 72
2, 123668, Control_c, 0, 64, 0
2, 123800, Control_c, 0, 64, 72
2, 123816, Control_c, 0, 64, 127
2, 123852, Note_off_c, 0, 60, 0
2, 123876, Note_off_c, 0, 56, 0
2, 123944, Note_off_c, 0, 50, 0
2, 124136, Control_c, 0, 64, 104
2, 124140, Note_on_c, 0, 51, 44
2, 124140, Note_on_c, 0, 60, 39
2, 124140, Note_on_c, 0, 56, 32
2, 124156, Control_c, 0, 64, 40
2, 124172, Control_c, 0, 64, 0
2, 124248, Control_c, 0, 64, 24
2, 124264, Control_c, 0, 64, 88
2, 124284, Control_c, 0, 64, 127
2, 124288, Note_off_c, 0, 60, 0
2, 124312, Note_off_c, 0, 56, 0
2, 124336, Note_off_c, 0, 51, 0
2, 124524, Note_off_c, 0, 65, 64
2, 124528, Note_on_c, 0, 63, 63
2, 124716, Control_c, 0, 64, 104
2, 124736, Control_c, 0, 64, 0
2, 124900, Note_on_c, 0, 39, 45
2, 124920, Control_c, 0, 64, 40
2, 124940, Control_c, 0, 64, 127
2, 125036, Note_off_c, 0, 39, 0
2, 125472, Note_off_c, 0, 63, 0
2, 125612, Note_on_c, 0, 60, 49
2, 125612, Note_on_c, 0, 51, 45
2, 125704, Note_off_c, 0, 60, 0
2, 125704, Note_off_c, 0, 51, 0
2, 126008, Note_on_c, 0, 68, 72
2, 126008, Note_on_c, 0, 58, 43
2, 126008, Note_on_c, 0, 62, 47
2, 126008, Note_on_c, 0, 51, 43
2, 126084, Control_c, 0, 64, 104
2, 126100, Control_c, 0, 64, 40
2, 126120, Control_c, 0, 64, 0
2, 126204, Note_off_c, 0, 51, 0
2, 126232, Control_c, 0, 64, 72
2, 126248, Control_c, 0, 64, 127
2, 126252, Note_off_c, 0, 58, 0
2, 126280, Note_off_c, 0, 62, 0
2, 126364, Note_off_c, 0, 68, 0
2, 126380, Note_on_c, 0, 70, 78
2, 126380, Note_on_c, 0, 51, 54
2, 126736, Note_off_c, 0, 51, 0
2, 126744, Note_off_c, 0, 70, 0
2, 126756, Note_on_c, 0, 79, 84
2, 127072, Note_off_c, 0, 79, 0
2, 127104, Note_on_c, 0, 77, 82
2, 127104, Note_on_c, 0, 51, 44
2, 127244, Note_off_c, 0, 51, 0
2, 127504, Note_on_c, 0, 63, 45
2, 127504, Note_on_c, 0, 51, 41
2, 127504, Note_on_c, 0, 58, 39
2, 127560, Control_c, 0, 64, 56
2, 127580, Control_c, 0, 64, 0
2, 127664, Note_off_c, 0, 51, 0
2, 127692, Control_c, 0, 64, 40
2, 127712, Control_c, 0, 64, 127
2, 127856, Note_on_c, 0, 67, 71
2, 127856, Note_on_c, 0, 51, 55
2, 127868, Note_off_c, 0, 77, 64
2, 128072, Note_off_c, 0, 51, 0
2, 128256, Note_on_c, 0, 77, 83
2, 128592, Note_on_c, 0, 51, 45
2, 128648, Note_off_c, 0, 58, 0
2, 128680, Note_off_c, 0, 63, 0
2, 128708, Note_off_c, 0, 51, 0
2, 128836, Note_off_c, 0, 67, 0
2, 128952, Note_on_c, 0, 61, 48
2, 128952, Note_on_c, 0, 51, 45
2, 128952, Note_on_c, 0, 55, 49
2, 129004, Control_c, 0, 64, 72
2, 129024, Control_c, 0, 64, 0
2, 129132, Note_off_c, 0, 51, 0
2, 129136, Control_c, 0, 64, 56
2, 129152, Control_c, 0, 64, 127
2, 129224, Note_off_c, 0, 55, 0
2, 129352, Note_on_c, 0, 51, 50
2, 129592, Note_off_c, 0, 51, 0
2, 129672, Note_off_c, 0, 61, 0
2, 129696, Note_on_c, 0, 75, 77
2, 129712, Note_off_c, 0, 77, 64
2, 130080, Note_on_c, 0, 73, 74
2, 130080, Note_on_c, 0, 39, 48
2, 130132, Note_off_c, 0, 75, 0
2, 130304, Note_off_c, 0, 39, 0
2, 130352, Note_off_c, 0, 73, 0
2, 130500, Control_c, 0, 64, 72
2, 130520, Control_c, 0, 64, 0
2, 130532, Note_on_c, 0, 72, 74
2, 130532, Note_on_c, 0, 40, 52
2, 130648, Control_c, 0, 64, 104
2, 130668, Control_c, 0, 64, 127
2, 130700, Note_off_c, 0, 40, 0
2, 130964, Note_on_c, 0, 58, 42
2, 130964, Note_on_c, 0, 55, 39
2, 130964, Note_on_c, 0, 48, 44
2, 131008, Note_off_c, 0, 55, 0
2, 131012, Note_off_c, 0, 48, 0
2, 131104, Note_off_c, 0, 58, 0
2, 131696, Note_on_c, 0, 58, 43
2, 131696, Note_on_c, 0, 48, 39
2, 131696, Note_on_c, 0, 55, 43
2, 131804, Note_off_c, 0, 48, 0
2, 131812, Note_off_c, 0, 58, 0
2, 131812, Note_off_c, 0, 55, 0
2, 132052, Control_c, 0, 64, 40
2, 132068, Note_on_c, 0, 58, 44
2, 132068, Note_on_c, 0, 53, 54
2, 132068, Note_on_c, 0, 48, 44
2, 132076, Control_c, 0, 64, 0
2, 132168, Control_c, 0, 64, 56
2, 132188, Control_c, 0, 64, 127
2, 132200, Note_off_c, 0, 53, 0
2, 132204, Note_off_c, 0, 48, 0
2, 132204, Note_off_c, 0, 58, 0
2, 132436, Note_off_c, 0, 72, 64
2, 132448, Note_on_c, 0, 73, 73
2, 132448, Note_on_c, 0, 58, 43
2, 132448, Note_on_c, 0, 48, 53
2, 132448, Note_on_c, 0, 53, 43
2, 132492, Note_off_c, 0, 53, 0
2, 132536, Note_off_c, 0, 58, 0
2, 132552, Note_off_c, 0, 48, 0
2, 132824, Note_off_c, 0, 73, 0
2, 132824, Note_on_c, 0, 65, 75
2, 133188, Note_off_c, 0, 65, 0
2, 133196, Note_on_c, 0, 73, 75
2, 133196, Note_on_c, 0, 41, 50
2, 133364, Note_off_c, 0, 41, 0
2, 133548, Control_c, 0, 64, 56
2, 133568, Note_off_c, 0, 73, 64
2, 133568, Control_c, 0, 64, 0
2, 133576, Note_on_c, 0, 64, 66
2, 133576, Note_on_c, 0, 43, 58
2, 133644, Note_off_c, 0, 43, 0
2, 133684, Control_c, 0, 64, 104
2, 133704, Control_c, 0, 64, 127
2, 133940, Note_on_c, 0, 73, 74
2, 133940, Note_on_c, 0, 58, 41
2, 133940, Note_on_c, 0, 48, 51
2, 133940, Note_on_c, 0, 55, 40
2, 133964, Note_off_c, 0, 64, 0
2, 133984, Note_off_c, 0, 48, 0
2, 133984, Note_off_c, 0, 55, 0
2, 134024, Note_off_c, 0, 58, 0
2, 134260, Note_off_c, 0, 73, 0
2, 134308, Note_on_c, 0, 72, 72
2, 134688, Note_on_c, 0, 58, 40
2, 134688, Note_on_c, 0, 55, 41
2, 134688, Note_on_c, 0, 48, 45
2, 134732, Note_off_c, 0, 55, 0
2, 134756, Note_off_c, 0, 58, 0
2, 134824, Note_off_c, 0, 48, 0
2, 134844, Note_off_c, 0, 72, 0
2, 135052, Note_on_c, 0, 63, 63
2, 135052, Note_on_c, 0, 48, 52
2, 135052, Note_on_c, 0, 55, 48
2, 135052, Note_on_c, 0, 57, 45
2, 135092, Control_c, 0, 64, 88
2, 135104, Control_c, 0, 64, 0
2, 135220, Control_c, 0, 64, 56
2, 135240, Control_c, 0, 64, 127
2, 135444, Note_off_c, 0, 48, 64
2, 135448, Note_on_c, 0, 69, 75
2, 135448, Note_on_c, 0, 57, 44
2, 135448, Note_on_c, 0, 48, 51
2, 135448, Note_on_c, 0, 55, 44
2, 135452, Note_off_c, 0, 55, 64
2, 135452, Note_off_c, 0, 63, 64
2, 135460, Note_off_c, 0, 57, 64
2, 135500, Note_off_c, 0, 55, 0
2, 135516, Note_off_c, 0, 48, 0
2, 135544, Note_off_c, 0, 57, 0
2, 135768, Note_off_c, 0, 69, 0
2, 135796, Note_on_c, 0, 72, 83
2, 136144, Note_on_c, 0, 43, 53
2, 136144, Note_on_c, 0, 75, 81
2, 136172, Note_off_c, 0, 72, 0
2, 136252, Note_off_c, 0, 43, 0
2, 136484, Note_off_c, 0, 75, 0
2, 136512, Control_c, 0, 64, 88
2, 136532, Note_on_c, 0, 74, 82
2, 136532, Control_c, 0, 64, 0
2, 136556, Note_on_c, 0, 42, 57
2, 136644, Control_c, 0, 64, 56
2, 136660, Control_c, 0, 64, 127
2, 136724, Note_off_c, 0, 42, 64
2, 136928, Note_on_c, 0, 60, 53
2, 136928, Note_on_c, 0, 57, 44
2, 136928, Note_on_c, 0, 50, 47
2, 137012, Note_off_c, 0, 50, 0
2, 137024, Note_off_c, 0, 57, 0
2, 137044, Note_off_c, 0, 60, 0
2, 137628, Note_on_c, 0, 60, 59
2, 137628, Note_on_c, 0, 57, 53
2, 137628, Note_on_c, 0, 50, 53
2, 137684, Note_off_c, 0, 50, 0
2, 137736, Note_off_c, 0, 60, 0
2, 137740, Note_off_c, 0, 57, 0
2, 138008, Note_on_c, 0, 60, 59
2, 138008, Note_on_c, 0, 50, 57
2, 138008, Note_on_c, 0, 55, 59
2, 138008, Control_c, 0, 64, 24
2, 138028, Control_c, 0, 64, 0
2, 138120, Control_c, 0, 64, 72
2, 138132, Note_off_c, 0, 50, 0
2, 138140, Control_c, 0, 64, 127
2, 138148, Note_off_c, 0, 60, 0
2, 138152, Note_off_c, 0, 55, 0
2, 138372, Note_on_c, 0, 75, 82
2, 138400, Note_on_c, 0, 60, 52
2, 138404, Note_on_c, 0, 55, 46
2, 138408, Note_off_c, 0, 74, 64
2, 138416, Note_on_c, 0, 50, 52
2, 138476, Note_off_c, 0, 50, 0
2, 138480, Note_off_c, 0, 60, 0
2, 138496, Note_off_c, 0, 55, 0
2, 138704, Note_off_c, 0, 75, 0
2, 138732, Note_on_c, 0, 67, 78
2, 139084, Note_on_c, 0, 75, 79
2, 139096, Note_on_c, 0, 43, 54
2, 139104, Note_off_c, 0, 67, 0
2, 139252, Note_off_c, 0, 43, 0
2, 139432, Note_off_c, 0, 75, 0
2, 139460, Note_on_c, 0, 66, 70
2, 139472, Control_c, 0, 64, 56
2, 139488, Control_c, 0, 64, 0
2, 139496, Note_on_c, 0, 45, 63
2, 139604, Control_c, 0, 64, 104
2, 139620, Control_c, 0, 64, 127
2, 139624, Note_off_c, 0, 45, 0
2, 139840, Note_on_c, 0, 75, 77
2, 139872, Note_on_c, 0, 60, 58
2, 139892, Note_on_c, 0, 57, 36
2, 139908, Note_off_c, 0, 66, 64
2, 139928, Note_on_c, 0, 50, 48
2, 139976, Note_off_c, 0, 50, 0
2, 140000, Note_off_c, 0, 60, 0
2, 140008, Note_off_c, 0, 57, 0
2, 140132, Note_off_c, 0, 75, 0
2, 140212, Note_on_c, 0, 74, 82
2, 140536, Note_on_c, 0, 60, 60
2, 140544, Note_on_c, 0, 50, 57
2, 140544, Note_on_c, 0, 57, 53
2, 140644, Note_off_c, 0, 60, 0
2, 140648, Note_off_c, 0, 57, 0
2, 140652, Note_off_c, 0, 50, 0
2, 140872, Note_off_c, 0, 74, 0
2, 140908, Note_on_c, 0, 65, 75
2, 140932, Note_on_c, 0, 59, 53
2, 140932, Note_on_c, 0, 50, 55
2, 140932, Control_c, 0, 64, 56
2, 140940, Note_on_c, 0, 57, 48
2, 140952, Control_c, 0, 64, 0
2, 141064, Control_c, 0, 64, 104
2, 141072, Note_off_c, 0, 50, 0
2, 141076, Note_off_c, 0, 59, 0
2, 141080, Note_off_c, 0, 57, 0
2, 141080, Control_c, 0, 64, 127
2, 141272, Note_off_c, 0, 65, 64
2, 141288, Note_on_c, 0, 71, 81
2, 141300, Note_on_c, 0, 59, 58
2, 141312, Note_on_c, 0, 57, 49
2, 141312, Note_on_c, 0, 50, 51
2, 141364, Note_off_c, 0, 50, 0
2, 141388, Note_off_c, 0, 59, 0
2, 141396, Note_off_c, 0, 57, 0
2, 141596, Note_off_c, 0, 71, 0
2, 141612, Note_on_c, 0, 74, 84
2, 141980, Note_on_c, 0, 77, 85
2, 141988, Note_on_c, 0, 45, 63
2, 142028, Note_off_c, 0, 74, 0
2, 142080, Note_off_c, 0, 45, 0
2, 142392, Note_on_c, 0, 76, 86
2, 142392, Note_on_c, 0, 44, 61
2, 142392, Control_c, 0, 64, 24
2, 142412, Control_c, 0, 64, 0
2, 142420, Note_off_c, 0, 77, 0
2, 142520, Control_c, 0, 64, 72
2, 142540, Control_c, 0, 64, 127
2, 142560, Note_off_c, 0, 44, 0
2, 142800, Note_on_c, 0, 62, 59
2, 142808, Note_on_c, 0, 52, 57
2, 142872, Note_off_c, 0, 52, 0
2, 142908, Note_off_c, 0, 62, 0
2, 143544, Note_on_c, 0, 62, 44
2, 143556, Note_on_c, 0, 52, 53
2, 143604, Note_off_c, 0, 62, 0
2, 143636, Note_off_c, 0, 52, 0
2, 143868, Control_c, 0, 64, 104
2, 143888, Control_c, 0, 64, 0
2, 143932, Note_on_c, 0, 45, 63
2, 144004, Control_c, 0, 64, 56
2, 144020, Control_c, 0, 64, 127
2, 144084, Note_off_c, 0, 45, 0
2, 144332, Note_off_c, 0, 76, 64
2, 144332, Note_on_c, 0, 77, 79
2, 144344, Note_on_c, 0, 60, 40
2, 144348, Note_on_c, 0, 52, 41
2, 144488, Note_off_c, 0, 60, 0
2, 144496, Note_off_c, 0, 52, 0
2, 144728, Note_on_c, 0, 72, 79
2, 144736, Note_off_c, 0, 77, 0
2, 145100, Note_off_c, 0, 72, 0
2, 145100, Note_on_c, 0, 74, 81
2, 145128, Note_on_c, 0, 60, 42
2, 145128, Note_on_c, 0, 52, 55
2, 145172, Note_off_c, 0, 52, 0
2, 145180, Note_off_c, 0, 60, 0
2, 145460, Note_off_c, 0, 74, 0
2, 145500, Control_c, 0, 64, 56
2, 145504, Note_on_c, 0, 76, 77
2, 145520, Control_c, 0, 64, 0
2, 145532, Note_on_c, 0, 44, 52
2, 145628, Control_c, 0, 64, 104
2, 145648, Control_c, 0, 64, 127
2, 145716, Note_off_c, 0, 44, 0
2, 145920, Note_on_c, 0, 52, 45
2, 145928, Note_on_c, 0, 64, 33
2, 145936, Note_on_c, 0, 59, 40
2, 146060, Note_off_c, 0, 52, 0
2, 146112, Note_off_c, 0, 64, 0
2, 146124, Note_off_c, 0, 59, 0
2, 146304, Note_on_c, 0, 71, 65
2, 146328, Note_off_c, 0, 76, 64
2, 146732, Note_on_c, 0, 64, 51
2, 146732, Note_on_c, 0, 59, 37
2, 146732, Note_on_c, 0, 52, 41
2, 146828, Note_off_c, 0, 52, 0
2, 146832, Note_off_c, 0, 64, 0
2, 146836, Note_off_c, 0, 59, 0
2, 147132, Control_c, 0, 64, 40
2, 147148, Control_c, 0, 64, 0
2, 147168, Note_on_c, 0, 43, 57
2, 147172, Note_on_c, 0, 73, 70
2, 147224, Note_off_c, 0, 71, 0
2, 147236, Control_c, 0, 64, 72
2, 147260, Control_c, 0, 64, 127
2, 147316, Note_off_c, 0, 73, 0
2, 147328, Note_on_c, 0, 74, 67
2, 147344, Note_off_c, 0, 43, 0
2, 147420, Note_off_c, 0, 74, 64
2, 147436, Note_on_c, 0, 73, 67
2, 147516, Note_off_c, 0, 73, 0
2, 147520, Note_on_c, 0, 74, 70
2, 147556, Note_on_c, 0, 64, 56
2, 147568, Note_on_c, 0, 52, 52
2, 147580, Note_on_c, 0, 58, 43
2, 147600, Note_off_c, 0, 74, 0
2, 147608, Note_on_c, 0, 73, 61
2, 147692, Note_off_c, 0, 73, 0
2, 147692, Note_on_c, 0, 74, 71
2, 147772, Note_off_c, 0, 74, 0
2, 147780, Note_on_c, 0, 73, 66
2, 147856, Note_off_c, 0, 73, 0
2, 147856, Note_on_c, 0, 74, 68
2, 147860, Note_off_c, 0, 52, 0
2, 147924, Note_off_c, 0, 58, 0
2, 147928, Note_off_c, 0, 64, 0
2, 147936, Note_off_c, 0, 74, 0
2, 147936, Note_on_c, 0, 73, 66
2, 148012, Note_on_c, 0, 74, 73
2, 148016, Note_off_c, 0, 73, 0
2, 148104, Note_off_c, 0, 74, 0
2, 148112, Note_on_c, 0, 73, 67
2, 148176, Note_on_c, 0, 74, 80
2, 148188, Note_off_c, 0, 73, 0
2, 148272, Note_off_c, 0, 74, 0
2, 148272, Note_on_c, 0, 73, 64
2, 148312, Note_on_c, 0, 64, 63
2, 148316, Note_on_c, 0, 58, 49
2, 148336, Note_on_c, 0, 52, 42
2, 148348, Note_on_c, 0, 74, 76
2, 148360, Note_off_c, 0, 73, 0
2, 148376, Note_off_c, 0, 64, 0
2, 148408, Note_off_c, 0, 52, 0
2, 148412, Note_off_c, 0, 58, 0
2, 148476, Note_on_c, 0, 73, 77
2, 148532, Note_off_c, 0, 74, 0
2, 148604, Note_off_c, 0, 73, 0
2, 148632, Note_on_c, 0, 72, 73
2, 148748, Note_on_c, 0, 73, 75
2, 148752, Note_off_c, 0, 72, 0
2, 148876, Note_off_c, 0, 73, 0
2, 148904, Note_on_c, 0, 74, 82
2, 148904, Note_on_c, 0, 41, 56
2, 148920, Control_c, 0, 64, 88
2, 148948, Control_c, 0, 64, 0
2, 149076, Control_c, 0, 64, 56
2, 149100, Note_off_c, 0, 41, 64
2, 149100, Control_c, 0, 64, 127
2, 149308, Note_on_c, 0, 75, 81
2, 149308, Note_on_c, 0, 65, 41
2, 149308, Note_on_c, 0, 53, 40
2, 149308, Note_on_c, 0, 58, 38
2, 149328, Note_off_c, 0, 74, 64
2, 149388, Note_off_c, 0, 53, 0
2, 149416, Note_off_c, 0, 65, 0
2, 149416, Note_off_c, 0, 58, 0
2, 149672, Note_on_c, 0, 79, 80
2, 149712, Note_off_c, 0, 75, 0
2, 150024, Note_off_c, 0, 79, 0
2, 150032, Note_on_c, 0, 77, 81
2, 150032, Note_on_c, 0, 65, 44
2, 150032, Note_on_c, 0, 58, 40
2, 150032, Note_on_c, 0, 53, 43
2, 150124, Note_off_c, 0, 65, 0
2, 150132, Note_off_c, 0, 53, 0
2, 150156, Note_off_c, 0, 58, 0
2, 150416, Note_on_c, 0, 63, 40
2, 150428, Note_off_c, 0, 77, 0
2, 150428, Note_on_c, 0, 74, 81
2, 150428, Note_on_c, 0, 53, 44
2, 150428, Note_on_c, 0, 57, 43
2, 150464, Control_c, 0, 64, 40
2, 150484, Control_c, 0, 64, 0
2, 150576, Control_c, 0, 64, 24
2, 150580, Note_off_c, 0, 53, 64
2, 150584, Note_off_c, 0, 57, 64
2, 150596, Control_c, 0, 64, 104
2, 150600, Note_off_c, 0, 63, 64
2, 150612, Control_c, 0, 64, 127
2, 150744, Note_off_c, 0, 74, 64
2, 150776, Note_on_c, 0, 75, 73
2, 150776, Note_on_c, 0, 63, 38
2, 150776, Note_on_c, 0, 57, 41
2, 150776, Note_on_c, 0, 53, 41
2, 150904, Note_off_c, 0, 53, 0
2, 150908, Note_off_c, 0, 57, 0
2, 150928, Note_off_c, 0, 63, 0
2, 151120, Note_off_c, 0, 75, 0
2, 151148, Note_on_c, 0, 70, 71
2, 151416, Note_off_c, 0, 70, 0
2, 151508, Note_on_c, 0, 72, 79
2, 151508, Note_on_c, 0, 57, 42
2, 151508, Note_on_c, 0, 63, 47
2, 151600, Note_off_c, 0, 57, 0
2, 151600, Note_off_c, 0, 63, 0
2, 151892, Note_off_c, 0, 72, 0
2, 151904, Control_c, 0, 64, 104
2, 151924, Control_c, 0, 64, 24
2, 151928, Note_on_c, 0, 74, 74
2, 151928, Note_on_c, 0, 41, 53
2, 151944, Control_c, 0, 64, 0
2, 152056, Control_c, 0, 64, 104
2, 152072, Control_c, 0, 64, 127
2, 152084, Note_off_c, 0, 41, 64
2, 152376, Note_on_c, 0, 62, 33
2, 152376, Note_on_c, 0, 53, 33
2, 152376, Note_on_c, 0, 57, 34
2, 152556, Note_off_c, 0, 53, 0
2, 152556, Note_off_c, 0, 57, 0
2, 152568, Note_off_c, 0, 62, 0
2, 152700, Note_off_c, 0, 74, 64
2, 152708, Note_on_c, 0, 69, 66
2, 153096, Note_on_c, 0, 62, 40
2, 153096, Note_on_c, 0, 53, 38
2, 153096, Note_on_c, 0, 57, 38
2, 153144, Note_on_c, 0, 53, 28
2, 153208, Control_c, 0, 64, 56
2, 153212, Note_off_c, 0, 53, 0
2, 153288, Note_off_c, 0, 62, 0
2, 153292, Note_off_c, 0, 57, 0
2, 153292, Note_off_c, 0, 53, 0
2, 153444, Note_off_c, 0, 69, 0
2, 153468, Control_c, 0, 64, 24
2, 153484, Control_c, 0, 64, 0
2, 153500, Note_on_c, 0, 71, 69
2, 153516, Note_on_c, 0, 53, 41
2, 153516, Note_on_c, 0, 62, 36
2, 153516, Note_on_c, 0, 56, 45
2, 153604, Control_c, 0, 64, 56
2, 153624, Note_on_c, 0, 73, 66
2, 153624, Control_c, 0, 64, 104
2, 153640, Note_off_c, 0, 71, 64
2, 153652, Control_c, 0, 64, 127
2, 153712, Note_off_c, 0, 53, 64
2, 153728, Note_off_c, 0, 73, 0
2, 153744, Note_off_c, 0, 62, 64
2, 153752, Note_on_c, 0, 71, 65
2, 153780, Note_off_c, 0, 56, 64
2, 153848, Note_off_c, 0, 71, 0
2, 153876, Note_on_c, 0, 73, 70
2, 153916, Control_c, 0, 64, 104
2, 153936, Control_c, 0, 64, 56
2, 153956, Control_c, 0, 64, 0
2, 153960, Note_on_c, 0, 52, 42
2, 153960, Note_on_c, 0, 71, 64
2, 153960, Note_on_c, 0, 62, 38
2, 153960, Note_on_c, 0, 56, 35
2, 153964, Note_off_c, 0, 73, 0
2, 153992, Control_c, 0, 64, 24
2, 154012, Control_c, 0, 64, 56
2, 154028, Control_c, 0, 64, 104
2, 154048, Control_c, 0, 64, 127
2, 154060, Note_off_c, 0, 71, 0
2, 154060, Note_on_c, 0, 73, 66
2, 154160, Note_off_c, 0, 73, 0
2, 154164, Note_on_c, 0, 71, 65
2, 154192, Note_off_c, 0, 52, 0
2, 154248, Note_off_c, 0, 62, 0
2, 154248, Note_off_c, 0, 71, 0
2, 154252, Note_on_c, 0, 73, 67
2, 154300, Note_off_c, 0, 56, 0
2, 154332, Note_off_c, 0, 73, 0
2, 154332, Note_on_c, 0, 71, 64
2, 154416, Note_off_c, 0, 71, 0
2, 154416, Note_on_c, 0, 73, 68
2, 154508, Note_off_c, 0, 73, 0
2, 154508, Note_on_c, 0, 71, 68
2, 154584, Note_on_c, 0, 72, 67
2, 154596, Note_off_c, 0, 71, 0
2, 154684, Note_on_c, 0, 71, 64
2, 154688, Note_off_c, 0, 72, 0
2, 154772, Note_on_c, 0, 72, 62
2, 154772, Note_on_c, 0, 62, 43
2, 154772, Note_on_c, 0, 56, 39
2, 154772, Note_on_c, 0, 52, 42
2, 154784, Note_off_c, 0, 71, 0
2, 154824, Note_off_c, 0, 62, 0
2, 154856, Note_on_c, 0, 71, 63
2, 154864, Note_off_c, 0, 72, 0
2, 154872, Note_off_c, 0, 56, 0
2, 154884, Note_off_c, 0, 52, 0
2, 154932, Note_on_c, 0, 72, 64
2, 154948, Note_off_c, 0, 71, 0
2, 155012, Note_on_c, 0, 71, 68
2, 155036, Note_off_c, 0, 72, 0
2, 155096, Note_on_c, 0, 70, 65
2, 155116, Note_off_c, 0, 71, 64
2, 155172, Note_on_c, 0, 71, 67
2, 155200, Note_off_c, 0, 70, 0
2, 155264, Control_c, 0, 64, 72
2, 155284, Control_c, 0, 64, 24
2, 155304, Control_c, 0, 64, 0
2, 155308, Note_on_c, 0, 72, 72
2, 155316, Note_off_c, 0, 71, 0
2, 155320, Note_on_c, 0, 39, 52
2, 155436, Control_c, 0, 64, 88
2, 155456, Control_c, 0, 64, 127
2, 155484, Note_off_c, 0, 39, 0
2, 155772, Note_on_c, 0, 63, 48
2, 155772, Note_on_c, 0, 51, 41
2, 155772, Note_on_c, 0, 56, 46
2, 156044, Note_off_c, 0, 51, 0
2, 156108, Note_off_c, 0, 56, 0
2, 156216, Note_off_c, 0, 63, 0
2, 156540, Note_on_c, 0, 62, 47
2, 156540, Note_on_c, 0, 51, 41
2, 156540, Note_on_c, 0, 56, 41
2, 156624, Note_off_c, 0, 62, 64
2, 156632, Note_off_c, 0, 56, 64
2, 156648, Note_off_c, 0, 51, 64
2, 156912, Note_off_c, 0, 72, 64
2, 156920, Note_on_c, 0, 70, 74
2, 156920, Note_on_c, 0, 51, 43
2, 156920, Note_on_c, 0, 56, 39
2, 156920, Note_on_c, 0, 61, 43
2, 156928, Control_c, 0, 64, 56
2, 156948, Control_c, 0, 64, 0
2, 156988, Note_off_c, 0, 51, 0
2, 157044, Control_c, 0, 64, 72
2, 157064, Control_c, 0, 64, 127
2, 157096, Note_off_c, 0, 56, 0
2, 157364, Note_on_c, 0, 52, 49
2, 157364, Note_on_c, 0, 55, 48
2, 157364, Control_c, 0, 64, 88
2, 157380, Control_c, 0, 64, 24
2, 157396, Control_c, 0, 64, 0
2, 157476, Note_off_c, 0, 61, 0
2, 157492, Control_c, 0, 64, 56
2, 157496, Note_off_c, 0, 52, 0
2, 157512, Control_c, 0, 64, 127
2, 157524, Note_off_c, 0, 55, 0
2, 158084, Note_on_c, 0, 40, 55
2, 158224, Note_off_c, 0, 40, 64
2, 158232, Note_off_c, 0, 70, 64
2, 158264, Note_on_c, 0, 72, 73
2, 158412, Control_c, 0, 64, 72
2, 158428, Control_c, 0, 64, 0
2, 158452, Note_on_c, 0, 70, 71
2, 158452, Note_on_c, 0, 41, 60
2, 158456, Note_off_c, 0, 72, 0
2, 158540, Control_c, 0, 64, 56
2, 158556, Note_off_c, 0, 41, 0
2, 158560, Control_c, 0, 64, 127
2, 158820, Note_off_c, 0, 70, 0
2, 158840, Note_on_c, 0, 69, 70
2, 158840, Note_on_c, 0, 48, 43
2, 158840, Note_on_c, 0, 53, 42
2, 158840, Note_on_c, 0, 60, 48
2, 158852, Control_c, 0, 64, 56
2, 158876, Control_c, 0, 64, 0
2, 158952, Control_c, 0, 64, 56
2, 158972, Control_c, 0, 64, 104
2, 158988, Control_c, 0, 64, 127
2, 159240, Note_on_c, 0, 68, 68
2, 159248, Note_off_c, 0, 48, 0
2, 159252, Control_c, 0, 64, 72
2, 159260, Note_off_c, 0, 69, 0
2, 159272, Control_c, 0, 64, 40
2, 159280, Note_off_c, 0, 60, 0
2, 159300, Note_off_c, 0, 53, 0
2, 159328, Control_c, 0, 64, 88
2, 159348, Control_c, 0, 64, 127
2, 159628, Note_on_c, 0, 59, 45
2, 159628, Note_on_c, 0, 48, 47
2, 159628, Note_on_c, 0, 53, 41
2, 159688, Note_off_c, 0, 53, 64
2, 159704, Note_off_c, 0, 48, 64
2, 159732, Note_off_c, 0, 59, 64
2, 159984, Control_c, 0, 64, 104
2, 160004, Control_c, 0, 64, 40
2, 160024, Note_on_c, 0, 58, 44
2, 160024, Note_on_c, 0, 53, 41
2, 160024, Note_on_c, 0, 48, 44
2, 160024, Control_c, 0, 64, 0
2, 160096, Control_c, 0, 64, 56
2, 160112, Control_c, 0, 64, 88
2, 160124, Note_off_c, 0, 53, 0
2, 160128, Control_c, 0, 64, 127
2, 160172, Note_off_c, 0, 48, 0
2, 160384, Note_off_c, 0, 58, 0
2, 160396, Control_c, 0, 64, 88
2, 160416, Control_c, 0, 64, 24
2, 160436, Control_c, 0, 64, 0
2, 160448, Note_on_c, 0, 48, 43
2, 160448, Note_on_c, 0, 52, 46
2, 160492, Control_c, 0, 64, 40
2, 160508, Control_c, 0, 64, 104
2, 160512, Note_off_c, 0, 48, 0
2, 160524, Note_off_c, 0, 52, 0
2, 160524, Control_c, 0, 64, 127
2, 160700, Note_off_c, 0, 68, 64
2, 160820, Note_on_c, 0, 67, 67
2, 161188, Note_off_c, 0, 67, 0
2, 161208, Note_on_c, 0, 66, 69
2, 161208, Note_on_c, 0, 36, 48
2, 161400, Note_off_c, 0, 36, 0
2, 161556, Control_c, 0, 64, 88
2, 161576, Control_c, 0, 64, 24
2, 161592, Note_off_c, 0, 66, 0
2, 161592, Control_c, 0, 64, 0
2, 161612, Note_on_c, 0, 64, 68
2, 161612, Note_on_c, 0, 37, 50
2, 161688, Note_off_c, 0, 37, 0
2, 161708, Control_c, 0, 64, 56
2, 161724, Control_c, 0, 64, 127
2, 162048, Note_on_c, 0, 53, 41
2, 162048, Note_on_c, 0, 56, 44
2, 162236, Note_off_c, 0, 53, 0
2, 162328, Note_off_c, 0, 56, 0
2, 162360, Note_off_c, 0, 64, 0
2, 162360, Note_on_c, 0, 65, 69
2, 162720, Note_on_c, 0, 63, 52
2, 162720, Note_on_c, 0, 53, 46
2, 162720, Note_on_c, 0, 57, 50
2, 162804, Note_off_c, 0, 53, 64
2, 162836, Note_off_c, 0, 57, 64
2, 162836, Note_off_c, 0, 63, 64
2, 163112, Control_c, 0, 64, 88
2, 163116, Note_on_c, 0, 61, 48
2, 163116, Note_on_c, 0, 53, 42
2, 163116, Note_on_c, 0, 58, 46
2, 163132, Control_c, 0, 64, 0
2, 163224, Control_c, 0, 64, 40
2, 163240, Control_c, 0, 64, 127
2, 163268, Note_off_c, 0, 61, 0
2, 163272, Note_off_c, 0, 53, 0
2, 163272, Note_off_c, 0, 58, 0
2, 163484, Note_on_c, 0, 37, 56
2, 163484, Note_on_c, 0, 69, 71
2, 163680, Note_off_c, 0, 69, 0
2, 163688, Note_off_c, 0, 65, 64
2, 163860, Note_on_c, 0, 70, 79
2, 163972, Control_c, 0, 64, 104
2, 163992, Control_c, 0, 64, 56
2, 164012, Control_c, 0, 64, 40
2, 164028, Control_c, 0, 64, 56
2, 164048, Control_c, 0, 64, 88
2, 164068, Control_c, 0, 64, 127
2, 164076, Note_off_c, 0, 37, 0
2, 164232, Control_c, 0, 64, 104
2, 164252, Control_c, 0, 64, 56
2, 164268, Note_on_c, 0, 36, 60
2, 164272, Control_c, 0, 64, 40
2, 164288, Control_c, 0, 64, 56
2, 164308, Control_c, 0, 64, 88
2, 164328, Control_c, 0, 64, 127
2, 164380, Note_off_c, 0, 36, 64
2, 164452, Note_off_c, 0, 70, 64
2, 164468, Note_on_c, 0, 72, 78
2, 164620, Note_off_c, 0, 72, 0
2, 164700, Note_on_c, 0, 73, 83
2, 164700, Note_on_c, 0, 34, 63
2, 164716, Control_c, 0, 64, 56
2, 164736, Control_c, 0, 64, 0
2, 164828, Note_off_c, 0, 34, 0
2, 164868, Control_c, 0, 64, 88
2, 164888, Control_c, 0, 64, 127
2, 165140, Note_on_c, 0, 53, 58
2, 165260, Note_off_c, 0, 53, 0
2, 165820, Note_on_c, 0, 60, 53
2, 165820, Note_on_c, 0, 53, 43
2, 165820, Note_on_c, 0, 49, 42
2, 165916, Note_off_c, 0, 53, 0
2, 165916, Note_off_c, 0, 60, 0
2, 165936, Note_off_c, 0, 49, 0
2, 166180, Control_c, 0, 64, 88
2, 166196, Control_c, 0, 64, 0
2, 166204, Note_on_c, 0, 77, 75
2, 166204, Note_on_c, 0, 58, 42
2, 166204, Note_on_c, 0, 49, 53
2, 166204, Note_on_c, 0, 53, 44
2, 166244, Note_off_c, 0, 73, 64
2, 166244, Note_off_c, 0, 53, 0
2, 166312, Control_c, 0, 64, 56
2, 166332, Control_c, 0, 64, 127
2, 166360, Note_off_c, 0, 58, 0
2, 166364, Note_off_c, 0, 49, 0
2, 166656, Note_on_c, 0, 34, 61
2, 167164, Note_off_c, 0, 34, 0
2, 167356, Note_on_c, 0, 32, 55
2, 167492, Note_off_c, 0, 32, 0
2, 167500, Note_off_c, 0, 77, 64
2, 167752, Control_c, 0, 64, 72
2, 167768, Note_on_c, 0, 63, 63
2, 167768, Note_on_c, 0, 31, 59
2, 167772, Control_c, 0, 64, 0
2, 167904, Control_c, 0, 64, 72
2, 167920, Control_c, 0, 64, 127
2, 167948, Note_off_c, 0, 31, 0
2, 168236, Note_on_c, 0, 51, 36
2, 168236, Note_on_c, 0, 61, 40
2, 168236, Note_on_c, 0, 58, 36
2, 168396, Note_off_c, 0, 58, 0
2, 168452, Note_off_c, 0, 61, 0
2, 168460, Note_off_c, 0, 51, 0
2, 168884, Note_on_c, 0, 61, 37
2, 168884, Note_on_c, 0, 58, 36
2, 168884, Note_on_c, 0, 51, 40
2, 169020, Note_off_c, 0, 58, 0
2, 169024, Note_off_c, 0, 51, 0
2, 169040, Note_off_c, 0, 61, 0
2, 169252, Note_on_c, 0, 73, 74
2, 169300, Note_off_c, 0, 63, 64
2, 169568, Note_off_c, 0, 73, 0
2, 169620, Note_on_c, 0, 72, 74
2, 169640, Note_on_c, 0, 51, 44
2, 169920, Note_off_c, 0, 72, 0
2, 169984, Note_on_c, 0, 70, 64
2, 170040, Note_off_c, 0, 51, 0
2, 170360, Note_on_c, 0, 72, 77
2, 170388, Note_on_c, 0, 51, 45
2, 170392, Note_off_c, 0, 70, 0
2, 170472, Note_off_c, 0, 51, 64
2, 170708, Note_off_c, 0, 72, 64
2, 170708, Control_c, 0, 64, 88
2, 170728, Control_c, 0, 64, 24
2, 170748, Control_c, 0, 64, 0
2, 170756, Note_on_c, 0, 68, 65
2, 170784, Note_on_c, 0, 44, 54
2, 170860, Control_c, 0, 64, 72
2, 170880, Note_off_c, 0, 44, 0
2, 170880, Control_c, 0, 64, 127
2, 171176, Note_on_c, 0, 60, 44
2, 171184, Note_on_c, 0, 51, 30
2, 171196, Note_on_c, 0, 56, 27
2, 171612, Note_off_c, 0, 51, 0
2, 171628, Note_off_c, 0, 56, 0
2, 171640, Note_off_c, 0, 60, 0
2, 171908, Note_on_c, 0, 60, 39
2, 171916, Note_on_c, 0, 51, 38
2, 171920, Note_on_c, 0, 56, 27
2, 172004, Note_off_c, 0, 60, 64
2, 172016, Note_off_c, 0, 56, 64
2, 172052, Note_off_c, 0, 51, 64
2, 172296, Note_off_c, 0, 68, 64
2, 172312, Note_on_c, 0, 65, 66
2, 172712, Note_on_c, 0, 36, 59
2, 173156, Note_off_c, 0, 36, 0
2, 173348, Note_on_c, 0, 37, 51
2, 173532, Note_off_c, 0, 37, 64
2, 173668, Control_c, 0, 64, 104
2, 173688, Control_c, 0, 64, 24
2, 173708, Control_c, 0, 64, 0
2, 173712, Note_off_c, 0, 65, 64
2, 173740, Note_on_c, 0, 39, 46
2, 173744, Note_on_c, 0, 63, 57
2, 173800, Control_c, 0, 64, 24
2, 173816, Note_off_c, 0, 39, 0
2, 173816, Control_c, 0, 64, 104
2, 173836, Control_c, 0, 64, 127
2, 174156, Note_on_c, 0, 51, 44
2, 174164, Note_on_c, 0, 60, 46
2, 174176, Note_on_c, 0, 56, 38
2, 174296, Note_off_c, 0, 56, 0
2, 174316, Note_off_c, 0, 51, 0
2, 174324, Note_off_c, 0, 60, 0
2, 174880, Note_on_c, 0, 60, 41
2, 174880, Note_on_c, 0, 56, 39
2, 174880, Note_on_c, 0, 51, 39
2, 174972, Note_off_c, 0, 60, 0
2, 174988, Note_off_c, 0, 51, 0
2, 175004, Note_off_c, 0, 56, 0
2, 175056, Note_off_c, 0, 63, 64
2, 175240, Control_c, 0, 64, 72
2, 175260, Control_c, 0, 64, 0
2, 175268, Note_on_c, 0, 73, 72
2, 175276, Note_on_c, 0, 51, 40
2, 175280, Note_on_c, 0, 61, 37
2, 175296, Note_on_c, 0, 55, 53
2, 175392, Control_c, 0, 64, 72
2, 175412, Control_c, 0, 64, 127
2, 175436, Note_off_c, 0, 51, 0
2, 175620, Note_off_c, 0, 73, 0
2, 175672, Note_on_c, 0, 72, 73
2, 175676, Note_on_c, 0, 51, 42
2, 175992, Note_off_c, 0, 72, 0
2, 176028, Note_on_c, 0, 70, 71
2, 176060, Note_off_c, 0, 51, 0
2, 176392, Note_off_c, 0, 70, 0
2, 176396, Note_off_c, 0, 55, 0
2, 176396, Note_on_c, 0, 72, 74
2, 176420, Note_on_c, 0, 51, 47
2, 176472, Note_off_c, 0, 51, 0
2, 176488, Note_off_c, 0, 61, 0
2, 176760, Note_off_c, 0, 72, 64
2, 176776, Note_on_c, 0, 68, 67
2, 176784, Note_on_c, 0, 51, 44
2, 176816, Note_on_c, 0, 56, 34
2, 176824, Note_on_c, 0, 60, 39
2, 176832, Control_c, 0, 64, 104
2, 176852, Control_c, 0, 64, 40
2, 176872, Control_c, 0, 64, 0
2, 176968, Note_off_c, 0, 51, 0
2, 176980, Control_c, 0, 64, 40
2, 177000, Control_c, 0, 64, 104
2, 177020, Control_c, 0, 64, 127
2, 177176, Note_on_c, 0, 51, 53
2, 177660, Note_off_c, 0, 51, 0
2, 177808, Note_on_c, 0, 53, 53
2, 177860, Note_off_c, 0, 56, 0
2, 177912, Note_off_c, 0, 60, 0
2, 177936, Note_off_c, 0, 53, 0
2, 178192, Note_off_c, 0, 68, 64
2, 178200, Note_on_c, 0, 74, 80
2, 178224, Note_on_c, 0, 51, 50
2, 178232, Note_on_c, 0, 56, 32
2, 178232, Control_c, 0, 64, 88
2, 178252, Note_on_c, 0, 59, 42
2, 178252, Control_c, 0, 64, 0
2, 178384, Control_c, 0, 64, 88
2, 178404, Control_c, 0, 64, 127
2, 178440, Note_off_c, 0, 51, 0
2, 178612, Note_on_c, 0, 51, 57
2, 178844, Note_off_c, 0, 51, 0
2, 179328, Note_on_c, 0, 51, 50
2, 179376, Note_off_c, 0, 59, 0
2, 179412, Note_off_c, 0, 56, 0
2, 179468, Note_off_c, 0, 51, 0
2, 179492, Note_off_c, 0, 74, 0
2, 179796, Note_on_c, 0, 74, 81
2, 179852, Note_on_c, 0, 39, 46
2, 179884, Control_c, 0, 64, 88
2, 179904, Control_c, 0, 64, 24
2, 179924, Control_c, 0, 64, 0
2, 180036, Control_c, 0, 64, 72
2, 180048, Control_c, 0, 64, 127
2, 180128, Note_off_c, 0, 39, 0
2, 180212, Note_on_c, 0, 46, 44
2, 180508, Note_off_c, 0, 46, 0
2, 180560, Note_on_c, 0, 55, 47
2, 180796, Note_off_c, 0, 55, 0
2, 180940, Note_on_c, 0, 59, 47
2, 181288, Note_off_c, 0, 59, 64
2, 181296, Note_on_c, 0, 75, 71
2, 181312, Note_off_c, 0, 74, 64
2, 181320, Note_on_c, 0, 58, 45
2, 181400, Control_c, 0, 64, 88
2, 181420, Control_c, 0, 64, 0
2, 181532, Control_c, 0, 64, 72
2, 181548, Control_c, 0, 64, 127
2, 181712, Note_off_c, 0, 58, 0
2, 181724, Note_on_c, 0, 55, 54
2, 182112, Note_off_c, 0, 75, 0
2, 182112, Note_on_c, 0, 63, 54
2, 182248, Note_off_c, 0, 55, 0
2, 182260, Note_off_c, 0, 63, 0
2, 182488, Note_on_c, 0, 75, 77
2, 182696, Note_off_c, 0, 75, 0
2, 182924, Note_on_c, 0, 77, 78
2, 182924, Note_on_c, 0, 75, 62
2, 182924, Note_on_c, 0, 39, 49
2, 182992, Control_c, 0, 64, 56
2, 183008, Control_c, 0, 64, 0
2, 183144, Control_c, 0, 64, 104
2, 183160, Control_c, 0, 64, 127
2, 183276, Note_off_c, 0, 39, 0
2, 183300, Note_on_c, 0, 44, 50
2, 183660, Note_off_c, 0, 75, 0
2, 183668, Note_off_c, 0, 44, 0
2, 183672, Note_on_c, 0, 73, 64
2, 183672, Note_on_c, 0, 53, 55
2, 183692, Note_off_c, 0, 77, 0
2, 183924, Note_off_c, 0, 53, 0
2, 184048, Note_on_c, 0, 58, 54
2, 184432, Note_on_c, 0, 82, 77
2, 184444, Note_off_c, 0, 58, 64
2, 184448, Note_on_c, 0, 56, 49
2, 184812, Note_on_c, 0, 53, 62
2, 184844, Note_off_c, 0, 56, 0
2, 184924, Note_off_c, 0, 53, 0
2, 185216, Note_on_c, 0, 68, 52
2, 185224, Note_on_c, 0, 61, 45
2, 185344, Note_off_c, 0, 73, 64
2, 185380, Note_off_c, 0, 82, 0
2, 185392, Note_off_c, 0, 68, 0
2, 185400, Note_off_c, 0, 61, 0
2, 185624, Note_on_c, 0, 82, 79
2, 186048, Note_off_c, 0, 82, 64
2, 186076, Note_on_c, 0, 84, 81
2, 186076, Note_on_c, 0, 39, 52
2, 186136, Control_c, 0, 64, 40
2, 186156, Control_c, 0, 64, 0
2, 186264, Control_c, 0, 64, 88
2, 186284, Control_c, 0, 64, 127
2, 186396, Note_off_c, 0, 39, 0
2, 186424, Note_off_c, 0, 84, 0
2, 186480, Note_on_c, 0, 82, 76
2, 186484, Note_on_c, 0, 46, 45
2, 186776, Note_off_c, 0, 82, 0
2, 186828, Note_on_c, 0, 79, 76
2, 186840, Note_off_c, 0, 46, 0
2, 186864, Note_on_c, 0, 51, 56
2, 187136, Note_off_c, 0, 79, 0
2, 187180, Note_on_c, 0, 75, 73
2, 187192, Note_off_c, 0, 51, 0
2, 187236, Note_on_c, 0, 53, 59
2, 187536, Note_off_c, 0, 53, 64
2, 187564, Note_off_c, 0, 75, 64
2, 187576, Note_on_c, 0, 73, 70
2, 187624, Note_on_c, 0, 55, 43
2, 187712, Control_c, 0, 64, 88
2, 187728, Control_c, 0, 64, 0
2, 187876, Control_c, 0, 64, 88
2, 187896, Control_c, 0, 64, 127
2, 187952, Note_on_c, 0, 51, 50
2, 187960, Note_off_c, 0, 55, 0
2, 188048, Note_off_c, 0, 51, 0
2, 188384, Note_on_c, 0, 67, 45
2, 188384, Note_on_c, 0, 58, 39
2, 188412, Note_off_c, 0, 73, 0
2, 188528, Note_off_c, 0, 67, 0
2, 188572, Note_off_c, 0, 58, 0
2, 188800, Note_on_c, 0, 73, 72
2, 189008, Note_off_c, 0, 73, 64
2, 189224, Note_on_c, 0, 73, 75
2, 189260, Note_on_c, 0, 39, 47
2, 189336, Control_c, 0, 64, 104
2, 189356, Control_c, 0, 64, 40
2, 189372, Control_c, 0, 64, 0
2, 189488, Control_c, 0, 64, 40
2, 189508, Control_c, 0, 64, 127
2, 189596, Note_on_c, 0, 44, 39
2, 189604, Note_off_c, 0, 39, 0
2, 189912, Note_off_c, 0, 44, 0
2, 189920, Note_off_c, 0, 73, 0
2, 189940, Note_on_c, 0, 72, 68
2, 189968, Note_on_c, 0, 51, 49
2, 190196, Note_off_c, 0, 51, 0
2, 190336, Note_on_c, 0, 56, 36
2, 190668, Note_off_c, 0, 56, 64
2, 190720, Note_on_c, 0, 54, 44
2, 191080, Note_on_c, 0, 51, 43
2, 191080, Note_on_c, 0, 80, 75
2, 191100, Note_off_c, 0, 54, 0
2, 191184, Note_off_c, 0, 51, 0
2, 191232, Note_off_c, 0, 80, 0
2, 191492, Note_on_c, 0, 54, 45
2, 191504, Note_on_c, 0, 66, 39
2, 191516, Note_on_c, 0, 60, 47
2, 191684, Note_off_c, 0, 60, 0
2, 191688, Note_off_c, 0, 54, 0
2, 191696, Note_off_c, 0, 66, 0
2, 191916, Note_on_c, 0, 80, 80
2, 191972, Note_off_c, 0, 72, 64
2, 192228, Note_off_c, 0, 80, 64
2, 192384, Note_on_c, 0, 80, 81
2, 192384, Note_on_c, 0, 39, 47
2, 192500, Control_c, 0, 64, 72
2, 192520, Control_c, 0, 64, 0
2, 192648, Control_c, 0, 64, 72
2, 192672, Control_c, 0, 64, 127
2, 192736, Note_off_c, 0, 39, 0
2, 192756, Note_on_c, 0, 44, 46
2, 193064, Note_off_c, 0, 44, 0
2, 193092, Note_on_c, 0, 71, 66
2, 193100, Note_off_c, 0, 80, 0
2, 193104, Note_on_c, 0, 51, 49
2, 193296, Note_off_c, 0, 51, 0
2, 193472, Note_on_c, 0, 53, 51
2, 193760, Note_off_c, 0, 53, 0
2, 193820, Note_on_c, 0, 54, 51
2, 194168, Note_off_c, 0, 54, 0
2, 194184, Note_on_c, 0, 51, 50
2, 194344, Note_off_c, 0, 51, 0
2, 194588, Note_on_c, 0, 66, 44
2, 194588, Note_on_c, 0, 59, 45
2, 194588, Note_on_c, 0, 54, 46
2, 194588, Note_on_c, 0, 71, 65
2, 194660, Note_off_c, 0, 71, 64
2, 194920, Note_off_c, 0, 59, 0
2, 194924, Note_off_c, 0, 66, 0
2, 194924, Note_off_c, 0, 54, 0
2, 194976, Note_off_c, 0, 71, 0
2, 195452, Note_on_c, 0, 71, 69
2, 195816, Note_on_c, 0, 39, 49
2, 195852, Control_c, 0, 64, 56
2, 195872, Control_c, 0, 64, 0
2, 195980, Control_c, 0, 64, 88
2, 196004, Control_c, 0, 64, 127
2, 196180, Note_off_c, 0, 39, 0
2, 196216, Note_on_c, 0, 51, 44
2, 196332, Note_off_c, 0, 51, 0
2, 196608, Note_on_c, 0, 56, 36
2, 196992, Note_off_c, 0, 56, 0
2, 196992, Note_on_c, 0, 70, 62
2, 196992, Note_on_c, 0, 54, 46
2, 197024, Note_off_c, 0, 71, 64
2, 197144, Control_c, 0, 64, 56
2, 197160, Control_c, 0, 64, 0
2, 197276, Control_c, 0, 64, 88
2, 197296, Control_c, 0, 64, 127
2, 197376, Note_off_c, 0, 54, 0
2, 197416, Note_on_c, 0, 51, 45
2, 197624, Note_off_c, 0, 51, 0
2, 197908, Note_on_c, 0, 62, 38
2, 197908, Note_on_c, 0, 53, 38
2, 197908, Note_on_c, 0, 58, 34
2, 197948, Control_c, 0, 64, 88
2, 197968, Control_c, 0, 64, 0
2, 198080, Control_c, 0, 64, 104
2, 198096, Control_c, 0, 64, 127
2, 198228, Note_off_c, 0, 53, 64
2, 198244, Note_off_c, 0, 62, 64
2, 198276, Note_off_c, 0, 58, 64
2, 198340, Note_off_c, 0, 70, 64
2, 198428, Note_on_c, 0, 65, 54
2, 198720, Note_off_c, 0, 65, 0
2, 198812, Note_on_c, 0, 51, 42
2, 198904, Control_c, 0, 64, 56
2, 198920, Control_c, 0, 64, 0
2, 198964, Note_on_c, 0, 58, 43
2, 199036, Control_c, 0, 64, 56
2, 199056, Control_c, 0, 64, 127
2, 199184, Note_on_c, 0, 67, 56
2, 199388, Control_c, 0, 64, 56
2, 199408, Control_c, 0, 64, 0
2, 199540, Control_c, 0, 64, 56
2, 199560, Control_c, 0, 64, 127
2, 199724, Note_off_c, 0, 51, 64
2, 199772, Note_off_c, 0, 58, 64
2, 199888, Note_off_c, 0, 67, 64
2, 200516, Control_c, 0, 64, 104
2, 200532, Control_c, 0, 64, 56
2, 200552, Control_c, 0, 64, 0
2, 200720, Note_on_c, 0, 75, 60
2, 200824, Note_off_c, 0, 75, 0
2, 200884, Note_on_c, 0, 75, 60
2, 200940, Control_c, 0, 64, 24
2, 200952, Control_c, 0, 64, 88
2, 200960, Control_c, 0, 64, 127
2, 200984, Note_off_c, 0, 75, 0
2, 200992, Note_on_c, 0, 76, 59
2, 201064, Note_off_c, 0, 76, 0
2, 201076, Note_on_c, 0, 75, 50
2, 201140, Note_off_c, 0, 75, 64
2, 201156, Note_on_c, 0, 76, 56
2, 201224, Note_off_c, 0, 76, 0
2, 201232, Note_on_c, 0, 75, 58
2, 201296, Note_off_c, 0, 75, 0
2, 201304, Note_on_c, 0, 76, 58
2, 201380, Note_off_c, 0, 76, 0
2, 201384, Note_on_c, 0, 75, 58
2, 201448, Note_off_c, 0, 75, 0
2, 201460, Note_on_c, 0, 76, 64
2, 201528, Note_off_c, 0, 76, 0
2, 201532, Note_on_c, 0, 75, 58
2, 201596, Note_off_c, 0, 75, 0
2, 201608, Note_on_c, 0, 76, 62
2, 201680, Note_off_c, 0, 76, 0
2, 201680, Note_on_c, 0, 75, 58
2, 201748, Note_off_c, 0, 75, 0
2, 201760, Note_on_c, 0, 76, 62
2, 201832, Note_off_c, 0, 76, 0
2, 201832, Note_on_c, 0, 75, 57
2, 201896, Note_off_c, 0, 75, 0
2, 201904, Note_on_c, 0, 76, 61
2, 201972, Note_on_c, 0, 75, 61
2, 201980, Note_off_c, 0, 76, 0
2, 202040, Note_off_c, 0, 75, 64
2, 202052, Note_on_c, 0, 76, 60
2, 202124, Note_on_c, 0, 75, 57
2, 202128, Note_off_c, 0, 76, 0
2, 202196, Note_off_c, 0, 75, 0
2, 202208, Note_on_c, 0, 76, 62
2, 202288, Note_off_c, 0, 76, 0
2, 202288, Note_on_c, 0, 75, 60
2, 202340, Note_on_c, 0, 66, 66
2, 202364, Note_off_c, 0, 75, 0
2, 202372, Note_on_c, 0, 76, 60
2, 202448, Note_off_c, 0, 76, 0
2, 202452, Note_on_c, 0, 75, 62
2, 202524, Note_off_c, 0, 75, 0
2, 202536, Note_on_c, 0, 76, 63
2, 202596, Note_off_c, 0, 66, 0
2, 202632, Note_off_c, 0, 76, 0
2, 202632, Note_on_c, 0, 75, 67
2, 202724, Note_off_c, 0, 75, 64
2, 202732, Note_on_c, 0, 76, 64
2, 202808, Note_off_c, 0, 76, 0
2, 202828, Note_on_c, 0, 75, 60
2, 202892, Note_off_c, 0, 75, 0
2, 202920, Note_on_c, 0, 76, 59
2, 202988, Note_off_c, 0, 76, 0
2, 203008, Note_on_c, 0, 75, 55
2, 203084, Note_off_c, 0, 75, 0
2, 203096, Note_on_c, 0, 76, 60
2, 203164, Note_off_c, 0, 76, 0
2, 203176, Note_on_c, 0, 75, 51
2, 203244, Note_off_c, 0, 75, 0
2, 203264, Note_on_c, 0, 76, 55
2, 203348, Note_off_c, 0, 76, 0
2, 203352, Note_on_c, 0, 75, 55
2, 203460, Note_off_c, 0, 75, 0
2, 203468, Note_on_c, 0, 73, 65
2, 203492, Note_on_c, 0, 64, 53
2, 203564, Note_on_c, 0, 75, 56
2, 203568, Note_off_c, 0, 73, 64
2, 203632, Note_off_c, 0, 75, 0
2, 203644, Note_on_c, 0, 73, 46
2, 203732, Note_off_c, 0, 73, 0
2, 203732, Note_on_c, 0, 75, 53
2, 203808, Note_off_c, 0, 75, 0
2, 203812, Note_on_c, 0, 73, 44
2, 203884, Note_on_c, 0, 75, 56
2, 203888, Note_off_c, 0, 73, 0
2, 203972, Note_off_c, 0, 75, 0
2, 203972, Note_on_c, 0, 73, 49
2, 204056, Note_on_c, 0, 63, 57
2, 204060, Note_off_c, 0, 73, 0
2, 204064, Note_on_c, 0, 71, 70
2, 204080, Note_off_c, 0, 64, 64
2, 204152, Note_off_c, 0, 71, 0
2, 204152, Note_on_c, 0, 73, 48
2, 204224, Note_off_c, 0, 73, 64
2, 204240, Note_on_c, 0, 71, 58
2, 204280, Note_off_c, 0, 63, 64
2, 204312, Note_off_c, 0, 71, 0
2, 204320, Note_on_c, 0, 73, 49
2, 204392, Note_off_c, 0, 73, 0
2, 204424, Note_on_c, 0, 71, 38
2, 204480, Note_off_c, 0, 71, 0
2, 204504, Note_on_c, 0, 73, 44
2, 204588, Note_off_c, 0, 73, 0
2, 204664, Note_on_c, 0, 64, 53
2, 204664, Note_on_c, 0, 71, 71
2, 204680, Note_on_c, 0, 30, 48
2, 204704, Control_c, 0, 64, 88
2, 204716, Control_c, 0, 64, 24
2, 204724, Control_c, 0, 64, 0
2, 204768, Control_c, 0, 64, 40
2, 204772, Note_off_c, 0, 64, 0
2, 204772, Note_on_c, 0, 73, 61
2, 204776, Control_c, 0, 64, 127
2, 204844, Note_off_c, 0, 71, 0
2, 204856, Note_off_c, 0, 73, 0
2, 204864, Note_on_c, 0, 71, 64
2, 204924, Note_off_c, 0, 30, 0
2, 204936, Note_off_c, 0, 71, 0
2, 204944, Note_on_c, 0, 73, 53
2, 205012, Note_off_c, 0, 73, 0
2, 205020, Note_on_c, 0, 71, 62
2, 205084, Note_off_c, 0, 71, 64
2, 205092, Note_on_c, 0, 73, 50
2, 205168, Note_off_c, 0, 73, 0
2, 205168, Note_on_c, 0, 71, 54
2, 205232, Note_off_c, 0, 71, 0
2, 205244, Note_on_c, 0, 54, 40
2, 205244, Note_on_c, 0, 70, 70
2, 205328, Note_off_c, 0, 70, 0
2, 205332, Note_on_c, 0, 71, 62
2, 205404, Note_off_c, 0, 71, 0
2, 205412, Note_on_c, 0, 70, 56
2, 205476, Note_off_c, 0, 70, 0
2, 205492, Note_on_c, 0, 71, 59
2, 205560, Note_off_c, 0, 71, 0
2, 205568, Note_on_c, 0, 70, 56
2, 205620, Note_off_c, 0, 70, 0
2, 205656, Note_on_c, 0, 71, 44
2, 205700, Note_on_c, 0, 70, 58
2, 205712, Note_off_c, 0, 71, 0
2, 205772, Note_off_c, 0, 70, 64
2, 205796, Note_on_c, 0, 68, 70
2, 205812, Note_on_c, 0, 64, 37
2, 205824, Note_on_c, 0, 59, 33
2, 205876, Note_off_c, 0, 68, 0
2, 205880, Note_on_c, 0, 70, 56
2, 205948, Note_off_c, 0, 70, 0
2, 205968, Note_on_c, 0, 68, 53
2, 205992, Note_off_c, 0, 54, 64
2, 206036, Note_off_c, 0, 68, 0
2, 206048, Note_on_c, 0, 70, 59
2, 206116, Note_off_c, 0, 70, 0
2, 206128, Note_on_c, 0, 68, 44
2, 206192, Note_off_c, 0, 68, 0
2, 206204, Note_on_c, 0, 70, 55
2, 206276, Note_off_c, 0, 70, 0
2, 206280, Note_on_c, 0, 68, 54
2, 206364, Note_off_c, 0, 68, 0
2, 206372, Note_off_c, 0, 59, 0
2, 206372, Note_on_c, 0, 66, 63
2, 206388, Note_on_c, 0, 58, 42
2, 206416, Control_c, 0, 64, 104
2, 206428, Control_c, 0, 64, 56
2, 206440, Control_c, 0, 64, 24
2, 206448, Control_c, 0, 64, 0
2, 206460, Note_on_c, 0, 68, 46
2, 206484, Control_c, 0, 64, 88
2, 206496, Note_off_c, 0, 66, 0
2, 206496, Control_c, 0, 64, 127
2, 206524, Note_off_c, 0, 68, 0
2, 206540, Note_off_c, 0, 64, 0
2, 206544, Note_on_c, 0, 66, 46
2, 206600, Note_off_c, 0, 58, 0
2, 206616, Note_off_c, 0, 66, 64
2, 206628, Note_on_c, 0, 68, 44
2, 206692, Note_off_c, 0, 68, 0
2, 206708, Note_on_c, 0, 66, 42
2, 206764, Note_off_c, 0, 66, 0
2, 206780, Note_on_c, 0, 68, 45
2, 206836, Note_off_c, 0, 68, 0
2, 206860, Note_on_c, 0, 66, 38
2, 206952, Note_off_c, 0, 66, 0
2, 206968, Note_on_c, 0, 63, 54
2, 206968, Control_c, 0, 64, 88
2, 206980, Control_c, 0, 64, 40
2, 206992, Control_c, 0, 64, 0
2, 207012, Note_on_c, 0, 35, 47
2, 207024, Control_c, 0, 64, 88
2, 207036, Control_c, 0, 64, 127
2, 207040, Note_off_c, 0, 63, 0
2, 207072, Note_on_c, 0, 75, 68
2, 207124, Note_off_c, 0, 35, 0
2, 207180, Note_off_c, 0, 75, 0
2, 207184, Note_on_c, 0, 76, 67
2, 207240, Note_off_c, 0, 76, 0
2, 207256, Note_on_c, 0, 75, 62
2, 207312, Note_off_c, 0, 75, 64
2, 207332, Note_on_c, 0, 76, 64
2, 207412, Note_off_c, 0, 76, 0
2, 207416, Note_on_c, 0, 75, 64
2, 207476, Note_off_c, 0, 75, 0
2, 207496, Note_on_c, 0, 76, 62
2, 207576, Note_off_c, 0, 76, 0
2, 207584, Note_on_c, 0, 75, 59
2, 207632, Note_on_c, 0, 66, 50
2, 207636, Note_on_c, 0, 54, 47
2, 207648, Note_off_c, 0, 75, 0
2, 207660, Note_on_c, 0, 76, 62
2, 207740, Note_off_c, 0, 76, 0
2, 207740, Note_on_c, 0, 75, 62
2, 207816, Note_off_c, 0, 75, 0
2, 207836, Note_on_c, 0, 76, 52
2, 207904, Note_off_c, 0, 76, 0
2, 207904, Note_on_c, 0, 75, 60
2, 207964, Note_off_c, 0, 75, 0
2, 207988, Note_on_c, 0, 76, 44
2, 208056, Note_on_c, 0, 75, 70
2, 208064, Note_off_c, 0, 76, 0
2, 208088, Note_off_c, 0, 66, 0
2, 208124, Note_off_c, 0, 75, 0
2, 208156, Note_on_c, 0, 64, 48
2, 208156, Note_on_c, 0, 73, 71
2, 208160, Note_on_c, 0, 58, 34
2, 208216, Control_c, 0, 64, 88
2, 208228, Control_c, 0, 64, 40
2, 208236, Note_off_c, 0, 54, 64
2, 208236, Note_off_c, 0, 73, 0
2, 208240, Note_on_c, 0, 75, 56
2, 208240, Control_c, 0, 64, 24
2, 208272, Control_c, 0, 64, 88
2, 208280, Control_c, 0, 64, 127
2, 208308, Note_off_c, 0, 75, 0
2, 208324, Note_on_c, 0, 73, 49
2, 208384, Note_off_c, 0, 73, 0
2, 208388, Note_on_c, 0, 75, 59
2, 208460, Note_off_c, 0, 75, 0
2, 208480, Note_on_c, 0, 73, 45
2, 208524, Note_off_c, 0, 73, 0
2, 208532, Note_on_c, 0, 75, 55
2, 208632, Note_on_c, 0, 73, 45
2, 208652, Note_off_c, 0, 58, 0
2, 208656, Note_off_c, 0, 64, 0
2, 208660, Note_off_c, 0, 75, 0
2, 208684, Note_on_c, 0, 59, 45
2, 208700, Note_off_c, 0, 73, 0
2, 208700, Note_on_c, 0, 71, 69
2, 208700, Note_on_c, 0, 63, 43
2, 208716, Control_c, 0, 64, 88
2, 208728, Control_c, 0, 64, 40
2, 208736, Control_c, 0, 64, 0
2, 208772, Control_c, 0, 64, 72
2, 208780, Control_c, 0, 64, 127
2, 208788, Note_on_c, 0, 73, 60
2, 208864, Note_off_c, 0, 71, 64
2, 208868, Note_off_c, 0, 73, 64
2, 208872, Note_on_c, 0, 71, 55
2, 208944, Note_off_c, 0, 71, 0
2, 208956, Note_on_c, 0, 73, 53
2, 209036, Note_off_c, 0, 73, 0
2, 209040, Note_on_c, 0, 71, 51
2, 209096, Note_off_c, 0, 63, 64
2, 209104, Note_off_c, 0, 71, 0
2, 209112, Note_on_c, 0, 73, 51
2, 209208, Note_off_c, 0, 73, 0
2, 209300, Note_on_c, 0, 64, 45
2, 209304, Note_on_c, 0, 61, 46
2, 209324, Note_on_c, 0, 71, 73
2, 209332, Note_off_c, 0, 59, 64
2, 209356, Control_c, 0, 64, 104
2, 209368, Control_c, 0, 64, 56
2, 209380, Control_c, 0, 64, 24
2, 209388, Control_c, 0, 64, 0
2, 209400, Control_c, 0, 64, 24
2, 209412, Control_c, 0, 64, 56
2, 209420, Control_c, 0, 64, 127
2, 209444, Note_on_c, 0, 73, 55
2, 209456, Note_off_c, 0, 71, 0
2, 209508, Note_off_c, 0, 73, 0
2, 209520, Note_on_c, 0, 71, 54
2, 209596, Note_off_c, 0, 71, 0
2, 209612, Note_on_c, 0, 73, 36
2, 209676, Note_off_c, 0, 73, 64
2, 209676, Note_on_c, 0, 71, 58
2, 209736, Note_off_c, 0, 71, 0
2, 209756, Note_on_c, 0, 73, 49
2, 209824, Note_off_c, 0, 73, 0
2, 209824, Note_on_c, 0, 71, 53
2, 209888, Note_off_c, 0, 71, 0
2, 209904, Note_on_c, 0, 70, 68
2, 209916, Note_on_c, 0, 54, 39
2, 209976, Note_off_c, 0, 70, 0
2, 209996, Note_on_c, 0, 71, 55
2, 210060, Note_off_c, 0, 71, 0
2, 210080, Note_on_c, 0, 70, 50
2, 210144, Note_off_c, 0, 70, 0
2, 210164, Note_on_c, 0, 71, 47
2, 210240, Note_off_c, 0, 71, 0
2, 210240, Note_on_c, 0, 70, 53
2, 210304, Note_off_c, 0, 70, 0
2, 210328, Note_on_c, 0, 71, 53
2, 210380, Note_on_c, 0, 70, 54
2, 210400, Note_off_c, 0, 64, 64
2, 210400, Note_off_c, 0, 71, 64
2, 210456, Note_off_c, 0, 61, 64
2, 210472, Note_off_c, 0, 70, 0
2, 210476, Note_on_c, 0, 64, 45
2, 210476, Note_on_c, 0, 68, 68
2, 210492, Note_on_c, 0, 59, 35
2, 210516, Control_c, 0, 64, 72
2, 210528, Note_off_c, 0, 54, 64
2, 210528, Control_c, 0, 64, 0
2, 210580, Control_c, 0, 64, 40
2, 210584, Note_off_c, 0, 68, 0
2, 210584, Note_on_c, 0, 70, 54
2, 210596, Control_c, 0, 64, 104
2, 210604, Control_c, 0, 64, 127
2, 210652, Note_off_c, 0, 70, 0
2, 210668, Note_on_c, 0, 68, 44
2, 210752, Note_off_c, 0, 68, 0
2, 210760, Note_on_c, 0, 70, 51
2, 210816, Note_off_c, 0, 70, 0
2, 210832, Note_on_c, 0, 68, 37
2, 210888, Note_off_c, 0, 68, 0
2, 210892, Note_on_c, 0, 70, 47
2, 210956, Note_on_c, 0, 68, 45
2, 210980, Note_off_c, 0, 70, 0
2, 211032, Note_off_c, 0, 68, 0
2, 211052, Note_on_c, 0, 66, 66
2, 211068, Note_off_c, 0, 59, 0
2, 211068, Note_on_c, 0, 58, 36
2, 211104, Control_c, 0, 64, 72
2, 211116, Control_c, 0, 64, 0
2, 211152, Note_on_c, 0, 68, 44
2, 211168, Control_c, 0, 64, 72
2, 211176, Control_c, 0, 64, 127
2, 211216, Note_off_c, 0, 64, 64
2, 211216, Note_off_c, 0, 68, 64
2, 211224, Note_off_c, 0, 66, 0
2, 211228, Note_on_c, 0, 66, 44
2, 211276, Note_off_c, 0, 58, 64
2, 211292, Note_off_c, 0, 66, 0
2, 211308, Note_on_c, 0, 68, 42
2, 211368, Note_off_c, 0, 68, 0
2, 211396, Note_on_c, 0, 66, 27
2, 211436, Note_off_c, 0, 66, 0
2, 211448, Note_on_c, 0, 68, 37
2, 211504, Note_off_c, 0, 68, 0
2, 211516, Note_on_c, 0, 66, 43
2, 211576, Note_off_c, 0, 66, 0
2, 211604, Note_on_c, 0, 63, 44
2, 211656, Control_c, 0, 64, 56
2, 211668, Control_c, 0, 64, 0
2, 211672, Note_on_c, 0, 35, 41
2, 211712, Note_on_c, 0, 69, 60
2, 211712, Control_c, 0, 64, 40
2, 211720, Control_c, 0, 64, 104
2, 211732, Note_off_c, 0, 63, 0
2, 211732, Control_c, 0, 64, 127
2, 211784, Note_off_c, 0, 35, 0
2, 211788, Note_off_c, 0, 69, 0
2, 211804, Note_on_c, 0, 78, 70
2, 211844, Note_off_c, 0, 78, 0
2, 211912, Note_on_c, 0, 80, 64
2, 211984, Note_off_c, 0, 80, 0
2, 211996, Note_on_c, 0, 78, 67
2, 212064, Note_off_c, 0, 78, 0
2, 212076, Note_on_c, 0, 80, 67
2, 212136, Note_on_c, 0, 78, 62
2, 212140, Note_off_c, 0, 80, 0
2, 212216, Note_off_c, 0, 78, 0
2, 212216, Note_on_c, 0, 80, 59
2, 212284, Note_off_c, 0, 80, 0
2, 212284, Note_on_c, 0, 78, 69
2, 212316, Note_on_c, 0, 59, 45
2, 212356, Note_off_c, 0, 78, 0
2, 212356, Note_on_c, 0, 80, 64
2, 212420, Note_off_c, 0, 80, 0
2, 212420, Note_on_c, 0, 78, 68
2, 212488, Note_on_c, 0, 80, 65
2, 212496, Note_off_c, 0, 78, 0
2, 212560, Note_off_c, 0, 80, 0
2, 212560, Note_on_c, 0, 78, 67
2, 212628, Note_on_c, 0, 80, 64
2, 212632, Note_off_c, 0, 78, 0
2, 212696, Note_off_c, 0, 80, 0
2, 212696, Note_on_c, 0, 78, 62
2, 212768, Note_off_c, 0, 59, 64
2, 212768, Note_on_c, 0, 80, 62
2, 212772, Note_off_c, 0, 78, 64
2, 212820, Note_on_c, 0, 69, 55
2, 212820, Note_on_c, 0, 63, 49
2, 212836, Note_off_c, 0, 80, 0
2, 212868, Note_on_c, 0, 78, 62
2, 212940, Note_off_c, 0, 78, 0
2, 212944, Note_on_c, 0, 80, 53
2, 213008, Note_off_c, 0, 80, 0
2, 213008, Note_on_c, 0, 78, 59
2, 213072, Note_off_c, 0, 78, 0
2, 213080, Note_on_c, 0, 80, 55
2, 213136, Note_off_c, 0, 80, 0
2, 213144, Note_on_c, 0, 78, 59
2, 213212, Note_off_c, 0, 78, 0
2, 213216, Note_on_c, 0, 80, 52
2, 213280, Note_off_c, 0, 80, 0
2, 213328, Note_on_c, 0, 78, 61
2, 213340, Note_on_c, 0, 59, 46
2, 213344, Note_off_c, 0, 63, 0
2, 213400, Note_off_c, 0, 78, 0
2, 213404, Note_on_c, 0, 80, 57
2, 213424, Note_off_c, 0, 69, 64
2, 213472, Note_on_c, 0, 78, 60
2, 213476, Note_off_c, 0, 80, 64
2, 213548, Note_off_c, 0, 78, 0
2, 213548, Note_on_c, 0, 80, 60
2, 213620, Note_off_c, 0, 80, 0
2, 213620, Note_on_c, 0, 78, 63
2, 213680, Note_off_c, 0, 78, 0
2, 213688, Note_on_c, 0, 80, 67
2, 213752, Note_off_c, 0, 80, 0
2, 213756, Note_on_c, 0, 78, 69
2, 213832, Note_off_c, 0, 59, 64
2, 213868, Note_off_c, 0, 78, 0
2, 213876, Note_on_c, 0, 80, 67
2, 213908, Note_on_c, 0, 69, 52
2, 213912, Note_on_c, 0, 63, 45
2, 213916, Note_on_c, 0, 60, 44
2, 213948, Note_on_c, 0, 78, 69
2, 213952, Note_off_c, 0, 80, 0
2, 213952, Control_c, 0, 64, 104
2, 213964, Control_c, 0, 64, 24
2, 213972, Control_c, 0, 64, 0
2, 214028, Control_c, 0, 64, 88
2, 214036, Note_off_c, 0, 78, 0
2, 214036, Note_on_c, 0, 80, 67
2, 214040, Control_c, 0, 64, 127
2, 214104, Note_off_c, 0, 80, 0
2, 214108, Note_on_c, 0, 78, 67
2, 214124, Note_off_c, 0, 69, 0
2, 214164, Note_off_c, 0, 63, 0
2, 214164, Note_off_c, 0, 60, 0
2, 214176, Note_off_c, 0, 78, 0
2, 214176, Note_on_c, 0, 80, 60
2, 214244, Note_off_c, 0, 80, 0
2, 214248, Note_on_c, 0, 78, 63
2, 214316, Note_off_c, 0, 78, 0
2, 214316, Note_on_c, 0, 80, 61
2, 214384, Note_off_c, 0, 80, 64
2, 214388, Note_on_c, 0, 78, 61
2, 214440, Note_on_c, 0, 48, 55
2, 214460, Note_off_c, 0, 78, 0
2, 214460, Note_on_c, 0, 80, 61
2, 214520, Note_off_c, 0, 48, 0
2, 214524, Note_off_c, 0, 80, 0
2, 214532, Note_on_c, 0, 78, 62
2, 214596, Note_off_c, 0, 78, 0
2, 214600, Note_on_c, 0, 80, 66
2, 214664, Note_off_c, 0, 80, 0
2, 214676, Note_on_c, 0, 78, 62
2, 214712, Note_off_c, 0, 78, 0
2, 214768, Note_on_c, 0, 80, 60
2, 214796, Note_on_c, 0, 78, 60
2, 214808, Note_off_c, 0, 80, 0
2, 214840, Note_on_c, 0, 49, 50
2, 214844, Note_off_c, 0, 78, 0
2, 214876, Note_on_c, 0, 56, 49
2, 214892, Note_off_c, 0, 49, 0
2, 214896, Control_c, 0, 64, 24
2, 214908, Control_c, 0, 64, 0
2, 214940, Note_off_c, 0, 56, 0
2, 214940, Control_c, 0, 64, 24
2, 214944, Note_on_c, 0, 76, 74
2, 214948, Control_c, 0, 64, 88
2, 214952, Note_on_c, 0, 64, 57
2, 214956, Note_on_c, 0, 68, 44
2, 214960, Control_c, 0, 64, 127
2, 215008, Note_off_c, 0, 68, 64
2, 215016, Note_off_c, 0, 64, 64
2, 215032, Note_on_c, 0, 78, 60
2, 215080, Note_off_c, 0, 76, 64
2, 215116, Note_off_c, 0, 78, 0
2, 215116, Note_on_c, 0, 76, 67
2, 215188, Note_off_c, 0, 76, 0
2, 215200, Note_on_c, 0, 78, 55
2, 215268, Note_on_c, 0, 76, 66
2, 215272, Note_off_c, 0, 78, 0
2, 215328, Note_off_c, 0, 76, 0
2, 215344, Note_on_c, 0, 78, 56
2, 215404, Note_on_c, 0, 76, 75
2, 215404, Control_c, 0, 64, 104
2, 215416, Note_off_c, 0, 78, 0
2, 215416, Note_on_c, 0, 51, 48
2, 215416, Control_c, 0, 64, 0
2, 215452, Note_on_c, 0, 56, 45
2, 215468, Note_off_c, 0, 51, 0
2, 215472, Note_on_c, 0, 60, 53
2, 215472, Control_c, 0, 64, 72
2, 215480, Control_c, 0, 64, 127
2, 215492, Note_off_c, 0, 76, 0
2, 215508, Note_on_c, 0, 75, 73
2, 215516, Note_off_c, 0, 56, 0
2, 215524, Note_on_c, 0, 66, 53
2, 215572, Note_off_c, 0, 60, 0
2, 215592, Note_off_c, 0, 66, 0
2, 215600, Note_on_c, 0, 76, 68
2, 215628, Note_off_c, 0, 75, 0
2, 215668, Note_off_c, 0, 76, 0
2, 215680, Note_on_c, 0, 75, 60
2, 215744, Note_off_c, 0, 75, 0
2, 215764, Note_on_c, 0, 76, 59
2, 215828, Note_off_c, 0, 76, 0
2, 215836, Note_on_c, 0, 75, 62
2, 215896, Note_off_c, 0, 75, 64
2, 215912, Note_on_c, 0, 76, 54
2, 215972, Note_on_c, 0, 75, 51
2, 215976, Note_off_c, 0, 76, 0
2, 216016, Note_off_c, 0, 75, 0
2, 216096, Note_on_c, 0, 75, 73
2, 216104, Note_on_c, 0, 40, 49
2, 216124, Control_c, 0, 64, 88
2, 216132, Control_c, 0, 64, 0
2, 216196, Control_c, 0, 64, 88
2, 216200, Note_off_c, 0, 75, 0
2, 216208, Control_c, 0, 64, 127
2, 216216, Note_on_c, 0, 67, 59
2, 216252, Note_off_c, 0, 40, 0
2, 216292, Note_off_c, 0, 67, 0
2, 216296, Note_on_c, 0, 68, 64
2, 216364, Note_off_c, 0, 68, 0
2, 216380, Note_on_c, 0, 70, 61
2, 216448, Note_off_c, 0, 70, 0
2, 216460, Note_on_c, 0, 68, 60
2, 216548, Note_off_c, 0, 68, 64
2, 216556, Note_on_c, 0, 67, 59
2, 216632, Note_on_c, 0, 68, 60
2, 216640, Note_off_c, 0, 67, 0
2, 216672, Control_c, 0, 64, 40
2, 216684, Control_c, 0, 64, 0
2, 216688, Note_on_c, 0, 61, 42
2, 216692, Note_on_c, 0, 52, 47
2, 216696, Note_on_c, 0, 56, 38
2, 216716, Note_on_c, 0, 70, 58
2, 216724, Note_off_c, 0, 68, 0
2, 216728, Control_c, 0, 64, 40
2, 216740, Control_c, 0, 64, 104
2, 216748, Control_c, 0, 64, 127
2, 216768, Note_off_c, 0, 70, 0
2, 216792, Note_on_c, 0, 71, 64
2, 216864, Note_off_c, 0, 71, 0
2, 216872, Note_on_c, 0, 73, 61
2, 216944, Note_on_c, 0, 75, 64
2, 216952, Note_off_c, 0, 73, 0
2, 216988, Note_off_c, 0, 75, 0
2, 217016, Note_on_c, 0, 76, 68
2, 217084, Note_off_c, 0, 76, 0
2, 217092, Note_on_c, 0, 78, 62
2, 217168, Note_on_c, 0, 80, 67
2, 217184, Note_off_c, 0, 78, 0
2, 217240, Note_on_c, 0, 82, 67
2, 217268, Note_off_c, 0, 80, 0
2, 217284, Note_off_c, 0, 82, 0
2, 217312, Note_off_c, 0, 61, 0
2, 217324, Note_on_c, 0, 83, 64
2, 217348, Note_on_c, 0, 64, 54
2, 217396, Note_off_c, 0, 83, 0
2, 217404, Note_on_c, 0, 85, 60
2, 217484, Note_on_c, 0, 87, 65
2, 217496, Note_off_c, 0, 85, 64
2, 217536, Note_off_c, 0, 87, 0
2, 217556, Note_on_c, 0, 88, 71
2, 217612, Note_off_c, 0, 56, 64
2, 217632, Note_off_c, 0, 88, 0
2, 217636, Note_on_c, 0, 90, 62
2, 217716, Note_on_c, 0, 92, 76
2, 217724, Note_off_c, 0, 90, 0
2, 217800, Note_on_c, 0, 94, 77
2, 217808, Note_off_c, 0, 92, 0
2, 217880, Note_on_c, 0, 95, 77
2, 217916, Note_off_c, 0, 94, 0
2, 217972, Note_off_c, 0, 95, 0
2, 217984, Note_on_c, 0, 92, 72
2, 218060, Note_on_c, 0, 56, 44
2, 218084, Note_off_c, 0, 92, 64
2, 218084, Note_on_c, 0, 88, 66
2, 218168, Note_on_c, 0, 85, 61
2, 218212, Note_off_c, 0, 88, 0
2, 218256, Note_off_c, 0, 85, 0
2, 218264, Note_on_c, 0, 83, 70
2, 218300, Note_off_c, 0, 83, 0
2, 218356, Note_on_c, 0, 80, 61
2, 218416, Note_off_c, 0, 64, 64
2, 218424, Note_off_c, 0, 52, 64
2, 218448, Note_off_c, 0, 80, 0
2, 218472, Note_on_c, 0, 76, 65
2, 218496, Note_off_c, 0, 56, 0
2, 218556, Note_off_c, 0, 76, 0
2, 218564, Note_on_c, 0, 75, 62
2, 218684, Note_off_c, 0, 75, 0
2, 218692, Note_on_c, 0, 73, 71
2, 218716, Note_on_c, 0, 42, 47
2, 218732, Control_c, 0, 64, 88
2, 218744, Control_c, 0, 64, 0
2, 218808, Control_c, 0, 64, 40
2, 218820, Control_c, 0, 64, 127
2, 218824, Note_off_c, 0, 73, 0
2, 218824, Note_on_c, 0, 75, 50
2, 218896, Note_off_c, 0, 75, 0
2, 218912, Note_off_c, 0, 42, 0
2, 218916, Note_on_c, 0, 73, 50
2, 218984, Note_off_c, 0, 73, 64
2, 219000, Note_on_c, 0, 75, 53
2, 219060, Note_off_c, 0, 75, 0
2, 219072, Note_on_c, 0, 73, 43
2, 219132, Note_off_c, 0, 73, 0
2, 219136, Note_on_c, 0, 75, 49
2, 219200, Note_off_c, 0, 75, 0
2, 219208, Note_on_c, 0, 73, 47
2, 219272, Note_off_c, 0, 73, 0
2, 219296, Note_on_c, 0, 75, 55
2, 219296, Note_on_c, 0, 54, 42
2, 219360, Note_off_c, 0, 75, 0
2, 219372, Note_on_c, 0, 73, 50
2, 219432, Note_off_c, 0, 73, 0
2, 219444, Note_on_c, 0, 75, 54
2, 219504, Note_off_c, 0, 75, 0
2, 219516, Note_on_c, 0, 73, 54
2, 219572, Note_off_c, 0, 73, 0
2, 219584, Note_on_c, 0, 75, 56
2, 219640, Note_off_c, 0, 75, 0
2, 219648, Note_on_c, 0, 73, 51
2, 219704, Note_off_c, 0, 73, 0
2, 219712, Note_on_c, 0, 75, 61
2, 219776, Note_off_c, 0, 75, 0
2, 219788, Note_on_c, 0, 73, 56
2, 219828, Note_on_c, 0, 64, 53
2, 219836, Note_on_c, 0, 58, 36
2, 219852, Note_off_c, 0, 73, 0
2, 219852, Note_on_c, 0, 75, 57
2, 219920, Note_off_c, 0, 75, 0
2, 219928, Note_on_c, 0, 73, 52
2, 219992, Note_off_c, 0, 73, 0
2, 219996, Note_on_c, 0, 75, 62
2, 220064, Note_off_c, 0, 75, 0
2, 220064, Note_on_c, 0, 73, 50
2, 220112, Note_off_c, 0, 73, 0
2, 220124, Note_on_c, 0, 75, 53
2, 220176, Note_off_c, 0, 58, 0
2, 220196, Note_on_c, 0, 73, 47
2, 220220, Note_off_c, 0, 75, 0
2, 220276, Note_off_c, 0, 73, 0
2, 220284, Note_on_c, 0, 71, 71
2, 220296, Note_on_c, 0, 59, 46
2, 220332, Note_off_c, 0, 54, 64
2, 220336, Control_c, 0, 64, 56
2, 220348, Control_c, 0, 64, 0
2, 220372, Note_on_c, 0, 73, 46
2, 220380, Note_off_c, 0, 71, 0
2, 220392, Control_c, 0, 64, 56
2, 220404, Control_c, 0, 64, 127
2, 220448, Note_off_c, 0, 73, 0
2, 220464, Note_on_c, 0, 71, 58
2, 220540, Note_off_c, 0, 71, 0
2, 220548, Note_on_c, 0, 73, 46
2, 220624, Note_off_c, 0, 73, 0
2, 220644, Note_on_c, 0, 71, 51
2, 220696, Note_off_c, 0, 71, 0
2, 220716, Note_on_c, 0, 73, 53
2, 220756, Note_off_c, 0, 64, 64
2, 220800, Note_off_c, 0, 73, 0
2, 220832, Note_on_c, 0, 71, 67
2, 220856, Note_on_c, 0, 64, 51
2, 220856, Note_on_c, 0, 61, 52
2, 220884, Note_off_c, 0, 59, 64
2, 220888, Control_c, 0, 64, 104
2, 220900, Control_c, 0, 64, 40
2, 220912, Control_c, 0, 64, 0
2, 220920, Note_off_c, 0, 71, 0
2, 220928, Note_on_c, 0, 73, 58
2, 220956, Control_c, 0, 64, 72
2, 220968, Control_c, 0, 64, 127
2, 220996, Note_off_c, 0, 73, 0
2, 221008, Note_on_c, 0, 71, 59
2, 221072, Note_off_c, 0, 71, 0
2, 221080, Note_on_c, 0, 73, 53
2, 221152, Note_off_c, 0, 73, 64
2, 221160, Note_on_c, 0, 71, 53
2, 221232, Note_off_c, 0, 71, 0
2, 221244, Note_on_c, 0, 73, 54
2, 221320, Note_on_c, 0, 71, 54
2, 221336, Note_off_c, 0, 73, 0
2, 221400, Note_off_c, 0, 71, 0
2, 221400, Note_on_c, 0, 54, 45
2, 221404, Note_on_c, 0, 70, 68
2, 221412, Control_c, 0, 64, 104
2, 221420, Control_c, 0, 64, 40
2, 221436, Control_c, 0, 64, 24
2, 221468, Control_c, 0, 64, 104
2, 221476, Control_c, 0, 64, 127
2, 221520, Note_on_c, 0, 71, 49
2, 221524, Note_off_c, 0, 70, 0
2, 221564, Note_off_c, 0, 71, 0
2, 221588, Note_on_c, 0, 70, 47
2, 221656, Note_off_c, 0, 70, 0
2, 221672, Note_on_c, 0, 71, 51
2, 221728, Note_off_c, 0, 71, 0
2, 221760, Note_on_c, 0, 70, 33
2, 221796, Note_off_c, 0, 70, 0
2, 221840, Note_on_c, 0, 71, 52
2, 221888, Note_on_c, 0, 70, 53
2, 221896, Note_off_c, 0, 71, 0
2, 221904, Note_off_c, 0, 64, 64
2, 221952, Note_off_c, 0, 70, 0
2, 221968, Note_on_c, 0, 68, 72
2, 221984, Note_on_c, 0, 64, 36
2, 221992, Note_off_c, 0, 61, 64
2, 222020, Note_on_c, 0, 59, 32
2, 222052, Control_c, 0, 64, 88
2, 222064, Control_c, 0, 64, 24
2, 222072, Control_c, 0, 64, 0
2, 222076, Note_on_c, 0, 70, 49
2, 222080, Note_off_c, 0, 68, 64
2, 222104, Control_c, 0, 64, 24
2, 222116, Control_c, 0, 64, 88
2, 222128, Control_c, 0, 64, 127
2, 222148, Note_off_c, 0, 70, 0
2, 222164, Note_on_c, 0, 68, 47
2, 222224, Note_off_c, 0, 68, 0
2, 222244, Note_on_c, 0, 70, 46
2, 222304, Note_off_c, 0, 70, 0
2, 222324, Note_on_c, 0, 68, 32
2, 222376, Note_off_c, 0, 68, 0
2, 222396, Note_on_c, 0, 70, 44
2, 222452, Note_off_c, 0, 70, 0
2, 222468, Note_on_c, 0, 68, 48
2, 222544, Note_off_c, 0, 59, 0
2, 222560, Note_off_c, 0, 68, 0
2, 222572, Note_on_c, 0, 66, 64
2, 222572, Note_on_c, 0, 58, 30
2, 222648, Control_c, 0, 64, 88
2, 222660, Control_c, 0, 64, 0
2, 222672, Note_off_c, 0, 66, 64
2, 222676, Note_on_c, 0, 68, 44
2, 222716, Control_c, 0, 64, 56
2, 222724, Control_c, 0, 64, 127
2, 222736, Note_off_c, 0, 68, 0
2, 222756, Note_on_c, 0, 66, 39
2, 222780, Note_off_c, 0, 64, 64
2, 222804, Note_off_c, 0, 54, 64
2, 222816, Note_off_c, 0, 66, 0
2, 222836, Note_off_c, 0, 58, 64
2, 222836, Note_on_c, 0, 68, 35
2, 222880, Note_off_c, 0, 68, 0
2, 222980, Note_on_c, 0, 68, 25
2, 223008, Note_off_c, 0, 68, 0
2, 223012, Note_on_c, 0, 66, 36
2, 223112, Note_off_c, 0, 66, 0
2, 223132, Note_on_c, 0, 63, 60
2, 223136, Control_c, 0, 64, 104
2, 223148, Control_c, 0, 64, 40
2, 223156, Control_c, 0, 64, 0
2, 223200, Control_c, 0, 64, 56
2, 223204, Note_on_c, 0, 35, 40
2, 223212, Control_c, 0, 64, 127
2, 223220, Note_off_c, 0, 63, 0
2, 223256, Note_on_c, 0, 75, 60
2, 223304, Note_off_c, 0, 35, 0
2, 223352, Note_off_c, 0, 75, 0
2, 223368, Note_on_c, 0, 76, 62
2, 223428, Note_off_c, 0, 76, 0
2, 223448, Note_on_c, 0, 75, 57
2, 223500, Note_off_c, 0, 75, 0
2, 223532, Note_on_c, 0, 76, 58
2, 223600, Note_off_c, 0, 76, 0
2, 223600, Note_on_c, 0, 75, 63
2, 223660, Note_off_c, 0, 75, 0
2, 223688, Note_on_c, 0, 76, 54
2, 223752, Note_on_c, 0, 75, 64
2, 223772, Note_off_c, 0, 76, 0
2, 223824, Note_off_c, 0, 75, 0
2, 223840, Note_on_c, 0, 74, 70
2, 223852, Note_on_c, 0, 66, 31
2, 223860, Note_on_c, 0, 54, 34
2, 223916, Note_off_c, 0, 74, 0
2, 223920, Note_on_c, 0, 75, 68
2, 223996, Note_off_c, 0, 75, 0
2, 224016, Note_on_c, 0, 76, 74
2, 224084, Note_off_c, 0, 76, 0
2, 224112, Note_on_c, 0, 75, 73
2, 224184, Note_off_c, 0, 75, 0
2, 224208, Note_on_c, 0, 80, 67
2, 224288, Note_off_c, 0, 80, 0
2, 224296, Note_on_c, 0, 78, 69
2, 224380, Note_off_c, 0, 66, 64
2, 224400, Note_off_c, 0, 78, 0
2, 224412, Note_on_c, 0, 72, 71
2, 224416, Note_on_c, 0, 64, 53
2, 224460, Control_c, 0, 64, 88
2, 224468, Control_c, 0, 64, 24
2, 224480, Control_c, 0, 64, 0
2, 224500, Note_off_c, 0, 72, 0
2, 224500, Note_on_c, 0, 73, 64
2, 224536, Control_c, 0, 64, 40
2, 224548, Control_c, 0, 64, 104
2, 224556, Control_c, 0, 64, 127
2, 224572, Note_off_c, 0, 73, 0
2, 224596, Note_on_c, 0, 75, 59
2, 224688, Note_off_c, 0, 75, 0
2, 224692, Note_on_c, 0, 73, 64
2, 224780, Note_off_c, 0, 73, 0
2, 224792, Note_on_c, 0, 80, 62
2, 224876, Note_off_c, 0, 80, 0
2, 224880, Note_on_c, 0, 78, 64
2, 224956, Note_off_c, 0, 64, 0
2, 224960, Note_off_c, 0, 78, 0
2, 224972, Note_on_c, 0, 63, 42
2, 224980, Note_on_c, 0, 70, 64
2, 225012, Control_c, 0, 64, 104
2, 225024, Control_c, 0, 64, 40
2, 225036, Control_c, 0, 64, 0
2, 225076, Note_off_c, 0, 70, 64
2, 225084, Note_on_c, 0, 71, 65
2, 225088, Control_c, 0, 64, 56
2, 225100, Control_c, 0, 64, 127
2, 225148, Note_off_c, 0, 71, 0
2, 225172, Note_on_c, 0, 73, 60
2, 225248, Note_off_c, 0, 73, 0
2, 225260, Note_on_c, 0, 71, 68
2, 225324, Note_off_c, 0, 71, 0
2, 225368, Note_on_c, 0, 80, 64
2, 225420, Note_off_c, 0, 63, 64
2, 225440, Note_off_c, 0, 80, 0
2, 225464, Note_on_c, 0, 78, 63
2, 225556, Note_off_c, 0, 54, 64
2, 225560, Note_off_c, 0, 78, 0
2, 225600, Note_on_c, 0, 71, 72
2, 225628, Note_on_c, 0, 64, 40
2, 225628, Note_on_c, 0, 61, 37
2, 225652, Control_c, 0, 64, 104
2, 225664, Control_c, 0, 64, 40
2, 225672, Control_c, 0, 64, 0
2, 225704, Note_on_c, 0, 73, 53
2, 225708, Control_c, 0, 64, 24
2, 225712, Note_off_c, 0, 71, 0
2, 225716, Control_c, 0, 64, 72
2, 225728, Control_c, 0, 64, 127
2, 225772, Note_off_c, 0, 73, 64
2, 225788, Note_on_c, 0, 71, 60
2, 225860, Note_off_c, 0, 71, 0
2, 225880, Note_on_c, 0, 73, 54
2, 225952, Note_off_c, 0, 73, 0
2, 225964, Note_on_c, 0, 71, 64
2, 226036, Note_off_c, 0, 71, 0
2, 226048, Note_on_c, 0, 73, 51
2, 226116, Note_off_c, 0, 73, 0
2, 226128, Note_on_c, 0, 71, 60
2, 226188, Note_off_c, 0, 71, 0
2, 226244, Note_on_c, 0, 54, 41
2, 226264, Note_on_c, 0, 70, 62
2, 226372, Note_off_c, 0, 70, 0
2, 226412, Note_on_c, 0, 71, 46
2, 226476, Note_off_c, 0, 71, 0
2, 226484, Note_on_c, 0, 70, 58
2, 226556, Note_off_c, 0, 70, 0
2, 226564, Note_on_c, 0, 71, 61
2, 226624, Note_off_c, 0, 71, 64
2, 226640, Note_on_c, 0, 70, 43
2, 226708, Note_off_c, 0, 70, 0
2, 226724, Note_on_c, 0, 71, 53
2, 226804, Note_on_c, 0, 70, 62
2, 226808, Note_off_c, 0, 71, 0
2, 226884, Note_off_c, 0, 64, 64
2, 226884, Note_off_c, 0, 70, 0
2, 226904, Note_on_c, 0, 68, 61
2, 226948, Note_on_c, 0, 64, 36
2, 226952, Note_off_c, 0, 61, 64
2, 226976, Note_on_c, 0, 59, 32
2, 227000, Note_off_c, 0, 68, 0
2, 227000, Note_on_c, 0, 70, 55
2, 227008, Control_c, 0, 64, 88
2, 227020, Control_c, 0, 64, 40
2, 227028, Control_c, 0, 64, 0
2, 227080, Note_off_c, 0, 70, 0
2, 227084, Note_on_c, 0, 68, 48
2, 227084, Control_c, 0, 64, 72
2, 227096, Control_c, 0, 64, 127
2, 227152, Note_off_c, 0, 68, 0
2, 227160, Note_on_c, 0, 70, 46
2, 227232, Note_off_c, 0, 70, 0
2, 227244, Note_on_c, 0, 68, 43
2, 227304, Note_off_c, 0, 68, 64
2, 227320, Note_on_c, 0, 70, 47
2, 227392, Note_off_c, 0, 70, 0
2, 227396, Note_on_c, 0, 68, 51
2, 227488, Note_off_c, 0, 59, 64
2, 227488, Note_off_c, 0, 68, 0
2, 227500, Note_on_c, 0, 66, 62
2, 227528, Note_on_c, 0, 58, 25
2, 227552, Control_c, 0, 64, 104
2, 227560, Control_c, 0, 64, 40
2, 227572, Control_c, 0, 64, 0
2, 227592, Note_off_c, 0, 66, 0
2, 227596, Note_on_c, 0, 68, 39
2, 227616, Control_c, 0, 64, 24
2, 227628, Control_c, 0, 64, 72
2, 227640, Control_c, 0, 64, 127
2, 227668, Note_off_c, 0, 68, 0
2, 227684, Note_on_c, 0, 66, 43
2, 227712, Note_off_c, 0, 64, 64
2, 227744, Note_off_c, 0, 54, 64
2, 227744, Note_off_c, 0, 66, 0
2, 227760, Note_on_c, 0, 68, 40
2, 227780, Note_off_c, 0, 58, 0
2, 227816, Note_off_c, 0, 68, 0
2, 227828, Note_on_c, 0, 66, 34
2, 227868, Note_off_c, 0, 66, 0
2, 227892, Note_on_c, 0, 68, 39
2, 227936, Note_on_c, 0, 66, 37
2, 227940, Note_off_c, 0, 68, 0
2, 228008, Note_off_c, 0, 66, 0
2, 228048, Note_on_c, 0, 63, 35
2, 228136, Control_c, 0, 64, 104
2, 228148, Control_c, 0, 64, 40
2, 228156, Note_on_c, 0, 69, 60
2, 228160, Note_off_c, 0, 63, 64
2, 228160, Control_c, 0, 64, 0
2, 228208, Note_on_c, 0, 35, 46
2, 228212, Control_c, 0, 64, 72
2, 228224, Control_c, 0, 64, 127
2, 228236, Note_off_c, 0, 69, 0
2, 228252, Note_on_c, 0, 78, 67
2, 228308, Note_off_c, 0, 78, 0
2, 228320, Note_off_c, 0, 35, 0
2, 228388, Note_on_c, 0, 80, 58
2, 228444, Note_off_c, 0, 80, 0
2, 228468, Note_on_c, 0, 78, 62
2, 228536, Note_off_c, 0, 78, 0
2, 228552, Note_on_c, 0, 80, 57
2, 228620, Note_off_c, 0, 80, 0
2, 228620, Note_on_c, 0, 78, 59
2, 228696, Note_off_c, 0, 78, 0
2, 228696, Note_on_c, 0, 80, 55
2, 228768, Note_off_c, 0, 80, 0
2, 228768, Note_on_c, 0, 78, 64
2, 228840, Note_on_c, 0, 80, 55
2, 228844, Note_off_c, 0, 78, 64
2, 228852, Note_on_c, 0, 59, 44
2, 228908, Note_off_c, 0, 80, 0
2, 228916, Note_on_c, 0, 78, 63
2, 228984, Note_on_c, 0, 80, 58
2, 228988, Note_off_c, 0, 78, 0
2, 229048, Note_on_c, 0, 78, 60
2, 229052, Note_off_c, 0, 80, 0
2, 229124, Note_on_c, 0, 80, 56
2, 229128, Note_off_c, 0, 78, 0
2, 229196, Note_off_c, 0, 80, 0
2, 229196, Note_on_c, 0, 78, 57
2, 229272, Note_on_c, 0, 80, 49
2, 229276, Note_off_c, 0, 78, 0
2, 229344, Note_off_c, 0, 80, 0
2, 229348, Note_on_c, 0, 78, 57
2, 229352, Note_off_c, 0, 59, 0
2, 229360, Note_on_c, 0, 69, 59
2, 229368, Note_on_c, 0, 63, 38
2, 229428, Note_off_c, 0, 78, 0
2, 229432, Note_on_c, 0, 80, 48
2, 229496, Note_off_c, 0, 80, 0
2, 229500, Note_on_c, 0, 78, 56
2, 229572, Note_off_c, 0, 78, 0
2, 229572, Note_on_c, 0, 80, 47
2, 229636, Note_off_c, 0, 80, 0
2, 229644, Note_on_c, 0, 78, 54
2, 229712, Note_on_c, 0, 80, 51
2, 229716, Note_off_c, 0, 78, 64
2, 229784, Note_off_c, 0, 80, 0
2, 229812, Note_on_c, 0, 78, 51
2, 229868, Note_off_c, 0, 63, 64
2, 229868, Note_on_c, 0, 59, 38
2, 229896, Note_off_c, 0, 78, 0
2, 229896, Note_on_c, 0, 80, 49
2, 229972, Note_off_c, 0, 80, 0
2, 229972, Note_on_c, 0, 78, 55
2, 230044, Note_off_c, 0, 69, 64
2, 230044, Note_off_c, 0, 78, 0
2, 230044, Note_on_c, 0, 80, 51
2, 230116, Note_off_c, 0, 80, 0
2, 230120, Note_on_c, 0, 78, 59
2, 230196, Note_off_c, 0, 78, 0
2, 230196, Note_on_c, 0, 80, 52
2, 230260, Note_off_c, 0, 80, 0
2, 230260, Note_on_c, 0, 78, 55
2, 230328, Note_off_c, 0, 78, 0
2, 230332, Note_on_c, 0, 80, 59
2, 230396, Note_off_c, 0, 80, 0
2, 230396, Note_on_c, 0, 69, 56
2, 230400, Note_on_c, 0, 78, 59
2, 230404, Note_on_c, 0, 63, 40
2, 230480, Note_off_c, 0, 78, 0
2, 230480, Note_on_c, 0, 80, 47
2, 230548, Note_off_c, 0, 80, 0
2, 230556, Note_on_c, 0, 78, 58
2, 230628, Note_off_c, 0, 78, 0
2, 230628, Note_on_c, 0, 80, 45
2, 230704, Note_off_c, 0, 80, 0
2, 230712, Note_on_c, 0, 78, 49
2, 230792, Note_off_c, 0, 78, 0
2, 230796, Note_on_c, 0, 80, 53
2, 230860, Note_off_c, 0, 80, 0
2, 230864, Note_on_c, 0, 78, 50
2, 230940, Note_off_c, 0, 78, 0
2, 230940, Note_on_c, 0, 80, 49
2, 231008, Note_off_c, 0, 80, 0
2, 231016, Note_on_c, 0, 78, 53
2, 231080, Note_off_c, 0, 78, 0
2, 231088, Note_on_c, 0, 80, 40
2, 231112, Note_off_c, 0, 59, 64
2, 231160, Note_off_c, 0, 80, 0
2, 231160, Note_on_c, 0, 78, 42
2, 231188, Note_off_c, 0, 69, 0
2, 231236, Note_off_c, 0, 78, 0
2, 231252, Note_on_c, 0, 80, 49
2, 231304, Note_off_c, 0, 80, 0
2, 231316, Note_on_c, 0, 78, 55
2, 231372, Note_off_c, 0, 78, 0
2, 231372, Note_on_c, 0, 80, 64
2, 231376, Note_off_c, 0, 63, 64
2, 231452, Note_off_c, 0, 80, 0
2, 231464, Note_on_c, 0, 78, 62
2, 231488, Note_on_c, 0, 69, 50
2, 231504, Note_on_c, 0, 60, 40
2, 231508, Note_on_c, 0, 62, 36
2, 231556, Control_c, 0, 64, 88
2, 231568, Note_off_c, 0, 78, 0
2, 231568, Control_c, 0, 64, 40
2, 231576, Note_on_c, 0, 79, 53
2, 231576, Control_c, 0, 64, 0
2, 231644, Note_off_c, 0, 79, 0
2, 231644, Control_c, 0, 64, 40
2, 231652, Note_on_c, 0, 78, 57
2, 231652, Control_c, 0, 64, 104
2, 231664, Control_c, 0, 64, 127
2, 231728, Note_off_c, 0, 78, 0
2, 231736, Note_on_c, 0, 79, 52
2, 231800, Note_off_c, 0, 79, 0
2, 231812, Note_on_c, 0, 78, 51
2, 231888, Note_off_c, 0, 78, 64
2, 231892, Note_on_c, 0, 79, 54
2, 231968, Note_off_c, 0, 79, 0
2, 231972, Note_on_c, 0, 78, 55
2, 232012, Note_off_c, 0, 60, 64
2, 232012, Note_off_c, 0, 62, 64
2, 232024, Note_off_c, 0, 69, 64
2, 232044, Note_off_c, 0, 78, 0
2, 232052, Note_on_c, 0, 79, 62
2, 232136, Note_off_c, 0, 79, 0
2, 232144, Note_on_c, 0, 78, 58
2, 232172, Note_on_c, 0, 69, 52
2, 232184, Note_on_c, 0, 62, 46
2, 232184, Note_on_c, 0, 60, 41
2, 232228, Note_off_c, 0, 78, 0
2, 232236, Note_on_c, 0, 79, 55
2, 232260, Control_c, 0, 64, 72
2, 232272, Control_c, 0, 64, 40
2, 232284, Control_c, 0, 64, 0
2, 232308, Note_off_c, 0, 79, 0
2, 232312, Note_on_c, 0, 78, 57
2, 232316, Control_c, 0, 64, 56
2, 232324, Control_c, 0, 64, 88
2, 232336, Control_c, 0, 64, 127
2, 232384, Note_off_c, 0, 78, 0
2, 232392, Note_on_c, 0, 79, 60
2, 232456, Note_off_c, 0, 79, 0
2, 232460, Note_on_c, 0, 78, 53
2, 232544, Note_off_c, 0, 78, 0
2, 232552, Note_on_c, 0, 79, 56
2, 232624, Note_on_c, 0, 78, 49
2, 232628, Note_off_c, 0, 79, 0
2, 232708, Note_off_c, 0, 78, 0
2, 232720, Note_on_c, 0, 79, 49
2, 232788, Note_on_c, 0, 78, 52
2, 232792, Note_off_c, 0, 79, 64
2, 232868, Note_off_c, 0, 78, 0
2, 232876, Note_on_c, 0, 79, 60
2, 232948, Note_off_c, 0, 79, 0
2, 232948, Note_on_c, 0, 78, 60
2, 233032, Note_off_c, 0, 78, 0
2, 233040, Note_on_c, 0, 77, 64
2, 233120, Note_off_c, 0, 77, 0
2, 233124, Note_on_c, 0, 78, 65
2, 233204, Note_off_c, 0, 78, 0
2, 233224, Note_on_c, 0, 79, 66
2, 233308, Note_off_c, 0, 79, 0
2, 233324, Note_on_c, 0, 78, 65
2, 233428, Note_off_c, 0, 78, 64
2, 233440, Note_on_c, 0, 81, 67
2, 233548, Note_off_c, 0, 81, 0
2, 233552, Note_on_c, 0, 79, 65
2, 233672, Note_off_c, 0, 79, 0
2, 233680, Note_on_c, 0, 78, 64
2, 233728, Note_off_c, 0, 60, 64
2, 233732, Note_off_c, 0, 69, 64
2, 233752, Note_off_c, 0, 62, 64
2, 233760, Note_off_c, 0, 78, 0
2, 233840, Note_on_c, 0, 78, 66
2, 233848, Note_on_c, 0, 69, 37
2, 233848, Note_on_c, 0, 62, 38
2, 233848, Note_on_c, 0, 60, 41
2, 234444, Note_off_c, 0, 78, 64
2, 234444, Note_off_c, 0, 60, 64
2, 234452, Note_off_c, 0, 62, 64
2, 234456, Note_off_c, 0, 69, 64
2, 235384, Note_on_c, 0, 78, 69
2, 235404, Note_on_c, 0, 69, 46
2, 235412, Note_on_c, 0, 62, 33
2, 235424, Note_on_c, 0, 60, 37
2, 235468, Control_c, 0, 64, 24
2, 235484, Control_c, 0, 64, 56
2, 235500, Control_c, 0, 64, 72
2, 235516, Control_c, 0, 64, 104
2, 235536, Control_c, 0, 64, 127
2, 235612, Note_off_c, 0, 69, 0
2, 235760, Note_off_c, 0, 60, 0
2, 235780, Note_off_c, 0, 78, 0
2, 235820, Note_on_c, 0, 79, 71
2, 235832, Note_on_c, 0, 67, 44
2, 235844, Note_on_c, 0, 59, 31
2, 235848, Control_c, 0, 64, 104
2, 235864, Control_c, 0, 64, 40
2, 235876, Control_c, 0, 64, 0
2, 235976, Control_c, 0, 64, 72
2, 235992, Control_c, 0, 64, 127
2, 236108, Note_off_c, 0, 79, 0
2, 236236, Note_off_c, 0, 59, 0
2, 236240, Note_on_c, 0, 76, 76
2, 236248, Note_on_c, 0, 58, 40
2, 236268, Control_c, 0, 64, 72
2, 236284, Control_c, 0, 64, 24
2, 236304, Control_c, 0, 64, 0
2, 236336, Control_c, 0, 64, 24
2, 236352, Control_c, 0, 64, 72
2, 236372, Control_c, 0, 64, 127
2, 236380, Note_off_c, 0, 67, 0
2, 236408, Note_off_c, 0, 58, 0
2, 236412, Note_off_c, 0, 76, 0
2, 236420, Note_off_c, 0, 62, 0
2, 236628, Note_on_c, 0, 77, 75
2, 236640, Note_on_c, 0, 65, 57
2, 236656, Note_on_c, 0, 57, 45
2, 236664, Note_on_c, 0, 60, 28
2, 236668, Control_c, 0, 64, 104
2, 236680, Control_c, 0, 64, 40
2, 236700, Control_c, 0, 64, 0
2, 236748, Control_c, 0, 64, 40
2, 236760, Control_c, 0, 64, 88
2, 236780, Control_c, 0, 64, 127
2, 236784, Note_off_c, 0, 57, 0
2, 236904, Note_off_c, 0, 77, 0
2, 237024, Note_on_c, 0, 72, 81
2, 237044, Note_on_c, 0, 56, 47
2, 237056, Control_c, 0, 64, 72
2, 237072, Control_c, 0, 64, 0
2, 237140, Control_c, 0, 64, 40
2, 237156, Control_c, 0, 64, 88
2, 237172, Control_c, 0, 64, 127
2, 237192, Note_off_c, 0, 65, 0
2, 237224, Note_off_c, 0, 56, 0
2, 237240, Note_off_c, 0, 60, 0
2, 237268, Note_off_c, 0, 72, 0
2, 237400, Note_on_c, 0, 74, 81
2, 237420, Note_on_c, 0, 65, 52
2, 237436, Note_on_c, 0, 59, 33
2, 237436, Note_on_c, 0, 55, 41
2, 237452, Control_c, 0, 64, 104
2, 237468, Control_c, 0, 64, 56
2, 237488, Control_c, 0, 64, 0
2, 237536, Control_c, 0, 64, 72
2, 237552, Control_c, 0, 64, 127
2, 237576, Note_off_c, 0, 65, 0
2, 237628, Note_off_c, 0, 55, 0
2, 237632, Note_off_c, 0, 59, 0
2, 237648, Note_off_c, 0, 74, 0
2, 237820, Note_on_c, 0, 75, 75
2, 237820, Note_on_c, 0, 54, 43
2, 237820, Note_on_c, 0, 66, 47
2, 237896, Control_c, 0, 64, 104
2, 237912, Control_c, 0, 64, 40
2, 237928, Control_c, 0, 64, 0
2, 237976, Control_c, 0, 64, 72
2, 237992, Control_c, 0, 64, 127
2, 238008, Note_off_c, 0, 75, 0
2, 238008, Note_off_c, 0, 66, 0
2, 238072, Note_off_c, 0, 54, 0
2, 238236, Note_on_c, 0, 71, 71
2, 238236, Note_on_c, 0, 59, 43
2, 238236, Note_on_c, 0, 56, 41
2, 238236, Note_on_c, 0, 64, 45
2, 238288, Control_c, 0, 64, 88
2, 238304, Control_c, 0, 64, 24
2, 238324, Control_c, 0, 64, 0
2, 238372, Control_c, 0, 64, 24
2, 238388, Control_c, 0, 64, 88
2, 238404, Control_c, 0, 64, 127
2, 238500, Note_off_c, 0, 59, 0
2, 238504, Note_off_c, 0, 71, 0
2, 238516, Note_off_c, 0, 64, 0
2, 238536, Note_off_c, 0, 56, 0
2, 238640, Note_on_c, 0, 63, 58
2, 238672, Note_on_c, 0, 54, 37
2, 238748, Control_c, 0, 64, 88
2, 238764, Control_c, 0, 64, 24
2, 238780, Control_c, 0, 64, 0
2, 238848, Control_c, 0, 64, 24
2, 238864, Control_c, 0, 64, 88
2, 238880, Control_c, 0, 64, 127
2, 239004, Note_off_c, 0, 63, 0
2, 239032, Note_on_c, 0, 68, 60
2, 239056, Note_on_c, 0, 60, 47
2, 239380, Note_off_c, 0, 60, 0
2, 239420, Note_on_c, 0, 64, 62
2, 239472, Control_c, 0, 64, 72
2, 239488, Control_c, 0, 64, 40
2, 239536, Control_c, 0, 64, 88
2, 239552, Control_c, 0, 64, 127
2, 239580, Note_off_c, 0, 68, 0
2, 239752, Note_off_c, 0, 64, 0
2, 239784, Note_on_c, 0, 70, 62
2, 239792, Note_on_c, 0, 61, 43
2, 240048, Note_off_c, 0, 54, 0
2, 240148, Note_off_c, 0, 70, 0
2, 240168, Note_on_c, 0, 66, 59
2, 240204, Note_off_c, 0, 61, 0
2, 240484, Note_off_c, 0, 66, 0
2, 240516, Note_on_c, 0, 71, 70
2, 240516, Note_on_c, 0, 63, 45
2, 240632, Note_off_c, 0, 63, 0
2, 240640, Note_off_c, 0, 71, 0
2, 240892, Note_on_c, 0, 75, 68
2, 240892, Note_on_c, 0, 64, 46
2, 241028, Control_c, 0, 64, 56
2, 241044, Control_c, 0, 64, 0
2, 241128, Control_c, 0, 64, 56
2, 241144, Control_c, 0, 64, 127
2, 241256, Note_on_c, 0, 73, 65
2, 241256, Note_on_c, 0, 68, 47
2, 241288, Note_off_c, 0, 75, 0
2, 241344, Note_off_c, 0, 68, 0
2, 241392, Note_off_c, 0, 73, 0
2, 241632, Note_on_c, 0, 70, 67
2, 241652, Note_on_c, 0, 66, 44
2, 241720, Control_c, 0, 64, 72
2, 241736, Control_c, 0, 64, 0
2, 241748, Note_off_c, 0, 64, 0
2, 241800, Control_c, 0, 64, 24
2, 241812, Control_c, 0, 64, 88
2, 241832, Control_c, 0, 64, 127
2, 241896, Note_off_c, 0, 70, 0
2, 242012, Note_off_c, 0, 66, 0
2, 242016, Note_on_c, 0, 71, 70
2, 242016, Note_on_c, 0, 63, 52
2, 242384, Note_off_c, 0, 71, 0
2, 242400, Note_on_c, 0, 68, 53
2, 242436, Control_c, 0, 64, 88
2, 242440, Note_off_c, 0, 63, 0
2, 242456, Control_c, 0, 64, 24
2, 242472, Control_c, 0, 64, 0
2, 242524, Control_c, 0, 64, 40
2, 242540, Control_c, 0, 64, 104
2, 242556, Control_c, 0, 64, 127
2, 242728, Note_off_c, 0, 68, 0
2, 242744, Note_on_c, 0, 73, 69
2, 242760, Note_on_c, 0, 64, 62
2, 243116, Note_off_c, 0, 64, 0
2, 243128, Note_on_c, 0, 70, 62
2, 243160, Control_c, 0, 64, 104
2, 243176, Control_c, 0, 64, 56
2, 243192, Control_c, 0, 64, 24
2, 243244, Control_c, 0, 64, 127
2, 243404, Note_off_c, 0, 73, 0
2, 243472, Note_on_c, 0, 75, 83
2, 243476, Note_off_c, 0, 70, 0
2, 243484, Note_on_c, 0, 66, 60
2, 243552, Note_off_c, 0, 66, 0
2, 243568, Note_off_c, 0, 75, 0
2, 243848, Note_on_c, 0, 78, 79
2, 243868, Note_on_c, 0, 68, 44
2, 243964, Control_c, 0, 64, 72
2, 243980, Control_c, 0, 64, 0
2, 244080, Control_c, 0, 64, 72
2, 244096, Control_c, 0, 64, 127
2, 244160, Note_off_c, 0, 78, 0
2, 244232, Note_on_c, 0, 76, 74
2, 244260, Note_on_c, 0, 71, 47
2, 244356, Note_off_c, 0, 71, 0
2, 244520, Note_off_c, 0, 76, 0
2, 244596, Note_on_c, 0, 73, 72
2, 244608, Note_on_c, 0, 70, 59
2, 244636, Control_c, 0, 64, 72
2, 244652, Control_c, 0, 64, 0
2, 244692, Note_off_c, 0, 68, 0
2, 244736, Control_c, 0, 64, 40
2, 244752, Control_c, 0, 64, 127
2, 244916, Note_off_c, 0, 73, 0
2, 244924, Note_off_c, 0, 70, 0
2, 244964, Note_on_c, 0, 75, 77
2, 244980, Note_on_c, 0, 66, 45
2, 245180, Note_off_c, 0, 66, 0
2, 245260, Note_off_c, 0, 75, 0
2, 245332, Note_on_c, 0, 71, 70
2, 245332, Note_on_c, 0, 56, 49
2, 245360, Control_c, 0, 64, 104
2, 245376, Control_c, 0, 64, 40
2, 245388, Control_c, 0, 64, 0
2, 245456, Control_c, 0, 64, 56
2, 245472, Control_c, 0, 64, 127
2, 245584, Note_off_c, 0, 71, 0
2, 245660, Note_off_c, 0, 56, 0
2, 245704, Note_on_c, 0, 76, 82
2, 245704, Note_on_c, 0, 64, 68
2, 245704, Note_on_c, 0, 49, 47
2, 245704, Note_on_c, 0, 61, 44
2, 245840, Note_off_c, 0, 49, 0
2, 245964, Note_off_c, 0, 61, 0
2, 246004, Note_off_c, 0, 64, 0
2, 246004, Note_off_c, 0, 76, 0
2, 246092, Note_on_c, 0, 75, 80
2, 246092, Note_on_c, 0, 55, 50
2, 246092, Note_on_c, 0, 70, 68
2, 246116, Control_c, 0, 64, 56
2, 246132, Control_c, 0, 64, 0
2, 246180, Control_c, 0, 64, 56
2, 246188, Note_off_c, 0, 70, 0
2, 246196, Control_c, 0, 64, 127
2, 246248, Note_off_c, 0, 75, 0
2, 246288, Note_off_c, 0, 55, 0
2, 246496, Note_on_c, 0, 79, 86
2, 246496, Note_on_c, 0, 73, 57
2, 246496, Note_on_c, 0, 51, 49
2, 246496, Note_on_c, 0, 63, 44
2, 246496, Note_on_c, 0, 67, 60
2, 246504, Control_c, 0, 64, 56
2, 246520, Control_c, 0, 64, 0
2, 246572, Note_off_c, 0, 67, 0
2, 246572, Control_c, 0, 64, 88
2, 246588, Control_c, 0, 64, 127
2, 246600, Note_off_c, 0, 51, 0
2, 246612, Note_off_c, 0, 73, 0
2, 246680, Note_off_c, 0, 79, 0
2, 246680, Note_off_c, 0, 63, 0
2, 246744, Note_on_c, 0, 68, 66
2, 246804, Note_off_c, 0, 68, 0
2, 246852, Note_on_c, 0, 68, 68
2, 246868, Control_c, 0, 64, 24
2, 246884, Control_c, 0, 64, 0
2, 246932, Note_on_c, 0, 71, 74
2, 246948, Note_off_c, 0, 68, 0
2, 246948, Control_c, 0, 64, 104
2, 246968, Control_c, 0, 64, 127
2, 247004, Note_off_c, 0, 71, 0
2, 247088, Note_on_c, 0, 82, 81
2, 247088, Note_on_c, 0, 52, 53
2, 247088, Note_on_c, 0, 62, 50
2, 247296, Note_off_c, 0, 82, 0
2, 247312, Note_off_c, 0, 52, 0
2, 247476, Note_off_c, 0, 62, 0
2, 247512, Note_on_c, 0, 74, 59
2, 247512, Note_on_c, 0, 53, 50
2, 247512, Note_on_c, 0, 59, 48
2, 247516, Note_on_c, 0, 80, 76
2, 247592, Control_c, 0, 64, 72
2, 247608, Control_c, 0, 64, 0
2, 247672, Control_c, 0, 64, 24
2, 247684, Control_c, 0, 64, 127
2, 247732, Note_off_c, 0, 53, 0
2, 247744, Note_off_c, 0, 74, 0
2, 247752, Note_off_c, 0, 59, 0
2, 247872, Note_off_c, 0, 80, 0
2, 247928, Note_on_c, 0, 73, 68
2, 247928, Note_on_c, 0, 54, 45
2, 247928, Note_on_c, 0, 66, 48
2, 247928, Note_on_c, 0, 70, 51
2, 248032, Control_c, 0, 64, 40
2, 248048, Control_c, 0, 64, 0
2, 248132, Control_c, 0, 64, 72
2, 248148, Control_c, 0, 64, 127
2, 248212, Note_off_c, 0, 70, 0
2, 248292, Note_off_c, 0, 73, 0
2, 248312, Note_off_c, 0, 54, 0
2, 248332, Note_on_c, 0, 75, 71
2, 248332, Note_on_c, 0, 69, 53
2, 248332, Note_on_c, 0, 59, 49
2, 248384, Note_off_c, 0, 66, 0
2, 248476, Note_off_c, 0, 59, 0
2, 248556, Note_off_c, 0, 75, 0
2, 248564, Note_off_c, 0, 69, 0
2, 248712, Note_on_c, 0, 76, 70
2, 248712, Note_on_c, 0, 68, 46
2, 248712, Note_on_c, 0, 64, 44
2, 248712, Note_on_c, 0, 52, 48
2, 248820, Control_c, 0, 64, 88
2, 248836, Control_c, 0, 64, 24
2, 248852, Control_c, 0, 64, 0
2, 248936, Control_c, 0, 64, 72
2, 248952, Control_c, 0, 64, 127
2, 249100, Note_on_c, 0, 70, 65
2, 249100, Note_on_c, 0, 61, 42
2, 249108, Note_off_c, 0, 68, 0
2, 249120, Note_off_c, 0, 64, 0
2, 249128, Note_off_c, 0, 52, 0
2, 249340, Note_off_c, 0, 61, 0
2, 249444, Note_off_c, 0, 76, 0
2, 249512, Note_on_c, 0, 67, 53
2, 249536, Note_on_c, 0, 63, 33
2, 249552, Note_on_c, 0, 51, 38
2, 249560, Control_c, 0, 64, 104
2, 249576, Control_c, 0, 64, 40
2, 249592, Control_c, 0, 64, 0
2, 249656, Control_c, 0, 64, 88
2, 249672, Control_c, 0, 64, 127
2, 249716, Note_off_c, 0, 67, 0
2, 249784, Note_off_c, 0, 70, 0
2, 249860, Note_off_c, 0, 63, 0
2, 249916, Note_on_c, 0, 72, 75
2, 249924, Note_on_c, 0, 66, 48
2, 249932, Note_off_c, 0, 51, 0
2, 249940, Note_on_c, 0, 56, 36
2, 250124, Note_off_c, 0, 66, 0
2, 250208, Note_off_c, 0, 72, 0
2, 250208, Note_off_c, 0, 56, 0
2, 250332, Note_on_c, 0, 75, 76
2, 250332, Note_on_c, 0, 65, 59
2, 250332, Note_on_c, 0, 49, 54
2, 250344, Control_c, 0, 64, 88
2, 250364, Control_c, 0, 64, 24
2, 250380, Control_c, 0, 64, 0
2, 250440, Control_c, 0, 64, 72
2, 250456, Control_c, 0, 64, 127
2, 250492, Note_off_c, 0, 49, 0
2, 250492, Note_off_c, 0, 65, 0
2, 250532, Note_off_c, 0, 75, 0
2, 250832, Note_on_c, 0, 73, 69
2, 250832, Note_on_c, 0, 42, 46
2, 250832, Note_on_c, 0, 64, 53
2, 250832, Note_on_c, 0, 58, 43
2, 250920, Control_c, 0, 64, 56
2, 250936, Control_c, 0, 64, 0
2, 251028, Note_off_c, 0, 42, 0
2, 251048, Control_c, 0, 64, 88
2, 251068, Control_c, 0, 64, 127
2, 251072, Note_off_c, 0, 64, 0
2, 251116, Note_off_c, 0, 73, 0
2, 251128, Note_off_c, 0, 58, 0
2, 251356, Note_on_c, 0, 71, 58
2, 251356, Note_on_c, 0, 59, 42
2, 251356, Note_on_c, 0, 63, 40
2, 251356, Note_on_c, 0, 47, 41
2, 251356, Note_on_c, 0, 54, 40
2, 251444, Control_c, 0, 64, 72
2, 251460, Control_c, 0, 64, 0
2, 251544, Control_c, 0, 64, 88
2, 251560, Control_c, 0, 64, 127
2, 251612, Note_off_c, 0, 59, 0
2, 251612, Note_off_c, 0, 47, 0
2, 251616, Note_off_c, 0, 54, 0
2, 251640, Note_off_c, 0, 63, 0
2, 251716, Note_off_c, 0, 71, 0
2, 251804, Note_on_c, 0, 54, 54
2, 252124, Note_off_c, 0, 54, 0
2, 252188, Note_on_c, 0, 83, 78
2, 252544, Note_on_c, 0, 54, 45
2, 252720, Note_on_c, 0, 82, 68
2, 252736, Note_off_c, 0, 83, 0
2, 252900, Note_off_c, 0, 54, 0
2, 252924, Note_off_c, 0, 82, 0
2, 252932, Note_on_c, 0, 81, 74
2, 252932, Note_on_c, 0, 66, 44
2, 252932, Note_on_c, 0, 59, 42
2, 252932, Note_on_c, 0, 63, 44
2, 253088, Note_off_c, 0, 81, 0
2, 253120, Note_on_c, 0, 80, 68
2, 253276, Note_off_c, 0, 80, 0
2, 253292, Note_on_c, 0, 78, 66
2, 253324, Note_on_c, 0, 54, 27
2, 253400, Note_off_c, 0, 78, 0
2, 253480, Note_on_c, 0, 81, 69
2, 253560, Note_off_c, 0, 54, 0
2, 253596, Note_off_c, 0, 81, 0
2, 253656, Note_on_c, 0, 80, 67
2, 253804, Note_off_c, 0, 80, 0
2, 253812, Note_on_c, 0, 78, 69
2, 253832, Note_off_c, 0, 59, 0
2, 253964, Note_off_c, 0, 63, 0
2, 253980, Note_off_c, 0, 78, 0
2, 253984, Note_off_c, 0, 66, 0
2, 254016, Note_on_c, 0, 76, 67
2, 254016, Note_on_c, 0, 54, 47
2, 254096, Note_off_c, 0, 54, 0
2, 254168, Note_off_c, 0, 76, 0
2, 254188, Note_on_c, 0, 80, 67
2, 254372, Note_off_c, 0, 80, 0
2, 254392, Note_on_c, 0, 78, 62
2, 254392, Note_on_c, 0, 35, 54
2, 254392, Control_c, 0, 64, 40
2, 254412, Control_c, 0, 64, 0
2, 254496, Control_c, 0, 64, 88
2, 254512, Control_c, 0, 64, 127
2, 254568, Note_off_c, 0, 78, 0
2, 254572, Note_off_c, 0, 35, 0
2, 254588, Note_on_c, 0, 76, 67
2, 254728, Note_off_c, 0, 76, 0
2, 254772, Note_on_c, 0, 75, 65
2, 254772, Note_on_c, 0, 54, 47
2, 254880, Note_off_c, 0, 75, 0
2, 254944, Note_on_c, 0, 78, 68
2, 255088, Note_off_c, 0, 78, 0
2, 255136, Note_on_c, 0, 76, 72
2, 255168, Note_off_c, 0, 54, 0
2, 255260, Note_off_c, 0, 76, 0
2, 255300, Note_on_c, 0, 75, 70
2, 255452, Note_off_c, 0, 75, 0
2, 255480, Note_on_c, 0, 73, 69
2, 255480, Note_on_c, 0, 54, 44
2, 255648, Note_off_c, 0, 73, 0
2, 255676, Note_on_c, 0, 76, 69
2, 255820, Note_off_c, 0, 54, 0
2, 255860, Note_off_c, 0, 76, 0
2, 255864, Note_on_c, 0, 75, 70
2, 255864, Note_on_c, 0, 59, 47
2, 255864, Note_on_c, 0, 63, 43
2, 255864, Note_on_c, 0, 66, 44
2, 255876, Control_c, 0, 64, 72
2, 255892, Control_c, 0, 64, 0
2, 255988, Control_c, 0, 64, 72
2, 256004, Control_c, 0, 64, 127
2, 256016, Note_off_c, 0, 75, 0
2, 256040, Note_on_c, 0, 73, 60
2, 256224, Note_off_c, 0, 73, 0
2, 256228, Note_on_c, 0, 71, 65
2, 256228, Note_on_c, 0, 54, 45
2, 256380, Note_off_c, 0, 71, 0
2, 256408, Note_off_c, 0, 59, 0
2, 256408, Note_on_c, 0, 69, 62
2, 256412, Note_off_c, 0, 66, 0
2, 256440, Note_off_c, 0, 63, 0
2, 256488, Note_off_c, 0, 54, 0
2, 256536, Note_off_c, 0, 69, 0
2, 256584, Note_on_c, 0, 71, 66
2, 256716, Note_off_c, 0, 71, 0
2, 256768, Note_on_c, 0, 73, 61
2, 256944, Note_off_c, 0, 73, 0
2, 256964, Note_on_c, 0, 75, 65
2, 256964, Note_on_c, 0, 54, 51
2, 257024, Note_off_c, 0, 54, 0
2, 257112, Note_off_c, 0, 75, 0
2, 257148, Note_on_c, 0, 69, 62
2, 257368, Note_off_c, 0, 69, 0
2, 257400, Note_on_c, 0, 68, 62
2, 257400, Note_on_c, 0, 35, 44
2, 257464, Control_c, 0, 64, 40
2, 257480, Control_c, 0, 64, 0
2, 257548, Note_off_c, 0, 35, 0
2, 257564, Control_c, 0, 64, 72
2, 257568, Note_off_c, 0, 68, 0
2, 257580, Control_c, 0, 64, 127
2, 257620, Note_on_c, 0, 69, 63
2, 257760, Note_off_c, 0, 69, 0
2, 257812, Note_on_c, 0, 71, 65
2, 257812, Note_on_c, 0, 56, 46
2, 257936, Note_off_c, 0, 71, 0
2, 257984, Note_on_c, 0, 73, 65
2, 258096, Note_off_c, 0, 56, 0
2, 258156, Note_off_c, 0, 73, 0
2, 258176, Note_on_c, 0, 75, 73
2, 258248, Note_off_c, 0, 75, 0
2, 258356, Note_on_c, 0, 76, 75
2, 258480, Note_off_c, 0, 76, 0
2, 258536, Note_on_c, 0, 78, 77
2, 258552, Note_on_c, 0, 56, 43
2, 258700, Note_off_c, 0, 78, 0
2, 258716, Note_on_c, 0, 79, 77
2, 258812, Note_off_c, 0, 79, 0
2, 258884, Note_on_c, 0, 68, 46
2, 258892, Note_off_c, 0, 56, 0
2, 258904, Note_on_c, 0, 80, 79
2, 258904, Note_on_c, 0, 64, 43
2, 258904, Note_on_c, 0, 59, 24
2, 259084, Note_off_c, 0, 80, 0
2, 259108, Note_on_c, 0, 85, 76
2, 259220, Note_off_c, 0, 85, 0
2, 259292, Note_on_c, 0, 56, 44
2, 259296, Note_on_c, 0, 83, 76
2, 259428, Note_off_c, 0, 83, 0
2, 259488, Note_on_c, 0, 87, 80
2, 259616, Note_off_c, 0, 87, 0
2, 259672, Note_on_c, 0, 88, 74
2, 259684, Note_off_c, 0, 56, 0
2, 259856, Note_on_c, 0, 91, 77
2, 259860, Note_off_c, 0, 88, 0
2, 260008, Note_off_c, 0, 91, 0
2, 260020, Note_off_c, 0, 59, 0
2, 260044, Note_off_c, 0, 64, 0
2, 260052, Note_off_c, 0, 68, 0
2, 260056, Note_on_c, 0, 92, 80
2, 260072, Note_on_c, 0, 56, 37
2, 260164, Note_off_c, 0, 56, 0
2, 260228, Note_off_c, 0, 92, 0
2, 260252, Note_on_c, 0, 94, 78
2, 260312, Note_off_c, 0, 94, 0
2, 260512, Note_on_c, 0, 95, 82
2, 260536, Note_on_c, 0, 35, 53
2, 260564, Control_c, 0, 64, 72
2, 260580, Control_c, 0, 64, 0
2, 260664, Control_c, 0, 64, 104
2, 260668, Note_off_c, 0, 35, 0
2, 260680, Control_c, 0, 64, 127
2, 260764, Note_off_c, 0, 95, 0
2, 260788, Note_on_c, 0, 99, 80
2, 260924, Note_off_c, 0, 99, 0
2, 260992, Note_on_c, 0, 97, 77
2, 260992, Note_on_c, 0, 54, 62
2, 261124, Note_off_c, 0, 97, 0
2, 261168, Note_on_c, 0, 95, 78
2, 261316, Note_off_c, 0, 95, 0
2, 261340, Note_on_c, 0, 92, 69
2, 261524, Note_off_c, 0, 92, 0
2, 261532, Note_off_c, 0, 54, 0
2, 261532, Note_on_c, 0, 88, 72
2, 261604, Note_off_c, 0, 88, 0
2, 261732, Note_on_c, 0, 85, 71
2, 261732, Note_on_c, 0, 54, 49
2, 261852, Note_off_c, 0, 85, 0
2, 261916, Note_on_c, 0, 83, 69
2, 262044, Note_off_c, 0, 83, 0
2, 262088, Note_on_c, 0, 80, 65
2, 262104, Note_on_c, 0, 64, 60
2, 262112, Note_off_c, 0, 54, 0
2, 262240, Note_off_c, 0, 80, 0
2, 262284, Note_on_c, 0, 76, 63
2, 262348, Note_off_c, 0, 76, 0
2, 262464, Note_on_c, 0, 73, 67
2, 262480, Note_on_c, 0, 54, 43
2, 262604, Note_off_c, 0, 73, 0
2, 262668, Note_on_c, 0, 71, 58
2, 262680, Note_off_c, 0, 64, 0
2, 262756, Note_off_c, 0, 54, 0
2, 262780, Note_off_c, 0, 71, 0
2, 262844, Note_on_c, 0, 68, 57
2, 262976, Note_off_c, 0, 68, 0
2, 263056, Note_on_c, 0, 64, 55
2, 263192, Note_off_c, 0, 64, 0
2, 263236, Note_on_c, 0, 61, 54
2, 263268, Note_on_c, 0, 54, 42
2, 263324, Note_off_c, 0, 54, 0
2, 263388, Note_off_c, 0, 61, 0
2, 263436, Note_on_c, 0, 56, 57
2, 263564, Note_off_c, 0, 56, 0
2, 263680, Note_on_c, 0, 54, 63
2, 263716, Control_c, 0, 64, 88
2, 263720, Note_on_c, 0, 35, 46
2, 263732, Control_c, 0, 64, 0
2, 263808, Control_c, 0, 64, 40
2, 263820, Note_off_c, 0, 35, 0
2, 263828, Control_c, 0, 64, 127
2, 263864, Note_off_c, 0, 54, 0
2, 263892, Note_on_c, 0, 63, 55
2, 264064, Note_off_c, 0, 63, 0
2, 264080, Note_on_c, 0, 66, 49
2, 264128, Note_on_c, 0, 54, 29
2, 264132, Note_off_c, 0, 66, 0
2, 264276, Note_on_c, 0, 75, 74
2, 264368, Note_off_c, 0, 54, 0
2, 264536, Note_off_c, 0, 75, 0
2, 264544, Note_on_c, 0, 83, 82
2, 264904, Note_on_c, 0, 54, 38
2, 265120, Note_on_c, 0, 82, 72
2, 265164, Note_off_c, 0, 83, 0
2, 265316, Note_off_c, 0, 54, 0
2, 265340, Note_off_c, 0, 82, 0
2, 265364, Note_on_c, 0, 81, 66
2, 265384, Note_on_c, 0, 66, 25
2, 265392, Note_on_c, 0, 63, 31
2, 265408, Note_on_c, 0, 59, 36
2, 265468, Control_c, 0, 64, 104
2, 265484, Control_c, 0, 64, 24
2, 265500, Control_c, 0, 64, 0
2, 265552, Note_off_c, 0, 81, 0
2, 265568, Control_c, 0, 64, 104
2, 265584, Note_on_c, 0, 79, 64
2, 265584, Control_c, 0, 64, 127
2, 265716, Note_off_c, 0, 79, 0
2, 265748, Note_on_c, 0, 78, 57
2, 265772, Note_on_c, 0, 54, 36
2, 265812, Note_off_c, 0, 78, 0
2, 265936, Note_on_c, 0, 81, 68
2, 266048, Note_off_c, 0, 81, 0
2, 266072, Note_off_c, 0, 54, 0
2, 266124, Note_on_c, 0, 79, 64
2, 266244, Note_off_c, 0, 79, 0
2, 266280, Note_on_c, 0, 78, 62
2, 266428, Note_off_c, 0, 78, 0
2, 266472, Note_off_c, 0, 59, 0
2, 266472, Note_on_c, 0, 76, 62
2, 266488, Note_on_c, 0, 54, 45
2, 266496, Note_off_c, 0, 66, 0
2, 266532, Note_off_c, 0, 63, 0
2, 266552, Note_off_c, 0, 54, 0
2, 266596, Note_off_c, 0, 76, 0
2, 266660, Note_on_c, 0, 79, 66
2, 266792, Note_off_c, 0, 79, 0
2, 266860, Note_on_c, 0, 78, 61
2, 266872, Note_on_c, 0, 47, 49
2, 266896, Control_c, 0, 64, 40
2, 266912, Control_c, 0, 64, 0
2, 266976, Control_c, 0, 64, 88
2, 266996, Control_c, 0, 64, 127
2, 267032, Note_off_c, 0, 78, 0
2, 267056, Note_on_c, 0, 76, 68
2, 267216, Note_off_c, 0, 76, 0
2, 267232, Note_on_c, 0, 75, 71
2, 267244, Note_on_c, 0, 54, 48
2, 267284, Note_off_c, 0, 47, 0
2, 267380, Note_off_c, 0, 75, 0
2, 267392, Note_off_c, 0, 54, 0
2, 267412, Note_on_c, 0, 79, 74
2, 267528, Note_off_c, 0, 79, 0
2, 267600, Note_on_c, 0, 78, 67
2, 267744, Note_off_c, 0, 78, 0
2, 267772, Note_on_c, 0, 76, 69
2, 267904, Note_off_c, 0, 76, 0
2, 267944, Note_on_c, 0, 75, 64
2, 267976, Note_on_c, 0, 54, 37
2, 268080, Note_off_c, 0, 75, 0
2, 268128, Note_on_c, 0, 76, 64
2, 268292, Note_off_c, 0, 76, 0
2, 268300, Note_off_c, 0, 54, 0
2, 268308, Note_on_c, 0, 75, 57
2, 268344, Note_on_c, 0, 63, 27
2, 268348, Note_on_c, 0, 66, 22
2, 268372, Control_c, 0, 64, 56
2, 268388, Note_on_c, 0, 59, 29
2, 268388, Control_c, 0, 64, 0
2, 268456, Control_c, 0, 64, 56
2, 268472, Note_off_c, 0, 75, 0
2, 268472, Control_c, 0, 64, 127
2, 268496, Note_on_c, 0, 72, 65
2, 268652, Note_off_c, 0, 72, 0
2, 268680, Note_on_c, 0, 71, 63
2, 268720, Note_on_c, 0, 54, 25
2, 268824, Note_off_c, 0, 71, 0
2, 268860, Note_on_c, 0, 69, 61
2, 268976, Note_off_c, 0, 54, 0
2, 268984, Note_off_c, 0, 69, 0
2, 269052, Note_on_c, 0, 71, 62
2, 269096, Note_off_c, 0, 66, 0
2, 269188, Note_off_c, 0, 71, 0
2, 269236, Note_on_c, 0, 72, 63
2, 269296, Note_off_c, 0, 63, 0
2, 269336, Note_off_c, 0, 72, 0
2, 269420, Note_on_c, 0, 66, 48
2, 269452, Note_on_c, 0, 54, 35
2, 269456, Note_off_c, 0, 59, 0
2, 269496, Note_off_c, 0, 54, 0
2, 269552, Note_off_c, 0, 66, 0
2, 269628, Note_on_c, 0, 71, 59
2, 269772, Note_off_c, 0, 71, 0
2, 269832, Control_c, 0, 64, 56
2, 269844, Note_on_c, 0, 35, 46
2, 269844, Note_on_c, 0, 67, 53
2, 269848, Control_c, 0, 64, 0
2, 269912, Control_c, 0, 64, 72
2, 269928, Control_c, 0, 64, 127
2, 269996, Note_off_c, 0, 35, 0
2, 270024, Note_off_c, 0, 67, 0
2, 270044, Note_on_c, 0, 70, 55
2, 270156, Note_off_c, 0, 70, 0
2, 270228, Note_on_c, 0, 71, 54
2, 270268, Note_on_c, 0, 55, 35
2, 270400, Note_off_c, 0, 71, 0
2, 270420, Note_on_c, 0, 73, 62
2, 270576, Note_off_c, 0, 55, 0
2, 270592, Note_on_c, 0, 75, 71
2, 270600, Note_off_c, 0, 73, 0
2, 270664, Note_off_c, 0, 75, 0
2, 270772, Note_on_c, 0, 76, 65
2, 270924, Note_off_c, 0, 76, 0
2, 270964, Note_on_c, 0, 78, 68
2, 270988, Note_on_c, 0, 55, 44
2, 271124, Note_off_c, 0, 78, 0
2, 271148, Note_on_c, 0, 79, 70
2, 271296, Note_off_c, 0, 79, 0
2, 271344, Note_on_c, 0, 82, 80
2, 271352, Note_on_c, 0, 59, 48
2, 271360, Note_off_c, 0, 55, 0
2, 271360, Note_on_c, 0, 67, 39
2, 271372, Note_on_c, 0, 64, 42
2, 271492, Note_off_c, 0, 82, 0
2, 271536, Note_on_c, 0, 84, 70
2, 271692, Note_off_c, 0, 84, 0
2, 271732, Note_on_c, 0, 83, 71
2, 271732, Note_on_c, 0, 55, 47
2, 271860, Note_off_c, 0, 83, 0
2, 271916, Note_on_c, 0, 87, 76
2, 272052, Note_off_c, 0, 87, 0
2, 272116, Note_on_c, 0, 88, 72
2, 272212, Note_off_c, 0, 88, 0
2, 272288, Note_on_c, 0, 90, 82
2, 272344, Note_off_c, 0, 55, 0
2, 272428, Note_off_c, 0, 90, 0
2, 272472, Note_on_c, 0, 55, 48
2, 272488, Note_on_c, 0, 91, 73
2, 272616, Note_off_c, 0, 67, 0
2, 272620, Note_off_c, 0, 64, 0
2, 272628, Note_off_c, 0, 91, 0
2, 272640, Note_off_c, 0, 59, 0
2, 272648, Note_off_c, 0, 55, 0
2, 272684, Note_on_c, 0, 94, 83
2, 272748, Note_off_c, 0, 94, 0
2, 272920, Note_on_c, 0, 96, 81
2, 272920, Note_on_c, 0, 47, 50
2, 272968, Control_c, 0, 64, 72
2, 272984, Control_c, 0, 64, 0
2, 273056, Note_off_c, 0, 47, 0
2, 273084, Control_c, 0, 64, 127
2, 273152, Note_on_c, 0, 99, 81
2, 273160, Note_off_c, 0, 96, 0
2, 273300, Note_off_c, 0, 99, 0
2, 273344, Note_on_c, 0, 97, 79
2, 273344, Note_on_c, 0, 54, 44
2, 273476, Note_off_c, 0, 97, 0
2, 273532, Note_on_c, 0, 95, 78
2, 273696, Note_off_c, 0, 95, 0
2, 273704, Note_on_c, 0, 92, 76
2, 273836, Note_off_c, 0, 54, 0
2, 273900, Note_off_c, 0, 92, 0
2, 273908, Note_on_c, 0, 88, 70
2, 273980, Note_off_c, 0, 88, 0
2, 274104, Note_on_c, 0, 85, 69
2, 274116, Note_on_c, 0, 54, 38
2, 274232, Note_off_c, 0, 85, 0
2, 274288, Note_on_c, 0, 83, 68
2, 274412, Note_off_c, 0, 83, 0
2, 274480, Note_on_c, 0, 80, 59
2, 274484, Note_off_c, 0, 54, 0
2, 274492, Note_on_c, 0, 64, 56
2, 274648, Note_off_c, 0, 80, 0
2, 274684, Note_on_c, 0, 76, 59
2, 274744, Note_off_c, 0, 76, 0
2, 274880, Note_on_c, 0, 73, 54
2, 274916, Note_on_c, 0, 54, 38
2, 275008, Note_off_c, 0, 73, 0
2, 275076, Note_off_c, 0, 64, 0
2, 275084, Note_on_c, 0, 71, 52
2, 275208, Note_off_c, 0, 71, 0
2, 275276, Note_on_c, 0, 68, 49
2, 275336, Note_off_c, 0, 54, 0
2, 275396, Note_off_c, 0, 68, 0
2, 275452, Note_on_c, 0, 64, 58
2, 275588, Note_off_c, 0, 64, 0
2, 275672, Note_on_c, 0, 61, 53
2, 275712, Note_on_c, 0, 54, 34
2, 275776, Note_off_c, 0, 54, 0
2, 275824, Note_off_c, 0, 61, 0
2, 275884, Note_on_c, 0, 54, 59
2, 275940, Note_off_c, 0, 54, 0
2, 276240, Note_on_c, 0, 35, 40
2, 276260, Note_on_c, 0, 75, 73
2, 276316, Control_c, 0, 64, 40
2, 276332, Control_c, 0, 64, 0
2, 276416, Note_off_c, 0, 35, 0
2, 276416, Control_c, 0, 64, 88
2, 276432, Control_c, 0, 64, 127
2, 276644, Note_on_c, 0, 54, 50
2, 277072, Note_off_c, 0, 54, 0
2, 277336, Note_on_c, 0, 54, 44
2, 277712, Note_on_c, 0, 66, 34
2, 277720, Note_off_c, 0, 54, 0
2, 277728, Note_on_c, 0, 63, 33
2, 277760, Note_on_c, 0, 59, 31
2, 277808, Note_off_c, 0, 75, 0
2, 277916, Note_on_c, 0, 76, 68
2, 278092, Note_off_c, 0, 76, 0
2, 278108, Note_on_c, 0, 75, 69
2, 278124, Note_on_c, 0, 54, 46
2, 278272, Note_off_c, 0, 75, 0
2, 278300, Note_on_c, 0, 73, 71
2, 278444, Note_off_c, 0, 73, 0
2, 278472, Note_on_c, 0, 75, 70
2, 278484, Note_off_c, 0, 54, 0
2, 278600, Note_off_c, 0, 75, 0
2, 278648, Note_on_c, 0, 76, 70
2, 278848, Note_off_c, 0, 76, 0
2, 278864, Note_on_c, 0, 78, 70
2, 278876, Note_on_c, 0, 54, 47
2, 278908, Note_off_c, 0, 59, 0
2, 278928, Note_off_c, 0, 66, 0
2, 278960, Note_off_c, 0, 63, 0
2, 279020, Note_off_c, 0, 54, 0
2, 279060, Note_on_c, 0, 66, 68
2, 279080, Note_off_c, 0, 78, 0
2, 279372, Note_on_c, 0, 75, 68
2, 279372, Note_on_c, 0, 47, 46
2, 279392, Control_c, 0, 64, 104
2, 279412, Control_c, 0, 64, 0
2, 279440, Note_off_c, 0, 66, 0
2, 279488, Note_off_c, 0, 47, 0
2, 279512, Control_c, 0, 64, 72
2, 279528, Control_c, 0, 64, 127
2, 279820, Note_on_c, 0, 54, 28
2, 280212, Note_off_c, 0, 54, 0
2, 280508, Note_on_c, 0, 54, 43
2, 280892, Note_on_c, 0, 66, 43
2, 280892, Note_on_c, 0, 63, 35
2, 280892, Note_on_c, 0, 59, 37
2, 280960, Note_off_c, 0, 59, 0
2, 281040, Note_off_c, 0, 75, 0
2, 281120, Note_on_c, 0, 76, 65
2, 281216, Note_off_c, 0, 66, 0
2, 281292, Note_on_c, 0, 59, 1
2, 281324, Note_off_c, 0, 76, 0
2, 281356, Note_on_c, 0, 75, 53
2, 281364, Note_on_c, 0, 68, 53
2, 281496, Control_c, 0, 64, 72
2, 281512, Control_c, 0, 64, 0
2, 281540, Control_c, 0, 64, 24
2, 281560, Control_c, 0, 64, 104
2, 281568, Note_off_c, 0, 75, 0
2, 281576, Control_c, 0, 64, 127
2, 281584, Note_on_c, 0, 73, 59
2, 281764, Note_off_c, 0, 73, 0
2, 281800, Note_on_c, 0, 75, 64
2, 281956, Note_off_c, 0, 75, 0
2, 282024, Note_on_c, 0, 76, 65
2, 282044, Note_off_c, 0, 68, 0
2, 282188, Note_off_c, 0, 63, 0
2, 282216, Note_off_c, 0, 76, 0
2, 282276, Note_on_c, 0, 78, 60
2, 282296, Note_on_c, 0, 66, 49
2, 282392, Control_c, 0, 64, 56
2, 282412, Control_c, 0, 64, 0
2, 282460, Control_c, 0, 64, 56
2, 282480, Control_c, 0, 64, 127
2, 282552, Note_off_c, 0, 78, 0
2, 282556, Note_on_c, 0, 71, 53
2, 282644, Note_off_c, 0, 54, 0
2, 282664, Note_off_c, 0, 59, 0
2, 282836, Note_off_c, 0, 71, 0
2, 282860, Note_off_c, 0, 66, 0
2, 283032, Note_on_c, 0, 83, 60
2, 283052, Note_on_c, 0, 75, 39
2, 283052, Note_on_c, 0, 54, 35
2, 283064, Note_on_c, 0, 63, 31
2, 283072, Note_on_c, 0, 59, 38
2, 283636, Note_off_c, 0, 54, 0
2, 283648, Note_off_c, 0, 83, 0
2, 283648, Note_off_c, 0, 59, 0
2, 283656, Note_off_c, 0, 75, 0
2, 283664, Note_off_c, 0, 63, 0
2, 284788, Note_on_c, 0, 63, 55
2, 284796, Note_on_c, 0, 54, 44
2, 284820, Note_on_c, 0, 59, 46
2, 284828, Note_on_c, 0, 47, 36
2, 284880, Control_c, 0, 64, 40
2, 284896, Control_c, 0, 64, 72
2, 284916, Control_c, 0, 64, 104
2, 284932, Control_c, 0, 64, 127
2, 285224, Note_off_c, 0, 59, 0
2, 285312, Note_off_c, 0, 54, 0
2, 285328, Note_off_c, 0, 63, 0
2, 285460, Note_off_c, 0, 47, 0
2, 285604, Note_on_c, 0, 63, 53
2, 285620, Note_on_c, 0, 42, 37
2, 285620, Control_c, 0, 64, 104
2, 285628, Note_on_c, 0, 54, 25
2, 285632, Note_on_c, 0, 58, 34
2, 285636, Control_c, 0, 64, 40
2, 285652, Control_c, 0, 64, 0
2, 285752, Control_c, 0, 64, 40
2, 285772, Control_c, 0, 64, 72
2, 285788, Control_c, 0, 64, 127
2, 285804, Note_off_c, 0, 63, 0
2, 285836, Note_on_c, 0, 66, 50
2, 285860, Note_off_c, 0, 58, 0
2, 286028, Note_off_c, 0, 66, 0
2, 286084, Note_on_c, 0, 64, 59
2, 286088, Control_c, 0, 64, 104
2, 286108, Control_c, 0, 64, 56
2, 286124, Control_c, 0, 64, 0
2, 286208, Control_c, 0, 64, 72
2, 286224, Control_c, 0, 64, 127
2, 286284, Note_off_c, 0, 64, 0
2, 286428, Note_off_c, 0, 54, 0
2, 286464, Note_on_c, 0, 63, 57
2, 286528, Note_off_c, 0, 63, 0
2, 286564, Note_off_c, 0, 42, 0
2, 286604, Note_on_c, 0, 63, 50
2, 286612, Note_on_c, 0, 54, 45
2, 286632, Note_on_c, 0, 59, 40
2, 286640, Note_on_c, 0, 47, 41
2, 286676, Control_c, 0, 64, 104
2, 286696, Control_c, 0, 64, 56
2, 286712, Control_c, 0, 64, 0
2, 286824, Control_c, 0, 64, 24
2, 286844, Control_c, 0, 64, 72
2, 286860, Control_c, 0, 64, 104
2, 286880, Control_c, 0, 64, 127
2, 287688, Note_off_c, 0, 59, 0
2, 287700, Note_off_c, 0, 63, 0
2, 287704, Note_off_c, 0, 54, 0
2, 287756, Note_off_c, 0, 47, 0
2, 288256, Note_on_c, 0, 63, 53
2, 288264, Note_on_c, 0, 47, 42
2, 288272, Note_on_c, 0, 54, 31
2, 288296, Note_on_c, 0, 59, 35
2, 288336, Control_c, 0, 64, 88
2, 288356, Control_c, 0, 64, 40
2, 288376, Control_c, 0, 64, 0
2, 288492, Control_c, 0, 64, 40
2, 288504, Control_c, 0, 64, 88
2, 288524, Control_c, 0, 64, 127
2, 288584, Note_off_c, 0, 54, 0
2, 288644, Note_off_c, 0, 47, 0
2, 288656, Note_off_c, 0, 59, 0
2, 288664, Note_off_c, 0, 63, 0
2, 289024, Note_on_c, 0, 63, 54
2, 289036, Note_on_c, 0, 56, 39
2, 289044, Control_c, 0, 64, 72
2, 289048, Note_on_c, 0, 59, 45
2, 289048, Note_on_c, 0, 40, 41
2, 289060, Control_c, 0, 64, 0
2, 289164, Control_c, 0, 64, 24
2, 289180, Control_c, 0, 64, 72
2, 289196, Control_c, 0, 64, 104
2, 289212, Note_off_c, 0, 59, 0
2, 289212, Control_c, 0, 64, 127
2, 289276, Note_on_c, 0, 66, 61
2, 289316, Note_off_c, 0, 63, 0
2, 289468, Note_off_c, 0, 66, 0
2, 289536, Note_on_c, 0, 64, 63
2, 289584, Control_c, 0, 64, 104
2, 289600, Control_c, 0, 64, 56
2, 289616, Control_c, 0, 64, 0
2, 289700, Control_c, 0, 64, 24
2, 289712, Control_c, 0, 64, 88
2, 289724, Note_off_c, 0, 64, 0
2, 289732, Control_c, 0, 64, 127
2, 289812, Note_off_c, 0, 40, 0
2, 289876, Note_off_c, 0, 56, 0
2, 289924, Note_on_c, 0, 63, 56
2, 289996, Note_off_c, 0, 63, 0
2, 290080, Note_on_c, 0, 63, 65
2, 290100, Note_on_c, 0, 54, 42
2, 290108, Note_on_c, 0, 59, 41
2, 290116, Note_on_c, 0, 47, 45
2, 290220, Control_c, 0, 64, 104
2, 290236, Control_c, 0, 64, 56
2, 290252, Control_c, 0, 64, 0
2, 290356, Control_c, 0, 64, 24
2, 290372, Control_c, 0, 64, 88
2, 290388, Control_c, 0, 64, 127
2, 290512, Note_off_c, 0, 59, 0
2, 290552, Note_off_c, 0, 54, 0
2, 290656, Note_off_c, 0, 63, 0
2, 290664, Note_off_c, 0, 47, 0
2, 290968, Note_on_c, 0, 63, 60
2, 291008, Control_c, 0, 64, 72
2, 291024, Control_c, 0, 64, 0
2, 291124, Control_c, 0, 64, 40
2, 291140, Control_c, 0, 64, 88
2, 291160, Control_c, 0, 64, 127
2, 291264, Note_on_c, 0, 71, 65
2, 291268, Note_off_c, 0, 63, 0
2, 291556, Note_off_c, 0, 71, 0
2, 291556, Note_on_c, 0, 66, 60
2, 291564, Control_c, 0, 64, 88
2, 291580, Control_c, 0, 64, 40
2, 291596, Control_c, 0, 64, 0
2, 291648, Control_c, 0, 64, 40
2, 291664, Control_c, 0, 64, 72
2, 291676, Note_off_c, 0, 66, 0
2, 291680, Control_c, 0, 64, 127
2, 292028, Note_on_c, 0, 63, 67
2, 292104, Note_off_c, 0, 63, 0
2, 292172, Note_on_c, 0, 63, 61
2, 292172, Note_on_c, 0, 54, 42
2, 292172, Note_on_c, 0, 42, 40
2, 292172, Note_on_c, 0, 59, 49
2, 292316, Control_c, 0, 64, 104
2, 292332, Control_c, 0, 64, 56
2, 292352, Control_c, 0, 64, 0
2, 292436, Control_c, 0, 64, 24
2, 292452, Control_c, 0, 64, 88
2, 292472, Control_c, 0, 64, 127
2, 292704, Note_off_c, 0, 42, 0
2, 292708, Note_off_c, 0, 54, 0
2, 292712, Note_off_c, 0, 59, 0
2, 292728, Note_off_c, 0, 63, 0
2, 293132, Note_on_c, 0, 61, 47
2, 293132, Note_on_c, 0, 54, 31
2, 293132, Note_on_c, 0, 30, 36
2, 293132, Note_on_c, 0, 58, 35
2, 293276, Control_c, 0, 64, 88
2, 293292, Control_c, 0, 64, 56
2, 293308, Control_c, 0, 64, 0
2, 293492, Control_c, 0, 64, 56
2, 293508, Control_c, 0, 64, 104
2, 293524, Control_c, 0, 64, 127
2, 293712, Note_off_c, 0, 30, 0
2, 293752, Note_off_c, 0, 58, 0
2, 293768, Note_off_c, 0, 54, 0
2, 293796, Note_off_c, 0, 61, 0
2, 294352, Control_c, 0, 64, 0
2, 294360, Note_on_c, 0, 35, 35
2, 294360, Note_on_c, 0, 63, 40
2, 294360, Note_on_c, 0, 54, 34
2, 294360, Note_on_c, 0, 59, 34
2, 294360, Control_c, 0, 64, 127
2, 295964, Note_off_c, 0, 59, 0
2, 295972, Note_off_c, 0, 35, 0
2, 295984, Note_off_c, 0, 54, 0
2, 295992, Note_off_c, 0, 63, 0
2, 297208, Control_c, 0, 64, 0
2, 297208, End_track
3, 0, Start_track
3, 0, Title_t, "Frederic Chopin"
3, 0, Key_signature, 0, "major"
3, 0, End_track
4, 0, Start_track
4, 0, Title_t, "Copyright 2/96"
4, 0, Key_signature, 0, "major"
4, 0, End_track
5, 0, Start_track
5, 0, Title_t, "Robert Finley"
5, 0, Key_signature, 0, "major"
5, 0, End_track
6, 0, Start_track
6, 0, Key_signature, 0, "major"
6, 0, End_track
7, 0, Start_track
7, 0, Key_signature, 0, "major"
7, 0, End_track
8, 0, Start_track
8, 0, Key_signature, 0, "major"
8, 0, End_track
9, 0, Start_track
9, 0, Key_signature, 0, "major"
9, 0, End_track
10, 0, Start_track
10, 0, Key_signature, 0, "major"
10, 0, End_track
11, 0, Start_track
11, 0, Key_signature, 0, "major"
11, 0, End_track
12, 0, Start_track
12, 0, Key_signature, 0, "major"
12, 0, End_track
13, 0, Start_track
13, 0, Key_signature, 0, "major"
13, 0, End_track
14, 0, Start_track
14, 0, Key_signature, 0, "major"
14, 0, End_track
15, 0, Start_track
15, 0, Key_signature, 0, "major"
15, 0, End_track
16, 0, Start_track
16, 0, Key_signature, 0, "major"
16, 0, End_track
17, 0, Start_track
17, 0, Key_signature, 0, "major"
17, 0, End_track
0, 0, End_of_file