0, 0, Header, 1, 9, 480
1, 0, Start_track
1, 0, Title_t, "Chopin Prelude  No. 18, Opus 28"
1, 0, Copyright_t, "Copyright \251 2002 by Bernd Krueger "
1, 0, Text_t, "Frederic Chopin"
1, 0, Text_t, "Molto Allegro"
1, 0, Text_t, "Fertiggestellt am 30.11.02\012"
1, 0, Text_t, "Normierung: 23.12.2002\012"
1, 0, Text_t, "Dauer: 0:50 Minuten\012"
1, 0, SMPTE_offset, 96, 0, 3, 0, 0
1, 0, Time_signature, 4, 2, 24, 8
1, 0, Key_signature, -4, "major"
1, 0, Tempo, 510638
1, 480, Tempo, 489796
1, 720, Tempo, 530973
1, 960, Tempo, 585366
1, 1200, Tempo, 585366
1, 1440, Tempo, 666667
1, 1680, Tempo, 600000
1, 1920, Tempo, 510638
1, 2400, Tempo, 489796
1, 2640, Tempo, 512821
1, 2880, Tempo, 591133
1, 3360, Tempo, 652174
1, 3600, Tempo, 600000
1, 3840, Tempo, 510638
1, 4320, Tempo, 489796
1, 4560, Tempo, 504202
1, 4800, Tempo, 512821
1, 4960, Tempo, 489796
1, 5120, Tempo, 487805
1, 5280, Tempo, 485830
1, 5440, Tempo, 483871
1, 5600, Tempo, 481928
1, 5720, Tempo, 480000
1, 5760, Tempo, 491803
1, 6000, Tempo, 480000
1, 6240, Tempo, 476190
1, 6280, Tempo, 465116
1, 6360, Tempo, 466926
1, 6440, Tempo, 468750
1, 6520, Tempo, 470588
1, 6600, Tempo, 472441
1, 6680, Tempo, 474308
1, 6760, Tempo, 476190
1, 6840, Tempo, 478088
1, 6920, Tempo, 480000
1, 7000, Tempo, 481928
1, 7080, Tempo, 483871
1, 7160, Tempo, 485830
1, 7200, Tempo, 483871
1, 7280, Tempo, 485830
1, 7400, Tempo, 487805
1, 7440, Tempo, 547945
1, 7560, Tempo, 576923
1, 7680, Tempo, 510638
1, 8040, Tempo, 524017
1, 8160, Tempo, 489796
1, 8280, Tempo, 528634
1, 8400, Tempo, 510638
1, 8640, Tempo, 588235
1, 9120, Tempo, 638298
1, 9360, Tempo, 600000
1, 9600, Tempo, 510638
1, 10080, Tempo, 489796
1, 10200, Tempo, 524017
1, 10320, Tempo, 506329
1, 10560, Tempo, 591133
1, 11040, Tempo, 625000
1, 11280, Tempo, 600000
1, 11520, Tempo, 510638
1, 12000, Tempo, 489796
1, 12240, Tempo, 497925
1, 12480, Tempo, 512821
1, 12720, Tempo, 495868
1, 12960, Tempo, 489796
1, 13200, Tempo, 476190
1, 13440, Time_signature, 5, 2, 24, 8
1, 13440, Tempo, 459770
1, 13560, Tempo, 480000
1, 13680, Tempo, 491803
1, 13800, Tempo, 476190
1, 13820, Tempo, 472441
1, 13840, Tempo, 468750
1, 13860, Tempo, 465116
1, 13880, Tempo, 461538
1, 13900, Tempo, 458015
1, 13920, Tempo, 454545
1, 13940, Tempo, 451128
1, 13960, Tempo, 447761
1, 14320, Tempo, 449438
1, 14400, Tempo, 451128
1, 14440, Tempo, 452830
1, 14480, Tempo, 454545
1, 14560, Tempo, 456274
1, 14600, Tempo, 458015
1, 14640, Tempo, 459770
1, 14720, Tempo, 461538
1, 14760, Tempo, 463320
1, 14800, Tempo, 465116
1, 14880, Tempo, 489796
1, 14960, Tempo, 491803
1, 15000, Tempo, 493827
1, 15080, Tempo, 495868
1, 15120, Tempo, 497925
1, 15200, Tempo, 500000
1, 15240, Tempo, 502092
1, 15320, Tempo, 504202
1, 15360, Tempo, 506329
1, 15440, Tempo, 508475
1, 15480, Tempo, 510638
1, 15560, Tempo, 512821
1, 15600, Tempo, 515021
1, 15680, Tempo, 517241
1, 15720, Tempo, 519481
1, 15760, Tempo, 524017
1, 15800, Tempo, 528634
1, 15840, Time_signature, 4, 2, 24, 8
1, 16080, Tempo, 571429
1, 16320, Tempo, 582524
1, 16560, Tempo, 508475
1, 16800, Tempo, 759494
1, 16820, Tempo, 693642
1, 16840, Tempo, 634921
1, 16860, Tempo, 588235
1, 16880, Tempo, 545455
1, 16900, Tempo, 508475
1, 16920, Tempo, 495868
1, 17040, Tempo, 474308
1, 17080, Tempo, 465116
1, 17280, Tempo, 449438
1, 18000, Tempo, 547945
1, 18240, Tempo, 560748
1, 18480, Tempo, 506329
1, 18720, Tempo, 574163
1, 18840, Tempo, 515021
1, 18960, Tempo, 470588
1, 19200, Tempo, 439560
1, 19920, Tempo, 542986
1, 20160, Tempo, 558140
1, 20400, Tempo, 506329
1, 20640, Tempo, 540541
1, 20760, Tempo, 512821
1, 20880, Tempo, 485830
1, 21120, Tempo, 506329
1, 21240, Tempo, 461538
1, 21600, Tempo, 485830
1, 21840, Tempo, 542986
1, 22560, Tempo, 1538462
1, 22580, Tempo, 1276596
1, 22600, Tempo, 1090909
1, 22620, Tempo, 952381
1, 22640, Tempo, 845070
1, 22660, Tempo, 759494
1, 22680, Tempo, 689655
1, 22700, Tempo, 628272
1, 22720, Tempo, 612245
1, 22740, Tempo, 603015
1, 22760, Tempo, 594059
1, 22780, Tempo, 585366
1, 22800, Tempo, 576923
1, 22820, Tempo, 568720
1, 22840, Tempo, 560748
1, 22860, Tempo, 552995
1, 22880, Tempo, 542986
1, 23080, Tempo, 545455
1, 23160, Tempo, 547945
1, 23272, Tempo, 547945
1, 23300, Tempo, 550459
1, 23324, Tempo, 552995
1, 23340, Tempo, 555556
1, 23364, Tempo, 558140
1, 23380, Tempo, 560748
1, 23404, Tempo, 563380
1, 23420, Tempo, 566038
1, 23444, Tempo, 568720
1, 23460, Tempo, 571429
1, 23484, Tempo, 574163
1, 23500, Tempo, 576923
1, 23520, Tempo, 579710
1, 23640, Tempo, 558140
1, 23760, Tempo, 579710
1, 23880, Tempo, 641711
1, 24000, Tempo, 545455
1, 24440, Tempo, 526316
1, 24480, Tempo, 588235
1, 24600, Tempo, 540541
1, 24640, Tempo, 535714
1, 24680, Tempo, 530973
1, 24720, Tempo, 526316
1, 24760, Tempo, 519481
1, 24800, Tempo, 515021
1, 24840, Tempo, 510638
1, 24880, Tempo, 506329
1, 24920, Tempo, 500000
1, 24960, Tempo, 459770
1, 25280, Tempo, 612245
1, 25440, Tempo, 579710
1, 25560, Tempo, 535714
1, 25680, Tempo, 478088
1, 25800, Tempo, 645161
1, 25920, Tempo, 545455
1, 26400, Tempo, 585366
1, 26520, Tempo, 540541
1, 26560, Tempo, 535714
1, 26600, Tempo, 530973
1, 26640, Tempo, 526316
1, 26680, Tempo, 521739
1, 26720, Tempo, 517241
1, 26760, Tempo, 512821
1, 26800, Tempo, 508475
1, 26840, Tempo, 502092
1, 26880, Tempo, 472441
1, 27240, Tempo, 670391
1, 27360, Tempo, 579710
1, 27480, Tempo, 519481
1, 27600, Tempo, 459770
1, 27720, Tempo, 666667
1, 27840, Tempo, 545455
1, 28320, Tempo, 579710
1, 28440, Tempo, 489796
1, 28560, Tempo, 425532
1, 28680, Tempo, 659341
1, 28800, Tempo, 538117
1, 29280, Tempo, 481928
1, 29520, Tempo, 500000
1, 29760, Tempo, 483871
1, 30000, Tempo, 502092
1, 30240, Tempo, 493827
1, 30480, Tempo, 530973
1, 30720, Tempo, 506329
1, 30920, Tempo, 515021
1, 30960, Tempo, 547945
1, 31200, Tempo, 568720
1, 31640, Tempo, 519481
1, 31680, Tempo, 574163
1, 31920, Tempo, 1100917
1, 31980, Tempo, 1500000
1, 32000, Tempo, 1052632
1, 32020, Tempo, 810811
1, 32040, Tempo, 659341
1, 32060, Tempo, 552995
1, 32080, Tempo, 540541
1, 32100, Tempo, 547945
1, 32120, Tempo, 533333
1, 32160, Tempo, 517241
1, 32200, Tempo, 519481
1, 32240, Tempo, 521739
1, 32280, Tempo, 524017
1, 32320, Tempo, 528634
1, 32400, Tempo, 535714
1, 32520, Tempo, 538117
1, 32640, Tempo, 540541
1, 32720, Tempo, 542986
1, 32840, Tempo, 545455
1, 32960, Tempo, 547945
1, 33040, Tempo, 550459
1, 33120, Tempo, 465116
1, 33160, Tempo, 463320
1, 33200, Tempo, 461538
1, 33240, Tempo, 458015
1, 33280, Tempo, 456274
1, 33320, Tempo, 454545
1, 33360, Tempo, 451128
1, 33400, Tempo, 449438
1, 33440, Tempo, 446097
1, 33460, Tempo, 449438
1, 34020, Tempo, 480000
1, 34060, Tempo, 481928
1, 34100, Tempo, 485830
1, 34140, Tempo, 487805
1, 34180, Tempo, 491803
1, 34220, Tempo, 493827
1, 34260, Tempo, 497925
1, 34300, Tempo, 500000
1, 34340, Tempo, 504202
1, 34380, Tempo, 506329
1, 34420, Tempo, 510638
1, 34460, Tempo, 512821
1, 34500, Tempo, 517241
1, 34540, Tempo, 519481
1, 34580, Tempo, 524017
1, 34620, Tempo, 526316
1, 34660, Tempo, 530973
1, 34700, Tempo, 533333
1, 34740, Tempo, 538117
1, 34780, Tempo, 540541
1, 34820, Tempo, 545455
1, 34860, Tempo, 547945
1, 34900, Tempo, 552995
1, 34940, Tempo, 558140
1, 34980, Tempo, 585366
1, 35000, Tempo, 552995
1, 35520, Tempo, 428571
1, 37920, Tempo, 588235
1, 38880, Tempo, 621762
1, 40800, Tempo, 600000
1, 42720, Tempo, 545455
1, 42720, End_track
2, 0, Start_track
2, 0, MIDI_port, 0
2, 0, Title_t, "Piano right"
2, 0, Program_c, 0, 0
2, 0, Control_c, 0, 7, 100
2, 0, Control_c, 0, 10, 64
2, 1, Note_on_c, 0, 60, 52
2, 120, Note_on_c, 0, 61, 48
2, 130, Note_on_c, 0, 60, 0
2, 240, Note_on_c, 0, 57, 53
2, 250, Note_on_c, 0, 61, 0
2, 360, Note_on_c, 0, 58, 49
2, 370, Note_on_c, 0, 57, 0
2, 480, Note_on_c, 0, 55, 55
2, 490, Note_on_c, 0, 58, 0
2, 600, Note_on_c, 0, 58, 55
2, 610, Note_on_c, 0, 55, 0
2, 720, Note_on_c, 0, 67, 57
2, 730, Note_on_c, 0, 58, 0
2, 840, Note_on_c, 0, 65, 57
2, 850, Note_on_c, 0, 67, 0
2, 960, Note_on_c, 0, 65, 0
2, 960, Note_on_c, 0, 65, 62
2, 1200, Note_on_c, 0, 55, 38
2, 1200, Note_on_c, 0, 58, 46
2, 1440, Note_on_c, 0, 58, 0
2, 1440, Note_on_c, 0, 55, 0
2, 1440, Note_on_c, 0, 55, 38
2, 1440, Note_on_c, 0, 58, 46
2, 1680, Note_on_c, 0, 58, 0
2, 1680, Note_on_c, 0, 55, 0
2, 1680, Note_on_c, 0, 65, 0
2, 1680, Note_on_c, 0, 64, 52
2, 1920, Note_on_c, 0, 64, 0
2, 1920, Note_on_c, 0, 60, 52
2, 2040, Note_on_c, 0, 61, 48
2, 2050, Note_on_c, 0, 60, 0
2, 2160, Note_on_c, 0, 57, 53
2, 2170, Note_on_c, 0, 61, 0
2, 2280, Note_on_c, 0, 58, 49
2, 2290, Note_on_c, 0, 57, 0
2, 2400, Note_on_c, 0, 55, 54
2, 2410, Note_on_c, 0, 58, 0
2, 2520, Note_on_c, 0, 58, 55
2, 2530, Note_on_c, 0, 55, 0
2, 2640, Note_on_c, 0, 67, 59
2, 2650, Note_on_c, 0, 58, 0
2, 2760, Note_on_c, 0, 65, 56
2, 2770, Note_on_c, 0, 67, 0
2, 2880, Note_on_c, 0, 65, 0
2, 2880, Note_on_c, 0, 65, 61
2, 3120, Note_on_c, 0, 55, 38
2, 3120, Note_on_c, 0, 58, 46
2, 3360, Note_on_c, 0, 58, 0
2, 3360, Note_on_c, 0, 55, 0
2, 3360, Note_on_c, 0, 55, 38
2, 3360, Note_on_c, 0, 58, 46
2, 3600, Note_on_c, 0, 58, 0
2, 3600, Note_on_c, 0, 55, 0
2, 3600, Note_on_c, 0, 65, 0
2, 3600, Note_on_c, 0, 64, 52
2, 3840, Note_on_c, 0, 64, 0
2, 3840, Note_on_c, 0, 60, 52
2, 3960, Note_on_c, 0, 60, 0
2, 3960, Note_on_c, 0, 61, 48
2, 4080, Note_on_c, 0, 61, 0
2, 4080, Note_on_c, 0, 57, 52
2, 4200, Note_on_c, 0, 57, 0
2, 4200, Note_on_c, 0, 58, 48
2, 4320, Note_on_c, 0, 58, 0
2, 4320, Note_on_c, 0, 55, 49
2, 4440, Note_on_c, 0, 55, 0
2, 4440, Note_on_c, 0, 58, 50
2, 4560, Note_on_c, 0, 58, 0
2, 4560, Note_on_c, 0, 67, 54
2, 4680, Note_on_c, 0, 67, 0
2, 4680, Note_on_c, 0, 65, 55
2, 4800, Note_on_c, 0, 65, 0
2, 4800, Note_on_c, 0, 63, 58
2, 4920, Note_on_c, 0, 63, 0
2, 4920, Note_on_c, 0, 64, 55
2, 5040, Note_on_c, 0, 64, 0
2, 5040, Note_on_c, 0, 70, 59
2, 5160, Note_on_c, 0, 70, 0
2, 5160, Note_on_c, 0, 68, 57
2, 5280, Note_on_c, 0, 68, 0
2, 5280, Note_on_c, 0, 66, 58
2, 5400, Note_on_c, 0, 66, 0
2, 5400, Note_on_c, 0, 67, 62
2, 5520, Note_on_c, 0, 67, 0
2, 5520, Note_on_c, 0, 73, 65
2, 5640, Note_on_c, 0, 73, 0
2, 5640, Note_on_c, 0, 72, 61
2, 5760, Note_on_c, 0, 72, 0
2, 5760, Note_on_c, 0, 69, 67
2, 5880, Note_on_c, 0, 69, 0
2, 5880, Note_on_c, 0, 70, 66
2, 6000, Note_on_c, 0, 70, 0
2, 6000, Note_on_c, 0, 85, 71
2, 6120, Note_on_c, 0, 79, 67
2, 6130, Note_on_c, 0, 85, 0
2, 6240, Note_on_c, 0, 84, 71
2, 6250, Note_on_c, 0, 79, 0
2, 6360, Note_on_c, 0, 82, 70
2, 6370, Note_on_c, 0, 84, 0
2, 6480, Note_on_c, 0, 80, 68
2, 6490, Note_on_c, 0, 82, 0
2, 6600, Note_on_c, 0, 79, 66
2, 6610, Note_on_c, 0, 80, 0
2, 6720, Note_on_c, 0, 77, 65
2, 6730, Note_on_c, 0, 79, 0
2, 6840, Note_on_c, 0, 76, 63
2, 6850, Note_on_c, 0, 77, 0
2, 6960, Note_on_c, 0, 79, 61
2, 6970, Note_on_c, 0, 76, 0
2, 7080, Note_on_c, 0, 70, 60
2, 7090, Note_on_c, 0, 79, 0
2, 7200, Note_on_c, 0, 71, 61
2, 7210, Note_on_c, 0, 70, 0
2, 7296, Note_on_c, 0, 71, 0
2, 7296, Note_on_c, 0, 72, 56
2, 7392, Note_on_c, 0, 72, 0
2, 7392, Note_on_c, 0, 73, 59
2, 7488, Note_on_c, 0, 73, 0
2, 7488, Note_on_c, 0, 67, 56
2, 7584, Note_on_c, 0, 67, 0
2, 7584, Note_on_c, 0, 72, 56
2, 7680, Note_on_c, 0, 72, 0
2, 7680, Note_on_c, 0, 70, 57
2, 7800, Note_on_c, 0, 69, 53
2, 7810, Note_on_c, 0, 70, 0
2, 7920, Note_on_c, 0, 65, 57
2, 7930, Note_on_c, 0, 69, 0
2, 8040, Note_on_c, 0, 66, 54
2, 8050, Note_on_c, 0, 65, 0
2, 8160, Note_on_c, 0, 62, 53
2, 8170, Note_on_c, 0, 66, 0
2, 8280, Note_on_c, 0, 63, 51
2, 8290, Note_on_c, 0, 62, 0
2, 8400, Note_on_c, 0, 72, 58
2, 8410, Note_on_c, 0, 63, 0
2, 8520, Note_on_c, 0, 70, 66
2, 8530, Note_on_c, 0, 72, 0
2, 8640, Note_on_c, 0, 70, 0
2, 8640, Note_on_c, 0, 70, 67
2, 8880, Note_on_c, 0, 60, 42
2, 8880, Note_on_c, 0, 63, 51
2, 9120, Note_on_c, 0, 63, 0
2, 9120, Note_on_c, 0, 60, 0
2, 9120, Note_on_c, 0, 60, 42
2, 9120, Note_on_c, 0, 63, 51
2, 9360, Note_on_c, 0, 63, 0
2, 9360, Note_on_c, 0, 60, 0
2, 9360, Note_on_c, 0, 70, 0
2, 9360, Note_on_c, 0, 69, 57
2, 9600, Note_on_c, 0, 69, 0
2, 9600, Note_on_c, 0, 65, 57
2, 9720, Note_on_c, 0, 66, 53
2, 9730, Note_on_c, 0, 65, 0
2, 9840, Note_on_c, 0, 62, 54
2, 9850, Note_on_c, 0, 66, 0
2, 9960, Note_on_c, 0, 63, 54
2, 9970, Note_on_c, 0, 62, 0
2, 10080, Note_on_c, 0, 60, 57
2, 10090, Note_on_c, 0, 63, 0
2, 10200, Note_on_c, 0, 63, 56
2, 10210, Note_on_c, 0, 60, 0
2, 10320, Note_on_c, 0, 72, 59
2, 10330, Note_on_c, 0, 63, 0
2, 10440, Note_on_c, 0, 70, 64
2, 10450, Note_on_c, 0, 72, 0
2, 10560, Note_on_c, 0, 70, 0
2, 10560, Note_on_c, 0, 70, 67
2, 10800, Note_on_c, 0, 60, 42
2, 10800, Note_on_c, 0, 63, 51
2, 11040, Note_on_c, 0, 63, 0
2, 11040, Note_on_c, 0, 60, 0
2, 11040, Note_on_c, 0, 60, 42
2, 11040, Note_on_c, 0, 63, 51
2, 11280, Note_on_c, 0, 63, 0
2, 11280, Note_on_c, 0, 60, 0
2, 11280, Note_on_c, 0, 70, 0
2, 11280, Note_on_c, 0, 69, 57
2, 11520, Note_on_c, 0, 69, 0
2, 11520, Note_on_c, 0, 65, 57
2, 11640, Note_on_c, 0, 65, 0
2, 11640, Note_on_c, 0, 66, 53
2, 11760, Note_on_c, 0, 66, 0
2, 11760, Note_on_c, 0, 62, 52
2, 11880, Note_on_c, 0, 62, 0
2, 11880, Note_on_c, 0, 63, 50
2, 12000, Note_on_c, 0, 63, 0
2, 12000, Note_on_c, 0, 60, 54
2, 12120, Note_on_c, 0, 60, 0
2, 12120, Note_on_c, 0, 63, 55
2, 12240, Note_on_c, 0, 63, 0
2, 12240, Note_on_c, 0, 72, 57
2, 12360, Note_on_c, 0, 70, 59
2, 12370, Note_on_c, 0, 72, 0
2, 12480, Note_on_c, 0, 68, 63
2, 12490, Note_on_c, 0, 70, 0
2, 12600, Note_on_c, 0, 69, 57
2, 12610, Note_on_c, 0, 68, 0
2, 12720, Note_on_c, 0, 78, 63
2, 12730, Note_on_c, 0, 69, 0
2, 12840, Note_on_c, 0, 77, 58
2, 12850, Note_on_c, 0, 78, 0
2, 12960, Note_on_c, 0, 74, 60
2, 12970, Note_on_c, 0, 77, 0
2, 13080, Note_on_c, 0, 75, 60
2, 13090, Note_on_c, 0, 74, 0
2, 13200, Note_on_c, 0, 85, 66
2, 13210, Note_on_c, 0, 75, 0
2, 13320, Note_on_c, 0, 84, 64
2, 13330, Note_on_c, 0, 85, 0
2, 13440, Note_on_c, 0, 82, 68
2, 13450, Note_on_c, 0, 84, 0
2, 13560, Note_on_c, 0, 81, 68
2, 13570, Note_on_c, 0, 82, 0
2, 13680, Note_on_c, 0, 87, 72
2, 13690, Note_on_c, 0, 81, 0
2, 13800, Note_on_c, 0, 76, 70
2, 13810, Note_on_c, 0, 87, 0
2, 13920, Note_on_c, 0, 77, 71
2, 13930, Note_on_c, 0, 76, 0
2, 14040, Note_on_c, 0, 78, 73
2, 14050, Note_on_c, 0, 77, 0
2, 14160, Note_on_c, 0, 72, 69
2, 14170, Note_on_c, 0, 78, 0
2, 14280, Note_on_c, 0, 73, 74
2, 14290, Note_on_c, 0, 72, 0
2, 14400, Note_on_c, 0, 77, 76
2, 14410, Note_on_c, 0, 73, 0
2, 14520, Note_on_c, 0, 75, 76
2, 14530, Note_on_c, 0, 77, 0
2, 14640, Note_on_c, 0, 73, 75
2, 14650, Note_on_c, 0, 75, 0
2, 14760, Note_on_c, 0, 72, 72
2, 14770, Note_on_c, 0, 73, 0
2, 14880, Note_on_c, 0, 70, 72
2, 14890, Note_on_c, 0, 72, 0
2, 14976, Note_on_c, 0, 70, 0
2, 14976, Note_on_c, 0, 69, 76
2, 15072, Note_on_c, 0, 69, 0
2, 15072, Note_on_c, 0, 72, 79
2, 15168, Note_on_c, 0, 72, 0
2, 15168, Note_on_c, 0, 64, 79
2, 15264, Note_on_c, 0, 64, 0
2, 15264, Note_on_c, 0, 65, 79
2, 15360, Note_on_c, 0, 65, 0
2, 15360, Note_on_c, 0, 66, 83
2, 15456, Note_on_c, 0, 66, 0
2, 15456, Note_on_c, 0, 60, 83
2, 15552, Note_on_c, 0, 60, 0
2, 15552, Note_on_c, 0, 65, 83
2, 15648, Note_on_c, 0, 65, 0
2, 15648, Note_on_c, 0, 63, 85
2, 15744, Note_on_c, 0, 63, 0
2, 15744, Note_on_c, 0, 61, 85
2, 15840, Note_on_c, 0, 61, 0
2, 15840, Note_on_c, 0, 60, 95
2, 16080, Note_on_c, 0, 60, 0
2, 16080, Note_on_c, 0, 58, 89
2, 16320, Note_on_c, 0, 58, 0
2, 16320, Note_on_c, 0, 53, 67
2, 16320, Note_on_c, 0, 55, 68
2, 16320, Note_on_c, 0, 58, 72
2, 16320, Note_on_c, 0, 61, 80
2, 16320, Note_on_c, 0, 65, 85
2, 16560, Note_on_c, 0, 65, 0
2, 16560, Note_on_c, 0, 58, 0
2, 16560, Note_on_c, 0, 53, 0
2, 16560, Note_on_c, 0, 55, 0
2, 16560, Note_on_c, 0, 61, 0
2, 16800, Note_on_c, 0, 73, 66
2, 16920, Note_on_c, 0, 73, 0
2, 16920, Note_on_c, 0, 67, 69
2, 17040, Note_on_c, 0, 67, 0
2, 17040, Note_on_c, 0, 68, 74
2, 17160, Note_on_c, 0, 68, 0
2, 17160, Note_on_c, 0, 69, 76
2, 17280, Note_on_c, 0, 69, 0
2, 17280, Note_on_c, 0, 72, 80
2, 17400, Note_on_c, 0, 72, 0
2, 17400, Note_on_c, 0, 70, 84
2, 17520, Note_on_c, 0, 70, 0
2, 17520, Note_on_c, 0, 68, 88
2, 17640, Note_on_c, 0, 68, 0
2, 17640, Note_on_c, 0, 67, 92
2, 17760, Note_on_c, 0, 67, 0
2, 17760, Note_on_c, 0, 65, 95
2, 17880, Note_on_c, 0, 65, 0
2, 17880, Note_on_c, 0, 64, 93
2, 18000, Note_on_c, 0, 64, 0
2, 18240, Note_on_c, 0, 55, 71
2, 18240, Note_on_c, 0, 58, 76
2, 18240, Note_on_c, 0, 61, 79
2, 18240, Note_on_c, 0, 64, 90
2, 18480, Note_on_c, 0, 64, 0
2, 18480, Note_on_c, 0, 55, 0
2, 18480, Note_on_c, 0, 58, 0
2, 18480, Note_on_c, 0, 61, 0
2, 18720, Note_on_c, 0, 80, 90
2, 18840, Note_on_c, 0, 80, 0
2, 18840, Note_on_c, 0, 70, 82
2, 18960, Note_on_c, 0, 70, 0
2, 18960, Note_on_c, 0, 80, 86
2, 19080, Note_on_c, 0, 80, 0
2, 19080, Note_on_c, 0, 79, 84
2, 19200, Note_on_c, 0, 79, 0
2, 19200, Note_on_c, 0, 76, 81
2, 19320, Note_on_c, 0, 76, 0
2, 19320, Note_on_c, 0, 73, 78
2, 19440, Note_on_c, 0, 73, 0
2, 19440, Note_on_c, 0, 70, 76
2, 19560, Note_on_c, 0, 70, 0
2, 19560, Note_on_c, 0, 67, 74
2, 19680, Note_on_c, 0, 67, 0
2, 19680, Note_on_c, 0, 64, 71
2, 19800, Note_on_c, 0, 64, 0
2, 19800, Note_on_c, 0, 65, 68
2, 19920, Note_on_c, 0, 65, 0
2, 20160, Note_on_c, 0, 53, 76
2, 20160, Note_on_c, 0, 60, 76
2, 20160, Note_on_c, 0, 65, 90
2, 20400, Note_on_c, 0, 65, 0
2, 20400, Note_on_c, 0, 60, 0
2, 20400, Note_on_c, 0, 53, 0
2, 20640, Note_on_c, 0, 84, 88
2, 20760, Note_on_c, 0, 84, 0
2, 20760, Note_on_c, 0, 77, 84
2, 20880, Note_on_c, 0, 77, 0
2, 20880, Note_on_c, 0, 78, 88
2, 21000, Note_on_c, 0, 78, 0
2, 21000, Note_on_c, 0, 79, 86
2, 21120, Note_on_c, 0, 79, 0
2, 21120, Note_on_c, 0, 82, 81
2, 21216, Note_on_c, 0, 82, 0
2, 21216, Note_on_c, 0, 80, 77
2, 21312, Note_on_c, 0, 80, 0
2, 21312, Note_on_c, 0, 77, 75
2, 21408, Note_on_c, 0, 77, 0
2, 21408, Note_on_c, 0, 73, 73
2, 21504, Note_on_c, 0, 73, 0
2, 21504, Note_on_c, 0, 72, 71
2, 21600, Note_on_c, 0, 72, 0
2, 21600, Note_on_c, 0, 72, 70
2, 21720, Note_on_c, 0, 72, 0
2, 21720, Note_on_c, 0, 71, 68
2, 21840, Note_on_c, 0, 71, 0
2, 22080, Note_on_c, 0, 56, 73
2, 22080, Note_on_c, 0, 59, 76
2, 22080, Note_on_c, 0, 62, 77
2, 22080, Note_on_c, 0, 68, 91
2, 22320, Note_on_c, 0, 68, 0
2, 22320, Note_on_c, 0, 56, 0
2, 22320, Note_on_c, 0, 59, 0
2, 22320, Note_on_c, 0, 62, 0
2, 22560, Note_on_c, 0, 92, 85
2, 22620, Note_on_c, 0, 92, 0
2, 22620, Note_on_c, 0, 86, 84
2, 22680, Note_on_c, 0, 86, 0
2, 22680, Note_on_c, 0, 87, 84
2, 22740, Note_on_c, 0, 87, 0
2, 22740, Note_on_c, 0, 88, 83
2, 22800, Note_on_c, 0, 88, 0
2, 22800, Note_on_c, 0, 91, 81
2, 22860, Note_on_c, 0, 91, 0
2, 22860, Note_on_c, 0, 89, 81
2, 22920, Note_on_c, 0, 89, 0
2, 22920, Note_on_c, 0, 86, 80
2, 22980, Note_on_c, 0, 86, 0
2, 22980, Note_on_c, 0, 83, 79
2, 23040, Note_on_c, 0, 83, 0
2, 23040, Note_on_c, 0, 79, 79
2, 23100, Note_on_c, 0, 79, 0
2, 23100, Note_on_c, 0, 80, 77
2, 23160, Note_on_c, 0, 80, 0
2, 23160, Note_on_c, 0, 77, 76
2, 23220, Note_on_c, 0, 77, 0
2, 23220, Note_on_c, 0, 74, 76
2, 23280, Note_on_c, 0, 74, 0
2, 23280, Note_on_c, 0, 71, 76
2, 23328, Note_on_c, 0, 71, 0
2, 23328, Note_on_c, 0, 67, 75
2, 23376, Note_on_c, 0, 67, 0
2, 23376, Note_on_c, 0, 68, 75
2, 23424, Note_on_c, 0, 68, 0
2, 23424, Note_on_c, 0, 65, 74
2, 23472, Note_on_c, 0, 65, 0
2, 23472, Note_on_c, 0, 62, 74
2, 23520, Note_on_c, 0, 62, 0
2, 23520, Note_on_c, 0, 59, 79
2, 23640, Note_on_c, 0, 59, 0
2, 23640, Note_on_c, 0, 60, 71
2, 23760, Note_on_c, 0, 60, 0
2, 23760, Note_on_c, 0, 65, 74
2, 23880, Note_on_c, 0, 65, 0
2, 23880, Note_on_c, 0, 63, 70
2, 24000, Note_on_c, 0, 63, 0
2, 24000, Note_on_c, 0, 60, 64
2, 24000, Note_on_c, 0, 63, 68
2, 24000, Note_on_c, 0, 68, 69
2, 24000, Note_on_c, 0, 72, 81
2, 24240, Note_on_c, 0, 72, 0
2, 24240, Note_on_c, 0, 60, 0
2, 24240, Note_on_c, 0, 63, 0
2, 24240, Note_on_c, 0, 68, 0
2, 24480, Note_on_c, 0, 74, 69
2, 24480, Note_on_c, 0, 86, 83
2, 24640, Note_on_c, 0, 86, 0
2, 24640, Note_on_c, 0, 74, 0
2, 24640, Note_on_c, 0, 73, 57
2, 24640, Note_on_c, 0, 85, 70
2, 24800, Note_on_c, 0, 85, 0
2, 24800, Note_on_c, 0, 73, 0
2, 24800, Note_on_c, 0, 72, 57
2, 24800, Note_on_c, 0, 84, 68
2, 24960, Note_on_c, 0, 84, 0
2, 24960, Note_on_c, 0, 72, 0
2, 24960, Note_on_c, 0, 72, 57
2, 24960, Note_on_c, 0, 84, 67
2, 25120, Note_on_c, 0, 84, 0
2, 25120, Note_on_c, 0, 72, 0
2, 25120, Note_on_c, 0, 72, 55
2, 25120, Note_on_c, 0, 84, 66
2, 25280, Note_on_c, 0, 84, 0
2, 25280, Note_on_c, 0, 72, 0
2, 25280, Note_on_c, 0, 72, 54
2, 25280, Note_on_c, 0, 84, 64
2, 25440, Note_on_c, 0, 84, 0
2, 25440, Note_on_c, 0, 72, 0
2, 25440, Note_on_c, 0, 59, 72
2, 25560, Note_on_c, 0, 59, 0
2, 25560, Note_on_c, 0, 60, 69
2, 25680, Note_on_c, 0, 60, 0
2, 25680, Note_on_c, 0, 65, 72
2, 25800, Note_on_c, 0, 65, 0
2, 25800, Note_on_c, 0, 64, 67
2, 25920, Note_on_c, 0, 64, 0
2, 25920, Note_on_c, 0, 60, 66
2, 25920, Note_on_c, 0, 64, 69
2, 25920, Note_on_c, 0, 68, 69
2, 25920, Note_on_c, 0, 72, 81
2, 26160, Note_on_c, 0, 72, 0
2, 26160, Note_on_c, 0, 60, 0
2, 26160, Note_on_c, 0, 64, 0
2, 26160, Note_on_c, 0, 68, 0
2, 26400, Note_on_c, 0, 74, 73
2, 26400, Note_on_c, 0, 86, 88
2, 26560, Note_on_c, 0, 86, 0
2, 26560, Note_on_c, 0, 74, 0
2, 26560, Note_on_c, 0, 73, 65
2, 26560, Note_on_c, 0, 85, 76
2, 26720, Note_on_c, 0, 85, 0
2, 26720, Note_on_c, 0, 73, 0
2, 26720, Note_on_c, 0, 72, 63
2, 26720, Note_on_c, 0, 84, 75
2, 26880, Note_on_c, 0, 84, 0
2, 26880, Note_on_c, 0, 72, 0
2, 26880, Note_on_c, 0, 72, 58
2, 26880, Note_on_c, 0, 84, 71
2, 27000, Note_on_c, 0, 84, 0
2, 27000, Note_on_c, 0, 72, 0
2, 27000, Note_on_c, 0, 72, 58
2, 27000, Note_on_c, 0, 84, 71
2, 27120, Note_on_c, 0, 84, 0
2, 27120, Note_on_c, 0, 72, 0
2, 27120, Note_on_c, 0, 72, 57
2, 27120, Note_on_c, 0, 84, 69
2, 27240, Note_on_c, 0, 84, 0
2, 27240, Note_on_c, 0, 72, 0
2, 27240, Note_on_c, 0, 72, 57
2, 27240, Note_on_c, 0, 84, 69
2, 27360, Note_on_c, 0, 84, 0
2, 27360, Note_on_c, 0, 72, 0
2, 27360, Note_on_c, 0, 59, 76
2, 27480, Note_on_c, 0, 59, 0
2, 27480, Note_on_c, 0, 60, 73
2, 27600, Note_on_c, 0, 60, 0
2, 27600, Note_on_c, 0, 67, 76
2, 27720, Note_on_c, 0, 67, 0
2, 27720, Note_on_c, 0, 65, 71
2, 27840, Note_on_c, 0, 65, 0
2, 27840, Note_on_c, 0, 60, 72
2, 27840, Note_on_c, 0, 65, 73
2, 27840, Note_on_c, 0, 68, 73
2, 27840, Note_on_c, 0, 72, 86
2, 28080, Note_on_c, 0, 72, 0
2, 28080, Note_on_c, 0, 60, 0
2, 28080, Note_on_c, 0, 65, 0
2, 28080, Note_on_c, 0, 68, 0
2, 28320, Note_on_c, 0, 59, 76
2, 28440, Note_on_c, 0, 59, 0
2, 28440, Note_on_c, 0, 60, 73
2, 28560, Note_on_c, 0, 60, 0
2, 28560, Note_on_c, 0, 70, 76
2, 28680, Note_on_c, 0, 70, 0
2, 28680, Note_on_c, 0, 68, 71
2, 28800, Note_on_c, 0, 68, 0
2, 28800, Note_on_c, 0, 60, 70
2, 28800, Note_on_c, 0, 63, 73
2, 28800, Note_on_c, 0, 68, 73
2, 28800, Note_on_c, 0, 72, 86
2, 29040, Note_on_c, 0, 72, 0
2, 29040, Note_on_c, 0, 60, 0
2, 29040, Note_on_c, 0, 63, 0
2, 29040, Note_on_c, 0, 68, 0
2, 29280, Note_on_c, 0, 60, 65
2, 29280, Note_on_c, 0, 65, 61
2, 29280, Note_on_c, 0, 68, 65
2, 29280, Note_on_c, 0, 72, 77
2, 29460, Note_on_c, 0, 72, 0
2, 29460, Note_on_c, 0, 60, 0
2, 29460, Note_on_c, 0, 65, 0
2, 29460, Note_on_c, 0, 68, 0
2, 29520, Note_on_c, 0, 72, 74
2, 29520, Note_on_c, 0, 84, 88
2, 29760, Note_on_c, 0, 84, 0
2, 29760, Note_on_c, 0, 72, 0
2, 29760, Note_on_c, 0, 64, 65
2, 29760, Note_on_c, 0, 70, 65
2, 29760, Note_on_c, 0, 73, 65
2, 29760, Note_on_c, 0, 76, 77
2, 29940, Note_on_c, 0, 76, 0
2, 29940, Note_on_c, 0, 64, 0
2, 29940, Note_on_c, 0, 70, 0
2, 29940, Note_on_c, 0, 73, 0
2, 30000, Note_on_c, 0, 85, 89
2, 30000, Note_on_c, 0, 73, 76
2, 30240, Note_on_c, 0, 73, 0
2, 30240, Note_on_c, 0, 85, 0
2, 30240, Note_on_c, 0, 65, 65
2, 30240, Note_on_c, 0, 68, 65
2, 30240, Note_on_c, 0, 73, 65
2, 30240, Note_on_c, 0, 77, 77
2, 30420, Note_on_c, 0, 77, 0
2, 30420, Note_on_c, 0, 65, 0
2, 30420, Note_on_c, 0, 68, 0
2, 30420, Note_on_c, 0, 73, 0
2, 30480, Note_on_c, 0, 92, 89
2, 30480, Note_on_c, 0, 80, 76
2, 30720, Note_on_c, 0, 80, 0
2, 30720, Note_on_c, 0, 92, 0
2, 30720, Note_on_c, 0, 67, 65
2, 30720, Note_on_c, 0, 73, 65
2, 30720, Note_on_c, 0, 77, 65
2, 30720, Note_on_c, 0, 79, 77
2, 30900, Note_on_c, 0, 79, 0
2, 30900, Note_on_c, 0, 67, 0
2, 30900, Note_on_c, 0, 73, 0
2, 30900, Note_on_c, 0, 77, 0
2, 30960, Note_on_c, 0, 91, 89
2, 30960, Note_on_c, 0, 79, 76
2, 31200, Note_on_c, 0, 79, 0
2, 31200, Note_on_c, 0, 91, 0
2, 31200, Note_on_c, 0, 59, 77
2, 31200, Note_on_c, 0, 71, 92
2, 31440, Note_on_c, 0, 71, 0
2, 31440, Note_on_c, 0, 59, 0
2, 31680, Note_on_c, 0, 101, 92
2, 31680, Note_on_c, 0, 89, 92
2, 31980, Note_on_c, 0, 89, 0
2, 31980, Note_on_c, 0, 101, 0
2, 31980, Note_on_c, 0, 99, 85
2, 32040, Note_on_c, 0, 99, 0
2, 32040, Note_on_c, 0, 97, 85
2, 32100, Note_on_c, 0, 97, 0
2, 32100, Note_on_c, 0, 92, 84
2, 32160, Note_on_c, 0, 92, 0
2, 32160, Note_on_c, 0, 89, 83
2, 32220, Note_on_c, 0, 89, 0
2, 32220, Note_on_c, 0, 87, 83
2, 32280, Note_on_c, 0, 87, 0
2, 32280, Note_on_c, 0, 85, 82
2, 32340, Note_on_c, 0, 85, 0
2, 32340, Note_on_c, 0, 80, 81
2, 32400, Note_on_c, 0, 80, 0
2, 32400, Note_on_c, 0, 77, 81
2, 32460, Note_on_c, 0, 77, 0
2, 32460, Note_on_c, 0, 75, 80
2, 32520, Note_on_c, 0, 75, 0
2, 32520, Note_on_c, 0, 73, 79
2, 32580, Note_on_c, 0, 73, 0
2, 32580, Note_on_c, 0, 68, 79
2, 32640, Note_on_c, 0, 68, 0
2, 32640, Note_on_c, 0, 65, 78
2, 32700, Note_on_c, 0, 65, 0
2, 32700, Note_on_c, 0, 63, 77
2, 32760, Note_on_c, 0, 63, 0
2, 32760, Note_on_c, 0, 61, 77
2, 32820, Note_on_c, 0, 61, 0
2, 32820, Note_on_c, 0, 56, 76
2, 32880, Note_on_c, 0, 56, 0
2, 32880, Note_on_c, 0, 53, 76
2, 32940, Note_on_c, 0, 53, 0
2, 32940, Note_on_c, 0, 51, 76
2, 33000, Note_on_c, 0, 51, 0
2, 33000, Note_on_c, 0, 49, 75
2, 33060, Note_on_c, 0, 49, 0
2, 33060, Note_on_c, 0, 44, 80
2, 33120, Note_on_c, 0, 44, 0
2, 33120, Note_on_c, 0, 41, 88
2, 33200, Note_on_c, 0, 43, 79
2, 33220, Note_on_c, 0, 41, 0
2, 33280, Note_on_c, 0, 41, 83
2, 33300, Note_on_c, 0, 43, 0
2, 33360, Note_on_c, 0, 43, 76
2, 33380, Note_on_c, 0, 41, 0
2, 33440, Note_on_c, 0, 41, 79
2, 33460, Note_on_c, 0, 43, 0
2, 33520, Note_on_c, 0, 43, 72
2, 33540, Note_on_c, 0, 41, 0
2, 33600, Note_on_c, 0, 41, 79
2, 33620, Note_on_c, 0, 43, 0
2, 33660, Note_on_c, 0, 43, 68
2, 33680, Note_on_c, 0, 41, 0
2, 33720, Note_on_c, 0, 41, 74
2, 33740, Note_on_c, 0, 43, 0
2, 33780, Note_on_c, 0, 43, 68
2, 33800, Note_on_c, 0, 41, 0
2, 33840, Note_on_c, 0, 41, 76
2, 33860, Note_on_c, 0, 43, 0
2, 33900, Note_on_c, 0, 43, 68
2, 33920, Note_on_c, 0, 41, 0
2, 33960, Note_on_c, 0, 41, 75
2, 33980, Note_on_c, 0, 43, 0
2, 34020, Note_on_c, 0, 43, 66
2, 34040, Note_on_c, 0, 41, 0
2, 34080, Note_on_c, 0, 40, 81
2, 34100, Note_on_c, 0, 43, 0
2, 34120, Note_on_c, 0, 40, 0
2, 34160, Note_on_c, 0, 41, 76
2, 34200, Note_on_c, 0, 41, 0
2, 34240, Note_on_c, 0, 49, 77
2, 34280, Note_on_c, 0, 49, 0
2, 34320, Note_on_c, 0, 48, 84
2, 34360, Note_on_c, 0, 48, 0
2, 34400, Note_on_c, 0, 43, 79
2, 34440, Note_on_c, 0, 43, 0
2, 34480, Note_on_c, 0, 47, 81
2, 34520, Note_on_c, 0, 47, 0
2, 34560, Note_on_c, 0, 42, 88
2, 34600, Note_on_c, 0, 42, 0
2, 34640, Note_on_c, 0, 46, 84
2, 34680, Note_on_c, 0, 46, 0
2, 34720, Note_on_c, 0, 41, 85
2, 34760, Note_on_c, 0, 41, 0
2, 34800, Note_on_c, 0, 45, 92
2, 34840, Note_on_c, 0, 45, 0
2, 34880, Note_on_c, 0, 41, 89
2, 34920, Note_on_c, 0, 41, 0
2, 34960, Note_on_c, 0, 44, 90
2, 35000, Note_on_c, 0, 44, 0
2, 35040, Note_on_c, 0, 36, 109
2, 35280, Note_on_c, 0, 36, 0
2, 37920, Note_on_c, 0, 48, 86
2, 37920, Note_on_c, 0, 55, 92
2, 37920, Note_on_c, 0, 60, 109
2, 38880, Note_on_c, 0, 60, 0
2, 38880, Note_on_c, 0, 55, 0
2, 38880, Note_on_c, 0, 48, 0
2, 38880, Note_on_c, 0, 48, 77
2, 38880, Note_on_c, 0, 53, 81
2, 38880, Note_on_c, 0, 56, 98
2, 38880, Note_on_c, 0, 60, 98
2, 40800, Note_on_c, 0, 60, 0
2, 40800, Note_on_c, 0, 48, 0
2, 40800, Note_on_c, 0, 53, 0
2, 40800, Note_on_c, 0, 56, 0
2, 40800, End_track
3, 0, Start_track
3, 0, MIDI_port, 0
3, 0, Title_t, "Piano left"
3, 0, Program_c, 0, 0
3, 0, Control_c, 0, 7, 100
3, 0, Control_c, 0, 10, 64
3, 0, Control_c, 0, 64, 0
3, 0, Control_c, 0, 91, 127
3, 0, Text_t, "bdca426d104a26ac9dcb070447587523"
3, 1200, Note_on_c, 0, 36, 30
3, 1200, Note_on_c, 0, 49, 35
3, 1223, Control_c, 0, 64, 127
3, 1440, Note_on_c, 0, 49, 0
3, 1440, Note_on_c, 0, 36, 0
3, 1440, Note_on_c, 0, 49, 35
3, 1440, Note_on_c, 0, 36, 30
3, 1566, Control_c, 0, 64, 0
3, 1680, Note_on_c, 0, 36, 0
3, 1680, Note_on_c, 0, 49, 0
3, 3120, Note_on_c, 0, 36, 30
3, 3120, Note_on_c, 0, 49, 35
3, 3143, Control_c, 0, 64, 127
3, 3360, Note_on_c, 0, 49, 0
3, 3360, Note_on_c, 0, 36, 0
3, 3360, Note_on_c, 0, 36, 30
3, 3360, Note_on_c, 0, 49, 35
3, 3486, Control_c, 0, 64, 0
3, 3600, Note_on_c, 0, 49, 0
3, 3600, Note_on_c, 0, 36, 0
3, 5040, Note_on_c, 0, 58, 49
3, 5160, Note_on_c, 0, 58, 0
3, 5160, Note_on_c, 0, 56, 47
3, 5280, Note_on_c, 0, 56, 0
3, 5280, Note_on_c, 0, 54, 48
3, 5400, Note_on_c, 0, 54, 0
3, 5400, Note_on_c, 0, 55, 53
3, 5520, Note_on_c, 0, 55, 0
3, 5520, Note_on_c, 0, 61, 56
3, 5640, Note_on_c, 0, 61, 0
3, 5640, Note_on_c, 0, 60, 53
3, 5760, Note_on_c, 0, 60, 0
3, 5760, Note_on_c, 0, 57, 56
3, 5880, Note_on_c, 0, 57, 0
3, 5880, Note_on_c, 0, 58, 54
3, 6000, Note_on_c, 0, 58, 0
3, 6000, Note_on_c, 0, 73, 57
3, 6120, Note_on_c, 0, 67, 54
3, 6130, Note_on_c, 0, 73, 0
3, 6240, Note_on_c, 0, 72, 53
3, 6250, Note_on_c, 0, 67, 0
3, 6360, Note_on_c, 0, 70, 52
3, 6370, Note_on_c, 0, 72, 0
3, 6480, Note_on_c, 0, 68, 51
3, 6490, Note_on_c, 0, 70, 0
3, 6600, Note_on_c, 0, 67, 50
3, 6610, Note_on_c, 0, 68, 0
3, 6720, Note_on_c, 0, 65, 49
3, 6730, Note_on_c, 0, 67, 0
3, 6840, Note_on_c, 0, 64, 48
3, 6850, Note_on_c, 0, 65, 0
3, 6960, Note_on_c, 0, 67, 47
3, 6970, Note_on_c, 0, 64, 0
3, 7080, Note_on_c, 0, 58, 47
3, 7090, Note_on_c, 0, 67, 0
3, 7200, Note_on_c, 0, 59, 46
3, 7210, Note_on_c, 0, 58, 0
3, 7296, Note_on_c, 0, 59, 0
3, 7296, Note_on_c, 0, 60, 42
3, 7392, Note_on_c, 0, 60, 0
3, 7392, Note_on_c, 0, 61, 45
3, 7488, Note_on_c, 0, 61, 0
3, 7488, Note_on_c, 0, 55, 44
3, 7584, Note_on_c, 0, 55, 0
3, 7584, Note_on_c, 0, 60, 43
3, 7680, Note_on_c, 0, 60, 0
3, 7680, Note_on_c, 0, 58, 47
3, 7800, Note_on_c, 0, 57, 43
3, 7810, Note_on_c, 0, 58, 0
3, 7930, Note_on_c, 0, 57, 0
3, 8880, Note_on_c, 0, 54, 38
3, 8880, Note_on_c, 0, 41, 33
3, 8903, Control_c, 0, 64, 127
3, 9120, Note_on_c, 0, 41, 0
3, 9120, Note_on_c, 0, 54, 0
3, 9120, Note_on_c, 0, 54, 38
3, 9120, Note_on_c, 0, 41, 33
3, 9246, Control_c, 0, 64, 0
3, 9360, Note_on_c, 0, 41, 0
3, 9360, Note_on_c, 0, 54, 0
3, 10800, Note_on_c, 0, 41, 33
3, 10800, Note_on_c, 0, 54, 38
3, 10823, Control_c, 0, 64, 127
3, 11040, Note_on_c, 0, 54, 0
3, 11040, Note_on_c, 0, 41, 0
3, 11040, Note_on_c, 0, 54, 38
3, 11040, Note_on_c, 0, 41, 33
3, 11166, Control_c, 0, 64, 0
3, 11280, Note_on_c, 0, 41, 0
3, 11280, Note_on_c, 0, 54, 0
3, 12240, Note_on_c, 0, 60, 48
3, 12360, Note_on_c, 0, 58, 50
3, 12370, Note_on_c, 0, 60, 0
3, 12480, Note_on_c, 0, 56, 54
3, 12490, Note_on_c, 0, 58, 0
3, 12600, Note_on_c, 0, 57, 49
3, 12610, Note_on_c, 0, 56, 0
3, 12720, Note_on_c, 0, 66, 53
3, 12730, Note_on_c, 0, 57, 0
3, 12840, Note_on_c, 0, 65, 49
3, 12850, Note_on_c, 0, 66, 0
3, 12960, Note_on_c, 0, 62, 50
3, 12970, Note_on_c, 0, 65, 0
3, 13080, Note_on_c, 0, 63, 54
3, 13090, Note_on_c, 0, 62, 0
3, 13200, Note_on_c, 0, 73, 57
3, 13210, Note_on_c, 0, 63, 0
3, 13320, Note_on_c, 0, 72, 54
3, 13330, Note_on_c, 0, 73, 0
3, 13440, Note_on_c, 0, 70, 57
3, 13450, Note_on_c, 0, 72, 0
3, 13560, Note_on_c, 0, 69, 52
3, 13570, Note_on_c, 0, 70, 0
3, 13680, Note_on_c, 0, 75, 56
3, 13690, Note_on_c, 0, 69, 0
3, 13800, Note_on_c, 0, 64, 53
3, 13810, Note_on_c, 0, 75, 0
3, 13920, Note_on_c, 0, 65, 59
3, 13930, Note_on_c, 0, 64, 0
3, 14040, Note_on_c, 0, 66, 60
3, 14050, Note_on_c, 0, 65, 0
3, 14160, Note_on_c, 0, 60, 57
3, 14170, Note_on_c, 0, 66, 0
3, 14280, Note_on_c, 0, 61, 55
3, 14290, Note_on_c, 0, 60, 0
3, 14400, Note_on_c, 0, 65, 64
3, 14410, Note_on_c, 0, 61, 0
3, 14520, Note_on_c, 0, 63, 62
3, 14530, Note_on_c, 0, 65, 0
3, 14640, Note_on_c, 0, 61, 60
3, 14650, Note_on_c, 0, 63, 0
3, 14760, Note_on_c, 0, 60, 60
3, 14770, Note_on_c, 0, 61, 0
3, 14880, Note_on_c, 0, 58, 68
3, 14890, Note_on_c, 0, 60, 0
3, 14976, Note_on_c, 0, 58, 0
3, 14976, Note_on_c, 0, 57, 63
3, 15072, Note_on_c, 0, 57, 0
3, 15072, Note_on_c, 0, 60, 65
3, 15168, Note_on_c, 0, 60, 0
3, 15168, Note_on_c, 0, 52, 66
3, 15264, Note_on_c, 0, 52, 0
3, 15264, Note_on_c, 0, 53, 67
3, 15360, Note_on_c, 0, 53, 0
3, 15360, Note_on_c, 0, 54, 68
3, 15456, Note_on_c, 0, 54, 0
3, 15456, Note_on_c, 0, 48, 68
3, 15552, Note_on_c, 0, 48, 0
3, 15552, Note_on_c, 0, 53, 69
3, 15648, Note_on_c, 0, 53, 0
3, 15648, Note_on_c, 0, 51, 70
3, 15744, Note_on_c, 0, 51, 0
3, 15744, Note_on_c, 0, 49, 71
3, 15840, Note_on_c, 0, 49, 0
3, 15840, Note_on_c, 0, 48, 85
3, 16080, Note_on_c, 0, 48, 0
3, 16080, Note_on_c, 0, 46, 80
3, 16320, Note_on_c, 0, 46, 0
3, 16320, Note_on_c, 0, 34, 64
3, 16320, Note_on_c, 0, 46, 74
3, 16349, Control_c, 0, 64, 127
3, 16560, Note_on_c, 0, 46, 0
3, 16560, Note_on_c, 0, 34, 0
3, 16560, Control_c, 0, 64, 0
3, 16800, Note_on_c, 0, 61, 54
3, 16846, Control_c, 0, 64, 127
3, 16920, Note_on_c, 0, 61, 0
3, 16920, Note_on_c, 0, 55, 56
3, 17040, Note_on_c, 0, 55, 0
3, 17040, Note_on_c, 0, 56, 59
3, 17160, Note_on_c, 0, 56, 0
3, 17160, Note_on_c, 0, 57, 61
3, 17280, Note_on_c, 0, 57, 0
3, 17280, Note_on_c, 0, 60, 66
3, 17301, Control_c, 0, 64, 0
3, 17343, Control_c, 0, 64, 127
3, 17400, Note_on_c, 0, 60, 0
3, 17400, Note_on_c, 0, 58, 70
3, 17520, Note_on_c, 0, 58, 0
3, 17520, Note_on_c, 0, 56, 73
3, 17640, Note_on_c, 0, 56, 0
3, 17640, Note_on_c, 0, 55, 77
3, 17760, Note_on_c, 0, 55, 0
3, 17760, Note_on_c, 0, 53, 81
3, 17880, Note_on_c, 0, 53, 0
3, 17880, Note_on_c, 0, 52, 79
3, 17943, Control_c, 0, 64, 0
3, 18000, Note_on_c, 0, 52, 0
3, 18240, Note_on_c, 0, 46, 78
3, 18240, Note_on_c, 0, 34, 68
3, 18286, Control_c, 0, 64, 127
3, 18480, Note_on_c, 0, 34, 0
3, 18480, Note_on_c, 0, 46, 0
3, 18503, Control_c, 0, 64, 0
3, 18720, Note_on_c, 0, 68, 74
3, 18754, Control_c, 0, 64, 127
3, 18840, Note_on_c, 0, 68, 0
3, 18840, Note_on_c, 0, 58, 65
3, 18960, Note_on_c, 0, 58, 0
3, 18960, Note_on_c, 0, 68, 71
3, 19080, Note_on_c, 0, 68, 0
3, 19080, Note_on_c, 0, 67, 68
3, 19189, Control_c, 0, 64, 0
3, 19200, Note_on_c, 0, 67, 0
3, 19200, Note_on_c, 0, 64, 66
3, 19223, Control_c, 0, 64, 127
3, 19320, Note_on_c, 0, 64, 0
3, 19320, Note_on_c, 0, 61, 62
3, 19440, Note_on_c, 0, 61, 0
3, 19440, Note_on_c, 0, 58, 60
3, 19560, Note_on_c, 0, 58, 0
3, 19560, Note_on_c, 0, 55, 58
3, 19680, Note_on_c, 0, 55, 0
3, 19680, Note_on_c, 0, 52, 58
3, 19800, Note_on_c, 0, 52, 0
3, 19800, Note_on_c, 0, 53, 57
3, 19818, Control_c, 0, 64, 0
3, 19920, Note_on_c, 0, 53, 0
3, 20160, Note_on_c, 0, 44, 81
3, 20160, Note_on_c, 0, 32, 68
3, 20195, Control_c, 0, 64, 127
3, 20326, Control_c, 0, 64, 0
3, 20400, Note_on_c, 0, 32, 0
3, 20400, Note_on_c, 0, 44, 0
3, 20640, Note_on_c, 0, 72, 76
3, 20661, Control_c, 0, 64, 127
3, 20760, Note_on_c, 0, 72, 0
3, 20760, Note_on_c, 0, 65, 72
3, 20880, Note_on_c, 0, 65, 0
3, 20880, Note_on_c, 0, 66, 74
3, 21000, Note_on_c, 0, 66, 0
3, 21000, Note_on_c, 0, 67, 72
3, 21120, Note_on_c, 0, 67, 0
3, 21120, Note_on_c, 0, 70, 67
3, 21155, Control_c, 0, 64, 0
3, 21173, Control_c, 0, 64, 127
3, 21216, Note_on_c, 0, 70, 0
3, 21216, Note_on_c, 0, 68, 66
3, 21312, Note_on_c, 0, 68, 0
3, 21312, Note_on_c, 0, 65, 63
3, 21408, Note_on_c, 0, 65, 0
3, 21408, Note_on_c, 0, 61, 60
3, 21504, Note_on_c, 0, 61, 0
3, 21504, Note_on_c, 0, 60, 59
3, 21600, Note_on_c, 0, 60, 0
3, 21600, Note_on_c, 0, 60, 58
3, 21720, Note_on_c, 0, 60, 0
3, 21720, Note_on_c, 0, 59, 57
3, 21754, Control_c, 0, 64, 0
3, 21840, Note_on_c, 0, 59, 0
3, 22080, Note_on_c, 0, 41, 75
3, 22080, Note_on_c, 0, 29, 68
3, 22103, Control_c, 0, 64, 127
3, 22223, Control_c, 0, 64, 0
3, 22320, Note_on_c, 0, 29, 0
3, 22320, Note_on_c, 0, 41, 0
3, 22560, Note_on_c, 0, 80, 71
3, 22609, Control_c, 0, 64, 127
3, 22620, Note_on_c, 0, 80, 0
3, 22620, Note_on_c, 0, 74, 70
3, 22680, Note_on_c, 0, 74, 0
3, 22680, Note_on_c, 0, 75, 70
3, 22740, Note_on_c, 0, 75, 0
3, 22740, Note_on_c, 0, 76, 70
3, 22800, Note_on_c, 0, 76, 0
3, 22800, Note_on_c, 0, 79, 69
3, 22860, Note_on_c, 0, 79, 0
3, 22860, Note_on_c, 0, 77, 69
3, 22920, Note_on_c, 0, 77, 0
3, 22920, Note_on_c, 0, 74, 68
3, 22980, Note_on_c, 0, 74, 0
3, 22980, Note_on_c, 0, 71, 66
3, 23040, Note_on_c, 0, 71, 0
3, 23040, Note_on_c, 0, 67, 66
3, 23071, Control_c, 0, 64, 0
3, 23094, Control_c, 0, 64, 127
3, 23100, Note_on_c, 0, 67, 0
3, 23100, Note_on_c, 0, 68, 65
3, 23160, Note_on_c, 0, 68, 0
3, 23160, Note_on_c, 0, 65, 64
3, 23220, Note_on_c, 0, 65, 0
3, 23220, Note_on_c, 0, 62, 63
3, 23280, Note_on_c, 0, 62, 0
3, 23280, Note_on_c, 0, 59, 63
3, 23328, Note_on_c, 0, 59, 0
3, 23328, Note_on_c, 0, 55, 63
3, 23376, Note_on_c, 0, 55, 0
3, 23376, Note_on_c, 0, 56, 63
3, 23424, Note_on_c, 0, 56, 0
3, 23424, Note_on_c, 0, 53, 62
3, 23472, Note_on_c, 0, 53, 0
3, 23472, Note_on_c, 0, 50, 62
3, 23520, Note_on_c, 0, 50, 0
3, 23520, Control_c, 0, 64, 0
3, 23520, Note_on_c, 0, 47, 67
3, 23640, Note_on_c, 0, 47, 0
3, 23640, Note_on_c, 0, 48, 59
3, 23760, Note_on_c, 0, 48, 0
3, 23760, Note_on_c, 0, 53, 60
3, 23775, Control_c, 0, 64, 127
3, 23880, Note_on_c, 0, 53, 0
3, 23880, Note_on_c, 0, 51, 58
3, 24000, Note_on_c, 0, 51, 0
3, 24000, Note_on_c, 0, 44, 60
3, 24000, Note_on_c, 0, 39, 60
3, 24000, Control_c, 0, 64, 0
3, 24000, Note_on_c, 0, 51, 64
3, 24025, Control_c, 0, 64, 127
3, 24140, Control_c, 0, 64, 0
3, 24240, Note_on_c, 0, 51, 0
3, 24240, Note_on_c, 0, 39, 0
3, 24240, Note_on_c, 0, 44, 0
3, 24480, Note_on_c, 0, 50, 57
3, 24480, Control_c, 0, 64, 127
3, 24480, Note_on_c, 0, 62, 69
3, 24640, Note_on_c, 0, 62, 0
3, 24640, Note_on_c, 0, 50, 0
3, 24640, Note_on_c, 0, 61, 57
3, 24640, Note_on_c, 0, 49, 49
3, 24800, Note_on_c, 0, 49, 0
3, 24800, Note_on_c, 0, 61, 0
3, 24800, Note_on_c, 0, 60, 57
3, 24800, Note_on_c, 0, 48, 48
3, 24960, Note_on_c, 0, 48, 0
3, 24960, Note_on_c, 0, 60, 0
3, 24960, Note_on_c, 0, 48, 47
3, 24960, Note_on_c, 0, 60, 57
3, 24985, Control_c, 0, 64, 0
3, 25010, Control_c, 0, 64, 127
3, 25120, Note_on_c, 0, 60, 0
3, 25120, Note_on_c, 0, 48, 0
3, 25120, Note_on_c, 0, 48, 47
3, 25120, Note_on_c, 0, 60, 55
3, 25280, Note_on_c, 0, 60, 0
3, 25280, Note_on_c, 0, 48, 0
3, 25280, Note_on_c, 0, 48, 45
3, 25280, Note_on_c, 0, 60, 54
3, 25440, Note_on_c, 0, 60, 0
3, 25440, Note_on_c, 0, 48, 0
3, 25440, Note_on_c, 0, 47, 59
3, 25440, Control_c, 0, 64, 0
3, 25560, Note_on_c, 0, 47, 0
3, 25560, Note_on_c, 0, 48, 57
3, 25680, Note_on_c, 0, 48, 0
3, 25680, Control_c, 0, 64, 127
3, 25680, Note_on_c, 0, 53, 59
3, 25800, Note_on_c, 0, 53, 0
3, 25800, Note_on_c, 0, 52, 56
3, 25915, Control_c, 0, 64, 0
3, 25920, Note_on_c, 0, 52, 0
3, 25920, Note_on_c, 0, 40, 60
3, 25920, Note_on_c, 0, 48, 60
3, 25920, Note_on_c, 0, 52, 68
3, 25970, Control_c, 0, 64, 127
3, 26105, Control_c, 0, 64, 0
3, 26160, Note_on_c, 0, 52, 0
3, 26160, Note_on_c, 0, 48, 0
3, 26160, Note_on_c, 0, 40, 0
3, 26400, Note_on_c, 0, 50, 61
3, 26400, Note_on_c, 0, 62, 73
3, 26430, Control_c, 0, 64, 127
3, 26560, Note_on_c, 0, 62, 0
3, 26560, Note_on_c, 0, 50, 0
3, 26560, Note_on_c, 0, 61, 65
3, 26560, Note_on_c, 0, 49, 54
3, 26720, Note_on_c, 0, 49, 0
3, 26720, Note_on_c, 0, 61, 0
3, 26720, Note_on_c, 0, 48, 53
3, 26720, Note_on_c, 0, 60, 63
3, 26880, Note_on_c, 0, 60, 0
3, 26880, Note_on_c, 0, 48, 0
3, 26880, Note_on_c, 0, 60, 58
3, 26880, Note_on_c, 0, 48, 50
3, 26885, Control_c, 0, 64, 0
3, 26940, Control_c, 0, 64, 127
3, 27000, Note_on_c, 0, 48, 0
3, 27000, Note_on_c, 0, 60, 0
3, 27000, Note_on_c, 0, 48, 50
3, 27000, Note_on_c, 0, 60, 58
3, 27120, Note_on_c, 0, 60, 0
3, 27120, Note_on_c, 0, 48, 0
3, 27120, Note_on_c, 0, 48, 48
3, 27120, Note_on_c, 0, 60, 57
3, 27240, Note_on_c, 0, 60, 0
3, 27240, Note_on_c, 0, 48, 0
3, 27240, Note_on_c, 0, 60, 57
3, 27240, Note_on_c, 0, 48, 48
3, 27360, Note_on_c, 0, 48, 0
3, 27360, Note_on_c, 0, 60, 0
3, 27360, Note_on_c, 0, 47, 63
3, 27360, Control_c, 0, 64, 0
3, 27480, Note_on_c, 0, 47, 0
3, 27480, Note_on_c, 0, 48, 60
3, 27600, Note_on_c, 0, 48, 0
3, 27600, Note_on_c, 0, 55, 63
3, 27617, Control_c, 0, 64, 127
3, 27720, Note_on_c, 0, 55, 0
3, 27720, Note_on_c, 0, 53, 59
3, 27840, Note_on_c, 0, 53, 0
3, 27840, Note_on_c, 0, 56, 74
3, 27840, Note_on_c, 0, 41, 64
3, 27840, Note_on_c, 0, 48, 64
3, 27891, Control_c, 0, 64, 0
3, 27903, Control_c, 0, 64, 127
3, 28029, Control_c, 0, 64, 0
3, 28080, Note_on_c, 0, 48, 0
3, 28080, Note_on_c, 0, 41, 0
3, 28080, Note_on_c, 0, 56, 0
3, 28320, Note_on_c, 0, 47, 63
3, 28440, Note_on_c, 0, 47, 0
3, 28440, Note_on_c, 0, 48, 60
3, 28560, Note_on_c, 0, 48, 0
3, 28560, Note_on_c, 0, 58, 63
3, 28594, Control_c, 0, 64, 127
3, 28680, Note_on_c, 0, 58, 0
3, 28680, Note_on_c, 0, 56, 59
3, 28800, Note_on_c, 0, 56, 0
3, 28800, Note_on_c, 0, 42, 62
3, 28800, Note_on_c, 0, 54, 70
3, 28800, Note_on_c, 0, 44, 64
3, 28863, Control_c, 0, 64, 0
3, 28903, Control_c, 0, 64, 127
3, 28983, Control_c, 0, 64, 0
3, 29040, Note_on_c, 0, 44, 0
3, 29040, Note_on_c, 0, 54, 0
3, 29040, Note_on_c, 0, 42, 0
3, 29280, Note_on_c, 0, 42, 54
3, 29280, Note_on_c, 0, 54, 64
3, 29280, Note_on_c, 0, 44, 54
3, 29293, Control_c, 0, 64, 127
3, 29460, Note_on_c, 0, 44, 0
3, 29460, Note_on_c, 0, 54, 0
3, 29460, Note_on_c, 0, 42, 0
3, 29520, Note_on_c, 0, 48, 57
3, 29520, Note_on_c, 0, 60, 70
3, 29732, Control_c, 0, 64, 0
3, 29760, Note_on_c, 0, 60, 0
3, 29760, Note_on_c, 0, 48, 0
3, 29760, Note_on_c, 0, 55, 64
3, 29760, Note_on_c, 0, 43, 54
3, 29818, Control_c, 0, 64, 127
3, 29940, Note_on_c, 0, 43, 0
3, 29940, Note_on_c, 0, 55, 0
3, 30000, Note_on_c, 0, 61, 71
3, 30000, Note_on_c, 0, 49, 59
3, 30191, Control_c, 0, 64, 0
3, 30240, Note_on_c, 0, 49, 0
3, 30240, Note_on_c, 0, 61, 0
3, 30240, Note_on_c, 0, 44, 54
3, 30240, Note_on_c, 0, 56, 64
3, 30240, Note_on_c, 0, 49, 54
3, 30259, Control_c, 0, 64, 127
3, 30420, Note_on_c, 0, 49, 0
3, 30420, Note_on_c, 0, 56, 0
3, 30420, Note_on_c, 0, 44, 0
3, 30480, Note_on_c, 0, 56, 71
3, 30480, Note_on_c, 0, 68, 71
3, 30702, Control_c, 0, 64, 0
3, 30720, Note_on_c, 0, 68, 0
3, 30720, Note_on_c, 0, 56, 0
3, 30720, Note_on_c, 0, 49, 54
3, 30720, Note_on_c, 0, 46, 54
3, 30720, Note_on_c, 0, 58, 64
3, 30765, Control_c, 0, 64, 127
3, 30900, Note_on_c, 0, 58, 0
3, 30900, Note_on_c, 0, 46, 0
3, 30900, Note_on_c, 0, 49, 0
3, 30960, Note_on_c, 0, 67, 71
3, 30960, Note_on_c, 0, 55, 59
3, 31151, Control_c, 0, 64, 0
3, 31200, Note_on_c, 0, 55, 0
3, 31200, Note_on_c, 0, 67, 0
3, 31200, Note_on_c, 0, 35, 65
3, 31200, Control_c, 0, 64, 127
3, 31200, Note_on_c, 0, 47, 76
3, 31440, Note_on_c, 0, 47, 0
3, 31440, Note_on_c, 0, 35, 0
3, 31500, Note_on_c, 0, 59, 73
3, 31560, Note_on_c, 0, 61, 76
3, 31620, Note_on_c, 0, 65, 77
3, 31680, Note_on_c, 0, 73, 81
3, 32160, Note_on_c, 0, 73, 0
3, 32160, Note_on_c, 0, 59, 0
3, 32160, Note_on_c, 0, 61, 0
3, 32160, Note_on_c, 0, 65, 0
3, 33120, Control_c, 0, 64, 0
3, 33120, Note_on_c, 0, 29, 69
3, 33200, Note_on_c, 0, 31, 55
3, 33220, Note_on_c, 0, 29, 0
3, 33280, Note_on_c, 0, 29, 62
3, 33300, Note_on_c, 0, 31, 0
3, 33360, Note_on_c, 0, 31, 54
3, 33380, Note_on_c, 0, 29, 0
3, 33440, Note_on_c, 0, 29, 60
3, 33460, Note_on_c, 0, 31, 0
3, 33520, Note_on_c, 0, 31, 54
3, 33540, Note_on_c, 0, 29, 0
3, 33600, Note_on_c, 0, 29, 64
3, 33620, Note_on_c, 0, 31, 0
3, 33660, Note_on_c, 0, 31, 56
3, 33680, Note_on_c, 0, 29, 0
3, 33720, Note_on_c, 0, 29, 61
3, 33740, Note_on_c, 0, 31, 0
3, 33780, Note_on_c, 0, 31, 51
3, 33800, Note_on_c, 0, 29, 0
3, 33840, Note_on_c, 0, 29, 57
3, 33860, Note_on_c, 0, 31, 0
3, 33900, Note_on_c, 0, 31, 52
3, 33920, Note_on_c, 0, 29, 0
3, 33960, Note_on_c, 0, 29, 59
3, 33980, Note_on_c, 0, 31, 0
3, 34020, Note_on_c, 0, 31, 50
3, 34040, Note_on_c, 0, 29, 0
3, 34080, Note_on_c, 0, 28, 69
3, 34100, Note_on_c, 0, 31, 0
3, 34120, Note_on_c, 0, 28, 0
3, 34160, Note_on_c, 0, 29, 63
3, 34200, Note_on_c, 0, 29, 0
3, 34240, Note_on_c, 0, 37, 65
3, 34280, Note_on_c, 0, 37, 0
3, 34320, Note_on_c, 0, 36, 71
3, 34360, Note_on_c, 0, 36, 0
3, 34400, Note_on_c, 0, 31, 67
3, 34440, Note_on_c, 0, 31, 0
3, 34480, Note_on_c, 0, 35, 68
3, 34520, Note_on_c, 0, 35, 0
3, 34560, Note_on_c, 0, 30, 75
3, 34600, Note_on_c, 0, 30, 0
3, 34640, Note_on_c, 0, 34, 71
3, 34680, Note_on_c, 0, 34, 0
3, 34720, Note_on_c, 0, 29, 71
3, 34760, Note_on_c, 0, 29, 0
3, 34800, Note_on_c, 0, 33, 77
3, 34840, Note_on_c, 0, 33, 0
3, 34880, Note_on_c, 0, 29, 75
3, 34920, Note_on_c, 0, 29, 0
3, 34960, Note_on_c, 0, 32, 76
3, 35000, Note_on_c, 0, 32, 0
3, 35040, Note_on_c, 0, 24, 88
3, 35082, Control_c, 0, 64, 127
3, 35280, Note_on_c, 0, 24, 0
3, 35478, Control_c, 0, 64, 0
3, 37920, Note_on_c, 0, 36, 71
3, 37920, Note_on_c, 0, 43, 80
3, 38160, Control_c, 0, 64, 127
3, 38880, Note_on_c, 0, 43, 0
3, 38880, Note_on_c, 0, 36, 0
3, 38880, Note_on_c, 0, 41, 73
3, 38880, Note_on_c, 0, 29, 62
3, 38880, Control_c, 0, 64, 0
3, 39307, Control_c, 0, 64, 127
3, 40800, Note_on_c, 0, 29, 0
3, 40800, Note_on_c, 0, 41, 0
3, 42133, Control_c, 0, 64, 0
3, 42133, End_track
4, 0, Start_track
4, 0, MIDI_port, 0
4, 0, Title_t, "Chopin: Prelude No.18 in F Minor Op. 28"
4, 0, End_track
5, 0, Start_track
5, 0, MIDI_port, 0
5, 0, Title_t, "Copyright \251 2002 by Bernd Krueger"
5, 0, End_track
6, 0, Start_track
6, 0, MIDI_port, 0
6, 0, Title_t, "email: bernd.krueger@piano-midi.de"
6, 0, End_track
7, 0, Start_track
7, 0, MIDI_port, 0
7, 0, Title_t, "http://www.piano-midi.de"
7, 0, End_track
8, 0, Start_track
8, 0, MIDI_port, 0
8, 0, Title_t, "Edition: 30.11.02"
8, 0, End_track
9, 0, Start_track
9, 0, MIDI_port, 0
9, 0, End_track
0, 0, End_of_file