0, 0, Header, 1, 3, 480
1, 0, Start_track
1, 0, Tempo, 599809
1, 0, Time_signature, 3, 2, 24, 8
1, 0, Copyright_t, "Copyright \251 1999 My Music Company"
1, 0, Title_t, "Piano Solo"
1, 34560, Tempo, 599809
1, 74880, End_track
2, 0, Start_track
2, 0, Key_signature, -3, "major"
2, 0, Control_c, 0, 7, 108
2, 0, Control_c, 0, 0, 0
2, 0, Control_c, 0, 32, 0
2, 0, Program_c, 0, 0
2, 0, Control_c, 0, 1, 0
2, 0, Control_c, 0, 10, 64
2, 0, Control_c, 0, 91, 0
2, 0, Control_c, 0, 93, 0
2, 0, Key_signature, -3, "major"
2, 0, Title_t, "Piano"
2, 0, Note_on_c, 0, 68, 100
2, 0, Note_on_c, 0, 79, 100
2, 0, Note_on_c, 0, 51, 100
2, 0, Note_on_c, 0, 58, 100
2, 0, Note_on_c, 0, 62, 100
2, 228, Note_on_c, 0, 79, 0
2, 240, Note_on_c, 0, 77, 100
2, 456, Note_on_c, 0, 62, 0
2, 456, Note_on_c, 0, 58, 0
2, 456, Note_on_c, 0, 51, 0
2, 456, Note_on_c, 0, 68, 0
2, 468, Note_on_c, 0, 77, 0
2, 480, Note_on_c, 0, 68, 100
2, 480, Note_on_c, 0, 70, 100
2, 480, Note_on_c, 0, 51, 100
2, 480, Note_on_c, 0, 58, 100
2, 480, Note_on_c, 0, 62, 100
2, 936, Note_on_c, 0, 62, 0
2, 936, Note_on_c, 0, 58, 0
2, 936, Note_on_c, 0, 51, 0
2, 936, Note_on_c, 0, 70, 0
2, 936, Note_on_c, 0, 68, 0
2, 960, Note_on_c, 0, 67, 100
2, 960, Note_on_c, 0, 79, 100
2, 960, Note_on_c, 0, 51, 100
2, 960, Note_on_c, 0, 58, 100
2, 960, Note_on_c, 0, 63, 100
2, 1416, Note_on_c, 0, 63, 0
2, 1416, Note_on_c, 0, 58, 0
2, 1416, Note_on_c, 0, 51, 0
2, 1416, Note_on_c, 0, 79, 0
2, 1416, Note_on_c, 0, 67, 0
2, 1440, Note_on_c, 0, 68, 100
2, 1440, Note_on_c, 0, 79, 100
2, 1440, Note_on_c, 0, 51, 100
2, 1440, Note_on_c, 0, 59, 100
2, 1440, Note_on_c, 0, 62, 100
2, 1668, Note_on_c, 0, 79, 0
2, 1680, Note_on_c, 0, 77, 100
2, 1896, Note_on_c, 0, 62, 0
2, 1896, Note_on_c, 0, 59, 0
2, 1896, Note_on_c, 0, 51, 0
2, 1896, Note_on_c, 0, 68, 0
2, 1908, Note_on_c, 0, 77, 0
2, 1920, Note_on_c, 0, 68, 100
2, 1920, Note_on_c, 0, 70, 100
2, 1920, Note_on_c, 0, 51, 100
2, 1920, Note_on_c, 0, 58, 100
2, 1920, Note_on_c, 0, 62, 100
2, 2376, Note_on_c, 0, 62, 0
2, 2376, Note_on_c, 0, 58, 0
2, 2376, Note_on_c, 0, 51, 0
2, 2376, Note_on_c, 0, 70, 0
2, 2376, Note_on_c, 0, 68, 0
2, 2400, Note_on_c, 0, 67, 100
2, 2400, Note_on_c, 0, 79, 100
2, 2400, Note_on_c, 0, 51, 100
2, 2400, Note_on_c, 0, 58, 100
2, 2400, Note_on_c, 0, 63, 100
2, 2856, Note_on_c, 0, 63, 0
2, 2856, Note_on_c, 0, 58, 0
2, 2856, Note_on_c, 0, 51, 0
2, 2856, Note_on_c, 0, 79, 0
2, 2856, Note_on_c, 0, 67, 0
2, 2880, Note_on_c, 0, 68, 100
2, 2880, Note_on_c, 0, 79, 100
2, 2880, Note_on_c, 0, 51, 100
2, 2880, Note_on_c, 0, 58, 100
2, 2880, Note_on_c, 0, 62, 100
2, 3108, Note_on_c, 0, 79, 0
2, 3120, Note_on_c, 0, 77, 100
2, 3336, Note_on_c, 0, 62, 0
2, 3336, Note_on_c, 0, 58, 0
2, 3336, Note_on_c, 0, 51, 0
2, 3336, Note_on_c, 0, 68, 0
2, 3348, Note_on_c, 0, 77, 0
2, 3360, Note_on_c, 0, 68, 100
2, 3360, Note_on_c, 0, 70, 100
2, 3360, Note_on_c, 0, 51, 100
2, 3360, Note_on_c, 0, 58, 100
2, 3360, Note_on_c, 0, 62, 100
2, 3816, Note_on_c, 0, 62, 0
2, 3816, Note_on_c, 0, 58, 0
2, 3816, Note_on_c, 0, 51, 0
2, 3816, Note_on_c, 0, 70, 0
2, 3816, Note_on_c, 0, 68, 0
2, 3840, Note_on_c, 0, 68, 100
2, 3840, Note_on_c, 0, 77, 100
2, 3840, Note_on_c, 0, 51, 100
2, 3840, Note_on_c, 0, 58, 100
2, 3840, Note_on_c, 0, 62, 100
2, 4296, Note_on_c, 0, 62, 0
2, 4296, Note_on_c, 0, 58, 0
2, 4296, Note_on_c, 0, 51, 0
2, 4296, Note_on_c, 0, 77, 0
2, 4296, Note_on_c, 0, 68, 0
2, 4320, Note_on_c, 0, 75, 100
2, 4320, Note_on_c, 0, 67, 100
2, 4320, Note_on_c, 0, 51, 100
2, 4320, Note_on_c, 0, 58, 100
2, 4320, Note_on_c, 0, 63, 100
2, 5256, Note_on_c, 0, 63, 0
2, 5256, Note_on_c, 0, 58, 0
2, 5256, Note_on_c, 0, 51, 0
2, 5280, Note_on_c, 0, 39, 100
2, 5736, Note_on_c, 0, 67, 0
2, 5736, Note_on_c, 0, 75, 0
2, 5736, Note_on_c, 0, 39, 0
2, 5760, Control_c, 0, 7, 82
2, 6240, Note_on_c, 0, 53, 100
2, 6240, Note_on_c, 0, 56, 100
2, 6240, Note_on_c, 0, 60, 100
2, 6240, Note_on_c, 0, 65, 100
2, 6696, Note_on_c, 0, 65, 0
2, 6696, Note_on_c, 0, 60, 0
2, 6696, Note_on_c, 0, 56, 0
2, 6696, Note_on_c, 0, 53, 0
2, 6720, Note_on_c, 0, 53, 100
2, 6720, Note_on_c, 0, 56, 100
2, 6720, Note_on_c, 0, 60, 100
2, 6720, Note_on_c, 0, 65, 100
2, 7176, Note_on_c, 0, 65, 0
2, 7176, Note_on_c, 0, 60, 0
2, 7176, Note_on_c, 0, 56, 0
2, 7176, Note_on_c, 0, 53, 0
2, 7680, Note_on_c, 0, 48, 100
2, 7680, Note_on_c, 0, 51, 100
2, 7680, Note_on_c, 0, 55, 100
2, 7680, Note_on_c, 0, 60, 100
2, 8136, Note_on_c, 0, 60, 0
2, 8136, Note_on_c, 0, 55, 0
2, 8136, Note_on_c, 0, 51, 0
2, 8136, Note_on_c, 0, 48, 0
2, 8160, Note_on_c, 0, 48, 100
2, 8160, Note_on_c, 0, 51, 100
2, 8160, Note_on_c, 0, 55, 100
2, 8160, Note_on_c, 0, 60, 100
2, 8616, Note_on_c, 0, 60, 0
2, 8616, Note_on_c, 0, 55, 0
2, 8616, Note_on_c, 0, 51, 0
2, 8616, Note_on_c, 0, 48, 0
2, 8640, Note_on_c, 0, 53, 100
2, 9120, Note_on_c, 0, 56, 100
2, 9120, Note_on_c, 0, 60, 100
2, 9120, Note_on_c, 0, 65, 100
2, 9576, Note_on_c, 0, 65, 0
2, 9576, Note_on_c, 0, 60, 0
2, 9576, Note_on_c, 0, 56, 0
2, 9600, Note_on_c, 0, 56, 100
2, 9600, Note_on_c, 0, 60, 100
2, 9600, Note_on_c, 0, 65, 100
2, 10056, Note_on_c, 0, 53, 0
2, 10056, Note_on_c, 0, 65, 0
2, 10056, Note_on_c, 0, 60, 0
2, 10056, Note_on_c, 0, 56, 0
2, 10080, Note_on_c, 0, 48, 100
2, 10560, Note_on_c, 0, 56, 100
2, 10560, Note_on_c, 0, 60, 100
2, 10560, Note_on_c, 0, 63, 100
2, 11016, Note_on_c, 0, 63, 0
2, 11016, Note_on_c, 0, 60, 0
2, 11016, Note_on_c, 0, 56, 0
2, 11040, Note_on_c, 0, 55, 100
2, 11040, Note_on_c, 0, 60, 100
2, 11040, Note_on_c, 0, 63, 100
2, 11496, Note_on_c, 0, 63, 0
2, 11496, Note_on_c, 0, 60, 0
2, 11496, Note_on_c, 0, 55, 0
2, 11496, Note_on_c, 0, 48, 0
2, 11520, Note_on_c, 0, 46, 100
2, 12000, Note_on_c, 0, 56, 100
2, 12000, Note_on_c, 0, 62, 100
2, 12000, Note_on_c, 0, 65, 100
2, 12456, Note_on_c, 0, 65, 0
2, 12456, Note_on_c, 0, 62, 0
2, 12456, Note_on_c, 0, 56, 0
2, 12480, Note_on_c, 0, 56, 100
2, 12480, Note_on_c, 0, 62, 100
2, 12480, Note_on_c, 0, 65, 100
2, 12936, Note_on_c, 0, 46, 0
2, 12936, Note_on_c, 0, 65, 0
2, 12936, Note_on_c, 0, 62, 0
2, 12936, Note_on_c, 0, 56, 0
2, 12960, Note_on_c, 0, 51, 100
2, 12960, Note_on_c, 0, 39, 100
2, 13440, Note_on_c, 0, 55, 100
2, 13440, Note_on_c, 0, 58, 100
2, 13440, Note_on_c, 0, 63, 100
2, 13896, Note_on_c, 0, 63, 0
2, 13896, Note_on_c, 0, 58, 0
2, 13896, Note_on_c, 0, 55, 0
2, 13920, Note_on_c, 0, 55, 100
2, 13920, Note_on_c, 0, 58, 100
2, 13920, Note_on_c, 0, 63, 100
2, 14376, Note_on_c, 0, 63, 0
2, 14376, Note_on_c, 0, 58, 0
2, 14376, Note_on_c, 0, 55, 0
2, 14376, Note_on_c, 0, 39, 0
2, 14376, Note_on_c, 0, 51, 0
2, 14400, Note_on_c, 0, 46, 100
2, 14880, Note_on_c, 0, 56, 100
2, 14880, Note_on_c, 0, 62, 100
2, 14880, Note_on_c, 0, 65, 100
2, 15336, Note_on_c, 0, 65, 0
2, 15336, Note_on_c, 0, 62, 0
2, 15336, Note_on_c, 0, 56, 0
2, 15360, Note_on_c, 0, 56, 100
2, 15360, Note_on_c, 0, 62, 100
2, 15360, Note_on_c, 0, 65, 100
2, 15816, Note_on_c, 0, 65, 0
2, 15816, Note_on_c, 0, 62, 0
2, 15816, Note_on_c, 0, 56, 0
2, 15816, Note_on_c, 0, 46, 0
2, 15840, Note_on_c, 0, 51, 100
2, 15840, Note_on_c, 0, 39, 100
2, 16320, Note_on_c, 0, 55, 100
2, 16320, Note_on_c, 0, 58, 100
2, 16320, Note_on_c, 0, 63, 100
2, 16776, Note_on_c, 0, 63, 0
2, 16776, Note_on_c, 0, 58, 0
2, 16776, Note_on_c, 0, 55, 0
2, 16800, Note_on_c, 0, 55, 100
2, 16800, Note_on_c, 0, 58, 100
2, 16800, Note_on_c, 0, 63, 100
2, 17256, Note_on_c, 0, 39, 0
2, 17256, Note_on_c, 0, 51, 0
2, 17256, Note_on_c, 0, 63, 0
2, 17256, Note_on_c, 0, 58, 0
2, 17256, Note_on_c, 0, 55, 0
2, 17280, Note_on_c, 0, 47, 100
2, 17760, Note_on_c, 0, 55, 100
2, 17760, Note_on_c, 0, 62, 100
2, 17760, Note_on_c, 0, 65, 100
2, 18216, Note_on_c, 0, 65, 0
2, 18216, Note_on_c, 0, 62, 0
2, 18216, Note_on_c, 0, 55, 0
2, 18240, Note_on_c, 0, 55, 100
2, 18240, Note_on_c, 0, 62, 100
2, 18240, Note_on_c, 0, 65, 100
2, 18696, Note_on_c, 0, 65, 0
2, 18696, Note_on_c, 0, 62, 0
2, 18696, Note_on_c, 0, 55, 0
2, 18696, Note_on_c, 0, 47, 0
2, 18720, Note_on_c, 0, 48, 100
2, 19200, Note_on_c, 0, 55, 100
2, 19200, Note_on_c, 0, 60, 100
2, 19200, Note_on_c, 0, 63, 100
2, 19656, Note_on_c, 0, 63, 0
2, 19656, Note_on_c, 0, 60, 0
2, 19656, Note_on_c, 0, 55, 0
2, 19680, Note_on_c, 0, 55, 100
2, 19680, Note_on_c, 0, 60, 100
2, 19680, Note_on_c, 0, 63, 100
2, 20136, Note_on_c, 0, 48, 0
2, 20136, Note_on_c, 0, 63, 0
2, 20136, Note_on_c, 0, 60, 0
2, 20136, Note_on_c, 0, 55, 0
2, 20160, Note_on_c, 0, 50, 100
2, 20640, Note_on_c, 0, 58, 100
2, 20640, Note_on_c, 0, 65, 100
2, 20640, Note_on_c, 0, 68, 100
2, 21096, Note_on_c, 0, 68, 0
2, 21096, Note_on_c, 0, 65, 0
2, 21096, Note_on_c, 0, 58, 0
2, 21120, Note_on_c, 0, 58, 100
2, 21120, Note_on_c, 0, 65, 100
2, 21120, Note_on_c, 0, 68, 100
2, 21576, Note_on_c, 0, 68, 0
2, 21576, Note_on_c, 0, 65, 0
2, 21576, Note_on_c, 0, 58, 0
2, 21576, Note_on_c, 0, 50, 0
2, 21600, Note_on_c, 0, 51, 100
2, 22080, Note_on_c, 0, 58, 100
2, 22080, Note_on_c, 0, 67, 100
2, 22536, Note_on_c, 0, 67, 0
2, 22536, Note_on_c, 0, 58, 0
2, 22536, Note_on_c, 0, 51, 0
2, 22560, Note_on_c, 0, 59, 100
2, 22560, Note_on_c, 0, 63, 100
2, 22560, Note_on_c, 0, 71, 100
2, 22560, Note_on_c, 0, 43, 100
2, 23016, Note_on_c, 0, 43, 0
2, 23016, Note_on_c, 0, 71, 0
2, 23016, Note_on_c, 0, 63, 0
2, 23016, Note_on_c, 0, 59, 0
2, 23040, Note_on_c, 0, 44, 100
2, 23520, Note_on_c, 0, 60, 100
2, 23520, Note_on_c, 0, 64, 100
2, 23976, Note_on_c, 0, 64, 0
2, 23976, Note_on_c, 0, 60, 0
2, 24000, Note_on_c, 0, 60, 100
2, 24000, Note_on_c, 0, 65, 100
2, 24456, Note_on_c, 0, 44, 0
2, 24456, Note_on_c, 0, 65, 0
2, 24456, Note_on_c, 0, 60, 0
2, 24480, Note_on_c, 0, 46, 100
2, 24480, Note_on_c, 0, 34, 100
2, 24960, Note_on_c, 0, 67, 100
2, 24960, Note_on_c, 0, 58, 100
2, 24960, Note_on_c, 0, 63, 100
2, 25416, Note_on_c, 0, 63, 0
2, 25416, Note_on_c, 0, 58, 0
2, 25416, Note_on_c, 0, 67, 0
2, 25440, Note_on_c, 0, 67, 100
2, 25440, Note_on_c, 0, 58, 100
2, 25440, Note_on_c, 0, 63, 100
2, 25896, Note_on_c, 0, 63, 0
2, 25896, Note_on_c, 0, 58, 0
2, 25896, Note_on_c, 0, 67, 0
2, 25896, Note_on_c, 0, 34, 0
2, 25896, Note_on_c, 0, 46, 0
2, 25920, Note_on_c, 0, 34, 100
2, 26400, Note_on_c, 0, 56, 100
2, 26400, Note_on_c, 0, 62, 100
2, 26400, Note_on_c, 0, 65, 100
2, 26856, Note_on_c, 0, 65, 0
2, 26856, Note_on_c, 0, 62, 0
2, 26856, Note_on_c, 0, 56, 0
2, 26880, Note_on_c, 0, 65, 100
2, 26880, Note_on_c, 0, 56, 100
2, 26880, Note_on_c, 0, 62, 100
2, 27336, Note_on_c, 0, 34, 0
2, 27336, Note_on_c, 0, 62, 0
2, 27336, Note_on_c, 0, 56, 0
2, 27336, Note_on_c, 0, 65, 0
2, 27360, Note_on_c, 0, 39, 100
2, 27840, Note_on_c, 0, 57, 100
2, 27840, Note_on_c, 0, 63, 100
2, 27840, Note_on_c, 0, 66, 100
2, 28296, Note_on_c, 0, 66, 0
2, 28296, Note_on_c, 0, 63, 0
2, 28296, Note_on_c, 0, 57, 0
2, 28320, Note_on_c, 0, 67, 100
2, 28320, Note_on_c, 0, 58, 100
2, 28320, Note_on_c, 0, 63, 100
2, 28776, Note_on_c, 0, 63, 0
2, 28776, Note_on_c, 0, 58, 0
2, 28776, Note_on_c, 0, 67, 0
2, 28776, Note_on_c, 0, 39, 0
2, 28800, Note_on_c, 0, 44, 100
2, 29280, Note_on_c, 0, 59, 100
2, 29280, Note_on_c, 0, 67, 100
2, 29736, Note_on_c, 0, 67, 0
2, 29736, Note_on_c, 0, 59, 0
2, 29760, Note_on_c, 0, 68, 100
2, 29760, Note_on_c, 0, 60, 100
2, 29760, Note_on_c, 0, 65, 100
2, 30216, Note_on_c, 0, 65, 0
2, 30216, Note_on_c, 0, 60, 0
2, 30216, Note_on_c, 0, 68, 0
2, 30216, Note_on_c, 0, 44, 0
2, 30240, Note_on_c, 0, 46, 100
2, 30720, Note_on_c, 0, 58, 100
2, 30720, Note_on_c, 0, 67, 100
2, 30720, Note_on_c, 0, 63, 100
2, 31176, Note_on_c, 0, 63, 0
2, 31176, Note_on_c, 0, 67, 0
2, 31176, Note_on_c, 0, 58, 0
2, 31200, Note_on_c, 0, 67, 100
2, 31200, Note_on_c, 0, 58, 100
2, 31200, Note_on_c, 0, 64, 100
2, 31656, Note_on_c, 0, 46, 0
2, 31656, Note_on_c, 0, 64, 0
2, 31656, Note_on_c, 0, 58, 0
2, 31656, Note_on_c, 0, 67, 0
2, 31680, Note_on_c, 0, 46, 100
2, 31680, Note_on_c, 0, 34, 100
2, 32160, Note_on_c, 0, 68, 100
2, 32160, Note_on_c, 0, 58, 100
2, 32160, Note_on_c, 0, 65, 100
2, 32616, Note_on_c, 0, 65, 0
2, 32616, Note_on_c, 0, 58, 0
2, 32616, Note_on_c, 0, 68, 0
2, 32640, Note_on_c, 0, 68, 100
2, 32640, Note_on_c, 0, 58, 100
2, 32640, Note_on_c, 0, 62, 100
2, 33096, Note_on_c, 0, 62, 0
2, 33096, Note_on_c, 0, 58, 0
2, 33096, Note_on_c, 0, 68, 0
2, 33096, Note_on_c, 0, 34, 0
2, 33096, Note_on_c, 0, 46, 0
2, 33120, Note_on_c, 0, 39, 100
2, 33120, Note_on_c, 0, 46, 100
2, 33160, Control_c, 0, 7, 83
2, 33200, Control_c, 0, 7, 84
2, 33280, Control_c, 0, 7, 85
2, 33320, Control_c, 0, 7, 86
2, 33360, Control_c, 0, 7, 87
2, 33400, Control_c, 0, 7, 88
2, 33480, Control_c, 0, 7, 89
2, 33520, Control_c, 0, 7, 90
2, 33560, Control_c, 0, 7, 91
2, 33600, Note_on_c, 0, 63, 100
2, 33600, Note_on_c, 0, 55, 100
2, 33640, Control_c, 0, 7, 92
2, 33680, Control_c, 0, 7, 93
2, 33720, Control_c, 0, 7, 94
2, 33760, Control_c, 0, 7, 95
2, 33840, Control_c, 0, 7, 96
2, 33880, Control_c, 0, 7, 97
2, 33920, Control_c, 0, 7, 98
2, 33960, Control_c, 0, 7, 99
2, 34040, Control_c, 0, 7, 100
2, 34056, Note_on_c, 0, 46, 0
2, 34056, Note_on_c, 0, 39, 0
2, 34056, Note_on_c, 0, 55, 0
2, 34056, Note_on_c, 0, 63, 0
2, 34080, Control_c, 0, 7, 101
2, 34080, Note_on_c, 0, 67, 100
2, 34080, Note_on_c, 0, 79, 100
2, 34080, Note_on_c, 0, 51, 100
2, 34080, Note_on_c, 0, 58, 100
2, 34080, Note_on_c, 0, 63, 100
2, 34120, Control_c, 0, 7, 102
2, 34200, Control_c, 0, 7, 103
2, 34240, Control_c, 0, 7, 104
2, 34280, Control_c, 0, 7, 105
2, 34320, Control_c, 0, 7, 106
2, 34400, Control_c, 0, 7, 107
2, 34440, Control_c, 0, 7, 108
2, 34536, Note_on_c, 0, 63, 0
2, 34536, Note_on_c, 0, 58, 0
2, 34536, Note_on_c, 0, 51, 0
2, 34536, Note_on_c, 0, 79, 0
2, 34536, Note_on_c, 0, 67, 0
2, 34560, Key_signature, -3, "major"
2, 34560, Control_c, 0, 7, 108
2, 34560, Control_c, 0, 0, 0
2, 34560, Control_c, 0, 32, 0
2, 34560, Program_c, 0, 0
2, 34560, Control_c, 0, 1, 0
2, 34560, Control_c, 0, 10, 64
2, 34560, Control_c, 0, 91, 0
2, 34560, Control_c, 0, 93, 0
2, 34560, Key_signature, -3, "major"
2, 34560, Note_on_c, 0, 68, 100
2, 34560, Note_on_c, 0, 79, 100
2, 34560, Note_on_c, 0, 51, 100
2, 34560, Note_on_c, 0, 58, 100
2, 34560, Note_on_c, 0, 62, 100
2, 34788, Note_on_c, 0, 79, 0
2, 34800, Note_on_c, 0, 77, 100
2, 35016, Note_on_c, 0, 62, 0
2, 35016, Note_on_c, 0, 58, 0
2, 35016, Note_on_c, 0, 51, 0
2, 35016, Note_on_c, 0, 68, 0
2, 35028, Note_on_c, 0, 77, 0
2, 35040, Note_on_c, 0, 68, 100
2, 35040, Note_on_c, 0, 70, 100
2, 35040, Note_on_c, 0, 51, 100
2, 35040, Note_on_c, 0, 58, 100
2, 35040, Note_on_c, 0, 62, 100
2, 35496, Note_on_c, 0, 62, 0
2, 35496, Note_on_c, 0, 58, 0
2, 35496, Note_on_c, 0, 51, 0
2, 35496, Note_on_c, 0, 70, 0
2, 35496, Note_on_c, 0, 68, 0
2, 35520, Note_on_c, 0, 67, 100
2, 35520, Note_on_c, 0, 79, 100
2, 35520, Note_on_c, 0, 51, 100
2, 35520, Note_on_c, 0, 58, 100
2, 35520, Note_on_c, 0, 63, 100
2, 35976, Note_on_c, 0, 63, 0
2, 35976, Note_on_c, 0, 58, 0
2, 35976, Note_on_c, 0, 51, 0
2, 35976, Note_on_c, 0, 79, 0
2, 35976, Note_on_c, 0, 67, 0
2, 36000, Note_on_c, 0, 68, 100
2, 36000, Note_on_c, 0, 79, 100
2, 36000, Note_on_c, 0, 51, 100
2, 36000, Note_on_c, 0, 59, 100
2, 36000, Note_on_c, 0, 62, 100
2, 36228, Note_on_c, 0, 79, 0
2, 36240, Note_on_c, 0, 77, 100
2, 36456, Note_on_c, 0, 62, 0
2, 36456, Note_on_c, 0, 59, 0
2, 36456, Note_on_c, 0, 51, 0
2, 36456, Note_on_c, 0, 68, 0
2, 36468, Note_on_c, 0, 77, 0
2, 36480, Note_on_c, 0, 68, 100
2, 36480, Note_on_c, 0, 70, 100
2, 36480, Note_on_c, 0, 51, 100
2, 36480, Note_on_c, 0, 58, 100
2, 36480, Note_on_c, 0, 62, 100
2, 36936, Note_on_c, 0, 62, 0
2, 36936, Note_on_c, 0, 58, 0
2, 36936, Note_on_c, 0, 51, 0
2, 36936, Note_on_c, 0, 70, 0
2, 36936, Note_on_c, 0, 68, 0
2, 36960, Note_on_c, 0, 67, 100
2, 36960, Note_on_c, 0, 79, 100
2, 36960, Note_on_c, 0, 51, 100
2, 36960, Note_on_c, 0, 58, 100
2, 36960, Note_on_c, 0, 63, 100
2, 37416, Note_on_c, 0, 63, 0
2, 37416, Note_on_c, 0, 58, 0
2, 37416, Note_on_c, 0, 51, 0
2, 37416, Note_on_c, 0, 79, 0
2, 37416, Note_on_c, 0, 67, 0
2, 37440, Note_on_c, 0, 68, 100
2, 37440, Note_on_c, 0, 79, 100
2, 37440, Note_on_c, 0, 51, 100
2, 37440, Note_on_c, 0, 58, 100
2, 37440, Note_on_c, 0, 62, 100
2, 37668, Note_on_c, 0, 79, 0
2, 37680, Note_on_c, 0, 77, 100
2, 37896, Note_on_c, 0, 62, 0
2, 37896, Note_on_c, 0, 58, 0
2, 37896, Note_on_c, 0, 51, 0
2, 37896, Note_on_c, 0, 68, 0
2, 37908, Note_on_c, 0, 77, 0
2, 37920, Note_on_c, 0, 68, 100
2, 37920, Note_on_c, 0, 70, 100
2, 37920, Note_on_c, 0, 51, 100
2, 37920, Note_on_c, 0, 58, 100
2, 37920, Note_on_c, 0, 62, 100
2, 38376, Note_on_c, 0, 62, 0
2, 38376, Note_on_c, 0, 58, 0
2, 38376, Note_on_c, 0, 51, 0
2, 38376, Note_on_c, 0, 70, 0
2, 38376, Note_on_c, 0, 68, 0
2, 38400, Note_on_c, 0, 68, 100
2, 38400, Note_on_c, 0, 77, 100
2, 38400, Note_on_c, 0, 51, 100
2, 38400, Note_on_c, 0, 58, 100
2, 38400, Note_on_c, 0, 62, 100
2, 38856, Note_on_c, 0, 62, 0
2, 38856, Note_on_c, 0, 58, 0
2, 38856, Note_on_c, 0, 51, 0
2, 38856, Note_on_c, 0, 77, 0
2, 38856, Note_on_c, 0, 68, 0
2, 38880, Note_on_c, 0, 75, 100
2, 38880, Note_on_c, 0, 67, 100
2, 38880, Note_on_c, 0, 51, 100
2, 38880, Note_on_c, 0, 58, 100
2, 38880, Note_on_c, 0, 63, 100
2, 39816, Note_on_c, 0, 63, 0
2, 39816, Note_on_c, 0, 58, 0
2, 39816, Note_on_c, 0, 51, 0
2, 39840, Note_on_c, 0, 39, 100
2, 40296, Note_on_c, 0, 39, 0
2, 40296, Note_on_c, 0, 67, 0
2, 40296, Note_on_c, 0, 75, 0
2, 40320, Control_c, 0, 7, 82
2, 40800, Note_on_c, 0, 53, 100
2, 40800, Note_on_c, 0, 56, 100
2, 40800, Note_on_c, 0, 60, 100
2, 40800, Note_on_c, 0, 65, 100
2, 41256, Note_on_c, 0, 65, 0
2, 41256, Note_on_c, 0, 60, 0
2, 41256, Note_on_c, 0, 56, 0
2, 41256, Note_on_c, 0, 53, 0
2, 41280, Note_on_c, 0, 53, 100
2, 41280, Note_on_c, 0, 56, 100
2, 41280, Note_on_c, 0, 60, 100
2, 41280, Note_on_c, 0, 65, 100
2, 41736, Note_on_c, 0, 65, 0
2, 41736, Note_on_c, 0, 60, 0
2, 41736, Note_on_c, 0, 56, 0
2, 41736, Note_on_c, 0, 53, 0
2, 42240, Note_on_c, 0, 48, 100
2, 42240, Note_on_c, 0, 51, 100
2, 42240, Note_on_c, 0, 55, 100
2, 42240, Note_on_c, 0, 60, 100
2, 42696, Note_on_c, 0, 60, 0
2, 42696, Note_on_c, 0, 55, 0
2, 42696, Note_on_c, 0, 51, 0
2, 42696, Note_on_c, 0, 48, 0
2, 42720, Note_on_c, 0, 48, 100
2, 42720, Note_on_c, 0, 51, 100
2, 42720, Note_on_c, 0, 55, 100
2, 42720, Note_on_c, 0, 60, 100
2, 43176, Note_on_c, 0, 60, 0
2, 43176, Note_on_c, 0, 55, 0
2, 43176, Note_on_c, 0, 51, 0
2, 43176, Note_on_c, 0, 48, 0
2, 43200, Note_on_c, 0, 53, 100
2, 43680, Note_on_c, 0, 56, 100
2, 43680, Note_on_c, 0, 60, 100
2, 43680, Note_on_c, 0, 65, 100
2, 44136, Note_on_c, 0, 65, 0
2, 44136, Note_on_c, 0, 60, 0
2, 44136, Note_on_c, 0, 56, 0
2, 44160, Note_on_c, 0, 56, 100
2, 44160, Note_on_c, 0, 60, 100
2, 44160, Note_on_c, 0, 65, 100
2, 44616, Note_on_c, 0, 65, 0
2, 44616, Note_on_c, 0, 60, 0
2, 44616, Note_on_c, 0, 56, 0
2, 44616, Note_on_c, 0, 53, 0
2, 44640, Note_on_c, 0, 48, 100
2, 45120, Note_on_c, 0, 56, 100
2, 45120, Note_on_c, 0, 60, 100
2, 45120, Note_on_c, 0, 63, 100
2, 45576, Note_on_c, 0, 63, 0
2, 45576, Note_on_c, 0, 60, 0
2, 45576, Note_on_c, 0, 56, 0
2, 45600, Note_on_c, 0, 55, 100
2, 45600, Note_on_c, 0, 60, 100
2, 45600, Note_on_c, 0, 63, 100
2, 46056, Note_on_c, 0, 48, 0
2, 46056, Note_on_c, 0, 63, 0
2, 46056, Note_on_c, 0, 60, 0
2, 46056, Note_on_c, 0, 55, 0
2, 46080, Note_on_c, 0, 46, 100
2, 46560, Note_on_c, 0, 56, 100
2, 46560, Note_on_c, 0, 62, 100
2, 46560, Note_on_c, 0, 65, 100
2, 47016, Note_on_c, 0, 65, 0
2, 47016, Note_on_c, 0, 62, 0
2, 47016, Note_on_c, 0, 56, 0
2, 47040, Note_on_c, 0, 56, 100
2, 47040, Note_on_c, 0, 62, 100
2, 47040, Note_on_c, 0, 65, 100
2, 47496, Note_on_c, 0, 65, 0
2, 47496, Note_on_c, 0, 62, 0
2, 47496, Note_on_c, 0, 56, 0
2, 47496, Note_on_c, 0, 46, 0
2, 47520, Note_on_c, 0, 51, 100
2, 47520, Note_on_c, 0, 39, 100
2, 48000, Note_on_c, 0, 55, 100
2, 48000, Note_on_c, 0, 58, 100
2, 48000, Note_on_c, 0, 63, 100
2, 48456, Note_on_c, 0, 63, 0
2, 48456, Note_on_c, 0, 58, 0
2, 48456, Note_on_c, 0, 55, 0
2, 48480, Note_on_c, 0, 55, 100
2, 48480, Note_on_c, 0, 58, 100
2, 48480, Note_on_c, 0, 63, 100
2, 48936, Note_on_c, 0, 39, 0
2, 48936, Note_on_c, 0, 51, 0
2, 48936, Note_on_c, 0, 63, 0
2, 48936, Note_on_c, 0, 58, 0
2, 48936, Note_on_c, 0, 55, 0
2, 48960, Note_on_c, 0, 46, 100
2, 49440, Note_on_c, 0, 56, 100
2, 49440, Note_on_c, 0, 62, 100
2, 49440, Note_on_c, 0, 65, 100
2, 49896, Note_on_c, 0, 65, 0
2, 49896, Note_on_c, 0, 62, 0
2, 49896, Note_on_c, 0, 56, 0
2, 49920, Note_on_c, 0, 56, 100
2, 49920, Note_on_c, 0, 62, 100
2, 49920, Note_on_c, 0, 65, 100
2, 50376, Note_on_c, 0, 65, 0
2, 50376, Note_on_c, 0, 62, 0
2, 50376, Note_on_c, 0, 56, 0
2, 50376, Note_on_c, 0, 46, 0
2, 50400, Note_on_c, 0, 51, 100
2, 50400, Note_on_c, 0, 39, 100
2, 50880, Note_on_c, 0, 55, 100
2, 50880, Note_on_c, 0, 58, 100
2, 50880, Note_on_c, 0, 63, 100
2, 51336, Note_on_c, 0, 63, 0
2, 51336, Note_on_c, 0, 58, 0
2, 51336, Note_on_c, 0, 55, 0
2, 51360, Note_on_c, 0, 55, 100
2, 51360, Note_on_c, 0, 58, 100
2, 51360, Note_on_c, 0, 63, 100
2, 51816, Note_on_c, 0, 63, 0
2, 51816, Note_on_c, 0, 58, 0
2, 51816, Note_on_c, 0, 55, 0
2, 51816, Note_on_c, 0, 39, 0
2, 51816, Note_on_c, 0, 51, 0
2, 51840, Note_on_c, 0, 47, 100
2, 52320, Note_on_c, 0, 55, 100
2, 52320, Note_on_c, 0, 62, 100
2, 52320, Note_on_c, 0, 65, 100
2, 52776, Note_on_c, 0, 65, 0
2, 52776, Note_on_c, 0, 62, 0
2, 52776, Note_on_c, 0, 55, 0
2, 52800, Note_on_c, 0, 55, 100
2, 52800, Note_on_c, 0, 62, 100
2, 52800, Note_on_c, 0, 65, 100
2, 53256, Note_on_c, 0, 47, 0
2, 53256, Note_on_c, 0, 65, 0
2, 53256, Note_on_c, 0, 62, 0
2, 53256, Note_on_c, 0, 55, 0
2, 53280, Note_on_c, 0, 48, 100
2, 53760, Note_on_c, 0, 55, 100
2, 53760, Note_on_c, 0, 60, 100
2, 53760, Note_on_c, 0, 63, 100
2, 54216, Note_on_c, 0, 63, 0
2, 54216, Note_on_c, 0, 60, 0
2, 54216, Note_on_c, 0, 55, 0
2, 54240, Note_on_c, 0, 55, 100
2, 54240, Note_on_c, 0, 60, 100
2, 54240, Note_on_c, 0, 63, 100
2, 54696, Note_on_c, 0, 63, 0
2, 54696, Note_on_c, 0, 60, 0
2, 54696, Note_on_c, 0, 55, 0
2, 54696, Note_on_c, 0, 48, 0
2, 54720, Note_on_c, 0, 50, 100
2, 55200, Note_on_c, 0, 58, 100
2, 55200, Note_on_c, 0, 65, 100
2, 55200, Note_on_c, 0, 68, 100
2, 55656, Note_on_c, 0, 68, 0
2, 55656, Note_on_c, 0, 65, 0
2, 55656, Note_on_c, 0, 58, 0
2, 55680, Note_on_c, 0, 58, 100
2, 55680, Note_on_c, 0, 65, 100
2, 55680, Note_on_c, 0, 68, 100
2, 56136, Note_on_c, 0, 50, 0
2, 56136, Note_on_c, 0, 68, 0
2, 56136, Note_on_c, 0, 65, 0
2, 56136, Note_on_c, 0, 58, 0
2, 56160, Note_on_c, 0, 51, 100
2, 56640, Note_on_c, 0, 58, 100
2, 56640, Note_on_c, 0, 67, 100
2, 57096, Note_on_c, 0, 67, 0
2, 57096, Note_on_c, 0, 58, 0
2, 57096, Note_on_c, 0, 51, 0
2, 57120, Note_on_c, 0, 59, 100
2, 57120, Note_on_c, 0, 63, 100
2, 57120, Note_on_c, 0, 71, 100
2, 57120, Note_on_c, 0, 43, 100
2, 57576, Note_on_c, 0, 43, 0
2, 57576, Note_on_c, 0, 71, 0
2, 57576, Note_on_c, 0, 63, 0
2, 57576, Note_on_c, 0, 59, 0
2, 57600, Note_on_c, 0, 44, 100
2, 58080, Note_on_c, 0, 60, 100
2, 58080, Note_on_c, 0, 64, 100
2, 58536, Note_on_c, 0, 64, 0
2, 58536, Note_on_c, 0, 60, 0
2, 58560, Note_on_c, 0, 60, 100
2, 58560, Note_on_c, 0, 65, 100
2, 59016, Note_on_c, 0, 65, 0
2, 59016, Note_on_c, 0, 60, 0
2, 59016, Note_on_c, 0, 44, 0
2, 59040, Note_on_c, 0, 46, 100
2, 59040, Note_on_c, 0, 34, 100
2, 59520, Note_on_c, 0, 67, 100
2, 59520, Note_on_c, 0, 58, 100
2, 59520, Note_on_c, 0, 63, 100
2, 59976, Note_on_c, 0, 63, 0
2, 59976, Note_on_c, 0, 58, 0
2, 59976, Note_on_c, 0, 67, 0
2, 60000, Note_on_c, 0, 67, 100
2, 60000, Note_on_c, 0, 58, 100
2, 60000, Note_on_c, 0, 63, 100
2, 60456, Note_on_c, 0, 34, 0
2, 60456, Note_on_c, 0, 46, 0
2, 60456, Note_on_c, 0, 63, 0
2, 60456, Note_on_c, 0, 58, 0
2, 60456, Note_on_c, 0, 67, 0
2, 60480, Note_on_c, 0, 34, 100
2, 60960, Note_on_c, 0, 56, 100
2, 60960, Note_on_c, 0, 62, 100
2, 60960, Note_on_c, 0, 65, 100
2, 61416, Note_on_c, 0, 65, 0
2, 61416, Note_on_c, 0, 62, 0
2, 61416, Note_on_c, 0, 56, 0
2, 61440, Note_on_c, 0, 65, 100
2, 61440, Note_on_c, 0, 56, 100
2, 61440, Note_on_c, 0, 62, 100
2, 61896, Note_on_c, 0, 62, 0
2, 61896, Note_on_c, 0, 56, 0
2, 61896, Note_on_c, 0, 65, 0
2, 61896, Note_on_c, 0, 34, 0
2, 61920, Note_on_c, 0, 39, 100
2, 62400, Note_on_c, 0, 57, 100
2, 62400, Note_on_c, 0, 63, 100
2, 62400, Note_on_c, 0, 66, 100
2, 62856, Note_on_c, 0, 66, 0
2, 62856, Note_on_c, 0, 63, 0
2, 62856, Note_on_c, 0, 57, 0
2, 62880, Note_on_c, 0, 67, 100
2, 62880, Note_on_c, 0, 58, 100
2, 62880, Note_on_c, 0, 63, 100
2, 63336, Note_on_c, 0, 39, 0
2, 63336, Note_on_c, 0, 63, 0
2, 63336, Note_on_c, 0, 58, 0
2, 63336, Note_on_c, 0, 67, 0
2, 63360, Note_on_c, 0, 44, 100
2, 63840, Note_on_c, 0, 59, 100
2, 63840, Note_on_c, 0, 67, 100
2, 64296, Note_on_c, 0, 67, 0
2, 64296, Note_on_c, 0, 59, 0
2, 64320, Note_on_c, 0, 68, 100
2, 64320, Note_on_c, 0, 60, 100
2, 64320, Note_on_c, 0, 65, 100
2, 64776, Note_on_c, 0, 65, 0
2, 64776, Note_on_c, 0, 60, 0
2, 64776, Note_on_c, 0, 68, 0
2, 64776, Note_on_c, 0, 44, 0
2, 64800, Note_on_c, 0, 46, 100
2, 65280, Note_on_c, 0, 58, 100
2, 65280, Note_on_c, 0, 67, 100
2, 65280, Note_on_c, 0, 63, 100
2, 65736, Note_on_c, 0, 63, 0
2, 65736, Note_on_c, 0, 67, 0
2, 65736, Note_on_c, 0, 58, 0
2, 65760, Note_on_c, 0, 67, 100
2, 65760, Note_on_c, 0, 58, 100
2, 65760, Note_on_c, 0, 64, 100
2, 66216, Note_on_c, 0, 64, 0
2, 66216, Note_on_c, 0, 58, 0
2, 66216, Note_on_c, 0, 67, 0
2, 66216, Note_on_c, 0, 46, 0
2, 66240, Note_on_c, 0, 46, 100
2, 66240, Note_on_c, 0, 34, 100
2, 66720, Note_on_c, 0, 68, 100
2, 66720, Note_on_c, 0, 58, 100
2, 66720, Note_on_c, 0, 65, 100
2, 67176, Note_on_c, 0, 65, 0
2, 67176, Note_on_c, 0, 58, 0
2, 67176, Note_on_c, 0, 68, 0
2, 67200, Note_on_c, 0, 68, 100
2, 67200, Note_on_c, 0, 58, 100
2, 67200, Note_on_c, 0, 62, 100
2, 67200, Control_c, 0, 7, 82
2, 67656, Note_on_c, 0, 34, 0
2, 67656, Note_on_c, 0, 46, 0
2, 67656, Note_on_c, 0, 62, 0
2, 67656, Note_on_c, 0, 58, 0
2, 67656, Note_on_c, 0, 68, 0
2, 67680, Note_on_c, 0, 39, 100
2, 67680, Note_on_c, 0, 46, 100
2, 67720, Control_c, 0, 7, 83
2, 67720, Control_c, 0, 7, 83
2, 67760, Control_c, 0, 7, 84
2, 67760, Control_c, 0, 7, 84
2, 67840, Control_c, 0, 7, 85
2, 67840, Control_c, 0, 7, 85
2, 67880, Control_c, 0, 7, 86
2, 67880, Control_c, 0, 7, 86
2, 67920, Control_c, 0, 7, 87
2, 67920, Control_c, 0, 7, 87
2, 67960, Control_c, 0, 7, 88
2, 67960, Control_c, 0, 7, 88
2, 68040, Control_c, 0, 7, 89
2, 68040, Control_c, 0, 7, 89
2, 68080, Control_c, 0, 7, 90
2, 68080, Control_c, 0, 7, 90
2, 68120, Control_c, 0, 7, 91
2, 68120, Control_c, 0, 7, 91
2, 68160, Note_on_c, 0, 63, 100
2, 68160, Note_on_c, 0, 55, 100
2, 68200, Control_c, 0, 7, 92
2, 68200, Control_c, 0, 7, 92
2, 68240, Control_c, 0, 7, 93
2, 68240, Control_c, 0, 7, 93
2, 68280, Control_c, 0, 7, 94
2, 68280, Control_c, 0, 7, 94
2, 68320, Control_c, 0, 7, 95
2, 68320, Control_c, 0, 7, 95
2, 68400, Control_c, 0, 7, 96
2, 68400, Control_c, 0, 7, 96
2, 68440, Control_c, 0, 7, 97
2, 68440, Control_c, 0, 7, 97
2, 68480, Control_c, 0, 7, 98
2, 68480, Control_c, 0, 7, 98
2, 68520, Control_c, 0, 7, 99
2, 68520, Control_c, 0, 7, 99
2, 68600, Control_c, 0, 7, 100
2, 68600, Control_c, 0, 7, 100
2, 68616, Note_on_c, 0, 55, 0
2, 68616, Note_on_c, 0, 63, 0
2, 68616, Note_on_c, 0, 46, 0
2, 68616, Note_on_c, 0, 39, 0
2, 68640, Control_c, 0, 7, 101
2, 68640, Note_on_c, 0, 67, 100
2, 68640, Note_on_c, 0, 79, 100
2, 68640, Note_on_c, 0, 51, 100
2, 68640, Note_on_c, 0, 58, 100
2, 68640, Note_on_c, 0, 63, 100
2, 68640, Control_c, 0, 7, 101
2, 68680, Control_c, 0, 7, 102
2, 68680, Control_c, 0, 7, 102
2, 68760, Control_c, 0, 7, 103
2, 68760, Control_c, 0, 7, 103
2, 68800, Control_c, 0, 7, 104
2, 68800, Control_c, 0, 7, 104
2, 68840, Control_c, 0, 7, 105
2, 68840, Control_c, 0, 7, 105
2, 68880, Control_c, 0, 7, 106
2, 68880, Control_c, 0, 7, 106
2, 68960, Control_c, 0, 7, 107
2, 68960, Control_c, 0, 7, 107
2, 69000, Control_c, 0, 7, 108
2, 69000, Control_c, 0, 7, 108
2, 69096, Note_on_c, 0, 63, 0
2, 69096, Note_on_c, 0, 58, 0
2, 69096, Note_on_c, 0, 51, 0
2, 69096, Note_on_c, 0, 79, 0
2, 69096, Note_on_c, 0, 67, 0
2, 69120, Note_on_c, 0, 68, 100
2, 69120, Note_on_c, 0, 79, 100
2, 69120, Note_on_c, 0, 51, 100
2, 69120, Note_on_c, 0, 58, 100
2, 69120, Note_on_c, 0, 62, 100
2, 69348, Note_on_c, 0, 79, 0
2, 69360, Note_on_c, 0, 77, 100
2, 69576, Note_on_c, 0, 62, 0
2, 69576, Note_on_c, 0, 58, 0
2, 69576, Note_on_c, 0, 51, 0
2, 69576, Note_on_c, 0, 68, 0
2, 69588, Note_on_c, 0, 77, 0
2, 69600, Note_on_c, 0, 68, 100
2, 69600, Note_on_c, 0, 70, 100
2, 69600, Note_on_c, 0, 51, 100
2, 69600, Note_on_c, 0, 58, 100
2, 69600, Note_on_c, 0, 62, 100
2, 70056, Note_on_c, 0, 62, 0
2, 70056, Note_on_c, 0, 58, 0
2, 70056, Note_on_c, 0, 51, 0
2, 70056, Note_on_c, 0, 70, 0
2, 70056, Note_on_c, 0, 68, 0
2, 70080, Note_on_c, 0, 67, 100
2, 70080, Note_on_c, 0, 79, 100
2, 70080, Note_on_c, 0, 51, 100
2, 70080, Note_on_c, 0, 58, 100
2, 70080, Note_on_c, 0, 63, 100
2, 70536, Note_on_c, 0, 63, 0
2, 70536, Note_on_c, 0, 58, 0
2, 70536, Note_on_c, 0, 51, 0
2, 70536, Note_on_c, 0, 79, 0
2, 70536, Note_on_c, 0, 67, 0
2, 70560, Note_on_c, 0, 68, 100
2, 70560, Note_on_c, 0, 79, 100
2, 70560, Note_on_c, 0, 51, 100
2, 70560, Note_on_c, 0, 59, 100
2, 70560, Note_on_c, 0, 62, 100
2, 70788, Note_on_c, 0, 79, 0
2, 70800, Note_on_c, 0, 77, 100
2, 71016, Note_on_c, 0, 62, 0
2, 71016, Note_on_c, 0, 59, 0
2, 71016, Note_on_c, 0, 51, 0
2, 71016, Note_on_c, 0, 68, 0
2, 71028, Note_on_c, 0, 77, 0
2, 71040, Note_on_c, 0, 68, 100
2, 71040, Note_on_c, 0, 70, 100
2, 71040, Note_on_c, 0, 51, 100
2, 71040, Note_on_c, 0, 58, 100
2, 71040, Note_on_c, 0, 62, 100
2, 71496, Note_on_c, 0, 62, 0
2, 71496, Note_on_c, 0, 58, 0
2, 71496, Note_on_c, 0, 51, 0
2, 71496, Note_on_c, 0, 70, 0
2, 71496, Note_on_c, 0, 68, 0
2, 71520, Note_on_c, 0, 67, 100
2, 71520, Note_on_c, 0, 79, 100
2, 71520, Note_on_c, 0, 51, 100
2, 71520, Note_on_c, 0, 58, 100
2, 71520, Note_on_c, 0, 63, 100
2, 71976, Note_on_c, 0, 63, 0
2, 71976, Note_on_c, 0, 58, 0
2, 71976, Note_on_c, 0, 51, 0
2, 71976, Note_on_c, 0, 79, 0
2, 71976, Note_on_c, 0, 67, 0
2, 72000, Note_on_c, 0, 68, 100
2, 72000, Note_on_c, 0, 79, 100
2, 72000, Note_on_c, 0, 51, 100
2, 72000, Note_on_c, 0, 58, 100
2, 72000, Note_on_c, 0, 62, 100
2, 72228, Note_on_c, 0, 79, 0
2, 72240, Note_on_c, 0, 77, 100
2, 72456, Note_on_c, 0, 62, 0
2, 72456, Note_on_c, 0, 58, 0
2, 72456, Note_on_c, 0, 51, 0
2, 72456, Note_on_c, 0, 68, 0
2, 72468, Note_on_c, 0, 77, 0
2, 72480, Note_on_c, 0, 68, 100
2, 72480, Note_on_c, 0, 70, 100
2, 72480, Note_on_c, 0, 51, 100
2, 72480, Note_on_c, 0, 58, 100
2, 72480, Note_on_c, 0, 62, 100
2, 72936, Note_on_c, 0, 62, 0
2, 72936, Note_on_c, 0, 58, 0
2, 72936, Note_on_c, 0, 51, 0
2, 72936, Note_on_c, 0, 70, 0
2, 72936, Note_on_c, 0, 68, 0
2, 72960, Note_on_c, 0, 68, 100
2, 72960, Note_on_c, 0, 77, 100
2, 72960, Note_on_c, 0, 51, 100
2, 72960, Note_on_c, 0, 58, 100
2, 72960, Note_on_c, 0, 62, 100
2, 73416, Note_on_c, 0, 62, 0
2, 73416, Note_on_c, 0, 58, 0
2, 73416, Note_on_c, 0, 51, 0
2, 73416, Note_on_c, 0, 77, 0
2, 73416, Note_on_c, 0, 68, 0
2, 73440, Note_on_c, 0, 75, 100
2, 73440, Note_on_c, 0, 67, 100
2, 73440, Note_on_c, 0, 51, 100
2, 73440, Note_on_c, 0, 58, 100
2, 73440, Note_on_c, 0, 63, 100
2, 74376, Note_on_c, 0, 63, 0
2, 74376, Note_on_c, 0, 58, 0
2, 74376, Note_on_c, 0, 51, 0
2, 74400, Note_on_c, 0, 39, 100
2, 74856, Note_on_c, 0, 67, 0
2, 74856, Note_on_c, 0, 75, 0
2, 74856, Note_on_c, 0, 39, 0
2, 74880, End_track
3, 0, Start_track
3, 0, Control_c, 1, 7, 95
3, 0, Control_c, 1, 0, 0
3, 0, Control_c, 1, 32, 0
3, 0, Program_c, 1, 53
3, 0, Control_c, 1, 1, 0
3, 0, Control_c, 1, 10, 64
3, 0, Control_c, 1, 91, 0
3, 0, Control_c, 1, 93, 0
3, 0, Key_signature, -3, "major"
3, 0, Title_t, "Voice"
3, 5760, Control_c, 1, 7, 100
3, 5760, Note_on_c, 1, 67, 100
3, 5800, Control_c, 1, 7, 101
3, 5840, Control_c, 1, 7, 102
3, 5920, Control_c, 1, 7, 103
3, 5960, Control_c, 1, 7, 104
3, 5988, Note_on_c, 1, 67, 0
3, 6000, Control_c, 1, 7, 105
3, 6000, Note_on_c, 1, 68, 100
3, 6040, Control_c, 1, 7, 106
3, 6080, Control_c, 1, 7, 107
3, 6160, Control_c, 1, 7, 108
3, 6200, Control_c, 1, 7, 109
3, 6228, Note_on_c, 1, 68, 0
3, 6240, Control_c, 1, 7, 110
3, 6240, Note_on_c, 1, 72, 100
3, 6696, Note_on_c, 1, 72, 0
3, 6720, Note_on_c, 1, 70, 100
3, 6760, Control_c, 1, 7, 109
3, 6800, Control_c, 1, 7, 108
3, 6840, Control_c, 1, 7, 107
3, 6880, Control_c, 1, 7, 106
3, 6920, Control_c, 1, 7, 104
3, 6948, Note_on_c, 1, 70, 0
3, 6960, Control_c, 1, 7, 103
3, 6960, Note_on_c, 1, 68, 100
3, 7000, Control_c, 1, 7, 102
3, 7040, Control_c, 1, 7, 101
3, 7080, Control_c, 1, 7, 100
3, 7188, Note_on_c, 1, 68, 0
3, 7200, Note_on_c, 1, 67, 100
3, 7428, Note_on_c, 1, 67, 0
3, 7440, Note_on_c, 1, 66, 100
3, 7668, Note_on_c, 1, 66, 0
3, 7680, Note_on_c, 1, 67, 100
3, 8136, Note_on_c, 1, 67, 0
3, 8160, Note_on_c, 1, 67, 100
3, 8616, Note_on_c, 1, 67, 0
3, 8640, Note_on_c, 1, 67, 100
3, 8680, Control_c, 1, 7, 101
3, 8720, Control_c, 1, 7, 102
3, 8760, Control_c, 1, 7, 103
3, 8840, Control_c, 1, 7, 104
3, 8868, Note_on_c, 1, 67, 0
3, 8880, Control_c, 1, 7, 105
3, 8880, Note_on_c, 1, 68, 100
3, 8920, Control_c, 1, 7, 106
3, 8960, Control_c, 1, 7, 107
3, 9000, Control_c, 1, 7, 108
3, 9080, Control_c, 1, 7, 109
3, 9108, Note_on_c, 1, 68, 0
3, 9120, Control_c, 1, 7, 110
3, 9120, Note_on_c, 1, 72, 100
3, 9576, Note_on_c, 1, 72, 0
3, 9600, Note_on_c, 1, 70, 100
3, 9640, Control_c, 1, 7, 109
3, 9680, Control_c, 1, 7, 108
3, 9720, Control_c, 1, 7, 107
3, 9760, Control_c, 1, 7, 106
3, 9800, Control_c, 1, 7, 104
3, 9828, Note_on_c, 1, 70, 0
3, 9840, Control_c, 1, 7, 103
3, 9840, Note_on_c, 1, 68, 100
3, 9880, Control_c, 1, 7, 102
3, 9920, Control_c, 1, 7, 101
3, 9960, Control_c, 1, 7, 100
3, 10068, Note_on_c, 1, 68, 0
3, 10080, Note_on_c, 1, 68, 100
3, 11016, Note_on_c, 1, 68, 0
3, 11040, Note_on_c, 1, 67, 100
3, 11496, Note_on_c, 1, 67, 0
3, 11520, Note_on_c, 1, 67, 100
3, 11560, Control_c, 1, 7, 101
3, 11600, Control_c, 1, 7, 102
3, 11640, Control_c, 1, 7, 103
3, 11720, Control_c, 1, 7, 104
3, 11748, Note_on_c, 1, 67, 0
3, 11760, Control_c, 1, 7, 105
3, 11760, Note_on_c, 1, 68, 100
3, 11800, Control_c, 1, 7, 106
3, 11840, Control_c, 1, 7, 107
3, 11880, Control_c, 1, 7, 108
3, 11960, Control_c, 1, 7, 109
3, 11988, Note_on_c, 1, 68, 0
3, 12000, Note_on_c, 1, 72, 100
3, 12000, Control_c, 1, 7, 110
3, 12456, Note_on_c, 1, 72, 0
3, 12480, Note_on_c, 1, 70, 100
3, 12520, Control_c, 1, 7, 109
3, 12560, Control_c, 1, 7, 108
3, 12600, Control_c, 1, 7, 107
3, 12640, Control_c, 1, 7, 106
3, 12680, Control_c, 1, 7, 104
3, 12708, Note_on_c, 1, 70, 0
3, 12720, Control_c, 1, 7, 103
3, 12720, Note_on_c, 1, 68, 100
3, 12760, Control_c, 1, 7, 102
3, 12800, Control_c, 1, 7, 101
3, 12840, Control_c, 1, 7, 100
3, 12948, Note_on_c, 1, 68, 0
3, 12960, Note_on_c, 1, 67, 100
3, 13188, Note_on_c, 1, 67, 0
3, 13200, Note_on_c, 1, 66, 100
3, 13428, Note_on_c, 1, 66, 0
3, 13440, Note_on_c, 1, 67, 100
3, 13896, Note_on_c, 1, 67, 0
3, 13920, Note_on_c, 1, 67, 100
3, 14376, Note_on_c, 1, 67, 0
3, 14400, Note_on_c, 1, 67, 100
3, 14440, Control_c, 1, 7, 101
3, 14480, Control_c, 1, 7, 102
3, 14520, Control_c, 1, 7, 103
3, 14560, Control_c, 1, 7, 104
3, 14600, Control_c, 1, 7, 105
3, 14628, Note_on_c, 1, 67, 0
3, 14640, Control_c, 1, 7, 106
3, 14640, Note_on_c, 1, 68, 100
3, 14680, Control_c, 1, 7, 107
3, 14720, Control_c, 1, 7, 108
3, 14760, Control_c, 1, 7, 109
3, 14800, Control_c, 1, 7, 110
3, 14840, Control_c, 1, 7, 111
3, 14868, Note_on_c, 1, 68, 0
3, 14880, Control_c, 1, 7, 112
3, 14880, Note_on_c, 1, 72, 100
3, 15336, Note_on_c, 1, 72, 0
3, 15360, Note_on_c, 1, 70, 100
3, 15400, Control_c, 1, 7, 111
3, 15440, Control_c, 1, 7, 109
3, 15480, Control_c, 1, 7, 108
3, 15520, Control_c, 1, 7, 107
3, 15560, Control_c, 1, 7, 105
3, 15588, Note_on_c, 1, 70, 0
3, 15600, Control_c, 1, 7, 104
3, 15600, Note_on_c, 1, 68, 100
3, 15640, Control_c, 1, 7, 103
3, 15680, Control_c, 1, 7, 101
3, 15720, Control_c, 1, 7, 100
3, 15828, Note_on_c, 1, 68, 0
3, 15840, Note_on_c, 1, 68, 100
3, 16776, Note_on_c, 1, 68, 0
3, 16800, Note_on_c, 1, 67, 100
3, 17256, Note_on_c, 1, 67, 0
3, 17280, Note_on_c, 1, 67, 100
3, 17988, Note_on_c, 1, 67, 0
3, 18000, Note_on_c, 1, 68, 100
3, 18228, Note_on_c, 1, 68, 0
3, 18240, Note_on_c, 1, 67, 100
3, 18468, Note_on_c, 1, 67, 0
3, 18480, Note_on_c, 1, 66, 100
3, 18708, Note_on_c, 1, 66, 0
3, 18720, Note_on_c, 1, 67, 100
3, 18948, Note_on_c, 1, 67, 0
3, 18960, Note_on_c, 1, 66, 100
3, 19188, Note_on_c, 1, 66, 0
3, 19200, Note_on_c, 1, 67, 100
3, 19656, Note_on_c, 1, 67, 0
3, 19680, Note_on_c, 1, 68, 100
3, 20136, Note_on_c, 1, 68, 0
3, 20160, Note_on_c, 1, 69, 100
3, 20200, Control_c, 1, 7, 101
3, 20240, Control_c, 1, 7, 102
3, 20320, Control_c, 1, 7, 103
3, 20360, Control_c, 1, 7, 104
3, 20388, Note_on_c, 1, 69, 0
3, 20400, Control_c, 1, 7, 105
3, 20400, Note_on_c, 1, 70, 100
3, 20440, Control_c, 1, 7, 106
3, 20480, Control_c, 1, 7, 107
3, 20560, Control_c, 1, 7, 108
3, 20600, Control_c, 1, 7, 109
3, 20628, Note_on_c, 1, 70, 0
3, 20640, Control_c, 1, 7, 110
3, 20640, Note_on_c, 1, 74, 100
3, 21096, Note_on_c, 1, 74, 0
3, 21120, Note_on_c, 1, 72, 100
3, 21160, Control_c, 1, 7, 109
3, 21200, Control_c, 1, 7, 108
3, 21240, Control_c, 1, 7, 107
3, 21280, Control_c, 1, 7, 106
3, 21320, Control_c, 1, 7, 104
3, 21348, Note_on_c, 1, 72, 0
3, 21360, Control_c, 1, 7, 103
3, 21360, Note_on_c, 1, 70, 100
3, 21400, Control_c, 1, 7, 102
3, 21440, Control_c, 1, 7, 101
3, 21480, Control_c, 1, 7, 100
3, 21588, Note_on_c, 1, 70, 0
3, 21600, Note_on_c, 1, 70, 100
3, 21680, Control_c, 1, 7, 101
3, 21760, Control_c, 1, 7, 102
3, 21840, Control_c, 1, 7, 103
3, 21920, Control_c, 1, 7, 104
3, 22000, Control_c, 1, 7, 105
3, 22080, Control_c, 1, 7, 106
3, 22160, Control_c, 1, 7, 107
3, 22240, Control_c, 1, 7, 108
3, 22320, Control_c, 1, 7, 109
3, 22400, Control_c, 1, 7, 110
3, 22480, Control_c, 1, 7, 111
3, 22536, Note_on_c, 1, 70, 0
3, 22560, Control_c, 1, 7, 112
3, 22560, Note_on_c, 1, 71, 100
3, 22640, Control_c, 1, 7, 113
3, 22720, Control_c, 1, 7, 114
3, 22800, Control_c, 1, 7, 115
3, 22880, Control_c, 1, 7, 116
3, 23016, Note_on_c, 1, 71, 0
3, 23040, Note_on_c, 1, 74, 100
3, 23560, Control_c, 1, 7, 115
3, 23600, Control_c, 1, 7, 114
3, 23680, Control_c, 1, 7, 113
3, 23720, Control_c, 1, 7, 112
3, 23748, Note_on_c, 1, 74, 0
3, 23760, Control_c, 1, 7, 111
3, 23760, Note_on_c, 1, 72, 100
3, 23840, Control_c, 1, 7, 110
3, 23880, Control_c, 1, 7, 109
3, 23920, Control_c, 1, 7, 108
3, 23988, Note_on_c, 1, 72, 0
3, 24000, Control_c, 1, 7, 107
3, 24000, Note_on_c, 1, 70, 100
3, 24040, Control_c, 1, 7, 106
3, 24080, Control_c, 1, 7, 105
3, 24160, Control_c, 1, 7, 104
3, 24200, Control_c, 1, 7, 103
3, 24228, Note_on_c, 1, 70, 0
3, 24240, Control_c, 1, 7, 102
3, 24240, Note_on_c, 1, 68, 100
3, 24320, Control_c, 1, 7, 101
3, 24360, Control_c, 1, 7, 100
3, 24468, Note_on_c, 1, 68, 0
3, 24480, Note_on_c, 1, 68, 100
3, 24708, Note_on_c, 1, 68, 0
3, 24720, Note_on_c, 1, 67, 100
3, 24948, Note_on_c, 1, 67, 0
3, 24960, Note_on_c, 1, 72, 100
3, 25416, Note_on_c, 1, 72, 0
3, 25440, Note_on_c, 1, 70, 100
3, 25896, Note_on_c, 1, 70, 0
3, 25920, Note_on_c, 1, 72, 100
3, 26148, Note_on_c, 1, 72, 0
3, 26160, Note_on_c, 1, 70, 100
3, 26388, Note_on_c, 1, 70, 0
3, 26400, Note_on_c, 1, 69, 100
3, 26856, Note_on_c, 1, 69, 0
3, 26880, Note_on_c, 1, 68, 100
3, 27336, Note_on_c, 1, 68, 0
3, 27360, Note_on_c, 1, 66, 100
3, 27440, Control_c, 1, 7, 101
3, 27520, Control_c, 1, 7, 102
3, 27600, Control_c, 1, 7, 103
3, 27680, Control_c, 1, 7, 104
3, 27760, Control_c, 1, 7, 105
3, 27840, Control_c, 1, 7, 106
3, 27920, Control_c, 1, 7, 107
3, 28000, Control_c, 1, 7, 108
3, 28080, Control_c, 1, 7, 109
3, 28160, Control_c, 1, 7, 110
3, 28240, Control_c, 1, 7, 111
3, 28296, Note_on_c, 1, 66, 0
3, 28320, Control_c, 1, 7, 112
3, 28320, Note_on_c, 1, 67, 100
3, 28400, Control_c, 1, 7, 113
3, 28480, Control_c, 1, 7, 114
3, 28560, Control_c, 1, 7, 115
3, 28640, Control_c, 1, 7, 116
3, 28776, Note_on_c, 1, 67, 0
3, 28800, Note_on_c, 1, 74, 100
3, 28880, Control_c, 1, 7, 115
3, 28960, Control_c, 1, 7, 114
3, 29040, Control_c, 1, 7, 113
3, 29120, Control_c, 1, 7, 112
3, 29200, Control_c, 1, 7, 111
3, 29280, Control_c, 1, 7, 110
3, 29360, Control_c, 1, 7, 109
3, 29440, Control_c, 1, 7, 108
3, 29508, Note_on_c, 1, 74, 0
3, 29520, Control_c, 1, 7, 107
3, 29520, Note_on_c, 1, 72, 100
3, 29600, Control_c, 1, 7, 106
3, 29680, Control_c, 1, 7, 105
3, 29748, Note_on_c, 1, 72, 0
3, 29760, Control_c, 1, 7, 104
3, 29760, Note_on_c, 1, 70, 100
3, 29840, Control_c, 1, 7, 103
3, 29920, Control_c, 1, 7, 102
3, 29988, Note_on_c, 1, 70, 0
3, 30000, Control_c, 1, 7, 101
3, 30000, Note_on_c, 1, 68, 100
3, 30080, Control_c, 1, 7, 100
3, 30228, Note_on_c, 1, 68, 0
3, 30240, Note_on_c, 1, 68, 100
3, 30468, Note_on_c, 1, 68, 0
3, 30480, Note_on_c, 1, 67, 100
3, 30708, Note_on_c, 1, 67, 0
3, 30720, Note_on_c, 1, 72, 100
3, 31176, Note_on_c, 1, 72, 0
3, 31200, Note_on_c, 1, 70, 100
3, 31656, Note_on_c, 1, 70, 0
3, 31680, Note_on_c, 1, 72, 100
3, 31760, Control_c, 1, 7, 99
3, 31880, Control_c, 1, 7, 98
3, 31908, Note_on_c, 1, 72, 0
3, 31920, Note_on_c, 1, 70, 100
3, 32040, Control_c, 1, 7, 97
3, 32148, Note_on_c, 1, 70, 0
3, 32160, Control_c, 1, 7, 96
3, 32160, Note_on_c, 1, 68, 100
3, 32280, Control_c, 1, 7, 95
3, 32440, Control_c, 1, 7, 94
3, 32560, Control_c, 1, 7, 93
3, 32616, Note_on_c, 1, 68, 0
3, 32640, Note_on_c, 1, 65, 100
3, 32680, Control_c, 1, 7, 92
3, 32840, Control_c, 1, 7, 91
3, 32960, Control_c, 1, 7, 90
3, 33096, Note_on_c, 1, 65, 0
3, 33120, Control_c, 1, 7, 95
3, 33120, Note_on_c, 1, 65, 100
3, 33160, Control_c, 1, 7, 94
3, 33200, Control_c, 1, 7, 93
3, 33240, Control_c, 1, 7, 92
3, 33280, Control_c, 1, 7, 91
3, 33320, Control_c, 1, 7, 90
3, 33360, Control_c, 1, 7, 89
3, 33400, Control_c, 1, 7, 88
3, 33440, Control_c, 1, 7, 87
3, 33480, Control_c, 1, 7, 86
3, 33520, Control_c, 1, 7, 85
3, 33560, Control_c, 1, 7, 84
3, 33576, Note_on_c, 1, 65, 0
3, 33600, Note_on_c, 1, 63, 100
3, 33600, Control_c, 1, 7, 82
3, 33640, Control_c, 1, 7, 81
3, 33680, Control_c, 1, 7, 80
3, 33720, Control_c, 1, 7, 79
3, 33760, Control_c, 1, 7, 78
3, 33800, Control_c, 1, 7, 77
3, 33840, Control_c, 1, 7, 76
3, 33880, Control_c, 1, 7, 75
3, 33920, Control_c, 1, 7, 74
3, 33960, Control_c, 1, 7, 73
3, 34000, Control_c, 1, 7, 72
3, 34040, Control_c, 1, 7, 71
3, 34056, Note_on_c, 1, 63, 0
3, 34080, Control_c, 1, 7, 70
3, 34560, Control_c, 1, 7, 95
3, 34560, Control_c, 1, 0, 0
3, 34560, Control_c, 1, 32, 0
3, 34560, Program_c, 1, 53
3, 34560, Control_c, 1, 1, 0
3, 34560, Control_c, 1, 10, 64
3, 34560, Control_c, 1, 91, 0
3, 34560, Control_c, 1, 93, 0
3, 34560, Key_signature, -3, "major"
3, 40320, Control_c, 1, 7, 100
3, 40320, Note_on_c, 1, 67, 100
3, 40360, Control_c, 1, 7, 101
3, 40400, Control_c, 1, 7, 102
3, 40480, Control_c, 1, 7, 103
3, 40520, Control_c, 1, 7, 104
3, 40548, Note_on_c, 1, 67, 0
3, 40560, Control_c, 1, 7, 105
3, 40560, Note_on_c, 1, 68, 100
3, 40600, Control_c, 1, 7, 106
3, 40640, Control_c, 1, 7, 107
3, 40720, Control_c, 1, 7, 108
3, 40760, Control_c, 1, 7, 109
3, 40788, Note_on_c, 1, 68, 0
3, 40800, Note_on_c, 1, 72, 100
3, 40800, Control_c, 1, 7, 110
3, 41256, Note_on_c, 1, 72, 0
3, 41280, Note_on_c, 1, 70, 100
3, 41320, Control_c, 1, 7, 109
3, 41360, Control_c, 1, 7, 108
3, 41400, Control_c, 1, 7, 107
3, 41440, Control_c, 1, 7, 106
3, 41480, Control_c, 1, 7, 104
3, 41508, Note_on_c, 1, 70, 0
3, 41520, Control_c, 1, 7, 103
3, 41520, Note_on_c, 1, 68, 100
3, 41560, Control_c, 1, 7, 102
3, 41600, Control_c, 1, 7, 101
3, 41640, Control_c, 1, 7, 100
3, 41748, Note_on_c, 1, 68, 0
3, 41760, Note_on_c, 1, 67, 100
3, 41988, Note_on_c, 1, 67, 0
3, 42000, Note_on_c, 1, 66, 100
3, 42228, Note_on_c, 1, 66, 0
3, 42240, Note_on_c, 1, 67, 100
3, 42696, Note_on_c, 1, 67, 0
3, 42720, Note_on_c, 1, 67, 100
3, 43176, Note_on_c, 1, 67, 0
3, 43200, Note_on_c, 1, 67, 100
3, 43240, Control_c, 1, 7, 101
3, 43280, Control_c, 1, 7, 102
3, 43320, Control_c, 1, 7, 103
3, 43400, Control_c, 1, 7, 104
3, 43428, Note_on_c, 1, 67, 0
3, 43440, Control_c, 1, 7, 105
3, 43440, Note_on_c, 1, 68, 100
3, 43480, Control_c, 1, 7, 106
3, 43520, Control_c, 1, 7, 107
3, 43560, Control_c, 1, 7, 108
3, 43640, Control_c, 1, 7, 109
3, 43668, Note_on_c, 1, 68, 0
3, 43680, Control_c, 1, 7, 110
3, 43680, Note_on_c, 1, 72, 100
3, 44136, Note_on_c, 1, 72, 0
3, 44160, Note_on_c, 1, 70, 100
3, 44200, Control_c, 1, 7, 109
3, 44240, Control_c, 1, 7, 108
3, 44280, Control_c, 1, 7, 107
3, 44320, Control_c, 1, 7, 106
3, 44360, Control_c, 1, 7, 104
3, 44388, Note_on_c, 1, 70, 0
3, 44400, Control_c, 1, 7, 103
3, 44400, Note_on_c, 1, 68, 100
3, 44440, Control_c, 1, 7, 102
3, 44480, Control_c, 1, 7, 101
3, 44520, Control_c, 1, 7, 100
3, 44628, Note_on_c, 1, 68, 0
3, 44640, Note_on_c, 1, 68, 100
3, 45576, Note_on_c, 1, 68, 0
3, 45600, Note_on_c, 1, 67, 100
3, 46056, Note_on_c, 1, 67, 0
3, 46080, Note_on_c, 1, 67, 100
3, 46120, Control_c, 1, 7, 101
3, 46160, Control_c, 1, 7, 102
3, 46200, Control_c, 1, 7, 103
3, 46280, Control_c, 1, 7, 104
3, 46308, Note_on_c, 1, 67, 0
3, 46320, Control_c, 1, 7, 105
3, 46320, Note_on_c, 1, 68, 100
3, 46360, Control_c, 1, 7, 106
3, 46400, Control_c, 1, 7, 107
3, 46440, Control_c, 1, 7, 108
3, 46520, Control_c, 1, 7, 109
3, 46548, Note_on_c, 1, 68, 0
3, 46560, Control_c, 1, 7, 110
3, 46560, Note_on_c, 1, 72, 100
3, 47016, Note_on_c, 1, 72, 0
3, 47040, Note_on_c, 1, 70, 100
3, 47080, Control_c, 1, 7, 109
3, 47120, Control_c, 1, 7, 108
3, 47160, Control_c, 1, 7, 107
3, 47200, Control_c, 1, 7, 106
3, 47240, Control_c, 1, 7, 104
3, 47268, Note_on_c, 1, 70, 0
3, 47280, Control_c, 1, 7, 103
3, 47280, Note_on_c, 1, 68, 100
3, 47320, Control_c, 1, 7, 102
3, 47360, Control_c, 1, 7, 101
3, 47400, Control_c, 1, 7, 100
3, 47508, Note_on_c, 1, 68, 0
3, 47520, Note_on_c, 1, 67, 100
3, 47748, Note_on_c, 1, 67, 0
3, 47760, Note_on_c, 1, 66, 100
3, 47988, Note_on_c, 1, 66, 0
3, 48000, Note_on_c, 1, 67, 100
3, 48456, Note_on_c, 1, 67, 0
3, 48480, Note_on_c, 1, 67, 100
3, 48936, Note_on_c, 1, 67, 0
3, 48960, Note_on_c, 1, 67, 100
3, 49000, Control_c, 1, 7, 101
3, 49040, Control_c, 1, 7, 102
3, 49080, Control_c, 1, 7, 103
3, 49120, Control_c, 1, 7, 104
3, 49160, Control_c, 1, 7, 105
3, 49188, Note_on_c, 1, 67, 0
3, 49200, Control_c, 1, 7, 106
3, 49200, Note_on_c, 1, 68, 100
3, 49240, Control_c, 1, 7, 107
3, 49280, Control_c, 1, 7, 108
3, 49320, Control_c, 1, 7, 109
3, 49360, Control_c, 1, 7, 110
3, 49400, Control_c, 1, 7, 111
3, 49428, Note_on_c, 1, 68, 0
3, 49440, Control_c, 1, 7, 112
3, 49440, Note_on_c, 1, 72, 100
3, 49896, Note_on_c, 1, 72, 0
3, 49920, Note_on_c, 1, 70, 100
3, 49960, Control_c, 1, 7, 111
3, 50000, Control_c, 1, 7, 109
3, 50040, Control_c, 1, 7, 108
3, 50080, Control_c, 1, 7, 107
3, 50120, Control_c, 1, 7, 105
3, 50148, Note_on_c, 1, 70, 0
3, 50160, Control_c, 1, 7, 104
3, 50160, Note_on_c, 1, 68, 100
3, 50200, Control_c, 1, 7, 103
3, 50240, Control_c, 1, 7, 101
3, 50280, Control_c, 1, 7, 100
3, 50388, Note_on_c, 1, 68, 0
3, 50400, Note_on_c, 1, 68, 100
3, 51336, Note_on_c, 1, 68, 0
3, 51360, Note_on_c, 1, 67, 100
3, 51816, Note_on_c, 1, 67, 0
3, 51840, Note_on_c, 1, 67, 100
3, 52548, Note_on_c, 1, 67, 0
3, 52560, Note_on_c, 1, 68, 100
3, 52788, Note_on_c, 1, 68, 0
3, 52800, Note_on_c, 1, 67, 100
3, 53028, Note_on_c, 1, 67, 0
3, 53040, Note_on_c, 1, 66, 100
3, 53268, Note_on_c, 1, 66, 0
3, 53280, Note_on_c, 1, 67, 100
3, 53508, Note_on_c, 1, 67, 0
3, 53520, Note_on_c, 1, 66, 100
3, 53748, Note_on_c, 1, 66, 0
3, 53760, Note_on_c, 1, 67, 100
3, 54216, Note_on_c, 1, 67, 0
3, 54240, Note_on_c, 1, 68, 100
3, 54696, Note_on_c, 1, 68, 0
3, 54720, Note_on_c, 1, 69, 100
3, 54760, Control_c, 1, 7, 101
3, 54800, Control_c, 1, 7, 102
3, 54880, Control_c, 1, 7, 103
3, 54920, Control_c, 1, 7, 104
3, 54948, Note_on_c, 1, 69, 0
3, 54960, Control_c, 1, 7, 105
3, 54960, Note_on_c, 1, 70, 100
3, 55000, Control_c, 1, 7, 106
3, 55040, Control_c, 1, 7, 107
3, 55120, Control_c, 1, 7, 108
3, 55160, Control_c, 1, 7, 109
3, 55188, Note_on_c, 1, 70, 0
3, 55200, Control_c, 1, 7, 110
3, 55200, Note_on_c, 1, 74, 100
3, 55656, Note_on_c, 1, 74, 0
3, 55680, Note_on_c, 1, 72, 100
3, 55720, Control_c, 1, 7, 109
3, 55760, Control_c, 1, 7, 108
3, 55800, Control_c, 1, 7, 107
3, 55840, Control_c, 1, 7, 106
3, 55880, Control_c, 1, 7, 104
3, 55908, Note_on_c, 1, 72, 0
3, 55920, Control_c, 1, 7, 103
3, 55920, Note_on_c, 1, 70, 100
3, 55960, Control_c, 1, 7, 102
3, 56000, Control_c, 1, 7, 101
3, 56040, Control_c, 1, 7, 100
3, 56148, Note_on_c, 1, 70, 0
3, 56160, Note_on_c, 1, 70, 100
3, 56240, Control_c, 1, 7, 101
3, 56320, Control_c, 1, 7, 102
3, 56400, Control_c, 1, 7, 103
3, 56480, Control_c, 1, 7, 104
3, 56560, Control_c, 1, 7, 105
3, 56640, Control_c, 1, 7, 106
3, 56720, Control_c, 1, 7, 107
3, 56800, Control_c, 1, 7, 108
3, 56880, Control_c, 1, 7, 109
3, 56960, Control_c, 1, 7, 110
3, 57040, Control_c, 1, 7, 111
3, 57096, Note_on_c, 1, 70, 0
3, 57120, Control_c, 1, 7, 112
3, 57120, Note_on_c, 1, 71, 100
3, 57200, Control_c, 1, 7, 113
3, 57280, Control_c, 1, 7, 114
3, 57360, Control_c, 1, 7, 115
3, 57440, Control_c, 1, 7, 116
3, 57576, Note_on_c, 1, 71, 0
3, 57600, Note_on_c, 1, 74, 100
3, 58120, Control_c, 1, 7, 115
3, 58160, Control_c, 1, 7, 114
3, 58240, Control_c, 1, 7, 113
3, 58280, Control_c, 1, 7, 112
3, 58308, Note_on_c, 1, 74, 0
3, 58320, Control_c, 1, 7, 111
3, 58320, Note_on_c, 1, 72, 100
3, 58400, Control_c, 1, 7, 110
3, 58440, Control_c, 1, 7, 109
3, 58480, Control_c, 1, 7, 108
3, 58548, Note_on_c, 1, 72, 0
3, 58560, Control_c, 1, 7, 107
3, 58560, Note_on_c, 1, 70, 100
3, 58600, Control_c, 1, 7, 106
3, 58640, Control_c, 1, 7, 105
3, 58720, Control_c, 1, 7, 104
3, 58760, Control_c, 1, 7, 103
3, 58788, Note_on_c, 1, 70, 0
3, 58800, Control_c, 1, 7, 102
3, 58800, Note_on_c, 1, 68, 100
3, 58880, Control_c, 1, 7, 101
3, 58920, Control_c, 1, 7, 100
3, 59028, Note_on_c, 1, 68, 0
3, 59040, Note_on_c, 1, 68, 100
3, 59268, Note_on_c, 1, 68, 0
3, 59280, Note_on_c, 1, 67, 100
3, 59508, Note_on_c, 1, 67, 0
3, 59520, Note_on_c, 1, 72, 100
3, 59976, Note_on_c, 1, 72, 0
3, 60000, Note_on_c, 1, 70, 100
3, 60456, Note_on_c, 1, 70, 0
3, 60480, Note_on_c, 1, 72, 100
3, 60708, Note_on_c, 1, 72, 0
3, 60720, Note_on_c, 1, 70, 100
3, 60948, Note_on_c, 1, 70, 0
3, 60960, Note_on_c, 1, 69, 100
3, 61416, Note_on_c, 1, 69, 0
3, 61440, Note_on_c, 1, 68, 100
3, 61896, Note_on_c, 1, 68, 0
3, 61920, Note_on_c, 1, 66, 100
3, 62000, Control_c, 1, 7, 101
3, 62080, Control_c, 1, 7, 102
3, 62160, Control_c, 1, 7, 103
3, 62240, Control_c, 1, 7, 104
3, 62320, Control_c, 1, 7, 105
3, 62400, Control_c, 1, 7, 106
3, 62480, Control_c, 1, 7, 107
3, 62560, Control_c, 1, 7, 108
3, 62640, Control_c, 1, 7, 109
3, 62720, Control_c, 1, 7, 110
3, 62800, Control_c, 1, 7, 111
3, 62856, Note_on_c, 1, 66, 0
3, 62880, Control_c, 1, 7, 112
3, 62880, Note_on_c, 1, 67, 100
3, 62960, Control_c, 1, 7, 113
3, 63040, Control_c, 1, 7, 114
3, 63120, Control_c, 1, 7, 115
3, 63200, Control_c, 1, 7, 116
3, 63336, Note_on_c, 1, 67, 0
3, 63360, Note_on_c, 1, 74, 100
3, 63440, Control_c, 1, 7, 115
3, 63520, Control_c, 1, 7, 114
3, 63600, Control_c, 1, 7, 113
3, 63680, Control_c, 1, 7, 112
3, 63760, Control_c, 1, 7, 111
3, 63840, Control_c, 1, 7, 110
3, 63920, Control_c, 1, 7, 109
3, 64000, Control_c, 1, 7, 108
3, 64068, Note_on_c, 1, 74, 0
3, 64080, Control_c, 1, 7, 107
3, 64080, Note_on_c, 1, 72, 100
3, 64160, Control_c, 1, 7, 106
3, 64240, Control_c, 1, 7, 105
3, 64308, Note_on_c, 1, 72, 0
3, 64320, Control_c, 1, 7, 104
3, 64320, Note_on_c, 1, 70, 100
3, 64400, Control_c, 1, 7, 103
3, 64480, Control_c, 1, 7, 102
3, 64548, Note_on_c, 1, 70, 0
3, 64560, Control_c, 1, 7, 101
3, 64560, Note_on_c, 1, 68, 100
3, 64640, Control_c, 1, 7, 100
3, 64788, Note_on_c, 1, 68, 0
3, 64800, Note_on_c, 1, 68, 100
3, 65028, Note_on_c, 1, 68, 0
3, 65040, Note_on_c, 1, 67, 100
3, 65268, Note_on_c, 1, 67, 0
3, 65280, Note_on_c, 1, 72, 100
3, 65736, Note_on_c, 1, 72, 0
3, 65760, Note_on_c, 1, 70, 100
3, 66216, Note_on_c, 1, 70, 0
3, 66240, Note_on_c, 1, 72, 100
3, 66320, Control_c, 1, 7, 99
3, 66440, Control_c, 1, 7, 98
3, 66468, Note_on_c, 1, 72, 0
3, 66480, Note_on_c, 1, 70, 100
3, 66600, Control_c, 1, 7, 97
3, 66708, Note_on_c, 1, 70, 0
3, 66720, Control_c, 1, 7, 96
3, 66720, Note_on_c, 1, 68, 100
3, 66840, Control_c, 1, 7, 95
3, 67000, Control_c, 1, 7, 94
3, 67120, Control_c, 1, 7, 93
3, 67176, Note_on_c, 1, 68, 0
3, 67200, Note_on_c, 1, 65, 100
3, 67240, Control_c, 1, 7, 92
3, 67240, Control_c, 1, 7, 92
3, 67400, Control_c, 1, 7, 91
3, 67400, Control_c, 1, 7, 91
3, 67520, Control_c, 1, 7, 90
3, 67520, Control_c, 1, 7, 90
3, 67656, Note_on_c, 1, 65, 0
3, 67680, Control_c, 1, 7, 95
3, 67680, Note_on_c, 1, 65, 100
3, 67680, Control_c, 1, 7, 95
3, 67720, Control_c, 1, 7, 94
3, 67720, Control_c, 1, 7, 94
3, 67760, Control_c, 1, 7, 93
3, 67760, Control_c, 1, 7, 93
3, 67800, Control_c, 1, 7, 92
3, 67800, Control_c, 1, 7, 92
3, 67840, Control_c, 1, 7, 91
3, 67840, Control_c, 1, 7, 91
3, 67880, Control_c, 1, 7, 90
3, 67880, Control_c, 1, 7, 90
3, 67920, Control_c, 1, 7, 89
3, 67920, Control_c, 1, 7, 89
3, 67960, Control_c, 1, 7, 88
3, 67960, Control_c, 1, 7, 88
3, 68000, Control_c, 1, 7, 87
3, 68000, Control_c, 1, 7, 87
3, 68040, Control_c, 1, 7, 86
3, 68040, Control_c, 1, 7, 86
3, 68080, Control_c, 1, 7, 85
3, 68080, Control_c, 1, 7, 85
3, 68120, Control_c, 1, 7, 84
3, 68120, Control_c, 1, 7, 84
3, 68136, Note_on_c, 1, 65, 0
3, 68160, Control_c, 1, 7, 82
3, 68160, Note_on_c, 1, 63, 100
3, 68160, Control_c, 1, 7, 82
3, 68200, Control_c, 1, 7, 81
3, 68200, Control_c, 1, 7, 81
3, 68240, Control_c, 1, 7, 80
3, 68240, Control_c, 1, 7, 80
3, 68280, Control_c, 1, 7, 79
3, 68280, Control_c, 1, 7, 79
3, 68320, Control_c, 1, 7, 78
3, 68320, Control_c, 1, 7, 78
3, 68360, Control_c, 1, 7, 77
3, 68360, Control_c, 1, 7, 77
3, 68400, Control_c, 1, 7, 76
3, 68400, Control_c, 1, 7, 76
3, 68440, Control_c, 1, 7, 75
3, 68440, Control_c, 1, 7, 75
3, 68480, Control_c, 1, 7, 74
3, 68480, Control_c, 1, 7, 74
3, 68520, Control_c, 1, 7, 73
3, 68520, Control_c, 1, 7, 73
3, 68560, Control_c, 1, 7, 72
3, 68560, Control_c, 1, 7, 72
3, 68600, Control_c, 1, 7, 71
3, 68600, Control_c, 1, 7, 71
3, 68616, Note_on_c, 1, 63, 0
3, 68640, Control_c, 1, 7, 70
3, 68640, Control_c, 1, 7, 70
3, 74880, End_track
0, 0, End_of_file