0, 0, Header, 1, 4, 48
1, 0, Start_track
1, 0, Tempo, 500000
1, 0, Time_signature, 4, 2, 24, 8
1, 0, Key_signature, -2, "minor"
1, 0, Title_t, "F.F.Chopin  Nocturne No.11 in G minor Op.37-1 \201@"
1, 0, Text_t, "CVS Ver5.05 Created"
1, 144, Tempo, 1818181
1, 192, Tempo, 1111111
1, 240, Tempo, 895522
1, 264, Tempo, 1333333
1, 276, Tempo, 1153846
1, 280, Tempo, 895522
1, 284, Tempo, 1000000
1, 288, Tempo, 1250000
1, 312, Tempo, 789473
1, 336, Tempo, 895522
1, 384, Tempo, 1071428
1, 408, Tempo, 895522
1, 432, Tempo, 923076
1, 448, Tempo, 821917
1, 464, Tempo, 1153846
1, 480, Tempo, 1000000
1, 528, Tempo, 1071428
1, 576, Tempo, 895522
1, 624, Tempo, 800000
1, 648, Tempo, 845070
1, 672, Tempo, 769230
1, 720, Tempo, 800000
1, 744, Tempo, 952380
1, 768, Tempo, 821917
1, 816, Tempo, 789473
1, 864, Tempo, 895522
1, 900, Tempo, 1621621
1, 912, Tempo, 1071428
1, 928, Tempo, 845070
1, 944, Tempo, 1333333
1, 960, Tempo, 983606
1, 992, Tempo, 1250000
1, 996, Tempo, 1333333
1, 1000, Tempo, 1250000
1, 1008, Tempo, 1153846
1, 1024, Tempo, 769230
1, 1040, Tempo, 2307692
1, 1044, Tempo, 800000
1, 1052, Tempo, 1153846
1, 1056, Tempo, 1250000
1, 1080, Tempo, 869565
1, 1104, Tempo, 895522
1, 1140, Tempo, 1153846
1, 1144, Tempo, 1000000
1, 1148, Tempo, 1071428
1, 1152, Tempo, 845070
1, 1176, Tempo, 1000000
1, 1188, Tempo, 1463414
1, 1194, Tempo, 1153846
1, 1197, Tempo, 1000000
1, 1216, Tempo, 800000
1, 1232, Tempo, 1071428
1, 1248, Tempo, 1000000
1, 1344, Tempo, 869565
1, 1392, Tempo, 895522
1, 1428, Tempo, 845070
1, 1440, Tempo, 895522
1, 1488, Tempo, 952380
1, 1536, Tempo, 869565
1, 1584, Tempo, 845070
1, 1608, Tempo, 1000000
1, 1632, Tempo, 1333333
1, 1640, Tempo, 1153846
1, 1645, Tempo, 895522
1, 1650, Tempo, 845070
1, 1655, Tempo, 789473
1, 1660, Tempo, 769230
1, 1665, Tempo, 750000
1, 1690, Tempo, 769230
1, 1695, Tempo, 800000
1, 1700, Tempo, 845070
1, 1705, Tempo, 952380
1, 1710, Tempo, 1333333
1, 1715, Tempo, 2000000
1, 1720, Tempo, 2307692
1, 1728, Tempo, 845070
1, 1776, Tempo, 750000
1, 1824, Tempo, 769230
1, 1848, Tempo, 731707
1, 1872, Tempo, 666666
1, 1896, Tempo, 895522
1, 1920, Tempo, 769230
1, 1944, Tempo, 1621621
1, 1948, Tempo, 1333333
1, 1952, Tempo, 1153846
1, 1964, Tempo, 2000000
1, 1968, Tempo, 869565
1, 2004, Tempo, 769230
1, 2016, Tempo, 821917
1, 2040, Tempo, 731707
1, 2064, Tempo, 750000
1, 2088, Tempo, 923076
1, 2112, Tempo, 800000
1, 2160, Tempo, 731707
1, 2256, Tempo, 769230
1, 2304, Tempo, 535714
1, 2328, Tempo, 1818181
1, 2332, Tempo, 1333333
1, 2336, Tempo, 1200000
1, 2340, Tempo, 1153846
1, 2344, Tempo, 1333333
1, 2348, Tempo, 2000000
1, 2352, Tempo, 869565
1, 2388, Tempo, 769230
1, 2400, Tempo, 845070
1, 2424, Tempo, 800000
1, 2448, Tempo, 895522
1, 2472, Tempo, 1333333
1, 2496, Tempo, 983606
1, 2544, Tempo, 952380
1, 2580, Tempo, 821917
1, 2592, Tempo, 800000
1, 2640, Tempo, 845070
1, 2676, Tempo, 800000
1, 2688, Tempo, 895522
1, 2718, Tempo, 697674
1, 2730, Tempo, 800000
1, 2736, Tempo, 952380
1, 2760, Tempo, 1153846
1, 2772, Tempo, 769230
1, 2784, Tempo, 869565
1, 2832, Tempo, 952380
1, 2868, Tempo, 1333333
1, 2880, Tempo, 895522
1, 2928, Tempo, 869565
1, 2964, Tempo, 845070
1, 2976, Tempo, 731707
1, 3006, Tempo, 845070
1, 3012, Tempo, 697674
1, 3018, Tempo, 2142857
1, 3024, Tempo, 1153846
1, 3036, Tempo, 769230
1, 3048, Tempo, 731707
1, 3060, Tempo, 769230
1, 3064, Tempo, 2000000
1, 3072, Tempo, 1250000
1, 3096, Tempo, 895522
1, 3120, Tempo, 952380
1, 3168, Tempo, 1000000
1, 3192, Tempo, 1071428
1, 3216, Tempo, 1333333
1, 3239, Tempo, 1153846
1, 3248, Tempo, 2000000
1, 3264, Tempo, 923076
1, 3312, Tempo, 895522
1, 3348, Tempo, 2000000
1, 3351, Tempo, 1250000
1, 3354, Tempo, 1000000
1, 3357, Tempo, 1071428
1, 3360, Tempo, 1000000
1, 3384, Tempo, 800000
1, 3408, Tempo, 845070
1, 3456, Tempo, 895522
1, 3480, Tempo, 952380
1, 3492, Tempo, 895522
1, 3504, Tempo, 800000
1, 3520, Tempo, 789473
1, 3536, Tempo, 1250000
1, 3552, Tempo, 895522
1, 3600, Tempo, 952380
1, 3648, Tempo, 821917
1, 3696, Tempo, 769230
1, 3720, Tempo, 845070
1, 3744, Tempo, 821917
1, 3768, Tempo, 1333333
1, 3772, Tempo, 1071428
1, 3776, Tempo, 1000000
1, 3780, Tempo, 1071428
1, 3784, Tempo, 1250000
1, 3788, Tempo, 1621621
1, 3792, Tempo, 895522
1, 3828, Tempo, 800000
1, 3840, Tempo, 895522
1, 3888, Tempo, 821917
1, 3936, Tempo, 1000000
1, 3960, Tempo, 952380
1, 3984, Tempo, 1000000
1, 4000, Tempo, 800000
1, 4016, Tempo, 1153846
1, 4032, Tempo, 983606
1, 4064, Tempo, 1071428
1, 4069, Tempo, 1000000
1, 4074, Tempo, 1250000
1, 4080, Tempo, 1153846
1, 4096, Tempo, 769230
1, 4112, Tempo, 2307692
1, 4116, Tempo, 800000
1, 4124, Tempo, 1153846
1, 4128, Tempo, 1250000
1, 4152, Tempo, 869565
1, 4176, Tempo, 895522
1, 4212, Tempo, 1153846
1, 4216, Tempo, 1000000
1, 4220, Tempo, 1071428
1, 4224, Tempo, 845070
1, 4248, Tempo, 1000000
1, 4260, Tempo, 1463414
1, 4266, Tempo, 1153846
1, 4269, Tempo, 1000000
1, 4288, Tempo, 800000
1, 4304, Tempo, 1304347
1, 4320, Tempo, 1000000
1, 4368, Tempo, 983606
1, 4416, Tempo, 869565
1, 4464, Tempo, 895522
1, 4500, Tempo, 845070
1, 4512, Tempo, 895522
1, 4560, Tempo, 952380
1, 4608, Tempo, 869565
1, 4656, Tempo, 845070
1, 4680, Tempo, 1000000
1, 4704, Tempo, 1333333
1, 4712, Tempo, 1153846
1, 4717, Tempo, 895522
1, 4722, Tempo, 845070
1, 4727, Tempo, 789473
1, 4732, Tempo, 769230
1, 4737, Tempo, 750000
1, 4762, Tempo, 769230
1, 4767, Tempo, 800000
1, 4772, Tempo, 845070
1, 4777, Tempo, 952380
1, 4782, Tempo, 1333333
1, 4787, Tempo, 2000000
1, 4792, Tempo, 2307692
1, 4800, Tempo, 923076
1, 4848, Tempo, 789473
1, 4896, Tempo, 769230
1, 4920, Tempo, 731707
1, 4944, Tempo, 666666
1, 4968, Tempo, 895522
1, 4992, Tempo, 645161
1, 5016, Tempo, 1621621
1, 5020, Tempo, 1333333
1, 5024, Tempo, 1153846
1, 5036, Tempo, 2000000
1, 5040, Tempo, 869565
1, 5076, Tempo, 769230
1, 5088, Tempo, 821917
1, 5112, Tempo, 731707
1, 5136, Tempo, 750000
1, 5160, Tempo, 952380
1, 5184, Tempo, 800000
1, 5232, Tempo, 750000
1, 5280, Tempo, 769230
1, 5328, Tempo, 789473
1, 5376, Tempo, 535714
1, 5400, Tempo, 1818181
1, 5404, Tempo, 1333333
1, 5408, Tempo, 1200000
1, 5412, Tempo, 1153846
1, 5416, Tempo, 1333333
1, 5420, Tempo, 2000000
1, 5424, Tempo, 869565
1, 5460, Tempo, 769230
1, 5472, Tempo, 845070
1, 5496, Tempo, 769230
1, 5520, Tempo, 800000
1, 5544, Tempo, 1250000
1, 5568, Tempo, 895522
1, 5616, Tempo, 923076
1, 5652, Tempo, 821917
1, 5664, Tempo, 800000
1, 5712, Tempo, 845070
1, 5748, Tempo, 800000
1, 5760, Tempo, 895522
1, 5790, Tempo, 697674
1, 5802, Tempo, 800000
1, 5808, Tempo, 952380
1, 5832, Tempo, 1000000
1, 5844, Tempo, 769230
1, 5856, Tempo, 869565
1, 5904, Tempo, 923076
1, 5940, Tempo, 952380
1, 5952, Tempo, 869565
1, 6036, Tempo, 1000000
1, 6048, Tempo, 666666
1, 6072, Tempo, 1071428
1, 6078, Tempo, 1000000
1, 6090, Tempo, 1153846
1, 6096, Tempo, 1250000
1, 6104, Tempo, 983606
1, 6112, Tempo, 1034482
1, 6120, Tempo, 1304347
1, 6136, Tempo, 2000000
1, 6144, Tempo, 1250000
1, 6168, Tempo, 895522
1, 6192, Tempo, 952380
1, 6240, Tempo, 1000000
1, 6264, Tempo, 1071428
1, 6288, Tempo, 1333333
1, 6311, Tempo, 1153846
1, 6320, Tempo, 2000000
1, 6336, Tempo, 923076
1, 6384, Tempo, 895522
1, 6420, Tempo, 2000000
1, 6423, Tempo, 1250000
1, 6426, Tempo, 1000000
1, 6429, Tempo, 1071428
1, 6432, Tempo, 1000000
1, 6456, Tempo, 731707
1, 6480, Tempo, 845070
1, 6528, Tempo, 895522
1, 6552, Tempo, 952380
1, 6564, Tempo, 895522
1, 6576, Tempo, 800000
1, 6592, Tempo, 789473
1, 6608, Tempo, 1250000
1, 6624, Tempo, 895522
1, 6672, Tempo, 952380
1, 6720, Tempo, 845070
1, 6804, Tempo, 800000
1, 6816, Tempo, 821917
1, 6864, Tempo, 845070
1, 6900, Tempo, 1111111
1, 6912, Tempo, 1071428
1, 6936, Tempo, 845070
1, 6960, Tempo, 1153846
1, 6984, Tempo, 1200000
1, 7008, Tempo, 2307692
1, 7014, Tempo, 1621621
1, 7020, Tempo, 1250000
1, 7026, Tempo, 1111111
1, 7032, Tempo, 1034482
1, 7038, Tempo, 1071428
1, 7044, Tempo, 1250000
1, 7050, Tempo, 1071428
1, 7056, Tempo, 1000000
1, 7062, Tempo, 1250000
1, 7068, Tempo, 1071428
1, 7080, Tempo, 1153846
1, 7086, Tempo, 1250000
1, 7092, Tempo, 1333333
1, 7098, Tempo, 2727272
1, 7104, Tempo, 1111111
1, 7136, Tempo, 1395348
1, 7140, Tempo, 1538461
1, 7144, Tempo, 1395348
1, 7148, Tempo, 2000000
1, 7152, Tempo, 1153846
1, 7168, Tempo, 769230
1, 7184, Tempo, 2307692
1, 7188, Tempo, 800000
1, 7196, Tempo, 1153846
1, 7200, Tempo, 1250000
1, 7224, Tempo, 869565
1, 7248, Tempo, 895522
1, 7284, Tempo, 1153846
1, 7288, Tempo, 1000000
1, 7292, Tempo, 1071428
1, 7296, Tempo, 983606
1, 7344, Tempo, 895522
1, 7360, Tempo, 952380
1, 7376, Tempo, 1395348
1, 7392, Tempo, 952380
1, 7440, Tempo, 1071428
1, 7488, Tempo, 923076
1, 7536, Tempo, 895522
1, 7572, Tempo, 845070
1, 7584, Tempo, 895522
1, 7632, Tempo, 952380
1, 7728, Tempo, 1071428
1, 7776, Tempo, 1200000
1, 7824, Tempo, 1818181
1, 7872, Key_signature, -3, "major"
1, 7872, Tempo, 1000000
1, 7920, Tempo, 923076
1, 7968, Tempo, 895522
1, 8016, Tempo, 923076
1, 8112, Tempo, 895522
1, 8160, Tempo, 952380
1, 8208, Tempo, 1000000
1, 8304, Tempo, 895522
1, 8352, Tempo, 923076
1, 8400, Tempo, 983606
1, 8448, Tempo, 952380
1, 8532, Tempo, 1463414
1, 8536, Tempo, 1333333
1, 8540, Tempo, 1621621
1, 8544, Tempo, 1071428
1, 8592, Tempo, 1250000
1, 8640, Tempo, 1000000
1, 8688, Tempo, 895522
1, 8784, Tempo, 952380
1, 8880, Tempo, 869565
1, 8976, Tempo, 983606
1, 9072, Tempo, 869565
1, 9120, Tempo, 923076
1, 9168, Tempo, 983606
1, 9264, Tempo, 1000000
1, 9300, Tempo, 1463414
1, 9304, Tempo, 1333333
1, 9308, Tempo, 1621621
1, 9312, Tempo, 1034482
1, 9360, Tempo, 1153846
1, 9408, Tempo, 1000000
1, 9456, Tempo, 869565
1, 9504, Tempo, 895522
1, 9600, Tempo, 952380
1, 9648, Tempo, 845070
1, 9696, Tempo, 869565
1, 9744, Tempo, 923076
1, 9792, Tempo, 895522
1, 9840, Tempo, 845070
1, 9888, Tempo, 869565
1, 9936, Tempo, 923076
1, 9984, Tempo, 1111111
1, 10020, Tempo, 1153846
1, 10024, Tempo, 1000000
1, 10028, Tempo, 1071428
1, 10032, Tempo, 1000000
1, 10080, Tempo, 983606
1, 10128, Tempo, 1153846
1, 10176, Tempo, 1000000
1, 10224, Tempo, 895522
1, 10272, Tempo, 869565
1, 10320, Tempo, 923076
1, 10368, Tempo, 952380
1, 10416, Tempo, 895522
1, 10512, Tempo, 952380
1, 10560, Tempo, 1000000
1, 10608, Tempo, 895522
1, 10656, Tempo, 923076
1, 10704, Tempo, 952380
1, 10752, Tempo, 983606
1, 10800, Tempo, 1000000
1, 10848, Tempo, 1111111
1, 10896, Tempo, 1333333
1, 10944, Tempo, 1000000
1, 10992, Tempo, 923076
1, 11088, Tempo, 1000000
1, 11136, Tempo, 1071428
1, 11184, Tempo, 923076
1, 11232, Tempo, 1000000
1, 11280, Tempo, 1111111
1, 11328, Tempo, 1071428
1, 11376, Tempo, 1000000
1, 11424, Tempo, 983606
1, 11472, Tempo, 1071428
1, 11568, Tempo, 1000000
1, 11604, Tempo, 1538461
1, 11608, Tempo, 1333333
1, 11612, Tempo, 1714285
1, 11616, Tempo, 1153846
1, 11664, Tempo, 1304347
1, 11712, Tempo, 1153846
1, 11760, Tempo, 1071428
1, 11808, Tempo, 1395348
1, 11856, Tempo, 3000000
1, 11904, Tempo, 1000000
1, 11952, Tempo, 952380
1, 12000, Tempo, 1463414
1, 12048, Tempo, 3333333
1, 12096, Tempo, 983606
1, 12144, Tempo, 1034482
1, 12180, Tempo, 1333333
1, 12184, Tempo, 1153846
1, 12188, Tempo, 1463414
1, 12192, Tempo, 1250000
1, 12240, Tempo, 3000000
1, 12288, Tempo, 1200000
1, 12336, Tempo, 1071428
1, 12372, Tempo, 1250000
1, 12376, Tempo, 1153846
1, 12380, Tempo, 1463414
1, 12384, Tempo, 1621621
1, 12432, Tempo, 2500000
1, 12496, Tempo, 1304347
1, 12512, Tempo, 1111111
1, 12528, Tempo, 1935483
1, 12544, Tempo, 1714285
1, 12720, Tempo, 1250000
1, 12768, Tempo, 1333333
1, 12816, Tempo, 1538461
1, 12840, Tempo, 2727272
1, 12864, Key_signature, -2, "major"
1, 12864, Tempo, 1111111
1, 12912, Tempo, 895522
1, 12936, Tempo, 1333333
1, 12948, Tempo, 1153846
1, 12952, Tempo, 895522
1, 12956, Tempo, 1000000
1, 12960, Tempo, 1250000
1, 12984, Tempo, 800000
1, 13008, Tempo, 895522
1, 13056, Tempo, 1071428
1, 13080, Tempo, 895522
1, 13104, Tempo, 923076
1, 13120, Tempo, 821917
1, 13136, Tempo, 1250000
1, 13152, Tempo, 1000000
1, 13248, Tempo, 895522
1, 13296, Tempo, 800000
1, 13320, Tempo, 845070
1, 13344, Tempo, 800000
1, 13416, Tempo, 952380
1, 13440, Tempo, 821917
1, 13488, Tempo, 789473
1, 13536, Tempo, 895522
1, 13572, Tempo, 1621621
1, 13584, Tempo, 1071428
1, 13600, Tempo, 845070
1, 13616, Tempo, 1333333
1, 13632, Tempo, 983606
1, 13664, Tempo, 1250000
1, 13668, Tempo, 1333333
1, 13672, Tempo, 1250000
1, 13680, Tempo, 1153846
1, 13696, Tempo, 769230
1, 13712, Tempo, 2307692
1, 13716, Tempo, 800000
1, 13724, Tempo, 1153846
1, 13728, Tempo, 1250000
1, 13752, Tempo, 869565
1, 13776, Tempo, 895522
1, 13812, Tempo, 1153846
1, 13816, Tempo, 1000000
1, 13820, Tempo, 1071428
1, 13824, Tempo, 845070
1, 13848, Tempo, 1000000
1, 13860, Tempo, 1463414
1, 13866, Tempo, 1153846
1, 13869, Tempo, 1000000
1, 13888, Tempo, 800000
1, 13904, Tempo, 1304347
1, 13920, Tempo, 1000000
1, 14016, Tempo, 869565
1, 14064, Tempo, 895522
1, 14100, Tempo, 845070
1, 14112, Tempo, 895522
1, 14160, Tempo, 952380
1, 14208, Tempo, 869565
1, 14256, Tempo, 845070
1, 14280, Tempo, 1000000
1, 14304, Tempo, 1333333
1, 14312, Tempo, 1153846
1, 14317, Tempo, 895522
1, 14322, Tempo, 845070
1, 14327, Tempo, 789473
1, 14332, Tempo, 769230
1, 14337, Tempo, 750000
1, 14362, Tempo, 769230
1, 14367, Tempo, 800000
1, 14372, Tempo, 845070
1, 14377, Tempo, 952380
1, 14382, Tempo, 1333333
1, 14387, Tempo, 2000000
1, 14392, Tempo, 2307692
1, 14400, Tempo, 923076
1, 14448, Tempo, 789473
1, 14496, Tempo, 769230
1, 14520, Tempo, 731707
1, 14544, Tempo, 666666
1, 14568, Tempo, 895522
1, 14592, Tempo, 645161
1, 14616, Tempo, 1621621
1, 14620, Tempo, 1333333
1, 14624, Tempo, 1153846
1, 14636, Tempo, 2000000
1, 14640, Tempo, 869565
1, 14676, Tempo, 769230
1, 14688, Tempo, 821917
1, 14712, Tempo, 731707
1, 14736, Tempo, 750000
1, 14760, Tempo, 952380
1, 14784, Tempo, 800000
1, 14832, Tempo, 750000
1, 14880, Tempo, 769230
1, 14928, Tempo, 789473
1, 14976, Tempo, 535714
1, 15000, Tempo, 1818181
1, 15004, Tempo, 1333333
1, 15008, Tempo, 1200000
1, 15012, Tempo, 1153846
1, 15016, Tempo, 1333333
1, 15020, Tempo, 2000000
1, 15024, Tempo, 869565
1, 15060, Tempo, 769230
1, 15072, Tempo, 845070
1, 15096, Tempo, 769230
1, 15120, Tempo, 800000
1, 15144, Tempo, 1250000
1, 15168, Tempo, 895522
1, 15216, Tempo, 923076
1, 15252, Tempo, 821917
1, 15264, Tempo, 800000
1, 15312, Tempo, 845070
1, 15348, Tempo, 800000
1, 15360, Tempo, 895522
1, 15390, Tempo, 697674
1, 15402, Tempo, 800000
1, 15408, Tempo, 952380
1, 15432, Tempo, 1000000
1, 15444, Tempo, 769230
1, 15456, Tempo, 869565
1, 15504, Tempo, 923076
1, 15540, Tempo, 952380
1, 15552, Tempo, 895522
1, 15600, Tempo, 869565
1, 15636, Tempo, 845070
1, 15648, Tempo, 731707
1, 15678, Tempo, 845070
1, 15684, Tempo, 697674
1, 15690, Tempo, 2142857
1, 15696, Tempo, 1153846
1, 15708, Tempo, 769230
1, 15720, Tempo, 731707
1, 15732, Tempo, 769230
1, 15736, Tempo, 2000000
1, 15744, Tempo, 1250000
1, 15768, Tempo, 895522
1, 15792, Tempo, 952380
1, 15840, Tempo, 1000000
1, 15864, Tempo, 1071428
1, 15888, Tempo, 1333333
1, 15911, Tempo, 1153846
1, 15920, Tempo, 2000000
1, 15936, Tempo, 923076
1, 15984, Tempo, 895522
1, 16020, Tempo, 2000000
1, 16023, Tempo, 1250000
1, 16026, Tempo, 1000000
1, 16029, Tempo, 1071428
1, 16032, Tempo, 1000000
1, 16056, Tempo, 731707
1, 16080, Tempo, 845070
1, 16128, Tempo, 895522
1, 16152, Tempo, 952380
1, 16164, Tempo, 895522
1, 16176, Tempo, 800000
1, 16192, Tempo, 789473
1, 16208, Tempo, 1250000
1, 16224, Tempo, 895522
1, 16272, Tempo, 952380
1, 16320, Tempo, 821917
1, 16368, Tempo, 769230
1, 16392, Tempo, 845070
1, 16416, Tempo, 821917
1, 16440, Tempo, 1333333
1, 16444, Tempo, 1071428
1, 16448, Tempo, 1000000
1, 16452, Tempo, 1071428
1, 16456, Tempo, 1250000
1, 16460, Tempo, 1621621
1, 16464, Tempo, 895522
1, 16500, Tempo, 800000
1, 16512, Tempo, 1071428
1, 16536, Tempo, 845070
1, 16560, Tempo, 1153846
1, 16584, Tempo, 1200000
1, 16608, Tempo, 2307692
1, 16614, Tempo, 1621621
1, 16620, Tempo, 1250000
1, 16626, Tempo, 1111111
1, 16632, Tempo, 1034482
1, 16638, Tempo, 1071428
1, 16644, Tempo, 1250000
1, 16650, Tempo, 1071428
1, 16656, Tempo, 1000000
1, 16662, Tempo, 1250000
1, 16668, Tempo, 1071428
1, 16680, Tempo, 1153846
1, 16686, Tempo, 1250000
1, 16692, Tempo, 1333333
1, 16698, Tempo, 2727272
1, 16704, Tempo, 1111111
1, 16736, Tempo, 1395348
1, 16740, Tempo, 1538461
1, 16744, Tempo, 1395348
1, 16748, Tempo, 2000000
1, 16752, Tempo, 1153846
1, 16768, Tempo, 769230
1, 16784, Tempo, 2307692
1, 16788, Tempo, 800000
1, 16796, Tempo, 1153846
1, 16800, Tempo, 1250000
1, 16824, Tempo, 869565
1, 16848, Tempo, 895522
1, 16884, Tempo, 1153846
1, 16888, Tempo, 1000000
1, 16892, Tempo, 1071428
1, 16896, Tempo, 983606
1, 16944, Tempo, 952380
1, 16980, Tempo, 1395348
1, 16992, Tempo, 952380
1, 17040, Tempo, 1071428
1, 17172, Tempo, 1000000
1, 17232, Tempo, 1153846
1, 17328, Tempo, 1333333
1, 17376, Tempo, 1818181
1, 17424, Tempo, 3333333
1, 17448, Tempo, 2727272
1, 17472, Tempo, 2000000
1, 17496, Tempo, 2727272
1, 17508, Tempo, 2307692
1, 17520, Tempo, 3000000
1, 17532, Tempo, 2727272
1, 17544, Tempo, 1714285
1, 17568, Tempo, 1935483
1, 17592, Tempo, 2500000
1, 17616, Tempo, 2000000
1, 17664, Tempo, 1818181
1, 17664, End_track
2, 0, Start_track
2, 0, Title_t, "RIGHT HAND"
2, 0, MIDI_port, 0
2, 4, System_exclusive, 0A, 41, 10, 42, 12, 40, 00, 7F, 00, 41, F7
2, 6, System_exclusive, 0A, 41, 10, 42, 12, 40, 00, 04, 7F, 3D, F7
2, 10, System_exclusive, 0A, 41, 10, 42, 12, 40, 01, 30, 04, 0B, F7
2, 12, System_exclusive, 0A, 41, 10, 42, 12, 40, 01, 31, 03, 0B, F7
2, 14, System_exclusive, 0A, 41, 10, 42, 12, 40, 01, 33, 6E, 1E, F7
2, 16, System_exclusive, 0A, 41, 10, 42, 12, 40, 01, 34, 3C, 4F, F7
2, 18, System_exclusive, 0A, 41, 10, 42, 12, 40, 01, 38, 02, 05, F7
2, 20, System_exclusive, 0A, 41, 10, 42, 12, 40, 01, 3A, 64, 21, F7
2, 22, System_exclusive, 0A, 41, 10, 42, 12, 40, 01, 3D, 07, 7B, F7
2, 24, System_exclusive, 0A, 41, 10, 42, 12, 40, 01, 3E, 08, 79, F7
2, 26, Control_c, 0, 0, 0
2, 28, Control_c, 0, 32, 1
2, 30, Program_c, 0, 0
2, 32, Control_c, 0, 7, 120
2, 34, Control_c, 0, 11, 120
2, 36, Control_c, 0, 91, 40
2, 38, Control_c, 0, 93, 0
2, 40, Control_c, 0, 10, 64
2, 42, Control_c, 0, 99, 1
2, 44, Control_c, 0, 98, 8
2, 46, Control_c, 0, 6, 64
2, 48, Control_c, 0, 98, 9
2, 50, Control_c, 0, 6, 64
2, 52, Control_c, 0, 98, 10
2, 54, Control_c, 0, 6, 64
2, 56, Control_c, 0, 98, 32
2, 58, Control_c, 0, 6, 64
2, 60, Control_c, 0, 98, 33
2, 62, Control_c, 0, 6, 64
2, 64, Control_c, 0, 98, 99
2, 66, Control_c, 0, 6, 64
2, 68, Control_c, 0, 98, 100
2, 70, Control_c, 0, 6, 80
2, 72, Control_c, 0, 98, 102
2, 74, Control_c, 0, 6, 64
2, 144, Note_on_c, 0, 74, 56
2, 240, Note_on_c, 0, 74, 0
2, 240, Note_on_c, 0, 72, 48
2, 264, Note_on_c, 0, 72, 0
2, 264, Note_on_c, 0, 70, 46
2, 276, Note_on_c, 0, 69, 46
2, 278, Note_on_c, 0, 70, 0
2, 280, Note_on_c, 0, 69, 0
2, 280, Note_on_c, 0, 70, 44
2, 284, Note_on_c, 0, 70, 0
2, 284, Note_on_c, 0, 72, 44
2, 288, Note_on_c, 0, 72, 0
2, 288, Note_on_c, 0, 70, 50
2, 312, Note_on_c, 0, 70, 0
2, 312, Note_on_c, 0, 69, 42
2, 334, Note_on_c, 0, 69, 0
2, 408, Note_on_c, 0, 70, 46
2, 424, Note_on_c, 0, 70, 0
2, 432, Note_on_c, 0, 70, 50
2, 448, Note_on_c, 0, 70, 0
2, 448, Note_on_c, 0, 69, 52
2, 464, Note_on_c, 0, 69, 0
2, 464, Note_on_c, 0, 67, 54
2, 480, Note_on_c, 0, 67, 0
2, 480, Note_on_c, 0, 66, 48
2, 574, Note_on_c, 0, 66, 0
2, 576, Note_on_c, 0, 67, 50
2, 624, Note_on_c, 0, 67, 0
2, 624, Note_on_c, 0, 69, 56
2, 648, Note_on_c, 0, 69, 0
2, 648, Note_on_c, 0, 70, 59
2, 672, Note_on_c, 0, 70, 0
2, 672, Note_on_c, 0, 72, 55
2, 720, Note_on_c, 0, 72, 0
2, 720, Note_on_c, 0, 74, 62
2, 744, Note_on_c, 0, 74, 0
2, 744, Note_on_c, 0, 75, 66
2, 768, Note_on_c, 0, 75, 0
2, 768, Note_on_c, 0, 69, 56
2, 900, Note_on_c, 0, 69, 0
2, 900, Note_on_c, 0, 79, 58
2, 908, Note_on_c, 0, 79, 0
2, 912, Note_on_c, 0, 79, 58
2, 928, Note_on_c, 0, 79, 0
2, 928, Note_on_c, 0, 77, 60
2, 944, Note_on_c, 0, 77, 0
2, 944, Note_on_c, 0, 75, 62
2, 960, Note_on_c, 0, 75, 0
2, 960, Note_on_c, 0, 74, 54
2, 992, Note_on_c, 0, 74, 0
2, 992, Note_on_c, 0, 62, 48
2, 994, Note_on_c, 0, 62, 0
2, 996, Note_on_c, 0, 62, 50
2, 1000, Note_on_c, 0, 62, 0
2, 1000, Note_on_c, 0, 65, 46
2, 1004, Note_on_c, 0, 65, 0
2, 1004, Note_on_c, 0, 70, 44
2, 1008, Note_on_c, 0, 70, 0
2, 1008, Note_on_c, 0, 74, 56
2, 1024, Note_on_c, 0, 74, 0
2, 1024, Note_on_c, 0, 72, 58
2, 1040, Note_on_c, 0, 72, 0
2, 1040, Note_on_c, 0, 70, 55
2, 1044, Note_on_c, 0, 70, 0
2, 1044, Note_on_c, 0, 60, 44
2, 1048, Note_on_c, 0, 62, 42
2, 1052, Note_on_c, 0, 66, 42
2, 1056, Note_on_c, 0, 70, 54
2, 1080, Note_on_c, 0, 70, 0
2, 1080, Note_on_c, 0, 69, 46
2, 1102, Note_on_c, 0, 69, 0
2, 1102, Note_on_c, 0, 66, 0
2, 1102, Note_on_c, 0, 62, 0
2, 1102, Note_on_c, 0, 60, 0
2, 1140, Note_on_c, 0, 58, 42
2, 1144, Note_on_c, 0, 58, 0
2, 1144, Note_on_c, 0, 62, 40
2, 1148, Note_on_c, 0, 62, 0
2, 1148, Note_on_c, 0, 67, 42
2, 1152, Note_on_c, 0, 67, 0
2, 1152, Note_on_c, 0, 70, 50
2, 1176, Note_on_c, 0, 70, 0
2, 1188, Note_on_c, 0, 70, 52
2, 1192, Note_on_c, 0, 70, 0
2, 1194, Note_on_c, 0, 70, 50
2, 1197, Note_on_c, 0, 70, 0
2, 1197, Note_on_c, 0, 72, 52
2, 1200, Note_on_c, 0, 72, 0
2, 1200, Note_on_c, 0, 70, 60
2, 1216, Note_on_c, 0, 70, 0
2, 1216, Note_on_c, 0, 69, 56
2, 1232, Note_on_c, 0, 69, 0
2, 1232, Note_on_c, 0, 67, 58
2, 1248, Note_on_c, 0, 67, 0
2, 1248, Note_on_c, 0, 66, 48
2, 1294, Note_on_c, 0, 66, 0
2, 1344, Note_on_c, 0, 63, 40
2, 1344, Note_on_c, 0, 67, 48
2, 1384, Note_on_c, 0, 67, 0
2, 1384, Note_on_c, 0, 63, 0
2, 1392, Note_on_c, 0, 62, 34
2, 1392, Note_on_c, 0, 69, 48
2, 1428, Note_on_c, 0, 69, 0
2, 1428, Note_on_c, 0, 70, 45
2, 1432, Note_on_c, 0, 62, 0
2, 1440, Note_on_c, 0, 70, 0
2, 1440, Note_on_c, 0, 60, 34
2, 1440, Note_on_c, 0, 67, 38
2, 1440, Note_on_c, 0, 72, 48
2, 1480, Note_on_c, 0, 72, 0
2, 1480, Note_on_c, 0, 67, 0
2, 1488, Note_on_c, 0, 66, 32
2, 1488, Note_on_c, 0, 74, 48
2, 1528, Note_on_c, 0, 74, 0
2, 1528, Note_on_c, 0, 66, 0
2, 1536, Note_on_c, 0, 60, 0
2, 1536, Note_on_c, 0, 67, 44
2, 1584, Note_on_c, 0, 58, 36
2, 1608, Note_on_c, 0, 67, 0
2, 1608, Note_on_c, 0, 67, 48
2, 1624, Note_on_c, 0, 67, 0
2, 1630, Note_on_c, 0, 58, 0
2, 1632, Note_on_c, 0, 67, 48
2, 1640, Note_on_c, 0, 69, 44
2, 1641, Note_on_c, 0, 67, 0
2, 1645, Note_on_c, 0, 70, 42
2, 1646, Note_on_c, 0, 69, 0
2, 1650, Note_on_c, 0, 69, 46
2, 1651, Note_on_c, 0, 70, 0
2, 1655, Note_on_c, 0, 70, 45
2, 1656, Note_on_c, 0, 69, 0
2, 1660, Note_on_c, 0, 69, 48
2, 1661, Note_on_c, 0, 70, 0
2, 1665, Note_on_c, 0, 70, 47
2, 1666, Note_on_c, 0, 69, 0
2, 1670, Note_on_c, 0, 69, 50
2, 1671, Note_on_c, 0, 70, 0
2, 1675, Note_on_c, 0, 70, 48
2, 1676, Note_on_c, 0, 69, 0
2, 1680, Note_on_c, 0, 69, 50
2, 1681, Note_on_c, 0, 70, 0
2, 1685, Note_on_c, 0, 70, 48
2, 1686, Note_on_c, 0, 69, 0
2, 1690, Note_on_c, 0, 69, 49
2, 1691, Note_on_c, 0, 70, 0
2, 1695, Note_on_c, 0, 70, 47
2, 1696, Note_on_c, 0, 69, 0
2, 1700, Note_on_c, 0, 69, 46
2, 1701, Note_on_c, 0, 70, 0
2, 1705, Note_on_c, 0, 70, 44
2, 1706, Note_on_c, 0, 69, 0
2, 1710, Note_on_c, 0, 69, 45
2, 1711, Note_on_c, 0, 70, 0
2, 1715, Note_on_c, 0, 67, 48
2, 1716, Note_on_c, 0, 69, 0
2, 1720, Note_on_c, 0, 69, 52
2, 1721, Note_on_c, 0, 67, 0
2, 1728, Note_on_c, 0, 69, 0
2, 1728, Note_on_c, 0, 70, 48
2, 1776, Note_on_c, 0, 70, 0
2, 1776, Note_on_c, 0, 71, 54
2, 1822, Note_on_c, 0, 71, 0
2, 1848, Note_on_c, 0, 72, 58
2, 1896, Note_on_c, 0, 72, 0
2, 1896, Note_on_c, 0, 73, 60
2, 1920, Note_on_c, 0, 73, 0
2, 1920, Note_on_c, 0, 74, 52
2, 1936, Note_on_c, 0, 74, 0
2, 1944, Note_on_c, 0, 74, 44
2, 1948, Note_on_c, 0, 74, 0
2, 1948, Note_on_c, 0, 75, 48
2, 1952, Note_on_c, 0, 75, 0
2, 1952, Note_on_c, 0, 74, 49
2, 1956, Note_on_c, 0, 74, 0
2, 1956, Note_on_c, 0, 73, 50
2, 1960, Note_on_c, 0, 73, 0
2, 1960, Note_on_c, 0, 74, 57
2, 1962, Note_on_c, 0, 74, 0
2, 1964, Note_on_c, 0, 74, 55
2, 1968, Note_on_c, 0, 74, 0
2, 1968, Note_on_c, 0, 79, 48
2, 2004, Note_on_c, 0, 79, 0
2, 2004, Note_on_c, 0, 77, 57
2, 2010, Note_on_c, 0, 77, 0
2, 2016, Note_on_c, 0, 77, 60
2, 2040, Note_on_c, 0, 77, 0
2, 2040, Note_on_c, 0, 72, 52
2, 2088, Note_on_c, 0, 72, 0
2, 2088, Note_on_c, 0, 73, 56
2, 2112, Note_on_c, 0, 73, 0
2, 2112, Note_on_c, 0, 74, 54
2, 2160, Note_on_c, 0, 74, 0
2, 2160, Note_on_c, 0, 75, 64
2, 2206, Note_on_c, 0, 75, 0
2, 2256, Note_on_c, 0, 76, 70
2, 2304, Note_on_c, 0, 76, 0
2, 2304, Note_on_c, 0, 77, 64
2, 2320, Note_on_c, 0, 77, 0
2, 2328, Note_on_c, 0, 77, 54
2, 2332, Note_on_c, 0, 77, 0
2, 2332, Note_on_c, 0, 79, 57
2, 2336, Note_on_c, 0, 79, 0
2, 2336, Note_on_c, 0, 77, 59
2, 2340, Note_on_c, 0, 77, 0
2, 2340, Note_on_c, 0, 76, 60
2, 2344, Note_on_c, 0, 76, 0
2, 2344, Note_on_c, 0, 77, 62
2, 2348, Note_on_c, 0, 77, 0
2, 2348, Note_on_c, 0, 77, 64
2, 2352, Note_on_c, 0, 77, 0
2, 2352, Note_on_c, 0, 82, 66
2, 2388, Note_on_c, 0, 82, 0
2, 2388, Note_on_c, 0, 81, 69
2, 2396, Note_on_c, 0, 81, 0
2, 2400, Note_on_c, 0, 81, 70
2, 2424, Note_on_c, 0, 81, 0
2, 2424, Note_on_c, 0, 75, 66
2, 2472, Note_on_c, 0, 75, 0
2, 2472, Note_on_c, 0, 76, 62
2, 2494, Note_on_c, 0, 76, 0
2, 2496, Note_on_c, 0, 77, 58
2, 2544, Note_on_c, 0, 77, 0
2, 2544, Note_on_c, 0, 79, 48
2, 2580, Note_on_c, 0, 79, 0
2, 2580, Note_on_c, 0, 77, 47
2, 2592, Note_on_c, 0, 77, 0
2, 2592, Note_on_c, 0, 75, 46
2, 2640, Note_on_c, 0, 75, 0
2, 2640, Note_on_c, 0, 70, 48
2, 2676, Note_on_c, 0, 70, 0
2, 2676, Note_on_c, 0, 72, 50
2, 2688, Note_on_c, 0, 72, 0
2, 2688, Note_on_c, 0, 74, 48
2, 2718, Note_on_c, 0, 74, 0
2, 2718, Note_on_c, 0, 74, 42
2, 2722, Note_on_c, 0, 74, 0
2, 2724, Note_on_c, 0, 74, 42
2, 2730, Note_on_c, 0, 74, 0
2, 2730, Note_on_c, 0, 77, 46
2, 2736, Note_on_c, 0, 77, 0
2, 2736, Note_on_c, 0, 75, 48
2, 2760, Note_on_c, 0, 75, 0
2, 2772, Note_on_c, 0, 74, 44
2, 2784, Note_on_c, 0, 74, 0
2, 2784, Note_on_c, 0, 72, 40
2, 2830, Note_on_c, 0, 72, 0
2, 2832, Note_on_c, 0, 67, 44
2, 2868, Note_on_c, 0, 67, 0
2, 2868, Note_on_c, 0, 69, 42
2, 2880, Note_on_c, 0, 69, 0
2, 2880, Note_on_c, 0, 70, 40
2, 2928, Note_on_c, 0, 70, 0
2, 2928, Note_on_c, 0, 69, 58
2, 2964, Note_on_c, 0, 69, 0
2, 2964, Note_on_c, 0, 70, 56
2, 2976, Note_on_c, 0, 70, 0
2, 2976, Note_on_c, 0, 72, 57
2, 3006, Note_on_c, 0, 72, 0
2, 3006, Note_on_c, 0, 72, 54
2, 3012, Note_on_c, 0, 72, 0
2, 3012, Note_on_c, 0, 74, 56
2, 3018, Note_on_c, 0, 74, 0
2, 3018, Note_on_c, 0, 72, 56
2, 3024, Note_on_c, 0, 72, 0
2, 3024, Note_on_c, 0, 71, 56
2, 3036, Note_on_c, 0, 71, 0
2, 3036, Note_on_c, 0, 72, 62
2, 3048, Note_on_c, 0, 72, 0
2, 3048, Note_on_c, 0, 74, 65
2, 3060, Note_on_c, 0, 74, 0
2, 3060, Note_on_c, 0, 77, 60
2, 3064, Note_on_c, 0, 77, 0
2, 3064, Note_on_c, 0, 75, 62
2, 3072, Note_on_c, 0, 75, 0
2, 3072, Note_on_c, 0, 74, 62
2, 3096, Note_on_c, 0, 62, 68
2, 3112, Note_on_c, 0, 74, 0
2, 3120, Note_on_c, 0, 74, 66
2, 3186, Note_on_c, 0, 74, 0
2, 3192, Note_on_c, 0, 74, 62
2, 3210, Note_on_c, 0, 74, 0
2, 3216, Note_on_c, 0, 74, 60
2, 3226, Note_on_c, 0, 74, 0
2, 3232, Note_on_c, 0, 74, 67
2, 3242, Note_on_c, 0, 74, 0
2, 3248, Note_on_c, 0, 74, 68
2, 3260, Note_on_c, 0, 74, 0
2, 3264, Note_on_c, 0, 62, 0
2, 3264, Note_on_c, 0, 74, 60
2, 3312, Note_on_c, 0, 74, 0
2, 3312, Note_on_c, 0, 72, 60
2, 3348, Note_on_c, 0, 72, 0
2, 3348, Note_on_c, 0, 70, 54
2, 3351, Note_on_c, 0, 70, 0
2, 3351, Note_on_c, 0, 69, 54
2, 3354, Note_on_c, 0, 69, 0
2, 3354, Note_on_c, 0, 70, 52
2, 3357, Note_on_c, 0, 70, 0
2, 3357, Note_on_c, 0, 72, 52
2, 3360, Note_on_c, 0, 72, 0
2, 3360, Note_on_c, 0, 70, 54
2, 3384, Note_on_c, 0, 70, 0
2, 3384, Note_on_c, 0, 69, 45
2, 3406, Note_on_c, 0, 69, 0
2, 3480, Note_on_c, 0, 70, 52
2, 3486, Note_on_c, 0, 70, 0
2, 3492, Note_on_c, 0, 70, 50
2, 3496, Note_on_c, 0, 70, 0
2, 3496, Note_on_c, 0, 72, 54
2, 3500, Note_on_c, 0, 72, 0
2, 3500, Note_on_c, 0, 70, 50
2, 3504, Note_on_c, 0, 70, 0
2, 3504, Note_on_c, 0, 70, 50
2, 3520, Note_on_c, 0, 70, 0
2, 3520, Note_on_c, 0, 69, 55
2, 3536, Note_on_c, 0, 69, 0
2, 3536, Note_on_c, 0, 67, 54
2, 3552, Note_on_c, 0, 67, 0
2, 3552, Note_on_c, 0, 66, 50
2, 3600, Note_on_c, 0, 66, 0
2, 3648, Note_on_c, 0, 67, 55
2, 3696, Note_on_c, 0, 67, 0
2, 3696, Note_on_c, 0, 69, 54
2, 3720, Note_on_c, 0, 69, 0
2, 3720, Note_on_c, 0, 70, 56
2, 3744, Note_on_c, 0, 70, 0
2, 3744, Note_on_c, 0, 72, 60
2, 3762, Note_on_c, 0, 72, 0
2, 3768, Note_on_c, 0, 72, 50
2, 3772, Note_on_c, 0, 72, 0
2, 3772, Note_on_c, 0, 72, 52
2, 3776, Note_on_c, 0, 72, 0
2, 3776, Note_on_c, 0, 74, 54
2, 3780, Note_on_c, 0, 74, 0
2, 3780, Note_on_c, 0, 72, 54
2, 3784, Note_on_c, 0, 72, 0
2, 3784, Note_on_c, 0, 71, 54
2, 3788, Note_on_c, 0, 71, 0
2, 3788, Note_on_c, 0, 72, 56
2, 3792, Note_on_c, 0, 72, 0
2, 3792, Note_on_c, 0, 74, 58
2, 3828, Note_on_c, 0, 74, 0
2, 3828, Note_on_c, 0, 75, 62
2, 3840, Note_on_c, 0, 75, 0
2, 3840, Note_on_c, 0, 69, 58
2, 3888, Note_on_c, 0, 81, 68
2, 3960, Note_on_c, 0, 81, 0
2, 3960, Note_on_c, 0, 79, 64
2, 3976, Note_on_c, 0, 79, 0
2, 3984, Note_on_c, 0, 79, 66
2, 4000, Note_on_c, 0, 79, 0
2, 4000, Note_on_c, 0, 77, 65
2, 4016, Note_on_c, 0, 77, 0
2, 4016, Note_on_c, 0, 75, 64
2, 4030, Note_on_c, 0, 75, 0
2, 4030, Note_on_c, 0, 69, 0
2, 4032, Note_on_c, 0, 74, 54
2, 4064, Note_on_c, 0, 74, 0
2, 4064, Note_on_c, 0, 62, 46
2, 4069, Note_on_c, 0, 62, 0
2, 4069, Note_on_c, 0, 65, 48
2, 4074, Note_on_c, 0, 65, 0
2, 4074, Note_on_c, 0, 70, 46
2, 4080, Note_on_c, 0, 70, 0
2, 4080, Note_on_c, 0, 74, 56
2, 4096, Note_on_c, 0, 74, 0
2, 4096, Note_on_c, 0, 72, 58
2, 4112, Note_on_c, 0, 72, 0
2, 4112, Note_on_c, 0, 70, 55
2, 4116, Note_on_c, 0, 70, 0
2, 4116, Note_on_c, 0, 60, 44
2, 4120, Note_on_c, 0, 62, 42
2, 4124, Note_on_c, 0, 66, 42
2, 4128, Note_on_c, 0, 70, 54
2, 4152, Note_on_c, 0, 70, 0
2, 4152, Note_on_c, 0, 69, 46
2, 4174, Note_on_c, 0, 69, 0
2, 4174, Note_on_c, 0, 66, 0
2, 4174, Note_on_c, 0, 62, 0
2, 4174, Note_on_c, 0, 60, 0
2, 4212, Note_on_c, 0, 58, 42
2, 4216, Note_on_c, 0, 58, 0
2, 4216, Note_on_c, 0, 62, 40
2, 4220, Note_on_c, 0, 62, 0
2, 4220, Note_on_c, 0, 67, 42
2, 4224, Note_on_c, 0, 67, 0
2, 4224, Note_on_c, 0, 70, 50
2, 4248, Note_on_c, 0, 70, 0
2, 4260, Note_on_c, 0, 70, 52
2, 4264, Note_on_c, 0, 70, 0
2, 4266, Note_on_c, 0, 70, 50
2, 4269, Note_on_c, 0, 70, 0
2, 4269, Note_on_c, 0, 72, 52
2, 4272, Note_on_c, 0, 72, 0
2, 4272, Note_on_c, 0, 70, 60
2, 4288, Note_on_c, 0, 70, 0
2, 4288, Note_on_c, 0, 69, 56
2, 4304, Note_on_c, 0, 69, 0
2, 4304, Note_on_c, 0, 67, 58
2, 4320, Note_on_c, 0, 67, 0
2, 4320, Note_on_c, 0, 66, 48
2, 4366, Note_on_c, 0, 66, 0
2, 4416, Note_on_c, 0, 63, 44
2, 4416, Note_on_c, 0, 67, 50
2, 4456, Note_on_c, 0, 67, 0
2, 4456, Note_on_c, 0, 63, 0
2, 4464, Note_on_c, 0, 62, 34
2, 4464, Note_on_c, 0, 69, 48
2, 4500, Note_on_c, 0, 69, 0
2, 4500, Note_on_c, 0, 70, 45
2, 4504, Note_on_c, 0, 62, 0
2, 4512, Note_on_c, 0, 70, 0
2, 4512, Note_on_c, 0, 60, 34
2, 4512, Note_on_c, 0, 67, 38
2, 4512, Note_on_c, 0, 72, 48
2, 4552, Note_on_c, 0, 72, 0
2, 4552, Note_on_c, 0, 67, 0
2, 4560, Note_on_c, 0, 66, 32
2, 4560, Note_on_c, 0, 74, 48
2, 4600, Note_on_c, 0, 74, 0
2, 4600, Note_on_c, 0, 66, 0
2, 4608, Note_on_c, 0, 60, 0
2, 4608, Note_on_c, 0, 67, 44
2, 4656, Note_on_c, 0, 58, 36
2, 4680, Note_on_c, 0, 67, 0
2, 4680, Note_on_c, 0, 67, 48
2, 4696, Note_on_c, 0, 67, 0
2, 4702, Note_on_c, 0, 58, 0
2, 4704, Note_on_c, 0, 67, 48
2, 4712, Note_on_c, 0, 69, 44
2, 4713, Note_on_c, 0, 67, 0
2, 4717, Note_on_c, 0, 70, 42
2, 4718, Note_on_c, 0, 69, 0
2, 4722, Note_on_c, 0, 69, 46
2, 4723, Note_on_c, 0, 70, 0
2, 4727, Note_on_c, 0, 70, 45
2, 4728, Note_on_c, 0, 69, 0
2, 4732, Note_on_c, 0, 69, 48
2, 4733, Note_on_c, 0, 70, 0
2, 4737, Note_on_c, 0, 70, 47
2, 4738, Note_on_c, 0, 69, 0
2, 4742, Note_on_c, 0, 69, 50
2, 4743, Note_on_c, 0, 70, 0
2, 4747, Note_on_c, 0, 70, 48
2, 4748, Note_on_c, 0, 69, 0
2, 4752, Note_on_c, 0, 69, 50
2, 4753, Note_on_c, 0, 70, 0
2, 4757, Note_on_c, 0, 70, 48
2, 4758, Note_on_c, 0, 69, 0
2, 4762, Note_on_c, 0, 69, 49
2, 4763, Note_on_c, 0, 70, 0
2, 4767, Note_on_c, 0, 70, 47
2, 4768, Note_on_c, 0, 69, 0
2, 4772, Note_on_c, 0, 69, 46
2, 4773, Note_on_c, 0, 70, 0
2, 4777, Note_on_c, 0, 70, 44
2, 4778, Note_on_c, 0, 69, 0
2, 4782, Note_on_c, 0, 69, 45
2, 4783, Note_on_c, 0, 70, 0
2, 4787, Note_on_c, 0, 67, 48
2, 4788, Note_on_c, 0, 69, 0
2, 4792, Note_on_c, 0, 69, 52
2, 4793, Note_on_c, 0, 67, 0
2, 4800, Note_on_c, 0, 69, 0
2, 4800, Note_on_c, 0, 70, 48
2, 4848, Note_on_c, 0, 70, 0
2, 4848, Note_on_c, 0, 71, 54
2, 4894, Note_on_c, 0, 71, 0
2, 4920, Note_on_c, 0, 72, 58
2, 4968, Note_on_c, 0, 72, 0
2, 4968, Note_on_c, 0, 73, 60
2, 4992, Note_on_c, 0, 73, 0
2, 4992, Note_on_c, 0, 74, 52
2, 5008, Note_on_c, 0, 74, 0
2, 5016, Note_on_c, 0, 74, 44
2, 5020, Note_on_c, 0, 74, 0
2, 5020, Note_on_c, 0, 75, 48
2, 5024, Note_on_c, 0, 75, 0
2, 5024, Note_on_c, 0, 74, 49
2, 5028, Note_on_c, 0, 74, 0
2, 5028, Note_on_c, 0, 73, 50
2, 5032, Note_on_c, 0, 73, 0
2, 5032, Note_on_c, 0, 74, 57
2, 5034, Note_on_c, 0, 74, 0
2, 5036, Note_on_c, 0, 74, 55
2, 5040, Note_on_c, 0, 74, 0
2, 5040, Note_on_c, 0, 79, 48
2, 5076, Note_on_c, 0, 79, 0
2, 5076, Note_on_c, 0, 77, 55
2, 5082, Note_on_c, 0, 77, 0
2, 5088, Note_on_c, 0, 77, 58
2, 5112, Note_on_c, 0, 77, 0
2, 5112, Note_on_c, 0, 72, 52
2, 5160, Note_on_c, 0, 72, 0
2, 5160, Note_on_c, 0, 73, 56
2, 5184, Note_on_c, 0, 73, 0
2, 5184, Note_on_c, 0, 74, 54
2, 5232, Note_on_c, 0, 74, 0
2, 5232, Note_on_c, 0, 75, 64
2, 5278, Note_on_c, 0, 75, 0
2, 5328, Note_on_c, 0, 76, 70
2, 5376, Note_on_c, 0, 76, 0
2, 5376, Note_on_c, 0, 77, 64
2, 5392, Note_on_c, 0, 77, 0
2, 5400, Note_on_c, 0, 77, 54
2, 5404, Note_on_c, 0, 77, 0
2, 5404, Note_on_c, 0, 79, 57
2, 5408, Note_on_c, 0, 79, 0
2, 5408, Note_on_c, 0, 77, 59
2, 5412, Note_on_c, 0, 77, 0
2, 5412, Note_on_c, 0, 76, 60
2, 5416, Note_on_c, 0, 76, 0
2, 5416, Note_on_c, 0, 77, 62
2, 5420, Note_on_c, 0, 77, 0
2, 5420, Note_on_c, 0, 77, 64
2, 5424, Note_on_c, 0, 77, 0
2, 5424, Note_on_c, 0, 82, 64
2, 5460, Note_on_c, 0, 82, 0
2, 5460, Note_on_c, 0, 81, 69
2, 5468, Note_on_c, 0, 81, 0
2, 5472, Note_on_c, 0, 81, 70
2, 5496, Note_on_c, 0, 81, 0
2, 5496, Note_on_c, 0, 75, 66
2, 5544, Note_on_c, 0, 75, 0
2, 5544, Note_on_c, 0, 76, 66
2, 5566, Note_on_c, 0, 76, 0
2, 5568, Note_on_c, 0, 77, 52
2, 5616, Note_on_c, 0, 77, 0
2, 5616, Note_on_c, 0, 79, 48
2, 5652, Note_on_c, 0, 79, 0
2, 5652, Note_on_c, 0, 77, 47
2, 5664, Note_on_c, 0, 77, 0
2, 5664, Note_on_c, 0, 75, 46
2, 5712, Note_on_c, 0, 75, 0
2, 5712, Note_on_c, 0, 70, 48
2, 5748, Note_on_c, 0, 70, 0
2, 5748, Note_on_c, 0, 72, 50
2, 5760, Note_on_c, 0, 72, 0
2, 5760, Note_on_c, 0, 74, 48
2, 5790, Note_on_c, 0, 74, 0
2, 5790, Note_on_c, 0, 74, 42
2, 5794, Note_on_c, 0, 74, 0
2, 5796, Note_on_c, 0, 74, 42
2, 5802, Note_on_c, 0, 74, 0
2, 5802, Note_on_c, 0, 77, 46
2, 5808, Note_on_c, 0, 77, 0
2, 5808, Note_on_c, 0, 75, 48
2, 5832, Note_on_c, 0, 75, 0
2, 5844, Note_on_c, 0, 74, 44
2, 5856, Note_on_c, 0, 74, 0
2, 5856, Note_on_c, 0, 72, 40
2, 5902, Note_on_c, 0, 72, 0
2, 5904, Note_on_c, 0, 67, 44
2, 5940, Note_on_c, 0, 67, 0
2, 5940, Note_on_c, 0, 69, 42
2, 5952, Note_on_c, 0, 69, 0
2, 5952, Note_on_c, 0, 70, 46
2, 6000, Note_on_c, 0, 70, 0
2, 6000, Note_on_c, 0, 69, 55
2, 6036, Note_on_c, 0, 69, 0
2, 6036, Note_on_c, 0, 70, 59
2, 6048, Note_on_c, 0, 70, 0
2, 6048, Note_on_c, 0, 72, 62
2, 6072, Note_on_c, 0, 72, 0
2, 6072, Note_on_c, 0, 72, 55
2, 6076, Note_on_c, 0, 72, 0
2, 6078, Note_on_c, 0, 72, 57
2, 6084, Note_on_c, 0, 72, 0
2, 6084, Note_on_c, 0, 74, 55
2, 6090, Note_on_c, 0, 74, 0
2, 6090, Note_on_c, 0, 72, 54
2, 6096, Note_on_c, 0, 72, 0
2, 6096, Note_on_c, 0, 71, 64
2, 6104, Note_on_c, 0, 71, 0
2, 6104, Note_on_c, 0, 72, 62
2, 6112, Note_on_c, 0, 72, 0
2, 6112, Note_on_c, 0, 73, 66
2, 6120, Note_on_c, 0, 73, 0
2, 6120, Note_on_c, 0, 74, 68
2, 6128, Note_on_c, 0, 74, 0
2, 6128, Note_on_c, 0, 77, 70
2, 6136, Note_on_c, 0, 77, 0
2, 6136, Note_on_c, 0, 75, 69
2, 6144, Note_on_c, 0, 75, 0
2, 6144, Note_on_c, 0, 74, 64
2, 6168, Note_on_c, 0, 62, 60
2, 6184, Note_on_c, 0, 74, 0
2, 6192, Note_on_c, 0, 74, 66
2, 6258, Note_on_c, 0, 74, 0
2, 6264, Note_on_c, 0, 74, 62
2, 6282, Note_on_c, 0, 74, 0
2, 6288, Note_on_c, 0, 74, 62
2, 6298, Note_on_c, 0, 74, 0
2, 6304, Note_on_c, 0, 74, 67
2, 6314, Note_on_c, 0, 74, 0
2, 6320, Note_on_c, 0, 74, 66
2, 6332, Note_on_c, 0, 74, 0
2, 6336, Note_on_c, 0, 62, 0
2, 6336, Note_on_c, 0, 74, 60
2, 6384, Note_on_c, 0, 74, 0
2, 6384, Note_on_c, 0, 72, 60
2, 6420, Note_on_c, 0, 72, 0
2, 6420, Note_on_c, 0, 70, 54
2, 6423, Note_on_c, 0, 70, 0
2, 6423, Note_on_c, 0, 69, 54
2, 6426, Note_on_c, 0, 69, 0
2, 6426, Note_on_c, 0, 70, 52
2, 6429, Note_on_c, 0, 70, 0
2, 6429, Note_on_c, 0, 72, 52
2, 6432, Note_on_c, 0, 72, 0
2, 6432, Note_on_c, 0, 70, 54
2, 6456, Note_on_c, 0, 70, 0
2, 6456, Note_on_c, 0, 69, 45
2, 6478, Note_on_c, 0, 69, 0
2, 6552, Note_on_c, 0, 70, 52
2, 6558, Note_on_c, 0, 70, 0
2, 6564, Note_on_c, 0, 70, 50
2, 6568, Note_on_c, 0, 70, 0
2, 6568, Note_on_c, 0, 72, 52
2, 6572, Note_on_c, 0, 72, 0
2, 6572, Note_on_c, 0, 70, 50
2, 6576, Note_on_c, 0, 70, 0
2, 6576, Note_on_c, 0, 70, 50
2, 6592, Note_on_c, 0, 70, 0
2, 6592, Note_on_c, 0, 69, 55
2, 6608, Note_on_c, 0, 69, 0
2, 6608, Note_on_c, 0, 67, 54
2, 6624, Note_on_c, 0, 67, 0
2, 6624, Note_on_c, 0, 66, 50
2, 6672, Note_on_c, 0, 66, 0
2, 6720, Note_on_c, 0, 67, 50
2, 6768, Note_on_c, 0, 67, 0
2, 6768, Note_on_c, 0, 69, 52
2, 6804, Note_on_c, 0, 69, 0
2, 6804, Note_on_c, 0, 70, 53
2, 6816, Note_on_c, 0, 70, 0
2, 6816, Note_on_c, 0, 72, 54
2, 6864, Note_on_c, 0, 72, 0
2, 6864, Note_on_c, 0, 74, 61
2, 6900, Note_on_c, 0, 74, 0
2, 6900, Note_on_c, 0, 75, 64
2, 6908, Note_on_c, 0, 75, 0
2, 6912, Note_on_c, 0, 75, 62
2, 6936, Note_on_c, 0, 75, 0
2, 6936, Note_on_c, 0, 69, 58
2, 6958, Note_on_c, 0, 69, 0
2, 6984, Note_on_c, 0, 81, 72
2, 7014, Note_on_c, 0, 81, 0
2, 7014, Note_on_c, 0, 80, 56
2, 7020, Note_on_c, 0, 80, 0
2, 7020, Note_on_c, 0, 79, 55
2, 7026, Note_on_c, 0, 79, 0
2, 7026, Note_on_c, 0, 78, 54
2, 7032, Note_on_c, 0, 78, 0
2, 7032, Note_on_c, 0, 77, 52
2, 7038, Note_on_c, 0, 77, 0
2, 7038, Note_on_c, 0, 76, 50
2, 7044, Note_on_c, 0, 76, 0
2, 7044, Note_on_c, 0, 75, 48
2, 7050, Note_on_c, 0, 75, 0
2, 7050, Note_on_c, 0, 72, 44
2, 7056, Note_on_c, 0, 72, 0
2, 7056, Note_on_c, 0, 69, 40
2, 7062, Note_on_c, 0, 69, 0
2, 7062, Note_on_c, 0, 66, 36
2, 7068, Note_on_c, 0, 66, 0
2, 7068, Note_on_c, 0, 64, 44
2, 7074, Note_on_c, 0, 64, 0
2, 7074, Note_on_c, 0, 65, 38
2, 7080, Note_on_c, 0, 65, 0
2, 7080, Note_on_c, 0, 67, 40
2, 7086, Note_on_c, 0, 67, 0
2, 7086, Note_on_c, 0, 69, 42
2, 7092, Note_on_c, 0, 69, 0
2, 7092, Note_on_c, 0, 70, 40
2, 7098, Note_on_c, 0, 70, 0
2, 7098, Note_on_c, 0, 72, 46
2, 7104, Note_on_c, 0, 72, 0
2, 7104, Note_on_c, 0, 74, 44
2, 7136, Note_on_c, 0, 74, 0
2, 7136, Note_on_c, 0, 61, 36
2, 7138, Note_on_c, 0, 61, 0
2, 7140, Note_on_c, 0, 62, 40
2, 7144, Note_on_c, 0, 62, 0
2, 7144, Note_on_c, 0, 65, 36
2, 7148, Note_on_c, 0, 65, 0
2, 7148, Note_on_c, 0, 70, 34
2, 7152, Note_on_c, 0, 70, 0
2, 7152, Note_on_c, 0, 74, 46
2, 7168, Note_on_c, 0, 74, 0
2, 7168, Note_on_c, 0, 72, 48
2, 7184, Note_on_c, 0, 72, 0
2, 7184, Note_on_c, 0, 70, 45
2, 7188, Note_on_c, 0, 70, 0
2, 7188, Note_on_c, 0, 60, 38
2, 7192, Note_on_c, 0, 62, 36
2, 7196, Note_on_c, 0, 66, 36
2, 7200, Note_on_c, 0, 70, 48
2, 7224, Note_on_c, 0, 70, 0
2, 7224, Note_on_c, 0, 69, 40
2, 7246, Note_on_c, 0, 69, 0
2, 7246, Note_on_c, 0, 66, 0
2, 7246, Note_on_c, 0, 62, 0
2, 7246, Note_on_c, 0, 60, 0
2, 7284, Note_on_c, 0, 58, 40
2, 7288, Note_on_c, 0, 58, 0
2, 7288, Note_on_c, 0, 62, 38
2, 7292, Note_on_c, 0, 62, 0
2, 7292, Note_on_c, 0, 67, 40
2, 7296, Note_on_c, 0, 67, 0
2, 7296, Note_on_c, 0, 70, 46
2, 7360, Note_on_c, 0, 70, 0
2, 7360, Note_on_c, 0, 69, 53
2, 7376, Note_on_c, 0, 69, 0
2, 7376, Note_on_c, 0, 67, 50
2, 7392, Note_on_c, 0, 67, 0
2, 7392, Note_on_c, 0, 66, 44
2, 7486, Note_on_c, 0, 66, 0
2, 7488, Note_on_c, 0, 63, 44
2, 7488, Note_on_c, 0, 67, 50
2, 7528, Note_on_c, 0, 67, 0
2, 7528, Note_on_c, 0, 63, 0
2, 7536, Note_on_c, 0, 62, 34
2, 7536, Note_on_c, 0, 69, 48
2, 7572, Note_on_c, 0, 69, 0
2, 7572, Note_on_c, 0, 70, 45
2, 7576, Note_on_c, 0, 62, 0
2, 7584, Note_on_c, 0, 70, 0
2, 7584, Note_on_c, 0, 60, 34
2, 7584, Note_on_c, 0, 67, 38
2, 7584, Note_on_c, 0, 72, 48
2, 7624, Note_on_c, 0, 72, 0
2, 7624, Note_on_c, 0, 67, 0
2, 7632, Note_on_c, 0, 66, 32
2, 7632, Note_on_c, 0, 74, 48
2, 7672, Note_on_c, 0, 74, 0
2, 7672, Note_on_c, 0, 66, 0
2, 7680, Note_on_c, 0, 67, 44
2, 7726, Note_on_c, 0, 60, 0
2, 7728, Note_on_c, 0, 58, 40
2, 7768, Note_on_c, 0, 58, 0
2, 7774, Note_on_c, 0, 67, 0
2, 7776, Note_on_c, 0, 58, 36
2, 7816, Note_on_c, 0, 58, 0
2, 7824, Note_on_c, 0, 56, 24
2, 7824, Note_on_c, 0, 58, 36
2, 7864, Note_on_c, 0, 58, 0
2, 7864, Note_on_c, 0, 56, 0
2, 7872, Note_on_c, 0, 51, 26
2, 7872, Note_on_c, 0, 55, 30
2, 7872, Note_on_c, 0, 58, 42
2, 7912, Note_on_c, 0, 58, 0
2, 7912, Note_on_c, 0, 55, 0
2, 7912, Note_on_c, 0, 51, 0
2, 7920, Note_on_c, 0, 51, 30
2, 7920, Note_on_c, 0, 56, 34
2, 7920, Note_on_c, 0, 60, 46
2, 7960, Note_on_c, 0, 60, 0
2, 7960, Note_on_c, 0, 56, 0
2, 7960, Note_on_c, 0, 51, 0
2, 7968, Note_on_c, 0, 51, 34
2, 7968, Note_on_c, 0, 56, 38
2, 7968, Note_on_c, 0, 60, 50
2, 8008, Note_on_c, 0, 60, 0
2, 8008, Note_on_c, 0, 56, 0
2, 8008, Note_on_c, 0, 51, 0
2, 8016, Note_on_c, 0, 51, 30
2, 8016, Note_on_c, 0, 55, 34
2, 8016, Note_on_c, 0, 58, 46
2, 8056, Note_on_c, 0, 58, 0
2, 8056, Note_on_c, 0, 55, 0
2, 8056, Note_on_c, 0, 51, 0
2, 8064, Note_on_c, 0, 51, 36
2, 8064, Note_on_c, 0, 56, 40
2, 8064, Note_on_c, 0, 60, 52
2, 8104, Note_on_c, 0, 60, 0
2, 8104, Note_on_c, 0, 56, 0
2, 8104, Note_on_c, 0, 51, 0
2, 8112, Note_on_c, 0, 55, 34
2, 8112, Note_on_c, 0, 58, 38
2, 8112, Note_on_c, 0, 63, 52
2, 8152, Note_on_c, 0, 63, 0
2, 8152, Note_on_c, 0, 58, 0
2, 8152, Note_on_c, 0, 55, 0
2, 8160, Note_on_c, 0, 53, 32
2, 8160, Note_on_c, 0, 58, 36
2, 8160, Note_on_c, 0, 62, 48
2, 8200, Note_on_c, 0, 62, 0
2, 8200, Note_on_c, 0, 58, 0
2, 8200, Note_on_c, 0, 53, 0
2, 8208, Note_on_c, 0, 55, 28
2, 8208, Note_on_c, 0, 58, 32
2, 8208, Note_on_c, 0, 63, 44
2, 8248, Note_on_c, 0, 63, 0
2, 8248, Note_on_c, 0, 58, 0
2, 8248, Note_on_c, 0, 55, 0
2, 8256, Note_on_c, 0, 58, 34
2, 8256, Note_on_c, 0, 62, 38
2, 8256, Note_on_c, 0, 65, 50
2, 8296, Note_on_c, 0, 65, 0
2, 8296, Note_on_c, 0, 62, 0
2, 8296, Note_on_c, 0, 58, 0
2, 8304, Note_on_c, 0, 58, 38
2, 8304, Note_on_c, 0, 63, 42
2, 8304, Note_on_c, 0, 67, 54
2, 8344, Note_on_c, 0, 67, 0
2, 8344, Note_on_c, 0, 63, 0
2, 8344, Note_on_c, 0, 58, 0
2, 8352, Note_on_c, 0, 60, 40
2, 8352, Note_on_c, 0, 63, 44
2, 8352, Note_on_c, 0, 68, 56
2, 8392, Note_on_c, 0, 68, 0
2, 8392, Note_on_c, 0, 63, 0
2, 8392, Note_on_c, 0, 60, 0
2, 8400, Note_on_c, 0, 58, 34
2, 8400, Note_on_c, 0, 63, 38
2, 8400, Note_on_c, 0, 67, 50
2, 8440, Note_on_c, 0, 67, 0
2, 8440, Note_on_c, 0, 63, 0
2, 8440, Note_on_c, 0, 58, 0
2, 8448, Note_on_c, 0, 58, 32
2, 8448, Note_on_c, 0, 62, 36
2, 8448, Note_on_c, 0, 65, 48
2, 8488, Note_on_c, 0, 65, 0
2, 8488, Note_on_c, 0, 62, 0
2, 8488, Note_on_c, 0, 58, 0
2, 8496, Note_on_c, 0, 55, 28
2, 8496, Note_on_c, 0, 60, 32
2, 8496, Note_on_c, 0, 63, 44
2, 8526, Note_on_c, 0, 63, 0
2, 8526, Note_on_c, 0, 60, 0
2, 8526, Note_on_c, 0, 55, 0
2, 8532, Note_on_c, 0, 56, 32
2, 8536, Note_on_c, 0, 62, 36
2, 8540, Note_on_c, 0, 67, 44
2, 8544, Note_on_c, 0, 65, 44
2, 8546, Note_on_c, 0, 67, 0
2, 8584, Note_on_c, 0, 65, 0
2, 8584, Note_on_c, 0, 62, 0
2, 8584, Note_on_c, 0, 56, 0
2, 8592, Note_on_c, 0, 55, 26
2, 8592, Note_on_c, 0, 63, 42
2, 8632, Note_on_c, 0, 63, 0
2, 8632, Note_on_c, 0, 55, 0
2, 8640, Note_on_c, 0, 55, 30
2, 8640, Note_on_c, 0, 58, 44
2, 8680, Note_on_c, 0, 58, 0
2, 8680, Note_on_c, 0, 55, 0
2, 8688, Note_on_c, 0, 51, 30
2, 8688, Note_on_c, 0, 56, 34
2, 8688, Note_on_c, 0, 60, 46
2, 8728, Note_on_c, 0, 60, 0
2, 8728, Note_on_c, 0, 56, 0
2, 8728, Note_on_c, 0, 51, 0
2, 8736, Note_on_c, 0, 51, 34
2, 8736, Note_on_c, 0, 56, 38
2, 8736, Note_on_c, 0, 60, 50
2, 8776, Note_on_c, 0, 60, 0
2, 8776, Note_on_c, 0, 56, 0
2, 8776, Note_on_c, 0, 51, 0
2, 8784, Note_on_c, 0, 51, 30
2, 8784, Note_on_c, 0, 55, 34
2, 8784, Note_on_c, 0, 58, 46
2, 8824, Note_on_c, 0, 58, 0
2, 8824, Note_on_c, 0, 55, 0
2, 8824, Note_on_c, 0, 51, 0
2, 8832, Note_on_c, 0, 51, 36
2, 8832, Note_on_c, 0, 56, 40
2, 8832, Note_on_c, 0, 60, 52
2, 8872, Note_on_c, 0, 60, 0
2, 8872, Note_on_c, 0, 56, 0
2, 8872, Note_on_c, 0, 51, 0
2, 8880, Note_on_c, 0, 55, 34
2, 8880, Note_on_c, 0, 58, 38
2, 8880, Note_on_c, 0, 63, 52
2, 8920, Note_on_c, 0, 63, 0
2, 8920, Note_on_c, 0, 58, 0
2, 8920, Note_on_c, 0, 55, 0
2, 8928, Note_on_c, 0, 53, 32
2, 8928, Note_on_c, 0, 58, 36
2, 8928, Note_on_c, 0, 62, 48
2, 8968, Note_on_c, 0, 62, 0
2, 8968, Note_on_c, 0, 58, 0
2, 8968, Note_on_c, 0, 53, 0
2, 8976, Note_on_c, 0, 55, 28
2, 8976, Note_on_c, 0, 58, 32
2, 8976, Note_on_c, 0, 63, 44
2, 9016, Note_on_c, 0, 63, 0
2, 9016, Note_on_c, 0, 58, 0
2, 9016, Note_on_c, 0, 55, 0
2, 9024, Note_on_c, 0, 58, 34
2, 9024, Note_on_c, 0, 62, 38
2, 9024, Note_on_c, 0, 65, 50
2, 9064, Note_on_c, 0, 65, 0
2, 9064, Note_on_c, 0, 62, 0
2, 9064, Note_on_c, 0, 58, 0
2, 9072, Note_on_c, 0, 58, 38
2, 9072, Note_on_c, 0, 63, 42
2, 9072, Note_on_c, 0, 67, 54
2, 9112, Note_on_c, 0, 67, 0
2, 9112, Note_on_c, 0, 63, 0
2, 9112, Note_on_c, 0, 58, 0
2, 9120, Note_on_c, 0, 60, 40
2, 9120, Note_on_c, 0, 63, 44
2, 9120, Note_on_c, 0, 68, 56
2, 9160, Note_on_c, 0, 68, 0
2, 9160, Note_on_c, 0, 63, 0
2, 9160, Note_on_c, 0, 60, 0
2, 9168, Note_on_c, 0, 58, 34
2, 9168, Note_on_c, 0, 63, 38
2, 9168, Note_on_c, 0, 67, 50
2, 9208, Note_on_c, 0, 67, 0
2, 9208, Note_on_c, 0, 63, 0
2, 9208, Note_on_c, 0, 58, 0
2, 9216, Note_on_c, 0, 58, 32
2, 9216, Note_on_c, 0, 62, 36
2, 9216, Note_on_c, 0, 65, 48
2, 9256, Note_on_c, 0, 65, 0
2, 9256, Note_on_c, 0, 62, 0
2, 9256, Note_on_c, 0, 58, 0
2, 9264, Note_on_c, 0, 55, 28
2, 9264, Note_on_c, 0, 60, 32
2, 9264, Note_on_c, 0, 63, 44
2, 9294, Note_on_c, 0, 63, 0
2, 9294, Note_on_c, 0, 60, 0
2, 9294, Note_on_c, 0, 55, 0
2, 9300, Note_on_c, 0, 56, 32
2, 9304, Note_on_c, 0, 62, 36
2, 9308, Note_on_c, 0, 67, 36
2, 9312, Note_on_c, 0, 65, 44
2, 9314, Note_on_c, 0, 67, 0
2, 9352, Note_on_c, 0, 65, 0
2, 9352, Note_on_c, 0, 62, 0
2, 9352, Note_on_c, 0, 56, 0
2, 9360, Note_on_c, 0, 55, 26
2, 9360, Note_on_c, 0, 63, 52
2, 9400, Note_on_c, 0, 63, 0
2, 9400, Note_on_c, 0, 55, 0
2, 9408, Note_on_c, 0, 58, 26
2, 9408, Note_on_c, 0, 63, 30
2, 9408, Note_on_c, 0, 67, 44
2, 9448, Note_on_c, 0, 67, 0
2, 9448, Note_on_c, 0, 63, 0
2, 9448, Note_on_c, 0, 58, 0
2, 9456, Note_on_c, 0, 55, 32
2, 9456, Note_on_c, 0, 62, 36
2, 9456, Note_on_c, 0, 67, 48
2, 9496, Note_on_c, 0, 67, 0
2, 9496, Note_on_c, 0, 62, 0
2, 9496, Note_on_c, 0, 55, 0
2, 9504, Note_on_c, 0, 60, 40
2, 9504, Note_on_c, 0, 63, 44
2, 9504, Note_on_c, 0, 67, 56
2, 9544, Note_on_c, 0, 67, 0
2, 9544, Note_on_c, 0, 63, 0
2, 9544, Note_on_c, 0, 60, 0
2, 9552, Note_on_c, 0, 57, 42
2, 9552, Note_on_c, 0, 62, 46
2, 9552, Note_on_c, 0, 66, 58
2, 9592, Note_on_c, 0, 66, 0
2, 9592, Note_on_c, 0, 62, 0
2, 9592, Note_on_c, 0, 57, 0
2, 9600, Note_on_c, 0, 60, 44
2, 9600, Note_on_c, 0, 65, 60
2, 9640, Note_on_c, 0, 65, 0
2, 9640, Note_on_c, 0, 60, 0
2, 9648, Note_on_c, 0, 62, 48
2, 9648, Note_on_c, 0, 65, 64
2, 9688, Note_on_c, 0, 65, 0
2, 9688, Note_on_c, 0, 62, 0
2, 9696, Note_on_c, 0, 58, 48
2, 9696, Note_on_c, 0, 62, 52
2, 9696, Note_on_c, 0, 70, 66
2, 9736, Note_on_c, 0, 70, 0
2, 9736, Note_on_c, 0, 62, 0
2, 9736, Note_on_c, 0, 58, 0
2, 9744, Note_on_c, 0, 60, 46
2, 9744, Note_on_c, 0, 64, 50
2, 9744, Note_on_c, 0, 67, 62
2, 9784, Note_on_c, 0, 67, 0
2, 9784, Note_on_c, 0, 64, 0
2, 9784, Note_on_c, 0, 60, 0
2, 9792, Note_on_c, 0, 60, 44
2, 9792, Note_on_c, 0, 65, 48
2, 9792, Note_on_c, 0, 68, 60
2, 9832, Note_on_c, 0, 68, 0
2, 9832, Note_on_c, 0, 65, 0
2, 9832, Note_on_c, 0, 60, 0
2, 9840, Note_on_c, 0, 61, 48
2, 9840, Note_on_c, 0, 65, 52
2, 9840, Note_on_c, 0, 70, 64
2, 9880, Note_on_c, 0, 70, 0
2, 9880, Note_on_c, 0, 65, 0
2, 9880, Note_on_c, 0, 61, 0
2, 9888, Note_on_c, 0, 58, 42
2, 9888, Note_on_c, 0, 64, 46
2, 9888, Note_on_c, 0, 67, 58
2, 9928, Note_on_c, 0, 67, 0
2, 9928, Note_on_c, 0, 64, 0
2, 9928, Note_on_c, 0, 58, 0
2, 9936, Note_on_c, 0, 56, 38
2, 9936, Note_on_c, 0, 65, 54
2, 9976, Note_on_c, 0, 65, 0
2, 9976, Note_on_c, 0, 56, 0
2, 9984, Note_on_c, 0, 60, 44
2, 9984, Note_on_c, 0, 65, 48
2, 9984, Note_on_c, 0, 68, 60
2, 10014, Note_on_c, 0, 68, 0
2, 10014, Note_on_c, 0, 65, 0
2, 10014, Note_on_c, 0, 60, 0
2, 10020, Note_on_c, 0, 61, 48
2, 10024, Note_on_c, 0, 65, 52
2, 10028, Note_on_c, 0, 72, 56
2, 10032, Note_on_c, 0, 70, 60
2, 10034, Note_on_c, 0, 72, 0
2, 10072, Note_on_c, 0, 70, 0
2, 10072, Note_on_c, 0, 65, 0
2, 10072, Note_on_c, 0, 61, 0
2, 10080, Note_on_c, 0, 58, 34
2, 10080, Note_on_c, 0, 64, 38
2, 10080, Note_on_c, 0, 67, 54
2, 10120, Note_on_c, 0, 67, 0
2, 10120, Note_on_c, 0, 64, 0
2, 10120, Note_on_c, 0, 58, 0
2, 10128, Note_on_c, 0, 56, 30
2, 10128, Note_on_c, 0, 65, 44
2, 10168, Note_on_c, 0, 65, 0
2, 10168, Note_on_c, 0, 56, 0
2, 10176, Note_on_c, 0, 60, 36
2, 10176, Note_on_c, 0, 63, 48
2, 10216, Note_on_c, 0, 63, 0
2, 10216, Note_on_c, 0, 60, 0
2, 10224, Note_on_c, 0, 55, 34
2, 10224, Note_on_c, 0, 60, 38
2, 10224, Note_on_c, 0, 63, 50
2, 10264, Note_on_c, 0, 63, 0
2, 10264, Note_on_c, 0, 60, 0
2, 10264, Note_on_c, 0, 55, 0
2, 10272, Note_on_c, 0, 55, 34
2, 10272, Note_on_c, 0, 58, 38
2, 10272, Note_on_c, 0, 63, 50
2, 10312, Note_on_c, 0, 63, 0
2, 10312, Note_on_c, 0, 58, 0
2, 10312, Note_on_c, 0, 55, 0
2, 10320, Note_on_c, 0, 53, 36
2, 10320, Note_on_c, 0, 58, 40
2, 10320, Note_on_c, 0, 62, 52
2, 10360, Note_on_c, 0, 62, 0
2, 10360, Note_on_c, 0, 58, 0
2, 10360, Note_on_c, 0, 53, 0
2, 10368, Note_on_c, 0, 57, 46
2, 10368, Note_on_c, 0, 62, 60
2, 10408, Note_on_c, 0, 62, 0
2, 10408, Note_on_c, 0, 57, 0
2, 10416, Note_on_c, 0, 58, 48
2, 10416, Note_on_c, 0, 62, 62
2, 10456, Note_on_c, 0, 62, 0
2, 10456, Note_on_c, 0, 58, 0
2, 10464, Note_on_c, 0, 55, 50
2, 10464, Note_on_c, 0, 58, 52
2, 10464, Note_on_c, 0, 62, 54
2, 10464, Note_on_c, 0, 67, 66
2, 10504, Note_on_c, 0, 67, 0
2, 10504, Note_on_c, 0, 62, 0
2, 10504, Note_on_c, 0, 58, 0
2, 10504, Note_on_c, 0, 55, 0
2, 10512, Note_on_c, 0, 52, 48
2, 10512, Note_on_c, 0, 57, 52
2, 10512, Note_on_c, 0, 61, 66
2, 10552, Note_on_c, 0, 61, 0
2, 10552, Note_on_c, 0, 57, 0
2, 10552, Note_on_c, 0, 52, 0
2, 10560, Note_on_c, 0, 54, 52
2, 10560, Note_on_c, 0, 57, 56
2, 10560, Note_on_c, 0, 62, 68
2, 10600, Note_on_c, 0, 62, 0
2, 10600, Note_on_c, 0, 57, 0
2, 10600, Note_on_c, 0, 54, 0
2, 10608, Note_on_c, 0, 55, 50
2, 10608, Note_on_c, 0, 60, 54
2, 10608, Note_on_c, 0, 63, 66
2, 10648, Note_on_c, 0, 63, 0
2, 10648, Note_on_c, 0, 60, 0
2, 10648, Note_on_c, 0, 55, 0
2, 10656, Note_on_c, 0, 55, 48
2, 10656, Note_on_c, 0, 60, 52
2, 10656, Note_on_c, 0, 63, 64
2, 10696, Note_on_c, 0, 63, 0
2, 10696, Note_on_c, 0, 60, 0
2, 10696, Note_on_c, 0, 55, 0
2, 10704, Note_on_c, 0, 54, 36
2, 10704, Note_on_c, 0, 57, 40
2, 10704, Note_on_c, 0, 62, 52
2, 10744, Note_on_c, 0, 62, 0
2, 10744, Note_on_c, 0, 57, 0
2, 10744, Note_on_c, 0, 54, 0
2, 10752, Note_on_c, 0, 54, 34
2, 10752, Note_on_c, 0, 57, 38
2, 10752, Note_on_c, 0, 62, 50
2, 10792, Note_on_c, 0, 62, 0
2, 10792, Note_on_c, 0, 57, 0
2, 10792, Note_on_c, 0, 54, 0
2, 10800, Note_on_c, 0, 55, 34
2, 10800, Note_on_c, 0, 60, 38
2, 10800, Note_on_c, 0, 63, 50
2, 10840, Note_on_c, 0, 63, 0
2, 10840, Note_on_c, 0, 60, 0
2, 10840, Note_on_c, 0, 55, 0
2, 10848, Note_on_c, 0, 53, 30
2, 10848, Note_on_c, 0, 56, 34
2, 10848, Note_on_c, 0, 60, 46
2, 10888, Note_on_c, 0, 60, 0
2, 10888, Note_on_c, 0, 56, 0
2, 10888, Note_on_c, 0, 53, 0
2, 10896, Note_on_c, 0, 50, 26
2, 10896, Note_on_c, 0, 53, 30
2, 10896, Note_on_c, 0, 58, 42
2, 10936, Note_on_c, 0, 58, 0
2, 10936, Note_on_c, 0, 53, 0
2, 10936, Note_on_c, 0, 50, 0
2, 10944, Note_on_c, 0, 51, 32
2, 10944, Note_on_c, 0, 55, 36
2, 10944, Note_on_c, 0, 58, 48
2, 10984, Note_on_c, 0, 58, 0
2, 10984, Note_on_c, 0, 55, 0
2, 10984, Note_on_c, 0, 51, 0
2, 10992, Note_on_c, 0, 51, 36
2, 10992, Note_on_c, 0, 56, 40
2, 10992, Note_on_c, 0, 60, 52
2, 11032, Note_on_c, 0, 60, 0
2, 11032, Note_on_c, 0, 56, 0
2, 11032, Note_on_c, 0, 51, 0
2, 11040, Note_on_c, 0, 51, 34
2, 11040, Note_on_c, 0, 56, 38
2, 11040, Note_on_c, 0, 60, 50
2, 11080, Note_on_c, 0, 60, 0
2, 11080, Note_on_c, 0, 56, 0
2, 11080, Note_on_c, 0, 51, 0
2, 11088, Note_on_c, 0, 51, 32
2, 11088, Note_on_c, 0, 55, 36
2, 11088, Note_on_c, 0, 58, 48
2, 11128, Note_on_c, 0, 58, 0
2, 11128, Note_on_c, 0, 55, 0
2, 11128, Note_on_c, 0, 51, 0
2, 11136, Note_on_c, 0, 51, 26
2, 11136, Note_on_c, 0, 56, 30
2, 11136, Note_on_c, 0, 60, 42
2, 11176, Note_on_c, 0, 60, 0
2, 11176, Note_on_c, 0, 56, 0
2, 11184, Note_on_c, 0, 55, 36
2, 11184, Note_on_c, 0, 58, 40
2, 11184, Note_on_c, 0, 63, 52
2, 11224, Note_on_c, 0, 63, 0
2, 11224, Note_on_c, 0, 58, 0
2, 11224, Note_on_c, 0, 55, 0
2, 11224, Note_on_c, 0, 51, 0
2, 11232, Note_on_c, 0, 53, 34
2, 11232, Note_on_c, 0, 58, 38
2, 11232, Note_on_c, 0, 62, 50
2, 11272, Note_on_c, 0, 62, 0
2, 11272, Note_on_c, 0, 58, 0
2, 11272, Note_on_c, 0, 53, 0
2, 11280, Note_on_c, 0, 55, 32
2, 11280, Note_on_c, 0, 58, 36
2, 11280, Note_on_c, 0, 63, 48
2, 11320, Note_on_c, 0, 63, 0
2, 11320, Note_on_c, 0, 58, 0
2, 11320, Note_on_c, 0, 55, 0
2, 11328, Note_on_c, 0, 58, 34
2, 11328, Note_on_c, 0, 62, 38
2, 11328, Note_on_c, 0, 65, 50
2, 11368, Note_on_c, 0, 65, 0
2, 11368, Note_on_c, 0, 62, 0
2, 11368, Note_on_c, 0, 58, 0
2, 11376, Note_on_c, 0, 58, 40
2, 11376, Note_on_c, 0, 63, 44
2, 11376, Note_on_c, 0, 67, 56
2, 11416, Note_on_c, 0, 67, 0
2, 11416, Note_on_c, 0, 63, 0
2, 11416, Note_on_c, 0, 58, 0
2, 11424, Note_on_c, 0, 60, 44
2, 11424, Note_on_c, 0, 63, 48
2, 11424, Note_on_c, 0, 68, 60
2, 11464, Note_on_c, 0, 68, 0
2, 11464, Note_on_c, 0, 63, 0
2, 11464, Note_on_c, 0, 60, 0
2, 11472, Note_on_c, 0, 58, 38
2, 11472, Note_on_c, 0, 63, 42
2, 11472, Note_on_c, 0, 67, 54
2, 11512, Note_on_c, 0, 67, 0
2, 11512, Note_on_c, 0, 63, 0
2, 11512, Note_on_c, 0, 58, 0
2, 11520, Note_on_c, 0, 58, 36
2, 11520, Note_on_c, 0, 62, 40
2, 11520, Note_on_c, 0, 65, 52
2, 11560, Note_on_c, 0, 65, 0
2, 11560, Note_on_c, 0, 62, 0
2, 11560, Note_on_c, 0, 58, 0
2, 11568, Note_on_c, 0, 55, 32
2, 11568, Note_on_c, 0, 60, 36
2, 11568, Note_on_c, 0, 63, 48
2, 11598, Note_on_c, 0, 63, 0
2, 11598, Note_on_c, 0, 60, 0
2, 11598, Note_on_c, 0, 55, 0
2, 11604, Note_on_c, 0, 56, 32
2, 11608, Note_on_c, 0, 62, 36
2, 11612, Note_on_c, 0, 67, 44
2, 11616, Note_on_c, 0, 65, 46
2, 11618, Note_on_c, 0, 67, 0
2, 11656, Note_on_c, 0, 65, 0
2, 11656, Note_on_c, 0, 62, 0
2, 11656, Note_on_c, 0, 56, 0
2, 11664, Note_on_c, 0, 55, 26
2, 11664, Note_on_c, 0, 63, 42
2, 11704, Note_on_c, 0, 63, 0
2, 11704, Note_on_c, 0, 55, 0
2, 11712, Note_on_c, 0, 55, 32
2, 11712, Note_on_c, 0, 58, 48
2, 11752, Note_on_c, 0, 58, 0
2, 11752, Note_on_c, 0, 55, 0
2, 11760, Note_on_c, 0, 51, 36
2, 11760, Note_on_c, 0, 56, 40
2, 11760, Note_on_c, 0, 60, 52
2, 11800, Note_on_c, 0, 60, 0
2, 11800, Note_on_c, 0, 56, 0
2, 11800, Note_on_c, 0, 51, 0
2, 11808, Note_on_c, 0, 51, 34
2, 11808, Note_on_c, 0, 56, 38
2, 11808, Note_on_c, 0, 60, 50
2, 11848, Note_on_c, 0, 60, 0
2, 11848, Note_on_c, 0, 56, 0
2, 11848, Note_on_c, 0, 51, 0
2, 11856, Note_on_c, 0, 55, 32
2, 11856, Note_on_c, 0, 58, 44
2, 11886, Note_on_c, 0, 58, 0
2, 11886, Note_on_c, 0, 55, 0
2, 11904, Note_on_c, 0, 51, 32
2, 11904, Note_on_c, 0, 56, 36
2, 11904, Note_on_c, 0, 60, 48
2, 11944, Note_on_c, 0, 60, 0
2, 11944, Note_on_c, 0, 56, 0
2, 11944, Note_on_c, 0, 51, 0
2, 11952, Note_on_c, 0, 55, 36
2, 11952, Note_on_c, 0, 58, 40
2, 11952, Note_on_c, 0, 63, 52
2, 11992, Note_on_c, 0, 63, 0
2, 11992, Note_on_c, 0, 58, 0
2, 11992, Note_on_c, 0, 55, 0
2, 12000, Note_on_c, 0, 53, 34
2, 12000, Note_on_c, 0, 58, 38
2, 12000, Note_on_c, 0, 62, 50
2, 12040, Note_on_c, 0, 62, 0
2, 12040, Note_on_c, 0, 58, 0
2, 12040, Note_on_c, 0, 53, 0
2, 12048, Note_on_c, 0, 55, 26
2, 12048, Note_on_c, 0, 58, 30
2, 12048, Note_on_c, 0, 63, 42
2, 12078, Note_on_c, 0, 63, 0
2, 12078, Note_on_c, 0, 58, 0
2, 12078, Note_on_c, 0, 55, 0
2, 12096, Note_on_c, 0, 58, 34
2, 12096, Note_on_c, 0, 62, 38
2, 12096, Note_on_c, 0, 65, 50
2, 12136, Note_on_c, 0, 65, 0
2, 12136, Note_on_c, 0, 62, 0
2, 12136, Note_on_c, 0, 58, 0
2, 12144, Note_on_c, 0, 58, 38
2, 12144, Note_on_c, 0, 61, 40
2, 12144, Note_on_c, 0, 63, 42
2, 12144, Note_on_c, 0, 67, 54
2, 12174, Note_on_c, 0, 67, 0
2, 12174, Note_on_c, 0, 63, 0
2, 12174, Note_on_c, 0, 61, 0
2, 12174, Note_on_c, 0, 58, 0
2, 12180, Note_on_c, 0, 60, 42
2, 12184, Note_on_c, 0, 63, 46
2, 12188, Note_on_c, 0, 70, 54
2, 12192, Note_on_c, 0, 68, 56
2, 12193, Note_on_c, 0, 70, 0
2, 12232, Note_on_c, 0, 68, 0
2, 12232, Note_on_c, 0, 63, 0
2, 12232, Note_on_c, 0, 60, 0
2, 12240, Note_on_c, 0, 58, 30
2, 12240, Note_on_c, 0, 64, 34
2, 12240, Note_on_c, 0, 67, 46
2, 12276, Note_on_c, 0, 67, 0
2, 12276, Note_on_c, 0, 64, 0
2, 12276, Note_on_c, 0, 58, 0
2, 12288, Note_on_c, 0, 58, 32
2, 12288, Note_on_c, 0, 62, 36
2, 12288, Note_on_c, 0, 65, 48
2, 12328, Note_on_c, 0, 65, 0
2, 12328, Note_on_c, 0, 62, 0
2, 12328, Note_on_c, 0, 58, 0
2, 12336, Note_on_c, 0, 55, 38
2, 12336, Note_on_c, 0, 60, 42
2, 12336, Note_on_c, 0, 63, 54
2, 12366, Note_on_c, 0, 63, 0
2, 12366, Note_on_c, 0, 60, 0
2, 12366, Note_on_c, 0, 55, 0
2, 12372, Note_on_c, 0, 56, 44
2, 12376, Note_on_c, 0, 62, 48
2, 12380, Note_on_c, 0, 67, 60
2, 12384, Note_on_c, 0, 65, 62
2, 12386, Note_on_c, 0, 67, 0
2, 12424, Note_on_c, 0, 65, 0
2, 12424, Note_on_c, 0, 62, 0
2, 12424, Note_on_c, 0, 56, 0
2, 12432, Note_on_c, 0, 55, 32
2, 12432, Note_on_c, 0, 60, 36
2, 12432, Note_on_c, 0, 63, 48
2, 12472, Note_on_c, 0, 63, 0
2, 12472, Note_on_c, 0, 60, 0
2, 12472, Note_on_c, 0, 55, 0
2, 12480, Note_on_c, 0, 30, 50
2, 12496, Note_on_c, 0, 42, 48
2, 12512, Note_on_c, 0, 50, 44
2, 12528, Note_on_c, 0, 57, 53
2, 12544, Note_on_c, 0, 62, 52
2, 12670, Note_on_c, 0, 57, 0
2, 12670, Note_on_c, 0, 50, 0
2, 12670, Note_on_c, 0, 42, 0
2, 12670, Note_on_c, 0, 30, 0
2, 12720, Note_on_c, 0, 74, 48
2, 12760, Note_on_c, 0, 74, 0
2, 12768, Note_on_c, 0, 74, 56
2, 12808, Note_on_c, 0, 74, 0
2, 12816, Note_on_c, 0, 74, 54
2, 12832, Note_on_c, 0, 74, 0
2, 12840, Note_on_c, 0, 74, 50
2, 12856, Note_on_c, 0, 74, 0
2, 12856, Note_on_c, 0, 62, 0
2, 12864, Note_on_c, 0, 74, 52
2, 12912, Note_on_c, 0, 74, 0
2, 12912, Note_on_c, 0, 72, 48
2, 12936, Note_on_c, 0, 72, 0
2, 12936, Note_on_c, 0, 70, 46
2, 12948, Note_on_c, 0, 69, 46
2, 12950, Note_on_c, 0, 70, 0
2, 12952, Note_on_c, 0, 69, 0
2, 12952, Note_on_c, 0, 70, 44
2, 12956, Note_on_c, 0, 70, 0
2, 12956, Note_on_c, 0, 72, 44
2, 12960, Note_on_c, 0, 72, 0
2, 12960, Note_on_c, 0, 70, 50
2, 12984, Note_on_c, 0, 70, 0
2, 12984, Note_on_c, 0, 69, 42
2, 13006, Note_on_c, 0, 69, 0
2, 13080, Note_on_c, 0, 70, 46
2, 13096, Note_on_c, 0, 70, 0
2, 13104, Note_on_c, 0, 70, 50
2, 13120, Note_on_c, 0, 70, 0
2, 13120, Note_on_c, 0, 69, 52
2, 13136, Note_on_c, 0, 69, 0
2, 13136, Note_on_c, 0, 67, 54
2, 13152, Note_on_c, 0, 67, 0
2, 13152, Note_on_c, 0, 66, 48
2, 13246, Note_on_c, 0, 66, 0
2, 13248, Note_on_c, 0, 67, 50
2, 13296, Note_on_c, 0, 67, 0
2, 13296, Note_on_c, 0, 69, 56
2, 13320, Note_on_c, 0, 69, 0
2, 13320, Note_on_c, 0, 70, 59
2, 13344, Note_on_c, 0, 70, 0
2, 13344, Note_on_c, 0, 72, 55
2, 13392, Note_on_c, 0, 72, 0
2, 13392, Note_on_c, 0, 74, 62
2, 13416, Note_on_c, 0, 74, 0
2, 13416, Note_on_c, 0, 75, 66
2, 13440, Note_on_c, 0, 75, 0
2, 13440, Note_on_c, 0, 69, 56
2, 13572, Note_on_c, 0, 69, 0
2, 13572, Note_on_c, 0, 79, 58
2, 13580, Note_on_c, 0, 79, 0
2, 13584, Note_on_c, 0, 79, 58
2, 13600, Note_on_c, 0, 79, 0
2, 13600, Note_on_c, 0, 77, 60
2, 13616, Note_on_c, 0, 77, 0
2, 13616, Note_on_c, 0, 75, 62
2, 13632, Note_on_c, 0, 75, 0
2, 13632, Note_on_c, 0, 74, 54
2, 13664, Note_on_c, 0, 74, 0
2, 13664, Note_on_c, 0, 62, 48
2, 13666, Note_on_c, 0, 62, 0
2, 13668, Note_on_c, 0, 62, 50
2, 13672, Note_on_c, 0, 62, 0
2, 13672, Note_on_c, 0, 65, 46
2, 13676, Note_on_c, 0, 65, 0
2, 13676, Note_on_c, 0, 70, 44
2, 13680, Note_on_c, 0, 70, 0
2, 13680, Note_on_c, 0, 74, 56
2, 13696, Note_on_c, 0, 74, 0
2, 13696, Note_on_c, 0, 72, 58
2, 13712, Note_on_c, 0, 72, 0
2, 13712, Note_on_c, 0, 70, 55
2, 13716, Note_on_c, 0, 70, 0
2, 13716, Note_on_c, 0, 60, 44
2, 13720, Note_on_c, 0, 62, 42
2, 13724, Note_on_c, 0, 66, 42
2, 13728, Note_on_c, 0, 70, 54
2, 13752, Note_on_c, 0, 70, 0
2, 13752, Note_on_c, 0, 69, 46
2, 13774, Note_on_c, 0, 69, 0
2, 13774, Note_on_c, 0, 66, 0
2, 13774, Note_on_c, 0, 62, 0
2, 13774, Note_on_c, 0, 60, 0
2, 13812, Note_on_c, 0, 58, 42
2, 13816, Note_on_c, 0, 58, 0
2, 13816, Note_on_c, 0, 62, 40
2, 13820, Note_on_c, 0, 62, 0
2, 13820, Note_on_c, 0, 67, 42
2, 13824, Note_on_c, 0, 67, 0
2, 13824, Note_on_c, 0, 70, 50
2, 13848, Note_on_c, 0, 70, 0
2, 13860, Note_on_c, 0, 70, 52
2, 13864, Note_on_c, 0, 70, 0
2, 13866, Note_on_c, 0, 70, 50
2, 13869, Note_on_c, 0, 70, 0
2, 13869, Note_on_c, 0, 72, 52
2, 13872, Note_on_c, 0, 72, 0
2, 13872, Note_on_c, 0, 70, 60
2, 13888, Note_on_c, 0, 70, 0
2, 13888, Note_on_c, 0, 69, 56
2, 13904, Note_on_c, 0, 69, 0
2, 13904, Note_on_c, 0, 67, 58
2, 13920, Note_on_c, 0, 67, 0
2, 13920, Note_on_c, 0, 66, 48
2, 13966, Note_on_c, 0, 66, 0
2, 14016, Note_on_c, 0, 63, 40
2, 14016, Note_on_c, 0, 67, 48
2, 14056, Note_on_c, 0, 67, 0
2, 14056, Note_on_c, 0, 63, 0
2, 14064, Note_on_c, 0, 62, 34
2, 14064, Note_on_c, 0, 69, 48
2, 14100, Note_on_c, 0, 69, 0
2, 14100, Note_on_c, 0, 70, 45
2, 14104, Note_on_c, 0, 62, 0
2, 14112, Note_on_c, 0, 70, 0
2, 14112, Note_on_c, 0, 60, 34
2, 14112, Note_on_c, 0, 67, 38
2, 14112, Note_on_c, 0, 72, 48
2, 14152, Note_on_c, 0, 72, 0
2, 14152, Note_on_c, 0, 67, 0
2, 14160, Note_on_c, 0, 66, 32
2, 14160, Note_on_c, 0, 74, 48
2, 14200, Note_on_c, 0, 74, 0
2, 14200, Note_on_c, 0, 66, 0
2, 14208, Note_on_c, 0, 60, 0
2, 14208, Note_on_c, 0, 67, 44
2, 14256, Note_on_c, 0, 58, 36
2, 14280, Note_on_c, 0, 67, 0
2, 14280, Note_on_c, 0, 67, 48
2, 14296, Note_on_c, 0, 67, 0
2, 14302, Note_on_c, 0, 58, 0
2, 14304, Note_on_c, 0, 67, 48
2, 14312, Note_on_c, 0, 69, 44
2, 14313, Note_on_c, 0, 67, 0
2, 14317, Note_on_c, 0, 70, 42
2, 14318, Note_on_c, 0, 69, 0
2, 14322, Note_on_c, 0, 69, 46
2, 14323, Note_on_c, 0, 70, 0
2, 14327, Note_on_c, 0, 70, 45
2, 14328, Note_on_c, 0, 69, 0
2, 14332, Note_on_c, 0, 69, 48
2, 14333, Note_on_c, 0, 70, 0
2, 14337, Note_on_c, 0, 70, 47
2, 14338, Note_on_c, 0, 69, 0
2, 14342, Note_on_c, 0, 69, 50
2, 14343, Note_on_c, 0, 70, 0
2, 14347, Note_on_c, 0, 70, 48
2, 14348, Note_on_c, 0, 69, 0
2, 14352, Note_on_c, 0, 69, 50
2, 14353, Note_on_c, 0, 70, 0
2, 14357, Note_on_c, 0, 70, 48
2, 14358, Note_on_c, 0, 69, 0
2, 14362, Note_on_c, 0, 69, 49
2, 14363, Note_on_c, 0, 70, 0
2, 14367, Note_on_c, 0, 70, 47
2, 14368, Note_on_c, 0, 69, 0
2, 14372, Note_on_c, 0, 69, 46
2, 14373, Note_on_c, 0, 70, 0
2, 14377, Note_on_c, 0, 70, 44
2, 14378, Note_on_c, 0, 69, 0
2, 14382, Note_on_c, 0, 69, 45
2, 14383, Note_on_c, 0, 70, 0
2, 14387, Note_on_c, 0, 67, 48
2, 14388, Note_on_c, 0, 69, 0
2, 14392, Note_on_c, 0, 69, 52
2, 14393, Note_on_c, 0, 67, 0
2, 14400, Note_on_c, 0, 69, 0
2, 14400, Note_on_c, 0, 70, 48
2, 14448, Note_on_c, 0, 70, 0
2, 14448, Note_on_c, 0, 71, 54
2, 14494, Note_on_c, 0, 71, 0
2, 14520, Note_on_c, 0, 72, 58
2, 14568, Note_on_c, 0, 72, 0
2, 14568, Note_on_c, 0, 73, 60
2, 14592, Note_on_c, 0, 73, 0
2, 14592, Note_on_c, 0, 74, 52
2, 14608, Note_on_c, 0, 74, 0
2, 14616, Note_on_c, 0, 74, 44
2, 14620, Note_on_c, 0, 74, 0
2, 14620, Note_on_c, 0, 75, 48
2, 14624, Note_on_c, 0, 75, 0
2, 14624, Note_on_c, 0, 74, 49
2, 14628, Note_on_c, 0, 74, 0
2, 14628, Note_on_c, 0, 73, 50
2, 14632, Note_on_c, 0, 73, 0
2, 14632, Note_on_c, 0, 74, 57
2, 14634, Note_on_c, 0, 74, 0
2, 14636, Note_on_c, 0, 74, 55
2, 14640, Note_on_c, 0, 74, 0
2, 14640, Note_on_c, 0, 79, 48
2, 14676, Note_on_c, 0, 79, 0
2, 14676, Note_on_c, 0, 77, 55
2, 14682, Note_on_c, 0, 77, 0
2, 14688, Note_on_c, 0, 77, 58
2, 14712, Note_on_c, 0, 77, 0
2, 14712, Note_on_c, 0, 72, 52
2, 14760, Note_on_c, 0, 72, 0
2, 14760, Note_on_c, 0, 73, 56
2, 14784, Note_on_c, 0, 73, 0
2, 14784, Note_on_c, 0, 74, 54
2, 14832, Note_on_c, 0, 74, 0
2, 14832, Note_on_c, 0, 75, 64
2, 14878, Note_on_c, 0, 75, 0
2, 14928, Note_on_c, 0, 76, 70
2, 14976, Note_on_c, 0, 76, 0
2, 14976, Note_on_c, 0, 77, 64
2, 14992, Note_on_c, 0, 77, 0
2, 15000, Note_on_c, 0, 77, 54
2, 15004, Note_on_c, 0, 77, 0
2, 15004, Note_on_c, 0, 79, 57
2, 15008, Note_on_c, 0, 79, 0
2, 15008, Note_on_c, 0, 77, 59
2, 15012, Note_on_c, 0, 77, 0
2, 15012, Note_on_c, 0, 76, 60
2, 15016, Note_on_c, 0, 76, 0
2, 15016, Note_on_c, 0, 77, 62
2, 15020, Note_on_c, 0, 77, 0
2, 15020, Note_on_c, 0, 77, 64
2, 15024, Note_on_c, 0, 77, 0
2, 15024, Note_on_c, 0, 82, 64
2, 15060, Note_on_c, 0, 82, 0
2, 15060, Note_on_c, 0, 81, 69
2, 15068, Note_on_c, 0, 81, 0
2, 15072, Note_on_c, 0, 81, 70
2, 15096, Note_on_c, 0, 81, 0
2, 15096, Note_on_c, 0, 75, 66
2, 15144, Note_on_c, 0, 75, 0
2, 15144, Note_on_c, 0, 76, 66
2, 15166, Note_on_c, 0, 76, 0
2, 15168, Note_on_c, 0, 77, 52
2, 15216, Note_on_c, 0, 77, 0
2, 15216, Note_on_c, 0, 79, 48
2, 15252, Note_on_c, 0, 79, 0
2, 15252, Note_on_c, 0, 77, 47
2, 15264, Note_on_c, 0, 77, 0
2, 15264, Note_on_c, 0, 75, 46
2, 15312, Note_on_c, 0, 75, 0
2, 15312, Note_on_c, 0, 70, 48
2, 15348, Note_on_c, 0, 70, 0
2, 15348, Note_on_c, 0, 72, 50
2, 15360, Note_on_c, 0, 72, 0
2, 15360, Note_on_c, 0, 74, 48
2, 15390, Note_on_c, 0, 74, 0
2, 15390, Note_on_c, 0, 74, 42
2, 15394, Note_on_c, 0, 74, 0
2, 15396, Note_on_c, 0, 74, 42
2, 15402, Note_on_c, 0, 74, 0
2, 15402, Note_on_c, 0, 77, 46
2, 15408, Note_on_c, 0, 77, 0
2, 15408, Note_on_c, 0, 75, 48
2, 15432, Note_on_c, 0, 75, 0
2, 15444, Note_on_c, 0, 74, 44
2, 15456, Note_on_c, 0, 74, 0
2, 15456, Note_on_c, 0, 72, 40
2, 15502, Note_on_c, 0, 72, 0
2, 15504, Note_on_c, 0, 67, 44
2, 15540, Note_on_c, 0, 67, 0
2, 15540, Note_on_c, 0, 69, 42
2, 15552, Note_on_c, 0, 69, 0
2, 15552, Note_on_c, 0, 70, 40
2, 15600, Note_on_c, 0, 70, 0
2, 15600, Note_on_c, 0, 69, 55
2, 15636, Note_on_c, 0, 69, 0
2, 15636, Note_on_c, 0, 70, 56
2, 15648, Note_on_c, 0, 70, 0
2, 15648, Note_on_c, 0, 72, 58
2, 15678, Note_on_c, 0, 72, 0
2, 15678, Note_on_c, 0, 72, 54
2, 15684, Note_on_c, 0, 72, 0
2, 15684, Note_on_c, 0, 74, 56
2, 15690, Note_on_c, 0, 74, 0
2, 15690, Note_on_c, 0, 72, 56
2, 15696, Note_on_c, 0, 72, 0
2, 15696, Note_on_c, 0, 71, 56
2, 15708, Note_on_c, 0, 71, 0
2, 15708, Note_on_c, 0, 72, 62
2, 15720, Note_on_c, 0, 72, 0
2, 15720, Note_on_c, 0, 74, 65
2, 15732, Note_on_c, 0, 74, 0
2, 15732, Note_on_c, 0, 77, 60
2, 15736, Note_on_c, 0, 77, 0
2, 15736, Note_on_c, 0, 75, 62
2, 15744, Note_on_c, 0, 75, 0
2, 15744, Note_on_c, 0, 74, 64
2, 15768, Note_on_c, 0, 62, 60
2, 15790, Note_on_c, 0, 74, 0
2, 15792, Note_on_c, 0, 74, 66
2, 15864, Note_on_c, 0, 74, 0
2, 15864, Note_on_c, 0, 74, 62
2, 15888, Note_on_c, 0, 74, 0
2, 15888, Note_on_c, 0, 74, 62
2, 15898, Note_on_c, 0, 74, 0
2, 15904, Note_on_c, 0, 74, 67
2, 15914, Note_on_c, 0, 74, 0
2, 15920, Note_on_c, 0, 74, 66
2, 15932, Note_on_c, 0, 74, 0
2, 15936, Note_on_c, 0, 62, 0
2, 15936, Note_on_c, 0, 74, 60
2, 15984, Note_on_c, 0, 74, 0
2, 15984, Note_on_c, 0, 72, 60
2, 16020, Note_on_c, 0, 72, 0
2, 16020, Note_on_c, 0, 70, 54
2, 16023, Note_on_c, 0, 70, 0
2, 16023, Note_on_c, 0, 69, 54
2, 16026, Note_on_c, 0, 69, 0
2, 16026, Note_on_c, 0, 70, 52
2, 16029, Note_on_c, 0, 70, 0
2, 16029, Note_on_c, 0, 72, 52
2, 16032, Note_on_c, 0, 72, 0
2, 16032, Note_on_c, 0, 70, 54
2, 16056, Note_on_c, 0, 70, 0
2, 16056, Note_on_c, 0, 69, 45
2, 16078, Note_on_c, 0, 69, 0
2, 16152, Note_on_c, 0, 70, 52
2, 16158, Note_on_c, 0, 70, 0
2, 16164, Note_on_c, 0, 70, 50
2, 16168, Note_on_c, 0, 70, 0
2, 16168, Note_on_c, 0, 72, 52
2, 16172, Note_on_c, 0, 72, 0
2, 16172, Note_on_c, 0, 70, 50
2, 16176, Note_on_c, 0, 70, 0
2, 16176, Note_on_c, 0, 70, 50
2, 16192, Note_on_c, 0, 70, 0
2, 16192, Note_on_c, 0, 69, 55
2, 16208, Note_on_c, 0, 69, 0
2, 16208, Note_on_c, 0, 67, 54
2, 16224, Note_on_c, 0, 67, 0
2, 16224, Note_on_c, 0, 66, 50
2, 16272, Note_on_c, 0, 66, 0
2, 16320, Note_on_c, 0, 67, 55
2, 16368, Note_on_c, 0, 67, 0
2, 16368, Note_on_c, 0, 69, 54
2, 16392, Note_on_c, 0, 69, 0
2, 16392, Note_on_c, 0, 70, 56
2, 16416, Note_on_c, 0, 70, 0
2, 16416, Note_on_c, 0, 72, 60
2, 16434, Note_on_c, 0, 72, 0
2, 16440, Note_on_c, 0, 72, 50
2, 16444, Note_on_c, 0, 72, 0
2, 16444, Note_on_c, 0, 72, 52
2, 16448, Note_on_c, 0, 72, 0
2, 16448, Note_on_c, 0, 74, 54
2, 16452, Note_on_c, 0, 74, 0
2, 16452, Note_on_c, 0, 72, 54
2, 16456, Note_on_c, 0, 72, 0
2, 16456, Note_on_c, 0, 71, 54
2, 16460, Note_on_c, 0, 71, 0
2, 16460, Note_on_c, 0, 72, 56
2, 16464, Note_on_c, 0, 72, 0
2, 16464, Note_on_c, 0, 74, 58
2, 16500, Note_on_c, 0, 74, 0
2, 16500, Note_on_c, 0, 75, 62
2, 16512, Note_on_c, 0, 75, 0
2, 16512, Note_on_c, 0, 75, 62
2, 16536, Note_on_c, 0, 75, 0
2, 16536, Note_on_c, 0, 69, 58
2, 16558, Note_on_c, 0, 69, 0
2, 16584, Note_on_c, 0, 81, 72
2, 16614, Note_on_c, 0, 81, 0
2, 16614, Note_on_c, 0, 80, 56
2, 16620, Note_on_c, 0, 80, 0
2, 16620, Note_on_c, 0, 79, 55
2, 16626, Note_on_c, 0, 79, 0
2, 16626, Note_on_c, 0, 78, 54
2, 16632, Note_on_c, 0, 78, 0
2, 16632, Note_on_c, 0, 77, 52
2, 16638, Note_on_c, 0, 77, 0
2, 16638, Note_on_c, 0, 76, 50
2, 16644, Note_on_c, 0, 76, 0
2, 16644, Note_on_c, 0, 75, 48
2, 16650, Note_on_c, 0, 75, 0
2, 16650, Note_on_c, 0, 72, 44
2, 16656, Note_on_c, 0, 72, 0
2, 16656, Note_on_c, 0, 69, 40
2, 16662, Note_on_c, 0, 69, 0
2, 16662, Note_on_c, 0, 66, 36
2, 16668, Note_on_c, 0, 66, 0
2, 16668, Note_on_c, 0, 64, 44
2, 16674, Note_on_c, 0, 64, 0
2, 16674, Note_on_c, 0, 65, 38
2, 16680, Note_on_c, 0, 65, 0
2, 16680, Note_on_c, 0, 67, 40
2, 16686, Note_on_c, 0, 67, 0
2, 16686, Note_on_c, 0, 69, 42
2, 16692, Note_on_c, 0, 69, 0
2, 16692, Note_on_c, 0, 70, 40
2, 16698, Note_on_c, 0, 70, 0
2, 16698, Note_on_c, 0, 72, 46
2, 16704, Note_on_c, 0, 72, 0
2, 16704, Note_on_c, 0, 74, 44
2, 16736, Note_on_c, 0, 74, 0
2, 16736, Note_on_c, 0, 61, 36
2, 16738, Note_on_c, 0, 61, 0
2, 16740, Note_on_c, 0, 62, 40
2, 16744, Note_on_c, 0, 62, 0
2, 16744, Note_on_c, 0, 65, 36
2, 16748, Note_on_c, 0, 65, 0
2, 16748, Note_on_c, 0, 70, 34
2, 16752, Note_on_c, 0, 70, 0
2, 16752, Note_on_c, 0, 74, 46
2, 16768, Note_on_c, 0, 74, 0
2, 16768, Note_on_c, 0, 72, 48
2, 16784, Note_on_c, 0, 72, 0
2, 16784, Note_on_c, 0, 70, 45
2, 16788, Note_on_c, 0, 70, 0
2, 16788, Note_on_c, 0, 60, 38
2, 16792, Note_on_c, 0, 62, 36
2, 16796, Note_on_c, 0, 66, 36
2, 16800, Note_on_c, 0, 70, 48
2, 16824, Note_on_c, 0, 70, 0
2, 16824, Note_on_c, 0, 69, 40
2, 16846, Note_on_c, 0, 69, 0
2, 16846, Note_on_c, 0, 66, 0
2, 16846, Note_on_c, 0, 62, 0
2, 16846, Note_on_c, 0, 60, 0
2, 16884, Note_on_c, 0, 58, 40
2, 16888, Note_on_c, 0, 58, 0
2, 16888, Note_on_c, 0, 62, 38
2, 16892, Note_on_c, 0, 62, 0
2, 16892, Note_on_c, 0, 67, 40
2, 16896, Note_on_c, 0, 67, 0
2, 16896, Note_on_c, 0, 70, 48
2, 16944, Note_on_c, 0, 70, 0
2, 16944, Note_on_c, 0, 69, 46
2, 16980, Note_on_c, 0, 69, 0
2, 16980, Note_on_c, 0, 67, 42
2, 16992, Note_on_c, 0, 67, 0
2, 16992, Note_on_c, 0, 66, 44
2, 17086, Note_on_c, 0, 66, 0
2, 17088, Note_on_c, 0, 63, 44
2, 17088, Note_on_c, 0, 67, 50
2, 17128, Note_on_c, 0, 67, 0
2, 17128, Note_on_c, 0, 63, 0
2, 17136, Note_on_c, 0, 62, 34
2, 17136, Note_on_c, 0, 69, 48
2, 17172, Note_on_c, 0, 69, 0
2, 17172, Note_on_c, 0, 70, 45
2, 17176, Note_on_c, 0, 62, 0
2, 17184, Note_on_c, 0, 70, 0
2, 17184, Note_on_c, 0, 60, 34
2, 17184, Note_on_c, 0, 67, 38
2, 17184, Note_on_c, 0, 72, 48
2, 17224, Note_on_c, 0, 72, 0
2, 17224, Note_on_c, 0, 67, 0
2, 17232, Note_on_c, 0, 66, 32
2, 17232, Note_on_c, 0, 74, 48
2, 17272, Note_on_c, 0, 74, 0
2, 17272, Note_on_c, 0, 66, 0
2, 17280, Note_on_c, 0, 67, 42
2, 17281, Note_on_c, 0, 60, 0
2, 17328, Note_on_c, 0, 59, 30
2, 17328, Note_on_c, 0, 65, 36
2, 17376, Note_on_c, 0, 65, 0
2, 17376, Note_on_c, 0, 59, 0
2, 17376, Note_on_c, 0, 60, 28
2, 17376, Note_on_c, 0, 64, 32
2, 17424, Note_on_c, 0, 64, 0
2, 17424, Note_on_c, 0, 60, 0
2, 17424, Note_on_c, 0, 67, 0
2, 17424, Note_on_c, 0, 63, 24
2, 17424, Note_on_c, 0, 67, 28
2, 17424, Note_on_c, 0, 72, 44
2, 17448, Note_on_c, 0, 72, 0
2, 17448, Note_on_c, 0, 71, 35
2, 17470, Note_on_c, 0, 71, 0
2, 17472, Note_on_c, 0, 63, 0
2, 17472, Note_on_c, 0, 62, 28
2, 17472, Note_on_c, 0, 71, 38
2, 17524, Note_on_c, 0, 62, 0
2, 17536, Note_on_c, 0, 71, 0
2, 17808, Note_on_c, 0, 67, 0
2, 17856, End_track
3, 0, Start_track
3, 0, Title_t, "LEFT HAND"
3, 0, MIDI_port, 0
3, 192, Note_on_c, 0, 43, 42
3, 232, Note_on_c, 0, 43, 0
3, 240, Note_on_c, 0, 50, 32
3, 240, Note_on_c, 0, 62, 38
3, 280, Note_on_c, 0, 62, 0
3, 280, Note_on_c, 0, 50, 0
3, 288, Note_on_c, 0, 54, 32
3, 288, Note_on_c, 0, 60, 36
3, 288, Note_on_c, 0, 63, 38
3, 328, Note_on_c, 0, 63, 0
3, 328, Note_on_c, 0, 60, 0
3, 328, Note_on_c, 0, 54, 0
3, 336, Note_on_c, 0, 50, 30
3, 336, Note_on_c, 0, 62, 36
3, 376, Note_on_c, 0, 62, 0
3, 376, Note_on_c, 0, 50, 0
3, 384, Note_on_c, 0, 55, 30
3, 384, Note_on_c, 0, 58, 34
3, 384, Note_on_c, 0, 63, 36
3, 424, Note_on_c, 0, 63, 0
3, 424, Note_on_c, 0, 58, 0
3, 424, Note_on_c, 0, 55, 0
3, 432, Note_on_c, 0, 50, 30
3, 432, Note_on_c, 0, 62, 36
3, 472, Note_on_c, 0, 62, 0
3, 472, Note_on_c, 0, 50, 0
3, 480, Note_on_c, 0, 57, 30
3, 480, Note_on_c, 0, 60, 34
3, 480, Note_on_c, 0, 63, 36
3, 520, Note_on_c, 0, 63, 0
3, 520, Note_on_c, 0, 60, 0
3, 520, Note_on_c, 0, 57, 0
3, 528, Note_on_c, 0, 50, 28
3, 528, Note_on_c, 0, 62, 34
3, 568, Note_on_c, 0, 62, 0
3, 568, Note_on_c, 0, 50, 0
3, 576, Note_on_c, 0, 43, 42
3, 616, Note_on_c, 0, 43, 0
3, 624, Note_on_c, 0, 55, 32
3, 624, Note_on_c, 0, 58, 36
3, 624, Note_on_c, 0, 62, 38
3, 664, Note_on_c, 0, 62, 0
3, 664, Note_on_c, 0, 58, 0
3, 664, Note_on_c, 0, 55, 0
3, 672, Note_on_c, 0, 36, 40
3, 712, Note_on_c, 0, 36, 0
3, 720, Note_on_c, 0, 55, 30
3, 720, Note_on_c, 0, 60, 34
3, 720, Note_on_c, 0, 63, 36
3, 720, Note_on_c, 0, 67, 40
3, 760, Note_on_c, 0, 67, 0
3, 760, Note_on_c, 0, 63, 0
3, 760, Note_on_c, 0, 60, 0
3, 760, Note_on_c, 0, 55, 0
3, 768, Note_on_c, 0, 41, 44
3, 808, Note_on_c, 0, 41, 0
3, 816, Note_on_c, 0, 63, 44
3, 816, Note_on_c, 0, 67, 48
3, 864, Note_on_c, 0, 67, 0
3, 864, Note_on_c, 0, 63, 0
3, 864, Note_on_c, 0, 62, 44
3, 864, Note_on_c, 0, 65, 48
3, 912, Note_on_c, 0, 65, 0
3, 912, Note_on_c, 0, 62, 0
3, 912, Note_on_c, 0, 60, 34
3, 912, Note_on_c, 0, 63, 38
3, 952, Note_on_c, 0, 63, 0
3, 952, Note_on_c, 0, 60, 0
3, 960, Note_on_c, 0, 34, 34
3, 960, Note_on_c, 0, 46, 34
3, 1000, Note_on_c, 0, 46, 0
3, 1000, Note_on_c, 0, 34, 0
3, 1008, Note_on_c, 0, 53, 38
3, 1048, Note_on_c, 0, 53, 0
3, 1056, Note_on_c, 0, 38, 34
3, 1096, Note_on_c, 0, 38, 0
3, 1104, Note_on_c, 0, 50, 44
3, 1152, Note_on_c, 0, 43, 42
3, 1192, Note_on_c, 0, 50, 0
3, 1192, Note_on_c, 0, 43, 0
3, 1200, Note_on_c, 0, 50, 30
3, 1200, Note_on_c, 0, 62, 36
3, 1240, Note_on_c, 0, 62, 0
3, 1240, Note_on_c, 0, 50, 0
3, 1248, Note_on_c, 0, 57, 32
3, 1248, Note_on_c, 0, 60, 34
3, 1248, Note_on_c, 0, 63, 36
3, 1288, Note_on_c, 0, 63, 0
3, 1288, Note_on_c, 0, 60, 0
3, 1288, Note_on_c, 0, 57, 0
3, 1296, Note_on_c, 0, 50, 26
3, 1296, Note_on_c, 0, 62, 32
3, 1336, Note_on_c, 0, 62, 0
3, 1336, Note_on_c, 0, 50, 0
3, 1344, Note_on_c, 0, 51, 28
3, 1344, Note_on_c, 0, 58, 34
3, 1384, Note_on_c, 0, 58, 0
3, 1384, Note_on_c, 0, 51, 0
3, 1392, Note_on_c, 0, 46, 26
3, 1392, Note_on_c, 0, 55, 32
3, 1432, Note_on_c, 0, 55, 0
3, 1432, Note_on_c, 0, 46, 0
3, 1440, Note_on_c, 0, 45, 24
3, 1440, Note_on_c, 0, 51, 28
3, 1440, Note_on_c, 0, 57, 32
3, 1480, Note_on_c, 0, 51, 0
3, 1480, Note_on_c, 0, 45, 0
3, 1488, Note_on_c, 0, 50, 28
3, 1528, Note_on_c, 0, 57, 0
3, 1536, Note_on_c, 0, 43, 40
3, 1576, Note_on_c, 0, 50, 0
3, 1576, Note_on_c, 0, 43, 0
3, 1584, Note_on_c, 0, 55, 28
3, 1584, Note_on_c, 0, 62, 32
3, 1624, Note_on_c, 0, 62, 0
3, 1624, Note_on_c, 0, 55, 0
3, 1632, Note_on_c, 0, 41, 38
3, 1672, Note_on_c, 0, 41, 0
3, 1680, Note_on_c, 0, 53, 28
3, 1680, Note_on_c, 0, 60, 30
3, 1680, Note_on_c, 0, 63, 32
3, 1680, Note_on_c, 0, 65, 34
3, 1724, Note_on_c, 0, 65, 0
3, 1724, Note_on_c, 0, 63, 0
3, 1724, Note_on_c, 0, 60, 0
3, 1724, Note_on_c, 0, 53, 0
3, 1728, Note_on_c, 0, 58, 28
3, 1728, Note_on_c, 0, 62, 32
3, 1768, Note_on_c, 0, 62, 0
3, 1768, Note_on_c, 0, 58, 0
3, 1776, Note_on_c, 0, 53, 30
3, 1776, Note_on_c, 0, 65, 34
3, 1816, Note_on_c, 0, 65, 0
3, 1824, Note_on_c, 0, 57, 28
3, 1824, Note_on_c, 0, 63, 32
3, 1864, Note_on_c, 0, 63, 0
3, 1864, Note_on_c, 0, 57, 0
3, 1864, Note_on_c, 0, 53, 0
3, 1872, Note_on_c, 0, 53, 34
3, 1872, Note_on_c, 0, 65, 38
3, 1912, Note_on_c, 0, 65, 0
3, 1920, Note_on_c, 0, 58, 36
3, 1920, Note_on_c, 0, 62, 38
3, 1960, Note_on_c, 0, 62, 0
3, 1960, Note_on_c, 0, 58, 0
3, 1960, Note_on_c, 0, 53, 0
3, 1968, Note_on_c, 0, 53, 30
3, 1968, Note_on_c, 0, 65, 34
3, 2008, Note_on_c, 0, 65, 0
3, 2016, Note_on_c, 0, 57, 34
3, 2016, Note_on_c, 0, 63, 38
3, 2056, Note_on_c, 0, 63, 0
3, 2056, Note_on_c, 0, 57, 0
3, 2056, Note_on_c, 0, 53, 0
3, 2064, Note_on_c, 0, 53, 32
3, 2064, Note_on_c, 0, 65, 36
3, 2104, Note_on_c, 0, 53, 0
3, 2112, Note_on_c, 0, 58, 32
3, 2112, Note_on_c, 0, 62, 36
3, 2152, Note_on_c, 0, 65, 0
3, 2160, Note_on_c, 0, 67, 40
3, 2200, Note_on_c, 0, 62, 0
3, 2200, Note_on_c, 0, 58, 0
3, 2208, Note_on_c, 0, 57, 42
3, 2208, Note_on_c, 0, 61, 46
3, 2248, Note_on_c, 0, 67, 0
3, 2256, Note_on_c, 0, 67, 40
3, 2296, Note_on_c, 0, 67, 0
3, 2296, Note_on_c, 0, 61, 0
3, 2304, Note_on_c, 0, 62, 36
3, 2304, Note_on_c, 0, 65, 40
3, 2344, Note_on_c, 0, 65, 0
3, 2344, Note_on_c, 0, 62, 0
3, 2344, Note_on_c, 0, 57, 0
3, 2352, Note_on_c, 0, 57, 40
3, 2352, Note_on_c, 0, 69, 36
3, 2392, Note_on_c, 0, 69, 0
3, 2400, Note_on_c, 0, 61, 34
3, 2400, Note_on_c, 0, 67, 38
3, 2440, Note_on_c, 0, 67, 0
3, 2440, Note_on_c, 0, 61, 0
3, 2440, Note_on_c, 0, 57, 0
3, 2448, Note_on_c, 0, 57, 32
3, 2448, Note_on_c, 0, 69, 36
3, 2488, Note_on_c, 0, 69, 0
3, 2488, Note_on_c, 0, 57, 0
3, 2496, Note_on_c, 0, 50, 36
3, 2536, Note_on_c, 0, 50, 0
3, 2544, Note_on_c, 0, 57, 28
3, 2544, Note_on_c, 0, 62, 32
3, 2544, Note_on_c, 0, 65, 36
3, 2584, Note_on_c, 0, 65, 0
3, 2584, Note_on_c, 0, 62, 0
3, 2584, Note_on_c, 0, 57, 0
3, 2592, Note_on_c, 0, 51, 36
3, 2632, Note_on_c, 0, 51, 0
3, 2640, Note_on_c, 0, 55, 26
3, 2640, Note_on_c, 0, 58, 28
3, 2640, Note_on_c, 0, 63, 30
3, 2640, Note_on_c, 0, 67, 32
3, 2680, Note_on_c, 0, 67, 0
3, 2680, Note_on_c, 0, 63, 0
3, 2680, Note_on_c, 0, 58, 0
3, 2680, Note_on_c, 0, 55, 0
3, 2688, Note_on_c, 0, 46, 38
3, 2728, Note_on_c, 0, 46, 0
3, 2736, Note_on_c, 0, 53, 26
3, 2736, Note_on_c, 0, 58, 30
3, 2736, Note_on_c, 0, 62, 34
3, 2776, Note_on_c, 0, 62, 0
3, 2776, Note_on_c, 0, 58, 0
3, 2776, Note_on_c, 0, 53, 0
3, 2784, Note_on_c, 0, 48, 34
3, 2824, Note_on_c, 0, 48, 0
3, 2832, Note_on_c, 0, 51, 24
3, 2832, Note_on_c, 0, 55, 28
3, 2832, Note_on_c, 0, 63, 32
3, 2872, Note_on_c, 0, 63, 0
3, 2872, Note_on_c, 0, 55, 0
3, 2872, Note_on_c, 0, 51, 0
3, 2880, Note_on_c, 0, 43, 36
3, 2920, Note_on_c, 0, 43, 0
3, 2928, Note_on_c, 0, 55, 28
3, 2928, Note_on_c, 0, 58, 32
3, 2928, Note_on_c, 0, 62, 36
3, 2968, Note_on_c, 0, 62, 0
3, 2968, Note_on_c, 0, 58, 0
3, 2968, Note_on_c, 0, 55, 0
3, 2976, Note_on_c, 0, 39, 42
3, 3016, Note_on_c, 0, 39, 0
3, 3024, Note_on_c, 0, 55, 34
3, 3024, Note_on_c, 0, 60, 38
3, 3024, Note_on_c, 0, 67, 42
3, 3064, Note_on_c, 0, 67, 0
3, 3064, Note_on_c, 0, 60, 0
3, 3064, Note_on_c, 0, 55, 0
3, 3072, Note_on_c, 0, 38, 42
3, 3096, Note_on_c, 0, 38, 0
3, 3120, Note_on_c, 0, 57, 38
3, 3120, Note_on_c, 0, 66, 44
3, 3168, Note_on_c, 0, 66, 0
3, 3168, Note_on_c, 0, 57, 0
3, 3168, Note_on_c, 0, 58, 46
3, 3168, Note_on_c, 0, 67, 52
3, 3216, Note_on_c, 0, 67, 0
3, 3216, Note_on_c, 0, 58, 0
3, 3216, Note_on_c, 0, 59, 44
3, 3216, Note_on_c, 0, 68, 50
3, 3237, Note_on_c, 0, 68, 0
3, 3239, Note_on_c, 0, 59, 0
3, 3239, Note_on_c, 0, 60, 40
3, 3239, Note_on_c, 0, 69, 46
3, 3258, Note_on_c, 0, 69, 0
3, 3258, Note_on_c, 0, 60, 0
3, 3264, Note_on_c, 0, 31, 42
3, 3312, Note_on_c, 0, 31, 0
3, 3312, Note_on_c, 0, 50, 32
3, 3312, Note_on_c, 0, 62, 38
3, 3360, Note_on_c, 0, 62, 0
3, 3360, Note_on_c, 0, 50, 0
3, 3360, Note_on_c, 0, 54, 34
3, 3360, Note_on_c, 0, 60, 38
3, 3360, Note_on_c, 0, 63, 40
3, 3408, Note_on_c, 0, 63, 0
3, 3408, Note_on_c, 0, 60, 0
3, 3408, Note_on_c, 0, 54, 0
3, 3408, Note_on_c, 0, 50, 34
3, 3408, Note_on_c, 0, 62, 40
3, 3454, Note_on_c, 0, 62, 0
3, 3454, Note_on_c, 0, 50, 0
3, 3456, Note_on_c, 0, 55, 36
3, 3456, Note_on_c, 0, 58, 40
3, 3456, Note_on_c, 0, 63, 44
3, 3504, Note_on_c, 0, 63, 0
3, 3504, Note_on_c, 0, 58, 0
3, 3504, Note_on_c, 0, 55, 0
3, 3504, Note_on_c, 0, 50, 34
3, 3504, Note_on_c, 0, 62, 40
3, 3552, Note_on_c, 0, 62, 0
3, 3552, Note_on_c, 0, 50, 0
3, 3552, Note_on_c, 0, 57, 34
3, 3552, Note_on_c, 0, 60, 38
3, 3552, Note_on_c, 0, 63, 42
3, 3600, Note_on_c, 0, 63, 0
3, 3600, Note_on_c, 0, 60, 0
3, 3600, Note_on_c, 0, 57, 0
3, 3600, Note_on_c, 0, 50, 30
3, 3600, Note_on_c, 0, 62, 36
3, 3646, Note_on_c, 0, 62, 0
3, 3646, Note_on_c, 0, 50, 0
3, 3648, Note_on_c, 0, 43, 38
3, 3694, Note_on_c, 0, 43, 0
3, 3696, Note_on_c, 0, 50, 30
3, 3696, Note_on_c, 0, 55, 32
3, 3696, Note_on_c, 0, 58, 34
3, 3696, Note_on_c, 0, 62, 36
3, 3742, Note_on_c, 0, 62, 0
3, 3742, Note_on_c, 0, 58, 0
3, 3742, Note_on_c, 0, 55, 0
3, 3742, Note_on_c, 0, 50, 0
3, 3744, Note_on_c, 0, 36, 40
3, 3790, Note_on_c, 0, 36, 0
3, 3792, Note_on_c, 0, 55, 32
3, 3792, Note_on_c, 0, 60, 34
3, 3792, Note_on_c, 0, 63, 36
3, 3792, Note_on_c, 0, 67, 38
3, 3838, Note_on_c, 0, 67, 0
3, 3838, Note_on_c, 0, 63, 0
3, 3838, Note_on_c, 0, 60, 0
3, 3838, Note_on_c, 0, 55, 0
3, 3840, Note_on_c, 0, 41, 46
3, 3888, Note_on_c, 0, 41, 0
3, 3888, Note_on_c, 0, 63, 42
3, 3888, Note_on_c, 0, 67, 46
3, 3936, Note_on_c, 0, 67, 0
3, 3936, Note_on_c, 0, 63, 0
3, 3936, Note_on_c, 0, 62, 46
3, 3936, Note_on_c, 0, 65, 50
3, 3984, Note_on_c, 0, 65, 0
3, 3984, Note_on_c, 0, 62, 0
3, 3984, Note_on_c, 0, 60, 38
3, 3984, Note_on_c, 0, 63, 42
3, 4030, Note_on_c, 0, 63, 0
3, 4030, Note_on_c, 0, 60, 0
3, 4032, Note_on_c, 0, 34, 34
3, 4032, Note_on_c, 0, 46, 34
3, 4072, Note_on_c, 0, 46, 0
3, 4072, Note_on_c, 0, 34, 0
3, 4080, Note_on_c, 0, 53, 38
3, 4120, Note_on_c, 0, 53, 0
3, 4128, Note_on_c, 0, 38, 34
3, 4168, Note_on_c, 0, 38, 0
3, 4176, Note_on_c, 0, 50, 44
3, 4224, Note_on_c, 0, 43, 42
3, 4264, Note_on_c, 0, 50, 0
3, 4264, Note_on_c, 0, 43, 0
3, 4272, Note_on_c, 0, 50, 30
3, 4272, Note_on_c, 0, 62, 36
3, 4312, Note_on_c, 0, 62, 0
3, 4312, Note_on_c, 0, 50, 0
3, 4320, Note_on_c, 0, 57, 32
3, 4320, Note_on_c, 0, 60, 34
3, 4320, Note_on_c, 0, 63, 36
3, 4360, Note_on_c, 0, 63, 0
3, 4360, Note_on_c, 0, 60, 0
3, 4360, Note_on_c, 0, 57, 0
3, 4368, Note_on_c, 0, 50, 26
3, 4368, Note_on_c, 0, 62, 32
3, 4408, Note_on_c, 0, 62, 0
3, 4408, Note_on_c, 0, 50, 0
3, 4416, Note_on_c, 0, 51, 32
3, 4416, Note_on_c, 0, 58, 38
3, 4456, Note_on_c, 0, 58, 0
3, 4456, Note_on_c, 0, 51, 0
3, 4464, Note_on_c, 0, 46, 26
3, 4464, Note_on_c, 0, 55, 32
3, 4504, Note_on_c, 0, 55, 0
3, 4504, Note_on_c, 0, 46, 0
3, 4512, Note_on_c, 0, 45, 24
3, 4512, Note_on_c, 0, 51, 28
3, 4512, Note_on_c, 0, 57, 32
3, 4552, Note_on_c, 0, 51, 0
3, 4552, Note_on_c, 0, 45, 0
3, 4560, Note_on_c, 0, 50, 28
3, 4600, Note_on_c, 0, 57, 0
3, 4608, Note_on_c, 0, 43, 40
3, 4648, Note_on_c, 0, 50, 0
3, 4648, Note_on_c, 0, 43, 0
3, 4656, Note_on_c, 0, 55, 28
3, 4656, Note_on_c, 0, 62, 32
3, 4696, Note_on_c, 0, 62, 0
3, 4696, Note_on_c, 0, 55, 0
3, 4704, Note_on_c, 0, 41, 38
3, 4744, Note_on_c, 0, 41, 0
3, 4752, Note_on_c, 0, 53, 28
3, 4752, Note_on_c, 0, 60, 30
3, 4752, Note_on_c, 0, 63, 32
3, 4752, Note_on_c, 0, 65, 34
3, 4796, Note_on_c, 0, 65, 0
3, 4796, Note_on_c, 0, 63, 0
3, 4796, Note_on_c, 0, 60, 0
3, 4796, Note_on_c, 0, 53, 0
3, 4800, Note_on_c, 0, 58, 28
3, 4800, Note_on_c, 0, 62, 32
3, 4840, Note_on_c, 0, 62, 0
3, 4840, Note_on_c, 0, 58, 0
3, 4848, Note_on_c, 0, 53, 30
3, 4848, Note_on_c, 0, 65, 34
3, 4888, Note_on_c, 0, 65, 0
3, 4896, Note_on_c, 0, 57, 28
3, 4896, Note_on_c, 0, 63, 32
3, 4936, Note_on_c, 0, 63, 0
3, 4936, Note_on_c, 0, 57, 0
3, 4936, Note_on_c, 0, 53, 0
3, 4944, Note_on_c, 0, 53, 34
3, 4944, Note_on_c, 0, 65, 38
3, 4984, Note_on_c, 0, 65, 0
3, 4992, Note_on_c, 0, 58, 36
3, 4992, Note_on_c, 0, 62, 38
3, 5032, Note_on_c, 0, 62, 0
3, 5032, Note_on_c, 0, 58, 0
3, 5032, Note_on_c, 0, 53, 0
3, 5040, Note_on_c, 0, 53, 30
3, 5040, Note_on_c, 0, 65, 34
3, 5080, Note_on_c, 0, 65, 0
3, 5088, Note_on_c, 0, 57, 34
3, 5088, Note_on_c, 0, 63, 38
3, 5128, Note_on_c, 0, 63, 0
3, 5128, Note_on_c, 0, 57, 0
3, 5128, Note_on_c, 0, 53, 0
3, 5136, Note_on_c, 0, 53, 32
3, 5136, Note_on_c, 0, 65, 36
3, 5176, Note_on_c, 0, 53, 0
3, 5184, Note_on_c, 0, 58, 32
3, 5184, Note_on_c, 0, 62, 36
3, 5224, Note_on_c, 0, 65, 0
3, 5232, Note_on_c, 0, 67, 40
3, 5272, Note_on_c, 0, 62, 0
3, 5272, Note_on_c, 0, 58, 0
3, 5280, Note_on_c, 0, 57, 42
3, 5280, Note_on_c, 0, 61, 46
3, 5320, Note_on_c, 0, 67, 0
3, 5328, Note_on_c, 0, 67, 40
3, 5368, Note_on_c, 0, 67, 0
3, 5368, Note_on_c, 0, 61, 0
3, 5376, Note_on_c, 0, 62, 36
3, 5376, Note_on_c, 0, 65, 40
3, 5416, Note_on_c, 0, 65, 0
3, 5416, Note_on_c, 0, 62, 0
3, 5416, Note_on_c, 0, 57, 0
3, 5424, Note_on_c, 0, 57, 40
3, 5424, Note_on_c, 0, 69, 36
3, 5464, Note_on_c, 0, 69, 0
3, 5472, Note_on_c, 0, 61, 34
3, 5472, Note_on_c, 0, 67, 38
3, 5512, Note_on_c, 0, 67, 0
3, 5512, Note_on_c, 0, 61, 0
3, 5512, Note_on_c, 0, 57, 0
3, 5520, Note_on_c, 0, 57, 32
3, 5520, Note_on_c, 0, 69, 36
3, 5560, Note_on_c, 0, 69, 0
3, 5560, Note_on_c, 0, 57, 0
3, 5568, Note_on_c, 0, 50, 36
3, 5608, Note_on_c, 0, 50, 0
3, 5616, Note_on_c, 0, 57, 28
3, 5616, Note_on_c, 0, 62, 32
3, 5616, Note_on_c, 0, 65, 36
3, 5656, Note_on_c, 0, 65, 0
3, 5656, Note_on_c, 0, 62, 0
3, 5656, Note_on_c, 0, 57, 0
3, 5664, Note_on_c, 0, 51, 36
3, 5704, Note_on_c, 0, 51, 0
3, 5712, Note_on_c, 0, 55, 26
3, 5712, Note_on_c, 0, 58, 28
3, 5712, Note_on_c, 0, 63, 30
3, 5712, Note_on_c, 0, 67, 32
3, 5752, Note_on_c, 0, 67, 0
3, 5752, Note_on_c, 0, 63, 0
3, 5752, Note_on_c, 0, 58, 0
3, 5752, Note_on_c, 0, 55, 0
3, 5760, Note_on_c, 0, 46, 38
3, 5800, Note_on_c, 0, 46, 0
3, 5808, Note_on_c, 0, 53, 26
3, 5808, Note_on_c, 0, 58, 30
3, 5808, Note_on_c, 0, 62, 34
3, 5848, Note_on_c, 0, 62, 0
3, 5848, Note_on_c, 0, 58, 0
3, 5848, Note_on_c, 0, 53, 0
3, 5856, Note_on_c, 0, 48, 34
3, 5896, Note_on_c, 0, 48, 0
3, 5904, Note_on_c, 0, 51, 24
3, 5904, Note_on_c, 0, 55, 28
3, 5904, Note_on_c, 0, 63, 32
3, 5944, Note_on_c, 0, 63, 0
3, 5944, Note_on_c, 0, 55, 0
3, 5944, Note_on_c, 0, 51, 0
3, 5952, Note_on_c, 0, 43, 36
3, 5992, Note_on_c, 0, 43, 0
3, 6000, Note_on_c, 0, 55, 28
3, 6000, Note_on_c, 0, 58, 32
3, 6000, Note_on_c, 0, 62, 36
3, 6040, Note_on_c, 0, 62, 0
3, 6040, Note_on_c, 0, 58, 0
3, 6040, Note_on_c, 0, 55, 0
3, 6048, Note_on_c, 0, 39, 42
3, 6088, Note_on_c, 0, 39, 0
3, 6096, Note_on_c, 0, 55, 34
3, 6096, Note_on_c, 0, 60, 38
3, 6096, Note_on_c, 0, 67, 42
3, 6136, Note_on_c, 0, 67, 0
3, 6136, Note_on_c, 0, 60, 0
3, 6136, Note_on_c, 0, 55, 0
3, 6144, Note_on_c, 0, 38, 42
3, 6168, Note_on_c, 0, 38, 0
3, 6192, Note_on_c, 0, 57, 38
3, 6192, Note_on_c, 0, 66, 44
3, 6240, Note_on_c, 0, 66, 0
3, 6240, Note_on_c, 0, 57, 0
3, 6240, Note_on_c, 0, 58, 46
3, 6240, Note_on_c, 0, 67, 52
3, 6288, Note_on_c, 0, 67, 0
3, 6288, Note_on_c, 0, 58, 0
3, 6288, Note_on_c, 0, 59, 44
3, 6288, Note_on_c, 0, 68, 50
3, 6309, Note_on_c, 0, 68, 0
3, 6311, Note_on_c, 0, 59, 0
3, 6311, Note_on_c, 0, 60, 40
3, 6311, Note_on_c, 0, 69, 46
3, 6330, Note_on_c, 0, 69, 0
3, 6330, Note_on_c, 0, 60, 0
3, 6336, Note_on_c, 0, 31, 42
3, 6384, Note_on_c, 0, 31, 0
3, 6384, Note_on_c, 0, 50, 32
3, 6384, Note_on_c, 0, 62, 38
3, 6432, Note_on_c, 0, 62, 0
3, 6432, Note_on_c, 0, 50, 0
3, 6432, Note_on_c, 0, 54, 34
3, 6432, Note_on_c, 0, 60, 38
3, 6432, Note_on_c, 0, 63, 40
3, 6480, Note_on_c, 0, 63, 0
3, 6480, Note_on_c, 0, 60, 0
3, 6480, Note_on_c, 0, 54, 0
3, 6480, Note_on_c, 0, 50, 34
3, 6480, Note_on_c, 0, 62, 40
3, 6526, Note_on_c, 0, 62, 0
3, 6526, Note_on_c, 0, 50, 0
3, 6528, Note_on_c, 0, 55, 36
3, 6528, Note_on_c, 0, 58, 40
3, 6528, Note_on_c, 0, 63, 44
3, 6576, Note_on_c, 0, 63, 0
3, 6576, Note_on_c, 0, 58, 0
3, 6576, Note_on_c, 0, 55, 0
3, 6576, Note_on_c, 0, 50, 34
3, 6576, Note_on_c, 0, 62, 40
3, 6624, Note_on_c, 0, 62, 0
3, 6624, Note_on_c, 0, 50, 0
3, 6624, Note_on_c, 0, 57, 34
3, 6624, Note_on_c, 0, 60, 38
3, 6624, Note_on_c, 0, 63, 42
3, 6672, Note_on_c, 0, 63, 0
3, 6672, Note_on_c, 0, 60, 0
3, 6672, Note_on_c, 0, 57, 0
3, 6672, Note_on_c, 0, 50, 30
3, 6672, Note_on_c, 0, 62, 36
3, 6718, Note_on_c, 0, 62, 0
3, 6718, Note_on_c, 0, 50, 0
3, 6720, Note_on_c, 0, 43, 38
3, 6766, Note_on_c, 0, 43, 0
3, 6768, Note_on_c, 0, 55, 32
3, 6768, Note_on_c, 0, 58, 34
3, 6768, Note_on_c, 0, 62, 36
3, 6814, Note_on_c, 0, 62, 0
3, 6814, Note_on_c, 0, 58, 0
3, 6814, Note_on_c, 0, 55, 0
3, 6816, Note_on_c, 0, 36, 40
3, 6862, Note_on_c, 0, 36, 0
3, 6864, Note_on_c, 0, 55, 32
3, 6864, Note_on_c, 0, 63, 36
3, 6864, Note_on_c, 0, 67, 38
3, 6910, Note_on_c, 0, 67, 0
3, 6910, Note_on_c, 0, 63, 0
3, 6910, Note_on_c, 0, 55, 0
3, 6912, Note_on_c, 0, 41, 46
3, 6960, Note_on_c, 0, 41, 0
3, 6960, Note_on_c, 0, 63, 42
3, 6960, Note_on_c, 0, 67, 48
3, 7008, Note_on_c, 0, 67, 0
3, 7008, Note_on_c, 0, 63, 0
3, 7008, Note_on_c, 0, 62, 32
3, 7008, Note_on_c, 0, 65, 36
3, 7056, Note_on_c, 0, 65, 0
3, 7056, Note_on_c, 0, 62, 0
3, 7056, Note_on_c, 0, 60, 28
3, 7056, Note_on_c, 0, 63, 32
3, 7102, Note_on_c, 0, 63, 0
3, 7102, Note_on_c, 0, 60, 0
3, 7104, Note_on_c, 0, 34, 28
3, 7104, Note_on_c, 0, 46, 32
3, 7150, Note_on_c, 0, 46, 0
3, 7150, Note_on_c, 0, 34, 0
3, 7152, Note_on_c, 0, 53, 34
3, 7198, Note_on_c, 0, 53, 0
3, 7200, Note_on_c, 0, 38, 34
3, 7246, Note_on_c, 0, 38, 0
3, 7248, Note_on_c, 0, 50, 44
3, 7296, Note_on_c, 0, 43, 34
3, 7342, Note_on_c, 0, 50, 0
3, 7342, Note_on_c, 0, 43, 0
3, 7344, Note_on_c, 0, 50, 32
3, 7344, Note_on_c, 0, 62, 36
3, 7390, Note_on_c, 0, 62, 0
3, 7390, Note_on_c, 0, 50, 0
3, 7392, Note_on_c, 0, 57, 26
3, 7392, Note_on_c, 0, 60, 30
3, 7392, Note_on_c, 0, 63, 34
3, 7438, Note_on_c, 0, 63, 0
3, 7438, Note_on_c, 0, 60, 0
3, 7438, Note_on_c, 0, 57, 0
3, 7440, Note_on_c, 0, 50, 26
3, 7440, Note_on_c, 0, 62, 30
3, 7486, Note_on_c, 0, 62, 0
3, 7486, Note_on_c, 0, 50, 0
3, 7488, Note_on_c, 0, 51, 28
3, 7488, Note_on_c, 0, 58, 34
3, 7528, Note_on_c, 0, 58, 0
3, 7528, Note_on_c, 0, 51, 0
3, 7536, Note_on_c, 0, 46, 26
3, 7536, Note_on_c, 0, 55, 32
3, 7576, Note_on_c, 0, 55, 0
3, 7576, Note_on_c, 0, 46, 0
3, 7584, Note_on_c, 0, 45, 24
3, 7584, Note_on_c, 0, 51, 28
3, 7584, Note_on_c, 0, 57, 32
3, 7624, Note_on_c, 0, 51, 0
3, 7624, Note_on_c, 0, 45, 0
3, 7632, Note_on_c, 0, 50, 28
3, 7672, Note_on_c, 0, 57, 0
3, 7680, Note_on_c, 0, 43, 40
3, 7726, Note_on_c, 0, 50, 0
3, 7728, Note_on_c, 0, 50, 32
3, 7776, Note_on_c, 0, 50, 0
3, 7776, Note_on_c, 0, 50, 30
3, 7822, Note_on_c, 0, 43, 0
3, 7824, Note_on_c, 0, 50, 0
3, 7824, Note_on_c, 0, 41, 24
3, 7824, Note_on_c, 0, 50, 28
3, 7872, Note_on_c, 0, 50, 0
3, 7872, Note_on_c, 0, 41, 0
3, 7872, Note_on_c, 0, 39, 30
3, 7920, Note_on_c, 0, 39, 0
3, 7920, Note_on_c, 0, 44, 34
3, 7968, Note_on_c, 0, 44, 0
3, 7968, Note_on_c, 0, 44, 34
3, 8016, Note_on_c, 0, 44, 0
3, 8016, Note_on_c, 0, 39, 28
3, 8064, Note_on_c, 0, 39, 0
3, 8064, Note_on_c, 0, 44, 32
3, 8112, Note_on_c, 0, 44, 0
3, 8112, Note_on_c, 0, 39, 32
3, 8160, Note_on_c, 0, 39, 0
3, 8160, Note_on_c, 0, 46, 36
3, 8208, Note_on_c, 0, 46, 0
3, 8208, Note_on_c, 0, 39, 30
3, 8256, Note_on_c, 0, 39, 0
3, 8256, Note_on_c, 0, 46, 34
3, 8304, Note_on_c, 0, 46, 0
3, 8304, Note_on_c, 0, 51, 36
3, 8352, Note_on_c, 0, 51, 0
3, 8352, Note_on_c, 0, 44, 36
3, 8400, Note_on_c, 0, 44, 0
3, 8400, Note_on_c, 0, 51, 38
3, 8448, Note_on_c, 0, 51, 0
3, 8448, Note_on_c, 0, 46, 36
3, 8496, Note_on_c, 0, 46, 0
3, 8496, Note_on_c, 0, 48, 36
3, 8544, Note_on_c, 0, 48, 0
3, 8544, Note_on_c, 0, 46, 32
3, 8592, Note_on_c, 0, 46, 0
3, 8592, Note_on_c, 0, 39, 26
3, 8640, Note_on_c, 0, 51, 32
3, 8688, Note_on_c, 0, 51, 0
3, 8688, Note_on_c, 0, 39, 0
3, 8688, Note_on_c, 0, 44, 34
3, 8736, Note_on_c, 0, 44, 0
3, 8736, Note_on_c, 0, 44, 34
3, 8784, Note_on_c, 0, 44, 0
3, 8784, Note_on_c, 0, 39, 28
3, 8832, Note_on_c, 0, 39, 0
3, 8832, Note_on_c, 0, 44, 32
3, 8880, Note_on_c, 0, 44, 0
3, 8880, Note_on_c, 0, 39, 32
3, 8928, Note_on_c, 0, 39, 0
3, 8928, Note_on_c, 0, 46, 36
3, 8976, Note_on_c, 0, 46, 0
3, 8976, Note_on_c, 0, 39, 30
3, 9024, Note_on_c, 0, 39, 0
3, 9024, Note_on_c, 0, 46, 34
3, 9072, Note_on_c, 0, 46, 0
3, 9072, Note_on_c, 0, 51, 36
3, 9120, Note_on_c, 0, 51, 0
3, 9120, Note_on_c, 0, 44, 36
3, 9168, Note_on_c, 0, 44, 0
3, 9168, Note_on_c, 0, 51, 38
3, 9216, Note_on_c, 0, 51, 0
3, 9216, Note_on_c, 0, 46, 36
3, 9264, Note_on_c, 0, 46, 0
3, 9264, Note_on_c, 0, 48, 36
3, 9312, Note_on_c, 0, 48, 0
3, 9312, Note_on_c, 0, 46, 32
3, 9360, Note_on_c, 0, 46, 0
3, 9360, Note_on_c, 0, 39, 26
3, 9408, Note_on_c, 0, 51, 28
3, 9448, Note_on_c, 0, 51, 0
3, 9448, Note_on_c, 0, 39, 0
3, 9456, Note_on_c, 0, 34, 30
3, 9456, Note_on_c, 0, 46, 30
3, 9496, Note_on_c, 0, 46, 0
3, 9496, Note_on_c, 0, 34, 0
3, 9504, Note_on_c, 0, 36, 36
3, 9504, Note_on_c, 0, 48, 36
3, 9544, Note_on_c, 0, 48, 0
3, 9544, Note_on_c, 0, 36, 0
3, 9552, Note_on_c, 0, 38, 42
3, 9552, Note_on_c, 0, 50, 42
3, 9592, Note_on_c, 0, 50, 0
3, 9592, Note_on_c, 0, 38, 0
3, 9600, Note_on_c, 0, 33, 42
3, 9600, Note_on_c, 0, 45, 42
3, 9640, Note_on_c, 0, 45, 0
3, 9640, Note_on_c, 0, 33, 0
3, 9648, Note_on_c, 0, 34, 44
3, 9648, Note_on_c, 0, 46, 44
3, 9688, Note_on_c, 0, 46, 0
3, 9688, Note_on_c, 0, 34, 0
3, 9696, Note_on_c, 0, 31, 42
3, 9696, Note_on_c, 0, 43, 42
3, 9736, Note_on_c, 0, 43, 0
3, 9736, Note_on_c, 0, 31, 0
3, 9744, Note_on_c, 0, 36, 40
3, 9744, Note_on_c, 0, 48, 40
3, 9784, Note_on_c, 0, 48, 0
3, 9784, Note_on_c, 0, 36, 0
3, 9792, Note_on_c, 0, 29, 44
3, 9792, Note_on_c, 0, 41, 44
3, 9832, Note_on_c, 0, 41, 0
3, 9832, Note_on_c, 0, 29, 0
3, 9840, Note_on_c, 0, 34, 40
3, 9840, Note_on_c, 0, 46, 40
3, 9880, Note_on_c, 0, 46, 0
3, 9880, Note_on_c, 0, 34, 0
3, 9888, Note_on_c, 0, 36, 38
3, 9888, Note_on_c, 0, 48, 38
3, 9928, Note_on_c, 0, 48, 0
3, 9928, Note_on_c, 0, 36, 0
3, 9936, Note_on_c, 0, 41, 36
3, 9936, Note_on_c, 0, 53, 36
3, 9976, Note_on_c, 0, 53, 0
3, 9976, Note_on_c, 0, 41, 0
3, 9984, Note_on_c, 0, 29, 44
3, 9984, Note_on_c, 0, 41, 44
3, 10024, Note_on_c, 0, 41, 0
3, 10024, Note_on_c, 0, 29, 0
3, 10032, Note_on_c, 0, 34, 40
3, 10032, Note_on_c, 0, 46, 40
3, 10072, Note_on_c, 0, 46, 0
3, 10072, Note_on_c, 0, 34, 0
3, 10080, Note_on_c, 0, 36, 34
3, 10080, Note_on_c, 0, 48, 34
3, 10128, Note_on_c, 0, 48, 0
3, 10128, Note_on_c, 0, 36, 0
3, 10128, Note_on_c, 0, 41, 32
3, 10176, Note_on_c, 0, 41, 0
3, 10176, Note_on_c, 0, 32, 34
3, 10176, Note_on_c, 0, 44, 34
3, 10216, Note_on_c, 0, 44, 0
3, 10216, Note_on_c, 0, 32, 0
3, 10224, Note_on_c, 0, 27, 38
3, 10224, Note_on_c, 0, 39, 38
3, 10264, Note_on_c, 0, 39, 0
3, 10264, Note_on_c, 0, 27, 0
3, 10272, Note_on_c, 0, 31, 36
3, 10272, Note_on_c, 0, 43, 36
3, 10312, Note_on_c, 0, 43, 0
3, 10312, Note_on_c, 0, 31, 0
3, 10320, Note_on_c, 0, 34, 38
3, 10320, Note_on_c, 0, 46, 38
3, 10360, Note_on_c, 0, 46, 0
3, 10360, Note_on_c, 0, 34, 0
3, 10368, Note_on_c, 0, 29, 44
3, 10368, Note_on_c, 0, 41, 44
3, 10408, Note_on_c, 0, 41, 0
3, 10408, Note_on_c, 0, 29, 0
3, 10416, Note_on_c, 0, 31, 46
3, 10416, Note_on_c, 0, 43, 46
3, 10456, Note_on_c, 0, 43, 0
3, 10456, Note_on_c, 0, 31, 0
3, 10464, Note_on_c, 0, 28, 50
3, 10464, Note_on_c, 0, 40, 50
3, 10504, Note_on_c, 0, 40, 0
3, 10504, Note_on_c, 0, 28, 0
3, 10512, Note_on_c, 0, 33, 49
3, 10512, Note_on_c, 0, 45, 49
3, 10552, Note_on_c, 0, 45, 0
3, 10552, Note_on_c, 0, 33, 0
3, 10560, Note_on_c, 0, 26, 50
3, 10560, Note_on_c, 0, 38, 50
3, 10600, Note_on_c, 0, 38, 0
3, 10600, Note_on_c, 0, 26, 0
3, 10608, Note_on_c, 0, 24, 48
3, 10608, Note_on_c, 0, 36, 48
3, 10648, Note_on_c, 0, 36, 0
3, 10648, Note_on_c, 0, 24, 0
3, 10656, Note_on_c, 0, 24, 46
3, 10656, Note_on_c, 0, 36, 46
3, 10696, Note_on_c, 0, 36, 0
3, 10696, Note_on_c, 0, 24, 0
3, 10704, Note_on_c, 0, 26, 42
3, 10704, Note_on_c, 0, 38, 42
3, 10744, Note_on_c, 0, 38, 0
3, 10744, Note_on_c, 0, 26, 0
3, 10752, Note_on_c, 0, 26, 40
3, 10752, Note_on_c, 0, 38, 40
3, 10792, Note_on_c, 0, 38, 0
3, 10792, Note_on_c, 0, 26, 0
3, 10800, Note_on_c, 0, 24, 38
3, 10800, Note_on_c, 0, 36, 38
3, 10840, Note_on_c, 0, 36, 0
3, 10840, Note_on_c, 0, 24, 0
3, 10848, Note_on_c, 0, 29, 34
3, 10848, Note_on_c, 0, 41, 34
3, 10888, Note_on_c, 0, 41, 0
3, 10888, Note_on_c, 0, 29, 0
3, 10896, Note_on_c, 0, 34, 28
3, 10896, Note_on_c, 0, 46, 28
3, 10936, Note_on_c, 0, 46, 0
3, 10936, Note_on_c, 0, 34, 0
3, 10944, Note_on_c, 0, 39, 30
3, 10984, Note_on_c, 0, 39, 0
3, 10992, Note_on_c, 0, 32, 34
3, 10992, Note_on_c, 0, 44, 34
3, 11032, Note_on_c, 0, 44, 0
3, 11032, Note_on_c, 0, 32, 0
3, 11040, Note_on_c, 0, 32, 34
3, 11040, Note_on_c, 0, 44, 34
3, 11080, Note_on_c, 0, 44, 0
3, 11080, Note_on_c, 0, 32, 0
3, 11088, Note_on_c, 0, 39, 28
3, 11136, Note_on_c, 0, 39, 0
3, 11136, Note_on_c, 0, 44, 32
3, 11176, Note_on_c, 0, 44, 0
3, 11184, Note_on_c, 0, 39, 32
3, 11232, Note_on_c, 0, 39, 0
3, 11232, Note_on_c, 0, 34, 36
3, 11232, Note_on_c, 0, 46, 36
3, 11280, Note_on_c, 0, 46, 0
3, 11280, Note_on_c, 0, 34, 0
3, 11280, Note_on_c, 0, 39, 30
3, 11328, Note_on_c, 0, 39, 0
3, 11328, Note_on_c, 0, 46, 34
3, 11376, Note_on_c, 0, 46, 0
3, 11376, Note_on_c, 0, 51, 36
3, 11424, Note_on_c, 0, 51, 0
3, 11424, Note_on_c, 0, 44, 36
3, 11472, Note_on_c, 0, 44, 0
3, 11472, Note_on_c, 0, 51, 38
3, 11520, Note_on_c, 0, 51, 0
3, 11520, Note_on_c, 0, 46, 36
3, 11568, Note_on_c, 0, 46, 0
3, 11568, Note_on_c, 0, 48, 36
3, 11616, Note_on_c, 0, 48, 0
3, 11616, Note_on_c, 0, 46, 32
3, 11664, Note_on_c, 0, 46, 0
3, 11664, Note_on_c, 0, 39, 26
3, 11712, Note_on_c, 0, 51, 32
3, 11752, Note_on_c, 0, 51, 0
3, 11752, Note_on_c, 0, 39, 0
3, 11760, Note_on_c, 0, 32, 34
3, 11760, Note_on_c, 0, 44, 34
3, 11800, Note_on_c, 0, 44, 0
3, 11800, Note_on_c, 0, 32, 0
3, 11808, Note_on_c, 0, 32, 34
3, 11808, Note_on_c, 0, 44, 34
3, 11848, Note_on_c, 0, 44, 0
3, 11848, Note_on_c, 0, 32, 0
3, 11856, Note_on_c, 0, 39, 32
3, 11856, Note_on_c, 0, 51, 32
3, 11886, Note_on_c, 0, 51, 0
3, 11886, Note_on_c, 0, 39, 0
3, 11904, Note_on_c, 0, 44, 36
3, 11952, Note_on_c, 0, 44, 0
3, 11952, Note_on_c, 0, 39, 36
3, 11992, Note_on_c, 0, 39, 0
3, 12000, Note_on_c, 0, 46, 38
3, 12048, Note_on_c, 0, 39, 30
3, 12078, Note_on_c, 0, 46, 0
3, 12078, Note_on_c, 0, 39, 0
3, 12096, Note_on_c, 0, 46, 36
3, 12144, Note_on_c, 0, 46, 0
3, 12144, Note_on_c, 0, 51, 40
3, 12192, Note_on_c, 0, 51, 0
3, 12192, Note_on_c, 0, 44, 40
3, 12240, Note_on_c, 0, 44, 0
3, 12240, Note_on_c, 0, 48, 30
3, 12276, Note_on_c, 0, 48, 0
3, 12288, Note_on_c, 0, 41, 30
3, 12288, Note_on_c, 0, 48, 30
3, 12328, Note_on_c, 0, 48, 0
3, 12328, Note_on_c, 0, 41, 0
3, 12336, Note_on_c, 0, 36, 34
3, 12336, Note_on_c, 0, 48, 34
3, 12376, Note_on_c, 0, 48, 0
3, 12376, Note_on_c, 0, 36, 0
3, 12384, Note_on_c, 0, 41, 40
3, 12384, Note_on_c, 0, 48, 40
3, 12424, Note_on_c, 0, 48, 0
3, 12424, Note_on_c, 0, 41, 0
3, 12432, Note_on_c, 0, 36, 30
3, 12432, Note_on_c, 0, 48, 30
3, 12472, Note_on_c, 0, 48, 0
3, 12472, Note_on_c, 0, 36, 0
3, 12864, Note_on_c, 0, 43, 40
3, 12904, Note_on_c, 0, 43, 0
3, 12912, Note_on_c, 0, 50, 32
3, 12912, Note_on_c, 0, 62, 38
3, 12952, Note_on_c, 0, 62, 0
3, 12952, Note_on_c, 0, 50, 0
3, 12960, Note_on_c, 0, 54, 32
3, 12960, Note_on_c, 0, 60, 36
3, 12960, Note_on_c, 0, 63, 38
3, 13000, Note_on_c, 0, 63, 0
3, 13000, Note_on_c, 0, 60, 0
3, 13000, Note_on_c, 0, 54, 0
3, 13008, Note_on_c, 0, 50, 30
3, 13008, Note_on_c, 0, 62, 36
3, 13048, Note_on_c, 0, 62, 0
3, 13048, Note_on_c, 0, 50, 0
3, 13056, Note_on_c, 0, 55, 30
3, 13056, Note_on_c, 0, 58, 34
3, 13056, Note_on_c, 0, 63, 36
3, 13096, Note_on_c, 0, 63, 0
3, 13096, Note_on_c, 0, 58, 0
3, 13096, Note_on_c, 0, 55, 0
3, 13104, Note_on_c, 0, 50, 30
3, 13104, Note_on_c, 0, 62, 36
3, 13144, Note_on_c, 0, 62, 0
3, 13144, Note_on_c, 0, 50, 0
3, 13152, Note_on_c, 0, 57, 30
3, 13152, Note_on_c, 0, 60, 34
3, 13152, Note_on_c, 0, 63, 36
3, 13192, Note_on_c, 0, 63, 0
3, 13192, Note_on_c, 0, 60, 0
3, 13192, Note_on_c, 0, 57, 0
3, 13200, Note_on_c, 0, 50, 28
3, 13200, Note_on_c, 0, 62, 34
3, 13240, Note_on_c, 0, 62, 0
3, 13240, Note_on_c, 0, 50, 0
3, 13248, Note_on_c, 0, 43, 42
3, 13288, Note_on_c, 0, 43, 0
3, 13296, Note_on_c, 0, 55, 32
3, 13296, Note_on_c, 0, 58, 36
3, 13296, Note_on_c, 0, 62, 38
3, 13336, Note_on_c, 0, 62, 0
3, 13336, Note_on_c, 0, 58, 0
3, 13336, Note_on_c, 0, 55, 0
3, 13344, Note_on_c, 0, 36, 40
3, 13384, Note_on_c, 0, 36, 0
3, 13392, Note_on_c, 0, 55, 30
3, 13392, Note_on_c, 0, 60, 34
3, 13392, Note_on_c, 0, 63, 36
3, 13392, Note_on_c, 0, 67, 40
3, 13432, Note_on_c, 0, 67, 0
3, 13432, Note_on_c, 0, 63, 0
3, 13432, Note_on_c, 0, 60, 0
3, 13432, Note_on_c, 0, 55, 0
3, 13440, Note_on_c, 0, 41, 44
3, 13480, Note_on_c, 0, 41, 0
3, 13488, Note_on_c, 0, 63, 44
3, 13488, Note_on_c, 0, 67, 48
3, 13536, Note_on_c, 0, 67, 0
3, 13536, Note_on_c, 0, 63, 0
3, 13536, Note_on_c, 0, 62, 44
3, 13536, Note_on_c, 0, 65, 48
3, 13584, Note_on_c, 0, 65, 0
3, 13584, Note_on_c, 0, 62, 0
3, 13584, Note_on_c, 0, 60, 34
3, 13584, Note_on_c, 0, 63, 38
3, 13624, Note_on_c, 0, 63, 0
3, 13624, Note_on_c, 0, 60, 0
3, 13632, Note_on_c, 0, 34, 34
3, 13632, Note_on_c, 0, 46, 34
3, 13672, Note_on_c, 0, 46, 0
3, 13672, Note_on_c, 0, 34, 0
3, 13680, Note_on_c, 0, 53, 38
3, 13720, Note_on_c, 0, 53, 0
3, 13728, Note_on_c, 0, 38, 34
3, 13768, Note_on_c, 0, 38, 0
3, 13776, Note_on_c, 0, 50, 44
3, 13824, Note_on_c, 0, 43, 42
3, 13864, Note_on_c, 0, 50, 0
3, 13864, Note_on_c, 0, 43, 0
3, 13872, Note_on_c, 0, 50, 30
3, 13872, Note_on_c, 0, 62, 36
3, 13912, Note_on_c, 0, 62, 0
3, 13912, Note_on_c, 0, 50, 0
3, 13920, Note_on_c, 0, 57, 32
3, 13920, Note_on_c, 0, 60, 34
3, 13920, Note_on_c, 0, 63, 36
3, 13960, Note_on_c, 0, 63, 0
3, 13960, Note_on_c, 0, 60, 0
3, 13960, Note_on_c, 0, 57, 0
3, 13968, Note_on_c, 0, 50, 26
3, 13968, Note_on_c, 0, 62, 32
3, 14008, Note_on_c, 0, 62, 0
3, 14008, Note_on_c, 0, 50, 0
3, 14016, Note_on_c, 0, 51, 28
3, 14016, Note_on_c, 0, 58, 34
3, 14056, Note_on_c, 0, 58, 0
3, 14056, Note_on_c, 0, 51, 0
3, 14064, Note_on_c, 0, 46, 26
3, 14064, Note_on_c, 0, 55, 32
3, 14104, Note_on_c, 0, 55, 0
3, 14104, Note_on_c, 0, 46, 0
3, 14112, Note_on_c, 0, 45, 24
3, 14112, Note_on_c, 0, 51, 28
3, 14112, Note_on_c, 0, 57, 32
3, 14152, Note_on_c, 0, 51, 0
3, 14152, Note_on_c, 0, 45, 0
3, 14160, Note_on_c, 0, 50, 28
3, 14200, Note_on_c, 0, 57, 0
3, 14208, Note_on_c, 0, 43, 40
3, 14248, Note_on_c, 0, 50, 0
3, 14248, Note_on_c, 0, 43, 0
3, 14256, Note_on_c, 0, 55, 28
3, 14256, Note_on_c, 0, 62, 32
3, 14296, Note_on_c, 0, 62, 0
3, 14296, Note_on_c, 0, 55, 0
3, 14304, Note_on_c, 0, 41, 38
3, 14344, Note_on_c, 0, 41, 0
3, 14352, Note_on_c, 0, 53, 28
3, 14352, Note_on_c, 0, 60, 30
3, 14352, Note_on_c, 0, 63, 32
3, 14352, Note_on_c, 0, 65, 34
3, 14396, Note_on_c, 0, 65, 0
3, 14396, Note_on_c, 0, 63, 0
3, 14396, Note_on_c, 0, 60, 0
3, 14396, Note_on_c, 0, 53, 0
3, 14400, Note_on_c, 0, 58, 28
3, 14400, Note_on_c, 0, 62, 32
3, 14440, Note_on_c, 0, 62, 0
3, 14440, Note_on_c, 0, 58, 0
3, 14448, Note_on_c, 0, 53, 30
3, 14448, Note_on_c, 0, 65, 34
3, 14488, Note_on_c, 0, 65, 0
3, 14496, Note_on_c, 0, 57, 28
3, 14496, Note_on_c, 0, 63, 32
3, 14536, Note_on_c, 0, 63, 0
3, 14536, Note_on_c, 0, 57, 0
3, 14536, Note_on_c, 0, 53, 0
3, 14544, Note_on_c, 0, 53, 34
3, 14544, Note_on_c, 0, 65, 38
3, 14584, Note_on_c, 0, 65, 0
3, 14592, Note_on_c, 0, 58, 36
3, 14592, Note_on_c, 0, 62, 38
3, 14632, Note_on_c, 0, 62, 0
3, 14632, Note_on_c, 0, 58, 0
3, 14632, Note_on_c, 0, 53, 0
3, 14640, Note_on_c, 0, 53, 30
3, 14640, Note_on_c, 0, 65, 34
3, 14680, Note_on_c, 0, 65, 0
3, 14688, Note_on_c, 0, 57, 34
3, 14688, Note_on_c, 0, 63, 38
3, 14728, Note_on_c, 0, 63, 0
3, 14728, Note_on_c, 0, 57, 0
3, 14728, Note_on_c, 0, 53, 0
3, 14736, Note_on_c, 0, 53, 32
3, 14736, Note_on_c, 0, 65, 36
3, 14776, Note_on_c, 0, 53, 0
3, 14784, Note_on_c, 0, 58, 32
3, 14784, Note_on_c, 0, 62, 36
3, 14824, Note_on_c, 0, 65, 0
3, 14832, Note_on_c, 0, 67, 40
3, 14872, Note_on_c, 0, 62, 0
3, 14872, Note_on_c, 0, 58, 0
3, 14880, Note_on_c, 0, 57, 42
3, 14880, Note_on_c, 0, 61, 46
3, 14920, Note_on_c, 0, 67, 0
3, 14928, Note_on_c, 0, 67, 40
3, 14968, Note_on_c, 0, 67, 0
3, 14968, Note_on_c, 0, 61, 0
3, 14976, Note_on_c, 0, 62, 36
3, 14976, Note_on_c, 0, 65, 40
3, 15016, Note_on_c, 0, 65, 0
3, 15016, Note_on_c, 0, 62, 0
3, 15016, Note_on_c, 0, 57, 0
3, 15024, Note_on_c, 0, 57, 40
3, 15024, Note_on_c, 0, 69, 36
3, 15064, Note_on_c, 0, 69, 0
3, 15072, Note_on_c, 0, 61, 34
3, 15072, Note_on_c, 0, 67, 38
3, 15112, Note_on_c, 0, 67, 0
3, 15112, Note_on_c, 0, 61, 0
3, 15112, Note_on_c, 0, 57, 0
3, 15120, Note_on_c, 0, 57, 32
3, 15120, Note_on_c, 0, 69, 36
3, 15160, Note_on_c, 0, 69, 0
3, 15160, Note_on_c, 0, 57, 0
3, 15168, Note_on_c, 0, 50, 36
3, 15208, Note_on_c, 0, 50, 0
3, 15216, Note_on_c, 0, 57, 28
3, 15216, Note_on_c, 0, 62, 32
3, 15216, Note_on_c, 0, 65, 36
3, 15256, Note_on_c, 0, 65, 0
3, 15256, Note_on_c, 0, 62, 0
3, 15256, Note_on_c, 0, 57, 0
3, 15264, Note_on_c, 0, 51, 36
3, 15304, Note_on_c, 0, 51, 0
3, 15312, Note_on_c, 0, 55, 26
3, 15312, Note_on_c, 0, 58, 28
3, 15312, Note_on_c, 0, 63, 30
3, 15312, Note_on_c, 0, 67, 32
3, 15352, Note_on_c, 0, 67, 0
3, 15352, Note_on_c, 0, 63, 0
3, 15352, Note_on_c, 0, 58, 0
3, 15352, Note_on_c, 0, 55, 0
3, 15360, Note_on_c, 0, 46, 38
3, 15400, Note_on_c, 0, 46, 0
3, 15408, Note_on_c, 0, 53, 26
3, 15408, Note_on_c, 0, 58, 30
3, 15408, Note_on_c, 0, 62, 34
3, 15448, Note_on_c, 0, 62, 0
3, 15448, Note_on_c, 0, 58, 0
3, 15448, Note_on_c, 0, 53, 0
3, 15456, Note_on_c, 0, 48, 34
3, 15496, Note_on_c, 0, 48, 0
3, 15504, Note_on_c, 0, 51, 24
3, 15504, Note_on_c, 0, 55, 28
3, 15504, Note_on_c, 0, 63, 32
3, 15544, Note_on_c, 0, 63, 0
3, 15544, Note_on_c, 0, 55, 0
3, 15544, Note_on_c, 0, 51, 0
3, 15552, Note_on_c, 0, 43, 36
3, 15592, Note_on_c, 0, 43, 0
3, 15600, Note_on_c, 0, 55, 28
3, 15600, Note_on_c, 0, 58, 32
3, 15600, Note_on_c, 0, 62, 36
3, 15640, Note_on_c, 0, 62, 0
3, 15640, Note_on_c, 0, 58, 0
3, 15640, Note_on_c, 0, 55, 0
3, 15648, Note_on_c, 0, 39, 42
3, 15688, Note_on_c, 0, 39, 0
3, 15696, Note_on_c, 0, 55, 34
3, 15696, Note_on_c, 0, 60, 38
3, 15696, Note_on_c, 0, 67, 42
3, 15736, Note_on_c, 0, 67, 0
3, 15736, Note_on_c, 0, 60, 0
3, 15736, Note_on_c, 0, 55, 0
3, 15744, Note_on_c, 0, 38, 42
3, 15768, Note_on_c, 0, 38, 0
3, 15792, Note_on_c, 0, 57, 38
3, 15792, Note_on_c, 0, 66, 44
3, 15840, Note_on_c, 0, 66, 0
3, 15840, Note_on_c, 0, 57, 0
3, 15840, Note_on_c, 0, 58, 46
3, 15840, Note_on_c, 0, 67, 52
3, 15888, Note_on_c, 0, 67, 0
3, 15888, Note_on_c, 0, 58, 0
3, 15888, Note_on_c, 0, 59, 44
3, 15888, Note_on_c, 0, 68, 50
3, 15909, Note_on_c, 0, 68, 0
3, 15911, Note_on_c, 0, 59, 0
3, 15911, Note_on_c, 0, 60, 40
3, 15911, Note_on_c, 0, 69, 46
3, 15930, Note_on_c, 0, 69, 0
3, 15930, Note_on_c, 0, 60, 0
3, 15936, Note_on_c, 0, 31, 42
3, 15984, Note_on_c, 0, 31, 0
3, 15984, Note_on_c, 0, 50, 32
3, 15984, Note_on_c, 0, 62, 38
3, 16032, Note_on_c, 0, 62, 0
3, 16032, Note_on_c, 0, 50, 0
3, 16032, Note_on_c, 0, 54, 34
3, 16032, Note_on_c, 0, 60, 38
3, 16032, Note_on_c, 0, 63, 40
3, 16080, Note_on_c, 0, 63, 0
3, 16080, Note_on_c, 0, 60, 0
3, 16080, Note_on_c, 0, 54, 0
3, 16080, Note_on_c, 0, 50, 34
3, 16080, Note_on_c, 0, 62, 40
3, 16126, Note_on_c, 0, 62, 0
3, 16126, Note_on_c, 0, 50, 0
3, 16128, Note_on_c, 0, 55, 36
3, 16128, Note_on_c, 0, 58, 40
3, 16128, Note_on_c, 0, 63, 44
3, 16176, Note_on_c, 0, 63, 0
3, 16176, Note_on_c, 0, 58, 0
3, 16176, Note_on_c, 0, 55, 0
3, 16176, Note_on_c, 0, 50, 34
3, 16176, Note_on_c, 0, 62, 40
3, 16224, Note_on_c, 0, 62, 0
3, 16224, Note_on_c, 0, 50, 0
3, 16224, Note_on_c, 0, 57, 34
3, 16224, Note_on_c, 0, 60, 38
3, 16224, Note_on_c, 0, 63, 42
3, 16272, Note_on_c, 0, 63, 0
3, 16272, Note_on_c, 0, 60, 0
3, 16272, Note_on_c, 0, 57, 0
3, 16272, Note_on_c, 0, 50, 30
3, 16272, Note_on_c, 0, 62, 36
3, 16318, Note_on_c, 0, 62, 0
3, 16318, Note_on_c, 0, 50, 0
3, 16320, Note_on_c, 0, 43, 38
3, 16366, Note_on_c, 0, 43, 0
3, 16368, Note_on_c, 0, 50, 30
3, 16368, Note_on_c, 0, 55, 32
3, 16368, Note_on_c, 0, 58, 34
3, 16368, Note_on_c, 0, 62, 36
3, 16414, Note_on_c, 0, 62, 0
3, 16414, Note_on_c, 0, 58, 0
3, 16414, Note_on_c, 0, 55, 0
3, 16414, Note_on_c, 0, 50, 0
3, 16416, Note_on_c, 0, 36, 40
3, 16462, Note_on_c, 0, 36, 0
3, 16464, Note_on_c, 0, 55, 32
3, 16464, Note_on_c, 0, 60, 34
3, 16464, Note_on_c, 0, 63, 36
3, 16464, Note_on_c, 0, 67, 38
3, 16510, Note_on_c, 0, 67, 0
3, 16510, Note_on_c, 0, 63, 0
3, 16510, Note_on_c, 0, 60, 0
3, 16510, Note_on_c, 0, 55, 0
3, 16512, Note_on_c, 0, 41, 46
3, 16560, Note_on_c, 0, 41, 0
3, 16560, Note_on_c, 0, 63, 42
3, 16560, Note_on_c, 0, 67, 48
3, 16608, Note_on_c, 0, 67, 0
3, 16608, Note_on_c, 0, 63, 0
3, 16608, Note_on_c, 0, 62, 32
3, 16608, Note_on_c, 0, 65, 36
3, 16656, Note_on_c, 0, 65, 0
3, 16656, Note_on_c, 0, 62, 0
3, 16656, Note_on_c, 0, 60, 28
3, 16656, Note_on_c, 0, 63, 32
3, 16702, Note_on_c, 0, 63, 0
3, 16702, Note_on_c, 0, 60, 0
3, 16704, Note_on_c, 0, 34, 28
3, 16704, Note_on_c, 0, 46, 32
3, 16750, Note_on_c, 0, 46, 0
3, 16750, Note_on_c, 0, 34, 0
3, 16752, Note_on_c, 0, 53, 34
3, 16798, Note_on_c, 0, 53, 0
3, 16800, Note_on_c, 0, 38, 34
3, 16846, Note_on_c, 0, 38, 0
3, 16848, Note_on_c, 0, 50, 44
3, 16896, Note_on_c, 0, 43, 34
3, 16942, Note_on_c, 0, 50, 0
3, 16942, Note_on_c, 0, 43, 0
3, 16944, Note_on_c, 0, 50, 30
3, 16944, Note_on_c, 0, 62, 34
3, 16990, Note_on_c, 0, 62, 0
3, 16990, Note_on_c, 0, 50, 0
3, 16992, Note_on_c, 0, 57, 26
3, 16992, Note_on_c, 0, 60, 30
3, 16992, Note_on_c, 0, 63, 34
3, 17038, Note_on_c, 0, 63, 0
3, 17038, Note_on_c, 0, 60, 0
3, 17038, Note_on_c, 0, 57, 0
3, 17040, Note_on_c, 0, 50, 26
3, 17040, Note_on_c, 0, 62, 30
3, 17086, Note_on_c, 0, 62, 0
3, 17086, Note_on_c, 0, 50, 0
3, 17088, Note_on_c, 0, 51, 28
3, 17088, Note_on_c, 0, 58, 34
3, 17128, Note_on_c, 0, 58, 0
3, 17128, Note_on_c, 0, 51, 0
3, 17136, Note_on_c, 0, 46, 26
3, 17136, Note_on_c, 0, 55, 32
3, 17176, Note_on_c, 0, 55, 0
3, 17176, Note_on_c, 0, 46, 0
3, 17184, Note_on_c, 0, 45, 24
3, 17184, Note_on_c, 0, 51, 28
3, 17184, Note_on_c, 0, 57, 32
3, 17224, Note_on_c, 0, 51, 0
3, 17224, Note_on_c, 0, 45, 0
3, 17232, Note_on_c, 0, 50, 28
3, 17272, Note_on_c, 0, 57, 0
3, 17280, Note_on_c, 0, 50, 0
3, 17280, Note_on_c, 0, 43, 30
3, 17328, Note_on_c, 0, 55, 28
3, 17374, Note_on_c, 0, 55, 0
3, 17374, Note_on_c, 0, 43, 0
3, 17376, Note_on_c, 0, 48, 22
3, 17376, Note_on_c, 0, 55, 26
3, 17422, Note_on_c, 0, 55, 0
3, 17422, Note_on_c, 0, 48, 0
3, 17424, Note_on_c, 0, 48, 24
3, 17424, Note_on_c, 0, 55, 28
3, 17470, Note_on_c, 0, 55, 0
3, 17470, Note_on_c, 0, 48, 0
3, 17472, Note_on_c, 0, 31, 32
3, 17496, Note_on_c, 0, 31, 0
3, 17496, Note_on_c, 0, 43, 32
3, 17508, Note_on_c, 0, 50, 32
3, 17520, Note_on_c, 0, 59, 36
3, 17532, Note_on_c, 0, 62, 32
3, 17544, Note_on_c, 0, 59, 0
3, 17544, Note_on_c, 0, 71, 33
3, 17560, Note_on_c, 0, 71, 0
3, 17568, Note_on_c, 0, 71, 30
3, 17592, Note_on_c, 0, 74, 28
3, 17616, Note_on_c, 0, 74, 0
3, 17616, Note_on_c, 0, 83, 38
3, 17656, Note_on_c, 0, 83, 0
3, 17664, Note_on_c, 0, 83, 36
3, 17808, Note_on_c, 0, 83, 0
3, 17808, Note_on_c, 0, 71, 0
3, 17808, Note_on_c, 0, 62, 0
3, 17808, Note_on_c, 0, 50, 0
3, 17808, Note_on_c, 0, 43, 0
3, 17856, End_track
4, 0, Start_track
4, 0, Title_t, "PEDAL"
4, 0, MIDI_port, 0
4, 192, Control_c, 0, 64, 0
4, 200, Control_c, 0, 64, 127
4, 290, Control_c, 0, 64, 0
4, 296, Control_c, 0, 64, 127
4, 338, Control_c, 0, 64, 0
4, 344, Control_c, 0, 64, 127
4, 384, Control_c, 0, 64, 127
4, 386, Control_c, 0, 64, 0
4, 392, Control_c, 0, 64, 127
4, 482, Control_c, 0, 64, 0
4, 488, Control_c, 0, 64, 127
4, 576, Control_c, 0, 64, 127
4, 578, Control_c, 0, 64, 0
4, 584, Control_c, 0, 64, 127
4, 674, Control_c, 0, 64, 0
4, 680, Control_c, 0, 64, 127
4, 768, Control_c, 0, 64, 127
4, 770, Control_c, 0, 64, 0
4, 776, Control_c, 0, 64, 127
4, 896, Control_c, 0, 64, 0
4, 902, Control_c, 0, 64, 127
4, 914, Control_c, 0, 64, 0
4, 920, Control_c, 0, 64, 127
4, 960, Control_c, 0, 64, 127
4, 962, Control_c, 0, 64, 0
4, 968, Control_c, 0, 64, 127
4, 1058, Control_c, 0, 64, 0
4, 1064, Control_c, 0, 64, 127
4, 1104, Control_c, 0, 64, 0
4, 1140, Control_c, 0, 64, 127
4, 1152, Control_c, 0, 64, 127
4, 1194, Control_c, 0, 64, 0
4, 1200, Control_c, 0, 64, 127
4, 1250, Control_c, 0, 64, 0
4, 1256, Control_c, 0, 64, 127
4, 1296, Control_c, 0, 64, 0
4, 1344, Control_c, 0, 64, 127
4, 1352, Control_c, 0, 64, 127
4, 1394, Control_c, 0, 64, 0
4, 1400, Control_c, 0, 64, 127
4, 1442, Control_c, 0, 64, 0
4, 1448, Control_c, 0, 64, 127
4, 1490, Control_c, 0, 64, 0
4, 1496, Control_c, 0, 64, 127
4, 1536, Control_c, 0, 64, 127
4, 1538, Control_c, 0, 64, 0
4, 1544, Control_c, 0, 64, 127
4, 1634, Control_c, 0, 64, 0
4, 1640, Control_c, 0, 64, 127
4, 1722, Control_c, 0, 64, 0
4, 1728, Control_c, 0, 64, 0
4, 1736, Control_c, 0, 64, 127
4, 1778, Control_c, 0, 64, 0
4, 1784, Control_c, 0, 64, 127
4, 1826, Control_c, 0, 64, 0
4, 1832, Control_c, 0, 64, 127
4, 1874, Control_c, 0, 64, 0
4, 1880, Control_c, 0, 64, 127
4, 1920, Control_c, 0, 64, 127
4, 1922, Control_c, 0, 64, 0
4, 1928, Control_c, 0, 64, 127
4, 1964, Control_c, 0, 64, 0
4, 1970, Control_c, 0, 64, 127
4, 2018, Control_c, 0, 64, 0
4, 2024, Control_c, 0, 64, 127
4, 2088, Control_c, 0, 64, 0
4, 2112, Control_c, 0, 64, 0
4, 2120, Control_c, 0, 64, 127
4, 2162, Control_c, 0, 64, 0
4, 2168, Control_c, 0, 64, 127
4, 2210, Control_c, 0, 64, 0
4, 2216, Control_c, 0, 64, 127
4, 2258, Control_c, 0, 64, 0
4, 2264, Control_c, 0, 64, 127
4, 2304, Control_c, 0, 64, 127
4, 2306, Control_c, 0, 64, 0
4, 2312, Control_c, 0, 64, 127
4, 2348, Control_c, 0, 64, 0
4, 2354, Control_c, 0, 64, 127
4, 2402, Control_c, 0, 64, 0
4, 2408, Control_c, 0, 64, 127
4, 2472, Control_c, 0, 64, 0
4, 2496, Control_c, 0, 64, 0
4, 2504, Control_c, 0, 64, 127
4, 2594, Control_c, 0, 64, 0
4, 2600, Control_c, 0, 64, 127
4, 2688, Control_c, 0, 64, 127
4, 2690, Control_c, 0, 64, 0
4, 2696, Control_c, 0, 64, 127
4, 2766, Control_c, 0, 64, 0
4, 2792, Control_c, 0, 64, 127
4, 2880, Control_c, 0, 64, 127
4, 2882, Control_c, 0, 64, 0
4, 2888, Control_c, 0, 64, 127
4, 2978, Control_c, 0, 64, 0
4, 2984, Control_c, 0, 64, 127
4, 3072, Control_c, 0, 64, 127
4, 3074, Control_c, 0, 64, 0
4, 3080, Control_c, 0, 64, 127
4, 3170, Control_c, 0, 64, 0
4, 3176, Control_c, 0, 64, 127
4, 3218, Control_c, 0, 64, 0
4, 3224, Control_c, 0, 64, 127
4, 3262, Control_c, 0, 64, 0
4, 3264, Control_c, 0, 64, 0
4, 3272, Control_c, 0, 64, 127
4, 3362, Control_c, 0, 64, 0
4, 3368, Control_c, 0, 64, 127
4, 3410, Control_c, 0, 64, 0
4, 3416, Control_c, 0, 64, 127
4, 3456, Control_c, 0, 64, 127
4, 3458, Control_c, 0, 64, 0
4, 3464, Control_c, 0, 64, 127
4, 3554, Control_c, 0, 64, 0
4, 3560, Control_c, 0, 64, 127
4, 3600, Control_c, 0, 64, 0
4, 3648, Control_c, 0, 64, 0
4, 3656, Control_c, 0, 64, 127
4, 3746, Control_c, 0, 64, 0
4, 3752, Control_c, 0, 64, 127
4, 3840, Control_c, 0, 64, 127
4, 3842, Control_c, 0, 64, 0
4, 3848, Control_c, 0, 64, 127
4, 3972, Control_c, 0, 64, 0
4, 3990, Control_c, 0, 64, 127
4, 4032, Control_c, 0, 64, 127
4, 4034, Control_c, 0, 64, 0
4, 4040, Control_c, 0, 64, 127
4, 4130, Control_c, 0, 64, 0
4, 4136, Control_c, 0, 64, 127
4, 4176, Control_c, 0, 64, 0
4, 4212, Control_c, 0, 64, 127
4, 4224, Control_c, 0, 64, 127
4, 4266, Control_c, 0, 64, 0
4, 4272, Control_c, 0, 64, 127
4, 4322, Control_c, 0, 64, 0
4, 4328, Control_c, 0, 64, 127
4, 4368, Control_c, 0, 64, 0
4, 4416, Control_c, 0, 64, 127
4, 4424, Control_c, 0, 64, 127
4, 4466, Control_c, 0, 64, 0
4, 4472, Control_c, 0, 64, 127
4, 4514, Control_c, 0, 64, 0
4, 4520, Control_c, 0, 64, 127
4, 4562, Control_c, 0, 64, 0
4, 4568, Control_c, 0, 64, 127
4, 4608, Control_c, 0, 64, 127
4, 4610, Control_c, 0, 64, 0
4, 4616, Control_c, 0, 64, 127
4, 4706, Control_c, 0, 64, 0
4, 4712, Control_c, 0, 64, 127
4, 4794, Control_c, 0, 64, 0
4, 4800, Control_c, 0, 64, 0
4, 4808, Control_c, 0, 64, 127
4, 4850, Control_c, 0, 64, 0
4, 4856, Control_c, 0, 64, 127
4, 4898, Control_c, 0, 64, 0
4, 4904, Control_c, 0, 64, 127
4, 4946, Control_c, 0, 64, 0
4, 4952, Control_c, 0, 64, 127
4, 4992, Control_c, 0, 64, 127
4, 4994, Control_c, 0, 64, 0
4, 5000, Control_c, 0, 64, 127
4, 5036, Control_c, 0, 64, 0
4, 5042, Control_c, 0, 64, 127
4, 5090, Control_c, 0, 64, 0
4, 5096, Control_c, 0, 64, 127
4, 5160, Control_c, 0, 64, 0
4, 5184, Control_c, 0, 64, 0
4, 5192, Control_c, 0, 64, 127
4, 5234, Control_c, 0, 64, 0
4, 5240, Control_c, 0, 64, 127
4, 5282, Control_c, 0, 64, 0
4, 5288, Control_c, 0, 64, 127
4, 5330, Control_c, 0, 64, 0
4, 5336, Control_c, 0, 64, 127
4, 5376, Control_c, 0, 64, 127
4, 5378, Control_c, 0, 64, 0
4, 5384, Control_c, 0, 64, 127
4, 5420, Control_c, 0, 64, 0
4, 5426, Control_c, 0, 64, 127
4, 5474, Control_c, 0, 64, 0
4, 5480, Control_c, 0, 64, 127
4, 5544, Control_c, 0, 64, 0
4, 5568, Control_c, 0, 64, 0
4, 5576, Control_c, 0, 64, 127
4, 5666, Control_c, 0, 64, 0
4, 5672, Control_c, 0, 64, 127
4, 5760, Control_c, 0, 64, 127
4, 5762, Control_c, 0, 64, 0
4, 5768, Control_c, 0, 64, 127
4, 5838, Control_c, 0, 64, 0
4, 5864, Control_c, 0, 64, 127
4, 5952, Control_c, 0, 64, 127
4, 5954, Control_c, 0, 64, 0
4, 5960, Control_c, 0, 64, 127
4, 6050, Control_c, 0, 64, 0
4, 6056, Control_c, 0, 64, 127
4, 6144, Control_c, 0, 64, 127
4, 6146, Control_c, 0, 64, 0
4, 6152, Control_c, 0, 64, 127
4, 6242, Control_c, 0, 64, 0
4, 6248, Control_c, 0, 64, 127
4, 6290, Control_c, 0, 64, 0
4, 6296, Control_c, 0, 64, 127
4, 6334, Control_c, 0, 64, 0
4, 6336, Control_c, 0, 64, 0
4, 6344, Control_c, 0, 64, 127
4, 6434, Control_c, 0, 64, 0
4, 6440, Control_c, 0, 64, 127
4, 6482, Control_c, 0, 64, 0
4, 6488, Control_c, 0, 64, 127
4, 6528, Control_c, 0, 64, 127
4, 6530, Control_c, 0, 64, 0
4, 6536, Control_c, 0, 64, 127
4, 6626, Control_c, 0, 64, 0
4, 6632, Control_c, 0, 64, 127
4, 6672, Control_c, 0, 64, 0
4, 6720, Control_c, 0, 64, 0
4, 6728, Control_c, 0, 64, 127
4, 6818, Control_c, 0, 64, 0
4, 6824, Control_c, 0, 64, 127
4, 6912, Control_c, 0, 64, 127
4, 6914, Control_c, 0, 64, 0
4, 6920, Control_c, 0, 64, 127
4, 7044, Control_c, 0, 64, 0
4, 7062, Control_c, 0, 64, 127
4, 7104, Control_c, 0, 64, 127
4, 7106, Control_c, 0, 64, 0
4, 7112, Control_c, 0, 64, 127
4, 7202, Control_c, 0, 64, 0
4, 7208, Control_c, 0, 64, 127
4, 7248, Control_c, 0, 64, 0
4, 7284, Control_c, 0, 64, 127
4, 7296, Control_c, 0, 64, 127
4, 7338, Control_c, 0, 64, 0
4, 7344, Control_c, 0, 64, 127
4, 7394, Control_c, 0, 64, 0
4, 7400, Control_c, 0, 64, 127
4, 7440, Control_c, 0, 64, 0
4, 7488, Control_c, 0, 64, 127
4, 7496, Control_c, 0, 64, 127
4, 7538, Control_c, 0, 64, 0
4, 7544, Control_c, 0, 64, 127
4, 7586, Control_c, 0, 64, 0
4, 7592, Control_c, 0, 64, 127
4, 7634, Control_c, 0, 64, 0
4, 7640, Control_c, 0, 64, 127
4, 7680, Control_c, 0, 64, 127
4, 7682, Control_c, 0, 64, 0
4, 7688, Control_c, 0, 64, 127
4, 7730, Control_c, 0, 64, 0
4, 7736, Control_c, 0, 64, 127
4, 7778, Control_c, 0, 64, 0
4, 7784, Control_c, 0, 64, 127
4, 7826, Control_c, 0, 64, 0
4, 7832, Control_c, 0, 64, 127
4, 7872, Control_c, 0, 64, 127
4, 7874, Control_c, 0, 64, 0
4, 7880, Control_c, 0, 64, 127
4, 7922, Control_c, 0, 64, 0
4, 7928, Control_c, 0, 64, 127
4, 7970, Control_c, 0, 64, 0
4, 7976, Control_c, 0, 64, 127
4, 8018, Control_c, 0, 64, 0
4, 8024, Control_c, 0, 64, 127
4, 8064, Control_c, 0, 64, 127
4, 8066, Control_c, 0, 64, 0
4, 8072, Control_c, 0, 64, 127
4, 8114, Control_c, 0, 64, 0
4, 8120, Control_c, 0, 64, 127
4, 8162, Control_c, 0, 64, 0
4, 8168, Control_c, 0, 64, 127
4, 8210, Control_c, 0, 64, 0
4, 8216, Control_c, 0, 64, 127
4, 8256, Control_c, 0, 64, 127
4, 8258, Control_c, 0, 64, 0
4, 8264, Control_c, 0, 64, 127
4, 8306, Control_c, 0, 64, 0
4, 8312, Control_c, 0, 64, 127
4, 8354, Control_c, 0, 64, 0
4, 8360, Control_c, 0, 64, 127
4, 8402, Control_c, 0, 64, 0
4, 8408, Control_c, 0, 64, 127
4, 8448, Control_c, 0, 64, 127
4, 8450, Control_c, 0, 64, 0
4, 8456, Control_c, 0, 64, 127
4, 8498, Control_c, 0, 64, 0
4, 8504, Control_c, 0, 64, 127
4, 8546, Control_c, 0, 64, 0
4, 8552, Control_c, 0, 64, 127
4, 8594, Control_c, 0, 64, 0
4, 8600, Control_c, 0, 64, 127
4, 8640, Control_c, 0, 64, 127
4, 8642, Control_c, 0, 64, 0
4, 8648, Control_c, 0, 64, 127
4, 8690, Control_c, 0, 64, 0
4, 8696, Control_c, 0, 64, 127
4, 8738, Control_c, 0, 64, 0
4, 8744, Control_c, 0, 64, 127
4, 8786, Control_c, 0, 64, 0
4, 8792, Control_c, 0, 64, 127
4, 8832, Control_c, 0, 64, 127
4, 8834, Control_c, 0, 64, 0
4, 8840, Control_c, 0, 64, 127
4, 8882, Control_c, 0, 64, 0
4, 8888, Control_c, 0, 64, 127
4, 8930, Control_c, 0, 64, 0
4, 8936, Control_c, 0, 64, 127
4, 8978, Control_c, 0, 64, 0
4, 8984, Control_c, 0, 64, 127
4, 9024, Control_c, 0, 64, 127
4, 9026, Control_c, 0, 64, 0
4, 9032, Control_c, 0, 64, 127
4, 9074, Control_c, 0, 64, 0
4, 9080, Control_c, 0, 64, 127
4, 9122, Control_c, 0, 64, 0
4, 9128, Control_c, 0, 64, 127
4, 9170, Control_c, 0, 64, 0
4, 9176, Control_c, 0, 64, 127
4, 9216, Control_c, 0, 64, 127
4, 9218, Control_c, 0, 64, 0
4, 9224, Control_c, 0, 64, 127
4, 9266, Control_c, 0, 64, 0
4, 9272, Control_c, 0, 64, 127
4, 9314, Control_c, 0, 64, 0
4, 9320, Control_c, 0, 64, 127
4, 9362, Control_c, 0, 64, 0
4, 9368, Control_c, 0, 64, 127
4, 9408, Control_c, 0, 64, 127
4, 9410, Control_c, 0, 64, 0
4, 9416, Control_c, 0, 64, 127
4, 9458, Control_c, 0, 64, 0
4, 9464, Control_c, 0, 64, 127
4, 9506, Control_c, 0, 64, 0
4, 9512, Control_c, 0, 64, 127
4, 9554, Control_c, 0, 64, 0
4, 9560, Control_c, 0, 64, 127
4, 9600, Control_c, 0, 64, 127
4, 9602, Control_c, 0, 64, 0
4, 9608, Control_c, 0, 64, 127
4, 9650, Control_c, 0, 64, 0
4, 9656, Control_c, 0, 64, 127
4, 9698, Control_c, 0, 64, 0
4, 9704, Control_c, 0, 64, 127
4, 9746, Control_c, 0, 64, 0
4, 9752, Control_c, 0, 64, 127
4, 9792, Control_c, 0, 64, 127
4, 9794, Control_c, 0, 64, 0
4, 9800, Control_c, 0, 64, 127
4, 9842, Control_c, 0, 64, 0
4, 9848, Control_c, 0, 64, 127
4, 9890, Control_c, 0, 64, 0
4, 9896, Control_c, 0, 64, 127
4, 9938, Control_c, 0, 64, 0
4, 9944, Control_c, 0, 64, 127
4, 9984, Control_c, 0, 64, 127
4, 9986, Control_c, 0, 64, 0
4, 9992, Control_c, 0, 64, 127
4, 10034, Control_c, 0, 64, 0
4, 10040, Control_c, 0, 64, 127
4, 10082, Control_c, 0, 64, 0
4, 10088, Control_c, 0, 64, 127
4, 10130, Control_c, 0, 64, 0
4, 10136, Control_c, 0, 64, 127
4, 10176, Control_c, 0, 64, 127
4, 10178, Control_c, 0, 64, 0
4, 10184, Control_c, 0, 64, 127
4, 10226, Control_c, 0, 64, 0
4, 10232, Control_c, 0, 64, 127
4, 10274, Control_c, 0, 64, 0
4, 10280, Control_c, 0, 64, 127
4, 10322, Control_c, 0, 64, 0
4, 10328, Control_c, 0, 64, 127
4, 10368, Control_c, 0, 64, 127
4, 10370, Control_c, 0, 64, 0
4, 10376, Control_c, 0, 64, 127
4, 10418, Control_c, 0, 64, 0
4, 10424, Control_c, 0, 64, 127
4, 10466, Control_c, 0, 64, 0
4, 10472, Control_c, 0, 64, 127
4, 10514, Control_c, 0, 64, 0
4, 10520, Control_c, 0, 64, 127
4, 10560, Control_c, 0, 64, 127
4, 10562, Control_c, 0, 64, 0
4, 10568, Control_c, 0, 64, 127
4, 10610, Control_c, 0, 64, 0
4, 10616, Control_c, 0, 64, 127
4, 10658, Control_c, 0, 64, 0
4, 10664, Control_c, 0, 64, 127
4, 10706, Control_c, 0, 64, 0
4, 10712, Control_c, 0, 64, 127
4, 10752, Control_c, 0, 64, 127
4, 10754, Control_c, 0, 64, 0
4, 10760, Control_c, 0, 64, 127
4, 10802, Control_c, 0, 64, 0
4, 10808, Control_c, 0, 64, 127
4, 10850, Control_c, 0, 64, 0
4, 10856, Control_c, 0, 64, 127
4, 10898, Control_c, 0, 64, 0
4, 10904, Control_c, 0, 64, 127
4, 10944, Control_c, 0, 64, 127
4, 10946, Control_c, 0, 64, 0
4, 10952, Control_c, 0, 64, 127
4, 10994, Control_c, 0, 64, 0
4, 11000, Control_c, 0, 64, 127
4, 11042, Control_c, 0, 64, 0
4, 11048, Control_c, 0, 64, 127
4, 11090, Control_c, 0, 64, 0
4, 11096, Control_c, 0, 64, 127
4, 11136, Control_c, 0, 64, 127
4, 11138, Control_c, 0, 64, 0
4, 11144, Control_c, 0, 64, 127
4, 11186, Control_c, 0, 64, 0
4, 11192, Control_c, 0, 64, 127
4, 11234, Control_c, 0, 64, 0
4, 11240, Control_c, 0, 64, 127
4, 11282, Control_c, 0, 64, 0
4, 11288, Control_c, 0, 64, 127
4, 11328, Control_c, 0, 64, 127
4, 11330, Control_c, 0, 64, 0
4, 11336, Control_c, 0, 64, 127
4, 11378, Control_c, 0, 64, 0
4, 11384, Control_c, 0, 64, 127
4, 11426, Control_c, 0, 64, 0
4, 11432, Control_c, 0, 64, 127
4, 11474, Control_c, 0, 64, 0
4, 11480, Control_c, 0, 64, 127
4, 11520, Control_c, 0, 64, 127
4, 11522, Control_c, 0, 64, 0
4, 11528, Control_c, 0, 64, 127
4, 11570, Control_c, 0, 64, 0
4, 11576, Control_c, 0, 64, 127
4, 11618, Control_c, 0, 64, 0
4, 11624, Control_c, 0, 64, 127
4, 11666, Control_c, 0, 64, 0
4, 11672, Control_c, 0, 64, 127
4, 11712, Control_c, 0, 64, 127
4, 11714, Control_c, 0, 64, 0
4, 11720, Control_c, 0, 64, 127
4, 11762, Control_c, 0, 64, 0
4, 11768, Control_c, 0, 64, 127
4, 11810, Control_c, 0, 64, 0
4, 11816, Control_c, 0, 64, 127
4, 11858, Control_c, 0, 64, 0
4, 11864, Control_c, 0, 64, 127
4, 11886, Control_c, 0, 64, 0
4, 11904, Control_c, 0, 64, 0
4, 11912, Control_c, 0, 64, 127
4, 11954, Control_c, 0, 64, 0
4, 11960, Control_c, 0, 64, 127
4, 12002, Control_c, 0, 64, 0
4, 12008, Control_c, 0, 64, 127
4, 12050, Control_c, 0, 64, 0
4, 12056, Control_c, 0, 64, 127
4, 12078, Control_c, 0, 64, 0
4, 12096, Control_c, 0, 64, 0
4, 12104, Control_c, 0, 64, 127
4, 12146, Control_c, 0, 64, 0
4, 12152, Control_c, 0, 64, 127
4, 12194, Control_c, 0, 64, 0
4, 12200, Control_c, 0, 64, 127
4, 12242, Control_c, 0, 64, 0
4, 12248, Control_c, 0, 64, 127
4, 12276, Control_c, 0, 64, 0
4, 12288, Control_c, 0, 64, 0
4, 12296, Control_c, 0, 64, 127
4, 12338, Control_c, 0, 64, 0
4, 12344, Control_c, 0, 64, 127
4, 12386, Control_c, 0, 64, 0
4, 12392, Control_c, 0, 64, 127
4, 12434, Control_c, 0, 64, 0
4, 12440, Control_c, 0, 64, 127
4, 12480, Control_c, 0, 64, 0
4, 12486, Control_c, 0, 64, 127
4, 12672, Control_c, 0, 64, 127
4, 12864, Control_c, 0, 64, 0
4, 12872, Control_c, 0, 64, 127
4, 12962, Control_c, 0, 64, 0
4, 12968, Control_c, 0, 64, 127
4, 13010, Control_c, 0, 64, 0
4, 13016, Control_c, 0, 64, 127
4, 13056, Control_c, 0, 64, 127
4, 13058, Control_c, 0, 64, 0
4, 13064, Control_c, 0, 64, 127
4, 13154, Control_c, 0, 64, 0
4, 13160, Control_c, 0, 64, 127
4, 13200, Control_c, 0, 64, 0
4, 13248, Control_c, 0, 64, 0
4, 13256, Control_c, 0, 64, 127
4, 13346, Control_c, 0, 64, 0
4, 13352, Control_c, 0, 64, 127
4, 13440, Control_c, 0, 64, 127
4, 13442, Control_c, 0, 64, 0
4, 13448, Control_c, 0, 64, 127
4, 13568, Control_c, 0, 64, 0
4, 13574, Control_c, 0, 64, 127
4, 13586, Control_c, 0, 64, 0
4, 13592, Control_c, 0, 64, 127
4, 13632, Control_c, 0, 64, 127
4, 13634, Control_c, 0, 64, 0
4, 13640, Control_c, 0, 64, 127
4, 13730, Control_c, 0, 64, 0
4, 13736, Control_c, 0, 64, 127
4, 13776, Control_c, 0, 64, 0
4, 13812, Control_c, 0, 64, 127
4, 13824, Control_c, 0, 64, 127
4, 13866, Control_c, 0, 64, 0
4, 13872, Control_c, 0, 64, 127
4, 13922, Control_c, 0, 64, 0
4, 13928, Control_c, 0, 64, 127
4, 13968, Control_c, 0, 64, 0
4, 14016, Control_c, 0, 64, 127
4, 14024, Control_c, 0, 64, 127
4, 14066, Control_c, 0, 64, 0
4, 14072, Control_c, 0, 64, 127
4, 14114, Control_c, 0, 64, 0
4, 14120, Control_c, 0, 64, 127
4, 14162, Control_c, 0, 64, 0
4, 14168, Control_c, 0, 64, 127
4, 14208, Control_c, 0, 64, 127
4, 14210, Control_c, 0, 64, 0
4, 14216, Control_c, 0, 64, 127
4, 14306, Control_c, 0, 64, 0
4, 14312, Control_c, 0, 64, 127
4, 14394, Control_c, 0, 64, 0
4, 14400, Control_c, 0, 64, 0
4, 14408, Control_c, 0, 64, 127
4, 14450, Control_c, 0, 64, 0
4, 14456, Control_c, 0, 64, 127
4, 14498, Control_c, 0, 64, 0
4, 14504, Control_c, 0, 64, 127
4, 14546, Control_c, 0, 64, 0
4, 14552, Control_c, 0, 64, 127
4, 14592, Control_c, 0, 64, 127
4, 14594, Control_c, 0, 64, 0
4, 14600, Control_c, 0, 64, 127
4, 14636, Control_c, 0, 64, 0
4, 14642, Control_c, 0, 64, 127
4, 14690, Control_c, 0, 64, 0
4, 14696, Control_c, 0, 64, 127
4, 14760, Control_c, 0, 64, 0
4, 14784, Control_c, 0, 64, 0
4, 14792, Control_c, 0, 64, 127
4, 14834, Control_c, 0, 64, 0
4, 14840, Control_c, 0, 64, 127
4, 14882, Control_c, 0, 64, 0
4, 14888, Control_c, 0, 64, 127
4, 14930, Control_c, 0, 64, 0
4, 14936, Control_c, 0, 64, 127
4, 14976, Control_c, 0, 64, 127
4, 14978, Control_c, 0, 64, 0
4, 14984, Control_c, 0, 64, 127
4, 15020, Control_c, 0, 64, 0
4, 15026, Control_c, 0, 64, 127
4, 15074, Control_c, 0, 64, 0
4, 15080, Control_c, 0, 64, 127
4, 15144, Control_c, 0, 64, 0
4, 15168, Control_c, 0, 64, 0
4, 15176, Control_c, 0, 64, 127
4, 15266, Control_c, 0, 64, 0
4, 15272, Control_c, 0, 64, 127
4, 15360, Control_c, 0, 64, 127
4, 15362, Control_c, 0, 64, 0
4, 15368, Control_c, 0, 64, 127
4, 15438, Control_c, 0, 64, 0
4, 15464, Control_c, 0, 64, 127
4, 15552, Control_c, 0, 64, 127
4, 15554, Control_c, 0, 64, 0
4, 15560, Control_c, 0, 64, 127
4, 15650, Control_c, 0, 64, 0
4, 15656, Control_c, 0, 64, 127
4, 15744, Control_c, 0, 64, 127
4, 15746, Control_c, 0, 64, 0
4, 15752, Control_c, 0, 64, 127
4, 15842, Control_c, 0, 64, 0
4, 15848, Control_c, 0, 64, 127
4, 15890, Control_c, 0, 64, 0
4, 15896, Control_c, 0, 64, 127
4, 15930, Control_c, 0, 64, 0
4, 15936, Control_c, 0, 64, 0
4, 15944, Control_c, 0, 64, 127
4, 16034, Control_c, 0, 64, 0
4, 16040, Control_c, 0, 64, 127
4, 16082, Control_c, 0, 64, 0
4, 16088, Control_c, 0, 64, 127
4, 16128, Control_c, 0, 64, 127
4, 16130, Control_c, 0, 64, 0
4, 16136, Control_c, 0, 64, 127
4, 16226, Control_c, 0, 64, 0
4, 16232, Control_c, 0, 64, 127
4, 16272, Control_c, 0, 64, 0
4, 16320, Control_c, 0, 64, 0
4, 16328, Control_c, 0, 64, 127
4, 16418, Control_c, 0, 64, 0
4, 16424, Control_c, 0, 64, 127
4, 16512, Control_c, 0, 64, 127
4, 16514, Control_c, 0, 64, 0
4, 16520, Control_c, 0, 64, 127
4, 16644, Control_c, 0, 64, 0
4, 16662, Control_c, 0, 64, 127
4, 16704, Control_c, 0, 64, 127
4, 16706, Control_c, 0, 64, 0
4, 16712, Control_c, 0, 64, 127
4, 16802, Control_c, 0, 64, 0
4, 16808, Control_c, 0, 64, 127
4, 16848, Control_c, 0, 64, 0
4, 16884, Control_c, 0, 64, 127
4, 16896, Control_c, 0, 64, 127
4, 16938, Control_c, 0, 64, 0
4, 16944, Control_c, 0, 64, 127
4, 16994, Control_c, 0, 64, 0
4, 17000, Control_c, 0, 64, 127
4, 17040, Control_c, 0, 64, 0
4, 17088, Control_c, 0, 64, 127
4, 17096, Control_c, 0, 64, 127
4, 17138, Control_c, 0, 64, 0
4, 17144, Control_c, 0, 64, 127
4, 17186, Control_c, 0, 64, 0
4, 17192, Control_c, 0, 64, 127
4, 17234, Control_c, 0, 64, 0
4, 17240, Control_c, 0, 64, 127
4, 17280, Control_c, 0, 64, 127
4, 17282, Control_c, 0, 64, 0
4, 17288, Control_c, 0, 64, 127
4, 17330, Control_c, 0, 64, 0
4, 17336, Control_c, 0, 64, 127
4, 17378, Control_c, 0, 64, 0
4, 17384, Control_c, 0, 64, 127
4, 17426, Control_c, 0, 64, 0
4, 17432, Control_c, 0, 64, 127
4, 17460, Control_c, 0, 64, 0
4, 17472, Control_c, 0, 64, 0
4, 17474, Control_c, 0, 64, 127
4, 17664, Control_c, 0, 64, 127
4, 17808, Control_c, 0, 64, 0
4, 17856, End_track
0, 0, End_of_file