0, 0, Header, 1, 5, 384
1, 0, Start_track
1, 0, Time_signature, 3, 2, 24, 8
1, 0, Tempo, 330114
1, 2304, Tempo, 446082
1, 3264, Tempo, 456266
1, 3360, Tempo, 480956
1, 3384, Tempo, 412706
1, 3408, Tempo, 447760
1, 3432, Tempo, 331487
1, 11808, Tempo, 330114
1, 11904, Tempo, 334080
1, 12000, Tempo, 338157
1, 12096, Tempo, 342347
1, 12192, Tempo, 346636
1, 12288, Tempo, 351030
1, 12384, Tempo, 355540
1, 12480, Tempo, 360160
1, 12576, Tempo, 364903
1, 12672, Tempo, 327417
1, 34464, Tempo, 330114
1, 34560, Tempo, 333350
1, 34656, Tempo, 336650
1, 34752, Tempo, 340007
1, 34848, Tempo, 343453
1, 34944, Tempo, 346994
1, 35040, Tempo, 350573
1, 35136, Tempo, 354230
1, 35232, Tempo, 357949
1, 35328, Tempo, 361783
1, 35424, Tempo, 365665
1, 35520, Tempo, 369647
1, 35616, Tempo, 373727
1, 35712, Tempo, 328747
1, 49728, Tempo, 324754
1, 49824, Tempo, 323298
1, 49920, Tempo, 321864
1, 50016, Tempo, 320448
1, 50112, Tempo, 319054
1, 50208, Tempo, 317648
1, 50304, Tempo, 316262
1, 50400, Tempo, 314898
1, 50496, Tempo, 313557
1, 50592, Tempo, 310877
1, 50688, Tempo, 310877
1, 51072, Tempo, 310877
1, 51168, Tempo, 347849
1, 51264, Tempo, 367646
1, 51360, Tempo, 389823
1, 51456, Tempo, 926640
1, 51552, Tempo, 963850
1, 51648, Tempo, 1004170
1, 51744, Tempo, 638284
1, 51840, Tempo, 330114
1, 52224, Tempo, 328747
1, 52320, Tempo, 346183
1, 52416, Tempo, 365557
1, 52512, Tempo, 1589400
1, 52608, Tempo, 1589400
1, 52704, Tempo, 1589400
1, 52800, Tempo, 1263138
1, 52896, Tempo, 347314
1, 52992, Tempo, 347614
1, 53088, Tempo, 347907
1, 53184, Tempo, 348203
1, 53280, Tempo, 348524
1, 53664, Tempo, 2000000
1, 53760, Tempo, 2000000
1, 53856, Tempo, 2000000
1, 53952, Tempo, 420302
1, 89376, Tempo, 420302
1, 89472, Tempo, 425071
1, 89568, Tempo, 427032
1, 89616, Tempo, 431225
1, 89664, Tempo, 435496
1, 89712, Tempo, 439867
1, 89760, Tempo, 444310
1, 89808, Tempo, 448852
1, 89856, Tempo, 453479
1, 89904, Tempo, 458216
1, 89952, Tempo, 463057
1, 90000, Tempo, 467980
1, 90048, Tempo, 473021
1, 90096, Tempo, 478172
1, 90144, Tempo, 483440
1, 90192, Tempo, 488806
1, 90240, Tempo, 494311
1, 90288, Tempo, 499946
1, 90336, Tempo, 505710
1, 90384, Tempo, 511590
1, 90432, Tempo, 517630
1, 90480, Tempo, 523794
1, 90528, Tempo, 530115
1, 90576, Tempo, 536599
1, 90624, Tempo, 543237
1, 90672, Tempo, 550039
1, 90720, Tempo, 557017
1, 90768, Tempo, 564165
1, 90816, Tempo, 574155
1, 90864, Tempo, 593315
1, 90912, Tempo, 603004
1, 90960, Tempo, 243638
1, 108648, Tempo, 242898
1, 108672, Tempo, 244943
1, 108696, Tempo, 247041
1, 108720, Tempo, 249198
1, 108744, Tempo, 251348
1, 108768, Tempo, 253555
1, 108792, Tempo, 255795
1, 108816, Tempo, 258083
1, 108840, Tempo, 260410
1, 108864, Tempo, 262780
1, 108888, Tempo, 265189
1, 108912, Tempo, 267647
1, 108936, Tempo, 270146
1, 108960, Tempo, 272704
1, 108984, Tempo, 275306
1, 109008, Tempo, 277948
1, 109032, Tempo, 280656
1, 109056, Tempo, 283405
1, 109080, Tempo, 286210
1, 109104, Tempo, 289075
1, 109128, Tempo, 291994
1, 109152, Tempo, 294982
1, 109176, Tempo, 298020
1, 109200, Tempo, 301126
1, 109224, Tempo, 307275
1, 109248, Tempo, 309347
1, 109272, Tempo, 311464
1, 109296, Tempo, 313610
1, 109344, Tempo, 242898
1, 110952, Tempo, 240716
1, 110976, Tempo, 252278
1, 111000, Tempo, 265030
1, 111024, Tempo, 279118
1, 111048, Tempo, 294840
1, 111072, Tempo, 312379
1, 111096, Tempo, 332157
1, 111120, Tempo, 407470
1, 111144, Tempo, 379129
1, 111168, Tempo, 354490
1, 111192, Tempo, 332867
1, 111216, Tempo, 313711
1, 111240, Tempo, 296655
1, 111264, Tempo, 281328
1, 111288, Tempo, 267532
1, 111312, Tempo, 241419
1, 115608, Tempo, 244369
1, 115632, Tempo, 254950
1, 115656, Tempo, 266448
1, 115680, Tempo, 279038
1, 115704, Tempo, 292905
1, 115728, Tempo, 308190
1, 115752, Tempo, 325194
1, 115776, Tempo, 344140
1, 115800, Tempo, 365456
1, 115824, Tempo, 242898
1, 126048, Tempo, 245121
1, 126144, Tempo, 245121
1, 126192, Tempo, 245798
1, 126240, Tempo, 246470
1, 126288, Tempo, 247136
1, 126336, Tempo, 247831
1, 126384, Tempo, 248486
1, 126432, Tempo, 249198
1, 126480, Tempo, 249876
1, 126528, Tempo, 250580
1, 126576, Tempo, 251253
1, 126624, Tempo, 251978
1, 126672, Tempo, 252668
1, 126720, Tempo, 253393
1, 126768, Tempo, 254080
1, 126816, Tempo, 254828
1, 126864, Tempo, 255530
1, 126912, Tempo, 256250
1, 126960, Tempo, 256985
1, 127008, Tempo, 257728
1, 127056, Tempo, 258465
1, 127104, Tempo, 259205
1, 127152, Tempo, 259955
1, 127200, Tempo, 260707
1, 127248, Tempo, 261467
1, 127296, Tempo, 262215
1, 127344, Tempo, 262977
1, 127392, Tempo, 263757
1, 127440, Tempo, 264537
1, 127488, Tempo, 265297
1, 127536, Tempo, 266097
1, 127584, Tempo, 267258
1, 127632, Tempo, 269090
1, 127680, Tempo, 270947
1, 127728, Tempo, 272844
1, 127776, Tempo, 274764
1, 127824, Tempo, 276720
1, 127872, Tempo, 278688
1, 127920, Tempo, 280698
1, 127968, Tempo, 282750
1, 128016, Tempo, 284808
1, 128064, Tempo, 286902
1, 128112, Tempo, 289028
1, 128160, Tempo, 291176
1, 128208, Tempo, 293373
1, 128256, Tempo, 295600
1, 128304, Tempo, 297868
1, 128352, Tempo, 300160
1, 128400, Tempo, 302478
1, 128448, Tempo, 304837
1, 128496, Tempo, 307248
1, 128544, Tempo, 309676
1, 128592, Tempo, 312172
1, 128640, Tempo, 314682
1, 128688, Tempo, 317235
1, 128736, Tempo, 319851
1, 128784, Tempo, 322484
1, 128832, Tempo, 325194
1, 128880, Tempo, 327927
1, 128928, Tempo, 330700
1, 128976, Tempo, 333524
1, 129024, Tempo, 336394
1, 129072, Tempo, 339313
1, 129120, Tempo, 342303
1, 129168, Tempo, 345347
1, 129216, Tempo, 348430
1, 129264, Tempo, 351567
1, 129312, Tempo, 354756
1, 129360, Tempo, 358009
1, 129408, Tempo, 359820
1, 129456, Tempo, 368451
1, 129504, Tempo, 377529
1, 129552, Tempo, 387079
1, 129600, Tempo, 397117
1, 129648, Tempo, 407674
1, 129696, Tempo, 418828
1, 129744, Tempo, 430605
1, 129792, Tempo, 443052
1, 129840, Tempo, 638284
1, 129888, Tempo, 662974
1, 129936, Tempo, 805352
1, 129984, Tempo, 817738
1, 130032, Tempo, 830432
1, 130080, Tempo, 843607
1, 130128, Tempo, 857140
1, 130176, Tempo, 331487
1, 131328, Tempo, 331487
1, 161472, Tempo, 498960
1, 161568, Tempo, 499761
1, 161664, Tempo, 500565
1, 161760, Tempo, 501395
1, 161856, Tempo, 502210
1, 161952, Tempo, 503050
1, 162048, Tempo, 503860
1, 162144, Tempo, 504700
1, 162240, Tempo, 505530
1, 162336, Tempo, 506370
1, 162432, Tempo, 507185
1, 162528, Tempo, 508035
1, 162624, Tempo, 508875
1, 162720, Tempo, 509725
1, 162816, Tempo, 848042
1, 162912, Tempo, 837837
1, 163008, Tempo, 827802
1, 163104, Tempo, 818060
1, 163200, Tempo, 808502
1, 163296, Tempo, 799211
1, 163392, Tempo, 790067
1, 163488, Tempo, 781204
1, 163584, Tempo, 772467
1, 163680, Tempo, 763977
1, 163776, Tempo, 755638
1, 163872, Tempo, 747518
1, 163968, Tempo, 739521
1, 164064, Tempo, 797340
1, 164160, Tempo, 801340
1, 164256, Tempo, 805352
1, 164352, Tempo, 809458
1, 164448, Tempo, 813542
1, 164544, Tempo, 817738
1, 164640, Tempo, 821902
1, 164736, Tempo, 826169
1, 164832, Tempo, 830432
1, 164928, Tempo, 834807
1, 165024, Tempo, 820749
1, 165120, Tempo, 799649
1, 165216, Tempo, 779589
1, 165312, Tempo, 760535
1, 165408, Tempo, 742383
1, 165504, Tempo, 693640
1, 165600, Tempo, 677480
1, 165696, Tempo, 638284
1, 165792, Tempo, 638284
1, 165888, Tempo, 638284
1, 165984, Tempo, 638284
1, 166080, Tempo, 774183
1, 166176, Tempo, 806990
1, 166272, Tempo, 842682
1, 166368, Tempo, 1034480
1, 166464, Tempo, 1057979
1, 166560, Tempo, 1082586
1, 166656, Tempo, 1108208
1, 166752, Tempo, 1135224
1, 166848, Tempo, 1163449
1, 166944, Tempo, 1193275
1, 167040, Tempo, 719042
1, 167136, Tempo, 727606
1, 167232, Tempo, 736356
1, 167328, Tempo, 740453
1, 167424, Tempo, 749863
1, 182016, End_track
2, 0, Start_track
2, 0, Title_t, "Track 1"
2, 0, Control_c, 0, 10, 10
2, 4, System_exclusive, 05, 7E, 00, 00, 7F, F7
2, 16, Control_c, 0, 0, 0
2, 20, Control_c, 0, 32, 0
2, 36, Control_c, 0, 91, 127
2, 40, Control_c, 0, 93, 0
2, 44, Control_c, 0, 101, 0
2, 48, Control_c, 0, 100, 0
2, 52, Control_c, 0, 6, 2
2, 2304, Control_c, 0, 10, 10
2, 2304, Control_c, 0, 10, 10
2, 2304, Control_c, 0, 10, 10
2, 2304, Control_c, 0, 10, 64
2, 2304, Control_c, 0, 10, 64
2, 2304, Control_c, 0, 10, 64
2, 3076, Note_on_c, 0, 71, 53
2, 3220, Note_off_c, 0, 71, 0
2, 3408, Note_on_c, 0, 40, 35
2, 3435, Note_on_c, 0, 47, 41
2, 3442, Note_on_c, 0, 63, 33
2, 3445, Note_on_c, 0, 55, 52
2, 3458, Note_on_c, 0, 71, 64
2, 3480, Note_on_c, 0, 64, 52
2, 3514, Note_off_c, 0, 63, 0
2, 3736, Note_off_c, 0, 40, 0
2, 3753, Note_off_c, 0, 47, 0
2, 3759, Note_off_c, 0, 55, 0
2, 3776, Note_off_c, 0, 71, 0
2, 3804, Note_off_c, 0, 64, 0
2, 3805, Note_on_c, 0, 76, 62
2, 3823, Note_on_c, 0, 66, 33
2, 3870, Note_on_c, 0, 67, 54
2, 3894, Note_off_c, 0, 66, 0
2, 4151, Note_off_c, 0, 67, 0
2, 4168, Note_on_c, 0, 70, 48
2, 4206, Note_on_c, 0, 71, 60
2, 4210, Note_off_c, 0, 76, 0
2, 4226, Note_on_c, 0, 79, 76
2, 4231, Note_off_c, 0, 70, 0
2, 4237, Note_on_c, 0, 43, 29
2, 4256, Note_on_c, 0, 52, 58
2, 4256, Note_on_c, 0, 59, 70
2, 4415, Note_off_c, 0, 43, 0
2, 4427, Note_off_c, 0, 52, 0
2, 4435, Note_off_c, 0, 59, 0
2, 4549, Note_off_c, 0, 71, 0
2, 4576, Note_off_c, 0, 79, 0
2, 4587, Note_on_c, 0, 71, 62
2, 4592, Note_on_c, 0, 45, 53
2, 4604, Note_on_c, 0, 79, 82
2, 4625, Note_on_c, 0, 60, 53
2, 4627, Note_on_c, 0, 52, 56
2, 4627, Note_on_c, 0, 69, 48
2, 4648, Note_off_c, 0, 71, 0
2, 4939, Note_off_c, 0, 45, 0
2, 4949, Note_off_c, 0, 60, 0
2, 4950, Note_off_c, 0, 52, 0
2, 4974, Note_off_c, 0, 69, 0
2, 4975, Note_off_c, 0, 79, 0
2, 4986, Note_on_c, 0, 78, 68
2, 4990, Note_on_c, 0, 68, 47
2, 5037, Note_on_c, 0, 69, 54
2, 5064, Note_off_c, 0, 68, 0
2, 5338, Note_off_c, 0, 69, 0
2, 5357, Note_on_c, 0, 48, 54
2, 5363, Note_on_c, 0, 72, 54
2, 5372, Note_on_c, 0, 81, 66
2, 5373, Note_off_c, 0, 78, 0
2, 5389, Note_on_c, 0, 64, 64
2, 5390, Note_on_c, 0, 57, 54
2, 5394, Note_on_c, 0, 71, 64
2, 5413, Note_off_c, 0, 72, 0
2, 5598, Note_off_c, 0, 48, 0
2, 5605, Note_off_c, 0, 57, 0
2, 5605, Note_off_c, 0, 64, 0
2, 5719, Note_off_c, 0, 71, 0
2, 5737, Note_off_c, 0, 81, 0
2, 5755, Note_on_c, 0, 47, 45
2, 5755, Note_on_c, 0, 71, 62
2, 5767, Note_on_c, 0, 79, 78
2, 5777, Note_on_c, 0, 57, 58
2, 5783, Note_on_c, 0, 63, 56
2, 5786, Note_on_c, 0, 69, 47
2, 5807, Note_off_c, 0, 71, 0
2, 6120, Note_off_c, 0, 69, 0
2, 6133, Note_off_c, 0, 79, 0
2, 6137, Note_on_c, 0, 68, 58
2, 6150, Note_on_c, 0, 78, 78
2, 6177, Note_off_c, 0, 57, 0
2, 6188, Note_off_c, 0, 63, 0
2, 6191, Note_on_c, 0, 69, 52
2, 6194, Note_off_c, 0, 47, 0
2, 6217, Note_off_c, 0, 68, 0
2, 6491, Note_off_c, 0, 69, 0
2, 6505, Note_off_c, 0, 78, 0
2, 6518, Note_on_c, 0, 71, 58
2, 6521, Note_on_c, 0, 47, 78
2, 6531, Note_on_c, 0, 79, 72
2, 6538, Note_on_c, 0, 51, 31
2, 6553, Note_on_c, 0, 69, 60
2, 6577, Note_off_c, 0, 71, 0
2, 6744, Note_off_c, 0, 51, 0
2, 6752, Note_off_c, 0, 47, 0
2, 6869, Note_off_c, 0, 69, 0
2, 6881, Note_off_c, 0, 79, 0
2, 6895, Note_on_c, 0, 78, 64
2, 6897, Note_on_c, 0, 69, 64
2, 6902, Note_on_c, 0, 40, 48
2, 6911, Note_on_c, 0, 47, 62
2, 6949, Note_on_c, 0, 55, 68
2, 6950, Note_on_c, 0, 67, 50
2, 6966, Note_off_c, 0, 69, 0
2, 7233, Note_off_c, 0, 67, 0
2, 7256, Note_on_c, 0, 66, 50
2, 7263, Note_off_c, 0, 78, 0
2, 7289, Note_on_c, 0, 76, 56
2, 7309, Note_off_c, 0, 40, 0
2, 7310, Note_on_c, 0, 67, 64
2, 7316, Note_off_c, 0, 47, 0
2, 7321, Note_off_c, 0, 55, 0
2, 7336, Note_off_c, 0, 66, 0
2, 7599, Note_on_c, 0, 42, 68
2, 7622, Note_off_c, 0, 67, 0
2, 7630, Note_on_c, 0, 50, 56
2, 7642, Note_on_c, 0, 57, 76
2, 7645, Note_on_c, 0, 68, 66
2, 7675, Note_off_c, 0, 76, 0
2, 7683, Note_on_c, 0, 74, 76
2, 7691, Note_on_c, 0, 69, 62
2, 7712, Note_off_c, 0, 68, 0
2, 7931, Note_off_c, 0, 42, 0
2, 7954, Note_off_c, 0, 50, 0
2, 7968, Note_off_c, 0, 57, 0
2, 8014, Note_on_c, 0, 43, 66
2, 8027, Note_off_c, 0, 74, 0
2, 8033, Note_off_c, 0, 69, 0
2, 8047, Note_on_c, 0, 66, 52
2, 8055, Note_on_c, 0, 50, 76
2, 8064, Note_on_c, 0, 59, 78
2, 8068, Note_on_c, 0, 74, 80
2, 8101, Note_on_c, 0, 67, 46
2, 8126, Note_off_c, 0, 66, 0
2, 8404, Note_off_c, 0, 67, 0
2, 8422, Note_on_c, 0, 70, 48
2, 8437, Note_off_c, 0, 74, 0
2, 8439, Note_off_c, 0, 43, 0
2, 8443, Note_on_c, 0, 79, 80
2, 8452, Note_off_c, 0, 59, 0
2, 8454, Note_off_c, 0, 50, 0
2, 8476, Note_on_c, 0, 71, 51
2, 8500, Note_off_c, 0, 70, 0
2, 8784, Note_on_c, 0, 47, 50
2, 8811, Note_off_c, 0, 71, 0
2, 8813, Note_off_c, 0, 79, 0
2, 8815, Note_on_c, 0, 62, 68
2, 8816, Note_on_c, 0, 55, 53
2, 8816, Note_on_c, 0, 83, 82
2, 8819, Note_on_c, 0, 73, 66
2, 8865, Note_on_c, 0, 74, 64
2, 8891, Note_off_c, 0, 73, 0
2, 9058, Note_off_c, 0, 47, 0
2, 9071, Note_off_c, 0, 62, 0
2, 9072, Note_off_c, 0, 55, 0
2, 9156, Note_off_c, 0, 74, 0
2, 9176, Note_off_c, 0, 83, 0
2, 9183, Note_on_c, 0, 74, 82
2, 9185, Note_on_c, 0, 48, 45
2, 9201, Note_on_c, 0, 83, 86
2, 9207, Note_on_c, 0, 55, 54
2, 9216, Note_on_c, 0, 64, 56
2, 9233, Note_on_c, 0, 72, 51
2, 9258, Note_off_c, 0, 74, 0
2, 9578, Note_off_c, 0, 83, 0
2, 9581, Note_off_c, 0, 72, 0
2, 9585, Note_on_c, 0, 81, 66
2, 9593, Note_on_c, 0, 71, 58
2, 9603, Note_off_c, 0, 48, 0
2, 9633, Note_on_c, 0, 72, 51
2, 9634, Note_off_c, 0, 55, 0
2, 9636, Note_off_c, 0, 64, 0
2, 9663, Note_off_c, 0, 71, 0
2, 9940, Note_on_c, 0, 52, 49
2, 9946, Note_off_c, 0, 72, 0
2, 9965, Note_on_c, 0, 76, 72
2, 9972, Note_on_c, 0, 60, 53
2, 9978, Note_on_c, 0, 67, 70
2, 9986, Note_on_c, 0, 84, 76
2, 9998, Note_off_c, 0, 81, 0
2, 10013, Note_on_c, 0, 74, 58
2, 10033, Note_off_c, 0, 76, 0
2, 10158, Note_off_c, 0, 52, 0
2, 10170, Note_off_c, 0, 60, 0
2, 10178, Note_off_c, 0, 67, 0
2, 10322, Note_on_c, 0, 50, 43
2, 10335, Note_off_c, 0, 74, 0
2, 10347, Note_on_c, 0, 57, 54
2, 10355, Note_on_c, 0, 71, 60
2, 10361, Note_on_c, 0, 66, 50
2, 10376, Note_off_c, 0, 84, 0
2, 10389, Note_on_c, 0, 72, 50
2, 10397, Note_on_c, 0, 81, 72
2, 10421, Note_off_c, 0, 71, 0
2, 10515, Note_off_c, 0, 57, 0
2, 10542, Note_off_c, 0, 50, 0
2, 10562, Note_off_c, 0, 66, 0
2, 10703, Note_on_c, 0, 43, 43
2, 10704, Note_off_c, 0, 72, 0
2, 10722, Note_on_c, 0, 50, 50
2, 10746, Note_on_c, 0, 73, 68
2, 10749, Note_on_c, 0, 59, 74
2, 10749, Note_on_c, 0, 83, 64
2, 10755, Note_off_c, 0, 81, 0
2, 10799, Note_on_c, 0, 74, 64
2, 10824, Note_off_c, 0, 73, 0
2, 10930, Note_off_c, 0, 43, 0
2, 10980, Note_off_c, 0, 50, 0
2, 10985, Note_off_c, 0, 59, 0
2, 11061, Note_on_c, 0, 48, 45
2, 11085, Note_off_c, 0, 74, 0
2, 11097, Note_off_c, 0, 83, 0
2, 11103, Note_on_c, 0, 70, 46
2, 11106, Note_on_c, 0, 57, 52
2, 11113, Note_on_c, 0, 79, 72
2, 11120, Note_on_c, 0, 64, 68
2, 11144, Note_on_c, 0, 71, 48
2, 11173, Note_off_c, 0, 70, 0
2, 11310, Note_off_c, 0, 57, 0
2, 11334, Note_off_c, 0, 48, 0
2, 11337, Note_off_c, 0, 64, 0
2, 11429, Note_off_c, 0, 71, 0
2, 11474, Note_on_c, 0, 71, 60
2, 11485, Note_on_c, 0, 81, 54
2, 11494, Note_on_c, 0, 42, 28
2, 11503, Note_off_c, 0, 79, 0
2, 11510, Note_on_c, 0, 72, 52
2, 11513, Note_on_c, 0, 48, 64
2, 11519, Note_on_c, 0, 57, 62
2, 11538, Note_off_c, 0, 71, 0
2, 11767, Note_off_c, 0, 48, 0
2, 11773, Note_off_c, 0, 42, 0
2, 11795, Note_off_c, 0, 57, 0
2, 11857, Note_off_c, 0, 72, 0
2, 11869, Note_on_c, 0, 68, 45
2, 11893, Note_off_c, 0, 81, 0
2, 11899, Note_on_c, 0, 78, 68
2, 11915, Note_on_c, 0, 69, 51
2, 11943, Note_off_c, 0, 68, 0
2, 12245, Note_off_c, 0, 69, 0
2, 12251, Note_on_c, 0, 57, 30
2, 12264, Note_on_c, 0, 71, 56
2, 12271, Note_on_c, 0, 47, 61
2, 12281, Note_on_c, 0, 63, 51
2, 12290, Note_on_c, 0, 79, 68
2, 12298, Note_on_c, 0, 69, 47
2, 12318, Note_off_c, 0, 71, 0
2, 12322, Note_off_c, 0, 78, 0
2, 12487, Note_off_c, 0, 63, 0
2, 12490, Note_off_c, 0, 47, 0
2, 12494, Note_off_c, 0, 57, 0
2, 12643, Note_off_c, 0, 69, 0
2, 12648, Note_on_c, 0, 63, 39
2, 12664, Note_off_c, 0, 79, 0
2, 12668, Note_on_c, 0, 71, 54
2, 12672, Note_on_c, 0, 40, 53
2, 12694, Note_on_c, 0, 55, 60
2, 12700, Note_on_c, 0, 64, 49
2, 12714, Note_off_c, 0, 40, 0
2, 12727, Note_off_c, 0, 63, 0
2, 12827, Control_c, 0, 10, 64
2, 12996, Note_off_c, 0, 55, 0
2, 13022, Note_off_c, 0, 64, 0
2, 13022, Note_on_c, 0, 52, 46
2, 13035, Note_on_c, 0, 66, 39
2, 13036, Note_on_c, 0, 76, 78
2, 13040, Note_off_c, 0, 71, 0
2, 13058, Note_on_c, 0, 55, 66
2, 13082, Note_on_c, 0, 67, 56
2, 13084, Note_off_c, 0, 52, 0
2, 13106, Note_off_c, 0, 66, 0
2, 13367, Note_off_c, 0, 55, 0
2, 13386, Note_on_c, 0, 47, 60
2, 13394, Note_on_c, 0, 70, 46
2, 13402, Note_off_c, 0, 67, 0
2, 13430, Note_off_c, 0, 76, 0
2, 13432, Note_on_c, 0, 79, 88
2, 13436, Note_on_c, 0, 71, 50
2, 13449, Note_on_c, 0, 40, 56
2, 13456, Note_off_c, 0, 47, 0
2, 13465, Note_off_c, 0, 70, 0
2, 13662, Note_off_c, 0, 40, 0
2, 13781, Note_off_c, 0, 79, 0
2, 13784, Note_off_c, 0, 71, 0
2, 13802, Note_on_c, 0, 79, 80
2, 13809, Note_on_c, 0, 71, 66
2, 13819, Note_on_c, 0, 45, 78
2, 13846, Note_on_c, 0, 69, 56
2, 13866, Note_off_c, 0, 71, 0
2, 13875, Note_on_c, 0, 60, 70
2, 13909, Note_off_c, 0, 45, 0
2, 14154, Note_off_c, 0, 60, 0
2, 14168, Note_off_c, 0, 69, 0
2, 14175, Note_on_c, 0, 54, 52
2, 14181, Note_on_c, 0, 68, 53
2, 14201, Note_off_c, 0, 79, 0
2, 14210, Note_on_c, 0, 78, 82
2, 14219, Note_on_c, 0, 60, 64
2, 14232, Note_on_c, 0, 69, 47
2, 14254, Note_off_c, 0, 68, 0
2, 14257, Note_off_c, 0, 54, 0
2, 14555, Note_off_c, 0, 60, 0
2, 14555, Note_on_c, 0, 54, 56
2, 14558, Note_off_c, 0, 69, 0
2, 14575, Note_on_c, 0, 72, 52
2, 14590, Note_on_c, 0, 81, 82
2, 14595, Note_off_c, 0, 78, 0
2, 14601, Note_on_c, 0, 71, 46
2, 14617, Note_on_c, 0, 45, 76
2, 14623, Note_off_c, 0, 72, 0
2, 14663, Note_off_c, 0, 54, 0
2, 14925, Note_off_c, 0, 45, 0
2, 14942, Note_off_c, 0, 71, 0
2, 14948, Note_off_c, 0, 81, 0
2, 14965, Note_on_c, 0, 79, 86
2, 14968, Note_on_c, 0, 47, 72
2, 14984, Note_on_c, 0, 71, 53
2, 15013, Note_on_c, 0, 69, 45
2, 15031, Note_off_c, 0, 71, 0
2, 15034, Note_on_c, 0, 63, 62
2, 15097, Note_off_c, 0, 47, 0
2, 15318, Note_off_c, 0, 63, 0
2, 15321, Note_on_c, 0, 54, 48
2, 15338, Note_off_c, 0, 79, 0
2, 15344, Note_off_c, 0, 69, 0
2, 15350, Note_on_c, 0, 78, 78
2, 15363, Note_on_c, 0, 68, 50
2, 15368, Note_on_c, 0, 63, 68
2, 15414, Note_on_c, 0, 69, 52
2, 15416, Note_off_c, 0, 54, 0
2, 15438, Note_off_c, 0, 68, 0
2, 15708, Note_off_c, 0, 69, 0
2, 15709, Note_off_c, 0, 63, 0
2, 15712, Note_on_c, 0, 57, 74
2, 15719, Note_on_c, 0, 71, 60
2, 15730, Note_off_c, 0, 78, 0
2, 15748, Note_on_c, 0, 79, 90
2, 15771, Note_on_c, 0, 69, 51
2, 15775, Note_off_c, 0, 57, 0
2, 15778, Note_on_c, 0, 47, 70
2, 15806, Note_off_c, 0, 71, 0
2, 16091, Note_off_c, 0, 69, 0
2, 16091, Note_off_c, 0, 79, 0
2, 16104, Note_on_c, 0, 78, 74
2, 16107, Note_off_c, 0, 47, 0
2, 16116, Note_on_c, 0, 52, 53
2, 16124, Note_on_c, 0, 69, 70
2, 16166, Note_on_c, 0, 64, 48
2, 16167, Note_on_c, 0, 67, 54
2, 16180, Note_off_c, 0, 69, 0
2, 16364, Note_off_c, 0, 52, 0
2, 16456, Note_off_c, 0, 64, 0
2, 16482, Note_off_c, 0, 67, 0
2, 16492, Note_off_c, 0, 78, 0
2, 16495, Note_on_c, 0, 66, 60
2, 16496, Note_on_c, 0, 59, 78
2, 16499, Note_on_c, 0, 76, 64
2, 16544, Note_on_c, 0, 67, 60
2, 16560, Note_on_c, 0, 64, 54
2, 16572, Note_off_c, 0, 66, 0
2, 16584, Note_off_c, 0, 59, 0
2, 16847, Note_off_c, 0, 64, 0
2, 16853, Note_off_c, 0, 67, 0
2, 16856, Note_off_c, 0, 76, 0
2, 16861, Note_on_c, 0, 64, 68
2, 16875, Note_on_c, 0, 74, 80
2, 16880, Note_on_c, 0, 44, 72
2, 16915, Note_on_c, 0, 65, 58
2, 16919, Note_on_c, 0, 59, 72
2, 16938, Note_off_c, 0, 64, 0
2, 16978, Note_off_c, 0, 44, 0
2, 17216, Note_off_c, 0, 65, 0
2, 17218, Note_off_c, 0, 59, 0
2, 17242, Note_on_c, 0, 70, 78
2, 17248, Note_off_c, 0, 74, 0
2, 17251, Note_on_c, 0, 47, 80
2, 17259, Note_on_c, 0, 77, 80
2, 17280, Control_c, 0, 10, 64
2, 17285, Note_on_c, 0, 62, 74
2, 17296, Note_on_c, 0, 71, 54
2, 17334, Note_off_c, 0, 70, 0
2, 17360, Note_off_c, 0, 47, 0
2, 17364, Control_c, 0, 64, 127
2, 17610, Note_off_c, 0, 71, 0
2, 17619, Note_off_c, 0, 62, 0
2, 17623, Note_off_c, 0, 77, 0
2, 17626, Note_on_c, 0, 50, 74
2, 17629, Note_on_c, 0, 73, 70
2, 17631, Control_c, 0, 64, 0
2, 17636, Note_on_c, 0, 83, 84
2, 17649, Note_on_c, 0, 65, 78
2, 17666, Note_on_c, 0, 74, 76
2, 17680, Control_c, 0, 64, 127
2, 17692, Note_off_c, 0, 73, 0
2, 17725, Note_off_c, 0, 50, 0
2, 17970, Control_c, 0, 64, 0
2, 17985, Note_off_c, 0, 74, 0
2, 18011, Note_on_c, 0, 76, 66
2, 18015, Note_off_c, 0, 83, 0
2, 18020, Note_off_c, 0, 65, 0
2, 18022, Note_on_c, 0, 53, 76
2, 18027, Note_on_c, 0, 86, 92
2, 18033, Note_on_c, 0, 77, 45
2, 18046, Control_c, 0, 64, 127
2, 18064, Note_off_c, 0, 76, 0
2, 18064, Note_on_c, 0, 68, 92
2, 18112, Note_off_c, 0, 53, 0
2, 18371, Note_off_c, 0, 77, 0
2, 18379, Note_off_c, 0, 68, 0
2, 18383, Note_off_c, 0, 86, 0
2, 18395, Control_c, 0, 64, 0
2, 18399, Note_on_c, 0, 76, 68
2, 18399, Note_on_c, 0, 86, 80
2, 18432, Note_on_c, 0, 56, 53
2, 18432, Note_on_c, 0, 48, 86
2, 18433, Note_on_c, 0, 77, 58
2, 18439, Note_on_c, 0, 68, 104
2, 18446, Note_on_c, 0, 59, 72
2, 18456, Note_off_c, 0, 76, 0
2, 18466, Control_c, 0, 64, 127
2, 18526, Control_c, 0, 10, 64
2, 18581, Note_off_c, 0, 59, 0
2, 18581, Note_off_c, 0, 56, 0
2, 18592, Note_off_c, 0, 48, 0
2, 18598, Note_off_c, 0, 68, 0
2, 18773, Note_off_c, 0, 77, 0
2, 18780, Note_on_c, 0, 75, 47
2, 18783, Control_c, 0, 64, 0
2, 18787, Note_off_c, 0, 86, 0
2, 18789, Note_on_c, 0, 48, 76
2, 18805, Note_on_c, 0, 84, 82
2, 18808, Note_on_c, 0, 57, 64
2, 18812, Note_on_c, 0, 76, 48
2, 18819, Note_on_c, 0, 69, 102
2, 18828, Note_on_c, 0, 60, 72
2, 18841, Control_c, 0, 64, 127
2, 18844, Note_off_c, 0, 75, 0
2, 19007, Note_off_c, 0, 48, 0
2, 19015, Note_off_c, 0, 57, 0
2, 19017, Note_off_c, 0, 60, 0
2, 19017, Note_off_c, 0, 69, 0
2, 19093, Control_c, 0, 64, 0
2, 19168, Note_off_c, 0, 76, 0
2, 19175, Note_on_c, 0, 73, 48
2, 19195, Note_off_c, 0, 84, 0
2, 19195, Note_on_c, 0, 83, 78
2, 19211, Note_on_c, 0, 74, 64
2, 19242, Note_off_c, 0, 73, 0
2, 19539, Note_off_c, 0, 83, 0
2, 19562, Note_off_c, 0, 74, 0
2, 19564, Note_on_c, 0, 83, 80
2, 19581, Note_on_c, 0, 73, 56
2, 19584, Control_c, 0, 10, 64
2, 19601, Note_on_c, 0, 38, 74
2, 19623, Note_on_c, 0, 74, 56
2, 19639, Control_c, 0, 64, 127
2, 19653, Note_off_c, 0, 73, 0
2, 19658, Note_off_c, 0, 38, 0
2, 19945, Note_off_c, 0, 74, 0
2, 19952, Note_on_c, 0, 81, 64
2, 19957, Note_on_c, 0, 71, 47
2, 19977, Note_on_c, 0, 62, 82
2, 19981, Note_off_c, 0, 83, 0
2, 19995, Note_on_c, 0, 72, 41
2, 20021, Note_off_c, 0, 71, 0
2, 20306, Note_on_c, 0, 68, 46
2, 20309, Note_off_c, 0, 72, 0
2, 20338, Note_on_c, 0, 50, 62
2, 20350, Note_on_c, 0, 69, 62
2, 20353, Note_on_c, 0, 74, 62
2, 20370, Note_off_c, 0, 81, 0
2, 20379, Note_off_c, 0, 68, 0
2, 20411, Control_c, 0, 64, 0
2, 20455, Note_off_c, 0, 74, 0
2, 20664, Note_off_c, 0, 69, 0
2, 20684, Note_on_c, 0, 68, 52
2, 20719, Note_on_c, 0, 60, 78
2, 20721, Note_on_c, 0, 54, 43
2, 20729, Note_on_c, 0, 69, 54
2, 20734, Note_off_c, 0, 50, 0
2, 20744, Note_on_c, 0, 74, 78
2, 20753, Note_off_c, 0, 68, 0
2, 20950, Note_off_c, 0, 54, 0
2, 20950, Note_off_c, 0, 60, 0
2, 20959, Note_off_c, 0, 62, 0
2, 21063, Note_off_c, 0, 69, 0
2, 21078, Note_on_c, 0, 73, 44
2, 21113, Note_on_c, 0, 83, 82
2, 21127, Note_on_c, 0, 74, 66
2, 21136, Note_off_c, 0, 74, 0
2, 21155, Note_off_c, 0, 73, 0
2, 21358, Note_off_c, 0, 83, 0
2, 21362, Note_off_c, 0, 74, 0
2, 21487, Note_on_c, 0, 71, 46
2, 21490, Note_on_c, 0, 81, 68
2, 21509, Note_on_c, 0, 72, 53
2, 21534, Note_off_c, 0, 71, 0
2, 21823, Note_off_c, 0, 81, 0
2, 21824, Note_off_c, 0, 72, 0
2, 21867, Note_on_c, 0, 79, 82
2, 21868, Note_on_c, 0, 43, 74
2, 21900, Note_on_c, 0, 70, 33
2, 21913, Note_off_c, 0, 43, 0
2, 21931, Note_on_c, 0, 71, 56
2, 21964, Note_off_c, 0, 70, 0
2, 21988, Control_c, 0, 64, 127
2, 22227, Note_off_c, 0, 71, 0
2, 22238, Note_on_c, 0, 73, 45
2, 22262, Note_off_c, 0, 79, 0
2, 22265, Note_on_c, 0, 62, 66
2, 22267, Note_on_c, 0, 83, 68
2, 22277, Note_on_c, 0, 74, 49
2, 22313, Note_off_c, 0, 73, 0
2, 22512, Note_off_c, 0, 83, 0
2, 22594, Note_off_c, 0, 74, 0
2, 22613, Note_on_c, 0, 73, 41
2, 22629, Note_on_c, 0, 74, 66
2, 22642, Note_on_c, 0, 50, 51
2, 22651, Note_on_c, 0, 83, 76
2, 22681, Note_off_c, 0, 73, 0
2, 22972, Note_off_c, 0, 83, 0
2, 22982, Control_c, 0, 64, 0
2, 22991, Note_off_c, 0, 74, 0
2, 23003, Note_on_c, 0, 73, 35
2, 23016, Note_on_c, 0, 74, 72
2, 23021, Note_on_c, 0, 83, 84
2, 23026, Note_off_c, 0, 62, 0
2, 23036, Note_on_c, 0, 44, 41
2, 23045, Note_off_c, 0, 50, 0
2, 23059, Note_off_c, 0, 73, 0
2, 23100, Note_off_c, 0, 44, 0
2, 23175, Control_c, 0, 64, 127
2, 23378, Note_off_c, 0, 74, 0
2, 23385, Note_on_c, 0, 76, 70
2, 23390, Note_on_c, 0, 62, 68
2, 23407, Note_on_c, 0, 77, 49
2, 23416, Note_on_c, 0, 86, 74
2, 23434, Note_off_c, 0, 83, 0
2, 23447, Note_off_c, 0, 76, 0
2, 23756, Note_off_c, 0, 86, 0
2, 23769, Note_on_c, 0, 50, 78
2, 23772, Note_off_c, 0, 77, 0
2, 23779, Note_on_c, 0, 84, 74
2, 23783, Note_on_c, 0, 75, 54
2, 23817, Note_on_c, 0, 76, 62
2, 23845, Note_off_c, 0, 75, 0
2, 24101, Control_c, 0, 64, 0
2, 24150, Note_off_c, 0, 76, 0
2, 24152, Note_off_c, 0, 84, 0
2, 24155, Note_on_c, 0, 73, 43
2, 24158, Note_on_c, 0, 45, 76
2, 24168, Note_off_c, 0, 50, 0
2, 24176, Note_off_c, 0, 62, 0
2, 24179, Note_on_c, 0, 74, 54
2, 24183, Note_on_c, 0, 83, 78
2, 24215, Note_off_c, 0, 73, 0
2, 24225, Note_off_c, 0, 45, 0
2, 24342, Control_c, 0, 64, 127
2, 24538, Note_off_c, 0, 74, 0
2, 24550, Note_on_c, 0, 71, 48
2, 24551, Note_on_c, 0, 62, 66
2, 24563, Note_on_c, 0, 81, 66
2, 24576, Note_on_c, 0, 72, 56
2, 24596, Note_off_c, 0, 83, 0
2, 24604, Note_off_c, 0, 71, 0
2, 24894, Note_off_c, 0, 72, 0
2, 24919, Note_on_c, 0, 68, 47
2, 24943, Note_on_c, 0, 60, 46
2, 24943, Note_on_c, 0, 54, 44
2, 24949, Note_on_c, 0, 50, 54
2, 24951, Note_on_c, 0, 69, 60
2, 24969, Note_on_c, 0, 74, 72
2, 24981, Note_off_c, 0, 68, 0
2, 24997, Note_off_c, 0, 81, 0
2, 25139, Note_off_c, 0, 60, 0
2, 25140, Note_off_c, 0, 50, 0
2, 25148, Note_off_c, 0, 54, 0
2, 25150, Note_off_c, 0, 62, 0
2, 25278, Note_off_c, 0, 74, 0
2, 25279, Control_c, 0, 64, 0
2, 25291, Note_off_c, 0, 69, 0
2, 25307, Note_on_c, 0, 68, 37
2, 25332, Note_on_c, 0, 69, 51
2, 25344, Note_on_c, 0, 38, 74
2, 25351, Note_on_c, 0, 74, 70
2, 25370, Note_off_c, 0, 68, 0
2, 25392, Note_off_c, 0, 38, 0
2, 25423, Control_c, 0, 10, 64
2, 25502, Control_c, 0, 64, 127
2, 25584, Note_off_c, 0, 74, 0
2, 25692, Note_off_c, 0, 69, 0
2, 25695, Note_on_c, 0, 70, 49
2, 25723, Note_on_c, 0, 74, 68
2, 25728, Note_on_c, 0, 62, 78
2, 25748, Note_on_c, 0, 71, 50
2, 25773, Note_off_c, 0, 70, 0
2, 25985, Note_off_c, 0, 74, 0
2, 26078, Note_off_c, 0, 71, 0
2, 26086, Note_on_c, 0, 67, 58
2, 26087, Note_on_c, 0, 54, 39
2, 26090, Note_on_c, 0, 60, 53
2, 26094, Note_on_c, 0, 50, 46
2, 26106, Note_on_c, 0, 74, 82
2, 26119, Note_on_c, 0, 69, 52
2, 26148, Note_off_c, 0, 67, 0
2, 26397, Note_off_c, 0, 74, 0
2, 26407, Control_c, 0, 64, 0
2, 26465, Note_off_c, 0, 69, 0
2, 26467, Note_off_c, 0, 50, 0
2, 26471, Note_on_c, 0, 66, 44
2, 26478, Note_off_c, 0, 60, 0
2, 26485, Note_off_c, 0, 54, 0
2, 26485, Note_on_c, 0, 43, 80
2, 26489, Note_on_c, 0, 71, 76
2, 26491, Note_off_c, 0, 62, 0
2, 26509, Note_on_c, 0, 67, 44
2, 26528, Note_off_c, 0, 43, 0
2, 26537, Note_off_c, 0, 66, 0
2, 26686, Control_c, 0, 64, 127
2, 26808, Note_on_c, 0, 64, 64
2, 26831, Note_off_c, 0, 67, 0
2, 26839, Note_on_c, 0, 62, 68
2, 26855, Note_on_c, 0, 70, 39
2, 26866, Note_off_c, 0, 71, 0
2, 26872, Note_on_c, 0, 74, 80
2, 26874, Note_off_c, 0, 64, 0
2, 26889, Note_on_c, 0, 71, 52
2, 26919, Note_off_c, 0, 70, 0
2, 27203, Note_off_c, 0, 71, 0
2, 27216, Note_off_c, 0, 74, 0
2, 27218, Note_on_c, 0, 73, 51
2, 27244, Note_on_c, 0, 50, 62
2, 27248, Note_on_c, 0, 83, 74
2, 27256, Note_on_c, 0, 74, 72
2, 27286, Note_off_c, 0, 73, 0
2, 27556, Note_off_c, 0, 83, 0
2, 27591, Note_off_c, 0, 74, 0
2, 27600, Control_c, 0, 64, 0
2, 27612, Note_on_c, 0, 83, 76
2, 27613, Note_on_c, 0, 73, 42
2, 27623, Note_on_c, 0, 44, 54
2, 27646, Note_off_c, 0, 50, 0
2, 27659, Note_on_c, 0, 74, 52
2, 27668, Note_off_c, 0, 62, 0
2, 27694, Note_off_c, 0, 73, 0
2, 27716, Note_off_c, 0, 44, 0
2, 27883, Control_c, 0, 64, 127
2, 27957, Note_on_c, 0, 64, 64
2, 27979, Note_off_c, 0, 74, 0
2, 27986, Note_on_c, 0, 62, 64
2, 27993, Note_on_c, 0, 76, 68
2, 28011, Note_on_c, 0, 77, 46
2, 28012, Note_off_c, 0, 83, 0
2, 28017, Note_off_c, 0, 64, 0
2, 28036, Note_on_c, 0, 86, 74
2, 28051, Note_off_c, 0, 76, 0
2, 28358, Note_on_c, 0, 75, 54
2, 28363, Note_off_c, 0, 86, 0
2, 28364, Note_off_c, 0, 77, 0
2, 28387, Note_on_c, 0, 76, 54
2, 28405, Note_on_c, 0, 84, 66
2, 28417, Note_on_c, 0, 50, 80
2, 28427, Note_off_c, 0, 75, 0
2, 28757, Note_off_c, 0, 84, 0
2, 28764, Note_on_c, 0, 73, 53
2, 28771, Note_off_c, 0, 76, 0
2, 28777, Note_off_c, 0, 62, 0
2, 28791, Note_on_c, 0, 45, 88
2, 28791, Note_on_c, 0, 83, 74
2, 28792, Note_off_c, 0, 50, 0
2, 28794, Note_on_c, 0, 74, 60
2, 28795, Control_c, 0, 64, 0
2, 28830, Note_off_c, 0, 73, 0
2, 28866, Note_off_c, 0, 45, 0
2, 29072, Control_c, 0, 64, 127
2, 29113, Note_on_c, 0, 64, 70
2, 29141, Note_off_c, 0, 74, 0
2, 29153, Note_on_c, 0, 62, 80
2, 29163, Note_on_c, 0, 71, 50
2, 29182, Note_off_c, 0, 64, 0
2, 29193, Note_off_c, 0, 83, 0
2, 29198, Note_on_c, 0, 81, 56
2, 29203, Note_on_c, 0, 72, 54
2, 29235, Note_off_c, 0, 71, 0
2, 29535, Note_on_c, 0, 68, 48
2, 29549, Note_on_c, 0, 60, 62
2, 29550, Note_off_c, 0, 72, 0
2, 29552, Note_on_c, 0, 54, 45
2, 29558, Note_on_c, 0, 50, 52
2, 29576, Note_on_c, 0, 74, 70
2, 29577, Note_on_c, 0, 69, 62
2, 29601, Note_off_c, 0, 81, 0
2, 29614, Note_off_c, 0, 68, 0
2, 29889, Note_off_c, 0, 69, 0
2, 29895, Note_off_c, 0, 74, 0
2, 29909, Note_on_c, 0, 68, 41
2, 29919, Control_c, 0, 64, 0
2, 29938, Note_on_c, 0, 69, 49
2, 29941, Note_on_c, 0, 74, 72
2, 29952, Note_on_c, 0, 38, 76
2, 29952, Control_c, 0, 10, 64
2, 29964, Note_off_c, 0, 50, 0
2, 29968, Note_off_c, 0, 54, 0
2, 29973, Note_off_c, 0, 60, 0
2, 29975, Note_off_c, 0, 62, 0
2, 29976, Note_off_c, 0, 68, 0
2, 29999, Note_off_c, 0, 38, 0
2, 30163, Control_c, 0, 64, 127
2, 30224, Note_off_c, 0, 74, 0
2, 30282, Note_on_c, 0, 64, 70
2, 30288, Note_off_c, 0, 69, 0
2, 30294, Note_on_c, 0, 70, 46
2, 30322, Note_on_c, 0, 62, 80
2, 30333, Note_on_c, 0, 74, 74
2, 30340, Note_on_c, 0, 71, 51
2, 30341, Note_off_c, 0, 64, 0
2, 30371, Note_off_c, 0, 70, 0
2, 30655, Note_off_c, 0, 74, 0
2, 30671, Note_off_c, 0, 71, 0
2, 30684, Note_on_c, 0, 60, 66
2, 30688, Note_on_c, 0, 67, 50
2, 30690, Note_on_c, 0, 54, 30
2, 30695, Note_on_c, 0, 50, 41
2, 30718, Note_on_c, 0, 69, 51
2, 30719, Note_on_c, 0, 74, 68
2, 30746, Note_off_c, 0, 67, 0
2, 31009, Control_c, 0, 64, 0
2, 31073, Note_off_c, 0, 74, 0
2, 31080, Note_off_c, 0, 69, 0
2, 31097, Note_on_c, 0, 66, 43
2, 31105, Note_off_c, 0, 54, 0
2, 31113, Note_off_c, 0, 60, 0
2, 31113, Note_on_c, 0, 43, 64
2, 31116, Note_on_c, 0, 71, 66
2, 31125, Note_on_c, 0, 67, 53
2, 31127, Note_off_c, 0, 50, 0
2, 31155, Note_off_c, 0, 66, 0
2, 31167, Note_off_c, 0, 62, 0
2, 31232, Control_c, 0, 64, 127
2, 31340, Note_off_c, 0, 43, 0
2, 31457, Note_off_c, 0, 67, 0
2, 31479, Note_on_c, 0, 70, 39
2, 31490, Note_off_c, 0, 71, 0
2, 31506, Note_on_c, 0, 74, 78
2, 31513, Note_on_c, 0, 62, 72
2, 31514, Note_on_c, 0, 71, 54
2, 31517, Note_on_c, 0, 59, 68
2, 31538, Note_off_c, 0, 70, 0
2, 31811, Note_off_c, 0, 62, 0
2, 31829, Note_off_c, 0, 59, 0
2, 31834, Note_off_c, 0, 74, 0
2, 31839, Note_off_c, 0, 71, 0
2, 31854, Note_on_c, 0, 73, 50
2, 31855, Note_on_c, 0, 79, 72
2, 31872, Note_on_c, 0, 67, 68
2, 31876, Note_on_c, 0, 62, 74
2, 31886, Note_on_c, 0, 74, 68
2, 31918, Note_off_c, 0, 73, 0
2, 32088, Note_off_c, 0, 67, 0
2, 32110, Note_off_c, 0, 62, 0
2, 32205, Note_off_c, 0, 79, 0
2, 32215, Note_off_c, 0, 74, 0
2, 32215, Note_on_c, 0, 67, 53
2, 32217, Note_on_c, 0, 71, 66
2, 32222, Note_on_c, 0, 83, 60
2, 32248, Note_on_c, 0, 78, 50
2, 32269, Note_on_c, 0, 79, 42
2, 32301, Note_off_c, 0, 78, 0
2, 32537, Note_off_c, 0, 71, 0
2, 32553, Note_off_c, 0, 67, 0
2, 32563, Note_off_c, 0, 79, 0
2, 32574, Note_on_c, 0, 82, 50
2, 32578, Note_off_c, 0, 83, 0
2, 32584, Note_on_c, 0, 83, 60
2, 32590, Note_on_c, 0, 74, 80
2, 32591, Note_on_c, 0, 71, 74
2, 32597, Note_on_c, 0, 86, 78
2, 32672, Note_off_c, 0, 82, 0
2, 32915, Note_off_c, 0, 74, 0
2, 32926, Note_off_c, 0, 71, 0
2, 32954, Note_off_c, 0, 83, 0
2, 32962, Note_on_c, 0, 74, 84
2, 32962, Note_on_c, 0, 79, 88
2, 32963, Note_on_c, 0, 85, 52
2, 32987, Note_off_c, 0, 86, 0
2, 33008, Note_on_c, 0, 86, 56
2, 33025, Note_on_c, 0, 91, 84
2, 33036, Note_off_c, 0, 85, 0
2, 33349, Note_off_c, 0, 79, 0
2, 33352, Note_off_c, 0, 74, 0
2, 33385, Note_off_c, 0, 86, 0
2, 33387, Note_on_c, 0, 83, 94
2, 33387, Note_on_c, 0, 79, 98
2, 33403, Note_on_c, 0, 90, 80
2, 33412, Note_off_c, 0, 91, 0
2, 33413, Note_on_c, 0, 95, 96
2, 33447, Note_on_c, 0, 91, 74
2, 33472, Note_off_c, 0, 90, 0
2, 33626, Note_off_c, 0, 79, 0
2, 33627, Note_off_c, 0, 83, 0
2, 33721, Note_off_c, 0, 91, 0
2, 33755, Control_c, 0, 64, 0
2, 33793, Note_on_c, 0, 91, 81
2, 33794, Note_off_c, 0, 95, 0
2, 33798, Note_on_c, 0, 85, 50
2, 33838, Note_on_c, 0, 86, 66
2, 33871, Note_off_c, 0, 85, 0
2, 34154, Note_on_c, 0, 82, 53
2, 34165, Note_off_c, 0, 86, 0
2, 34192, Note_on_c, 0, 83, 62
2, 34196, Note_on_c, 0, 86, 72
2, 34220, Note_off_c, 0, 91, 0
2, 34223, Note_off_c, 0, 82, 0
2, 34527, Note_off_c, 0, 83, 0
2, 34538, Note_on_c, 0, 78, 42
2, 34570, Note_off_c, 0, 86, 0
2, 34572, Note_on_c, 0, 83, 66
2, 34577, Note_on_c, 0, 79, 58
2, 34603, Note_off_c, 0, 78, 0
2, 34849, Note_off_c, 0, 83, 0
2, 34897, Note_off_c, 0, 79, 0
2, 34925, Note_on_c, 0, 73, 30
2, 34939, Note_on_c, 0, 79, 50
2, 34955, Note_on_c, 0, 74, 49
2, 34999, Note_off_c, 0, 73, 0
2, 35254, Note_off_c, 0, 79, 0
2, 35302, Note_on_c, 0, 70, 41
2, 35310, Note_on_c, 0, 74, 42
2, 35319, Note_off_c, 0, 74, 0
2, 35347, Note_on_c, 0, 71, 37
2, 35371, Note_off_c, 0, 70, 0
2, 35546, Note_off_c, 0, 74, 0
2, 35624, Note_off_c, 0, 71, 0
2, 35712, Note_on_c, 0, 55, 37
2, 35712, Note_on_c, 0, 47, 37
2, 35712, Note_on_c, 0, 40, 37
2, 35712, Control_c, 0, 10, 64
2, 35712, Note_on_c, 0, 64, 56
2, 35712, Note_on_c, 0, 63, 29
2, 35712, Control_c, 0, 10, 64
2, 35712, Note_on_c, 0, 71, 54
2, 35771, Note_off_c, 0, 63, 0
2, 35971, Control_c, 0, 10, 64
2, 35993, Note_off_c, 0, 47, 0
2, 35994, Note_off_c, 0, 55, 0
2, 36009, Note_off_c, 0, 40, 0
2, 36081, Note_on_c, 0, 66, 39
2, 36100, Note_on_c, 0, 67, 74
2, 36113, Note_on_c, 0, 76, 76
2, 36122, Note_off_c, 0, 64, 0
2, 36129, Note_off_c, 0, 66, 0
2, 36142, Note_off_c, 0, 71, 0
2, 36455, Note_on_c, 0, 43, 39
2, 36479, Note_on_c, 0, 59, 54
2, 36482, Note_on_c, 0, 52, 51
2, 36483, Note_on_c, 0, 79, 80
2, 36487, Note_on_c, 0, 70, 39
2, 36500, Note_off_c, 0, 76, 0
2, 36504, Note_on_c, 0, 71, 68
2, 36510, Note_off_c, 0, 67, 0
2, 36534, Note_off_c, 0, 70, 0
2, 36675, Note_off_c, 0, 43, 0
2, 36686, Note_off_c, 0, 52, 0
2, 36710, Note_off_c, 0, 59, 0
2, 36830, Note_off_c, 0, 79, 0
2, 36853, Note_off_c, 0, 71, 0
2, 36856, Note_on_c, 0, 79, 76
2, 36857, Note_on_c, 0, 45, 46
2, 36873, Note_on_c, 0, 71, 78
2, 36885, Note_on_c, 0, 60, 56
2, 36888, Note_on_c, 0, 52, 46
2, 36898, Note_on_c, 0, 69, 51
2, 36933, Note_off_c, 0, 71, 0
2, 37227, Note_off_c, 0, 45, 0
2, 37236, Note_off_c, 0, 52, 0
2, 37236, Note_off_c, 0, 60, 0
2, 37251, Note_on_c, 0, 78, 58
2, 37256, Note_off_c, 0, 69, 0
2, 37263, Note_on_c, 0, 68, 53
2, 37270, Note_off_c, 0, 79, 0
2, 37294, Note_on_c, 0, 69, 47
2, 37325, Note_off_c, 0, 68, 0
2, 37615, Note_on_c, 0, 57, 47
2, 37620, Note_on_c, 0, 48, 41
2, 37631, Note_on_c, 0, 64, 50
2, 37643, Note_on_c, 0, 72, 58
2, 37649, Note_on_c, 0, 81, 62
2, 37651, Note_off_c, 0, 69, 0
2, 37661, Note_on_c, 0, 71, 35
2, 37672, Note_off_c, 0, 78, 0
2, 37699, Note_off_c, 0, 72, 0
2, 37897, Note_off_c, 0, 48, 0
2, 37923, Note_off_c, 0, 64, 0
2, 37940, Note_off_c, 0, 57, 0
2, 38006, Note_off_c, 0, 71, 0
2, 38009, Note_on_c, 0, 57, 29
2, 38019, Note_on_c, 0, 47, 50
2, 38026, Note_on_c, 0, 71, 62
2, 38028, Note_on_c, 0, 79, 68
2, 38029, Note_on_c, 0, 63, 47
2, 38056, Note_off_c, 0, 81, 0
2, 38057, Note_on_c, 0, 69, 51
2, 38091, Note_off_c, 0, 71, 0
2, 38392, Note_off_c, 0, 69, 0
2, 38394, Note_on_c, 0, 68, 46
2, 38396, Note_off_c, 0, 63, 0
2, 38396, Note_off_c, 0, 47, 0
2, 38405, Note_off_c, 0, 57, 0
2, 38406, Note_on_c, 0, 78, 48
2, 38425, Note_off_c, 0, 79, 0
2, 38431, Note_on_c, 0, 69, 44
2, 38475, Note_off_c, 0, 68, 0
2, 38759, Note_on_c, 0, 47, 49
2, 38762, Note_off_c, 0, 69, 0
2, 38773, Note_on_c, 0, 51, 43
2, 38778, Note_on_c, 0, 71, 51
2, 38784, Note_on_c, 0, 79, 60
2, 38789, Note_on_c, 0, 69, 60
2, 38798, Note_off_c, 0, 78, 0
2, 38826, Note_off_c, 0, 71, 0
2, 39061, Note_off_c, 0, 47, 0
2, 39079, Note_off_c, 0, 51, 0
2, 39143, Note_on_c, 0, 40, 47
2, 39149, Note_on_c, 0, 78, 56
2, 39150, Note_off_c, 0, 69, 0
2, 39159, Note_on_c, 0, 69, 46
2, 39178, Note_on_c, 0, 47, 62
2, 39179, Note_off_c, 0, 79, 0
2, 39180, Note_on_c, 0, 55, 53
2, 39205, Note_on_c, 0, 67, 26
2, 39270, Note_off_c, 0, 69, 0
2, 39522, Note_off_c, 0, 67, 0
2, 39527, Note_off_c, 0, 40, 0
2, 39528, Note_on_c, 0, 66, 48
2, 39536, Note_on_c, 0, 76, 58
2, 39540, Note_off_c, 0, 47, 0
2, 39561, Note_on_c, 0, 67, 52
2, 39562, Note_off_c, 0, 55, 0
2, 39572, Note_off_c, 0, 78, 0
2, 39591, Note_off_c, 0, 66, 0
2, 39859, Note_off_c, 0, 76, 0
2, 39875, Note_on_c, 0, 42, 42
2, 39886, Note_on_c, 0, 68, 43
2, 39900, Note_off_c, 0, 67, 0
2, 39903, Note_on_c, 0, 50, 52
2, 39904, Note_on_c, 0, 57, 58
2, 39910, Note_on_c, 0, 69, 58
2, 39926, Note_on_c, 0, 74, 56
2, 39943, Note_off_c, 0, 68, 0
2, 40213, Note_off_c, 0, 42, 0
2, 40237, Note_off_c, 0, 50, 0
2, 40252, Note_off_c, 0, 57, 0
2, 40266, Note_on_c, 0, 43, 52
2, 40279, Note_on_c, 0, 66, 45
2, 40281, Note_off_c, 0, 69, 0
2, 40283, Note_off_c, 0, 74, 0
2, 40287, Note_on_c, 0, 59, 68
2, 40299, Note_on_c, 0, 50, 51
2, 40308, Note_on_c, 0, 67, 49
2, 40318, Note_on_c, 0, 74, 84
2, 40341, Note_off_c, 0, 66, 0
2, 40679, Note_on_c, 0, 70, 46
2, 40687, Note_on_c, 0, 79, 80
2, 40694, Note_on_c, 0, 71, 54
2, 40695, Note_off_c, 0, 67, 0
2, 40717, Note_off_c, 0, 50, 0
2, 40718, Note_off_c, 0, 43, 0
2, 40720, Note_off_c, 0, 59, 0
2, 40721, Note_off_c, 0, 74, 0
2, 40768, Note_off_c, 0, 70, 0
2, 41027, Note_on_c, 0, 47, 50
2, 41051, Note_on_c, 0, 55, 54
2, 41056, Note_on_c, 0, 62, 74
2, 41069, Note_on_c, 0, 73, 47
2, 41079, Note_on_c, 0, 74, 74
2, 41080, Note_off_c, 0, 71, 0
2, 41085, Note_on_c, 0, 83, 66
2, 41120, Note_off_c, 0, 79, 0
2, 41123, Note_off_c, 0, 73, 0
2, 41343, Note_off_c, 0, 47, 0
2, 41377, Note_off_c, 0, 62, 0
2, 41400, Note_off_c, 0, 55, 0
2, 41418, Note_on_c, 0, 48, 44
2, 41424, Note_off_c, 0, 74, 0
2, 41430, Note_off_c, 0, 83, 0
2, 41443, Note_on_c, 0, 64, 74
2, 41446, Note_on_c, 0, 55, 62
2, 41451, Note_on_c, 0, 74, 74
2, 41453, Note_on_c, 0, 83, 72
2, 41461, Note_on_c, 0, 72, 54
2, 41511, Note_off_c, 0, 74, 0
2, 41779, Note_off_c, 0, 55, 0
2, 41784, Note_off_c, 0, 64, 0
2, 41786, Note_off_c, 0, 48, 0
2, 41815, Note_off_c, 0, 72, 0
2, 41823, Note_on_c, 0, 81, 56
2, 41827, Note_on_c, 0, 71, 56
2, 41838, Note_on_c, 0, 72, 66
2, 41852, Note_off_c, 0, 83, 0
2, 41907, Note_off_c, 0, 71, 0
2, 42213, Note_off_c, 0, 72, 0
2, 42218, Note_on_c, 0, 76, 56
2, 42220, Note_on_c, 0, 60, 41
2, 42221, Note_on_c, 0, 48, 48
2, 42230, Note_on_c, 0, 67, 71
2, 42237, Note_on_c, 0, 74, 48
2, 42258, Note_on_c, 0, 84, 66
2, 42271, Note_off_c, 0, 76, 0
2, 42279, Note_off_c, 0, 81, 0
2, 42466, Note_off_c, 0, 67, 0
2, 42491, Note_off_c, 0, 60, 0
2, 42494, Note_off_c, 0, 48, 0
2, 42613, Note_off_c, 0, 74, 0
2, 42614, Note_on_c, 0, 71, 64
2, 42615, Note_on_c, 0, 50, 48
2, 42621, Note_on_c, 0, 60, 71
2, 42621, Note_on_c, 0, 81, 56
2, 42625, Note_on_c, 0, 66, 62
2, 42625, Note_on_c, 0, 72, 68
2, 42648, Note_off_c, 0, 84, 0
2, 42679, Note_off_c, 0, 71, 0
2, 42749, Control_c, 0, 64, 127
2, 42907, Note_off_c, 0, 50, 0
2, 42913, Note_off_c, 0, 60, 0
2, 42922, Note_off_c, 0, 66, 0
2, 42969, Note_on_c, 0, 43, 49
2, 42988, Note_on_c, 0, 83, 58
2, 42992, Note_on_c, 0, 50, 48
2, 43002, Note_on_c, 0, 59, 68
2, 43003, Note_on_c, 0, 73, 52
2, 43006, Note_off_c, 0, 72, 0
2, 43009, Note_off_c, 0, 81, 0
2, 43022, Note_on_c, 0, 74, 50
2, 43038, Control_c, 0, 64, 0
2, 43105, Note_off_c, 0, 73, 0
2, 43294, Note_off_c, 0, 59, 0
2, 43313, Note_off_c, 0, 43, 0
2, 43334, Note_off_c, 0, 50, 0
2, 43359, Note_off_c, 0, 74, 0
2, 43361, Note_on_c, 0, 70, 58
2, 43380, Note_on_c, 0, 48, 60
2, 43388, Note_on_c, 0, 55, 56
2, 43389, Note_on_c, 0, 79, 60
2, 43395, Note_on_c, 0, 71, 49
2, 43407, Note_off_c, 0, 83, 0
2, 43409, Note_on_c, 0, 64, 52
2, 43432, Note_off_c, 0, 70, 0
2, 43481, Control_c, 0, 64, 127
2, 43691, Note_off_c, 0, 64, 0
2, 43704, Note_off_c, 0, 48, 0
2, 43714, Note_off_c, 0, 55, 0
2, 43716, Note_on_c, 0, 42, 47
2, 43719, Note_off_c, 0, 71, 0
2, 43746, Note_on_c, 0, 57, 42
2, 43747, Note_on_c, 0, 48, 46
2, 43748, Note_on_c, 0, 71, 70
2, 43756, Note_on_c, 0, 81, 47
2, 43762, Note_on_c, 0, 72, 53
2, 43780, Note_off_c, 0, 79, 0
2, 43828, Note_off_c, 0, 71, 0
2, 43847, Control_c, 0, 64, 0
2, 44047, Note_off_c, 0, 48, 0
2, 44057, Note_off_c, 0, 42, 0
2, 44064, Note_off_c, 0, 57, 0
2, 44133, Note_off_c, 0, 72, 0
2, 44134, Note_on_c, 0, 68, 54
2, 44160, Note_on_c, 0, 78, 45
2, 44164, Note_on_c, 0, 69, 48
2, 44180, Note_off_c, 0, 81, 0
2, 44199, Note_off_c, 0, 68, 0
2, 44499, Note_on_c, 0, 54, 43
2, 44507, Note_off_c, 0, 69, 0
2, 44515, Note_on_c, 0, 47, 48
2, 44522, Note_on_c, 0, 63, 49
2, 44522, Note_on_c, 0, 71, 62
2, 44536, Note_on_c, 0, 79, 58
2, 44543, Note_on_c, 0, 69, 47
2, 44567, Note_off_c, 0, 78, 0
2, 44578, Note_off_c, 0, 71, 0
2, 44632, Control_c, 0, 64, 127
2, 44771, Note_off_c, 0, 47, 0
2, 44775, Note_off_c, 0, 54, 0
2, 44779, Note_off_c, 0, 63, 0
2, 44839, Note_off_c, 0, 69, 0
2, 44859, Note_off_c, 0, 79, 0
2, 44912, Control_c, 0, 64, 0
2, 44928, Note_on_c, 0, 40, 45
2, 44930, Note_on_c, 0, 71, 47
2, 44930, Note_on_c, 0, 63, 33
2, 44957, Control_c, 0, 10, 64
2, 45055, Control_c, 0, 10, 64
2, 45104, Note_on_c, 0, 64, 53
2, 45106, Note_off_c, 0, 71, 0
2, 45113, Note_off_c, 0, 63, 0
2, 45119, Note_on_c, 0, 55, 58
2, 45156, Note_off_c, 0, 40, 0
2, 45287, Note_off_c, 0, 64, 0
2, 45299, Note_on_c, 0, 66, 39
2, 45302, Note_on_c, 0, 52, 53
2, 45302, Note_on_c, 0, 76, 47
2, 45316, Note_off_c, 0, 55, 0
2, 45464, Note_off_c, 0, 66, 0
2, 45483, Note_on_c, 0, 67, 48
2, 45487, Note_off_c, 0, 76, 0
2, 45490, Note_on_c, 0, 55, 56
2, 45508, Note_off_c, 0, 52, 0
2, 45671, Note_on_c, 0, 70, 46
2, 45673, Note_on_c, 0, 79, 74
2, 45676, Note_on_c, 0, 47, 52
2, 45681, Note_off_c, 0, 67, 0
2, 45694, Note_off_c, 0, 55, 0
2, 45869, Note_on_c, 0, 40, 54
2, 45869, Note_on_c, 0, 71, 64
2, 45880, Note_off_c, 0, 70, 0
2, 45889, Note_off_c, 0, 47, 0
2, 46001, Note_off_c, 0, 79, 0
2, 46030, Note_off_c, 0, 71, 0
2, 46055, Note_on_c, 0, 79, 74
2, 46056, Note_on_c, 0, 71, 60
2, 46065, Note_on_c, 0, 45, 46
2, 46070, Note_off_c, 0, 40, 0
2, 46241, Note_on_c, 0, 60, 52
2, 46260, Note_on_c, 0, 69, 53
2, 46263, Note_off_c, 0, 45, 0
2, 46283, Note_off_c, 0, 79, 0
2, 46285, Note_off_c, 0, 71, 0
2, 46438, Note_on_c, 0, 54, 43
2, 46446, Note_on_c, 0, 78, 51
2, 46447, Note_off_c, 0, 60, 0
2, 46447, Note_on_c, 0, 68, 45
2, 46469, Note_off_c, 0, 69, 0
2, 46628, Note_off_c, 0, 68, 0
2, 46631, Note_on_c, 0, 69, 66
2, 46640, Note_on_c, 0, 60, 68
2, 46658, Note_off_c, 0, 54, 0
2, 46659, Note_off_c, 0, 78, 0
2, 46818, Note_on_c, 0, 54, 43
2, 46823, Note_off_c, 0, 60, 0
2, 46834, Note_on_c, 0, 81, 60
2, 46836, Note_on_c, 0, 72, 47
2, 46837, Note_off_c, 0, 69, 0
2, 47018, Note_on_c, 0, 45, 64
2, 47018, Note_on_c, 0, 71, 54
2, 47021, Note_off_c, 0, 54, 0
2, 47041, Note_off_c, 0, 72, 0
2, 47042, Note_off_c, 0, 81, 0
2, 47184, Note_off_c, 0, 71, 0
2, 47206, Note_on_c, 0, 79, 58
2, 47208, Note_on_c, 0, 71, 56
2, 47218, Note_on_c, 0, 47, 62
2, 47239, Note_off_c, 0, 45, 0
2, 47405, Note_on_c, 0, 63, 42
2, 47410, Note_on_c, 0, 69, 52
2, 47412, Note_off_c, 0, 79, 0
2, 47426, Note_off_c, 0, 47, 0
2, 47430, Note_off_c, 0, 71, 0
2, 47601, Note_on_c, 0, 54, 49
2, 47609, Note_on_c, 0, 68, 47
2, 47609, Note_on_c, 0, 78, 52
2, 47613, Note_off_c, 0, 63, 0
2, 47634, Note_off_c, 0, 69, 0
2, 47782, Note_on_c, 0, 63, 47
2, 47803, Note_on_c, 0, 69, 62
2, 47804, Note_off_c, 0, 54, 0
2, 47810, Note_off_c, 0, 68, 0
2, 47842, Note_off_c, 0, 78, 0
2, 47989, Note_on_c, 0, 79, 72
2, 47991, Note_on_c, 0, 57, 78
2, 47993, Note_on_c, 0, 71, 53
2, 48010, Note_off_c, 0, 69, 0
2, 48012, Note_off_c, 0, 63, 0
2, 48163, Note_on_c, 0, 69, 53
2, 48179, Note_on_c, 0, 47, 80
2, 48182, Note_off_c, 0, 71, 0
2, 48188, Note_off_c, 0, 57, 0
2, 48195, Note_off_c, 0, 79, 0
2, 48319, Note_off_c, 0, 69, 0
2, 48361, Note_on_c, 0, 69, 58
2, 48362, Note_on_c, 0, 78, 51
2, 48368, Note_on_c, 0, 52, 64
2, 48383, Note_off_c, 0, 47, 0
2, 48548, Note_on_c, 0, 64, 74
2, 48561, Note_on_c, 0, 67, 58
2, 48566, Note_off_c, 0, 52, 0
2, 48569, Note_off_c, 0, 78, 0
2, 48579, Note_off_c, 0, 69, 0
2, 48743, Note_on_c, 0, 59, 70
2, 48758, Note_on_c, 0, 66, 43
2, 48758, Note_on_c, 0, 76, 58
2, 48766, Note_off_c, 0, 64, 0
2, 48784, Note_off_c, 0, 67, 0
2, 48935, Note_on_c, 0, 64, 62
2, 48948, Note_on_c, 0, 67, 56
2, 48950, Note_off_c, 0, 59, 0
2, 48951, Note_off_c, 0, 66, 0
2, 49016, Note_off_c, 0, 76, 0
2, 49128, Note_off_c, 0, 64, 0
2, 49138, Note_on_c, 0, 44, 62
2, 49147, Note_on_c, 0, 74, 66
2, 49152, Note_on_c, 0, 64, 54
2, 49156, Note_off_c, 0, 67, 0
2, 49321, Note_on_c, 0, 59, 70
2, 49327, Note_on_c, 0, 65, 48
2, 49347, Note_off_c, 0, 64, 0
2, 49353, Note_off_c, 0, 44, 0
2, 49441, Note_off_c, 0, 74, 0
2, 49521, Note_on_c, 0, 50, 74
2, 49539, Note_off_c, 0, 59, 0
2, 49551, Note_off_c, 0, 65, 0
2, 49559, Note_on_c, 0, 78, 48
2, 49562, Note_on_c, 0, 77, 45
2, 49571, Note_on_c, 0, 70, 45
2, 49655, Note_off_c, 0, 78, 0
2, 49721, Note_off_c, 0, 70, 0
2, 49730, Note_on_c, 0, 71, 55
2, 49739, Note_on_c, 0, 65, 60
2, 49747, Note_off_c, 0, 77, 0
2, 49767, Note_off_c, 0, 50, 0
2, 49909, Note_off_c, 0, 71, 0
2, 49912, Note_on_c, 0, 73, 45
2, 49915, Note_on_c, 0, 83, 74
2, 49929, Note_off_c, 0, 65, 0
2, 49931, Note_on_c, 0, 53, 62
2, 50073, Note_off_c, 0, 73, 0
2, 50075, Note_on_c, 0, 74, 81
2, 50081, Note_off_c, 0, 83, 0
2, 50118, Note_on_c, 0, 68, 74
2, 50145, Note_off_c, 0, 53, 0
2, 50248, Note_off_c, 0, 74, 0
2, 50260, Note_on_c, 0, 76, 90
2, 50260, Note_on_c, 0, 86, 90
2, 50282, Note_on_c, 0, 56, 88
2, 50295, Note_off_c, 0, 68, 0
2, 50453, Note_on_c, 0, 71, 104
2, 50468, Note_on_c, 0, 77, 114
2, 50474, Note_off_c, 0, 56, 0
2, 50491, Note_off_c, 0, 76, 0
2, 50492, Note_off_c, 0, 86, 0
2, 50594, Note_off_c, 0, 71, 0
2, 50615, Note_off_c, 0, 77, 0
2, 50688, Control_c, 0, 10, 64
2, 50688, Note_on_c, 0, 84, 86
2, 50688, Note_on_c, 0, 79, 88
2, 50688, Note_on_c, 0, 76, 78
2, 50688, Note_on_c, 0, 58, 72
2, 50688, Note_on_c, 0, 60, 90
2, 50688, Note_on_c, 0, 67, 88
2, 50859, Note_off_c, 0, 76, 0
2, 50860, Note_off_c, 0, 84, 0
2, 50867, Note_off_c, 0, 79, 0
2, 50873, Note_off_c, 0, 67, 0
2, 50876, Note_off_c, 0, 60, 0
2, 50876, Note_on_c, 0, 100, 102
2, 50876, Note_on_c, 0, 46, 96
2, 50877, Note_off_c, 0, 58, 0
2, 50991, Control_c, 0, 64, 127
2, 51010, Note_off_c, 0, 46, 0
2, 51105, Note_off_c, 0, 100, 0
2, 51433, Control_c, 0, 64, 0
2, 51840, Note_on_c, 0, 47, 60
2, 51840, Note_on_c, 0, 79, 54
2, 51840, Note_on_c, 0, 71, 58
2, 51840, Note_on_c, 0, 83, 90
2, 51840, Control_c, 0, 10, 64
2, 51847, Note_on_c, 0, 59, 96
2, 51863, Note_on_c, 0, 67, 100
2, 51945, Note_off_c, 0, 59, 0
2, 51975, Note_off_c, 0, 67, 0
2, 51997, Note_off_c, 0, 47, 0
2, 52011, Control_c, 0, 64, 127
2, 52032, Note_on_c, 0, 35, 98
2, 52040, Note_on_c, 0, 95, 100
2, 52043, Note_off_c, 0, 83, 0
2, 52051, Note_off_c, 0, 79, 0
2, 52056, Note_off_c, 0, 71, 0
2, 52171, Note_off_c, 0, 35, 0
2, 52214, Note_off_c, 0, 95, 0
2, 52606, Control_c, 0, 64, 0
2, 52992, Note_on_c, 0, 63, 92
2, 52992, Note_on_c, 0, 54, 84
2, 52992, Note_on_c, 0, 47, 98
2, 52992, Note_on_c, 0, 83, 88
2, 52992, Note_on_c, 0, 71, 92
2, 52992, Note_on_c, 0, 75, 96
2, 52992, Control_c, 0, 10, 64
2, 53078, Note_off_c, 0, 54, 0
2, 53131, Note_off_c, 0, 63, 0
2, 53184, Note_on_c, 0, 35, 98
2, 53186, Note_off_c, 0, 47, 0
2, 53206, Note_on_c, 0, 95, 92
2, 53207, Note_off_c, 0, 71, 0
2, 53209, Note_off_c, 0, 75, 0
2, 53211, Note_off_c, 0, 83, 0
2, 53277, Control_c, 0, 64, 127
2, 53305, Note_off_c, 0, 35, 0
2, 53354, Note_off_c, 0, 95, 0
2, 54008, Control_c, 0, 64, 0
2, 54144, Control_c, 0, 10, 64
2, 54144, Control_c, 0, 10, 64
2, 54159, Note_on_c, 0, 59, 51
2, 54169, Note_on_c, 0, 59, 74
2, 54176, Note_on_c, 0, 52, 46
2, 54282, Control_c, 0, 64, 127
2, 54282, Note_on_c, 0, 71, 52
2, 54284, Note_on_c, 0, 64, 49
2, 54290, Note_off_c, 0, 59, 0
2, 54396, Note_off_c, 0, 71, 0
2, 54407, Note_on_c, 0, 68, 54
2, 54426, Note_off_c, 0, 64, 0
2, 54535, Note_on_c, 0, 71, 54
2, 54537, Note_off_c, 0, 68, 0
2, 54650, Note_off_c, 0, 71, 0
2, 54657, Note_on_c, 0, 76, 47
2, 54657, Note_on_c, 0, 83, 50
2, 54770, Note_off_c, 0, 83, 0
2, 54779, Note_on_c, 0, 80, 46
2, 54793, Note_off_c, 0, 76, 0
2, 54890, Note_on_c, 0, 61, 86
2, 54914, Note_on_c, 0, 83, 56
2, 54917, Note_off_c, 0, 80, 0
2, 54921, Note_off_c, 0, 59, 0
2, 54994, Control_c, 0, 64, 0
2, 55044, Note_off_c, 0, 83, 0
2, 55046, Note_on_c, 0, 95, 47
2, 55050, Note_on_c, 0, 88, 48
2, 55056, Control_c, 0, 64, 127
2, 55166, Note_on_c, 0, 92, 47
2, 55179, Note_off_c, 0, 95, 0
2, 55180, Note_off_c, 0, 88, 0
2, 55247, Control_c, 0, 64, 0
2, 55267, Note_off_c, 0, 61, 0
2, 55279, Note_on_c, 0, 54, 46
2, 55282, Note_on_c, 0, 51, 39
2, 55283, Note_on_c, 0, 61, 82
2, 55305, Note_on_c, 0, 83, 56
2, 55307, Note_off_c, 0, 52, 0
2, 55315, Note_off_c, 0, 92, 0
2, 55383, Control_c, 0, 64, 127
2, 55433, Note_on_c, 0, 95, 58
2, 55435, Note_on_c, 0, 87, 41
2, 55442, Note_off_c, 0, 83, 0
2, 55554, Note_on_c, 0, 90, 47
2, 55558, Note_off_c, 0, 95, 0
2, 55581, Note_off_c, 0, 87, 0
2, 55697, Note_on_c, 0, 83, 60
2, 55714, Note_off_c, 0, 90, 0
2, 55778, Note_off_c, 0, 83, 0
2, 55819, Note_on_c, 0, 83, 52
2, 55823, Note_on_c, 0, 75, 46
2, 55939, Note_on_c, 0, 78, 56
2, 55952, Note_off_c, 0, 83, 0
2, 55964, Note_off_c, 0, 75, 0
2, 56068, Note_on_c, 0, 71, 60
2, 56080, Note_on_c, 0, 59, 72
2, 56085, Note_off_c, 0, 78, 0
2, 56103, Control_c, 0, 64, 0
2, 56112, Note_off_c, 0, 61, 0
2, 56152, Note_off_c, 0, 71, 0
2, 56157, Control_c, 0, 64, 127
2, 56207, Note_on_c, 0, 63, 52
2, 56207, Note_on_c, 0, 71, 48
2, 56265, Note_off_c, 0, 54, 0
2, 56281, Note_off_c, 0, 51, 0
2, 56324, Note_off_c, 0, 71, 0
2, 56324, Note_on_c, 0, 66, 62
2, 56339, Note_off_c, 0, 63, 0
2, 56435, Note_off_c, 0, 66, 0
2, 56445, Note_off_c, 0, 59, 0
2, 56452, Control_c, 0, 64, 0
2, 56457, Note_on_c, 0, 49, 54
2, 56458, Note_on_c, 0, 37, 68
2, 56458, Note_on_c, 0, 56, 43
2, 56460, Note_on_c, 0, 56, 46
2, 56512, Control_c, 0, 64, 127
2, 56578, Note_on_c, 0, 68, 29
2, 56581, Note_on_c, 0, 61, 20
2, 56587, Note_on_c, 0, 68, 33
2, 56593, Note_off_c, 0, 56, 0
2, 56598, Note_on_c, 0, 61, 20
2, 56609, Note_off_c, 0, 56, 0
2, 56687, Note_on_c, 0, 64, 51
2, 56689, Note_off_c, 0, 68, 0
2, 56703, Note_off_c, 0, 61, 0
2, 56712, Note_off_c, 0, 68, 0
2, 56729, Note_off_c, 0, 61, 0
2, 56765, Note_off_c, 0, 64, 0
2, 56798, Note_on_c, 0, 56, 64
2, 56805, Note_on_c, 0, 68, 56
2, 56805, Note_on_c, 0, 66, 53
2, 56818, Note_off_c, 0, 49, 0
2, 56825, Note_off_c, 0, 37, 0
2, 56857, Note_off_c, 0, 66, 0
2, 56935, Note_on_c, 0, 80, 43
2, 56936, Note_on_c, 0, 73, 26
2, 56955, Note_off_c, 0, 68, 0
2, 57054, Note_on_c, 0, 76, 58
2, 57056, Note_off_c, 0, 80, 0
2, 57066, Note_off_c, 0, 73, 0
2, 57111, Control_c, 0, 64, 0
2, 57130, Note_off_c, 0, 76, 0
2, 57151, Control_c, 0, 64, 127
2, 57168, Note_on_c, 0, 57, 66
2, 57183, Note_on_c, 0, 81, 72
2, 57191, Note_off_c, 0, 56, 0
2, 57313, Note_on_c, 0, 85, 37
2, 57314, Note_on_c, 0, 93, 58
2, 57319, Note_off_c, 0, 81, 0
2, 57445, Note_on_c, 0, 88, 64
2, 57450, Note_off_c, 0, 93, 0
2, 57459, Note_off_c, 0, 85, 0
2, 57542, Control_c, 0, 64, 0
2, 57554, Note_off_c, 0, 57, 0
2, 57572, Note_on_c, 0, 57, 76
2, 57579, Note_on_c, 0, 48, 62
2, 57590, Control_c, 0, 64, 127
2, 57592, Note_off_c, 0, 88, 0
2, 57593, Note_on_c, 0, 81, 64
2, 57722, Note_off_c, 0, 81, 0
2, 57723, Note_on_c, 0, 84, 49
2, 57725, Note_on_c, 0, 93, 46
2, 57840, Note_off_c, 0, 93, 0
2, 57845, Note_on_c, 0, 87, 52
2, 57864, Note_off_c, 0, 84, 0
2, 57970, Note_on_c, 0, 81, 49
2, 57983, Note_off_c, 0, 87, 0
2, 58063, Note_off_c, 0, 81, 0
2, 58106, Note_on_c, 0, 72, 28
2, 58106, Note_on_c, 0, 81, 29
2, 58230, Note_on_c, 0, 75, 48
2, 58231, Note_off_c, 0, 81, 0
2, 58248, Note_off_c, 0, 72, 0
2, 58349, Note_on_c, 0, 69, 52
2, 58359, Note_off_c, 0, 75, 0
2, 58374, Note_off_c, 0, 57, 0
2, 58374, Note_on_c, 0, 56, 76
2, 58385, Control_c, 0, 64, 0
2, 58396, Note_off_c, 0, 48, 0
2, 58438, Note_off_c, 0, 69, 0
2, 58451, Control_c, 0, 64, 127
2, 58485, Note_on_c, 0, 68, 46
2, 58490, Note_on_c, 0, 60, 47
2, 58616, Note_on_c, 0, 63, 33
2, 58622, Note_off_c, 0, 60, 0
2, 58626, Note_off_c, 0, 68, 0
2, 58723, Note_off_c, 0, 63, 0
2, 58733, Control_c, 0, 64, 0
2, 58738, Note_on_c, 0, 52, 72
2, 58739, Note_on_c, 0, 45, 50
2, 58752, Control_c, 0, 10, 64
2, 58760, Note_on_c, 0, 56, 49
2, 58770, Note_off_c, 0, 56, 0
2, 58877, Note_on_c, 0, 57, 52
2, 58878, Note_on_c, 0, 64, 62
2, 58889, Note_off_c, 0, 56, 0
2, 58988, Note_off_c, 0, 64, 0
2, 58997, Note_on_c, 0, 61, 51
2, 59005, Note_off_c, 0, 57, 0
2, 59101, Note_off_c, 0, 61, 0
2, 59103, Note_on_c, 0, 51, 78
2, 59128, Note_off_c, 0, 52, 0
2, 59128, Note_on_c, 0, 64, 58
2, 59256, Note_on_c, 0, 69, 62
2, 59258, Note_on_c, 0, 76, 53
2, 59260, Note_off_c, 0, 64, 0
2, 59334, Note_off_c, 0, 45, 0
2, 59368, Note_off_c, 0, 76, 0
2, 59375, Note_on_c, 0, 73, 62
2, 59387, Note_off_c, 0, 69, 0
2, 59470, Note_off_c, 0, 73, 0
2, 59502, Note_on_c, 0, 76, 64
2, 59503, Note_on_c, 0, 49, 86
2, 59531, Note_off_c, 0, 51, 0
2, 59640, Note_on_c, 0, 88, 64
2, 59640, Note_on_c, 0, 81, 52
2, 59643, Note_off_c, 0, 76, 0
2, 59762, Note_on_c, 0, 85, 60
2, 59763, Note_off_c, 0, 88, 0
2, 59779, Note_off_c, 0, 81, 0
2, 59890, Note_on_c, 0, 47, 78
2, 59893, Note_on_c, 0, 40, 52
2, 59897, Note_off_c, 0, 85, 0
2, 59905, Note_on_c, 0, 88, 62
2, 59917, Note_off_c, 0, 49, 0
2, 60022, Control_c, 0, 64, 127
2, 60036, Note_on_c, 0, 92, 50
2, 60038, Note_on_c, 0, 100, 72
2, 60042, Note_off_c, 0, 88, 0
2, 60149, Note_on_c, 0, 95, 82
2, 60159, Note_off_c, 0, 100, 0
2, 60161, Note_off_c, 0, 92, 0
2, 60249, Note_off_c, 0, 95, 0
2, 60273, Note_on_c, 0, 52, 78
2, 60287, Note_on_c, 0, 88, 74
2, 60404, Note_off_c, 0, 88, 0
2, 60426, Note_on_c, 0, 88, 54
2, 60426, Note_on_c, 0, 95, 56
2, 60487, Note_off_c, 0, 47, 0
2, 60554, Note_off_c, 0, 95, 0
2, 60556, Note_on_c, 0, 92, 49
2, 60565, Note_off_c, 0, 88, 0
2, 60668, Note_on_c, 0, 56, 72
2, 60692, Control_c, 0, 64, 0
2, 60693, Note_off_c, 0, 52, 0
2, 60693, Note_on_c, 0, 83, 60
2, 60704, Note_off_c, 0, 92, 0
2, 60707, Note_off_c, 0, 40, 0
2, 60741, Control_c, 0, 64, 127
2, 60803, Note_off_c, 0, 83, 0
2, 60818, Note_on_c, 0, 92, 43
2, 60822, Note_on_c, 0, 83, 52
2, 60937, Note_on_c, 0, 88, 56
2, 60945, Note_off_c, 0, 83, 0
2, 60950, Note_off_c, 0, 92, 0
2, 61057, Control_c, 0, 64, 0
2, 61060, Note_on_c, 0, 51, 46
2, 61063, Note_off_c, 0, 88, 0
2, 61065, Note_on_c, 0, 80, 51
2, 61066, Note_on_c, 0, 59, 78
2, 61093, Note_off_c, 0, 56, 0
2, 61128, Control_c, 0, 64, 127
2, 61175, Note_off_c, 0, 80, 0
2, 61185, Note_on_c, 0, 80, 22
2, 61186, Note_on_c, 0, 87, 46
2, 61295, Note_on_c, 0, 83, 74
2, 61305, Note_off_c, 0, 87, 0
2, 61308, Note_off_c, 0, 80, 0
2, 61406, Note_on_c, 0, 63, 72
2, 61419, Note_off_c, 0, 83, 0
2, 61421, Note_on_c, 0, 75, 51
2, 61432, Note_off_c, 0, 59, 0
2, 61536, Note_off_c, 0, 75, 0
2, 61553, Note_on_c, 0, 75, 33
2, 61554, Note_on_c, 0, 83, 53
2, 61671, Note_on_c, 0, 80, 41
2, 61673, Note_off_c, 0, 75, 0
2, 61684, Note_off_c, 0, 83, 0
2, 61780, Control_c, 0, 64, 0
2, 61799, Note_on_c, 0, 61, 78
2, 61806, Note_off_c, 0, 80, 0
2, 61807, Note_on_c, 0, 67, 70
2, 61829, Control_c, 0, 64, 127
2, 61839, Note_off_c, 0, 51, 0
2, 61840, Note_off_c, 0, 63, 0
2, 61944, Note_off_c, 0, 67, 0
2, 61951, Note_on_c, 0, 80, 42
2, 61954, Note_on_c, 0, 70, 68
2, 61998, Note_off_c, 0, 70, 0
2, 62072, Note_on_c, 0, 75, 53
2, 62095, Note_off_c, 0, 80, 0
2, 62100, Note_on_c, 0, 44, 64
2, 62172, Control_c, 0, 64, 0
2, 62173, Note_off_c, 0, 75, 0
2, 62200, Note_off_c, 0, 61, 0
2, 62208, Note_on_c, 0, 68, 31
2, 62228, Note_on_c, 0, 59, 74
2, 62239, Control_c, 0, 64, 127
2, 62325, Note_on_c, 0, 80, 42
2, 62328, Note_on_c, 0, 71, 49
2, 62361, Note_off_c, 0, 68, 0
2, 62445, Note_on_c, 0, 75, 45
2, 62446, Note_off_c, 0, 80, 0
2, 62453, Note_off_c, 0, 71, 0
2, 62554, Note_off_c, 0, 75, 0
2, 62560, Control_c, 0, 64, 0
2, 62569, Note_on_c, 0, 63, 54
2, 62583, Note_on_c, 0, 58, 78
2, 62609, Note_off_c, 0, 59, 0
2, 62700, Note_on_c, 0, 68, 35
2, 62701, Note_on_c, 0, 75, 31
2, 62721, Note_off_c, 0, 63, 0
2, 62814, Note_on_c, 0, 71, 53
2, 62815, Note_off_c, 0, 75, 0
2, 62820, Note_off_c, 0, 68, 0
2, 62908, Note_off_c, 0, 71, 0
2, 62940, Note_on_c, 0, 57, 72
2, 62945, Note_on_c, 0, 47, 54
2, 62945, Note_on_c, 0, 59, 62
2, 62965, Note_off_c, 0, 44, 0
2, 62966, Note_off_c, 0, 58, 0
2, 63085, Note_on_c, 0, 63, 39
2, 63087, Note_on_c, 0, 71, 54
2, 63094, Note_off_c, 0, 59, 0
2, 63207, Note_on_c, 0, 40, 82
2, 63209, Note_on_c, 0, 66, 45
2, 63216, Note_off_c, 0, 71, 0
2, 63224, Note_off_c, 0, 63, 0
2, 63324, Note_off_c, 0, 66, 0
2, 63344, Note_on_c, 0, 56, 88
2, 63360, Control_c, 0, 10, 64
2, 63370, Note_off_c, 0, 57, 0
2, 63375, Note_on_c, 0, 59, 51
2, 63494, Control_c, 0, 64, 127
2, 63498, Note_on_c, 0, 71, 52
2, 63500, Note_on_c, 0, 64, 49
2, 63506, Note_off_c, 0, 59, 0
2, 63612, Note_off_c, 0, 71, 0
2, 63623, Note_on_c, 0, 68, 54
2, 63642, Note_off_c, 0, 64, 0
2, 63697, Note_off_c, 0, 47, 0
2, 63700, Note_off_c, 0, 40, 0
2, 63708, Note_off_c, 0, 56, 0
2, 63751, Note_on_c, 0, 71, 54
2, 63753, Note_off_c, 0, 68, 0
2, 63753, Note_on_c, 0, 59, 86
2, 63866, Note_off_c, 0, 71, 0
2, 63873, Note_on_c, 0, 76, 47
2, 63873, Note_on_c, 0, 83, 50
2, 63927, Control_c, 0, 10, 64
2, 63986, Note_off_c, 0, 83, 0
2, 63995, Note_on_c, 0, 80, 46
2, 64009, Note_off_c, 0, 76, 0
2, 64130, Note_on_c, 0, 83, 56
2, 64133, Note_off_c, 0, 80, 0
2, 64164, Control_c, 0, 64, 0
2, 64216, Control_c, 0, 64, 127
2, 64260, Note_off_c, 0, 83, 0
2, 64262, Note_on_c, 0, 95, 47
2, 64266, Note_on_c, 0, 88, 48
2, 64316, Note_on_c, 0, 61, 74
2, 64344, Note_off_c, 0, 59, 0
2, 64382, Note_on_c, 0, 92, 47
2, 64395, Note_off_c, 0, 95, 0
2, 64396, Note_off_c, 0, 88, 0
2, 64508, Note_off_c, 0, 61, 0
2, 64516, Control_c, 0, 64, 0
2, 64521, Note_on_c, 0, 83, 56
2, 64529, Note_on_c, 0, 61, 78
2, 64531, Note_off_c, 0, 92, 0
2, 64531, Note_on_c, 0, 51, 33
2, 64533, Note_on_c, 0, 54, 30
2, 64588, Control_c, 0, 64, 127
2, 64649, Note_on_c, 0, 95, 58
2, 64651, Note_on_c, 0, 87, 41
2, 64658, Note_off_c, 0, 83, 0
2, 64770, Note_on_c, 0, 90, 47
2, 64774, Note_off_c, 0, 95, 0
2, 64797, Note_off_c, 0, 87, 0
2, 64913, Note_on_c, 0, 83, 60
2, 64930, Note_off_c, 0, 90, 0
2, 64994, Note_off_c, 0, 83, 0
2, 65035, Note_on_c, 0, 83, 52
2, 65039, Note_on_c, 0, 75, 46
2, 65155, Note_on_c, 0, 78, 56
2, 65168, Note_off_c, 0, 83, 0
2, 65180, Note_off_c, 0, 75, 0
2, 65279, Note_on_c, 0, 59, 70
2, 65282, Control_c, 0, 64, 0
2, 65284, Note_on_c, 0, 71, 60
2, 65301, Note_off_c, 0, 78, 0
2, 65308, Note_off_c, 0, 61, 0
2, 65368, Note_off_c, 0, 71, 0
2, 65423, Note_on_c, 0, 63, 52
2, 65423, Note_on_c, 0, 71, 48
2, 65477, Note_off_c, 0, 54, 0
2, 65491, Note_off_c, 0, 51, 0
2, 65540, Note_off_c, 0, 71, 0
2, 65540, Note_on_c, 0, 66, 62
2, 65555, Note_off_c, 0, 63, 0
2, 65628, Note_off_c, 0, 59, 0
2, 65651, Note_off_c, 0, 66, 0
2, 65653, Note_on_c, 0, 49, 64
2, 65653, Note_on_c, 0, 37, 64
2, 65674, Note_on_c, 0, 56, 43
2, 65676, Note_on_c, 0, 56, 46
2, 65794, Note_on_c, 0, 68, 29
2, 65797, Note_on_c, 0, 61, 20
2, 65803, Note_on_c, 0, 68, 33
2, 65809, Note_off_c, 0, 56, 0
2, 65814, Note_on_c, 0, 61, 20
2, 65825, Note_off_c, 0, 56, 0
2, 65831, Control_c, 0, 64, 127
2, 65903, Note_on_c, 0, 64, 51
2, 65905, Note_off_c, 0, 68, 0
2, 65919, Note_off_c, 0, 61, 0
2, 65928, Note_off_c, 0, 68, 0
2, 65945, Note_off_c, 0, 61, 0
2, 65981, Note_off_c, 0, 64, 0
2, 66018, Note_on_c, 0, 56, 56
2, 66021, Note_on_c, 0, 68, 56
2, 66021, Note_on_c, 0, 66, 53
2, 66043, Note_off_c, 0, 49, 0
2, 66045, Note_off_c, 0, 37, 0
2, 66073, Note_off_c, 0, 66, 0
2, 66151, Note_on_c, 0, 80, 43
2, 66152, Note_on_c, 0, 73, 26
2, 66171, Note_off_c, 0, 68, 0
2, 66270, Note_on_c, 0, 76, 58
2, 66272, Note_off_c, 0, 80, 0
2, 66282, Note_off_c, 0, 73, 0
2, 66333, Control_c, 0, 64, 0
2, 66346, Note_off_c, 0, 76, 0
2, 66381, Control_c, 0, 64, 127
2, 66399, Note_on_c, 0, 81, 72
2, 66529, Note_on_c, 0, 85, 37
2, 66530, Note_on_c, 0, 93, 58
2, 66535, Note_off_c, 0, 81, 0
2, 66565, Note_on_c, 0, 57, 78
2, 66586, Note_off_c, 0, 56, 0
2, 66661, Note_on_c, 0, 88, 64
2, 66666, Note_off_c, 0, 93, 0
2, 66675, Note_off_c, 0, 85, 0
2, 66763, Control_c, 0, 64, 0
2, 66771, Note_off_c, 0, 57, 0
2, 66787, Note_on_c, 0, 57, 80
2, 66790, Note_on_c, 0, 48, 47
2, 66808, Note_off_c, 0, 88, 0
2, 66809, Note_on_c, 0, 81, 64
2, 66826, Control_c, 0, 64, 127
2, 66938, Note_off_c, 0, 81, 0
2, 66939, Note_on_c, 0, 84, 49
2, 66941, Note_on_c, 0, 93, 46
2, 67056, Note_off_c, 0, 93, 0
2, 67061, Note_on_c, 0, 87, 52
2, 67080, Note_off_c, 0, 84, 0
2, 67186, Note_on_c, 0, 81, 49
2, 67199, Note_off_c, 0, 87, 0
2, 67279, Note_off_c, 0, 81, 0
2, 67322, Note_on_c, 0, 72, 28
2, 67322, Note_on_c, 0, 81, 29
2, 67446, Note_on_c, 0, 75, 48
2, 67447, Note_off_c, 0, 81, 0
2, 67464, Note_off_c, 0, 72, 0
2, 67563, Note_on_c, 0, 56, 80
2, 67565, Note_on_c, 0, 69, 52
2, 67575, Note_off_c, 0, 75, 0
2, 67577, Control_c, 0, 64, 0
2, 67597, Note_off_c, 0, 57, 0
2, 67633, Note_off_c, 0, 48, 0
2, 67647, Control_c, 0, 64, 127
2, 67654, Note_off_c, 0, 69, 0
2, 67701, Note_on_c, 0, 68, 46
2, 67706, Note_on_c, 0, 60, 47
2, 67832, Note_on_c, 0, 63, 33
2, 67838, Note_off_c, 0, 60, 0
2, 67842, Note_off_c, 0, 68, 0
2, 67890, Note_on_c, 0, 37, 76
2, 67929, Control_c, 0, 64, 0
2, 67939, Note_off_c, 0, 63, 0
2, 67968, Control_c, 0, 10, 64
2, 67970, Note_on_c, 0, 52, 86
2, 67982, Note_on_c, 0, 56, 51
2, 67991, Note_off_c, 0, 56, 0
2, 68013, Control_c, 0, 64, 127
2, 68107, Note_off_c, 0, 56, 0
2, 68115, Note_on_c, 0, 61, 49
2, 68117, Note_on_c, 0, 56, 47
2, 68233, Note_on_c, 0, 58, 47
2, 68249, Note_off_c, 0, 56, 0
2, 68249, Note_off_c, 0, 61, 0
2, 68342, Note_off_c, 0, 58, 0
2, 68349, Note_on_c, 0, 51, 94
2, 68372, Note_on_c, 0, 64, 43
2, 68372, Note_on_c, 0, 62, 37
2, 68374, Control_c, 0, 64, 0
2, 68376, Note_off_c, 0, 37, 0
2, 68406, Note_off_c, 0, 62, 0
2, 68498, Note_on_c, 0, 68, 31
2, 68500, Note_on_c, 0, 76, 60
2, 68502, Note_off_c, 0, 64, 0
2, 68628, Note_on_c, 0, 73, 30
2, 68638, Note_off_c, 0, 76, 0
2, 68655, Note_off_c, 0, 68, 0
2, 68720, Note_off_c, 0, 73, 0
2, 68737, Note_off_c, 0, 52, 0
2, 68737, Note_on_c, 0, 49, 92
2, 68745, Note_off_c, 0, 51, 0
2, 68753, Note_on_c, 0, 76, 60
2, 68848, Control_c, 0, 64, 127
2, 68874, Note_on_c, 0, 80, 39
2, 68876, Note_on_c, 0, 88, 68
2, 68882, Note_off_c, 0, 76, 0
2, 68983, Note_off_c, 0, 88, 0
2, 68991, Note_on_c, 0, 85, 68
2, 69011, Note_off_c, 0, 80, 0
2, 69114, Note_off_c, 0, 85, 0
2, 69115, Note_on_c, 0, 75, 72
2, 69120, Note_on_c, 0, 47, 98
2, 69120, Control_c, 0, 10, 64
2, 69127, Control_c, 0, 64, 0
2, 69127, Note_on_c, 0, 35, 92
2, 69132, Note_off_c, 0, 49, 0
2, 69184, Control_c, 0, 64, 127
2, 69246, Note_on_c, 0, 87, 54
2, 69247, Note_on_c, 0, 80, 39
2, 69267, Note_off_c, 0, 75, 0
2, 69360, Note_on_c, 0, 83, 84
2, 69374, Note_off_c, 0, 87, 0
2, 69375, Note_off_c, 0, 80, 0
2, 69488, Note_on_c, 0, 75, 56
2, 69503, Note_off_c, 0, 83, 0
2, 69586, Note_off_c, 0, 75, 0
2, 69626, Note_on_c, 0, 68, 82
2, 69628, Note_on_c, 0, 75, 48
2, 69638, Note_on_c, 0, 76, 20
2, 69729, Note_off_c, 0, 76, 0
2, 69744, Note_on_c, 0, 71, 76
2, 69749, Note_off_c, 0, 75, 0
2, 69761, Note_off_c, 0, 68, 0
2, 69844, Control_c, 0, 64, 0
2, 69857, Note_on_c, 0, 49, 102
2, 69860, Note_on_c, 0, 37, 94
2, 69861, Note_on_c, 0, 63, 49
2, 69865, Note_off_c, 0, 71, 0
2, 69891, Note_off_c, 0, 35, 0
2, 69898, Note_off_c, 0, 47, 0
2, 69911, Control_c, 0, 64, 127
2, 69993, Note_on_c, 0, 73, 46
2, 69996, Note_on_c, 0, 64, 64
2, 70014, Note_off_c, 0, 63, 0
2, 70121, Note_on_c, 0, 70, 45
2, 70139, Note_off_c, 0, 73, 0
2, 70240, Control_c, 0, 64, 0
2, 70244, Note_on_c, 0, 51, 94
2, 70245, Note_on_c, 0, 39, 94
2, 70250, Note_on_c, 0, 61, 64
2, 70254, Note_off_c, 0, 64, 0
2, 70259, Note_off_c, 0, 70, 0
2, 70266, Note_off_c, 0, 49, 0
2, 70267, Note_off_c, 0, 37, 0
2, 70299, Control_c, 0, 64, 127
2, 70378, Note_on_c, 0, 73, 54
2, 70379, Note_on_c, 0, 63, 43
2, 70400, Note_off_c, 0, 61, 0
2, 70479, Note_off_c, 0, 73, 0
2, 70510, Note_on_c, 0, 71, 48
2, 70628, Note_off_c, 0, 71, 0
2, 70629, Note_on_c, 0, 59, 70
2, 70648, Note_off_c, 0, 63, 0
2, 70750, Note_on_c, 0, 63, 41
2, 70752, Note_on_c, 0, 71, 66
2, 70764, Note_off_c, 0, 59, 0
2, 70871, Note_off_c, 0, 71, 0
2, 70877, Note_on_c, 0, 68, 62
2, 70954, Control_c, 0, 64, 0
2, 71003, Note_on_c, 0, 58, 52
2, 71015, Note_off_c, 0, 63, 0
2, 71020, Note_off_c, 0, 68, 0
2, 71021, Note_off_c, 0, 39, 0
2, 71040, Note_on_c, 0, 39, 100
2, 71044, Note_on_c, 0, 27, 94
2, 71062, Note_off_c, 0, 51, 0
2, 71150, Note_on_c, 0, 70, 56
2, 71151, Note_on_c, 0, 61, 56
2, 71176, Note_off_c, 0, 58, 0
2, 71177, Control_c, 0, 64, 127
2, 71278, Note_on_c, 0, 67, 84
2, 71293, Note_off_c, 0, 70, 0
2, 71393, Note_on_c, 0, 44, 100
2, 71406, Note_on_c, 0, 58, 64
2, 71415, Note_off_c, 0, 27, 0
2, 71415, Note_on_c, 0, 32, 106
2, 71418, Note_off_c, 0, 39, 0
2, 71421, Control_c, 0, 64, 0
2, 71422, Note_off_c, 0, 67, 0
2, 71425, Note_off_c, 0, 61, 0
2, 71534, Control_c, 0, 64, 127
2, 71539, Note_on_c, 0, 70, 72
2, 71540, Note_on_c, 0, 61, 72
2, 71556, Note_off_c, 0, 58, 0
2, 71665, Note_on_c, 0, 63, 48
2, 71673, Note_off_c, 0, 70, 0
2, 71796, Note_on_c, 0, 56, 58
2, 71799, Note_off_c, 0, 61, 0
2, 71821, Note_off_c, 0, 63, 0
2, 71924, Note_on_c, 0, 68, 43
2, 71926, Note_on_c, 0, 59, 72
2, 71945, Note_off_c, 0, 56, 0
2, 72051, Note_on_c, 0, 63, 45
2, 72070, Note_off_c, 0, 68, 0
2, 72184, Note_on_c, 0, 56, 50
2, 72197, Note_off_c, 0, 59, 0
2, 72202, Note_off_c, 0, 63, 0
2, 72215, Control_c, 0, 64, 0
2, 72294, Control_c, 0, 64, 127
2, 72311, Note_on_c, 0, 68, 51
2, 72312, Note_on_c, 0, 59, 74
2, 72336, Note_off_c, 0, 56, 0
2, 72437, Note_on_c, 0, 63, 44
2, 72452, Note_off_c, 0, 68, 0
2, 72562, Control_c, 0, 64, 0
2, 72566, Note_off_c, 0, 59, 0
2, 72576, Note_on_c, 0, 45, 104
2, 72576, Note_on_c, 0, 33, 100
2, 72582, Note_off_c, 0, 32, 0
2, 72582, Note_off_c, 0, 44, 0
2, 72585, Note_on_c, 0, 52, 74
2, 72591, Note_off_c, 0, 63, 0
2, 72703, Control_c, 0, 64, 127
2, 72705, Note_on_c, 0, 54, 66
2, 72706, Note_on_c, 0, 63, 66
2, 72718, Note_off_c, 0, 52, 0
2, 72796, Control_c, 0, 10, 64
2, 72816, Note_off_c, 0, 63, 0
2, 72820, Note_on_c, 0, 61, 76
2, 72836, Note_off_c, 0, 54, 0
2, 72924, Note_off_c, 0, 61, 0
2, 72935, Control_c, 0, 10, 64
2, 72941, Note_on_c, 0, 64, 76
2, 73069, Note_on_c, 0, 66, 68
2, 73070, Note_on_c, 0, 75, 76
2, 73079, Note_off_c, 0, 64, 0
2, 73185, Note_off_c, 0, 75, 0
2, 73192, Note_on_c, 0, 73, 94
2, 73204, Note_off_c, 0, 66, 0
2, 73291, Note_off_c, 0, 73, 0
2, 73311, Note_on_c, 0, 76, 88
2, 73450, Note_on_c, 0, 78, 70
2, 73451, Note_on_c, 0, 87, 82
2, 73456, Note_off_c, 0, 76, 0
2, 73573, Note_off_c, 0, 87, 0
2, 73577, Note_on_c, 0, 85, 84
2, 73584, Note_off_c, 0, 78, 0
2, 73680, Control_c, 0, 64, 0
2, 73724, Note_off_c, 0, 85, 0
2, 73726, Note_on_c, 0, 44, 98
2, 73726, Note_on_c, 0, 32, 96
2, 73728, Note_on_c, 0, 76, 82
2, 73771, Note_off_c, 0, 45, 0
2, 73772, Note_off_c, 0, 33, 0
2, 73848, Note_on_c, 0, 85, 70
2, 73850, Note_on_c, 0, 80, 60
2, 73860, Control_c, 0, 64, 127
2, 73869, Note_off_c, 0, 76, 0
2, 73976, Note_on_c, 0, 83, 78
2, 73987, Note_off_c, 0, 80, 0
2, 73991, Note_off_c, 0, 85, 0
2, 74119, Note_on_c, 0, 76, 80
2, 74130, Note_off_c, 0, 83, 0
2, 74206, Note_off_c, 0, 76, 0
2, 74249, Note_on_c, 0, 68, 78
2, 74249, Note_on_c, 0, 73, 80
2, 74304, Note_on_c, 0, 33, 76
2, 74305, Note_on_c, 0, 45, 86
2, 74317, Note_off_c, 0, 32, 0
2, 74320, Note_off_c, 0, 44, 0
2, 74355, Control_c, 0, 64, 0
2, 74374, Note_on_c, 0, 71, 74
2, 74387, Note_off_c, 0, 68, 0
2, 74389, Note_off_c, 0, 73, 0
2, 74425, Control_c, 0, 64, 127
2, 74508, Note_on_c, 0, 64, 78
2, 74521, Control_c, 0, 64, 0
2, 74523, Note_off_c, 0, 71, 0
2, 74528, Note_on_c, 0, 32, 98
2, 74532, Note_on_c, 0, 44, 94
2, 74547, Note_off_c, 0, 33, 0
2, 74552, Note_off_c, 0, 45, 0
2, 74622, Control_c, 0, 64, 127
2, 74633, Note_on_c, 0, 68, 64
2, 74634, Note_on_c, 0, 76, 82
2, 74644, Note_off_c, 0, 64, 0
2, 74748, Note_off_c, 0, 76, 0
2, 74752, Note_on_c, 0, 73, 88
2, 74767, Note_off_c, 0, 68, 0
2, 74845, Note_off_c, 0, 73, 0
2, 74866, Control_c, 0, 64, 0
2, 74869, Note_on_c, 0, 42, 98
2, 74869, Note_on_c, 0, 30, 92
2, 74880, Note_on_c, 0, 64, 84
2, 74882, Note_off_c, 0, 32, 0
2, 74887, Note_off_c, 0, 44, 0
2, 74980, Control_c, 0, 64, 127
2, 75000, Note_on_c, 0, 71, 80
2, 75002, Note_on_c, 0, 64, 78
2, 75011, Note_off_c, 0, 64, 0
2, 75123, Note_on_c, 0, 68, 74
2, 75131, Note_off_c, 0, 71, 0
2, 75144, Note_off_c, 0, 64, 0
2, 75241, Note_on_c, 0, 61, 70
2, 75254, Note_off_c, 0, 68, 0
2, 75365, Note_off_c, 0, 61, 0
2, 75379, Note_on_c, 0, 59, 84
2, 75380, Note_on_c, 0, 52, 76
2, 75495, Note_on_c, 0, 56, 66
2, 75504, Note_off_c, 0, 52, 0
2, 75506, Note_off_c, 0, 59, 0
2, 75619, Note_on_c, 0, 35, 94
2, 75622, Note_off_c, 0, 56, 0
2, 75623, Control_c, 0, 64, 0
2, 75629, Note_on_c, 0, 47, 80
2, 75630, Note_off_c, 0, 42, 0
2, 75633, Note_off_c, 0, 30, 0
2, 75714, Control_c, 0, 64, 127
2, 75763, Note_on_c, 0, 59, 80
2, 75770, Note_off_c, 0, 47, 0
2, 75770, Note_on_c, 0, 51, 48
2, 75884, Note_off_c, 0, 59, 0
2, 75884, Note_on_c, 0, 57, 76
2, 75898, Note_off_c, 0, 51, 0
2, 76000, Control_c, 0, 64, 0
2, 76004, Note_off_c, 0, 57, 0
2, 76011, Note_on_c, 0, 28, 96
2, 76013, Note_on_c, 0, 40, 94
2, 76024, Note_off_c, 0, 35, 0
2, 76044, Note_on_c, 0, 47, 78
2, 76170, Note_on_c, 0, 57, 86
2, 76171, Control_c, 0, 64, 127
2, 76172, Note_on_c, 0, 52, 82
2, 76182, Note_off_c, 0, 47, 0
2, 76290, Note_off_c, 0, 57, 0
2, 76295, Note_on_c, 0, 56, 72
2, 76309, Note_off_c, 0, 52, 0
2, 76400, Note_off_c, 0, 56, 0
2, 76420, Note_on_c, 0, 59, 80
2, 76538, Note_off_c, 0, 59, 0
2, 76540, Note_on_c, 0, 71, 72
2, 76541, Note_on_c, 0, 64, 78
2, 76662, Note_on_c, 0, 68, 72
2, 76676, Note_off_c, 0, 64, 0
2, 76676, Note_off_c, 0, 71, 0
2, 76773, Note_off_c, 0, 68, 0
2, 76783, Control_c, 0, 64, 0
2, 76796, Note_off_c, 0, 40, 0
2, 76796, Note_off_c, 0, 28, 0
2, 76800, Note_on_c, 0, 71, 84
2, 76848, Control_c, 0, 64, 127
2, 76926, Note_on_c, 0, 83, 86
2, 76926, Note_on_c, 0, 76, 86
2, 76932, Note_off_c, 0, 71, 0
2, 77031, Note_off_c, 0, 83, 0
2, 77038, Note_on_c, 0, 80, 92
2, 77050, Note_off_c, 0, 76, 0
2, 77139, Control_c, 0, 64, 0
2, 77142, Note_off_c, 0, 80, 0
2, 77184, Control_c, 0, 10, 64
2, 77184, Control_c, 0, 10, 64
2, 77184, Note_on_c, 0, 59, 82
2, 77189, Note_on_c, 0, 45, 94
2, 77192, Note_on_c, 0, 57, 90
2, 77257, Control_c, 0, 64, 127
2, 77303, Note_on_c, 0, 63, 68
2, 77306, Note_on_c, 0, 54, 58
2, 77331, Note_off_c, 0, 59, 0
2, 77419, Note_off_c, 0, 63, 0
2, 77430, Note_on_c, 0, 61, 78
2, 77444, Note_off_c, 0, 54, 0
2, 77552, Note_off_c, 0, 61, 0
2, 77567, Note_on_c, 0, 64, 74
2, 77695, Note_on_c, 0, 75, 74
2, 77696, Note_on_c, 0, 66, 60
2, 77707, Note_off_c, 0, 64, 0
2, 77834, Note_on_c, 0, 73, 56
2, 77842, Note_off_c, 0, 66, 0
2, 77875, Note_off_c, 0, 75, 0
2, 77936, Note_off_c, 0, 73, 0
2, 77968, Control_c, 0, 64, 0
2, 77977, Note_on_c, 0, 76, 60
2, 78030, Control_c, 0, 64, 127
2, 78096, Note_on_c, 0, 78, 58
2, 78097, Note_on_c, 0, 87, 68
2, 78105, Note_off_c, 0, 76, 0
2, 78218, Note_on_c, 0, 85, 53
2, 78228, Note_off_c, 0, 78, 0
2, 78239, Note_off_c, 0, 87, 0
2, 78336, Control_c, 0, 10, 64
2, 78338, Control_c, 0, 64, 0
2, 78339, Note_off_c, 0, 85, 0
2, 78339, Note_on_c, 0, 44, 98
2, 78340, Note_on_c, 0, 56, 94
2, 78341, Note_on_c, 0, 88, 84
2, 78355, Note_off_c, 0, 57, 0
2, 78358, Note_off_c, 0, 45, 0
2, 78409, Control_c, 0, 64, 127
2, 78465, Note_on_c, 0, 97, 60
2, 78467, Note_on_c, 0, 92, 54
2, 78479, Note_off_c, 0, 88, 0
2, 78590, Note_on_c, 0, 95, 70
2, 78607, Note_off_c, 0, 92, 0
2, 78607, Note_off_c, 0, 97, 0
2, 78717, Note_on_c, 0, 88, 76
2, 78729, Note_off_c, 0, 95, 0
2, 78807, Note_off_c, 0, 88, 0
2, 78822, Note_on_c, 0, 45, 72
2, 78836, Note_off_c, 0, 56, 0
2, 78836, Note_off_c, 0, 44, 0
2, 78849, Note_on_c, 0, 85, 74
2, 78849, Note_on_c, 0, 80, 80
2, 78912, Note_on_c, 0, 57, 88
2, 78927, Control_c, 0, 64, 0
2, 78970, Note_on_c, 0, 83, 78
2, 78980, Control_c, 0, 64, 127
2, 78982, Note_off_c, 0, 80, 0
2, 78988, Note_off_c, 0, 85, 0
2, 79087, Note_on_c, 0, 44, 90
2, 79089, Note_on_c, 0, 56, 88
2, 79094, Control_c, 0, 64, 0
2, 79094, Note_on_c, 0, 76, 76
2, 79105, Note_off_c, 0, 83, 0
2, 79114, Note_off_c, 0, 45, 0
2, 79147, Control_c, 0, 64, 127
2, 79203, Note_off_c, 0, 57, 0
2, 79235, Note_on_c, 0, 80, 35
2, 79236, Note_on_c, 0, 88, 82
2, 79239, Note_off_c, 0, 76, 0
2, 79350, Note_off_c, 0, 88, 0
2, 79352, Note_on_c, 0, 85, 70
2, 79367, Note_off_c, 0, 80, 0
2, 79455, Control_c, 0, 64, 0
2, 79472, Note_on_c, 0, 54, 94
2, 79472, Note_on_c, 0, 42, 78
2, 79479, Note_on_c, 0, 76, 76
2, 79488, Note_off_c, 0, 44, 0
2, 79492, Note_off_c, 0, 56, 0
2, 79494, Note_off_c, 0, 85, 0
2, 79561, Control_c, 0, 64, 127
2, 79592, Note_off_c, 0, 76, 0
2, 79604, Note_on_c, 0, 83, 72
2, 79606, Note_on_c, 0, 76, 68
2, 79729, Note_on_c, 0, 80, 58
2, 79735, Note_off_c, 0, 83, 0
2, 79749, Note_off_c, 0, 76, 0
2, 79853, Note_on_c, 0, 73, 71
2, 79867, Note_off_c, 0, 80, 0
2, 79973, Note_off_c, 0, 73, 0
2, 80003, Note_on_c, 0, 71, 60
2, 80005, Note_on_c, 0, 64, 64
2, 80119, Note_on_c, 0, 68, 64
2, 80132, Note_off_c, 0, 64, 0
2, 80133, Note_off_c, 0, 71, 0
2, 80220, Control_c, 0, 64, 0
2, 80235, Note_on_c, 0, 47, 90
2, 80241, Note_on_c, 0, 59, 76
2, 80247, Note_off_c, 0, 42, 0
2, 80247, Note_off_c, 0, 54, 0
2, 80255, Note_off_c, 0, 68, 0
2, 80351, Control_c, 0, 64, 127
2, 80366, Note_on_c, 0, 63, 52
2, 80368, Note_on_c, 0, 71, 74
2, 80384, Note_off_c, 0, 59, 0
2, 80486, Note_off_c, 0, 71, 0
2, 80491, Note_on_c, 0, 69, 66
2, 80505, Note_off_c, 0, 63, 0
2, 80556, Control_c, 0, 64, 0
2, 80609, Note_on_c, 0, 40, 88
2, 80610, Note_off_c, 0, 69, 0
2, 80613, Note_on_c, 0, 52, 92
2, 80628, Note_off_c, 0, 47, 0
2, 80640, Note_on_c, 0, 59, 57
2, 80713, Control_c, 0, 64, 127
2, 80764, Note_on_c, 0, 69, 57
2, 80765, Note_on_c, 0, 64, 57
2, 80774, Note_off_c, 0, 59, 0
2, 80885, Note_on_c, 0, 68, 59
2, 80897, Note_off_c, 0, 64, 0
2, 80901, Note_off_c, 0, 69, 0
2, 81011, Note_off_c, 0, 68, 0
2, 81012, Note_on_c, 0, 71, 59
2, 81142, Note_on_c, 0, 81, 59
2, 81144, Note_on_c, 0, 76, 64
2, 81154, Note_off_c, 0, 71, 0
2, 81270, Note_on_c, 0, 80, 53
2, 81281, Note_off_c, 0, 81, 0
2, 81283, Note_off_c, 0, 76, 0
2, 81386, Note_off_c, 0, 40, 0
2, 81388, Note_off_c, 0, 52, 0
2, 81395, Note_on_c, 0, 71, 68
2, 81404, Note_off_c, 0, 80, 0
2, 81421, Control_c, 0, 64, 0
2, 81505, Note_off_c, 0, 71, 0
2, 81534, Note_on_c, 0, 69, 67
2, 81536, Note_on_c, 0, 64, 66
2, 81648, Note_on_c, 0, 68, 57
2, 81661, Note_off_c, 0, 69, 0
2, 81668, Note_off_c, 0, 64, 0
2, 81762, Note_off_c, 0, 68, 0
2, 81792, Control_c, 0, 10, 64
2, 81792, Note_on_c, 0, 56, 94
2, 81816, Note_on_c, 0, 35, 104
2, 81818, Note_on_c, 0, 47, 108
2, 81915, Note_on_c, 0, 71, 86
2, 81917, Note_on_c, 0, 62, 72
2, 81921, Control_c, 0, 64, 127
2, 81947, Note_off_c, 0, 56, 0
2, 81951, Control_c, 0, 10, 64
2, 82043, Note_on_c, 0, 65, 84
2, 82054, Note_off_c, 0, 35, 0
2, 82059, Note_off_c, 0, 71, 0
2, 82061, Note_off_c, 0, 62, 0
2, 82067, Note_off_c, 0, 47, 0
2, 82151, Note_on_c, 0, 56, 70
2, 82161, Control_c, 0, 64, 0
2, 82165, Note_on_c, 0, 62, 62
2, 82165, Note_on_c, 0, 80, 80
2, 82173, Note_off_c, 0, 65, 0
2, 82173, Note_on_c, 0, 65, 72
2, 82185, Note_on_c, 0, 71, 94
2, 82219, Control_c, 0, 64, 127
2, 82238, Note_on_c, 0, 90, 48
2, 82276, Note_off_c, 0, 90, 0
2, 82297, Note_on_c, 0, 95, 76
2, 82299, Note_on_c, 0, 86, 66
2, 82318, Note_off_c, 0, 80, 0
2, 82410, Note_on_c, 0, 89, 88
2, 82425, Note_off_c, 0, 86, 0
2, 82427, Note_off_c, 0, 95, 0
2, 82469, Note_off_c, 0, 71, 0
2, 82476, Note_off_c, 0, 62, 0
2, 82478, Note_off_c, 0, 65, 0
2, 82490, Note_off_c, 0, 56, 0
2, 82491, Note_on_c, 0, 55, 43
2, 82513, Control_c, 0, 64, 0
2, 82519, Note_off_c, 0, 89, 0
2, 82519, Note_on_c, 0, 61, 48
2, 82525, Note_on_c, 0, 64, 82
2, 82537, Note_on_c, 0, 79, 100
2, 82539, Note_on_c, 0, 70, 86
2, 82563, Control_c, 0, 64, 127
2, 82673, Note_on_c, 0, 94, 68
2, 82675, Note_on_c, 0, 85, 76
2, 82697, Note_off_c, 0, 79, 0
2, 82794, Note_on_c, 0, 88, 90
2, 82805, Note_off_c, 0, 55, 0
2, 82806, Note_off_c, 0, 85, 0
2, 82811, Note_off_c, 0, 94, 0
2, 82867, Control_c, 0, 64, 0
2, 82901, Note_on_c, 0, 47, 96
2, 82915, Note_on_c, 0, 79, 96
2, 82917, Note_off_c, 0, 61, 0
2, 82919, Note_off_c, 0, 70, 0
2, 82919, Note_off_c, 0, 64, 0
2, 82925, Note_off_c, 0, 88, 0
2, 83020, Control_c, 0, 64, 127
2, 83063, Note_on_c, 0, 94, 52
2, 83065, Note_on_c, 0, 85, 70
2, 83076, Note_off_c, 0, 79, 0
2, 83189, Note_on_c, 0, 88, 86
2, 83203, Note_off_c, 0, 85, 0
2, 83210, Note_off_c, 0, 94, 0
2, 83303, Note_off_c, 0, 88, 0
2, 83312, Note_on_c, 0, 79, 94
2, 83320, Note_on_c, 0, 64, 94
2, 83320, Note_on_c, 0, 61, 94
2, 83322, Note_on_c, 0, 55, 82
2, 83325, Note_off_c, 0, 47, 0
2, 83446, Note_on_c, 0, 82, 76
2, 83447, Note_on_c, 0, 73, 52
2, 83454, Note_off_c, 0, 79, 0
2, 83570, Note_on_c, 0, 76, 80
2, 83585, Note_off_c, 0, 73, 0
2, 83592, Note_off_c, 0, 82, 0
2, 83604, Note_off_c, 0, 55, 0
2, 83677, Note_on_c, 0, 63, 52
2, 83677, Note_on_c, 0, 60, 80
2, 83679, Note_on_c, 0, 54, 80
2, 83686, Note_off_c, 0, 64, 0
2, 83698, Note_off_c, 0, 76, 0
2, 83699, Note_on_c, 0, 66, 88
2, 83701, Note_off_c, 0, 61, 0
2, 83710, Control_c, 0, 64, 0
2, 83783, Control_c, 0, 64, 127
2, 83828, Note_on_c, 0, 72, 72
2, 83828, Note_on_c, 0, 81, 78
2, 83842, Note_off_c, 0, 66, 0
2, 83954, Note_on_c, 0, 75, 82
2, 83968, Note_off_c, 0, 72, 0
2, 83970, Note_off_c, 0, 81, 0
2, 84052, Note_off_c, 0, 60, 0
2, 84054, Note_off_c, 0, 54, 0
2, 84054, Note_off_c, 0, 63, 0
2, 84058, Control_c, 0, 64, 0
2, 84084, Note_on_c, 0, 66, 98
2, 84096, Note_on_c, 0, 47, 96
2, 84096, Note_on_c, 0, 35, 100
2, 84098, Note_off_c, 0, 75, 0
2, 84125, Control_c, 0, 64, 127
2, 84213, Note_on_c, 0, 81, 80
2, 84215, Note_on_c, 0, 72, 76
2, 84220, Note_off_c, 0, 66, 0
2, 84243, Note_off_c, 0, 35, 0
2, 84247, Note_off_c, 0, 47, 0
2, 84341, Note_on_c, 0, 75, 88
2, 84355, Note_off_c, 0, 72, 0
2, 84355, Note_off_c, 0, 81, 0
2, 84419, Note_on_c, 0, 54, 98
2, 84443, Note_on_c, 0, 60, 84
2, 84449, Note_on_c, 0, 63, 92
2, 84457, Note_off_c, 0, 75, 0
2, 84466, Note_on_c, 0, 69, 102
2, 84477, Note_on_c, 0, 78, 96
2, 84619, Note_on_c, 0, 93, 78
2, 84621, Note_on_c, 0, 84, 76
2, 84648, Note_off_c, 0, 78, 0
2, 84740, Note_on_c, 0, 87, 96
2, 84752, Note_off_c, 0, 84, 0
2, 84753, Note_off_c, 0, 93, 0
2, 84797, Note_off_c, 0, 69, 0
2, 84819, Note_off_c, 0, 63, 0
2, 84822, Note_off_c, 0, 60, 0
2, 84826, Note_on_c, 0, 53, 80
2, 84844, Note_off_c, 0, 54, 0
2, 84852, Control_c, 0, 64, 0
2, 84852, Note_on_c, 0, 59, 84
2, 84857, Note_on_c, 0, 62, 82
2, 84869, Note_on_c, 0, 68, 84
2, 84875, Note_on_c, 0, 77, 88
2, 84887, Note_off_c, 0, 87, 0
2, 84911, Control_c, 0, 64, 127
2, 84997, Note_on_c, 0, 92, 70
2, 85000, Note_on_c, 0, 83, 84
2, 85026, Note_off_c, 0, 77, 0
2, 85123, Note_on_c, 0, 86, 92
2, 85132, Note_off_c, 0, 83, 0
2, 85133, Note_off_c, 0, 53, 0
2, 85138, Note_off_c, 0, 92, 0
2, 85180, Note_off_c, 0, 59, 0
2, 85181, Note_off_c, 0, 62, 0
2, 85188, Note_off_c, 0, 68, 0
2, 85229, Control_c, 0, 64, 0
2, 85239, Note_on_c, 0, 47, 92
2, 85248, Note_on_c, 0, 77, 92
2, 85250, Note_off_c, 0, 86, 0
2, 85334, Control_c, 0, 64, 127
2, 85374, Note_on_c, 0, 92, 82
2, 85377, Note_on_c, 0, 83, 86
2, 85399, Note_off_c, 0, 77, 0
2, 85492, Note_on_c, 0, 86, 90
2, 85498, Note_off_c, 0, 47, 0
2, 85502, Note_off_c, 0, 83, 0
2, 85509, Note_off_c, 0, 92, 0
2, 85592, Note_off_c, 0, 86, 0
2, 85608, Note_on_c, 0, 62, 72
2, 85608, Note_on_c, 0, 59, 90
2, 85610, Note_on_c, 0, 53, 78
2, 85619, Note_on_c, 0, 77, 96
2, 85748, Note_on_c, 0, 80, 70
2, 85752, Note_on_c, 0, 71, 68
2, 85758, Note_off_c, 0, 77, 0
2, 85866, Note_on_c, 0, 74, 88
2, 85872, Note_off_c, 0, 71, 0
2, 85880, Note_off_c, 0, 80, 0
2, 85944, Note_off_c, 0, 53, 0
2, 85977, Note_off_c, 0, 59, 0
2, 85988, Note_off_c, 0, 74, 0
2, 85991, Note_on_c, 0, 64, 86
2, 85992, Note_off_c, 0, 62, 0
2, 85993, Note_on_c, 0, 61, 58
2, 85993, Note_on_c, 0, 59, 84
2, 85995, Note_on_c, 0, 52, 76
2, 86002, Control_c, 0, 64, 0
2, 86055, Control_c, 0, 64, 127
2, 86123, Note_on_c, 0, 79, 86
2, 86126, Note_on_c, 0, 71, 76
2, 86140, Note_off_c, 0, 64, 0
2, 86247, Note_on_c, 0, 73, 94
2, 86258, Note_off_c, 0, 71, 0
2, 86261, Note_off_c, 0, 79, 0
2, 86353, Note_off_c, 0, 73, 0
2, 86362, Note_off_c, 0, 59, 0
2, 86364, Note_off_c, 0, 52, 0
2, 86370, Note_off_c, 0, 61, 0
2, 86379, Control_c, 0, 64, 0
2, 86400, Control_c, 0, 10, 64
2, 86421, Note_on_c, 0, 55, 80
2, 86422, Note_on_c, 0, 64, 72
2, 86423, Note_on_c, 0, 47, 62
2, 86433, Control_c, 0, 10, 64
2, 86539, Note_on_c, 0, 76, 64
2, 86541, Note_on_c, 0, 71, 56
2, 86657, Note_on_c, 0, 73, 70
2, 86673, Note_off_c, 0, 71, 0
2, 86678, Note_off_c, 0, 76, 0
2, 86773, Note_on_c, 0, 66, 80
2, 86780, Note_on_c, 0, 54, 74
2, 86787, Note_off_c, 0, 73, 0
2, 86787, Note_off_c, 0, 64, 0
2, 86810, Note_off_c, 0, 55, 0
2, 86901, Note_on_c, 0, 78, 62
2, 86904, Note_on_c, 0, 71, 74
2, 87027, Note_off_c, 0, 71, 0
2, 87028, Note_on_c, 0, 73, 86
2, 87045, Note_off_c, 0, 78, 0
2, 87144, Note_on_c, 0, 52, 84
2, 87146, Note_on_c, 0, 67, 80
2, 87157, Note_off_c, 0, 73, 0
2, 87169, Note_off_c, 0, 66, 0
2, 87182, Note_off_c, 0, 54, 0
2, 87278, Note_on_c, 0, 79, 82
2, 87279, Note_on_c, 0, 71, 76
2, 87405, Note_on_c, 0, 73, 88
2, 87424, Note_off_c, 0, 71, 0
2, 87425, Note_off_c, 0, 79, 0
2, 87507, Note_off_c, 0, 52, 0
2, 87509, Note_off_c, 0, 67, 0
2, 87523, Note_on_c, 0, 52, 88
2, 87532, Note_on_c, 0, 67, 90
2, 87670, Note_off_c, 0, 73, 0
2, 87670, Note_on_c, 0, 79, 82
2, 87672, Note_on_c, 0, 71, 76
2, 87805, Note_on_c, 0, 73, 82
2, 87820, Note_off_c, 0, 71, 0
2, 87823, Note_off_c, 0, 79, 0
2, 87926, Note_on_c, 0, 59, 86
2, 87935, Note_on_c, 0, 66, 78
2, 87938, Note_off_c, 0, 73, 0
2, 87945, Note_off_c, 0, 67, 0
2, 87951, Note_off_c, 0, 52, 0
2, 88068, Note_on_c, 0, 78, 60
2, 88070, Note_on_c, 0, 71, 68
2, 88194, Note_on_c, 0, 73, 70
2, 88209, Note_off_c, 0, 71, 0
2, 88221, Note_off_c, 0, 78, 0
2, 88329, Note_on_c, 0, 64, 66
2, 88341, Note_off_c, 0, 73, 0
2, 88348, Note_off_c, 0, 66, 0
2, 88454, Note_on_c, 0, 76, 58
2, 88456, Note_on_c, 0, 71, 62
2, 88529, Note_on_c, 0, 52, 78
2, 88563, Note_off_c, 0, 59, 0
2, 88579, Note_on_c, 0, 73, 58
2, 88596, Note_off_c, 0, 76, 0
2, 88602, Note_off_c, 0, 71, 0
2, 88627, Note_off_c, 0, 64, 0
2, 88699, Note_on_c, 0, 64, 76
2, 88715, Note_on_c, 0, 55, 80
2, 88734, Note_off_c, 0, 73, 0
2, 88742, Note_off_c, 0, 52, 0
2, 88835, Note_on_c, 0, 71, 60
2, 88835, Note_on_c, 0, 76, 64
2, 88963, Note_on_c, 0, 73, 64
2, 88985, Note_off_c, 0, 76, 0
2, 88991, Note_off_c, 0, 71, 0
2, 89043, Control_c, 0, 64, 127
2, 89053, Note_off_c, 0, 64, 0
2, 89085, Note_on_c, 0, 64, 62
2, 89115, Note_off_c, 0, 73, 0
2, 89210, Note_on_c, 0, 76, 66
2, 89211, Note_on_c, 0, 70, 43
2, 89333, Note_on_c, 0, 73, 62
2, 89355, Note_off_c, 0, 76, 0
2, 89370, Note_off_c, 0, 70, 0
2, 89432, Note_off_c, 0, 64, 0
2, 89456, Note_on_c, 0, 64, 56
2, 89460, Control_c, 0, 64, 0
2, 89481, Note_off_c, 0, 73, 0
2, 89513, Control_c, 0, 64, 127
2, 89588, Note_on_c, 0, 76, 64
2, 89588, Note_on_c, 0, 69, 60
2, 89719, Note_on_c, 0, 72, 72
2, 89740, Note_off_c, 0, 69, 0
2, 89751, Note_off_c, 0, 76, 0
2, 89822, Note_off_c, 0, 64, 0
2, 89837, Note_on_c, 0, 64, 60
2, 89838, Control_c, 0, 64, 0
2, 89851, Note_off_c, 0, 72, 0
2, 89852, Note_on_c, 0, 54, 57
2, 89883, Note_off_c, 0, 55, 0
2, 89965, Control_c, 0, 64, 127
2, 89978, Note_on_c, 0, 69, 52
2, 89979, Note_on_c, 0, 76, 53
2, 90101, Note_on_c, 0, 72, 68
2, 90118, Note_off_c, 0, 69, 0
2, 90124, Note_off_c, 0, 76, 0
2, 90226, Note_on_c, 0, 63, 31
2, 90230, Note_off_c, 0, 72, 0
2, 90254, Note_off_c, 0, 64, 0
2, 90325, Control_c, 0, 64, 0
2, 90350, Note_on_c, 0, 75, 50
2, 90350, Note_on_c, 0, 69, 64
2, 90382, Control_c, 0, 64, 127
2, 90479, Note_on_c, 0, 71, 74
2, 90496, Note_off_c, 0, 69, 0
2, 90511, Note_off_c, 0, 75, 0
2, 90605, Note_off_c, 0, 47, 0
2, 90607, Control_c, 0, 64, 0
2, 90610, Note_off_c, 0, 54, 0
2, 90613, Note_on_c, 0, 59, 64
2, 90615, Note_off_c, 0, 71, 0
2, 90635, Note_off_c, 0, 63, 0
2, 90734, Control_c, 0, 64, 127
2, 90744, Note_on_c, 0, 71, 54
2, 90747, Note_on_c, 0, 63, 30
2, 90876, Note_on_c, 0, 69, 62
2, 90894, Note_off_c, 0, 71, 0
2, 90989, Control_c, 0, 64, 0
2, 90995, Note_off_c, 0, 63, 0
2, 90996, Note_off_c, 0, 69, 0
2, 90997, Note_off_c, 0, 59, 0
2, 91008, Note_on_c, 0, 40, 70
2, 91008, Control_c, 0, 10, 64
2, 91008, Control_c, 0, 10, 64
2, 91014, Note_on_c, 0, 56, 76
2, 91087, Note_on_c, 0, 52, 70
2, 91140, Control_c, 0, 64, 127
2, 91200, Note_on_c, 0, 71, 51
2, 91202, Note_off_c, 0, 56, 0
2, 91202, Note_on_c, 0, 64, 51
2, 91395, Note_off_c, 0, 71, 0
2, 91402, Note_on_c, 0, 68, 54
2, 91424, Note_off_c, 0, 64, 0
2, 91580, Note_off_c, 0, 68, 0
2, 91580, Note_on_c, 0, 71, 72
2, 91768, Note_off_c, 0, 71, 0
2, 91768, Note_on_c, 0, 76, 58
2, 91770, Note_on_c, 0, 83, 56
2, 91820, Note_on_c, 0, 59, 72
2, 91962, Note_on_c, 0, 80, 47
2, 91982, Note_off_c, 0, 83, 0
2, 91982, Note_off_c, 0, 76, 0
2, 91985, Control_c, 0, 64, 0
2, 92050, Control_c, 0, 64, 127
2, 92164, Note_on_c, 0, 83, 74
2, 92187, Note_off_c, 0, 80, 0
2, 92322, Note_off_c, 0, 83, 0
2, 92351, Note_on_c, 0, 95, 56
2, 92352, Note_on_c, 0, 88, 62
2, 92546, Note_on_c, 0, 61, 88
2, 92551, Note_on_c, 0, 92, 49
2, 92560, Note_off_c, 0, 40, 0
2, 92571, Note_off_c, 0, 88, 0
2, 92573, Note_off_c, 0, 95, 0
2, 92621, Note_off_c, 0, 59, 0
2, 92687, Control_c, 0, 64, 0
2, 92727, Note_off_c, 0, 52, 0
2, 92733, Note_on_c, 0, 83, 50
2, 92748, Note_off_c, 0, 92, 0
2, 92783, Control_c, 0, 64, 127
2, 92925, Note_on_c, 0, 95, 54
2, 92927, Note_on_c, 0, 88, 50
2, 92935, Note_off_c, 0, 83, 0
2, 93109, Note_on_c, 0, 92, 45
2, 93124, Note_off_c, 0, 88, 0
2, 93131, Note_off_c, 0, 95, 0
2, 93240, Note_off_c, 0, 61, 0
2, 93280, Control_c, 0, 64, 0
2, 93299, Note_on_c, 0, 61, 84
2, 93299, Note_on_c, 0, 54, 53
2, 93301, Note_on_c, 0, 51, 51
2, 93320, Note_on_c, 0, 83, 53
2, 93344, Note_off_c, 0, 92, 0
2, 93493, Control_c, 0, 64, 127
2, 93503, Note_on_c, 0, 87, 41
2, 93504, Note_on_c, 0, 95, 54
2, 93520, Note_off_c, 0, 83, 0
2, 93688, Note_on_c, 0, 90, 49
2, 93707, Note_off_c, 0, 95, 0
2, 93714, Note_off_c, 0, 87, 0
2, 93881, Note_on_c, 0, 83, 58
2, 93902, Note_off_c, 0, 90, 0
2, 94071, Note_on_c, 0, 75, 42
2, 94071, Note_on_c, 0, 83, 52
2, 94095, Note_off_c, 0, 83, 0
2, 94249, Note_on_c, 0, 78, 50
2, 94261, Note_off_c, 0, 83, 0
2, 94281, Note_off_c, 0, 75, 0
2, 94427, Control_c, 0, 64, 0
2, 94438, Note_on_c, 0, 71, 64
2, 94463, Note_off_c, 0, 78, 0
2, 94557, Note_off_c, 0, 71, 0
2, 94562, Control_c, 0, 64, 127
2, 94640, Note_on_c, 0, 71, 53
2, 94643, Note_on_c, 0, 63, 45
2, 94831, Note_on_c, 0, 66, 46
2, 94840, Note_off_c, 0, 54, 0
2, 94846, Note_off_c, 0, 71, 0
2, 94858, Note_off_c, 0, 51, 0
2, 94865, Note_off_c, 0, 63, 0
2, 94904, Note_off_c, 0, 61, 0
2, 95022, Note_on_c, 0, 59, 75
2, 95048, Note_off_c, 0, 66, 0
2, 95126, Control_c, 0, 64, 0
2, 95212, Note_on_c, 0, 63, 28
2, 95214, Note_on_c, 0, 71, 50
2, 95227, Note_off_c, 0, 59, 0
2, 95252, Control_c, 0, 64, 127
2, 95419, Note_on_c, 0, 66, 42
2, 95430, Note_off_c, 0, 71, 0
2, 95442, Note_off_c, 0, 63, 0
2, 95472, Note_on_c, 0, 37, 60
2, 95578, Note_on_c, 0, 49, 78
2, 95585, Note_off_c, 0, 66, 0
2, 95594, Control_c, 0, 64, 0
2, 95616, Note_on_c, 0, 56, 76
2, 95698, Control_c, 0, 64, 127
2, 95785, Note_on_c, 0, 68, 50
2, 95786, Note_on_c, 0, 61, 39
2, 95817, Note_off_c, 0, 56, 0
2, 95973, Note_on_c, 0, 64, 70
2, 95991, Note_off_c, 0, 61, 0
2, 95991, Note_off_c, 0, 68, 0
2, 96173, Note_on_c, 0, 68, 48
2, 96188, Note_off_c, 0, 64, 0
2, 96308, Note_off_c, 0, 68, 0
2, 96342, Control_c, 0, 64, 0
2, 96363, Note_on_c, 0, 56, 84
2, 96380, Note_on_c, 0, 73, 49
2, 96391, Note_on_c, 0, 80, 22
2, 96460, Control_c, 0, 64, 127
2, 96563, Note_on_c, 0, 76, 74
2, 96587, Note_off_c, 0, 80, 0
2, 96590, Note_off_c, 0, 73, 0
2, 96744, Note_on_c, 0, 80, 49
2, 96759, Note_off_c, 0, 76, 0
2, 96875, Note_off_c, 0, 80, 0
2, 96945, Note_on_c, 0, 92, 64
2, 96947, Note_on_c, 0, 85, 50
2, 96967, Note_off_c, 0, 37, 0
2, 97037, Note_off_c, 0, 49, 0
2, 97120, Note_on_c, 0, 88, 76
2, 97132, Note_off_c, 0, 85, 0
2, 97143, Note_off_c, 0, 92, 0
2, 97170, Note_on_c, 0, 59, 84
2, 97223, Note_off_c, 0, 56, 0
2, 97274, Control_c, 0, 64, 0
2, 97328, Note_on_c, 0, 81, 54
2, 97340, Note_off_c, 0, 88, 0
2, 97387, Control_c, 0, 64, 127
2, 97525, Note_off_c, 0, 81, 0
2, 97528, Note_on_c, 0, 85, 60
2, 97528, Note_on_c, 0, 93, 74
2, 97684, Note_on_c, 0, 57, 80
2, 97714, Note_on_c, 0, 88, 82
2, 97727, Note_off_c, 0, 93, 0
2, 97731, Note_off_c, 0, 85, 0
2, 97764, Control_c, 0, 64, 0
2, 97774, Note_off_c, 0, 59, 0
2, 97813, Note_off_c, 0, 57, 0
2, 97830, Control_c, 0, 64, 127
2, 97876, Note_on_c, 0, 57, 86
2, 97893, Note_on_c, 0, 48, 68
2, 97909, Note_on_c, 0, 81, 70
2, 97926, Note_off_c, 0, 88, 0
2, 97991, Control_c, 0, 64, 0
2, 98064, Control_c, 0, 64, 127
2, 98116, Note_on_c, 0, 93, 66
2, 98117, Note_on_c, 0, 84, 74
2, 98124, Note_off_c, 0, 81, 0
2, 98300, Note_on_c, 0, 87, 56
2, 98319, Note_off_c, 0, 84, 0
2, 98319, Note_off_c, 0, 93, 0
2, 98487, Note_on_c, 0, 81, 56
2, 98508, Note_off_c, 0, 87, 0
2, 98604, Note_off_c, 0, 81, 0
2, 98698, Note_on_c, 0, 81, 58
2, 98701, Note_on_c, 0, 72, 58
2, 98881, Note_on_c, 0, 75, 68
2, 98892, Note_off_c, 0, 81, 0
2, 98906, Note_off_c, 0, 72, 0
2, 99068, Note_on_c, 0, 69, 68
2, 99085, Note_off_c, 0, 75, 0
2, 99173, Note_off_c, 0, 69, 0
2, 99254, Control_c, 0, 64, 0
2, 99269, Note_on_c, 0, 69, 54
2, 99273, Note_on_c, 0, 60, 56
2, 99444, Note_on_c, 0, 63, 54
2, 99457, Note_off_c, 0, 69, 0
2, 99468, Note_off_c, 0, 60, 0
2, 99531, Note_off_c, 0, 48, 0
2, 99572, Note_off_c, 0, 57, 0
2, 99634, Note_on_c, 0, 56, 80
2, 99651, Note_off_c, 0, 63, 0
2, 99739, Control_c, 0, 64, 127
2, 99838, Note_on_c, 0, 68, 74
2, 99840, Note_on_c, 0, 60, 54
2, 99855, Note_off_c, 0, 56, 0
2, 100014, Note_on_c, 0, 63, 45
2, 100023, Note_off_c, 0, 60, 0
2, 100043, Note_off_c, 0, 68, 0
2, 100168, Note_off_c, 0, 63, 0
2, 100175, Control_c, 0, 64, 0
2, 100223, Note_on_c, 0, 45, 74
2, 100223, Note_on_c, 0, 52, 90
2, 100224, Note_on_c, 0, 56, 62
2, 100399, Note_on_c, 0, 64, 58
2, 100401, Note_on_c, 0, 57, 58
2, 100418, Note_off_c, 0, 56, 0
2, 100425, Control_c, 0, 64, 127
2, 100573, Note_on_c, 0, 61, 53
2, 100583, Note_off_c, 0, 64, 0
2, 100591, Note_off_c, 0, 57, 0
2, 100773, Note_on_c, 0, 64, 52
2, 100778, Note_off_c, 0, 61, 0
2, 100952, Control_c, 0, 64, 0
2, 100973, Note_on_c, 0, 69, 74
2, 100976, Note_on_c, 0, 76, 51
2, 100987, Note_off_c, 0, 64, 0
2, 101004, Note_on_c, 0, 51, 84
2, 101073, Note_off_c, 0, 52, 0
2, 101097, Control_c, 0, 64, 127
2, 101102, Note_off_c, 0, 45, 0
2, 101172, Note_on_c, 0, 73, 52
2, 101182, Note_off_c, 0, 76, 0
2, 101190, Note_off_c, 0, 69, 0
2, 101356, Note_on_c, 0, 76, 54
2, 101361, Note_off_c, 0, 73, 0
2, 101560, Note_on_c, 0, 81, 66
2, 101560, Note_on_c, 0, 88, 72
2, 101565, Note_off_c, 0, 76, 0
2, 101708, Note_off_c, 0, 88, 0
2, 101733, Control_c, 0, 64, 0
2, 101743, Note_off_c, 0, 81, 0
2, 101759, Note_on_c, 0, 85, 76
2, 101792, Note_on_c, 0, 49, 86
2, 101859, Control_c, 0, 64, 127
2, 101876, Note_off_c, 0, 51, 0
2, 101947, Note_on_c, 0, 88, 74
2, 101974, Note_off_c, 0, 85, 0
2, 102160, Note_on_c, 0, 100, 66
2, 102161, Note_on_c, 0, 93, 62
2, 102177, Note_off_c, 0, 88, 0
2, 102342, Note_off_c, 0, 100, 0
2, 102347, Note_on_c, 0, 97, 66
2, 102363, Note_off_c, 0, 93, 0
2, 102521, Control_c, 0, 64, 0
2, 102529, Note_on_c, 0, 88, 72
2, 102547, Note_off_c, 0, 97, 0
2, 102574, Note_on_c, 0, 40, 50
2, 102578, Note_on_c, 0, 47, 78
2, 102622, Note_off_c, 0, 49, 0
2, 102712, Control_c, 0, 64, 127
2, 102713, Note_on_c, 0, 92, 41
2, 102715, Note_on_c, 0, 100, 68
2, 102735, Note_off_c, 0, 88, 0
2, 102896, Note_on_c, 0, 95, 66
2, 102909, Note_off_c, 0, 100, 0
2, 102917, Note_off_c, 0, 92, 0
2, 103087, Note_on_c, 0, 88, 72
2, 103096, Note_off_c, 0, 95, 0
2, 103237, Note_off_c, 0, 88, 0
2, 103253, Control_c, 0, 64, 0
2, 103272, Note_on_c, 0, 95, 70
2, 103273, Note_on_c, 0, 88, 68
2, 103311, Control_c, 0, 64, 127
2, 103312, Note_on_c, 0, 52, 82
2, 103466, Note_on_c, 0, 92, 52
2, 103482, Note_off_c, 0, 88, 0
2, 103485, Note_off_c, 0, 95, 0
2, 103651, Note_on_c, 0, 83, 62
2, 103672, Note_off_c, 0, 92, 0
2, 103817, Note_off_c, 0, 83, 0
2, 103844, Note_on_c, 0, 92, 47
2, 103847, Note_on_c, 0, 83, 56
2, 104041, Control_c, 0, 64, 0
2, 104045, Note_on_c, 0, 76, 74
2, 104053, Note_on_c, 0, 56, 78
2, 104055, Note_off_c, 0, 83, 0
2, 104069, Note_off_c, 0, 92, 0
2, 104073, Note_off_c, 0, 40, 0
2, 104099, Note_off_c, 0, 47, 0
2, 104136, Note_off_c, 0, 52, 0
2, 104177, Control_c, 0, 64, 127
2, 104242, Note_on_c, 0, 68, 58
2, 104250, Note_off_c, 0, 76, 0
2, 104416, Note_off_c, 0, 68, 0
2, 104436, Note_on_c, 0, 68, 54
2, 104436, Note_on_c, 0, 76, 72
2, 104637, Note_on_c, 0, 71, 76
2, 104651, Note_off_c, 0, 76, 0
2, 104653, Note_off_c, 0, 68, 0
2, 104767, Note_off_c, 0, 71, 0
2, 104813, Note_on_c, 0, 51, 44
2, 104818, Control_c, 0, 64, 0
2, 104822, Note_on_c, 0, 59, 80
2, 104832, Note_on_c, 0, 75, 56
2, 104881, Note_off_c, 0, 56, 0
2, 105008, Control_c, 0, 64, 127
2, 105013, Note_on_c, 0, 87, 56
2, 105014, Note_on_c, 0, 80, 33
2, 105038, Note_off_c, 0, 75, 0
2, 105200, Note_on_c, 0, 83, 76
2, 105219, Note_off_c, 0, 80, 0
2, 105229, Note_off_c, 0, 87, 0
2, 105391, Note_on_c, 0, 75, 68
2, 105404, Note_off_c, 0, 83, 0
2, 105565, Note_off_c, 0, 75, 0
2, 105577, Note_on_c, 0, 63, 74
2, 105585, Note_on_c, 0, 75, 33
2, 105585, Note_on_c, 0, 83, 66
2, 105615, Control_c, 0, 64, 0
2, 105668, Note_off_c, 0, 59, 0
2, 105771, Note_on_c, 0, 80, 49
2, 105784, Control_c, 0, 64, 127
2, 105786, Note_off_c, 0, 83, 0
2, 105799, Note_off_c, 0, 75, 0
2, 105977, Note_on_c, 0, 71, 56
2, 105991, Note_off_c, 0, 80, 0
2, 106141, Note_off_c, 0, 71, 0
2, 106178, Note_on_c, 0, 80, 70
2, 106185, Note_on_c, 0, 71, 51
2, 106364, Note_on_c, 0, 75, 30
2, 106374, Note_off_c, 0, 71, 0
2, 106378, Note_on_c, 0, 61, 80
2, 106407, Control_c, 0, 64, 0
2, 106471, Note_off_c, 0, 63, 0
2, 106556, Note_on_c, 0, 67, 37
2, 106601, Note_off_c, 0, 75, 0
2, 106602, Control_c, 0, 64, 127
2, 106702, Note_off_c, 0, 80, 0
2, 106726, Note_off_c, 0, 67, 0
2, 106735, Note_on_c, 0, 79, 72
2, 106738, Note_on_c, 0, 70, 44
2, 106856, Note_on_c, 0, 44, 50
2, 106920, Note_on_c, 0, 75, 42
2, 106931, Note_off_c, 0, 79, 0
2, 107048, Note_off_c, 0, 70, 0
2, 107078, Control_c, 0, 64, 0
2, 107125, Note_on_c, 0, 68, 56
2, 107128, Note_off_c, 0, 75, 0
2, 107166, Note_on_c, 0, 59, 82
2, 107225, Note_off_c, 0, 61, 0
2, 107318, Note_on_c, 0, 80, 53
2, 107319, Note_on_c, 0, 71, 66
2, 107326, Note_off_c, 0, 68, 0
2, 107395, Control_c, 0, 64, 127
2, 107511, Note_on_c, 0, 75, 51
2, 107523, Note_off_c, 0, 80, 0
2, 107532, Note_off_c, 0, 71, 0
2, 107694, Note_on_c, 0, 68, 70
2, 107709, Note_off_c, 0, 75, 0
2, 107860, Note_off_c, 0, 68, 0
2, 107871, Note_on_c, 0, 75, 51
2, 107874, Note_on_c, 0, 68, 43
2, 107910, Control_c, 0, 64, 0
2, 107924, Note_on_c, 0, 58, 74
2, 108026, Note_off_c, 0, 59, 0
2, 108073, Note_on_c, 0, 71, 74
2, 108094, Note_off_c, 0, 75, 0
2, 108099, Note_off_c, 0, 68, 0
2, 108281, Note_on_c, 0, 63, 54
2, 108292, Note_off_c, 0, 71, 0
2, 108368, Note_off_c, 0, 51, 0
2, 108401, Note_off_c, 0, 44, 0
2, 108466, Note_off_c, 0, 63, 0
2, 108483, Note_on_c, 0, 71, 86
2, 108485, Note_on_c, 0, 63, 44
2, 108665, Note_on_c, 0, 47, 78
2, 108671, Note_on_c, 0, 57, 68
2, 108677, Note_on_c, 0, 68, 46
2, 108699, Note_off_c, 0, 63, 0
2, 108747, Note_off_c, 0, 58, 0
2, 108854, Note_on_c, 0, 59, 51
2, 108875, Control_c, 0, 64, 127
2, 108895, Note_off_c, 0, 68, 0
2, 109007, Note_off_c, 0, 71, 0
2, 109038, Note_off_c, 0, 59, 0
2, 109039, Note_on_c, 0, 63, 48
2, 109039, Note_on_c, 0, 71, 88
2, 109079, Note_on_c, 0, 40, 78
2, 109226, Note_on_c, 0, 66, 43
2, 109243, Control_c, 0, 64, 0
2, 109252, Note_off_c, 0, 63, 0
2, 109368, Note_off_c, 0, 71, 0
2, 109378, Control_c, 0, 64, 127
2, 109421, Note_on_c, 0, 59, 66
2, 109437, Note_off_c, 0, 66, 0
2, 109448, Note_on_c, 0, 56, 80
2, 109524, Note_off_c, 0, 57, 0
2, 109611, Note_on_c, 0, 64, 70
2, 109611, Note_on_c, 0, 71, 76
2, 109624, Note_off_c, 0, 59, 0
2, 109805, Note_on_c, 0, 68, 52
2, 109822, Note_off_c, 0, 71, 0
2, 109826, Note_off_c, 0, 64, 0
2, 110016, Note_on_c, 0, 71, 56
2, 110021, Note_off_c, 0, 68, 0
2, 110174, Control_c, 0, 64, 0
2, 110199, Note_on_c, 0, 59, 84
2, 110210, Note_on_c, 0, 76, 62
2, 110211, Note_on_c, 0, 83, 72
2, 110219, Note_off_c, 0, 71, 0
2, 110269, Note_off_c, 0, 56, 0
2, 110352, Control_c, 0, 64, 127
2, 110392, Note_on_c, 0, 80, 52
2, 110415, Note_off_c, 0, 83, 0
2, 110604, Note_on_c, 0, 83, 70
2, 110619, Note_off_c, 0, 80, 0
2, 110748, Note_off_c, 0, 76, 0
2, 110749, Note_off_c, 0, 83, 0
2, 110784, Note_on_c, 0, 88, 64
2, 110784, Note_on_c, 0, 95, 74
2, 110976, Note_on_c, 0, 92, 53
2, 110992, Note_off_c, 0, 88, 0
2, 110994, Note_off_c, 0, 95, 0
2, 110996, Note_on_c, 0, 63, 88
2, 111028, Note_off_c, 0, 40, 0
2, 111036, Note_off_c, 0, 47, 0
2, 111087, Note_off_c, 0, 59, 0
2, 111165, Note_on_c, 0, 83, 56
2, 111184, Note_off_c, 0, 92, 0
2, 111359, Note_on_c, 0, 95, 68
2, 111360, Note_on_c, 0, 88, 68
2, 111377, Note_off_c, 0, 83, 0
2, 111537, Note_on_c, 0, 61, 98
2, 111547, Note_on_c, 0, 92, 58
2, 111567, Note_off_c, 0, 88, 0
2, 111569, Note_off_c, 0, 95, 0
2, 111626, Control_c, 0, 64, 0
2, 111629, Note_off_c, 0, 63, 0
2, 111703, Note_off_c, 0, 61, 0
2, 111736, Note_on_c, 0, 83, 62
2, 111754, Note_off_c, 0, 92, 0
2, 111762, Note_on_c, 0, 54, 51
2, 111764, Note_on_c, 0, 61, 92
2, 111766, Note_on_c, 0, 51, 43
2, 111933, Note_on_c, 0, 87, 47
2, 111934, Note_on_c, 0, 95, 68
2, 111955, Note_off_c, 0, 83, 0
2, 111986, Control_c, 0, 64, 127
2, 112114, Note_on_c, 0, 90, 60
2, 112129, Note_off_c, 0, 95, 0
2, 112134, Note_off_c, 0, 87, 0
2, 112312, Note_on_c, 0, 83, 62
2, 112332, Note_off_c, 0, 90, 0
2, 112501, Note_on_c, 0, 75, 56
2, 112502, Note_on_c, 0, 83, 72
2, 112512, Note_off_c, 0, 83, 0
2, 112692, Note_on_c, 0, 78, 58
2, 112709, Note_off_c, 0, 83, 0
2, 112721, Note_off_c, 0, 75, 0
2, 112872, Note_on_c, 0, 71, 54
2, 112891, Note_off_c, 0, 78, 0
2, 113005, Note_off_c, 0, 71, 0
2, 113075, Note_on_c, 0, 63, 35
2, 113076, Note_on_c, 0, 71, 60
2, 113115, Control_c, 0, 64, 0
2, 113265, Note_on_c, 0, 66, 56
2, 113278, Note_off_c, 0, 71, 0
2, 113286, Note_off_c, 0, 54, 0
2, 113293, Note_off_c, 0, 63, 0
2, 113299, Note_off_c, 0, 51, 0
2, 113346, Note_off_c, 0, 61, 0
2, 113458, Note_on_c, 0, 59, 76
2, 113477, Note_off_c, 0, 66, 0
2, 113655, Control_c, 0, 64, 127
2, 113660, Note_on_c, 0, 63, 33
2, 113662, Note_on_c, 0, 71, 45
2, 113809, Note_on_c, 0, 37, 70
2, 113849, Note_on_c, 0, 66, 47
2, 113861, Note_off_c, 0, 71, 0
2, 113881, Note_off_c, 0, 63, 0
2, 113920, Note_off_c, 0, 59, 0
2, 113934, Control_c, 0, 64, 0
2, 114035, Note_on_c, 0, 49, 80
2, 114047, Note_on_c, 0, 56, 80
2, 114052, Note_off_c, 0, 66, 0
2, 114176, Control_c, 0, 64, 127
2, 114235, Note_on_c, 0, 68, 64
2, 114239, Note_on_c, 0, 61, 44
2, 114262, Note_off_c, 0, 56, 0
2, 114428, Note_on_c, 0, 64, 31
2, 114435, Note_off_c, 0, 61, 0
2, 114452, Note_off_c, 0, 68, 0
2, 114614, Note_on_c, 0, 68, 72
2, 114631, Note_off_c, 0, 64, 0
2, 114811, Note_on_c, 0, 85, 74
2, 114811, Note_on_c, 0, 92, 56
2, 114836, Note_off_c, 0, 68, 0
2, 114854, Note_on_c, 0, 56, 82
2, 114988, Note_on_c, 0, 88, 78
2, 115004, Note_off_c, 0, 92, 0
2, 115004, Note_off_c, 0, 85, 0
2, 115182, Note_on_c, 0, 92, 52
2, 115199, Note_off_c, 0, 88, 0
2, 115353, Note_off_c, 0, 92, 0
2, 115381, Note_on_c, 0, 92, 74
2, 115562, Note_on_c, 0, 88, 78
2, 115577, Note_off_c, 0, 92, 0
2, 115577, Note_on_c, 0, 59, 80
2, 115614, Note_off_c, 0, 56, 0
2, 115677, Control_c, 0, 64, 0
2, 115755, Note_on_c, 0, 80, 66
2, 115766, Note_off_c, 0, 88, 0
2, 115777, Control_c, 0, 64, 127
2, 115933, Note_off_c, 0, 80, 0
2, 115952, Note_on_c, 0, 85, 48
2, 115953, Note_on_c, 0, 93, 68
2, 116128, Note_off_c, 0, 37, 0
2, 116146, Note_on_c, 0, 88, 74
2, 116151, Note_on_c, 0, 57, 90
2, 116154, Note_off_c, 0, 93, 0
2, 116165, Note_off_c, 0, 85, 0
2, 116228, Note_off_c, 0, 59, 0
2, 116245, Control_c, 0, 64, 0
2, 116300, Note_off_c, 0, 57, 0
2, 116341, Note_on_c, 0, 81, 76
2, 116347, Note_off_c, 0, 88, 0
2, 116368, Note_on_c, 0, 57, 84
2, 116368, Note_on_c, 0, 48, 68
2, 116477, Note_off_c, 0, 49, 0
2, 116522, Note_off_c, 0, 81, 0
2, 116533, Note_on_c, 0, 81, 54
2, 116539, Note_on_c, 0, 72, 58
2, 116575, Control_c, 0, 64, 127
2, 116708, Note_off_c, 0, 81, 0
2, 116715, Note_on_c, 0, 75, 68
2, 116736, Note_off_c, 0, 72, 0
2, 116919, Note_on_c, 0, 69, 62
2, 116943, Note_off_c, 0, 75, 0
2, 117105, Note_off_c, 0, 69, 0
2, 117115, Note_on_c, 0, 80, 64
2, 117117, Note_on_c, 0, 72, 64
2, 117297, Note_on_c, 0, 75, 52
2, 117311, Note_off_c, 0, 80, 0
2, 117318, Note_off_c, 0, 72, 0
2, 117480, Note_on_c, 0, 69, 68
2, 117497, Note_off_c, 0, 75, 0
2, 117647, Control_c, 0, 64, 0
2, 117656, Note_off_c, 0, 69, 0
2, 117705, Note_on_c, 0, 69, 53
2, 117708, Note_on_c, 0, 60, 47
2, 117878, Note_on_c, 0, 63, 64
2, 117889, Note_off_c, 0, 69, 0
2, 117903, Note_off_c, 0, 60, 0
2, 117998, Note_off_c, 0, 57, 0
2, 118023, Note_off_c, 0, 48, 0
2, 118068, Note_on_c, 0, 56, 80
2, 118082, Note_off_c, 0, 63, 0
2, 118183, Control_c, 0, 64, 127
2, 118204, Note_off_c, 0, 56, 0
2, 118253, Note_on_c, 0, 68, 53
2, 118254, Note_on_c, 0, 60, 61
2, 118439, Note_on_c, 0, 63, 53
2, 118454, Note_off_c, 0, 60, 0
2, 118463, Note_off_c, 0, 68, 0
2, 118580, Note_off_c, 0, 63, 0
2, 118623, Note_on_c, 0, 45, 72
2, 118623, Note_on_c, 0, 52, 84
2, 118638, Control_c, 0, 64, 0
2, 118657, Note_on_c, 0, 56, 43
2, 118802, Control_c, 0, 64, 127
2, 118837, Note_on_c, 0, 64, 56
2, 118840, Note_on_c, 0, 57, 45
2, 118859, Note_off_c, 0, 56, 0
2, 119017, Note_on_c, 0, 61, 46
2, 119022, Note_off_c, 0, 64, 0
2, 119033, Note_off_c, 0, 57, 0
2, 119204, Note_on_c, 0, 64, 52
2, 119214, Note_off_c, 0, 61, 0
2, 119390, Control_c, 0, 64, 0
2, 119399, Note_on_c, 0, 69, 64
2, 119401, Note_on_c, 0, 76, 54
2, 119411, Note_off_c, 0, 64, 0
2, 119428, Note_on_c, 0, 51, 72
2, 119512, Note_off_c, 0, 52, 0
2, 119585, Note_off_c, 0, 76, 0
2, 119591, Note_on_c, 0, 73, 53
2, 119612, Note_off_c, 0, 69, 0
2, 119647, Control_c, 0, 64, 127
2, 119786, Note_on_c, 0, 76, 53
2, 119791, Note_off_c, 0, 73, 0
2, 119988, Note_on_c, 0, 81, 60
2, 119988, Note_on_c, 0, 88, 62
2, 119998, Note_off_c, 0, 76, 0
2, 120115, Note_off_c, 0, 81, 0
2, 120140, Note_off_c, 0, 88, 0
2, 120170, Control_c, 0, 64, 0
2, 120196, Note_on_c, 0, 49, 82
2, 120203, Note_on_c, 0, 85, 70
2, 120290, Note_off_c, 0, 51, 0
2, 120357, Control_c, 0, 64, 127
2, 120369, Note_on_c, 0, 88, 62
2, 120394, Note_off_c, 0, 85, 0
2, 120567, Note_on_c, 0, 93, 37
2, 120568, Note_on_c, 0, 100, 60
2, 120587, Note_off_c, 0, 88, 0
2, 120668, Note_off_c, 0, 45, 0
2, 120758, Note_on_c, 0, 97, 50
2, 120773, Note_off_c, 0, 93, 0
2, 120775, Note_off_c, 0, 100, 0
2, 120924, Control_c, 0, 64, 0
2, 120959, Note_on_c, 0, 88, 72
2, 120974, Note_on_c, 0, 47, 80
2, 120976, Note_on_c, 0, 40, 58
2, 120982, Note_off_c, 0, 97, 0
2, 121023, Note_off_c, 0, 49, 0
2, 121161, Note_on_c, 0, 92, 51
2, 121164, Note_on_c, 0, 100, 68
2, 121172, Control_c, 0, 64, 127
2, 121184, Note_off_c, 0, 88, 0
2, 121353, Note_on_c, 0, 95, 68
2, 121364, Note_off_c, 0, 100, 0
2, 121378, Note_off_c, 0, 92, 0
2, 121530, Note_on_c, 0, 88, 72
2, 121542, Note_off_c, 0, 95, 0
2, 121690, Note_off_c, 0, 88, 0
2, 121716, Note_on_c, 0, 95, 54
2, 121719, Note_on_c, 0, 88, 54
2, 121779, Note_on_c, 0, 52, 84
2, 121902, Note_on_c, 0, 92, 49
2, 121916, Note_off_c, 0, 88, 0
2, 121925, Note_off_c, 0, 95, 0
2, 122103, Note_on_c, 0, 83, 60
2, 122129, Note_off_c, 0, 92, 0
2, 122266, Note_off_c, 0, 83, 0
2, 122295, Note_on_c, 0, 92, 53
2, 122298, Note_on_c, 0, 83, 58
2, 122361, Note_off_c, 0, 83, 0
2, 122436, Note_off_c, 0, 92, 0
2, 122481, Note_on_c, 0, 92, 39
2, 122481, Note_on_c, 0, 100, 50
2, 122510, Note_on_c, 0, 56, 84
2, 122590, Note_off_c, 0, 52, 0
2, 122680, Note_on_c, 0, 83, 74
2, 122696, Note_off_c, 0, 100, 0
2, 122703, Note_off_c, 0, 92, 0
2, 122875, Note_on_c, 0, 88, 52
2, 122876, Note_on_c, 0, 80, 39
2, 122889, Note_off_c, 0, 83, 0
2, 123046, Note_on_c, 0, 83, 72
2, 123054, Note_off_c, 0, 88, 0
2, 123065, Note_off_c, 0, 80, 0
2, 123243, Note_on_c, 0, 76, 68
2, 123249, Note_off_c, 0, 83, 0
2, 123272, Note_on_c, 0, 59, 90
2, 123323, Note_off_c, 0, 56, 0
2, 123343, Note_off_c, 0, 40, 0
2, 123353, Note_off_c, 0, 47, 0
2, 123421, Note_off_c, 0, 76, 0
2, 123440, Note_on_c, 0, 76, 66
2, 123441, Note_on_c, 0, 83, 68
2, 123628, Note_on_c, 0, 80, 47
2, 123643, Note_off_c, 0, 83, 0
2, 123643, Note_off_c, 0, 76, 0
2, 123821, Note_on_c, 0, 71, 62
2, 123838, Note_off_c, 0, 80, 0
2, 123990, Note_off_c, 0, 71, 0
2, 124006, Note_on_c, 0, 80, 44
2, 124011, Note_on_c, 0, 71, 51
2, 124197, Note_on_c, 0, 76, 64
2, 124209, Note_off_c, 0, 80, 0
2, 124228, Note_off_c, 0, 71, 0
2, 124380, Note_on_c, 0, 68, 43
2, 124393, Note_off_c, 0, 76, 0
2, 124559, Note_off_c, 0, 68, 0
2, 124581, Note_on_c, 0, 68, 39
2, 124583, Note_on_c, 0, 76, 60
2, 124771, Note_on_c, 0, 57, 68
2, 124771, Note_on_c, 0, 71, 70
2, 124788, Note_off_c, 0, 76, 0
2, 124796, Note_off_c, 0, 68, 0
2, 124850, Note_off_c, 0, 59, 0
2, 124971, Note_on_c, 0, 64, 60
2, 124982, Note_off_c, 0, 71, 0
2, 125154, Note_off_c, 0, 64, 0
2, 125159, Note_on_c, 0, 64, 56
2, 125160, Note_on_c, 0, 71, 64
2, 125332, Note_on_c, 0, 56, 82
2, 125353, Note_on_c, 0, 68, 51
2, 125373, Note_off_c, 0, 71, 0
2, 125374, Note_off_c, 0, 64, 0
2, 125430, Note_off_c, 0, 57, 0
2, 125492, Note_off_c, 0, 56, 0
2, 125553, Note_on_c, 0, 59, 49
2, 125559, Note_on_c, 0, 56, 74
2, 125577, Note_off_c, 0, 68, 0
2, 125758, Note_on_c, 0, 64, 58
2, 125758, Note_on_c, 0, 71, 56
2, 125777, Note_off_c, 0, 59, 0
2, 125951, Note_off_c, 0, 71, 0
2, 125954, Note_on_c, 0, 68, 49
2, 125979, Note_off_c, 0, 64, 0
2, 126138, Note_on_c, 0, 59, 64
2, 126161, Note_off_c, 0, 68, 0
2, 126331, Note_on_c, 0, 64, 53
2, 126333, Note_on_c, 0, 71, 56
2, 126336, Note_off_c, 0, 59, 0
2, 126517, Note_on_c, 0, 68, 43
2, 126529, Note_off_c, 0, 71, 0
2, 126540, Note_off_c, 0, 64, 0
2, 126704, Note_on_c, 0, 59, 53
2, 126722, Note_off_c, 0, 68, 0
2, 126921, Note_on_c, 0, 64, 53
2, 126921, Note_on_c, 0, 71, 52
2, 126929, Note_off_c, 0, 59, 0
2, 127107, Note_on_c, 0, 68, 46
2, 127115, Note_off_c, 0, 71, 0
2, 127125, Note_off_c, 0, 64, 0
2, 127295, Note_on_c, 0, 59, 56
2, 127316, Note_off_c, 0, 68, 0
2, 127501, Note_on_c, 0, 64, 49
2, 127504, Note_on_c, 0, 71, 58
2, 127509, Note_off_c, 0, 59, 0
2, 127679, Note_on_c, 0, 68, 46
2, 127692, Note_off_c, 0, 71, 0
2, 127703, Note_off_c, 0, 64, 0
2, 127858, Note_on_c, 0, 59, 52
2, 127877, Note_off_c, 0, 68, 0
2, 128040, Note_off_c, 0, 59, 0
2, 128041, Note_on_c, 0, 64, 47
2, 128041, Note_on_c, 0, 71, 62
2, 128237, Note_on_c, 0, 68, 43
2, 128250, Note_off_c, 0, 71, 0
2, 128260, Note_off_c, 0, 64, 0
2, 128431, Note_on_c, 0, 59, 56
2, 128449, Note_off_c, 0, 68, 0
2, 128621, Note_off_c, 0, 59, 0
2, 128621, Note_on_c, 0, 64, 51
2, 128622, Note_on_c, 0, 71, 53
2, 128811, Note_on_c, 0, 68, 37
2, 128827, Note_off_c, 0, 71, 0
2, 128832, Note_off_c, 0, 64, 0
2, 129006, Control_c, 0, 64, 0
2, 129012, Note_on_c, 0, 59, 45
2, 129019, Note_off_c, 0, 68, 0
2, 129201, Note_on_c, 0, 64, 45
2, 129201, Note_on_c, 0, 71, 50
2, 129208, Note_off_c, 0, 59, 0
2, 129395, Note_on_c, 0, 68, 47
2, 129411, Note_off_c, 0, 71, 0
2, 129417, Note_off_c, 0, 64, 0
2, 129550, Control_c, 0, 64, 127
2, 129589, Note_on_c, 0, 59, 54
2, 129609, Note_off_c, 0, 68, 0
2, 129776, Note_on_c, 0, 64, 44
2, 129778, Note_off_c, 0, 59, 0
2, 129778, Note_on_c, 0, 71, 48
2, 129903, Note_off_c, 0, 56, 0
2, 129981, Note_on_c, 0, 68, 43
2, 129996, Note_off_c, 0, 71, 0
2, 130003, Note_off_c, 0, 64, 0
2, 130127, Note_off_c, 0, 68, 0
2, 130141, Control_c, 0, 64, 0
2, 130176, Note_on_c, 0, 55, 72
2, 130176, Note_on_c, 0, 47, 53
2, 130176, Note_on_c, 0, 40, 52
2, 130176, Control_c, 0, 10, 64
2, 130213, Note_on_c, 0, 71, 76
2, 130215, Note_on_c, 0, 67, 66
2, 130215, Note_on_c, 0, 63, 62
2, 130270, Note_on_c, 0, 64, 46
2, 130283, Note_off_c, 0, 63, 0
2, 130316, Control_c, 0, 10, 64
2, 130529, Note_off_c, 0, 71, 0
2, 130530, Note_off_c, 0, 67, 0
2, 130552, Note_off_c, 0, 55, 0
2, 130569, Note_off_c, 0, 64, 0
2, 130572, Note_on_c, 0, 66, 46
2, 130578, Note_off_c, 0, 47, 0
2, 130579, Note_on_c, 0, 71, 66
2, 130580, Note_on_c, 0, 76, 64
2, 130600, Note_off_c, 0, 40, 0
2, 130642, Note_on_c, 0, 67, 54
2, 130656, Note_off_c, 0, 66, 0
2, 130902, Note_off_c, 0, 76, 0
2, 130915, Note_off_c, 0, 71, 0
2, 130939, Note_off_c, 0, 67, 0
2, 130943, Note_on_c, 0, 43, 51
2, 130953, Note_on_c, 0, 70, 56
2, 130957, Note_on_c, 0, 76, 68
2, 130960, Note_on_c, 0, 79, 70
2, 130980, Note_on_c, 0, 52, 72
2, 130986, Note_on_c, 0, 59, 72
2, 131011, Note_on_c, 0, 71, 58
2, 131027, Note_off_c, 0, 70, 0
2, 131213, Note_off_c, 0, 43, 0
2, 131240, Note_off_c, 0, 52, 0
2, 131262, Note_off_c, 0, 59, 0
2, 131284, Note_off_c, 0, 79, 0
2, 131288, Note_off_c, 0, 71, 0
2, 131294, Note_on_c, 0, 45, 66
2, 131315, Note_off_c, 0, 76, 0
2, 131332, Note_on_c, 0, 52, 64
2, 131340, Note_on_c, 0, 72, 68
2, 131340, Note_on_c, 0, 79, 68
2, 131341, Note_on_c, 0, 71, 68
2, 131371, Note_on_c, 0, 60, 70
2, 131399, Note_on_c, 0, 69, 45
2, 131406, Note_off_c, 0, 71, 0
2, 131662, Note_off_c, 0, 45, 0
2, 131673, Note_off_c, 0, 52, 0
2, 131674, Note_off_c, 0, 60, 0
2, 131675, Note_off_c, 0, 72, 0
2, 131687, Note_off_c, 0, 79, 0
2, 131693, Note_off_c, 0, 69, 0
2, 131711, Note_on_c, 0, 78, 62
2, 131711, Note_on_c, 0, 68, 68
2, 131713, Note_on_c, 0, 72, 58
2, 131779, Note_on_c, 0, 69, 53
2, 131798, Note_off_c, 0, 68, 0
2, 131986, Note_off_c, 0, 72, 0
2, 132016, Note_off_c, 0, 78, 0
2, 132069, Note_on_c, 0, 48, 62
2, 132072, Note_off_c, 0, 69, 0
2, 132092, Note_on_c, 0, 72, 62
2, 132092, Note_on_c, 0, 78, 49
2, 132095, Note_on_c, 0, 81, 53
2, 132108, Note_on_c, 0, 57, 70
2, 132116, Note_on_c, 0, 64, 64
2, 132162, Note_on_c, 0, 71, 56
2, 132178, Note_off_c, 0, 72, 0
2, 132324, Note_off_c, 0, 48, 0
2, 132336, Note_off_c, 0, 57, 0
2, 132353, Note_off_c, 0, 64, 0
2, 132395, Note_off_c, 0, 71, 0
2, 132409, Note_off_c, 0, 81, 0
2, 132428, Note_off_c, 0, 78, 0
2, 132430, Note_on_c, 0, 47, 50
2, 132473, Note_on_c, 0, 57, 60
2, 132483, Note_on_c, 0, 75, 47
2, 132485, Note_on_c, 0, 79, 70
2, 132488, Note_on_c, 0, 71, 56
2, 132493, Note_on_c, 0, 63, 51
2, 132542, Note_on_c, 0, 69, 45
2, 132555, Note_off_c, 0, 71, 0
2, 132840, Note_off_c, 0, 57, 0
2, 132847, Note_off_c, 0, 75, 0
2, 132852, Note_off_c, 0, 63, 0
2, 132855, Note_off_c, 0, 69, 0
2, 132861, Note_off_c, 0, 79, 0
2, 132866, Note_off_c, 0, 47, 0
2, 132874, Note_on_c, 0, 68, 68
2, 132879, Note_on_c, 0, 78, 64
2, 132880, Note_on_c, 0, 75, 53
2, 132943, Note_on_c, 0, 69, 66
2, 132956, Note_off_c, 0, 68, 0
2, 133224, Note_off_c, 0, 75, 0
2, 133228, Note_off_c, 0, 78, 0
2, 133232, Note_on_c, 0, 47, 64
2, 133241, Note_off_c, 0, 69, 0
2, 133252, Note_on_c, 0, 71, 54
2, 133253, Note_on_c, 0, 75, 52
2, 133257, Note_on_c, 0, 79, 68
2, 133277, Note_on_c, 0, 51, 48
2, 133319, Note_on_c, 0, 69, 54
2, 133334, Note_off_c, 0, 71, 0
2, 133504, Note_off_c, 0, 47, 0
2, 133552, Note_off_c, 0, 51, 0
2, 133569, Note_off_c, 0, 69, 0
2, 133587, Note_on_c, 0, 40, 60
2, 133599, Note_off_c, 0, 79, 0
2, 133604, Note_off_c, 0, 75, 0
2, 133625, Note_on_c, 0, 78, 43
2, 133630, Note_on_c, 0, 71, 54
2, 133630, Note_on_c, 0, 69, 70
2, 133661, Note_on_c, 0, 47, 84
2, 133661, Note_on_c, 0, 55, 66
2, 133699, Note_on_c, 0, 67, 52
2, 133715, Note_off_c, 0, 69, 0
2, 133946, Note_off_c, 0, 71, 0
2, 133974, Note_off_c, 0, 67, 0
2, 133980, Note_off_c, 0, 78, 0
2, 133997, Note_off_c, 0, 40, 0
2, 134002, Note_on_c, 0, 76, 64
2, 134003, Note_on_c, 0, 71, 51
2, 134004, Note_on_c, 0, 66, 62
2, 134012, Note_off_c, 0, 47, 0
2, 134027, Note_off_c, 0, 55, 0
2, 134062, Note_on_c, 0, 67, 45
2, 134070, Note_off_c, 0, 66, 0
2, 134325, Note_on_c, 0, 42, 62
2, 134352, Note_off_c, 0, 67, 0
2, 134360, Note_off_c, 0, 71, 0
2, 134364, Note_on_c, 0, 50, 56
2, 134372, Note_off_c, 0, 76, 0
2, 134374, Note_on_c, 0, 57, 70
2, 134388, Note_on_c, 0, 68, 66
2, 134393, Note_on_c, 0, 74, 70
2, 134394, Note_on_c, 0, 72, 72
2, 134466, Note_on_c, 0, 69, 50
2, 134491, Note_off_c, 0, 68, 0
2, 134639, Note_off_c, 0, 42, 0
2, 134657, Note_off_c, 0, 50, 0
2, 134664, Note_off_c, 0, 57, 0
2, 134712, Note_on_c, 0, 43, 68
2, 134731, Note_off_c, 0, 74, 0
2, 134740, Note_off_c, 0, 72, 0
2, 134754, Note_off_c, 0, 69, 0
2, 134758, Note_on_c, 0, 50, 64
2, 134770, Note_on_c, 0, 74, 78
2, 134772, Note_on_c, 0, 71, 64
2, 134775, Note_on_c, 0, 66, 74
2, 134786, Note_on_c, 0, 59, 72
2, 134830, Note_on_c, 0, 67, 46
2, 134840, Note_off_c, 0, 66, 0
2, 135105, Note_off_c, 0, 74, 0
2, 135115, Note_off_c, 0, 71, 0
2, 135153, Note_on_c, 0, 70, 60
2, 135159, Note_off_c, 0, 67, 0
2, 135160, Note_on_c, 0, 74, 74
2, 135163, Note_on_c, 0, 79, 78
2, 135180, Note_off_c, 0, 43, 0
2, 135188, Note_off_c, 0, 50, 0
2, 135199, Note_off_c, 0, 59, 0
2, 135222, Note_on_c, 0, 71, 52
2, 135241, Note_off_c, 0, 70, 0
2, 135484, Note_on_c, 0, 47, 62
2, 135503, Note_off_c, 0, 79, 0
2, 135520, Note_on_c, 0, 55, 60
2, 135524, Note_off_c, 0, 74, 0
2, 135532, Note_on_c, 0, 62, 68
2, 135558, Note_on_c, 0, 73, 64
2, 135563, Note_on_c, 0, 79, 88
2, 135566, Note_on_c, 0, 83, 82
2, 135573, Note_off_c, 0, 71, 0
2, 135628, Note_on_c, 0, 74, 74
2, 135652, Note_off_c, 0, 73, 0
2, 135789, Note_off_c, 0, 47, 0
2, 135817, Note_off_c, 0, 62, 0
2, 135822, Note_off_c, 0, 55, 0
2, 135858, Note_on_c, 0, 48, 64
2, 135899, Note_off_c, 0, 83, 0
2, 135899, Note_on_c, 0, 55, 76
2, 135906, Note_off_c, 0, 74, 0
2, 135921, Note_on_c, 0, 64, 76
2, 135924, Note_off_c, 0, 79, 0
2, 135946, Note_on_c, 0, 83, 72
2, 135947, Note_on_c, 0, 76, 74
2, 135953, Note_on_c, 0, 74, 74
2, 136017, Note_on_c, 0, 72, 47
2, 136021, Note_off_c, 0, 74, 0
2, 136220, Note_off_c, 0, 48, 0
2, 136248, Note_off_c, 0, 64, 0
2, 136248, Note_off_c, 0, 55, 0
2, 136275, Note_off_c, 0, 76, 0
2, 136276, Note_off_c, 0, 83, 0
2, 136321, Note_on_c, 0, 71, 60
2, 136323, Note_off_c, 0, 72, 0
2, 136324, Note_on_c, 0, 81, 60
2, 136326, Note_on_c, 0, 76, 68
2, 136384, Note_on_c, 0, 72, 42
2, 136393, Note_off_c, 0, 71, 0
2, 136586, Note_off_c, 0, 76, 0
2, 136644, Note_off_c, 0, 81, 0
2, 136651, Note_on_c, 0, 52, 54
2, 136684, Note_on_c, 0, 60, 64
2, 136690, Note_on_c, 0, 67, 78
2, 136725, Note_on_c, 0, 76, 56
2, 136727, Note_off_c, 0, 72, 0
2, 136727, Note_on_c, 0, 81, 62
2, 136728, Note_on_c, 0, 84, 58
2, 136788, Note_on_c, 0, 74, 47
2, 136803, Note_off_c, 0, 76, 0
2, 137007, Note_off_c, 0, 52, 0
2, 137024, Note_off_c, 0, 81, 0
2, 137035, Note_off_c, 0, 60, 0
2, 137054, Note_off_c, 0, 67, 0
2, 137061, Note_on_c, 0, 50, 68
2, 137092, Note_off_c, 0, 84, 0
2, 137092, Note_on_c, 0, 66, 54
2, 137095, Note_on_c, 0, 60, 60
2, 137107, Note_on_c, 0, 81, 66
2, 137108, Note_off_c, 0, 74, 0
2, 137109, Note_on_c, 0, 78, 70
2, 137113, Note_on_c, 0, 71, 58
2, 137173, Note_on_c, 0, 72, 62
2, 137187, Note_off_c, 0, 71, 0
2, 137273, Note_off_c, 0, 60, 0
2, 137297, Note_off_c, 0, 50, 0
2, 137381, Note_off_c, 0, 66, 0
2, 137435, Note_on_c, 0, 43, 54
2, 137447, Note_off_c, 0, 78, 0
2, 137465, Note_off_c, 0, 81, 0
2, 137466, Note_off_c, 0, 72, 0
2, 137475, Note_on_c, 0, 59, 64
2, 137475, Note_on_c, 0, 50, 72
2, 137481, Note_on_c, 0, 73, 78
2, 137484, Note_on_c, 0, 78, 52
2, 137488, Note_on_c, 0, 83, 70
2, 137543, Note_on_c, 0, 74, 60
2, 137559, Note_off_c, 0, 73, 0
2, 137733, Note_off_c, 0, 43, 0
2, 137789, Note_off_c, 0, 59, 0
2, 137793, Note_off_c, 0, 50, 0
2, 137798, Note_on_c, 0, 48, 58
2, 137809, Note_off_c, 0, 74, 0
2, 137813, Note_off_c, 0, 83, 0
2, 137831, Note_off_c, 0, 78, 0
2, 137842, Note_on_c, 0, 70, 53
2, 137845, Note_on_c, 0, 76, 58
2, 137846, Note_on_c, 0, 55, 60
2, 137846, Note_on_c, 0, 79, 68
2, 137855, Note_on_c, 0, 64, 74
2, 137895, Note_on_c, 0, 71, 47
2, 137910, Note_off_c, 0, 70, 0
2, 138061, Note_off_c, 0, 55, 0
2, 138080, Note_off_c, 0, 48, 0
2, 138133, Note_off_c, 0, 64, 0
2, 138189, Note_off_c, 0, 71, 0
2, 138189, Note_on_c, 0, 42, 47
2, 138193, Note_off_c, 0, 76, 0
2, 138204, Note_off_c, 0, 79, 0
2, 138219, Note_on_c, 0, 48, 74
2, 138224, Note_on_c, 0, 71, 60
2, 138226, Note_on_c, 0, 81, 62
2, 138226, Note_on_c, 0, 76, 70
2, 138234, Note_on_c, 0, 57, 70
2, 138291, Note_on_c, 0, 72, 47
2, 138304, Note_off_c, 0, 71, 0
2, 138554, Note_off_c, 0, 48, 0
2, 138564, Note_off_c, 0, 42, 0
2, 138574, Note_off_c, 0, 57, 0
2, 138577, Note_off_c, 0, 76, 0
2, 138589, Note_off_c, 0, 81, 0
2, 138597, Note_off_c, 0, 72, 0
2, 138607, Note_on_c, 0, 78, 70
2, 138607, Note_on_c, 0, 68, 60
2, 138610, Note_on_c, 0, 76, 74
2, 138660, Note_on_c, 0, 69, 50
2, 138676, Note_off_c, 0, 68, 0
2, 138961, Note_on_c, 0, 47, 70
2, 138967, Note_off_c, 0, 76, 0
2, 138974, Note_off_c, 0, 78, 0
2, 138981, Note_on_c, 0, 57, 62
2, 138983, Note_off_c, 0, 69, 0
2, 138988, Note_on_c, 0, 75, 52
2, 138991, Note_on_c, 0, 79, 76
2, 138993, Note_on_c, 0, 71, 62
2, 139019, Note_on_c, 0, 63, 70
2, 139054, Note_on_c, 0, 69, 47
2, 139067, Note_off_c, 0, 71, 0
2, 139227, Note_off_c, 0, 47, 0
2, 139232, Note_off_c, 0, 63, 0
2, 139239, Note_off_c, 0, 57, 0
2, 139299, Note_off_c, 0, 69, 0
2, 139307, Note_off_c, 0, 79, 0
2, 139308, Note_off_c, 0, 75, 0
2, 139392, Note_on_c, 0, 40, 78
2, 139392, Note_on_c, 0, 40, 66
2, 139392, Note_on_c, 0, 63, 37
2, 139392, Note_on_c, 0, 63, 42
2, 139392, Note_on_c, 0, 71, 60
2, 139392, Note_on_c, 0, 67, 58
2, 139393, Note_on_c, 0, 40, 60
2, 139394, Note_on_c, 0, 71, 64
2, 139397, Note_on_c, 0, 67, 56
2, 139399, Note_on_c, 0, 63, 30
2, 139403, Note_on_c, 0, 64, 49
2, 139406, Control_c, 0, 10, 64
2, 139410, Note_on_c, 0, 71, 66
2, 139412, Note_on_c, 0, 67, 58
2, 139434, Note_on_c, 0, 64, 49
2, 139439, Note_on_c, 0, 55, 78
2, 139439, Note_on_c, 0, 64, 45
2, 139446, Note_off_c, 0, 40, 0
2, 139451, Note_off_c, 0, 40, 0
2, 139464, Note_off_c, 0, 63, 0
2, 139465, Note_off_c, 0, 63, 0
2, 139480, Note_off_c, 0, 40, 0
2, 139490, Note_off_c, 0, 63, 0
2, 139494, Control_c, 0, 64, 127
2, 139584, Control_c, 0, 10, 64
2, 139643, Note_off_c, 0, 64, 0
2, 139659, Note_off_c, 0, 71, 0
2, 139661, Note_off_c, 0, 71, 0
2, 139671, Note_off_c, 0, 67, 0
2, 139673, Note_off_c, 0, 64, 0
2, 139687, Note_off_c, 0, 64, 0
2, 139687, Note_off_c, 0, 67, 0
2, 139723, Note_off_c, 0, 71, 0
2, 139736, Note_off_c, 0, 67, 0
2, 139763, Control_c, 0, 64, 0
2, 139775, Note_on_c, 0, 52, 76
2, 139783, Note_off_c, 0, 55, 0
2, 139811, Note_on_c, 0, 66, 47
2, 139817, Note_on_c, 0, 71, 68
2, 139818, Note_on_c, 0, 76, 66
2, 139825, Note_on_c, 0, 55, 66
2, 139841, Note_off_c, 0, 52, 0
2, 139875, Note_on_c, 0, 67, 62
2, 139891, Note_off_c, 0, 66, 0
2, 140099, Note_off_c, 0, 67, 0
2, 140120, Note_off_c, 0, 76, 0
2, 140129, Note_off_c, 0, 71, 0
2, 140145, Note_on_c, 0, 47, 78
2, 140157, Note_off_c, 0, 55, 0
2, 140192, Note_on_c, 0, 70, 60
2, 140200, Note_on_c, 0, 79, 78
2, 140200, Note_on_c, 0, 76, 74
2, 140217, Note_on_c, 0, 40, 70
2, 140224, Note_off_c, 0, 47, 0
2, 140226, Note_on_c, 0, 71, 70
2, 140249, Note_off_c, 0, 70, 0
2, 140255, Control_c, 0, 64, 127
2, 140468, Note_off_c, 0, 79, 0
2, 140476, Note_off_c, 0, 76, 0
2, 140484, Note_off_c, 0, 71, 0
2, 140534, Note_on_c, 0, 45, 86
2, 140547, Note_off_c, 0, 40, 0
2, 140560, Note_on_c, 0, 71, 72
2, 140567, Control_c, 0, 64, 0
2, 140567, Note_on_c, 0, 72, 80
2, 140567, Note_on_c, 0, 79, 84
2, 140595, Note_on_c, 0, 60, 74
2, 140618, Note_on_c, 0, 69, 60
2, 140626, Note_off_c, 0, 45, 0
2, 140630, Control_c, 0, 64, 127
2, 140635, Note_off_c, 0, 71, 0
2, 140875, Note_off_c, 0, 69, 0
2, 140882, Note_on_c, 0, 54, 74
2, 140885, Note_off_c, 0, 72, 0
2, 140886, Note_off_c, 0, 79, 0
2, 140901, Note_off_c, 0, 60, 0
2, 140937, Control_c, 0, 64, 0
2, 140946, Note_on_c, 0, 60, 70
2, 140950, Note_on_c, 0, 68, 66
2, 140953, Note_on_c, 0, 78, 72
2, 140956, Note_on_c, 0, 72, 68
2, 140959, Note_off_c, 0, 54, 0
2, 140996, Note_on_c, 0, 69, 47
2, 141012, Note_off_c, 0, 68, 0
2, 141229, Note_off_c, 0, 69, 0
2, 141237, Note_off_c, 0, 78, 0
2, 141238, Note_off_c, 0, 72, 0
2, 141267, Note_on_c, 0, 54, 80
2, 141286, Note_off_c, 0, 60, 0
2, 141328, Note_on_c, 0, 72, 68
2, 141330, Note_on_c, 0, 45, 68
2, 141330, Note_on_c, 0, 78, 78
2, 141331, Note_on_c, 0, 81, 76
2, 141340, Note_off_c, 0, 54, 0
2, 141390, Note_on_c, 0, 71, 49
2, 141406, Note_off_c, 0, 72, 0
2, 141616, Note_off_c, 0, 71, 0
2, 141638, Note_off_c, 0, 45, 0
2, 141647, Note_off_c, 0, 78, 0
2, 141652, Note_off_c, 0, 81, 0
2, 141671, Note_on_c, 0, 47, 86
2, 141716, Note_on_c, 0, 75, 68
2, 141717, Note_on_c, 0, 71, 66
2, 141718, Note_on_c, 0, 79, 80
2, 141728, Note_on_c, 0, 63, 60
2, 141769, Note_off_c, 0, 47, 0
2, 141769, Note_on_c, 0, 69, 60
2, 141787, Note_off_c, 0, 71, 0
2, 141839, Control_c, 0, 64, 127
2, 142040, Note_off_c, 0, 69, 0
2, 142053, Note_off_c, 0, 75, 0
2, 142055, Note_on_c, 0, 54, 68
2, 142063, Note_off_c, 0, 63, 0
2, 142072, Note_off_c, 0, 79, 0
2, 142108, Note_on_c, 0, 63, 78
2, 142120, Note_on_c, 0, 78, 76
2, 142120, Note_on_c, 0, 68, 72
2, 142121, Control_c, 0, 64, 0
2, 142123, Note_on_c, 0, 75, 74
2, 142127, Note_off_c, 0, 54, 0
2, 142165, Note_on_c, 0, 69, 45
2, 142182, Note_off_c, 0, 68, 0
2, 142422, Note_off_c, 0, 69, 0
2, 142440, Note_off_c, 0, 75, 0
2, 142444, Note_off_c, 0, 78, 0
2, 142454, Note_on_c, 0, 57, 82
2, 142482, Note_off_c, 0, 63, 0
2, 142511, Note_off_c, 0, 57, 0
2, 142513, Note_on_c, 0, 47, 72
2, 142514, Note_on_c, 0, 75, 60
2, 142515, Note_on_c, 0, 71, 62
2, 142517, Note_on_c, 0, 79, 76
2, 142535, Control_c, 0, 64, 127
2, 142573, Note_on_c, 0, 69, 58
2, 142590, Note_off_c, 0, 71, 0
2, 142771, Note_off_c, 0, 69, 0
2, 142777, Note_off_c, 0, 79, 0
2, 142811, Note_off_c, 0, 75, 0
2, 142838, Note_off_c, 0, 47, 0
2, 142858, Note_on_c, 0, 52, 80
2, 142880, Note_on_c, 0, 69, 70
2, 142881, Note_on_c, 0, 78, 52
2, 142883, Note_on_c, 0, 71, 53
2, 142887, Control_c, 0, 64, 0
2, 142925, Note_on_c, 0, 64, 82
2, 142934, Note_on_c, 0, 67, 54
2, 142948, Control_c, 0, 64, 127
2, 142953, Note_off_c, 0, 69, 0
2, 142958, Note_off_c, 0, 52, 0
2, 143157, Note_off_c, 0, 71, 0
2, 143167, Note_off_c, 0, 78, 0
2, 143169, Note_off_c, 0, 67, 0
2, 143218, Note_on_c, 0, 59, 82
2, 143229, Note_off_c, 0, 64, 0
2, 143252, Control_c, 0, 64, 0
2, 143258, Note_on_c, 0, 66, 66
2, 143259, Note_on_c, 0, 76, 66
2, 143262, Note_on_c, 0, 71, 56
2, 143283, Note_on_c, 0, 64, 80
2, 143298, Control_c, 0, 64, 127
2, 143300, Note_off_c, 0, 59, 0
2, 143315, Note_on_c, 0, 67, 50
2, 143331, Note_off_c, 0, 66, 0
2, 143512, Note_off_c, 0, 71, 0
2, 143513, Note_off_c, 0, 67, 0
2, 143516, Note_off_c, 0, 76, 0
2, 143558, Control_c, 0, 64, 0
2, 143597, Note_on_c, 0, 44, 88
2, 143614, Note_off_c, 0, 64, 0
2, 143642, Note_on_c, 0, 74, 78
2, 143642, Note_on_c, 0, 71, 76
2, 143643, Note_on_c, 0, 64, 70
2, 143689, Control_c, 0, 64, 127
2, 143794, Note_on_c, 0, 59, 84
2, 143809, Note_off_c, 0, 44, 0
2, 143840, Note_on_c, 0, 65, 64
2, 143862, Note_off_c, 0, 64, 0
2, 143911, Note_off_c, 0, 74, 0
2, 143946, Note_off_c, 0, 59, 0
2, 143956, Note_off_c, 0, 65, 0
2, 143983, Note_off_c, 0, 71, 0
2, 143988, Note_on_c, 0, 50, 84
2, 143997, Control_c, 0, 64, 0
2, 144023, Note_on_c, 0, 70, 43
2, 144030, Note_on_c, 0, 74, 78
2, 144031, Note_on_c, 0, 77, 82
2, 144059, Control_c, 0, 64, 127
2, 144190, Note_on_c, 0, 65, 78
2, 144198, Note_off_c, 0, 50, 0
2, 144241, Note_off_c, 0, 77, 0
2, 144246, Note_on_c, 0, 71, 74
2, 144271, Note_off_c, 0, 70, 0
2, 144319, Note_off_c, 0, 65, 0
2, 144381, Note_off_c, 0, 71, 0
2, 144385, Note_on_c, 0, 53, 78
2, 144389, Control_c, 0, 64, 0
2, 144397, Note_off_c, 0, 74, 0
2, 144440, Note_on_c, 0, 77, 74
2, 144440, Note_on_c, 0, 83, 78
2, 144440, Note_on_c, 0, 73, 78
2, 144447, Control_c, 0, 64, 127
2, 144600, Note_on_c, 0, 68, 88
2, 144622, Note_off_c, 0, 53, 0
2, 144629, Note_on_c, 0, 74, 68
2, 144650, Note_off_c, 0, 73, 0
2, 144668, Note_off_c, 0, 83, 0
2, 144763, Note_off_c, 0, 68, 0
2, 144769, Note_off_c, 0, 77, 0
2, 144784, Note_on_c, 0, 56, 74
2, 144790, Control_c, 0, 64, 0
2, 144834, Note_on_c, 0, 83, 86
2, 144839, Note_on_c, 0, 86, 78
2, 144839, Note_on_c, 0, 76, 66
2, 144845, Note_off_c, 0, 74, 0
2, 144870, Control_c, 0, 64, 127
2, 145000, Note_on_c, 0, 71, 80
2, 145018, Note_off_c, 0, 56, 0
2, 145046, Note_on_c, 0, 77, 78
2, 145069, Note_off_c, 0, 76, 0
2, 145133, Note_off_c, 0, 71, 0
2, 145155, Note_on_c, 0, 56, 44
2, 145162, Note_on_c, 0, 62, 50
2, 145177, Note_off_c, 0, 86, 0
2, 145180, Note_off_c, 0, 83, 0
2, 145184, Note_on_c, 0, 65, 66
2, 145187, Note_off_c, 0, 77, 0
2, 145210, Note_on_c, 0, 71, 94
2, 145215, Control_c, 0, 64, 0
2, 145242, Note_on_c, 0, 86, 90
2, 145244, Note_on_c, 0, 76, 84
2, 145244, Note_on_c, 0, 83, 92
2, 145285, Control_c, 0, 64, 127
2, 145415, Note_on_c, 0, 77, 60
2, 145430, Note_off_c, 0, 76, 0
2, 145525, Note_off_c, 0, 62, 0
2, 145534, Note_off_c, 0, 86, 0
2, 145542, Note_off_c, 0, 71, 0
2, 145559, Note_off_c, 0, 77, 0
2, 145559, Note_off_c, 0, 83, 0
2, 145561, Note_on_c, 0, 64, 72
2, 145561, Note_on_c, 0, 57, 76
2, 145567, Note_off_c, 0, 65, 0
2, 145567, Note_on_c, 0, 69, 84
2, 145583, Note_off_c, 0, 56, 0
2, 145588, Note_on_c, 0, 84, 84
2, 145589, Note_on_c, 0, 75, 72
2, 145589, Note_on_c, 0, 81, 82
2, 145639, Control_c, 0, 64, 0
2, 145766, Note_on_c, 0, 76, 54
2, 145781, Note_off_c, 0, 75, 0
2, 145868, Note_off_c, 0, 64, 0
2, 145885, Note_off_c, 0, 69, 0
2, 145897, Note_on_c, 0, 59, 78
2, 145898, Note_on_c, 0, 64, 72
2, 145898, Note_on_c, 0, 67, 86
2, 145907, Note_off_c, 0, 57, 0
2, 145915, Note_off_c, 0, 76, 0
2, 145924, Note_off_c, 0, 81, 0
2, 145926, Note_off_c, 0, 84, 0
2, 145956, Note_on_c, 0, 79, 80
2, 145957, Note_on_c, 0, 83, 84
2, 145961, Note_on_c, 0, 75, 72
2, 146142, Note_on_c, 0, 76, 44
2, 146152, Note_off_c, 0, 75, 0
2, 146236, Note_off_c, 0, 59, 0
2, 146239, Note_off_c, 0, 67, 0
2, 146240, Note_off_c, 0, 64, 0
2, 146260, Note_on_c, 0, 67, 82
2, 146261, Note_on_c, 0, 64, 78
2, 146266, Note_on_c, 0, 59, 78
2, 146298, Note_off_c, 0, 76, 0
2, 146300, Note_off_c, 0, 79, 0
2, 146304, Note_off_c, 0, 83, 0
2, 146334, Note_on_c, 0, 79, 60
2, 146337, Note_on_c, 0, 75, 47
2, 146337, Note_on_c, 0, 83, 74
2, 146530, Note_on_c, 0, 76, 46
2, 146538, Note_off_c, 0, 75, 0
2, 146633, Note_off_c, 0, 64, 0
2, 146663, Note_on_c, 0, 66, 49
2, 146664, Note_on_c, 0, 64, 64
2, 146665, Note_on_c, 0, 60, 54
2, 146680, Note_off_c, 0, 59, 0
2, 146682, Note_off_c, 0, 67, 0
2, 146684, Note_off_c, 0, 79, 0
2, 146685, Note_off_c, 0, 76, 0
2, 146688, Note_off_c, 0, 83, 0
2, 146730, Note_on_c, 0, 78, 53
2, 146731, Note_on_c, 0, 81, 68
2, 146731, Note_on_c, 0, 75, 56
2, 146929, Note_on_c, 0, 76, 62
2, 146938, Note_off_c, 0, 75, 0
2, 147010, Note_off_c, 0, 64, 0
2, 147055, Note_off_c, 0, 66, 0
2, 147057, Note_off_c, 0, 76, 0
2, 147061, Note_on_c, 0, 67, 84
2, 147061, Note_on_c, 0, 64, 82
2, 147062, Note_on_c, 0, 59, 80
2, 147086, Note_off_c, 0, 60, 0
2, 147088, Note_off_c, 0, 81, 0
2, 147089, Note_off_c, 0, 78, 0
2, 147118, Note_on_c, 0, 75, 84
2, 147119, Note_on_c, 0, 83, 90
2, 147120, Note_on_c, 0, 79, 90
2, 147304, Note_on_c, 0, 76, 66
2, 147323, Note_off_c, 0, 75, 0
2, 147396, Note_off_c, 0, 64, 0
2, 147442, Note_on_c, 0, 57, 82
2, 147443, Note_on_c, 0, 60, 76
2, 147444, Note_on_c, 0, 66, 62
2, 147446, Note_on_c, 0, 64, 78
2, 147456, Note_off_c, 0, 76, 0
2, 147468, Note_off_c, 0, 83, 0
2, 147472, Note_off_c, 0, 79, 0
2, 147474, Note_off_c, 0, 59, 0
2, 147474, Note_off_c, 0, 67, 0
2, 147511, Note_on_c, 0, 75, 70
2, 147511, Note_on_c, 0, 86, 98
2, 147512, Note_on_c, 0, 81, 88
2, 147683, Note_on_c, 0, 76, 50
2, 147695, Note_off_c, 0, 75, 0
2, 147815, Note_off_c, 0, 64, 0
2, 147819, Note_off_c, 0, 60, 0
2, 147821, Note_off_c, 0, 66, 0
2, 147822, Note_off_c, 0, 57, 0
2, 147849, Note_off_c, 0, 81, 0
2, 147860, Note_off_c, 0, 76, 0
2, 147875, Note_off_c, 0, 86, 0
2, 147906, Note_on_c, 0, 84, 78
2, 147907, Note_on_c, 0, 81, 74
2, 147909, Note_on_c, 0, 75, 52
2, 148088, Note_on_c, 0, 76, 44
2, 148104, Note_off_c, 0, 75, 0
2, 148118, Control_c, 0, 10, 64
2, 148145, Note_off_c, 0, 84, 0
2, 148151, Note_off_c, 0, 81, 0
2, 148204, Note_off_c, 0, 76, 0
2, 148266, Note_on_c, 0, 59, 53
2, 148267, Note_on_c, 0, 71, 80
2, 148273, Note_on_c, 0, 71, 58
2, 148276, Note_on_c, 0, 68, 54
2, 148277, Note_on_c, 0, 75, 68
2, 148392, Control_c, 0, 64, 127
2, 148459, Note_off_c, 0, 68, 0
2, 148480, Note_on_c, 0, 69, 39
2, 148500, Note_off_c, 0, 71, 0
2, 148505, Note_off_c, 0, 75, 0
2, 148608, Control_c, 0, 10, 64
2, 148608, Note_on_c, 0, 76, 68
2, 148608, Note_on_c, 0, 71, 68
2, 148608, Note_on_c, 0, 66, 35
2, 148623, Note_on_c, 0, 67, 68
2, 148628, Control_c, 0, 64, 0
2, 148630, Note_off_c, 0, 69, 0
2, 148664, Note_off_c, 0, 66, 0
2, 148670, Note_on_c, 0, 52, 68
2, 148685, Note_off_c, 0, 59, 0
2, 148715, Note_off_c, 0, 71, 0
2, 148725, Note_off_c, 0, 52, 0
2, 148745, Control_c, 0, 10, 64
2, 148811, Control_c, 0, 64, 127
2, 148901, Note_off_c, 0, 76, 0
2, 148905, Note_off_c, 0, 71, 0
2, 148911, Note_off_c, 0, 67, 0
2, 149000, Note_on_c, 0, 71, 72
2, 149014, Note_on_c, 0, 70, 62
2, 149021, Note_on_c, 0, 76, 88
2, 149021, Note_on_c, 0, 79, 90
2, 149084, Note_on_c, 0, 71, 44
2, 149099, Note_off_c, 0, 70, 0
2, 149279, Note_off_c, 0, 71, 0
2, 149312, Note_off_c, 0, 76, 0
2, 149322, Note_off_c, 0, 79, 0
2, 149383, Note_on_c, 0, 79, 96
2, 149383, Note_on_c, 0, 76, 92
2, 149383, Note_on_c, 0, 70, 62
2, 149390, Note_on_c, 0, 59, 54
2, 149435, Note_on_c, 0, 71, 49
2, 149437, Control_c, 0, 64, 0
2, 149441, Note_off_c, 0, 70, 0
2, 149498, Control_c, 0, 64, 127
2, 149520, Control_c, 0, 64, 0
2, 149583, Note_off_c, 0, 71, 0
2, 149596, Note_off_c, 0, 76, 0
2, 149601, Note_off_c, 0, 79, 0
2, 149758, Note_on_c, 0, 70, 64
2, 149766, Note_on_c, 0, 47, 68
2, 149768, Note_on_c, 0, 79, 86
2, 149769, Note_on_c, 0, 76, 84
2, 149779, Note_off_c, 0, 59, 0
2, 149824, Note_on_c, 0, 71, 58
2, 149839, Note_off_c, 0, 70, 0
2, 149844, Note_off_c, 0, 47, 0
2, 149852, Note_off_c, 0, 71, 0
2, 149881, Control_c, 0, 64, 127
2, 150059, Note_off_c, 0, 71, 0
2, 150084, Note_off_c, 0, 76, 0
2, 150094, Note_off_c, 0, 79, 0
2, 150142, Note_on_c, 0, 71, 72
2, 150144, Note_on_c, 0, 81, 86
2, 150145, Note_on_c, 0, 76, 92
2, 150157, Note_on_c, 0, 71, 82
2, 150200, Note_on_c, 0, 72, 52
2, 150210, Note_off_c, 0, 71, 0
2, 150450, Note_off_c, 0, 72, 0
2, 150479, Note_off_c, 0, 76, 0
2, 150483, Note_off_c, 0, 81, 0
2, 150520, Note_on_c, 0, 59, 64
2, 150527, Note_on_c, 0, 70, 76
2, 150533, Note_on_c, 0, 79, 92
2, 150534, Note_on_c, 0, 76, 88
2, 150587, Note_on_c, 0, 71, 49
2, 150596, Note_off_c, 0, 70, 0
2, 150803, Note_off_c, 0, 71, 0
2, 150816, Note_off_c, 0, 76, 0
2, 150818, Note_off_c, 0, 79, 0
2, 150864, Control_c, 0, 64, 0
2, 150894, Note_on_c, 0, 51, 51
2, 150903, Note_off_c, 0, 59, 0
2, 150926, Note_on_c, 0, 70, 37
2, 150931, Note_on_c, 0, 79, 86
2, 150963, Note_off_c, 0, 71, 0
2, 150966, Note_off_c, 0, 51, 0
2, 150976, Note_on_c, 0, 71, 51
2, 150991, Note_off_c, 0, 70, 0
2, 151027, Control_c, 0, 64, 127
2, 151193, Note_off_c, 0, 71, 0
2, 151267, Note_off_c, 0, 79, 0
2, 151304, Note_on_c, 0, 71, 72
2, 151307, Note_on_c, 0, 68, 46
2, 151310, Note_on_c, 0, 78, 62
2, 151313, Note_on_c, 0, 71, 58
2, 151370, Note_on_c, 0, 69, 45
2, 151379, Note_off_c, 0, 68, 0
2, 151521, Note_off_c, 0, 78, 0
2, 151564, Note_off_c, 0, 69, 0
2, 151590, Note_off_c, 0, 71, 0
2, 151667, Note_on_c, 0, 65, 39
2, 151668, Note_on_c, 0, 71, 62
2, 151669, Note_on_c, 0, 69, 58
2, 151679, Note_on_c, 0, 59, 76
2, 151716, Note_on_c, 0, 66, 37
2, 151728, Note_off_c, 0, 65, 0
2, 151974, Note_off_c, 0, 66, 0
2, 151992, Note_off_c, 0, 69, 0
2, 151994, Note_off_c, 0, 71, 0
2, 152027, Note_on_c, 0, 47, 84
2, 152031, Note_off_c, 0, 59, 0
2, 152040, Note_on_c, 0, 69, 68
2, 152040, Note_on_c, 0, 71, 74
2, 152043, Note_on_c, 0, 65, 51
2, 152044, Control_c, 0, 64, 0
2, 152093, Note_off_c, 0, 71, 0
2, 152093, Note_on_c, 0, 66, 53
2, 152098, Note_off_c, 0, 47, 0
2, 152101, Note_off_c, 0, 65, 0
2, 152223, Control_c, 0, 64, 127
2, 152369, Note_off_c, 0, 66, 0
2, 152381, Note_off_c, 0, 71, 0
2, 152381, Note_off_c, 0, 69, 0
2, 152416, Note_on_c, 0, 71, 88
2, 152421, Note_on_c, 0, 66, 60
2, 152426, Note_on_c, 0, 71, 76
2, 152428, Note_on_c, 0, 69, 72
2, 152491, Note_on_c, 0, 67, 49
2, 152493, Note_off_c, 0, 69, 0
2, 152506, Note_off_c, 0, 66, 0
2, 152724, Note_off_c, 0, 67, 0
2, 152757, Note_off_c, 0, 71, 0
2, 152808, Note_on_c, 0, 59, 58
2, 152812, Note_on_c, 0, 71, 74
2, 152812, Note_on_c, 0, 65, 52
2, 152860, Note_on_c, 0, 66, 52
2, 152860, Note_on_c, 0, 69, 68
2, 152865, Note_off_c, 0, 65, 0
2, 152980, Control_c, 0, 64, 0
2, 153123, Note_off_c, 0, 66, 0
2, 153136, Note_off_c, 0, 71, 0
2, 153145, Note_off_c, 0, 69, 0
2, 153197, Note_on_c, 0, 52, 68
2, 153198, Note_off_c, 0, 59, 0
2, 153207, Note_on_c, 0, 63, 47
2, 153214, Note_on_c, 0, 71, 56
2, 153216, Control_c, 0, 10, 64
2, 153216, Note_on_c, 0, 63, 35
2, 153216, Note_on_c, 0, 71, 62
2, 153216, Note_on_c, 0, 67, 56
2, 153231, Note_off_c, 0, 71, 0
2, 153266, Note_off_c, 0, 52, 0
2, 153276, Note_off_c, 0, 63, 0
2, 153320, Control_c, 0, 64, 127
2, 153403, Note_on_c, 0, 64, 53
2, 153426, Note_off_c, 0, 63, 0
2, 153493, Note_off_c, 0, 67, 0
2, 153505, Note_off_c, 0, 71, 0
2, 153526, Note_off_c, 0, 64, 0
2, 153527, Note_off_c, 0, 71, 0
2, 153553, Note_on_c, 0, 72, 74
2, 153584, Note_on_c, 0, 71, 68
2, 153601, Note_on_c, 0, 76, 68
2, 153604, Note_on_c, 0, 71, 70
2, 153605, Note_on_c, 0, 66, 49
2, 153610, Note_off_c, 0, 72, 0
2, 153773, Note_on_c, 0, 67, 56
2, 153787, Note_off_c, 0, 66, 0
2, 153898, Note_off_c, 0, 71, 0
2, 153900, Note_off_c, 0, 67, 0
2, 153902, Note_off_c, 0, 76, 0
2, 153941, Control_c, 0, 64, 0
2, 153949, Note_on_c, 0, 76, 72
2, 153951, Note_on_c, 0, 79, 70
2, 153952, Note_on_c, 0, 70, 74
2, 153957, Note_on_c, 0, 59, 62
2, 154137, Note_on_c, 0, 71, 68
2, 154154, Note_off_c, 0, 70, 0
2, 154273, Note_off_c, 0, 76, 0
2, 154276, Note_off_c, 0, 71, 0
2, 154276, Note_off_c, 0, 79, 0
2, 154326, Note_on_c, 0, 79, 94
2, 154328, Note_on_c, 0, 76, 86
2, 154333, Note_on_c, 0, 70, 70
2, 154371, Note_on_c, 0, 47, 72
2, 154411, Note_off_c, 0, 59, 0
2, 154415, Control_c, 0, 64, 127
2, 154417, Note_off_c, 0, 47, 0
2, 154432, Control_c, 0, 64, 0
2, 154450, Control_c, 0, 64, 127
2, 154462, Note_off_c, 0, 71, 0
2, 154505, Note_on_c, 0, 71, 50
2, 154515, Note_off_c, 0, 70, 0
2, 154669, Note_off_c, 0, 71, 0
2, 154676, Note_off_c, 0, 76, 0
2, 154688, Note_off_c, 0, 79, 0
2, 154725, Note_on_c, 0, 81, 76
2, 154729, Note_on_c, 0, 76, 86
2, 154732, Note_on_c, 0, 71, 58
2, 154736, Note_on_c, 0, 72, 84
2, 154760, Note_on_c, 0, 71, 74
2, 154790, Note_off_c, 0, 72, 0
2, 154913, Note_on_c, 0, 72, 51
2, 154928, Note_off_c, 0, 71, 0
2, 155078, Note_off_c, 0, 76, 0
2, 155082, Note_off_c, 0, 72, 0
2, 155082, Note_off_c, 0, 81, 0
2, 155086, Control_c, 0, 64, 0
2, 155116, Note_on_c, 0, 79, 86
2, 155117, Note_on_c, 0, 59, 66
2, 155117, Note_on_c, 0, 76, 80
2, 155123, Note_on_c, 0, 70, 58
2, 155313, Note_on_c, 0, 71, 56
2, 155336, Note_off_c, 0, 70, 0
2, 155395, Note_off_c, 0, 76, 0
2, 155424, Control_c, 0, 64, 127
2, 155448, Note_off_c, 0, 79, 0
2, 155458, Note_off_c, 0, 71, 0
2, 155504, Note_on_c, 0, 70, 64
2, 155504, Note_on_c, 0, 79, 92
2, 155518, Note_on_c, 0, 51, 88
2, 155521, Control_c, 0, 64, 0
2, 155528, Note_off_c, 0, 59, 0
2, 155572, Note_off_c, 0, 71, 0
2, 155591, Note_off_c, 0, 51, 0
2, 155669, Control_c, 0, 64, 127
2, 155697, Note_on_c, 0, 71, 66
2, 155718, Note_off_c, 0, 70, 0
2, 155736, Note_off_c, 0, 79, 0
2, 155825, Note_off_c, 0, 71, 0
2, 155865, Note_on_c, 0, 72, 82
2, 155892, Note_on_c, 0, 71, 84
2, 155894, Note_on_c, 0, 68, 52
2, 155895, Note_on_c, 0, 78, 72
2, 155899, Note_on_c, 0, 71, 72
2, 155923, Note_off_c, 0, 72, 0
2, 156064, Note_on_c, 0, 69, 56
2, 156076, Note_off_c, 0, 68, 0
2, 156095, Note_off_c, 0, 78, 0
2, 156187, Note_off_c, 0, 71, 0
2, 156203, Note_off_c, 0, 69, 0
2, 156208, Control_c, 0, 64, 0
2, 156246, Note_on_c, 0, 69, 70
2, 156246, Note_on_c, 0, 71, 76
2, 156249, Note_on_c, 0, 65, 62
2, 156275, Note_on_c, 0, 59, 70
2, 156428, Note_on_c, 0, 66, 41
2, 156445, Note_off_c, 0, 65, 0
2, 156564, Note_off_c, 0, 69, 0
2, 156565, Note_off_c, 0, 71, 0
2, 156580, Note_off_c, 0, 66, 0
2, 156633, Note_on_c, 0, 69, 80
2, 156634, Note_on_c, 0, 71, 82
2, 156635, Note_on_c, 0, 65, 68
2, 156650, Note_on_c, 0, 47, 72
2, 156661, Note_off_c, 0, 59, 0
2, 156694, Note_off_c, 0, 71, 0
2, 156714, Note_off_c, 0, 47, 0
2, 156739, Control_c, 0, 64, 127
2, 156835, Note_on_c, 0, 66, 41
2, 156855, Note_off_c, 0, 65, 0
2, 156973, Note_off_c, 0, 69, 0
2, 156974, Note_off_c, 0, 71, 0
2, 156983, Note_off_c, 0, 66, 0
2, 157024, Note_on_c, 0, 72, 72
2, 157036, Note_on_c, 0, 66, 68
2, 157037, Note_on_c, 0, 69, 72
2, 157038, Note_on_c, 0, 71, 78
2, 157049, Note_on_c, 0, 71, 72
2, 157077, Note_off_c, 0, 72, 0
2, 157227, Note_on_c, 0, 67, 58
2, 157248, Note_off_c, 0, 66, 0
2, 157369, Note_off_c, 0, 69, 0
2, 157372, Note_off_c, 0, 67, 0
2, 157372, Note_off_c, 0, 71, 0
2, 157386, Control_c, 0, 64, 0
2, 157422, Note_on_c, 0, 69, 72
2, 157422, Note_on_c, 0, 71, 78
2, 157425, Note_on_c, 0, 59, 66
2, 157543, Control_c, 0, 64, 127
2, 157606, Note_on_c, 0, 66, 53
2, 157606, Note_on_c, 0, 65, 56
2, 157622, Note_off_c, 0, 65, 0
2, 157676, Note_off_c, 0, 69, 0
2, 157730, Note_off_c, 0, 71, 0
2, 157734, Note_off_c, 0, 66, 0
2, 157734, Control_c, 0, 64, 0
2, 157785, Note_off_c, 0, 71, 0
2, 157799, Note_on_c, 0, 52, 82
2, 157810, Note_off_c, 0, 59, 0
2, 157824, Note_on_c, 0, 71, 74
2, 157824, Note_on_c, 0, 63, 42
2, 157824, Note_on_c, 0, 67, 68
2, 157901, Note_off_c, 0, 52, 0
2, 157913, Control_c, 0, 64, 127
2, 157998, Note_on_c, 0, 64, 52
2, 158034, Note_off_c, 0, 63, 0
2, 158062, Control_c, 0, 10, 64
2, 158148, Note_off_c, 0, 64, 0
2, 158160, Note_off_c, 0, 67, 0
2, 158163, Note_off_c, 0, 71, 0
2, 158173, Note_on_c, 0, 71, 78
2, 158174, Note_on_c, 0, 66, 76
2, 158174, Note_on_c, 0, 76, 76
2, 158189, Note_on_c, 0, 55, 84
2, 158190, Note_on_c, 0, 52, 90
2, 158190, Note_on_c, 0, 64, 90
2, 158312, Control_c, 0, 10, 64
2, 158376, Note_on_c, 0, 67, 64
2, 158389, Note_off_c, 0, 66, 0
2, 158514, Note_off_c, 0, 52, 0
2, 158517, Note_off_c, 0, 55, 0
2, 158522, Note_off_c, 0, 76, 0
2, 158527, Note_off_c, 0, 71, 0
2, 158533, Note_off_c, 0, 64, 0
2, 158538, Note_off_c, 0, 67, 0
2, 158546, Control_c, 0, 64, 0
2, 158550, Note_on_c, 0, 64, 98
2, 158551, Note_on_c, 0, 51, 90
2, 158552, Note_on_c, 0, 55, 82
2, 158573, Note_on_c, 0, 70, 84
2, 158576, Note_on_c, 0, 76, 78
2, 158577, Note_on_c, 0, 79, 84
2, 158772, Note_on_c, 0, 71, 62
2, 158780, Note_off_c, 0, 70, 0
2, 158783, Note_off_c, 0, 79, 0
2, 158883, Note_off_c, 0, 51, 0
2, 158885, Note_off_c, 0, 55, 0
2, 158892, Note_off_c, 0, 71, 0
2, 158899, Note_off_c, 0, 64, 0
2, 158907, Note_on_c, 0, 50, 92
2, 158917, Note_off_c, 0, 76, 0
2, 158936, Note_on_c, 0, 55, 94
2, 158946, Note_on_c, 0, 64, 102
2, 158962, Note_on_c, 0, 83, 86
2, 158963, Note_on_c, 0, 79, 94
2, 158964, Note_on_c, 0, 75, 58
2, 158976, Control_c, 0, 10, 64
2, 159008, Note_off_c, 0, 79, 0
2, 159015, Note_on_c, 0, 79, 49
2, 159140, Note_on_c, 0, 76, 51
2, 159152, Note_off_c, 0, 75, 0
2, 159276, Note_off_c, 0, 50, 0
2, 159282, Note_off_c, 0, 55, 0
2, 159286, Note_off_c, 0, 64, 0
2, 159286, Note_on_c, 0, 48, 90
2, 159291, Note_off_c, 0, 76, 0
2, 159297, Note_off_c, 0, 79, 0
2, 159305, Note_off_c, 0, 83, 0
2, 159317, Note_on_c, 0, 55, 100
2, 159318, Note_on_c, 0, 64, 100
2, 159334, Note_on_c, 0, 88, 100
2, 159335, Note_on_c, 0, 83, 98
2, 159336, Note_on_c, 0, 78, 64
2, 159523, Note_on_c, 0, 79, 50
2, 159531, Note_off_c, 0, 78, 0
2, 159638, Note_off_c, 0, 48, 0
2, 159652, Note_off_c, 0, 55, 0
2, 159658, Note_off_c, 0, 64, 0
2, 159658, Note_on_c, 0, 47, 94
2, 159695, Note_off_c, 0, 83, 0
2, 159695, Note_on_c, 0, 55, 100
2, 159701, Note_off_c, 0, 88, 0
2, 159702, Note_off_c, 0, 79, 0
2, 159703, Note_on_c, 0, 64, 88
2, 159719, Note_on_c, 0, 88, 98
2, 159720, Note_on_c, 0, 82, 82
2, 159720, Note_on_c, 0, 91, 100
2, 159922, Note_on_c, 0, 83, 76
2, 159940, Note_off_c, 0, 82, 0
2, 160008, Note_off_c, 0, 47, 0
2, 160010, Note_off_c, 0, 64, 0
2, 160012, Note_off_c, 0, 55, 0
2, 160043, Note_off_c, 0, 88, 0
2, 160045, Note_off_c, 0, 91, 0
2, 160049, Note_off_c, 0, 83, 0
2, 160054, Note_on_c, 0, 46, 96
2, 160080, Note_on_c, 0, 54, 102
2, 160087, Note_on_c, 0, 64, 98
2, 160128, Control_c, 0, 10, 64
2, 160128, Note_on_c, 0, 66, 96
2, 160128, Note_on_c, 0, 78, 102
2, 160128, Note_on_c, 0, 73, 96
2, 160141, Control_c, 0, 64, 127
2, 160240, Note_off_c, 0, 46, 0
2, 160248, Note_off_c, 0, 64, 0
2, 160262, Note_off_c, 0, 54, 0
2, 160262, Note_on_c, 0, 88, 108
2, 160265, Note_on_c, 0, 46, 108
2, 160353, Note_off_c, 0, 73, 0
2, 160353, Note_off_c, 0, 66, 0
2, 160359, Note_off_c, 0, 78, 0
2, 160418, Note_off_c, 0, 46, 0
2, 160428, Note_off_c, 0, 88, 0
2, 160706, Control_c, 0, 64, 0
2, 161280, Control_c, 0, 10, 64
2, 162380, Note_on_c, 0, 47, 90
2, 162412, Note_on_c, 0, 55, 96
2, 162426, Note_on_c, 0, 64, 90
2, 162432, Control_c, 0, 10, 64
2, 162434, Note_on_c, 0, 61, 52
2, 162446, Note_off_c, 0, 61, 0
2, 162446, Note_on_c, 0, 76, 94
2, 162447, Note_on_c, 0, 83, 82
2, 162447, Note_on_c, 0, 71, 90
2, 162537, Control_c, 0, 64, 127
2, 162566, Note_on_c, 0, 95, 100
2, 162578, Note_off_c, 0, 71, 0
2, 162578, Note_off_c, 0, 76, 0
2, 162580, Note_off_c, 0, 83, 0
2, 162692, Note_off_c, 0, 95, 0
2, 163104, Note_on_c, 0, 33, 64
2, 163105, Note_on_c, 0, 45, 76
2, 163206, Note_off_c, 0, 55, 0
2, 163209, Note_off_c, 0, 64, 0
2, 163213, Note_off_c, 0, 47, 0
2, 163220, Control_c, 0, 64, 0
2, 163268, Control_c, 0, 64, 127
2, 163475, Note_on_c, 0, 31, 70
2, 163477, Note_on_c, 0, 43, 68
2, 163491, Note_off_c, 0, 33, 0
2, 163502, Note_off_c, 0, 45, 0
2, 163562, Control_c, 0, 64, 0
2, 163610, Control_c, 0, 64, 127
2, 164252, Note_on_c, 0, 48, 74
2, 164256, Note_on_c, 0, 36, 68
2, 164272, Note_off_c, 0, 31, 0
2, 164276, Note_off_c, 0, 43, 0
2, 164330, Control_c, 0, 64, 0
2, 164434, Control_c, 0, 64, 127
2, 164558, Note_off_c, 0, 36, 0
2, 164588, Note_off_c, 0, 48, 0
2, 164636, Note_on_c, 0, 47, 84
2, 164683, Note_on_c, 0, 54, 68
2, 164736, Control_c, 0, 10, 64
2, 164736, Note_on_c, 0, 71, 64
2, 164736, Note_on_c, 0, 78, 50
2, 164736, Note_on_c, 0, 83, 68
2, 164743, Note_on_c, 0, 64, 86
2, 164746, Control_c, 0, 64, 0
2, 164782, Note_off_c, 0, 83, 0
2, 164842, Note_on_c, 0, 95, 74
2, 164859, Control_c, 0, 64, 127
2, 164864, Note_off_c, 0, 71, 0
2, 164869, Note_off_c, 0, 78, 0
2, 164975, Note_off_c, 0, 95, 0
2, 165875, Note_on_c, 0, 63, 78
2, 165909, Note_off_c, 0, 64, 0
2, 165962, Control_c, 0, 64, 0
2, 166147, Control_c, 0, 64, 127
2, 166663, Note_off_c, 0, 47, 0
2, 166675, Note_off_c, 0, 54, 0
2, 166918, Control_c, 0, 64, 0
2, 166944, Note_off_c, 0, 63, 0
2, 167040, Note_on_c, 0, 69, 96
2, 167040, Note_on_c, 0, 49, 90
2, 167040, Control_c, 0, 10, 64
2, 167040, Control_c, 0, 10, 64
2, 167040, Note_on_c, 0, 64, 102
2, 167043, Note_on_c, 0, 40, 100
2, 167043, Note_on_c, 0, 76, 102
2, 167047, Note_on_c, 0, 47, 82
2, 167048, Note_on_c, 0, 68, 92
2, 167099, Note_off_c, 0, 49, 0
2, 167102, Note_off_c, 0, 69, 0
2, 168167, Note_off_c, 0, 47, 0
2, 168168, Note_off_c, 0, 68, 0
2, 168183, Note_on_c, 0, 49, 94
2, 168189, Note_on_c, 0, 69, 96
2, 168229, Note_on_c, 0, 68, 90
2, 168230, Note_on_c, 0, 47, 80
2, 168244, Note_off_c, 0, 49, 0
2, 168246, Note_off_c, 0, 69, 0
2, 169204, Note_off_c, 0, 47, 0
2, 169214, Note_off_c, 0, 68, 0
2, 169327, Note_on_c, 0, 49, 80
2, 169333, Note_on_c, 0, 69, 92
2, 169343, Note_on_c, 0, 68, 90
2, 169369, Note_on_c, 0, 47, 68
2, 169374, Note_off_c, 0, 69, 0
2, 169387, Note_off_c, 0, 49, 0
2, 169624, Note_off_c, 0, 47, 0
2, 169643, Note_off_c, 0, 68, 0
2, 169734, Note_on_c, 0, 49, 94
2, 169739, Note_on_c, 0, 69, 94
2, 169751, Note_on_c, 0, 68, 86
2, 169767, Note_on_c, 0, 47, 86
2, 169781, Note_off_c, 0, 69, 0
2, 169830, Note_off_c, 0, 49, 0
2, 170431, Note_off_c, 0, 68, 0
2, 170441, Note_off_c, 0, 47, 0
2, 170447, Note_on_c, 0, 49, 82
2, 170456, Note_on_c, 0, 69, 92
2, 170475, Note_on_c, 0, 68, 76
2, 170477, Note_on_c, 0, 47, 84
2, 170494, Note_off_c, 0, 49, 0
2, 170498, Note_off_c, 0, 69, 0
2, 170798, Note_off_c, 0, 47, 0
2, 170798, Note_off_c, 0, 68, 0
2, 170821, Note_on_c, 0, 49, 74
2, 170825, Note_on_c, 0, 69, 86
2, 170844, Note_on_c, 0, 68, 80
2, 170851, Note_on_c, 0, 47, 72
2, 170867, Note_off_c, 0, 49, 0
2, 171582, Note_off_c, 0, 68, 0
2, 171582, Note_off_c, 0, 69, 0
2, 171640, Note_on_c, 0, 49, 43
2, 171648, Note_on_c, 0, 69, 62
2, 171649, Note_off_c, 0, 47, 0
2, 171772, Note_on_c, 0, 47, 47
2, 171777, Note_on_c, 0, 68, 39
2, 171788, Note_off_c, 0, 49, 0
2, 171793, Note_off_c, 0, 69, 0
2, 171852, Note_on_c, 0, 69, 52
2, 171858, Note_on_c, 0, 49, 20
2, 171866, Note_off_c, 0, 47, 0
2, 171870, Note_off_c, 0, 68, 0
2, 171927, Note_on_c, 0, 47, 47
2, 171928, Note_on_c, 0, 68, 43
2, 171941, Note_off_c, 0, 49, 0
2, 171943, Note_off_c, 0, 69, 0
2, 171992, Note_on_c, 0, 49, 44
2, 171995, Note_on_c, 0, 69, 54
2, 172001, Note_off_c, 0, 47, 0
2, 172013, Note_off_c, 0, 68, 0
2, 172065, Note_on_c, 0, 68, 46
2, 172071, Note_on_c, 0, 47, 29
2, 172080, Note_off_c, 0, 49, 0
2, 172081, Note_off_c, 0, 69, 0
2, 172124, Note_on_c, 0, 69, 53
2, 172126, Note_on_c, 0, 49, 43
2, 172137, Note_off_c, 0, 47, 0
2, 172142, Note_off_c, 0, 68, 0
2, 172177, Note_on_c, 0, 68, 39
2, 172179, Note_on_c, 0, 47, 53
2, 172188, Note_off_c, 0, 69, 0
2, 172191, Note_off_c, 0, 49, 0
2, 172222, Note_on_c, 0, 69, 54
2, 172227, Note_on_c, 0, 49, 44
2, 172232, Note_off_c, 0, 68, 0
2, 172234, Note_off_c, 0, 47, 0
2, 172265, Note_on_c, 0, 68, 37
2, 172271, Note_off_c, 0, 69, 0
2, 172277, Note_on_c, 0, 47, 50
2, 172283, Note_off_c, 0, 49, 0
2, 172309, Note_on_c, 0, 69, 53
2, 172319, Note_on_c, 0, 49, 51
2, 172321, Note_off_c, 0, 68, 0
2, 172328, Note_off_c, 0, 47, 0
2, 172350, Note_on_c, 0, 68, 35
2, 172355, Note_off_c, 0, 69, 0
2, 172364, Note_on_c, 0, 47, 51
2, 172370, Note_off_c, 0, 49, 0
2, 172390, Note_on_c, 0, 69, 48
2, 172397, Note_on_c, 0, 49, 51
2, 172400, Note_off_c, 0, 68, 0
2, 172403, Note_off_c, 0, 47, 0
2, 172426, Note_on_c, 0, 68, 33
2, 172431, Note_off_c, 0, 69, 0
2, 172440, Note_on_c, 0, 47, 51
2, 172445, Note_off_c, 0, 49, 0
2, 172461, Note_on_c, 0, 69, 50
2, 172471, Note_off_c, 0, 68, 0
2, 172475, Note_on_c, 0, 49, 47
2, 172479, Note_off_c, 0, 47, 0
2, 172497, Note_on_c, 0, 68, 29
2, 172501, Note_off_c, 0, 69, 0
2, 172517, Note_on_c, 0, 47, 47
2, 172519, Note_off_c, 0, 49, 0
2, 172530, Note_on_c, 0, 69, 51
2, 172541, Note_off_c, 0, 68, 0
2, 172546, Note_on_c, 0, 49, 56
2, 172551, Note_off_c, 0, 47, 0
2, 172559, Note_on_c, 0, 68, 37
2, 172565, Note_off_c, 0, 69, 0
2, 172588, Note_on_c, 0, 47, 56
2, 172590, Note_off_c, 0, 49, 0
2, 172594, Note_on_c, 0, 69, 49
2, 172600, Note_off_c, 0, 68, 0
2, 172620, Note_on_c, 0, 68, 33
2, 172621, Note_on_c, 0, 49, 51
2, 172624, Note_off_c, 0, 47, 0
2, 172625, Note_off_c, 0, 69, 0
2, 172646, Note_on_c, 0, 69, 56
2, 172652, Note_off_c, 0, 68, 0
2, 172654, Note_on_c, 0, 47, 60
2, 172657, Note_off_c, 0, 49, 0
2, 172673, Note_on_c, 0, 68, 50
2, 172678, Note_off_c, 0, 69, 0
2, 172683, Note_on_c, 0, 49, 72
2, 172689, Note_off_c, 0, 47, 0
2, 172704, Note_on_c, 0, 69, 51
2, 172711, Note_off_c, 0, 68, 0
2, 172723, Note_off_c, 0, 49, 0
2, 172724, Note_on_c, 0, 47, 58
2, 172725, Note_on_c, 0, 68, 42
2, 172730, Note_off_c, 0, 69, 0
2, 172753, Note_on_c, 0, 49, 54
2, 172758, Note_on_c, 0, 69, 39
2, 172759, Note_off_c, 0, 47, 0
2, 172763, Note_off_c, 0, 68, 0
2, 172778, Note_on_c, 0, 68, 43
2, 172781, Note_off_c, 0, 69, 0
2, 172791, Note_on_c, 0, 47, 60
2, 172792, Note_off_c, 0, 49, 0
2, 172800, Control_c, 0, 10, 64
2, 172815, Note_off_c, 0, 68, 0
2, 172821, Note_on_c, 0, 49, 70
2, 172826, Note_off_c, 0, 47, 0
2, 172832, Note_on_c, 0, 68, 44
2, 172862, Note_on_c, 0, 69, 52
2, 172863, Note_off_c, 0, 49, 0
2, 172863, Note_on_c, 0, 47, 64
2, 172865, Note_off_c, 0, 68, 0
2, 172887, Note_on_c, 0, 68, 47
2, 172888, Note_off_c, 0, 69, 0
2, 172891, Note_on_c, 0, 49, 70
2, 172897, Note_off_c, 0, 47, 0
2, 172910, Note_on_c, 0, 69, 52
2, 172917, Note_off_c, 0, 68, 0
2, 172929, Note_on_c, 0, 47, 64
2, 172931, Note_off_c, 0, 49, 0
2, 172935, Note_off_c, 0, 69, 0
2, 172935, Note_on_c, 0, 68, 56
2, 172958, Note_on_c, 0, 49, 62
2, 172965, Note_off_c, 0, 47, 0
2, 172974, Note_off_c, 0, 68, 0
2, 172983, Note_on_c, 0, 68, 39
2, 172996, Note_on_c, 0, 47, 62
2, 172999, Note_off_c, 0, 49, 0
2, 173009, Note_on_c, 0, 69, 53
2, 173020, Note_off_c, 0, 68, 0
2, 173030, Note_on_c, 0, 49, 64
2, 173032, Note_off_c, 0, 47, 0
2, 173033, Note_on_c, 0, 68, 44
2, 173037, Note_off_c, 0, 69, 0
2, 173059, Note_on_c, 0, 69, 62
2, 173069, Note_on_c, 0, 47, 56
2, 173070, Note_off_c, 0, 68, 0
2, 173072, Note_off_c, 0, 49, 0
2, 173088, Note_on_c, 0, 68, 56
2, 173093, Note_off_c, 0, 69, 0
2, 173101, Note_on_c, 0, 49, 56
2, 173103, Note_off_c, 0, 47, 0
2, 173118, Note_on_c, 0, 69, 58
2, 173127, Note_off_c, 0, 68, 0
2, 173140, Note_on_c, 0, 47, 56
2, 173143, Note_off_c, 0, 49, 0
2, 173145, Note_on_c, 0, 68, 60
2, 173150, Note_off_c, 0, 69, 0
2, 173172, Note_on_c, 0, 49, 60
2, 173173, Note_off_c, 0, 47, 0
2, 173178, Note_on_c, 0, 69, 56
2, 173183, Note_off_c, 0, 68, 0
2, 173205, Note_on_c, 0, 68, 51
2, 173211, Note_off_c, 0, 69, 0
2, 173211, Note_on_c, 0, 47, 56
2, 173214, Note_off_c, 0, 49, 0
2, 173232, Note_on_c, 0, 69, 54
2, 173238, Note_off_c, 0, 68, 0
2, 173241, Note_on_c, 0, 49, 64
2, 173247, Note_off_c, 0, 47, 0
2, 173258, Note_on_c, 0, 68, 60
2, 173267, Note_off_c, 0, 69, 0
2, 173277, Note_on_c, 0, 47, 62
2, 173282, Note_off_c, 0, 49, 0
2, 173283, Note_on_c, 0, 69, 31
2, 173291, Note_off_c, 0, 68, 0
2, 173304, Note_off_c, 0, 69, 0
2, 173305, Note_on_c, 0, 68, 37
2, 173307, Note_on_c, 0, 49, 68
2, 173315, Note_off_c, 0, 47, 0
2, 173335, Note_on_c, 0, 69, 58
2, 173343, Note_off_c, 0, 68, 0
2, 173347, Note_on_c, 0, 47, 58
2, 173352, Note_off_c, 0, 49, 0
2, 173360, Note_on_c, 0, 68, 53
2, 173368, Note_off_c, 0, 69, 0
2, 173377, Note_on_c, 0, 49, 74
2, 173381, Note_off_c, 0, 47, 0
2, 173390, Note_on_c, 0, 69, 62
2, 173401, Note_off_c, 0, 68, 0
2, 173415, Note_on_c, 0, 47, 74
2, 173419, Note_off_c, 0, 49, 0
2, 173419, Note_on_c, 0, 68, 49
2, 173424, Note_off_c, 0, 69, 0
2, 173448, Note_on_c, 0, 69, 62
2, 173448, Note_on_c, 0, 49, 70
2, 173452, Note_off_c, 0, 47, 0
2, 173454, Note_off_c, 0, 68, 0
2, 173473, Note_on_c, 0, 68, 51
2, 173477, Note_off_c, 0, 69, 0
2, 173482, Note_on_c, 0, 47, 70
2, 173486, Note_off_c, 0, 49, 0
2, 173500, Note_on_c, 0, 69, 53
2, 173509, Note_off_c, 0, 68, 0
2, 173517, Note_on_c, 0, 49, 76
2, 173520, Note_off_c, 0, 47, 0
2, 173523, Note_on_c, 0, 68, 52
2, 173528, Note_off_c, 0, 69, 0
2, 173553, Note_on_c, 0, 47, 70
2, 173554, Note_on_c, 0, 69, 56
2, 173559, Note_off_c, 0, 49, 0
2, 173560, Note_off_c, 0, 68, 0
2, 173576, Note_on_c, 0, 68, 49
2, 173581, Note_on_c, 0, 49, 76
2, 173582, Note_off_c, 0, 69, 0
2, 173587, Note_off_c, 0, 47, 0
2, 173607, Note_on_c, 0, 69, 58
2, 173613, Note_off_c, 0, 68, 0
2, 173621, Note_on_c, 0, 47, 74
2, 173624, Note_off_c, 0, 49, 0
2, 173631, Note_on_c, 0, 68, 49
2, 173636, Note_off_c, 0, 69, 0
2, 173651, Note_on_c, 0, 49, 72
2, 173658, Note_off_c, 0, 47, 0
2, 173662, Note_on_c, 0, 69, 51
2, 173669, Note_off_c, 0, 68, 0
2, 173685, Note_on_c, 0, 68, 42
2, 173686, Note_off_c, 0, 69, 0
2, 173690, Note_on_c, 0, 47, 68
2, 173694, Note_off_c, 0, 49, 0
2, 173715, Note_on_c, 0, 69, 48
2, 173720, Note_off_c, 0, 68, 0
2, 173722, Note_on_c, 0, 49, 51
2, 173727, Note_off_c, 0, 47, 0
2, 173740, Note_on_c, 0, 68, 44
2, 173742, Note_off_c, 0, 69, 0
2, 173761, Note_on_c, 0, 47, 64
2, 173764, Note_off_c, 0, 49, 0
2, 173772, Note_on_c, 0, 69, 47
2, 173773, Note_off_c, 0, 68, 0
2, 173791, Note_on_c, 0, 49, 62
2, 173796, Note_off_c, 0, 47, 0
2, 173796, Note_on_c, 0, 68, 58
2, 173801, Note_off_c, 0, 69, 0
2, 173829, Note_on_c, 0, 69, 45
2, 173832, Note_off_c, 0, 68, 0
2, 173835, Note_off_c, 0, 49, 0
2, 173835, Note_on_c, 0, 47, 72
2, 173856, Note_on_c, 0, 68, 58
2, 173859, Note_off_c, 0, 69, 0
2, 173868, Note_off_c, 0, 47, 0
2, 173868, Note_on_c, 0, 49, 66
2, 173892, Note_off_c, 0, 68, 0
2, 173893, Note_on_c, 0, 69, 56
2, 173905, Note_on_c, 0, 47, 74
2, 173906, Note_off_c, 0, 49, 0
2, 173917, Note_on_c, 0, 68, 48
2, 173922, Note_off_c, 0, 69, 0
2, 173934, Note_on_c, 0, 49, 76
2, 173941, Note_off_c, 0, 47, 0
2, 173948, Note_on_c, 0, 69, 66
2, 173951, Note_off_c, 0, 68, 0
2, 173952, Control_c, 0, 10, 64
2, 173974, Note_on_c, 0, 47, 72
2, 173976, Note_on_c, 0, 68, 48
2, 173981, Note_off_c, 0, 69, 0
2, 173981, Note_off_c, 0, 49, 0
2, 174006, Note_on_c, 0, 69, 58
2, 174006, Note_on_c, 0, 49, 52
2, 174010, Note_off_c, 0, 68, 0
2, 174010, Note_off_c, 0, 47, 0
2, 174035, Note_on_c, 0, 68, 37
2, 174037, Note_off_c, 0, 69, 0
2, 174043, Note_on_c, 0, 47, 58
2, 174049, Note_off_c, 0, 49, 0
2, 174058, Note_on_c, 0, 69, 54
2, 174066, Note_off_c, 0, 68, 0
2, 174079, Note_on_c, 0, 49, 72
2, 174081, Note_off_c, 0, 47, 0
2, 174086, Note_on_c, 0, 68, 47
2, 174090, Note_off_c, 0, 69, 0
2, 174114, Note_on_c, 0, 69, 58
2, 174118, Note_on_c, 0, 47, 68
2, 174122, Note_off_c, 0, 68, 0
2, 174126, Note_off_c, 0, 49, 0
2, 174140, Note_on_c, 0, 68, 47
2, 174146, Note_off_c, 0, 69, 0
2, 174154, Note_on_c, 0, 49, 56
2, 174157, Note_off_c, 0, 47, 0
2, 174170, Note_on_c, 0, 69, 51
2, 174176, Note_off_c, 0, 68, 0
2, 174191, Note_on_c, 0, 47, 68
2, 174195, Note_on_c, 0, 68, 45
2, 174200, Note_off_c, 0, 49, 0
2, 174202, Note_off_c, 0, 69, 0
2, 174229, Note_on_c, 0, 49, 56
2, 174229, Note_on_c, 0, 69, 50
2, 174231, Note_off_c, 0, 47, 0
2, 174236, Note_off_c, 0, 68, 0
2, 174253, Note_on_c, 0, 68, 43
2, 174258, Note_off_c, 0, 69, 0
2, 174265, Note_on_c, 0, 47, 82
2, 174271, Note_off_c, 0, 49, 0
2, 174287, Note_on_c, 0, 69, 39
2, 174290, Note_off_c, 0, 68, 0
2, 174305, Note_on_c, 0, 49, 64
2, 174305, Note_on_c, 0, 68, 44
2, 174307, Note_off_c, 0, 69, 0
2, 174307, Note_off_c, 0, 47, 0
2, 174336, Note_on_c, 0, 69, 54
2, 174337, Note_on_c, 0, 47, 74
2, 174343, Note_off_c, 0, 68, 0
2, 174347, Note_off_c, 0, 49, 0
2, 174358, Note_on_c, 0, 68, 52
2, 174366, Note_off_c, 0, 69, 0
2, 174373, Note_on_c, 0, 49, 70
2, 174379, Note_off_c, 0, 47, 0
2, 174392, Note_on_c, 0, 69, 47
2, 174396, Note_off_c, 0, 68, 0
2, 174415, Note_on_c, 0, 47, 78
2, 174420, Note_on_c, 0, 68, 33
2, 174423, Note_off_c, 0, 69, 0
2, 174424, Note_off_c, 0, 49, 0
2, 174448, Note_on_c, 0, 69, 39
2, 174451, Note_on_c, 0, 49, 47
2, 174453, Note_off_c, 0, 68, 0
2, 174458, Note_off_c, 0, 47, 0
2, 174475, Note_on_c, 0, 68, 49
2, 174478, Note_off_c, 0, 69, 0
2, 174488, Note_on_c, 0, 47, 76
2, 174494, Note_off_c, 0, 49, 0
2, 174518, Note_on_c, 0, 69, 37
2, 174523, Note_on_c, 0, 49, 60
2, 174533, Note_off_c, 0, 47, 0
2, 174535, Note_off_c, 0, 68, 0
2, 174571, Note_on_c, 0, 68, 77
2, 174572, Note_on_c, 0, 47, 82
2, 174577, Note_off_c, 0, 69, 0
2, 174591, Note_off_c, 0, 49, 0
2, 174702, Note_on_c, 0, 66, 57
2, 174705, Note_on_c, 0, 45, 70
2, 174720, Note_off_c, 0, 47, 0
2, 174726, Note_off_c, 0, 68, 0
2, 174905, Note_on_c, 0, 47, 82
2, 174907, Note_on_c, 0, 68, 88
2, 174923, Note_off_c, 0, 45, 0
2, 174931, Note_off_c, 0, 66, 0
2, 175113, Note_on_c, 0, 71, 92
2, 175116, Note_on_c, 0, 51, 84
2, 175119, Note_off_c, 0, 68, 0
2, 175129, Note_off_c, 0, 47, 0
2, 175335, Note_on_c, 0, 69, 102
2, 175336, Note_on_c, 0, 49, 92
2, 175363, Note_off_c, 0, 71, 0
2, 175367, Note_off_c, 0, 51, 0
2, 175595, Note_on_c, 0, 47, 94
2, 175617, Note_off_c, 0, 49, 0
2, 175639, Note_on_c, 0, 68, 98
2, 175658, Note_off_c, 0, 69, 0
2, 175908, Note_off_c, 0, 68, 0
2, 175945, Note_on_c, 0, 68, 104
2, 175966, Note_off_c, 0, 47, 0
2, 175968, Note_on_c, 0, 28, 98
2, 176138, Control_c, 0, 64, 127
2, 176352, Control_c, 0, 64, 127
2, 176364, Note_on_c, 0, 40, 102
2, 176671, Note_on_c, 0, 47, 102
2, 176701, Note_off_c, 0, 68, 0
2, 176723, Note_off_c, 0, 28, 0
2, 176911, Note_on_c, 0, 52, 92
2, 177125, Note_on_c, 0, 56, 96
2, 177315, Note_on_c, 0, 59, 86
2, 177329, Note_off_c, 0, 56, 0
2, 177330, Note_on_c, 0, 57, 35
2, 177360, Note_off_c, 0, 57, 0
2, 177518, Note_on_c, 0, 64, 96
2, 177541, Note_off_c, 0, 59, 0
2, 177714, Note_on_c, 0, 66, 104
2, 177746, Note_off_c, 0, 64, 0
2, 177891, Note_on_c, 0, 68, 92
2, 177924, Note_off_c, 0, 66, 0
2, 178063, Note_on_c, 0, 71, 92
2, 178091, Note_off_c, 0, 68, 0
2, 178189, Note_off_c, 0, 76, 0
2, 178189, Note_off_c, 0, 64, 0
2, 178192, Note_off_c, 0, 40, 0
2, 178237, Note_on_c, 0, 76, 102
2, 178253, Note_off_c, 0, 71, 0
2, 178415, Note_on_c, 0, 78, 104
2, 178449, Note_off_c, 0, 76, 0
2, 178588, Note_on_c, 0, 80, 98
2, 178628, Note_off_c, 0, 78, 0
2, 178782, Note_on_c, 0, 83, 94
2, 178788, Note_off_c, 0, 80, 0
2, 178998, Note_on_c, 0, 88, 106
2, 179014, Note_off_c, 0, 83, 0
2, 179295, Note_on_c, 0, 90, 108
2, 179331, Note_on_c, 0, 91, 49
2, 179337, Note_off_c, 0, 88, 0
2, 179644, Note_off_c, 0, 91, 0
2, 179649, Note_on_c, 0, 92, 108
2, 179666, Note_off_c, 0, 90, 0
2, 180624, Note_off_c, 0, 40, 0
2, 180625, Note_off_c, 0, 52, 0
2, 180631, Note_off_c, 0, 47, 0
2, 180639, Note_off_c, 0, 92, 0
2, 180932, Control_c, 0, 64, 0
2, 182016, End_track
3, 0, Start_track
3, 0, Title_t, "Op 25 No 5"
3, 0, Control_c, 0, 10, 10
3, 4, System_exclusive, 05, 7E, 00, 00, 7F, F7
3, 16, Control_c, 0, 0, 0
3, 20, Control_c, 0, 32, 0
3, 36, Control_c, 0, 91, 127
3, 40, Control_c, 0, 93, 0
3, 44, Control_c, 0, 101, 0
3, 48, Control_c, 0, 100, 0
3, 52, Control_c, 0, 6, 2
3, 1152, End_track
4, 0, Start_track
4, 0, Title_t, "Chopin"
4, 0, Control_c, 0, 10, 10
4, 4, System_exclusive, 05, 7E, 00, 00, 7F, F7
4, 16, Control_c, 0, 0, 0
4, 20, Control_c, 0, 32, 0
4, 36, Control_c, 0, 91, 127
4, 40, Control_c, 0, 93, 0
4, 44, Control_c, 0, 101, 0
4, 48, Control_c, 0, 100, 0
4, 52, Control_c, 0, 6, 2
4, 1152, End_track
5, 0, Start_track
5, 0, Title_t, "Walsingham"
5, 1536, End_track
0, 0, End_of_file