0, 0, Header, 1, 11, 240
1, 0, Start_track
1, 0, Time_signature, 6, 3, 72, 8
1, 0, Tempo, 923077
1, 27997, Tempo, 821918
1, 38078, Tempo, 923077
1, 38185, Tempo, 800000
1, 44581, Tempo, 779221
1, 62211, Tempo, 750000
1, 70820, Tempo, 923077
1, 78950, Tempo, 857143
1, 89315, Tempo, 869565
1, 89385, Tempo, 882353
1, 89455, Tempo, 895522
1, 89525, Tempo, 909091
1, 89595, Tempo, 923077
1, 89665, Tempo, 937500
1, 89735, Tempo, 952381
1, 89805, Tempo, 967742
1, 89875, Tempo, 983607
1, 89945, Tempo, 1000000
1, 89980, Tempo, 923077
1, 98801, Tempo, 857143
1, 98801, End_track
2, 0, Start_track
2, 205, Control_c, 0, 64, 40
2, 210, Control_c, 0, 64, 56
2, 215, Control_c, 0, 64, 88
2, 218, Control_c, 0, 64, 104
2, 223, Control_c, 0, 64, 127
2, 326, Note_on_c, 0, 72, 48
2, 328, Note_on_c, 0, 60, 29
2, 330, Control_c, 0, 64, 88
2, 335, Control_c, 0, 64, 72
2, 345, Control_c, 0, 64, 104
2, 350, Control_c, 0, 64, 127
2, 360, Note_off_c, 0, 72, 64
2, 361, Note_off_c, 0, 60, 64
2, 425, Note_on_c, 0, 72, 62
2, 428, Note_on_c, 0, 60, 38
2, 446, Control_c, 0, 64, 72
2, 451, Control_c, 0, 64, 40
2, 456, Control_c, 0, 64, 72
2, 461, Control_c, 0, 64, 104
2, 465, Control_c, 0, 64, 127
2, 480, Note_off_c, 0, 60, 64
2, 482, Note_off_c, 0, 72, 64
2, 580, Note_on_c, 0, 72, 62
2, 581, Note_on_c, 0, 60, 36
2, 606, Note_off_c, 0, 60, 64
2, 612, Note_off_c, 0, 72, 64
2, 667, Note_on_c, 0, 72, 64
2, 673, Note_on_c, 0, 60, 50
2, 703, Note_off_c, 0, 60, 64
2, 707, Note_off_c, 0, 72, 64
2, 825, Note_on_c, 0, 72, 67
2, 825, Note_on_c, 0, 60, 41
2, 848, Note_off_c, 0, 60, 64
2, 855, Note_off_c, 0, 72, 64
2, 916, Note_on_c, 0, 72, 66
2, 916, Note_on_c, 0, 60, 38
2, 947, Note_off_c, 0, 60, 64
2, 956, Note_off_c, 0, 72, 64
2, 1102, Note_on_c, 0, 72, 56
2, 1102, Note_on_c, 0, 60, 35
2, 1127, Note_off_c, 0, 60, 64
2, 1136, Note_off_c, 0, 72, 64
2, 1228, Note_on_c, 0, 72, 60
2, 1228, Note_on_c, 0, 53, 24
2, 1228, Note_on_c, 0, 60, 24
2, 1228, Note_on_c, 0, 69, 44
2, 1253, Control_c, 0, 64, 56
2, 1258, Control_c, 0, 64, 0
2, 1278, Control_c, 0, 64, 56
2, 1283, Control_c, 0, 64, 127
2, 1297, Note_off_c, 0, 60, 64
2, 1298, Note_off_c, 0, 69, 64
2, 1298, Note_off_c, 0, 53, 64
2, 1300, Note_off_c, 0, 72, 64
2, 1396, Note_on_c, 0, 72, 67
2, 1396, Note_on_c, 0, 69, 43
2, 1396, Note_on_c, 0, 53, 36
2, 1396, Note_on_c, 0, 60, 28
2, 1410, Control_c, 0, 64, 72
2, 1415, Control_c, 0, 64, 40
2, 1417, Note_off_c, 0, 53, 64
2, 1418, Control_c, 0, 64, 72
2, 1423, Control_c, 0, 64, 104
2, 1426, Note_off_c, 0, 69, 64
2, 1428, Note_off_c, 0, 60, 64
2, 1428, Control_c, 0, 64, 127
2, 1436, Note_off_c, 0, 72, 64
2, 1500, Note_on_c, 0, 72, 68
2, 1500, Note_on_c, 0, 70, 54
2, 1500, Note_on_c, 0, 60, 39
2, 1500, Note_on_c, 0, 53, 44
2, 1526, Control_c, 0, 64, 104
2, 1531, Control_c, 0, 64, 40
2, 1536, Control_c, 0, 64, 0
2, 1545, Control_c, 0, 64, 24
2, 1550, Control_c, 0, 64, 88
2, 1555, Control_c, 0, 64, 127
2, 1577, Note_off_c, 0, 53, 64
2, 1586, Note_off_c, 0, 60, 64
2, 1605, Note_off_c, 0, 70, 64
2, 1610, Note_off_c, 0, 72, 64
2, 1668, Note_on_c, 0, 72, 73
2, 1668, Note_on_c, 0, 53, 40
2, 1668, Note_on_c, 0, 70, 50
2, 1668, Note_on_c, 0, 60, 44
2, 1691, Note_off_c, 0, 53, 64
2, 1695, Note_off_c, 0, 60, 64
2, 1698, Note_off_c, 0, 70, 64
2, 1718, Note_off_c, 0, 72, 64
2, 1767, Note_on_c, 0, 76, 72
2, 1767, Note_on_c, 0, 70, 43
2, 1767, Note_on_c, 0, 53, 36
2, 1767, Note_on_c, 0, 60, 33
2, 1801, Control_c, 0, 64, 40
2, 1806, Control_c, 0, 64, 0
2, 1826, Control_c, 0, 64, 56
2, 1830, Control_c, 0, 64, 127
2, 1838, Note_off_c, 0, 53, 64
2, 1843, Note_off_c, 0, 60, 64
2, 1867, Note_off_c, 0, 70, 64
2, 1867, Note_off_c, 0, 76, 64
2, 1901, Note_on_c, 0, 74, 68
2, 1925, Note_off_c, 0, 74, 64
2, 1933, Note_on_c, 0, 72, 69
2, 1933, Note_on_c, 0, 60, 33
2, 1933, Note_on_c, 0, 53, 39
2, 1933, Note_on_c, 0, 70, 54
2, 1942, Control_c, 0, 64, 56
2, 1947, Control_c, 0, 64, 0
2, 1952, Control_c, 0, 64, 24
2, 1957, Control_c, 0, 64, 88
2, 1962, Control_c, 0, 64, 127
2, 1965, Note_off_c, 0, 53, 64
2, 1967, Note_off_c, 0, 60, 64
2, 1972, Note_off_c, 0, 70, 64
2, 1978, Note_off_c, 0, 72, 64
2, 2035, Note_on_c, 0, 77, 70
2, 2035, Note_on_c, 0, 69, 52
2, 2035, Note_on_c, 0, 53, 44
2, 2035, Note_on_c, 0, 60, 43
2, 2063, Control_c, 0, 64, 56
2, 2068, Control_c, 0, 64, 0
2, 2082, Control_c, 0, 64, 24
2, 2087, Control_c, 0, 64, 88
2, 2092, Control_c, 0, 64, 127
2, 2096, Note_off_c, 0, 77, 64
2, 2097, Note_off_c, 0, 53, 64
2, 2098, Note_off_c, 0, 69, 64
2, 2110, Note_off_c, 0, 60, 64
2, 2205, Note_on_c, 0, 74, 72
2, 2205, Note_on_c, 0, 58, 39
2, 2205, Note_on_c, 0, 65, 45
2, 2213, Control_c, 0, 64, 56
2, 2218, Control_c, 0, 64, 0
2, 2232, Control_c, 0, 64, 56
2, 2237, Control_c, 0, 64, 127
2, 2246, Note_off_c, 0, 74, 64
2, 2251, Note_off_c, 0, 65, 64
2, 2255, Note_off_c, 0, 58, 64
2, 2310, Note_on_c, 0, 72, 68
2, 2310, Note_on_c, 0, 65, 45
2, 2310, Note_on_c, 0, 57, 28
2, 2340, Control_c, 0, 64, 40
2, 2343, Control_c, 0, 64, 0
2, 2363, Control_c, 0, 64, 56
2, 2368, Control_c, 0, 64, 127
2, 2380, Note_off_c, 0, 57, 64
2, 2393, Note_off_c, 0, 72, 64
2, 2398, Note_off_c, 0, 65, 64
2, 2487, Note_on_c, 0, 64, 57
2, 2487, Note_on_c, 0, 57, 42
2, 2487, Note_on_c, 0, 48, 40
2, 2487, Note_on_c, 0, 69, 68
2, 2503, Control_c, 0, 64, 40
2, 2508, Control_c, 0, 64, 0
2, 2522, Control_c, 0, 64, 40
2, 2528, Control_c, 0, 64, 104
2, 2530, Note_off_c, 0, 57, 64
2, 2533, Control_c, 0, 64, 127
2, 2541, Note_off_c, 0, 48, 64
2, 2551, Note_off_c, 0, 64, 64
2, 2553, Note_off_c, 0, 69, 64
2, 2596, Note_on_c, 0, 65, 62
2, 2596, Note_on_c, 0, 50, 43
2, 2596, Note_on_c, 0, 60, 44
2, 2596, Note_on_c, 0, 57, 41
2, 2633, Control_c, 0, 64, 104
2, 2638, Control_c, 0, 64, 40
2, 2645, Control_c, 0, 64, 0
2, 2670, Note_off_c, 0, 57, 64
2, 2672, Note_off_c, 0, 50, 64
2, 2673, Control_c, 0, 64, 88
2, 2678, Control_c, 0, 64, 127
2, 2682, Note_off_c, 0, 60, 64
2, 2691, Note_off_c, 0, 65, 64
2, 2775, Note_on_c, 0, 67, 60
2, 2775, Note_on_c, 0, 58, 42
2, 2775, Note_on_c, 0, 65, 50
2, 2775, Note_on_c, 0, 50, 43
2, 2775, Note_on_c, 0, 43, 48
2, 2783, Control_c, 0, 64, 104
2, 2790, Control_c, 0, 64, 0
2, 2808, Control_c, 0, 64, 72
2, 2813, Control_c, 0, 64, 127
2, 2818, Note_off_c, 0, 50, 64
2, 2825, Note_off_c, 0, 65, 64
2, 2832, Note_off_c, 0, 43, 64
2, 2840, Note_off_c, 0, 58, 64
2, 2883, Note_off_c, 0, 67, 64
2, 2891, Note_on_c, 0, 67, 63
2, 2891, Note_on_c, 0, 48, 44
2, 2891, Note_on_c, 0, 58, 43
2, 2891, Note_on_c, 0, 64, 55
2, 2925, Control_c, 0, 64, 72
2, 2930, Control_c, 0, 64, 0
2, 2958, Control_c, 0, 64, 56
2, 2963, Control_c, 0, 64, 127
2, 2980, Note_off_c, 0, 48, 64
2, 3000, Note_off_c, 0, 58, 64
2, 3002, Note_off_c, 0, 64, 64
2, 3077, Note_on_c, 0, 62, 41
2, 3077, Note_on_c, 0, 58, 42
2, 3077, Note_on_c, 0, 48, 39
2, 3088, Control_c, 0, 64, 88
2, 3093, Control_c, 0, 64, 24
2, 3098, Control_c, 0, 64, 0
2, 3108, Control_c, 0, 64, 56
2, 3113, Control_c, 0, 64, 127
2, 3120, Note_off_c, 0, 67, 64
2, 3125, Note_off_c, 0, 48, 64
2, 3127, Note_off_c, 0, 58, 64
2, 3142, Note_off_c, 0, 62, 64
2, 3186, Note_on_c, 0, 69, 63
2, 3186, Note_on_c, 0, 41, 45
2, 3186, Note_on_c, 0, 60, 44
2, 3186, Note_on_c, 0, 53, 28
2, 3215, Control_c, 0, 64, 88
2, 3221, Control_c, 0, 64, 0
2, 3250, Control_c, 0, 64, 40
2, 3253, Note_off_c, 0, 41, 64
2, 3255, Control_c, 0, 64, 104
2, 3258, Control_c, 0, 64, 127
2, 3271, Note_off_c, 0, 53, 64
2, 3285, Note_off_c, 0, 69, 64
2, 3296, Note_off_c, 0, 60, 64
2, 3367, Note_on_c, 0, 70, 65
2, 3367, Note_on_c, 0, 62, 53
2, 3367, Note_on_c, 0, 46, 36
2, 3367, Note_on_c, 0, 53, 34
2, 3375, Control_c, 0, 64, 56
2, 3380, Control_c, 0, 64, 0
2, 3395, Control_c, 0, 64, 88
2, 3398, Note_off_c, 0, 53, 64
2, 3400, Control_c, 0, 64, 127
2, 3405, Note_off_c, 0, 46, 64
2, 3416, Note_off_c, 0, 62, 64
2, 3425, Note_off_c, 0, 70, 64
2, 3468, Note_on_c, 0, 60, 52
2, 3468, Note_on_c, 0, 69, 63
2, 3468, Note_on_c, 0, 53, 42
2, 3468, Note_on_c, 0, 48, 38
2, 3491, Control_c, 0, 64, 88
2, 3496, Control_c, 0, 64, 0
2, 3525, Control_c, 0, 64, 127
2, 3532, Note_off_c, 0, 48, 64
2, 3552, Note_off_c, 0, 53, 64
2, 3601, Note_off_c, 0, 60, 64
2, 3610, Note_off_c, 0, 69, 64
2, 3637, Note_on_c, 0, 65, 58
2, 3637, Note_on_c, 0, 46, 33
2, 3637, Note_on_c, 0, 62, 40
2, 3637, Note_on_c, 0, 53, 31
2, 3656, Control_c, 0, 64, 40
2, 3661, Control_c, 0, 64, 0
2, 3675, Note_off_c, 0, 53, 64
2, 3675, Control_c, 0, 64, 88
2, 3676, Note_off_c, 0, 62, 64
2, 3681, Note_off_c, 0, 46, 64
2, 3681, Control_c, 0, 64, 127
2, 3706, Note_off_c, 0, 65, 64
2, 3742, Note_on_c, 0, 69, 69
2, 3742, Note_on_c, 0, 48, 44
2, 3742, Note_on_c, 0, 60, 46
2, 3742, Note_on_c, 0, 53, 31
2, 3767, Control_c, 0, 64, 72
2, 3772, Control_c, 0, 64, 0
2, 3792, Control_c, 0, 64, 72
2, 3797, Control_c, 0, 64, 127
2, 3817, Note_off_c, 0, 60, 64
2, 3818, Note_off_c, 0, 53, 64
2, 3825, Note_off_c, 0, 48, 64
2, 3831, Note_off_c, 0, 69, 64
2, 3900, Note_on_c, 0, 70, 68
2, 3900, Note_on_c, 0, 53, 35
2, 3900, Note_on_c, 0, 50, 38
2, 3900, Note_on_c, 0, 58, 40
2, 3913, Control_c, 0, 64, 40
2, 3917, Control_c, 0, 64, 0
2, 3927, Note_off_c, 0, 58, 64
2, 3927, Control_c, 0, 64, 56
2, 3932, Note_off_c, 0, 53, 64
2, 3932, Control_c, 0, 64, 104
2, 3937, Note_off_c, 0, 50, 64
2, 3937, Control_c, 0, 64, 127
2, 3963, Note_off_c, 0, 70, 64
2, 4007, Note_on_c, 0, 69, 70
2, 4007, Note_on_c, 0, 48, 47
2, 4007, Note_on_c, 0, 60, 41
2, 4007, Note_on_c, 0, 53, 31
2, 4033, Control_c, 0, 64, 56
2, 4038, Control_c, 0, 64, 0
2, 4058, Control_c, 0, 64, 40
2, 4062, Control_c, 0, 64, 127
2, 4088, Note_off_c, 0, 53, 64
2, 4098, Note_off_c, 0, 69, 64
2, 4103, Note_off_c, 0, 48, 64
2, 4113, Note_off_c, 0, 60, 64
2, 4138, Note_on_c, 0, 67, 60
2, 4163, Note_off_c, 0, 67, 64
2, 4176, Note_on_c, 0, 65, 60
2, 4176, Note_on_c, 0, 62, 52
2, 4176, Note_on_c, 0, 46, 35
2, 4178, Control_c, 0, 64, 56
2, 4183, Control_c, 0, 64, 0
2, 4186, Note_on_c, 0, 53, 33
2, 4203, Control_c, 0, 64, 88
2, 4207, Control_c, 0, 64, 127
2, 4213, Note_off_c, 0, 46, 64
2, 4213, Note_off_c, 0, 62, 64
2, 4216, Note_off_c, 0, 53, 64
2, 4233, Note_off_c, 0, 65, 64
2, 4281, Note_on_c, 0, 53, 34
2, 4281, Note_on_c, 0, 48, 34
2, 4281, Note_on_c, 0, 60, 43
2, 4281, Note_on_c, 0, 69, 63
2, 4310, Control_c, 0, 64, 104
2, 4315, Control_c, 0, 64, 24
2, 4320, Control_c, 0, 64, 0
2, 4343, Control_c, 0, 64, 40
2, 4348, Control_c, 0, 64, 127
2, 4363, Note_off_c, 0, 60, 64
2, 4365, Note_off_c, 0, 53, 64
2, 4367, Note_off_c, 0, 48, 64
2, 4377, Note_off_c, 0, 69, 64
2, 4442, Note_on_c, 0, 70, 65
2, 4442, Note_on_c, 0, 50, 44
2, 4442, Note_on_c, 0, 58, 47
2, 4442, Note_on_c, 0, 53, 37
2, 4450, Control_c, 0, 64, 56
2, 4456, Control_c, 0, 64, 0
2, 4465, Control_c, 0, 64, 24
2, 4468, Control_c, 0, 64, 72
2, 4473, Note_off_c, 0, 53, 64
2, 4473, Control_c, 0, 64, 127
2, 4480, Note_off_c, 0, 50, 64
2, 4481, Note_off_c, 0, 58, 64
2, 4495, Note_off_c, 0, 70, 64
2, 4548, Note_on_c, 0, 69, 67
2, 4548, Note_on_c, 0, 48, 53
2, 4548, Note_on_c, 0, 60, 55
2, 4548, Note_on_c, 0, 53, 43
2, 4561, Control_c, 0, 64, 72
2, 4566, Control_c, 0, 64, 0
2, 4595, Control_c, 0, 64, 40
2, 4601, Control_c, 0, 64, 104
2, 4605, Control_c, 0, 64, 127
2, 4607, Note_off_c, 0, 48, 64
2, 4622, Note_off_c, 0, 53, 64
2, 4646, Note_off_c, 0, 69, 64
2, 4658, Note_off_c, 0, 60, 64
2, 4683, Note_on_c, 0, 67, 63
2, 4708, Note_off_c, 0, 67, 64
2, 4721, Note_on_c, 0, 65, 66
2, 4721, Note_on_c, 0, 60, 49
2, 4721, Note_on_c, 0, 57, 36
2, 4721, Note_on_c, 0, 48, 47
2, 4736, Control_c, 0, 64, 56
2, 4741, Control_c, 0, 64, 0
2, 4758, Note_off_c, 0, 48, 64
2, 4760, Control_c, 0, 64, 40
2, 4761, Note_off_c, 0, 57, 64
2, 4765, Control_c, 0, 64, 104
2, 4770, Control_c, 0, 64, 127
2, 4778, Note_off_c, 0, 65, 64
2, 4792, Note_off_c, 0, 60, 64
2, 4833, Note_on_c, 0, 67, 68
2, 4833, Note_on_c, 0, 62, 56
2, 4833, Note_on_c, 0, 48, 46
2, 4833, Note_on_c, 0, 58, 49
2, 4866, Control_c, 0, 64, 56
2, 4871, Control_c, 0, 64, 0
2, 4905, Control_c, 0, 64, 104
2, 4910, Control_c, 0, 64, 127
2, 4917, Note_off_c, 0, 48, 64
2, 4931, Note_off_c, 0, 58, 64
2, 4948, Note_off_c, 0, 62, 64
2, 5005, Note_on_c, 0, 58, 26
2, 5005, Note_on_c, 0, 60, 27
2, 5005, Note_on_c, 0, 64, 43
2, 5005, Note_on_c, 0, 48, 51
2, 5010, Control_c, 0, 64, 56
2, 5016, Control_c, 0, 64, 0
2, 5038, Note_off_c, 0, 48, 64
2, 5038, Control_c, 0, 64, 56
2, 5047, Note_off_c, 0, 58, 64
2, 5047, Control_c, 0, 64, 127
2, 5060, Note_off_c, 0, 60, 64
2, 5061, Note_off_c, 0, 64, 64
2, 5080, Note_off_c, 0, 67, 64
2, 5118, Note_on_c, 0, 65, 54
2, 5118, Note_on_c, 0, 60, 43
2, 5118, Note_on_c, 0, 53, 39
2, 5118, Note_on_c, 0, 57, 43
2, 5147, Control_c, 0, 64, 88
2, 5152, Control_c, 0, 64, 24
2, 5156, Control_c, 0, 64, 0
2, 5193, Note_off_c, 0, 57, 64
2, 5201, Note_off_c, 0, 53, 64
2, 5201, Control_c, 0, 64, 88
2, 5205, Control_c, 0, 64, 127
2, 5213, Note_off_c, 0, 60, 64
2, 5292, Note_on_c, 0, 60, 37
2, 5292, Note_on_c, 0, 53, 42
2, 5292, Control_c, 0, 64, 88
2, 5297, Control_c, 0, 64, 24
2, 5302, Control_c, 0, 64, 0
2, 5305, Note_on_c, 0, 57, 34
2, 5307, Control_c, 0, 64, 40
2, 5312, Control_c, 0, 64, 72
2, 5316, Note_off_c, 0, 53, 64
2, 5317, Control_c, 0, 64, 127
2, 5322, Note_off_c, 0, 57, 64
2, 5322, Note_off_c, 0, 60, 64
2, 5335, Note_off_c, 0, 65, 64
2, 5418, Note_on_c, 0, 72, 74
2, 5418, Note_on_c, 0, 69, 53
2, 5418, Note_on_c, 0, 65, 44
2, 5418, Note_on_c, 0, 53, 33
2, 5418, Note_on_c, 0, 60, 25
2, 5442, Control_c, 0, 64, 104
2, 5447, Control_c, 0, 64, 24
2, 5452, Control_c, 0, 64, 0
2, 5481, Control_c, 0, 64, 88
2, 5483, Note_off_c, 0, 53, 64
2, 5486, Control_c, 0, 64, 127
2, 5487, Note_off_c, 0, 60, 64
2, 5492, Note_off_c, 0, 65, 64
2, 5495, Note_off_c, 0, 69, 64
2, 5576, Note_on_c, 0, 69, 42
2, 5576, Note_on_c, 0, 65, 39
2, 5576, Note_on_c, 0, 53, 24
2, 5576, Note_on_c, 0, 60, 30
2, 5601, Note_off_c, 0, 53, 64
2, 5607, Note_off_c, 0, 60, 64
2, 5613, Note_off_c, 0, 65, 64
2, 5618, Note_off_c, 0, 69, 64
2, 5677, Note_on_c, 0, 53, 35
2, 5677, Note_on_c, 0, 60, 34
2, 5677, Note_on_c, 0, 69, 38
2, 5677, Note_on_c, 0, 65, 29
2, 5748, Note_off_c, 0, 65, 64
2, 5761, Note_off_c, 0, 53, 64
2, 5771, Note_off_c, 0, 69, 64
2, 5771, Note_off_c, 0, 60, 64
2, 5772, Note_off_c, 0, 72, 64
2, 5843, Note_on_c, 0, 72, 74
2, 5843, Note_on_c, 0, 65, 48
2, 5843, Note_on_c, 0, 53, 41
2, 5843, Note_on_c, 0, 69, 54
2, 5843, Note_on_c, 0, 60, 32
2, 5863, Note_off_c, 0, 69, 64
2, 5863, Note_off_c, 0, 65, 64
2, 5872, Note_off_c, 0, 60, 64
2, 5877, Note_off_c, 0, 53, 64
2, 5885, Note_off_c, 0, 72, 64
2, 5947, Note_on_c, 0, 72, 74
2, 5947, Note_on_c, 0, 67, 46
2, 5947, Note_on_c, 0, 53, 36
2, 5947, Note_on_c, 0, 70, 53
2, 5957, Note_on_c, 0, 60, 27
2, 5976, Control_c, 0, 64, 88
2, 5981, Control_c, 0, 64, 40
2, 5985, Control_c, 0, 64, 0
2, 6018, Control_c, 0, 64, 88
2, 6023, Control_c, 0, 64, 127
2, 6043, Note_off_c, 0, 53, 64
2, 6048, Note_off_c, 0, 60, 64
2, 6052, Note_off_c, 0, 67, 64
2, 6066, Note_off_c, 0, 72, 64
2, 6067, Note_off_c, 0, 70, 64
2, 6113, Note_on_c, 0, 72, 82
2, 6113, Note_on_c, 0, 53, 49
2, 6113, Note_on_c, 0, 67, 54
2, 6113, Note_on_c, 0, 70, 56
2, 6121, Note_on_c, 0, 60, 38
2, 6130, Control_c, 0, 64, 56
2, 6135, Control_c, 0, 64, 0
2, 6140, Control_c, 0, 64, 56
2, 6145, Control_c, 0, 64, 88
2, 6147, Note_off_c, 0, 53, 64
2, 6150, Control_c, 0, 64, 127
2, 6153, Note_off_c, 0, 60, 64
2, 6155, Note_off_c, 0, 67, 64
2, 6162, Note_off_c, 0, 70, 64
2, 6168, Note_off_c, 0, 72, 64
2, 6215, Note_on_c, 0, 76, 86
2, 6215, Note_on_c, 0, 53, 36
2, 6215, Note_on_c, 0, 70, 56
2, 6215, Note_on_c, 0, 67, 55
2, 6215, Note_on_c, 0, 60, 36
2, 6241, Control_c, 0, 64, 88
2, 6246, Control_c, 0, 64, 0
2, 6266, Control_c, 0, 64, 24
2, 6271, Control_c, 0, 64, 104
2, 6275, Control_c, 0, 64, 127
2, 6288, Note_off_c, 0, 53, 64
2, 6298, Note_off_c, 0, 60, 64
2, 6303, Note_off_c, 0, 76, 64
2, 6307, Note_off_c, 0, 67, 64
2, 6313, Note_off_c, 0, 70, 64
2, 6336, Note_on_c, 0, 74, 63
2, 6357, Note_off_c, 0, 74, 64
2, 6371, Note_on_c, 0, 72, 80
2, 6371, Note_on_c, 0, 67, 47
2, 6371, Note_on_c, 0, 53, 45
2, 6371, Note_on_c, 0, 70, 50
2, 6381, Note_on_c, 0, 60, 40
2, 6382, Control_c, 0, 64, 72
2, 6386, Control_c, 0, 64, 0
2, 6396, Note_off_c, 0, 70, 64
2, 6397, Note_off_c, 0, 53, 64
2, 6401, Control_c, 0, 64, 88
2, 6406, Note_off_c, 0, 67, 64
2, 6406, Control_c, 0, 64, 127
2, 6411, Note_off_c, 0, 60, 64
2, 6416, Note_off_c, 0, 72, 64
2, 6473, Note_on_c, 0, 69, 55
2, 6473, Note_on_c, 0, 65, 44
2, 6473, Note_on_c, 0, 53, 39
2, 6473, Note_on_c, 0, 60, 30
2, 6473, Note_on_c, 0, 77, 80
2, 6502, Control_c, 0, 64, 24
2, 6507, Control_c, 0, 64, 0
2, 6537, Control_c, 0, 64, 72
2, 6542, Control_c, 0, 64, 127
2, 6560, Note_off_c, 0, 53, 64
2, 6561, Note_off_c, 0, 77, 64
2, 6572, Note_off_c, 0, 60, 64
2, 6577, Note_off_c, 0, 69, 64
2, 6580, Note_off_c, 0, 65, 64
2, 6646, Note_on_c, 0, 74, 73
2, 6646, Note_on_c, 0, 58, 28
2, 6646, Note_on_c, 0, 65, 48
2, 6647, Control_c, 0, 64, 88
2, 6653, Control_c, 0, 64, 0
2, 6676, Control_c, 0, 64, 88
2, 6681, Control_c, 0, 64, 127
2, 6696, Note_off_c, 0, 65, 64
2, 6697, Note_off_c, 0, 58, 64
2, 6698, Note_off_c, 0, 74, 64
2, 6747, Note_on_c, 0, 72, 69
2, 6747, Note_on_c, 0, 65, 41
2, 6747, Note_on_c, 0, 57, 38
2, 6780, Control_c, 0, 64, 56
2, 6783, Control_c, 0, 64, 0
2, 6808, Control_c, 0, 64, 72
2, 6812, Control_c, 0, 64, 127
2, 6813, Note_off_c, 0, 57, 64
2, 6830, Note_off_c, 0, 72, 64
2, 6836, Note_off_c, 0, 65, 64
2, 6917, Note_on_c, 0, 69, 69
2, 6917, Note_on_c, 0, 64, 52
2, 6917, Note_on_c, 0, 48, 52
2, 6917, Note_on_c, 0, 57, 46
2, 6927, Control_c, 0, 64, 88
2, 6933, Control_c, 0, 64, 0
2, 6953, Control_c, 0, 64, 56
2, 6956, Note_off_c, 0, 57, 64
2, 6958, Control_c, 0, 64, 127
2, 6972, Note_off_c, 0, 48, 64
2, 6978, Note_off_c, 0, 64, 64
2, 6987, Note_off_c, 0, 69, 64
2, 7021, Note_on_c, 0, 65, 64
2, 7021, Note_on_c, 0, 60, 38
2, 7021, Note_on_c, 0, 50, 40
2, 7021, Note_on_c, 0, 57, 45
2, 7055, Control_c, 0, 64, 56
2, 7060, Control_c, 0, 64, 0
2, 7093, Control_c, 0, 64, 56
2, 7095, Note_off_c, 0, 57, 64
2, 7095, Note_off_c, 0, 50, 64
2, 7098, Control_c, 0, 64, 127
2, 7110, Note_off_c, 0, 60, 64
2, 7123, Note_off_c, 0, 65, 64
2, 7198, Note_on_c, 0, 58, 44
2, 7198, Note_on_c, 0, 65, 55
2, 7198, Note_on_c, 0, 50, 45
2, 7198, Note_on_c, 0, 43, 44
2, 7198, Note_on_c, 0, 67, 70
2, 7211, Control_c, 0, 64, 72
2, 7215, Control_c, 0, 64, 0
2, 7240, Note_off_c, 0, 50, 64
2, 7240, Control_c, 0, 64, 72
2, 7243, Control_c, 0, 64, 127
2, 7250, Note_off_c, 0, 65, 64
2, 7257, Note_off_c, 0, 43, 64
2, 7260, Note_off_c, 0, 58, 64
2, 7262, Note_off_c, 0, 67, 64
2, 7315, Note_on_c, 0, 67, 63
2, 7315, Note_on_c, 0, 64, 58
2, 7315, Note_on_c, 0, 48, 59
2, 7315, Note_on_c, 0, 58, 34
2, 7341, Control_c, 0, 64, 56
2, 7346, Control_c, 0, 64, 0
2, 7373, Control_c, 0, 64, 40
2, 7378, Control_c, 0, 64, 127
2, 7418, Note_off_c, 0, 48, 64
2, 7422, Note_off_c, 0, 58, 64
2, 7430, Note_off_c, 0, 64, 64
2, 7501, Note_on_c, 0, 58, 27
2, 7501, Note_on_c, 0, 48, 48
2, 7501, Note_on_c, 0, 62, 39
2, 7515, Control_c, 0, 64, 56
2, 7520, Control_c, 0, 64, 0
2, 7538, Control_c, 0, 64, 40
2, 7543, Control_c, 0, 64, 104
2, 7546, Note_off_c, 0, 67, 64
2, 7548, Control_c, 0, 64, 127
2, 7552, Note_off_c, 0, 48, 64
2, 7558, Note_off_c, 0, 58, 64
2, 7571, Note_off_c, 0, 62, 64
2, 7612, Note_on_c, 0, 69, 65
2, 7612, Note_on_c, 0, 60, 44
2, 7612, Note_on_c, 0, 53, 37
2, 7612, Note_on_c, 0, 41, 39
2, 7636, Control_c, 0, 64, 88
2, 7641, Control_c, 0, 64, 24
2, 7646, Control_c, 0, 64, 0
2, 7670, Control_c, 0, 64, 40
2, 7675, Control_c, 0, 64, 104
2, 7678, Note_off_c, 0, 41, 64
2, 7678, Control_c, 0, 64, 127
2, 7701, Note_off_c, 0, 53, 64
2, 7708, Note_off_c, 0, 69, 64
2, 7727, Note_off_c, 0, 60, 64
2, 7782, Note_on_c, 0, 70, 62
2, 7782, Note_on_c, 0, 46, 39
2, 7782, Note_on_c, 0, 62, 43
2, 7782, Note_on_c, 0, 53, 40
2, 7791, Control_c, 0, 64, 104
2, 7795, Control_c, 0, 64, 24
2, 7801, Control_c, 0, 64, 0
2, 7816, Control_c, 0, 64, 40
2, 7817, Note_off_c, 0, 53, 64
2, 7820, Control_c, 0, 64, 127
2, 7822, Note_off_c, 0, 46, 64
2, 7831, Note_off_c, 0, 62, 64
2, 7840, Note_off_c, 0, 70, 64
2, 7885, Note_on_c, 0, 48, 41
2, 7885, Note_on_c, 0, 53, 33
2, 7885, Note_on_c, 0, 60, 45
2, 7885, Note_on_c, 0, 69, 63
2, 7907, Control_c, 0, 64, 72
2, 7911, Control_c, 0, 64, 0
2, 7941, Control_c, 0, 64, 88
2, 7946, Control_c, 0, 64, 127
2, 7961, Note_off_c, 0, 53, 64
2, 7967, Note_off_c, 0, 48, 64
2, 7998, Note_off_c, 0, 60, 64
2, 8002, Note_off_c, 0, 69, 64
2, 8047, Note_on_c, 0, 65, 61
2, 8047, Note_on_c, 0, 46, 39
2, 8047, Note_on_c, 0, 62, 41
2, 8047, Note_on_c, 0, 53, 33
2, 8052, Control_c, 0, 64, 104
2, 8057, Control_c, 0, 64, 24
2, 8062, Control_c, 0, 64, 0
2, 8076, Control_c, 0, 64, 24
2, 8077, Note_off_c, 0, 53, 64
2, 8081, Control_c, 0, 64, 88
2, 8086, Note_off_c, 0, 62, 64
2, 8086, Control_c, 0, 64, 127
2, 8090, Note_off_c, 0, 46, 64
2, 8113, Note_off_c, 0, 65, 64
2, 8150, Note_on_c, 0, 69, 60
2, 8150, Note_on_c, 0, 60, 45
2, 8150, Note_on_c, 0, 48, 37
2, 8150, Note_on_c, 0, 53, 33
2, 8163, Control_c, 0, 64, 104
2, 8168, Control_c, 0, 64, 0
2, 8192, Control_c, 0, 64, 56
2, 8197, Control_c, 0, 64, 127
2, 8222, Note_off_c, 0, 60, 64
2, 8230, Note_off_c, 0, 69, 64
2, 8233, Note_off_c, 0, 48, 64
2, 8242, Note_off_c, 0, 53, 64
2, 8317, Note_on_c, 0, 70, 59
2, 8317, Note_on_c, 0, 58, 34
2, 8317, Note_on_c, 0, 50, 43
2, 8317, Note_on_c, 0, 53, 29
2, 8323, Control_c, 0, 64, 56
2, 8328, Control_c, 0, 64, 0
2, 8342, Control_c, 0, 64, 56
2, 8347, Control_c, 0, 64, 104
2, 8352, Control_c, 0, 64, 127
2, 8353, Note_off_c, 0, 53, 64
2, 8356, Note_off_c, 0, 50, 64
2, 8358, Note_off_c, 0, 58, 64
2, 8376, Note_off_c, 0, 70, 64
2, 8425, Note_on_c, 0, 69, 59
2, 8425, Note_on_c, 0, 60, 41
2, 8425, Note_on_c, 0, 53, 29
2, 8425, Note_on_c, 0, 48, 33
2, 8450, Control_c, 0, 64, 40
2, 8453, Control_c, 0, 64, 0
2, 8483, Control_c, 0, 64, 104
2, 8488, Control_c, 0, 64, 127
2, 8527, Note_off_c, 0, 48, 64
2, 8531, Note_off_c, 0, 53, 64
2, 8552, Note_off_c, 0, 69, 64
2, 8561, Note_off_c, 0, 60, 64
2, 8568, Note_on_c, 0, 67, 54
2, 8600, Control_c, 0, 64, 88
2, 8601, Note_on_c, 0, 62, 44
2, 8601, Note_on_c, 0, 46, 35
2, 8601, Note_on_c, 0, 53, 24
2, 8601, Note_on_c, 0, 65, 57
2, 8602, Note_off_c, 0, 67, 64
2, 8605, Control_c, 0, 64, 0
2, 8628, Control_c, 0, 64, 72
2, 8633, Control_c, 0, 64, 127
2, 8642, Note_off_c, 0, 53, 64
2, 8656, Note_off_c, 0, 46, 64
2, 8671, Note_off_c, 0, 62, 64
2, 8673, Note_off_c, 0, 65, 64
2, 8698, Note_on_c, 0, 69, 67
2, 8698, Note_on_c, 0, 48, 55
2, 8698, Note_on_c, 0, 60, 49
2, 8698, Note_on_c, 0, 53, 35
2, 8721, Control_c, 0, 64, 88
2, 8726, Control_c, 0, 64, 0
2, 8760, Control_c, 0, 64, 88
2, 8765, Control_c, 0, 64, 127
2, 8772, Note_off_c, 0, 60, 64
2, 8788, Note_off_c, 0, 69, 64
2, 8793, Note_off_c, 0, 48, 64
2, 8795, Note_off_c, 0, 53, 64
2, 8860, Note_on_c, 0, 70, 67
2, 8863, Note_on_c, 0, 58, 40
2, 8870, Control_c, 0, 64, 56
2, 8871, Note_on_c, 0, 53, 41
2, 8872, Note_on_c, 0, 50, 42
2, 8875, Control_c, 0, 64, 0
2, 8890, Control_c, 0, 64, 24
2, 8895, Control_c, 0, 64, 72
2, 8898, Note_off_c, 0, 58, 64
2, 8900, Control_c, 0, 64, 127
2, 8903, Note_off_c, 0, 53, 64
2, 8907, Note_off_c, 0, 50, 64
2, 8918, Note_off_c, 0, 70, 64
2, 8967, Note_on_c, 0, 69, 72
2, 8967, Note_on_c, 0, 60, 51
2, 8967, Note_on_c, 0, 53, 37
2, 8967, Note_on_c, 0, 48, 51
2, 8991, Control_c, 0, 64, 56
2, 8996, Control_c, 0, 64, 0
2, 9021, Control_c, 0, 64, 72
2, 9025, Control_c, 0, 64, 127
2, 9026, Note_off_c, 0, 48, 64
2, 9038, Note_off_c, 0, 53, 64
2, 9065, Note_off_c, 0, 69, 64
2, 9078, Note_off_c, 0, 60, 64
2, 9093, Note_on_c, 0, 67, 60
2, 9121, Note_off_c, 0, 67, 64
2, 9130, Note_on_c, 0, 65, 72
2, 9130, Note_on_c, 0, 60, 53
2, 9130, Note_on_c, 0, 57, 42
2, 9130, Note_on_c, 0, 48, 47
2, 9137, Control_c, 0, 64, 104
2, 9141, Control_c, 0, 64, 0
2, 9166, Control_c, 0, 64, 40
2, 9170, Control_c, 0, 64, 104
2, 9171, Note_off_c, 0, 57, 64
2, 9172, Note_off_c, 0, 48, 64
2, 9176, Control_c, 0, 64, 127
2, 9187, Note_off_c, 0, 65, 64
2, 9202, Note_off_c, 0, 60, 64
2, 9237, Note_on_c, 0, 67, 70
2, 9237, Note_on_c, 0, 62, 60
2, 9237, Note_on_c, 0, 58, 34
2, 9237, Note_on_c, 0, 48, 49
2, 9262, Control_c, 0, 64, 104
2, 9267, Control_c, 0, 64, 40
2, 9272, Control_c, 0, 64, 0
2, 9302, Control_c, 0, 64, 88
2, 9307, Control_c, 0, 64, 127
2, 9318, Note_off_c, 0, 48, 64
2, 9332, Note_off_c, 0, 58, 64
2, 9356, Note_off_c, 0, 62, 64
2, 9418, Note_on_c, 0, 64, 41
2, 9418, Note_on_c, 0, 60, 36
2, 9418, Note_on_c, 0, 48, 53
2, 9418, Note_on_c, 0, 58, 27
2, 9427, Control_c, 0, 64, 72
2, 9432, Control_c, 0, 64, 0
2, 9452, Control_c, 0, 64, 24
2, 9456, Control_c, 0, 64, 88
2, 9461, Control_c, 0, 64, 127
2, 9462, Note_off_c, 0, 48, 64
2, 9477, Note_off_c, 0, 58, 64
2, 9481, Note_off_c, 0, 64, 64
2, 9482, Note_off_c, 0, 60, 64
2, 9488, Note_off_c, 0, 67, 64
2, 9538, Note_on_c, 0, 65, 52
2, 9538, Note_on_c, 0, 60, 36
2, 9538, Note_on_c, 0, 53, 39
2, 9538, Note_on_c, 0, 57, 28
2, 9563, Control_c, 0, 64, 104
2, 9567, Control_c, 0, 64, 40
2, 9572, Control_c, 0, 64, 0
2, 9616, Control_c, 0, 64, 72
2, 9621, Control_c, 0, 64, 127
2, 9623, Note_off_c, 0, 53, 64
2, 9626, Note_off_c, 0, 57, 64
2, 9636, Note_off_c, 0, 60, 64
2, 9726, Note_on_c, 0, 60, 26
2, 9726, Note_on_c, 0, 57, 22
2, 9726, Note_on_c, 0, 53, 24
2, 9733, Control_c, 0, 64, 104
2, 9737, Control_c, 0, 64, 40
2, 9742, Control_c, 0, 64, 0
2, 9752, Control_c, 0, 64, 24
2, 9757, Control_c, 0, 64, 72
2, 9761, Note_off_c, 0, 53, 64
2, 9762, Note_off_c, 0, 57, 64
2, 9762, Note_off_c, 0, 60, 64
2, 9762, Control_c, 0, 64, 127
2, 9772, Note_off_c, 0, 65, 64
2, 9878, Note_on_c, 0, 72, 82
2, 9878, Note_on_c, 0, 48, 40
2, 9878, Note_on_c, 0, 57, 31
2, 9878, Note_on_c, 0, 64, 56
2, 9902, Control_c, 0, 64, 24
2, 9907, Control_c, 0, 64, 0
2, 9936, Control_c, 0, 64, 88
2, 9938, Note_off_c, 0, 48, 64
2, 9941, Control_c, 0, 64, 127
2, 9943, Note_off_c, 0, 57, 64
2, 9953, Note_off_c, 0, 64, 64
2, 10045, Note_on_c, 0, 64, 54
2, 10045, Note_on_c, 0, 48, 46
2, 10045, Note_on_c, 0, 57, 26
2, 10071, Note_off_c, 0, 57, 64
2, 10075, Note_off_c, 0, 48, 64
2, 10082, Note_off_c, 0, 64, 64
2, 10143, Note_on_c, 0, 64, 47
2, 10143, Note_on_c, 0, 57, 35
2, 10143, Note_on_c, 0, 48, 37
2, 10158, Control_c, 0, 64, 88
2, 10163, Control_c, 0, 64, 0
2, 10182, Control_c, 0, 64, 56
2, 10187, Control_c, 0, 64, 127
2, 10233, Note_off_c, 0, 64, 64
2, 10235, Note_off_c, 0, 72, 64
2, 10261, Note_off_c, 0, 57, 64
2, 10266, Note_off_c, 0, 48, 64
2, 10297, Note_on_c, 0, 71, 70
2, 10297, Note_on_c, 0, 65, 47
2, 10297, Note_on_c, 0, 62, 40
2, 10297, Note_on_c, 0, 50, 44
2, 10298, Control_c, 0, 64, 56
2, 10303, Control_c, 0, 64, 0
2, 10322, Control_c, 0, 64, 72
2, 10328, Note_off_c, 0, 62, 64
2, 10328, Control_c, 0, 64, 127
2, 10338, Note_off_c, 0, 50, 64
2, 10345, Note_off_c, 0, 65, 64
2, 10363, Note_off_c, 0, 71, 64
2, 10367, Control_c, 0, 64, 0
2, 10382, Note_on_c, 0, 60, 58
2, 10385, Note_on_c, 0, 52, 42
2, 10386, Control_c, 0, 64, 24
2, 10391, Control_c, 0, 64, 104
2, 10396, Control_c, 0, 64, 127
2, 10408, Note_on_c, 0, 64, 58
2, 10425, Note_on_c, 0, 71, 64
2, 10455, Note_off_c, 0, 71, 64
2, 10455, Note_on_c, 0, 69, 79
2, 10492, Control_c, 0, 64, 104
2, 10497, Control_c, 0, 64, 0
2, 10521, Control_c, 0, 64, 72
2, 10526, Control_c, 0, 64, 127
2, 10531, Note_off_c, 0, 52, 64
2, 10537, Note_off_c, 0, 60, 64
2, 10563, Note_off_c, 0, 64, 64
2, 10576, Note_off_c, 0, 69, 64
2, 10620, Note_on_c, 0, 68, 65
2, 10620, Note_on_c, 0, 40, 41
2, 10620, Note_on_c, 0, 64, 53
2, 10620, Note_on_c, 0, 59, 52
2, 10632, Note_on_c, 0, 52, 39
2, 10637, Control_c, 0, 64, 24
2, 10642, Control_c, 0, 64, 0
2, 10657, Control_c, 0, 64, 40
2, 10660, Note_off_c, 0, 59, 64
2, 10661, Control_c, 0, 64, 127
2, 10666, Note_off_c, 0, 40, 64
2, 10671, Note_off_c, 0, 52, 64
2, 10676, Note_off_c, 0, 64, 64
2, 10698, Note_off_c, 0, 68, 64
2, 10732, Note_on_c, 0, 64, 51
2, 10732, Note_on_c, 0, 60, 47
2, 10732, Note_on_c, 0, 45, 41
2, 10732, Note_on_c, 0, 69, 71
2, 10740, Note_on_c, 0, 52, 33
2, 10763, Control_c, 0, 64, 56
2, 10768, Control_c, 0, 64, 0
2, 10798, Control_c, 0, 64, 104
2, 10802, Note_off_c, 0, 45, 64
2, 10802, Control_c, 0, 64, 127
2, 10808, Note_off_c, 0, 60, 64
2, 10812, Note_off_c, 0, 64, 64
2, 10812, Note_off_c, 0, 52, 64
2, 10821, Note_off_c, 0, 69, 64
2, 10906, Note_on_c, 0, 72, 89
2, 10906, Note_on_c, 0, 45, 45
2, 10906, Note_on_c, 0, 57, 47
2, 10906, Note_on_c, 0, 60, 60
2, 10906, Note_on_c, 0, 64, 64
2, 10913, Control_c, 0, 64, 88
2, 10918, Note_off_c, 0, 64, 64
2, 10918, Note_off_c, 0, 60, 64
2, 10918, Note_off_c, 0, 45, 64
2, 10918, Control_c, 0, 64, 40
2, 10923, Control_c, 0, 64, 72
2, 10928, Control_c, 0, 64, 127
2, 10935, Note_off_c, 0, 57, 64
2, 10940, Note_off_c, 0, 72, 64
2, 11010, Note_on_c, 0, 76, 87
2, 11010, Note_on_c, 0, 67, 63
2, 11010, Note_on_c, 0, 48, 50
2, 11010, Note_on_c, 0, 55, 47
2, 11010, Note_on_c, 0, 64, 58
2, 11026, Control_c, 0, 64, 104
2, 11030, Control_c, 0, 64, 40
2, 11035, Control_c, 0, 64, 0
2, 11058, Control_c, 0, 64, 56
2, 11063, Control_c, 0, 64, 127
2, 11075, Note_off_c, 0, 48, 64
2, 11085, Note_off_c, 0, 55, 64
2, 11098, Note_off_c, 0, 64, 64
2, 11116, Note_off_c, 0, 67, 64
2, 11118, Note_off_c, 0, 76, 64
2, 11171, Note_on_c, 0, 76, 89
2, 11171, Note_on_c, 0, 48, 46
2, 11171, Note_on_c, 0, 67, 64
2, 11171, Note_on_c, 0, 55, 30
2, 11171, Note_on_c, 0, 64, 58
2, 11171, Note_on_c, 0, 60, 29
2, 11192, Note_off_c, 0, 48, 64
2, 11196, Note_off_c, 0, 64, 64
2, 11197, Note_off_c, 0, 55, 64
2, 11203, Note_off_c, 0, 60, 64
2, 11205, Note_off_c, 0, 67, 64
2, 11231, Note_off_c, 0, 76, 64
2, 11272, Note_on_c, 0, 76, 89
2, 11272, Note_on_c, 0, 67, 69
2, 11272, Note_on_c, 0, 52, 47
2, 11272, Note_on_c, 0, 60, 40
2, 11311, Control_c, 0, 64, 56
2, 11316, Control_c, 0, 64, 0
2, 11340, Control_c, 0, 64, 72
2, 11345, Control_c, 0, 64, 127
2, 11348, Note_off_c, 0, 67, 64
2, 11362, Note_off_c, 0, 52, 64
2, 11368, Note_off_c, 0, 60, 64
2, 11373, Note_off_c, 0, 76, 64
2, 11422, Note_on_c, 0, 74, 79
2, 11422, Note_on_c, 0, 69, 62
2, 11422, Note_on_c, 0, 53, 53
2, 11422, Note_on_c, 0, 65, 47
2, 11432, Control_c, 0, 64, 56
2, 11436, Control_c, 0, 64, 0
2, 11456, Control_c, 0, 64, 56
2, 11460, Note_off_c, 0, 65, 64
2, 11461, Control_c, 0, 64, 127
2, 11476, Note_off_c, 0, 69, 64
2, 11477, Note_off_c, 0, 53, 64
2, 11493, Note_off_c, 0, 74, 64
2, 11495, Control_c, 0, 64, 56
2, 11500, Note_on_c, 0, 64, 66
2, 11500, Note_on_c, 0, 55, 52
2, 11500, Control_c, 0, 64, 0
2, 11518, Control_c, 0, 64, 56
2, 11523, Control_c, 0, 64, 127
2, 11530, Note_on_c, 0, 67, 66
2, 11546, Note_on_c, 0, 74, 72
2, 11576, Note_on_c, 0, 72, 81
2, 11577, Note_off_c, 0, 74, 64
2, 11611, Control_c, 0, 64, 56
2, 11616, Control_c, 0, 64, 0
2, 11645, Control_c, 0, 64, 56
2, 11650, Control_c, 0, 64, 127
2, 11652, Note_off_c, 0, 64, 64
2, 11667, Note_off_c, 0, 55, 64
2, 11680, Note_off_c, 0, 67, 64
2, 11708, Note_off_c, 0, 72, 64
2, 11741, Note_on_c, 0, 71, 69
2, 11741, Note_on_c, 0, 62, 39
2, 11741, Note_on_c, 0, 67, 41
2, 11741, Note_on_c, 0, 43, 47
2, 11753, Note_on_c, 0, 55, 39
2, 11755, Control_c, 0, 64, 104
2, 11761, Control_c, 0, 64, 0
2, 11780, Control_c, 0, 64, 40
2, 11782, Note_off_c, 0, 62, 64
2, 11783, Note_off_c, 0, 43, 64
2, 11785, Control_c, 0, 64, 104
2, 11788, Note_off_c, 0, 67, 64
2, 11790, Control_c, 0, 64, 127
2, 11793, Note_off_c, 0, 55, 64
2, 11830, Note_off_c, 0, 71, 64
2, 11853, Note_on_c, 0, 72, 64
2, 11853, Note_on_c, 0, 64, 44
2, 11853, Note_on_c, 0, 48, 40
2, 11853, Note_on_c, 0, 67, 41
2, 11853, Note_on_c, 0, 55, 30
2, 11882, Control_c, 0, 64, 104
2, 11887, Control_c, 0, 64, 40
2, 11892, Control_c, 0, 64, 0
2, 11922, Note_off_c, 0, 48, 64
2, 11925, Control_c, 0, 64, 88
2, 11931, Control_c, 0, 64, 127
2, 11941, Note_off_c, 0, 64, 64
2, 11943, Note_off_c, 0, 55, 64
2, 11962, Note_off_c, 0, 67, 64
2, 12032, Note_on_c, 0, 64, 36
2, 12032, Note_on_c, 0, 55, 34
2, 12032, Note_on_c, 0, 48, 32
2, 12035, Control_c, 0, 64, 104
2, 12041, Control_c, 0, 64, 24
2, 12047, Control_c, 0, 64, 0
2, 12058, Note_off_c, 0, 64, 64
2, 12061, Control_c, 0, 64, 56
2, 12062, Note_off_c, 0, 48, 64
2, 12066, Note_off_c, 0, 55, 64
2, 12066, Control_c, 0, 64, 127
2, 12073, Note_off_c, 0, 72, 64
2, 12170, Note_on_c, 0, 67, 32
2, 12170, Note_on_c, 0, 76, 55
2, 12170, Note_on_c, 0, 48, 38
2, 12170, Note_on_c, 0, 60, 1
2, 12182, Control_c, 0, 64, 40
2, 12187, Control_c, 0, 64, 0
2, 12197, Note_off_c, 0, 60, 64
2, 12206, Control_c, 0, 64, 88
2, 12211, Control_c, 0, 64, 127
2, 12211, Control_c, 0, 67, 127
2, 12227, Note_off_c, 0, 48, 64
2, 12242, Note_off_c, 0, 76, 64
2, 12251, Note_off_c, 0, 67, 64
2, 12333, Note_on_c, 0, 77, 70
2, 12333, Note_on_c, 0, 69, 51
2, 12333, Note_on_c, 0, 53, 35
2, 12333, Note_on_c, 0, 60, 31
2, 12347, Control_c, 0, 64, 40
2, 12351, Control_c, 0, 64, 0
2, 12356, Control_c, 0, 64, 24
2, 12361, Control_c, 0, 64, 72
2, 12365, Note_off_c, 0, 53, 64
2, 12366, Control_c, 0, 64, 127
2, 12370, Note_off_c, 0, 60, 64
2, 12373, Note_off_c, 0, 77, 64
2, 12397, Note_off_c, 0, 69, 64
2, 12435, Note_on_c, 0, 76, 62
2, 12435, Note_on_c, 0, 67, 36
2, 12435, Note_on_c, 0, 55, 36
2, 12435, Note_on_c, 0, 60, 36
2, 12458, Control_c, 0, 64, 104
2, 12463, Control_c, 0, 64, 40
2, 12467, Control_c, 0, 64, 0
2, 12492, Control_c, 0, 64, 88
2, 12496, Control_c, 0, 64, 127
2, 12520, Note_off_c, 0, 60, 64
2, 12523, Note_off_c, 0, 55, 64
2, 12545, Note_off_c, 0, 67, 64
2, 12555, Note_off_c, 0, 76, 64
2, 12602, Note_on_c, 0, 72, 66
2, 12602, Note_on_c, 0, 53, 44
2, 12602, Note_on_c, 0, 69, 52
2, 12602, Note_on_c, 0, 60, 35
2, 12608, Control_c, 0, 64, 72
2, 12612, Control_c, 0, 64, 0
2, 12628, Control_c, 0, 64, 24
2, 12633, Control_c, 0, 64, 88
2, 12636, Note_off_c, 0, 53, 64
2, 12637, Note_off_c, 0, 60, 64
2, 12637, Control_c, 0, 64, 127
2, 12641, Note_off_c, 0, 69, 64
2, 12658, Note_off_c, 0, 72, 64
2, 12703, Note_on_c, 0, 76, 65
2, 12703, Note_on_c, 0, 55, 49
2, 12703, Note_on_c, 0, 67, 40
2, 12703, Note_on_c, 0, 60, 39
2, 12728, Control_c, 0, 64, 72
2, 12735, Control_c, 0, 64, 0
2, 12750, Control_c, 0, 64, 24
2, 12753, Control_c, 0, 64, 72
2, 12758, Control_c, 0, 64, 127
2, 12778, Note_off_c, 0, 67, 64
2, 12792, Note_off_c, 0, 55, 64
2, 12798, Note_off_c, 0, 60, 64
2, 12842, Note_off_c, 0, 76, 64
2, 12870, Note_on_c, 0, 77, 71
2, 12870, Note_on_c, 0, 57, 36
2, 12870, Note_on_c, 0, 65, 43
2, 12880, Control_c, 0, 64, 56
2, 12882, Note_on_c, 0, 60, 27
2, 12885, Control_c, 0, 64, 0
2, 12898, Control_c, 0, 64, 40
2, 12902, Control_c, 0, 64, 88
2, 12906, Note_off_c, 0, 65, 64
2, 12907, Note_off_c, 0, 57, 64
2, 12908, Control_c, 0, 64, 127
2, 12915, Note_off_c, 0, 77, 64
2, 12918, Note_off_c, 0, 60, 64
2, 12972, Note_on_c, 0, 76, 65
2, 12972, Note_on_c, 0, 67, 44
2, 12972, Note_on_c, 0, 55, 31
2, 12972, Note_on_c, 0, 60, 25
2, 12981, Control_c, 0, 64, 88
2, 12986, Control_c, 0, 64, 0
2, 13015, Control_c, 0, 64, 88
2, 13020, Control_c, 0, 64, 127
2, 13053, Note_off_c, 0, 60, 64
2, 13066, Note_off_c, 0, 55, 64
2, 13072, Note_off_c, 0, 76, 64
2, 13101, Note_on_c, 0, 74, 68
2, 13102, Note_off_c, 0, 67, 64
2, 13132, Note_off_c, 0, 74, 64
2, 13137, Note_on_c, 0, 72, 70
2, 13137, Note_on_c, 0, 69, 43
2, 13137, Note_on_c, 0, 60, 39
2, 13137, Note_on_c, 0, 53, 39
2, 13146, Control_c, 0, 64, 104
2, 13151, Control_c, 0, 64, 24
2, 13155, Control_c, 0, 64, 0
2, 13170, Control_c, 0, 64, 40
2, 13172, Note_off_c, 0, 53, 64
2, 13175, Control_c, 0, 64, 104
2, 13176, Note_off_c, 0, 69, 64
2, 13178, Note_off_c, 0, 60, 64
2, 13180, Control_c, 0, 64, 127
2, 13202, Note_off_c, 0, 72, 64
2, 13240, Note_on_c, 0, 76, 74
2, 13240, Note_on_c, 0, 55, 29
2, 13240, Note_on_c, 0, 60, 35
2, 13240, Note_on_c, 0, 67, 53
2, 13252, Control_c, 0, 64, 56
2, 13257, Control_c, 0, 64, 0
2, 13281, Control_c, 0, 64, 40
2, 13286, Control_c, 0, 64, 127
2, 13307, Note_off_c, 0, 67, 64
2, 13313, Note_off_c, 0, 55, 64
2, 13320, Note_off_c, 0, 60, 64
2, 13363, Note_off_c, 0, 76, 64
2, 13392, Note_on_c, 0, 77, 77
2, 13392, Note_on_c, 0, 65, 52
2, 13392, Note_on_c, 0, 57, 37
2, 13392, Note_on_c, 0, 60, 34
2, 13403, Control_c, 0, 64, 56
2, 13407, Control_c, 0, 64, 0
2, 13422, Control_c, 0, 64, 72
2, 13423, Note_off_c, 0, 57, 64
2, 13426, Note_off_c, 0, 60, 64
2, 13427, Control_c, 0, 64, 127
2, 13433, Note_off_c, 0, 65, 64
2, 13445, Note_off_c, 0, 77, 64
2, 13495, Note_on_c, 0, 76, 73
2, 13495, Note_on_c, 0, 67, 51
2, 13495, Note_on_c, 0, 60, 37
2, 13495, Note_on_c, 0, 55, 36
2, 13513, Control_c, 0, 64, 72
2, 13518, Control_c, 0, 64, 0
2, 13538, Control_c, 0, 64, 24
2, 13543, Note_off_c, 0, 55, 64
2, 13543, Control_c, 0, 64, 88
2, 13548, Control_c, 0, 64, 127
2, 13562, Note_off_c, 0, 60, 64
2, 13583, Note_off_c, 0, 76, 64
2, 13595, Note_off_c, 0, 67, 64
2, 13616, Note_on_c, 0, 74, 66
2, 13640, Note_off_c, 0, 74, 64
2, 13652, Note_on_c, 0, 64, 50
2, 13652, Note_on_c, 0, 67, 48
2, 13652, Note_on_c, 0, 72, 78
2, 13652, Note_on_c, 0, 55, 33
2, 13660, Control_c, 0, 64, 104
2, 13665, Control_c, 0, 64, 24
2, 13668, Control_c, 0, 64, 0
2, 13676, Note_off_c, 0, 55, 64
2, 13683, Control_c, 0, 64, 72
2, 13687, Control_c, 0, 64, 127
2, 13691, Note_off_c, 0, 64, 64
2, 13708, Note_off_c, 0, 72, 64
2, 13715, Note_off_c, 0, 67, 64
2, 13758, Note_on_c, 0, 74, 79
2, 13758, Note_on_c, 0, 55, 33
2, 13758, Note_on_c, 0, 65, 41
2, 13758, Note_on_c, 0, 69, 63
2, 13790, Control_c, 0, 64, 104
2, 13793, Control_c, 0, 64, 40
2, 13800, Control_c, 0, 64, 0
2, 13820, Note_off_c, 0, 65, 64
2, 13823, Control_c, 0, 64, 88
2, 13826, Note_off_c, 0, 55, 64
2, 13828, Control_c, 0, 64, 127
2, 13832, Note_off_c, 0, 69, 64
2, 13931, Note_on_c, 0, 71, 50
2, 13931, Note_on_c, 0, 67, 39
2, 13931, Note_on_c, 0, 55, 49
2, 13931, Note_on_c, 0, 65, 37
2, 13950, Control_c, 0, 64, 72
2, 13955, Control_c, 0, 64, 24
2, 13958, Control_c, 0, 64, 0
2, 13960, Note_off_c, 0, 74, 64
2, 13961, Note_off_c, 0, 55, 64
2, 13963, Control_c, 0, 64, 40
2, 13970, Control_c, 0, 64, 88
2, 13973, Control_c, 0, 64, 127
2, 13982, Note_off_c, 0, 67, 64
2, 13985, Note_off_c, 0, 65, 64
2, 14010, Note_off_c, 0, 71, 64
2, 14053, Note_on_c, 0, 72, 69
2, 14053, Note_on_c, 0, 67, 54
2, 14053, Note_on_c, 0, 48, 39
2, 14053, Note_on_c, 0, 64, 41
2, 14090, Control_c, 0, 64, 104
2, 14095, Control_c, 0, 64, 24
2, 14100, Control_c, 0, 64, 0
2, 14128, Control_c, 0, 64, 72
2, 14133, Control_c, 0, 64, 127
2, 14141, Note_off_c, 0, 64, 64
2, 14143, Note_off_c, 0, 48, 64
2, 14228, Note_on_c, 0, 64, 41
2, 14228, Note_on_c, 0, 48, 43
2, 14250, Control_c, 0, 64, 72
2, 14255, Control_c, 0, 64, 0
2, 14261, Note_off_c, 0, 67, 64
2, 14265, Control_c, 0, 64, 40
2, 14268, Control_c, 0, 64, 88
2, 14273, Note_off_c, 0, 72, 64
2, 14273, Control_c, 0, 64, 127
2, 14278, Control_c, 0, 67, 0
2, 14282, Note_off_c, 0, 48, 64
2, 14295, Note_off_c, 0, 64, 64
2, 14356, Note_on_c, 0, 65, 47
2, 14356, Note_on_c, 0, 50, 44
2, 14356, Note_on_c, 0, 62, 55
2, 14356, Note_on_c, 0, 70, 64
2, 14380, Control_c, 0, 64, 88
2, 14385, Control_c, 0, 64, 0
2, 14415, Control_c, 0, 64, 40
2, 14418, Control_c, 0, 64, 104
2, 14420, Note_off_c, 0, 62, 64
2, 14423, Control_c, 0, 64, 127
2, 14438, Note_off_c, 0, 50, 64
2, 14452, Note_off_c, 0, 65, 64
2, 14515, Note_on_c, 0, 67, 45
2, 14515, Note_on_c, 0, 61, 30
2, 14515, Note_on_c, 0, 52, 42
2, 14531, Control_c, 0, 64, 104
2, 14535, Control_c, 0, 64, 24
2, 14540, Control_c, 0, 64, 0
2, 14550, Control_c, 0, 64, 24
2, 14555, Control_c, 0, 64, 72
2, 14560, Control_c, 0, 64, 127
2, 14586, Note_off_c, 0, 61, 64
2, 14605, Note_off_c, 0, 70, 64
2, 14611, Note_off_c, 0, 52, 64
2, 14633, Note_on_c, 0, 69, 65
2, 14633, Note_on_c, 0, 53, 32
2, 14633, Note_on_c, 0, 60, 31
2, 14656, Control_c, 0, 64, 72
2, 14661, Control_c, 0, 64, 0
2, 14682, Note_off_c, 0, 53, 64
2, 14691, Control_c, 0, 64, 56
2, 14696, Control_c, 0, 64, 127
2, 14697, Note_off_c, 0, 60, 64
2, 14715, Note_off_c, 0, 67, 64
2, 14721, Note_off_c, 0, 69, 64
2, 14800, Note_on_c, 0, 72, 76
2, 14800, Note_on_c, 0, 53, 41
2, 14800, Note_on_c, 0, 69, 42
2, 14800, Note_on_c, 0, 65, 41
2, 14800, Note_on_c, 0, 60, 36
2, 14816, Control_c, 0, 64, 56
2, 14821, Control_c, 0, 64, 0
2, 14827, Note_off_c, 0, 53, 64
2, 14836, Note_off_c, 0, 60, 64
2, 14836, Control_c, 0, 64, 40
2, 14838, Note_off_c, 0, 69, 64
2, 14841, Control_c, 0, 64, 88
2, 14845, Note_off_c, 0, 65, 64
2, 14845, Control_c, 0, 64, 127
2, 14858, Note_off_c, 0, 72, 64
2, 14903, Note_on_c, 0, 72, 80
2, 14903, Note_on_c, 0, 60, 33
2, 14903, Note_on_c, 0, 53, 37
2, 14903, Note_on_c, 0, 69, 48
2, 14903, Note_on_c, 0, 65, 49
2, 14918, Control_c, 0, 64, 72
2, 14923, Control_c, 0, 64, 0
2, 14942, Control_c, 0, 64, 24
2, 14947, Control_c, 0, 64, 88
2, 14952, Control_c, 0, 64, 127
2, 14973, Note_off_c, 0, 69, 64
2, 14973, Note_off_c, 0, 60, 64
2, 14975, Note_off_c, 0, 53, 64
2, 14977, Note_off_c, 0, 65, 64
2, 14995, Note_off_c, 0, 72, 64
2, 15071, Note_on_c, 0, 72, 76
2, 15071, Note_on_c, 0, 69, 63
2, 15071, Note_on_c, 0, 53, 33
2, 15071, Note_on_c, 0, 60, 29
2, 15098, Note_off_c, 0, 69, 64
2, 15101, Note_off_c, 0, 53, 64
2, 15105, Note_off_c, 0, 60, 64
2, 15106, Note_off_c, 0, 72, 64
2, 15180, Note_on_c, 0, 76, 76
2, 15180, Note_on_c, 0, 53, 29
2, 15180, Note_on_c, 0, 70, 46
2, 15180, Note_on_c, 0, 60, 40
2, 15198, Control_c, 0, 64, 104
2, 15203, Control_c, 0, 64, 0
2, 15227, Control_c, 0, 64, 40
2, 15232, Control_c, 0, 64, 127
2, 15237, Note_off_c, 0, 53, 64
2, 15242, Note_off_c, 0, 60, 64
2, 15277, Note_off_c, 0, 76, 64
2, 15280, Note_off_c, 0, 70, 64
2, 15300, Note_on_c, 0, 74, 70
2, 15325, Note_off_c, 0, 74, 64
2, 15336, Note_on_c, 0, 72, 81
2, 15336, Note_on_c, 0, 53, 39
2, 15336, Note_on_c, 0, 70, 58
2, 15336, Note_on_c, 0, 60, 34
2, 15343, Control_c, 0, 64, 104
2, 15348, Control_c, 0, 64, 24
2, 15353, Control_c, 0, 64, 0
2, 15363, Control_c, 0, 64, 40
2, 15366, Note_off_c, 0, 53, 64
2, 15367, Control_c, 0, 64, 104
2, 15370, Note_off_c, 0, 60, 64
2, 15373, Control_c, 0, 64, 127
2, 15377, Note_off_c, 0, 70, 64
2, 15393, Note_off_c, 0, 72, 64
2, 15440, Note_on_c, 0, 77, 81
2, 15440, Note_on_c, 0, 60, 36
2, 15440, Note_on_c, 0, 69, 56
2, 15440, Note_on_c, 0, 53, 40
2, 15470, Control_c, 0, 64, 72
2, 15475, Control_c, 0, 64, 0
2, 15500, Control_c, 0, 64, 88
2, 15503, Control_c, 0, 64, 127
2, 15505, Note_off_c, 0, 53, 64
2, 15512, Note_off_c, 0, 69, 64
2, 15512, Note_off_c, 0, 77, 64
2, 15513, Note_off_c, 0, 60, 64
2, 15611, Note_on_c, 0, 74, 74
2, 15611, Note_on_c, 0, 58, 43
2, 15611, Note_on_c, 0, 65, 54
2, 15620, Control_c, 0, 64, 56
2, 15625, Control_c, 0, 64, 0
2, 15643, Control_c, 0, 64, 88
2, 15648, Control_c, 0, 64, 127
2, 15663, Note_off_c, 0, 74, 64
2, 15666, Note_off_c, 0, 58, 64
2, 15667, Note_off_c, 0, 65, 64
2, 15713, Note_on_c, 0, 72, 70
2, 15713, Note_on_c, 0, 65, 44
2, 15713, Note_on_c, 0, 57, 40
2, 15746, Control_c, 0, 64, 104
2, 15751, Control_c, 0, 64, 24
2, 15756, Control_c, 0, 64, 0
2, 15770, Control_c, 0, 64, 56
2, 15775, Control_c, 0, 64, 127
2, 15790, Note_off_c, 0, 57, 64
2, 15792, Note_off_c, 0, 72, 64
2, 15803, Note_off_c, 0, 65, 64
2, 15880, Note_on_c, 0, 69, 68
2, 15880, Note_on_c, 0, 64, 53
2, 15880, Note_on_c, 0, 48, 52
2, 15880, Note_on_c, 0, 57, 31
2, 15896, Control_c, 0, 64, 56
2, 15901, Control_c, 0, 64, 0
2, 15910, Control_c, 0, 64, 40
2, 15915, Control_c, 0, 64, 104
2, 15920, Control_c, 0, 64, 127
2, 15925, Note_off_c, 0, 57, 64
2, 15926, Note_off_c, 0, 48, 64
2, 15950, Note_off_c, 0, 64, 64
2, 15951, Note_off_c, 0, 69, 64
2, 15985, Note_on_c, 0, 65, 65
2, 15985, Note_on_c, 0, 50, 47
2, 15985, Note_on_c, 0, 60, 38
2, 15985, Note_on_c, 0, 57, 36
2, 16022, Control_c, 0, 64, 40
2, 16026, Control_c, 0, 64, 0
2, 16046, Control_c, 0, 64, 56
2, 16051, Control_c, 0, 64, 127
2, 16057, Note_off_c, 0, 60, 64
2, 16058, Note_off_c, 0, 50, 64
2, 16060, Note_off_c, 0, 57, 64
2, 16068, Note_off_c, 0, 65, 64
2, 16157, Note_on_c, 0, 67, 67
2, 16157, Note_on_c, 0, 58, 39
2, 16157, Note_on_c, 0, 65, 59
2, 16157, Note_on_c, 0, 43, 49
2, 16157, Note_on_c, 0, 50, 41
2, 16176, Control_c, 0, 64, 56
2, 16182, Control_c, 0, 64, 0
2, 16201, Control_c, 0, 64, 72
2, 16202, Note_off_c, 0, 50, 64
2, 16206, Control_c, 0, 64, 127
2, 16215, Note_off_c, 0, 65, 64
2, 16218, Note_off_c, 0, 43, 64
2, 16226, Note_off_c, 0, 58, 64
2, 16228, Note_off_c, 0, 67, 64
2, 16281, Note_on_c, 0, 67, 62
2, 16281, Note_on_c, 0, 48, 42
2, 16281, Note_on_c, 0, 58, 42
2, 16281, Note_on_c, 0, 64, 57
2, 16317, Control_c, 0, 64, 88
2, 16322, Control_c, 0, 64, 0
2, 16351, Control_c, 0, 64, 104
2, 16356, Control_c, 0, 64, 127
2, 16381, Note_off_c, 0, 48, 64
2, 16395, Note_off_c, 0, 64, 64
2, 16397, Note_off_c, 0, 58, 64
2, 16461, Note_on_c, 0, 62, 43
2, 16461, Note_on_c, 0, 58, 30
2, 16461, Note_on_c, 0, 48, 47
2, 16477, Control_c, 0, 64, 56
2, 16481, Control_c, 0, 64, 0
2, 16486, Control_c, 0, 64, 24
2, 16491, Control_c, 0, 64, 72
2, 16496, Control_c, 0, 64, 127
2, 16502, Note_off_c, 0, 67, 64
2, 16503, Note_off_c, 0, 48, 64
2, 16510, Note_off_c, 0, 58, 64
2, 16538, Note_off_c, 0, 62, 64
2, 16568, Note_on_c, 0, 69, 64
2, 16568, Note_on_c, 0, 41, 33
2, 16568, Note_on_c, 0, 53, 29
2, 16568, Note_on_c, 0, 60, 46
2, 16593, Control_c, 0, 64, 56
2, 16597, Control_c, 0, 64, 0
2, 16622, Control_c, 0, 64, 88
2, 16626, Control_c, 0, 64, 127
2, 16632, Note_off_c, 0, 41, 64
2, 16646, Note_off_c, 0, 53, 64
2, 16655, Note_off_c, 0, 69, 64
2, 16661, Note_off_c, 0, 60, 64
2, 16726, Note_on_c, 0, 70, 62
2, 16726, Note_on_c, 0, 46, 40
2, 16726, Note_on_c, 0, 62, 47
2, 16726, Note_on_c, 0, 53, 38
2, 16738, Control_c, 0, 64, 88
2, 16742, Control_c, 0, 64, 24
2, 16747, Control_c, 0, 64, 0
2, 16758, Control_c, 0, 64, 40
2, 16762, Note_off_c, 0, 53, 64
2, 16763, Control_c, 0, 64, 104
2, 16767, Note_off_c, 0, 46, 64
2, 16767, Control_c, 0, 64, 127
2, 16778, Note_off_c, 0, 62, 64
2, 16788, Note_off_c, 0, 70, 64
2, 16831, Note_on_c, 0, 69, 70
2, 16831, Note_on_c, 0, 60, 52
2, 16831, Note_on_c, 0, 46, 36
2, 16831, Note_on_c, 0, 53, 43
2, 16865, Control_c, 0, 64, 104
2, 16867, Note_off_c, 0, 46, 64
2, 16870, Control_c, 0, 64, 40
2, 16875, Control_c, 0, 64, 0
2, 16893, Control_c, 0, 64, 56
2, 16898, Control_c, 0, 64, 127
2, 16900, Note_off_c, 0, 53, 64
2, 16942, Note_off_c, 0, 60, 64
2, 16955, Note_off_c, 0, 69, 64
2, 16990, Note_on_c, 0, 65, 60
2, 16990, Note_on_c, 0, 62, 40
2, 16990, Note_on_c, 0, 46, 38
2, 16990, Note_on_c, 0, 53, 36
2, 17010, Control_c, 0, 64, 40
2, 17015, Control_c, 0, 64, 0
2, 17025, Note_off_c, 0, 53, 64
2, 17027, Note_off_c, 0, 46, 64
2, 17027, Note_off_c, 0, 62, 64
2, 17028, Control_c, 0, 64, 72
2, 17033, Control_c, 0, 64, 127
2, 17052, Note_off_c, 0, 65, 64
2, 17091, Note_on_c, 0, 69, 65
2, 17091, Note_on_c, 0, 60, 46
2, 17091, Note_on_c, 0, 53, 31
2, 17091, Note_on_c, 0, 48, 37
2, 17126, Control_c, 0, 64, 56
2, 17131, Control_c, 0, 64, 0
2, 17150, Control_c, 0, 64, 24
2, 17155, Control_c, 0, 64, 88
2, 17156, Note_off_c, 0, 60, 64
2, 17160, Control_c, 0, 64, 127
2, 17173, Note_off_c, 0, 53, 64
2, 17175, Note_off_c, 0, 48, 64
2, 17180, Note_off_c, 0, 69, 64
2, 17248, Note_on_c, 0, 53, 33
2, 17248, Note_on_c, 0, 50, 36
2, 17248, Note_on_c, 0, 58, 34
2, 17248, Note_on_c, 0, 70, 62
2, 17266, Control_c, 0, 64, 72
2, 17271, Control_c, 0, 64, 0
2, 17281, Control_c, 0, 64, 40
2, 17285, Control_c, 0, 64, 88
2, 17286, Note_off_c, 0, 58, 64
2, 17288, Note_off_c, 0, 53, 64
2, 17290, Control_c, 0, 64, 127
2, 17293, Note_off_c, 0, 50, 64
2, 17313, Note_off_c, 0, 70, 64
2, 17358, Note_on_c, 0, 69, 65
2, 17358, Note_on_c, 0, 60, 39
2, 17358, Note_on_c, 0, 48, 41
2, 17358, Note_on_c, 0, 53, 42
2, 17387, Control_c, 0, 64, 88
2, 17392, Control_c, 0, 64, 0
2, 17411, Control_c, 0, 64, 40
2, 17416, Control_c, 0, 64, 88
2, 17421, Control_c, 0, 64, 127
2, 17436, Note_off_c, 0, 53, 64
2, 17441, Note_off_c, 0, 48, 64
2, 17450, Note_off_c, 0, 69, 64
2, 17468, Note_off_c, 0, 60, 64
2, 17480, Note_on_c, 0, 67, 55
2, 17506, Note_off_c, 0, 67, 64
2, 17516, Note_on_c, 0, 65, 59
2, 17516, Note_on_c, 0, 46, 31
2, 17516, Note_on_c, 0, 53, 32
2, 17516, Note_on_c, 0, 62, 45
2, 17532, Control_c, 0, 64, 40
2, 17537, Control_c, 0, 64, 0
2, 17552, Control_c, 0, 64, 24
2, 17557, Control_c, 0, 64, 72
2, 17561, Note_off_c, 0, 53, 64
2, 17561, Note_off_c, 0, 46, 64
2, 17562, Note_off_c, 0, 62, 64
2, 17562, Control_c, 0, 64, 127
2, 17583, Note_off_c, 0, 65, 64
2, 17620, Note_on_c, 0, 69, 62
2, 17620, Note_on_c, 0, 60, 49
2, 17620, Note_on_c, 0, 48, 41
2, 17620, Note_on_c, 0, 53, 44
2, 17648, Control_c, 0, 64, 72
2, 17653, Control_c, 0, 64, 0
2, 17678, Control_c, 0, 64, 40
2, 17682, Control_c, 0, 64, 104
2, 17687, Control_c, 0, 64, 127
2, 17693, Note_off_c, 0, 53, 64
2, 17697, Note_off_c, 0, 60, 64
2, 17707, Note_off_c, 0, 69, 64
2, 17710, Note_off_c, 0, 48, 64
2, 17781, Note_on_c, 0, 70, 62
2, 17781, Note_on_c, 0, 53, 40
2, 17781, Note_on_c, 0, 58, 44
2, 17781, Note_on_c, 0, 50, 42
2, 17790, Control_c, 0, 64, 88
2, 17795, Control_c, 0, 64, 0
2, 17803, Control_c, 0, 64, 24
2, 17808, Control_c, 0, 64, 72
2, 17810, Note_off_c, 0, 53, 64
2, 17812, Note_off_c, 0, 50, 64
2, 17813, Control_c, 0, 64, 127
2, 17818, Note_off_c, 0, 58, 64
2, 17833, Note_off_c, 0, 70, 64
2, 17881, Note_on_c, 0, 69, 69
2, 17881, Note_on_c, 0, 48, 37
2, 17881, Note_on_c, 0, 53, 33
2, 17881, Note_on_c, 0, 60, 46
2, 17906, Control_c, 0, 64, 40
2, 17911, Control_c, 0, 64, 0
2, 17927, Note_off_c, 0, 48, 64
2, 17928, Control_c, 0, 64, 56
2, 17935, Control_c, 0, 64, 127
2, 17937, Note_off_c, 0, 53, 64
2, 17968, Note_off_c, 0, 69, 64
2, 17978, Note_off_c, 0, 60, 64
2, 18006, Note_on_c, 0, 67, 61
2, 18030, Note_off_c, 0, 67, 64
2, 18041, Note_on_c, 0, 65, 65
2, 18041, Note_on_c, 0, 57, 46
2, 18041, Note_on_c, 0, 48, 45
2, 18041, Note_on_c, 0, 60, 46
2, 18055, Note_off_c, 0, 48, 64
2, 18056, Control_c, 0, 64, 104
2, 18060, Control_c, 0, 64, 24
2, 18065, Control_c, 0, 64, 0
2, 18080, Control_c, 0, 64, 40
2, 18081, Note_off_c, 0, 57, 64
2, 18085, Control_c, 0, 64, 104
2, 18088, Control_c, 0, 64, 127
2, 18098, Note_off_c, 0, 65, 64
2, 18112, Note_off_c, 0, 60, 64
2, 18155, Note_on_c, 0, 67, 70
2, 18155, Note_on_c, 0, 62, 57
2, 18155, Note_on_c, 0, 58, 35
2, 18155, Note_on_c, 0, 48, 42
2, 18196, Control_c, 0, 64, 104
2, 18201, Control_c, 0, 64, 24
2, 18205, Control_c, 0, 64, 0
2, 18225, Control_c, 0, 64, 40
2, 18226, Note_off_c, 0, 48, 64
2, 18230, Control_c, 0, 64, 127
2, 18247, Note_off_c, 0, 58, 64
2, 18273, Note_off_c, 0, 62, 64
2, 18341, Note_on_c, 0, 64, 43
2, 18341, Note_on_c, 0, 60, 29
2, 18341, Note_on_c, 0, 58, 25
2, 18341, Note_on_c, 0, 48, 38
2, 18361, Control_c, 0, 64, 88
2, 18366, Control_c, 0, 64, 0
2, 18383, Note_off_c, 0, 60, 64
2, 18387, Note_off_c, 0, 48, 64
2, 18390, Control_c, 0, 64, 72
2, 18395, Control_c, 0, 64, 127
2, 18396, Note_off_c, 0, 64, 64
2, 18400, Note_off_c, 0, 58, 64
2, 18403, Note_off_c, 0, 67, 64
2, 18486, Note_on_c, 0, 72, 80
2, 18486, Note_on_c, 0, 64, 55
2, 18486, Note_on_c, 0, 57, 38
2, 18486, Note_on_c, 0, 48, 45
2, 18520, Control_c, 0, 64, 56
2, 18525, Control_c, 0, 64, 0
2, 18553, Control_c, 0, 64, 40
2, 18556, Note_off_c, 0, 48, 64
2, 18558, Control_c, 0, 64, 127
2, 18563, Note_off_c, 0, 57, 64
2, 18566, Note_off_c, 0, 64, 64
2, 18643, Note_on_c, 0, 64, 44
2, 18643, Note_on_c, 0, 48, 43
2, 18643, Note_on_c, 0, 57, 33
2, 18665, Note_off_c, 0, 48, 64
2, 18675, Note_off_c, 0, 57, 64
2, 18677, Note_off_c, 0, 64, 64
2, 18740, Note_on_c, 0, 64, 46
2, 18740, Note_on_c, 0, 48, 40
2, 18740, Note_on_c, 0, 57, 36
2, 18786, Note_off_c, 0, 48, 64
2, 18791, Note_off_c, 0, 57, 64
2, 18818, Note_off_c, 0, 72, 64
2, 18841, Note_off_c, 0, 64, 64
2, 18887, Note_on_c, 0, 69, 71
2, 18887, Note_on_c, 0, 65, 55
2, 18887, Note_on_c, 0, 50, 39
2, 18887, Note_on_c, 0, 57, 39
2, 18907, Control_c, 0, 64, 72
2, 18912, Control_c, 0, 64, 0
2, 18925, Note_off_c, 0, 57, 64
2, 18928, Note_off_c, 0, 50, 64
2, 18932, Control_c, 0, 64, 40
2, 18933, Note_off_c, 0, 65, 64
2, 18937, Control_c, 0, 64, 104
2, 18942, Control_c, 0, 64, 127
2, 18966, Note_off_c, 0, 69, 64
2, 18987, Note_on_c, 0, 72, 75
2, 18987, Note_on_c, 0, 52, 41
2, 18987, Note_on_c, 0, 64, 42
2, 18987, Note_on_c, 0, 57, 41
2, 19023, Control_c, 0, 64, 88
2, 19028, Control_c, 0, 64, 24
2, 19033, Control_c, 0, 64, 0
2, 19048, Control_c, 0, 64, 24
2, 19053, Control_c, 0, 64, 88
2, 19058, Control_c, 0, 64, 127
2, 19065, Note_off_c, 0, 57, 64
2, 19070, Note_off_c, 0, 52, 64
2, 19110, Note_off_c, 0, 64, 64
2, 19116, Note_off_c, 0, 72, 64
2, 19145, Note_on_c, 0, 69, 70
2, 19145, Note_on_c, 0, 65, 54
2, 19145, Note_on_c, 0, 50, 42
2, 19145, Note_on_c, 0, 57, 40
2, 19165, Control_c, 0, 64, 56
2, 19170, Control_c, 0, 64, 0
2, 19181, Note_off_c, 0, 50, 64
2, 19182, Note_off_c, 0, 57, 64
2, 19183, Control_c, 0, 64, 88
2, 19188, Note_off_c, 0, 65, 64
2, 19188, Control_c, 0, 64, 127
2, 19215, Note_off_c, 0, 69, 64
2, 19240, Note_on_c, 0, 72, 74
2, 19240, Note_on_c, 0, 57, 33
2, 19240, Note_on_c, 0, 52, 36
2, 19240, Note_on_c, 0, 64, 47
2, 19276, Control_c, 0, 64, 56
2, 19281, Control_c, 0, 64, 0
2, 19300, Control_c, 0, 64, 56
2, 19303, Control_c, 0, 64, 127
2, 19310, Note_off_c, 0, 64, 64
2, 19317, Note_off_c, 0, 52, 64
2, 19326, Note_off_c, 0, 57, 64
2, 19357, Note_off_c, 0, 72, 64
2, 19395, Note_on_c, 0, 74, 79
2, 19395, Note_on_c, 0, 62, 51
2, 19395, Note_on_c, 0, 53, 42
2, 19395, Note_on_c, 0, 57, 43
2, 19406, Control_c, 0, 64, 72
2, 19411, Control_c, 0, 64, 0
2, 19421, Control_c, 0, 64, 24
2, 19426, Control_c, 0, 64, 72
2, 19428, Note_off_c, 0, 57, 64
2, 19428, Note_off_c, 0, 62, 64
2, 19430, Note_off_c, 0, 53, 64
2, 19431, Control_c, 0, 64, 127
2, 19443, Note_off_c, 0, 74, 64
2, 19488, Note_on_c, 0, 72, 76
2, 19488, Note_on_c, 0, 64, 49
2, 19488, Note_on_c, 0, 52, 42
2, 19488, Note_on_c, 0, 57, 43
2, 19517, Control_c, 0, 64, 40
2, 19522, Control_c, 0, 64, 0
2, 19537, Control_c, 0, 64, 24
2, 19542, Control_c, 0, 64, 88
2, 19547, Control_c, 0, 64, 127
2, 19576, Note_off_c, 0, 57, 64
2, 19586, Note_off_c, 0, 52, 64
2, 19590, Note_off_c, 0, 72, 64
2, 19615, Note_on_c, 0, 71, 66
2, 19622, Note_off_c, 0, 64, 64
2, 19646, Note_off_c, 0, 71, 64
2, 19656, Note_on_c, 0, 69, 62
2, 19656, Note_on_c, 0, 65, 48
2, 19656, Note_on_c, 0, 50, 42
2, 19656, Note_on_c, 0, 57, 30
2, 19662, Control_c, 0, 64, 104
2, 19667, Control_c, 0, 64, 40
2, 19672, Control_c, 0, 64, 0
2, 19692, Control_c, 0, 64, 24
2, 19696, Control_c, 0, 64, 88
2, 19701, Note_off_c, 0, 50, 64
2, 19701, Control_c, 0, 64, 127
2, 19703, Note_off_c, 0, 57, 64
2, 19708, Note_off_c, 0, 65, 64
2, 19731, Note_off_c, 0, 69, 64
2, 19766, Note_on_c, 0, 72, 63
2, 19766, Note_on_c, 0, 64, 39
2, 19766, Note_on_c, 0, 52, 43
2, 19766, Note_on_c, 0, 57, 43
2, 19798, Control_c, 0, 64, 72
2, 19803, Control_c, 0, 64, 0
2, 19832, Control_c, 0, 64, 72
2, 19837, Control_c, 0, 64, 127
2, 19845, Note_off_c, 0, 64, 64
2, 19853, Note_off_c, 0, 52, 64
2, 19855, Note_off_c, 0, 57, 64
2, 19878, Note_off_c, 0, 72, 64
2, 19923, Note_on_c, 0, 74, 75
2, 19923, Note_on_c, 0, 62, 60
2, 19923, Note_on_c, 0, 53, 41
2, 19923, Note_on_c, 0, 57, 42
2, 19932, Control_c, 0, 64, 72
2, 19938, Control_c, 0, 64, 0
2, 19948, Control_c, 0, 64, 40
2, 19951, Note_off_c, 0, 57, 64
2, 19952, Note_off_c, 0, 62, 64
2, 19953, Control_c, 0, 64, 88
2, 19956, Note_off_c, 0, 53, 64
2, 19958, Control_c, 0, 64, 127
2, 19968, Note_off_c, 0, 74, 64
2, 20020, Note_on_c, 0, 72, 74
2, 20020, Note_on_c, 0, 64, 54
2, 20020, Note_on_c, 0, 52, 42
2, 20020, Note_on_c, 0, 57, 41
2, 20031, Control_c, 0, 64, 72
2, 20036, Control_c, 0, 64, 0
2, 20050, Control_c, 0, 64, 24
2, 20055, Control_c, 0, 64, 72
2, 20060, Control_c, 0, 64, 127
2, 20078, Note_off_c, 0, 52, 64
2, 20090, Note_off_c, 0, 57, 64
2, 20102, Note_off_c, 0, 72, 64
2, 20123, Note_off_c, 0, 64, 64
2, 20140, Note_on_c, 0, 71, 62
2, 20163, Note_off_c, 0, 71, 64
2, 20177, Note_on_c, 0, 69, 74
2, 20177, Note_on_c, 0, 64, 47
2, 20177, Note_on_c, 0, 52, 40
2, 20177, Note_on_c, 0, 60, 40
2, 20191, Control_c, 0, 64, 40
2, 20196, Control_c, 0, 64, 0
2, 20206, Control_c, 0, 64, 72
2, 20210, Note_off_c, 0, 60, 64
2, 20210, Control_c, 0, 64, 127
2, 20212, Note_off_c, 0, 52, 64
2, 20213, Note_off_c, 0, 64, 64
2, 20217, Note_off_c, 0, 69, 64
2, 20285, Note_on_c, 0, 71, 65
2, 20285, Note_on_c, 0, 69, 59
2, 20285, Note_on_c, 0, 52, 44
2, 20285, Note_on_c, 0, 62, 42
2, 20285, Note_on_c, 0, 64, 53
2, 20326, Control_c, 0, 64, 40
2, 20330, Control_c, 0, 64, 0
2, 20351, Control_c, 0, 64, 72
2, 20355, Control_c, 0, 64, 127
2, 20361, Note_off_c, 0, 52, 64
2, 20382, Note_off_c, 0, 62, 64
2, 20387, Note_off_c, 0, 64, 64
2, 20392, Note_off_c, 0, 69, 64
2, 20458, Note_on_c, 0, 68, 45
2, 20458, Note_on_c, 0, 62, 37
2, 20458, Note_on_c, 0, 64, 36
2, 20458, Note_on_c, 0, 52, 53
2, 20481, Control_c, 0, 64, 56
2, 20486, Control_c, 0, 64, 0
2, 20490, Note_off_c, 0, 52, 64
2, 20496, Control_c, 0, 64, 56
2, 20500, Control_c, 0, 64, 127
2, 20511, Note_off_c, 0, 62, 64
2, 20513, Note_off_c, 0, 64, 64
2, 20525, Note_off_c, 0, 68, 64
2, 20535, Note_off_c, 0, 71, 64
2, 20575, Note_on_c, 0, 69, 61
2, 20575, Note_on_c, 0, 60, 43
2, 20575, Note_on_c, 0, 45, 50
2, 20575, Note_on_c, 0, 64, 45
2, 20575, Note_on_c, 0, 52, 44
2, 20607, Note_off_c, 0, 52, 64
2, 20611, Control_c, 0, 64, 104
2, 20616, Control_c, 0, 64, 24
2, 20621, Control_c, 0, 64, 0
2, 20646, Note_off_c, 0, 45, 64
2, 20646, Control_c, 0, 64, 40
2, 20651, Control_c, 0, 64, 127
2, 20656, Note_off_c, 0, 64, 64
2, 20665, Note_off_c, 0, 60, 64
2, 20757, Note_on_c, 0, 64, 38
2, 20757, Note_on_c, 0, 45, 34
2, 20757, Note_on_c, 0, 60, 36
2, 20772, Note_off_c, 0, 45, 64
2, 20772, Control_c, 0, 64, 88
2, 20777, Control_c, 0, 64, 56
2, 20781, Control_c, 0, 64, 72
2, 20786, Control_c, 0, 64, 104
2, 20791, Control_c, 0, 64, 127
2, 20793, Note_off_c, 0, 60, 64
2, 20793, Note_off_c, 0, 64, 64
2, 20806, Note_off_c, 0, 69, 64
2, 20910, Note_on_c, 0, 72, 78
2, 20910, Note_on_c, 0, 42, 43
2, 20910, Note_on_c, 0, 63, 40
2, 20910, Note_on_c, 0, 69, 54
2, 20941, Control_c, 0, 64, 104
2, 20946, Control_c, 0, 64, 0
2, 20970, Control_c, 0, 64, 72
2, 20975, Control_c, 0, 64, 127
2, 20977, Note_off_c, 0, 42, 64
2, 20980, Note_off_c, 0, 69, 64
2, 20982, Note_off_c, 0, 63, 64
2, 21087, Note_on_c, 0, 63, 40
2, 21087, Note_on_c, 0, 42, 42
2, 21106, Control_c, 0, 64, 104
2, 21116, Control_c, 0, 64, 127
2, 21121, Note_off_c, 0, 72, 64
2, 21133, Note_off_c, 0, 42, 64
2, 21133, Note_off_c, 0, 63, 64
2, 21200, Note_on_c, 0, 70, 63
2, 21200, Note_on_c, 0, 43, 45
2, 21200, Note_on_c, 0, 62, 40
2, 21200, Note_on_c, 0, 67, 44
2, 21232, Control_c, 0, 64, 72
2, 21237, Control_c, 0, 64, 0
2, 21256, Note_off_c, 0, 67, 64
2, 21261, Control_c, 0, 64, 72
2, 21266, Control_c, 0, 64, 127
2, 21278, Note_off_c, 0, 70, 64
2, 21281, Note_off_c, 0, 62, 64
2, 21296, Note_off_c, 0, 43, 64
2, 21345, Note_on_c, 0, 69, 68
2, 21345, Note_on_c, 0, 66, 40
2, 21345, Note_on_c, 0, 45, 42
2, 21345, Note_on_c, 0, 60, 51
2, 21361, Note_off_c, 0, 60, 64
2, 21361, Note_off_c, 0, 66, 64
2, 21370, Note_off_c, 0, 69, 64
2, 21375, Note_off_c, 0, 45, 64
2, 21388, Note_on_c, 0, 67, 68
2, 21388, Note_on_c, 0, 46, 50
2, 21388, Note_on_c, 0, 62, 56
2, 21411, Control_c, 0, 64, 72
2, 21415, Control_c, 0, 64, 0
2, 21440, Control_c, 0, 64, 56
2, 21443, Control_c, 0, 64, 127
2, 21450, Note_off_c, 0, 62, 64
2, 21463, Note_off_c, 0, 67, 64
2, 21478, Note_off_c, 0, 46, 64
2, 21498, Note_on_c, 0, 48, 44
2, 21498, Note_on_c, 0, 58, 39
2, 21498, Note_on_c, 0, 69, 71
2, 21498, Note_on_c, 0, 64, 51
2, 21551, Control_c, 0, 64, 40
2, 21556, Control_c, 0, 64, 0
2, 21576, Control_c, 0, 64, 56
2, 21581, Control_c, 0, 64, 127
2, 21593, Note_off_c, 0, 64, 64
2, 21606, Note_off_c, 0, 58, 64
2, 21632, Note_off_c, 0, 48, 64
2, 21673, Note_on_c, 0, 64, 51
2, 21673, Note_on_c, 0, 58, 39
2, 21673, Note_on_c, 0, 36, 40
2, 21682, Control_c, 0, 64, 56
2, 21687, Control_c, 0, 64, 0
2, 21688, Note_on_c, 0, 48, 42
2, 21692, Control_c, 0, 64, 24
2, 21697, Control_c, 0, 64, 56
2, 21701, Control_c, 0, 64, 104
2, 21706, Control_c, 0, 64, 127
2, 21720, Note_off_c, 0, 64, 64
2, 21728, Note_off_c, 0, 36, 64
2, 21731, Note_off_c, 0, 58, 64
2, 21747, Note_off_c, 0, 48, 64
2, 21752, Note_off_c, 0, 69, 64
2, 21791, Note_on_c, 0, 65, 56
2, 21791, Note_on_c, 0, 41, 42
2, 21791, Note_on_c, 0, 57, 43
2, 21805, Note_on_c, 0, 48, 42
2, 21817, Control_c, 0, 64, 104
2, 21822, Control_c, 0, 64, 24
2, 21826, Control_c, 0, 64, 0
2, 21861, Control_c, 0, 64, 72
2, 21862, Note_off_c, 0, 41, 64
2, 21865, Note_off_c, 0, 57, 64
2, 21866, Control_c, 0, 64, 127
2, 21885, Note_off_c, 0, 48, 64
2, 21975, Note_on_c, 0, 57, 38
2, 21975, Note_on_c, 0, 41, 34
2, 22001, Note_off_c, 0, 57, 64
2, 22013, Note_off_c, 0, 41, 64
2, 22013, Note_off_c, 0, 65, 64
2, 22133, Note_on_c, 0, 72, 62
2, 22133, Note_on_c, 0, 42, 51
2, 22133, Note_on_c, 0, 69, 49
2, 22133, Note_on_c, 0, 63, 34
2, 22171, Control_c, 0, 64, 88
2, 22176, Control_c, 0, 64, 0
2, 22205, Control_c, 0, 64, 72
2, 22208, Note_off_c, 0, 42, 64
2, 22210, Control_c, 0, 64, 127
2, 22218, Note_off_c, 0, 63, 64
2, 22227, Note_off_c, 0, 69, 64
2, 22312, Note_on_c, 0, 63, 39
2, 22312, Note_on_c, 0, 42, 36
2, 22340, Note_off_c, 0, 42, 64
2, 22346, Note_off_c, 0, 63, 64
2, 22353, Note_off_c, 0, 72, 64
2, 22403, Control_c, 0, 64, 104
2, 22408, Control_c, 0, 64, 0
2, 22410, Note_on_c, 0, 62, 51
2, 22413, Note_on_c, 0, 43, 45
2, 22422, Control_c, 0, 64, 56
2, 22427, Control_c, 0, 64, 104
2, 22432, Control_c, 0, 64, 127
2, 22438, Note_on_c, 0, 67, 53
2, 22462, Note_on_c, 0, 72, 66
2, 22498, Note_on_c, 0, 70, 65
2, 22501, Note_off_c, 0, 72, 64
2, 22533, Control_c, 0, 64, 0
2, 22540, Note_off_c, 0, 67, 64
2, 22553, Control_c, 0, 64, 24
2, 22558, Control_c, 0, 64, 88
2, 22562, Control_c, 0, 64, 127
2, 22578, Note_off_c, 0, 70, 64
2, 22580, Note_off_c, 0, 62, 64
2, 22621, Note_off_c, 0, 43, 64
2, 22646, Note_on_c, 0, 69, 63
2, 22646, Note_on_c, 0, 66, 48
2, 22646, Note_on_c, 0, 45, 44
2, 22646, Note_on_c, 0, 60, 49
2, 22675, Note_off_c, 0, 45, 64
2, 22676, Note_off_c, 0, 60, 64
2, 22676, Note_off_c, 0, 66, 64
2, 22681, Note_off_c, 0, 69, 64
2, 22691, Note_on_c, 0, 67, 64
2, 22691, Note_on_c, 0, 62, 59
2, 22691, Note_on_c, 0, 46, 42
2, 22703, Control_c, 0, 64, 72
2, 22707, Control_c, 0, 64, 0
2, 22732, Control_c, 0, 64, 56
2, 22737, Control_c, 0, 64, 127
2, 22741, Note_off_c, 0, 62, 64
2, 22757, Note_off_c, 0, 67, 64
2, 22787, Note_off_c, 0, 46, 64
2, 22798, Note_on_c, 0, 69, 62
2, 22798, Note_on_c, 0, 58, 32
2, 22798, Note_on_c, 0, 48, 43
2, 22798, Note_on_c, 0, 64, 44
2, 22833, Control_c, 0, 64, 104
2, 22840, Control_c, 0, 64, 0
2, 22868, Control_c, 0, 64, 72
2, 22873, Control_c, 0, 64, 127
2, 22877, Note_off_c, 0, 64, 64
2, 22892, Note_off_c, 0, 48, 64
2, 22901, Note_off_c, 0, 58, 64
2, 22965, Note_on_c, 0, 64, 44
2, 22965, Note_on_c, 0, 36, 47
2, 22965, Note_on_c, 0, 58, 39
2, 22965, Note_on_c, 0, 48, 45
2, 23002, Note_off_c, 0, 48, 64
2, 23003, Note_off_c, 0, 36, 64
2, 23007, Note_off_c, 0, 64, 64
2, 23015, Note_off_c, 0, 58, 64
2, 23035, Note_off_c, 0, 69, 64
2, 23071, Note_on_c, 0, 65, 54
2, 23071, Note_on_c, 0, 41, 39
2, 23071, Note_on_c, 0, 57, 37
2, 23071, Note_on_c, 0, 48, 35
2, 23101, Control_c, 0, 64, 72
2, 23105, Control_c, 0, 64, 0
2, 23130, Control_c, 0, 64, 40
2, 23135, Control_c, 0, 64, 127
2, 23141, Note_off_c, 0, 48, 64
2, 23147, Note_off_c, 0, 41, 64
2, 23157, Note_off_c, 0, 57, 64
2, 23198, Note_on_c, 0, 40, 52
2, 23207, Note_on_c, 0, 48, 26
2, 23217, Note_off_c, 0, 48, 64
2, 23221, Note_off_c, 0, 40, 64
2, 23240, Note_on_c, 0, 57, 55
2, 23240, Note_on_c, 0, 48, 48
2, 23240, Note_on_c, 0, 38, 51
2, 23255, Control_c, 0, 64, 40
2, 23260, Control_c, 0, 64, 0
2, 23265, Note_off_c, 0, 38, 64
2, 23268, Note_off_c, 0, 48, 64
2, 23275, Control_c, 0, 64, 72
2, 23277, Note_off_c, 0, 57, 64
2, 23280, Control_c, 0, 64, 127
2, 23312, Note_off_c, 0, 65, 64
2, 23353, Note_on_c, 0, 69, 55
2, 23353, Note_on_c, 0, 58, 29
2, 23353, Note_on_c, 0, 48, 40
2, 23353, Note_on_c, 0, 36, 41
2, 23353, Note_on_c, 0, 64, 51
2, 23386, Control_c, 0, 64, 72
2, 23391, Control_c, 0, 64, 0
2, 23420, Control_c, 0, 64, 72
2, 23425, Note_off_c, 0, 64, 64
2, 23425, Control_c, 0, 64, 127
2, 23436, Note_off_c, 0, 58, 64
2, 23517, Note_on_c, 0, 64, 29
2, 23517, Note_on_c, 0, 58, 28
2, 23517, Note_on_c, 0, 36, 42
2, 23535, Note_off_c, 0, 36, 64
2, 23547, Note_off_c, 0, 36, 64
2, 23547, Note_off_c, 0, 64, 64
2, 23547, Note_off_c, 0, 48, 64
2, 23563, Note_off_c, 0, 58, 64
2, 23576, Note_off_c, 0, 69, 64
2, 23622, Note_on_c, 0, 65, 55
2, 23622, Note_on_c, 0, 57, 38
2, 23622, Note_on_c, 0, 41, 33
2, 23622, Note_on_c, 0, 48, 35
2, 23637, Control_c, 0, 64, 104
2, 23642, Control_c, 0, 64, 24
2, 23647, Control_c, 0, 64, 0
2, 23667, Control_c, 0, 64, 56
2, 23672, Control_c, 0, 64, 127
2, 23703, Note_off_c, 0, 41, 64
2, 23717, Note_off_c, 0, 48, 64
2, 23721, Note_off_c, 0, 57, 64
2, 23743, Note_on_c, 0, 40, 48
2, 23763, Note_off_c, 0, 40, 64
2, 23773, Control_c, 0, 64, 72
2, 23778, Control_c, 0, 64, 40
2, 23781, Note_on_c, 0, 57, 42
2, 23781, Note_on_c, 0, 38, 49
2, 23781, Note_on_c, 0, 48, 36
2, 23783, Control_c, 0, 64, 56
2, 23788, Control_c, 0, 64, 88
2, 23792, Control_c, 0, 64, 127
2, 23800, Note_off_c, 0, 48, 64
2, 23807, Note_off_c, 0, 57, 64
2, 23808, Note_off_c, 0, 38, 64
2, 23838, Note_off_c, 0, 65, 64
2, 23890, Note_on_c, 0, 69, 55
2, 23890, Note_on_c, 0, 48, 40
2, 23890, Note_on_c, 0, 36, 42
2, 23890, Note_on_c, 0, 64, 42
2, 23890, Note_on_c, 0, 58, 26
2, 23933, Control_c, 0, 64, 88
2, 23937, Control_c, 0, 64, 0
2, 23962, Note_off_c, 0, 64, 64
2, 23967, Control_c, 0, 64, 40
2, 23968, Note_off_c, 0, 58, 64
2, 23972, Control_c, 0, 64, 127
2, 24052, Note_on_c, 0, 64, 29
2, 24052, Note_on_c, 0, 58, 27
2, 24052, Note_on_c, 0, 36, 40
2, 24057, Note_off_c, 0, 36, 64
2, 24071, Note_off_c, 0, 48, 64
2, 24082, Note_off_c, 0, 36, 64
2, 24087, Note_off_c, 0, 64, 64
2, 24100, Note_off_c, 0, 69, 64
2, 24102, Note_off_c, 0, 58, 64
2, 24157, Note_on_c, 0, 65, 53
2, 24157, Note_on_c, 0, 41, 29
2, 24157, Note_on_c, 0, 57, 33
2, 24157, Note_on_c, 0, 48, 32
2, 24190, Control_c, 0, 64, 56
2, 24195, Control_c, 0, 64, 0
2, 24217, Note_off_c, 0, 57, 64
2, 24223, Control_c, 0, 64, 24
2, 24228, Note_off_c, 0, 48, 64
2, 24228, Control_c, 0, 64, 72
2, 24230, Note_off_c, 0, 41, 64
2, 24233, Control_c, 0, 64, 127
2, 24243, Note_off_c, 0, 65, 64
2, 24332, Note_on_c, 0, 64, 45
2, 24332, Note_on_c, 0, 36, 38
2, 24332, Note_on_c, 0, 48, 43
2, 24332, Note_on_c, 0, 58, 32
2, 24332, Note_on_c, 0, 69, 62
2, 24335, Control_c, 0, 64, 104
2, 24340, Control_c, 0, 64, 24
2, 24343, Control_c, 0, 64, 0
2, 24368, Control_c, 0, 64, 56
2, 24373, Note_off_c, 0, 64, 64
2, 24373, Control_c, 0, 64, 127
2, 24388, Note_off_c, 0, 36, 64
2, 24395, Note_off_c, 0, 58, 64
2, 24395, Note_off_c, 0, 48, 64
2, 24410, Note_off_c, 0, 69, 64
2, 24443, Note_on_c, 0, 41, 40
2, 24443, Note_on_c, 0, 48, 38
2, 24443, Note_on_c, 0, 57, 41
2, 24443, Note_on_c, 0, 65, 57
2, 24471, Control_c, 0, 64, 104
2, 24476, Control_c, 0, 64, 56
2, 24481, Control_c, 0, 64, 0
2, 24513, Control_c, 0, 64, 72
2, 24515, Note_off_c, 0, 57, 64
2, 24518, Control_c, 0, 64, 127
2, 24522, Note_off_c, 0, 48, 64
2, 24526, Note_off_c, 0, 41, 64
2, 24546, Note_off_c, 0, 65, 64
2, 24636, Note_on_c, 0, 69, 41
2, 24636, Note_on_c, 0, 48, 30
2, 24636, Note_on_c, 0, 58, 22
2, 24636, Note_on_c, 0, 36, 34
2, 24636, Note_on_c, 0, 64, 40
2, 24650, Control_c, 0, 64, 72
2, 24655, Control_c, 0, 64, 0
2, 24673, Control_c, 0, 64, 40
2, 24678, Control_c, 0, 64, 127
2, 24687, Note_off_c, 0, 64, 64
2, 24692, Note_off_c, 0, 36, 64
2, 24696, Note_off_c, 0, 58, 64
2, 24696, Note_off_c, 0, 48, 64
2, 24711, Note_off_c, 0, 69, 64
2, 24751, Note_on_c, 0, 41, 26
2, 24751, Note_on_c, 0, 65, 47
2, 24751, Note_on_c, 0, 48, 26
2, 24751, Note_on_c, 0, 57, 31
2, 24775, Control_c, 0, 64, 104
2, 24780, Control_c, 0, 64, 56
2, 24785, Control_c, 0, 64, 0
2, 24801, Note_off_c, 0, 57, 64
2, 24815, Control_c, 0, 64, 40
2, 24817, Note_off_c, 0, 48, 64
2, 24820, Control_c, 0, 64, 104
2, 24825, Control_c, 0, 64, 127
2, 24831, Note_off_c, 0, 41, 64
2, 24845, Note_off_c, 0, 65, 64
2, 24948, Note_on_c, 0, 69, 47
2, 24948, Note_on_c, 0, 58, 25
2, 24948, Note_on_c, 0, 36, 36
2, 24948, Note_on_c, 0, 64, 27
2, 24955, Control_c, 0, 64, 104
2, 24958, Note_on_c, 0, 48, 33
2, 24958, Control_c, 0, 64, 24
2, 24963, Control_c, 0, 64, 0
2, 24973, Control_c, 0, 64, 24
2, 24978, Control_c, 0, 64, 88
2, 24983, Control_c, 0, 64, 127
2, 24996, Note_off_c, 0, 64, 64
2, 25000, Note_off_c, 0, 36, 64
2, 25007, Note_off_c, 0, 58, 64
2, 25011, Note_off_c, 0, 48, 64
2, 25015, Note_off_c, 0, 69, 64
2, 25068, Note_on_c, 0, 65, 46
2, 25068, Note_on_c, 0, 57, 30
2, 25068, Note_on_c, 0, 41, 31
2, 25068, Note_on_c, 0, 48, 30
2, 25090, Control_c, 0, 64, 56
2, 25095, Control_c, 0, 64, 0
2, 25118, Control_c, 0, 64, 56
2, 25123, Control_c, 0, 64, 127
2, 25142, Note_off_c, 0, 57, 64
2, 25153, Note_off_c, 0, 48, 64
2, 25166, Note_off_c, 0, 41, 64
2, 25177, Note_off_c, 0, 65, 64
2, 25347, Note_on_c, 0, 69, 42
2, 25347, Note_on_c, 0, 48, 26
2, 25347, Note_on_c, 0, 36, 28
2, 25347, Note_on_c, 0, 58, 28
2, 25347, Note_on_c, 0, 64, 32
2, 25375, Control_c, 0, 64, 56
2, 25381, Control_c, 0, 64, 0
2, 25405, Control_c, 0, 64, 40
2, 25408, Control_c, 0, 64, 104
2, 25413, Control_c, 0, 64, 127
2, 25421, Note_off_c, 0, 64, 64
2, 25425, Note_off_c, 0, 58, 64
2, 25431, Note_off_c, 0, 69, 64
2, 25483, Note_off_c, 0, 48, 64
2, 25508, Note_off_c, 0, 36, 64
2, 25816, Note_on_c, 0, 29, 35
2, 25850, Control_c, 0, 64, 40
2, 25855, Control_c, 0, 64, 0
2, 25875, Control_c, 0, 64, 72
2, 25880, Control_c, 0, 64, 127
2, 25990, Note_on_c, 0, 41, 33
2, 26002, Note_off_c, 0, 29, 64
2, 26022, Note_off_c, 0, 41, 64
2, 26106, Note_on_c, 0, 48, 40
2, 26207, Note_on_c, 0, 53, 51
2, 26293, Note_on_c, 0, 57, 43
2, 26390, Note_on_c, 0, 60, 54
2, 26468, Note_off_c, 0, 57, 64
2, 26490, Note_on_c, 0, 65, 48
2, 26536, Note_off_c, 0, 60, 64
2, 26546, Note_off_c, 0, 65, 64
2, 26623, Note_on_c, 0, 69, 58
2, 26720, Note_off_c, 0, 69, 64
2, 26788, Note_on_c, 0, 69, 48
2, 26833, Note_off_c, 0, 69, 64
2, 26945, Note_off_c, 0, 48, 64
2, 26950, Note_off_c, 0, 53, 64
2, 26966, Note_on_c, 0, 69, 38
2, 26996, Note_off_c, 0, 69, 64
2, 27168, Note_on_c, 0, 69, 29
2, 27195, Note_off_c, 0, 69, 64
2, 27367, Note_on_c, 0, 69, 21
2, 27422, Note_off_c, 0, 69, 64
2, 27670, Note_on_c, 0, 69, 12
2, 27738, Note_off_c, 0, 69, 64
2, 27996, Note_on_c, 0, 33, 73
2, 27997, Note_on_c, 0, 93, 109
2, 27998, Note_on_c, 0, 45, 100
2, 27998, Note_on_c, 0, 89, 92
2, 28007, Control_c, 0, 64, 127
2, 28011, Note_off_c, 0, 33, 64
2, 28015, Note_off_c, 0, 45, 64
2, 28035, Note_off_c, 0, 93, 64
2, 28037, Note_off_c, 0, 89, 64
2, 28040, Note_on_c, 0, 88, 92
2, 28075, Note_on_c, 0, 84, 82
2, 28076, Note_off_c, 0, 88, 64
2, 28080, Note_on_c, 0, 52, 72
2, 28081, Note_on_c, 0, 40, 61
2, 28087, Note_off_c, 0, 40, 64
2, 28095, Note_off_c, 0, 52, 64
2, 28108, Note_on_c, 0, 81, 79
2, 28110, Note_off_c, 0, 84, 64
2, 28125, Note_off_c, 0, 81, 64
2, 28145, Note_on_c, 0, 81, 70
2, 28146, Note_on_c, 0, 77, 74
2, 28150, Note_on_c, 0, 47, 69
2, 28152, Note_on_c, 0, 59, 61
2, 28163, Note_off_c, 0, 81, 64
2, 28165, Note_off_c, 0, 47, 64
2, 28165, Note_off_c, 0, 77, 64
2, 28177, Note_off_c, 0, 59, 64
2, 28177, Note_on_c, 0, 76, 86
2, 28210, Note_off_c, 0, 76, 64
2, 28210, Note_on_c, 0, 72, 89
2, 28213, Note_on_c, 0, 60, 87
2, 28215, Note_on_c, 0, 48, 90
2, 28221, Control_c, 0, 64, 56
2, 28225, Control_c, 0, 64, 0
2, 28242, Control_c, 0, 64, 72
2, 28246, Note_on_c, 0, 69, 82
2, 28246, Control_c, 0, 64, 127
2, 28247, Note_off_c, 0, 72, 64
2, 28265, Note_off_c, 0, 69, 64
2, 28267, Note_off_c, 0, 48, 64
2, 28270, Note_off_c, 0, 60, 64
2, 28285, Note_on_c, 0, 69, 60
2, 28287, Note_on_c, 0, 65, 48
2, 28300, Note_off_c, 0, 65, 64
2, 28301, Note_off_c, 0, 69, 64
2, 28317, Note_on_c, 0, 64, 78
2, 28342, Note_off_c, 0, 64, 64
2, 28355, Note_on_c, 0, 60, 57
2, 28385, Note_off_c, 0, 60, 64
2, 28392, Note_on_c, 0, 57, 46
2, 28403, Note_off_c, 0, 57, 64
2, 28410, Control_c, 0, 64, 104
2, 28413, Control_c, 0, 64, 40
2, 28418, Control_c, 0, 64, 0
2, 28426, Note_on_c, 0, 53, 58
2, 28428, Note_on_c, 0, 56, 62
2, 28438, Control_c, 0, 64, 56
2, 28443, Note_off_c, 0, 53, 64
2, 28443, Control_c, 0, 64, 104
2, 28447, Control_c, 0, 64, 127
2, 28448, Note_off_c, 0, 56, 64
2, 28461, Note_on_c, 0, 68, 61
2, 28463, Note_on_c, 0, 50, 63
2, 28468, Note_on_c, 0, 59, 36
2, 28477, Note_off_c, 0, 59, 64
2, 28483, Note_off_c, 0, 68, 64
2, 28487, Note_off_c, 0, 50, 64
2, 28496, Note_on_c, 0, 59, 60
2, 28500, Note_on_c, 0, 45, 64
2, 28507, Note_off_c, 0, 45, 64
2, 28516, Note_off_c, 0, 59, 64
2, 28533, Note_on_c, 0, 56, 55
2, 28533, Note_on_c, 0, 62, 64
2, 28536, Note_on_c, 0, 71, 65
2, 28542, Note_off_c, 0, 62, 64
2, 28551, Note_off_c, 0, 71, 64
2, 28557, Note_off_c, 0, 56, 64
2, 28568, Note_on_c, 0, 62, 84
2, 28572, Note_on_c, 0, 53, 56
2, 28586, Note_off_c, 0, 62, 64
2, 28595, Note_off_c, 0, 53, 64
2, 28603, Note_on_c, 0, 74, 88
2, 28605, Note_on_c, 0, 66, 58
2, 28610, Note_on_c, 0, 45, 64
2, 28621, Note_off_c, 0, 45, 64
2, 28623, Note_off_c, 0, 66, 64
2, 28625, Note_off_c, 0, 74, 64
2, 28636, Note_on_c, 0, 65, 81
2, 28645, Note_on_c, 0, 59, 64
2, 28660, Note_off_c, 0, 65, 64
2, 28665, Note_off_c, 0, 59, 64
2, 28671, Note_on_c, 0, 68, 62
2, 28675, Note_on_c, 0, 77, 82
2, 28681, Note_on_c, 0, 76, 43
2, 28685, Note_on_c, 0, 45, 72
2, 28687, Note_off_c, 0, 68, 64
2, 28688, Note_off_c, 0, 76, 64
2, 28688, Note_off_c, 0, 77, 64
2, 28691, Note_off_c, 0, 45, 64
2, 28711, Note_on_c, 0, 68, 95
2, 28715, Note_on_c, 0, 62, 67
2, 28722, Note_off_c, 0, 62, 64
2, 28728, Note_off_c, 0, 68, 64
2, 28743, Note_on_c, 0, 80, 88
2, 28745, Note_on_c, 0, 71, 83
2, 28760, Note_off_c, 0, 71, 64
2, 28770, Note_off_c, 0, 80, 64
2, 28780, Note_on_c, 0, 71, 78
2, 28801, Note_off_c, 0, 71, 64
2, 28815, Note_on_c, 0, 83, 89
2, 28815, Note_on_c, 0, 74, 81
2, 28822, Note_off_c, 0, 74, 64
2, 28831, Note_off_c, 0, 83, 64
2, 28863, Control_c, 0, 64, 72
2, 28867, Control_c, 0, 64, 0
2, 28882, Note_on_c, 0, 93, 103
2, 28883, Note_on_c, 0, 89, 94
2, 28883, Note_on_c, 0, 33, 72
2, 28885, Note_on_c, 0, 45, 100
2, 28897, Control_c, 0, 64, 104
2, 28898, Note_off_c, 0, 33, 64
2, 28901, Control_c, 0, 64, 127
2, 28902, Note_off_c, 0, 45, 64
2, 28908, Note_off_c, 0, 93, 64
2, 28912, Note_off_c, 0, 89, 64
2, 28921, Note_on_c, 0, 88, 88
2, 28952, Note_off_c, 0, 88, 64
2, 28955, Note_on_c, 0, 84, 84
2, 28963, Note_on_c, 0, 52, 82
2, 28965, Note_on_c, 0, 40, 64
2, 28972, Note_off_c, 0, 40, 64
2, 28980, Note_off_c, 0, 52, 64
2, 28987, Note_off_c, 0, 84, 64
2, 28987, Note_on_c, 0, 81, 81
2, 29007, Note_off_c, 0, 81, 64
2, 29025, Note_on_c, 0, 81, 72
2, 29027, Note_on_c, 0, 77, 80
2, 29031, Note_on_c, 0, 59, 76
2, 29032, Note_on_c, 0, 47, 71
2, 29046, Note_off_c, 0, 77, 64
2, 29046, Note_off_c, 0, 81, 64
2, 29048, Note_off_c, 0, 47, 64
2, 29051, Note_off_c, 0, 59, 64
2, 29058, Note_on_c, 0, 76, 89
2, 29088, Note_on_c, 0, 72, 85
2, 29090, Note_off_c, 0, 76, 64
2, 29093, Note_on_c, 0, 60, 82
2, 29096, Note_on_c, 0, 48, 82
2, 29102, Control_c, 0, 64, 104
2, 29106, Control_c, 0, 64, 24
2, 29111, Control_c, 0, 64, 0
2, 29126, Note_off_c, 0, 72, 64
2, 29126, Note_on_c, 0, 69, 75
2, 29127, Control_c, 0, 64, 24
2, 29131, Control_c, 0, 64, 88
2, 29136, Control_c, 0, 64, 127
2, 29146, Note_off_c, 0, 69, 64
2, 29166, Note_off_c, 0, 48, 64
2, 29166, Note_on_c, 0, 69, 56
2, 29168, Note_off_c, 0, 60, 64
2, 29168, Note_on_c, 0, 65, 59
2, 29186, Note_off_c, 0, 69, 64
2, 29191, Note_off_c, 0, 65, 64
2, 29200, Note_on_c, 0, 64, 74
2, 29223, Note_off_c, 0, 64, 64
2, 29233, Note_on_c, 0, 60, 53
2, 29260, Note_off_c, 0, 60, 64
2, 29272, Note_on_c, 0, 57, 48
2, 29285, Note_off_c, 0, 57, 64
2, 29303, Control_c, 0, 64, 40
2, 29308, Control_c, 0, 64, 0
2, 29312, Note_on_c, 0, 59, 70
2, 29316, Note_on_c, 0, 56, 38
2, 29328, Control_c, 0, 64, 72
2, 29331, Note_off_c, 0, 59, 64
2, 29333, Control_c, 0, 64, 127
2, 29341, Note_off_c, 0, 56, 64
2, 29353, Note_on_c, 0, 71, 65
2, 29356, Note_on_c, 0, 62, 29
2, 29357, Note_on_c, 0, 53, 46
2, 29363, Note_off_c, 0, 62, 64
2, 29370, Note_off_c, 0, 71, 64
2, 29371, Note_off_c, 0, 53, 64
2, 29385, Note_on_c, 0, 62, 73
2, 29392, Note_on_c, 0, 45, 63
2, 29401, Note_off_c, 0, 45, 64
2, 29403, Note_off_c, 0, 62, 64
2, 29421, Note_on_c, 0, 65, 69
2, 29425, Note_on_c, 0, 74, 58
2, 29426, Note_on_c, 0, 59, 53
2, 29437, Note_off_c, 0, 74, 64
2, 29438, Note_off_c, 0, 65, 64
2, 29447, Note_off_c, 0, 59, 64
2, 29452, Note_on_c, 0, 65, 88
2, 29457, Note_on_c, 0, 53, 54
2, 29477, Note_off_c, 0, 65, 64
2, 29488, Note_on_c, 0, 77, 88
2, 29490, Note_off_c, 0, 53, 64
2, 29490, Note_on_c, 0, 68, 46
2, 29492, Note_on_c, 0, 45, 72
2, 29497, Note_off_c, 0, 68, 64
2, 29506, Note_off_c, 0, 77, 64
2, 29507, Note_off_c, 0, 45, 64
2, 29522, Note_on_c, 0, 68, 88
2, 29527, Note_on_c, 0, 62, 70
2, 29541, Note_off_c, 0, 68, 64
2, 29542, Note_off_c, 0, 62, 64
2, 29558, Note_on_c, 0, 80, 84
2, 29560, Note_on_c, 0, 71, 68
2, 29567, Note_off_c, 0, 71, 64
2, 29567, Note_on_c, 0, 45, 66
2, 29575, Note_off_c, 0, 45, 64
2, 29578, Note_off_c, 0, 80, 64
2, 29593, Note_on_c, 0, 71, 99
2, 29595, Note_on_c, 0, 65, 70
2, 29605, Note_off_c, 0, 65, 64
2, 29615, Note_off_c, 0, 71, 64
2, 29627, Note_on_c, 0, 74, 81
2, 29628, Note_on_c, 0, 83, 87
2, 29641, Note_off_c, 0, 74, 64
2, 29651, Note_off_c, 0, 83, 64
2, 29665, Note_on_c, 0, 74, 96
2, 29685, Note_off_c, 0, 74, 64
2, 29696, Note_on_c, 0, 77, 81
2, 29698, Note_on_c, 0, 86, 92
2, 29703, Note_off_c, 0, 77, 64
2, 29711, Note_off_c, 0, 86, 64
2, 29756, Control_c, 0, 64, 104
2, 29761, Control_c, 0, 64, 24
2, 29766, Control_c, 0, 64, 0
2, 29768, Note_on_c, 0, 93, 100
2, 29768, Note_on_c, 0, 100, 100
2, 29768, Note_on_c, 0, 45, 90
2, 29768, Note_on_c, 0, 33, 77
2, 29785, Note_off_c, 0, 33, 64
2, 29788, Note_off_c, 0, 45, 64
2, 29791, Control_c, 0, 64, 127
2, 29801, Note_off_c, 0, 100, 64
2, 29803, Note_off_c, 0, 93, 64
2, 29815, Note_on_c, 0, 96, 84
2, 29843, Note_off_c, 0, 96, 64
2, 29851, Note_on_c, 0, 93, 87
2, 29857, Note_on_c, 0, 52, 77
2, 29858, Note_on_c, 0, 40, 68
2, 29870, Note_off_c, 0, 40, 64
2, 29876, Note_off_c, 0, 52, 64
2, 29878, Note_off_c, 0, 93, 64
2, 29886, Note_on_c, 0, 88, 83
2, 29910, Note_off_c, 0, 88, 64
2, 29923, Note_on_c, 0, 88, 71
2, 29925, Note_on_c, 0, 96, 89
2, 29925, Control_c, 0, 64, 104
2, 29928, Note_on_c, 0, 56, 81
2, 29928, Note_on_c, 0, 44, 76
2, 29930, Control_c, 0, 64, 40
2, 29933, Control_c, 0, 64, 0
2, 29938, Control_c, 0, 64, 24
2, 29942, Control_c, 0, 64, 56
2, 29946, Control_c, 0, 64, 104
2, 29948, Note_off_c, 0, 44, 64
2, 29948, Note_off_c, 0, 56, 64
2, 29950, Note_off_c, 0, 88, 64
2, 29951, Note_off_c, 0, 96, 64
2, 29951, Control_c, 0, 64, 127
2, 29962, Note_on_c, 0, 93, 86
2, 29992, Note_off_c, 0, 93, 64
2, 29992, Control_c, 0, 64, 104
2, 29996, Note_on_c, 0, 88, 84
2, 29996, Control_c, 0, 64, 56
2, 30000, Note_on_c, 0, 59, 74
2, 30000, Control_c, 0, 64, 40
2, 30002, Note_on_c, 0, 47, 70
2, 30005, Control_c, 0, 64, 56
2, 30008, Control_c, 0, 64, 104
2, 30012, Control_c, 0, 64, 127
2, 30018, Note_off_c, 0, 47, 64
2, 30020, Note_off_c, 0, 59, 64
2, 30025, Note_off_c, 0, 88, 64
2, 30031, Note_on_c, 0, 84, 83
2, 30052, Note_off_c, 0, 84, 64
2, 30063, Control_c, 0, 64, 56
2, 30065, Note_on_c, 0, 93, 89
2, 30066, Note_on_c, 0, 84, 81
2, 30067, Control_c, 0, 64, 0
2, 30068, Note_on_c, 0, 57, 74
2, 30070, Note_on_c, 0, 45, 68
2, 30080, Control_c, 0, 64, 88
2, 30085, Control_c, 0, 64, 127
2, 30086, Note_off_c, 0, 45, 64
2, 30090, Note_off_c, 0, 84, 64
2, 30090, Note_off_c, 0, 93, 64
2, 30095, Note_off_c, 0, 57, 64
2, 30103, Note_on_c, 0, 88, 82
2, 30127, Control_c, 0, 64, 88
2, 30131, Control_c, 0, 64, 40
2, 30132, Note_off_c, 0, 88, 64
2, 30133, Note_on_c, 0, 84, 82
2, 30135, Control_c, 0, 64, 24
2, 30137, Note_on_c, 0, 59, 70
2, 30137, Note_on_c, 0, 47, 68
2, 30140, Control_c, 0, 64, 40
2, 30143, Control_c, 0, 64, 72
2, 30147, Control_c, 0, 64, 104
2, 30150, Note_off_c, 0, 47, 64
2, 30151, Control_c, 0, 64, 127
2, 30158, Note_off_c, 0, 59, 64
2, 30165, Note_off_c, 0, 84, 64
2, 30170, Note_on_c, 0, 81, 66
2, 30192, Note_off_c, 0, 81, 64
2, 30193, Control_c, 0, 64, 104
2, 30197, Control_c, 0, 64, 56
2, 30202, Note_on_c, 0, 62, 80
2, 30202, Control_c, 0, 64, 0
2, 30203, Note_on_c, 0, 88, 82
2, 30205, Note_on_c, 0, 50, 75
2, 30205, Note_on_c, 0, 81, 77
2, 30210, Control_c, 0, 64, 56
2, 30215, Control_c, 0, 64, 88
2, 30220, Control_c, 0, 64, 127
2, 30222, Note_off_c, 0, 50, 64
2, 30226, Note_off_c, 0, 81, 64
2, 30227, Note_off_c, 0, 88, 64
2, 30227, Note_off_c, 0, 62, 64
2, 30240, Note_on_c, 0, 84, 80
2, 30268, Note_on_c, 0, 81, 77
2, 30272, Note_off_c, 0, 84, 64
2, 30273, Note_on_c, 0, 60, 90
2, 30275, Note_on_c, 0, 48, 90
2, 30295, Note_off_c, 0, 48, 64
2, 30296, Note_off_c, 0, 81, 64
2, 30297, Note_off_c, 0, 60, 64
2, 30300, Note_on_c, 0, 76, 79
2, 30326, Note_off_c, 0, 76, 64
2, 30341, Note_on_c, 0, 63, 92
2, 30341, Note_on_c, 0, 76, 68
2, 30341, Note_on_c, 0, 51, 88
2, 30342, Note_on_c, 0, 84, 73
2, 30348, Note_on_c, 0, 64, 38
2, 30356, Note_off_c, 0, 64, 64
2, 30356, Note_off_c, 0, 51, 64
2, 30356, Note_off_c, 0, 63, 64
2, 30361, Note_off_c, 0, 76, 64
2, 30366, Note_off_c, 0, 84, 64
2, 30380, Note_on_c, 0, 81, 74
2, 30405, Note_on_c, 0, 76, 69
2, 30407, Note_off_c, 0, 81, 64
2, 30412, Note_on_c, 0, 65, 99
2, 30413, Note_on_c, 0, 53, 81
2, 30438, Note_off_c, 0, 53, 64
2, 30441, Note_off_c, 0, 76, 64
2, 30447, Note_on_c, 0, 72, 74
2, 30450, Note_off_c, 0, 65, 64
2, 30471, Note_off_c, 0, 72, 64
2, 30483, Note_on_c, 0, 64, 93
2, 30485, Note_on_c, 0, 52, 86
2, 30485, Note_on_c, 0, 81, 78
2, 30485, Note_on_c, 0, 72, 69
2, 30491, Control_c, 0, 64, 72
2, 30496, Control_c, 0, 64, 0
2, 30508, Note_off_c, 0, 72, 64
2, 30511, Note_off_c, 0, 81, 64
2, 30521, Control_c, 0, 64, 72
2, 30523, Note_on_c, 0, 76, 79
2, 30526, Control_c, 0, 64, 127
2, 30546, Note_off_c, 0, 64, 64
2, 30556, Note_off_c, 0, 76, 64
2, 30557, Note_off_c, 0, 52, 64
2, 30558, Note_on_c, 0, 72, 80
2, 30588, Note_off_c, 0, 72, 64
2, 30593, Note_on_c, 0, 69, 71
2, 30618, Note_off_c, 0, 69, 64
2, 30631, Control_c, 0, 64, 72
2, 30633, Note_on_c, 0, 78, 80
2, 30635, Control_c, 0, 64, 0
2, 30636, Note_on_c, 0, 72, 83
2, 30638, Note_on_c, 0, 45, 90
2, 30638, Note_on_c, 0, 33, 77
2, 30651, Control_c, 0, 64, 40
2, 30652, Note_off_c, 0, 33, 64
2, 30655, Note_off_c, 0, 72, 64
2, 30655, Control_c, 0, 64, 104
2, 30658, Note_off_c, 0, 45, 64
2, 30660, Control_c, 0, 64, 127
2, 30662, Note_off_c, 0, 78, 64
2, 30670, Note_on_c, 0, 75, 75
2, 30703, Note_on_c, 0, 36, 68
2, 30705, Note_on_c, 0, 72, 83
2, 30705, Note_on_c, 0, 48, 75
2, 30706, Note_off_c, 0, 75, 64
2, 30720, Note_off_c, 0, 36, 64
2, 30722, Note_off_c, 0, 48, 64
2, 30731, Note_off_c, 0, 72, 64
2, 30735, Note_on_c, 0, 69, 77
2, 30752, Note_off_c, 0, 69, 64
2, 30768, Note_on_c, 0, 50, 83
2, 30771, Note_on_c, 0, 38, 74
2, 30772, Note_on_c, 0, 66, 70
2, 30773, Note_on_c, 0, 72, 78
2, 30785, Note_off_c, 0, 38, 64
2, 30787, Note_off_c, 0, 50, 64
2, 30793, Note_off_c, 0, 72, 64
2, 30796, Note_off_c, 0, 66, 64
2, 30806, Note_on_c, 0, 69, 84
2, 30835, Note_on_c, 0, 66, 72
2, 30837, Note_on_c, 0, 51, 99
2, 30840, Note_off_c, 0, 69, 64
2, 30840, Note_on_c, 0, 39, 79
2, 30857, Control_c, 0, 64, 104
2, 30861, Control_c, 0, 64, 0
2, 30865, Note_off_c, 0, 66, 64
2, 30871, Note_on_c, 0, 60, 71
2, 30886, Control_c, 0, 64, 56
2, 30891, Control_c, 0, 64, 127
2, 30893, Note_off_c, 0, 60, 64
2, 30907, Note_on_c, 0, 60, 68
2, 30910, Note_on_c, 0, 69, 42
2, 30922, Note_off_c, 0, 60, 64
2, 30926, Note_off_c, 0, 69, 64
2, 30941, Note_on_c, 0, 66, 64
2, 30966, Note_on_c, 0, 60, 55
2, 30967, Note_off_c, 0, 66, 64
2, 30993, Note_off_c, 0, 60, 64
2, 31000, Note_on_c, 0, 57, 69
2, 31020, Note_off_c, 0, 57, 64
2, 31031, Note_on_c, 0, 66, 74
2, 31033, Note_on_c, 0, 57, 73
2, 31050, Control_c, 0, 64, 56
2, 31053, Note_off_c, 0, 57, 64
2, 31053, Control_c, 0, 64, 24
2, 31057, Note_off_c, 0, 66, 64
2, 31058, Control_c, 0, 64, 40
2, 31062, Control_c, 0, 64, 88
2, 31066, Control_c, 0, 64, 127
2, 31068, Note_on_c, 0, 60, 64
2, 31098, Note_off_c, 0, 60, 64
2, 31101, Note_on_c, 0, 57, 64
2, 31121, Note_off_c, 0, 57, 64
2, 31131, Note_on_c, 0, 54, 54
2, 31133, Note_off_c, 0, 39, 64
2, 31137, Note_off_c, 0, 51, 64
2, 31156, Note_off_c, 0, 54, 64
2, 31163, Note_on_c, 0, 66, 59
2, 31163, Control_c, 0, 64, 104
2, 31167, Control_c, 0, 64, 24
2, 31168, Note_on_c, 0, 50, 61
2, 31168, Note_on_c, 0, 62, 66
2, 31171, Note_on_c, 0, 38, 55
2, 31171, Control_c, 0, 64, 0
2, 31176, Control_c, 0, 64, 24
2, 31180, Control_c, 0, 64, 56
2, 31183, Control_c, 0, 64, 104
2, 31188, Control_c, 0, 64, 127
2, 31191, Note_off_c, 0, 50, 64
2, 31196, Note_off_c, 0, 38, 64
2, 31196, Note_off_c, 0, 62, 64
2, 31201, Note_on_c, 0, 54, 64
2, 31206, Note_off_c, 0, 66, 64
2, 31236, Note_off_c, 0, 54, 64
2, 31243, Note_on_c, 0, 66, 67
2, 31243, Control_c, 0, 64, 88
2, 31246, Note_on_c, 0, 63, 66
2, 31247, Control_c, 0, 64, 24
2, 31248, Note_on_c, 0, 48, 62
2, 31251, Note_on_c, 0, 36, 49
2, 31256, Control_c, 0, 64, 56
2, 31260, Control_c, 0, 64, 88
2, 31263, Note_off_c, 0, 36, 64
2, 31263, Control_c, 0, 64, 127
2, 31270, Note_off_c, 0, 48, 64
2, 31276, Note_off_c, 0, 66, 64
2, 31278, Note_on_c, 0, 54, 71
2, 31280, Note_off_c, 0, 63, 64
2, 31308, Note_off_c, 0, 54, 64
2, 31315, Note_on_c, 0, 46, 64
2, 31315, Note_on_c, 0, 62, 80
2, 31315, Note_on_c, 0, 66, 79
2, 31315, Control_c, 0, 64, 56
2, 31316, Note_on_c, 0, 34, 60
2, 31318, Control_c, 0, 64, 0
2, 31327, Control_c, 0, 64, 40
2, 31331, Control_c, 0, 64, 88
2, 31335, Control_c, 0, 64, 127
2, 31342, Note_off_c, 0, 34, 64
2, 31346, Note_on_c, 0, 54, 75
2, 31347, Note_off_c, 0, 66, 64
2, 31347, Note_off_c, 0, 62, 64
2, 31358, Note_off_c, 0, 46, 64
2, 31378, Note_off_c, 0, 54, 64
2, 31381, Control_c, 0, 64, 72
2, 31386, Note_on_c, 0, 62, 82
2, 31386, Control_c, 0, 64, 0
2, 31387, Note_on_c, 0, 66, 79
2, 31387, Note_on_c, 0, 45, 76
2, 31390, Note_on_c, 0, 60, 77
2, 31392, Note_on_c, 0, 33, 59
2, 31398, Control_c, 0, 64, 56
2, 31402, Control_c, 0, 64, 104
2, 31405, Note_off_c, 0, 33, 64
2, 31406, Note_off_c, 0, 45, 64
2, 31407, Control_c, 0, 64, 127
2, 31415, Note_off_c, 0, 60, 64
2, 31415, Note_off_c, 0, 62, 64
2, 31418, Note_on_c, 0, 54, 79
2, 31420, Note_off_c, 0, 66, 64
2, 31430, Note_off_c, 0, 54, 64
2, 31516, Control_c, 0, 64, 56
2, 31517, Note_on_c, 0, 87, 83
2, 31518, Note_on_c, 0, 91, 99
2, 31520, Control_c, 0, 64, 0
2, 31522, Note_on_c, 0, 43, 85
2, 31523, Note_on_c, 0, 31, 70
2, 31540, Note_off_c, 0, 31, 64
2, 31545, Note_off_c, 0, 43, 64
2, 31545, Control_c, 0, 64, 127
2, 31556, Note_off_c, 0, 91, 64
2, 31560, Note_off_c, 0, 87, 64
2, 31561, Note_on_c, 0, 86, 80
2, 31597, Note_on_c, 0, 82, 74
2, 31606, Note_on_c, 0, 50, 81
2, 31607, Note_on_c, 0, 38, 59
2, 31612, Note_off_c, 0, 86, 64
2, 31616, Note_off_c, 0, 38, 64
2, 31625, Note_off_c, 0, 50, 64
2, 31628, Note_on_c, 0, 79, 80
2, 31631, Note_off_c, 0, 82, 64
2, 31645, Note_off_c, 0, 79, 64
2, 31662, Note_on_c, 0, 79, 68
2, 31663, Note_on_c, 0, 57, 69
2, 31668, Note_on_c, 0, 45, 63
2, 31676, Note_off_c, 0, 45, 64
2, 31683, Note_off_c, 0, 57, 64
2, 31687, Note_off_c, 0, 79, 64
2, 31697, Note_on_c, 0, 74, 81
2, 31728, Note_on_c, 0, 70, 77
2, 31731, Note_off_c, 0, 74, 64
2, 31732, Note_on_c, 0, 58, 75
2, 31736, Note_on_c, 0, 46, 70
2, 31738, Control_c, 0, 64, 104
2, 31742, Control_c, 0, 64, 24
2, 31746, Control_c, 0, 64, 0
2, 31762, Note_on_c, 0, 67, 74
2, 31763, Control_c, 0, 64, 72
2, 31765, Note_off_c, 0, 70, 64
2, 31767, Control_c, 0, 64, 127
2, 31780, Note_off_c, 0, 67, 64
2, 31797, Note_off_c, 0, 58, 64
2, 31797, Note_on_c, 0, 67, 63
2, 31798, Note_on_c, 0, 63, 64
2, 31803, Note_off_c, 0, 46, 64
2, 31817, Note_off_c, 0, 67, 64
2, 31821, Note_off_c, 0, 63, 64
2, 31831, Note_on_c, 0, 62, 74
2, 31858, Note_off_c, 0, 62, 64
2, 31865, Note_on_c, 0, 58, 61
2, 31896, Note_off_c, 0, 58, 64
2, 31901, Note_on_c, 0, 55, 68
2, 31917, Note_off_c, 0, 55, 64
2, 31935, Control_c, 0, 64, 72
2, 31940, Control_c, 0, 64, 0
2, 31943, Note_on_c, 0, 51, 53
2, 31945, Note_on_c, 0, 54, 73
2, 31960, Control_c, 0, 64, 40
2, 31965, Note_off_c, 0, 54, 64
2, 31965, Control_c, 0, 64, 104
2, 31966, Note_off_c, 0, 51, 64
2, 31968, Control_c, 0, 64, 127
2, 31980, Note_on_c, 0, 66, 62
2, 31982, Note_on_c, 0, 57, 50
2, 31983, Note_on_c, 0, 48, 46
2, 31990, Note_off_c, 0, 57, 64
2, 32002, Note_off_c, 0, 66, 64
2, 32005, Note_off_c, 0, 48, 64
2, 32013, Note_on_c, 0, 43, 62
2, 32016, Note_on_c, 0, 57, 66
2, 32028, Note_off_c, 0, 43, 64
2, 32032, Note_off_c, 0, 57, 64
2, 32047, Note_on_c, 0, 54, 52
2, 32051, Note_on_c, 0, 69, 68
2, 32067, Note_off_c, 0, 69, 64
2, 32070, Note_off_c, 0, 54, 64
2, 32080, Note_on_c, 0, 60, 83
2, 32085, Note_on_c, 0, 51, 58
2, 32101, Note_off_c, 0, 60, 64
2, 32113, Note_on_c, 0, 43, 63
2, 32115, Note_on_c, 0, 63, 59
2, 32116, Note_on_c, 0, 72, 82
2, 32131, Note_off_c, 0, 63, 64
2, 32132, Note_off_c, 0, 43, 64
2, 32140, Note_off_c, 0, 72, 64
2, 32145, Note_off_c, 0, 51, 64
2, 32145, Note_on_c, 0, 63, 85
2, 32151, Note_on_c, 0, 57, 66
2, 32170, Note_off_c, 0, 57, 64
2, 32170, Note_off_c, 0, 63, 64
2, 32177, Note_on_c, 0, 75, 86
2, 32195, Note_on_c, 0, 43, 36
2, 32197, Note_off_c, 0, 75, 64
2, 32203, Note_off_c, 0, 43, 64
2, 32210, Note_on_c, 0, 66, 86
2, 32215, Note_on_c, 0, 60, 82
2, 32230, Note_off_c, 0, 60, 64
2, 32232, Note_off_c, 0, 66, 64
2, 32246, Note_on_c, 0, 78, 84
2, 32246, Note_on_c, 0, 69, 65
2, 32253, Note_off_c, 0, 69, 64
2, 32266, Note_off_c, 0, 78, 64
2, 32278, Note_on_c, 0, 69, 84
2, 32301, Note_off_c, 0, 69, 64
2, 32303, Note_on_c, 0, 72, 73
2, 32308, Note_on_c, 0, 81, 87
2, 32312, Note_off_c, 0, 72, 64
2, 32322, Note_off_c, 0, 81, 64
2, 32368, Control_c, 0, 64, 56
2, 32372, Control_c, 0, 64, 0
2, 32375, Note_on_c, 0, 91, 100
2, 32375, Note_on_c, 0, 31, 74
2, 32376, Note_on_c, 0, 87, 84
2, 32376, Note_on_c, 0, 43, 88
2, 32392, Note_off_c, 0, 31, 64
2, 32396, Note_off_c, 0, 43, 64
2, 32397, Control_c, 0, 64, 127
2, 32403, Note_off_c, 0, 91, 64
2, 32411, Note_off_c, 0, 87, 64
2, 32413, Note_on_c, 0, 86, 85
2, 32447, Note_on_c, 0, 82, 84
2, 32450, Note_off_c, 0, 86, 64
2, 32457, Note_on_c, 0, 50, 80
2, 32458, Note_on_c, 0, 38, 56
2, 32468, Note_off_c, 0, 38, 64
2, 32476, Note_off_c, 0, 50, 64
2, 32478, Note_on_c, 0, 79, 87
2, 32481, Note_off_c, 0, 82, 64
2, 32497, Note_off_c, 0, 79, 64
2, 32513, Note_on_c, 0, 57, 76
2, 32515, Note_on_c, 0, 79, 74
2, 32517, Note_on_c, 0, 45, 72
2, 32518, Note_on_c, 0, 75, 58
2, 32525, Note_off_c, 0, 45, 64
2, 32531, Note_off_c, 0, 57, 64
2, 32537, Note_off_c, 0, 79, 64
2, 32538, Note_off_c, 0, 75, 64
2, 32548, Note_on_c, 0, 74, 82
2, 32580, Note_on_c, 0, 58, 80
2, 32580, Note_on_c, 0, 70, 79
2, 32583, Note_off_c, 0, 74, 64
2, 32583, Note_on_c, 0, 46, 72
2, 32593, Control_c, 0, 64, 24
2, 32598, Control_c, 0, 64, 0
2, 32612, Note_on_c, 0, 67, 79
2, 32616, Note_off_c, 0, 70, 64
2, 32620, Control_c, 0, 64, 72
2, 32623, Control_c, 0, 64, 127
2, 32631, Note_off_c, 0, 67, 64
2, 32648, Note_off_c, 0, 58, 64
2, 32650, Note_on_c, 0, 67, 53
2, 32655, Note_off_c, 0, 46, 64
2, 32657, Note_on_c, 0, 63, 34
2, 32670, Note_off_c, 0, 63, 64
2, 32670, Note_off_c, 0, 67, 64
2, 32688, Note_on_c, 0, 62, 75
2, 32715, Note_off_c, 0, 62, 64
2, 32718, Note_on_c, 0, 58, 61
2, 32746, Note_off_c, 0, 58, 64
2, 32751, Note_on_c, 0, 55, 76
2, 32767, Note_off_c, 0, 55, 64
2, 32792, Note_on_c, 0, 57, 74
2, 32792, Control_c, 0, 64, 40
2, 32793, Note_on_c, 0, 54, 54
2, 32795, Control_c, 0, 64, 0
2, 32811, Note_off_c, 0, 57, 64
2, 32812, Control_c, 0, 64, 40
2, 32816, Note_off_c, 0, 54, 64
2, 32817, Control_c, 0, 64, 104
2, 32821, Control_c, 0, 64, 127
2, 32831, Note_on_c, 0, 69, 64
2, 32832, Note_on_c, 0, 51, 62
2, 32850, Note_off_c, 0, 69, 64
2, 32853, Note_off_c, 0, 51, 64
2, 32862, Note_on_c, 0, 60, 76
2, 32868, Note_on_c, 0, 43, 60
2, 32878, Note_off_c, 0, 43, 64
2, 32883, Note_off_c, 0, 60, 64
2, 32896, Note_on_c, 0, 72, 84
2, 32900, Note_on_c, 0, 63, 38
2, 32900, Note_on_c, 0, 57, 53
2, 32907, Note_off_c, 0, 63, 64
2, 32913, Note_off_c, 0, 72, 64
2, 32921, Note_off_c, 0, 57, 64
2, 32926, Note_on_c, 0, 63, 85
2, 32931, Note_on_c, 0, 51, 62
2, 32951, Note_off_c, 0, 63, 64
2, 32958, Note_off_c, 0, 51, 64
2, 32958, Note_on_c, 0, 75, 81
2, 32958, Note_on_c, 0, 43, 71
2, 32973, Note_off_c, 0, 43, 64
2, 32978, Note_off_c, 0, 75, 64
2, 32986, Note_on_c, 0, 66, 80
2, 32991, Note_on_c, 0, 60, 68
2, 33006, Note_off_c, 0, 60, 64
2, 33008, Note_off_c, 0, 66, 64
2, 33023, Note_on_c, 0, 78, 86
2, 33026, Note_on_c, 0, 43, 80
2, 33027, Note_on_c, 0, 69, 64
2, 33033, Note_off_c, 0, 43, 64
2, 33035, Note_off_c, 0, 69, 64
2, 33045, Note_off_c, 0, 78, 64
2, 33058, Note_on_c, 0, 69, 94
2, 33058, Note_on_c, 0, 63, 84
2, 33073, Note_off_c, 0, 63, 64
2, 33081, Note_off_c, 0, 69, 64
2, 33095, Note_on_c, 0, 81, 89
2, 33095, Note_on_c, 0, 72, 82
2, 33103, Note_off_c, 0, 72, 64
2, 33115, Note_off_c, 0, 81, 64
2, 33128, Note_on_c, 0, 72, 102
2, 33153, Note_off_c, 0, 72, 64
2, 33157, Note_on_c, 0, 75, 81
2, 33160, Note_on_c, 0, 84, 85
2, 33170, Note_off_c, 0, 75, 64
2, 33180, Note_off_c, 0, 84, 64
2, 33220, Control_c, 0, 64, 72
2, 33223, Control_c, 0, 64, 0
2, 33235, Note_on_c, 0, 43, 88
2, 33235, Note_on_c, 0, 98, 96
2, 33235, Note_on_c, 0, 91, 97
2, 33235, Note_on_c, 0, 31, 66
2, 33242, Note_off_c, 0, 31, 64
2, 33250, Note_off_c, 0, 43, 64
2, 33250, Control_c, 0, 64, 72
2, 33253, Control_c, 0, 64, 127
2, 33261, Note_off_c, 0, 91, 64
2, 33261, Note_off_c, 0, 98, 64
2, 33272, Note_on_c, 0, 94, 85
2, 33306, Note_off_c, 0, 94, 64
2, 33311, Note_on_c, 0, 91, 93
2, 33317, Note_on_c, 0, 50, 83
2, 33317, Note_on_c, 0, 38, 64
2, 33332, Note_off_c, 0, 38, 64
2, 33335, Note_off_c, 0, 50, 64
2, 33337, Note_off_c, 0, 91, 64
2, 33345, Note_on_c, 0, 86, 75
2, 33367, Note_off_c, 0, 86, 64
2, 33375, Note_on_c, 0, 54, 85
2, 33375, Note_on_c, 0, 94, 80
2, 33376, Note_on_c, 0, 42, 77
2, 33378, Note_on_c, 0, 86, 75
2, 33387, Note_off_c, 0, 42, 64
2, 33388, Note_off_c, 0, 54, 64
2, 33392, Note_off_c, 0, 86, 64
2, 33396, Note_off_c, 0, 94, 64
2, 33411, Note_on_c, 0, 91, 82
2, 33437, Note_off_c, 0, 91, 64
2, 33437, Note_on_c, 0, 86, 69
2, 33442, Note_on_c, 0, 57, 78
2, 33442, Note_on_c, 0, 45, 80
2, 33442, Control_c, 0, 64, 88
2, 33455, Control_c, 0, 64, 127
2, 33460, Note_off_c, 0, 45, 64
2, 33460, Note_on_c, 0, 82, 69
2, 33462, Note_off_c, 0, 86, 64
2, 33475, Note_off_c, 0, 57, 64
2, 33486, Note_off_c, 0, 82, 64
2, 33500, Note_on_c, 0, 91, 83
2, 33500, Note_on_c, 0, 82, 71
2, 33505, Control_c, 0, 64, 72
2, 33506, Note_on_c, 0, 55, 88
2, 33507, Note_on_c, 0, 43, 79
2, 33510, Control_c, 0, 64, 0
2, 33517, Control_c, 0, 64, 24
2, 33521, Control_c, 0, 64, 56
2, 33523, Note_off_c, 0, 43, 64
2, 33523, Note_off_c, 0, 91, 64
2, 33526, Control_c, 0, 64, 88
2, 33528, Note_off_c, 0, 82, 64
2, 33530, Control_c, 0, 64, 127
2, 33536, Note_on_c, 0, 86, 83
2, 33537, Note_off_c, 0, 55, 64
2, 33570, Note_on_c, 0, 82, 71
2, 33571, Note_on_c, 0, 57, 82
2, 33573, Note_off_c, 0, 86, 64
2, 33573, Note_on_c, 0, 45, 80
2, 33587, Note_off_c, 0, 45, 64
2, 33597, Note_off_c, 0, 57, 64
2, 33600, Note_on_c, 0, 79, 79
2, 33601, Note_off_c, 0, 82, 64
2, 33623, Note_off_c, 0, 79, 64
2, 33636, Note_on_c, 0, 79, 90
2, 33636, Note_on_c, 0, 86, 87
2, 33636, Control_c, 0, 64, 72
2, 33637, Note_on_c, 0, 60, 77
2, 33640, Control_c, 0, 64, 24
2, 33642, Note_on_c, 0, 48, 55
2, 33652, Control_c, 0, 64, 88
2, 33656, Control_c, 0, 64, 127
2, 33658, Note_off_c, 0, 48, 64
2, 33658, Note_off_c, 0, 60, 64
2, 33660, Note_off_c, 0, 79, 64
2, 33663, Note_off_c, 0, 86, 64
2, 33673, Note_on_c, 0, 82, 76
2, 33702, Note_on_c, 0, 58, 79
2, 33703, Note_on_c, 0, 46, 82
2, 33703, Note_on_c, 0, 79, 83
2, 33706, Note_off_c, 0, 82, 64
2, 33722, Note_off_c, 0, 46, 64
2, 33726, Note_off_c, 0, 58, 64
2, 33731, Note_off_c, 0, 79, 64
2, 33737, Note_on_c, 0, 74, 80
2, 33766, Note_off_c, 0, 74, 64
2, 33767, Note_on_c, 0, 61, 88
2, 33770, Note_on_c, 0, 49, 68
2, 33770, Control_c, 0, 64, 72
2, 33771, Note_on_c, 0, 82, 77
2, 33773, Note_on_c, 0, 74, 58
2, 33773, Control_c, 0, 64, 40
2, 33778, Control_c, 0, 64, 56
2, 33782, Control_c, 0, 64, 88
2, 33786, Control_c, 0, 64, 127
2, 33788, Note_off_c, 0, 49, 64
2, 33793, Note_off_c, 0, 61, 64
2, 33796, Note_off_c, 0, 74, 64
2, 33796, Note_off_c, 0, 82, 64
2, 33807, Note_on_c, 0, 79, 84
2, 33836, Note_on_c, 0, 63, 85
2, 33836, Note_on_c, 0, 74, 79
2, 33838, Note_on_c, 0, 51, 80
2, 33840, Note_off_c, 0, 79, 64
2, 33865, Note_off_c, 0, 74, 64
2, 33866, Note_off_c, 0, 51, 64
2, 33867, Note_on_c, 0, 70, 76
2, 33878, Note_off_c, 0, 63, 64
2, 33892, Note_off_c, 0, 70, 64
2, 33903, Note_on_c, 0, 62, 90
2, 33903, Note_on_c, 0, 50, 85
2, 33903, Note_on_c, 0, 70, 63
2, 33907, Note_on_c, 0, 79, 80
2, 33907, Control_c, 0, 64, 104
2, 33912, Control_c, 0, 64, 24
2, 33916, Control_c, 0, 64, 0
2, 33928, Note_off_c, 0, 79, 64
2, 33928, Note_off_c, 0, 70, 64
2, 33933, Control_c, 0, 64, 40
2, 33937, Control_c, 0, 64, 104
2, 33941, Note_on_c, 0, 74, 81
2, 33942, Control_c, 0, 64, 127
2, 33946, Note_off_c, 0, 62, 64
2, 33962, Note_off_c, 0, 50, 64
2, 33972, Note_on_c, 0, 70, 73
2, 33981, Note_off_c, 0, 74, 64
2, 34000, Note_off_c, 0, 70, 64
2, 34007, Note_on_c, 0, 67, 63
2, 34032, Note_off_c, 0, 67, 64
2, 34042, Control_c, 0, 64, 104
2, 34047, Control_c, 0, 64, 24
2, 34048, Note_on_c, 0, 74, 81
2, 34048, Note_on_c, 0, 67, 67
2, 34050, Note_on_c, 0, 40, 86
2, 34051, Control_c, 0, 64, 0
2, 34052, Note_on_c, 0, 28, 75
2, 34067, Control_c, 0, 64, 56
2, 34068, Note_off_c, 0, 28, 64
2, 34070, Note_off_c, 0, 67, 64
2, 34072, Note_off_c, 0, 40, 64
2, 34072, Note_off_c, 0, 74, 64
2, 34072, Control_c, 0, 64, 127
2, 34085, Note_on_c, 0, 70, 74
2, 34115, Note_off_c, 0, 70, 64
2, 34115, Note_on_c, 0, 67, 70
2, 34117, Note_on_c, 0, 43, 78
2, 34120, Note_on_c, 0, 31, 72
2, 34136, Note_off_c, 0, 43, 64
2, 34137, Note_off_c, 0, 31, 64
2, 34140, Note_off_c, 0, 67, 64
2, 34151, Note_on_c, 0, 60, 58
2, 34153, Note_on_c, 0, 62, 58
2, 34161, Note_off_c, 0, 62, 64
2, 34171, Note_off_c, 0, 60, 64
2, 34183, Note_on_c, 0, 45, 85
2, 34186, Note_on_c, 0, 33, 68
2, 34187, Note_on_c, 0, 70, 48
2, 34188, Note_on_c, 0, 62, 65
2, 34188, Note_on_c, 0, 68, 35
2, 34193, Note_off_c, 0, 33, 64
2, 34196, Note_on_c, 0, 69, 34
2, 34201, Note_off_c, 0, 68, 64
2, 34201, Note_off_c, 0, 45, 64
2, 34203, Note_off_c, 0, 69, 64
2, 34207, Note_off_c, 0, 70, 64
2, 34210, Note_off_c, 0, 62, 64
2, 34221, Note_on_c, 0, 67, 75
2, 34250, Note_off_c, 0, 67, 64
2, 34253, Note_on_c, 0, 46, 82
2, 34253, Note_on_c, 0, 62, 74
2, 34256, Note_on_c, 0, 34, 69
2, 34277, Control_c, 0, 64, 72
2, 34281, Note_on_c, 0, 58, 73
2, 34281, Control_c, 0, 64, 0
2, 34286, Note_off_c, 0, 62, 64
2, 34293, Control_c, 0, 64, 40
2, 34298, Control_c, 0, 64, 88
2, 34302, Control_c, 0, 64, 127
2, 34303, Note_off_c, 0, 58, 64
2, 34320, Note_on_c, 0, 67, 81
2, 34320, Note_on_c, 0, 62, 75
2, 34341, Note_off_c, 0, 62, 64
2, 34341, Note_off_c, 0, 67, 64
2, 34352, Note_on_c, 0, 64, 77
2, 34363, Note_off_c, 0, 46, 64
2, 34378, Note_off_c, 0, 34, 64
2, 34380, Note_off_c, 0, 64, 64
2, 34383, Note_on_c, 0, 62, 74
2, 34408, Note_off_c, 0, 62, 64
2, 34413, Note_on_c, 0, 55, 70
2, 34418, Note_on_c, 0, 57, 44
2, 34428, Note_off_c, 0, 57, 64
2, 34433, Note_off_c, 0, 55, 64
2, 34448, Control_c, 0, 64, 88
2, 34453, Control_c, 0, 64, 0
2, 34455, Note_on_c, 0, 70, 77
2, 34456, Note_on_c, 0, 62, 68
2, 34458, Note_on_c, 0, 40, 79
2, 34458, Note_on_c, 0, 28, 68
2, 34471, Control_c, 0, 64, 56
2, 34475, Control_c, 0, 64, 104
2, 34477, Note_off_c, 0, 28, 64
2, 34478, Note_off_c, 0, 62, 64
2, 34478, Note_off_c, 0, 70, 64
2, 34478, Control_c, 0, 64, 127
2, 34483, Note_off_c, 0, 40, 64
2, 34490, Note_on_c, 0, 67, 74
2, 34517, Note_off_c, 0, 67, 64
2, 34517, Note_on_c, 0, 62, 64
2, 34525, Note_on_c, 0, 43, 60
2, 34526, Note_on_c, 0, 31, 64
2, 34540, Note_off_c, 0, 31, 64
2, 34541, Note_off_c, 0, 43, 64
2, 34550, Note_off_c, 0, 62, 64
2, 34550, Note_on_c, 0, 58, 73
2, 34570, Note_off_c, 0, 58, 64
2, 34590, Note_on_c, 0, 45, 70
2, 34590, Note_on_c, 0, 61, 26
2, 34591, Note_on_c, 0, 67, 73
2, 34592, Note_on_c, 0, 62, 77
2, 34595, Note_on_c, 0, 33, 24
2, 34597, Note_off_c, 0, 61, 64
2, 34605, Note_off_c, 0, 33, 64
2, 34605, Note_off_c, 0, 45, 64
2, 34612, Note_off_c, 0, 62, 64
2, 34615, Note_off_c, 0, 67, 64
2, 34625, Note_on_c, 0, 64, 76
2, 34650, Note_off_c, 0, 64, 64
2, 34653, Note_on_c, 0, 46, 73
2, 34655, Note_on_c, 0, 34, 62
2, 34657, Note_on_c, 0, 62, 73
2, 34667, Control_c, 0, 64, 56
2, 34672, Control_c, 0, 64, 0
2, 34685, Note_off_c, 0, 62, 64
2, 34688, Note_on_c, 0, 55, 74
2, 34688, Control_c, 0, 64, 24
2, 34692, Control_c, 0, 64, 88
2, 34697, Control_c, 0, 64, 127
2, 34711, Note_off_c, 0, 55, 64
2, 34726, Note_on_c, 0, 62, 69
2, 34728, Note_on_c, 0, 67, 79
2, 34750, Note_off_c, 0, 62, 64
2, 34755, Note_off_c, 0, 67, 64
2, 34762, Note_on_c, 0, 64, 73
2, 34797, Note_on_c, 0, 62, 69
2, 34798, Note_off_c, 0, 64, 64
2, 34816, Note_off_c, 0, 34, 64
2, 34823, Note_off_c, 0, 62, 64
2, 34826, Note_off_c, 0, 46, 64
2, 34833, Note_on_c, 0, 55, 64
2, 34853, Note_off_c, 0, 55, 64
2, 34903, Note_on_c, 0, 69, 68
2, 34906, Note_on_c, 0, 61, 46
2, 34908, Note_on_c, 0, 55, 51
2, 34908, Note_on_c, 0, 64, 57
2, 34908, Note_on_c, 0, 57, 50
2, 34916, Control_c, 0, 64, 88
2, 34920, Note_on_c, 0, 45, 43
2, 34920, Control_c, 0, 64, 0
2, 34921, Note_on_c, 0, 33, 44
2, 34951, Note_off_c, 0, 33, 64
2, 34953, Control_c, 0, 64, 88
2, 34957, Control_c, 0, 64, 127
2, 34963, Note_off_c, 0, 45, 64
2, 34978, Note_on_c, 0, 44, 55
2, 34988, Note_off_c, 0, 55, 64
2, 34990, Note_off_c, 0, 44, 64
2, 34991, Note_off_c, 0, 57, 64
2, 35003, Note_on_c, 0, 45, 68
2, 35011, Note_off_c, 0, 64, 64
2, 35023, Note_off_c, 0, 45, 64
2, 35032, Note_off_c, 0, 61, 64
2, 35036, Note_on_c, 0, 47, 66
2, 35047, Note_off_c, 0, 69, 64
2, 35060, Note_off_c, 0, 47, 64
2, 35066, Note_on_c, 0, 49, 67
2, 35093, Note_off_c, 0, 49, 64
2, 35105, Note_on_c, 0, 50, 71
2, 35110, Note_on_c, 0, 69, 71
2, 35111, Note_on_c, 0, 57, 55
2, 35113, Note_on_c, 0, 65, 58
2, 35115, Note_on_c, 0, 62, 56
2, 35117, Control_c, 0, 64, 72
2, 35121, Control_c, 0, 64, 0
2, 35138, Note_off_c, 0, 50, 64
2, 35142, Control_c, 0, 64, 40
2, 35145, Note_on_c, 0, 52, 62
2, 35146, Control_c, 0, 64, 104
2, 35150, Control_c, 0, 64, 127
2, 35167, Note_off_c, 0, 57, 64
2, 35181, Note_on_c, 0, 53, 68
2, 35182, Note_off_c, 0, 69, 64
2, 35187, Note_off_c, 0, 62, 64
2, 35187, Note_off_c, 0, 65, 64
2, 35203, Note_off_c, 0, 52, 64
2, 35206, Note_off_c, 0, 53, 64
2, 35217, Note_on_c, 0, 52, 63
2, 35223, Note_on_c, 0, 69, 76
2, 35225, Note_on_c, 0, 57, 59
2, 35233, Note_off_c, 0, 57, 64
2, 35233, Note_off_c, 0, 69, 64
2, 35243, Note_off_c, 0, 52, 64
2, 35252, Note_on_c, 0, 50, 51
2, 35253, Note_on_c, 0, 57, 60
2, 35253, Note_on_c, 0, 69, 77
2, 35282, Note_on_c, 0, 46, 60
2, 35283, Note_off_c, 0, 50, 64
2, 35290, Note_off_c, 0, 69, 64
2, 35293, Note_off_c, 0, 57, 64
2, 35295, Note_off_c, 0, 46, 64
2, 35337, Note_on_c, 0, 69, 77
2, 35338, Note_on_c, 0, 61, 49
2, 35338, Note_on_c, 0, 64, 63
2, 35342, Note_on_c, 0, 57, 50
2, 35342, Note_on_c, 0, 55, 50
2, 35350, Note_on_c, 0, 33, 50
2, 35352, Control_c, 0, 64, 104
2, 35356, Note_on_c, 0, 45, 40
2, 35356, Control_c, 0, 64, 24
2, 35360, Control_c, 0, 64, 0
2, 35382, Note_off_c, 0, 33, 64
2, 35386, Control_c, 0, 64, 72
2, 35390, Control_c, 0, 64, 127
2, 35407, Note_off_c, 0, 45, 64
2, 35415, Note_on_c, 0, 44, 62
2, 35435, Note_off_c, 0, 55, 64
2, 35438, Note_off_c, 0, 44, 64
2, 35438, Note_off_c, 0, 57, 64
2, 35446, Note_on_c, 0, 45, 68
2, 35451, Note_off_c, 0, 64, 64
2, 35456, Note_off_c, 0, 61, 64
2, 35467, Note_off_c, 0, 45, 64
2, 35476, Note_on_c, 0, 47, 74
2, 35485, Note_off_c, 0, 69, 64
2, 35507, Note_off_c, 0, 47, 64
2, 35508, Note_on_c, 0, 49, 82
2, 35541, Note_off_c, 0, 49, 64
2, 35546, Note_on_c, 0, 50, 83
2, 35547, Note_on_c, 0, 69, 82
2, 35548, Note_on_c, 0, 57, 68
2, 35550, Note_on_c, 0, 65, 65
2, 35551, Note_on_c, 0, 62, 67
2, 35557, Control_c, 0, 64, 72
2, 35561, Control_c, 0, 64, 0
2, 35575, Note_off_c, 0, 50, 64
2, 35581, Note_on_c, 0, 52, 68
2, 35583, Control_c, 0, 64, 56
2, 35587, Control_c, 0, 64, 104
2, 35591, Control_c, 0, 64, 127
2, 35592, Note_off_c, 0, 57, 64
2, 35603, Note_off_c, 0, 62, 64
2, 35606, Note_off_c, 0, 65, 64
2, 35606, Note_off_c, 0, 69, 64
2, 35613, Note_off_c, 0, 52, 64
2, 35617, Note_on_c, 0, 53, 80
2, 35642, Note_off_c, 0, 53, 64
2, 35652, Note_on_c, 0, 52, 80
2, 35692, Note_on_c, 0, 50, 70
2, 35692, Control_c, 0, 64, 104
2, 35693, Note_on_c, 0, 71, 81
2, 35693, Note_on_c, 0, 59, 75
2, 35693, Note_on_c, 0, 65, 68
2, 35695, Note_on_c, 0, 67, 66
2, 35696, Note_off_c, 0, 52, 64
2, 35696, Control_c, 0, 64, 24
2, 35701, Control_c, 0, 64, 0
2, 35717, Control_c, 0, 64, 40
2, 35721, Control_c, 0, 64, 104
2, 35726, Control_c, 0, 64, 127
2, 35728, Note_off_c, 0, 59, 64
2, 35728, Note_off_c, 0, 50, 64
2, 35730, Note_on_c, 0, 49, 76
2, 35732, Note_off_c, 0, 67, 64
2, 35732, Note_off_c, 0, 65, 64
2, 35737, Note_off_c, 0, 49, 64
2, 35741, Note_off_c, 0, 71, 64
2, 35756, Note_on_c, 0, 66, 35
2, 35765, Note_off_c, 0, 66, 64
2, 35786, Note_on_c, 0, 72, 96
2, 35787, Note_on_c, 0, 60, 84
2, 35787, Note_on_c, 0, 64, 74
2, 35788, Note_on_c, 0, 67, 74
2, 35788, Note_on_c, 0, 70, 67
2, 35788, Control_c, 0, 64, 104
2, 35792, Control_c, 0, 64, 24
2, 35797, Control_c, 0, 64, 0
2, 35798, Note_on_c, 0, 48, 73
2, 35798, Note_on_c, 0, 36, 62
2, 35830, Control_c, 0, 64, 88
2, 35832, Note_off_c, 0, 36, 64
2, 35835, Control_c, 0, 64, 127
2, 35843, Note_off_c, 0, 48, 64
2, 35870, Note_on_c, 0, 47, 74
2, 35887, Note_off_c, 0, 47, 64
2, 35906, Note_on_c, 0, 48, 84
2, 35926, Note_off_c, 0, 48, 64
2, 35927, Note_off_c, 0, 67, 64
2, 35933, Note_off_c, 0, 64, 64
2, 35937, Note_on_c, 0, 50, 81
2, 35945, Note_off_c, 0, 60, 64
2, 35950, Note_off_c, 0, 70, 64
2, 35953, Note_off_c, 0, 72, 64
2, 35961, Note_off_c, 0, 50, 64
2, 35971, Note_on_c, 0, 52, 66
2, 36000, Note_off_c, 0, 52, 64
2, 36010, Note_on_c, 0, 72, 94
2, 36012, Note_on_c, 0, 68, 70
2, 36012, Note_on_c, 0, 60, 81
2, 36013, Note_on_c, 0, 65, 73
2, 36015, Control_c, 0, 64, 72
2, 36017, Note_on_c, 0, 53, 74
2, 36020, Control_c, 0, 64, 0
2, 36043, Note_off_c, 0, 53, 64
2, 36045, Control_c, 0, 64, 24
2, 36048, Control_c, 0, 64, 88
2, 36050, Note_on_c, 0, 55, 69
2, 36052, Control_c, 0, 64, 127
2, 36076, Note_off_c, 0, 60, 64
2, 36081, Note_off_c, 0, 55, 64
2, 36082, Note_off_c, 0, 72, 64
2, 36085, Note_on_c, 0, 56, 71
2, 36091, Note_off_c, 0, 65, 64
2, 36096, Note_off_c, 0, 68, 64
2, 36118, Note_off_c, 0, 56, 64
2, 36120, Note_on_c, 0, 55, 69
2, 36130, Note_on_c, 0, 72, 90
2, 36130, Note_on_c, 0, 60, 82
2, 36143, Note_off_c, 0, 60, 64
2, 36145, Note_off_c, 0, 72, 64
2, 36156, Note_on_c, 0, 53, 68
2, 36158, Note_off_c, 0, 55, 64
2, 36158, Note_on_c, 0, 72, 92
2, 36158, Note_on_c, 0, 60, 85
2, 36188, Note_off_c, 0, 53, 64
2, 36188, Note_on_c, 0, 49, 67
2, 36198, Note_off_c, 0, 49, 64
2, 36203, Note_off_c, 0, 60, 64
2, 36203, Note_off_c, 0, 72, 64
2, 36243, Note_on_c, 0, 72, 84
2, 36243, Note_on_c, 0, 60, 76
2, 36243, Note_on_c, 0, 64, 68
2, 36243, Note_on_c, 0, 70, 63
2, 36245, Note_on_c, 0, 67, 63
2, 36246, Control_c, 0, 64, 104
2, 36250, Control_c, 0, 64, 40
2, 36253, Control_c, 0, 64, 0
2, 36258, Note_on_c, 0, 36, 51
2, 36261, Note_on_c, 0, 48, 50
2, 36281, Note_off_c, 0, 36, 64
2, 36291, Control_c, 0, 64, 127
2, 36297, Note_off_c, 0, 48, 64
2, 36322, Note_on_c, 0, 47, 74
2, 36341, Note_off_c, 0, 47, 64
2, 36358, Note_on_c, 0, 48, 59
2, 36360, Note_on_c, 0, 47, 54
2, 36370, Note_off_c, 0, 47, 64
2, 36371, Note_off_c, 0, 67, 64
2, 36375, Note_off_c, 0, 48, 64
2, 36375, Note_off_c, 0, 64, 64
2, 36381, Note_off_c, 0, 60, 64
2, 36388, Note_on_c, 0, 50, 82
2, 36396, Note_off_c, 0, 70, 64
2, 36400, Note_off_c, 0, 72, 64
2, 36410, Note_off_c, 0, 50, 64
2, 36420, Note_on_c, 0, 52, 74
2, 36447, Note_off_c, 0, 52, 64
2, 36458, Note_on_c, 0, 72, 86
2, 36460, Note_on_c, 0, 53, 73
2, 36460, Note_on_c, 0, 68, 65
2, 36461, Note_on_c, 0, 60, 73
2, 36461, Note_on_c, 0, 65, 69
2, 36465, Control_c, 0, 64, 88
2, 36468, Control_c, 0, 64, 0
2, 36485, Note_off_c, 0, 53, 64
2, 36492, Note_on_c, 0, 55, 70
2, 36493, Control_c, 0, 64, 56
2, 36497, Control_c, 0, 64, 127
2, 36500, Note_off_c, 0, 60, 64
2, 36515, Note_off_c, 0, 65, 64
2, 36515, Note_off_c, 0, 72, 64
2, 36520, Note_off_c, 0, 55, 64
2, 36522, Note_off_c, 0, 68, 64
2, 36528, Note_on_c, 0, 56, 67
2, 36553, Note_off_c, 0, 56, 64
2, 36561, Note_on_c, 0, 55, 78
2, 36600, Note_off_c, 0, 55, 64
2, 36600, Note_on_c, 0, 53, 64
2, 36600, Note_on_c, 0, 74, 89
2, 36600, Note_on_c, 0, 62, 90
2, 36601, Note_on_c, 0, 70, 71
2, 36601, Note_on_c, 0, 68, 70
2, 36623, Note_off_c, 0, 62, 64
2, 36635, Note_off_c, 0, 74, 64
2, 36635, Note_on_c, 0, 52, 74
2, 36636, Note_off_c, 0, 68, 64
2, 36637, Note_off_c, 0, 70, 64
2, 36637, Note_off_c, 0, 53, 64
2, 36643, Note_off_c, 0, 52, 64
2, 36688, Note_on_c, 0, 75, 90
2, 36690, Note_on_c, 0, 70, 76
2, 36690, Note_on_c, 0, 63, 85
2, 36692, Note_on_c, 0, 73, 71
2, 36692, Note_on_c, 0, 67, 76
2, 36695, Control_c, 0, 64, 72
2, 36700, Control_c, 0, 64, 0
2, 36702, Note_on_c, 0, 51, 77
2, 36702, Note_on_c, 0, 39, 65
2, 36728, Control_c, 0, 64, 72
2, 36731, Note_off_c, 0, 39, 64
2, 36732, Control_c, 0, 64, 127
2, 36738, Note_off_c, 0, 51, 64
2, 36768, Note_on_c, 0, 50, 78
2, 36788, Note_off_c, 0, 50, 64
2, 36801, Note_on_c, 0, 51, 71
2, 36821, Note_off_c, 0, 67, 64
2, 36822, Note_off_c, 0, 70, 64
2, 36825, Note_off_c, 0, 51, 64
2, 36833, Note_on_c, 0, 53, 79
2, 36840, Note_off_c, 0, 63, 64
2, 36848, Note_off_c, 0, 73, 64
2, 36851, Note_off_c, 0, 75, 64
2, 36858, Note_off_c, 0, 53, 64
2, 36866, Note_on_c, 0, 55, 72
2, 36901, Note_off_c, 0, 55, 64
2, 36903, Note_on_c, 0, 75, 87
2, 36903, Note_on_c, 0, 56, 65
2, 36905, Note_on_c, 0, 63, 76
2, 36906, Note_on_c, 0, 68, 64
2, 36907, Note_on_c, 0, 71, 74
2, 36913, Control_c, 0, 64, 104
2, 36917, Control_c, 0, 64, 24
2, 36921, Control_c, 0, 64, 0
2, 36933, Note_off_c, 0, 56, 64
2, 36938, Note_on_c, 0, 58, 67
2, 36947, Control_c, 0, 64, 88
2, 36951, Control_c, 0, 64, 127
2, 36961, Note_off_c, 0, 63, 64
2, 36966, Note_off_c, 0, 58, 64
2, 36971, Note_off_c, 0, 75, 64
2, 36971, Note_on_c, 0, 59, 70
2, 36982, Note_off_c, 0, 71, 64
2, 36988, Note_off_c, 0, 68, 64
2, 37003, Note_off_c, 0, 59, 64
2, 37003, Note_on_c, 0, 58, 67
2, 37020, Note_on_c, 0, 63, 79
2, 37021, Note_on_c, 0, 75, 85
2, 37033, Note_off_c, 0, 75, 64
2, 37035, Note_off_c, 0, 63, 64
2, 37036, Note_on_c, 0, 56, 56
2, 37040, Note_off_c, 0, 58, 64
2, 37047, Note_on_c, 0, 63, 82
2, 37047, Note_on_c, 0, 75, 84
2, 37073, Note_on_c, 0, 52, 64
2, 37080, Note_off_c, 0, 56, 64
2, 37090, Note_off_c, 0, 52, 64
2, 37098, Note_off_c, 0, 63, 64
2, 37100, Note_off_c, 0, 75, 64
2, 37125, Note_on_c, 0, 75, 93
2, 37125, Note_on_c, 0, 63, 92
2, 37127, Note_on_c, 0, 70, 69
2, 37127, Note_on_c, 0, 73, 69
2, 37127, Note_on_c, 0, 67, 77
2, 37132, Note_on_c, 0, 51, 77
2, 37132, Control_c, 0, 64, 40
2, 37135, Note_on_c, 0, 39, 72
2, 37136, Control_c, 0, 64, 0
2, 37150, Note_off_c, 0, 39, 64
2, 37151, Note_off_c, 0, 51, 64
2, 37157, Control_c, 0, 64, 72
2, 37161, Control_c, 0, 64, 127
2, 37205, Note_on_c, 0, 50, 55
2, 37228, Note_off_c, 0, 50, 64
2, 37232, Note_on_c, 0, 51, 71
2, 37235, Note_off_c, 0, 67, 64
2, 37235, Note_off_c, 0, 70, 64
2, 37257, Note_off_c, 0, 51, 64
2, 37265, Note_on_c, 0, 53, 72
2, 37276, Note_off_c, 0, 63, 64
2, 37287, Note_off_c, 0, 73, 64
2, 37293, Note_off_c, 0, 53, 64
2, 37293, Note_off_c, 0, 75, 64
2, 37300, Note_on_c, 0, 55, 76
2, 37340, Note_on_c, 0, 56, 65
2, 37345, Note_on_c, 0, 75, 89
2, 37345, Note_on_c, 0, 63, 82
2, 37347, Note_off_c, 0, 55, 64
2, 37347, Note_on_c, 0, 68, 71
2, 37347, Note_on_c, 0, 71, 76
2, 37355, Control_c, 0, 64, 88
2, 37357, Control_c, 0, 64, 0
2, 37376, Note_off_c, 0, 63, 64
2, 37378, Note_off_c, 0, 56, 64
2, 37378, Control_c, 0, 64, 40
2, 37381, Note_on_c, 0, 58, 69
2, 37383, Note_off_c, 0, 68, 64
2, 37383, Control_c, 0, 64, 127
2, 37390, Note_off_c, 0, 71, 64
2, 37398, Note_off_c, 0, 75, 64
2, 37413, Note_off_c, 0, 58, 64
2, 37416, Note_on_c, 0, 59, 74
2, 37448, Note_off_c, 0, 59, 64
2, 37448, Note_on_c, 0, 58, 74
2, 37483, Note_on_c, 0, 56, 71
2, 37485, Note_off_c, 0, 58, 64
2, 37493, Note_on_c, 0, 87, 103
2, 37493, Note_on_c, 0, 75, 92
2, 37493, Note_on_c, 0, 80, 91
2, 37531, Note_on_c, 0, 51, 71
2, 37538, Note_off_c, 0, 56, 64
2, 37548, Note_off_c, 0, 51, 64
2, 37557, Note_off_c, 0, 75, 64
2, 37562, Note_off_c, 0, 80, 64
2, 37568, Note_off_c, 0, 87, 64
2, 37610, Control_c, 0, 64, 72
2, 37615, Control_c, 0, 64, 0
2, 37620, Note_on_c, 0, 75, 89
2, 37621, Note_on_c, 0, 87, 105
2, 37621, Note_on_c, 0, 40, 85
2, 37622, Note_on_c, 0, 80, 85
2, 37640, Control_c, 0, 64, 127
2, 37641, Note_off_c, 0, 40, 64
2, 37725, Note_on_c, 0, 47, 66
2, 37726, Note_off_c, 0, 75, 64
2, 37732, Note_off_c, 0, 80, 64
2, 37752, Note_off_c, 0, 87, 64
2, 37755, Note_off_c, 0, 47, 64
2, 37760, Note_on_c, 0, 51, 75
2, 37787, Note_off_c, 0, 51, 64
2, 37797, Note_on_c, 0, 56, 80
2, 37826, Note_off_c, 0, 56, 64
2, 37830, Note_on_c, 0, 59, 72
2, 37848, Note_on_c, 0, 99, 106
2, 37850, Note_on_c, 0, 87, 100
2, 37851, Note_on_c, 0, 92, 88
2, 37872, Note_off_c, 0, 59, 64
2, 37872, Note_on_c, 0, 56, 61
2, 37900, Note_on_c, 0, 51, 72
2, 37905, Note_off_c, 0, 56, 64
2, 37930, Note_off_c, 0, 51, 64
2, 37931, Note_on_c, 0, 47, 57
2, 37947, Note_off_c, 0, 47, 64
2, 37970, Note_on_c, 0, 63, 69
2, 37977, Note_off_c, 0, 63, 64
2, 37995, Note_off_c, 0, 92, 64
2, 37998, Note_off_c, 0, 87, 64
2, 38003, Note_off_c, 0, 99, 64
2, 38067, Control_c, 0, 64, 72
2, 38071, Control_c, 0, 64, 0
2, 38078, Note_on_c, 0, 98, 100
2, 38078, Note_on_c, 0, 86, 93
2, 38078, Note_on_c, 0, 92, 86
2, 38081, Note_on_c, 0, 40, 88
2, 38096, Control_c, 0, 64, 104
2, 38101, Control_c, 0, 64, 127
2, 38103, Note_off_c, 0, 40, 64
2, 38113, Note_off_c, 0, 92, 64
2, 38117, Note_off_c, 0, 98, 64
2, 38125, Note_off_c, 0, 86, 64
2, 38185, Note_on_c, 0, 95, 103
2, 38187, Note_on_c, 0, 86, 90
2, 38188, Note_on_c, 0, 83, 84
2, 38218, Note_on_c, 0, 47, 71
2, 38220, Note_off_c, 0, 95, 64
2, 38221, Note_off_c, 0, 83, 64
2, 38223, Note_off_c, 0, 86, 64
2, 38248, Note_off_c, 0, 47, 64
2, 38258, Note_on_c, 0, 94, 93
2, 38260, Note_on_c, 0, 82, 86
2, 38262, Note_on_c, 0, 86, 84
2, 38263, Note_on_c, 0, 50, 63
2, 38288, Note_off_c, 0, 94, 64
2, 38293, Note_off_c, 0, 86, 64
2, 38301, Note_off_c, 0, 50, 64
2, 38302, Note_off_c, 0, 82, 64
2, 38303, Note_on_c, 0, 56, 68
2, 38330, Note_on_c, 0, 92, 100
2, 38330, Note_on_c, 0, 80, 86
2, 38331, Note_on_c, 0, 86, 86
2, 38340, Note_off_c, 0, 56, 64
2, 38340, Control_c, 0, 64, 104
2, 38341, Note_on_c, 0, 59, 59
2, 38345, Control_c, 0, 64, 56
2, 38348, Control_c, 0, 64, 0
2, 38352, Control_c, 0, 64, 40
2, 38357, Control_c, 0, 64, 88
2, 38361, Control_c, 0, 64, 127
2, 38368, Note_off_c, 0, 86, 64
2, 38370, Note_on_c, 0, 56, 64
2, 38376, Note_off_c, 0, 59, 64
2, 38377, Note_off_c, 0, 80, 64
2, 38380, Note_off_c, 0, 92, 64
2, 38402, Note_on_c, 0, 90, 90
2, 38402, Note_on_c, 0, 78, 88
2, 38403, Note_on_c, 0, 86, 85
2, 38415, Note_on_c, 0, 50, 51
2, 38425, Note_off_c, 0, 56, 64
2, 38426, Note_off_c, 0, 86, 64
2, 38432, Note_off_c, 0, 90, 64
2, 38436, Note_on_c, 0, 47, 55
2, 38438, Note_off_c, 0, 78, 64
2, 38440, Note_off_c, 0, 50, 64
2, 38452, Note_off_c, 0, 47, 64
2, 38475, Note_on_c, 0, 62, 51
2, 38480, Note_on_c, 0, 88, 99
2, 38481, Note_on_c, 0, 80, 85
2, 38481, Note_on_c, 0, 76, 88
2, 38491, Note_off_c, 0, 62, 64
2, 38521, Note_off_c, 0, 76, 64
2, 38522, Note_off_c, 0, 88, 64
2, 38533, Note_off_c, 0, 80, 64
2, 38578, Note_on_c, 0, 87, 88
2, 38580, Note_on_c, 0, 75, 76
2, 38582, Note_on_c, 0, 79, 85
2, 38590, Note_on_c, 0, 51, 73
2, 38592, Note_on_c, 0, 39, 71
2, 38646, Note_off_c, 0, 51, 64
2, 38648, Note_off_c, 0, 39, 64
2, 38668, Note_on_c, 0, 38, 63
2, 38668, Control_c, 0, 64, 40
2, 38671, Note_off_c, 0, 79, 64
2, 38671, Note_off_c, 0, 75, 64
2, 38672, Control_c, 0, 64, 72
2, 38673, Note_off_c, 0, 87, 64
2, 38677, Control_c, 0, 64, 88
2, 38682, Control_c, 0, 64, 104
2, 38686, Control_c, 0, 64, 127
2, 38700, Note_off_c, 0, 38, 64
2, 38702, Note_on_c, 0, 39, 63
2, 38730, Note_off_c, 0, 39, 64
2, 38740, Note_on_c, 0, 41, 59
2, 38765, Note_off_c, 0, 41, 64
2, 38778, Note_on_c, 0, 43, 63
2, 38818, Note_on_c, 0, 75, 61
2, 38818, Note_on_c, 0, 83, 87
2, 38821, Note_on_c, 0, 71, 59
2, 38822, Note_on_c, 0, 44, 50
2, 38822, Control_c, 0, 64, 104
2, 38825, Note_off_c, 0, 43, 64
2, 38827, Control_c, 0, 64, 72
2, 38831, Control_c, 0, 64, 0
2, 38848, Note_off_c, 0, 44, 64
2, 38858, Note_on_c, 0, 46, 65
2, 38866, Control_c, 0, 64, 24
2, 38871, Control_c, 0, 64, 72
2, 38875, Control_c, 0, 64, 127
2, 38880, Note_off_c, 0, 46, 64
2, 38886, Note_on_c, 0, 47, 56
2, 38913, Note_off_c, 0, 47, 64
2, 38918, Note_on_c, 0, 49, 62
2, 38948, Note_off_c, 0, 83, 64
2, 38950, Note_off_c, 0, 49, 64
2, 38952, Note_on_c, 0, 51, 63
2, 38960, Note_off_c, 0, 71, 64
2, 38963, Note_off_c, 0, 75, 64
2, 38987, Note_off_c, 0, 51, 64
2, 38991, Note_on_c, 0, 52, 70
2, 39002, Note_off_c, 0, 52, 64
2, 39037, Note_on_c, 0, 82, 81
2, 39040, Note_on_c, 0, 73, 62
2, 39040, Note_on_c, 0, 70, 58
2, 39048, Note_on_c, 0, 39, 54
2, 39055, Control_c, 0, 64, 104
2, 39058, Control_c, 0, 64, 72
2, 39063, Control_c, 0, 64, 0
2, 39102, Control_c, 0, 64, 56
2, 39107, Note_off_c, 0, 39, 64
2, 39107, Control_c, 0, 64, 104
2, 39111, Control_c, 0, 64, 127
2, 39115, Note_on_c, 0, 38, 63
2, 39145, Note_off_c, 0, 38, 64
2, 39147, Note_on_c, 0, 39, 64
2, 39176, Note_off_c, 0, 39, 64
2, 39185, Note_on_c, 0, 41, 56
2, 39193, Note_off_c, 0, 82, 64
2, 39198, Note_off_c, 0, 73, 64
2, 39211, Note_off_c, 0, 41, 64
2, 39215, Note_off_c, 0, 70, 64
2, 39222, Note_on_c, 0, 43, 60
2, 39261, Note_on_c, 0, 80, 81
2, 39262, Note_on_c, 0, 44, 56
2, 39266, Note_off_c, 0, 43, 64
2, 39266, Note_on_c, 0, 68, 52
2, 39267, Note_on_c, 0, 71, 68
2, 39275, Control_c, 0, 64, 72
2, 39280, Control_c, 0, 64, 0
2, 39292, Note_off_c, 0, 44, 64
2, 39301, Note_on_c, 0, 46, 60
2, 39310, Control_c, 0, 64, 56
2, 39315, Control_c, 0, 64, 104
2, 39317, Control_c, 0, 64, 127
2, 39335, Note_off_c, 0, 46, 64
2, 39341, Note_on_c, 0, 47, 50
2, 39370, Note_off_c, 0, 47, 64
2, 39372, Note_on_c, 0, 49, 59
2, 39405, Note_off_c, 0, 49, 64
2, 39410, Note_on_c, 0, 51, 57
2, 39430, Note_off_c, 0, 51, 64
2, 39436, Note_off_c, 0, 71, 64
2, 39446, Note_on_c, 0, 52, 52
2, 39447, Note_off_c, 0, 80, 64
2, 39456, Note_off_c, 0, 52, 64
2, 39463, Note_off_c, 0, 68, 64
2, 39485, Note_on_c, 0, 78, 77
2, 39490, Note_on_c, 0, 66, 47
2, 39491, Note_on_c, 0, 70, 57
2, 39495, Note_on_c, 0, 39, 52
2, 39521, Control_c, 0, 64, 72
2, 39525, Control_c, 0, 64, 0
2, 39561, Note_off_c, 0, 39, 64
2, 39565, Control_c, 0, 64, 72
2, 39568, Note_on_c, 0, 38, 62
2, 39568, Control_c, 0, 64, 127
2, 39597, Note_off_c, 0, 38, 64
2, 39601, Note_on_c, 0, 39, 58
2, 39636, Note_off_c, 0, 70, 64
2, 39638, Note_off_c, 0, 39, 64
2, 39641, Note_on_c, 0, 41, 44
2, 39661, Note_off_c, 0, 66, 64
2, 39666, Note_off_c, 0, 41, 64
2, 39677, Note_on_c, 0, 43, 57
2, 39708, Note_off_c, 0, 78, 64
2, 39717, Note_on_c, 0, 44, 58
2, 39718, Note_off_c, 0, 43, 64
2, 39720, Note_on_c, 0, 80, 73
2, 39723, Note_on_c, 0, 68, 45
2, 39725, Note_on_c, 0, 71, 60
2, 39736, Control_c, 0, 64, 56
2, 39741, Control_c, 0, 64, 0
2, 39746, Note_off_c, 0, 44, 64
2, 39757, Note_on_c, 0, 46, 61
2, 39767, Control_c, 0, 64, 56
2, 39771, Control_c, 0, 64, 104
2, 39776, Control_c, 0, 64, 127
2, 39788, Note_off_c, 0, 46, 64
2, 39795, Note_on_c, 0, 47, 53
2, 39822, Note_off_c, 0, 47, 64
2, 39823, Note_off_c, 0, 80, 64
2, 39826, Note_off_c, 0, 71, 64
2, 39828, Note_on_c, 0, 49, 61
2, 39840, Note_off_c, 0, 68, 64
2, 39856, Note_off_c, 0, 49, 64
2, 39863, Note_on_c, 0, 51, 56
2, 39896, Note_off_c, 0, 51, 64
2, 39903, Note_on_c, 0, 52, 62
2, 39912, Note_off_c, 0, 52, 64
2, 39950, Note_on_c, 0, 73, 68
2, 39952, Note_on_c, 0, 61, 47
2, 39956, Note_on_c, 0, 70, 48
2, 39958, Note_on_c, 0, 39, 47
2, 39982, Control_c, 0, 64, 88
2, 39987, Control_c, 0, 64, 24
2, 39992, Control_c, 0, 64, 0
2, 40026, Control_c, 0, 64, 88
2, 40027, Note_off_c, 0, 39, 64
2, 40031, Control_c, 0, 64, 127
2, 40033, Note_on_c, 0, 38, 56
2, 40068, Note_off_c, 0, 38, 64
2, 40068, Note_on_c, 0, 39, 57
2, 40088, Note_off_c, 0, 61, 64
2, 40105, Note_off_c, 0, 39, 64
2, 40107, Note_on_c, 0, 41, 62
2, 40121, Note_off_c, 0, 70, 64
2, 40135, Note_off_c, 0, 41, 64
2, 40145, Note_on_c, 0, 43, 64
2, 40156, Note_off_c, 0, 73, 64
2, 40185, Note_on_c, 0, 76, 81
2, 40187, Note_on_c, 0, 44, 57
2, 40188, Note_on_c, 0, 68, 57
2, 40190, Note_off_c, 0, 43, 64
2, 40190, Note_on_c, 0, 64, 56
2, 40195, Control_c, 0, 64, 56
2, 40198, Control_c, 0, 64, 0
2, 40218, Note_off_c, 0, 44, 64
2, 40225, Note_on_c, 0, 46, 61
2, 40225, Control_c, 0, 64, 72
2, 40230, Control_c, 0, 64, 127
2, 40258, Note_off_c, 0, 46, 64
2, 40265, Note_on_c, 0, 47, 52
2, 40295, Note_off_c, 0, 47, 64
2, 40295, Note_on_c, 0, 49, 58
2, 40322, Note_off_c, 0, 49, 64
2, 40328, Note_on_c, 0, 51, 59
2, 40355, Note_off_c, 0, 76, 64
2, 40361, Note_off_c, 0, 64, 64
2, 40368, Note_off_c, 0, 51, 64
2, 40372, Note_on_c, 0, 52, 65
2, 40375, Note_off_c, 0, 68, 64
2, 40381, Note_off_c, 0, 52, 64
2, 40427, Note_on_c, 0, 75, 69
2, 40430, Note_on_c, 0, 63, 46
2, 40432, Note_on_c, 0, 67, 56
2, 40438, Note_on_c, 0, 39, 47
2, 40462, Control_c, 0, 64, 72
2, 40467, Control_c, 0, 64, 0
2, 40507, Control_c, 0, 64, 88
2, 40508, Note_off_c, 0, 39, 64
2, 40511, Control_c, 0, 64, 127
2, 40518, Note_off_c, 0, 67, 64
2, 40520, Note_on_c, 0, 38, 53
2, 40547, Note_off_c, 0, 38, 64
2, 40553, Note_on_c, 0, 39, 56
2, 40580, Note_off_c, 0, 39, 64
2, 40588, Note_on_c, 0, 41, 60
2, 40596, Note_off_c, 0, 63, 64
2, 40611, Note_off_c, 0, 41, 64
2, 40621, Note_on_c, 0, 43, 64
2, 40627, Note_off_c, 0, 75, 64
2, 40655, Note_off_c, 0, 43, 64
2, 40662, Note_on_c, 0, 71, 66
2, 40662, Note_on_c, 0, 44, 54
2, 40663, Note_on_c, 0, 68, 46
2, 40663, Note_on_c, 0, 63, 36
2, 40673, Control_c, 0, 64, 40
2, 40678, Control_c, 0, 64, 0
2, 40691, Note_off_c, 0, 44, 64
2, 40698, Note_on_c, 0, 46, 58
2, 40705, Control_c, 0, 64, 88
2, 40708, Control_c, 0, 64, 127
2, 40733, Note_off_c, 0, 46, 64
2, 40737, Note_on_c, 0, 47, 55
2, 40766, Note_off_c, 0, 47, 64
2, 40771, Note_on_c, 0, 49, 55
2, 40796, Note_off_c, 0, 49, 64
2, 40805, Note_on_c, 0, 51, 57
2, 40832, Note_off_c, 0, 68, 64
2, 40840, Note_off_c, 0, 51, 64
2, 40847, Note_off_c, 0, 63, 64
2, 40847, Note_on_c, 0, 52, 32
2, 40857, Note_off_c, 0, 52, 64
2, 40887, Note_off_c, 0, 71, 64
2, 40890, Note_on_c, 0, 70, 73
2, 40892, Note_on_c, 0, 61, 47
2, 40901, Note_on_c, 0, 39, 51
2, 40920, Control_c, 0, 64, 56
2, 40925, Control_c, 0, 64, 0
2, 40955, Note_off_c, 0, 39, 64
2, 40956, Control_c, 0, 64, 72
2, 40958, Control_c, 0, 64, 127
2, 40966, Note_on_c, 0, 38, 56
2, 40991, Note_off_c, 0, 38, 64
2, 41000, Note_on_c, 0, 39, 51
2, 41026, Note_off_c, 0, 39, 64
2, 41035, Note_on_c, 0, 41, 59
2, 41057, Note_off_c, 0, 41, 64
2, 41071, Note_on_c, 0, 43, 60
2, 41081, Note_off_c, 0, 61, 64
2, 41108, Note_off_c, 0, 43, 64
2, 41108, Note_on_c, 0, 44, 53
2, 41112, Note_off_c, 0, 70, 64
2, 41113, Note_on_c, 0, 68, 68
2, 41120, Note_on_c, 0, 59, 55
2, 41120, Note_on_c, 0, 63, 48
2, 41122, Control_c, 0, 64, 88
2, 41127, Control_c, 0, 64, 0
2, 41138, Note_off_c, 0, 44, 64
2, 41145, Note_on_c, 0, 46, 58
2, 41158, Control_c, 0, 64, 72
2, 41162, Control_c, 0, 64, 127
2, 41175, Note_off_c, 0, 46, 64
2, 41183, Note_on_c, 0, 47, 55
2, 41215, Note_on_c, 0, 49, 59
2, 41216, Note_off_c, 0, 47, 64
2, 41243, Note_off_c, 0, 49, 64
2, 41246, Note_off_c, 0, 63, 64
2, 41248, Note_on_c, 0, 51, 60
2, 41280, Note_off_c, 0, 59, 64
2, 41285, Note_off_c, 0, 51, 64
2, 41288, Note_on_c, 0, 52, 66
2, 41298, Note_off_c, 0, 52, 64
2, 41330, Note_off_c, 0, 68, 64
2, 41337, Note_on_c, 0, 66, 64
2, 41342, Note_on_c, 0, 58, 43
2, 41343, Note_on_c, 0, 61, 44
2, 41350, Note_on_c, 0, 39, 44
2, 41368, Control_c, 0, 64, 56
2, 41373, Control_c, 0, 64, 0
2, 41408, Note_off_c, 0, 39, 64
2, 41412, Control_c, 0, 64, 56
2, 41417, Control_c, 0, 64, 104
2, 41421, Note_on_c, 0, 38, 55
2, 41421, Control_c, 0, 64, 127
2, 41448, Note_off_c, 0, 38, 64
2, 41452, Note_on_c, 0, 39, 56
2, 41487, Note_on_c, 0, 41, 45
2, 41488, Note_off_c, 0, 39, 64
2, 41510, Note_off_c, 0, 41, 64
2, 41520, Note_off_c, 0, 58, 64
2, 41520, Note_on_c, 0, 43, 62
2, 41540, Note_off_c, 0, 61, 64
2, 41545, Note_off_c, 0, 66, 64
2, 41558, Note_off_c, 0, 43, 64
2, 41562, Note_on_c, 0, 68, 67
2, 41562, Note_on_c, 0, 44, 51
2, 41565, Note_on_c, 0, 63, 49
2, 41568, Note_on_c, 0, 59, 46
2, 41571, Control_c, 0, 64, 88
2, 41575, Control_c, 0, 64, 0
2, 41593, Note_off_c, 0, 44, 64
2, 41598, Note_on_c, 0, 46, 58
2, 41602, Control_c, 0, 64, 40
2, 41606, Control_c, 0, 64, 104
2, 41611, Control_c, 0, 64, 127
2, 41628, Note_off_c, 0, 46, 64
2, 41635, Note_on_c, 0, 47, 52
2, 41666, Note_on_c, 0, 49, 58
2, 41667, Note_off_c, 0, 47, 64
2, 41696, Note_off_c, 0, 49, 64
2, 41700, Note_on_c, 0, 51, 60
2, 41710, Note_off_c, 0, 59, 64
2, 41727, Note_off_c, 0, 51, 64
2, 41736, Note_on_c, 0, 52, 58
2, 41746, Note_off_c, 0, 52, 64
2, 41753, Note_off_c, 0, 63, 64
2, 41785, Note_on_c, 0, 61, 67
2, 41788, Note_on_c, 0, 58, 38
2, 41790, Note_off_c, 0, 68, 64
2, 41796, Note_on_c, 0, 39, 50
2, 41817, Control_c, 0, 64, 56
2, 41822, Control_c, 0, 64, 0
2, 41845, Note_off_c, 0, 39, 64
2, 41857, Note_on_c, 0, 38, 45
2, 41857, Control_c, 0, 64, 56
2, 41862, Control_c, 0, 64, 104
2, 41866, Control_c, 0, 64, 127
2, 41878, Note_off_c, 0, 38, 64
2, 41888, Note_on_c, 0, 39, 42
2, 41921, Note_off_c, 0, 39, 64
2, 41926, Note_on_c, 0, 41, 51
2, 41950, Note_off_c, 0, 41, 64
2, 41967, Note_on_c, 0, 43, 45
2, 41970, Note_off_c, 0, 58, 64
2, 41976, Note_off_c, 0, 61, 64
2, 42006, Note_off_c, 0, 43, 64
2, 42006, Note_on_c, 0, 44, 44
2, 42013, Note_on_c, 0, 64, 68
2, 42016, Note_on_c, 0, 56, 48
2, 42018, Note_on_c, 0, 59, 55
2, 42033, Control_c, 0, 64, 56
2, 42037, Control_c, 0, 64, 0
2, 42046, Note_off_c, 0, 44, 64
2, 42052, Note_on_c, 0, 46, 46
2, 42065, Control_c, 0, 64, 24
2, 42068, Control_c, 0, 64, 88
2, 42073, Control_c, 0, 64, 127
2, 42090, Note_off_c, 0, 46, 64
2, 42096, Note_on_c, 0, 47, 48
2, 42123, Note_off_c, 0, 47, 64
2, 42127, Note_on_c, 0, 49, 54
2, 42157, Note_off_c, 0, 49, 64
2, 42166, Note_on_c, 0, 51, 49
2, 42203, Note_off_c, 0, 51, 64
2, 42215, Note_on_c, 0, 52, 41
2, 42223, Note_off_c, 0, 59, 64
2, 42226, Note_off_c, 0, 52, 64
2, 42242, Note_off_c, 0, 56, 64
2, 42265, Note_off_c, 0, 64, 64
2, 42273, Note_on_c, 0, 63, 59
2, 42278, Note_on_c, 0, 58, 33
2, 42282, Note_on_c, 0, 55, 39
2, 42287, Note_on_c, 0, 39, 31
2, 42301, Control_c, 0, 64, 88
2, 42306, Control_c, 0, 64, 24
2, 42311, Control_c, 0, 64, 0
2, 42346, Control_c, 0, 64, 40
2, 42350, Control_c, 0, 64, 104
2, 42355, Control_c, 0, 64, 127
2, 42360, Note_off_c, 0, 58, 64
2, 42365, Note_off_c, 0, 55, 64
2, 42375, Note_off_c, 0, 39, 64
2, 42388, Note_off_c, 0, 63, 64
2, 42445, Note_on_c, 0, 62, 57
2, 42475, Note_off_c, 0, 62, 64
2, 42478, Note_on_c, 0, 63, 61
2, 42505, Note_off_c, 0, 63, 64
2, 42515, Note_on_c, 0, 64, 64
2, 42525, Note_on_c, 0, 59, 41
2, 42525, Note_on_c, 0, 56, 31
2, 42526, Control_c, 0, 64, 40
2, 42531, Control_c, 0, 64, 0
2, 42550, Note_on_c, 0, 66, 62
2, 42552, Note_off_c, 0, 64, 64
2, 42556, Control_c, 0, 64, 24
2, 42561, Control_c, 0, 64, 72
2, 42565, Control_c, 0, 64, 127
2, 42582, Note_off_c, 0, 66, 64
2, 42588, Note_on_c, 0, 68, 62
2, 42620, Note_off_c, 0, 68, 64
2, 42620, Note_on_c, 0, 70, 65
2, 42653, Note_on_c, 0, 71, 68
2, 42655, Note_off_c, 0, 70, 64
2, 42680, Note_off_c, 0, 71, 64
2, 42690, Note_on_c, 0, 64, 60
2, 42721, Note_off_c, 0, 59, 64
2, 42726, Note_off_c, 0, 64, 64
2, 42726, Note_off_c, 0, 56, 64
2, 42736, Note_on_c, 0, 63, 60
2, 42740, Note_on_c, 0, 58, 30
2, 42753, Note_on_c, 0, 55, 30
2, 42758, Control_c, 0, 64, 104
2, 42763, Control_c, 0, 64, 56
2, 42767, Control_c, 0, 64, 0
2, 42811, Control_c, 0, 64, 40
2, 42816, Control_c, 0, 64, 88
2, 42821, Control_c, 0, 64, 127
2, 42842, Note_off_c, 0, 55, 64
2, 42846, Note_off_c, 0, 58, 64
2, 42850, Note_off_c, 0, 63, 64
2, 42906, Note_on_c, 0, 62, 55
2, 42932, Note_off_c, 0, 62, 64
2, 42937, Note_on_c, 0, 63, 59
2, 42961, Note_off_c, 0, 63, 64
2, 42970, Control_c, 0, 64, 72
2, 42972, Note_on_c, 0, 64, 64
2, 42975, Control_c, 0, 64, 0
2, 42976, Note_on_c, 0, 59, 40
2, 42978, Note_on_c, 0, 56, 41
2, 43005, Note_off_c, 0, 64, 64
2, 43006, Note_on_c, 0, 66, 64
2, 43006, Control_c, 0, 64, 56
2, 43010, Control_c, 0, 64, 104
2, 43015, Control_c, 0, 64, 127
2, 43033, Note_off_c, 0, 66, 64
2, 43040, Note_on_c, 0, 68, 64
2, 43066, Note_off_c, 0, 68, 64
2, 43071, Note_on_c, 0, 70, 64
2, 43108, Note_on_c, 0, 71, 66
2, 43122, Note_off_c, 0, 70, 64
2, 43135, Note_off_c, 0, 71, 64
2, 43143, Note_on_c, 0, 64, 68
2, 43176, Note_off_c, 0, 59, 64
2, 43177, Note_off_c, 0, 64, 64
2, 43180, Note_off_c, 0, 56, 64
2, 43192, Note_on_c, 0, 63, 60
2, 43200, Note_on_c, 0, 58, 42
2, 43207, Note_on_c, 0, 55, 48
2, 43208, Control_c, 0, 64, 104
2, 43212, Control_c, 0, 64, 88
2, 43217, Control_c, 0, 64, 40
2, 43221, Control_c, 0, 64, 0
2, 43273, Control_c, 0, 64, 24
2, 43278, Control_c, 0, 64, 72
2, 43282, Control_c, 0, 64, 104
2, 43287, Control_c, 0, 64, 127
2, 43305, Note_off_c, 0, 63, 64
2, 43313, Note_off_c, 0, 55, 64
2, 43313, Note_off_c, 0, 58, 64
2, 43380, Note_on_c, 0, 61, 56
2, 43405, Note_off_c, 0, 61, 64
2, 43417, Note_on_c, 0, 62, 58
2, 43450, Note_off_c, 0, 62, 64
2, 43458, Note_on_c, 0, 64, 64
2, 43458, Control_c, 0, 64, 56
2, 43461, Note_on_c, 0, 57, 42
2, 43463, Note_on_c, 0, 54, 35
2, 43463, Control_c, 0, 64, 0
2, 43487, Note_off_c, 0, 64, 64
2, 43490, Control_c, 0, 64, 24
2, 43491, Note_on_c, 0, 66, 63
2, 43493, Control_c, 0, 64, 72
2, 43498, Control_c, 0, 64, 104
2, 43502, Control_c, 0, 64, 127
2, 43518, Note_off_c, 0, 66, 64
2, 43525, Note_on_c, 0, 67, 63
2, 43542, Control_c, 0, 64, 88
2, 43546, Control_c, 0, 64, 40
2, 43551, Note_off_c, 0, 67, 64
2, 43551, Control_c, 0, 64, 0
2, 43560, Note_on_c, 0, 68, 67
2, 43565, Control_c, 0, 64, 56
2, 43568, Control_c, 0, 64, 72
2, 43573, Control_c, 0, 64, 104
2, 43577, Control_c, 0, 64, 127
2, 43586, Note_off_c, 0, 68, 64
2, 43601, Note_on_c, 0, 69, 64
2, 43628, Note_off_c, 0, 69, 64
2, 43643, Note_on_c, 0, 62, 60
2, 43675, Note_off_c, 0, 54, 64
2, 43681, Note_off_c, 0, 62, 64
2, 43683, Note_off_c, 0, 57, 64
2, 43701, Note_on_c, 0, 61, 57
2, 43705, Note_on_c, 0, 56, 36
2, 43713, Note_on_c, 0, 53, 37
2, 43723, Control_c, 0, 64, 104
2, 43727, Control_c, 0, 64, 72
2, 43732, Control_c, 0, 64, 24
2, 43736, Control_c, 0, 64, 0
2, 43785, Control_c, 0, 64, 40
2, 43788, Control_c, 0, 64, 88
2, 43793, Control_c, 0, 64, 127
2, 43835, Note_off_c, 0, 53, 64
2, 43836, Note_off_c, 0, 56, 64
2, 43877, Note_off_c, 0, 61, 64
2, 43902, Note_on_c, 0, 59, 41
2, 43937, Note_off_c, 0, 59, 64
2, 43942, Note_on_c, 0, 61, 50
2, 43986, Note_off_c, 0, 61, 64
2, 43996, Note_on_c, 0, 62, 56
2, 44000, Note_on_c, 0, 55, 28
2, 44000, Note_on_c, 0, 52, 34
2, 44008, Control_c, 0, 64, 72
2, 44012, Control_c, 0, 64, 24
2, 44017, Control_c, 0, 64, 0
2, 44042, Note_on_c, 0, 64, 58
2, 44045, Note_off_c, 0, 62, 64
2, 44045, Control_c, 0, 64, 24
2, 44048, Control_c, 0, 64, 72
2, 44053, Control_c, 0, 64, 127
2, 44071, Note_off_c, 0, 64, 64
2, 44087, Note_on_c, 0, 65, 54
2, 44111, Note_off_c, 0, 65, 64
2, 44131, Note_on_c, 0, 66, 54
2, 44181, Note_off_c, 0, 66, 64
2, 44188, Note_off_c, 0, 52, 64
2, 44198, Note_on_c, 0, 67, 58
2, 44202, Control_c, 0, 64, 104
2, 44206, Control_c, 0, 64, 24
2, 44211, Note_on_c, 0, 48, 42
2, 44211, Control_c, 0, 64, 0
2, 44233, Control_c, 0, 64, 40
2, 44238, Control_c, 0, 64, 88
2, 44242, Control_c, 0, 64, 127
2, 44246, Note_off_c, 0, 67, 64
2, 44257, Note_off_c, 0, 55, 64
2, 44266, Note_off_c, 0, 48, 64
2, 44266, Note_on_c, 0, 58, 54
2, 44301, Note_off_c, 0, 58, 64
2, 44367, Note_on_c, 0, 57, 50
2, 44380, Note_on_c, 0, 41, 46
2, 44387, Control_c, 0, 64, 104
2, 44391, Control_c, 0, 64, 24
2, 44396, Control_c, 0, 64, 0
2, 44431, Control_c, 0, 64, 88
2, 44435, Control_c, 0, 64, 127
2, 44457, Note_off_c, 0, 41, 64
2, 44462, Note_off_c, 0, 57, 64
2, 44576, Note_on_c, 0, 72, 54
2, 44600, Note_on_c, 0, 60, 43
2, 44612, Control_c, 0, 64, 88
2, 44618, Control_c, 0, 64, 24
2, 44625, Control_c, 0, 64, 0
2, 44636, Note_off_c, 0, 72, 64
2, 44650, Control_c, 0, 64, 56
2, 44656, Control_c, 0, 64, 88
2, 44661, Note_off_c, 0, 60, 64
2, 44662, Control_c, 0, 64, 127
2, 44726, Note_on_c, 0, 72, 57
2, 44730, Note_on_c, 0, 60, 31
2, 44731, Note_on_c, 0, 69, 45
2, 44733, Note_on_c, 0, 53, 33
2, 44750, Control_c, 0, 64, 88
2, 44756, Control_c, 0, 64, 40
2, 44762, Control_c, 0, 64, 0
2, 44793, Control_c, 0, 64, 40
2, 44800, Control_c, 0, 64, 104
2, 44806, Control_c, 0, 64, 127
2, 44832, Note_off_c, 0, 53, 64
2, 44835, Note_off_c, 0, 60, 64
2, 44841, Note_off_c, 0, 69, 64
2, 44856, Note_off_c, 0, 72, 64
2, 44931, Note_on_c, 0, 72, 73
2, 44931, Control_c, 0, 64, 104
2, 44937, Control_c, 0, 64, 56
2, 44940, Note_on_c, 0, 69, 40
2, 44940, Note_on_c, 0, 60, 36
2, 44941, Note_on_c, 0, 53, 42
2, 44943, Control_c, 0, 64, 24
2, 44962, Control_c, 0, 64, 88
2, 44970, Control_c, 0, 64, 127
2, 44973, Note_off_c, 0, 69, 64
2, 44976, Note_off_c, 0, 53, 64
2, 44976, Note_off_c, 0, 60, 64
2, 44980, Note_off_c, 0, 72, 64
2, 45058, Note_on_c, 0, 76, 74
2, 45060, Note_on_c, 0, 70, 46
2, 45067, Note_on_c, 0, 60, 32
2, 45068, Note_on_c, 0, 53, 39
2, 45075, Control_c, 0, 64, 72
2, 45081, Control_c, 0, 64, 0
2, 45132, Control_c, 0, 64, 88
2, 45138, Control_c, 0, 64, 127
2, 45151, Note_off_c, 0, 53, 64
2, 45165, Note_off_c, 0, 60, 64
2, 45171, Note_off_c, 0, 76, 64
2, 45186, Note_off_c, 0, 70, 64
2, 45198, Note_on_c, 0, 74, 74
2, 45235, Note_off_c, 0, 74, 64
2, 45250, Control_c, 0, 64, 56
2, 45252, Note_on_c, 0, 72, 82
2, 45256, Note_on_c, 0, 53, 47
2, 45256, Control_c, 0, 64, 0
2, 45258, Note_on_c, 0, 60, 40
2, 45260, Note_on_c, 0, 70, 51
2, 45288, Control_c, 0, 64, 56
2, 45295, Note_off_c, 0, 53, 64
2, 45295, Control_c, 0, 64, 127
2, 45298, Note_off_c, 0, 60, 64
2, 45305, Note_off_c, 0, 70, 64
2, 45306, Note_off_c, 0, 72, 64
2, 45375, Note_on_c, 0, 77, 82
2, 45380, Note_on_c, 0, 69, 56
2, 45383, Note_on_c, 0, 53, 43
2, 45383, Note_on_c, 0, 60, 42
2, 45387, Control_c, 0, 64, 72
2, 45393, Control_c, 0, 64, 24
2, 45400, Control_c, 0, 64, 0
2, 45451, Control_c, 0, 64, 72
2, 45456, Note_off_c, 0, 53, 64
2, 45457, Note_off_c, 0, 77, 64
2, 45457, Control_c, 0, 64, 127
2, 45462, Note_off_c, 0, 60, 64
2, 45462, Note_off_c, 0, 69, 64
2, 45575, Note_on_c, 0, 74, 75
2, 45580, Note_on_c, 0, 58, 39
2, 45582, Note_on_c, 0, 65, 54
2, 45582, Control_c, 0, 64, 40
2, 45588, Control_c, 0, 64, 0
2, 45613, Control_c, 0, 64, 24
2, 45620, Control_c, 0, 64, 88
2, 45626, Note_off_c, 0, 74, 64
2, 45626, Control_c, 0, 64, 127
2, 45627, Note_off_c, 0, 65, 64
2, 45630, Note_off_c, 0, 58, 64
2, 45698, Note_on_c, 0, 72, 76
2, 45703, Note_on_c, 0, 57, 42
2, 45706, Note_on_c, 0, 65, 52
2, 45713, Control_c, 0, 64, 104
2, 45720, Control_c, 0, 64, 40
2, 45726, Control_c, 0, 64, 0
2, 45763, Control_c, 0, 64, 40
2, 45770, Control_c, 0, 64, 104
2, 45775, Note_off_c, 0, 57, 64
2, 45776, Control_c, 0, 64, 127
2, 45783, Note_off_c, 0, 72, 64
2, 45797, Note_off_c, 0, 65, 64
2, 45897, Note_on_c, 0, 69, 69
2, 45903, Note_on_c, 0, 64, 52
2, 45910, Note_on_c, 0, 48, 46
2, 45910, Note_on_c, 0, 57, 32
2, 45912, Control_c, 0, 64, 56
2, 45920, Control_c, 0, 64, 0
2, 45938, Control_c, 0, 64, 56
2, 45945, Control_c, 0, 64, 104
2, 45951, Control_c, 0, 64, 127
2, 45958, Note_off_c, 0, 57, 64
2, 45963, Note_off_c, 0, 48, 64
2, 45973, Note_off_c, 0, 64, 64
2, 45978, Note_off_c, 0, 69, 64
2, 46022, Note_on_c, 0, 65, 68
2, 46035, Note_on_c, 0, 50, 42
2, 46036, Note_on_c, 0, 57, 25
2, 46036, Note_on_c, 0, 60, 38
2, 46063, Control_c, 0, 64, 72
2, 46070, Control_c, 0, 64, 0
2, 46112, Control_c, 0, 64, 88
2, 46118, Control_c, 0, 64, 127
2, 46123, Note_off_c, 0, 57, 64
2, 46127, Note_off_c, 0, 50, 64
2, 46131, Note_off_c, 0, 65, 64
2, 46133, Note_off_c, 0, 60, 64
2, 46230, Note_on_c, 0, 67, 70
2, 46233, Note_on_c, 0, 58, 43
2, 46240, Note_on_c, 0, 65, 54
2, 46243, Note_on_c, 0, 50, 43
2, 46245, Note_on_c, 0, 43, 49
2, 46245, Control_c, 0, 64, 104
2, 46251, Control_c, 0, 64, 24
2, 46257, Control_c, 0, 64, 0
2, 46277, Note_off_c, 0, 50, 64
2, 46281, Note_off_c, 0, 65, 64
2, 46282, Control_c, 0, 64, 56
2, 46287, Control_c, 0, 64, 127
2, 46290, Note_off_c, 0, 58, 64
2, 46291, Note_off_c, 0, 67, 64
2, 46293, Note_off_c, 0, 43, 64
2, 46363, Note_on_c, 0, 67, 73
2, 46366, Note_on_c, 0, 64, 59
2, 46368, Note_on_c, 0, 58, 39
2, 46373, Note_on_c, 0, 48, 56
2, 46395, Control_c, 0, 64, 104
2, 46401, Control_c, 0, 64, 40
2, 46407, Control_c, 0, 64, 0
2, 46457, Control_c, 0, 64, 88
2, 46463, Control_c, 0, 64, 127
2, 46486, Note_off_c, 0, 48, 64
2, 46493, Note_off_c, 0, 64, 64
2, 46498, Note_off_c, 0, 58, 64
2, 46582, Note_on_c, 0, 58, 30
2, 46585, Note_on_c, 0, 62, 41
2, 46585, Note_on_c, 0, 48, 43
2, 46595, Control_c, 0, 64, 56
2, 46601, Control_c, 0, 64, 24
2, 46620, Control_c, 0, 64, 88
2, 46626, Control_c, 0, 64, 127
2, 46632, Note_off_c, 0, 67, 64
2, 46637, Note_off_c, 0, 48, 64
2, 46643, Note_off_c, 0, 58, 64
2, 46656, Note_off_c, 0, 62, 64
2, 46722, Note_on_c, 0, 69, 66
2, 46728, Note_on_c, 0, 41, 44
2, 46732, Note_on_c, 0, 53, 34
2, 46732, Note_on_c, 0, 60, 39
2, 46746, Control_c, 0, 64, 88
2, 46751, Control_c, 0, 64, 24
2, 46757, Control_c, 0, 64, 0
2, 46787, Control_c, 0, 64, 24
2, 46793, Control_c, 0, 64, 88
2, 46801, Control_c, 0, 64, 127
2, 46817, Note_off_c, 0, 41, 64
2, 46823, Note_off_c, 0, 69, 64
2, 46836, Note_off_c, 0, 53, 64
2, 46848, Note_off_c, 0, 60, 64
2, 46922, Note_on_c, 0, 70, 63
2, 46930, Note_on_c, 0, 46, 47
2, 46932, Control_c, 0, 64, 56
2, 46933, Note_on_c, 0, 62, 48
2, 46935, Note_on_c, 0, 53, 45
2, 46938, Control_c, 0, 64, 0
2, 46963, Control_c, 0, 64, 24
2, 46970, Control_c, 0, 64, 88
2, 46975, Note_off_c, 0, 53, 64
2, 46976, Control_c, 0, 64, 127
2, 46977, Note_off_c, 0, 46, 64
2, 46990, Note_off_c, 0, 62, 64
2, 46991, Note_off_c, 0, 70, 64
2, 47048, Note_on_c, 0, 69, 68
2, 47058, Note_on_c, 0, 48, 53
2, 47058, Note_on_c, 0, 53, 38
2, 47058, Note_on_c, 0, 60, 45
2, 47071, Control_c, 0, 64, 88
2, 47076, Control_c, 0, 64, 0
2, 47113, Control_c, 0, 64, 56
2, 47120, Control_c, 0, 64, 127
2, 47155, Note_off_c, 0, 53, 64
2, 47175, Note_off_c, 0, 48, 64
2, 47185, Note_off_c, 0, 69, 64
2, 47207, Note_off_c, 0, 60, 64
2, 47261, Note_on_c, 0, 65, 59
2, 47263, Control_c, 0, 64, 72
2, 47270, Control_c, 0, 64, 0
2, 47271, Note_on_c, 0, 62, 39
2, 47273, Note_on_c, 0, 46, 34
2, 47276, Note_on_c, 0, 53, 35
2, 47301, Control_c, 0, 64, 72
2, 47307, Control_c, 0, 64, 127
2, 47311, Note_off_c, 0, 62, 64
2, 47322, Note_off_c, 0, 46, 64
2, 47326, Note_off_c, 0, 53, 64
2, 47335, Note_off_c, 0, 65, 64
2, 47393, Note_on_c, 0, 69, 61
2, 47406, Note_on_c, 0, 60, 34
2, 47407, Note_on_c, 0, 48, 40
2, 47408, Note_on_c, 0, 53, 31
2, 47426, Control_c, 0, 64, 72
2, 47432, Control_c, 0, 64, 0
2, 47470, Control_c, 0, 64, 56
2, 47477, Control_c, 0, 64, 127
2, 47491, Note_off_c, 0, 60, 64
2, 47492, Note_off_c, 0, 69, 64
2, 47503, Note_off_c, 0, 48, 64
2, 47507, Note_off_c, 0, 53, 64
2, 47603, Note_on_c, 0, 70, 54
2, 47607, Note_on_c, 0, 58, 35
2, 47613, Control_c, 0, 64, 72
2, 47620, Control_c, 0, 64, 0
2, 47621, Note_on_c, 0, 50, 40
2, 47621, Note_on_c, 0, 53, 30
2, 47646, Control_c, 0, 64, 56
2, 47652, Control_c, 0, 64, 127
2, 47661, Note_off_c, 0, 53, 64
2, 47662, Note_off_c, 0, 50, 64
2, 47662, Note_off_c, 0, 58, 64
2, 47673, Note_off_c, 0, 70, 64
2, 47757, Note_on_c, 0, 69, 58
2, 47765, Note_on_c, 0, 60, 36
2, 47767, Note_on_c, 0, 53, 27
2, 47768, Note_on_c, 0, 48, 38
2, 47783, Control_c, 0, 64, 56
2, 47790, Control_c, 0, 64, 0
2, 47827, Control_c, 0, 64, 56
2, 47833, Control_c, 0, 64, 127
2, 47897, Note_off_c, 0, 53, 64
2, 47903, Note_off_c, 0, 48, 64
2, 47912, Note_off_c, 0, 69, 64
2, 47988, Note_on_c, 0, 67, 54
2, 48030, Note_off_c, 0, 60, 64
2, 48035, Note_off_c, 0, 67, 64
2, 48093, Note_on_c, 0, 65, 48
2, 48102, Note_on_c, 0, 62, 39
2, 48105, Note_on_c, 0, 46, 32
2, 48108, Note_on_c, 0, 53, 29
2, 48133, Control_c, 0, 64, 88
2, 48140, Control_c, 0, 64, 56
2, 48145, Control_c, 0, 64, 0
2, 48226, Control_c, 0, 64, 40
2, 48232, Control_c, 0, 64, 88
2, 48240, Control_c, 0, 64, 127
2, 48381, Note_off_c, 0, 53, 64
2, 48385, Note_off_c, 0, 46, 64
2, 48415, Note_off_c, 0, 62, 64
2, 48420, Note_off_c, 0, 65, 64
2, 48802, Control_c, 0, 64, 88
2, 48808, Control_c, 0, 64, 56
2, 48815, Control_c, 0, 64, 0
2, 48871, Control_c, 0, 64, 40
2, 48877, Control_c, 0, 64, 104
2, 48883, Control_c, 0, 64, 127
2, 49062, Note_on_c, 0, 72, 68
2, 49072, Note_on_c, 0, 64, 33
2, 49077, Note_on_c, 0, 48, 34
2, 49078, Note_on_c, 0, 57, 22
2, 49082, Control_c, 0, 64, 56
2, 49088, Control_c, 0, 64, 0
2, 49108, Control_c, 0, 64, 24
2, 49115, Control_c, 0, 64, 72
2, 49121, Control_c, 0, 64, 127
2, 49140, Note_off_c, 0, 48, 64
2, 49142, Note_off_c, 0, 57, 64
2, 49171, Note_off_c, 0, 72, 64
2, 49192, Note_off_c, 0, 64, 64
2, 49275, Note_on_c, 0, 69, 69
2, 49278, Note_on_c, 0, 50, 46
2, 49280, Note_on_c, 0, 65, 52
2, 49281, Note_on_c, 0, 57, 33
2, 49283, Control_c, 0, 64, 72
2, 49290, Control_c, 0, 64, 24
2, 49296, Control_c, 0, 64, 0
2, 49302, Control_c, 0, 64, 24
2, 49308, Control_c, 0, 64, 56
2, 49313, Control_c, 0, 64, 104
2, 49316, Note_off_c, 0, 65, 64
2, 49318, Note_off_c, 0, 57, 64
2, 49318, Note_off_c, 0, 50, 64
2, 49321, Control_c, 0, 64, 127
2, 49352, Note_off_c, 0, 69, 64
2, 49395, Note_on_c, 0, 72, 77
2, 49402, Note_on_c, 0, 57, 34
2, 49403, Note_on_c, 0, 64, 51
2, 49408, Note_on_c, 0, 52, 44
2, 49415, Control_c, 0, 64, 40
2, 49421, Control_c, 0, 64, 0
2, 49452, Control_c, 0, 64, 40
2, 49458, Control_c, 0, 64, 104
2, 49466, Note_off_c, 0, 64, 64
2, 49466, Control_c, 0, 64, 127
2, 49493, Note_off_c, 0, 52, 64
2, 49495, Note_off_c, 0, 57, 64
2, 49513, Note_off_c, 0, 72, 64
2, 49585, Note_on_c, 0, 74, 79
2, 49588, Note_on_c, 0, 62, 58
2, 49590, Control_c, 0, 64, 104
2, 49593, Note_on_c, 0, 57, 36
2, 49596, Note_on_c, 0, 53, 44
2, 49596, Control_c, 0, 64, 40
2, 49602, Control_c, 0, 64, 0
2, 49622, Control_c, 0, 64, 40
2, 49628, Control_c, 0, 64, 104
2, 49630, Note_off_c, 0, 62, 64
2, 49633, Note_off_c, 0, 57, 64
2, 49633, Note_off_c, 0, 74, 64
2, 49633, Control_c, 0, 64, 127
2, 49636, Note_off_c, 0, 53, 64
2, 49705, Note_on_c, 0, 72, 74
2, 49711, Note_on_c, 0, 57, 29
2, 49712, Note_on_c, 0, 64, 52
2, 49713, Note_on_c, 0, 52, 38
2, 49733, Control_c, 0, 64, 72
2, 49740, Control_c, 0, 64, 0
2, 49778, Control_c, 0, 64, 72
2, 49785, Control_c, 0, 64, 127
2, 49813, Note_off_c, 0, 57, 64
2, 49818, Note_off_c, 0, 72, 64
2, 49830, Note_off_c, 0, 52, 64
2, 49851, Note_off_c, 0, 64, 64
2, 49857, Note_on_c, 0, 71, 71
2, 49892, Note_off_c, 0, 71, 64
2, 49907, Note_on_c, 0, 69, 71
2, 49910, Control_c, 0, 64, 88
2, 49911, Note_on_c, 0, 57, 38
2, 49911, Note_on_c, 0, 65, 56
2, 49912, Note_on_c, 0, 50, 46
2, 49916, Control_c, 0, 64, 0
2, 49946, Control_c, 0, 64, 56
2, 49952, Control_c, 0, 64, 127
2, 49956, Note_off_c, 0, 65, 64
2, 49961, Note_off_c, 0, 57, 64
2, 49963, Note_off_c, 0, 50, 64
2, 49978, Note_off_c, 0, 69, 64
2, 50030, Note_on_c, 0, 72, 77
2, 50035, Note_on_c, 0, 57, 39
2, 50036, Note_on_c, 0, 64, 50
2, 50037, Note_on_c, 0, 52, 47
2, 50060, Control_c, 0, 64, 88
2, 50066, Control_c, 0, 64, 24
2, 50072, Control_c, 0, 64, 0
2, 50103, Control_c, 0, 64, 56
2, 50108, Control_c, 0, 64, 127
2, 50111, Note_off_c, 0, 64, 64
2, 50123, Note_off_c, 0, 57, 64
2, 50126, Note_off_c, 0, 52, 64
2, 50137, Note_off_c, 0, 72, 64
2, 50216, Note_on_c, 0, 74, 77
2, 50220, Note_on_c, 0, 62, 55
2, 50222, Control_c, 0, 64, 72
2, 50223, Note_on_c, 0, 57, 41
2, 50223, Note_on_c, 0, 53, 43
2, 50228, Control_c, 0, 64, 0
2, 50253, Control_c, 0, 64, 40
2, 50258, Control_c, 0, 64, 127
2, 50261, Note_off_c, 0, 57, 64
2, 50265, Note_off_c, 0, 53, 64
2, 50268, Note_off_c, 0, 62, 64
2, 50268, Note_off_c, 0, 74, 64
2, 50335, Note_on_c, 0, 72, 80
2, 50340, Note_on_c, 0, 64, 56
2, 50341, Note_on_c, 0, 52, 50
2, 50341, Note_on_c, 0, 57, 40
2, 50346, Control_c, 0, 64, 72
2, 50353, Control_c, 0, 64, 0
2, 50385, Control_c, 0, 64, 56
2, 50391, Control_c, 0, 64, 127
2, 50412, Note_off_c, 0, 52, 64
2, 50420, Note_off_c, 0, 57, 64
2, 50436, Note_off_c, 0, 72, 64
2, 50477, Note_off_c, 0, 64, 64
2, 50478, Note_on_c, 0, 71, 72
2, 50516, Note_off_c, 0, 71, 64
2, 50535, Note_on_c, 0, 69, 82
2, 50535, Control_c, 0, 64, 40
2, 50538, Note_on_c, 0, 64, 60
2, 50540, Control_c, 0, 64, 0
2, 50543, Note_on_c, 0, 60, 46
2, 50545, Note_on_c, 0, 52, 43
2, 50561, Note_off_c, 0, 52, 64
2, 50566, Control_c, 0, 64, 72
2, 50568, Note_off_c, 0, 69, 64
2, 50571, Note_off_c, 0, 60, 64
2, 50571, Control_c, 0, 64, 127
2, 50576, Note_off_c, 0, 64, 64
2, 50663, Note_on_c, 0, 71, 75
2, 50667, Note_on_c, 0, 62, 59
2, 50670, Note_on_c, 0, 69, 64
2, 50670, Note_on_c, 0, 64, 62
2, 50675, Note_on_c, 0, 52, 42
2, 50703, Control_c, 0, 64, 56
2, 50710, Control_c, 0, 64, 0
2, 50747, Control_c, 0, 64, 72
2, 50752, Control_c, 0, 64, 127
2, 50777, Note_off_c, 0, 52, 64
2, 50811, Note_off_c, 0, 64, 64
2, 50812, Note_off_c, 0, 62, 64
2, 50831, Note_off_c, 0, 69, 64
2, 50888, Note_on_c, 0, 68, 50
2, 50895, Note_on_c, 0, 62, 41
2, 50897, Note_on_c, 0, 64, 45
2, 50898, Note_on_c, 0, 52, 48
2, 50910, Control_c, 0, 64, 24
2, 50915, Control_c, 0, 64, 0
2, 50943, Note_off_c, 0, 52, 64
2, 50953, Control_c, 0, 64, 88
2, 50960, Control_c, 0, 64, 127
2, 50972, Note_off_c, 0, 62, 64
2, 50977, Note_off_c, 0, 68, 64
2, 50981, Note_off_c, 0, 64, 64
2, 50981, Note_off_c, 0, 71, 64
2, 51032, Note_on_c, 0, 69, 68
2, 51037, Note_on_c, 0, 60, 43
2, 51037, Note_on_c, 0, 64, 43
2, 51058, Note_on_c, 0, 45, 33
2, 51066, Control_c, 0, 64, 88
2, 51071, Control_c, 0, 64, 0
2, 51122, Control_c, 0, 64, 72
2, 51128, Control_c, 0, 64, 127
2, 51130, Note_off_c, 0, 45, 64
2, 51148, Note_off_c, 0, 64, 64
2, 51156, Note_off_c, 0, 60, 64
2, 51260, Note_on_c, 0, 60, 43
2, 51260, Note_on_c, 0, 64, 40
2, 51263, Note_on_c, 0, 45, 39
2, 51272, Control_c, 0, 64, 72
2, 51278, Control_c, 0, 64, 0
2, 51297, Control_c, 0, 64, 40
2, 51303, Control_c, 0, 64, 88
2, 51306, Note_off_c, 0, 60, 64
2, 51307, Note_off_c, 0, 64, 64
2, 51310, Note_off_c, 0, 45, 64
2, 51310, Control_c, 0, 64, 127
2, 51321, Note_off_c, 0, 69, 64
2, 51440, Note_on_c, 0, 72, 77
2, 51446, Note_on_c, 0, 69, 52
2, 51447, Note_on_c, 0, 63, 36
2, 51456, Note_on_c, 0, 42, 43
2, 51478, Control_c, 0, 64, 56
2, 51485, Control_c, 0, 64, 0
2, 51528, Control_c, 0, 64, 72
2, 51535, Control_c, 0, 64, 127
2, 51551, Note_off_c, 0, 42, 64
2, 51560, Note_off_c, 0, 63, 64
2, 51560, Note_off_c, 0, 69, 64
2, 51666, Note_on_c, 0, 69, 44
2, 51667, Note_on_c, 0, 63, 38
2, 51672, Note_on_c, 0, 42, 36
2, 51708, Note_off_c, 0, 42, 64
2, 51710, Note_off_c, 0, 63, 64
2, 51728, Note_off_c, 0, 69, 64
2, 51752, Note_off_c, 0, 72, 64
2, 51775, Note_on_c, 0, 62, 54
2, 51785, Control_c, 0, 64, 24
2, 51790, Note_on_c, 0, 43, 43
2, 51791, Control_c, 0, 64, 0
2, 51807, Note_on_c, 0, 67, 54
2, 51822, Control_c, 0, 64, 40
2, 51825, Note_on_c, 0, 72, 64
2, 51828, Control_c, 0, 64, 104
2, 51836, Control_c, 0, 64, 127
2, 51870, Note_off_c, 0, 72, 64
2, 51870, Note_on_c, 0, 70, 71
2, 51891, Control_c, 0, 64, 72
2, 51897, Control_c, 0, 64, 0
2, 51930, Note_off_c, 0, 67, 64
2, 51935, Control_c, 0, 64, 72
2, 51941, Control_c, 0, 64, 127
2, 51956, Note_off_c, 0, 70, 64
2, 51966, Note_off_c, 0, 62, 64
2, 51975, Note_off_c, 0, 43, 64
2, 52050, Note_on_c, 0, 66, 40
2, 52050, Note_on_c, 0, 45, 47
2, 52050, Note_on_c, 0, 69, 63
2, 52050, Note_on_c, 0, 60, 47
2, 52071, Note_off_c, 0, 66, 64
2, 52073, Note_off_c, 0, 60, 64
2, 52092, Note_off_c, 0, 69, 64
2, 52093, Note_off_c, 0, 45, 64
2, 52112, Note_on_c, 0, 67, 66
2, 52118, Note_on_c, 0, 46, 50
2, 52122, Note_on_c, 0, 62, 51
2, 52128, Control_c, 0, 64, 88
2, 52135, Control_c, 0, 64, 0
2, 52180, Control_c, 0, 64, 88
2, 52186, Control_c, 0, 64, 127
2, 52193, Note_off_c, 0, 62, 64
2, 52208, Note_off_c, 0, 67, 64
2, 52236, Note_off_c, 0, 46, 64
2, 52245, Note_on_c, 0, 69, 68
2, 52250, Note_on_c, 0, 58, 32
2, 52251, Note_on_c, 0, 48, 55
2, 52256, Note_on_c, 0, 64, 40
2, 52272, Control_c, 0, 64, 104
2, 52280, Control_c, 0, 64, 0
2, 52317, Control_c, 0, 64, 40
2, 52323, Control_c, 0, 64, 104
2, 52330, Control_c, 0, 64, 127
2, 52345, Note_off_c, 0, 48, 64
2, 52355, Note_off_c, 0, 64, 64
2, 52356, Note_off_c, 0, 58, 64
2, 52461, Control_c, 0, 64, 72
2, 52463, Note_on_c, 0, 64, 44
2, 52465, Note_on_c, 0, 58, 34
2, 52467, Control_c, 0, 64, 0
2, 52470, Note_on_c, 0, 36, 37
2, 52470, Note_on_c, 0, 48, 41
2, 52485, Control_c, 0, 64, 88
2, 52492, Control_c, 0, 64, 127
2, 52503, Note_off_c, 0, 64, 64
2, 52520, Note_off_c, 0, 36, 64
2, 52523, Note_off_c, 0, 58, 64
2, 52525, Note_off_c, 0, 69, 64
2, 52530, Note_off_c, 0, 48, 64
2, 52613, Note_on_c, 0, 65, 59
2, 52616, Note_on_c, 0, 57, 38
2, 52620, Note_on_c, 0, 41, 31
2, 52628, Note_on_c, 0, 48, 33
2, 52636, Control_c, 0, 64, 72
2, 52642, Control_c, 0, 64, 0
2, 52685, Control_c, 0, 64, 88
2, 52691, Control_c, 0, 64, 127
2, 52702, Note_off_c, 0, 41, 64
2, 52707, Note_off_c, 0, 48, 64
2, 52712, Note_off_c, 0, 57, 64
2, 52835, Note_on_c, 0, 57, 42
2, 52838, Note_on_c, 0, 41, 39
2, 52871, Note_off_c, 0, 57, 64
2, 52880, Note_off_c, 0, 41, 64
2, 52886, Note_off_c, 0, 65, 64
2, 53035, Note_on_c, 0, 72, 66
2, 53042, Note_on_c, 0, 69, 48
2, 53042, Note_on_c, 0, 42, 40
2, 53045, Note_on_c, 0, 63, 29
2, 53073, Control_c, 0, 64, 88
2, 53080, Control_c, 0, 64, 0
2, 53123, Control_c, 0, 64, 56
2, 53130, Control_c, 0, 64, 127
2, 53151, Note_off_c, 0, 42, 64
2, 53166, Note_off_c, 0, 63, 64
2, 53181, Note_off_c, 0, 69, 64
2, 53252, Note_on_c, 0, 63, 37
2, 53253, Note_on_c, 0, 69, 39
2, 53258, Note_on_c, 0, 42, 26
2, 53300, Note_off_c, 0, 42, 64
2, 53308, Note_off_c, 0, 63, 64
2, 53351, Note_off_c, 0, 69, 64
2, 53361, Note_off_c, 0, 72, 64
2, 53367, Control_c, 0, 64, 104
2, 53372, Note_on_c, 0, 62, 55
2, 53373, Control_c, 0, 64, 0
2, 53376, Note_on_c, 0, 43, 41
2, 53405, Control_c, 0, 64, 24
2, 53411, Control_c, 0, 64, 88
2, 53412, Note_on_c, 0, 67, 53
2, 53417, Control_c, 0, 64, 127
2, 53440, Note_on_c, 0, 72, 62
2, 53481, Note_off_c, 0, 72, 64
2, 53483, Note_on_c, 0, 70, 59
2, 53507, Note_off_c, 0, 67, 64
2, 53517, Control_c, 0, 64, 40
2, 53523, Control_c, 0, 64, 0
2, 53555, Control_c, 0, 64, 56
2, 53561, Control_c, 0, 64, 127
2, 53572, Note_off_c, 0, 70, 64
2, 53592, Note_off_c, 0, 62, 64
2, 53607, Note_off_c, 0, 43, 64
2, 53673, Note_on_c, 0, 69, 58
2, 53673, Note_on_c, 0, 66, 38
2, 53673, Note_on_c, 0, 60, 41
2, 53673, Note_on_c, 0, 45, 47
2, 53678, Control_c, 0, 64, 104
2, 53686, Control_c, 0, 64, 72
2, 53692, Control_c, 0, 64, 88
2, 53698, Control_c, 0, 64, 127
2, 53700, Note_off_c, 0, 60, 64
2, 53710, Note_off_c, 0, 66, 64
2, 53713, Note_off_c, 0, 45, 64
2, 53717, Note_off_c, 0, 69, 64
2, 53738, Note_on_c, 0, 67, 61
2, 53745, Note_on_c, 0, 62, 56
2, 53746, Note_on_c, 0, 46, 44
2, 53767, Control_c, 0, 64, 24
2, 53775, Control_c, 0, 64, 0
2, 53811, Control_c, 0, 64, 88
2, 53813, Note_off_c, 0, 67, 64
2, 53816, Control_c, 0, 64, 127
2, 53818, Note_off_c, 0, 62, 64
2, 53873, Note_off_c, 0, 46, 64
2, 53876, Note_on_c, 0, 69, 65
2, 53878, Note_on_c, 0, 58, 34
2, 53886, Note_on_c, 0, 64, 47
2, 53887, Note_on_c, 0, 48, 54
2, 53905, Control_c, 0, 64, 72
2, 53911, Control_c, 0, 64, 0
2, 53955, Control_c, 0, 64, 72
2, 53961, Control_c, 0, 64, 127
2, 53978, Note_off_c, 0, 64, 64
2, 53982, Note_off_c, 0, 58, 64
2, 53997, Note_off_c, 0, 48, 64
2, 54095, Note_on_c, 0, 48, 74
2, 54095, Note_on_c, 0, 64, 41
2, 54097, Note_on_c, 0, 58, 26
2, 54100, Control_c, 0, 64, 72
2, 54106, Control_c, 0, 64, 0
2, 54112, Note_off_c, 0, 69, 64
2, 54122, Control_c, 0, 64, 56
2, 54128, Control_c, 0, 64, 104
2, 54135, Control_c, 0, 64, 127
2, 54158, Note_off_c, 0, 64, 64
2, 54165, Note_off_c, 0, 58, 64
2, 54167, Note_off_c, 0, 48, 64
2, 54247, Note_on_c, 0, 48, 66
2, 54252, Note_on_c, 0, 66, 57
2, 54252, Note_on_c, 0, 57, 39
2, 54256, Note_on_c, 0, 63, 48
2, 54286, Control_c, 0, 64, 56
2, 54292, Control_c, 0, 64, 0
2, 54330, Control_c, 0, 64, 40
2, 54336, Control_c, 0, 64, 104
2, 54342, Control_c, 0, 64, 127
2, 54417, Note_on_c, 0, 46, 55
2, 54425, Note_off_c, 0, 48, 64
2, 54448, Control_c, 0, 64, 56
2, 54453, Control_c, 0, 64, 0
2, 54470, Note_off_c, 0, 46, 64
2, 54476, Note_on_c, 0, 45, 74
2, 54550, Control_c, 0, 64, 56
2, 54556, Control_c, 0, 64, 104
2, 54562, Control_c, 0, 64, 127
2, 54566, Note_off_c, 0, 57, 64
2, 54591, Note_off_c, 0, 45, 64
2, 54603, Note_on_c, 0, 60, 42
2, 54607, Note_off_c, 0, 63, 64
2, 54608, Note_on_c, 0, 51, 57
2, 54617, Control_c, 0, 64, 24
2, 54623, Control_c, 0, 64, 0
2, 54655, Control_c, 0, 64, 72
2, 54661, Control_c, 0, 64, 127
2, 54698, Note_off_c, 0, 51, 64
2, 54801, Note_on_c, 0, 51, 65
2, 54832, Note_off_c, 0, 66, 64
2, 54863, Note_off_c, 0, 60, 64
2, 54872, Note_off_c, 0, 51, 64
2, 54927, Note_on_c, 0, 66, 57
2, 54928, Note_on_c, 0, 63, 50
2, 54933, Note_on_c, 0, 57, 46
2, 54940, Note_on_c, 0, 48, 62
2, 54942, Control_c, 0, 64, 104
2, 54948, Control_c, 0, 64, 24
2, 54955, Control_c, 0, 64, 0
2, 55006, Control_c, 0, 64, 88
2, 55012, Control_c, 0, 64, 127
2, 55075, Note_off_c, 0, 48, 64
2, 55083, Note_on_c, 0, 46, 48
2, 55117, Control_c, 0, 64, 56
2, 55123, Control_c, 0, 64, 0
2, 55126, Note_off_c, 0, 46, 64
2, 55137, Note_on_c, 0, 45, 66
2, 55175, Control_c, 0, 64, 72
2, 55181, Control_c, 0, 64, 104
2, 55187, Control_c, 0, 64, 127
2, 55252, Note_off_c, 0, 45, 64
2, 55263, Note_off_c, 0, 57, 64
2, 55266, Note_on_c, 0, 51, 50
2, 55267, Note_on_c, 0, 60, 48
2, 55276, Note_off_c, 0, 63, 64
2, 55300, Control_c, 0, 64, 88
2, 55306, Control_c, 0, 64, 24
2, 55312, Control_c, 0, 64, 0
2, 55350, Control_c, 0, 64, 40
2, 55356, Control_c, 0, 64, 127
2, 55363, Note_off_c, 0, 51, 64
2, 55470, Note_on_c, 0, 51, 56
2, 55482, Note_off_c, 0, 66, 64
2, 55537, Note_off_c, 0, 60, 64
2, 55556, Note_off_c, 0, 51, 64
2, 55625, Note_on_c, 0, 66, 58
2, 55626, Note_on_c, 0, 56, 46
2, 55627, Note_on_c, 0, 63, 46
2, 55635, Note_on_c, 0, 48, 55
2, 55650, Control_c, 0, 64, 104
2, 55656, Control_c, 0, 64, 0
2, 55706, Control_c, 0, 64, 56
2, 55711, Control_c, 0, 64, 104
2, 55717, Control_c, 0, 64, 127
2, 55792, Note_off_c, 0, 48, 64
2, 55835, Note_on_c, 0, 46, 43
2, 55888, Note_off_c, 0, 46, 64
2, 55910, Note_off_c, 0, 56, 64
2, 55922, Note_on_c, 0, 44, 39
2, 55931, Control_c, 0, 64, 104
2, 55937, Control_c, 0, 64, 40
2, 55943, Control_c, 0, 64, 0
2, 55975, Control_c, 0, 64, 24
2, 55976, Note_off_c, 0, 63, 64
2, 55981, Control_c, 0, 64, 88
2, 55987, Control_c, 0, 64, 127
2, 56115, Note_on_c, 0, 58, 38
2, 56120, Note_on_c, 0, 60, 25
2, 56162, Control_c, 0, 64, 72
2, 56168, Control_c, 0, 64, 0
2, 56212, Control_c, 0, 64, 40
2, 56218, Control_c, 0, 64, 127
2, 56257, Note_off_c, 0, 58, 64
2, 56261, Note_off_c, 0, 60, 64
2, 56327, Note_on_c, 0, 58, 42
2, 56381, Note_off_c, 0, 58, 64
2, 56435, Note_on_c, 0, 61, 48
2, 56447, Note_on_c, 0, 58, 37
2, 56487, Control_c, 0, 64, 88
2, 56493, Control_c, 0, 64, 0
2, 56516, Note_off_c, 0, 66, 64
2, 56518, Control_c, 0, 64, 24
2, 56525, Control_c, 0, 64, 88
2, 56531, Control_c, 0, 64, 127
2, 56543, Note_off_c, 0, 58, 64
2, 56626, Note_on_c, 0, 65, 63
2, 56627, Note_on_c, 0, 56, 42
2, 56643, Note_off_c, 0, 61, 64
2, 56693, Note_off_c, 0, 65, 64
2, 56712, Note_off_c, 0, 56, 64
2, 56742, Note_on_c, 0, 70, 62
2, 56751, Note_on_c, 0, 60, 41
2, 56751, Note_on_c, 0, 63, 44
2, 56756, Note_on_c, 0, 54, 46
2, 56775, Control_c, 0, 64, 88
2, 56781, Control_c, 0, 64, 0
2, 56826, Control_c, 0, 64, 104
2, 56831, Note_off_c, 0, 54, 64
2, 56831, Control_c, 0, 64, 127
2, 56843, Note_off_c, 0, 70, 64
2, 56925, Note_on_c, 0, 70, 73
2, 56931, Note_on_c, 0, 54, 46
2, 56955, Note_off_c, 0, 60, 64
2, 56976, Note_off_c, 0, 54, 64
2, 56982, Note_off_c, 0, 70, 64
2, 57012, Note_off_c, 0, 63, 64
2, 57033, Note_on_c, 0, 70, 71
2, 57045, Note_on_c, 0, 61, 39
2, 57045, Note_on_c, 0, 54, 38
2, 57075, Control_c, 0, 64, 40
2, 57081, Control_c, 0, 64, 0
2, 57120, Control_c, 0, 64, 40
2, 57126, Control_c, 0, 64, 104
2, 57132, Control_c, 0, 64, 127
2, 57173, Note_off_c, 0, 70, 64
2, 57176, Note_off_c, 0, 54, 64
2, 57208, Note_on_c, 0, 68, 74
2, 57223, Note_on_c, 0, 53, 47
2, 57226, Note_off_c, 0, 44, 64
2, 57246, Note_off_c, 0, 61, 64
2, 57251, Note_off_c, 0, 68, 64
2, 57265, Note_off_c, 0, 53, 64
2, 57286, Note_on_c, 0, 44, 35
2, 57325, Note_on_c, 0, 66, 72
2, 57332, Note_on_c, 0, 60, 56
2, 57336, Note_on_c, 0, 58, 39
2, 57343, Control_c, 0, 64, 72
2, 57350, Control_c, 0, 64, 0
2, 57387, Control_c, 0, 64, 40
2, 57393, Control_c, 0, 64, 127
2, 57415, Note_off_c, 0, 66, 64
2, 57433, Note_off_c, 0, 58, 64
2, 57496, Note_off_c, 0, 60, 64
2, 57501, Note_on_c, 0, 66, 73
2, 57512, Note_on_c, 0, 58, 34
2, 57550, Note_off_c, 0, 66, 64
2, 57563, Note_off_c, 0, 58, 64
2, 57608, Note_on_c, 0, 66, 76
2, 57618, Note_on_c, 0, 61, 47
2, 57621, Note_on_c, 0, 58, 37
2, 57637, Control_c, 0, 64, 72
2, 57643, Control_c, 0, 64, 0
2, 57681, Control_c, 0, 64, 88
2, 57687, Control_c, 0, 64, 127
2, 57693, Note_off_c, 0, 58, 64
2, 57743, Note_off_c, 0, 66, 64
2, 57781, Note_on_c, 0, 65, 79
2, 57786, Note_on_c, 0, 56, 48
2, 57791, Note_off_c, 0, 61, 64
2, 57820, Note_off_c, 0, 56, 64
2, 57832, Note_off_c, 0, 65, 64
2, 57893, Note_on_c, 0, 70, 78
2, 57898, Note_on_c, 0, 54, 37
2, 57902, Note_on_c, 0, 59, 53
2, 57903, Note_on_c, 0, 63, 46
2, 57918, Control_c, 0, 64, 56
2, 57926, Control_c, 0, 64, 0
2, 57962, Control_c, 0, 64, 56
2, 57968, Control_c, 0, 64, 127
2, 57970, Note_off_c, 0, 70, 64
2, 57993, Note_off_c, 0, 54, 64
2, 58080, Note_on_c, 0, 54, 40
2, 58081, Note_on_c, 0, 70, 74
2, 58095, Note_off_c, 0, 63, 64
2, 58115, Note_off_c, 0, 59, 64
2, 58131, Note_off_c, 0, 70, 64
2, 58140, Note_off_c, 0, 54, 64
2, 58225, Note_on_c, 0, 70, 61
2, 58231, Note_on_c, 0, 59, 40
2, 58231, Note_on_c, 0, 62, 47
2, 58235, Note_on_c, 0, 54, 29
2, 58263, Control_c, 0, 64, 88
2, 58270, Control_c, 0, 64, 0
2, 58306, Control_c, 0, 64, 104
2, 58313, Control_c, 0, 64, 127
2, 58381, Note_off_c, 0, 54, 64
2, 58391, Note_off_c, 0, 70, 64
2, 58437, Note_on_c, 0, 68, 55
2, 58453, Note_on_c, 0, 53, 42
2, 58462, Control_c, 0, 64, 24
2, 58465, Note_off_c, 0, 59, 64
2, 58468, Control_c, 0, 64, 0
2, 58490, Note_off_c, 0, 62, 64
2, 58495, Control_c, 0, 64, 24
2, 58501, Control_c, 0, 64, 88
2, 58507, Control_c, 0, 64, 127
2, 58513, Note_off_c, 0, 44, 64
2, 58520, Note_off_c, 0, 53, 64
2, 58611, Note_on_c, 0, 62, 37
2, 58613, Note_on_c, 0, 59, 58
2, 58627, Note_off_c, 0, 68, 64
2, 58645, Control_c, 0, 64, 24
2, 58651, Control_c, 0, 64, 0
2, 58682, Control_c, 0, 64, 72
2, 58688, Control_c, 0, 64, 127
2, 58736, Note_off_c, 0, 59, 64
2, 58802, Note_on_c, 0, 59, 68
2, 58910, Note_off_c, 0, 62, 64
2, 58931, Note_off_c, 0, 59, 64
2, 58931, Note_on_c, 0, 56, 60
2, 58932, Note_on_c, 0, 65, 38
2, 58935, Note_on_c, 0, 71, 51
2, 58957, Control_c, 0, 64, 104
2, 58963, Control_c, 0, 64, 24
2, 58970, Control_c, 0, 64, 0
2, 59001, Control_c, 0, 64, 88
2, 59007, Control_c, 0, 64, 127
2, 59051, Note_off_c, 0, 56, 64
2, 59062, Note_on_c, 0, 54, 61
2, 59103, Note_off_c, 0, 54, 64
2, 59113, Note_on_c, 0, 53, 67
2, 59150, Note_off_c, 0, 71, 64
2, 59153, Note_off_c, 0, 65, 64
2, 59226, Note_on_c, 0, 68, 55
2, 59227, Note_off_c, 0, 53, 64
2, 59235, Note_on_c, 0, 59, 73
2, 59235, Note_on_c, 0, 62, 49
2, 59238, Control_c, 0, 64, 104
2, 59245, Control_c, 0, 64, 56
2, 59251, Control_c, 0, 64, 0
2, 59307, Control_c, 0, 64, 88
2, 59313, Control_c, 0, 64, 127
2, 59341, Note_off_c, 0, 59, 64
2, 59431, Control_c, 0, 64, 88
2, 59437, Note_on_c, 0, 59, 58
2, 59437, Control_c, 0, 64, 40
2, 59445, Control_c, 0, 64, 0
2, 59457, Control_c, 0, 64, 56
2, 59463, Control_c, 0, 64, 104
2, 59470, Control_c, 0, 64, 127
2, 59527, Note_off_c, 0, 62, 64
2, 59565, Note_off_c, 0, 59, 64
2, 59566, Note_off_c, 0, 68, 64
2, 59591, Note_on_c, 0, 56, 42
2, 59592, Note_on_c, 0, 65, 38
2, 59596, Note_on_c, 0, 71, 39
2, 59626, Control_c, 0, 64, 88
2, 59632, Control_c, 0, 64, 24
2, 59638, Control_c, 0, 64, 0
2, 59676, Control_c, 0, 64, 56
2, 59683, Control_c, 0, 64, 127
2, 59732, Note_off_c, 0, 65, 64
2, 59741, Note_off_c, 0, 56, 64
2, 59816, Note_on_c, 0, 49, 54
2, 59840, Control_c, 0, 64, 72
2, 59846, Control_c, 0, 64, 0
2, 59876, Control_c, 0, 64, 72
2, 59882, Control_c, 0, 64, 127
2, 59936, Note_on_c, 0, 63, 65
2, 59951, Control_c, 0, 64, 56
2, 59957, Control_c, 0, 64, 0
2, 59970, Control_c, 0, 64, 24
2, 59976, Control_c, 0, 64, 72
2, 59982, Control_c, 0, 64, 127
2, 60025, Note_off_c, 0, 63, 64
2, 60106, Note_on_c, 0, 63, 68
2, 60113, Control_c, 0, 64, 88
2, 60120, Control_c, 0, 64, 24
2, 60126, Control_c, 0, 64, 0
2, 60132, Control_c, 0, 64, 40
2, 60138, Control_c, 0, 64, 88
2, 60146, Control_c, 0, 64, 127
2, 60177, Note_off_c, 0, 63, 64
2, 60216, Note_off_c, 0, 71, 64
2, 60221, Note_on_c, 0, 66, 50
2, 60227, Note_on_c, 0, 63, 53
2, 60251, Control_c, 0, 64, 104
2, 60257, Control_c, 0, 64, 24
2, 60263, Control_c, 0, 64, 0
2, 60282, Control_c, 0, 64, 24
2, 60290, Control_c, 0, 64, 88
2, 60296, Control_c, 0, 64, 127
2, 60315, Note_off_c, 0, 63, 64
2, 60387, Note_on_c, 0, 70, 77
2, 60388, Control_c, 0, 64, 104
2, 60392, Note_on_c, 0, 61, 48
2, 60395, Control_c, 0, 64, 56
2, 60407, Note_off_c, 0, 66, 64
2, 60413, Control_c, 0, 64, 127
2, 60442, Note_off_c, 0, 61, 64
2, 60480, Note_off_c, 0, 70, 64
2, 60498, Note_on_c, 0, 75, 79
2, 60507, Note_on_c, 0, 68, 55
2, 60507, Note_on_c, 0, 59, 52
2, 60510, Note_on_c, 0, 65, 53
2, 60520, Control_c, 0, 64, 104
2, 60526, Control_c, 0, 64, 24
2, 60532, Control_c, 0, 64, 0
2, 60557, Control_c, 0, 64, 56
2, 60563, Control_c, 0, 64, 127
2, 60588, Note_off_c, 0, 75, 64
2, 60593, Note_off_c, 0, 59, 64
2, 60665, Note_on_c, 0, 75, 82
2, 60671, Note_off_c, 0, 65, 64
2, 60677, Note_on_c, 0, 59, 42
2, 60695, Note_off_c, 0, 68, 64
2, 60698, Note_off_c, 0, 59, 64
2, 60711, Note_off_c, 0, 75, 64
2, 60777, Note_on_c, 0, 75, 72
2, 60786, Note_on_c, 0, 66, 53
2, 60790, Note_on_c, 0, 59, 43
2, 60795, Control_c, 0, 64, 104
2, 60802, Control_c, 0, 64, 24
2, 60808, Control_c, 0, 64, 0
2, 60838, Control_c, 0, 64, 88
2, 60845, Control_c, 0, 64, 127
2, 60893, Note_off_c, 0, 59, 64
2, 60900, Note_off_c, 0, 75, 64
2, 60938, Note_off_c, 0, 49, 64
2, 60938, Note_on_c, 0, 58, 38
2, 60940, Note_on_c, 0, 73, 80
2, 60961, Note_off_c, 0, 66, 64
2, 60982, Note_off_c, 0, 73, 64
2, 60987, Note_off_c, 0, 58, 64
2, 61005, Note_on_c, 0, 49, 46
2, 61058, Note_on_c, 0, 71, 80
2, 61063, Note_on_c, 0, 65, 60
2, 61063, Note_on_c, 0, 63, 56
2, 61065, Control_c, 0, 64, 88
2, 61071, Control_c, 0, 64, 24
2, 61077, Control_c, 0, 64, 0
2, 61108, Control_c, 0, 64, 40
2, 61115, Control_c, 0, 64, 104
2, 61121, Control_c, 0, 64, 127
2, 61128, Note_off_c, 0, 71, 64
2, 61143, Note_off_c, 0, 63, 64
2, 61216, Note_off_c, 0, 65, 64
2, 61220, Note_on_c, 0, 71, 82
2, 61223, Note_on_c, 0, 63, 61
2, 61261, Note_off_c, 0, 71, 64
2, 61262, Note_off_c, 0, 63, 64
2, 61328, Note_on_c, 0, 71, 75
2, 61331, Note_on_c, 0, 66, 54
2, 61335, Note_on_c, 0, 63, 49
2, 61352, Control_c, 0, 64, 104
2, 61358, Control_c, 0, 64, 0
2, 61388, Note_off_c, 0, 63, 64
2, 61396, Control_c, 0, 64, 56
2, 61402, Control_c, 0, 64, 127
2, 61478, Note_off_c, 0, 71, 64
2, 61496, Note_on_c, 0, 70, 75
2, 61497, Note_off_c, 0, 66, 64
2, 61502, Control_c, 0, 64, 88
2, 61506, Note_on_c, 0, 61, 48
2, 61508, Control_c, 0, 64, 0
2, 61527, Control_c, 0, 64, 40
2, 61533, Control_c, 0, 64, 72
2, 61540, Control_c, 0, 64, 127
2, 61546, Note_off_c, 0, 61, 64
2, 61548, Note_off_c, 0, 70, 64
2, 61612, Note_on_c, 0, 75, 83
2, 61618, Note_on_c, 0, 68, 55
2, 61620, Note_on_c, 0, 59, 57
2, 61621, Note_on_c, 0, 65, 58
2, 61632, Control_c, 0, 64, 104
2, 61638, Control_c, 0, 64, 24
2, 61646, Control_c, 0, 64, 0
2, 61671, Control_c, 0, 64, 24
2, 61677, Control_c, 0, 64, 104
2, 61683, Control_c, 0, 64, 127
2, 61688, Note_off_c, 0, 59, 64
2, 61688, Note_off_c, 0, 75, 64
2, 61780, Note_off_c, 0, 68, 64
2, 61786, Note_on_c, 0, 75, 89
2, 61793, Note_on_c, 0, 59, 55
2, 61810, Note_off_c, 0, 65, 64
2, 61831, Note_off_c, 0, 59, 64
2, 61842, Note_off_c, 0, 75, 64
2, 61902, Note_on_c, 0, 75, 85
2, 61910, Note_on_c, 0, 64, 67
2, 61911, Note_on_c, 0, 67, 64
2, 61923, Note_on_c, 0, 59, 46
2, 61940, Control_c, 0, 64, 24
2, 61946, Control_c, 0, 64, 0
2, 61977, Control_c, 0, 64, 40
2, 61983, Control_c, 0, 64, 127
2, 62072, Note_off_c, 0, 75, 64
2, 62088, Note_on_c, 0, 73, 79
2, 62088, Note_on_c, 0, 58, 51
2, 62090, Note_off_c, 0, 67, 64
2, 62090, Control_c, 0, 64, 104
2, 62095, Note_off_c, 0, 59, 64
2, 62097, Control_c, 0, 64, 40
2, 62101, Note_off_c, 0, 49, 64
2, 62107, Note_off_c, 0, 64, 64
2, 62123, Note_off_c, 0, 73, 64
2, 62150, Note_off_c, 0, 58, 64
2, 62196, Control_c, 0, 64, 104
2, 62202, Note_on_c, 0, 79, 87
2, 62202, Note_on_c, 0, 67, 75
2, 62202, Note_on_c, 0, 73, 72
2, 62203, Control_c, 0, 64, 40
2, 62207, Note_on_c, 0, 64, 60
2, 62208, Control_c, 0, 64, 0
2, 62211, Note_on_c, 0, 70, 50
2, 62218, Note_on_c, 0, 52, 42
2, 62221, Note_off_c, 0, 70, 64
2, 62227, Note_off_c, 0, 67, 64
2, 62235, Control_c, 0, 64, 24
2, 62236, Note_off_c, 0, 52, 64
2, 62240, Note_off_c, 0, 79, 64
2, 62241, Control_c, 0, 64, 104
2, 62242, Note_off_c, 0, 73, 64
2, 62247, Control_c, 0, 64, 127
2, 62302, Note_off_c, 0, 64, 64
2, 62328, Note_on_c, 0, 80, 84
2, 62328, Note_on_c, 0, 68, 76
2, 62328, Note_on_c, 0, 73, 47
2, 62338, Note_off_c, 0, 73, 64
2, 62345, Note_off_c, 0, 80, 64
2, 62350, Note_off_c, 0, 68, 64
2, 62353, Control_c, 0, 64, 104
2, 62358, Control_c, 0, 64, 40
2, 62365, Note_on_c, 0, 73, 67
2, 62365, Control_c, 0, 64, 0
2, 62368, Note_on_c, 0, 81, 85
2, 62368, Note_on_c, 0, 69, 74
2, 62370, Note_on_c, 0, 64, 68
2, 62372, Control_c, 0, 64, 24
2, 62378, Control_c, 0, 64, 56
2, 62380, Note_off_c, 0, 69, 64
2, 62380, Note_on_c, 0, 52, 41
2, 62385, Control_c, 0, 64, 88
2, 62388, Note_off_c, 0, 64, 64
2, 62388, Note_off_c, 0, 73, 64
2, 62391, Control_c, 0, 64, 127
2, 62393, Note_off_c, 0, 81, 64
2, 62395, Note_off_c, 0, 52, 64
2, 62460, Control_c, 0, 64, 56
2, 62466, Control_c, 0, 64, 40
2, 62472, Note_on_c, 0, 82, 81
2, 62472, Note_on_c, 0, 61, 73
2, 62472, Note_on_c, 0, 70, 72
2, 62472, Control_c, 0, 64, 56
2, 62475, Note_on_c, 0, 49, 75
2, 62475, Note_on_c, 0, 79, 76
2, 62478, Note_on_c, 0, 76, 69
2, 62478, Control_c, 0, 64, 104
2, 62485, Control_c, 0, 64, 127
2, 62490, Note_off_c, 0, 76, 64
2, 62496, Note_off_c, 0, 61, 64
2, 62500, Note_off_c, 0, 49, 64
2, 62521, Note_off_c, 0, 79, 64
2, 62523, Note_off_c, 0, 70, 64
2, 62523, Note_off_c, 0, 82, 64
2, 62581, Note_on_c, 0, 83, 73
2, 62581, Note_on_c, 0, 79, 61
2, 62583, Note_on_c, 0, 71, 48
2, 62587, Note_on_c, 0, 59, 60
2, 62590, Note_on_c, 0, 76, 40
2, 62591, Note_off_c, 0, 83, 64
2, 62592, Note_off_c, 0, 79, 64
2, 62595, Note_on_c, 0, 47, 44
2, 62596, Note_off_c, 0, 71, 64
2, 62597, Note_off_c, 0, 59, 64
2, 62601, Note_off_c, 0, 76, 64
2, 62606, Note_off_c, 0, 47, 64
2, 62610, Control_c, 0, 64, 88
2, 62616, Control_c, 0, 64, 0
2, 62618, Note_on_c, 0, 84, 89
2, 62618, Note_on_c, 0, 79, 72
2, 62621, Note_on_c, 0, 76, 81
2, 62621, Note_on_c, 0, 71, 68
2, 62621, Note_on_c, 0, 72, 66
2, 62623, Note_on_c, 0, 58, 68
2, 62625, Note_on_c, 0, 46, 76
2, 62628, Control_c, 0, 64, 24
2, 62631, Note_off_c, 0, 76, 64
2, 62632, Note_off_c, 0, 71, 64
2, 62633, Control_c, 0, 64, 72
2, 62636, Note_off_c, 0, 46, 64
2, 62636, Note_off_c, 0, 72, 64
2, 62640, Control_c, 0, 64, 127
2, 62641, Note_off_c, 0, 79, 64
2, 62643, Note_off_c, 0, 58, 64
2, 62652, Note_off_c, 0, 84, 64
2, 62712, Note_on_c, 0, 85, 96
2, 62713, Note_on_c, 0, 73, 89
2, 62715, Note_on_c, 0, 82, 75
2, 62717, Control_c, 0, 64, 40
2, 62721, Note_on_c, 0, 67, 81
2, 62722, Note_on_c, 0, 55, 77
2, 62723, Control_c, 0, 64, 0
2, 62736, Control_c, 0, 64, 72
2, 62742, Control_c, 0, 64, 127
2, 62753, Note_off_c, 0, 55, 64
2, 62765, Note_off_c, 0, 73, 64
2, 62766, Note_off_c, 0, 82, 64
2, 62768, Note_off_c, 0, 85, 64
2, 62793, Note_off_c, 0, 67, 64
2, 62823, Note_on_c, 0, 86, 74
2, 62825, Note_on_c, 0, 82, 48
2, 62826, Note_on_c, 0, 74, 55
2, 62835, Note_off_c, 0, 86, 64
2, 62836, Note_off_c, 0, 82, 64
2, 62838, Note_off_c, 0, 74, 64
2, 62857, Note_on_c, 0, 67, 82
2, 62858, Note_on_c, 0, 87, 97
2, 62858, Note_on_c, 0, 75, 90
2, 62861, Control_c, 0, 64, 88
2, 62862, Note_on_c, 0, 55, 71
2, 62866, Control_c, 0, 64, 40
2, 62872, Control_c, 0, 64, 56
2, 62873, Note_off_c, 0, 55, 64
2, 62877, Note_off_c, 0, 67, 64
2, 62880, Control_c, 0, 64, 104
2, 62886, Control_c, 0, 64, 127
2, 62898, Note_off_c, 0, 75, 64
2, 62925, Note_off_c, 0, 87, 64
2, 62953, Control_c, 0, 64, 72
2, 62955, Note_on_c, 0, 88, 102
2, 62955, Note_on_c, 0, 85, 84
2, 62957, Note_on_c, 0, 82, 77
2, 62958, Note_on_c, 0, 76, 89
2, 62960, Control_c, 0, 64, 24
2, 62961, Note_on_c, 0, 64, 81
2, 62963, Note_on_c, 0, 52, 72
2, 62966, Control_c, 0, 64, 56
2, 62972, Control_c, 0, 64, 104
2, 62978, Control_c, 0, 64, 127
2, 62995, Note_off_c, 0, 52, 64
2, 62995, Note_off_c, 0, 64, 64
2, 62995, Note_off_c, 0, 76, 64
2, 63007, Note_off_c, 0, 88, 64
2, 63025, Note_off_c, 0, 82, 64
2, 63025, Note_off_c, 0, 85, 64
2, 63056, Note_on_c, 0, 89, 94
2, 63058, Note_on_c, 0, 77, 73
2, 63058, Note_on_c, 0, 62, 67
2, 63067, Note_on_c, 0, 50, 58
2, 63070, Note_off_c, 0, 77, 64
2, 63073, Note_off_c, 0, 62, 64
2, 63076, Note_off_c, 0, 89, 64
2, 63077, Note_off_c, 0, 50, 64
2, 63085, Control_c, 0, 64, 56
2, 63091, Note_on_c, 0, 49, 82
2, 63091, Control_c, 0, 64, 0
2, 63092, Note_on_c, 0, 78, 95
2, 63093, Note_on_c, 0, 90, 93
2, 63102, Note_on_c, 0, 92, 32
2, 63103, Note_on_c, 0, 61, 36
2, 63110, Control_c, 0, 64, 88
2, 63111, Note_off_c, 0, 49, 64
2, 63113, Note_off_c, 0, 92, 64
2, 63115, Note_off_c, 0, 61, 64
2, 63116, Control_c, 0, 64, 127
2, 63120, Note_off_c, 0, 78, 64
2, 63153, Note_off_c, 0, 90, 64
2, 63186, Control_c, 0, 64, 40
2, 63187, Note_on_c, 0, 91, 105
2, 63188, Note_on_c, 0, 79, 97
2, 63190, Note_on_c, 0, 73, 99
2, 63190, Note_on_c, 0, 87, 79
2, 63192, Note_on_c, 0, 61, 76
2, 63192, Control_c, 0, 64, 24
2, 63198, Control_c, 0, 64, 72
2, 63203, Note_off_c, 0, 61, 64
2, 63205, Note_off_c, 0, 73, 64
2, 63205, Control_c, 0, 64, 127
2, 63210, Note_off_c, 0, 79, 64
2, 63233, Note_off_c, 0, 91, 64
2, 63236, Note_off_c, 0, 87, 64
2, 63296, Note_on_c, 0, 92, 102
2, 63298, Note_on_c, 0, 80, 81
2, 63300, Note_on_c, 0, 87, 65
2, 63308, Note_off_c, 0, 80, 64
2, 63311, Note_off_c, 0, 87, 64
2, 63312, Note_off_c, 0, 92, 64
2, 63336, Note_on_c, 0, 93, 100
2, 63337, Note_on_c, 0, 81, 95
2, 63337, Note_on_c, 0, 55, 92
2, 63340, Note_on_c, 0, 43, 85
2, 63341, Note_on_c, 0, 87, 71
2, 63341, Control_c, 0, 64, 40
2, 63348, Control_c, 0, 64, 24
2, 63353, Note_off_c, 0, 87, 64
2, 63355, Control_c, 0, 64, 56
2, 63360, Note_off_c, 0, 55, 64
2, 63361, Note_off_c, 0, 81, 64
2, 63361, Control_c, 0, 64, 104
2, 63362, Note_off_c, 0, 43, 64
2, 63367, Control_c, 0, 64, 127
2, 63383, Note_off_c, 0, 93, 64
2, 63428, Control_c, 0, 64, 104
2, 63435, Note_on_c, 0, 94, 100
2, 63436, Control_c, 0, 64, 40
2, 63437, Note_on_c, 0, 82, 92
2, 63437, Note_on_c, 0, 87, 85
2, 63441, Control_c, 0, 64, 0
2, 63443, Note_on_c, 0, 55, 93
2, 63446, Note_on_c, 0, 43, 83
2, 63448, Control_c, 0, 64, 56
2, 63455, Control_c, 0, 64, 127
2, 63463, Note_off_c, 0, 55, 64
2, 63467, Note_off_c, 0, 94, 64
2, 63468, Note_off_c, 0, 43, 64
2, 63468, Note_off_c, 0, 87, 64
2, 63470, Note_off_c, 0, 82, 64
2, 63567, Note_on_c, 0, 77, 96
2, 63568, Note_on_c, 0, 65, 80
2, 63570, Note_on_c, 0, 53, 74
2, 63572, Note_on_c, 0, 41, 79
2, 63581, Note_off_c, 0, 53, 64
2, 63581, Note_off_c, 0, 65, 64
2, 63588, Note_off_c, 0, 41, 64
2, 63590, Note_off_c, 0, 77, 64
2, 63610, Note_on_c, 0, 63, 102
2, 63610, Note_on_c, 0, 75, 95
2, 63617, Note_on_c, 0, 51, 97
2, 63617, Note_on_c, 0, 39, 81
2, 63623, Control_c, 0, 64, 72
2, 63630, Control_c, 0, 64, 0
2, 63632, Note_off_c, 0, 51, 64
2, 63632, Note_off_c, 0, 63, 64
2, 63636, Note_off_c, 0, 39, 64
2, 63636, Control_c, 0, 64, 24
2, 63641, Control_c, 0, 64, 72
2, 63647, Note_off_c, 0, 75, 64
2, 63647, Control_c, 0, 64, 127
2, 63746, Note_on_c, 0, 82, 103
2, 63746, Note_on_c, 0, 70, 85
2, 63751, Note_on_c, 0, 58, 85
2, 63756, Note_on_c, 0, 46, 71
2, 63761, Control_c, 0, 64, 88
2, 63767, Control_c, 0, 64, 0
2, 63803, Control_c, 0, 64, 104
2, 63811, Control_c, 0, 64, 127
2, 63813, Note_off_c, 0, 58, 64
2, 63815, Note_off_c, 0, 70, 64
2, 63825, Note_off_c, 0, 46, 64
2, 63833, Note_off_c, 0, 82, 64
2, 63975, Note_on_c, 0, 91, 105
2, 63977, Note_on_c, 0, 79, 90
2, 63978, Note_on_c, 0, 86, 88
2, 63985, Note_on_c, 0, 46, 85
2, 63986, Note_on_c, 0, 34, 74
2, 63992, Control_c, 0, 64, 88
2, 63998, Control_c, 0, 64, 0
2, 64036, Control_c, 0, 64, 56
2, 64042, Control_c, 0, 64, 127
2, 64048, Note_off_c, 0, 91, 64
2, 64058, Note_off_c, 0, 79, 64
2, 64071, Note_off_c, 0, 86, 64
2, 64112, Note_on_c, 0, 89, 105
2, 64113, Note_on_c, 0, 77, 94
2, 64116, Note_on_c, 0, 86, 82
2, 64130, Control_c, 0, 64, 88
2, 64136, Control_c, 0, 64, 0
2, 64161, Control_c, 0, 64, 88
2, 64167, Control_c, 0, 64, 127
2, 64180, Note_off_c, 0, 86, 64
2, 64186, Note_off_c, 0, 89, 64
2, 64193, Note_off_c, 0, 77, 64
2, 64196, Note_off_c, 0, 34, 64
2, 64197, Note_off_c, 0, 46, 64
2, 64285, Note_on_c, 0, 86, 93
2, 64286, Control_c, 0, 64, 104
2, 64287, Note_on_c, 0, 82, 76
2, 64290, Note_on_c, 0, 74, 82
2, 64290, Note_on_c, 0, 77, 77
2, 64292, Control_c, 0, 64, 56
2, 64296, Note_on_c, 0, 50, 80
2, 64296, Note_on_c, 0, 38, 63
2, 64298, Control_c, 0, 64, 72
2, 64305, Control_c, 0, 64, 104
2, 64306, Note_off_c, 0, 38, 64
2, 64311, Control_c, 0, 64, 127
2, 64315, Note_off_c, 0, 77, 64
2, 64317, Note_off_c, 0, 82, 64
2, 64318, Note_off_c, 0, 50, 64
2, 64320, Note_off_c, 0, 86, 64
2, 64327, Note_off_c, 0, 74, 64
2, 64401, Note_on_c, 0, 82, 93
2, 64403, Note_on_c, 0, 70, 82
2, 64406, Note_on_c, 0, 74, 84
2, 64411, Note_on_c, 0, 55, 79
2, 64412, Note_on_c, 0, 43, 73
2, 64417, Control_c, 0, 64, 56
2, 64423, Control_c, 0, 64, 0
2, 64461, Control_c, 0, 64, 104
2, 64467, Control_c, 0, 64, 127
2, 64470, Note_off_c, 0, 74, 64
2, 64478, Note_off_c, 0, 43, 64
2, 64483, Note_off_c, 0, 70, 64
2, 64485, Note_off_c, 0, 55, 64
2, 64497, Note_off_c, 0, 82, 64
2, 64568, Note_on_c, 0, 84, 97
2, 64571, Note_on_c, 0, 72, 92
2, 64571, Note_on_c, 0, 81, 83
2, 64572, Note_on_c, 0, 77, 84
2, 64573, Control_c, 0, 64, 56
2, 64575, Note_on_c, 0, 41, 76
2, 64575, Note_on_c, 0, 53, 83
2, 64580, Control_c, 0, 64, 0
2, 64586, Control_c, 0, 64, 24
2, 64592, Control_c, 0, 64, 56
2, 64595, Note_off_c, 0, 53, 64
2, 64596, Note_off_c, 0, 77, 64
2, 64597, Note_off_c, 0, 72, 64
2, 64598, Note_off_c, 0, 41, 64
2, 64598, Note_off_c, 0, 81, 64
2, 64598, Control_c, 0, 64, 104
2, 64605, Control_c, 0, 64, 127
2, 64617, Note_off_c, 0, 84, 64
2, 64656, Control_c, 0, 64, 88
2, 64662, Control_c, 0, 64, 0
2, 64670, Note_on_c, 0, 82, 83
2, 64671, Note_on_c, 0, 86, 99
2, 64671, Note_on_c, 0, 77, 90
2, 64671, Note_on_c, 0, 74, 92
2, 64675, Note_on_c, 0, 34, 76
2, 64677, Note_on_c, 0, 46, 70
2, 64688, Note_off_c, 0, 46, 64
2, 64692, Control_c, 0, 64, 88
2, 64698, Control_c, 0, 64, 127
2, 64702, Note_off_c, 0, 34, 64
2, 64708, Note_off_c, 0, 86, 64
2, 64712, Note_off_c, 0, 77, 64
2, 64715, Note_off_c, 0, 82, 64
2, 64721, Note_off_c, 0, 74, 64
2, 64785, Note_on_c, 0, 45, 80
2, 64788, Note_on_c, 0, 33, 62
2, 64797, Note_off_c, 0, 45, 64
2, 64806, Note_off_c, 0, 33, 64
2, 64821, Note_on_c, 0, 82, 91
2, 64823, Note_on_c, 0, 70, 89
2, 64823, Control_c, 0, 64, 104
2, 64827, Note_on_c, 0, 74, 86
2, 64828, Note_on_c, 0, 79, 84
2, 64830, Control_c, 0, 64, 0
2, 64832, Note_on_c, 0, 43, 90
2, 64835, Note_on_c, 0, 31, 81
2, 64843, Note_off_c, 0, 31, 64
2, 64848, Control_c, 0, 64, 40
2, 64851, Note_off_c, 0, 43, 64
2, 64855, Note_off_c, 0, 74, 64
2, 64855, Control_c, 0, 64, 104
2, 64856, Note_off_c, 0, 79, 64
2, 64861, Control_c, 0, 64, 127
2, 64863, Note_off_c, 0, 70, 64
2, 64866, Note_off_c, 0, 82, 64
2, 64928, Note_on_c, 0, 79, 92
2, 64931, Note_on_c, 0, 67, 81
2, 64931, Note_on_c, 0, 70, 71
2, 64931, Note_on_c, 0, 75, 72
2, 64935, Note_on_c, 0, 51, 91
2, 64937, Note_on_c, 0, 39, 78
2, 64950, Control_c, 0, 64, 24
2, 64956, Control_c, 0, 64, 0
2, 64983, Note_off_c, 0, 70, 64
2, 64987, Control_c, 0, 64, 88
2, 64991, Note_off_c, 0, 67, 64
2, 64992, Control_c, 0, 64, 127
2, 64993, Note_off_c, 0, 75, 64
2, 65002, Note_off_c, 0, 79, 64
2, 65011, Note_off_c, 0, 39, 64
2, 65022, Note_off_c, 0, 51, 64
2, 65087, Note_on_c, 0, 81, 94
2, 65087, Control_c, 0, 64, 88
2, 65090, Note_on_c, 0, 78, 78
2, 65091, Note_on_c, 0, 69, 85
2, 65093, Note_on_c, 0, 74, 82
2, 65093, Control_c, 0, 64, 0
2, 65095, Note_on_c, 0, 50, 83
2, 65096, Note_on_c, 0, 38, 78
2, 65112, Control_c, 0, 64, 56
2, 65115, Note_off_c, 0, 50, 64
2, 65115, Note_off_c, 0, 69, 64
2, 65117, Note_off_c, 0, 38, 64
2, 65117, Control_c, 0, 64, 127
2, 65126, Note_off_c, 0, 74, 64
2, 65130, Note_off_c, 0, 78, 64
2, 65136, Note_off_c, 0, 81, 64
2, 65186, Control_c, 0, 64, 24
2, 65188, Note_on_c, 0, 82, 87
2, 65191, Note_on_c, 0, 70, 80
2, 65192, Note_on_c, 0, 74, 84
2, 65193, Note_on_c, 0, 79, 74
2, 65193, Control_c, 0, 64, 0
2, 65195, Note_on_c, 0, 43, 93
2, 65198, Note_on_c, 0, 31, 78
2, 65206, Control_c, 0, 64, 24
2, 65212, Control_c, 0, 64, 88
2, 65215, Note_off_c, 0, 31, 64
2, 65215, Note_off_c, 0, 43, 64
2, 65218, Control_c, 0, 64, 127
2, 65220, Note_off_c, 0, 74, 64
2, 65222, Note_off_c, 0, 79, 64
2, 65233, Note_off_c, 0, 70, 64
2, 65233, Note_off_c, 0, 82, 64
2, 65298, Note_on_c, 0, 41, 79
2, 65307, Note_on_c, 0, 29, 52
2, 65311, Note_off_c, 0, 41, 64
2, 65317, Note_off_c, 0, 29, 64
2, 65332, Note_on_c, 0, 79, 97
2, 65335, Note_on_c, 0, 67, 84
2, 65335, Note_on_c, 0, 75, 77
2, 65336, Note_on_c, 0, 70, 80
2, 65336, Control_c, 0, 64, 56
2, 65338, Note_on_c, 0, 27, 85
2, 65341, Note_on_c, 0, 39, 86
2, 65343, Control_c, 0, 64, 0
2, 65350, Control_c, 0, 64, 24
2, 65356, Note_off_c, 0, 39, 64
2, 65356, Control_c, 0, 64, 72
2, 65358, Note_off_c, 0, 27, 64
2, 65360, Note_off_c, 0, 67, 64
2, 65362, Note_off_c, 0, 75, 64
2, 65362, Note_off_c, 0, 79, 64
2, 65362, Control_c, 0, 64, 127
2, 65371, Note_off_c, 0, 70, 64
2, 65438, Note_on_c, 0, 75, 96
2, 65441, Note_on_c, 0, 63, 83
2, 65442, Note_on_c, 0, 68, 76
2, 65448, Note_on_c, 0, 48, 87
2, 65452, Note_on_c, 0, 36, 70
2, 65462, Control_c, 0, 64, 104
2, 65468, Control_c, 0, 64, 0
2, 65508, Control_c, 0, 64, 88
2, 65512, Control_c, 0, 64, 127
2, 65518, Note_off_c, 0, 68, 64
2, 65527, Note_off_c, 0, 75, 64
2, 65527, Note_off_c, 0, 63, 64
2, 65531, Note_off_c, 0, 48, 64
2, 65536, Note_off_c, 0, 36, 64
2, 65627, Note_on_c, 0, 77, 96
2, 65631, Note_on_c, 0, 70, 69
2, 65631, Note_on_c, 0, 65, 76
2, 65631, Note_on_c, 0, 74, 75
2, 65635, Note_on_c, 0, 46, 89
2, 65636, Note_on_c, 0, 34, 80
2, 65662, Control_c, 0, 64, 40
2, 65668, Control_c, 0, 64, 0
2, 65686, Control_c, 0, 64, 40
2, 65690, Note_off_c, 0, 65, 64
2, 65693, Note_off_c, 0, 34, 64
2, 65693, Control_c, 0, 64, 104
2, 65695, Note_off_c, 0, 70, 64
2, 65697, Note_off_c, 0, 74, 64
2, 65700, Control_c, 0, 64, 127
2, 65703, Note_off_c, 0, 46, 64
2, 65703, Note_off_c, 0, 77, 64
2, 65791, Note_on_c, 0, 78, 88
2, 65791, Note_on_c, 0, 66, 75
2, 65796, Note_on_c, 0, 75, 68
2, 65797, Note_on_c, 0, 71, 70
2, 65800, Note_on_c, 0, 45, 78
2, 65800, Note_on_c, 0, 33, 68
2, 65812, Control_c, 0, 64, 56
2, 65818, Control_c, 0, 64, 0
2, 65851, Note_off_c, 0, 33, 64
2, 65855, Note_off_c, 0, 45, 64
2, 65856, Control_c, 0, 64, 72
2, 65862, Control_c, 0, 64, 127
2, 65988, Note_on_c, 0, 59, 74
2, 66028, Note_off_c, 0, 59, 64
2, 66098, Note_on_c, 0, 59, 68
2, 66167, Note_off_c, 0, 71, 64
2, 66170, Note_off_c, 0, 75, 64
2, 66176, Note_off_c, 0, 59, 64
2, 66185, Note_off_c, 0, 78, 64
2, 66197, Note_off_c, 0, 66, 64
2, 66263, Note_on_c, 0, 59, 69
2, 66307, Note_off_c, 0, 59, 64
2, 66371, Note_on_c, 0, 71, 66
2, 66371, Note_on_c, 0, 66, 44
2, 66373, Note_on_c, 0, 63, 43
2, 66377, Note_on_c, 0, 59, 46
2, 66445, Note_off_c, 0, 59, 64
2, 66538, Note_on_c, 0, 59, 54
2, 66591, Note_off_c, 0, 59, 64
2, 66651, Note_on_c, 0, 59, 53
2, 66702, Note_off_c, 0, 59, 64
2, 66737, Note_off_c, 0, 66, 64
2, 66825, Note_off_c, 0, 63, 64
2, 66825, Note_on_c, 0, 59, 68
2, 66948, Note_on_c, 0, 63, 67
2, 66972, Note_on_c, 0, 45, 54
2, 66975, Note_off_c, 0, 59, 64
2, 66995, Control_c, 0, 64, 72
2, 67001, Control_c, 0, 64, 0
2, 67038, Control_c, 0, 64, 72
2, 67045, Control_c, 0, 64, 127
2, 67088, Note_on_c, 0, 61, 61
2, 67102, Note_off_c, 0, 63, 64
2, 67125, Note_off_c, 0, 61, 64
2, 67128, Note_on_c, 0, 59, 77
2, 67155, Note_off_c, 0, 71, 64
2, 67157, Note_off_c, 0, 45, 64
2, 67176, Note_off_c, 0, 59, 64
2, 67253, Note_on_c, 0, 71, 62
2, 67256, Note_on_c, 0, 64, 65
2, 67257, Note_on_c, 0, 59, 49
2, 67268, Note_on_c, 0, 44, 42
2, 67313, Control_c, 0, 64, 56
2, 67320, Control_c, 0, 64, 0
2, 67351, Control_c, 0, 64, 88
2, 67356, Note_off_c, 0, 64, 64
2, 67357, Control_c, 0, 64, 127
2, 67433, Note_on_c, 0, 61, 65
2, 67452, Note_off_c, 0, 59, 64
2, 67492, Note_off_c, 0, 61, 64
2, 67530, Note_off_c, 0, 44, 64
2, 67537, Note_off_c, 0, 71, 64
2, 67558, Note_on_c, 0, 69, 68
2, 67560, Note_on_c, 0, 63, 52
2, 67561, Note_on_c, 0, 59, 61
2, 67567, Note_on_c, 0, 42, 42
2, 67581, Control_c, 0, 64, 88
2, 67587, Control_c, 0, 64, 0
2, 67637, Control_c, 0, 64, 104
2, 67643, Control_c, 0, 64, 127
2, 67666, Note_off_c, 0, 59, 64
2, 67741, Note_on_c, 0, 57, 60
2, 67853, Note_on_c, 0, 54, 64
2, 67942, Note_off_c, 0, 57, 64
2, 68011, Note_off_c, 0, 63, 64
2, 68025, Note_off_c, 0, 54, 64
2, 68031, Note_off_c, 0, 42, 64
2, 68048, Note_on_c, 0, 47, 65
2, 68151, Note_off_c, 0, 47, 64
2, 68178, Note_on_c, 0, 64, 52
2, 68181, Note_on_c, 0, 59, 36
2, 68188, Note_on_c, 0, 40, 42
2, 68226, Control_c, 0, 64, 72
2, 68232, Control_c, 0, 64, 0
2, 68282, Control_c, 0, 64, 72
2, 68288, Control_c, 0, 64, 127
2, 68345, Note_off_c, 0, 69, 64
2, 68367, Note_on_c, 0, 68, 58
2, 68440, Note_off_c, 0, 68, 64
2, 68476, Note_off_c, 0, 64, 64
2, 68477, Note_on_c, 0, 67, 65
2, 68512, Control_c, 0, 64, 72
2, 68520, Control_c, 0, 64, 0
2, 68557, Control_c, 0, 64, 88
2, 68562, Control_c, 0, 64, 127
2, 68643, Note_off_c, 0, 40, 64
2, 68645, Control_c, 0, 64, 72
2, 68663, Control_c, 0, 64, 127
2, 68668, Note_on_c, 0, 41, 51
2, 68700, Note_off_c, 0, 59, 64
2, 68711, Note_off_c, 0, 41, 64
2, 68712, Note_off_c, 0, 67, 64
2, 68817, Note_on_c, 0, 55, 45
2, 68817, Note_on_c, 0, 62, 45
2, 68817, Note_on_c, 0, 65, 44
2, 68817, Note_on_c, 0, 67, 41
2, 68817, Note_on_c, 0, 59, 40
2, 68817, Note_on_c, 0, 43, 53
2, 68838, Control_c, 0, 64, 104
2, 68845, Control_c, 0, 64, 0
2, 68888, Control_c, 0, 64, 88
2, 68895, Control_c, 0, 64, 127
2, 68896, Note_off_c, 0, 43, 64
2, 68991, Note_on_c, 0, 43, 70
2, 69031, Note_off_c, 0, 43, 64
2, 69113, Note_on_c, 0, 43, 56
2, 69163, Note_off_c, 0, 43, 64
2, 69291, Note_on_c, 0, 43, 69
2, 69310, Note_off_c, 0, 65, 64
2, 69311, Note_off_c, 0, 59, 64
2, 69318, Note_off_c, 0, 55, 64
2, 69327, Note_off_c, 0, 67, 64
2, 69327, Note_off_c, 0, 62, 64
2, 69341, Note_off_c, 0, 43, 64
2, 69408, Note_on_c, 0, 67, 55
2, 69411, Note_on_c, 0, 55, 58
2, 69413, Note_on_c, 0, 62, 46
2, 69416, Note_on_c, 0, 65, 55
2, 69422, Note_on_c, 0, 47, 61
2, 69440, Control_c, 0, 64, 104
2, 69446, Control_c, 0, 64, 40
2, 69452, Control_c, 0, 64, 0
2, 69488, Control_c, 0, 64, 40
2, 69495, Control_c, 0, 64, 104
2, 69501, Control_c, 0, 64, 127
2, 69530, Note_off_c, 0, 47, 64
2, 69553, Note_on_c, 0, 45, 63
2, 69577, Control_c, 0, 64, 104
2, 69583, Control_c, 0, 64, 40
2, 69590, Control_c, 0, 64, 0
2, 69602, Note_off_c, 0, 45, 64
2, 69605, Note_on_c, 0, 43, 68
2, 69608, Control_c, 0, 64, 56
2, 69615, Control_c, 0, 64, 104
2, 69617, Note_off_c, 0, 65, 64
2, 69621, Control_c, 0, 64, 127
2, 69643, Note_off_c, 0, 62, 64
2, 69643, Note_off_c, 0, 55, 64
2, 69656, Note_off_c, 0, 67, 64
2, 69711, Note_off_c, 0, 43, 64
2, 69737, Note_on_c, 0, 48, 73
2, 69740, Note_on_c, 0, 67, 37
2, 69742, Note_on_c, 0, 55, 40
2, 69742, Note_on_c, 0, 64, 48
2, 69742, Note_on_c, 0, 60, 47
2, 69746, Control_c, 0, 64, 104
2, 69752, Control_c, 0, 64, 40
2, 69758, Control_c, 0, 64, 0
2, 69801, Control_c, 0, 64, 40
2, 69807, Control_c, 0, 64, 104
2, 69813, Control_c, 0, 64, 127
2, 69891, Note_off_c, 0, 48, 64
2, 69930, Note_on_c, 0, 45, 66
2, 70037, Note_off_c, 0, 45, 64
2, 70052, Note_on_c, 0, 43, 55
2, 70077, Control_c, 0, 64, 104
2, 70083, Control_c, 0, 64, 24
2, 70088, Control_c, 0, 64, 0
2, 70120, Control_c, 0, 64, 24
2, 70126, Control_c, 0, 64, 88
2, 70132, Control_c, 0, 64, 127
2, 70183, Note_off_c, 0, 43, 64
2, 70248, Note_on_c, 0, 40, 45
2, 70271, Control_c, 0, 64, 72
2, 70276, Control_c, 0, 64, 0
2, 70295, Control_c, 0, 64, 72
2, 70301, Control_c, 0, 64, 127
2, 70312, Note_off_c, 0, 40, 64
2, 70386, Note_on_c, 0, 36, 47
2, 70415, Control_c, 0, 64, 104
2, 70421, Control_c, 0, 64, 24
2, 70427, Control_c, 0, 64, 0
2, 70445, Control_c, 0, 64, 24
2, 70451, Control_c, 0, 64, 88
2, 70457, Control_c, 0, 64, 127
2, 70501, Note_off_c, 0, 36, 64
2, 70597, Note_off_c, 0, 64, 64
2, 70622, Note_on_c, 0, 33, 36
2, 70631, Note_off_c, 0, 60, 64
2, 70670, Note_off_c, 0, 33, 64
2, 70811, Note_on_c, 0, 65, 33
2, 70811, Note_on_c, 0, 31, 33
2, 70811, Note_on_c, 0, 59, 28
2, 70831, Control_c, 0, 64, 88
2, 70836, Control_c, 0, 64, 56
2, 70841, Control_c, 0, 64, 24
2, 70846, Control_c, 0, 64, 0
2, 70898, Control_c, 0, 64, 40
2, 70903, Control_c, 0, 64, 88
2, 70908, Control_c, 0, 64, 127
2, 70991, Note_off_c, 0, 55, 64
2, 71016, Note_off_c, 0, 31, 64
2, 71048, Note_off_c, 0, 59, 64
2, 71092, Note_off_c, 0, 65, 64
2, 71107, Note_off_c, 0, 67, 64
2, 71123, Note_on_c, 0, 57, 43
2, 71140, Control_c, 0, 64, 104
2, 71146, Control_c, 0, 64, 40
2, 71152, Control_c, 0, 64, 0
2, 71192, Control_c, 0, 64, 56
2, 71198, Control_c, 0, 64, 127
2, 71272, Note_off_c, 0, 57, 64
2, 71290, Note_on_c, 0, 57, 57
2, 71352, Note_off_c, 0, 57, 64
2, 71408, Note_on_c, 0, 60, 35
2, 71410, Note_on_c, 0, 57, 54
2, 71421, Note_on_c, 0, 43, 55
2, 71443, Control_c, 0, 64, 72
2, 71448, Control_c, 0, 64, 0
2, 71472, Control_c, 0, 64, 40
2, 71477, Control_c, 0, 64, 104
2, 71482, Control_c, 0, 64, 127
2, 71491, Note_off_c, 0, 57, 64
2, 71545, Note_on_c, 0, 64, 66
2, 71550, Note_on_c, 0, 55, 44
2, 71560, Note_off_c, 0, 60, 64
2, 71576, Note_off_c, 0, 55, 64
2, 71590, Note_off_c, 0, 64, 64
2, 71632, Note_on_c, 0, 69, 68
2, 71637, Note_on_c, 0, 59, 42
2, 71640, Note_on_c, 0, 62, 46
2, 71640, Note_on_c, 0, 53, 41
2, 71652, Control_c, 0, 64, 104
2, 71657, Control_c, 0, 64, 40
2, 71661, Control_c, 0, 64, 0
2, 71686, Control_c, 0, 64, 40
2, 71690, Control_c, 0, 64, 104
2, 71695, Control_c, 0, 64, 127
2, 71712, Note_off_c, 0, 69, 64
2, 71713, Note_off_c, 0, 53, 64
2, 71765, Note_on_c, 0, 69, 80
2, 71773, Note_on_c, 0, 53, 44
2, 71778, Note_off_c, 0, 59, 64
2, 71790, Note_off_c, 0, 53, 64
2, 71790, Note_off_c, 0, 62, 64
2, 71802, Note_off_c, 0, 69, 64
2, 71852, Note_on_c, 0, 69, 67
2, 71856, Note_on_c, 0, 60, 42
2, 71860, Note_on_c, 0, 53, 30
2, 71875, Control_c, 0, 64, 88
2, 71880, Control_c, 0, 64, 40
2, 71885, Control_c, 0, 64, 0
2, 71913, Control_c, 0, 64, 72
2, 71918, Control_c, 0, 64, 127
2, 71960, Note_off_c, 0, 69, 64
2, 71980, Note_off_c, 0, 53, 64
2, 71988, Note_off_c, 0, 43, 64
2, 71988, Note_on_c, 0, 67, 63
2, 71991, Note_on_c, 0, 52, 47
2, 72008, Note_off_c, 0, 67, 64
2, 72011, Note_off_c, 0, 60, 64
2, 72018, Note_off_c, 0, 52, 64
2, 72048, Note_on_c, 0, 43, 40
2, 72081, Note_on_c, 0, 65, 73
2, 72083, Note_on_c, 0, 59, 46
2, 72091, Note_on_c, 0, 57, 44
2, 72092, Control_c, 0, 64, 72
2, 72097, Control_c, 0, 64, 0
2, 72126, Control_c, 0, 64, 56
2, 72131, Control_c, 0, 64, 127
2, 72146, Note_off_c, 0, 65, 64
2, 72158, Note_off_c, 0, 57, 64
2, 72216, Note_off_c, 0, 59, 64
2, 72216, Note_on_c, 0, 65, 79
2, 72225, Note_on_c, 0, 57, 48
2, 72253, Note_off_c, 0, 65, 64
2, 72255, Note_off_c, 0, 57, 64
2, 72303, Note_on_c, 0, 65, 74
2, 72310, Note_on_c, 0, 60, 54
2, 72311, Note_on_c, 0, 57, 44
2, 72325, Control_c, 0, 64, 72
2, 72330, Control_c, 0, 64, 0
2, 72352, Control_c, 0, 64, 56
2, 72357, Control_c, 0, 64, 127
2, 72365, Note_off_c, 0, 57, 64
2, 72421, Note_off_c, 0, 65, 64
2, 72431, Note_on_c, 0, 64, 78
2, 72440, Note_on_c, 0, 55, 50
2, 72451, Note_off_c, 0, 60, 64
2, 72465, Note_off_c, 0, 64, 64
2, 72478, Note_off_c, 0, 55, 64
2, 72526, Note_on_c, 0, 69, 76
2, 72530, Note_on_c, 0, 58, 40
2, 72535, Note_on_c, 0, 62, 47
2, 72536, Note_on_c, 0, 53, 40
2, 72547, Control_c, 0, 64, 104
2, 72552, Control_c, 0, 64, 24
2, 72557, Control_c, 0, 64, 0
2, 72581, Control_c, 0, 64, 56
2, 72586, Control_c, 0, 64, 127
2, 72601, Note_off_c, 0, 69, 64
2, 72603, Note_off_c, 0, 53, 64
2, 72627, Note_off_c, 0, 62, 64
2, 72678, Note_on_c, 0, 69, 74
2, 72685, Note_on_c, 0, 53, 39
2, 72713, Note_off_c, 0, 58, 64
2, 72717, Note_off_c, 0, 53, 64
2, 72717, Note_off_c, 0, 69, 64
2, 72780, Note_on_c, 0, 69, 54
2, 72785, Note_on_c, 0, 58, 23
2, 72787, Note_on_c, 0, 61, 38
2, 72792, Note_on_c, 0, 53, 36
2, 72805, Control_c, 0, 64, 88
2, 72808, Control_c, 0, 64, 24
2, 72812, Control_c, 0, 64, 0
2, 72837, Control_c, 0, 64, 56
2, 72842, Control_c, 0, 64, 104
2, 72847, Control_c, 0, 64, 127
2, 72866, Note_off_c, 0, 69, 64
2, 72891, Note_off_c, 0, 61, 64
2, 72947, Note_off_c, 0, 53, 64
2, 72968, Note_on_c, 0, 67, 41
2, 72968, Note_on_c, 0, 52, 36
2, 72971, Note_on_c, 0, 61, 10
2, 72987, Control_c, 0, 64, 88
2, 72992, Control_c, 0, 64, 0
2, 72996, Note_off_c, 0, 43, 64
2, 73015, Note_off_c, 0, 52, 64
2, 73017, Control_c, 0, 64, 24
2, 73022, Control_c, 0, 64, 88
2, 73027, Control_c, 0, 64, 127
2, 73035, Note_off_c, 0, 67, 64
2, 73036, Note_off_c, 0, 58, 64
2, 73042, Note_off_c, 0, 61, 64
2, 73082, Note_on_c, 0, 58, 49
2, 73085, Note_on_c, 0, 61, 44
2, 73175, Note_off_c, 0, 58, 64
2, 73232, Note_on_c, 0, 58, 58
2, 73275, Note_off_c, 0, 61, 64
2, 73278, Note_off_c, 0, 58, 64
2, 73322, Note_on_c, 0, 58, 43
2, 73323, Note_on_c, 0, 55, 75
2, 73351, Control_c, 0, 64, 56
2, 73356, Control_c, 0, 64, 0
2, 73376, Control_c, 0, 64, 40
2, 73380, Control_c, 0, 64, 88
2, 73385, Control_c, 0, 64, 127
2, 73417, Note_off_c, 0, 55, 64
2, 73427, Note_on_c, 0, 53, 65
2, 73442, Control_c, 0, 64, 104
2, 73447, Control_c, 0, 64, 24
2, 73451, Note_on_c, 0, 61, 1
2, 73452, Control_c, 0, 64, 0
2, 73457, Note_off_c, 0, 53, 64
2, 73462, Note_on_c, 0, 52, 69
2, 73482, Control_c, 0, 64, 40
2, 73487, Control_c, 0, 64, 88
2, 73492, Control_c, 0, 64, 127
2, 73495, Note_off_c, 0, 58, 64
2, 73501, Note_off_c, 0, 61, 64
2, 73523, Note_off_c, 0, 52, 64
2, 73565, Note_on_c, 0, 58, 53
2, 73568, Note_on_c, 0, 61, 25
2, 73571, Note_on_c, 0, 67, 39
2, 73603, Control_c, 0, 64, 56
2, 73608, Control_c, 0, 64, 0
2, 73631, Control_c, 0, 64, 40
2, 73637, Control_c, 0, 64, 104
2, 73641, Control_c, 0, 64, 127
2, 73650, Note_off_c, 0, 58, 64
2, 73720, Note_on_c, 0, 58, 46
2, 73761, Note_off_c, 0, 67, 64
2, 73822, Note_off_c, 0, 61, 64
2, 73831, Note_off_c, 0, 58, 64
2, 73842, Note_on_c, 0, 70, 39
2, 73848, Note_on_c, 0, 55, 45
2, 73852, Note_on_c, 0, 64, 34
2, 73883, Control_c, 0, 64, 56
2, 73888, Control_c, 0, 64, 0
2, 73922, Control_c, 0, 64, 104
2, 73923, Note_off_c, 0, 64, 64
2, 73927, Control_c, 0, 64, 127
2, 73928, Note_off_c, 0, 70, 64
2, 74022, Note_off_c, 0, 55, 64
2, 74025, Note_on_c, 0, 48, 56
2, 74138, Note_on_c, 0, 62, 60
2, 74168, Control_c, 0, 64, 56
2, 74173, Control_c, 0, 64, 0
2, 74203, Control_c, 0, 64, 104
2, 74208, Control_c, 0, 64, 127
2, 74226, Note_off_c, 0, 62, 64
2, 74275, Note_on_c, 0, 62, 68
2, 74325, Note_off_c, 0, 62, 64
2, 74362, Note_on_c, 0, 65, 63
2, 74363, Note_on_c, 0, 62, 56
2, 74387, Control_c, 0, 64, 56
2, 74391, Control_c, 0, 64, 0
2, 74411, Control_c, 0, 64, 40
2, 74416, Control_c, 0, 64, 127
2, 74436, Note_off_c, 0, 62, 64
2, 74485, Note_on_c, 0, 69, 74
2, 74495, Note_on_c, 0, 60, 39
2, 74501, Note_off_c, 0, 65, 64
2, 74532, Note_off_c, 0, 69, 64
2, 74560, Note_off_c, 0, 60, 64
2, 74573, Note_on_c, 0, 74, 77
2, 74580, Note_on_c, 0, 67, 49
2, 74581, Note_on_c, 0, 64, 41
2, 74581, Note_on_c, 0, 58, 32
2, 74600, Control_c, 0, 64, 72
2, 74605, Control_c, 0, 64, 0
2, 74633, Control_c, 0, 64, 72
2, 74638, Control_c, 0, 64, 127
2, 74647, Note_off_c, 0, 74, 64
2, 74653, Note_off_c, 0, 58, 64
2, 74710, Note_on_c, 0, 74, 82
2, 74717, Note_on_c, 0, 58, 32
2, 74730, Note_off_c, 0, 64, 64
2, 74743, Note_off_c, 0, 67, 64
2, 74745, Note_off_c, 0, 58, 64
2, 74753, Note_off_c, 0, 74, 64
2, 74797, Note_on_c, 0, 74, 79
2, 74803, Note_on_c, 0, 65, 51
2, 74805, Note_on_c, 0, 58, 36
2, 74808, Control_c, 0, 64, 88
2, 74813, Control_c, 0, 64, 0
2, 74837, Control_c, 0, 64, 72
2, 74842, Control_c, 0, 64, 127
2, 74877, Note_off_c, 0, 58, 64
2, 74898, Note_off_c, 0, 74, 64
2, 74926, Note_on_c, 0, 72, 84
2, 74931, Note_on_c, 0, 57, 56
2, 74932, Note_off_c, 0, 48, 64
2, 74942, Note_off_c, 0, 65, 64
2, 74951, Note_off_c, 0, 72, 64
2, 74970, Note_off_c, 0, 57, 64
2, 74990, Note_on_c, 0, 48, 51
2, 75026, Note_on_c, 0, 70, 69
2, 75031, Note_on_c, 0, 64, 56
2, 75036, Note_on_c, 0, 62, 58
2, 75036, Control_c, 0, 64, 104
2, 75041, Control_c, 0, 64, 40
2, 75045, Control_c, 0, 64, 0
2, 75075, Control_c, 0, 64, 56
2, 75078, Control_c, 0, 64, 127
2, 75095, Note_off_c, 0, 70, 64
2, 75111, Note_off_c, 0, 62, 64
2, 75161, Note_on_c, 0, 70, 76
2, 75166, Note_on_c, 0, 62, 55
2, 75182, Note_off_c, 0, 64, 64
2, 75198, Note_off_c, 0, 62, 64
2, 75207, Note_off_c, 0, 70, 64
2, 75245, Note_on_c, 0, 70, 73
2, 75250, Note_on_c, 0, 65, 60
2, 75252, Note_on_c, 0, 62, 54
2, 75263, Control_c, 0, 64, 72
2, 75268, Control_c, 0, 64, 0
2, 75292, Control_c, 0, 64, 72
2, 75297, Control_c, 0, 64, 127
2, 75298, Note_off_c, 0, 62, 64
2, 75350, Note_off_c, 0, 70, 64
2, 75370, Note_on_c, 0, 69, 82
2, 75375, Note_on_c, 0, 60, 56
2, 75381, Note_off_c, 0, 65, 64
2, 75400, Note_off_c, 0, 69, 64
2, 75410, Note_off_c, 0, 60, 64
2, 75460, Note_on_c, 0, 74, 82
2, 75462, Note_on_c, 0, 64, 53
2, 75463, Note_on_c, 0, 67, 59
2, 75471, Note_on_c, 0, 58, 43
2, 75476, Control_c, 0, 64, 104
2, 75481, Control_c, 0, 64, 0
2, 75510, Control_c, 0, 64, 88
2, 75515, Control_c, 0, 64, 127
2, 75523, Note_off_c, 0, 74, 64
2, 75530, Note_off_c, 0, 58, 64
2, 75555, Note_off_c, 0, 67, 64
2, 75592, Note_on_c, 0, 74, 90
2, 75602, Note_on_c, 0, 58, 50
2, 75610, Note_off_c, 0, 64, 64
2, 75627, Note_off_c, 0, 58, 64
2, 75628, Note_off_c, 0, 74, 64
2, 75686, Note_on_c, 0, 74, 90
2, 75691, Note_on_c, 0, 66, 63
2, 75691, Note_on_c, 0, 63, 59
2, 75692, Note_on_c, 0, 58, 60
2, 75708, Control_c, 0, 64, 88
2, 75713, Control_c, 0, 64, 0
2, 75730, Note_off_c, 0, 48, 64
2, 75733, Control_c, 0, 64, 24
2, 75737, Control_c, 0, 64, 104
2, 75741, Control_c, 0, 64, 127
2, 75768, Note_off_c, 0, 66, 64
2, 75788, Note_off_c, 0, 74, 64
2, 75812, Note_off_c, 0, 58, 64
2, 75816, Note_on_c, 0, 72, 88
2, 75816, Note_on_c, 0, 57, 61
2, 75828, Note_off_c, 0, 63, 64
2, 75838, Note_off_c, 0, 72, 64
2, 75841, Note_off_c, 0, 57, 64
2, 75911, Note_on_c, 0, 78, 85
2, 75911, Control_c, 0, 64, 104
2, 75912, Note_on_c, 0, 66, 71
2, 75915, Note_on_c, 0, 72, 76
2, 75916, Note_on_c, 0, 63, 67
2, 75917, Control_c, 0, 64, 0
2, 75918, Note_on_c, 0, 69, 67
2, 75921, Note_on_c, 0, 51, 59
2, 75923, Note_off_c, 0, 69, 64
2, 75931, Note_off_c, 0, 51, 64
2, 75935, Note_off_c, 0, 72, 64
2, 75936, Note_off_c, 0, 66, 64
2, 75936, Control_c, 0, 64, 24
2, 75941, Control_c, 0, 64, 104
2, 75946, Control_c, 0, 64, 127
2, 75947, Note_off_c, 0, 78, 64
2, 75978, Note_off_c, 0, 63, 64
2, 76005, Note_on_c, 0, 79, 83
2, 76008, Note_on_c, 0, 72, 70
2, 76011, Note_on_c, 0, 67, 39
2, 76013, Note_off_c, 0, 79, 64
2, 76017, Note_off_c, 0, 72, 64
2, 76022, Note_off_c, 0, 67, 64
2, 76031, Note_on_c, 0, 63, 62
2, 76032, Note_on_c, 0, 72, 82
2, 76033, Note_on_c, 0, 80, 86
2, 76033, Note_on_c, 0, 68, 70
2, 76033, Control_c, 0, 64, 88
2, 76037, Control_c, 0, 64, 40
2, 76038, Note_on_c, 0, 51, 44
2, 76043, Note_off_c, 0, 63, 64
2, 76043, Control_c, 0, 64, 72
2, 76047, Note_off_c, 0, 51, 64
2, 76047, Control_c, 0, 64, 104
2, 76051, Note_off_c, 0, 72, 64
2, 76052, Control_c, 0, 64, 127
2, 76057, Note_off_c, 0, 68, 64
2, 76065, Note_off_c, 0, 80, 64
2, 76110, Control_c, 0, 64, 40
2, 76111, Note_on_c, 0, 81, 90
2, 76115, Note_on_c, 0, 69, 78
2, 76115, Note_on_c, 0, 78, 68
2, 76115, Control_c, 0, 64, 0
2, 76117, Note_on_c, 0, 60, 77
2, 76118, Note_on_c, 0, 75, 67
2, 76118, Note_on_c, 0, 48, 74
2, 76125, Control_c, 0, 64, 24
2, 76130, Control_c, 0, 64, 88
2, 76132, Note_off_c, 0, 69, 64
2, 76135, Control_c, 0, 64, 127
2, 76136, Note_off_c, 0, 60, 64
2, 76141, Note_off_c, 0, 48, 64
2, 76141, Note_off_c, 0, 81, 64
2, 76147, Note_off_c, 0, 75, 64
2, 76148, Note_off_c, 0, 78, 64
2, 76196, Note_on_c, 0, 82, 78
2, 76196, Note_on_c, 0, 70, 71
2, 76196, Note_on_c, 0, 78, 56
2, 76196, Note_on_c, 0, 46, 61
2, 76196, Note_on_c, 0, 58, 55
2, 76196, Note_on_c, 0, 75, 52
2, 76205, Note_off_c, 0, 75, 64
2, 76205, Note_off_c, 0, 46, 64
2, 76205, Note_off_c, 0, 78, 64
2, 76206, Note_off_c, 0, 58, 64
2, 76212, Note_off_c, 0, 70, 64
2, 76212, Note_off_c, 0, 82, 64
2, 76222, Note_on_c, 0, 78, 77
2, 76222, Note_on_c, 0, 75, 65
2, 76222, Control_c, 0, 64, 40
2, 76225, Note_on_c, 0, 71, 89
2, 76225, Note_on_c, 0, 83, 97
2, 76226, Control_c, 0, 64, 0
2, 76231, Note_on_c, 0, 57, 70
2, 76231, Control_c, 0, 64, 40
2, 76235, Note_on_c, 0, 45, 69
2, 76236, Control_c, 0, 64, 88
2, 76241, Control_c, 0, 64, 127
2, 76242, Note_off_c, 0, 45, 64
2, 76242, Note_off_c, 0, 57, 64
2, 76242, Note_off_c, 0, 71, 64
2, 76257, Note_off_c, 0, 75, 64
2, 76258, Note_off_c, 0, 83, 64
2, 76268, Note_off_c, 0, 78, 64
2, 76298, Note_on_c, 0, 84, 93
2, 76298, Note_on_c, 0, 75, 86
2, 76298, Control_c, 0, 64, 56
2, 76301, Note_on_c, 0, 81, 75
2, 76301, Note_on_c, 0, 72, 85
2, 76303, Control_c, 0, 64, 0
2, 76308, Note_on_c, 0, 54, 69
2, 76308, Note_on_c, 0, 66, 77
2, 76308, Control_c, 0, 64, 40
2, 76313, Note_off_c, 0, 72, 64
2, 76313, Control_c, 0, 64, 88
2, 76318, Control_c, 0, 64, 127
2, 76320, Note_off_c, 0, 81, 64
2, 76321, Note_off_c, 0, 75, 64
2, 76325, Note_off_c, 0, 54, 64
2, 76326, Note_off_c, 0, 66, 64
2, 76328, Note_off_c, 0, 84, 64
2, 76385, Note_on_c, 0, 85, 81
2, 76387, Note_on_c, 0, 73, 69
2, 76387, Note_on_c, 0, 81, 72
2, 76398, Note_off_c, 0, 73, 64
2, 76401, Note_off_c, 0, 81, 64
2, 76402, Note_off_c, 0, 85, 64
2, 76408, Note_on_c, 0, 66, 71
2, 76411, Note_on_c, 0, 54, 73
2, 76411, Control_c, 0, 64, 56
2, 76413, Note_on_c, 0, 86, 92
2, 76415, Note_on_c, 0, 81, 78
2, 76416, Note_on_c, 0, 74, 84
2, 76416, Control_c, 0, 64, 0
2, 76421, Control_c, 0, 64, 40
2, 76425, Control_c, 0, 64, 88
2, 76428, Note_off_c, 0, 54, 64
2, 76428, Note_off_c, 0, 66, 64
2, 76430, Control_c, 0, 64, 127
2, 76433, Note_off_c, 0, 74, 64
2, 76433, Note_off_c, 0, 81, 64
2, 76441, Note_off_c, 0, 86, 64
2, 76482, Note_on_c, 0, 87, 92
2, 76483, Note_on_c, 0, 81, 82
2, 76483, Note_on_c, 0, 75, 84
2, 76487, Note_on_c, 0, 63, 85
2, 76488, Control_c, 0, 64, 88
2, 76490, Note_on_c, 0, 51, 76
2, 76493, Control_c, 0, 64, 56
2, 76498, Control_c, 0, 64, 88
2, 76503, Control_c, 0, 64, 127
2, 76511, Note_off_c, 0, 51, 64
2, 76511, Note_off_c, 0, 63, 64
2, 76528, Note_off_c, 0, 75, 64
2, 76533, Note_off_c, 0, 81, 64
2, 76536, Note_off_c, 0, 87, 64
2, 76557, Note_on_c, 0, 88, 86
2, 76561, Note_on_c, 0, 81, 62
2, 76561, Note_on_c, 0, 76, 66
2, 76561, Note_on_c, 0, 61, 65
2, 76565, Note_on_c, 0, 49, 51
2, 76570, Note_off_c, 0, 61, 64
2, 76570, Note_off_c, 0, 76, 64
2, 76570, Note_off_c, 0, 81, 64
2, 76573, Note_off_c, 0, 49, 64
2, 76573, Note_off_c, 0, 88, 64
2, 76588, Note_on_c, 0, 89, 94
2, 76588, Note_on_c, 0, 81, 71
2, 76591, Note_on_c, 0, 88, 82
2, 76591, Note_on_c, 0, 76, 62
2, 76591, Control_c, 0, 64, 56
2, 76592, Note_on_c, 0, 77, 70
2, 76595, Control_c, 0, 64, 24
2, 76597, Note_on_c, 0, 60, 84
2, 76598, Note_off_c, 0, 88, 64
2, 76598, Note_on_c, 0, 48, 81
2, 76600, Control_c, 0, 64, 56
2, 76602, Note_off_c, 0, 77, 64
2, 76603, Note_off_c, 0, 76, 64
2, 76605, Note_off_c, 0, 81, 64
2, 76605, Control_c, 0, 64, 88
2, 76606, Note_off_c, 0, 48, 64
2, 76610, Control_c, 0, 64, 127
2, 76616, Note_off_c, 0, 89, 64
2, 76618, Note_off_c, 0, 60, 64
2, 76666, Note_on_c, 0, 90, 95
2, 76667, Note_on_c, 0, 78, 95
2, 76667, Note_on_c, 0, 87, 78
2, 76667, Control_c, 0, 64, 56
2, 76670, Note_on_c, 0, 72, 88
2, 76672, Control_c, 0, 64, 0
2, 76673, Note_on_c, 0, 60, 75
2, 76677, Control_c, 0, 64, 56
2, 76682, Note_off_c, 0, 60, 64
2, 76682, Control_c, 0, 64, 127
2, 76683, Note_off_c, 0, 72, 64
2, 76702, Note_off_c, 0, 78, 64
2, 76715, Note_off_c, 0, 90, 64
2, 76723, Note_off_c, 0, 87, 64
2, 76743, Note_on_c, 0, 91, 89
2, 76747, Note_on_c, 0, 79, 77
2, 76750, Note_on_c, 0, 87, 46
2, 76756, Note_off_c, 0, 79, 64
2, 76758, Note_off_c, 0, 87, 64
2, 76758, Note_off_c, 0, 91, 64
2, 76776, Note_on_c, 0, 54, 85
2, 76777, Note_on_c, 0, 92, 103
2, 76777, Note_on_c, 0, 80, 96
2, 76778, Note_on_c, 0, 42, 80
2, 76781, Note_on_c, 0, 87, 55
2, 76783, Control_c, 0, 64, 88
2, 76788, Note_off_c, 0, 54, 64
2, 76791, Note_off_c, 0, 42, 64
2, 76793, Control_c, 0, 64, 127
2, 76800, Note_off_c, 0, 80, 64
2, 76816, Note_off_c, 0, 92, 64
2, 76831, Note_off_c, 0, 87, 64
2, 76847, Control_c, 0, 64, 104
2, 76851, Control_c, 0, 64, 0
2, 76855, Note_on_c, 0, 93, 105
2, 76856, Note_on_c, 0, 87, 77
2, 76856, Note_on_c, 0, 81, 88
2, 76860, Note_on_c, 0, 54, 95
2, 76860, Note_on_c, 0, 42, 89
2, 76862, Note_on_c, 0, 83, 62
2, 76863, Note_on_c, 0, 92, 40
2, 76871, Note_off_c, 0, 83, 64
2, 76871, Control_c, 0, 64, 72
2, 76872, Note_off_c, 0, 92, 64
2, 76872, Note_off_c, 0, 54, 64
2, 76872, Note_off_c, 0, 81, 64
2, 76873, Note_off_c, 0, 93, 64
2, 76876, Note_off_c, 0, 42, 64
2, 76876, Control_c, 0, 64, 127
2, 76881, Note_off_c, 0, 87, 64
2, 76955, Note_on_c, 0, 77, 96
2, 76955, Note_on_c, 0, 53, 78
2, 76955, Note_on_c, 0, 65, 82
2, 76958, Note_on_c, 0, 41, 75
2, 76960, Note_on_c, 0, 73, 45
2, 76963, Note_off_c, 0, 65, 64
2, 76963, Note_off_c, 0, 53, 64
2, 76963, Note_off_c, 0, 77, 64
2, 76967, Note_off_c, 0, 73, 64
2, 76970, Note_off_c, 0, 41, 64
2, 76982, Control_c, 0, 64, 56
2, 76986, Note_on_c, 0, 63, 99
2, 76987, Note_on_c, 0, 75, 95
2, 76987, Control_c, 0, 64, 0
2, 76990, Note_on_c, 0, 39, 83
2, 76992, Note_on_c, 0, 51, 89
2, 76995, Note_on_c, 0, 73, 44
2, 77001, Control_c, 0, 64, 72
2, 77002, Note_off_c, 0, 73, 64
2, 77002, Note_off_c, 0, 63, 64
2, 77005, Note_off_c, 0, 51, 64
2, 77006, Note_off_c, 0, 39, 64
2, 77007, Control_c, 0, 64, 127
2, 77011, Note_off_c, 0, 75, 64
2, 77083, Note_on_c, 0, 69, 102
2, 77083, Note_on_c, 0, 81, 107
2, 77092, Note_on_c, 0, 57, 84
2, 77092, Note_on_c, 0, 45, 86
2, 77103, Control_c, 0, 64, 0
2, 77137, Control_c, 0, 64, 104
2, 77141, Control_c, 0, 64, 127
2, 77143, Note_off_c, 0, 57, 64
2, 77148, Note_off_c, 0, 69, 64
2, 77151, Note_off_c, 0, 45, 64
2, 77162, Note_off_c, 0, 81, 64
2, 77260, Note_on_c, 0, 86, 99
2, 77261, Note_on_c, 0, 74, 92
2, 77261, Note_on_c, 0, 81, 85
2, 77262, Note_on_c, 0, 84, 86
2, 77262, Note_on_c, 0, 30, 75
2, 77263, Note_on_c, 0, 42, 90
2, 77263, Control_c, 0, 64, 24
2, 77268, Control_c, 0, 64, 0
2, 77291, Note_off_c, 0, 81, 64
2, 77292, Control_c, 0, 64, 56
2, 77297, Note_off_c, 0, 30, 64
2, 77297, Control_c, 0, 64, 127
2, 77307, Note_off_c, 0, 84, 64
2, 77310, Note_off_c, 0, 74, 64
2, 77311, Note_off_c, 0, 86, 64
2, 77318, Note_off_c, 0, 42, 64
2, 77352, Note_on_c, 0, 86, 99
2, 77355, Note_on_c, 0, 74, 88
2, 77355, Note_on_c, 0, 82, 76
2, 77357, Note_on_c, 0, 79, 84
2, 77361, Note_on_c, 0, 43, 86
2, 77362, Note_on_c, 0, 31, 80
2, 77365, Control_c, 0, 64, 104
2, 77370, Control_c, 0, 64, 0
2, 77402, Control_c, 0, 64, 127
2, 77408, Note_off_c, 0, 79, 64
2, 77412, Note_off_c, 0, 31, 64
2, 77412, Note_off_c, 0, 86, 64
2, 77417, Note_off_c, 0, 82, 64
2, 77418, Note_off_c, 0, 43, 64
2, 77425, Note_off_c, 0, 74, 64
2, 77485, Note_on_c, 0, 82, 83
2, 77486, Note_on_c, 0, 70, 82
2, 77490, Note_on_c, 0, 74, 77
2, 77490, Note_on_c, 0, 79, 69
2, 77491, Control_c, 0, 64, 88
2, 77492, Note_on_c, 0, 50, 78
2, 77493, Note_on_c, 0, 38, 71
2, 77498, Note_off_c, 0, 74, 64
2, 77501, Note_off_c, 0, 79, 64
2, 77501, Control_c, 0, 64, 127
2, 77503, Note_off_c, 0, 38, 64
2, 77513, Note_off_c, 0, 50, 64
2, 77513, Note_off_c, 0, 82, 64
2, 77517, Note_off_c, 0, 70, 64
2, 77571, Note_on_c, 0, 79, 99
2, 77572, Note_on_c, 0, 70, 73
2, 77575, Note_on_c, 0, 67, 82
2, 77578, Note_on_c, 0, 55, 79
2, 77580, Note_on_c, 0, 43, 75
2, 77587, Control_c, 0, 64, 24
2, 77592, Control_c, 0, 64, 0
2, 77612, Note_off_c, 0, 70, 64
2, 77613, Note_off_c, 0, 67, 64
2, 77617, Control_c, 0, 64, 104
2, 77620, Note_off_c, 0, 43, 64
2, 77622, Control_c, 0, 64, 127
2, 77623, Note_off_c, 0, 55, 64
2, 77626, Note_off_c, 0, 79, 64
2, 77692, Note_on_c, 0, 81, 94
2, 77693, Control_c, 0, 64, 104
2, 77696, Note_on_c, 0, 69, 83
2, 77697, Note_on_c, 0, 74, 83
2, 77698, Note_on_c, 0, 53, 82
2, 77700, Note_on_c, 0, 41, 74
2, 77700, Control_c, 0, 64, 40
2, 77708, Control_c, 0, 64, 72
2, 77713, Control_c, 0, 64, 104
2, 77715, Note_off_c, 0, 69, 64
2, 77717, Note_off_c, 0, 53, 64
2, 77718, Note_off_c, 0, 41, 64
2, 77718, Control_c, 0, 64, 127
2, 77720, Note_off_c, 0, 74, 64
2, 77727, Note_off_c, 0, 81, 64
2, 77773, Note_on_c, 0, 82, 89
2, 77776, Control_c, 0, 64, 88
2, 77777, Note_on_c, 0, 70, 85
2, 77780, Note_on_c, 0, 74, 83
2, 77780, Note_on_c, 0, 79, 80
2, 77781, Control_c, 0, 64, 0
2, 77783, Note_on_c, 0, 52, 82
2, 77785, Note_on_c, 0, 40, 74
2, 77800, Control_c, 0, 64, 72
2, 77802, Note_off_c, 0, 52, 64
2, 77802, Note_off_c, 0, 79, 64
2, 77802, Note_off_c, 0, 74, 64
2, 77805, Note_off_c, 0, 40, 64
2, 77806, Control_c, 0, 64, 127
2, 77808, Note_off_c, 0, 82, 64
2, 77817, Note_off_c, 0, 70, 64
2, 77862, Note_on_c, 0, 50, 68
2, 77871, Note_off_c, 0, 50, 64
2, 77872, Note_on_c, 0, 38, 26
2, 77880, Note_off_c, 0, 38, 64
2, 77887, Control_c, 0, 64, 72
2, 77891, Note_on_c, 0, 79, 97
2, 77891, Note_on_c, 0, 37, 85
2, 77892, Note_on_c, 0, 67, 85
2, 77892, Note_on_c, 0, 49, 87
2, 77893, Note_on_c, 0, 70, 77
2, 77893, Control_c, 0, 64, 0
2, 77895, Note_on_c, 0, 76, 75
2, 77907, Note_off_c, 0, 49, 64
2, 77907, Control_c, 0, 64, 56
2, 77908, Note_off_c, 0, 37, 64
2, 77912, Control_c, 0, 64, 127
2, 77913, Note_off_c, 0, 76, 64
2, 77918, Note_off_c, 0, 67, 64
2, 77918, Note_off_c, 0, 79, 64
2, 77928, Note_off_c, 0, 70, 64
2, 77970, Note_on_c, 0, 76, 96
2, 77971, Note_on_c, 0, 73, 75
2, 77972, Note_on_c, 0, 64, 82
2, 77973, Note_on_c, 0, 70, 70
2, 77976, Note_on_c, 0, 58, 88
2, 77977, Note_on_c, 0, 46, 85
2, 77978, Control_c, 0, 64, 88
2, 77985, Control_c, 0, 64, 0
2, 77998, Note_off_c, 0, 64, 64
2, 78003, Control_c, 0, 64, 72
2, 78005, Note_off_c, 0, 70, 64
2, 78007, Note_off_c, 0, 46, 64
2, 78008, Control_c, 0, 64, 127
2, 78010, Note_off_c, 0, 76, 64
2, 78015, Note_off_c, 0, 73, 64
2, 78028, Note_off_c, 0, 58, 64
2, 78086, Control_c, 0, 64, 72
2, 78090, Note_on_c, 0, 78, 90
2, 78090, Control_c, 0, 64, 0
2, 78092, Note_on_c, 0, 66, 85
2, 78093, Note_on_c, 0, 75, 74
2, 78095, Note_on_c, 0, 72, 79
2, 78097, Note_on_c, 0, 57, 71
2, 78101, Note_on_c, 0, 45, 73
2, 78106, Control_c, 0, 64, 88
2, 78110, Note_off_c, 0, 45, 64
2, 78111, Control_c, 0, 64, 127
2, 78113, Note_off_c, 0, 57, 64
2, 78115, Note_off_c, 0, 66, 64
2, 78123, Note_off_c, 0, 72, 64
2, 78130, Note_off_c, 0, 78, 64
2, 78133, Note_off_c, 0, 75, 64
2, 78167, Note_on_c, 0, 79, 92
2, 78167, Note_on_c, 0, 67, 82
2, 78167, Note_on_c, 0, 34, 67
2, 78167, Note_on_c, 0, 46, 71
2, 78167, Note_on_c, 0, 74, 86
2, 78167, Control_c, 0, 64, 72
2, 78173, Control_c, 0, 64, 0
2, 78176, Note_off_c, 0, 34, 64
2, 78177, Note_off_c, 0, 46, 64
2, 78183, Control_c, 0, 64, 56
2, 78188, Control_c, 0, 64, 127
2, 78192, Note_off_c, 0, 74, 64
2, 78192, Note_off_c, 0, 79, 64
2, 78198, Note_off_c, 0, 67, 64
2, 78247, Note_on_c, 0, 45, 86
2, 78247, Note_on_c, 0, 33, 75
2, 78257, Note_off_c, 0, 33, 64
2, 78257, Note_off_c, 0, 45, 64
2, 78276, Note_on_c, 0, 76, 99
2, 78277, Note_on_c, 0, 70, 83
2, 78277, Note_on_c, 0, 64, 88
2, 78281, Control_c, 0, 64, 72
2, 78285, Control_c, 0, 64, 0
2, 78287, Note_on_c, 0, 43, 87
2, 78291, Note_on_c, 0, 31, 69
2, 78297, Note_off_c, 0, 64, 64
2, 78300, Note_off_c, 0, 31, 64
2, 78300, Control_c, 0, 64, 40
2, 78302, Note_off_c, 0, 43, 64
2, 78303, Note_off_c, 0, 70, 64
2, 78303, Control_c, 0, 64, 127
2, 78306, Note_off_c, 0, 76, 64
2, 78360, Note_on_c, 0, 73, 93
2, 78361, Note_on_c, 0, 61, 88
2, 78361, Note_on_c, 0, 70, 81
2, 78363, Note_on_c, 0, 67, 82
2, 78371, Note_on_c, 0, 40, 68
2, 78371, Note_on_c, 0, 52, 76
2, 78372, Control_c, 0, 64, 72
2, 78377, Control_c, 0, 64, 0
2, 78396, Control_c, 0, 64, 56
2, 78401, Control_c, 0, 64, 127
2, 78405, Note_off_c, 0, 61, 64
2, 78417, Note_off_c, 0, 40, 64
2, 78418, Note_off_c, 0, 73, 64
2, 78426, Note_off_c, 0, 52, 64
2, 78427, Note_off_c, 0, 70, 64
2, 78436, Note_off_c, 0, 67, 64
2, 78480, Note_on_c, 0, 74, 94
2, 78483, Note_on_c, 0, 62, 84
2, 78483, Note_on_c, 0, 70, 75
2, 78486, Note_on_c, 0, 67, 77
2, 78487, Note_on_c, 0, 50, 86
2, 78488, Note_on_c, 0, 38, 71
2, 78488, Control_c, 0, 64, 88
2, 78493, Control_c, 0, 64, 24
2, 78498, Control_c, 0, 64, 40
2, 78503, Control_c, 0, 64, 72
2, 78505, Note_off_c, 0, 62, 64
2, 78508, Control_c, 0, 64, 127
2, 78510, Note_off_c, 0, 38, 64
2, 78510, Note_off_c, 0, 50, 64
2, 78513, Note_off_c, 0, 74, 64
2, 78518, Note_off_c, 0, 67, 64
2, 78521, Note_off_c, 0, 70, 64
2, 78551, Control_c, 0, 64, 88
2, 78556, Control_c, 0, 64, 0
2, 78562, Note_on_c, 0, 75, 91
2, 78562, Note_on_c, 0, 63, 84
2, 78563, Note_on_c, 0, 69, 84
2, 78565, Note_on_c, 0, 67, 76
2, 78567, Note_on_c, 0, 49, 89
2, 78568, Note_on_c, 0, 37, 77
2, 78580, Control_c, 0, 64, 56
2, 78585, Control_c, 0, 64, 127
2, 78596, Note_off_c, 0, 63, 64
2, 78598, Note_off_c, 0, 69, 64
2, 78608, Note_off_c, 0, 75, 64
2, 78611, Note_off_c, 0, 67, 64
2, 78636, Note_off_c, 0, 37, 64
2, 78636, Note_on_c, 0, 76, 94
2, 78638, Note_on_c, 0, 67, 53
2, 78640, Note_on_c, 0, 64, 66
2, 78641, Note_on_c, 0, 69, 74
2, 78645, Note_on_c, 0, 70, 34
2, 78647, Note_on_c, 0, 65, 45
2, 78652, Note_off_c, 0, 49, 64
2, 78653, Control_c, 0, 64, 104
2, 78657, Note_off_c, 0, 65, 64
2, 78657, Control_c, 0, 64, 24
2, 78662, Control_c, 0, 64, 0
2, 78672, Control_c, 0, 64, 24
2, 78677, Control_c, 0, 64, 72
2, 78682, Control_c, 0, 64, 127
2, 78690, Note_on_c, 0, 48, 86
2, 78693, Note_on_c, 0, 36, 70
2, 78707, Note_off_c, 0, 48, 64
2, 78712, Note_off_c, 0, 36, 64
2, 78726, Note_off_c, 0, 64, 64
2, 78741, Note_off_c, 0, 67, 64
2, 78742, Note_off_c, 0, 69, 64
2, 78750, Note_on_c, 0, 47, 80
2, 78753, Note_off_c, 0, 70, 64
2, 78753, Note_on_c, 0, 35, 71
2, 78766, Note_off_c, 0, 35, 64
2, 78768, Note_off_c, 0, 47, 64
2, 78790, Note_off_c, 0, 76, 64
2, 78810, Note_on_c, 0, 46, 84
2, 78811, Note_on_c, 0, 34, 74
2, 78831, Note_off_c, 0, 46, 64
2, 78836, Note_off_c, 0, 34, 64
2, 78870, Note_on_c, 0, 45, 94
2, 78872, Note_on_c, 0, 33, 79
2, 78881, Control_c, 0, 64, 24
2, 78886, Control_c, 0, 64, 0
2, 78918, Note_off_c, 0, 33, 64
2, 78923, Note_off_c, 0, 45, 64
2, 78941, Note_on_c, 0, 93, 105
2, 78942, Note_on_c, 0, 45, 89
2, 78942, Note_on_c, 0, 33, 75
2, 78942, Note_on_c, 0, 89, 90
2, 78948, Control_c, 0, 64, 56
2, 78951, Control_c, 0, 64, 127
2, 78955, Note_off_c, 0, 33, 64
2, 78958, Note_off_c, 0, 45, 64
2, 78976, Note_off_c, 0, 93, 64
2, 78978, Note_off_c, 0, 89, 64
2, 78978, Note_on_c, 0, 88, 92
2, 79008, Note_on_c, 0, 86, 82
2, 79013, Note_off_c, 0, 88, 64
2, 79015, Note_on_c, 0, 50, 74
2, 79017, Note_on_c, 0, 38, 61
2, 79032, Note_off_c, 0, 38, 64
2, 79037, Note_off_c, 0, 50, 64
2, 79040, Note_off_c, 0, 86, 64
2, 79041, Note_on_c, 0, 81, 81
2, 79056, Note_off_c, 0, 81, 64
2, 79076, Note_on_c, 0, 52, 72
2, 79077, Note_on_c, 0, 77, 72
2, 79078, Note_on_c, 0, 40, 65
2, 79080, Note_on_c, 0, 79, 40
2, 79081, Note_on_c, 0, 81, 80
2, 79088, Note_off_c, 0, 79, 64
2, 79090, Note_off_c, 0, 81, 64
2, 79091, Note_off_c, 0, 40, 64
2, 79096, Note_off_c, 0, 77, 64
2, 79098, Note_off_c, 0, 52, 64
2, 79107, Note_on_c, 0, 76, 78
2, 79133, Note_off_c, 0, 76, 64
2, 79138, Note_on_c, 0, 74, 79
2, 79143, Control_c, 0, 64, 104
2, 79146, Note_on_c, 0, 53, 82
2, 79148, Note_on_c, 0, 41, 73
2, 79148, Control_c, 0, 64, 40
2, 79152, Control_c, 0, 64, 0
2, 79163, Control_c, 0, 64, 72
2, 79167, Control_c, 0, 64, 127
2, 79170, Note_off_c, 0, 74, 64
2, 79172, Note_on_c, 0, 69, 80
2, 79187, Note_off_c, 0, 69, 64
2, 79208, Note_on_c, 0, 65, 59
2, 79210, Note_on_c, 0, 69, 73
2, 79218, Note_off_c, 0, 69, 64
2, 79226, Note_off_c, 0, 65, 64
2, 79236, Note_on_c, 0, 64, 76
2, 79253, Note_off_c, 0, 41, 64
2, 79260, Note_off_c, 0, 64, 64
2, 79268, Note_off_c, 0, 53, 64
2, 79268, Note_on_c, 0, 62, 72
2, 79291, Note_off_c, 0, 62, 64
2, 79300, Note_on_c, 0, 57, 72
2, 79316, Note_off_c, 0, 57, 64
2, 79336, Control_c, 0, 64, 72
2, 79340, Note_on_c, 0, 58, 79
2, 79340, Control_c, 0, 64, 0
2, 79345, Note_on_c, 0, 55, 62
2, 79355, Control_c, 0, 64, 24
2, 79357, Note_off_c, 0, 58, 64
2, 79358, Control_c, 0, 64, 72
2, 79363, Control_c, 0, 64, 127
2, 79367, Note_off_c, 0, 55, 64
2, 79372, Note_on_c, 0, 70, 71
2, 79376, Note_on_c, 0, 61, 57
2, 79377, Note_on_c, 0, 52, 62
2, 79386, Note_off_c, 0, 61, 64
2, 79392, Note_off_c, 0, 70, 64
2, 79398, Note_off_c, 0, 52, 64
2, 79407, Note_on_c, 0, 45, 66
2, 79407, Note_on_c, 0, 61, 67
2, 79416, Note_off_c, 0, 45, 64
2, 79425, Note_off_c, 0, 61, 64
2, 79440, Note_on_c, 0, 73, 75
2, 79443, Note_on_c, 0, 58, 44
2, 79447, Note_on_c, 0, 64, 53
2, 79455, Note_off_c, 0, 64, 64
2, 79460, Note_off_c, 0, 73, 64
2, 79467, Note_off_c, 0, 58, 64
2, 79468, Note_on_c, 0, 55, 60
2, 79472, Note_on_c, 0, 64, 75
2, 79490, Note_off_c, 0, 64, 64
2, 79496, Note_off_c, 0, 55, 64
2, 79505, Note_on_c, 0, 67, 77
2, 79505, Note_on_c, 0, 45, 55
2, 79506, Note_on_c, 0, 55, 25
2, 79507, Note_on_c, 0, 76, 51
2, 79511, Note_off_c, 0, 67, 64
2, 79512, Note_off_c, 0, 45, 64
2, 79518, Note_off_c, 0, 76, 64
2, 79535, Note_on_c, 0, 67, 96
2, 79541, Note_on_c, 0, 61, 65
2, 79553, Note_off_c, 0, 67, 64
2, 79557, Note_off_c, 0, 61, 64
2, 79562, Note_off_c, 0, 55, 64
2, 79567, Note_on_c, 0, 70, 67
2, 79568, Note_on_c, 0, 79, 90
2, 79580, Note_off_c, 0, 70, 64
2, 79582, Note_off_c, 0, 79, 64
2, 79586, Note_on_c, 0, 47, 32
2, 79593, Note_off_c, 0, 47, 64
2, 79601, Note_on_c, 0, 70, 97
2, 79607, Note_on_c, 0, 64, 72
2, 79615, Note_off_c, 0, 64, 64
2, 79620, Note_off_c, 0, 70, 64
2, 79633, Note_on_c, 0, 82, 86
2, 79635, Note_on_c, 0, 73, 75
2, 79642, Note_off_c, 0, 73, 64
2, 79653, Note_off_c, 0, 82, 64
2, 79666, Note_on_c, 0, 73, 89
2, 79687, Note_off_c, 0, 73, 64
2, 79697, Note_on_c, 0, 85, 84
2, 79701, Note_on_c, 0, 76, 82
2, 79707, Note_off_c, 0, 76, 64
2, 79716, Note_off_c, 0, 85, 64
2, 79755, Control_c, 0, 64, 72
2, 79758, Control_c, 0, 64, 0
2, 79765, Note_on_c, 0, 93, 102
2, 79767, Note_on_c, 0, 89, 89
2, 79768, Note_on_c, 0, 45, 86
2, 79770, Note_on_c, 0, 33, 66
2, 79780, Note_off_c, 0, 33, 64
2, 79782, Control_c, 0, 64, 24
2, 79786, Control_c, 0, 64, 88
2, 79787, Note_off_c, 0, 45, 64
2, 79790, Control_c, 0, 64, 127
2, 79795, Note_off_c, 0, 93, 64
2, 79796, Note_off_c, 0, 89, 64
2, 79803, Note_on_c, 0, 88, 88
2, 79833, Note_off_c, 0, 88, 64
2, 79835, Note_on_c, 0, 86, 83
2, 79840, Note_on_c, 0, 50, 79
2, 79841, Note_on_c, 0, 38, 66
2, 79858, Note_off_c, 0, 38, 64
2, 79866, Note_on_c, 0, 81, 85
2, 79867, Note_off_c, 0, 50, 64
2, 79867, Note_off_c, 0, 86, 64
2, 79881, Note_off_c, 0, 81, 64
2, 79896, Note_on_c, 0, 81, 71
2, 79897, Note_on_c, 0, 77, 82
2, 79900, Note_on_c, 0, 52, 82
2, 79901, Note_on_c, 0, 40, 66
2, 79915, Note_off_c, 0, 81, 64
2, 79918, Note_off_c, 0, 77, 64
2, 79920, Note_off_c, 0, 40, 64
2, 79927, Note_on_c, 0, 76, 83
2, 79930, Note_off_c, 0, 52, 64
2, 79957, Note_off_c, 0, 76, 64
2, 79957, Note_on_c, 0, 74, 80
2, 79960, Note_on_c, 0, 53, 84
2, 79961, Note_on_c, 0, 41, 72
2, 79970, Control_c, 0, 64, 104
2, 79973, Control_c, 0, 64, 40
2, 79977, Control_c, 0, 64, 0
2, 79991, Note_off_c, 0, 74, 64
2, 79991, Note_on_c, 0, 69, 83
2, 79993, Control_c, 0, 64, 24
2, 79997, Control_c, 0, 64, 88
2, 80001, Control_c, 0, 64, 127
2, 80008, Note_off_c, 0, 69, 64
2, 80025, Note_on_c, 0, 69, 71
2, 80028, Note_on_c, 0, 65, 64
2, 80043, Note_off_c, 0, 69, 64
2, 80045, Note_off_c, 0, 65, 64
2, 80056, Note_on_c, 0, 64, 75
2, 80072, Note_off_c, 0, 41, 64
2, 80082, Note_off_c, 0, 64, 64
2, 80088, Note_on_c, 0, 62, 75
2, 80098, Note_off_c, 0, 53, 64
2, 80111, Note_off_c, 0, 62, 64
2, 80120, Note_on_c, 0, 57, 64
2, 80133, Note_off_c, 0, 57, 64
2, 80150, Control_c, 0, 64, 88
2, 80153, Control_c, 0, 64, 40
2, 80157, Control_c, 0, 64, 0
2, 80158, Note_on_c, 0, 61, 85
2, 80162, Note_on_c, 0, 58, 58
2, 80170, Control_c, 0, 64, 56
2, 80173, Control_c, 0, 64, 104
2, 80177, Note_off_c, 0, 61, 64
2, 80177, Control_c, 0, 64, 127
2, 80186, Note_off_c, 0, 58, 64
2, 80192, Note_on_c, 0, 73, 77
2, 80196, Note_on_c, 0, 64, 63
2, 80197, Note_on_c, 0, 55, 64
2, 80202, Note_off_c, 0, 64, 64
2, 80212, Note_off_c, 0, 73, 64
2, 80215, Note_off_c, 0, 55, 64
2, 80226, Note_on_c, 0, 64, 86
2, 80231, Note_on_c, 0, 45, 63
2, 80240, Note_off_c, 0, 45, 64
2, 80243, Note_off_c, 0, 64, 64
2, 80261, Note_on_c, 0, 67, 76
2, 80262, Note_on_c, 0, 76, 56
2, 80268, Note_off_c, 0, 67, 64
2, 80272, Note_on_c, 0, 61, 58
2, 80277, Note_off_c, 0, 76, 64
2, 80292, Note_on_c, 0, 67, 92
2, 80295, Note_off_c, 0, 61, 64
2, 80301, Note_on_c, 0, 55, 64
2, 80311, Note_off_c, 0, 67, 64
2, 80317, Note_off_c, 0, 55, 64
2, 80323, Note_on_c, 0, 70, 77
2, 80323, Note_on_c, 0, 79, 90
2, 80332, Note_on_c, 0, 45, 63
2, 80338, Note_off_c, 0, 70, 64
2, 80340, Note_off_c, 0, 45, 64
2, 80340, Note_off_c, 0, 79, 64
2, 80357, Note_on_c, 0, 70, 95
2, 80362, Note_on_c, 0, 64, 70
2, 80375, Note_off_c, 0, 70, 64
2, 80376, Note_off_c, 0, 64, 64
2, 80390, Note_on_c, 0, 73, 85
2, 80390, Note_on_c, 0, 82, 72
2, 80400, Note_on_c, 0, 45, 64
2, 80405, Note_off_c, 0, 73, 64
2, 80407, Note_off_c, 0, 45, 64
2, 80407, Note_off_c, 0, 82, 64
2, 80423, Note_on_c, 0, 73, 91
2, 80428, Note_on_c, 0, 67, 80
2, 80432, Note_on_c, 0, 85, 42
2, 80440, Note_off_c, 0, 85, 64
2, 80441, Note_off_c, 0, 67, 64
2, 80442, Note_off_c, 0, 73, 64
2, 80453, Note_on_c, 0, 85, 72
2, 80457, Note_on_c, 0, 76, 89
2, 80470, Note_off_c, 0, 76, 64
2, 80477, Note_off_c, 0, 85, 64
2, 80488, Note_on_c, 0, 76, 89
2, 80511, Note_off_c, 0, 76, 64
2, 80518, Note_on_c, 0, 79, 83
2, 80521, Note_on_c, 0, 88, 96
2, 80528, Note_off_c, 0, 79, 64
2, 80537, Note_off_c, 0, 88, 64
2, 80577, Control_c, 0, 64, 88
2, 80581, Control_c, 0, 64, 0
2, 80586, Note_on_c, 0, 89, 99
2, 80587, Note_on_c, 0, 98, 97
2, 80588, Note_on_c, 0, 45, 82
2, 80588, Note_on_c, 0, 33, 69
2, 80603, Note_off_c, 0, 33, 64
2, 80605, Control_c, 0, 64, 40
2, 80606, Note_off_c, 0, 45, 64
2, 80608, Control_c, 0, 64, 127
2, 80616, Note_off_c, 0, 98, 64
2, 80618, Note_off_c, 0, 89, 64
2, 80628, Note_on_c, 0, 93, 83
2, 80656, Note_off_c, 0, 93, 64
2, 80660, Note_on_c, 0, 89, 84
2, 80665, Note_on_c, 0, 50, 66
2, 80665, Note_on_c, 0, 38, 58
2, 80680, Note_off_c, 0, 38, 64
2, 80685, Note_off_c, 0, 50, 64
2, 80688, Note_off_c, 0, 89, 64
2, 80692, Note_on_c, 0, 86, 65
2, 80711, Note_off_c, 0, 86, 64
2, 80723, Note_on_c, 0, 93, 90
2, 80723, Note_on_c, 0, 52, 72
2, 80725, Note_on_c, 0, 86, 60
2, 80726, Note_on_c, 0, 86, 73
2, 80726, Note_on_c, 0, 40, 59
2, 80742, Note_off_c, 0, 86, 64
2, 80743, Note_off_c, 0, 93, 64
2, 80745, Note_off_c, 0, 40, 64
2, 80746, Note_off_c, 0, 86, 64
2, 80750, Note_off_c, 0, 52, 64
2, 80757, Note_on_c, 0, 89, 72
2, 80785, Note_on_c, 0, 86, 81
2, 80787, Note_off_c, 0, 89, 64
2, 80788, Note_on_c, 0, 55, 80
2, 80792, Note_on_c, 0, 43, 69
2, 80792, Control_c, 0, 64, 104
2, 80796, Control_c, 0, 64, 72
2, 80800, Control_c, 0, 64, 56
2, 80803, Control_c, 0, 64, 72
2, 80807, Control_c, 0, 64, 104
2, 80811, Note_off_c, 0, 43, 64
2, 80811, Note_off_c, 0, 55, 64
2, 80811, Control_c, 0, 64, 127
2, 80813, Note_off_c, 0, 86, 64
2, 80817, Note_on_c, 0, 81, 81
2, 80837, Note_off_c, 0, 81, 64
2, 80848, Note_on_c, 0, 89, 93
2, 80850, Note_on_c, 0, 81, 80
2, 80855, Note_on_c, 0, 53, 74
2, 80856, Note_on_c, 0, 41, 63
2, 80871, Note_off_c, 0, 41, 64
2, 80872, Note_off_c, 0, 53, 64
2, 80875, Note_off_c, 0, 89, 64
2, 80877, Note_off_c, 0, 81, 64
2, 80885, Note_on_c, 0, 86, 78
2, 80912, Note_off_c, 0, 86, 64
2, 80912, Note_on_c, 0, 56, 74
2, 80913, Note_on_c, 0, 44, 68
2, 80913, Note_on_c, 0, 81, 81
2, 80926, Note_off_c, 0, 44, 64
2, 80927, Note_off_c, 0, 56, 64
2, 80938, Note_off_c, 0, 81, 64
2, 80941, Note_on_c, 0, 77, 84
2, 80961, Note_off_c, 0, 77, 64
2, 80975, Note_on_c, 0, 77, 77
2, 80975, Note_on_c, 0, 86, 83
2, 80976, Note_on_c, 0, 59, 74
2, 80976, Control_c, 0, 64, 72
2, 80978, Note_on_c, 0, 47, 66
2, 80980, Control_c, 0, 64, 24
2, 80983, Control_c, 0, 64, 0
2, 80996, Note_off_c, 0, 47, 64
2, 80996, Control_c, 0, 64, 56
2, 80998, Note_off_c, 0, 77, 64
2, 81000, Control_c, 0, 64, 88
2, 81001, Note_off_c, 0, 59, 64
2, 81001, Note_off_c, 0, 86, 64
2, 81003, Control_c, 0, 64, 127
2, 81008, Note_on_c, 0, 83, 77
2, 81036, Note_on_c, 0, 77, 83
2, 81041, Note_off_c, 0, 83, 64
2, 81041, Note_on_c, 0, 57, 74
2, 81042, Note_on_c, 0, 45, 77
2, 81057, Note_off_c, 0, 45, 64
2, 81057, Note_off_c, 0, 57, 64
2, 81061, Note_off_c, 0, 77, 64
2, 81066, Note_on_c, 0, 74, 82
2, 81087, Note_off_c, 0, 74, 64
2, 81090, Control_c, 0, 64, 72
2, 81093, Control_c, 0, 64, 40
2, 81096, Note_on_c, 0, 61, 86
2, 81097, Note_on_c, 0, 83, 86
2, 81097, Note_on_c, 0, 49, 82
2, 81100, Note_on_c, 0, 74, 79
2, 81106, Control_c, 0, 64, 88
2, 81110, Note_off_c, 0, 49, 64
2, 81110, Control_c, 0, 64, 127
2, 81112, Note_off_c, 0, 61, 64
2, 81117, Note_off_c, 0, 74, 64
2, 81122, Note_off_c, 0, 83, 64
2, 81130, Note_on_c, 0, 77, 81
2, 81155, Note_on_c, 0, 64, 84
2, 81156, Note_on_c, 0, 74, 82
2, 81157, Note_on_c, 0, 52, 82
2, 81160, Note_off_c, 0, 77, 64
2, 81173, Note_off_c, 0, 52, 64
2, 81177, Note_off_c, 0, 64, 64
2, 81183, Note_off_c, 0, 74, 64
2, 81188, Note_on_c, 0, 69, 65
2, 81208, Note_off_c, 0, 69, 64
2, 81218, Note_on_c, 0, 62, 86
2, 81221, Note_on_c, 0, 50, 89
2, 81222, Note_on_c, 0, 77, 80
2, 81225, Note_on_c, 0, 69, 46
2, 81231, Control_c, 0, 64, 104
2, 81235, Control_c, 0, 64, 40
2, 81238, Control_c, 0, 64, 0
2, 81245, Note_off_c, 0, 69, 64
2, 81247, Note_off_c, 0, 77, 64
2, 81257, Note_on_c, 0, 74, 74
2, 81257, Control_c, 0, 64, 40
2, 81262, Control_c, 0, 64, 104
2, 81266, Control_c, 0, 64, 127
2, 81276, Note_off_c, 0, 62, 64
2, 81287, Note_on_c, 0, 69, 75
2, 81288, Note_off_c, 0, 74, 64
2, 81288, Note_off_c, 0, 50, 64
2, 81311, Note_off_c, 0, 69, 64
2, 81318, Note_on_c, 0, 65, 68
2, 81342, Note_off_c, 0, 65, 64
2, 81343, Control_c, 0, 64, 104
2, 81347, Control_c, 0, 64, 40
2, 81352, Control_c, 0, 64, 0
2, 81360, Note_on_c, 0, 44, 91
2, 81361, Note_on_c, 0, 74, 85
2, 81362, Note_on_c, 0, 65, 68
2, 81362, Note_on_c, 0, 32, 75
2, 81368, Control_c, 0, 64, 40
2, 81372, Control_c, 0, 64, 88
2, 81375, Note_off_c, 0, 32, 64
2, 81376, Note_off_c, 0, 44, 64
2, 81376, Control_c, 0, 64, 127
2, 81380, Note_off_c, 0, 65, 64
2, 81386, Note_off_c, 0, 74, 64
2, 81393, Note_on_c, 0, 71, 66
2, 81423, Note_off_c, 0, 71, 64
2, 81423, Note_on_c, 0, 65, 77
2, 81425, Note_on_c, 0, 50, 80
2, 81428, Note_on_c, 0, 38, 73
2, 81440, Note_off_c, 0, 38, 64
2, 81445, Note_off_c, 0, 50, 64
2, 81448, Note_off_c, 0, 65, 64
2, 81455, Note_on_c, 0, 62, 77
2, 81475, Note_off_c, 0, 62, 64
2, 81485, Note_on_c, 0, 52, 84
2, 81487, Note_on_c, 0, 71, 77
2, 81488, Note_on_c, 0, 40, 77
2, 81488, Note_on_c, 0, 62, 72
2, 81503, Note_off_c, 0, 40, 64
2, 81510, Note_off_c, 0, 52, 64
2, 81511, Note_off_c, 0, 62, 64
2, 81512, Note_off_c, 0, 71, 64
2, 81521, Note_on_c, 0, 65, 76
2, 81551, Note_off_c, 0, 65, 64
2, 81551, Note_on_c, 0, 53, 84
2, 81552, Note_on_c, 0, 62, 79
2, 81555, Note_on_c, 0, 41, 82
2, 81563, Control_c, 0, 64, 56
2, 81567, Control_c, 0, 64, 0
2, 81582, Control_c, 0, 64, 40
2, 81585, Note_off_c, 0, 62, 64
2, 81587, Note_on_c, 0, 59, 76
2, 81587, Control_c, 0, 64, 88
2, 81591, Control_c, 0, 64, 127
2, 81610, Note_off_c, 0, 59, 64
2, 81625, Note_on_c, 0, 65, 80
2, 81628, Note_on_c, 0, 59, 65
2, 81637, Note_off_c, 0, 59, 64
2, 81641, Note_off_c, 0, 65, 64
2, 81653, Note_on_c, 0, 62, 80
2, 81658, Note_off_c, 0, 53, 64
2, 81673, Note_off_c, 0, 41, 64
2, 81681, Note_off_c, 0, 62, 64
2, 81683, Note_on_c, 0, 59, 73
2, 81708, Note_off_c, 0, 59, 64
2, 81713, Note_on_c, 0, 53, 82
2, 81735, Note_off_c, 0, 53, 64
2, 81751, Note_on_c, 0, 64, 82
2, 81753, Note_on_c, 0, 59, 78
2, 81755, Control_c, 0, 64, 56
2, 81756, Note_on_c, 0, 44, 72
2, 81757, Note_on_c, 0, 32, 60
2, 81760, Control_c, 0, 64, 0
2, 81776, Note_off_c, 0, 59, 64
2, 81777, Note_off_c, 0, 64, 64
2, 81777, Control_c, 0, 64, 56
2, 81782, Control_c, 0, 64, 104
2, 81786, Note_on_c, 0, 62, 70
2, 81786, Control_c, 0, 64, 127
2, 81815, Note_on_c, 0, 59, 71
2, 81817, Note_off_c, 0, 62, 64
2, 81841, Note_off_c, 0, 59, 64
2, 81843, Note_on_c, 0, 52, 70
2, 81863, Note_off_c, 0, 52, 64
2, 81876, Note_on_c, 0, 59, 85
2, 81878, Note_on_c, 0, 65, 83
2, 81896, Note_off_c, 0, 59, 64
2, 81903, Note_off_c, 0, 65, 64
2, 81911, Note_on_c, 0, 62, 82
2, 81916, Note_off_c, 0, 32, 64
2, 81926, Note_off_c, 0, 44, 64
2, 81942, Note_on_c, 0, 59, 76
2, 81953, Note_off_c, 0, 62, 64
2, 81965, Note_off_c, 0, 59, 64
2, 81971, Note_on_c, 0, 52, 78
2, 81992, Note_off_c, 0, 52, 64
2, 82005, Note_on_c, 0, 64, 89
2, 82005, Note_on_c, 0, 56, 76
2, 82006, Control_c, 0, 64, 40
2, 82008, Note_on_c, 0, 48, 78
2, 82008, Note_on_c, 0, 36, 68
2, 82010, Control_c, 0, 64, 0
2, 82026, Control_c, 0, 64, 56
2, 82030, Control_c, 0, 64, 127
2, 82031, Note_off_c, 0, 64, 64
2, 82032, Note_off_c, 0, 56, 64
2, 82036, Note_off_c, 0, 36, 64
2, 82037, Note_on_c, 0, 62, 73
2, 82040, Note_off_c, 0, 48, 64
2, 82072, Note_on_c, 0, 56, 73
2, 82073, Note_on_c, 0, 47, 85
2, 82076, Note_on_c, 0, 35, 70
2, 82095, Note_off_c, 0, 35, 64
2, 82097, Note_off_c, 0, 62, 64
2, 82098, Note_off_c, 0, 47, 64
2, 82106, Note_off_c, 0, 56, 64
2, 82107, Note_on_c, 0, 52, 88
2, 82113, Note_off_c, 0, 52, 64
2, 82181, Note_on_c, 0, 45, 105
2, 82181, Note_on_c, 0, 33, 81
2, 82181, Control_c, 0, 64, 24
2, 82183, Note_on_c, 0, 93, 90
2, 82185, Note_on_c, 0, 89, 71
2, 82186, Control_c, 0, 64, 0
2, 82198, Note_off_c, 0, 33, 64
2, 82206, Note_off_c, 0, 45, 64
2, 82206, Control_c, 0, 64, 88
2, 82207, Note_off_c, 0, 89, 64
2, 82210, Note_off_c, 0, 93, 64
2, 82210, Control_c, 0, 64, 127
2, 82218, Note_on_c, 0, 88, 92
2, 82247, Note_off_c, 0, 88, 64
2, 82252, Note_on_c, 0, 84, 82
2, 82252, Note_on_c, 0, 52, 81
2, 82252, Note_on_c, 0, 40, 74
2, 82268, Note_off_c, 0, 40, 64
2, 82272, Note_off_c, 0, 52, 64
2, 82282, Note_on_c, 0, 81, 78
2, 82283, Note_off_c, 0, 84, 64
2, 82301, Note_off_c, 0, 81, 64
2, 82323, Note_on_c, 0, 59, 84
2, 82323, Note_on_c, 0, 47, 78
2, 82323, Note_on_c, 0, 81, 63
2, 82323, Note_on_c, 0, 77, 74
2, 82340, Note_off_c, 0, 81, 64
2, 82341, Note_off_c, 0, 59, 64
2, 82342, Note_off_c, 0, 47, 64
2, 82343, Note_off_c, 0, 77, 64
2, 82352, Note_on_c, 0, 76, 76
2, 82378, Note_off_c, 0, 76, 64
2, 82380, Note_on_c, 0, 72, 79
2, 82380, Note_on_c, 0, 48, 83
2, 82380, Note_on_c, 0, 60, 87
2, 82397, Control_c, 0, 64, 72
2, 82400, Control_c, 0, 64, 0
2, 82413, Note_off_c, 0, 72, 64
2, 82415, Note_on_c, 0, 69, 78
2, 82417, Control_c, 0, 64, 72
2, 82421, Control_c, 0, 64, 127
2, 82428, Note_off_c, 0, 69, 64
2, 82428, Note_off_c, 0, 48, 64
2, 82431, Note_off_c, 0, 60, 64
2, 82446, Note_on_c, 0, 69, 67
2, 82446, Note_on_c, 0, 65, 66
2, 82463, Note_off_c, 0, 69, 64
2, 82465, Note_off_c, 0, 65, 64
2, 82481, Note_on_c, 0, 64, 70
2, 82501, Note_off_c, 0, 64, 64
2, 82508, Note_on_c, 0, 60, 70
2, 82536, Note_off_c, 0, 60, 64
2, 82540, Note_on_c, 0, 57, 70
2, 82557, Note_off_c, 0, 57, 64
2, 82573, Control_c, 0, 64, 88
2, 82577, Note_on_c, 0, 56, 77
2, 82577, Control_c, 0, 64, 24
2, 82581, Note_on_c, 0, 53, 60
2, 82581, Control_c, 0, 64, 0
2, 82595, Note_off_c, 0, 56, 64
2, 82597, Control_c, 0, 64, 56
2, 82601, Control_c, 0, 64, 104
2, 82605, Note_off_c, 0, 53, 64
2, 82605, Control_c, 0, 64, 127
2, 82611, Note_on_c, 0, 68, 61
2, 82611, Note_on_c, 0, 59, 56
2, 82611, Note_on_c, 0, 50, 64
2, 82618, Note_off_c, 0, 59, 64
2, 82627, Note_off_c, 0, 50, 64
2, 82632, Note_off_c, 0, 68, 64
2, 82641, Note_on_c, 0, 59, 73
2, 82642, Note_on_c, 0, 45, 68
2, 82648, Note_off_c, 0, 45, 64
2, 82660, Note_off_c, 0, 59, 64
2, 82671, Note_on_c, 0, 56, 54
2, 82672, Note_on_c, 0, 71, 79
2, 82672, Note_on_c, 0, 62, 73
2, 82681, Note_off_c, 0, 62, 64
2, 82691, Note_off_c, 0, 71, 64
2, 82700, Note_off_c, 0, 56, 64
2, 82703, Note_on_c, 0, 62, 87
2, 82710, Note_on_c, 0, 53, 54
2, 82722, Note_off_c, 0, 62, 64
2, 82736, Note_on_c, 0, 65, 76
2, 82738, Note_on_c, 0, 45, 54
2, 82738, Note_on_c, 0, 74, 49
2, 82747, Note_off_c, 0, 65, 64
2, 82752, Note_off_c, 0, 45, 64
2, 82755, Note_off_c, 0, 74, 64
2, 82766, Note_on_c, 0, 65, 87
2, 82766, Note_on_c, 0, 59, 64
2, 82771, Note_off_c, 0, 53, 64
2, 82776, Note_off_c, 0, 59, 64
2, 82786, Note_off_c, 0, 65, 64
2, 82797, Note_on_c, 0, 68, 75
2, 82797, Note_on_c, 0, 53, 62
2, 82797, Note_on_c, 0, 77, 80
2, 82805, Note_off_c, 0, 53, 64
2, 82810, Note_off_c, 0, 77, 64
2, 82822, Note_off_c, 0, 68, 64
2, 82826, Note_on_c, 0, 68, 97
2, 82826, Note_on_c, 0, 45, 75
2, 82845, Note_off_c, 0, 68, 64
2, 82851, Note_off_c, 0, 45, 64
2, 82858, Note_on_c, 0, 80, 87
2, 82858, Note_on_c, 0, 62, 80
2, 82858, Note_on_c, 0, 71, 75
2, 82872, Note_off_c, 0, 62, 64
2, 82880, Note_off_c, 0, 80, 64
2, 82883, Note_off_c, 0, 71, 64
2, 82892, Note_on_c, 0, 71, 90
2, 82917, Note_off_c, 0, 71, 64
2, 82925, Note_on_c, 0, 83, 75
2, 82925, Note_on_c, 0, 74, 75
2, 82932, Note_off_c, 0, 74, 64
2, 82937, Note_off_c, 0, 83, 64
2, 82968, Control_c, 0, 64, 104
2, 82972, Control_c, 0, 64, 40
2, 82976, Control_c, 0, 64, 0
2, 82986, Note_on_c, 0, 93, 105
2, 82987, Note_on_c, 0, 89, 93
2, 82987, Note_on_c, 0, 33, 66
2, 82988, Note_on_c, 0, 45, 87
2, 83000, Control_c, 0, 64, 56
2, 83002, Note_off_c, 0, 33, 64
2, 83003, Note_off_c, 0, 45, 64
2, 83005, Control_c, 0, 64, 127
2, 83008, Note_off_c, 0, 93, 64
2, 83011, Note_off_c, 0, 89, 64
2, 83022, Note_on_c, 0, 88, 84
2, 83051, Note_off_c, 0, 88, 64
2, 83053, Note_on_c, 0, 84, 86
2, 83057, Note_on_c, 0, 52, 78
2, 83058, Note_on_c, 0, 40, 64
2, 83072, Note_off_c, 0, 40, 64
2, 83075, Note_off_c, 0, 52, 64
2, 83085, Note_on_c, 0, 81, 74
2, 83087, Note_off_c, 0, 84, 64
2, 83101, Note_off_c, 0, 81, 64
2, 83115, Note_on_c, 0, 81, 69
2, 83117, Note_on_c, 0, 77, 82
2, 83118, Note_on_c, 0, 59, 76
2, 83121, Note_on_c, 0, 47, 73
2, 83133, Note_off_c, 0, 47, 64
2, 83136, Note_off_c, 0, 59, 64
2, 83136, Note_off_c, 0, 81, 64
2, 83137, Note_off_c, 0, 77, 64
2, 83148, Note_on_c, 0, 76, 80
2, 83172, Note_on_c, 0, 72, 85
2, 83176, Note_off_c, 0, 76, 64
2, 83180, Note_on_c, 0, 60, 83
2, 83182, Note_on_c, 0, 48, 82
2, 83187, Control_c, 0, 64, 88
2, 83191, Control_c, 0, 64, 0
2, 83203, Control_c, 0, 64, 24
2, 83207, Note_off_c, 0, 72, 64
2, 83207, Note_on_c, 0, 69, 75
2, 83207, Control_c, 0, 64, 72
2, 83211, Control_c, 0, 64, 127
2, 83225, Note_off_c, 0, 69, 64
2, 83225, Note_off_c, 0, 48, 64
2, 83228, Note_off_c, 0, 60, 64
2, 83240, Note_on_c, 0, 69, 66
2, 83245, Note_on_c, 0, 65, 66
2, 83258, Note_off_c, 0, 69, 64
2, 83263, Note_off_c, 0, 65, 64
2, 83272, Note_on_c, 0, 64, 65
2, 83297, Note_off_c, 0, 64, 64
2, 83300, Note_on_c, 0, 60, 54
2, 83322, Note_off_c, 0, 60, 64
2, 83330, Note_on_c, 0, 57, 60
2, 83341, Note_off_c, 0, 57, 64
2, 83356, Control_c, 0, 64, 104
2, 83360, Control_c, 0, 64, 24
2, 83363, Control_c, 0, 64, 0
2, 83367, Note_on_c, 0, 59, 69
2, 83370, Note_on_c, 0, 56, 44
2, 83383, Note_off_c, 0, 59, 64
2, 83383, Control_c, 0, 64, 24
2, 83387, Control_c, 0, 64, 104
2, 83390, Note_off_c, 0, 56, 64
2, 83391, Control_c, 0, 64, 127
2, 83397, Note_on_c, 0, 71, 72
2, 83403, Note_on_c, 0, 62, 44
2, 83408, Note_on_c, 0, 53, 49
2, 83412, Note_off_c, 0, 62, 64
2, 83416, Note_off_c, 0, 71, 64
2, 83420, Note_off_c, 0, 53, 64
2, 83430, Note_on_c, 0, 62, 72
2, 83435, Note_on_c, 0, 45, 63
2, 83443, Note_off_c, 0, 45, 64
2, 83447, Note_off_c, 0, 62, 64
2, 83463, Note_on_c, 0, 65, 77
2, 83465, Note_on_c, 0, 74, 81
2, 83466, Note_on_c, 0, 59, 58
2, 83470, Note_off_c, 0, 65, 64
2, 83481, Note_off_c, 0, 74, 64
2, 83482, Note_off_c, 0, 59, 64
2, 83492, Note_on_c, 0, 65, 85
2, 83496, Note_on_c, 0, 53, 58
2, 83511, Note_off_c, 0, 65, 64
2, 83517, Note_on_c, 0, 68, 71
2, 83518, Note_on_c, 0, 45, 69
2, 83518, Note_on_c, 0, 77, 85
2, 83530, Note_off_c, 0, 53, 64
2, 83531, Note_off_c, 0, 68, 64
2, 83533, Note_off_c, 0, 77, 64
2, 83535, Note_off_c, 0, 45, 64
2, 83550, Note_on_c, 0, 68, 92
2, 83551, Note_on_c, 0, 62, 76
2, 83565, Note_off_c, 0, 68, 64
2, 83567, Note_off_c, 0, 62, 64
2, 83580, Note_on_c, 0, 80, 88
2, 83587, Note_on_c, 0, 45, 75
2, 83595, Note_off_c, 0, 45, 64
2, 83600, Note_off_c, 0, 80, 64
2, 83613, Note_on_c, 0, 71, 97
2, 83615, Note_on_c, 0, 65, 74
2, 83626, Note_off_c, 0, 65, 64
2, 83631, Note_off_c, 0, 71, 64
2, 83643, Note_on_c, 0, 74, 90
2, 83643, Note_on_c, 0, 83, 94
2, 83658, Note_off_c, 0, 74, 64
2, 83665, Note_off_c, 0, 83, 64
2, 83676, Note_on_c, 0, 74, 90
2, 83696, Note_off_c, 0, 74, 64
2, 83703, Note_on_c, 0, 86, 85
2, 83707, Note_on_c, 0, 77, 68
2, 83713, Note_off_c, 0, 77, 64
2, 83720, Note_off_c, 0, 86, 64
2, 83763, Control_c, 0, 64, 104
2, 83767, Control_c, 0, 64, 40
2, 83771, Control_c, 0, 64, 0
2, 83772, Note_on_c, 0, 100, 96
2, 83775, Note_on_c, 0, 93, 99
2, 83775, Note_on_c, 0, 33, 70
2, 83776, Note_on_c, 0, 45, 85
2, 83781, Note_on_c, 0, 95, 44
2, 83787, Note_off_c, 0, 95, 64
2, 83791, Note_off_c, 0, 33, 64
2, 83791, Control_c, 0, 64, 72
2, 83795, Control_c, 0, 64, 127
2, 83796, Note_off_c, 0, 45, 64
2, 83797, Note_off_c, 0, 93, 64
2, 83801, Note_off_c, 0, 100, 64
2, 83813, Note_on_c, 0, 96, 90
2, 83841, Note_off_c, 0, 96, 64
2, 83848, Note_on_c, 0, 93, 99
2, 83850, Note_on_c, 0, 52, 74
2, 83851, Note_on_c, 0, 40, 64
2, 83867, Note_off_c, 0, 40, 64
2, 83868, Note_off_c, 0, 52, 64
2, 83873, Note_off_c, 0, 93, 64
2, 83880, Note_on_c, 0, 88, 84
2, 83902, Note_off_c, 0, 88, 64
2, 83910, Note_on_c, 0, 56, 73
2, 83912, Note_on_c, 0, 96, 86
2, 83912, Note_on_c, 0, 88, 77
2, 83912, Note_on_c, 0, 44, 70
2, 83925, Note_off_c, 0, 56, 64
2, 83928, Note_off_c, 0, 44, 64
2, 83932, Note_off_c, 0, 88, 64
2, 83935, Note_off_c, 0, 96, 64
2, 83945, Note_on_c, 0, 93, 87
2, 83970, Note_on_c, 0, 59, 74
2, 83971, Note_off_c, 0, 93, 64
2, 83975, Note_on_c, 0, 47, 72
2, 83976, Note_on_c, 0, 88, 86
2, 83985, Note_off_c, 0, 47, 64
2, 83991, Note_off_c, 0, 59, 64
2, 84002, Note_off_c, 0, 88, 64
2, 84006, Note_on_c, 0, 84, 79
2, 84028, Note_off_c, 0, 84, 64
2, 84036, Note_on_c, 0, 57, 73
2, 84037, Control_c, 0, 64, 88
2, 84038, Note_on_c, 0, 93, 78
2, 84038, Note_on_c, 0, 45, 52
2, 84041, Note_on_c, 0, 84, 75
2, 84041, Note_on_c, 0, 86, 44
2, 84041, Control_c, 0, 64, 56
2, 84047, Note_off_c, 0, 86, 64
2, 84053, Control_c, 0, 64, 104
2, 84055, Note_off_c, 0, 45, 64
2, 84057, Note_off_c, 0, 93, 64
2, 84057, Control_c, 0, 64, 127
2, 84060, Note_off_c, 0, 84, 64
2, 84068, Note_off_c, 0, 57, 64
2, 84070, Note_on_c, 0, 88, 83
2, 84096, Note_off_c, 0, 88, 64
2, 84101, Note_on_c, 0, 84, 85
2, 84105, Note_on_c, 0, 59, 70
2, 84105, Control_c, 0, 64, 88
2, 84107, Note_on_c, 0, 47, 60
2, 84116, Control_c, 0, 64, 127
2, 84125, Note_off_c, 0, 47, 64
2, 84130, Note_on_c, 0, 81, 80
2, 84131, Note_off_c, 0, 59, 64
2, 84131, Note_off_c, 0, 84, 64
2, 84153, Note_off_c, 0, 81, 64
2, 84161, Note_on_c, 0, 88, 88
2, 84163, Note_on_c, 0, 81, 79
2, 84165, Note_on_c, 0, 62, 80
2, 84166, Note_on_c, 0, 50, 74
2, 84166, Control_c, 0, 64, 88
2, 84170, Control_c, 0, 64, 72
2, 84175, Control_c, 0, 64, 88
2, 84178, Control_c, 0, 64, 104
2, 84182, Note_off_c, 0, 50, 64
2, 84182, Control_c, 0, 64, 127
2, 84187, Note_off_c, 0, 88, 64
2, 84188, Note_off_c, 0, 62, 64
2, 84190, Note_off_c, 0, 81, 64
2, 84195, Note_on_c, 0, 84, 84
2, 84225, Note_on_c, 0, 81, 82
2, 84226, Note_on_c, 0, 60, 72
2, 84228, Note_off_c, 0, 84, 64
2, 84231, Note_on_c, 0, 48, 66
2, 84238, Note_off_c, 0, 48, 64
2, 84247, Note_off_c, 0, 60, 64
2, 84251, Note_off_c, 0, 81, 64
2, 84253, Note_on_c, 0, 76, 81
2, 84277, Note_off_c, 0, 76, 64
2, 84281, Control_c, 0, 64, 104
2, 84282, Note_on_c, 0, 63, 90
2, 84282, Note_on_c, 0, 51, 86
2, 84285, Control_c, 0, 64, 56
2, 84288, Note_on_c, 0, 84, 76
2, 84288, Control_c, 0, 64, 0
2, 84290, Note_on_c, 0, 76, 73
2, 84296, Control_c, 0, 64, 24
2, 84298, Note_off_c, 0, 51, 64
2, 84298, Note_off_c, 0, 63, 64
2, 84300, Control_c, 0, 64, 72
2, 84303, Control_c, 0, 64, 127
2, 84307, Note_off_c, 0, 76, 64
2, 84311, Note_off_c, 0, 84, 64
2, 84318, Note_on_c, 0, 81, 76
2, 84347, Note_on_c, 0, 65, 87
2, 84347, Note_on_c, 0, 76, 82
2, 84348, Note_off_c, 0, 81, 64
2, 84351, Note_on_c, 0, 53, 70
2, 84368, Note_off_c, 0, 53, 64
2, 84375, Note_off_c, 0, 76, 64
2, 84378, Note_off_c, 0, 65, 64
2, 84380, Note_on_c, 0, 72, 83
2, 84403, Note_off_c, 0, 72, 64
2, 84408, Note_on_c, 0, 64, 94
2, 84411, Note_on_c, 0, 52, 89
2, 84416, Note_on_c, 0, 81, 78
2, 84421, Control_c, 0, 64, 88
2, 84422, Note_on_c, 0, 72, 50
2, 84425, Control_c, 0, 64, 0
2, 84435, Note_off_c, 0, 72, 64
2, 84441, Note_off_c, 0, 81, 64
2, 84447, Note_on_c, 0, 76, 81
2, 84448, Control_c, 0, 64, 56
2, 84452, Control_c, 0, 64, 127
2, 84465, Note_off_c, 0, 64, 64
2, 84475, Note_off_c, 0, 52, 64
2, 84475, Note_on_c, 0, 72, 80
2, 84482, Note_off_c, 0, 76, 64
2, 84500, Note_off_c, 0, 72, 64
2, 84505, Note_on_c, 0, 69, 72
2, 84530, Note_off_c, 0, 69, 64
2, 84545, Note_on_c, 0, 76, 80
2, 84547, Note_on_c, 0, 43, 99
2, 84547, Note_on_c, 0, 31, 81
2, 84548, Note_on_c, 0, 69, 60
2, 84562, Control_c, 0, 64, 104
2, 84566, Control_c, 0, 64, 24
2, 84570, Control_c, 0, 64, 0
2, 84571, Note_off_c, 0, 69, 64
2, 84572, Note_off_c, 0, 76, 64
2, 84580, Note_on_c, 0, 72, 73
2, 84590, Control_c, 0, 64, 24
2, 84593, Control_c, 0, 64, 88
2, 84597, Control_c, 0, 64, 127
2, 84607, Note_on_c, 0, 69, 76
2, 84613, Note_off_c, 0, 72, 64
2, 84630, Note_off_c, 0, 69, 64
2, 84635, Note_on_c, 0, 64, 70
2, 84653, Note_off_c, 0, 64, 64
2, 84668, Note_on_c, 0, 64, 69
2, 84670, Note_on_c, 0, 72, 78
2, 84685, Note_off_c, 0, 64, 64
2, 84686, Note_off_c, 0, 72, 64
2, 84701, Note_on_c, 0, 69, 70
2, 84731, Note_on_c, 0, 64, 79
2, 84738, Note_off_c, 0, 69, 64
2, 84756, Note_off_c, 0, 64, 64
2, 84762, Note_on_c, 0, 60, 76
2, 84781, Note_off_c, 0, 60, 64
2, 84792, Note_on_c, 0, 69, 75
2, 84795, Note_on_c, 0, 60, 66
2, 84810, Note_off_c, 0, 60, 64
2, 84810, Note_off_c, 0, 69, 64
2, 84823, Note_on_c, 0, 64, 74
2, 84853, Note_off_c, 0, 64, 64
2, 84853, Note_off_c, 0, 31, 64
2, 84853, Note_on_c, 0, 60, 74
2, 84858, Note_off_c, 0, 43, 64
2, 84878, Note_off_c, 0, 60, 64
2, 84880, Note_on_c, 0, 57, 68
2, 84897, Note_off_c, 0, 57, 64
2, 84910, Note_on_c, 0, 42, 62
2, 84910, Note_on_c, 0, 57, 69
2, 84911, Note_on_c, 0, 64, 77
2, 84913, Note_on_c, 0, 30, 70
2, 84915, Control_c, 0, 64, 72
2, 84918, Control_c, 0, 64, 0
2, 84930, Note_off_c, 0, 57, 64
2, 84933, Note_off_c, 0, 64, 64
2, 84938, Control_c, 0, 64, 72
2, 84942, Note_on_c, 0, 60, 69
2, 84942, Control_c, 0, 64, 127
2, 84971, Note_off_c, 0, 60, 64
2, 84972, Note_on_c, 0, 57, 60
2, 84990, Note_off_c, 0, 57, 64
2, 84993, Note_on_c, 0, 52, 79
2, 85008, Note_off_c, 0, 52, 64
2, 85032, Note_on_c, 0, 60, 73
2, 85033, Note_on_c, 0, 69, 70
2, 85038, Note_off_c, 0, 60, 64
2, 85048, Note_off_c, 0, 69, 64
2, 85063, Note_on_c, 0, 64, 82
2, 85070, Note_off_c, 0, 30, 64
2, 85071, Note_off_c, 0, 42, 64
2, 85090, Control_c, 0, 64, 104
2, 85093, Note_on_c, 0, 60, 79
2, 85093, Note_on_c, 0, 41, 65
2, 85095, Control_c, 0, 64, 24
2, 85097, Note_on_c, 0, 29, 65
2, 85098, Control_c, 0, 64, 0
2, 85105, Note_off_c, 0, 64, 64
2, 85106, Control_c, 0, 64, 24
2, 85110, Control_c, 0, 64, 56
2, 85115, Control_c, 0, 64, 104
2, 85118, Control_c, 0, 64, 127
2, 85122, Note_off_c, 0, 60, 64
2, 85125, Note_on_c, 0, 57, 74
2, 85143, Note_off_c, 0, 57, 64
2, 85157, Note_on_c, 0, 64, 80
2, 85158, Note_on_c, 0, 57, 64
2, 85176, Note_off_c, 0, 57, 64
2, 85178, Note_off_c, 0, 64, 64
2, 85190, Note_on_c, 0, 60, 66
2, 85217, Note_off_c, 0, 60, 64
2, 85222, Note_on_c, 0, 57, 61
2, 85228, Note_off_c, 0, 29, 64
2, 85230, Note_off_c, 0, 41, 64
2, 85241, Note_off_c, 0, 57, 64
2, 85251, Note_on_c, 0, 52, 61
2, 85260, Note_off_c, 0, 52, 64
2, 85302, Note_on_c, 0, 64, 66
2, 85305, Note_on_c, 0, 60, 58
2, 85305, Note_on_c, 0, 40, 53
2, 85308, Note_on_c, 0, 28, 60
2, 85333, Note_off_c, 0, 60, 64
2, 85343, Note_on_c, 0, 59, 46
2, 85345, Note_on_c, 0, 65, 63
2, 85347, Note_off_c, 0, 64, 64
2, 85368, Note_off_c, 0, 59, 64
2, 85371, Note_off_c, 0, 65, 64
2, 85378, Note_on_c, 0, 64, 69
2, 85380, Note_on_c, 0, 60, 61
2, 85406, Note_off_c, 0, 60, 64
2, 85413, Note_off_c, 0, 64, 64
2, 85413, Note_off_c, 0, 28, 64
2, 85413, Note_on_c, 0, 65, 72
2, 85413, Note_on_c, 0, 57, 60
2, 85427, Note_off_c, 0, 40, 64
2, 85437, Note_off_c, 0, 57, 64
2, 85440, Note_off_c, 0, 65, 64
2, 85448, Note_on_c, 0, 64, 67
2, 85450, Note_on_c, 0, 60, 54
2, 85473, Note_off_c, 0, 60, 64
2, 85480, Note_off_c, 0, 64, 64
2, 85481, Note_on_c, 0, 65, 70
2, 85482, Note_on_c, 0, 59, 58
2, 85506, Note_off_c, 0, 65, 64
2, 85507, Note_off_c, 0, 59, 64
2, 85520, Note_on_c, 0, 64, 70
2, 85520, Note_on_c, 0, 60, 63
2, 85522, Note_on_c, 0, 52, 63
2, 85523, Note_on_c, 0, 40, 51
2, 85545, Note_off_c, 0, 60, 64
2, 85551, Note_off_c, 0, 64, 64
2, 85553, Note_on_c, 0, 65, 70
2, 85556, Note_on_c, 0, 57, 55
2, 85578, Note_off_c, 0, 65, 64
2, 85581, Note_off_c, 0, 57, 64
2, 85590, Note_on_c, 0, 64, 66
2, 85590, Note_on_c, 0, 60, 55
2, 85613, Note_off_c, 0, 60, 64
2, 85622, Note_off_c, 0, 64, 64
2, 85622, Note_off_c, 0, 40, 64
2, 85622, Note_on_c, 0, 65, 68
2, 85623, Note_on_c, 0, 59, 54
2, 85630, Note_off_c, 0, 52, 64
2, 85646, Note_off_c, 0, 65, 64
2, 85652, Note_off_c, 0, 59, 64
2, 85657, Note_on_c, 0, 52, 68
2, 85660, Note_on_c, 0, 60, 64
2, 85660, Note_on_c, 0, 64, 70
2, 85661, Note_on_c, 0, 40, 53
2, 85680, Note_off_c, 0, 52, 64
2, 85682, Note_off_c, 0, 60, 64
2, 85683, Note_off_c, 0, 40, 64
2, 85688, Note_off_c, 0, 64, 64
2, 85692, Note_on_c, 0, 65, 68
2, 85693, Note_on_c, 0, 57, 55
2, 85717, Note_off_c, 0, 65, 64
2, 85720, Note_off_c, 0, 57, 64
2, 85730, Note_on_c, 0, 64, 64
2, 85730, Note_on_c, 0, 60, 58
2, 85731, Note_on_c, 0, 48, 80
2, 85733, Note_on_c, 0, 36, 60
2, 85755, Note_off_c, 0, 60, 64
2, 85760, Note_off_c, 0, 64, 64
2, 85762, Note_on_c, 0, 65, 68
2, 85765, Note_on_c, 0, 59, 58
2, 85775, Note_off_c, 0, 36, 64
2, 85787, Note_off_c, 0, 65, 64
2, 85790, Note_off_c, 0, 59, 64
2, 85802, Note_off_c, 0, 48, 64
2, 85802, Note_on_c, 0, 64, 68
2, 85802, Note_on_c, 0, 60, 63
2, 85815, Control_c, 0, 64, 24
2, 85818, Control_c, 0, 64, 40
2, 85827, Note_off_c, 0, 60, 64
2, 85827, Control_c, 0, 64, 56
2, 85835, Note_off_c, 0, 64, 64
2, 85835, Note_on_c, 0, 47, 81
2, 85837, Note_on_c, 0, 35, 67
2, 85838, Note_on_c, 0, 65, 69
2, 85840, Note_on_c, 0, 57, 58
2, 85848, Note_off_c, 0, 47, 64
2, 85851, Control_c, 0, 64, 0
2, 85852, Note_off_c, 0, 35, 64
2, 85858, Note_off_c, 0, 65, 64
2, 85862, Note_off_c, 0, 57, 64
2, 85870, Note_on_c, 0, 60, 68
2, 85870, Note_on_c, 0, 45, 84
2, 85871, Note_on_c, 0, 64, 71
2, 85871, Note_on_c, 0, 33, 66
2, 85880, Control_c, 0, 64, 24
2, 85881, Note_off_c, 0, 33, 64
2, 85883, Control_c, 0, 64, 40
2, 85887, Note_off_c, 0, 45, 64
2, 85888, Control_c, 0, 64, 56
2, 85892, Control_c, 0, 64, 72
2, 85895, Note_off_c, 0, 60, 64
2, 85903, Note_off_c, 0, 64, 64
2, 85905, Note_on_c, 0, 65, 74
2, 85907, Note_on_c, 0, 59, 60
2, 85917, Control_c, 0, 64, 88
2, 85931, Note_off_c, 0, 65, 64
2, 85935, Note_off_c, 0, 59, 64
2, 85937, Control_c, 0, 64, 56
2, 85941, Control_c, 0, 64, 24
2, 85945, Control_c, 0, 64, 0
2, 85946, Note_on_c, 0, 64, 77
2, 85946, Note_on_c, 0, 60, 66
2, 85950, Note_on_c, 0, 52, 78
2, 85951, Note_on_c, 0, 40, 66
2, 85970, Note_off_c, 0, 60, 64
2, 85977, Note_off_c, 0, 64, 64
2, 85977, Control_c, 0, 64, 24
2, 85981, Note_on_c, 0, 65, 68
2, 85982, Note_on_c, 0, 57, 60
2, 85982, Control_c, 0, 64, 56
2, 85986, Control_c, 0, 64, 88
2, 85990, Control_c, 0, 64, 104
2, 86003, Note_off_c, 0, 65, 64
2, 86006, Control_c, 0, 64, 127
2, 86007, Note_off_c, 0, 57, 64
2, 86017, Note_on_c, 0, 64, 68
2, 86020, Note_off_c, 0, 52, 64
2, 86020, Note_on_c, 0, 60, 62
2, 86028, Note_off_c, 0, 40, 64
2, 86038, Note_off_c, 0, 60, 64
2, 86043, Note_off_c, 0, 64, 64
2, 86051, Note_on_c, 0, 65, 67
2, 86052, Note_on_c, 0, 59, 64
2, 86075, Note_off_c, 0, 65, 64
2, 86077, Note_off_c, 0, 59, 64
2, 86086, Note_on_c, 0, 64, 68
2, 86086, Note_on_c, 0, 60, 56
2, 86101, Note_off_c, 0, 60, 64
2, 86115, Note_off_c, 0, 64, 64
2, 86120, Note_on_c, 0, 65, 70
2, 86125, Note_on_c, 0, 57, 58
2, 86145, Note_off_c, 0, 65, 64
2, 86145, Control_c, 0, 64, 104
2, 86148, Note_off_c, 0, 57, 64
2, 86148, Control_c, 0, 64, 88
2, 86152, Control_c, 0, 64, 72
2, 86157, Control_c, 0, 64, 24
2, 86161, Control_c, 0, 64, 0
2, 86162, Note_on_c, 0, 63, 73
2, 86162, Note_on_c, 0, 40, 66
2, 86162, Note_on_c, 0, 28, 70
2, 86168, Note_on_c, 0, 60, 46
2, 86180, Note_off_c, 0, 60, 64
2, 86197, Note_off_c, 0, 63, 64
2, 86198, Control_c, 0, 64, 40
2, 86202, Note_on_c, 0, 66, 64
2, 86202, Control_c, 0, 64, 72
2, 86203, Note_on_c, 0, 59, 62
2, 86206, Control_c, 0, 64, 88
2, 86210, Control_c, 0, 64, 104
2, 86213, Control_c, 0, 64, 127
2, 86223, Note_off_c, 0, 59, 64
2, 86231, Note_off_c, 0, 66, 64
2, 86238, Note_on_c, 0, 63, 64
2, 86240, Note_on_c, 0, 60, 60
2, 86242, Note_off_c, 0, 28, 64
2, 86251, Note_off_c, 0, 60, 64
2, 86261, Note_off_c, 0, 40, 64
2, 86267, Note_off_c, 0, 63, 64
2, 86270, Note_on_c, 0, 66, 59
2, 86270, Note_on_c, 0, 57, 53
2, 86280, Note_off_c, 0, 57, 64
2, 86293, Note_off_c, 0, 66, 64
2, 86306, Note_on_c, 0, 63, 58
2, 86310, Note_on_c, 0, 60, 43
2, 86321, Note_off_c, 0, 60, 64
2, 86335, Note_off_c, 0, 63, 64
2, 86335, Note_on_c, 0, 66, 60
2, 86337, Note_on_c, 0, 59, 55
2, 86356, Note_off_c, 0, 59, 64
2, 86362, Note_off_c, 0, 66, 64
2, 86365, Control_c, 0, 64, 104
2, 86370, Control_c, 0, 64, 88
2, 86372, Note_on_c, 0, 63, 65
2, 86373, Note_on_c, 0, 52, 75
2, 86373, Control_c, 0, 64, 40
2, 86375, Note_on_c, 0, 40, 59
2, 86376, Note_on_c, 0, 60, 58
2, 86377, Control_c, 0, 64, 0
2, 86393, Note_off_c, 0, 60, 64
2, 86405, Note_off_c, 0, 63, 64
2, 86405, Note_on_c, 0, 66, 58
2, 86405, Note_on_c, 0, 57, 59
2, 86406, Control_c, 0, 64, 40
2, 86410, Control_c, 0, 64, 72
2, 86413, Control_c, 0, 64, 104
2, 86417, Control_c, 0, 64, 127
2, 86425, Note_off_c, 0, 57, 64
2, 86433, Note_off_c, 0, 66, 64
2, 86443, Note_on_c, 0, 63, 67
2, 86447, Note_on_c, 0, 60, 56
2, 86461, Note_off_c, 0, 60, 64
2, 86466, Note_off_c, 0, 40, 64
2, 86472, Note_off_c, 0, 63, 64
2, 86473, Note_on_c, 0, 66, 63
2, 86475, Note_on_c, 0, 59, 53
2, 86477, Note_off_c, 0, 52, 64
2, 86496, Note_off_c, 0, 59, 64
2, 86502, Note_off_c, 0, 66, 64
2, 86503, Control_c, 0, 64, 104
2, 86507, Control_c, 0, 64, 88
2, 86510, Note_on_c, 0, 52, 82
2, 86511, Note_on_c, 0, 63, 69
2, 86512, Note_on_c, 0, 40, 68
2, 86512, Note_on_c, 0, 60, 71
2, 86527, Note_off_c, 0, 52, 64
2, 86527, Control_c, 0, 64, 104
2, 86531, Note_off_c, 0, 40, 64
2, 86532, Control_c, 0, 64, 127
2, 86533, Note_off_c, 0, 60, 64
2, 86543, Note_off_c, 0, 63, 64
2, 86545, Note_on_c, 0, 66, 65
2, 86548, Note_on_c, 0, 57, 60
2, 86572, Note_off_c, 0, 57, 64
2, 86576, Control_c, 0, 64, 88
2, 86580, Note_off_c, 0, 66, 64
2, 86581, Control_c, 0, 64, 40
2, 86585, Note_on_c, 0, 63, 67
2, 86585, Control_c, 0, 64, 0
2, 86587, Note_on_c, 0, 60, 61
2, 86587, Note_on_c, 0, 48, 85
2, 86590, Note_on_c, 0, 36, 68
2, 86605, Control_c, 0, 64, 24
2, 86607, Note_off_c, 0, 60, 64
2, 86610, Control_c, 0, 64, 72
2, 86613, Control_c, 0, 64, 88
2, 86616, Note_off_c, 0, 36, 64
2, 86617, Note_off_c, 0, 48, 64
2, 86618, Note_off_c, 0, 63, 64
2, 86618, Note_on_c, 0, 66, 59
2, 86618, Control_c, 0, 64, 127
2, 86618, Note_on_c, 0, 59, 57
2, 86645, Note_off_c, 0, 59, 64
2, 86651, Note_off_c, 0, 66, 64
2, 86657, Note_on_c, 0, 63, 64
2, 86660, Note_on_c, 0, 60, 64
2, 86680, Note_off_c, 0, 60, 64
2, 86687, Note_on_c, 0, 47, 79
2, 86690, Note_on_c, 0, 35, 63
2, 86691, Note_off_c, 0, 63, 64
2, 86691, Note_on_c, 0, 66, 64
2, 86695, Note_on_c, 0, 57, 59
2, 86702, Note_off_c, 0, 35, 64
2, 86702, Note_off_c, 0, 47, 64
2, 86717, Note_off_c, 0, 57, 64
2, 86720, Note_off_c, 0, 66, 64
2, 86721, Note_on_c, 0, 45, 81
2, 86725, Note_on_c, 0, 63, 71
2, 86726, Note_on_c, 0, 33, 59
2, 86728, Note_on_c, 0, 60, 64
2, 86732, Note_off_c, 0, 33, 64
2, 86742, Note_off_c, 0, 45, 64
2, 86750, Note_off_c, 0, 60, 64
2, 86761, Note_on_c, 0, 66, 69
2, 86762, Note_off_c, 0, 63, 64
2, 86763, Note_on_c, 0, 59, 63
2, 86787, Note_off_c, 0, 59, 64
2, 86791, Note_off_c, 0, 66, 64
2, 86795, Note_on_c, 0, 52, 81
2, 86797, Note_on_c, 0, 63, 69
2, 86797, Control_c, 0, 64, 88
2, 86798, Note_on_c, 0, 40, 67
2, 86801, Note_on_c, 0, 60, 66
2, 86801, Control_c, 0, 64, 72
2, 86805, Control_c, 0, 64, 40
2, 86808, Control_c, 0, 64, 0
2, 86828, Note_off_c, 0, 60, 64
2, 86832, Note_on_c, 0, 66, 65
2, 86837, Note_off_c, 0, 63, 64
2, 86837, Note_on_c, 0, 57, 60
2, 86853, Control_c, 0, 64, 56
2, 86858, Control_c, 0, 64, 88
2, 86860, Note_off_c, 0, 57, 64
2, 86861, Note_off_c, 0, 66, 64
2, 86862, Control_c, 0, 64, 127
2, 86870, Note_on_c, 0, 63, 60
2, 86873, Note_on_c, 0, 60, 53
2, 86886, Note_off_c, 0, 60, 64
2, 86888, Note_off_c, 0, 52, 64
2, 86902, Note_off_c, 0, 40, 64
2, 86903, Note_off_c, 0, 63, 64
2, 86903, Note_on_c, 0, 66, 61
2, 86903, Note_on_c, 0, 59, 60
2, 86925, Note_off_c, 0, 59, 64
2, 86927, Note_off_c, 0, 66, 64
2, 86937, Note_on_c, 0, 63, 53
2, 86941, Note_on_c, 0, 60, 44
2, 86955, Note_off_c, 0, 60, 64
2, 86968, Note_off_c, 0, 63, 64
2, 86968, Note_on_c, 0, 66, 61
2, 86975, Note_on_c, 0, 57, 53
2, 86985, Note_off_c, 0, 57, 64
2, 86993, Note_off_c, 0, 66, 64
2, 86996, Control_c, 0, 64, 104
2, 87005, Control_c, 0, 64, 72
2, 87010, Control_c, 0, 64, 56
2, 87013, Control_c, 0, 64, 0
2, 87015, Note_on_c, 0, 60, 61
2, 87016, Note_on_c, 0, 40, 65
2, 87016, Note_on_c, 0, 28, 70
2, 87017, Note_on_c, 0, 64, 68
2, 87042, Note_off_c, 0, 60, 64
2, 87048, Note_on_c, 0, 59, 50
2, 87051, Note_off_c, 0, 64, 64
2, 87052, Note_on_c, 0, 69, 69
2, 87066, Control_c, 0, 64, 56
2, 87070, Control_c, 0, 64, 88
2, 87071, Note_off_c, 0, 59, 64
2, 87073, Control_c, 0, 64, 127
2, 87082, Note_off_c, 0, 69, 64
2, 87085, Note_on_c, 0, 64, 64
2, 87087, Note_on_c, 0, 60, 56
2, 87101, Note_off_c, 0, 60, 64
2, 87101, Note_off_c, 0, 28, 64
2, 87110, Note_off_c, 0, 64, 64
2, 87110, Note_off_c, 0, 40, 64
2, 87116, Note_on_c, 0, 57, 55
2, 87118, Note_on_c, 0, 69, 57
2, 87135, Note_off_c, 0, 57, 64
2, 87136, Note_off_c, 0, 69, 64
2, 87151, Note_on_c, 0, 64, 61
2, 87151, Note_on_c, 0, 60, 48
2, 87167, Note_off_c, 0, 60, 64
2, 87172, Note_off_c, 0, 64, 64
2, 87180, Note_on_c, 0, 59, 54
2, 87183, Note_on_c, 0, 69, 64
2, 87202, Note_off_c, 0, 59, 64
2, 87205, Note_off_c, 0, 69, 64
2, 87213, Control_c, 0, 64, 104
2, 87216, Control_c, 0, 64, 72
2, 87217, Note_on_c, 0, 52, 83
2, 87220, Note_on_c, 0, 40, 70
2, 87221, Control_c, 0, 64, 24
2, 87222, Note_on_c, 0, 64, 62
2, 87223, Note_on_c, 0, 60, 53
2, 87225, Control_c, 0, 64, 0
2, 87243, Note_off_c, 0, 60, 64
2, 87250, Note_off_c, 0, 64, 64
2, 87253, Note_on_c, 0, 57, 54
2, 87256, Note_on_c, 0, 69, 64
2, 87261, Control_c, 0, 64, 24
2, 87266, Control_c, 0, 64, 56
2, 87270, Control_c, 0, 64, 72
2, 87273, Control_c, 0, 64, 88
2, 87275, Note_off_c, 0, 57, 64
2, 87277, Note_off_c, 0, 69, 64
2, 87278, Control_c, 0, 64, 104
2, 87286, Control_c, 0, 64, 127
2, 87290, Note_on_c, 0, 64, 68
2, 87293, Note_on_c, 0, 60, 58
2, 87298, Note_off_c, 0, 40, 64
2, 87307, Note_off_c, 0, 60, 64
2, 87308, Note_off_c, 0, 52, 64
2, 87316, Note_off_c, 0, 64, 64
2, 87320, Note_on_c, 0, 59, 48
2, 87322, Note_on_c, 0, 69, 64
2, 87343, Note_off_c, 0, 59, 64
2, 87346, Note_off_c, 0, 69, 64
2, 87351, Control_c, 0, 64, 72
2, 87355, Note_on_c, 0, 52, 82
2, 87355, Control_c, 0, 64, 24
2, 87357, Note_on_c, 0, 40, 69
2, 87360, Note_on_c, 0, 64, 67
2, 87360, Control_c, 0, 64, 0
2, 87361, Note_on_c, 0, 60, 62
2, 87380, Note_off_c, 0, 60, 64
2, 87385, Control_c, 0, 64, 40
2, 87387, Note_off_c, 0, 64, 64
2, 87388, Control_c, 0, 64, 72
2, 87392, Note_on_c, 0, 57, 56
2, 87392, Control_c, 0, 64, 88
2, 87393, Note_on_c, 0, 69, 64
2, 87396, Note_off_c, 0, 40, 64
2, 87396, Control_c, 0, 64, 104
2, 87400, Control_c, 0, 64, 127
2, 87406, Note_off_c, 0, 52, 64
2, 87420, Note_off_c, 0, 57, 64
2, 87421, Note_off_c, 0, 69, 64
2, 87428, Control_c, 0, 64, 88
2, 87431, Note_on_c, 0, 64, 64
2, 87432, Control_c, 0, 64, 56
2, 87433, Note_on_c, 0, 60, 59
2, 87435, Note_on_c, 0, 52, 81
2, 87437, Control_c, 0, 64, 0
2, 87438, Note_on_c, 0, 40, 70
2, 87455, Note_off_c, 0, 60, 64
2, 87461, Note_off_c, 0, 64, 64
2, 87462, Control_c, 0, 64, 40
2, 87466, Control_c, 0, 64, 72
2, 87467, Note_on_c, 0, 59, 49
2, 87468, Note_on_c, 0, 69, 63
2, 87470, Control_c, 0, 64, 88
2, 87473, Control_c, 0, 64, 104
2, 87480, Note_off_c, 0, 40, 64
2, 87486, Control_c, 0, 64, 127
2, 87490, Note_off_c, 0, 59, 64
2, 87492, Note_off_c, 0, 69, 64
2, 87493, Note_off_c, 0, 52, 64
2, 87501, Note_on_c, 0, 64, 66
2, 87503, Note_on_c, 0, 60, 55
2, 87523, Note_off_c, 0, 60, 64
2, 87533, Note_off_c, 0, 64, 64
2, 87533, Note_on_c, 0, 50, 85
2, 87538, Note_on_c, 0, 69, 68
2, 87540, Note_on_c, 0, 38, 65
2, 87541, Note_on_c, 0, 57, 57
2, 87548, Note_off_c, 0, 38, 64
2, 87551, Note_off_c, 0, 50, 64
2, 87551, Control_c, 0, 64, 88
2, 87556, Control_c, 0, 64, 40
2, 87560, Control_c, 0, 64, 0
2, 87562, Note_off_c, 0, 69, 64
2, 87566, Note_off_c, 0, 57, 64
2, 87570, Note_on_c, 0, 48, 89
2, 87572, Note_on_c, 0, 36, 77
2, 87572, Note_on_c, 0, 64, 69
2, 87573, Note_on_c, 0, 60, 64
2, 87580, Control_c, 0, 64, 56
2, 87583, Control_c, 0, 64, 88
2, 87587, Control_c, 0, 64, 104
2, 87588, Note_off_c, 0, 36, 64
2, 87592, Note_off_c, 0, 48, 64
2, 87592, Control_c, 0, 64, 127
2, 87597, Note_off_c, 0, 60, 64
2, 87603, Note_off_c, 0, 64, 64
2, 87606, Note_on_c, 0, 59, 59
2, 87607, Note_on_c, 0, 69, 72
2, 87633, Note_off_c, 0, 59, 64
2, 87640, Note_off_c, 0, 69, 64
2, 87660, Note_on_c, 0, 57, 87
2, 87661, Note_on_c, 0, 45, 87
2, 87661, Note_on_c, 0, 64, 62
2, 87661, Control_c, 0, 64, 104
2, 87666, Control_c, 0, 64, 88
2, 87667, Note_on_c, 0, 60, 40
2, 87670, Control_c, 0, 64, 72
2, 87673, Control_c, 0, 64, 24
2, 87677, Control_c, 0, 64, 0
2, 87685, Note_off_c, 0, 60, 64
2, 87697, Note_off_c, 0, 64, 64
2, 87702, Note_on_c, 0, 57, 51
2, 87703, Note_on_c, 0, 69, 64
2, 87710, Control_c, 0, 64, 24
2, 87713, Control_c, 0, 64, 72
2, 87718, Control_c, 0, 64, 127
2, 87722, Note_off_c, 0, 57, 64
2, 87725, Note_off_c, 0, 69, 64
2, 87733, Note_off_c, 0, 57, 64
2, 87737, Note_off_c, 0, 45, 64
2, 87737, Note_on_c, 0, 64, 63
2, 87741, Note_on_c, 0, 60, 43
2, 87755, Note_off_c, 0, 60, 64
2, 87765, Note_off_c, 0, 64, 64
2, 87771, Note_on_c, 0, 59, 51
2, 87771, Note_on_c, 0, 69, 57
2, 87793, Note_off_c, 0, 59, 64
2, 87796, Note_off_c, 0, 69, 64
2, 87807, Control_c, 0, 64, 88
2, 87808, Note_on_c, 0, 53, 79
2, 87812, Note_on_c, 0, 41, 66
2, 87812, Control_c, 0, 64, 24
2, 87813, Note_on_c, 0, 64, 59
2, 87816, Control_c, 0, 64, 0
2, 87818, Note_on_c, 0, 60, 46
2, 87827, Control_c, 0, 64, 40
2, 87832, Note_off_c, 0, 60, 64
2, 87832, Control_c, 0, 64, 88
2, 87837, Control_c, 0, 64, 127
2, 87841, Note_off_c, 0, 41, 64
2, 87841, Note_off_c, 0, 64, 64
2, 87845, Note_off_c, 0, 53, 64
2, 87846, Note_on_c, 0, 69, 59
2, 87848, Note_on_c, 0, 57, 42
2, 87868, Note_off_c, 0, 57, 64
2, 87871, Note_off_c, 0, 69, 64
2, 87883, Note_on_c, 0, 64, 59
2, 87885, Note_on_c, 0, 52, 75
2, 87885, Control_c, 0, 64, 104
2, 87886, Note_on_c, 0, 60, 55
2, 87887, Note_on_c, 0, 40, 52
2, 87890, Control_c, 0, 64, 40
2, 87893, Control_c, 0, 64, 0
2, 87908, Note_off_c, 0, 60, 64
2, 87917, Control_c, 0, 64, 40
2, 87920, Note_off_c, 0, 64, 64
2, 87921, Control_c, 0, 64, 72
2, 87923, Note_on_c, 0, 69, 64
2, 87925, Note_on_c, 0, 59, 55
2, 87926, Control_c, 0, 64, 104
2, 87928, Note_off_c, 0, 52, 64
2, 87931, Note_off_c, 0, 40, 64
2, 87931, Control_c, 0, 64, 127
2, 87945, Note_off_c, 0, 59, 64
2, 87945, Note_off_c, 0, 69, 64
2, 87958, Note_on_c, 0, 64, 63
2, 87960, Note_on_c, 0, 60, 49
2, 87980, Note_off_c, 0, 60, 64
2, 87986, Note_off_c, 0, 64, 64
2, 87990, Note_on_c, 0, 69, 66
2, 87991, Note_on_c, 0, 57, 55
2, 88011, Note_off_c, 0, 57, 64
2, 88015, Note_off_c, 0, 69, 64
2, 88016, Control_c, 0, 64, 88
2, 88020, Control_c, 0, 64, 24
2, 88021, Note_on_c, 0, 48, 72
2, 88022, Note_on_c, 0, 36, 63
2, 88025, Note_on_c, 0, 64, 65
2, 88025, Control_c, 0, 64, 0
2, 88027, Note_on_c, 0, 60, 55
2, 88038, Note_off_c, 0, 48, 64
2, 88040, Control_c, 0, 64, 24
2, 88042, Note_off_c, 0, 36, 64
2, 88043, Control_c, 0, 64, 72
2, 88046, Note_off_c, 0, 60, 64
2, 88048, Control_c, 0, 64, 104
2, 88052, Note_off_c, 0, 64, 64
2, 88052, Control_c, 0, 64, 127
2, 88056, Note_on_c, 0, 69, 71
2, 88057, Note_on_c, 0, 59, 51
2, 88077, Note_off_c, 0, 59, 64
2, 88080, Note_off_c, 0, 69, 64
2, 88093, Note_on_c, 0, 64, 66
2, 88095, Note_on_c, 0, 60, 65
2, 88097, Control_c, 0, 64, 72
2, 88100, Note_on_c, 0, 45, 75
2, 88102, Note_on_c, 0, 33, 60
2, 88102, Control_c, 0, 64, 0
2, 88120, Note_off_c, 0, 60, 64
2, 88122, Control_c, 0, 64, 24
2, 88123, Note_off_c, 0, 64, 64
2, 88126, Note_off_c, 0, 33, 64
2, 88126, Control_c, 0, 64, 56
2, 88128, Note_on_c, 0, 57, 59
2, 88130, Note_on_c, 0, 69, 72
2, 88130, Control_c, 0, 64, 104
2, 88133, Control_c, 0, 64, 127
2, 88141, Note_off_c, 0, 45, 64
2, 88153, Note_off_c, 0, 57, 64
2, 88155, Note_off_c, 0, 69, 64
2, 88165, Note_on_c, 0, 64, 70
2, 88166, Note_on_c, 0, 60, 62
2, 88188, Note_off_c, 0, 60, 64
2, 88195, Note_off_c, 0, 64, 64
2, 88198, Note_on_c, 0, 69, 72
2, 88198, Note_on_c, 0, 59, 60
2, 88216, Control_c, 0, 64, 88
2, 88218, Note_off_c, 0, 59, 64
2, 88220, Control_c, 0, 64, 40
2, 88223, Note_off_c, 0, 69, 64
2, 88223, Control_c, 0, 64, 0
2, 88232, Note_on_c, 0, 64, 74
2, 88232, Note_on_c, 0, 60, 64
2, 88232, Note_on_c, 0, 47, 71
2, 88235, Note_on_c, 0, 35, 62
2, 88248, Control_c, 0, 64, 56
2, 88252, Control_c, 0, 64, 88
2, 88255, Note_off_c, 0, 35, 64
2, 88255, Note_off_c, 0, 60, 64
2, 88256, Control_c, 0, 64, 127
2, 88260, Note_off_c, 0, 47, 64
2, 88260, Note_off_c, 0, 64, 64
2, 88262, Note_on_c, 0, 57, 63
2, 88265, Note_on_c, 0, 69, 69
2, 88285, Note_off_c, 0, 57, 64
2, 88293, Note_off_c, 0, 69, 64
2, 88302, Note_on_c, 0, 64, 68
2, 88306, Note_on_c, 0, 36, 68
2, 88306, Note_on_c, 0, 48, 78
2, 88306, Note_on_c, 0, 60, 65
2, 88306, Control_c, 0, 64, 88
2, 88310, Control_c, 0, 64, 40
2, 88313, Control_c, 0, 64, 0
2, 88328, Note_off_c, 0, 60, 64
2, 88335, Note_off_c, 0, 64, 64
2, 88337, Note_on_c, 0, 59, 56
2, 88338, Note_on_c, 0, 69, 60
2, 88350, Control_c, 0, 64, 56
2, 88353, Control_c, 0, 64, 72
2, 88358, Note_off_c, 0, 59, 64
2, 88358, Control_c, 0, 64, 88
2, 88362, Note_off_c, 0, 69, 64
2, 88362, Control_c, 0, 64, 104
2, 88375, Note_on_c, 0, 60, 55
2, 88376, Note_on_c, 0, 64, 63
2, 88378, Control_c, 0, 64, 127
2, 88393, Note_off_c, 0, 60, 64
2, 88401, Note_off_c, 0, 64, 64
2, 88406, Note_on_c, 0, 57, 55
2, 88406, Note_on_c, 0, 69, 61
2, 88428, Note_off_c, 0, 57, 64
2, 88431, Note_off_c, 0, 69, 64
2, 88440, Note_on_c, 0, 64, 67
2, 88442, Note_on_c, 0, 60, 55
2, 88457, Note_off_c, 0, 60, 64
2, 88466, Note_off_c, 0, 64, 64
2, 88471, Note_on_c, 0, 69, 70
2, 88471, Note_on_c, 0, 59, 58
2, 88491, Note_off_c, 0, 59, 64
2, 88496, Note_off_c, 0, 69, 64
2, 88506, Note_on_c, 0, 64, 73
2, 88508, Note_on_c, 0, 60, 66
2, 88508, Control_c, 0, 64, 88
2, 88512, Control_c, 0, 64, 40
2, 88516, Control_c, 0, 64, 0
2, 88528, Note_off_c, 0, 60, 64
2, 88533, Note_off_c, 0, 64, 64
2, 88536, Note_on_c, 0, 57, 59
2, 88537, Note_on_c, 0, 69, 66
2, 88537, Control_c, 0, 64, 24
2, 88541, Control_c, 0, 64, 40
2, 88546, Control_c, 0, 64, 72
2, 88550, Control_c, 0, 64, 88
2, 88557, Note_off_c, 0, 57, 64
2, 88557, Control_c, 0, 64, 104
2, 88566, Note_off_c, 0, 69, 64
2, 88573, Note_on_c, 0, 64, 69
2, 88576, Note_on_c, 0, 60, 53
2, 88587, Control_c, 0, 64, 127
2, 88591, Note_off_c, 0, 60, 64
2, 88600, Note_off_c, 0, 64, 64
2, 88606, Note_on_c, 0, 59, 53
2, 88606, Note_on_c, 0, 69, 71
2, 88626, Note_off_c, 0, 59, 64
2, 88631, Note_off_c, 0, 69, 64
2, 88641, Note_on_c, 0, 60, 63
2, 88641, Note_on_c, 0, 64, 65
2, 88662, Note_off_c, 0, 60, 64
2, 88668, Note_off_c, 0, 64, 64
2, 88673, Note_on_c, 0, 69, 70
2, 88675, Note_on_c, 0, 57, 59
2, 88695, Note_off_c, 0, 57, 64
2, 88698, Note_off_c, 0, 69, 64
2, 88706, Note_on_c, 0, 39, 28
2, 88710, Note_on_c, 0, 65, 57
2, 88710, Note_on_c, 0, 62, 55
2, 88712, Note_off_c, 0, 39, 64
2, 88713, Note_on_c, 0, 40, 62
2, 88726, Note_off_c, 0, 40, 64
2, 88731, Note_on_c, 0, 41, 33
2, 88733, Note_off_c, 0, 62, 64
2, 88738, Note_off_c, 0, 41, 64
2, 88742, Note_on_c, 0, 40, 46
2, 88750, Note_on_c, 0, 69, 65
2, 88751, Note_off_c, 0, 65, 64
2, 88752, Note_on_c, 0, 60, 43
2, 88755, Note_off_c, 0, 40, 64
2, 88758, Note_on_c, 0, 41, 37
2, 88768, Note_off_c, 0, 41, 64
2, 88773, Note_on_c, 0, 40, 55
2, 88778, Note_off_c, 0, 60, 64
2, 88782, Note_off_c, 0, 69, 64
2, 88782, Note_on_c, 0, 65, 66
2, 88783, Note_on_c, 0, 62, 60
2, 88785, Note_off_c, 0, 40, 64
2, 88788, Note_on_c, 0, 41, 48
2, 88792, Note_off_c, 0, 48, 64
2, 88800, Note_off_c, 0, 36, 64
2, 88801, Note_off_c, 0, 41, 64
2, 88801, Note_on_c, 0, 40, 45
2, 88812, Note_off_c, 0, 62, 64
2, 88815, Note_on_c, 0, 69, 75
2, 88816, Note_off_c, 0, 40, 64
2, 88817, Note_on_c, 0, 59, 54
2, 88818, Note_on_c, 0, 41, 41
2, 88820, Note_off_c, 0, 65, 64
2, 88830, Note_off_c, 0, 41, 64
2, 88836, Note_on_c, 0, 40, 41
2, 88846, Note_off_c, 0, 59, 64
2, 88847, Note_on_c, 0, 65, 68
2, 88848, Note_off_c, 0, 40, 64
2, 88848, Note_off_c, 0, 69, 64
2, 88848, Note_on_c, 0, 62, 66
2, 88852, Note_on_c, 0, 41, 43
2, 88861, Note_off_c, 0, 41, 64
2, 88865, Note_on_c, 0, 40, 40
2, 88877, Note_off_c, 0, 40, 64
2, 88878, Note_off_c, 0, 62, 64
2, 88880, Note_on_c, 0, 41, 51
2, 88881, Note_on_c, 0, 69, 76
2, 88883, Note_off_c, 0, 65, 64
2, 88883, Note_on_c, 0, 60, 64
2, 88891, Note_off_c, 0, 41, 64
2, 88893, Note_on_c, 0, 40, 44
2, 88908, Note_off_c, 0, 40, 64
2, 88911, Note_off_c, 0, 60, 64
2, 88912, Note_on_c, 0, 41, 46
2, 88913, Note_off_c, 0, 69, 64
2, 88913, Note_on_c, 0, 65, 73
2, 88916, Note_on_c, 0, 62, 67
2, 88921, Note_off_c, 0, 41, 64
2, 88923, Note_on_c, 0, 40, 48
2, 88937, Note_off_c, 0, 40, 64
2, 88940, Note_on_c, 0, 41, 52
2, 88941, Note_off_c, 0, 62, 64
2, 88945, Note_on_c, 0, 69, 76
2, 88947, Note_off_c, 0, 65, 64
2, 88947, Note_on_c, 0, 59, 59
2, 88952, Note_off_c, 0, 41, 64
2, 88953, Note_on_c, 0, 40, 52
2, 88971, Note_off_c, 0, 40, 64
2, 88971, Note_off_c, 0, 59, 64
2, 88972, Note_on_c, 0, 41, 54
2, 88975, Note_off_c, 0, 69, 64
2, 88976, Note_on_c, 0, 65, 74
2, 88977, Note_on_c, 0, 62, 73
2, 88985, Note_off_c, 0, 41, 64
2, 88985, Note_on_c, 0, 40, 53
2, 89000, Note_off_c, 0, 40, 64
2, 89002, Note_on_c, 0, 41, 56
2, 89003, Note_off_c, 0, 62, 64
2, 89007, Note_on_c, 0, 69, 79
2, 89010, Note_off_c, 0, 65, 64
2, 89010, Note_on_c, 0, 60, 64
2, 89016, Note_off_c, 0, 41, 64
2, 89018, Note_on_c, 0, 40, 57
2, 89036, Note_off_c, 0, 40, 64
2, 89037, Note_off_c, 0, 60, 64
2, 89038, Note_on_c, 0, 41, 51
2, 89040, Note_off_c, 0, 69, 64
2, 89040, Note_on_c, 0, 65, 74
2, 89041, Note_on_c, 0, 62, 68
2, 89052, Note_off_c, 0, 41, 64
2, 89053, Note_on_c, 0, 40, 55
2, 89065, Note_off_c, 0, 62, 64
2, 89066, Note_off_c, 0, 40, 64
2, 89068, Control_c, 0, 64, 24
2, 89070, Note_on_c, 0, 41, 47
2, 89071, Note_on_c, 0, 69, 77
2, 89072, Note_off_c, 0, 65, 64
2, 89073, Note_on_c, 0, 59, 62
2, 89077, Control_c, 0, 64, 40
2, 89085, Note_off_c, 0, 41, 64
2, 89085, Control_c, 0, 64, 56
2, 89086, Note_on_c, 0, 40, 55
2, 89096, Note_off_c, 0, 59, 64
2, 89098, Control_c, 0, 64, 0
2, 89101, Note_off_c, 0, 40, 64
2, 89102, Note_off_c, 0, 69, 64
2, 89103, Note_on_c, 0, 65, 76
2, 89103, Note_on_c, 0, 41, 54
2, 89105, Note_on_c, 0, 62, 72
2, 89117, Note_off_c, 0, 41, 64
2, 89117, Note_on_c, 0, 40, 46
2, 89125, Control_c, 0, 64, 24
2, 89127, Control_c, 0, 64, 40
2, 89131, Note_off_c, 0, 62, 64
2, 89132, Note_off_c, 0, 40, 64
2, 89135, Note_on_c, 0, 41, 49
2, 89138, Note_on_c, 0, 69, 76
2, 89141, Note_off_c, 0, 65, 64
2, 89141, Note_on_c, 0, 60, 62
2, 89148, Note_off_c, 0, 41, 64
2, 89153, Note_on_c, 0, 40, 47
2, 89158, Note_off_c, 0, 60, 64
2, 89162, Note_off_c, 0, 69, 64
2, 89166, Note_on_c, 0, 65, 73
2, 89167, Note_on_c, 0, 62, 64
2, 89171, Note_off_c, 0, 40, 64
2, 89173, Note_on_c, 0, 41, 45
2, 89182, Note_off_c, 0, 62, 64
2, 89186, Control_c, 0, 64, 56
2, 89187, Note_off_c, 0, 41, 64
2, 89190, Note_on_c, 0, 40, 51
2, 89195, Note_off_c, 0, 65, 64
2, 89197, Note_on_c, 0, 69, 78
2, 89198, Note_on_c, 0, 59, 64
2, 89198, Control_c, 0, 64, 72
2, 89207, Note_off_c, 0, 40, 64
2, 89212, Note_on_c, 0, 41, 32
2, 89215, Note_off_c, 0, 59, 64
2, 89221, Note_off_c, 0, 69, 64
2, 89227, Note_off_c, 0, 41, 64
2, 89227, Note_on_c, 0, 40, 53
2, 89228, Note_on_c, 0, 65, 74
2, 89230, Note_on_c, 0, 62, 69
2, 89243, Note_off_c, 0, 40, 64
2, 89246, Note_off_c, 0, 62, 64
2, 89247, Note_on_c, 0, 41, 49
2, 89257, Note_off_c, 0, 41, 64
2, 89258, Note_on_c, 0, 69, 81
2, 89260, Note_off_c, 0, 65, 64
2, 89261, Note_on_c, 0, 60, 68
2, 89261, Note_on_c, 0, 40, 53
2, 89276, Note_off_c, 0, 40, 64
2, 89278, Note_off_c, 0, 60, 64
2, 89280, Note_off_c, 0, 69, 64
2, 89280, Note_on_c, 0, 41, 39
2, 89292, Note_on_c, 0, 65, 70
2, 89293, Note_off_c, 0, 41, 64
2, 89293, Note_on_c, 0, 62, 70
2, 89295, Note_on_c, 0, 40, 59
2, 89308, Note_off_c, 0, 40, 64
2, 89312, Note_on_c, 0, 41, 49
2, 89316, Note_off_c, 0, 62, 64
2, 89323, Note_off_c, 0, 65, 64
2, 89326, Note_off_c, 0, 41, 64
2, 89326, Note_on_c, 0, 69, 77
2, 89326, Note_on_c, 0, 59, 63
2, 89328, Note_on_c, 0, 40, 56
2, 89331, Control_c, 0, 64, 56
2, 89343, Note_off_c, 0, 40, 64
2, 89343, Note_off_c, 0, 59, 64
2, 89347, Note_on_c, 0, 41, 44
2, 89350, Note_off_c, 0, 69, 64
2, 89357, Note_on_c, 0, 65, 71
2, 89358, Note_on_c, 0, 62, 70
2, 89362, Note_off_c, 0, 41, 64
2, 89362, Note_on_c, 0, 40, 58
2, 89372, Control_c, 0, 64, 40
2, 89377, Note_off_c, 0, 40, 64
2, 89377, Note_off_c, 0, 62, 64
2, 89381, Note_on_c, 0, 41, 45
2, 89388, Note_off_c, 0, 65, 64
2, 89388, Note_on_c, 0, 69, 82
2, 89391, Note_on_c, 0, 60, 68
2, 89397, Note_off_c, 0, 41, 64
2, 89398, Note_on_c, 0, 40, 47
2, 89402, Control_c, 0, 64, 56
2, 89410, Note_off_c, 0, 60, 64
2, 89411, Note_off_c, 0, 69, 64
2, 89417, Note_off_c, 0, 40, 64
2, 89417, Control_c, 0, 64, 72
2, 89420, Note_on_c, 0, 65, 68
2, 89420, Note_on_c, 0, 41, 49
2, 89422, Note_on_c, 0, 62, 54
2, 89427, Control_c, 0, 64, 88
2, 89432, Note_off_c, 0, 41, 64
2, 89436, Note_on_c, 0, 40, 51
2, 89440, Note_off_c, 0, 62, 64
2, 89446, Control_c, 0, 64, 104
2, 89451, Note_off_c, 0, 65, 64
2, 89452, Note_off_c, 0, 40, 64
2, 89453, Note_on_c, 0, 69, 81
2, 89456, Note_on_c, 0, 41, 43
2, 89456, Control_c, 0, 64, 127
2, 89457, Note_on_c, 0, 59, 62
2, 89461, Note_off_c, 0, 69, 64
2, 89462, Note_off_c, 0, 41, 64
2, 89465, Note_off_c, 0, 59, 64
2, 89486, Control_c, 0, 64, 88
2, 89488, Control_c, 0, 64, 56
2, 89491, Note_on_c, 0, 52, 88
2, 89491, Control_c, 0, 64, 0
2, 89492, Note_on_c, 0, 40, 75
2, 89511, Control_c, 0, 64, 40
2, 89513, Note_off_c, 0, 40, 64
2, 89513, Control_c, 0, 64, 88
2, 89516, Note_off_c, 0, 52, 64
2, 89516, Note_on_c, 0, 41, 42
2, 89516, Control_c, 0, 64, 127
2, 89517, Note_on_c, 0, 53, 70
2, 89527, Note_off_c, 0, 41, 64
2, 89530, Note_on_c, 0, 40, 54
2, 89531, Note_off_c, 0, 53, 64
2, 89533, Note_on_c, 0, 52, 67
2, 89542, Note_off_c, 0, 40, 64
2, 89545, Note_on_c, 0, 41, 49
2, 89546, Note_off_c, 0, 52, 64
2, 89547, Note_on_c, 0, 53, 66
2, 89553, Note_off_c, 0, 41, 64
2, 89556, Note_on_c, 0, 40, 47
2, 89560, Note_off_c, 0, 53, 64
2, 89560, Note_on_c, 0, 52, 54
2, 89567, Note_off_c, 0, 40, 64
2, 89568, Note_off_c, 0, 52, 64
2, 89568, Note_on_c, 0, 41, 49
2, 89570, Note_on_c, 0, 53, 61
2, 89578, Note_off_c, 0, 41, 64
2, 89578, Note_on_c, 0, 40, 47
2, 89582, Note_off_c, 0, 53, 64
2, 89582, Note_on_c, 0, 52, 59
2, 89592, Note_off_c, 0, 40, 64
2, 89593, Note_off_c, 0, 52, 64
2, 89593, Note_on_c, 0, 41, 49
2, 89593, Note_on_c, 0, 53, 49
2, 89603, Note_off_c, 0, 41, 64
2, 89603, Note_on_c, 0, 40, 49
2, 89605, Note_off_c, 0, 53, 64
2, 89605, Note_on_c, 0, 52, 64
2, 89616, Note_off_c, 0, 52, 64
2, 89616, Note_off_c, 0, 40, 64
2, 89616, Note_on_c, 0, 41, 54
2, 89618, Note_on_c, 0, 53, 57
2, 89626, Note_off_c, 0, 41, 64
2, 89627, Note_on_c, 0, 40, 53
2, 89630, Note_on_c, 0, 52, 47
2, 89631, Note_off_c, 0, 53, 64
2, 89638, Note_off_c, 0, 40, 64
2, 89640, Note_off_c, 0, 52, 64
2, 89641, Note_on_c, 0, 41, 55
2, 89642, Note_on_c, 0, 53, 57
2, 89648, Note_off_c, 0, 41, 64
2, 89651, Note_on_c, 0, 40, 54
2, 89656, Note_off_c, 0, 53, 64
2, 89658, Note_on_c, 0, 52, 56
2, 89666, Note_on_c, 0, 41, 33
2, 89672, Note_off_c, 0, 41, 64
2, 89675, Note_off_c, 0, 40, 64
2, 89678, Note_off_c, 0, 52, 64
2, 89681, Note_on_c, 0, 38, 78
2, 89682, Note_on_c, 0, 50, 85
2, 89682, Control_c, 0, 64, 88
2, 89685, Control_c, 0, 64, 40
2, 89687, Control_c, 0, 64, 0
2, 89700, Note_off_c, 0, 38, 64
2, 89701, Note_on_c, 0, 40, 58
2, 89705, Control_c, 0, 64, 56
2, 89706, Note_off_c, 0, 50, 64
2, 89707, Note_on_c, 0, 52, 47
2, 89707, Control_c, 0, 64, 88
2, 89710, Control_c, 0, 64, 127
2, 89712, Note_off_c, 0, 40, 64
2, 89717, Note_on_c, 0, 38, 59
2, 89721, Note_off_c, 0, 52, 64
2, 89722, Note_on_c, 0, 50, 72
2, 89727, Note_off_c, 0, 38, 64
2, 89728, Note_on_c, 0, 40, 47
2, 89732, Note_off_c, 0, 50, 64
2, 89735, Note_on_c, 0, 52, 65
2, 89740, Note_off_c, 0, 40, 64
2, 89741, Note_on_c, 0, 38, 56
2, 89748, Note_off_c, 0, 52, 64
2, 89748, Note_on_c, 0, 50, 63
2, 89752, Note_off_c, 0, 38, 64
2, 89752, Note_on_c, 0, 40, 51
2, 89758, Note_off_c, 0, 50, 64
2, 89760, Note_on_c, 0, 52, 60
2, 89763, Note_off_c, 0, 40, 64
2, 89765, Note_on_c, 0, 38, 42
2, 89772, Note_off_c, 0, 52, 64
2, 89773, Note_on_c, 0, 50, 58
2, 89776, Note_off_c, 0, 38, 64
2, 89777, Note_on_c, 0, 40, 48
2, 89785, Note_off_c, 0, 50, 64
2, 89785, Note_on_c, 0, 52, 60
2, 89787, Note_on_c, 0, 38, 54
2, 89788, Note_off_c, 0, 40, 64
2, 89797, Note_off_c, 0, 52, 64
2, 89797, Note_on_c, 0, 50, 59
2, 89800, Note_off_c, 0, 38, 64
2, 89801, Note_on_c, 0, 40, 52
2, 89807, Note_on_c, 0, 52, 61
2, 89808, Note_off_c, 0, 50, 64
2, 89812, Note_off_c, 0, 40, 64
2, 89812, Note_on_c, 0, 38, 55
2, 89820, Note_off_c, 0, 52, 64
2, 89822, Note_on_c, 0, 50, 35
2, 89823, Note_off_c, 0, 38, 64
2, 89825, Note_on_c, 0, 40, 58
2, 89828, Note_off_c, 0, 50, 64
2, 89831, Note_on_c, 0, 52, 59
2, 89838, Note_off_c, 0, 40, 64
2, 89838, Note_on_c, 0, 38, 57
2, 89841, Note_on_c, 0, 50, 56
2, 89842, Note_off_c, 0, 52, 64
2, 89857, Note_off_c, 0, 38, 64
2, 89861, Note_off_c, 0, 50, 64
2, 89863, Note_on_c, 0, 36, 62
2, 89865, Note_on_c, 0, 48, 92
2, 89870, Control_c, 0, 64, 88
2, 89872, Control_c, 0, 64, 0
2, 89883, Note_off_c, 0, 36, 64
2, 89885, Note_on_c, 0, 38, 56
2, 89892, Note_off_c, 0, 48, 64
2, 89892, Control_c, 0, 64, 56
2, 89893, Note_on_c, 0, 50, 58
2, 89895, Control_c, 0, 64, 104
2, 89897, Control_c, 0, 64, 127
2, 89898, Note_off_c, 0, 38, 64
2, 89900, Note_on_c, 0, 36, 58
2, 89905, Note_off_c, 0, 50, 64
2, 89906, Note_on_c, 0, 48, 68
2, 89912, Note_off_c, 0, 36, 64
2, 89915, Note_on_c, 0, 38, 56
2, 89917, Note_off_c, 0, 48, 64
2, 89920, Note_on_c, 0, 50, 63
2, 89925, Note_off_c, 0, 38, 64
2, 89926, Note_on_c, 0, 36, 44
2, 89932, Note_off_c, 0, 50, 64
2, 89932, Note_on_c, 0, 48, 64
2, 89938, Note_off_c, 0, 36, 64
2, 89940, Note_on_c, 0, 38, 49
2, 89943, Note_off_c, 0, 48, 64
2, 89943, Note_on_c, 0, 50, 59
2, 89948, Note_off_c, 0, 38, 64
2, 89950, Note_on_c, 0, 36, 48
2, 89956, Note_off_c, 0, 50, 64
2, 89957, Note_on_c, 0, 48, 62
2, 89963, Note_off_c, 0, 36, 64
2, 89963, Note_on_c, 0, 38, 54
2, 89968, Note_off_c, 0, 48, 64
2, 89968, Note_on_c, 0, 50, 68
2, 89975, Note_off_c, 0, 38, 64
2, 89975, Note_on_c, 0, 36, 52
2, 89981, Note_off_c, 0, 50, 64
2, 89982, Note_on_c, 0, 48, 62
2, 89987, Note_off_c, 0, 36, 64
2, 89987, Note_on_c, 0, 38, 55
2, 89991, Note_off_c, 0, 48, 64
2, 89991, Note_on_c, 0, 50, 63
2, 89998, Note_off_c, 0, 38, 64
2, 89998, Note_on_c, 0, 36, 56
2, 90005, Note_off_c, 0, 50, 64
2, 90006, Note_on_c, 0, 48, 39
2, 90010, Note_off_c, 0, 36, 64
2, 90012, Note_on_c, 0, 38, 59
2, 90013, Note_off_c, 0, 48, 64
2, 90016, Note_on_c, 0, 50, 55
2, 90023, Note_off_c, 0, 38, 64
2, 90026, Note_on_c, 0, 36, 51
2, 90032, Note_off_c, 0, 36, 64
2, 90032, Note_off_c, 0, 50, 64
2, 90037, Note_on_c, 0, 38, 58
2, 90046, Note_off_c, 0, 38, 64
2, 90046, Note_on_c, 0, 36, 70
2, 90047, Note_on_c, 0, 48, 24
2, 90066, Note_off_c, 0, 36, 64
2, 90070, Note_off_c, 0, 48, 64
2, 90072, Note_on_c, 0, 35, 66
2, 90073, Note_on_c, 0, 47, 85
2, 90081, Control_c, 0, 64, 56
2, 90083, Control_c, 0, 64, 0
2, 90095, Note_off_c, 0, 35, 64
2, 90096, Note_on_c, 0, 36, 59
2, 90098, Note_off_c, 0, 47, 64
2, 90098, Note_on_c, 0, 48, 75
2, 90100, Control_c, 0, 64, 88
2, 90101, Control_c, 0, 64, 127
2, 90108, Note_off_c, 0, 36, 64
2, 90110, Note_on_c, 0, 35, 55
2, 90112, Note_off_c, 0, 48, 64
2, 90116, Note_on_c, 0, 47, 59
2, 90122, Note_off_c, 0, 35, 64
2, 90123, Note_on_c, 0, 36, 57
2, 90125, Note_off_c, 0, 47, 64
2, 90126, Note_on_c, 0, 48, 69
2, 90133, Note_off_c, 0, 36, 64
2, 90136, Note_on_c, 0, 35, 60
2, 90138, Note_off_c, 0, 48, 64
2, 90140, Note_on_c, 0, 47, 65
2, 90148, Note_off_c, 0, 35, 64
2, 90148, Note_on_c, 0, 36, 51
2, 90150, Note_off_c, 0, 47, 64
2, 90151, Note_on_c, 0, 48, 64
2, 90161, Note_off_c, 0, 36, 64
2, 90161, Note_on_c, 0, 35, 51
2, 90163, Note_off_c, 0, 48, 64
2, 90165, Note_on_c, 0, 47, 60
2, 90173, Note_off_c, 0, 35, 64
2, 90175, Note_off_c, 0, 47, 64
2, 90175, Note_on_c, 0, 36, 51
2, 90175, Note_on_c, 0, 48, 63
2, 90186, Note_off_c, 0, 36, 64
2, 90187, Note_off_c, 0, 48, 64
2, 90187, Note_on_c, 0, 35, 51
2, 90188, Note_on_c, 0, 47, 55
2, 90200, Note_off_c, 0, 35, 64
2, 90200, Note_on_c, 0, 48, 64
2, 90201, Note_off_c, 0, 47, 64
2, 90201, Note_on_c, 0, 36, 53
2, 90212, Note_off_c, 0, 36, 64
2, 90212, Note_off_c, 0, 48, 64
2, 90212, Note_on_c, 0, 35, 51
2, 90225, Note_off_c, 0, 35, 64
2, 90227, Note_on_c, 0, 36, 55
2, 90228, Note_on_c, 0, 48, 46
2, 90235, Note_off_c, 0, 36, 64
2, 90237, Note_off_c, 0, 48, 64
2, 90241, Note_on_c, 0, 35, 54
2, 90245, Note_on_c, 0, 47, 39
2, 90260, Note_off_c, 0, 35, 64
2, 90263, Note_off_c, 0, 47, 64
2, 90293, Note_on_c, 0, 45, 59
2, 90293, Note_on_c, 0, 33, 53
2, 90303, Control_c, 0, 64, 56
2, 90307, Control_c, 0, 64, 88
2, 90311, Control_c, 0, 64, 104
2, 90315, Control_c, 0, 64, 127
2, 90323, Note_off_c, 0, 33, 64
2, 90332, Note_off_c, 0, 45, 64
2, 90351, Note_on_c, 0, 65, 65
2, 90352, Note_on_c, 0, 60, 58
2, 90365, Note_off_c, 0, 60, 64
2, 90365, Note_off_c, 0, 65, 64
2, 90382, Control_c, 0, 64, 72
2, 90386, Control_c, 0, 64, 24
2, 90387, Note_on_c, 0, 65, 68
2, 90387, Note_on_c, 0, 60, 55
2, 90390, Control_c, 0, 64, 0
2, 90392, Note_on_c, 0, 45, 53
2, 90395, Note_on_c, 0, 53, 46
2, 90401, Control_c, 0, 64, 40
2, 90405, Control_c, 0, 64, 72
2, 90408, Control_c, 0, 64, 104
2, 90410, Note_off_c, 0, 60, 64
2, 90411, Note_off_c, 0, 65, 64
2, 90411, Control_c, 0, 64, 127
2, 90423, Note_on_c, 0, 63, 68
2, 90426, Note_on_c, 0, 57, 62
2, 90436, Note_off_c, 0, 57, 64
2, 90443, Note_off_c, 0, 63, 64
2, 90446, Control_c, 0, 64, 104
2, 90447, Note_off_c, 0, 45, 64
2, 90450, Control_c, 0, 64, 88
2, 90455, Note_off_c, 0, 53, 64
2, 90456, Note_on_c, 0, 63, 54
2, 90457, Note_on_c, 0, 52, 51
2, 90457, Control_c, 0, 64, 127
2, 90460, Note_on_c, 0, 48, 54
2, 90461, Note_on_c, 0, 57, 60
2, 90463, Note_off_c, 0, 52, 64
2, 90467, Note_off_c, 0, 48, 64
2, 90480, Note_off_c, 0, 57, 64
2, 90481, Note_off_c, 0, 63, 64
2, 90496, Note_on_c, 0, 64, 74
2, 90497, Note_on_c, 0, 60, 54
2, 90505, Note_off_c, 0, 60, 64
2, 90511, Note_off_c, 0, 64, 64
2, 90527, Control_c, 0, 64, 72
2, 90531, Control_c, 0, 64, 0
2, 90538, Note_on_c, 0, 29, 64
2, 90540, Note_on_c, 0, 41, 68
2, 90548, Control_c, 0, 64, 56
2, 90552, Note_off_c, 0, 29, 64
2, 90552, Control_c, 0, 64, 104
2, 90556, Control_c, 0, 64, 127
2, 90557, Note_off_c, 0, 41, 64
2, 90573, Note_on_c, 0, 71, 78
2, 90573, Note_on_c, 0, 63, 61
2, 90591, Note_off_c, 0, 63, 64
2, 90591, Note_off_c, 0, 71, 64
2, 90607, Note_on_c, 0, 71, 66
2, 90608, Note_on_c, 0, 63, 55
2, 90618, Note_on_c, 0, 55, 59
2, 90621, Note_on_c, 0, 47, 51
2, 90627, Note_off_c, 0, 71, 64
2, 90630, Note_off_c, 0, 63, 64
2, 90645, Note_on_c, 0, 68, 69
2, 90647, Note_on_c, 0, 59, 62
2, 90661, Note_off_c, 0, 59, 64
2, 90663, Note_off_c, 0, 68, 64
2, 90665, Note_off_c, 0, 47, 64
2, 90671, Note_off_c, 0, 55, 64
2, 90680, Note_on_c, 0, 53, 64
2, 90680, Note_on_c, 0, 68, 71
2, 90682, Note_on_c, 0, 59, 64
2, 90685, Note_off_c, 0, 53, 64
2, 90698, Note_off_c, 0, 59, 64
2, 90703, Note_off_c, 0, 68, 64
2, 90716, Note_on_c, 0, 69, 82
2, 90730, Note_off_c, 0, 69, 64
2, 90742, Control_c, 0, 64, 104
2, 90745, Control_c, 0, 64, 56
2, 90748, Control_c, 0, 64, 0
2, 90755, Note_on_c, 0, 40, 58
2, 90755, Note_on_c, 0, 52, 73
2, 90762, Note_off_c, 0, 40, 64
2, 90768, Control_c, 0, 64, 40
2, 90770, Note_off_c, 0, 52, 64
2, 90772, Control_c, 0, 64, 88
2, 90775, Control_c, 0, 64, 127
2, 90786, Note_on_c, 0, 77, 81
2, 90787, Note_on_c, 0, 74, 70
2, 90800, Note_off_c, 0, 74, 64
2, 90802, Note_off_c, 0, 77, 64
2, 90817, Note_on_c, 0, 77, 74
2, 90820, Note_on_c, 0, 74, 74
2, 90831, Note_on_c, 0, 64, 52
2, 90831, Note_on_c, 0, 65, 40
2, 90837, Note_off_c, 0, 74, 64
2, 90838, Note_off_c, 0, 65, 64
2, 90838, Note_off_c, 0, 77, 64
2, 90855, Note_on_c, 0, 75, 82
2, 90856, Note_on_c, 0, 68, 56
2, 90868, Note_off_c, 0, 68, 64
2, 90871, Note_off_c, 0, 64, 64
2, 90872, Note_off_c, 0, 75, 64
2, 90887, Note_on_c, 0, 68, 73
2, 90887, Note_on_c, 0, 75, 77
2, 90890, Note_on_c, 0, 62, 64
2, 90897, Note_on_c, 0, 59, 38
2, 90905, Note_off_c, 0, 68, 64
2, 90910, Note_off_c, 0, 75, 64
2, 90915, Note_off_c, 0, 62, 64
2, 90921, Note_on_c, 0, 76, 79
2, 90922, Note_off_c, 0, 59, 64
2, 90922, Note_on_c, 0, 74, 73
2, 90928, Note_off_c, 0, 74, 64
2, 90937, Note_off_c, 0, 76, 64
2, 90948, Control_c, 0, 64, 104
2, 90951, Note_on_c, 0, 52, 65
2, 90952, Note_on_c, 0, 76, 78
2, 90952, Note_on_c, 0, 64, 61
2, 90952, Control_c, 0, 64, 40
2, 90955, Note_on_c, 0, 74, 70
2, 90956, Control_c, 0, 64, 0
2, 90972, Control_c, 0, 64, 56
2, 90975, Note_off_c, 0, 74, 64
2, 90976, Note_off_c, 0, 76, 64
2, 90976, Control_c, 0, 64, 127
2, 90987, Note_on_c, 0, 77, 87
2, 90987, Note_on_c, 0, 68, 65
2, 91000, Note_off_c, 0, 52, 64
2, 91002, Note_off_c, 0, 68, 64
2, 91003, Note_off_c, 0, 77, 64
2, 91003, Note_off_c, 0, 64, 64
2, 91021, Note_on_c, 0, 77, 82
2, 91022, Note_on_c, 0, 68, 62
2, 91025, Note_on_c, 0, 62, 51
2, 91026, Note_on_c, 0, 59, 46
2, 91038, Note_off_c, 0, 68, 64
2, 91038, Note_off_c, 0, 77, 64
2, 91047, Note_off_c, 0, 62, 64
2, 91051, Note_off_c, 0, 59, 64
2, 91055, Note_on_c, 0, 75, 74
2, 91056, Note_on_c, 0, 74, 77
2, 91068, Note_off_c, 0, 74, 64
2, 91072, Note_off_c, 0, 75, 64
2, 91088, Note_on_c, 0, 75, 76
2, 91092, Note_on_c, 0, 74, 82
2, 91092, Note_on_c, 0, 64, 62
2, 91093, Note_on_c, 0, 52, 58
2, 91100, Note_off_c, 0, 64, 64
2, 91103, Note_off_c, 0, 52, 64
2, 91103, Note_off_c, 0, 74, 64
2, 91113, Note_off_c, 0, 75, 64
2, 91127, Note_on_c, 0, 76, 85
2, 91128, Note_on_c, 0, 68, 61
2, 91140, Note_off_c, 0, 68, 64
2, 91146, Note_off_c, 0, 76, 64
2, 91172, Control_c, 0, 64, 40
2, 91173, Note_on_c, 0, 45, 75
2, 91175, Note_on_c, 0, 57, 72
2, 91176, Control_c, 0, 64, 0
2, 91187, Note_off_c, 0, 45, 64
2, 91196, Note_off_c, 0, 57, 64
2, 91196, Control_c, 0, 64, 72
2, 91200, Control_c, 0, 64, 127
2, 91215, Note_on_c, 0, 76, 76
2, 91216, Note_on_c, 0, 74, 74
2, 91231, Note_off_c, 0, 74, 64
2, 91231, Note_off_c, 0, 76, 64
2, 91250, Note_on_c, 0, 76, 76
2, 91251, Note_on_c, 0, 74, 68
2, 91252, Note_on_c, 0, 57, 55
2, 91252, Note_on_c, 0, 64, 57
2, 91261, Note_off_c, 0, 57, 64
2, 91262, Note_off_c, 0, 64, 64
2, 91266, Note_off_c, 0, 74, 64
2, 91267, Note_off_c, 0, 76, 64
2, 91283, Note_on_c, 0, 77, 82
2, 91287, Note_on_c, 0, 72, 66
2, 91295, Note_off_c, 0, 72, 64
2, 91302, Note_off_c, 0, 77, 64
2, 91317, Note_on_c, 0, 62, 61
2, 91320, Note_on_c, 0, 72, 77
2, 91320, Note_on_c, 0, 77, 83
2, 91321, Note_on_c, 0, 50, 64
2, 91325, Note_off_c, 0, 62, 64
2, 91328, Note_off_c, 0, 50, 64
2, 91331, Note_off_c, 0, 77, 64
2, 91332, Note_off_c, 0, 72, 64
2, 91348, Note_on_c, 0, 78, 76
2, 91351, Note_on_c, 0, 72, 74
2, 91362, Note_off_c, 0, 72, 64
2, 91365, Note_off_c, 0, 78, 64
2, 91382, Control_c, 0, 64, 24
2, 91385, Note_on_c, 0, 78, 79
2, 91386, Note_on_c, 0, 72, 82
2, 91386, Note_on_c, 0, 43, 64
2, 91386, Note_on_c, 0, 55, 65
2, 91386, Control_c, 0, 64, 0
2, 91395, Note_off_c, 0, 43, 64
2, 91400, Note_off_c, 0, 72, 64
2, 91400, Control_c, 0, 64, 24
2, 91402, Note_off_c, 0, 55, 64
2, 91403, Control_c, 0, 64, 88
2, 91406, Note_off_c, 0, 78, 64
2, 91406, Control_c, 0, 64, 127
2, 91418, Note_on_c, 0, 79, 82
2, 91420, Note_on_c, 0, 71, 63
2, 91430, Note_off_c, 0, 71, 64
2, 91432, Note_off_c, 0, 79, 64
2, 91447, Control_c, 0, 64, 72
2, 91450, Control_c, 0, 64, 24
2, 91453, Control_c, 0, 64, 40
2, 91455, Note_on_c, 0, 79, 89
2, 91455, Note_on_c, 0, 62, 62
2, 91455, Note_on_c, 0, 55, 64
2, 91455, Note_on_c, 0, 71, 70
2, 91457, Control_c, 0, 64, 88
2, 91460, Control_c, 0, 64, 127
2, 91463, Note_off_c, 0, 62, 64
2, 91466, Note_off_c, 0, 71, 64
2, 91466, Note_off_c, 0, 55, 64
2, 91468, Note_off_c, 0, 79, 64
2, 91485, Note_on_c, 0, 74, 87
2, 91486, Note_on_c, 0, 70, 70
2, 91498, Note_off_c, 0, 70, 64
2, 91502, Note_off_c, 0, 74, 64
2, 91515, Control_c, 0, 64, 56
2, 91517, Note_on_c, 0, 74, 74
2, 91518, Control_c, 0, 64, 0
2, 91520, Note_on_c, 0, 70, 69
2, 91521, Note_on_c, 0, 60, 66
2, 91522, Note_on_c, 0, 48, 70
2, 91527, Note_off_c, 0, 60, 64
2, 91528, Control_c, 0, 64, 40
2, 91531, Control_c, 0, 64, 72
2, 91533, Note_off_c, 0, 70, 64
2, 91535, Control_c, 0, 64, 127
2, 91536, Note_off_c, 0, 48, 64
2, 91537, Note_off_c, 0, 74, 64
2, 91552, Note_on_c, 0, 70, 64
2, 91552, Note_on_c, 0, 76, 76
2, 91566, Note_off_c, 0, 70, 64
2, 91570, Note_off_c, 0, 76, 64
2, 91582, Control_c, 0, 64, 104
2, 91586, Control_c, 0, 64, 24
2, 91588, Note_on_c, 0, 76, 72
2, 91588, Note_on_c, 0, 70, 63
2, 91588, Control_c, 0, 64, 0
2, 91592, Note_on_c, 0, 41, 60
2, 91593, Note_on_c, 0, 53, 63
2, 91602, Note_off_c, 0, 41, 64
2, 91602, Control_c, 0, 64, 40
2, 91605, Note_off_c, 0, 70, 64
2, 91606, Control_c, 0, 64, 88
2, 91608, Note_off_c, 0, 76, 64
2, 91610, Note_off_c, 0, 53, 64
2, 91610, Control_c, 0, 64, 127
2, 91623, Note_on_c, 0, 69, 75
2, 91623, Note_on_c, 0, 77, 88
2, 91636, Note_off_c, 0, 69, 64
2, 91640, Note_off_c, 0, 77, 64
2, 91651, Control_c, 0, 64, 104
2, 91653, Control_c, 0, 64, 24
2, 91657, Note_on_c, 0, 77, 82
2, 91657, Control_c, 0, 64, 0
2, 91658, Note_on_c, 0, 69, 75
2, 91660, Note_on_c, 0, 60, 56
2, 91661, Control_c, 0, 64, 24
2, 91662, Note_on_c, 0, 53, 53
2, 91663, Control_c, 0, 64, 56
2, 91667, Control_c, 0, 64, 88
2, 91670, Note_off_c, 0, 77, 64
2, 91671, Note_off_c, 0, 69, 64
2, 91671, Control_c, 0, 64, 127
2, 91680, Note_off_c, 0, 53, 64
2, 91680, Note_off_c, 0, 60, 64
2, 91690, Note_on_c, 0, 72, 84
2, 91690, Note_on_c, 0, 69, 70
2, 91697, Note_off_c, 0, 69, 64
2, 91702, Note_off_c, 0, 72, 64
2, 91725, Note_on_c, 0, 72, 87
2, 91725, Control_c, 0, 64, 72
2, 91727, Note_on_c, 0, 69, 76
2, 91728, Note_on_c, 0, 59, 45
2, 91728, Note_on_c, 0, 53, 52
2, 91728, Control_c, 0, 64, 56
2, 91732, Control_c, 0, 64, 72
2, 91733, Note_off_c, 0, 69, 64
2, 91735, Control_c, 0, 64, 88
2, 91738, Note_off_c, 0, 53, 64
2, 91738, Control_c, 0, 64, 127
2, 91741, Note_off_c, 0, 72, 64
2, 91746, Note_off_c, 0, 59, 64
2, 91760, Note_on_c, 0, 74, 83
2, 91761, Note_on_c, 0, 69, 71
2, 91767, Note_off_c, 0, 69, 64
2, 91778, Note_off_c, 0, 74, 64
2, 91793, Control_c, 0, 64, 88
2, 91796, Control_c, 0, 64, 0
2, 91800, Note_on_c, 0, 76, 83
2, 91800, Note_on_c, 0, 69, 81
2, 91803, Note_on_c, 0, 60, 54
2, 91805, Note_on_c, 0, 52, 53
2, 91813, Control_c, 0, 64, 56
2, 91816, Control_c, 0, 64, 127
2, 91821, Note_off_c, 0, 76, 64
2, 91830, Note_off_c, 0, 52, 64
2, 91831, Note_off_c, 0, 60, 64
2, 91832, Note_off_c, 0, 69, 64
2, 91837, Note_on_c, 0, 72, 80
2, 91853, Note_off_c, 0, 72, 64
2, 91872, Note_on_c, 0, 72, 74
2, 91872, Note_on_c, 0, 63, 65
2, 91875, Note_on_c, 0, 54, 53
2, 91875, Control_c, 0, 64, 40
2, 91876, Note_on_c, 0, 52, 59
2, 91877, Control_c, 0, 64, 0
2, 91893, Control_c, 0, 64, 56
2, 91895, Note_off_c, 0, 72, 64
2, 91898, Control_c, 0, 64, 127
2, 91901, Note_off_c, 0, 63, 64
2, 91905, Note_off_c, 0, 52, 64
2, 91908, Note_on_c, 0, 71, 74
2, 91920, Note_off_c, 0, 54, 64
2, 91928, Note_off_c, 0, 71, 64
2, 91955, Note_on_c, 0, 71, 72
2, 91956, Note_on_c, 0, 62, 58
2, 91960, Note_on_c, 0, 56, 45
2, 91960, Control_c, 0, 64, 88
2, 91961, Note_on_c, 0, 52, 50
2, 91962, Control_c, 0, 64, 0
2, 91982, Note_off_c, 0, 52, 64
2, 91982, Note_off_c, 0, 56, 64
2, 91982, Control_c, 0, 64, 40
2, 91983, Note_off_c, 0, 62, 64
2, 91986, Control_c, 0, 64, 104
2, 91990, Control_c, 0, 64, 127
2, 91991, Note_off_c, 0, 71, 64
2, 91998, Note_on_c, 0, 64, 68
2, 92006, Note_off_c, 0, 64, 64
2, 92041, Control_c, 0, 64, 0
2, 92043, Note_on_c, 0, 45, 74
2, 92043, Note_on_c, 0, 57, 73
2, 92055, Note_off_c, 0, 45, 64
2, 92057, Control_c, 0, 64, 88
2, 92061, Control_c, 0, 64, 127
2, 92063, Note_off_c, 0, 57, 64
2, 92080, Note_on_c, 0, 77, 79
2, 92082, Note_on_c, 0, 72, 68
2, 92093, Note_off_c, 0, 72, 64
2, 92098, Note_off_c, 0, 77, 64
2, 92115, Note_on_c, 0, 77, 70
2, 92117, Note_on_c, 0, 65, 60
2, 92117, Note_on_c, 0, 72, 70
2, 92118, Note_on_c, 0, 57, 51
2, 92132, Note_off_c, 0, 72, 64
2, 92133, Note_off_c, 0, 77, 64
2, 92148, Note_on_c, 0, 75, 77
2, 92153, Note_on_c, 0, 69, 57
2, 92161, Note_off_c, 0, 69, 64
2, 92167, Note_off_c, 0, 75, 64
2, 92168, Note_off_c, 0, 65, 64
2, 92170, Note_off_c, 0, 57, 64
2, 92180, Note_on_c, 0, 64, 61
2, 92183, Note_on_c, 0, 75, 69
2, 92183, Note_on_c, 0, 60, 52
2, 92186, Note_off_c, 0, 64, 64
2, 92187, Note_on_c, 0, 69, 61
2, 92191, Note_off_c, 0, 60, 64
2, 92203, Note_off_c, 0, 75, 64
2, 92206, Note_off_c, 0, 69, 64
2, 92213, Note_on_c, 0, 76, 80
2, 92226, Note_off_c, 0, 76, 64
2, 92247, Control_c, 0, 64, 104
2, 92250, Note_on_c, 0, 53, 75
2, 92251, Control_c, 0, 64, 24
2, 92253, Control_c, 0, 64, 0
2, 92265, Note_off_c, 0, 53, 64
2, 92265, Control_c, 0, 64, 40
2, 92267, Control_c, 0, 64, 104
2, 92271, Control_c, 0, 64, 127
2, 92281, Note_on_c, 0, 83, 83
2, 92282, Note_on_c, 0, 75, 69
2, 92293, Note_off_c, 0, 75, 64
2, 92295, Note_off_c, 0, 83, 64
2, 92312, Note_on_c, 0, 83, 68
2, 92315, Note_on_c, 0, 75, 68
2, 92320, Note_on_c, 0, 67, 66
2, 92322, Note_on_c, 0, 59, 60
2, 92331, Note_off_c, 0, 83, 64
2, 92333, Note_off_c, 0, 75, 64
2, 92348, Note_on_c, 0, 80, 74
2, 92351, Note_on_c, 0, 71, 62
2, 92366, Note_off_c, 0, 71, 64
2, 92366, Note_off_c, 0, 80, 64
2, 92381, Note_off_c, 0, 67, 64
2, 92381, Note_on_c, 0, 65, 62
2, 92383, Note_on_c, 0, 80, 83
2, 92385, Note_off_c, 0, 59, 64
2, 92387, Note_off_c, 0, 65, 64
2, 92387, Note_on_c, 0, 71, 67
2, 92403, Note_off_c, 0, 71, 64
2, 92407, Note_off_c, 0, 80, 64
2, 92417, Note_on_c, 0, 81, 87
2, 92433, Note_off_c, 0, 81, 64
2, 92451, Control_c, 0, 64, 72
2, 92453, Control_c, 0, 64, 0
2, 92455, Note_on_c, 0, 64, 73
2, 92455, Note_on_c, 0, 52, 66
2, 92461, Note_off_c, 0, 52, 64
2, 92467, Control_c, 0, 64, 24
2, 92470, Note_off_c, 0, 64, 64
2, 92471, Control_c, 0, 64, 104
2, 92475, Control_c, 0, 64, 127
2, 92486, Note_on_c, 0, 89, 76
2, 92487, Note_on_c, 0, 86, 71
2, 92498, Note_off_c, 0, 86, 64
2, 92498, Note_off_c, 0, 89, 64
2, 92516, Note_on_c, 0, 89, 81
2, 92517, Note_on_c, 0, 86, 78
2, 92522, Note_on_c, 0, 76, 71
2, 92522, Note_on_c, 0, 64, 65
2, 92535, Note_off_c, 0, 86, 64
2, 92535, Note_off_c, 0, 89, 64
2, 92542, Note_off_c, 0, 64, 64
2, 92550, Note_off_c, 0, 76, 64
2, 92551, Note_on_c, 0, 87, 83
2, 92551, Note_on_c, 0, 80, 70
2, 92563, Note_off_c, 0, 80, 64
2, 92568, Note_off_c, 0, 87, 64
2, 92585, Note_on_c, 0, 80, 73
2, 92585, Note_on_c, 0, 87, 78
2, 92585, Note_on_c, 0, 74, 66
2, 92586, Note_on_c, 0, 71, 62
2, 92602, Note_off_c, 0, 80, 64
2, 92605, Note_off_c, 0, 87, 64
2, 92611, Note_off_c, 0, 71, 64
2, 92615, Note_off_c, 0, 74, 64
2, 92616, Note_on_c, 0, 88, 80
2, 92617, Note_on_c, 0, 86, 73
2, 92631, Note_off_c, 0, 86, 64
2, 92635, Note_off_c, 0, 88, 64
2, 92647, Control_c, 0, 64, 72
2, 92648, Note_on_c, 0, 76, 65
2, 92650, Note_on_c, 0, 64, 54
2, 92650, Note_on_c, 0, 88, 75
2, 92651, Control_c, 0, 64, 0
2, 92652, Note_on_c, 0, 86, 81
2, 92661, Control_c, 0, 64, 104
2, 92665, Control_c, 0, 64, 127
2, 92668, Note_off_c, 0, 86, 64
2, 92671, Note_off_c, 0, 88, 64
2, 92682, Note_off_c, 0, 64, 64
2, 92683, Note_on_c, 0, 89, 86
2, 92685, Note_on_c, 0, 80, 73
2, 92686, Note_off_c, 0, 76, 64
2, 92698, Note_off_c, 0, 80, 64
2, 92700, Note_off_c, 0, 89, 64
2, 92715, Note_on_c, 0, 74, 59
2, 92716, Note_on_c, 0, 89, 82
2, 92717, Note_on_c, 0, 80, 77
2, 92717, Note_on_c, 0, 71, 48
2, 92733, Note_off_c, 0, 80, 64
2, 92733, Note_off_c, 0, 89, 64
2, 92736, Note_off_c, 0, 71, 64
2, 92737, Note_off_c, 0, 74, 64
2, 92748, Note_on_c, 0, 87, 73
2, 92750, Note_on_c, 0, 86, 74
2, 92763, Note_off_c, 0, 86, 64
2, 92766, Note_off_c, 0, 87, 64
2, 92780, Note_on_c, 0, 87, 71
2, 92783, Note_on_c, 0, 76, 61
2, 92785, Note_on_c, 0, 64, 62
2, 92786, Note_on_c, 0, 86, 65
2, 92791, Note_off_c, 0, 86, 64
2, 92791, Note_off_c, 0, 76, 64
2, 92795, Note_off_c, 0, 64, 64
2, 92806, Note_off_c, 0, 87, 64
2, 92817, Note_on_c, 0, 88, 88
2, 92818, Note_on_c, 0, 80, 75
2, 92833, Note_off_c, 0, 80, 64
2, 92843, Note_off_c, 0, 88, 64
2, 92861, Note_on_c, 0, 69, 82
2, 92861, Note_on_c, 0, 57, 71
2, 92861, Control_c, 0, 64, 56
2, 92863, Control_c, 0, 64, 0
2, 92876, Note_off_c, 0, 57, 64
2, 92881, Control_c, 0, 64, 88
2, 92885, Control_c, 0, 64, 127
2, 92886, Note_off_c, 0, 69, 64
2, 92906, Note_on_c, 0, 88, 74
2, 92907, Note_on_c, 0, 86, 68
2, 92921, Note_off_c, 0, 86, 64
2, 92922, Note_off_c, 0, 88, 64
2, 92937, Note_on_c, 0, 76, 68
2, 92937, Note_on_c, 0, 69, 68
2, 92938, Note_on_c, 0, 88, 73
2, 92938, Note_on_c, 0, 86, 68
2, 92947, Note_off_c, 0, 69, 64
2, 92948, Note_off_c, 0, 76, 64
2, 92956, Note_off_c, 0, 86, 64
2, 92956, Note_off_c, 0, 88, 64
2, 92970, Note_on_c, 0, 89, 82
2, 92973, Note_on_c, 0, 84, 66
2, 92985, Note_off_c, 0, 84, 64
2, 92988, Note_off_c, 0, 89, 64
2, 93005, Note_on_c, 0, 89, 79
2, 93005, Note_on_c, 0, 74, 70
2, 93006, Note_on_c, 0, 84, 73
2, 93006, Note_on_c, 0, 62, 62
2, 93012, Note_off_c, 0, 74, 64
2, 93017, Note_off_c, 0, 62, 64
2, 93017, Note_off_c, 0, 89, 64
2, 93020, Note_off_c, 0, 84, 64
2, 93036, Note_on_c, 0, 90, 76
2, 93038, Note_on_c, 0, 84, 77
2, 93047, Note_off_c, 0, 84, 64
2, 93053, Note_off_c, 0, 90, 64
2, 93071, Note_on_c, 0, 55, 74
2, 93071, Control_c, 0, 64, 56
2, 93072, Note_on_c, 0, 67, 77
2, 93072, Note_on_c, 0, 90, 77
2, 93073, Note_on_c, 0, 84, 81
2, 93075, Control_c, 0, 64, 0
2, 93083, Note_off_c, 0, 55, 64
2, 93086, Note_off_c, 0, 84, 64
2, 93088, Control_c, 0, 64, 40
2, 93090, Note_off_c, 0, 67, 64
2, 93091, Control_c, 0, 64, 127
2, 93096, Note_off_c, 0, 90, 64
2, 93107, Note_on_c, 0, 91, 82
2, 93108, Note_on_c, 0, 83, 72
2, 93117, Note_off_c, 0, 83, 64
2, 93121, Note_off_c, 0, 91, 64
2, 93140, Note_on_c, 0, 91, 86
2, 93140, Note_on_c, 0, 74, 69
2, 93140, Note_on_c, 0, 67, 64
2, 93141, Note_on_c, 0, 83, 74
2, 93148, Note_off_c, 0, 74, 64
2, 93150, Note_off_c, 0, 67, 64
2, 93153, Note_off_c, 0, 83, 64
2, 93156, Note_off_c, 0, 91, 64
2, 93171, Note_on_c, 0, 86, 82
2, 93172, Note_on_c, 0, 82, 68
2, 93183, Note_off_c, 0, 82, 64
2, 93188, Note_off_c, 0, 86, 64
2, 93200, Control_c, 0, 64, 72
2, 93202, Note_on_c, 0, 86, 69
2, 93203, Note_on_c, 0, 82, 69
2, 93203, Control_c, 0, 64, 24
2, 93206, Note_on_c, 0, 72, 70
2, 93207, Control_c, 0, 64, 40
2, 93208, Note_on_c, 0, 60, 63
2, 93210, Control_c, 0, 64, 72
2, 93211, Note_off_c, 0, 72, 64
2, 93213, Control_c, 0, 64, 104
2, 93217, Control_c, 0, 64, 127
2, 93218, Note_off_c, 0, 60, 64
2, 93218, Note_off_c, 0, 82, 64
2, 93222, Note_off_c, 0, 86, 64
2, 93236, Note_on_c, 0, 88, 80
2, 93237, Note_on_c, 0, 82, 69
2, 93252, Note_off_c, 0, 82, 64
2, 93255, Note_off_c, 0, 88, 64
2, 93263, Control_c, 0, 64, 104
2, 93268, Note_on_c, 0, 53, 69
2, 93268, Control_c, 0, 64, 40
2, 93270, Note_on_c, 0, 65, 73
2, 93271, Note_on_c, 0, 88, 74
2, 93271, Note_on_c, 0, 82, 79
2, 93271, Control_c, 0, 64, 0
2, 93278, Control_c, 0, 64, 40
2, 93280, Note_off_c, 0, 53, 64
2, 93281, Control_c, 0, 64, 88
2, 93285, Note_off_c, 0, 82, 64
2, 93285, Control_c, 0, 64, 127
2, 93287, Note_off_c, 0, 65, 64
2, 93290, Note_off_c, 0, 88, 64
2, 93306, Note_on_c, 0, 89, 89
2, 93307, Note_on_c, 0, 81, 75
2, 93320, Note_off_c, 0, 81, 64
2, 93320, Note_off_c, 0, 89, 64
2, 93335, Control_c, 0, 64, 88
2, 93338, Note_on_c, 0, 89, 82
2, 93338, Note_on_c, 0, 81, 75
2, 93340, Note_on_c, 0, 72, 64
2, 93340, Note_on_c, 0, 65, 54
2, 93340, Control_c, 0, 64, 40
2, 93342, Control_c, 0, 64, 56
2, 93346, Control_c, 0, 64, 72
2, 93350, Note_off_c, 0, 81, 64
2, 93350, Note_off_c, 0, 89, 64
2, 93350, Control_c, 0, 64, 104
2, 93352, Control_c, 0, 64, 127
2, 93356, Note_off_c, 0, 72, 64
2, 93358, Note_off_c, 0, 65, 64
2, 93368, Note_on_c, 0, 84, 82
2, 93368, Note_on_c, 0, 81, 73
2, 93377, Note_off_c, 0, 81, 64
2, 93381, Note_off_c, 0, 84, 64
2, 93400, Control_c, 0, 64, 72
2, 93402, Note_on_c, 0, 84, 90
2, 93403, Note_on_c, 0, 71, 60
2, 93403, Note_on_c, 0, 65, 59
2, 93403, Control_c, 0, 64, 56
2, 93405, Note_on_c, 0, 81, 78
2, 93406, Control_c, 0, 64, 88
2, 93410, Control_c, 0, 64, 104
2, 93412, Note_off_c, 0, 65, 64
2, 93412, Note_off_c, 0, 71, 64
2, 93413, Control_c, 0, 64, 127
2, 93418, Note_off_c, 0, 81, 64
2, 93421, Note_off_c, 0, 84, 64
2, 93436, Note_on_c, 0, 86, 82
2, 93457, Note_off_c, 0, 86, 64
2, 93472, Note_on_c, 0, 88, 84
2, 93473, Note_on_c, 0, 81, 81
2, 93473, Note_on_c, 0, 52, 66
2, 93475, Note_on_c, 0, 64, 68
2, 93475, Control_c, 0, 64, 56
2, 93477, Control_c, 0, 64, 0
2, 93487, Note_off_c, 0, 52, 64
2, 93488, Control_c, 0, 64, 88
2, 93491, Note_off_c, 0, 64, 64
2, 93492, Note_off_c, 0, 88, 64
2, 93492, Control_c, 0, 64, 127
2, 93497, Note_off_c, 0, 81, 64
2, 93507, Note_on_c, 0, 84, 92
2, 93523, Note_off_c, 0, 84, 64
2, 93542, Control_c, 0, 64, 104
2, 93545, Note_on_c, 0, 66, 53
2, 93546, Note_on_c, 0, 75, 72
2, 93546, Note_on_c, 0, 84, 85
2, 93546, Control_c, 0, 64, 40
2, 93548, Control_c, 0, 64, 24
2, 93550, Note_on_c, 0, 64, 51
2, 93552, Control_c, 0, 64, 40
2, 93556, Control_c, 0, 64, 88
2, 93560, Control_c, 0, 64, 127
2, 93563, Note_off_c, 0, 84, 64
2, 93567, Note_off_c, 0, 75, 64
2, 93576, Note_off_c, 0, 64, 64
2, 93577, Note_off_c, 0, 66, 64
2, 93580, Note_on_c, 0, 83, 83
2, 93597, Note_off_c, 0, 83, 64
2, 93617, Note_on_c, 0, 83, 79
2, 93617, Note_on_c, 0, 68, 48
2, 93617, Control_c, 0, 64, 88
2, 93620, Control_c, 0, 64, 24
2, 93621, Note_on_c, 0, 74, 60
2, 93622, Note_on_c, 0, 64, 46
2, 93623, Control_c, 0, 64, 0
2, 93627, Control_c, 0, 64, 40
2, 93631, Note_off_c, 0, 64, 64
2, 93631, Control_c, 0, 64, 88
2, 93632, Note_off_c, 0, 68, 64
2, 93633, Control_c, 0, 64, 127
2, 93640, Note_off_c, 0, 74, 64
2, 93645, Note_off_c, 0, 83, 64
2, 93653, Note_on_c, 0, 76, 78
2, 93667, Note_off_c, 0, 76, 64
2, 93705, Note_on_c, 0, 57, 76
2, 93705, Note_on_c, 0, 45, 75
2, 93705, Control_c, 0, 64, 88
2, 93708, Control_c, 0, 64, 0
2, 93718, Control_c, 0, 64, 40
2, 93722, Control_c, 0, 64, 127
2, 93726, Note_off_c, 0, 45, 64
2, 93736, Note_off_c, 0, 57, 64
2, 93748, Note_on_c, 0, 84, 81
2, 93750, Note_on_c, 0, 81, 74
2, 93768, Note_off_c, 0, 81, 64
2, 93770, Note_off_c, 0, 84, 64
2, 93791, Note_on_c, 0, 80, 80
2, 93792, Note_on_c, 0, 84, 78
2, 93796, Note_on_c, 0, 69, 68
2, 93796, Note_on_c, 0, 57, 63
2, 93806, Note_off_c, 0, 84, 64
2, 93812, Note_off_c, 0, 80, 64
2, 93827, Note_on_c, 0, 84, 79
2, 93827, Note_on_c, 0, 79, 73
2, 93841, Note_off_c, 0, 79, 64
2, 93845, Note_off_c, 0, 84, 64
2, 93848, Note_off_c, 0, 57, 64
2, 93851, Note_off_c, 0, 69, 64
2, 93862, Note_on_c, 0, 78, 77
2, 93862, Note_on_c, 0, 65, 58
2, 93863, Note_on_c, 0, 84, 75
2, 93867, Note_on_c, 0, 60, 49
2, 93868, Note_off_c, 0, 65, 64
2, 93875, Note_off_c, 0, 60, 64
2, 93877, Note_off_c, 0, 84, 64
2, 93880, Note_off_c, 0, 78, 64
2, 93897, Note_on_c, 0, 84, 81
2, 93897, Note_on_c, 0, 77, 84
2, 93910, Note_off_c, 0, 84, 64
2, 93913, Note_off_c, 0, 77, 64
2, 93935, Note_on_c, 0, 83, 87
2, 93936, Note_on_c, 0, 77, 81
2, 93936, Control_c, 0, 64, 72
2, 93937, Note_on_c, 0, 56, 61
2, 93938, Note_on_c, 0, 44, 59
2, 93938, Control_c, 0, 64, 0
2, 93948, Control_c, 0, 64, 127
2, 93952, Note_off_c, 0, 44, 64
2, 93952, Note_off_c, 0, 77, 64
2, 93953, Note_off_c, 0, 56, 64
2, 93953, Note_off_c, 0, 83, 64
2, 93973, Note_on_c, 0, 83, 88
2, 93975, Note_on_c, 0, 76, 79
2, 93988, Note_off_c, 0, 76, 64
2, 93990, Note_off_c, 0, 83, 64
2, 94007, Note_on_c, 0, 83, 80
2, 94007, Note_on_c, 0, 75, 81
2, 94010, Note_on_c, 0, 68, 65
2, 94013, Note_on_c, 0, 56, 53
2, 94022, Note_off_c, 0, 75, 64
2, 94023, Note_off_c, 0, 83, 64
2, 94041, Note_on_c, 0, 83, 83
2, 94042, Note_on_c, 0, 76, 82
2, 94045, Note_off_c, 0, 56, 64
2, 94048, Note_off_c, 0, 68, 64
2, 94057, Note_off_c, 0, 83, 64
2, 94058, Note_off_c, 0, 76, 64
2, 94071, Note_on_c, 0, 64, 70
2, 94075, Note_on_c, 0, 83, 82
2, 94075, Note_on_c, 0, 77, 88
2, 94075, Note_on_c, 0, 59, 54
2, 94078, Note_off_c, 0, 64, 64
2, 94086, Note_off_c, 0, 59, 64
2, 94088, Note_off_c, 0, 77, 64
2, 94091, Note_off_c, 0, 83, 64
2, 94106, Note_on_c, 0, 83, 76
2, 94107, Note_on_c, 0, 76, 82
2, 94117, Note_off_c, 0, 83, 64
2, 94118, Note_off_c, 0, 76, 64
2, 94158, Note_on_c, 0, 87, 85
2, 94160, Note_on_c, 0, 55, 77
2, 94160, Note_on_c, 0, 82, 79
2, 94160, Note_on_c, 0, 43, 70
2, 94160, Control_c, 0, 64, 72
2, 94162, Control_c, 0, 64, 0
2, 94165, Note_on_c, 0, 88, 53
2, 94170, Note_off_c, 0, 88, 64
2, 94175, Note_off_c, 0, 43, 64
2, 94176, Control_c, 0, 64, 104
2, 94180, Control_c, 0, 64, 127
2, 94182, Note_off_c, 0, 82, 64
2, 94182, Note_off_c, 0, 87, 64
2, 94183, Note_off_c, 0, 55, 64
2, 94201, Note_on_c, 0, 82, 85
2, 94202, Note_on_c, 0, 79, 84
2, 94216, Note_off_c, 0, 79, 64
2, 94218, Note_off_c, 0, 82, 64
2, 94236, Note_on_c, 0, 82, 77
2, 94236, Note_on_c, 0, 78, 73
2, 94238, Note_on_c, 0, 67, 66
2, 94241, Note_on_c, 0, 55, 63
2, 94251, Note_off_c, 0, 82, 64
2, 94252, Note_off_c, 0, 78, 64
2, 94266, Note_on_c, 0, 82, 74
2, 94266, Note_on_c, 0, 77, 81
2, 94280, Note_off_c, 0, 77, 64
2, 94282, Note_off_c, 0, 82, 64
2, 94287, Note_off_c, 0, 67, 64
2, 94291, Note_off_c, 0, 55, 64
2, 94300, Note_on_c, 0, 63, 57
2, 94301, Note_on_c, 0, 82, 86
2, 94301, Note_on_c, 0, 76, 81
2, 94302, Note_on_c, 0, 58, 45
2, 94313, Note_off_c, 0, 63, 64
2, 94315, Note_off_c, 0, 76, 64
2, 94315, Note_off_c, 0, 82, 64
2, 94318, Note_off_c, 0, 58, 64
2, 94332, Note_on_c, 0, 82, 79
2, 94335, Note_on_c, 0, 75, 78
2, 94347, Note_off_c, 0, 75, 64
2, 94348, Note_off_c, 0, 82, 64
2, 94370, Note_on_c, 0, 81, 80
2, 94370, Note_on_c, 0, 75, 73
2, 94370, Control_c, 0, 64, 56
2, 94373, Note_on_c, 0, 54, 73
2, 94373, Note_on_c, 0, 42, 57
2, 94373, Control_c, 0, 64, 0
2, 94380, Control_c, 0, 64, 24
2, 94382, Control_c, 0, 64, 72
2, 94386, Note_off_c, 0, 42, 64
2, 94386, Note_off_c, 0, 54, 64
2, 94386, Note_off_c, 0, 81, 64
2, 94387, Note_off_c, 0, 75, 64
2, 94387, Control_c, 0, 64, 127
2, 94402, Note_on_c, 0, 81, 85
2, 94403, Note_on_c, 0, 74, 83
2, 94415, Note_off_c, 0, 74, 64
2, 94420, Note_off_c, 0, 81, 64
2, 94437, Note_on_c, 0, 73, 77
2, 94437, Note_on_c, 0, 81, 77
2, 94440, Note_on_c, 0, 66, 63
2, 94441, Note_on_c, 0, 54, 59
2, 94451, Note_off_c, 0, 73, 64
2, 94455, Note_off_c, 0, 81, 64
2, 94470, Note_on_c, 0, 74, 82
2, 94471, Note_on_c, 0, 81, 80
2, 94472, Note_off_c, 0, 54, 64
2, 94473, Note_off_c, 0, 66, 64
2, 94487, Note_off_c, 0, 81, 64
2, 94487, Note_off_c, 0, 74, 64
2, 94503, Note_on_c, 0, 62, 68
2, 94505, Note_on_c, 0, 75, 78
2, 94506, Note_on_c, 0, 81, 79
2, 94506, Note_on_c, 0, 57, 53
2, 94511, Note_off_c, 0, 62, 64
2, 94516, Note_off_c, 0, 57, 64
2, 94522, Note_off_c, 0, 75, 64
2, 94525, Note_off_c, 0, 81, 64
2, 94537, Note_on_c, 0, 74, 85
2, 94558, Note_off_c, 0, 74, 64
2, 94578, Note_on_c, 0, 85, 85
2, 94578, Note_on_c, 0, 80, 75
2, 94585, Note_on_c, 0, 41, 69
2, 94586, Note_on_c, 0, 53, 76
2, 94587, Control_c, 0, 64, 24
2, 94591, Control_c, 0, 64, 0
2, 94597, Note_off_c, 0, 41, 64
2, 94597, Control_c, 0, 64, 56
2, 94601, Control_c, 0, 64, 127
2, 94602, Note_off_c, 0, 80, 64
2, 94603, Note_off_c, 0, 85, 64
2, 94606, Note_off_c, 0, 53, 64
2, 94617, Note_on_c, 0, 80, 78
2, 94621, Note_on_c, 0, 77, 79
2, 94633, Note_off_c, 0, 77, 64
2, 94637, Note_off_c, 0, 80, 64
2, 94650, Note_on_c, 0, 80, 77
2, 94652, Note_on_c, 0, 76, 73
2, 94657, Note_on_c, 0, 65, 66
2, 94658, Note_on_c, 0, 53, 66
2, 94666, Note_off_c, 0, 76, 64
2, 94668, Note_off_c, 0, 80, 64
2, 94683, Note_on_c, 0, 75, 84
2, 94683, Note_on_c, 0, 80, 79
2, 94700, Note_off_c, 0, 80, 64
2, 94700, Note_off_c, 0, 75, 64
2, 94702, Note_off_c, 0, 53, 64
2, 94703, Note_off_c, 0, 65, 64
2, 94717, Note_on_c, 0, 61, 59
2, 94718, Note_on_c, 0, 56, 51
2, 94720, Note_on_c, 0, 80, 88
2, 94721, Note_on_c, 0, 74, 70
2, 94726, Note_off_c, 0, 61, 64
2, 94727, Note_off_c, 0, 74, 64
2, 94731, Note_off_c, 0, 56, 64
2, 94736, Note_off_c, 0, 80, 64
2, 94753, Note_on_c, 0, 80, 88
2, 94755, Note_on_c, 0, 73, 80
2, 94780, Control_c, 0, 64, 56
2, 94783, Control_c, 0, 64, 0
2, 94790, Note_on_c, 0, 40, 63
2, 94791, Note_on_c, 0, 52, 71
2, 94793, Control_c, 0, 64, 56
2, 94796, Note_off_c, 0, 40, 64
2, 94797, Control_c, 0, 64, 127
2, 94801, Note_off_c, 0, 73, 64
2, 94803, Note_off_c, 0, 52, 64
2, 94815, Note_off_c, 0, 80, 64
2, 94826, Note_on_c, 0, 79, 94
2, 94857, Note_on_c, 0, 64, 73
2, 94857, Note_on_c, 0, 52, 59
2, 94867, Note_off_c, 0, 52, 64
2, 94868, Note_off_c, 0, 79, 64
2, 94871, Note_off_c, 0, 64, 64
2, 94891, Note_on_c, 0, 79, 84
2, 94893, Note_on_c, 0, 72, 71
2, 94895, Control_c, 0, 64, 88
2, 94898, Control_c, 0, 64, 24
2, 94903, Note_on_c, 0, 50, 71
2, 94908, Control_c, 0, 64, 127
2, 94911, Note_off_c, 0, 72, 64
2, 94915, Note_off_c, 0, 79, 64
2, 94917, Note_off_c, 0, 50, 64
2, 94925, Note_on_c, 0, 65, 74
2, 94937, Note_off_c, 0, 65, 64
2, 94957, Note_on_c, 0, 80, 85
2, 94960, Note_on_c, 0, 71, 67
2, 94973, Control_c, 0, 64, 40
2, 94976, Control_c, 0, 64, 0
2, 94978, Note_off_c, 0, 71, 64
2, 94980, Note_on_c, 0, 48, 55
2, 94987, Control_c, 0, 64, 88
2, 94988, Note_off_c, 0, 48, 64
2, 94991, Control_c, 0, 64, 127
2, 94993, Note_on_c, 0, 64, 82
2, 95005, Note_off_c, 0, 64, 64
2, 95011, Note_off_c, 0, 80, 64
2, 95027, Note_on_c, 0, 81, 81
2, 95028, Note_on_c, 0, 69, 73
2, 95038, Note_off_c, 0, 81, 64
2, 95045, Note_off_c, 0, 69, 64
2, 95065, Control_c, 0, 64, 88
2, 95067, Note_on_c, 0, 71, 82
2, 95068, Note_on_c, 0, 69, 70
2, 95068, Control_c, 0, 64, 0
2, 95073, Note_on_c, 0, 50, 69
2, 95073, Note_on_c, 0, 38, 55
2, 95078, Note_off_c, 0, 38, 64
2, 95082, Control_c, 0, 64, 40
2, 95083, Note_off_c, 0, 69, 64
2, 95085, Control_c, 0, 64, 127
2, 95088, Note_off_c, 0, 50, 64
2, 95090, Note_off_c, 0, 71, 64
2, 95107, Note_on_c, 0, 77, 87
2, 95110, Note_on_c, 0, 65, 58
2, 95121, Note_off_c, 0, 65, 64
2, 95133, Note_off_c, 0, 77, 64
2, 95142, Note_on_c, 0, 57, 66
2, 95142, Note_on_c, 0, 59, 64
2, 95145, Note_on_c, 0, 50, 60
2, 95148, Note_off_c, 0, 57, 64
2, 95150, Note_off_c, 0, 59, 64
2, 95158, Note_off_c, 0, 50, 64
2, 95177, Note_on_c, 0, 77, 87
2, 95180, Note_on_c, 0, 65, 77
2, 95196, Note_off_c, 0, 65, 64
2, 95198, Note_off_c, 0, 77, 64
2, 95215, Note_on_c, 0, 71, 79
2, 95215, Note_on_c, 0, 38, 67
2, 95216, Note_on_c, 0, 50, 54
2, 95217, Note_on_c, 0, 69, 66
2, 95222, Note_off_c, 0, 38, 64
2, 95225, Note_off_c, 0, 69, 64
2, 95226, Note_off_c, 0, 50, 64
2, 95237, Note_off_c, 0, 71, 64
2, 95247, Note_on_c, 0, 77, 85
2, 95250, Note_on_c, 0, 65, 72
2, 95267, Note_off_c, 0, 77, 64
2, 95270, Note_off_c, 0, 65, 64
2, 95285, Note_on_c, 0, 52, 82
2, 95285, Control_c, 0, 64, 24
2, 95286, Note_on_c, 0, 40, 68
2, 95286, Note_on_c, 0, 71, 76
2, 95287, Note_on_c, 0, 68, 62
2, 95288, Control_c, 0, 64, 0
2, 95298, Note_off_c, 0, 52, 64
2, 95298, Control_c, 0, 64, 40
2, 95302, Control_c, 0, 64, 104
2, 95303, Note_off_c, 0, 40, 64
2, 95306, Control_c, 0, 64, 127
2, 95311, Note_off_c, 0, 68, 64
2, 95313, Note_off_c, 0, 71, 64
2, 95318, Note_on_c, 0, 76, 84
2, 95321, Note_on_c, 0, 64, 66
2, 95333, Note_off_c, 0, 64, 64
2, 95335, Note_off_c, 0, 76, 64
2, 95352, Control_c, 0, 64, 0
2, 95356, Note_on_c, 0, 45, 89
2, 95356, Note_on_c, 0, 33, 70
2, 95366, Control_c, 0, 64, 56
2, 95367, Note_off_c, 0, 33, 64
2, 95370, Control_c, 0, 64, 127
2, 95375, Note_off_c, 0, 45, 64
2, 95391, Note_on_c, 0, 72, 82
2, 95393, Note_on_c, 0, 69, 70
2, 95407, Note_off_c, 0, 69, 64
2, 95410, Note_off_c, 0, 72, 64
2, 95426, Note_on_c, 0, 68, 71
2, 95426, Note_on_c, 0, 72, 68
2, 95428, Note_on_c, 0, 57, 59
2, 95430, Note_on_c, 0, 45, 63
2, 95440, Note_off_c, 0, 72, 64
2, 95445, Note_off_c, 0, 68, 64
2, 95456, Note_on_c, 0, 72, 72
2, 95456, Note_on_c, 0, 67, 70
2, 95470, Note_off_c, 0, 67, 64
2, 95472, Note_off_c, 0, 72, 64
2, 95473, Note_off_c, 0, 45, 64
2, 95476, Note_off_c, 0, 57, 64
2, 95490, Note_on_c, 0, 53, 52
2, 95491, Note_on_c, 0, 66, 71
2, 95491, Note_on_c, 0, 72, 74
2, 95493, Note_on_c, 0, 48, 55
2, 95495, Note_off_c, 0, 53, 64
2, 95500, Note_off_c, 0, 48, 64
2, 95503, Note_off_c, 0, 72, 64
2, 95506, Note_off_c, 0, 66, 64
2, 95522, Note_on_c, 0, 65, 79
2, 95523, Note_on_c, 0, 72, 82
2, 95535, Note_off_c, 0, 72, 64
2, 95535, Note_off_c, 0, 65, 64
2, 95556, Control_c, 0, 64, 24
2, 95558, Note_on_c, 0, 71, 82
2, 95560, Note_on_c, 0, 44, 80
2, 95560, Note_on_c, 0, 32, 72
2, 95560, Note_on_c, 0, 65, 71
2, 95560, Control_c, 0, 64, 0
2, 95573, Note_off_c, 0, 65, 64
2, 95573, Control_c, 0, 64, 88
2, 95575, Note_off_c, 0, 71, 64
2, 95576, Note_off_c, 0, 32, 64
2, 95577, Note_off_c, 0, 44, 64
2, 95577, Control_c, 0, 64, 127
2, 95591, Note_on_c, 0, 71, 68
2, 95592, Note_on_c, 0, 64, 70
2, 95608, Note_off_c, 0, 64, 64
2, 95610, Note_off_c, 0, 71, 64
2, 95627, Note_on_c, 0, 71, 66
2, 95627, Note_on_c, 0, 63, 68
2, 95632, Note_on_c, 0, 56, 62
2, 95632, Note_on_c, 0, 44, 61
2, 95641, Note_off_c, 0, 63, 64
2, 95641, Note_off_c, 0, 71, 64
2, 95660, Note_on_c, 0, 64, 74
2, 95660, Note_on_c, 0, 71, 67
2, 95668, Note_off_c, 0, 44, 64
2, 95672, Note_off_c, 0, 71, 64
2, 95672, Note_off_c, 0, 56, 64
2, 95673, Note_off_c, 0, 64, 64
2, 95693, Note_on_c, 0, 71, 79
2, 95693, Note_on_c, 0, 52, 66
2, 95695, Note_on_c, 0, 65, 68
2, 95697, Note_on_c, 0, 47, 51
2, 95700, Note_off_c, 0, 52, 64
2, 95706, Note_off_c, 0, 47, 64
2, 95707, Note_off_c, 0, 65, 64
2, 95713, Note_off_c, 0, 71, 64
2, 95726, Note_on_c, 0, 64, 75
2, 95746, Note_off_c, 0, 64, 64
2, 95771, Note_on_c, 0, 75, 86
2, 95771, Note_on_c, 0, 70, 77
2, 95771, Note_on_c, 0, 43, 82
2, 95771, Note_on_c, 0, 31, 70
2, 95773, Control_c, 0, 64, 56
2, 95777, Control_c, 0, 64, 0
2, 95783, Note_off_c, 0, 31, 64
2, 95791, Note_off_c, 0, 70, 64
2, 95791, Control_c, 0, 64, 88
2, 95792, Note_off_c, 0, 43, 64
2, 95793, Control_c, 0, 64, 127
2, 95797, Note_off_c, 0, 75, 64
2, 95815, Note_on_c, 0, 67, 73
2, 95815, Note_on_c, 0, 70, 69
2, 95830, Note_off_c, 0, 67, 64
2, 95832, Note_off_c, 0, 70, 64
2, 95848, Note_on_c, 0, 70, 73
2, 95850, Note_on_c, 0, 65, 60
2, 95853, Note_on_c, 0, 55, 76
2, 95855, Note_on_c, 0, 43, 64
2, 95863, Note_off_c, 0, 65, 64
2, 95866, Note_off_c, 0, 70, 64
2, 95883, Note_on_c, 0, 70, 73
2, 95888, Note_on_c, 0, 64, 61
2, 95891, Note_on_c, 0, 66, 44
2, 95893, Note_off_c, 0, 64, 64
2, 95897, Note_off_c, 0, 66, 64
2, 95901, Note_off_c, 0, 70, 64
2, 95901, Note_off_c, 0, 55, 64
2, 95902, Note_off_c, 0, 43, 64
2, 95913, Note_on_c, 0, 51, 71
2, 95917, Note_on_c, 0, 46, 57
2, 95918, Note_on_c, 0, 70, 86
2, 95918, Note_on_c, 0, 64, 78
2, 95925, Note_off_c, 0, 51, 64
2, 95931, Note_off_c, 0, 46, 64
2, 95933, Note_off_c, 0, 64, 64
2, 95933, Note_off_c, 0, 70, 64
2, 95948, Note_on_c, 0, 63, 78
2, 95948, Note_on_c, 0, 70, 73
2, 95966, Note_off_c, 0, 70, 64
2, 95967, Note_off_c, 0, 63, 64
2, 95983, Control_c, 0, 64, 104
2, 95985, Note_on_c, 0, 69, 90
2, 95986, Note_on_c, 0, 30, 60
2, 95987, Note_on_c, 0, 42, 72
2, 95987, Control_c, 0, 64, 0
2, 95988, Note_on_c, 0, 63, 56
2, 96001, Control_c, 0, 64, 40
2, 96002, Note_off_c, 0, 30, 64
2, 96002, Note_off_c, 0, 69, 64
2, 96003, Note_off_c, 0, 63, 64
2, 96005, Note_off_c, 0, 42, 64
2, 96005, Control_c, 0, 64, 127
2, 96018, Note_on_c, 0, 69, 73
2, 96018, Note_on_c, 0, 62, 72
2, 96032, Note_off_c, 0, 62, 64
2, 96036, Note_off_c, 0, 69, 64
2, 96052, Note_on_c, 0, 61, 75
2, 96055, Note_on_c, 0, 69, 71
2, 96055, Control_c, 0, 64, 56
2, 96057, Note_on_c, 0, 54, 55
2, 96062, Note_on_c, 0, 42, 51
2, 96065, Control_c, 0, 64, 127
2, 96068, Note_off_c, 0, 61, 64
2, 96070, Note_off_c, 0, 69, 64
2, 96086, Note_on_c, 0, 62, 77
2, 96087, Note_on_c, 0, 69, 72
2, 96095, Note_off_c, 0, 42, 64
2, 96095, Note_off_c, 0, 54, 64
2, 96102, Note_off_c, 0, 69, 64
2, 96102, Note_off_c, 0, 62, 64
2, 96117, Note_on_c, 0, 50, 68
2, 96121, Note_on_c, 0, 69, 77
2, 96122, Note_off_c, 0, 50, 64
2, 96122, Note_on_c, 0, 63, 71
2, 96122, Note_on_c, 0, 45, 57
2, 96128, Note_off_c, 0, 45, 64
2, 96138, Note_off_c, 0, 63, 64
2, 96140, Note_off_c, 0, 69, 64
2, 96152, Note_on_c, 0, 62, 75
2, 96172, Note_off_c, 0, 62, 64
2, 96190, Note_on_c, 0, 73, 85
2, 96190, Control_c, 0, 64, 72
2, 96191, Note_on_c, 0, 68, 72
2, 96193, Control_c, 0, 64, 0
2, 96196, Note_on_c, 0, 41, 74
2, 96196, Note_on_c, 0, 29, 62
2, 96203, Control_c, 0, 64, 56
2, 96206, Note_off_c, 0, 29, 64
2, 96207, Control_c, 0, 64, 127
2, 96212, Note_off_c, 0, 68, 64
2, 96212, Note_off_c, 0, 73, 64
2, 96215, Note_off_c, 0, 41, 64
2, 96226, Note_on_c, 0, 68, 75
2, 96227, Note_on_c, 0, 65, 75
2, 96241, Note_off_c, 0, 65, 64
2, 96246, Note_off_c, 0, 68, 64
2, 96258, Note_on_c, 0, 68, 64
2, 96260, Note_on_c, 0, 64, 70
2, 96268, Control_c, 0, 64, 88
2, 96271, Note_on_c, 0, 53, 66
2, 96272, Control_c, 0, 64, 104
2, 96275, Note_off_c, 0, 64, 64
2, 96275, Note_on_c, 0, 41, 56
2, 96275, Control_c, 0, 64, 127
2, 96280, Note_off_c, 0, 68, 64
2, 96292, Note_on_c, 0, 68, 72
2, 96293, Note_on_c, 0, 63, 75
2, 96310, Note_off_c, 0, 68, 64
2, 96311, Note_off_c, 0, 63, 64
2, 96312, Note_off_c, 0, 41, 64
2, 96312, Note_off_c, 0, 53, 64
2, 96326, Note_on_c, 0, 49, 55
2, 96327, Note_on_c, 0, 68, 81
2, 96330, Note_on_c, 0, 44, 39
2, 96331, Note_on_c, 0, 62, 60
2, 96335, Note_off_c, 0, 49, 64
2, 96336, Note_off_c, 0, 44, 64
2, 96337, Note_off_c, 0, 62, 64
2, 96346, Note_off_c, 0, 68, 64
2, 96361, Note_on_c, 0, 68, 73
2, 96363, Note_on_c, 0, 61, 69
2, 96391, Control_c, 0, 64, 88
2, 96395, Control_c, 0, 64, 0
2, 96398, Note_on_c, 0, 28, 67
2, 96400, Note_on_c, 0, 40, 82
2, 96405, Note_off_c, 0, 28, 64
2, 96405, Control_c, 0, 64, 24
2, 96407, Control_c, 0, 64, 88
2, 96411, Control_c, 0, 64, 127
2, 96412, Note_off_c, 0, 40, 64
2, 96422, Note_off_c, 0, 61, 64
2, 96423, Note_off_c, 0, 68, 64
2, 96435, Note_on_c, 0, 67, 86
2, 96458, Control_c, 0, 64, 88
2, 96461, Control_c, 0, 64, 56
2, 96465, Control_c, 0, 64, 72
2, 96467, Note_on_c, 0, 52, 82
2, 96468, Note_on_c, 0, 40, 64
2, 96468, Control_c, 0, 64, 127
2, 96480, Note_off_c, 0, 52, 64
2, 96481, Note_off_c, 0, 67, 64
2, 96481, Note_off_c, 0, 40, 64
2, 96502, Note_on_c, 0, 67, 73
2, 96502, Control_c, 0, 64, 72
2, 96505, Note_on_c, 0, 60, 66
2, 96506, Control_c, 0, 64, 0
2, 96513, Note_on_c, 0, 38, 72
2, 96520, Note_off_c, 0, 60, 64
2, 96522, Control_c, 0, 64, 104
2, 96523, Note_off_c, 0, 67, 64
2, 96526, Control_c, 0, 64, 127
2, 96530, Note_off_c, 0, 38, 64
2, 96537, Note_on_c, 0, 53, 87
2, 96550, Note_off_c, 0, 53, 64
2, 96553, Control_c, 0, 64, 88
2, 96557, Control_c, 0, 64, 56
2, 96560, Control_c, 0, 64, 88
2, 96563, Control_c, 0, 64, 127
2, 96570, Note_on_c, 0, 68, 78
2, 96573, Note_on_c, 0, 59, 68
2, 96587, Control_c, 0, 64, 104
2, 96590, Note_off_c, 0, 59, 64
2, 96591, Control_c, 0, 64, 0
2, 96592, Note_on_c, 0, 36, 74
2, 96603, Note_off_c, 0, 36, 64
2, 96603, Note_off_c, 0, 68, 64
2, 96607, Control_c, 0, 64, 72
2, 96611, Note_on_c, 0, 52, 82
2, 96611, Control_c, 0, 64, 127
2, 96622, Note_off_c, 0, 52, 64
2, 96646, Note_on_c, 0, 69, 80
2, 96650, Note_on_c, 0, 57, 59
2, 96660, Note_off_c, 0, 69, 64
2, 96666, Note_off_c, 0, 57, 64
2, 96695, Control_c, 0, 64, 0
2, 96700, Note_on_c, 0, 59, 71
2, 96702, Note_on_c, 0, 57, 66
2, 96702, Note_on_c, 0, 26, 58
2, 96702, Note_on_c, 0, 38, 67
2, 96710, Note_off_c, 0, 26, 64
2, 96712, Control_c, 0, 64, 40
2, 96716, Control_c, 0, 64, 127
2, 96720, Note_off_c, 0, 38, 64
2, 96720, Note_off_c, 0, 57, 64
2, 96727, Note_off_c, 0, 59, 64
2, 96740, Note_on_c, 0, 65, 73
2, 96745, Note_on_c, 0, 53, 55
2, 96756, Note_off_c, 0, 53, 64
2, 96766, Note_off_c, 0, 65, 64
2, 96776, Note_on_c, 0, 47, 70
2, 96776, Note_on_c, 0, 38, 56
2, 96782, Note_off_c, 0, 47, 64
2, 96788, Note_off_c, 0, 38, 64
2, 96807, Note_on_c, 0, 65, 73
2, 96811, Note_on_c, 0, 53, 62
2, 96825, Note_off_c, 0, 53, 64
2, 96831, Note_off_c, 0, 65, 64
2, 96846, Note_on_c, 0, 59, 67
2, 96847, Note_on_c, 0, 26, 59
2, 96848, Note_on_c, 0, 38, 58
2, 96848, Note_on_c, 0, 57, 63
2, 96858, Note_off_c, 0, 26, 64
2, 96861, Note_off_c, 0, 38, 64
2, 96865, Note_off_c, 0, 57, 64
2, 96872, Note_off_c, 0, 59, 64
2, 96881, Note_on_c, 0, 65, 74
2, 96886, Note_on_c, 0, 53, 64
2, 96898, Note_off_c, 0, 53, 64
2, 96903, Note_off_c, 0, 65, 64
2, 96920, Control_c, 0, 64, 104
2, 96922, Control_c, 0, 64, 24
2, 96923, Note_on_c, 0, 59, 64
2, 96923, Note_on_c, 0, 56, 57
2, 96925, Note_on_c, 0, 40, 59
2, 96926, Note_on_c, 0, 28, 45
2, 96926, Control_c, 0, 64, 0
2, 96935, Note_off_c, 0, 28, 64
2, 96940, Control_c, 0, 64, 72
2, 96942, Note_off_c, 0, 40, 64
2, 96943, Control_c, 0, 64, 127
2, 96948, Note_off_c, 0, 56, 64
2, 96955, Note_off_c, 0, 59, 64
2, 96961, Note_on_c, 0, 64, 70
2, 96967, Note_on_c, 0, 52, 51
2, 96977, Note_off_c, 0, 52, 64
2, 96982, Note_off_c, 0, 64, 64
2, 97010, Note_on_c, 0, 59, 56
2, 97011, Control_c, 0, 64, 88
2, 97012, Note_on_c, 0, 57, 45
2, 97013, Control_c, 0, 64, 0
2, 97015, Note_on_c, 0, 29, 49
2, 97016, Note_on_c, 0, 41, 55
2, 97025, Note_off_c, 0, 29, 64
2, 97028, Control_c, 0, 64, 24
2, 97031, Control_c, 0, 64, 104
2, 97032, Note_off_c, 0, 41, 64
2, 97035, Control_c, 0, 64, 127
2, 97037, Note_off_c, 0, 57, 64
2, 97038, Note_off_c, 0, 59, 64
2, 97047, Note_on_c, 0, 63, 77
2, 97048, Note_on_c, 0, 51, 54
2, 97055, Note_off_c, 0, 51, 64
2, 97058, Note_off_c, 0, 63, 64
2, 97102, Control_c, 0, 64, 104
2, 97103, Note_on_c, 0, 71, 68
2, 97105, Note_on_c, 0, 69, 63
2, 97106, Control_c, 0, 64, 40
2, 97107, Note_on_c, 0, 53, 57
2, 97107, Note_on_c, 0, 41, 54
2, 97110, Control_c, 0, 64, 0
2, 97112, Control_c, 0, 64, 24
2, 97116, Control_c, 0, 64, 72
2, 97120, Control_c, 0, 64, 127
2, 97125, Note_off_c, 0, 69, 64
2, 97126, Note_off_c, 0, 41, 64
2, 97130, Note_off_c, 0, 53, 64
2, 97130, Note_off_c, 0, 71, 64
2, 97138, Note_on_c, 0, 75, 76
2, 97140, Note_on_c, 0, 63, 57
2, 97155, Note_off_c, 0, 63, 64
2, 97162, Note_off_c, 0, 75, 64
2, 97170, Control_c, 0, 64, 72
2, 97173, Control_c, 0, 64, 56
2, 97175, Note_on_c, 0, 54, 58
2, 97175, Note_on_c, 0, 72, 73
2, 97175, Note_on_c, 0, 68, 54
2, 97177, Note_on_c, 0, 42, 49
2, 97177, Control_c, 0, 64, 72
2, 97181, Control_c, 0, 64, 127
2, 97192, Note_off_c, 0, 68, 64
2, 97197, Note_off_c, 0, 42, 64
2, 97200, Note_off_c, 0, 72, 64
2, 97202, Note_off_c, 0, 54, 64
2, 97207, Note_on_c, 0, 75, 71
2, 97210, Note_on_c, 0, 63, 62
2, 97231, Note_off_c, 0, 63, 64
2, 97232, Note_off_c, 0, 75, 64
2, 97237, Control_c, 0, 64, 72
2, 97241, Control_c, 0, 64, 0
2, 97242, Note_on_c, 0, 55, 75
2, 97243, Note_on_c, 0, 71, 82
2, 97246, Note_on_c, 0, 67, 79
2, 97246, Note_on_c, 0, 43, 64
2, 97248, Control_c, 0, 64, 24
2, 97250, Note_off_c, 0, 55, 64
2, 97252, Control_c, 0, 64, 88
2, 97255, Control_c, 0, 64, 127
2, 97257, Note_off_c, 0, 43, 64
2, 97262, Note_off_c, 0, 67, 64
2, 97275, Note_off_c, 0, 71, 64
2, 97281, Note_on_c, 0, 75, 71
2, 97283, Note_on_c, 0, 63, 52
2, 97301, Note_off_c, 0, 63, 64
2, 97306, Note_off_c, 0, 75, 64
2, 97315, Note_on_c, 0, 31, 56
2, 97316, Note_on_c, 0, 43, 59
2, 97320, Note_on_c, 0, 71, 64
2, 97322, Note_on_c, 0, 67, 40
2, 97323, Note_off_c, 0, 31, 64
2, 97331, Note_off_c, 0, 43, 64
2, 97332, Note_off_c, 0, 67, 64
2, 97342, Note_off_c, 0, 71, 64
2, 97351, Note_on_c, 0, 75, 70
2, 97355, Note_on_c, 0, 63, 51
2, 97373, Note_off_c, 0, 63, 64
2, 97377, Note_off_c, 0, 75, 64
2, 97391, Note_on_c, 0, 71, 64
2, 97391, Note_on_c, 0, 55, 58
2, 97391, Control_c, 0, 64, 88
2, 97392, Note_on_c, 0, 43, 58
2, 97393, Note_on_c, 0, 67, 46
2, 97396, Note_off_c, 0, 55, 64
2, 97401, Control_c, 0, 64, 127
2, 97405, Note_off_c, 0, 43, 64
2, 97408, Note_off_c, 0, 67, 64
2, 97413, Note_off_c, 0, 71, 64
2, 97423, Note_on_c, 0, 74, 70
2, 97426, Note_on_c, 0, 62, 60
2, 97428, Note_off_c, 0, 74, 64
2, 97435, Note_off_c, 0, 62, 64
2, 97465, Control_c, 0, 64, 104
2, 97467, Note_on_c, 0, 31, 66
2, 97467, Note_on_c, 0, 43, 74
2, 97468, Note_on_c, 0, 61, 67
2, 97468, Control_c, 0, 64, 0
2, 97475, Note_on_c, 0, 59, 45
2, 97476, Note_on_c, 0, 60, 44
2, 97480, Note_off_c, 0, 31, 64
2, 97482, Note_off_c, 0, 60, 64
2, 97482, Control_c, 0, 64, 88
2, 97485, Note_off_c, 0, 43, 64
2, 97486, Note_off_c, 0, 59, 64
2, 97486, Control_c, 0, 64, 127
2, 97495, Note_off_c, 0, 61, 64
2, 97501, Note_on_c, 0, 53, 67
2, 97502, Note_on_c, 0, 65, 82
2, 97507, Note_off_c, 0, 53, 64
2, 97516, Note_off_c, 0, 65, 64
2, 97543, Note_on_c, 0, 73, 86
2, 97546, Note_on_c, 0, 71, 70
2, 97547, Note_on_c, 0, 55, 66
2, 97547, Note_on_c, 0, 43, 63
2, 97552, Note_off_c, 0, 71, 64
2, 97563, Note_off_c, 0, 43, 64
2, 97566, Note_off_c, 0, 55, 64
2, 97568, Note_off_c, 0, 73, 64
2, 97577, Note_on_c, 0, 77, 96
2, 97578, Note_on_c, 0, 65, 82
2, 97597, Note_off_c, 0, 65, 64
2, 97602, Note_off_c, 0, 77, 64
2, 97611, Note_on_c, 0, 74, 84
2, 97613, Note_on_c, 0, 56, 79
2, 97615, Note_on_c, 0, 70, 65
2, 97616, Note_on_c, 0, 44, 58
2, 97630, Note_off_c, 0, 44, 64
2, 97635, Note_off_c, 0, 70, 64
2, 97640, Note_off_c, 0, 74, 64
2, 97645, Note_on_c, 0, 77, 89
2, 97646, Note_on_c, 0, 65, 79
2, 97650, Note_off_c, 0, 56, 64
2, 97668, Note_off_c, 0, 65, 64
2, 97671, Note_off_c, 0, 77, 64
2, 97678, Control_c, 0, 64, 104
2, 97682, Control_c, 0, 64, 0
2, 97683, Note_on_c, 0, 73, 84
2, 97685, Note_on_c, 0, 69, 84
2, 97686, Note_on_c, 0, 57, 83
2, 97687, Note_on_c, 0, 45, 72
2, 97696, Control_c, 0, 64, 56
2, 97697, Note_off_c, 0, 57, 64
2, 97698, Control_c, 0, 64, 127
2, 97701, Note_off_c, 0, 45, 64
2, 97705, Note_off_c, 0, 69, 64
2, 97713, Note_off_c, 0, 73, 64
2, 97718, Note_on_c, 0, 77, 90
2, 97720, Note_on_c, 0, 65, 73
2, 97738, Note_off_c, 0, 65, 64
2, 97742, Note_off_c, 0, 77, 64
2, 97755, Note_on_c, 0, 73, 73
2, 97756, Note_on_c, 0, 69, 70
2, 97756, Note_on_c, 0, 45, 68
2, 97757, Note_on_c, 0, 33, 53
2, 97762, Note_off_c, 0, 33, 64
2, 97772, Note_off_c, 0, 45, 64
2, 97773, Note_off_c, 0, 69, 64
2, 97782, Note_off_c, 0, 73, 64
2, 97787, Note_on_c, 0, 77, 82
2, 97790, Note_on_c, 0, 65, 63
2, 97810, Note_off_c, 0, 77, 64
2, 97815, Note_off_c, 0, 65, 64
2, 97825, Note_on_c, 0, 73, 72
2, 97827, Note_on_c, 0, 69, 66
2, 97827, Note_on_c, 0, 57, 65
2, 97830, Note_on_c, 0, 45, 56
2, 97832, Note_off_c, 0, 57, 64
2, 97838, Note_off_c, 0, 45, 64
2, 97848, Note_off_c, 0, 69, 64
2, 97852, Note_off_c, 0, 73, 64
2, 97857, Note_on_c, 0, 76, 82
2, 97860, Note_on_c, 0, 64, 70
2, 97872, Note_off_c, 0, 76, 64
2, 97875, Note_off_c, 0, 64, 64
2, 97910, Control_c, 0, 64, 88
2, 97911, Note_on_c, 0, 63, 65
2, 97912, Note_on_c, 0, 33, 53
2, 97912, Note_on_c, 0, 45, 64
2, 97912, Note_on_c, 0, 61, 62
2, 97912, Control_c, 0, 64, 0
2, 97925, Note_off_c, 0, 33, 64
2, 97926, Control_c, 0, 64, 72
2, 97930, Control_c, 0, 64, 127
2, 97933, Note_off_c, 0, 45, 64
2, 97935, Note_off_c, 0, 61, 64
2, 97936, Note_off_c, 0, 63, 64
2, 97945, Note_on_c, 0, 55, 59
2, 97945, Note_on_c, 0, 67, 77
2, 97950, Note_off_c, 0, 55, 64
2, 97960, Note_off_c, 0, 67, 64
2, 97991, Note_on_c, 0, 75, 84
2, 97992, Note_on_c, 0, 73, 70
2, 97997, Note_on_c, 0, 57, 55
2, 98000, Note_on_c, 0, 45, 57
2, 98011, Note_off_c, 0, 73, 64
2, 98016, Note_off_c, 0, 45, 64
2, 98016, Note_off_c, 0, 75, 64
2, 98025, Note_on_c, 0, 79, 87
2, 98026, Note_off_c, 0, 57, 64
2, 98026, Note_on_c, 0, 67, 74
2, 98046, Note_off_c, 0, 67, 64
2, 98048, Note_off_c, 0, 79, 64
2, 98060, Note_on_c, 0, 76, 87
2, 98061, Note_on_c, 0, 58, 67
2, 98061, Note_on_c, 0, 72, 81
2, 98063, Note_on_c, 0, 46, 59
2, 98076, Note_off_c, 0, 72, 64
2, 98080, Note_off_c, 0, 46, 64
2, 98086, Note_off_c, 0, 76, 64
2, 98095, Note_on_c, 0, 79, 87
2, 98096, Note_off_c, 0, 58, 64
2, 98096, Note_on_c, 0, 67, 66
2, 98113, Note_off_c, 0, 67, 64
2, 98115, Note_off_c, 0, 79, 64
2, 98126, Control_c, 0, 64, 56
2, 98128, Note_on_c, 0, 59, 71
2, 98128, Note_on_c, 0, 76, 81
2, 98130, Note_on_c, 0, 71, 76
2, 98130, Note_on_c, 0, 47, 62
2, 98130, Control_c, 0, 64, 40
2, 98133, Control_c, 0, 64, 72
2, 98136, Control_c, 0, 64, 127
2, 98146, Note_off_c, 0, 47, 64
2, 98148, Note_off_c, 0, 71, 64
2, 98151, Note_off_c, 0, 76, 64
2, 98152, Note_off_c, 0, 59, 64
2, 98158, Note_on_c, 0, 79, 83
2, 98158, Note_on_c, 0, 67, 74
2, 98167, Note_off_c, 0, 67, 64
2, 98176, Note_off_c, 0, 79, 64
2, 98195, Note_on_c, 0, 78, 86
2, 98196, Note_on_c, 0, 76, 83
2, 98201, Note_on_c, 0, 60, 66
2, 98202, Note_on_c, 0, 48, 62
2, 98205, Control_c, 0, 64, 72
2, 98210, Note_off_c, 0, 76, 64
2, 98211, Control_c, 0, 64, 104
2, 98215, Control_c, 0, 64, 127
2, 98217, Note_off_c, 0, 48, 64
2, 98220, Note_off_c, 0, 78, 64
2, 98228, Note_off_c, 0, 60, 64
2, 98232, Note_on_c, 0, 82, 84
2, 98235, Note_on_c, 0, 70, 77
2, 98248, Note_off_c, 0, 70, 64
2, 98250, Note_off_c, 0, 82, 64
2, 98263, Note_on_c, 0, 61, 76
2, 98265, Note_on_c, 0, 79, 85
2, 98265, Note_on_c, 0, 75, 75
2, 98266, Note_on_c, 0, 49, 67
2, 98266, Control_c, 0, 64, 88
2, 98276, Control_c, 0, 64, 127
2, 98283, Note_off_c, 0, 75, 64
2, 98286, Note_off_c, 0, 49, 64
2, 98291, Note_off_c, 0, 79, 64
2, 98295, Note_off_c, 0, 61, 64
2, 98298, Note_on_c, 0, 82, 77
2, 98300, Note_on_c, 0, 70, 71
2, 98316, Note_off_c, 0, 70, 64
2, 98321, Note_off_c, 0, 82, 64
2, 98330, Control_c, 0, 64, 72
2, 98332, Note_on_c, 0, 78, 81
2, 98333, Note_on_c, 0, 74, 76
2, 98333, Note_on_c, 0, 50, 68
2, 98333, Note_on_c, 0, 62, 73
2, 98333, Control_c, 0, 64, 24
2, 98340, Control_c, 0, 64, 72
2, 98341, Note_off_c, 0, 50, 64
2, 98343, Control_c, 0, 64, 127
2, 98351, Note_off_c, 0, 74, 64
2, 98352, Note_off_c, 0, 62, 64
2, 98361, Note_off_c, 0, 78, 64
2, 98366, Note_on_c, 0, 83, 81
2, 98368, Note_on_c, 0, 71, 66
2, 98382, Note_off_c, 0, 71, 64
2, 98392, Note_off_c, 0, 83, 64
2, 98397, Control_c, 0, 64, 72
2, 98401, Note_on_c, 0, 51, 67
2, 98401, Note_on_c, 0, 63, 68
2, 98401, Control_c, 0, 64, 0
2, 98402, Note_on_c, 0, 81, 84
2, 98403, Note_on_c, 0, 77, 85
2, 98405, Note_on_c, 0, 60, 60
2, 98408, Note_on_c, 0, 57, 38
2, 98408, Control_c, 0, 64, 24
2, 98411, Control_c, 0, 64, 88
2, 98415, Control_c, 0, 64, 127
2, 98420, Note_off_c, 0, 51, 64
2, 98421, Note_off_c, 0, 57, 64
2, 98423, Note_off_c, 0, 77, 64
2, 98425, Note_off_c, 0, 60, 64
2, 98427, Note_off_c, 0, 81, 64
2, 98435, Note_on_c, 0, 84, 87
2, 98437, Note_on_c, 0, 72, 74
2, 98441, Note_off_c, 0, 63, 64
2, 98451, Note_off_c, 0, 72, 64
2, 98458, Note_off_c, 0, 84, 64
2, 98468, Control_c, 0, 64, 88
2, 98470, Note_on_c, 0, 81, 79
2, 98470, Note_on_c, 0, 64, 67
2, 98471, Note_on_c, 0, 60, 62
2, 98471, Note_on_c, 0, 52, 55
2, 98472, Note_on_c, 0, 76, 66
2, 98472, Control_c, 0, 64, 56
2, 98473, Note_on_c, 0, 57, 53
2, 98476, Control_c, 0, 64, 72
2, 98478, Control_c, 0, 64, 127
2, 98482, Note_off_c, 0, 76, 64
2, 98483, Note_off_c, 0, 52, 64
2, 98493, Note_off_c, 0, 57, 64
2, 98493, Note_off_c, 0, 60, 64
2, 98497, Note_off_c, 0, 81, 64
2, 98498, Note_off_c, 0, 64, 64
2, 98506, Note_on_c, 0, 84, 87
2, 98507, Note_on_c, 0, 72, 77
2, 98526, Note_off_c, 0, 72, 64
2, 98530, Note_off_c, 0, 84, 64
2, 98540, Control_c, 0, 64, 104
2, 98541, Note_on_c, 0, 81, 82
2, 98541, Note_on_c, 0, 65, 75
2, 98542, Note_on_c, 0, 75, 77
2, 98542, Note_on_c, 0, 60, 74
2, 98543, Note_on_c, 0, 53, 60
2, 98543, Note_on_c, 0, 57, 58
2, 98543, Control_c, 0, 64, 40
2, 98550, Note_off_c, 0, 53, 64
2, 98553, Control_c, 0, 64, 127
2, 98558, Note_off_c, 0, 65, 64
2, 98561, Note_off_c, 0, 57, 64
2, 98561, Note_off_c, 0, 60, 64
2, 98566, Note_off_c, 0, 75, 64
2, 98566, Note_off_c, 0, 81, 64
2, 98576, Note_on_c, 0, 84, 99
2, 98576, Note_on_c, 0, 72, 82
2, 98585, Note_off_c, 0, 72, 64
2, 98593, Note_off_c, 0, 84, 64
2, 98620, Note_on_c, 0, 66, 84
2, 98621, Note_on_c, 0, 57, 64
2, 98622, Note_on_c, 0, 54, 58
2, 98622, Note_on_c, 0, 59, 68
2, 98622, Note_on_c, 0, 83, 88
2, 98622, Control_c, 0, 64, 72
2, 98625, Note_on_c, 0, 81, 81
2, 98625, Control_c, 0, 64, 0
2, 98635, Control_c, 0, 64, 72
2, 98638, Control_c, 0, 64, 127
2, 98641, Note_off_c, 0, 81, 64
2, 98646, Note_off_c, 0, 54, 64
2, 98650, Note_off_c, 0, 83, 64
2, 98652, Note_off_c, 0, 57, 64
2, 98652, Note_off_c, 0, 59, 64
2, 98660, Note_on_c, 0, 75, 85
2, 98660, Note_on_c, 0, 87, 90
2, 98662, Note_off_c, 0, 66, 64
2, 98680, Note_off_c, 0, 75, 64
2, 98685, Note_off_c, 0, 87, 64
2, 98696, Control_c, 0, 64, 56
2, 98698, Control_c, 0, 64, 0
2, 98701, Note_on_c, 0, 65, 86
2, 98701, Note_on_c, 0, 84, 85
2, 98701, Note_on_c, 0, 60, 51
2, 98702, Note_on_c, 0, 57, 64
2, 98702, Note_on_c, 0, 81, 78
2, 98702, Note_on_c, 0, 53, 71
2, 98710, Control_c, 0, 64, 72
2, 98712, Control_c, 0, 64, 127
2, 98717, Note_off_c, 0, 65, 64
2, 98718, Note_off_c, 0, 53, 64
2, 98718, Note_off_c, 0, 81, 64
2, 98718, Note_off_c, 0, 60, 64
2, 98721, Note_off_c, 0, 57, 64
2, 98736, Note_off_c, 0, 84, 64
2, 98745, Note_on_c, 0, 87, 89
2, 98745, Note_on_c, 0, 75, 87
2, 98755, Note_off_c, 0, 75, 64
2, 98761, Note_off_c, 0, 87, 64
2, 98796, Note_on_c, 0, 96, 96
2, 98796, Note_on_c, 0, 89, 83
2, 98796, Note_on_c, 0, 93, 88
2, 98797, Note_on_c, 0, 28, 68
2, 98798, Note_on_c, 0, 40, 69
2, 98806, Control_c, 0, 64, 40
2, 98808, Control_c, 0, 64, 104
2, 98812, Control_c, 0, 64, 127
2, 98823, Note_off_c, 0, 28, 64
2, 98831, Note_off_c, 0, 40, 64
2, 98833, Note_off_c, 0, 96, 64
2, 98836, Note_off_c, 0, 89, 64
2, 98837, Note_off_c, 0, 93, 64
2, 98838, Note_on_c, 0, 88, 93
2, 98866, Note_off_c, 0, 88, 64
2, 98880, Note_on_c, 0, 93, 89
2, 98880, Note_on_c, 0, 86, 82
2, 98880, Control_c, 0, 64, 72
2, 98881, Note_on_c, 0, 89, 84
2, 98882, Note_on_c, 0, 45, 67
2, 98883, Note_on_c, 0, 33, 53
2, 98883, Control_c, 0, 64, 0
2, 98893, Control_c, 0, 64, 56
2, 98897, Control_c, 0, 64, 104
2, 98900, Control_c, 0, 64, 127
2, 98901, Note_off_c, 0, 33, 64
2, 98905, Note_off_c, 0, 45, 64
2, 98907, Note_off_c, 0, 93, 64
2, 98910, Note_off_c, 0, 86, 64
2, 98912, Note_off_c, 0, 89, 64
2, 98915, Note_on_c, 0, 84, 87
2, 98937, Note_off_c, 0, 84, 64
2, 98937, Note_on_c, 0, 85, 25
2, 98942, Note_off_c, 0, 85, 64
2, 98950, Note_on_c, 0, 89, 94
2, 98951, Note_on_c, 0, 86, 89
2, 98951, Note_on_c, 0, 83, 86
2, 98952, Control_c, 0, 64, 56
2, 98955, Control_c, 0, 64, 0
2, 98956, Note_on_c, 0, 47, 60
2, 98957, Note_on_c, 0, 35, 65
2, 98966, Control_c, 0, 64, 56
2, 98968, Note_off_c, 0, 35, 64
2, 98968, Control_c, 0, 64, 127
2, 98972, Note_off_c, 0, 47, 64
2, 98978, Note_off_c, 0, 83, 64
2, 98978, Note_off_c, 0, 89, 64
2, 98981, Note_off_c, 0, 86, 64
2, 98985, Note_on_c, 0, 81, 84
2, 99006, Note_off_c, 0, 81, 64
2, 99017, Control_c, 0, 64, 40
2, 99018, Note_on_c, 0, 86, 86
2, 99020, Note_on_c, 0, 79, 83
2, 99020, Note_on_c, 0, 83, 82
2, 99021, Note_on_c, 0, 50, 80
2, 99021, Note_on_c, 0, 38, 66
2, 99021, Control_c, 0, 64, 0
2, 99031, Note_off_c, 0, 38, 64
2, 99031, Control_c, 0, 64, 40
2, 99035, Note_off_c, 0, 50, 64
2, 99035, Control_c, 0, 64, 104
2, 99037, Control_c, 0, 64, 127
2, 99043, Note_off_c, 0, 86, 64
2, 99048, Note_off_c, 0, 79, 64
2, 99051, Note_off_c, 0, 83, 64
2, 99053, Note_on_c, 0, 77, 83
2, 99072, Note_off_c, 0, 77, 64
2, 99086, Control_c, 0, 64, 88
2, 99088, Note_on_c, 0, 83, 84
2, 99088, Note_on_c, 0, 80, 77
2, 99090, Note_on_c, 0, 53, 82
2, 99090, Note_on_c, 0, 76, 77
2, 99090, Note_on_c, 0, 41, 69
2, 99090, Control_c, 0, 64, 0
2, 99100, Control_c, 0, 64, 24
2, 99102, Control_c, 0, 64, 72
2, 99106, Control_c, 0, 64, 127
2, 99107, Note_off_c, 0, 41, 64
2, 99110, Note_off_c, 0, 53, 64
2, 99111, Note_off_c, 0, 83, 64
2, 99112, Note_off_c, 0, 76, 64
2, 99118, Note_off_c, 0, 80, 64
2, 99123, Note_on_c, 0, 74, 78
2, 99140, Note_off_c, 0, 74, 64
2, 99157, Control_c, 0, 64, 56
2, 99160, Note_on_c, 0, 52, 74
2, 99160, Note_on_c, 0, 80, 78
2, 99161, Note_on_c, 0, 40, 66
2, 99161, Note_on_c, 0, 76, 64
2, 99161, Control_c, 0, 64, 0
2, 99163, Note_on_c, 0, 72, 62
2, 99171, Note_off_c, 0, 52, 64
2, 99171, Control_c, 0, 64, 40
2, 99173, Control_c, 0, 64, 104
2, 99175, Note_off_c, 0, 40, 64
2, 99177, Control_c, 0, 64, 127
2, 99182, Note_off_c, 0, 72, 64
2, 99187, Note_off_c, 0, 80, 64
2, 99188, Note_off_c, 0, 76, 64
2, 99192, Note_on_c, 0, 71, 81
2, 99201, Note_off_c, 0, 71, 64
2, 99237, Control_c, 0, 64, 88
2, 99240, Control_c, 0, 64, 24
2, 99242, Note_on_c, 0, 28, 78
2, 99242, Control_c, 0, 64, 0
2, 99243, Note_on_c, 0, 96, 103
2, 99243, Note_on_c, 0, 40, 86
2, 99243, Note_on_c, 0, 89, 89
2, 99243, Note_on_c, 0, 93, 93
2, 99256, Control_c, 0, 64, 40
2, 99258, Note_off_c, 0, 28, 64
2, 99258, Control_c, 0, 64, 127
2, 99267, Note_off_c, 0, 40, 64
2, 99271, Note_off_c, 0, 89, 64
2, 99271, Note_off_c, 0, 96, 64
2, 99275, Note_off_c, 0, 93, 64
2, 99277, Note_on_c, 0, 88, 86
2, 99301, Note_off_c, 0, 88, 64
2, 99313, Note_on_c, 0, 93, 96
2, 99313, Control_c, 0, 64, 40
2, 99315, Note_on_c, 0, 86, 85
2, 99315, Note_on_c, 0, 89, 81
2, 99315, Note_on_c, 0, 45, 82
2, 99316, Note_on_c, 0, 33, 66
2, 99317, Control_c, 0, 64, 0
2, 99325, Control_c, 0, 64, 56
2, 99326, Note_off_c, 0, 33, 64
2, 99327, Control_c, 0, 64, 127
2, 99330, Note_off_c, 0, 45, 64
2, 99337, Note_off_c, 0, 93, 64
2, 99340, Note_off_c, 0, 86, 64
2, 99342, Note_off_c, 0, 89, 64
2, 99346, Note_on_c, 0, 84, 82
2, 99365, Note_off_c, 0, 84, 64
2, 99377, Control_c, 0, 64, 40
2, 99380, Control_c, 0, 64, 0
2, 99381, Note_on_c, 0, 47, 82
2, 99381, Note_on_c, 0, 35, 70
2, 99382, Note_on_c, 0, 89, 90
2, 99382, Note_on_c, 0, 83, 82
2, 99383, Note_on_c, 0, 86, 79
2, 99388, Control_c, 0, 64, 40
2, 99391, Note_off_c, 0, 35, 64
2, 99391, Control_c, 0, 64, 104
2, 99393, Control_c, 0, 64, 127
2, 99395, Note_off_c, 0, 47, 64
2, 99405, Note_off_c, 0, 89, 64
2, 99407, Note_off_c, 0, 83, 64
2, 99411, Note_off_c, 0, 86, 64
2, 99416, Note_on_c, 0, 81, 81
2, 99433, Note_off_c, 0, 81, 64
2, 99448, Control_c, 0, 64, 56
2, 99450, Note_on_c, 0, 86, 85
2, 99451, Note_on_c, 0, 79, 81
2, 99451, Control_c, 0, 64, 0
2, 99452, Note_on_c, 0, 50, 79
2, 99452, Note_on_c, 0, 83, 74
2, 99452, Note_on_c, 0, 38, 65
2, 99460, Control_c, 0, 64, 40
2, 99462, Control_c, 0, 64, 104
2, 99463, Note_off_c, 0, 38, 64
2, 99465, Control_c, 0, 64, 127
2, 99470, Note_off_c, 0, 50, 64
2, 99475, Note_off_c, 0, 86, 64
2, 99476, Note_off_c, 0, 79, 64
2, 99478, Note_off_c, 0, 83, 64
2, 99483, Note_on_c, 0, 77, 81
2, 99502, Note_off_c, 0, 77, 64
2, 99517, Control_c, 0, 64, 56
2, 99518, Note_on_c, 0, 83, 85
2, 99520, Note_on_c, 0, 80, 70
2, 99520, Note_on_c, 0, 53, 80
2, 99520, Note_on_c, 0, 76, 74
2, 99520, Control_c, 0, 64, 0
2, 99521, Note_on_c, 0, 41, 67
2, 99533, Control_c, 0, 64, 72
2, 99536, Control_c, 0, 64, 127
2, 99541, Note_off_c, 0, 83, 64
2, 99542, Note_off_c, 0, 41, 64
2, 99543, Note_off_c, 0, 76, 64
2, 99545, Note_off_c, 0, 53, 64
2, 99547, Note_off_c, 0, 80, 64
2, 99551, Note_on_c, 0, 74, 72
2, 99567, Note_off_c, 0, 74, 64
2, 99583, Control_c, 0, 64, 56
2, 99586, Control_c, 0, 64, 0
2, 99587, Note_on_c, 0, 80, 83
2, 99588, Note_on_c, 0, 72, 79
2, 99588, Note_on_c, 0, 76, 76
2, 99590, Note_on_c, 0, 52, 70
2, 99591, Note_on_c, 0, 40, 58
2, 99597, Control_c, 0, 64, 72
2, 99600, Control_c, 0, 64, 127
2, 99606, Note_off_c, 0, 40, 64
2, 99606, Note_off_c, 0, 52, 64
2, 99611, Note_off_c, 0, 72, 64
2, 99618, Note_off_c, 0, 76, 64
2, 99620, Note_off_c, 0, 80, 64
2, 99623, Note_on_c, 0, 71, 87
2, 99641, Note_off_c, 0, 71, 64
2, 99652, Control_c, 0, 64, 72
2, 99655, Control_c, 0, 64, 0
2, 99660, Note_on_c, 0, 71, 94
2, 99661, Note_on_c, 0, 39, 63
2, 99662, Note_on_c, 0, 51, 71
2, 99667, Control_c, 0, 64, 88
2, 99671, Note_off_c, 0, 39, 64
2, 99671, Control_c, 0, 64, 127
2, 99673, Note_off_c, 0, 51, 64
2, 99687, Note_off_c, 0, 71, 64
2, 99692, Note_on_c, 0, 78, 38
2, 99692, Note_on_c, 0, 83, 78
2, 99695, Note_on_c, 0, 81, 63
2, 99697, Note_off_c, 0, 78, 64
2, 99700, Note_off_c, 0, 83, 64
2, 99702, Note_off_c, 0, 81, 64
2, 99726, Note_on_c, 0, 83, 96
2, 99727, Note_on_c, 0, 66, 73
2, 99731, Note_on_c, 0, 59, 51
2, 99731, Note_on_c, 0, 57, 44
2, 99738, Note_off_c, 0, 57, 64
2, 99753, Note_off_c, 0, 83, 64
2, 99761, Note_on_c, 0, 95, 85
2, 99762, Note_on_c, 0, 57, 1
2, 99763, Note_on_c, 0, 93, 77
2, 99763, Note_on_c, 0, 90, 64
2, 99782, Note_off_c, 0, 66, 64
2, 99786, Note_off_c, 0, 59, 64
2, 99787, Note_off_c, 0, 95, 64
2, 99788, Note_off_c, 0, 57, 64
2, 99790, Note_off_c, 0, 93, 64
2, 99791, Note_off_c, 0, 90, 64
2, 99792, Note_on_c, 0, 83, 86
2, 99800, Note_off_c, 0, 83, 64
2, 99822, Note_on_c, 0, 83, 74
2, 99826, Note_on_c, 0, 78, 57
2, 99840, Note_off_c, 0, 83, 64
2, 99848, Note_off_c, 0, 78, 64
2, 99855, Control_c, 0, 64, 40
2, 99856, Note_on_c, 0, 72, 100
2, 99857, Control_c, 0, 64, 0
2, 99858, Note_on_c, 0, 39, 63
2, 99860, Note_on_c, 0, 51, 71
2, 99866, Note_off_c, 0, 39, 64
2, 99868, Note_off_c, 0, 51, 64
2, 99868, Control_c, 0, 64, 56
2, 99871, Control_c, 0, 64, 127
2, 99882, Note_off_c, 0, 72, 64
2, 99885, Note_on_c, 0, 78, 52
2, 99887, Note_on_c, 0, 84, 80
2, 99890, Note_on_c, 0, 81, 60
2, 99895, Note_off_c, 0, 81, 64
2, 99895, Note_off_c, 0, 78, 64
2, 99897, Note_off_c, 0, 84, 64
2, 99921, Note_on_c, 0, 84, 107
2, 99921, Note_on_c, 0, 66, 69
2, 99922, Note_on_c, 0, 57, 66
2, 99923, Note_on_c, 0, 60, 62
2, 99951, Note_off_c, 0, 84, 64
2, 99955, Note_on_c, 0, 96, 96
2, 99956, Note_on_c, 0, 93, 87
2, 99956, Note_on_c, 0, 90, 74
2, 99981, Note_off_c, 0, 96, 64
2, 99987, Note_off_c, 0, 90, 64
2, 99987, Note_off_c, 0, 93, 64
2, 99987, Note_off_c, 0, 57, 64
2, 99987, Note_on_c, 0, 84, 87
2, 99988, Note_off_c, 0, 66, 64
2, 99990, Note_off_c, 0, 60, 64
2, 99997, Note_off_c, 0, 84, 64
2, 100018, Note_on_c, 0, 84, 83
2, 100021, Note_on_c, 0, 78, 74
2, 100021, Note_on_c, 0, 81, 62
2, 100036, Note_off_c, 0, 81, 64
2, 100037, Note_off_c, 0, 84, 64
2, 100048, Note_off_c, 0, 78, 64
2, 100052, Control_c, 0, 64, 72
2, 100053, Note_on_c, 0, 72, 102
2, 100055, Control_c, 0, 64, 0
2, 100057, Note_on_c, 0, 40, 64
2, 100058, Note_on_c, 0, 52, 68
2, 100062, Note_off_c, 0, 40, 64
2, 100066, Control_c, 0, 64, 40
2, 100068, Control_c, 0, 64, 127
2, 100070, Note_off_c, 0, 52, 64
2, 100081, Note_off_c, 0, 72, 64
2, 100087, Note_on_c, 0, 76, 63
2, 100090, Note_on_c, 0, 84, 86
2, 100090, Note_on_c, 0, 81, 70
2, 100096, Note_off_c, 0, 76, 64
2, 100101, Note_off_c, 0, 81, 64
2, 100105, Note_off_c, 0, 84, 64
2, 100121, Note_on_c, 0, 84, 102
2, 100121, Note_on_c, 0, 69, 73
2, 100122, Note_on_c, 0, 60, 55
2, 100122, Note_on_c, 0, 64, 66
2, 100147, Note_off_c, 0, 84, 64
2, 100155, Note_on_c, 0, 96, 85
2, 100155, Note_on_c, 0, 88, 78
2, 100156, Note_on_c, 0, 93, 79
2, 100172, Note_off_c, 0, 69, 64
2, 100175, Note_off_c, 0, 60, 64
2, 100176, Note_on_c, 0, 92, 32
2, 100178, Note_off_c, 0, 64, 64
2, 100180, Note_off_c, 0, 96, 64
2, 100182, Note_off_c, 0, 88, 64
2, 100183, Note_off_c, 0, 92, 64
2, 100186, Note_off_c, 0, 93, 64
2, 100187, Note_on_c, 0, 84, 75
2, 100195, Note_off_c, 0, 84, 64
2, 100218, Note_on_c, 0, 84, 84
2, 100220, Note_on_c, 0, 76, 83
2, 100222, Note_on_c, 0, 81, 66
2, 100231, Note_off_c, 0, 76, 64
2, 100235, Note_off_c, 0, 84, 64
2, 100240, Note_off_c, 0, 81, 64
2, 100256, Note_on_c, 0, 71, 97
2, 100256, Control_c, 0, 64, 72
2, 100257, Note_on_c, 0, 40, 65
2, 100258, Control_c, 0, 64, 0
2, 100261, Note_on_c, 0, 52, 63
2, 100270, Note_off_c, 0, 40, 64
2, 100272, Control_c, 0, 64, 104
2, 100275, Note_off_c, 0, 52, 64
2, 100275, Control_c, 0, 64, 127
2, 100280, Note_off_c, 0, 71, 64
2, 100286, Note_on_c, 0, 76, 33
2, 100286, Note_on_c, 0, 80, 63
2, 100288, Note_on_c, 0, 83, 82
2, 100292, Note_off_c, 0, 76, 64
2, 100298, Note_off_c, 0, 80, 64
2, 100300, Note_off_c, 0, 83, 64
2, 100320, Note_on_c, 0, 83, 97
2, 100321, Note_on_c, 0, 68, 65
2, 100322, Note_on_c, 0, 59, 62
2, 100323, Note_on_c, 0, 64, 59
2, 100345, Note_off_c, 0, 83, 64
2, 100353, Note_on_c, 0, 95, 88
2, 100353, Note_on_c, 0, 92, 77
2, 100353, Note_on_c, 0, 88, 74
2, 100381, Note_off_c, 0, 95, 64
2, 100385, Note_off_c, 0, 88, 64
2, 100386, Note_off_c, 0, 64, 64
2, 100387, Note_off_c, 0, 68, 64
2, 100388, Note_off_c, 0, 92, 64
2, 100390, Note_on_c, 0, 83, 80
2, 100391, Note_off_c, 0, 59, 64
2, 100398, Note_off_c, 0, 83, 64
2, 100430, Note_on_c, 0, 83, 84
2, 100431, Note_on_c, 0, 76, 82
2, 100432, Note_on_c, 0, 80, 73
2, 100440, Note_off_c, 0, 76, 64
2, 100445, Note_off_c, 0, 80, 64
2, 100446, Note_off_c, 0, 83, 64
2, 100483, Note_on_c, 0, 100, 94
2, 100483, Note_on_c, 0, 33, 78
2, 100483, Control_c, 0, 64, 24
2, 100485, Note_on_c, 0, 96, 89
2, 100485, Note_on_c, 0, 93, 87
2, 100486, Note_on_c, 0, 45, 82
2, 100486, Control_c, 0, 64, 0
2, 100496, Note_off_c, 0, 33, 64
2, 100500, Control_c, 0, 64, 104
2, 100502, Note_off_c, 0, 45, 64
2, 100502, Control_c, 0, 64, 127
2, 100513, Note_off_c, 0, 100, 64
2, 100517, Note_off_c, 0, 93, 64
2, 100521, Note_off_c, 0, 96, 64
2, 100525, Note_on_c, 0, 91, 90
2, 100548, Note_off_c, 0, 91, 64
2, 100557, Note_on_c, 0, 96, 88
2, 100560, Note_on_c, 0, 89, 84
2, 100560, Note_on_c, 0, 48, 81
2, 100560, Note_on_c, 0, 36, 70
2, 100560, Note_on_c, 0, 93, 82
2, 100560, Control_c, 0, 64, 88
2, 100562, Control_c, 0, 64, 24
2, 100566, Control_c, 0, 64, 0
2, 100568, Control_c, 0, 64, 56
2, 100571, Control_c, 0, 64, 104
2, 100572, Note_off_c, 0, 36, 64
2, 100573, Control_c, 0, 64, 127
2, 100576, Note_off_c, 0, 48, 64
2, 100585, Note_off_c, 0, 89, 64
2, 100586, Note_off_c, 0, 93, 64
2, 100586, Note_off_c, 0, 96, 64
2, 100591, Note_on_c, 0, 88, 80
2, 100610, Note_off_c, 0, 88, 64
2, 100621, Control_c, 0, 64, 104
2, 100623, Note_on_c, 0, 93, 89
2, 100623, Note_on_c, 0, 50, 82
2, 100623, Note_on_c, 0, 38, 68
2, 100623, Control_c, 0, 64, 24
2, 100626, Note_on_c, 0, 86, 75
2, 100626, Note_on_c, 0, 89, 78
2, 100626, Control_c, 0, 64, 0
2, 100628, Control_c, 0, 64, 24
2, 100631, Control_c, 0, 64, 72
2, 100633, Note_off_c, 0, 38, 64
2, 100635, Control_c, 0, 64, 127
2, 100638, Note_off_c, 0, 50, 64
2, 100652, Note_off_c, 0, 86, 64
2, 100652, Note_off_c, 0, 93, 64
2, 100653, Note_off_c, 0, 89, 64
2, 100657, Note_on_c, 0, 84, 84
2, 100678, Note_off_c, 0, 84, 64
2, 100688, Control_c, 0, 64, 40
2, 100690, Note_on_c, 0, 89, 81
2, 100691, Note_on_c, 0, 53, 82
2, 100691, Note_on_c, 0, 41, 66
2, 100692, Note_on_c, 0, 86, 73
2, 100692, Note_on_c, 0, 83, 63
2, 100692, Control_c, 0, 64, 0
2, 100695, Note_on_c, 0, 81, 64
2, 100695, Control_c, 0, 64, 24
2, 100696, Note_off_c, 0, 41, 64
2, 100697, Control_c, 0, 64, 72
2, 100700, Note_off_c, 0, 81, 64
2, 100700, Control_c, 0, 64, 127
2, 100703, Note_off_c, 0, 53, 64
2, 100716, Note_off_c, 0, 89, 64
2, 100718, Note_off_c, 0, 83, 64
2, 100720, Note_off_c, 0, 86, 64
2, 100723, Note_on_c, 0, 81, 83
2, 100745, Note_off_c, 0, 81, 64
2, 100755, Control_c, 0, 64, 72
2, 100757, Note_on_c, 0, 65, 81
2, 100757, Note_on_c, 0, 86, 83
2, 100757, Note_on_c, 0, 79, 83
2, 100757, Note_on_c, 0, 53, 75
2, 100758, Note_on_c, 0, 83, 71
2, 100758, Control_c, 0, 64, 0
2, 100766, Control_c, 0, 64, 72
2, 100768, Control_c, 0, 64, 127
2, 100780, Note_off_c, 0, 53, 64
2, 100781, Note_off_c, 0, 65, 64
2, 100782, Note_off_c, 0, 86, 64
2, 100783, Note_off_c, 0, 79, 64
2, 100785, Note_off_c, 0, 83, 64
2, 100790, Note_on_c, 0, 77, 82
2, 100810, Note_off_c, 0, 77, 64
2, 100823, Control_c, 0, 64, 56
2, 100825, Note_on_c, 0, 83, 83
2, 100825, Note_on_c, 0, 64, 80
2, 100826, Note_on_c, 0, 76, 80
2, 100826, Control_c, 0, 64, 0
2, 100827, Note_on_c, 0, 80, 65
2, 100827, Note_on_c, 0, 52, 66
2, 100828, Control_c, 0, 64, 24
2, 100832, Control_c, 0, 64, 72
2, 100835, Control_c, 0, 64, 127
2, 100836, Note_off_c, 0, 64, 64
2, 100842, Note_off_c, 0, 52, 64
2, 100850, Note_off_c, 0, 76, 64
2, 100853, Note_off_c, 0, 80, 64
2, 100856, Note_off_c, 0, 83, 64
2, 100856, Note_on_c, 0, 74, 81
2, 100863, Note_off_c, 0, 74, 64
2, 100883, Control_c, 0, 64, 56
2, 100887, Control_c, 0, 64, 0
2, 100906, Note_on_c, 0, 100, 93
2, 100907, Note_on_c, 0, 93, 84
2, 100908, Note_on_c, 0, 96, 76
2, 100908, Note_on_c, 0, 33, 73
2, 100908, Note_on_c, 0, 45, 83
2, 100908, Control_c, 0, 64, 88
2, 100911, Control_c, 0, 64, 127
2, 100918, Note_off_c, 0, 33, 64
2, 100923, Note_off_c, 0, 45, 64
2, 100936, Note_off_c, 0, 100, 64
2, 100937, Note_off_c, 0, 93, 64
2, 100940, Note_off_c, 0, 96, 64
2, 100943, Note_on_c, 0, 91, 86
2, 100963, Note_off_c, 0, 91, 64
2, 100976, Note_on_c, 0, 96, 93
2, 100978, Note_on_c, 0, 93, 84
2, 100978, Note_on_c, 0, 89, 86
2, 100978, Note_on_c, 0, 36, 73
2, 100978, Note_on_c, 0, 48, 84
2, 100980, Control_c, 0, 64, 40
2, 100983, Control_c, 0, 64, 24
2, 100986, Control_c, 0, 64, 56
2, 100988, Control_c, 0, 64, 88
2, 100990, Note_off_c, 0, 36, 64
2, 100991, Control_c, 0, 64, 127
2, 100997, Note_off_c, 0, 48, 64
2, 101002, Note_off_c, 0, 89, 64
2, 101005, Note_off_c, 0, 96, 64
2, 101006, Note_off_c, 0, 93, 64
2, 101010, Note_on_c, 0, 88, 82
2, 101031, Note_off_c, 0, 88, 64
2, 101043, Note_on_c, 0, 93, 92
2, 101043, Note_on_c, 0, 50, 80
2, 101043, Note_on_c, 0, 38, 68
2, 101045, Note_on_c, 0, 86, 77
2, 101045, Note_on_c, 0, 89, 73
2, 101053, Note_off_c, 0, 38, 64
2, 101056, Note_off_c, 0, 50, 64
2, 101070, Note_off_c, 0, 93, 64
2, 101071, Note_off_c, 0, 86, 64
2, 101073, Note_off_c, 0, 89, 64
2, 101078, Note_on_c, 0, 84, 87
2, 101098, Note_off_c, 0, 84, 64
2, 101111, Note_on_c, 0, 89, 85
2, 101112, Note_on_c, 0, 86, 74
2, 101112, Note_on_c, 0, 83, 78
2, 101113, Note_on_c, 0, 53, 75
2, 101113, Note_on_c, 0, 41, 65
2, 101117, Control_c, 0, 64, 72
2, 101120, Note_off_c, 0, 41, 64
2, 101123, Control_c, 0, 64, 127
2, 101126, Note_off_c, 0, 53, 64
2, 101137, Note_off_c, 0, 89, 64
2, 101140, Note_off_c, 0, 83, 64
2, 101141, Note_off_c, 0, 86, 64
2, 101146, Note_on_c, 0, 81, 75
2, 101166, Note_off_c, 0, 81, 64
2, 101177, Note_on_c, 0, 65, 75
2, 101177, Note_on_c, 0, 86, 76
2, 101178, Note_on_c, 0, 53, 68
2, 101178, Note_on_c, 0, 79, 69
2, 101180, Note_on_c, 0, 83, 66
2, 101183, Control_c, 0, 64, 40
2, 101186, Control_c, 0, 64, 24
2, 101188, Control_c, 0, 64, 56
2, 101191, Control_c, 0, 64, 104
2, 101195, Control_c, 0, 64, 127
2, 101201, Note_off_c, 0, 53, 64
2, 101202, Note_off_c, 0, 65, 64
2, 101203, Note_off_c, 0, 79, 64
2, 101206, Note_off_c, 0, 83, 64
2, 101206, Note_off_c, 0, 86, 64
2, 101211, Note_on_c, 0, 77, 76
2, 101228, Note_off_c, 0, 77, 64
2, 101246, Note_on_c, 0, 83, 78
2, 101246, Note_on_c, 0, 64, 76
2, 101246, Control_c, 0, 64, 88
2, 101247, Note_on_c, 0, 80, 70
2, 101247, Note_on_c, 0, 76, 66
2, 101250, Note_on_c, 0, 52, 59
2, 101250, Control_c, 0, 64, 40
2, 101255, Control_c, 0, 64, 88
2, 101257, Control_c, 0, 64, 127
2, 101258, Note_off_c, 0, 64, 64
2, 101263, Note_off_c, 0, 52, 64
2, 101271, Note_off_c, 0, 76, 64
2, 101275, Note_off_c, 0, 83, 64
2, 101277, Note_off_c, 0, 80, 64
2, 101280, Note_on_c, 0, 71, 76
2, 101297, Note_off_c, 0, 71, 64
2, 101318, Note_on_c, 0, 71, 93
2, 101320, Note_on_c, 0, 39, 67
2, 101321, Note_on_c, 0, 51, 78
2, 101321, Control_c, 0, 64, 72
2, 101322, Control_c, 0, 64, 0
2, 101328, Note_off_c, 0, 51, 64
2, 101330, Note_off_c, 0, 39, 64
2, 101331, Control_c, 0, 64, 56
2, 101335, Control_c, 0, 64, 127
2, 101345, Note_off_c, 0, 71, 64
2, 101347, Note_on_c, 0, 78, 51
2, 101351, Note_on_c, 0, 83, 80
2, 101351, Note_on_c, 0, 81, 58
2, 101357, Note_off_c, 0, 78, 64
2, 101360, Note_off_c, 0, 83, 64
2, 101361, Note_off_c, 0, 81, 64
2, 101367, Note_on_c, 0, 51, 71
2, 101375, Note_on_c, 0, 57, 57
2, 101378, Note_on_c, 0, 59, 52
2, 101381, Note_off_c, 0, 51, 64
2, 101388, Note_on_c, 0, 66, 73
2, 101390, Note_on_c, 0, 83, 93
2, 101396, Note_off_c, 0, 57, 64
2, 101397, Note_off_c, 0, 66, 64
2, 101397, Note_off_c, 0, 59, 64
2, 101418, Note_off_c, 0, 83, 64
2, 101425, Note_on_c, 0, 95, 83
2, 101425, Note_on_c, 0, 90, 65
2, 101426, Note_on_c, 0, 93, 76
2, 101452, Note_off_c, 0, 95, 64
2, 101457, Note_off_c, 0, 93, 64
2, 101458, Note_on_c, 0, 83, 76
2, 101461, Note_off_c, 0, 90, 64
2, 101470, Note_off_c, 0, 83, 64
2, 101490, Note_on_c, 0, 83, 77
2, 101492, Note_on_c, 0, 79, 69
2, 101498, Note_on_c, 0, 77, 28
2, 101502, Note_off_c, 0, 77, 64
2, 101508, Note_off_c, 0, 79, 64
2, 101510, Note_off_c, 0, 83, 64
2, 101525, Note_on_c, 0, 72, 100
2, 101526, Control_c, 0, 64, 24
2, 101527, Note_on_c, 0, 51, 85
2, 101527, Note_on_c, 0, 39, 68
2, 101528, Control_c, 0, 64, 0
2, 101536, Note_off_c, 0, 39, 64
2, 101536, Note_off_c, 0, 51, 64
2, 101537, Control_c, 0, 64, 40
2, 101540, Control_c, 0, 64, 127
2, 101556, Note_off_c, 0, 72, 64
2, 101556, Note_on_c, 0, 78, 56
2, 101557, Note_on_c, 0, 84, 83
2, 101560, Note_on_c, 0, 81, 64
2, 101562, Note_off_c, 0, 78, 64
2, 101563, Note_off_c, 0, 81, 64
2, 101570, Note_off_c, 0, 84, 64
2, 101577, Note_on_c, 0, 51, 76
2, 101583, Note_on_c, 0, 57, 60
2, 101587, Note_on_c, 0, 60, 59
2, 101590, Note_off_c, 0, 51, 64
2, 101591, Note_on_c, 0, 84, 92
2, 101595, Note_on_c, 0, 66, 69
2, 101597, Note_on_c, 0, 94, 40
2, 101600, Note_off_c, 0, 57, 64
2, 101603, Note_off_c, 0, 94, 64
2, 101603, Note_off_c, 0, 60, 64
2, 101606, Note_off_c, 0, 66, 64
2, 101616, Note_off_c, 0, 84, 64
2, 101625, Note_on_c, 0, 96, 88
2, 101625, Note_on_c, 0, 90, 75
2, 101627, Note_on_c, 0, 93, 81
2, 101655, Note_off_c, 0, 96, 64
2, 101657, Note_on_c, 0, 84, 82
2, 101660, Note_off_c, 0, 93, 64
2, 101660, Note_off_c, 0, 90, 64
2, 101668, Note_off_c, 0, 84, 64
2, 101688, Note_on_c, 0, 84, 86
2, 101692, Note_on_c, 0, 81, 49
2, 101693, Note_on_c, 0, 78, 60
2, 101701, Note_off_c, 0, 81, 64
2, 101702, Note_off_c, 0, 78, 64
2, 101705, Note_off_c, 0, 84, 64
2, 101726, Note_on_c, 0, 73, 95
2, 101726, Control_c, 0, 64, 88
2, 101730, Note_on_c, 0, 40, 65
2, 101730, Control_c, 0, 64, 0
2, 101731, Note_on_c, 0, 52, 74
2, 101740, Control_c, 0, 64, 40
2, 101741, Note_off_c, 0, 40, 64
2, 101742, Control_c, 0, 64, 127
2, 101743, Note_off_c, 0, 52, 64
2, 101758, Note_off_c, 0, 73, 64
2, 101760, Note_on_c, 0, 79, 56
2, 101761, Note_on_c, 0, 85, 78
2, 101761, Note_on_c, 0, 82, 65
2, 101765, Note_off_c, 0, 79, 64
2, 101772, Note_off_c, 0, 82, 64
2, 101772, Note_off_c, 0, 85, 64
2, 101793, Note_on_c, 0, 85, 102
2, 101795, Note_on_c, 0, 67, 78
2, 101795, Note_on_c, 0, 61, 62
2, 101796, Note_on_c, 0, 58, 56
2, 101817, Note_off_c, 0, 85, 64
2, 101826, Note_on_c, 0, 97, 87
2, 101828, Note_on_c, 0, 94, 65
2, 101828, Note_on_c, 0, 91, 75
2, 101852, Note_off_c, 0, 91, 64
2, 101853, Note_off_c, 0, 97, 64
2, 101856, Note_off_c, 0, 94, 64
2, 101856, Note_on_c, 0, 85, 87
2, 101861, Note_off_c, 0, 67, 64
2, 101865, Note_off_c, 0, 85, 64
2, 101872, Note_off_c, 0, 61, 64
2, 101875, Note_off_c, 0, 58, 64
2, 101886, Note_on_c, 0, 79, 84
2, 101887, Note_on_c, 0, 85, 83
2, 101888, Note_on_c, 0, 82, 67
2, 101893, Note_on_c, 0, 79, 51
2, 101897, Note_off_c, 0, 79, 64
2, 101898, Note_off_c, 0, 79, 64
2, 101906, Note_off_c, 0, 85, 64
2, 101907, Note_off_c, 0, 82, 64
2, 101922, Note_on_c, 0, 74, 103
2, 101923, Control_c, 0, 64, 56
2, 101926, Note_on_c, 0, 41, 77
2, 101927, Note_on_c, 0, 53, 73
2, 101927, Control_c, 0, 64, 0
2, 101937, Note_off_c, 0, 41, 64
2, 101941, Control_c, 0, 64, 127
2, 101942, Note_off_c, 0, 53, 64
2, 101950, Note_off_c, 0, 74, 64
2, 101956, Note_on_c, 0, 80, 63
2, 101957, Note_on_c, 0, 83, 83
2, 101957, Note_on_c, 0, 86, 88
2, 101962, Note_off_c, 0, 80, 64
2, 101965, Note_off_c, 0, 83, 64
2, 101968, Note_off_c, 0, 86, 64
2, 101988, Note_on_c, 0, 86, 105
2, 101991, Note_on_c, 0, 68, 75
2, 101991, Note_on_c, 0, 59, 65
2, 101993, Note_on_c, 0, 62, 68
2, 102017, Note_off_c, 0, 86, 64
2, 102025, Note_on_c, 0, 98, 99
2, 102025, Note_on_c, 0, 92, 84
2, 102025, Note_on_c, 0, 95, 87
2, 102055, Note_off_c, 0, 98, 64
2, 102057, Note_off_c, 0, 95, 64
2, 102058, Note_off_c, 0, 92, 64
2, 102058, Note_on_c, 0, 86, 90
2, 102068, Note_on_c, 0, 84, 29
2, 102071, Note_off_c, 0, 86, 64
2, 102073, Note_off_c, 0, 84, 64
2, 102087, Note_off_c, 0, 59, 64
2, 102088, Note_off_c, 0, 62, 64
2, 102090, Note_off_c, 0, 68, 64
2, 102096, Note_on_c, 0, 86, 93
2, 102096, Note_on_c, 0, 80, 64
2, 102096, Note_on_c, 0, 83, 66
2, 102100, Note_off_c, 0, 83, 64
2, 102101, Note_off_c, 0, 80, 64
2, 102108, Note_off_c, 0, 86, 64
2, 102128, Control_c, 0, 64, 40
2, 102131, Control_c, 0, 64, 72
2, 102132, Note_on_c, 0, 53, 68
2, 102133, Control_c, 0, 64, 104
2, 102136, Note_on_c, 0, 57, 64
2, 102136, Control_c, 0, 64, 127
2, 102138, Note_on_c, 0, 59, 67
2, 102142, Note_on_c, 0, 75, 92
2, 102143, Note_on_c, 0, 63, 65
2, 102147, Note_off_c, 0, 53, 64
2, 102151, Note_off_c, 0, 57, 64
2, 102155, Note_on_c, 0, 69, 66
2, 102157, Note_off_c, 0, 59, 64
2, 102163, Note_off_c, 0, 75, 64
2, 102165, Note_off_c, 0, 63, 64
2, 102170, Note_on_c, 0, 87, 79
2, 102170, Note_on_c, 0, 83, 61
2, 102170, Note_on_c, 0, 81, 62
2, 102181, Note_off_c, 0, 81, 64
2, 102181, Note_off_c, 0, 83, 64
2, 102181, Note_off_c, 0, 87, 64
2, 102197, Note_on_c, 0, 87, 97
2, 102242, Note_on_c, 0, 99, 104
2, 102258, Note_off_c, 0, 87, 64
2, 102260, Note_off_c, 0, 99, 64
2, 102266, Note_off_c, 0, 69, 64
2, 102881, Note_on_c, 0, 69, 45
2, 102890, Note_on_c, 0, 57, 34
2, 102892, Control_c, 0, 64, 40
2, 102897, Control_c, 0, 64, 72
2, 102902, Control_c, 0, 64, 88
2, 102908, Control_c, 0, 64, 127
2, 102931, Note_off_c, 0, 69, 64
2, 102932, Note_off_c, 0, 57, 64
2, 103001, Note_on_c, 0, 69, 55
2, 103001, Note_on_c, 0, 57, 38
2, 103027, Control_c, 0, 64, 88
2, 103032, Control_c, 0, 64, 56
2, 103038, Control_c, 0, 64, 0
2, 103055, Control_c, 0, 64, 40
2, 103061, Control_c, 0, 64, 72
2, 103066, Control_c, 0, 64, 127
2, 103082, Note_off_c, 0, 57, 64
2, 103087, Note_off_c, 0, 69, 64
2, 103201, Note_on_c, 0, 69, 58
2, 103207, Note_on_c, 0, 57, 38
2, 103213, Control_c, 0, 64, 88
2, 103218, Control_c, 0, 64, 40
2, 103225, Control_c, 0, 64, 24
2, 103236, Control_c, 0, 64, 56
2, 103241, Control_c, 0, 64, 88
2, 103248, Control_c, 0, 64, 127
2, 103256, Note_off_c, 0, 57, 64
2, 103262, Note_off_c, 0, 69, 64
2, 103308, Note_on_c, 0, 69, 58
2, 103315, Note_on_c, 0, 57, 39
2, 103332, Control_c, 0, 64, 72
2, 103337, Control_c, 0, 64, 24
2, 103343, Control_c, 0, 64, 0
2, 103360, Control_c, 0, 64, 40
2, 103366, Control_c, 0, 64, 88
2, 103371, Control_c, 0, 64, 127
2, 103390, Note_off_c, 0, 57, 64
2, 103396, Note_off_c, 0, 69, 64
2, 103505, Note_on_c, 0, 69, 51
2, 103510, Note_on_c, 0, 57, 32
2, 103520, Control_c, 0, 64, 88
2, 103523, Control_c, 0, 64, 40
2, 103531, Control_c, 0, 64, 0
2, 103536, Control_c, 0, 64, 24
2, 103542, Control_c, 0, 64, 56
2, 103547, Control_c, 0, 64, 88
2, 103551, Note_off_c, 0, 69, 64
2, 103552, Note_off_c, 0, 57, 64
2, 103553, Control_c, 0, 64, 127
2, 103631, Note_on_c, 0, 69, 44
2, 103637, Note_on_c, 0, 57, 27
2, 103665, Control_c, 0, 64, 104
2, 103672, Control_c, 0, 64, 56
2, 103677, Control_c, 0, 64, 24
2, 103683, Control_c, 0, 64, 0
2, 103705, Control_c, 0, 64, 40
2, 103710, Control_c, 0, 64, 88
2, 103716, Control_c, 0, 64, 127
2, 103740, Note_off_c, 0, 57, 64
2, 103743, Note_off_c, 0, 69, 64
2, 103861, Note_on_c, 0, 69, 47
2, 103873, Note_on_c, 0, 57, 33
2, 103907, Note_off_c, 0, 57, 64
2, 103911, Note_off_c, 0, 69, 64
2, 104015, Note_on_c, 0, 72, 63
2, 104020, Note_on_c, 0, 64, 44
2, 104021, Note_on_c, 0, 57, 24
2, 104041, Note_on_c, 0, 52, 24
2, 104050, Control_c, 0, 64, 104
2, 104055, Control_c, 0, 64, 40
2, 104061, Control_c, 0, 64, 0
2, 104096, Control_c, 0, 64, 24
2, 104101, Control_c, 0, 64, 88
2, 104106, Control_c, 0, 64, 127
2, 104122, Note_off_c, 0, 57, 64
2, 104130, Note_off_c, 0, 52, 64
2, 104155, Note_off_c, 0, 72, 64
2, 104168, Note_off_c, 0, 64, 64
2, 104225, Note_on_c, 0, 69, 65
2, 104231, Note_on_c, 0, 65, 53
2, 104237, Note_on_c, 0, 50, 45
2, 104237, Note_on_c, 0, 57, 26
2, 104242, Control_c, 0, 64, 56
2, 104247, Control_c, 0, 64, 0
2, 104265, Control_c, 0, 64, 24
2, 104266, Note_off_c, 0, 65, 64
2, 104270, Note_off_c, 0, 57, 64
2, 104270, Control_c, 0, 64, 72
2, 104276, Control_c, 0, 64, 127
2, 104287, Note_off_c, 0, 50, 64
2, 104308, Note_off_c, 0, 69, 64
2, 104345, Note_on_c, 0, 72, 77
2, 104351, Note_on_c, 0, 57, 36
2, 104352, Note_on_c, 0, 52, 42
2, 104356, Note_on_c, 0, 64, 44
2, 104383, Control_c, 0, 64, 72
2, 104388, Control_c, 0, 64, 0
2, 104417, Control_c, 0, 64, 24
2, 104422, Control_c, 0, 64, 88
2, 104428, Control_c, 0, 64, 127
2, 104433, Note_off_c, 0, 64, 64
2, 104458, Note_off_c, 0, 57, 64
2, 104461, Note_off_c, 0, 52, 64
2, 104462, Note_off_c, 0, 72, 64
2, 104538, Note_on_c, 0, 74, 76
2, 104541, Control_c, 0, 64, 104
2, 104542, Note_on_c, 0, 62, 52
2, 104545, Note_on_c, 0, 53, 47
2, 104547, Note_on_c, 0, 57, 32
2, 104547, Control_c, 0, 64, 40
2, 104552, Control_c, 0, 64, 0
2, 104563, Control_c, 0, 64, 40
2, 104570, Control_c, 0, 64, 88
2, 104573, Note_off_c, 0, 62, 64
2, 104575, Control_c, 0, 64, 127
2, 104583, Note_off_c, 0, 74, 64
2, 104585, Note_off_c, 0, 57, 64
2, 104585, Note_off_c, 0, 53, 64
2, 104651, Note_on_c, 0, 72, 75
2, 104656, Note_on_c, 0, 57, 40
2, 104660, Note_on_c, 0, 52, 41
2, 104661, Note_on_c, 0, 64, 57
2, 104666, Control_c, 0, 64, 72
2, 104671, Control_c, 0, 64, 24
2, 104677, Control_c, 0, 64, 0
2, 104700, Control_c, 0, 64, 24
2, 104705, Control_c, 0, 64, 88
2, 104711, Control_c, 0, 64, 127
2, 104747, Note_off_c, 0, 57, 64
2, 104751, Note_off_c, 0, 52, 64
2, 104760, Note_off_c, 0, 72, 64
2, 104783, Note_off_c, 0, 64, 64
2, 104798, Note_on_c, 0, 71, 74
2, 104835, Note_off_c, 0, 71, 64
2, 104845, Note_on_c, 0, 69, 79
2, 104855, Note_on_c, 0, 65, 45
2, 104856, Note_on_c, 0, 50, 28
2, 104856, Note_on_c, 0, 57, 28
2, 104858, Control_c, 0, 64, 40
2, 104865, Control_c, 0, 64, 0
2, 104887, Control_c, 0, 64, 40
2, 104892, Control_c, 0, 64, 127
2, 104896, Note_off_c, 0, 50, 64
2, 104900, Note_off_c, 0, 65, 64
2, 104902, Note_off_c, 0, 57, 64
2, 104913, Note_off_c, 0, 69, 64
2, 104976, Note_on_c, 0, 72, 78
2, 104983, Note_on_c, 0, 64, 53
2, 104986, Note_on_c, 0, 57, 36
2, 104992, Note_on_c, 0, 52, 29
2, 105006, Control_c, 0, 64, 56
2, 105011, Control_c, 0, 64, 0
2, 105033, Control_c, 0, 64, 72
2, 105037, Note_off_c, 0, 64, 64
2, 105040, Control_c, 0, 64, 127
2, 105050, Note_off_c, 0, 72, 64
2, 105061, Note_off_c, 0, 52, 64
2, 105063, Note_off_c, 0, 57, 64
2, 105191, Note_on_c, 0, 74, 66
2, 105198, Note_on_c, 0, 69, 53
2, 105201, Note_on_c, 0, 62, 40
2, 105202, Note_on_c, 0, 57, 33
2, 105202, Control_c, 0, 64, 56
2, 105203, Note_on_c, 0, 53, 42
2, 105208, Control_c, 0, 64, 0
2, 105231, Control_c, 0, 64, 56
2, 105233, Note_off_c, 0, 53, 64
2, 105236, Control_c, 0, 64, 127
2, 105237, Note_off_c, 0, 57, 64
2, 105237, Note_off_c, 0, 62, 64
2, 105242, Note_off_c, 0, 69, 64
2, 105253, Note_off_c, 0, 74, 64
2, 105352, Note_on_c, 0, 76, 61
2, 105358, Note_on_c, 0, 64, 44
2, 105362, Note_on_c, 0, 69, 49
2, 105362, Note_on_c, 0, 52, 26
2, 105367, Note_on_c, 0, 60, 29
2, 105383, Control_c, 0, 64, 104
2, 105388, Control_c, 0, 64, 40
2, 105395, Control_c, 0, 64, 0
2, 105441, Control_c, 0, 64, 24
2, 105446, Control_c, 0, 64, 72
2, 105452, Control_c, 0, 64, 104
2, 105457, Control_c, 0, 64, 127
2, 105542, Control_c, 0, 64, 56
2, 105548, Control_c, 0, 64, 0
2, 105571, Control_c, 0, 64, 72
2, 105576, Control_c, 0, 64, 127
2, 105651, Note_off_c, 0, 52, 64
2, 105660, Note_off_c, 0, 60, 64
2, 105685, Note_off_c, 0, 64, 64
2, 105690, Note_off_c, 0, 76, 64
2, 105692, Note_off_c, 0, 69, 64
2, 105966, Control_c, 0, 64, 104
2, 105972, Control_c, 0, 64, 88
2, 105977, Control_c, 0, 64, 40
2, 105983, Control_c, 0, 64, 0
2, 106033, Control_c, 0, 64, 24
2, 106038, Control_c, 0, 64, 72
2, 106045, Control_c, 0, 64, 127
2, 106222, Note_on_c, 0, 68, 47
2, 106222, Note_on_c, 0, 64, 44
2, 106222, Note_on_c, 0, 52, 24
2, 106222, Note_on_c, 0, 62, 25
2, 106222, Note_on_c, 0, 59, 22
2, 106255, Control_c, 0, 64, 104
2, 106260, Control_c, 0, 64, 24
2, 106265, Control_c, 0, 64, 0
2, 106287, Control_c, 0, 64, 72
2, 106293, Control_c, 0, 64, 127
2, 106295, Note_off_c, 0, 59, 64
2, 106305, Note_off_c, 0, 52, 64
2, 106455, Note_off_c, 0, 62, 64
2, 106468, Control_c, 0, 64, 104
2, 106473, Control_c, 0, 64, 0
2, 106487, Note_off_c, 0, 64, 64
2, 106502, Control_c, 0, 64, 40
2, 106507, Control_c, 0, 64, 104
2, 106515, Control_c, 0, 64, 127
2, 106536, Note_on_c, 0, 56, 42
2, 106552, Note_off_c, 0, 56, 64
2, 106587, Note_on_c, 0, 56, 50
2, 106587, Note_on_c, 0, 28, 42
2, 106587, Note_on_c, 0, 40, 40
2, 106618, Note_off_c, 0, 40, 64
2, 106646, Note_off_c, 0, 68, 64
2, 106650, Note_off_c, 0, 56, 64
2, 106650, Note_on_c, 0, 62, 69
2, 106713, Note_off_c, 0, 62, 64
2, 106713, Note_on_c, 0, 64, 66
2, 106741, Note_off_c, 0, 64, 64
2, 106862, Note_off_c, 0, 28, 64
2, 106872, Note_on_c, 0, 71, 74
2, 107217, Note_off_c, 0, 71, 64
2, 107520, Note_on_c, 0, 33, 40
2, 107531, Control_c, 0, 64, 104
2, 107536, Control_c, 0, 64, 40
2, 107541, Control_c, 0, 64, 0
2, 107576, Control_c, 0, 64, 88
2, 107581, Control_c, 0, 64, 127
2, 107641, Note_off_c, 0, 33, 64
2, 107643, Note_on_c, 0, 45, 26
2, 107671, Note_off_c, 0, 45, 64
2, 107727, Note_on_c, 0, 52, 39
2, 107805, Note_on_c, 0, 57, 31
2, 107827, Note_off_c, 0, 57, 64
2, 107857, Note_on_c, 0, 60, 38
2, 107931, Note_on_c, 0, 64, 39
2, 107936, Note_off_c, 0, 60, 64
2, 108072, Note_on_c, 0, 69, 47
2, 108131, Note_off_c, 0, 52, 64
2, 108267, Note_off_c, 0, 64, 64
2, 108287, Note_off_c, 0, 69, 64
2, 110166, Control_c, 0, 64, 88
2, 110172, Control_c, 0, 64, 40
2, 110178, Control_c, 0, 64, 0
2, 110178, End_track
3, 0, Start_track
3, 0, End_track
4, 0, Start_track
4, 0, End_track
5, 0, Start_track
5, 0, End_track
6, 0, Start_track
6, 0, End_track
7, 0, Start_track
7, 0, End_track
8, 0, Start_track
8, 0, End_track
9, 0, Start_track
9, 0, End_track
10, 0, Start_track
10, 0, End_track
11, 0, Start_track
11, 0, End_track
0, 0, End_of_file