0, 0, Header, 1, 3, 480
1, 0, Start_track
1, 0, Tempo, 317441
1, 0, Time_signature, 3, 2, 24, 8
1, 0, Copyright_t, "Copyright \251 1999 My Music Company"
1, 0, Title_t, "Piano Solo"
1, 187200, End_track
2, 0, Start_track
2, 0, Control_c, 0, 7, 110
2, 0, Control_c, 0, 0, 0
2, 0, Control_c, 0, 32, 0
2, 0, Program_c, 0, 0
2, 0, Control_c, 0, 1, 0
2, 0, Control_c, 0, 10, 64
2, 0, Control_c, 0, 91, 0
2, 0, Control_c, 0, 93, 0
2, 0, Key_signature, 0, "major"
2, 0, Title_t, "Piano"
2, 0, Note_on_c, 0, 55, 100
2, 0, Note_on_c, 0, 43, 100
2, 0, Note_on_c, 0, 31, 100
2, 456, Note_on_c, 0, 31, 0
2, 456, Note_on_c, 0, 43, 0
2, 456, Note_on_c, 0, 55, 0
2, 480, Note_on_c, 0, 55, 100
2, 480, Note_on_c, 0, 43, 100
2, 480, Note_on_c, 0, 31, 100
2, 900, Note_on_c, 0, 54, 100
2, 900, Note_on_c, 0, 42, 100
2, 936, Note_on_c, 0, 31, 0
2, 936, Note_on_c, 0, 43, 0
2, 936, Note_on_c, 0, 55, 0
2, 960, Note_on_c, 0, 52, 100
2, 960, Note_on_c, 0, 40, 100
2, 1014, Note_on_c, 0, 42, 0
2, 1014, Note_on_c, 0, 54, 0
2, 1020, Note_on_c, 0, 50, 100
2, 1020, Note_on_c, 0, 38, 100
2, 1074, Note_on_c, 0, 40, 0
2, 1074, Note_on_c, 0, 52, 0
2, 1419, Note_on_c, 0, 50, 0
2, 1440, Note_on_c, 0, 55, 100
2, 1440, Note_on_c, 0, 43, 100
2, 1440, Note_on_c, 0, 31, 100
2, 1476, Note_on_c, 0, 38, 0
2, 1896, Note_on_c, 0, 31, 0
2, 1896, Note_on_c, 0, 43, 0
2, 1896, Note_on_c, 0, 55, 0
2, 1920, Note_on_c, 0, 55, 100
2, 1920, Note_on_c, 0, 43, 100
2, 1920, Note_on_c, 0, 31, 100
2, 2340, Note_on_c, 0, 54, 100
2, 2340, Note_on_c, 0, 42, 100
2, 2376, Note_on_c, 0, 31, 0
2, 2376, Note_on_c, 0, 43, 0
2, 2376, Note_on_c, 0, 55, 0
2, 2400, Note_on_c, 0, 52, 100
2, 2400, Note_on_c, 0, 40, 100
2, 2454, Note_on_c, 0, 42, 0
2, 2454, Note_on_c, 0, 54, 0
2, 2460, Note_on_c, 0, 50, 100
2, 2460, Note_on_c, 0, 38, 100
2, 2514, Note_on_c, 0, 40, 0
2, 2514, Note_on_c, 0, 52, 0
2, 2859, Note_on_c, 0, 50, 0
2, 2880, Note_on_c, 0, 55, 100
2, 2880, Note_on_c, 0, 43, 100
2, 2880, Note_on_c, 0, 31, 100
2, 2916, Note_on_c, 0, 38, 0
2, 3336, Note_on_c, 0, 31, 0
2, 3336, Note_on_c, 0, 43, 0
2, 3336, Note_on_c, 0, 55, 0
2, 3360, Note_on_c, 0, 55, 100
2, 3360, Note_on_c, 0, 43, 100
2, 3360, Note_on_c, 0, 31, 100
2, 3780, Note_on_c, 0, 54, 100
2, 3780, Note_on_c, 0, 42, 100
2, 3816, Note_on_c, 0, 31, 0
2, 3816, Note_on_c, 0, 43, 0
2, 3816, Note_on_c, 0, 55, 0
2, 3840, Note_on_c, 0, 52, 100
2, 3840, Note_on_c, 0, 40, 100
2, 3894, Note_on_c, 0, 42, 0
2, 3894, Note_on_c, 0, 54, 0
2, 3900, Note_on_c, 0, 50, 100
2, 3900, Note_on_c, 0, 38, 100
2, 3954, Note_on_c, 0, 40, 0
2, 3954, Note_on_c, 0, 52, 0
2, 4299, Note_on_c, 0, 50, 0
2, 4320, Note_on_c, 0, 55, 100
2, 4320, Note_on_c, 0, 43, 100
2, 4320, Note_on_c, 0, 31, 100
2, 4356, Note_on_c, 0, 38, 0
2, 4776, Note_on_c, 0, 31, 0
2, 4776, Note_on_c, 0, 43, 0
2, 4776, Note_on_c, 0, 55, 0
2, 4800, Note_on_c, 0, 55, 100
2, 4800, Note_on_c, 0, 43, 100
2, 4800, Note_on_c, 0, 31, 100
2, 5256, Note_on_c, 0, 31, 0
2, 5256, Note_on_c, 0, 43, 0
2, 5256, Note_on_c, 0, 55, 0
2, 5280, Note_on_c, 0, 55, 100
2, 5280, Note_on_c, 0, 43, 100
2, 5280, Note_on_c, 0, 31, 100
2, 5280, Note_on_c, 0, 59, 100
2, 5280, Note_on_c, 0, 65, 100
2, 5355, Control_c, 0, 7, 104
2, 5431, Control_c, 0, 7, 98
2, 5507, Control_c, 0, 7, 93
2, 5582, Control_c, 0, 7, 87
2, 5658, Control_c, 0, 7, 81
2, 5700, Control_c, 0, 7, 78
2, 5736, Note_on_c, 0, 65, 0
2, 5736, Note_on_c, 0, 59, 0
2, 5736, Note_on_c, 0, 31, 0
2, 5736, Note_on_c, 0, 43, 0
2, 5736, Note_on_c, 0, 55, 0
2, 5760, Note_on_c, 0, 48, 100
2, 5760, Note_on_c, 0, 36, 100
2, 5760, Note_on_c, 0, 64, 100
2, 5760, Note_on_c, 0, 60, 100
2, 5760, Note_on_c, 0, 55, 100
2, 5911, Control_c, 0, 7, 79
2, 6138, Control_c, 0, 7, 80
2, 6216, Note_on_c, 0, 55, 0
2, 6216, Note_on_c, 0, 60, 0
2, 6216, Note_on_c, 0, 64, 0
2, 6216, Note_on_c, 0, 36, 0
2, 6216, Note_on_c, 0, 48, 0
2, 6240, Note_on_c, 0, 48, 100
2, 6240, Note_on_c, 0, 36, 100
2, 6240, Note_on_c, 0, 64, 100
2, 6240, Note_on_c, 0, 60, 100
2, 6240, Note_on_c, 0, 55, 100
2, 6440, Control_c, 0, 7, 81
2, 6667, Control_c, 0, 7, 82
2, 6696, Note_on_c, 0, 55, 0
2, 6696, Note_on_c, 0, 60, 0
2, 6696, Note_on_c, 0, 64, 0
2, 6696, Note_on_c, 0, 36, 0
2, 6696, Note_on_c, 0, 48, 0
2, 6720, Note_on_c, 0, 48, 100
2, 6720, Note_on_c, 0, 36, 100
2, 6720, Note_on_c, 0, 64, 100
2, 6720, Note_on_c, 0, 60, 100
2, 6720, Note_on_c, 0, 55, 100
2, 6894, Control_c, 0, 7, 83
2, 7121, Control_c, 0, 7, 84
2, 7176, Note_on_c, 0, 55, 0
2, 7176, Note_on_c, 0, 60, 0
2, 7176, Note_on_c, 0, 64, 0
2, 7176, Note_on_c, 0, 36, 0
2, 7176, Note_on_c, 0, 48, 0
2, 7200, Note_on_c, 0, 48, 100
2, 7200, Note_on_c, 0, 36, 100
2, 7200, Note_on_c, 0, 64, 100
2, 7200, Note_on_c, 0, 60, 100
2, 7200, Note_on_c, 0, 55, 100
2, 7423, Control_c, 0, 7, 85
2, 7650, Control_c, 0, 7, 86
2, 7656, Note_on_c, 0, 55, 0
2, 7656, Note_on_c, 0, 60, 0
2, 7656, Note_on_c, 0, 64, 0
2, 7656, Note_on_c, 0, 36, 0
2, 7656, Note_on_c, 0, 48, 0
2, 7680, Note_on_c, 0, 64, 100
2, 7680, Note_on_c, 0, 60, 100
2, 7680, Note_on_c, 0, 55, 100
2, 7680, Note_on_c, 0, 48, 100
2, 7680, Note_on_c, 0, 36, 100
2, 7877, Control_c, 0, 7, 87
2, 8136, Note_on_c, 0, 36, 0
2, 8136, Note_on_c, 0, 48, 0
2, 8136, Note_on_c, 0, 55, 0
2, 8136, Note_on_c, 0, 60, 0
2, 8136, Note_on_c, 0, 64, 0
2, 8160, Note_on_c, 0, 64, 100
2, 8160, Note_on_c, 0, 60, 100
2, 8160, Note_on_c, 0, 55, 100
2, 8160, Note_on_c, 0, 48, 100
2, 8160, Note_on_c, 0, 36, 100
2, 8179, Control_c, 0, 7, 88
2, 8406, Control_c, 0, 7, 89
2, 8616, Note_on_c, 0, 36, 0
2, 8616, Note_on_c, 0, 48, 0
2, 8616, Note_on_c, 0, 55, 0
2, 8616, Note_on_c, 0, 60, 0
2, 8616, Note_on_c, 0, 64, 0
2, 8632, Control_c, 0, 7, 90
2, 8640, Note_on_c, 0, 48, 100
2, 8640, Note_on_c, 0, 36, 100
2, 8640, Note_on_c, 0, 64, 100
2, 8640, Note_on_c, 0, 60, 100
2, 8640, Note_on_c, 0, 55, 100
2, 8859, Control_c, 0, 7, 91
2, 9096, Note_on_c, 0, 55, 0
2, 9096, Note_on_c, 0, 60, 0
2, 9096, Note_on_c, 0, 64, 0
2, 9096, Note_on_c, 0, 36, 0
2, 9096, Note_on_c, 0, 48, 0
2, 9120, Note_on_c, 0, 64, 100
2, 9120, Note_on_c, 0, 60, 100
2, 9120, Note_on_c, 0, 55, 100
2, 9120, Note_on_c, 0, 48, 100
2, 9120, Note_on_c, 0, 36, 100
2, 9162, Control_c, 0, 7, 92
2, 9388, Control_c, 0, 7, 93
2, 9576, Note_on_c, 0, 36, 0
2, 9576, Note_on_c, 0, 48, 0
2, 9576, Note_on_c, 0, 55, 0
2, 9576, Note_on_c, 0, 60, 0
2, 9576, Note_on_c, 0, 64, 0
2, 9600, Note_on_c, 0, 64, 100
2, 9600, Note_on_c, 0, 60, 100
2, 9600, Note_on_c, 0, 55, 100
2, 9600, Note_on_c, 0, 48, 100
2, 9600, Note_on_c, 0, 36, 100
2, 9615, Control_c, 0, 7, 94
2, 9842, Control_c, 0, 7, 95
2, 10056, Note_on_c, 0, 36, 0
2, 10056, Note_on_c, 0, 48, 0
2, 10056, Note_on_c, 0, 55, 0
2, 10056, Note_on_c, 0, 60, 0
2, 10056, Note_on_c, 0, 64, 0
2, 10080, Note_on_c, 0, 55, 100
2, 10080, Note_on_c, 0, 59, 100
2, 10080, Note_on_c, 0, 62, 100
2, 10080, Note_on_c, 0, 67, 100
2, 10080, Note_on_c, 0, 43, 100
2, 10080, Note_on_c, 0, 31, 100
2, 11520, Control_c, 0, 7, 78
2, 11671, Control_c, 0, 7, 77
2, 11822, Control_c, 0, 7, 76
2, 11973, Control_c, 0, 7, 75
2, 12124, Control_c, 0, 7, 74
2, 12276, Control_c, 0, 7, 73
2, 12503, Control_c, 0, 7, 72
2, 12654, Control_c, 0, 7, 71
2, 12805, Control_c, 0, 7, 70
2, 12912, Note_on_c, 0, 31, 0
2, 12912, Note_on_c, 0, 43, 0
2, 12912, Note_on_c, 0, 67, 0
2, 12912, Note_on_c, 0, 62, 0
2, 12912, Note_on_c, 0, 59, 0
2, 12912, Note_on_c, 0, 55, 0
2, 14400, Note_on_c, 0, 43, 100
2, 14880, Note_on_c, 0, 55, 100
2, 14880, Note_on_c, 0, 59, 100
2, 14880, Note_on_c, 0, 65, 100
2, 15336, Note_on_c, 0, 65, 0
2, 15336, Note_on_c, 0, 59, 0
2, 15336, Note_on_c, 0, 55, 0
2, 15360, Note_on_c, 0, 55, 100
2, 15360, Note_on_c, 0, 59, 100
2, 15360, Note_on_c, 0, 65, 100
2, 15816, Note_on_c, 0, 65, 0
2, 15816, Note_on_c, 0, 59, 0
2, 15816, Note_on_c, 0, 55, 0
2, 15816, Note_on_c, 0, 43, 0
2, 15840, Note_on_c, 0, 48, 100
2, 16320, Note_on_c, 0, 55, 100
2, 16320, Note_on_c, 0, 60, 100
2, 16320, Note_on_c, 0, 64, 100
2, 16776, Note_on_c, 0, 64, 0
2, 16776, Note_on_c, 0, 60, 0
2, 16776, Note_on_c, 0, 55, 0
2, 16800, Note_on_c, 0, 55, 100
2, 16800, Note_on_c, 0, 60, 100
2, 16800, Note_on_c, 0, 64, 100
2, 17256, Note_on_c, 0, 48, 0
2, 17256, Note_on_c, 0, 64, 0
2, 17256, Note_on_c, 0, 60, 0
2, 17256, Note_on_c, 0, 55, 0
2, 17280, Note_on_c, 0, 43, 100
2, 17760, Note_on_c, 0, 55, 100
2, 17760, Note_on_c, 0, 59, 100
2, 17760, Note_on_c, 0, 65, 100
2, 18216, Note_on_c, 0, 65, 0
2, 18216, Note_on_c, 0, 59, 0
2, 18216, Note_on_c, 0, 55, 0
2, 18240, Note_on_c, 0, 55, 100
2, 18240, Note_on_c, 0, 59, 100
2, 18240, Note_on_c, 0, 65, 100
2, 18696, Note_on_c, 0, 65, 0
2, 18696, Note_on_c, 0, 59, 0
2, 18696, Note_on_c, 0, 55, 0
2, 18696, Note_on_c, 0, 43, 0
2, 18720, Note_on_c, 0, 48, 100
2, 19200, Note_on_c, 0, 55, 100
2, 19200, Note_on_c, 0, 60, 100
2, 19200, Note_on_c, 0, 64, 100
2, 19656, Note_on_c, 0, 48, 0
2, 19656, Note_on_c, 0, 64, 0
2, 19656, Note_on_c, 0, 60, 0
2, 19656, Note_on_c, 0, 55, 0
2, 19680, Note_on_c, 0, 49, 100
2, 19680, Note_on_c, 0, 55, 100
2, 19680, Note_on_c, 0, 58, 100
2, 19680, Note_on_c, 0, 64, 100
2, 20136, Note_on_c, 0, 64, 0
2, 20136, Note_on_c, 0, 58, 0
2, 20136, Note_on_c, 0, 55, 0
2, 20136, Note_on_c, 0, 49, 0
2, 20160, Note_on_c, 0, 50, 100
2, 20160, Note_on_c, 0, 57, 100
2, 20160, Note_on_c, 0, 62, 100
2, 20160, Note_on_c, 0, 65, 100
2, 20616, Note_on_c, 0, 65, 0
2, 20616, Note_on_c, 0, 62, 0
2, 20616, Note_on_c, 0, 57, 0
2, 20616, Note_on_c, 0, 50, 0
2, 20640, Note_on_c, 0, 48, 100
2, 20640, Note_on_c, 0, 56, 100
2, 20640, Note_on_c, 0, 62, 100
2, 20640, Note_on_c, 0, 65, 100
2, 21096, Note_on_c, 0, 65, 0
2, 21096, Note_on_c, 0, 62, 0
2, 21096, Note_on_c, 0, 56, 0
2, 21096, Note_on_c, 0, 48, 0
2, 21120, Note_on_c, 0, 47, 100
2, 21120, Note_on_c, 0, 55, 100
2, 21120, Note_on_c, 0, 62, 100
2, 21120, Note_on_c, 0, 65, 100
2, 21576, Note_on_c, 0, 65, 0
2, 21576, Note_on_c, 0, 62, 0
2, 21576, Note_on_c, 0, 55, 0
2, 21576, Note_on_c, 0, 47, 0
2, 21600, Note_on_c, 0, 48, 100
2, 21600, Note_on_c, 0, 55, 100
2, 21600, Note_on_c, 0, 60, 100
2, 21600, Note_on_c, 0, 64, 100
2, 22056, Note_on_c, 0, 64, 0
2, 22056, Note_on_c, 0, 60, 0
2, 22056, Note_on_c, 0, 55, 0
2, 22056, Note_on_c, 0, 48, 0
2, 22080, Note_on_c, 0, 45, 100
2, 22080, Note_on_c, 0, 57, 100
2, 22080, Note_on_c, 0, 60, 100
2, 22080, Note_on_c, 0, 64, 100
2, 22536, Note_on_c, 0, 64, 0
2, 22536, Note_on_c, 0, 60, 0
2, 22536, Note_on_c, 0, 57, 0
2, 22536, Note_on_c, 0, 45, 0
2, 22560, Note_on_c, 0, 40, 100
2, 22560, Note_on_c, 0, 55, 100
2, 22560, Note_on_c, 0, 60, 100
2, 22560, Note_on_c, 0, 64, 100
2, 23016, Note_on_c, 0, 64, 0
2, 23016, Note_on_c, 0, 60, 0
2, 23016, Note_on_c, 0, 55, 0
2, 23016, Note_on_c, 0, 40, 0
2, 23040, Note_on_c, 0, 41, 100
2, 23040, Note_on_c, 0, 57, 100
2, 23040, Note_on_c, 0, 60, 100
2, 23040, Note_on_c, 0, 62, 100
2, 23496, Note_on_c, 0, 62, 0
2, 23496, Note_on_c, 0, 60, 0
2, 23496, Note_on_c, 0, 57, 0
2, 23496, Note_on_c, 0, 41, 0
2, 23520, Note_on_c, 0, 43, 100
2, 23520, Note_on_c, 0, 55, 100
2, 23520, Note_on_c, 0, 59, 100
2, 23520, Note_on_c, 0, 65, 100
2, 23976, Note_on_c, 0, 65, 0
2, 23976, Note_on_c, 0, 59, 0
2, 23976, Note_on_c, 0, 55, 0
2, 23976, Note_on_c, 0, 43, 0
2, 24000, Note_on_c, 0, 43, 100
2, 24000, Note_on_c, 0, 55, 100
2, 24000, Note_on_c, 0, 59, 100
2, 24000, Note_on_c, 0, 65, 100
2, 24456, Note_on_c, 0, 65, 0
2, 24456, Note_on_c, 0, 59, 0
2, 24456, Note_on_c, 0, 55, 0
2, 24456, Note_on_c, 0, 43, 0
2, 24480, Note_on_c, 0, 48, 100
2, 24480, Note_on_c, 0, 36, 100
2, 24480, Note_on_c, 0, 55, 100
2, 24480, Note_on_c, 0, 60, 100
2, 24480, Note_on_c, 0, 64, 100
2, 24936, Note_on_c, 0, 64, 0
2, 24936, Note_on_c, 0, 60, 0
2, 24936, Note_on_c, 0, 55, 0
2, 24936, Note_on_c, 0, 36, 0
2, 24936, Note_on_c, 0, 48, 0
2, 24960, Note_on_c, 0, 48, 100
2, 24960, Note_on_c, 0, 55, 100
2, 25035, Control_c, 0, 7, 73
2, 25111, Control_c, 0, 7, 75
2, 25187, Control_c, 0, 7, 78
2, 25262, Control_c, 0, 7, 81
2, 25338, Control_c, 0, 7, 84
2, 25414, Control_c, 0, 7, 86
2, 25416, Note_on_c, 0, 55, 0
2, 25416, Note_on_c, 0, 48, 0
2, 25440, Note_on_c, 0, 55, 100
2, 25440, Note_on_c, 0, 48, 100
2, 25489, Control_c, 0, 7, 89
2, 25565, Control_c, 0, 7, 92
2, 25640, Control_c, 0, 7, 94
2, 25716, Control_c, 0, 7, 97
2, 25791, Control_c, 0, 7, 100
2, 25896, Note_on_c, 0, 48, 0
2, 25896, Note_on_c, 0, 55, 0
2, 25920, Note_on_c, 0, 67, 100
2, 25920, Note_on_c, 0, 48, 100
2, 25920, Note_on_c, 0, 53, 100
2, 25920, Note_on_c, 0, 55, 100
2, 25920, Note_on_c, 0, 59, 100
2, 26148, Note_on_c, 0, 67, 0
2, 26160, Note_on_c, 0, 74, 100
2, 26376, Note_on_c, 0, 59, 0
2, 26376, Note_on_c, 0, 55, 0
2, 26376, Note_on_c, 0, 53, 0
2, 26376, Note_on_c, 0, 48, 0
2, 26388, Note_on_c, 0, 74, 0
2, 26400, Note_on_c, 0, 79, 100
2, 26400, Note_on_c, 0, 48, 100
2, 26400, Note_on_c, 0, 53, 100
2, 26400, Note_on_c, 0, 55, 100
2, 26400, Note_on_c, 0, 59, 100
2, 26856, Note_on_c, 0, 59, 0
2, 26856, Note_on_c, 0, 55, 0
2, 26856, Note_on_c, 0, 53, 0
2, 26856, Note_on_c, 0, 48, 0
2, 26880, Note_on_c, 0, 48, 100
2, 26880, Note_on_c, 0, 52, 100
2, 26880, Note_on_c, 0, 55, 100
2, 26880, Note_on_c, 0, 60, 100
2, 27108, Note_on_c, 0, 79, 0
2, 27120, Note_on_c, 0, 76, 100
2, 27336, Note_on_c, 0, 60, 0
2, 27336, Note_on_c, 0, 55, 0
2, 27336, Note_on_c, 0, 52, 0
2, 27336, Note_on_c, 0, 48, 0
2, 27348, Note_on_c, 0, 76, 0
2, 27360, Note_on_c, 0, 74, 100
2, 27360, Note_on_c, 0, 48, 100
2, 27360, Note_on_c, 0, 53, 100
2, 27360, Note_on_c, 0, 55, 100
2, 27360, Note_on_c, 0, 59, 100
2, 27588, Note_on_c, 0, 74, 0
2, 27600, Note_on_c, 0, 67, 100
2, 27816, Note_on_c, 0, 59, 0
2, 27816, Note_on_c, 0, 55, 0
2, 27816, Note_on_c, 0, 53, 0
2, 27816, Note_on_c, 0, 48, 0
2, 27828, Note_on_c, 0, 67, 0
2, 27840, Note_on_c, 0, 74, 100
2, 27840, Note_on_c, 0, 48, 100
2, 27840, Note_on_c, 0, 53, 100
2, 27840, Note_on_c, 0, 55, 100
2, 27840, Note_on_c, 0, 59, 100
2, 28296, Note_on_c, 0, 59, 0
2, 28296, Note_on_c, 0, 55, 0
2, 28296, Note_on_c, 0, 53, 0
2, 28296, Note_on_c, 0, 48, 0
2, 28320, Note_on_c, 0, 48, 100
2, 28320, Note_on_c, 0, 52, 100
2, 28320, Note_on_c, 0, 55, 100
2, 28320, Note_on_c, 0, 60, 100
2, 28548, Note_on_c, 0, 74, 0
2, 28560, Note_on_c, 0, 72, 100
2, 28636, Note_on_c, 0, 72, 0
2, 28639, Note_on_c, 0, 74, 100
2, 28715, Note_on_c, 0, 74, 0
2, 28719, Note_on_c, 0, 72, 100
2, 28776, Note_on_c, 0, 60, 0
2, 28776, Note_on_c, 0, 55, 0
2, 28776, Note_on_c, 0, 52, 0
2, 28776, Note_on_c, 0, 48, 0
2, 28795, Note_on_c, 0, 72, 0
2, 28800, Note_on_c, 0, 67, 100
2, 28800, Note_on_c, 0, 48, 100
2, 28800, Note_on_c, 0, 53, 100
2, 28800, Note_on_c, 0, 55, 100
2, 28800, Note_on_c, 0, 59, 100
2, 28875, Control_c, 0, 7, 101
2, 28951, Control_c, 0, 7, 102
2, 29027, Control_c, 0, 7, 103
2, 29028, Note_on_c, 0, 67, 0
2, 29040, Note_on_c, 0, 74, 100
2, 29102, Control_c, 0, 7, 104
2, 29254, Control_c, 0, 7, 105
2, 29256, Note_on_c, 0, 59, 0
2, 29256, Note_on_c, 0, 55, 0
2, 29256, Note_on_c, 0, 53, 0
2, 29256, Note_on_c, 0, 48, 0
2, 29268, Note_on_c, 0, 74, 0
2, 29280, Note_on_c, 0, 79, 100
2, 29280, Note_on_c, 0, 48, 100
2, 29280, Note_on_c, 0, 53, 100
2, 29280, Note_on_c, 0, 55, 100
2, 29280, Note_on_c, 0, 59, 100
2, 29329, Control_c, 0, 7, 106
2, 29400, Control_c, 0, 7, 107
2, 29508, Note_on_c, 0, 79, 0
2, 29520, Note_on_c, 0, 78, 100
2, 29595, Control_c, 0, 7, 106
2, 29671, Control_c, 0, 7, 105
2, 29736, Note_on_c, 0, 59, 0
2, 29736, Note_on_c, 0, 55, 0
2, 29736, Note_on_c, 0, 53, 0
2, 29736, Note_on_c, 0, 48, 0
2, 29747, Control_c, 0, 7, 104
2, 29748, Note_on_c, 0, 78, 0
2, 29760, Note_on_c, 0, 79, 100
2, 29760, Note_on_c, 0, 48, 100
2, 29760, Note_on_c, 0, 53, 100
2, 29760, Note_on_c, 0, 55, 100
2, 29760, Note_on_c, 0, 59, 100
2, 29822, Control_c, 0, 7, 103
2, 29974, Control_c, 0, 7, 102
2, 29988, Note_on_c, 0, 79, 0
2, 30000, Note_on_c, 0, 76, 100
2, 30049, Control_c, 0, 7, 101
2, 30120, Control_c, 0, 7, 100
2, 30216, Note_on_c, 0, 59, 0
2, 30216, Note_on_c, 0, 55, 0
2, 30216, Note_on_c, 0, 53, 0
2, 30216, Note_on_c, 0, 48, 0
2, 30228, Note_on_c, 0, 76, 0
2, 30240, Note_on_c, 0, 74, 100
2, 30240, Note_on_c, 0, 48, 100
2, 30240, Note_on_c, 0, 53, 100
2, 30240, Note_on_c, 0, 55, 100
2, 30240, Note_on_c, 0, 59, 100
2, 30468, Note_on_c, 0, 74, 0
2, 30480, Note_on_c, 0, 67, 100
2, 30696, Note_on_c, 0, 59, 0
2, 30696, Note_on_c, 0, 55, 0
2, 30696, Note_on_c, 0, 53, 0
2, 30696, Note_on_c, 0, 48, 0
2, 30708, Note_on_c, 0, 67, 0
2, 30720, Note_on_c, 0, 72, 100
2, 30720, Note_on_c, 0, 48, 100
2, 30720, Note_on_c, 0, 52, 100
2, 30720, Note_on_c, 0, 55, 100
2, 30720, Note_on_c, 0, 60, 100
2, 31176, Note_on_c, 0, 60, 0
2, 31176, Note_on_c, 0, 55, 0
2, 31176, Note_on_c, 0, 52, 0
2, 31176, Note_on_c, 0, 48, 0
2, 31176, Note_on_c, 0, 72, 0
2, 31200, Note_on_c, 0, 76, 100
2, 31200, Note_on_c, 0, 48, 100
2, 31200, Note_on_c, 0, 52, 100
2, 31200, Note_on_c, 0, 55, 100
2, 31200, Note_on_c, 0, 60, 100
2, 31428, Note_on_c, 0, 76, 0
2, 31440, Note_on_c, 0, 78, 100
2, 31656, Note_on_c, 0, 60, 0
2, 31656, Note_on_c, 0, 55, 0
2, 31656, Note_on_c, 0, 52, 0
2, 31656, Note_on_c, 0, 48, 0
2, 31668, Note_on_c, 0, 78, 0
2, 31680, Note_on_c, 0, 79, 100
2, 31680, Note_on_c, 0, 48, 100
2, 31680, Note_on_c, 0, 53, 100
2, 31680, Note_on_c, 0, 55, 100
2, 31680, Note_on_c, 0, 59, 100
2, 31908, Note_on_c, 0, 79, 0
2, 31920, Note_on_c, 0, 67, 100
2, 32136, Note_on_c, 0, 59, 0
2, 32136, Note_on_c, 0, 55, 0
2, 32136, Note_on_c, 0, 53, 0
2, 32136, Note_on_c, 0, 48, 0
2, 32148, Note_on_c, 0, 67, 0
2, 32160, Note_on_c, 0, 72, 100
2, 32160, Note_on_c, 0, 48, 100
2, 32160, Note_on_c, 0, 52, 100
2, 32160, Note_on_c, 0, 55, 100
2, 32160, Note_on_c, 0, 60, 100
2, 32616, Note_on_c, 0, 60, 0
2, 32616, Note_on_c, 0, 55, 0
2, 32616, Note_on_c, 0, 52, 0
2, 32616, Note_on_c, 0, 48, 0
2, 32616, Note_on_c, 0, 72, 0
2, 32640, Note_on_c, 0, 76, 100
2, 32640, Note_on_c, 0, 48, 100
2, 32640, Note_on_c, 0, 52, 100
2, 32640, Note_on_c, 0, 55, 100
2, 32640, Note_on_c, 0, 60, 100
2, 32868, Note_on_c, 0, 76, 0
2, 32880, Note_on_c, 0, 78, 100
2, 33096, Note_on_c, 0, 60, 0
2, 33096, Note_on_c, 0, 55, 0
2, 33096, Note_on_c, 0, 52, 0
2, 33096, Note_on_c, 0, 48, 0
2, 33108, Note_on_c, 0, 78, 0
2, 33120, Note_on_c, 0, 79, 100
2, 33120, Note_on_c, 0, 48, 100
2, 33120, Note_on_c, 0, 53, 100
2, 33120, Note_on_c, 0, 55, 100
2, 33120, Note_on_c, 0, 59, 100
2, 33348, Note_on_c, 0, 79, 0
2, 33360, Note_on_c, 0, 67, 100
2, 33576, Note_on_c, 0, 59, 0
2, 33576, Note_on_c, 0, 55, 0
2, 33576, Note_on_c, 0, 53, 0
2, 33576, Note_on_c, 0, 48, 0
2, 33588, Note_on_c, 0, 67, 0
2, 33600, Note_on_c, 0, 72, 100
2, 33600, Note_on_c, 0, 48, 100
2, 33600, Note_on_c, 0, 52, 100
2, 33600, Note_on_c, 0, 55, 100
2, 33600, Note_on_c, 0, 60, 100
2, 34056, Note_on_c, 0, 60, 0
2, 34056, Note_on_c, 0, 55, 0
2, 34056, Note_on_c, 0, 52, 0
2, 34056, Note_on_c, 0, 48, 0
2, 34056, Note_on_c, 0, 72, 0
2, 34080, Note_on_c, 0, 76, 100
2, 34080, Note_on_c, 0, 48, 100
2, 34080, Note_on_c, 0, 52, 100
2, 34080, Note_on_c, 0, 55, 100
2, 34080, Note_on_c, 0, 60, 100
2, 34308, Note_on_c, 0, 76, 0
2, 34320, Note_on_c, 0, 78, 100
2, 34536, Note_on_c, 0, 60, 0
2, 34536, Note_on_c, 0, 55, 0
2, 34536, Note_on_c, 0, 52, 0
2, 34536, Note_on_c, 0, 48, 0
2, 34548, Note_on_c, 0, 78, 0
2, 34560, Note_on_c, 0, 79, 100
2, 34560, Note_on_c, 0, 48, 100
2, 34560, Note_on_c, 0, 53, 100
2, 34560, Note_on_c, 0, 55, 100
2, 34560, Note_on_c, 0, 59, 100
2, 34788, Note_on_c, 0, 79, 0
2, 34800, Note_on_c, 0, 81, 100
2, 35016, Note_on_c, 0, 59, 0
2, 35016, Note_on_c, 0, 55, 0
2, 35016, Note_on_c, 0, 53, 0
2, 35016, Note_on_c, 0, 48, 0
2, 35028, Note_on_c, 0, 81, 0
2, 35040, Note_on_c, 0, 79, 100
2, 35040, Note_on_c, 0, 48, 100
2, 35040, Note_on_c, 0, 53, 100
2, 35040, Note_on_c, 0, 55, 100
2, 35040, Note_on_c, 0, 59, 100
2, 35496, Note_on_c, 0, 59, 0
2, 35496, Note_on_c, 0, 55, 0
2, 35496, Note_on_c, 0, 53, 0
2, 35496, Note_on_c, 0, 48, 0
2, 35496, Note_on_c, 0, 79, 0
2, 35520, Note_on_c, 0, 74, 100
2, 35520, Note_on_c, 0, 48, 100
2, 35520, Note_on_c, 0, 53, 100
2, 35520, Note_on_c, 0, 55, 100
2, 35520, Note_on_c, 0, 59, 100
2, 35748, Note_on_c, 0, 74, 0
2, 35760, Note_on_c, 0, 76, 100
2, 35976, Note_on_c, 0, 59, 0
2, 35976, Note_on_c, 0, 55, 0
2, 35976, Note_on_c, 0, 53, 0
2, 35976, Note_on_c, 0, 48, 0
2, 35988, Note_on_c, 0, 76, 0
2, 36000, Note_on_c, 0, 72, 100
2, 36000, Note_on_c, 0, 48, 100
2, 36000, Note_on_c, 0, 52, 100
2, 36000, Note_on_c, 0, 55, 100
2, 36000, Note_on_c, 0, 60, 100
2, 36456, Note_on_c, 0, 60, 0
2, 36456, Note_on_c, 0, 55, 0
2, 36456, Note_on_c, 0, 52, 0
2, 36456, Note_on_c, 0, 48, 0
2, 36456, Note_on_c, 0, 72, 0
2, 36480, Note_on_c, 0, 72, 100
2, 36480, Note_on_c, 0, 76, 100
2, 36480, Note_on_c, 0, 79, 100
2, 36480, Note_on_c, 0, 84, 100
2, 36480, Note_on_c, 0, 48, 100
2, 36480, Note_on_c, 0, 36, 100
2, 36936, Note_on_c, 0, 36, 0
2, 36936, Note_on_c, 0, 48, 0
2, 36936, Note_on_c, 0, 84, 0
2, 36936, Note_on_c, 0, 79, 0
2, 36936, Note_on_c, 0, 76, 0
2, 36936, Note_on_c, 0, 72, 0
2, 37440, Note_on_c, 0, 55, 100
2, 37440, Note_on_c, 0, 43, 100
2, 37440, Note_on_c, 0, 31, 100
2, 37896, Note_on_c, 0, 31, 0
2, 37896, Note_on_c, 0, 43, 0
2, 37896, Note_on_c, 0, 55, 0
2, 37920, Note_on_c, 0, 55, 100
2, 37920, Note_on_c, 0, 43, 100
2, 37920, Note_on_c, 0, 31, 100
2, 38340, Note_on_c, 0, 54, 100
2, 38340, Note_on_c, 0, 42, 100
2, 38376, Note_on_c, 0, 31, 0
2, 38376, Note_on_c, 0, 43, 0
2, 38376, Note_on_c, 0, 55, 0
2, 38400, Note_on_c, 0, 52, 100
2, 38400, Note_on_c, 0, 40, 100
2, 38454, Note_on_c, 0, 42, 0
2, 38454, Note_on_c, 0, 54, 0
2, 38460, Note_on_c, 0, 50, 100
2, 38460, Note_on_c, 0, 38, 100
2, 38514, Note_on_c, 0, 40, 0
2, 38514, Note_on_c, 0, 52, 0
2, 38859, Note_on_c, 0, 50, 0
2, 38880, Note_on_c, 0, 55, 100
2, 38880, Note_on_c, 0, 43, 100
2, 38880, Note_on_c, 0, 31, 100
2, 38916, Note_on_c, 0, 38, 0
2, 39336, Note_on_c, 0, 31, 0
2, 39336, Note_on_c, 0, 43, 0
2, 39336, Note_on_c, 0, 55, 0
2, 39360, Note_on_c, 0, 55, 100
2, 39360, Note_on_c, 0, 43, 100
2, 39360, Note_on_c, 0, 31, 100
2, 39780, Note_on_c, 0, 54, 100
2, 39780, Note_on_c, 0, 42, 100
2, 39816, Note_on_c, 0, 31, 0
2, 39816, Note_on_c, 0, 43, 0
2, 39816, Note_on_c, 0, 55, 0
2, 39840, Note_on_c, 0, 52, 100
2, 39840, Note_on_c, 0, 40, 100
2, 39894, Note_on_c, 0, 42, 0
2, 39894, Note_on_c, 0, 54, 0
2, 39900, Note_on_c, 0, 50, 100
2, 39900, Note_on_c, 0, 38, 100
2, 39954, Note_on_c, 0, 40, 0
2, 39954, Note_on_c, 0, 52, 0
2, 40299, Note_on_c, 0, 50, 0
2, 40320, Note_on_c, 0, 55, 100
2, 40320, Note_on_c, 0, 43, 100
2, 40320, Note_on_c, 0, 31, 100
2, 40356, Note_on_c, 0, 38, 0
2, 40776, Note_on_c, 0, 31, 0
2, 40776, Note_on_c, 0, 43, 0
2, 40776, Note_on_c, 0, 55, 0
2, 40800, Note_on_c, 0, 55, 100
2, 40800, Note_on_c, 0, 43, 100
2, 40800, Note_on_c, 0, 31, 100
2, 41220, Note_on_c, 0, 54, 100
2, 41220, Note_on_c, 0, 42, 100
2, 41256, Note_on_c, 0, 31, 0
2, 41256, Note_on_c, 0, 43, 0
2, 41256, Note_on_c, 0, 55, 0
2, 41280, Note_on_c, 0, 52, 100
2, 41280, Note_on_c, 0, 40, 100
2, 41334, Note_on_c, 0, 42, 0
2, 41334, Note_on_c, 0, 54, 0
2, 41340, Note_on_c, 0, 50, 100
2, 41340, Note_on_c, 0, 38, 100
2, 41394, Note_on_c, 0, 40, 0
2, 41394, Note_on_c, 0, 52, 0
2, 41739, Note_on_c, 0, 50, 0
2, 41760, Note_on_c, 0, 55, 100
2, 41760, Note_on_c, 0, 43, 100
2, 41760, Note_on_c, 0, 31, 100
2, 41796, Note_on_c, 0, 38, 0
2, 42216, Note_on_c, 0, 31, 0
2, 42216, Note_on_c, 0, 43, 0
2, 42216, Note_on_c, 0, 55, 0
2, 42240, Note_on_c, 0, 55, 100
2, 42240, Note_on_c, 0, 43, 100
2, 42240, Note_on_c, 0, 31, 100
2, 42696, Note_on_c, 0, 31, 0
2, 42696, Note_on_c, 0, 43, 0
2, 42696, Note_on_c, 0, 55, 0
2, 42720, Note_on_c, 0, 55, 100
2, 42720, Note_on_c, 0, 43, 100
2, 42720, Note_on_c, 0, 31, 100
2, 42720, Note_on_c, 0, 59, 100
2, 42720, Note_on_c, 0, 65, 100
2, 42795, Control_c, 0, 7, 95
2, 42871, Control_c, 0, 7, 89
2, 42947, Control_c, 0, 7, 84
2, 43022, Control_c, 0, 7, 79
2, 43080, Control_c, 0, 7, 75
2, 43176, Note_on_c, 0, 65, 0
2, 43176, Note_on_c, 0, 59, 0
2, 43176, Note_on_c, 0, 31, 0
2, 43176, Note_on_c, 0, 43, 0
2, 43176, Note_on_c, 0, 55, 0
2, 43200, Note_on_c, 0, 48, 100
2, 43200, Note_on_c, 0, 36, 100
2, 43200, Note_on_c, 0, 64, 100
2, 43200, Note_on_c, 0, 60, 100
2, 43200, Note_on_c, 0, 55, 100
2, 43351, Control_c, 0, 7, 76
2, 43654, Control_c, 0, 7, 77
2, 43656, Note_on_c, 0, 55, 0
2, 43656, Note_on_c, 0, 60, 0
2, 43656, Note_on_c, 0, 64, 0
2, 43656, Note_on_c, 0, 36, 0
2, 43656, Note_on_c, 0, 48, 0
2, 43680, Note_on_c, 0, 64, 100
2, 43680, Note_on_c, 0, 60, 100
2, 43680, Note_on_c, 0, 55, 100
2, 43680, Note_on_c, 0, 48, 100
2, 43680, Note_on_c, 0, 36, 100
2, 43956, Control_c, 0, 7, 78
2, 44136, Note_on_c, 0, 36, 0
2, 44136, Note_on_c, 0, 48, 0
2, 44136, Note_on_c, 0, 55, 0
2, 44136, Note_on_c, 0, 60, 0
2, 44136, Note_on_c, 0, 64, 0
2, 44160, Note_on_c, 0, 64, 100
2, 44160, Note_on_c, 0, 60, 100
2, 44160, Note_on_c, 0, 55, 100
2, 44160, Note_on_c, 0, 48, 100
2, 44160, Note_on_c, 0, 36, 100
2, 44183, Control_c, 0, 7, 79
2, 44485, Control_c, 0, 7, 80
2, 44616, Note_on_c, 0, 36, 0
2, 44616, Note_on_c, 0, 48, 0
2, 44616, Note_on_c, 0, 55, 0
2, 44616, Note_on_c, 0, 60, 0
2, 44616, Note_on_c, 0, 64, 0
2, 44640, Note_on_c, 0, 64, 100
2, 44640, Note_on_c, 0, 60, 100
2, 44640, Note_on_c, 0, 55, 100
2, 44640, Note_on_c, 0, 48, 100
2, 44640, Note_on_c, 0, 36, 100
2, 44787, Control_c, 0, 7, 81
2, 45090, Control_c, 0, 7, 82
2, 45096, Note_on_c, 0, 36, 0
2, 45096, Note_on_c, 0, 48, 0
2, 45096, Note_on_c, 0, 55, 0
2, 45096, Note_on_c, 0, 60, 0
2, 45096, Note_on_c, 0, 64, 0
2, 45120, Note_on_c, 0, 64, 100
2, 45120, Note_on_c, 0, 60, 100
2, 45120, Note_on_c, 0, 55, 100
2, 45120, Note_on_c, 0, 48, 100
2, 45120, Note_on_c, 0, 36, 100
2, 45317, Control_c, 0, 7, 83
2, 45576, Note_on_c, 0, 36, 0
2, 45576, Note_on_c, 0, 48, 0
2, 45576, Note_on_c, 0, 55, 0
2, 45576, Note_on_c, 0, 60, 0
2, 45576, Note_on_c, 0, 64, 0
2, 45600, Note_on_c, 0, 64, 100
2, 45600, Note_on_c, 0, 60, 100
2, 45600, Note_on_c, 0, 55, 100
2, 45600, Note_on_c, 0, 48, 100
2, 45600, Note_on_c, 0, 36, 100
2, 45619, Control_c, 0, 7, 84
2, 45922, Control_c, 0, 7, 85
2, 46056, Note_on_c, 0, 36, 0
2, 46056, Note_on_c, 0, 48, 0
2, 46056, Note_on_c, 0, 55, 0
2, 46056, Note_on_c, 0, 60, 0
2, 46056, Note_on_c, 0, 64, 0
2, 46080, Note_on_c, 0, 64, 100
2, 46080, Note_on_c, 0, 60, 100
2, 46080, Note_on_c, 0, 55, 100
2, 46080, Note_on_c, 0, 48, 100
2, 46080, Note_on_c, 0, 36, 100
2, 46148, Control_c, 0, 7, 86
2, 46451, Control_c, 0, 7, 87
2, 46536, Note_on_c, 0, 36, 0
2, 46536, Note_on_c, 0, 48, 0
2, 46536, Note_on_c, 0, 55, 0
2, 46536, Note_on_c, 0, 60, 0
2, 46536, Note_on_c, 0, 64, 0
2, 46560, Note_on_c, 0, 64, 100
2, 46560, Note_on_c, 0, 60, 100
2, 46560, Note_on_c, 0, 55, 100
2, 46560, Note_on_c, 0, 48, 100
2, 46560, Note_on_c, 0, 36, 100
2, 46753, Control_c, 0, 7, 88
2, 46980, Control_c, 0, 7, 89
2, 47016, Note_on_c, 0, 36, 0
2, 47016, Note_on_c, 0, 48, 0
2, 47016, Note_on_c, 0, 55, 0
2, 47016, Note_on_c, 0, 60, 0
2, 47016, Note_on_c, 0, 64, 0
2, 47040, Note_on_c, 0, 64, 100
2, 47040, Note_on_c, 0, 60, 100
2, 47040, Note_on_c, 0, 55, 100
2, 47040, Note_on_c, 0, 48, 100
2, 47040, Note_on_c, 0, 36, 100
2, 47282, Control_c, 0, 7, 90
2, 47496, Note_on_c, 0, 36, 0
2, 47496, Note_on_c, 0, 48, 0
2, 47496, Note_on_c, 0, 55, 0
2, 47496, Note_on_c, 0, 60, 0
2, 47496, Note_on_c, 0, 64, 0
2, 47520, Note_on_c, 0, 54, 100
2, 47520, Note_on_c, 0, 60, 100
2, 47520, Note_on_c, 0, 62, 100
2, 47520, Note_on_c, 0, 45, 100
2, 47520, Note_on_c, 0, 33, 100
2, 50352, Note_on_c, 0, 33, 0
2, 50352, Note_on_c, 0, 45, 0
2, 50352, Note_on_c, 0, 62, 0
2, 50352, Note_on_c, 0, 60, 0
2, 50352, Note_on_c, 0, 54, 0
2, 51840, Control_c, 0, 7, 70
2, 51840, Note_on_c, 0, 31, 100
2, 51840, Note_on_c, 0, 43, 100
2, 51840, Note_on_c, 0, 55, 100
2, 51840, Note_on_c, 0, 59, 100
2, 51840, Note_on_c, 0, 62, 100
2, 52296, Note_on_c, 0, 62, 0
2, 52296, Note_on_c, 0, 59, 0
2, 52296, Note_on_c, 0, 55, 0
2, 52320, Note_on_c, 0, 55, 100
2, 52320, Note_on_c, 0, 59, 100
2, 52320, Note_on_c, 0, 65, 100
2, 52776, Note_on_c, 0, 65, 0
2, 52776, Note_on_c, 0, 59, 0
2, 52776, Note_on_c, 0, 55, 0
2, 52800, Note_on_c, 0, 55, 100
2, 52800, Note_on_c, 0, 59, 100
2, 52800, Note_on_c, 0, 65, 100
2, 53256, Note_on_c, 0, 43, 0
2, 53256, Note_on_c, 0, 31, 0
2, 53256, Note_on_c, 0, 65, 0
2, 53256, Note_on_c, 0, 59, 0
2, 53256, Note_on_c, 0, 55, 0
2, 53280, Note_on_c, 0, 48, 100
2, 53760, Note_on_c, 0, 55, 100
2, 53760, Note_on_c, 0, 60, 100
2, 53760, Note_on_c, 0, 64, 100
2, 54216, Note_on_c, 0, 64, 0
2, 54216, Note_on_c, 0, 60, 0
2, 54216, Note_on_c, 0, 55, 0
2, 54240, Note_on_c, 0, 55, 100
2, 54240, Note_on_c, 0, 60, 100
2, 54240, Note_on_c, 0, 64, 100
2, 54696, Note_on_c, 0, 64, 0
2, 54696, Note_on_c, 0, 60, 0
2, 54696, Note_on_c, 0, 55, 0
2, 54696, Note_on_c, 0, 48, 0
2, 54720, Note_on_c, 0, 43, 100
2, 55200, Note_on_c, 0, 55, 100
2, 55200, Note_on_c, 0, 59, 100
2, 55200, Note_on_c, 0, 65, 100
2, 55656, Note_on_c, 0, 65, 0
2, 55656, Note_on_c, 0, 59, 0
2, 55656, Note_on_c, 0, 55, 0
2, 55680, Note_on_c, 0, 55, 100
2, 55680, Note_on_c, 0, 59, 100
2, 55680, Note_on_c, 0, 65, 100
2, 56136, Note_on_c, 0, 43, 0
2, 56136, Note_on_c, 0, 65, 0
2, 56136, Note_on_c, 0, 59, 0
2, 56136, Note_on_c, 0, 55, 0
2, 56160, Note_on_c, 0, 48, 100
2, 56640, Note_on_c, 0, 55, 100
2, 56640, Note_on_c, 0, 60, 100
2, 56640, Note_on_c, 0, 64, 100
2, 57096, Note_on_c, 0, 64, 0
2, 57096, Note_on_c, 0, 60, 0
2, 57096, Note_on_c, 0, 55, 0
2, 57096, Note_on_c, 0, 48, 0
2, 57120, Note_on_c, 0, 49, 100
2, 57120, Note_on_c, 0, 55, 100
2, 57120, Note_on_c, 0, 58, 100
2, 57120, Note_on_c, 0, 64, 100
2, 57576, Note_on_c, 0, 64, 0
2, 57576, Note_on_c, 0, 58, 0
2, 57576, Note_on_c, 0, 55, 0
2, 57576, Note_on_c, 0, 49, 0
2, 57600, Note_on_c, 0, 50, 100
2, 57600, Note_on_c, 0, 57, 100
2, 57600, Note_on_c, 0, 62, 100
2, 57600, Note_on_c, 0, 65, 100
2, 58056, Note_on_c, 0, 65, 0
2, 58056, Note_on_c, 0, 62, 0
2, 58056, Note_on_c, 0, 57, 0
2, 58056, Note_on_c, 0, 50, 0
2, 58080, Note_on_c, 0, 48, 100
2, 58080, Note_on_c, 0, 56, 100
2, 58080, Note_on_c, 0, 62, 100
2, 58080, Note_on_c, 0, 65, 100
2, 58536, Note_on_c, 0, 65, 0
2, 58536, Note_on_c, 0, 62, 0
2, 58536, Note_on_c, 0, 56, 0
2, 58536, Note_on_c, 0, 48, 0
2, 58560, Note_on_c, 0, 47, 100
2, 58560, Note_on_c, 0, 55, 100
2, 58560, Note_on_c, 0, 62, 100
2, 58560, Note_on_c, 0, 65, 100
2, 59016, Note_on_c, 0, 65, 0
2, 59016, Note_on_c, 0, 62, 0
2, 59016, Note_on_c, 0, 55, 0
2, 59016, Note_on_c, 0, 47, 0
2, 59040, Note_on_c, 0, 48, 100
2, 59040, Note_on_c, 0, 55, 100
2, 59040, Note_on_c, 0, 60, 100
2, 59040, Note_on_c, 0, 64, 100
2, 59496, Note_on_c, 0, 64, 0
2, 59496, Note_on_c, 0, 60, 0
2, 59496, Note_on_c, 0, 55, 0
2, 59496, Note_on_c, 0, 48, 0
2, 59520, Note_on_c, 0, 45, 100
2, 59520, Note_on_c, 0, 57, 100
2, 59520, Note_on_c, 0, 60, 100
2, 59520, Note_on_c, 0, 64, 100
2, 59976, Note_on_c, 0, 64, 0
2, 59976, Note_on_c, 0, 60, 0
2, 59976, Note_on_c, 0, 57, 0
2, 59976, Note_on_c, 0, 45, 0
2, 60000, Note_on_c, 0, 40, 100
2, 60000, Note_on_c, 0, 55, 100
2, 60000, Note_on_c, 0, 60, 100
2, 60000, Note_on_c, 0, 64, 100
2, 60456, Note_on_c, 0, 64, 0
2, 60456, Note_on_c, 0, 60, 0
2, 60456, Note_on_c, 0, 55, 0
2, 60456, Note_on_c, 0, 40, 0
2, 60480, Note_on_c, 0, 41, 100
2, 60480, Note_on_c, 0, 57, 100
2, 60480, Note_on_c, 0, 60, 100
2, 60480, Note_on_c, 0, 62, 100
2, 60936, Note_on_c, 0, 62, 0
2, 60936, Note_on_c, 0, 60, 0
2, 60936, Note_on_c, 0, 57, 0
2, 60936, Note_on_c, 0, 41, 0
2, 60960, Note_on_c, 0, 43, 100
2, 60960, Note_on_c, 0, 55, 100
2, 60960, Note_on_c, 0, 59, 100
2, 60960, Note_on_c, 0, 65, 100
2, 61416, Note_on_c, 0, 65, 0
2, 61416, Note_on_c, 0, 59, 0
2, 61416, Note_on_c, 0, 55, 0
2, 61416, Note_on_c, 0, 43, 0
2, 61440, Note_on_c, 0, 43, 100
2, 61440, Note_on_c, 0, 55, 100
2, 61440, Note_on_c, 0, 59, 100
2, 61440, Note_on_c, 0, 65, 100
2, 61896, Note_on_c, 0, 65, 0
2, 61896, Note_on_c, 0, 59, 0
2, 61896, Note_on_c, 0, 55, 0
2, 61896, Note_on_c, 0, 43, 0
2, 61920, Note_on_c, 0, 48, 100
2, 61920, Note_on_c, 0, 36, 100
2, 61920, Note_on_c, 0, 55, 100
2, 61920, Note_on_c, 0, 60, 100
2, 61920, Note_on_c, 0, 64, 100
2, 61995, Control_c, 0, 7, 72
2, 62071, Control_c, 0, 7, 73
2, 62147, Control_c, 0, 7, 75
2, 62222, Control_c, 0, 7, 77
2, 62298, Control_c, 0, 7, 79
2, 62374, Control_c, 0, 7, 80
2, 62376, Note_on_c, 0, 64, 0
2, 62376, Note_on_c, 0, 60, 0
2, 62376, Note_on_c, 0, 55, 0
2, 62376, Note_on_c, 0, 36, 0
2, 62376, Note_on_c, 0, 48, 0
2, 62400, Note_on_c, 0, 55, 100
2, 62400, Note_on_c, 0, 60, 100
2, 62400, Note_on_c, 0, 64, 100
2, 62400, Note_on_c, 0, 48, 100
2, 62400, Note_on_c, 0, 36, 100
2, 62449, Control_c, 0, 7, 82
2, 62525, Control_c, 0, 7, 84
2, 62600, Control_c, 0, 7, 85
2, 62676, Control_c, 0, 7, 87
2, 62751, Control_c, 0, 7, 89
2, 62827, Control_c, 0, 7, 91
2, 62856, Note_on_c, 0, 36, 0
2, 62856, Note_on_c, 0, 48, 0
2, 62856, Note_on_c, 0, 64, 0
2, 62856, Note_on_c, 0, 60, 0
2, 62856, Note_on_c, 0, 55, 0
2, 62880, Note_on_c, 0, 55, 100
2, 62880, Note_on_c, 0, 60, 100
2, 62880, Note_on_c, 0, 64, 100
2, 62880, Note_on_c, 0, 48, 100
2, 62880, Note_on_c, 0, 36, 100
2, 62903, Control_c, 0, 7, 92
2, 62978, Control_c, 0, 7, 94
2, 63054, Control_c, 0, 7, 96
2, 63130, Control_c, 0, 7, 97
2, 63205, Control_c, 0, 7, 99
2, 63240, Control_c, 0, 7, 100
2, 63336, Note_on_c, 0, 36, 0
2, 63336, Note_on_c, 0, 48, 0
2, 63336, Note_on_c, 0, 64, 0
2, 63336, Note_on_c, 0, 60, 0
2, 63336, Note_on_c, 0, 55, 0
2, 63360, Note_on_c, 0, 67, 100
2, 63360, Note_on_c, 0, 48, 100
2, 63360, Note_on_c, 0, 53, 100
2, 63360, Note_on_c, 0, 55, 100
2, 63360, Note_on_c, 0, 59, 100
2, 63588, Note_on_c, 0, 67, 0
2, 63600, Note_on_c, 0, 74, 100
2, 63816, Note_on_c, 0, 59, 0
2, 63816, Note_on_c, 0, 55, 0
2, 63816, Note_on_c, 0, 53, 0
2, 63816, Note_on_c, 0, 48, 0
2, 63828, Note_on_c, 0, 74, 0
2, 63840, Note_on_c, 0, 79, 100
2, 63840, Note_on_c, 0, 48, 100
2, 63840, Note_on_c, 0, 53, 100
2, 63840, Note_on_c, 0, 55, 100
2, 63840, Note_on_c, 0, 59, 100
2, 64296, Note_on_c, 0, 59, 0
2, 64296, Note_on_c, 0, 55, 0
2, 64296, Note_on_c, 0, 53, 0
2, 64296, Note_on_c, 0, 48, 0
2, 64320, Note_on_c, 0, 48, 100
2, 64320, Note_on_c, 0, 52, 100
2, 64320, Note_on_c, 0, 55, 100
2, 64320, Note_on_c, 0, 60, 100
2, 64548, Note_on_c, 0, 79, 0
2, 64560, Note_on_c, 0, 76, 100
2, 64776, Note_on_c, 0, 60, 0
2, 64776, Note_on_c, 0, 55, 0
2, 64776, Note_on_c, 0, 52, 0
2, 64776, Note_on_c, 0, 48, 0
2, 64788, Note_on_c, 0, 76, 0
2, 64800, Note_on_c, 0, 74, 100
2, 64800, Note_on_c, 0, 48, 100
2, 64800, Note_on_c, 0, 53, 100
2, 64800, Note_on_c, 0, 55, 100
2, 64800, Note_on_c, 0, 59, 100
2, 65028, Note_on_c, 0, 74, 0
2, 65040, Note_on_c, 0, 67, 100
2, 65256, Note_on_c, 0, 59, 0
2, 65256, Note_on_c, 0, 55, 0
2, 65256, Note_on_c, 0, 53, 0
2, 65256, Note_on_c, 0, 48, 0
2, 65268, Note_on_c, 0, 67, 0
2, 65280, Note_on_c, 0, 74, 100
2, 65280, Note_on_c, 0, 48, 100
2, 65280, Note_on_c, 0, 53, 100
2, 65280, Note_on_c, 0, 55, 100
2, 65280, Note_on_c, 0, 59, 100
2, 65736, Note_on_c, 0, 59, 0
2, 65736, Note_on_c, 0, 55, 0
2, 65736, Note_on_c, 0, 53, 0
2, 65736, Note_on_c, 0, 48, 0
2, 65760, Note_on_c, 0, 48, 100
2, 65760, Note_on_c, 0, 52, 100
2, 65760, Note_on_c, 0, 55, 100
2, 65760, Note_on_c, 0, 60, 100
2, 65988, Note_on_c, 0, 74, 0
2, 66000, Note_on_c, 0, 72, 100
2, 66076, Note_on_c, 0, 72, 0
2, 66079, Note_on_c, 0, 74, 100
2, 66155, Note_on_c, 0, 74, 0
2, 66159, Note_on_c, 0, 72, 100
2, 66216, Note_on_c, 0, 60, 0
2, 66216, Note_on_c, 0, 55, 0
2, 66216, Note_on_c, 0, 52, 0
2, 66216, Note_on_c, 0, 48, 0
2, 66235, Note_on_c, 0, 72, 0
2, 66240, Note_on_c, 0, 67, 100
2, 66240, Note_on_c, 0, 48, 100
2, 66240, Note_on_c, 0, 53, 100
2, 66240, Note_on_c, 0, 55, 100
2, 66240, Note_on_c, 0, 59, 100
2, 66315, Control_c, 0, 7, 101
2, 66467, Control_c, 0, 7, 102
2, 66468, Note_on_c, 0, 67, 0
2, 66480, Note_on_c, 0, 74, 100
2, 66542, Control_c, 0, 7, 103
2, 66618, Control_c, 0, 7, 104
2, 66696, Note_on_c, 0, 59, 0
2, 66696, Note_on_c, 0, 55, 0
2, 66696, Note_on_c, 0, 53, 0
2, 66696, Note_on_c, 0, 48, 0
2, 66708, Note_on_c, 0, 74, 0
2, 66720, Note_on_c, 0, 79, 100
2, 66720, Note_on_c, 0, 48, 100
2, 66720, Note_on_c, 0, 53, 100
2, 66720, Note_on_c, 0, 55, 100
2, 66720, Note_on_c, 0, 59, 100
2, 66769, Control_c, 0, 7, 105
2, 66845, Control_c, 0, 7, 106
2, 66920, Control_c, 0, 7, 107
2, 66948, Note_on_c, 0, 79, 0
2, 66960, Note_on_c, 0, 78, 100
2, 67155, Control_c, 0, 7, 106
2, 67176, Note_on_c, 0, 59, 0
2, 67176, Note_on_c, 0, 55, 0
2, 67176, Note_on_c, 0, 53, 0
2, 67176, Note_on_c, 0, 48, 0
2, 67188, Note_on_c, 0, 78, 0
2, 67200, Note_on_c, 0, 79, 100
2, 67200, Note_on_c, 0, 48, 100
2, 67200, Note_on_c, 0, 53, 100
2, 67200, Note_on_c, 0, 55, 100
2, 67200, Note_on_c, 0, 59, 100
2, 67231, Control_c, 0, 7, 105
2, 67307, Control_c, 0, 7, 104
2, 67382, Control_c, 0, 7, 103
2, 67428, Note_on_c, 0, 79, 0
2, 67440, Note_on_c, 0, 76, 100
2, 67458, Control_c, 0, 7, 101
2, 67534, Control_c, 0, 7, 100
2, 67656, Note_on_c, 0, 59, 0
2, 67656, Note_on_c, 0, 55, 0
2, 67656, Note_on_c, 0, 53, 0
2, 67656, Note_on_c, 0, 48, 0
2, 67668, Note_on_c, 0, 76, 0
2, 67680, Note_on_c, 0, 74, 100
2, 67680, Note_on_c, 0, 48, 100
2, 67680, Note_on_c, 0, 53, 100
2, 67680, Note_on_c, 0, 55, 100
2, 67680, Note_on_c, 0, 59, 100
2, 67908, Note_on_c, 0, 74, 0
2, 67920, Note_on_c, 0, 67, 100
2, 68136, Note_on_c, 0, 59, 0
2, 68136, Note_on_c, 0, 55, 0
2, 68136, Note_on_c, 0, 53, 0
2, 68136, Note_on_c, 0, 48, 0
2, 68148, Note_on_c, 0, 67, 0
2, 68160, Note_on_c, 0, 72, 100
2, 68160, Note_on_c, 0, 48, 100
2, 68160, Note_on_c, 0, 52, 100
2, 68160, Note_on_c, 0, 55, 100
2, 68160, Note_on_c, 0, 60, 100
2, 68616, Note_on_c, 0, 60, 0
2, 68616, Note_on_c, 0, 55, 0
2, 68616, Note_on_c, 0, 52, 0
2, 68616, Note_on_c, 0, 48, 0
2, 68616, Note_on_c, 0, 72, 0
2, 68640, Note_on_c, 0, 76, 100
2, 68640, Note_on_c, 0, 48, 100
2, 68640, Note_on_c, 0, 52, 100
2, 68640, Note_on_c, 0, 55, 100
2, 68640, Note_on_c, 0, 60, 100
2, 68868, Note_on_c, 0, 76, 0
2, 68880, Note_on_c, 0, 78, 100
2, 69096, Note_on_c, 0, 60, 0
2, 69096, Note_on_c, 0, 55, 0
2, 69096, Note_on_c, 0, 52, 0
2, 69096, Note_on_c, 0, 48, 0
2, 69108, Note_on_c, 0, 78, 0
2, 69120, Note_on_c, 0, 79, 100
2, 69120, Note_on_c, 0, 48, 100
2, 69120, Note_on_c, 0, 53, 100
2, 69120, Note_on_c, 0, 55, 100
2, 69120, Note_on_c, 0, 59, 100
2, 69348, Note_on_c, 0, 79, 0
2, 69360, Note_on_c, 0, 67, 100
2, 69576, Note_on_c, 0, 59, 0
2, 69576, Note_on_c, 0, 55, 0
2, 69576, Note_on_c, 0, 53, 0
2, 69576, Note_on_c, 0, 48, 0
2, 69588, Note_on_c, 0, 67, 0
2, 69600, Note_on_c, 0, 72, 100
2, 69600, Note_on_c, 0, 48, 100
2, 69600, Note_on_c, 0, 52, 100
2, 69600, Note_on_c, 0, 55, 100
2, 69600, Note_on_c, 0, 60, 100
2, 70056, Note_on_c, 0, 60, 0
2, 70056, Note_on_c, 0, 55, 0
2, 70056, Note_on_c, 0, 52, 0
2, 70056, Note_on_c, 0, 48, 0
2, 70056, Note_on_c, 0, 72, 0
2, 70080, Note_on_c, 0, 76, 100
2, 70080, Note_on_c, 0, 48, 100
2, 70080, Note_on_c, 0, 52, 100
2, 70080, Note_on_c, 0, 55, 100
2, 70080, Note_on_c, 0, 60, 100
2, 70308, Note_on_c, 0, 76, 0
2, 70320, Note_on_c, 0, 78, 100
2, 70536, Note_on_c, 0, 60, 0
2, 70536, Note_on_c, 0, 55, 0
2, 70536, Note_on_c, 0, 52, 0
2, 70536, Note_on_c, 0, 48, 0
2, 70548, Note_on_c, 0, 78, 0
2, 70560, Note_on_c, 0, 79, 100
2, 70560, Note_on_c, 0, 48, 100
2, 70560, Note_on_c, 0, 53, 100
2, 70560, Note_on_c, 0, 55, 100
2, 70560, Note_on_c, 0, 59, 100
2, 70788, Note_on_c, 0, 79, 0
2, 70800, Note_on_c, 0, 67, 100
2, 71016, Note_on_c, 0, 59, 0
2, 71016, Note_on_c, 0, 55, 0
2, 71016, Note_on_c, 0, 53, 0
2, 71016, Note_on_c, 0, 48, 0
2, 71028, Note_on_c, 0, 67, 0
2, 71040, Note_on_c, 0, 72, 100
2, 71040, Note_on_c, 0, 48, 100
2, 71040, Note_on_c, 0, 52, 100
2, 71040, Note_on_c, 0, 55, 100
2, 71040, Note_on_c, 0, 60, 100
2, 71496, Note_on_c, 0, 60, 0
2, 71496, Note_on_c, 0, 55, 0
2, 71496, Note_on_c, 0, 52, 0
2, 71496, Note_on_c, 0, 48, 0
2, 71496, Note_on_c, 0, 72, 0
2, 71520, Note_on_c, 0, 76, 100
2, 71520, Note_on_c, 0, 48, 100
2, 71520, Note_on_c, 0, 52, 100
2, 71520, Note_on_c, 0, 55, 100
2, 71520, Note_on_c, 0, 60, 100
2, 71748, Note_on_c, 0, 76, 0
2, 71760, Note_on_c, 0, 78, 100
2, 71976, Note_on_c, 0, 60, 0
2, 71976, Note_on_c, 0, 55, 0
2, 71976, Note_on_c, 0, 52, 0
2, 71976, Note_on_c, 0, 48, 0
2, 71988, Note_on_c, 0, 78, 0
2, 72000, Note_on_c, 0, 79, 100
2, 72000, Note_on_c, 0, 48, 100
2, 72000, Note_on_c, 0, 53, 100
2, 72000, Note_on_c, 0, 55, 100
2, 72000, Note_on_c, 0, 59, 100
2, 72228, Note_on_c, 0, 79, 0
2, 72240, Note_on_c, 0, 81, 100
2, 72456, Note_on_c, 0, 59, 0
2, 72456, Note_on_c, 0, 55, 0
2, 72456, Note_on_c, 0, 53, 0
2, 72456, Note_on_c, 0, 48, 0
2, 72468, Note_on_c, 0, 81, 0
2, 72480, Note_on_c, 0, 79, 100
2, 72480, Note_on_c, 0, 48, 100
2, 72480, Note_on_c, 0, 53, 100
2, 72480, Note_on_c, 0, 55, 100
2, 72480, Note_on_c, 0, 59, 100
2, 72936, Note_on_c, 0, 59, 0
2, 72936, Note_on_c, 0, 55, 0
2, 72936, Note_on_c, 0, 53, 0
2, 72936, Note_on_c, 0, 48, 0
2, 72936, Note_on_c, 0, 79, 0
2, 72960, Note_on_c, 0, 74, 100
2, 72960, Note_on_c, 0, 48, 100
2, 72960, Note_on_c, 0, 53, 100
2, 72960, Note_on_c, 0, 55, 100
2, 72960, Note_on_c, 0, 59, 100
2, 73188, Note_on_c, 0, 74, 0
2, 73200, Note_on_c, 0, 76, 100
2, 73416, Note_on_c, 0, 59, 0
2, 73416, Note_on_c, 0, 55, 0
2, 73416, Note_on_c, 0, 53, 0
2, 73416, Note_on_c, 0, 48, 0
2, 73428, Note_on_c, 0, 76, 0
2, 73440, Note_on_c, 0, 72, 100
2, 73440, Note_on_c, 0, 48, 100
2, 73440, Note_on_c, 0, 52, 100
2, 73440, Note_on_c, 0, 55, 100
2, 73440, Note_on_c, 0, 60, 100
2, 73896, Note_on_c, 0, 60, 0
2, 73896, Note_on_c, 0, 55, 0
2, 73896, Note_on_c, 0, 52, 0
2, 73896, Note_on_c, 0, 48, 0
2, 73896, Note_on_c, 0, 72, 0
2, 73920, Note_on_c, 0, 72, 100
2, 73920, Note_on_c, 0, 76, 100
2, 73920, Note_on_c, 0, 79, 100
2, 73920, Note_on_c, 0, 84, 100
2, 73920, Note_on_c, 0, 48, 100
2, 73920, Note_on_c, 0, 36, 100
2, 74376, Note_on_c, 0, 36, 0
2, 74376, Note_on_c, 0, 48, 0
2, 74376, Note_on_c, 0, 84, 0
2, 74376, Note_on_c, 0, 79, 0
2, 74376, Note_on_c, 0, 76, 0
2, 74376, Note_on_c, 0, 72, 0
2, 74880, Control_c, 0, 7, 110
2, 74880, Key_signature, 0, "major"
2, 74880, Note_on_c, 0, 55, 100
2, 74880, Note_on_c, 0, 43, 100
2, 74880, Note_on_c, 0, 31, 100
2, 75336, Note_on_c, 0, 31, 0
2, 75336, Note_on_c, 0, 43, 0
2, 75336, Note_on_c, 0, 55, 0
2, 75360, Note_on_c, 0, 55, 100
2, 75360, Note_on_c, 0, 43, 100
2, 75360, Note_on_c, 0, 31, 100
2, 75780, Note_on_c, 0, 54, 100
2, 75780, Note_on_c, 0, 42, 100
2, 75816, Note_on_c, 0, 31, 0
2, 75816, Note_on_c, 0, 43, 0
2, 75816, Note_on_c, 0, 55, 0
2, 75840, Note_on_c, 0, 52, 100
2, 75840, Note_on_c, 0, 40, 100
2, 75894, Note_on_c, 0, 42, 0
2, 75894, Note_on_c, 0, 54, 0
2, 75900, Note_on_c, 0, 50, 100
2, 75900, Note_on_c, 0, 38, 100
2, 75954, Note_on_c, 0, 40, 0
2, 75954, Note_on_c, 0, 52, 0
2, 76299, Note_on_c, 0, 50, 0
2, 76320, Note_on_c, 0, 55, 100
2, 76320, Note_on_c, 0, 43, 100
2, 76320, Note_on_c, 0, 31, 100
2, 76356, Note_on_c, 0, 38, 0
2, 76776, Note_on_c, 0, 31, 0
2, 76776, Note_on_c, 0, 43, 0
2, 76776, Note_on_c, 0, 55, 0
2, 76800, Note_on_c, 0, 55, 100
2, 76800, Note_on_c, 0, 43, 100
2, 76800, Note_on_c, 0, 31, 100
2, 77220, Note_on_c, 0, 54, 100
2, 77220, Note_on_c, 0, 42, 100
2, 77256, Note_on_c, 0, 31, 0
2, 77256, Note_on_c, 0, 43, 0
2, 77256, Note_on_c, 0, 55, 0
2, 77280, Note_on_c, 0, 52, 100
2, 77280, Note_on_c, 0, 40, 100
2, 77334, Note_on_c, 0, 42, 0
2, 77334, Note_on_c, 0, 54, 0
2, 77340, Note_on_c, 0, 50, 100
2, 77340, Note_on_c, 0, 38, 100
2, 77394, Note_on_c, 0, 40, 0
2, 77394, Note_on_c, 0, 52, 0
2, 77739, Note_on_c, 0, 50, 0
2, 77760, Note_on_c, 0, 55, 100
2, 77760, Note_on_c, 0, 43, 100
2, 77760, Note_on_c, 0, 31, 100
2, 77796, Note_on_c, 0, 38, 0
2, 78216, Note_on_c, 0, 31, 0
2, 78216, Note_on_c, 0, 43, 0
2, 78216, Note_on_c, 0, 55, 0
2, 78240, Note_on_c, 0, 55, 100
2, 78240, Note_on_c, 0, 43, 100
2, 78240, Note_on_c, 0, 31, 100
2, 78660, Note_on_c, 0, 54, 100
2, 78660, Note_on_c, 0, 42, 100
2, 78696, Note_on_c, 0, 31, 0
2, 78696, Note_on_c, 0, 43, 0
2, 78696, Note_on_c, 0, 55, 0
2, 78720, Note_on_c, 0, 52, 100
2, 78720, Note_on_c, 0, 40, 100
2, 78774, Note_on_c, 0, 42, 0
2, 78774, Note_on_c, 0, 54, 0
2, 78780, Note_on_c, 0, 50, 100
2, 78780, Note_on_c, 0, 38, 100
2, 78834, Note_on_c, 0, 40, 0
2, 78834, Note_on_c, 0, 52, 0
2, 79179, Note_on_c, 0, 50, 0
2, 79200, Note_on_c, 0, 55, 100
2, 79200, Note_on_c, 0, 43, 100
2, 79200, Note_on_c, 0, 31, 100
2, 79236, Note_on_c, 0, 38, 0
2, 79656, Note_on_c, 0, 31, 0
2, 79656, Note_on_c, 0, 43, 0
2, 79656, Note_on_c, 0, 55, 0
2, 79680, Note_on_c, 0, 55, 100
2, 79680, Note_on_c, 0, 43, 100
2, 79680, Note_on_c, 0, 31, 100
2, 80136, Note_on_c, 0, 31, 0
2, 80136, Note_on_c, 0, 43, 0
2, 80136, Note_on_c, 0, 55, 0
2, 80160, Note_on_c, 0, 55, 100
2, 80160, Note_on_c, 0, 43, 100
2, 80160, Note_on_c, 0, 31, 100
2, 80160, Note_on_c, 0, 59, 100
2, 80160, Note_on_c, 0, 65, 100
2, 80235, Control_c, 0, 7, 104
2, 80311, Control_c, 0, 7, 98
2, 80387, Control_c, 0, 7, 93
2, 80462, Control_c, 0, 7, 87
2, 80538, Control_c, 0, 7, 81
2, 80580, Control_c, 0, 7, 78
2, 80616, Note_on_c, 0, 65, 0
2, 80616, Note_on_c, 0, 59, 0
2, 80616, Note_on_c, 0, 31, 0
2, 80616, Note_on_c, 0, 43, 0
2, 80616, Note_on_c, 0, 55, 0
2, 80640, Note_on_c, 0, 48, 100
2, 80640, Note_on_c, 0, 36, 100
2, 80640, Note_on_c, 0, 64, 100
2, 80640, Note_on_c, 0, 60, 100
2, 80640, Note_on_c, 0, 55, 100
2, 80791, Control_c, 0, 7, 79
2, 81018, Control_c, 0, 7, 80
2, 81096, Note_on_c, 0, 55, 0
2, 81096, Note_on_c, 0, 60, 0
2, 81096, Note_on_c, 0, 64, 0
2, 81096, Note_on_c, 0, 36, 0
2, 81096, Note_on_c, 0, 48, 0
2, 81120, Note_on_c, 0, 48, 100
2, 81120, Note_on_c, 0, 36, 100
2, 81120, Note_on_c, 0, 64, 100
2, 81120, Note_on_c, 0, 60, 100
2, 81120, Note_on_c, 0, 55, 100
2, 81320, Control_c, 0, 7, 81
2, 81547, Control_c, 0, 7, 82
2, 81576, Note_on_c, 0, 55, 0
2, 81576, Note_on_c, 0, 60, 0
2, 81576, Note_on_c, 0, 64, 0
2, 81576, Note_on_c, 0, 36, 0
2, 81576, Note_on_c, 0, 48, 0
2, 81600, Note_on_c, 0, 48, 100
2, 81600, Note_on_c, 0, 36, 100
2, 81600, Note_on_c, 0, 64, 100
2, 81600, Note_on_c, 0, 60, 100
2, 81600, Note_on_c, 0, 55, 100
2, 81774, Control_c, 0, 7, 83
2, 82001, Control_c, 0, 7, 84
2, 82056, Note_on_c, 0, 55, 0
2, 82056, Note_on_c, 0, 60, 0
2, 82056, Note_on_c, 0, 64, 0
2, 82056, Note_on_c, 0, 36, 0
2, 82056, Note_on_c, 0, 48, 0
2, 82080, Note_on_c, 0, 48, 100
2, 82080, Note_on_c, 0, 36, 100
2, 82080, Note_on_c, 0, 64, 100
2, 82080, Note_on_c, 0, 60, 100
2, 82080, Note_on_c, 0, 55, 100
2, 82303, Control_c, 0, 7, 85
2, 82530, Control_c, 0, 7, 86
2, 82536, Note_on_c, 0, 55, 0
2, 82536, Note_on_c, 0, 60, 0
2, 82536, Note_on_c, 0, 64, 0
2, 82536, Note_on_c, 0, 36, 0
2, 82536, Note_on_c, 0, 48, 0
2, 82560, Note_on_c, 0, 64, 100
2, 82560, Note_on_c, 0, 60, 100
2, 82560, Note_on_c, 0, 55, 100
2, 82560, Note_on_c, 0, 48, 100
2, 82560, Note_on_c, 0, 36, 100
2, 82757, Control_c, 0, 7, 87
2, 83016, Note_on_c, 0, 36, 0
2, 83016, Note_on_c, 0, 48, 0
2, 83016, Note_on_c, 0, 55, 0
2, 83016, Note_on_c, 0, 60, 0
2, 83016, Note_on_c, 0, 64, 0
2, 83040, Note_on_c, 0, 64, 100
2, 83040, Note_on_c, 0, 60, 100
2, 83040, Note_on_c, 0, 55, 100
2, 83040, Note_on_c, 0, 48, 100
2, 83040, Note_on_c, 0, 36, 100
2, 83059, Control_c, 0, 7, 88
2, 83286, Control_c, 0, 7, 89
2, 83496, Note_on_c, 0, 36, 0
2, 83496, Note_on_c, 0, 48, 0
2, 83496, Note_on_c, 0, 55, 0
2, 83496, Note_on_c, 0, 60, 0
2, 83496, Note_on_c, 0, 64, 0
2, 83512, Control_c, 0, 7, 90
2, 83520, Note_on_c, 0, 48, 100
2, 83520, Note_on_c, 0, 36, 100
2, 83520, Note_on_c, 0, 64, 100
2, 83520, Note_on_c, 0, 60, 100
2, 83520, Note_on_c, 0, 55, 100
2, 83739, Control_c, 0, 7, 91
2, 83976, Note_on_c, 0, 55, 0
2, 83976, Note_on_c, 0, 60, 0
2, 83976, Note_on_c, 0, 64, 0
2, 83976, Note_on_c, 0, 36, 0
2, 83976, Note_on_c, 0, 48, 0
2, 84000, Note_on_c, 0, 64, 100
2, 84000, Note_on_c, 0, 60, 100
2, 84000, Note_on_c, 0, 55, 100
2, 84000, Note_on_c, 0, 48, 100
2, 84000, Note_on_c, 0, 36, 100
2, 84042, Control_c, 0, 7, 92
2, 84268, Control_c, 0, 7, 93
2, 84456, Note_on_c, 0, 36, 0
2, 84456, Note_on_c, 0, 48, 0
2, 84456, Note_on_c, 0, 55, 0
2, 84456, Note_on_c, 0, 60, 0
2, 84456, Note_on_c, 0, 64, 0
2, 84480, Note_on_c, 0, 64, 100
2, 84480, Note_on_c, 0, 60, 100
2, 84480, Note_on_c, 0, 55, 100
2, 84480, Note_on_c, 0, 48, 100
2, 84480, Note_on_c, 0, 36, 100
2, 84495, Control_c, 0, 7, 94
2, 84722, Control_c, 0, 7, 95
2, 84936, Note_on_c, 0, 36, 0
2, 84936, Note_on_c, 0, 48, 0
2, 84936, Note_on_c, 0, 55, 0
2, 84936, Note_on_c, 0, 60, 0
2, 84936, Note_on_c, 0, 64, 0
2, 84960, Note_on_c, 0, 55, 100
2, 84960, Note_on_c, 0, 59, 100
2, 84960, Note_on_c, 0, 62, 100
2, 84960, Note_on_c, 0, 67, 100
2, 84960, Note_on_c, 0, 43, 100
2, 84960, Note_on_c, 0, 31, 100
2, 86400, Control_c, 0, 7, 78
2, 86551, Control_c, 0, 7, 77
2, 86702, Control_c, 0, 7, 76
2, 86853, Control_c, 0, 7, 75
2, 87004, Control_c, 0, 7, 74
2, 87156, Control_c, 0, 7, 73
2, 87383, Control_c, 0, 7, 72
2, 87534, Control_c, 0, 7, 71
2, 87685, Control_c, 0, 7, 70
2, 87792, Note_on_c, 0, 31, 0
2, 87792, Note_on_c, 0, 43, 0
2, 87792, Note_on_c, 0, 67, 0
2, 87792, Note_on_c, 0, 62, 0
2, 87792, Note_on_c, 0, 59, 0
2, 87792, Note_on_c, 0, 55, 0
2, 89280, Note_on_c, 0, 43, 100
2, 89760, Note_on_c, 0, 55, 100
2, 89760, Note_on_c, 0, 59, 100
2, 89760, Note_on_c, 0, 65, 100
2, 90216, Note_on_c, 0, 65, 0
2, 90216, Note_on_c, 0, 59, 0
2, 90216, Note_on_c, 0, 55, 0
2, 90240, Note_on_c, 0, 55, 100
2, 90240, Note_on_c, 0, 59, 100
2, 90240, Note_on_c, 0, 65, 100
2, 90696, Note_on_c, 0, 65, 0
2, 90696, Note_on_c, 0, 59, 0
2, 90696, Note_on_c, 0, 55, 0
2, 90696, Note_on_c, 0, 43, 0
2, 90720, Note_on_c, 0, 48, 100
2, 91200, Note_on_c, 0, 55, 100
2, 91200, Note_on_c, 0, 60, 100
2, 91200, Note_on_c, 0, 64, 100
2, 91656, Note_on_c, 0, 64, 0
2, 91656, Note_on_c, 0, 60, 0
2, 91656, Note_on_c, 0, 55, 0
2, 91680, Note_on_c, 0, 55, 100
2, 91680, Note_on_c, 0, 60, 100
2, 91680, Note_on_c, 0, 64, 100
2, 92136, Note_on_c, 0, 48, 0
2, 92136, Note_on_c, 0, 64, 0
2, 92136, Note_on_c, 0, 60, 0
2, 92136, Note_on_c, 0, 55, 0
2, 92160, Note_on_c, 0, 43, 100
2, 92640, Note_on_c, 0, 55, 100
2, 92640, Note_on_c, 0, 59, 100
2, 92640, Note_on_c, 0, 65, 100
2, 93096, Note_on_c, 0, 65, 0
2, 93096, Note_on_c, 0, 59, 0
2, 93096, Note_on_c, 0, 55, 0
2, 93120, Note_on_c, 0, 55, 100
2, 93120, Note_on_c, 0, 59, 100
2, 93120, Note_on_c, 0, 65, 100
2, 93576, Note_on_c, 0, 65, 0
2, 93576, Note_on_c, 0, 59, 0
2, 93576, Note_on_c, 0, 55, 0
2, 93576, Note_on_c, 0, 43, 0
2, 93600, Note_on_c, 0, 48, 100
2, 94080, Note_on_c, 0, 55, 100
2, 94080, Note_on_c, 0, 60, 100
2, 94080, Note_on_c, 0, 64, 100
2, 94536, Note_on_c, 0, 64, 0
2, 94536, Note_on_c, 0, 60, 0
2, 94536, Note_on_c, 0, 55, 0
2, 94536, Note_on_c, 0, 48, 0
2, 94560, Note_on_c, 0, 49, 100
2, 94560, Note_on_c, 0, 55, 100
2, 94560, Note_on_c, 0, 58, 100
2, 94560, Note_on_c, 0, 64, 100
2, 95016, Note_on_c, 0, 64, 0
2, 95016, Note_on_c, 0, 58, 0
2, 95016, Note_on_c, 0, 55, 0
2, 95016, Note_on_c, 0, 49, 0
2, 95040, Note_on_c, 0, 50, 100
2, 95040, Note_on_c, 0, 57, 100
2, 95040, Note_on_c, 0, 62, 100
2, 95040, Note_on_c, 0, 65, 100
2, 95496, Note_on_c, 0, 65, 0
2, 95496, Note_on_c, 0, 62, 0
2, 95496, Note_on_c, 0, 57, 0
2, 95496, Note_on_c, 0, 50, 0
2, 95520, Note_on_c, 0, 48, 100
2, 95520, Note_on_c, 0, 56, 100
2, 95520, Note_on_c, 0, 62, 100
2, 95520, Note_on_c, 0, 65, 100
2, 95976, Note_on_c, 0, 65, 0
2, 95976, Note_on_c, 0, 62, 0
2, 95976, Note_on_c, 0, 56, 0
2, 95976, Note_on_c, 0, 48, 0
2, 96000, Note_on_c, 0, 47, 100
2, 96000, Note_on_c, 0, 55, 100
2, 96000, Note_on_c, 0, 62, 100
2, 96000, Note_on_c, 0, 65, 100
2, 96456, Note_on_c, 0, 65, 0
2, 96456, Note_on_c, 0, 62, 0
2, 96456, Note_on_c, 0, 55, 0
2, 96456, Note_on_c, 0, 47, 0
2, 96480, Note_on_c, 0, 48, 100
2, 96480, Note_on_c, 0, 55, 100
2, 96480, Note_on_c, 0, 60, 100
2, 96480, Note_on_c, 0, 64, 100
2, 96936, Note_on_c, 0, 64, 0
2, 96936, Note_on_c, 0, 60, 0
2, 96936, Note_on_c, 0, 55, 0
2, 96936, Note_on_c, 0, 48, 0
2, 96960, Note_on_c, 0, 45, 100
2, 96960, Note_on_c, 0, 57, 100
2, 96960, Note_on_c, 0, 60, 100
2, 96960, Note_on_c, 0, 64, 100
2, 97416, Note_on_c, 0, 64, 0
2, 97416, Note_on_c, 0, 60, 0
2, 97416, Note_on_c, 0, 57, 0
2, 97416, Note_on_c, 0, 45, 0
2, 97440, Note_on_c, 0, 40, 100
2, 97440, Note_on_c, 0, 55, 100
2, 97440, Note_on_c, 0, 60, 100
2, 97440, Note_on_c, 0, 64, 100
2, 97896, Note_on_c, 0, 64, 0
2, 97896, Note_on_c, 0, 60, 0
2, 97896, Note_on_c, 0, 55, 0
2, 97896, Note_on_c, 0, 40, 0
2, 97920, Note_on_c, 0, 41, 100
2, 97920, Note_on_c, 0, 57, 100
2, 97920, Note_on_c, 0, 60, 100
2, 97920, Note_on_c, 0, 62, 100
2, 98376, Note_on_c, 0, 62, 0
2, 98376, Note_on_c, 0, 60, 0
2, 98376, Note_on_c, 0, 57, 0
2, 98376, Note_on_c, 0, 41, 0
2, 98400, Note_on_c, 0, 43, 100
2, 98400, Note_on_c, 0, 55, 100
2, 98400, Note_on_c, 0, 59, 100
2, 98400, Note_on_c, 0, 65, 100
2, 98856, Note_on_c, 0, 65, 0
2, 98856, Note_on_c, 0, 59, 0
2, 98856, Note_on_c, 0, 55, 0
2, 98856, Note_on_c, 0, 43, 0
2, 98880, Note_on_c, 0, 43, 100
2, 98880, Note_on_c, 0, 55, 100
2, 98880, Note_on_c, 0, 59, 100
2, 98880, Note_on_c, 0, 65, 100
2, 99336, Note_on_c, 0, 65, 0
2, 99336, Note_on_c, 0, 59, 0
2, 99336, Note_on_c, 0, 55, 0
2, 99336, Note_on_c, 0, 43, 0
2, 99360, Note_on_c, 0, 48, 100
2, 99360, Note_on_c, 0, 36, 100
2, 99360, Note_on_c, 0, 55, 100
2, 99360, Note_on_c, 0, 60, 100
2, 99360, Note_on_c, 0, 64, 100
2, 99816, Note_on_c, 0, 64, 0
2, 99816, Note_on_c, 0, 60, 0
2, 99816, Note_on_c, 0, 55, 0
2, 99816, Note_on_c, 0, 36, 0
2, 99816, Note_on_c, 0, 48, 0
2, 99840, Note_on_c, 0, 48, 100
2, 99840, Note_on_c, 0, 55, 100
2, 99915, Control_c, 0, 7, 73
2, 99991, Control_c, 0, 7, 75
2, 100067, Control_c, 0, 7, 78
2, 100142, Control_c, 0, 7, 81
2, 100218, Control_c, 0, 7, 84
2, 100294, Control_c, 0, 7, 86
2, 100296, Note_on_c, 0, 55, 0
2, 100296, Note_on_c, 0, 48, 0
2, 100320, Note_on_c, 0, 55, 100
2, 100320, Note_on_c, 0, 48, 100
2, 100369, Control_c, 0, 7, 89
2, 100445, Control_c, 0, 7, 92
2, 100520, Control_c, 0, 7, 94
2, 100596, Control_c, 0, 7, 97
2, 100671, Control_c, 0, 7, 100
2, 100776, Note_on_c, 0, 48, 0
2, 100776, Note_on_c, 0, 55, 0
2, 100800, Note_on_c, 0, 67, 100
2, 100800, Note_on_c, 0, 48, 100
2, 100800, Note_on_c, 0, 53, 100
2, 100800, Note_on_c, 0, 55, 100
2, 100800, Note_on_c, 0, 59, 100
2, 101028, Note_on_c, 0, 67, 0
2, 101040, Note_on_c, 0, 74, 100
2, 101256, Note_on_c, 0, 59, 0
2, 101256, Note_on_c, 0, 55, 0
2, 101256, Note_on_c, 0, 53, 0
2, 101256, Note_on_c, 0, 48, 0
2, 101268, Note_on_c, 0, 74, 0
2, 101280, Note_on_c, 0, 79, 100
2, 101280, Note_on_c, 0, 48, 100
2, 101280, Note_on_c, 0, 53, 100
2, 101280, Note_on_c, 0, 55, 100
2, 101280, Note_on_c, 0, 59, 100
2, 101736, Note_on_c, 0, 59, 0
2, 101736, Note_on_c, 0, 55, 0
2, 101736, Note_on_c, 0, 53, 0
2, 101736, Note_on_c, 0, 48, 0
2, 101760, Note_on_c, 0, 48, 100
2, 101760, Note_on_c, 0, 52, 100
2, 101760, Note_on_c, 0, 55, 100
2, 101760, Note_on_c, 0, 60, 100
2, 101988, Note_on_c, 0, 79, 0
2, 102000, Note_on_c, 0, 76, 100
2, 102216, Note_on_c, 0, 60, 0
2, 102216, Note_on_c, 0, 55, 0
2, 102216, Note_on_c, 0, 52, 0
2, 102216, Note_on_c, 0, 48, 0
2, 102228, Note_on_c, 0, 76, 0
2, 102240, Note_on_c, 0, 74, 100
2, 102240, Note_on_c, 0, 48, 100
2, 102240, Note_on_c, 0, 53, 100
2, 102240, Note_on_c, 0, 55, 100
2, 102240, Note_on_c, 0, 59, 100
2, 102468, Note_on_c, 0, 74, 0
2, 102480, Note_on_c, 0, 67, 100
2, 102696, Note_on_c, 0, 59, 0
2, 102696, Note_on_c, 0, 55, 0
2, 102696, Note_on_c, 0, 53, 0
2, 102696, Note_on_c, 0, 48, 0
2, 102708, Note_on_c, 0, 67, 0
2, 102720, Note_on_c, 0, 74, 100
2, 102720, Note_on_c, 0, 48, 100
2, 102720, Note_on_c, 0, 53, 100
2, 102720, Note_on_c, 0, 55, 100
2, 102720, Note_on_c, 0, 59, 100
2, 103176, Note_on_c, 0, 59, 0
2, 103176, Note_on_c, 0, 55, 0
2, 103176, Note_on_c, 0, 53, 0
2, 103176, Note_on_c, 0, 48, 0
2, 103200, Note_on_c, 0, 48, 100
2, 103200, Note_on_c, 0, 52, 100
2, 103200, Note_on_c, 0, 55, 100
2, 103200, Note_on_c, 0, 60, 100
2, 103428, Note_on_c, 0, 74, 0
2, 103440, Note_on_c, 0, 72, 100
2, 103516, Note_on_c, 0, 72, 0
2, 103519, Note_on_c, 0, 74, 100
2, 103595, Note_on_c, 0, 74, 0
2, 103599, Note_on_c, 0, 72, 100
2, 103656, Note_on_c, 0, 60, 0
2, 103656, Note_on_c, 0, 55, 0
2, 103656, Note_on_c, 0, 52, 0
2, 103656, Note_on_c, 0, 48, 0
2, 103675, Note_on_c, 0, 72, 0
2, 103680, Note_on_c, 0, 67, 100
2, 103680, Note_on_c, 0, 48, 100
2, 103680, Note_on_c, 0, 53, 100
2, 103680, Note_on_c, 0, 55, 100
2, 103680, Note_on_c, 0, 59, 100
2, 103755, Control_c, 0, 7, 101
2, 103831, Control_c, 0, 7, 102
2, 103907, Control_c, 0, 7, 103
2, 103908, Note_on_c, 0, 67, 0
2, 103920, Note_on_c, 0, 74, 100
2, 103982, Control_c, 0, 7, 104
2, 104134, Control_c, 0, 7, 105
2, 104136, Note_on_c, 0, 59, 0
2, 104136, Note_on_c, 0, 55, 0
2, 104136, Note_on_c, 0, 53, 0
2, 104136, Note_on_c, 0, 48, 0
2, 104148, Note_on_c, 0, 74, 0
2, 104160, Note_on_c, 0, 79, 100
2, 104160, Note_on_c, 0, 48, 100
2, 104160, Note_on_c, 0, 53, 100
2, 104160, Note_on_c, 0, 55, 100
2, 104160, Note_on_c, 0, 59, 100
2, 104209, Control_c, 0, 7, 106
2, 104280, Control_c, 0, 7, 107
2, 104388, Note_on_c, 0, 79, 0
2, 104400, Note_on_c, 0, 78, 100
2, 104475, Control_c, 0, 7, 106
2, 104551, Control_c, 0, 7, 105
2, 104616, Note_on_c, 0, 59, 0
2, 104616, Note_on_c, 0, 55, 0
2, 104616, Note_on_c, 0, 53, 0
2, 104616, Note_on_c, 0, 48, 0
2, 104627, Control_c, 0, 7, 104
2, 104628, Note_on_c, 0, 78, 0
2, 104640, Note_on_c, 0, 79, 100
2, 104640, Note_on_c, 0, 48, 100
2, 104640, Note_on_c, 0, 53, 100
2, 104640, Note_on_c, 0, 55, 100
2, 104640, Note_on_c, 0, 59, 100
2, 104702, Control_c, 0, 7, 103
2, 104854, Control_c, 0, 7, 102
2, 104868, Note_on_c, 0, 79, 0
2, 104880, Note_on_c, 0, 76, 100
2, 104929, Control_c, 0, 7, 101
2, 105000, Control_c, 0, 7, 100
2, 105096, Note_on_c, 0, 59, 0
2, 105096, Note_on_c, 0, 55, 0
2, 105096, Note_on_c, 0, 53, 0
2, 105096, Note_on_c, 0, 48, 0
2, 105108, Note_on_c, 0, 76, 0
2, 105120, Note_on_c, 0, 74, 100
2, 105120, Note_on_c, 0, 48, 100
2, 105120, Note_on_c, 0, 53, 100
2, 105120, Note_on_c, 0, 55, 100
2, 105120, Note_on_c, 0, 59, 100
2, 105348, Note_on_c, 0, 74, 0
2, 105360, Note_on_c, 0, 67, 100
2, 105576, Note_on_c, 0, 59, 0
2, 105576, Note_on_c, 0, 55, 0
2, 105576, Note_on_c, 0, 53, 0
2, 105576, Note_on_c, 0, 48, 0
2, 105588, Note_on_c, 0, 67, 0
2, 105600, Note_on_c, 0, 72, 100
2, 105600, Note_on_c, 0, 48, 100
2, 105600, Note_on_c, 0, 52, 100
2, 105600, Note_on_c, 0, 55, 100
2, 105600, Note_on_c, 0, 60, 100
2, 106056, Note_on_c, 0, 60, 0
2, 106056, Note_on_c, 0, 55, 0
2, 106056, Note_on_c, 0, 52, 0
2, 106056, Note_on_c, 0, 48, 0
2, 106056, Note_on_c, 0, 72, 0
2, 106080, Note_on_c, 0, 76, 100
2, 106080, Note_on_c, 0, 48, 100
2, 106080, Note_on_c, 0, 52, 100
2, 106080, Note_on_c, 0, 55, 100
2, 106080, Note_on_c, 0, 60, 100
2, 106308, Note_on_c, 0, 76, 0
2, 106320, Note_on_c, 0, 78, 100
2, 106536, Note_on_c, 0, 60, 0
2, 106536, Note_on_c, 0, 55, 0
2, 106536, Note_on_c, 0, 52, 0
2, 106536, Note_on_c, 0, 48, 0
2, 106548, Note_on_c, 0, 78, 0
2, 106560, Note_on_c, 0, 79, 100
2, 106560, Note_on_c, 0, 48, 100
2, 106560, Note_on_c, 0, 53, 100
2, 106560, Note_on_c, 0, 55, 100
2, 106560, Note_on_c, 0, 59, 100
2, 106788, Note_on_c, 0, 79, 0
2, 106800, Note_on_c, 0, 67, 100
2, 107016, Note_on_c, 0, 59, 0
2, 107016, Note_on_c, 0, 55, 0
2, 107016, Note_on_c, 0, 53, 0
2, 107016, Note_on_c, 0, 48, 0
2, 107028, Note_on_c, 0, 67, 0
2, 107040, Note_on_c, 0, 72, 100
2, 107040, Note_on_c, 0, 48, 100
2, 107040, Note_on_c, 0, 52, 100
2, 107040, Note_on_c, 0, 55, 100
2, 107040, Note_on_c, 0, 60, 100
2, 107496, Note_on_c, 0, 60, 0
2, 107496, Note_on_c, 0, 55, 0
2, 107496, Note_on_c, 0, 52, 0
2, 107496, Note_on_c, 0, 48, 0
2, 107496, Note_on_c, 0, 72, 0
2, 107520, Note_on_c, 0, 76, 100
2, 107520, Note_on_c, 0, 48, 100
2, 107520, Note_on_c, 0, 52, 100
2, 107520, Note_on_c, 0, 55, 100
2, 107520, Note_on_c, 0, 60, 100
2, 107748, Note_on_c, 0, 76, 0
2, 107760, Note_on_c, 0, 78, 100
2, 107976, Note_on_c, 0, 60, 0
2, 107976, Note_on_c, 0, 55, 0
2, 107976, Note_on_c, 0, 52, 0
2, 107976, Note_on_c, 0, 48, 0
2, 107988, Note_on_c, 0, 78, 0
2, 108000, Note_on_c, 0, 79, 100
2, 108000, Note_on_c, 0, 48, 100
2, 108000, Note_on_c, 0, 53, 100
2, 108000, Note_on_c, 0, 55, 100
2, 108000, Note_on_c, 0, 59, 100
2, 108228, Note_on_c, 0, 79, 0
2, 108240, Note_on_c, 0, 67, 100
2, 108456, Note_on_c, 0, 59, 0
2, 108456, Note_on_c, 0, 55, 0
2, 108456, Note_on_c, 0, 53, 0
2, 108456, Note_on_c, 0, 48, 0
2, 108468, Note_on_c, 0, 67, 0
2, 108480, Note_on_c, 0, 72, 100
2, 108480, Note_on_c, 0, 48, 100
2, 108480, Note_on_c, 0, 52, 100
2, 108480, Note_on_c, 0, 55, 100
2, 108480, Note_on_c, 0, 60, 100
2, 108936, Note_on_c, 0, 60, 0
2, 108936, Note_on_c, 0, 55, 0
2, 108936, Note_on_c, 0, 52, 0
2, 108936, Note_on_c, 0, 48, 0
2, 108936, Note_on_c, 0, 72, 0
2, 108960, Note_on_c, 0, 76, 100
2, 108960, Note_on_c, 0, 48, 100
2, 108960, Note_on_c, 0, 52, 100
2, 108960, Note_on_c, 0, 55, 100
2, 108960, Note_on_c, 0, 60, 100
2, 109188, Note_on_c, 0, 76, 0
2, 109200, Note_on_c, 0, 78, 100
2, 109416, Note_on_c, 0, 60, 0
2, 109416, Note_on_c, 0, 55, 0
2, 109416, Note_on_c, 0, 52, 0
2, 109416, Note_on_c, 0, 48, 0
2, 109428, Note_on_c, 0, 78, 0
2, 109440, Note_on_c, 0, 79, 100
2, 109440, Note_on_c, 0, 48, 100
2, 109440, Note_on_c, 0, 53, 100
2, 109440, Note_on_c, 0, 55, 100
2, 109440, Note_on_c, 0, 59, 100
2, 109668, Note_on_c, 0, 79, 0
2, 109680, Note_on_c, 0, 81, 100
2, 109896, Note_on_c, 0, 59, 0
2, 109896, Note_on_c, 0, 55, 0
2, 109896, Note_on_c, 0, 53, 0
2, 109896, Note_on_c, 0, 48, 0
2, 109908, Note_on_c, 0, 81, 0
2, 109920, Note_on_c, 0, 79, 100
2, 109920, Note_on_c, 0, 48, 100
2, 109920, Note_on_c, 0, 53, 100
2, 109920, Note_on_c, 0, 55, 100
2, 109920, Note_on_c, 0, 59, 100
2, 110376, Note_on_c, 0, 59, 0
2, 110376, Note_on_c, 0, 55, 0
2, 110376, Note_on_c, 0, 53, 0
2, 110376, Note_on_c, 0, 48, 0
2, 110376, Note_on_c, 0, 79, 0
2, 110400, Note_on_c, 0, 74, 100
2, 110400, Note_on_c, 0, 48, 100
2, 110400, Note_on_c, 0, 53, 100
2, 110400, Note_on_c, 0, 55, 100
2, 110400, Note_on_c, 0, 59, 100
2, 110628, Note_on_c, 0, 74, 0
2, 110640, Note_on_c, 0, 76, 100
2, 110856, Note_on_c, 0, 59, 0
2, 110856, Note_on_c, 0, 55, 0
2, 110856, Note_on_c, 0, 53, 0
2, 110856, Note_on_c, 0, 48, 0
2, 110868, Note_on_c, 0, 76, 0
2, 110880, Note_on_c, 0, 72, 100
2, 110880, Note_on_c, 0, 48, 100
2, 110880, Note_on_c, 0, 52, 100
2, 110880, Note_on_c, 0, 55, 100
2, 110880, Note_on_c, 0, 60, 100
2, 111336, Note_on_c, 0, 60, 0
2, 111336, Note_on_c, 0, 55, 0
2, 111336, Note_on_c, 0, 52, 0
2, 111336, Note_on_c, 0, 48, 0
2, 111336, Note_on_c, 0, 72, 0
2, 111360, Note_on_c, 0, 72, 100
2, 111360, Note_on_c, 0, 76, 100
2, 111360, Note_on_c, 0, 79, 100
2, 111360, Note_on_c, 0, 84, 100
2, 111360, Note_on_c, 0, 48, 100
2, 111360, Note_on_c, 0, 36, 100
2, 111816, Note_on_c, 0, 36, 0
2, 111816, Note_on_c, 0, 48, 0
2, 111816, Note_on_c, 0, 84, 0
2, 111816, Note_on_c, 0, 79, 0
2, 111816, Note_on_c, 0, 76, 0
2, 111816, Note_on_c, 0, 72, 0
2, 112320, Note_on_c, 0, 55, 100
2, 112320, Note_on_c, 0, 43, 100
2, 112320, Note_on_c, 0, 31, 100
2, 112776, Note_on_c, 0, 31, 0
2, 112776, Note_on_c, 0, 43, 0
2, 112776, Note_on_c, 0, 55, 0
2, 112800, Note_on_c, 0, 55, 100
2, 112800, Note_on_c, 0, 43, 100
2, 112800, Note_on_c, 0, 31, 100
2, 113220, Note_on_c, 0, 54, 100
2, 113220, Note_on_c, 0, 42, 100
2, 113256, Note_on_c, 0, 31, 0
2, 113256, Note_on_c, 0, 43, 0
2, 113256, Note_on_c, 0, 55, 0
2, 113280, Note_on_c, 0, 52, 100
2, 113280, Note_on_c, 0, 40, 100
2, 113334, Note_on_c, 0, 42, 0
2, 113334, Note_on_c, 0, 54, 0
2, 113340, Note_on_c, 0, 50, 100
2, 113340, Note_on_c, 0, 38, 100
2, 113394, Note_on_c, 0, 40, 0
2, 113394, Note_on_c, 0, 52, 0
2, 113739, Note_on_c, 0, 50, 0
2, 113760, Note_on_c, 0, 55, 100
2, 113760, Note_on_c, 0, 43, 100
2, 113760, Note_on_c, 0, 31, 100
2, 113796, Note_on_c, 0, 38, 0
2, 114216, Note_on_c, 0, 31, 0
2, 114216, Note_on_c, 0, 43, 0
2, 114216, Note_on_c, 0, 55, 0
2, 114240, Note_on_c, 0, 55, 100
2, 114240, Note_on_c, 0, 43, 100
2, 114240, Note_on_c, 0, 31, 100
2, 114660, Note_on_c, 0, 54, 100
2, 114660, Note_on_c, 0, 42, 100
2, 114696, Note_on_c, 0, 31, 0
2, 114696, Note_on_c, 0, 43, 0
2, 114696, Note_on_c, 0, 55, 0
2, 114720, Note_on_c, 0, 52, 100
2, 114720, Note_on_c, 0, 40, 100
2, 114774, Note_on_c, 0, 42, 0
2, 114774, Note_on_c, 0, 54, 0
2, 114780, Note_on_c, 0, 50, 100
2, 114780, Note_on_c, 0, 38, 100
2, 114834, Note_on_c, 0, 40, 0
2, 114834, Note_on_c, 0, 52, 0
2, 115179, Note_on_c, 0, 50, 0
2, 115200, Note_on_c, 0, 55, 100
2, 115200, Note_on_c, 0, 43, 100
2, 115200, Note_on_c, 0, 31, 100
2, 115236, Note_on_c, 0, 38, 0
2, 115656, Note_on_c, 0, 31, 0
2, 115656, Note_on_c, 0, 43, 0
2, 115656, Note_on_c, 0, 55, 0
2, 115680, Note_on_c, 0, 55, 100
2, 115680, Note_on_c, 0, 43, 100
2, 115680, Note_on_c, 0, 31, 100
2, 116100, Note_on_c, 0, 54, 100
2, 116100, Note_on_c, 0, 42, 100
2, 116136, Note_on_c, 0, 31, 0
2, 116136, Note_on_c, 0, 43, 0
2, 116136, Note_on_c, 0, 55, 0
2, 116160, Note_on_c, 0, 52, 100
2, 116160, Note_on_c, 0, 40, 100
2, 116214, Note_on_c, 0, 42, 0
2, 116214, Note_on_c, 0, 54, 0
2, 116220, Note_on_c, 0, 50, 100
2, 116220, Note_on_c, 0, 38, 100
2, 116274, Note_on_c, 0, 40, 0
2, 116274, Note_on_c, 0, 52, 0
2, 116619, Note_on_c, 0, 50, 0
2, 116640, Note_on_c, 0, 55, 100
2, 116640, Note_on_c, 0, 43, 100
2, 116640, Note_on_c, 0, 31, 100
2, 116676, Note_on_c, 0, 38, 0
2, 117096, Note_on_c, 0, 31, 0
2, 117096, Note_on_c, 0, 43, 0
2, 117096, Note_on_c, 0, 55, 0
2, 117120, Note_on_c, 0, 55, 100
2, 117120, Note_on_c, 0, 43, 100
2, 117120, Note_on_c, 0, 31, 100
2, 117576, Note_on_c, 0, 31, 0
2, 117576, Note_on_c, 0, 43, 0
2, 117576, Note_on_c, 0, 55, 0
2, 117600, Note_on_c, 0, 55, 100
2, 117600, Note_on_c, 0, 43, 100
2, 117600, Note_on_c, 0, 31, 100
2, 117600, Note_on_c, 0, 59, 100
2, 117600, Note_on_c, 0, 65, 100
2, 117675, Control_c, 0, 7, 95
2, 117751, Control_c, 0, 7, 89
2, 117827, Control_c, 0, 7, 84
2, 117902, Control_c, 0, 7, 79
2, 117960, Control_c, 0, 7, 75
2, 118056, Note_on_c, 0, 65, 0
2, 118056, Note_on_c, 0, 59, 0
2, 118056, Note_on_c, 0, 31, 0
2, 118056, Note_on_c, 0, 43, 0
2, 118056, Note_on_c, 0, 55, 0
2, 118080, Note_on_c, 0, 48, 100
2, 118080, Note_on_c, 0, 36, 100
2, 118080, Note_on_c, 0, 64, 100
2, 118080, Note_on_c, 0, 60, 100
2, 118080, Note_on_c, 0, 55, 100
2, 118231, Control_c, 0, 7, 76
2, 118534, Control_c, 0, 7, 77
2, 118536, Note_on_c, 0, 55, 0
2, 118536, Note_on_c, 0, 60, 0
2, 118536, Note_on_c, 0, 64, 0
2, 118536, Note_on_c, 0, 36, 0
2, 118536, Note_on_c, 0, 48, 0
2, 118560, Note_on_c, 0, 64, 100
2, 118560, Note_on_c, 0, 60, 100
2, 118560, Note_on_c, 0, 55, 100
2, 118560, Note_on_c, 0, 48, 100
2, 118560, Note_on_c, 0, 36, 100
2, 118836, Control_c, 0, 7, 78
2, 119016, Note_on_c, 0, 36, 0
2, 119016, Note_on_c, 0, 48, 0
2, 119016, Note_on_c, 0, 55, 0
2, 119016, Note_on_c, 0, 60, 0
2, 119016, Note_on_c, 0, 64, 0
2, 119040, Note_on_c, 0, 64, 100
2, 119040, Note_on_c, 0, 60, 100
2, 119040, Note_on_c, 0, 55, 100
2, 119040, Note_on_c, 0, 48, 100
2, 119040, Note_on_c, 0, 36, 100
2, 119063, Control_c, 0, 7, 79
2, 119365, Control_c, 0, 7, 80
2, 119496, Note_on_c, 0, 36, 0
2, 119496, Note_on_c, 0, 48, 0
2, 119496, Note_on_c, 0, 55, 0
2, 119496, Note_on_c, 0, 60, 0
2, 119496, Note_on_c, 0, 64, 0
2, 119520, Note_on_c, 0, 64, 100
2, 119520, Note_on_c, 0, 60, 100
2, 119520, Note_on_c, 0, 55, 100
2, 119520, Note_on_c, 0, 48, 100
2, 119520, Note_on_c, 0, 36, 100
2, 119667, Control_c, 0, 7, 81
2, 119970, Control_c, 0, 7, 82
2, 119976, Note_on_c, 0, 36, 0
2, 119976, Note_on_c, 0, 48, 0
2, 119976, Note_on_c, 0, 55, 0
2, 119976, Note_on_c, 0, 60, 0
2, 119976, Note_on_c, 0, 64, 0
2, 120000, Note_on_c, 0, 64, 100
2, 120000, Note_on_c, 0, 60, 100
2, 120000, Note_on_c, 0, 55, 100
2, 120000, Note_on_c, 0, 48, 100
2, 120000, Note_on_c, 0, 36, 100
2, 120197, Control_c, 0, 7, 83
2, 120456, Note_on_c, 0, 36, 0
2, 120456, Note_on_c, 0, 48, 0
2, 120456, Note_on_c, 0, 55, 0
2, 120456, Note_on_c, 0, 60, 0
2, 120456, Note_on_c, 0, 64, 0
2, 120480, Note_on_c, 0, 64, 100
2, 120480, Note_on_c, 0, 60, 100
2, 120480, Note_on_c, 0, 55, 100
2, 120480, Note_on_c, 0, 48, 100
2, 120480, Note_on_c, 0, 36, 100
2, 120499, Control_c, 0, 7, 84
2, 120802, Control_c, 0, 7, 85
2, 120936, Note_on_c, 0, 36, 0
2, 120936, Note_on_c, 0, 48, 0
2, 120936, Note_on_c, 0, 55, 0
2, 120936, Note_on_c, 0, 60, 0
2, 120936, Note_on_c, 0, 64, 0
2, 120960, Note_on_c, 0, 64, 100
2, 120960, Note_on_c, 0, 60, 100
2, 120960, Note_on_c, 0, 55, 100
2, 120960, Note_on_c, 0, 48, 100
2, 120960, Note_on_c, 0, 36, 100
2, 121028, Control_c, 0, 7, 86
2, 121331, Control_c, 0, 7, 87
2, 121416, Note_on_c, 0, 36, 0
2, 121416, Note_on_c, 0, 48, 0
2, 121416, Note_on_c, 0, 55, 0
2, 121416, Note_on_c, 0, 60, 0
2, 121416, Note_on_c, 0, 64, 0
2, 121440, Note_on_c, 0, 64, 100
2, 121440, Note_on_c, 0, 60, 100
2, 121440, Note_on_c, 0, 55, 100
2, 121440, Note_on_c, 0, 48, 100
2, 121440, Note_on_c, 0, 36, 100
2, 121633, Control_c, 0, 7, 88
2, 121860, Control_c, 0, 7, 89
2, 121896, Note_on_c, 0, 36, 0
2, 121896, Note_on_c, 0, 48, 0
2, 121896, Note_on_c, 0, 55, 0
2, 121896, Note_on_c, 0, 60, 0
2, 121896, Note_on_c, 0, 64, 0
2, 121920, Note_on_c, 0, 64, 100
2, 121920, Note_on_c, 0, 60, 100
2, 121920, Note_on_c, 0, 55, 100
2, 121920, Note_on_c, 0, 48, 100
2, 121920, Note_on_c, 0, 36, 100
2, 122162, Control_c, 0, 7, 90
2, 122376, Note_on_c, 0, 36, 0
2, 122376, Note_on_c, 0, 48, 0
2, 122376, Note_on_c, 0, 55, 0
2, 122376, Note_on_c, 0, 60, 0
2, 122376, Note_on_c, 0, 64, 0
2, 122400, Note_on_c, 0, 54, 100
2, 122400, Note_on_c, 0, 60, 100
2, 122400, Note_on_c, 0, 62, 100
2, 122400, Note_on_c, 0, 45, 100
2, 122400, Note_on_c, 0, 33, 100
2, 125232, Note_on_c, 0, 33, 0
2, 125232, Note_on_c, 0, 45, 0
2, 125232, Note_on_c, 0, 62, 0
2, 125232, Note_on_c, 0, 60, 0
2, 125232, Note_on_c, 0, 54, 0
2, 126720, Control_c, 0, 7, 70
2, 126720, Note_on_c, 0, 31, 100
2, 126720, Note_on_c, 0, 43, 100
2, 126720, Note_on_c, 0, 55, 100
2, 126720, Note_on_c, 0, 59, 100
2, 126720, Note_on_c, 0, 62, 100
2, 127176, Note_on_c, 0, 62, 0
2, 127176, Note_on_c, 0, 59, 0
2, 127176, Note_on_c, 0, 55, 0
2, 127200, Note_on_c, 0, 55, 100
2, 127200, Note_on_c, 0, 59, 100
2, 127200, Note_on_c, 0, 65, 100
2, 127656, Note_on_c, 0, 65, 0
2, 127656, Note_on_c, 0, 59, 0
2, 127656, Note_on_c, 0, 55, 0
2, 127680, Note_on_c, 0, 55, 100
2, 127680, Note_on_c, 0, 59, 100
2, 127680, Note_on_c, 0, 65, 100
2, 128136, Note_on_c, 0, 43, 0
2, 128136, Note_on_c, 0, 31, 0
2, 128136, Note_on_c, 0, 65, 0
2, 128136, Note_on_c, 0, 59, 0
2, 128136, Note_on_c, 0, 55, 0
2, 128160, Note_on_c, 0, 48, 100
2, 128640, Note_on_c, 0, 55, 100
2, 128640, Note_on_c, 0, 60, 100
2, 128640, Note_on_c, 0, 64, 100
2, 129096, Note_on_c, 0, 64, 0
2, 129096, Note_on_c, 0, 60, 0
2, 129096, Note_on_c, 0, 55, 0
2, 129120, Note_on_c, 0, 55, 100
2, 129120, Note_on_c, 0, 60, 100
2, 129120, Note_on_c, 0, 64, 100
2, 129576, Note_on_c, 0, 64, 0
2, 129576, Note_on_c, 0, 60, 0
2, 129576, Note_on_c, 0, 55, 0
2, 129576, Note_on_c, 0, 48, 0
2, 129600, Note_on_c, 0, 43, 100
2, 130080, Note_on_c, 0, 55, 100
2, 130080, Note_on_c, 0, 59, 100
2, 130080, Note_on_c, 0, 65, 100
2, 130536, Note_on_c, 0, 65, 0
2, 130536, Note_on_c, 0, 59, 0
2, 130536, Note_on_c, 0, 55, 0
2, 130560, Note_on_c, 0, 55, 100
2, 130560, Note_on_c, 0, 59, 100
2, 130560, Note_on_c, 0, 65, 100
2, 131016, Note_on_c, 0, 65, 0
2, 131016, Note_on_c, 0, 59, 0
2, 131016, Note_on_c, 0, 55, 0
2, 131016, Note_on_c, 0, 43, 0
2, 131040, Note_on_c, 0, 48, 100
2, 131520, Note_on_c, 0, 55, 100
2, 131520, Note_on_c, 0, 60, 100
2, 131520, Note_on_c, 0, 64, 100
2, 131976, Note_on_c, 0, 64, 0
2, 131976, Note_on_c, 0, 60, 0
2, 131976, Note_on_c, 0, 55, 0
2, 131976, Note_on_c, 0, 48, 0
2, 132000, Note_on_c, 0, 49, 100
2, 132000, Note_on_c, 0, 55, 100
2, 132000, Note_on_c, 0, 58, 100
2, 132000, Note_on_c, 0, 64, 100
2, 132456, Note_on_c, 0, 64, 0
2, 132456, Note_on_c, 0, 58, 0
2, 132456, Note_on_c, 0, 55, 0
2, 132456, Note_on_c, 0, 49, 0
2, 132480, Note_on_c, 0, 50, 100
2, 132480, Note_on_c, 0, 57, 100
2, 132480, Note_on_c, 0, 62, 100
2, 132480, Note_on_c, 0, 65, 100
2, 132936, Note_on_c, 0, 65, 0
2, 132936, Note_on_c, 0, 62, 0
2, 132936, Note_on_c, 0, 57, 0
2, 132936, Note_on_c, 0, 50, 0
2, 132960, Note_on_c, 0, 48, 100
2, 132960, Note_on_c, 0, 56, 100
2, 132960, Note_on_c, 0, 62, 100
2, 132960, Note_on_c, 0, 65, 100
2, 133416, Note_on_c, 0, 65, 0
2, 133416, Note_on_c, 0, 62, 0
2, 133416, Note_on_c, 0, 56, 0
2, 133416, Note_on_c, 0, 48, 0
2, 133440, Note_on_c, 0, 47, 100
2, 133440, Note_on_c, 0, 55, 100
2, 133440, Note_on_c, 0, 62, 100
2, 133440, Note_on_c, 0, 65, 100
2, 133896, Note_on_c, 0, 65, 0
2, 133896, Note_on_c, 0, 62, 0
2, 133896, Note_on_c, 0, 55, 0
2, 133896, Note_on_c, 0, 47, 0
2, 133920, Note_on_c, 0, 48, 100
2, 133920, Note_on_c, 0, 55, 100
2, 133920, Note_on_c, 0, 60, 100
2, 133920, Note_on_c, 0, 64, 100
2, 134376, Note_on_c, 0, 64, 0
2, 134376, Note_on_c, 0, 60, 0
2, 134376, Note_on_c, 0, 55, 0
2, 134376, Note_on_c, 0, 48, 0
2, 134400, Note_on_c, 0, 45, 100
2, 134400, Note_on_c, 0, 57, 100
2, 134400, Note_on_c, 0, 60, 100
2, 134400, Note_on_c, 0, 64, 100
2, 134856, Note_on_c, 0, 64, 0
2, 134856, Note_on_c, 0, 60, 0
2, 134856, Note_on_c, 0, 57, 0
2, 134856, Note_on_c, 0, 45, 0
2, 134880, Note_on_c, 0, 40, 100
2, 134880, Note_on_c, 0, 55, 100
2, 134880, Note_on_c, 0, 60, 100
2, 134880, Note_on_c, 0, 64, 100
2, 135336, Note_on_c, 0, 64, 0
2, 135336, Note_on_c, 0, 60, 0
2, 135336, Note_on_c, 0, 55, 0
2, 135336, Note_on_c, 0, 40, 0
2, 135360, Note_on_c, 0, 41, 100
2, 135360, Note_on_c, 0, 57, 100
2, 135360, Note_on_c, 0, 60, 100
2, 135360, Note_on_c, 0, 62, 100
2, 135816, Note_on_c, 0, 62, 0
2, 135816, Note_on_c, 0, 60, 0
2, 135816, Note_on_c, 0, 57, 0
2, 135816, Note_on_c, 0, 41, 0
2, 135840, Note_on_c, 0, 43, 100
2, 135840, Note_on_c, 0, 55, 100
2, 135840, Note_on_c, 0, 59, 100
2, 135840, Note_on_c, 0, 65, 100
2, 136296, Note_on_c, 0, 65, 0
2, 136296, Note_on_c, 0, 59, 0
2, 136296, Note_on_c, 0, 55, 0
2, 136296, Note_on_c, 0, 43, 0
2, 136320, Note_on_c, 0, 43, 100
2, 136320, Note_on_c, 0, 55, 100
2, 136320, Note_on_c, 0, 59, 100
2, 136320, Note_on_c, 0, 65, 100
2, 136776, Note_on_c, 0, 65, 0
2, 136776, Note_on_c, 0, 59, 0
2, 136776, Note_on_c, 0, 55, 0
2, 136776, Note_on_c, 0, 43, 0
2, 136800, Note_on_c, 0, 48, 100
2, 136800, Note_on_c, 0, 36, 100
2, 136800, Note_on_c, 0, 55, 100
2, 136800, Note_on_c, 0, 60, 100
2, 136800, Note_on_c, 0, 64, 100
2, 136875, Control_c, 0, 7, 72
2, 136951, Control_c, 0, 7, 73
2, 137027, Control_c, 0, 7, 75
2, 137102, Control_c, 0, 7, 77
2, 137178, Control_c, 0, 7, 79
2, 137254, Control_c, 0, 7, 80
2, 137256, Note_on_c, 0, 64, 0
2, 137256, Note_on_c, 0, 60, 0
2, 137256, Note_on_c, 0, 55, 0
2, 137256, Note_on_c, 0, 36, 0
2, 137256, Note_on_c, 0, 48, 0
2, 137280, Note_on_c, 0, 55, 100
2, 137280, Note_on_c, 0, 60, 100
2, 137280, Note_on_c, 0, 64, 100
2, 137280, Note_on_c, 0, 48, 100
2, 137280, Note_on_c, 0, 36, 100
2, 137329, Control_c, 0, 7, 82
2, 137405, Control_c, 0, 7, 84
2, 137480, Control_c, 0, 7, 85
2, 137556, Control_c, 0, 7, 87
2, 137631, Control_c, 0, 7, 89
2, 137707, Control_c, 0, 7, 91
2, 137736, Note_on_c, 0, 36, 0
2, 137736, Note_on_c, 0, 48, 0
2, 137736, Note_on_c, 0, 64, 0
2, 137736, Note_on_c, 0, 60, 0
2, 137736, Note_on_c, 0, 55, 0
2, 137760, Note_on_c, 0, 55, 100
2, 137760, Note_on_c, 0, 60, 100
2, 137760, Note_on_c, 0, 64, 100
2, 137760, Note_on_c, 0, 48, 100
2, 137760, Note_on_c, 0, 36, 100
2, 137783, Control_c, 0, 7, 92
2, 137858, Control_c, 0, 7, 94
2, 137934, Control_c, 0, 7, 96
2, 138010, Control_c, 0, 7, 97
2, 138085, Control_c, 0, 7, 99
2, 138120, Control_c, 0, 7, 100
2, 138216, Note_on_c, 0, 36, 0
2, 138216, Note_on_c, 0, 48, 0
2, 138216, Note_on_c, 0, 64, 0
2, 138216, Note_on_c, 0, 60, 0
2, 138216, Note_on_c, 0, 55, 0
2, 138240, Note_on_c, 0, 67, 100
2, 138240, Note_on_c, 0, 48, 100
2, 138240, Note_on_c, 0, 53, 100
2, 138240, Note_on_c, 0, 55, 100
2, 138240, Note_on_c, 0, 59, 100
2, 138468, Note_on_c, 0, 67, 0
2, 138480, Note_on_c, 0, 74, 100
2, 138696, Note_on_c, 0, 59, 0
2, 138696, Note_on_c, 0, 55, 0
2, 138696, Note_on_c, 0, 53, 0
2, 138696, Note_on_c, 0, 48, 0
2, 138708, Note_on_c, 0, 74, 0
2, 138720, Note_on_c, 0, 79, 100
2, 138720, Note_on_c, 0, 48, 100
2, 138720, Note_on_c, 0, 53, 100
2, 138720, Note_on_c, 0, 55, 100
2, 138720, Note_on_c, 0, 59, 100
2, 139176, Note_on_c, 0, 59, 0
2, 139176, Note_on_c, 0, 55, 0
2, 139176, Note_on_c, 0, 53, 0
2, 139176, Note_on_c, 0, 48, 0
2, 139200, Note_on_c, 0, 48, 100
2, 139200, Note_on_c, 0, 52, 100
2, 139200, Note_on_c, 0, 55, 100
2, 139200, Note_on_c, 0, 60, 100
2, 139428, Note_on_c, 0, 79, 0
2, 139440, Note_on_c, 0, 76, 100
2, 139656, Note_on_c, 0, 60, 0
2, 139656, Note_on_c, 0, 55, 0
2, 139656, Note_on_c, 0, 52, 0
2, 139656, Note_on_c, 0, 48, 0
2, 139668, Note_on_c, 0, 76, 0
2, 139680, Note_on_c, 0, 74, 100
2, 139680, Note_on_c, 0, 48, 100
2, 139680, Note_on_c, 0, 53, 100
2, 139680, Note_on_c, 0, 55, 100
2, 139680, Note_on_c, 0, 59, 100
2, 139908, Note_on_c, 0, 74, 0
2, 139920, Note_on_c, 0, 67, 100
2, 140136, Note_on_c, 0, 59, 0
2, 140136, Note_on_c, 0, 55, 0
2, 140136, Note_on_c, 0, 53, 0
2, 140136, Note_on_c, 0, 48, 0
2, 140148, Note_on_c, 0, 67, 0
2, 140160, Note_on_c, 0, 74, 100
2, 140160, Note_on_c, 0, 48, 100
2, 140160, Note_on_c, 0, 53, 100
2, 140160, Note_on_c, 0, 55, 100
2, 140160, Note_on_c, 0, 59, 100
2, 140616, Note_on_c, 0, 59, 0
2, 140616, Note_on_c, 0, 55, 0
2, 140616, Note_on_c, 0, 53, 0
2, 140616, Note_on_c, 0, 48, 0
2, 140640, Note_on_c, 0, 48, 100
2, 140640, Note_on_c, 0, 52, 100
2, 140640, Note_on_c, 0, 55, 100
2, 140640, Note_on_c, 0, 60, 100
2, 140868, Note_on_c, 0, 74, 0
2, 140880, Note_on_c, 0, 72, 100
2, 140956, Note_on_c, 0, 72, 0
2, 140959, Note_on_c, 0, 74, 100
2, 141035, Note_on_c, 0, 74, 0
2, 141039, Note_on_c, 0, 72, 100
2, 141096, Note_on_c, 0, 60, 0
2, 141096, Note_on_c, 0, 55, 0
2, 141096, Note_on_c, 0, 52, 0
2, 141096, Note_on_c, 0, 48, 0
2, 141115, Note_on_c, 0, 72, 0
2, 141120, Note_on_c, 0, 67, 100
2, 141120, Note_on_c, 0, 48, 100
2, 141120, Note_on_c, 0, 53, 100
2, 141120, Note_on_c, 0, 55, 100
2, 141120, Note_on_c, 0, 59, 100
2, 141195, Control_c, 0, 7, 101
2, 141347, Control_c, 0, 7, 102
2, 141348, Note_on_c, 0, 67, 0
2, 141360, Note_on_c, 0, 74, 100
2, 141422, Control_c, 0, 7, 103
2, 141498, Control_c, 0, 7, 104
2, 141576, Note_on_c, 0, 59, 0
2, 141576, Note_on_c, 0, 55, 0
2, 141576, Note_on_c, 0, 53, 0
2, 141576, Note_on_c, 0, 48, 0
2, 141588, Note_on_c, 0, 74, 0
2, 141600, Note_on_c, 0, 79, 100
2, 141600, Note_on_c, 0, 48, 100
2, 141600, Note_on_c, 0, 53, 100
2, 141600, Note_on_c, 0, 55, 100
2, 141600, Note_on_c, 0, 59, 100
2, 141649, Control_c, 0, 7, 105
2, 141725, Control_c, 0, 7, 106
2, 141800, Control_c, 0, 7, 107
2, 141828, Note_on_c, 0, 79, 0
2, 141840, Note_on_c, 0, 78, 100
2, 142035, Control_c, 0, 7, 106
2, 142056, Note_on_c, 0, 59, 0
2, 142056, Note_on_c, 0, 55, 0
2, 142056, Note_on_c, 0, 53, 0
2, 142056, Note_on_c, 0, 48, 0
2, 142068, Note_on_c, 0, 78, 0
2, 142080, Note_on_c, 0, 79, 100
2, 142080, Note_on_c, 0, 48, 100
2, 142080, Note_on_c, 0, 53, 100
2, 142080, Note_on_c, 0, 55, 100
2, 142080, Note_on_c, 0, 59, 100
2, 142111, Control_c, 0, 7, 105
2, 142187, Control_c, 0, 7, 104
2, 142262, Control_c, 0, 7, 103
2, 142308, Note_on_c, 0, 79, 0
2, 142320, Note_on_c, 0, 76, 100
2, 142338, Control_c, 0, 7, 101
2, 142414, Control_c, 0, 7, 100
2, 142536, Note_on_c, 0, 59, 0
2, 142536, Note_on_c, 0, 55, 0
2, 142536, Note_on_c, 0, 53, 0
2, 142536, Note_on_c, 0, 48, 0
2, 142548, Note_on_c, 0, 76, 0
2, 142560, Note_on_c, 0, 74, 100
2, 142560, Note_on_c, 0, 48, 100
2, 142560, Note_on_c, 0, 53, 100
2, 142560, Note_on_c, 0, 55, 100
2, 142560, Note_on_c, 0, 59, 100
2, 142788, Note_on_c, 0, 74, 0
2, 142800, Note_on_c, 0, 67, 100
2, 143016, Note_on_c, 0, 59, 0
2, 143016, Note_on_c, 0, 55, 0
2, 143016, Note_on_c, 0, 53, 0
2, 143016, Note_on_c, 0, 48, 0
2, 143028, Note_on_c, 0, 67, 0
2, 143040, Note_on_c, 0, 72, 100
2, 143040, Note_on_c, 0, 48, 100
2, 143040, Note_on_c, 0, 52, 100
2, 143040, Note_on_c, 0, 55, 100
2, 143040, Note_on_c, 0, 60, 100
2, 143496, Note_on_c, 0, 60, 0
2, 143496, Note_on_c, 0, 55, 0
2, 143496, Note_on_c, 0, 52, 0
2, 143496, Note_on_c, 0, 48, 0
2, 143496, Note_on_c, 0, 72, 0
2, 143520, Note_on_c, 0, 76, 100
2, 143520, Note_on_c, 0, 48, 100
2, 143520, Note_on_c, 0, 52, 100
2, 143520, Note_on_c, 0, 55, 100
2, 143520, Note_on_c, 0, 60, 100
2, 143748, Note_on_c, 0, 76, 0
2, 143760, Note_on_c, 0, 78, 100
2, 143976, Note_on_c, 0, 60, 0
2, 143976, Note_on_c, 0, 55, 0
2, 143976, Note_on_c, 0, 52, 0
2, 143976, Note_on_c, 0, 48, 0
2, 143988, Note_on_c, 0, 78, 0
2, 144000, Note_on_c, 0, 79, 100
2, 144000, Note_on_c, 0, 48, 100
2, 144000, Note_on_c, 0, 53, 100
2, 144000, Note_on_c, 0, 55, 100
2, 144000, Note_on_c, 0, 59, 100
2, 144228, Note_on_c, 0, 79, 0
2, 144240, Note_on_c, 0, 67, 100
2, 144456, Note_on_c, 0, 59, 0
2, 144456, Note_on_c, 0, 55, 0
2, 144456, Note_on_c, 0, 53, 0
2, 144456, Note_on_c, 0, 48, 0
2, 144468, Note_on_c, 0, 67, 0
2, 144480, Note_on_c, 0, 72, 100
2, 144480, Note_on_c, 0, 48, 100
2, 144480, Note_on_c, 0, 52, 100
2, 144480, Note_on_c, 0, 55, 100
2, 144480, Note_on_c, 0, 60, 100
2, 144936, Note_on_c, 0, 60, 0
2, 144936, Note_on_c, 0, 55, 0
2, 144936, Note_on_c, 0, 52, 0
2, 144936, Note_on_c, 0, 48, 0
2, 144936, Note_on_c, 0, 72, 0
2, 144960, Note_on_c, 0, 76, 100
2, 144960, Note_on_c, 0, 48, 100
2, 144960, Note_on_c, 0, 52, 100
2, 144960, Note_on_c, 0, 55, 100
2, 144960, Note_on_c, 0, 60, 100
2, 145188, Note_on_c, 0, 76, 0
2, 145200, Note_on_c, 0, 78, 100
2, 145416, Note_on_c, 0, 60, 0
2, 145416, Note_on_c, 0, 55, 0
2, 145416, Note_on_c, 0, 52, 0
2, 145416, Note_on_c, 0, 48, 0
2, 145428, Note_on_c, 0, 78, 0
2, 145440, Note_on_c, 0, 79, 100
2, 145440, Note_on_c, 0, 48, 100
2, 145440, Note_on_c, 0, 53, 100
2, 145440, Note_on_c, 0, 55, 100
2, 145440, Note_on_c, 0, 59, 100
2, 145668, Note_on_c, 0, 79, 0
2, 145680, Note_on_c, 0, 67, 100
2, 145896, Note_on_c, 0, 59, 0
2, 145896, Note_on_c, 0, 55, 0
2, 145896, Note_on_c, 0, 53, 0
2, 145896, Note_on_c, 0, 48, 0
2, 145908, Note_on_c, 0, 67, 0
2, 145920, Note_on_c, 0, 72, 100
2, 145920, Note_on_c, 0, 48, 100
2, 145920, Note_on_c, 0, 52, 100
2, 145920, Note_on_c, 0, 55, 100
2, 145920, Note_on_c, 0, 60, 100
2, 146376, Note_on_c, 0, 60, 0
2, 146376, Note_on_c, 0, 55, 0
2, 146376, Note_on_c, 0, 52, 0
2, 146376, Note_on_c, 0, 48, 0
2, 146376, Note_on_c, 0, 72, 0
2, 146400, Note_on_c, 0, 76, 100
2, 146400, Note_on_c, 0, 48, 100
2, 146400, Note_on_c, 0, 52, 100
2, 146400, Note_on_c, 0, 55, 100
2, 146400, Note_on_c, 0, 60, 100
2, 146628, Note_on_c, 0, 76, 0
2, 146640, Note_on_c, 0, 78, 100
2, 146856, Note_on_c, 0, 60, 0
2, 146856, Note_on_c, 0, 55, 0
2, 146856, Note_on_c, 0, 52, 0
2, 146856, Note_on_c, 0, 48, 0
2, 146868, Note_on_c, 0, 78, 0
2, 146880, Note_on_c, 0, 79, 100
2, 146880, Note_on_c, 0, 48, 100
2, 146880, Note_on_c, 0, 53, 100
2, 146880, Note_on_c, 0, 55, 100
2, 146880, Note_on_c, 0, 59, 100
2, 147108, Note_on_c, 0, 79, 0
2, 147120, Note_on_c, 0, 81, 100
2, 147336, Note_on_c, 0, 59, 0
2, 147336, Note_on_c, 0, 55, 0
2, 147336, Note_on_c, 0, 53, 0
2, 147336, Note_on_c, 0, 48, 0
2, 147348, Note_on_c, 0, 81, 0
2, 147360, Note_on_c, 0, 79, 100
2, 147360, Note_on_c, 0, 48, 100
2, 147360, Note_on_c, 0, 53, 100
2, 147360, Note_on_c, 0, 55, 100
2, 147360, Note_on_c, 0, 59, 100
2, 147816, Note_on_c, 0, 59, 0
2, 147816, Note_on_c, 0, 55, 0
2, 147816, Note_on_c, 0, 53, 0
2, 147816, Note_on_c, 0, 48, 0
2, 147816, Note_on_c, 0, 79, 0
2, 147840, Note_on_c, 0, 74, 100
2, 147840, Note_on_c, 0, 48, 100
2, 147840, Note_on_c, 0, 53, 100
2, 147840, Note_on_c, 0, 55, 100
2, 147840, Note_on_c, 0, 59, 100
2, 148068, Note_on_c, 0, 74, 0
2, 148080, Note_on_c, 0, 76, 100
2, 148296, Note_on_c, 0, 59, 0
2, 148296, Note_on_c, 0, 55, 0
2, 148296, Note_on_c, 0, 53, 0
2, 148296, Note_on_c, 0, 48, 0
2, 148308, Note_on_c, 0, 76, 0
2, 148320, Note_on_c, 0, 72, 100
2, 148320, Note_on_c, 0, 48, 100
2, 148320, Note_on_c, 0, 52, 100
2, 148320, Note_on_c, 0, 55, 100
2, 148320, Note_on_c, 0, 60, 100
2, 148776, Note_on_c, 0, 60, 0
2, 148776, Note_on_c, 0, 55, 0
2, 148776, Note_on_c, 0, 52, 0
2, 148776, Note_on_c, 0, 48, 0
2, 148776, Note_on_c, 0, 72, 0
2, 148800, Note_on_c, 0, 72, 100
2, 148800, Note_on_c, 0, 76, 100
2, 148800, Note_on_c, 0, 79, 100
2, 148800, Note_on_c, 0, 84, 100
2, 148800, Note_on_c, 0, 48, 100
2, 148800, Note_on_c, 0, 36, 100
2, 149256, Note_on_c, 0, 36, 0
2, 149256, Note_on_c, 0, 48, 0
2, 149256, Note_on_c, 0, 84, 0
2, 149256, Note_on_c, 0, 79, 0
2, 149256, Note_on_c, 0, 76, 0
2, 149256, Note_on_c, 0, 72, 0
2, 149760, Note_on_c, 0, 55, 100
2, 149760, Note_on_c, 0, 43, 100
2, 149760, Note_on_c, 0, 31, 100
2, 150216, Note_on_c, 0, 31, 0
2, 150216, Note_on_c, 0, 43, 0
2, 150216, Note_on_c, 0, 55, 0
2, 150240, Note_on_c, 0, 55, 100
2, 150240, Note_on_c, 0, 43, 100
2, 150240, Note_on_c, 0, 31, 100
2, 150660, Note_on_c, 0, 54, 100
2, 150660, Note_on_c, 0, 42, 100
2, 150696, Note_on_c, 0, 31, 0
2, 150696, Note_on_c, 0, 43, 0
2, 150696, Note_on_c, 0, 55, 0
2, 150720, Note_on_c, 0, 52, 100
2, 150720, Note_on_c, 0, 40, 100
2, 150774, Note_on_c, 0, 42, 0
2, 150774, Note_on_c, 0, 54, 0
2, 150780, Note_on_c, 0, 50, 100
2, 150780, Note_on_c, 0, 38, 100
2, 150834, Note_on_c, 0, 40, 0
2, 150834, Note_on_c, 0, 52, 0
2, 151179, Note_on_c, 0, 50, 0
2, 151200, Note_on_c, 0, 55, 100
2, 151200, Note_on_c, 0, 43, 100
2, 151200, Note_on_c, 0, 31, 100
2, 151236, Note_on_c, 0, 38, 0
2, 151656, Note_on_c, 0, 31, 0
2, 151656, Note_on_c, 0, 43, 0
2, 151656, Note_on_c, 0, 55, 0
2, 151680, Note_on_c, 0, 55, 100
2, 151680, Note_on_c, 0, 43, 100
2, 151680, Note_on_c, 0, 31, 100
2, 152100, Note_on_c, 0, 54, 100
2, 152100, Note_on_c, 0, 42, 100
2, 152136, Note_on_c, 0, 31, 0
2, 152136, Note_on_c, 0, 43, 0
2, 152136, Note_on_c, 0, 55, 0
2, 152160, Note_on_c, 0, 52, 100
2, 152160, Note_on_c, 0, 40, 100
2, 152214, Note_on_c, 0, 42, 0
2, 152214, Note_on_c, 0, 54, 0
2, 152220, Note_on_c, 0, 50, 100
2, 152220, Note_on_c, 0, 38, 100
2, 152274, Note_on_c, 0, 40, 0
2, 152274, Note_on_c, 0, 52, 0
2, 152619, Note_on_c, 0, 50, 0
2, 152640, Note_on_c, 0, 55, 100
2, 152640, Note_on_c, 0, 43, 100
2, 152640, Note_on_c, 0, 31, 100
2, 152676, Note_on_c, 0, 38, 0
2, 153096, Note_on_c, 0, 31, 0
2, 153096, Note_on_c, 0, 43, 0
2, 153096, Note_on_c, 0, 55, 0
2, 153120, Note_on_c, 0, 55, 100
2, 153120, Note_on_c, 0, 43, 100
2, 153120, Note_on_c, 0, 31, 100
2, 153540, Note_on_c, 0, 54, 100
2, 153540, Note_on_c, 0, 42, 100
2, 153576, Note_on_c, 0, 31, 0
2, 153576, Note_on_c, 0, 43, 0
2, 153576, Note_on_c, 0, 55, 0
2, 153600, Note_on_c, 0, 52, 100
2, 153600, Note_on_c, 0, 40, 100
2, 153654, Note_on_c, 0, 42, 0
2, 153654, Note_on_c, 0, 54, 0
2, 153660, Note_on_c, 0, 50, 100
2, 153660, Note_on_c, 0, 38, 100
2, 153714, Note_on_c, 0, 40, 0
2, 153714, Note_on_c, 0, 52, 0
2, 154059, Note_on_c, 0, 50, 0
2, 154080, Note_on_c, 0, 55, 100
2, 154080, Note_on_c, 0, 43, 100
2, 154080, Note_on_c, 0, 31, 100
2, 154116, Note_on_c, 0, 38, 0
2, 154536, Note_on_c, 0, 31, 0
2, 154536, Note_on_c, 0, 43, 0
2, 154536, Note_on_c, 0, 55, 0
2, 154560, Note_on_c, 0, 55, 100
2, 154560, Note_on_c, 0, 43, 100
2, 154560, Note_on_c, 0, 31, 100
2, 155016, Note_on_c, 0, 31, 0
2, 155016, Note_on_c, 0, 43, 0
2, 155016, Note_on_c, 0, 55, 0
2, 155040, Note_on_c, 0, 55, 100
2, 155040, Note_on_c, 0, 43, 100
2, 155040, Note_on_c, 0, 31, 100
2, 155040, Note_on_c, 0, 59, 100
2, 155040, Note_on_c, 0, 65, 100
2, 155496, Note_on_c, 0, 65, 0
2, 155496, Note_on_c, 0, 59, 0
2, 155496, Note_on_c, 0, 31, 0
2, 155496, Note_on_c, 0, 43, 0
2, 155496, Note_on_c, 0, 55, 0
2, 155520, Note_on_c, 0, 48, 100
2, 155520, Note_on_c, 0, 36, 100
2, 155520, Note_on_c, 0, 64, 100
2, 155520, Note_on_c, 0, 60, 100
2, 155520, Note_on_c, 0, 55, 100
2, 155976, Note_on_c, 0, 55, 0
2, 155976, Note_on_c, 0, 60, 0
2, 155976, Note_on_c, 0, 64, 0
2, 155976, Note_on_c, 0, 36, 0
2, 155976, Note_on_c, 0, 48, 0
2, 156000, Note_on_c, 0, 48, 100
2, 156000, Note_on_c, 0, 36, 100
2, 156000, Note_on_c, 0, 64, 100
2, 156000, Note_on_c, 0, 60, 100
2, 156000, Note_on_c, 0, 55, 100
2, 156456, Note_on_c, 0, 55, 0
2, 156456, Note_on_c, 0, 60, 0
2, 156456, Note_on_c, 0, 64, 0
2, 156456, Note_on_c, 0, 36, 0
2, 156456, Note_on_c, 0, 48, 0
2, 156480, Note_on_c, 0, 48, 100
2, 156480, Note_on_c, 0, 36, 100
2, 156480, Note_on_c, 0, 64, 100
2, 156480, Note_on_c, 0, 60, 100
2, 156480, Note_on_c, 0, 55, 100
2, 156936, Note_on_c, 0, 55, 0
2, 156936, Note_on_c, 0, 60, 0
2, 156936, Note_on_c, 0, 64, 0
2, 156936, Note_on_c, 0, 36, 0
2, 156936, Note_on_c, 0, 48, 0
2, 156960, Note_on_c, 0, 48, 100
2, 156960, Note_on_c, 0, 36, 100
2, 156960, Note_on_c, 0, 64, 100
2, 156960, Note_on_c, 0, 60, 100
2, 156960, Note_on_c, 0, 55, 100
2, 157416, Note_on_c, 0, 55, 0
2, 157416, Note_on_c, 0, 60, 0
2, 157416, Note_on_c, 0, 64, 0
2, 157416, Note_on_c, 0, 36, 0
2, 157416, Note_on_c, 0, 48, 0
2, 157440, Note_on_c, 0, 64, 100
2, 157440, Note_on_c, 0, 60, 100
2, 157440, Note_on_c, 0, 55, 100
2, 157440, Note_on_c, 0, 48, 100
2, 157440, Note_on_c, 0, 36, 100
2, 157896, Note_on_c, 0, 36, 0
2, 157896, Note_on_c, 0, 48, 0
2, 157896, Note_on_c, 0, 55, 0
2, 157896, Note_on_c, 0, 60, 0
2, 157896, Note_on_c, 0, 64, 0
2, 157920, Note_on_c, 0, 64, 100
2, 157920, Note_on_c, 0, 60, 100
2, 157920, Note_on_c, 0, 55, 100
2, 157920, Note_on_c, 0, 48, 100
2, 157920, Note_on_c, 0, 36, 100
2, 158376, Note_on_c, 0, 36, 0
2, 158376, Note_on_c, 0, 48, 0
2, 158376, Note_on_c, 0, 55, 0
2, 158376, Note_on_c, 0, 60, 0
2, 158376, Note_on_c, 0, 64, 0
2, 158400, Note_on_c, 0, 48, 100
2, 158400, Note_on_c, 0, 36, 100
2, 158400, Note_on_c, 0, 64, 100
2, 158400, Note_on_c, 0, 60, 100
2, 158400, Note_on_c, 0, 55, 100
2, 158856, Note_on_c, 0, 55, 0
2, 158856, Note_on_c, 0, 60, 0
2, 158856, Note_on_c, 0, 64, 0
2, 158856, Note_on_c, 0, 36, 0
2, 158856, Note_on_c, 0, 48, 0
2, 158880, Note_on_c, 0, 64, 100
2, 158880, Note_on_c, 0, 60, 100
2, 158880, Note_on_c, 0, 55, 100
2, 158880, Note_on_c, 0, 48, 100
2, 158880, Note_on_c, 0, 36, 100
2, 159336, Note_on_c, 0, 36, 0
2, 159336, Note_on_c, 0, 48, 0
2, 159336, Note_on_c, 0, 55, 0
2, 159336, Note_on_c, 0, 60, 0
2, 159336, Note_on_c, 0, 64, 0
2, 159360, Note_on_c, 0, 64, 100
2, 159360, Note_on_c, 0, 60, 100
2, 159360, Note_on_c, 0, 55, 100
2, 159360, Note_on_c, 0, 48, 100
2, 159360, Note_on_c, 0, 36, 100
2, 159816, Note_on_c, 0, 36, 0
2, 159816, Note_on_c, 0, 48, 0
2, 159816, Note_on_c, 0, 55, 0
2, 159816, Note_on_c, 0, 60, 0
2, 159816, Note_on_c, 0, 64, 0
2, 159840, Note_on_c, 0, 55, 100
2, 159840, Note_on_c, 0, 59, 100
2, 159840, Note_on_c, 0, 62, 100
2, 159840, Note_on_c, 0, 67, 100
2, 159840, Note_on_c, 0, 43, 100
2, 159840, Note_on_c, 0, 31, 100
2, 162672, Note_on_c, 0, 31, 0
2, 162672, Note_on_c, 0, 43, 0
2, 162672, Note_on_c, 0, 67, 0
2, 162672, Note_on_c, 0, 62, 0
2, 162672, Note_on_c, 0, 59, 0
2, 162672, Note_on_c, 0, 55, 0
2, 164160, Note_on_c, 0, 43, 100
2, 164640, Note_on_c, 0, 55, 100
2, 164640, Note_on_c, 0, 59, 100
2, 164640, Note_on_c, 0, 65, 100
2, 165096, Note_on_c, 0, 65, 0
2, 165096, Note_on_c, 0, 59, 0
2, 165096, Note_on_c, 0, 55, 0
2, 165120, Note_on_c, 0, 55, 100
2, 165120, Note_on_c, 0, 59, 100
2, 165120, Note_on_c, 0, 65, 100
2, 165576, Note_on_c, 0, 65, 0
2, 165576, Note_on_c, 0, 59, 0
2, 165576, Note_on_c, 0, 55, 0
2, 165576, Note_on_c, 0, 43, 0
2, 165600, Note_on_c, 0, 48, 100
2, 166080, Note_on_c, 0, 55, 100
2, 166080, Note_on_c, 0, 60, 100
2, 166080, Note_on_c, 0, 64, 100
2, 166536, Note_on_c, 0, 64, 0
2, 166536, Note_on_c, 0, 60, 0
2, 166536, Note_on_c, 0, 55, 0
2, 166560, Note_on_c, 0, 55, 100
2, 166560, Note_on_c, 0, 60, 100
2, 166560, Note_on_c, 0, 64, 100
2, 167016, Note_on_c, 0, 64, 0
2, 167016, Note_on_c, 0, 60, 0
2, 167016, Note_on_c, 0, 55, 0
2, 167016, Note_on_c, 0, 48, 0
2, 167040, Note_on_c, 0, 43, 100
2, 167520, Note_on_c, 0, 55, 100
2, 167520, Note_on_c, 0, 59, 100
2, 167520, Note_on_c, 0, 65, 100
2, 167976, Note_on_c, 0, 65, 0
2, 167976, Note_on_c, 0, 59, 0
2, 167976, Note_on_c, 0, 55, 0
2, 168000, Note_on_c, 0, 55, 100
2, 168000, Note_on_c, 0, 59, 100
2, 168000, Note_on_c, 0, 65, 100
2, 168456, Note_on_c, 0, 43, 0
2, 168456, Note_on_c, 0, 65, 0
2, 168456, Note_on_c, 0, 59, 0
2, 168456, Note_on_c, 0, 55, 0
2, 168480, Note_on_c, 0, 48, 100
2, 168960, Note_on_c, 0, 55, 100
2, 168960, Note_on_c, 0, 60, 100
2, 168960, Note_on_c, 0, 64, 100
2, 169416, Note_on_c, 0, 64, 0
2, 169416, Note_on_c, 0, 60, 0
2, 169416, Note_on_c, 0, 55, 0
2, 169416, Note_on_c, 0, 48, 0
2, 169440, Note_on_c, 0, 49, 100
2, 169440, Note_on_c, 0, 55, 100
2, 169440, Note_on_c, 0, 58, 100
2, 169440, Note_on_c, 0, 64, 100
2, 169896, Note_on_c, 0, 64, 0
2, 169896, Note_on_c, 0, 58, 0
2, 169896, Note_on_c, 0, 55, 0
2, 169896, Note_on_c, 0, 49, 0
2, 169920, Note_on_c, 0, 50, 100
2, 169920, Note_on_c, 0, 57, 100
2, 169920, Note_on_c, 0, 62, 100
2, 169920, Note_on_c, 0, 65, 100
2, 170376, Note_on_c, 0, 65, 0
2, 170376, Note_on_c, 0, 62, 0
2, 170376, Note_on_c, 0, 57, 0
2, 170376, Note_on_c, 0, 50, 0
2, 170400, Note_on_c, 0, 48, 100
2, 170400, Note_on_c, 0, 56, 100
2, 170400, Note_on_c, 0, 62, 100
2, 170400, Note_on_c, 0, 65, 100
2, 170856, Note_on_c, 0, 65, 0
2, 170856, Note_on_c, 0, 62, 0
2, 170856, Note_on_c, 0, 56, 0
2, 170856, Note_on_c, 0, 48, 0
2, 170880, Note_on_c, 0, 47, 100
2, 170880, Note_on_c, 0, 55, 100
2, 170880, Note_on_c, 0, 62, 100
2, 170880, Note_on_c, 0, 65, 100
2, 171336, Note_on_c, 0, 65, 0
2, 171336, Note_on_c, 0, 62, 0
2, 171336, Note_on_c, 0, 55, 0
2, 171336, Note_on_c, 0, 47, 0
2, 171360, Note_on_c, 0, 48, 100
2, 171360, Note_on_c, 0, 55, 100
2, 171360, Note_on_c, 0, 60, 100
2, 171360, Note_on_c, 0, 64, 100
2, 171816, Note_on_c, 0, 64, 0
2, 171816, Note_on_c, 0, 60, 0
2, 171816, Note_on_c, 0, 55, 0
2, 171816, Note_on_c, 0, 48, 0
2, 171840, Note_on_c, 0, 45, 100
2, 171840, Note_on_c, 0, 57, 100
2, 171840, Note_on_c, 0, 60, 100
2, 171840, Note_on_c, 0, 64, 100
2, 172296, Note_on_c, 0, 64, 0
2, 172296, Note_on_c, 0, 60, 0
2, 172296, Note_on_c, 0, 57, 0
2, 172296, Note_on_c, 0, 45, 0
2, 172320, Note_on_c, 0, 40, 100
2, 172320, Note_on_c, 0, 55, 100
2, 172320, Note_on_c, 0, 60, 100
2, 172320, Note_on_c, 0, 64, 100
2, 172776, Note_on_c, 0, 64, 0
2, 172776, Note_on_c, 0, 60, 0
2, 172776, Note_on_c, 0, 55, 0
2, 172776, Note_on_c, 0, 40, 0
2, 172800, Note_on_c, 0, 41, 100
2, 172800, Note_on_c, 0, 57, 100
2, 172800, Note_on_c, 0, 60, 100
2, 172800, Note_on_c, 0, 62, 100
2, 173256, Note_on_c, 0, 62, 0
2, 173256, Note_on_c, 0, 60, 0
2, 173256, Note_on_c, 0, 57, 0
2, 173256, Note_on_c, 0, 41, 0
2, 173280, Note_on_c, 0, 43, 100
2, 173280, Note_on_c, 0, 55, 100
2, 173280, Note_on_c, 0, 59, 100
2, 173280, Note_on_c, 0, 65, 100
2, 173736, Note_on_c, 0, 65, 0
2, 173736, Note_on_c, 0, 59, 0
2, 173736, Note_on_c, 0, 55, 0
2, 173736, Note_on_c, 0, 43, 0
2, 173760, Note_on_c, 0, 43, 100
2, 173760, Note_on_c, 0, 55, 100
2, 173760, Note_on_c, 0, 59, 100
2, 173760, Note_on_c, 0, 65, 100
2, 174216, Note_on_c, 0, 65, 0
2, 174216, Note_on_c, 0, 59, 0
2, 174216, Note_on_c, 0, 55, 0
2, 174216, Note_on_c, 0, 43, 0
2, 174240, Note_on_c, 0, 48, 100
2, 174240, Note_on_c, 0, 36, 100
2, 174240, Note_on_c, 0, 55, 100
2, 174240, Note_on_c, 0, 60, 100
2, 174240, Note_on_c, 0, 64, 100
2, 174696, Note_on_c, 0, 64, 0
2, 174696, Note_on_c, 0, 60, 0
2, 174696, Note_on_c, 0, 55, 0
2, 174696, Note_on_c, 0, 36, 0
2, 174696, Note_on_c, 0, 48, 0
2, 174720, Note_on_c, 0, 48, 100
2, 174720, Note_on_c, 0, 55, 100
2, 175176, Note_on_c, 0, 55, 0
2, 175176, Note_on_c, 0, 48, 0
2, 175200, Note_on_c, 0, 55, 100
2, 175200, Note_on_c, 0, 48, 100
2, 175656, Note_on_c, 0, 48, 0
2, 175656, Note_on_c, 0, 55, 0
2, 175680, Note_on_c, 0, 67, 100
2, 175680, Note_on_c, 0, 48, 100
2, 175680, Note_on_c, 0, 53, 100
2, 175680, Note_on_c, 0, 55, 100
2, 175680, Note_on_c, 0, 59, 100
2, 175908, Note_on_c, 0, 67, 0
2, 175920, Note_on_c, 0, 74, 100
2, 176136, Note_on_c, 0, 59, 0
2, 176136, Note_on_c, 0, 55, 0
2, 176136, Note_on_c, 0, 53, 0
2, 176136, Note_on_c, 0, 48, 0
2, 176148, Note_on_c, 0, 74, 0
2, 176160, Note_on_c, 0, 79, 100
2, 176160, Note_on_c, 0, 48, 100
2, 176160, Note_on_c, 0, 53, 100
2, 176160, Note_on_c, 0, 55, 100
2, 176160, Note_on_c, 0, 59, 100
2, 176616, Note_on_c, 0, 59, 0
2, 176616, Note_on_c, 0, 55, 0
2, 176616, Note_on_c, 0, 53, 0
2, 176616, Note_on_c, 0, 48, 0
2, 176640, Note_on_c, 0, 48, 100
2, 176640, Note_on_c, 0, 52, 100
2, 176640, Note_on_c, 0, 55, 100
2, 176640, Note_on_c, 0, 60, 100
2, 176868, Note_on_c, 0, 79, 0
2, 176880, Note_on_c, 0, 76, 100
2, 177096, Note_on_c, 0, 60, 0
2, 177096, Note_on_c, 0, 55, 0
2, 177096, Note_on_c, 0, 52, 0
2, 177096, Note_on_c, 0, 48, 0
2, 177108, Note_on_c, 0, 76, 0
2, 177120, Note_on_c, 0, 74, 100
2, 177120, Note_on_c, 0, 48, 100
2, 177120, Note_on_c, 0, 53, 100
2, 177120, Note_on_c, 0, 55, 100
2, 177120, Note_on_c, 0, 59, 100
2, 177348, Note_on_c, 0, 74, 0
2, 177360, Note_on_c, 0, 67, 100
2, 177576, Note_on_c, 0, 59, 0
2, 177576, Note_on_c, 0, 55, 0
2, 177576, Note_on_c, 0, 53, 0
2, 177576, Note_on_c, 0, 48, 0
2, 177588, Note_on_c, 0, 67, 0
2, 177600, Note_on_c, 0, 74, 100
2, 177600, Note_on_c, 0, 48, 100
2, 177600, Note_on_c, 0, 53, 100
2, 177600, Note_on_c, 0, 55, 100
2, 177600, Note_on_c, 0, 59, 100
2, 178056, Note_on_c, 0, 59, 0
2, 178056, Note_on_c, 0, 55, 0
2, 178056, Note_on_c, 0, 53, 0
2, 178056, Note_on_c, 0, 48, 0
2, 178080, Note_on_c, 0, 48, 100
2, 178080, Note_on_c, 0, 52, 100
2, 178080, Note_on_c, 0, 55, 100
2, 178080, Note_on_c, 0, 60, 100
2, 178308, Note_on_c, 0, 74, 0
2, 178320, Note_on_c, 0, 72, 100
2, 178396, Note_on_c, 0, 72, 0
2, 178399, Note_on_c, 0, 74, 100
2, 178475, Note_on_c, 0, 74, 0
2, 178479, Note_on_c, 0, 72, 100
2, 178536, Note_on_c, 0, 60, 0
2, 178536, Note_on_c, 0, 55, 0
2, 178536, Note_on_c, 0, 52, 0
2, 178536, Note_on_c, 0, 48, 0
2, 178555, Note_on_c, 0, 72, 0
2, 178560, Note_on_c, 0, 67, 100
2, 178560, Note_on_c, 0, 48, 100
2, 178560, Note_on_c, 0, 53, 100
2, 178560, Note_on_c, 0, 55, 100
2, 178560, Note_on_c, 0, 59, 100
2, 178788, Note_on_c, 0, 67, 0
2, 178800, Note_on_c, 0, 74, 100
2, 179016, Note_on_c, 0, 59, 0
2, 179016, Note_on_c, 0, 55, 0
2, 179016, Note_on_c, 0, 53, 0
2, 179016, Note_on_c, 0, 48, 0
2, 179028, Note_on_c, 0, 74, 0
2, 179040, Note_on_c, 0, 79, 100
2, 179040, Note_on_c, 0, 48, 100
2, 179040, Note_on_c, 0, 53, 100
2, 179040, Note_on_c, 0, 55, 100
2, 179040, Note_on_c, 0, 59, 100
2, 179268, Note_on_c, 0, 79, 0
2, 179280, Note_on_c, 0, 78, 100
2, 179496, Note_on_c, 0, 59, 0
2, 179496, Note_on_c, 0, 55, 0
2, 179496, Note_on_c, 0, 53, 0
2, 179496, Note_on_c, 0, 48, 0
2, 179508, Note_on_c, 0, 78, 0
2, 179520, Note_on_c, 0, 79, 100
2, 179520, Note_on_c, 0, 48, 100
2, 179520, Note_on_c, 0, 53, 100
2, 179520, Note_on_c, 0, 55, 100
2, 179520, Note_on_c, 0, 59, 100
2, 179748, Note_on_c, 0, 79, 0
2, 179760, Note_on_c, 0, 76, 100
2, 179976, Note_on_c, 0, 59, 0
2, 179976, Note_on_c, 0, 55, 0
2, 179976, Note_on_c, 0, 53, 0
2, 179976, Note_on_c, 0, 48, 0
2, 179988, Note_on_c, 0, 76, 0
2, 180000, Note_on_c, 0, 74, 100
2, 180000, Note_on_c, 0, 48, 100
2, 180000, Note_on_c, 0, 53, 100
2, 180000, Note_on_c, 0, 55, 100
2, 180000, Note_on_c, 0, 59, 100
2, 180228, Note_on_c, 0, 74, 0
2, 180240, Note_on_c, 0, 67, 100
2, 180456, Note_on_c, 0, 59, 0
2, 180456, Note_on_c, 0, 55, 0
2, 180456, Note_on_c, 0, 53, 0
2, 180456, Note_on_c, 0, 48, 0
2, 180468, Note_on_c, 0, 67, 0
2, 180480, Note_on_c, 0, 72, 100
2, 180480, Note_on_c, 0, 48, 100
2, 180480, Note_on_c, 0, 52, 100
2, 180480, Note_on_c, 0, 55, 100
2, 180480, Note_on_c, 0, 60, 100
2, 180936, Note_on_c, 0, 60, 0
2, 180936, Note_on_c, 0, 55, 0
2, 180936, Note_on_c, 0, 52, 0
2, 180936, Note_on_c, 0, 48, 0
2, 180936, Note_on_c, 0, 72, 0
2, 180960, Note_on_c, 0, 76, 100
2, 180960, Note_on_c, 0, 48, 100
2, 180960, Note_on_c, 0, 52, 100
2, 180960, Note_on_c, 0, 55, 100
2, 180960, Note_on_c, 0, 60, 100
2, 181188, Note_on_c, 0, 76, 0
2, 181200, Note_on_c, 0, 78, 100
2, 181416, Note_on_c, 0, 60, 0
2, 181416, Note_on_c, 0, 55, 0
2, 181416, Note_on_c, 0, 52, 0
2, 181416, Note_on_c, 0, 48, 0
2, 181428, Note_on_c, 0, 78, 0
2, 181440, Note_on_c, 0, 79, 100
2, 181440, Note_on_c, 0, 48, 100
2, 181440, Note_on_c, 0, 53, 100
2, 181440, Note_on_c, 0, 55, 100
2, 181440, Note_on_c, 0, 59, 100
2, 181668, Note_on_c, 0, 79, 0
2, 181680, Note_on_c, 0, 67, 100
2, 181896, Note_on_c, 0, 59, 0
2, 181896, Note_on_c, 0, 55, 0
2, 181896, Note_on_c, 0, 53, 0
2, 181896, Note_on_c, 0, 48, 0
2, 181908, Note_on_c, 0, 67, 0
2, 181920, Note_on_c, 0, 72, 100
2, 181920, Note_on_c, 0, 48, 100
2, 181920, Note_on_c, 0, 52, 100
2, 181920, Note_on_c, 0, 55, 100
2, 181920, Note_on_c, 0, 60, 100
2, 182376, Note_on_c, 0, 60, 0
2, 182376, Note_on_c, 0, 55, 0
2, 182376, Note_on_c, 0, 52, 0
2, 182376, Note_on_c, 0, 48, 0
2, 182376, Note_on_c, 0, 72, 0
2, 182400, Note_on_c, 0, 76, 100
2, 182400, Note_on_c, 0, 48, 100
2, 182400, Note_on_c, 0, 52, 100
2, 182400, Note_on_c, 0, 55, 100
2, 182400, Note_on_c, 0, 60, 100
2, 182628, Note_on_c, 0, 76, 0
2, 182640, Note_on_c, 0, 78, 100
2, 182856, Note_on_c, 0, 60, 0
2, 182856, Note_on_c, 0, 55, 0
2, 182856, Note_on_c, 0, 52, 0
2, 182856, Note_on_c, 0, 48, 0
2, 182868, Note_on_c, 0, 78, 0
2, 182880, Note_on_c, 0, 79, 100
2, 182880, Note_on_c, 0, 48, 100
2, 182880, Note_on_c, 0, 53, 100
2, 182880, Note_on_c, 0, 55, 100
2, 182880, Note_on_c, 0, 59, 100
2, 183108, Note_on_c, 0, 79, 0
2, 183120, Note_on_c, 0, 67, 100
2, 183336, Note_on_c, 0, 59, 0
2, 183336, Note_on_c, 0, 55, 0
2, 183336, Note_on_c, 0, 53, 0
2, 183336, Note_on_c, 0, 48, 0
2, 183348, Note_on_c, 0, 67, 0
2, 183360, Note_on_c, 0, 72, 100
2, 183360, Note_on_c, 0, 48, 100
2, 183360, Note_on_c, 0, 52, 100
2, 183360, Note_on_c, 0, 55, 100
2, 183360, Note_on_c, 0, 60, 100
2, 183816, Note_on_c, 0, 60, 0
2, 183816, Note_on_c, 0, 55, 0
2, 183816, Note_on_c, 0, 52, 0
2, 183816, Note_on_c, 0, 48, 0
2, 183816, Note_on_c, 0, 72, 0
2, 183840, Note_on_c, 0, 76, 100
2, 183840, Note_on_c, 0, 48, 100
2, 183840, Note_on_c, 0, 52, 100
2, 183840, Note_on_c, 0, 55, 100
2, 183840, Note_on_c, 0, 60, 100
2, 184068, Note_on_c, 0, 76, 0
2, 184080, Note_on_c, 0, 78, 100
2, 184296, Note_on_c, 0, 60, 0
2, 184296, Note_on_c, 0, 55, 0
2, 184296, Note_on_c, 0, 52, 0
2, 184296, Note_on_c, 0, 48, 0
2, 184308, Note_on_c, 0, 78, 0
2, 184320, Note_on_c, 0, 79, 100
2, 184320, Note_on_c, 0, 48, 100
2, 184320, Note_on_c, 0, 53, 100
2, 184320, Note_on_c, 0, 55, 100
2, 184320, Note_on_c, 0, 59, 100
2, 184548, Note_on_c, 0, 79, 0
2, 184560, Note_on_c, 0, 81, 100
2, 184776, Note_on_c, 0, 59, 0
2, 184776, Note_on_c, 0, 55, 0
2, 184776, Note_on_c, 0, 53, 0
2, 184776, Note_on_c, 0, 48, 0
2, 184788, Note_on_c, 0, 81, 0
2, 184800, Note_on_c, 0, 79, 100
2, 184800, Note_on_c, 0, 48, 100
2, 184800, Note_on_c, 0, 53, 100
2, 184800, Note_on_c, 0, 55, 100
2, 184800, Note_on_c, 0, 59, 100
2, 185256, Note_on_c, 0, 59, 0
2, 185256, Note_on_c, 0, 55, 0
2, 185256, Note_on_c, 0, 53, 0
2, 185256, Note_on_c, 0, 48, 0
2, 185256, Note_on_c, 0, 79, 0
2, 185280, Note_on_c, 0, 74, 100
2, 185280, Note_on_c, 0, 48, 100
2, 185280, Note_on_c, 0, 53, 100
2, 185280, Note_on_c, 0, 55, 100
2, 185280, Note_on_c, 0, 59, 100
2, 185508, Note_on_c, 0, 74, 0
2, 185520, Note_on_c, 0, 76, 100
2, 185736, Note_on_c, 0, 59, 0
2, 185736, Note_on_c, 0, 55, 0
2, 185736, Note_on_c, 0, 53, 0
2, 185736, Note_on_c, 0, 48, 0
2, 185748, Note_on_c, 0, 76, 0
2, 185760, Note_on_c, 0, 72, 100
2, 185760, Note_on_c, 0, 48, 100
2, 185760, Note_on_c, 0, 52, 100
2, 185760, Note_on_c, 0, 55, 100
2, 185760, Note_on_c, 0, 60, 100
2, 186216, Note_on_c, 0, 60, 0
2, 186216, Note_on_c, 0, 55, 0
2, 186216, Note_on_c, 0, 52, 0
2, 186216, Note_on_c, 0, 48, 0
2, 186216, Note_on_c, 0, 72, 0
2, 186240, Note_on_c, 0, 72, 100
2, 186240, Note_on_c, 0, 76, 100
2, 186240, Note_on_c, 0, 79, 100
2, 186240, Note_on_c, 0, 84, 100
2, 186240, Note_on_c, 0, 48, 100
2, 186240, Note_on_c, 0, 36, 100
2, 186696, Note_on_c, 0, 36, 0
2, 186696, Note_on_c, 0, 48, 0
2, 186696, Note_on_c, 0, 84, 0
2, 186696, Note_on_c, 0, 79, 0
2, 186696, Note_on_c, 0, 76, 0
2, 186696, Note_on_c, 0, 72, 0
2, 187200, End_track
3, 0, Start_track
3, 0, Control_c, 1, 7, 127
3, 0, Control_c, 1, 0, 0
3, 0, Control_c, 1, 32, 0
3, 0, Program_c, 1, 53
3, 0, Control_c, 1, 1, 0
3, 0, Control_c, 1, 10, 64
3, 0, Control_c, 1, 91, 0
3, 0, Control_c, 1, 93, 0
3, 0, Title_t, "Voice"
3, 5700, Control_c, 1, 7, 104
3, 5760, Note_on_c, 1, 64, 100
3, 5988, Note_on_c, 1, 64, 0
3, 6000, Note_on_c, 1, 62, 100
3, 6031, Control_c, 1, 7, 105
3, 6228, Note_on_c, 1, 62, 0
3, 6240, Note_on_c, 1, 60, 100
3, 6334, Control_c, 1, 7, 106
3, 6560, Control_c, 1, 7, 107
3, 6787, Control_c, 1, 7, 108
3, 6948, Note_on_c, 1, 60, 0
3, 6960, Note_on_c, 1, 62, 100
3, 7090, Control_c, 1, 7, 109
3, 7188, Note_on_c, 1, 62, 0
3, 7200, Note_on_c, 1, 64, 100
3, 7316, Control_c, 1, 7, 110
3, 7428, Note_on_c, 1, 64, 0
3, 7440, Note_on_c, 1, 65, 100
3, 7543, Control_c, 1, 7, 111
3, 7668, Note_on_c, 1, 65, 0
3, 7680, Note_on_c, 1, 67, 100
3, 7846, Control_c, 1, 7, 112
3, 8072, Control_c, 1, 7, 113
3, 8375, Control_c, 1, 7, 114
3, 8388, Note_on_c, 1, 67, 0
3, 8400, Note_on_c, 1, 69, 100
3, 8601, Control_c, 1, 7, 115
3, 8628, Note_on_c, 1, 69, 0
3, 8640, Note_on_c, 1, 67, 100
3, 8828, Control_c, 1, 7, 116
3, 8868, Note_on_c, 1, 67, 0
3, 8880, Note_on_c, 1, 69, 100
3, 9108, Note_on_c, 1, 69, 0
3, 9120, Note_on_c, 1, 67, 100
3, 9131, Control_c, 1, 7, 117
3, 9357, Control_c, 1, 7, 118
3, 9576, Note_on_c, 1, 67, 0
3, 9584, Control_c, 1, 7, 119
3, 9600, Note_on_c, 1, 72, 100
3, 9887, Control_c, 1, 7, 120
3, 10056, Note_on_c, 1, 72, 0
3, 10080, Note_on_c, 1, 74, 100
3, 11520, Control_c, 1, 7, 118
3, 11595, Control_c, 1, 7, 116
3, 11671, Control_c, 1, 7, 115
3, 11747, Control_c, 1, 7, 113
3, 11822, Control_c, 1, 7, 111
3, 11898, Control_c, 1, 7, 110
3, 11973, Control_c, 1, 7, 108
3, 12049, Control_c, 1, 7, 106
3, 12124, Control_c, 1, 7, 104
3, 12200, Control_c, 1, 7, 103
3, 12276, Control_c, 1, 7, 101
3, 12351, Control_c, 1, 7, 99
3, 12427, Control_c, 1, 7, 98
3, 12503, Control_c, 1, 7, 96
3, 12578, Control_c, 1, 7, 94
3, 12654, Control_c, 1, 7, 93
3, 12729, Control_c, 1, 7, 91
3, 12805, Control_c, 1, 7, 89
3, 12912, Note_on_c, 1, 74, 0
3, 14400, Control_c, 1, 7, 90
3, 14400, Note_on_c, 1, 65, 100
3, 14628, Note_on_c, 1, 65, 0
3, 14640, Note_on_c, 1, 69, 100
3, 14868, Note_on_c, 1, 69, 0
3, 14880, Note_on_c, 1, 65, 100
3, 15279, Note_on_c, 1, 65, 0
3, 15300, Note_on_c, 1, 65, 100
3, 15357, Note_on_c, 1, 65, 0
3, 15360, Note_on_c, 1, 64, 100
3, 15417, Note_on_c, 1, 64, 0
3, 15420, Note_on_c, 1, 62, 100
3, 15819, Note_on_c, 1, 62, 0
3, 15840, Note_on_c, 1, 64, 100
3, 16068, Note_on_c, 1, 64, 0
3, 16080, Note_on_c, 1, 67, 100
3, 16308, Note_on_c, 1, 67, 0
3, 16320, Note_on_c, 1, 64, 100
3, 16719, Note_on_c, 1, 64, 0
3, 16740, Note_on_c, 1, 64, 100
3, 16797, Note_on_c, 1, 64, 0
3, 16800, Note_on_c, 1, 62, 100
3, 16857, Note_on_c, 1, 62, 0
3, 16860, Note_on_c, 1, 60, 100
3, 17259, Note_on_c, 1, 60, 0
3, 17280, Note_on_c, 1, 62, 100
3, 17431, Control_c, 1, 7, 91
3, 17508, Note_on_c, 1, 62, 0
3, 17520, Note_on_c, 1, 64, 100
3, 17658, Control_c, 1, 7, 92
3, 17748, Note_on_c, 1, 64, 0
3, 17760, Note_on_c, 1, 65, 100
3, 17885, Control_c, 1, 7, 93
3, 18111, Control_c, 1, 7, 94
3, 18216, Note_on_c, 1, 65, 0
3, 18240, Note_on_c, 1, 69, 100
3, 18338, Control_c, 1, 7, 95
3, 18565, Control_c, 1, 7, 96
3, 18696, Note_on_c, 1, 69, 0
3, 18720, Note_on_c, 1, 67, 100
3, 18792, Control_c, 1, 7, 97
3, 19019, Control_c, 1, 7, 98
3, 19246, Control_c, 1, 7, 99
3, 19472, Control_c, 1, 7, 100
3, 19699, Control_c, 1, 7, 101
3, 19926, Control_c, 1, 7, 102
3, 20136, Note_on_c, 1, 67, 0
3, 20160, Note_on_c, 1, 65, 100
3, 20388, Note_on_c, 1, 65, 0
3, 20400, Note_on_c, 1, 69, 100
3, 20628, Note_on_c, 1, 69, 0
3, 20640, Note_on_c, 1, 65, 100
3, 21039, Note_on_c, 1, 65, 0
3, 21060, Note_on_c, 1, 65, 100
3, 21117, Note_on_c, 1, 65, 0
3, 21120, Note_on_c, 1, 64, 100
3, 21177, Note_on_c, 1, 64, 0
3, 21180, Note_on_c, 1, 62, 100
3, 21579, Note_on_c, 1, 62, 0
3, 21600, Note_on_c, 1, 64, 100
3, 21828, Note_on_c, 1, 64, 0
3, 21840, Note_on_c, 1, 67, 100
3, 22068, Note_on_c, 1, 67, 0
3, 22080, Note_on_c, 1, 64, 100
3, 22479, Note_on_c, 1, 64, 0
3, 22500, Note_on_c, 1, 64, 100
3, 22557, Note_on_c, 1, 64, 0
3, 22560, Note_on_c, 1, 62, 100
3, 22617, Note_on_c, 1, 62, 0
3, 22620, Note_on_c, 1, 60, 100
3, 23019, Note_on_c, 1, 60, 0
3, 23040, Note_on_c, 1, 62, 100
3, 23268, Note_on_c, 1, 62, 0
3, 23280, Note_on_c, 1, 69, 100
3, 23508, Note_on_c, 1, 69, 0
3, 23520, Note_on_c, 1, 67, 100
3, 24228, Note_on_c, 1, 67, 0
3, 24240, Note_on_c, 1, 59, 100
3, 24468, Note_on_c, 1, 59, 0
3, 24480, Note_on_c, 1, 60, 100
3, 25896, Note_on_c, 1, 60, 0
3, 43200, Control_c, 1, 7, 104
3, 43200, Note_on_c, 1, 64, 100
3, 43351, Control_c, 1, 7, 105
3, 43428, Note_on_c, 1, 64, 0
3, 43440, Note_on_c, 1, 62, 100
3, 43654, Control_c, 1, 7, 106
3, 43668, Note_on_c, 1, 62, 0
3, 43680, Note_on_c, 1, 60, 100
3, 43880, Control_c, 1, 7, 107
3, 44183, Control_c, 1, 7, 108
3, 44388, Note_on_c, 1, 60, 0
3, 44400, Note_on_c, 1, 62, 100
3, 44410, Control_c, 1, 7, 109
3, 44628, Note_on_c, 1, 62, 0
3, 44640, Note_on_c, 1, 64, 100
3, 44712, Control_c, 1, 7, 110
3, 44868, Note_on_c, 1, 64, 0
3, 44880, Note_on_c, 1, 65, 100
3, 44939, Control_c, 1, 7, 111
3, 45108, Note_on_c, 1, 65, 0
3, 45120, Note_on_c, 1, 67, 100
3, 45241, Control_c, 1, 7, 112
3, 45468, Control_c, 1, 7, 113
3, 45695, Control_c, 1, 7, 114
3, 45828, Note_on_c, 1, 67, 0
3, 45840, Note_on_c, 1, 69, 100
3, 45997, Control_c, 1, 7, 115
3, 46068, Note_on_c, 1, 69, 0
3, 46080, Note_on_c, 1, 67, 100
3, 46224, Control_c, 1, 7, 116
3, 46308, Note_on_c, 1, 67, 0
3, 46320, Note_on_c, 1, 69, 100
3, 46526, Control_c, 1, 7, 117
3, 46548, Note_on_c, 1, 69, 0
3, 46560, Note_on_c, 1, 67, 100
3, 46753, Control_c, 1, 7, 118
3, 47016, Note_on_c, 1, 67, 0
3, 47040, Note_on_c, 1, 72, 100
3, 47055, Control_c, 1, 7, 119
3, 47282, Control_c, 1, 7, 120
3, 47496, Note_on_c, 1, 72, 0
3, 47520, Note_on_c, 1, 74, 100
3, 49035, Control_c, 1, 7, 118
3, 49111, Control_c, 1, 7, 116
3, 49187, Control_c, 1, 7, 114
3, 49262, Control_c, 1, 7, 112
3, 49338, Control_c, 1, 7, 111
3, 49414, Control_c, 1, 7, 109
3, 49489, Control_c, 1, 7, 107
3, 49565, Control_c, 1, 7, 105
3, 49640, Control_c, 1, 7, 103
3, 49716, Control_c, 1, 7, 101
3, 49791, Control_c, 1, 7, 99
3, 49867, Control_c, 1, 7, 97
3, 49943, Control_c, 1, 7, 95
3, 50018, Control_c, 1, 7, 94
3, 50094, Control_c, 1, 7, 92
3, 50160, Control_c, 1, 7, 90
3, 50352, Note_on_c, 1, 74, 0
3, 51840, Note_on_c, 1, 65, 100
3, 52068, Note_on_c, 1, 65, 0
3, 52080, Note_on_c, 1, 69, 100
3, 52308, Note_on_c, 1, 69, 0
3, 52320, Note_on_c, 1, 65, 100
3, 52719, Note_on_c, 1, 65, 0
3, 52740, Note_on_c, 1, 65, 100
3, 52797, Note_on_c, 1, 65, 0
3, 52800, Note_on_c, 1, 64, 100
3, 52857, Note_on_c, 1, 64, 0
3, 52860, Note_on_c, 1, 62, 100
3, 53259, Note_on_c, 1, 62, 0
3, 53280, Note_on_c, 1, 64, 100
3, 53508, Note_on_c, 1, 64, 0
3, 53520, Note_on_c, 1, 67, 100
3, 53748, Note_on_c, 1, 67, 0
3, 53760, Note_on_c, 1, 64, 100
3, 54159, Note_on_c, 1, 64, 0
3, 54180, Note_on_c, 1, 64, 100
3, 54237, Note_on_c, 1, 64, 0
3, 54240, Note_on_c, 1, 62, 100
3, 54297, Note_on_c, 1, 62, 0
3, 54300, Note_on_c, 1, 60, 100
3, 54699, Note_on_c, 1, 60, 0
3, 54720, Note_on_c, 1, 62, 100
3, 54795, Control_c, 1, 7, 91
3, 54947, Control_c, 1, 7, 92
3, 54948, Note_on_c, 1, 62, 0
3, 54960, Note_on_c, 1, 64, 100
3, 55022, Control_c, 1, 7, 93
3, 55174, Control_c, 1, 7, 94
3, 55188, Note_on_c, 1, 64, 0
3, 55200, Note_on_c, 1, 65, 100
3, 55249, Control_c, 1, 7, 95
3, 55400, Control_c, 1, 7, 96
3, 55476, Control_c, 1, 7, 97
3, 55551, Control_c, 1, 7, 98
3, 55656, Note_on_c, 1, 65, 0
3, 55680, Note_on_c, 1, 69, 100
3, 55703, Control_c, 1, 7, 99
3, 55778, Control_c, 1, 7, 100
3, 55930, Control_c, 1, 7, 101
3, 56005, Control_c, 1, 7, 102
3, 56136, Note_on_c, 1, 69, 0
3, 56156, Control_c, 1, 7, 103
3, 56160, Note_on_c, 1, 67, 100
3, 56232, Control_c, 1, 7, 104
3, 56383, Control_c, 1, 7, 105
3, 56459, Control_c, 1, 7, 106
3, 56610, Control_c, 1, 7, 107
3, 56686, Control_c, 1, 7, 108
3, 56761, Control_c, 1, 7, 109
3, 56912, Control_c, 1, 7, 110
3, 56988, Control_c, 1, 7, 111
3, 57139, Control_c, 1, 7, 112
3, 57215, Control_c, 1, 7, 113
3, 57360, Control_c, 1, 7, 114
3, 57576, Note_on_c, 1, 67, 0
3, 57600, Note_on_c, 1, 65, 100
3, 57828, Note_on_c, 1, 65, 0
3, 57840, Note_on_c, 1, 69, 100
3, 58068, Note_on_c, 1, 69, 0
3, 58080, Note_on_c, 1, 65, 100
3, 58479, Note_on_c, 1, 65, 0
3, 58500, Note_on_c, 1, 65, 100
3, 58557, Note_on_c, 1, 65, 0
3, 58560, Note_on_c, 1, 64, 100
3, 58617, Note_on_c, 1, 64, 0
3, 58620, Note_on_c, 1, 62, 100
3, 59019, Note_on_c, 1, 62, 0
3, 59040, Note_on_c, 1, 64, 100
3, 59268, Note_on_c, 1, 64, 0
3, 59280, Note_on_c, 1, 67, 100
3, 59508, Note_on_c, 1, 67, 0
3, 59520, Note_on_c, 1, 64, 100
3, 59919, Note_on_c, 1, 64, 0
3, 59940, Note_on_c, 1, 64, 100
3, 59997, Note_on_c, 1, 64, 0
3, 60000, Note_on_c, 1, 62, 100
3, 60057, Note_on_c, 1, 62, 0
3, 60060, Note_on_c, 1, 60, 100
3, 60459, Note_on_c, 1, 60, 0
3, 60480, Note_on_c, 1, 62, 100
3, 60708, Note_on_c, 1, 62, 0
3, 60720, Note_on_c, 1, 69, 100
3, 60948, Note_on_c, 1, 69, 0
3, 60960, Note_on_c, 1, 67, 100
3, 61668, Note_on_c, 1, 67, 0
3, 61680, Note_on_c, 1, 59, 100
3, 61908, Note_on_c, 1, 59, 0
3, 61920, Note_on_c, 1, 60, 100
3, 63336, Note_on_c, 1, 60, 0
3, 74880, Control_c, 1, 7, 127
3, 80580, Control_c, 1, 7, 104
3, 80640, Note_on_c, 1, 64, 100
3, 80868, Note_on_c, 1, 64, 0
3, 80880, Note_on_c, 1, 62, 100
3, 80911, Control_c, 1, 7, 105
3, 81108, Note_on_c, 1, 62, 0
3, 81120, Note_on_c, 1, 60, 100
3, 81214, Control_c, 1, 7, 106
3, 81440, Control_c, 1, 7, 107
3, 81667, Control_c, 1, 7, 108
3, 81828, Note_on_c, 1, 60, 0
3, 81840, Note_on_c, 1, 62, 100
3, 81970, Control_c, 1, 7, 109
3, 82068, Note_on_c, 1, 62, 0
3, 82080, Note_on_c, 1, 64, 100
3, 82196, Control_c, 1, 7, 110
3, 82308, Note_on_c, 1, 64, 0
3, 82320, Note_on_c, 1, 65, 100
3, 82423, Control_c, 1, 7, 111
3, 82548, Note_on_c, 1, 65, 0
3, 82560, Note_on_c, 1, 67, 100
3, 82726, Control_c, 1, 7, 112
3, 82952, Control_c, 1, 7, 113
3, 83255, Control_c, 1, 7, 114
3, 83268, Note_on_c, 1, 67, 0
3, 83280, Note_on_c, 1, 69, 100
3, 83481, Control_c, 1, 7, 115
3, 83508, Note_on_c, 1, 69, 0
3, 83520, Note_on_c, 1, 67, 100
3, 83708, Control_c, 1, 7, 116
3, 83748, Note_on_c, 1, 67, 0
3, 83760, Note_on_c, 1, 69, 100
3, 83988, Note_on_c, 1, 69, 0
3, 84000, Note_on_c, 1, 67, 100
3, 84011, Control_c, 1, 7, 117
3, 84237, Control_c, 1, 7, 118
3, 84456, Note_on_c, 1, 67, 0
3, 84464, Control_c, 1, 7, 119
3, 84480, Note_on_c, 1, 72, 100
3, 84767, Control_c, 1, 7, 120
3, 84936, Note_on_c, 1, 72, 0
3, 84960, Note_on_c, 1, 74, 100
3, 86400, Control_c, 1, 7, 118
3, 86475, Control_c, 1, 7, 116
3, 86551, Control_c, 1, 7, 115
3, 86627, Control_c, 1, 7, 113
3, 86702, Control_c, 1, 7, 111
3, 86778, Control_c, 1, 7, 110
3, 86853, Control_c, 1, 7, 108
3, 86929, Control_c, 1, 7, 106
3, 87004, Control_c, 1, 7, 104
3, 87080, Control_c, 1, 7, 103
3, 87156, Control_c, 1, 7, 101
3, 87231, Control_c, 1, 7, 99
3, 87307, Control_c, 1, 7, 98
3, 87383, Control_c, 1, 7, 96
3, 87458, Control_c, 1, 7, 94
3, 87534, Control_c, 1, 7, 93
3, 87609, Control_c, 1, 7, 91
3, 87685, Control_c, 1, 7, 89
3, 87792, Note_on_c, 1, 74, 0
3, 89280, Control_c, 1, 7, 90
3, 89280, Note_on_c, 1, 65, 100
3, 89508, Note_on_c, 1, 65, 0
3, 89520, Note_on_c, 1, 69, 100
3, 89748, Note_on_c, 1, 69, 0
3, 89760, Note_on_c, 1, 65, 100
3, 90159, Note_on_c, 1, 65, 0
3, 90180, Note_on_c, 1, 65, 100
3, 90237, Note_on_c, 1, 65, 0
3, 90240, Note_on_c, 1, 64, 100
3, 90297, Note_on_c, 1, 64, 0
3, 90300, Note_on_c, 1, 62, 100
3, 90699, Note_on_c, 1, 62, 0
3, 90720, Note_on_c, 1, 64, 100
3, 90948, Note_on_c, 1, 64, 0
3, 90960, Note_on_c, 1, 67, 100
3, 91188, Note_on_c, 1, 67, 0
3, 91200, Note_on_c, 1, 64, 100
3, 91599, Note_on_c, 1, 64, 0
3, 91620, Note_on_c, 1, 64, 100
3, 91677, Note_on_c, 1, 64, 0
3, 91680, Note_on_c, 1, 62, 100
3, 91737, Note_on_c, 1, 62, 0
3, 91740, Note_on_c, 1, 60, 100
3, 92139, Note_on_c, 1, 60, 0
3, 92160, Note_on_c, 1, 62, 100
3, 92311, Control_c, 1, 7, 91
3, 92388, Note_on_c, 1, 62, 0
3, 92400, Note_on_c, 1, 64, 100
3, 92538, Control_c, 1, 7, 92
3, 92628, Note_on_c, 1, 64, 0
3, 92640, Note_on_c, 1, 65, 100
3, 92765, Control_c, 1, 7, 93
3, 92991, Control_c, 1, 7, 94
3, 93096, Note_on_c, 1, 65, 0
3, 93120, Note_on_c, 1, 69, 100
3, 93218, Control_c, 1, 7, 95
3, 93445, Control_c, 1, 7, 96
3, 93576, Note_on_c, 1, 69, 0
3, 93600, Note_on_c, 1, 67, 100
3, 93672, Control_c, 1, 7, 97
3, 93899, Control_c, 1, 7, 98
3, 94126, Control_c, 1, 7, 99
3, 94352, Control_c, 1, 7, 100
3, 94579, Control_c, 1, 7, 101
3, 94806, Control_c, 1, 7, 102
3, 95016, Note_on_c, 1, 67, 0
3, 95040, Note_on_c, 1, 65, 100
3, 95268, Note_on_c, 1, 65, 0
3, 95280, Note_on_c, 1, 69, 100
3, 95508, Note_on_c, 1, 69, 0
3, 95520, Note_on_c, 1, 65, 100
3, 95919, Note_on_c, 1, 65, 0
3, 95940, Note_on_c, 1, 65, 100
3, 95997, Note_on_c, 1, 65, 0
3, 96000, Note_on_c, 1, 64, 100
3, 96057, Note_on_c, 1, 64, 0
3, 96060, Note_on_c, 1, 62, 100
3, 96459, Note_on_c, 1, 62, 0
3, 96480, Note_on_c, 1, 64, 100
3, 96708, Note_on_c, 1, 64, 0
3, 96720, Note_on_c, 1, 67, 100
3, 96948, Note_on_c, 1, 67, 0
3, 96960, Note_on_c, 1, 64, 100
3, 97359, Note_on_c, 1, 64, 0
3, 97380, Note_on_c, 1, 64, 100
3, 97437, Note_on_c, 1, 64, 0
3, 97440, Note_on_c, 1, 62, 100
3, 97497, Note_on_c, 1, 62, 0
3, 97500, Note_on_c, 1, 60, 100
3, 97899, Note_on_c, 1, 60, 0
3, 97920, Note_on_c, 1, 62, 100
3, 98148, Note_on_c, 1, 62, 0
3, 98160, Note_on_c, 1, 69, 100
3, 98388, Note_on_c, 1, 69, 0
3, 98400, Note_on_c, 1, 67, 100
3, 99108, Note_on_c, 1, 67, 0
3, 99120, Note_on_c, 1, 59, 100
3, 99348, Note_on_c, 1, 59, 0
3, 99360, Note_on_c, 1, 60, 100
3, 100776, Note_on_c, 1, 60, 0
3, 118080, Control_c, 1, 7, 104
3, 118080, Note_on_c, 1, 64, 100
3, 118231, Control_c, 1, 7, 105
3, 118308, Note_on_c, 1, 64, 0
3, 118320, Note_on_c, 1, 62, 100
3, 118534, Control_c, 1, 7, 106
3, 118548, Note_on_c, 1, 62, 0
3, 118560, Note_on_c, 1, 60, 100
3, 118760, Control_c, 1, 7, 107
3, 119063, Control_c, 1, 7, 108
3, 119268, Note_on_c, 1, 60, 0
3, 119280, Note_on_c, 1, 62, 100
3, 119290, Control_c, 1, 7, 109
3, 119508, Note_on_c, 1, 62, 0
3, 119520, Note_on_c, 1, 64, 100
3, 119592, Control_c, 1, 7, 110
3, 119748, Note_on_c, 1, 64, 0
3, 119760, Note_on_c, 1, 65, 100
3, 119819, Control_c, 1, 7, 111
3, 119988, Note_on_c, 1, 65, 0
3, 120000, Note_on_c, 1, 67, 100
3, 120121, Control_c, 1, 7, 112
3, 120348, Control_c, 1, 7, 113
3, 120575, Control_c, 1, 7, 114
3, 120708, Note_on_c, 1, 67, 0
3, 120720, Note_on_c, 1, 69, 100
3, 120877, Control_c, 1, 7, 115
3, 120948, Note_on_c, 1, 69, 0
3, 120960, Note_on_c, 1, 67, 100
3, 121104, Control_c, 1, 7, 116
3, 121188, Note_on_c, 1, 67, 0
3, 121200, Note_on_c, 1, 69, 100
3, 121406, Control_c, 1, 7, 117
3, 121428, Note_on_c, 1, 69, 0
3, 121440, Note_on_c, 1, 67, 100
3, 121633, Control_c, 1, 7, 118
3, 121896, Note_on_c, 1, 67, 0
3, 121920, Note_on_c, 1, 72, 100
3, 121935, Control_c, 1, 7, 119
3, 122162, Control_c, 1, 7, 120
3, 122376, Note_on_c, 1, 72, 0
3, 122400, Note_on_c, 1, 74, 100
3, 123915, Control_c, 1, 7, 118
3, 123991, Control_c, 1, 7, 116
3, 124067, Control_c, 1, 7, 114
3, 124142, Control_c, 1, 7, 112
3, 124218, Control_c, 1, 7, 111
3, 124294, Control_c, 1, 7, 109
3, 124369, Control_c, 1, 7, 107
3, 124445, Control_c, 1, 7, 105
3, 124520, Control_c, 1, 7, 103
3, 124596, Control_c, 1, 7, 101
3, 124671, Control_c, 1, 7, 99
3, 124747, Control_c, 1, 7, 97
3, 124823, Control_c, 1, 7, 95
3, 124898, Control_c, 1, 7, 94
3, 124974, Control_c, 1, 7, 92
3, 125040, Control_c, 1, 7, 90
3, 125232, Note_on_c, 1, 74, 0
3, 126720, Note_on_c, 1, 65, 100
3, 126948, Note_on_c, 1, 65, 0
3, 126960, Note_on_c, 1, 69, 100
3, 127188, Note_on_c, 1, 69, 0
3, 127200, Note_on_c, 1, 65, 100
3, 127599, Note_on_c, 1, 65, 0
3, 127620, Note_on_c, 1, 65, 100
3, 127677, Note_on_c, 1, 65, 0
3, 127680, Note_on_c, 1, 64, 100
3, 127737, Note_on_c, 1, 64, 0
3, 127740, Note_on_c, 1, 62, 100
3, 128139, Note_on_c, 1, 62, 0
3, 128160, Note_on_c, 1, 64, 100
3, 128388, Note_on_c, 1, 64, 0
3, 128400, Note_on_c, 1, 67, 100
3, 128628, Note_on_c, 1, 67, 0
3, 128640, Note_on_c, 1, 64, 100
3, 129039, Note_on_c, 1, 64, 0
3, 129060, Note_on_c, 1, 64, 100
3, 129117, Note_on_c, 1, 64, 0
3, 129120, Note_on_c, 1, 62, 100
3, 129177, Note_on_c, 1, 62, 0
3, 129180, Note_on_c, 1, 60, 100
3, 129579, Note_on_c, 1, 60, 0
3, 129600, Note_on_c, 1, 62, 100
3, 129675, Control_c, 1, 7, 91
3, 129827, Control_c, 1, 7, 92
3, 129828, Note_on_c, 1, 62, 0
3, 129840, Note_on_c, 1, 64, 100
3, 129902, Control_c, 1, 7, 93
3, 130054, Control_c, 1, 7, 94
3, 130068, Note_on_c, 1, 64, 0
3, 130080, Note_on_c, 1, 65, 100
3, 130129, Control_c, 1, 7, 95
3, 130280, Control_c, 1, 7, 96
3, 130356, Control_c, 1, 7, 97
3, 130431, Control_c, 1, 7, 98
3, 130536, Note_on_c, 1, 65, 0
3, 130560, Note_on_c, 1, 69, 100
3, 130583, Control_c, 1, 7, 99
3, 130658, Control_c, 1, 7, 100
3, 130810, Control_c, 1, 7, 101
3, 130885, Control_c, 1, 7, 102
3, 131016, Note_on_c, 1, 69, 0
3, 131036, Control_c, 1, 7, 103
3, 131040, Note_on_c, 1, 67, 100
3, 131112, Control_c, 1, 7, 104
3, 131263, Control_c, 1, 7, 105
3, 131339, Control_c, 1, 7, 106
3, 131490, Control_c, 1, 7, 107
3, 131566, Control_c, 1, 7, 108
3, 131641, Control_c, 1, 7, 109
3, 131792, Control_c, 1, 7, 110
3, 131868, Control_c, 1, 7, 111
3, 132019, Control_c, 1, 7, 112
3, 132095, Control_c, 1, 7, 113
3, 132240, Control_c, 1, 7, 114
3, 132456, Note_on_c, 1, 67, 0
3, 132480, Note_on_c, 1, 65, 100
3, 132708, Note_on_c, 1, 65, 0
3, 132720, Note_on_c, 1, 69, 100
3, 132948, Note_on_c, 1, 69, 0
3, 132960, Note_on_c, 1, 65, 100
3, 133359, Note_on_c, 1, 65, 0
3, 133380, Note_on_c, 1, 65, 100
3, 133437, Note_on_c, 1, 65, 0
3, 133440, Note_on_c, 1, 64, 100
3, 133497, Note_on_c, 1, 64, 0
3, 133500, Note_on_c, 1, 62, 100
3, 133899, Note_on_c, 1, 62, 0
3, 133920, Note_on_c, 1, 64, 100
3, 134148, Note_on_c, 1, 64, 0
3, 134160, Note_on_c, 1, 67, 100
3, 134388, Note_on_c, 1, 67, 0
3, 134400, Note_on_c, 1, 64, 100
3, 134799, Note_on_c, 1, 64, 0
3, 134820, Note_on_c, 1, 64, 100
3, 134877, Note_on_c, 1, 64, 0
3, 134880, Note_on_c, 1, 62, 100
3, 134937, Note_on_c, 1, 62, 0
3, 134940, Note_on_c, 1, 60, 100
3, 135339, Note_on_c, 1, 60, 0
3, 135360, Note_on_c, 1, 62, 100
3, 135588, Note_on_c, 1, 62, 0
3, 135600, Note_on_c, 1, 69, 100
3, 135828, Note_on_c, 1, 69, 0
3, 135840, Note_on_c, 1, 67, 100
3, 136548, Note_on_c, 1, 67, 0
3, 136560, Note_on_c, 1, 59, 100
3, 136788, Note_on_c, 1, 59, 0
3, 136800, Note_on_c, 1, 60, 100
3, 138216, Note_on_c, 1, 60, 0
3, 155520, Note_on_c, 1, 64, 100
3, 155748, Note_on_c, 1, 64, 0
3, 155760, Note_on_c, 1, 62, 100
3, 155988, Note_on_c, 1, 62, 0
3, 156000, Note_on_c, 1, 60, 100
3, 156708, Note_on_c, 1, 60, 0
3, 156720, Note_on_c, 1, 62, 100
3, 156948, Note_on_c, 1, 62, 0
3, 156960, Note_on_c, 1, 64, 100
3, 157188, Note_on_c, 1, 64, 0
3, 157200, Note_on_c, 1, 65, 100
3, 157428, Note_on_c, 1, 65, 0
3, 157440, Note_on_c, 1, 67, 100
3, 158148, Note_on_c, 1, 67, 0
3, 158160, Note_on_c, 1, 69, 100
3, 158388, Note_on_c, 1, 69, 0
3, 158400, Note_on_c, 1, 67, 100
3, 158628, Note_on_c, 1, 67, 0
3, 158640, Note_on_c, 1, 69, 100
3, 158868, Note_on_c, 1, 69, 0
3, 158880, Note_on_c, 1, 67, 100
3, 159336, Note_on_c, 1, 67, 0
3, 159360, Note_on_c, 1, 72, 100
3, 159816, Note_on_c, 1, 72, 0
3, 159840, Note_on_c, 1, 74, 100
3, 162672, Note_on_c, 1, 74, 0
3, 164160, Note_on_c, 1, 65, 100
3, 164388, Note_on_c, 1, 65, 0
3, 164400, Note_on_c, 1, 69, 100
3, 164628, Note_on_c, 1, 69, 0
3, 164640, Note_on_c, 1, 65, 100
3, 165039, Note_on_c, 1, 65, 0
3, 165060, Note_on_c, 1, 65, 100
3, 165117, Note_on_c, 1, 65, 0
3, 165120, Note_on_c, 1, 64, 100
3, 165177, Note_on_c, 1, 64, 0
3, 165180, Note_on_c, 1, 62, 100
3, 165579, Note_on_c, 1, 62, 0
3, 165600, Note_on_c, 1, 64, 100
3, 165828, Note_on_c, 1, 64, 0
3, 165840, Note_on_c, 1, 67, 100
3, 166068, Note_on_c, 1, 67, 0
3, 166080, Note_on_c, 1, 64, 100
3, 166479, Note_on_c, 1, 64, 0
3, 166500, Note_on_c, 1, 64, 100
3, 166557, Note_on_c, 1, 64, 0
3, 166560, Note_on_c, 1, 62, 100
3, 166617, Note_on_c, 1, 62, 0
3, 166620, Note_on_c, 1, 60, 100
3, 167019, Note_on_c, 1, 60, 0
3, 167040, Note_on_c, 1, 62, 100
3, 167268, Note_on_c, 1, 62, 0
3, 167280, Note_on_c, 1, 64, 100
3, 167508, Note_on_c, 1, 64, 0
3, 167520, Note_on_c, 1, 65, 100
3, 167976, Note_on_c, 1, 65, 0
3, 168000, Note_on_c, 1, 69, 100
3, 168456, Note_on_c, 1, 69, 0
3, 168480, Note_on_c, 1, 67, 100
3, 169896, Note_on_c, 1, 67, 0
3, 169920, Note_on_c, 1, 65, 100
3, 170148, Note_on_c, 1, 65, 0
3, 170160, Note_on_c, 1, 69, 100
3, 170388, Note_on_c, 1, 69, 0
3, 170400, Note_on_c, 1, 65, 100
3, 170799, Note_on_c, 1, 65, 0
3, 170820, Note_on_c, 1, 65, 100
3, 170877, Note_on_c, 1, 65, 0
3, 170880, Note_on_c, 1, 64, 100
3, 170937, Note_on_c, 1, 64, 0
3, 170940, Note_on_c, 1, 62, 100
3, 171339, Note_on_c, 1, 62, 0
3, 171360, Note_on_c, 1, 64, 100
3, 171588, Note_on_c, 1, 64, 0
3, 171600, Note_on_c, 1, 67, 100
3, 171828, Note_on_c, 1, 67, 0
3, 171840, Note_on_c, 1, 64, 100
3, 172239, Note_on_c, 1, 64, 0
3, 172260, Note_on_c, 1, 64, 100
3, 172317, Note_on_c, 1, 64, 0
3, 172320, Note_on_c, 1, 62, 100
3, 172377, Note_on_c, 1, 62, 0
3, 172380, Note_on_c, 1, 60, 100
3, 172779, Note_on_c, 1, 60, 0
3, 172800, Note_on_c, 1, 62, 100
3, 173028, Note_on_c, 1, 62, 0
3, 173040, Note_on_c, 1, 69, 100
3, 173268, Note_on_c, 1, 69, 0
3, 173280, Note_on_c, 1, 67, 100
3, 173988, Note_on_c, 1, 67, 0
3, 174000, Note_on_c, 1, 59, 100
3, 174228, Note_on_c, 1, 59, 0
3, 174240, Note_on_c, 1, 60, 100
3, 175656, Note_on_c, 1, 60, 0
3, 187200, End_track
0, 0, End_of_file