0, 0, Header, 1, 7, 120
1, 0, Start_track
1, 0, Sequencer_specific, 03, 00, 00, 41
1, 0, Sequencer_specific, 03, 00, 00, 41
1, 0, Time_signature, 3, 2, 24, 8
1, 0, Key_signature, 0, "major"
1, 0, Tempo, 333333
1, 7558, Tempo, 342857
1, 7920, Tempo, 348837
1, 8280, Tempo, 340909
1, 9000, Tempo, 333333
1, 10800, Tempo, 338983
1, 11158, Tempo, 346820
1, 11882, Tempo, 333333
1, 17278, Tempo, 352941
1, 17640, Tempo, 338983
1, 19080, Tempo, 350877
1, 20522, Tempo, 337078
1, 21960, Tempo, 340909
1, 22329, Tempo, 346820
1, 22679, Tempo, 368098
1, 23040, Tempo, 387096
1, 23040, End_track
2, 0, Start_track
2, 0, MIDI_port, 0
2, 0, Title_t, "Piano"
2, 0, Program_c, 0, 0
2, 0, Control_c, 0, 7, 110
2, 0, Control_c, 0, 10, 64
2, 241, Control_c, 0, 121, 0
2, 241, Control_c, 0, 0, 0
2, 241, Program_c, 0, 0
2, 241, Control_c, 0, 91, 40
2, 241, Control_c, 0, 93, 10
2, 241, Control_c, 0, 7, 110
2, 241, Note_on_c, 0, 74, 100
2, 335, Note_on_c, 0, 74, 0
2, 357, Control_c, 0, 64, 127
2, 360, Note_on_c, 0, 74, 106
2, 360, Note_on_c, 0, 47, 106
2, 392, Note_on_c, 0, 47, 0
2, 402, Note_on_c, 0, 76, 99
2, 407, Note_on_c, 0, 74, 0
2, 433, Note_on_c, 0, 74, 99
2, 443, Note_on_c, 0, 76, 0
2, 477, Note_on_c, 0, 73, 106
2, 477, Note_on_c, 0, 54, 106
2, 478, Note_on_c, 0, 62, 107
2, 491, Note_on_c, 0, 74, 0
2, 503, Note_on_c, 0, 62, 0
2, 507, Note_on_c, 0, 54, 0
2, 518, Control_c, 0, 64, 0
2, 592, Note_on_c, 0, 71, 93
2, 593, Note_on_c, 0, 54, 93
2, 594, Note_on_c, 0, 62, 93
2, 594, Note_on_c, 0, 73, 0
2, 627, Note_on_c, 0, 62, 0
2, 643, Note_on_c, 0, 54, 0
2, 718, Note_on_c, 0, 70, 114
2, 718, Control_c, 0, 64, 127
2, 721, Note_on_c, 0, 42, 114
2, 728, Note_on_c, 0, 71, 0
2, 752, Note_on_c, 0, 42, 0
2, 791, Note_on_c, 0, 70, 0
2, 797, Note_on_c, 0, 79, 98
2, 799, Note_on_c, 0, 67, 98
2, 808, Note_on_c, 0, 67, 0
2, 832, Note_on_c, 0, 79, 0
2, 837, Note_on_c, 0, 78, 102
2, 842, Note_on_c, 0, 66, 102
2, 842, Note_on_c, 0, 64, 102
2, 844, Note_on_c, 0, 58, 102
2, 844, Note_on_c, 0, 54, 102
2, 851, Note_on_c, 0, 64, 0
2, 852, Note_on_c, 0, 54, 0
2, 858, Note_on_c, 0, 58, 0
2, 866, Control_c, 0, 64, 0
2, 952, Note_on_c, 0, 54, 93
2, 953, Note_on_c, 0, 58, 92
2, 955, Note_on_c, 0, 64, 92
2, 955, Note_on_c, 0, 78, 0
2, 969, Note_on_c, 0, 64, 0
2, 978, Note_on_c, 0, 66, 0
2, 993, Note_on_c, 0, 58, 0
2, 995, Note_on_c, 0, 54, 0
2, 1022, Note_on_c, 0, 74, 100
2, 1057, Note_on_c, 0, 74, 0
2, 1076, Control_c, 0, 64, 127
2, 1077, Note_on_c, 0, 74, 119
2, 1078, Note_on_c, 0, 47, 117
2, 1104, Note_on_c, 0, 74, 0
2, 1105, Note_on_c, 0, 47, 0
2, 1107, Note_on_c, 0, 76, 115
2, 1129, Note_on_c, 0, 74, 115
2, 1138, Note_on_c, 0, 76, 0
2, 1180, Note_on_c, 0, 73, 123
2, 1182, Note_on_c, 0, 62, 123
2, 1182, Note_on_c, 0, 54, 123
2, 1191, Note_on_c, 0, 74, 0
2, 1200, Note_on_c, 0, 54, 0
2, 1202, Control_c, 0, 64, 0
2, 1202, Note_on_c, 0, 62, 0
2, 1305, Note_on_c, 0, 54, 115
2, 1306, Note_on_c, 0, 62, 115
2, 1307, Note_on_c, 0, 71, 115
2, 1313, Note_on_c, 0, 73, 0
2, 1327, Note_on_c, 0, 62, 0
2, 1356, Note_on_c, 0, 54, 0
2, 1432, Note_on_c, 0, 42, 124
2, 1433, Note_on_c, 0, 69, 125
2, 1433, Note_on_c, 0, 71, 0
2, 1443, Control_c, 0, 64, 127
2, 1464, Note_on_c, 0, 42, 0
2, 1515, Note_on_c, 0, 68, 124
2, 1525, Note_on_c, 0, 69, 0
2, 1548, Note_on_c, 0, 54, 87
2, 1548, Note_on_c, 0, 61, 78
2, 1551, Note_on_c, 0, 66, 109
2, 1552, Note_on_c, 0, 57, 91
2, 1559, Note_on_c, 0, 68, 0
2, 1562, Note_on_c, 0, 57, 0
2, 1566, Control_c, 0, 64, 0
2, 1568, Note_on_c, 0, 54, 0
2, 1569, Note_on_c, 0, 61, 0
2, 1673, Note_on_c, 0, 54, 87
2, 1675, Note_on_c, 0, 61, 87
2, 1679, Note_on_c, 0, 57, 86
2, 1703, Note_on_c, 0, 66, 0
2, 1704, Note_on_c, 0, 61, 0
2, 1715, Note_on_c, 0, 57, 0
2, 1724, Note_on_c, 0, 54, 0
2, 1802, Note_on_c, 0, 71, 99
2, 1807, Note_on_c, 0, 43, 80
2, 1812, Control_c, 0, 64, 127
2, 1847, Note_on_c, 0, 73, 93
2, 1847, Note_on_c, 0, 43, 0
2, 1854, Note_on_c, 0, 71, 0
2, 1881, Note_on_c, 0, 71, 103
2, 1894, Note_on_c, 0, 73, 0
2, 1918, Note_on_c, 0, 69, 111
2, 1924, Note_on_c, 0, 50, 81
2, 1928, Note_on_c, 0, 59, 73
2, 1930, Note_on_c, 0, 71, 0
2, 1936, Control_c, 0, 64, 0
2, 1946, Note_on_c, 0, 59, 0
2, 1946, Note_on_c, 0, 50, 0
2, 2037, Note_on_c, 0, 59, 86
2, 2038, Note_on_c, 0, 67, 105
2, 2038, Note_on_c, 0, 50, 85
2, 2040, Note_on_c, 0, 69, 0
2, 2065, Note_on_c, 0, 59, 0
2, 2079, Note_on_c, 0, 50, 0
2, 2167, Note_on_c, 0, 66, 124
2, 2167, Note_on_c, 0, 38, 95
2, 2168, Control_c, 0, 64, 127
2, 2176, Note_on_c, 0, 67, 0
2, 2191, Note_on_c, 0, 38, 0
2, 2230, Note_on_c, 0, 66, 0
2, 2245, Note_on_c, 0, 76, 104
2, 2251, Note_on_c, 0, 64, 81
2, 2261, Note_on_c, 0, 76, 0
2, 2262, Note_on_c, 0, 64, 0
2, 2288, Note_on_c, 0, 50, 97
2, 2288, Note_on_c, 0, 57, 86
2, 2291, Note_on_c, 0, 74, 114
2, 2293, Note_on_c, 0, 62, 98
2, 2302, Note_on_c, 0, 57, 0
2, 2307, Note_on_c, 0, 50, 0
2, 2315, Control_c, 0, 64, 0
2, 2396, Note_on_c, 0, 50, 99
2, 2396, Note_on_c, 0, 57, 91
2, 2404, Note_on_c, 0, 74, 0
2, 2426, Note_on_c, 0, 57, 0
2, 2433, Note_on_c, 0, 62, 0
2, 2445, Note_on_c, 0, 50, 0
2, 2524, Note_on_c, 0, 40, 118
2, 2526, Note_on_c, 0, 67, 118
2, 2529, Control_c, 0, 64, 127
2, 2552, Note_on_c, 0, 40, 0
2, 2577, Note_on_c, 0, 69, 120
2, 2585, Note_on_c, 0, 67, 0
2, 2606, Note_on_c, 0, 67, 113
2, 2616, Note_on_c, 0, 69, 0
2, 2645, Note_on_c, 0, 66, 124
2, 2645, Note_on_c, 0, 55, 101
2, 2645, Note_on_c, 0, 49, 101
2, 2645, Note_on_c, 0, 47, 104
2, 2657, Note_on_c, 0, 67, 0
2, 2662, Control_c, 0, 64, 0
2, 2679, Note_on_c, 0, 55, 0
2, 2685, Note_on_c, 0, 47, 0
2, 2687, Note_on_c, 0, 49, 0
2, 2763, Note_on_c, 0, 42, 95
2, 2763, Note_on_c, 0, 64, 115
2, 2767, Note_on_c, 0, 46, 98
2, 2767, Note_on_c, 0, 52, 86
2, 2769, Note_on_c, 0, 66, 0
2, 2796, Note_on_c, 0, 52, 0
2, 2808, Note_on_c, 0, 42, 0
2, 2808, Note_on_c, 0, 46, 0
2, 2874, Note_on_c, 0, 62, 115
2, 2876, Note_on_c, 0, 35, 91
2, 2876, Note_on_c, 0, 64, 0
2, 2890, Control_c, 0, 64, 127
2, 2956, Note_on_c, 0, 61, 111
2, 2972, Note_on_c, 0, 62, 0
2, 2998, Note_on_c, 0, 42, 92
2, 2999, Note_on_c, 0, 59, 104
2, 3002, Note_on_c, 0, 50, 91
2, 3002, Note_on_c, 0, 61, 0
2, 3024, Control_c, 0, 64, 0
2, 3076, Note_on_c, 0, 59, 0
2, 3113, Note_on_c, 0, 50, 0
2, 3115, Note_on_c, 0, 35, 0
2, 3119, Note_on_c, 0, 42, 0
2, 3183, Note_on_c, 0, 74, 112
2, 3220, Note_on_c, 0, 74, 0
2, 3247, Note_on_c, 0, 74, 112
2, 3254, Control_c, 0, 64, 127
2, 3255, Note_on_c, 0, 47, 104
2, 3277, Note_on_c, 0, 76, 102
2, 3279, Note_on_c, 0, 74, 0
2, 3288, Note_on_c, 0, 47, 0
2, 3301, Note_on_c, 0, 74, 111
2, 3315, Note_on_c, 0, 76, 0
2, 3349, Note_on_c, 0, 73, 119
2, 3357, Note_on_c, 0, 54, 81
2, 3360, Note_on_c, 0, 62, 67
2, 3365, Note_on_c, 0, 74, 0
2, 3373, Note_on_c, 0, 62, 0
2, 3374, Control_c, 0, 64, 0
2, 3377, Note_on_c, 0, 54, 0
2, 3470, Note_on_c, 0, 71, 98
2, 3470, Note_on_c, 0, 54, 93
2, 3474, Note_on_c, 0, 62, 86
2, 3474, Note_on_c, 0, 73, 0
2, 3497, Note_on_c, 0, 62, 0
2, 3520, Note_on_c, 0, 54, 0
2, 3589, Note_on_c, 0, 70, 124
2, 3593, Note_on_c, 0, 42, 91
2, 3595, Note_on_c, 0, 71, 0
2, 3605, Control_c, 0, 64, 127
2, 3618, Note_on_c, 0, 42, 0
2, 3672, Note_on_c, 0, 70, 0
2, 3673, Note_on_c, 0, 79, 95
2, 3699, Note_on_c, 0, 79, 0
2, 3709, Note_on_c, 0, 54, 81
2, 3710, Note_on_c, 0, 78, 109
2, 3712, Note_on_c, 0, 58, 82
2, 3713, Note_on_c, 0, 66, 107
2, 3717, Note_on_c, 0, 54, 0
2, 3726, Note_on_c, 0, 58, 0
2, 3734, Control_c, 0, 64, 0
2, 3827, Note_on_c, 0, 54, 82
2, 3830, Note_on_c, 0, 58, 88
2, 3830, Note_on_c, 0, 78, 0
2, 3832, Note_on_c, 0, 64, 84
2, 3852, Note_on_c, 0, 66, 0
2, 3853, Note_on_c, 0, 64, 0
2, 3862, Note_on_c, 0, 54, 0
2, 3880, Note_on_c, 0, 58, 0
2, 3911, Note_on_c, 0, 74, 101
2, 3935, Note_on_c, 0, 74, 0
2, 3957, Note_on_c, 0, 74, 103
2, 3959, Note_on_c, 0, 47, 99
2, 3971, Control_c, 0, 64, 127
2, 3982, Note_on_c, 0, 74, 0
2, 3985, Note_on_c, 0, 76, 107
2, 3985, Note_on_c, 0, 47, 0
2, 4011, Note_on_c, 0, 74, 110
2, 4020, Note_on_c, 0, 76, 0
2, 4075, Note_on_c, 0, 54, 87
2, 4080, Note_on_c, 0, 62, 71
2, 4081, Note_on_c, 0, 73, 119
2, 4087, Note_on_c, 0, 74, 0
2, 4091, Control_c, 0, 64, 0
2, 4094, Note_on_c, 0, 62, 0
2, 4097, Note_on_c, 0, 54, 0
2, 4190, Note_on_c, 0, 62, 87
2, 4190, Note_on_c, 0, 71, 104
2, 4190, Note_on_c, 0, 54, 84
2, 4202, Note_on_c, 0, 73, 0
2, 4211, Note_on_c, 0, 62, 0
2, 4242, Note_on_c, 0, 54, 0
2, 4309, Note_on_c, 0, 42, 93
2, 4309, Note_on_c, 0, 69, 108
2, 4311, Note_on_c, 0, 71, 0
2, 4328, Control_c, 0, 64, 127
2, 4345, Note_on_c, 0, 42, 0
2, 4398, Note_on_c, 0, 68, 108
2, 4417, Note_on_c, 0, 69, 0
2, 4429, Note_on_c, 0, 54, 87
2, 4431, Note_on_c, 0, 66, 102
2, 4436, Note_on_c, 0, 57, 81
2, 4437, Note_on_c, 0, 68, 0
2, 4447, Note_on_c, 0, 57, 0
2, 4448, Control_c, 0, 64, 0
2, 4456, Note_on_c, 0, 54, 0
2, 4547, Note_on_c, 0, 54, 83
2, 4547, Note_on_c, 0, 61, 79
2, 4553, Note_on_c, 0, 57, 81
2, 4555, Note_on_c, 0, 66, 0
2, 4566, Note_on_c, 0, 57, 0
2, 4568, Note_on_c, 0, 61, 0
2, 4583, Note_on_c, 0, 54, 0
2, 4617, Note_on_c, 0, 71, 98
2, 4641, Note_on_c, 0, 71, 0
2, 4674, Note_on_c, 0, 71, 104
2, 4677, Note_on_c, 0, 43, 91
2, 4687, Control_c, 0, 64, 127
2, 4696, Note_on_c, 0, 71, 0
2, 4701, Note_on_c, 0, 73, 102
2, 4711, Note_on_c, 0, 43, 0
2, 4722, Note_on_c, 0, 71, 106
2, 4735, Note_on_c, 0, 73, 0
2, 4803, Note_on_c, 0, 69, 107
2, 4812, Note_on_c, 0, 50, 88
2, 4814, Note_on_c, 0, 59, 74
2, 4819, Note_on_c, 0, 71, 0
2, 4820, Control_c, 0, 64, 0
2, 4837, Note_on_c, 0, 50, 0
2, 4846, Note_on_c, 0, 59, 0
2, 4917, Note_on_c, 0, 67, 102
2, 4919, Note_on_c, 0, 69, 0
2, 4923, Note_on_c, 0, 59, 76
2, 4923, Note_on_c, 0, 50, 85
2, 4948, Note_on_c, 0, 59, 0
2, 4964, Note_on_c, 0, 50, 0
2, 5040, Note_on_c, 0, 66, 120
2, 5044, Note_on_c, 0, 67, 0
2, 5045, Note_on_c, 0, 38, 86
2, 5055, Control_c, 0, 64, 127
2, 5081, Note_on_c, 0, 38, 0
2, 5104, Note_on_c, 0, 66, 0
2, 5127, Note_on_c, 0, 76, 96
2, 5131, Note_on_c, 0, 64, 91
2, 5135, Note_on_c, 0, 76, 0
2, 5139, Note_on_c, 0, 64, 0
2, 5169, Note_on_c, 0, 74, 99
2, 5170, Note_on_c, 0, 62, 97
2, 5170, Note_on_c, 0, 50, 88
2, 5170, Note_on_c, 0, 57, 68
2, 5191, Control_c, 0, 64, 0
2, 5198, Note_on_c, 0, 50, 0
2, 5201, Note_on_c, 0, 57, 0
2, 5269, Note_on_c, 0, 74, 0
2, 5278, Note_on_c, 0, 50, 91
2, 5278, Note_on_c, 0, 57, 80
2, 5300, Note_on_c, 0, 57, 0
2, 5312, Note_on_c, 0, 50, 0
2, 5326, Note_on_c, 0, 62, 0
2, 5348, Note_on_c, 0, 67, 106
2, 5369, Note_on_c, 0, 67, 0
2, 5393, Note_on_c, 0, 67, 103
2, 5395, Note_on_c, 0, 40, 96
2, 5402, Control_c, 0, 64, 127
2, 5415, Note_on_c, 0, 40, 0
2, 5416, Note_on_c, 0, 67, 0
2, 5420, Note_on_c, 0, 69, 110
2, 5440, Note_on_c, 0, 67, 105
2, 5448, Note_on_c, 0, 69, 0
2, 5509, Note_on_c, 0, 66, 115
2, 5512, Note_on_c, 0, 49, 82
2, 5515, Note_on_c, 0, 47, 81
2, 5515, Note_on_c, 0, 67, 0
2, 5519, Note_on_c, 0, 55, 71
2, 5522, Control_c, 0, 64, 0
2, 5538, Note_on_c, 0, 55, 0
2, 5552, Note_on_c, 0, 49, 0
2, 5553, Note_on_c, 0, 47, 0
2, 5629, Note_on_c, 0, 64, 104
2, 5634, Note_on_c, 0, 52, 91
2, 5634, Note_on_c, 0, 42, 79
2, 5634, Note_on_c, 0, 46, 90
2, 5641, Note_on_c, 0, 66, 0
2, 5656, Note_on_c, 0, 52, 0
2, 5668, Note_on_c, 0, 46, 0
2, 5673, Note_on_c, 0, 42, 0
2, 5740, Note_on_c, 0, 62, 103
2, 5744, Note_on_c, 0, 35, 96
2, 5744, Note_on_c, 0, 64, 0
2, 5763, Control_c, 0, 64, 127
2, 5832, Note_on_c, 0, 61, 105
2, 5839, Note_on_c, 0, 62, 0
2, 5868, Note_on_c, 0, 42, 70
2, 5868, Note_on_c, 0, 61, 0
2, 5869, Note_on_c, 0, 50, 75
2, 5872, Note_on_c, 0, 59, 85
2, 5883, Control_c, 0, 64, 0
2, 5903, Note_on_c, 0, 59, 0
2, 5942, Note_on_c, 0, 50, 0
2, 5983, Note_on_c, 0, 35, 0
2, 5993, Note_on_c, 0, 42, 0
2, 6003, Note_on_c, 0, 66, 124
2, 6123, Note_on_c, 0, 65, 103
2, 6123, Note_on_c, 0, 37, 103
2, 6123, Note_on_c, 0, 66, 0
2, 6129, Control_c, 0, 64, 127
2, 6148, Note_on_c, 0, 37, 0
2, 6212, Note_on_c, 0, 66, 108
2, 6225, Note_on_c, 0, 65, 0
2, 6247, Note_on_c, 0, 54, 99
2, 6248, Note_on_c, 0, 49, 100
2, 6248, Note_on_c, 0, 59, 100
2, 6253, Note_on_c, 0, 68, 102
2, 6260, Note_on_c, 0, 66, 0
2, 6261, Control_c, 0, 64, 0
2, 6267, Note_on_c, 0, 59, 0
2, 6268, Note_on_c, 0, 49, 0
2, 6277, Note_on_c, 0, 54, 0
2, 6353, Note_on_c, 0, 68, 0
2, 6356, Note_on_c, 0, 69, 90
2, 6358, Note_on_c, 0, 49, 90
2, 6360, Note_on_c, 0, 59, 90
2, 6361, Note_on_c, 0, 61, 90
2, 6367, Note_on_c, 0, 53, 91
2, 6376, Note_on_c, 0, 59, 0
2, 6377, Note_on_c, 0, 53, 0
2, 6395, Note_on_c, 0, 49, 0
2, 6409, Note_on_c, 0, 61, 0
2, 6433, Note_on_c, 0, 68, 101
2, 6433, Note_on_c, 0, 69, 0
2, 6476, Note_on_c, 0, 66, 104
2, 6478, Note_on_c, 0, 61, 104
2, 6480, Note_on_c, 0, 42, 104
2, 6482, Note_on_c, 0, 68, 0
2, 6486, Control_c, 0, 64, 127
2, 6504, Note_on_c, 0, 42, 0
2, 6563, Note_on_c, 0, 68, 91
2, 6565, Note_on_c, 0, 61, 0
2, 6592, Note_on_c, 0, 66, 0
2, 6599, Note_on_c, 0, 57, 101
2, 6600, Note_on_c, 0, 54, 98
2, 6602, Note_on_c, 0, 61, 103
2, 6602, Note_on_c, 0, 69, 103
2, 6602, Control_c, 0, 64, 0
2, 6602, Note_on_c, 0, 68, 0
2, 6642, Note_on_c, 0, 54, 0
2, 6658, Note_on_c, 0, 57, 0
2, 6661, Note_on_c, 0, 61, 0
2, 6718, Note_on_c, 0, 69, 0
2, 6722, Note_on_c, 0, 63, 96
2, 6722, Note_on_c, 0, 71, 96
2, 6723, Note_on_c, 0, 53, 93
2, 6724, Note_on_c, 0, 57, 81
2, 6753, Note_on_c, 0, 57, 0
2, 6763, Note_on_c, 0, 53, 0
2, 6773, Note_on_c, 0, 63, 0
2, 6791, Note_on_c, 0, 71, 0
2, 6792, Note_on_c, 0, 69, 100
2, 6838, Note_on_c, 0, 69, 0
2, 6840, Note_on_c, 0, 68, 115
2, 6842, Note_on_c, 0, 64, 109
2, 6845, Note_on_c, 0, 59, 88
2, 6847, Note_on_c, 0, 52, 95
2, 6852, Control_c, 0, 64, 127
2, 6904, Note_on_c, 0, 59, 0
2, 6906, Note_on_c, 0, 52, 0
2, 6913, Note_on_c, 0, 64, 0
2, 6933, Note_on_c, 0, 69, 98
2, 6941, Note_on_c, 0, 68, 0
2, 6960, Note_on_c, 0, 69, 0
2, 6965, Note_on_c, 0, 57, 88
2, 6966, Note_on_c, 0, 52, 80
2, 6966, Note_on_c, 0, 62, 71
2, 6968, Note_on_c, 0, 71, 86
2, 6970, Note_on_c, 0, 65, 100
2, 6983, Control_c, 0, 64, 0
2, 7013, Note_on_c, 0, 71, 0
2, 7021, Note_on_c, 0, 65, 0
2, 7022, Note_on_c, 0, 52, 0
2, 7034, Note_on_c, 0, 57, 0
2, 7045, Note_on_c, 0, 62, 0
2, 7083, Note_on_c, 0, 73, 122
2, 7083, Note_on_c, 0, 64, 111
2, 7085, Note_on_c, 0, 52, 95
2, 7085, Note_on_c, 0, 56, 92
2, 7089, Note_on_c, 0, 62, 64
2, 7144, Note_on_c, 0, 56, 0
2, 7144, Note_on_c, 0, 52, 0
2, 7145, Note_on_c, 0, 73, 0
2, 7148, Note_on_c, 0, 62, 0
2, 7164, Note_on_c, 0, 71, 96
2, 7178, Note_on_c, 0, 64, 0
2, 7202, Note_on_c, 0, 69, 117
2, 7202, Note_on_c, 0, 71, 0
2, 7204, Note_on_c, 0, 64, 107
2, 7204, Note_on_c, 0, 45, 108
2, 7217, Control_c, 0, 64, 127
2, 7286, Note_on_c, 0, 71, 96
2, 7288, Note_on_c, 0, 69, 0
2, 7289, Note_on_c, 0, 64, 0
2, 7293, Note_on_c, 0, 45, 0
2, 7322, Note_on_c, 0, 73, 106
2, 7322, Note_on_c, 0, 64, 94
2, 7324, Note_on_c, 0, 57, 98
2, 7324, Note_on_c, 0, 71, 0
2, 7325, Note_on_c, 0, 69, 102
2, 7346, Control_c, 0, 64, 0
2, 7367, Control_c, 0, 64, 127
2, 7381, Note_on_c, 0, 64, 0
2, 7383, Note_on_c, 0, 57, 0
2, 7384, Note_on_c, 0, 69, 0
2, 7398, Note_on_c, 0, 73, 0
2, 7454, Note_on_c, 0, 75, 126
2, 7456, Note_on_c, 0, 67, 109
2, 7457, Note_on_c, 0, 57, 103
2, 7457, Note_on_c, 0, 61, 103
2, 7472, Control_c, 0, 64, 0
2, 7516, Note_on_c, 0, 61, 0
2, 7516, Note_on_c, 0, 57, 0
2, 7516, Note_on_c, 0, 75, 0
2, 7523, Note_on_c, 0, 73, 102
2, 7527, Note_on_c, 0, 67, 0
2, 7558, Note_on_c, 0, 73, 0
2, 7573, Note_on_c, 0, 68, 109
2, 7573, Note_on_c, 0, 72, 120
2, 7578, Note_on_c, 0, 56, 111
2, 7579, Note_on_c, 0, 63, 103
2, 7586, Control_c, 0, 64, 127
2, 7618, Note_on_c, 0, 63, 0
2, 7635, Note_on_c, 0, 56, 0
2, 7645, Note_on_c, 0, 73, 115
2, 7652, Note_on_c, 0, 68, 0
2, 7657, Note_on_c, 0, 72, 0
2, 7687, Note_on_c, 0, 75, 109
2, 7689, Note_on_c, 0, 73, 0
2, 7690, Note_on_c, 0, 68, 90
2, 7690, Note_on_c, 0, 61, 99
2, 7690, Note_on_c, 0, 56, 96
2, 7749, Note_on_c, 0, 56, 0
2, 7749, Note_on_c, 0, 68, 0
2, 7765, Note_on_c, 0, 61, 0
2, 7776, Note_on_c, 0, 75, 0
2, 7800, Note_on_c, 0, 68, 96
2, 7802, Note_on_c, 0, 77, 118
2, 7806, Note_on_c, 0, 56, 102
2, 7807, Note_on_c, 0, 60, 107
2, 7818, Control_c, 0, 64, 0
2, 7831, Control_c, 0, 64, 127
2, 7856, Note_on_c, 0, 60, 0
2, 7867, Note_on_c, 0, 56, 0
2, 7874, Note_on_c, 0, 77, 0
2, 7876, Note_on_c, 0, 75, 101
2, 7898, Note_on_c, 0, 68, 0
2, 7917, Note_on_c, 0, 75, 0
2, 7922, Note_on_c, 0, 73, 117
2, 7924, Note_on_c, 0, 71, 112
2, 7924, Note_on_c, 0, 49, 120
2, 7929, Control_c, 0, 64, 0
2, 7937, Control_c, 0, 64, 127
2, 7983, Note_on_c, 0, 49, 0
2, 7991, Note_on_c, 0, 71, 0
2, 7999, Note_on_c, 0, 75, 104
2, 8006, Note_on_c, 0, 73, 0
2, 8040, Note_on_c, 0, 75, 0
2, 8043, Note_on_c, 0, 61, 116
2, 8045, Note_on_c, 0, 77, 116
2, 8046, Note_on_c, 0, 68, 116
2, 8046, Note_on_c, 0, 73, 116
2, 8051, Control_c, 0, 64, 0
2, 8102, Note_on_c, 0, 61, 0
2, 8105, Note_on_c, 0, 73, 0
2, 8135, Note_on_c, 0, 68, 0
2, 8157, Note_on_c, 0, 77, 0
2, 8160, Note_on_c, 0, 78, 117
2, 8160, Note_on_c, 0, 73, 117
2, 8164, Note_on_c, 0, 61, 118
2, 8164, Note_on_c, 0, 69, 118
2, 8219, Note_on_c, 0, 73, 0
2, 8223, Note_on_c, 0, 69, 0
2, 8223, Note_on_c, 0, 61, 0
2, 8249, Note_on_c, 0, 78, 0
2, 8280, Note_on_c, 0, 73, 115
2, 8280, Note_on_c, 0, 77, 122
2, 8280, Note_on_c, 0, 68, 109
2, 8280, Note_on_c, 0, 71, 100
2, 8280, Note_on_c, 0, 61, 99
2, 8291, Control_c, 0, 64, 127
2, 8361, Note_on_c, 0, 66, 109
2, 8367, Note_on_c, 0, 78, 116
2, 8377, Note_on_c, 0, 77, 0
2, 8378, Note_on_c, 0, 68, 0
2, 8389, Note_on_c, 0, 73, 0
2, 8392, Note_on_c, 0, 71, 0
2, 8396, Note_on_c, 0, 66, 0
2, 8404, Note_on_c, 0, 80, 112
2, 8407, Note_on_c, 0, 65, 101
2, 8407, Note_on_c, 0, 73, 85
2, 8407, Note_on_c, 0, 71, 65
2, 8411, Note_on_c, 0, 78, 0
2, 8414, Control_c, 0, 64, 0
2, 8417, Control_c, 0, 64, 127
2, 8443, Note_on_c, 0, 73, 0
2, 8452, Note_on_c, 0, 71, 0
2, 8471, Note_on_c, 0, 65, 0
2, 8481, Note_on_c, 0, 61, 0
2, 8513, Note_on_c, 0, 80, 0
2, 8529, Note_on_c, 0, 61, 101
2, 8530, Note_on_c, 0, 81, 109
2, 8530, Note_on_c, 0, 73, 64
2, 8532, Note_on_c, 0, 71, 91
2, 8544, Control_c, 0, 64, 0
2, 8554, Control_c, 0, 64, 127
2, 8561, Note_on_c, 0, 71, 0
2, 8573, Note_on_c, 0, 81, 0
2, 8596, Note_on_c, 0, 61, 0
2, 8604, Note_on_c, 0, 73, 0
2, 8646, Note_on_c, 0, 78, 127
2, 8646, Note_on_c, 0, 42, 117
2, 8656, Control_c, 0, 64, 0
2, 8661, Control_c, 0, 64, 127
2, 8735, Note_on_c, 0, 42, 0
2, 8758, Note_on_c, 0, 73, 91
2, 8758, Note_on_c, 0, 69, 81
2, 8758, Note_on_c, 0, 66, 94
2, 8758, Note_on_c, 0, 61, 91
2, 8758, Note_on_c, 0, 54, 96
2, 8762, Note_on_c, 0, 78, 0
2, 8770, Control_c, 0, 64, 0
2, 8772, Note_on_c, 0, 69, 0
2, 8775, Note_on_c, 0, 66, 0
2, 8779, Control_c, 0, 64, 127
2, 8781, Note_on_c, 0, 73, 0
2, 8794, Note_on_c, 0, 61, 0
2, 8808, Note_on_c, 0, 54, 0
2, 8893, Control_c, 0, 64, 0
2, 8895, Note_on_c, 0, 66, 124
2, 8895, Note_on_c, 0, 50, 107
2, 8895, Note_on_c, 0, 60, 86
2, 8895, Note_on_c, 0, 56, 93
2, 8919, Control_c, 0, 64, 127
2, 8936, Note_on_c, 0, 60, 0
2, 8937, Note_on_c, 0, 56, 0
2, 8941, Note_on_c, 0, 50, 0
2, 8951, Note_on_c, 0, 66, 0
2, 9014, Note_on_c, 0, 61, 115
2, 9014, Note_on_c, 0, 65, 122
2, 9014, Note_on_c, 0, 56, 108
2, 9014, Note_on_c, 0, 49, 108
2, 9025, Control_c, 0, 64, 0
2, 9045, Control_c, 0, 64, 127
2, 9086, Note_on_c, 0, 56, 0
2, 9099, Note_on_c, 0, 66, 119
2, 9103, Note_on_c, 0, 61, 0
2, 9104, Note_on_c, 0, 49, 0
2, 9112, Note_on_c, 0, 65, 0
2, 9137, Note_on_c, 0, 68, 111
2, 9138, Note_on_c, 0, 49, 75
2, 9138, Note_on_c, 0, 54, 92
2, 9139, Note_on_c, 0, 59, 86
2, 9143, Note_on_c, 0, 66, 0
2, 9146, Control_c, 0, 64, 0
2, 9163, Control_c, 0, 64, 127
2, 9227, Note_on_c, 0, 54, 0
2, 9227, Note_on_c, 0, 49, 0
2, 9228, Note_on_c, 0, 59, 0
2, 9233, Note_on_c, 0, 68, 0
2, 9242, Control_c, 0, 64, 0
2, 9249, Note_on_c, 0, 49, 87
2, 9249, Note_on_c, 0, 69, 105
2, 9249, Note_on_c, 0, 61, 89
2, 9249, Note_on_c, 0, 59, 66
2, 9249, Note_on_c, 0, 53, 95
2, 9305, Note_on_c, 0, 61, 0
2, 9305, Note_on_c, 0, 49, 0
2, 9308, Note_on_c, 0, 53, 0
2, 9308, Note_on_c, 0, 59, 0
2, 9321, Note_on_c, 0, 69, 0
2, 9322, Note_on_c, 0, 68, 107
2, 9358, Note_on_c, 0, 68, 0
2, 9360, Note_on_c, 0, 66, 116
2, 9360, Note_on_c, 0, 61, 97
2, 9360, Note_on_c, 0, 42, 91
2, 9371, Control_c, 0, 64, 127
2, 9417, Note_on_c, 0, 61, 0
2, 9446, Note_on_c, 0, 68, 83
2, 9449, Note_on_c, 0, 42, 0
2, 9458, Note_on_c, 0, 66, 0
2, 9480, Note_on_c, 0, 57, 64
2, 9480, Note_on_c, 0, 61, 81
2, 9482, Note_on_c, 0, 68, 0
2, 9484, Note_on_c, 0, 69, 107
2, 9484, Control_c, 0, 64, 0
2, 9484, Note_on_c, 0, 54, 85
2, 9527, Note_on_c, 0, 61, 0
2, 9548, Note_on_c, 0, 57, 0
2, 9566, Note_on_c, 0, 54, 0
2, 9573, Note_on_c, 0, 69, 0
2, 9591, Note_on_c, 0, 63, 105
2, 9595, Note_on_c, 0, 71, 106
2, 9595, Note_on_c, 0, 57, 94
2, 9595, Note_on_c, 0, 53, 94
2, 9611, Control_c, 0, 64, 127
2, 9647, Note_on_c, 0, 63, 0
2, 9654, Note_on_c, 0, 53, 0
2, 9654, Note_on_c, 0, 57, 0
2, 9667, Note_on_c, 0, 71, 0
2, 9669, Note_on_c, 0, 69, 103
2, 9716, Note_on_c, 0, 69, 0
2, 9720, Note_on_c, 0, 68, 121
2, 9720, Note_on_c, 0, 64, 107
2, 9720, Note_on_c, 0, 59, 94
2, 9720, Note_on_c, 0, 52, 100
2, 9724, Control_c, 0, 64, 0
2, 9745, Control_c, 0, 64, 127
2, 9782, Note_on_c, 0, 59, 0
2, 9784, Note_on_c, 0, 52, 0
2, 9787, Note_on_c, 0, 64, 0
2, 9810, Note_on_c, 0, 69, 102
2, 9818, Note_on_c, 0, 68, 0
2, 9840, Note_on_c, 0, 52, 89
2, 9840, Note_on_c, 0, 57, 85
2, 9840, Note_on_c, 0, 62, 96
2, 9840, Note_on_c, 0, 71, 98
2, 9840, Note_on_c, 0, 65, 90
2, 9842, Control_c, 0, 64, 0
2, 9844, Note_on_c, 0, 69, 0
2, 9855, Control_c, 0, 64, 127
2, 9929, Note_on_c, 0, 57, 0
2, 9929, Note_on_c, 0, 52, 0
2, 9929, Note_on_c, 0, 65, 0
2, 9959, Note_on_c, 0, 62, 0
2, 9959, Note_on_c, 0, 71, 0
2, 9960, Note_on_c, 0, 52, 91
2, 9960, Note_on_c, 0, 56, 94
2, 9960, Note_on_c, 0, 62, 86
2, 9960, Note_on_c, 0, 64, 117
2, 9960, Note_on_c, 0, 73, 116
2, 9975, Control_c, 0, 64, 0
2, 10033, Note_on_c, 0, 73, 0
2, 10043, Note_on_c, 0, 71, 83
2, 10049, Note_on_c, 0, 62, 0
2, 10049, Note_on_c, 0, 64, 0
2, 10049, Note_on_c, 0, 52, 0
2, 10049, Note_on_c, 0, 56, 0
2, 10080, Note_on_c, 0, 45, 107
2, 10080, Note_on_c, 0, 64, 108
2, 10080, Note_on_c, 0, 69, 116
2, 10084, Note_on_c, 0, 71, 0
2, 10101, Control_c, 0, 64, 127
2, 10154, Note_on_c, 0, 64, 0
2, 10165, Note_on_c, 0, 69, 0
2, 10169, Note_on_c, 0, 45, 0
2, 10170, Note_on_c, 0, 71, 104
2, 10200, Note_on_c, 0, 71, 0
2, 10207, Note_on_c, 0, 73, 109
2, 10209, Note_on_c, 0, 69, 110
2, 10209, Note_on_c, 0, 57, 97
2, 10209, Note_on_c, 0, 64, 97
2, 10213, Control_c, 0, 64, 0
2, 10230, Control_c, 0, 64, 127
2, 10248, Note_on_c, 0, 57, 0
2, 10248, Note_on_c, 0, 69, 0
2, 10253, Note_on_c, 0, 64, 0
2, 10255, Note_on_c, 0, 73, 0
2, 10323, Note_on_c, 0, 75, 122
2, 10325, Note_on_c, 0, 57, 101
2, 10325, Note_on_c, 0, 67, 118
2, 10326, Note_on_c, 0, 61, 108
2, 10328, Control_c, 0, 64, 0
2, 10340, Control_c, 0, 64, 127
2, 10381, Note_on_c, 0, 67, 0
2, 10384, Note_on_c, 0, 57, 0
2, 10385, Note_on_c, 0, 61, 0
2, 10398, Note_on_c, 0, 73, 102
2, 10402, Note_on_c, 0, 75, 0
2, 10421, Note_on_c, 0, 73, 0
2, 10442, Note_on_c, 0, 68, 108
2, 10442, Note_on_c, 0, 72, 122
2, 10444, Note_on_c, 0, 63, 112
2, 10445, Note_on_c, 0, 56, 115
2, 10452, Control_c, 0, 64, 0
2, 10471, Control_c, 0, 64, 127
2, 10518, Note_on_c, 0, 73, 110
2, 10520, Note_on_c, 0, 72, 0
2, 10527, Note_on_c, 0, 68, 0
2, 10533, Note_on_c, 0, 63, 0
2, 10534, Note_on_c, 0, 56, 0
2, 10545, Note_on_c, 0, 73, 0
2, 10555, Note_on_c, 0, 66, 109
2, 10557, Note_on_c, 0, 61, 103
2, 10557, Note_on_c, 0, 75, 109
2, 10557, Note_on_c, 0, 56, 115
2, 10557, Note_on_c, 0, 69, 103
2, 10565, Control_c, 0, 64, 0
2, 10577, Control_c, 0, 64, 127
2, 10644, Note_on_c, 0, 66, 0
2, 10646, Note_on_c, 0, 56, 0
2, 10646, Note_on_c, 0, 61, 0
2, 10646, Note_on_c, 0, 75, 0
2, 10646, Note_on_c, 0, 69, 0
2, 10676, Note_on_c, 0, 77, 121
2, 10676, Note_on_c, 0, 68, 127
2, 10677, Note_on_c, 0, 66, 116
2, 10678, Note_on_c, 0, 56, 112
2, 10681, Note_on_c, 0, 60, 111
2, 10691, Control_c, 0, 64, 0
2, 10709, Control_c, 0, 64, 127
2, 10746, Note_on_c, 0, 75, 100
2, 10752, Note_on_c, 0, 77, 0
2, 10765, Note_on_c, 0, 68, 0
2, 10766, Note_on_c, 0, 66, 0
2, 10767, Note_on_c, 0, 56, 0
2, 10770, Note_on_c, 0, 60, 0
2, 10797, Note_on_c, 0, 73, 119
2, 10797, Note_on_c, 0, 49, 112
2, 10799, Note_on_c, 0, 71, 112
2, 10805, Note_on_c, 0, 75, 0
2, 10808, Control_c, 0, 64, 0
2, 10817, Control_c, 0, 64, 127
2, 10878, Note_on_c, 0, 75, 107
2, 10882, Note_on_c, 0, 73, 0
2, 10884, Note_on_c, 0, 71, 0
2, 10886, Note_on_c, 0, 49, 0
2, 10919, Note_on_c, 0, 68, 108
2, 10920, Note_on_c, 0, 61, 114
2, 10921, Note_on_c, 0, 73, 111
2, 10921, Note_on_c, 0, 77, 109
2, 10928, Control_c, 0, 64, 0
2, 10937, Note_on_c, 0, 75, 0
2, 10943, Control_c, 0, 64, 127
2, 11008, Note_on_c, 0, 68, 0
2, 11010, Note_on_c, 0, 73, 0
2, 11019, Note_on_c, 0, 61, 0
2, 11036, Note_on_c, 0, 61, 97
2, 11036, Note_on_c, 0, 73, 99
2, 11038, Note_on_c, 0, 78, 127
2, 11040, Note_on_c, 0, 69, 115
2, 11042, Note_on_c, 0, 77, 0
2, 11125, Note_on_c, 0, 61, 0
2, 11125, Note_on_c, 0, 73, 0
2, 11127, Note_on_c, 0, 78, 0
2, 11129, Note_on_c, 0, 69, 0
2, 11157, Note_on_c, 0, 77, 122
2, 11157, Note_on_c, 0, 73, 112
2, 11159, Note_on_c, 0, 71, 112
2, 11159, Note_on_c, 0, 61, 111
2, 11159, Note_on_c, 0, 68, 116
2, 11161, Control_c, 0, 64, 0
2, 11169, Control_c, 0, 64, 127
2, 11216, Note_on_c, 0, 73, 0
2, 11216, Note_on_c, 0, 77, 0
2, 11218, Note_on_c, 0, 61, 0
2, 11218, Note_on_c, 0, 71, 0
2, 11218, Note_on_c, 0, 68, 0
2, 11243, Note_on_c, 0, 86, 118
2, 11243, Note_on_c, 0, 71, 112
2, 11243, Note_on_c, 0, 61, 111
2, 11243, Note_on_c, 0, 74, 116
2, 11243, Note_on_c, 0, 66, 116
2, 11272, Note_on_c, 0, 74, 0
2, 11272, Note_on_c, 0, 61, 0
2, 11272, Note_on_c, 0, 86, 0
2, 11272, Note_on_c, 0, 71, 0
2, 11280, Note_on_c, 0, 71, 104
2, 11280, Note_on_c, 0, 65, 108
2, 11280, Note_on_c, 0, 61, 111
2, 11282, Note_on_c, 0, 85, 125
2, 11282, Note_on_c, 0, 66, 0
2, 11284, Note_on_c, 0, 73, 127
2, 11300, Control_c, 0, 64, 0
2, 11314, Control_c, 0, 64, 127
2, 11369, Note_on_c, 0, 61, 0
2, 11369, Note_on_c, 0, 71, 0
2, 11393, Note_on_c, 0, 65, 0
2, 11401, Note_on_c, 0, 85, 0
2, 11403, Note_on_c, 0, 73, 0
2, 11409, Note_on_c, 0, 80, 126
2, 11409, Note_on_c, 0, 61, 126
2, 11409, Note_on_c, 0, 71, 126
2, 11409, Note_on_c, 0, 73, 126
2, 11411, Note_on_c, 0, 65, 126
2, 11424, Control_c, 0, 64, 0
2, 11430, Control_c, 0, 64, 127
2, 11468, Note_on_c, 0, 61, 0
2, 11470, Note_on_c, 0, 65, 0
2, 11473, Note_on_c, 0, 81, 125
2, 11483, Note_on_c, 0, 80, 0
2, 11498, Note_on_c, 0, 71, 0
2, 11500, Note_on_c, 0, 73, 0
2, 11502, Note_on_c, 0, 81, 0
2, 11533, Note_on_c, 0, 42, 119
2, 11534, Note_on_c, 0, 78, 119
2, 11556, Control_c, 0, 64, 0
2, 11565, Note_on_c, 0, 42, 0
2, 11570, Control_c, 0, 64, 127
2, 11655, Note_on_c, 0, 73, 103
2, 11655, Note_on_c, 0, 54, 103
2, 11655, Note_on_c, 0, 69, 103
2, 11655, Note_on_c, 0, 66, 103
2, 11655, Note_on_c, 0, 61, 103
2, 11699, Note_on_c, 0, 66, 0
2, 11714, Note_on_c, 0, 69, 0
2, 11714, Note_on_c, 0, 73, 0
2, 11734, Note_on_c, 0, 61, 0
2, 11741, Note_on_c, 0, 54, 0
2, 11743, Note_on_c, 0, 78, 0
2, 11769, Note_on_c, 0, 78, 119
2, 11780, Control_c, 0, 64, 0
2, 11853, Note_on_c, 0, 78, 0
2, 11880, Note_on_c, 0, 78, 112
2, 11883, Note_on_c, 0, 47, 86
2, 11887, Control_c, 0, 64, 127
2, 11898, Note_on_c, 0, 78, 0
2, 11906, Note_on_c, 0, 80, 103
2, 11916, Note_on_c, 0, 47, 0
2, 11917, Note_on_c, 0, 78, 100
2, 11935, Note_on_c, 0, 80, 0
2, 12003, Note_on_c, 0, 78, 0
2, 12014, Note_on_c, 0, 54, 99
2, 12018, Note_on_c, 0, 59, 96
2, 12019, Note_on_c, 0, 62, 75
2, 12057, Note_on_c, 0, 62, 0
2, 12059, Note_on_c, 0, 59, 0
2, 12062, Note_on_c, 0, 54, 0
2, 12079, Note_on_c, 0, 77, 117
2, 12104, Note_on_c, 0, 77, 0
2, 12119, Note_on_c, 0, 78, 108
2, 12122, Note_on_c, 0, 54, 94
2, 12123, Note_on_c, 0, 62, 95
2, 12124, Note_on_c, 0, 59, 91
2, 12151, Control_c, 0, 64, 0
2, 12160, Note_on_c, 0, 62, 0
2, 12184, Note_on_c, 0, 59, 0
2, 12185, Note_on_c, 0, 78, 0
2, 12190, Note_on_c, 0, 74, 109
2, 12197, Note_on_c, 0, 54, 0
2, 12239, Note_on_c, 0, 73, 123
2, 12242, Note_on_c, 0, 42, 103
2, 12245, Note_on_c, 0, 74, 0
2, 12255, Note_on_c, 0, 74, 106
2, 12260, Control_c, 0, 64, 127
2, 12272, Note_on_c, 0, 42, 0
2, 12292, Note_on_c, 0, 74, 0
2, 12343, Note_on_c, 0, 73, 0
2, 12359, Note_on_c, 0, 61, 102
2, 12361, Note_on_c, 0, 54, 100
2, 12361, Note_on_c, 0, 69, 104
2, 12370, Note_on_c, 0, 54, 0
2, 12370, Note_on_c, 0, 61, 0
2, 12410, Note_on_c, 0, 69, 0
2, 12470, Note_on_c, 0, 61, 106
2, 12471, Note_on_c, 0, 54, 108
2, 12491, Note_on_c, 0, 61, 0
2, 12515, Note_on_c, 0, 54, 0
2, 12543, Note_on_c, 0, 78, 119
2, 12570, Note_on_c, 0, 78, 0
2, 12593, Note_on_c, 0, 78, 114
2, 12595, Note_on_c, 0, 50, 106
2, 12603, Control_c, 0, 64, 0
2, 12607, Note_on_c, 0, 78, 0
2, 12615, Note_on_c, 0, 80, 101
2, 12615, Control_c, 0, 64, 127
2, 12631, Note_on_c, 0, 78, 99
2, 12641, Note_on_c, 0, 80, 0
2, 12643, Note_on_c, 0, 50, 0
2, 12675, Note_on_c, 0, 77, 109
2, 12675, Note_on_c, 0, 78, 0
2, 12710, Note_on_c, 0, 77, 0
2, 12714, Note_on_c, 0, 62, 75
2, 12715, Note_on_c, 0, 54, 84
2, 12716, Note_on_c, 0, 57, 86
2, 12717, Note_on_c, 0, 78, 112
2, 12729, Control_c, 0, 64, 0
2, 12736, Note_on_c, 0, 62, 0
2, 12739, Note_on_c, 0, 57, 0
2, 12745, Note_on_c, 0, 54, 0
2, 12836, Note_on_c, 0, 54, 87
2, 12837, Note_on_c, 0, 62, 91
2, 12839, Note_on_c, 0, 74, 108
2, 12839, Note_on_c, 0, 57, 79
2, 12842, Note_on_c, 0, 78, 0
2, 12857, Note_on_c, 0, 62, 0
2, 12875, Note_on_c, 0, 57, 0
2, 12882, Note_on_c, 0, 54, 0
2, 12965, Note_on_c, 0, 73, 119
2, 12967, Note_on_c, 0, 45, 102
2, 12969, Note_on_c, 0, 74, 0
2, 12984, Control_c, 0, 64, 127
2, 12999, Note_on_c, 0, 45, 0
2, 13071, Note_on_c, 0, 57, 86
2, 13073, Note_on_c, 0, 61, 89
2, 13073, Note_on_c, 0, 73, 0
2, 13075, Note_on_c, 0, 69, 101
2, 13078, Note_on_c, 0, 52, 80
2, 13122, Note_on_c, 0, 52, 0
2, 13139, Note_on_c, 0, 61, 0
2, 13147, Note_on_c, 0, 57, 0
2, 13174, Note_on_c, 0, 69, 0
2, 13192, Note_on_c, 0, 61, 92
2, 13193, Note_on_c, 0, 57, 91
2, 13195, Note_on_c, 0, 52, 84
2, 13227, Note_on_c, 0, 61, 0
2, 13249, Note_on_c, 0, 57, 0
2, 13259, Note_on_c, 0, 52, 0
2, 13306, Note_on_c, 0, 78, 105
2, 13318, Note_on_c, 0, 78, 0
2, 13322, Note_on_c, 0, 47, 100
2, 13327, Note_on_c, 0, 80, 108
2, 13330, Control_c, 0, 64, 0
2, 13337, Note_on_c, 0, 78, 99
2, 13348, Control_c, 0, 64, 127
2, 13349, Note_on_c, 0, 80, 0
2, 13354, Note_on_c, 0, 47, 0
2, 13401, Note_on_c, 0, 77, 107
2, 13407, Note_on_c, 0, 78, 0
2, 13433, Note_on_c, 0, 54, 89
2, 13433, Note_on_c, 0, 77, 0
2, 13434, Note_on_c, 0, 62, 83
2, 13434, Note_on_c, 0, 78, 116
2, 13435, Note_on_c, 0, 59, 88
2, 13452, Control_c, 0, 64, 0
2, 13457, Note_on_c, 0, 62, 0
2, 13462, Note_on_c, 0, 54, 0
2, 13464, Note_on_c, 0, 59, 0
2, 13554, Note_on_c, 0, 54, 88
2, 13555, Note_on_c, 0, 62, 79
2, 13555, Note_on_c, 0, 59, 89
2, 13559, Note_on_c, 0, 74, 104
2, 13561, Note_on_c, 0, 78, 0
2, 13587, Note_on_c, 0, 62, 0
2, 13588, Note_on_c, 0, 54, 0
2, 13588, Note_on_c, 0, 59, 0
2, 13607, Note_on_c, 0, 62, 59
2, 13632, Note_on_c, 0, 62, 0
2, 13679, Note_on_c, 0, 73, 117
2, 13682, Note_on_c, 0, 52, 91
2, 13686, Note_on_c, 0, 74, 0
2, 13703, Control_c, 0, 64, 127
2, 13716, Note_on_c, 0, 52, 0
2, 13794, Note_on_c, 0, 69, 101
2, 13794, Note_on_c, 0, 73, 0
2, 13796, Note_on_c, 0, 61, 82
2, 13796, Note_on_c, 0, 64, 79
2, 13800, Note_on_c, 0, 57, 80
2, 13809, Note_on_c, 0, 57, 0
2, 13810, Note_on_c, 0, 64, 0
2, 13823, Note_on_c, 0, 61, 0
2, 13885, Note_on_c, 0, 69, 0
2, 13923, Note_on_c, 0, 64, 96
2, 13923, Note_on_c, 0, 57, 88
2, 13925, Note_on_c, 0, 61, 79
2, 13931, Note_on_c, 0, 64, 0
2, 13935, Note_on_c, 0, 57, 0
2, 13951, Note_on_c, 0, 61, 0
2, 14006, Note_on_c, 0, 69, 118
2, 14035, Note_on_c, 0, 69, 0
2, 14047, Note_on_c, 0, 78, 103
2, 14055, Note_on_c, 0, 78, 0
2, 14056, Note_on_c, 0, 40, 101
2, 14062, Control_c, 0, 64, 0
2, 14068, Note_on_c, 0, 80, 100
2, 14073, Control_c, 0, 64, 127
2, 14080, Note_on_c, 0, 40, 0
2, 14081, Note_on_c, 0, 78, 96
2, 14091, Note_on_c, 0, 80, 0
2, 14127, Note_on_c, 0, 77, 112
2, 14128, Note_on_c, 0, 78, 0
2, 14162, Note_on_c, 0, 77, 0
2, 14165, Note_on_c, 0, 78, 109
2, 14170, Note_on_c, 0, 56, 90
2, 14172, Note_on_c, 0, 52, 91
2, 14172, Note_on_c, 0, 62, 83
2, 14181, Note_on_c, 0, 52, 0
2, 14184, Control_c, 0, 64, 0
2, 14185, Note_on_c, 0, 62, 0
2, 14186, Note_on_c, 0, 56, 0
2, 14280, Note_on_c, 0, 56, 83
2, 14280, Note_on_c, 0, 52, 90
2, 14284, Note_on_c, 0, 74, 102
2, 14284, Note_on_c, 0, 78, 0
2, 14285, Note_on_c, 0, 62, 70
2, 14306, Note_on_c, 0, 62, 0
2, 14318, Note_on_c, 0, 56, 0
2, 14319, Note_on_c, 0, 52, 0
2, 14402, Note_on_c, 0, 73, 106
2, 14402, Note_on_c, 0, 74, 0
2, 14403, Note_on_c, 0, 45, 99
2, 14425, Control_c, 0, 64, 127
2, 14432, Note_on_c, 0, 45, 0
2, 14519, Note_on_c, 0, 69, 91
2, 14520, Note_on_c, 0, 52, 72
2, 14520, Note_on_c, 0, 61, 64
2, 14520, Note_on_c, 0, 57, 81
2, 14520, Note_on_c, 0, 73, 0
2, 14579, Note_on_c, 0, 61, 0
2, 14579, Note_on_c, 0, 57, 0
2, 14579, Note_on_c, 0, 52, 0
2, 14640, Note_on_c, 0, 52, 100
2, 14641, Note_on_c, 0, 61, 96
2, 14642, Note_on_c, 0, 57, 100
2, 14644, Note_on_c, 0, 69, 0
2, 14693, Note_on_c, 0, 61, 0
2, 14715, Note_on_c, 0, 52, 0
2, 14717, Note_on_c, 0, 57, 0
2, 14760, Note_on_c, 0, 78, 100
2, 14764, Note_on_c, 0, 47, 100
2, 14771, Note_on_c, 0, 78, 0
2, 14777, Control_c, 0, 64, 0
2, 14785, Note_on_c, 0, 80, 88
2, 14790, Control_c, 0, 64, 127
2, 14795, Note_on_c, 0, 78, 119
2, 14799, Note_on_c, 0, 47, 0
2, 14811, Note_on_c, 0, 80, 0
2, 14858, Note_on_c, 0, 77, 109
2, 14863, Note_on_c, 0, 78, 0
2, 14883, Note_on_c, 0, 77, 0
2, 14886, Note_on_c, 0, 59, 91
2, 14886, Note_on_c, 0, 62, 80
2, 14886, Note_on_c, 0, 54, 82
2, 14888, Note_on_c, 0, 78, 109
2, 14896, Control_c, 0, 64, 0
2, 14909, Note_on_c, 0, 54, 0
2, 14909, Note_on_c, 0, 59, 0
2, 14909, Note_on_c, 0, 62, 0
2, 14993, Note_on_c, 0, 62, 84
2, 14995, Note_on_c, 0, 59, 85
2, 14997, Note_on_c, 0, 54, 84
2, 14997, Note_on_c, 0, 78, 0
2, 14999, Note_on_c, 0, 74, 91
2, 15014, Note_on_c, 0, 62, 0
2, 15032, Note_on_c, 0, 59, 0
2, 15045, Note_on_c, 0, 54, 0
2, 15115, Note_on_c, 0, 73, 106
2, 15115, Note_on_c, 0, 74, 0
2, 15117, Note_on_c, 0, 42, 88
2, 15134, Control_c, 0, 64, 127
2, 15144, Note_on_c, 0, 42, 0
2, 15228, Note_on_c, 0, 61, 78
2, 15228, Note_on_c, 0, 73, 0
2, 15231, Note_on_c, 0, 69, 97
2, 15231, Note_on_c, 0, 57, 87
2, 15233, Note_on_c, 0, 54, 80
2, 15244, Note_on_c, 0, 57, 0
2, 15248, Note_on_c, 0, 54, 0
2, 15249, Control_c, 0, 64, 0
2, 15250, Note_on_c, 0, 61, 0
2, 15345, Note_on_c, 0, 61, 85
2, 15347, Note_on_c, 0, 54, 87
2, 15349, Note_on_c, 0, 57, 88
2, 15353, Note_on_c, 0, 69, 0
2, 15376, Note_on_c, 0, 61, 0
2, 15377, Note_on_c, 0, 57, 0
2, 15383, Note_on_c, 0, 54, 0
2, 15475, Control_c, 0, 64, 127
2, 15480, Note_on_c, 0, 78, 99
2, 15485, Note_on_c, 0, 50, 100
2, 15491, Note_on_c, 0, 78, 0
2, 15505, Note_on_c, 0, 80, 87
2, 15515, Note_on_c, 0, 78, 106
2, 15529, Note_on_c, 0, 80, 0
2, 15551, Note_on_c, 0, 50, 0
2, 15563, Note_on_c, 0, 78, 0
2, 15578, Note_on_c, 0, 77, 117
2, 15604, Note_on_c, 0, 78, 127
2, 15606, Note_on_c, 0, 57, 91
2, 15606, Note_on_c, 0, 62, 88
2, 15608, Note_on_c, 0, 54, 87
2, 15615, Note_on_c, 0, 77, 0
2, 15622, Note_on_c, 0, 62, 0
2, 15622, Note_on_c, 0, 54, 0
2, 15622, Note_on_c, 0, 57, 0
2, 15628, Control_c, 0, 64, 0
2, 15720, Note_on_c, 0, 62, 86
2, 15720, Note_on_c, 0, 54, 83
2, 15724, Note_on_c, 0, 57, 90
2, 15725, Note_on_c, 0, 74, 104
2, 15729, Note_on_c, 0, 78, 0
2, 15742, Note_on_c, 0, 62, 0
2, 15749, Note_on_c, 0, 57, 0
2, 15757, Note_on_c, 0, 54, 0
2, 15830, Note_on_c, 0, 45, 95
2, 15835, Note_on_c, 0, 73, 109
2, 15836, Note_on_c, 0, 74, 0
2, 15853, Control_c, 0, 64, 127
2, 15861, Note_on_c, 0, 45, 0
2, 15949, Note_on_c, 0, 61, 68
2, 15952, Note_on_c, 0, 57, 84
2, 15953, Note_on_c, 0, 69, 92
2, 15953, Note_on_c, 0, 52, 85
2, 15954, Note_on_c, 0, 73, 0
2, 15963, Note_on_c, 0, 52, 0
2, 15966, Note_on_c, 0, 57, 0
2, 15967, Note_on_c, 0, 61, 0
2, 15983, Control_c, 0, 64, 0
2, 16069, Note_on_c, 0, 61, 87
2, 16070, Note_on_c, 0, 57, 91
2, 16073, Note_on_c, 0, 52, 83
2, 16080, Note_on_c, 0, 69, 0
2, 16110, Note_on_c, 0, 61, 0
2, 16119, Note_on_c, 0, 52, 0
2, 16125, Note_on_c, 0, 57, 0
2, 16199, Control_c, 0, 64, 127
2, 16200, Note_on_c, 0, 47, 103
2, 16203, Note_on_c, 0, 78, 106
2, 16215, Note_on_c, 0, 78, 0
2, 16224, Note_on_c, 0, 47, 0
2, 16229, Note_on_c, 0, 80, 89
2, 16243, Note_on_c, 0, 78, 106
2, 16259, Note_on_c, 0, 80, 0
2, 16280, Note_on_c, 0, 77, 116
2, 16288, Note_on_c, 0, 78, 0
2, 16315, Note_on_c, 0, 78, 124
2, 16316, Note_on_c, 0, 59, 87
2, 16317, Note_on_c, 0, 62, 79
2, 16317, Note_on_c, 0, 54, 82
2, 16320, Note_on_c, 0, 77, 0
2, 16333, Control_c, 0, 64, 0
2, 16344, Note_on_c, 0, 62, 0
2, 16349, Note_on_c, 0, 59, 0
2, 16351, Note_on_c, 0, 54, 0
2, 16434, Note_on_c, 0, 62, 88
2, 16434, Note_on_c, 0, 74, 100
2, 16436, Note_on_c, 0, 54, 78
2, 16438, Note_on_c, 0, 59, 88
2, 16444, Note_on_c, 0, 78, 0
2, 16469, Note_on_c, 0, 54, 0
2, 16469, Note_on_c, 0, 59, 0
2, 16515, Note_on_c, 0, 62, 0
2, 16555, Note_on_c, 0, 73, 110
2, 16561, Note_on_c, 0, 74, 0
2, 16562, Note_on_c, 0, 52, 94
2, 16583, Control_c, 0, 64, 127
2, 16591, Note_on_c, 0, 52, 0
2, 16673, Note_on_c, 0, 69, 87
2, 16673, Note_on_c, 0, 61, 89
2, 16676, Note_on_c, 0, 57, 90
2, 16678, Note_on_c, 0, 73, 0
2, 16679, Note_on_c, 0, 64, 83
2, 16685, Note_on_c, 0, 57, 0
2, 16688, Note_on_c, 0, 64, 0
2, 16692, Note_on_c, 0, 61, 0
2, 16707, Control_c, 0, 64, 0
2, 16790, Note_on_c, 0, 69, 0
2, 16799, Note_on_c, 0, 61, 85
2, 16800, Note_on_c, 0, 57, 88
2, 16803, Note_on_c, 0, 64, 88
2, 16814, Note_on_c, 0, 64, 0
2, 16832, Note_on_c, 0, 57, 0
2, 16832, Note_on_c, 0, 61, 0
2, 16874, Note_on_c, 0, 68, 91
2, 16905, Note_on_c, 0, 68, 0
2, 16922, Note_on_c, 0, 78, 108
2, 16926, Note_on_c, 0, 40, 105
2, 16933, Control_c, 0, 64, 127
2, 16945, Note_on_c, 0, 40, 0
2, 16952, Note_on_c, 0, 78, 0
2, 16953, Note_on_c, 0, 80, 109
2, 16976, Note_on_c, 0, 78, 103
2, 16981, Note_on_c, 0, 80, 0
2, 17009, Note_on_c, 0, 78, 0
2, 17010, Note_on_c, 0, 77, 112
2, 17038, Note_on_c, 0, 77, 0
2, 17043, Note_on_c, 0, 78, 110
2, 17043, Note_on_c, 0, 56, 84
2, 17046, Note_on_c, 0, 52, 91
2, 17047, Note_on_c, 0, 62, 86
2, 17057, Note_on_c, 0, 62, 0
2, 17057, Note_on_c, 0, 52, 0
2, 17058, Note_on_c, 0, 56, 0
2, 17059, Control_c, 0, 64, 0
2, 17158, Note_on_c, 0, 52, 84
2, 17158, Note_on_c, 0, 56, 79
2, 17158, Note_on_c, 0, 74, 105
2, 17158, Note_on_c, 0, 62, 80
2, 17160, Note_on_c, 0, 78, 0
2, 17174, Note_on_c, 0, 62, 0
2, 17188, Note_on_c, 0, 56, 0
2, 17189, Note_on_c, 0, 52, 0
2, 17285, Note_on_c, 0, 73, 112
2, 17285, Note_on_c, 0, 45, 100
2, 17290, Note_on_c, 0, 74, 0
2, 17299, Control_c, 0, 64, 127
2, 17307, Note_on_c, 0, 45, 0
2, 17404, Note_on_c, 0, 61, 75
2, 17407, Note_on_c, 0, 69, 94
2, 17408, Note_on_c, 0, 57, 86
2, 17408, Note_on_c, 0, 73, 0
2, 17417, Control_c, 0, 64, 0
2, 17423, Control_c, 0, 64, 127
2, 17462, Note_on_c, 0, 61, 0
2, 17475, Note_on_c, 0, 57, 0
2, 17496, Note_on_c, 0, 69, 0
2, 17538, Note_on_c, 0, 66, 125
2, 17538, Note_on_c, 0, 62, 125
2, 17538, Note_on_c, 0, 59, 103
2, 17538, Note_on_c, 0, 56, 105
2, 17538, Note_on_c, 0, 47, 104
2, 17551, Control_c, 0, 64, 0
2, 17562, Control_c, 0, 64, 127
2, 17601, Note_on_c, 0, 47, 0
2, 17602, Note_on_c, 0, 59, 0
2, 17609, Note_on_c, 0, 56, 0
2, 17627, Note_on_c, 0, 62, 0
2, 17643, Note_on_c, 0, 66, 0
2, 17654, Note_on_c, 0, 65, 114
2, 17654, Note_on_c, 0, 63, 114
2, 17654, Note_on_c, 0, 59, 104
2, 17654, Note_on_c, 0, 56, 105
2, 17654, Note_on_c, 0, 49, 106
2, 17671, Control_c, 0, 64, 0
2, 17693, Note_on_c, 0, 56, 0
2, 17701, Note_on_c, 0, 59, 0
2, 17722, Note_on_c, 0, 49, 0
2, 17727, Note_on_c, 0, 66, 114
2, 17741, Note_on_c, 0, 65, 0
2, 17743, Note_on_c, 0, 63, 0
2, 17768, Note_on_c, 0, 54, 93
2, 17770, Note_on_c, 0, 68, 106
2, 17770, Note_on_c, 0, 59, 79
2, 17774, Note_on_c, 0, 49, 82
2, 17778, Note_on_c, 0, 66, 0
2, 17827, Note_on_c, 0, 54, 0
2, 17829, Note_on_c, 0, 59, 0
2, 17833, Note_on_c, 0, 49, 0
2, 17877, Note_on_c, 0, 68, 0
2, 17880, Note_on_c, 0, 61, 87
2, 17883, Note_on_c, 0, 69, 104
2, 17886, Note_on_c, 0, 49, 71
2, 17887, Note_on_c, 0, 53, 88
2, 17889, Note_on_c, 0, 59, 67
2, 17919, Note_on_c, 0, 59, 0
2, 17921, Note_on_c, 0, 49, 0
2, 17931, Note_on_c, 0, 53, 0
2, 17952, Note_on_c, 0, 68, 109
2, 17954, Note_on_c, 0, 69, 0
2, 17965, Note_on_c, 0, 61, 0
2, 17997, Note_on_c, 0, 68, 0
2, 18000, Note_on_c, 0, 42, 88
2, 18000, Note_on_c, 0, 61, 106
2, 18000, Note_on_c, 0, 66, 118
2, 18007, Control_c, 0, 64, 127
2, 18025, Note_on_c, 0, 42, 0
2, 18078, Note_on_c, 0, 68, 96
2, 18091, Note_on_c, 0, 66, 0
2, 18106, Note_on_c, 0, 54, 85
2, 18112, Note_on_c, 0, 57, 77
2, 18115, Note_on_c, 0, 69, 104
2, 18115, Note_on_c, 0, 61, 0
2, 18118, Note_on_c, 0, 68, 0
2, 18129, Control_c, 0, 64, 0
2, 18158, Note_on_c, 0, 57, 0
2, 18179, Note_on_c, 0, 54, 0
2, 18226, Note_on_c, 0, 69, 0
2, 18231, Note_on_c, 0, 63, 93
2, 18232, Note_on_c, 0, 71, 94
2, 18232, Note_on_c, 0, 57, 79
2, 18232, Note_on_c, 0, 53, 90
2, 18292, Note_on_c, 0, 53, 0
2, 18295, Note_on_c, 0, 57, 0
2, 18307, Note_on_c, 0, 71, 0
2, 18310, Note_on_c, 0, 69, 99
2, 18318, Note_on_c, 0, 63, 0
2, 18354, Note_on_c, 0, 69, 0
2, 18355, Note_on_c, 0, 68, 117
2, 18357, Note_on_c, 0, 64, 109
2, 18359, Note_on_c, 0, 52, 101
2, 18360, Note_on_c, 0, 59, 98
2, 18371, Control_c, 0, 64, 127
2, 18422, Note_on_c, 0, 59, 0
2, 18429, Note_on_c, 0, 64, 0
2, 18435, Note_on_c, 0, 52, 0
2, 18437, Note_on_c, 0, 69, 100
2, 18447, Note_on_c, 0, 68, 0
2, 18472, Note_on_c, 0, 69, 0
2, 18473, Note_on_c, 0, 62, 91
2, 18475, Note_on_c, 0, 71, 96
2, 18476, Note_on_c, 0, 65, 97
2, 18479, Note_on_c, 0, 52, 81
2, 18479, Note_on_c, 0, 57, 76
2, 18493, Control_c, 0, 64, 0
2, 18512, Note_on_c, 0, 52, 0
2, 18513, Note_on_c, 0, 57, 0
2, 18514, Note_on_c, 0, 62, 0
2, 18532, Note_on_c, 0, 65, 0
2, 18533, Note_on_c, 0, 71, 0
2, 18592, Note_on_c, 0, 73, 107
2, 18593, Note_on_c, 0, 62, 94
2, 18593, Note_on_c, 0, 56, 92
2, 18594, Note_on_c, 0, 52, 95
2, 18596, Note_on_c, 0, 64, 100
2, 18642, Note_on_c, 0, 62, 0
2, 18655, Note_on_c, 0, 56, 0
2, 18656, Note_on_c, 0, 73, 0
2, 18657, Note_on_c, 0, 52, 0
2, 18677, Note_on_c, 0, 71, 90
2, 18682, Note_on_c, 0, 64, 0
2, 18710, Note_on_c, 0, 71, 0
2, 18714, Note_on_c, 0, 45, 110
2, 18714, Note_on_c, 0, 69, 116
2, 18716, Note_on_c, 0, 64, 109
2, 18727, Control_c, 0, 64, 127
2, 18746, Note_on_c, 0, 45, 0
2, 18790, Note_on_c, 0, 64, 0
2, 18795, Note_on_c, 0, 71, 96
2, 18801, Note_on_c, 0, 69, 0
2, 18826, Note_on_c, 0, 71, 0
2, 18833, Note_on_c, 0, 73, 102
2, 18834, Note_on_c, 0, 69, 100
2, 18835, Note_on_c, 0, 64, 102
2, 18835, Note_on_c, 0, 57, 95
2, 18842, Control_c, 0, 64, 0
2, 18860, Control_c, 0, 64, 127
2, 18885, Note_on_c, 0, 69, 0
2, 18898, Note_on_c, 0, 73, 0
2, 18920, Note_on_c, 0, 57, 0
2, 18926, Note_on_c, 0, 64, 0
2, 18950, Note_on_c, 0, 75, 120
2, 18952, Note_on_c, 0, 67, 112
2, 18953, Note_on_c, 0, 61, 107
2, 18953, Note_on_c, 0, 57, 99
2, 18957, Control_c, 0, 64, 0
2, 18972, Control_c, 0, 64, 127
2, 18992, Note_on_c, 0, 57, 0
2, 19028, Note_on_c, 0, 67, 0
2, 19031, Note_on_c, 0, 75, 0
2, 19033, Note_on_c, 0, 73, 96
2, 19049, Note_on_c, 0, 61, 0
2, 19061, Note_on_c, 0, 73, 0
2, 19077, Note_on_c, 0, 72, 120
2, 19079, Note_on_c, 0, 68, 109
2, 19080, Note_on_c, 0, 56, 110
2, 19082, Note_on_c, 0, 63, 109
2, 19089, Control_c, 0, 64, 0
2, 19105, Control_c, 0, 64, 127
2, 19152, Note_on_c, 0, 63, 0
2, 19159, Note_on_c, 0, 68, 0
2, 19164, Note_on_c, 0, 73, 106
2, 19169, Note_on_c, 0, 56, 0
2, 19181, Note_on_c, 0, 72, 0
2, 19200, Note_on_c, 0, 61, 102
2, 19200, Note_on_c, 0, 75, 110
2, 19202, Note_on_c, 0, 68, 98
2, 19203, Note_on_c, 0, 56, 87
2, 19209, Note_on_c, 0, 73, 0
2, 19213, Control_c, 0, 64, 0
2, 19226, Control_c, 0, 64, 127
2, 19258, Note_on_c, 0, 68, 0
2, 19259, Note_on_c, 0, 61, 0
2, 19288, Note_on_c, 0, 75, 0
2, 19290, Note_on_c, 0, 56, 0
2, 19319, Note_on_c, 0, 56, 81
2, 19320, Note_on_c, 0, 68, 107
2, 19320, Note_on_c, 0, 66, 105
2, 19322, Note_on_c, 0, 77, 117
2, 19322, Note_on_c, 0, 60, 103
2, 19331, Control_c, 0, 64, 0
2, 19341, Control_c, 0, 64, 127
2, 19353, Note_on_c, 0, 66, 0
2, 19377, Note_on_c, 0, 60, 0
2, 19390, Note_on_c, 0, 56, 0
2, 19399, Note_on_c, 0, 75, 98
2, 19401, Note_on_c, 0, 77, 0
2, 19423, Note_on_c, 0, 68, 0
2, 19440, Note_on_c, 0, 49, 112
2, 19440, Note_on_c, 0, 71, 111
2, 19440, Note_on_c, 0, 75, 0
2, 19442, Note_on_c, 0, 73, 117
2, 19453, Control_c, 0, 64, 0
2, 19467, Control_c, 0, 64, 127
2, 19467, Note_on_c, 0, 49, 0
2, 19528, Note_on_c, 0, 75, 103
2, 19534, Note_on_c, 0, 73, 0
2, 19544, Note_on_c, 0, 71, 0
2, 19560, Note_on_c, 0, 61, 118
2, 19560, Note_on_c, 0, 68, 110
2, 19560, Note_on_c, 0, 73, 109
2, 19560, Note_on_c, 0, 77, 108
2, 19566, Note_on_c, 0, 75, 0
2, 19580, Control_c, 0, 64, 0
2, 19586, Note_on_c, 0, 73, 0
2, 19591, Control_c, 0, 64, 127
2, 19636, Note_on_c, 0, 68, 0
2, 19660, Note_on_c, 0, 61, 0
2, 19676, Note_on_c, 0, 77, 0
2, 19680, Note_on_c, 0, 78, 124
2, 19680, Note_on_c, 0, 61, 68
2, 19680, Note_on_c, 0, 73, 101
2, 19685, Note_on_c, 0, 69, 111
2, 19697, Control_c, 0, 64, 0
2, 19701, Control_c, 0, 64, 127
2, 19719, Note_on_c, 0, 73, 0
2, 19735, Note_on_c, 0, 69, 0
2, 19737, Note_on_c, 0, 78, 0
2, 19745, Note_on_c, 0, 61, 0
2, 19802, Note_on_c, 0, 68, 115
2, 19802, Note_on_c, 0, 73, 111
2, 19802, Note_on_c, 0, 77, 120
2, 19802, Note_on_c, 0, 71, 108
2, 19804, Note_on_c, 0, 61, 110
2, 19807, Control_c, 0, 64, 0
2, 19819, Control_c, 0, 64, 127
2, 19880, Note_on_c, 0, 66, 111
2, 19887, Note_on_c, 0, 78, 118
2, 19895, Note_on_c, 0, 73, 0
2, 19898, Note_on_c, 0, 68, 0
2, 19901, Note_on_c, 0, 77, 0
2, 19908, Note_on_c, 0, 71, 0
2, 19917, Note_on_c, 0, 66, 0
2, 19925, Note_on_c, 0, 80, 118
2, 19927, Note_on_c, 0, 65, 102
2, 19927, Note_on_c, 0, 73, 103
2, 19929, Note_on_c, 0, 71, 89
2, 19932, Control_c, 0, 64, 0
2, 19932, Note_on_c, 0, 78, 0
2, 19947, Control_c, 0, 64, 127
2, 19962, Note_on_c, 0, 61, 0
2, 19970, Note_on_c, 0, 73, 0
2, 19976, Note_on_c, 0, 71, 0
2, 19978, Note_on_c, 0, 65, 0
2, 19983, Note_on_c, 0, 80, 0
2, 20046, Note_on_c, 0, 81, 117
2, 20046, Note_on_c, 0, 73, 76
2, 20047, Note_on_c, 0, 71, 101
2, 20048, Note_on_c, 0, 61, 106
2, 20050, Note_on_c, 0, 65, 109
2, 20060, Control_c, 0, 64, 0
2, 20064, Control_c, 0, 64, 127
2, 20083, Note_on_c, 0, 81, 0
2, 20095, Note_on_c, 0, 65, 0
2, 20106, Note_on_c, 0, 71, 0
2, 20111, Note_on_c, 0, 61, 0
2, 20119, Note_on_c, 0, 73, 0
2, 20165, Note_on_c, 0, 42, 124
2, 20167, Note_on_c, 0, 78, 124
2, 20167, Control_c, 0, 64, 0
2, 20184, Control_c, 0, 64, 127
2, 20254, Note_on_c, 0, 42, 0
2, 20283, Note_on_c, 0, 66, 93
2, 20284, Note_on_c, 0, 73, 90
2, 20286, Note_on_c, 0, 54, 96
2, 20288, Note_on_c, 0, 61, 91
2, 20289, Note_on_c, 0, 69, 86
2, 20292, Note_on_c, 0, 78, 0
2, 20298, Control_c, 0, 64, 0
2, 20303, Control_c, 0, 64, 127
2, 20325, Note_on_c, 0, 61, 0
2, 20328, Note_on_c, 0, 54, 0
2, 20342, Note_on_c, 0, 66, 0
2, 20343, Note_on_c, 0, 73, 0
2, 20348, Note_on_c, 0, 69, 0
2, 20400, Note_on_c, 0, 50, 107
2, 20400, Note_on_c, 0, 56, 110
2, 20400, Note_on_c, 0, 60, 107
2, 20400, Note_on_c, 0, 66, 127
2, 20413, Control_c, 0, 64, 0
2, 20435, Control_c, 0, 64, 127
2, 20462, Note_on_c, 0, 50, 0
2, 20469, Note_on_c, 0, 60, 0
2, 20505, Note_on_c, 0, 66, 0
2, 20515, Note_on_c, 0, 56, 0
2, 20533, Note_on_c, 0, 61, 107
2, 20533, Note_on_c, 0, 65, 112
2, 20535, Note_on_c, 0, 49, 93
2, 20536, Note_on_c, 0, 56, 92
2, 20541, Control_c, 0, 64, 0
2, 20562, Control_c, 0, 64, 127
2, 20615, Note_on_c, 0, 49, 0
2, 20621, Note_on_c, 0, 66, 107
2, 20621, Note_on_c, 0, 56, 0
2, 20622, Note_on_c, 0, 61, 0
2, 20629, Note_on_c, 0, 65, 0
2, 20662, Note_on_c, 0, 49, 80
2, 20665, Note_on_c, 0, 68, 106
2, 20665, Note_on_c, 0, 54, 49
2, 20665, Note_on_c, 0, 59, 88
2, 20669, Note_on_c, 0, 66, 0
2, 20675, Control_c, 0, 64, 0
2, 20688, Control_c, 0, 64, 127
2, 20711, Note_on_c, 0, 54, 0
2, 20719, Note_on_c, 0, 59, 0
2, 20766, Note_on_c, 0, 68, 0
2, 20778, Note_on_c, 0, 61, 90
2, 20779, Note_on_c, 0, 69, 100
2, 20783, Note_on_c, 0, 59, 83
2, 20785, Note_on_c, 0, 53, 90
2, 20803, Control_c, 0, 64, 0
2, 20810, Control_c, 0, 64, 127
2, 20828, Note_on_c, 0, 53, 0
2, 20836, Note_on_c, 0, 49, 0
2, 20842, Note_on_c, 0, 59, 0
2, 20847, Note_on_c, 0, 69, 0
2, 20851, Note_on_c, 0, 68, 112
2, 20862, Note_on_c, 0, 61, 0
2, 20887, Note_on_c, 0, 68, 0
2, 20889, Note_on_c, 0, 66, 115
2, 20890, Note_on_c, 0, 42, 101
2, 20891, Note_on_c, 0, 61, 103
2, 20899, Control_c, 0, 64, 0
2, 20910, Control_c, 0, 64, 127
2, 20927, Note_on_c, 0, 42, 0
2, 20953, Note_on_c, 0, 61, 0
2, 20972, Note_on_c, 0, 68, 88
2, 20987, Note_on_c, 0, 66, 0
2, 21002, Note_on_c, 0, 54, 81
2, 21002, Note_on_c, 0, 69, 106
2, 21002, Note_on_c, 0, 61, 83
2, 21002, Note_on_c, 0, 68, 0
2, 21006, Note_on_c, 0, 57, 71
2, 21008, Control_c, 0, 64, 0
2, 21025, Control_c, 0, 64, 127
2, 21032, Note_on_c, 0, 61, 0
2, 21034, Note_on_c, 0, 57, 0
2, 21045, Note_on_c, 0, 69, 0
2, 21075, Note_on_c, 0, 54, 0
2, 21100, Note_on_c, 0, 63, 80
2, 21122, Note_on_c, 0, 71, 92
2, 21125, Note_on_c, 0, 57, 79
2, 21127, Note_on_c, 0, 53, 81
2, 21137, Control_c, 0, 64, 0
2, 21145, Control_c, 0, 64, 127
2, 21163, Note_on_c, 0, 53, 0
2, 21171, Note_on_c, 0, 57, 0
2, 21181, Note_on_c, 0, 63, 0
2, 21191, Note_on_c, 0, 71, 0
2, 21199, Note_on_c, 0, 69, 94
2, 21239, Note_on_c, 0, 68, 119
2, 21242, Note_on_c, 0, 52, 103
2, 21242, Note_on_c, 0, 59, 96
2, 21242, Note_on_c, 0, 69, 0
2, 21243, Note_on_c, 0, 64, 107
2, 21248, Control_c, 0, 64, 0
2, 21275, Control_c, 0, 64, 127
2, 21294, Note_on_c, 0, 59, 0
2, 21305, Note_on_c, 0, 52, 0
2, 21313, Note_on_c, 0, 64, 0
2, 21325, Note_on_c, 0, 69, 101
2, 21332, Note_on_c, 0, 68, 0
2, 21357, Note_on_c, 0, 69, 0
2, 21361, Note_on_c, 0, 71, 94
2, 21362, Note_on_c, 0, 57, 89
2, 21363, Note_on_c, 0, 62, 70
2, 21363, Note_on_c, 0, 65, 92
2, 21365, Note_on_c, 0, 52, 80
2, 21374, Control_c, 0, 64, 0
2, 21397, Control_c, 0, 64, 127
2, 21411, Note_on_c, 0, 52, 0
2, 21411, Note_on_c, 0, 57, 0
2, 21414, Note_on_c, 0, 65, 0
2, 21418, Note_on_c, 0, 62, 0
2, 21418, Note_on_c, 0, 71, 0
2, 21483, Note_on_c, 0, 73, 102
2, 21483, Note_on_c, 0, 62, 94
2, 21485, Note_on_c, 0, 56, 96
2, 21487, Note_on_c, 0, 64, 104
2, 21487, Note_on_c, 0, 52, 92
2, 21491, Control_c, 0, 64, 0
2, 21501, Control_c, 0, 64, 127
2, 21510, Note_on_c, 0, 62, 0
2, 21530, Note_on_c, 0, 56, 0
2, 21532, Note_on_c, 0, 52, 0
2, 21536, Note_on_c, 0, 73, 0
2, 21564, Note_on_c, 0, 71, 97
2, 21567, Note_on_c, 0, 64, 0
2, 21599, Note_on_c, 0, 71, 0
2, 21603, Note_on_c, 0, 69, 121
2, 21605, Note_on_c, 0, 64, 109
2, 21607, Note_on_c, 0, 45, 109
2, 21614, Control_c, 0, 64, 0
2, 21630, Control_c, 0, 64, 127
2, 21641, Note_on_c, 0, 45, 0
2, 21683, Note_on_c, 0, 71, 103
2, 21684, Note_on_c, 0, 64, 0
2, 21690, Note_on_c, 0, 69, 0
2, 21718, Note_on_c, 0, 71, 0
2, 21722, Note_on_c, 0, 73, 108
2, 21722, Note_on_c, 0, 57, 101
2, 21723, Note_on_c, 0, 69, 104
2, 21723, Note_on_c, 0, 64, 101
2, 21730, Control_c, 0, 64, 0
2, 21751, Control_c, 0, 64, 127
2, 21764, Note_on_c, 0, 69, 0
2, 21785, Note_on_c, 0, 57, 0
2, 21796, Note_on_c, 0, 73, 0
2, 21826, Note_on_c, 0, 64, 0
2, 21837, Note_on_c, 0, 75, 124
2, 21838, Note_on_c, 0, 57, 102
2, 21838, Note_on_c, 0, 61, 111
2, 21838, Note_on_c, 0, 67, 114
2, 21842, Control_c, 0, 64, 0
2, 21864, Control_c, 0, 64, 127
2, 21888, Note_on_c, 0, 57, 0
2, 21899, Note_on_c, 0, 67, 0
2, 21908, Note_on_c, 0, 61, 0
2, 21909, Note_on_c, 0, 75, 0
2, 21916, Note_on_c, 0, 73, 97
2, 21951, Note_on_c, 0, 73, 0
2, 21962, Note_on_c, 0, 68, 109
2, 21963, Note_on_c, 0, 72, 120
2, 21963, Note_on_c, 0, 56, 114
2, 21965, Note_on_c, 0, 63, 116
2, 21974, Control_c, 0, 64, 0
2, 21998, Control_c, 0, 64, 127
2, 22021, Note_on_c, 0, 63, 0
2, 22039, Note_on_c, 0, 73, 109
2, 22046, Note_on_c, 0, 68, 0
2, 22049, Note_on_c, 0, 72, 0
2, 22052, Note_on_c, 0, 56, 0
2, 22075, Note_on_c, 0, 75, 115
2, 22080, Note_on_c, 0, 56, 114
2, 22080, Note_on_c, 0, 61, 111
2, 22080, Note_on_c, 0, 66, 68
2, 22083, Note_on_c, 0, 73, 0
2, 22090, Control_c, 0, 64, 0
2, 22101, Control_c, 0, 64, 127
2, 22139, Note_on_c, 0, 75, 0
2, 22139, Note_on_c, 0, 66, 0
2, 22168, Note_on_c, 0, 61, 0
2, 22169, Note_on_c, 0, 56, 0
2, 22197, Note_on_c, 0, 77, 115
2, 22200, Note_on_c, 0, 68, 81
2, 22200, Note_on_c, 0, 66, 107
2, 22200, Note_on_c, 0, 56, 102
2, 22200, Note_on_c, 0, 60, 109
2, 22216, Control_c, 0, 64, 0
2, 22233, Control_c, 0, 64, 127
2, 22250, Note_on_c, 0, 66, 0
2, 22273, Note_on_c, 0, 75, 101
2, 22273, Note_on_c, 0, 60, 0
2, 22279, Note_on_c, 0, 56, 0
2, 22280, Note_on_c, 0, 77, 0
2, 22309, Note_on_c, 0, 68, 0
2, 22317, Note_on_c, 0, 75, 0
2, 22323, Note_on_c, 0, 73, 119
2, 22325, Note_on_c, 0, 71, 109
2, 22328, Note_on_c, 0, 49, 116
2, 22329, Note_on_c, 0, 61, 121
2, 22338, Control_c, 0, 64, 0
2, 22356, Control_c, 0, 64, 127
2, 22367, Note_on_c, 0, 49, 0
2, 22383, Note_on_c, 0, 61, 0
2, 22403, Note_on_c, 0, 75, 107
2, 22410, Note_on_c, 0, 71, 0
2, 22412, Note_on_c, 0, 73, 0
2, 22435, Note_on_c, 0, 75, 0
2, 22444, Note_on_c, 0, 73, 105
2, 22444, Note_on_c, 0, 77, 107
2, 22446, Note_on_c, 0, 68, 109
2, 22448, Note_on_c, 0, 61, 109
2, 22458, Control_c, 0, 64, 0
2, 22466, Control_c, 0, 64, 127
2, 22476, Note_on_c, 0, 73, 0
2, 22527, Note_on_c, 0, 68, 0
2, 22537, Note_on_c, 0, 61, 0
2, 22551, Note_on_c, 0, 77, 0
2, 22552, Note_on_c, 0, 78, 124
2, 22554, Note_on_c, 0, 73, 112
2, 22557, Note_on_c, 0, 69, 113
2, 22560, Note_on_c, 0, 61, 109
2, 22564, Control_c, 0, 64, 0
2, 22571, Control_c, 0, 64, 127
2, 22590, Note_on_c, 0, 73, 0
2, 22617, Note_on_c, 0, 78, 0
2, 22621, Note_on_c, 0, 69, 0
2, 22649, Note_on_c, 0, 61, 0
2, 22680, Note_on_c, 0, 77, 118
2, 22680, Note_on_c, 0, 61, 110
2, 22680, Note_on_c, 0, 71, 104
2, 22684, Note_on_c, 0, 68, 112
2, 22684, Note_on_c, 0, 73, 111
2, 22730, Note_on_c, 0, 71, 0
2, 22743, Note_on_c, 0, 73, 0
2, 22753, Note_on_c, 0, 68, 0
2, 22769, Note_on_c, 0, 61, 0
2, 22769, Note_on_c, 0, 77, 0
2, 22770, Note_on_c, 0, 74, 103
2, 22770, Note_on_c, 0, 86, 114
2, 22770, Note_on_c, 0, 66, 112
2, 22778, Note_on_c, 0, 74, 0
2, 22786, Note_on_c, 0, 66, 0
2, 22800, Note_on_c, 0, 61, 110
2, 22800, Note_on_c, 0, 65, 117
2, 22800, Note_on_c, 0, 85, 120
2, 22800, Note_on_c, 0, 73, 116
2, 22800, Note_on_c, 0, 86, 0
2, 22839, Control_c, 0, 64, 0
2, 22847, Control_c, 0, 64, 127
2, 22856, Note_on_c, 0, 85, 0
2, 22879, Note_on_c, 0, 73, 0
2, 22889, Note_on_c, 0, 61, 0
2, 22900, Note_on_c, 0, 65, 0
2, 22920, Note_on_c, 0, 65, 112
2, 22920, Note_on_c, 0, 61, 97
2, 22920, Note_on_c, 0, 73, 118
2, 22920, Note_on_c, 0, 80, 122
2, 22987, Note_on_c, 0, 80, 0
2, 22996, Note_on_c, 0, 73, 0
2, 23009, Note_on_c, 0, 61, 0
2, 23009, Note_on_c, 0, 65, 0
2, 23010, Note_on_c, 0, 81, 92
2, 23040, Note_on_c, 0, 69, 122
2, 23040, Note_on_c, 0, 78, 121
2, 23040, Note_on_c, 0, 54, 126
2, 23040, Note_on_c, 0, 66, 122
2, 23040, Note_on_c, 0, 61, 116
2, 23053, Note_on_c, 0, 81, 0
2, 23059, Control_c, 0, 64, 0
2, 23065, Control_c, 0, 64, 127
2, 23099, Note_on_c, 0, 61, 0
2, 23113, Note_on_c, 0, 54, 0
2, 23129, Note_on_c, 0, 69, 0
2, 23129, Note_on_c, 0, 78, 0
2, 23129, Note_on_c, 0, 66, 0
2, 23160, Note_on_c, 0, 54, 127
2, 23160, Note_on_c, 0, 66, 127
2, 23160, Note_on_c, 0, 42, 127
2, 23160, Note_on_c, 0, 78, 127
2, 23160, Note_on_c, 0, 90, 127
2, 23194, Control_c, 0, 64, 0
2, 23194, Control_c, 0, 121, 0
2, 23226, Note_on_c, 0, 90, 0
2, 23238, Note_on_c, 0, 42, 0
2, 23245, Note_on_c, 0, 78, 0
2, 23249, Note_on_c, 0, 66, 0
2, 23249, Note_on_c, 0, 54, 0
2, 23249, End_track
3, 0, Start_track
3, 0, MIDI_port, 0
3, 0, Title_t, "Creative Labs Inc."
3, 0, End_track
4, 0, Start_track
4, 0, MIDI_port, 0
4, 0, Title_t, "(c) 1994"
4, 0, End_track
5, 0, Start_track
5, 0, MIDI_port, 0
5, 0, Title_t, "Recorded by Dr. Chew"
5, 0, End_track
6, 0, Start_track
6, 0, MIDI_port, 0
6, 0, Title_t, "Chopin"
6, 0, End_track
7, 0, Start_track
7, 0, MIDI_port, 0
7, 0, Title_t, "Mazurka Op30 no.2"
7, 0, End_track
0, 0, End_of_file