0, 0, Header, 1, 3, 480
1, 0, Start_track
1, 0, Tempo, 599809
1, 0, Time_signature, 2, 2, 24, 8
1, 0, Title_t, "untitled"
1, 960, Tempo, 612097
1, 1440, Tempo, 605953
1, 1920, Tempo, 599809
1, 2400, Tempo, 605953
1, 3360, Tempo, 599809
1, 3840, Tempo, 612097
1, 4320, Tempo, 605953
1, 5280, Tempo, 612097
1, 6240, Tempo, 605953
1, 6720, Tempo, 612097
1, 7200, Tempo, 618497
1, 7680, Tempo, 605953
1, 8160, Tempo, 599809
1, 10080, Tempo, 605953
1, 10560, Tempo, 612097
1, 11040, Tempo, 605953
1, 11520, Tempo, 599809
1, 13920, Tempo, 605953
1, 14400, Tempo, 612097
1, 14880, Tempo, 624897
1, 15360, Tempo, 599809
1, 16320, Tempo, 612097
1, 16800, Tempo, 605953
1, 17280, Tempo, 599809
1, 17760, Tempo, 605953
1, 18720, Tempo, 599809
1, 19200, Tempo, 612097
1, 19680, Tempo, 605953
1, 20640, Tempo, 612097
1, 21600, Tempo, 605953
1, 22080, Tempo, 612097
1, 22560, Tempo, 618497
1, 23040, Tempo, 605953
1, 23520, Tempo, 599809
1, 25440, Tempo, 605953
1, 25920, Tempo, 612097
1, 26400, Tempo, 605953
1, 26880, Tempo, 599809
1, 29280, Tempo, 605953
1, 29760, Tempo, 612097
1, 30240, Tempo, 624897
1, 30720, Tempo, 599809
1, 31680, Tempo, 612097
1, 32160, Tempo, 605953
1, 32640, Tempo, 599809
1, 33120, Tempo, 605953
1, 34080, Tempo, 599809
1, 34560, Tempo, 612097
1, 35040, Tempo, 605953
1, 36000, Tempo, 612097
1, 36960, Tempo, 605953
1, 37440, Tempo, 612097
1, 37920, Tempo, 618497
1, 38400, Tempo, 605953
1, 38880, Tempo, 599809
1, 40800, Tempo, 605953
1, 41280, Tempo, 612097
1, 41760, Tempo, 605953
1, 42240, Tempo, 599809
1, 44640, Tempo, 605953
1, 45120, Tempo, 612097
1, 45600, Tempo, 631553
1, 46080, End_track
2, 0, Start_track
2, 0, Control_c, 1, 0, 0
2, 0, Control_c, 1, 32, 0
2, 0, Program_c, 1, 0
2, 0, Control_c, 1, 1, 0
2, 0, Control_c, 1, 7, 127
2, 0, Control_c, 1, 10, 64
2, 0, Control_c, 1, 91, 0
2, 0, Control_c, 1, 93, 0
2, 0, Title_t, "Piano"
2, 0, Note_on_c, 1, 69, 85
2, 0, Note_on_c, 1, 65, 85
2, 0, Note_on_c, 1, 62, 85
2, 0, Note_on_c, 1, 50, 85
2, 0, Note_on_c, 1, 57, 85
2, 384, Note_on_c, 1, 57, 0
2, 384, Note_on_c, 1, 50, 0
2, 384, Note_on_c, 1, 62, 0
2, 384, Note_on_c, 1, 65, 0
2, 384, Note_on_c, 1, 69, 0
2, 480, Note_on_c, 1, 62, 85
2, 480, Note_on_c, 1, 65, 85
2, 480, Note_on_c, 1, 69, 85
2, 480, Note_on_c, 1, 50, 85
2, 480, Note_on_c, 1, 57, 85
2, 672, Note_on_c, 1, 57, 0
2, 672, Note_on_c, 1, 50, 0
2, 672, Note_on_c, 1, 69, 0
2, 672, Note_on_c, 1, 65, 0
2, 672, Note_on_c, 1, 62, 0
2, 720, Note_on_c, 1, 64, 85
2, 720, Note_on_c, 1, 67, 85
2, 720, Note_on_c, 1, 62, 85
2, 720, Note_on_c, 1, 50, 85
2, 720, Note_on_c, 1, 57, 85
2, 912, Note_on_c, 1, 57, 0
2, 912, Note_on_c, 1, 50, 0
2, 912, Note_on_c, 1, 62, 0
2, 912, Note_on_c, 1, 67, 0
2, 912, Note_on_c, 1, 64, 0
2, 960, Note_on_c, 1, 69, 85
2, 960, Note_on_c, 1, 62, 85
2, 960, Note_on_c, 1, 65, 85
2, 960, Note_on_c, 1, 50, 85
2, 960, Note_on_c, 1, 57, 85
2, 1344, Note_on_c, 1, 57, 0
2, 1344, Note_on_c, 1, 50, 0
2, 1344, Note_on_c, 1, 65, 0
2, 1344, Note_on_c, 1, 62, 0
2, 1344, Note_on_c, 1, 69, 0
2, 1440, Note_on_c, 1, 70, 85
2, 1440, Note_on_c, 1, 67, 85
2, 1440, Note_on_c, 1, 62, 85
2, 1440, Note_on_c, 1, 55, 85
2, 1440, Note_on_c, 1, 43, 85
2, 1824, Note_on_c, 1, 43, 0
2, 1824, Note_on_c, 1, 55, 0
2, 1824, Note_on_c, 1, 62, 0
2, 1824, Note_on_c, 1, 67, 0
2, 1824, Note_on_c, 1, 70, 0
2, 1920, Note_on_c, 1, 69, 94
2, 1920, Note_on_c, 1, 62, 94
2, 1920, Note_on_c, 1, 41, 94
2, 1920, Note_on_c, 1, 57, 94
2, 2112, Note_on_c, 1, 57, 0
2, 2112, Note_on_c, 1, 41, 0
2, 2112, Note_on_c, 1, 62, 0
2, 2112, Note_on_c, 1, 69, 0
2, 2160, Note_on_c, 1, 64, 85
2, 2160, Note_on_c, 1, 67, 85
2, 2160, Note_on_c, 1, 58, 85
2, 2160, Note_on_c, 1, 43, 85
2, 2352, Note_on_c, 1, 43, 0
2, 2352, Note_on_c, 1, 58, 0
2, 2352, Note_on_c, 1, 67, 0
2, 2352, Note_on_c, 1, 64, 0
2, 2400, Note_on_c, 1, 65, 85
2, 2400, Note_on_c, 1, 62, 85
2, 2400, Note_on_c, 1, 45, 85
2, 2400, Note_on_c, 1, 57, 85
2, 2592, Note_on_c, 1, 57, 0
2, 2592, Note_on_c, 1, 45, 0
2, 2592, Note_on_c, 1, 62, 0
2, 2592, Note_on_c, 1, 65, 0
2, 2640, Note_on_c, 1, 64, 72
2, 2640, Note_on_c, 1, 61, 72
2, 2640, Note_on_c, 1, 45, 72
2, 2640, Note_on_c, 1, 57, 72
2, 2640, Note_on_c, 1, 55, 72
2, 2832, Note_on_c, 1, 55, 0
2, 2832, Note_on_c, 1, 57, 0
2, 2832, Note_on_c, 1, 45, 0
2, 2832, Note_on_c, 1, 61, 0
2, 2832, Note_on_c, 1, 64, 0
2, 2880, Note_on_c, 1, 62, 64
2, 2880, Note_on_c, 1, 57, 64
2, 2880, Note_on_c, 1, 53, 64
2, 2880, Note_on_c, 1, 50, 64
2, 3456, Note_on_c, 1, 50, 0
2, 3456, Note_on_c, 1, 53, 0
2, 3456, Note_on_c, 1, 57, 0
2, 3456, Note_on_c, 1, 62, 0
2, 3600, Note_on_c, 1, 64, 85
2, 3600, Note_on_c, 1, 67, 85
2, 3600, Note_on_c, 1, 58, 85
2, 3600, Note_on_c, 1, 50, 85
2, 3792, Note_on_c, 1, 50, 0
2, 3792, Note_on_c, 1, 58, 0
2, 3792, Note_on_c, 1, 67, 0
2, 3792, Note_on_c, 1, 64, 0
2, 3840, Note_on_c, 1, 69, 85
2, 3840, Note_on_c, 1, 65, 85
2, 3840, Note_on_c, 1, 50, 85
2, 3840, Note_on_c, 1, 57, 85
2, 4224, Note_on_c, 1, 57, 0
2, 4224, Note_on_c, 1, 50, 0
2, 4224, Note_on_c, 1, 65, 0
2, 4224, Note_on_c, 1, 69, 0
2, 4320, Note_on_c, 1, 60, 85
2, 4320, Note_on_c, 1, 66, 85
2, 4320, Note_on_c, 1, 74, 85
2, 4320, Note_on_c, 1, 50, 85
2, 4320, Note_on_c, 1, 57, 85
2, 4512, Note_on_c, 1, 57, 0
2, 4512, Note_on_c, 1, 50, 0
2, 4512, Note_on_c, 1, 74, 0
2, 4512, Note_on_c, 1, 66, 0
2, 4512, Note_on_c, 1, 60, 0
2, 4560, Note_on_c, 1, 72, 72
2, 4560, Note_on_c, 1, 60, 72
2, 4560, Note_on_c, 1, 66, 72
2, 4560, Note_on_c, 1, 50, 72
2, 4752, Note_on_c, 1, 50, 0
2, 4752, Note_on_c, 1, 66, 0
2, 4752, Note_on_c, 1, 60, 0
2, 4752, Note_on_c, 1, 72, 0
2, 4800, Note_on_c, 1, 70, 85
2, 4800, Note_on_c, 1, 67, 85
2, 4800, Note_on_c, 1, 62, 85
2, 4800, Note_on_c, 1, 55, 85
2, 5184, Note_on_c, 1, 55, 0
2, 5184, Note_on_c, 1, 62, 0
2, 5184, Note_on_c, 1, 67, 0
2, 5184, Note_on_c, 1, 70, 0
2, 5280, Note_on_c, 1, 65, 85
2, 5280, Note_on_c, 1, 62, 85
2, 5280, Note_on_c, 1, 69, 85
2, 5280, Note_on_c, 1, 50, 85
2, 5472, Note_on_c, 1, 50, 0
2, 5472, Note_on_c, 1, 69, 0
2, 5472, Note_on_c, 1, 62, 0
2, 5472, Note_on_c, 1, 65, 0
2, 5520, Note_on_c, 1, 70, 85
2, 5520, Note_on_c, 1, 62, 85
2, 5520, Note_on_c, 1, 67, 85
2, 5520, Note_on_c, 1, 55, 85
2, 5712, Note_on_c, 1, 55, 0
2, 5712, Note_on_c, 1, 67, 0
2, 5712, Note_on_c, 1, 62, 0
2, 5712, Note_on_c, 1, 70, 0
2, 5760, Note_on_c, 1, 69, 85
2, 5760, Note_on_c, 1, 65, 85
2, 5760, Note_on_c, 1, 62, 85
2, 5760, Note_on_c, 1, 50, 85
2, 6144, Note_on_c, 1, 50, 0
2, 6144, Note_on_c, 1, 62, 0
2, 6144, Note_on_c, 1, 65, 0
2, 6144, Note_on_c, 1, 69, 0
2, 6240, Note_on_c, 1, 64, 85
2, 6240, Note_on_c, 1, 62, 85
2, 6240, Note_on_c, 1, 58, 85
2, 6240, Note_on_c, 1, 43, 85
2, 6432, Note_on_c, 1, 43, 0
2, 6432, Note_on_c, 1, 58, 0
2, 6432, Note_on_c, 1, 62, 0
2, 6480, Note_on_c, 1, 45, 85
2, 6480, Note_on_c, 1, 61, 85
2, 6480, Note_on_c, 1, 55, 85
2, 6624, Note_on_c, 1, 64, 0
2, 6672, Note_on_c, 1, 55, 0
2, 6672, Note_on_c, 1, 61, 0
2, 6672, Note_on_c, 1, 45, 0
2, 6720, Note_on_c, 1, 62, 85
2, 6720, Note_on_c, 1, 38, 85
2, 6720, Note_on_c, 1, 53, 85
2, 6720, Note_on_c, 1, 57, 85
2, 7296, Note_on_c, 1, 57, 0
2, 7296, Note_on_c, 1, 53, 0
2, 7296, Note_on_c, 1, 38, 0
2, 7296, Note_on_c, 1, 62, 0
2, 7680, Note_on_c, 1, 64, 85
2, 7680, Note_on_c, 1, 58, 85
2, 7680, Note_on_c, 1, 48, 85
2, 7872, Note_on_c, 1, 58, 0
2, 7872, Note_on_c, 1, 64, 0
2, 7920, Note_on_c, 1, 60, 85
2, 8064, Note_on_c, 1, 48, 0
2, 8112, Note_on_c, 1, 60, 0
2, 8160, Note_on_c, 1, 65, 85
2, 8160, Note_on_c, 1, 57, 85
2, 8160, Note_on_c, 1, 41, 85
2, 8352, Note_on_c, 1, 57, 0
2, 8352, Note_on_c, 1, 65, 0
2, 8400, Note_on_c, 1, 60, 94
2, 8544, Note_on_c, 1, 41, 0
2, 8592, Note_on_c, 1, 60, 0
2, 8640, Note_on_c, 1, 58, 94
2, 8640, Note_on_c, 1, 64, 94
2, 8640, Note_on_c, 1, 67, 94
2, 8640, Note_on_c, 1, 48, 85
2, 8832, Note_on_c, 1, 67, 0
2, 8832, Note_on_c, 1, 64, 0
2, 8832, Note_on_c, 1, 58, 0
2, 8880, Note_on_c, 1, 60, 94
2, 9024, Note_on_c, 1, 48, 0
2, 9072, Note_on_c, 1, 60, 0
2, 9120, Note_on_c, 1, 57, 94
2, 9120, Note_on_c, 1, 65, 94
2, 9120, Note_on_c, 1, 69, 94
2, 9120, Note_on_c, 1, 41, 85
2, 9120, Note_on_c, 1, 53, 85
2, 9312, Note_on_c, 1, 65, 0
2, 9312, Note_on_c, 1, 57, 0
2, 9360, Note_on_c, 1, 63, 94
2, 9504, Note_on_c, 1, 53, 0
2, 9504, Note_on_c, 1, 41, 0
2, 9504, Note_on_c, 1, 69, 0
2, 9552, Note_on_c, 1, 63, 0
2, 9600, Note_on_c, 1, 70, 94
2, 9600, Note_on_c, 1, 62, 94
2, 9600, Note_on_c, 1, 46, 85
2, 9600, Note_on_c, 1, 53, 85
2, 9984, Note_on_c, 1, 53, 0
2, 9984, Note_on_c, 1, 46, 0
2, 9984, Note_on_c, 1, 62, 0
2, 9984, Note_on_c, 1, 70, 0
2, 10080, Note_on_c, 1, 62, 94
2, 10080, Note_on_c, 1, 65, 94
2, 10080, Note_on_c, 1, 46, 85
2, 10080, Note_on_c, 1, 53, 85
2, 10272, Note_on_c, 1, 53, 0
2, 10272, Note_on_c, 1, 46, 0
2, 10272, Note_on_c, 1, 65, 0
2, 10272, Note_on_c, 1, 62, 0
2, 10320, Note_on_c, 1, 61, 94
2, 10320, Note_on_c, 1, 67, 94
2, 10320, Note_on_c, 1, 46, 85
2, 10320, Note_on_c, 1, 53, 85
2, 10512, Note_on_c, 1, 53, 0
2, 10512, Note_on_c, 1, 46, 0
2, 10512, Note_on_c, 1, 67, 0
2, 10512, Note_on_c, 1, 61, 0
2, 10560, Note_on_c, 1, 60, 94
2, 10560, Note_on_c, 1, 69, 94
2, 10560, Note_on_c, 1, 41, 85
2, 10560, Note_on_c, 1, 53, 85
2, 10944, Note_on_c, 1, 69, 0
2, 10944, Note_on_c, 1, 60, 0
2, 11040, Note_on_c, 1, 65, 85
2, 11040, Note_on_c, 1, 57, 85
2, 11232, Note_on_c, 1, 57, 0
2, 11232, Note_on_c, 1, 65, 0
2, 11280, Note_on_c, 1, 60, 85
2, 11328, Note_on_c, 1, 53, 0
2, 11328, Note_on_c, 1, 41, 0
2, 11472, Note_on_c, 1, 60, 0
2, 11520, Note_on_c, 1, 55, 85
2, 11520, Note_on_c, 1, 61, 85
2, 11520, Note_on_c, 1, 45, 85
2, 11712, Note_on_c, 1, 61, 0
2, 11712, Note_on_c, 1, 55, 0
2, 11760, Note_on_c, 1, 57, 85
2, 11904, Note_on_c, 1, 45, 0
2, 11952, Note_on_c, 1, 57, 0
2, 12000, Note_on_c, 1, 62, 85
2, 12000, Note_on_c, 1, 50, 85
2, 12000, Note_on_c, 1, 53, 85
2, 12192, Note_on_c, 1, 53, 0
2, 12192, Note_on_c, 1, 62, 0
2, 12240, Note_on_c, 1, 57, 85
2, 12384, Note_on_c, 1, 50, 0
2, 12432, Note_on_c, 1, 57, 0
2, 12480, Note_on_c, 1, 64, 85
2, 12480, Note_on_c, 1, 61, 85
2, 12480, Note_on_c, 1, 45, 85
2, 12480, Note_on_c, 1, 55, 85
2, 12672, Note_on_c, 1, 55, 0
2, 12672, Note_on_c, 1, 61, 0
2, 12672, Note_on_c, 1, 64, 0
2, 12720, Note_on_c, 1, 57, 85
2, 12864, Note_on_c, 1, 45, 0
2, 12912, Note_on_c, 1, 57, 0
2, 12960, Note_on_c, 1, 65, 85
2, 12960, Note_on_c, 1, 62, 85
2, 12960, Note_on_c, 1, 38, 85
2, 12960, Note_on_c, 1, 53, 85
2, 12960, Note_on_c, 1, 50, 85
2, 13152, Note_on_c, 1, 53, 0
2, 13152, Note_on_c, 1, 62, 0
2, 13152, Note_on_c, 1, 65, 0
2, 13200, Note_on_c, 1, 57, 85
2, 13344, Note_on_c, 1, 50, 0
2, 13344, Note_on_c, 1, 38, 0
2, 13392, Note_on_c, 1, 57, 0
2, 13440, Note_on_c, 1, 58, 85
2, 13440, Note_on_c, 1, 64, 85
2, 13440, Note_on_c, 1, 43, 85
2, 13440, Note_on_c, 1, 55, 85
2, 13824, Note_on_c, 1, 55, 0
2, 13824, Note_on_c, 1, 43, 0
2, 13824, Note_on_c, 1, 64, 0
2, 13824, Note_on_c, 1, 58, 0
2, 13920, Note_on_c, 1, 61, 85
2, 13920, Note_on_c, 1, 45, 85
2, 13920, Note_on_c, 1, 52, 85
2, 13920, Note_on_c, 1, 55, 85
2, 14112, Note_on_c, 1, 55, 0
2, 14112, Note_on_c, 1, 52, 0
2, 14112, Note_on_c, 1, 45, 0
2, 14112, Note_on_c, 1, 61, 0
2, 14160, Note_on_c, 1, 61, 85
2, 14160, Note_on_c, 1, 52, 85
2, 14160, Note_on_c, 1, 45, 85
2, 14160, Note_on_c, 1, 55, 85
2, 14352, Note_on_c, 1, 55, 0
2, 14352, Note_on_c, 1, 45, 0
2, 14352, Note_on_c, 1, 52, 0
2, 14352, Note_on_c, 1, 61, 0
2, 14400, Note_on_c, 1, 62, 85
2, 14400, Note_on_c, 1, 53, 85
2, 14400, Note_on_c, 1, 38, 85
2, 14592, Note_on_c, 1, 53, 0
2, 14592, Note_on_c, 1, 62, 0
2, 14640, Note_on_c, 1, 65, 85
2, 14640, Note_on_c, 1, 57, 85
2, 14784, Note_on_c, 1, 38, 0
2, 14832, Note_on_c, 1, 57, 0
2, 14832, Note_on_c, 1, 65, 0
2, 14880, Note_on_c, 1, 62, 85
2, 14880, Note_on_c, 1, 53, 85
2, 14880, Note_on_c, 1, 50, 85
2, 15264, Note_on_c, 1, 50, 0
2, 15264, Note_on_c, 1, 53, 0
2, 15264, Note_on_c, 1, 62, 0
2, 15360, Note_on_c, 1, 69, 85
2, 15360, Note_on_c, 1, 65, 85
2, 15360, Note_on_c, 1, 62, 85
2, 15360, Note_on_c, 1, 50, 85
2, 15360, Note_on_c, 1, 57, 85
2, 15744, Note_on_c, 1, 57, 0
2, 15744, Note_on_c, 1, 50, 0
2, 15744, Note_on_c, 1, 62, 0
2, 15744, Note_on_c, 1, 65, 0
2, 15744, Note_on_c, 1, 69, 0
2, 15840, Note_on_c, 1, 62, 85
2, 15840, Note_on_c, 1, 65, 85
2, 15840, Note_on_c, 1, 69, 85
2, 15840, Note_on_c, 1, 50, 85
2, 15840, Note_on_c, 1, 57, 85
2, 16032, Note_on_c, 1, 57, 0
2, 16032, Note_on_c, 1, 50, 0
2, 16032, Note_on_c, 1, 69, 0
2, 16032, Note_on_c, 1, 65, 0
2, 16032, Note_on_c, 1, 62, 0
2, 16080, Note_on_c, 1, 64, 85
2, 16080, Note_on_c, 1, 67, 85
2, 16080, Note_on_c, 1, 62, 85
2, 16080, Note_on_c, 1, 50, 85
2, 16080, Note_on_c, 1, 57, 85
2, 16272, Note_on_c, 1, 57, 0
2, 16272, Note_on_c, 1, 50, 0
2, 16272, Note_on_c, 1, 62, 0
2, 16272, Note_on_c, 1, 67, 0
2, 16272, Note_on_c, 1, 64, 0
2, 16320, Note_on_c, 1, 69, 85
2, 16320, Note_on_c, 1, 62, 85
2, 16320, Note_on_c, 1, 65, 85
2, 16320, Note_on_c, 1, 50, 85
2, 16320, Note_on_c, 1, 57, 85
2, 16704, Note_on_c, 1, 57, 0
2, 16704, Note_on_c, 1, 50, 0
2, 16704, Note_on_c, 1, 65, 0
2, 16704, Note_on_c, 1, 62, 0
2, 16704, Note_on_c, 1, 69, 0
2, 16800, Note_on_c, 1, 70, 85
2, 16800, Note_on_c, 1, 67, 85
2, 16800, Note_on_c, 1, 62, 85
2, 16800, Note_on_c, 1, 55, 85
2, 16800, Note_on_c, 1, 43, 85
2, 17184, Note_on_c, 1, 43, 0
2, 17184, Note_on_c, 1, 55, 0
2, 17184, Note_on_c, 1, 62, 0
2, 17184, Note_on_c, 1, 67, 0
2, 17184, Note_on_c, 1, 70, 0
2, 17280, Note_on_c, 1, 69, 94
2, 17280, Note_on_c, 1, 62, 94
2, 17280, Note_on_c, 1, 41, 94
2, 17280, Note_on_c, 1, 57, 94
2, 17472, Note_on_c, 1, 57, 0
2, 17472, Note_on_c, 1, 41, 0
2, 17472, Note_on_c, 1, 62, 0
2, 17472, Note_on_c, 1, 69, 0
2, 17520, Note_on_c, 1, 64, 85
2, 17520, Note_on_c, 1, 67, 85
2, 17520, Note_on_c, 1, 58, 85
2, 17520, Note_on_c, 1, 43, 85
2, 17712, Note_on_c, 1, 43, 0
2, 17712, Note_on_c, 1, 58, 0
2, 17712, Note_on_c, 1, 67, 0
2, 17712, Note_on_c, 1, 64, 0
2, 17760, Note_on_c, 1, 65, 85
2, 17760, Note_on_c, 1, 62, 85
2, 17760, Note_on_c, 1, 45, 85
2, 17760, Note_on_c, 1, 57, 85
2, 17952, Note_on_c, 1, 57, 0
2, 17952, Note_on_c, 1, 45, 0
2, 17952, Note_on_c, 1, 62, 0
2, 17952, Note_on_c, 1, 65, 0
2, 18000, Note_on_c, 1, 64, 72
2, 18000, Note_on_c, 1, 61, 72
2, 18000, Note_on_c, 1, 45, 72
2, 18000, Note_on_c, 1, 57, 72
2, 18000, Note_on_c, 1, 55, 72
2, 18192, Note_on_c, 1, 55, 0
2, 18192, Note_on_c, 1, 57, 0
2, 18192, Note_on_c, 1, 45, 0
2, 18192, Note_on_c, 1, 61, 0
2, 18192, Note_on_c, 1, 64, 0
2, 18240, Note_on_c, 1, 62, 64
2, 18240, Note_on_c, 1, 57, 64
2, 18240, Note_on_c, 1, 53, 64
2, 18240, Note_on_c, 1, 50, 64
2, 18816, Note_on_c, 1, 50, 0
2, 18816, Note_on_c, 1, 53, 0
2, 18816, Note_on_c, 1, 57, 0
2, 18816, Note_on_c, 1, 62, 0
2, 18960, Note_on_c, 1, 64, 85
2, 18960, Note_on_c, 1, 67, 85
2, 18960, Note_on_c, 1, 58, 85
2, 18960, Note_on_c, 1, 50, 85
2, 19152, Note_on_c, 1, 50, 0
2, 19152, Note_on_c, 1, 58, 0
2, 19152, Note_on_c, 1, 67, 0
2, 19152, Note_on_c, 1, 64, 0
2, 19200, Note_on_c, 1, 69, 85
2, 19200, Note_on_c, 1, 65, 85
2, 19200, Note_on_c, 1, 50, 85
2, 19200, Note_on_c, 1, 57, 85
2, 19584, Note_on_c, 1, 57, 0
2, 19584, Note_on_c, 1, 50, 0
2, 19584, Note_on_c, 1, 65, 0
2, 19584, Note_on_c, 1, 69, 0
2, 19680, Note_on_c, 1, 60, 85
2, 19680, Note_on_c, 1, 66, 85
2, 19680, Note_on_c, 1, 74, 85
2, 19680, Note_on_c, 1, 50, 85
2, 19680, Note_on_c, 1, 57, 85
2, 19872, Note_on_c, 1, 57, 0
2, 19872, Note_on_c, 1, 50, 0
2, 19872, Note_on_c, 1, 74, 0
2, 19872, Note_on_c, 1, 66, 0
2, 19872, Note_on_c, 1, 60, 0
2, 19920, Note_on_c, 1, 72, 72
2, 19920, Note_on_c, 1, 60, 72
2, 19920, Note_on_c, 1, 66, 72
2, 19920, Note_on_c, 1, 50, 72
2, 20112, Note_on_c, 1, 50, 0
2, 20112, Note_on_c, 1, 66, 0
2, 20112, Note_on_c, 1, 60, 0
2, 20112, Note_on_c, 1, 72, 0
2, 20160, Note_on_c, 1, 70, 85
2, 20160, Note_on_c, 1, 67, 85
2, 20160, Note_on_c, 1, 62, 85
2, 20160, Note_on_c, 1, 55, 85
2, 20544, Note_on_c, 1, 55, 0
2, 20544, Note_on_c, 1, 62, 0
2, 20544, Note_on_c, 1, 67, 0
2, 20544, Note_on_c, 1, 70, 0
2, 20640, Note_on_c, 1, 65, 85
2, 20640, Note_on_c, 1, 62, 85
2, 20640, Note_on_c, 1, 69, 85
2, 20640, Note_on_c, 1, 50, 85
2, 20832, Note_on_c, 1, 50, 0
2, 20832, Note_on_c, 1, 69, 0
2, 20832, Note_on_c, 1, 62, 0
2, 20832, Note_on_c, 1, 65, 0
2, 20880, Note_on_c, 1, 70, 85
2, 20880, Note_on_c, 1, 62, 85
2, 20880, Note_on_c, 1, 67, 85
2, 20880, Note_on_c, 1, 55, 85
2, 21072, Note_on_c, 1, 55, 0
2, 21072, Note_on_c, 1, 67, 0
2, 21072, Note_on_c, 1, 62, 0
2, 21072, Note_on_c, 1, 70, 0
2, 21120, Note_on_c, 1, 69, 85
2, 21120, Note_on_c, 1, 65, 85
2, 21120, Note_on_c, 1, 62, 85
2, 21120, Note_on_c, 1, 50, 85
2, 21504, Note_on_c, 1, 50, 0
2, 21504, Note_on_c, 1, 62, 0
2, 21504, Note_on_c, 1, 65, 0
2, 21504, Note_on_c, 1, 69, 0
2, 21600, Note_on_c, 1, 64, 85
2, 21600, Note_on_c, 1, 62, 85
2, 21600, Note_on_c, 1, 58, 85
2, 21600, Note_on_c, 1, 43, 85
2, 21792, Note_on_c, 1, 43, 0
2, 21792, Note_on_c, 1, 58, 0
2, 21792, Note_on_c, 1, 62, 0
2, 21840, Note_on_c, 1, 45, 85
2, 21840, Note_on_c, 1, 61, 85
2, 21840, Note_on_c, 1, 55, 85
2, 21984, Note_on_c, 1, 64, 0
2, 22032, Note_on_c, 1, 55, 0
2, 22032, Note_on_c, 1, 61, 0
2, 22032, Note_on_c, 1, 45, 0
2, 22080, Note_on_c, 1, 62, 85
2, 22080, Note_on_c, 1, 38, 85
2, 22080, Note_on_c, 1, 53, 85
2, 22080, Note_on_c, 1, 57, 85
2, 22656, Note_on_c, 1, 57, 0
2, 22656, Note_on_c, 1, 53, 0
2, 22656, Note_on_c, 1, 38, 0
2, 22656, Note_on_c, 1, 62, 0
2, 23040, Note_on_c, 1, 64, 85
2, 23040, Note_on_c, 1, 58, 85
2, 23040, Note_on_c, 1, 48, 85
2, 23232, Note_on_c, 1, 58, 0
2, 23232, Note_on_c, 1, 64, 0
2, 23280, Note_on_c, 1, 60, 85
2, 23424, Note_on_c, 1, 48, 0
2, 23472, Note_on_c, 1, 60, 0
2, 23520, Note_on_c, 1, 65, 85
2, 23520, Note_on_c, 1, 57, 85
2, 23520, Note_on_c, 1, 41, 85
2, 23712, Note_on_c, 1, 57, 0
2, 23712, Note_on_c, 1, 65, 0
2, 23760, Note_on_c, 1, 60, 94
2, 23904, Note_on_c, 1, 41, 0
2, 23952, Note_on_c, 1, 60, 0
2, 24000, Note_on_c, 1, 58, 94
2, 24000, Note_on_c, 1, 64, 94
2, 24000, Note_on_c, 1, 67, 94
2, 24000, Note_on_c, 1, 48, 85
2, 24192, Note_on_c, 1, 67, 0
2, 24192, Note_on_c, 1, 64, 0
2, 24192, Note_on_c, 1, 58, 0
2, 24240, Note_on_c, 1, 60, 94
2, 24384, Note_on_c, 1, 48, 0
2, 24432, Note_on_c, 1, 60, 0
2, 24480, Note_on_c, 1, 57, 94
2, 24480, Note_on_c, 1, 65, 94
2, 24480, Note_on_c, 1, 69, 94
2, 24480, Note_on_c, 1, 41, 85
2, 24480, Note_on_c, 1, 53, 85
2, 24672, Note_on_c, 1, 65, 0
2, 24672, Note_on_c, 1, 57, 0
2, 24720, Note_on_c, 1, 63, 94
2, 24864, Note_on_c, 1, 53, 0
2, 24864, Note_on_c, 1, 41, 0
2, 24864, Note_on_c, 1, 69, 0
2, 24912, Note_on_c, 1, 63, 0
2, 24960, Note_on_c, 1, 70, 94
2, 24960, Note_on_c, 1, 62, 94
2, 24960, Note_on_c, 1, 46, 85
2, 24960, Note_on_c, 1, 53, 85
2, 25344, Note_on_c, 1, 53, 0
2, 25344, Note_on_c, 1, 46, 0
2, 25344, Note_on_c, 1, 62, 0
2, 25344, Note_on_c, 1, 70, 0
2, 25440, Note_on_c, 1, 62, 94
2, 25440, Note_on_c, 1, 65, 94
2, 25440, Note_on_c, 1, 46, 85
2, 25440, Note_on_c, 1, 53, 85
2, 25632, Note_on_c, 1, 53, 0
2, 25632, Note_on_c, 1, 46, 0
2, 25632, Note_on_c, 1, 65, 0
2, 25632, Note_on_c, 1, 62, 0
2, 25680, Note_on_c, 1, 61, 94
2, 25680, Note_on_c, 1, 67, 94
2, 25680, Note_on_c, 1, 46, 85
2, 25680, Note_on_c, 1, 53, 85
2, 25872, Note_on_c, 1, 53, 0
2, 25872, Note_on_c, 1, 46, 0
2, 25872, Note_on_c, 1, 67, 0
2, 25872, Note_on_c, 1, 61, 0
2, 25920, Note_on_c, 1, 60, 94
2, 25920, Note_on_c, 1, 69, 94
2, 25920, Note_on_c, 1, 41, 85
2, 25920, Note_on_c, 1, 53, 85
2, 26304, Note_on_c, 1, 69, 0
2, 26304, Note_on_c, 1, 60, 0
2, 26400, Note_on_c, 1, 65, 85
2, 26400, Note_on_c, 1, 57, 85
2, 26592, Note_on_c, 1, 57, 0
2, 26592, Note_on_c, 1, 65, 0
2, 26640, Note_on_c, 1, 60, 85
2, 26688, Note_on_c, 1, 53, 0
2, 26688, Note_on_c, 1, 41, 0
2, 26832, Note_on_c, 1, 60, 0
2, 26880, Note_on_c, 1, 55, 85
2, 26880, Note_on_c, 1, 61, 85
2, 26880, Note_on_c, 1, 45, 85
2, 27072, Note_on_c, 1, 61, 0
2, 27072, Note_on_c, 1, 55, 0
2, 27120, Note_on_c, 1, 57, 85
2, 27264, Note_on_c, 1, 45, 0
2, 27312, Note_on_c, 1, 57, 0
2, 27360, Note_on_c, 1, 62, 85
2, 27360, Note_on_c, 1, 50, 85
2, 27360, Note_on_c, 1, 53, 85
2, 27552, Note_on_c, 1, 53, 0
2, 27552, Note_on_c, 1, 62, 0
2, 27600, Note_on_c, 1, 57, 85
2, 27744, Note_on_c, 1, 50, 0
2, 27792, Note_on_c, 1, 57, 0
2, 27840, Note_on_c, 1, 64, 85
2, 27840, Note_on_c, 1, 61, 85
2, 27840, Note_on_c, 1, 45, 85
2, 27840, Note_on_c, 1, 55, 85
2, 28032, Note_on_c, 1, 55, 0
2, 28032, Note_on_c, 1, 61, 0
2, 28032, Note_on_c, 1, 64, 0
2, 28080, Note_on_c, 1, 57, 85
2, 28224, Note_on_c, 1, 45, 0
2, 28272, Note_on_c, 1, 57, 0
2, 28320, Note_on_c, 1, 65, 85
2, 28320, Note_on_c, 1, 62, 85
2, 28320, Note_on_c, 1, 38, 85
2, 28320, Note_on_c, 1, 53, 85
2, 28320, Note_on_c, 1, 50, 85
2, 28512, Note_on_c, 1, 53, 0
2, 28512, Note_on_c, 1, 62, 0
2, 28512, Note_on_c, 1, 65, 0
2, 28560, Note_on_c, 1, 57, 85
2, 28704, Note_on_c, 1, 50, 0
2, 28704, Note_on_c, 1, 38, 0
2, 28752, Note_on_c, 1, 57, 0
2, 28800, Note_on_c, 1, 58, 85
2, 28800, Note_on_c, 1, 64, 85
2, 28800, Note_on_c, 1, 43, 85
2, 28800, Note_on_c, 1, 55, 85
2, 29184, Note_on_c, 1, 55, 0
2, 29184, Note_on_c, 1, 43, 0
2, 29184, Note_on_c, 1, 64, 0
2, 29184, Note_on_c, 1, 58, 0
2, 29280, Note_on_c, 1, 61, 85
2, 29280, Note_on_c, 1, 45, 85
2, 29280, Note_on_c, 1, 52, 85
2, 29280, Note_on_c, 1, 55, 85
2, 29472, Note_on_c, 1, 55, 0
2, 29472, Note_on_c, 1, 52, 0
2, 29472, Note_on_c, 1, 45, 0
2, 29472, Note_on_c, 1, 61, 0
2, 29520, Note_on_c, 1, 61, 85
2, 29520, Note_on_c, 1, 52, 85
2, 29520, Note_on_c, 1, 45, 85
2, 29520, Note_on_c, 1, 55, 85
2, 29712, Note_on_c, 1, 55, 0
2, 29712, Note_on_c, 1, 45, 0
2, 29712, Note_on_c, 1, 52, 0
2, 29712, Note_on_c, 1, 61, 0
2, 29760, Note_on_c, 1, 62, 85
2, 29760, Note_on_c, 1, 53, 85
2, 29760, Note_on_c, 1, 38, 85
2, 29952, Note_on_c, 1, 53, 0
2, 29952, Note_on_c, 1, 62, 0
2, 30000, Note_on_c, 1, 65, 85
2, 30000, Note_on_c, 1, 57, 85
2, 30144, Note_on_c, 1, 38, 0
2, 30192, Note_on_c, 1, 57, 0
2, 30192, Note_on_c, 1, 65, 0
2, 30240, Note_on_c, 1, 62, 85
2, 30240, Note_on_c, 1, 53, 85
2, 30240, Note_on_c, 1, 50, 85
2, 30624, Note_on_c, 1, 50, 0
2, 30624, Note_on_c, 1, 53, 0
2, 30624, Note_on_c, 1, 62, 0
2, 30720, Note_on_c, 1, 65, 85
2, 30720, Note_on_c, 1, 69, 85
2, 30720, Note_on_c, 1, 62, 85
2, 30720, Note_on_c, 1, 50, 85
2, 30720, Note_on_c, 1, 57, 85
2, 31104, Note_on_c, 1, 57, 0
2, 31104, Note_on_c, 1, 50, 0
2, 31104, Note_on_c, 1, 62, 0
2, 31104, Note_on_c, 1, 69, 0
2, 31104, Note_on_c, 1, 65, 0
2, 31200, Note_on_c, 1, 62, 85
2, 31200, Note_on_c, 1, 65, 85
2, 31200, Note_on_c, 1, 69, 85
2, 31200, Note_on_c, 1, 50, 85
2, 31200, Note_on_c, 1, 57, 85
2, 31392, Note_on_c, 1, 57, 0
2, 31392, Note_on_c, 1, 50, 0
2, 31392, Note_on_c, 1, 69, 0
2, 31392, Note_on_c, 1, 65, 0
2, 31392, Note_on_c, 1, 62, 0
2, 31440, Note_on_c, 1, 64, 85
2, 31440, Note_on_c, 1, 67, 85
2, 31440, Note_on_c, 1, 62, 85
2, 31440, Note_on_c, 1, 50, 85
2, 31440, Note_on_c, 1, 57, 85
2, 31632, Note_on_c, 1, 57, 0
2, 31632, Note_on_c, 1, 50, 0
2, 31632, Note_on_c, 1, 62, 0
2, 31632, Note_on_c, 1, 67, 0
2, 31632, Note_on_c, 1, 64, 0
2, 31680, Note_on_c, 1, 69, 85
2, 31680, Note_on_c, 1, 65, 85
2, 31680, Note_on_c, 1, 62, 85
2, 31680, Note_on_c, 1, 50, 85
2, 31680, Note_on_c, 1, 57, 85
2, 32064, Note_on_c, 1, 57, 0
2, 32064, Note_on_c, 1, 50, 0
2, 32064, Note_on_c, 1, 62, 0
2, 32064, Note_on_c, 1, 65, 0
2, 32064, Note_on_c, 1, 69, 0
2, 32160, Note_on_c, 1, 67, 85
2, 32160, Note_on_c, 1, 70, 85
2, 32160, Note_on_c, 1, 62, 85
2, 32160, Note_on_c, 1, 43, 85
2, 32160, Note_on_c, 1, 55, 85
2, 32544, Note_on_c, 1, 55, 0
2, 32544, Note_on_c, 1, 43, 0
2, 32544, Note_on_c, 1, 62, 0
2, 32544, Note_on_c, 1, 70, 0
2, 32544, Note_on_c, 1, 67, 0
2, 32640, Note_on_c, 1, 69, 94
2, 32640, Note_on_c, 1, 62, 94
2, 32640, Note_on_c, 1, 41, 94
2, 32640, Note_on_c, 1, 57, 94
2, 32832, Note_on_c, 1, 57, 0
2, 32832, Note_on_c, 1, 41, 0
2, 32832, Note_on_c, 1, 62, 0
2, 32832, Note_on_c, 1, 69, 0
2, 32880, Note_on_c, 1, 64, 85
2, 32880, Note_on_c, 1, 67, 85
2, 32880, Note_on_c, 1, 58, 85
2, 32880, Note_on_c, 1, 43, 85
2, 33072, Note_on_c, 1, 43, 0
2, 33072, Note_on_c, 1, 58, 0
2, 33072, Note_on_c, 1, 67, 0
2, 33072, Note_on_c, 1, 64, 0
2, 33120, Note_on_c, 1, 65, 85
2, 33120, Note_on_c, 1, 62, 85
2, 33120, Note_on_c, 1, 45, 85
2, 33120, Note_on_c, 1, 57, 85
2, 33312, Note_on_c, 1, 57, 0
2, 33312, Note_on_c, 1, 45, 0
2, 33312, Note_on_c, 1, 62, 0
2, 33312, Note_on_c, 1, 65, 0
2, 33360, Note_on_c, 1, 64, 72
2, 33360, Note_on_c, 1, 61, 72
2, 33360, Note_on_c, 1, 45, 72
2, 33360, Note_on_c, 1, 57, 72
2, 33360, Note_on_c, 1, 55, 72
2, 33552, Note_on_c, 1, 55, 0
2, 33552, Note_on_c, 1, 57, 0
2, 33552, Note_on_c, 1, 45, 0
2, 33552, Note_on_c, 1, 61, 0
2, 33552, Note_on_c, 1, 64, 0
2, 33600, Note_on_c, 1, 62, 64
2, 33600, Note_on_c, 1, 57, 64
2, 33600, Note_on_c, 1, 53, 64
2, 33600, Note_on_c, 1, 50, 64
2, 34176, Note_on_c, 1, 50, 0
2, 34176, Note_on_c, 1, 53, 0
2, 34176, Note_on_c, 1, 57, 0
2, 34176, Note_on_c, 1, 62, 0
2, 34320, Note_on_c, 1, 64, 85
2, 34320, Note_on_c, 1, 67, 85
2, 34320, Note_on_c, 1, 58, 85
2, 34320, Note_on_c, 1, 50, 85
2, 34512, Note_on_c, 1, 50, 0
2, 34512, Note_on_c, 1, 58, 0
2, 34512, Note_on_c, 1, 67, 0
2, 34512, Note_on_c, 1, 64, 0
2, 34560, Note_on_c, 1, 65, 85
2, 34560, Note_on_c, 1, 69, 85
2, 34560, Note_on_c, 1, 57, 85
2, 34560, Note_on_c, 1, 50, 85
2, 34944, Note_on_c, 1, 50, 0
2, 34944, Note_on_c, 1, 57, 0
2, 34944, Note_on_c, 1, 69, 0
2, 34944, Note_on_c, 1, 65, 0
2, 35040, Note_on_c, 1, 60, 85
2, 35040, Note_on_c, 1, 66, 85
2, 35040, Note_on_c, 1, 74, 85
2, 35040, Note_on_c, 1, 50, 85
2, 35040, Note_on_c, 1, 57, 85
2, 35232, Note_on_c, 1, 57, 0
2, 35232, Note_on_c, 1, 50, 0
2, 35232, Note_on_c, 1, 74, 0
2, 35232, Note_on_c, 1, 66, 0
2, 35232, Note_on_c, 1, 60, 0
2, 35280, Note_on_c, 1, 72, 72
2, 35280, Note_on_c, 1, 60, 72
2, 35280, Note_on_c, 1, 66, 72
2, 35280, Note_on_c, 1, 50, 72
2, 35472, Note_on_c, 1, 50, 0
2, 35472, Note_on_c, 1, 66, 0
2, 35472, Note_on_c, 1, 60, 0
2, 35472, Note_on_c, 1, 72, 0
2, 35520, Note_on_c, 1, 67, 85
2, 35520, Note_on_c, 1, 62, 85
2, 35520, Note_on_c, 1, 70, 85
2, 35520, Note_on_c, 1, 55, 85
2, 35904, Note_on_c, 1, 55, 0
2, 35904, Note_on_c, 1, 70, 0
2, 35904, Note_on_c, 1, 62, 0
2, 35904, Note_on_c, 1, 67, 0
2, 36000, Note_on_c, 1, 65, 85
2, 36000, Note_on_c, 1, 62, 85
2, 36000, Note_on_c, 1, 69, 85
2, 36000, Note_on_c, 1, 50, 85
2, 36192, Note_on_c, 1, 50, 0
2, 36192, Note_on_c, 1, 69, 0
2, 36192, Note_on_c, 1, 62, 0
2, 36192, Note_on_c, 1, 65, 0
2, 36240, Note_on_c, 1, 70, 85
2, 36240, Note_on_c, 1, 62, 85
2, 36240, Note_on_c, 1, 67, 85
2, 36240, Note_on_c, 1, 55, 85
2, 36432, Note_on_c, 1, 55, 0
2, 36432, Note_on_c, 1, 67, 0
2, 36432, Note_on_c, 1, 62, 0
2, 36432, Note_on_c, 1, 70, 0
2, 36480, Note_on_c, 1, 69, 85
2, 36480, Note_on_c, 1, 65, 85
2, 36480, Note_on_c, 1, 62, 85
2, 36480, Note_on_c, 1, 50, 85
2, 36864, Note_on_c, 1, 50, 0
2, 36864, Note_on_c, 1, 62, 0
2, 36864, Note_on_c, 1, 65, 0
2, 36864, Note_on_c, 1, 69, 0
2, 36960, Note_on_c, 1, 64, 85
2, 36960, Note_on_c, 1, 62, 85
2, 36960, Note_on_c, 1, 58, 85
2, 36960, Note_on_c, 1, 43, 85
2, 37152, Note_on_c, 1, 43, 0
2, 37152, Note_on_c, 1, 58, 0
2, 37152, Note_on_c, 1, 62, 0
2, 37200, Note_on_c, 1, 45, 85
2, 37200, Note_on_c, 1, 61, 85
2, 37200, Note_on_c, 1, 55, 85
2, 37344, Note_on_c, 1, 64, 0
2, 37392, Note_on_c, 1, 55, 0
2, 37392, Note_on_c, 1, 61, 0
2, 37392, Note_on_c, 1, 45, 0
2, 37440, Note_on_c, 1, 62, 85
2, 37440, Note_on_c, 1, 38, 85
2, 37440, Note_on_c, 1, 53, 85
2, 37440, Note_on_c, 1, 57, 85
2, 38016, Note_on_c, 1, 57, 0
2, 38016, Note_on_c, 1, 53, 0
2, 38016, Note_on_c, 1, 38, 0
2, 38016, Note_on_c, 1, 62, 0
2, 38400, Note_on_c, 1, 58, 85
2, 38400, Note_on_c, 1, 64, 85
2, 38400, Note_on_c, 1, 48, 85
2, 38592, Note_on_c, 1, 64, 0
2, 38592, Note_on_c, 1, 58, 0
2, 38640, Note_on_c, 1, 60, 85
2, 38784, Note_on_c, 1, 48, 0
2, 38832, Note_on_c, 1, 60, 0
2, 38880, Note_on_c, 1, 65, 85
2, 38880, Note_on_c, 1, 57, 85
2, 38880, Note_on_c, 1, 41, 85
2, 39072, Note_on_c, 1, 57, 0
2, 39072, Note_on_c, 1, 65, 0
2, 39120, Note_on_c, 1, 60, 94
2, 39264, Note_on_c, 1, 41, 0
2, 39312, Note_on_c, 1, 60, 0
2, 39360, Note_on_c, 1, 58, 94
2, 39360, Note_on_c, 1, 64, 94
2, 39360, Note_on_c, 1, 67, 94
2, 39360, Note_on_c, 1, 48, 85
2, 39552, Note_on_c, 1, 67, 0
2, 39552, Note_on_c, 1, 64, 0
2, 39552, Note_on_c, 1, 58, 0
2, 39600, Note_on_c, 1, 60, 94
2, 39744, Note_on_c, 1, 48, 0
2, 39792, Note_on_c, 1, 60, 0
2, 39840, Note_on_c, 1, 57, 94
2, 39840, Note_on_c, 1, 65, 94
2, 39840, Note_on_c, 1, 69, 94
2, 39840, Note_on_c, 1, 41, 85
2, 39840, Note_on_c, 1, 53, 85
2, 40032, Note_on_c, 1, 65, 0
2, 40032, Note_on_c, 1, 57, 0
2, 40080, Note_on_c, 1, 63, 94
2, 40224, Note_on_c, 1, 53, 0
2, 40224, Note_on_c, 1, 41, 0
2, 40224, Note_on_c, 1, 69, 0
2, 40272, Note_on_c, 1, 63, 0
2, 40320, Note_on_c, 1, 70, 94
2, 40320, Note_on_c, 1, 62, 94
2, 40320, Note_on_c, 1, 46, 85
2, 40320, Note_on_c, 1, 53, 85
2, 40704, Note_on_c, 1, 53, 0
2, 40704, Note_on_c, 1, 46, 0
2, 40704, Note_on_c, 1, 62, 0
2, 40704, Note_on_c, 1, 70, 0
2, 40800, Note_on_c, 1, 62, 94
2, 40800, Note_on_c, 1, 65, 94
2, 40800, Note_on_c, 1, 46, 85
2, 40800, Note_on_c, 1, 53, 85
2, 40992, Note_on_c, 1, 53, 0
2, 40992, Note_on_c, 1, 46, 0
2, 40992, Note_on_c, 1, 65, 0
2, 40992, Note_on_c, 1, 62, 0
2, 41040, Note_on_c, 1, 61, 94
2, 41040, Note_on_c, 1, 67, 94
2, 41040, Note_on_c, 1, 46, 85
2, 41040, Note_on_c, 1, 53, 85
2, 41232, Note_on_c, 1, 53, 0
2, 41232, Note_on_c, 1, 46, 0
2, 41232, Note_on_c, 1, 67, 0
2, 41232, Note_on_c, 1, 61, 0
2, 41280, Note_on_c, 1, 60, 94
2, 41280, Note_on_c, 1, 69, 94
2, 41280, Note_on_c, 1, 41, 85
2, 41280, Note_on_c, 1, 53, 85
2, 41664, Note_on_c, 1, 69, 0
2, 41664, Note_on_c, 1, 60, 0
2, 41760, Note_on_c, 1, 65, 85
2, 41760, Note_on_c, 1, 57, 85
2, 41952, Note_on_c, 1, 57, 0
2, 41952, Note_on_c, 1, 65, 0
2, 42000, Note_on_c, 1, 60, 85
2, 42048, Note_on_c, 1, 53, 0
2, 42048, Note_on_c, 1, 41, 0
2, 42192, Note_on_c, 1, 60, 0
2, 42240, Note_on_c, 1, 55, 85
2, 42240, Note_on_c, 1, 61, 85
2, 42240, Note_on_c, 1, 45, 85
2, 42432, Note_on_c, 1, 61, 0
2, 42432, Note_on_c, 1, 55, 0
2, 42480, Note_on_c, 1, 57, 85
2, 42624, Note_on_c, 1, 45, 0
2, 42672, Note_on_c, 1, 57, 0
2, 42720, Note_on_c, 1, 62, 85
2, 42720, Note_on_c, 1, 50, 85
2, 42720, Note_on_c, 1, 53, 85
2, 42912, Note_on_c, 1, 53, 0
2, 42912, Note_on_c, 1, 62, 0
2, 42960, Note_on_c, 1, 57, 85
2, 43104, Note_on_c, 1, 50, 0
2, 43152, Note_on_c, 1, 57, 0
2, 43200, Note_on_c, 1, 64, 85
2, 43200, Note_on_c, 1, 61, 85
2, 43200, Note_on_c, 1, 45, 85
2, 43200, Note_on_c, 1, 55, 85
2, 43392, Note_on_c, 1, 55, 0
2, 43392, Note_on_c, 1, 61, 0
2, 43392, Note_on_c, 1, 64, 0
2, 43440, Note_on_c, 1, 57, 85
2, 43584, Note_on_c, 1, 45, 0
2, 43632, Note_on_c, 1, 57, 0
2, 43680, Note_on_c, 1, 65, 85
2, 43680, Note_on_c, 1, 62, 85
2, 43680, Note_on_c, 1, 38, 85
2, 43680, Note_on_c, 1, 53, 85
2, 43680, Note_on_c, 1, 50, 85
2, 43872, Note_on_c, 1, 53, 0
2, 43872, Note_on_c, 1, 62, 0
2, 43872, Note_on_c, 1, 65, 0
2, 43920, Note_on_c, 1, 57, 85
2, 44064, Note_on_c, 1, 50, 0
2, 44064, Note_on_c, 1, 38, 0
2, 44112, Note_on_c, 1, 57, 0
2, 44160, Note_on_c, 1, 58, 85
2, 44160, Note_on_c, 1, 64, 85
2, 44160, Note_on_c, 1, 43, 85
2, 44160, Note_on_c, 1, 55, 85
2, 44544, Note_on_c, 1, 55, 0
2, 44544, Note_on_c, 1, 43, 0
2, 44544, Note_on_c, 1, 64, 0
2, 44544, Note_on_c, 1, 58, 0
2, 44640, Note_on_c, 1, 61, 85
2, 44640, Note_on_c, 1, 45, 85
2, 44640, Note_on_c, 1, 52, 85
2, 44640, Note_on_c, 1, 55, 85
2, 44832, Note_on_c, 1, 55, 0
2, 44832, Note_on_c, 1, 52, 0
2, 44832, Note_on_c, 1, 45, 0
2, 44832, Note_on_c, 1, 61, 0
2, 44880, Note_on_c, 1, 61, 85
2, 44880, Note_on_c, 1, 52, 85
2, 44880, Note_on_c, 1, 45, 85
2, 44880, Note_on_c, 1, 55, 85
2, 45072, Note_on_c, 1, 55, 0
2, 45072, Note_on_c, 1, 45, 0
2, 45072, Note_on_c, 1, 52, 0
2, 45072, Note_on_c, 1, 61, 0
2, 45120, Note_on_c, 1, 62, 85
2, 45120, Note_on_c, 1, 53, 85
2, 45120, Note_on_c, 1, 38, 85
2, 45312, Note_on_c, 1, 53, 0
2, 45312, Note_on_c, 1, 62, 0
2, 45360, Note_on_c, 1, 65, 85
2, 45360, Note_on_c, 1, 57, 85
2, 45504, Note_on_c, 1, 38, 0
2, 45552, Note_on_c, 1, 57, 0
2, 45552, Note_on_c, 1, 65, 0
2, 45600, Note_on_c, 1, 62, 85
2, 45600, Note_on_c, 1, 53, 85
2, 45600, Note_on_c, 1, 50, 85
2, 45984, Note_on_c, 1, 50, 0
2, 45984, Note_on_c, 1, 53, 0
2, 45984, Note_on_c, 1, 62, 0
2, 46080, End_track
3, 0, Start_track
3, 0, Control_c, 0, 0, 0
3, 0, Control_c, 0, 32, 0
3, 0, Program_c, 0, 53
3, 0, Control_c, 0, 7, 127
3, 0, Control_c, 0, 1, 0
3, 0, Control_c, 0, 10, 64
3, 0, Control_c, 0, 91, 0
3, 0, Control_c, 0, 93, 0
3, 0, Title_t, "Voice"
3, 0, Note_on_c, 0, 69, 94
3, 384, Note_on_c, 0, 69, 0
3, 480, Note_on_c, 0, 69, 94
3, 672, Note_on_c, 0, 69, 0
3, 720, Note_on_c, 0, 67, 94
3, 912, Note_on_c, 0, 67, 0
3, 960, Note_on_c, 0, 69, 94
3, 1344, Note_on_c, 0, 69, 0
3, 1440, Note_on_c, 0, 70, 94
3, 1632, Note_on_c, 0, 70, 0
3, 1680, Note_on_c, 0, 70, 94
3, 1872, Note_on_c, 0, 70, 0
3, 1920, Note_on_c, 0, 69, 100
3, 2112, Note_on_c, 0, 69, 0
3, 2160, Note_on_c, 0, 67, 94
3, 2352, Note_on_c, 0, 67, 0
3, 2400, Note_on_c, 0, 65, 85
3, 2592, Note_on_c, 0, 65, 0
3, 2640, Note_on_c, 0, 64, 72
3, 2832, Note_on_c, 0, 64, 0
3, 2880, Note_on_c, 0, 65, 72
3, 3456, Note_on_c, 0, 65, 0
3, 3600, Note_on_c, 0, 67, 94
3, 3792, Note_on_c, 0, 67, 0
3, 3840, Note_on_c, 0, 69, 94
3, 4224, Note_on_c, 0, 69, 0
3, 4320, Note_on_c, 0, 74, 94
3, 4512, Note_on_c, 0, 74, 0
3, 4560, Note_on_c, 0, 72, 85
3, 4752, Note_on_c, 0, 72, 0
3, 4800, Note_on_c, 0, 72, 94
3, 4992, Note_on_c, 0, 72, 0
3, 5040, Note_on_c, 0, 70, 94
3, 5232, Note_on_c, 0, 70, 0
3, 5280, Note_on_c, 0, 69, 94
3, 5472, Note_on_c, 0, 69, 0
3, 5520, Note_on_c, 0, 70, 94
3, 5712, Note_on_c, 0, 70, 0
3, 5760, Note_on_c, 0, 69, 94
3, 5952, Note_on_c, 0, 69, 0
3, 6000, Note_on_c, 0, 67, 94
3, 6096, Note_on_c, 0, 67, 0
3, 6120, Note_on_c, 0, 65, 94
3, 6216, Note_on_c, 0, 65, 0
3, 6240, Note_on_c, 0, 64, 94
3, 6432, Note_on_c, 0, 64, 0
3, 6480, Note_on_c, 0, 65, 94
3, 6672, Note_on_c, 0, 65, 0
3, 6720, Note_on_c, 0, 62, 94
3, 6912, Note_on_c, 0, 62, 0
3, 6960, Note_on_c, 0, 65, 94
3, 7056, Note_on_c, 0, 65, 0
3, 7080, Note_on_c, 0, 64, 94
3, 7176, Note_on_c, 0, 64, 0
3, 7200, Note_on_c, 0, 62, 94
3, 7584, Note_on_c, 0, 62, 0
3, 7680, Note_on_c, 0, 64, 94
3, 8064, Note_on_c, 0, 64, 0
3, 8160, Note_on_c, 0, 65, 94
3, 8352, Note_on_c, 0, 65, 0
3, 8400, Note_on_c, 0, 65, 94
3, 8592, Note_on_c, 0, 65, 0
3, 8640, Note_on_c, 0, 67, 94
3, 8832, Note_on_c, 0, 67, 0
3, 8880, Note_on_c, 0, 65, 100
3, 8976, Note_on_c, 0, 65, 0
3, 9000, Note_on_c, 0, 67, 114
3, 9096, Note_on_c, 0, 67, 0
3, 9120, Note_on_c, 0, 69, 114
3, 9312, Note_on_c, 0, 69, 0
3, 9600, Note_on_c, 0, 70, 114
3, 9696, Note_on_c, 0, 70, 0
3, 9720, Note_on_c, 0, 69, 100
3, 9912, Note_on_c, 0, 69, 0
3, 9960, Note_on_c, 0, 67, 94
3, 10056, Note_on_c, 0, 67, 0
3, 10080, Note_on_c, 0, 65, 94
3, 10272, Note_on_c, 0, 65, 0
3, 10320, Note_on_c, 0, 67, 94
3, 10512, Note_on_c, 0, 67, 0
3, 10560, Note_on_c, 0, 69, 94
3, 10944, Note_on_c, 0, 69, 0
3, 11040, Note_on_c, 0, 69, 94
3, 11232, Note_on_c, 0, 69, 0
3, 11520, Note_on_c, 0, 61, 94
3, 11904, Note_on_c, 0, 61, 0
3, 12000, Note_on_c, 0, 62, 94
3, 12192, Note_on_c, 0, 62, 0
3, 12240, Note_on_c, 0, 62, 94
3, 12432, Note_on_c, 0, 62, 0
3, 12480, Note_on_c, 0, 64, 94
3, 12672, Note_on_c, 0, 64, 0
3, 12720, Note_on_c, 0, 62, 94
3, 12816, Note_on_c, 0, 62, 0
3, 12840, Note_on_c, 0, 64, 100
3, 12936, Note_on_c, 0, 64, 0
3, 12960, Note_on_c, 0, 65, 114
3, 13152, Note_on_c, 0, 65, 0
3, 13440, Note_on_c, 0, 69, 114
3, 13536, Note_on_c, 0, 69, 0
3, 13560, Note_on_c, 0, 67, 100
3, 13752, Note_on_c, 0, 67, 0
3, 13800, Note_on_c, 0, 65, 94
3, 13896, Note_on_c, 0, 65, 0
3, 13920, Note_on_c, 0, 64, 85
3, 14112, Note_on_c, 0, 64, 0
3, 14160, Note_on_c, 0, 65, 72
3, 14352, Note_on_c, 0, 65, 0
3, 14400, Note_on_c, 0, 62, 94
3, 14784, Note_on_c, 0, 62, 0
3, 14880, Note_on_c, 0, 74, 94
3, 15072, Note_on_c, 0, 74, 0
3, 15360, Note_on_c, 0, 69, 94
3, 15744, Note_on_c, 0, 69, 0
3, 15840, Note_on_c, 0, 69, 94
3, 16032, Note_on_c, 0, 69, 0
3, 16080, Note_on_c, 0, 67, 94
3, 16272, Note_on_c, 0, 67, 0
3, 16320, Note_on_c, 0, 69, 94
3, 16704, Note_on_c, 0, 69, 0
3, 16800, Note_on_c, 0, 70, 94
3, 16992, Note_on_c, 0, 70, 0
3, 17040, Note_on_c, 0, 70, 94
3, 17232, Note_on_c, 0, 70, 0
3, 17280, Note_on_c, 0, 69, 100
3, 17472, Note_on_c, 0, 69, 0
3, 17520, Note_on_c, 0, 67, 94
3, 17712, Note_on_c, 0, 67, 0
3, 17760, Note_on_c, 0, 65, 85
3, 17952, Note_on_c, 0, 65, 0
3, 18000, Note_on_c, 0, 64, 72
3, 18192, Note_on_c, 0, 64, 0
3, 18240, Note_on_c, 0, 65, 72
3, 18816, Note_on_c, 0, 65, 0
3, 18960, Note_on_c, 0, 67, 94
3, 19152, Note_on_c, 0, 67, 0
3, 19200, Note_on_c, 0, 69, 94
3, 19584, Note_on_c, 0, 69, 0
3, 19680, Note_on_c, 0, 74, 94
3, 19872, Note_on_c, 0, 74, 0
3, 19920, Note_on_c, 0, 72, 85
3, 20112, Note_on_c, 0, 72, 0
3, 20160, Note_on_c, 0, 72, 94
3, 20352, Note_on_c, 0, 72, 0
3, 20400, Note_on_c, 0, 70, 94
3, 20592, Note_on_c, 0, 70, 0
3, 20640, Note_on_c, 0, 69, 94
3, 20832, Note_on_c, 0, 69, 0
3, 20880, Note_on_c, 0, 70, 94
3, 21072, Note_on_c, 0, 70, 0
3, 21120, Note_on_c, 0, 69, 94
3, 21312, Note_on_c, 0, 69, 0
3, 21360, Note_on_c, 0, 67, 94
3, 21456, Note_on_c, 0, 67, 0
3, 21480, Note_on_c, 0, 65, 94
3, 21576, Note_on_c, 0, 65, 0
3, 21600, Note_on_c, 0, 64, 94
3, 21792, Note_on_c, 0, 64, 0
3, 21840, Note_on_c, 0, 65, 94
3, 22032, Note_on_c, 0, 65, 0
3, 22080, Note_on_c, 0, 62, 94
3, 22272, Note_on_c, 0, 62, 0
3, 22320, Note_on_c, 0, 65, 94
3, 22416, Note_on_c, 0, 65, 0
3, 22440, Note_on_c, 0, 64, 94
3, 22536, Note_on_c, 0, 64, 0
3, 22560, Note_on_c, 0, 62, 94
3, 22944, Note_on_c, 0, 62, 0
3, 23040, Note_on_c, 0, 64, 94
3, 23424, Note_on_c, 0, 64, 0
3, 23520, Note_on_c, 0, 65, 94
3, 23712, Note_on_c, 0, 65, 0
3, 23760, Note_on_c, 0, 65, 94
3, 23952, Note_on_c, 0, 65, 0
3, 24000, Note_on_c, 0, 67, 94
3, 24192, Note_on_c, 0, 67, 0
3, 24240, Note_on_c, 0, 65, 100
3, 24336, Note_on_c, 0, 65, 0
3, 24360, Note_on_c, 0, 67, 114
3, 24456, Note_on_c, 0, 67, 0
3, 24480, Note_on_c, 0, 69, 114
3, 24672, Note_on_c, 0, 69, 0
3, 24960, Note_on_c, 0, 70, 114
3, 25056, Note_on_c, 0, 70, 0
3, 25080, Note_on_c, 0, 69, 100
3, 25272, Note_on_c, 0, 69, 0
3, 25320, Note_on_c, 0, 67, 94
3, 25416, Note_on_c, 0, 67, 0
3, 25440, Note_on_c, 0, 65, 94
3, 25632, Note_on_c, 0, 65, 0
3, 25680, Note_on_c, 0, 67, 94
3, 25872, Note_on_c, 0, 67, 0
3, 25920, Note_on_c, 0, 69, 94
3, 26304, Note_on_c, 0, 69, 0
3, 26400, Note_on_c, 0, 69, 94
3, 26592, Note_on_c, 0, 69, 0
3, 26880, Note_on_c, 0, 61, 94
3, 27264, Note_on_c, 0, 61, 0
3, 27360, Note_on_c, 0, 62, 94
3, 27552, Note_on_c, 0, 62, 0
3, 27600, Note_on_c, 0, 62, 94
3, 27792, Note_on_c, 0, 62, 0
3, 27840, Note_on_c, 0, 64, 94
3, 28032, Note_on_c, 0, 64, 0
3, 28080, Note_on_c, 0, 62, 94
3, 28176, Note_on_c, 0, 62, 0
3, 28200, Note_on_c, 0, 64, 100
3, 28296, Note_on_c, 0, 64, 0
3, 28320, Note_on_c, 0, 65, 114
3, 28512, Note_on_c, 0, 65, 0
3, 28800, Note_on_c, 0, 69, 114
3, 28896, Note_on_c, 0, 69, 0
3, 28920, Note_on_c, 0, 67, 100
3, 29112, Note_on_c, 0, 67, 0
3, 29160, Note_on_c, 0, 65, 94
3, 29256, Note_on_c, 0, 65, 0
3, 29280, Note_on_c, 0, 64, 85
3, 29472, Note_on_c, 0, 64, 0
3, 29520, Note_on_c, 0, 65, 72
3, 29712, Note_on_c, 0, 65, 0
3, 29760, Note_on_c, 0, 62, 94
3, 30144, Note_on_c, 0, 62, 0
3, 30240, Note_on_c, 0, 74, 94
3, 30432, Note_on_c, 0, 74, 0
3, 30720, Note_on_c, 0, 69, 94
3, 31104, Note_on_c, 0, 69, 0
3, 31200, Note_on_c, 0, 69, 94
3, 31392, Note_on_c, 0, 69, 0
3, 31440, Note_on_c, 0, 67, 94
3, 31632, Note_on_c, 0, 67, 0
3, 31680, Note_on_c, 0, 69, 94
3, 32064, Note_on_c, 0, 69, 0
3, 32160, Note_on_c, 0, 70, 94
3, 32352, Note_on_c, 0, 70, 0
3, 32400, Note_on_c, 0, 70, 94
3, 32592, Note_on_c, 0, 70, 0
3, 32640, Note_on_c, 0, 69, 100
3, 32832, Note_on_c, 0, 69, 0
3, 32880, Note_on_c, 0, 67, 94
3, 33072, Note_on_c, 0, 67, 0
3, 33120, Note_on_c, 0, 65, 85
3, 33312, Note_on_c, 0, 65, 0
3, 33360, Note_on_c, 0, 64, 72
3, 33552, Note_on_c, 0, 64, 0
3, 33600, Note_on_c, 0, 65, 72
3, 34176, Note_on_c, 0, 65, 0
3, 34320, Note_on_c, 0, 67, 94
3, 34512, Note_on_c, 0, 67, 0
3, 34560, Note_on_c, 0, 69, 94
3, 34944, Note_on_c, 0, 69, 0
3, 35040, Note_on_c, 0, 74, 94
3, 35232, Note_on_c, 0, 74, 0
3, 35280, Note_on_c, 0, 72, 85
3, 35472, Note_on_c, 0, 72, 0
3, 35520, Note_on_c, 0, 72, 94
3, 35712, Note_on_c, 0, 72, 0
3, 35760, Note_on_c, 0, 70, 94
3, 35952, Note_on_c, 0, 70, 0
3, 36000, Note_on_c, 0, 69, 94
3, 36192, Note_on_c, 0, 69, 0
3, 36240, Note_on_c, 0, 70, 94
3, 36432, Note_on_c, 0, 70, 0
3, 36480, Note_on_c, 0, 69, 94
3, 36672, Note_on_c, 0, 69, 0
3, 36720, Note_on_c, 0, 67, 94
3, 36816, Note_on_c, 0, 67, 0
3, 36840, Note_on_c, 0, 65, 94
3, 36936, Note_on_c, 0, 65, 0
3, 36960, Note_on_c, 0, 64, 94
3, 37152, Note_on_c, 0, 64, 0
3, 37200, Note_on_c, 0, 65, 94
3, 37392, Note_on_c, 0, 65, 0
3, 37440, Note_on_c, 0, 62, 94
3, 37632, Note_on_c, 0, 62, 0
3, 37680, Note_on_c, 0, 65, 94
3, 37776, Note_on_c, 0, 65, 0
3, 37800, Note_on_c, 0, 64, 94
3, 37896, Note_on_c, 0, 64, 0
3, 37920, Note_on_c, 0, 62, 94
3, 38304, Note_on_c, 0, 62, 0
3, 38400, Note_on_c, 0, 64, 94
3, 38784, Note_on_c, 0, 64, 0
3, 38880, Note_on_c, 0, 65, 94
3, 39072, Note_on_c, 0, 65, 0
3, 39120, Note_on_c, 0, 65, 94
3, 39312, Note_on_c, 0, 65, 0
3, 39360, Note_on_c, 0, 67, 94
3, 39552, Note_on_c, 0, 67, 0
3, 39600, Note_on_c, 0, 65, 100
3, 39696, Note_on_c, 0, 65, 0
3, 39720, Note_on_c, 0, 67, 114
3, 39816, Note_on_c, 0, 67, 0
3, 39840, Note_on_c, 0, 69, 114
3, 40032, Note_on_c, 0, 69, 0
3, 40320, Note_on_c, 0, 70, 114
3, 40416, Note_on_c, 0, 70, 0
3, 40440, Note_on_c, 0, 69, 100
3, 40632, Note_on_c, 0, 69, 0
3, 40680, Note_on_c, 0, 67, 94
3, 40776, Note_on_c, 0, 67, 0
3, 40800, Note_on_c, 0, 65, 94
3, 40992, Note_on_c, 0, 65, 0
3, 41040, Note_on_c, 0, 67, 94
3, 41232, Note_on_c, 0, 67, 0
3, 41280, Note_on_c, 0, 69, 94
3, 41664, Note_on_c, 0, 69, 0
3, 41760, Note_on_c, 0, 69, 94
3, 41952, Note_on_c, 0, 69, 0
3, 42240, Note_on_c, 0, 61, 94
3, 42624, Note_on_c, 0, 61, 0
3, 42720, Note_on_c, 0, 62, 94
3, 42912, Note_on_c, 0, 62, 0
3, 42960, Note_on_c, 0, 62, 94
3, 43152, Note_on_c, 0, 62, 0
3, 43200, Note_on_c, 0, 64, 94
3, 43392, Note_on_c, 0, 64, 0
3, 43440, Note_on_c, 0, 62, 94
3, 43536, Note_on_c, 0, 62, 0
3, 43560, Note_on_c, 0, 64, 100
3, 43656, Note_on_c, 0, 64, 0
3, 43680, Note_on_c, 0, 65, 114
3, 43872, Note_on_c, 0, 65, 0
3, 44160, Note_on_c, 0, 69, 114
3, 44256, Note_on_c, 0, 69, 0
3, 44280, Note_on_c, 0, 67, 100
3, 44472, Note_on_c, 0, 67, 0
3, 44520, Note_on_c, 0, 65, 94
3, 44616, Note_on_c, 0, 65, 0
3, 44640, Note_on_c, 0, 64, 85
3, 44832, Note_on_c, 0, 64, 0
3, 44880, Note_on_c, 0, 65, 72
3, 45072, Note_on_c, 0, 65, 0
3, 45120, Note_on_c, 0, 62, 94
3, 45504, Note_on_c, 0, 62, 0
3, 45600, Note_on_c, 0, 74, 94
3, 45792, Note_on_c, 0, 74, 0
3, 46080, End_track
0, 0, End_of_file