0, 0, Header, 1, 8, 120
1, 0, Start_track
1, 0, Sequencer_specific, 03, 00, 00, 41
1, 0, Sequencer_specific, 03, 00, 00, 41
1, 0, Time_signature, 3, 2, 24, 8
1, 0, Key_signature, 0, "major"
1, 0, Tempo, 301507
1, 17640, Tempo, 322580
1, 19082, Tempo, 333333
1, 21958, Tempo, 333333
1, 23160, Tempo, 335195
1, 23166, Tempo, 337078
1, 23168, Tempo, 338983
1, 23188, Tempo, 342857
1, 23196, Tempo, 344827
1, 23200, Tempo, 346820
1, 23208, Tempo, 350877
1, 23232, Tempo, 355029
1, 23248, Tempo, 359281
1, 23256, Tempo, 363636
1, 23282, Tempo, 368098
1, 23296, Tempo, 370370
1, 23300, Tempo, 372670
1, 23444, Tempo, 375000
1, 23482, Tempo, 372670
1, 23486, Tempo, 370370
1, 23490, Tempo, 368098
1, 23492, Tempo, 365853
1, 23498, Tempo, 361445
1, 23502, Tempo, 357142
1, 23506, Tempo, 355029
1, 23508, Tempo, 352941
1, 23512, Tempo, 350877
1, 23514, Tempo, 348837
1, 23518, Tempo, 346820
1, 23520, Tempo, 344827
1, 25558, Tempo, 344827
1, 25602, Tempo, 346820
1, 25604, Tempo, 348837
1, 25628, Tempo, 350877
1, 25640, Tempo, 352941
1, 25666, Tempo, 355029
1, 25672, Tempo, 357142
1, 25694, Tempo, 359281
1, 25702, Tempo, 361445
1, 25722, Tempo, 363636
1, 25724, Tempo, 365853
1, 25744, Tempo, 368098
1, 25752, Tempo, 370370
1, 25770, Tempo, 372670
1, 25772, Tempo, 375000
1, 26042, Tempo, 372670
1, 26050, Tempo, 370370
1, 26052, Tempo, 368098
1, 26076, Tempo, 365853
1, 26080, Tempo, 363636
1, 26102, Tempo, 359281
1, 26126, Tempo, 357142
1, 26138, Tempo, 355029
1, 26154, Tempo, 352941
1, 26158, Tempo, 350877
1, 26170, Tempo, 348837
1, 26172, Tempo, 346820
1, 26184, Tempo, 344827
1, 26186, Tempo, 342857
1, 26200, Tempo, 340909
1, 26202, Tempo, 338983
1, 26212, Tempo, 335195
1, 26226, Tempo, 333333
1, 26232, Tempo, 331491
1, 26246, Tempo, 329670
1, 26248, Tempo, 327868
1, 26266, Tempo, 326086
1, 26274, Tempo, 324324
1, 44280, Tempo, 317460
1, 44642, Tempo, 307692
1, 45358, Tempo, 301507
1, 45718, Tempo, 294117
1, 46080, Tempo, 285714
1, 46442, Tempo, 298507
1, 46798, Tempo, 312500
1, 47158, Tempo, 326086
1, 47520, Tempo, 344827
1, 47880, Tempo, 368098
1, 48238, Tempo, 370370
1, 48240, Tempo, 368098
1, 48244, Tempo, 370370
1, 48246, Tempo, 372670
1, 48254, Tempo, 377358
1, 48266, Tempo, 382165
1, 48282, Tempo, 387096
1, 48298, Tempo, 402684
1, 48318, Tempo, 419580
1, 48334, Tempo, 425531
1, 48350, Tempo, 444444
1, 48362, Tempo, 465116
1, 48378, Tempo, 472440
1, 48390, Tempo, 480000
1, 48394, Tempo, 487804
1, 48406, Tempo, 495867
1, 48418, Tempo, 504201
1, 48422, Tempo, 512820
1, 48438, Tempo, 521739
1, 48450, Tempo, 550458
1, 48466, Tempo, 582524
1, 48478, Tempo, 594059
1, 48482, Tempo, 606060
1, 48486, Tempo, 612244
1, 48488, Tempo, 618556
1, 48500, Tempo, 631578
1, 48504, Tempo, 638297
1, 48508, Tempo, 645161
1, 48512, Tempo, 652173
1, 48516, Tempo, 659340
1, 48520, Tempo, 674157
1, 48528, Tempo, 689655
1, 48532, Tempo, 697674
1, 48536, Tempo, 705882
1, 48550, Tempo, 722891
1, 48556, Tempo, 740740
1, 48564, Tempo, 759493
1, 48578, Tempo, 779220
1, 48582, Tempo, 789473
1, 48584, Tempo, 800000
1, 48588, Tempo, 810810
1, 48592, Tempo, 821917
1, 48598, Tempo, 833333
1, 48600, Tempo, 845070
1, 48600, End_track
2, 0, Start_track
2, 0, MIDI_port, 0
2, 0, Title_t, "Piano"
2, 0, Program_c, 0, 0
2, 0, Control_c, 0, 7, 110
2, 0, Control_c, 0, 10, 64
2, 244, Control_c, 0, 121, 0
2, 244, Control_c, 0, 0, 0
2, 244, Program_c, 0, 0
2, 244, Control_c, 0, 91, 30
2, 244, Control_c, 0, 93, 5
2, 244, Control_c, 0, 7, 110
2, 244, Note_on_c, 0, 69, 127
2, 363, Control_c, 0, 64, 127
2, 365, Note_on_c, 0, 50, 112
2, 367, Note_on_c, 0, 66, 122
2, 374, Note_on_c, 0, 69, 0
2, 422, Note_on_c, 0, 73, 121
2, 426, Note_on_c, 0, 66, 0
2, 453, Note_on_c, 0, 73, 0
2, 470, Note_on_c, 0, 62, 99
2, 470, Note_on_c, 0, 57, 104
2, 470, Note_on_c, 0, 54, 102
2, 470, Note_on_c, 0, 50, 0
2, 476, Note_on_c, 0, 74, 127
2, 479, Note_on_c, 0, 54, 0
2, 479, Note_on_c, 0, 57, 0
2, 480, Note_on_c, 0, 62, 0
2, 514, Control_c, 0, 64, 0
2, 541, Note_on_c, 0, 76, 117
2, 553, Note_on_c, 0, 74, 0
2, 581, Note_on_c, 0, 78, 127
2, 581, Note_on_c, 0, 62, 101
2, 581, Note_on_c, 0, 57, 109
2, 581, Note_on_c, 0, 54, 113
2, 590, Note_on_c, 0, 54, 0
2, 591, Note_on_c, 0, 62, 0
2, 591, Note_on_c, 0, 57, 0
2, 592, Note_on_c, 0, 76, 0
2, 618, Note_on_c, 0, 78, 0
2, 639, Note_on_c, 0, 79, 116
2, 665, Note_on_c, 0, 79, 0
2, 694, Note_on_c, 0, 78, 117
2, 694, Note_on_c, 0, 45, 114
2, 697, Control_c, 0, 64, 127
2, 706, Note_on_c, 0, 45, 0
2, 718, Note_on_c, 0, 79, 99
2, 723, Note_on_c, 0, 78, 0
2, 740, Note_on_c, 0, 78, 127
2, 755, Note_on_c, 0, 79, 0
2, 816, Note_on_c, 0, 57, 101
2, 818, Note_on_c, 0, 52, 98
2, 819, Note_on_c, 0, 76, 126
2, 819, Note_on_c, 0, 61, 93
2, 827, Note_on_c, 0, 57, 0
2, 828, Note_on_c, 0, 52, 0
2, 829, Note_on_c, 0, 61, 0
2, 848, Note_on_c, 0, 78, 0
2, 851, Control_c, 0, 64, 0
2, 877, Note_on_c, 0, 74, 127
2, 891, Note_on_c, 0, 76, 0
2, 936, Note_on_c, 0, 73, 127
2, 938, Note_on_c, 0, 61, 105
2, 941, Note_on_c, 0, 52, 100
2, 941, Note_on_c, 0, 57, 100
2, 950, Note_on_c, 0, 61, 0
2, 950, Note_on_c, 0, 74, 0
2, 953, Note_on_c, 0, 57, 0
2, 960, Note_on_c, 0, 52, 0
2, 992, Note_on_c, 0, 71, 111
2, 994, Note_on_c, 0, 73, 0
2, 1058, Note_on_c, 0, 69, 123
2, 1061, Note_on_c, 0, 38, 109
2, 1061, Note_on_c, 0, 71, 0
2, 1071, Control_c, 0, 64, 127
2, 1089, Note_on_c, 0, 38, 0
2, 1125, Note_on_c, 0, 74, 127
2, 1143, Note_on_c, 0, 69, 0
2, 1156, Note_on_c, 0, 74, 0
2, 1183, Note_on_c, 0, 74, 119
2, 1183, Note_on_c, 0, 62, 127
2, 1183, Note_on_c, 0, 57, 105
2, 1183, Note_on_c, 0, 50, 89
2, 1192, Note_on_c, 0, 50, 0
2, 1192, Note_on_c, 0, 57, 0
2, 1211, Note_on_c, 0, 76, 114
2, 1212, Note_on_c, 0, 62, 0
2, 1212, Note_on_c, 0, 74, 0
2, 1234, Note_on_c, 0, 74, 119
2, 1248, Note_on_c, 0, 76, 0
2, 1281, Note_on_c, 0, 73, 127
2, 1284, Note_on_c, 0, 57, 110
2, 1284, Note_on_c, 0, 62, 108
2, 1284, Note_on_c, 0, 50, 111
2, 1291, Note_on_c, 0, 62, 0
2, 1293, Control_c, 0, 64, 0
2, 1293, Note_on_c, 0, 57, 0
2, 1294, Note_on_c, 0, 50, 0
2, 1294, Note_on_c, 0, 74, 0
2, 1350, Note_on_c, 0, 71, 116
2, 1350, Note_on_c, 0, 73, 0
2, 1416, Note_on_c, 0, 73, 121
2, 1421, Note_on_c, 0, 45, 111
2, 1431, Note_on_c, 0, 71, 0
2, 1437, Control_c, 0, 64, 127
2, 1458, Note_on_c, 0, 45, 0
2, 1542, Note_on_c, 0, 57, 94
2, 1542, Note_on_c, 0, 64, 111
2, 1542, Note_on_c, 0, 69, 111
2, 1571, Note_on_c, 0, 69, 0
2, 1571, Note_on_c, 0, 64, 0
2, 1571, Note_on_c, 0, 57, 0
2, 1660, Note_on_c, 0, 67, 102
2, 1660, Note_on_c, 0, 69, 122
2, 1660, Note_on_c, 0, 64, 94
2, 1663, Note_on_c, 0, 57, 106
2, 1673, Note_on_c, 0, 73, 0
2, 1719, Note_on_c, 0, 64, 0
2, 1719, Note_on_c, 0, 67, 0
2, 1722, Note_on_c, 0, 57, 0
2, 1779, Note_on_c, 0, 69, 0
2, 1800, Note_on_c, 0, 69, 126
2, 1803, Note_on_c, 0, 50, 122
2, 1812, Control_c, 0, 64, 0
2, 1834, Control_c, 0, 64, 127
2, 1867, Note_on_c, 0, 73, 127
2, 1876, Note_on_c, 0, 69, 0
2, 1897, Note_on_c, 0, 50, 0
2, 1917, Note_on_c, 0, 73, 0
2, 1920, Note_on_c, 0, 62, 107
2, 1920, Note_on_c, 0, 54, 106
2, 1922, Note_on_c, 0, 57, 106
2, 1922, Note_on_c, 0, 74, 127
2, 1931, Note_on_c, 0, 57, 0
2, 1931, Note_on_c, 0, 62, 0
2, 1931, Note_on_c, 0, 54, 0
2, 1952, Control_c, 0, 64, 0
2, 1992, Note_on_c, 0, 76, 114
2, 2000, Note_on_c, 0, 74, 0
2, 2034, Note_on_c, 0, 62, 115
2, 2034, Note_on_c, 0, 54, 116
2, 2036, Note_on_c, 0, 78, 127
2, 2036, Note_on_c, 0, 57, 103
2, 2043, Note_on_c, 0, 62, 0
2, 2044, Note_on_c, 0, 54, 0
2, 2047, Note_on_c, 0, 57, 0
2, 2047, Note_on_c, 0, 76, 0
2, 2068, Note_on_c, 0, 78, 0
2, 2104, Note_on_c, 0, 79, 114
2, 2126, Note_on_c, 0, 79, 0
2, 2152, Note_on_c, 0, 78, 119
2, 2152, Note_on_c, 0, 43, 111
2, 2155, Control_c, 0, 64, 127
2, 2172, Note_on_c, 0, 43, 0
2, 2175, Note_on_c, 0, 78, 0
2, 2181, Note_on_c, 0, 79, 107
2, 2196, Note_on_c, 0, 78, 121
2, 2214, Note_on_c, 0, 79, 0
2, 2272, Note_on_c, 0, 64, 106
2, 2274, Note_on_c, 0, 59, 107
2, 2277, Note_on_c, 0, 76, 119
2, 2287, Note_on_c, 0, 59, 0
2, 2287, Note_on_c, 0, 64, 0
2, 2297, Note_on_c, 0, 78, 0
2, 2312, Control_c, 0, 64, 0
2, 2335, Note_on_c, 0, 74, 123
2, 2341, Note_on_c, 0, 76, 0
2, 2390, Note_on_c, 0, 73, 127
2, 2390, Note_on_c, 0, 64, 108
2, 2391, Note_on_c, 0, 59, 103
2, 2393, Note_on_c, 0, 55, 95
2, 2401, Note_on_c, 0, 74, 0
2, 2404, Note_on_c, 0, 64, 0
2, 2424, Note_on_c, 0, 59, 0
2, 2442, Note_on_c, 0, 55, 0
2, 2448, Note_on_c, 0, 71, 112
2, 2450, Note_on_c, 0, 73, 0
2, 2509, Note_on_c, 0, 69, 122
2, 2509, Note_on_c, 0, 71, 0
2, 2511, Note_on_c, 0, 45, 94
2, 2518, Control_c, 0, 64, 127
2, 2536, Note_on_c, 0, 45, 0
2, 2570, Note_on_c, 0, 73, 127
2, 2591, Note_on_c, 0, 69, 0
2, 2602, Note_on_c, 0, 73, 0
2, 2625, Note_on_c, 0, 64, 107
2, 2626, Note_on_c, 0, 57, 103
2, 2629, Note_on_c, 0, 73, 116
2, 2634, Note_on_c, 0, 64, 0
2, 2635, Note_on_c, 0, 57, 0
2, 2651, Note_on_c, 0, 73, 0
2, 2656, Note_on_c, 0, 74, 112
2, 2674, Control_c, 0, 64, 0
2, 2675, Note_on_c, 0, 73, 121
2, 2693, Note_on_c, 0, 74, 0
2, 2744, Note_on_c, 0, 71, 116
2, 2747, Note_on_c, 0, 64, 99
2, 2747, Note_on_c, 0, 57, 105
2, 2757, Note_on_c, 0, 64, 0
2, 2758, Note_on_c, 0, 73, 0
2, 2770, Note_on_c, 0, 57, 0
2, 2806, Note_on_c, 0, 69, 119
2, 2807, Note_on_c, 0, 71, 0
2, 2871, Note_on_c, 0, 74, 122
2, 2873, Note_on_c, 0, 38, 103
2, 2877, Note_on_c, 0, 69, 0
2, 2889, Control_c, 0, 64, 127
2, 2911, Note_on_c, 0, 38, 0
2, 3000, Note_on_c, 0, 62, 85
2, 3001, Note_on_c, 0, 57, 66
2, 3001, Note_on_c, 0, 66, 93
2, 3004, Note_on_c, 0, 50, 85
2, 3017, Note_on_c, 0, 50, 0
2, 3027, Note_on_c, 0, 57, 0
2, 3028, Note_on_c, 0, 62, 0
2, 3041, Note_on_c, 0, 66, 0
2, 3126, Note_on_c, 0, 50, 90
2, 3128, Note_on_c, 0, 66, 81
2, 3128, Note_on_c, 0, 62, 81
2, 3128, Note_on_c, 0, 57, 89
2, 3242, Note_on_c, 0, 74, 0
2, 3257, Note_on_c, 0, 69, 109
2, 3259, Control_c, 0, 64, 0
2, 3287, Control_c, 0, 64, 127
2, 3305, Note_on_c, 0, 50, 0
2, 3307, Note_on_c, 0, 57, 0
2, 3307, Note_on_c, 0, 62, 0
2, 3307, Note_on_c, 0, 66, 0
2, 3315, Note_on_c, 0, 73, 112
2, 3324, Note_on_c, 0, 69, 0
2, 3346, Note_on_c, 0, 73, 0
2, 3365, Note_on_c, 0, 57, 96
2, 3365, Note_on_c, 0, 62, 92
2, 3365, Note_on_c, 0, 50, 110
2, 3371, Note_on_c, 0, 74, 113
2, 3376, Note_on_c, 0, 57, 0
2, 3379, Note_on_c, 0, 62, 0
2, 3388, Control_c, 0, 64, 0
2, 3394, Note_on_c, 0, 50, 0
2, 3419, Note_on_c, 0, 76, 103
2, 3419, Note_on_c, 0, 74, 0
2, 3465, Note_on_c, 0, 76, 0
2, 3475, Note_on_c, 0, 62, 92
2, 3476, Note_on_c, 0, 78, 102
2, 3476, Note_on_c, 0, 50, 94
2, 3479, Note_on_c, 0, 57, 97
2, 3489, Note_on_c, 0, 62, 0
2, 3490, Note_on_c, 0, 57, 0
2, 3497, Note_on_c, 0, 50, 0
2, 3530, Note_on_c, 0, 78, 0
2, 3542, Note_on_c, 0, 79, 97
2, 3574, Note_on_c, 0, 79, 0
2, 3593, Note_on_c, 0, 45, 106
2, 3595, Note_on_c, 0, 78, 81
2, 3603, Control_c, 0, 64, 127
2, 3603, Note_on_c, 0, 78, 0
2, 3608, Note_on_c, 0, 79, 101
2, 3616, Note_on_c, 0, 45, 0
2, 3629, Note_on_c, 0, 78, 108
2, 3635, Note_on_c, 0, 79, 0
2, 3720, Note_on_c, 0, 57, 92
2, 3720, Note_on_c, 0, 52, 86
2, 3722, Note_on_c, 0, 61, 63
2, 3726, Note_on_c, 0, 76, 106
2, 3732, Note_on_c, 0, 57, 0
2, 3734, Note_on_c, 0, 52, 0
2, 3736, Note_on_c, 0, 61, 0
2, 3740, Control_c, 0, 64, 0
2, 3744, Note_on_c, 0, 78, 0
2, 3773, Note_on_c, 0, 76, 0
2, 3785, Note_on_c, 0, 74, 98
2, 3839, Note_on_c, 0, 73, 114
2, 3840, Note_on_c, 0, 52, 90
2, 3842, Note_on_c, 0, 61, 85
2, 3842, Note_on_c, 0, 57, 92
2, 3842, Note_on_c, 0, 74, 0
2, 3856, Note_on_c, 0, 57, 0
2, 3858, Note_on_c, 0, 61, 0
2, 3877, Note_on_c, 0, 52, 0
2, 3896, Note_on_c, 0, 73, 0
2, 3900, Note_on_c, 0, 71, 99
2, 3952, Note_on_c, 0, 71, 0
2, 3955, Note_on_c, 0, 38, 100
2, 3960, Note_on_c, 0, 69, 104
2, 3964, Control_c, 0, 64, 127
2, 3983, Note_on_c, 0, 38, 0
2, 4022, Note_on_c, 0, 74, 107
2, 4041, Note_on_c, 0, 69, 0
2, 4080, Note_on_c, 0, 57, 97
2, 4080, Note_on_c, 0, 62, 90
2, 4080, Note_on_c, 0, 50, 90
2, 4080, Note_on_c, 0, 74, 111
2, 4081, Note_on_c, 0, 74, 0
2, 4090, Note_on_c, 0, 57, 0
2, 4107, Note_on_c, 0, 76, 105
2, 4109, Note_on_c, 0, 74, 0
2, 4109, Note_on_c, 0, 50, 0
2, 4109, Note_on_c, 0, 62, 0
2, 4110, Control_c, 0, 64, 0
2, 4129, Note_on_c, 0, 74, 110
2, 4142, Note_on_c, 0, 76, 0
2, 4193, Note_on_c, 0, 73, 107
2, 4200, Note_on_c, 0, 62, 90
2, 4202, Note_on_c, 0, 57, 93
2, 4202, Note_on_c, 0, 50, 96
2, 4203, Note_on_c, 0, 74, 0
2, 4214, Note_on_c, 0, 57, 0
2, 4229, Note_on_c, 0, 62, 0
2, 4233, Note_on_c, 0, 50, 0
2, 4256, Note_on_c, 0, 73, 0
2, 4262, Note_on_c, 0, 71, 109
2, 4324, Note_on_c, 0, 73, 106
2, 4324, Note_on_c, 0, 45, 96
2, 4336, Note_on_c, 0, 71, 0
2, 4349, Control_c, 0, 64, 127
2, 4361, Note_on_c, 0, 45, 0
2, 4440, Note_on_c, 0, 69, 89
2, 4440, Note_on_c, 0, 57, 89
2, 4440, Note_on_c, 0, 61, 95
2, 4499, Note_on_c, 0, 61, 0
2, 4499, Note_on_c, 0, 57, 0
2, 4499, Note_on_c, 0, 69, 0
2, 4560, Note_on_c, 0, 67, 89
2, 4560, Note_on_c, 0, 69, 105
2, 4560, Note_on_c, 0, 57, 91
2, 4560, Note_on_c, 0, 64, 93
2, 4564, Note_on_c, 0, 73, 0
2, 4585, Control_c, 0, 64, 0
2, 4618, Note_on_c, 0, 69, 0
2, 4619, Note_on_c, 0, 64, 0
2, 4619, Note_on_c, 0, 67, 0
2, 4687, Note_on_c, 0, 69, 106
2, 4688, Note_on_c, 0, 50, 112
2, 4705, Control_c, 0, 64, 127
2, 4750, Note_on_c, 0, 73, 121
2, 4758, Note_on_c, 0, 69, 0
2, 4790, Note_on_c, 0, 73, 0
2, 4799, Note_on_c, 0, 57, 0
2, 4800, Note_on_c, 0, 62, 109
2, 4800, Note_on_c, 0, 74, 122
2, 4804, Note_on_c, 0, 57, 107
2, 4806, Note_on_c, 0, 50, 0
2, 4833, Control_c, 0, 64, 0
2, 4859, Note_on_c, 0, 62, 0
2, 4863, Note_on_c, 0, 57, 0
2, 4865, Note_on_c, 0, 76, 116
2, 4878, Note_on_c, 0, 74, 0
2, 4918, Note_on_c, 0, 62, 100
2, 4920, Note_on_c, 0, 50, 101
2, 4920, Note_on_c, 0, 78, 125
2, 4921, Note_on_c, 0, 57, 103
2, 4932, Note_on_c, 0, 76, 0
2, 4941, Note_on_c, 0, 50, 0
2, 4947, Note_on_c, 0, 62, 0
2, 4950, Note_on_c, 0, 57, 0
2, 4978, Note_on_c, 0, 79, 112
2, 4987, Note_on_c, 0, 78, 0
2, 5010, Note_on_c, 0, 79, 0
2, 5035, Note_on_c, 0, 43, 100
2, 5037, Note_on_c, 0, 78, 101
2, 5043, Control_c, 0, 64, 127
2, 5049, Note_on_c, 0, 78, 0
2, 5055, Note_on_c, 0, 79, 89
2, 5064, Note_on_c, 0, 43, 0
2, 5072, Note_on_c, 0, 78, 119
2, 5087, Note_on_c, 0, 79, 0
2, 5163, Note_on_c, 0, 76, 112
2, 5167, Note_on_c, 0, 64, 97
2, 5167, Note_on_c, 0, 59, 94
2, 5177, Control_c, 0, 64, 0
2, 5188, Note_on_c, 0, 59, 0
2, 5188, Note_on_c, 0, 64, 0
2, 5189, Note_on_c, 0, 78, 0
2, 5220, Note_on_c, 0, 74, 115
2, 5224, Note_on_c, 0, 76, 0
2, 5280, Note_on_c, 0, 55, 91
2, 5280, Note_on_c, 0, 59, 94
2, 5280, Note_on_c, 0, 64, 87
2, 5280, Note_on_c, 0, 73, 126
2, 5290, Note_on_c, 0, 74, 0
2, 5293, Note_on_c, 0, 64, 0
2, 5307, Note_on_c, 0, 59, 0
2, 5318, Note_on_c, 0, 55, 0
2, 5336, Note_on_c, 0, 71, 113
2, 5342, Note_on_c, 0, 73, 0
2, 5399, Note_on_c, 0, 71, 0
2, 5400, Note_on_c, 0, 69, 114
2, 5400, Note_on_c, 0, 45, 104
2, 5401, Control_c, 0, 64, 127
2, 5427, Note_on_c, 0, 45, 0
2, 5458, Note_on_c, 0, 73, 119
2, 5484, Note_on_c, 0, 69, 0
2, 5495, Note_on_c, 0, 73, 0
2, 5518, Note_on_c, 0, 73, 104
2, 5520, Note_on_c, 0, 57, 102
2, 5520, Note_on_c, 0, 64, 103
2, 5527, Note_on_c, 0, 64, 0
2, 5527, Note_on_c, 0, 57, 0
2, 5533, Note_on_c, 0, 73, 0
2, 5546, Note_on_c, 0, 74, 108
2, 5550, Control_c, 0, 64, 0
2, 5568, Note_on_c, 0, 73, 116
2, 5583, Note_on_c, 0, 74, 0
2, 5624, Note_on_c, 0, 71, 111
2, 5624, Note_on_c, 0, 57, 91
2, 5625, Note_on_c, 0, 64, 101
2, 5637, Note_on_c, 0, 64, 0
2, 5638, Note_on_c, 0, 73, 0
2, 5643, Note_on_c, 0, 57, 0
2, 5686, Note_on_c, 0, 71, 0
2, 5689, Note_on_c, 0, 69, 101
2, 5750, Note_on_c, 0, 74, 111
2, 5751, Note_on_c, 0, 69, 0
2, 5753, Note_on_c, 0, 38, 100
2, 5771, Control_c, 0, 64, 127
2, 5780, Note_on_c, 0, 38, 0
2, 5864, Note_on_c, 0, 57, 94
2, 5866, Note_on_c, 0, 62, 98
2, 5867, Note_on_c, 0, 66, 97
2, 5876, Note_on_c, 0, 62, 0
2, 5876, Note_on_c, 0, 57, 0
2, 5884, Note_on_c, 0, 66, 0
2, 5988, Note_on_c, 0, 50, 94
2, 5993, Note_on_c, 0, 57, 88
2, 5993, Note_on_c, 0, 66, 96
2, 6012, Note_on_c, 0, 50, 0
2, 6016, Note_on_c, 0, 57, 0
2, 6018, Note_on_c, 0, 74, 0
2, 6030, Note_on_c, 0, 66, 0
2, 6068, Control_c, 0, 64, 0
2, 6120, Note_on_c, 0, 64, 116
2, 6125, Note_on_c, 0, 45, 127
2, 6145, Control_c, 0, 64, 127
2, 6177, Note_on_c, 0, 64, 0
2, 6184, Note_on_c, 0, 68, 113
2, 6230, Note_on_c, 0, 68, 0
2, 6236, Note_on_c, 0, 52, 108
2, 6236, Note_on_c, 0, 57, 99
2, 6242, Note_on_c, 0, 69, 127
2, 6242, Note_on_c, 0, 45, 0
2, 6245, Note_on_c, 0, 52, 0
2, 6246, Note_on_c, 0, 57, 0
2, 6274, Control_c, 0, 64, 0
2, 6299, Note_on_c, 0, 71, 123
2, 6312, Note_on_c, 0, 69, 0
2, 6355, Note_on_c, 0, 73, 127
2, 6358, Note_on_c, 0, 52, 115
2, 6358, Note_on_c, 0, 45, 104
2, 6358, Note_on_c, 0, 57, 104
2, 6367, Note_on_c, 0, 71, 0
2, 6368, Note_on_c, 0, 57, 0
2, 6376, Note_on_c, 0, 45, 0
2, 6376, Note_on_c, 0, 52, 0
2, 6414, Note_on_c, 0, 74, 124
2, 6425, Note_on_c, 0, 73, 0
2, 6445, Note_on_c, 0, 74, 0
2, 6466, Note_on_c, 0, 73, 102
2, 6473, Note_on_c, 0, 40, 109
2, 6480, Note_on_c, 0, 73, 0
2, 6491, Note_on_c, 0, 74, 108
2, 6491, Control_c, 0, 64, 127
2, 6495, Note_on_c, 0, 40, 0
2, 6507, Note_on_c, 0, 73, 127
2, 6521, Note_on_c, 0, 74, 0
2, 6598, Note_on_c, 0, 71, 109
2, 6600, Note_on_c, 0, 52, 107
2, 6600, Note_on_c, 0, 59, 97
2, 6607, Control_c, 0, 64, 0
2, 6610, Note_on_c, 0, 52, 0
2, 6611, Note_on_c, 0, 59, 0
2, 6615, Note_on_c, 0, 73, 0
2, 6646, Note_on_c, 0, 71, 0
2, 6652, Note_on_c, 0, 69, 106
2, 6708, Note_on_c, 0, 57, 107
2, 6712, Note_on_c, 0, 45, 100
2, 6712, Note_on_c, 0, 52, 109
2, 6713, Note_on_c, 0, 68, 124
2, 6717, Note_on_c, 0, 57, 0
2, 6721, Note_on_c, 0, 45, 0
2, 6722, Note_on_c, 0, 52, 0
2, 6724, Note_on_c, 0, 69, 0
2, 6771, Note_on_c, 0, 66, 124
2, 6783, Note_on_c, 0, 68, 0
2, 6832, Note_on_c, 0, 66, 0
2, 6834, Note_on_c, 0, 64, 120
2, 6839, Note_on_c, 0, 40, 108
2, 6847, Control_c, 0, 64, 127
2, 6850, Note_on_c, 0, 40, 0
2, 6895, Note_on_c, 0, 69, 119
2, 6896, Note_on_c, 0, 64, 0
2, 6917, Note_on_c, 0, 69, 0
2, 6945, Note_on_c, 0, 52, 102
2, 6945, Note_on_c, 0, 69, 122
2, 6945, Note_on_c, 0, 61, 102
2, 6945, Note_on_c, 0, 57, 97
2, 6954, Note_on_c, 0, 69, 0
2, 6954, Note_on_c, 0, 52, 0
2, 6955, Note_on_c, 0, 57, 0
2, 6956, Note_on_c, 0, 61, 0
2, 6976, Note_on_c, 0, 71, 104
2, 6982, Control_c, 0, 64, 0
2, 6992, Note_on_c, 0, 69, 108
2, 7008, Note_on_c, 0, 71, 0
2, 7062, Note_on_c, 0, 68, 127
2, 7062, Note_on_c, 0, 61, 102
2, 7062, Note_on_c, 0, 57, 91
2, 7062, Note_on_c, 0, 52, 111
2, 7068, Note_on_c, 0, 69, 0
2, 7071, Note_on_c, 0, 57, 0
2, 7071, Note_on_c, 0, 52, 0
2, 7073, Note_on_c, 0, 61, 0
2, 7123, Note_on_c, 0, 68, 0
2, 7127, Note_on_c, 0, 66, 127
2, 7191, Note_on_c, 0, 40, 97
2, 7193, Note_on_c, 0, 68, 122
2, 7197, Note_on_c, 0, 66, 0
2, 7209, Control_c, 0, 64, 127
2, 7213, Note_on_c, 0, 40, 0
2, 7311, Note_on_c, 0, 52, 108
2, 7311, Note_on_c, 0, 59, 111
2, 7311, Note_on_c, 0, 64, 111
2, 7340, Note_on_c, 0, 64, 0
2, 7340, Note_on_c, 0, 59, 0
2, 7340, Note_on_c, 0, 52, 0
2, 7432, Note_on_c, 0, 68, 0
2, 7435, Note_on_c, 0, 64, 123
2, 7435, Note_on_c, 0, 59, 106
2, 7435, Note_on_c, 0, 62, 113
2, 7437, Note_on_c, 0, 52, 105
2, 7494, Note_on_c, 0, 62, 0
2, 7494, Note_on_c, 0, 59, 0
2, 7496, Note_on_c, 0, 52, 0
2, 7554, Note_on_c, 0, 64, 0
2, 7560, Note_on_c, 0, 64, 126
2, 7563, Note_on_c, 0, 45, 125
2, 7566, Control_c, 0, 64, 0
2, 7597, Control_c, 0, 64, 127
2, 7626, Note_on_c, 0, 68, 120
2, 7626, Note_on_c, 0, 64, 0
2, 7663, Note_on_c, 0, 68, 0
2, 7668, Note_on_c, 0, 45, 0
2, 7680, Note_on_c, 0, 52, 106
2, 7680, Note_on_c, 0, 57, 101
2, 7680, Note_on_c, 0, 61, 123
2, 7680, Note_on_c, 0, 69, 125
2, 7689, Note_on_c, 0, 57, 0
2, 7689, Note_on_c, 0, 52, 0
2, 7704, Control_c, 0, 64, 0
2, 7709, Note_on_c, 0, 61, 0
2, 7744, Note_on_c, 0, 71, 116
2, 7754, Note_on_c, 0, 69, 0
2, 7800, Note_on_c, 0, 45, 113
2, 7800, Note_on_c, 0, 52, 111
2, 7800, Note_on_c, 0, 61, 123
2, 7800, Note_on_c, 0, 57, 100
2, 7800, Note_on_c, 0, 73, 122
2, 7809, Note_on_c, 0, 57, 0
2, 7809, Note_on_c, 0, 45, 0
2, 7810, Note_on_c, 0, 71, 0
2, 7810, Note_on_c, 0, 52, 0
2, 7829, Note_on_c, 0, 61, 0
2, 7842, Note_on_c, 0, 73, 0
2, 7860, Note_on_c, 0, 74, 117
2, 7885, Note_on_c, 0, 74, 0
2, 7920, Note_on_c, 0, 38, 108
2, 7920, Note_on_c, 0, 73, 114
2, 7929, Control_c, 0, 64, 127
2, 7943, Note_on_c, 0, 73, 0
2, 7944, Note_on_c, 0, 74, 104
2, 7953, Note_on_c, 0, 38, 0
2, 7961, Note_on_c, 0, 73, 127
2, 7978, Note_on_c, 0, 74, 0
2, 8040, Note_on_c, 0, 54, 108
2, 8040, Note_on_c, 0, 59, 99
2, 8040, Note_on_c, 0, 71, 116
2, 8040, Note_on_c, 0, 50, 108
2, 8050, Note_on_c, 0, 59, 0
2, 8054, Note_on_c, 0, 54, 0
2, 8070, Note_on_c, 0, 73, 0
2, 8073, Note_on_c, 0, 50, 0
2, 8074, Control_c, 0, 64, 0
2, 8092, Note_on_c, 0, 71, 0
2, 8100, Note_on_c, 0, 69, 114
2, 8160, Note_on_c, 0, 68, 124
2, 8161, Note_on_c, 0, 59, 96
2, 8164, Note_on_c, 0, 54, 99
2, 8166, Note_on_c, 0, 50, 100
2, 8166, Note_on_c, 0, 69, 0
2, 8174, Note_on_c, 0, 59, 0
2, 8188, Note_on_c, 0, 54, 0
2, 8192, Note_on_c, 0, 50, 0
2, 8220, Note_on_c, 0, 66, 121
2, 8231, Note_on_c, 0, 68, 0
2, 8280, Note_on_c, 0, 64, 119
2, 8280, Note_on_c, 0, 40, 103
2, 8283, Note_on_c, 0, 66, 0
2, 8290, Control_c, 0, 64, 127
2, 8303, Note_on_c, 0, 40, 0
2, 8340, Note_on_c, 0, 68, 119
2, 8342, Note_on_c, 0, 64, 0
2, 8362, Note_on_c, 0, 68, 0
2, 8398, Note_on_c, 0, 68, 115
2, 8400, Note_on_c, 0, 62, 91
2, 8400, Note_on_c, 0, 52, 105
2, 8400, Note_on_c, 0, 59, 96
2, 8407, Note_on_c, 0, 68, 0
2, 8409, Note_on_c, 0, 59, 0
2, 8409, Note_on_c, 0, 52, 0
2, 8423, Note_on_c, 0, 62, 0
2, 8424, Control_c, 0, 64, 0
2, 8429, Note_on_c, 0, 69, 106
2, 8447, Note_on_c, 0, 68, 127
2, 8461, Note_on_c, 0, 69, 0
2, 8511, Note_on_c, 0, 66, 124
2, 8511, Note_on_c, 0, 52, 109
2, 8511, Note_on_c, 0, 59, 96
2, 8511, Note_on_c, 0, 62, 91
2, 8522, Note_on_c, 0, 59, 0
2, 8522, Note_on_c, 0, 68, 0
2, 8527, Note_on_c, 0, 52, 0
2, 8534, Note_on_c, 0, 62, 0
2, 8563, Note_on_c, 0, 66, 0
2, 8567, Note_on_c, 0, 64, 120
2, 8633, Note_on_c, 0, 64, 0
2, 8635, Note_on_c, 0, 69, 116
2, 8636, Note_on_c, 0, 33, 115
2, 8653, Control_c, 0, 64, 127
2, 8668, Note_on_c, 0, 33, 0
2, 8758, Note_on_c, 0, 52, 97
2, 8759, Note_on_c, 0, 57, 91
2, 8759, Note_on_c, 0, 45, 90
2, 8760, Note_on_c, 0, 61, 84
2, 8769, Note_on_c, 0, 57, 0
2, 8769, Note_on_c, 0, 52, 0
2, 8770, Note_on_c, 0, 45, 0
2, 8789, Note_on_c, 0, 61, 0
2, 8880, Note_on_c, 0, 45, 91
2, 8880, Note_on_c, 0, 52, 99
2, 8880, Note_on_c, 0, 57, 89
2, 8880, Note_on_c, 0, 61, 79
2, 8901, Note_on_c, 0, 52, 0
2, 8903, Note_on_c, 0, 45, 0
2, 8904, Note_on_c, 0, 57, 0
2, 8915, Control_c, 0, 64, 0
2, 8939, Note_on_c, 0, 61, 0
2, 9012, Note_on_c, 0, 45, 119
2, 9012, Note_on_c, 0, 69, 0
2, 9015, Note_on_c, 0, 64, 114
2, 9028, Control_c, 0, 64, 127
2, 9060, Note_on_c, 0, 64, 0
2, 9075, Note_on_c, 0, 68, 111
2, 9102, Note_on_c, 0, 68, 0
2, 9125, Note_on_c, 0, 52, 85
2, 9129, Note_on_c, 0, 45, 0
2, 9131, Note_on_c, 0, 69, 112
2, 9131, Note_on_c, 0, 57, 87
2, 9136, Note_on_c, 0, 52, 0
2, 9143, Note_on_c, 0, 57, 0
2, 9151, Control_c, 0, 64, 0
2, 9185, Note_on_c, 0, 71, 107
2, 9190, Note_on_c, 0, 69, 0
2, 9240, Note_on_c, 0, 71, 0
2, 9245, Note_on_c, 0, 73, 99
2, 9249, Note_on_c, 0, 45, 97
2, 9249, Note_on_c, 0, 57, 92
2, 9252, Note_on_c, 0, 52, 91
2, 9263, Note_on_c, 0, 57, 0
2, 9268, Note_on_c, 0, 52, 0
2, 9275, Note_on_c, 0, 45, 0
2, 9285, Note_on_c, 0, 73, 0
2, 9300, Note_on_c, 0, 74, 112
2, 9341, Note_on_c, 0, 74, 0
2, 9355, Note_on_c, 0, 73, 107
2, 9360, Note_on_c, 0, 40, 102
2, 9376, Note_on_c, 0, 73, 0
2, 9384, Control_c, 0, 64, 127
2, 9385, Note_on_c, 0, 40, 0
2, 9387, Note_on_c, 0, 74, 93
2, 9396, Note_on_c, 0, 73, 125
2, 9412, Note_on_c, 0, 74, 0
2, 9483, Note_on_c, 0, 59, 99
2, 9483, Note_on_c, 0, 52, 105
2, 9490, Note_on_c, 0, 71, 99
2, 9492, Note_on_c, 0, 52, 0
2, 9492, Note_on_c, 0, 59, 0
2, 9500, Control_c, 0, 64, 0
2, 9508, Note_on_c, 0, 73, 0
2, 9533, Note_on_c, 0, 71, 0
2, 9541, Note_on_c, 0, 69, 107
2, 9595, Note_on_c, 0, 59, 94
2, 9597, Note_on_c, 0, 52, 99
2, 9600, Note_on_c, 0, 68, 116
2, 9602, Note_on_c, 0, 69, 0
2, 9611, Note_on_c, 0, 59, 0
2, 9616, Note_on_c, 0, 52, 0
2, 9651, Note_on_c, 0, 66, 106
2, 9665, Note_on_c, 0, 68, 0
2, 9705, Note_on_c, 0, 66, 0
2, 9707, Note_on_c, 0, 45, 115
2, 9712, Note_on_c, 0, 64, 109
2, 9727, Control_c, 0, 64, 127
2, 9750, Note_on_c, 0, 64, 0
2, 9766, Note_on_c, 0, 69, 113
2, 9785, Note_on_c, 0, 69, 0
2, 9814, Note_on_c, 0, 45, 0
2, 9824, Note_on_c, 0, 69, 110
2, 9824, Note_on_c, 0, 57, 92
2, 9824, Note_on_c, 0, 52, 105
2, 9833, Note_on_c, 0, 52, 0
2, 9834, Note_on_c, 0, 57, 0
2, 9848, Note_on_c, 0, 69, 0
2, 9849, Control_c, 0, 64, 0
2, 9855, Note_on_c, 0, 71, 97
2, 9878, Note_on_c, 0, 69, 105
2, 9884, Note_on_c, 0, 71, 0
2, 9951, Note_on_c, 0, 68, 124
2, 9951, Note_on_c, 0, 57, 89
2, 9951, Note_on_c, 0, 52, 101
2, 9951, Note_on_c, 0, 45, 102
2, 9959, Note_on_c, 0, 57, 0
2, 9961, Note_on_c, 0, 52, 0
2, 9962, Note_on_c, 0, 45, 0
2, 9965, Note_on_c, 0, 69, 0
2, 10021, Note_on_c, 0, 66, 122
2, 10027, Note_on_c, 0, 68, 0
2, 10082, Note_on_c, 0, 40, 94
2, 10085, Note_on_c, 0, 68, 113
2, 10093, Note_on_c, 0, 66, 0
2, 10103, Control_c, 0, 64, 127
2, 10112, Note_on_c, 0, 40, 0
2, 10200, Note_on_c, 0, 64, 102
2, 10200, Note_on_c, 0, 59, 108
2, 10200, Note_on_c, 0, 52, 114
2, 10212, Note_on_c, 0, 52, 0
2, 10212, Note_on_c, 0, 59, 0
2, 10212, Note_on_c, 0, 64, 0
2, 10318, Note_on_c, 0, 62, 97
2, 10320, Note_on_c, 0, 52, 104
2, 10320, Note_on_c, 0, 59, 91
2, 10320, Note_on_c, 0, 64, 110
2, 10324, Note_on_c, 0, 68, 0
2, 10338, Note_on_c, 0, 62, 0
2, 10341, Note_on_c, 0, 59, 0
2, 10351, Note_on_c, 0, 52, 0
2, 10409, Note_on_c, 0, 64, 0
2, 10443, Note_on_c, 0, 45, 121
2, 10445, Note_on_c, 0, 64, 120
2, 10456, Control_c, 0, 64, 0
2, 10478, Control_c, 0, 64, 127
2, 10505, Note_on_c, 0, 68, 120
2, 10511, Note_on_c, 0, 64, 0
2, 10546, Note_on_c, 0, 68, 0
2, 10553, Note_on_c, 0, 57, 108
2, 10555, Note_on_c, 0, 52, 112
2, 10556, Note_on_c, 0, 45, 0
2, 10559, Note_on_c, 0, 69, 127
2, 10562, Note_on_c, 0, 57, 0
2, 10564, Note_on_c, 0, 52, 0
2, 10587, Control_c, 0, 64, 0
2, 10612, Note_on_c, 0, 71, 115
2, 10624, Note_on_c, 0, 69, 0
2, 10672, Note_on_c, 0, 45, 116
2, 10672, Note_on_c, 0, 57, 107
2, 10675, Note_on_c, 0, 73, 126
2, 10676, Note_on_c, 0, 52, 111
2, 10680, Note_on_c, 0, 71, 0
2, 10681, Note_on_c, 0, 57, 0
2, 10684, Note_on_c, 0, 52, 0
2, 10693, Note_on_c, 0, 45, 0
2, 10730, Note_on_c, 0, 74, 127
2, 10743, Note_on_c, 0, 73, 0
2, 10765, Note_on_c, 0, 74, 0
2, 10786, Note_on_c, 0, 73, 108
2, 10788, Note_on_c, 0, 38, 106
2, 10797, Note_on_c, 0, 73, 0
2, 10799, Control_c, 0, 64, 127
2, 10808, Note_on_c, 0, 38, 0
2, 10809, Note_on_c, 0, 74, 106
2, 10826, Note_on_c, 0, 73, 127
2, 10839, Note_on_c, 0, 74, 0
2, 10912, Note_on_c, 0, 54, 105
2, 10912, Note_on_c, 0, 59, 96
2, 10916, Note_on_c, 0, 71, 109
2, 10916, Note_on_c, 0, 62, 108
2, 10927, Note_on_c, 0, 59, 0
2, 10928, Note_on_c, 0, 62, 0
2, 10932, Control_c, 0, 64, 0
2, 10936, Note_on_c, 0, 73, 0
2, 10937, Note_on_c, 0, 54, 0
2, 10967, Note_on_c, 0, 71, 0
2, 10971, Note_on_c, 0, 69, 109
2, 11030, Note_on_c, 0, 54, 92
2, 11030, Note_on_c, 0, 68, 121
2, 11030, Note_on_c, 0, 61, 108
2, 11032, Note_on_c, 0, 59, 87
2, 11035, Note_on_c, 0, 50, 100
2, 11035, Note_on_c, 0, 69, 0
2, 11042, Note_on_c, 0, 61, 0
2, 11054, Note_on_c, 0, 59, 0
2, 11069, Note_on_c, 0, 54, 0
2, 11076, Note_on_c, 0, 50, 0
2, 11094, Note_on_c, 0, 66, 116
2, 11103, Note_on_c, 0, 68, 0
2, 11150, Note_on_c, 0, 40, 102
2, 11152, Note_on_c, 0, 66, 0
2, 11155, Note_on_c, 0, 64, 116
2, 11164, Control_c, 0, 64, 127
2, 11179, Note_on_c, 0, 40, 0
2, 11213, Note_on_c, 0, 68, 117
2, 11224, Note_on_c, 0, 64, 0
2, 11241, Note_on_c, 0, 68, 0
2, 11274, Note_on_c, 0, 52, 104
2, 11274, Note_on_c, 0, 68, 119
2, 11278, Note_on_c, 0, 59, 85
2, 11280, Note_on_c, 0, 52, 0
2, 11287, Note_on_c, 0, 59, 0
2, 11289, Note_on_c, 0, 68, 0
2, 11304, Note_on_c, 0, 69, 112
2, 11309, Control_c, 0, 64, 0
2, 11329, Note_on_c, 0, 68, 121
2, 11350, Note_on_c, 0, 69, 0
2, 11385, Note_on_c, 0, 66, 122
2, 11391, Note_on_c, 0, 52, 108
2, 11391, Note_on_c, 0, 59, 97
2, 11396, Note_on_c, 0, 68, 0
2, 11400, Note_on_c, 0, 52, 0
2, 11401, Note_on_c, 0, 59, 0
2, 11444, Note_on_c, 0, 66, 0
2, 11451, Note_on_c, 0, 64, 111
2, 11525, Note_on_c, 0, 64, 0
2, 11529, Note_on_c, 0, 69, 103
2, 11529, Note_on_c, 0, 33, 113
2, 11551, Note_on_c, 0, 33, 0
2, 11562, Control_c, 0, 64, 127
2, 11640, Note_on_c, 0, 61, 104
2, 11640, Note_on_c, 0, 64, 104
2, 11640, Note_on_c, 0, 57, 104
2, 11699, Note_on_c, 0, 57, 0
2, 11699, Note_on_c, 0, 64, 0
2, 11699, Note_on_c, 0, 61, 0
2, 11767, Note_on_c, 0, 67, 106
2, 11767, Note_on_c, 0, 64, 104
2, 11768, Note_on_c, 0, 57, 95
2, 11768, Note_on_c, 0, 61, 75
2, 11796, Note_on_c, 0, 67, 0
2, 11797, Note_on_c, 0, 57, 0
2, 11797, Note_on_c, 0, 61, 0
2, 11826, Note_on_c, 0, 64, 0
2, 11880, Note_on_c, 0, 50, 127
2, 11886, Note_on_c, 0, 66, 119
2, 11888, Note_on_c, 0, 69, 0
2, 11908, Control_c, 0, 64, 0
2, 11929, Control_c, 0, 64, 127
2, 11935, Note_on_c, 0, 66, 0
2, 11939, Note_on_c, 0, 50, 0
2, 11958, Note_on_c, 0, 73, 122
2, 11984, Note_on_c, 0, 73, 0
2, 12000, Note_on_c, 0, 74, 127
2, 12000, Note_on_c, 0, 54, 108
2, 12000, Note_on_c, 0, 57, 114
2, 12000, Note_on_c, 0, 62, 115
2, 12000, Note_on_c, 0, 50, 112
2, 12008, Note_on_c, 0, 54, 0
2, 12009, Note_on_c, 0, 57, 0
2, 12012, Note_on_c, 0, 62, 0
2, 12029, Note_on_c, 0, 50, 0
2, 12036, Control_c, 0, 64, 0
2, 12069, Note_on_c, 0, 76, 125
2, 12073, Note_on_c, 0, 74, 0
2, 12124, Note_on_c, 0, 54, 117
2, 12125, Note_on_c, 0, 78, 127
2, 12128, Note_on_c, 0, 57, 113
2, 12128, Note_on_c, 0, 50, 113
2, 12129, Note_on_c, 0, 62, 107
2, 12137, Note_on_c, 0, 57, 0
2, 12137, Note_on_c, 0, 76, 0
2, 12138, Note_on_c, 0, 62, 0
2, 12146, Note_on_c, 0, 54, 0
2, 12146, Note_on_c, 0, 50, 0
2, 12176, Note_on_c, 0, 78, 0
2, 12185, Note_on_c, 0, 79, 122
2, 12217, Note_on_c, 0, 79, 0
2, 12239, Note_on_c, 0, 78, 120
2, 12240, Note_on_c, 0, 45, 127
2, 12243, Control_c, 0, 64, 127
2, 12258, Note_on_c, 0, 78, 0
2, 12265, Note_on_c, 0, 45, 0
2, 12270, Note_on_c, 0, 79, 112
2, 12287, Note_on_c, 0, 78, 127
2, 12302, Note_on_c, 0, 79, 0
2, 12356, Note_on_c, 0, 61, 115
2, 12361, Note_on_c, 0, 57, 107
2, 12362, Note_on_c, 0, 52, 105
2, 12363, Note_on_c, 0, 76, 123
2, 12371, Note_on_c, 0, 52, 0
2, 12371, Note_on_c, 0, 57, 0
2, 12376, Note_on_c, 0, 61, 0
2, 12381, Note_on_c, 0, 78, 0
2, 12395, Control_c, 0, 64, 0
2, 12416, Note_on_c, 0, 74, 126
2, 12425, Note_on_c, 0, 76, 0
2, 12479, Note_on_c, 0, 61, 114
2, 12479, Note_on_c, 0, 73, 127
2, 12480, Note_on_c, 0, 57, 113
2, 12480, Note_on_c, 0, 52, 109
2, 12490, Note_on_c, 0, 74, 0
2, 12502, Note_on_c, 0, 61, 0
2, 12523, Note_on_c, 0, 57, 0
2, 12539, Note_on_c, 0, 71, 120
2, 12539, Note_on_c, 0, 52, 0
2, 12545, Note_on_c, 0, 73, 0
2, 12600, Note_on_c, 0, 38, 114
2, 12603, Note_on_c, 0, 69, 124
2, 12603, Note_on_c, 0, 71, 0
2, 12612, Control_c, 0, 64, 127
2, 12630, Note_on_c, 0, 38, 0
2, 12667, Note_on_c, 0, 74, 127
2, 12681, Note_on_c, 0, 69, 0
2, 12699, Note_on_c, 0, 74, 0
2, 12720, Note_on_c, 0, 50, 111
2, 12720, Note_on_c, 0, 57, 105
2, 12723, Note_on_c, 0, 62, 96
2, 12726, Note_on_c, 0, 74, 121
2, 12729, Note_on_c, 0, 57, 0
2, 12729, Note_on_c, 0, 50, 0
2, 12732, Note_on_c, 0, 62, 0
2, 12738, Note_on_c, 0, 74, 0
2, 12755, Note_on_c, 0, 76, 110
2, 12781, Note_on_c, 0, 74, 115
2, 12786, Control_c, 0, 64, 0
2, 12802, Note_on_c, 0, 76, 0
2, 12836, Note_on_c, 0, 73, 127
2, 12837, Note_on_c, 0, 50, 115
2, 12838, Note_on_c, 0, 62, 100
2, 12840, Note_on_c, 0, 57, 108
2, 12846, Note_on_c, 0, 50, 0
2, 12848, Note_on_c, 0, 62, 0
2, 12848, Note_on_c, 0, 57, 0
2, 12848, Note_on_c, 0, 74, 0
2, 12891, Note_on_c, 0, 71, 109
2, 12891, Note_on_c, 0, 73, 0
2, 12955, Note_on_c, 0, 73, 119
2, 12960, Note_on_c, 0, 45, 114
2, 12970, Note_on_c, 0, 71, 0
2, 12975, Control_c, 0, 64, 127
2, 12992, Note_on_c, 0, 45, 0
2, 13080, Note_on_c, 0, 57, 99
2, 13080, Note_on_c, 0, 64, 111
2, 13080, Note_on_c, 0, 69, 109
2, 13089, Note_on_c, 0, 64, 0
2, 13089, Note_on_c, 0, 57, 0
2, 13109, Note_on_c, 0, 69, 0
2, 13194, Note_on_c, 0, 67, 113
2, 13195, Note_on_c, 0, 69, 114
2, 13195, Note_on_c, 0, 64, 109
2, 13198, Note_on_c, 0, 61, 98
2, 13200, Note_on_c, 0, 57, 97
2, 13207, Note_on_c, 0, 64, 0
2, 13208, Note_on_c, 0, 73, 0
2, 13213, Note_on_c, 0, 57, 0
2, 13221, Note_on_c, 0, 61, 0
2, 13250, Note_on_c, 0, 69, 0
2, 13253, Note_on_c, 0, 67, 0
2, 13308, Control_c, 0, 64, 0
2, 13328, Note_on_c, 0, 50, 126
2, 13331, Note_on_c, 0, 69, 119
2, 13348, Control_c, 0, 64, 127
2, 13387, Note_on_c, 0, 50, 0
2, 13391, Note_on_c, 0, 73, 120
2, 13400, Note_on_c, 0, 69, 0
2, 13433, Note_on_c, 0, 73, 0
2, 13437, Note_on_c, 0, 62, 102
2, 13439, Note_on_c, 0, 57, 96
2, 13439, Note_on_c, 0, 54, 101
2, 13446, Note_on_c, 0, 74, 127
2, 13446, Note_on_c, 0, 54, 0
2, 13446, Note_on_c, 0, 62, 0
2, 13446, Note_on_c, 0, 57, 0
2, 13467, Control_c, 0, 64, 0
2, 13508, Note_on_c, 0, 76, 123
2, 13520, Note_on_c, 0, 74, 0
2, 13560, Note_on_c, 0, 54, 107
2, 13560, Note_on_c, 0, 62, 103
2, 13560, Note_on_c, 0, 78, 127
2, 13560, Note_on_c, 0, 50, 105
2, 13567, Note_on_c, 0, 57, 88
2, 13570, Note_on_c, 0, 62, 0
2, 13572, Note_on_c, 0, 50, 0
2, 13572, Note_on_c, 0, 76, 0
2, 13577, Note_on_c, 0, 57, 0
2, 13582, Note_on_c, 0, 54, 0
2, 13620, Note_on_c, 0, 79, 119
2, 13629, Note_on_c, 0, 78, 0
2, 13655, Note_on_c, 0, 79, 0
2, 13675, Note_on_c, 0, 78, 111
2, 13679, Note_on_c, 0, 43, 100
2, 13687, Control_c, 0, 64, 127
2, 13689, Note_on_c, 0, 78, 0
2, 13700, Note_on_c, 0, 79, 107
2, 13712, Note_on_c, 0, 43, 0
2, 13715, Note_on_c, 0, 78, 121
2, 13727, Note_on_c, 0, 79, 0
2, 13800, Note_on_c, 0, 59, 101
2, 13801, Note_on_c, 0, 76, 118
2, 13801, Note_on_c, 0, 64, 95
2, 13824, Control_c, 0, 64, 0
2, 13830, Note_on_c, 0, 64, 0
2, 13833, Note_on_c, 0, 78, 0
2, 13839, Note_on_c, 0, 59, 0
2, 13860, Note_on_c, 0, 74, 122
2, 13869, Note_on_c, 0, 76, 0
2, 13911, Note_on_c, 0, 64, 103
2, 13915, Note_on_c, 0, 59, 106
2, 13917, Note_on_c, 0, 73, 127
2, 13917, Note_on_c, 0, 55, 98
2, 13924, Note_on_c, 0, 64, 0
2, 13928, Note_on_c, 0, 74, 0
2, 13945, Note_on_c, 0, 59, 0
2, 13958, Note_on_c, 0, 55, 0
2, 13972, Note_on_c, 0, 71, 113
2, 13983, Note_on_c, 0, 73, 0
2, 14036, Note_on_c, 0, 45, 107
2, 14039, Note_on_c, 0, 69, 115
2, 14039, Note_on_c, 0, 71, 0
2, 14043, Control_c, 0, 64, 127
2, 14070, Note_on_c, 0, 45, 0
2, 14103, Note_on_c, 0, 73, 117
2, 14126, Note_on_c, 0, 69, 0
2, 14140, Note_on_c, 0, 73, 0
2, 14158, Note_on_c, 0, 57, 102
2, 14160, Note_on_c, 0, 64, 101
2, 14163, Note_on_c, 0, 73, 106
2, 14168, Note_on_c, 0, 57, 0
2, 14169, Note_on_c, 0, 64, 0
2, 14178, Note_on_c, 0, 73, 0
2, 14190, Control_c, 0, 64, 0
2, 14192, Note_on_c, 0, 74, 111
2, 14217, Note_on_c, 0, 73, 108
2, 14230, Note_on_c, 0, 74, 0
2, 14267, Note_on_c, 0, 71, 115
2, 14268, Note_on_c, 0, 57, 102
2, 14269, Note_on_c, 0, 64, 103
2, 14278, Note_on_c, 0, 73, 0
2, 14280, Note_on_c, 0, 64, 0
2, 14290, Note_on_c, 0, 57, 0
2, 14317, Note_on_c, 0, 71, 0
2, 14327, Note_on_c, 0, 69, 109
2, 14393, Note_on_c, 0, 38, 91
2, 14393, Note_on_c, 0, 69, 0
2, 14397, Note_on_c, 0, 74, 111
2, 14414, Control_c, 0, 64, 127
2, 14429, Note_on_c, 0, 38, 0
2, 14511, Note_on_c, 0, 62, 66
2, 14511, Note_on_c, 0, 66, 126
2, 14511, Note_on_c, 0, 57, 81
2, 14511, Note_on_c, 0, 50, 74
2, 14520, Note_on_c, 0, 50, 0
2, 14523, Note_on_c, 0, 62, 0
2, 14526, Note_on_c, 0, 57, 0
2, 14540, Note_on_c, 0, 66, 0
2, 14628, Note_on_c, 0, 54, 94
2, 14630, Note_on_c, 0, 66, 105
2, 14630, Note_on_c, 0, 62, 79
2, 14632, Note_on_c, 0, 50, 79
2, 14635, Note_on_c, 0, 57, 87
2, 14640, Note_on_c, 0, 50, 0
2, 14640, Note_on_c, 0, 54, 0
2, 14643, Note_on_c, 0, 62, 0
2, 14643, Note_on_c, 0, 57, 0
2, 14756, Note_on_c, 0, 74, 0
2, 14760, Note_on_c, 0, 69, 95
2, 14765, Note_on_c, 0, 50, 99
2, 14780, Control_c, 0, 64, 0
2, 14821, Note_on_c, 0, 69, 0
2, 14826, Note_on_c, 0, 73, 103
2, 14839, Note_on_c, 0, 66, 0
2, 14870, Note_on_c, 0, 73, 0
2, 14880, Note_on_c, 0, 62, 98
2, 14880, Note_on_c, 0, 54, 96
2, 14880, Note_on_c, 0, 74, 111
2, 14880, Note_on_c, 0, 57, 96
2, 14880, Note_on_c, 0, 50, 0
2, 14891, Note_on_c, 0, 62, 0
2, 14891, Note_on_c, 0, 54, 0
2, 14893, Note_on_c, 0, 57, 0
2, 14931, Note_on_c, 0, 74, 0
2, 14939, Note_on_c, 0, 76, 103
2, 14996, Note_on_c, 0, 62, 79
2, 14996, Note_on_c, 0, 50, 85
2, 14996, Note_on_c, 0, 54, 88
2, 15000, Note_on_c, 0, 78, 104
2, 15000, Note_on_c, 0, 76, 0
2, 15004, Note_on_c, 0, 57, 75
2, 15009, Note_on_c, 0, 62, 0
2, 15014, Note_on_c, 0, 57, 0
2, 15014, Note_on_c, 0, 50, 0
2, 15021, Note_on_c, 0, 54, 0
2, 15051, Note_on_c, 0, 78, 0
2, 15059, Note_on_c, 0, 79, 101
2, 15088, Note_on_c, 0, 79, 0
2, 15112, Note_on_c, 0, 78, 101
2, 15115, Note_on_c, 0, 45, 104
2, 15124, Note_on_c, 0, 78, 0
2, 15129, Control_c, 0, 64, 127
2, 15138, Note_on_c, 0, 79, 102
2, 15141, Note_on_c, 0, 45, 0
2, 15152, Note_on_c, 0, 78, 111
2, 15155, Note_on_c, 0, 79, 0
2, 15242, Note_on_c, 0, 76, 102
2, 15245, Note_on_c, 0, 52, 82
2, 15246, Note_on_c, 0, 57, 93
2, 15248, Note_on_c, 0, 61, 76
2, 15256, Note_on_c, 0, 57, 0
2, 15257, Control_c, 0, 64, 0
2, 15257, Note_on_c, 0, 52, 0
2, 15257, Note_on_c, 0, 61, 0
2, 15260, Note_on_c, 0, 78, 0
2, 15289, Note_on_c, 0, 76, 0
2, 15300, Note_on_c, 0, 74, 97
2, 15359, Note_on_c, 0, 73, 105
2, 15359, Note_on_c, 0, 61, 90
2, 15360, Note_on_c, 0, 74, 0
2, 15362, Note_on_c, 0, 52, 88
2, 15365, Note_on_c, 0, 57, 89
2, 15378, Note_on_c, 0, 57, 0
2, 15378, Note_on_c, 0, 61, 0
2, 15393, Note_on_c, 0, 52, 0
2, 15415, Note_on_c, 0, 73, 0
2, 15416, Note_on_c, 0, 71, 94
2, 15472, Note_on_c, 0, 71, 0
2, 15474, Note_on_c, 0, 38, 99
2, 15487, Note_on_c, 0, 69, 99
2, 15487, Control_c, 0, 64, 127
2, 15498, Note_on_c, 0, 38, 0
2, 15544, Note_on_c, 0, 74, 93
2, 15544, Note_on_c, 0, 69, 0
2, 15573, Note_on_c, 0, 74, 0
2, 15597, Note_on_c, 0, 57, 94
2, 15600, Note_on_c, 0, 74, 104
2, 15606, Note_on_c, 0, 57, 0
2, 15629, Note_on_c, 0, 74, 0
2, 15631, Note_on_c, 0, 76, 94
2, 15634, Control_c, 0, 64, 0
2, 15654, Note_on_c, 0, 74, 107
2, 15673, Note_on_c, 0, 76, 0
2, 15716, Note_on_c, 0, 73, 124
2, 15718, Note_on_c, 0, 50, 89
2, 15721, Note_on_c, 0, 57, 95
2, 15728, Note_on_c, 0, 74, 0
2, 15732, Note_on_c, 0, 57, 0
2, 15744, Note_on_c, 0, 50, 0
2, 15769, Note_on_c, 0, 73, 0
2, 15773, Note_on_c, 0, 71, 97
2, 15839, Note_on_c, 0, 73, 104
2, 15840, Note_on_c, 0, 45, 105
2, 15848, Note_on_c, 0, 71, 0
2, 15872, Control_c, 0, 64, 127
2, 15874, Note_on_c, 0, 45, 0
2, 15960, Note_on_c, 0, 64, 95
2, 15960, Note_on_c, 0, 57, 95
2, 15960, Note_on_c, 0, 69, 98
2, 15961, Note_on_c, 0, 61, 93
2, 15974, Note_on_c, 0, 61, 0
2, 15977, Note_on_c, 0, 69, 0
2, 15978, Note_on_c, 0, 57, 0
2, 15989, Note_on_c, 0, 64, 0
2, 16080, Note_on_c, 0, 67, 95
2, 16084, Note_on_c, 0, 64, 94
2, 16084, Note_on_c, 0, 69, 111
2, 16086, Note_on_c, 0, 61, 83
2, 16086, Note_on_c, 0, 57, 84
2, 16095, Note_on_c, 0, 73, 0
2, 16098, Control_c, 0, 64, 0
2, 16109, Note_on_c, 0, 67, 0
2, 16109, Note_on_c, 0, 64, 0
2, 16111, Note_on_c, 0, 61, 0
2, 16120, Note_on_c, 0, 57, 0
2, 16125, Note_on_c, 0, 69, 0
2, 16206, Note_on_c, 0, 50, 103
2, 16207, Note_on_c, 0, 69, 82
2, 16219, Control_c, 0, 64, 127
2, 16262, Note_on_c, 0, 69, 0
2, 16265, Note_on_c, 0, 73, 105
2, 16297, Note_on_c, 0, 50, 0
2, 16312, Note_on_c, 0, 73, 0
2, 16316, Note_on_c, 0, 62, 101
2, 16319, Note_on_c, 0, 57, 100
2, 16321, Note_on_c, 0, 74, 119
2, 16329, Note_on_c, 0, 57, 0
2, 16331, Note_on_c, 0, 62, 0
2, 16351, Control_c, 0, 64, 0
2, 16384, Note_on_c, 0, 76, 118
2, 16400, Note_on_c, 0, 74, 0
2, 16439, Note_on_c, 0, 78, 122
2, 16440, Note_on_c, 0, 50, 98
2, 16441, Note_on_c, 0, 62, 100
2, 16444, Note_on_c, 0, 57, 102
2, 16452, Note_on_c, 0, 62, 0
2, 16457, Note_on_c, 0, 50, 0
2, 16457, Note_on_c, 0, 76, 0
2, 16467, Note_on_c, 0, 57, 0
2, 16498, Note_on_c, 0, 79, 120
2, 16508, Note_on_c, 0, 78, 0
2, 16540, Note_on_c, 0, 79, 0
2, 16552, Note_on_c, 0, 78, 102
2, 16555, Note_on_c, 0, 43, 100
2, 16564, Note_on_c, 0, 78, 0
2, 16573, Control_c, 0, 64, 127
2, 16577, Note_on_c, 0, 79, 105
2, 16590, Note_on_c, 0, 43, 0
2, 16595, Note_on_c, 0, 78, 126
2, 16605, Note_on_c, 0, 79, 0
2, 16681, Note_on_c, 0, 76, 115
2, 16686, Note_on_c, 0, 59, 88
2, 16688, Note_on_c, 0, 64, 75
2, 16696, Control_c, 0, 64, 0
2, 16713, Note_on_c, 0, 78, 0
2, 16723, Note_on_c, 0, 59, 0
2, 16726, Note_on_c, 0, 64, 0
2, 16740, Note_on_c, 0, 74, 122
2, 16746, Note_on_c, 0, 76, 0
2, 16790, Note_on_c, 0, 64, 103
2, 16792, Note_on_c, 0, 73, 127
2, 16795, Note_on_c, 0, 55, 98
2, 16799, Note_on_c, 0, 59, 95
2, 16802, Note_on_c, 0, 64, 0
2, 16805, Note_on_c, 0, 74, 0
2, 16820, Note_on_c, 0, 59, 0
2, 16828, Note_on_c, 0, 55, 0
2, 16848, Note_on_c, 0, 71, 111
2, 16864, Note_on_c, 0, 73, 0
2, 16904, Note_on_c, 0, 45, 110
2, 16911, Note_on_c, 0, 69, 118
2, 16911, Note_on_c, 0, 71, 0
2, 16920, Control_c, 0, 64, 127
2, 16934, Note_on_c, 0, 45, 0
2, 16968, Note_on_c, 0, 73, 117
2, 16994, Note_on_c, 0, 69, 0
2, 17006, Note_on_c, 0, 73, 0
2, 17021, Note_on_c, 0, 64, 99
2, 17024, Note_on_c, 0, 57, 88
2, 17026, Note_on_c, 0, 73, 106
2, 17030, Note_on_c, 0, 64, 0
2, 17034, Note_on_c, 0, 57, 0
2, 17051, Note_on_c, 0, 73, 0
2, 17057, Note_on_c, 0, 74, 116
2, 17064, Control_c, 0, 64, 0
2, 17083, Note_on_c, 0, 73, 113
2, 17104, Note_on_c, 0, 74, 0
2, 17152, Note_on_c, 0, 71, 111
2, 17153, Note_on_c, 0, 57, 101
2, 17153, Note_on_c, 0, 64, 104
2, 17163, Note_on_c, 0, 64, 0
2, 17166, Note_on_c, 0, 73, 0
2, 17176, Note_on_c, 0, 57, 0
2, 17207, Note_on_c, 0, 69, 113
2, 17209, Note_on_c, 0, 71, 0
2, 17275, Note_on_c, 0, 38, 92
2, 17276, Note_on_c, 0, 74, 115
2, 17282, Note_on_c, 0, 69, 0
2, 17291, Control_c, 0, 64, 127
2, 17302, Note_on_c, 0, 38, 0
2, 17400, Note_on_c, 0, 50, 106
2, 17400, Note_on_c, 0, 62, 106
2, 17400, Note_on_c, 0, 57, 104
2, 17400, Note_on_c, 0, 66, 104
2, 17412, Note_on_c, 0, 57, 0
2, 17428, Note_on_c, 0, 66, 0
2, 17429, Note_on_c, 0, 62, 0
2, 17429, Note_on_c, 0, 50, 0
2, 17519, Note_on_c, 0, 50, 106
2, 17519, Note_on_c, 0, 66, 106
2, 17523, Note_on_c, 0, 62, 105
2, 17524, Note_on_c, 0, 57, 105
2, 17536, Note_on_c, 0, 62, 0
2, 17540, Note_on_c, 0, 57, 0
2, 17541, Note_on_c, 0, 50, 0
2, 17638, Note_on_c, 0, 66, 0
2, 17642, Note_on_c, 0, 74, 0
2, 17645, Note_on_c, 0, 65, 119
2, 17647, Note_on_c, 0, 46, 116
2, 17650, Control_c, 0, 64, 0
2, 17663, Note_on_c, 0, 46, 0
2, 17666, Control_c, 0, 64, 127
2, 17724, Note_on_c, 0, 74, 121
2, 17746, Note_on_c, 0, 74, 0
2, 17775, Note_on_c, 0, 58, 101
2, 17775, Note_on_c, 0, 53, 100
2, 17778, Note_on_c, 0, 75, 122
2, 17780, Note_on_c, 0, 62, 80
2, 17785, Note_on_c, 0, 53, 0
2, 17789, Note_on_c, 0, 58, 0
2, 17791, Note_on_c, 0, 62, 0
2, 17796, Note_on_c, 0, 65, 0
2, 17816, Control_c, 0, 64, 0
2, 17887, Note_on_c, 0, 75, 0
2, 17888, Note_on_c, 0, 76, 121
2, 17888, Note_on_c, 0, 70, 96
2, 17893, Note_on_c, 0, 58, 104
2, 17893, Note_on_c, 0, 62, 99
2, 17897, Note_on_c, 0, 53, 100
2, 17903, Note_on_c, 0, 62, 0
2, 17907, Note_on_c, 0, 53, 0
2, 17908, Note_on_c, 0, 58, 0
2, 17976, Note_on_c, 0, 70, 0
2, 18003, Note_on_c, 0, 76, 0
2, 18008, Note_on_c, 0, 79, 114
2, 18011, Note_on_c, 0, 41, 109
2, 18025, Control_c, 0, 64, 127
2, 18030, Note_on_c, 0, 41, 0
2, 18088, Note_on_c, 0, 77, 107
2, 18103, Note_on_c, 0, 79, 0
2, 18120, Note_on_c, 0, 69, 97
2, 18125, Note_on_c, 0, 63, 108
2, 18125, Note_on_c, 0, 72, 110
2, 18128, Note_on_c, 0, 53, 99
2, 18128, Note_on_c, 0, 60, 103
2, 18130, Note_on_c, 0, 77, 0
2, 18137, Note_on_c, 0, 63, 0
2, 18137, Note_on_c, 0, 53, 0
2, 18137, Note_on_c, 0, 60, 0
2, 18154, Note_on_c, 0, 72, 0
2, 18179, Note_on_c, 0, 69, 0
2, 18180, Note_on_c, 0, 67, 95
2, 18239, Note_on_c, 0, 67, 0
2, 18240, Note_on_c, 0, 65, 110
2, 18249, Note_on_c, 0, 72, 125
2, 18249, Note_on_c, 0, 63, 108
2, 18249, Note_on_c, 0, 60, 108
2, 18249, Note_on_c, 0, 53, 110
2, 18258, Note_on_c, 0, 60, 0
2, 18260, Note_on_c, 0, 53, 0
2, 18263, Note_on_c, 0, 63, 0
2, 18282, Note_on_c, 0, 72, 0
2, 18385, Note_on_c, 0, 74, 123
2, 18385, Note_on_c, 0, 70, 98
2, 18385, Note_on_c, 0, 46, 122
2, 18387, Control_c, 0, 64, 0
2, 18408, Note_on_c, 0, 46, 0
2, 18411, Control_c, 0, 64, 127
2, 18434, Note_on_c, 0, 74, 0
2, 18445, Note_on_c, 0, 70, 0
2, 18460, Note_on_c, 0, 74, 111
2, 18473, Note_on_c, 0, 74, 0
2, 18479, Note_on_c, 0, 65, 0
2, 18505, Note_on_c, 0, 58, 101
2, 18505, Note_on_c, 0, 75, 124
2, 18505, Note_on_c, 0, 65, 110
2, 18505, Note_on_c, 0, 70, 106
2, 18506, Note_on_c, 0, 53, 103
2, 18506, Note_on_c, 0, 62, 99
2, 18518, Note_on_c, 0, 62, 0
2, 18518, Note_on_c, 0, 53, 0
2, 18520, Note_on_c, 0, 58, 0
2, 18532, Note_on_c, 0, 70, 0
2, 18533, Control_c, 0, 64, 0
2, 18534, Note_on_c, 0, 65, 0
2, 18546, Control_c, 0, 64, 127
2, 18561, Note_on_c, 0, 75, 0
2, 18570, Control_c, 0, 64, 0
2, 18619, Note_on_c, 0, 70, 102
2, 18619, Note_on_c, 0, 76, 106
2, 18619, Note_on_c, 0, 65, 104
2, 18619, Note_on_c, 0, 58, 105
2, 18619, Note_on_c, 0, 53, 106
2, 18620, Note_on_c, 0, 62, 100
2, 18631, Note_on_c, 0, 62, 0
2, 18646, Note_on_c, 0, 58, 0
2, 18646, Note_on_c, 0, 76, 0
2, 18646, Note_on_c, 0, 53, 0
2, 18647, Note_on_c, 0, 70, 0
2, 18730, Note_on_c, 0, 72, 76
2, 18731, Note_on_c, 0, 79, 123
2, 18736, Note_on_c, 0, 45, 107
2, 18754, Control_c, 0, 64, 127
2, 18757, Note_on_c, 0, 45, 0
2, 18799, Note_on_c, 0, 72, 0
2, 18819, Note_on_c, 0, 79, 0
2, 18820, Note_on_c, 0, 77, 116
2, 18828, Note_on_c, 0, 65, 0
2, 18853, Note_on_c, 0, 77, 0
2, 18867, Note_on_c, 0, 57, 109
2, 18867, Note_on_c, 0, 60, 104
2, 18867, Note_on_c, 0, 72, 120
2, 18867, Note_on_c, 0, 65, 106
2, 18888, Control_c, 0, 64, 0
2, 18895, Control_c, 0, 64, 127
2, 18925, Note_on_c, 0, 72, 0
2, 18926, Note_on_c, 0, 65, 0
2, 18960, Note_on_c, 0, 43, 120
2, 18989, Note_on_c, 0, 77, 119
2, 18989, Note_on_c, 0, 69, 108
2, 18989, Note_on_c, 0, 41, 120
2, 18989, Note_on_c, 0, 72, 115
2, 18996, Control_c, 0, 64, 0
2, 18999, Control_c, 0, 64, 127
2, 19001, Note_on_c, 0, 43, 0
2, 19003, Note_on_c, 0, 60, 0
2, 19017, Note_on_c, 0, 57, 0
2, 19030, Note_on_c, 0, 41, 0
2, 19048, Note_on_c, 0, 72, 0
2, 19048, Note_on_c, 0, 69, 0
2, 19078, Note_on_c, 0, 77, 0
2, 19114, Note_on_c, 0, 36, 117
2, 19114, Note_on_c, 0, 82, 127
2, 19118, Note_on_c, 0, 70, 123
2, 19118, Note_on_c, 0, 48, 113
2, 19120, Control_c, 0, 64, 0
2, 19122, Note_on_c, 0, 76, 119
2, 19124, Note_on_c, 0, 36, 0
2, 19128, Control_c, 0, 64, 127
2, 19137, Note_on_c, 0, 48, 0
2, 19163, Note_on_c, 0, 82, 0
2, 19167, Note_on_c, 0, 70, 0
2, 19176, Note_on_c, 0, 76, 0
2, 19202, Note_on_c, 0, 70, 104
2, 19202, Note_on_c, 0, 82, 116
2, 19202, Note_on_c, 0, 76, 98
2, 19214, Note_on_c, 0, 76, 0
2, 19219, Note_on_c, 0, 82, 0
2, 19220, Note_on_c, 0, 70, 0
2, 19241, Note_on_c, 0, 70, 116
2, 19241, Note_on_c, 0, 67, 120
2, 19241, Note_on_c, 0, 82, 127
2, 19241, Note_on_c, 0, 60, 116
2, 19246, Note_on_c, 0, 76, 119
2, 19254, Control_c, 0, 64, 0
2, 19255, Note_on_c, 0, 76, 0
2, 19257, Control_c, 0, 64, 127
2, 19260, Note_on_c, 0, 67, 0
2, 19263, Note_on_c, 0, 70, 0
2, 19269, Note_on_c, 0, 82, 0
2, 19270, Note_on_c, 0, 60, 0
2, 19360, Note_on_c, 0, 82, 124
2, 19362, Note_on_c, 0, 70, 115
2, 19366, Note_on_c, 0, 76, 113
2, 19375, Note_on_c, 0, 76, 0
2, 19380, Note_on_c, 0, 70, 0
2, 19383, Note_on_c, 0, 82, 0
2, 19474, Note_on_c, 0, 82, 126
2, 19475, Note_on_c, 0, 70, 117
2, 19478, Note_on_c, 0, 77, 119
2, 19483, Note_on_c, 0, 43, 126
2, 19483, Control_c, 0, 64, 0
2, 19496, Control_c, 0, 64, 127
2, 19499, Note_on_c, 0, 43, 0
2, 19499, Note_on_c, 0, 70, 0
2, 19501, Note_on_c, 0, 77, 0
2, 19504, Note_on_c, 0, 82, 0
2, 19560, Note_on_c, 0, 82, 115
2, 19562, Note_on_c, 0, 70, 102
2, 19565, Note_on_c, 0, 77, 107
2, 19567, Note_on_c, 0, 59, 115
2, 19572, Note_on_c, 0, 77, 0
2, 19576, Note_on_c, 0, 70, 0
2, 19579, Note_on_c, 0, 82, 0
2, 19592, Note_on_c, 0, 59, 0
2, 19604, Note_on_c, 0, 60, 127
2, 19606, Note_on_c, 0, 82, 127
2, 19606, Note_on_c, 0, 70, 123
2, 19611, Note_on_c, 0, 77, 113
2, 19624, Control_c, 0, 64, 0
2, 19634, Control_c, 0, 64, 127
2, 19638, Note_on_c, 0, 77, 0
2, 19641, Note_on_c, 0, 82, 0
2, 19644, Note_on_c, 0, 70, 0
2, 19691, Note_on_c, 0, 62, 126
2, 19693, Note_on_c, 0, 60, 0
2, 19728, Note_on_c, 0, 62, 0
2, 19730, Note_on_c, 0, 60, 127
2, 19730, Note_on_c, 0, 81, 119
2, 19732, Note_on_c, 0, 69, 115
2, 19735, Control_c, 0, 64, 0
2, 19745, Control_c, 0, 64, 127
2, 19746, Note_on_c, 0, 69, 0
2, 19753, Note_on_c, 0, 81, 0
2, 19776, Note_on_c, 0, 60, 0
2, 19845, Note_on_c, 0, 70, 106
2, 19845, Note_on_c, 0, 81, 111
2, 19848, Note_on_c, 0, 76, 108
2, 19848, Note_on_c, 0, 48, 123
2, 19853, Control_c, 0, 64, 0
2, 19863, Control_c, 0, 64, 127
2, 19864, Note_on_c, 0, 48, 0
2, 19869, Note_on_c, 0, 76, 0
2, 19871, Note_on_c, 0, 70, 0
2, 19872, Note_on_c, 0, 81, 0
2, 19929, Note_on_c, 0, 70, 102
2, 19931, Note_on_c, 0, 81, 108
2, 19931, Note_on_c, 0, 59, 118
2, 19937, Note_on_c, 0, 76, 99
2, 19944, Note_on_c, 0, 76, 0
2, 19949, Note_on_c, 0, 70, 0
2, 19949, Note_on_c, 0, 81, 0
2, 19967, Note_on_c, 0, 59, 0
2, 19970, Note_on_c, 0, 81, 114
2, 19972, Note_on_c, 0, 60, 127
2, 19972, Note_on_c, 0, 70, 104
2, 19976, Note_on_c, 0, 76, 106
2, 19984, Control_c, 0, 64, 0
2, 20000, Control_c, 0, 64, 127
2, 20014, Note_on_c, 0, 76, 0
2, 20028, Note_on_c, 0, 70, 0
2, 20037, Note_on_c, 0, 81, 0
2, 20055, Note_on_c, 0, 62, 121
2, 20055, Note_on_c, 0, 60, 0
2, 20087, Note_on_c, 0, 79, 110
2, 20088, Note_on_c, 0, 60, 127
2, 20092, Note_on_c, 0, 62, 0
2, 20096, Control_c, 0, 64, 0
2, 20098, Note_on_c, 0, 79, 0
2, 20100, Control_c, 0, 64, 127
2, 20156, Note_on_c, 0, 60, 0
2, 20198, Note_on_c, 0, 79, 108
2, 20198, Note_on_c, 0, 70, 108
2, 20198, Note_on_c, 0, 53, 126
2, 20203, Note_on_c, 0, 75, 103
2, 20206, Control_c, 0, 64, 0
2, 20212, Note_on_c, 0, 75, 0
2, 20215, Note_on_c, 0, 70, 0
2, 20220, Note_on_c, 0, 79, 0
2, 20221, Control_c, 0, 64, 127
2, 20224, Note_on_c, 0, 53, 0
2, 20276, Note_on_c, 0, 79, 106
2, 20278, Note_on_c, 0, 70, 99
2, 20279, Note_on_c, 0, 59, 126
2, 20287, Note_on_c, 0, 75, 73
2, 20292, Note_on_c, 0, 70, 0
2, 20294, Note_on_c, 0, 79, 0
2, 20294, Note_on_c, 0, 75, 0
2, 20311, Note_on_c, 0, 59, 0
2, 20317, Note_on_c, 0, 79, 111
2, 20319, Note_on_c, 0, 60, 127
2, 20319, Note_on_c, 0, 70, 108
2, 20324, Note_on_c, 0, 75, 106
2, 20339, Control_c, 0, 64, 0
2, 20351, Control_c, 0, 64, 127
2, 20356, Note_on_c, 0, 75, 0
2, 20368, Note_on_c, 0, 70, 0
2, 20390, Note_on_c, 0, 60, 0
2, 20400, Note_on_c, 0, 79, 0
2, 20403, Note_on_c, 0, 64, 125
2, 20443, Note_on_c, 0, 77, 107
2, 20445, Note_on_c, 0, 64, 0
2, 20447, Note_on_c, 0, 65, 127
2, 20447, Note_on_c, 0, 69, 87
2, 20450, Control_c, 0, 64, 0
2, 20454, Note_on_c, 0, 77, 0
2, 20459, Note_on_c, 0, 69, 0
2, 20462, Control_c, 0, 64, 127
2, 20472, Note_on_c, 0, 65, 0
2, 20560, Note_on_c, 0, 46, 127
2, 20564, Note_on_c, 0, 74, 119
2, 20568, Control_c, 0, 64, 0
2, 20580, Control_c, 0, 64, 127
2, 20582, Note_on_c, 0, 46, 0
2, 20592, Note_on_c, 0, 74, 0
2, 20642, Note_on_c, 0, 74, 112
2, 20650, Note_on_c, 0, 74, 0
2, 20682, Note_on_c, 0, 58, 104
2, 20682, Note_on_c, 0, 75, 125
2, 20685, Note_on_c, 0, 53, 108
2, 20685, Note_on_c, 0, 62, 105
2, 20697, Control_c, 0, 64, 0
2, 20705, Note_on_c, 0, 62, 0
2, 20708, Control_c, 0, 64, 127
2, 20708, Note_on_c, 0, 53, 0
2, 20708, Note_on_c, 0, 58, 0
2, 20800, Note_on_c, 0, 76, 122
2, 20802, Note_on_c, 0, 58, 110
2, 20802, Note_on_c, 0, 62, 110
2, 20805, Note_on_c, 0, 53, 113
2, 20809, Control_c, 0, 64, 0
2, 20814, Note_on_c, 0, 75, 0
2, 20828, Control_c, 0, 64, 127
2, 20829, Note_on_c, 0, 62, 0
2, 20832, Note_on_c, 0, 76, 0
2, 20842, Note_on_c, 0, 58, 0
2, 20843, Note_on_c, 0, 53, 0
2, 20915, Note_on_c, 0, 78, 127
2, 20915, Note_on_c, 0, 45, 122
2, 20923, Control_c, 0, 64, 0
2, 20937, Control_c, 0, 64, 127
2, 20938, Note_on_c, 0, 45, 0
2, 20978, Note_on_c, 0, 78, 0
2, 20980, Note_on_c, 0, 77, 108
2, 21028, Note_on_c, 0, 77, 0
2, 21033, Note_on_c, 0, 53, 101
2, 21037, Note_on_c, 0, 63, 95
2, 21039, Note_on_c, 0, 60, 100
2, 21042, Note_on_c, 0, 72, 113
2, 21048, Note_on_c, 0, 60, 0
2, 21048, Note_on_c, 0, 63, 0
2, 21051, Note_on_c, 0, 53, 0
2, 21060, Control_c, 0, 64, 0
2, 21067, Control_c, 0, 64, 127
2, 21099, Note_on_c, 0, 72, 0
2, 21154, Note_on_c, 0, 72, 115
2, 21156, Note_on_c, 0, 63, 113
2, 21160, Note_on_c, 0, 53, 109
2, 21160, Note_on_c, 0, 60, 106
2, 21170, Note_on_c, 0, 60, 0
2, 21176, Note_on_c, 0, 63, 0
2, 21180, Note_on_c, 0, 72, 0
2, 21183, Note_on_c, 0, 53, 0
2, 21273, Note_on_c, 0, 46, 122
2, 21276, Note_on_c, 0, 73, 126
2, 21279, Control_c, 0, 64, 0
2, 21290, Control_c, 0, 64, 127
2, 21295, Note_on_c, 0, 46, 0
2, 21325, Note_on_c, 0, 73, 0
2, 21357, Note_on_c, 0, 73, 115
2, 21378, Note_on_c, 0, 73, 0
2, 21385, Note_on_c, 0, 61, 106
2, 21387, Note_on_c, 0, 58, 105
2, 21389, Note_on_c, 0, 53, 105
2, 21392, Note_on_c, 0, 75, 127
2, 21398, Note_on_c, 0, 73, 79
2, 21400, Note_on_c, 0, 53, 0
2, 21403, Note_on_c, 0, 61, 0
2, 21407, Note_on_c, 0, 73, 0
2, 21408, Note_on_c, 0, 58, 0
2, 21464, Note_on_c, 0, 75, 0
2, 21508, Note_on_c, 0, 76, 122
2, 21510, Note_on_c, 0, 61, 115
2, 21510, Note_on_c, 0, 53, 115
2, 21512, Note_on_c, 0, 58, 115
2, 21519, Control_c, 0, 64, 0
2, 21531, Control_c, 0, 64, 127
2, 21532, Note_on_c, 0, 76, 0
2, 21536, Note_on_c, 0, 61, 0
2, 21550, Note_on_c, 0, 58, 0
2, 21552, Note_on_c, 0, 53, 0
2, 21623, Note_on_c, 0, 44, 127
2, 21627, Note_on_c, 0, 78, 127
2, 21633, Control_c, 0, 64, 0
2, 21641, Control_c, 0, 64, 127
2, 21645, Note_on_c, 0, 44, 0
2, 21680, Note_on_c, 0, 78, 0
2, 21697, Note_on_c, 0, 77, 121
2, 21712, Note_on_c, 0, 77, 0
2, 21748, Note_on_c, 0, 65, 127
2, 21748, Note_on_c, 0, 80, 122
2, 21750, Note_on_c, 0, 73, 122
2, 21750, Note_on_c, 0, 53, 127
2, 21750, Note_on_c, 0, 56, 120
2, 21751, Note_on_c, 0, 61, 123
2, 21760, Control_c, 0, 64, 0
2, 21771, Control_c, 0, 64, 127
2, 21773, Note_on_c, 0, 80, 0
2, 21775, Note_on_c, 0, 73, 0
2, 21792, Note_on_c, 0, 53, 0
2, 21793, Note_on_c, 0, 61, 0
2, 21797, Note_on_c, 0, 65, 0
2, 21798, Note_on_c, 0, 56, 0
2, 21840, Note_on_c, 0, 46, 127
2, 21865, Note_on_c, 0, 46, 0
2, 21870, Note_on_c, 0, 44, 127
2, 21876, Note_on_c, 0, 65, 127
2, 21876, Note_on_c, 0, 56, 117
2, 21876, Note_on_c, 0, 85, 127
2, 21878, Note_on_c, 0, 61, 122
2, 21879, Note_on_c, 0, 53, 125
2, 21880, Note_on_c, 0, 73, 127
2, 21885, Control_c, 0, 64, 0
2, 21893, Control_c, 0, 64, 127
2, 21894, Note_on_c, 0, 65, 0
2, 21895, Note_on_c, 0, 44, 0
2, 21901, Note_on_c, 0, 85, 0
2, 21910, Note_on_c, 0, 73, 0
2, 21917, Note_on_c, 0, 61, 0
2, 21926, Note_on_c, 0, 56, 0
2, 21934, Note_on_c, 0, 53, 0
2, 22008, Note_on_c, 0, 32, 127
2, 22008, Note_on_c, 0, 78, 127
2, 22009, Note_on_c, 0, 66, 125
2, 22012, Control_c, 0, 64, 0
2, 22013, Note_on_c, 0, 72, 118
2, 22020, Control_c, 0, 64, 127
2, 22026, Note_on_c, 0, 32, 0
2, 22034, Note_on_c, 0, 66, 0
2, 22038, Note_on_c, 0, 78, 0
2, 22039, Note_on_c, 0, 72, 0
2, 22102, Note_on_c, 0, 78, 114
2, 22102, Note_on_c, 0, 72, 115
2, 22105, Note_on_c, 0, 66, 97
2, 22114, Note_on_c, 0, 66, 0
2, 22122, Note_on_c, 0, 78, 0
2, 22127, Note_on_c, 0, 72, 0
2, 22135, Note_on_c, 0, 66, 116
2, 22135, Note_on_c, 0, 78, 121
2, 22135, Note_on_c, 0, 72, 110
2, 22135, Note_on_c, 0, 63, 113
2, 22135, Note_on_c, 0, 56, 127
2, 22160, Control_c, 0, 64, 0
2, 22169, Control_c, 0, 64, 127
2, 22183, Note_on_c, 0, 63, 0
2, 22184, Note_on_c, 0, 72, 0
2, 22184, Note_on_c, 0, 56, 0
2, 22189, Note_on_c, 0, 78, 0
2, 22191, Note_on_c, 0, 66, 0
2, 22249, Note_on_c, 0, 78, 117
2, 22249, Note_on_c, 0, 66, 121
2, 22254, Note_on_c, 0, 72, 110
2, 22263, Note_on_c, 0, 72, 0
2, 22267, Note_on_c, 0, 66, 0
2, 22271, Note_on_c, 0, 78, 0
2, 22367, Note_on_c, 0, 66, 127
2, 22367, Note_on_c, 0, 78, 127
2, 22368, Note_on_c, 0, 37, 127
2, 22370, Note_on_c, 0, 73, 116
2, 22376, Control_c, 0, 64, 0
2, 22384, Note_on_c, 0, 66, 0
2, 22386, Note_on_c, 0, 37, 0
2, 22387, Control_c, 0, 64, 127
2, 22388, Note_on_c, 0, 73, 0
2, 22390, Note_on_c, 0, 78, 0
2, 22459, Note_on_c, 0, 78, 124
2, 22459, Note_on_c, 0, 66, 124
2, 22461, Note_on_c, 0, 55, 123
2, 22463, Note_on_c, 0, 73, 97
2, 22470, Note_on_c, 0, 66, 0
2, 22472, Note_on_c, 0, 73, 0
2, 22477, Note_on_c, 0, 78, 0
2, 22492, Note_on_c, 0, 56, 127
2, 22493, Note_on_c, 0, 55, 0
2, 22495, Note_on_c, 0, 78, 119
2, 22497, Note_on_c, 0, 66, 120
2, 22501, Note_on_c, 0, 73, 105
2, 22515, Control_c, 0, 64, 0
2, 22519, Control_c, 0, 64, 127
2, 22544, Note_on_c, 0, 73, 0
2, 22547, Note_on_c, 0, 78, 0
2, 22550, Note_on_c, 0, 66, 0
2, 22560, Note_on_c, 0, 56, 0
2, 22582, Note_on_c, 0, 57, 125
2, 22611, Note_on_c, 0, 56, 127
2, 22611, Note_on_c, 0, 57, 0
2, 22615, Note_on_c, 0, 77, 123
2, 22616, Note_on_c, 0, 65, 125
2, 22624, Control_c, 0, 64, 0
2, 22633, Control_c, 0, 64, 127
2, 22634, Note_on_c, 0, 65, 0
2, 22640, Note_on_c, 0, 77, 0
2, 22683, Note_on_c, 0, 56, 0
2, 22728, Note_on_c, 0, 66, 119
2, 22728, Note_on_c, 0, 77, 116
2, 22731, Note_on_c, 0, 44, 127
2, 22733, Control_c, 0, 64, 0
2, 22735, Note_on_c, 0, 72, 106
2, 22739, Control_c, 0, 64, 127
2, 22739, Note_on_c, 0, 44, 0
2, 22742, Note_on_c, 0, 72, 0
2, 22745, Note_on_c, 0, 66, 0
2, 22749, Note_on_c, 0, 77, 0
2, 22812, Note_on_c, 0, 55, 120
2, 22813, Note_on_c, 0, 66, 112
2, 22813, Note_on_c, 0, 77, 104
2, 22815, Note_on_c, 0, 72, 93
2, 22824, Note_on_c, 0, 72, 0
2, 22824, Note_on_c, 0, 77, 0
2, 22824, Note_on_c, 0, 66, 0
2, 22843, Note_on_c, 0, 55, 0
2, 22844, Note_on_c, 0, 56, 126
2, 22853, Note_on_c, 0, 66, 125
2, 22853, Note_on_c, 0, 77, 121
2, 22856, Note_on_c, 0, 72, 110
2, 22872, Control_c, 0, 64, 0
2, 22893, Control_c, 0, 64, 127
2, 22912, Note_on_c, 0, 66, 0
2, 22925, Note_on_c, 0, 77, 0
2, 22928, Note_on_c, 0, 58, 127
2, 22928, Note_on_c, 0, 56, 0
2, 22954, Note_on_c, 0, 72, 0
2, 22962, Note_on_c, 0, 56, 127
2, 22966, Note_on_c, 0, 66, 122
2, 22966, Note_on_c, 0, 75, 121
2, 22966, Control_c, 0, 64, 0
2, 22968, Note_on_c, 0, 58, 0
2, 22978, Control_c, 0, 64, 127
2, 22987, Note_on_c, 0, 66, 0
2, 22994, Note_on_c, 0, 75, 0
2, 23010, Note_on_c, 0, 56, 0
2, 23082, Note_on_c, 0, 75, 124
2, 23082, Note_on_c, 0, 49, 125
2, 23083, Note_on_c, 0, 66, 125
2, 23083, Control_c, 0, 64, 0
2, 23086, Note_on_c, 0, 68, 114
2, 23094, Note_on_c, 0, 68, 0
2, 23095, Note_on_c, 0, 66, 0
2, 23097, Control_c, 0, 64, 127
2, 23100, Note_on_c, 0, 75, 0
2, 23113, Note_on_c, 0, 49, 0
2, 23161, Note_on_c, 0, 55, 127
2, 23165, Note_on_c, 0, 75, 117
2, 23165, Note_on_c, 0, 66, 116
2, 23165, Note_on_c, 0, 68, 108
2, 23174, Note_on_c, 0, 68, 0
2, 23177, Note_on_c, 0, 66, 0
2, 23183, Note_on_c, 0, 75, 0
2, 23191, Note_on_c, 0, 55, 0
2, 23200, Note_on_c, 0, 56, 122
2, 23205, Note_on_c, 0, 75, 117
2, 23205, Note_on_c, 0, 66, 127
2, 23209, Note_on_c, 0, 68, 126
2, 23218, Control_c, 0, 64, 0
2, 23243, Control_c, 0, 64, 127
2, 23273, Note_on_c, 0, 68, 0
2, 23277, Note_on_c, 0, 66, 0
2, 23278, Note_on_c, 0, 56, 0
2, 23287, Note_on_c, 0, 60, 127
2, 23288, Note_on_c, 0, 75, 0
2, 23324, Control_c, 0, 64, 0
2, 23327, Note_on_c, 0, 61, 127
2, 23329, Note_on_c, 0, 60, 0
2, 23332, Note_on_c, 0, 73, 106
2, 23333, Note_on_c, 0, 65, 107
2, 23365, Note_on_c, 0, 65, 0
2, 23376, Note_on_c, 0, 61, 0
2, 23391, Note_on_c, 0, 73, 0
2, 23418, Control_c, 0, 64, 127
2, 23420, Note_on_c, 0, 74, 122
2, 23420, Note_on_c, 0, 68, 123
2, 23420, Note_on_c, 0, 41, 126
2, 23439, Note_on_c, 0, 41, 0
2, 23456, Note_on_c, 0, 62, 124
2, 23462, Note_on_c, 0, 68, 0
2, 23474, Note_on_c, 0, 74, 0
2, 23490, Note_on_c, 0, 68, 121
2, 23490, Note_on_c, 0, 74, 116
2, 23498, Note_on_c, 0, 62, 0
2, 23513, Note_on_c, 0, 74, 0
2, 23519, Note_on_c, 0, 68, 0
2, 23531, Note_on_c, 0, 53, 112
2, 23531, Note_on_c, 0, 59, 102
2, 23536, Note_on_c, 0, 74, 126
2, 23536, Note_on_c, 0, 62, 126
2, 23540, Note_on_c, 0, 59, 0
2, 23540, Note_on_c, 0, 53, 0
2, 23578, Control_c, 0, 64, 0
2, 23626, Note_on_c, 0, 62, 0
2, 23631, Note_on_c, 0, 74, 0
2, 23651, Note_on_c, 0, 62, 118
2, 23654, Note_on_c, 0, 74, 119
2, 23654, Note_on_c, 0, 53, 120
2, 23654, Note_on_c, 0, 59, 111
2, 23663, Note_on_c, 0, 59, 0
2, 23663, Note_on_c, 0, 53, 0
2, 23672, Note_on_c, 0, 62, 0
2, 23678, Note_on_c, 0, 74, 0
2, 23767, Note_on_c, 0, 74, 125
2, 23767, Note_on_c, 0, 69, 122
2, 23772, Note_on_c, 0, 42, 126
2, 23776, Control_c, 0, 64, 127
2, 23784, Note_on_c, 0, 42, 0
2, 23811, Note_on_c, 0, 62, 118
2, 23815, Note_on_c, 0, 69, 0
2, 23826, Note_on_c, 0, 74, 0
2, 23852, Note_on_c, 0, 69, 116
2, 23852, Note_on_c, 0, 74, 125
2, 23859, Note_on_c, 0, 62, 0
2, 23861, Note_on_c, 0, 69, 0
2, 23881, Note_on_c, 0, 74, 0
2, 23886, Note_on_c, 0, 54, 119
2, 23888, Note_on_c, 0, 57, 112
2, 23888, Note_on_c, 0, 74, 125
2, 23892, Note_on_c, 0, 69, 116
2, 23892, Note_on_c, 0, 62, 122
2, 23895, Note_on_c, 0, 54, 0
2, 23896, Note_on_c, 0, 57, 0
2, 23960, Control_c, 0, 64, 0
2, 23998, Note_on_c, 0, 62, 0
2, 24002, Note_on_c, 0, 74, 0
2, 24010, Note_on_c, 0, 57, 110
2, 24010, Note_on_c, 0, 54, 121
2, 24026, Note_on_c, 0, 57, 0
2, 24028, Note_on_c, 0, 54, 0
2, 24076, Note_on_c, 0, 73, 110
2, 24078, Note_on_c, 0, 61, 111
2, 24090, Note_on_c, 0, 61, 0
2, 24096, Note_on_c, 0, 73, 0
2, 24101, Note_on_c, 0, 69, 0
2, 24133, Note_on_c, 0, 41, 126
2, 24135, Note_on_c, 0, 68, 123
2, 24136, Note_on_c, 0, 74, 122
2, 24138, Control_c, 0, 64, 127
2, 24152, Note_on_c, 0, 41, 0
2, 24176, Note_on_c, 0, 62, 124
2, 24177, Note_on_c, 0, 68, 0
2, 24190, Note_on_c, 0, 74, 0
2, 24208, Note_on_c, 0, 74, 116
2, 24210, Note_on_c, 0, 68, 121
2, 24218, Note_on_c, 0, 62, 0
2, 24225, Note_on_c, 0, 68, 0
2, 24231, Note_on_c, 0, 74, 0
2, 24251, Note_on_c, 0, 53, 112
2, 24251, Note_on_c, 0, 59, 102
2, 24256, Note_on_c, 0, 74, 126
2, 24256, Note_on_c, 0, 68, 127
2, 24256, Note_on_c, 0, 62, 126
2, 24260, Note_on_c, 0, 59, 0
2, 24260, Note_on_c, 0, 53, 0
2, 24298, Control_c, 0, 64, 0
2, 24346, Note_on_c, 0, 62, 0
2, 24351, Note_on_c, 0, 74, 0
2, 24351, Note_on_c, 0, 68, 0
2, 24371, Note_on_c, 0, 62, 118
2, 24374, Note_on_c, 0, 68, 115
2, 24374, Note_on_c, 0, 74, 119
2, 24374, Note_on_c, 0, 53, 120
2, 24374, Note_on_c, 0, 59, 111
2, 24383, Note_on_c, 0, 59, 0
2, 24383, Note_on_c, 0, 53, 0
2, 24392, Note_on_c, 0, 62, 0
2, 24397, Note_on_c, 0, 68, 0
2, 24398, Note_on_c, 0, 74, 0
2, 24487, Note_on_c, 0, 74, 125
2, 24487, Note_on_c, 0, 69, 122
2, 24492, Note_on_c, 0, 42, 126
2, 24496, Control_c, 0, 64, 127
2, 24504, Note_on_c, 0, 42, 0
2, 24531, Note_on_c, 0, 62, 113
2, 24535, Note_on_c, 0, 69, 0
2, 24552, Note_on_c, 0, 74, 0
2, 24572, Note_on_c, 0, 69, 107
2, 24579, Note_on_c, 0, 62, 0
2, 24581, Note_on_c, 0, 69, 0
2, 24606, Note_on_c, 0, 54, 119
2, 24608, Note_on_c, 0, 57, 112
2, 24608, Note_on_c, 0, 74, 125
2, 24612, Note_on_c, 0, 69, 116
2, 24612, Note_on_c, 0, 62, 122
2, 24615, Note_on_c, 0, 54, 0
2, 24616, Note_on_c, 0, 57, 0
2, 24680, Control_c, 0, 64, 0
2, 24718, Note_on_c, 0, 62, 0
2, 24722, Note_on_c, 0, 74, 0
2, 24730, Note_on_c, 0, 57, 110
2, 24730, Note_on_c, 0, 54, 121
2, 24746, Note_on_c, 0, 57, 0
2, 24748, Note_on_c, 0, 54, 0
2, 24796, Note_on_c, 0, 73, 110
2, 24798, Note_on_c, 0, 61, 111
2, 24799, Note_on_c, 0, 69, 0
2, 24810, Note_on_c, 0, 61, 0
2, 24816, Note_on_c, 0, 73, 0
2, 24850, Note_on_c, 0, 40, 116
2, 24853, Control_c, 0, 64, 127
2, 24854, Note_on_c, 0, 74, 124
2, 24854, Note_on_c, 0, 68, 123
2, 24869, Note_on_c, 0, 40, 0
2, 24883, Note_on_c, 0, 68, 0
2, 24894, Note_on_c, 0, 62, 118
2, 24901, Note_on_c, 0, 74, 0
2, 24928, Note_on_c, 0, 68, 121
2, 24928, Note_on_c, 0, 74, 106
2, 24937, Note_on_c, 0, 62, 0
2, 24946, Note_on_c, 0, 68, 0
2, 24947, Note_on_c, 0, 74, 0
2, 24968, Note_on_c, 0, 52, 115
2, 24968, Note_on_c, 0, 59, 100
2, 24970, Note_on_c, 0, 74, 122
2, 24970, Note_on_c, 0, 62, 127
2, 24974, Note_on_c, 0, 68, 124
2, 24977, Note_on_c, 0, 52, 0
2, 24978, Note_on_c, 0, 59, 0
2, 25016, Control_c, 0, 64, 0
2, 25063, Note_on_c, 0, 62, 0
2, 25063, Note_on_c, 0, 74, 0
2, 25065, Note_on_c, 0, 68, 0
2, 25083, Note_on_c, 0, 52, 113
2, 25084, Note_on_c, 0, 74, 114
2, 25084, Note_on_c, 0, 68, 110
2, 25087, Note_on_c, 0, 59, 100
2, 25087, Note_on_c, 0, 62, 107
2, 25093, Note_on_c, 0, 52, 0
2, 25096, Note_on_c, 0, 59, 0
2, 25107, Note_on_c, 0, 62, 0
2, 25109, Note_on_c, 0, 68, 0
2, 25112, Note_on_c, 0, 74, 0
2, 25205, Note_on_c, 0, 74, 122
2, 25205, Note_on_c, 0, 45, 127
2, 25208, Control_c, 0, 64, 127
2, 25208, Note_on_c, 0, 69, 119
2, 25249, Note_on_c, 0, 62, 108
2, 25251, Note_on_c, 0, 69, 0
2, 25252, Note_on_c, 0, 74, 0
2, 25278, Note_on_c, 0, 74, 108
2, 25283, Note_on_c, 0, 69, 112
2, 25287, Note_on_c, 0, 62, 0
2, 25292, Note_on_c, 0, 69, 0
2, 25296, Note_on_c, 0, 74, 0
2, 25315, Note_on_c, 0, 57, 104
2, 25316, Note_on_c, 0, 52, 111
2, 25316, Note_on_c, 0, 45, 0
2, 25320, Note_on_c, 0, 74, 118
2, 25322, Note_on_c, 0, 62, 121
2, 25324, Note_on_c, 0, 69, 123
2, 25324, Note_on_c, 0, 57, 0
2, 25325, Note_on_c, 0, 52, 0
2, 25372, Note_on_c, 0, 62, 0
2, 25408, Note_on_c, 0, 74, 0
2, 25430, Control_c, 0, 64, 0
2, 25444, Note_on_c, 0, 57, 109
2, 25447, Note_on_c, 0, 52, 117
2, 25452, Note_on_c, 0, 57, 0
2, 25454, Note_on_c, 0, 52, 0
2, 25495, Note_on_c, 0, 61, 110
2, 25495, Note_on_c, 0, 69, 0
2, 25496, Note_on_c, 0, 73, 110
2, 25516, Note_on_c, 0, 61, 0
2, 25518, Note_on_c, 0, 73, 0
2, 25555, Note_on_c, 0, 40, 114
2, 25558, Note_on_c, 0, 74, 122
2, 25560, Note_on_c, 0, 68, 120
2, 25563, Control_c, 0, 64, 127
2, 25573, Note_on_c, 0, 40, 0
2, 25591, Note_on_c, 0, 68, 0
2, 25599, Note_on_c, 0, 62, 116
2, 25608, Note_on_c, 0, 74, 0
2, 25628, Note_on_c, 0, 74, 109
2, 25630, Note_on_c, 0, 68, 108
2, 25641, Note_on_c, 0, 62, 0
2, 25646, Note_on_c, 0, 74, 0
2, 25651, Note_on_c, 0, 68, 0
2, 25676, Note_on_c, 0, 68, 121
2, 25676, Note_on_c, 0, 52, 114
2, 25676, Note_on_c, 0, 74, 126
2, 25678, Note_on_c, 0, 62, 126
2, 25678, Note_on_c, 0, 59, 107
2, 25685, Note_on_c, 0, 59, 0
2, 25685, Note_on_c, 0, 52, 0
2, 25746, Note_on_c, 0, 62, 0
2, 25751, Note_on_c, 0, 74, 0
2, 25751, Note_on_c, 0, 68, 0
2, 25799, Note_on_c, 0, 74, 122
2, 25799, Note_on_c, 0, 62, 120
2, 25801, Note_on_c, 0, 52, 119
2, 25801, Note_on_c, 0, 59, 115
2, 25801, Note_on_c, 0, 68, 114
2, 25808, Note_on_c, 0, 59, 0
2, 25810, Note_on_c, 0, 52, 0
2, 25816, Note_on_c, 0, 68, 0
2, 25816, Note_on_c, 0, 62, 0
2, 25822, Note_on_c, 0, 74, 0
2, 25932, Note_on_c, 0, 74, 127
2, 25932, Note_on_c, 0, 67, 127
2, 25937, Note_on_c, 0, 45, 127
2, 25950, Control_c, 0, 64, 0
2, 25964, Control_c, 0, 64, 127
2, 25965, Note_on_c, 0, 45, 0
2, 25971, Note_on_c, 0, 62, 118
2, 25973, Note_on_c, 0, 67, 0
2, 25985, Note_on_c, 0, 74, 0
2, 26005, Note_on_c, 0, 74, 114
2, 26008, Note_on_c, 0, 67, 114
2, 26011, Note_on_c, 0, 62, 0
2, 26019, Note_on_c, 0, 74, 0
2, 26020, Note_on_c, 0, 67, 0
2, 26048, Note_on_c, 0, 74, 127
2, 26048, Note_on_c, 0, 62, 116
2, 26048, Note_on_c, 0, 64, 122
2, 26048, Note_on_c, 0, 57, 122
2, 26049, Note_on_c, 0, 67, 123
2, 26071, Note_on_c, 0, 57, 0
2, 26071, Note_on_c, 0, 64, 0
2, 26077, Note_on_c, 0, 62, 0
2, 26079, Control_c, 0, 64, 0
2, 26165, Note_on_c, 0, 61, 116
2, 26165, Note_on_c, 0, 57, 122
2, 26165, Note_on_c, 0, 64, 122
2, 26167, Note_on_c, 0, 74, 0
2, 26188, Control_c, 0, 64, 127
2, 26188, Note_on_c, 0, 57, 0
2, 26188, Note_on_c, 0, 64, 0
2, 26194, Note_on_c, 0, 61, 0
2, 26222, Note_on_c, 0, 67, 0
2, 26236, Note_on_c, 0, 73, 119
2, 26261, Note_on_c, 0, 73, 0
2, 26298, Note_on_c, 0, 69, 127
2, 26300, Note_on_c, 0, 50, 127
2, 26314, Control_c, 0, 64, 0
2, 26331, Control_c, 0, 64, 127
2, 26349, Note_on_c, 0, 69, 0
2, 26355, Note_on_c, 0, 73, 123
2, 26380, Note_on_c, 0, 73, 0
2, 26403, Note_on_c, 0, 62, 113
2, 26403, Note_on_c, 0, 54, 114
2, 26404, Note_on_c, 0, 74, 127
2, 26404, Note_on_c, 0, 57, 114
2, 26405, Note_on_c, 0, 50, 0
2, 26413, Note_on_c, 0, 57, 0
2, 26413, Note_on_c, 0, 54, 0
2, 26416, Note_on_c, 0, 62, 0
2, 26426, Control_c, 0, 64, 0
2, 26463, Note_on_c, 0, 76, 125
2, 26467, Note_on_c, 0, 74, 0
2, 26491, Note_on_c, 0, 76, 0
2, 26510, Note_on_c, 0, 62, 117
2, 26510, Note_on_c, 0, 54, 120
2, 26513, Note_on_c, 0, 57, 115
2, 26518, Note_on_c, 0, 78, 127
2, 26518, Note_on_c, 0, 62, 0
2, 26520, Note_on_c, 0, 57, 0
2, 26529, Note_on_c, 0, 54, 0
2, 26538, Note_on_c, 0, 78, 0
2, 26570, Note_on_c, 0, 79, 111
2, 26593, Note_on_c, 0, 79, 0
2, 26624, Control_c, 0, 64, 127
2, 26629, Note_on_c, 0, 45, 111
2, 26633, Note_on_c, 0, 78, 121
2, 26646, Note_on_c, 0, 45, 0
2, 26654, Note_on_c, 0, 78, 0
2, 26663, Note_on_c, 0, 79, 93
2, 26680, Note_on_c, 0, 78, 127
2, 26693, Note_on_c, 0, 79, 0
2, 26752, Note_on_c, 0, 61, 102
2, 26756, Note_on_c, 0, 57, 99
2, 26759, Note_on_c, 0, 76, 118
2, 26766, Note_on_c, 0, 57, 0
2, 26766, Note_on_c, 0, 61, 0
2, 26776, Control_c, 0, 64, 0
2, 26782, Note_on_c, 0, 78, 0
2, 26811, Note_on_c, 0, 76, 0
2, 26814, Note_on_c, 0, 74, 120
2, 26864, Note_on_c, 0, 61, 108
2, 26866, Note_on_c, 0, 52, 99
2, 26866, Note_on_c, 0, 57, 108
2, 26869, Note_on_c, 0, 73, 127
2, 26875, Note_on_c, 0, 74, 0
2, 26879, Note_on_c, 0, 61, 0
2, 26890, Note_on_c, 0, 52, 0
2, 26893, Note_on_c, 0, 57, 0
2, 26929, Note_on_c, 0, 73, 0
2, 26930, Note_on_c, 0, 71, 99
2, 26984, Note_on_c, 0, 71, 0
2, 26989, Note_on_c, 0, 38, 107
2, 26989, Note_on_c, 0, 69, 124
2, 26995, Control_c, 0, 64, 127
2, 27020, Note_on_c, 0, 38, 0
2, 27053, Note_on_c, 0, 74, 127
2, 27070, Note_on_c, 0, 69, 0
2, 27089, Note_on_c, 0, 74, 0
2, 27104, Note_on_c, 0, 50, 111
2, 27104, Note_on_c, 0, 62, 106
2, 27107, Note_on_c, 0, 57, 109
2, 27112, Note_on_c, 0, 74, 120
2, 27113, Note_on_c, 0, 62, 0
2, 27113, Note_on_c, 0, 50, 0
2, 27114, Note_on_c, 0, 57, 0
2, 27122, Note_on_c, 0, 74, 0
2, 27141, Note_on_c, 0, 76, 111
2, 27163, Note_on_c, 0, 74, 120
2, 27177, Note_on_c, 0, 76, 0
2, 27194, Control_c, 0, 64, 0
2, 27223, Note_on_c, 0, 50, 113
2, 27224, Note_on_c, 0, 73, 127
2, 27227, Note_on_c, 0, 57, 105
2, 27227, Note_on_c, 0, 62, 93
2, 27232, Note_on_c, 0, 50, 0
2, 27233, Note_on_c, 0, 74, 0
2, 27236, Note_on_c, 0, 57, 0
2, 27236, Note_on_c, 0, 62, 0
2, 27278, Note_on_c, 0, 73, 0
2, 27283, Note_on_c, 0, 71, 105
2, 27352, Note_on_c, 0, 73, 124
2, 27356, Note_on_c, 0, 45, 124
2, 27365, Note_on_c, 0, 71, 0
2, 27384, Control_c, 0, 64, 127
2, 27392, Note_on_c, 0, 45, 0
2, 27478, Note_on_c, 0, 69, 114
2, 27478, Note_on_c, 0, 57, 114
2, 27480, Note_on_c, 0, 64, 103
2, 27489, Note_on_c, 0, 57, 0
2, 27489, Note_on_c, 0, 69, 0
2, 27491, Note_on_c, 0, 64, 0
2, 27591, Note_on_c, 0, 69, 119
2, 27592, Note_on_c, 0, 67, 99
2, 27592, Note_on_c, 0, 57, 109
2, 27593, Note_on_c, 0, 64, 109
2, 27602, Note_on_c, 0, 64, 0
2, 27602, Note_on_c, 0, 57, 0
2, 27612, Note_on_c, 0, 67, 0
2, 27634, Note_on_c, 0, 73, 0
2, 27650, Note_on_c, 0, 69, 0
2, 27724, Control_c, 0, 64, 0
2, 27728, Note_on_c, 0, 50, 121
2, 27728, Note_on_c, 0, 69, 116
2, 27756, Control_c, 0, 64, 127
2, 27788, Note_on_c, 0, 73, 123
2, 27794, Note_on_c, 0, 69, 0
2, 27821, Note_on_c, 0, 50, 0
2, 27829, Note_on_c, 0, 73, 0
2, 27836, Note_on_c, 0, 74, 127
2, 27836, Note_on_c, 0, 57, 110
2, 27838, Note_on_c, 0, 62, 105
2, 27847, Note_on_c, 0, 57, 0
2, 27848, Note_on_c, 0, 62, 0
2, 27868, Control_c, 0, 64, 0
2, 27900, Note_on_c, 0, 76, 119
2, 27911, Note_on_c, 0, 74, 0
2, 27950, Note_on_c, 0, 62, 111
2, 27953, Note_on_c, 0, 54, 108
2, 27954, Note_on_c, 0, 78, 127
2, 27954, Note_on_c, 0, 57, 107
2, 27960, Note_on_c, 0, 62, 0
2, 27963, Note_on_c, 0, 76, 0
2, 27963, Note_on_c, 0, 57, 0
2, 27966, Note_on_c, 0, 54, 0
2, 28000, Note_on_c, 0, 78, 0
2, 28010, Note_on_c, 0, 79, 109
2, 28035, Note_on_c, 0, 79, 0
2, 28065, Note_on_c, 0, 43, 113
2, 28068, Note_on_c, 0, 78, 113
2, 28072, Control_c, 0, 64, 127
2, 28080, Note_on_c, 0, 78, 0
2, 28085, Note_on_c, 0, 79, 94
2, 28094, Note_on_c, 0, 43, 0
2, 28105, Note_on_c, 0, 78, 119
2, 28118, Note_on_c, 0, 79, 0
2, 28193, Note_on_c, 0, 64, 102
2, 28193, Note_on_c, 0, 59, 100
2, 28193, Note_on_c, 0, 76, 110
2, 28206, Note_on_c, 0, 59, 0
2, 28206, Note_on_c, 0, 64, 0
2, 28216, Control_c, 0, 64, 0
2, 28222, Note_on_c, 0, 78, 0
2, 28250, Note_on_c, 0, 76, 0
2, 28251, Note_on_c, 0, 74, 119
2, 28311, Note_on_c, 0, 64, 100
2, 28311, Note_on_c, 0, 59, 95
2, 28314, Note_on_c, 0, 73, 124
2, 28315, Note_on_c, 0, 55, 101
2, 28325, Note_on_c, 0, 64, 0
2, 28325, Note_on_c, 0, 74, 0
2, 28342, Note_on_c, 0, 59, 0
2, 28351, Note_on_c, 0, 55, 0
2, 28374, Note_on_c, 0, 71, 111
2, 28376, Note_on_c, 0, 73, 0
2, 28430, Note_on_c, 0, 45, 110
2, 28432, Note_on_c, 0, 71, 0
2, 28433, Note_on_c, 0, 69, 120
2, 28447, Control_c, 0, 64, 127
2, 28457, Note_on_c, 0, 45, 0
2, 28493, Note_on_c, 0, 73, 122
2, 28504, Note_on_c, 0, 69, 0
2, 28524, Note_on_c, 0, 73, 0
2, 28552, Note_on_c, 0, 57, 98
2, 28554, Note_on_c, 0, 73, 116
2, 28554, Note_on_c, 0, 67, 99
2, 28557, Note_on_c, 0, 64, 79
2, 28561, Note_on_c, 0, 57, 0
2, 28565, Note_on_c, 0, 64, 0
2, 28566, Note_on_c, 0, 73, 0
2, 28581, Note_on_c, 0, 74, 109
2, 28583, Note_on_c, 0, 67, 0
2, 28595, Control_c, 0, 64, 0
2, 28598, Note_on_c, 0, 73, 127
2, 28616, Note_on_c, 0, 74, 0
2, 28672, Note_on_c, 0, 57, 105
2, 28672, Note_on_c, 0, 71, 111
2, 28672, Note_on_c, 0, 67, 111
2, 28673, Note_on_c, 0, 64, 101
2, 28680, Note_on_c, 0, 73, 0
2, 28684, Note_on_c, 0, 64, 0
2, 28696, Note_on_c, 0, 57, 0
2, 28730, Note_on_c, 0, 71, 0
2, 28730, Note_on_c, 0, 67, 0
2, 28750, Note_on_c, 0, 69, 98
2, 28790, Note_on_c, 0, 69, 0
2, 28795, Note_on_c, 0, 74, 116
2, 28812, Note_on_c, 0, 38, 83
2, 28833, Control_c, 0, 64, 127
2, 28845, Note_on_c, 0, 38, 0
2, 28920, Note_on_c, 0, 50, 111
2, 28920, Note_on_c, 0, 62, 111
2, 28923, Note_on_c, 0, 57, 96
2, 28923, Note_on_c, 0, 66, 106
2, 28931, Note_on_c, 0, 57, 0
2, 28949, Note_on_c, 0, 62, 0
2, 28949, Note_on_c, 0, 50, 0
2, 28968, Note_on_c, 0, 66, 0
2, 29038, Note_on_c, 0, 50, 94
2, 29040, Note_on_c, 0, 62, 96
2, 29040, Note_on_c, 0, 57, 93
2, 29040, Note_on_c, 0, 66, 111
2, 29050, Note_on_c, 0, 57, 0
2, 29054, Note_on_c, 0, 62, 0
2, 29055, Note_on_c, 0, 50, 0
2, 29060, Note_on_c, 0, 66, 0
2, 29080, Note_on_c, 0, 74, 0
2, 29165, Note_on_c, 0, 50, 119
2, 29168, Note_on_c, 0, 69, 127
2, 29174, Control_c, 0, 64, 0
2, 29198, Control_c, 0, 64, 127
2, 29223, Note_on_c, 0, 73, 120
2, 29228, Note_on_c, 0, 69, 0
2, 29246, Note_on_c, 0, 50, 0
2, 29256, Note_on_c, 0, 73, 0
2, 29281, Note_on_c, 0, 62, 117
2, 29283, Note_on_c, 0, 74, 127
2, 29283, Note_on_c, 0, 54, 110
2, 29285, Note_on_c, 0, 57, 105
2, 29288, Note_on_c, 0, 50, 81
2, 29294, Note_on_c, 0, 57, 0
2, 29296, Note_on_c, 0, 54, 0
2, 29297, Note_on_c, 0, 50, 0
2, 29298, Note_on_c, 0, 62, 0
2, 29299, Control_c, 0, 64, 0
2, 29336, Note_on_c, 0, 76, 119
2, 29345, Note_on_c, 0, 74, 0
2, 29389, Note_on_c, 0, 54, 105
2, 29392, Note_on_c, 0, 78, 121
2, 29392, Note_on_c, 0, 57, 105
2, 29393, Note_on_c, 0, 50, 95
2, 29393, Note_on_c, 0, 62, 96
2, 29393, Note_on_c, 0, 76, 0
2, 29400, Note_on_c, 0, 57, 0
2, 29402, Note_on_c, 0, 50, 0
2, 29403, Note_on_c, 0, 54, 0
2, 29407, Note_on_c, 0, 62, 0
2, 29443, Note_on_c, 0, 78, 0
2, 29450, Note_on_c, 0, 79, 114
2, 29488, Note_on_c, 0, 79, 0
2, 29507, Note_on_c, 0, 45, 106
2, 29511, Note_on_c, 0, 78, 104
2, 29511, Control_c, 0, 64, 127
2, 29523, Note_on_c, 0, 45, 0
2, 29525, Note_on_c, 0, 78, 0
2, 29537, Note_on_c, 0, 79, 88
2, 29555, Note_on_c, 0, 78, 126
2, 29564, Note_on_c, 0, 79, 0
2, 29633, Note_on_c, 0, 61, 84
2, 29633, Note_on_c, 0, 57, 99
2, 29635, Note_on_c, 0, 52, 93
2, 29640, Note_on_c, 0, 76, 108
2, 29648, Note_on_c, 0, 52, 0
2, 29653, Note_on_c, 0, 61, 0
2, 29658, Note_on_c, 0, 57, 0
2, 29659, Control_c, 0, 64, 0
2, 29660, Note_on_c, 0, 78, 0
2, 29690, Note_on_c, 0, 76, 0
2, 29696, Note_on_c, 0, 74, 112
2, 29746, Note_on_c, 0, 52, 103
2, 29749, Note_on_c, 0, 61, 101
2, 29750, Note_on_c, 0, 73, 121
2, 29754, Note_on_c, 0, 57, 103
2, 29756, Note_on_c, 0, 74, 0
2, 29760, Note_on_c, 0, 61, 0
2, 29765, Note_on_c, 0, 57, 0
2, 29782, Note_on_c, 0, 52, 0
2, 29809, Note_on_c, 0, 71, 105
2, 29809, Note_on_c, 0, 73, 0
2, 29870, Note_on_c, 0, 71, 0
2, 29873, Note_on_c, 0, 38, 96
2, 29873, Note_on_c, 0, 69, 116
2, 29878, Control_c, 0, 64, 127
2, 29902, Note_on_c, 0, 38, 0
2, 29934, Note_on_c, 0, 74, 122
2, 29952, Note_on_c, 0, 69, 0
2, 29970, Note_on_c, 0, 74, 0
2, 29992, Note_on_c, 0, 50, 93
2, 29993, Note_on_c, 0, 62, 89
2, 29994, Note_on_c, 0, 57, 91
2, 29996, Note_on_c, 0, 74, 105
2, 30002, Note_on_c, 0, 62, 0
2, 30002, Note_on_c, 0, 50, 0
2, 30003, Note_on_c, 0, 57, 0
2, 30007, Note_on_c, 0, 74, 0
2, 30026, Note_on_c, 0, 76, 104
2, 30035, Control_c, 0, 64, 0
2, 30046, Note_on_c, 0, 74, 111
2, 30057, Note_on_c, 0, 76, 0
2, 30106, Note_on_c, 0, 73, 124
2, 30108, Note_on_c, 0, 50, 103
2, 30111, Note_on_c, 0, 57, 101
2, 30111, Note_on_c, 0, 62, 96
2, 30115, Note_on_c, 0, 74, 0
2, 30122, Note_on_c, 0, 57, 0
2, 30125, Note_on_c, 0, 62, 0
2, 30125, Note_on_c, 0, 50, 0
2, 30152, Note_on_c, 0, 73, 0
2, 30160, Note_on_c, 0, 71, 103
2, 30229, Note_on_c, 0, 73, 107
2, 30229, Note_on_c, 0, 71, 0
2, 30234, Note_on_c, 0, 45, 109
2, 30252, Control_c, 0, 64, 127
2, 30259, Note_on_c, 0, 45, 0
2, 30350, Note_on_c, 0, 61, 96
2, 30350, Note_on_c, 0, 69, 95
2, 30354, Note_on_c, 0, 57, 98
2, 30354, Note_on_c, 0, 64, 96
2, 30366, Note_on_c, 0, 57, 0
2, 30367, Note_on_c, 0, 61, 0
2, 30368, Note_on_c, 0, 64, 0
2, 30375, Note_on_c, 0, 69, 0
2, 30476, Note_on_c, 0, 69, 97
2, 30477, Note_on_c, 0, 67, 99
2, 30477, Note_on_c, 0, 64, 104
2, 30480, Note_on_c, 0, 61, 92
2, 30480, Note_on_c, 0, 57, 96
2, 30490, Note_on_c, 0, 73, 0
2, 30495, Note_on_c, 0, 64, 0
2, 30501, Note_on_c, 0, 67, 0
2, 30508, Note_on_c, 0, 61, 0
2, 30513, Note_on_c, 0, 57, 0
2, 30515, Note_on_c, 0, 69, 0
2, 30606, Note_on_c, 0, 50, 116
2, 30608, Note_on_c, 0, 69, 114
2, 30610, Control_c, 0, 64, 0
2, 30632, Control_c, 0, 64, 127
2, 30665, Note_on_c, 0, 69, 0
2, 30666, Note_on_c, 0, 73, 113
2, 30677, Note_on_c, 0, 50, 0
2, 30706, Note_on_c, 0, 73, 0
2, 30719, Note_on_c, 0, 74, 122
2, 30720, Note_on_c, 0, 62, 112
2, 30723, Note_on_c, 0, 57, 112
2, 30730, Control_c, 0, 64, 0
2, 30730, Note_on_c, 0, 57, 0
2, 30730, Note_on_c, 0, 62, 0
2, 30776, Note_on_c, 0, 76, 112
2, 30784, Note_on_c, 0, 74, 0
2, 30830, Note_on_c, 0, 50, 116
2, 30832, Note_on_c, 0, 62, 108
2, 30834, Note_on_c, 0, 57, 108
2, 30835, Note_on_c, 0, 78, 122
2, 30840, Note_on_c, 0, 62, 0
2, 30844, Note_on_c, 0, 57, 0
2, 30844, Note_on_c, 0, 76, 0
2, 30852, Note_on_c, 0, 50, 0
2, 30880, Note_on_c, 0, 78, 0
2, 30889, Note_on_c, 0, 79, 113
2, 30912, Note_on_c, 0, 79, 0
2, 30944, Note_on_c, 0, 78, 107
2, 30947, Note_on_c, 0, 43, 101
2, 30953, Control_c, 0, 64, 127
2, 30960, Note_on_c, 0, 78, 0
2, 30967, Note_on_c, 0, 79, 91
2, 30968, Note_on_c, 0, 43, 0
2, 30985, Note_on_c, 0, 78, 127
2, 31002, Note_on_c, 0, 79, 0
2, 31072, Note_on_c, 0, 59, 111
2, 31072, Note_on_c, 0, 64, 102
2, 31075, Note_on_c, 0, 76, 114
2, 31095, Note_on_c, 0, 64, 0
2, 31096, Note_on_c, 0, 59, 0
2, 31102, Control_c, 0, 64, 0
2, 31102, Note_on_c, 0, 78, 0
2, 31131, Note_on_c, 0, 76, 0
2, 31134, Note_on_c, 0, 74, 114
2, 31189, Note_on_c, 0, 64, 106
2, 31190, Note_on_c, 0, 55, 106
2, 31190, Note_on_c, 0, 73, 125
2, 31192, Note_on_c, 0, 59, 95
2, 31198, Note_on_c, 0, 74, 0
2, 31199, Note_on_c, 0, 64, 0
2, 31204, Note_on_c, 0, 59, 0
2, 31218, Note_on_c, 0, 55, 0
2, 31254, Note_on_c, 0, 71, 111
2, 31262, Note_on_c, 0, 73, 0
2, 31309, Note_on_c, 0, 45, 109
2, 31313, Note_on_c, 0, 69, 118
2, 31313, Note_on_c, 0, 71, 0
2, 31320, Control_c, 0, 64, 127
2, 31332, Note_on_c, 0, 45, 0
2, 31373, Note_on_c, 0, 73, 119
2, 31390, Note_on_c, 0, 69, 0
2, 31406, Note_on_c, 0, 73, 0
2, 31429, Note_on_c, 0, 64, 102
2, 31432, Note_on_c, 0, 57, 78
2, 31436, Note_on_c, 0, 73, 107
2, 31438, Note_on_c, 0, 64, 0
2, 31442, Note_on_c, 0, 57, 0
2, 31447, Note_on_c, 0, 73, 0
2, 31461, Note_on_c, 0, 74, 108
2, 31468, Control_c, 0, 64, 0
2, 31483, Note_on_c, 0, 73, 126
2, 31501, Note_on_c, 0, 74, 0
2, 31551, Note_on_c, 0, 71, 110
2, 31551, Note_on_c, 0, 64, 106
2, 31552, Note_on_c, 0, 57, 103
2, 31560, Note_on_c, 0, 64, 0
2, 31560, Note_on_c, 0, 73, 0
2, 31566, Note_on_c, 0, 57, 0
2, 31615, Note_on_c, 0, 71, 0
2, 31616, Note_on_c, 0, 69, 114
2, 31670, Note_on_c, 0, 69, 0
2, 31672, Note_on_c, 0, 38, 101
2, 31676, Note_on_c, 0, 74, 113
2, 31688, Control_c, 0, 64, 127
2, 31702, Note_on_c, 0, 38, 0
2, 31788, Note_on_c, 0, 50, 97
2, 31790, Note_on_c, 0, 57, 100
2, 31790, Note_on_c, 0, 66, 103
2, 31790, Note_on_c, 0, 62, 91
2, 31803, Note_on_c, 0, 57, 0
2, 31806, Note_on_c, 0, 50, 0
2, 31808, Note_on_c, 0, 62, 0
2, 31829, Note_on_c, 0, 66, 0
2, 31912, Note_on_c, 0, 50, 101
2, 31913, Note_on_c, 0, 62, 91
2, 31914, Note_on_c, 0, 57, 102
2, 31914, Note_on_c, 0, 66, 101
2, 31931, Note_on_c, 0, 62, 0
2, 31934, Note_on_c, 0, 74, 0
2, 31935, Note_on_c, 0, 50, 0
2, 31937, Note_on_c, 0, 66, 0
2, 31937, Note_on_c, 0, 57, 0
2, 32046, Note_on_c, 0, 64, 118
2, 32046, Note_on_c, 0, 45, 127
2, 32046, Control_c, 0, 64, 0
2, 32069, Control_c, 0, 64, 127
2, 32099, Note_on_c, 0, 64, 0
2, 32108, Note_on_c, 0, 68, 112
2, 32120, Note_on_c, 0, 45, 0
2, 32152, Note_on_c, 0, 68, 0
2, 32160, Note_on_c, 0, 61, 91
2, 32164, Note_on_c, 0, 52, 116
2, 32164, Note_on_c, 0, 45, 116
2, 32165, Note_on_c, 0, 57, 108
2, 32165, Note_on_c, 0, 69, 125
2, 32172, Note_on_c, 0, 45, 0
2, 32172, Note_on_c, 0, 52, 0
2, 32174, Note_on_c, 0, 57, 0
2, 32178, Note_on_c, 0, 61, 0
2, 32190, Control_c, 0, 64, 0
2, 32220, Note_on_c, 0, 71, 123
2, 32229, Note_on_c, 0, 69, 0
2, 32274, Note_on_c, 0, 45, 115
2, 32277, Note_on_c, 0, 52, 119
2, 32280, Note_on_c, 0, 57, 108
2, 32280, Note_on_c, 0, 61, 91
2, 32282, Note_on_c, 0, 73, 126
2, 32286, Note_on_c, 0, 52, 0
2, 32289, Note_on_c, 0, 71, 0
2, 32290, Note_on_c, 0, 57, 0
2, 32292, Note_on_c, 0, 45, 0
2, 32298, Note_on_c, 0, 61, 0
2, 32334, Note_on_c, 0, 74, 122
2, 32343, Note_on_c, 0, 73, 0
2, 32366, Note_on_c, 0, 74, 0
2, 32388, Note_on_c, 0, 73, 105
2, 32391, Note_on_c, 0, 40, 105
2, 32397, Control_c, 0, 64, 127
2, 32401, Note_on_c, 0, 73, 0
2, 32407, Note_on_c, 0, 74, 91
2, 32411, Note_on_c, 0, 40, 0
2, 32428, Note_on_c, 0, 73, 127
2, 32439, Note_on_c, 0, 74, 0
2, 32510, Note_on_c, 0, 59, 98
2, 32510, Note_on_c, 0, 52, 101
2, 32513, Note_on_c, 0, 71, 111
2, 32513, Note_on_c, 0, 62, 108
2, 32521, Note_on_c, 0, 52, 0
2, 32521, Note_on_c, 0, 59, 0
2, 32523, Note_on_c, 0, 62, 0
2, 32533, Note_on_c, 0, 73, 0
2, 32570, Note_on_c, 0, 71, 0
2, 32571, Note_on_c, 0, 69, 114
2, 32577, Control_c, 0, 64, 0
2, 32629, Note_on_c, 0, 59, 106
2, 32630, Note_on_c, 0, 52, 112
2, 32630, Note_on_c, 0, 68, 127
2, 32633, Note_on_c, 0, 62, 108
2, 32640, Note_on_c, 0, 59, 0
2, 32641, Note_on_c, 0, 69, 0
2, 32643, Note_on_c, 0, 62, 0
2, 32652, Note_on_c, 0, 52, 0
2, 32689, Note_on_c, 0, 66, 119
2, 32695, Note_on_c, 0, 68, 0
2, 32755, Note_on_c, 0, 64, 124
2, 32755, Note_on_c, 0, 33, 120
2, 32758, Note_on_c, 0, 66, 0
2, 32760, Control_c, 0, 64, 127
2, 32789, Note_on_c, 0, 33, 0
2, 32803, Note_on_c, 0, 64, 0
2, 32819, Note_on_c, 0, 69, 111
2, 32848, Note_on_c, 0, 69, 0
2, 32872, Note_on_c, 0, 52, 110
2, 32872, Note_on_c, 0, 45, 117
2, 32873, Note_on_c, 0, 69, 113
2, 32873, Note_on_c, 0, 61, 120
2, 32873, Note_on_c, 0, 57, 120
2, 32881, Note_on_c, 0, 45, 0
2, 32881, Note_on_c, 0, 52, 0
2, 32886, Note_on_c, 0, 69, 0
2, 32901, Note_on_c, 0, 71, 104
2, 32902, Note_on_c, 0, 57, 0
2, 32918, Note_on_c, 0, 69, 116
2, 32921, Note_on_c, 0, 61, 0
2, 32932, Note_on_c, 0, 71, 0
2, 32987, Note_on_c, 0, 68, 127
2, 32987, Note_on_c, 0, 52, 113
2, 32990, Note_on_c, 0, 45, 108
2, 32990, Note_on_c, 0, 57, 105
2, 32993, Control_c, 0, 64, 0
2, 32993, Note_on_c, 0, 61, 120
2, 32997, Note_on_c, 0, 57, 0
2, 32997, Note_on_c, 0, 52, 0
2, 32999, Note_on_c, 0, 45, 0
2, 32999, Note_on_c, 0, 69, 0
2, 33041, Note_on_c, 0, 61, 0
2, 33050, Note_on_c, 0, 66, 127
2, 33050, Note_on_c, 0, 68, 0
2, 33114, Note_on_c, 0, 68, 114
2, 33115, Note_on_c, 0, 40, 104
2, 33119, Note_on_c, 0, 66, 0
2, 33136, Control_c, 0, 64, 127
2, 33139, Note_on_c, 0, 40, 0
2, 33225, Note_on_c, 0, 52, 112
2, 33243, Note_on_c, 0, 52, 0
2, 33351, Note_on_c, 0, 59, 106
2, 33351, Note_on_c, 0, 52, 111
2, 33356, Note_on_c, 0, 64, 106
2, 33356, Note_on_c, 0, 62, 99
2, 33362, Note_on_c, 0, 59, 0
2, 33365, Note_on_c, 0, 52, 0
2, 33381, Note_on_c, 0, 62, 0
2, 33383, Note_on_c, 0, 64, 0
2, 33394, Note_on_c, 0, 68, 0
2, 33480, Note_on_c, 0, 45, 121
2, 33482, Note_on_c, 0, 64, 112
2, 33486, Control_c, 0, 64, 0
2, 33508, Control_c, 0, 64, 127
2, 33545, Note_on_c, 0, 64, 0
2, 33546, Note_on_c, 0, 68, 115
2, 33585, Note_on_c, 0, 45, 0
2, 33591, Note_on_c, 0, 68, 0
2, 33599, Note_on_c, 0, 52, 105
2, 33601, Note_on_c, 0, 69, 127
2, 33603, Note_on_c, 0, 57, 88
2, 33616, Control_c, 0, 64, 0
2, 33621, Note_on_c, 0, 57, 0
2, 33623, Note_on_c, 0, 52, 0
2, 33658, Note_on_c, 0, 71, 119
2, 33671, Note_on_c, 0, 69, 0
2, 33704, Note_on_c, 0, 45, 119
2, 33705, Note_on_c, 0, 57, 111
2, 33708, Note_on_c, 0, 52, 114
2, 33713, Note_on_c, 0, 73, 126
2, 33714, Note_on_c, 0, 57, 0
2, 33718, Note_on_c, 0, 52, 0
2, 33720, Note_on_c, 0, 71, 0
2, 33724, Note_on_c, 0, 45, 0
2, 33761, Note_on_c, 0, 73, 0
2, 33764, Note_on_c, 0, 74, 116
2, 33788, Note_on_c, 0, 74, 0
2, 33808, Note_on_c, 0, 73, 104
2, 33818, Note_on_c, 0, 38, 107
2, 33820, Control_c, 0, 64, 127
2, 33833, Note_on_c, 0, 73, 0
2, 33837, Note_on_c, 0, 38, 0
2, 33838, Note_on_c, 0, 74, 102
2, 33857, Note_on_c, 0, 73, 127
2, 33870, Note_on_c, 0, 74, 0
2, 33951, Note_on_c, 0, 54, 110
2, 33953, Note_on_c, 0, 59, 99
2, 33957, Note_on_c, 0, 71, 116
2, 33960, Note_on_c, 0, 54, 0
2, 33962, Note_on_c, 0, 59, 0
2, 33980, Note_on_c, 0, 73, 0
2, 33984, Control_c, 0, 64, 0
2, 34017, Note_on_c, 0, 71, 0
2, 34019, Note_on_c, 0, 69, 117
2, 34074, Note_on_c, 0, 54, 105
2, 34075, Note_on_c, 0, 59, 97
2, 34076, Note_on_c, 0, 50, 103
2, 34078, Note_on_c, 0, 68, 127
2, 34084, Note_on_c, 0, 59, 0
2, 34087, Note_on_c, 0, 69, 0
2, 34096, Note_on_c, 0, 54, 0
2, 34097, Note_on_c, 0, 50, 0
2, 34136, Note_on_c, 0, 66, 120
2, 34145, Note_on_c, 0, 68, 0
2, 34188, Note_on_c, 0, 40, 104
2, 34195, Note_on_c, 0, 66, 0
2, 34197, Note_on_c, 0, 64, 121
2, 34199, Control_c, 0, 64, 127
2, 34209, Note_on_c, 0, 40, 0
2, 34248, Note_on_c, 0, 68, 113
2, 34249, Note_on_c, 0, 64, 0
2, 34271, Note_on_c, 0, 68, 0
2, 34312, Note_on_c, 0, 59, 95
2, 34313, Note_on_c, 0, 52, 103
2, 34314, Note_on_c, 0, 68, 117
2, 34322, Note_on_c, 0, 52, 0
2, 34322, Note_on_c, 0, 59, 0
2, 34328, Note_on_c, 0, 68, 0
2, 34344, Note_on_c, 0, 69, 106
2, 34348, Control_c, 0, 64, 0
2, 34359, Note_on_c, 0, 68, 127
2, 34376, Note_on_c, 0, 69, 0
2, 34427, Note_on_c, 0, 66, 121
2, 34435, Note_on_c, 0, 52, 108
2, 34437, Note_on_c, 0, 59, 94
2, 34445, Note_on_c, 0, 68, 0
2, 34448, Note_on_c, 0, 59, 0
2, 34453, Note_on_c, 0, 52, 0
2, 34490, Note_on_c, 0, 66, 0
2, 34494, Note_on_c, 0, 64, 112
2, 34559, Note_on_c, 0, 64, 0
2, 34561, Note_on_c, 0, 69, 107
2, 34563, Note_on_c, 0, 33, 105
2, 34578, Control_c, 0, 64, 127
2, 34588, Note_on_c, 0, 33, 0
2, 34675, Note_on_c, 0, 52, 94
2, 34678, Note_on_c, 0, 45, 87
2, 34678, Note_on_c, 0, 61, 101
2, 34678, Note_on_c, 0, 57, 78
2, 34692, Note_on_c, 0, 45, 0
2, 34693, Note_on_c, 0, 52, 0
2, 34698, Note_on_c, 0, 57, 0
2, 34720, Note_on_c, 0, 61, 0
2, 34794, Note_on_c, 0, 45, 97
2, 34800, Note_on_c, 0, 52, 103
2, 34800, Note_on_c, 0, 61, 95
2, 34805, Note_on_c, 0, 57, 63
2, 34816, Note_on_c, 0, 57, 0
2, 34816, Note_on_c, 0, 45, 0
2, 34817, Note_on_c, 0, 61, 0
2, 34824, Note_on_c, 0, 52, 0
2, 34826, Note_on_c, 0, 69, 0
2, 34925, Control_c, 0, 64, 0
2, 34929, Note_on_c, 0, 64, 104
2, 34929, Note_on_c, 0, 45, 111
2, 34949, Control_c, 0, 64, 127
2, 34986, Note_on_c, 0, 68, 106
2, 34989, Note_on_c, 0, 64, 0
2, 35035, Note_on_c, 0, 68, 0
2, 35039, Note_on_c, 0, 52, 106
2, 35045, Note_on_c, 0, 57, 83
2, 35045, Note_on_c, 0, 45, 0
2, 35049, Note_on_c, 0, 69, 117
2, 35050, Note_on_c, 0, 52, 0
2, 35056, Note_on_c, 0, 57, 0
2, 35058, Control_c, 0, 64, 0
2, 35100, Note_on_c, 0, 69, 0
2, 35103, Note_on_c, 0, 71, 90
2, 35160, Note_on_c, 0, 57, 97
2, 35164, Note_on_c, 0, 45, 100
2, 35166, Note_on_c, 0, 52, 94
2, 35166, Note_on_c, 0, 73, 95
2, 35169, Note_on_c, 0, 71, 0
2, 35176, Note_on_c, 0, 57, 0
2, 35189, Note_on_c, 0, 45, 0
2, 35190, Note_on_c, 0, 52, 0
2, 35210, Note_on_c, 0, 73, 0
2, 35221, Note_on_c, 0, 74, 104
2, 35268, Note_on_c, 0, 74, 0
2, 35272, Note_on_c, 0, 73, 97
2, 35278, Note_on_c, 0, 40, 95
2, 35285, Control_c, 0, 64, 127
2, 35291, Note_on_c, 0, 73, 0
2, 35300, Note_on_c, 0, 74, 95
2, 35310, Note_on_c, 0, 40, 0
2, 35319, Note_on_c, 0, 73, 112
2, 35326, Note_on_c, 0, 74, 0
2, 35408, Note_on_c, 0, 52, 99
2, 35410, Note_on_c, 0, 71, 103
2, 35411, Note_on_c, 0, 59, 81
2, 35422, Control_c, 0, 64, 0
2, 35422, Note_on_c, 0, 52, 0
2, 35425, Note_on_c, 0, 59, 0
2, 35431, Note_on_c, 0, 73, 0
2, 35455, Note_on_c, 0, 71, 0
2, 35464, Note_on_c, 0, 69, 106
2, 35515, Note_on_c, 0, 68, 114
2, 35516, Note_on_c, 0, 52, 99
2, 35516, Note_on_c, 0, 59, 91
2, 35519, Note_on_c, 0, 69, 0
2, 35533, Note_on_c, 0, 59, 0
2, 35534, Note_on_c, 0, 52, 0
2, 35570, Note_on_c, 0, 66, 99
2, 35578, Note_on_c, 0, 68, 0
2, 35625, Note_on_c, 0, 66, 0
2, 35626, Note_on_c, 0, 45, 121
2, 35630, Note_on_c, 0, 64, 105
2, 35643, Control_c, 0, 64, 127
2, 35675, Note_on_c, 0, 64, 0
2, 35690, Note_on_c, 0, 69, 110
2, 35701, Note_on_c, 0, 69, 0
2, 35739, Note_on_c, 0, 52, 106
2, 35739, Note_on_c, 0, 45, 0
2, 35742, Note_on_c, 0, 57, 86
2, 35747, Note_on_c, 0, 52, 0
2, 35749, Note_on_c, 0, 69, 104
2, 35752, Note_on_c, 0, 57, 0
2, 35761, Note_on_c, 0, 69, 0
2, 35768, Control_c, 0, 64, 0
2, 35779, Note_on_c, 0, 71, 90
2, 35804, Note_on_c, 0, 71, 0
2, 35811, Note_on_c, 0, 69, 99
2, 35864, Note_on_c, 0, 57, 83
2, 35864, Note_on_c, 0, 45, 86
2, 35866, Note_on_c, 0, 68, 114
2, 35866, Note_on_c, 0, 52, 100
2, 35867, Note_on_c, 0, 69, 0
2, 35875, Note_on_c, 0, 57, 0
2, 35876, Note_on_c, 0, 45, 0
2, 35877, Note_on_c, 0, 52, 0
2, 35936, Note_on_c, 0, 66, 108
2, 35939, Note_on_c, 0, 68, 0
2, 35998, Note_on_c, 0, 68, 104
2, 35998, Note_on_c, 0, 40, 96
2, 35998, Note_on_c, 0, 66, 0
2, 36005, Control_c, 0, 64, 127
2, 36027, Note_on_c, 0, 40, 0
2, 36109, Note_on_c, 0, 52, 89
2, 36151, Note_on_c, 0, 52, 0
2, 36222, Note_on_c, 0, 64, 99
2, 36227, Note_on_c, 0, 62, 105
2, 36229, Note_on_c, 0, 59, 93
2, 36229, Note_on_c, 0, 52, 99
2, 36247, Note_on_c, 0, 59, 0
2, 36251, Note_on_c, 0, 62, 0
2, 36254, Note_on_c, 0, 52, 0
2, 36261, Note_on_c, 0, 64, 0
2, 36348, Note_on_c, 0, 68, 0
2, 36360, Note_on_c, 0, 45, 114
2, 36362, Note_on_c, 0, 64, 120
2, 36371, Control_c, 0, 64, 0
2, 36394, Control_c, 0, 64, 127
2, 36425, Note_on_c, 0, 68, 112
2, 36425, Note_on_c, 0, 64, 0
2, 36471, Note_on_c, 0, 68, 0
2, 36475, Note_on_c, 0, 57, 103
2, 36475, Note_on_c, 0, 52, 111
2, 36479, Note_on_c, 0, 45, 0
2, 36480, Note_on_c, 0, 69, 126
2, 36485, Note_on_c, 0, 52, 0
2, 36485, Note_on_c, 0, 57, 0
2, 36498, Control_c, 0, 64, 0
2, 36534, Note_on_c, 0, 71, 113
2, 36543, Note_on_c, 0, 69, 0
2, 36593, Note_on_c, 0, 45, 122
2, 36593, Note_on_c, 0, 57, 107
2, 36597, Note_on_c, 0, 52, 109
2, 36599, Note_on_c, 0, 73, 119
2, 36603, Note_on_c, 0, 57, 0
2, 36603, Note_on_c, 0, 45, 0
2, 36606, Note_on_c, 0, 71, 0
2, 36606, Note_on_c, 0, 52, 0
2, 36656, Note_on_c, 0, 74, 116
2, 36663, Note_on_c, 0, 73, 0
2, 36686, Note_on_c, 0, 74, 0
2, 36707, Note_on_c, 0, 73, 103
2, 36711, Note_on_c, 0, 38, 107
2, 36722, Control_c, 0, 64, 127
2, 36722, Note_on_c, 0, 73, 0
2, 36732, Note_on_c, 0, 74, 79
2, 36737, Note_on_c, 0, 38, 0
2, 36748, Note_on_c, 0, 73, 126
2, 36760, Note_on_c, 0, 74, 0
2, 36832, Note_on_c, 0, 54, 106
2, 36837, Note_on_c, 0, 59, 94
2, 36837, Note_on_c, 0, 71, 101
2, 36849, Note_on_c, 0, 59, 0
2, 36855, Control_c, 0, 64, 0
2, 36856, Note_on_c, 0, 73, 0
2, 36856, Note_on_c, 0, 54, 0
2, 36890, Note_on_c, 0, 71, 0
2, 36903, Note_on_c, 0, 69, 103
2, 36955, Note_on_c, 0, 54, 97
2, 36956, Note_on_c, 0, 68, 116
2, 36959, Note_on_c, 0, 50, 99
2, 36959, Note_on_c, 0, 59, 89
2, 36960, Note_on_c, 0, 69, 0
2, 36970, Note_on_c, 0, 59, 0
2, 36984, Note_on_c, 0, 54, 0
2, 36993, Note_on_c, 0, 50, 0
2, 37015, Note_on_c, 0, 66, 110
2, 37020, Note_on_c, 0, 68, 0
2, 37070, Note_on_c, 0, 40, 104
2, 37077, Note_on_c, 0, 66, 0
2, 37078, Note_on_c, 0, 64, 109
2, 37079, Control_c, 0, 64, 127
2, 37101, Note_on_c, 0, 40, 0
2, 37137, Note_on_c, 0, 68, 107
2, 37143, Note_on_c, 0, 64, 0
2, 37166, Note_on_c, 0, 68, 0
2, 37192, Note_on_c, 0, 52, 104
2, 37194, Note_on_c, 0, 59, 96
2, 37200, Note_on_c, 0, 68, 111
2, 37202, Note_on_c, 0, 52, 0
2, 37205, Note_on_c, 0, 59, 0
2, 37211, Note_on_c, 0, 68, 0
2, 37228, Control_c, 0, 64, 0
2, 37230, Note_on_c, 0, 69, 104
2, 37252, Note_on_c, 0, 68, 122
2, 37262, Note_on_c, 0, 69, 0
2, 37317, Note_on_c, 0, 59, 96
2, 37317, Note_on_c, 0, 66, 114
2, 37317, Note_on_c, 0, 52, 107
2, 37329, Note_on_c, 0, 59, 0
2, 37331, Note_on_c, 0, 68, 0
2, 37336, Note_on_c, 0, 52, 0
2, 37375, Note_on_c, 0, 66, 0
2, 37383, Note_on_c, 0, 64, 107
2, 37439, Note_on_c, 0, 33, 104
2, 37439, Note_on_c, 0, 64, 0
2, 37444, Note_on_c, 0, 69, 94
2, 37456, Control_c, 0, 64, 127
2, 37468, Note_on_c, 0, 33, 0
2, 37558, Note_on_c, 0, 61, 103
2, 37577, Note_on_c, 0, 61, 0
2, 37678, Note_on_c, 0, 61, 88
2, 37680, Note_on_c, 0, 67, 107
2, 37685, Note_on_c, 0, 57, 99
2, 37690, Note_on_c, 0, 69, 0
2, 37695, Note_on_c, 0, 61, 0
2, 37709, Note_on_c, 0, 67, 0
2, 37804, Note_on_c, 0, 50, 127
2, 37806, Note_on_c, 0, 66, 121
2, 37806, Note_on_c, 0, 57, 0
2, 37823, Control_c, 0, 64, 0
2, 37841, Control_c, 0, 64, 127
2, 37847, Note_on_c, 0, 66, 0
2, 37874, Note_on_c, 0, 73, 122
2, 37904, Note_on_c, 0, 73, 0
2, 37923, Note_on_c, 0, 54, 113
2, 37923, Note_on_c, 0, 57, 111
2, 37924, Note_on_c, 0, 74, 127
2, 37925, Note_on_c, 0, 62, 99
2, 37928, Note_on_c, 0, 50, 0
2, 37933, Note_on_c, 0, 54, 0
2, 37933, Note_on_c, 0, 57, 0
2, 37938, Note_on_c, 0, 62, 0
2, 37951, Control_c, 0, 64, 0
2, 37987, Note_on_c, 0, 76, 125
2, 37998, Note_on_c, 0, 74, 0
2, 38040, Note_on_c, 0, 50, 112
2, 38043, Note_on_c, 0, 54, 119
2, 38043, Note_on_c, 0, 78, 127
2, 38043, Note_on_c, 0, 62, 106
2, 38043, Note_on_c, 0, 57, 114
2, 38052, Note_on_c, 0, 57, 0
2, 38052, Note_on_c, 0, 76, 0
2, 38055, Note_on_c, 0, 62, 0
2, 38064, Note_on_c, 0, 50, 0
2, 38066, Note_on_c, 0, 54, 0
2, 38098, Note_on_c, 0, 78, 0
2, 38104, Note_on_c, 0, 79, 116
2, 38145, Note_on_c, 0, 79, 0
2, 38160, Note_on_c, 0, 78, 102
2, 38162, Note_on_c, 0, 45, 105
2, 38167, Control_c, 0, 64, 127
2, 38172, Note_on_c, 0, 78, 0
2, 38183, Note_on_c, 0, 79, 100
2, 38189, Note_on_c, 0, 45, 0
2, 38200, Note_on_c, 0, 78, 127
2, 38215, Note_on_c, 0, 79, 0
2, 38279, Note_on_c, 0, 52, 105
2, 38279, Note_on_c, 0, 61, 98
2, 38282, Note_on_c, 0, 57, 100
2, 38285, Note_on_c, 0, 76, 115
2, 38302, Note_on_c, 0, 52, 0
2, 38305, Note_on_c, 0, 57, 0
2, 38305, Note_on_c, 0, 61, 0
2, 38314, Note_on_c, 0, 78, 0
2, 38322, Control_c, 0, 64, 0
2, 38344, Note_on_c, 0, 74, 125
2, 38352, Note_on_c, 0, 76, 0
2, 38399, Note_on_c, 0, 61, 105
2, 38399, Note_on_c, 0, 52, 107
2, 38399, Note_on_c, 0, 73, 124
2, 38403, Note_on_c, 0, 57, 103
2, 38414, Note_on_c, 0, 74, 0
2, 38417, Note_on_c, 0, 61, 0
2, 38432, Note_on_c, 0, 57, 0
2, 38445, Note_on_c, 0, 52, 0
2, 38459, Note_on_c, 0, 71, 108
2, 38463, Note_on_c, 0, 73, 0
2, 38517, Note_on_c, 0, 38, 94
2, 38518, Note_on_c, 0, 69, 120
2, 38520, Note_on_c, 0, 71, 0
2, 38524, Control_c, 0, 64, 127
2, 38546, Note_on_c, 0, 38, 0
2, 38581, Note_on_c, 0, 74, 122
2, 38597, Note_on_c, 0, 69, 0
2, 38616, Note_on_c, 0, 74, 0
2, 38636, Note_on_c, 0, 62, 96
2, 38636, Note_on_c, 0, 50, 98
2, 38638, Note_on_c, 0, 57, 103
2, 38638, Note_on_c, 0, 74, 118
2, 38647, Note_on_c, 0, 57, 0
2, 38647, Note_on_c, 0, 62, 0
2, 38648, Note_on_c, 0, 50, 0
2, 38651, Note_on_c, 0, 74, 0
2, 38669, Note_on_c, 0, 76, 109
2, 38689, Note_on_c, 0, 74, 121
2, 38691, Control_c, 0, 64, 0
2, 38705, Note_on_c, 0, 76, 0
2, 38751, Note_on_c, 0, 73, 127
2, 38757, Note_on_c, 0, 57, 106
2, 38757, Note_on_c, 0, 50, 102
2, 38757, Note_on_c, 0, 62, 96
2, 38760, Note_on_c, 0, 74, 0
2, 38769, Note_on_c, 0, 62, 0
2, 38787, Note_on_c, 0, 57, 0
2, 38791, Note_on_c, 0, 50, 0
2, 38801, Note_on_c, 0, 73, 0
2, 38807, Note_on_c, 0, 71, 105
2, 38872, Note_on_c, 0, 73, 112
2, 38879, Note_on_c, 0, 45, 105
2, 38883, Note_on_c, 0, 71, 0
2, 38910, Control_c, 0, 64, 127
2, 38915, Note_on_c, 0, 45, 0
2, 38985, Note_on_c, 0, 57, 92
2, 38992, Note_on_c, 0, 69, 99
2, 39017, Note_on_c, 0, 57, 0
2, 39018, Note_on_c, 0, 69, 0
2, 39114, Note_on_c, 0, 69, 100
2, 39114, Note_on_c, 0, 64, 101
2, 39117, Note_on_c, 0, 57, 101
2, 39117, Note_on_c, 0, 67, 87
2, 39131, Note_on_c, 0, 67, 0
2, 39137, Note_on_c, 0, 64, 0
2, 39148, Note_on_c, 0, 57, 0
2, 39149, Note_on_c, 0, 69, 0
2, 39168, Note_on_c, 0, 73, 0
2, 39258, Note_on_c, 0, 50, 114
2, 39259, Control_c, 0, 64, 0
2, 39262, Note_on_c, 0, 69, 93
2, 39282, Control_c, 0, 64, 127
2, 39320, Note_on_c, 0, 73, 101
2, 39320, Note_on_c, 0, 69, 0
2, 39363, Note_on_c, 0, 73, 0
2, 39367, Note_on_c, 0, 57, 103
2, 39367, Note_on_c, 0, 62, 100
2, 39370, Note_on_c, 0, 74, 123
2, 39370, Note_on_c, 0, 50, 0
2, 39378, Note_on_c, 0, 57, 0
2, 39381, Note_on_c, 0, 62, 0
2, 39395, Control_c, 0, 64, 0
2, 39423, Note_on_c, 0, 76, 119
2, 39434, Note_on_c, 0, 74, 0
2, 39479, Note_on_c, 0, 50, 105
2, 39483, Note_on_c, 0, 62, 99
2, 39483, Note_on_c, 0, 57, 108
2, 39488, Note_on_c, 0, 78, 117
2, 39493, Note_on_c, 0, 62, 0
2, 39495, Note_on_c, 0, 57, 0
2, 39498, Note_on_c, 0, 76, 0
2, 39505, Note_on_c, 0, 50, 0
2, 39532, Note_on_c, 0, 78, 0
2, 39543, Note_on_c, 0, 79, 102
2, 39583, Note_on_c, 0, 79, 0
2, 39588, Note_on_c, 0, 78, 99
2, 39597, Note_on_c, 0, 43, 98
2, 39607, Note_on_c, 0, 78, 0
2, 39612, Control_c, 0, 64, 127
2, 39614, Note_on_c, 0, 79, 95
2, 39632, Note_on_c, 0, 43, 0
2, 39633, Note_on_c, 0, 78, 117
2, 39649, Note_on_c, 0, 79, 0
2, 39719, Note_on_c, 0, 59, 98
2, 39721, Note_on_c, 0, 64, 96
2, 39721, Note_on_c, 0, 76, 111
2, 39748, Note_on_c, 0, 64, 0
2, 39754, Control_c, 0, 64, 0
2, 39754, Note_on_c, 0, 78, 0
2, 39757, Note_on_c, 0, 59, 0
2, 39781, Note_on_c, 0, 76, 0
2, 39783, Note_on_c, 0, 74, 112
2, 39832, Note_on_c, 0, 73, 124
2, 39832, Note_on_c, 0, 55, 94
2, 39832, Note_on_c, 0, 64, 100
2, 39832, Note_on_c, 0, 59, 95
2, 39839, Note_on_c, 0, 74, 0
2, 39845, Note_on_c, 0, 64, 0
2, 39862, Note_on_c, 0, 59, 0
2, 39877, Note_on_c, 0, 55, 0
2, 39893, Note_on_c, 0, 71, 108
2, 39895, Note_on_c, 0, 73, 0
2, 39946, Note_on_c, 0, 45, 92
2, 39957, Note_on_c, 0, 69, 115
2, 39957, Note_on_c, 0, 71, 0
2, 39959, Control_c, 0, 64, 127
2, 39982, Note_on_c, 0, 45, 0
2, 40014, Note_on_c, 0, 73, 119
2, 40031, Note_on_c, 0, 69, 0
2, 40041, Note_on_c, 0, 73, 0
2, 40069, Note_on_c, 0, 64, 101
2, 40071, Note_on_c, 0, 57, 87
2, 40073, Note_on_c, 0, 73, 110
2, 40078, Note_on_c, 0, 64, 0
2, 40080, Note_on_c, 0, 57, 0
2, 40086, Note_on_c, 0, 73, 0
2, 40105, Note_on_c, 0, 74, 99
2, 40112, Control_c, 0, 64, 0
2, 40127, Note_on_c, 0, 73, 114
2, 40137, Note_on_c, 0, 74, 0
2, 40187, Note_on_c, 0, 71, 104
2, 40190, Note_on_c, 0, 57, 103
2, 40191, Note_on_c, 0, 64, 105
2, 40196, Note_on_c, 0, 73, 0
2, 40200, Note_on_c, 0, 64, 0
2, 40214, Note_on_c, 0, 57, 0
2, 40246, Note_on_c, 0, 71, 0
2, 40248, Note_on_c, 0, 69, 114
2, 40305, Note_on_c, 0, 38, 98
2, 40309, Note_on_c, 0, 74, 99
2, 40309, Note_on_c, 0, 69, 0
2, 40325, Control_c, 0, 64, 127
2, 40334, Note_on_c, 0, 38, 0
2, 40429, Note_on_c, 0, 62, 82
2, 40430, Note_on_c, 0, 57, 87
2, 40433, Note_on_c, 0, 66, 88
2, 40440, Note_on_c, 0, 57, 0
2, 40446, Note_on_c, 0, 62, 0
2, 40466, Note_on_c, 0, 66, 0
2, 40552, Note_on_c, 0, 54, 80
2, 40554, Note_on_c, 0, 66, 94
2, 40554, Note_on_c, 0, 50, 74
2, 40554, Note_on_c, 0, 62, 69
2, 40560, Note_on_c, 0, 57, 78
2, 40566, Note_on_c, 0, 50, 0
2, 40566, Note_on_c, 0, 54, 0
2, 40567, Note_on_c, 0, 62, 0
2, 40567, Note_on_c, 0, 57, 0
2, 40571, Note_on_c, 0, 66, 0
2, 40577, Note_on_c, 0, 74, 0
2, 40677, Note_on_c, 0, 50, 107
2, 40677, Control_c, 0, 64, 0
2, 40684, Note_on_c, 0, 69, 107
2, 40691, Control_c, 0, 64, 127
2, 40748, Note_on_c, 0, 73, 108
2, 40755, Note_on_c, 0, 69, 0
2, 40784, Note_on_c, 0, 73, 0
2, 40790, Note_on_c, 0, 62, 91
2, 40792, Note_on_c, 0, 54, 89
2, 40792, Note_on_c, 0, 57, 96
2, 40799, Note_on_c, 0, 74, 109
2, 40799, Note_on_c, 0, 50, 0
2, 40804, Note_on_c, 0, 54, 0
2, 40807, Note_on_c, 0, 57, 0
2, 40809, Note_on_c, 0, 62, 0
2, 40826, Control_c, 0, 64, 0
2, 40863, Note_on_c, 0, 76, 111
2, 40881, Note_on_c, 0, 74, 0
2, 40913, Note_on_c, 0, 54, 94
2, 40914, Note_on_c, 0, 50, 90
2, 40915, Note_on_c, 0, 62, 77
2, 40917, Note_on_c, 0, 57, 96
2, 40919, Note_on_c, 0, 78, 110
2, 40926, Note_on_c, 0, 62, 0
2, 40927, Note_on_c, 0, 57, 0
2, 40933, Note_on_c, 0, 76, 0
2, 40938, Note_on_c, 0, 54, 0
2, 40938, Note_on_c, 0, 50, 0
2, 40973, Note_on_c, 0, 78, 0
2, 40976, Note_on_c, 0, 79, 102
2, 41029, Note_on_c, 0, 79, 0
2, 41033, Note_on_c, 0, 78, 98
2, 41036, Note_on_c, 0, 45, 99
2, 41043, Control_c, 0, 64, 127
2, 41052, Note_on_c, 0, 78, 0
2, 41059, Note_on_c, 0, 79, 90
2, 41064, Note_on_c, 0, 45, 0
2, 41078, Note_on_c, 0, 78, 119
2, 41088, Note_on_c, 0, 79, 0
2, 41160, Note_on_c, 0, 76, 107
2, 41162, Note_on_c, 0, 61, 76
2, 41162, Note_on_c, 0, 57, 87
2, 41166, Note_on_c, 0, 52, 85
2, 41175, Note_on_c, 0, 57, 0
2, 41176, Note_on_c, 0, 52, 0
2, 41178, Note_on_c, 0, 61, 0
2, 41180, Control_c, 0, 64, 0
2, 41185, Note_on_c, 0, 78, 0
2, 41220, Note_on_c, 0, 74, 114
2, 41220, Note_on_c, 0, 76, 0
2, 41269, Note_on_c, 0, 61, 95
2, 41272, Note_on_c, 0, 52, 84
2, 41272, Note_on_c, 0, 73, 120
2, 41275, Note_on_c, 0, 57, 94
2, 41281, Note_on_c, 0, 74, 0
2, 41290, Note_on_c, 0, 57, 0
2, 41292, Note_on_c, 0, 61, 0
2, 41310, Note_on_c, 0, 52, 0
2, 41334, Note_on_c, 0, 71, 101
2, 41339, Note_on_c, 0, 73, 0
2, 41389, Note_on_c, 0, 38, 99
2, 41393, Note_on_c, 0, 71, 0
2, 41397, Note_on_c, 0, 69, 107
2, 41407, Control_c, 0, 64, 127
2, 41421, Note_on_c, 0, 38, 0
2, 41458, Note_on_c, 0, 74, 93
2, 41464, Note_on_c, 0, 69, 0
2, 41486, Note_on_c, 0, 74, 0
2, 41512, Note_on_c, 0, 57, 87
2, 41514, Note_on_c, 0, 74, 104
2, 41522, Note_on_c, 0, 57, 0
2, 41526, Note_on_c, 0, 74, 0
2, 41543, Note_on_c, 0, 76, 104
2, 41546, Control_c, 0, 64, 0
2, 41563, Note_on_c, 0, 74, 119
2, 41577, Note_on_c, 0, 76, 0
2, 41633, Note_on_c, 0, 73, 115
2, 41640, Note_on_c, 0, 50, 98
2, 41640, Note_on_c, 0, 57, 104
2, 41644, Note_on_c, 0, 62, 72
2, 41644, Note_on_c, 0, 74, 0
2, 41658, Note_on_c, 0, 62, 0
2, 41668, Note_on_c, 0, 57, 0
2, 41676, Note_on_c, 0, 50, 0
2, 41682, Note_on_c, 0, 73, 0
2, 41687, Note_on_c, 0, 71, 99
2, 41758, Note_on_c, 0, 73, 106
2, 41759, Note_on_c, 0, 45, 108
2, 41767, Note_on_c, 0, 71, 0
2, 41783, Control_c, 0, 64, 127
2, 41791, Note_on_c, 0, 45, 0
2, 41872, Note_on_c, 0, 69, 96
2, 41877, Note_on_c, 0, 61, 94
2, 41879, Note_on_c, 0, 57, 91
2, 41887, Note_on_c, 0, 61, 0
2, 41891, Note_on_c, 0, 57, 0
2, 41891, Note_on_c, 0, 69, 0
2, 42001, Note_on_c, 0, 57, 93
2, 42001, Note_on_c, 0, 64, 99
2, 42002, Note_on_c, 0, 69, 89
2, 42003, Note_on_c, 0, 61, 80
2, 42005, Note_on_c, 0, 67, 83
2, 42019, Note_on_c, 0, 64, 0
2, 42023, Note_on_c, 0, 57, 0
2, 42026, Note_on_c, 0, 61, 0
2, 42033, Note_on_c, 0, 67, 0
2, 42044, Note_on_c, 0, 69, 0
2, 42052, Note_on_c, 0, 73, 0
2, 42117, Control_c, 0, 64, 0
2, 42133, Note_on_c, 0, 69, 105
2, 42135, Note_on_c, 0, 50, 120
2, 42161, Control_c, 0, 64, 127
2, 42197, Note_on_c, 0, 73, 115
2, 42204, Note_on_c, 0, 69, 0
2, 42238, Note_on_c, 0, 73, 0
2, 42241, Note_on_c, 0, 57, 105
2, 42241, Note_on_c, 0, 62, 91
2, 42245, Note_on_c, 0, 50, 0
2, 42250, Note_on_c, 0, 74, 114
2, 42250, Note_on_c, 0, 57, 0
2, 42254, Note_on_c, 0, 62, 0
2, 42267, Control_c, 0, 64, 0
2, 42308, Note_on_c, 0, 76, 112
2, 42317, Note_on_c, 0, 74, 0
2, 42357, Note_on_c, 0, 50, 111
2, 42357, Note_on_c, 0, 62, 107
2, 42360, Note_on_c, 0, 78, 117
2, 42363, Note_on_c, 0, 57, 111
2, 42368, Note_on_c, 0, 62, 0
2, 42369, Note_on_c, 0, 76, 0
2, 42371, Note_on_c, 0, 57, 0
2, 42385, Note_on_c, 0, 50, 0
2, 42414, Note_on_c, 0, 78, 0
2, 42418, Note_on_c, 0, 79, 108
2, 42462, Note_on_c, 0, 79, 0
2, 42465, Note_on_c, 0, 78, 98
2, 42474, Note_on_c, 0, 43, 102
2, 42485, Note_on_c, 0, 78, 0
2, 42488, Control_c, 0, 64, 127
2, 42491, Note_on_c, 0, 79, 92
2, 42501, Note_on_c, 0, 43, 0
2, 42512, Note_on_c, 0, 78, 119
2, 42524, Note_on_c, 0, 79, 0
2, 42600, Note_on_c, 0, 59, 100
2, 42600, Note_on_c, 0, 64, 91
2, 42602, Note_on_c, 0, 76, 112
2, 42627, Note_on_c, 0, 78, 0
2, 42629, Note_on_c, 0, 64, 0
2, 42637, Control_c, 0, 64, 0
2, 42641, Note_on_c, 0, 59, 0
2, 42657, Note_on_c, 0, 74, 116
2, 42664, Note_on_c, 0, 76, 0
2, 42714, Note_on_c, 0, 59, 97
2, 42714, Note_on_c, 0, 55, 103
2, 42714, Note_on_c, 0, 73, 122
2, 42723, Note_on_c, 0, 74, 0
2, 42738, Note_on_c, 0, 59, 0
2, 42757, Note_on_c, 0, 55, 0
2, 42782, Note_on_c, 0, 71, 109
2, 42793, Note_on_c, 0, 73, 0
2, 42833, Note_on_c, 0, 45, 111
2, 42839, Note_on_c, 0, 69, 116
2, 42846, Note_on_c, 0, 71, 0
2, 42847, Control_c, 0, 64, 127
2, 42860, Note_on_c, 0, 45, 0
2, 42898, Note_on_c, 0, 73, 114
2, 42916, Note_on_c, 0, 69, 0
2, 42925, Note_on_c, 0, 73, 0
2, 42952, Note_on_c, 0, 57, 104
2, 42952, Note_on_c, 0, 73, 114
2, 42958, Note_on_c, 0, 64, 75
2, 42962, Note_on_c, 0, 57, 0
2, 42968, Note_on_c, 0, 64, 0
2, 42975, Note_on_c, 0, 73, 0
2, 42983, Note_on_c, 0, 74, 108
2, 42989, Control_c, 0, 64, 0
2, 43000, Note_on_c, 0, 73, 119
2, 43021, Note_on_c, 0, 74, 0
2, 43073, Note_on_c, 0, 57, 107
2, 43075, Note_on_c, 0, 71, 112
2, 43085, Note_on_c, 0, 73, 0
2, 43095, Note_on_c, 0, 57, 0
2, 43128, Note_on_c, 0, 71, 0
2, 43131, Note_on_c, 0, 69, 112
2, 43186, Note_on_c, 0, 38, 99
2, 43191, Note_on_c, 0, 74, 111
2, 43191, Note_on_c, 0, 69, 0
2, 43204, Control_c, 0, 64, 127
2, 43213, Note_on_c, 0, 38, 0
2, 43304, Note_on_c, 0, 57, 95
2, 43305, Note_on_c, 0, 62, 87
2, 43308, Note_on_c, 0, 50, 92
2, 43315, Note_on_c, 0, 66, 102
2, 43315, Note_on_c, 0, 57, 0
2, 43318, Note_on_c, 0, 50, 0
2, 43318, Note_on_c, 0, 62, 0
2, 43344, Note_on_c, 0, 66, 0
2, 43431, Note_on_c, 0, 66, 98
2, 43433, Note_on_c, 0, 57, 93
2, 43445, Note_on_c, 0, 57, 0
2, 43446, Note_on_c, 0, 66, 0
2, 43447, Note_on_c, 0, 74, 0
2, 43557, Control_c, 0, 64, 0
2, 43560, Note_on_c, 0, 66, 112
2, 43562, Note_on_c, 0, 50, 100
2, 43562, Note_on_c, 0, 74, 110
2, 43564, Note_on_c, 0, 57, 101
2, 43579, Control_c, 0, 64, 127
2, 43617, Note_on_c, 0, 66, 0
2, 43625, Note_on_c, 0, 69, 110
2, 43646, Note_on_c, 0, 69, 0
2, 43680, Note_on_c, 0, 60, 108
2, 43687, Note_on_c, 0, 69, 106
2, 43687, Note_on_c, 0, 57, 0
2, 43689, Note_on_c, 0, 60, 0
2, 43693, Note_on_c, 0, 50, 0
2, 43693, Note_on_c, 0, 74, 0
2, 43704, Note_on_c, 0, 69, 0
2, 43742, Note_on_c, 0, 71, 97
2, 43758, Note_on_c, 0, 69, 119
2, 43768, Note_on_c, 0, 71, 0
2, 43809, Note_on_c, 0, 59, 101
2, 43812, Note_on_c, 0, 68, 115
2, 43812, Note_on_c, 0, 50, 88
2, 43812, Note_on_c, 0, 69, 0
2, 43818, Note_on_c, 0, 59, 0
2, 43822, Note_on_c, 0, 50, 0
2, 43868, Note_on_c, 0, 68, 0
2, 43875, Note_on_c, 0, 65, 119
2, 43884, Note_on_c, 0, 65, 0
2, 43931, Note_on_c, 0, 64, 111
2, 43936, Note_on_c, 0, 50, 110
2, 43962, Control_c, 0, 64, 0
2, 43986, Control_c, 0, 64, 127
2, 43992, Note_on_c, 0, 67, 116
2, 43992, Note_on_c, 0, 64, 0
2, 44001, Note_on_c, 0, 67, 0
2, 44042, Note_on_c, 0, 58, 107
2, 44049, Note_on_c, 0, 67, 119
2, 44054, Note_on_c, 0, 55, 89
2, 44063, Note_on_c, 0, 55, 0
2, 44063, Note_on_c, 0, 50, 0
2, 44064, Note_on_c, 0, 58, 0
2, 44073, Note_on_c, 0, 67, 0
2, 44078, Control_c, 0, 64, 0
2, 44099, Note_on_c, 0, 69, 106
2, 44122, Note_on_c, 0, 67, 104
2, 44123, Note_on_c, 0, 69, 0
2, 44155, Note_on_c, 0, 66, 111
2, 44155, Note_on_c, 0, 67, 0
2, 44158, Note_on_c, 0, 57, 96
2, 44159, Note_on_c, 0, 50, 97
2, 44179, Note_on_c, 0, 57, 0
2, 44181, Note_on_c, 0, 50, 0
2, 44199, Control_c, 0, 64, 127
2, 44219, Note_on_c, 0, 66, 0
2, 44224, Note_on_c, 0, 62, 103
2, 44232, Note_on_c, 0, 62, 0
2, 44283, Note_on_c, 0, 66, 121
2, 44287, Note_on_c, 0, 57, 100
2, 44287, Note_on_c, 0, 50, 104
2, 44332, Control_c, 0, 64, 0
2, 44341, Note_on_c, 0, 50, 0
2, 44342, Control_c, 0, 64, 127
2, 44350, Note_on_c, 0, 69, 114
2, 44353, Note_on_c, 0, 57, 0
2, 44361, Note_on_c, 0, 66, 0
2, 44369, Note_on_c, 0, 69, 0
2, 44406, Note_on_c, 0, 69, 119
2, 44406, Note_on_c, 0, 50, 107
2, 44406, Note_on_c, 0, 60, 106
2, 44417, Note_on_c, 0, 60, 0
2, 44424, Note_on_c, 0, 50, 0
2, 44434, Note_on_c, 0, 69, 0
2, 44461, Note_on_c, 0, 71, 96
2, 44478, Note_on_c, 0, 69, 111
2, 44485, Note_on_c, 0, 71, 0
2, 44503, Note_on_c, 0, 69, 0
2, 44525, Note_on_c, 0, 68, 107
2, 44530, Note_on_c, 0, 50, 88
2, 44531, Note_on_c, 0, 59, 90
2, 44542, Control_c, 0, 64, 0
2, 44542, Note_on_c, 0, 59, 0
2, 44544, Note_on_c, 0, 50, 0
2, 44586, Note_on_c, 0, 68, 0
2, 44590, Note_on_c, 0, 65, 111
2, 44603, Note_on_c, 0, 65, 0
2, 44652, Note_on_c, 0, 64, 103
2, 44652, Note_on_c, 0, 74, 103
2, 44654, Note_on_c, 0, 55, 91
2, 44658, Note_on_c, 0, 50, 83
2, 44661, Control_c, 0, 64, 127
2, 44712, Note_on_c, 0, 67, 105
2, 44713, Note_on_c, 0, 74, 0
2, 44716, Note_on_c, 0, 64, 0
2, 44721, Note_on_c, 0, 67, 0
2, 44769, Note_on_c, 0, 67, 113
2, 44769, Note_on_c, 0, 58, 96
2, 44785, Note_on_c, 0, 55, 0
2, 44794, Note_on_c, 0, 58, 0
2, 44795, Control_c, 0, 64, 0
2, 44800, Note_on_c, 0, 67, 0
2, 44826, Note_on_c, 0, 69, 105
2, 44849, Note_on_c, 0, 67, 101
2, 44855, Note_on_c, 0, 69, 0
2, 44885, Note_on_c, 0, 66, 119
2, 44887, Note_on_c, 0, 57, 102
2, 44887, Note_on_c, 0, 67, 0
2, 44887, Note_on_c, 0, 50, 0
2, 44896, Note_on_c, 0, 57, 0
2, 44937, Note_on_c, 0, 66, 0
2, 44945, Note_on_c, 0, 62, 106
2, 44961, Note_on_c, 0, 62, 0
2, 45002, Note_on_c, 0, 54, 98
2, 45008, Note_on_c, 0, 50, 92
2, 45010, Note_on_c, 0, 62, 100
2, 45011, Note_on_c, 0, 69, 106
2, 45028, Note_on_c, 0, 62, 0
2, 45045, Control_c, 0, 64, 127
2, 45066, Note_on_c, 0, 66, 111
2, 45083, Note_on_c, 0, 66, 0
2, 45127, Note_on_c, 0, 57, 93
2, 45128, Note_on_c, 0, 66, 114
2, 45133, Note_on_c, 0, 62, 99
2, 45136, Note_on_c, 0, 54, 0
2, 45138, Note_on_c, 0, 57, 0
2, 45139, Note_on_c, 0, 50, 0
2, 45153, Note_on_c, 0, 69, 0
2, 45156, Note_on_c, 0, 66, 0
2, 45157, Note_on_c, 0, 62, 0
2, 45170, Control_c, 0, 64, 0
2, 45184, Note_on_c, 0, 67, 104
2, 45211, Note_on_c, 0, 66, 105
2, 45211, Note_on_c, 0, 67, 0
2, 45246, Note_on_c, 0, 56, 104
2, 45247, Note_on_c, 0, 64, 106
2, 45248, Note_on_c, 0, 50, 98
2, 45248, Note_on_c, 0, 66, 0
2, 45261, Note_on_c, 0, 50, 0
2, 45265, Note_on_c, 0, 56, 0
2, 45267, Control_c, 0, 64, 127
2, 45297, Note_on_c, 0, 64, 0
2, 45306, Note_on_c, 0, 59, 106
2, 45317, Note_on_c, 0, 59, 0
2, 45367, Note_on_c, 0, 52, 97
2, 45370, Note_on_c, 0, 50, 81
2, 45374, Note_on_c, 0, 69, 95
2, 45375, Note_on_c, 0, 61, 94
2, 45381, Control_c, 0, 64, 0
2, 45409, Control_c, 0, 64, 127
2, 45425, Note_on_c, 0, 61, 0
2, 45435, Note_on_c, 0, 64, 106
2, 45444, Note_on_c, 0, 64, 0
2, 45490, Note_on_c, 0, 64, 110
2, 45490, Note_on_c, 0, 55, 100
2, 45502, Note_on_c, 0, 55, 0
2, 45504, Note_on_c, 0, 50, 0
2, 45507, Note_on_c, 0, 52, 0
2, 45511, Note_on_c, 0, 64, 0
2, 45518, Control_c, 0, 64, 0
2, 45541, Note_on_c, 0, 66, 97
2, 45553, Note_on_c, 0, 64, 111
2, 45555, Note_on_c, 0, 69, 0
2, 45562, Note_on_c, 0, 64, 0
2, 45564, Note_on_c, 0, 66, 0
2, 45603, Note_on_c, 0, 62, 111
2, 45604, Note_on_c, 0, 54, 92
2, 45608, Note_on_c, 0, 50, 89
2, 45608, Control_c, 0, 64, 127
2, 45616, Note_on_c, 0, 54, 0
2, 45618, Note_on_c, 0, 50, 0
2, 45640, Note_on_c, 0, 62, 0
2, 45664, Note_on_c, 0, 57, 97
2, 45676, Note_on_c, 0, 57, 0
2, 45724, Note_on_c, 0, 62, 109
2, 45727, Note_on_c, 0, 54, 94
2, 45729, Note_on_c, 0, 69, 104
2, 45729, Note_on_c, 0, 50, 103
2, 45740, Control_c, 0, 64, 0
2, 45765, Control_c, 0, 64, 127
2, 45790, Note_on_c, 0, 66, 108
2, 45797, Note_on_c, 0, 62, 0
2, 45802, Note_on_c, 0, 66, 0
2, 45848, Note_on_c, 0, 66, 126
2, 45850, Note_on_c, 0, 57, 101
2, 45891, Note_on_c, 0, 66, 0
2, 45891, Note_on_c, 0, 54, 0
2, 45892, Note_on_c, 0, 57, 0
2, 45900, Note_on_c, 0, 50, 0
2, 45906, Note_on_c, 0, 67, 109
2, 45924, Note_on_c, 0, 69, 0
2, 45929, Note_on_c, 0, 66, 108
2, 45938, Note_on_c, 0, 67, 0
2, 45956, Note_on_c, 0, 64, 111
2, 45961, Note_on_c, 0, 56, 103
2, 45965, Note_on_c, 0, 66, 0
2, 45966, Note_on_c, 0, 64, 0
2, 45970, Note_on_c, 0, 50, 87
2, 45978, Note_on_c, 0, 56, 0
2, 45980, Note_on_c, 0, 50, 0
2, 45989, Control_c, 0, 64, 0
2, 46026, Note_on_c, 0, 59, 87
2, 46038, Note_on_c, 0, 59, 0
2, 46084, Note_on_c, 0, 52, 97
2, 46088, Note_on_c, 0, 69, 97
2, 46088, Note_on_c, 0, 50, 93
2, 46089, Note_on_c, 0, 61, 81
2, 46113, Control_c, 0, 64, 127
2, 46134, Note_on_c, 0, 61, 0
2, 46147, Note_on_c, 0, 64, 102
2, 46158, Note_on_c, 0, 64, 0
2, 46208, Note_on_c, 0, 55, 90
2, 46208, Note_on_c, 0, 64, 111
2, 46232, Note_on_c, 0, 64, 0
2, 46241, Note_on_c, 0, 50, 0
2, 46249, Note_on_c, 0, 52, 0
2, 46250, Note_on_c, 0, 55, 0
2, 46267, Note_on_c, 0, 66, 96
2, 46280, Note_on_c, 0, 64, 104
2, 46289, Note_on_c, 0, 64, 0
2, 46290, Note_on_c, 0, 66, 0
2, 46295, Note_on_c, 0, 69, 0
2, 46326, Note_on_c, 0, 54, 85
2, 46334, Control_c, 0, 64, 0
2, 46335, Note_on_c, 0, 50, 95
2, 46335, Note_on_c, 0, 62, 81
2, 46346, Note_on_c, 0, 50, 0
2, 46348, Note_on_c, 0, 54, 0
2, 46350, Note_on_c, 0, 62, 0
2, 46352, Control_c, 0, 64, 127
2, 46389, Note_on_c, 0, 57, 99
2, 46399, Note_on_c, 0, 57, 0
2, 46451, Note_on_c, 0, 62, 111
2, 46455, Note_on_c, 0, 54, 86
2, 46455, Note_on_c, 0, 50, 87
2, 46459, Note_on_c, 0, 38, 88
2, 46462, Control_c, 0, 64, 0
2, 46490, Control_c, 0, 64, 127
2, 46508, Note_on_c, 0, 57, 104
2, 46509, Note_on_c, 0, 54, 0
2, 46518, Note_on_c, 0, 57, 0
2, 46527, Note_on_c, 0, 50, 0
2, 46569, Control_c, 0, 64, 0
2, 46572, Control_c, 0, 64, 127
2, 46573, Note_on_c, 0, 57, 101
2, 46573, Note_on_c, 0, 45, 100
2, 46581, Note_on_c, 0, 45, 0
2, 46581, Note_on_c, 0, 57, 0
2, 46588, Note_on_c, 0, 62, 0
2, 46628, Note_on_c, 0, 59, 104
2, 46646, Note_on_c, 0, 57, 109
2, 46657, Note_on_c, 0, 59, 0
2, 46688, Note_on_c, 0, 57, 0
2, 46696, Note_on_c, 0, 56, 111
2, 46702, Control_c, 0, 64, 0
2, 46711, Note_on_c, 0, 38, 0
2, 46718, Control_c, 0, 64, 127
2, 46747, Note_on_c, 0, 56, 0
2, 46759, Note_on_c, 0, 53, 113
2, 46768, Note_on_c, 0, 53, 0
2, 46812, Note_on_c, 0, 62, 109
2, 46816, Note_on_c, 0, 52, 102
2, 46819, Note_on_c, 0, 47, 96
2, 46819, Control_c, 0, 64, 0
2, 46824, Note_on_c, 0, 38, 69
2, 46835, Control_c, 0, 64, 127
2, 46842, Note_on_c, 0, 47, 0
2, 46864, Note_on_c, 0, 52, 0
2, 46870, Note_on_c, 0, 62, 0
2, 46871, Note_on_c, 0, 55, 108
2, 46880, Note_on_c, 0, 55, 0
2, 46933, Note_on_c, 0, 46, 97
2, 46934, Note_on_c, 0, 55, 114
2, 46942, Control_c, 0, 64, 0
2, 46962, Note_on_c, 0, 55, 0
2, 46963, Control_c, 0, 64, 127
2, 46989, Note_on_c, 0, 57, 103
2, 46997, Note_on_c, 0, 46, 0
2, 47013, Note_on_c, 0, 55, 109
2, 47016, Note_on_c, 0, 57, 0
2, 47040, Note_on_c, 0, 55, 0
2, 47052, Note_on_c, 0, 54, 110
2, 47057, Note_on_c, 0, 43, 98
2, 47058, Control_c, 0, 64, 0
2, 47080, Control_c, 0, 64, 127
2, 47082, Note_on_c, 0, 43, 0
2, 47093, Note_on_c, 0, 38, 0
2, 47096, Note_on_c, 0, 54, 0
2, 47109, Note_on_c, 0, 50, 105
2, 47126, Note_on_c, 0, 50, 0
2, 47180, Note_on_c, 0, 62, 104
2, 47180, Note_on_c, 0, 54, 104
2, 47184, Note_on_c, 0, 45, 87
2, 47186, Control_c, 0, 64, 0
2, 47186, Note_on_c, 0, 38, 84
2, 47217, Control_c, 0, 64, 127
2, 47231, Note_on_c, 0, 62, 0
2, 47239, Note_on_c, 0, 54, 0
2, 47249, Note_on_c, 0, 45, 0
2, 47254, Note_on_c, 0, 57, 117
2, 47278, Note_on_c, 0, 57, 0
2, 47304, Note_on_c, 0, 45, 102
2, 47308, Note_on_c, 0, 57, 116
2, 47317, Control_c, 0, 64, 0
2, 47333, Note_on_c, 0, 45, 0
2, 47347, Control_c, 0, 64, 127
2, 47350, Note_on_c, 0, 57, 0
2, 47365, Note_on_c, 0, 59, 85
2, 47381, Note_on_c, 0, 57, 102
2, 47392, Note_on_c, 0, 59, 0
2, 47411, Note_on_c, 0, 57, 0
2, 47427, Note_on_c, 0, 56, 114
2, 47429, Control_c, 0, 64, 0
2, 47429, Note_on_c, 0, 47, 90
2, 47443, Note_on_c, 0, 47, 0
2, 47455, Control_c, 0, 64, 127
2, 47459, Note_on_c, 0, 56, 0
2, 47475, Note_on_c, 0, 38, 0
2, 47487, Note_on_c, 0, 53, 111
2, 47507, Note_on_c, 0, 53, 0
2, 47553, Note_on_c, 0, 62, 112
2, 47557, Note_on_c, 0, 52, 100
2, 47559, Note_on_c, 0, 38, 95
2, 47561, Control_c, 0, 64, 0
2, 47585, Note_on_c, 0, 52, 0
2, 47594, Control_c, 0, 64, 127
2, 47611, Note_on_c, 0, 55, 111
2, 47612, Note_on_c, 0, 62, 0
2, 47620, Note_on_c, 0, 55, 0
2, 47669, Note_on_c, 0, 55, 115
2, 47669, Note_on_c, 0, 46, 101
2, 47674, Control_c, 0, 64, 0
2, 47698, Note_on_c, 0, 55, 0
2, 47701, Control_c, 0, 64, 127
2, 47707, Note_on_c, 0, 46, 0
2, 47707, Note_on_c, 0, 38, 0
2, 47724, Note_on_c, 0, 57, 108
2, 47743, Note_on_c, 0, 55, 102
2, 47751, Note_on_c, 0, 57, 0
2, 47783, Note_on_c, 0, 55, 0
2, 47785, Control_c, 0, 64, 0
2, 47788, Note_on_c, 0, 54, 116
2, 47798, Note_on_c, 0, 45, 121
2, 47816, Control_c, 0, 64, 127
2, 47841, Note_on_c, 0, 54, 0
2, 47844, Note_on_c, 0, 45, 0
2, 47847, Note_on_c, 0, 50, 114
2, 47857, Note_on_c, 0, 50, 0
2, 47908, Control_c, 0, 64, 0
2, 47916, Note_on_c, 0, 45, 93
2, 47920, Note_on_c, 0, 38, 92
2, 47920, Note_on_c, 0, 54, 88
2, 47920, Note_on_c, 0, 62, 106
2, 47928, Control_c, 0, 64, 127
2, 47931, Note_on_c, 0, 54, 0
2, 47950, Note_on_c, 0, 62, 0
2, 47964, Note_on_c, 0, 45, 0
2, 47967, Note_on_c, 0, 38, 0
2, 48023, Note_on_c, 0, 69, 119
2, 48041, Note_on_c, 0, 69, 0
2, 48146, Note_on_c, 0, 74, 104
2, 48150, Note_on_c, 0, 57, 99
2, 48150, Note_on_c, 0, 50, 79
2, 48163, Note_on_c, 0, 57, 0
2, 48165, Note_on_c, 0, 50, 0
2, 48178, Note_on_c, 0, 74, 0
2, 48206, Note_on_c, 0, 81, 104
2, 48215, Note_on_c, 0, 81, 0
2, 48270, Note_on_c, 0, 86, 90
2, 48287, Note_on_c, 0, 86, 0
2, 48324, Note_on_c, 0, 90, 110
2, 48334, Note_on_c, 0, 90, 0
2, 48392, Note_on_c, 0, 92, 104
2, 48401, Note_on_c, 0, 92, 0
2, 48450, Note_on_c, 0, 93, 107
2, 48463, Note_on_c, 0, 93, 0
2, 48470, Control_c, 0, 64, 0
2, 48500, Note_on_c, 0, 95, 101
2, 48513, Note_on_c, 0, 95, 0
2, 48549, Note_on_c, 0, 97, 101
2, 48562, Note_on_c, 0, 97, 0
2, 48609, Note_on_c, 0, 98, 86
2, 48976, Note_on_c, 0, 98, 0
2, 48976, End_track
3, 0, Start_track
3, 0, MIDI_port, 0
3, 0, Title_t, "Creative Labs Inc."
3, 0, End_track
4, 0, Start_track
4, 0, MIDI_port, 0
4, 0, Title_t, "(c) 1994 "
4, 0, End_track
5, 0, Start_track
5, 0, MIDI_port, 0
5, 0, Title_t, "Performed by Dr. Chew"
5, 0, End_track
6, 0, Start_track
6, 0, MIDI_port, 0
6, 0, Title_t, "Chopin "
6, 0, End_track
7, 0, Start_track
7, 0, MIDI_port, 0
7, 0, Title_t, "Mazurka"
7, 0, End_track
8, 0, Start_track
8, 0, MIDI_port, 0
8, 0, Title_t, "Op33 no2"
8, 0, End_track
0, 0, End_of_file