0, 0, Header, 1, 6, 384
1, 0, Start_track
1, 0, Tempo, 309670
1, 0, Time_signature, 4, 2, 24, 8
1, 8064, Tempo, 309670
1, 8400, Tempo, 309670
1, 8448, Tempo, 310390
1, 8496, Tempo, 311120
1, 8544, Tempo, 311850
1, 8592, Tempo, 312580
1, 8640, Tempo, 313310
1, 8688, Tempo, 314050
1, 8736, Tempo, 314790
1, 8784, Tempo, 315540
1, 8832, Tempo, 316280
1, 8880, Tempo, 317040
1, 8928, Tempo, 317790
1, 8976, Tempo, 318550
1, 9024, Tempo, 319310
1, 9072, Tempo, 306120
1, 32256, Tempo, 306120
1, 32736, Tempo, 306120
1, 32832, Tempo, 308584
1, 32928, Tempo, 311088
1, 33024, Tempo, 313632
1, 33120, Tempo, 316225
1, 33216, Tempo, 318870
1, 33312, Tempo, 321557
1, 33408, Tempo, 324271
1, 33504, Tempo, 327044
1, 33600, Tempo, 329857
1, 33696, Tempo, 347320
1, 33792, Tempo, 343640
1, 33888, Tempo, 340044
1, 33984, Tempo, 336514
1, 34080, Tempo, 333077
1, 34176, Tempo, 329700
1, 34272, Tempo, 326381
1, 34368, Tempo, 323141
1, 34464, Tempo, 319952
1, 34560, Tempo, 316835
1, 34656, Tempo, 313787
1, 34752, Tempo, 310779
1, 34848, Tempo, 307841
1, 39360, Tempo, 306120
1, 39456, Tempo, 312500
1, 39552, Tempo, 319140
1, 39648, Tempo, 326080
1, 39744, Tempo, 333330
1, 39840, Tempo, 340900
1, 39936, Tempo, 356610
1, 40032, Tempo, 351476
1, 40128, Tempo, 346489
1, 40224, Tempo, 341650
1, 40320, Tempo, 336934
1, 40416, Tempo, 332364
1, 40512, Tempo, 327898
1, 40608, Tempo, 323567
1, 40704, Tempo, 319331
1, 40800, Tempo, 315220
1, 40896, Tempo, 307290
1, 55584, Tempo, 306120
1, 55680, Tempo, 307239
1, 55776, Tempo, 308388
1, 55872, Tempo, 309537
1, 55968, Tempo, 310686
1, 56064, Tempo, 311868
1, 56160, Tempo, 313047
1, 56256, Tempo, 314225
1, 56352, Tempo, 315425
1, 56448, Tempo, 316624
1, 56544, Tempo, 317835
1, 56640, Tempo, 319065
1, 56736, Tempo, 320294
1, 56832, Tempo, 321532
1, 56928, Tempo, 322784
1, 57024, Tempo, 324054
1, 57120, Tempo, 325311
1, 57216, Tempo, 326591
1, 57312, Tempo, 327891
1, 57408, Tempo, 329181
1, 57504, Tempo, 330501
1, 57600, Tempo, 331831
1, 57696, Tempo, 333160
1, 57792, Tempo, 334497
1, 57888, Tempo, 335860
1, 57984, Tempo, 337230
1, 58080, Tempo, 338587
1, 58176, Tempo, 339987
1, 58368, Tempo, 341390
1, 58464, Tempo, 335190
1, 58560, Tempo, 329210
1, 58656, Tempo, 323450
1, 58752, Tempo, 317880
1, 58848, Tempo, 308480
1, 81504, Tempo, 308480
1, 81600, Tempo, 309604
1, 81696, Tempo, 310738
1, 81792, Tempo, 311875
1, 81888, Tempo, 313029
1, 81984, Tempo, 314182
1, 82080, Tempo, 315370
1, 82176, Tempo, 316544
1, 82272, Tempo, 317728
1, 82368, Tempo, 318925
1, 82464, Tempo, 320128
1, 82560, Tempo, 321342
1, 82656, Tempo, 322580
1, 82752, Tempo, 323804
1, 82848, Tempo, 325047
1, 82944, Tempo, 366410
1, 83040, Tempo, 361320
1, 83136, Tempo, 356376
1, 83232, Tempo, 351570
1, 83328, Tempo, 346887
1, 83424, Tempo, 342317
1, 83520, Tempo, 337887
1, 83616, Tempo, 333554
1, 83712, Tempo, 329334
1, 83808, Tempo, 325224
1, 83904, Tempo, 321214
1, 84000, Tempo, 317292
1, 84096, Tempo, 313484
1, 84192, Tempo, 309752
1, 88608, Tempo, 309670
1, 88704, Tempo, 322140
1, 88800, Tempo, 335660
1, 88896, Tempo, 350360
1, 88992, Tempo, 373250
1, 89088, Tempo, 366823
1, 89184, Tempo, 360622
1, 89280, Tempo, 354626
1, 89376, Tempo, 348830
1, 89472, Tempo, 343214
1, 89568, Tempo, 337774
1, 89664, Tempo, 332507
1, 89760, Tempo, 327420
1, 89856, Tempo, 322464
1, 89952, Tempo, 317655
1, 90048, Tempo, 312999
1, 94368, Tempo, 310880
1, 94464, Tempo, 316878
1, 94560, Tempo, 323105
1, 94656, Tempo, 329604
1, 94752, Tempo, 336354
1, 94848, Tempo, 343390
1, 94944, Tempo, 350740
1, 95040, Tempo, 358395
1, 95136, Tempo, 375000
1, 95232, Tempo, 365469
1, 95328, Tempo, 356430
1, 95424, Tempo, 347820
1, 95520, Tempo, 339610
1, 95616, Tempo, 331791
1, 95712, Tempo, 324320
1, 95808, Tempo, 317171
1, 95904, Tempo, 310341
1, 105120, Tempo, 309670
1, 105216, Tempo, 311940
1, 105312, Tempo, 314250
1, 105408, Tempo, 316580
1, 105504, Tempo, 318960
1, 105600, Tempo, 321370
1, 105696, Tempo, 323810
1, 105792, Tempo, 326290
1, 105888, Tempo, 328820
1, 105984, Tempo, 331380
1, 106080, Tempo, 333980
1, 106176, Tempo, 336620
1, 106272, Tempo, 339300
1, 106368, Tempo, 342030
1, 106464, Tempo, 344800
1, 106560, Tempo, 347620
1, 106656, Tempo, 350480
1, 106752, Tempo, 353390
1, 106848, Tempo, 356350
1, 106944, Tempo, 358200
1, 107040, Tempo, 364740
1, 107136, Tempo, 371510
1, 107232, Tempo, 409550
1, 107328, Tempo, 417390
1, 107424, Tempo, 425530
1, 107520, Tempo, 401330
1, 107616, Tempo, 350360
1, 107712, Tempo, 341680
1, 107808, Tempo, 333420
1, 107904, Tempo, 325550
1, 108000, Tempo, 318040
1, 130272, Tempo, 317040
1, 130368, Tempo, 319225
1, 130464, Tempo, 321454
1, 130560, Tempo, 323711
1, 130656, Tempo, 326010
1, 130752, Tempo, 328328
1, 130848, Tempo, 330684
1, 130944, Tempo, 333084
1, 131040, Tempo, 335500
1, 131136, Tempo, 337967
1, 131232, Tempo, 340467
1, 131328, Tempo, 343004
1, 131424, Tempo, 345569
1, 131520, Tempo, 348180
1, 131616, Tempo, 350836
1, 131712, Tempo, 353537
1, 131808, Tempo, 356262
1, 131904, Tempo, 359039
1, 132000, Tempo, 361870
1, 132096, Tempo, 359059
1, 132192, Tempo, 355143
1, 132288, Tempo, 351292
1, 132384, Tempo, 347547
1, 132480, Tempo, 343870
1, 132576, Tempo, 340270
1, 132672, Tempo, 336740
1, 132768, Tempo, 333281
1, 132864, Tempo, 329904
1, 132960, Tempo, 326597
1, 133056, Tempo, 323338
1, 133152, Tempo, 320161
1, 137088, Tempo, 319570
1, 137184, Tempo, 322354
1, 137280, Tempo, 325200
1, 137376, Tempo, 328084
1, 137472, Tempo, 331030
1, 137568, Tempo, 334014
1, 137664, Tempo, 337070
1, 137760, Tempo, 340173
1, 137856, Tempo, 343340
1, 137952, Tempo, 346563
1, 138048, Tempo, 349850
1, 138144, Tempo, 353193
1, 138240, Tempo, 371222
1, 138336, Tempo, 365850
1, 138432, Tempo, 360622
1, 138528, Tempo, 355550
1, 138624, Tempo, 350613
1, 138720, Tempo, 345820
1, 138816, Tempo, 341143
1, 138912, Tempo, 336600
1, 139008, Tempo, 332164
1, 139104, Tempo, 327860
1, 139200, Tempo, 323654
1, 149280, Tempo, 350360
1, 149376, Tempo, 350360
1, 149472, Tempo, 350360
1, 149568, Tempo, 350360
1, 149664, Tempo, 350360
1, 149760, Tempo, 350360
1, 149856, Tempo, 350360
1, 149952, Tempo, 350360
1, 150048, Tempo, 350360
1, 150144, Tempo, 350360
1, 150240, Tempo, 350360
1, 150336, Tempo, 350360
1, 150432, Tempo, 350360
1, 150528, Tempo, 350360
1, 150624, Tempo, 350360
1, 150720, Tempo, 364973
1, 150816, Tempo, 362606
1, 150912, Tempo, 360272
1, 151008, Tempo, 357965
1, 151104, Tempo, 355692
1, 151200, Tempo, 353460
1, 151296, Tempo, 351237
1, 151392, Tempo, 349054
1, 151488, Tempo, 346887
1, 151584, Tempo, 344743
1, 151680, Tempo, 342637
1, 151776, Tempo, 340553
1, 151872, Tempo, 338500
1, 151968, Tempo, 336467
1, 152064, Tempo, 334454
1, 152160, Tempo, 332467
1, 152256, Tempo, 330504
1, 152352, Tempo, 328557
1, 152448, Tempo, 326644
1, 161952, Tempo, 324760
1, 162048, Tempo, 326668
1, 162144, Tempo, 328607
1, 162240, Tempo, 330570
1, 162336, Tempo, 332547
1, 162432, Tempo, 334557
1, 162528, Tempo, 336600
1, 162624, Tempo, 338647
1, 162720, Tempo, 340737
1, 162816, Tempo, 351900
1, 162912, Tempo, 347873
1, 163008, Tempo, 343946
1, 163104, Tempo, 340110
1, 163200, Tempo, 336354
1, 163296, Tempo, 332691
1, 163392, Tempo, 329094
1, 163488, Tempo, 325587
1, 207979, End_track
2, 0, Start_track
2, 0, Title_t, "Op25 No6"
2, 0, Control_c, 0, 10, 10
2, 4, System_exclusive, 05, 7E, 00, 00, 7F, F7
2, 16, Control_c, 0, 0, 0
2, 20, Control_c, 0, 32, 0
2, 36, Control_c, 0, 91, 127
2, 40, Control_c, 0, 93, 0
2, 44, Control_c, 0, 101, 0
2, 48, Control_c, 0, 100, 0
2, 52, Control_c, 0, 6, 2
2, 33792, Control_c, 0, 10, 64
2, 33792, Note_on_c, 0, 100, 88
2, 33792, Note_on_c, 0, 97, 90
2, 33956, Note_off_c, 0, 100, 0
2, 33960, Note_off_c, 0, 97, 0
2, 33984, Note_on_c, 0, 95, 70
2, 33984, Note_on_c, 0, 99, 66
2, 34172, Note_off_c, 0, 95, 0
2, 34173, Note_off_c, 0, 99, 0
2, 34176, Note_on_c, 0, 94, 76
2, 34176, Note_on_c, 0, 97, 90
2, 34352, Note_off_c, 0, 94, 0
2, 34361, Note_off_c, 0, 97, 0
2, 34368, Note_on_c, 0, 95, 58
2, 34368, Note_on_c, 0, 92, 42
2, 34545, Note_off_c, 0, 95, 0
2, 34556, Note_off_c, 0, 92, 0
2, 34560, Note_on_c, 0, 94, 74
2, 34560, Note_on_c, 0, 91, 72
2, 34752, Note_on_c, 0, 88, 80
2, 34752, Note_on_c, 0, 92, 68
2, 34781, Note_off_c, 0, 91, 0
2, 34805, Note_off_c, 0, 94, 0
2, 34944, Note_on_c, 0, 91, 74
2, 34944, Note_on_c, 0, 87, 49
2, 34978, Note_off_c, 0, 88, 0
2, 34994, Note_off_c, 0, 92, 0
2, 35119, Note_off_c, 0, 91, 0
2, 35127, Note_off_c, 0, 87, 0
2, 35136, Note_on_c, 0, 88, 80
2, 35136, Note_on_c, 0, 85, 51
2, 35328, Note_on_c, 0, 87, 54
2, 35328, Note_on_c, 0, 83, 62
2, 35348, Note_off_c, 0, 85, 0
2, 35352, Note_off_c, 0, 88, 0
2, 35520, Note_off_c, 0, 83, 0
2, 35520, Note_on_c, 0, 82, 49
2, 35520, Note_on_c, 0, 85, 70
2, 35522, Note_off_c, 0, 87, 0
2, 35702, Note_off_c, 0, 85, 0
2, 35705, Note_off_c, 0, 82, 0
2, 35712, Note_on_c, 0, 80, 50
2, 35712, Note_on_c, 0, 83, 60
2, 35904, Note_on_c, 0, 79, 70
2, 35904, Note_on_c, 0, 82, 56
2, 35911, Note_off_c, 0, 83, 0
2, 35919, Note_off_c, 0, 80, 0
2, 36004, Note_off_c, 0, 82, 0
2, 36096, Note_on_c, 0, 80, 68
2, 36096, Note_on_c, 0, 76, 70
2, 36108, Note_off_c, 0, 79, 0
2, 36288, Note_on_c, 0, 79, 70
2, 36288, Note_on_c, 0, 75, 44
2, 36298, Note_off_c, 0, 76, 0
2, 36315, Note_off_c, 0, 80, 0
2, 36479, Note_off_c, 0, 79, 0
2, 36480, Note_on_c, 0, 73, 60
2, 36480, Note_on_c, 0, 76, 84
2, 36481, Note_off_c, 0, 75, 0
2, 36654, Note_off_c, 0, 73, 0
2, 36672, Note_on_c, 0, 71, 66
2, 36672, Note_on_c, 0, 75, 44
2, 36714, Note_off_c, 0, 76, 0
2, 36837, Note_off_c, 0, 71, 0
2, 36839, Note_off_c, 0, 75, 0
2, 46080, Control_c, 0, 10, 64
2, 46849, Note_on_c, 0, 99, 92
2, 46853, Note_on_c, 0, 95, 92
2, 47029, Note_on_c, 0, 97, 30
2, 47030, Note_on_c, 0, 100, 66
2, 47035, Note_off_c, 0, 95, 0
2, 47035, Note_off_c, 0, 99, 0
2, 47216, Note_on_c, 0, 99, 64
2, 47218, Note_on_c, 0, 95, 58
2, 47221, Note_off_c, 0, 100, 0
2, 47243, Note_off_c, 0, 97, 0
2, 47309, Note_off_c, 0, 99, 0
2, 47405, Note_on_c, 0, 94, 49
2, 47411, Note_on_c, 0, 97, 70
2, 47425, Note_off_c, 0, 95, 0
2, 47603, Note_on_c, 0, 92, 47
2, 47604, Note_on_c, 0, 95, 80
2, 47623, Note_off_c, 0, 94, 0
2, 47627, Note_off_c, 0, 97, 0
2, 47797, Note_on_c, 0, 94, 53
2, 47798, Note_on_c, 0, 97, 46
2, 47813, Note_off_c, 0, 95, 0
2, 47814, Note_off_c, 0, 92, 0
2, 47996, Note_on_c, 0, 95, 72
2, 47997, Note_on_c, 0, 92, 42
2, 48014, Note_off_c, 0, 94, 0
2, 48026, Note_off_c, 0, 97, 0
2, 48061, Note_off_c, 0, 95, 0
2, 48191, Note_on_c, 0, 90, 44
2, 48192, Note_on_c, 0, 94, 62
2, 48218, Note_off_c, 0, 92, 0
2, 48396, Note_on_c, 0, 92, 48
2, 48399, Note_on_c, 0, 88, 53
2, 48418, Note_off_c, 0, 94, 0
2, 48422, Note_off_c, 0, 90, 0
2, 48581, Note_on_c, 0, 90, 49
2, 48581, Note_on_c, 0, 94, 51
2, 48602, Note_off_c, 0, 88, 0
2, 48604, Note_off_c, 0, 92, 0
2, 48759, Note_on_c, 0, 92, 52
2, 48760, Note_on_c, 0, 88, 47
2, 48789, Note_off_c, 0, 90, 0
2, 48791, Note_off_c, 0, 94, 0
2, 48867, Note_off_c, 0, 92, 0
2, 48945, Note_on_c, 0, 87, 43
2, 48946, Note_on_c, 0, 90, 49
2, 48964, Note_off_c, 0, 88, 0
2, 49133, Note_on_c, 0, 85, 47
2, 49135, Note_on_c, 0, 88, 78
2, 49155, Note_off_c, 0, 87, 0
2, 49162, Note_off_c, 0, 90, 0
2, 49322, Note_on_c, 0, 90, 48
2, 49324, Note_on_c, 0, 87, 53
2, 49342, Note_off_c, 0, 88, 0
2, 49347, Note_off_c, 0, 85, 0
2, 49510, Note_on_c, 0, 88, 76
2, 49512, Note_on_c, 0, 85, 43
2, 49541, Note_off_c, 0, 90, 0
2, 49569, Note_off_c, 0, 87, 0
2, 49589, Note_off_c, 0, 88, 0
2, 49706, Note_on_c, 0, 83, 58
2, 49706, Note_on_c, 0, 87, 56
2, 49727, Note_off_c, 0, 85, 0
2, 49901, Note_on_c, 0, 82, 50
2, 49902, Note_on_c, 0, 85, 50
2, 49922, Note_off_c, 0, 83, 0
2, 49929, Note_off_c, 0, 87, 0
2, 50098, Note_on_c, 0, 83, 76
2, 50098, Note_on_c, 0, 87, 48
2, 50118, Note_off_c, 0, 82, 0
2, 50119, Note_off_c, 0, 85, 0
2, 50284, Note_on_c, 0, 82, 47
2, 50284, Note_on_c, 0, 85, 58
2, 50299, Note_off_c, 0, 83, 0
2, 50315, Note_off_c, 0, 87, 0
2, 50380, Note_off_c, 0, 85, 0
2, 50474, Note_on_c, 0, 83, 78
2, 50498, Note_off_c, 0, 82, 0
2, 50498, Note_on_c, 0, 80, 42
2, 50668, Note_on_c, 0, 82, 62
2, 50669, Note_on_c, 0, 78, 50
2, 50686, Note_off_c, 0, 83, 0
2, 50693, Note_off_c, 0, 80, 0
2, 50859, Note_on_c, 0, 83, 72
2, 50861, Note_on_c, 0, 80, 49
2, 50879, Note_off_c, 0, 82, 0
2, 50883, Note_off_c, 0, 78, 0
2, 51048, Note_on_c, 0, 82, 53
2, 51053, Note_on_c, 0, 78, 47
2, 51060, Note_off_c, 0, 83, 0
2, 51078, Note_off_c, 0, 80, 0
2, 51141, Note_off_c, 0, 82, 0
2, 51245, Note_on_c, 0, 76, 48
2, 51245, Note_on_c, 0, 80, 31
2, 51271, Note_off_c, 0, 78, 0
2, 51426, Note_off_c, 0, 80, 0
2, 51429, Note_on_c, 0, 75, 45
2, 51431, Note_on_c, 0, 78, 45
2, 51457, Note_off_c, 0, 76, 0
2, 51624, Note_on_c, 0, 80, 48
2, 51628, Note_on_c, 0, 76, 72
2, 51647, Note_off_c, 0, 78, 0
2, 51651, Note_off_c, 0, 75, 0
2, 51814, Note_on_c, 0, 78, 48
2, 51815, Note_on_c, 0, 75, 43
2, 51833, Note_off_c, 0, 76, 0
2, 51846, Note_off_c, 0, 80, 0
2, 51896, Note_off_c, 0, 78, 0
2, 52003, Note_on_c, 0, 73, 45
2, 52004, Note_on_c, 0, 76, 76
2, 52028, Note_off_c, 0, 75, 0
2, 52153, Note_off_c, 0, 73, 0
2, 52155, Note_off_c, 0, 76, 0
2, 70656, Control_c, 0, 10, 64
2, 70656, Note_on_c, 0, 74, 74
2, 70656, Note_on_c, 0, 77, 76
2, 70847, Note_on_c, 0, 79, 66
2, 70847, Note_on_c, 0, 76, 62
2, 70866, Note_off_c, 0, 74, 0
2, 70867, Note_off_c, 0, 77, 0
2, 71050, Note_on_c, 0, 77, 62
2, 71053, Note_on_c, 0, 74, 68
2, 71061, Note_off_c, 0, 76, 0
2, 71076, Note_off_c, 0, 79, 0
2, 71240, Note_on_c, 0, 76, 70
2, 71243, Note_on_c, 0, 79, 78
2, 71261, Note_off_c, 0, 74, 0
2, 71263, Note_off_c, 0, 77, 0
2, 71449, Note_on_c, 0, 77, 70
2, 71452, Note_on_c, 0, 74, 78
2, 71474, Note_off_c, 0, 79, 0
2, 71476, Note_off_c, 0, 76, 0
2, 71629, Note_on_c, 0, 76, 70
2, 71630, Note_on_c, 0, 79, 72
2, 71650, Note_off_c, 0, 74, 0
2, 71652, Note_off_c, 0, 77, 0
2, 71814, Note_on_c, 0, 77, 70
2, 71815, Note_on_c, 0, 74, 68
2, 71839, Note_off_c, 0, 79, 0
2, 71839, Note_off_c, 0, 76, 0
2, 71993, Note_on_c, 0, 76, 74
2, 71995, Note_on_c, 0, 79, 72
2, 72015, Note_off_c, 0, 77, 0
2, 72016, Note_off_c, 0, 74, 0
2, 72173, Note_on_c, 0, 77, 64
2, 72177, Note_on_c, 0, 74, 72
2, 72198, Note_off_c, 0, 79, 0
2, 72199, Note_off_c, 0, 76, 0
2, 72367, Note_on_c, 0, 76, 74
2, 72370, Note_on_c, 0, 79, 80
2, 72388, Note_off_c, 0, 74, 0
2, 72395, Note_off_c, 0, 77, 0
2, 72548, Note_on_c, 0, 77, 68
2, 72552, Note_on_c, 0, 74, 70
2, 72573, Note_off_c, 0, 79, 0
2, 72573, Note_off_c, 0, 76, 0
2, 72739, Note_on_c, 0, 76, 70
2, 72740, Note_on_c, 0, 79, 74
2, 72760, Note_off_c, 0, 77, 0
2, 72762, Note_off_c, 0, 74, 0
2, 72936, Note_on_c, 0, 77, 62
2, 72936, Note_on_c, 0, 74, 62
2, 72956, Note_off_c, 0, 79, 0
2, 72962, Note_off_c, 0, 76, 0
2, 73136, Note_on_c, 0, 79, 68
2, 73137, Note_on_c, 0, 76, 68
2, 73156, Note_off_c, 0, 77, 0
2, 73159, Note_off_c, 0, 74, 0
2, 73324, Note_on_c, 0, 77, 58
2, 73330, Note_on_c, 0, 74, 66
2, 73341, Note_off_c, 0, 79, 0
2, 73352, Note_off_c, 0, 76, 0
2, 73513, Note_on_c, 0, 76, 70
2, 73514, Note_on_c, 0, 79, 72
2, 73535, Note_off_c, 0, 77, 0
2, 73536, Note_off_c, 0, 74, 0
2, 73710, Note_on_c, 0, 74, 68
2, 73715, Note_on_c, 0, 77, 66
2, 73734, Note_off_c, 0, 76, 0
2, 73744, Note_off_c, 0, 79, 0
2, 73904, Note_on_c, 0, 76, 68
2, 73905, Note_on_c, 0, 79, 70
2, 73926, Note_off_c, 0, 77, 0
2, 73927, Note_off_c, 0, 74, 0
2, 74097, Note_on_c, 0, 77, 62
2, 74100, Note_on_c, 0, 74, 68
2, 74115, Note_off_c, 0, 76, 0
2, 74124, Note_off_c, 0, 79, 0
2, 74290, Note_on_c, 0, 73, 45
2, 74292, Note_on_c, 0, 76, 68
2, 74315, Note_off_c, 0, 74, 0
2, 74350, Note_off_c, 0, 77, 0
2, 74487, Note_on_c, 0, 77, 70
2, 74492, Note_on_c, 0, 74, 72
2, 74504, Note_off_c, 0, 76, 0
2, 74512, Note_off_c, 0, 73, 0
2, 74687, Note_on_c, 0, 76, 66
2, 74689, Note_on_c, 0, 79, 78
2, 74712, Note_off_c, 0, 74, 0
2, 74712, Note_off_c, 0, 77, 0
2, 74873, Note_on_c, 0, 77, 68
2, 74874, Note_on_c, 0, 74, 72
2, 74891, Note_off_c, 0, 76, 0
2, 74904, Note_off_c, 0, 79, 0
2, 75056, Note_on_c, 0, 73, 47
2, 75058, Note_on_c, 0, 76, 74
2, 75080, Note_off_c, 0, 74, 0
2, 75087, Note_off_c, 0, 77, 0
2, 75252, Note_on_c, 0, 77, 70
2, 75257, Note_on_c, 0, 74, 74
2, 75265, Note_off_c, 0, 76, 0
2, 75277, Note_off_c, 0, 73, 0
2, 75444, Note_on_c, 0, 76, 76
2, 75444, Note_on_c, 0, 79, 82
2, 75469, Note_off_c, 0, 74, 0
2, 75470, Note_off_c, 0, 77, 0
2, 75636, Note_on_c, 0, 77, 64
2, 75639, Note_on_c, 0, 74, 72
2, 75658, Note_off_c, 0, 76, 0
2, 75668, Note_off_c, 0, 79, 0
2, 75828, Note_on_c, 0, 73, 46
2, 75831, Note_on_c, 0, 76, 70
2, 75853, Note_off_c, 0, 74, 0
2, 75861, Note_off_c, 0, 77, 0
2, 76014, Note_on_c, 0, 77, 72
2, 76018, Note_on_c, 0, 74, 72
2, 76034, Note_off_c, 0, 76, 0
2, 76038, Note_off_c, 0, 73, 0
2, 76213, Note_on_c, 0, 79, 78
2, 76213, Note_on_c, 0, 76, 74
2, 76237, Note_off_c, 0, 77, 0
2, 76242, Note_off_c, 0, 74, 0
2, 76398, Note_on_c, 0, 77, 58
2, 76403, Note_on_c, 0, 74, 66
2, 76421, Note_off_c, 0, 76, 0
2, 76428, Note_off_c, 0, 79, 0
2, 76575, Note_on_c, 0, 73, 43
2, 76577, Note_on_c, 0, 76, 68
2, 76599, Note_off_c, 0, 74, 0
2, 76604, Note_off_c, 0, 77, 0
2, 76783, Note_on_c, 0, 77, 68
2, 76788, Note_on_c, 0, 74, 68
2, 76793, Note_off_c, 0, 76, 0
2, 76805, Note_off_c, 0, 73, 0
2, 76973, Note_on_c, 0, 75, 72
2, 76973, Note_on_c, 0, 78, 72
2, 76996, Note_off_c, 0, 77, 0
2, 77000, Note_off_c, 0, 74, 0
2, 77172, Note_on_c, 0, 79, 76
2, 77174, Note_on_c, 0, 76, 70
2, 77191, Note_off_c, 0, 78, 0
2, 77193, Note_off_c, 0, 75, 0
2, 77356, Note_on_c, 0, 77, 70
2, 77356, Note_on_c, 0, 80, 52
2, 77377, Note_off_c, 0, 79, 0
2, 77382, Note_off_c, 0, 76, 0
2, 77552, Note_on_c, 0, 78, 58
2, 77553, Note_on_c, 0, 81, 74
2, 77574, Note_off_c, 0, 80, 0
2, 77580, Note_off_c, 0, 77, 0
2, 77751, Note_on_c, 0, 79, 58
2, 77752, Note_on_c, 0, 82, 47
2, 77771, Note_off_c, 0, 78, 0
2, 77783, Note_off_c, 0, 81, 0
2, 77934, Note_on_c, 0, 83, 78
2, 77935, Note_on_c, 0, 80, 54
2, 77954, Note_off_c, 0, 82, 0
2, 77964, Note_off_c, 0, 79, 0
2, 78123, Note_on_c, 0, 84, 68
2, 78127, Note_on_c, 0, 81, 64
2, 78145, Note_off_c, 0, 80, 0
2, 78148, Note_off_c, 0, 83, 0
2, 78311, Note_on_c, 0, 82, 74
2, 78313, Note_on_c, 0, 85, 84
2, 78332, Note_off_c, 0, 84, 0
2, 78335, Note_off_c, 0, 81, 0
2, 78507, Note_on_c, 0, 86, 80
2, 78508, Note_on_c, 0, 83, 74
2, 78526, Note_off_c, 0, 85, 0
2, 78528, Note_off_c, 0, 82, 0
2, 78692, Note_on_c, 0, 87, 62
2, 78692, Note_on_c, 0, 84, 78
2, 78712, Note_off_c, 0, 86, 0
2, 78719, Note_off_c, 0, 83, 0
2, 78886, Note_on_c, 0, 85, 49
2, 78888, Note_on_c, 0, 88, 74
2, 78909, Note_off_c, 0, 87, 0
2, 78914, Note_off_c, 0, 84, 0
2, 79079, Note_on_c, 0, 89, 74
2, 79082, Note_on_c, 0, 86, 68
2, 79105, Note_off_c, 0, 88, 0
2, 79106, Note_off_c, 0, 85, 0
2, 79271, Note_on_c, 0, 90, 72
2, 79271, Note_on_c, 0, 87, 60
2, 79293, Note_off_c, 0, 89, 0
2, 79298, Note_off_c, 0, 86, 0
2, 79455, Note_on_c, 0, 91, 80
2, 79458, Note_on_c, 0, 88, 70
2, 79473, Note_off_c, 0, 90, 0
2, 79476, Note_off_c, 0, 87, 0
2, 79644, Note_on_c, 0, 92, 70
2, 79646, Note_on_c, 0, 89, 78
2, 79665, Note_off_c, 0, 91, 0
2, 79669, Note_off_c, 0, 88, 0
2, 79843, Note_on_c, 0, 93, 78
2, 79843, Note_on_c, 0, 90, 66
2, 79864, Note_off_c, 0, 92, 0
2, 79866, Note_off_c, 0, 89, 0
2, 80037, Note_on_c, 0, 94, 72
2, 80039, Note_on_c, 0, 91, 78
2, 80057, Note_off_c, 0, 93, 0
2, 80064, Note_off_c, 0, 90, 0
2, 80227, Note_on_c, 0, 95, 80
2, 80234, Note_off_c, 0, 94, 0
2, 80234, Note_on_c, 0, 92, 58
2, 80255, Note_off_c, 0, 91, 0
2, 80426, Note_on_c, 0, 96, 68
2, 80428, Note_on_c, 0, 93, 66
2, 80447, Note_off_c, 0, 92, 0
2, 80452, Note_off_c, 0, 95, 0
2, 80616, Note_on_c, 0, 94, 78
2, 80617, Note_on_c, 0, 97, 88
2, 80636, Note_off_c, 0, 96, 0
2, 80642, Note_off_c, 0, 93, 0
2, 80812, Note_on_c, 0, 98, 84
2, 80813, Note_on_c, 0, 95, 76
2, 80832, Note_off_c, 0, 97, 0
2, 80834, Note_off_c, 0, 94, 0
2, 80998, Note_on_c, 0, 99, 82
2, 81000, Note_on_c, 0, 96, 84
2, 81015, Note_off_c, 0, 98, 0
2, 81025, Note_off_c, 0, 95, 0
2, 81189, Note_on_c, 0, 97, 76
2, 81190, Note_on_c, 0, 100, 88
2, 81213, Note_off_c, 0, 96, 0
2, 81217, Note_off_c, 0, 99, 0
2, 81386, Note_off_c, 0, 100, 0
2, 81393, Note_off_c, 0, 97, 0
2, 81399, Note_on_c, 0, 98, 98
2, 81399, Note_on_c, 0, 101, 100
2, 81561, Note_off_c, 0, 101, 0
2, 81562, Note_off_c, 0, 98, 0
2, 82944, Control_c, 0, 10, 64
2, 82960, Note_on_c, 0, 101, 58
2, 82961, Note_on_c, 0, 98, 68
2, 83160, Note_on_c, 0, 95, 56
2, 83161, Note_on_c, 0, 91, 64
2, 83168, Note_off_c, 0, 101, 0
2, 83177, Note_off_c, 0, 98, 0
2, 83352, Note_on_c, 0, 100, 68
2, 83352, Note_on_c, 0, 96, 70
2, 83362, Note_off_c, 0, 95, 0
2, 83365, Note_off_c, 0, 91, 0
2, 83532, Note_on_c, 0, 93, 50
2, 83536, Note_on_c, 0, 89, 52
2, 83549, Note_off_c, 0, 100, 0
2, 83555, Note_off_c, 0, 96, 0
2, 83716, Note_on_c, 0, 98, 53
2, 83719, Note_on_c, 0, 95, 74
2, 83743, Note_off_c, 0, 93, 0
2, 83750, Note_off_c, 0, 89, 0
2, 83899, Note_on_c, 0, 88, 60
2, 83900, Note_on_c, 0, 91, 70
2, 83909, Note_off_c, 0, 98, 0
2, 83927, Note_off_c, 0, 95, 0
2, 84083, Note_on_c, 0, 96, 58
2, 84083, Note_on_c, 0, 93, 50
2, 84103, Note_off_c, 0, 91, 0
2, 84103, Note_off_c, 0, 88, 0
2, 84267, Note_on_c, 0, 86, 54
2, 84269, Note_on_c, 0, 89, 54
2, 84277, Note_off_c, 0, 96, 0
2, 84294, Note_off_c, 0, 93, 0
2, 84450, Note_on_c, 0, 91, 56
2, 84452, Note_on_c, 0, 95, 58
2, 84475, Note_off_c, 0, 89, 0
2, 84477, Note_off_c, 0, 86, 0
2, 84642, Note_on_c, 0, 84, 53
2, 84643, Note_on_c, 0, 88, 52
2, 84655, Note_off_c, 0, 95, 0
2, 84670, Note_off_c, 0, 91, 0
2, 84840, Note_on_c, 0, 93, 50
2, 84842, Note_on_c, 0, 89, 56
2, 84858, Note_off_c, 0, 84, 0
2, 84862, Note_off_c, 0, 88, 0
2, 85026, Note_on_c, 0, 86, 58
2, 85027, Note_on_c, 0, 83, 52
2, 85043, Note_off_c, 0, 93, 0
2, 85057, Note_off_c, 0, 89, 0
2, 85217, Note_on_c, 0, 91, 60
2, 85218, Note_on_c, 0, 88, 48
2, 85235, Note_off_c, 0, 83, 0
2, 85239, Note_off_c, 0, 86, 0
2, 85407, Note_on_c, 0, 84, 49
2, 85407, Note_on_c, 0, 81, 49
2, 85418, Note_off_c, 0, 91, 0
2, 85433, Note_off_c, 0, 88, 0
2, 85604, Note_on_c, 0, 89, 54
2, 85606, Note_on_c, 0, 86, 52
2, 85615, Note_off_c, 0, 81, 0
2, 85629, Note_off_c, 0, 84, 0
2, 85797, Note_on_c, 0, 83, 52
2, 85797, Note_on_c, 0, 79, 50
2, 85802, Note_off_c, 0, 89, 0
2, 85821, Note_off_c, 0, 86, 0
2, 85989, Note_on_c, 0, 84, 50
2, 85989, Note_on_c, 0, 88, 51
2, 86006, Note_off_c, 0, 79, 0
2, 86008, Note_off_c, 0, 83, 0
2, 86179, Note_on_c, 0, 81, 50
2, 86181, Note_on_c, 0, 77, 44
2, 86199, Note_off_c, 0, 88, 0
2, 86206, Note_off_c, 0, 84, 0
2, 86375, Note_on_c, 0, 83, 48
2, 86377, Note_on_c, 0, 86, 52
2, 86391, Note_off_c, 0, 77, 0
2, 86399, Note_off_c, 0, 81, 0
2, 86563, Note_on_c, 0, 79, 49
2, 86565, Note_on_c, 0, 76, 43
2, 86579, Note_off_c, 0, 86, 0
2, 86591, Note_off_c, 0, 83, 0
2, 86759, Note_on_c, 0, 84, 52
2, 86761, Note_on_c, 0, 81, 50
2, 86778, Note_off_c, 0, 76, 0
2, 86788, Note_off_c, 0, 79, 0
2, 86953, Note_on_c, 0, 77, 46
2, 86956, Note_on_c, 0, 74, 42
2, 86977, Note_off_c, 0, 84, 0
2, 86978, Note_off_c, 0, 81, 0
2, 87157, Note_on_c, 0, 79, 53
2, 87157, Note_on_c, 0, 83, 51
2, 87179, Note_off_c, 0, 77, 0
2, 87181, Note_off_c, 0, 74, 0
2, 87344, Note_on_c, 0, 76, 48
2, 87344, Note_on_c, 0, 72, 48
2, 87355, Note_off_c, 0, 83, 0
2, 87369, Note_off_c, 0, 79, 0
2, 87536, Note_on_c, 0, 81, 56
2, 87536, Note_on_c, 0, 77, 50
2, 87558, Note_off_c, 0, 76, 0
2, 87563, Note_off_c, 0, 72, 0
2, 87731, Note_on_c, 0, 71, 49
2, 87732, Note_on_c, 0, 74, 48
2, 87737, Note_off_c, 0, 81, 0
2, 87756, Note_off_c, 0, 77, 0
2, 87921, Note_on_c, 0, 76, 48
2, 87922, Note_on_c, 0, 79, 56
2, 87934, Note_off_c, 0, 71, 0
2, 87941, Note_off_c, 0, 74, 0
2, 88104, Note_on_c, 0, 69, 48
2, 88104, Note_on_c, 0, 72, 52
2, 88114, Note_off_c, 0, 79, 0
2, 88127, Note_off_c, 0, 76, 0
2, 88295, Note_on_c, 0, 77, 53
2, 88297, Note_on_c, 0, 74, 52
2, 88315, Note_off_c, 0, 69, 0
2, 88316, Note_off_c, 0, 72, 0
2, 88487, Note_on_c, 0, 67, 49
2, 88489, Note_on_c, 0, 71, 53
2, 88495, Note_off_c, 0, 77, 0
2, 88505, Note_off_c, 0, 74, 0
2, 88683, Note_off_c, 0, 67, 0
2, 88683, Note_on_c, 0, 76, 60
2, 88684, Note_on_c, 0, 72, 54
2, 88686, Note_off_c, 0, 71, 0
2, 88770, Note_off_c, 0, 72, 0
2, 88776, Note_off_c, 0, 76, 0
2, 89088, Note_on_c, 0, 96, 82
2, 89088, Note_on_c, 0, 99, 68
2, 89098, Control_c, 0, 10, 64
2, 89282, Note_on_c, 0, 93, 62
2, 89284, Note_on_c, 0, 89, 64
2, 89296, Note_off_c, 0, 96, 0
2, 89307, Note_off_c, 0, 99, 0
2, 89471, Note_on_c, 0, 94, 48
2, 89475, Note_on_c, 0, 98, 70
2, 89487, Note_off_c, 0, 93, 0
2, 89491, Note_off_c, 0, 89, 0
2, 89657, Note_off_c, 0, 98, 0
2, 89663, Note_on_c, 0, 87, 37
2, 89665, Note_on_c, 0, 91, 64
2, 89692, Note_off_c, 0, 94, 0
2, 89841, Note_on_c, 0, 93, 54
2, 89845, Note_on_c, 0, 96, 66
2, 89855, Note_off_c, 0, 91, 0
2, 89876, Note_off_c, 0, 87, 0
2, 90020, Note_on_c, 0, 89, 74
2, 90022, Note_on_c, 0, 86, 52
2, 90024, Note_off_c, 0, 96, 0
2, 90039, Note_off_c, 0, 93, 0
2, 90206, Note_on_c, 0, 94, 47
2, 90210, Note_on_c, 0, 91, 72
2, 90221, Note_off_c, 0, 89, 0
2, 90222, Note_off_c, 0, 86, 0
2, 90392, Note_on_c, 0, 87, 46
2, 90398, Note_on_c, 0, 84, 54
2, 90406, Note_off_c, 0, 91, 0
2, 90413, Note_off_c, 0, 94, 0
2, 90588, Note_on_c, 0, 93, 64
2, 90588, Note_on_c, 0, 89, 68
2, 90605, Note_off_c, 0, 84, 0
2, 90609, Note_off_c, 0, 87, 0
2, 90790, Note_off_c, 0, 93, 0
2, 90793, Note_on_c, 0, 82, 44
2, 90795, Note_on_c, 0, 86, 76
2, 90813, Note_off_c, 0, 89, 0
2, 90992, Note_on_c, 0, 91, 70
2, 90994, Note_on_c, 0, 87, 52
2, 91005, Note_off_c, 0, 86, 0
2, 91030, Note_off_c, 0, 82, 0
2, 91183, Note_off_c, 0, 91, 0
2, 91187, Note_on_c, 0, 81, 54
2, 91188, Note_on_c, 0, 84, 72
2, 91218, Note_off_c, 0, 87, 0
2, 91383, Note_on_c, 0, 89, 64
2, 91384, Note_on_c, 0, 86, 64
2, 91400, Note_off_c, 0, 84, 0
2, 91570, Note_off_c, 0, 89, 0
2, 91570, Note_off_c, 0, 81, 0
2, 91570, Note_on_c, 0, 82, 44
2, 91573, Note_on_c, 0, 79, 47
2, 91590, Note_off_c, 0, 86, 0
2, 91763, Note_on_c, 0, 87, 37
2, 91765, Note_on_c, 0, 84, 52
2, 91771, Note_off_c, 0, 79, 0
2, 91791, Note_off_c, 0, 82, 0
2, 91941, Note_on_c, 0, 81, 53
2, 91950, Note_on_c, 0, 77, 37
2, 91965, Note_off_c, 0, 84, 0
2, 91966, Note_off_c, 0, 87, 0
2, 92137, Note_on_c, 0, 82, 50
2, 92140, Note_on_c, 0, 86, 60
2, 92162, Note_off_c, 0, 81, 0
2, 92175, Note_off_c, 0, 77, 0
2, 92331, Note_off_c, 0, 86, 0
2, 92331, Note_on_c, 0, 75, 26
2, 92332, Note_on_c, 0, 79, 50
2, 92369, Note_off_c, 0, 82, 0
2, 92526, Note_on_c, 0, 81, 56
2, 92528, Note_on_c, 0, 84, 64
2, 92538, Note_off_c, 0, 79, 0
2, 92569, Note_off_c, 0, 75, 0
2, 92706, Note_off_c, 0, 84, 0
2, 92706, Note_on_c, 0, 77, 48
2, 92714, Note_on_c, 0, 74, 39
2, 92735, Note_off_c, 0, 81, 0
2, 92913, Note_on_c, 0, 82, 46
2, 92914, Note_on_c, 0, 79, 66
2, 92930, Note_off_c, 0, 77, 0
2, 92939, Note_off_c, 0, 74, 0
2, 93098, Note_on_c, 0, 75, 47
2, 93103, Note_on_c, 0, 72, 50
2, 93115, Note_off_c, 0, 79, 0
2, 93126, Note_off_c, 0, 82, 0
2, 93300, Note_on_c, 0, 81, 56
2, 93300, Note_on_c, 0, 77, 53
2, 93320, Note_off_c, 0, 72, 0
2, 93327, Note_off_c, 0, 75, 0
2, 93476, Note_off_c, 0, 81, 0
2, 93483, Note_on_c, 0, 74, 44
2, 93484, Note_on_c, 0, 70, 41
2, 93503, Note_off_c, 0, 77, 0
2, 93676, Note_on_c, 0, 79, 64
2, 93677, Note_on_c, 0, 75, 45
2, 93693, Note_off_c, 0, 74, 0
2, 93718, Note_off_c, 0, 70, 0
2, 93857, Note_off_c, 0, 79, 0
2, 93862, Note_on_c, 0, 72, 66
2, 93863, Note_on_c, 0, 69, 52
2, 93893, Note_off_c, 0, 75, 0
2, 94056, Note_on_c, 0, 74, 60
2, 94059, Note_on_c, 0, 77, 72
2, 94075, Note_off_c, 0, 69, 0
2, 94076, Note_off_c, 0, 72, 0
2, 94234, Note_off_c, 0, 77, 0
2, 94234, Note_on_c, 0, 70, 49
2, 94238, Note_on_c, 0, 67, 53
2, 94248, Note_off_c, 0, 74, 0
2, 94441, Note_on_c, 0, 75, 47
2, 94443, Note_on_c, 0, 72, 64
2, 94460, Note_off_c, 0, 67, 0
2, 94470, Note_off_c, 0, 70, 0
2, 94632, Note_on_c, 0, 69, 78
2, 94635, Note_on_c, 0, 65, 56
2, 94652, Note_off_c, 0, 72, 0
2, 94663, Note_off_c, 0, 75, 0
2, 94833, Note_on_c, 0, 74, 88
2, 94867, Note_off_c, 0, 65, 0
2, 95044, Note_off_c, 0, 74, 0
2, 95224, Note_on_c, 0, 73, 74
2, 95229, Note_on_c, 0, 61, 112
2, 95424, Note_off_c, 0, 69, 0
2, 95448, Note_off_c, 0, 61, 0
2, 95451, Note_off_c, 0, 73, 0
2, 95643, Note_on_c, 0, 94, 98
2, 95643, Note_on_c, 0, 97, 94
2, 95723, Control_c, 0, 10, 64
2, 95822, Note_on_c, 0, 91, 92
2, 95829, Note_on_c, 0, 88, 82
2, 95837, Note_off_c, 0, 97, 0
2, 95838, Note_off_c, 0, 94, 0
2, 96002, Note_on_c, 0, 94, 98
2, 96002, Note_on_c, 0, 97, 96
2, 96011, Note_off_c, 0, 88, 0
2, 96020, Note_off_c, 0, 91, 0
2, 96182, Note_on_c, 0, 91, 90
2, 96187, Note_on_c, 0, 88, 80
2, 96200, Note_off_c, 0, 97, 0
2, 96200, Note_off_c, 0, 94, 0
2, 96372, Note_on_c, 0, 93, 84
2, 96374, Note_on_c, 0, 96, 84
2, 96387, Note_off_c, 0, 88, 0
2, 96389, Note_off_c, 0, 91, 0
2, 96555, Note_on_c, 0, 90, 76
2, 96557, Note_on_c, 0, 87, 76
2, 96558, Note_off_c, 0, 96, 0
2, 96569, Note_off_c, 0, 93, 0
2, 96741, Note_on_c, 0, 92, 76
2, 96745, Note_on_c, 0, 95, 90
2, 96763, Note_off_c, 0, 90, 0
2, 96929, Note_off_c, 0, 87, 0
2, 96929, Note_on_c, 0, 89, 90
2, 96930, Note_on_c, 0, 86, 82
2, 96940, Note_off_c, 0, 95, 0
2, 96957, Note_off_c, 0, 92, 0
2, 97124, Note_on_c, 0, 91, 88
2, 97124, Note_on_c, 0, 94, 74
2, 97143, Note_off_c, 0, 89, 0
2, 97145, Note_off_c, 0, 86, 0
2, 97320, Note_on_c, 0, 88, 88
2, 97322, Note_on_c, 0, 85, 70
2, 97334, Note_off_c, 0, 91, 0
2, 97340, Note_off_c, 0, 94, 0
2, 97522, Note_on_c, 0, 90, 76
2, 97524, Note_on_c, 0, 93, 92
2, 97541, Note_off_c, 0, 88, 0
2, 97543, Note_off_c, 0, 85, 0
2, 97713, Note_on_c, 0, 87, 66
2, 97716, Note_on_c, 0, 84, 82
2, 97723, Note_off_c, 0, 93, 0
2, 97735, Note_off_c, 0, 90, 0
2, 97907, Note_on_c, 0, 89, 88
2, 97908, Note_on_c, 0, 92, 78
2, 97920, Note_off_c, 0, 87, 0
2, 97926, Note_off_c, 0, 84, 0
2, 98091, Note_on_c, 0, 86, 84
2, 98094, Note_on_c, 0, 83, 74
2, 98105, Note_off_c, 0, 92, 0
2, 98109, Note_off_c, 0, 89, 0
2, 98279, Note_on_c, 0, 88, 80
2, 98279, Note_on_c, 0, 91, 86
2, 98295, Note_off_c, 0, 86, 0
2, 98301, Note_off_c, 0, 83, 0
2, 98463, Note_off_c, 0, 91, 0
2, 98464, Note_on_c, 0, 85, 72
2, 98466, Note_on_c, 0, 82, 70
2, 98479, Note_off_c, 0, 88, 0
2, 98652, Note_on_c, 0, 90, 80
2, 98653, Note_on_c, 0, 87, 90
2, 98675, Note_off_c, 0, 85, 0
2, 98680, Note_off_c, 0, 82, 0
2, 98844, Note_on_c, 0, 84, 86
2, 98846, Note_on_c, 0, 81, 80
2, 98859, Note_off_c, 0, 90, 0
2, 98863, Note_off_c, 0, 87, 0
2, 99039, Note_on_c, 0, 89, 80
2, 99040, Note_on_c, 0, 86, 84
2, 99058, Note_off_c, 0, 81, 0
2, 99059, Note_off_c, 0, 84, 0
2, 99226, Note_on_c, 0, 83, 84
2, 99227, Note_on_c, 0, 80, 56
2, 99238, Note_off_c, 0, 89, 0
2, 99240, Note_off_c, 0, 86, 0
2, 99426, Note_on_c, 0, 85, 60
2, 99429, Note_on_c, 0, 88, 82
2, 99445, Note_off_c, 0, 83, 0
2, 99454, Note_off_c, 0, 80, 0
2, 99618, Note_on_c, 0, 82, 60
2, 99621, Note_on_c, 0, 79, 72
2, 99630, Note_off_c, 0, 88, 0
2, 99644, Note_off_c, 0, 85, 0
2, 99812, Note_on_c, 0, 84, 84
2, 99813, Note_on_c, 0, 87, 72
2, 99833, Note_off_c, 0, 79, 0
2, 99833, Note_off_c, 0, 82, 0
2, 100001, Note_on_c, 0, 78, 53
2, 100002, Note_on_c, 0, 81, 82
2, 100018, Note_off_c, 0, 87, 0
2, 100019, Note_off_c, 0, 84, 0
2, 100192, Note_on_c, 0, 83, 84
2, 100195, Note_on_c, 0, 86, 86
2, 100209, Note_off_c, 0, 81, 0
2, 100224, Note_off_c, 0, 78, 0
2, 100372, Note_on_c, 0, 77, 72
2, 100372, Note_on_c, 0, 80, 78
2, 100381, Note_off_c, 0, 86, 0
2, 100387, Note_off_c, 0, 83, 0
2, 100570, Note_on_c, 0, 82, 88
2, 100574, Note_on_c, 0, 85, 86
2, 100598, Note_off_c, 0, 77, 0
2, 100599, Note_off_c, 0, 80, 0
2, 100765, Note_on_c, 0, 79, 84
2, 100768, Note_on_c, 0, 76, 72
2, 100783, Note_off_c, 0, 85, 0
2, 100788, Note_off_c, 0, 82, 0
2, 100961, Note_on_c, 0, 81, 82
2, 100980, Note_off_c, 0, 79, 0
2, 100980, Note_on_c, 0, 84, 84
2, 100986, Note_off_c, 0, 76, 0
2, 101170, Note_on_c, 0, 78, 72
2, 101172, Note_on_c, 0, 75, 70
2, 101183, Note_off_c, 0, 84, 0
2, 101192, Note_off_c, 0, 81, 0
2, 101331, Note_off_c, 0, 78, 0
2, 101337, Note_off_c, 0, 75, 0
2, 119808, Control_c, 0, 10, 64
2, 119808, Note_on_c, 0, 75, 50
2, 119808, Note_on_c, 0, 78, 48
2, 120005, Note_on_c, 0, 80, 52
2, 120011, Note_on_c, 0, 76, 68
2, 120035, Note_off_c, 0, 78, 0
2, 120038, Note_off_c, 0, 75, 0
2, 120206, Note_on_c, 0, 75, 52
2, 120210, Note_on_c, 0, 78, 56
2, 120228, Note_off_c, 0, 76, 0
2, 120235, Note_off_c, 0, 80, 0
2, 120388, Note_on_c, 0, 80, 54
2, 120390, Note_on_c, 0, 76, 68
2, 120413, Note_off_c, 0, 75, 0
2, 120414, Note_off_c, 0, 78, 0
2, 120565, Note_on_c, 0, 75, 44
2, 120566, Note_on_c, 0, 78, 48
2, 120586, Note_off_c, 0, 76, 0
2, 120597, Note_off_c, 0, 80, 0
2, 120739, Note_on_c, 0, 80, 50
2, 120746, Note_on_c, 0, 76, 64
2, 120768, Note_off_c, 0, 78, 0
2, 120769, Note_off_c, 0, 75, 0
2, 120920, Note_on_c, 0, 75, 50
2, 120925, Note_on_c, 0, 78, 53
2, 120942, Note_off_c, 0, 76, 0
2, 120950, Note_off_c, 0, 80, 0
2, 121128, Note_on_c, 0, 80, 54
2, 121131, Note_on_c, 0, 76, 66
2, 121150, Note_off_c, 0, 78, 0
2, 121152, Note_off_c, 0, 75, 0
2, 121331, Note_on_c, 0, 75, 45
2, 121332, Note_on_c, 0, 78, 44
2, 121352, Note_off_c, 0, 76, 0
2, 121362, Note_off_c, 0, 80, 0
2, 121530, Note_on_c, 0, 76, 62
2, 121531, Note_on_c, 0, 80, 49
2, 121554, Note_off_c, 0, 75, 0
2, 121556, Note_off_c, 0, 78, 0
2, 121722, Note_on_c, 0, 75, 43
2, 121723, Note_on_c, 0, 78, 47
2, 121744, Note_off_c, 0, 76, 0
2, 121750, Note_off_c, 0, 80, 0
2, 121905, Note_on_c, 0, 80, 50
2, 121907, Note_on_c, 0, 76, 58
2, 121928, Note_off_c, 0, 78, 0
2, 121931, Note_off_c, 0, 75, 0
2, 122102, Note_on_c, 0, 75, 44
2, 122103, Note_on_c, 0, 78, 44
2, 122125, Note_off_c, 0, 76, 0
2, 122133, Note_off_c, 0, 80, 0
2, 122290, Note_on_c, 0, 80, 56
2, 122291, Note_on_c, 0, 76, 66
2, 122315, Note_off_c, 0, 78, 0
2, 122315, Note_off_c, 0, 75, 0
2, 122472, Note_on_c, 0, 75, 47
2, 122474, Note_on_c, 0, 78, 49
2, 122497, Note_off_c, 0, 76, 0
2, 122504, Note_off_c, 0, 80, 0
2, 122659, Note_on_c, 0, 76, 54
2, 122660, Note_on_c, 0, 80, 50
2, 122686, Note_off_c, 0, 78, 0
2, 122688, Note_off_c, 0, 75, 0
2, 122857, Note_on_c, 0, 75, 48
2, 122860, Note_on_c, 0, 78, 51
2, 122879, Note_off_c, 0, 76, 0
2, 122892, Note_off_c, 0, 80, 0
2, 123060, Note_on_c, 0, 76, 66
2, 123060, Note_on_c, 0, 80, 66
2, 123082, Note_off_c, 0, 75, 0
2, 123083, Note_off_c, 0, 78, 0
2, 123245, Note_on_c, 0, 75, 46
2, 123245, Note_on_c, 0, 78, 45
2, 123265, Note_off_c, 0, 76, 0
2, 123284, Note_off_c, 0, 80, 0
2, 123433, Note_on_c, 0, 77, 68
2, 123436, Note_on_c, 0, 74, 60
2, 123453, Note_off_c, 0, 75, 0
2, 123461, Note_off_c, 0, 78, 0
2, 123620, Note_on_c, 0, 75, 49
2, 123620, Note_on_c, 0, 78, 51
2, 123638, Note_off_c, 0, 77, 0
2, 123647, Note_off_c, 0, 74, 0
2, 123811, Note_on_c, 0, 76, 52
2, 123814, Note_on_c, 0, 80, 62
2, 123834, Note_off_c, 0, 75, 0
2, 123840, Note_off_c, 0, 78, 0
2, 123999, Note_on_c, 0, 75, 45
2, 123999, Note_on_c, 0, 78, 48
2, 124020, Note_off_c, 0, 76, 0
2, 124197, Note_off_c, 0, 80, 0
2, 124197, Note_on_c, 0, 77, 60
2, 124197, Note_on_c, 0, 74, 49
2, 124223, Note_off_c, 0, 78, 0
2, 124227, Note_off_c, 0, 75, 0
2, 124394, Note_on_c, 0, 75, 49
2, 124395, Note_on_c, 0, 78, 52
2, 124409, Note_off_c, 0, 77, 0
2, 124426, Note_off_c, 0, 74, 0
2, 124589, Note_on_c, 0, 80, 50
2, 124591, Note_on_c, 0, 76, 60
2, 124616, Note_off_c, 0, 75, 0
2, 124622, Note_off_c, 0, 78, 0
2, 124778, Note_on_c, 0, 75, 52
2, 124778, Note_on_c, 0, 78, 54
2, 124799, Note_off_c, 0, 76, 0
2, 124809, Note_off_c, 0, 80, 0
2, 124968, Note_on_c, 0, 77, 68
2, 124970, Note_on_c, 0, 74, 56
2, 124990, Note_off_c, 0, 75, 0
2, 124994, Note_off_c, 0, 78, 0
2, 125161, Note_on_c, 0, 78, 45
2, 125161, Note_on_c, 0, 75, 47
2, 125181, Note_off_c, 0, 77, 0
2, 125190, Note_off_c, 0, 74, 0
2, 125357, Note_on_c, 0, 80, 64
2, 125379, Note_off_c, 0, 75, 0
2, 125379, Note_on_c, 0, 76, 68
2, 125384, Note_off_c, 0, 78, 0
2, 125541, Note_on_c, 0, 75, 51
2, 125543, Note_on_c, 0, 78, 51
2, 125561, Note_off_c, 0, 76, 0
2, 125570, Note_off_c, 0, 80, 0
2, 125735, Note_on_c, 0, 77, 45
2, 125739, Note_on_c, 0, 74, 66
2, 125756, Note_off_c, 0, 75, 0
2, 125758, Note_off_c, 0, 78, 0
2, 125908, Note_off_c, 0, 77, 0
2, 125922, Note_on_c, 0, 75, 68
2, 125923, Note_on_c, 0, 78, 80
2, 125948, Note_off_c, 0, 74, 0
2, 126124, Note_on_c, 0, 76, 70
2, 126124, Note_on_c, 0, 79, 78
2, 126139, Note_off_c, 0, 78, 0
2, 126144, Note_off_c, 0, 75, 0
2, 126309, Note_on_c, 0, 80, 68
2, 126311, Note_on_c, 0, 77, 70
2, 126328, Note_off_c, 0, 79, 0
2, 126335, Note_off_c, 0, 76, 0
2, 126504, Note_on_c, 0, 78, 60
2, 126504, Note_on_c, 0, 81, 78
2, 126524, Note_off_c, 0, 77, 0
2, 126525, Note_off_c, 0, 80, 0
2, 126692, Note_on_c, 0, 82, 49
2, 126693, Note_on_c, 0, 79, 68
2, 126713, Note_off_c, 0, 78, 0
2, 126718, Note_off_c, 0, 81, 0
2, 126895, Note_on_c, 0, 80, 49
2, 126897, Note_on_c, 0, 83, 70
2, 126917, Note_off_c, 0, 82, 0
2, 126919, Note_off_c, 0, 79, 0
2, 127089, Note_on_c, 0, 84, 68
2, 127096, Note_on_c, 0, 81, 70
2, 127111, Note_off_c, 0, 83, 0
2, 127113, Note_off_c, 0, 80, 0
2, 127279, Note_on_c, 0, 82, 54
2, 127281, Note_on_c, 0, 85, 70
2, 127300, Note_off_c, 0, 84, 0
2, 127304, Note_off_c, 0, 81, 0
2, 127470, Note_on_c, 0, 86, 80
2, 127471, Note_on_c, 0, 83, 68
2, 127489, Note_off_c, 0, 85, 0
2, 127490, Note_off_c, 0, 82, 0
2, 127655, Note_on_c, 0, 87, 54
2, 127655, Note_on_c, 0, 84, 74
2, 127671, Note_off_c, 0, 86, 0
2, 127680, Note_off_c, 0, 83, 0
2, 127867, Note_on_c, 0, 88, 72
2, 127868, Note_on_c, 0, 85, 56
2, 127891, Note_off_c, 0, 84, 0
2, 127892, Note_off_c, 0, 87, 0
2, 128052, Note_on_c, 0, 89, 60
2, 128055, Note_on_c, 0, 86, 64
2, 128071, Note_off_c, 0, 85, 0
2, 128072, Note_off_c, 0, 88, 0
2, 128239, Note_on_c, 0, 87, 58
2, 128241, Note_on_c, 0, 90, 72
2, 128262, Note_off_c, 0, 89, 0
2, 128263, Note_off_c, 0, 86, 0
2, 128428, Note_on_c, 0, 88, 66
2, 128428, Note_on_c, 0, 91, 78
2, 128447, Note_off_c, 0, 90, 0
2, 128447, Note_off_c, 0, 87, 0
2, 128617, Note_on_c, 0, 92, 52
2, 128618, Note_on_c, 0, 89, 70
2, 128637, Note_off_c, 0, 91, 0
2, 128638, Note_off_c, 0, 88, 0
2, 128812, Note_on_c, 0, 90, 58
2, 128813, Note_on_c, 0, 93, 70
2, 128836, Note_off_c, 0, 92, 0
2, 128838, Note_off_c, 0, 89, 0
2, 128912, Note_off_c, 0, 93, 0
2, 128925, Note_off_c, 0, 90, 0
2, 129033, Note_on_c, 0, 99, 84
2, 129034, Note_on_c, 0, 90, 84
2, 129138, Note_off_c, 0, 99, 0
2, 129142, Note_off_c, 0, 90, 0
2, 132096, Control_c, 0, 10, 64
2, 132109, Note_on_c, 0, 97, 60
2, 132111, Note_on_c, 0, 100, 76
2, 132296, Note_on_c, 0, 95, 62
2, 132297, Note_on_c, 0, 99, 50
2, 132326, Note_off_c, 0, 100, 0
2, 132331, Note_off_c, 0, 97, 0
2, 132491, Note_on_c, 0, 100, 62
2, 132493, Note_on_c, 0, 97, 50
2, 132518, Note_off_c, 0, 99, 0
2, 132518, Note_off_c, 0, 95, 0
2, 132654, Note_on_c, 0, 99, 48
2, 132660, Note_on_c, 0, 95, 56
2, 132684, Note_off_c, 0, 100, 0
2, 132688, Note_off_c, 0, 97, 0
2, 132728, Note_off_c, 0, 99, 0
2, 132840, Note_on_c, 0, 97, 43
2, 132841, Note_on_c, 0, 94, 42
2, 132861, Note_off_c, 0, 95, 0
2, 133039, Note_on_c, 0, 92, 37
2, 133041, Note_on_c, 0, 95, 64
2, 133069, Note_off_c, 0, 94, 0
2, 133084, Note_off_c, 0, 97, 0
2, 133243, Note_on_c, 0, 97, 46
2, 133243, Note_on_c, 0, 94, 52
2, 133271, Note_off_c, 0, 92, 0
2, 133273, Note_off_c, 0, 95, 0
2, 133422, Note_on_c, 0, 92, 30
2, 133427, Note_on_c, 0, 95, 74
2, 133455, Note_off_c, 0, 94, 0
2, 133457, Note_off_c, 0, 97, 0
2, 133498, Note_off_c, 0, 95, 0
2, 133623, Note_on_c, 0, 94, 60
2, 133627, Note_on_c, 0, 90, 44
2, 133640, Note_off_c, 0, 92, 0
2, 133816, Note_on_c, 0, 88, 54
2, 133818, Note_on_c, 0, 92, 46
2, 133847, Note_off_c, 0, 90, 0
2, 133851, Note_off_c, 0, 94, 0
2, 134009, Note_on_c, 0, 94, 52
2, 134011, Note_on_c, 0, 90, 50
2, 134039, Note_off_c, 0, 88, 0
2, 134045, Note_off_c, 0, 92, 0
2, 134195, Note_on_c, 0, 92, 48
2, 134198, Note_on_c, 0, 88, 51
2, 134231, Note_off_c, 0, 90, 0
2, 134231, Note_off_c, 0, 94, 0
2, 134267, Note_off_c, 0, 92, 0
2, 134384, Note_on_c, 0, 90, 47
2, 134385, Note_on_c, 0, 87, 43
2, 134407, Note_off_c, 0, 88, 0
2, 134581, Note_on_c, 0, 85, 44
2, 134582, Note_on_c, 0, 88, 68
2, 134611, Note_off_c, 0, 87, 0
2, 134617, Note_off_c, 0, 90, 0
2, 134774, Note_on_c, 0, 90, 44
2, 134775, Note_on_c, 0, 87, 49
2, 134801, Note_off_c, 0, 88, 0
2, 134802, Note_off_c, 0, 85, 0
2, 134956, Note_on_c, 0, 85, 37
2, 134957, Note_on_c, 0, 88, 66
2, 134986, Note_off_c, 0, 87, 0
2, 134995, Note_off_c, 0, 90, 0
2, 135033, Note_off_c, 0, 88, 0
2, 135142, Note_off_c, 0, 85, 0
2, 135153, Note_on_c, 0, 83, 64
2, 135153, Note_on_c, 0, 87, 47
2, 135349, Note_on_c, 0, 82, 43
2, 135351, Note_on_c, 0, 85, 48
2, 135377, Note_off_c, 0, 83, 0
2, 135387, Note_off_c, 0, 87, 0
2, 135539, Note_on_c, 0, 87, 52
2, 135541, Note_on_c, 0, 83, 54
2, 135555, Note_off_c, 0, 82, 0
2, 135574, Note_off_c, 0, 85, 0
2, 135716, Note_on_c, 0, 85, 50
2, 135720, Note_on_c, 0, 82, 41
2, 135742, Note_off_c, 0, 83, 0
2, 135752, Note_off_c, 0, 87, 0
2, 135799, Note_off_c, 0, 85, 0
2, 135901, Note_off_c, 0, 82, 0
2, 135912, Note_on_c, 0, 80, 41
2, 135915, Note_on_c, 0, 83, 72
2, 136105, Note_on_c, 0, 82, 51
2, 136108, Note_on_c, 0, 78, 46
2, 136121, Note_off_c, 0, 83, 0
2, 136144, Note_off_c, 0, 80, 0
2, 136301, Note_on_c, 0, 83, 60
2, 136306, Note_on_c, 0, 80, 60
2, 136331, Note_off_c, 0, 82, 0
2, 136335, Note_off_c, 0, 78, 0
2, 136489, Note_on_c, 0, 78, 42
2, 136491, Note_on_c, 0, 82, 49
2, 136507, Note_off_c, 0, 83, 0
2, 136525, Note_off_c, 0, 80, 0
2, 136571, Note_off_c, 0, 82, 0
2, 136684, Note_on_c, 0, 80, 47
2, 136685, Note_off_c, 0, 78, 0
2, 136694, Note_on_c, 0, 76, 62
2, 136885, Note_on_c, 0, 75, 43
2, 136887, Note_on_c, 0, 78, 46
2, 136915, Note_off_c, 0, 76, 0
2, 136920, Note_off_c, 0, 80, 0
2, 137077, Note_on_c, 0, 80, 51
2, 137080, Note_on_c, 0, 76, 64
2, 137105, Note_off_c, 0, 78, 0
2, 137116, Note_off_c, 0, 75, 0
2, 137266, Note_on_c, 0, 75, 33
2, 137267, Note_on_c, 0, 78, 47
2, 137294, Note_off_c, 0, 76, 0
2, 137303, Note_off_c, 0, 80, 0
2, 137352, Note_off_c, 0, 78, 0
2, 137442, Note_off_c, 0, 75, 0
2, 137456, Note_on_c, 0, 73, 30
2, 137463, Note_on_c, 0, 76, 58
2, 137649, Note_on_c, 0, 71, 51
2, 137649, Note_on_c, 0, 75, 50
2, 137669, Note_off_c, 0, 76, 0
2, 137688, Note_off_c, 0, 73, 0
2, 137835, Note_on_c, 0, 76, 72
2, 137838, Note_on_c, 0, 73, 48
2, 137863, Note_off_c, 0, 75, 0
2, 137874, Note_off_c, 0, 71, 0
2, 138019, Note_on_c, 0, 75, 53
2, 138024, Note_on_c, 0, 71, 70
2, 138038, Note_off_c, 0, 76, 0
2, 138055, Note_off_c, 0, 73, 0
2, 138146, Note_off_c, 0, 75, 0
2, 138150, Note_off_c, 0, 71, 0
2, 138240, Note_on_c, 0, 92, 49
2, 138240, Note_on_c, 0, 95, 74
2, 138422, Control_c, 0, 10, 64
2, 138428, Note_on_c, 0, 94, 52
2, 138430, Note_on_c, 0, 90, 47
2, 138476, Note_off_c, 0, 95, 0
2, 138487, Note_off_c, 0, 92, 0
2, 138644, Note_on_c, 0, 95, 64
2, 138647, Note_on_c, 0, 92, 52
2, 138673, Note_off_c, 0, 90, 0
2, 138680, Note_off_c, 0, 94, 0
2, 138804, Note_on_c, 0, 94, 52
2, 138807, Note_on_c, 0, 90, 46
2, 138822, Note_off_c, 0, 95, 0
2, 138832, Note_off_c, 0, 92, 0
2, 138877, Note_off_c, 0, 94, 0
2, 138989, Note_off_c, 0, 90, 0
2, 139006, Note_on_c, 0, 92, 41
2, 139015, Note_on_c, 0, 88, 76
2, 139209, Note_on_c, 0, 87, 45
2, 139212, Note_on_c, 0, 90, 50
2, 139233, Note_off_c, 0, 88, 0
2, 139247, Note_off_c, 0, 92, 0
2, 139417, Note_on_c, 0, 92, 47
2, 139417, Note_on_c, 0, 88, 64
2, 139444, Note_off_c, 0, 90, 0
2, 139449, Note_off_c, 0, 87, 0
2, 139581, Note_on_c, 0, 90, 51
2, 139585, Note_on_c, 0, 87, 42
2, 139604, Note_off_c, 0, 88, 0
2, 139616, Note_off_c, 0, 92, 0
2, 139647, Note_off_c, 0, 90, 0
2, 139755, Note_off_c, 0, 87, 0
2, 139774, Note_on_c, 0, 85, 28
2, 139776, Note_on_c, 0, 88, 68
2, 139965, Note_on_c, 0, 87, 48
2, 139969, Note_on_c, 0, 83, 51
2, 139982, Note_off_c, 0, 88, 0
2, 140000, Note_off_c, 0, 85, 0
2, 140150, Note_on_c, 0, 88, 62
2, 140151, Note_on_c, 0, 85, 51
2, 140175, Note_off_c, 0, 87, 0
2, 140183, Note_off_c, 0, 83, 0
2, 140331, Note_on_c, 0, 87, 46
2, 140336, Note_off_c, 0, 88, 0
2, 140339, Note_on_c, 0, 83, 44
2, 140370, Note_off_c, 0, 85, 0
2, 140396, Note_off_c, 0, 87, 0
2, 140517, Note_on_c, 0, 82, 33
2, 140517, Note_on_c, 0, 85, 41
2, 140524, Note_off_c, 0, 83, 0
2, 140711, Note_on_c, 0, 80, 45
2, 140712, Note_on_c, 0, 83, 78
2, 140739, Note_off_c, 0, 82, 0
2, 140749, Note_off_c, 0, 85, 0
2, 140901, Note_on_c, 0, 85, 46
2, 140904, Note_on_c, 0, 82, 51
2, 140932, Note_off_c, 0, 83, 0
2, 140933, Note_off_c, 0, 80, 0
2, 141083, Note_on_c, 0, 83, 68
2, 141083, Note_on_c, 0, 80, 37
2, 141110, Note_off_c, 0, 82, 0
2, 141121, Note_off_c, 0, 85, 0
2, 141152, Note_off_c, 0, 83, 0
2, 141267, Note_off_c, 0, 80, 0
2, 141284, Note_on_c, 0, 82, 51
2, 141286, Note_on_c, 0, 78, 43
2, 141486, Note_on_c, 0, 80, 47
2, 141486, Note_on_c, 0, 76, 50
2, 141520, Note_off_c, 0, 82, 0
2, 141521, Note_off_c, 0, 78, 0
2, 141686, Note_on_c, 0, 82, 48
2, 141689, Note_on_c, 0, 78, 52
2, 141722, Note_off_c, 0, 76, 0
2, 141723, Note_off_c, 0, 80, 0
2, 141871, Note_on_c, 0, 80, 46
2, 141874, Note_on_c, 0, 76, 56
2, 141901, Note_off_c, 0, 78, 0
2, 141908, Note_off_c, 0, 82, 0
2, 141938, Note_off_c, 0, 80, 0
2, 142056, Note_on_c, 0, 78, 42
2, 142057, Note_on_c, 0, 75, 33
2, 142065, Note_off_c, 0, 76, 0
2, 142243, Note_on_c, 0, 73, 41
2, 142246, Note_on_c, 0, 76, 58
2, 142273, Note_off_c, 0, 75, 0
2, 142286, Note_off_c, 0, 78, 0
2, 142435, Note_on_c, 0, 78, 45
2, 142437, Note_on_c, 0, 75, 47
2, 142461, Note_off_c, 0, 76, 0
2, 142467, Note_off_c, 0, 73, 0
2, 142629, Note_on_c, 0, 73, 39
2, 142631, Note_on_c, 0, 76, 70
2, 142659, Note_off_c, 0, 75, 0
2, 142666, Note_off_c, 0, 78, 0
2, 142699, Note_off_c, 0, 76, 0
2, 142814, Note_off_c, 0, 73, 0
2, 142829, Note_on_c, 0, 75, 44
2, 142832, Note_on_c, 0, 71, 70
2, 143022, Note_on_c, 0, 70, 39
2, 143024, Note_on_c, 0, 73, 48
2, 143044, Note_off_c, 0, 71, 0
2, 143059, Note_off_c, 0, 75, 0
2, 143216, Note_on_c, 0, 71, 60
2, 143216, Note_on_c, 0, 75, 46
2, 143248, Note_off_c, 0, 73, 0
2, 143249, Note_off_c, 0, 70, 0
2, 143401, Note_on_c, 0, 73, 49
2, 143404, Note_on_c, 0, 70, 39
2, 143421, Note_off_c, 0, 71, 0
2, 143441, Note_off_c, 0, 75, 0
2, 143468, Note_off_c, 0, 73, 0
2, 143576, Note_off_c, 0, 70, 0
2, 143601, Note_on_c, 0, 68, 20
2, 143602, Note_on_c, 0, 71, 56
2, 143780, Note_on_c, 0, 70, 52
2, 143785, Note_on_c, 0, 66, 44
2, 143790, Note_off_c, 0, 71, 0
2, 143815, Note_off_c, 0, 68, 0
2, 143858, Note_off_c, 0, 70, 0
2, 143969, Note_on_c, 0, 68, 37
2, 143970, Note_off_c, 0, 66, 0
2, 143980, Note_on_c, 0, 64, 53
2, 144161, Note_on_c, 0, 66, 48
2, 144163, Note_on_c, 0, 63, 44
2, 144186, Note_off_c, 0, 64, 0
2, 144196, Note_off_c, 0, 68, 0
2, 144293, Note_off_c, 0, 63, 0
2, 144379, Note_on_c, 0, 64, 76
2, 144380, Note_on_c, 0, 61, 47
2, 144408, Note_off_c, 0, 66, 0
2, 144703, Note_off_c, 0, 64, 0
2, 144719, Note_off_c, 0, 61, 0
2, 162816, Control_c, 0, 10, 64
2, 163576, Note_on_c, 0, 87, 48
2, 163577, Note_on_c, 0, 84, 48
2, 163757, Note_on_c, 0, 85, 30
2, 163757, Note_on_c, 0, 88, 66
2, 163769, Note_off_c, 0, 84, 0
2, 163804, Note_off_c, 0, 87, 0
2, 163952, Note_on_c, 0, 84, 56
2, 163953, Note_on_c, 0, 87, 45
2, 163970, Note_off_c, 0, 88, 0
2, 163976, Note_off_c, 0, 85, 0
2, 164140, Note_on_c, 0, 85, 39
2, 164143, Note_on_c, 0, 88, 64
2, 164157, Note_off_c, 0, 87, 0
2, 164157, Note_off_c, 0, 84, 0
2, 164332, Note_on_c, 0, 87, 41
2, 164334, Note_on_c, 0, 84, 48
2, 164344, Note_off_c, 0, 88, 0
2, 164361, Note_off_c, 0, 85, 0
2, 164522, Note_on_c, 0, 85, 31
2, 164524, Note_on_c, 0, 88, 42
2, 164539, Note_off_c, 0, 84, 0
2, 164546, Note_off_c, 0, 87, 0
2, 164712, Note_on_c, 0, 84, 45
2, 164714, Note_on_c, 0, 87, 39
2, 164728, Note_off_c, 0, 88, 0
2, 164741, Note_off_c, 0, 85, 0
2, 164901, Note_on_c, 0, 88, 49
2, 164901, Note_on_c, 0, 85, 35
2, 164918, Note_off_c, 0, 84, 0
2, 164925, Note_off_c, 0, 87, 0
2, 165100, Note_on_c, 0, 84, 48
2, 165106, Note_on_c, 0, 87, 45
2, 165121, Note_off_c, 0, 88, 0
2, 165127, Note_off_c, 0, 85, 0
2, 165294, Note_on_c, 0, 85, 39
2, 165297, Note_on_c, 0, 88, 48
2, 165312, Note_off_c, 0, 84, 0
2, 165316, Note_off_c, 0, 87, 0
2, 165496, Note_on_c, 0, 87, 33
2, 165497, Note_on_c, 0, 84, 49
2, 165505, Note_off_c, 0, 88, 0
2, 165527, Note_off_c, 0, 85, 0
2, 165689, Note_on_c, 0, 85, 33
2, 165689, Note_on_c, 0, 88, 48
2, 165709, Note_off_c, 0, 87, 0
2, 165751, Note_off_c, 0, 84, 0
2, 165785, Note_off_c, 0, 85, 0
2, 165847, Note_off_c, 0, 88, 0
2, 165889, Note_on_c, 0, 87, 44
2, 165892, Note_on_c, 0, 90, 49
2, 166079, Note_on_c, 0, 92, 41
2, 166082, Note_on_c, 0, 88, 52
2, 166092, Note_off_c, 0, 90, 0
2, 166094, Note_off_c, 0, 87, 0
2, 166273, Note_on_c, 0, 90, 50
2, 166273, Note_on_c, 0, 87, 45
2, 166288, Note_off_c, 0, 88, 0
2, 166300, Note_off_c, 0, 92, 0
2, 166455, Note_on_c, 0, 92, 39
2, 166459, Note_on_c, 0, 88, 48
2, 166471, Note_off_c, 0, 87, 0
2, 166472, Note_off_c, 0, 90, 0
2, 166648, Note_on_c, 0, 90, 50
2, 166648, Note_on_c, 0, 87, 47
2, 166666, Note_off_c, 0, 88, 0
2, 166677, Note_off_c, 0, 92, 0
2, 166836, Note_on_c, 0, 92, 41
2, 166837, Note_on_c, 0, 88, 53
2, 166850, Note_off_c, 0, 90, 0
2, 166855, Note_off_c, 0, 87, 0
2, 167020, Note_on_c, 0, 87, 42
2, 167020, Note_on_c, 0, 90, 45
2, 167038, Note_off_c, 0, 88, 0
2, 167048, Note_off_c, 0, 92, 0
2, 167210, Note_on_c, 0, 92, 39
2, 167213, Note_on_c, 0, 88, 53
2, 167228, Note_off_c, 0, 90, 0
2, 167228, Note_off_c, 0, 87, 0
2, 167402, Note_on_c, 0, 87, 42
2, 167402, Note_on_c, 0, 90, 47
2, 167423, Note_off_c, 0, 88, 0
2, 167429, Note_off_c, 0, 92, 0
2, 167604, Note_on_c, 0, 92, 39
2, 167605, Note_on_c, 0, 88, 56
2, 167622, Note_off_c, 0, 90, 0
2, 167627, Note_off_c, 0, 87, 0
2, 167796, Note_on_c, 0, 87, 43
2, 167798, Note_on_c, 0, 90, 45
2, 167815, Note_off_c, 0, 88, 0
2, 167824, Note_off_c, 0, 92, 0
2, 167990, Note_on_c, 0, 92, 35
2, 167998, Note_on_c, 0, 88, 45
2, 168010, Note_off_c, 0, 90, 0
2, 168018, Note_off_c, 0, 87, 0
2, 168182, Note_on_c, 0, 87, 44
2, 168183, Note_on_c, 0, 90, 47
2, 168201, Note_off_c, 0, 88, 0
2, 168211, Note_off_c, 0, 92, 0
2, 168379, Note_on_c, 0, 92, 42
2, 168380, Note_on_c, 0, 88, 62
2, 168393, Note_off_c, 0, 90, 0
2, 168397, Note_off_c, 0, 87, 0
2, 168576, Note_on_c, 0, 87, 44
2, 168578, Note_on_c, 0, 90, 47
2, 168596, Note_off_c, 0, 88, 0
2, 168604, Note_off_c, 0, 92, 0
2, 168751, Note_on_c, 0, 92, 35
2, 168754, Note_on_c, 0, 88, 51
2, 168764, Note_off_c, 0, 90, 0
2, 168780, Note_off_c, 0, 87, 0
2, 168937, Note_off_c, 0, 92, 0
2, 168942, Note_on_c, 0, 90, 44
2, 168949, Note_on_c, 0, 93, 54
2, 168957, Note_off_c, 0, 88, 0
2, 169117, Note_off_c, 0, 90, 0
2, 169120, Note_off_c, 0, 93, 0
2, 169126, Note_on_c, 0, 92, 30
2, 169134, Note_on_c, 0, 89, 56
2, 169274, Note_off_c, 0, 92, 0
2, 169329, Note_on_c, 0, 91, 58
2, 169335, Note_on_c, 0, 88, 48
2, 169352, Note_off_c, 0, 89, 0
2, 169516, Note_on_c, 0, 87, 42
2, 169518, Note_on_c, 0, 90, 49
2, 169536, Note_off_c, 0, 88, 0
2, 169539, Note_off_c, 0, 91, 0
2, 169720, Note_on_c, 0, 89, 58
2, 169722, Note_on_c, 0, 86, 60
2, 169742, Note_off_c, 0, 90, 0
2, 169745, Note_off_c, 0, 87, 0
2, 169916, Note_on_c, 0, 85, 31
2, 169918, Note_on_c, 0, 88, 68
2, 169935, Note_off_c, 0, 86, 0
2, 169942, Note_off_c, 0, 89, 0
2, 170126, Note_on_c, 0, 89, 60
2, 170127, Note_on_c, 0, 86, 64
2, 170141, Note_off_c, 0, 88, 0
2, 170149, Note_off_c, 0, 85, 0
2, 170299, Note_on_c, 0, 90, 42
2, 170299, Note_on_c, 0, 87, 44
2, 170318, Note_off_c, 0, 89, 0
2, 170320, Note_off_c, 0, 86, 0
2, 170492, Note_on_c, 0, 88, 52
2, 170493, Note_on_c, 0, 91, 72
2, 170515, Note_off_c, 0, 87, 0
2, 170519, Note_off_c, 0, 90, 0
2, 170686, Note_on_c, 0, 90, 50
2, 170687, Note_on_c, 0, 87, 46
2, 170704, Note_off_c, 0, 88, 0
2, 170710, Note_off_c, 0, 91, 0
2, 170884, Note_on_c, 0, 86, 51
2, 170884, Note_on_c, 0, 89, 68
2, 170905, Note_off_c, 0, 87, 0
2, 170909, Note_off_c, 0, 90, 0
2, 171062, Note_on_c, 0, 85, 41
2, 171063, Note_on_c, 0, 88, 68
2, 171084, Note_off_c, 0, 89, 0
2, 171088, Note_off_c, 0, 86, 0
2, 171260, Note_on_c, 0, 87, 48
2, 171260, Note_on_c, 0, 84, 56
2, 171275, Note_off_c, 0, 88, 0
2, 171290, Note_off_c, 0, 85, 0
2, 171361, Note_off_c, 0, 84, 0
2, 171454, Note_on_c, 0, 86, 53
2, 171455, Note_on_c, 0, 83, 47
2, 171462, Note_off_c, 0, 87, 0
2, 171640, Note_on_c, 0, 87, 50
2, 171641, Note_on_c, 0, 84, 60
2, 171654, Note_off_c, 0, 86, 0
2, 171658, Note_off_c, 0, 83, 0
2, 171767, Note_off_c, 0, 87, 0
2, 171823, Note_on_c, 0, 88, 56
2, 171825, Note_on_c, 0, 85, 44
2, 171849, Note_off_c, 0, 84, 0
2, 172021, Note_on_c, 0, 89, 52
2, 172022, Note_on_c, 0, 86, 58
2, 172034, Note_off_c, 0, 85, 0
2, 172039, Note_off_c, 0, 88, 0
2, 172229, Note_on_c, 0, 88, 52
2, 172230, Note_on_c, 0, 85, 42
2, 172241, Note_off_c, 0, 86, 0
2, 172251, Note_off_c, 0, 89, 0
2, 172408, Note_on_c, 0, 84, 46
2, 172413, Note_on_c, 0, 87, 51
2, 172433, Note_off_c, 0, 88, 0
2, 172484, Note_off_c, 0, 84, 0
2, 172488, Note_off_c, 0, 85, 0
2, 172589, Note_on_c, 0, 83, 51
2, 172591, Note_on_c, 0, 86, 60
2, 172612, Note_off_c, 0, 87, 0
2, 172772, Note_on_c, 0, 85, 48
2, 172774, Note_on_c, 0, 82, 43
2, 172791, Note_off_c, 0, 86, 0
2, 172794, Note_off_c, 0, 83, 0
2, 172963, Note_on_c, 0, 84, 62
2, 172963, Note_on_c, 0, 81, 50
2, 172981, Note_off_c, 0, 82, 0
2, 172990, Note_off_c, 0, 85, 0
2, 173147, Note_on_c, 0, 83, 58
2, 173148, Note_on_c, 0, 79, 49
2, 173153, Note_off_c, 0, 84, 0
2, 173171, Note_off_c, 0, 81, 0
2, 173351, Note_on_c, 0, 85, 42
2, 173354, Note_on_c, 0, 81, 53
2, 173376, Note_off_c, 0, 79, 0
2, 173376, Note_off_c, 0, 83, 0
2, 173552, Note_on_c, 0, 79, 62
2, 173553, Note_on_c, 0, 83, 58
2, 173577, Note_off_c, 0, 81, 0
2, 173579, Note_off_c, 0, 85, 0
2, 173749, Note_on_c, 0, 85, 37
2, 173751, Note_on_c, 0, 81, 54
2, 173771, Note_off_c, 0, 79, 0
2, 173774, Note_off_c, 0, 83, 0
2, 173944, Note_on_c, 0, 79, 58
2, 173945, Note_on_c, 0, 83, 53
2, 173965, Note_off_c, 0, 81, 0
2, 173973, Note_off_c, 0, 85, 0
2, 174135, Note_on_c, 0, 81, 49
2, 174135, Note_on_c, 0, 85, 37
2, 174154, Note_off_c, 0, 79, 0
2, 174157, Note_off_c, 0, 83, 0
2, 174325, Note_on_c, 0, 83, 53
2, 174325, Note_on_c, 0, 79, 46
2, 174346, Note_off_c, 0, 81, 0
2, 174354, Note_off_c, 0, 85, 0
2, 174506, Note_on_c, 0, 81, 48
2, 174506, Note_on_c, 0, 85, 41
2, 174521, Note_off_c, 0, 79, 0
2, 174531, Note_off_c, 0, 83, 0
2, 174720, Note_on_c, 0, 83, 54
2, 174720, Note_on_c, 0, 79, 48
2, 174748, Note_off_c, 0, 81, 0
2, 174758, Note_off_c, 0, 85, 0
2, 174897, Note_off_c, 0, 79, 0
2, 174914, Note_on_c, 0, 81, 74
2, 174915, Note_on_c, 0, 76, 51
2, 174924, Note_off_c, 0, 83, 0
2, 175080, Note_off_c, 0, 76, 0
2, 175098, Note_off_c, 0, 81, 0
2, 175105, Note_on_c, 0, 75, 52
2, 175106, Note_on_c, 0, 80, 46
2, 175390, Note_off_c, 0, 75, 0
2, 175398, Note_off_c, 0, 80, 0
2, 175680, Control_c, 0, 10, 64
2, 175854, Note_on_c, 0, 99, 90
2, 175856, Note_on_c, 0, 96, 92
2, 176046, Note_off_c, 0, 96, 0
2, 176050, Note_off_c, 0, 99, 0
2, 176057, Note_on_c, 0, 95, 80
2, 176059, Note_on_c, 0, 98, 80
2, 176255, Note_on_c, 0, 97, 90
2, 176255, Note_on_c, 0, 94, 76
2, 176273, Note_off_c, 0, 95, 0
2, 176277, Note_off_c, 0, 98, 0
2, 176451, Note_on_c, 0, 96, 84
2, 176456, Note_on_c, 0, 93, 82
2, 176464, Note_off_c, 0, 94, 0
2, 176469, Note_off_c, 0, 97, 0
2, 176649, Note_on_c, 0, 92, 76
2, 176650, Note_on_c, 0, 95, 86
2, 176671, Note_off_c, 0, 93, 0
2, 176674, Note_off_c, 0, 96, 0
2, 176837, Note_on_c, 0, 94, 68
2, 176839, Note_on_c, 0, 91, 78
2, 176858, Note_off_c, 0, 95, 0
2, 176863, Note_off_c, 0, 92, 0
2, 177030, Note_on_c, 0, 90, 46
2, 177033, Note_on_c, 0, 93, 74
2, 177047, Note_off_c, 0, 91, 0
2, 177055, Note_off_c, 0, 94, 0
2, 177218, Note_on_c, 0, 92, 58
2, 177218, Note_on_c, 0, 89, 64
2, 177246, Note_off_c, 0, 93, 0
2, 177251, Note_off_c, 0, 90, 0
2, 177302, Note_off_c, 0, 89, 0
2, 177424, Note_on_c, 0, 91, 68
2, 177425, Note_on_c, 0, 88, 70
2, 177452, Note_off_c, 0, 92, 0
2, 177597, Note_on_c, 0, 90, 72
2, 177597, Note_on_c, 0, 87, 53
2, 177617, Note_off_c, 0, 88, 0
2, 177620, Note_off_c, 0, 91, 0
2, 177789, Note_on_c, 0, 89, 78
2, 177793, Note_on_c, 0, 86, 76
2, 177808, Note_off_c, 0, 87, 0
2, 177816, Note_off_c, 0, 90, 0
2, 177972, Note_on_c, 0, 88, 72
2, 177973, Note_on_c, 0, 85, 50
2, 177995, Note_off_c, 0, 86, 0
2, 178003, Note_off_c, 0, 89, 0
2, 178161, Note_on_c, 0, 87, 58
2, 178162, Note_on_c, 0, 84, 66
2, 178177, Note_off_c, 0, 88, 0
2, 178199, Note_off_c, 0, 85, 0
2, 178248, Note_off_c, 0, 84, 0
2, 178355, Note_on_c, 0, 83, 66
2, 178361, Note_on_c, 0, 86, 53
2, 178382, Note_off_c, 0, 87, 0
2, 178532, Note_on_c, 0, 82, 56
2, 178533, Note_on_c, 0, 85, 78
2, 178554, Note_off_c, 0, 83, 0
2, 178555, Note_off_c, 0, 86, 0
2, 178739, Note_on_c, 0, 84, 70
2, 178742, Note_on_c, 0, 81, 74
2, 178756, Note_off_c, 0, 82, 0
2, 178771, Note_off_c, 0, 85, 0
2, 178927, Note_on_c, 0, 80, 45
2, 178928, Note_on_c, 0, 83, 76
2, 178951, Note_off_c, 0, 81, 0
2, 178954, Note_off_c, 0, 84, 0
2, 179107, Note_on_c, 0, 82, 60
2, 179108, Note_on_c, 0, 79, 68
2, 179128, Note_off_c, 0, 83, 0
2, 179132, Note_off_c, 0, 80, 0
2, 179295, Note_on_c, 0, 78, 45
2, 179299, Note_on_c, 0, 81, 64
2, 179319, Note_off_c, 0, 79, 0
2, 179320, Note_off_c, 0, 82, 0
2, 179497, Note_on_c, 0, 77, 54
2, 179498, Note_on_c, 0, 80, 51
2, 179523, Note_off_c, 0, 81, 0
2, 179525, Note_off_c, 0, 78, 0
2, 179570, Note_off_c, 0, 77, 0
2, 179707, Note_on_c, 0, 79, 74
2, 179710, Note_on_c, 0, 76, 68
2, 179731, Note_off_c, 0, 80, 0
2, 179907, Note_on_c, 0, 78, 72
2, 179909, Note_on_c, 0, 75, 60
2, 179931, Note_off_c, 0, 76, 0
2, 179932, Note_off_c, 0, 79, 0
2, 180101, Note_on_c, 0, 77, 60
2, 180103, Note_on_c, 0, 74, 66
2, 180118, Note_off_c, 0, 75, 0
2, 180126, Note_off_c, 0, 78, 0
2, 180283, Note_on_c, 0, 76, 70
2, 180284, Note_on_c, 0, 73, 45
2, 180312, Note_off_c, 0, 74, 0
2, 180312, Note_off_c, 0, 77, 0
2, 180472, Note_on_c, 0, 75, 53
2, 180475, Note_on_c, 0, 72, 64
2, 180495, Note_off_c, 0, 76, 0
2, 180523, Note_off_c, 0, 73, 0
2, 180563, Note_off_c, 0, 72, 0
2, 180649, Note_on_c, 0, 74, 48
2, 180650, Note_on_c, 0, 71, 62
2, 180672, Note_off_c, 0, 75, 0
2, 180831, Note_on_c, 0, 70, 49
2, 180831, Note_on_c, 0, 73, 58
2, 180851, Note_off_c, 0, 71, 0
2, 180859, Note_off_c, 0, 74, 0
2, 181024, Note_on_c, 0, 72, 68
2, 181024, Note_on_c, 0, 69, 60
2, 181047, Note_off_c, 0, 70, 0
2, 181051, Note_off_c, 0, 73, 0
2, 181134, Note_off_c, 0, 72, 0
2, 181221, Note_on_c, 0, 68, 44
2, 181222, Note_on_c, 0, 71, 74
2, 181246, Note_off_c, 0, 69, 0
2, 181401, Note_on_c, 0, 70, 54
2, 181401, Note_on_c, 0, 67, 62
2, 181425, Note_off_c, 0, 71, 0
2, 181430, Note_off_c, 0, 68, 0
2, 181589, Note_on_c, 0, 69, 70
2, 181589, Note_on_c, 0, 66, 50
2, 181605, Note_off_c, 0, 70, 0
2, 181614, Note_off_c, 0, 67, 0
2, 181787, Note_on_c, 0, 68, 52
2, 181789, Note_on_c, 0, 65, 52
2, 181813, Note_off_c, 0, 66, 0
2, 181816, Note_off_c, 0, 69, 0
2, 181875, Note_off_c, 0, 65, 0
2, 181996, Note_on_c, 0, 67, 64
2, 181996, Note_on_c, 0, 64, 62
2, 182020, Note_off_c, 0, 68, 0
2, 182197, Note_on_c, 0, 66, 54
2, 182198, Note_on_c, 0, 63, 45
2, 182219, Note_off_c, 0, 64, 0
2, 182225, Note_off_c, 0, 67, 0
2, 182387, Note_on_c, 0, 65, 66
2, 182387, Note_on_c, 0, 62, 66
2, 182407, Note_off_c, 0, 63, 0
2, 182411, Note_off_c, 0, 66, 0
2, 182575, Note_on_c, 0, 64, 72
2, 182576, Note_on_c, 0, 61, 43
2, 182598, Note_off_c, 0, 65, 0
2, 182603, Note_off_c, 0, 62, 0
2, 182771, Note_on_c, 0, 63, 48
2, 182774, Note_on_c, 0, 60, 62
2, 182795, Note_off_c, 0, 64, 0
2, 182817, Note_off_c, 0, 61, 0
2, 182875, Note_off_c, 0, 60, 0
2, 182969, Note_on_c, 0, 62, 52
2, 182971, Note_on_c, 0, 59, 48
2, 182998, Note_off_c, 0, 63, 0
2, 183156, Note_on_c, 0, 61, 56
2, 183158, Note_on_c, 0, 58, 47
2, 183181, Note_off_c, 0, 59, 0
2, 183183, Note_off_c, 0, 62, 0
2, 183347, Note_on_c, 0, 57, 60
2, 183349, Note_on_c, 0, 60, 62
2, 183366, Note_off_c, 0, 58, 0
2, 183372, Note_off_c, 0, 61, 0
2, 183479, Note_off_c, 0, 60, 0
2, 183537, Note_on_c, 0, 59, 64
2, 183543, Note_on_c, 0, 56, 44
2, 183567, Note_off_c, 0, 57, 0
2, 183714, Note_on_c, 0, 55, 54
2, 183715, Note_on_c, 0, 58, 51
2, 183742, Note_off_c, 0, 59, 0
2, 183743, Note_off_c, 0, 56, 0
2, 183841, Note_off_c, 0, 58, 0
2, 183897, Note_on_c, 0, 54, 47
2, 183897, Note_on_c, 0, 57, 66
2, 183925, Note_off_c, 0, 55, 0
2, 184083, Note_on_c, 0, 56, 44
2, 184086, Note_on_c, 0, 53, 49
2, 184110, Note_off_c, 0, 57, 0
2, 184119, Note_off_c, 0, 54, 0
2, 184176, Note_off_c, 0, 56, 0
2, 184276, Note_on_c, 0, 55, 66
2, 184282, Note_on_c, 0, 52, 60
2, 184306, Note_off_c, 0, 53, 0
2, 184469, Note_on_c, 0, 51, 52
2, 184473, Note_on_c, 0, 54, 50
2, 184479, Note_off_c, 0, 55, 0
2, 184497, Note_off_c, 0, 52, 0
2, 184599, Note_off_c, 0, 51, 0
2, 184654, Note_on_c, 0, 50, 54
2, 184655, Note_on_c, 0, 53, 68
2, 184676, Note_off_c, 0, 54, 0
2, 184862, Note_on_c, 0, 49, 42
2, 184865, Note_on_c, 0, 52, 66
2, 184888, Note_off_c, 0, 53, 0
2, 184888, Note_off_c, 0, 50, 0
2, 185055, Note_on_c, 0, 48, 54
2, 185057, Note_on_c, 0, 51, 49
2, 185084, Note_off_c, 0, 52, 0
2, 185087, Note_off_c, 0, 49, 0
2, 185251, Note_on_c, 0, 52, 72
2, 185254, Note_on_c, 0, 49, 46
2, 185279, Note_off_c, 0, 51, 0
2, 185281, Note_off_c, 0, 48, 0
2, 185446, Note_on_c, 0, 51, 47
2, 185447, Note_on_c, 0, 48, 54
2, 185474, Note_off_c, 0, 49, 0
2, 185478, Note_off_c, 0, 52, 0
2, 185644, Note_on_c, 0, 52, 68
2, 185646, Note_on_c, 0, 49, 46
2, 185670, Note_off_c, 0, 48, 0
2, 185675, Note_off_c, 0, 51, 0
2, 185837, Note_on_c, 0, 51, 46
2, 185838, Note_on_c, 0, 48, 56
2, 185868, Note_off_c, 0, 52, 0
2, 185870, Note_off_c, 0, 49, 0
2, 186033, Note_on_c, 0, 52, 68
2, 186034, Note_on_c, 0, 49, 44
2, 186063, Note_off_c, 0, 51, 0
2, 186067, Note_off_c, 0, 48, 0
2, 186240, Note_on_c, 0, 48, 56
2, 186243, Note_on_c, 0, 51, 46
2, 186253, Note_off_c, 0, 52, 0
2, 186254, Note_off_c, 0, 49, 0
2, 186412, Note_on_c, 0, 52, 56
2, 186412, Note_on_c, 0, 49, 41
2, 186458, Note_off_c, 0, 51, 0
2, 186463, Note_off_c, 0, 48, 0
2, 186624, Note_on_c, 0, 48, 47
2, 186630, Note_on_c, 0, 51, 41
2, 186645, Note_off_c, 0, 52, 0
2, 186648, Note_off_c, 0, 49, 0
2, 186798, Note_on_c, 0, 49, 37
2, 186799, Note_on_c, 0, 52, 50
2, 186840, Note_off_c, 0, 48, 0
2, 186841, Note_off_c, 0, 51, 0
2, 187008, Note_on_c, 0, 48, 37
2, 187013, Note_on_c, 0, 51, 31
2, 187020, Note_off_c, 0, 52, 0
2, 187026, Note_off_c, 0, 49, 0
2, 187192, Note_on_c, 0, 52, 42
2, 187193, Note_on_c, 0, 49, 30
2, 187235, Note_off_c, 0, 48, 0
2, 187241, Note_off_c, 0, 51, 0
2, 187395, Note_on_c, 0, 48, 26
2, 187398, Note_on_c, 0, 51, 28
2, 187426, Note_off_c, 0, 52, 0
2, 187429, Note_off_c, 0, 49, 0
2, 187770, Note_off_c, 0, 51, 0
2, 187774, Note_off_c, 0, 48, 0
2, 188108, End_track
3, 0, Start_track
3, 0, Title_t, "Chopin"
3, 3072, Control_c, 0, 10, 64
3, 3097, Note_on_c, 0, 75, 68
3, 3099, Note_on_c, 0, 71, 56
3, 3275, Note_on_c, 0, 73, 44
3, 3279, Note_on_c, 0, 76, 49
3, 3286, Note_off_c, 0, 71, 0
3, 3294, Note_off_c, 0, 75, 0
3, 3460, Note_on_c, 0, 75, 45
3, 3466, Note_on_c, 0, 71, 43
3, 3467, Note_off_c, 0, 76, 0
3, 3483, Note_off_c, 0, 73, 0
3, 3641, Note_on_c, 0, 73, 37
3, 3643, Note_on_c, 0, 76, 58
3, 3660, Note_off_c, 0, 71, 0
3, 3670, Note_off_c, 0, 75, 0
3, 3822, Note_on_c, 0, 75, 41
3, 3826, Note_on_c, 0, 71, 47
3, 3829, Note_off_c, 0, 76, 0
3, 3843, Note_off_c, 0, 73, 0
3, 4003, Note_on_c, 0, 73, 37
3, 4007, Note_on_c, 0, 76, 52
3, 4021, Note_off_c, 0, 71, 0
3, 4029, Note_off_c, 0, 75, 0
3, 4183, Note_on_c, 0, 75, 43
3, 4186, Note_on_c, 0, 71, 48
3, 4196, Note_off_c, 0, 76, 0
3, 4211, Note_off_c, 0, 73, 0
3, 4384, Note_on_c, 0, 73, 42
3, 4389, Note_on_c, 0, 76, 54
3, 4403, Note_off_c, 0, 71, 0
3, 4410, Note_off_c, 0, 75, 0
3, 4594, Note_on_c, 0, 75, 46
3, 4596, Note_on_c, 0, 71, 54
3, 4600, Note_off_c, 0, 76, 0
3, 4611, Note_off_c, 0, 73, 0
3, 4794, Note_on_c, 0, 73, 39
3, 4797, Note_on_c, 0, 76, 58
3, 4815, Note_off_c, 0, 71, 0
3, 4818, Note_off_c, 0, 75, 0
3, 4990, Note_on_c, 0, 75, 45
3, 4992, Note_on_c, 0, 71, 58
3, 5002, Note_off_c, 0, 76, 0
3, 5010, Note_off_c, 0, 73, 0
3, 5176, Note_on_c, 0, 73, 41
3, 5179, Note_on_c, 0, 76, 58
3, 5198, Note_off_c, 0, 75, 0
3, 5199, Note_off_c, 0, 71, 0
3, 5364, Note_on_c, 0, 75, 41
3, 5366, Note_off_c, 0, 76, 0
3, 5371, Note_on_c, 0, 71, 45
3, 5394, Note_off_c, 0, 73, 0
3, 5551, Note_on_c, 0, 73, 42
3, 5559, Note_on_c, 0, 76, 52
3, 5573, Note_off_c, 0, 71, 0
3, 5576, Note_off_c, 0, 75, 0
3, 5737, Note_on_c, 0, 75, 44
3, 5745, Note_on_c, 0, 71, 50
3, 5751, Note_off_c, 0, 76, 0
3, 5761, Note_off_c, 0, 73, 0
3, 5926, Note_on_c, 0, 73, 41
3, 5928, Note_on_c, 0, 76, 58
3, 5949, Note_off_c, 0, 71, 0
3, 5952, Note_off_c, 0, 75, 0
3, 6128, Note_on_c, 0, 75, 41
3, 6131, Note_on_c, 0, 71, 58
3, 6135, Note_off_c, 0, 76, 0
3, 6152, Note_off_c, 0, 73, 0
3, 6321, Note_on_c, 0, 73, 31
3, 6324, Note_on_c, 0, 76, 52
3, 6344, Note_off_c, 0, 71, 0
3, 6347, Note_off_c, 0, 75, 0
3, 6504, Note_on_c, 0, 75, 43
3, 6507, Note_on_c, 0, 71, 49
3, 6522, Note_off_c, 0, 76, 0
3, 6526, Note_off_c, 0, 73, 0
3, 6690, Note_on_c, 0, 73, 37
3, 6694, Note_on_c, 0, 76, 54
3, 6708, Note_off_c, 0, 71, 0
3, 6713, Note_off_c, 0, 75, 0
3, 6899, Note_on_c, 0, 75, 42
3, 6902, Note_on_c, 0, 71, 56
3, 6911, Note_off_c, 0, 76, 0
3, 6921, Note_off_c, 0, 73, 0
3, 7086, Note_on_c, 0, 76, 60
3, 7086, Note_on_c, 0, 73, 35
3, 7106, Note_off_c, 0, 71, 0
3, 7113, Note_off_c, 0, 75, 0
3, 7271, Note_on_c, 0, 75, 43
3, 7274, Note_on_c, 0, 71, 52
3, 7288, Note_off_c, 0, 73, 0
3, 7290, Note_off_c, 0, 76, 0
3, 7450, Note_on_c, 0, 73, 35
3, 7451, Note_on_c, 0, 76, 56
3, 7471, Note_off_c, 0, 71, 0
3, 7472, Note_off_c, 0, 75, 0
3, 7638, Note_on_c, 0, 71, 51
3, 7638, Note_on_c, 0, 75, 45
3, 7655, Note_off_c, 0, 73, 0
3, 7657, Note_off_c, 0, 76, 0
3, 7826, Note_on_c, 0, 73, 41
3, 7831, Note_on_c, 0, 76, 52
3, 7848, Note_off_c, 0, 71, 0
3, 7852, Note_off_c, 0, 75, 0
3, 8019, Note_on_c, 0, 75, 41
3, 8022, Note_on_c, 0, 71, 46
3, 8028, Note_off_c, 0, 76, 0
3, 8039, Note_off_c, 0, 73, 0
3, 8207, Note_on_c, 0, 73, 35
3, 8211, Note_on_c, 0, 76, 53
3, 8229, Note_off_c, 0, 71, 0
3, 8232, Note_off_c, 0, 75, 0
3, 8404, Note_on_c, 0, 75, 41
3, 8407, Note_on_c, 0, 71, 49
3, 8416, Note_off_c, 0, 76, 0
3, 8426, Note_off_c, 0, 73, 0
3, 8596, Note_on_c, 0, 73, 41
3, 8599, Note_on_c, 0, 76, 60
3, 8616, Note_off_c, 0, 71, 0
3, 8622, Note_off_c, 0, 75, 0
3, 8798, Note_on_c, 0, 75, 43
3, 8800, Note_on_c, 0, 71, 53
3, 8816, Note_off_c, 0, 76, 0
3, 8822, Note_off_c, 0, 73, 0
3, 8989, Note_on_c, 0, 73, 35
3, 8994, Note_on_c, 0, 76, 51
3, 9011, Note_off_c, 0, 71, 0
3, 9013, Note_off_c, 0, 75, 0
3, 9189, Note_on_c, 0, 75, 37
3, 9191, Note_on_c, 0, 71, 54
3, 9194, Note_off_c, 0, 76, 0
3, 9209, Note_off_c, 0, 73, 0
3, 9386, Note_on_c, 0, 73, 35
3, 9389, Note_on_c, 0, 76, 52
3, 9410, Note_off_c, 0, 71, 0
3, 9410, Note_off_c, 0, 75, 0
3, 9571, Note_on_c, 0, 75, 44
3, 9575, Note_on_c, 0, 71, 48
3, 9590, Note_off_c, 0, 76, 0
3, 9595, Note_off_c, 0, 73, 0
3, 9767, Note_on_c, 0, 73, 35
3, 9768, Note_on_c, 0, 76, 48
3, 9788, Note_off_c, 0, 71, 0
3, 9790, Note_off_c, 0, 75, 0
3, 9955, Note_on_c, 0, 75, 39
3, 9961, Note_on_c, 0, 71, 43
3, 9972, Note_off_c, 0, 76, 0
3, 9978, Note_off_c, 0, 73, 0
3, 10163, Note_on_c, 0, 73, 31
3, 10165, Note_on_c, 0, 76, 52
3, 10182, Note_off_c, 0, 71, 0
3, 10191, Note_off_c, 0, 75, 0
3, 10347, Note_on_c, 0, 75, 31
3, 10353, Note_on_c, 0, 71, 53
3, 10363, Note_off_c, 0, 76, 0
3, 10376, Note_off_c, 0, 73, 0
3, 10521, Note_on_c, 0, 73, 37
3, 10526, Note_on_c, 0, 76, 56
3, 10540, Note_off_c, 0, 71, 0
3, 10549, Note_off_c, 0, 75, 0
3, 10717, Note_on_c, 0, 75, 42
3, 10720, Note_on_c, 0, 71, 49
3, 10725, Note_off_c, 0, 76, 0
3, 10741, Note_off_c, 0, 73, 0
3, 10904, Note_on_c, 0, 73, 45
3, 10910, Note_on_c, 0, 76, 60
3, 10925, Note_off_c, 0, 71, 0
3, 10930, Note_off_c, 0, 75, 0
3, 11093, Note_on_c, 0, 75, 46
3, 11096, Note_on_c, 0, 71, 66
3, 11115, Note_off_c, 0, 76, 0
3, 11117, Note_off_c, 0, 73, 0
3, 11278, Note_on_c, 0, 73, 45
3, 11283, Note_on_c, 0, 76, 66
3, 11298, Note_off_c, 0, 71, 0
3, 11303, Note_off_c, 0, 75, 0
3, 11467, Note_on_c, 0, 75, 47
3, 11474, Note_on_c, 0, 71, 68
3, 11488, Note_off_c, 0, 76, 0
3, 11498, Note_off_c, 0, 73, 0
3, 11668, Note_on_c, 0, 73, 47
3, 11672, Note_on_c, 0, 76, 66
3, 11693, Note_off_c, 0, 71, 0
3, 11695, Note_off_c, 0, 75, 0
3, 11866, Note_on_c, 0, 75, 46
3, 11873, Note_on_c, 0, 71, 70
3, 11886, Note_off_c, 0, 76, 0
3, 11896, Note_off_c, 0, 73, 0
3, 12057, Note_on_c, 0, 76, 64
3, 12058, Note_on_c, 0, 73, 44
3, 12079, Note_off_c, 0, 71, 0
3, 12080, Note_off_c, 0, 75, 0
3, 12259, Note_on_c, 0, 71, 68
3, 12259, Note_on_c, 0, 75, 54
3, 12284, Note_off_c, 0, 76, 0
3, 12287, Note_off_c, 0, 73, 0
3, 12456, Note_on_c, 0, 76, 70
3, 12458, Note_on_c, 0, 73, 48
3, 12481, Note_off_c, 0, 75, 0
3, 12484, Note_off_c, 0, 71, 0
3, 12650, Note_on_c, 0, 75, 44
3, 12652, Note_off_c, 0, 76, 0
3, 12656, Note_on_c, 0, 71, 68
3, 12673, Note_off_c, 0, 73, 0
3, 12824, Note_on_c, 0, 70, 49
3, 12831, Note_on_c, 0, 74, 70
3, 12843, Note_off_c, 0, 71, 0
3, 12860, Note_off_c, 0, 75, 0
3, 13019, Note_on_c, 0, 75, 41
3, 13026, Note_off_c, 0, 74, 0
3, 13027, Note_on_c, 0, 71, 66
3, 13040, Note_off_c, 0, 70, 0
3, 13227, Note_on_c, 0, 76, 74
3, 13227, Note_on_c, 0, 73, 54
3, 13252, Note_off_c, 0, 75, 0
3, 13254, Note_off_c, 0, 71, 0
3, 13416, Note_on_c, 0, 75, 47
3, 13417, Note_off_c, 0, 76, 0
3, 13423, Note_on_c, 0, 71, 72
3, 13437, Note_off_c, 0, 73, 0
3, 13594, Note_on_c, 0, 70, 60
3, 13598, Note_on_c, 0, 74, 74
3, 13621, Note_off_c, 0, 71, 0
3, 13623, Note_off_c, 0, 75, 0
3, 13789, Note_off_c, 0, 74, 0
3, 13789, Note_on_c, 0, 75, 66
3, 13795, Note_on_c, 0, 71, 80
3, 13807, Note_off_c, 0, 70, 0
3, 13980, Note_on_c, 0, 76, 72
3, 13981, Note_on_c, 0, 73, 47
3, 14004, Note_off_c, 0, 71, 0
3, 14004, Note_off_c, 0, 75, 0
3, 14174, Note_on_c, 0, 75, 52
3, 14176, Note_on_c, 0, 71, 76
3, 14193, Note_off_c, 0, 73, 0
3, 14202, Note_off_c, 0, 76, 0
3, 14363, Note_on_c, 0, 70, 56
3, 14368, Note_on_c, 0, 74, 68
3, 14385, Note_off_c, 0, 71, 0
3, 14399, Note_off_c, 0, 75, 0
3, 14552, Note_on_c, 0, 75, 47
3, 14555, Note_off_c, 0, 74, 0
3, 14560, Note_on_c, 0, 71, 70
3, 14575, Note_off_c, 0, 70, 0
3, 14740, Note_on_c, 0, 73, 42
3, 14740, Note_on_c, 0, 76, 68
3, 14763, Note_off_c, 0, 71, 0
3, 14764, Note_off_c, 0, 75, 0
3, 14924, Note_on_c, 0, 75, 47
3, 14930, Note_on_c, 0, 71, 58
3, 14941, Note_off_c, 0, 76, 0
3, 14946, Note_off_c, 0, 73, 0
3, 15120, Note_on_c, 0, 70, 50
3, 15123, Note_off_c, 0, 75, 0
3, 15123, Note_on_c, 0, 74, 68
3, 15148, Note_off_c, 0, 71, 0
3, 15294, Note_off_c, 0, 70, 0
3, 15315, Note_on_c, 0, 71, 72
3, 15316, Note_on_c, 0, 75, 72
3, 15336, Note_off_c, 0, 74, 0
3, 15519, Note_on_c, 0, 73, 56
3, 15520, Note_on_c, 0, 76, 72
3, 15540, Note_off_c, 0, 75, 0
3, 15543, Note_off_c, 0, 71, 0
3, 15721, Note_on_c, 0, 77, 74
3, 15725, Note_on_c, 0, 74, 74
3, 15741, Note_off_c, 0, 73, 0
3, 15743, Note_off_c, 0, 76, 0
3, 15917, Note_on_c, 0, 75, 76
3, 15919, Note_on_c, 0, 78, 82
3, 15935, Note_off_c, 0, 77, 0
3, 15941, Note_off_c, 0, 74, 0
3, 16101, Note_on_c, 0, 76, 72
3, 16101, Note_on_c, 0, 79, 84
3, 16120, Note_off_c, 0, 78, 0
3, 16121, Note_off_c, 0, 75, 0
3, 16282, Note_on_c, 0, 80, 74
3, 16282, Note_on_c, 0, 77, 80
3, 16301, Note_off_c, 0, 79, 0
3, 16303, Note_off_c, 0, 76, 0
3, 16483, Note_on_c, 0, 78, 58
3, 16484, Note_on_c, 0, 81, 72
3, 16503, Note_off_c, 0, 80, 0
3, 16507, Note_off_c, 0, 77, 0
3, 16680, Note_on_c, 0, 82, 66
3, 16680, Note_on_c, 0, 79, 78
3, 16700, Note_off_c, 0, 78, 0
3, 16701, Note_off_c, 0, 81, 0
3, 16854, Note_on_c, 0, 83, 82
3, 16856, Note_on_c, 0, 80, 56
3, 16872, Note_off_c, 0, 82, 0
3, 16881, Note_off_c, 0, 79, 0
3, 17064, Note_on_c, 0, 84, 74
3, 17068, Note_on_c, 0, 81, 53
3, 17084, Note_off_c, 0, 80, 0
3, 17094, Note_off_c, 0, 83, 0
3, 17262, Note_on_c, 0, 82, 84
3, 17264, Note_on_c, 0, 85, 81
3, 17280, Note_off_c, 0, 84, 0
3, 17286, Note_off_c, 0, 81, 0
3, 17453, Note_on_c, 0, 86, 80
3, 17456, Note_on_c, 0, 83, 74
3, 17470, Note_off_c, 0, 85, 0
3, 17473, Note_off_c, 0, 82, 0
3, 17639, Note_on_c, 0, 84, 84
3, 17639, Note_on_c, 0, 87, 84
3, 17659, Note_off_c, 0, 86, 0
3, 17662, Note_off_c, 0, 83, 0
3, 17828, Note_on_c, 0, 85, 68
3, 17830, Note_on_c, 0, 88, 78
3, 17848, Note_off_c, 0, 84, 0
3, 17855, Note_off_c, 0, 87, 0
3, 18022, Note_on_c, 0, 89, 80
3, 18025, Note_on_c, 0, 86, 74
3, 18043, Note_off_c, 0, 85, 0
3, 18050, Note_off_c, 0, 88, 0
3, 18208, Note_on_c, 0, 87, 69
3, 18227, Note_off_c, 0, 89, 0
3, 18227, Note_on_c, 0, 90, 76
3, 18229, Note_off_c, 0, 86, 0
3, 18409, Note_on_c, 0, 91, 86
3, 18410, Note_on_c, 0, 88, 82
3, 18428, Note_off_c, 0, 90, 0
3, 18429, Note_off_c, 0, 87, 0
3, 18600, Note_on_c, 0, 92, 94
3, 18600, Note_on_c, 0, 89, 94
3, 18620, Note_off_c, 0, 91, 0
3, 18623, Note_off_c, 0, 88, 0
3, 18781, Note_on_c, 0, 90, 90
3, 18781, Note_on_c, 0, 93, 90
3, 18808, Note_off_c, 0, 92, 0
3, 18809, Note_off_c, 0, 89, 0
3, 18983, Note_on_c, 0, 94, 94
3, 18986, Note_on_c, 0, 91, 94
3, 19006, Note_off_c, 0, 90, 0
3, 19009, Note_off_c, 0, 93, 0
3, 19162, Note_off_c, 0, 91, 0
3, 19169, Note_off_c, 0, 94, 0
3, 19177, Note_on_c, 0, 92, 102
3, 19177, Note_on_c, 0, 95, 102
3, 19285, Note_off_c, 0, 95, 0
3, 19286, Note_off_c, 0, 92, 0
3, 21504, Control_c, 0, 10, 64
3, 21525, Note_on_c, 0, 80, 60
3, 21528, Note_on_c, 0, 76, 51
3, 21698, Note_off_c, 0, 80, 0
3, 21703, Note_on_c, 0, 81, 48
3, 21708, Note_on_c, 0, 78, 45
3, 21718, Note_off_c, 0, 76, 0
3, 21893, Note_on_c, 0, 80, 43
3, 21894, Note_on_c, 0, 76, 58
3, 21899, Note_off_c, 0, 81, 0
3, 21919, Note_off_c, 0, 78, 0
3, 22090, Note_on_c, 0, 78, 39
3, 22094, Note_on_c, 0, 81, 53
3, 22108, Note_off_c, 0, 76, 0
3, 22116, Note_off_c, 0, 80, 0
3, 22278, Note_on_c, 0, 80, 41
3, 22282, Note_on_c, 0, 76, 66
3, 22286, Note_off_c, 0, 81, 0
3, 22304, Note_off_c, 0, 78, 0
3, 22463, Note_on_c, 0, 78, 43
3, 22466, Note_on_c, 0, 81, 54
3, 22484, Note_off_c, 0, 76, 0
3, 22490, Note_off_c, 0, 80, 0
3, 22652, Note_on_c, 0, 80, 42
3, 22653, Note_on_c, 0, 76, 48
3, 22666, Note_off_c, 0, 78, 0
3, 22675, Note_off_c, 0, 81, 0
3, 22837, Note_on_c, 0, 78, 35
3, 22840, Note_on_c, 0, 81, 53
3, 22862, Note_off_c, 0, 76, 0
3, 22865, Note_off_c, 0, 80, 0
3, 23012, Note_on_c, 0, 80, 41
3, 23013, Note_on_c, 0, 76, 52
3, 23031, Note_off_c, 0, 81, 0
3, 23031, Note_off_c, 0, 78, 0
3, 23221, Note_on_c, 0, 78, 39
3, 23225, Note_on_c, 0, 81, 66
3, 23240, Note_off_c, 0, 76, 0
3, 23248, Note_off_c, 0, 80, 0
3, 23408, Note_on_c, 0, 80, 39
3, 23412, Note_on_c, 0, 76, 54
3, 23419, Note_off_c, 0, 81, 0
3, 23428, Note_off_c, 0, 78, 0
3, 23593, Note_on_c, 0, 78, 33
3, 23594, Note_on_c, 0, 81, 52
3, 23614, Note_off_c, 0, 76, 0
3, 23619, Note_off_c, 0, 80, 0
3, 23784, Note_on_c, 0, 76, 43
3, 23784, Note_on_c, 0, 80, 44
3, 23804, Note_off_c, 0, 81, 0
3, 23806, Note_off_c, 0, 78, 0
3, 23972, Note_on_c, 0, 78, 33
3, 23974, Note_on_c, 0, 81, 49
3, 23993, Note_off_c, 0, 76, 0
3, 23998, Note_off_c, 0, 80, 0
3, 24159, Note_on_c, 0, 76, 53
3, 24159, Note_on_c, 0, 80, 35
3, 24175, Note_off_c, 0, 81, 0
3, 24191, Note_off_c, 0, 78, 0
3, 24348, Note_on_c, 0, 78, 42
3, 24354, Note_on_c, 0, 81, 56
3, 24370, Note_off_c, 0, 76, 0
3, 24376, Note_off_c, 0, 80, 0
3, 24528, Note_on_c, 0, 80, 26
3, 24534, Note_on_c, 0, 76, 41
3, 24542, Note_off_c, 0, 81, 0
3, 24576, Note_off_c, 0, 78, 0
3, 24734, Note_on_c, 0, 78, 39
3, 24738, Note_on_c, 0, 81, 56
3, 24759, Note_off_c, 0, 76, 0
3, 24764, Note_off_c, 0, 80, 0
3, 24928, Note_off_c, 0, 81, 0
3, 24931, Note_on_c, 0, 80, 41
3, 24935, Note_on_c, 0, 76, 60
3, 24948, Note_off_c, 0, 78, 0
3, 25122, Note_on_c, 0, 75, 35
3, 25126, Note_on_c, 0, 79, 51
3, 25147, Note_off_c, 0, 76, 0
3, 25156, Note_off_c, 0, 80, 0
3, 25314, Note_on_c, 0, 80, 43
3, 25325, Note_on_c, 0, 76, 54
3, 25331, Note_off_c, 0, 79, 0
3, 25338, Note_off_c, 0, 75, 0
3, 25509, Note_on_c, 0, 78, 44
3, 25513, Note_on_c, 0, 81, 56
3, 25534, Note_off_c, 0, 76, 0
3, 25534, Note_off_c, 0, 80, 0
3, 25704, Note_on_c, 0, 80, 39
3, 25710, Note_on_c, 0, 76, 54
3, 25722, Note_off_c, 0, 81, 0
3, 25726, Note_off_c, 0, 78, 0
3, 25894, Note_on_c, 0, 75, 37
3, 25898, Note_on_c, 0, 79, 56
3, 25916, Note_off_c, 0, 76, 0
3, 25927, Note_off_c, 0, 80, 0
3, 26087, Note_on_c, 0, 80, 47
3, 26094, Note_on_c, 0, 76, 58
3, 26104, Note_off_c, 0, 79, 0
3, 26107, Note_off_c, 0, 75, 0
3, 26277, Note_on_c, 0, 78, 43
3, 26282, Note_on_c, 0, 81, 56
3, 26301, Note_off_c, 0, 76, 0
3, 26308, Note_off_c, 0, 80, 0
3, 26468, Note_on_c, 0, 80, 39
3, 26469, Note_off_c, 0, 81, 0
3, 26475, Note_on_c, 0, 76, 54
3, 26490, Note_off_c, 0, 78, 0
3, 26664, Note_on_c, 0, 75, 43
3, 26668, Note_on_c, 0, 79, 64
3, 26685, Note_off_c, 0, 76, 0
3, 26691, Note_off_c, 0, 80, 0
3, 26855, Note_on_c, 0, 80, 51
3, 26861, Note_off_c, 0, 79, 0
3, 26861, Note_on_c, 0, 76, 62
3, 26875, Note_off_c, 0, 75, 0
3, 27043, Note_on_c, 0, 78, 43
3, 27045, Note_on_c, 0, 81, 68
3, 27065, Note_off_c, 0, 76, 0
3, 27071, Note_off_c, 0, 80, 0
3, 27232, Note_on_c, 0, 80, 41
3, 27234, Note_off_c, 0, 81, 0
3, 27237, Note_on_c, 0, 76, 58
3, 27252, Note_off_c, 0, 78, 0
3, 27425, Note_on_c, 0, 75, 31
3, 27432, Note_off_c, 0, 76, 0
3, 27433, Note_on_c, 0, 79, 68
3, 27437, Note_off_c, 0, 80, 0
3, 27597, Note_off_c, 0, 75, 0
3, 27622, Note_on_c, 0, 76, 58
3, 27624, Note_on_c, 0, 80, 49
3, 27641, Note_off_c, 0, 79, 0
3, 27816, Note_on_c, 0, 81, 68
3, 27820, Note_on_c, 0, 78, 66
3, 27832, Note_off_c, 0, 80, 0
3, 27844, Note_off_c, 0, 76, 0
3, 27907, Note_off_c, 0, 78, 0
3, 28025, Note_off_c, 0, 81, 0
3, 28025, Note_on_c, 0, 82, 39
3, 28026, Note_on_c, 0, 79, 54
3, 28204, Note_on_c, 0, 80, 44
3, 28205, Note_on_c, 0, 83, 66
3, 28224, Note_off_c, 0, 82, 0
3, 28228, Note_off_c, 0, 79, 0
3, 28409, Note_on_c, 0, 84, 70
3, 28414, Note_on_c, 0, 81, 60
3, 28429, Note_off_c, 0, 80, 0
3, 28434, Note_off_c, 0, 83, 0
3, 28601, Note_on_c, 0, 82, 58
3, 28603, Note_on_c, 0, 85, 74
3, 28619, Note_off_c, 0, 84, 0
3, 28624, Note_off_c, 0, 81, 0
3, 28793, Note_on_c, 0, 86, 80
3, 28794, Note_on_c, 0, 83, 68
3, 28811, Note_off_c, 0, 85, 0
3, 28817, Note_off_c, 0, 82, 0
3, 28970, Note_on_c, 0, 87, 47
3, 28971, Note_on_c, 0, 84, 68
3, 28987, Note_off_c, 0, 86, 0
3, 28998, Note_off_c, 0, 83, 0
3, 29154, Note_on_c, 0, 85, 47
3, 29156, Note_on_c, 0, 88, 70
3, 29177, Note_off_c, 0, 87, 0
3, 29181, Note_off_c, 0, 84, 0
3, 29355, Note_on_c, 0, 89, 72
3, 29358, Note_on_c, 0, 86, 68
3, 29377, Note_off_c, 0, 88, 0
3, 29382, Note_off_c, 0, 85, 0
3, 29549, Note_on_c, 0, 87, 68
3, 29551, Note_on_c, 0, 90, 78
3, 29569, Note_off_c, 0, 89, 0
3, 29571, Note_off_c, 0, 86, 0
3, 29738, Note_on_c, 0, 91, 76
3, 29739, Note_on_c, 0, 88, 66
3, 29753, Note_off_c, 0, 90, 0
3, 29758, Note_off_c, 0, 87, 0
3, 29927, Note_on_c, 0, 92, 64
3, 29929, Note_on_c, 0, 89, 78
3, 29947, Note_off_c, 0, 91, 0
3, 29951, Note_off_c, 0, 88, 0
3, 30117, Note_on_c, 0, 90, 58
3, 30120, Note_on_c, 0, 93, 72
3, 30141, Note_off_c, 0, 92, 0
3, 30142, Note_off_c, 0, 89, 0
3, 30309, Note_on_c, 0, 94, 66
3, 30312, Note_on_c, 0, 91, 80
3, 30329, Note_off_c, 0, 90, 0
3, 30332, Note_off_c, 0, 93, 0
3, 30504, Note_on_c, 0, 92, 52
3, 30504, Note_on_c, 0, 95, 76
3, 30523, Note_off_c, 0, 94, 0
3, 30527, Note_off_c, 0, 91, 0
3, 30688, Note_on_c, 0, 96, 66
3, 30693, Note_on_c, 0, 93, 62
3, 30713, Note_off_c, 0, 92, 0
3, 30715, Note_off_c, 0, 95, 0
3, 30889, Note_on_c, 0, 94, 82
3, 30889, Note_on_c, 0, 97, 88
3, 30906, Note_off_c, 0, 96, 0
3, 30913, Note_off_c, 0, 93, 0
3, 31086, Note_on_c, 0, 98, 86
3, 31087, Note_on_c, 0, 95, 82
3, 31103, Note_off_c, 0, 97, 0
3, 31105, Note_off_c, 0, 94, 0
3, 31269, Note_on_c, 0, 96, 84
3, 31269, Note_on_c, 0, 99, 86
3, 31286, Note_off_c, 0, 98, 0
3, 31333, Note_off_c, 0, 95, 0
3, 31458, Note_off_c, 0, 96, 0
3, 31461, Note_off_c, 0, 99, 0
3, 31468, Note_on_c, 0, 97, 86
3, 31468, Note_on_c, 0, 100, 96
3, 31473, Note_on_c, 0, 99, 70
3, 31487, Note_off_c, 0, 99, 0
3, 31638, Note_off_c, 0, 97, 0
3, 31640, Note_off_c, 0, 100, 0
3, 36864, Control_c, 0, 10, 64
3, 36874, Note_on_c, 0, 70, 49
3, 36876, Note_on_c, 0, 74, 56
3, 37032, Note_off_c, 0, 74, 0
3, 37035, Note_on_c, 0, 75, 47
3, 37036, Note_on_c, 0, 71, 58
3, 37046, Note_off_c, 0, 70, 0
3, 37233, Note_on_c, 0, 70, 54
3, 37237, Note_on_c, 0, 74, 66
3, 37247, Note_off_c, 0, 75, 0
3, 37248, Note_off_c, 0, 71, 0
3, 37421, Note_on_c, 0, 75, 53
3, 37424, Note_on_c, 0, 71, 64
3, 37431, Note_off_c, 0, 70, 0
3, 37434, Note_off_c, 0, 74, 0
3, 37608, Note_on_c, 0, 76, 60
3, 37608, Note_on_c, 0, 73, 41
3, 37618, Note_off_c, 0, 71, 0
3, 37618, Note_off_c, 0, 75, 0
3, 37799, Note_on_c, 0, 75, 41
3, 37805, Note_on_c, 0, 71, 60
3, 37810, Note_off_c, 0, 76, 0
3, 37821, Note_off_c, 0, 73, 0
3, 37983, Note_on_c, 0, 73, 45
3, 37985, Note_on_c, 0, 76, 60
3, 37999, Note_off_c, 0, 71, 0
3, 37999, Note_off_c, 0, 75, 0
3, 38182, Note_on_c, 0, 75, 43
3, 38184, Note_on_c, 0, 71, 56
3, 38193, Note_off_c, 0, 73, 0
3, 38197, Note_off_c, 0, 76, 0
3, 38390, Note_on_c, 0, 74, 64
3, 38390, Note_on_c, 0, 70, 49
3, 38404, Note_off_c, 0, 71, 0
3, 38411, Note_off_c, 0, 75, 0
3, 38579, Note_on_c, 0, 75, 46
3, 38582, Note_on_c, 0, 71, 58
3, 38586, Note_off_c, 0, 74, 0
3, 38591, Note_off_c, 0, 70, 0
3, 38775, Note_on_c, 0, 70, 51
3, 38778, Note_on_c, 0, 74, 58
3, 38790, Note_off_c, 0, 71, 0
3, 38797, Note_off_c, 0, 75, 0
3, 38960, Note_on_c, 0, 75, 46
3, 38962, Note_on_c, 0, 71, 56
3, 38965, Note_off_c, 0, 74, 0
3, 38971, Note_off_c, 0, 70, 0
3, 39165, Note_on_c, 0, 70, 51
3, 39165, Note_on_c, 0, 73, 76
3, 39178, Note_off_c, 0, 71, 0
3, 39180, Note_off_c, 0, 75, 0
3, 39354, Note_on_c, 0, 68, 47
3, 39354, Note_on_c, 0, 71, 49
3, 39359, Note_off_c, 0, 73, 0
3, 39369, Note_off_c, 0, 70, 0
3, 39543, Note_on_c, 0, 73, 45
3, 39543, Note_on_c, 0, 70, 44
3, 39558, Note_off_c, 0, 68, 0
3, 39559, Note_off_c, 0, 71, 0
3, 39734, Note_on_c, 0, 71, 56
3, 39735, Note_on_c, 0, 68, 43
3, 39749, Note_off_c, 0, 70, 0
3, 39752, Note_off_c, 0, 73, 0
3, 39887, Note_off_c, 0, 68, 0
3, 39887, Note_off_c, 0, 71, 0
3, 39938, Note_on_c, 0, 85, 88
3, 39939, Note_on_c, 0, 88, 90
3, 40109, Note_on_c, 0, 87, 46
3, 40112, Note_on_c, 0, 83, 84
3, 40113, Note_off_c, 0, 88, 0
3, 40125, Note_off_c, 0, 85, 0
3, 40299, Note_on_c, 0, 85, 86
3, 40299, Note_on_c, 0, 82, 74
3, 40310, Note_off_c, 0, 83, 0
3, 40318, Note_off_c, 0, 87, 0
3, 40478, Note_on_c, 0, 80, 49
3, 40485, Note_on_c, 0, 83, 76
3, 40486, Note_off_c, 0, 82, 0
3, 40492, Note_off_c, 0, 85, 0
3, 40667, Note_on_c, 0, 79, 72
3, 40667, Note_on_c, 0, 82, 74
3, 40676, Note_off_c, 0, 83, 0
3, 40682, Note_off_c, 0, 80, 0
3, 40857, Note_off_c, 0, 79, 0
3, 40863, Note_on_c, 0, 76, 66
3, 40865, Note_on_c, 0, 80, 44
3, 40889, Note_off_c, 0, 82, 0
3, 41061, Note_on_c, 0, 78, 78
3, 41061, Note_on_c, 0, 75, 68
3, 41073, Note_off_c, 0, 76, 0
3, 41079, Note_off_c, 0, 80, 0
3, 41215, Note_off_c, 0, 78, 0
3, 41255, Note_on_c, 0, 73, 31
3, 41262, Note_on_c, 0, 76, 74
3, 41291, Note_off_c, 0, 75, 0
3, 41455, Note_on_c, 0, 71, 62
3, 41455, Note_on_c, 0, 75, 64
3, 41465, Note_off_c, 0, 76, 0
3, 41472, Note_off_c, 0, 73, 0
3, 41639, Note_on_c, 0, 73, 80
3, 41640, Note_on_c, 0, 70, 62
3, 41651, Note_off_c, 0, 71, 0
3, 41660, Note_off_c, 0, 75, 0
3, 41787, Note_off_c, 0, 73, 0
3, 41828, Note_on_c, 0, 71, 54
3, 41828, Note_on_c, 0, 68, 44
3, 41841, Note_off_c, 0, 70, 0
3, 42002, Note_on_c, 0, 70, 62
3, 42003, Note_on_c, 0, 67, 62
3, 42014, Note_off_c, 0, 71, 0
3, 42018, Note_off_c, 0, 68, 0
3, 42189, Note_on_c, 0, 64, 58
3, 42191, Note_on_c, 0, 68, 46
3, 42195, Note_off_c, 0, 67, 0
3, 42220, Note_off_c, 0, 70, 0
3, 42398, Note_on_c, 0, 66, 66
3, 42398, Note_on_c, 0, 63, 56
3, 42411, Note_off_c, 0, 64, 0
3, 42423, Note_off_c, 0, 68, 0
3, 42603, Note_on_c, 0, 64, 68
3, 42605, Note_on_c, 0, 61, 54
3, 42617, Note_off_c, 0, 66, 0
3, 42620, Note_off_c, 0, 63, 0
3, 42803, Note_on_c, 0, 63, 54
3, 42804, Note_on_c, 0, 59, 74
3, 42816, Note_off_c, 0, 64, 0
3, 42822, Note_off_c, 0, 61, 0
3, 42974, Note_off_c, 0, 59, 0
3, 42980, Note_off_c, 0, 63, 0
3, 43012, Control_c, 0, 10, 64
3, 43029, Note_on_c, 0, 62, 53
3, 43030, Note_on_c, 0, 58, 45
3, 43211, Note_on_c, 0, 59, 50
3, 43213, Note_on_c, 0, 63, 42
3, 43215, Note_off_c, 0, 58, 0
3, 43235, Note_off_c, 0, 62, 0
3, 43413, Note_on_c, 0, 61, 43
3, 43416, Note_on_c, 0, 64, 64
3, 43434, Note_off_c, 0, 59, 0
3, 43438, Note_off_c, 0, 63, 0
3, 43596, Note_on_c, 0, 65, 56
3, 43598, Note_on_c, 0, 62, 52
3, 43617, Note_off_c, 0, 61, 0
3, 43632, Note_off_c, 0, 64, 0
3, 43774, Note_on_c, 0, 66, 44
3, 43779, Note_on_c, 0, 63, 35
3, 43784, Note_off_c, 0, 65, 0
3, 43804, Note_off_c, 0, 62, 0
3, 43959, Note_on_c, 0, 64, 53
3, 43960, Note_on_c, 0, 67, 66
3, 43984, Note_off_c, 0, 63, 0
3, 43985, Note_off_c, 0, 66, 0
3, 44141, Note_on_c, 0, 68, 47
3, 44143, Note_on_c, 0, 65, 62
3, 44162, Note_off_c, 0, 67, 0
3, 44166, Note_off_c, 0, 64, 0
3, 44324, Note_on_c, 0, 66, 60
3, 44327, Note_on_c, 0, 69, 70
3, 44348, Note_off_c, 0, 65, 0
3, 44354, Note_off_c, 0, 68, 0
3, 44511, Note_on_c, 0, 70, 47
3, 44512, Note_on_c, 0, 67, 58
3, 44531, Note_off_c, 0, 69, 0
3, 44534, Note_off_c, 0, 66, 0
3, 44704, Note_on_c, 0, 68, 46
3, 44706, Note_on_c, 0, 71, 72
3, 44727, Note_off_c, 0, 67, 0
3, 44729, Note_off_c, 0, 70, 0
3, 44896, Note_on_c, 0, 72, 66
3, 44898, Note_on_c, 0, 69, 62
3, 44919, Note_off_c, 0, 68, 0
3, 44925, Note_off_c, 0, 71, 0
3, 45088, Note_on_c, 0, 73, 70
3, 45088, Note_on_c, 0, 70, 53
3, 45110, Note_off_c, 0, 72, 0
3, 45113, Note_off_c, 0, 69, 0
3, 45284, Note_on_c, 0, 74, 82
3, 45284, Note_on_c, 0, 71, 68
3, 45304, Note_off_c, 0, 73, 0
3, 45309, Note_off_c, 0, 70, 0
3, 45485, Note_on_c, 0, 75, 66
3, 45486, Note_on_c, 0, 72, 82
3, 45506, Note_off_c, 0, 74, 0
3, 45509, Note_off_c, 0, 71, 0
3, 45678, Note_on_c, 0, 76, 78
3, 45678, Note_on_c, 0, 73, 68
3, 45704, Note_off_c, 0, 72, 0
3, 45708, Note_off_c, 0, 75, 0
3, 45872, Note_on_c, 0, 77, 74
3, 45878, Note_on_c, 0, 74, 72
3, 45907, Note_off_c, 0, 73, 0
3, 45911, Note_off_c, 0, 76, 0
3, 46062, Note_off_c, 0, 77, 0
3, 46073, Note_on_c, 0, 75, 40
3, 46074, Note_on_c, 0, 78, 89
3, 46095, Note_off_c, 0, 74, 0
3, 46214, Note_off_c, 0, 78, 0
3, 46214, Note_off_c, 0, 75, 0
3, 52224, Control_c, 0, 10, 64
3, 52224, Note_on_c, 0, 75, 49
3, 52224, Note_on_c, 0, 71, 70
3, 52386, Note_on_c, 0, 73, 50
3, 52386, Note_on_c, 0, 76, 66
3, 52429, Note_off_c, 0, 75, 0
3, 52431, Note_off_c, 0, 71, 0
3, 52571, Note_on_c, 0, 74, 64
3, 52571, Note_on_c, 0, 77, 58
3, 52589, Note_off_c, 0, 73, 0
3, 52594, Note_off_c, 0, 76, 0
3, 52758, Note_on_c, 0, 75, 51
3, 52761, Note_on_c, 0, 78, 60
3, 52779, Note_off_c, 0, 77, 0
3, 52781, Note_off_c, 0, 74, 0
3, 52948, Note_on_c, 0, 79, 74
3, 52952, Note_on_c, 0, 76, 66
3, 52971, Note_off_c, 0, 78, 0
3, 52973, Note_off_c, 0, 75, 0
3, 53142, Note_on_c, 0, 77, 72
3, 53142, Note_on_c, 0, 80, 44
3, 53163, Note_off_c, 0, 76, 0
3, 53165, Note_off_c, 0, 79, 0
3, 53347, Note_on_c, 0, 78, 56
3, 53348, Note_on_c, 0, 81, 70
3, 53372, Note_off_c, 0, 80, 0
3, 53372, Note_off_c, 0, 77, 0
3, 53547, Note_on_c, 0, 82, 60
3, 53548, Note_on_c, 0, 79, 64
3, 53568, Note_off_c, 0, 78, 0
3, 53569, Note_off_c, 0, 81, 0
3, 53745, Note_on_c, 0, 80, 48
3, 53748, Note_on_c, 0, 83, 74
3, 53767, Note_off_c, 0, 82, 0
3, 53769, Note_off_c, 0, 79, 0
3, 53942, Note_on_c, 0, 79, 60
3, 53944, Note_on_c, 0, 82, 50
3, 53963, Note_off_c, 0, 83, 0
3, 53973, Note_off_c, 0, 80, 0
3, 54133, Note_on_c, 0, 78, 43
3, 54138, Note_on_c, 0, 81, 51
3, 54158, Note_off_c, 0, 79, 0
3, 54160, Note_off_c, 0, 82, 0
3, 54315, Note_on_c, 0, 80, 42
3, 54316, Note_on_c, 0, 77, 62
3, 54336, Note_off_c, 0, 81, 0
3, 54357, Note_off_c, 0, 78, 0
3, 54432, Note_off_c, 0, 77, 0
3, 54515, Note_on_c, 0, 76, 56
3, 54519, Note_on_c, 0, 79, 60
3, 54541, Note_off_c, 0, 80, 0
3, 54690, Note_on_c, 0, 78, 50
3, 54692, Note_on_c, 0, 75, 39
3, 54713, Note_off_c, 0, 79, 0
3, 54713, Note_off_c, 0, 76, 0
3, 54878, Note_on_c, 0, 74, 54
3, 54882, Note_on_c, 0, 77, 58
3, 54903, Note_off_c, 0, 78, 0
3, 54905, Note_off_c, 0, 75, 0
3, 55061, Note_on_c, 0, 73, 37
3, 55067, Note_on_c, 0, 76, 53
3, 55086, Note_off_c, 0, 74, 0
3, 55105, Note_off_c, 0, 77, 0
3, 55250, Note_on_c, 0, 75, 44
3, 55250, Note_on_c, 0, 72, 53
3, 55272, Note_off_c, 0, 76, 0
3, 55275, Note_off_c, 0, 73, 0
3, 55402, Note_off_c, 0, 72, 0
3, 55451, Note_on_c, 0, 71, 46
3, 55461, Note_on_c, 0, 74, 62
3, 55480, Note_off_c, 0, 75, 0
3, 55636, Note_on_c, 0, 73, 46
3, 55639, Note_on_c, 0, 70, 39
3, 55662, Note_off_c, 0, 74, 0
3, 55664, Note_off_c, 0, 71, 0
3, 55832, Note_on_c, 0, 69, 58
3, 55850, Note_off_c, 0, 70, 0
3, 55850, Note_on_c, 0, 72, 58
3, 55856, Note_off_c, 0, 73, 0
3, 56032, Note_on_c, 0, 71, 62
3, 56032, Note_on_c, 0, 68, 31
3, 56055, Note_off_c, 0, 72, 0
3, 56058, Note_off_c, 0, 69, 0
3, 56216, Note_on_c, 0, 69, 53
3, 56217, Note_on_c, 0, 72, 60
3, 56233, Note_off_c, 0, 71, 0
3, 56238, Note_off_c, 0, 68, 0
3, 56412, Note_on_c, 0, 70, 49
3, 56412, Note_on_c, 0, 73, 53
3, 56429, Note_off_c, 0, 72, 0
3, 56438, Note_off_c, 0, 69, 0
3, 56608, Note_on_c, 0, 74, 74
3, 56609, Note_on_c, 0, 71, 60
3, 56632, Note_off_c, 0, 70, 0
3, 56633, Note_off_c, 0, 73, 0
3, 56801, Note_on_c, 0, 75, 52
3, 56803, Note_on_c, 0, 72, 64
3, 56824, Note_off_c, 0, 74, 0
3, 56837, Note_off_c, 0, 71, 0
3, 57000, Note_on_c, 0, 76, 68
3, 57000, Note_on_c, 0, 73, 52
3, 57027, Note_off_c, 0, 72, 0
3, 57028, Note_off_c, 0, 75, 0
3, 57190, Note_on_c, 0, 77, 72
3, 57196, Note_on_c, 0, 74, 56
3, 57214, Note_off_c, 0, 73, 0
3, 57221, Note_off_c, 0, 76, 0
3, 57384, Note_on_c, 0, 75, 66
3, 57384, Note_on_c, 0, 78, 72
3, 57407, Note_off_c, 0, 77, 0
3, 57409, Note_off_c, 0, 74, 0
3, 57570, Note_on_c, 0, 79, 72
3, 57571, Note_on_c, 0, 76, 56
3, 57594, Note_off_c, 0, 78, 0
3, 57598, Note_off_c, 0, 75, 0
3, 57762, Note_on_c, 0, 75, 46
3, 57762, Note_on_c, 0, 78, 50
3, 57788, Note_off_c, 0, 76, 0
3, 57790, Note_off_c, 0, 79, 0
3, 57959, Note_on_c, 0, 74, 62
3, 57964, Note_on_c, 0, 77, 58
3, 57980, Note_off_c, 0, 75, 0
3, 57985, Note_off_c, 0, 78, 0
3, 58151, Note_on_c, 0, 73, 33
3, 58158, Note_on_c, 0, 76, 56
3, 58179, Note_off_c, 0, 74, 0
3, 58191, Note_off_c, 0, 77, 0
3, 58326, Note_off_c, 0, 73, 0
3, 58327, Note_off_c, 0, 76, 0
3, 58369, Note_on_c, 0, 75, 45
3, 58370, Note_on_c, 0, 71, 46
3, 58506, Control_c, 0, 10, 64
3, 58553, Note_on_c, 0, 73, 30
3, 58559, Note_on_c, 0, 76, 35
3, 58565, Note_off_c, 0, 75, 0
3, 58574, Note_off_c, 0, 71, 0
3, 58748, Note_on_c, 0, 75, 42
3, 58750, Note_on_c, 0, 71, 33
3, 58770, Note_off_c, 0, 76, 0
3, 58777, Note_off_c, 0, 73, 0
3, 58942, Note_on_c, 0, 73, 39
3, 58949, Note_on_c, 0, 76, 44
3, 58965, Note_off_c, 0, 71, 0
3, 58966, Note_off_c, 0, 75, 0
3, 59137, Note_on_c, 0, 75, 37
3, 59140, Note_on_c, 0, 71, 46
3, 59157, Note_off_c, 0, 76, 0
3, 59164, Note_off_c, 0, 73, 0
3, 59323, Note_on_c, 0, 73, 43
3, 59327, Note_on_c, 0, 76, 56
3, 59344, Note_off_c, 0, 71, 0
3, 59346, Note_off_c, 0, 75, 0
3, 59513, Note_on_c, 0, 71, 47
3, 59513, Note_on_c, 0, 75, 45
3, 59533, Note_off_c, 0, 76, 0
3, 59539, Note_off_c, 0, 73, 0
3, 59700, Note_on_c, 0, 73, 39
3, 59702, Note_on_c, 0, 76, 51
3, 59718, Note_off_c, 0, 71, 0
3, 59723, Note_off_c, 0, 75, 0
3, 59895, Note_on_c, 0, 71, 47
3, 59895, Note_on_c, 0, 75, 43
3, 59904, Note_off_c, 0, 76, 0
3, 59922, Note_off_c, 0, 73, 0
3, 60077, Note_on_c, 0, 73, 41
3, 60081, Note_on_c, 0, 76, 56
3, 60096, Note_off_c, 0, 71, 0
3, 60102, Note_off_c, 0, 75, 0
3, 60278, Note_on_c, 0, 75, 43
3, 60280, Note_on_c, 0, 71, 56
3, 60287, Note_off_c, 0, 76, 0
3, 60306, Note_off_c, 0, 73, 0
3, 60459, Note_on_c, 0, 73, 43
3, 60463, Note_on_c, 0, 76, 58
3, 60476, Note_off_c, 0, 71, 0
3, 60484, Note_off_c, 0, 75, 0
3, 60654, Note_on_c, 0, 75, 31
3, 60655, Note_on_c, 0, 71, 49
3, 60658, Note_off_c, 0, 76, 0
3, 60679, Note_off_c, 0, 73, 0
3, 60842, Note_on_c, 0, 73, 39
3, 60847, Note_on_c, 0, 76, 47
3, 60862, Note_off_c, 0, 71, 0
3, 60865, Note_off_c, 0, 75, 0
3, 61031, Note_on_c, 0, 75, 41
3, 61033, Note_on_c, 0, 71, 48
3, 61046, Note_off_c, 0, 76, 0
3, 61054, Note_off_c, 0, 73, 0
3, 61228, Note_on_c, 0, 73, 43
3, 61233, Note_on_c, 0, 76, 50
3, 61248, Note_off_c, 0, 71, 0
3, 61253, Note_off_c, 0, 75, 0
3, 61429, Note_on_c, 0, 75, 48
3, 61430, Note_on_c, 0, 71, 50
3, 61449, Note_off_c, 0, 76, 0
3, 61452, Note_off_c, 0, 73, 0
3, 61616, Note_on_c, 0, 73, 43
3, 61618, Note_on_c, 0, 76, 53
3, 61636, Note_off_c, 0, 71, 0
3, 61640, Note_off_c, 0, 75, 0
3, 61795, Note_off_c, 0, 76, 0
3, 61798, Note_on_c, 0, 75, 41
3, 61799, Note_on_c, 0, 71, 51
3, 61813, Note_off_c, 0, 73, 0
3, 61991, Note_on_c, 0, 70, 41
3, 61993, Note_on_c, 0, 74, 58
3, 62010, Note_off_c, 0, 71, 0
3, 62017, Note_off_c, 0, 75, 0
3, 62193, Note_on_c, 0, 75, 41
3, 62196, Note_on_c, 0, 71, 58
3, 62198, Note_off_c, 0, 74, 0
3, 62210, Note_off_c, 0, 70, 0
3, 62387, Note_on_c, 0, 73, 41
3, 62388, Note_on_c, 0, 76, 56
3, 62411, Note_off_c, 0, 71, 0
3, 62414, Note_off_c, 0, 75, 0
3, 62582, Note_off_c, 0, 76, 0
3, 62582, Note_on_c, 0, 75, 37
3, 62583, Note_on_c, 0, 71, 60
3, 62605, Note_off_c, 0, 73, 0
3, 62769, Note_on_c, 0, 70, 42
3, 62773, Note_on_c, 0, 74, 64
3, 62793, Note_off_c, 0, 71, 0
3, 62794, Note_off_c, 0, 75, 0
3, 62964, Note_on_c, 0, 75, 44
3, 62967, Note_on_c, 0, 71, 56
3, 62980, Note_off_c, 0, 70, 0
3, 62983, Note_off_c, 0, 74, 0
3, 63176, Note_on_c, 0, 73, 33
3, 63178, Note_on_c, 0, 76, 60
3, 63199, Note_off_c, 0, 75, 0
3, 63204, Note_off_c, 0, 71, 0
3, 63368, Note_off_c, 0, 76, 0
3, 63368, Note_on_c, 0, 75, 42
3, 63372, Note_on_c, 0, 71, 53
3, 63389, Note_off_c, 0, 73, 0
3, 63550, Note_on_c, 0, 70, 49
3, 63554, Note_on_c, 0, 74, 58
3, 63573, Note_off_c, 0, 71, 0
3, 63578, Note_off_c, 0, 75, 0
3, 63734, Note_on_c, 0, 75, 46
3, 63739, Note_on_c, 0, 71, 64
3, 63749, Note_off_c, 0, 74, 0
3, 63755, Note_off_c, 0, 70, 0
3, 63919, Note_on_c, 0, 73, 39
3, 63921, Note_on_c, 0, 76, 66
3, 63940, Note_off_c, 0, 71, 0
3, 63942, Note_off_c, 0, 75, 0
3, 64099, Note_on_c, 0, 75, 43
3, 64103, Note_off_c, 0, 76, 0
3, 64104, Note_on_c, 0, 71, 49
3, 64122, Note_off_c, 0, 73, 0
3, 64280, Note_on_c, 0, 70, 39
3, 64285, Note_on_c, 0, 74, 68
3, 64297, Note_off_c, 0, 75, 0
3, 64307, Note_off_c, 0, 71, 0
3, 64472, Note_off_c, 0, 74, 0
3, 64473, Note_on_c, 0, 75, 46
3, 64474, Note_on_c, 0, 71, 64
3, 64484, Note_off_c, 0, 70, 0
3, 64669, Note_on_c, 0, 73, 43
3, 64670, Note_on_c, 0, 76, 62
3, 64689, Note_off_c, 0, 71, 0
3, 64691, Note_off_c, 0, 75, 0
3, 64877, Note_on_c, 0, 74, 68
3, 64878, Note_on_c, 0, 77, 62
3, 64897, Note_off_c, 0, 73, 0
3, 64901, Note_off_c, 0, 76, 0
3, 65079, Note_on_c, 0, 75, 58
3, 65080, Note_on_c, 0, 78, 64
3, 65099, Note_off_c, 0, 77, 0
3, 65099, Note_off_c, 0, 74, 0
3, 65268, Note_on_c, 0, 79, 72
3, 65270, Note_on_c, 0, 76, 62
3, 65288, Note_off_c, 0, 78, 0
3, 65288, Note_off_c, 0, 75, 0
3, 65451, Note_on_c, 0, 80, 43
3, 65452, Note_on_c, 0, 77, 72
3, 65469, Note_off_c, 0, 79, 0
3, 65475, Note_off_c, 0, 76, 0
3, 65640, Note_on_c, 0, 78, 51
3, 65642, Note_on_c, 0, 81, 66
3, 65659, Note_off_c, 0, 80, 0
3, 65665, Note_off_c, 0, 77, 0
3, 65832, Note_on_c, 0, 79, 64
3, 65833, Note_on_c, 0, 82, 58
3, 65838, Note_off_c, 0, 81, 0
3, 65850, Note_off_c, 0, 78, 0
3, 66024, Note_on_c, 0, 80, 51
3, 66025, Note_on_c, 0, 83, 74
3, 66045, Note_off_c, 0, 82, 0
3, 66051, Note_off_c, 0, 79, 0
3, 66223, Note_on_c, 0, 84, 64
3, 66225, Note_on_c, 0, 81, 56
3, 66243, Note_off_c, 0, 80, 0
3, 66245, Note_off_c, 0, 83, 0
3, 66409, Note_on_c, 0, 82, 66
3, 66411, Note_on_c, 0, 85, 84
3, 66428, Note_off_c, 0, 84, 0
3, 66434, Note_off_c, 0, 81, 0
3, 66599, Note_on_c, 0, 86, 74
3, 66600, Note_on_c, 0, 83, 68
3, 66616, Note_off_c, 0, 85, 0
3, 66619, Note_off_c, 0, 82, 0
3, 66784, Note_on_c, 0, 87, 60
3, 66786, Note_on_c, 0, 84, 68
3, 66801, Note_off_c, 0, 86, 0
3, 66812, Note_off_c, 0, 83, 0
3, 66981, Note_on_c, 0, 85, 52
3, 66981, Note_on_c, 0, 88, 76
3, 67004, Note_off_c, 0, 84, 0
3, 67004, Note_off_c, 0, 87, 0
3, 67179, Note_on_c, 0, 89, 64
3, 67184, Note_on_c, 0, 86, 64
3, 67198, Note_off_c, 0, 85, 0
3, 67201, Note_off_c, 0, 88, 0
3, 67367, Note_on_c, 0, 87, 64
3, 67371, Note_on_c, 0, 90, 80
3, 67390, Note_off_c, 0, 89, 0
3, 67391, Note_off_c, 0, 86, 0
3, 67569, Note_on_c, 0, 88, 70
3, 67569, Note_on_c, 0, 91, 78
3, 67583, Note_off_c, 0, 90, 0
3, 67587, Note_off_c, 0, 87, 0
3, 67756, Note_on_c, 0, 89, 78
3, 67757, Note_on_c, 0, 92, 68
3, 67773, Note_off_c, 0, 91, 0
3, 67779, Note_off_c, 0, 88, 0
3, 67943, Note_on_c, 0, 90, 74
3, 67944, Note_on_c, 0, 93, 84
3, 67963, Note_off_c, 0, 92, 0
3, 67966, Note_off_c, 0, 89, 0
3, 68136, Note_off_c, 0, 93, 0
3, 68139, Note_on_c, 0, 94, 76
3, 68141, Note_on_c, 0, 91, 74
3, 68164, Note_off_c, 0, 90, 0
3, 68320, Note_off_c, 0, 91, 0
3, 68337, Note_off_c, 0, 94, 0
3, 68345, Note_on_c, 0, 92, 90
3, 68346, Note_on_c, 0, 95, 90
3, 68471, Note_off_c, 0, 92, 0
3, 68474, Note_off_c, 0, 95, 0
3, 101376, Control_c, 0, 10, 64
3, 101384, Note_on_c, 0, 83, 92
3, 101384, Note_on_c, 0, 80, 94
3, 101569, Note_on_c, 0, 77, 84
3, 101570, Note_on_c, 0, 74, 74
3, 101580, Note_off_c, 0, 83, 0
3, 101583, Note_off_c, 0, 80, 0
3, 101762, Note_on_c, 0, 79, 86
3, 101762, Note_on_c, 0, 82, 70
3, 101766, Note_off_c, 0, 74, 0
3, 101772, Note_off_c, 0, 77, 0
3, 101942, Note_on_c, 0, 76, 88
3, 101945, Note_on_c, 0, 73, 72
3, 101953, Note_off_c, 0, 79, 0
3, 101961, Note_off_c, 0, 82, 0
3, 102129, Note_on_c, 0, 78, 66
3, 102130, Note_on_c, 0, 81, 84
3, 102134, Note_off_c, 0, 73, 0
3, 102145, Note_off_c, 0, 76, 0
3, 102308, Note_on_c, 0, 75, 64
3, 102311, Note_on_c, 0, 72, 74
3, 102323, Note_off_c, 0, 81, 0
3, 102330, Note_off_c, 0, 78, 0
3, 102499, Note_on_c, 0, 77, 84
3, 102501, Note_on_c, 0, 80, 66
3, 102516, Note_off_c, 0, 72, 0
3, 102516, Note_off_c, 0, 75, 0
3, 102694, Note_on_c, 0, 74, 88
3, 102697, Note_on_c, 0, 71, 72
3, 102712, Note_off_c, 0, 80, 0
3, 102712, Note_off_c, 0, 77, 0
3, 102893, Note_on_c, 0, 76, 84
3, 102894, Note_on_c, 0, 79, 82
3, 102912, Note_off_c, 0, 71, 0
3, 102912, Note_off_c, 0, 74, 0
3, 103082, Note_on_c, 0, 70, 70
3, 103082, Note_on_c, 0, 73, 76
3, 103083, Note_off_c, 0, 79, 0
3, 103098, Note_off_c, 0, 76, 0
3, 103277, Note_on_c, 0, 75, 90
3, 103277, Note_on_c, 0, 78, 84
3, 103296, Note_off_c, 0, 73, 0
3, 103298, Note_off_c, 0, 70, 0
3, 103473, Note_on_c, 0, 72, 82
3, 103476, Note_on_c, 0, 69, 72
3, 103486, Note_off_c, 0, 78, 0
3, 103491, Note_off_c, 0, 75, 0
3, 103667, Note_on_c, 0, 75, 80
3, 103668, Note_on_c, 0, 77, 86
3, 103686, Note_off_c, 0, 72, 0
3, 103687, Note_off_c, 0, 69, 0
3, 103856, Note_on_c, 0, 72, 76
3, 103858, Note_on_c, 0, 69, 70
3, 103873, Note_off_c, 0, 77, 0
3, 103879, Note_off_c, 0, 75, 0
3, 104044, Note_on_c, 0, 75, 72
3, 104047, Note_on_c, 0, 77, 80
3, 104068, Note_off_c, 0, 69, 0
3, 104068, Note_off_c, 0, 72, 0
3, 104223, Note_on_c, 0, 72, 78
3, 104225, Note_on_c, 0, 69, 66
3, 104240, Note_off_c, 0, 77, 0
3, 104246, Note_off_c, 0, 75, 0
3, 104418, Note_on_c, 0, 74, 84
3, 104421, Note_on_c, 0, 77, 86
3, 104435, Note_off_c, 0, 72, 0
3, 104443, Note_off_c, 0, 69, 0
3, 104612, Note_on_c, 0, 71, 70
3, 104614, Note_on_c, 0, 69, 64
3, 104618, Note_off_c, 0, 77, 0
3, 104635, Note_off_c, 0, 74, 0
3, 104802, Note_on_c, 0, 76, 66
3, 104803, Note_on_c, 0, 74, 80
3, 104823, Note_off_c, 0, 71, 0
3, 104828, Note_off_c, 0, 69, 0
3, 104986, Note_on_c, 0, 68, 47
3, 104988, Note_on_c, 0, 71, 72
3, 105005, Note_off_c, 0, 76, 0
3, 105007, Note_off_c, 0, 74, 0
3, 105184, Note_on_c, 0, 76, 58
3, 105186, Note_on_c, 0, 74, 80
3, 105209, Note_off_c, 0, 71, 0
3, 105213, Note_off_c, 0, 68, 0
3, 105378, Note_on_c, 0, 68, 50
3, 105379, Note_on_c, 0, 71, 78
3, 105392, Note_off_c, 0, 76, 0
3, 105401, Note_off_c, 0, 74, 0
3, 105581, Note_on_c, 0, 76, 53
3, 105581, Note_on_c, 0, 74, 78
3, 105604, Note_off_c, 0, 71, 0
3, 105612, Note_off_c, 0, 68, 0
3, 105767, Note_on_c, 0, 68, 47
3, 105767, Note_on_c, 0, 71, 76
3, 105784, Note_off_c, 0, 76, 0
3, 105791, Note_off_c, 0, 74, 0
3, 105960, Note_on_c, 0, 73, 53
3, 105965, Note_on_c, 0, 76, 80
3, 105978, Note_off_c, 0, 71, 0
3, 105993, Note_off_c, 0, 68, 0
3, 106154, Note_on_c, 0, 70, 52
3, 106154, Note_on_c, 0, 67, 64
3, 106176, Note_off_c, 0, 73, 0
3, 106177, Note_off_c, 0, 76, 0
3, 106341, Note_on_c, 0, 73, 76
3, 106342, Note_on_c, 0, 75, 76
3, 106364, Note_off_c, 0, 70, 0
3, 106367, Note_off_c, 0, 67, 0
3, 106534, Note_on_c, 0, 70, 47
3, 106537, Note_on_c, 0, 67, 70
3, 106555, Note_off_c, 0, 75, 0
3, 106557, Note_off_c, 0, 73, 0
3, 106725, Note_on_c, 0, 73, 50
3, 106727, Note_on_c, 0, 75, 49
3, 106751, Note_off_c, 0, 70, 0
3, 106919, Note_off_c, 0, 67, 0
3, 106919, Note_on_c, 0, 70, 49
3, 106923, Note_on_c, 0, 67, 66
3, 106943, Note_off_c, 0, 75, 0
3, 106946, Note_off_c, 0, 73, 0
3, 107125, Note_on_c, 0, 73, 45
3, 107126, Note_on_c, 0, 75, 51
3, 107147, Note_off_c, 0, 67, 0
3, 107150, Note_off_c, 0, 70, 0
3, 107314, Note_on_c, 0, 70, 33
3, 107318, Note_on_c, 0, 67, 51
3, 107340, Note_off_c, 0, 73, 0
3, 107341, Note_off_c, 0, 75, 0
3, 107465, Note_off_c, 0, 70, 0
3, 107472, Note_off_c, 0, 67, 0
3, 107531, Note_on_c, 0, 75, 48
3, 107531, Note_on_c, 0, 71, 56
3, 107533, Note_on_c, 0, 44, 76
3, 107708, Control_c, 0, 10, 64
3, 107722, Note_on_c, 0, 73, 35
3, 107725, Note_on_c, 0, 76, 41
3, 107731, Note_off_c, 0, 71, 0
3, 107746, Note_off_c, 0, 75, 0
3, 107907, Note_on_c, 0, 51, 60
3, 107920, Note_on_c, 0, 75, 31
3, 107921, Note_off_c, 0, 76, 0
3, 107925, Note_on_c, 0, 71, 35
3, 107932, Note_off_c, 0, 44, 0
3, 107955, Note_off_c, 0, 73, 0
3, 108097, Note_on_c, 0, 73, 44
3, 108104, Note_on_c, 0, 76, 52
3, 108117, Note_off_c, 0, 71, 0
3, 108129, Note_off_c, 0, 75, 0
3, 108276, Note_on_c, 0, 75, 39
3, 108280, Note_on_c, 0, 71, 51
3, 108288, Note_off_c, 0, 76, 0
3, 108291, Note_on_c, 0, 59, 64
3, 108300, Note_off_c, 0, 51, 0
3, 108303, Note_off_c, 0, 73, 0
3, 108459, Note_on_c, 0, 73, 35
3, 108463, Note_on_c, 0, 76, 48
3, 108478, Note_off_c, 0, 71, 0
3, 108486, Note_off_c, 0, 75, 0
3, 108542, Note_off_c, 0, 59, 0
3, 108639, Note_on_c, 0, 71, 45
3, 108640, Note_on_c, 0, 75, 48
3, 108644, Note_on_c, 0, 43, 60
3, 108659, Note_off_c, 0, 73, 0
3, 108660, Note_off_c, 0, 76, 0
3, 108839, Note_on_c, 0, 73, 35
3, 108842, Note_on_c, 0, 76, 52
3, 108861, Note_off_c, 0, 71, 0
3, 108868, Note_off_c, 0, 75, 0
3, 109007, Note_on_c, 0, 44, 53
3, 109028, Note_on_c, 0, 75, 46
3, 109030, Note_on_c, 0, 71, 54
3, 109049, Note_off_c, 0, 43, 0
3, 109051, Note_off_c, 0, 76, 0
3, 109052, Note_off_c, 0, 73, 0
3, 109221, Note_on_c, 0, 73, 41
3, 109224, Note_on_c, 0, 76, 54
3, 109240, Note_off_c, 0, 71, 0
3, 109249, Note_off_c, 0, 75, 0
3, 109377, Note_on_c, 0, 51, 39
3, 109405, Note_on_c, 0, 75, 44
3, 109411, Note_on_c, 0, 71, 47
3, 109425, Note_off_c, 0, 73, 0
3, 109429, Note_off_c, 0, 76, 0
3, 109603, Note_on_c, 0, 73, 37
3, 109605, Note_on_c, 0, 76, 50
3, 109624, Note_off_c, 0, 71, 0
3, 109630, Note_off_c, 0, 75, 0
3, 109799, Note_on_c, 0, 75, 37
3, 109802, Note_on_c, 0, 71, 48
3, 109805, Note_off_c, 0, 76, 0
3, 109808, Note_on_c, 0, 59, 66
3, 109813, Note_off_c, 0, 51, 0
3, 109829, Note_off_c, 0, 73, 0
3, 109988, Note_on_c, 0, 73, 39
3, 109993, Note_on_c, 0, 76, 58
3, 110007, Note_off_c, 0, 71, 0
3, 110022, Note_off_c, 0, 75, 0
3, 110064, Note_off_c, 0, 44, 0
3, 110086, Note_off_c, 0, 59, 0
3, 110179, Note_on_c, 0, 75, 43
3, 110181, Note_on_c, 0, 39, 72
3, 110184, Note_on_c, 0, 71, 49
3, 110186, Note_off_c, 0, 76, 0
3, 110206, Note_off_c, 0, 73, 0
3, 110368, Note_on_c, 0, 73, 35
3, 110371, Note_on_c, 0, 76, 49
3, 110384, Note_off_c, 0, 71, 0
3, 110395, Note_off_c, 0, 75, 0
3, 110559, Note_on_c, 0, 44, 88
3, 110565, Note_on_c, 0, 75, 39
3, 110566, Note_on_c, 0, 71, 64
3, 110583, Note_off_c, 0, 76, 0
3, 110589, Note_off_c, 0, 73, 0
3, 110603, Note_off_c, 0, 39, 0
3, 110762, Note_on_c, 0, 73, 44
3, 110765, Note_on_c, 0, 76, 52
3, 110780, Note_off_c, 0, 71, 0
3, 110787, Note_off_c, 0, 75, 0
3, 110934, Note_on_c, 0, 51, 54
3, 110953, Note_on_c, 0, 75, 35
3, 110957, Note_on_c, 0, 71, 54
3, 110959, Note_off_c, 0, 76, 0
3, 110974, Note_off_c, 0, 73, 0
3, 111145, Note_on_c, 0, 70, 39
3, 111151, Note_on_c, 0, 74, 56
3, 111163, Note_off_c, 0, 71, 0
3, 111176, Note_off_c, 0, 75, 0
3, 111333, Note_on_c, 0, 59, 80
3, 111341, Note_on_c, 0, 75, 35
3, 111345, Note_on_c, 0, 71, 54
3, 111356, Note_off_c, 0, 74, 0
3, 111359, Note_off_c, 0, 70, 0
3, 111370, Note_off_c, 0, 51, 0
3, 111533, Note_on_c, 0, 76, 49
3, 111553, Note_off_c, 0, 75, 0
3, 111553, Note_on_c, 0, 73, 41
3, 111556, Note_off_c, 0, 71, 0
3, 111612, Note_off_c, 0, 44, 0
3, 111639, Note_off_c, 0, 59, 0
3, 111697, Note_on_c, 0, 49, 72
3, 111725, Note_on_c, 0, 75, 43
3, 111729, Note_on_c, 0, 71, 53
3, 111733, Note_off_c, 0, 76, 0
3, 111749, Note_off_c, 0, 73, 0
3, 111913, Note_on_c, 0, 70, 49
3, 111914, Note_on_c, 0, 74, 62
3, 111930, Note_off_c, 0, 71, 0
3, 111939, Note_off_c, 0, 75, 0
3, 112084, Note_on_c, 0, 47, 88
3, 112106, Note_on_c, 0, 75, 43
3, 112109, Note_on_c, 0, 71, 60
3, 112113, Note_off_c, 0, 74, 0
3, 112123, Note_off_c, 0, 70, 0
3, 112132, Note_off_c, 0, 49, 0
3, 112298, Note_on_c, 0, 73, 43
3, 112301, Note_on_c, 0, 76, 58
3, 112318, Note_off_c, 0, 71, 0
3, 112324, Note_off_c, 0, 75, 0
3, 112475, Note_on_c, 0, 51, 52
3, 112485, Note_on_c, 0, 75, 39
3, 112491, Note_on_c, 0, 71, 53
3, 112507, Note_off_c, 0, 76, 0
3, 112507, Note_off_c, 0, 73, 0
3, 112669, Note_on_c, 0, 70, 41
3, 112675, Note_on_c, 0, 74, 64
3, 112685, Note_off_c, 0, 71, 0
3, 112697, Note_off_c, 0, 75, 0
3, 112859, Note_on_c, 0, 75, 44
3, 112862, Note_on_c, 0, 71, 64
3, 112871, Note_off_c, 0, 74, 0
3, 112872, Note_on_c, 0, 59, 70
3, 112876, Note_off_c, 0, 70, 0
3, 112916, Note_off_c, 0, 51, 0
3, 113051, Note_on_c, 0, 73, 43
3, 113055, Note_on_c, 0, 76, 62
3, 113076, Note_off_c, 0, 71, 0
3, 113079, Note_off_c, 0, 75, 0
3, 113137, Note_off_c, 0, 47, 0
3, 113140, Note_off_c, 0, 59, 0
3, 113233, Note_off_c, 0, 76, 0
3, 113240, Note_on_c, 0, 75, 42
3, 113249, Note_on_c, 0, 71, 62
3, 113249, Note_on_c, 0, 39, 50
3, 113267, Note_off_c, 0, 73, 0
3, 113435, Note_on_c, 0, 70, 43
3, 113439, Note_on_c, 0, 74, 62
3, 113454, Note_off_c, 0, 71, 0
3, 113463, Note_off_c, 0, 75, 0
3, 113620, Note_on_c, 0, 44, 50
3, 113634, Note_on_c, 0, 75, 46
3, 113636, Note_on_c, 0, 71, 64
3, 113650, Note_off_c, 0, 74, 0
3, 113651, Note_off_c, 0, 70, 0
3, 113667, Note_off_c, 0, 39, 0
3, 113820, Note_on_c, 0, 73, 39
3, 113821, Note_on_c, 0, 76, 53
3, 113840, Note_off_c, 0, 71, 0
3, 113854, Note_off_c, 0, 75, 0
3, 113892, Note_off_c, 0, 44, 0
3, 113987, Note_on_c, 0, 68, 43
3, 113990, Note_on_c, 0, 63, 43
3, 113991, Note_on_c, 0, 59, 70
3, 113993, Note_off_c, 0, 76, 0
3, 114012, Note_on_c, 0, 77, 54
3, 114014, Note_on_c, 0, 74, 60
3, 114033, Note_off_c, 0, 73, 0
3, 114201, Note_on_c, 0, 75, 49
3, 114205, Note_on_c, 0, 78, 49
3, 114221, Note_off_c, 0, 77, 0
3, 114224, Note_off_c, 0, 74, 0
3, 114275, Note_off_c, 0, 59, 0
3, 114291, Note_off_c, 0, 63, 0
3, 114294, Note_off_c, 0, 68, 0
3, 114386, Note_on_c, 0, 79, 68
3, 114389, Note_on_c, 0, 76, 56
3, 114405, Note_off_c, 0, 78, 0
3, 114405, Note_off_c, 0, 75, 0
3, 114407, Note_on_c, 0, 68, 50
3, 114408, Note_on_c, 0, 63, 46
3, 114419, Note_on_c, 0, 59, 72
3, 114579, Note_on_c, 0, 77, 51
3, 114581, Note_on_c, 0, 80, 35
3, 114605, Note_off_c, 0, 79, 0
3, 114614, Note_off_c, 0, 76, 0
3, 114713, Note_off_c, 0, 63, 0
3, 114723, Note_off_c, 0, 59, 0
3, 114763, Note_on_c, 0, 63, 62
3, 114766, Note_on_c, 0, 66, 47
3, 114767, Note_on_c, 0, 59, 54
3, 114771, Note_on_c, 0, 78, 48
3, 114771, Note_on_c, 0, 81, 64
3, 114790, Note_off_c, 0, 80, 0
3, 114796, Note_off_c, 0, 77, 0
3, 114833, Note_off_c, 0, 68, 0
3, 114980, Note_on_c, 0, 82, 50
3, 114980, Note_on_c, 0, 79, 62
3, 115000, Note_off_c, 0, 78, 0
3, 115006, Note_off_c, 0, 81, 0
3, 115138, Note_off_c, 0, 66, 0
3, 115138, Note_off_c, 0, 63, 0
3, 115143, Note_off_c, 0, 59, 0
3, 115166, Note_on_c, 0, 66, 58
3, 115167, Note_on_c, 0, 63, 53
3, 115177, Note_on_c, 0, 80, 48
3, 115178, Note_on_c, 0, 83, 74
3, 115188, Note_on_c, 0, 59, 66
3, 115198, Note_off_c, 0, 79, 0
3, 115198, Note_off_c, 0, 82, 0
3, 115373, Note_on_c, 0, 84, 62
3, 115379, Note_on_c, 0, 81, 50
3, 115393, Note_off_c, 0, 83, 0
3, 115396, Note_off_c, 0, 80, 0
3, 115515, Note_off_c, 0, 59, 0
3, 115561, Note_on_c, 0, 82, 68
3, 115562, Note_on_c, 0, 64, 76
3, 115563, Note_on_c, 0, 85, 74
3, 115568, Note_on_c, 0, 56, 41
3, 115572, Note_on_c, 0, 59, 53
3, 115582, Note_off_c, 0, 84, 0
3, 115586, Note_off_c, 0, 81, 0
3, 115592, Note_off_c, 0, 63, 0
3, 115631, Note_off_c, 0, 66, 0
3, 115753, Note_on_c, 0, 86, 74
3, 115753, Note_on_c, 0, 83, 60
3, 115769, Note_off_c, 0, 85, 0
3, 115770, Note_off_c, 0, 82, 0
3, 115898, Note_off_c, 0, 59, 0
3, 115898, Note_off_c, 0, 64, 0
3, 115903, Note_off_c, 0, 56, 0
3, 115933, Note_on_c, 0, 87, 56
3, 115933, Note_on_c, 0, 84, 68
3, 115939, Note_on_c, 0, 64, 80
3, 115949, Note_on_c, 0, 56, 53
3, 115952, Note_on_c, 0, 59, 60
3, 115953, Note_off_c, 0, 86, 0
3, 115955, Note_off_c, 0, 83, 0
3, 116124, Note_on_c, 0, 85, 51
3, 116125, Note_on_c, 0, 88, 70
3, 116144, Note_off_c, 0, 84, 0
3, 116144, Note_off_c, 0, 87, 0
3, 116262, Note_off_c, 0, 59, 0
3, 116278, Note_off_c, 0, 56, 0
3, 116311, Note_on_c, 0, 56, 45
3, 116314, Note_on_c, 0, 63, 64
3, 116317, Note_on_c, 0, 89, 62
3, 116318, Note_on_c, 0, 59, 54
3, 116323, Note_on_c, 0, 86, 54
3, 116329, Note_off_c, 0, 88, 0
3, 116339, Note_off_c, 0, 85, 0
3, 116367, Note_off_c, 0, 64, 0
3, 116512, Note_on_c, 0, 87, 72
3, 116514, Note_on_c, 0, 90, 78
3, 116533, Note_off_c, 0, 86, 0
3, 116533, Note_off_c, 0, 89, 0
3, 116620, Note_off_c, 0, 59, 0
3, 116637, Note_off_c, 0, 63, 0
3, 116637, Note_off_c, 0, 56, 0
3, 116686, Note_on_c, 0, 63, 78
3, 116693, Note_on_c, 0, 56, 54
3, 116698, Note_on_c, 0, 59, 68
3, 116714, Note_on_c, 0, 91, 76
3, 116714, Note_on_c, 0, 88, 60
3, 116732, Note_off_c, 0, 87, 0
3, 116735, Note_off_c, 0, 90, 0
3, 116897, Note_on_c, 0, 92, 58
3, 116897, Note_on_c, 0, 89, 74
3, 116915, Note_off_c, 0, 91, 0
3, 116918, Note_off_c, 0, 88, 0
3, 116964, Note_off_c, 0, 56, 0
3, 117064, Note_on_c, 0, 56, 46
3, 117066, Note_on_c, 0, 51, 41
3, 117067, Note_on_c, 0, 61, 74
3, 117085, Note_on_c, 0, 90, 68
3, 117085, Note_on_c, 0, 93, 78
3, 117107, Note_off_c, 0, 92, 0
3, 117110, Note_off_c, 0, 89, 0
3, 117123, Note_off_c, 0, 59, 0
3, 117123, Note_off_c, 0, 63, 0
3, 117282, Note_on_c, 0, 94, 68
3, 117284, Note_on_c, 0, 91, 74
3, 117303, Note_off_c, 0, 90, 0
3, 117307, Note_off_c, 0, 93, 0
3, 117403, Note_off_c, 0, 56, 0
3, 117408, Note_off_c, 0, 51, 0
3, 117410, Note_off_c, 0, 61, 0
3, 117457, Note_on_c, 0, 51, 24
3, 117459, Note_on_c, 0, 61, 74
3, 117462, Note_on_c, 0, 56, 39
3, 117492, Note_off_c, 0, 91, 0
3, 117494, Note_off_c, 0, 94, 0
3, 117501, Note_on_c, 0, 92, 62
3, 117501, Note_on_c, 0, 95, 72
3, 117649, Note_off_c, 0, 92, 0
3, 117651, Note_off_c, 0, 95, 0
3, 117779, Note_off_c, 0, 51, 0
3, 117783, Note_off_c, 0, 56, 0
3, 117852, Note_on_c, 0, 51, 35
3, 117856, Note_on_c, 0, 59, 80
3, 117856, Note_on_c, 0, 56, 42
3, 117895, Control_c, 0, 10, 64
3, 117913, Note_off_c, 0, 61, 0
3, 118166, Note_off_c, 0, 56, 0
3, 118169, Note_off_c, 0, 59, 0
3, 118174, Note_off_c, 0, 51, 0
3, 118222, Note_on_c, 0, 59, 78
3, 118229, Note_on_c, 0, 51, 80
3, 118233, Note_on_c, 0, 56, 66
3, 118519, Note_off_c, 0, 56, 0
3, 118594, Note_on_c, 0, 56, 45
3, 118600, Note_on_c, 0, 49, 50
3, 118601, Note_on_c, 0, 58, 82
3, 118666, Note_off_c, 0, 59, 0
3, 118919, Note_off_c, 0, 56, 0
3, 118925, Note_off_c, 0, 51, 0
3, 118927, Note_off_c, 0, 49, 0
3, 118932, Note_off_c, 0, 58, 0
3, 118967, Note_on_c, 0, 58, 66
3, 118979, Note_on_c, 0, 51, 54
3, 118982, Note_on_c, 0, 56, 48
3, 118982, Note_on_c, 0, 49, 46
3, 119312, Note_off_c, 0, 56, 0
3, 119324, Note_off_c, 0, 49, 0
3, 119331, Note_off_c, 0, 51, 0
3, 119403, Note_on_c, 0, 51, 26
3, 119410, Note_on_c, 0, 47, 60
3, 119414, Note_on_c, 0, 56, 51
3, 119461, Note_off_c, 0, 58, 0
3, 119662, Note_off_c, 0, 47, 0
3, 119668, Note_off_c, 0, 51, 0
3, 119833, Note_on_c, 0, 44, 45
3, 119844, Note_off_c, 0, 56, 0
3, 120184, Note_on_c, 0, 51, 58
3, 120214, Note_off_c, 0, 44, 0
3, 120553, Note_on_c, 0, 60, 60
3, 120592, Note_off_c, 0, 51, 0
3, 120910, Note_off_c, 0, 60, 0
3, 120924, Note_on_c, 0, 43, 64
3, 121296, Note_on_c, 0, 44, 68
3, 121338, Note_off_c, 0, 43, 0
3, 121714, Note_on_c, 0, 51, 47
3, 121759, Note_off_c, 0, 44, 0
3, 122105, Note_on_c, 0, 60, 60
3, 122169, Note_off_c, 0, 51, 0
3, 122449, Note_off_c, 0, 60, 0
3, 122475, Note_on_c, 0, 39, 68
3, 122860, Note_on_c, 0, 44, 66
3, 122910, Note_off_c, 0, 39, 0
3, 123253, Note_on_c, 0, 51, 76
3, 123291, Note_off_c, 0, 44, 0
3, 123629, Note_on_c, 0, 60, 76
3, 123666, Note_off_c, 0, 51, 0
3, 123963, Note_off_c, 0, 60, 0
3, 124012, Note_on_c, 0, 49, 74
3, 124391, Note_on_c, 0, 48, 82
3, 124433, Note_off_c, 0, 49, 0
3, 124781, Note_on_c, 0, 51, 70
3, 124799, Note_off_c, 0, 48, 0
3, 125152, Note_on_c, 0, 60, 78
3, 125203, Note_off_c, 0, 51, 0
3, 125452, Note_off_c, 0, 60, 0
3, 125534, Note_on_c, 0, 39, 80
3, 125950, Note_on_c, 0, 44, 90
3, 125985, Note_off_c, 0, 39, 0
3, 126196, Note_off_c, 0, 44, 0
3, 126319, Note_on_c, 0, 68, 54
3, 126321, Note_on_c, 0, 75, 72
3, 126322, Note_on_c, 0, 66, 46
3, 126591, Note_off_c, 0, 68, 0
3, 126597, Note_off_c, 0, 66, 0
3, 126599, Note_off_c, 0, 75, 0
3, 126682, Note_on_c, 0, 68, 80
3, 126683, Note_on_c, 0, 66, 54
3, 126686, Note_on_c, 0, 75, 80
3, 127002, Note_off_c, 0, 68, 0
3, 127036, Note_off_c, 0, 66, 0
3, 127070, Note_on_c, 0, 73, 54
3, 127071, Note_on_c, 0, 64, 62
3, 127074, Note_on_c, 0, 68, 74
3, 127124, Note_off_c, 0, 75, 0
3, 127394, Note_off_c, 0, 68, 0
3, 127400, Note_off_c, 0, 64, 0
3, 127404, Note_off_c, 0, 73, 0
3, 127454, Note_on_c, 0, 68, 74
3, 127457, Note_on_c, 0, 73, 70
3, 127464, Note_on_c, 0, 64, 76
3, 127801, Note_off_c, 0, 73, 0
3, 127860, Note_on_c, 0, 66, 45
3, 127860, Note_on_c, 0, 72, 74
3, 127862, Note_on_c, 0, 63, 54
3, 127865, Note_off_c, 0, 68, 0
3, 127879, Note_off_c, 0, 64, 0
3, 128187, Note_off_c, 0, 63, 0
3, 128188, Note_off_c, 0, 72, 0
3, 128191, Note_off_c, 0, 66, 0
3, 128236, Note_on_c, 0, 72, 72
3, 128239, Note_on_c, 0, 63, 58
3, 128598, Note_on_c, 0, 69, 80
3, 128598, Note_on_c, 0, 66, 51
3, 128602, Note_on_c, 0, 64, 60
3, 128641, Note_on_c, 0, 61, 51
3, 128642, Note_off_c, 0, 72, 0
3, 128645, Note_off_c, 0, 66, 0
3, 128657, Note_off_c, 0, 63, 0
3, 128909, Note_off_c, 0, 69, 0
3, 128943, Note_off_c, 0, 61, 0
3, 128948, Note_off_c, 0, 64, 0
3, 128985, Note_on_c, 0, 60, 53
3, 128985, Note_on_c, 0, 63, 41
3, 128988, Note_on_c, 0, 69, 86
3, 129334, Note_off_c, 0, 63, 0
3, 129351, Note_off_c, 0, 60, 0
3, 129417, Note_on_c, 0, 60, 66
3, 129423, Note_on_c, 0, 68, 70
3, 129437, Note_on_c, 0, 63, 35
3, 129470, Note_off_c, 0, 69, 0
3, 129723, Note_off_c, 0, 60, 0
3, 129734, Note_off_c, 0, 63, 0
3, 129734, Note_off_c, 0, 68, 0
3, 129777, Note_on_c, 0, 68, 84
3, 129781, Note_on_c, 0, 60, 72
3, 129782, Note_on_c, 0, 63, 48
3, 130108, Note_off_c, 0, 63, 0
3, 130144, Note_on_c, 0, 61, 48
3, 130145, Note_on_c, 0, 57, 56
3, 130148, Note_on_c, 0, 66, 78
3, 130170, Note_off_c, 0, 60, 0
3, 130210, Note_off_c, 0, 68, 0
3, 130479, Note_off_c, 0, 57, 0
3, 130486, Note_off_c, 0, 61, 0
3, 130494, Note_off_c, 0, 66, 0
3, 130529, Note_on_c, 0, 66, 84
3, 130535, Note_on_c, 0, 57, 76
3, 130535, Note_on_c, 0, 61, 54
3, 130819, Note_off_c, 0, 61, 0
3, 130916, Note_on_c, 0, 61, 47
3, 130916, Note_on_c, 0, 64, 66
3, 130920, Note_on_c, 0, 56, 43
3, 130933, Note_off_c, 0, 57, 0
3, 130965, Note_off_c, 0, 66, 0
3, 131235, Note_off_c, 0, 56, 0
3, 131246, Note_off_c, 0, 61, 0
3, 131247, Note_off_c, 0, 64, 0
3, 131305, Note_on_c, 0, 61, 60
3, 131305, Note_on_c, 0, 64, 70
3, 131306, Note_on_c, 0, 56, 51
3, 131628, Note_off_c, 0, 56, 0
3, 131673, Note_on_c, 0, 56, 28
3, 131674, Note_on_c, 0, 63, 78
3, 131677, Note_on_c, 0, 54, 44
3, 131705, Note_off_c, 0, 64, 0
3, 131717, Note_off_c, 0, 61, 0
3, 131998, Note_off_c, 0, 54, 0
3, 131999, Note_off_c, 0, 56, 0
3, 132005, Note_off_c, 0, 63, 0
3, 144384, Control_c, 0, 10, 64
3, 145176, Note_on_c, 0, 93, 88
3, 145178, Note_on_c, 0, 90, 80
3, 145341, Note_off_c, 0, 93, 0
3, 145349, Note_off_c, 0, 90, 0
3, 145354, Note_on_c, 0, 92, 49
3, 145358, Note_on_c, 0, 88, 72
3, 145538, Note_on_c, 0, 90, 60
3, 145538, Note_on_c, 0, 86, 62
3, 145563, Note_off_c, 0, 88, 0
3, 145570, Note_off_c, 0, 92, 0
3, 145601, Note_off_c, 0, 90, 0
3, 145714, Note_on_c, 0, 85, 53
3, 145715, Note_off_c, 0, 86, 0
3, 145719, Note_on_c, 0, 88, 60
3, 145911, Note_off_c, 0, 88, 0
3, 145922, Note_off_c, 0, 85, 0
3, 145923, Note_on_c, 0, 86, 81
3, 145923, Note_on_c, 0, 83, 81
3, 146098, Note_on_c, 0, 81, 52
3, 146100, Note_on_c, 0, 85, 64
3, 146124, Note_off_c, 0, 86, 0
3, 146128, Note_off_c, 0, 83, 0
3, 146174, Note_off_c, 0, 85, 0
3, 146296, Note_on_c, 0, 80, 53
3, 146298, Note_off_c, 0, 81, 0
3, 146299, Note_on_c, 0, 83, 64
3, 146485, Note_on_c, 0, 78, 50
3, 146487, Note_on_c, 0, 81, 54
3, 146511, Note_off_c, 0, 80, 0
3, 146530, Note_off_c, 0, 83, 0
3, 146662, Note_on_c, 0, 80, 54
3, 146667, Note_on_c, 0, 76, 62
3, 146692, Note_off_c, 0, 81, 0
3, 146692, Note_off_c, 0, 78, 0
3, 146770, Note_off_c, 0, 76, 0
3, 146855, Note_on_c, 0, 78, 56
3, 146859, Note_on_c, 0, 74, 64
3, 146896, Note_off_c, 0, 80, 0
3, 146942, Note_off_c, 0, 78, 0
3, 147039, Note_on_c, 0, 73, 62
3, 147040, Note_off_c, 0, 74, 0
3, 147042, Note_on_c, 0, 76, 56
3, 147048, Note_on_c, 0, 75, 39
3, 147090, Note_off_c, 0, 75, 0
3, 147234, Note_on_c, 0, 74, 68
3, 147234, Note_on_c, 0, 71, 68
3, 147260, Note_off_c, 0, 73, 0
3, 147270, Note_off_c, 0, 76, 0
3, 147409, Note_on_c, 0, 69, 49
3, 147410, Note_on_c, 0, 73, 72
3, 147439, Note_off_c, 0, 71, 0
3, 147439, Note_off_c, 0, 74, 0
3, 147490, Note_off_c, 0, 73, 0
3, 147608, Note_on_c, 0, 68, 45
3, 147613, Note_on_c, 0, 71, 53
3, 147618, Note_off_c, 0, 69, 0
3, 147795, Note_on_c, 0, 69, 58
3, 147801, Note_on_c, 0, 66, 46
3, 147829, Note_off_c, 0, 68, 0
3, 147831, Note_off_c, 0, 71, 0
3, 147987, Note_on_c, 0, 68, 66
3, 147988, Note_on_c, 0, 64, 58
3, 148017, Note_off_c, 0, 69, 0
3, 148021, Note_off_c, 0, 66, 0
3, 148083, Note_off_c, 0, 64, 0
3, 148164, Note_on_c, 0, 66, 58
3, 148168, Note_on_c, 0, 62, 51
3, 148210, Note_off_c, 0, 68, 0
3, 148264, Note_off_c, 0, 66, 0
3, 148356, Note_on_c, 0, 61, 64
3, 148358, Note_on_c, 0, 64, 71
3, 148359, Note_off_c, 0, 62, 0
3, 148552, Note_on_c, 0, 62, 71
3, 148553, Note_on_c, 0, 59, 87
3, 148586, Note_off_c, 0, 61, 0
3, 148594, Note_off_c, 0, 64, 0
3, 148763, Note_on_c, 0, 61, 94
3, 148763, Note_on_c, 0, 57, 94
3, 148793, Note_off_c, 0, 59, 0
3, 148793, Note_off_c, 0, 62, 0
3, 148855, Note_off_c, 0, 57, 0
3, 148984, Note_on_c, 0, 59, 96
3, 148987, Note_on_c, 0, 56, 74
3, 149007, Note_off_c, 0, 61, 0
3, 149715, Note_off_c, 0, 59, 0
3, 149742, Note_off_c, 0, 56, 0
3, 149785, Note_on_c, 0, 58, 74
3, 149785, Note_on_c, 0, 55, 78
3, 150513, Note_off_c, 0, 55, 0
3, 150519, Note_off_c, 0, 58, 0
3, 150542, Note_on_c, 0, 56, 78
3, 150841, Note_off_c, 0, 56, 0
3, 151132, Control_c, 0, 10, 64
3, 151306, Note_on_c, 0, 75, 50
3, 151307, Note_on_c, 0, 71, 64
3, 151491, Note_on_c, 0, 73, 48
3, 151494, Note_on_c, 0, 76, 64
3, 151502, Note_off_c, 0, 75, 0
3, 151510, Note_off_c, 0, 71, 0
3, 151687, Note_on_c, 0, 71, 60
3, 151687, Note_on_c, 0, 75, 48
3, 151704, Note_off_c, 0, 76, 0
3, 151717, Note_off_c, 0, 73, 0
3, 151873, Note_on_c, 0, 73, 37
3, 151875, Note_on_c, 0, 76, 54
3, 151895, Note_off_c, 0, 75, 0
3, 151901, Note_off_c, 0, 71, 0
3, 152050, Note_on_c, 0, 75, 47
3, 152052, Note_on_c, 0, 71, 66
3, 152068, Note_off_c, 0, 76, 0
3, 152082, Note_off_c, 0, 73, 0
3, 152246, Note_on_c, 0, 73, 47
3, 152249, Note_on_c, 0, 76, 62
3, 152262, Note_off_c, 0, 75, 0
3, 152271, Note_off_c, 0, 71, 0
3, 152444, Note_on_c, 0, 75, 47
3, 152444, Note_on_c, 0, 71, 58
3, 152467, Note_off_c, 0, 76, 0
3, 152472, Note_off_c, 0, 73, 0
3, 152625, Note_on_c, 0, 73, 45
3, 152627, Note_on_c, 0, 76, 68
3, 152648, Note_off_c, 0, 71, 0
3, 152649, Note_off_c, 0, 75, 0
3, 152828, Note_on_c, 0, 75, 44
3, 152829, Note_on_c, 0, 71, 54
3, 152848, Note_off_c, 0, 76, 0
3, 152857, Note_off_c, 0, 73, 0
3, 153021, Note_on_c, 0, 73, 48
3, 153022, Note_on_c, 0, 76, 66
3, 153045, Note_off_c, 0, 75, 0
3, 153047, Note_off_c, 0, 71, 0
3, 153219, Note_on_c, 0, 75, 50
3, 153221, Note_on_c, 0, 71, 56
3, 153239, Note_off_c, 0, 76, 0
3, 153253, Note_off_c, 0, 73, 0
3, 153404, Note_on_c, 0, 73, 53
3, 153408, Note_on_c, 0, 76, 54
3, 153432, Note_off_c, 0, 75, 0
3, 153459, Note_off_c, 0, 71, 0
3, 153513, Note_off_c, 0, 73, 0
3, 153573, Note_off_c, 0, 76, 0
3, 153606, Note_on_c, 0, 75, 46
3, 153607, Note_on_c, 0, 78, 71
3, 153802, Note_on_c, 0, 80, 42
3, 153804, Note_on_c, 0, 76, 64
3, 153823, Note_off_c, 0, 78, 0
3, 153825, Note_off_c, 0, 75, 0
3, 154005, Note_on_c, 0, 78, 70
3, 154028, Note_off_c, 0, 76, 0
3, 154028, Note_on_c, 0, 75, 64
3, 154038, Note_off_c, 0, 80, 0
3, 154196, Note_on_c, 0, 80, 46
3, 154204, Note_on_c, 0, 76, 66
3, 154220, Note_off_c, 0, 75, 0
3, 154223, Note_off_c, 0, 78, 0
3, 154387, Note_on_c, 0, 78, 74
3, 154391, Note_on_c, 0, 75, 70
3, 154412, Note_off_c, 0, 76, 0
3, 154418, Note_off_c, 0, 80, 0
3, 154563, Note_on_c, 0, 80, 43
3, 154569, Note_on_c, 0, 76, 66
3, 154589, Note_off_c, 0, 78, 0
3, 154590, Note_off_c, 0, 75, 0
3, 154751, Note_on_c, 0, 75, 54
3, 154753, Note_on_c, 0, 78, 56
3, 154774, Note_off_c, 0, 76, 0
3, 154782, Note_off_c, 0, 80, 0
3, 154940, Note_on_c, 0, 80, 41
3, 154943, Note_on_c, 0, 76, 64
3, 154961, Note_off_c, 0, 78, 0
3, 154962, Note_off_c, 0, 75, 0
3, 155128, Note_on_c, 0, 78, 66
3, 155130, Note_on_c, 0, 75, 60
3, 155154, Note_off_c, 0, 76, 0
3, 155160, Note_off_c, 0, 80, 0
3, 155310, Note_on_c, 0, 80, 42
3, 155318, Note_on_c, 0, 76, 66
3, 155332, Note_off_c, 0, 78, 0
3, 155336, Note_off_c, 0, 75, 0
3, 155497, Note_on_c, 0, 75, 52
3, 155498, Note_on_c, 0, 78, 54
3, 155520, Note_off_c, 0, 76, 0
3, 155528, Note_off_c, 0, 80, 0
3, 155690, Note_on_c, 0, 80, 41
3, 155692, Note_on_c, 0, 76, 60
3, 155714, Note_off_c, 0, 78, 0
3, 155714, Note_off_c, 0, 75, 0
3, 155883, Note_on_c, 0, 78, 58
3, 155883, Note_on_c, 0, 75, 53
3, 155906, Note_off_c, 0, 76, 0
3, 155916, Note_off_c, 0, 80, 0
3, 156076, Note_on_c, 0, 80, 43
3, 156079, Note_on_c, 0, 76, 62
3, 156098, Note_off_c, 0, 78, 0
3, 156101, Note_off_c, 0, 75, 0
3, 156270, Note_on_c, 0, 75, 44
3, 156273, Note_on_c, 0, 78, 50
3, 156295, Note_off_c, 0, 76, 0
3, 156304, Note_off_c, 0, 80, 0
3, 156451, Note_on_c, 0, 80, 28
3, 156457, Note_off_c, 0, 78, 0
3, 156468, Note_on_c, 0, 76, 47
3, 156512, Note_off_c, 0, 75, 0
3, 156641, Note_off_c, 0, 80, 0
3, 156653, Note_on_c, 0, 78, 37
3, 156660, Note_on_c, 0, 81, 62
3, 156670, Note_off_c, 0, 76, 0
3, 156846, Note_off_c, 0, 81, 0
3, 156848, Note_on_c, 0, 77, 56
3, 156849, Note_on_c, 0, 80, 46
3, 156855, Note_on_c, 0, 81, 42
3, 156868, Note_off_c, 0, 78, 0
3, 156879, Note_off_c, 0, 81, 0
3, 156992, Note_off_c, 0, 77, 0
3, 157034, Note_on_c, 0, 79, 60
3, 157037, Note_on_c, 0, 76, 58
3, 157059, Note_off_c, 0, 80, 0
3, 157221, Note_on_c, 0, 75, 42
3, 157225, Note_on_c, 0, 78, 50
3, 157238, Note_off_c, 0, 76, 0
3, 157245, Note_off_c, 0, 79, 0
3, 157423, Note_on_c, 0, 77, 66
3, 157426, Note_on_c, 0, 74, 62
3, 157443, Note_off_c, 0, 75, 0
3, 157445, Note_off_c, 0, 78, 0
3, 157620, Note_on_c, 0, 73, 37
3, 157621, Note_on_c, 0, 76, 76
3, 157643, Note_off_c, 0, 74, 0
3, 157646, Note_off_c, 0, 77, 0
3, 157808, Note_on_c, 0, 77, 68
3, 157812, Note_on_c, 0, 74, 70
3, 157822, Note_off_c, 0, 76, 0
3, 157830, Note_off_c, 0, 73, 0
3, 157997, Note_on_c, 0, 78, 64
3, 157997, Note_on_c, 0, 75, 60
3, 158012, Note_off_c, 0, 77, 0
3, 158020, Note_off_c, 0, 74, 0
3, 158198, Note_on_c, 0, 79, 72
3, 158200, Note_on_c, 0, 76, 58
3, 158217, Note_off_c, 0, 75, 0
3, 158221, Note_off_c, 0, 78, 0
3, 158381, Note_on_c, 0, 78, 51
3, 158381, Note_on_c, 0, 75, 46
3, 158399, Note_off_c, 0, 76, 0
3, 158406, Note_off_c, 0, 79, 0
3, 158582, Note_on_c, 0, 77, 68
3, 158583, Note_on_c, 0, 74, 62
3, 158606, Note_off_c, 0, 75, 0
3, 158609, Note_off_c, 0, 78, 0
3, 158769, Note_on_c, 0, 76, 72
3, 158772, Note_on_c, 0, 73, 41
3, 158790, Note_off_c, 0, 77, 0
3, 158800, Note_off_c, 0, 74, 0
3, 158958, Note_on_c, 0, 75, 43
3, 158965, Note_on_c, 0, 72, 54
3, 158975, Note_off_c, 0, 76, 0
3, 158998, Note_off_c, 0, 73, 0
3, 159117, Note_off_c, 0, 72, 0
3, 159139, Note_off_c, 0, 75, 0
3, 159151, Note_on_c, 0, 71, 56
3, 159151, Note_on_c, 0, 74, 64
3, 159341, Note_off_c, 0, 71, 0
3, 159341, Note_on_c, 0, 72, 52
3, 159343, Note_on_c, 0, 75, 49
3, 159363, Note_off_c, 0, 74, 0
3, 159513, Note_off_c, 0, 72, 0
3, 159518, Note_off_c, 0, 75, 0
3, 159523, Note_on_c, 0, 73, 43
3, 159529, Note_on_c, 0, 76, 68
3, 159686, Note_off_c, 0, 76, 0
3, 159694, Note_off_c, 0, 73, 0
3, 159723, Note_on_c, 0, 74, 62
3, 159725, Note_on_c, 0, 77, 66
3, 159902, Note_off_c, 0, 77, 0
3, 159914, Note_on_c, 0, 73, 47
3, 159915, Note_on_c, 0, 76, 62
3, 159933, Note_off_c, 0, 74, 0
3, 160117, Note_on_c, 0, 72, 56
3, 160119, Note_on_c, 0, 75, 52
3, 160128, Note_off_c, 0, 73, 0
3, 160134, Note_off_c, 0, 76, 0
3, 160190, Note_off_c, 0, 72, 0
3, 160310, Note_on_c, 0, 71, 53
3, 160312, Note_on_c, 0, 74, 68
3, 160335, Note_off_c, 0, 75, 0
3, 160495, Note_on_c, 0, 73, 60
3, 160497, Note_on_c, 0, 70, 48
3, 160519, Note_off_c, 0, 74, 0
3, 160520, Note_off_c, 0, 71, 0
3, 160686, Note_on_c, 0, 72, 66
3, 160687, Note_on_c, 0, 69, 53
3, 160715, Note_off_c, 0, 70, 0
3, 160719, Note_off_c, 0, 73, 0
3, 160818, Note_off_c, 0, 69, 0
3, 160870, Note_on_c, 0, 67, 51
3, 160872, Note_on_c, 0, 71, 80
3, 160900, Note_off_c, 0, 72, 0
3, 161068, Note_on_c, 0, 73, 45
3, 161071, Note_on_c, 0, 69, 68
3, 161092, Note_off_c, 0, 67, 0
3, 161093, Note_off_c, 0, 71, 0
3, 161269, Note_on_c, 0, 67, 58
3, 161274, Note_on_c, 0, 71, 70
3, 161299, Note_off_c, 0, 69, 0
3, 161307, Note_off_c, 0, 73, 0
3, 161458, Note_on_c, 0, 73, 43
3, 161465, Note_on_c, 0, 69, 62
3, 161490, Note_off_c, 0, 71, 0
3, 161491, Note_off_c, 0, 67, 0
3, 161651, Note_on_c, 0, 71, 62
3, 161652, Note_on_c, 0, 67, 49
3, 161678, Note_off_c, 0, 73, 0
3, 161679, Note_off_c, 0, 69, 0
3, 161840, Note_on_c, 0, 73, 39
3, 161844, Note_on_c, 0, 69, 56
3, 161868, Note_off_c, 0, 71, 0
3, 162039, Note_off_c, 0, 67, 0
3, 162039, Note_on_c, 0, 67, 50
3, 162040, Note_on_c, 0, 71, 72
3, 162063, Note_off_c, 0, 69, 0
3, 162076, Note_off_c, 0, 73, 0
3, 162218, Note_on_c, 0, 73, 43
3, 162224, Note_on_c, 0, 69, 66
3, 162244, Note_off_c, 0, 71, 0
3, 162244, Note_off_c, 0, 67, 0
3, 162388, Note_off_c, 0, 69, 0
3, 162406, Note_on_c, 0, 71, 70
3, 162409, Note_on_c, 0, 66, 48
3, 162546, Note_off_c, 0, 66, 0
3, 162546, Note_off_c, 0, 73, 0
3, 162597, Note_on_c, 0, 69, 78
3, 162601, Note_on_c, 0, 64, 49
3, 162617, Note_off_c, 0, 71, 0
3, 162720, Note_off_c, 0, 69, 0
3, 162803, Note_on_c, 0, 63, 49
3, 162803, Note_on_c, 0, 68, 58
3, 162828, Note_off_c, 0, 64, 0
3, 163144, Note_off_c, 0, 63, 0
3, 163149, Note_off_c, 0, 68, 0
3, 185856, Control_c, 0, 10, 64
3, 194731, Control_c, 0, 64, 127
3, 194755, Note_on_c, 0, 39, 92
3, 195006, Note_off_c, 0, 39, 0
3, 195596, Note_on_c, 0, 55, 68
3, 195889, Note_on_c, 0, 61, 68
3, 196122, Note_on_c, 0, 63, 76
3, 196427, Note_on_c, 0, 70, 94
3, 198116, Note_off_c, 0, 55, 0
3, 198247, Note_off_c, 0, 61, 0
3, 198262, Note_off_c, 0, 63, 0
3, 198287, Note_off_c, 0, 70, 0
3, 200338, Note_on_c, 0, 51, 51
3, 200340, Note_on_c, 0, 63, 47
3, 200340, Note_on_c, 0, 44, 47
3, 200343, Note_on_c, 0, 56, 46
3, 200343, Note_on_c, 0, 72, 70
3, 200389, Note_on_c, 0, 60, 56
3, 200489, Control_c, 0, 64, 0
3, 205568, Control_c, 0, 64, 127
3, 206878, Note_off_c, 0, 60, 0
3, 206900, Control_c, 0, 64, 0
3, 206960, Note_off_c, 0, 72, 0
3, 206960, Note_off_c, 0, 51, 0
3, 206972, Note_off_c, 0, 63, 0
3, 206979, Note_off_c, 0, 44, 0
3, 206994, Note_off_c, 0, 56, 0
3, 207979, End_track
4, 0, Start_track
4, 0, Title_t, "Walsingham"
4, 3072, Control_c, 0, 10, 64
4, 9173, Note_on_c, 0, 44, 48
4, 9555, Note_on_c, 0, 51, 48
4, 9595, Note_off_c, 0, 44, 0
4, 9955, Note_on_c, 0, 59, 54
4, 10017, Note_off_c, 0, 51, 0
4, 10201, Note_off_c, 0, 59, 0
4, 10343, Note_on_c, 0, 43, 66
4, 10691, Note_on_c, 0, 44, 47
4, 10729, Note_off_c, 0, 43, 0
4, 11086, Note_on_c, 0, 51, 37
4, 11120, Note_off_c, 0, 44, 0
4, 11465, Note_on_c, 0, 59, 58
4, 11509, Note_off_c, 0, 51, 0
4, 11696, Note_off_c, 0, 59, 0
4, 11860, Note_on_c, 0, 39, 54
4, 12223, Note_on_c, 0, 44, 43
4, 12271, Note_off_c, 0, 39, 0
4, 12626, Note_on_c, 0, 51, 51
4, 12673, Note_off_c, 0, 44, 0
4, 13023, Note_on_c, 0, 59, 76
4, 13067, Note_off_c, 0, 51, 0
4, 13255, Note_off_c, 0, 59, 0
4, 13398, Note_on_c, 0, 49, 56
4, 13766, Note_on_c, 0, 47, 80
4, 13802, Note_off_c, 0, 49, 0
4, 14155, Note_on_c, 0, 51, 60
4, 14183, Note_off_c, 0, 47, 0
4, 14551, Note_on_c, 0, 59, 68
4, 14590, Note_off_c, 0, 51, 0
4, 14789, Note_off_c, 0, 59, 0
4, 14929, Note_on_c, 0, 39, 86
4, 15163, Note_off_c, 0, 39, 0
4, 15309, Note_on_c, 0, 44, 90
4, 15544, Note_off_c, 0, 44, 0
4, 15691, Note_on_c, 0, 68, 54
4, 15692, Note_on_c, 0, 63, 51
4, 15697, Note_on_c, 0, 59, 70
4, 15968, Note_off_c, 0, 59, 0
4, 15986, Note_off_c, 0, 68, 0
4, 15987, Note_off_c, 0, 63, 0
4, 16116, Note_on_c, 0, 63, 62
4, 16117, Note_on_c, 0, 68, 74
4, 16120, Note_on_c, 0, 59, 84
4, 16388, Note_off_c, 0, 59, 0
4, 16395, Note_off_c, 0, 63, 0
4, 16465, Note_on_c, 0, 63, 70
4, 16467, Note_on_c, 0, 66, 62
4, 16470, Note_on_c, 0, 59, 80
4, 16511, Note_off_c, 0, 68, 0
4, 16773, Note_off_c, 0, 63, 0
4, 16776, Note_off_c, 0, 66, 0
4, 16790, Note_off_c, 0, 59, 0
4, 16863, Note_on_c, 0, 63, 51
4, 16866, Note_on_c, 0, 59, 76
4, 16866, Note_on_c, 0, 66, 54
4, 17023, Note_off_c, 0, 59, 0
4, 17130, Note_off_c, 0, 63, 0
4, 17231, Note_on_c, 0, 59, 74
4, 17233, Note_on_c, 0, 64, 78
4, 17233, Note_on_c, 0, 56, 39
4, 17276, Note_off_c, 0, 66, 0
4, 17508, Note_off_c, 0, 59, 0
4, 17513, Note_off_c, 0, 56, 0
4, 17523, Note_off_c, 0, 64, 0
4, 17634, Note_on_c, 0, 59, 88
4, 17635, Note_on_c, 0, 56, 49
4, 17635, Note_on_c, 0, 64, 80
4, 17923, Note_off_c, 0, 59, 0
4, 17933, Note_off_c, 0, 56, 0
4, 18027, Note_on_c, 0, 59, 78
4, 18027, Note_on_c, 0, 56, 47
4, 18028, Note_on_c, 0, 63, 46
4, 18056, Note_off_c, 0, 64, 0
4, 18272, Note_off_c, 0, 59, 0
4, 18303, Note_off_c, 0, 63, 0
4, 18327, Note_off_c, 0, 56, 0
4, 18392, Note_on_c, 0, 63, 62
4, 18393, Note_on_c, 0, 59, 94
4, 18394, Note_on_c, 0, 56, 53
4, 18583, Note_off_c, 0, 56, 0
4, 18678, Note_off_c, 0, 63, 0
4, 18766, Note_on_c, 0, 61, 48
4, 18767, Note_on_c, 0, 56, 53
4, 18770, Note_off_c, 0, 59, 0
4, 18770, Note_on_c, 0, 51, 64
4, 19068, Note_off_c, 0, 56, 0
4, 19073, Note_off_c, 0, 61, 0
4, 19074, Note_off_c, 0, 51, 0
4, 19153, Note_on_c, 0, 61, 76
4, 19154, Note_on_c, 0, 56, 88
4, 19157, Note_on_c, 0, 51, 78
4, 19418, Note_off_c, 0, 56, 0
4, 19430, Note_off_c, 0, 51, 0
4, 19539, Note_on_c, 0, 51, 48
4, 19539, Note_on_c, 0, 56, 50
4, 19577, Note_off_c, 0, 61, 0
4, 19577, Note_on_c, 0, 59, 84
4, 19864, Note_off_c, 0, 56, 0
4, 19881, Note_off_c, 0, 59, 0
4, 19899, Note_off_c, 0, 51, 0
4, 19976, Note_on_c, 0, 56, 58
4, 19977, Note_on_c, 0, 59, 86
4, 19978, Note_on_c, 0, 51, 56
4, 20227, Note_off_c, 0, 51, 0
4, 20277, Note_off_c, 0, 56, 0
4, 20317, Note_off_c, 0, 59, 0
4, 20340, Note_on_c, 0, 51, 60
4, 20342, Note_on_c, 0, 58, 72
4, 20343, Note_on_c, 0, 49, 58
4, 20635, Note_off_c, 0, 51, 0
4, 20646, Note_off_c, 0, 49, 0
4, 20646, Note_off_c, 0, 58, 0
4, 20711, Note_on_c, 0, 51, 53
4, 20711, Note_on_c, 0, 58, 53
4, 20713, Note_on_c, 0, 49, 64
4, 20997, Note_off_c, 0, 49, 0
4, 21018, Note_off_c, 0, 51, 0
4, 21108, Note_on_c, 0, 56, 62
4, 21109, Note_on_c, 0, 51, 56
4, 21110, Note_on_c, 0, 47, 48
4, 21138, Note_off_c, 0, 58, 0
4, 21385, Note_off_c, 0, 51, 0
4, 21386, Note_off_c, 0, 47, 0
4, 21388, Note_off_c, 0, 56, 0
4, 33792, Control_c, 0, 10, 64
4, 33805, Note_on_c, 0, 51, 84
4, 33999, Note_off_c, 0, 51, 0
4, 34182, Note_on_c, 0, 61, 31
4, 34183, Note_on_c, 0, 71, 78
4, 34186, Note_on_c, 0, 63, 35
4, 34467, Note_off_c, 0, 63, 0
4, 34470, Note_off_c, 0, 71, 0
4, 34471, Note_off_c, 0, 61, 0
4, 34547, Note_on_c, 0, 71, 78
4, 34549, Note_on_c, 0, 63, 64
4, 34550, Note_on_c, 0, 61, 60
4, 34920, Note_on_c, 0, 70, 88
4, 34954, Note_off_c, 0, 71, 0
4, 35321, Note_on_c, 0, 68, 88
4, 35347, Note_off_c, 0, 70, 0
4, 35712, Note_on_c, 0, 67, 66
4, 35756, Note_off_c, 0, 68, 0
4, 35986, Note_off_c, 0, 63, 0
4, 35990, Note_off_c, 0, 61, 0
4, 36003, Note_off_c, 0, 67, 0
4, 36841, Note_on_c, 0, 44, 70
4, 37229, Note_on_c, 0, 59, 74
4, 37229, Note_on_c, 0, 51, 41
4, 37291, Note_off_c, 0, 44, 0
4, 37394, Note_off_c, 0, 51, 0
4, 37397, Note_off_c, 0, 59, 0
4, 37621, Note_on_c, 0, 46, 72
4, 37987, Note_on_c, 0, 44, 72
4, 38025, Note_off_c, 0, 46, 0
4, 38354, Note_on_c, 0, 43, 66
4, 38381, Note_off_c, 0, 44, 0
4, 38495, Note_off_c, 0, 43, 0
4, 38773, Note_on_c, 0, 63, 54
4, 38777, Note_on_c, 0, 51, 49
4, 38859, Note_off_c, 0, 51, 0
4, 38871, Note_off_c, 0, 63, 0
4, 39151, Note_on_c, 0, 44, 78
4, 39266, Note_off_c, 0, 44, 0
4, 39556, Note_on_c, 0, 63, 74
4, 39560, Note_on_c, 0, 51, 54
4, 39696, Note_off_c, 0, 51, 0
4, 39706, Note_off_c, 0, 63, 0
4, 39933, Note_on_c, 0, 39, 72
4, 40119, Note_off_c, 0, 39, 0
4, 40285, Note_on_c, 0, 49, 51
4, 40287, Note_on_c, 0, 51, 48
4, 40292, Note_on_c, 0, 59, 78
4, 40573, Note_off_c, 0, 51, 0
4, 40575, Note_off_c, 0, 59, 0
4, 40576, Note_off_c, 0, 49, 0
4, 40659, Note_on_c, 0, 59, 78
4, 40666, Note_on_c, 0, 49, 53
4, 40667, Note_on_c, 0, 51, 52
4, 41032, Note_on_c, 0, 58, 74
4, 41076, Note_off_c, 0, 59, 0
4, 41433, Note_on_c, 0, 56, 51
4, 41469, Note_off_c, 0, 58, 0
4, 41808, Note_on_c, 0, 55, 54
4, 41852, Note_off_c, 0, 56, 0
4, 42127, Note_off_c, 0, 55, 0
4, 42127, Note_off_c, 0, 51, 0
4, 42127, Note_off_c, 0, 49, 0
4, 43008, Control_c, 0, 10, 64
4, 43014, Note_on_c, 0, 44, 86
4, 43415, Note_on_c, 0, 59, 76
4, 43416, Note_on_c, 0, 51, 42
4, 43505, Note_off_c, 0, 44, 0
4, 43522, Note_off_c, 0, 59, 0
4, 43525, Note_off_c, 0, 51, 0
4, 43823, Note_on_c, 0, 46, 66
4, 44170, Note_on_c, 0, 44, 70
4, 44226, Note_off_c, 0, 46, 0
4, 44508, Note_on_c, 0, 43, 76
4, 44556, Note_off_c, 0, 44, 0
4, 44868, Note_on_c, 0, 53, 72
4, 44869, Note_on_c, 0, 59, 74
4, 44910, Note_off_c, 0, 43, 0
4, 44995, Note_off_c, 0, 53, 0
4, 44999, Note_off_c, 0, 59, 0
4, 45247, Note_on_c, 0, 45, 74
4, 45679, Note_on_c, 0, 43, 84
4, 45729, Note_off_c, 0, 45, 0
4, 46037, Note_on_c, 0, 42, 54
4, 46078, Note_off_c, 0, 43, 0
4, 46313, Note_off_c, 0, 42, 0
4, 46487, Note_on_c, 0, 54, 76
4, 46698, Note_off_c, 0, 54, 0
4, 46795, Control_c, 0, 10, 64
4, 46866, Note_on_c, 0, 75, 49
4, 46866, Note_on_c, 0, 78, 51
4, 46868, Note_on_c, 0, 83, 68
4, 47197, Note_on_c, 0, 66, 41
4, 47432, Note_off_c, 0, 83, 0
4, 47438, Note_off_c, 0, 78, 0
4, 47478, Note_off_c, 0, 75, 0
4, 47605, Note_on_c, 0, 82, 66
4, 47605, Note_on_c, 0, 73, 50
4, 47606, Note_on_c, 0, 76, 82
4, 47647, Note_off_c, 0, 66, 0
4, 47974, Note_on_c, 0, 66, 82
4, 48161, Note_off_c, 0, 76, 0
4, 48168, Note_off_c, 0, 82, 0
4, 48196, Note_off_c, 0, 73, 0
4, 48364, Note_on_c, 0, 80, 45
4, 48366, Note_on_c, 0, 75, 54
4, 48368, Note_on_c, 0, 71, 72
4, 48391, Note_off_c, 0, 66, 0
4, 48781, Note_on_c, 0, 66, 76
4, 48937, Note_on_c, 0, 78, 53
4, 48961, Note_off_c, 0, 75, 0
4, 49028, Note_off_c, 0, 80, 0
4, 49063, Note_off_c, 0, 71, 0
4, 49080, Note_off_c, 0, 66, 0
4, 49090, Note_off_c, 0, 78, 0
4, 49144, Note_on_c, 0, 78, 49
4, 49146, Note_on_c, 0, 66, 50
4, 49146, Note_on_c, 0, 70, 48
4, 49147, Note_on_c, 0, 76, 78
4, 49322, Note_off_c, 0, 76, 0
4, 49328, Note_off_c, 0, 66, 0
4, 49329, Note_off_c, 0, 70, 0
4, 49330, Note_off_c, 0, 78, 0
4, 52224, Control_c, 0, 10, 64
4, 52224, Note_on_c, 0, 47, 56
4, 52553, Note_on_c, 0, 54, 54
4, 52939, Note_on_c, 0, 59, 66
4, 53351, Note_on_c, 0, 63, 74
4, 53749, Note_on_c, 0, 49, 74
4, 53780, Note_off_c, 0, 59, 0
4, 53782, Note_off_c, 0, 47, 0
4, 53793, Note_off_c, 0, 63, 0
4, 53798, Note_off_c, 0, 54, 0
4, 54136, Note_on_c, 0, 52, 64
4, 54516, Note_on_c, 0, 58, 62
4, 54891, Note_on_c, 0, 61, 76
4, 55248, Note_on_c, 0, 51, 68
4, 55264, Note_off_c, 0, 52, 0
4, 55276, Note_off_c, 0, 58, 0
4, 55292, Note_off_c, 0, 49, 0
4, 55301, Note_off_c, 0, 61, 0
4, 55630, Note_on_c, 0, 56, 49
4, 56044, Note_on_c, 0, 59, 72
4, 56418, Note_on_c, 0, 63, 50
4, 56654, Note_off_c, 0, 51, 0
4, 56787, Note_on_c, 0, 51, 47
4, 56796, Note_off_c, 0, 59, 0
4, 56812, Note_off_c, 0, 56, 0
4, 56825, Note_off_c, 0, 63, 0
4, 57202, Note_on_c, 0, 55, 58
4, 57577, Note_on_c, 0, 61, 50
4, 57917, Note_on_c, 0, 63, 40
4, 58297, Note_off_c, 0, 51, 0
4, 58298, Note_off_c, 0, 61, 0
4, 58301, Note_off_c, 0, 63, 0
4, 58303, Note_off_c, 0, 55, 0
4, 58370, Note_on_c, 0, 44, 62
4, 58572, Control_c, 0, 10, 64
4, 58722, Note_on_c, 0, 51, 45
4, 58784, Note_off_c, 0, 44, 0
4, 59115, Note_on_c, 0, 59, 58
4, 59169, Note_off_c, 0, 51, 0
4, 59390, Note_off_c, 0, 59, 0
4, 59493, Note_on_c, 0, 43, 70
4, 59891, Note_on_c, 0, 44, 84
4, 59933, Note_off_c, 0, 43, 0
4, 60257, Note_on_c, 0, 51, 50
4, 60648, Note_on_c, 0, 59, 64
4, 60690, Note_off_c, 0, 51, 0
4, 60957, Note_off_c, 0, 44, 0
4, 60968, Note_off_c, 0, 59, 0
4, 61013, Note_on_c, 0, 39, 84
4, 61410, Note_on_c, 0, 44, 58
4, 61446, Note_off_c, 0, 39, 0
4, 61784, Note_on_c, 0, 51, 44
4, 62171, Note_on_c, 0, 59, 51
4, 62198, Note_off_c, 0, 51, 0
4, 62413, Note_off_c, 0, 44, 0
4, 62436, Note_off_c, 0, 59, 0
4, 62567, Note_on_c, 0, 49, 49
4, 62940, Note_on_c, 0, 47, 70
4, 63002, Note_off_c, 0, 49, 0
4, 63346, Note_on_c, 0, 51, 60
4, 63743, Note_on_c, 0, 59, 58
4, 63783, Note_off_c, 0, 51, 0
4, 63980, Note_off_c, 0, 59, 0
4, 63996, Note_off_c, 0, 47, 0
4, 64105, Note_on_c, 0, 39, 74
4, 64477, Note_on_c, 0, 44, 72
4, 64516, Note_off_c, 0, 39, 0
4, 64752, Note_off_c, 0, 44, 0
4, 64869, Note_on_c, 0, 68, 56
4, 64871, Note_on_c, 0, 63, 64
4, 64873, Note_on_c, 0, 59, 76
4, 65192, Note_off_c, 0, 59, 0
4, 65207, Note_off_c, 0, 63, 0
4, 65208, Note_off_c, 0, 68, 0
4, 65268, Note_on_c, 0, 68, 64
4, 65269, Note_on_c, 0, 63, 53
4, 65273, Note_on_c, 0, 59, 62
4, 65608, Note_off_c, 0, 59, 0
4, 65609, Note_off_c, 0, 63, 0
4, 65644, Note_on_c, 0, 63, 72
4, 65647, Note_on_c, 0, 66, 60
4, 65648, Note_on_c, 0, 59, 66
4, 65705, Note_off_c, 0, 68, 0
4, 65956, Note_off_c, 0, 66, 0
4, 65960, Note_off_c, 0, 63, 0
4, 65968, Note_off_c, 0, 59, 0
4, 66002, Note_on_c, 0, 63, 51
4, 66006, Note_on_c, 0, 66, 66
4, 66007, Note_on_c, 0, 59, 68
4, 66340, Note_off_c, 0, 59, 0
4, 66374, Note_off_c, 0, 66, 0
4, 66400, Note_on_c, 0, 64, 68
4, 66402, Note_on_c, 0, 56, 46
4, 66403, Note_on_c, 0, 59, 70
4, 66422, Note_off_c, 0, 63, 0
4, 66754, Note_off_c, 0, 59, 0
4, 66759, Note_off_c, 0, 56, 0
4, 66761, Note_off_c, 0, 64, 0
4, 66784, Note_on_c, 0, 64, 68
4, 66786, Note_on_c, 0, 59, 68
4, 66793, Note_on_c, 0, 56, 56
4, 67123, Note_off_c, 0, 59, 0
4, 67156, Note_on_c, 0, 56, 56
4, 67157, Note_on_c, 0, 59, 64
4, 67160, Note_on_c, 0, 63, 53
4, 67170, Note_off_c, 0, 56, 0
4, 67193, Note_off_c, 0, 64, 0
4, 67317, Note_on_c, 0, 56, 24
4, 67341, Note_off_c, 0, 56, 0
4, 67517, Note_off_c, 0, 56, 0
4, 67517, Note_off_c, 0, 59, 0
4, 67526, Note_off_c, 0, 63, 0
4, 67570, Note_on_c, 0, 59, 64
4, 67570, Note_on_c, 0, 63, 66
4, 67578, Note_on_c, 0, 56, 62
4, 67893, Note_off_c, 0, 56, 0
4, 67938, Note_on_c, 0, 56, 46
4, 67939, Note_on_c, 0, 61, 94
4, 67942, Note_on_c, 0, 51, 37
4, 67945, Note_off_c, 0, 59, 0
4, 67967, Note_off_c, 0, 63, 0
4, 68279, Note_off_c, 0, 61, 0
4, 68283, Note_off_c, 0, 51, 0
4, 68286, Note_off_c, 0, 56, 0
4, 68320, Note_on_c, 0, 61, 82
4, 68327, Note_on_c, 0, 51, 84
4, 68329, Note_on_c, 0, 56, 56
4, 68659, Note_off_c, 0, 56, 0
4, 68680, Note_off_c, 0, 51, 0
4, 68716, Note_on_c, 0, 56, 54
4, 68716, Note_on_c, 0, 59, 84
4, 68721, Note_on_c, 0, 51, 70
4, 68745, Note_off_c, 0, 61, 0
4, 69087, Note_off_c, 0, 51, 0
4, 69091, Note_off_c, 0, 59, 0
4, 69098, Note_off_c, 0, 56, 0
4, 69113, Note_on_c, 0, 56, 49
4, 69114, Note_on_c, 0, 59, 70
4, 69122, Note_on_c, 0, 51, 68
4, 69462, Note_off_c, 0, 51, 0
4, 69487, Note_on_c, 0, 51, 52
4, 69487, Note_on_c, 0, 58, 66
4, 69490, Note_on_c, 0, 49, 50
4, 69513, Note_off_c, 0, 59, 0
4, 69515, Note_off_c, 0, 56, 0
4, 69843, Note_off_c, 0, 49, 0
4, 69843, Note_off_c, 0, 51, 0
4, 69853, Note_off_c, 0, 58, 0
4, 69866, Note_on_c, 0, 58, 66
4, 69869, Note_on_c, 0, 49, 51
4, 69870, Note_on_c, 0, 51, 48
4, 70211, Note_off_c, 0, 51, 0
4, 70246, Note_on_c, 0, 56, 58
4, 70247, Note_on_c, 0, 51, 49
4, 70252, Note_on_c, 0, 47, 46
4, 70271, Note_off_c, 0, 49, 0
4, 70278, Note_off_c, 0, 58, 0
4, 70547, Note_off_c, 0, 47, 0
4, 70550, Note_off_c, 0, 56, 0
4, 70558, Note_off_c, 0, 51, 0
4, 70656, Note_on_c, 0, 44, 78
4, 70668, Note_on_c, 0, 44, 84
4, 70753, Control_c, 0, 10, 64
4, 71043, Note_on_c, 0, 50, 64
4, 71422, Note_on_c, 0, 59, 74
4, 71464, Note_off_c, 0, 50, 0
4, 71594, Note_off_c, 0, 44, 0
4, 71680, Note_off_c, 0, 59, 0
4, 71732, Note_off_c, 0, 44, 0
4, 71810, Note_on_c, 0, 43, 68
4, 72163, Note_on_c, 0, 44, 70
4, 72202, Note_off_c, 0, 43, 0
4, 72521, Note_on_c, 0, 50, 53
4, 72914, Note_on_c, 0, 59, 50
4, 72972, Note_off_c, 0, 50, 0
4, 73198, Note_off_c, 0, 44, 0
4, 73215, Note_off_c, 0, 59, 0
4, 73311, Note_on_c, 0, 38, 76
4, 73683, Note_on_c, 0, 44, 49
4, 73734, Note_off_c, 0, 38, 0
4, 74080, Note_on_c, 0, 50, 64
4, 74470, Note_on_c, 0, 59, 58
4, 74512, Note_off_c, 0, 50, 0
4, 74696, Note_off_c, 0, 44, 0
4, 74736, Note_off_c, 0, 59, 0
4, 74838, Note_on_c, 0, 49, 58
4, 75219, Note_on_c, 0, 47, 80
4, 75289, Note_off_c, 0, 49, 0
4, 75625, Note_on_c, 0, 50, 68
4, 76011, Note_on_c, 0, 59, 68
4, 76052, Note_off_c, 0, 50, 0
4, 76204, Note_off_c, 0, 59, 0
4, 76233, Note_off_c, 0, 47, 0
4, 76389, Note_on_c, 0, 38, 88
4, 76783, Note_on_c, 0, 44, 94
4, 76816, Note_off_c, 0, 38, 0
4, 77061, Note_off_c, 0, 44, 0
4, 77169, Note_on_c, 0, 65, 76
4, 77169, Note_on_c, 0, 71, 80
4, 77170, Note_on_c, 0, 62, 76
4, 77455, Note_off_c, 0, 62, 0
4, 77471, Note_off_c, 0, 71, 0
4, 77475, Note_off_c, 0, 65, 0
4, 77521, Note_on_c, 0, 71, 84
4, 77528, Note_on_c, 0, 62, 76
4, 77532, Note_on_c, 0, 65, 58
4, 77853, Note_off_c, 0, 62, 0
4, 77867, Note_off_c, 0, 65, 0
4, 77918, Note_on_c, 0, 70, 80
4, 77918, Note_on_c, 0, 62, 56
4, 77922, Note_on_c, 0, 65, 49
4, 77953, Note_off_c, 0, 71, 0
4, 78245, Note_off_c, 0, 62, 0
4, 78246, Note_off_c, 0, 65, 0
4, 78246, Note_off_c, 0, 70, 0
4, 78297, Note_on_c, 0, 70, 80
4, 78305, Note_on_c, 0, 62, 74
4, 78307, Note_on_c, 0, 65, 64
4, 78610, Note_off_c, 0, 62, 0
4, 78686, Note_on_c, 0, 68, 86
4, 78687, Note_on_c, 0, 62, 66
4, 78691, Note_on_c, 0, 59, 78
4, 78730, Note_off_c, 0, 65, 0
4, 78736, Note_off_c, 0, 70, 0
4, 79005, Note_off_c, 0, 59, 0
4, 79006, Note_off_c, 0, 62, 0
4, 79026, Note_off_c, 0, 68, 0
4, 79061, Note_on_c, 0, 68, 82
4, 79071, Note_on_c, 0, 62, 72
4, 79071, Note_on_c, 0, 59, 78
4, 79349, Note_off_c, 0, 59, 0
4, 79428, Note_off_c, 0, 62, 0
4, 79451, Note_on_c, 0, 59, 76
4, 79453, Note_on_c, 0, 56, 62
4, 79456, Note_on_c, 0, 66, 68
4, 79497, Note_off_c, 0, 68, 0
4, 79795, Note_off_c, 0, 56, 0
4, 79796, Note_off_c, 0, 59, 0
4, 79798, Note_off_c, 0, 66, 0
4, 79836, Note_on_c, 0, 66, 84
4, 79839, Note_on_c, 0, 56, 74
4, 80176, Note_on_c, 0, 59, 62
4, 80177, Note_off_c, 0, 59, 0
4, 80226, Note_off_c, 0, 56, 0
4, 80226, Note_on_c, 0, 56, 62
4, 80226, Note_on_c, 0, 65, 72
4, 80230, Note_on_c, 0, 59, 70
4, 80262, Note_off_c, 0, 66, 0
4, 80536, Note_off_c, 0, 65, 0
4, 80544, Note_off_c, 0, 59, 0
4, 80556, Note_off_c, 0, 56, 0
4, 80592, Note_on_c, 0, 56, 56
4, 80593, Note_on_c, 0, 65, 80
4, 80600, Note_on_c, 0, 59, 62
4, 80848, Note_off_c, 0, 56, 0
4, 80974, Note_on_c, 0, 64, 82
4, 80976, Note_on_c, 0, 56, 44
4, 80983, Note_on_c, 0, 53, 60
4, 81018, Note_off_c, 0, 65, 0
4, 81019, Note_off_c, 0, 59, 0
4, 81307, Note_off_c, 0, 53, 0
4, 81319, Note_off_c, 0, 56, 0
4, 81326, Note_off_c, 0, 64, 0
4, 81364, Note_on_c, 0, 64, 78
4, 81364, Note_on_c, 0, 56, 60
4, 81369, Note_on_c, 0, 53, 76
4, 81716, Note_off_c, 0, 53, 0
4, 81716, Note_off_c, 0, 56, 0
4, 81757, Note_on_c, 0, 62, 76
4, 81768, Note_on_c, 0, 56, 54
4, 81778, Note_on_c, 0, 53, 66
4, 81801, Note_off_c, 0, 64, 0
4, 82113, Note_off_c, 0, 53, 0
4, 82121, Note_off_c, 0, 56, 0
4, 82160, Note_on_c, 0, 60, 56
4, 82163, Note_on_c, 0, 56, 39
4, 82174, Note_on_c, 0, 53, 52
4, 82193, Note_off_c, 0, 62, 0
4, 82478, Note_off_c, 0, 53, 0
4, 82482, Note_off_c, 0, 56, 0
4, 82536, Note_on_c, 0, 59, 68
4, 82538, Note_on_c, 0, 53, 45
4, 82539, Note_on_c, 0, 55, 49
4, 82583, Note_off_c, 0, 60, 0
4, 82801, Note_off_c, 0, 59, 0
4, 82802, Note_off_c, 0, 55, 0
4, 82806, Note_off_c, 0, 53, 0
4, 82960, Note_on_c, 0, 43, 76
4, 83070, Note_off_c, 0, 43, 0
4, 83116, Control_c, 0, 10, 64
4, 83360, Note_on_c, 0, 69, 66
4, 83360, Note_on_c, 0, 65, 64
4, 83364, Note_on_c, 0, 59, 62
4, 83435, Note_off_c, 0, 59, 0
4, 83437, Note_off_c, 0, 69, 0
4, 83439, Note_off_c, 0, 65, 0
4, 83723, Note_on_c, 0, 69, 64
4, 83723, Note_on_c, 0, 65, 66
4, 83727, Note_on_c, 0, 59, 66
4, 85213, Note_on_c, 0, 64, 62
4, 85214, Note_on_c, 0, 67, 52
4, 85214, Note_on_c, 0, 60, 53
4, 85239, Note_off_c, 0, 65, 0
4, 85241, Note_off_c, 0, 69, 0
4, 85242, Note_off_c, 0, 59, 0
4, 85599, Note_off_c, 0, 60, 0
4, 85616, Note_off_c, 0, 67, 0
4, 85626, Note_on_c, 0, 69, 64
4, 85627, Note_on_c, 0, 55, 54
4, 85637, Note_off_c, 0, 64, 0
4, 85924, Note_off_c, 0, 69, 0
4, 85967, Note_off_c, 0, 55, 0
4, 85979, Note_on_c, 0, 65, 66
4, 85979, Note_on_c, 0, 69, 68
4, 85982, Note_on_c, 0, 59, 66
4, 87163, Note_on_c, 0, 67, 62
4, 87164, Note_on_c, 0, 55, 60
4, 87195, Note_off_c, 0, 65, 0
4, 87201, Note_off_c, 0, 69, 0
4, 87202, Note_off_c, 0, 59, 0
4, 87393, Note_off_c, 0, 67, 0
4, 87398, Note_off_c, 0, 55, 0
4, 88308, Note_on_c, 0, 55, 56
4, 88417, Note_off_c, 0, 55, 0
4, 88674, Note_on_c, 0, 48, 72
4, 88818, Note_off_c, 0, 48, 0
4, 89079, Note_on_c, 0, 41, 54
4, 89266, Note_off_c, 0, 41, 0
4, 89456, Note_on_c, 0, 63, 39
4, 89461, Note_on_c, 0, 67, 58
4, 89470, Note_on_c, 0, 57, 53
4, 89675, Note_off_c, 0, 57, 0
4, 89680, Note_off_c, 0, 63, 0
4, 89682, Note_off_c, 0, 67, 0
4, 89842, Note_on_c, 0, 63, 49
4, 89844, Note_on_c, 0, 67, 74
4, 89847, Note_on_c, 0, 57, 58
4, 91325, Note_off_c, 0, 67, 0
4, 91374, Note_on_c, 0, 65, 51
4, 91375, Note_on_c, 0, 58, 42
4, 91377, Note_on_c, 0, 62, 60
4, 91403, Note_off_c, 0, 63, 0
4, 91410, Note_off_c, 0, 57, 0
4, 91777, Note_on_c, 0, 67, 66
4, 91779, Note_on_c, 0, 53, 48
4, 91811, Note_off_c, 0, 62, 0
4, 91817, Note_off_c, 0, 58, 0
4, 91818, Note_off_c, 0, 65, 0
4, 92091, Note_off_c, 0, 67, 0
4, 92125, Note_off_c, 0, 53, 0
4, 92137, Note_on_c, 0, 63, 46
4, 92141, Note_on_c, 0, 67, 68
4, 92142, Note_on_c, 0, 57, 66
4, 93299, Note_off_c, 0, 67, 0
4, 93312, Note_on_c, 0, 65, 60
4, 93321, Note_on_c, 0, 53, 46
4, 93355, Note_off_c, 0, 63, 0
4, 93377, Note_off_c, 0, 57, 0
4, 93609, Note_off_c, 0, 65, 0
4, 93618, Note_off_c, 0, 53, 0
4, 94447, Note_on_c, 0, 53, 76
4, 94578, Note_off_c, 0, 53, 0
4, 94836, Note_on_c, 0, 46, 84
4, 95009, Note_off_c, 0, 46, 0
4, 95209, Note_on_c, 0, 40, 115
4, 95395, Note_off_c, 0, 40, 0
4, 95701, Control_c, 0, 10, 64
4, 95829, Note_on_c, 0, 82, 94
4, 95829, Note_on_c, 0, 85, 90
4, 96016, Note_on_c, 0, 79, 96
4, 96029, Note_off_c, 0, 85, 0
4, 96029, Note_on_c, 0, 76, 90
4, 96034, Note_off_c, 0, 82, 0
4, 96188, Note_on_c, 0, 82, 90
4, 96188, Note_on_c, 0, 85, 84
4, 96198, Note_off_c, 0, 76, 0
4, 96201, Note_off_c, 0, 79, 0
4, 96360, Note_on_c, 0, 78, 84
4, 96362, Note_on_c, 0, 75, 70
4, 96367, Note_off_c, 0, 85, 0
4, 96376, Note_off_c, 0, 82, 0
4, 96541, Note_on_c, 0, 84, 84
4, 96541, Note_on_c, 0, 81, 82
4, 96558, Note_off_c, 0, 78, 0
4, 96567, Note_off_c, 0, 75, 0
4, 96718, Note_on_c, 0, 77, 90
4, 96721, Note_on_c, 0, 74, 84
4, 96725, Note_off_c, 0, 84, 0
4, 96733, Note_off_c, 0, 81, 0
4, 96926, Note_on_c, 0, 80, 51
4, 96928, Note_on_c, 0, 83, 84
4, 96943, Note_off_c, 0, 77, 0
4, 96950, Note_off_c, 0, 74, 0
4, 97114, Note_off_c, 0, 83, 0
4, 97117, Note_on_c, 0, 73, 76
4, 97118, Note_on_c, 0, 76, 86
4, 97142, Note_off_c, 0, 80, 0
4, 97312, Note_on_c, 0, 79, 90
4, 97313, Note_on_c, 0, 82, 66
4, 97328, Note_off_c, 0, 76, 0
4, 97340, Note_off_c, 0, 73, 0
4, 97496, Note_on_c, 0, 75, 74
4, 97498, Note_on_c, 0, 72, 74
4, 97511, Note_off_c, 0, 79, 0
4, 97519, Note_off_c, 0, 82, 0
4, 97699, Note_on_c, 0, 78, 64
4, 97702, Note_on_c, 0, 81, 84
4, 97718, Note_off_c, 0, 72, 0
4, 97723, Note_off_c, 0, 75, 0
4, 97894, Note_on_c, 0, 74, 80
4, 97896, Note_on_c, 0, 71, 70
4, 97901, Note_off_c, 0, 81, 0
4, 97918, Note_off_c, 0, 78, 0
4, 98090, Note_on_c, 0, 77, 88
4, 98091, Note_on_c, 0, 80, 76
4, 98100, Note_off_c, 0, 71, 0
4, 98108, Note_off_c, 0, 74, 0
4, 98274, Note_on_c, 0, 73, 76
4, 98277, Note_on_c, 0, 70, 72
4, 98287, Note_off_c, 0, 77, 0
4, 98289, Note_off_c, 0, 80, 0
4, 98459, Note_on_c, 0, 76, 82
4, 98463, Note_on_c, 0, 79, 90
4, 98484, Note_off_c, 0, 70, 0
4, 98484, Note_off_c, 0, 73, 0
4, 98639, Note_on_c, 0, 72, 92
4, 98641, Note_on_c, 0, 69, 78
4, 98644, Note_off_c, 0, 79, 0
4, 98656, Note_off_c, 0, 76, 0
4, 98836, Note_on_c, 0, 75, 56
4, 98856, Note_off_c, 0, 72, 0
4, 98856, Note_on_c, 0, 78, 60
4, 99024, Note_off_c, 0, 69, 0
4, 99024, Note_on_c, 0, 71, 86
4, 99024, Note_on_c, 0, 68, 74
4, 99042, Note_off_c, 0, 78, 0
4, 99042, Note_off_c, 0, 75, 0
4, 99225, Note_on_c, 0, 77, 86
4, 99226, Note_on_c, 0, 74, 92
4, 99241, Note_off_c, 0, 71, 0
4, 99251, Note_off_c, 0, 68, 0
4, 99405, Note_on_c, 0, 70, 76
4, 99408, Note_on_c, 0, 67, 76
4, 99410, Note_off_c, 0, 77, 0
4, 99422, Note_off_c, 0, 74, 0
4, 99603, Note_on_c, 0, 73, 51
4, 99607, Note_on_c, 0, 76, 86
4, 99622, Note_off_c, 0, 67, 0
4, 99627, Note_off_c, 0, 70, 0
4, 99791, Note_on_c, 0, 69, 82
4, 99792, Note_on_c, 0, 66, 62
4, 99795, Note_off_c, 0, 76, 0
4, 99813, Note_off_c, 0, 73, 0
4, 99995, Note_on_c, 0, 72, 88
4, 99995, Note_on_c, 0, 75, 70
4, 100012, Note_off_c, 0, 69, 0
4, 100022, Note_off_c, 0, 66, 0
4, 100172, Note_on_c, 0, 68, 76
4, 100175, Note_on_c, 0, 65, 72
4, 100189, Note_off_c, 0, 72, 0
4, 100190, Note_off_c, 0, 75, 0
4, 100366, Note_on_c, 0, 74, 86
4, 100366, Note_on_c, 0, 71, 84
4, 100385, Note_off_c, 0, 65, 0
4, 100391, Note_off_c, 0, 68, 0
4, 100559, Note_on_c, 0, 67, 82
4, 100560, Note_off_c, 0, 74, 0
4, 100561, Note_on_c, 0, 64, 66
4, 100574, Note_off_c, 0, 71, 0
4, 100751, Note_on_c, 0, 73, 70
4, 100751, Note_on_c, 0, 70, 66
4, 100770, Note_off_c, 0, 64, 0
4, 100772, Note_off_c, 0, 67, 0
4, 100944, Note_on_c, 0, 66, 70
4, 100946, Note_on_c, 0, 63, 68
4, 100959, Note_off_c, 0, 73, 0
4, 100964, Note_off_c, 0, 70, 0
4, 101157, Note_on_c, 0, 69, 76
4, 101160, Note_on_c, 0, 72, 74
4, 101180, Note_off_c, 0, 63, 0
4, 101182, Note_off_c, 0, 66, 0
4, 101332, Note_off_c, 0, 69, 0
4, 101339, Note_off_c, 0, 72, 0
4, 101376, Note_on_c, 0, 65, 76
4, 101376, Note_on_c, 0, 62, 76
4, 101440, Control_c, 0, 10, 64
4, 101561, Note_on_c, 0, 68, 64
4, 101564, Note_on_c, 0, 71, 86
4, 101581, Note_off_c, 0, 65, 0
4, 101585, Note_off_c, 0, 62, 0
4, 101742, Note_off_c, 0, 71, 0
4, 101746, Note_on_c, 0, 64, 80
4, 101748, Note_on_c, 0, 61, 60
4, 101771, Note_off_c, 0, 68, 0
4, 101946, Note_on_c, 0, 70, 64
4, 101947, Note_on_c, 0, 67, 90
4, 101961, Note_off_c, 0, 64, 0
4, 101973, Note_off_c, 0, 61, 0
4, 102127, Note_on_c, 0, 63, 74
4, 102129, Note_on_c, 0, 60, 80
4, 102142, Note_off_c, 0, 67, 0
4, 102147, Note_off_c, 0, 70, 0
4, 102316, Note_on_c, 0, 66, 64
4, 102319, Note_on_c, 0, 69, 86
4, 102340, Note_off_c, 0, 63, 0
4, 102341, Note_off_c, 0, 60, 0
4, 102488, Note_on_c, 0, 62, 80
4, 102489, Note_off_c, 0, 69, 0
4, 102491, Note_on_c, 0, 59, 68
4, 102513, Note_off_c, 0, 66, 0
4, 102686, Note_on_c, 0, 68, 62
4, 102687, Note_on_c, 0, 65, 82
4, 102698, Note_off_c, 0, 59, 0
4, 102704, Note_off_c, 0, 62, 0
4, 102871, Note_on_c, 0, 61, 72
4, 102873, Note_on_c, 0, 58, 58
4, 102888, Note_off_c, 0, 65, 0
4, 102889, Note_off_c, 0, 68, 0
4, 103079, Note_on_c, 0, 67, 80
4, 103079, Note_on_c, 0, 64, 82
4, 103099, Note_off_c, 0, 61, 0
4, 103105, Note_off_c, 0, 58, 0
4, 103270, Note_on_c, 0, 60, 84
4, 103272, Note_on_c, 0, 57, 68
4, 103274, Note_off_c, 0, 67, 0
4, 103289, Note_off_c, 0, 64, 0
4, 103463, Note_on_c, 0, 66, 68
4, 103463, Note_on_c, 0, 63, 70
4, 103483, Note_off_c, 0, 57, 0
4, 103483, Note_off_c, 0, 60, 0
4, 103659, Note_on_c, 0, 60, 82
4, 103661, Note_on_c, 0, 57, 70
4, 103678, Note_off_c, 0, 66, 0
4, 103681, Note_off_c, 0, 63, 0
4, 103857, Note_on_c, 0, 63, 66
4, 103860, Note_on_c, 0, 65, 74
4, 103879, Note_off_c, 0, 60, 0
4, 103883, Note_off_c, 0, 57, 0
4, 104050, Note_on_c, 0, 60, 76
4, 104051, Note_on_c, 0, 57, 66
4, 104072, Note_off_c, 0, 65, 0
4, 104078, Note_off_c, 0, 63, 0
4, 104230, Note_on_c, 0, 63, 50
4, 104234, Note_on_c, 0, 65, 74
4, 104252, Note_off_c, 0, 60, 0
4, 104255, Note_off_c, 0, 57, 0
4, 104410, Note_on_c, 0, 59, 78
4, 104413, Note_on_c, 0, 57, 60
4, 104426, Note_off_c, 0, 65, 0
4, 104438, Note_off_c, 0, 63, 0
4, 104598, Note_on_c, 0, 62, 76
4, 104599, Note_on_c, 0, 65, 72
4, 104618, Note_off_c, 0, 59, 0
4, 104620, Note_off_c, 0, 57, 0
4, 104785, Note_on_c, 0, 59, 82
4, 104787, Note_on_c, 0, 56, 46
4, 104796, Note_off_c, 0, 62, 0
4, 104799, Note_off_c, 0, 65, 0
4, 104979, Note_on_c, 0, 64, 58
4, 104982, Note_on_c, 0, 62, 80
4, 104997, Note_off_c, 0, 59, 0
4, 105009, Note_off_c, 0, 56, 0
4, 105165, Note_on_c, 0, 56, 46
4, 105167, Note_on_c, 0, 59, 76
4, 105180, Note_off_c, 0, 64, 0
4, 105187, Note_off_c, 0, 62, 0
4, 105383, Note_on_c, 0, 62, 76
4, 105402, Note_off_c, 0, 59, 0
4, 105402, Note_on_c, 0, 64, 56
4, 105414, Note_off_c, 0, 56, 0
4, 105561, Note_on_c, 0, 56, 42
4, 105565, Note_on_c, 0, 59, 78
4, 105583, Note_off_c, 0, 64, 0
4, 105583, Note_off_c, 0, 62, 0
4, 105764, Note_on_c, 0, 64, 50
4, 105767, Note_on_c, 0, 62, 72
4, 105780, Note_off_c, 0, 59, 0
4, 105798, Note_off_c, 0, 56, 0
4, 105953, Note_on_c, 0, 58, 43
4, 105956, Note_on_c, 0, 55, 52
4, 105964, Note_off_c, 0, 64, 0
4, 105970, Note_off_c, 0, 62, 0
4, 106146, Note_on_c, 0, 61, 42
4, 106150, Note_on_c, 0, 64, 66
4, 106170, Note_off_c, 0, 55, 0
4, 106173, Note_off_c, 0, 58, 0
4, 106339, Note_on_c, 0, 58, 44
4, 106342, Note_on_c, 0, 55, 49
4, 106358, Note_off_c, 0, 64, 0
4, 106371, Note_off_c, 0, 61, 0
4, 106528, Note_on_c, 0, 63, 43
4, 106528, Note_on_c, 0, 61, 46
4, 106558, Note_off_c, 0, 58, 0
4, 106560, Note_off_c, 0, 55, 0
4, 106713, Note_on_c, 0, 58, 42
4, 106714, Note_on_c, 0, 55, 52
4, 106743, Note_off_c, 0, 63, 0
4, 106749, Note_off_c, 0, 61, 0
4, 106925, Note_on_c, 0, 61, 51
4, 106926, Note_on_c, 0, 63, 49
4, 106952, Note_off_c, 0, 55, 0
4, 106955, Note_off_c, 0, 58, 0
4, 107117, Note_on_c, 0, 58, 43
4, 107122, Note_on_c, 0, 55, 52
4, 107142, Note_off_c, 0, 61, 0
4, 107143, Note_off_c, 0, 63, 0
4, 107308, Note_on_c, 0, 61, 35
4, 107309, Note_on_c, 0, 63, 43
4, 107331, Note_off_c, 0, 55, 0
4, 107334, Note_off_c, 0, 58, 0
4, 107484, Note_off_c, 0, 61, 0
4, 107488, Note_off_c, 0, 63, 0
4, 142848, Control_c, 0, 10, 64
4, 145094, Note_on_c, 0, 49, 86
4, 145144, Note_on_c, 0, 57, 94
4, 145168, Note_on_c, 0, 64, 96
4, 145882, Note_off_c, 0, 64, 0
4, 145905, Note_off_c, 0, 57, 0
4, 145914, Note_off_c, 0, 49, 0
4, 148966, Note_on_c, 0, 51, 88
4, 148968, Note_on_c, 0, 39, 80
4, 149758, Note_on_c, 0, 49, 76
4, 149822, Note_off_c, 0, 51, 0
4, 150468, Note_off_c, 0, 49, 0
4, 150475, Note_off_c, 0, 39, 0
4, 172032, Control_c, 0, 10, 64
4, 175468, Note_on_c, 0, 51, 43
4, 175829, Note_on_c, 0, 60, 64
4, 175903, Note_off_c, 0, 51, 0
4, 176216, Note_off_c, 0, 60, 0
4, 176228, Note_on_c, 0, 49, 69
4, 176643, Note_on_c, 0, 48, 66
4, 176693, Note_off_c, 0, 49, 0
4, 177017, Note_on_c, 0, 51, 72
4, 177045, Note_off_c, 0, 48, 0
4, 177401, Note_on_c, 0, 60, 82
4, 177450, Note_off_c, 0, 51, 0
4, 177752, Note_off_c, 0, 60, 0
4, 177756, Note_on_c, 0, 39, 78
4, 178149, Note_on_c, 0, 44, 90
4, 178190, Note_off_c, 0, 39, 0
4, 178534, Note_on_c, 0, 51, 72
4, 178572, Note_off_c, 0, 44, 0
4, 178930, Note_on_c, 0, 60, 72
4, 178963, Note_off_c, 0, 51, 0
4, 179292, Note_on_c, 0, 49, 56
4, 179665, Note_off_c, 0, 60, 0
4, 179701, Note_off_c, 0, 49, 0
4, 179701, Note_on_c, 0, 48, 62
4, 180081, Note_on_c, 0, 51, 54
4, 180100, Note_off_c, 0, 48, 0
4, 180467, Note_on_c, 0, 60, 68
4, 180501, Note_off_c, 0, 51, 0
4, 180751, Note_off_c, 0, 60, 0
4, 180824, Note_on_c, 0, 39, 58
4, 181205, Note_off_c, 0, 39, 0
4, 181248, Note_on_c, 0, 44, 53
4, 181397, Note_off_c, 0, 44, 0
4, 182394, Note_on_c, 0, 39, 45
4, 182765, Note_on_c, 0, 44, 76
4, 182796, Note_off_c, 0, 39, 0
4, 182901, Note_off_c, 0, 44, 0
4, 183912, Note_on_c, 0, 39, 54
4, 184292, Note_off_c, 0, 39, 0
4, 184320, Note_on_c, 0, 44, 66
4, 184461, Note_off_c, 0, 44, 0
4, 184868, End_track
5, 0, Start_track
5, 0, Title_t, "Track 4"
5, 21504, Control_c, 0, 10, 64
5, 21506, Note_on_c, 0, 44, 54
5, 21925, Note_on_c, 0, 52, 46
5, 21970, Note_off_c, 0, 44, 0
5, 22322, Note_off_c, 0, 52, 0
5, 22322, Note_on_c, 0, 61, 39
5, 22588, Note_off_c, 0, 61, 0
5, 22686, Note_on_c, 0, 43, 58
5, 23013, Note_on_c, 0, 44, 44
5, 23047, Note_off_c, 0, 43, 0
5, 23375, Note_on_c, 0, 52, 60
5, 23485, Note_off_c, 0, 44, 0
5, 23795, Note_on_c, 0, 61, 46
5, 23838, Note_off_c, 0, 52, 0
5, 24113, Note_off_c, 0, 61, 0
5, 24169, Note_on_c, 0, 32, 78
5, 24549, Note_on_c, 0, 44, 62
5, 24600, Note_off_c, 0, 32, 0
5, 24932, Note_on_c, 0, 52, 64
5, 25002, Note_off_c, 0, 44, 0
5, 25317, Note_on_c, 0, 61, 58
5, 25351, Note_off_c, 0, 52, 0
5, 25652, Note_off_c, 0, 61, 0
5, 25687, Note_on_c, 0, 51, 39
5, 26048, Note_on_c, 0, 49, 50
5, 26106, Note_off_c, 0, 51, 0
5, 26479, Note_on_c, 0, 52, 62
5, 26505, Note_off_c, 0, 49, 0
5, 26870, Note_on_c, 0, 61, 50
5, 26913, Note_off_c, 0, 52, 0
5, 27200, Note_off_c, 0, 61, 0
5, 27258, Note_on_c, 0, 32, 78
5, 27628, Note_on_c, 0, 44, 70
5, 27681, Note_off_c, 0, 32, 0
5, 28021, Note_on_c, 0, 68, 44
5, 28021, Note_on_c, 0, 73, 48
5, 28024, Note_on_c, 0, 64, 62
5, 28047, Note_off_c, 0, 44, 0
5, 28328, Note_off_c, 0, 68, 0
5, 28344, Note_off_c, 0, 64, 0
5, 28344, Note_off_c, 0, 73, 0
5, 28389, Note_on_c, 0, 68, 68
5, 28393, Note_on_c, 0, 73, 60
5, 28398, Note_on_c, 0, 64, 74
5, 28627, Note_off_c, 0, 64, 0
5, 28686, Note_off_c, 0, 73, 0
5, 28749, Note_off_c, 0, 68, 0
5, 28758, Note_on_c, 0, 64, 74
5, 28759, Note_on_c, 0, 69, 62
5, 28764, Note_on_c, 0, 61, 53
5, 29079, Note_off_c, 0, 64, 0
5, 29080, Note_off_c, 0, 69, 0
5, 29092, Note_off_c, 0, 61, 0
5, 29148, Note_on_c, 0, 64, 80
5, 29150, Note_on_c, 0, 69, 68
5, 29151, Note_on_c, 0, 61, 58
5, 29479, Note_off_c, 0, 64, 0
5, 29486, Note_off_c, 0, 61, 0
5, 29528, Note_on_c, 0, 64, 74
5, 29530, Note_on_c, 0, 68, 45
5, 29532, Note_on_c, 0, 61, 58
5, 29566, Note_off_c, 0, 69, 0
5, 29832, Note_off_c, 0, 64, 0
5, 29873, Note_off_c, 0, 68, 0
5, 29876, Note_off_c, 0, 61, 0
5, 29919, Note_on_c, 0, 68, 39
5, 29923, Note_on_c, 0, 64, 62
5, 29923, Note_on_c, 0, 61, 41
5, 30140, Note_off_c, 0, 61, 0
5, 30265, Note_off_c, 0, 68, 0
5, 30295, Note_on_c, 0, 66, 52
5, 30298, Note_on_c, 0, 56, 48
5, 30298, Note_on_c, 0, 61, 47
5, 30330, Note_off_c, 0, 64, 0
5, 30583, Note_off_c, 0, 66, 0
5, 30592, Note_off_c, 0, 61, 0
5, 30595, Note_off_c, 0, 56, 0
5, 30668, Note_on_c, 0, 61, 74
5, 30671, Note_on_c, 0, 56, 60
5, 30671, Note_on_c, 0, 66, 74
5, 30979, Note_off_c, 0, 61, 0
5, 30990, Note_off_c, 0, 56, 0
5, 31048, Note_on_c, 0, 61, 44
5, 31050, Note_on_c, 0, 56, 51
5, 31057, Note_on_c, 0, 64, 76
5, 31103, Note_off_c, 0, 66, 0
5, 31351, Note_off_c, 0, 64, 0
5, 31352, Note_off_c, 0, 61, 0
5, 31375, Note_off_c, 0, 56, 0
5, 31430, Note_on_c, 0, 61, 46
5, 31431, Note_on_c, 0, 56, 46
5, 31434, Note_on_c, 0, 64, 72
5, 31685, Note_off_c, 0, 56, 0
5, 31739, Note_off_c, 0, 64, 0
5, 31786, Note_off_c, 0, 61, 0
5, 31827, Note_on_c, 0, 63, 76
5, 31827, Note_on_c, 0, 56, 72
5, 31833, Note_on_c, 0, 54, 52
5, 32142, Note_off_c, 0, 56, 0
5, 32147, Note_off_c, 0, 54, 0
5, 32157, Note_off_c, 0, 63, 0
5, 32239, Note_on_c, 0, 63, 78
5, 32241, Note_on_c, 0, 56, 88
5, 32243, Note_on_c, 0, 54, 72
5, 32423, Note_off_c, 0, 54, 0
5, 32517, Note_off_c, 0, 56, 0
5, 32589, Note_on_c, 0, 61, 60
5, 32594, Note_on_c, 0, 56, 78
5, 32594, Note_on_c, 0, 52, 72
5, 32636, Note_off_c, 0, 63, 0
5, 32805, Note_off_c, 0, 52, 0
5, 32840, Note_off_c, 0, 56, 0
5, 32985, Note_on_c, 0, 56, 46
5, 32988, Note_on_c, 0, 63, 66
5, 32991, Note_on_c, 0, 54, 48
5, 33034, Note_off_c, 0, 61, 0
5, 33156, Note_off_c, 0, 56, 0
5, 33188, Note_off_c, 0, 63, 0
5, 33194, Note_off_c, 0, 54, 0
5, 33326, Note_on_c, 0, 66, 47
5, 33340, Note_on_c, 0, 61, 50
5, 33342, Note_on_c, 0, 56, 53
5, 33358, Note_on_c, 0, 64, 78
5, 33411, Note_off_c, 0, 66, 0
5, 33738, Note_off_c, 0, 64, 0
5, 33743, Note_off_c, 0, 56, 0
5, 33751, Note_off_c, 0, 61, 0
5, 49152, Control_c, 0, 10, 64
5, 49516, Note_on_c, 0, 66, 72
5, 49695, Note_off_c, 0, 66, 0
5, 49915, Note_on_c, 0, 54, 48
5, 50074, Note_off_c, 0, 54, 0
5, 50279, Note_on_c, 0, 42, 74
5, 50427, Note_off_c, 0, 42, 0
5, 50657, Note_on_c, 0, 30, 60
5, 50818, Note_off_c, 0, 30, 0
5, 51050, Note_on_c, 0, 42, 49
5, 51220, Note_off_c, 0, 42, 0
5, 51438, Note_on_c, 0, 54, 45
5, 51614, Note_off_c, 0, 54, 0
5, 51829, Note_on_c, 0, 66, 60
5, 51993, Note_off_c, 0, 66, 0
5, 132096, Control_c, 0, 10, 64
5, 132096, Note_on_c, 0, 37, 58
5, 132332, Note_off_c, 0, 37, 0
5, 132501, Note_on_c, 0, 49, 68
5, 132846, Note_on_c, 0, 56, 64
5, 132884, Note_off_c, 0, 49, 0
5, 133211, Note_on_c, 0, 63, 58
5, 133263, Note_off_c, 0, 56, 0
5, 133603, Note_on_c, 0, 64, 76
5, 133626, Note_off_c, 0, 63, 0
5, 133981, Note_on_c, 0, 61, 58
5, 133995, Note_off_c, 0, 64, 0
5, 134384, Note_on_c, 0, 68, 66
5, 134435, Note_off_c, 0, 61, 0
5, 134770, Note_on_c, 0, 70, 62
5, 134801, Note_off_c, 0, 68, 0
5, 135139, Note_on_c, 0, 71, 76
5, 135175, Note_off_c, 0, 70, 0
5, 135435, Note_off_c, 0, 71, 0
5, 135529, Note_on_c, 0, 44, 66
5, 135920, Note_on_c, 0, 51, 47
5, 135956, Note_off_c, 0, 44, 0
5, 136285, Note_on_c, 0, 58, 47
5, 136311, Note_off_c, 0, 51, 0
5, 136653, Note_on_c, 0, 59, 78
5, 136689, Note_off_c, 0, 58, 0
5, 136904, Note_off_c, 0, 59, 0
5, 138226, Note_on_c, 0, 40, 54
5, 138626, Note_on_c, 0, 47, 68
5, 138672, Note_off_c, 0, 40, 0
5, 139007, Note_on_c, 0, 52, 70
5, 139046, Note_off_c, 0, 47, 0
5, 139394, Note_on_c, 0, 54, 51
5, 139431, Note_off_c, 0, 52, 0
5, 139777, Note_on_c, 0, 56, 62
5, 139841, Note_off_c, 0, 54, 0
5, 140154, Note_on_c, 0, 52, 64
5, 140159, Note_off_c, 0, 56, 0
5, 140524, Note_on_c, 0, 59, 78
5, 140543, Note_off_c, 0, 52, 0
5, 140897, Note_on_c, 0, 61, 60
5, 140942, Note_off_c, 0, 59, 0
5, 141278, Note_on_c, 0, 63, 52
5, 141314, Note_off_c, 0, 61, 0
5, 141554, Note_off_c, 0, 63, 0
5, 141679, Note_on_c, 0, 35, 80
5, 142048, Note_on_c, 0, 42, 52
5, 142096, Note_off_c, 0, 35, 0
5, 142432, Note_on_c, 0, 49, 53
5, 142450, Note_off_c, 0, 42, 0
5, 142798, Note_on_c, 0, 51, 44
5, 142842, Note_off_c, 0, 49, 0
5, 143138, Note_off_c, 0, 51, 0
5, 144261, Note_on_c, 0, 37, 82
5, 144365, Note_on_c, 0, 52, 86
5, 144627, Note_off_c, 0, 52, 0
5, 144627, Note_off_c, 0, 37, 0
5, 150528, Control_c, 0, 10, 64
5, 150529, Note_on_c, 0, 32, 74
5, 150801, Note_off_c, 0, 32, 0
5, 150945, Note_on_c, 0, 39, 82
5, 151297, Note_on_c, 0, 51, 30
5, 151319, Note_off_c, 0, 39, 0
5, 151323, Note_on_c, 0, 59, 58
5, 151350, Note_off_c, 0, 51, 0
5, 151634, Note_off_c, 0, 59, 0
5, 151659, Note_on_c, 0, 43, 70
5, 152047, Note_on_c, 0, 44, 64
5, 152074, Note_off_c, 0, 43, 0
5, 152405, Note_on_c, 0, 51, 46
5, 152432, Note_off_c, 0, 44, 0
5, 152809, Note_on_c, 0, 59, 72
5, 152865, Note_off_c, 0, 51, 0
5, 153130, Note_off_c, 0, 59, 0
5, 153185, Note_on_c, 0, 39, 78
5, 153563, Note_on_c, 0, 44, 72
5, 153605, Note_off_c, 0, 39, 0
5, 153976, Note_on_c, 0, 51, 68
5, 153996, Note_off_c, 0, 44, 0
5, 154372, Note_on_c, 0, 60, 72
5, 154393, Note_off_c, 0, 51, 0
5, 154707, Note_off_c, 0, 60, 0
5, 154750, Note_on_c, 0, 49, 74
5, 155100, Note_on_c, 0, 48, 72
5, 155157, Note_off_c, 0, 49, 0
5, 155492, Note_off_c, 0, 48, 0
5, 155493, Note_on_c, 0, 51, 64
5, 155878, Note_on_c, 0, 60, 78
5, 155923, Note_off_c, 0, 51, 0
5, 156189, Note_off_c, 0, 60, 0
5, 156248, Note_on_c, 0, 39, 80
5, 156638, Note_on_c, 0, 44, 80
5, 156680, Note_off_c, 0, 39, 0
5, 157015, Note_on_c, 0, 52, 70
5, 157027, Note_off_c, 0, 44, 0
5, 157432, Note_off_c, 0, 52, 0
5, 157440, Note_on_c, 0, 61, 48
5, 157779, Note_off_c, 0, 61, 0
5, 157789, Note_on_c, 0, 51, 66
5, 158172, Note_on_c, 0, 49, 62
5, 158221, Note_off_c, 0, 51, 0
5, 158592, Note_on_c, 0, 52, 64
5, 158949, Note_on_c, 0, 61, 51
5, 159002, Note_off_c, 0, 49, 0
5, 159056, Note_off_c, 0, 52, 0
5, 159325, Note_off_c, 0, 61, 0
5, 159358, Note_on_c, 0, 32, 82
5, 159733, Note_on_c, 0, 44, 70
5, 159777, Note_off_c, 0, 32, 0
5, 160094, Note_on_c, 0, 52, 70
5, 160473, Note_off_c, 0, 44, 0
5, 160473, Note_on_c, 0, 61, 60
5, 160496, Note_off_c, 0, 52, 0
5, 160823, Note_off_c, 0, 61, 0
5, 160858, Note_on_c, 0, 51, 74
5, 161225, Note_on_c, 0, 49, 82
5, 161271, Note_off_c, 0, 51, 0
5, 161636, Note_on_c, 0, 52, 68
5, 161930, Note_off_c, 0, 49, 0
5, 162032, Note_on_c, 0, 61, 66
5, 162071, Note_off_c, 0, 52, 0
5, 162385, Note_off_c, 0, 61, 0
5, 162415, Note_on_c, 0, 32, 84
5, 162804, Note_off_c, 0, 32, 0
5, 162816, Note_on_c, 0, 44, 84
5, 163118, Note_off_c, 0, 44, 0
5, 163220, Note_on_c, 0, 51, 56
5, 163425, Control_c, 0, 10, 64
5, 163573, Note_on_c, 0, 60, 62
5, 163652, Note_off_c, 0, 51, 0
5, 163890, Note_off_c, 0, 60, 0
5, 163930, Note_on_c, 0, 49, 43
5, 164323, Note_on_c, 0, 48, 46
5, 164414, Note_off_c, 0, 49, 0
5, 164697, Note_on_c, 0, 51, 47
5, 164733, Note_off_c, 0, 48, 0
5, 165093, Note_on_c, 0, 60, 54
5, 165106, Note_off_c, 0, 51, 0
5, 165401, Note_off_c, 0, 60, 0
5, 165464, Note_on_c, 0, 39, 46
5, 165847, Note_on_c, 0, 44, 58
5, 165875, Note_off_c, 0, 39, 0
5, 166267, Note_on_c, 0, 51, 49
5, 166681, Note_off_c, 0, 44, 0
5, 166681, Note_on_c, 0, 60, 58
5, 166752, Note_off_c, 0, 51, 0
5, 166957, Note_off_c, 0, 60, 0
5, 167015, Note_on_c, 0, 49, 48
5, 167379, Note_on_c, 0, 48, 53
5, 167415, Note_off_c, 0, 49, 0
5, 167774, Note_on_c, 0, 51, 45
5, 168167, Note_on_c, 0, 60, 58
5, 168193, Note_off_c, 0, 48, 0
5, 168247, Note_off_c, 0, 51, 0
5, 168467, Note_off_c, 0, 60, 0
5, 168551, Note_on_c, 0, 39, 52
5, 168926, Note_on_c, 0, 44, 51
5, 168963, Note_off_c, 0, 39, 0
5, 169305, Note_on_c, 0, 52, 49
5, 169702, Note_on_c, 0, 61, 39
5, 169745, Note_off_c, 0, 52, 0
5, 169890, Note_off_c, 0, 44, 0
5, 170042, Note_off_c, 0, 61, 0
5, 170099, Note_on_c, 0, 51, 46
5, 170483, Note_on_c, 0, 49, 33
5, 170552, Note_off_c, 0, 51, 0
5, 170854, Note_on_c, 0, 52, 50
5, 171139, Note_off_c, 0, 49, 0
5, 171243, Note_on_c, 0, 61, 37
5, 171286, Note_off_c, 0, 52, 0
5, 171604, Note_off_c, 0, 61, 0
5, 171654, Note_on_c, 0, 32, 48
5, 171999, Note_on_c, 0, 44, 45
5, 172042, Note_off_c, 0, 32, 0
5, 172395, Note_on_c, 0, 52, 51
5, 172479, Note_off_c, 0, 44, 0
5, 172766, Note_on_c, 0, 61, 41
5, 172808, Note_off_c, 0, 52, 0
5, 173113, Note_off_c, 0, 61, 0
5, 173139, Note_on_c, 0, 51, 41
5, 173529, Note_on_c, 0, 49, 45
5, 173567, Note_off_c, 0, 51, 0
5, 173939, Note_on_c, 0, 52, 52
5, 173954, Note_off_c, 0, 49, 0
5, 174308, Note_on_c, 0, 61, 43
5, 174351, Note_off_c, 0, 52, 0
5, 174645, Note_off_c, 0, 61, 0
5, 174684, Note_on_c, 0, 32, 45
5, 175085, Note_on_c, 0, 44, 44
5, 175136, Note_off_c, 0, 32, 0
5, 175465, Note_off_c, 0, 44, 0
5, 181248, Control_c, 0, 10, 64
5, 185846, Note_on_c, 0, 32, 68
5, 185846, Note_on_c, 0, 44, 60
5, 185982, Note_off_c, 0, 32, 0
5, 185991, Note_off_c, 0, 44, 0
5, 186624, Note_on_c, 0, 32, 43
5, 186629, Note_on_c, 0, 44, 52
5, 186769, Note_off_c, 0, 32, 0
5, 186781, Note_off_c, 0, 44, 0
5, 187392, Note_on_c, 0, 32, 48
5, 187406, Note_on_c, 0, 44, 53
5, 187544, Note_off_c, 0, 44, 0
5, 187547, Note_off_c, 0, 32, 0
5, 189374, Note_on_c, 0, 58, 88
5, 189375, Note_on_c, 0, 56, 84
5, 189385, Note_on_c, 0, 44, 52
5, 189387, Note_on_c, 0, 52, 72
5, 189390, Note_on_c, 0, 37, 86
5, 191112, Note_off_c, 0, 52, 0
5, 191277, Note_off_c, 0, 56, 0
5, 191480, Note_off_c, 0, 44, 0
5, 191974, Note_on_c, 0, 60, 58
5, 191974, Note_on_c, 0, 56, 44
5, 191980, Note_on_c, 0, 44, 22
5, 191981, Note_on_c, 0, 51, 31
5, 191984, Note_on_c, 0, 32, 26
5, 192106, Note_off_c, 0, 37, 0
5, 192108, Note_off_c, 0, 58, 0
5, 193697, Note_off_c, 0, 60, 0
5, 193702, Note_off_c, 0, 56, 0
5, 193730, Note_off_c, 0, 32, 0
5, 193730, Note_off_c, 0, 51, 0
5, 193745, Note_off_c, 0, 44, 0
5, 194769, End_track
6, 0, Start_track
6, 0, Title_t, "Track 3"
6, 3072, Control_c, 0, 10, 64
6, 9288, Control_c, 0, 64, 127
6, 10081, Control_c, 0, 64, 0
6, 11043, Control_c, 0, 64, 127
6, 11626, Control_c, 0, 64, 0
6, 12566, Control_c, 0, 64, 127
6, 13128, Control_c, 0, 64, 0
6, 13996, Control_c, 0, 64, 127
6, 14663, Control_c, 0, 64, 0
6, 15455, Control_c, 0, 64, 127
6, 17079, Control_c, 0, 64, 0
6, 21702, Control_c, 0, 64, 127
6, 22454, Control_c, 0, 64, 0
6, 23384, Control_c, 0, 64, 127
6, 24182, Control_c, 0, 64, 0
6, 24836, Control_c, 0, 64, 127
6, 25681, Control_c, 0, 64, 0
6, 26263, Control_c, 0, 64, 127
6, 27261, Control_c, 0, 64, 0
6, 27853, Control_c, 0, 64, 127
6, 29155, Control_c, 0, 64, 0
6, 33868, Control_c, 0, 64, 127
6, 35258, Control_c, 0, 64, 0
6, 38533, Control_c, 0, 64, 127
6, 39065, Control_c, 0, 64, 0
6, 39385, Control_c, 0, 64, 127
6, 39680, Control_c, 0, 64, 0
6, 40105, Control_c, 0, 64, 127
6, 41254, Control_c, 0, 64, 0
6, 46278, Control_c, 0, 64, 127
6, 47618, Control_c, 0, 64, 0
6, 47776, Control_c, 0, 64, 127
6, 48329, Control_c, 0, 64, 0
6, 48553, Control_c, 0, 64, 127
6, 49109, Control_c, 0, 64, 0
6, 49294, Control_c, 0, 64, 127
6, 52198, Control_c, 0, 64, 0
6, 58588, Control_c, 0, 64, 127
6, 59413, Control_c, 0, 64, 0
6, 60195, Control_c, 0, 64, 127
6, 60956, Control_c, 0, 64, 0
6, 61688, Control_c, 0, 64, 127
6, 62462, Control_c, 0, 64, 0
6, 63190, Control_c, 0, 64, 127
6, 64027, Control_c, 0, 64, 0
6, 64651, Control_c, 0, 64, 127
6, 66007, Control_c, 0, 64, 0
6, 70881, Control_c, 0, 64, 127
6, 71768, Control_c, 0, 64, 0
6, 72564, Control_c, 0, 64, 127
6, 73504, Control_c, 0, 64, 0
6, 74034, Control_c, 0, 64, 127
6, 74977, Control_c, 0, 64, 0
6, 75453, Control_c, 0, 64, 127
6, 76363, Control_c, 0, 64, 0
6, 76988, Control_c, 0, 64, 127
6, 77577, Control_c, 0, 64, 0
6, 83095, Control_c, 0, 64, 127
6, 85199, Control_c, 0, 64, 0
6, 89259, Control_c, 0, 64, 127
6, 91334, Control_c, 0, 64, 0
6, 95316, Control_c, 0, 64, 127
6, 96684, Control_c, 0, 64, 0
6, 107738, Control_c, 0, 64, 127
6, 108554, Control_c, 0, 64, 0
6, 109218, Control_c, 0, 64, 127
6, 110077, Control_c, 0, 64, 0
6, 110890, Control_c, 0, 64, 127
6, 111654, Control_c, 0, 64, 0
6, 112310, Control_c, 0, 64, 127
6, 113230, Control_c, 0, 64, 0
6, 113812, Control_c, 0, 64, 127
6, 115147, Control_c, 0, 64, 0
6, 120036, Control_c, 0, 64, 127
6, 120842, Control_c, 0, 64, 0
6, 121496, Control_c, 0, 64, 127
6, 122504, Control_c, 0, 64, 0
6, 123052, Control_c, 0, 64, 127
6, 123942, Control_c, 0, 64, 0
6, 124545, Control_c, 0, 64, 127
6, 125404, Control_c, 0, 64, 0
6, 126091, Control_c, 0, 64, 127
6, 127415, Control_c, 0, 64, 0
6, 132158, Control_c, 0, 64, 127
6, 132200, Control_c, 0, 64, 0
6, 132294, Control_c, 0, 64, 127
6, 133565, Control_c, 0, 64, 0
6, 135575, Control_c, 0, 64, 127
6, 135608, Control_c, 0, 64, 0
6, 135746, Control_c, 0, 64, 127
6, 136772, Control_c, 0, 64, 0
6, 138405, Control_c, 0, 64, 127
6, 139804, Control_c, 0, 64, 0
6, 141851, Control_c, 0, 64, 127
6, 142816, Control_c, 0, 64, 0
6, 144436, Control_c, 0, 64, 127
6, 145958, Control_c, 0, 64, 0
6, 150740, Control_c, 0, 64, 127
6, 151642, Control_c, 0, 64, 0
6, 152341, Control_c, 0, 64, 127
6, 153494, Control_c, 0, 64, 0
6, 153790, Control_c, 0, 64, 127
6, 155050, Control_c, 0, 64, 0
6, 155294, Control_c, 0, 64, 127
6, 156247, Control_c, 0, 64, 0
6, 159462, Control_c, 0, 64, 127
6, 160520, Control_c, 0, 64, 0
6, 161282, Control_c, 0, 64, 127
6, 162064, Control_c, 0, 64, 0
6, 163014, Control_c, 0, 64, 127
6, 163954, Control_c, 0, 64, 0
6, 164600, Control_c, 0, 64, 127
6, 165732, Control_c, 0, 64, 0
6, 166114, Control_c, 0, 64, 127
6, 167319, Control_c, 0, 64, 0
6, 167649, Control_c, 0, 64, 127
6, 168579, Control_c, 0, 64, 0
6, 169163, Control_c, 0, 64, 127
6, 169988, Control_c, 0, 64, 0
6, 170739, Control_c, 0, 64, 127
6, 171470, Control_c, 0, 64, 0
6, 171766, Control_c, 0, 64, 127
6, 172857, Control_c, 0, 64, 0
6, 173691, Control_c, 0, 64, 127
6, 174338, Control_c, 0, 64, 0
6, 174730, Control_c, 0, 64, 127
6, 174753, Control_c, 0, 64, 0
6, 174827, Control_c, 0, 64, 127
6, 175979, Control_c, 0, 64, 0
6, 176772, Control_c, 0, 64, 127
6, 177682, Control_c, 0, 64, 0
6, 178381, Control_c, 0, 64, 127
6, 179165, Control_c, 0, 64, 0
6, 179915, Control_c, 0, 64, 127
6, 180498, Control_c, 0, 64, 0
6, 182685, End_track
0, 0, End_of_file