0, 0, Header, 1, 17, 240
1, 0, Start_track
1, 0, Tempo, 500000
1, 0, Time_signature, 4, 2, 24, 8
1, 0, Key_signature, 4, "major"
1, 0, Title_t, "Chopin : Piano Concerto No.1 Op.11 Mov.2 Play by K.Oguri"
1, 0, Text_t, "CVS Ver5.05 Created"
1, 319680, End_track
2, 0, Start_track
2, 0, Title_t, "PIANO SOLO"
2, 0, MIDI_port, 0
2, 0, Control_c, 0, 121, 0
2, 165, System_exclusive, 0A, 41, 10, 42, 12, 40, 10, 14, 01, 1B, F7
2, 185, Control_c, 0, 10, 64
2, 205, Control_c, 0, 7, 120
2, 225, Control_c, 0, 0, 0
2, 245, Control_c, 0, 32, 1
2, 265, Program_c, 0, 0
2, 285, Control_c, 0, 7, 120
2, 325, Control_c, 0, 11, 100
2, 385, Control_c, 0, 10, 64
2, 405, Control_c, 0, 1, 0
2, 405, Control_c, 0, 91, 80
2, 425, Control_c, 0, 99, 1
2, 445, Control_c, 0, 98, 32
2, 465, Control_c, 0, 6, 62
2, 485, Control_c, 0, 99, 1
2, 505, Control_c, 0, 98, 33
2, 525, Control_c, 0, 6, 54
2, 545, Control_c, 0, 99, 1
2, 565, Control_c, 0, 98, 99
2, 585, Control_c, 0, 6, 62
2, 605, Control_c, 0, 99, 1
2, 625, Control_c, 0, 98, 100
2, 645, Control_c, 0, 6, 60
2, 665, Control_c, 0, 99, 1
2, 685, Control_c, 0, 98, 102
2, 705, Control_c, 0, 6, 70
2, 34619, Note_on_c, 0, 71, 49
2, 35374, Note_on_c, 0, 56, 34
2, 35392, Note_on_c, 0, 52, 23
2, 35398, Note_on_c, 0, 64, 20
2, 35404, Note_on_c, 0, 80, 50
2, 35445, Note_on_c, 0, 71, 0
2, 35463, Control_c, 0, 64, 63
2, 35506, Control_c, 0, 64, 127
2, 35770, Note_on_c, 0, 59, 41
2, 35826, Note_on_c, 0, 64, 0
2, 35895, Note_on_c, 0, 80, 0
2, 36027, Note_on_c, 0, 64, 20
2, 36030, Note_on_c, 0, 80, 71
2, 36092, Note_on_c, 0, 59, 0
2, 36267, Note_on_c, 0, 59, 47
2, 36273, Note_on_c, 0, 56, 0
2, 36342, Note_on_c, 0, 64, 0
2, 36391, Note_on_c, 0, 80, 0
2, 36391, Note_on_c, 0, 81, 65
2, 36507, Note_on_c, 0, 56, 34
2, 36529, Note_on_c, 0, 80, 67
2, 36553, Note_on_c, 0, 59, 0
2, 36571, Note_on_c, 0, 81, 0
2, 36590, Control_c, 0, 64, 63
2, 36642, Control_c, 0, 64, 127
2, 36745, Note_on_c, 0, 59, 36
2, 37004, Note_on_c, 0, 76, 60
2, 37022, Note_on_c, 0, 64, 35
2, 37078, Note_on_c, 0, 59, 0
2, 37081, Note_on_c, 0, 80, 0
2, 37246, Note_on_c, 0, 59, 42
2, 37263, Note_on_c, 0, 56, 0
2, 37270, Note_on_c, 0, 52, 0
2, 37288, Note_on_c, 0, 76, 0
2, 37297, Note_on_c, 0, 64, 0
2, 37400, Note_on_c, 0, 59, 0
2, 37485, Note_on_c, 0, 57, 34
2, 37493, Note_on_c, 0, 78, 74
2, 37501, Note_on_c, 0, 51, 42
2, 37551, Control_c, 0, 64, 63
2, 37612, Control_c, 0, 64, 127
2, 37749, Note_on_c, 0, 59, 32
2, 37756, Note_on_c, 0, 51, 0
2, 37845, Note_on_c, 0, 57, 0
2, 37926, Note_on_c, 0, 78, 0
2, 37972, Note_on_c, 0, 66, 31
2, 38014, Note_on_c, 0, 59, 0
2, 38195, Note_on_c, 0, 59, 39
2, 38197, Note_on_c, 0, 66, 0
2, 38301, Note_on_c, 0, 71, 69
2, 38410, Note_on_c, 0, 57, 24
2, 38449, Note_on_c, 0, 71, 0
2, 38455, Note_on_c, 0, 59, 0
2, 38491, Note_on_c, 0, 83, 68
2, 38617, Note_on_c, 0, 83, 0
2, 38711, Note_on_c, 0, 59, 34
2, 38941, Note_on_c, 0, 66, 39
2, 38981, Note_on_c, 0, 59, 0
2, 39118, Note_on_c, 0, 66, 0
2, 39194, Note_on_c, 0, 59, 32
2, 39268, Note_on_c, 0, 57, 0
2, 39488, Note_on_c, 0, 52, 41
2, 39488, Note_on_c, 0, 80, 64
2, 39507, Note_on_c, 0, 68, 51
2, 39529, Control_c, 0, 64, 63
2, 39566, Control_c, 0, 64, 0
2, 39631, Control_c, 0, 64, 63
2, 39642, Control_c, 0, 64, 127
2, 39790, Note_on_c, 0, 64, 48
2, 39844, Note_on_c, 0, 68, 0
2, 39846, Note_on_c, 0, 80, 0
2, 39884, Note_on_c, 0, 59, 0
2, 39970, Note_on_c, 0, 64, 0
2, 39999, Note_on_c, 0, 59, 48
2, 40005, Note_on_c, 0, 68, 65
2, 40005, Note_on_c, 0, 80, 82
2, 40103, Note_on_c, 0, 68, 0
2, 40147, Note_on_c, 0, 80, 0
2, 40220, Note_on_c, 0, 61, 60
2, 40245, Note_on_c, 0, 59, 0
2, 40275, Note_on_c, 0, 61, 0
2, 40338, Note_on_c, 0, 81, 77
2, 40340, Note_on_c, 0, 69, 60
2, 40382, Note_on_c, 0, 81, 0
2, 40390, Note_on_c, 0, 69, 0
2, 40476, Note_on_c, 0, 59, 50
2, 40496, Note_on_c, 0, 80, 63
2, 40507, Note_on_c, 0, 68, 59
2, 40556, Control_c, 0, 64, 63
2, 40563, Control_c, 0, 64, 0
2, 40609, Control_c, 0, 64, 63
2, 40616, Control_c, 0, 64, 127
2, 40738, Note_on_c, 0, 64, 42
2, 40760, Note_on_c, 0, 68, 0
2, 40763, Note_on_c, 0, 80, 0
2, 40768, Note_on_c, 0, 59, 0
2, 40801, Note_on_c, 0, 64, 0
2, 40976, Note_on_c, 0, 57, 35
2, 40982, Note_on_c, 0, 66, 52
2, 40989, Note_on_c, 0, 78, 62
2, 41012, Control_c, 0, 64, 63
2, 41030, Control_c, 0, 64, 127
2, 41091, Note_on_c, 0, 78, 0
2, 41116, Note_on_c, 0, 66, 0
2, 41146, Note_on_c, 0, 57, 0
2, 41260, Note_on_c, 0, 56, 54
2, 41267, Note_on_c, 0, 64, 48
2, 41267, Note_on_c, 0, 76, 57
2, 41326, Note_on_c, 0, 64, 0
2, 41342, Note_on_c, 0, 52, 0
2, 41346, Note_on_c, 0, 56, 0
2, 41362, Note_on_c, 0, 76, 0
2, 41581, Note_on_c, 0, 47, 31
2, 41638, Note_on_c, 0, 66, 46
2, 41666, Note_on_c, 0, 71, 57
2, 41667, Control_c, 0, 64, 63
2, 41681, Control_c, 0, 64, 0
2, 41709, Control_c, 0, 64, 63
2, 41721, Control_c, 0, 64, 127
2, 41727, Note_on_c, 0, 76, 55
2, 41786, Note_on_c, 0, 78, 68
2, 41836, Note_on_c, 0, 66, 0
2, 41955, Note_on_c, 0, 54, 63
2, 41971, Note_on_c, 0, 71, 0
2, 41985, Note_on_c, 0, 47, 0
2, 42039, Note_on_c, 0, 78, 0
2, 42042, Note_on_c, 0, 76, 0
2, 42188, Note_on_c, 0, 59, 57
2, 42195, Note_on_c, 0, 54, 0
2, 42249, Note_on_c, 0, 59, 0
2, 42420, Note_on_c, 0, 64, 60
2, 42456, Note_on_c, 0, 64, 0
2, 42576, Note_on_c, 0, 63, 58
2, 42586, Control_c, 0, 64, 63
2, 42616, Control_c, 0, 64, 127
2, 42619, Note_on_c, 0, 66, 34
2, 42663, Note_on_c, 0, 63, 0
2, 42669, Note_on_c, 0, 71, 45
2, 42700, Note_on_c, 0, 66, 0
2, 42700, Note_on_c, 0, 75, 67
2, 42703, Note_on_c, 0, 47, 32
2, 42724, Note_on_c, 0, 75, 0
2, 42725, Note_on_c, 0, 71, 0
2, 42800, Note_on_c, 0, 78, 81
2, 42841, Note_on_c, 0, 78, 0
2, 42897, Note_on_c, 0, 47, 0
2, 42994, Note_on_c, 0, 54, 48
2, 43209, Note_on_c, 0, 54, 0
2, 43222, Note_on_c, 0, 59, 28
2, 43255, Note_on_c, 0, 73, 62
2, 43263, Note_on_c, 0, 69, 24
2, 43283, Note_on_c, 0, 59, 0
2, 43320, Note_on_c, 0, 69, 0
2, 43362, Note_on_c, 0, 73, 0
2, 43561, Note_on_c, 0, 63, 61
2, 43604, Note_on_c, 0, 63, 0
2, 43782, Note_on_c, 0, 64, 43
2, 43808, Note_on_c, 0, 68, 65
2, 43816, Control_c, 0, 64, 63
2, 43833, Control_c, 0, 64, 127
2, 43882, Note_on_c, 0, 71, 52
2, 43905, Note_on_c, 0, 64, 0
2, 43924, Note_on_c, 0, 68, 0
2, 43945, Note_on_c, 0, 71, 0
2, 43958, Note_on_c, 0, 40, 54
2, 44045, Note_on_c, 0, 80, 97
2, 44083, Note_on_c, 0, 80, 0
2, 44275, Note_on_c, 0, 40, 0
2, 44310, Note_on_c, 0, 52, 51
2, 44349, Note_on_c, 0, 52, 0
2, 44520, Note_on_c, 0, 59, 52
2, 44558, Note_on_c, 0, 80, 91
2, 44679, Note_on_c, 0, 80, 0
2, 44767, Note_on_c, 0, 62, 68
2, 44860, Note_on_c, 0, 81, 79
2, 44957, Note_on_c, 0, 81, 0
2, 44987, Note_on_c, 0, 64, 39
2, 44989, Note_on_c, 0, 80, 88
2, 45149, Note_on_c, 0, 62, 0
2, 45152, Note_on_c, 0, 59, 0
2, 45200, Note_on_c, 0, 80, 0
2, 45230, Note_on_c, 0, 59, 60
2, 45249, Note_on_c, 0, 64, 0
2, 45492, Note_on_c, 0, 62, 34
2, 45496, Note_on_c, 0, 76, 65
2, 45547, Note_on_c, 0, 59, 0
2, 45630, Note_on_c, 0, 78, 72
2, 45635, Note_on_c, 0, 76, 0
2, 45714, Note_on_c, 0, 76, 67
2, 45722, Note_on_c, 0, 78, 0
2, 45775, Note_on_c, 0, 75, 73
2, 45778, Note_on_c, 0, 76, 0
2, 45827, Note_on_c, 0, 75, 0
2, 45839, Note_on_c, 0, 76, 59
2, 45844, Note_on_c, 0, 52, 54
2, 45848, Note_on_c, 0, 62, 0
2, 45913, Note_on_c, 0, 78, 76
2, 45922, Note_on_c, 0, 76, 0
2, 45984, Note_on_c, 0, 80, 83
2, 45994, Note_on_c, 0, 78, 0
2, 46015, Note_on_c, 0, 52, 0
2, 46050, Note_on_c, 0, 80, 0
2, 46057, Note_on_c, 0, 81, 75
2, 46132, Note_on_c, 0, 81, 0
2, 46136, Note_on_c, 0, 83, 75
2, 46242, Note_on_c, 0, 45, 38
2, 46284, Note_on_c, 0, 83, 0
2, 46313, Note_on_c, 0, 85, 84
2, 46373, Control_c, 0, 64, 63
2, 46406, Control_c, 0, 64, 0
2, 46618, Note_on_c, 0, 52, 51
2, 46690, Control_c, 0, 64, 63
2, 46694, Control_c, 0, 64, 127
2, 46800, Note_on_c, 0, 45, 0
2, 46857, Note_on_c, 0, 52, 0
2, 46861, Note_on_c, 0, 57, 41
2, 47117, Note_on_c, 0, 61, 40
2, 47179, Note_on_c, 0, 57, 0
2, 47428, Note_on_c, 0, 64, 35
2, 47495, Note_on_c, 0, 61, 0
2, 47730, Note_on_c, 0, 61, 28
2, 48219, Note_on_c, 0, 69, 22
2, 48381, Note_on_c, 0, 85, 0
2, 48478, Note_on_c, 0, 69, 0
2, 48524, Note_on_c, 0, 64, 0
2, 48538, Note_on_c, 0, 61, 0
2, 49321, Note_on_c, 0, 61, 30
2, 49346, Control_c, 0, 64, 63
2, 49376, Control_c, 0, 64, 127
2, 49475, Note_on_c, 0, 61, 0
2, 49544, Note_on_c, 0, 42, 43
2, 49639, Note_on_c, 0, 42, 0
2, 49645, Note_on_c, 0, 69, 50
2, 49703, Note_on_c, 0, 73, 54
2, 49713, Note_on_c, 0, 69, 0
2, 49767, Note_on_c, 0, 73, 0
2, 49799, Note_on_c, 0, 81, 71
2, 49841, Note_on_c, 0, 81, 0
2, 49986, Note_on_c, 0, 49, 42
2, 50210, Note_on_c, 0, 54, 54
2, 50417, Note_on_c, 0, 57, 46
2, 50483, Note_on_c, 0, 54, 0
2, 50501, Control_c, 0, 64, 63
2, 50514, Note_on_c, 0, 63, 52
2, 50545, Control_c, 0, 64, 127
2, 50604, Note_on_c, 0, 69, 41
2, 50621, Note_on_c, 0, 63, 0
2, 50657, Note_on_c, 0, 49, 0
2, 50669, Note_on_c, 0, 47, 46
2, 50718, Note_on_c, 0, 57, 0
2, 50735, Note_on_c, 0, 69, 0
2, 50746, Note_on_c, 0, 78, 79
2, 50824, Note_on_c, 0, 78, 0
2, 50954, Note_on_c, 0, 54, 73
2, 51104, Note_on_c, 0, 47, 0
2, 51150, Note_on_c, 0, 59, 66
2, 51171, Note_on_c, 0, 78, 84
2, 51173, Note_on_c, 0, 54, 0
2, 51210, Note_on_c, 0, 59, 0
2, 51320, Note_on_c, 0, 78, 0
2, 51389, Note_on_c, 0, 63, 77
2, 51418, Note_on_c, 0, 63, 0
2, 51477, Note_on_c, 0, 80, 83
2, 51520, Note_on_c, 0, 80, 0
2, 51623, Note_on_c, 0, 49, 55
2, 51647, Control_c, 0, 64, 63
2, 51649, Note_on_c, 0, 76, 84
2, 51652, Note_on_c, 0, 68, 77
2, 51656, Note_on_c, 0, 64, 52
2, 51657, Control_c, 0, 64, 0
2, 51685, Control_c, 0, 64, 63
2, 51699, Control_c, 0, 64, 127
2, 51766, Note_on_c, 0, 64, 0
2, 51779, Note_on_c, 0, 49, 0
2, 51808, Note_on_c, 0, 68, 0
2, 51852, Note_on_c, 0, 76, 0
2, 51917, Note_on_c, 0, 64, 49
2, 51918, Note_on_c, 0, 56, 51
2, 51958, Note_on_c, 0, 64, 0
2, 51987, Note_on_c, 0, 56, 0
2, 52136, Note_on_c, 0, 61, 63
2, 52150, Control_c, 0, 64, 63
2, 52183, Control_c, 0, 64, 127
2, 52220, Note_on_c, 0, 69, 34
2, 52220, Note_on_c, 0, 42, 38
2, 52244, Note_on_c, 0, 61, 0
2, 52288, Note_on_c, 0, 73, 64
2, 52310, Note_on_c, 0, 69, 0
2, 52344, Note_on_c, 0, 42, 0
2, 52351, Note_on_c, 0, 73, 0
2, 52421, Note_on_c, 0, 81, 82
2, 52473, Note_on_c, 0, 81, 0
2, 52554, Note_on_c, 0, 49, 61
2, 52772, Note_on_c, 0, 54, 59
2, 52994, Note_on_c, 0, 57, 63
2, 53029, Note_on_c, 0, 54, 0
2, 53125, Note_on_c, 0, 49, 0
2, 53155, Note_on_c, 0, 57, 0
2, 53187, Note_on_c, 0, 61, 65
2, 53288, Note_on_c, 0, 61, 0
2, 53430, Note_on_c, 0, 54, 50
2, 53570, Note_on_c, 0, 63, 53
2, 53600, Control_c, 0, 64, 63
2, 53607, Control_c, 0, 64, 0
2, 53631, Control_c, 0, 64, 63
2, 53644, Control_c, 0, 64, 127
2, 53646, Note_on_c, 0, 69, 51
2, 53697, Note_on_c, 0, 63, 0
2, 53711, Note_on_c, 0, 73, 63
2, 53716, Note_on_c, 0, 47, 34
2, 53777, Note_on_c, 0, 54, 0
2, 53790, Note_on_c, 0, 69, 0
2, 53812, Note_on_c, 0, 78, 69
2, 53919, Note_on_c, 0, 73, 0
2, 53972, Note_on_c, 0, 54, 64
2, 54047, Note_on_c, 0, 78, 0
2, 54100, Note_on_c, 0, 47, 0
2, 54188, Note_on_c, 0, 59, 53
2, 54193, Note_on_c, 0, 78, 78
2, 54199, Note_on_c, 0, 75, 62
2, 54200, Note_on_c, 0, 54, 0
2, 54205, Note_on_c, 0, 71, 55
2, 54251, Note_on_c, 0, 59, 0
2, 54286, Note_on_c, 0, 71, 0
2, 54314, Note_on_c, 0, 75, 0
2, 54394, Note_on_c, 0, 78, 0
2, 54427, Note_on_c, 0, 80, 89
2, 54428, Note_on_c, 0, 63, 67
2, 54437, Note_on_c, 0, 69, 57
2, 54471, Note_on_c, 0, 63, 0
2, 54482, Note_on_c, 0, 80, 0
2, 54487, Note_on_c, 0, 69, 0
2, 54662, Note_on_c, 0, 64, 45
2, 54663, Note_on_c, 0, 52, 52
2, 54670, Note_on_c, 0, 76, 83
2, 54672, Note_on_c, 0, 68, 52
2, 54747, Control_c, 0, 64, 63
2, 54761, Control_c, 0, 64, 0
2, 54911, Note_on_c, 0, 59, 59
2, 54927, Control_c, 0, 64, 63
2, 54929, Note_on_c, 0, 64, 0
2, 54931, Control_c, 0, 64, 127
2, 55005, Note_on_c, 0, 68, 0
2, 55011, Note_on_c, 0, 76, 0
2, 55165, Note_on_c, 0, 61, 52
2, 55167, Note_on_c, 0, 73, 67
2, 55178, Note_on_c, 0, 69, 40
2, 55202, Control_c, 0, 64, 63
2, 55203, Note_on_c, 0, 59, 0
2, 55223, Control_c, 0, 64, 0
2, 55245, Control_c, 0, 64, 63
2, 55259, Control_c, 0, 64, 127
2, 55381, Note_on_c, 0, 61, 0
2, 55445, Note_on_c, 0, 75, 59
2, 55453, Note_on_c, 0, 60, 49
2, 55463, Note_on_c, 0, 73, 0
2, 55606, Note_on_c, 0, 69, 0
2, 55656, Note_on_c, 0, 75, 0
2, 55687, Note_on_c, 0, 60, 0
2, 55770, Note_on_c, 0, 68, 29
2, 55772, Note_on_c, 0, 59, 38
2, 55773, Note_on_c, 0, 76, 55
2, 55860, Control_c, 0, 64, 63
2, 55882, Control_c, 0, 64, 0
2, 55976, Control_c, 0, 64, 63
2, 55988, Control_c, 0, 64, 127
2, 56166, Note_on_c, 0, 68, 0
2, 56174, Note_on_c, 0, 59, 0
2, 56177, Note_on_c, 0, 76, 0
2, 56205, Note_on_c, 0, 52, 0
2, 56511, Control_c, 0, 64, 63
2, 56532, Control_c, 0, 64, 0
2, 58155, Note_on_c, 0, 47, 63
2, 58229, Control_c, 0, 64, 63
2, 58231, Control_c, 0, 64, 127
2, 58238, Note_on_c, 0, 63, 67
2, 58318, Note_on_c, 0, 63, 0
2, 58394, Note_on_c, 0, 78, 87
2, 58513, Note_on_c, 0, 54, 70
2, 58555, Note_on_c, 0, 47, 0
2, 58582, Note_on_c, 0, 78, 0
2, 58763, Note_on_c, 0, 54, 0
2, 58775, Note_on_c, 0, 59, 56
2, 58801, Note_on_c, 0, 80, 88
2, 58828, Note_on_c, 0, 59, 0
2, 58864, Note_on_c, 0, 80, 0
2, 59073, Note_on_c, 0, 63, 66
2, 59074, Note_on_c, 0, 82, 85
2, 59116, Note_on_c, 0, 63, 0
2, 59129, Note_on_c, 0, 82, 0
2, 59267, Note_on_c, 0, 59, 46
2, 59279, Note_on_c, 0, 83, 90
2, 59381, Control_c, 0, 64, 63
2, 59410, Note_on_c, 0, 85, 88
2, 59418, Control_c, 0, 64, 127
2, 59444, Note_on_c, 0, 83, 0
2, 59500, Note_on_c, 0, 83, 85
2, 59513, Note_on_c, 0, 66, 68
2, 59518, Note_on_c, 0, 59, 0
2, 59522, Note_on_c, 0, 85, 0
2, 59572, Note_on_c, 0, 82, 106
2, 59586, Note_on_c, 0, 83, 0
2, 59588, Note_on_c, 0, 66, 0
2, 59635, Note_on_c, 0, 83, 97
2, 59640, Note_on_c, 0, 82, 0
2, 59735, Note_on_c, 0, 59, 52
2, 59740, Note_on_c, 0, 85, 104
2, 59760, Note_on_c, 0, 83, 0
2, 59891, Note_on_c, 0, 59, 0
2, 59918, Note_on_c, 0, 85, 0
2, 60001, Note_on_c, 0, 54, 80
2, 60071, Note_on_c, 0, 54, 0
2, 60143, Note_on_c, 0, 87, 97
2, 60244, Note_on_c, 0, 87, 0
2, 60332, Note_on_c, 0, 49, 80
2, 60371, Note_on_c, 0, 87, 96
2, 60456, Control_c, 0, 64, 63
2, 60479, Control_c, 0, 64, 0
2, 60590, Control_c, 0, 64, 63
2, 60597, Control_c, 0, 64, 127
2, 60654, Note_on_c, 0, 56, 75
2, 60710, Note_on_c, 0, 49, 0
2, 60796, Note_on_c, 0, 87, 0
2, 60897, Note_on_c, 0, 59, 66
2, 61060, Note_on_c, 0, 56, 0
2, 61120, Note_on_c, 0, 64, 48
2, 61170, Note_on_c, 0, 59, 0
2, 61335, Note_on_c, 0, 59, 42
2, 61337, Note_on_c, 0, 64, 0
2, 61354, Note_on_c, 0, 76, 78
2, 61586, Note_on_c, 0, 59, 0
2, 61587, Note_on_c, 0, 64, 33
2, 61809, Note_on_c, 0, 56, 38
2, 61861, Note_on_c, 0, 64, 0
2, 61939, Note_on_c, 0, 56, 0
2, 62076, Note_on_c, 0, 49, 54
2, 62098, Note_on_c, 0, 76, 0
2, 62116, Note_on_c, 0, 49, 0
2, 62428, Note_on_c, 0, 42, 63
2, 62435, Note_on_c, 0, 76, 64
2, 62510, Control_c, 0, 64, 63
2, 62521, Control_c, 0, 64, 0
2, 62566, Control_c, 0, 64, 63
2, 62574, Control_c, 0, 64, 127
2, 62665, Note_on_c, 0, 78, 73
2, 62688, Note_on_c, 0, 76, 0
2, 62748, Note_on_c, 0, 42, 0
2, 62749, Note_on_c, 0, 49, 54
2, 62777, Note_on_c, 0, 76, 84
2, 62800, Note_on_c, 0, 78, 0
2, 62857, Note_on_c, 0, 75, 92
2, 62872, Note_on_c, 0, 76, 0
2, 62902, Note_on_c, 0, 49, 0
2, 62914, Note_on_c, 0, 75, 0
2, 62921, Note_on_c, 0, 76, 90
2, 62967, Note_on_c, 0, 58, 71
2, 63017, Note_on_c, 0, 76, 0
2, 63020, Note_on_c, 0, 58, 0
2, 63046, Note_on_c, 0, 87, 99
2, 63087, Note_on_c, 0, 87, 0
2, 63233, Note_on_c, 0, 64, 56
2, 63265, Note_on_c, 0, 85, 88
2, 63311, Note_on_c, 0, 64, 0
2, 63356, Note_on_c, 0, 85, 0
2, 63443, Note_on_c, 0, 58, 43
2, 63472, Note_on_c, 0, 83, 86
2, 63552, Note_on_c, 0, 83, 0
2, 63588, Note_on_c, 0, 82, 76
2, 63626, Note_on_c, 0, 83, 77
2, 63629, Note_on_c, 0, 82, 0
2, 63662, Note_on_c, 0, 82, 80
2, 63666, Note_on_c, 0, 83, 0
2, 63678, Note_on_c, 0, 58, 0
2, 63684, Note_on_c, 0, 64, 55
2, 63720, Note_on_c, 0, 82, 0
2, 63726, Note_on_c, 0, 80, 73
2, 63798, Note_on_c, 0, 80, 0
2, 63846, Note_on_c, 0, 82, 88
2, 63917, Note_on_c, 0, 82, 0
2, 63949, Note_on_c, 0, 58, 54
2, 63968, Note_on_c, 0, 83, 88
2, 64156, Note_on_c, 0, 64, 0
2, 64162, Note_on_c, 0, 83, 0
2, 64190, Note_on_c, 0, 54, 63
2, 64210, Note_on_c, 0, 58, 0
2, 64239, Note_on_c, 0, 54, 0
2, 64283, Note_on_c, 0, 85, 84
2, 64383, Note_on_c, 0, 85, 0
2, 64395, Note_on_c, 0, 47, 76
2, 64446, Note_on_c, 0, 85, 78
2, 64518, Control_c, 0, 64, 63
2, 64540, Control_c, 0, 64, 0
2, 64587, Control_c, 0, 64, 63
2, 64599, Control_c, 0, 64, 127
2, 64673, Note_on_c, 0, 54, 72
2, 64749, Note_on_c, 0, 47, 0
2, 64788, Note_on_c, 0, 85, 0
2, 64884, Note_on_c, 0, 59, 68
2, 64889, Note_on_c, 0, 54, 0
2, 64949, Note_on_c, 0, 59, 0
2, 64981, Note_on_c, 0, 83, 62
2, 65077, Note_on_c, 0, 82, 67
2, 65081, Note_on_c, 0, 83, 0
2, 65118, Note_on_c, 0, 63, 59
2, 65154, Note_on_c, 0, 80, 66
2, 65158, Note_on_c, 0, 82, 0
2, 65220, Note_on_c, 0, 78, 70
2, 65232, Note_on_c, 0, 80, 0
2, 65233, Note_on_c, 0, 63, 0
2, 65281, Note_on_c, 0, 78, 0
2, 65286, Note_on_c, 0, 76, 68
2, 65379, Note_on_c, 0, 59, 39
2, 65390, Note_on_c, 0, 75, 73
2, 65397, Note_on_c, 0, 76, 0
2, 65470, Control_c, 0, 64, 63
2, 65513, Control_c, 0, 64, 127
2, 65627, Note_on_c, 0, 66, 57
2, 65655, Note_on_c, 0, 59, 0
2, 65763, Note_on_c, 0, 66, 0
2, 65841, Note_on_c, 0, 59, 52
2, 66042, Note_on_c, 0, 59, 0
2, 66113, Note_on_c, 0, 51, 68
2, 66358, Note_on_c, 0, 51, 0
2, 66384, Note_on_c, 0, 75, 0
2, 66427, Note_on_c, 0, 52, 49
2, 66453, Note_on_c, 0, 73, 68
2, 66534, Control_c, 0, 64, 63
2, 66555, Control_c, 0, 64, 0
2, 66667, Control_c, 0, 64, 63
2, 66677, Control_c, 0, 64, 127
2, 66736, Note_on_c, 0, 54, 48
2, 66803, Note_on_c, 0, 73, 0
2, 66850, Note_on_c, 0, 52, 0
2, 66955, Note_on_c, 0, 75, 76
2, 66955, Note_on_c, 0, 58, 49
2, 67090, Note_on_c, 0, 75, 0
2, 67110, Note_on_c, 0, 54, 0
2, 67145, Note_on_c, 0, 58, 0
2, 67163, Note_on_c, 0, 66, 59
2, 67224, Note_on_c, 0, 66, 0
2, 67263, Note_on_c, 0, 70, 81
2, 67333, Note_on_c, 0, 70, 0
2, 67371, Note_on_c, 0, 51, 61
2, 67381, Note_on_c, 0, 71, 65
2, 67417, Control_c, 0, 64, 63
2, 67457, Control_c, 0, 64, 127
2, 67512, Note_on_c, 0, 71, 0
2, 67513, Note_on_c, 0, 73, 56
2, 67563, Note_on_c, 0, 73, 0
2, 67564, Note_on_c, 0, 54, 51
2, 67572, Note_on_c, 0, 71, 54
2, 67583, Note_on_c, 0, 51, 0
2, 67608, Note_on_c, 0, 73, 61
2, 67612, Note_on_c, 0, 71, 0
2, 67647, Note_on_c, 0, 71, 77
2, 67655, Note_on_c, 0, 73, 0
2, 67694, Note_on_c, 0, 70, 81
2, 67696, Note_on_c, 0, 71, 0
2, 67739, Note_on_c, 0, 70, 0
2, 67744, Note_on_c, 0, 71, 87
2, 67778, Note_on_c, 0, 59, 50
2, 67798, Note_on_c, 0, 73, 88
2, 67812, Note_on_c, 0, 71, 0
2, 67828, Control_c, 0, 64, 63
2, 67848, Control_c, 0, 64, 0
2, 67894, Control_c, 0, 64, 63
2, 67904, Control_c, 0, 64, 127
2, 68003, Note_on_c, 0, 74, 89
2, 68008, Note_on_c, 0, 66, 72
2, 68036, Note_on_c, 0, 73, 0
2, 68104, Note_on_c, 0, 54, 0
2, 68135, Note_on_c, 0, 74, 0
2, 68137, Note_on_c, 0, 66, 0
2, 68189, Note_on_c, 0, 54, 63
2, 68198, Note_on_c, 0, 59, 0
2, 68215, Note_on_c, 0, 75, 89
2, 68259, Control_c, 0, 64, 63
2, 68273, Control_c, 0, 64, 0
2, 68335, Control_c, 0, 64, 63
2, 68342, Control_c, 0, 64, 127
2, 68430, Note_on_c, 0, 56, 70
2, 68458, Note_on_c, 0, 76, 92
2, 68472, Note_on_c, 0, 75, 0
2, 68472, Note_on_c, 0, 54, 0
2, 68655, Note_on_c, 0, 60, 84
2, 68678, Note_on_c, 0, 56, 0
2, 68713, Note_on_c, 0, 76, 0
2, 68729, Note_on_c, 0, 60, 0
2, 68848, Note_on_c, 0, 68, 74
2, 68855, Note_on_c, 0, 72, 97
2, 68887, Note_on_c, 0, 68, 0
2, 68952, Note_on_c, 0, 72, 0
2, 69037, Note_on_c, 0, 52, 69
2, 69050, Note_on_c, 0, 73, 90
2, 69101, Control_c, 0, 64, 63
2, 69110, Control_c, 0, 64, 0
2, 69157, Control_c, 0, 64, 63
2, 69168, Control_c, 0, 64, 127
2, 69189, Note_on_c, 0, 75, 86
2, 69195, Note_on_c, 0, 73, 0
2, 69275, Note_on_c, 0, 56, 77
2, 69277, Note_on_c, 0, 73, 87
2, 69286, Note_on_c, 0, 52, 0
2, 69301, Note_on_c, 0, 75, 0
2, 69351, Note_on_c, 0, 56, 0
2, 69359, Note_on_c, 0, 72, 85
2, 69374, Note_on_c, 0, 73, 0
2, 69428, Note_on_c, 0, 73, 96
2, 69436, Note_on_c, 0, 72, 0
2, 69481, Note_on_c, 0, 61, 70
2, 69496, Note_on_c, 0, 75, 100
2, 69503, Note_on_c, 0, 73, 0
2, 69539, Note_on_c, 0, 61, 0
2, 69547, Note_on_c, 0, 75, 0
2, 69699, Note_on_c, 0, 68, 81
2, 69712, Note_on_c, 0, 76, 106
2, 69737, Note_on_c, 0, 68, 0
2, 69772, Note_on_c, 0, 76, 0
2, 69963, Note_on_c, 0, 47, 91
2, 70004, Note_on_c, 0, 78, 103
2, 70016, Note_on_c, 0, 75, 66
2, 70016, Note_on_c, 0, 69, 52
2, 70018, Note_on_c, 0, 71, 59
2, 70080, Control_c, 0, 64, 127
2, 70149, Control_c, 0, 64, 63
2, 70154, Control_c, 0, 64, 0
2, 70243, Control_c, 0, 64, 63
2, 70244, Control_c, 0, 64, 127
2, 70314, Note_on_c, 0, 54, 94
2, 70388, Note_on_c, 0, 71, 0
2, 70391, Note_on_c, 0, 69, 0
2, 70402, Note_on_c, 0, 75, 0
2, 70465, Note_on_c, 0, 78, 0
2, 70529, Note_on_c, 0, 59, 86
2, 70570, Note_on_c, 0, 79, 97
2, 70578, Note_on_c, 0, 69, 68
2, 70578, Note_on_c, 0, 71, 71
2, 70584, Note_on_c, 0, 75, 76
2, 70595, Control_c, 0, 64, 63
2, 70623, Control_c, 0, 64, 127
2, 70635, Note_on_c, 0, 47, 0
2, 70658, Note_on_c, 0, 54, 0
2, 70745, Note_on_c, 0, 59, 0
2, 70787, Note_on_c, 0, 69, 0
2, 70789, Note_on_c, 0, 71, 0
2, 70819, Note_on_c, 0, 79, 0
2, 70821, Note_on_c, 0, 63, 99
2, 70829, Note_on_c, 0, 75, 0
2, 70846, Note_on_c, 0, 63, 0
2, 71100, Note_on_c, 0, 40, 89
2, 71125, Control_c, 0, 64, 63
2, 71131, Control_c, 0, 64, 0
2, 71147, Note_on_c, 0, 68, 81
2, 71155, Note_on_c, 0, 52, 77
2, 71163, Control_c, 0, 64, 63
2, 71171, Control_c, 0, 64, 127
2, 71176, Note_on_c, 0, 71, 70
2, 71206, Note_on_c, 0, 68, 0
2, 71209, Note_on_c, 0, 76, 73
2, 71220, Note_on_c, 0, 40, 0
2, 71242, Note_on_c, 0, 80, 98
2, 71273, Note_on_c, 0, 71, 0
2, 71309, Note_on_c, 0, 76, 0
2, 71336, Note_on_c, 0, 80, 0
2, 71365, Note_on_c, 0, 52, 0
2, 71485, Note_on_c, 0, 80, 89
2, 71579, Note_on_c, 0, 56, 80
2, 71659, Note_on_c, 0, 80, 0
2, 71708, Note_on_c, 0, 80, 93
2, 71796, Note_on_c, 0, 80, 0
2, 71820, Note_on_c, 0, 59, 57
2, 71879, Note_on_c, 0, 56, 0
2, 71933, Note_on_c, 0, 80, 79
2, 72090, Note_on_c, 0, 80, 0
2, 72191, Note_on_c, 0, 64, 43
2, 72210, Note_on_c, 0, 59, 0
2, 72253, Note_on_c, 0, 80, 65
2, 72324, Note_on_c, 0, 64, 0
2, 72355, Note_on_c, 0, 80, 0
2, 72774, Note_on_c, 0, 42, 47
2, 72873, Note_on_c, 0, 64, 45
2, 72906, Control_c, 0, 67, 127
2, 72929, Control_c, 0, 64, 63
2, 72944, Control_c, 0, 64, 0
2, 72945, Note_on_c, 0, 70, 65
2, 73005, Control_c, 0, 64, 63
2, 73010, Control_c, 0, 64, 127
2, 73017, Note_on_c, 0, 64, 0
2, 73047, Note_on_c, 0, 73, 61
2, 73081, Note_on_c, 0, 70, 0
2, 73122, Note_on_c, 0, 73, 0
2, 73193, Note_on_c, 0, 80, 67
2, 73243, Note_on_c, 0, 42, 0
2, 73270, Note_on_c, 0, 80, 0
2, 73310, Note_on_c, 0, 49, 54
2, 73547, Note_on_c, 0, 49, 0
2, 73561, Note_on_c, 0, 54, 49
2, 73640, Note_on_c, 0, 54, 0
2, 73679, Note_on_c, 0, 79, 60
2, 73773, Note_on_c, 0, 79, 0
2, 73806, Note_on_c, 0, 58, 46
2, 73873, Note_on_c, 0, 78, 77
2, 73901, Note_on_c, 0, 58, 0
2, 73953, Note_on_c, 0, 78, 0
2, 74036, Note_on_c, 0, 61, 60
2, 74049, Note_on_c, 0, 77, 62
2, 74146, Note_on_c, 0, 77, 0
2, 74161, Note_on_c, 0, 61, 0
2, 74192, Note_on_c, 0, 76, 68
2, 74218, Note_on_c, 0, 64, 48
2, 74263, Note_on_c, 0, 76, 0
2, 74347, Note_on_c, 0, 75, 65
2, 74371, Note_on_c, 0, 66, 40
2, 74381, Note_on_c, 0, 64, 0
2, 74433, Note_on_c, 0, 75, 0
2, 74576, Note_on_c, 0, 66, 0
2, 74587, Note_on_c, 0, 70, 33
2, 74588, Note_on_c, 0, 73, 50
2, 74634, Note_on_c, 0, 70, 0
2, 75654, Control_c, 0, 64, 63
2, 75732, Control_c, 0, 64, 0
2, 75750, Control_c, 0, 67, 0
2, 76086, Note_on_c, 0, 74, 47
2, 76131, Note_on_c, 0, 73, 0
2, 76624, Note_on_c, 0, 47, 28
2, 76650, Note_on_c, 0, 75, 62
2, 76703, Note_on_c, 0, 74, 0
2, 77006, Note_on_c, 0, 54, 50
2, 77046, Control_c, 0, 64, 63
2, 77050, Control_c, 0, 64, 127
2, 77192, Control_c, 0, 67, 127
2, 77296, Note_on_c, 0, 59, 34
2, 77308, Note_on_c, 0, 63, 56
2, 77379, Note_on_c, 0, 54, 0
2, 77446, Note_on_c, 0, 63, 0
2, 77473, Note_on_c, 0, 47, 0
2, 77511, Note_on_c, 0, 75, 0
2, 77567, Note_on_c, 0, 59, 0
2, 77572, Note_on_c, 0, 54, 43
2, 77586, Note_on_c, 0, 76, 67
2, 77669, Note_on_c, 0, 76, 0
2, 77795, Note_on_c, 0, 47, 37
2, 77840, Note_on_c, 0, 54, 0
2, 77847, Note_on_c, 0, 78, 76
2, 77882, Control_c, 0, 64, 63
2, 77912, Control_c, 0, 64, 127
2, 78040, Note_on_c, 0, 80, 65
2, 78041, Note_on_c, 0, 78, 0
2, 78082, Note_on_c, 0, 47, 0
2, 78092, Note_on_c, 0, 54, 61
2, 78126, Note_on_c, 0, 78, 70
2, 78154, Note_on_c, 0, 80, 0
2, 78194, Note_on_c, 0, 77, 80
2, 78206, Note_on_c, 0, 78, 0
2, 78246, Note_on_c, 0, 78, 74
2, 78263, Note_on_c, 0, 77, 0
2, 78334, Note_on_c, 0, 63, 60
2, 78340, Note_on_c, 0, 83, 84
2, 78341, Note_on_c, 0, 78, 0
2, 78342, Note_on_c, 0, 59, 52
2, 78474, Note_on_c, 0, 54, 0
2, 78535, Note_on_c, 0, 63, 0
2, 78597, Note_on_c, 0, 54, 33
2, 78603, Note_on_c, 0, 83, 0
2, 78603, Note_on_c, 0, 87, 88
2, 78611, Note_on_c, 0, 59, 0
2, 78676, Note_on_c, 0, 54, 0
2, 78749, Note_on_c, 0, 87, 0
2, 78860, Note_on_c, 0, 42, 71
2, 78925, Note_on_c, 0, 85, 82
2, 78940, Control_c, 0, 64, 63
2, 78951, Control_c, 0, 64, 0
2, 78988, Control_c, 0, 64, 63
2, 78995, Control_c, 0, 64, 127
2, 79054, Note_on_c, 0, 42, 0
2, 79189, Note_on_c, 0, 54, 55
2, 79404, Note_on_c, 0, 58, 54
2, 79417, Note_on_c, 0, 64, 48
2, 79421, Note_on_c, 0, 54, 0
2, 79462, Note_on_c, 0, 85, 0
2, 79507, Note_on_c, 0, 58, 0
2, 79574, Note_on_c, 0, 64, 0
2, 79628, Note_on_c, 0, 82, 76
2, 79637, Note_on_c, 0, 54, 54
2, 79686, Note_on_c, 0, 54, 0
2, 79849, Note_on_c, 0, 42, 41
2, 79896, Note_on_c, 0, 82, 0
2, 79905, Note_on_c, 0, 78, 70
2, 80014, Control_c, 0, 64, 63
2, 80073, Control_c, 0, 64, 127
2, 80141, Note_on_c, 0, 54, 50
2, 80176, Note_on_c, 0, 42, 0
2, 80206, Note_on_c, 0, 54, 0
2, 80408, Note_on_c, 0, 66, 53
2, 80463, Note_on_c, 0, 78, 0
2, 80469, Note_on_c, 0, 66, 0
2, 80684, Note_on_c, 0, 54, 34
2, 80701, Note_on_c, 0, 76, 65
2, 80764, Note_on_c, 0, 76, 0
2, 80918, Note_on_c, 0, 47, 52
2, 80964, Note_on_c, 0, 54, 0
2, 80981, Note_on_c, 0, 75, 82
2, 81033, Control_c, 0, 64, 63
2, 81058, Control_c, 0, 64, 0
2, 81126, Control_c, 0, 64, 63
2, 81137, Control_c, 0, 64, 127
2, 81226, Note_on_c, 0, 54, 67
2, 81232, Note_on_c, 0, 47, 0
2, 81276, Note_on_c, 0, 54, 0
2, 81422, Note_on_c, 0, 63, 64
2, 81442, Note_on_c, 0, 59, 33
2, 81482, Note_on_c, 0, 75, 0
2, 81497, Note_on_c, 0, 63, 0
2, 81501, Note_on_c, 0, 59, 0
2, 81635, Note_on_c, 0, 54, 57
2, 81636, Note_on_c, 0, 76, 85
2, 81673, Note_on_c, 0, 54, 0
2, 81684, Note_on_c, 0, 76, 0
2, 81804, Note_on_c, 0, 47, 64
2, 81866, Control_c, 0, 64, 63
2, 81870, Note_on_c, 0, 78, 92
2, 81910, Note_on_c, 0, 80, 77
2, 81915, Note_on_c, 0, 78, 0
2, 81921, Control_c, 0, 64, 127
2, 81951, Note_on_c, 0, 78, 76
2, 81977, Note_on_c, 0, 80, 0
2, 82001, Note_on_c, 0, 77, 75
2, 82014, Note_on_c, 0, 78, 0
2, 82112, Note_on_c, 0, 78, 86
2, 82112, Note_on_c, 0, 54, 70
2, 82126, Note_on_c, 0, 47, 0
2, 82131, Note_on_c, 0, 77, 0
2, 82221, Note_on_c, 0, 80, 95
2, 82229, Note_on_c, 0, 78, 0
2, 82292, Note_on_c, 0, 54, 0
2, 82355, Note_on_c, 0, 80, 0
2, 82367, Note_on_c, 0, 66, 89
2, 82374, Note_on_c, 0, 82, 82
2, 82405, Note_on_c, 0, 66, 0
2, 82477, Note_on_c, 0, 82, 0
2, 82506, Note_on_c, 0, 83, 88
2, 82583, Note_on_c, 0, 83, 0
2, 82601, Note_on_c, 0, 54, 78
2, 82623, Note_on_c, 0, 85, 108
2, 82639, Note_on_c, 0, 54, 0
2, 82717, Note_on_c, 0, 85, 0
2, 82731, Note_on_c, 0, 87, 105
2, 82824, Note_on_c, 0, 87, 0
2, 82831, Note_on_c, 0, 42, 88
2, 82877, Note_on_c, 0, 87, 101
2, 82893, Control_c, 0, 64, 63
2, 82900, Control_c, 0, 64, 0
2, 82954, Control_c, 0, 64, 63
2, 82958, Control_c, 0, 64, 127
2, 83008, Note_on_c, 0, 42, 0
2, 83151, Note_on_c, 0, 54, 61
2, 83184, Note_on_c, 0, 85, 91
2, 83213, Note_on_c, 0, 87, 0
2, 83374, Note_on_c, 0, 58, 61
2, 83385, Note_on_c, 0, 64, 49
2, 83391, Note_on_c, 0, 54, 0
2, 83455, Note_on_c, 0, 58, 0
2, 83482, Note_on_c, 0, 64, 0
2, 83589, Note_on_c, 0, 82, 85
2, 83596, Note_on_c, 0, 54, 66
2, 83618, Note_on_c, 0, 85, 0
2, 83642, Note_on_c, 0, 54, 0
2, 83793, Note_on_c, 0, 42, 64
2, 83843, Control_c, 0, 64, 63
2, 83863, Control_c, 0, 64, 0
2, 83894, Control_c, 0, 64, 63
2, 83905, Control_c, 0, 64, 127
2, 84030, Note_on_c, 0, 78, 80
2, 84032, Note_on_c, 0, 54, 51
2, 84038, Note_on_c, 0, 82, 0
2, 84052, Note_on_c, 0, 42, 0
2, 84094, Note_on_c, 0, 54, 0
2, 84211, Note_on_c, 0, 78, 0
2, 84272, Note_on_c, 0, 66, 60
2, 84337, Note_on_c, 0, 66, 0
2, 84531, Note_on_c, 0, 54, 53
2, 84535, Note_on_c, 0, 76, 65
2, 84636, Note_on_c, 0, 76, 0
2, 84741, Note_on_c, 0, 54, 0
2, 84857, Note_on_c, 0, 47, 44
2, 84892, Note_on_c, 0, 75, 73
2, 84935, Control_c, 0, 64, 63
2, 84967, Control_c, 0, 64, 0
2, 84996, Control_c, 0, 64, 63
2, 85013, Control_c, 0, 64, 127
2, 85175, Note_on_c, 0, 54, 49
2, 85216, Control_c, 0, 67, 0
2, 85267, Note_on_c, 0, 75, 0
2, 85357, Note_on_c, 0, 47, 0
2, 85414, Note_on_c, 0, 59, 34
2, 85438, Note_on_c, 0, 80, 62
2, 85457, Note_on_c, 0, 54, 0
2, 85545, Note_on_c, 0, 59, 0
2, 85631, Note_on_c, 0, 80, 0
2, 85690, Note_on_c, 0, 63, 46
2, 85731, Note_on_c, 0, 63, 0
2, 85790, Note_on_c, 0, 78, 72
2, 85919, Note_on_c, 0, 47, 47
2, 85924, Note_on_c, 0, 77, 80
2, 85960, Note_on_c, 0, 78, 0
2, 85983, Control_c, 0, 64, 63
2, 86030, Control_c, 0, 64, 127
2, 86127, Note_on_c, 0, 53, 61
2, 86149, Note_on_c, 0, 47, 0
2, 86168, Note_on_c, 0, 77, 0
2, 86320, Note_on_c, 0, 82, 81
2, 86323, Note_on_c, 0, 56, 55
2, 86459, Note_on_c, 0, 82, 0
2, 86524, Note_on_c, 0, 61, 71
2, 86564, Note_on_c, 0, 56, 0
2, 86568, Note_on_c, 0, 53, 0
2, 86576, Note_on_c, 0, 61, 0
2, 86611, Note_on_c, 0, 80, 93
2, 86720, Note_on_c, 0, 46, 75
2, 86734, Note_on_c, 0, 78, 90
2, 86758, Control_c, 0, 64, 63
2, 86772, Control_c, 0, 64, 0
2, 86786, Note_on_c, 0, 80, 0
2, 86836, Control_c, 0, 64, 63
2, 86841, Control_c, 0, 64, 127
2, 86943, Note_on_c, 0, 49, 71
2, 86988, Note_on_c, 0, 46, 0
2, 87015, Note_on_c, 0, 78, 0
2, 87139, Note_on_c, 0, 54, 75
2, 87154, Note_on_c, 0, 83, 90
2, 87327, Note_on_c, 0, 83, 0
2, 87372, Note_on_c, 0, 61, 95
2, 87440, Note_on_c, 0, 54, 0
2, 87458, Note_on_c, 0, 61, 0
2, 87476, Note_on_c, 0, 82, 104
2, 87557, Note_on_c, 0, 49, 0
2, 87585, Note_on_c, 0, 82, 0
2, 87635, Note_on_c, 0, 48, 81
2, 87640, Note_on_c, 0, 80, 90
2, 87749, Control_c, 0, 64, 127
2, 87798, Note_on_c, 0, 78, 96
2, 87819, Note_on_c, 0, 80, 0
2, 87871, Note_on_c, 0, 78, 0
2, 87935, Note_on_c, 0, 54, 85
2, 87960, Note_on_c, 0, 94, 94
2, 87997, Note_on_c, 0, 48, 0
2, 88038, Note_on_c, 0, 94, 0
2, 88184, Note_on_c, 0, 92, 91
2, 88209, Note_on_c, 0, 54, 0
2, 88232, Note_on_c, 0, 92, 0
2, 88300, Note_on_c, 0, 56, 76
2, 88307, Note_on_c, 0, 90, 88
2, 88360, Note_on_c, 0, 56, 0
2, 88402, Note_on_c, 0, 90, 0
2, 88436, Note_on_c, 0, 89, 92
2, 88523, Note_on_c, 0, 89, 0
2, 88557, Note_on_c, 0, 92, 81
2, 88568, Note_on_c, 0, 63, 61
2, 88643, Note_on_c, 0, 63, 0
2, 88672, Note_on_c, 0, 90, 87
2, 88677, Note_on_c, 0, 92, 0
2, 88750, Note_on_c, 0, 89, 70
2, 88780, Note_on_c, 0, 90, 0
2, 88825, Note_on_c, 0, 90, 84
2, 88834, Note_on_c, 0, 89, 0
2, 88908, Note_on_c, 0, 87, 86
2, 88915, Note_on_c, 0, 90, 0
2, 88982, Control_c, 0, 64, 63
2, 88982, Note_on_c, 0, 49, 84
2, 88988, Control_c, 0, 64, 0
2, 89006, Note_on_c, 0, 87, 0
2, 89022, Note_on_c, 0, 85, 81
2, 89029, Control_c, 0, 64, 63
2, 89035, Control_c, 0, 64, 127
2, 89079, Note_on_c, 0, 85, 0
2, 89187, Note_on_c, 0, 49, 0
2, 89197, Note_on_c, 0, 99, 94
2, 89237, Note_on_c, 0, 99, 0
2, 89332, Note_on_c, 0, 90, 86
2, 89373, Note_on_c, 0, 90, 0
2, 89452, Note_on_c, 0, 58, 76
2, 89461, Note_on_c, 0, 97, 76
2, 89475, Note_on_c, 0, 58, 0
2, 89541, Note_on_c, 0, 97, 0
2, 89576, Note_on_c, 0, 85, 76
2, 89636, Note_on_c, 0, 85, 0
2, 89661, Note_on_c, 0, 95, 80
2, 89720, Note_on_c, 0, 95, 0
2, 89741, Note_on_c, 0, 61, 75
2, 89744, Note_on_c, 0, 90, 79
2, 89788, Note_on_c, 0, 61, 0
2, 89822, Note_on_c, 0, 90, 0
2, 89826, Note_on_c, 0, 94, 70
2, 89886, Note_on_c, 0, 94, 0
2, 89903, Note_on_c, 0, 82, 79
2, 89959, Note_on_c, 0, 82, 0
2, 89978, Note_on_c, 0, 92, 80
2, 89979, Note_on_c, 0, 66, 66
2, 90014, Note_on_c, 0, 66, 0
2, 90052, Note_on_c, 0, 85, 52
2, 90057, Note_on_c, 0, 92, 0
2, 90121, Note_on_c, 0, 90, 76
2, 90132, Note_on_c, 0, 85, 0
2, 90198, Note_on_c, 0, 49, 65
2, 90210, Note_on_c, 0, 90, 0
2, 90218, Control_c, 0, 64, 63
2, 90220, Note_on_c, 0, 80, 67
2, 90244, Control_c, 0, 64, 127
2, 90288, Note_on_c, 0, 89, 71
2, 90297, Note_on_c, 0, 80, 0
2, 90367, Note_on_c, 0, 83, 63
2, 90376, Note_on_c, 0, 89, 0
2, 90437, Note_on_c, 0, 49, 0
2, 90451, Note_on_c, 0, 87, 75
2, 90454, Note_on_c, 0, 56, 45
2, 90457, Note_on_c, 0, 83, 0
2, 90520, Note_on_c, 0, 87, 0
2, 90537, Note_on_c, 0, 77, 67
2, 90605, Note_on_c, 0, 77, 0
2, 90615, Note_on_c, 0, 85, 76
2, 90708, Note_on_c, 0, 80, 72
2, 90719, Note_on_c, 0, 85, 0
2, 90721, Note_on_c, 0, 61, 59
2, 90763, Note_on_c, 0, 56, 0
2, 90812, Note_on_c, 0, 80, 0
2, 90814, Note_on_c, 0, 83, 60
2, 90852, Note_on_c, 0, 61, 0
2, 90896, Note_on_c, 0, 83, 0
2, 90907, Note_on_c, 0, 71, 60
2, 90991, Note_on_c, 0, 71, 0
2, 91016, Note_on_c, 0, 82, 75
2, 91042, Note_on_c, 0, 65, 14
2, 91069, Note_on_c, 0, 65, 0
2, 91114, Note_on_c, 0, 82, 0
2, 91125, Note_on_c, 0, 77, 49
2, 91239, Note_on_c, 0, 80, 72
2, 91247, Note_on_c, 0, 77, 0
2, 91386, Note_on_c, 0, 80, 0
2, 91392, Note_on_c, 0, 42, 57
2, 91415, Note_on_c, 0, 78, 64
2, 91432, Note_on_c, 0, 70, 44
2, 91514, Control_c, 0, 64, 63
2, 91535, Control_c, 0, 64, 0
2, 91588, Control_c, 0, 64, 63
2, 91598, Control_c, 0, 64, 127
2, 91726, Note_on_c, 0, 42, 0
2, 91730, Note_on_c, 0, 54, 61
2, 91763, Note_on_c, 0, 78, 0
2, 91770, Note_on_c, 0, 70, 0
2, 91780, Note_on_c, 0, 54, 0
2, 91982, Note_on_c, 0, 64, 71
2, 92016, Note_on_c, 0, 64, 0
2, 92231, Note_on_c, 0, 68, 70
2, 92287, Note_on_c, 0, 68, 0
2, 92433, Note_on_c, 0, 61, 57
2, 92682, Note_on_c, 0, 64, 44
2, 92688, Note_on_c, 0, 61, 0
2, 92806, Note_on_c, 0, 64, 0
2, 92938, Note_on_c, 0, 54, 36
2, 93023, Control_c, 0, 64, 63
2, 93075, Control_c, 0, 64, 127
2, 93244, Note_on_c, 0, 66, 43
2, 93322, Note_on_c, 0, 66, 0
2, 93388, Note_on_c, 0, 54, 0
2, 93599, Note_on_c, 0, 47, 45
2, 93641, Note_on_c, 0, 75, 58
2, 93650, Note_on_c, 0, 71, 28
2, 93712, Control_c, 0, 64, 63
2, 93756, Control_c, 0, 64, 127
2, 93834, Note_on_c, 0, 71, 0
2, 93865, Note_on_c, 0, 47, 0
2, 93874, Note_on_c, 0, 75, 0
2, 93941, Note_on_c, 0, 54, 56
2, 93958, Note_on_c, 0, 76, 59
2, 93962, Note_on_c, 0, 73, 63
2, 94018, Note_on_c, 0, 54, 0
2, 94067, Note_on_c, 0, 76, 0
2, 94097, Note_on_c, 0, 75, 78
2, 94106, Note_on_c, 0, 71, 60
2, 94110, Note_on_c, 0, 73, 0
2, 94143, Note_on_c, 0, 71, 0
2, 94200, Note_on_c, 0, 75, 0
2, 94211, Note_on_c, 0, 74, 78
2, 94220, Note_on_c, 0, 59, 41
2, 94223, Note_on_c, 0, 70, 46
2, 94224, Note_on_c, 0, 63, 38
2, 94262, Note_on_c, 0, 63, 0
2, 94265, Note_on_c, 0, 59, 0
2, 94296, Note_on_c, 0, 70, 0
2, 94312, Note_on_c, 0, 71, 73
2, 94316, Note_on_c, 0, 75, 80
2, 94326, Note_on_c, 0, 74, 0
2, 94392, Note_on_c, 0, 71, 0
2, 94411, Note_on_c, 0, 75, 0
2, 94431, Note_on_c, 0, 76, 79
2, 94434, Note_on_c, 0, 73, 70
2, 94442, Note_on_c, 0, 54, 57
2, 94471, Note_on_c, 0, 54, 0
2, 94478, Note_on_c, 0, 76, 0
2, 94482, Note_on_c, 0, 73, 0
2, 94515, Note_on_c, 0, 77, 93
2, 94519, Note_on_c, 0, 74, 77
2, 94560, Note_on_c, 0, 77, 0
2, 94613, Note_on_c, 0, 74, 0
2, 94625, Note_on_c, 0, 47, 54
2, 94629, Note_on_c, 0, 78, 88
2, 94641, Note_on_c, 0, 75, 67
2, 94674, Control_c, 0, 64, 63
2, 94694, Control_c, 0, 64, 0
2, 94716, Control_c, 0, 64, 63
2, 94735, Control_c, 0, 64, 127
2, 94748, Note_on_c, 0, 77, 90
2, 94750, Note_on_c, 0, 74, 62
2, 94756, Note_on_c, 0, 75, 0
2, 94772, Note_on_c, 0, 78, 0
2, 94830, Note_on_c, 0, 47, 0
2, 94841, Note_on_c, 0, 54, 73
2, 94850, Note_on_c, 0, 78, 92
2, 94851, Note_on_c, 0, 74, 0
2, 94856, Note_on_c, 0, 75, 63
2, 94874, Note_on_c, 0, 77, 0
2, 94891, Note_on_c, 0, 75, 0
2, 94931, Note_on_c, 0, 80, 95
2, 94938, Note_on_c, 0, 76, 77
2, 94959, Note_on_c, 0, 78, 0
2, 95001, Note_on_c, 0, 80, 0
2, 95001, Note_on_c, 0, 54, 0
2, 95017, Note_on_c, 0, 76, 0
2, 95051, Note_on_c, 0, 59, 41
2, 95056, Note_on_c, 0, 82, 88
2, 95061, Note_on_c, 0, 63, 43
2, 95076, Note_on_c, 0, 73, 39
2, 95077, Control_c, 0, 64, 63
2, 95110, Control_c, 0, 64, 127
2, 95173, Note_on_c, 0, 73, 0
2, 95186, Note_on_c, 0, 75, 88
2, 95189, Note_on_c, 0, 83, 85
2, 95192, Note_on_c, 0, 82, 0
2, 95196, Note_on_c, 0, 59, 0
2, 95207, Note_on_c, 0, 63, 0
2, 95229, Note_on_c, 0, 75, 0
2, 95248, Note_on_c, 0, 83, 0
2, 95328, Note_on_c, 0, 78, 87
2, 95329, Note_on_c, 0, 85, 88
2, 95334, Note_on_c, 0, 54, 54
2, 95361, Note_on_c, 0, 78, 0
2, 95380, Note_on_c, 0, 85, 0
2, 95401, Note_on_c, 0, 54, 0
2, 95564, Note_on_c, 0, 87, 81
2, 95570, Note_on_c, 0, 83, 69
2, 95604, Note_on_c, 0, 87, 0
2, 95605, Note_on_c, 0, 83, 0
2, 95657, Note_on_c, 0, 42, 52
2, 95658, Note_on_c, 0, 87, 86
2, 95661, Note_on_c, 0, 83, 50
2, 95665, Control_c, 0, 64, 63
2, 95670, Control_c, 0, 64, 0
2, 95742, Control_c, 0, 64, 63
2, 95744, Control_c, 0, 64, 127
2, 95803, Note_on_c, 0, 42, 0
2, 95959, Note_on_c, 0, 54, 67
2, 95991, Note_on_c, 0, 83, 0
2, 95991, Note_on_c, 0, 87, 0
2, 96013, Note_on_c, 0, 54, 0
2, 96181, Note_on_c, 0, 61, 71
2, 96194, Note_on_c, 0, 64, 49
2, 96233, Note_on_c, 0, 61, 0
2, 96243, Note_on_c, 0, 64, 0
2, 96302, Note_on_c, 0, 85, 82
2, 96315, Note_on_c, 0, 82, 54
2, 96345, Note_on_c, 0, 82, 0
2, 96407, Note_on_c, 0, 85, 0
2, 96418, Note_on_c, 0, 54, 62
2, 96427, Note_on_c, 0, 73, 80
2, 96455, Note_on_c, 0, 54, 0
2, 96500, Note_on_c, 0, 73, 0
2, 96520, Note_on_c, 0, 80, 80
2, 96523, Note_on_c, 0, 76, 69
2, 96598, Control_c, 0, 64, 63
2, 96610, Note_on_c, 0, 76, 0
2, 96610, Note_on_c, 0, 42, 65
2, 96622, Note_on_c, 0, 83, 75
2, 96629, Control_c, 0, 64, 127
2, 96673, Note_on_c, 0, 42, 0
2, 96674, Note_on_c, 0, 83, 0
2, 96691, Note_on_c, 0, 80, 0
2, 96730, Note_on_c, 0, 82, 95
2, 96747, Note_on_c, 0, 78, 37
2, 96776, Note_on_c, 0, 78, 0
2, 96799, Note_on_c, 0, 82, 0
2, 96833, Note_on_c, 0, 70, 80
2, 96839, Note_on_c, 0, 54, 74
2, 96926, Note_on_c, 0, 78, 88
2, 96927, Note_on_c, 0, 75, 88
2, 96935, Note_on_c, 0, 54, 0
2, 96935, Note_on_c, 0, 70, 0
2, 97005, Note_on_c, 0, 75, 0
2, 97033, Note_on_c, 0, 78, 0
2, 97054, Note_on_c, 0, 82, 81
2, 97061, Note_on_c, 0, 66, 51
2, 97167, Note_on_c, 0, 66, 0
2, 97191, Note_on_c, 0, 82, 0
2, 97192, Note_on_c, 0, 80, 76
2, 97197, Note_on_c, 0, 76, 54
2, 97237, Note_on_c, 0, 76, 0
2, 97298, Note_on_c, 0, 80, 0
2, 97320, Note_on_c, 0, 73, 74
2, 97348, Note_on_c, 0, 54, 46
2, 97435, Note_on_c, 0, 54, 0
2, 97458, Note_on_c, 0, 78, 83
2, 97479, Note_on_c, 0, 73, 0
2, 97582, Note_on_c, 0, 47, 59
2, 97618, Note_on_c, 0, 78, 0
2, 97641, Note_on_c, 0, 75, 83
2, 97653, Control_c, 0, 64, 63
2, 97654, Note_on_c, 0, 71, 55
2, 97672, Control_c, 0, 64, 0
2, 97696, Control_c, 0, 64, 63
2, 97711, Control_c, 0, 64, 127
2, 97801, Note_on_c, 0, 75, 0
2, 97806, Note_on_c, 0, 76, 54
2, 97847, Note_on_c, 0, 76, 0
2, 97878, Note_on_c, 0, 71, 0
2, 97882, Note_on_c, 0, 47, 0
2, 97893, Note_on_c, 0, 54, 61
2, 97895, Note_on_c, 0, 75, 81
2, 97935, Note_on_c, 0, 76, 63
2, 97936, Note_on_c, 0, 75, 0
2, 97969, Note_on_c, 0, 76, 0
2, 97975, Note_on_c, 0, 75, 65
2, 97999, Note_on_c, 0, 76, 63
2, 98008, Note_on_c, 0, 75, 0
2, 98037, Note_on_c, 0, 75, 76
2, 98049, Note_on_c, 0, 54, 0
2, 98050, Note_on_c, 0, 76, 0
2, 98080, Note_on_c, 0, 75, 0
2, 98107, Note_on_c, 0, 74, 68
2, 98109, Note_on_c, 0, 59, 57
2, 98110, Note_on_c, 0, 70, 82
2, 98133, Note_on_c, 0, 63, 41
2, 98206, Note_on_c, 0, 70, 0
2, 98235, Note_on_c, 0, 59, 0
2, 98238, Note_on_c, 0, 71, 73
2, 98238, Note_on_c, 0, 75, 104
2, 98245, Note_on_c, 0, 63, 0
2, 98254, Note_on_c, 0, 74, 0
2, 98334, Note_on_c, 0, 54, 71
2, 98339, Note_on_c, 0, 73, 99
2, 98341, Note_on_c, 0, 71, 0
2, 98345, Note_on_c, 0, 76, 97
2, 98368, Note_on_c, 0, 75, 0
2, 98379, Note_on_c, 0, 54, 0
2, 98417, Note_on_c, 0, 77, 101
2, 98430, Note_on_c, 0, 73, 0
2, 98431, Note_on_c, 0, 74, 76
2, 98438, Note_on_c, 0, 76, 0
2, 98451, Note_on_c, 0, 74, 0
2, 98457, Note_on_c, 0, 77, 0
2, 98511, Note_on_c, 0, 47, 74
2, 98541, Control_c, 0, 64, 63
2, 98551, Note_on_c, 0, 78, 84
2, 98557, Note_on_c, 0, 75, 70
2, 98568, Control_c, 0, 64, 127
2, 98590, Note_on_c, 0, 80, 85
2, 98592, Note_on_c, 0, 78, 0
2, 98622, Note_on_c, 0, 78, 77
2, 98640, Note_on_c, 0, 80, 0
2, 98657, Note_on_c, 0, 47, 0
2, 98668, Note_on_c, 0, 75, 0
2, 98718, Note_on_c, 0, 77, 89
2, 98719, Note_on_c, 0, 74, 75
2, 98733, Note_on_c, 0, 78, 0
2, 98755, Note_on_c, 0, 74, 0
2, 98783, Note_on_c, 0, 77, 0
2, 98830, Note_on_c, 0, 54, 65
2, 98830, Note_on_c, 0, 78, 104
2, 98834, Note_on_c, 0, 75, 88
2, 98851, Note_on_c, 0, 75, 0
2, 98861, Note_on_c, 0, 78, 0
2, 98868, Note_on_c, 0, 54, 0
2, 99037, Note_on_c, 0, 80, 75
2, 99042, Note_on_c, 0, 76, 73
2, 99068, Note_on_c, 0, 76, 0
2, 99079, Note_on_c, 0, 80, 0
2, 99120, Note_on_c, 0, 80, 81
2, 99122, Note_on_c, 0, 63, 78
2, 99122, Note_on_c, 0, 76, 41
2, 99127, Note_on_c, 0, 59, 35
2, 99136, Control_c, 0, 64, 63
2, 99171, Control_c, 0, 64, 127
2, 99260, Note_on_c, 0, 73, 85
2, 99263, Note_on_c, 0, 80, 0
2, 99263, Note_on_c, 0, 82, 79
2, 99266, Note_on_c, 0, 76, 0
2, 99266, Note_on_c, 0, 63, 0
2, 99270, Note_on_c, 0, 59, 0
2, 99300, Note_on_c, 0, 73, 0
2, 99310, Note_on_c, 0, 82, 0
2, 99418, Note_on_c, 0, 83, 80
2, 99423, Note_on_c, 0, 75, 77
2, 99445, Note_on_c, 0, 75, 0
2, 99458, Note_on_c, 0, 83, 0
2, 99481, Note_on_c, 0, 75, 72
2, 99484, Note_on_c, 0, 83, 77
2, 99494, Note_on_c, 0, 54, 65
2, 99514, Note_on_c, 0, 75, 0
2, 99527, Note_on_c, 0, 83, 0
2, 99542, Note_on_c, 0, 54, 0
2, 99592, Note_on_c, 0, 85, 96
2, 99604, Note_on_c, 0, 78, 72
2, 99633, Note_on_c, 0, 85, 0
2, 99706, Note_on_c, 0, 78, 0
2, 99780, Note_on_c, 0, 87, 83
2, 99791, Note_on_c, 0, 83, 49
2, 99821, Note_on_c, 0, 87, 0
2, 99823, Note_on_c, 0, 83, 0
2, 99860, Note_on_c, 0, 83, 60
2, 99862, Note_on_c, 0, 87, 63
2, 99863, Note_on_c, 0, 42, 49
2, 99872, Control_c, 0, 64, 63
2, 99901, Control_c, 0, 64, 0
2, 99909, Control_c, 0, 64, 63
2, 99928, Control_c, 0, 64, 127
2, 99993, Note_on_c, 0, 42, 0
2, 100016, Note_on_c, 0, 82, 86
2, 100018, Note_on_c, 0, 85, 81
2, 100044, Note_on_c, 0, 87, 0
2, 100047, Note_on_c, 0, 83, 0
2, 100103, Note_on_c, 0, 54, 69
2, 100166, Note_on_c, 0, 88, 78
2, 100168, Note_on_c, 0, 82, 0
2, 100171, Note_on_c, 0, 85, 0
2, 100209, Note_on_c, 0, 88, 0
2, 100225, Note_on_c, 0, 54, 0
2, 100283, Note_on_c, 0, 73, 88
2, 100377, Note_on_c, 0, 61, 57
2, 100399, Note_on_c, 0, 73, 0
2, 100406, Note_on_c, 0, 64, 18
2, 100408, Note_on_c, 0, 85, 88
2, 100415, Note_on_c, 0, 82, 76
2, 100437, Note_on_c, 0, 61, 0
2, 100473, Note_on_c, 0, 64, 0
2, 100512, Note_on_c, 0, 85, 0
2, 100514, Note_on_c, 0, 80, 87
2, 100515, Note_on_c, 0, 83, 82
2, 100540, Note_on_c, 0, 82, 0
2, 100597, Note_on_c, 0, 83, 0
2, 100601, Note_on_c, 0, 80, 0
2, 100608, Note_on_c, 0, 54, 59
2, 100616, Note_on_c, 0, 87, 99
2, 100652, Note_on_c, 0, 54, 0
2, 100660, Note_on_c, 0, 87, 0
2, 100733, Note_on_c, 0, 71, 90
2, 100839, Control_c, 0, 64, 63
2, 100839, Note_on_c, 0, 42, 78
2, 100845, Control_c, 0, 64, 0
2, 100890, Control_c, 0, 64, 63
2, 100891, Note_on_c, 0, 83, 79
2, 100893, Note_on_c, 0, 80, 73
2, 100897, Control_c, 0, 64, 127
2, 100951, Note_on_c, 0, 71, 0
2, 100962, Note_on_c, 0, 42, 0
2, 100976, Note_on_c, 0, 83, 0
2, 101014, Note_on_c, 0, 78, 84
2, 101015, Note_on_c, 0, 82, 97
2, 101036, Note_on_c, 0, 80, 0
2, 101092, Note_on_c, 0, 78, 0
2, 101101, Note_on_c, 0, 82, 0
2, 101103, Note_on_c, 0, 54, 62
2, 101143, Note_on_c, 0, 85, 92
2, 101188, Note_on_c, 0, 85, 0
2, 101332, Note_on_c, 0, 70, 98
2, 101429, Control_c, 0, 64, 63
2, 101433, Note_on_c, 0, 66, 61
2, 101451, Control_c, 0, 64, 0
2, 101483, Control_c, 0, 64, 63
2, 101484, Note_on_c, 0, 82, 84
2, 101487, Note_on_c, 0, 78, 76
2, 101495, Control_c, 0, 64, 127
2, 101601, Note_on_c, 0, 66, 0
2, 101618, Note_on_c, 0, 70, 0
2, 101624, Note_on_c, 0, 54, 0
2, 101633, Note_on_c, 0, 80, 89
2, 101639, Note_on_c, 0, 82, 0
2, 101643, Note_on_c, 0, 76, 78
2, 101670, Note_on_c, 0, 78, 0
2, 101740, Note_on_c, 0, 54, 63
2, 101774, Note_on_c, 0, 80, 0
2, 101798, Note_on_c, 0, 73, 91
2, 101801, Note_on_c, 0, 76, 0
2, 101854, Note_on_c, 0, 54, 0
2, 101919, Note_on_c, 0, 73, 0
2, 101927, Note_on_c, 0, 78, 91
2, 102029, Note_on_c, 0, 76, 88
2, 102066, Note_on_c, 0, 78, 0
2, 102158, Note_on_c, 0, 47, 76
2, 102171, Note_on_c, 0, 71, 65
2, 102172, Note_on_c, 0, 75, 80
2, 102184, Note_on_c, 0, 76, 0
2, 102229, Control_c, 0, 64, 63
2, 102236, Control_c, 0, 64, 0
2, 102302, Control_c, 0, 64, 63
2, 102305, Control_c, 0, 64, 127
2, 102348, Note_on_c, 0, 75, 0
2, 102401, Note_on_c, 0, 73, 67
2, 102407, Note_on_c, 0, 76, 82
2, 102420, Note_on_c, 0, 71, 0
2, 102508, Note_on_c, 0, 54, 86
2, 102557, Note_on_c, 0, 73, 0
2, 102587, Note_on_c, 0, 75, 100
2, 102594, Note_on_c, 0, 71, 66
2, 102613, Note_on_c, 0, 76, 0
2, 102616, Note_on_c, 0, 47, 0
2, 102645, Note_on_c, 0, 71, 0
2, 102728, Note_on_c, 0, 75, 0
2, 102738, Note_on_c, 0, 59, 66
2, 102741, Note_on_c, 0, 74, 93
2, 102751, Note_on_c, 0, 70, 84
2, 102752, Control_c, 0, 64, 63
2, 102768, Control_c, 0, 64, 127
2, 102846, Note_on_c, 0, 54, 0
2, 102847, Note_on_c, 0, 70, 0
2, 102855, Note_on_c, 0, 59, 0
2, 102897, Note_on_c, 0, 75, 104
2, 102903, Note_on_c, 0, 74, 0
2, 102904, Note_on_c, 0, 71, 83
2, 102964, Note_on_c, 0, 71, 0
2, 102972, Note_on_c, 0, 63, 87
2, 103012, Note_on_c, 0, 63, 0
2, 103019, Note_on_c, 0, 75, 0
2, 103053, Note_on_c, 0, 76, 96
2, 103055, Note_on_c, 0, 73, 89
2, 103056, Note_on_c, 0, 70, 86
2, 103110, Note_on_c, 0, 73, 0
2, 103144, Note_on_c, 0, 70, 0
2, 103196, Note_on_c, 0, 47, 93
2, 103232, Note_on_c, 0, 76, 0
2, 103237, Control_c, 0, 64, 63
2, 103243, Control_c, 0, 64, 0
2, 103247, Note_on_c, 0, 75, 93
2, 103248, Note_on_c, 0, 78, 97
2, 103258, Note_on_c, 0, 71, 67
2, 103258, Note_on_c, 0, 69, 68
2, 103370, Control_c, 0, 64, 63
2, 103370, Control_c, 0, 64, 127
2, 103504, Note_on_c, 0, 71, 0
2, 103506, Note_on_c, 0, 54, 101
2, 103507, Note_on_c, 0, 69, 0
2, 103515, Note_on_c, 0, 47, 0
2, 103534, Note_on_c, 0, 78, 0
2, 103537, Note_on_c, 0, 75, 0
2, 103605, Note_on_c, 0, 54, 0
2, 103707, Note_on_c, 0, 59, 89
2, 103727, Note_on_c, 0, 79, 107
2, 103732, Note_on_c, 0, 69, 87
2, 103732, Note_on_c, 0, 71, 96
2, 103797, Note_on_c, 0, 59, 0
2, 103799, Note_on_c, 0, 71, 0
2, 103800, Note_on_c, 0, 69, 0
2, 103865, Note_on_c, 0, 79, 0
2, 103966, Note_on_c, 0, 63, 108
2, 103994, Note_on_c, 0, 63, 0
2, 104196, Control_c, 0, 64, 63
2, 104199, Note_on_c, 0, 40, 94
2, 104203, Control_c, 0, 64, 0
2, 104242, Note_on_c, 0, 68, 90
2, 104250, Control_c, 0, 64, 63
2, 104251, Control_c, 0, 64, 127
2, 104251, Note_on_c, 0, 52, 85
2, 104256, Note_on_c, 0, 71, 87
2, 104286, Note_on_c, 0, 40, 0
2, 104289, Note_on_c, 0, 80, 106
2, 104294, Note_on_c, 0, 68, 0
2, 104318, Note_on_c, 0, 52, 0
2, 104324, Note_on_c, 0, 71, 0
2, 104408, Note_on_c, 0, 80, 0
2, 104568, Note_on_c, 0, 64, 81
2, 104569, Note_on_c, 0, 59, 76
2, 104577, Note_on_c, 0, 56, 76
2, 104588, Note_on_c, 0, 64, 0
2, 104591, Note_on_c, 0, 59, 0
2, 104612, Note_on_c, 0, 56, 0
2, 104700, Note_on_c, 0, 67, 84
2, 104733, Control_c, 0, 64, 63
2, 104738, Control_c, 0, 64, 0
2, 104751, Note_on_c, 0, 73, 86
2, 104768, Note_on_c, 0, 75, 89
2, 104770, Control_c, 0, 64, 63
2, 104773, Control_c, 0, 64, 127
2, 104778, Note_on_c, 0, 67, 0
2, 104809, Note_on_c, 0, 73, 0
2, 104828, Note_on_c, 0, 39, 89
2, 104832, Note_on_c, 0, 75, 0
2, 104842, Note_on_c, 0, 82, 104
2, 104846, Note_on_c, 0, 51, 103
2, 104862, Note_on_c, 0, 39, 0
2, 104877, Note_on_c, 0, 51, 0
2, 104880, Note_on_c, 0, 82, 0
2, 105103, Note_on_c, 0, 67, 96
2, 105106, Note_on_c, 0, 58, 99
2, 105106, Note_on_c, 0, 63, 97
2, 105123, Note_on_c, 0, 67, 0
2, 105133, Note_on_c, 0, 63, 0
2, 105147, Note_on_c, 0, 58, 0
2, 105268, Note_on_c, 0, 71, 94
2, 105299, Note_on_c, 0, 75, 86
2, 105325, Control_c, 0, 64, 63
2, 105330, Control_c, 0, 64, 0
2, 105363, Control_c, 0, 64, 63
2, 105365, Note_on_c, 0, 80, 105
2, 105367, Control_c, 0, 64, 127
2, 105407, Note_on_c, 0, 32, 94
2, 105411, Note_on_c, 0, 44, 108
2, 105415, Note_on_c, 0, 83, 111
2, 105418, Note_on_c, 0, 71, 0
2, 105431, Note_on_c, 0, 75, 0
2, 105438, Note_on_c, 0, 32, 0
2, 105445, Note_on_c, 0, 80, 0
2, 105447, Note_on_c, 0, 44, 0
2, 105462, Note_on_c, 0, 83, 0
2, 105673, Note_on_c, 0, 56, 92
2, 105674, Note_on_c, 0, 68, 106
2, 105677, Note_on_c, 0, 59, 87
2, 105700, Note_on_c, 0, 68, 0
2, 105715, Note_on_c, 0, 59, 0
2, 105727, Note_on_c, 0, 56, 0
2, 105998, Note_on_c, 0, 31, 101
2, 106045, Note_on_c, 0, 43, 113
2, 106062, Note_on_c, 0, 73, 87
2, 106065, Note_on_c, 0, 77, 84
2, 106068, Control_c, 0, 64, 63
2, 106071, Note_on_c, 0, 83, 85
2, 106072, Control_c, 0, 64, 0
2, 106086, Note_on_c, 0, 85, 112
2, 106118, Control_c, 0, 64, 63
2, 106122, Control_c, 0, 64, 127
2, 106167, Note_on_c, 0, 31, 0
2, 106205, Note_on_c, 0, 43, 0
2, 106235, Note_on_c, 0, 85, 0
2, 106235, Note_on_c, 0, 83, 0
2, 106245, Note_on_c, 0, 77, 0
2, 106267, Note_on_c, 0, 73, 0
2, 106391, Note_on_c, 0, 55, 84
2, 106448, Note_on_c, 0, 61, 88
2, 106461, Note_on_c, 0, 55, 0
2, 106469, Note_on_c, 0, 65, 92
2, 106481, Note_on_c, 0, 61, 0
2, 106492, Note_on_c, 0, 71, 104
2, 106499, Note_on_c, 0, 65, 0
2, 106518, Note_on_c, 0, 71, 0
2, 106965, Note_on_c, 0, 42, 106
2, 106967, Note_on_c, 0, 30, 104
2, 106987, Control_c, 0, 64, 63
2, 106992, Note_on_c, 0, 83, 89
2, 106995, Note_on_c, 0, 78, 86
2, 106997, Note_on_c, 0, 87, 104
2, 106998, Control_c, 0, 64, 0
2, 107004, Note_on_c, 0, 75, 63
2, 107072, Control_c, 0, 64, 63
2, 107076, Control_c, 0, 64, 127
2, 107168, Note_on_c, 0, 30, 0
2, 107196, Note_on_c, 0, 42, 0
2, 107267, Note_on_c, 0, 75, 0
2, 107302, Note_on_c, 0, 78, 0
2, 107319, Note_on_c, 0, 83, 0
2, 107357, Note_on_c, 0, 87, 0
2, 107431, Control_c, 0, 67, 127
2, 107495, Note_on_c, 0, 66, 76
2, 107681, Note_on_c, 0, 87, 83
2, 107689, Note_on_c, 0, 95, 97
2, 107736, Note_on_c, 0, 95, 0
2, 107766, Note_on_c, 0, 87, 0
2, 107813, Note_on_c, 0, 92, 89
2, 107829, Note_on_c, 0, 83, 60
2, 107859, Note_on_c, 0, 92, 0
2, 107899, Note_on_c, 0, 83, 0
2, 107921, Note_on_c, 0, 94, 85
2, 107922, Note_on_c, 0, 85, 75
2, 107926, Note_on_c, 0, 54, 56
2, 107974, Note_on_c, 0, 94, 0
2, 107998, Note_on_c, 0, 66, 0
2, 108023, Note_on_c, 0, 90, 82
2, 108032, Note_on_c, 0, 82, 69
2, 108033, Note_on_c, 0, 85, 0
2, 108073, Note_on_c, 0, 90, 0
2, 108074, Note_on_c, 0, 82, 0
2, 108095, Note_on_c, 0, 92, 81
2, 108105, Note_on_c, 0, 83, 72
2, 108159, Note_on_c, 0, 54, 0
2, 108165, Note_on_c, 0, 92, 0
2, 108180, Note_on_c, 0, 66, 57
2, 108189, Note_on_c, 0, 80, 77
2, 108190, Note_on_c, 0, 83, 0
2, 108194, Note_on_c, 0, 88, 75
2, 108238, Note_on_c, 0, 80, 0
2, 108247, Note_on_c, 0, 88, 0
2, 108249, Note_on_c, 0, 66, 0
2, 108255, Note_on_c, 0, 90, 88
2, 108262, Note_on_c, 0, 82, 96
2, 108325, Note_on_c, 0, 78, 88
2, 108338, Note_on_c, 0, 87, 88
2, 108339, Note_on_c, 0, 82, 0
2, 108342, Note_on_c, 0, 90, 0
2, 108379, Note_on_c, 0, 78, 0
2, 108408, Note_on_c, 0, 87, 0
2, 108411, Note_on_c, 0, 88, 90
2, 108416, Note_on_c, 0, 80, 90
2, 108416, Note_on_c, 0, 61, 55
2, 108422, Note_on_c, 0, 64, 41
2, 108457, Note_on_c, 0, 88, 0
2, 108489, Note_on_c, 0, 76, 88
2, 108492, Note_on_c, 0, 85, 96
2, 108503, Note_on_c, 0, 80, 0
2, 108513, Note_on_c, 0, 61, 0
2, 108518, Note_on_c, 0, 76, 0
2, 108540, Note_on_c, 0, 85, 0
2, 108562, Note_on_c, 0, 87, 100
2, 108576, Note_on_c, 0, 78, 88
2, 108622, Note_on_c, 0, 87, 0
2, 108643, Note_on_c, 0, 64, 0
2, 108646, Note_on_c, 0, 66, 63
2, 108658, Note_on_c, 0, 78, 0
2, 108661, Note_on_c, 0, 75, 78
2, 108665, Note_on_c, 0, 83, 72
2, 108701, Note_on_c, 0, 75, 0
2, 108710, Note_on_c, 0, 83, 0
2, 108731, Note_on_c, 0, 76, 63
2, 108742, Note_on_c, 0, 85, 75
2, 108775, Note_on_c, 0, 66, 0
2, 108827, Note_on_c, 0, 85, 0
2, 108829, Note_on_c, 0, 76, 0
2, 108832, Note_on_c, 0, 73, 82
2, 108840, Note_on_c, 0, 82, 76
2, 108882, Note_on_c, 0, 73, 0
2, 108889, Note_on_c, 0, 82, 0
2, 108921, Note_on_c, 0, 75, 76
2, 108924, Note_on_c, 0, 83, 73
2, 108934, Note_on_c, 0, 54, 60
2, 108970, Note_on_c, 0, 83, 0
2, 108997, Note_on_c, 0, 54, 0
2, 109015, Note_on_c, 0, 71, 60
2, 109017, Note_on_c, 0, 75, 0
2, 109018, Note_on_c, 0, 80, 81
2, 109062, Note_on_c, 0, 71, 0
2, 109080, Note_on_c, 0, 80, 0
2, 109113, Note_on_c, 0, 82, 82
2, 109124, Note_on_c, 0, 73, 74
2, 109172, Note_on_c, 0, 82, 0
2, 109249, Note_on_c, 0, 73, 0
2, 109266, Note_on_c, 0, 70, 67
2, 109268, Note_on_c, 0, 78, 72
2, 109268, Note_on_c, 0, 66, 68
2, 109305, Note_on_c, 0, 78, 0
2, 109311, Note_on_c, 0, 66, 0
2, 109315, Note_on_c, 0, 70, 0
2, 109334, Control_c, 0, 67, 127
2, 109439, Note_on_c, 0, 68, 67
2, 109441, Note_on_c, 0, 76, 72
2, 109489, Note_on_c, 0, 76, 0
2, 109490, Note_on_c, 0, 68, 0
2, 109617, Note_on_c, 0, 73, 60
2, 109619, Note_on_c, 0, 70, 54
2, 109629, Note_on_c, 0, 64, 48
2, 109672, Note_on_c, 0, 64, 0
2, 109674, Note_on_c, 0, 70, 0
2, 109716, Note_on_c, 0, 73, 0
2, 109900, Note_on_c, 0, 47, 46
2, 109912, Note_on_c, 0, 63, 36
2, 109915, Note_on_c, 0, 71, 61
2, 110124, Control_c, 0, 64, 63
2, 110127, Control_c, 0, 64, 127
2, 110229, Control_c, 0, 64, 63
2, 110235, Control_c, 0, 64, 0
2, 110258, Control_c, 0, 64, 63
2, 110266, Control_c, 0, 64, 127
2, 110279, Note_on_c, 0, 54, 61
2, 110405, Note_on_c, 0, 63, 0
2, 110473, Note_on_c, 0, 47, 0
2, 110537, Note_on_c, 0, 59, 54
2, 110538, Note_on_c, 0, 63, 70
2, 110560, Note_on_c, 0, 54, 0
2, 110619, Note_on_c, 0, 59, 0
2, 110630, Note_on_c, 0, 63, 0
2, 110697, Note_on_c, 0, 71, 0
2, 110770, Note_on_c, 0, 54, 54
2, 110800, Note_on_c, 0, 72, 84
2, 110880, Note_on_c, 0, 72, 0
2, 110957, Note_on_c, 0, 54, 0
2, 111038, Note_on_c, 0, 55, 60
2, 111081, Note_on_c, 0, 73, 78
2, 111125, Control_c, 0, 64, 63
2, 111130, Control_c, 0, 64, 0
2, 111185, Control_c, 0, 64, 63
2, 111191, Control_c, 0, 64, 127
2, 111396, Note_on_c, 0, 59, 41
2, 111405, Note_on_c, 0, 75, 79
2, 111412, Note_on_c, 0, 64, 27
2, 111455, Note_on_c, 0, 73, 0
2, 111571, Note_on_c, 0, 55, 0
2, 111571, Note_on_c, 0, 73, 84
2, 111621, Note_on_c, 0, 75, 0
2, 111629, Note_on_c, 0, 59, 0
2, 111694, Note_on_c, 0, 73, 0
2, 111694, Note_on_c, 0, 54, 60
2, 111695, Note_on_c, 0, 72, 84
2, 111725, Note_on_c, 0, 64, 0
2, 111743, Control_c, 0, 64, 63
2, 111771, Control_c, 0, 64, 127
2, 111815, Note_on_c, 0, 73, 89
2, 111833, Note_on_c, 0, 72, 0
2, 111923, Note_on_c, 0, 75, 87
2, 111932, Note_on_c, 0, 58, 55
2, 111935, Note_on_c, 0, 64, 37
2, 111947, Note_on_c, 0, 73, 0
2, 111987, Note_on_c, 0, 64, 0
2, 112001, Note_on_c, 0, 54, 0
2, 112004, Note_on_c, 0, 58, 0
2, 112035, Note_on_c, 0, 76, 93
2, 112043, Note_on_c, 0, 75, 0
2, 112147, Note_on_c, 0, 47, 70
2, 112163, Control_c, 0, 64, 63
2, 112172, Note_on_c, 0, 77, 84
2, 112181, Control_c, 0, 64, 0
2, 112186, Note_on_c, 0, 76, 0
2, 112201, Control_c, 0, 64, 63
2, 112217, Control_c, 0, 64, 127
2, 112314, Note_on_c, 0, 78, 95
2, 112355, Note_on_c, 0, 77, 0
2, 112368, Note_on_c, 0, 78, 0
2, 112390, Note_on_c, 0, 47, 0
2, 112425, Note_on_c, 0, 54, 54
2, 112469, Note_on_c, 0, 88, 84
2, 112611, Note_on_c, 0, 87, 90
2, 112624, Note_on_c, 0, 88, 0
2, 112728, Note_on_c, 0, 63, 51
2, 112731, Note_on_c, 0, 59, 48
2, 112737, Note_on_c, 0, 85, 77
2, 112781, Note_on_c, 0, 87, 0
2, 112833, Note_on_c, 0, 54, 0
2, 112836, Note_on_c, 0, 82, 94
2, 112852, Note_on_c, 0, 85, 0
2, 112888, Note_on_c, 0, 63, 0
2, 112903, Note_on_c, 0, 59, 0
2, 112932, Note_on_c, 0, 82, 0
2, 112943, Note_on_c, 0, 83, 86
2, 112953, Note_on_c, 0, 54, 53
2, 113003, Note_on_c, 0, 54, 0
2, 113035, Note_on_c, 0, 83, 0
2, 113046, Note_on_c, 0, 75, 88
2, 113154, Note_on_c, 0, 75, 0
2, 113166, Note_on_c, 0, 77, 68
2, 113169, Note_on_c, 0, 47, 59
2, 113223, Control_c, 0, 64, 63
2, 113235, Control_c, 0, 64, 0
2, 113281, Note_on_c, 0, 78, 84
2, 113294, Control_c, 0, 64, 63
2, 113303, Control_c, 0, 64, 127
2, 113312, Note_on_c, 0, 77, 0
2, 113405, Note_on_c, 0, 82, 72
2, 113419, Note_on_c, 0, 54, 58
2, 113424, Note_on_c, 0, 47, 0
2, 113438, Note_on_c, 0, 78, 0
2, 113538, Note_on_c, 0, 82, 0
2, 113540, Note_on_c, 0, 80, 78
2, 113665, Note_on_c, 0, 80, 0
2, 113675, Note_on_c, 0, 75, 81
2, 113689, Note_on_c, 0, 54, 0
2, 113700, Note_on_c, 0, 64, 59
2, 113712, Note_on_c, 0, 75, 0
2, 113833, Note_on_c, 0, 76, 73
2, 113986, Note_on_c, 0, 54, 43
2, 113997, Note_on_c, 0, 68, 51
2, 114020, Control_c, 0, 64, 63
2, 114048, Control_c, 0, 64, 127
2, 114143, Note_on_c, 0, 64, 0
2, 114166, Note_on_c, 0, 70, 57
2, 114168, Note_on_c, 0, 75, 65
2, 114175, Note_on_c, 0, 76, 0
2, 114182, Note_on_c, 0, 68, 0
2, 114182, Note_on_c, 0, 54, 0
2, 114339, Note_on_c, 0, 70, 0
2, 114393, Note_on_c, 0, 75, 0
2, 114410, Note_on_c, 0, 47, 40
2, 114416, Note_on_c, 0, 71, 60
2, 114616, Control_c, 0, 64, 63
2, 114618, Control_c, 0, 64, 127
2, 114700, Control_c, 0, 64, 63
2, 114704, Control_c, 0, 64, 0
2, 114762, Note_on_c, 0, 54, 56
2, 114769, Control_c, 0, 64, 63
2, 114771, Control_c, 0, 64, 127
2, 114824, Note_on_c, 0, 47, 0
2, 114856, Note_on_c, 0, 54, 0
2, 114956, Note_on_c, 0, 71, 0
2, 115049, Note_on_c, 0, 63, 58
2, 115050, Note_on_c, 0, 59, 52
2, 115103, Note_on_c, 0, 63, 0
2, 115107, Note_on_c, 0, 59, 0
2, 115289, Note_on_c, 0, 54, 61
2, 115294, Note_on_c, 0, 72, 77
2, 115426, Note_on_c, 0, 72, 0
2, 115434, Note_on_c, 0, 54, 0
2, 115528, Note_on_c, 0, 55, 49
2, 115573, Note_on_c, 0, 73, 73
2, 115578, Control_c, 0, 64, 63
2, 115629, Control_c, 0, 64, 127
2, 115735, Note_on_c, 0, 75, 78
2, 115772, Note_on_c, 0, 73, 0
2, 115833, Note_on_c, 0, 59, 43
2, 115845, Note_on_c, 0, 64, 26
2, 115860, Note_on_c, 0, 75, 0
2, 115884, Note_on_c, 0, 73, 70
2, 115922, Note_on_c, 0, 73, 0
2, 115923, Note_on_c, 0, 75, 79
2, 115964, Note_on_c, 0, 75, 0
2, 115964, Note_on_c, 0, 73, 65
2, 115971, Note_on_c, 0, 55, 0
2, 116011, Note_on_c, 0, 72, 78
2, 116016, Note_on_c, 0, 59, 0
2, 116021, Note_on_c, 0, 73, 0
2, 116092, Note_on_c, 0, 54, 58
2, 116096, Note_on_c, 0, 73, 96
2, 116122, Note_on_c, 0, 72, 0
2, 116122, Note_on_c, 0, 64, 0
2, 116148, Control_c, 0, 64, 63
2, 116168, Control_c, 0, 64, 0
2, 116210, Control_c, 0, 64, 63
2, 116212, Note_on_c, 0, 75, 95
2, 116219, Control_c, 0, 64, 127
2, 116233, Note_on_c, 0, 73, 0
2, 116316, Note_on_c, 0, 58, 57
2, 116318, Note_on_c, 0, 76, 94
2, 116325, Note_on_c, 0, 64, 35
2, 116335, Note_on_c, 0, 75, 0
2, 116415, Note_on_c, 0, 64, 0
2, 116419, Note_on_c, 0, 77, 99
2, 116425, Note_on_c, 0, 58, 0
2, 116437, Note_on_c, 0, 54, 0
2, 116438, Note_on_c, 0, 76, 0
2, 116548, Note_on_c, 0, 47, 67
2, 116557, Note_on_c, 0, 80, 94
2, 116581, Note_on_c, 0, 77, 0
2, 116594, Control_c, 0, 64, 63
2, 116608, Control_c, 0, 64, 0
2, 116654, Control_c, 0, 64, 63
2, 116660, Control_c, 0, 64, 127
2, 116687, Note_on_c, 0, 78, 98
2, 116715, Note_on_c, 0, 80, 0
2, 116738, Note_on_c, 0, 78, 0
2, 116761, Note_on_c, 0, 78, 101
2, 116812, Note_on_c, 0, 47, 0
2, 116831, Note_on_c, 0, 54, 58
2, 116876, Note_on_c, 0, 78, 0
2, 116918, Note_on_c, 0, 88, 82
2, 116965, Note_on_c, 0, 88, 0
2, 117121, Note_on_c, 0, 87, 81
2, 117244, Note_on_c, 0, 63, 37
2, 117247, Note_on_c, 0, 59, 36
2, 117282, Note_on_c, 0, 87, 0
2, 117289, Note_on_c, 0, 85, 82
2, 117415, Note_on_c, 0, 54, 0
2, 117425, Note_on_c, 0, 82, 92
2, 117426, Note_on_c, 0, 63, 0
2, 117433, Note_on_c, 0, 85, 0
2, 117445, Note_on_c, 0, 59, 0
2, 117540, Note_on_c, 0, 83, 84
2, 117541, Note_on_c, 0, 54, 56
2, 117549, Note_on_c, 0, 82, 0
2, 117622, Note_on_c, 0, 54, 0
2, 117664, Note_on_c, 0, 75, 76
2, 117668, Note_on_c, 0, 83, 0
2, 117788, Note_on_c, 0, 47, 46
2, 117799, Note_on_c, 0, 80, 70
2, 117836, Control_c, 0, 64, 63
2, 117839, Note_on_c, 0, 75, 0
2, 117895, Control_c, 0, 64, 127
2, 117958, Note_on_c, 0, 78, 75
2, 117995, Note_on_c, 0, 80, 0
2, 118096, Note_on_c, 0, 54, 48
2, 118099, Note_on_c, 0, 82, 63
2, 118109, Note_on_c, 0, 78, 0
2, 118127, Note_on_c, 0, 47, 0
2, 118282, Note_on_c, 0, 80, 53
2, 118322, Note_on_c, 0, 82, 0
2, 118463, Note_on_c, 0, 78, 44
2, 118474, Note_on_c, 0, 64, 40
2, 118489, Note_on_c, 0, 80, 0
2, 118513, Note_on_c, 0, 54, 0
2, 118604, Note_on_c, 0, 78, 0
2, 118612, Note_on_c, 0, 76, 48
2, 118714, Note_on_c, 0, 75, 57
2, 118716, Note_on_c, 0, 76, 0
2, 118792, Note_on_c, 0, 76, 62
2, 118794, Note_on_c, 0, 75, 0
2, 118872, Note_on_c, 0, 73, 58
2, 118875, Note_on_c, 0, 76, 0
2, 118912, Note_on_c, 0, 54, 45
2, 118943, Note_on_c, 0, 75, 53
2, 118945, Note_on_c, 0, 73, 0
2, 118993, Note_on_c, 0, 64, 0
2, 119011, Note_on_c, 0, 78, 61
2, 119019, Note_on_c, 0, 75, 0
2, 119070, Note_on_c, 0, 78, 0
2, 119078, Note_on_c, 0, 76, 62
2, 119136, Note_on_c, 0, 76, 0
2, 119144, Note_on_c, 0, 68, 64
2, 119166, Note_on_c, 0, 54, 0
2, 119208, Note_on_c, 0, 68, 0
2, 119214, Note_on_c, 0, 70, 62
2, 119267, Note_on_c, 0, 75, 64
2, 119279, Note_on_c, 0, 70, 0
2, 119332, Note_on_c, 0, 73, 64
2, 119360, Note_on_c, 0, 75, 0
2, 119391, Note_on_c, 0, 71, 54
2, 119424, Note_on_c, 0, 73, 0
2, 119452, Note_on_c, 0, 71, 0
2, 119471, Note_on_c, 0, 47, 49
2, 119489, Note_on_c, 0, 71, 64
2, 119549, Control_c, 0, 64, 63
2, 119575, Control_c, 0, 64, 0
2, 119623, Control_c, 0, 64, 63
2, 119639, Control_c, 0, 64, 127
2, 119790, Note_on_c, 0, 54, 48
2, 119796, Note_on_c, 0, 47, 0
2, 119862, Note_on_c, 0, 75, 71
2, 119883, Note_on_c, 0, 71, 0
2, 119931, Note_on_c, 0, 80, 66
2, 119955, Note_on_c, 0, 75, 0
2, 119987, Note_on_c, 0, 78, 60
2, 120003, Note_on_c, 0, 80, 0
2, 120009, Note_on_c, 0, 54, 0
2, 120059, Note_on_c, 0, 78, 0
2, 120060, Note_on_c, 0, 83, 59
2, 120068, Note_on_c, 0, 63, 60
2, 120144, Note_on_c, 0, 63, 0
2, 120176, Note_on_c, 0, 83, 0
2, 120310, Note_on_c, 0, 54, 51
2, 120377, Note_on_c, 0, 87, 70
2, 120453, Note_on_c, 0, 92, 64
2, 120464, Note_on_c, 0, 87, 0
2, 120533, Note_on_c, 0, 90, 71
2, 120558, Note_on_c, 0, 54, 0
2, 120563, Note_on_c, 0, 92, 0
2, 120590, Note_on_c, 0, 47, 35
2, 120603, Note_on_c, 0, 83, 66
2, 120611, Note_on_c, 0, 90, 0
2, 120712, Note_on_c, 0, 83, 0
2, 120844, Note_on_c, 0, 47, 0
2, 120849, Note_on_c, 0, 54, 49
2, 120920, Note_on_c, 0, 75, 71
2, 120974, Note_on_c, 0, 80, 70
2, 120989, Note_on_c, 0, 75, 0
2, 121033, Note_on_c, 0, 78, 75
2, 121046, Note_on_c, 0, 54, 0
2, 121047, Note_on_c, 0, 80, 0
2, 121091, Note_on_c, 0, 78, 0
2, 121098, Note_on_c, 0, 83, 56
2, 121102, Note_on_c, 0, 63, 61
2, 121188, Note_on_c, 0, 83, 0
2, 121203, Note_on_c, 0, 63, 0
2, 121336, Note_on_c, 0, 54, 45
2, 121401, Note_on_c, 0, 87, 61
2, 121466, Note_on_c, 0, 92, 57
2, 121470, Note_on_c, 0, 87, 0
2, 121534, Note_on_c, 0, 90, 54
2, 121552, Note_on_c, 0, 92, 0
2, 121561, Note_on_c, 0, 54, 0
2, 121610, Note_on_c, 0, 83, 44
2, 121612, Note_on_c, 0, 90, 0
2, 121627, Note_on_c, 0, 47, 21
2, 121700, Note_on_c, 0, 83, 0
2, 121858, Note_on_c, 0, 54, 43
2, 121870, Note_on_c, 0, 47, 0
2, 121921, Note_on_c, 0, 75, 63
2, 121990, Note_on_c, 0, 80, 55
2, 122007, Note_on_c, 0, 75, 0
2, 122053, Note_on_c, 0, 78, 52
2, 122061, Note_on_c, 0, 54, 0
2, 122066, Note_on_c, 0, 80, 0
2, 122122, Note_on_c, 0, 78, 0
2, 122130, Note_on_c, 0, 63, 53
2, 122135, Note_on_c, 0, 83, 41
2, 122228, Note_on_c, 0, 83, 0
2, 122251, Note_on_c, 0, 63, 0
2, 122364, Note_on_c, 0, 54, 39
2, 122411, Note_on_c, 0, 87, 47
2, 122489, Note_on_c, 0, 87, 0
2, 122492, Note_on_c, 0, 92, 53
2, 122565, Note_on_c, 0, 90, 51
2, 122588, Note_on_c, 0, 54, 0
2, 122591, Note_on_c, 0, 92, 0
2, 122617, Note_on_c, 0, 47, 32
2, 122622, Note_on_c, 0, 90, 0
2, 122624, Note_on_c, 0, 83, 39
2, 122774, Note_on_c, 0, 83, 0
2, 122893, Note_on_c, 0, 47, 0
2, 122896, Note_on_c, 0, 54, 39
2, 122940, Note_on_c, 0, 87, 48
2, 122965, Note_on_c, 0, 54, 0
2, 123001, Note_on_c, 0, 92, 45
2, 123005, Note_on_c, 0, 87, 0
2, 123066, Note_on_c, 0, 90, 48
2, 123076, Note_on_c, 0, 92, 0
2, 123138, Note_on_c, 0, 90, 0
2, 123142, Note_on_c, 0, 83, 37
2, 123185, Note_on_c, 0, 66, 33
2, 123232, Note_on_c, 0, 83, 0
2, 123254, Note_on_c, 0, 66, 0
2, 123492, Note_on_c, 0, 54, 37
2, 123565, Note_on_c, 0, 87, 43
2, 123572, Note_on_c, 0, 54, 0
2, 123651, Note_on_c, 0, 92, 46
2, 123657, Note_on_c, 0, 87, 0
2, 123743, Note_on_c, 0, 90, 48
2, 123755, Note_on_c, 0, 92, 0
2, 123852, Note_on_c, 0, 90, 0
2, 123906, Note_on_c, 0, 47, 28
2, 123936, Note_on_c, 0, 95, 39
2, 123984, Note_on_c, 0, 95, 0
2, 124000, Note_on_c, 0, 47, 0
2, 124883, Control_c, 0, 64, 63
2, 124918, Control_c, 0, 64, 0
2, 128225, Control_c, 0, 67, 127
2, 128405, Control_c, 0, 67, 0
2, 129741, Note_on_c, 0, 71, 63
2, 130285, Note_on_c, 0, 56, 34
2, 130291, Note_on_c, 0, 52, 48
2, 130360, Control_c, 0, 64, 63
2, 130369, Control_c, 0, 64, 127
2, 130381, Note_on_c, 0, 71, 0
2, 130383, Note_on_c, 0, 68, 70
2, 130534, Note_on_c, 0, 80, 73
2, 130629, Note_on_c, 0, 68, 0
2, 130642, Control_c, 0, 64, 63
2, 130674, Control_c, 0, 64, 127
2, 130849, Note_on_c, 0, 59, 40
2, 130933, Note_on_c, 0, 80, 0
2, 131106, Note_on_c, 0, 64, 38
2, 131110, Note_on_c, 0, 80, 76
2, 131150, Note_on_c, 0, 59, 0
2, 131163, Note_on_c, 0, 80, 0
2, 131181, Note_on_c, 0, 56, 0
2, 131275, Note_on_c, 0, 64, 0
2, 131339, Note_on_c, 0, 59, 55
2, 131451, Note_on_c, 0, 81, 74
2, 131515, Control_c, 0, 64, 63
2, 131545, Note_on_c, 0, 81, 0
2, 131556, Control_c, 0, 64, 127
2, 131562, Note_on_c, 0, 56, 48
2, 131563, Note_on_c, 0, 80, 76
2, 131601, Note_on_c, 0, 59, 0
2, 131674, Note_on_c, 0, 75, 75
2, 131685, Note_on_c, 0, 80, 0
2, 131736, Note_on_c, 0, 75, 0
2, 131759, Note_on_c, 0, 76, 61
2, 131796, Note_on_c, 0, 59, 49
2, 131820, Note_on_c, 0, 76, 0
2, 131820, Note_on_c, 0, 78, 60
2, 131874, Note_on_c, 0, 80, 70
2, 131883, Note_on_c, 0, 78, 0
2, 131916, Note_on_c, 0, 80, 0
2, 131935, Note_on_c, 0, 81, 76
2, 131983, Note_on_c, 0, 81, 0
2, 131987, Note_on_c, 0, 83, 66
2, 132024, Note_on_c, 0, 85, 82
2, 132030, Note_on_c, 0, 83, 0
2, 132050, Note_on_c, 0, 56, 0
2, 132060, Note_on_c, 0, 64, 62
2, 132071, Note_on_c, 0, 87, 86
2, 132074, Note_on_c, 0, 59, 0
2, 132075, Note_on_c, 0, 85, 0
2, 132099, Note_on_c, 0, 87, 0
2, 132119, Note_on_c, 0, 88, 77
2, 132166, Note_on_c, 0, 90, 93
2, 132169, Note_on_c, 0, 88, 0
2, 132213, Note_on_c, 0, 92, 98
2, 132219, Note_on_c, 0, 90, 0
2, 132221, Note_on_c, 0, 64, 0
2, 132255, Note_on_c, 0, 87, 104
2, 132256, Note_on_c, 0, 92, 0
2, 132299, Note_on_c, 0, 87, 0
2, 132305, Note_on_c, 0, 88, 94
2, 132334, Note_on_c, 0, 59, 65
2, 132352, Note_on_c, 0, 88, 0
2, 132360, Note_on_c, 0, 79, 91
2, 132388, Note_on_c, 0, 59, 0
2, 132407, Note_on_c, 0, 52, 0
2, 132413, Note_on_c, 0, 80, 104
2, 132420, Note_on_c, 0, 79, 0
2, 132462, Note_on_c, 0, 87, 104
2, 132466, Note_on_c, 0, 80, 0
2, 132520, Note_on_c, 0, 85, 107
2, 132534, Note_on_c, 0, 87, 0
2, 132570, Note_on_c, 0, 83, 96
2, 132596, Note_on_c, 0, 85, 0
2, 132620, Note_on_c, 0, 54, 80
2, 132627, Note_on_c, 0, 47, 71
2, 132664, Note_on_c, 0, 83, 0
2, 132698, Note_on_c, 0, 83, 82
2, 132759, Control_c, 0, 64, 63
2, 132783, Control_c, 0, 64, 0
2, 132887, Control_c, 0, 64, 63
2, 132894, Control_c, 0, 64, 127
2, 132985, Note_on_c, 0, 47, 0
2, 132992, Note_on_c, 0, 59, 78
2, 133032, Note_on_c, 0, 83, 0
2, 133034, Note_on_c, 0, 54, 0
2, 133048, Note_on_c, 0, 59, 0
2, 133226, Note_on_c, 0, 64, 65
2, 133231, Note_on_c, 0, 81, 106
2, 133276, Note_on_c, 0, 81, 0
2, 133302, Note_on_c, 0, 64, 0
2, 133474, Note_on_c, 0, 59, 69
2, 133514, Note_on_c, 0, 59, 0
2, 133580, Note_on_c, 0, 80, 100
2, 133626, Note_on_c, 0, 80, 0
2, 133729, Note_on_c, 0, 54, 72
2, 133740, Note_on_c, 0, 47, 51
2, 133772, Note_on_c, 0, 76, 89
2, 133789, Control_c, 0, 64, 63
2, 133800, Control_c, 0, 64, 0
2, 133846, Control_c, 0, 64, 63
2, 133854, Control_c, 0, 64, 127
2, 133927, Note_on_c, 0, 78, 88
2, 134009, Note_on_c, 0, 76, 0
2, 134029, Note_on_c, 0, 80, 89
2, 134042, Note_on_c, 0, 78, 0
2, 134068, Note_on_c, 0, 47, 0
2, 134070, Note_on_c, 0, 57, 39
2, 134098, Note_on_c, 0, 80, 0
2, 134123, Note_on_c, 0, 54, 0
2, 134131, Note_on_c, 0, 78, 80
2, 134134, Note_on_c, 0, 57, 0
2, 134167, Note_on_c, 0, 78, 0
2, 134178, Note_on_c, 0, 80, 62
2, 134200, Note_on_c, 0, 80, 0
2, 134209, Note_on_c, 0, 78, 68
2, 134244, Note_on_c, 0, 80, 58
2, 134246, Note_on_c, 0, 78, 0
2, 134268, Note_on_c, 0, 80, 0
2, 134279, Note_on_c, 0, 78, 66
2, 134315, Note_on_c, 0, 80, 58
2, 134347, Note_on_c, 0, 63, 89
2, 134354, Note_on_c, 0, 80, 0
2, 134381, Note_on_c, 0, 78, 0
2, 134387, Note_on_c, 0, 80, 80
2, 134399, Note_on_c, 0, 78, 59
2, 134414, Note_on_c, 0, 63, 0
2, 134433, Note_on_c, 0, 80, 0
2, 134435, Note_on_c, 0, 75, 106
2, 134502, Note_on_c, 0, 75, 0
2, 134552, Note_on_c, 0, 80, 74
2, 134559, Note_on_c, 0, 78, 0
2, 134588, Note_on_c, 0, 80, 0
2, 134604, Note_on_c, 0, 78, 63
2, 134649, Note_on_c, 0, 80, 88
2, 134653, Note_on_c, 0, 78, 0
2, 134693, Note_on_c, 0, 78, 80
2, 134694, Note_on_c, 0, 80, 0
2, 134694, Note_on_c, 0, 57, 84
2, 134728, Note_on_c, 0, 78, 0
2, 134729, Note_on_c, 0, 80, 90
2, 134736, Note_on_c, 0, 57, 0
2, 134758, Note_on_c, 0, 78, 94
2, 134776, Note_on_c, 0, 80, 0
2, 134810, Note_on_c, 0, 78, 0
2, 134893, Note_on_c, 0, 76, 93
2, 134901, Note_on_c, 0, 73, 76
2, 134958, Note_on_c, 0, 78, 104
2, 134970, Note_on_c, 0, 76, 0
2, 134986, Note_on_c, 0, 73, 0
2, 135025, Note_on_c, 0, 40, 93
2, 135070, Control_c, 0, 64, 63
2, 135075, Control_c, 0, 64, 0
2, 135088, Note_on_c, 0, 78, 0
2, 135109, Note_on_c, 0, 80, 107
2, 135114, Note_on_c, 0, 71, 87
2, 135132, Note_on_c, 0, 52, 71
2, 135166, Control_c, 0, 64, 63
2, 135168, Control_c, 0, 64, 127
2, 135229, Note_on_c, 0, 40, 0
2, 135276, Note_on_c, 0, 52, 0
2, 135368, Note_on_c, 0, 71, 0
2, 135468, Note_on_c, 0, 80, 0
2, 135484, Note_on_c, 0, 64, 76
2, 135520, Note_on_c, 0, 64, 0
2, 135752, Note_on_c, 0, 61, 70
2, 135754, Note_on_c, 0, 81, 103
2, 135758, Note_on_c, 0, 69, 79
2, 135761, Note_on_c, 0, 76, 85
2, 135800, Note_on_c, 0, 69, 0
2, 135808, Note_on_c, 0, 76, 0
2, 135826, Note_on_c, 0, 81, 0
2, 135976, Note_on_c, 0, 83, 99
2, 135980, Note_on_c, 0, 71, 88
2, 136022, Note_on_c, 0, 71, 0
2, 136026, Note_on_c, 0, 83, 0
2, 136071, Note_on_c, 0, 64, 85
2, 136152, Note_on_c, 0, 81, 106
2, 136155, Note_on_c, 0, 69, 89
2, 136203, Note_on_c, 0, 81, 0
2, 136204, Note_on_c, 0, 69, 0
2, 136263, Note_on_c, 0, 61, 0
2, 136288, Note_on_c, 0, 59, 77
2, 136334, Note_on_c, 0, 80, 106
2, 136336, Note_on_c, 0, 68, 99
2, 136378, Note_on_c, 0, 64, 0
2, 136419, Control_c, 0, 64, 63
2, 136424, Control_c, 0, 64, 0
2, 136525, Control_c, 0, 64, 63
2, 136528, Control_c, 0, 64, 127
2, 136604, Note_on_c, 0, 64, 88
2, 136670, Note_on_c, 0, 80, 0
2, 136676, Note_on_c, 0, 64, 0
2, 136684, Note_on_c, 0, 59, 0
2, 136733, Note_on_c, 0, 68, 0
2, 136835, Note_on_c, 0, 71, 100
2, 136836, Note_on_c, 0, 56, 78
2, 136872, Note_on_c, 0, 71, 0
2, 136882, Note_on_c, 0, 56, 0
2, 137007, Note_on_c, 0, 78, 95
2, 137007, Note_on_c, 0, 66, 103
2, 137044, Note_on_c, 0, 66, 0
2, 137050, Note_on_c, 0, 78, 0
2, 137098, Note_on_c, 0, 59, 88
2, 137150, Note_on_c, 0, 59, 0
2, 137178, Note_on_c, 0, 64, 98
2, 137180, Note_on_c, 0, 76, 107
2, 137211, Note_on_c, 0, 64, 0
2, 137229, Note_on_c, 0, 76, 0
2, 137413, Note_on_c, 0, 47, 72
2, 137421, Note_on_c, 0, 66, 76
2, 137457, Note_on_c, 0, 71, 75
2, 137500, Note_on_c, 0, 76, 87
2, 137533, Note_on_c, 0, 78, 101
2, 137541, Control_c, 0, 64, 63
2, 137546, Control_c, 0, 64, 0
2, 137667, Control_c, 0, 64, 63
2, 137671, Control_c, 0, 64, 127
2, 137804, Note_on_c, 0, 54, 82
2, 137880, Note_on_c, 0, 66, 0
2, 138006, Note_on_c, 0, 71, 0
2, 138014, Note_on_c, 0, 47, 0
2, 138031, Note_on_c, 0, 59, 83
2, 138039, Note_on_c, 0, 54, 0
2, 138072, Note_on_c, 0, 76, 0
2, 138076, Note_on_c, 0, 59, 0
2, 138088, Note_on_c, 0, 78, 0
2, 138297, Note_on_c, 0, 64, 76
2, 138339, Note_on_c, 0, 64, 0
2, 138453, Note_on_c, 0, 63, 51
2, 138491, Control_c, 0, 64, 63
2, 138494, Control_c, 0, 64, 127
2, 138514, Note_on_c, 0, 66, 66
2, 138571, Note_on_c, 0, 71, 40
2, 138623, Note_on_c, 0, 75, 70
2, 138634, Note_on_c, 0, 63, 0
2, 138640, Note_on_c, 0, 66, 0
2, 138642, Note_on_c, 0, 71, 0
2, 138677, Note_on_c, 0, 75, 0
2, 138708, Note_on_c, 0, 47, 31
2, 138744, Note_on_c, 0, 78, 89
2, 138791, Note_on_c, 0, 47, 0
2, 138793, Note_on_c, 0, 78, 0
2, 139103, Note_on_c, 0, 54, 47
2, 139190, Note_on_c, 0, 54, 0
2, 139356, Note_on_c, 0, 59, 38
2, 139366, Note_on_c, 0, 69, 46
2, 139378, Note_on_c, 0, 73, 62
2, 139435, Note_on_c, 0, 59, 0
2, 139438, Note_on_c, 0, 69, 0
2, 139467, Note_on_c, 0, 73, 0
2, 139714, Note_on_c, 0, 63, 48
2, 139773, Note_on_c, 0, 63, 0
2, 139953, Note_on_c, 0, 64, 47
2, 139981, Control_c, 0, 64, 63
2, 140002, Control_c, 0, 64, 0
2, 140010, Note_on_c, 0, 68, 58
2, 140035, Control_c, 0, 64, 63
2, 140047, Control_c, 0, 64, 127
2, 140110, Note_on_c, 0, 71, 48
2, 140115, Note_on_c, 0, 64, 0
2, 140130, Note_on_c, 0, 68, 0
2, 140168, Note_on_c, 0, 71, 0
2, 140208, Note_on_c, 0, 40, 43
2, 140286, Note_on_c, 0, 80, 82
2, 140316, Note_on_c, 0, 40, 0
2, 140336, Note_on_c, 0, 80, 0
2, 140659, Note_on_c, 0, 52, 39
2, 140753, Note_on_c, 0, 52, 0
2, 140959, Note_on_c, 0, 59, 49
2, 140959, Note_on_c, 0, 80, 86
2, 141016, Note_on_c, 0, 80, 0
2, 141225, Note_on_c, 0, 62, 67
2, 141337, Note_on_c, 0, 81, 73
2, 141401, Note_on_c, 0, 81, 0
2, 141401, Note_on_c, 0, 59, 0
2, 141503, Note_on_c, 0, 64, 34
2, 141529, Note_on_c, 0, 62, 0
2, 141534, Note_on_c, 0, 68, 58
2, 141546, Control_c, 0, 64, 63
2, 141554, Note_on_c, 0, 80, 53
2, 141562, Note_on_c, 0, 74, 55
2, 141596, Control_c, 0, 64, 127
2, 141663, Note_on_c, 0, 68, 0
2, 141728, Note_on_c, 0, 74, 0
2, 141732, Note_on_c, 0, 75, 67
2, 141795, Note_on_c, 0, 80, 0
2, 141807, Note_on_c, 0, 75, 0
2, 141840, Note_on_c, 0, 76, 78
2, 141938, Note_on_c, 0, 64, 0
2, 141940, Note_on_c, 0, 76, 0
2, 141947, Note_on_c, 0, 79, 70
2, 141951, Note_on_c, 0, 59, 55
2, 142034, Note_on_c, 0, 79, 0
2, 142047, Note_on_c, 0, 80, 88
2, 142090, Note_on_c, 0, 80, 0
2, 142155, Note_on_c, 0, 90, 85
2, 142225, Note_on_c, 0, 90, 0
2, 142271, Note_on_c, 0, 59, 0
2, 142284, Note_on_c, 0, 62, 38
2, 142325, Note_on_c, 0, 88, 90
2, 142359, Note_on_c, 0, 88, 0
2, 142570, Note_on_c, 0, 64, 63
2, 142694, Note_on_c, 0, 66, 70
2, 142718, Note_on_c, 0, 64, 0
2, 142785, Note_on_c, 0, 66, 0
2, 142791, Note_on_c, 0, 64, 63
2, 142827, Control_c, 0, 64, 63
2, 142868, Control_c, 0, 64, 127
2, 142882, Note_on_c, 0, 63, 59
2, 142884, Note_on_c, 0, 64, 0
2, 142884, Note_on_c, 0, 52, 44
2, 142934, Note_on_c, 0, 63, 0
2, 142955, Note_on_c, 0, 64, 62
2, 143033, Note_on_c, 0, 64, 0
2, 143039, Note_on_c, 0, 66, 66
2, 143047, Note_on_c, 0, 62, 0
2, 143092, Note_on_c, 0, 68, 70
2, 143104, Note_on_c, 0, 66, 0
2, 143142, Note_on_c, 0, 68, 0
2, 143151, Note_on_c, 0, 69, 74
2, 143206, Note_on_c, 0, 71, 71
2, 143209, Note_on_c, 0, 69, 0
2, 143252, Note_on_c, 0, 71, 0
2, 143255, Note_on_c, 0, 73, 75
2, 143286, Note_on_c, 0, 73, 0
2, 143308, Note_on_c, 0, 52, 0
2, 143315, Note_on_c, 0, 74, 81
2, 143353, Note_on_c, 0, 75, 86
2, 143359, Note_on_c, 0, 74, 0
2, 143397, Note_on_c, 0, 75, 0
2, 143416, Note_on_c, 0, 76, 91
2, 143466, Note_on_c, 0, 76, 0
2, 143470, Note_on_c, 0, 78, 97
2, 143508, Note_on_c, 0, 80, 96
2, 143518, Note_on_c, 0, 78, 0
2, 143553, Note_on_c, 0, 80, 0
2, 143556, Note_on_c, 0, 81, 93
2, 143605, Note_on_c, 0, 83, 96
2, 143615, Note_on_c, 0, 81, 0
2, 143668, Note_on_c, 0, 45, 65
2, 143728, Note_on_c, 0, 83, 0
2, 143731, Note_on_c, 0, 85, 109
2, 143814, Control_c, 0, 64, 63
2, 143841, Control_c, 0, 64, 0
2, 143994, Note_on_c, 0, 52, 70
2, 144063, Control_c, 0, 64, 63
2, 144065, Control_c, 0, 64, 127
2, 144148, Note_on_c, 0, 45, 0
2, 144188, Note_on_c, 0, 57, 58
2, 144198, Note_on_c, 0, 52, 0
2, 144330, Note_on_c, 0, 57, 0
2, 144363, Note_on_c, 0, 61, 57
2, 144584, Note_on_c, 0, 64, 42
2, 144620, Note_on_c, 0, 61, 0
2, 144845, Note_on_c, 0, 61, 44
2, 145218, Note_on_c, 0, 85, 0
2, 145258, Note_on_c, 0, 69, 27
2, 146394, Note_on_c, 0, 85, 55
2, 146570, Note_on_c, 0, 85, 0
2, 146613, Note_on_c, 0, 69, 0
2, 146753, Note_on_c, 0, 64, 0
2, 146783, Note_on_c, 0, 83, 75
2, 146835, Note_on_c, 0, 61, 0
2, 146859, Note_on_c, 0, 83, 0
2, 147318, Note_on_c, 0, 81, 78
2, 147444, Note_on_c, 0, 81, 0
2, 147458, Note_on_c, 0, 42, 49
2, 147501, Note_on_c, 0, 69, 21
2, 147531, Note_on_c, 0, 73, 56
2, 147547, Note_on_c, 0, 76, 65
2, 147551, Note_on_c, 0, 81, 84
2, 147631, Control_c, 0, 64, 63
2, 147651, Control_c, 0, 64, 0
2, 147891, Note_on_c, 0, 54, 52
2, 147904, Control_c, 0, 64, 63
2, 147905, Control_c, 0, 64, 127
2, 147944, Note_on_c, 0, 42, 0
2, 147997, Note_on_c, 0, 54, 0
2, 148157, Note_on_c, 0, 61, 62
2, 148176, Note_on_c, 0, 69, 0
2, 148195, Note_on_c, 0, 81, 0
2, 148197, Note_on_c, 0, 73, 0
2, 148213, Note_on_c, 0, 76, 0
2, 148231, Note_on_c, 0, 61, 0
2, 148377, Note_on_c, 0, 64, 60
2, 148429, Note_on_c, 0, 64, 0
2, 148644, Note_on_c, 0, 47, 68
2, 148693, Note_on_c, 0, 69, 72
2, 148694, Note_on_c, 0, 78, 88
2, 148697, Note_on_c, 0, 76, 74
2, 148745, Control_c, 0, 64, 63
2, 148756, Control_c, 0, 64, 0
2, 148858, Control_c, 0, 64, 63
2, 148865, Control_c, 0, 64, 127
2, 148944, Note_on_c, 0, 54, 85
2, 148967, Note_on_c, 0, 69, 0
2, 148995, Note_on_c, 0, 47, 0
2, 148999, Note_on_c, 0, 78, 0
2, 149003, Note_on_c, 0, 76, 0
2, 149147, Note_on_c, 0, 54, 0
2, 149149, Note_on_c, 0, 59, 69
2, 149170, Note_on_c, 0, 78, 110
2, 149176, Note_on_c, 0, 75, 100
2, 149180, Note_on_c, 0, 69, 76
2, 149201, Note_on_c, 0, 69, 0
2, 149202, Note_on_c, 0, 59, 0
2, 149213, Note_on_c, 0, 75, 0
2, 149240, Note_on_c, 0, 78, 0
2, 149418, Note_on_c, 0, 63, 98
2, 149451, Note_on_c, 0, 63, 0
2, 149505, Note_on_c, 0, 80, 96
2, 149589, Note_on_c, 0, 80, 0
2, 149641, Note_on_c, 0, 49, 70
2, 149655, Control_c, 0, 64, 63
2, 149660, Control_c, 0, 64, 0
2, 149664, Note_on_c, 0, 76, 98
2, 149669, Note_on_c, 0, 68, 81
2, 149720, Control_c, 0, 64, 63
2, 149725, Control_c, 0, 64, 127
2, 149770, Note_on_c, 0, 49, 0
2, 149810, Note_on_c, 0, 68, 0
2, 149847, Note_on_c, 0, 76, 0
2, 149967, Note_on_c, 0, 64, 73
2, 150004, Note_on_c, 0, 64, 0
2, 150102, Note_on_c, 0, 64, 76
2, 150123, Control_c, 0, 64, 63
2, 150153, Control_c, 0, 64, 127
2, 150164, Note_on_c, 0, 69, 76
2, 150226, Note_on_c, 0, 72, 60
2, 150234, Note_on_c, 0, 64, 0
2, 150279, Note_on_c, 0, 76, 76
2, 150282, Note_on_c, 0, 69, 0
2, 150314, Note_on_c, 0, 72, 0
2, 150335, Note_on_c, 0, 76, 0
2, 150379, Note_on_c, 0, 42, 53
2, 150393, Note_on_c, 0, 81, 88
2, 150441, Note_on_c, 0, 81, 0
2, 150461, Note_on_c, 0, 42, 0
2, 150747, Note_on_c, 0, 54, 54
2, 150877, Note_on_c, 0, 54, 0
2, 151034, Note_on_c, 0, 57, 51
2, 151283, Note_on_c, 0, 60, 46
2, 151510, Note_on_c, 0, 57, 0
2, 151568, Note_on_c, 0, 64, 32
2, 151629, Note_on_c, 0, 60, 0
2, 151867, Note_on_c, 0, 54, 37
2, 151920, Note_on_c, 0, 64, 0
2, 152043, Note_on_c, 0, 54, 0
2, 152069, Note_on_c, 0, 54, 22
2, 152235, Note_on_c, 0, 54, 0
2, 152244, Note_on_c, 0, 47, 34
2, 152254, Note_on_c, 0, 78, 53
2, 152276, Note_on_c, 0, 69, 8
2, 152276, Note_on_c, 0, 76, 44
2, 152391, Control_c, 0, 64, 63
2, 152409, Control_c, 0, 64, 0
2, 152485, Control_c, 0, 64, 63
2, 152493, Control_c, 0, 64, 127
2, 152610, Note_on_c, 0, 54, 50
2, 152627, Note_on_c, 0, 69, 0
2, 152663, Note_on_c, 0, 47, 0
2, 152676, Note_on_c, 0, 78, 0
2, 152704, Note_on_c, 0, 76, 0
2, 152847, Note_on_c, 0, 54, 0
2, 152861, Note_on_c, 0, 78, 73
2, 152861, Note_on_c, 0, 59, 41
2, 152875, Note_on_c, 0, 75, 55
2, 152882, Note_on_c, 0, 69, 30
2, 152933, Note_on_c, 0, 59, 0
2, 152965, Note_on_c, 0, 69, 0
2, 152996, Note_on_c, 0, 75, 0
2, 153027, Note_on_c, 0, 78, 0
2, 153128, Note_on_c, 0, 63, 61
2, 153157, Note_on_c, 0, 63, 0
2, 153239, Note_on_c, 0, 80, 76
2, 153353, Note_on_c, 0, 80, 0
2, 153386, Note_on_c, 0, 52, 45
2, 153389, Note_on_c, 0, 76, 62
2, 153391, Note_on_c, 0, 64, 38
2, 153392, Note_on_c, 0, 68, 55
2, 153445, Control_c, 0, 64, 63
2, 153506, Control_c, 0, 64, 127
2, 153634, Note_on_c, 0, 59, 56
2, 153652, Note_on_c, 0, 64, 0
2, 153656, Note_on_c, 0, 76, 0
2, 153677, Note_on_c, 0, 68, 0
2, 153902, Note_on_c, 0, 73, 63
2, 153910, Note_on_c, 0, 61, 55
2, 153916, Note_on_c, 0, 69, 27
2, 153947, Note_on_c, 0, 59, 0
2, 153951, Control_c, 0, 64, 63
2, 154018, Control_c, 0, 64, 127
2, 154172, Note_on_c, 0, 61, 0
2, 154205, Note_on_c, 0, 75, 70
2, 154222, Note_on_c, 0, 60, 39
2, 154248, Note_on_c, 0, 73, 0
2, 154345, Note_on_c, 0, 69, 0
2, 154393, Note_on_c, 0, 75, 0
2, 154623, Note_on_c, 0, 68, 16
2, 154624, Note_on_c, 0, 76, 37
2, 154634, Note_on_c, 0, 59, 19
2, 154655, Note_on_c, 0, 60, 0
2, 154740, Control_c, 0, 64, 63
2, 154780, Control_c, 0, 64, 0
2, 154857, Control_c, 0, 64, 63
2, 154875, Control_c, 0, 64, 127
2, 154999, Control_c, 0, 64, 63
2, 155023, Control_c, 0, 64, 0
2, 155469, Note_on_c, 0, 68, 0
2, 155474, Note_on_c, 0, 59, 0
2, 155485, Note_on_c, 0, 52, 0
2, 155492, Note_on_c, 0, 76, 0
2, 156186, Note_on_c, 0, 80, 101
2, 156473, Note_on_c, 0, 83, 89
2, 156480, Note_on_c, 0, 80, 0
2, 156505, Note_on_c, 0, 81, 86
2, 156543, Note_on_c, 0, 83, 0
2, 156967, Note_on_c, 0, 80, 98
2, 156994, Note_on_c, 0, 81, 0
2, 157100, Note_on_c, 0, 49, 95
2, 157142, Note_on_c, 0, 85, 97
2, 157199, Note_on_c, 0, 80, 0
2, 157233, Control_c, 0, 64, 63
2, 157235, Control_c, 0, 64, 127
2, 157426, Note_on_c, 0, 85, 0
2, 157440, Note_on_c, 0, 56, 94
2, 157466, Note_on_c, 0, 49, 0
2, 157502, Note_on_c, 0, 56, 0
2, 157673, Note_on_c, 0, 64, 84
2, 157682, Note_on_c, 0, 80, 108
2, 157722, Note_on_c, 0, 64, 0
2, 157729, Note_on_c, 0, 80, 0
2, 157912, Note_on_c, 0, 63, 94
2, 157922, Note_on_c, 0, 54, 72
2, 157986, Note_on_c, 0, 63, 0
2, 158084, Note_on_c, 0, 52, 65
2, 158088, Note_on_c, 0, 54, 0
2, 158100, Note_on_c, 0, 61, 84
2, 158132, Note_on_c, 0, 80, 99
2, 158173, Control_c, 0, 64, 63
2, 158182, Control_c, 0, 64, 0
2, 158233, Control_c, 0, 64, 63
2, 158240, Control_c, 0, 64, 127
2, 158269, Note_on_c, 0, 81, 96
2, 158311, Note_on_c, 0, 80, 0
2, 158369, Note_on_c, 0, 56, 65
2, 158386, Note_on_c, 0, 80, 98
2, 158388, Note_on_c, 0, 52, 0
2, 158389, Note_on_c, 0, 61, 0
2, 158428, Note_on_c, 0, 81, 0
2, 158463, Note_on_c, 0, 78, 101
2, 158495, Note_on_c, 0, 80, 0
2, 158528, Note_on_c, 0, 80, 91
2, 158555, Note_on_c, 0, 78, 0
2, 158609, Note_on_c, 0, 81, 97
2, 158618, Note_on_c, 0, 64, 56
2, 158638, Note_on_c, 0, 80, 0
2, 158666, Control_c, 0, 64, 63
2, 158671, Control_c, 0, 64, 0
2, 158707, Control_c, 0, 64, 63
2, 158719, Control_c, 0, 64, 127
2, 158817, Note_on_c, 0, 76, 94
2, 158819, Note_on_c, 0, 61, 76
2, 158835, Note_on_c, 0, 81, 0
2, 158847, Note_on_c, 0, 64, 0
2, 158859, Note_on_c, 0, 56, 0
2, 158863, Note_on_c, 0, 61, 0
2, 158897, Note_on_c, 0, 76, 0
2, 159012, Note_on_c, 0, 49, 89
2, 159053, Note_on_c, 0, 80, 96
2, 159071, Control_c, 0, 64, 63
2, 159078, Control_c, 0, 64, 0
2, 159151, Control_c, 0, 64, 63
2, 159154, Control_c, 0, 64, 127
2, 159260, Note_on_c, 0, 49, 0
2, 159283, Note_on_c, 0, 57, 83
2, 159315, Note_on_c, 0, 57, 0
2, 159347, Note_on_c, 0, 80, 0
2, 159479, Note_on_c, 0, 66, 97
2, 159537, Note_on_c, 0, 66, 0
2, 159611, Note_on_c, 0, 78, 100
2, 159699, Note_on_c, 0, 56, 73
2, 159708, Note_on_c, 0, 64, 53
2, 159727, Note_on_c, 0, 76, 91
2, 159733, Note_on_c, 0, 78, 0
2, 159775, Note_on_c, 0, 64, 0
2, 159811, Note_on_c, 0, 75, 100
2, 159825, Note_on_c, 0, 56, 0
2, 159842, Note_on_c, 0, 76, 0
2, 159886, Note_on_c, 0, 75, 0
2, 159903, Note_on_c, 0, 54, 69
2, 159906, Note_on_c, 0, 63, 74
2, 159926, Note_on_c, 0, 75, 84
2, 159991, Control_c, 0, 64, 63
2, 160003, Control_c, 0, 64, 0
2, 160077, Control_c, 0, 64, 63
2, 160084, Control_c, 0, 64, 127
2, 160121, Note_on_c, 0, 57, 52
2, 160167, Note_on_c, 0, 63, 0
2, 160191, Note_on_c, 0, 54, 0
2, 160203, Note_on_c, 0, 57, 0
2, 160285, Note_on_c, 0, 75, 0
2, 160324, Note_on_c, 0, 66, 78
2, 160371, Note_on_c, 0, 66, 0
2, 160530, Note_on_c, 0, 63, 79
2, 160548, Note_on_c, 0, 69, 104
2, 160574, Note_on_c, 0, 63, 0
2, 160605, Note_on_c, 0, 69, 0
2, 160780, Note_on_c, 0, 48, 99
2, 160853, Note_on_c, 0, 88, 104
2, 161066, Control_c, 0, 64, 63
2, 161079, Control_c, 0, 64, 0
2, 161090, Control_c, 0, 64, 63
2, 161096, Note_on_c, 0, 57, 68
2, 161106, Control_c, 0, 64, 127
2, 161152, Note_on_c, 0, 87, 106
2, 161175, Note_on_c, 0, 88, 0
2, 161192, Note_on_c, 0, 48, 0
2, 161216, Note_on_c, 0, 57, 0
2, 161355, Note_on_c, 0, 66, 76
2, 161359, Note_on_c, 0, 85, 103
2, 161388, Note_on_c, 0, 87, 0
2, 161428, Note_on_c, 0, 66, 0
2, 161512, Note_on_c, 0, 84, 100
2, 161536, Note_on_c, 0, 85, 0
2, 161575, Note_on_c, 0, 64, 82
2, 161580, Note_on_c, 0, 56, 67
2, 161637, Note_on_c, 0, 64, 0
2, 161644, Note_on_c, 0, 84, 0
2, 161644, Note_on_c, 0, 85, 105
2, 161690, Note_on_c, 0, 54, 89
2, 161761, Note_on_c, 0, 63, 66
2, 161767, Control_c, 0, 64, 63
2, 161769, Note_on_c, 0, 56, 0
2, 161778, Control_c, 0, 64, 0
2, 161791, Note_on_c, 0, 87, 97
2, 161807, Control_c, 0, 64, 63
2, 161815, Note_on_c, 0, 85, 0
2, 161820, Control_c, 0, 64, 127
2, 161938, Note_on_c, 0, 87, 0
2, 161944, Note_on_c, 0, 78, 82
2, 162001, Note_on_c, 0, 63, 0
2, 162050, Note_on_c, 0, 78, 0
2, 162057, Note_on_c, 0, 80, 80
2, 162059, Note_on_c, 0, 57, 49
2, 162086, Note_on_c, 0, 54, 0
2, 162128, Note_on_c, 0, 57, 0
2, 162149, Note_on_c, 0, 81, 83
2, 162162, Note_on_c, 0, 80, 0
2, 162199, Note_on_c, 0, 81, 0
2, 162248, Note_on_c, 0, 66, 73
2, 162302, Note_on_c, 0, 73, 76
2, 162311, Note_on_c, 0, 66, 0
2, 162335, Note_on_c, 0, 75, 80
2, 162337, Note_on_c, 0, 73, 0
2, 162372, Note_on_c, 0, 75, 0
2, 162379, Note_on_c, 0, 73, 66
2, 162443, Note_on_c, 0, 72, 80
2, 162445, Note_on_c, 0, 73, 0
2, 162547, Note_on_c, 0, 75, 90
2, 162559, Note_on_c, 0, 72, 0
2, 162559, Note_on_c, 0, 63, 58
2, 162639, Note_on_c, 0, 78, 87
2, 162659, Note_on_c, 0, 75, 0
2, 162686, Note_on_c, 0, 63, 0
2, 162734, Note_on_c, 0, 83, 76
2, 162751, Note_on_c, 0, 78, 0
2, 162813, Note_on_c, 0, 81, 87
2, 162838, Note_on_c, 0, 83, 0
2, 162892, Note_on_c, 0, 49, 46
2, 162944, Note_on_c, 0, 80, 97
2, 162974, Note_on_c, 0, 81, 0
2, 163003, Control_c, 0, 64, 63
2, 163022, Control_c, 0, 64, 0
2, 163087, Control_c, 0, 64, 63
2, 163099, Control_c, 0, 64, 127
2, 163194, Note_on_c, 0, 56, 71
2, 163219, Note_on_c, 0, 49, 0
2, 163262, Note_on_c, 0, 56, 0
2, 163362, Note_on_c, 0, 80, 0
2, 163386, Note_on_c, 0, 64, 72
2, 163462, Note_on_c, 0, 64, 0
2, 163507, Note_on_c, 0, 78, 83
2, 163613, Note_on_c, 0, 63, 56
2, 163614, Note_on_c, 0, 54, 46
2, 163655, Note_on_c, 0, 78, 0
2, 163660, Note_on_c, 0, 80, 76
2, 163731, Note_on_c, 0, 63, 0
2, 163757, Note_on_c, 0, 78, 77
2, 163789, Note_on_c, 0, 80, 0
2, 163837, Note_on_c, 0, 76, 76
2, 163875, Note_on_c, 0, 78, 0
2, 163886, Note_on_c, 0, 52, 40
2, 163888, Note_on_c, 0, 54, 0
2, 163903, Note_on_c, 0, 76, 0
2, 163906, Note_on_c, 0, 61, 48
2, 163950, Note_on_c, 0, 76, 69
2, 164004, Control_c, 0, 64, 63
2, 164023, Control_c, 0, 64, 0
2, 164082, Control_c, 0, 64, 63
2, 164096, Control_c, 0, 64, 127
2, 164179, Note_on_c, 0, 56, 45
2, 164213, Note_on_c, 0, 61, 0
2, 164245, Note_on_c, 0, 52, 0
2, 164263, Note_on_c, 0, 76, 0
2, 164397, Note_on_c, 0, 56, 0
2, 164407, Note_on_c, 0, 64, 56
2, 164659, Note_on_c, 0, 56, 45
2, 164688, Note_on_c, 0, 64, 0
2, 164963, Note_on_c, 0, 49, 41
2, 164985, Note_on_c, 0, 68, 68
2, 165049, Note_on_c, 0, 56, 0
2, 165070, Control_c, 0, 64, 63
2, 165090, Control_c, 0, 64, 127
2, 165303, Note_on_c, 0, 56, 51
2, 165331, Note_on_c, 0, 49, 0
2, 165333, Note_on_c, 0, 68, 0
2, 165389, Note_on_c, 0, 56, 0
2, 165549, Note_on_c, 0, 73, 78
2, 165557, Note_on_c, 0, 64, 52
2, 165603, Note_on_c, 0, 64, 0
2, 165765, Note_on_c, 0, 73, 0
2, 165783, Note_on_c, 0, 61, 70
2, 165799, Note_on_c, 0, 52, 55
2, 165846, Note_on_c, 0, 61, 0
2, 165870, Note_on_c, 0, 52, 0
2, 165971, Note_on_c, 0, 54, 75
2, 165984, Note_on_c, 0, 75, 82
2, 166028, Control_c, 0, 64, 63
2, 166062, Control_c, 0, 64, 127
2, 166137, Note_on_c, 0, 76, 82
2, 166143, Note_on_c, 0, 54, 0
2, 166165, Note_on_c, 0, 75, 0
2, 166231, Note_on_c, 0, 57, 63
2, 166238, Note_on_c, 0, 75, 96
2, 166259, Note_on_c, 0, 76, 0
2, 166291, Note_on_c, 0, 57, 0
2, 166317, Note_on_c, 0, 74, 90
2, 166334, Note_on_c, 0, 75, 0
2, 166385, Note_on_c, 0, 75, 106
2, 166409, Note_on_c, 0, 74, 0
2, 166473, Note_on_c, 0, 76, 96
2, 166475, Note_on_c, 0, 75, 0
2, 166476, Note_on_c, 0, 69, 66
2, 166560, Note_on_c, 0, 69, 0
2, 166560, Note_on_c, 0, 76, 0
2, 166682, Note_on_c, 0, 60, 82
2, 166685, Note_on_c, 0, 63, 75
2, 166709, Note_on_c, 0, 63, 0
2, 166726, Note_on_c, 0, 60, 0
2, 166790, Note_on_c, 0, 78, 100
2, 166905, Note_on_c, 0, 52, 72
2, 166911, Note_on_c, 0, 80, 107
2, 166945, Control_c, 0, 64, 63
2, 166946, Note_on_c, 0, 78, 0
2, 167005, Control_c, 0, 64, 127
2, 167117, Note_on_c, 0, 80, 0
2, 167123, Note_on_c, 0, 56, 89
2, 167166, Note_on_c, 0, 52, 0
2, 167201, Note_on_c, 0, 56, 0
2, 167275, Note_on_c, 0, 85, 80
2, 167385, Note_on_c, 0, 64, 60
2, 167401, Note_on_c, 0, 73, 89
2, 167403, Note_on_c, 0, 85, 0
2, 167439, Note_on_c, 0, 64, 0
2, 167579, Note_on_c, 0, 73, 0
2, 167603, Note_on_c, 0, 61, 89
2, 167606, Note_on_c, 0, 52, 60
2, 167699, Note_on_c, 0, 52, 0
2, 167700, Note_on_c, 0, 74, 99
2, 167805, Note_on_c, 0, 74, 0
2, 167811, Note_on_c, 0, 54, 79
2, 167844, Note_on_c, 0, 61, 0
2, 167856, Control_c, 0, 64, 63
2, 167863, Control_c, 0, 64, 0
2, 167873, Note_on_c, 0, 75, 88
2, 167923, Control_c, 0, 64, 63
2, 167929, Control_c, 0, 64, 127
2, 167987, Note_on_c, 0, 76, 84
2, 167993, Note_on_c, 0, 75, 0
2, 167994, Note_on_c, 0, 54, 0
2, 168084, Note_on_c, 0, 57, 71
2, 168093, Note_on_c, 0, 74, 84
2, 168102, Note_on_c, 0, 76, 0
2, 168136, Note_on_c, 0, 57, 0
2, 168177, Note_on_c, 0, 75, 108
2, 168186, Note_on_c, 0, 74, 0
2, 168244, Note_on_c, 0, 76, 107
2, 168248, Note_on_c, 0, 75, 0
2, 168313, Note_on_c, 0, 69, 80
2, 168320, Note_on_c, 0, 77, 107
2, 168336, Note_on_c, 0, 76, 0
2, 168380, Note_on_c, 0, 69, 0
2, 168398, Note_on_c, 0, 78, 106
2, 168420, Note_on_c, 0, 77, 0
2, 168464, Note_on_c, 0, 76, 101
2, 168491, Note_on_c, 0, 78, 0
2, 168498, Note_on_c, 0, 63, 85
2, 168503, Note_on_c, 0, 60, 74
2, 168534, Note_on_c, 0, 77, 106
2, 168540, Note_on_c, 0, 63, 0
2, 168555, Note_on_c, 0, 60, 0
2, 168555, Note_on_c, 0, 76, 0
2, 168593, Note_on_c, 0, 78, 110
2, 168617, Note_on_c, 0, 77, 0
2, 168652, Note_on_c, 0, 79, 102
2, 168664, Note_on_c, 0, 78, 0
2, 168725, Note_on_c, 0, 52, 89
2, 168768, Note_on_c, 0, 80, 101
2, 168799, Note_on_c, 0, 79, 0
2, 168816, Control_c, 0, 64, 63
2, 168824, Control_c, 0, 64, 0
2, 169035, Note_on_c, 0, 56, 92
2, 169079, Control_c, 0, 64, 63
2, 169081, Control_c, 0, 64, 127
2, 169229, Note_on_c, 0, 56, 0
2, 169241, Note_on_c, 0, 80, 0
2, 169258, Note_on_c, 0, 61, 80
2, 169260, Note_on_c, 0, 78, 108
2, 169325, Note_on_c, 0, 61, 0
2, 169349, Note_on_c, 0, 52, 0
2, 169419, Note_on_c, 0, 80, 108
2, 169445, Note_on_c, 0, 78, 0
2, 169516, Note_on_c, 0, 56, 96
2, 169556, Note_on_c, 0, 56, 0
2, 169557, Note_on_c, 0, 78, 100
2, 169600, Note_on_c, 0, 80, 0
2, 169660, Note_on_c, 0, 76, 100
2, 169693, Note_on_c, 0, 78, 0
2, 169738, Note_on_c, 0, 76, 0
2, 169756, Note_on_c, 0, 45, 96
2, 169766, Note_on_c, 0, 76, 93
2, 169813, Control_c, 0, 64, 63
2, 169819, Control_c, 0, 64, 0
2, 169881, Control_c, 0, 64, 63
2, 169886, Control_c, 0, 64, 127
2, 169887, Note_on_c, 0, 78, 98
2, 169919, Note_on_c, 0, 76, 0
2, 170000, Note_on_c, 0, 55, 82
2, 170007, Note_on_c, 0, 76, 92
2, 170034, Note_on_c, 0, 45, 0
2, 170037, Note_on_c, 0, 78, 0
2, 170049, Note_on_c, 0, 55, 0
2, 170100, Note_on_c, 0, 75, 90
2, 170120, Note_on_c, 0, 76, 0
2, 170163, Note_on_c, 0, 75, 0
2, 170192, Note_on_c, 0, 75, 91
2, 170196, Note_on_c, 0, 61, 96
2, 170244, Note_on_c, 0, 61, 0
2, 170298, Note_on_c, 0, 76, 96
2, 170337, Note_on_c, 0, 75, 0
2, 170407, Note_on_c, 0, 75, 101
2, 170412, Note_on_c, 0, 51, 76
2, 170453, Note_on_c, 0, 76, 0
2, 170511, Note_on_c, 0, 51, 0
2, 170520, Note_on_c, 0, 73, 93
2, 170558, Note_on_c, 0, 75, 0
2, 170628, Note_on_c, 0, 73, 0
2, 170667, Note_on_c, 0, 44, 87
2, 170696, Note_on_c, 0, 72, 96
2, 170776, Control_c, 0, 64, 63
2, 170786, Control_c, 0, 64, 0
2, 170947, Control_c, 0, 64, 63
2, 170951, Control_c, 0, 64, 127
2, 170986, Note_on_c, 0, 51, 80
2, 171051, Note_on_c, 0, 72, 0
2, 171061, Note_on_c, 0, 44, 0
2, 171085, Note_on_c, 0, 51, 0
2, 171227, Note_on_c, 0, 75, 99
2, 171232, Note_on_c, 0, 60, 72
2, 171270, Note_on_c, 0, 75, 0
2, 171288, Note_on_c, 0, 60, 0
2, 171458, Note_on_c, 0, 51, 77
2, 171553, Note_on_c, 0, 51, 0
2, 171700, Note_on_c, 0, 60, 66
2, 171760, Note_on_c, 0, 60, 0
2, 171951, Note_on_c, 0, 51, 63
2, 172179, Note_on_c, 0, 44, 53
2, 172222, Note_on_c, 0, 51, 0
2, 172464, Note_on_c, 0, 51, 55
2, 172639, Note_on_c, 0, 44, 0
2, 172822, Note_on_c, 0, 44, 49
2, 172850, Note_on_c, 0, 63, 57
2, 172852, Note_on_c, 0, 75, 73
2, 172874, Control_c, 0, 67, 127
2, 172879, Note_on_c, 0, 51, 0
2, 173153, Control_c, 0, 64, 63
2, 173162, Control_c, 0, 64, 127
2, 173197, Note_on_c, 0, 51, 63
2, 173248, Note_on_c, 0, 63, 0
2, 173287, Note_on_c, 0, 75, 0
2, 173309, Note_on_c, 0, 44, 0
2, 173492, Note_on_c, 0, 77, 74
2, 173494, Note_on_c, 0, 59, 45
2, 173497, Note_on_c, 0, 65, 44
2, 173505, Note_on_c, 0, 51, 0
2, 173548, Note_on_c, 0, 65, 0
2, 173569, Note_on_c, 0, 77, 0
2, 173732, Note_on_c, 0, 79, 96
2, 173733, Note_on_c, 0, 51, 71
2, 173741, Note_on_c, 0, 67, 67
2, 173751, Note_on_c, 0, 59, 0
2, 173764, Note_on_c, 0, 67, 0
2, 173777, Note_on_c, 0, 79, 0
2, 173843, Note_on_c, 0, 51, 0
2, 173948, Note_on_c, 0, 59, 54
2, 173948, Note_on_c, 0, 68, 76
2, 173952, Note_on_c, 0, 80, 63
2, 173967, Note_on_c, 0, 68, 0
2, 173989, Note_on_c, 0, 80, 0
2, 174017, Note_on_c, 0, 82, 64
2, 174031, Note_on_c, 0, 59, 0
2, 174049, Note_on_c, 0, 80, 80
2, 174067, Note_on_c, 0, 82, 0
2, 174112, Note_on_c, 0, 80, 0
2, 174152, Note_on_c, 0, 51, 80
2, 174157, Note_on_c, 0, 79, 76
2, 174165, Note_on_c, 0, 67, 42
2, 174191, Note_on_c, 0, 79, 0
2, 174196, Note_on_c, 0, 67, 0
2, 174260, Note_on_c, 0, 80, 95
2, 174263, Note_on_c, 0, 68, 82
2, 174302, Note_on_c, 0, 68, 0
2, 174325, Note_on_c, 0, 80, 0
2, 174354, Note_on_c, 0, 44, 75
2, 174413, Note_on_c, 0, 51, 0
2, 174426, Note_on_c, 0, 82, 97
2, 174430, Note_on_c, 0, 70, 81
2, 174476, Control_c, 0, 64, 63
2, 174487, Control_c, 0, 64, 0
2, 174570, Control_c, 0, 64, 63
2, 174577, Control_c, 0, 64, 127
2, 174664, Note_on_c, 0, 70, 0
2, 174691, Note_on_c, 0, 82, 0
2, 174708, Note_on_c, 0, 51, 91
2, 174753, Note_on_c, 0, 51, 0
2, 174758, Note_on_c, 0, 44, 0
2, 174807, Note_on_c, 0, 83, 98
2, 174811, Note_on_c, 0, 71, 81
2, 174835, Note_on_c, 0, 71, 0
2, 174843, Note_on_c, 0, 83, 0
2, 174917, Note_on_c, 0, 43, 97
2, 174931, Note_on_c, 0, 82, 98
2, 174935, Note_on_c, 0, 70, 84
2, 175006, Control_c, 0, 64, 63
2, 175013, Control_c, 0, 64, 0
2, 175135, Control_c, 0, 64, 63
2, 175139, Control_c, 0, 64, 127
2, 175163, Note_on_c, 0, 51, 86
2, 175183, Note_on_c, 0, 43, 0
2, 175238, Note_on_c, 0, 51, 0
2, 175253, Note_on_c, 0, 70, 0
2, 175268, Note_on_c, 0, 82, 0
2, 175356, Note_on_c, 0, 58, 87
2, 175411, Note_on_c, 0, 58, 0
2, 175583, Note_on_c, 0, 51, 71
2, 175591, Note_on_c, 0, 87, 106
2, 175594, Note_on_c, 0, 75, 99
2, 175625, Note_on_c, 0, 87, 0
2, 175626, Note_on_c, 0, 75, 0
2, 175729, Note_on_c, 0, 51, 0
2, 175807, Note_on_c, 0, 75, 97
2, 175848, Note_on_c, 0, 75, 0
2, 175881, Note_on_c, 0, 58, 68
2, 175885, Note_on_c, 0, 75, 63
2, 175954, Note_on_c, 0, 58, 0
2, 175967, Note_on_c, 0, 63, 101
2, 176137, Note_on_c, 0, 51, 100
2, 176179, Note_on_c, 0, 51, 0
2, 176350, Note_on_c, 0, 63, 0
2, 176368, Note_on_c, 0, 75, 0
2, 176385, Note_on_c, 0, 43, 113
2, 176452, Note_on_c, 0, 43, 0
2, 176702, Note_on_c, 0, 51, 91
2, 176756, Note_on_c, 0, 51, 0
2, 176766, Control_c, 0, 67, 0
2, 177096, Note_on_c, 0, 30, 98
2, 177146, Note_on_c, 0, 74, 87
2, 177150, Note_on_c, 0, 62, 64
2, 177233, Control_c, 0, 64, 63
2, 177239, Control_c, 0, 64, 0
2, 177308, Control_c, 0, 64, 63
2, 177313, Control_c, 0, 64, 127
2, 177348, Note_on_c, 0, 30, 0
2, 177452, Note_on_c, 0, 74, 0
2, 177463, Note_on_c, 0, 62, 0
2, 177510, Note_on_c, 0, 42, 88
2, 177557, Note_on_c, 0, 42, 0
2, 177680, Note_on_c, 0, 73, 92
2, 177684, Note_on_c, 0, 61, 87
2, 177721, Note_on_c, 0, 61, 0
2, 177736, Note_on_c, 0, 73, 0
2, 177830, Note_on_c, 0, 58, 80
2, 177836, Note_on_c, 0, 72, 93
2, 177843, Note_on_c, 0, 60, 68
2, 177865, Note_on_c, 0, 60, 0
2, 177876, Note_on_c, 0, 58, 0
2, 177877, Note_on_c, 0, 72, 0
2, 177975, Note_on_c, 0, 73, 97
2, 177978, Note_on_c, 0, 61, 86
2, 178007, Note_on_c, 0, 61, 0
2, 178027, Note_on_c, 0, 73, 0
2, 178073, Note_on_c, 0, 49, 74
2, 178089, Note_on_c, 0, 75, 99
2, 178093, Note_on_c, 0, 63, 85
2, 178127, Note_on_c, 0, 63, 0
2, 178136, Note_on_c, 0, 75, 0
2, 178167, Note_on_c, 0, 49, 0
2, 178184, Note_on_c, 0, 77, 99
2, 178186, Note_on_c, 0, 65, 81
2, 178206, Note_on_c, 0, 65, 0
2, 178216, Note_on_c, 0, 77, 0
2, 178293, Note_on_c, 0, 57, 93
2, 178299, Note_on_c, 0, 66, 103
2, 178320, Control_c, 0, 64, 127
2, 178392, Control_c, 0, 64, 63
2, 178398, Control_c, 0, 64, 0
2, 178420, Control_c, 0, 64, 63
2, 178425, Control_c, 0, 64, 127
2, 178433, Note_on_c, 0, 78, 93
2, 178465, Note_on_c, 0, 66, 0
2, 178539, Note_on_c, 0, 78, 0
2, 178565, Note_on_c, 0, 49, 73
2, 178571, Note_on_c, 0, 57, 0
2, 178572, Note_on_c, 0, 80, 107
2, 178577, Note_on_c, 0, 68, 76
2, 178601, Note_on_c, 0, 68, 0
2, 178620, Note_on_c, 0, 80, 0
2, 178724, Note_on_c, 0, 66, 99
2, 178730, Note_on_c, 0, 78, 101
2, 178752, Note_on_c, 0, 66, 0
2, 178771, Note_on_c, 0, 78, 0
2, 178773, Note_on_c, 0, 80, 95
2, 178803, Note_on_c, 0, 80, 0
2, 178812, Note_on_c, 0, 78, 86
2, 178850, Note_on_c, 0, 78, 0
2, 178867, Note_on_c, 0, 42, 91
2, 178882, Note_on_c, 0, 65, 104
2, 178886, Note_on_c, 0, 77, 87
2, 178887, Note_on_c, 0, 49, 0
2, 178905, Note_on_c, 0, 77, 0
2, 178906, Note_on_c, 0, 65, 0
2, 178995, Note_on_c, 0, 78, 107
2, 179001, Note_on_c, 0, 66, 88
2, 179024, Note_on_c, 0, 66, 0
2, 179041, Note_on_c, 0, 78, 0
2, 179091, Note_on_c, 0, 49, 92
2, 179104, Note_on_c, 0, 80, 109
2, 179108, Note_on_c, 0, 68, 88
2, 179125, Note_on_c, 0, 68, 0
2, 179145, Note_on_c, 0, 80, 0
2, 179182, Note_on_c, 0, 49, 0
2, 179194, Note_on_c, 0, 81, 90
2, 179196, Note_on_c, 0, 69, 94
2, 179212, Note_on_c, 0, 81, 0
2, 179213, Note_on_c, 0, 69, 0
2, 179248, Note_on_c, 0, 42, 0
2, 179308, Note_on_c, 0, 41, 113
2, 179337, Control_c, 0, 64, 63
2, 179343, Control_c, 0, 64, 0
2, 179380, Note_on_c, 0, 80, 118
2, 179381, Note_on_c, 0, 68, 114
2, 179422, Control_c, 0, 64, 63
2, 179423, Control_c, 0, 64, 127
2, 179469, Note_on_c, 0, 68, 0
2, 179493, Note_on_c, 0, 80, 0
2, 179529, Note_on_c, 0, 41, 0
2, 179607, Note_on_c, 0, 85, 119
2, 179609, Note_on_c, 0, 73, 114
2, 179629, Note_on_c, 0, 73, 0
2, 179636, Note_on_c, 0, 85, 0
2, 179720, Note_on_c, 0, 49, 82
2, 179754, Note_on_c, 0, 49, 0
2, 179799, Note_on_c, 0, 72, 96
2, 179804, Note_on_c, 0, 84, 82
2, 179816, Note_on_c, 0, 72, 0
2, 179822, Note_on_c, 0, 84, 0
2, 179873, Note_on_c, 0, 83, 90
2, 179874, Note_on_c, 0, 71, 88
2, 179903, Note_on_c, 0, 71, 0
2, 179904, Note_on_c, 0, 83, 0
2, 179955, Note_on_c, 0, 82, 95
2, 179955, Note_on_c, 0, 70, 92
2, 179977, Note_on_c, 0, 70, 0
2, 179984, Note_on_c, 0, 82, 0
2, 180026, Note_on_c, 0, 69, 86
2, 180027, Note_on_c, 0, 81, 76
2, 180030, Note_on_c, 0, 56, 76
2, 180048, Note_on_c, 0, 69, 0
2, 180050, Note_on_c, 0, 81, 0
2, 180063, Note_on_c, 0, 56, 0
2, 180098, Note_on_c, 0, 68, 93
2, 180099, Note_on_c, 0, 80, 90
2, 180126, Note_on_c, 0, 68, 0
2, 180134, Note_on_c, 0, 80, 0
2, 180162, Note_on_c, 0, 79, 97
2, 180169, Note_on_c, 0, 67, 86
2, 180188, Note_on_c, 0, 79, 0
2, 180195, Note_on_c, 0, 67, 0
2, 180234, Note_on_c, 0, 78, 94
2, 180235, Note_on_c, 0, 66, 90
2, 180267, Note_on_c, 0, 66, 0
2, 180277, Note_on_c, 0, 78, 0
2, 180279, Note_on_c, 0, 49, 79
2, 180295, Control_c, 0, 64, 63
2, 180301, Note_on_c, 0, 65, 88
2, 180301, Note_on_c, 0, 77, 99
2, 180305, Control_c, 0, 64, 127
2, 180318, Note_on_c, 0, 77, 0
2, 180321, Note_on_c, 0, 65, 0
2, 180344, Note_on_c, 0, 49, 0
2, 180370, Note_on_c, 0, 76, 104
2, 180374, Note_on_c, 0, 64, 96
2, 180389, Note_on_c, 0, 76, 0
2, 180396, Note_on_c, 0, 64, 0
2, 180440, Note_on_c, 0, 75, 108
2, 180440, Note_on_c, 0, 63, 103
2, 180472, Note_on_c, 0, 63, 0
2, 180482, Note_on_c, 0, 75, 0
2, 180512, Note_on_c, 0, 74, 110
2, 180514, Note_on_c, 0, 62, 104
2, 180537, Note_on_c, 0, 74, 0
2, 180544, Note_on_c, 0, 62, 0
2, 180600, Note_on_c, 0, 73, 115
2, 180603, Note_on_c, 0, 61, 105
2, 180604, Note_on_c, 0, 56, 89
2, 180667, Control_c, 0, 64, 63
2, 180674, Control_c, 0, 64, 0
2, 180843, Control_c, 0, 64, 63
2, 180843, Control_c, 0, 64, 127
2, 180894, Note_on_c, 0, 49, 108
2, 180896, Note_on_c, 0, 56, 0
2, 180996, Note_on_c, 0, 49, 0
2, 181128, Note_on_c, 0, 41, 121
2, 181170, Note_on_c, 0, 41, 0
2, 181356, Note_on_c, 0, 49, 118
2, 181386, Note_on_c, 0, 49, 0
2, 181688, Note_on_c, 0, 28, 126
2, 181695, Control_c, 0, 64, 63
2, 181697, Control_c, 0, 64, 0
2, 181759, Control_c, 0, 64, 63
2, 181761, Control_c, 0, 64, 127
2, 181828, Note_on_c, 0, 28, 0
2, 181839, Note_on_c, 0, 61, 0
2, 181846, Note_on_c, 0, 73, 0
2, 182039, Note_on_c, 0, 71, 98
2, 182043, Note_on_c, 0, 59, 107
2, 182044, Note_on_c, 0, 40, 112
2, 182071, Note_on_c, 0, 59, 0
2, 182073, Note_on_c, 0, 71, 0
2, 182078, Note_on_c, 0, 40, 0
2, 182294, Note_on_c, 0, 76, 104
2, 182298, Note_on_c, 0, 64, 79
2, 182299, Note_on_c, 0, 56, 107
2, 182316, Note_on_c, 0, 76, 0
2, 182318, Note_on_c, 0, 64, 0
2, 182358, Note_on_c, 0, 56, 0
2, 182502, Note_on_c, 0, 47, 114
2, 182504, Note_on_c, 0, 78, 109
2, 182505, Note_on_c, 0, 66, 114
2, 182538, Note_on_c, 0, 66, 0
2, 182549, Note_on_c, 0, 78, 0
2, 182706, Note_on_c, 0, 52, 102
2, 182720, Note_on_c, 0, 80, 112
2, 182723, Note_on_c, 0, 68, 114
2, 182751, Control_c, 0, 64, 63
2, 182761, Control_c, 0, 64, 0
2, 182789, Control_c, 0, 64, 63
2, 182801, Control_c, 0, 64, 127
2, 182897, Note_on_c, 0, 47, 0
2, 182946, Note_on_c, 0, 68, 0
2, 182965, Note_on_c, 0, 80, 0
2, 182993, Note_on_c, 0, 47, 111
2, 183184, Note_on_c, 0, 83, 106
2, 183185, Note_on_c, 0, 71, 108
2, 183191, Note_on_c, 0, 40, 117
2, 183220, Note_on_c, 0, 52, 0
2, 183222, Note_on_c, 0, 71, 0
2, 183224, Note_on_c, 0, 47, 0
2, 183239, Note_on_c, 0, 83, 0
2, 183411, Note_on_c, 0, 88, 107
2, 183415, Note_on_c, 0, 76, 102
2, 183417, Note_on_c, 0, 47, 116
2, 183445, Note_on_c, 0, 76, 0
2, 183458, Note_on_c, 0, 88, 0
2, 183458, Note_on_c, 0, 40, 0
2, 183664, Note_on_c, 0, 40, 116
2, 183715, Note_on_c, 0, 92, 110
2, 183719, Note_on_c, 0, 80, 113
2, 183787, Control_c, 0, 64, 63
2, 183797, Control_c, 0, 64, 0
2, 183843, Note_on_c, 0, 47, 0
2, 183850, Control_c, 0, 64, 63
2, 183859, Control_c, 0, 64, 127
2, 183981, Note_on_c, 0, 52, 113
2, 183989, Note_on_c, 0, 80, 0
2, 183999, Note_on_c, 0, 40, 0
2, 184016, Note_on_c, 0, 92, 0
2, 184022, Note_on_c, 0, 52, 0
2, 184186, Note_on_c, 0, 95, 108
2, 184188, Note_on_c, 0, 83, 104
2, 184192, Note_on_c, 0, 62, 104
2, 184195, Note_on_c, 0, 56, 103
2, 184458, Note_on_c, 0, 52, 92
2, 184547, Note_on_c, 0, 56, 0
2, 184573, Note_on_c, 0, 62, 0
2, 184654, Note_on_c, 0, 56, 98
2, 184655, Note_on_c, 0, 62, 99
2, 184807, Note_on_c, 0, 52, 0
2, 184835, Note_on_c, 0, 56, 0
2, 184861, Note_on_c, 0, 95, 0
2, 184861, Note_on_c, 0, 52, 96
2, 184870, Note_on_c, 0, 83, 0
2, 184902, Note_on_c, 0, 62, 0
2, 185072, Note_on_c, 0, 62, 101
2, 185076, Note_on_c, 0, 58, 91
2, 185079, Note_on_c, 0, 94, 115
2, 185082, Note_on_c, 0, 82, 116
2, 185285, Note_on_c, 0, 52, 0
2, 185289, Note_on_c, 0, 94, 0
2, 185291, Note_on_c, 0, 82, 0
2, 185335, Note_on_c, 0, 52, 109
2, 185349, Note_on_c, 0, 58, 0
2, 185365, Note_on_c, 0, 62, 0
2, 185402, Note_on_c, 0, 52, 0
2, 185596, Note_on_c, 0, 40, 118
2, 185642, Note_on_c, 0, 94, 113
2, 185645, Note_on_c, 0, 82, 110
2, 185668, Control_c, 0, 64, 63
2, 185673, Control_c, 0, 64, 0
2, 185747, Control_c, 0, 64, 63
2, 185751, Control_c, 0, 64, 127
2, 185845, Note_on_c, 0, 94, 0
2, 185875, Note_on_c, 0, 82, 0
2, 185927, Note_on_c, 0, 52, 101
2, 185943, Note_on_c, 0, 92, 113
2, 185944, Note_on_c, 0, 40, 0
2, 185944, Note_on_c, 0, 80, 110
2, 185973, Note_on_c, 0, 80, 0
2, 185980, Note_on_c, 0, 92, 0
2, 185980, Note_on_c, 0, 52, 0
2, 186120, Note_on_c, 0, 59, 72
2, 186133, Note_on_c, 0, 62, 89
2, 186179, Note_on_c, 0, 92, 112
2, 186180, Note_on_c, 0, 80, 114
2, 186212, Note_on_c, 0, 80, 0
2, 186217, Note_on_c, 0, 92, 0
2, 186278, Note_on_c, 0, 59, 0
2, 186295, Note_on_c, 0, 62, 0
2, 186373, Note_on_c, 0, 90, 105
2, 186374, Note_on_c, 0, 78, 109
2, 186407, Note_on_c, 0, 78, 0
2, 186410, Note_on_c, 0, 90, 0
2, 186452, Note_on_c, 0, 52, 92
2, 186496, Note_on_c, 0, 52, 0
2, 186524, Note_on_c, 0, 88, 102
2, 186526, Note_on_c, 0, 76, 97
2, 186557, Note_on_c, 0, 76, 0
2, 186558, Note_on_c, 0, 88, 0
2, 186649, Note_on_c, 0, 40, 107
2, 186665, Note_on_c, 0, 87, 105
2, 186666, Note_on_c, 0, 75, 104
2, 186711, Control_c, 0, 64, 63
2, 186719, Control_c, 0, 64, 0
2, 186755, Control_c, 0, 64, 63
2, 186766, Control_c, 0, 64, 127
2, 186859, Note_on_c, 0, 87, 0
2, 186862, Note_on_c, 0, 75, 0
2, 186897, Note_on_c, 0, 52, 92
2, 186903, Note_on_c, 0, 86, 98
2, 186905, Note_on_c, 0, 40, 0
2, 186907, Note_on_c, 0, 74, 83
2, 186935, Note_on_c, 0, 86, 0
2, 186939, Note_on_c, 0, 52, 0
2, 186941, Note_on_c, 0, 74, 0
2, 187128, Note_on_c, 0, 56, 60
2, 187130, Note_on_c, 0, 62, 65
2, 187132, Note_on_c, 0, 83, 92
2, 187133, Note_on_c, 0, 71, 90
2, 187175, Note_on_c, 0, 83, 0
2, 187179, Note_on_c, 0, 71, 0
2, 187314, Note_on_c, 0, 82, 98
2, 187321, Note_on_c, 0, 70, 90
2, 187356, Note_on_c, 0, 70, 0
2, 187366, Note_on_c, 0, 82, 0
2, 187410, Note_on_c, 0, 52, 71
2, 187412, Note_on_c, 0, 62, 0
2, 187435, Note_on_c, 0, 56, 0
2, 187477, Note_on_c, 0, 52, 0
2, 187495, Note_on_c, 0, 68, 92
2, 187495, Note_on_c, 0, 80, 92
2, 187582, Note_on_c, 0, 80, 0
2, 187599, Note_on_c, 0, 68, 0
2, 187688, Note_on_c, 0, 39, 57
2, 187699, Note_on_c, 0, 79, 94
2, 187703, Note_on_c, 0, 67, 73
2, 187764, Control_c, 0, 64, 63
2, 187775, Control_c, 0, 64, 0
2, 187985, Control_c, 0, 64, 63
2, 187986, Control_c, 0, 64, 127
2, 188033, Note_on_c, 0, 51, 79
2, 188114, Note_on_c, 0, 67, 0
2, 188172, Note_on_c, 0, 79, 0
2, 188174, Note_on_c, 0, 39, 0
2, 188227, Note_on_c, 0, 51, 0
2, 188349, Note_on_c, 0, 61, 52
2, 188358, Note_on_c, 0, 82, 88
2, 188366, Note_on_c, 0, 70, 70
2, 188385, Note_on_c, 0, 61, 0
2, 188708, Note_on_c, 0, 65, 75
2, 188988, Note_on_c, 0, 60, 48
2, 189061, Note_on_c, 0, 65, 0
2, 189271, Note_on_c, 0, 63, 45
2, 189587, Note_on_c, 0, 63, 0
2, 189594, Note_on_c, 0, 58, 42
2, 189731, Note_on_c, 0, 60, 0
2, 189740, Note_on_c, 0, 70, 0
2, 189744, Note_on_c, 0, 82, 0
2, 189981, Note_on_c, 0, 61, 29
2, 190073, Note_on_c, 0, 58, 0
2, 190231, Note_on_c, 0, 61, 0
2, 190498, Note_on_c, 0, 44, 45
2, 190555, Note_on_c, 0, 72, 41
2, 190659, Control_c, 0, 64, 63
2, 190702, Control_c, 0, 64, 0
2, 190796, Control_c, 0, 64, 63
2, 190813, Control_c, 0, 64, 127
2, 190934, Note_on_c, 0, 51, 54
2, 190957, Note_on_c, 0, 44, 0
2, 191233, Note_on_c, 0, 56, 41
2, 191256, Note_on_c, 0, 60, 55
2, 191318, Note_on_c, 0, 72, 0
2, 191379, Note_on_c, 0, 51, 0
2, 191518, Note_on_c, 0, 60, 0
2, 191522, Note_on_c, 0, 73, 91
2, 191534, Note_on_c, 0, 51, 57
2, 191549, Note_on_c, 0, 56, 0
2, 191696, Note_on_c, 0, 44, 66
2, 191707, Note_on_c, 0, 73, 0
2, 191755, Note_on_c, 0, 75, 88
2, 191788, Control_c, 0, 64, 63
2, 191791, Note_on_c, 0, 51, 0
2, 191843, Control_c, 0, 64, 127
2, 191905, Note_on_c, 0, 77, 71
2, 191939, Note_on_c, 0, 75, 0
2, 191995, Note_on_c, 0, 75, 90
2, 192002, Note_on_c, 0, 51, 61
2, 192019, Note_on_c, 0, 44, 0
2, 192021, Note_on_c, 0, 77, 0
2, 192074, Note_on_c, 0, 75, 0
2, 192079, Note_on_c, 0, 74, 72
2, 192148, Note_on_c, 0, 75, 101
2, 192153, Note_on_c, 0, 74, 0
2, 192210, Note_on_c, 0, 75, 0
2, 192223, Note_on_c, 0, 56, 33
2, 192242, Note_on_c, 0, 60, 33
2, 192259, Note_on_c, 0, 80, 99
2, 192308, Note_on_c, 0, 80, 0
2, 192340, Note_on_c, 0, 51, 0
2, 192420, Note_on_c, 0, 60, 0
2, 192486, Note_on_c, 0, 56, 0
2, 192489, Note_on_c, 0, 84, 79
2, 192505, Note_on_c, 0, 51, 45
2, 192554, Note_on_c, 0, 51, 0
2, 192693, Note_on_c, 0, 84, 0
2, 192718, Control_c, 0, 64, 63
2, 192726, Note_on_c, 0, 39, 58
2, 192738, Note_on_c, 0, 82, 83
2, 192749, Control_c, 0, 64, 0
2, 192762, Control_c, 0, 64, 63
2, 192786, Control_c, 0, 64, 127
2, 192835, Note_on_c, 0, 39, 0
2, 192995, Note_on_c, 0, 51, 37
2, 193232, Note_on_c, 0, 61, 49
2, 193259, Note_on_c, 0, 55, 33
2, 193273, Note_on_c, 0, 82, 0
2, 193370, Note_on_c, 0, 61, 0
2, 193376, Note_on_c, 0, 51, 0
2, 193408, Note_on_c, 0, 55, 0
2, 193471, Note_on_c, 0, 51, 63
2, 193473, Note_on_c, 0, 79, 62
2, 193521, Note_on_c, 0, 51, 0
2, 193641, Note_on_c, 0, 79, 0
2, 193704, Note_on_c, 0, 39, 44
2, 193752, Note_on_c, 0, 75, 76
2, 193754, Control_c, 0, 64, 63
2, 193774, Control_c, 0, 64, 0
2, 193822, Control_c, 0, 64, 63
2, 193836, Control_c, 0, 64, 127
2, 193977, Note_on_c, 0, 51, 53
2, 193979, Note_on_c, 0, 39, 0
2, 194019, Note_on_c, 0, 51, 0
2, 194083, Note_on_c, 0, 75, 0
2, 194252, Note_on_c, 0, 63, 57
2, 194395, Note_on_c, 0, 63, 0
2, 194554, Note_on_c, 0, 51, 35
2, 194562, Note_on_c, 0, 73, 57
2, 194763, Note_on_c, 0, 73, 0
2, 194852, Note_on_c, 0, 44, 34
2, 194873, Note_on_c, 0, 51, 0
2, 194905, Note_on_c, 0, 72, 52
2, 194948, Control_c, 0, 64, 63
2, 195018, Control_c, 0, 64, 127
2, 195136, Note_on_c, 0, 73, 68
2, 195146, Note_on_c, 0, 72, 0
2, 195226, Note_on_c, 0, 51, 50
2, 195248, Note_on_c, 0, 44, 0
2, 195316, Note_on_c, 0, 72, 76
2, 195323, Note_on_c, 0, 73, 0
2, 195448, Note_on_c, 0, 72, 0
2, 195468, Note_on_c, 0, 56, 43
2, 195482, Note_on_c, 0, 60, 34
2, 195485, Note_on_c, 0, 51, 0
2, 195491, Note_on_c, 0, 71, 68
2, 195582, Note_on_c, 0, 71, 0
2, 195631, Note_on_c, 0, 56, 0
2, 195632, Note_on_c, 0, 60, 0
2, 195635, Note_on_c, 0, 72, 76
2, 195693, Note_on_c, 0, 72, 0
2, 195732, Note_on_c, 0, 51, 55
2, 195764, Note_on_c, 0, 73, 75
2, 195823, Note_on_c, 0, 73, 0
2, 195854, Note_on_c, 0, 74, 79
2, 195930, Note_on_c, 0, 44, 69
2, 195948, Control_c, 0, 64, 63
2, 195985, Note_on_c, 0, 51, 0
2, 195987, Note_on_c, 0, 75, 78
2, 195991, Control_c, 0, 64, 127
2, 196002, Note_on_c, 0, 74, 0
2, 196031, Note_on_c, 0, 77, 70
2, 196036, Note_on_c, 0, 75, 0
2, 196071, Note_on_c, 0, 75, 71
2, 196074, Note_on_c, 0, 77, 0
2, 196123, Note_on_c, 0, 74, 59
2, 196129, Note_on_c, 0, 75, 0
2, 196204, Note_on_c, 0, 51, 60
2, 196206, Note_on_c, 0, 75, 76
2, 196211, Note_on_c, 0, 44, 0
2, 196213, Note_on_c, 0, 74, 0
2, 196287, Note_on_c, 0, 75, 0
2, 196298, Note_on_c, 0, 77, 85
2, 196392, Note_on_c, 0, 56, 55
2, 196401, Note_on_c, 0, 77, 0
2, 196401, Note_on_c, 0, 60, 68
2, 196403, Note_on_c, 0, 79, 85
2, 196512, Note_on_c, 0, 80, 103
2, 196527, Note_on_c, 0, 51, 0
2, 196533, Note_on_c, 0, 79, 0
2, 196605, Note_on_c, 0, 60, 0
2, 196623, Note_on_c, 0, 80, 0
2, 196640, Note_on_c, 0, 51, 75
2, 196645, Note_on_c, 0, 82, 107
2, 196653, Note_on_c, 0, 56, 0
2, 196681, Note_on_c, 0, 51, 0
2, 196762, Note_on_c, 0, 84, 103
2, 196787, Note_on_c, 0, 82, 0
2, 196899, Note_on_c, 0, 84, 0
2, 196923, Note_on_c, 0, 39, 84
2, 196950, Note_on_c, 0, 84, 106
2, 196992, Control_c, 0, 64, 63
2, 196997, Control_c, 0, 64, 0
2, 197071, Control_c, 0, 64, 63
2, 197075, Control_c, 0, 64, 127
2, 197156, Note_on_c, 0, 39, 0
2, 197275, Note_on_c, 0, 51, 67
2, 197291, Note_on_c, 0, 82, 88
2, 197331, Note_on_c, 0, 84, 0
2, 197539, Note_on_c, 0, 61, 72
2, 197550, Note_on_c, 0, 55, 56
2, 197704, Note_on_c, 0, 51, 0
2, 197735, Note_on_c, 0, 61, 0
2, 197780, Note_on_c, 0, 79, 78
2, 197791, Note_on_c, 0, 51, 74
2, 197810, Note_on_c, 0, 82, 0
2, 197813, Note_on_c, 0, 55, 0
2, 197858, Note_on_c, 0, 51, 0
2, 198000, Note_on_c, 0, 39, 95
2, 198067, Control_c, 0, 64, 63
2, 198083, Control_c, 0, 64, 0
2, 198122, Control_c, 0, 64, 63
2, 198136, Control_c, 0, 64, 127
2, 198233, Note_on_c, 0, 75, 89
2, 198241, Note_on_c, 0, 51, 79
2, 198255, Note_on_c, 0, 39, 0
2, 198256, Note_on_c, 0, 79, 0
2, 198299, Note_on_c, 0, 51, 0
2, 198357, Note_on_c, 0, 75, 0
2, 198474, Note_on_c, 0, 63, 78
2, 198557, Note_on_c, 0, 63, 0
2, 198745, Note_on_c, 0, 51, 51
2, 198746, Note_on_c, 0, 73, 76
2, 198796, Note_on_c, 0, 73, 0
2, 199051, Note_on_c, 0, 44, 71
2, 199092, Note_on_c, 0, 51, 0
2, 199097, Note_on_c, 0, 72, 87
2, 199197, Control_c, 0, 64, 63
2, 199202, Control_c, 0, 64, 0
2, 199405, Note_on_c, 0, 51, 70
2, 199420, Control_c, 0, 64, 63
2, 199421, Control_c, 0, 64, 127
2, 199495, Note_on_c, 0, 44, 0
2, 199620, Note_on_c, 0, 56, 70
2, 199625, Note_on_c, 0, 77, 92
2, 199632, Note_on_c, 0, 72, 0
2, 199777, Note_on_c, 0, 77, 0
2, 199859, Note_on_c, 0, 60, 81
2, 199910, Note_on_c, 0, 56, 0
2, 199912, Note_on_c, 0, 60, 0
2, 199934, Note_on_c, 0, 51, 0
2, 199963, Note_on_c, 0, 75, 97
2, 200077, Note_on_c, 0, 44, 86
2, 200089, Note_on_c, 0, 75, 0
2, 200093, Note_on_c, 0, 74, 92
2, 200106, Control_c, 0, 64, 63
2, 200110, Control_c, 0, 64, 0
2, 200183, Control_c, 0, 64, 63
2, 200187, Control_c, 0, 64, 127
2, 200333, Note_on_c, 0, 53, 81
2, 200335, Note_on_c, 0, 44, 0
2, 200369, Note_on_c, 0, 74, 0
2, 200528, Note_on_c, 0, 58, 67
2, 200536, Note_on_c, 0, 79, 91
2, 200540, Note_on_c, 0, 53, 0
2, 200584, Note_on_c, 0, 58, 0
2, 200633, Note_on_c, 0, 79, 0
2, 200756, Note_on_c, 0, 62, 88
2, 200804, Note_on_c, 0, 62, 0
2, 200848, Note_on_c, 0, 77, 99
2, 200951, Note_on_c, 0, 43, 101
2, 200986, Note_on_c, 0, 75, 101
2, 200991, Control_c, 0, 64, 63
2, 200997, Control_c, 0, 64, 0
2, 201001, Note_on_c, 0, 77, 0
2, 201041, Control_c, 0, 64, 63
2, 201049, Control_c, 0, 64, 127
2, 201155, Note_on_c, 0, 75, 0
2, 201234, Note_on_c, 0, 51, 63
2, 201255, Note_on_c, 0, 43, 0
2, 201255, Note_on_c, 0, 80, 112
2, 201328, Note_on_c, 0, 51, 0
2, 201360, Note_on_c, 0, 80, 0
2, 201510, Note_on_c, 0, 58, 93
2, 201562, Note_on_c, 0, 58, 0
2, 201735, Note_on_c, 0, 63, 93
2, 201740, Note_on_c, 0, 79, 109
2, 201785, Note_on_c, 0, 63, 0
2, 201878, Note_on_c, 0, 79, 0
2, 202043, Note_on_c, 0, 45, 101
2, 202057, Note_on_c, 0, 77, 107
2, 202058, Control_c, 0, 64, 63
2, 202062, Control_c, 0, 64, 0
2, 202104, Control_c, 0, 64, 63
2, 202114, Control_c, 0, 64, 127
2, 202191, Note_on_c, 0, 77, 0
2, 202236, Note_on_c, 0, 45, 0
2, 202266, Note_on_c, 0, 75, 113
2, 202318, Note_on_c, 0, 75, 0
2, 202436, Note_on_c, 0, 53, 87
2, 202498, Note_on_c, 0, 91, 111
2, 202554, Note_on_c, 0, 91, 0
2, 202620, Note_on_c, 0, 53, 0
2, 202735, Note_on_c, 0, 89, 103
2, 202858, Note_on_c, 0, 60, 65
2, 202863, Note_on_c, 0, 89, 0
2, 202906, Note_on_c, 0, 87, 108
2, 203011, Note_on_c, 0, 87, 0
2, 203025, Note_on_c, 0, 60, 0
2, 203033, Note_on_c, 0, 86, 83
2, 203070, Note_on_c, 0, 87, 83
2, 203076, Note_on_c, 0, 86, 0
2, 203103, Note_on_c, 0, 87, 0
2, 203111, Note_on_c, 0, 86, 71
2, 203158, Note_on_c, 0, 84, 80
2, 203160, Note_on_c, 0, 86, 0
2, 203212, Note_on_c, 0, 86, 82
2, 203214, Note_on_c, 0, 84, 0
2, 203245, Note_on_c, 0, 63, 69
2, 203290, Note_on_c, 0, 63, 0
2, 203309, Note_on_c, 0, 89, 90
2, 203314, Note_on_c, 0, 86, 0
2, 203445, Note_on_c, 0, 89, 0
2, 203457, Note_on_c, 0, 87, 88
2, 203561, Note_on_c, 0, 84, 87
2, 203568, Note_on_c, 0, 87, 0
2, 203658, Note_on_c, 0, 46, 65
2, 203691, Control_c, 0, 64, 63
2, 203697, Control_c, 0, 64, 0
2, 203705, Note_on_c, 0, 84, 0
2, 203709, Note_on_c, 0, 82, 91
2, 203731, Control_c, 0, 64, 63
2, 203744, Control_c, 0, 64, 127
2, 203799, Note_on_c, 0, 82, 0
2, 203881, Note_on_c, 0, 46, 0
2, 203934, Note_on_c, 0, 96, 75
2, 203981, Note_on_c, 0, 96, 0
2, 204089, Note_on_c, 0, 87, 63
2, 204147, Note_on_c, 0, 87, 0
2, 204208, Note_on_c, 0, 55, 40
2, 204224, Note_on_c, 0, 94, 79
2, 204311, Note_on_c, 0, 94, 0
2, 204346, Note_on_c, 0, 82, 55
2, 204431, Note_on_c, 0, 82, 0
2, 204446, Note_on_c, 0, 92, 67
2, 204544, Note_on_c, 0, 87, 73
2, 204548, Note_on_c, 0, 92, 0
2, 204553, Note_on_c, 0, 58, 50
2, 204592, Note_on_c, 0, 55, 0
2, 204632, Note_on_c, 0, 91, 76
2, 204690, Note_on_c, 0, 91, 0
2, 204715, Note_on_c, 0, 79, 69
2, 204722, Note_on_c, 0, 87, 0
2, 204796, Note_on_c, 0, 89, 77
2, 204805, Note_on_c, 0, 79, 0
2, 204807, Note_on_c, 0, 63, 60
2, 204854, Note_on_c, 0, 63, 0
2, 204857, Note_on_c, 0, 58, 0
2, 204880, Note_on_c, 0, 82, 70
2, 204886, Note_on_c, 0, 89, 0
2, 204959, Note_on_c, 0, 87, 75
2, 204968, Note_on_c, 0, 82, 0
2, 205036, Note_on_c, 0, 46, 65
2, 205046, Control_c, 0, 64, 63
2, 205047, Note_on_c, 0, 77, 76
2, 205048, Note_on_c, 0, 87, 0
2, 205067, Control_c, 0, 64, 127
2, 205121, Note_on_c, 0, 86, 75
2, 205204, Note_on_c, 0, 80, 78
2, 205208, Note_on_c, 0, 77, 0
2, 205214, Note_on_c, 0, 86, 0
2, 205293, Note_on_c, 0, 53, 30
2, 205296, Note_on_c, 0, 84, 62
2, 205307, Note_on_c, 0, 80, 0
2, 205314, Note_on_c, 0, 46, 0
2, 205375, Note_on_c, 0, 84, 0
2, 205379, Note_on_c, 0, 53, 0
2, 205383, Note_on_c, 0, 74, 49
2, 205478, Note_on_c, 0, 82, 72
2, 205542, Note_on_c, 0, 74, 0
2, 205569, Note_on_c, 0, 77, 54
2, 205579, Note_on_c, 0, 56, 46
2, 205584, Note_on_c, 0, 82, 0
2, 205677, Note_on_c, 0, 77, 0
2, 205679, Note_on_c, 0, 80, 66
2, 205748, Note_on_c, 0, 80, 0
2, 205786, Note_on_c, 0, 68, 70
2, 205917, Note_on_c, 0, 79, 65
2, 205929, Note_on_c, 0, 68, 0
2, 205930, Note_on_c, 0, 62, 38
2, 206048, Note_on_c, 0, 74, 54
2, 206054, Note_on_c, 0, 62, 0
2, 206088, Note_on_c, 0, 79, 0
2, 206100, Note_on_c, 0, 56, 0
2, 206205, Note_on_c, 0, 77, 49
2, 206230, Note_on_c, 0, 74, 0
2, 206301, Note_on_c, 0, 77, 0
2, 206401, Note_on_c, 0, 39, 41
2, 206443, Note_on_c, 0, 75, 54
2, 206462, Note_on_c, 0, 67, 41
2, 206538, Control_c, 0, 64, 63
2, 206559, Control_c, 0, 64, 0
2, 206630, Control_c, 0, 64, 63
2, 206641, Control_c, 0, 64, 127
2, 206721, Note_on_c, 0, 67, 0
2, 206791, Note_on_c, 0, 51, 48
2, 206802, Note_on_c, 0, 75, 0
2, 206807, Note_on_c, 0, 39, 0
2, 206859, Note_on_c, 0, 51, 0
2, 207062, Note_on_c, 0, 61, 62
2, 207328, Note_on_c, 0, 65, 49
2, 207338, Note_on_c, 0, 61, 0
2, 207434, Note_on_c, 0, 65, 0
2, 207574, Note_on_c, 0, 58, 57
2, 207855, Note_on_c, 0, 61, 47
2, 207875, Note_on_c, 0, 58, 0
2, 208161, Note_on_c, 0, 61, 0
2, 208170, Note_on_c, 0, 51, 47
2, 208221, Control_c, 0, 64, 63
2, 208280, Control_c, 0, 64, 127
2, 208542, Note_on_c, 0, 63, 37
2, 208574, Note_on_c, 0, 51, 0
2, 208664, Note_on_c, 0, 63, 0
2, 209003, Note_on_c, 0, 44, 36
2, 209015, Note_on_c, 0, 68, 33
2, 209027, Note_on_c, 0, 72, 43
2, 209211, Note_on_c, 0, 68, 0
2, 209223, Note_on_c, 0, 72, 0
2, 209246, Note_on_c, 0, 44, 0
2, 209389, Note_on_c, 0, 51, 47
2, 209402, Note_on_c, 0, 73, 59
2, 209410, Note_on_c, 0, 70, 41
2, 209536, Note_on_c, 0, 73, 0
2, 209551, Note_on_c, 0, 70, 0
2, 209568, Note_on_c, 0, 51, 0
2, 209590, Note_on_c, 0, 68, 46
2, 209592, Note_on_c, 0, 72, 54
2, 209691, Note_on_c, 0, 68, 0
2, 209703, Note_on_c, 0, 72, 0
2, 209714, Note_on_c, 0, 56, 44
2, 209724, Note_on_c, 0, 60, 32
2, 209735, Note_on_c, 0, 71, 52
2, 209746, Note_on_c, 0, 67, 27
2, 209774, Note_on_c, 0, 60, 0
2, 209799, Note_on_c, 0, 56, 0
2, 209814, Note_on_c, 0, 71, 0
2, 209841, Note_on_c, 0, 67, 0
2, 209841, Note_on_c, 0, 72, 74
2, 209845, Note_on_c, 0, 68, 54
2, 209915, Note_on_c, 0, 72, 0
2, 209945, Note_on_c, 0, 51, 52
2, 209953, Note_on_c, 0, 73, 78
2, 209957, Note_on_c, 0, 70, 66
2, 209959, Note_on_c, 0, 68, 0
2, 209986, Note_on_c, 0, 70, 0
2, 210007, Note_on_c, 0, 73, 0
2, 210044, Note_on_c, 0, 74, 84
2, 210053, Note_on_c, 0, 71, 50
2, 210095, Note_on_c, 0, 74, 0
2, 210134, Note_on_c, 0, 71, 0
2, 210160, Note_on_c, 0, 51, 0
2, 210160, Note_on_c, 0, 75, 75
2, 210165, Note_on_c, 0, 44, 27
2, 210174, Note_on_c, 0, 72, 43
2, 210197, Control_c, 0, 64, 63
2, 210241, Control_c, 0, 64, 127
2, 210265, Note_on_c, 0, 74, 76
2, 210273, Note_on_c, 0, 71, 47
2, 210275, Note_on_c, 0, 72, 0
2, 210307, Note_on_c, 0, 75, 0
2, 210365, Note_on_c, 0, 74, 0
2, 210370, Note_on_c, 0, 44, 0
2, 210371, Note_on_c, 0, 51, 63
2, 210376, Note_on_c, 0, 75, 72
2, 210385, Note_on_c, 0, 71, 0
2, 210401, Note_on_c, 0, 72, 43
2, 210428, Note_on_c, 0, 72, 0
2, 210457, Note_on_c, 0, 75, 0
2, 210486, Note_on_c, 0, 77, 83
2, 210494, Note_on_c, 0, 73, 77
2, 210524, Note_on_c, 0, 77, 0
2, 210537, Note_on_c, 0, 73, 0
2, 210601, Note_on_c, 0, 51, 0
2, 210614, Note_on_c, 0, 79, 88
2, 210615, Note_on_c, 0, 56, 44
2, 210617, Note_on_c, 0, 70, 88
2, 210618, Note_on_c, 0, 60, 50
2, 210667, Note_on_c, 0, 70, 0
2, 210668, Note_on_c, 0, 79, 0
2, 210707, Note_on_c, 0, 60, 0
2, 210725, Note_on_c, 0, 56, 0
2, 210749, Note_on_c, 0, 80, 98
2, 210754, Note_on_c, 0, 72, 76
2, 210840, Note_on_c, 0, 72, 0
2, 210841, Note_on_c, 0, 80, 0
2, 210894, Note_on_c, 0, 82, 103
2, 210896, Note_on_c, 0, 75, 94
2, 210905, Note_on_c, 0, 51, 65
2, 210914, Note_on_c, 0, 75, 0
2, 210939, Note_on_c, 0, 51, 0
2, 210940, Note_on_c, 0, 82, 0
2, 211061, Note_on_c, 0, 84, 75
2, 211069, Note_on_c, 0, 80, 79
2, 211099, Note_on_c, 0, 80, 0
2, 211159, Note_on_c, 0, 80, 20
2, 211217, Note_on_c, 0, 84, 0
2, 211249, Note_on_c, 0, 80, 0
2, 211273, Control_c, 0, 64, 63
2, 211279, Note_on_c, 0, 39, 66
2, 211292, Control_c, 0, 64, 63
2, 211311, Note_on_c, 0, 84, 84
2, 211315, Note_on_c, 0, 80, 70
2, 211327, Control_c, 0, 64, 0
2, 211414, Control_c, 0, 64, 63
2, 211415, Control_c, 0, 64, 127
2, 211521, Note_on_c, 0, 39, 0
2, 211646, Note_on_c, 0, 51, 66
2, 211717, Note_on_c, 0, 84, 0
2, 211744, Note_on_c, 0, 80, 0
2, 211887, Note_on_c, 0, 61, 59
2, 211904, Note_on_c, 0, 55, 42
2, 211977, Note_on_c, 0, 61, 0
2, 211980, Note_on_c, 0, 51, 0
2, 212000, Note_on_c, 0, 55, 0
2, 212016, Note_on_c, 0, 82, 82
2, 212025, Note_on_c, 0, 79, 37
2, 212065, Note_on_c, 0, 79, 0
2, 212147, Note_on_c, 0, 82, 0
2, 212169, Note_on_c, 0, 51, 65
2, 212180, Note_on_c, 0, 70, 61
2, 212214, Note_on_c, 0, 51, 0
2, 212281, Note_on_c, 0, 70, 0
2, 212296, Note_on_c, 0, 77, 69
2, 212302, Note_on_c, 0, 73, 65
2, 212408, Control_c, 0, 64, 63
2, 212417, Note_on_c, 0, 39, 61
2, 212426, Control_c, 0, 64, 127
2, 212434, Note_on_c, 0, 80, 77
2, 212489, Note_on_c, 0, 73, 0
2, 212499, Note_on_c, 0, 39, 0
2, 212502, Note_on_c, 0, 80, 0
2, 212506, Note_on_c, 0, 77, 0
2, 212539, Note_on_c, 0, 79, 68
2, 212545, Note_on_c, 0, 75, 67
2, 212613, Note_on_c, 0, 79, 0
2, 212640, Note_on_c, 0, 51, 58
2, 212642, Note_on_c, 0, 67, 58
2, 212648, Note_on_c, 0, 75, 0
2, 212757, Note_on_c, 0, 75, 78
2, 212760, Note_on_c, 0, 67, 0
2, 212765, Note_on_c, 0, 72, 67
2, 212860, Note_on_c, 0, 72, 0
2, 212869, Note_on_c, 0, 63, 57
2, 212893, Note_on_c, 0, 79, 62
2, 212901, Note_on_c, 0, 75, 0
2, 212966, Note_on_c, 0, 51, 0
2, 213004, Note_on_c, 0, 63, 0
2, 213021, Note_on_c, 0, 73, 55
2, 213026, Note_on_c, 0, 79, 0
2, 213026, Note_on_c, 0, 77, 75
2, 213145, Note_on_c, 0, 77, 0
2, 213183, Note_on_c, 0, 73, 0
2, 213192, Note_on_c, 0, 70, 55
2, 213197, Note_on_c, 0, 51, 47
2, 213252, Note_on_c, 0, 51, 0
2, 213348, Note_on_c, 0, 75, 66
2, 213355, Note_on_c, 0, 70, 0
2, 213548, Note_on_c, 0, 68, 38
2, 213550, Note_on_c, 0, 72, 61
2, 213551, Note_on_c, 0, 44, 42
2, 213558, Note_on_c, 0, 75, 0
2, 213612, Control_c, 0, 64, 63
2, 213614, Control_c, 0, 64, 127
2, 213651, Control_c, 0, 64, 63
2, 213656, Control_c, 0, 64, 0
2, 213716, Control_c, 0, 64, 63
2, 213718, Control_c, 0, 64, 127
2, 213845, Note_on_c, 0, 72, 0
2, 213852, Note_on_c, 0, 68, 0
2, 213877, Note_on_c, 0, 73, 69
2, 213885, Note_on_c, 0, 70, 52
2, 213889, Note_on_c, 0, 51, 40
2, 213890, Note_on_c, 0, 44, 0
2, 214028, Note_on_c, 0, 73, 0
2, 214031, Note_on_c, 0, 70, 0
2, 214050, Note_on_c, 0, 72, 73
2, 214056, Note_on_c, 0, 68, 45
2, 214120, Note_on_c, 0, 72, 0
2, 214122, Note_on_c, 0, 68, 0
2, 214150, Note_on_c, 0, 56, 51
2, 214151, Note_on_c, 0, 51, 0
2, 214170, Note_on_c, 0, 60, 34
2, 214178, Note_on_c, 0, 71, 74
2, 214186, Note_on_c, 0, 67, 55
2, 214227, Note_on_c, 0, 60, 0
2, 214231, Note_on_c, 0, 56, 0
2, 214248, Note_on_c, 0, 71, 0
2, 214272, Note_on_c, 0, 67, 0
2, 214285, Note_on_c, 0, 72, 78
2, 214291, Note_on_c, 0, 68, 65
2, 214349, Note_on_c, 0, 72, 0
2, 214397, Note_on_c, 0, 68, 0
2, 214401, Note_on_c, 0, 73, 88
2, 214404, Note_on_c, 0, 70, 71
2, 214404, Note_on_c, 0, 51, 59
2, 214440, Note_on_c, 0, 70, 0
2, 214450, Note_on_c, 0, 73, 0
2, 214491, Note_on_c, 0, 74, 90
2, 214495, Note_on_c, 0, 71, 78
2, 214529, Note_on_c, 0, 74, 0
2, 214556, Note_on_c, 0, 71, 0
2, 214583, Note_on_c, 0, 51, 0
2, 214622, Note_on_c, 0, 44, 54
2, 214633, Note_on_c, 0, 75, 91
2, 214638, Note_on_c, 0, 72, 78
2, 214680, Note_on_c, 0, 75, 0
2, 214687, Note_on_c, 0, 77, 70
2, 214700, Note_on_c, 0, 72, 0
2, 214717, Note_on_c, 0, 75, 84
2, 214741, Note_on_c, 0, 77, 0
2, 214806, Note_on_c, 0, 75, 0
2, 214830, Note_on_c, 0, 74, 80
2, 214832, Note_on_c, 0, 71, 68
2, 214879, Note_on_c, 0, 71, 0
2, 214926, Note_on_c, 0, 74, 0
2, 214961, Note_on_c, 0, 44, 0
2, 214962, Note_on_c, 0, 51, 64
2, 214962, Note_on_c, 0, 75, 87
2, 214964, Note_on_c, 0, 72, 73
2, 215000, Note_on_c, 0, 72, 0
2, 215018, Note_on_c, 0, 75, 0
2, 215074, Note_on_c, 0, 77, 101
2, 215076, Note_on_c, 0, 73, 98
2, 215109, Note_on_c, 0, 73, 0
2, 215125, Note_on_c, 0, 77, 0
2, 215125, Note_on_c, 0, 56, 72
2, 215174, Note_on_c, 0, 60, 57
2, 215189, Control_c, 0, 64, 63
2, 215200, Note_on_c, 0, 77, 99
2, 215209, Note_on_c, 0, 73, 98
2, 215218, Control_c, 0, 64, 127
2, 215284, Note_on_c, 0, 77, 0
2, 215293, Note_on_c, 0, 73, 0
2, 215335, Note_on_c, 0, 79, 97
2, 215338, Note_on_c, 0, 70, 94
2, 215375, Note_on_c, 0, 79, 0
2, 215379, Note_on_c, 0, 51, 0
2, 215381, Note_on_c, 0, 60, 0
2, 215383, Note_on_c, 0, 70, 0
2, 215386, Note_on_c, 0, 56, 0
2, 215485, Note_on_c, 0, 80, 103
2, 215496, Note_on_c, 0, 72, 55
2, 215514, Note_on_c, 0, 80, 0
2, 215521, Note_on_c, 0, 72, 0
2, 215538, Note_on_c, 0, 80, 95
2, 215543, Note_on_c, 0, 72, 63
2, 215552, Note_on_c, 0, 51, 70
2, 215594, Note_on_c, 0, 80, 0
2, 215607, Note_on_c, 0, 72, 0
2, 215612, Note_on_c, 0, 51, 0
2, 215642, Note_on_c, 0, 82, 107
2, 215647, Note_on_c, 0, 75, 91
2, 215670, Note_on_c, 0, 75, 0
2, 215692, Note_on_c, 0, 82, 0
2, 215783, Note_on_c, 0, 84, 91
2, 215786, Note_on_c, 0, 80, 83
2, 215829, Note_on_c, 0, 80, 0
2, 215829, Note_on_c, 0, 84, 0
2, 215860, Note_on_c, 0, 84, 84
2, 215868, Note_on_c, 0, 80, 70
2, 215870, Note_on_c, 0, 39, 76
2, 215896, Control_c, 0, 64, 63
2, 215940, Control_c, 0, 64, 127
2, 216035, Note_on_c, 0, 39, 0
2, 216041, Note_on_c, 0, 84, 0
2, 216054, Note_on_c, 0, 82, 97
2, 216060, Note_on_c, 0, 79, 89
2, 216092, Note_on_c, 0, 80, 0
2, 216095, Note_on_c, 0, 79, 0
2, 216112, Note_on_c, 0, 82, 0
2, 216151, Note_on_c, 0, 51, 73
2, 216210, Note_on_c, 0, 97, 93
2, 216239, Note_on_c, 0, 97, 0
2, 216345, Note_on_c, 0, 70, 99
2, 216432, Note_on_c, 0, 55, 50
2, 216448, Note_on_c, 0, 61, 79
2, 216454, Note_on_c, 0, 70, 0
2, 216492, Note_on_c, 0, 82, 91
2, 216495, Note_on_c, 0, 79, 73
2, 216522, Note_on_c, 0, 51, 0
2, 216557, Note_on_c, 0, 61, 0
2, 216559, Note_on_c, 0, 55, 0
2, 216576, Note_on_c, 0, 79, 0
2, 216588, Note_on_c, 0, 77, 84
2, 216590, Note_on_c, 0, 80, 95
2, 216609, Note_on_c, 0, 82, 0
2, 216612, Note_on_c, 0, 77, 0
2, 216630, Note_on_c, 0, 80, 0
2, 216693, Note_on_c, 0, 51, 67
2, 216759, Note_on_c, 0, 96, 89
2, 216771, Note_on_c, 0, 95, 35
2, 216789, Note_on_c, 0, 95, 0
2, 216793, Note_on_c, 0, 96, 0
2, 216806, Note_on_c, 0, 51, 0
2, 216910, Note_on_c, 0, 68, 84
2, 217032, Control_c, 0, 64, 63
2, 217038, Control_c, 0, 64, 0
2, 217053, Note_on_c, 0, 39, 57
2, 217062, Control_c, 0, 64, 63
2, 217074, Note_on_c, 0, 77, 69
2, 217076, Note_on_c, 0, 80, 68
2, 217078, Control_c, 0, 64, 127
2, 217133, Note_on_c, 0, 68, 0
2, 217198, Note_on_c, 0, 39, 0
2, 217212, Note_on_c, 0, 79, 84
2, 217213, Note_on_c, 0, 75, 93
2, 217217, Note_on_c, 0, 80, 0
2, 217236, Note_on_c, 0, 77, 0
2, 217246, Note_on_c, 0, 75, 0
2, 217266, Note_on_c, 0, 79, 0
2, 217313, Note_on_c, 0, 51, 63
2, 217389, Note_on_c, 0, 94, 90
2, 217428, Note_on_c, 0, 94, 0
2, 217631, Note_on_c, 0, 67, 89
2, 217754, Note_on_c, 0, 67, 0
2, 217763, Note_on_c, 0, 63, 70
2, 217828, Note_on_c, 0, 79, 65
2, 217829, Note_on_c, 0, 75, 77
2, 217847, Note_on_c, 0, 63, 0
2, 217866, Note_on_c, 0, 51, 0
2, 217889, Note_on_c, 0, 75, 0
2, 217911, Note_on_c, 0, 79, 0
2, 218008, Note_on_c, 0, 77, 72
2, 218017, Note_on_c, 0, 73, 75
2, 218062, Note_on_c, 0, 73, 0
2, 218062, Note_on_c, 0, 77, 0
2, 218129, Note_on_c, 0, 51, 50
2, 218180, Note_on_c, 0, 70, 94
2, 218231, Note_on_c, 0, 70, 0
2, 218320, Note_on_c, 0, 75, 95
2, 218380, Note_on_c, 0, 51, 0
2, 218404, Note_on_c, 0, 75, 0
2, 218441, Note_on_c, 0, 73, 81
2, 218470, Note_on_c, 0, 73, 0
2, 218536, Note_on_c, 0, 44, 58
2, 218601, Note_on_c, 0, 72, 79
2, 218601, Note_on_c, 0, 68, 65
2, 218619, Control_c, 0, 64, 63
2, 218627, Control_c, 0, 64, 0
2, 218648, Control_c, 0, 64, 63
2, 218669, Control_c, 0, 64, 127
2, 218742, Note_on_c, 0, 72, 0
2, 218800, Note_on_c, 0, 68, 0
2, 218813, Note_on_c, 0, 44, 0
2, 218830, Note_on_c, 0, 73, 83
2, 218838, Note_on_c, 0, 70, 64
2, 218878, Note_on_c, 0, 70, 0
2, 218903, Note_on_c, 0, 73, 0
2, 218936, Note_on_c, 0, 51, 84
2, 218978, Note_on_c, 0, 51, 0
2, 219026, Note_on_c, 0, 72, 89
2, 219033, Note_on_c, 0, 68, 73
2, 219091, Note_on_c, 0, 72, 0
2, 219104, Note_on_c, 0, 68, 0
2, 219177, Note_on_c, 0, 56, 69
2, 219181, Note_on_c, 0, 71, 89
2, 219191, Note_on_c, 0, 67, 76
2, 219237, Note_on_c, 0, 71, 0
2, 219253, Note_on_c, 0, 67, 0
2, 219297, Note_on_c, 0, 56, 0
2, 219347, Note_on_c, 0, 72, 103
2, 219352, Note_on_c, 0, 68, 97
2, 219439, Note_on_c, 0, 60, 83
2, 219529, Note_on_c, 0, 72, 0
2, 219529, Note_on_c, 0, 73, 106
2, 219536, Note_on_c, 0, 70, 87
2, 219539, Note_on_c, 0, 67, 83
2, 219540, Note_on_c, 0, 60, 0
2, 219552, Note_on_c, 0, 68, 0
2, 219591, Note_on_c, 0, 67, 0
2, 219608, Note_on_c, 0, 70, 0
2, 219613, Note_on_c, 0, 73, 0
2, 219711, Note_on_c, 0, 44, 93
2, 219768, Note_on_c, 0, 75, 104
2, 219768, Note_on_c, 0, 72, 84
2, 219773, Note_on_c, 0, 66, 79
2, 219774, Note_on_c, 0, 68, 69
2, 219782, Control_c, 0, 64, 63
2, 219786, Control_c, 0, 64, 0
2, 220086, Note_on_c, 0, 51, 97
2, 220103, Control_c, 0, 64, 63
2, 220103, Control_c, 0, 64, 127
2, 220119, Note_on_c, 0, 44, 0
2, 220155, Note_on_c, 0, 72, 0
2, 220167, Note_on_c, 0, 66, 0
2, 220170, Note_on_c, 0, 75, 0
2, 220179, Note_on_c, 0, 68, 0
2, 220313, Note_on_c, 0, 51, 0
2, 220325, Note_on_c, 0, 76, 107
2, 220330, Note_on_c, 0, 56, 95
2, 220332, Note_on_c, 0, 72, 89
2, 220334, Note_on_c, 0, 68, 94
2, 220338, Note_on_c, 0, 66, 94
2, 220358, Note_on_c, 0, 66, 0
2, 220370, Note_on_c, 0, 68, 0
2, 220377, Note_on_c, 0, 56, 0
2, 220409, Note_on_c, 0, 72, 0
2, 220479, Note_on_c, 0, 76, 0
2, 220576, Note_on_c, 0, 60, 101
2, 220615, Note_on_c, 0, 60, 0
2, 220881, Note_on_c, 0, 37, 92
2, 220904, Note_on_c, 0, 65, 84
2, 220913, Control_c, 0, 64, 63
2, 220919, Control_c, 0, 64, 0
2, 220920, Note_on_c, 0, 68, 73
2, 220932, Note_on_c, 0, 49, 87
2, 220948, Control_c, 0, 64, 63
2, 220957, Note_on_c, 0, 73, 94
2, 220959, Control_c, 0, 64, 127
2, 220973, Note_on_c, 0, 65, 0
2, 220986, Note_on_c, 0, 77, 100
2, 221030, Note_on_c, 0, 68, 0
2, 221032, Note_on_c, 0, 37, 0
2, 221059, Note_on_c, 0, 49, 0
2, 221177, Note_on_c, 0, 77, 0
2, 221223, Note_on_c, 0, 61, 103
2, 221227, Note_on_c, 0, 56, 86
2, 221232, Note_on_c, 0, 53, 65
2, 221246, Note_on_c, 0, 56, 0
2, 221247, Note_on_c, 0, 73, 0
2, 221256, Note_on_c, 0, 61, 0
2, 221265, Note_on_c, 0, 53, 0
2, 221360, Control_c, 0, 64, 63
2, 221366, Control_c, 0, 64, 0
2, 221369, Note_on_c, 0, 64, 96
2, 221395, Control_c, 0, 64, 63
2, 221404, Control_c, 0, 64, 127
2, 221421, Note_on_c, 0, 70, 104
2, 221452, Note_on_c, 0, 64, 0
2, 221454, Note_on_c, 0, 72, 84
2, 221473, Note_on_c, 0, 36, 92
2, 221487, Note_on_c, 0, 70, 0
2, 221523, Note_on_c, 0, 72, 0
2, 221546, Note_on_c, 0, 79, 104
2, 221548, Note_on_c, 0, 48, 114
2, 221558, Note_on_c, 0, 36, 0
2, 221578, Note_on_c, 0, 79, 0
2, 221585, Note_on_c, 0, 48, 0
2, 221792, Note_on_c, 0, 64, 108
2, 221795, Note_on_c, 0, 55, 92
2, 221797, Note_on_c, 0, 60, 101
2, 221819, Note_on_c, 0, 60, 0
2, 221824, Note_on_c, 0, 64, 0
2, 221838, Note_on_c, 0, 55, 0
2, 222059, Control_c, 0, 64, 63
2, 222060, Control_c, 0, 64, 127
2, 222081, Note_on_c, 0, 29, 87
2, 222127, Note_on_c, 0, 41, 98
2, 222144, Control_c, 0, 64, 63
2, 222144, Note_on_c, 0, 68, 99
2, 222145, Note_on_c, 0, 80, 107
2, 222146, Note_on_c, 0, 77, 94
2, 222147, Control_c, 0, 64, 0
2, 222149, Note_on_c, 0, 72, 89
2, 222215, Control_c, 0, 64, 127
2, 222279, Note_on_c, 0, 29, 0
2, 222308, Note_on_c, 0, 41, 0
2, 222498, Note_on_c, 0, 72, 0
2, 222503, Note_on_c, 0, 65, 111
2, 222507, Note_on_c, 0, 53, 104
2, 222517, Note_on_c, 0, 68, 0
2, 222529, Note_on_c, 0, 77, 0
2, 222543, Note_on_c, 0, 80, 0
2, 222545, Note_on_c, 0, 65, 0
2, 222560, Note_on_c, 0, 53, 0
2, 222701, Control_c, 0, 64, 63
2, 222703, Note_on_c, 0, 68, 107
2, 222706, Control_c, 0, 64, 0
2, 222738, Control_c, 0, 64, 63
2, 222742, Note_on_c, 0, 74, 86
2, 222742, Control_c, 0, 64, 127
2, 222790, Note_on_c, 0, 68, 0
2, 222813, Note_on_c, 0, 80, 103
2, 222853, Note_on_c, 0, 28, 97
2, 222913, Note_on_c, 0, 82, 110
2, 222929, Note_on_c, 0, 40, 122
2, 222958, Note_on_c, 0, 28, 0
2, 222964, Note_on_c, 0, 40, 0
2, 223337, Note_on_c, 0, 64, 121
2, 223338, Note_on_c, 0, 52, 112
2, 223377, Note_on_c, 0, 64, 0
2, 223384, Note_on_c, 0, 52, 0
2, 223503, Note_on_c, 0, 74, 0
2, 223584, Note_on_c, 0, 80, 0
2, 223613, Note_on_c, 0, 82, 0
2, 223887, Note_on_c, 0, 80, 88
2, 223888, Note_on_c, 0, 84, 102
2, 223888, Note_on_c, 0, 75, 100
2, 223889, Note_on_c, 0, 27, 112
2, 223889, Note_on_c, 0, 39, 120
2, 223891, Note_on_c, 0, 72, 86
2, 223924, Control_c, 0, 64, 63
2, 223928, Control_c, 0, 64, 0
2, 224008, Control_c, 0, 64, 63
2, 224011, Control_c, 0, 64, 127
2, 224056, Note_on_c, 0, 79, 37
2, 224101, Note_on_c, 0, 79, 0
2, 224110, Note_on_c, 0, 27, 0
2, 224114, Note_on_c, 0, 80, 0
2, 224124, Note_on_c, 0, 72, 0
2, 224134, Note_on_c, 0, 39, 0
2, 224137, Note_on_c, 0, 75, 0
2, 224163, Note_on_c, 0, 84, 0
2, 224366, Note_on_c, 0, 101, 122
2, 224367, Note_on_c, 0, 63, 114
2, 224398, Note_on_c, 0, 101, 0
2, 224658, Note_on_c, 0, 99, 119
2, 224757, Note_on_c, 0, 97, 110
2, 224794, Note_on_c, 0, 99, 0
2, 224827, Note_on_c, 0, 96, 103
2, 224851, Note_on_c, 0, 97, 0
2, 224899, Note_on_c, 0, 94, 108
2, 224900, Note_on_c, 0, 51, 99
2, 224909, Note_on_c, 0, 96, 0
2, 224970, Note_on_c, 0, 92, 108
2, 224978, Note_on_c, 0, 94, 0
2, 225029, Note_on_c, 0, 91, 102
2, 225036, Note_on_c, 0, 92, 0
2, 225084, Note_on_c, 0, 89, 90
2, 225087, Note_on_c, 0, 91, 0
2, 225127, Note_on_c, 0, 63, 0
2, 225139, Note_on_c, 0, 87, 101
2, 225141, Note_on_c, 0, 89, 0
2, 225182, Note_on_c, 0, 85, 105
2, 225196, Note_on_c, 0, 87, 0
2, 225226, Note_on_c, 0, 85, 0
2, 225229, Note_on_c, 0, 84, 90
2, 225269, Note_on_c, 0, 82, 103
2, 225274, Note_on_c, 0, 84, 0
2, 225280, Note_on_c, 0, 63, 83
2, 225313, Note_on_c, 0, 80, 98
2, 225319, Note_on_c, 0, 82, 0
2, 225343, Note_on_c, 0, 79, 93
2, 225350, Note_on_c, 0, 80, 0
2, 225359, Note_on_c, 0, 51, 0
2, 225385, Note_on_c, 0, 77, 87
2, 225391, Note_on_c, 0, 79, 0
2, 225429, Note_on_c, 0, 77, 0
2, 225431, Note_on_c, 0, 75, 96
2, 225466, Note_on_c, 0, 73, 105
2, 225477, Note_on_c, 0, 75, 0
2, 225508, Note_on_c, 0, 73, 0
2, 225513, Note_on_c, 0, 72, 85
2, 225547, Note_on_c, 0, 70, 99
2, 225550, Note_on_c, 0, 72, 0
2, 225581, Note_on_c, 0, 68, 99
2, 225587, Control_c, 0, 64, 63
2, 225596, Control_c, 0, 64, 0
2, 225602, Note_on_c, 0, 70, 0
2, 225608, Control_c, 0, 64, 63
2, 225611, Note_on_c, 0, 61, 98
2, 225616, Note_on_c, 0, 58, 88
2, 225627, Control_c, 0, 64, 127
2, 225632, Note_on_c, 0, 68, 0
2, 225634, Note_on_c, 0, 67, 91
2, 225635, Note_on_c, 0, 63, 0
2, 225749, Note_on_c, 0, 70, 96
2, 225764, Note_on_c, 0, 67, 0
2, 225813, Note_on_c, 0, 73, 105
2, 225834, Note_on_c, 0, 70, 0
2, 225857, Note_on_c, 0, 73, 0
2, 225886, Note_on_c, 0, 76, 90
2, 225955, Note_on_c, 0, 63, 94
2, 225967, Note_on_c, 0, 79, 103
2, 225981, Note_on_c, 0, 76, 0
2, 226035, Note_on_c, 0, 82, 106
2, 226057, Note_on_c, 0, 79, 0
2, 226111, Note_on_c, 0, 85, 98
2, 226114, Note_on_c, 0, 61, 0
2, 226124, Note_on_c, 0, 82, 0
2, 226135, Note_on_c, 0, 58, 0
2, 226167, Note_on_c, 0, 85, 0
2, 226176, Note_on_c, 0, 88, 100
2, 226256, Note_on_c, 0, 87, 108
2, 226286, Note_on_c, 0, 88, 0
2, 226339, Note_on_c, 0, 51, 77
2, 226359, Note_on_c, 0, 87, 0
2, 226372, Note_on_c, 0, 86, 111
2, 226531, Note_on_c, 0, 85, 107
2, 226605, Note_on_c, 0, 86, 0
2, 226635, Note_on_c, 0, 63, 0
2, 226639, Note_on_c, 0, 82, 103
2, 226702, Note_on_c, 0, 85, 0
2, 226735, Note_on_c, 0, 63, 64
2, 226761, Note_on_c, 0, 79, 86
2, 226778, Note_on_c, 0, 82, 0
2, 226802, Note_on_c, 0, 79, 0
2, 226935, Note_on_c, 0, 76, 75
2, 226960, Note_on_c, 0, 63, 0
2, 226973, Note_on_c, 0, 76, 0
2, 227020, Note_on_c, 0, 51, 0
2, 227088, Note_on_c, 0, 67, 72
2, 227138, Note_on_c, 0, 67, 0
2, 227351, Control_c, 0, 64, 63
2, 227355, Note_on_c, 0, 44, 48
2, 227358, Control_c, 0, 64, 127
2, 227360, Note_on_c, 0, 68, 67
2, 227430, Control_c, 0, 64, 63
2, 227435, Control_c, 0, 64, 0
2, 227525, Control_c, 0, 64, 63
2, 227527, Control_c, 0, 64, 127
2, 227701, Control_c, 0, 64, 63
2, 227712, Control_c, 0, 64, 0
2, 227731, Control_c, 0, 64, 63
2, 227749, Control_c, 0, 64, 127
2, 227759, Note_on_c, 0, 51, 61
2, 227872, Note_on_c, 0, 44, 0
2, 228035, Note_on_c, 0, 51, 0
2, 228040, Note_on_c, 0, 56, 58
2, 228056, Note_on_c, 0, 60, 62
2, 228138, Note_on_c, 0, 68, 0
2, 228355, Note_on_c, 0, 51, 53
2, 228371, Note_on_c, 0, 69, 76
2, 228436, Note_on_c, 0, 69, 0
2, 228520, Note_on_c, 0, 56, 0
2, 228541, Note_on_c, 0, 60, 0
2, 228576, Note_on_c, 0, 51, 0
2, 228619, Note_on_c, 0, 52, 55
2, 228640, Note_on_c, 0, 70, 76
2, 228653, Control_c, 0, 64, 63
2, 228657, Control_c, 0, 64, 0
2, 228729, Control_c, 0, 64, 63
2, 228735, Control_c, 0, 64, 127
2, 228859, Note_on_c, 0, 70, 0
2, 228942, Note_on_c, 0, 56, 39
2, 228953, Note_on_c, 0, 61, 20
2, 228959, Note_on_c, 0, 72, 67
2, 229111, Note_on_c, 0, 70, 78
2, 229112, Note_on_c, 0, 52, 0
2, 229116, Note_on_c, 0, 56, 0
2, 229132, Note_on_c, 0, 72, 0
2, 229232, Note_on_c, 0, 51, 58
2, 229234, Note_on_c, 0, 69, 61
2, 229242, Note_on_c, 0, 61, 0
2, 229250, Note_on_c, 0, 70, 0
2, 229258, Control_c, 0, 64, 63
2, 229303, Control_c, 0, 64, 127
2, 229362, Note_on_c, 0, 70, 81
2, 229375, Note_on_c, 0, 69, 0
2, 229476, Note_on_c, 0, 70, 0
2, 229478, Note_on_c, 0, 61, 58
2, 229487, Note_on_c, 0, 72, 85
2, 229500, Note_on_c, 0, 55, 36
2, 229551, Note_on_c, 0, 61, 0
2, 229577, Note_on_c, 0, 55, 0
2, 229600, Note_on_c, 0, 73, 92
2, 229605, Note_on_c, 0, 51, 0
2, 229610, Note_on_c, 0, 72, 0
2, 229703, Note_on_c, 0, 74, 86
2, 229710, Note_on_c, 0, 73, 0
2, 229726, Note_on_c, 0, 44, 49
2, 229747, Control_c, 0, 64, 63
2, 229800, Control_c, 0, 64, 127
2, 229826, Note_on_c, 0, 74, 0
2, 229827, Note_on_c, 0, 75, 95
2, 229954, Note_on_c, 0, 75, 0
2, 229958, Note_on_c, 0, 51, 60
2, 230000, Note_on_c, 0, 85, 88
2, 230071, Note_on_c, 0, 44, 0
2, 230108, Note_on_c, 0, 85, 0
2, 230148, Note_on_c, 0, 84, 85
2, 230268, Note_on_c, 0, 60, 53
2, 230272, Note_on_c, 0, 51, 0
2, 230280, Note_on_c, 0, 82, 89
2, 230296, Note_on_c, 0, 84, 0
2, 230393, Note_on_c, 0, 79, 77
2, 230401, Note_on_c, 0, 82, 0
2, 230410, Note_on_c, 0, 60, 0
2, 230497, Note_on_c, 0, 51, 63
2, 230509, Note_on_c, 0, 79, 0
2, 230512, Note_on_c, 0, 80, 88
2, 230609, Note_on_c, 0, 72, 71
2, 230613, Note_on_c, 0, 80, 0
2, 230722, Note_on_c, 0, 44, 60
2, 230731, Note_on_c, 0, 77, 76
2, 230756, Note_on_c, 0, 72, 0
2, 230789, Note_on_c, 0, 51, 0
2, 230792, Control_c, 0, 64, 63
2, 230812, Control_c, 0, 64, 0
2, 230850, Note_on_c, 0, 75, 79
2, 230866, Control_c, 0, 64, 63
2, 230880, Control_c, 0, 64, 127
2, 230884, Note_on_c, 0, 77, 0
2, 230984, Note_on_c, 0, 51, 49
2, 230985, Note_on_c, 0, 79, 64
2, 231019, Note_on_c, 0, 75, 0
2, 231035, Note_on_c, 0, 44, 0
2, 231116, Note_on_c, 0, 77, 70
2, 231149, Note_on_c, 0, 79, 0
2, 231236, Note_on_c, 0, 77, 0
2, 231239, Note_on_c, 0, 72, 66
2, 231243, Note_on_c, 0, 61, 54
2, 231381, Note_on_c, 0, 72, 0
2, 231405, Note_on_c, 0, 73, 74
2, 231410, Note_on_c, 0, 51, 0
2, 231440, Note_on_c, 0, 61, 0
2, 231560, Note_on_c, 0, 51, 62
2, 231560, Note_on_c, 0, 65, 60
2, 231641, Note_on_c, 0, 73, 0
2, 231707, Note_on_c, 0, 72, 79
2, 231712, Note_on_c, 0, 65, 0
2, 231732, Note_on_c, 0, 67, 29
2, 231784, Note_on_c, 0, 67, 0
2, 231801, Note_on_c, 0, 72, 0
2, 231841, Note_on_c, 0, 51, 0
2, 231948, Note_on_c, 0, 44, 48
2, 231950, Note_on_c, 0, 68, 67
2, 232294, Note_on_c, 0, 51, 65
2, 232313, Control_c, 0, 64, 63
2, 232316, Control_c, 0, 64, 127
2, 232410, Note_on_c, 0, 44, 0
2, 232575, Note_on_c, 0, 60, 62
2, 232735, Note_on_c, 0, 51, 0
2, 232809, Note_on_c, 0, 51, 64
2, 232820, Note_on_c, 0, 69, 71
2, 232849, Note_on_c, 0, 68, 0
2, 232919, Note_on_c, 0, 60, 0
2, 232939, Note_on_c, 0, 69, 0
2, 232975, Note_on_c, 0, 51, 0
2, 233034, Note_on_c, 0, 52, 64
2, 233122, Control_c, 0, 64, 63
2, 233130, Note_on_c, 0, 70, 80
2, 233153, Control_c, 0, 64, 127
2, 233314, Note_on_c, 0, 72, 68
2, 233315, Note_on_c, 0, 70, 0
2, 233377, Note_on_c, 0, 56, 60
2, 233418, Note_on_c, 0, 61, 46
2, 233427, Note_on_c, 0, 72, 0
2, 233441, Note_on_c, 0, 70, 65
2, 233476, Note_on_c, 0, 70, 0
2, 233477, Note_on_c, 0, 72, 50
2, 233514, Note_on_c, 0, 72, 0
2, 233516, Note_on_c, 0, 70, 68
2, 233542, Note_on_c, 0, 52, 0
2, 233580, Note_on_c, 0, 69, 59
2, 233602, Note_on_c, 0, 70, 0
2, 233663, Note_on_c, 0, 51, 54
2, 233683, Note_on_c, 0, 70, 71
2, 233686, Control_c, 0, 64, 63
2, 233709, Control_c, 0, 64, 127
2, 233713, Note_on_c, 0, 69, 0
2, 233732, Note_on_c, 0, 61, 0
2, 233746, Note_on_c, 0, 56, 0
2, 233813, Note_on_c, 0, 70, 0
2, 233814, Note_on_c, 0, 72, 82
2, 233938, Note_on_c, 0, 73, 92
2, 233939, Note_on_c, 0, 61, 50
2, 233957, Note_on_c, 0, 72, 0
2, 233960, Note_on_c, 0, 55, 34
2, 234020, Note_on_c, 0, 61, 0
2, 234050, Note_on_c, 0, 74, 90
2, 234060, Note_on_c, 0, 73, 0
2, 234082, Note_on_c, 0, 55, 0
2, 234181, Note_on_c, 0, 74, 0
2, 234194, Note_on_c, 0, 44, 65
2, 234197, Note_on_c, 0, 77, 84
2, 234200, Control_c, 0, 64, 63
2, 234207, Control_c, 0, 64, 0
2, 234242, Control_c, 0, 64, 63
2, 234258, Control_c, 0, 64, 127
2, 234287, Note_on_c, 0, 51, 0
2, 234362, Note_on_c, 0, 75, 95
2, 234366, Note_on_c, 0, 77, 0
2, 234418, Note_on_c, 0, 75, 0
2, 234451, Note_on_c, 0, 75, 76
2, 234555, Note_on_c, 0, 51, 74
2, 234625, Note_on_c, 0, 44, 0
2, 234648, Note_on_c, 0, 85, 79
2, 234691, Note_on_c, 0, 75, 0
2, 234798, Note_on_c, 0, 85, 0
2, 234847, Note_on_c, 0, 84, 86
2, 234995, Note_on_c, 0, 60, 54
2, 235015, Note_on_c, 0, 84, 0
2, 235059, Note_on_c, 0, 82, 84
2, 235238, Control_c, 0, 67, 127
2, 235255, Note_on_c, 0, 51, 0
2, 235266, Note_on_c, 0, 82, 0
2, 235287, Note_on_c, 0, 79, 72
2, 235337, Control_c, 0, 67, 0
2, 235398, Note_on_c, 0, 80, 72
2, 235409, Note_on_c, 0, 79, 0
2, 235459, Note_on_c, 0, 80, 0
2, 235469, Note_on_c, 0, 79, 60
2, 235489, Control_c, 0, 67, 127
2, 235510, Note_on_c, 0, 77, 72
2, 235516, Note_on_c, 0, 79, 0
2, 235565, Note_on_c, 0, 79, 58
2, 235566, Note_on_c, 0, 77, 0
2, 235589, Note_on_c, 0, 51, 47
2, 235595, Note_on_c, 0, 60, 0
2, 235639, Note_on_c, 0, 80, 65
2, 235669, Control_c, 0, 64, 63
2, 235671, Note_on_c, 0, 79, 0
2, 235702, Control_c, 0, 64, 127
2, 235811, Note_on_c, 0, 72, 69
2, 235817, Note_on_c, 0, 80, 0
2, 235833, Note_on_c, 0, 51, 0
2, 235870, Note_on_c, 0, 72, 0
2, 236033, Note_on_c, 0, 39, 65
2, 236081, Note_on_c, 0, 77, 69
2, 236087, Control_c, 0, 64, 63
2, 236094, Control_c, 0, 64, 0
2, 236115, Control_c, 0, 64, 63
2, 236141, Control_c, 0, 64, 127
2, 236237, Note_on_c, 0, 75, 73
2, 236239, Note_on_c, 0, 77, 0
2, 236275, Note_on_c, 0, 39, 0
2, 236337, Note_on_c, 0, 75, 0
2, 236342, Note_on_c, 0, 79, 67
2, 236392, Note_on_c, 0, 75, 75
2, 236420, Note_on_c, 0, 79, 0
2, 236446, Note_on_c, 0, 74, 74
2, 236465, Note_on_c, 0, 75, 0
2, 236504, Note_on_c, 0, 74, 0
2, 236504, Note_on_c, 0, 78, 89
2, 236554, Note_on_c, 0, 74, 64
2, 236567, Note_on_c, 0, 78, 0
2, 236578, Note_on_c, 0, 51, 53
2, 236593, Note_on_c, 0, 73, 90
2, 236607, Note_on_c, 0, 74, 0
2, 236645, Note_on_c, 0, 73, 0
2, 236645, Note_on_c, 0, 77, 79
2, 236693, Note_on_c, 0, 73, 94
2, 236702, Note_on_c, 0, 77, 0
2, 236737, Note_on_c, 0, 72, 68
2, 236753, Note_on_c, 0, 73, 0
2, 236779, Note_on_c, 0, 76, 85
2, 236785, Note_on_c, 0, 72, 0
2, 236828, Note_on_c, 0, 75, 91
2, 236838, Note_on_c, 0, 76, 0
2, 236880, Note_on_c, 0, 75, 0
2, 236885, Note_on_c, 0, 74, 65
2, 236885, Note_on_c, 0, 61, 52
2, 236885, Note_on_c, 0, 55, 45
2, 236927, Note_on_c, 0, 73, 96
2, 236940, Note_on_c, 0, 74, 0
2, 236983, Note_on_c, 0, 70, 84
2, 236987, Note_on_c, 0, 73, 0
2, 237016, Note_on_c, 0, 70, 0
2, 237017, Note_on_c, 0, 67, 79
2, 237039, Note_on_c, 0, 51, 0
2, 237062, Note_on_c, 0, 67, 0
2, 237082, Note_on_c, 0, 62, 90
2, 237123, Note_on_c, 0, 62, 0
2, 237139, Note_on_c, 0, 63, 85
2, 237184, Note_on_c, 0, 63, 0
2, 237194, Note_on_c, 0, 64, 82
2, 237241, Note_on_c, 0, 64, 0
2, 237242, Note_on_c, 0, 65, 78
2, 237247, Note_on_c, 0, 51, 45
2, 237294, Note_on_c, 0, 66, 82
2, 237297, Note_on_c, 0, 65, 0
2, 237297, Control_c, 0, 64, 63
2, 237342, Note_on_c, 0, 67, 71
2, 237344, Note_on_c, 0, 66, 0
2, 237358, Note_on_c, 0, 61, 0
2, 237370, Control_c, 0, 64, 127
2, 237420, Note_on_c, 0, 55, 0
2, 237433, Note_on_c, 0, 72, 65
2, 237504, Note_on_c, 0, 67, 0
2, 237504, Control_c, 0, 64, 63
2, 237506, Note_on_c, 0, 70, 78
2, 237517, Note_on_c, 0, 72, 0
2, 237551, Control_c, 0, 64, 127
2, 237597, Note_on_c, 0, 68, 76
2, 237628, Note_on_c, 0, 70, 0
2, 237696, Note_on_c, 0, 68, 0
2, 237725, Note_on_c, 0, 44, 41
2, 237782, Note_on_c, 0, 68, 81
2, 237785, Note_on_c, 0, 51, 0
2, 237846, Control_c, 0, 64, 63
2, 237856, Control_c, 0, 64, 0
2, 237950, Control_c, 0, 64, 63
2, 237955, Control_c, 0, 64, 127
2, 238070, Note_on_c, 0, 68, 0
2, 238106, Note_on_c, 0, 51, 56
2, 238137, Note_on_c, 0, 44, 0
2, 238184, Note_on_c, 0, 72, 52
2, 238252, Note_on_c, 0, 77, 51
2, 238286, Note_on_c, 0, 72, 0
2, 238310, Note_on_c, 0, 75, 76
2, 238333, Note_on_c, 0, 77, 0
2, 238367, Note_on_c, 0, 75, 0
2, 238407, Note_on_c, 0, 51, 0
2, 238410, Note_on_c, 0, 60, 40
2, 238429, Note_on_c, 0, 80, 67
2, 238515, Note_on_c, 0, 80, 0
2, 238635, Note_on_c, 0, 60, 0
2, 238681, Note_on_c, 0, 51, 55
2, 238753, Note_on_c, 0, 84, 63
2, 238815, Note_on_c, 0, 89, 48
2, 238822, Note_on_c, 0, 84, 0
2, 238884, Note_on_c, 0, 87, 67
2, 238898, Note_on_c, 0, 89, 0
2, 238941, Note_on_c, 0, 44, 32
2, 238967, Note_on_c, 0, 80, 47
2, 238968, Note_on_c, 0, 51, 0
2, 238969, Note_on_c, 0, 87, 0
2, 239041, Note_on_c, 0, 80, 0
2, 239190, Note_on_c, 0, 51, 53
2, 239203, Note_on_c, 0, 44, 0
2, 239249, Note_on_c, 0, 72, 57
2, 239326, Note_on_c, 0, 77, 64
2, 239344, Note_on_c, 0, 72, 0
2, 239382, Note_on_c, 0, 75, 63
2, 239424, Note_on_c, 0, 75, 0
2, 239428, Note_on_c, 0, 77, 0
2, 239467, Note_on_c, 0, 51, 0
2, 239481, Note_on_c, 0, 60, 40
2, 239490, Note_on_c, 0, 80, 68
2, 239539, Note_on_c, 0, 80, 0
2, 239757, Note_on_c, 0, 60, 0
2, 239760, Note_on_c, 0, 51, 55
2, 239827, Note_on_c, 0, 84, 62
2, 239883, Note_on_c, 0, 89, 63
2, 239890, Note_on_c, 0, 84, 0
2, 239936, Note_on_c, 0, 87, 80
2, 239948, Note_on_c, 0, 89, 0
2, 239991, Note_on_c, 0, 51, 0
2, 240002, Note_on_c, 0, 87, 0
2, 240006, Note_on_c, 0, 80, 72
2, 240013, Note_on_c, 0, 44, 27
2, 240065, Note_on_c, 0, 80, 0
2, 240246, Note_on_c, 0, 51, 62
2, 240257, Note_on_c, 0, 44, 0
2, 240309, Note_on_c, 0, 72, 73
2, 240375, Note_on_c, 0, 77, 79
2, 240385, Note_on_c, 0, 72, 0
2, 240431, Note_on_c, 0, 77, 0
2, 240431, Note_on_c, 0, 75, 80
2, 240480, Note_on_c, 0, 51, 0
2, 240500, Note_on_c, 0, 60, 37
2, 240506, Note_on_c, 0, 75, 0
2, 240516, Note_on_c, 0, 80, 73
2, 240587, Note_on_c, 0, 80, 0
2, 240721, Note_on_c, 0, 60, 0
2, 240749, Note_on_c, 0, 51, 55
2, 240805, Note_on_c, 0, 84, 66
2, 240856, Note_on_c, 0, 89, 60
2, 240863, Note_on_c, 0, 84, 0
2, 240919, Note_on_c, 0, 87, 72
2, 240927, Note_on_c, 0, 89, 0
2, 240980, Note_on_c, 0, 87, 0
2, 240992, Note_on_c, 0, 51, 0
2, 241018, Note_on_c, 0, 80, 66
2, 241036, Note_on_c, 0, 44, 30
2, 241302, Note_on_c, 0, 51, 60
2, 241321, Note_on_c, 0, 44, 0
2, 241363, Note_on_c, 0, 80, 0
2, 241364, Note_on_c, 0, 84, 61
2, 241436, Note_on_c, 0, 89, 63
2, 241447, Note_on_c, 0, 84, 0
2, 241508, Note_on_c, 0, 87, 68
2, 241533, Note_on_c, 0, 51, 0
2, 241545, Note_on_c, 0, 89, 0
2, 241579, Note_on_c, 0, 80, 63
2, 241582, Note_on_c, 0, 63, 48
2, 241587, Note_on_c, 0, 87, 0
2, 241764, Note_on_c, 0, 63, 0
2, 241877, Note_on_c, 0, 51, 46
2, 241974, Note_on_c, 0, 80, 0
2, 241975, Note_on_c, 0, 84, 44
2, 242075, Note_on_c, 0, 89, 52
2, 242085, Note_on_c, 0, 84, 0
2, 242169, Note_on_c, 0, 87, 54
2, 242204, Note_on_c, 0, 89, 0
2, 242242, Note_on_c, 0, 87, 0
2, 242324, Note_on_c, 0, 44, 35
2, 242353, Note_on_c, 0, 92, 46
2, 242376, Note_on_c, 0, 51, 0
2, 242963, Control_c, 0, 64, 63
2, 242971, Control_c, 0, 64, 127
2, 243046, Note_on_c, 0, 44, 0
2, 243106, Note_on_c, 0, 92, 0
2, 243371, Note_on_c, 0, 92, 67
2, 243375, Control_c, 0, 64, 63
2, 243377, Control_c, 0, 64, 127
2, 243379, Note_on_c, 0, 81, 37
2, 243380, Note_on_c, 0, 84, 40
2, 243431, Note_on_c, 0, 75, 70
2, 243432, Note_on_c, 0, 81, 0
2, 243440, Note_on_c, 0, 90, 86
2, 243443, Note_on_c, 0, 84, 0
2, 243462, Note_on_c, 0, 92, 0
2, 243476, Note_on_c, 0, 90, 0
2, 243508, Note_on_c, 0, 99, 106
2, 243517, Note_on_c, 0, 75, 0
2, 243521, Note_on_c, 0, 66, 70
2, 243547, Note_on_c, 0, 99, 0
2, 243974, Note_on_c, 0, 66, 0
2, 244101, Note_on_c, 0, 63, 38
2, 244101, Note_on_c, 0, 96, 61
2, 244150, Note_on_c, 0, 89, 73
2, 244152, Note_on_c, 0, 96, 0
2, 244172, Note_on_c, 0, 63, 0
2, 244175, Note_on_c, 0, 72, 27
2, 244222, Note_on_c, 0, 81, 53
2, 244224, Note_on_c, 0, 87, 74
2, 244231, Note_on_c, 0, 89, 0
2, 244249, Note_on_c, 0, 78, 42
2, 244313, Control_c, 0, 64, 63
2, 244330, Control_c, 0, 64, 0
2, 244446, Control_c, 0, 64, 63
2, 244450, Control_c, 0, 64, 127
2, 244509, Note_on_c, 0, 81, 0
2, 244547, Note_on_c, 0, 87, 0
2, 244630, Note_on_c, 0, 72, 0
2, 244664, Note_on_c, 0, 78, 0
2, 244851, Note_on_c, 0, 90, 90
2, 244857, Note_on_c, 0, 80, 72
2, 244859, Note_on_c, 0, 83, 65
2, 244890, Note_on_c, 0, 80, 0
2, 244909, Note_on_c, 0, 74, 48
2, 244916, Note_on_c, 0, 89, 88
2, 244918, Note_on_c, 0, 83, 0
2, 244940, Note_on_c, 0, 90, 0
2, 244960, Note_on_c, 0, 89, 0
2, 244989, Note_on_c, 0, 65, 60
2, 244990, Note_on_c, 0, 74, 0
2, 244996, Note_on_c, 0, 98, 87
2, 245045, Note_on_c, 0, 98, 0
2, 245339, Note_on_c, 0, 65, 0
2, 245646, Note_on_c, 0, 62, 57
2, 245651, Note_on_c, 0, 95, 72
2, 245693, Note_on_c, 0, 95, 0
2, 245719, Note_on_c, 0, 62, 0
2, 245720, Note_on_c, 0, 87, 74
2, 245726, Note_on_c, 0, 71, 48
2, 245799, Note_on_c, 0, 71, 0
2, 245799, Note_on_c, 0, 86, 45
2, 245804, Note_on_c, 0, 80, 64
2, 245810, Note_on_c, 0, 77, 42
2, 245813, Note_on_c, 0, 87, 0
2, 245851, Note_on_c, 0, 80, 0
2, 245878, Note_on_c, 0, 86, 0
2, 246415, Note_on_c, 0, 77, 0
2, 246598, Control_c, 0, 64, 63
2, 246616, Note_on_c, 0, 78, 50
2, 246621, Note_on_c, 0, 81, 43
2, 246623, Note_on_c, 0, 88, 59
2, 246630, Control_c, 0, 64, 127
2, 246669, Note_on_c, 0, 78, 0
2, 246677, Note_on_c, 0, 87, 72
2, 246679, Note_on_c, 0, 81, 0
2, 246691, Note_on_c, 0, 72, 36
2, 246696, Note_on_c, 0, 88, 0
2, 246722, Note_on_c, 0, 87, 0
2, 246764, Note_on_c, 0, 72, 0
2, 246777, Note_on_c, 0, 63, 47
2, 246778, Note_on_c, 0, 96, 82
2, 246835, Note_on_c, 0, 96, 0
2, 247340, Note_on_c, 0, 63, 0
2, 247418, Note_on_c, 0, 60, 37
2, 247425, Note_on_c, 0, 93, 59
2, 247463, Note_on_c, 0, 60, 0
2, 247471, Note_on_c, 0, 93, 0
2, 247497, Note_on_c, 0, 85, 61
2, 247499, Note_on_c, 0, 69, 43
2, 247544, Note_on_c, 0, 85, 0
2, 247568, Note_on_c, 0, 84, 66
2, 247578, Note_on_c, 0, 78, 49
2, 247592, Note_on_c, 0, 75, 32
2, 247603, Note_on_c, 0, 78, 0
2, 247620, Note_on_c, 0, 84, 0
2, 248148, Note_on_c, 0, 75, 0
2, 248157, Note_on_c, 0, 69, 0
2, 248337, Control_c, 0, 64, 63
2, 248338, Note_on_c, 0, 87, 55
2, 248344, Control_c, 0, 64, 127
2, 248346, Note_on_c, 0, 79, 41
2, 248348, Note_on_c, 0, 76, 23
2, 248388, Note_on_c, 0, 76, 0
2, 248401, Note_on_c, 0, 79, 0
2, 248406, Note_on_c, 0, 70, 46
2, 248417, Note_on_c, 0, 85, 60
2, 248432, Note_on_c, 0, 87, 0
2, 248460, Note_on_c, 0, 85, 0
2, 248483, Note_on_c, 0, 70, 0
2, 248518, Note_on_c, 0, 94, 72
2, 248529, Note_on_c, 0, 61, 27
2, 248559, Note_on_c, 0, 94, 0
2, 248886, Note_on_c, 0, 61, 0
2, 249288, Note_on_c, 0, 58, 44
2, 249298, Note_on_c, 0, 91, 64
2, 249353, Note_on_c, 0, 58, 0
2, 249354, Note_on_c, 0, 91, 0
2, 249374, Note_on_c, 0, 84, 31
2, 249394, Note_on_c, 0, 67, 17
2, 249449, Note_on_c, 0, 84, 0
2, 249469, Note_on_c, 0, 76, 37
2, 249470, Note_on_c, 0, 82, 43
2, 249492, Note_on_c, 0, 73, 17
2, 249519, Note_on_c, 0, 76, 0
2, 249540, Note_on_c, 0, 82, 0
2, 250075, Note_on_c, 0, 73, 0
2, 250157, Note_on_c, 0, 67, 0
2, 250494, Note_on_c, 0, 77, 33
2, 250495, Control_c, 0, 64, 63
2, 250501, Note_on_c, 0, 85, 36
2, 250502, Note_on_c, 0, 74, 32
2, 250519, Control_c, 0, 64, 127
2, 250588, Note_on_c, 0, 77, 0
2, 250589, Note_on_c, 0, 68, 55
2, 250595, Note_on_c, 0, 74, 0
2, 250610, Note_on_c, 0, 83, 44
2, 250631, Note_on_c, 0, 85, 0
2, 250657, Note_on_c, 0, 68, 0
2, 250663, Note_on_c, 0, 83, 0
2, 250728, Note_on_c, 0, 59, 48
2, 250729, Note_on_c, 0, 92, 73
2, 250767, Note_on_c, 0, 92, 0
2, 251149, Note_on_c, 0, 59, 0
2, 251464, Note_on_c, 0, 82, 64
2, 251470, Note_on_c, 0, 71, 38
2, 251487, Note_on_c, 0, 74, 18
2, 251519, Note_on_c, 0, 71, 0
2, 251542, Note_on_c, 0, 82, 0
2, 251544, Note_on_c, 0, 80, 70
2, 251551, Note_on_c, 0, 65, 13
2, 251554, Note_on_c, 0, 74, 0
2, 251634, Note_on_c, 0, 80, 0
2, 251646, Note_on_c, 0, 65, 0
2, 251671, Note_on_c, 0, 89, 68
2, 251681, Note_on_c, 0, 56, 34
2, 251723, Note_on_c, 0, 89, 0
2, 252267, Note_on_c, 0, 56, 0
2, 252690, Note_on_c, 0, 72, 32
2, 252691, Note_on_c, 0, 75, 38
2, 252702, Note_on_c, 0, 82, 38
2, 252771, Note_on_c, 0, 72, 0
2, 252793, Note_on_c, 0, 80, 28
2, 252794, Note_on_c, 0, 75, 0
2, 252795, Note_on_c, 0, 66, 42
2, 252828, Note_on_c, 0, 82, 0
2, 252902, Note_on_c, 0, 66, 0
2, 252905, Note_on_c, 0, 80, 0
2, 252984, Note_on_c, 0, 56, 28
2, 253009, Note_on_c, 0, 90, 52
2, 253045, Note_on_c, 0, 56, 0
2, 253050, Note_on_c, 0, 90, 0
2, 253972, Control_c, 0, 64, 63
2, 253989, Control_c, 0, 64, 0
2, 257532, Note_on_c, 0, 92, 53
2, 257533, Note_on_c, 0, 83, 45
2, 257624, Control_c, 0, 64, 63
2, 257639, Control_c, 0, 64, 127
2, 257695, Note_on_c, 0, 91, 59
2, 257698, Note_on_c, 0, 92, 0
2, 257698, Note_on_c, 0, 82, 51
2, 257711, Note_on_c, 0, 83, 0
2, 257808, Note_on_c, 0, 82, 0
2, 257815, Note_on_c, 0, 91, 0
2, 257822, Note_on_c, 0, 90, 64
2, 257823, Note_on_c, 0, 81, 42
2, 257900, Note_on_c, 0, 90, 0
2, 257912, Note_on_c, 0, 89, 64
2, 257914, Note_on_c, 0, 81, 0
2, 257922, Note_on_c, 0, 80, 50
2, 257961, Note_on_c, 0, 89, 0
2, 257983, Note_on_c, 0, 80, 0
2, 258000, Note_on_c, 0, 88, 72
2, 258016, Note_on_c, 0, 79, 52
2, 258086, Note_on_c, 0, 78, 63
2, 258087, Note_on_c, 0, 79, 0
2, 258087, Note_on_c, 0, 87, 77
2, 258090, Note_on_c, 0, 88, 0
2, 258160, Note_on_c, 0, 78, 0
2, 258162, Note_on_c, 0, 87, 0
2, 258171, Note_on_c, 0, 77, 65
2, 258177, Note_on_c, 0, 86, 59
2, 258241, Note_on_c, 0, 86, 0
2, 258263, Note_on_c, 0, 77, 0
2, 258271, Note_on_c, 0, 76, 58
2, 258271, Note_on_c, 0, 85, 70
2, 258351, Note_on_c, 0, 84, 76
2, 258351, Note_on_c, 0, 75, 77
2, 258354, Note_on_c, 0, 85, 0
2, 258356, Note_on_c, 0, 76, 0
2, 258404, Note_on_c, 0, 84, 0
2, 258428, Note_on_c, 0, 75, 0
2, 258434, Note_on_c, 0, 83, 81
2, 258441, Note_on_c, 0, 74, 56
2, 258504, Note_on_c, 0, 83, 0
2, 258516, Note_on_c, 0, 82, 86
2, 258523, Note_on_c, 0, 74, 0
2, 258531, Note_on_c, 0, 73, 66
2, 258589, Note_on_c, 0, 82, 0
2, 258594, Note_on_c, 0, 73, 0
2, 258602, Note_on_c, 0, 81, 69
2, 258616, Note_on_c, 0, 72, 53
2, 258683, Note_on_c, 0, 81, 0
2, 258698, Note_on_c, 0, 80, 78
2, 258699, Note_on_c, 0, 71, 76
2, 258702, Note_on_c, 0, 72, 0
2, 258786, Note_on_c, 0, 78, 88
2, 258801, Note_on_c, 0, 80, 0
2, 258803, Note_on_c, 0, 69, 52
2, 258806, Note_on_c, 0, 71, 0
2, 258860, Note_on_c, 0, 76, 88
2, 258862, Note_on_c, 0, 68, 86
2, 258876, Note_on_c, 0, 78, 0
2, 258882, Note_on_c, 0, 69, 0
2, 258900, Note_on_c, 0, 68, 0
2, 258900, Note_on_c, 0, 76, 0
2, 258949, Note_on_c, 0, 64, 63
2, 258952, Note_on_c, 0, 68, 90
2, 259028, Note_on_c, 0, 64, 0
2, 259032, Note_on_c, 0, 68, 0
2, 259037, Note_on_c, 0, 69, 67
2, 259040, Note_on_c, 0, 52, 52
2, 259081, Control_c, 0, 64, 63
2, 259110, Control_c, 0, 64, 127
2, 259118, Note_on_c, 0, 71, 81
2, 259128, Note_on_c, 0, 69, 0
2, 259131, Note_on_c, 0, 59, 65
2, 259164, Note_on_c, 0, 71, 0
2, 259166, Note_on_c, 0, 52, 0
2, 259190, Note_on_c, 0, 59, 0
2, 259224, Note_on_c, 0, 80, 84
2, 259239, Note_on_c, 0, 71, 64
2, 259309, Note_on_c, 0, 78, 87
2, 259323, Note_on_c, 0, 69, 51
2, 259339, Note_on_c, 0, 80, 0
2, 259343, Note_on_c, 0, 71, 0
2, 259391, Note_on_c, 0, 76, 84
2, 259396, Note_on_c, 0, 78, 0
2, 259404, Note_on_c, 0, 69, 0
2, 259406, Note_on_c, 0, 68, 76
2, 259425, Note_on_c, 0, 76, 0
2, 259443, Note_on_c, 0, 68, 0
2, 259477, Note_on_c, 0, 64, 73
2, 259483, Note_on_c, 0, 68, 82
2, 259537, Note_on_c, 0, 64, 0
2, 259541, Note_on_c, 0, 68, 0
2, 259566, Note_on_c, 0, 69, 62
2, 259572, Note_on_c, 0, 52, 56
2, 259656, Note_on_c, 0, 59, 70
2, 259657, Note_on_c, 0, 71, 76
2, 259658, Note_on_c, 0, 52, 0
2, 259662, Note_on_c, 0, 69, 0
2, 259682, Note_on_c, 0, 59, 0
2, 259688, Note_on_c, 0, 71, 0
2, 259768, Note_on_c, 0, 47, 63
2, 259769, Note_on_c, 0, 64, 71
2, 259783, Control_c, 0, 64, 63
2, 259814, Control_c, 0, 64, 127
2, 259868, Note_on_c, 0, 47, 0
2, 259877, Note_on_c, 0, 73, 74
2, 259884, Note_on_c, 0, 54, 63
2, 259892, Note_on_c, 0, 64, 0
2, 259936, Note_on_c, 0, 54, 0
2, 259951, Note_on_c, 0, 59, 65
2, 259958, Note_on_c, 0, 66, 64
2, 259978, Note_on_c, 0, 59, 0
2, 260019, Note_on_c, 0, 73, 0
2, 260033, Note_on_c, 0, 66, 0
2, 260041, Note_on_c, 0, 71, 77
2, 260072, Note_on_c, 0, 64, 58
2, 260080, Note_on_c, 0, 71, 0
2, 260131, Note_on_c, 0, 66, 85
2, 260141, Note_on_c, 0, 76, 66
2, 260208, Note_on_c, 0, 76, 0
2, 260216, Note_on_c, 0, 85, 88
2, 260226, Note_on_c, 0, 71, 71
2, 260270, Note_on_c, 0, 64, 0
2, 260301, Note_on_c, 0, 78, 85
2, 260318, Note_on_c, 0, 71, 0
2, 260318, Note_on_c, 0, 76, 73
2, 260321, Note_on_c, 0, 66, 0
2, 260361, Note_on_c, 0, 85, 0
2, 260385, Note_on_c, 0, 76, 0
2, 260399, Note_on_c, 0, 78, 0
2, 260399, Note_on_c, 0, 83, 83
2, 260403, Note_on_c, 0, 71, 64
2, 260462, Note_on_c, 0, 83, 0
2, 260475, Note_on_c, 0, 66, 84
2, 260478, Note_on_c, 0, 71, 0
2, 260478, Note_on_c, 0, 76, 78
2, 260506, Note_on_c, 0, 76, 0
2, 260515, Note_on_c, 0, 66, 0
2, 260569, Note_on_c, 0, 64, 50
2, 260580, Note_on_c, 0, 73, 72
2, 260653, Note_on_c, 0, 64, 0
2, 260654, Note_on_c, 0, 66, 79
2, 260661, Note_on_c, 0, 59, 49
2, 260688, Note_on_c, 0, 73, 0
2, 260737, Note_on_c, 0, 66, 0
2, 260745, Note_on_c, 0, 54, 58
2, 260746, Note_on_c, 0, 59, 0
2, 260754, Note_on_c, 0, 71, 59
2, 260771, Note_on_c, 0, 54, 0
2, 260847, Note_on_c, 0, 47, 63
2, 260853, Note_on_c, 0, 63, 72
2, 260881, Note_on_c, 0, 71, 0
2, 260881, Control_c, 0, 64, 63
2, 260910, Control_c, 0, 64, 127
2, 260960, Note_on_c, 0, 73, 73
2, 260960, Note_on_c, 0, 54, 55
2, 260961, Note_on_c, 0, 47, 0
2, 260976, Note_on_c, 0, 63, 0
2, 261032, Note_on_c, 0, 66, 75
2, 261040, Note_on_c, 0, 54, 0
2, 261050, Note_on_c, 0, 59, 71
2, 261086, Note_on_c, 0, 73, 0
2, 261100, Note_on_c, 0, 59, 0
2, 261120, Note_on_c, 0, 66, 0
2, 261120, Note_on_c, 0, 71, 75
2, 261139, Note_on_c, 0, 63, 88
2, 261157, Note_on_c, 0, 71, 0
2, 261214, Note_on_c, 0, 66, 88
2, 261218, Note_on_c, 0, 63, 0
2, 261219, Note_on_c, 0, 75, 70
2, 261282, Note_on_c, 0, 66, 0
2, 261291, Note_on_c, 0, 75, 0
2, 261302, Note_on_c, 0, 69, 71
2, 261309, Note_on_c, 0, 85, 69
2, 261369, Note_on_c, 0, 69, 0
2, 261383, Note_on_c, 0, 85, 0
2, 261406, Note_on_c, 0, 83, 51
2, 261409, Note_on_c, 0, 75, 65
2, 261441, Note_on_c, 0, 75, 0
2, 261514, Note_on_c, 0, 85, 76
2, 261515, Note_on_c, 0, 83, 0
2, 261580, Note_on_c, 0, 85, 0
2, 261619, Note_on_c, 0, 86, 72
2, 261621, Note_on_c, 0, 77, 52
2, 261715, Note_on_c, 0, 78, 55
2, 261730, Note_on_c, 0, 86, 0
2, 261730, Note_on_c, 0, 87, 70
2, 261731, Note_on_c, 0, 77, 0
2, 261814, Note_on_c, 0, 78, 0
2, 261816, Note_on_c, 0, 87, 0
2, 261818, Note_on_c, 0, 80, 65
2, 261838, Note_on_c, 0, 88, 67
2, 261948, Note_on_c, 0, 88, 0
2, 261961, Note_on_c, 0, 90, 61
2, 261973, Note_on_c, 0, 80, 0
2, 261979, Note_on_c, 0, 81, 56
2, 262020, Note_on_c, 0, 90, 0
2, 262133, Note_on_c, 0, 92, 56
2, 262135, Note_on_c, 0, 83, 41
2, 262138, Note_on_c, 0, 81, 0
2, 262272, Note_on_c, 0, 92, 0
2, 262274, Note_on_c, 0, 91, 45
2, 262276, Note_on_c, 0, 82, 50
2, 262279, Note_on_c, 0, 83, 0
2, 262359, Note_on_c, 0, 82, 0
2, 262370, Note_on_c, 0, 90, 66
2, 262379, Note_on_c, 0, 91, 0
2, 262379, Note_on_c, 0, 81, 31
2, 262449, Note_on_c, 0, 90, 0
2, 262458, Note_on_c, 0, 81, 0
2, 262460, Note_on_c, 0, 89, 66
2, 262462, Note_on_c, 0, 80, 57
2, 262495, Note_on_c, 0, 89, 0
2, 262528, Note_on_c, 0, 80, 0
2, 262545, Note_on_c, 0, 88, 65
2, 262566, Note_on_c, 0, 79, 33
2, 262583, Note_on_c, 0, 88, 0
2, 262629, Note_on_c, 0, 79, 0
2, 262635, Note_on_c, 0, 78, 60
2, 262638, Note_on_c, 0, 87, 72
2, 262681, Note_on_c, 0, 87, 0
2, 262692, Note_on_c, 0, 78, 0
2, 262722, Note_on_c, 0, 86, 63
2, 262724, Note_on_c, 0, 77, 60
2, 262768, Note_on_c, 0, 86, 0
2, 262808, Note_on_c, 0, 77, 0
2, 262811, Note_on_c, 0, 85, 84
2, 262815, Note_on_c, 0, 76, 63
2, 262892, Note_on_c, 0, 85, 0
2, 262898, Note_on_c, 0, 84, 76
2, 262898, Note_on_c, 0, 75, 76
2, 262899, Note_on_c, 0, 76, 0
2, 262939, Note_on_c, 0, 84, 0
2, 262979, Note_on_c, 0, 75, 0
2, 262980, Note_on_c, 0, 83, 76
2, 262986, Note_on_c, 0, 74, 60
2, 263062, Note_on_c, 0, 83, 0
2, 263066, Note_on_c, 0, 82, 88
2, 263072, Note_on_c, 0, 73, 76
2, 263074, Note_on_c, 0, 74, 0
2, 263133, Note_on_c, 0, 82, 0
2, 263141, Note_on_c, 0, 73, 0
2, 263150, Note_on_c, 0, 81, 72
2, 263151, Note_on_c, 0, 72, 77
2, 263209, Note_on_c, 0, 81, 0
2, 263244, Note_on_c, 0, 80, 87
2, 263247, Note_on_c, 0, 71, 68
2, 263253, Note_on_c, 0, 72, 0
2, 263270, Control_c, 0, 64, 63
2, 263312, Control_c, 0, 64, 127
2, 263331, Note_on_c, 0, 78, 85
2, 263352, Note_on_c, 0, 69, 61
2, 263358, Note_on_c, 0, 80, 0
2, 263362, Note_on_c, 0, 71, 0
2, 263416, Note_on_c, 0, 76, 84
2, 263424, Note_on_c, 0, 78, 0
2, 263431, Note_on_c, 0, 68, 75
2, 263440, Note_on_c, 0, 69, 0
2, 263451, Note_on_c, 0, 76, 0
2, 263468, Note_on_c, 0, 68, 0
2, 263511, Note_on_c, 0, 68, 86
2, 263521, Note_on_c, 0, 64, 60
2, 263591, Note_on_c, 0, 68, 0
2, 263593, Note_on_c, 0, 69, 67
2, 263602, Note_on_c, 0, 64, 0
2, 263611, Note_on_c, 0, 52, 69
2, 263650, Control_c, 0, 64, 63
2, 263676, Control_c, 0, 64, 127
2, 263684, Note_on_c, 0, 71, 68
2, 263693, Note_on_c, 0, 69, 0
2, 263702, Note_on_c, 0, 59, 72
2, 263721, Note_on_c, 0, 52, 0
2, 263734, Note_on_c, 0, 71, 0
2, 263759, Note_on_c, 0, 59, 0
2, 263811, Note_on_c, 0, 80, 79
2, 263917, Note_on_c, 0, 69, 51
2, 263917, Note_on_c, 0, 78, 88
2, 263928, Note_on_c, 0, 80, 0
2, 264002, Note_on_c, 0, 69, 0
2, 264002, Note_on_c, 0, 68, 79
2, 264003, Note_on_c, 0, 76, 72
2, 264005, Note_on_c, 0, 78, 0
2, 264029, Note_on_c, 0, 76, 0
2, 264032, Note_on_c, 0, 68, 0
2, 264076, Note_on_c, 0, 68, 81
2, 264076, Note_on_c, 0, 64, 61
2, 264142, Note_on_c, 0, 64, 0
2, 264144, Note_on_c, 0, 68, 0
2, 264158, Note_on_c, 0, 69, 62
2, 264173, Note_on_c, 0, 52, 54
2, 264245, Note_on_c, 0, 52, 0
2, 264247, Note_on_c, 0, 59, 68
2, 264257, Note_on_c, 0, 71, 71
2, 264268, Note_on_c, 0, 59, 0
2, 264268, Note_on_c, 0, 69, 0
2, 264292, Note_on_c, 0, 71, 0
2, 264369, Note_on_c, 0, 47, 52
2, 264372, Note_on_c, 0, 64, 78
2, 264525, Note_on_c, 0, 73, 68
2, 264532, Note_on_c, 0, 54, 46
2, 264543, Control_c, 0, 64, 63
2, 264544, Control_c, 0, 64, 127
2, 264581, Note_on_c, 0, 47, 0
2, 264590, Note_on_c, 0, 64, 0
2, 264615, Note_on_c, 0, 66, 80
2, 264621, Note_on_c, 0, 54, 0
2, 264625, Note_on_c, 0, 59, 65
2, 264653, Note_on_c, 0, 59, 0
2, 264694, Note_on_c, 0, 73, 0
2, 264711, Note_on_c, 0, 66, 0
2, 264721, Note_on_c, 0, 71, 79
2, 264724, Note_on_c, 0, 64, 68
2, 264763, Note_on_c, 0, 71, 0
2, 264808, Note_on_c, 0, 66, 63
2, 264831, Note_on_c, 0, 76, 75
2, 264883, Note_on_c, 0, 64, 0
2, 264900, Note_on_c, 0, 76, 0
2, 264903, Note_on_c, 0, 85, 76
2, 264929, Note_on_c, 0, 71, 44
2, 264988, Note_on_c, 0, 78, 86
2, 264989, Note_on_c, 0, 66, 0
2, 265007, Note_on_c, 0, 76, 72
2, 265008, Note_on_c, 0, 71, 0
2, 265044, Note_on_c, 0, 85, 0
2, 265080, Note_on_c, 0, 76, 0
2, 265084, Note_on_c, 0, 83, 86
2, 265085, Note_on_c, 0, 71, 63
2, 265094, Note_on_c, 0, 78, 0
2, 265156, Note_on_c, 0, 66, 78
2, 265162, Note_on_c, 0, 83, 0
2, 265164, Note_on_c, 0, 71, 0
2, 265167, Note_on_c, 0, 76, 87
2, 265204, Note_on_c, 0, 66, 0
2, 265208, Note_on_c, 0, 76, 0
2, 265251, Note_on_c, 0, 64, 76
2, 265272, Note_on_c, 0, 73, 90
2, 265338, Note_on_c, 0, 64, 0
2, 265340, Note_on_c, 0, 59, 57
2, 265349, Note_on_c, 0, 66, 89
2, 265420, Note_on_c, 0, 54, 80
2, 265425, Note_on_c, 0, 59, 0
2, 265438, Note_on_c, 0, 66, 0
2, 265445, Note_on_c, 0, 71, 81
2, 265462, Note_on_c, 0, 54, 0
2, 265476, Note_on_c, 0, 73, 0
2, 265521, Note_on_c, 0, 47, 72
2, 265525, Note_on_c, 0, 63, 92
2, 265553, Control_c, 0, 64, 63
2, 265560, Control_c, 0, 64, 0
2, 265591, Control_c, 0, 64, 63
2, 265606, Control_c, 0, 64, 127
2, 265623, Note_on_c, 0, 54, 66
2, 265626, Note_on_c, 0, 73, 92
2, 265629, Note_on_c, 0, 47, 0
2, 265640, Note_on_c, 0, 71, 0
2, 265692, Note_on_c, 0, 63, 0
2, 265696, Note_on_c, 0, 54, 0
2, 265702, Note_on_c, 0, 59, 71
2, 265704, Note_on_c, 0, 66, 90
2, 265752, Note_on_c, 0, 59, 0
2, 265755, Note_on_c, 0, 73, 0
2, 265793, Note_on_c, 0, 71, 87
2, 265795, Note_on_c, 0, 63, 88
2, 265799, Note_on_c, 0, 66, 0
2, 265832, Note_on_c, 0, 71, 0
2, 265871, Note_on_c, 0, 66, 77
2, 265879, Note_on_c, 0, 63, 0
2, 265884, Note_on_c, 0, 75, 90
2, 265956, Note_on_c, 0, 66, 0
2, 265966, Note_on_c, 0, 75, 0
2, 265969, Note_on_c, 0, 85, 88
2, 265972, Note_on_c, 0, 69, 62
2, 266056, Note_on_c, 0, 69, 0
2, 266080, Note_on_c, 0, 83, 83
2, 266083, Note_on_c, 0, 85, 0
2, 266083, Note_on_c, 0, 75, 72
2, 266165, Note_on_c, 0, 75, 0
2, 266195, Note_on_c, 0, 85, 80
2, 266201, Note_on_c, 0, 83, 0
2, 266266, Note_on_c, 0, 85, 0
2, 266297, Note_on_c, 0, 86, 62
2, 266305, Note_on_c, 0, 77, 72
2, 266399, Note_on_c, 0, 78, 63
2, 266409, Note_on_c, 0, 87, 71
2, 266413, Note_on_c, 0, 77, 0
2, 266414, Note_on_c, 0, 86, 0
2, 266505, Note_on_c, 0, 78, 0
2, 266506, Note_on_c, 0, 80, 70
2, 266514, Note_on_c, 0, 87, 0
2, 266518, Note_on_c, 0, 88, 73
2, 266639, Note_on_c, 0, 90, 57
2, 266644, Note_on_c, 0, 88, 0
2, 266646, Note_on_c, 0, 81, 52
2, 266667, Note_on_c, 0, 80, 0
2, 266697, Note_on_c, 0, 90, 0
2, 266814, Note_on_c, 0, 83, 49
2, 266817, Note_on_c, 0, 81, 0
2, 266822, Note_on_c, 0, 92, 62
2, 266863, Control_c, 0, 64, 63
2, 266870, Control_c, 0, 64, 0
2, 266929, Control_c, 0, 64, 63
2, 266936, Control_c, 0, 64, 127
2, 266988, Note_on_c, 0, 91, 65
2, 266999, Note_on_c, 0, 82, 48
2, 267009, Note_on_c, 0, 92, 0
2, 267009, Note_on_c, 0, 83, 0
2, 267113, Note_on_c, 0, 82, 0
2, 267118, Note_on_c, 0, 90, 74
2, 267119, Note_on_c, 0, 81, 36
2, 267152, Note_on_c, 0, 91, 0
2, 267226, Note_on_c, 0, 89, 76
2, 267233, Note_on_c, 0, 90, 0
2, 267238, Note_on_c, 0, 80, 48
2, 267239, Note_on_c, 0, 81, 0
2, 267301, Note_on_c, 0, 89, 0
2, 267332, Note_on_c, 0, 88, 78
2, 267339, Note_on_c, 0, 80, 0
2, 267349, Note_on_c, 0, 79, 35
2, 267426, Note_on_c, 0, 87, 80
2, 267430, Note_on_c, 0, 78, 58
2, 267433, Note_on_c, 0, 79, 0
2, 267438, Note_on_c, 0, 88, 0
2, 267513, Note_on_c, 0, 86, 76
2, 267515, Note_on_c, 0, 87, 0
2, 267519, Note_on_c, 0, 77, 65
2, 267520, Note_on_c, 0, 78, 0
2, 267617, Note_on_c, 0, 76, 72
2, 267618, Note_on_c, 0, 85, 88
2, 267622, Note_on_c, 0, 77, 0
2, 267630, Note_on_c, 0, 86, 0
2, 267706, Note_on_c, 0, 84, 81
2, 267708, Note_on_c, 0, 75, 80
2, 267711, Note_on_c, 0, 85, 0
2, 267717, Note_on_c, 0, 76, 0
2, 267762, Note_on_c, 0, 84, 0
2, 267790, Note_on_c, 0, 83, 84
2, 267800, Note_on_c, 0, 74, 68
2, 267803, Note_on_c, 0, 75, 0
2, 267874, Note_on_c, 0, 82, 91
2, 267882, Note_on_c, 0, 73, 80
2, 267889, Note_on_c, 0, 74, 0
2, 267891, Note_on_c, 0, 83, 0
2, 267965, Note_on_c, 0, 82, 0
2, 267966, Note_on_c, 0, 81, 89
2, 267970, Note_on_c, 0, 73, 0
2, 267971, Note_on_c, 0, 72, 68
2, 268065, Note_on_c, 0, 80, 85
2, 268066, Note_on_c, 0, 81, 0
2, 268069, Note_on_c, 0, 71, 75
2, 268085, Note_on_c, 0, 72, 0
2, 268170, Note_on_c, 0, 78, 90
2, 268183, Note_on_c, 0, 69, 59
2, 268204, Note_on_c, 0, 71, 0
2, 268205, Note_on_c, 0, 80, 0
2, 268255, Note_on_c, 0, 76, 82
2, 268260, Note_on_c, 0, 68, 88
2, 268271, Note_on_c, 0, 78, 0
2, 268278, Note_on_c, 0, 69, 0
2, 268290, Note_on_c, 0, 76, 0
2, 268302, Note_on_c, 0, 68, 0
2, 268350, Note_on_c, 0, 64, 73
2, 268351, Note_on_c, 0, 68, 82
2, 268431, Note_on_c, 0, 74, 80
2, 268444, Note_on_c, 0, 52, 73
2, 268447, Note_on_c, 0, 64, 0
2, 268462, Note_on_c, 0, 68, 0
2, 268477, Control_c, 0, 64, 63
2, 268505, Control_c, 0, 64, 127
2, 268535, Note_on_c, 0, 76, 68
2, 268543, Note_on_c, 0, 59, 68
2, 268545, Note_on_c, 0, 74, 0
2, 268563, Note_on_c, 0, 52, 0
2, 268576, Note_on_c, 0, 76, 0
2, 268591, Note_on_c, 0, 59, 0
2, 268662, Note_on_c, 0, 80, 72
2, 268674, Note_on_c, 0, 71, 66
2, 268798, Note_on_c, 0, 78, 82
2, 268805, Note_on_c, 0, 69, 59
2, 268809, Note_on_c, 0, 71, 0
2, 268825, Note_on_c, 0, 80, 0
2, 268908, Note_on_c, 0, 76, 69
2, 268910, Note_on_c, 0, 68, 87
2, 268917, Note_on_c, 0, 78, 0
2, 268919, Note_on_c, 0, 69, 0
2, 268943, Note_on_c, 0, 68, 0
2, 268990, Note_on_c, 0, 76, 0
2, 269001, Note_on_c, 0, 64, 70
2, 269012, Note_on_c, 0, 68, 79
2, 269115, Note_on_c, 0, 52, 55
2, 269119, Note_on_c, 0, 64, 0
2, 269125, Note_on_c, 0, 74, 71
2, 269129, Note_on_c, 0, 68, 0
2, 269288, Note_on_c, 0, 59, 47
2, 269291, Note_on_c, 0, 76, 56
2, 269312, Note_on_c, 0, 74, 0
2, 269338, Note_on_c, 0, 59, 0
2, 269338, Note_on_c, 0, 52, 0
2, 269349, Note_on_c, 0, 76, 0
2, 269516, Note_on_c, 0, 45, 71
2, 269569, Control_c, 0, 64, 63
2, 269570, Control_c, 0, 64, 127
2, 269614, Control_c, 0, 64, 63
2, 269620, Control_c, 0, 64, 0
2, 269698, Control_c, 0, 64, 63
2, 269699, Control_c, 0, 64, 127
2, 269750, Control_c, 0, 64, 63
2, 269762, Note_on_c, 0, 61, 66
2, 269774, Note_on_c, 0, 52, 41
2, 269775, Control_c, 0, 64, 127
2, 269879, Note_on_c, 0, 45, 0
2, 269894, Note_on_c, 0, 61, 0
2, 269933, Note_on_c, 0, 64, 65
2, 269945, Note_on_c, 0, 52, 0
2, 269949, Note_on_c, 0, 57, 55
2, 270010, Note_on_c, 0, 57, 0
2, 270014, Note_on_c, 0, 64, 0
2, 270053, Note_on_c, 0, 69, 69
2, 270063, Note_on_c, 0, 61, 60
2, 270132, Note_on_c, 0, 69, 0
2, 270155, Note_on_c, 0, 61, 0
2, 270172, Note_on_c, 0, 64, 58
2, 270174, Note_on_c, 0, 73, 80
2, 270211, Note_on_c, 0, 73, 0
2, 270226, Note_on_c, 0, 64, 0
2, 270266, Note_on_c, 0, 76, 84
2, 270268, Note_on_c, 0, 69, 52
2, 270329, Note_on_c, 0, 69, 0
2, 270336, Note_on_c, 0, 76, 0
2, 270368, Note_on_c, 0, 81, 76
2, 270374, Note_on_c, 0, 73, 63
2, 270409, Note_on_c, 0, 81, 0
2, 270427, Note_on_c, 0, 73, 0
2, 270468, Note_on_c, 0, 85, 76
2, 270475, Note_on_c, 0, 76, 47
2, 270514, Note_on_c, 0, 85, 0
2, 270536, Note_on_c, 0, 76, 0
2, 270573, Note_on_c, 0, 81, 60
2, 270575, Note_on_c, 0, 73, 59
2, 270608, Note_on_c, 0, 81, 0
2, 270625, Note_on_c, 0, 73, 0
2, 270661, Note_on_c, 0, 76, 52
2, 270662, Note_on_c, 0, 85, 78
2, 270718, Note_on_c, 0, 85, 0
2, 270744, Note_on_c, 0, 76, 0
2, 270765, Note_on_c, 0, 81, 57
2, 270768, Note_on_c, 0, 73, 57
2, 270803, Note_on_c, 0, 81, 0
2, 270832, Note_on_c, 0, 73, 0
2, 270851, Note_on_c, 0, 85, 76
2, 270858, Note_on_c, 0, 76, 44
2, 270903, Note_on_c, 0, 85, 0
2, 270946, Note_on_c, 0, 76, 0
2, 270957, Note_on_c, 0, 73, 54
2, 270958, Note_on_c, 0, 81, 57
2, 271007, Note_on_c, 0, 81, 0
2, 271030, Note_on_c, 0, 73, 0
2, 271049, Note_on_c, 0, 76, 45
2, 271049, Note_on_c, 0, 85, 70
2, 271097, Note_on_c, 0, 85, 0
2, 271127, Note_on_c, 0, 76, 0
2, 271145, Note_on_c, 0, 80, 70
2, 271154, Note_on_c, 0, 72, 33
2, 271196, Note_on_c, 0, 80, 0
2, 271222, Note_on_c, 0, 72, 0
2, 271244, Note_on_c, 0, 75, 57
2, 271255, Note_on_c, 0, 84, 46
2, 271287, Note_on_c, 0, 84, 0
2, 271309, Note_on_c, 0, 75, 0
2, 271345, Note_on_c, 0, 71, 58
2, 271352, Note_on_c, 0, 79, 61
2, 271411, Note_on_c, 0, 79, 0
2, 271422, Note_on_c, 0, 71, 0
2, 271445, Note_on_c, 0, 83, 68
2, 271451, Note_on_c, 0, 74, 46
2, 271485, Note_on_c, 0, 83, 0
2, 271506, Note_on_c, 0, 74, 0
2, 271552, Note_on_c, 0, 78, 74
2, 271558, Note_on_c, 0, 70, 46
2, 271598, Note_on_c, 0, 78, 0
2, 271624, Note_on_c, 0, 70, 0
2, 271653, Note_on_c, 0, 82, 73
2, 271662, Note_on_c, 0, 73, 53
2, 271711, Note_on_c, 0, 82, 0
2, 271717, Note_on_c, 0, 73, 0
2, 271771, Note_on_c, 0, 69, 44
2, 271774, Note_on_c, 0, 77, 58
2, 271845, Note_on_c, 0, 69, 0
2, 271848, Note_on_c, 0, 77, 0
2, 271887, Note_on_c, 0, 72, 49
2, 271890, Note_on_c, 0, 81, 59
2, 271942, Note_on_c, 0, 81, 0
2, 271989, Note_on_c, 0, 72, 0
2, 272033, Note_on_c, 0, 77, 50
2, 272034, Note_on_c, 0, 68, 48
2, 272105, Note_on_c, 0, 77, 0
2, 272186, Note_on_c, 0, 68, 0
2, 272193, Note_on_c, 0, 80, 48
2, 272201, Note_on_c, 0, 71, 26
2, 272233, Note_on_c, 0, 80, 0
2, 272252, Note_on_c, 0, 71, 0
2, 272427, Note_on_c, 0, 54, 67
2, 272454, Control_c, 0, 64, 63
2, 272455, Control_c, 0, 64, 127
2, 272494, Control_c, 0, 64, 63
2, 272503, Control_c, 0, 64, 0
2, 272556, Control_c, 0, 64, 63
2, 272559, Control_c, 0, 64, 127
2, 272631, Note_on_c, 0, 69, 47
2, 272640, Note_on_c, 0, 54, 0
2, 272641, Note_on_c, 0, 61, 58
2, 272758, Note_on_c, 0, 73, 70
2, 272766, Note_on_c, 0, 69, 0
2, 272772, Note_on_c, 0, 66, 72
2, 272794, Note_on_c, 0, 61, 0
2, 272855, Note_on_c, 0, 66, 0
2, 272866, Note_on_c, 0, 78, 90
2, 272869, Note_on_c, 0, 69, 68
2, 272878, Note_on_c, 0, 73, 0
2, 272917, Note_on_c, 0, 78, 0
2, 272932, Note_on_c, 0, 69, 0
2, 272962, Note_on_c, 0, 81, 86
2, 272970, Note_on_c, 0, 73, 64
2, 273042, Note_on_c, 0, 81, 0
2, 273055, Note_on_c, 0, 78, 72
2, 273062, Note_on_c, 0, 85, 80
2, 273081, Note_on_c, 0, 73, 0
2, 273150, Note_on_c, 0, 85, 0
2, 273159, Note_on_c, 0, 78, 0
2, 273164, Note_on_c, 0, 90, 79
2, 273164, Note_on_c, 0, 81, 57
2, 273257, Note_on_c, 0, 85, 84
2, 273269, Note_on_c, 0, 78, 64
2, 273272, Note_on_c, 0, 90, 0
2, 273281, Note_on_c, 0, 81, 0
2, 273348, Note_on_c, 0, 90, 78
2, 273355, Note_on_c, 0, 78, 0
2, 273357, Note_on_c, 0, 81, 62
2, 273363, Note_on_c, 0, 85, 0
2, 273440, Note_on_c, 0, 85, 85
2, 273440, Note_on_c, 0, 78, 60
2, 273445, Note_on_c, 0, 81, 0
2, 273452, Note_on_c, 0, 90, 0
2, 273521, Note_on_c, 0, 78, 0
2, 273524, Note_on_c, 0, 73, 60
2, 273532, Note_on_c, 0, 85, 0
2, 273536, Note_on_c, 0, 81, 71
2, 273572, Note_on_c, 0, 73, 0
2, 273590, Note_on_c, 0, 81, 0
2, 273629, Note_on_c, 0, 69, 55
2, 273629, Note_on_c, 0, 78, 83
2, 273678, Note_on_c, 0, 78, 0
2, 273687, Note_on_c, 0, 69, 0
2, 273739, Note_on_c, 0, 59, 86
2, 273751, Control_c, 0, 64, 63
2, 273757, Control_c, 0, 64, 0
2, 273787, Control_c, 0, 64, 63
2, 273805, Control_c, 0, 64, 127
2, 273868, Note_on_c, 0, 66, 80
2, 273870, Note_on_c, 0, 69, 69
2, 273901, Note_on_c, 0, 59, 0
2, 273955, Note_on_c, 0, 69, 0
2, 273956, Note_on_c, 0, 66, 0
2, 273967, Note_on_c, 0, 75, 93
2, 273979, Note_on_c, 0, 69, 35
2, 274007, Note_on_c, 0, 69, 0
2, 274053, Note_on_c, 0, 78, 94
2, 274058, Note_on_c, 0, 75, 0
2, 274073, Note_on_c, 0, 71, 56
2, 274093, Note_on_c, 0, 78, 0
2, 274138, Note_on_c, 0, 81, 84
2, 274152, Note_on_c, 0, 75, 80
2, 274228, Note_on_c, 0, 81, 0
2, 274237, Note_on_c, 0, 78, 76
2, 274238, Note_on_c, 0, 87, 93
2, 274274, Note_on_c, 0, 75, 0
2, 274288, Note_on_c, 0, 71, 0
2, 274326, Note_on_c, 0, 90, 92
2, 274331, Note_on_c, 0, 81, 74
2, 274339, Note_on_c, 0, 87, 0
2, 274357, Note_on_c, 0, 78, 0
2, 274426, Note_on_c, 0, 93, 77
2, 274430, Note_on_c, 0, 78, 88
2, 274447, Note_on_c, 0, 90, 0
2, 274451, Note_on_c, 0, 81, 0
2, 274524, Note_on_c, 0, 92, 98
2, 274529, Note_on_c, 0, 80, 76
2, 274546, Note_on_c, 0, 78, 0
2, 274546, Note_on_c, 0, 93, 0
2, 274623, Note_on_c, 0, 90, 92
2, 274641, Note_on_c, 0, 81, 84
2, 274646, Note_on_c, 0, 92, 0
2, 274648, Note_on_c, 0, 80, 0
2, 274695, Note_on_c, 0, 81, 0
2, 274723, Note_on_c, 0, 92, 97
2, 274764, Note_on_c, 0, 90, 0
2, 274830, Note_on_c, 0, 87, 99
2, 274845, Note_on_c, 0, 92, 0
2, 274953, Control_c, 0, 64, 63
2, 274958, Control_c, 0, 64, 0
2, 274959, Note_on_c, 0, 49, 82
2, 274970, Note_on_c, 0, 88, 91
2, 274985, Note_on_c, 0, 87, 0
2, 275004, Control_c, 0, 64, 63
2, 275010, Control_c, 0, 64, 127
2, 275060, Note_on_c, 0, 88, 0
2, 275178, Note_on_c, 0, 64, 78
2, 275182, Note_on_c, 0, 56, 70
2, 275284, Note_on_c, 0, 49, 0
2, 275307, Note_on_c, 0, 68, 86
2, 275311, Note_on_c, 0, 64, 0
2, 275318, Note_on_c, 0, 61, 73
2, 275325, Note_on_c, 0, 56, 0
2, 275355, Note_on_c, 0, 61, 0
2, 275419, Note_on_c, 0, 68, 0
2, 275421, Note_on_c, 0, 73, 94
2, 275428, Note_on_c, 0, 64, 61
2, 275460, Note_on_c, 0, 73, 0
2, 275514, Note_on_c, 0, 64, 0
2, 275516, Note_on_c, 0, 68, 85
2, 275518, Note_on_c, 0, 76, 84
2, 275602, Note_on_c, 0, 76, 0
2, 275611, Note_on_c, 0, 80, 92
2, 275622, Note_on_c, 0, 73, 69
2, 275629, Note_on_c, 0, 68, 0
2, 275666, Note_on_c, 0, 73, 0
2, 275671, Note_on_c, 0, 80, 0
2, 275714, Note_on_c, 0, 85, 81
2, 275717, Note_on_c, 0, 76, 57
2, 275768, Note_on_c, 0, 85, 0
2, 275804, Note_on_c, 0, 76, 0
2, 275809, Note_on_c, 0, 73, 67
2, 275809, Note_on_c, 0, 80, 78
2, 275892, Note_on_c, 0, 73, 0
2, 275902, Note_on_c, 0, 85, 79
2, 275905, Note_on_c, 0, 76, 58
2, 275908, Note_on_c, 0, 80, 0
2, 275985, Note_on_c, 0, 76, 0
2, 275988, Note_on_c, 0, 73, 63
2, 275998, Note_on_c, 0, 80, 77
2, 276005, Note_on_c, 0, 85, 0
2, 276073, Note_on_c, 0, 73, 0
2, 276082, Note_on_c, 0, 68, 51
2, 276091, Note_on_c, 0, 80, 0
2, 276097, Note_on_c, 0, 76, 70
2, 276129, Note_on_c, 0, 68, 0
2, 276146, Note_on_c, 0, 76, 0
2, 276197, Note_on_c, 0, 64, 56
2, 276199, Note_on_c, 0, 73, 69
2, 276236, Note_on_c, 0, 73, 0
2, 276258, Note_on_c, 0, 64, 0
2, 276324, Note_on_c, 0, 73, 81
2, 276332, Note_on_c, 0, 54, 75
2, 276351, Control_c, 0, 64, 63
2, 276379, Control_c, 0, 64, 127
2, 276457, Note_on_c, 0, 73, 0
2, 276474, Note_on_c, 0, 54, 0
2, 276480, Note_on_c, 0, 69, 65
2, 276492, Note_on_c, 0, 61, 52
2, 276577, Note_on_c, 0, 69, 0
2, 276590, Note_on_c, 0, 73, 69
2, 276608, Note_on_c, 0, 66, 60
2, 276613, Note_on_c, 0, 61, 0
2, 276686, Note_on_c, 0, 66, 0
2, 276696, Note_on_c, 0, 73, 0
2, 276697, Note_on_c, 0, 69, 62
2, 276697, Note_on_c, 0, 78, 81
2, 276750, Note_on_c, 0, 78, 0
2, 276765, Note_on_c, 0, 69, 0
2, 276795, Note_on_c, 0, 81, 82
2, 276800, Note_on_c, 0, 73, 66
2, 276874, Note_on_c, 0, 81, 0
2, 276889, Note_on_c, 0, 78, 76
2, 276893, Note_on_c, 0, 85, 80
2, 276904, Note_on_c, 0, 73, 0
2, 276973, Note_on_c, 0, 85, 0
2, 276987, Note_on_c, 0, 78, 0
2, 276995, Note_on_c, 0, 90, 85
2, 276998, Note_on_c, 0, 81, 47
2, 277076, Note_on_c, 0, 90, 0
2, 277085, Note_on_c, 0, 78, 65
2, 277093, Note_on_c, 0, 85, 73
2, 277096, Note_on_c, 0, 81, 0
2, 277178, Note_on_c, 0, 78, 0
2, 277179, Note_on_c, 0, 90, 80
2, 277184, Note_on_c, 0, 81, 57
2, 277197, Note_on_c, 0, 85, 0
2, 277273, Note_on_c, 0, 81, 0
2, 277280, Note_on_c, 0, 85, 74
2, 277281, Note_on_c, 0, 78, 60
2, 277285, Note_on_c, 0, 90, 0
2, 277372, Note_on_c, 0, 78, 0
2, 277378, Note_on_c, 0, 85, 0
2, 277388, Note_on_c, 0, 81, 58
2, 277388, Note_on_c, 0, 73, 38
2, 277421, Note_on_c, 0, 73, 0
2, 277427, Note_on_c, 0, 81, 0
2, 277487, Note_on_c, 0, 78, 72
2, 277490, Note_on_c, 0, 69, 41
2, 277573, Note_on_c, 0, 78, 0
2, 277584, Note_on_c, 0, 69, 0
2, 277646, Note_on_c, 0, 60, 71
2, 277646, Note_on_c, 0, 76, 60
2, 277672, Control_c, 0, 64, 63
2, 277683, Control_c, 0, 64, 127
2, 277814, Control_c, 0, 64, 63
2, 277819, Control_c, 0, 64, 0
2, 277836, Note_on_c, 0, 64, 52
2, 277840, Note_on_c, 0, 69, 44
2, 277868, Control_c, 0, 64, 63
2, 277872, Control_c, 0, 64, 127
2, 277873, Note_on_c, 0, 76, 0
2, 277954, Note_on_c, 0, 66, 70
2, 277961, Note_on_c, 0, 76, 65
2, 277979, Note_on_c, 0, 69, 0
2, 278011, Note_on_c, 0, 64, 0
2, 278042, Note_on_c, 0, 60, 0
2, 278058, Note_on_c, 0, 69, 68
2, 278061, Note_on_c, 0, 66, 0
2, 278068, Note_on_c, 0, 78, 85
2, 278086, Note_on_c, 0, 76, 0
2, 278102, Note_on_c, 0, 69, 0
2, 278121, Note_on_c, 0, 78, 0
2, 278153, Note_on_c, 0, 72, 78
2, 278158, Note_on_c, 0, 81, 88
2, 278243, Note_on_c, 0, 78, 72
2, 278249, Note_on_c, 0, 81, 0
2, 278259, Note_on_c, 0, 88, 90
2, 278353, Note_on_c, 0, 90, 90
2, 278362, Note_on_c, 0, 81, 65
2, 278369, Note_on_c, 0, 78, 0
2, 278393, Note_on_c, 0, 88, 0
2, 278448, Note_on_c, 0, 88, 77
2, 278452, Note_on_c, 0, 78, 70
2, 278455, Note_on_c, 0, 90, 0
2, 278468, Note_on_c, 0, 81, 0
2, 278498, Note_on_c, 0, 72, 0
2, 278535, Note_on_c, 0, 90, 84
2, 278549, Note_on_c, 0, 78, 0
2, 278552, Note_on_c, 0, 81, 62
2, 278578, Note_on_c, 0, 88, 0
2, 278637, Note_on_c, 0, 88, 73
2, 278638, Note_on_c, 0, 90, 0
2, 278643, Note_on_c, 0, 78, 67
2, 278650, Note_on_c, 0, 81, 0
2, 278730, Note_on_c, 0, 88, 0
2, 278734, Note_on_c, 0, 78, 0
2, 278743, Note_on_c, 0, 81, 57
2, 278751, Note_on_c, 0, 72, 68
2, 278791, Note_on_c, 0, 72, 0
2, 278802, Note_on_c, 0, 81, 0
2, 278851, Note_on_c, 0, 78, 67
2, 278856, Note_on_c, 0, 69, 55
2, 278909, Note_on_c, 0, 78, 0
2, 278913, Note_on_c, 0, 69, 0
2, 278977, Note_on_c, 0, 59, 87
2, 278984, Note_on_c, 0, 75, 74
2, 279023, Control_c, 0, 64, 63
2, 279068, Control_c, 0, 64, 127
2, 279110, Note_on_c, 0, 66, 65
2, 279111, Note_on_c, 0, 75, 0
2, 279114, Note_on_c, 0, 69, 67
2, 279161, Note_on_c, 0, 59, 0
2, 279218, Note_on_c, 0, 66, 0
2, 279223, Note_on_c, 0, 75, 76
2, 279269, Note_on_c, 0, 69, 0
2, 279317, Note_on_c, 0, 75, 0
2, 279325, Note_on_c, 0, 78, 80
2, 279339, Note_on_c, 0, 71, 57
2, 279374, Note_on_c, 0, 78, 0
2, 279421, Note_on_c, 0, 81, 80
2, 279433, Note_on_c, 0, 75, 66
2, 279487, Note_on_c, 0, 71, 0
2, 279528, Note_on_c, 0, 81, 0
2, 279530, Note_on_c, 0, 78, 63
2, 279533, Note_on_c, 0, 87, 84
2, 279555, Note_on_c, 0, 75, 0
2, 279643, Note_on_c, 0, 78, 0
2, 279649, Note_on_c, 0, 81, 57
2, 279650, Note_on_c, 0, 87, 0
2, 279651, Note_on_c, 0, 90, 74
2, 279775, Note_on_c, 0, 90, 0
2, 279779, Note_on_c, 0, 78, 61
2, 279779, Note_on_c, 0, 93, 55
2, 279807, Note_on_c, 0, 81, 0
2, 279918, Note_on_c, 0, 80, 56
2, 279930, Note_on_c, 0, 93, 0
2, 279931, Note_on_c, 0, 78, 0
2, 279936, Note_on_c, 0, 92, 61
2, 280107, Note_on_c, 0, 90, 54
2, 280115, Note_on_c, 0, 92, 0
2, 280115, Note_on_c, 0, 80, 0
2, 280118, Note_on_c, 0, 81, 59
2, 280160, Note_on_c, 0, 81, 0
2, 280309, Note_on_c, 0, 92, 54
2, 280310, Note_on_c, 0, 90, 0
2, 280517, Note_on_c, 0, 87, 58
2, 280528, Note_on_c, 0, 92, 0
2, 280757, Note_on_c, 0, 87, 0
2, 280804, Note_on_c, 0, 80, 48
2, 280809, Note_on_c, 0, 88, 57
2, 280815, Note_on_c, 0, 76, 45
2, 280837, Control_c, 0, 64, 63
2, 280843, Control_c, 0, 64, 127
2, 280956, Control_c, 0, 64, 63
2, 280963, Control_c, 0, 64, 0
2, 281002, Control_c, 0, 64, 63
2, 281010, Control_c, 0, 64, 127
2, 281091, Note_on_c, 0, 95, 56
2, 281105, Note_on_c, 0, 88, 0
2, 281276, Note_on_c, 0, 88, 47
2, 281356, Note_on_c, 0, 95, 0
2, 281414, Note_on_c, 0, 83, 56
2, 281434, Note_on_c, 0, 88, 0
2, 281521, Note_on_c, 0, 83, 0
2, 281526, Note_on_c, 0, 80, 0
2, 281536, Note_on_c, 0, 88, 52
2, 281647, Note_on_c, 0, 83, 51
2, 281682, Note_on_c, 0, 88, 0
2, 281683, Note_on_c, 0, 76, 0
2, 281733, Note_on_c, 0, 83, 0
2, 281749, Note_on_c, 0, 76, 36
2, 281830, Note_on_c, 0, 76, 0
2, 281845, Note_on_c, 0, 83, 64
2, 281936, Note_on_c, 0, 83, 0
2, 281942, Note_on_c, 0, 76, 66
2, 282035, Note_on_c, 0, 76, 0
2, 282047, Note_on_c, 0, 71, 55
2, 282115, Note_on_c, 0, 71, 0
2, 282135, Note_on_c, 0, 76, 69
2, 282228, Note_on_c, 0, 71, 70
2, 282236, Note_on_c, 0, 76, 0
2, 282324, Note_on_c, 0, 71, 0
2, 282326, Note_on_c, 0, 64, 57
2, 282424, Note_on_c, 0, 71, 61
2, 282446, Note_on_c, 0, 64, 0
2, 282517, Note_on_c, 0, 64, 57
2, 282523, Note_on_c, 0, 71, 0
2, 282609, Note_on_c, 0, 71, 71
2, 282614, Note_on_c, 0, 64, 0
2, 282705, Note_on_c, 0, 76, 63
2, 282712, Note_on_c, 0, 71, 0
2, 282782, Note_on_c, 0, 76, 0
2, 282792, Note_on_c, 0, 71, 69
2, 282890, Note_on_c, 0, 76, 73
2, 282897, Note_on_c, 0, 71, 0
2, 282984, Note_on_c, 0, 83, 70
2, 282990, Note_on_c, 0, 76, 0
2, 283058, Note_on_c, 0, 83, 0
2, 283074, Note_on_c, 0, 76, 68
2, 283169, Note_on_c, 0, 76, 0
2, 283171, Note_on_c, 0, 83, 71
2, 283268, Note_on_c, 0, 83, 0
2, 283268, Note_on_c, 0, 88, 65
2, 283337, Note_on_c, 0, 88, 0
2, 283352, Note_on_c, 0, 83, 63
2, 283479, Note_on_c, 0, 62, 69
2, 283484, Note_on_c, 0, 88, 61
2, 283488, Note_on_c, 0, 52, 32
2, 283489, Note_on_c, 0, 83, 0
2, 283509, Control_c, 0, 64, 63
2, 283546, Control_c, 0, 64, 0
2, 283564, Control_c, 0, 64, 63
2, 283589, Control_c, 0, 64, 127
2, 283670, Note_on_c, 0, 95, 68
2, 283677, Note_on_c, 0, 88, 0
2, 283792, Note_on_c, 0, 95, 0
2, 283797, Note_on_c, 0, 88, 68
2, 283871, Note_on_c, 0, 88, 0
2, 283881, Note_on_c, 0, 83, 65
2, 283948, Note_on_c, 0, 83, 0
2, 283971, Note_on_c, 0, 88, 67
2, 284064, Note_on_c, 0, 83, 66
2, 284071, Note_on_c, 0, 88, 0
2, 284139, Note_on_c, 0, 83, 0
2, 284154, Note_on_c, 0, 76, 76
2, 284223, Note_on_c, 0, 76, 0
2, 284241, Note_on_c, 0, 83, 79
2, 284336, Note_on_c, 0, 83, 0
2, 284337, Note_on_c, 0, 76, 76
2, 284417, Note_on_c, 0, 76, 0
2, 284422, Note_on_c, 0, 71, 78
2, 284479, Note_on_c, 0, 71, 0
2, 284506, Note_on_c, 0, 76, 84
2, 284603, Note_on_c, 0, 71, 70
2, 284610, Note_on_c, 0, 76, 0
2, 284646, Note_on_c, 0, 62, 0
2, 284714, Note_on_c, 0, 64, 41
2, 284717, Note_on_c, 0, 71, 0
2, 284814, Note_on_c, 0, 71, 54
2, 284828, Note_on_c, 0, 64, 0
2, 284901, Note_on_c, 0, 71, 0
2, 284905, Note_on_c, 0, 64, 60
2, 284998, Note_on_c, 0, 71, 70
2, 285002, Note_on_c, 0, 64, 0
2, 285078, Note_on_c, 0, 76, 76
2, 285085, Note_on_c, 0, 71, 0
2, 285149, Note_on_c, 0, 76, 0
2, 285160, Note_on_c, 0, 71, 79
2, 285267, Note_on_c, 0, 76, 85
2, 285273, Note_on_c, 0, 71, 0
2, 285368, Note_on_c, 0, 83, 61
2, 285373, Note_on_c, 0, 76, 0
2, 285440, Note_on_c, 0, 83, 0
2, 285453, Note_on_c, 0, 76, 76
2, 285549, Note_on_c, 0, 83, 82
2, 285557, Note_on_c, 0, 76, 0
2, 285643, Note_on_c, 0, 88, 82
2, 285653, Note_on_c, 0, 83, 0
2, 285717, Note_on_c, 0, 88, 0
2, 285731, Note_on_c, 0, 83, 74
2, 285878, Note_on_c, 0, 88, 68
2, 285878, Note_on_c, 0, 61, 72
2, 285881, Note_on_c, 0, 83, 0
2, 285941, Control_c, 0, 64, 63
2, 285963, Control_c, 0, 64, 0
2, 286018, Control_c, 0, 64, 63
2, 286027, Control_c, 0, 64, 127
2, 286043, Note_on_c, 0, 93, 68
2, 286075, Note_on_c, 0, 88, 0
2, 286162, Note_on_c, 0, 93, 0
2, 286163, Note_on_c, 0, 88, 63
2, 286233, Note_on_c, 0, 88, 0
2, 286241, Note_on_c, 0, 81, 68
2, 286320, Note_on_c, 0, 81, 0
2, 286329, Note_on_c, 0, 88, 81
2, 286400, Note_on_c, 0, 88, 0
2, 286411, Note_on_c, 0, 81, 84
2, 286493, Note_on_c, 0, 81, 0
2, 286501, Note_on_c, 0, 76, 76
2, 286567, Note_on_c, 0, 76, 0
2, 286579, Note_on_c, 0, 81, 85
2, 286667, Note_on_c, 0, 76, 79
2, 286670, Note_on_c, 0, 81, 0
2, 286741, Note_on_c, 0, 76, 0
2, 286755, Note_on_c, 0, 69, 69
2, 286824, Note_on_c, 0, 69, 0
2, 286835, Note_on_c, 0, 76, 87
2, 286916, Note_on_c, 0, 76, 0
2, 286921, Note_on_c, 0, 69, 78
2, 286982, Note_on_c, 0, 61, 0
2, 287030, Note_on_c, 0, 59, 84
2, 287031, Note_on_c, 0, 69, 0
2, 287037, Note_on_c, 0, 64, 58
2, 287110, Control_c, 0, 64, 63
2, 287123, Control_c, 0, 64, 0
2, 287141, Note_on_c, 0, 68, 70
2, 287162, Note_on_c, 0, 64, 0
2, 287179, Control_c, 0, 64, 63
2, 287187, Control_c, 0, 64, 127
2, 287242, Note_on_c, 0, 64, 63
2, 287254, Note_on_c, 0, 68, 0
2, 287339, Note_on_c, 0, 68, 72
2, 287367, Note_on_c, 0, 64, 0
2, 287435, Note_on_c, 0, 76, 76
2, 287461, Note_on_c, 0, 68, 0
2, 287523, Note_on_c, 0, 68, 86
2, 287533, Note_on_c, 0, 76, 0
2, 287562, Note_on_c, 0, 68, 0
2, 287619, Note_on_c, 0, 76, 89
2, 287711, Note_on_c, 0, 80, 88
2, 287714, Note_on_c, 0, 76, 0
2, 287795, Note_on_c, 0, 76, 89
2, 287809, Note_on_c, 0, 80, 0
2, 287883, Note_on_c, 0, 76, 0
2, 287884, Note_on_c, 0, 80, 92
2, 287980, Note_on_c, 0, 88, 85
2, 287999, Note_on_c, 0, 80, 0
2, 288030, Note_on_c, 0, 59, 0
2, 288088, Note_on_c, 0, 80, 86
2, 288097, Note_on_c, 0, 52, 0
2, 288141, Note_on_c, 0, 80, 0
2, 288161, Note_on_c, 0, 88, 0
2, 288237, Note_on_c, 0, 88, 78
2, 288237, Note_on_c, 0, 58, 70
2, 288239, Note_on_c, 0, 64, 75
2, 288240, Note_on_c, 0, 54, 62
2, 288271, Control_c, 0, 64, 63
2, 288272, Control_c, 0, 64, 127
2, 288362, Control_c, 0, 64, 63
2, 288366, Control_c, 0, 64, 0
2, 288416, Control_c, 0, 64, 63
2, 288417, Control_c, 0, 64, 127
2, 288484, Note_on_c, 0, 97, 75
2, 288523, Note_on_c, 0, 88, 0
2, 288610, Note_on_c, 0, 97, 0
2, 288615, Note_on_c, 0, 88, 62
2, 288716, Note_on_c, 0, 88, 0
2, 288724, Note_on_c, 0, 85, 81
2, 288817, Note_on_c, 0, 85, 0
2, 288822, Note_on_c, 0, 90, 80
2, 288907, Note_on_c, 0, 85, 71
2, 288913, Note_on_c, 0, 90, 0
2, 289016, Note_on_c, 0, 78, 80
2, 289032, Note_on_c, 0, 85, 0
2, 289107, Note_on_c, 0, 88, 71
2, 289115, Note_on_c, 0, 78, 0
2, 289164, Note_on_c, 0, 88, 0
2, 289188, Note_on_c, 0, 78, 85
2, 289251, Note_on_c, 0, 78, 0
2, 289285, Note_on_c, 0, 76, 76
2, 289377, Note_on_c, 0, 85, 78
2, 289389, Note_on_c, 0, 76, 0
2, 289468, Note_on_c, 0, 85, 0
2, 289482, Note_on_c, 0, 76, 62
2, 289552, Note_on_c, 0, 76, 0
2, 289571, Note_on_c, 0, 73, 72
2, 289620, Note_on_c, 0, 73, 0
2, 289659, Note_on_c, 0, 78, 59
2, 289674, Note_on_c, 0, 64, 0
2, 289758, Note_on_c, 0, 73, 75
2, 289760, Note_on_c, 0, 78, 0
2, 289846, Note_on_c, 0, 66, 69
2, 289848, Note_on_c, 0, 73, 0
2, 289943, Note_on_c, 0, 76, 70
2, 289950, Note_on_c, 0, 66, 0
2, 290013, Note_on_c, 0, 54, 0
2, 290016, Note_on_c, 0, 76, 0
2, 290016, Note_on_c, 0, 58, 0
2, 290031, Note_on_c, 0, 66, 71
2, 290084, Note_on_c, 0, 66, 0
2, 290123, Note_on_c, 0, 64, 67
2, 290205, Note_on_c, 0, 64, 0
2, 290213, Note_on_c, 0, 73, 67
2, 290276, Note_on_c, 0, 73, 0
2, 290311, Note_on_c, 0, 64, 62
2, 290394, Note_on_c, 0, 64, 0
2, 290395, Note_on_c, 0, 61, 57
2, 290479, Note_on_c, 0, 61, 0
2, 290482, Note_on_c, 0, 66, 53
2, 290582, Note_on_c, 0, 66, 0
2, 290583, Note_on_c, 0, 61, 50
2, 290712, Note_on_c, 0, 58, 60
2, 290716, Note_on_c, 0, 42, 53
2, 290727, Note_on_c, 0, 61, 0
2, 290762, Control_c, 0, 64, 63
2, 290768, Control_c, 0, 64, 0
2, 290800, Control_c, 0, 64, 63
2, 290810, Control_c, 0, 64, 127
2, 290878, Note_on_c, 0, 61, 62
2, 290893, Note_on_c, 0, 58, 0
2, 290952, Note_on_c, 0, 61, 0
2, 290983, Note_on_c, 0, 64, 67
2, 291087, Note_on_c, 0, 66, 77
2, 291095, Note_on_c, 0, 64, 0
2, 291191, Note_on_c, 0, 70, 74
2, 291207, Note_on_c, 0, 66, 0
2, 291285, Note_on_c, 0, 73, 77
2, 291301, Note_on_c, 0, 70, 0
2, 291340, Note_on_c, 0, 73, 0
2, 291369, Note_on_c, 0, 76, 83
2, 291413, Note_on_c, 0, 42, 0
2, 291466, Note_on_c, 0, 78, 85
2, 291470, Note_on_c, 0, 76, 0
2, 291570, Note_on_c, 0, 82, 80
2, 291587, Note_on_c, 0, 78, 0
2, 291677, Note_on_c, 0, 85, 76
2, 291701, Note_on_c, 0, 82, 0
2, 291742, Note_on_c, 0, 85, 0
2, 291784, Note_on_c, 0, 88, 81
2, 291923, Note_on_c, 0, 88, 0
2, 291936, Note_on_c, 0, 97, 70
2, 291953, Note_on_c, 0, 47, 52
2, 291996, Control_c, 0, 64, 127
2, 292052, Note_on_c, 0, 54, 61
2, 292073, Note_on_c, 0, 47, 0
2, 292081, Note_on_c, 0, 97, 0
2, 292110, Note_on_c, 0, 54, 0
2, 292114, Note_on_c, 0, 57, 64
2, 292170, Note_on_c, 0, 57, 0
2, 292203, Note_on_c, 0, 63, 67
2, 292226, Note_on_c, 0, 95, 77
2, 292294, Note_on_c, 0, 63, 0
2, 292447, Note_on_c, 0, 95, 0
2, 292447, Note_on_c, 0, 93, 64
2, 292572, Note_on_c, 0, 90, 76
2, 292632, Note_on_c, 0, 93, 0
2, 292689, Note_on_c, 0, 87, 64
2, 292743, Note_on_c, 0, 90, 0
2, 292795, Note_on_c, 0, 87, 0
2, 292798, Note_on_c, 0, 83, 59
2, 292892, Note_on_c, 0, 87, 72
2, 292908, Note_on_c, 0, 83, 0
2, 292999, Note_on_c, 0, 85, 67
2, 293000, Note_on_c, 0, 87, 0
2, 293094, Note_on_c, 0, 85, 0
2, 293107, Note_on_c, 0, 81, 49
2, 293207, Note_on_c, 0, 81, 0
2, 293227, Note_on_c, 0, 78, 44
2, 293382, Note_on_c, 0, 75, 33
2, 293390, Note_on_c, 0, 78, 0
2, 293547, Note_on_c, 0, 71, 30
2, 293610, Note_on_c, 0, 75, 0
2, 293740, Note_on_c, 0, 71, 0
2, 293767, Note_on_c, 0, 83, 36
2, 293825, Note_on_c, 0, 83, 0
2, 294071, Note_on_c, 0, 56, 31
2, 294084, Note_on_c, 0, 52, 35
2, 294101, Note_on_c, 0, 64, 32
2, 294138, Control_c, 0, 64, 63
2, 294147, Note_on_c, 0, 76, 48
2, 294163, Control_c, 0, 64, 127
2, 294277, Note_on_c, 0, 76, 0
2, 294494, Note_on_c, 0, 95, 65
2, 294658, Note_on_c, 0, 88, 65
2, 294670, Note_on_c, 0, 95, 0
2, 294768, Note_on_c, 0, 88, 0
2, 294782, Note_on_c, 0, 83, 52
2, 294866, Note_on_c, 0, 83, 0
2, 294879, Note_on_c, 0, 88, 70
2, 294973, Note_on_c, 0, 83, 72
2, 294978, Note_on_c, 0, 88, 0
2, 295061, Note_on_c, 0, 83, 0
2, 295072, Note_on_c, 0, 76, 70
2, 295152, Note_on_c, 0, 76, 0
2, 295163, Note_on_c, 0, 83, 70
2, 295235, Note_on_c, 0, 64, 0
2, 295269, Note_on_c, 0, 76, 83
2, 295275, Note_on_c, 0, 52, 0
2, 295277, Note_on_c, 0, 83, 0
2, 295319, Note_on_c, 0, 56, 0
2, 295362, Note_on_c, 0, 76, 0
2, 295368, Note_on_c, 0, 71, 74
2, 295445, Note_on_c, 0, 71, 0
2, 295468, Note_on_c, 0, 76, 82
2, 295569, Note_on_c, 0, 71, 77
2, 295579, Note_on_c, 0, 76, 0
2, 295667, Note_on_c, 0, 71, 0
2, 295712, Note_on_c, 0, 52, 36
2, 295739, Note_on_c, 0, 62, 84
2, 295741, Note_on_c, 0, 64, 75
2, 295826, Control_c, 0, 64, 63
2, 295836, Control_c, 0, 64, 0
2, 295881, Note_on_c, 0, 71, 71
2, 295904, Control_c, 0, 64, 63
2, 295911, Note_on_c, 0, 64, 0
2, 295913, Control_c, 0, 64, 127
2, 295996, Note_on_c, 0, 64, 68
2, 296009, Note_on_c, 0, 71, 0
2, 296105, Note_on_c, 0, 64, 0
2, 296105, Note_on_c, 0, 71, 74
2, 296200, Note_on_c, 0, 76, 71
2, 296207, Note_on_c, 0, 71, 0
2, 296288, Note_on_c, 0, 76, 0
2, 296305, Note_on_c, 0, 71, 79
2, 296419, Note_on_c, 0, 71, 0
2, 296421, Note_on_c, 0, 76, 71
2, 296547, Note_on_c, 0, 76, 0
2, 296547, Note_on_c, 0, 83, 62
2, 296647, Note_on_c, 0, 83, 0
2, 296658, Note_on_c, 0, 76, 74
2, 296711, Note_on_c, 0, 62, 0
2, 296750, Note_on_c, 0, 52, 0
2, 296762, Note_on_c, 0, 76, 0
2, 296763, Note_on_c, 0, 83, 68
2, 296888, Note_on_c, 0, 83, 0
2, 296888, Note_on_c, 0, 88, 54
2, 296968, Note_on_c, 0, 88, 0
2, 296988, Note_on_c, 0, 83, 60
2, 297116, Note_on_c, 0, 52, 35
2, 297147, Note_on_c, 0, 83, 0
2, 297148, Note_on_c, 0, 88, 64
2, 297155, Note_on_c, 0, 61, 55
2, 297207, Control_c, 0, 64, 63
2, 297231, Control_c, 0, 64, 0
2, 297271, Control_c, 0, 64, 63
2, 297285, Control_c, 0, 64, 127
2, 297324, Note_on_c, 0, 93, 56
2, 297349, Note_on_c, 0, 88, 0
2, 297434, Note_on_c, 0, 88, 73
2, 297437, Note_on_c, 0, 93, 0
2, 297514, Note_on_c, 0, 88, 0
2, 297522, Note_on_c, 0, 81, 68
2, 297595, Note_on_c, 0, 81, 0
2, 297608, Note_on_c, 0, 88, 89
2, 297713, Note_on_c, 0, 81, 77
2, 297720, Note_on_c, 0, 88, 0
2, 297796, Note_on_c, 0, 81, 0
2, 297804, Note_on_c, 0, 76, 78
2, 297875, Note_on_c, 0, 76, 0
2, 297887, Note_on_c, 0, 81, 84
2, 297987, Note_on_c, 0, 76, 84
2, 297993, Note_on_c, 0, 81, 0
2, 298070, Note_on_c, 0, 76, 0
2, 298079, Note_on_c, 0, 69, 72
2, 298152, Note_on_c, 0, 69, 0
2, 298156, Note_on_c, 0, 52, 0
2, 298172, Note_on_c, 0, 61, 0
2, 298172, Note_on_c, 0, 76, 84
2, 298236, Note_on_c, 0, 76, 0
2, 298262, Note_on_c, 0, 69, 81
2, 298318, Note_on_c, 0, 69, 0
2, 298380, Note_on_c, 0, 52, 50
2, 298399, Note_on_c, 0, 59, 77
2, 298403, Note_on_c, 0, 64, 72
2, 298496, Control_c, 0, 64, 63
2, 298505, Control_c, 0, 64, 0
2, 298543, Note_on_c, 0, 68, 65
2, 298560, Control_c, 0, 64, 63
2, 298569, Control_c, 0, 64, 127
2, 298594, Note_on_c, 0, 64, 0
2, 298670, Note_on_c, 0, 64, 62
2, 298690, Note_on_c, 0, 68, 0
2, 298774, Note_on_c, 0, 68, 76
2, 298787, Note_on_c, 0, 64, 0
2, 298877, Note_on_c, 0, 76, 82
2, 298897, Note_on_c, 0, 68, 0
2, 298988, Note_on_c, 0, 68, 87
2, 299003, Note_on_c, 0, 76, 0
2, 299046, Note_on_c, 0, 68, 0
2, 299115, Note_on_c, 0, 76, 79
2, 299219, Note_on_c, 0, 80, 88
2, 299239, Note_on_c, 0, 76, 0
2, 299243, Note_on_c, 0, 52, 0
2, 299306, Note_on_c, 0, 59, 0
2, 299341, Note_on_c, 0, 76, 59
2, 299347, Note_on_c, 0, 80, 0
2, 299466, Note_on_c, 0, 76, 0
2, 299466, Note_on_c, 0, 80, 70
2, 299615, Note_on_c, 0, 88, 59
2, 299628, Note_on_c, 0, 80, 0
2, 299782, Note_on_c, 0, 88, 0
2, 299783, Note_on_c, 0, 80, 66
2, 299866, Note_on_c, 0, 80, 0
2, 300034, Note_on_c, 0, 52, 56
2, 300063, Note_on_c, 0, 88, 73
2, 300090, Control_c, 0, 64, 63
2, 300113, Control_c, 0, 64, 127
2, 300160, Note_on_c, 0, 52, 0
2, 300169, Note_on_c, 0, 58, 64
2, 300212, Note_on_c, 0, 88, 0
2, 300233, Note_on_c, 0, 61, 63
2, 300262, Note_on_c, 0, 58, 0
2, 300294, Note_on_c, 0, 61, 0
2, 300321, Note_on_c, 0, 66, 84
2, 300365, Note_on_c, 0, 66, 0
2, 300425, Note_on_c, 0, 97, 94
2, 300585, Note_on_c, 0, 97, 0
2, 300599, Note_on_c, 0, 88, 85
2, 300671, Note_on_c, 0, 88, 0
2, 300730, Note_on_c, 0, 85, 80
2, 300793, Note_on_c, 0, 85, 0
2, 300843, Note_on_c, 0, 90, 82
2, 300929, Note_on_c, 0, 85, 75
2, 300936, Note_on_c, 0, 90, 0
2, 301032, Note_on_c, 0, 78, 83
2, 301047, Note_on_c, 0, 85, 0
2, 301134, Note_on_c, 0, 88, 76
2, 301139, Note_on_c, 0, 78, 0
2, 301199, Note_on_c, 0, 88, 0
2, 301215, Note_on_c, 0, 78, 78
2, 301283, Note_on_c, 0, 78, 0
2, 301321, Note_on_c, 0, 76, 67
2, 301408, Note_on_c, 0, 85, 76
2, 301419, Note_on_c, 0, 76, 0
2, 301508, Note_on_c, 0, 85, 0
2, 301508, Note_on_c, 0, 76, 66
2, 301593, Note_on_c, 0, 76, 0
2, 301602, Note_on_c, 0, 73, 80
2, 301661, Note_on_c, 0, 73, 0
2, 301690, Note_on_c, 0, 78, 64
2, 301792, Note_on_c, 0, 73, 67
2, 301801, Note_on_c, 0, 78, 0
2, 301888, Note_on_c, 0, 66, 76
2, 301897, Note_on_c, 0, 73, 0
2, 301983, Note_on_c, 0, 76, 71
2, 301986, Note_on_c, 0, 66, 0
2, 302043, Note_on_c, 0, 76, 0
2, 302065, Note_on_c, 0, 66, 71
2, 302131, Note_on_c, 0, 66, 0
2, 302174, Note_on_c, 0, 64, 52
2, 302262, Note_on_c, 0, 73, 63
2, 302264, Note_on_c, 0, 64, 0
2, 302349, Note_on_c, 0, 73, 0
2, 302356, Note_on_c, 0, 64, 59
2, 302451, Note_on_c, 0, 64, 0
2, 302455, Note_on_c, 0, 61, 67
2, 302534, Note_on_c, 0, 61, 0
2, 302556, Note_on_c, 0, 66, 58
2, 302650, Note_on_c, 0, 61, 65
2, 302652, Note_on_c, 0, 66, 0
2, 302746, Note_on_c, 0, 61, 0
2, 302773, Note_on_c, 0, 60, 68
2, 302785, Note_on_c, 0, 57, 35
2, 302802, Note_on_c, 0, 52, 21
2, 302870, Control_c, 0, 64, 63
2, 302898, Control_c, 0, 64, 127
2, 302918, Note_on_c, 0, 63, 68
2, 302985, Note_on_c, 0, 60, 0
2, 303030, Note_on_c, 0, 66, 72
2, 303036, Note_on_c, 0, 63, 0
2, 303078, Note_on_c, 0, 66, 0
2, 303124, Note_on_c, 0, 69, 64
2, 303216, Note_on_c, 0, 72, 84
2, 303220, Note_on_c, 0, 69, 0
2, 303324, Note_on_c, 0, 75, 88
2, 303337, Note_on_c, 0, 72, 0
2, 303417, Note_on_c, 0, 78, 90
2, 303432, Note_on_c, 0, 75, 0
2, 303472, Note_on_c, 0, 78, 0
2, 303509, Note_on_c, 0, 81, 82
2, 303610, Note_on_c, 0, 84, 89
2, 303613, Note_on_c, 0, 81, 0
2, 303720, Note_on_c, 0, 87, 91
2, 303732, Note_on_c, 0, 84, 0
2, 303843, Note_on_c, 0, 90, 83
2, 303855, Note_on_c, 0, 87, 0
2, 303877, Note_on_c, 0, 52, 0
2, 303916, Note_on_c, 0, 90, 0
2, 303968, Note_on_c, 0, 96, 87
2, 303981, Note_on_c, 0, 57, 0
2, 304010, Control_c, 0, 64, 63
2, 304010, Note_on_c, 0, 52, 46
2, 304018, Control_c, 0, 64, 0
2, 304031, Control_c, 0, 64, 63
2, 304048, Control_c, 0, 64, 127
2, 304104, Note_on_c, 0, 52, 0
2, 304111, Note_on_c, 0, 96, 0
2, 304121, Note_on_c, 0, 59, 63
2, 304152, Note_on_c, 0, 95, 91
2, 304213, Note_on_c, 0, 66, 43
2, 304308, Note_on_c, 0, 95, 0
2, 304313, Note_on_c, 0, 83, 59
2, 304399, Note_on_c, 0, 83, 0
2, 304450, Note_on_c, 0, 81, 55
2, 304561, Note_on_c, 0, 78, 66
2, 304565, Note_on_c, 0, 81, 0
2, 304625, Note_on_c, 0, 66, 0
2, 304672, Note_on_c, 0, 75, 69
2, 304679, Note_on_c, 0, 78, 0
2, 304763, Note_on_c, 0, 75, 0
2, 304772, Note_on_c, 0, 71, 62
2, 304842, Note_on_c, 0, 71, 0
2, 304875, Note_on_c, 0, 69, 63
2, 304925, Note_on_c, 0, 59, 0
2, 304975, Note_on_c, 0, 66, 69
2, 304978, Note_on_c, 0, 69, 0
2, 305039, Note_on_c, 0, 66, 0
2, 305097, Note_on_c, 0, 63, 68
2, 305211, Note_on_c, 0, 63, 0
2, 305219, Note_on_c, 0, 59, 68
2, 305338, Note_on_c, 0, 59, 0
2, 305371, Note_on_c, 0, 57, 40
2, 305536, Note_on_c, 0, 54, 51
2, 305550, Note_on_c, 0, 57, 0
2, 305716, Note_on_c, 0, 54, 0
2, 305731, Note_on_c, 0, 52, 50
2, 305748, Note_on_c, 0, 40, 52
2, 305782, Control_c, 0, 67, 127
2, 305856, Control_c, 0, 64, 63
2, 305863, Control_c, 0, 64, 0
2, 305929, Control_c, 0, 64, 63
2, 305936, Control_c, 0, 64, 127
2, 305941, Note_on_c, 0, 56, 65
2, 305995, Note_on_c, 0, 40, 0
2, 306035, Note_on_c, 0, 52, 0
2, 306095, Note_on_c, 0, 59, 57
2, 306101, Note_on_c, 0, 56, 0
2, 306232, Note_on_c, 0, 71, 65
2, 306296, Note_on_c, 0, 71, 0
2, 306338, Note_on_c, 0, 59, 0
2, 306353, Note_on_c, 0, 64, 37
2, 306442, Note_on_c, 0, 64, 0
2, 306464, Note_on_c, 0, 59, 65
2, 306596, Note_on_c, 0, 68, 66
2, 306619, Note_on_c, 0, 59, 0
2, 306760, Note_on_c, 0, 52, 48
2, 306771, Note_on_c, 0, 68, 0
2, 306903, Note_on_c, 0, 52, 0
2, 306928, Note_on_c, 0, 71, 65
2, 307046, Note_on_c, 0, 71, 0
2, 307075, Note_on_c, 0, 64, 52
2, 307177, Note_on_c, 0, 59, 49
2, 307222, Note_on_c, 0, 64, 0
2, 307278, Note_on_c, 0, 59, 0
2, 307278, Note_on_c, 0, 40, 43
2, 307335, Note_on_c, 0, 52, 30
2, 307351, Note_on_c, 0, 40, 0
2, 307406, Note_on_c, 0, 52, 0
2, 307419, Note_on_c, 0, 56, 63
2, 307500, Note_on_c, 0, 56, 0
2, 307516, Note_on_c, 0, 59, 50
2, 307629, Note_on_c, 0, 71, 73
2, 307681, Note_on_c, 0, 59, 0
2, 307693, Note_on_c, 0, 71, 0
2, 307743, Note_on_c, 0, 64, 47
2, 307842, Note_on_c, 0, 64, 0
2, 307845, Note_on_c, 0, 59, 63
2, 307954, Note_on_c, 0, 59, 0
2, 307998, Note_on_c, 0, 68, 54
2, 308171, Note_on_c, 0, 52, 44
2, 308183, Note_on_c, 0, 68, 0
2, 308254, Note_on_c, 0, 52, 0
2, 308345, Note_on_c, 0, 71, 49
2, 308479, Note_on_c, 0, 71, 0
2, 308488, Note_on_c, 0, 64, 35
2, 308610, Note_on_c, 0, 59, 31
2, 308635, Note_on_c, 0, 64, 0
2, 308692, Note_on_c, 0, 59, 0
2, 308737, Note_on_c, 0, 52, 38
2, 308759, Note_on_c, 0, 40, 32
2, 308857, Control_c, 0, 64, 63
2, 308858, Control_c, 0, 64, 127
2, 308882, Note_on_c, 0, 56, 48
2, 308928, Note_on_c, 0, 40, 0
2, 308953, Note_on_c, 0, 52, 0
2, 308994, Note_on_c, 0, 59, 46
2, 308995, Note_on_c, 0, 56, 0
2, 309126, Note_on_c, 0, 71, 40
2, 309217, Note_on_c, 0, 71, 0
2, 309249, Note_on_c, 0, 59, 0
2, 309249, Note_on_c, 0, 64, 54
2, 309342, Note_on_c, 0, 64, 0
2, 309357, Note_on_c, 0, 59, 51
2, 309486, Note_on_c, 0, 68, 42
2, 309612, Note_on_c, 0, 59, 0
2, 309663, Note_on_c, 0, 52, 32
2, 309674, Note_on_c, 0, 68, 0
2, 309850, Note_on_c, 0, 71, 47
2, 309927, Note_on_c, 0, 52, 0
2, 309946, Note_on_c, 0, 71, 0
2, 309974, Note_on_c, 0, 64, 44
2, 310067, Note_on_c, 0, 59, 37
2, 310121, Note_on_c, 0, 64, 0
2, 310205, Note_on_c, 0, 68, 37
2, 310322, Note_on_c, 0, 59, 0
2, 310386, Note_on_c, 0, 52, 25
2, 310582, Note_on_c, 0, 71, 32
2, 310613, Note_on_c, 0, 68, 0
2, 310717, Note_on_c, 0, 71, 0
2, 310744, Note_on_c, 0, 64, 25
2, 310853, Note_on_c, 0, 59, 25
2, 310986, Note_on_c, 0, 52, 0
2, 310989, Note_on_c, 0, 68, 39
2, 311178, Note_on_c, 0, 52, 18
2, 311217, Note_on_c, 0, 59, 0
2, 311236, Note_on_c, 0, 52, 0
2, 311401, Note_on_c, 0, 64, 0
2, 311401, Note_on_c, 0, 71, 32
2, 311433, Note_on_c, 0, 68, 0
2, 311508, Note_on_c, 0, 71, 0
2, 311553, Note_on_c, 0, 64, 30
2, 311677, Note_on_c, 0, 59, 35
2, 311862, Note_on_c, 0, 68, 42
2, 311884, Note_on_c, 0, 59, 0
2, 311914, Note_on_c, 0, 64, 0
2, 311983, Note_on_c, 0, 68, 0
2, 312414, Note_on_c, 0, 73, 44
2, 312491, Note_on_c, 0, 73, 0
2, 312885, Note_on_c, 0, 71, 36
2, 313297, Note_on_c, 0, 71, 0
2, 313345, Note_on_c, 0, 52, 22
2, 313463, Note_on_c, 0, 52, 0
2, 313512, Note_on_c, 0, 64, 26
2, 313669, Note_on_c, 0, 59, 30
2, 313829, Note_on_c, 0, 68, 32
2, 313920, Note_on_c, 0, 68, 0
2, 313934, Note_on_c, 0, 59, 0
2, 314072, Note_on_c, 0, 64, 0
2, 314406, Note_on_c, 0, 73, 27
2, 314730, Note_on_c, 0, 73, 0
2, 315010, Note_on_c, 0, 71, 26
2, 315308, Note_on_c, 0, 71, 0
2, 315760, Note_on_c, 0, 52, 25
2, 315886, Note_on_c, 0, 52, 0
2, 316024, Note_on_c, 0, 64, 16
2, 316318, Note_on_c, 0, 59, 22
2, 316390, Note_on_c, 0, 64, 0
2, 316414, Note_on_c, 0, 59, 0
2, 316884, Note_on_c, 0, 40, 17
2, 316910, Note_on_c, 0, 92, 39
2, 316983, Note_on_c, 0, 92, 0
2, 317993, Note_on_c, 0, 40, 0
2, 318556, Control_c, 0, 64, 63
2, 318573, Control_c, 0, 64, 0
2, 319680, End_track
3, 0, Start_track
3, 0, Title_t, "Timpani"
3, 0, MIDI_port, 0
3, 0, Control_c, 1, 121, 0
3, 80, Control_c, 1, 101, 0
3, 100, Control_c, 1, 100, 0
3, 120, Control_c, 1, 6, 12
3, 140, Control_c, 1, 10, 64
3, 160, Control_c, 1, 7, 100
3, 180, Control_c, 1, 0, 0
3, 200, Program_c, 1, 47
3, 220, Control_c, 1, 91, 120
3, 240, Control_c, 1, 93, 0
3, 260, Control_c, 1, 1, 12
3, 280, Control_c, 1, 11, 80
3, 300, Pitch_bend_c, 1, 8192
3, 320, Control_c, 1, 99, 1
3, 340, Control_c, 1, 98, 32
3, 360, Control_c, 1, 6, 64
3, 380, Control_c, 1, 98, 33
3, 400, Control_c, 1, 6, 54
3, 420, Control_c, 1, 98, 99
3, 440, Control_c, 1, 6, 64
3, 460, Control_c, 1, 98, 100
3, 480, Control_c, 1, 6, 64
3, 500, Control_c, 1, 98, 102
3, 705, Control_c, 1, 6, 66
3, 319680, End_track
4, 0, Start_track
4, 0, Title_t, "Violini I"
4, 0, MIDI_port, 0
4, 100, Control_c, 2, 0, 0
4, 120, Control_c, 2, 32, 0
4, 140, Program_c, 2, 49
4, 160, Control_c, 2, 10, 19
4, 180, Control_c, 2, 7, 120
4, 200, Control_c, 2, 11, 100
4, 220, Control_c, 2, 1, 19
4, 240, Control_c, 2, 91, 60
4, 260, Control_c, 2, 93, 38
4, 280, Control_c, 2, 101, 0
4, 300, Control_c, 2, 100, 0
4, 320, Control_c, 2, 6, 12
4, 340, Pitch_bend_c, 2, 8208
4, 360, Control_c, 2, 99, 1
4, 380, Control_c, 2, 98, 32
4, 400, Control_c, 2, 6, 62
4, 420, Control_c, 2, 98, 33
4, 440, Control_c, 2, 6, 60
4, 460, Control_c, 2, 98, 99
4, 480, Control_c, 2, 6, 57
4, 500, Control_c, 2, 98, 100
4, 520, Control_c, 2, 6, 64
4, 540, Control_c, 2, 98, 102
4, 560, Control_c, 2, 6, 66
4, 580, Control_c, 2, 99, 1
4, 600, Control_c, 2, 98, 8
4, 620, Control_c, 2, 6, 90
4, 640, Control_c, 2, 98, 9
4, 660, Control_c, 2, 6, 50
4, 680, Control_c, 2, 98, 10
4, 705, Control_c, 2, 6, 70
4, 1773, Control_c, 2, 67, 127
4, 2017, Control_c, 2, 11, 0
4, 2017, Note_on_c, 2, 64, 24
4, 2022, Control_c, 2, 11, 6
4, 2027, Control_c, 2, 11, 9
4, 2032, Control_c, 2, 11, 13
4, 2037, Control_c, 2, 11, 16
4, 2042, Control_c, 2, 11, 19
4, 2047, Control_c, 2, 11, 23
4, 2052, Control_c, 2, 11, 25
4, 2057, Control_c, 2, 11, 27
4, 2062, Control_c, 2, 11, 30
4, 2067, Control_c, 2, 11, 32
4, 2072, Control_c, 2, 11, 34
4, 2077, Control_c, 2, 11, 36
4, 2082, Control_c, 2, 11, 38
4, 2087, Control_c, 2, 11, 39
4, 2092, Control_c, 2, 11, 41
4, 2097, Control_c, 2, 11, 42
4, 2102, Control_c, 2, 11, 43
4, 2107, Control_c, 2, 11, 45
4, 2117, Control_c, 2, 11, 47
4, 2122, Control_c, 2, 11, 48
4, 2127, Control_c, 2, 11, 49
4, 2137, Control_c, 2, 11, 50
4, 2142, Control_c, 2, 11, 51
4, 2147, Control_c, 2, 11, 52
4, 2157, Control_c, 2, 11, 53
4, 2167, Control_c, 2, 11, 54
4, 2177, Control_c, 2, 11, 55
4, 2187, Control_c, 2, 11, 56
4, 2202, Control_c, 2, 11, 57
4, 2222, Control_c, 2, 11, 58
4, 2247, Control_c, 2, 11, 59
4, 2292, Control_c, 2, 11, 60
4, 2407, Control_c, 2, 11, 61
4, 2522, Control_c, 2, 11, 62
4, 2637, Control_c, 2, 11, 63
4, 2747, Control_c, 2, 11, 64
4, 2862, Control_c, 2, 11, 65
4, 2977, Control_c, 2, 11, 66
4, 3041, Note_on_c, 2, 66, 28
4, 3087, Control_c, 2, 11, 67
4, 3154, Note_on_c, 2, 64, 0
4, 3202, Control_c, 2, 11, 68
4, 3317, Control_c, 2, 11, 69
4, 3348, Note_on_c, 2, 68, 32
4, 3403, Note_on_c, 2, 66, 0
4, 3427, Control_c, 2, 11, 70
4, 3542, Control_c, 2, 11, 71
4, 3657, Control_c, 2, 11, 72
4, 3767, Control_c, 2, 11, 73
4, 3882, Control_c, 2, 11, 74
4, 3948, Note_on_c, 2, 69, 38
4, 3997, Control_c, 2, 11, 75
4, 4001, Note_on_c, 2, 68, 0
4, 4107, Control_c, 2, 11, 76
4, 4222, Control_c, 2, 11, 77
4, 4337, Control_c, 2, 11, 78
4, 4447, Control_c, 2, 11, 79
4, 4499, Note_on_c, 2, 71, 32
4, 4560, Control_c, 2, 11, 80
4, 4563, Note_on_c, 2, 69, 0
4, 4705, Note_on_c, 2, 73, 34
4, 4759, Note_on_c, 2, 71, 0
4, 6325, Note_on_c, 2, 71, 38
4, 6380, Note_on_c, 2, 73, 0
4, 6628, Note_on_c, 2, 73, 43
4, 6667, Note_on_c, 2, 71, 0
4, 6927, Note_on_c, 2, 71, 46
4, 6945, Note_on_c, 2, 73, 0
4, 7283, Control_c, 2, 11, 80
4, 7283, Note_on_c, 2, 69, 48
4, 7333, Control_c, 2, 11, 79
4, 7336, Note_on_c, 2, 71, 0
4, 7378, Control_c, 2, 11, 78
4, 7423, Control_c, 2, 11, 77
4, 7468, Control_c, 2, 11, 76
4, 7513, Control_c, 2, 11, 75
4, 7558, Control_c, 2, 11, 74
4, 7603, Control_c, 2, 11, 73
4, 7648, Control_c, 2, 11, 72
4, 7693, Control_c, 2, 11, 71
4, 7738, Control_c, 2, 11, 70
4, 7783, Control_c, 2, 11, 69
4, 7828, Control_c, 2, 11, 68
4, 7873, Control_c, 2, 11, 67
4, 7918, Control_c, 2, 11, 66
4, 7963, Control_c, 2, 11, 65
4, 8008, Control_c, 2, 11, 64
4, 8053, Control_c, 2, 11, 63
4, 8098, Control_c, 2, 11, 62
4, 8143, Control_c, 2, 11, 61
4, 8188, Control_c, 2, 11, 60
4, 8233, Control_c, 2, 11, 59
4, 8278, Control_c, 2, 11, 58
4, 8323, Control_c, 2, 11, 57
4, 8368, Control_c, 2, 11, 56
4, 8413, Control_c, 2, 11, 55
4, 8463, Control_c, 2, 11, 54
4, 8508, Control_c, 2, 11, 53
4, 8553, Control_c, 2, 11, 52
4, 8598, Control_c, 2, 11, 51
4, 8640, Control_c, 2, 11, 50
4, 10080, Control_c, 2, 11, 50
4, 10140, Control_c, 2, 11, 51
4, 10200, Control_c, 2, 11, 52
4, 10255, Control_c, 2, 11, 53
4, 10315, Control_c, 2, 11, 54
4, 10370, Control_c, 2, 11, 55
4, 10430, Control_c, 2, 11, 56
4, 10485, Control_c, 2, 11, 57
4, 10545, Control_c, 2, 11, 58
4, 10600, Control_c, 2, 11, 59
4, 10660, Control_c, 2, 11, 60
4, 10715, Control_c, 2, 11, 61
4, 10775, Control_c, 2, 11, 62
4, 10830, Control_c, 2, 11, 63
4, 10890, Control_c, 2, 11, 64
4, 10945, Control_c, 2, 11, 65
4, 11005, Control_c, 2, 11, 66
4, 11060, Control_c, 2, 11, 67
4, 11120, Control_c, 2, 11, 68
4, 11175, Control_c, 2, 11, 69
4, 11235, Control_c, 2, 11, 70
4, 11290, Control_c, 2, 11, 71
4, 11350, Control_c, 2, 11, 72
4, 11405, Control_c, 2, 11, 73
4, 11465, Control_c, 2, 11, 74
4, 11520, Control_c, 2, 11, 75
4, 11580, Control_c, 2, 11, 76
4, 11635, Control_c, 2, 11, 77
4, 11695, Control_c, 2, 11, 78
4, 11750, Control_c, 2, 11, 79
4, 11807, Control_c, 2, 11, 80
4, 11807, Note_on_c, 2, 68, 44
4, 11888, Note_on_c, 2, 69, 0
4, 12146, Note_on_c, 2, 69, 38
4, 12184, Note_on_c, 2, 68, 0
4, 12481, Note_on_c, 2, 68, 34
4, 12528, Note_on_c, 2, 69, 0
4, 12720, Note_on_c, 2, 68, 0
4, 12720, Note_on_c, 2, 68, 39
4, 12835, Note_on_c, 2, 66, 30
4, 12899, Note_on_c, 2, 68, 0
4, 13604, Note_on_c, 2, 64, 28
4, 13629, Note_on_c, 2, 66, 0
4, 13680, Control_c, 2, 11, 80
4, 13860, Control_c, 2, 11, 79
4, 13935, Control_c, 2, 11, 78
4, 13985, Control_c, 2, 11, 77
4, 14015, Control_c, 2, 11, 76
4, 14040, Control_c, 2, 11, 75
4, 14075, Control_c, 2, 11, 74
4, 14090, Control_c, 2, 11, 73
4, 14105, Control_c, 2, 11, 72
4, 14120, Control_c, 2, 11, 71
4, 14130, Control_c, 2, 11, 70
4, 14150, Control_c, 2, 11, 69
4, 14160, Control_c, 2, 11, 68
4, 14170, Control_c, 2, 11, 67
4, 14175, Control_c, 2, 11, 66
4, 14185, Control_c, 2, 11, 65
4, 14195, Control_c, 2, 11, 64
4, 14205, Control_c, 2, 11, 63
4, 14210, Control_c, 2, 11, 62
4, 14215, Control_c, 2, 11, 61
4, 14220, Control_c, 2, 11, 60
4, 14230, Control_c, 2, 11, 59
4, 14235, Control_c, 2, 11, 58
4, 14240, Control_c, 2, 11, 57
4, 14245, Control_c, 2, 11, 56
4, 14255, Control_c, 2, 11, 55
4, 14260, Control_c, 2, 11, 54
4, 14265, Control_c, 2, 11, 52
4, 14270, Control_c, 2, 11, 51
4, 14275, Control_c, 2, 11, 50
4, 14280, Control_c, 2, 11, 49
4, 14285, Control_c, 2, 11, 48
4, 14290, Control_c, 2, 11, 46
4, 14295, Control_c, 2, 11, 45
4, 14300, Control_c, 2, 11, 44
4, 14305, Control_c, 2, 11, 42
4, 14310, Control_c, 2, 11, 40
4, 14315, Control_c, 2, 11, 39
4, 14320, Control_c, 2, 11, 38
4, 14325, Control_c, 2, 11, 36
4, 14330, Control_c, 2, 11, 34
4, 14335, Control_c, 2, 11, 32
4, 14340, Control_c, 2, 11, 31
4, 14345, Control_c, 2, 11, 29
4, 14350, Control_c, 2, 11, 26
4, 14355, Control_c, 2, 11, 24
4, 14360, Control_c, 2, 11, 21
4, 14365, Control_c, 2, 11, 20
4, 14366, Note_on_c, 2, 64, 0
4, 14370, Control_c, 2, 11, 18
4, 14375, Control_c, 2, 11, 15
4, 14380, Control_c, 2, 11, 12
4, 14385, Control_c, 2, 11, 9
4, 14390, Control_c, 2, 11, 7
4, 14395, Control_c, 2, 11, 4
4, 14400, Control_c, 2, 11, 0
4, 15876, Control_c, 2, 11, 51
4, 15876, Note_on_c, 2, 61, 18
4, 15976, Control_c, 2, 11, 52
4, 16076, Control_c, 2, 11, 53
4, 16171, Control_c, 2, 11, 54
4, 16271, Control_c, 2, 11, 55
4, 16371, Control_c, 2, 11, 56
4, 16466, Control_c, 2, 11, 57
4, 16566, Control_c, 2, 11, 58
4, 16661, Control_c, 2, 11, 59
4, 16761, Control_c, 2, 11, 60
4, 16861, Control_c, 2, 11, 61
4, 16956, Control_c, 2, 11, 62
4, 16967, Note_on_c, 2, 63, 24
4, 17029, Note_on_c, 2, 61, 0
4, 17056, Control_c, 2, 11, 63
4, 17151, Control_c, 2, 11, 64
4, 17251, Control_c, 2, 11, 65
4, 17351, Control_c, 2, 11, 66
4, 17357, Note_on_c, 2, 64, 27
4, 17393, Note_on_c, 2, 63, 0
4, 17446, Control_c, 2, 11, 67
4, 17546, Control_c, 2, 11, 68
4, 17641, Control_c, 2, 11, 69
4, 17741, Control_c, 2, 11, 70
4, 17841, Control_c, 2, 11, 71
4, 17936, Control_c, 2, 11, 72
4, 17951, Note_on_c, 2, 66, 29
4, 18002, Note_on_c, 2, 64, 0
4, 18036, Control_c, 2, 11, 73
4, 18131, Control_c, 2, 11, 74
4, 18231, Control_c, 2, 11, 75
4, 18331, Control_c, 2, 11, 76
4, 18426, Control_c, 2, 11, 77
4, 18485, Note_on_c, 2, 68, 32
4, 18512, Note_on_c, 2, 66, 0
4, 18526, Control_c, 2, 11, 78
4, 18621, Control_c, 2, 11, 79
4, 18688, Note_on_c, 2, 69, 29
4, 18708, Note_on_c, 2, 68, 0
4, 18720, Control_c, 2, 11, 80
4, 20586, Note_on_c, 2, 68, 32
4, 20660, Note_on_c, 2, 69, 0
4, 20870, Note_on_c, 2, 69, 34
4, 20893, Note_on_c, 2, 68, 0
4, 21151, Note_on_c, 2, 68, 37
4, 21239, Note_on_c, 2, 69, 0
4, 21495, Control_c, 2, 11, 80
4, 21495, Note_on_c, 2, 66, 37
4, 21540, Control_c, 2, 11, 79
4, 21556, Note_on_c, 2, 68, 0
4, 21585, Control_c, 2, 11, 78
4, 21630, Control_c, 2, 11, 77
4, 21670, Control_c, 2, 11, 76
4, 21715, Control_c, 2, 11, 75
4, 21760, Control_c, 2, 11, 74
4, 21800, Control_c, 2, 11, 73
4, 21845, Control_c, 2, 11, 72
4, 21890, Control_c, 2, 11, 71
4, 21930, Control_c, 2, 11, 70
4, 21975, Control_c, 2, 11, 69
4, 22020, Control_c, 2, 11, 68
4, 22065, Control_c, 2, 11, 67
4, 22105, Control_c, 2, 11, 66
4, 22150, Control_c, 2, 11, 65
4, 22195, Control_c, 2, 11, 64
4, 22235, Control_c, 2, 11, 63
4, 22280, Control_c, 2, 11, 62
4, 22325, Control_c, 2, 11, 61
4, 22365, Control_c, 2, 11, 60
4, 22410, Control_c, 2, 11, 59
4, 22455, Control_c, 2, 11, 58
4, 22495, Control_c, 2, 11, 57
4, 22540, Control_c, 2, 11, 56
4, 22585, Control_c, 2, 11, 55
4, 22630, Control_c, 2, 11, 54
4, 22670, Control_c, 2, 11, 53
4, 22715, Control_c, 2, 11, 52
4, 22760, Control_c, 2, 11, 51
4, 22800, Control_c, 2, 11, 50
4, 24240, Control_c, 2, 11, 50
4, 24305, Control_c, 2, 11, 51
4, 24365, Control_c, 2, 11, 52
4, 24425, Control_c, 2, 11, 53
4, 24485, Control_c, 2, 11, 54
4, 24545, Control_c, 2, 11, 55
4, 24605, Control_c, 2, 11, 56
4, 24665, Control_c, 2, 11, 57
4, 24725, Control_c, 2, 11, 58
4, 24785, Control_c, 2, 11, 59
4, 24845, Control_c, 2, 11, 60
4, 24905, Control_c, 2, 11, 61
4, 24965, Control_c, 2, 11, 62
4, 25025, Control_c, 2, 11, 63
4, 25085, Control_c, 2, 11, 64
4, 25145, Control_c, 2, 11, 65
4, 25205, Control_c, 2, 11, 66
4, 25265, Control_c, 2, 11, 67
4, 25325, Control_c, 2, 11, 68
4, 25390, Control_c, 2, 11, 69
4, 25450, Control_c, 2, 11, 70
4, 25510, Control_c, 2, 11, 71
4, 25570, Control_c, 2, 11, 72
4, 25630, Control_c, 2, 11, 73
4, 25690, Control_c, 2, 11, 74
4, 25750, Control_c, 2, 11, 75
4, 25810, Control_c, 2, 11, 76
4, 25870, Control_c, 2, 11, 77
4, 25930, Control_c, 2, 11, 78
4, 25990, Control_c, 2, 11, 79
4, 26049, Control_c, 2, 11, 80
4, 26049, Note_on_c, 2, 64, 33
4, 26106, Note_on_c, 2, 66, 0
4, 26370, Note_on_c, 2, 66, 31
4, 26426, Note_on_c, 2, 64, 0
4, 26666, Note_on_c, 2, 66, 0
4, 26667, Note_on_c, 2, 64, 29
4, 26894, Note_on_c, 2, 64, 0
4, 26954, Note_on_c, 2, 64, 33
4, 27080, Note_on_c, 2, 63, 26
4, 27120, Note_on_c, 2, 64, 0
4, 27895, Note_on_c, 2, 63, 0
4, 27902, Note_on_c, 2, 61, 22
4, 28080, Control_c, 2, 11, 80
4, 28200, Control_c, 2, 11, 79
4, 28250, Control_c, 2, 11, 78
4, 28285, Control_c, 2, 11, 77
4, 28305, Control_c, 2, 11, 76
4, 28320, Control_c, 2, 11, 75
4, 28345, Control_c, 2, 11, 74
4, 28355, Control_c, 2, 11, 73
4, 28365, Control_c, 2, 11, 72
4, 28375, Control_c, 2, 11, 71
4, 28380, Control_c, 2, 11, 70
4, 28395, Control_c, 2, 11, 69
4, 28400, Control_c, 2, 11, 68
4, 28405, Control_c, 2, 11, 67
4, 28410, Control_c, 2, 11, 66
4, 28415, Control_c, 2, 11, 65
4, 28425, Control_c, 2, 11, 64
4, 28430, Control_c, 2, 11, 63
4, 28435, Control_c, 2, 11, 62
4, 28440, Control_c, 2, 11, 60
4, 28445, Control_c, 2, 11, 59
4, 28450, Control_c, 2, 11, 58
4, 28455, Control_c, 2, 11, 57
4, 28460, Control_c, 2, 11, 55
4, 28465, Control_c, 2, 11, 54
4, 28470, Control_c, 2, 11, 52
4, 28475, Control_c, 2, 11, 50
4, 28480, Control_c, 2, 11, 49
4, 28485, Control_c, 2, 11, 47
4, 28490, Control_c, 2, 11, 45
4, 28495, Control_c, 2, 11, 43
4, 28500, Control_c, 2, 11, 40
4, 28505, Control_c, 2, 11, 38
4, 28510, Control_c, 2, 11, 36
4, 28515, Control_c, 2, 11, 33
4, 28520, Control_c, 2, 11, 30
4, 28525, Control_c, 2, 11, 28
4, 28530, Control_c, 2, 11, 24
4, 28535, Control_c, 2, 11, 20
4, 28540, Control_c, 2, 11, 18
4, 28545, Control_c, 2, 11, 13
4, 28550, Control_c, 2, 11, 9
4, 28555, Control_c, 2, 11, 6
4, 28560, Control_c, 2, 11, 0
4, 28693, Note_on_c, 2, 61, 0
4, 30221, Control_c, 2, 11, 15
4, 30221, Note_on_c, 2, 61, 43
4, 30226, Control_c, 2, 11, 18
4, 30231, Control_c, 2, 11, 20
4, 30236, Control_c, 2, 11, 21
4, 30241, Control_c, 2, 11, 23
4, 30246, Control_c, 2, 11, 24
4, 30251, Control_c, 2, 11, 26
4, 30256, Control_c, 2, 11, 27
4, 30261, Control_c, 2, 11, 28
4, 30266, Control_c, 2, 11, 29
4, 30271, Control_c, 2, 11, 31
4, 30281, Control_c, 2, 11, 33
4, 30291, Control_c, 2, 11, 35
4, 30301, Control_c, 2, 11, 36
4, 30306, Control_c, 2, 11, 37
4, 30311, Control_c, 2, 11, 38
4, 30321, Control_c, 2, 11, 39
4, 30331, Control_c, 2, 11, 40
4, 30336, Control_c, 2, 11, 41
4, 30346, Control_c, 2, 11, 42
4, 30356, Control_c, 2, 11, 43
4, 30371, Control_c, 2, 11, 44
4, 30386, Control_c, 2, 11, 45
4, 30401, Control_c, 2, 11, 46
4, 30421, Control_c, 2, 11, 47
4, 30451, Control_c, 2, 11, 48
4, 30481, Control_c, 2, 11, 49
4, 30541, Control_c, 2, 11, 50
4, 30561, Control_c, 2, 11, 51
4, 30581, Control_c, 2, 11, 52
4, 30601, Control_c, 2, 11, 53
4, 30621, Control_c, 2, 11, 54
4, 30636, Control_c, 2, 11, 55
4, 30656, Control_c, 2, 11, 56
4, 30676, Control_c, 2, 11, 57
4, 30696, Control_c, 2, 11, 58
4, 30716, Control_c, 2, 11, 59
4, 30731, Control_c, 2, 11, 60
4, 30751, Control_c, 2, 11, 61
4, 30771, Control_c, 2, 11, 62
4, 30791, Control_c, 2, 11, 63
4, 30811, Control_c, 2, 11, 64
4, 30826, Control_c, 2, 11, 65
4, 30846, Control_c, 2, 11, 66
4, 30866, Control_c, 2, 11, 67
4, 30886, Control_c, 2, 11, 68
4, 30906, Control_c, 2, 11, 69
4, 30921, Control_c, 2, 11, 70
4, 30941, Control_c, 2, 11, 71
4, 30961, Control_c, 2, 11, 72
4, 30981, Control_c, 2, 11, 73
4, 31001, Control_c, 2, 11, 74
4, 31016, Control_c, 2, 11, 75
4, 31036, Control_c, 2, 11, 76
4, 31056, Control_c, 2, 11, 77
4, 31076, Control_c, 2, 11, 78
4, 31096, Control_c, 2, 11, 79
4, 31111, Control_c, 2, 11, 80
4, 31131, Control_c, 2, 11, 81
4, 31151, Control_c, 2, 11, 82
4, 31171, Control_c, 2, 11, 83
4, 31186, Control_c, 2, 11, 84
4, 31206, Control_c, 2, 11, 85
4, 31226, Control_c, 2, 11, 86
4, 31246, Control_c, 2, 11, 87
4, 31266, Control_c, 2, 11, 88
4, 31281, Control_c, 2, 11, 89
4, 31301, Control_c, 2, 11, 90
4, 31321, Control_c, 2, 11, 91
4, 31341, Control_c, 2, 11, 92
4, 31361, Control_c, 2, 11, 93
4, 31376, Control_c, 2, 11, 94
4, 31396, Control_c, 2, 11, 95
4, 31416, Control_c, 2, 11, 96
4, 31436, Control_c, 2, 11, 97
4, 31456, Control_c, 2, 11, 98
4, 31471, Control_c, 2, 11, 99
4, 31491, Control_c, 2, 11, 100
4, 31511, Control_c, 2, 11, 101
4, 31531, Control_c, 2, 11, 102
4, 31551, Control_c, 2, 11, 103
4, 31566, Control_c, 2, 11, 104
4, 31586, Control_c, 2, 11, 105
4, 31606, Control_c, 2, 11, 106
4, 31626, Control_c, 2, 11, 107
4, 31646, Control_c, 2, 11, 108
4, 31661, Control_c, 2, 11, 109
4, 31680, Control_c, 2, 11, 110
4, 31680, Control_c, 2, 11, 110
4, 31712, Control_c, 2, 11, 109
4, 31744, Control_c, 2, 11, 108
4, 31776, Control_c, 2, 11, 107
4, 31808, Control_c, 2, 11, 106
4, 31840, Control_c, 2, 11, 105
4, 31872, Control_c, 2, 11, 104
4, 31904, Control_c, 2, 11, 103
4, 31936, Control_c, 2, 11, 102
4, 31968, Control_c, 2, 11, 101
4, 32000, Control_c, 2, 11, 100
4, 32032, Control_c, 2, 11, 99
4, 32064, Control_c, 2, 11, 98
4, 32096, Control_c, 2, 11, 97
4, 32128, Control_c, 2, 11, 96
4, 32160, Control_c, 2, 11, 95
4, 32192, Control_c, 2, 11, 94
4, 32224, Control_c, 2, 11, 93
4, 32256, Control_c, 2, 11, 92
4, 32288, Control_c, 2, 11, 91
4, 32320, Control_c, 2, 11, 90
4, 32352, Control_c, 2, 11, 89
4, 32384, Control_c, 2, 11, 88
4, 32410, Note_on_c, 2, 63, 35
4, 32416, Control_c, 2, 11, 87
4, 32448, Control_c, 2, 11, 86
4, 32480, Control_c, 2, 11, 85
4, 32499, Note_on_c, 2, 61, 0
4, 32512, Control_c, 2, 11, 84
4, 32544, Control_c, 2, 11, 83
4, 32576, Control_c, 2, 11, 82
4, 32608, Control_c, 2, 11, 81
4, 32639, Control_c, 2, 11, 80
4, 33600, Control_c, 2, 11, 80
4, 33780, Control_c, 2, 11, 79
4, 33855, Control_c, 2, 11, 78
4, 33905, Control_c, 2, 11, 77
4, 33935, Control_c, 2, 11, 76
4, 33960, Control_c, 2, 11, 75
4, 33995, Control_c, 2, 11, 74
4, 34010, Control_c, 2, 11, 73
4, 34025, Control_c, 2, 11, 72
4, 34040, Control_c, 2, 11, 71
4, 34050, Control_c, 2, 11, 70
4, 34070, Control_c, 2, 11, 69
4, 34080, Control_c, 2, 11, 68
4, 34090, Control_c, 2, 11, 67
4, 34095, Control_c, 2, 11, 66
4, 34105, Control_c, 2, 11, 65
4, 34115, Control_c, 2, 11, 64
4, 34125, Control_c, 2, 11, 63
4, 34130, Control_c, 2, 11, 62
4, 34135, Control_c, 2, 11, 61
4, 34140, Control_c, 2, 11, 60
4, 34150, Control_c, 2, 11, 59
4, 34155, Control_c, 2, 11, 58
4, 34160, Control_c, 2, 11, 57
4, 34165, Control_c, 2, 11, 56
4, 34175, Control_c, 2, 11, 55
4, 34180, Control_c, 2, 11, 54
4, 34185, Control_c, 2, 11, 52
4, 34190, Control_c, 2, 11, 51
4, 34195, Control_c, 2, 11, 50
4, 34200, Control_c, 2, 11, 49
4, 34205, Control_c, 2, 11, 48
4, 34210, Control_c, 2, 11, 46
4, 34215, Control_c, 2, 11, 45
4, 34220, Control_c, 2, 11, 44
4, 34225, Control_c, 2, 11, 42
4, 34230, Control_c, 2, 11, 40
4, 34235, Control_c, 2, 11, 39
4, 34240, Control_c, 2, 11, 38
4, 34245, Control_c, 2, 11, 36
4, 34250, Control_c, 2, 11, 34
4, 34255, Control_c, 2, 11, 32
4, 34260, Control_c, 2, 11, 31
4, 34265, Control_c, 2, 11, 29
4, 34270, Control_c, 2, 11, 26
4, 34275, Control_c, 2, 11, 24
4, 34280, Control_c, 2, 11, 21
4, 34285, Control_c, 2, 11, 20
4, 34290, Control_c, 2, 11, 18
4, 34295, Control_c, 2, 11, 15
4, 34300, Control_c, 2, 11, 12
4, 34305, Control_c, 2, 11, 9
4, 34310, Control_c, 2, 11, 7
4, 34315, Control_c, 2, 11, 4
4, 34320, Control_c, 2, 11, 0
4, 34527, Note_on_c, 2, 63, 0
4, 56347, Control_c, 2, 11, 80
4, 56347, Note_on_c, 2, 68, 35
4, 56367, Control_c, 2, 11, 81
4, 56386, Control_c, 2, 11, 82
4, 56405, Control_c, 2, 11, 83
4, 56425, Control_c, 2, 11, 84
4, 56444, Control_c, 2, 11, 85
4, 56463, Control_c, 2, 11, 86
4, 56483, Control_c, 2, 11, 87
4, 56502, Control_c, 2, 11, 88
4, 56521, Control_c, 2, 11, 89
4, 56540, Control_c, 2, 11, 90
4, 56560, Control_c, 2, 11, 91
4, 56579, Control_c, 2, 11, 92
4, 56598, Control_c, 2, 11, 93
4, 56618, Control_c, 2, 11, 94
4, 56621, Note_on_c, 2, 70, 38
4, 56637, Control_c, 2, 11, 95
4, 56646, Note_on_c, 2, 68, 0
4, 56656, Control_c, 2, 11, 96
4, 56676, Control_c, 2, 11, 97
4, 56695, Control_c, 2, 11, 98
4, 56714, Control_c, 2, 11, 99
4, 56733, Control_c, 2, 11, 100
4, 56753, Control_c, 2, 11, 101
4, 56772, Control_c, 2, 11, 102
4, 56791, Control_c, 2, 11, 103
4, 56811, Control_c, 2, 11, 104
4, 56830, Control_c, 2, 11, 105
4, 56849, Control_c, 2, 11, 106
4, 56869, Control_c, 2, 11, 107
4, 56888, Control_c, 2, 11, 108
4, 56900, Note_on_c, 2, 71, 44
4, 56907, Control_c, 2, 11, 109
4, 56926, Control_c, 2, 11, 110
4, 56936, Note_on_c, 2, 70, 0
4, 56946, Control_c, 2, 11, 111
4, 56965, Control_c, 2, 11, 112
4, 56984, Control_c, 2, 11, 113
4, 57004, Control_c, 2, 11, 114
4, 57023, Control_c, 2, 11, 115
4, 57042, Control_c, 2, 11, 116
4, 57062, Control_c, 2, 11, 117
4, 57081, Control_c, 2, 11, 118
4, 57100, Control_c, 2, 11, 119
4, 57119, Control_c, 2, 11, 120
4, 57144, Control_c, 2, 11, 119
4, 57168, Control_c, 2, 11, 118
4, 57193, Control_c, 2, 11, 117
4, 57217, Control_c, 2, 11, 116
4, 57241, Control_c, 2, 11, 115
4, 57266, Control_c, 2, 11, 114
4, 57290, Control_c, 2, 11, 113
4, 57314, Control_c, 2, 11, 112
4, 57339, Control_c, 2, 11, 111
4, 57363, Control_c, 2, 11, 110
4, 57387, Control_c, 2, 11, 109
4, 57412, Control_c, 2, 11, 108
4, 57436, Control_c, 2, 11, 107
4, 57454, Note_on_c, 2, 64, 40
4, 57460, Control_c, 2, 11, 106
4, 57485, Control_c, 2, 11, 105
4, 57509, Control_c, 2, 11, 104
4, 57510, Note_on_c, 2, 71, 0
4, 57533, Control_c, 2, 11, 103
4, 57558, Control_c, 2, 11, 102
4, 57582, Control_c, 2, 11, 101
4, 57606, Control_c, 2, 11, 100
4, 57631, Control_c, 2, 11, 99
4, 57655, Control_c, 2, 11, 98
4, 57680, Control_c, 2, 11, 97
4, 57704, Control_c, 2, 11, 96
4, 57728, Control_c, 2, 11, 95
4, 57753, Control_c, 2, 11, 94
4, 57777, Control_c, 2, 11, 93
4, 57801, Control_c, 2, 11, 92
4, 57826, Control_c, 2, 11, 91
4, 57850, Control_c, 2, 11, 90
4, 57874, Control_c, 2, 11, 89
4, 57899, Control_c, 2, 11, 88
4, 57923, Control_c, 2, 11, 87
4, 57947, Control_c, 2, 11, 86
4, 57972, Control_c, 2, 11, 85
4, 57996, Control_c, 2, 11, 84
4, 58020, Control_c, 2, 11, 83
4, 58045, Control_c, 2, 11, 82
4, 58069, Control_c, 2, 11, 81
4, 58093, Control_c, 2, 11, 80
4, 58094, Note_on_c, 2, 63, 39
4, 58216, Note_on_c, 2, 64, 0
4, 59335, Note_on_c, 2, 71, 44
4, 59357, Note_on_c, 2, 63, 0
4, 61339, Note_on_c, 2, 68, 40
4, 61492, Note_on_c, 2, 71, 0
4, 63489, Note_on_c, 2, 66, 52
4, 63597, Note_on_c, 2, 68, 0
4, 63983, Note_on_c, 2, 64, 48
4, 64055, Note_on_c, 2, 66, 0
4, 64894, Note_on_c, 2, 63, 49
4, 64945, Note_on_c, 2, 64, 0
4, 65317, Note_on_c, 2, 66, 50
4, 65381, Note_on_c, 2, 63, 0
4, 65854, Note_on_c, 2, 63, 45
4, 65991, Note_on_c, 2, 66, 0
4, 66388, Note_on_c, 2, 61, 39
4, 66437, Note_on_c, 2, 63, 0
4, 67012, Note_on_c, 2, 61, 0
4, 68225, Control_c, 2, 11, 40
4, 68225, Note_on_c, 2, 68, 71
4, 68306, Control_c, 2, 11, 41
4, 68386, Control_c, 2, 11, 42
4, 68467, Control_c, 2, 11, 43
4, 68547, Control_c, 2, 11, 44
4, 68628, Control_c, 2, 11, 45
4, 68708, Control_c, 2, 11, 46
4, 68789, Control_c, 2, 11, 47
4, 68869, Control_c, 2, 11, 48
4, 68950, Control_c, 2, 11, 49
4, 69030, Control_c, 2, 11, 50
4, 69110, Control_c, 2, 11, 51
4, 69191, Control_c, 2, 11, 52
4, 69271, Control_c, 2, 11, 53
4, 69352, Control_c, 2, 11, 54
4, 69432, Control_c, 2, 11, 55
4, 69513, Control_c, 2, 11, 56
4, 69593, Control_c, 2, 11, 57
4, 69674, Control_c, 2, 11, 58
4, 69754, Control_c, 2, 11, 59
4, 69834, Control_c, 2, 11, 60
4, 69915, Control_c, 2, 11, 61
4, 69949, Note_on_c, 2, 71, 76
4, 69991, Note_on_c, 2, 68, 0
4, 69995, Control_c, 2, 11, 62
4, 70076, Control_c, 2, 11, 63
4, 70156, Control_c, 2, 11, 64
4, 70237, Control_c, 2, 11, 65
4, 70317, Control_c, 2, 11, 66
4, 70398, Control_c, 2, 11, 67
4, 70478, Control_c, 2, 11, 68
4, 70559, Control_c, 2, 11, 69
4, 70639, Control_c, 2, 11, 70
4, 70719, Control_c, 2, 11, 71
4, 70800, Control_c, 2, 11, 72
4, 70880, Control_c, 2, 11, 73
4, 70961, Control_c, 2, 11, 74
4, 71041, Control_c, 2, 11, 75
4, 71122, Control_c, 2, 11, 76
4, 71202, Control_c, 2, 11, 77
4, 71283, Control_c, 2, 11, 78
4, 71363, Control_c, 2, 11, 79
4, 71443, Control_c, 2, 11, 80
4, 71444, Note_on_c, 2, 70, 65
4, 71526, Note_on_c, 2, 71, 0
4, 71720, Note_on_c, 2, 68, 57
4, 71770, Note_on_c, 2, 70, 0
4, 72028, Note_on_c, 2, 66, 57
4, 72101, Note_on_c, 2, 68, 0
4, 72278, Note_on_c, 2, 64, 51
4, 72301, Note_on_c, 2, 66, 0
4, 72553, Note_on_c, 2, 63, 48
4, 72662, Note_on_c, 2, 64, 0
4, 72989, Note_on_c, 2, 61, 42
4, 73156, Note_on_c, 2, 63, 0
4, 75625, Note_on_c, 2, 61, 0
4, 77287, Note_on_c, 2, 66, 40
4, 77805, Note_on_c, 2, 63, 43
4, 77877, Note_on_c, 2, 66, 0
4, 78347, Note_on_c, 2, 66, 43
4, 78413, Note_on_c, 2, 63, 0
4, 78836, Note_on_c, 2, 64, 41
4, 78915, Note_on_c, 2, 66, 0
4, 79411, Note_on_c, 2, 64, 0
4, 79459, Note_on_c, 2, 66, 39
4, 79853, Note_on_c, 2, 64, 36
4, 79961, Note_on_c, 2, 66, 0
4, 80361, Note_on_c, 2, 66, 32
4, 80487, Note_on_c, 2, 64, 0
4, 80918, Note_on_c, 2, 66, 0
4, 81476, Note_on_c, 2, 66, 48
4, 81843, Note_on_c, 2, 63, 51
4, 81966, Note_on_c, 2, 66, 0
4, 82343, Note_on_c, 2, 66, 57
4, 82376, Note_on_c, 2, 63, 0
4, 82838, Note_on_c, 2, 64, 47
4, 82950, Note_on_c, 2, 66, 0
4, 83242, Note_on_c, 2, 64, 0
4, 83408, Note_on_c, 2, 66, 55
4, 83805, Note_on_c, 2, 64, 53
4, 83860, Note_on_c, 2, 66, 0
4, 84254, Note_on_c, 2, 66, 50
4, 84369, Note_on_c, 2, 64, 0
4, 84775, Note_on_c, 2, 66, 0
4, 84836, Note_on_c, 2, 66, 56
4, 85931, Note_on_c, 2, 68, 63
4, 86023, Note_on_c, 2, 66, 0
4, 86751, Note_on_c, 2, 70, 71
4, 86886, Note_on_c, 2, 68, 0
4, 87201, Note_on_c, 2, 66, 77
4, 87259, Note_on_c, 2, 70, 0
4, 87652, Note_on_c, 2, 75, 80
4, 87729, Note_on_c, 2, 66, 0
4, 89063, Note_on_c, 2, 73, 61
4, 89142, Note_on_c, 2, 75, 0
4, 90704, Note_on_c, 2, 71, 49
4, 90763, Note_on_c, 2, 73, 0
4, 91410, Note_on_c, 2, 70, 35
4, 91525, Note_on_c, 2, 71, 0
4, 92070, Note_on_c, 2, 70, 0
4, 94216, Note_on_c, 2, 66, 42
4, 94642, Note_on_c, 2, 63, 49
4, 94814, Note_on_c, 2, 66, 0
4, 95054, Note_on_c, 2, 66, 55
4, 95134, Note_on_c, 2, 63, 0
4, 95670, Note_on_c, 2, 64, 50
4, 95735, Note_on_c, 2, 66, 0
4, 96115, Note_on_c, 2, 64, 0
4, 96152, Note_on_c, 2, 66, 44
4, 96646, Note_on_c, 2, 64, 55
4, 96716, Note_on_c, 2, 66, 0
4, 97032, Note_on_c, 2, 66, 52
4, 97113, Note_on_c, 2, 64, 0
4, 97534, Note_on_c, 2, 66, 0
4, 98101, Note_on_c, 2, 66, 58
4, 98538, Note_on_c, 2, 63, 67
4, 98577, Note_on_c, 2, 66, 0
4, 99042, Note_on_c, 2, 66, 60
4, 99124, Note_on_c, 2, 63, 0
4, 99910, Note_on_c, 2, 64, 50
4, 100065, Note_on_c, 2, 66, 0
4, 100302, Note_on_c, 2, 64, 0
4, 100403, Note_on_c, 2, 66, 65
4, 100795, Note_on_c, 2, 64, 54
4, 100839, Note_on_c, 2, 66, 0
4, 101486, Note_on_c, 2, 66, 48
4, 101563, Note_on_c, 2, 64, 0
4, 102195, Note_on_c, 2, 66, 0
4, 102751, Control_c, 2, 11, 50
4, 102751, Note_on_c, 2, 66, 78
4, 102806, Control_c, 2, 11, 51
4, 102861, Control_c, 2, 11, 52
4, 102916, Control_c, 2, 11, 53
4, 102971, Control_c, 2, 11, 54
4, 103026, Control_c, 2, 11, 55
4, 103081, Control_c, 2, 11, 56
4, 103136, Control_c, 2, 11, 57
4, 103191, Control_c, 2, 11, 58
4, 103246, Control_c, 2, 11, 59
4, 103301, Control_c, 2, 11, 60
4, 103356, Control_c, 2, 11, 61
4, 103411, Control_c, 2, 11, 62
4, 103466, Control_c, 2, 11, 63
4, 103521, Control_c, 2, 11, 64
4, 103575, Control_c, 2, 11, 65
4, 103630, Control_c, 2, 11, 66
4, 103685, Control_c, 2, 11, 67
4, 103740, Control_c, 2, 11, 68
4, 103750, Note_on_c, 2, 71, 79
4, 103795, Control_c, 2, 11, 69
4, 103850, Control_c, 2, 11, 70
4, 103868, Note_on_c, 2, 66, 0
4, 103905, Control_c, 2, 11, 71
4, 103960, Control_c, 2, 11, 72
4, 104015, Control_c, 2, 11, 73
4, 104070, Control_c, 2, 11, 74
4, 104125, Control_c, 2, 11, 75
4, 104180, Control_c, 2, 11, 76
4, 104235, Control_c, 2, 11, 77
4, 104278, Note_on_c, 2, 71, 0
4, 104290, Control_c, 2, 11, 78
4, 104345, Control_c, 2, 11, 79
4, 104399, Control_c, 2, 11, 80
4, 104824, Note_on_c, 2, 70, 71
4, 105375, Note_on_c, 2, 68, 79
4, 105422, Note_on_c, 2, 70, 0
4, 106009, Note_on_c, 2, 73, 87
4, 106116, Note_on_c, 2, 68, 0
4, 107071, Note_on_c, 2, 75, 75
4, 107117, Note_on_c, 2, 73, 0
4, 107751, Note_on_c, 2, 75, 0
4, 109240, Note_on_c, 2, 73, 49
4, 109834, Note_on_c, 2, 71, 40
4, 109901, Note_on_c, 2, 73, 0
4, 110598, Note_on_c, 2, 71, 0
4, 112738, Note_on_c, 2, 75, 46
4, 113173, Note_on_c, 2, 73, 42
4, 113239, Note_on_c, 2, 75, 0
4, 113692, Note_on_c, 2, 66, 39
4, 113728, Note_on_c, 2, 73, 0
4, 114399, Note_on_c, 2, 78, 35
4, 114563, Note_on_c, 2, 66, 0
4, 115066, Note_on_c, 2, 78, 0
4, 117246, Note_on_c, 2, 75, 34
4, 117820, Note_on_c, 2, 73, 39
4, 117868, Note_on_c, 2, 75, 0
4, 118448, Note_on_c, 2, 66, 42
4, 118488, Note_on_c, 2, 73, 0
4, 119551, Note_on_c, 2, 71, 42
4, 119841, Note_on_c, 2, 66, 0
4, 120395, Note_on_c, 2, 71, 0
4, 120589, Note_on_c, 2, 71, 31
4, 120868, Note_on_c, 2, 71, 0
4, 121119, Note_on_c, 2, 71, 22
4, 121362, Note_on_c, 2, 71, 0
4, 121638, Note_on_c, 2, 71, 21
4, 121905, Note_on_c, 2, 71, 0
4, 124817, Control_c, 2, 11, 20
4, 124817, Note_on_c, 2, 83, 36
4, 124822, Control_c, 2, 11, 24
4, 124827, Control_c, 2, 11, 27
4, 124832, Control_c, 2, 11, 29
4, 124837, Control_c, 2, 11, 31
4, 124842, Control_c, 2, 11, 33
4, 124847, Control_c, 2, 11, 35
4, 124852, Control_c, 2, 11, 37
4, 124857, Control_c, 2, 11, 39
4, 124862, Control_c, 2, 11, 41
4, 124867, Control_c, 2, 11, 43
4, 124872, Control_c, 2, 11, 44
4, 124877, Control_c, 2, 11, 46
4, 124882, Control_c, 2, 11, 47
4, 124887, Control_c, 2, 11, 49
4, 124892, Control_c, 2, 11, 50
4, 124897, Control_c, 2, 11, 51
4, 124902, Control_c, 2, 11, 53
4, 124907, Control_c, 2, 11, 54
4, 124912, Control_c, 2, 11, 55
4, 124917, Control_c, 2, 11, 56
4, 124922, Control_c, 2, 11, 57
4, 124927, Control_c, 2, 11, 58
4, 124932, Control_c, 2, 11, 59
4, 124937, Control_c, 2, 11, 60
4, 124942, Control_c, 2, 11, 61
4, 124947, Control_c, 2, 11, 62
4, 124957, Control_c, 2, 11, 63
4, 124962, Control_c, 2, 11, 64
4, 124967, Control_c, 2, 11, 65
4, 124977, Control_c, 2, 11, 66
4, 124982, Control_c, 2, 11, 67
4, 124992, Control_c, 2, 11, 68
4, 124997, Control_c, 2, 11, 69
4, 125012, Control_c, 2, 11, 70
4, 125022, Control_c, 2, 11, 71
4, 125032, Control_c, 2, 11, 72
4, 125042, Control_c, 2, 11, 73
4, 125062, Control_c, 2, 11, 74
4, 125077, Control_c, 2, 11, 75
4, 125097, Control_c, 2, 11, 76
4, 125122, Control_c, 2, 11, 77
4, 125157, Control_c, 2, 11, 78
4, 125197, Control_c, 2, 11, 79
4, 125267, Control_c, 2, 11, 80
4, 125448, Note_on_c, 2, 81, 39
4, 125507, Note_on_c, 2, 83, 0
4, 126136, Note_on_c, 2, 80, 35
4, 126193, Note_on_c, 2, 81, 0
4, 126407, Note_on_c, 2, 81, 39
4, 126465, Note_on_c, 2, 80, 0
4, 126615, Note_on_c, 2, 80, 37
4, 126658, Note_on_c, 2, 81, 0
4, 126842, Note_on_c, 2, 78, 45
4, 126895, Note_on_c, 2, 80, 0
4, 127541, Note_on_c, 2, 75, 43
4, 127605, Note_on_c, 2, 78, 0
4, 128130, Note_on_c, 2, 73, 36
4, 128231, Note_on_c, 2, 75, 0
4, 128315, Note_on_c, 2, 73, 0
4, 128363, Note_on_c, 2, 73, 36
4, 129746, Note_on_c, 2, 71, 34
4, 129858, Note_on_c, 2, 73, 0
4, 130267, Note_on_c, 2, 71, 0
4, 130335, Note_on_c, 2, 71, 28
4, 131592, Note_on_c, 2, 68, 35
4, 131893, Note_on_c, 2, 71, 0
4, 132692, Note_on_c, 2, 66, 47
4, 132727, Note_on_c, 2, 68, 0
4, 135081, Note_on_c, 2, 68, 51
4, 135171, Note_on_c, 2, 66, 0
4, 135760, Note_on_c, 2, 68, 0
4, 135790, Note_on_c, 2, 64, 66
4, 136076, Note_on_c, 2, 66, 70
4, 136150, Note_on_c, 2, 64, 0
4, 136332, Note_on_c, 2, 68, 58
4, 136431, Note_on_c, 2, 66, 0
4, 136847, Note_on_c, 2, 71, 54
4, 136918, Note_on_c, 2, 68, 0
4, 137341, Note_on_c, 2, 71, 0
4, 137387, Note_on_c, 2, 71, 45
4, 139386, Note_on_c, 2, 69, 49
4, 139478, Note_on_c, 2, 71, 0
4, 140170, Note_on_c, 2, 68, 30
4, 140199, Note_on_c, 2, 69, 0
4, 140988, Note_on_c, 2, 68, 0
4, 142328, Note_on_c, 2, 76, 35
4, 143732, Note_on_c, 2, 76, 0
4, 143775, Note_on_c, 2, 76, 26
4, 148157, Note_on_c, 2, 73, 31
4, 148373, Note_on_c, 2, 76, 0
4, 148600, Note_on_c, 2, 73, 0
4, 148652, Note_on_c, 2, 73, 28
4, 149192, Note_on_c, 2, 71, 46
4, 149341, Note_on_c, 2, 73, 0
4, 149433, Note_on_c, 2, 69, 55
4, 149474, Note_on_c, 2, 71, 0
4, 149696, Note_on_c, 2, 68, 57
4, 149757, Note_on_c, 2, 69, 0
4, 150261, Note_on_c, 2, 68, 0
4, 150367, Note_on_c, 2, 76, 50
4, 151554, Note_on_c, 2, 72, 40
4, 151630, Note_on_c, 2, 76, 0
4, 152167, Note_on_c, 2, 71, 33
4, 152279, Note_on_c, 2, 72, 0
4, 152872, Note_on_c, 2, 69, 43
4, 152906, Note_on_c, 2, 71, 0
4, 153198, Note_on_c, 2, 66, 38
4, 153269, Note_on_c, 2, 69, 0
4, 153457, Note_on_c, 2, 64, 29
4, 153559, Note_on_c, 2, 66, 0
4, 155309, Note_on_c, 2, 64, 0
4, 156516, Note_on_c, 2, 63, 66
4, 157119, Note_on_c, 2, 64, 65
4, 157126, Note_on_c, 2, 63, 0
4, 157376, Note_on_c, 2, 66, 52
4, 157477, Note_on_c, 2, 64, 0
4, 157666, Note_on_c, 2, 68, 43
4, 157756, Note_on_c, 2, 66, 0
4, 158101, Note_on_c, 2, 68, 0
4, 158147, Note_on_c, 2, 64, 66
4, 158363, Note_on_c, 2, 66, 63
4, 158411, Note_on_c, 2, 64, 0
4, 158620, Note_on_c, 2, 68, 59
4, 158695, Note_on_c, 2, 66, 0
4, 158982, Note_on_c, 2, 68, 0
4, 159056, Note_on_c, 2, 66, 78
4, 159259, Note_on_c, 2, 68, 73
4, 159281, Note_on_c, 2, 66, 0
4, 159511, Note_on_c, 2, 69, 60
4, 159571, Note_on_c, 2, 68, 0
4, 159874, Note_on_c, 2, 69, 0
4, 159936, Note_on_c, 2, 66, 78
4, 160140, Note_on_c, 2, 68, 74
4, 160202, Note_on_c, 2, 66, 0
4, 160385, Note_on_c, 2, 69, 57
4, 160420, Note_on_c, 2, 68, 0
4, 160712, Note_on_c, 2, 69, 0
4, 160754, Note_on_c, 2, 66, 83
4, 161040, Note_on_c, 2, 68, 74
4, 161049, Note_on_c, 2, 66, 0
4, 161355, Note_on_c, 2, 69, 56
4, 161356, Note_on_c, 2, 68, 0
4, 161742, Note_on_c, 2, 69, 0
4, 161773, Note_on_c, 2, 66, 72
4, 162019, Note_on_c, 2, 68, 68
4, 162049, Note_on_c, 2, 66, 0
4, 162284, Note_on_c, 2, 69, 59
4, 162307, Note_on_c, 2, 68, 0
4, 162881, Note_on_c, 2, 69, 0
4, 162912, Note_on_c, 2, 64, 73
4, 163164, Note_on_c, 2, 66, 68
4, 163257, Note_on_c, 2, 64, 0
4, 163419, Note_on_c, 2, 68, 48
4, 163477, Note_on_c, 2, 66, 0
4, 163891, Note_on_c, 2, 68, 0
4, 163896, Note_on_c, 2, 64, 57
4, 164149, Note_on_c, 2, 66, 53
4, 164208, Note_on_c, 2, 64, 0
4, 164428, Note_on_c, 2, 68, 48
4, 164478, Note_on_c, 2, 66, 0
4, 164818, Note_on_c, 2, 68, 0
4, 164958, Note_on_c, 2, 68, 53
4, 165249, Note_on_c, 2, 69, 61
4, 165270, Note_on_c, 2, 68, 0
4, 165530, Note_on_c, 2, 68, 68
4, 165610, Note_on_c, 2, 69, 0
4, 165994, Note_on_c, 2, 66, 79
4, 166036, Note_on_c, 2, 68, 0
4, 166202, Note_on_c, 2, 64, 69
4, 166252, Note_on_c, 2, 66, 0
4, 166447, Note_on_c, 2, 63, 72
4, 166572, Note_on_c, 2, 64, 0
4, 166897, Note_on_c, 2, 64, 58
4, 166930, Note_on_c, 2, 63, 0
4, 167147, Note_on_c, 2, 66, 59
4, 167264, Note_on_c, 2, 64, 0
4, 167361, Note_on_c, 2, 68, 66
4, 167497, Note_on_c, 2, 66, 0
4, 167828, Note_on_c, 2, 66, 76
4, 167884, Note_on_c, 2, 68, 0
4, 168098, Note_on_c, 2, 64, 60
4, 168157, Note_on_c, 2, 66, 0
4, 168373, Note_on_c, 2, 63, 70
4, 168521, Note_on_c, 2, 64, 0
4, 168745, Note_on_c, 2, 64, 67
4, 168762, Note_on_c, 2, 63, 0
4, 169022, Note_on_c, 2, 64, 0
4, 169034, Note_on_c, 2, 72, 65
4, 169305, Note_on_c, 2, 73, 70
4, 169336, Note_on_c, 2, 72, 0
4, 170022, Note_on_c, 2, 73, 0
4, 170027, Note_on_c, 2, 67, 77
4, 170396, Note_on_c, 2, 67, 0
4, 170435, Note_on_c, 2, 67, 71
4, 170682, Note_on_c, 2, 68, 61
4, 170728, Note_on_c, 2, 67, 0
4, 171740, Note_on_c, 2, 68, 0
4, 183674, Note_on_c, 2, 68, 67
4, 185089, Note_on_c, 2, 70, 87
4, 185215, Note_on_c, 2, 68, 0
4, 185610, Note_on_c, 2, 71, 84
4, 185639, Note_on_c, 2, 70, 0
4, 187123, Note_on_c, 2, 68, 61
4, 187292, Note_on_c, 2, 71, 0
4, 187716, Note_on_c, 2, 67, 53
4, 187811, Note_on_c, 2, 68, 0
4, 188362, Note_on_c, 2, 67, 0
4, 191243, Note_on_c, 2, 72, 36
4, 191738, Note_on_c, 2, 68, 41
4, 191887, Note_on_c, 2, 72, 0
4, 192235, Note_on_c, 2, 72, 46
4, 192298, Note_on_c, 2, 68, 0
4, 192747, Note_on_c, 2, 75, 44
4, 192773, Note_on_c, 2, 72, 0
4, 193232, Note_on_c, 2, 70, 49
4, 193286, Note_on_c, 2, 75, 0
4, 194934, Note_on_c, 2, 70, 0
4, 195504, Note_on_c, 2, 72, 45
4, 195961, Note_on_c, 2, 68, 55
4, 196011, Note_on_c, 2, 72, 0
4, 196438, Note_on_c, 2, 72, 68
4, 196472, Note_on_c, 2, 68, 0
4, 196918, Note_on_c, 2, 75, 58
4, 196957, Note_on_c, 2, 72, 0
4, 197509, Note_on_c, 2, 75, 0
4, 197523, Note_on_c, 2, 70, 45
4, 199044, Note_on_c, 2, 72, 42
4, 199176, Note_on_c, 2, 70, 0
4, 200094, Note_on_c, 2, 70, 57
4, 200268, Note_on_c, 2, 72, 0
4, 200953, Note_on_c, 2, 70, 0
4, 200996, Note_on_c, 2, 70, 65
4, 201485, Note_on_c, 2, 75, 58
4, 201519, Note_on_c, 2, 70, 0
4, 202915, Note_on_c, 2, 72, 45
4, 202996, Note_on_c, 2, 75, 0
4, 203736, Note_on_c, 2, 70, 40
4, 203880, Note_on_c, 2, 72, 0
4, 205586, Note_on_c, 2, 68, 33
4, 205640, Note_on_c, 2, 70, 0
4, 206434, Note_on_c, 2, 67, 29
4, 206481, Note_on_c, 2, 68, 0
4, 207106, Note_on_c, 2, 67, 0
4, 209763, Note_on_c, 2, 72, 44
4, 210156, Note_on_c, 2, 68, 51
4, 210198, Note_on_c, 2, 72, 0
4, 210605, Note_on_c, 2, 72, 48
4, 210693, Note_on_c, 2, 68, 0
4, 211213, Note_on_c, 2, 75, 49
4, 211277, Note_on_c, 2, 72, 0
4, 211907, Note_on_c, 2, 70, 55
4, 212075, Note_on_c, 2, 75, 0
4, 213564, Note_on_c, 2, 70, 0
4, 214188, Note_on_c, 2, 72, 44
4, 214599, Note_on_c, 2, 68, 66
4, 214659, Note_on_c, 2, 72, 0
4, 215224, Note_on_c, 2, 72, 59
4, 215293, Note_on_c, 2, 68, 0
4, 215927, Note_on_c, 2, 75, 53
4, 216019, Note_on_c, 2, 72, 0
4, 216454, Note_on_c, 2, 70, 49
4, 216557, Note_on_c, 2, 75, 0
4, 218137, Note_on_c, 2, 70, 0
4, 220372, Note_on_c, 2, 68, 67
4, 221245, Note_on_c, 2, 70, 73
4, 221295, Note_on_c, 2, 68, 0
4, 221551, Note_on_c, 2, 72, 73
4, 221561, Note_on_c, 2, 70, 0
4, 222914, Note_on_c, 2, 74, 96
4, 222919, Note_on_c, 2, 72, 0
4, 223871, Note_on_c, 2, 75, 83
4, 223917, Note_on_c, 2, 74, 0
4, 225687, Note_on_c, 2, 75, 0
4, 225708, Note_on_c, 2, 70, 61
4, 227337, Note_on_c, 2, 68, 37
4, 227403, Note_on_c, 2, 70, 0
4, 228164, Note_on_c, 2, 68, 0
4, 230295, Note_on_c, 2, 72, 52
4, 230729, Note_on_c, 2, 70, 58
4, 230765, Note_on_c, 2, 72, 0
4, 231269, Note_on_c, 2, 63, 64
4, 231308, Note_on_c, 2, 70, 0
4, 231914, Note_on_c, 2, 75, 49
4, 232127, Note_on_c, 2, 63, 0
4, 232655, Note_on_c, 2, 75, 0
4, 234995, Note_on_c, 2, 72, 44
4, 235996, Note_on_c, 2, 70, 50
4, 236096, Note_on_c, 2, 72, 0
4, 236992, Note_on_c, 2, 63, 47
4, 236999, Note_on_c, 2, 70, 0
4, 237760, Note_on_c, 2, 68, 39
4, 237824, Note_on_c, 2, 63, 0
4, 241038, Note_on_c, 2, 68, 0
4, 252985, Note_on_c, 2, 68, 36
4, 256470, Note_on_c, 2, 68, 0
4, 256490, Note_on_c, 2, 68, 43
4, 258125, Note_on_c, 2, 68, 0
4, 258180, Note_on_c, 2, 68, 54
4, 258583, Note_on_c, 2, 69, 56
4, 258615, Note_on_c, 2, 68, 0
4, 258729, Note_on_c, 2, 68, 59
4, 258778, Note_on_c, 2, 69, 0
4, 259237, Note_on_c, 2, 64, 63
4, 259287, Note_on_c, 2, 68, 0
4, 259761, Control_c, 2, 11, 80
4, 259761, Note_on_c, 2, 66, 50
4, 259811, Control_c, 2, 11, 81
4, 259817, Note_on_c, 2, 64, 0
4, 259856, Control_c, 2, 11, 82
4, 259901, Control_c, 2, 11, 83
4, 259946, Control_c, 2, 11, 84
4, 259991, Control_c, 2, 11, 85
4, 260036, Control_c, 2, 11, 86
4, 260081, Control_c, 2, 11, 87
4, 260126, Control_c, 2, 11, 88
4, 260171, Control_c, 2, 11, 89
4, 260216, Control_c, 2, 11, 90
4, 260261, Control_c, 2, 11, 91
4, 260306, Control_c, 2, 11, 92
4, 260351, Control_c, 2, 11, 93
4, 260396, Control_c, 2, 11, 94
4, 260441, Control_c, 2, 11, 95
4, 260486, Control_c, 2, 11, 96
4, 260531, Control_c, 2, 11, 97
4, 260576, Control_c, 2, 11, 98
4, 260626, Control_c, 2, 11, 99
4, 260671, Control_c, 2, 11, 100
4, 260716, Control_c, 2, 11, 101
4, 260761, Control_c, 2, 11, 102
4, 260806, Control_c, 2, 11, 103
4, 260830, Note_on_c, 2, 71, 43
4, 260851, Control_c, 2, 11, 104
4, 260896, Control_c, 2, 11, 105
4, 260941, Control_c, 2, 11, 106
4, 260986, Control_c, 2, 11, 107
4, 260994, Note_on_c, 2, 66, 0
4, 261031, Control_c, 2, 11, 108
4, 261076, Control_c, 2, 11, 109
4, 261120, Control_c, 2, 11, 110
4, 261160, Control_c, 2, 11, 109
4, 261200, Control_c, 2, 11, 108
4, 261240, Control_c, 2, 11, 107
4, 261280, Control_c, 2, 11, 106
4, 261320, Control_c, 2, 11, 105
4, 261360, Control_c, 2, 11, 104
4, 261400, Control_c, 2, 11, 103
4, 261440, Control_c, 2, 11, 102
4, 261480, Control_c, 2, 11, 101
4, 261520, Control_c, 2, 11, 100
4, 261560, Control_c, 2, 11, 99
4, 261600, Control_c, 2, 11, 98
4, 261640, Control_c, 2, 11, 97
4, 261680, Control_c, 2, 11, 96
4, 261720, Control_c, 2, 11, 95
4, 261760, Control_c, 2, 11, 94
4, 261800, Control_c, 2, 11, 93
4, 261840, Control_c, 2, 11, 92
4, 261880, Control_c, 2, 11, 91
4, 261920, Control_c, 2, 11, 90
4, 261960, Control_c, 2, 11, 89
4, 262000, Control_c, 2, 11, 88
4, 262040, Control_c, 2, 11, 87
4, 262080, Control_c, 2, 11, 86
4, 262120, Control_c, 2, 11, 85
4, 262130, Note_on_c, 2, 68, 51
4, 262160, Control_c, 2, 11, 84
4, 262200, Control_c, 2, 11, 83
4, 262202, Note_on_c, 2, 71, 0
4, 262240, Control_c, 2, 11, 82
4, 262280, Control_c, 2, 11, 81
4, 262320, Control_c, 2, 11, 80
4, 262695, Note_on_c, 2, 68, 0
4, 262732, Note_on_c, 2, 68, 60
4, 263118, Note_on_c, 2, 69, 62
4, 263142, Note_on_c, 2, 68, 0
4, 263266, Note_on_c, 2, 68, 70
4, 263326, Note_on_c, 2, 69, 0
4, 263793, Note_on_c, 2, 64, 67
4, 263813, Note_on_c, 2, 68, 0
4, 264352, Note_on_c, 2, 66, 57
4, 264426, Note_on_c, 2, 64, 0
4, 265440, Control_c, 2, 11, 80
4, 265490, Control_c, 2, 11, 79
4, 265540, Control_c, 2, 11, 78
4, 265585, Control_c, 2, 11, 77
4, 265635, Control_c, 2, 11, 76
4, 265680, Control_c, 2, 11, 75
4, 265730, Control_c, 2, 11, 74
4, 265780, Control_c, 2, 11, 73
4, 265825, Control_c, 2, 11, 72
4, 265875, Control_c, 2, 11, 71
4, 265920, Control_c, 2, 11, 70
4, 265970, Control_c, 2, 11, 69
4, 266020, Control_c, 2, 11, 68
4, 266065, Control_c, 2, 11, 67
4, 266115, Control_c, 2, 11, 66
4, 266160, Control_c, 2, 11, 65
4, 266210, Control_c, 2, 11, 64
4, 266260, Control_c, 2, 11, 63
4, 266305, Control_c, 2, 11, 62
4, 266355, Control_c, 2, 11, 61
4, 266400, Control_c, 2, 11, 60
4, 266450, Control_c, 2, 11, 59
4, 266500, Control_c, 2, 11, 58
4, 266545, Control_c, 2, 11, 57
4, 266595, Control_c, 2, 11, 56
4, 266640, Control_c, 2, 11, 55
4, 266690, Control_c, 2, 11, 54
4, 266740, Control_c, 2, 11, 53
4, 266785, Control_c, 2, 11, 52
4, 266810, Note_on_c, 2, 68, 46
4, 266835, Control_c, 2, 11, 51
4, 266856, Note_on_c, 2, 66, 0
4, 266880, Control_c, 2, 11, 50
4, 266880, Control_c, 2, 11, 50
4, 266885, Control_c, 2, 11, 52
4, 266890, Control_c, 2, 11, 54
4, 266895, Control_c, 2, 11, 55
4, 266900, Control_c, 2, 11, 56
4, 266905, Control_c, 2, 11, 57
4, 266910, Control_c, 2, 11, 58
4, 266915, Control_c, 2, 11, 59
4, 266920, Control_c, 2, 11, 60
4, 266925, Control_c, 2, 11, 61
4, 266930, Control_c, 2, 11, 62
4, 266940, Control_c, 2, 11, 63
4, 266945, Control_c, 2, 11, 64
4, 266950, Control_c, 2, 11, 65
4, 266960, Control_c, 2, 11, 66
4, 266965, Control_c, 2, 11, 67
4, 266975, Control_c, 2, 11, 68
4, 266985, Control_c, 2, 11, 69
4, 266995, Control_c, 2, 11, 70
4, 267005, Control_c, 2, 11, 71
4, 267015, Control_c, 2, 11, 72
4, 267025, Control_c, 2, 11, 73
4, 267040, Control_c, 2, 11, 74
4, 267060, Control_c, 2, 11, 75
4, 267080, Control_c, 2, 11, 76
4, 267100, Control_c, 2, 11, 77
4, 267135, Control_c, 2, 11, 78
4, 267175, Control_c, 2, 11, 79
4, 267255, Control_c, 2, 11, 80
4, 267427, Note_on_c, 2, 68, 0
4, 267498, Note_on_c, 2, 68, 53
4, 267945, Note_on_c, 2, 69, 58
4, 267991, Note_on_c, 2, 68, 0
4, 268087, Note_on_c, 2, 68, 57
4, 268131, Note_on_c, 2, 69, 0
4, 268603, Note_on_c, 2, 64, 61
4, 268657, Note_on_c, 2, 68, 0
4, 269280, Control_c, 2, 11, 80
4, 269290, Control_c, 2, 11, 79
4, 269300, Control_c, 2, 11, 78
4, 269305, Control_c, 2, 11, 77
4, 269315, Control_c, 2, 11, 76
4, 269320, Control_c, 2, 11, 75
4, 269330, Control_c, 2, 11, 74
4, 269335, Control_c, 2, 11, 73
4, 269345, Control_c, 2, 11, 72
4, 269350, Control_c, 2, 11, 71
4, 269360, Control_c, 2, 11, 70
4, 269370, Control_c, 2, 11, 69
4, 269375, Control_c, 2, 11, 68
4, 269385, Control_c, 2, 11, 67
4, 269390, Control_c, 2, 11, 66
4, 269400, Control_c, 2, 11, 65
4, 269405, Control_c, 2, 11, 64
4, 269415, Control_c, 2, 11, 63
4, 269420, Control_c, 2, 11, 62
4, 269430, Control_c, 2, 11, 61
4, 269440, Control_c, 2, 11, 60
4, 269445, Control_c, 2, 11, 59
4, 269455, Control_c, 2, 11, 58
4, 269460, Control_c, 2, 11, 57
4, 269470, Control_c, 2, 11, 56
4, 269475, Control_c, 2, 11, 55
4, 269485, Control_c, 2, 11, 54
4, 269490, Control_c, 2, 11, 53
4, 269500, Control_c, 2, 11, 52
4, 269510, Control_c, 2, 11, 51
4, 269514, Control_c, 2, 11, 50
4, 269514, Control_c, 2, 11, 50
4, 269514, Note_on_c, 2, 73, 66
4, 269519, Control_c, 2, 11, 54
4, 269524, Control_c, 2, 11, 57
4, 269529, Control_c, 2, 11, 59
4, 269534, Control_c, 2, 11, 62
4, 269539, Control_c, 2, 11, 64
4, 269544, Control_c, 2, 11, 65
4, 269549, Control_c, 2, 11, 67
4, 269554, Control_c, 2, 11, 68
4, 269559, Control_c, 2, 11, 70
4, 269564, Control_c, 2, 11, 71
4, 269569, Control_c, 2, 11, 72
4, 269570, Note_on_c, 2, 64, 0
4, 269574, Control_c, 2, 11, 73
4, 269579, Control_c, 2, 11, 74
4, 269584, Control_c, 2, 11, 75
4, 269594, Control_c, 2, 11, 76
4, 269604, Control_c, 2, 11, 77
4, 269619, Control_c, 2, 11, 78
4, 269634, Control_c, 2, 11, 79
4, 269664, Control_c, 2, 11, 80
4, 271176, Note_on_c, 2, 73, 0
4, 272443, Control_c, 2, 11, 30
4, 272443, Note_on_c, 2, 69, 50
4, 272448, Control_c, 2, 11, 34
4, 272453, Control_c, 2, 11, 37
4, 272458, Control_c, 2, 11, 39
4, 272463, Control_c, 2, 11, 42
4, 272468, Control_c, 2, 11, 45
4, 272473, Control_c, 2, 11, 47
4, 272478, Control_c, 2, 11, 49
4, 272483, Control_c, 2, 11, 51
4, 272488, Control_c, 2, 11, 53
4, 272493, Control_c, 2, 11, 55
4, 272498, Control_c, 2, 11, 56
4, 272503, Control_c, 2, 11, 58
4, 272508, Control_c, 2, 11, 59
4, 272513, Control_c, 2, 11, 60
4, 272518, Control_c, 2, 11, 62
4, 272523, Control_c, 2, 11, 63
4, 272528, Control_c, 2, 11, 64
4, 272533, Control_c, 2, 11, 65
4, 272538, Control_c, 2, 11, 66
4, 272543, Control_c, 2, 11, 67
4, 272548, Control_c, 2, 11, 68
4, 272558, Control_c, 2, 11, 69
4, 272563, Control_c, 2, 11, 70
4, 272568, Control_c, 2, 11, 71
4, 272578, Control_c, 2, 11, 72
4, 272588, Control_c, 2, 11, 73
4, 272598, Control_c, 2, 11, 74
4, 272613, Control_c, 2, 11, 75
4, 272623, Control_c, 2, 11, 76
4, 272643, Control_c, 2, 11, 77
4, 272663, Control_c, 2, 11, 78
4, 272693, Control_c, 2, 11, 79
4, 272738, Control_c, 2, 11, 80
4, 273713, Note_on_c, 2, 66, 59
4, 273793, Note_on_c, 2, 69, 0
4, 274278, Note_on_c, 2, 66, 0
4, 274331, Note_on_c, 2, 66, 66
4, 274769, Note_on_c, 2, 68, 67
4, 274819, Note_on_c, 2, 66, 0
4, 274974, Note_on_c, 2, 64, 65
4, 275015, Note_on_c, 2, 68, 0
4, 276000, Control_c, 2, 11, 80
4, 276105, Control_c, 2, 11, 79
4, 276145, Control_c, 2, 11, 78
4, 276165, Control_c, 2, 11, 77
4, 276180, Control_c, 2, 11, 76
4, 276195, Control_c, 2, 11, 75
4, 276205, Control_c, 2, 11, 74
4, 276210, Control_c, 2, 11, 73
4, 276220, Control_c, 2, 11, 72
4, 276225, Control_c, 2, 11, 71
4, 276235, Control_c, 2, 11, 70
4, 276240, Control_c, 2, 11, 69
4, 276245, Control_c, 2, 11, 68
4, 276250, Control_c, 2, 11, 66
4, 276255, Control_c, 2, 11, 65
4, 276260, Control_c, 2, 11, 64
4, 276265, Control_c, 2, 11, 62
4, 276270, Control_c, 2, 11, 61
4, 276275, Control_c, 2, 11, 59
4, 276280, Control_c, 2, 11, 57
4, 276285, Control_c, 2, 11, 55
4, 276290, Control_c, 2, 11, 53
4, 276295, Control_c, 2, 11, 50
4, 276300, Control_c, 2, 11, 47
4, 276305, Control_c, 2, 11, 45
4, 276310, Control_c, 2, 11, 41
4, 276315, Control_c, 2, 11, 38
4, 276320, Control_c, 2, 11, 34
4, 276324, Control_c, 2, 11, 30
4, 276324, Control_c, 2, 11, 30
4, 276324, Note_on_c, 2, 69, 61
4, 276329, Control_c, 2, 11, 33
4, 276334, Control_c, 2, 11, 35
4, 276339, Control_c, 2, 11, 36
4, 276344, Control_c, 2, 11, 38
4, 276349, Control_c, 2, 11, 40
4, 276354, Control_c, 2, 11, 41
4, 276359, Control_c, 2, 11, 42
4, 276364, Control_c, 2, 11, 44
4, 276365, Note_on_c, 2, 64, 0
4, 276369, Control_c, 2, 11, 45
4, 276374, Control_c, 2, 11, 46
4, 276379, Control_c, 2, 11, 47
4, 276384, Control_c, 2, 11, 48
4, 276389, Control_c, 2, 11, 49
4, 276399, Control_c, 2, 11, 50
4, 276404, Control_c, 2, 11, 51
4, 276409, Control_c, 2, 11, 52
4, 276419, Control_c, 2, 11, 53
4, 276429, Control_c, 2, 11, 54
4, 276439, Control_c, 2, 11, 55
4, 276454, Control_c, 2, 11, 56
4, 276469, Control_c, 2, 11, 57
4, 276480, Control_c, 2, 11, 57
4, 276590, Control_c, 2, 11, 58
4, 276700, Control_c, 2, 11, 59
4, 276810, Control_c, 2, 11, 60
4, 276915, Control_c, 2, 11, 61
4, 277025, Control_c, 2, 11, 62
4, 277135, Control_c, 2, 11, 63
4, 277240, Control_c, 2, 11, 64
4, 277350, Control_c, 2, 11, 65
4, 277460, Control_c, 2, 11, 66
4, 277565, Control_c, 2, 11, 67
4, 277675, Control_c, 2, 11, 68
4, 277785, Control_c, 2, 11, 69
4, 277890, Control_c, 2, 11, 70
4, 278000, Control_c, 2, 11, 71
4, 278110, Control_c, 2, 11, 72
4, 278215, Control_c, 2, 11, 73
4, 278325, Control_c, 2, 11, 74
4, 278435, Control_c, 2, 11, 75
4, 278540, Control_c, 2, 11, 76
4, 278650, Control_c, 2, 11, 77
4, 278760, Control_c, 2, 11, 78
4, 278865, Control_c, 2, 11, 79
4, 278973, Control_c, 2, 11, 80
4, 278973, Note_on_c, 2, 66, 54
4, 279026, Note_on_c, 2, 69, 0
4, 279595, Note_on_c, 2, 66, 0
4, 279671, Note_on_c, 2, 66, 50
4, 280356, Note_on_c, 2, 68, 46
4, 280425, Note_on_c, 2, 66, 0
4, 280835, Control_c, 2, 11, 80
4, 280835, Note_on_c, 2, 64, 46
4, 280879, Note_on_c, 2, 68, 0
4, 281190, Control_c, 2, 11, 79
4, 281330, Control_c, 2, 11, 78
4, 281425, Control_c, 2, 11, 77
4, 281490, Control_c, 2, 11, 76
4, 281540, Control_c, 2, 11, 75
4, 281600, Control_c, 2, 11, 74
4, 281635, Control_c, 2, 11, 73
4, 281665, Control_c, 2, 11, 72
4, 281695, Control_c, 2, 11, 71
4, 281715, Control_c, 2, 11, 70
4, 281750, Control_c, 2, 11, 69
4, 281770, Control_c, 2, 11, 68
4, 281785, Control_c, 2, 11, 67
4, 281805, Control_c, 2, 11, 66
4, 281820, Control_c, 2, 11, 65
4, 281840, Control_c, 2, 11, 64
4, 281860, Control_c, 2, 11, 63
4, 281870, Control_c, 2, 11, 62
4, 281880, Control_c, 2, 11, 61
4, 281890, Control_c, 2, 11, 60
4, 281905, Control_c, 2, 11, 59
4, 281920, Control_c, 2, 11, 58
4, 281930, Control_c, 2, 11, 57
4, 281940, Control_c, 2, 11, 56
4, 281950, Control_c, 2, 11, 55
4, 281960, Control_c, 2, 11, 54
4, 281975, Control_c, 2, 11, 53
4, 281980, Control_c, 2, 11, 52
4, 281990, Control_c, 2, 11, 51
4, 281995, Control_c, 2, 11, 50
4, 282005, Control_c, 2, 11, 49
4, 282010, Control_c, 2, 11, 48
4, 282020, Control_c, 2, 11, 47
4, 282030, Control_c, 2, 11, 46
4, 282035, Control_c, 2, 11, 45
4, 282045, Control_c, 2, 11, 44
4, 282050, Control_c, 2, 11, 43
4, 282055, Control_c, 2, 11, 42
4, 282060, Control_c, 2, 11, 41
4, 282065, Control_c, 2, 11, 40
4, 282075, Control_c, 2, 11, 39
4, 282080, Control_c, 2, 11, 38
4, 282090, Control_c, 2, 11, 37
4, 282095, Control_c, 2, 11, 36
4, 282100, Control_c, 2, 11, 35
4, 282105, Control_c, 2, 11, 34
4, 282110, Control_c, 2, 11, 33
4, 282115, Control_c, 2, 11, 32
4, 282120, Control_c, 2, 11, 31
4, 282125, Control_c, 2, 11, 30
4, 282130, Control_c, 2, 11, 29
4, 282135, Control_c, 2, 11, 28
4, 282145, Control_c, 2, 11, 26
4, 282150, Control_c, 2, 11, 25
4, 282155, Control_c, 2, 11, 24
4, 282160, Control_c, 2, 11, 23
4, 282165, Control_c, 2, 11, 21
4, 282170, Control_c, 2, 11, 20
4, 282175, Control_c, 2, 11, 19
4, 282180, Control_c, 2, 11, 18
4, 282185, Control_c, 2, 11, 16
4, 282190, Control_c, 2, 11, 15
4, 282200, Control_c, 2, 11, 13
4, 282205, Control_c, 2, 11, 12
4, 282210, Control_c, 2, 11, 10
4, 282215, Control_c, 2, 11, 9
4, 282220, Control_c, 2, 11, 7
4, 282225, Control_c, 2, 11, 6
4, 282230, Control_c, 2, 11, 4
4, 282235, Control_c, 2, 11, 1
4, 282240, Control_c, 2, 11, 0
4, 282379, Note_on_c, 2, 64, 0
4, 284707, Control_c, 2, 11, 30
4, 284707, Note_on_c, 2, 71, 40
4, 284712, Control_c, 2, 11, 33
4, 284717, Control_c, 2, 11, 34
4, 284722, Control_c, 2, 11, 35
4, 284727, Control_c, 2, 11, 36
4, 284732, Control_c, 2, 11, 37
4, 284737, Control_c, 2, 11, 38
4, 284742, Control_c, 2, 11, 39
4, 284752, Control_c, 2, 11, 40
4, 284757, Control_c, 2, 11, 42
4, 284762, Control_c, 2, 11, 43
4, 284767, Control_c, 2, 11, 44
4, 284772, Control_c, 2, 11, 45
4, 284782, Control_c, 2, 11, 46
4, 284787, Control_c, 2, 11, 47
4, 284797, Control_c, 2, 11, 48
4, 284802, Control_c, 2, 11, 50
4, 284812, Control_c, 2, 11, 51
4, 284817, Control_c, 2, 11, 52
4, 284827, Control_c, 2, 11, 53
4, 284837, Control_c, 2, 11, 54
4, 284842, Control_c, 2, 11, 55
4, 284852, Control_c, 2, 11, 56
4, 284857, Control_c, 2, 11, 57
4, 284867, Control_c, 2, 11, 58
4, 284877, Control_c, 2, 11, 59
4, 284887, Control_c, 2, 11, 60
4, 284897, Control_c, 2, 11, 61
4, 284907, Control_c, 2, 11, 62
4, 284917, Control_c, 2, 11, 63
4, 284932, Control_c, 2, 11, 64
4, 284942, Control_c, 2, 11, 65
4, 284957, Control_c, 2, 11, 66
4, 284972, Control_c, 2, 11, 67
4, 284982, Control_c, 2, 11, 68
4, 285002, Control_c, 2, 11, 69
4, 285022, Control_c, 2, 11, 70
4, 285037, Control_c, 2, 11, 71
4, 285062, Control_c, 2, 11, 72
4, 285087, Control_c, 2, 11, 73
4, 285117, Control_c, 2, 11, 74
4, 285147, Control_c, 2, 11, 75
4, 285182, Control_c, 2, 11, 76
4, 285227, Control_c, 2, 11, 77
4, 285287, Control_c, 2, 11, 78
4, 285362, Control_c, 2, 11, 79
4, 285487, Control_c, 2, 11, 80
4, 285860, Note_on_c, 2, 69, 48
4, 285930, Note_on_c, 2, 71, 0
4, 287014, Note_on_c, 2, 68, 55
4, 287066, Note_on_c, 2, 69, 0
4, 288213, Control_c, 2, 11, 80
4, 288213, Note_on_c, 2, 66, 57
4, 288261, Note_on_c, 2, 68, 0
4, 288343, Control_c, 2, 11, 79
4, 288473, Control_c, 2, 11, 78
4, 288603, Control_c, 2, 11, 77
4, 288733, Control_c, 2, 11, 76
4, 288858, Control_c, 2, 11, 75
4, 288988, Control_c, 2, 11, 74
4, 289118, Control_c, 2, 11, 73
4, 289248, Control_c, 2, 11, 72
4, 289373, Control_c, 2, 11, 71
4, 289503, Control_c, 2, 11, 70
4, 289633, Control_c, 2, 11, 69
4, 289763, Control_c, 2, 11, 68
4, 289893, Control_c, 2, 11, 67
4, 290018, Control_c, 2, 11, 66
4, 290148, Control_c, 2, 11, 65
4, 290278, Control_c, 2, 11, 64
4, 290408, Control_c, 2, 11, 63
4, 290533, Control_c, 2, 11, 62
4, 290663, Control_c, 2, 11, 61
4, 290793, Control_c, 2, 11, 60
4, 290923, Control_c, 2, 11, 59
4, 291053, Control_c, 2, 11, 58
4, 291178, Control_c, 2, 11, 57
4, 291308, Control_c, 2, 11, 56
4, 291438, Control_c, 2, 11, 55
4, 291568, Control_c, 2, 11, 54
4, 291693, Control_c, 2, 11, 53
4, 291823, Control_c, 2, 11, 52
4, 291953, Control_c, 2, 11, 51
4, 292080, Control_c, 2, 11, 50
4, 292080, Control_c, 2, 11, 50
4, 292080, Note_on_c, 2, 63, 53
4, 292110, Control_c, 2, 11, 51
4, 292117, Note_on_c, 2, 66, 0
4, 292140, Control_c, 2, 11, 52
4, 292170, Control_c, 2, 11, 53
4, 292200, Control_c, 2, 11, 54
4, 292230, Control_c, 2, 11, 55
4, 292255, Control_c, 2, 11, 56
4, 292285, Control_c, 2, 11, 57
4, 292315, Control_c, 2, 11, 58
4, 292345, Control_c, 2, 11, 59
4, 292375, Control_c, 2, 11, 60
4, 292400, Control_c, 2, 11, 61
4, 292430, Control_c, 2, 11, 62
4, 292460, Control_c, 2, 11, 63
4, 292490, Control_c, 2, 11, 64
4, 292520, Control_c, 2, 11, 65
4, 292550, Control_c, 2, 11, 66
4, 292575, Control_c, 2, 11, 67
4, 292605, Control_c, 2, 11, 68
4, 292635, Control_c, 2, 11, 69
4, 292665, Control_c, 2, 11, 70
4, 292695, Control_c, 2, 11, 71
4, 292720, Control_c, 2, 11, 72
4, 292750, Control_c, 2, 11, 73
4, 292780, Control_c, 2, 11, 74
4, 292810, Control_c, 2, 11, 75
4, 292840, Control_c, 2, 11, 76
4, 292865, Control_c, 2, 11, 77
4, 292895, Control_c, 2, 11, 78
4, 292925, Control_c, 2, 11, 79
4, 292953, Control_c, 2, 11, 80
4, 292953, Note_on_c, 2, 71, 39
4, 293013, Note_on_c, 2, 63, 0
4, 295481, Note_on_c, 2, 71, 0
4, 295717, Control_c, 2, 11, 31
4, 295717, Note_on_c, 2, 71, 50
4, 295722, Control_c, 2, 11, 35
4, 295727, Control_c, 2, 11, 38
4, 295732, Control_c, 2, 11, 40
4, 295737, Control_c, 2, 11, 43
4, 295742, Control_c, 2, 11, 45
4, 295747, Control_c, 2, 11, 47
4, 295752, Control_c, 2, 11, 49
4, 295757, Control_c, 2, 11, 51
4, 295762, Control_c, 2, 11, 53
4, 295767, Control_c, 2, 11, 54
4, 295772, Control_c, 2, 11, 56
4, 295777, Control_c, 2, 11, 58
4, 295782, Control_c, 2, 11, 59
4, 295787, Control_c, 2, 11, 60
4, 295792, Control_c, 2, 11, 62
4, 295797, Control_c, 2, 11, 63
4, 295802, Control_c, 2, 11, 64
4, 295807, Control_c, 2, 11, 65
4, 295812, Control_c, 2, 11, 66
4, 295817, Control_c, 2, 11, 67
4, 295827, Control_c, 2, 11, 68
4, 295832, Control_c, 2, 11, 69
4, 295837, Control_c, 2, 11, 70
4, 295842, Control_c, 2, 11, 71
4, 295852, Control_c, 2, 11, 72
4, 295862, Control_c, 2, 11, 73
4, 295872, Control_c, 2, 11, 74
4, 295887, Control_c, 2, 11, 75
4, 295897, Control_c, 2, 11, 76
4, 295917, Control_c, 2, 11, 77
4, 295942, Control_c, 2, 11, 78
4, 295972, Control_c, 2, 11, 79
4, 296017, Control_c, 2, 11, 80
4, 296374, Note_on_c, 2, 73, 57
4, 296439, Note_on_c, 2, 71, 0
4, 296750, Note_on_c, 2, 71, 54
4, 296804, Note_on_c, 2, 73, 0
4, 297175, Control_c, 2, 11, 80
4, 297175, Note_on_c, 2, 69, 52
4, 297225, Control_c, 2, 11, 81
4, 297251, Note_on_c, 2, 71, 0
4, 297270, Control_c, 2, 11, 82
4, 297315, Control_c, 2, 11, 83
4, 297360, Control_c, 2, 11, 84
4, 297410, Control_c, 2, 11, 85
4, 297455, Control_c, 2, 11, 86
4, 297500, Control_c, 2, 11, 87
4, 297545, Control_c, 2, 11, 88
4, 297595, Control_c, 2, 11, 89
4, 297640, Control_c, 2, 11, 90
4, 297685, Control_c, 2, 11, 91
4, 297730, Control_c, 2, 11, 92
4, 297775, Control_c, 2, 11, 93
4, 297825, Control_c, 2, 11, 94
4, 297870, Control_c, 2, 11, 95
4, 297915, Control_c, 2, 11, 96
4, 297960, Control_c, 2, 11, 97
4, 298010, Control_c, 2, 11, 98
4, 298055, Control_c, 2, 11, 99
4, 298100, Control_c, 2, 11, 100
4, 298145, Control_c, 2, 11, 101
4, 298190, Control_c, 2, 11, 102
4, 298240, Control_c, 2, 11, 103
4, 298285, Control_c, 2, 11, 104
4, 298330, Control_c, 2, 11, 105
4, 298375, Control_c, 2, 11, 106
4, 298400, Note_on_c, 2, 68, 57
4, 298425, Control_c, 2, 11, 107
4, 298432, Note_on_c, 2, 69, 0
4, 298470, Control_c, 2, 11, 108
4, 298515, Control_c, 2, 11, 109
4, 298560, Control_c, 2, 11, 110
4, 298770, Note_on_c, 2, 69, 58
4, 298796, Note_on_c, 2, 68, 0
4, 298896, Note_on_c, 2, 68, 62
4, 298923, Note_on_c, 2, 69, 0
4, 298999, Note_on_c, 2, 66, 63
4, 299030, Note_on_c, 2, 68, 0
4, 299093, Control_c, 2, 11, 110
4, 299093, Note_on_c, 2, 68, 66
4, 299105, Note_on_c, 2, 66, 0
4, 299143, Control_c, 2, 11, 109
4, 299163, Control_c, 2, 11, 108
4, 299173, Control_c, 2, 11, 107
4, 299178, Control_c, 2, 11, 106
4, 299183, Control_c, 2, 11, 105
4, 299188, Control_c, 2, 11, 104
4, 299193, Control_c, 2, 11, 103
4, 299198, Control_c, 2, 11, 100
4, 299203, Control_c, 2, 11, 98
4, 299208, Control_c, 2, 11, 96
4, 299213, Control_c, 2, 11, 93
4, 299218, Control_c, 2, 11, 89
4, 299223, Control_c, 2, 11, 84
4, 299228, Control_c, 2, 11, 78
4, 299233, Control_c, 2, 11, 70
4, 299234, Note_on_c, 2, 75, 69
4, 299248, Control_c, 2, 11, 71
4, 299263, Control_c, 2, 11, 72
4, 299272, Note_on_c, 2, 68, 0
4, 299278, Control_c, 2, 11, 73
4, 299293, Control_c, 2, 11, 74
4, 299308, Control_c, 2, 11, 75
4, 299323, Control_c, 2, 11, 76
4, 299333, Control_c, 2, 11, 77
4, 299348, Control_c, 2, 11, 78
4, 299363, Control_c, 2, 11, 79
4, 299378, Control_c, 2, 11, 80
4, 299393, Control_c, 2, 11, 81
4, 299408, Control_c, 2, 11, 82
4, 299423, Control_c, 2, 11, 83
4, 299433, Control_c, 2, 11, 84
4, 299448, Control_c, 2, 11, 85
4, 299463, Control_c, 2, 11, 86
4, 299478, Control_c, 2, 11, 87
4, 299493, Control_c, 2, 11, 88
4, 299508, Control_c, 2, 11, 89
4, 299518, Control_c, 2, 11, 90
4, 299533, Control_c, 2, 11, 91
4, 299548, Control_c, 2, 11, 92
4, 299563, Control_c, 2, 11, 93
4, 299578, Control_c, 2, 11, 94
4, 299593, Control_c, 2, 11, 95
4, 299608, Control_c, 2, 11, 96
4, 299618, Control_c, 2, 11, 97
4, 299633, Control_c, 2, 11, 98
4, 299648, Control_c, 2, 11, 99
4, 299663, Control_c, 2, 11, 100
4, 299678, Control_c, 2, 11, 101
4, 299693, Control_c, 2, 11, 102
4, 299708, Control_c, 2, 11, 103
4, 299718, Control_c, 2, 11, 104
4, 299733, Control_c, 2, 11, 105
4, 299748, Control_c, 2, 11, 106
4, 299763, Control_c, 2, 11, 107
4, 299778, Control_c, 2, 11, 108
4, 299793, Control_c, 2, 11, 109
4, 299803, Control_c, 2, 11, 110
4, 299818, Control_c, 2, 11, 109
4, 299833, Control_c, 2, 11, 108
4, 299848, Control_c, 2, 11, 107
4, 299863, Control_c, 2, 11, 106
4, 299878, Control_c, 2, 11, 105
4, 299887, Note_on_c, 2, 76, 56
4, 299893, Control_c, 2, 11, 104
4, 299908, Control_c, 2, 11, 103
4, 299918, Control_c, 2, 11, 102
4, 299923, Note_on_c, 2, 75, 0
4, 299933, Control_c, 2, 11, 101
4, 299948, Control_c, 2, 11, 100
4, 299963, Control_c, 2, 11, 99
4, 299978, Control_c, 2, 11, 98
4, 299993, Control_c, 2, 11, 97
4, 300008, Control_c, 2, 11, 96
4, 300023, Control_c, 2, 11, 95
4, 300033, Control_c, 2, 11, 94
4, 300048, Control_c, 2, 11, 93
4, 300063, Control_c, 2, 11, 92
4, 300078, Control_c, 2, 11, 91
4, 300093, Control_c, 2, 11, 90
4, 300108, Control_c, 2, 11, 89
4, 300123, Control_c, 2, 11, 88
4, 300138, Control_c, 2, 11, 87
4, 300148, Control_c, 2, 11, 86
4, 300163, Control_c, 2, 11, 85
4, 300178, Control_c, 2, 11, 84
4, 300193, Control_c, 2, 11, 83
4, 300195, Note_on_c, 2, 76, 0
4, 300208, Control_c, 2, 11, 82
4, 300223, Control_c, 2, 11, 81
4, 300235, Control_c, 2, 11, 80
4, 300235, Note_on_c, 2, 76, 56
4, 300270, Control_c, 2, 11, 81
4, 300300, Control_c, 2, 11, 82
4, 300335, Control_c, 2, 11, 83
4, 300365, Control_c, 2, 11, 84
4, 300400, Control_c, 2, 11, 85
4, 300430, Control_c, 2, 11, 86
4, 300460, Control_c, 2, 11, 87
4, 300495, Control_c, 2, 11, 88
4, 300525, Control_c, 2, 11, 89
4, 300560, Control_c, 2, 11, 90
4, 300590, Control_c, 2, 11, 91
4, 300625, Control_c, 2, 11, 92
4, 300655, Control_c, 2, 11, 93
4, 300685, Control_c, 2, 11, 94
4, 300720, Control_c, 2, 11, 95
4, 300750, Control_c, 2, 11, 96
4, 300785, Control_c, 2, 11, 97
4, 300815, Control_c, 2, 11, 98
4, 300850, Control_c, 2, 11, 99
4, 300880, Control_c, 2, 11, 100
4, 300910, Control_c, 2, 11, 101
4, 300945, Control_c, 2, 11, 102
4, 300975, Control_c, 2, 11, 103
4, 301010, Control_c, 2, 11, 104
4, 301040, Control_c, 2, 11, 105
4, 301075, Control_c, 2, 11, 106
4, 301105, Control_c, 2, 11, 107
4, 301135, Control_c, 2, 11, 108
4, 301170, Control_c, 2, 11, 109
4, 301200, Control_c, 2, 11, 110
4, 301260, Control_c, 2, 11, 109
4, 301315, Control_c, 2, 11, 108
4, 301370, Control_c, 2, 11, 107
4, 301425, Control_c, 2, 11, 106
4, 301449, Note_on_c, 2, 66, 52
4, 301464, Note_on_c, 2, 76, 0
4, 301480, Control_c, 2, 11, 105
4, 301520, Control_c, 2, 11, 104
4, 301535, Control_c, 2, 11, 103
4, 301545, Control_c, 2, 11, 102
4, 301550, Control_c, 2, 11, 101
4, 301560, Control_c, 2, 11, 99
4, 301565, Control_c, 2, 11, 98
4, 301570, Control_c, 2, 11, 97
4, 301575, Control_c, 2, 11, 95
4, 301580, Control_c, 2, 11, 92
4, 301585, Control_c, 2, 11, 90
4, 301588, Note_on_c, 2, 66, 0
4, 301590, Control_c, 2, 11, 86
4, 301595, Control_c, 2, 11, 82
4, 301600, Control_c, 2, 11, 77
4, 301605, Control_c, 2, 11, 71
4, 301610, Control_c, 2, 11, 64
4, 301615, Control_c, 2, 11, 55
4, 301620, Control_c, 2, 11, 44
4, 301625, Control_c, 2, 11, 30
4, 301626, Control_c, 2, 11, 30
4, 301626, Note_on_c, 2, 66, 67
4, 301631, Control_c, 2, 11, 38
4, 301636, Control_c, 2, 11, 44
4, 301641, Control_c, 2, 11, 50
4, 301646, Control_c, 2, 11, 54
4, 301651, Control_c, 2, 11, 58
4, 301656, Control_c, 2, 11, 63
4, 301661, Control_c, 2, 11, 66
4, 301666, Control_c, 2, 11, 70
4, 301691, Control_c, 2, 11, 71
4, 301711, Control_c, 2, 11, 72
4, 301731, Control_c, 2, 11, 73
4, 301751, Control_c, 2, 11, 74
4, 301771, Control_c, 2, 11, 75
4, 301791, Control_c, 2, 11, 76
4, 301811, Control_c, 2, 11, 77
4, 301831, Control_c, 2, 11, 78
4, 301851, Control_c, 2, 11, 79
4, 301876, Control_c, 2, 11, 80
4, 301896, Control_c, 2, 11, 81
4, 301916, Control_c, 2, 11, 82
4, 301936, Control_c, 2, 11, 83
4, 301956, Control_c, 2, 11, 84
4, 301976, Control_c, 2, 11, 85
4, 301996, Control_c, 2, 11, 86
4, 302016, Control_c, 2, 11, 87
4, 302036, Control_c, 2, 11, 88
4, 302061, Control_c, 2, 11, 89
4, 302081, Control_c, 2, 11, 90
4, 302101, Control_c, 2, 11, 91
4, 302121, Control_c, 2, 11, 92
4, 302141, Control_c, 2, 11, 93
4, 302160, Control_c, 2, 11, 94
4, 302160, Control_c, 2, 11, 93
4, 302194, Note_on_c, 2, 73, 65
4, 302195, Control_c, 2, 11, 92
4, 302250, Control_c, 2, 11, 91
4, 302305, Control_c, 2, 11, 90
4, 302310, Note_on_c, 2, 66, 0
4, 302360, Control_c, 2, 11, 89
4, 302415, Control_c, 2, 11, 88
4, 302470, Control_c, 2, 11, 87
4, 302525, Control_c, 2, 11, 86
4, 302580, Control_c, 2, 11, 85
4, 302635, Control_c, 2, 11, 84
4, 302690, Control_c, 2, 11, 83
4, 302745, Control_c, 2, 11, 82
4, 302800, Control_c, 2, 11, 81
4, 302800, Note_on_c, 2, 72, 62
4, 302881, Note_on_c, 2, 73, 0
4, 302960, Control_c, 2, 11, 79
4, 303120, Control_c, 2, 11, 78
4, 303280, Control_c, 2, 11, 77
4, 303440, Control_c, 2, 11, 76
4, 303600, Control_c, 2, 11, 75
4, 303760, Control_c, 2, 11, 74
4, 303920, Control_c, 2, 11, 73
4, 304080, Control_c, 2, 11, 72
4, 304108, Note_on_c, 2, 71, 57
4, 304188, Note_on_c, 2, 72, 0
4, 304240, Control_c, 2, 11, 71
4, 304400, Control_c, 2, 11, 70
4, 304560, Control_c, 2, 11, 69
4, 304720, Control_c, 2, 11, 68
4, 304880, Control_c, 2, 11, 67
4, 305040, Control_c, 2, 11, 66
4, 305200, Control_c, 2, 11, 65
4, 305360, Control_c, 2, 11, 64
4, 305520, Control_c, 2, 11, 63
4, 305680, Control_c, 2, 11, 62
4, 305799, Note_on_c, 2, 64, 37
4, 305840, Control_c, 2, 11, 61
4, 305874, Note_on_c, 2, 71, 0
4, 306000, Control_c, 2, 11, 60
4, 312000, Control_c, 2, 11, 60
4, 312210, Control_c, 2, 11, 59
4, 312415, Control_c, 2, 11, 58
4, 312625, Control_c, 2, 11, 57
4, 312830, Control_c, 2, 11, 56
4, 313035, Control_c, 2, 11, 55
4, 313245, Control_c, 2, 11, 54
4, 313450, Control_c, 2, 11, 53
4, 313655, Control_c, 2, 11, 52
4, 313865, Control_c, 2, 11, 51
4, 314070, Control_c, 2, 11, 50
4, 314280, Control_c, 2, 11, 49
4, 314485, Control_c, 2, 11, 48
4, 314690, Control_c, 2, 11, 47
4, 314900, Control_c, 2, 11, 46
4, 315105, Control_c, 2, 11, 45
4, 315310, Control_c, 2, 11, 44
4, 315520, Control_c, 2, 11, 43
4, 315725, Control_c, 2, 11, 42
4, 315935, Control_c, 2, 11, 41
4, 316140, Control_c, 2, 11, 40
4, 316345, Control_c, 2, 11, 39
4, 316555, Control_c, 2, 11, 38
4, 316760, Control_c, 2, 11, 37
4, 316965, Control_c, 2, 11, 36
4, 317175, Control_c, 2, 11, 35
4, 317380, Control_c, 2, 11, 34
4, 317590, Control_c, 2, 11, 33
4, 317795, Control_c, 2, 11, 32
4, 317950, Note_on_c, 2, 64, 0
4, 318000, Control_c, 2, 11, 31
4, 319680, End_track
5, 0, Start_track
5, 0, Title_t, "Violini II"
5, 0, MIDI_port, 0
5, 100, Control_c, 3, 0, 0
5, 120, Control_c, 3, 32, 0
5, 140, Program_c, 3, 49
5, 160, Control_c, 3, 10, 49
5, 180, Control_c, 3, 7, 100
5, 200, Control_c, 3, 11, 80
5, 220, Control_c, 3, 1, 19
5, 240, Control_c, 3, 91, 60
5, 260, Control_c, 3, 93, 38
5, 280, Control_c, 3, 101, 0
5, 300, Control_c, 3, 100, 0
5, 320, Control_c, 3, 6, 12
5, 340, Pitch_bend_c, 3, 8208
5, 360, Control_c, 3, 99, 1
5, 380, Control_c, 3, 98, 32
5, 400, Control_c, 3, 6, 62
5, 420, Control_c, 3, 98, 33
5, 440, Control_c, 3, 6, 60
5, 460, Control_c, 3, 98, 99
5, 480, Control_c, 3, 6, 57
5, 500, Control_c, 3, 98, 100
5, 520, Control_c, 3, 6, 64
5, 540, Control_c, 3, 98, 102
5, 560, Control_c, 3, 6, 66
5, 580, Control_c, 3, 99, 1
5, 600, Control_c, 3, 98, 8
5, 620, Control_c, 3, 6, 90
5, 640, Control_c, 3, 98, 9
5, 660, Control_c, 3, 6, 50
5, 680, Control_c, 3, 98, 10
5, 705, Control_c, 3, 6, 70
5, 4614, Control_c, 3, 67, 127
5, 5333, Control_c, 3, 11, 20
5, 5333, Note_on_c, 3, 69, 31
5, 5338, Control_c, 3, 11, 26
5, 5343, Control_c, 3, 11, 29
5, 5348, Control_c, 3, 11, 32
5, 5353, Control_c, 3, 11, 35
5, 5358, Control_c, 3, 11, 38
5, 5363, Control_c, 3, 11, 41
5, 5368, Control_c, 3, 11, 43
5, 5373, Control_c, 3, 11, 46
5, 5378, Control_c, 3, 11, 48
5, 5383, Control_c, 3, 11, 50
5, 5388, Control_c, 3, 11, 52
5, 5393, Control_c, 3, 11, 54
5, 5398, Control_c, 3, 11, 55
5, 5403, Control_c, 3, 11, 57
5, 5408, Control_c, 3, 11, 58
5, 5413, Control_c, 3, 11, 60
5, 5418, Control_c, 3, 11, 61
5, 5423, Control_c, 3, 11, 62
5, 5428, Control_c, 3, 11, 64
5, 5433, Control_c, 3, 11, 65
5, 5443, Control_c, 3, 11, 67
5, 5453, Control_c, 3, 11, 68
5, 5458, Control_c, 3, 11, 69
5, 5463, Control_c, 3, 11, 70
5, 5473, Control_c, 3, 11, 71
5, 5478, Control_c, 3, 11, 72
5, 5488, Control_c, 3, 11, 73
5, 5498, Control_c, 3, 11, 74
5, 5508, Control_c, 3, 11, 75
5, 5523, Control_c, 3, 11, 76
5, 5538, Control_c, 3, 11, 77
5, 5563, Control_c, 3, 11, 78
5, 5593, Control_c, 3, 11, 79
5, 5638, Control_c, 3, 11, 80
5, 6339, Note_on_c, 3, 68, 28
5, 6417, Note_on_c, 3, 69, 0
5, 6628, Note_on_c, 3, 69, 33
5, 6656, Note_on_c, 3, 68, 0
5, 6932, Note_on_c, 3, 68, 31
5, 6971, Note_on_c, 3, 69, 0
5, 7272, Note_on_c, 3, 66, 37
5, 7305, Note_on_c, 3, 68, 0
5, 9298, Note_on_c, 3, 64, 42
5, 9327, Note_on_c, 3, 66, 0
5, 9869, Note_on_c, 3, 63, 45
5, 9907, Note_on_c, 3, 64, 0
5, 10042, Note_on_c, 3, 63, 0
5, 10102, Note_on_c, 3, 63, 45
5, 11408, Note_on_c, 3, 64, 42
5, 11449, Note_on_c, 3, 63, 0
5, 12710, Note_on_c, 3, 59, 37
5, 12719, Note_on_c, 3, 64, 0
5, 12848, Note_on_c, 3, 57, 31
5, 12854, Note_on_c, 3, 59, 0
5, 13592, Control_c, 3, 11, 80
5, 13592, Note_on_c, 3, 56, 33
5, 13642, Note_on_c, 3, 57, 0
5, 13797, Control_c, 3, 11, 79
5, 13877, Control_c, 3, 11, 78
5, 13932, Control_c, 3, 11, 77
5, 13972, Control_c, 3, 11, 76
5, 13997, Control_c, 3, 11, 75
5, 14032, Control_c, 3, 11, 74
5, 14052, Control_c, 3, 11, 73
5, 14072, Control_c, 3, 11, 72
5, 14087, Control_c, 3, 11, 71
5, 14097, Control_c, 3, 11, 70
5, 14117, Control_c, 3, 11, 69
5, 14132, Control_c, 3, 11, 68
5, 14142, Control_c, 3, 11, 67
5, 14147, Control_c, 3, 11, 66
5, 14157, Control_c, 3, 11, 65
5, 14172, Control_c, 3, 11, 64
5, 14182, Control_c, 3, 11, 63
5, 14187, Control_c, 3, 11, 62
5, 14192, Control_c, 3, 11, 61
5, 14202, Control_c, 3, 11, 60
5, 14207, Control_c, 3, 11, 59
5, 14217, Control_c, 3, 11, 58
5, 14222, Control_c, 3, 11, 57
5, 14227, Control_c, 3, 11, 56
5, 14232, Control_c, 3, 11, 55
5, 14242, Control_c, 3, 11, 54
5, 14247, Control_c, 3, 11, 53
5, 14252, Control_c, 3, 11, 52
5, 14257, Control_c, 3, 11, 51
5, 14262, Control_c, 3, 11, 50
5, 14267, Control_c, 3, 11, 48
5, 14277, Control_c, 3, 11, 46
5, 14282, Control_c, 3, 11, 45
5, 14287, Control_c, 3, 11, 44
5, 14292, Control_c, 3, 11, 42
5, 14297, Control_c, 3, 11, 41
5, 14302, Control_c, 3, 11, 40
5, 14307, Control_c, 3, 11, 39
5, 14312, Control_c, 3, 11, 37
5, 14317, Control_c, 3, 11, 36
5, 14322, Control_c, 3, 11, 34
5, 14327, Control_c, 3, 11, 32
5, 14332, Control_c, 3, 11, 31
5, 14337, Control_c, 3, 11, 29
5, 14342, Control_c, 3, 11, 28
5, 14347, Note_on_c, 3, 56, 0
5, 14347, Control_c, 3, 11, 25
5, 14352, Control_c, 3, 11, 23
5, 14357, Control_c, 3, 11, 21
5, 14362, Control_c, 3, 11, 19
5, 14367, Control_c, 3, 11, 18
5, 14372, Control_c, 3, 11, 15
5, 14377, Control_c, 3, 11, 12
5, 14382, Control_c, 3, 11, 10
5, 14387, Control_c, 3, 11, 7
5, 14392, Control_c, 3, 11, 6
5, 14397, Control_c, 3, 11, 1
5, 14400, Control_c, 3, 11, 0
5, 19471, Control_c, 3, 11, 19
5, 19471, Note_on_c, 3, 66, 27
5, 19476, Control_c, 3, 11, 24
5, 19481, Control_c, 3, 11, 27
5, 19486, Control_c, 3, 11, 30
5, 19491, Control_c, 3, 11, 34
5, 19496, Control_c, 3, 11, 37
5, 19501, Control_c, 3, 11, 39
5, 19506, Control_c, 3, 11, 41
5, 19511, Control_c, 3, 11, 44
5, 19516, Control_c, 3, 11, 46
5, 19521, Control_c, 3, 11, 48
5, 19526, Control_c, 3, 11, 50
5, 19531, Control_c, 3, 11, 52
5, 19536, Control_c, 3, 11, 54
5, 19541, Control_c, 3, 11, 55
5, 19546, Control_c, 3, 11, 57
5, 19551, Control_c, 3, 11, 58
5, 19556, Control_c, 3, 11, 60
5, 19561, Control_c, 3, 11, 61
5, 19566, Control_c, 3, 11, 62
5, 19571, Control_c, 3, 11, 63
5, 19576, Control_c, 3, 11, 64
5, 19581, Control_c, 3, 11, 65
5, 19586, Control_c, 3, 11, 66
5, 19591, Control_c, 3, 11, 67
5, 19596, Control_c, 3, 11, 68
5, 19601, Control_c, 3, 11, 69
5, 19611, Control_c, 3, 11, 70
5, 19621, Control_c, 3, 11, 71
5, 19626, Control_c, 3, 11, 72
5, 19636, Control_c, 3, 11, 73
5, 19646, Control_c, 3, 11, 74
5, 19656, Control_c, 3, 11, 75
5, 19676, Control_c, 3, 11, 76
5, 19691, Control_c, 3, 11, 77
5, 19711, Control_c, 3, 11, 78
5, 19741, Control_c, 3, 11, 79
5, 19791, Control_c, 3, 11, 80
5, 20562, Note_on_c, 3, 64, 31
5, 20613, Note_on_c, 3, 66, 0
5, 20886, Note_on_c, 3, 66, 33
5, 20911, Note_on_c, 3, 64, 0
5, 21152, Note_on_c, 3, 66, 0
5, 21152, Note_on_c, 3, 64, 28
5, 21512, Note_on_c, 3, 63, 28
5, 21596, Note_on_c, 3, 64, 0
5, 23541, Note_on_c, 3, 61, 28
5, 23672, Note_on_c, 3, 63, 0
5, 24092, Note_on_c, 3, 61, 0
5, 24095, Note_on_c, 3, 60, 35
5, 24305, Note_on_c, 3, 60, 0
5, 24349, Note_on_c, 3, 60, 42
5, 25837, Note_on_c, 3, 61, 31
5, 25846, Note_on_c, 3, 60, 0
5, 27146, Note_on_c, 3, 61, 0
5, 27158, Note_on_c, 3, 60, 31
5, 27945, Note_on_c, 3, 61, 28
5, 27970, Note_on_c, 3, 60, 0
5, 28080, Control_c, 3, 11, 80
5, 28200, Control_c, 3, 11, 79
5, 28250, Control_c, 3, 11, 78
5, 28285, Control_c, 3, 11, 77
5, 28305, Control_c, 3, 11, 76
5, 28320, Control_c, 3, 11, 75
5, 28345, Control_c, 3, 11, 74
5, 28355, Control_c, 3, 11, 73
5, 28365, Control_c, 3, 11, 72
5, 28375, Control_c, 3, 11, 71
5, 28380, Control_c, 3, 11, 70
5, 28395, Control_c, 3, 11, 69
5, 28400, Control_c, 3, 11, 68
5, 28405, Control_c, 3, 11, 67
5, 28410, Control_c, 3, 11, 66
5, 28415, Control_c, 3, 11, 65
5, 28425, Control_c, 3, 11, 64
5, 28430, Control_c, 3, 11, 63
5, 28435, Control_c, 3, 11, 62
5, 28440, Control_c, 3, 11, 60
5, 28445, Control_c, 3, 11, 59
5, 28450, Control_c, 3, 11, 58
5, 28455, Control_c, 3, 11, 57
5, 28460, Control_c, 3, 11, 55
5, 28465, Control_c, 3, 11, 54
5, 28470, Control_c, 3, 11, 52
5, 28475, Control_c, 3, 11, 50
5, 28480, Control_c, 3, 11, 49
5, 28485, Control_c, 3, 11, 47
5, 28490, Control_c, 3, 11, 45
5, 28495, Control_c, 3, 11, 43
5, 28500, Control_c, 3, 11, 40
5, 28505, Control_c, 3, 11, 38
5, 28510, Control_c, 3, 11, 36
5, 28515, Control_c, 3, 11, 33
5, 28520, Control_c, 3, 11, 30
5, 28525, Control_c, 3, 11, 28
5, 28530, Control_c, 3, 11, 24
5, 28535, Control_c, 3, 11, 20
5, 28540, Control_c, 3, 11, 18
5, 28545, Control_c, 3, 11, 13
5, 28550, Control_c, 3, 11, 9
5, 28555, Control_c, 3, 11, 6
5, 28560, Control_c, 3, 11, 0
5, 28662, Note_on_c, 3, 61, 0
5, 30232, Control_c, 3, 11, 15
5, 30232, Note_on_c, 3, 57, 43
5, 30237, Control_c, 3, 11, 18
5, 30242, Control_c, 3, 11, 20
5, 30247, Control_c, 3, 11, 21
5, 30252, Control_c, 3, 11, 23
5, 30257, Control_c, 3, 11, 25
5, 30262, Control_c, 3, 11, 26
5, 30267, Control_c, 3, 11, 27
5, 30272, Control_c, 3, 11, 29
5, 30277, Control_c, 3, 11, 30
5, 30282, Control_c, 3, 11, 31
5, 30287, Control_c, 3, 11, 32
5, 30292, Control_c, 3, 11, 33
5, 30297, Control_c, 3, 11, 34
5, 30302, Control_c, 3, 11, 35
5, 30307, Control_c, 3, 11, 36
5, 30312, Control_c, 3, 11, 37
5, 30322, Control_c, 3, 11, 38
5, 30327, Control_c, 3, 11, 39
5, 30337, Control_c, 3, 11, 40
5, 30342, Control_c, 3, 11, 41
5, 30352, Control_c, 3, 11, 42
5, 30362, Control_c, 3, 11, 43
5, 30372, Control_c, 3, 11, 44
5, 30387, Control_c, 3, 11, 45
5, 30402, Control_c, 3, 11, 46
5, 30422, Control_c, 3, 11, 47
5, 30447, Control_c, 3, 11, 48
5, 30482, Control_c, 3, 11, 49
5, 30537, Control_c, 3, 11, 50
5, 30557, Control_c, 3, 11, 51
5, 30577, Control_c, 3, 11, 52
5, 30597, Control_c, 3, 11, 53
5, 30617, Control_c, 3, 11, 54
5, 30637, Control_c, 3, 11, 55
5, 30652, Control_c, 3, 11, 56
5, 30672, Control_c, 3, 11, 57
5, 30692, Control_c, 3, 11, 58
5, 30712, Control_c, 3, 11, 59
5, 30732, Control_c, 3, 11, 60
5, 30747, Control_c, 3, 11, 61
5, 30767, Control_c, 3, 11, 62
5, 30787, Control_c, 3, 11, 63
5, 30807, Control_c, 3, 11, 64
5, 30827, Control_c, 3, 11, 65
5, 30842, Control_c, 3, 11, 66
5, 30862, Control_c, 3, 11, 67
5, 30882, Control_c, 3, 11, 68
5, 30902, Control_c, 3, 11, 69
5, 30922, Control_c, 3, 11, 70
5, 30937, Control_c, 3, 11, 71
5, 30957, Control_c, 3, 11, 72
5, 30977, Control_c, 3, 11, 73
5, 30997, Control_c, 3, 11, 74
5, 31017, Control_c, 3, 11, 75
5, 31032, Control_c, 3, 11, 76
5, 31052, Control_c, 3, 11, 77
5, 31072, Control_c, 3, 11, 78
5, 31092, Control_c, 3, 11, 79
5, 31112, Control_c, 3, 11, 80
5, 31132, Control_c, 3, 11, 81
5, 31147, Control_c, 3, 11, 82
5, 31167, Control_c, 3, 11, 83
5, 31187, Control_c, 3, 11, 84
5, 31207, Control_c, 3, 11, 85
5, 31227, Control_c, 3, 11, 86
5, 31242, Control_c, 3, 11, 87
5, 31262, Control_c, 3, 11, 88
5, 31282, Control_c, 3, 11, 89
5, 31302, Control_c, 3, 11, 90
5, 31322, Control_c, 3, 11, 91
5, 31337, Control_c, 3, 11, 92
5, 31357, Control_c, 3, 11, 93
5, 31377, Control_c, 3, 11, 94
5, 31397, Control_c, 3, 11, 95
5, 31417, Control_c, 3, 11, 96
5, 31432, Control_c, 3, 11, 97
5, 31452, Control_c, 3, 11, 98
5, 31472, Control_c, 3, 11, 99
5, 31492, Control_c, 3, 11, 100
5, 31512, Control_c, 3, 11, 101
5, 31527, Control_c, 3, 11, 102
5, 31547, Control_c, 3, 11, 103
5, 31567, Control_c, 3, 11, 104
5, 31587, Control_c, 3, 11, 105
5, 31607, Control_c, 3, 11, 106
5, 31622, Control_c, 3, 11, 107
5, 31642, Control_c, 3, 11, 108
5, 31662, Control_c, 3, 11, 109
5, 31680, Control_c, 3, 11, 110
5, 31680, Control_c, 3, 11, 110
5, 31712, Control_c, 3, 11, 109
5, 31744, Control_c, 3, 11, 108
5, 31776, Control_c, 3, 11, 107
5, 31808, Control_c, 3, 11, 106
5, 31840, Control_c, 3, 11, 105
5, 31872, Control_c, 3, 11, 104
5, 31904, Control_c, 3, 11, 103
5, 31936, Control_c, 3, 11, 102
5, 31968, Control_c, 3, 11, 101
5, 32000, Control_c, 3, 11, 100
5, 32032, Control_c, 3, 11, 99
5, 32064, Control_c, 3, 11, 98
5, 32096, Control_c, 3, 11, 97
5, 32128, Control_c, 3, 11, 96
5, 32160, Control_c, 3, 11, 95
5, 32192, Control_c, 3, 11, 94
5, 32224, Control_c, 3, 11, 93
5, 32256, Control_c, 3, 11, 92
5, 32288, Control_c, 3, 11, 91
5, 32320, Control_c, 3, 11, 90
5, 32352, Control_c, 3, 11, 89
5, 32384, Control_c, 3, 11, 88
5, 32416, Control_c, 3, 11, 87
5, 32448, Control_c, 3, 11, 86
5, 32480, Control_c, 3, 11, 85
5, 32508, Note_on_c, 3, 59, 30
5, 32512, Control_c, 3, 11, 84
5, 32544, Control_c, 3, 11, 83
5, 32552, Note_on_c, 3, 57, 0
5, 32576, Control_c, 3, 11, 82
5, 32608, Control_c, 3, 11, 81
5, 32639, Control_c, 3, 11, 80
5, 33600, Control_c, 3, 11, 80
5, 33780, Control_c, 3, 11, 79
5, 33855, Control_c, 3, 11, 78
5, 33905, Control_c, 3, 11, 77
5, 33935, Control_c, 3, 11, 76
5, 33960, Control_c, 3, 11, 75
5, 33995, Control_c, 3, 11, 74
5, 34010, Control_c, 3, 11, 73
5, 34025, Control_c, 3, 11, 72
5, 34040, Control_c, 3, 11, 71
5, 34050, Control_c, 3, 11, 70
5, 34070, Control_c, 3, 11, 69
5, 34080, Control_c, 3, 11, 68
5, 34090, Control_c, 3, 11, 67
5, 34095, Control_c, 3, 11, 66
5, 34105, Control_c, 3, 11, 65
5, 34115, Control_c, 3, 11, 64
5, 34125, Control_c, 3, 11, 63
5, 34130, Control_c, 3, 11, 62
5, 34135, Control_c, 3, 11, 61
5, 34140, Control_c, 3, 11, 60
5, 34150, Control_c, 3, 11, 59
5, 34155, Control_c, 3, 11, 58
5, 34160, Control_c, 3, 11, 57
5, 34165, Control_c, 3, 11, 56
5, 34175, Control_c, 3, 11, 55
5, 34180, Control_c, 3, 11, 54
5, 34185, Control_c, 3, 11, 52
5, 34190, Control_c, 3, 11, 51
5, 34195, Control_c, 3, 11, 50
5, 34200, Control_c, 3, 11, 49
5, 34205, Control_c, 3, 11, 48
5, 34210, Control_c, 3, 11, 46
5, 34215, Control_c, 3, 11, 45
5, 34220, Control_c, 3, 11, 44
5, 34225, Control_c, 3, 11, 42
5, 34230, Control_c, 3, 11, 40
5, 34235, Control_c, 3, 11, 39
5, 34240, Control_c, 3, 11, 38
5, 34245, Control_c, 3, 11, 36
5, 34250, Control_c, 3, 11, 34
5, 34255, Control_c, 3, 11, 32
5, 34260, Control_c, 3, 11, 31
5, 34265, Control_c, 3, 11, 29
5, 34270, Control_c, 3, 11, 26
5, 34275, Control_c, 3, 11, 24
5, 34280, Control_c, 3, 11, 21
5, 34285, Control_c, 3, 11, 20
5, 34290, Control_c, 3, 11, 18
5, 34295, Control_c, 3, 11, 15
5, 34300, Control_c, 3, 11, 12
5, 34305, Control_c, 3, 11, 9
5, 34310, Control_c, 3, 11, 7
5, 34315, Control_c, 3, 11, 4
5, 34320, Control_c, 3, 11, 0
5, 34626, Note_on_c, 3, 59, 0
5, 56362, Control_c, 3, 11, 80
5, 56362, Note_on_c, 3, 59, 31
5, 56390, Control_c, 3, 11, 81
5, 56417, Control_c, 3, 11, 82
5, 56444, Control_c, 3, 11, 83
5, 56471, Control_c, 3, 11, 84
5, 56498, Control_c, 3, 11, 85
5, 56525, Control_c, 3, 11, 86
5, 56552, Control_c, 3, 11, 87
5, 56579, Control_c, 3, 11, 88
5, 56607, Control_c, 3, 11, 89
5, 56634, Control_c, 3, 11, 90
5, 56661, Control_c, 3, 11, 91
5, 56688, Control_c, 3, 11, 92
5, 56715, Control_c, 3, 11, 93
5, 56742, Control_c, 3, 11, 94
5, 56769, Control_c, 3, 11, 95
5, 56796, Control_c, 3, 11, 96
5, 56824, Control_c, 3, 11, 97
5, 56851, Control_c, 3, 11, 98
5, 56878, Control_c, 3, 11, 99
5, 56905, Control_c, 3, 11, 100
5, 56932, Control_c, 3, 11, 101
5, 56959, Control_c, 3, 11, 102
5, 56986, Control_c, 3, 11, 103
5, 57013, Control_c, 3, 11, 104
5, 57041, Control_c, 3, 11, 105
5, 57068, Control_c, 3, 11, 106
5, 57095, Control_c, 3, 11, 107
5, 57122, Control_c, 3, 11, 108
5, 57149, Control_c, 3, 11, 109
5, 57176, Control_c, 3, 11, 110
5, 57203, Control_c, 3, 11, 111
5, 57230, Control_c, 3, 11, 112
5, 57258, Control_c, 3, 11, 113
5, 57285, Control_c, 3, 11, 114
5, 57312, Control_c, 3, 11, 115
5, 57339, Control_c, 3, 11, 116
5, 57366, Control_c, 3, 11, 117
5, 57393, Control_c, 3, 11, 118
5, 57420, Control_c, 3, 11, 119
5, 57447, Control_c, 3, 11, 120
5, 57448, Note_on_c, 3, 56, 32
5, 57469, Control_c, 3, 11, 119
5, 57491, Control_c, 3, 11, 118
5, 57509, Note_on_c, 3, 59, 0
5, 57513, Control_c, 3, 11, 117
5, 57535, Control_c, 3, 11, 116
5, 57556, Control_c, 3, 11, 115
5, 57578, Control_c, 3, 11, 114
5, 57600, Control_c, 3, 11, 113
5, 57622, Control_c, 3, 11, 112
5, 57644, Control_c, 3, 11, 111
5, 57665, Control_c, 3, 11, 110
5, 57687, Control_c, 3, 11, 109
5, 57709, Control_c, 3, 11, 108
5, 57731, Control_c, 3, 11, 107
5, 57753, Control_c, 3, 11, 106
5, 57763, Note_on_c, 3, 58, 36
5, 57774, Control_c, 3, 11, 105
5, 57796, Control_c, 3, 11, 104
5, 57818, Control_c, 3, 11, 103
5, 57840, Note_on_c, 3, 56, 0
5, 57840, Control_c, 3, 11, 102
5, 57862, Control_c, 3, 11, 101
5, 57883, Control_c, 3, 11, 100
5, 57905, Control_c, 3, 11, 99
5, 57927, Control_c, 3, 11, 98
5, 57949, Control_c, 3, 11, 97
5, 57971, Control_c, 3, 11, 96
5, 57992, Control_c, 3, 11, 95
5, 58014, Control_c, 3, 11, 94
5, 58036, Control_c, 3, 11, 93
5, 58058, Control_c, 3, 11, 92
5, 58080, Control_c, 3, 11, 91
5, 58101, Control_c, 3, 11, 90
5, 58123, Control_c, 3, 11, 89
5, 58134, Note_on_c, 3, 59, 39
5, 58145, Control_c, 3, 11, 88
5, 58159, Note_on_c, 3, 58, 0
5, 58167, Control_c, 3, 11, 87
5, 58189, Control_c, 3, 11, 86
5, 58210, Control_c, 3, 11, 85
5, 58232, Control_c, 3, 11, 84
5, 58254, Control_c, 3, 11, 83
5, 58276, Control_c, 3, 11, 82
5, 58298, Control_c, 3, 11, 81
5, 58319, Control_c, 3, 11, 80
5, 60322, Note_on_c, 3, 56, 51
5, 60646, Note_on_c, 3, 59, 0
5, 62447, Note_on_c, 3, 58, 57
5, 62579, Note_on_c, 3, 56, 0
5, 64446, Note_on_c, 3, 59, 49
5, 64585, Note_on_c, 3, 58, 0
5, 66348, Note_on_c, 3, 59, 0
5, 66408, Note_on_c, 3, 61, 51
5, 67400, Note_on_c, 3, 61, 0
5, 67407, Control_c, 3, 11, 50
5, 67407, Note_on_c, 3, 63, 74
5, 67465, Control_c, 3, 11, 51
5, 67522, Control_c, 3, 11, 52
5, 67579, Control_c, 3, 11, 53
5, 67636, Control_c, 3, 11, 54
5, 67693, Control_c, 3, 11, 55
5, 67750, Control_c, 3, 11, 56
5, 67807, Control_c, 3, 11, 57
5, 67864, Control_c, 3, 11, 58
5, 67921, Control_c, 3, 11, 59
5, 67978, Control_c, 3, 11, 60
5, 68035, Control_c, 3, 11, 61
5, 68092, Control_c, 3, 11, 62
5, 68149, Control_c, 3, 11, 63
5, 68206, Control_c, 3, 11, 64
5, 68263, Control_c, 3, 11, 65
5, 68321, Control_c, 3, 11, 66
5, 68378, Control_c, 3, 11, 67
5, 68435, Control_c, 3, 11, 68
5, 68492, Control_c, 3, 11, 69
5, 68549, Control_c, 3, 11, 70
5, 68606, Control_c, 3, 11, 71
5, 68663, Control_c, 3, 11, 72
5, 68720, Control_c, 3, 11, 73
5, 68777, Control_c, 3, 11, 74
5, 68834, Control_c, 3, 11, 75
5, 68891, Control_c, 3, 11, 76
5, 68948, Control_c, 3, 11, 77
5, 69005, Control_c, 3, 11, 78
5, 69062, Control_c, 3, 11, 79
5, 69081, Note_on_c, 3, 64, 80
5, 69119, Control_c, 3, 11, 80
5, 69147, Note_on_c, 3, 63, 0
5, 69926, Note_on_c, 3, 63, 78
5, 70027, Note_on_c, 3, 64, 0
5, 71201, Note_on_c, 3, 64, 61
5, 71276, Note_on_c, 3, 63, 0
5, 71865, Note_on_c, 3, 64, 0
5, 72904, Note_on_c, 3, 64, 43
5, 75677, Note_on_c, 3, 64, 0
5, 79840, Note_on_c, 3, 59, 54
5, 80368, Note_on_c, 3, 61, 60
5, 80434, Note_on_c, 3, 59, 0
5, 80961, Note_on_c, 3, 63, 47
5, 80995, Note_on_c, 3, 61, 0
5, 81507, Note_on_c, 3, 63, 0
5, 83799, Note_on_c, 3, 59, 54
5, 84239, Note_on_c, 3, 61, 58
5, 84378, Note_on_c, 3, 59, 0
5, 84786, Note_on_c, 3, 63, 61
5, 84831, Note_on_c, 3, 61, 0
5, 86357, Note_on_c, 3, 61, 60
5, 86416, Note_on_c, 3, 63, 0
5, 86691, Note_on_c, 3, 61, 0
5, 86772, Note_on_c, 3, 61, 72
5, 87637, Note_on_c, 3, 66, 76
5, 87726, Note_on_c, 3, 61, 0
5, 90242, Note_on_c, 3, 65, 60
5, 90294, Note_on_c, 3, 66, 0
5, 91411, Note_on_c, 3, 66, 49
5, 91481, Note_on_c, 3, 65, 0
5, 92051, Note_on_c, 3, 66, 0
5, 96640, Note_on_c, 3, 59, 64
5, 97043, Note_on_c, 3, 61, 67
5, 97144, Note_on_c, 3, 59, 0
5, 97624, Note_on_c, 3, 63, 69
5, 97665, Note_on_c, 3, 61, 0
5, 98026, Note_on_c, 3, 63, 0
5, 100802, Note_on_c, 3, 59, 63
5, 101450, Note_on_c, 3, 61, 66
5, 101523, Note_on_c, 3, 59, 0
5, 102169, Note_on_c, 3, 63, 76
5, 102231, Note_on_c, 3, 61, 0
5, 103758, Note_on_c, 3, 57, 84
5, 103787, Note_on_c, 3, 63, 0
5, 104244, Note_on_c, 3, 56, 95
5, 104356, Note_on_c, 3, 57, 0
5, 104807, Note_on_c, 3, 61, 91
5, 104812, Note_on_c, 3, 56, 0
5, 105361, Note_on_c, 3, 59, 101
5, 105394, Note_on_c, 3, 61, 0
5, 106004, Note_on_c, 3, 59, 0
5, 106021, Note_on_c, 3, 65, 103
5, 107044, Note_on_c, 3, 66, 96
5, 107087, Note_on_c, 3, 65, 0
5, 107802, Note_on_c, 3, 66, 0
5, 109263, Note_on_c, 3, 64, 54
5, 109900, Note_on_c, 3, 63, 42
5, 110028, Note_on_c, 3, 64, 0
5, 110596, Note_on_c, 3, 63, 0
5, 112723, Note_on_c, 3, 66, 52
5, 113166, Note_on_c, 3, 64, 64
5, 113208, Note_on_c, 3, 66, 0
5, 114369, Note_on_c, 3, 63, 49
5, 114465, Note_on_c, 3, 64, 0
5, 115050, Note_on_c, 3, 63, 0
5, 117247, Note_on_c, 3, 66, 53
5, 117853, Note_on_c, 3, 64, 63
5, 117911, Note_on_c, 3, 66, 0
5, 119521, Note_on_c, 3, 64, 0
5, 119525, Note_on_c, 3, 63, 48
5, 120516, Note_on_c, 3, 63, 0
5, 120585, Note_on_c, 3, 63, 36
5, 120872, Note_on_c, 3, 63, 0
5, 121110, Note_on_c, 3, 63, 32
5, 121291, Note_on_c, 3, 63, 0
5, 121626, Note_on_c, 3, 63, 29
5, 121778, Note_on_c, 3, 63, 0
5, 124833, Control_c, 3, 11, 30
5, 124833, Note_on_c, 3, 75, 38
5, 124838, Control_c, 3, 11, 33
5, 124843, Control_c, 3, 11, 35
5, 124848, Control_c, 3, 11, 37
5, 124853, Control_c, 3, 11, 39
5, 124858, Control_c, 3, 11, 40
5, 124863, Control_c, 3, 11, 42
5, 124868, Control_c, 3, 11, 44
5, 124873, Control_c, 3, 11, 45
5, 124878, Control_c, 3, 11, 47
5, 124883, Control_c, 3, 11, 48
5, 124888, Control_c, 3, 11, 50
5, 124893, Control_c, 3, 11, 51
5, 124898, Control_c, 3, 11, 52
5, 124903, Control_c, 3, 11, 53
5, 124908, Control_c, 3, 11, 54
5, 124913, Control_c, 3, 11, 55
5, 124918, Control_c, 3, 11, 56
5, 124923, Control_c, 3, 11, 57
5, 124928, Control_c, 3, 11, 58
5, 124933, Control_c, 3, 11, 59
5, 124938, Control_c, 3, 11, 60
5, 124943, Control_c, 3, 11, 61
5, 124948, Control_c, 3, 11, 62
5, 124953, Control_c, 3, 11, 63
5, 124963, Control_c, 3, 11, 64
5, 124968, Control_c, 3, 11, 65
5, 124978, Control_c, 3, 11, 66
5, 124988, Control_c, 3, 11, 67
5, 124993, Control_c, 3, 11, 68
5, 125003, Control_c, 3, 11, 69
5, 125013, Control_c, 3, 11, 70
5, 125023, Control_c, 3, 11, 71
5, 125038, Control_c, 3, 11, 72
5, 125053, Control_c, 3, 11, 73
5, 125068, Control_c, 3, 11, 74
5, 125088, Control_c, 3, 11, 75
5, 125108, Control_c, 3, 11, 76
5, 125133, Control_c, 3, 11, 77
5, 125168, Control_c, 3, 11, 78
5, 125213, Control_c, 3, 11, 79
5, 125283, Control_c, 3, 11, 80
5, 125497, Note_on_c, 3, 73, 35
5, 125573, Note_on_c, 3, 75, 0
5, 126110, Note_on_c, 3, 71, 38
5, 126150, Note_on_c, 3, 73, 0
5, 126372, Note_on_c, 3, 73, 34
5, 126416, Note_on_c, 3, 71, 0
5, 126604, Note_on_c, 3, 71, 32
5, 126640, Note_on_c, 3, 73, 0
5, 126891, Note_on_c, 3, 69, 31
5, 126964, Note_on_c, 3, 71, 0
5, 127562, Note_on_c, 3, 66, 39
5, 127625, Note_on_c, 3, 69, 0
5, 128127, Note_on_c, 3, 64, 40
5, 128150, Note_on_c, 3, 66, 0
5, 128366, Note_on_c, 3, 66, 42
5, 128554, Note_on_c, 3, 64, 0
5, 129201, Note_on_c, 3, 64, 36
5, 129252, Note_on_c, 3, 66, 0
5, 129643, Note_on_c, 3, 63, 36
5, 129746, Note_on_c, 3, 64, 0
5, 130280, Note_on_c, 3, 64, 27
5, 130337, Note_on_c, 3, 63, 0
5, 131594, Note_on_c, 3, 59, 45
5, 131972, Note_on_c, 3, 64, 0
5, 132643, Note_on_c, 3, 59, 0
5, 132688, Note_on_c, 3, 59, 40
5, 135767, Note_on_c, 3, 61, 64
5, 135875, Note_on_c, 3, 59, 0
5, 136310, Note_on_c, 3, 59, 70
5, 136389, Note_on_c, 3, 61, 0
5, 136864, Note_on_c, 3, 64, 67
5, 136924, Note_on_c, 3, 59, 0
5, 137371, Note_on_c, 3, 64, 0
5, 137404, Note_on_c, 3, 64, 76
5, 138568, Note_on_c, 3, 63, 61
5, 138705, Note_on_c, 3, 64, 0
5, 140174, Note_on_c, 3, 64, 41
5, 140229, Note_on_c, 3, 63, 0
5, 141219, Note_on_c, 3, 64, 0
5, 142348, Note_on_c, 3, 62, 48
5, 143766, Note_on_c, 3, 61, 36
5, 143929, Note_on_c, 3, 62, 0
5, 148622, Note_on_c, 3, 63, 49
5, 148692, Note_on_c, 3, 61, 0
5, 149647, Note_on_c, 3, 64, 57
5, 149706, Note_on_c, 3, 63, 0
5, 150240, Note_on_c, 3, 64, 0
5, 150372, Note_on_c, 3, 69, 55
5, 151543, Note_on_c, 3, 64, 47
5, 151603, Note_on_c, 3, 69, 0
5, 152873, Note_on_c, 3, 63, 30
5, 152980, Note_on_c, 3, 64, 0
5, 153444, Note_on_c, 3, 64, 37
5, 153490, Note_on_c, 3, 63, 0
5, 155278, Note_on_c, 3, 64, 0
5, 156511, Note_on_c, 3, 60, 86
5, 157102, Note_on_c, 3, 61, 86
5, 157148, Note_on_c, 3, 60, 0
5, 157356, Note_on_c, 3, 63, 80
5, 157407, Note_on_c, 3, 61, 0
5, 157673, Note_on_c, 3, 64, 67
5, 157710, Note_on_c, 3, 63, 0
5, 158006, Note_on_c, 3, 64, 0
5, 158101, Note_on_c, 3, 61, 80
5, 158319, Note_on_c, 3, 63, 72
5, 158345, Note_on_c, 3, 61, 0
5, 158589, Note_on_c, 3, 64, 62
5, 158613, Note_on_c, 3, 63, 0
5, 158843, Note_on_c, 3, 64, 0
5, 159046, Note_on_c, 3, 63, 74
5, 159249, Note_on_c, 3, 64, 79
5, 159258, Note_on_c, 3, 63, 0
5, 159492, Note_on_c, 3, 66, 73
5, 159516, Note_on_c, 3, 64, 0
5, 159692, Note_on_c, 3, 66, 0
5, 159904, Note_on_c, 3, 63, 61
5, 160127, Note_on_c, 3, 64, 65
5, 160141, Note_on_c, 3, 63, 0
5, 160356, Note_on_c, 3, 66, 50
5, 160377, Note_on_c, 3, 64, 0
5, 160544, Note_on_c, 3, 66, 0
5, 160745, Note_on_c, 3, 63, 70
5, 161062, Note_on_c, 3, 64, 62
5, 161066, Note_on_c, 3, 63, 0
5, 161318, Note_on_c, 3, 64, 0
5, 161367, Note_on_c, 3, 66, 42
5, 161589, Note_on_c, 3, 66, 0
5, 161767, Note_on_c, 3, 63, 73
5, 161999, Note_on_c, 3, 64, 58
5, 162017, Note_on_c, 3, 63, 0
5, 162271, Note_on_c, 3, 66, 48
5, 162276, Note_on_c, 3, 64, 0
5, 162543, Note_on_c, 3, 66, 0
5, 162928, Note_on_c, 3, 61, 62
5, 163195, Note_on_c, 3, 63, 61
5, 163239, Note_on_c, 3, 61, 0
5, 163428, Note_on_c, 3, 64, 55
5, 163506, Note_on_c, 3, 63, 0
5, 163664, Note_on_c, 3, 64, 0
5, 163860, Note_on_c, 3, 61, 57
5, 164134, Note_on_c, 3, 63, 51
5, 164198, Note_on_c, 3, 61, 0
5, 164428, Note_on_c, 3, 63, 0
5, 164431, Note_on_c, 3, 64, 43
5, 164654, Note_on_c, 3, 64, 0
5, 164926, Note_on_c, 3, 64, 48
5, 165229, Note_on_c, 3, 66, 57
5, 165285, Note_on_c, 3, 64, 0
5, 165500, Note_on_c, 3, 64, 59
5, 165558, Note_on_c, 3, 66, 0
5, 165974, Note_on_c, 3, 63, 64
5, 166127, Note_on_c, 3, 64, 0
5, 166199, Note_on_c, 3, 61, 74
5, 166271, Note_on_c, 3, 63, 0
5, 166439, Note_on_c, 3, 60, 65
5, 166469, Note_on_c, 3, 61, 0
5, 166864, Note_on_c, 3, 61, 52
5, 166947, Note_on_c, 3, 60, 0
5, 167183, Note_on_c, 3, 63, 67
5, 167232, Note_on_c, 3, 61, 0
5, 167373, Note_on_c, 3, 64, 65
5, 167406, Note_on_c, 3, 63, 0
5, 167795, Note_on_c, 3, 63, 72
5, 167847, Note_on_c, 3, 64, 0
5, 168110, Note_on_c, 3, 61, 67
5, 168156, Note_on_c, 3, 63, 0
5, 168369, Note_on_c, 3, 60, 58
5, 168398, Note_on_c, 3, 61, 0
5, 168770, Note_on_c, 3, 61, 57
5, 168853, Note_on_c, 3, 60, 0
5, 169005, Note_on_c, 3, 63, 66
5, 169138, Note_on_c, 3, 61, 0
5, 169273, Note_on_c, 3, 64, 61
5, 169340, Note_on_c, 3, 63, 0
5, 169540, Note_on_c, 3, 64, 0
5, 169778, Note_on_c, 3, 64, 65
5, 170015, Note_on_c, 3, 61, 58
5, 170064, Note_on_c, 3, 64, 0
5, 170232, Note_on_c, 3, 60, 65
5, 170273, Note_on_c, 3, 61, 0
5, 170438, Note_on_c, 3, 61, 60
5, 170499, Note_on_c, 3, 60, 0
5, 170698, Note_on_c, 3, 60, 58
5, 170715, Note_on_c, 3, 61, 0
5, 171774, Note_on_c, 3, 60, 0
5, 183668, Note_on_c, 3, 59, 81
5, 185075, Note_on_c, 3, 58, 72
5, 185229, Note_on_c, 3, 59, 0
5, 185636, Note_on_c, 3, 56, 67
5, 185750, Note_on_c, 3, 58, 0
5, 187681, Note_on_c, 3, 58, 44
5, 187769, Note_on_c, 3, 56, 0
5, 188224, Note_on_c, 3, 58, 0
5, 188321, Note_on_c, 3, 65, 68
5, 188971, Note_on_c, 3, 63, 61
5, 189193, Note_on_c, 3, 65, 0
5, 189562, Note_on_c, 3, 61, 51
5, 189629, Note_on_c, 3, 63, 0
5, 190442, Note_on_c, 3, 60, 44
5, 190483, Note_on_c, 3, 61, 0
5, 191170, Note_on_c, 3, 60, 0
5, 191203, Note_on_c, 3, 63, 57
5, 191733, Note_on_c, 3, 60, 59
5, 191771, Note_on_c, 3, 63, 0
5, 192232, Note_on_c, 3, 63, 57
5, 192346, Note_on_c, 3, 60, 0
5, 192719, Note_on_c, 3, 61, 61
5, 192824, Note_on_c, 3, 63, 0
5, 193242, Note_on_c, 3, 63, 46
5, 193318, Note_on_c, 3, 61, 0
5, 193679, Note_on_c, 3, 61, 54
5, 193733, Note_on_c, 3, 63, 0
5, 194222, Note_on_c, 3, 63, 56
5, 194369, Note_on_c, 3, 61, 0
5, 194820, Note_on_c, 3, 60, 50
5, 194855, Note_on_c, 3, 63, 0
5, 195505, Note_on_c, 3, 63, 47
5, 195582, Note_on_c, 3, 60, 0
5, 195966, Note_on_c, 3, 60, 41
5, 196050, Note_on_c, 3, 63, 0
5, 196416, Note_on_c, 3, 63, 54
5, 196512, Note_on_c, 3, 60, 0
5, 196918, Note_on_c, 3, 61, 52
5, 196950, Note_on_c, 3, 63, 0
5, 197498, Note_on_c, 3, 63, 42
5, 197778, Note_on_c, 3, 61, 0
5, 198013, Note_on_c, 3, 61, 45
5, 198083, Note_on_c, 3, 63, 0
5, 198478, Note_on_c, 3, 63, 40
5, 198542, Note_on_c, 3, 61, 0
5, 199031, Note_on_c, 3, 60, 46
5, 199107, Note_on_c, 3, 63, 0
5, 199640, Note_on_c, 3, 63, 57
5, 199840, Note_on_c, 3, 60, 0
5, 200117, Note_on_c, 3, 62, 60
5, 200162, Note_on_c, 3, 63, 0
5, 200544, Note_on_c, 3, 58, 70
5, 200665, Note_on_c, 3, 62, 0
5, 200999, Note_on_c, 3, 63, 76
5, 201174, Note_on_c, 3, 58, 0
5, 201464, Note_on_c, 3, 58, 68
5, 201529, Note_on_c, 3, 63, 0
5, 202007, Note_on_c, 3, 63, 75
5, 202107, Note_on_c, 3, 58, 0
5, 205077, Note_on_c, 3, 62, 68
5, 205132, Note_on_c, 3, 63, 0
5, 206419, Note_on_c, 3, 63, 36
5, 206487, Note_on_c, 3, 62, 0
5, 207110, Note_on_c, 3, 63, 0
5, 209727, Note_on_c, 3, 63, 58
5, 210165, Note_on_c, 3, 60, 64
5, 210230, Note_on_c, 3, 63, 0
5, 210592, Note_on_c, 3, 63, 56
5, 210684, Note_on_c, 3, 60, 0
5, 211258, Note_on_c, 3, 61, 45
5, 211374, Note_on_c, 3, 63, 0
5, 211897, Note_on_c, 3, 63, 45
5, 212056, Note_on_c, 3, 61, 0
5, 212424, Note_on_c, 3, 61, 35
5, 212487, Note_on_c, 3, 63, 0
5, 212851, Note_on_c, 3, 63, 53
5, 213019, Note_on_c, 3, 61, 0
5, 213511, Note_on_c, 3, 60, 52
5, 213567, Note_on_c, 3, 63, 0
5, 214143, Note_on_c, 3, 60, 0
5, 214186, Note_on_c, 3, 63, 59
5, 214616, Note_on_c, 3, 60, 60
5, 214649, Note_on_c, 3, 63, 0
5, 215205, Note_on_c, 3, 63, 63
5, 215222, Note_on_c, 3, 60, 0
5, 215915, Note_on_c, 3, 61, 53
5, 215921, Note_on_c, 3, 63, 0
5, 216457, Note_on_c, 3, 63, 55
5, 216477, Note_on_c, 3, 61, 0
5, 217039, Note_on_c, 3, 61, 42
5, 217088, Note_on_c, 3, 63, 0
5, 217756, Note_on_c, 3, 63, 46
5, 217817, Note_on_c, 3, 61, 0
5, 218598, Note_on_c, 3, 60, 54
5, 218646, Note_on_c, 3, 63, 0
5, 219190, Note_on_c, 3, 63, 70
5, 219272, Note_on_c, 3, 60, 0
5, 219761, Note_on_c, 3, 66, 83
5, 219931, Note_on_c, 3, 63, 0
5, 220866, Note_on_c, 3, 65, 73
5, 220909, Note_on_c, 3, 66, 0
5, 221499, Note_on_c, 3, 64, 84
5, 221540, Note_on_c, 3, 65, 0
5, 222083, Note_on_c, 3, 65, 96
5, 222117, Note_on_c, 3, 64, 0
5, 222891, Note_on_c, 3, 58, 103
5, 222892, Note_on_c, 3, 65, 0
5, 223928, Note_on_c, 3, 60, 108
5, 223934, Note_on_c, 3, 58, 0
5, 225734, Note_on_c, 3, 61, 58
5, 225757, Note_on_c, 3, 60, 0
5, 227336, Note_on_c, 3, 60, 31
5, 227388, Note_on_c, 3, 61, 0
5, 228081, Note_on_c, 3, 60, 0
5, 230289, Note_on_c, 3, 63, 67
5, 230753, Note_on_c, 3, 61, 59
5, 230888, Note_on_c, 3, 63, 0
5, 231903, Note_on_c, 3, 60, 52
5, 231963, Note_on_c, 3, 61, 0
5, 232575, Note_on_c, 3, 60, 0
5, 235023, Note_on_c, 3, 63, 59
5, 236046, Note_on_c, 3, 61, 53
5, 236233, Note_on_c, 3, 63, 0
5, 237774, Note_on_c, 3, 60, 42
5, 237802, Note_on_c, 3, 61, 0
5, 241052, Note_on_c, 3, 60, 0
5, 253009, Note_on_c, 3, 56, 32
5, 254172, Note_on_c, 3, 63, 35
5, 254369, Note_on_c, 3, 56, 0
5, 254985, Note_on_c, 3, 61, 45
5, 255057, Note_on_c, 3, 63, 0
5, 255688, Note_on_c, 3, 63, 40
5, 255775, Note_on_c, 3, 61, 0
5, 256434, Note_on_c, 3, 61, 48
5, 256473, Note_on_c, 3, 63, 0
5, 257099, Note_on_c, 3, 60, 54
5, 257136, Note_on_c, 3, 61, 0
5, 257445, Note_on_c, 3, 59, 54
5, 257467, Note_on_c, 3, 60, 0
5, 258147, Note_on_c, 3, 59, 0
5, 258163, Note_on_c, 3, 59, 64
5, 258563, Note_on_c, 3, 61, 71
5, 258625, Note_on_c, 3, 59, 0
5, 258706, Note_on_c, 3, 59, 68
5, 258745, Note_on_c, 3, 61, 0
5, 259198, Note_on_c, 3, 56, 74
5, 259280, Note_on_c, 3, 59, 0
5, 259769, Control_c, 3, 11, 80
5, 259769, Note_on_c, 3, 64, 53
5, 259809, Control_c, 3, 11, 81
5, 259841, Note_on_c, 3, 56, 0
5, 259844, Control_c, 3, 11, 82
5, 259884, Control_c, 3, 11, 83
5, 259919, Control_c, 3, 11, 84
5, 259954, Control_c, 3, 11, 85
5, 259994, Control_c, 3, 11, 86
5, 260029, Control_c, 3, 11, 87
5, 260069, Control_c, 3, 11, 88
5, 260104, Control_c, 3, 11, 89
5, 260139, Control_c, 3, 11, 90
5, 260179, Control_c, 3, 11, 91
5, 260214, Control_c, 3, 11, 92
5, 260254, Control_c, 3, 11, 93
5, 260289, Control_c, 3, 11, 94
5, 260324, Control_c, 3, 11, 95
5, 260364, Control_c, 3, 11, 96
5, 260399, Control_c, 3, 11, 97
5, 260439, Control_c, 3, 11, 98
5, 260474, Control_c, 3, 11, 99
5, 260509, Control_c, 3, 11, 100
5, 260549, Control_c, 3, 11, 101
5, 260584, Control_c, 3, 11, 102
5, 260624, Control_c, 3, 11, 103
5, 260659, Control_c, 3, 11, 104
5, 260694, Control_c, 3, 11, 105
5, 260734, Control_c, 3, 11, 106
5, 260769, Control_c, 3, 11, 107
5, 260809, Control_c, 3, 11, 108
5, 260818, Note_on_c, 3, 63, 42
5, 260844, Control_c, 3, 11, 109
5, 260879, Control_c, 3, 11, 110
5, 260896, Note_on_c, 3, 64, 0
5, 261120, Control_c, 3, 11, 110
5, 261155, Control_c, 3, 11, 109
5, 261190, Control_c, 3, 11, 108
5, 261225, Control_c, 3, 11, 107
5, 261260, Control_c, 3, 11, 106
5, 261290, Control_c, 3, 11, 105
5, 261325, Control_c, 3, 11, 104
5, 261360, Control_c, 3, 11, 103
5, 261395, Control_c, 3, 11, 102
5, 261425, Control_c, 3, 11, 101
5, 261460, Control_c, 3, 11, 100
5, 261495, Control_c, 3, 11, 99
5, 261530, Control_c, 3, 11, 98
5, 261560, Control_c, 3, 11, 97
5, 261595, Control_c, 3, 11, 96
5, 261630, Control_c, 3, 11, 95
5, 261665, Control_c, 3, 11, 94
5, 261695, Control_c, 3, 11, 93
5, 261730, Control_c, 3, 11, 92
5, 261765, Control_c, 3, 11, 91
5, 261800, Control_c, 3, 11, 90
5, 261830, Control_c, 3, 11, 89
5, 261865, Control_c, 3, 11, 88
5, 261900, Control_c, 3, 11, 87
5, 261935, Control_c, 3, 11, 86
5, 261965, Control_c, 3, 11, 85
5, 262000, Control_c, 3, 11, 84
5, 262035, Control_c, 3, 11, 83
5, 262070, Control_c, 3, 11, 82
5, 262105, Control_c, 3, 11, 81
5, 262135, Control_c, 3, 11, 80
5, 262135, Note_on_c, 3, 64, 37
5, 262183, Note_on_c, 3, 63, 0
5, 262671, Note_on_c, 3, 64, 0
5, 262711, Note_on_c, 3, 59, 72
5, 263105, Note_on_c, 3, 61, 80
5, 263161, Note_on_c, 3, 59, 0
5, 263239, Note_on_c, 3, 59, 69
5, 263274, Note_on_c, 3, 61, 0
5, 263769, Note_on_c, 3, 56, 79
5, 263841, Note_on_c, 3, 59, 0
5, 264353, Note_on_c, 3, 64, 66
5, 264458, Note_on_c, 3, 56, 0
5, 265440, Control_c, 3, 11, 80
5, 265490, Control_c, 3, 11, 79
5, 265501, Note_on_c, 3, 63, 66
5, 265540, Control_c, 3, 11, 78
5, 265559, Note_on_c, 3, 64, 0
5, 265585, Control_c, 3, 11, 77
5, 265635, Control_c, 3, 11, 76
5, 265680, Control_c, 3, 11, 75
5, 265730, Control_c, 3, 11, 74
5, 265780, Control_c, 3, 11, 73
5, 265825, Control_c, 3, 11, 72
5, 265875, Control_c, 3, 11, 71
5, 265920, Control_c, 3, 11, 70
5, 265970, Control_c, 3, 11, 69
5, 266020, Control_c, 3, 11, 68
5, 266052, Note_on_c, 3, 61, 73
5, 266065, Control_c, 3, 11, 67
5, 266102, Note_on_c, 3, 63, 0
5, 266115, Control_c, 3, 11, 66
5, 266160, Control_c, 3, 11, 65
5, 266210, Control_c, 3, 11, 64
5, 266260, Control_c, 3, 11, 63
5, 266305, Control_c, 3, 11, 62
5, 266355, Control_c, 3, 11, 61
5, 266400, Control_c, 3, 11, 60
5, 266450, Control_c, 3, 11, 59
5, 266500, Control_c, 3, 11, 58
5, 266545, Control_c, 3, 11, 57
5, 266595, Control_c, 3, 11, 56
5, 266640, Control_c, 3, 11, 55
5, 266690, Control_c, 3, 11, 54
5, 266740, Control_c, 3, 11, 53
5, 266785, Control_c, 3, 11, 52
5, 266802, Note_on_c, 3, 59, 65
5, 266827, Note_on_c, 3, 61, 0
5, 266835, Control_c, 3, 11, 51
5, 266880, Control_c, 3, 11, 50
5, 266880, Control_c, 3, 11, 50
5, 266885, Control_c, 3, 11, 52
5, 266890, Control_c, 3, 11, 54
5, 266895, Control_c, 3, 11, 55
5, 266900, Control_c, 3, 11, 56
5, 266905, Control_c, 3, 11, 57
5, 266910, Control_c, 3, 11, 58
5, 266915, Control_c, 3, 11, 59
5, 266920, Control_c, 3, 11, 60
5, 266925, Control_c, 3, 11, 61
5, 266930, Control_c, 3, 11, 62
5, 266935, Control_c, 3, 11, 63
5, 266940, Control_c, 3, 11, 64
5, 266950, Control_c, 3, 11, 65
5, 266960, Control_c, 3, 11, 66
5, 266965, Control_c, 3, 11, 67
5, 266975, Control_c, 3, 11, 68
5, 266980, Control_c, 3, 11, 69
5, 266990, Control_c, 3, 11, 70
5, 267000, Control_c, 3, 11, 71
5, 267015, Control_c, 3, 11, 72
5, 267025, Control_c, 3, 11, 73
5, 267040, Control_c, 3, 11, 74
5, 267055, Control_c, 3, 11, 75
5, 267075, Control_c, 3, 11, 76
5, 267100, Control_c, 3, 11, 77
5, 267130, Control_c, 3, 11, 78
5, 267170, Control_c, 3, 11, 79
5, 267250, Control_c, 3, 11, 80
5, 267403, Note_on_c, 3, 59, 0
5, 267488, Note_on_c, 3, 59, 74
5, 267897, Note_on_c, 3, 61, 81
5, 267949, Note_on_c, 3, 59, 0
5, 268062, Note_on_c, 3, 59, 76
5, 268100, Note_on_c, 3, 61, 0
5, 268593, Note_on_c, 3, 56, 80
5, 268624, Note_on_c, 3, 59, 0
5, 269280, Control_c, 3, 11, 80
5, 269290, Control_c, 3, 11, 79
5, 269295, Control_c, 3, 11, 78
5, 269305, Control_c, 3, 11, 77
5, 269310, Control_c, 3, 11, 76
5, 269315, Control_c, 3, 11, 75
5, 269325, Control_c, 3, 11, 74
5, 269330, Control_c, 3, 11, 73
5, 269335, Control_c, 3, 11, 72
5, 269345, Control_c, 3, 11, 71
5, 269350, Control_c, 3, 11, 70
5, 269355, Control_c, 3, 11, 69
5, 269365, Control_c, 3, 11, 68
5, 269370, Control_c, 3, 11, 67
5, 269375, Control_c, 3, 11, 66
5, 269385, Control_c, 3, 11, 65
5, 269390, Control_c, 3, 11, 64
5, 269395, Control_c, 3, 11, 63
5, 269405, Control_c, 3, 11, 62
5, 269410, Control_c, 3, 11, 61
5, 269415, Control_c, 3, 11, 60
5, 269425, Control_c, 3, 11, 59
5, 269430, Control_c, 3, 11, 58
5, 269435, Control_c, 3, 11, 57
5, 269445, Control_c, 3, 11, 56
5, 269450, Control_c, 3, 11, 55
5, 269460, Control_c, 3, 11, 54
5, 269465, Control_c, 3, 11, 53
5, 269470, Control_c, 3, 11, 52
5, 269480, Control_c, 3, 11, 51
5, 269483, Control_c, 3, 11, 50
5, 269483, Control_c, 3, 11, 50
5, 269483, Note_on_c, 3, 57, 46
5, 269485, Note_on_c, 3, 64, 59
5, 269488, Control_c, 3, 11, 54
5, 269493, Control_c, 3, 11, 56
5, 269497, Note_on_c, 3, 56, 0
5, 269498, Control_c, 3, 11, 58
5, 269503, Control_c, 3, 11, 61
5, 269508, Control_c, 3, 11, 63
5, 269513, Control_c, 3, 11, 64
5, 269518, Control_c, 3, 11, 66
5, 269523, Control_c, 3, 11, 67
5, 269528, Control_c, 3, 11, 68
5, 269533, Control_c, 3, 11, 70
5, 269538, Control_c, 3, 11, 71
5, 269543, Control_c, 3, 11, 72
5, 269548, Control_c, 3, 11, 73
5, 269558, Control_c, 3, 11, 74
5, 269563, Control_c, 3, 11, 75
5, 269573, Control_c, 3, 11, 76
5, 269583, Control_c, 3, 11, 77
5, 269598, Control_c, 3, 11, 78
5, 269618, Control_c, 3, 11, 79
5, 269653, Control_c, 3, 11, 80
5, 271010, Note_on_c, 3, 57, 0
5, 271016, Note_on_c, 3, 64, 0
5, 272436, Control_c, 3, 11, 30
5, 272436, Note_on_c, 3, 61, 61
5, 272441, Control_c, 3, 11, 34
5, 272446, Control_c, 3, 11, 37
5, 272451, Control_c, 3, 11, 39
5, 272456, Control_c, 3, 11, 42
5, 272461, Control_c, 3, 11, 45
5, 272466, Control_c, 3, 11, 47
5, 272471, Control_c, 3, 11, 49
5, 272476, Control_c, 3, 11, 51
5, 272481, Control_c, 3, 11, 53
5, 272486, Control_c, 3, 11, 54
5, 272491, Control_c, 3, 11, 55
5, 272496, Control_c, 3, 11, 57
5, 272501, Control_c, 3, 11, 59
5, 272506, Control_c, 3, 11, 60
5, 272511, Control_c, 3, 11, 61
5, 272516, Control_c, 3, 11, 63
5, 272521, Control_c, 3, 11, 64
5, 272526, Control_c, 3, 11, 65
5, 272536, Control_c, 3, 11, 66
5, 272541, Control_c, 3, 11, 67
5, 272546, Control_c, 3, 11, 68
5, 272551, Control_c, 3, 11, 69
5, 272556, Control_c, 3, 11, 70
5, 272566, Control_c, 3, 11, 71
5, 272571, Control_c, 3, 11, 72
5, 272586, Control_c, 3, 11, 73
5, 272596, Control_c, 3, 11, 74
5, 272606, Control_c, 3, 11, 75
5, 272621, Control_c, 3, 11, 76
5, 272636, Control_c, 3, 11, 77
5, 272661, Control_c, 3, 11, 78
5, 272691, Control_c, 3, 11, 79
5, 272736, Control_c, 3, 11, 80
5, 273713, Note_on_c, 3, 57, 67
5, 273752, Note_on_c, 3, 61, 0
5, 274304, Note_on_c, 3, 57, 0
5, 274353, Note_on_c, 3, 57, 68
5, 274786, Note_on_c, 3, 56, 69
5, 274839, Note_on_c, 3, 57, 0
5, 274996, Note_on_c, 3, 56, 0
5, 275029, Note_on_c, 3, 56, 60
5, 276000, Control_c, 3, 11, 80
5, 276090, Control_c, 3, 11, 79
5, 276120, Control_c, 3, 11, 78
5, 276140, Control_c, 3, 11, 77
5, 276155, Control_c, 3, 11, 76
5, 276165, Control_c, 3, 11, 75
5, 276175, Control_c, 3, 11, 74
5, 276180, Control_c, 3, 11, 73
5, 276190, Control_c, 3, 11, 72
5, 276195, Control_c, 3, 11, 71
5, 276200, Control_c, 3, 11, 70
5, 276205, Control_c, 3, 11, 69
5, 276210, Control_c, 3, 11, 68
5, 276215, Control_c, 3, 11, 66
5, 276220, Control_c, 3, 11, 64
5, 276225, Control_c, 3, 11, 63
5, 276230, Control_c, 3, 11, 61
5, 276235, Control_c, 3, 11, 59
5, 276240, Control_c, 3, 11, 57
5, 276245, Control_c, 3, 11, 54
5, 276250, Control_c, 3, 11, 52
5, 276255, Control_c, 3, 11, 48
5, 276260, Control_c, 3, 11, 45
5, 276265, Control_c, 3, 11, 41
5, 276270, Control_c, 3, 11, 37
5, 276275, Control_c, 3, 11, 31
5, 276277, Control_c, 3, 11, 30
5, 276277, Control_c, 3, 11, 30
5, 276277, Note_on_c, 3, 61, 67
5, 276282, Control_c, 3, 11, 32
5, 276287, Control_c, 3, 11, 34
5, 276292, Control_c, 3, 11, 36
5, 276297, Control_c, 3, 11, 37
5, 276302, Control_c, 3, 11, 39
5, 276306, Note_on_c, 3, 56, 0
5, 276307, Control_c, 3, 11, 40
5, 276312, Control_c, 3, 11, 42
5, 276317, Control_c, 3, 11, 43
5, 276322, Control_c, 3, 11, 44
5, 276327, Control_c, 3, 11, 45
5, 276337, Control_c, 3, 11, 47
5, 276347, Control_c, 3, 11, 48
5, 276352, Control_c, 3, 11, 49
5, 276357, Control_c, 3, 11, 50
5, 276367, Control_c, 3, 11, 51
5, 276372, Control_c, 3, 11, 52
5, 276382, Control_c, 3, 11, 53
5, 276392, Control_c, 3, 11, 54
5, 276407, Control_c, 3, 11, 55
5, 276422, Control_c, 3, 11, 56
5, 276437, Control_c, 3, 11, 57
5, 276462, Control_c, 3, 11, 58
5, 276480, Control_c, 3, 11, 58
5, 276595, Control_c, 3, 11, 59
5, 276705, Control_c, 3, 11, 60
5, 276820, Control_c, 3, 11, 61
5, 276930, Control_c, 3, 11, 62
5, 277040, Control_c, 3, 11, 63
5, 277155, Control_c, 3, 11, 64
5, 277265, Control_c, 3, 11, 65
5, 277380, Control_c, 3, 11, 66
5, 277490, Control_c, 3, 11, 67
5, 277600, Control_c, 3, 11, 68
5, 277602, Note_on_c, 3, 60, 57
5, 277640, Note_on_c, 3, 61, 0
5, 277715, Control_c, 3, 11, 69
5, 277825, Control_c, 3, 11, 70
5, 277940, Control_c, 3, 11, 71
5, 278050, Control_c, 3, 11, 72
5, 278160, Control_c, 3, 11, 73
5, 278275, Control_c, 3, 11, 74
5, 278385, Control_c, 3, 11, 75
5, 278500, Control_c, 3, 11, 76
5, 278610, Control_c, 3, 11, 77
5, 278720, Control_c, 3, 11, 78
5, 278835, Control_c, 3, 11, 79
5, 278945, Control_c, 3, 11, 80
5, 278945, Note_on_c, 3, 57, 41
5, 278990, Note_on_c, 3, 60, 0
5, 279605, Note_on_c, 3, 57, 0
5, 279681, Note_on_c, 3, 57, 61
5, 280277, Note_on_c, 3, 59, 61
5, 280384, Note_on_c, 3, 57, 0
5, 280812, Note_on_c, 3, 56, 45
5, 280883, Note_on_c, 3, 59, 0
5, 281040, Control_c, 3, 11, 80
5, 281400, Control_c, 3, 11, 79
5, 281550, Control_c, 3, 11, 78
5, 281645, Control_c, 3, 11, 77
5, 281710, Control_c, 3, 11, 76
5, 281760, Control_c, 3, 11, 75
5, 281825, Control_c, 3, 11, 74
5, 281860, Control_c, 3, 11, 73
5, 281890, Control_c, 3, 11, 72
5, 281920, Control_c, 3, 11, 71
5, 281940, Control_c, 3, 11, 70
5, 281975, Control_c, 3, 11, 69
5, 282000, Control_c, 3, 11, 68
5, 282015, Control_c, 3, 11, 67
5, 282030, Control_c, 3, 11, 66
5, 282050, Control_c, 3, 11, 65
5, 282070, Control_c, 3, 11, 64
5, 282090, Control_c, 3, 11, 63
5, 282100, Control_c, 3, 11, 62
5, 282110, Control_c, 3, 11, 61
5, 282120, Control_c, 3, 11, 60
5, 282140, Control_c, 3, 11, 59
5, 282150, Control_c, 3, 11, 58
5, 282160, Control_c, 3, 11, 57
5, 282170, Control_c, 3, 11, 56
5, 282185, Control_c, 3, 11, 55
5, 282195, Control_c, 3, 11, 54
5, 282205, Control_c, 3, 11, 53
5, 282210, Control_c, 3, 11, 52
5, 282225, Control_c, 3, 11, 51
5, 282230, Control_c, 3, 11, 50
5, 282240, Control_c, 3, 11, 49
5, 282245, Control_c, 3, 11, 48
5, 282255, Control_c, 3, 11, 47
5, 282260, Control_c, 3, 11, 46
5, 282270, Control_c, 3, 11, 45
5, 282280, Control_c, 3, 11, 44
5, 282285, Control_c, 3, 11, 43
5, 282290, Control_c, 3, 11, 42
5, 282295, Control_c, 3, 11, 41
5, 282300, Control_c, 3, 11, 40
5, 282315, Control_c, 3, 11, 39
5, 282320, Control_c, 3, 11, 38
5, 282325, Control_c, 3, 11, 37
5, 282330, Control_c, 3, 11, 36
5, 282335, Control_c, 3, 11, 35
5, 282340, Control_c, 3, 11, 34
5, 282345, Control_c, 3, 11, 33
5, 282350, Control_c, 3, 11, 32
5, 282360, Control_c, 3, 11, 31
5, 282365, Control_c, 3, 11, 30
5, 282370, Control_c, 3, 11, 29
5, 282375, Control_c, 3, 11, 28
5, 282380, Control_c, 3, 11, 26
5, 282385, Control_c, 3, 11, 25
5, 282390, Control_c, 3, 11, 24
5, 282395, Control_c, 3, 11, 23
5, 282405, Control_c, 3, 11, 21
5, 282410, Control_c, 3, 11, 20
5, 282415, Control_c, 3, 11, 19
5, 282420, Control_c, 3, 11, 18
5, 282425, Control_c, 3, 11, 16
5, 282430, Control_c, 3, 11, 15
5, 282435, Control_c, 3, 11, 13
5, 282440, Control_c, 3, 11, 12
5, 282450, Control_c, 3, 11, 10
5, 282455, Control_c, 3, 11, 9
5, 282460, Control_c, 3, 11, 7
5, 282465, Control_c, 3, 11, 6
5, 282470, Control_c, 3, 11, 4
5, 282475, Control_c, 3, 11, 1
5, 282480, Control_c, 3, 11, 0
5, 282501, Note_on_c, 3, 56, 0
5, 284707, Control_c, 3, 11, 30
5, 284707, Note_on_c, 3, 62, 60
5, 284712, Control_c, 3, 11, 33
5, 284717, Control_c, 3, 11, 34
5, 284722, Control_c, 3, 11, 35
5, 284727, Control_c, 3, 11, 36
5, 284732, Control_c, 3, 11, 37
5, 284737, Control_c, 3, 11, 38
5, 284742, Control_c, 3, 11, 39
5, 284752, Control_c, 3, 11, 41
5, 284757, Control_c, 3, 11, 42
5, 284762, Control_c, 3, 11, 43
5, 284767, Control_c, 3, 11, 44
5, 284772, Control_c, 3, 11, 45
5, 284782, Control_c, 3, 11, 46
5, 284787, Control_c, 3, 11, 47
5, 284797, Control_c, 3, 11, 49
5, 284802, Control_c, 3, 11, 50
5, 284812, Control_c, 3, 11, 51
5, 284817, Control_c, 3, 11, 52
5, 284827, Control_c, 3, 11, 53
5, 284837, Control_c, 3, 11, 54
5, 284842, Control_c, 3, 11, 55
5, 284852, Control_c, 3, 11, 56
5, 284857, Control_c, 3, 11, 57
5, 284867, Control_c, 3, 11, 58
5, 284877, Control_c, 3, 11, 59
5, 284887, Control_c, 3, 11, 60
5, 284897, Control_c, 3, 11, 61
5, 284907, Control_c, 3, 11, 62
5, 284917, Control_c, 3, 11, 63
5, 284927, Control_c, 3, 11, 64
5, 284942, Control_c, 3, 11, 65
5, 284957, Control_c, 3, 11, 66
5, 284972, Control_c, 3, 11, 67
5, 284982, Control_c, 3, 11, 68
5, 285002, Control_c, 3, 11, 69
5, 285017, Control_c, 3, 11, 70
5, 285037, Control_c, 3, 11, 71
5, 285062, Control_c, 3, 11, 72
5, 285087, Control_c, 3, 11, 73
5, 285112, Control_c, 3, 11, 74
5, 285147, Control_c, 3, 11, 75
5, 285182, Control_c, 3, 11, 76
5, 285227, Control_c, 3, 11, 77
5, 285282, Control_c, 3, 11, 78
5, 285362, Control_c, 3, 11, 79
5, 285487, Control_c, 3, 11, 80
5, 285857, Note_on_c, 3, 61, 57
5, 286016, Note_on_c, 3, 62, 0
5, 287027, Note_on_c, 3, 59, 65
5, 287072, Note_on_c, 3, 61, 0
5, 288240, Control_c, 3, 11, 80
5, 288253, Note_on_c, 3, 58, 66
5, 288340, Control_c, 3, 11, 79
5, 288380, Note_on_c, 3, 59, 0
5, 288435, Control_c, 3, 11, 78
5, 288530, Control_c, 3, 11, 77
5, 288625, Control_c, 3, 11, 76
5, 288720, Control_c, 3, 11, 75
5, 288820, Control_c, 3, 11, 74
5, 288915, Control_c, 3, 11, 73
5, 289010, Control_c, 3, 11, 72
5, 289105, Control_c, 3, 11, 71
5, 289200, Control_c, 3, 11, 70
5, 289300, Control_c, 3, 11, 69
5, 289395, Control_c, 3, 11, 68
5, 289490, Control_c, 3, 11, 67
5, 289585, Control_c, 3, 11, 66
5, 289680, Control_c, 3, 11, 65
5, 289780, Control_c, 3, 11, 64
5, 289875, Control_c, 3, 11, 63
5, 289970, Control_c, 3, 11, 62
5, 290065, Control_c, 3, 11, 61
5, 290160, Control_c, 3, 11, 60
5, 290260, Control_c, 3, 11, 59
5, 290355, Control_c, 3, 11, 58
5, 290450, Control_c, 3, 11, 57
5, 290545, Control_c, 3, 11, 56
5, 290640, Control_c, 3, 11, 55
5, 290740, Control_c, 3, 11, 54
5, 290835, Control_c, 3, 11, 53
5, 290930, Control_c, 3, 11, 52
5, 291025, Control_c, 3, 11, 51
5, 291120, Control_c, 3, 11, 50
5, 291220, Control_c, 3, 11, 49
5, 291315, Control_c, 3, 11, 48
5, 291410, Control_c, 3, 11, 47
5, 291505, Control_c, 3, 11, 46
5, 291600, Control_c, 3, 11, 45
5, 291700, Control_c, 3, 11, 44
5, 291795, Control_c, 3, 11, 43
5, 291890, Control_c, 3, 11, 42
5, 291985, Control_c, 3, 11, 41
5, 292010, Control_c, 3, 11, 42
5, 292030, Control_c, 3, 11, 43
5, 292050, Control_c, 3, 11, 44
5, 292070, Control_c, 3, 11, 45
5, 292090, Control_c, 3, 11, 46
5, 292091, Note_on_c, 3, 57, 60
5, 292115, Control_c, 3, 11, 47
5, 292135, Control_c, 3, 11, 48
5, 292149, Note_on_c, 3, 58, 0
5, 292155, Control_c, 3, 11, 49
5, 292175, Control_c, 3, 11, 50
5, 292195, Control_c, 3, 11, 51
5, 292215, Control_c, 3, 11, 52
5, 292240, Control_c, 3, 11, 53
5, 292260, Control_c, 3, 11, 54
5, 292280, Control_c, 3, 11, 55
5, 292300, Control_c, 3, 11, 56
5, 292320, Control_c, 3, 11, 57
5, 292340, Control_c, 3, 11, 58
5, 292365, Control_c, 3, 11, 59
5, 292385, Control_c, 3, 11, 60
5, 292405, Control_c, 3, 11, 61
5, 292425, Control_c, 3, 11, 62
5, 292445, Control_c, 3, 11, 63
5, 292470, Control_c, 3, 11, 64
5, 292490, Control_c, 3, 11, 65
5, 292510, Control_c, 3, 11, 66
5, 292530, Control_c, 3, 11, 67
5, 292550, Control_c, 3, 11, 68
5, 292570, Control_c, 3, 11, 69
5, 292595, Control_c, 3, 11, 70
5, 292615, Control_c, 3, 11, 71
5, 292635, Control_c, 3, 11, 72
5, 292655, Control_c, 3, 11, 73
5, 292675, Control_c, 3, 11, 74
5, 292695, Control_c, 3, 11, 75
5, 292720, Control_c, 3, 11, 76
5, 292740, Control_c, 3, 11, 77
5, 292760, Control_c, 3, 11, 78
5, 292780, Control_c, 3, 11, 79
5, 292800, Control_c, 3, 11, 80
5, 294076, Note_on_c, 3, 56, 38
5, 294199, Note_on_c, 3, 57, 0
5, 295523, Note_on_c, 3, 56, 0
5, 295731, Note_on_c, 3, 62, 45
5, 297122, Note_on_c, 3, 61, 54
5, 297188, Note_on_c, 3, 62, 0
5, 298403, Note_on_c, 3, 59, 59
5, 298530, Note_on_c, 3, 61, 0
5, 300001, Note_on_c, 3, 58, 57
5, 300102, Note_on_c, 3, 59, 0
5, 302771, Control_c, 3, 11, 80
5, 302771, Note_on_c, 3, 57, 51
5, 302841, Note_on_c, 3, 58, 0
5, 302921, Control_c, 3, 11, 79
5, 303071, Control_c, 3, 11, 78
5, 303221, Control_c, 3, 11, 77
5, 303371, Control_c, 3, 11, 76
5, 303521, Control_c, 3, 11, 75
5, 303671, Control_c, 3, 11, 74
5, 303821, Control_c, 3, 11, 73
5, 303971, Control_c, 3, 11, 72
5, 304116, Control_c, 3, 11, 71
5, 304266, Control_c, 3, 11, 70
5, 304416, Control_c, 3, 11, 69
5, 304566, Control_c, 3, 11, 68
5, 304716, Control_c, 3, 11, 67
5, 304866, Control_c, 3, 11, 66
5, 305016, Control_c, 3, 11, 65
5, 305166, Control_c, 3, 11, 64
5, 305311, Control_c, 3, 11, 63
5, 305461, Control_c, 3, 11, 62
5, 305611, Control_c, 3, 11, 61
5, 305748, Note_on_c, 3, 56, 40
5, 305760, Control_c, 3, 11, 60
5, 305933, Note_on_c, 3, 57, 0
5, 312000, Control_c, 3, 11, 60
5, 312200, Control_c, 3, 11, 59
5, 312400, Control_c, 3, 11, 58
5, 312600, Control_c, 3, 11, 57
5, 312800, Control_c, 3, 11, 56
5, 313000, Control_c, 3, 11, 55
5, 313200, Control_c, 3, 11, 54
5, 313400, Control_c, 3, 11, 53
5, 313600, Control_c, 3, 11, 52
5, 313800, Control_c, 3, 11, 51
5, 314000, Control_c, 3, 11, 50
5, 314200, Control_c, 3, 11, 49
5, 314400, Control_c, 3, 11, 48
5, 314600, Control_c, 3, 11, 47
5, 314800, Control_c, 3, 11, 46
5, 315000, Control_c, 3, 11, 45
5, 315200, Control_c, 3, 11, 44
5, 315400, Control_c, 3, 11, 43
5, 315600, Control_c, 3, 11, 42
5, 315800, Control_c, 3, 11, 41
5, 316000, Control_c, 3, 11, 40
5, 316200, Control_c, 3, 11, 39
5, 316400, Control_c, 3, 11, 38
5, 316600, Control_c, 3, 11, 37
5, 316800, Control_c, 3, 11, 36
5, 317000, Control_c, 3, 11, 35
5, 317200, Control_c, 3, 11, 34
5, 317400, Control_c, 3, 11, 33
5, 317600, Control_c, 3, 11, 32
5, 317800, Control_c, 3, 11, 31
5, 317980, Note_on_c, 3, 56, 0
5, 318000, Control_c, 3, 11, 30
5, 319680, End_track
6, 0, Start_track
6, 0, Title_t, "Viole"
6, 0, MIDI_port, 0
6, 100, Control_c, 4, 0, 0
6, 120, Control_c, 4, 32, 0
6, 140, Program_c, 4, 49
6, 160, Control_c, 4, 10, 79
6, 180, Control_c, 4, 7, 100
6, 200, Control_c, 4, 11, 80
6, 220, Control_c, 4, 1, 19
6, 240, Control_c, 4, 91, 60
6, 260, Control_c, 4, 93, 38
6, 280, Control_c, 4, 101, 0
6, 300, Control_c, 4, 100, 0
6, 320, Control_c, 4, 6, 12
6, 340, Pitch_bend_c, 4, 8208
6, 360, Control_c, 4, 99, 1
6, 380, Control_c, 4, 98, 32
6, 400, Control_c, 4, 6, 62
6, 420, Control_c, 4, 98, 33
6, 440, Control_c, 4, 6, 60
6, 460, Control_c, 4, 98, 99
6, 480, Control_c, 4, 6, 57
6, 500, Control_c, 4, 98, 100
6, 520, Control_c, 4, 6, 64
6, 540, Control_c, 4, 98, 102
6, 560, Control_c, 4, 6, 66
6, 580, Control_c, 4, 99, 1
6, 600, Control_c, 4, 98, 8
6, 620, Control_c, 4, 6, 90
6, 640, Control_c, 4, 98, 9
6, 660, Control_c, 4, 6, 50
6, 680, Control_c, 4, 98, 10
6, 705, Control_c, 4, 6, 70
6, 4800, Control_c, 4, 67, 127
6, 5350, Control_c, 4, 11, 25
6, 5350, Note_on_c, 4, 63, 27
6, 5355, Control_c, 4, 11, 30
6, 5360, Control_c, 4, 11, 33
6, 5365, Control_c, 4, 11, 36
6, 5370, Control_c, 4, 11, 39
6, 5375, Control_c, 4, 11, 42
6, 5380, Control_c, 4, 11, 44
6, 5385, Control_c, 4, 11, 47
6, 5390, Control_c, 4, 11, 49
6, 5395, Control_c, 4, 11, 51
6, 5400, Control_c, 4, 11, 53
6, 5405, Control_c, 4, 11, 55
6, 5410, Control_c, 4, 11, 56
6, 5415, Control_c, 4, 11, 58
6, 5420, Control_c, 4, 11, 59
6, 5425, Control_c, 4, 11, 61
6, 5430, Control_c, 4, 11, 62
6, 5435, Control_c, 4, 11, 64
6, 5440, Control_c, 4, 11, 65
6, 5445, Control_c, 4, 11, 66
6, 5450, Control_c, 4, 11, 67
6, 5460, Control_c, 4, 11, 68
6, 5465, Control_c, 4, 11, 69
6, 5470, Control_c, 4, 11, 70
6, 5475, Control_c, 4, 11, 71
6, 5485, Control_c, 4, 11, 72
6, 5495, Control_c, 4, 11, 73
6, 5505, Control_c, 4, 11, 74
6, 5515, Control_c, 4, 11, 75
6, 5525, Control_c, 4, 11, 76
6, 5545, Control_c, 4, 11, 77
6, 5565, Control_c, 4, 11, 78
6, 5590, Control_c, 4, 11, 79
6, 5640, Control_c, 4, 11, 80
6, 6025, Note_on_c, 4, 64, 32
6, 6066, Note_on_c, 4, 63, 0
6, 7998, Note_on_c, 4, 63, 35
6, 8052, Note_on_c, 4, 64, 0
6, 8332, Note_on_c, 4, 61, 40
6, 8380, Note_on_c, 4, 63, 0
6, 8652, Note_on_c, 4, 59, 44
6, 8683, Note_on_c, 4, 61, 0
6, 12861, Note_on_c, 4, 59, 0
6, 12907, Note_on_c, 4, 63, 35
6, 13593, Control_c, 4, 11, 80
6, 13593, Note_on_c, 4, 64, 20
6, 13607, Note_on_c, 4, 63, 0
6, 13798, Control_c, 4, 11, 79
6, 13878, Control_c, 4, 11, 78
6, 13933, Control_c, 4, 11, 77
6, 13968, Control_c, 4, 11, 76
6, 14008, Control_c, 4, 11, 75
6, 14033, Control_c, 4, 11, 74
6, 14053, Control_c, 4, 11, 73
6, 14073, Control_c, 4, 11, 72
6, 14093, Control_c, 4, 11, 71
6, 14108, Control_c, 4, 11, 70
6, 14118, Control_c, 4, 11, 69
6, 14133, Control_c, 4, 11, 68
6, 14143, Control_c, 4, 11, 67
6, 14153, Control_c, 4, 11, 66
6, 14163, Control_c, 4, 11, 65
6, 14173, Control_c, 4, 11, 64
6, 14183, Control_c, 4, 11, 63
6, 14193, Control_c, 4, 11, 62
6, 14198, Control_c, 4, 11, 61
6, 14203, Control_c, 4, 11, 60
6, 14213, Control_c, 4, 11, 59
6, 14218, Control_c, 4, 11, 58
6, 14223, Control_c, 4, 11, 57
6, 14233, Control_c, 4, 11, 56
6, 14238, Control_c, 4, 11, 55
6, 14243, Control_c, 4, 11, 54
6, 14248, Control_c, 4, 11, 53
6, 14253, Control_c, 4, 11, 52
6, 14258, Control_c, 4, 11, 51
6, 14263, Control_c, 4, 11, 50
6, 14268, Control_c, 4, 11, 49
6, 14273, Control_c, 4, 11, 48
6, 14278, Control_c, 4, 11, 47
6, 14283, Control_c, 4, 11, 45
6, 14288, Control_c, 4, 11, 44
6, 14293, Control_c, 4, 11, 43
6, 14298, Control_c, 4, 11, 42
6, 14303, Control_c, 4, 11, 40
6, 14308, Control_c, 4, 11, 39
6, 14313, Control_c, 4, 11, 38
6, 14318, Control_c, 4, 11, 36
6, 14323, Control_c, 4, 11, 35
6, 14328, Control_c, 4, 11, 33
6, 14333, Control_c, 4, 11, 31
6, 14338, Control_c, 4, 11, 30
6, 14343, Control_c, 4, 11, 27
6, 14348, Control_c, 4, 11, 26
6, 14349, Note_on_c, 4, 64, 0
6, 14353, Control_c, 4, 11, 24
6, 14358, Control_c, 4, 11, 22
6, 14363, Control_c, 4, 11, 20
6, 14368, Control_c, 4, 11, 17
6, 14373, Control_c, 4, 11, 16
6, 14378, Control_c, 4, 11, 13
6, 14383, Control_c, 4, 11, 11
6, 14388, Control_c, 4, 11, 8
6, 14393, Control_c, 4, 11, 5
6, 14398, Control_c, 4, 11, 2
6, 14400, Control_c, 4, 11, 1
6, 19450, Control_c, 4, 11, 6
6, 19450, Note_on_c, 4, 60, 26
6, 19455, Control_c, 4, 11, 11
6, 19460, Control_c, 4, 11, 16
6, 19465, Control_c, 4, 11, 20
6, 19470, Control_c, 4, 11, 22
6, 19475, Control_c, 4, 11, 26
6, 19480, Control_c, 4, 11, 29
6, 19485, Control_c, 4, 11, 33
6, 19490, Control_c, 4, 11, 35
6, 19495, Control_c, 4, 11, 38
6, 19500, Control_c, 4, 11, 40
6, 19505, Control_c, 4, 11, 43
6, 19510, Control_c, 4, 11, 44
6, 19515, Control_c, 4, 11, 47
6, 19520, Control_c, 4, 11, 49
6, 19525, Control_c, 4, 11, 50
6, 19530, Control_c, 4, 11, 52
6, 19535, Control_c, 4, 11, 54
6, 19540, Control_c, 4, 11, 56
6, 19545, Control_c, 4, 11, 57
6, 19550, Control_c, 4, 11, 58
6, 19555, Control_c, 4, 11, 60
6, 19560, Control_c, 4, 11, 61
6, 19565, Control_c, 4, 11, 62
6, 19570, Control_c, 4, 11, 63
6, 19575, Control_c, 4, 11, 64
6, 19580, Control_c, 4, 11, 65
6, 19585, Control_c, 4, 11, 66
6, 19590, Control_c, 4, 11, 67
6, 19600, Control_c, 4, 11, 68
6, 19605, Control_c, 4, 11, 69
6, 19610, Control_c, 4, 11, 70
6, 19620, Control_c, 4, 11, 71
6, 19630, Control_c, 4, 11, 72
6, 19640, Control_c, 4, 11, 73
6, 19650, Control_c, 4, 11, 74
6, 19665, Control_c, 4, 11, 75
6, 19675, Control_c, 4, 11, 76
6, 19700, Control_c, 4, 11, 77
6, 19720, Control_c, 4, 11, 78
6, 19755, Control_c, 4, 11, 79
6, 19805, Control_c, 4, 11, 80
6, 20183, Note_on_c, 4, 61, 36
6, 20331, Note_on_c, 4, 60, 0
6, 22146, Note_on_c, 4, 60, 31
6, 22217, Note_on_c, 4, 61, 0
6, 22483, Note_on_c, 4, 58, 33
6, 22578, Note_on_c, 4, 60, 0
6, 22845, Note_on_c, 4, 56, 30
6, 22938, Note_on_c, 4, 58, 0
6, 26856, Note_on_c, 4, 56, 0
6, 26940, Note_on_c, 4, 56, 27
6, 27113, Note_on_c, 4, 54, 32
6, 27168, Note_on_c, 4, 56, 0
6, 27844, Note_on_c, 4, 54, 0
6, 27866, Note_on_c, 4, 52, 36
6, 28080, Control_c, 4, 11, 80
6, 28200, Control_c, 4, 11, 79
6, 28250, Control_c, 4, 11, 78
6, 28285, Control_c, 4, 11, 77
6, 28305, Control_c, 4, 11, 76
6, 28320, Control_c, 4, 11, 75
6, 28345, Control_c, 4, 11, 74
6, 28355, Control_c, 4, 11, 73
6, 28365, Control_c, 4, 11, 72
6, 28375, Control_c, 4, 11, 71
6, 28380, Control_c, 4, 11, 70
6, 28395, Control_c, 4, 11, 69
6, 28400, Control_c, 4, 11, 68
6, 28405, Control_c, 4, 11, 67
6, 28410, Control_c, 4, 11, 66
6, 28415, Control_c, 4, 11, 65
6, 28425, Control_c, 4, 11, 64
6, 28430, Control_c, 4, 11, 63
6, 28435, Control_c, 4, 11, 62
6, 28440, Control_c, 4, 11, 60
6, 28445, Control_c, 4, 11, 59
6, 28450, Control_c, 4, 11, 58
6, 28455, Control_c, 4, 11, 57
6, 28460, Control_c, 4, 11, 55
6, 28465, Control_c, 4, 11, 54
6, 28470, Control_c, 4, 11, 52
6, 28475, Control_c, 4, 11, 50
6, 28480, Control_c, 4, 11, 49
6, 28485, Control_c, 4, 11, 47
6, 28490, Control_c, 4, 11, 45
6, 28495, Control_c, 4, 11, 43
6, 28500, Control_c, 4, 11, 40
6, 28505, Control_c, 4, 11, 38
6, 28510, Control_c, 4, 11, 36
6, 28515, Control_c, 4, 11, 33
6, 28520, Control_c, 4, 11, 30
6, 28525, Control_c, 4, 11, 28
6, 28530, Control_c, 4, 11, 24
6, 28535, Control_c, 4, 11, 20
6, 28540, Control_c, 4, 11, 18
6, 28545, Control_c, 4, 11, 13
6, 28550, Control_c, 4, 11, 9
6, 28555, Control_c, 4, 11, 6
6, 28560, Control_c, 4, 11, 0
6, 28654, Note_on_c, 4, 52, 0
6, 30271, Control_c, 4, 11, 15
6, 30271, Note_on_c, 4, 54, 40
6, 30276, Control_c, 4, 11, 18
6, 30281, Control_c, 4, 11, 20
6, 30286, Control_c, 4, 11, 22
6, 30291, Control_c, 4, 11, 24
6, 30296, Control_c, 4, 11, 25
6, 30301, Control_c, 4, 11, 27
6, 30306, Control_c, 4, 11, 28
6, 30311, Control_c, 4, 11, 29
6, 30316, Control_c, 4, 11, 31
6, 30321, Control_c, 4, 11, 32
6, 30326, Control_c, 4, 11, 33
6, 30331, Control_c, 4, 11, 34
6, 30336, Control_c, 4, 11, 35
6, 30341, Control_c, 4, 11, 36
6, 30346, Control_c, 4, 11, 37
6, 30351, Control_c, 4, 11, 38
6, 30361, Control_c, 4, 11, 39
6, 30366, Control_c, 4, 11, 40
6, 30371, Control_c, 4, 11, 41
6, 30381, Control_c, 4, 11, 42
6, 30391, Control_c, 4, 11, 43
6, 30401, Control_c, 4, 11, 44
6, 30416, Control_c, 4, 11, 45
6, 30431, Control_c, 4, 11, 46
6, 30446, Control_c, 4, 11, 47
6, 30471, Control_c, 4, 11, 48
6, 30501, Control_c, 4, 11, 49
6, 30556, Control_c, 4, 11, 50
6, 30576, Control_c, 4, 11, 51
6, 30596, Control_c, 4, 11, 52
6, 30616, Control_c, 4, 11, 53
6, 30631, Control_c, 4, 11, 54
6, 30651, Control_c, 4, 11, 55
6, 30671, Control_c, 4, 11, 56
6, 30691, Control_c, 4, 11, 57
6, 30706, Control_c, 4, 11, 58
6, 30726, Control_c, 4, 11, 59
6, 30746, Control_c, 4, 11, 60
6, 30766, Control_c, 4, 11, 61
6, 30781, Control_c, 4, 11, 62
6, 30801, Control_c, 4, 11, 63
6, 30821, Control_c, 4, 11, 64
6, 30841, Control_c, 4, 11, 65
6, 30856, Control_c, 4, 11, 66
6, 30876, Control_c, 4, 11, 67
6, 30896, Control_c, 4, 11, 68
6, 30916, Control_c, 4, 11, 69
6, 30931, Control_c, 4, 11, 70
6, 30951, Control_c, 4, 11, 71
6, 30971, Control_c, 4, 11, 72
6, 30991, Control_c, 4, 11, 73
6, 31006, Control_c, 4, 11, 74
6, 31026, Control_c, 4, 11, 75
6, 31046, Control_c, 4, 11, 76
6, 31066, Control_c, 4, 11, 77
6, 31081, Control_c, 4, 11, 78
6, 31101, Control_c, 4, 11, 79
6, 31121, Control_c, 4, 11, 80
6, 31141, Control_c, 4, 11, 81
6, 31156, Control_c, 4, 11, 82
6, 31176, Control_c, 4, 11, 83
6, 31196, Control_c, 4, 11, 84
6, 31216, Control_c, 4, 11, 85
6, 31231, Control_c, 4, 11, 86
6, 31251, Control_c, 4, 11, 87
6, 31271, Control_c, 4, 11, 88
6, 31286, Control_c, 4, 11, 89
6, 31306, Control_c, 4, 11, 90
6, 31326, Control_c, 4, 11, 91
6, 31346, Control_c, 4, 11, 92
6, 31361, Control_c, 4, 11, 93
6, 31381, Control_c, 4, 11, 94
6, 31401, Control_c, 4, 11, 95
6, 31421, Control_c, 4, 11, 96
6, 31436, Control_c, 4, 11, 97
6, 31456, Control_c, 4, 11, 98
6, 31476, Control_c, 4, 11, 99
6, 31496, Control_c, 4, 11, 100
6, 31511, Control_c, 4, 11, 101
6, 31531, Control_c, 4, 11, 102
6, 31551, Control_c, 4, 11, 103
6, 31571, Control_c, 4, 11, 104
6, 31586, Control_c, 4, 11, 105
6, 31606, Control_c, 4, 11, 106
6, 31626, Control_c, 4, 11, 107
6, 31646, Control_c, 4, 11, 108
6, 31661, Control_c, 4, 11, 109
6, 31680, Control_c, 4, 11, 110
6, 31680, Control_c, 4, 11, 110
6, 31712, Control_c, 4, 11, 109
6, 31744, Control_c, 4, 11, 108
6, 31776, Control_c, 4, 11, 107
6, 31808, Control_c, 4, 11, 106
6, 31840, Control_c, 4, 11, 105
6, 31872, Control_c, 4, 11, 104
6, 31904, Control_c, 4, 11, 103
6, 31936, Control_c, 4, 11, 102
6, 31968, Control_c, 4, 11, 101
6, 32000, Control_c, 4, 11, 100
6, 32032, Control_c, 4, 11, 99
6, 32064, Control_c, 4, 11, 98
6, 32096, Control_c, 4, 11, 97
6, 32128, Control_c, 4, 11, 96
6, 32160, Control_c, 4, 11, 95
6, 32192, Control_c, 4, 11, 94
6, 32224, Control_c, 4, 11, 93
6, 32256, Control_c, 4, 11, 92
6, 32288, Control_c, 4, 11, 91
6, 32320, Control_c, 4, 11, 90
6, 32352, Control_c, 4, 11, 89
6, 32384, Control_c, 4, 11, 88
6, 32416, Control_c, 4, 11, 87
6, 32448, Control_c, 4, 11, 86
6, 32480, Control_c, 4, 11, 85
6, 32512, Control_c, 4, 11, 84
6, 32544, Control_c, 4, 11, 83
6, 32576, Control_c, 4, 11, 82
6, 32608, Control_c, 4, 11, 81
6, 32639, Control_c, 4, 11, 80
6, 33600, Control_c, 4, 11, 80
6, 33780, Control_c, 4, 11, 79
6, 33855, Control_c, 4, 11, 78
6, 33905, Control_c, 4, 11, 77
6, 33935, Control_c, 4, 11, 76
6, 33960, Control_c, 4, 11, 75
6, 33995, Control_c, 4, 11, 74
6, 34010, Control_c, 4, 11, 73
6, 34025, Control_c, 4, 11, 72
6, 34040, Control_c, 4, 11, 71
6, 34050, Control_c, 4, 11, 70
6, 34070, Control_c, 4, 11, 69
6, 34080, Control_c, 4, 11, 68
6, 34090, Control_c, 4, 11, 67
6, 34095, Control_c, 4, 11, 66
6, 34105, Control_c, 4, 11, 65
6, 34115, Control_c, 4, 11, 64
6, 34125, Control_c, 4, 11, 63
6, 34130, Control_c, 4, 11, 62
6, 34135, Control_c, 4, 11, 61
6, 34140, Control_c, 4, 11, 60
6, 34150, Control_c, 4, 11, 59
6, 34155, Control_c, 4, 11, 58
6, 34160, Control_c, 4, 11, 57
6, 34165, Control_c, 4, 11, 56
6, 34175, Control_c, 4, 11, 55
6, 34180, Control_c, 4, 11, 54
6, 34185, Control_c, 4, 11, 52
6, 34190, Control_c, 4, 11, 51
6, 34195, Control_c, 4, 11, 50
6, 34200, Control_c, 4, 11, 49
6, 34205, Control_c, 4, 11, 48
6, 34210, Control_c, 4, 11, 46
6, 34215, Control_c, 4, 11, 45
6, 34220, Control_c, 4, 11, 44
6, 34225, Control_c, 4, 11, 42
6, 34230, Control_c, 4, 11, 40
6, 34235, Control_c, 4, 11, 39
6, 34240, Control_c, 4, 11, 38
6, 34245, Control_c, 4, 11, 36
6, 34250, Control_c, 4, 11, 34
6, 34255, Control_c, 4, 11, 32
6, 34260, Control_c, 4, 11, 31
6, 34265, Control_c, 4, 11, 29
6, 34270, Control_c, 4, 11, 26
6, 34275, Control_c, 4, 11, 24
6, 34280, Control_c, 4, 11, 21
6, 34285, Control_c, 4, 11, 20
6, 34290, Control_c, 4, 11, 18
6, 34295, Control_c, 4, 11, 15
6, 34300, Control_c, 4, 11, 12
6, 34305, Control_c, 4, 11, 9
6, 34310, Control_c, 4, 11, 7
6, 34315, Control_c, 4, 11, 4
6, 34320, Control_c, 4, 11, 0
6, 34682, Note_on_c, 4, 54, 0
6, 56350, Control_c, 4, 11, 80
6, 56350, Note_on_c, 4, 64, 35
6, 56380, Control_c, 4, 11, 81
6, 56409, Control_c, 4, 11, 82
6, 56439, Control_c, 4, 11, 83
6, 56468, Control_c, 4, 11, 84
6, 56498, Control_c, 4, 11, 85
6, 56527, Control_c, 4, 11, 86
6, 56557, Control_c, 4, 11, 87
6, 56586, Control_c, 4, 11, 88
6, 56616, Control_c, 4, 11, 89
6, 56645, Control_c, 4, 11, 90
6, 56674, Control_c, 4, 11, 91
6, 56704, Control_c, 4, 11, 92
6, 56733, Control_c, 4, 11, 93
6, 56763, Control_c, 4, 11, 94
6, 56792, Control_c, 4, 11, 95
6, 56822, Control_c, 4, 11, 96
6, 56851, Control_c, 4, 11, 97
6, 56881, Control_c, 4, 11, 98
6, 56908, Note_on_c, 4, 66, 29
6, 56910, Control_c, 4, 11, 99
6, 56939, Control_c, 4, 11, 100
6, 56969, Control_c, 4, 11, 101
6, 56983, Note_on_c, 4, 64, 0
6, 56998, Control_c, 4, 11, 102
6, 57028, Control_c, 4, 11, 103
6, 57057, Control_c, 4, 11, 104
6, 57087, Control_c, 4, 11, 105
6, 57116, Control_c, 4, 11, 106
6, 57146, Control_c, 4, 11, 107
6, 57175, Control_c, 4, 11, 108
6, 57205, Control_c, 4, 11, 109
6, 57234, Control_c, 4, 11, 110
6, 57263, Control_c, 4, 11, 111
6, 57293, Control_c, 4, 11, 112
6, 57322, Control_c, 4, 11, 113
6, 57352, Control_c, 4, 11, 114
6, 57381, Control_c, 4, 11, 115
6, 57411, Control_c, 4, 11, 116
6, 57440, Control_c, 4, 11, 117
6, 57470, Control_c, 4, 11, 118
6, 57499, Control_c, 4, 11, 119
6, 57528, Control_c, 4, 11, 120
6, 57529, Note_on_c, 4, 56, 31
6, 57544, Control_c, 4, 11, 119
6, 57559, Control_c, 4, 11, 118
6, 57574, Control_c, 4, 11, 117
6, 57576, Note_on_c, 4, 66, 0
6, 57589, Control_c, 4, 11, 116
6, 57605, Control_c, 4, 11, 115
6, 57620, Control_c, 4, 11, 114
6, 57635, Control_c, 4, 11, 113
6, 57650, Control_c, 4, 11, 112
6, 57666, Control_c, 4, 11, 111
6, 57681, Control_c, 4, 11, 110
6, 57696, Control_c, 4, 11, 109
6, 57711, Control_c, 4, 11, 108
6, 57727, Control_c, 4, 11, 107
6, 57742, Control_c, 4, 11, 106
6, 57757, Control_c, 4, 11, 105
6, 57772, Control_c, 4, 11, 104
6, 57785, Note_on_c, 4, 54, 28
6, 57788, Control_c, 4, 11, 103
6, 57803, Control_c, 4, 11, 102
6, 57818, Control_c, 4, 11, 101
6, 57833, Control_c, 4, 11, 100
6, 57849, Control_c, 4, 11, 99
6, 57864, Control_c, 4, 11, 98
6, 57879, Control_c, 4, 11, 97
6, 57893, Note_on_c, 4, 56, 0
6, 57894, Control_c, 4, 11, 96
6, 57910, Control_c, 4, 11, 95
6, 57925, Control_c, 4, 11, 94
6, 57940, Control_c, 4, 11, 93
6, 57955, Control_c, 4, 11, 92
6, 57971, Control_c, 4, 11, 91
6, 57986, Control_c, 4, 11, 90
6, 58001, Control_c, 4, 11, 89
6, 58016, Control_c, 4, 11, 88
6, 58032, Control_c, 4, 11, 87
6, 58047, Control_c, 4, 11, 86
6, 58062, Control_c, 4, 11, 85
6, 58077, Control_c, 4, 11, 84
6, 58089, Note_on_c, 4, 54, 0
6, 58093, Control_c, 4, 11, 83
6, 58108, Control_c, 4, 11, 82
6, 58123, Control_c, 4, 11, 81
6, 58138, Control_c, 4, 11, 80
6, 58139, Note_on_c, 4, 54, 34
6, 59318, Note_on_c, 4, 63, 50
6, 59432, Note_on_c, 4, 54, 0
6, 60337, Note_on_c, 4, 64, 59
6, 60403, Note_on_c, 4, 63, 0
6, 63481, Note_on_c, 4, 61, 61
6, 63558, Note_on_c, 4, 64, 0
6, 64467, Note_on_c, 4, 54, 58
6, 64523, Note_on_c, 4, 61, 0
6, 66221, Note_on_c, 4, 54, 0
6, 66435, Note_on_c, 4, 58, 50
6, 67368, Note_on_c, 4, 59, 60
6, 67413, Note_on_c, 4, 58, 0
6, 68221, Note_on_c, 4, 60, 78
6, 68272, Note_on_c, 4, 59, 0
6, 69060, Note_on_c, 4, 61, 75
6, 69136, Note_on_c, 4, 60, 0
6, 69950, Note_on_c, 4, 61, 0
6, 72926, Note_on_c, 4, 49, 51
6, 75563, Note_on_c, 4, 49, 0
6, 77281, Note_on_c, 4, 54, 44
6, 77801, Note_on_c, 4, 59, 42
6, 78009, Note_on_c, 4, 54, 0
6, 78331, Note_on_c, 4, 54, 48
6, 78397, Note_on_c, 4, 59, 0
6, 78841, Note_on_c, 4, 58, 44
6, 78996, Note_on_c, 4, 54, 0
6, 79373, Note_on_c, 4, 54, 39
6, 79444, Note_on_c, 4, 58, 0
6, 79874, Note_on_c, 4, 54, 0
6, 80376, Note_on_c, 4, 54, 44
6, 80952, Note_on_c, 4, 59, 48
6, 81022, Note_on_c, 4, 54, 0
6, 81426, Note_on_c, 4, 54, 46
6, 81509, Note_on_c, 4, 59, 0
6, 81835, Note_on_c, 4, 59, 57
6, 82042, Note_on_c, 4, 54, 0
6, 82344, Note_on_c, 4, 54, 53
6, 82436, Note_on_c, 4, 59, 0
6, 82854, Note_on_c, 4, 58, 51
6, 83019, Note_on_c, 4, 54, 0
6, 83386, Note_on_c, 4, 54, 47
6, 83438, Note_on_c, 4, 58, 0
6, 83840, Note_on_c, 4, 54, 0
6, 84253, Note_on_c, 4, 54, 50
6, 84746, Note_on_c, 4, 59, 55
6, 84877, Note_on_c, 4, 54, 0
6, 85399, Note_on_c, 4, 54, 54
6, 85504, Note_on_c, 4, 59, 0
6, 85953, Note_on_c, 4, 53, 61
6, 86062, Note_on_c, 4, 54, 0
6, 86741, Note_on_c, 4, 54, 65
6, 86760, Note_on_c, 4, 53, 0
6, 88314, Note_on_c, 4, 56, 80
6, 88330, Note_on_c, 4, 54, 0
6, 89048, Note_on_c, 4, 58, 67
6, 89175, Note_on_c, 4, 56, 0
6, 90229, Note_on_c, 4, 56, 60
6, 90270, Note_on_c, 4, 58, 0
6, 90723, Note_on_c, 4, 61, 44
6, 90845, Note_on_c, 4, 56, 0
6, 92120, Note_on_c, 4, 61, 0
6, 94221, Note_on_c, 4, 54, 56
6, 94646, Note_on_c, 4, 59, 58
6, 94704, Note_on_c, 4, 54, 0
6, 95056, Note_on_c, 4, 54, 61
6, 95138, Note_on_c, 4, 59, 0
6, 95695, Note_on_c, 4, 58, 58
6, 95744, Note_on_c, 4, 54, 0
6, 96170, Note_on_c, 4, 54, 47
6, 96243, Note_on_c, 4, 58, 0
6, 96644, Note_on_c, 4, 54, 0
6, 97024, Note_on_c, 4, 54, 75
6, 97605, Note_on_c, 4, 59, 61
6, 97652, Note_on_c, 4, 54, 0
6, 98115, Note_on_c, 4, 54, 74
6, 98174, Note_on_c, 4, 59, 0
6, 98536, Note_on_c, 4, 59, 68
6, 98574, Note_on_c, 4, 54, 0
6, 99075, Note_on_c, 4, 54, 56
6, 99080, Note_on_c, 4, 59, 0
6, 99935, Note_on_c, 4, 58, 49
6, 99991, Note_on_c, 4, 54, 0
6, 100403, Note_on_c, 4, 54, 48
6, 100442, Note_on_c, 4, 58, 0
6, 101051, Note_on_c, 4, 54, 0
6, 101433, Note_on_c, 4, 54, 76
6, 102176, Note_on_c, 4, 59, 58
6, 102190, Note_on_c, 4, 54, 0
6, 102748, Note_on_c, 4, 54, 79
6, 102784, Note_on_c, 4, 59, 0
6, 103216, Note_on_c, 4, 59, 87
6, 103269, Note_on_c, 4, 54, 0
6, 103765, Note_on_c, 4, 63, 88
6, 103831, Note_on_c, 4, 59, 0
6, 104267, Note_on_c, 4, 64, 93
6, 104319, Note_on_c, 4, 63, 0
6, 104815, Note_on_c, 4, 64, 0
6, 104845, Note_on_c, 4, 67, 94
6, 105435, Note_on_c, 4, 68, 85
6, 105492, Note_on_c, 4, 67, 0
6, 105992, Note_on_c, 4, 68, 0
6, 106045, Note_on_c, 4, 59, 93
6, 107816, Note_on_c, 4, 59, 0
6, 109275, Note_on_c, 4, 54, 46
6, 110587, Note_on_c, 4, 54, 0
6, 112198, Note_on_c, 4, 54, 57
6, 115045, Note_on_c, 4, 54, 0
6, 116557, Note_on_c, 4, 54, 54
6, 120374, Note_on_c, 4, 54, 0
6, 120548, Note_on_c, 4, 54, 37
6, 120837, Note_on_c, 4, 54, 0
6, 121079, Note_on_c, 4, 54, 33
6, 121311, Note_on_c, 4, 54, 0
6, 121610, Note_on_c, 4, 54, 30
6, 121793, Note_on_c, 4, 54, 0
6, 124841, Control_c, 4, 11, 30
6, 124841, Note_on_c, 4, 78, 38
6, 124846, Control_c, 4, 11, 33
6, 124851, Control_c, 4, 11, 35
6, 124856, Control_c, 4, 11, 37
6, 124861, Control_c, 4, 11, 39
6, 124866, Control_c, 4, 11, 40
6, 124871, Control_c, 4, 11, 42
6, 124876, Control_c, 4, 11, 44
6, 124881, Control_c, 4, 11, 45
6, 124886, Control_c, 4, 11, 46
6, 124891, Control_c, 4, 11, 47
6, 124896, Control_c, 4, 11, 49
6, 124901, Control_c, 4, 11, 50
6, 124906, Control_c, 4, 11, 52
6, 124911, Control_c, 4, 11, 53
6, 124916, Control_c, 4, 11, 54
6, 124921, Control_c, 4, 11, 55
6, 124926, Control_c, 4, 11, 56
6, 124931, Control_c, 4, 11, 57
6, 124936, Control_c, 4, 11, 58
6, 124941, Control_c, 4, 11, 59
6, 124946, Control_c, 4, 11, 60
6, 124956, Control_c, 4, 11, 61
6, 124961, Control_c, 4, 11, 62
6, 124966, Control_c, 4, 11, 63
6, 124971, Control_c, 4, 11, 64
6, 124981, Control_c, 4, 11, 65
6, 124991, Control_c, 4, 11, 66
6, 124996, Control_c, 4, 11, 67
6, 125006, Control_c, 4, 11, 68
6, 125016, Control_c, 4, 11, 69
6, 125026, Control_c, 4, 11, 70
6, 125036, Control_c, 4, 11, 71
6, 125051, Control_c, 4, 11, 72
6, 125066, Control_c, 4, 11, 73
6, 125081, Control_c, 4, 11, 74
6, 125101, Control_c, 4, 11, 75
6, 125121, Control_c, 4, 11, 76
6, 125146, Control_c, 4, 11, 77
6, 125181, Control_c, 4, 11, 78
6, 125226, Control_c, 4, 11, 79
6, 125301, Control_c, 4, 11, 80
6, 125534, Note_on_c, 4, 76, 33
6, 125590, Note_on_c, 4, 78, 0
6, 126114, Note_on_c, 4, 75, 35
6, 126172, Note_on_c, 4, 76, 0
6, 126383, Note_on_c, 4, 76, 35
6, 126444, Note_on_c, 4, 75, 0
6, 126606, Note_on_c, 4, 75, 34
6, 126659, Note_on_c, 4, 76, 0
6, 126886, Note_on_c, 4, 73, 40
6, 127001, Note_on_c, 4, 75, 0
6, 127577, Note_on_c, 4, 69, 33
6, 127647, Note_on_c, 4, 73, 0
6, 130350, Note_on_c, 4, 68, 36
6, 130433, Note_on_c, 4, 69, 0
6, 131578, Note_on_c, 4, 64, 49
6, 131658, Note_on_c, 4, 68, 0
6, 132625, Note_on_c, 4, 64, 0
6, 132702, Note_on_c, 4, 64, 49
6, 134348, Note_on_c, 4, 63, 59
6, 134390, Note_on_c, 4, 64, 0
6, 135116, Note_on_c, 4, 64, 51
6, 135159, Note_on_c, 4, 63, 0
6, 135769, Note_on_c, 4, 64, 0
6, 136879, Note_on_c, 4, 56, 54
6, 137374, Note_on_c, 4, 54, 61
6, 137427, Note_on_c, 4, 56, 0
6, 138597, Note_on_c, 4, 59, 58
6, 138626, Note_on_c, 4, 54, 0
6, 141015, Note_on_c, 4, 59, 0
6, 142310, Note_on_c, 4, 68, 47
6, 143776, Note_on_c, 4, 69, 35
6, 143827, Note_on_c, 4, 68, 0
6, 148640, Note_on_c, 4, 54, 51
6, 148661, Note_on_c, 4, 69, 0
6, 149203, Note_on_c, 4, 59, 57
6, 149248, Note_on_c, 4, 54, 0
6, 149669, Note_on_c, 4, 61, 65
6, 149706, Note_on_c, 4, 59, 0
6, 150341, Note_on_c, 4, 60, 63
6, 150390, Note_on_c, 4, 61, 0
6, 151578, Note_on_c, 4, 54, 37
6, 151595, Note_on_c, 4, 60, 0
6, 152846, Note_on_c, 4, 59, 41
6, 152925, Note_on_c, 4, 54, 0
6, 153408, Note_on_c, 4, 59, 0
6, 153432, Note_on_c, 4, 52, 30
6, 155346, Note_on_c, 4, 52, 0
6, 157657, Note_on_c, 4, 61, 83
6, 157871, Note_on_c, 4, 63, 77
6, 157887, Note_on_c, 4, 61, 0
6, 158111, Note_on_c, 4, 63, 0
6, 158117, Note_on_c, 4, 64, 69
6, 158368, Note_on_c, 4, 64, 0
6, 158582, Note_on_c, 4, 61, 86
6, 158805, Note_on_c, 4, 64, 73
6, 158832, Note_on_c, 4, 61, 0
6, 159033, Note_on_c, 4, 66, 65
6, 159079, Note_on_c, 4, 64, 0
6, 159309, Note_on_c, 4, 66, 0
6, 159479, Note_on_c, 4, 63, 89
6, 159676, Note_on_c, 4, 64, 75
6, 159698, Note_on_c, 4, 63, 0
6, 159922, Note_on_c, 4, 66, 61
6, 160004, Note_on_c, 4, 64, 0
6, 160158, Note_on_c, 4, 66, 0
6, 160343, Note_on_c, 4, 63, 73
6, 160526, Note_on_c, 4, 64, 68
6, 160561, Note_on_c, 4, 63, 0
6, 160762, Note_on_c, 4, 66, 63
6, 160797, Note_on_c, 4, 64, 0
6, 161049, Note_on_c, 4, 66, 0
6, 161302, Note_on_c, 4, 63, 65
6, 161565, Note_on_c, 4, 64, 66
6, 161575, Note_on_c, 4, 63, 0
6, 161768, Note_on_c, 4, 64, 0
6, 161783, Note_on_c, 4, 66, 58
6, 162016, Note_on_c, 4, 66, 0
6, 162289, Note_on_c, 4, 63, 60
6, 162497, Note_on_c, 4, 66, 76
6, 162515, Note_on_c, 4, 63, 0
6, 162873, Note_on_c, 4, 64, 71
6, 162905, Note_on_c, 4, 66, 0
6, 163197, Note_on_c, 4, 64, 0
6, 163416, Note_on_c, 4, 61, 65
6, 163605, Note_on_c, 4, 63, 53
6, 163651, Note_on_c, 4, 61, 0
6, 163895, Note_on_c, 4, 63, 0
6, 163909, Note_on_c, 4, 64, 48
6, 164276, Note_on_c, 4, 64, 0
6, 164403, Note_on_c, 4, 61, 64
6, 164619, Note_on_c, 4, 63, 56
6, 164661, Note_on_c, 4, 61, 0
6, 164947, Note_on_c, 4, 64, 53
6, 164961, Note_on_c, 4, 63, 0
6, 165255, Note_on_c, 4, 64, 0
6, 165535, Note_on_c, 4, 61, 65
6, 165786, Note_on_c, 4, 64, 61
6, 165787, Note_on_c, 4, 61, 0
6, 166038, Note_on_c, 4, 60, 54
6, 166090, Note_on_c, 4, 64, 0
6, 166278, Note_on_c, 4, 60, 0
6, 166450, Note_on_c, 4, 63, 68
6, 166695, Note_on_c, 4, 66, 78
6, 166784, Note_on_c, 4, 63, 0
6, 166929, Note_on_c, 4, 64, 63
6, 166969, Note_on_c, 4, 66, 0
6, 167193, Note_on_c, 4, 64, 0
6, 167339, Note_on_c, 4, 61, 72
6, 167601, Note_on_c, 4, 64, 68
6, 167666, Note_on_c, 4, 61, 0
6, 167832, Note_on_c, 4, 66, 63
6, 167887, Note_on_c, 4, 64, 0
6, 168094, Note_on_c, 4, 66, 0
6, 168322, Note_on_c, 4, 63, 71
6, 168516, Note_on_c, 4, 66, 63
6, 168599, Note_on_c, 4, 63, 0
6, 168744, Note_on_c, 4, 64, 51
6, 168804, Note_on_c, 4, 66, 0
6, 169017, Note_on_c, 4, 64, 0
6, 169223, Note_on_c, 4, 61, 67
6, 169492, Note_on_c, 4, 63, 55
6, 169529, Note_on_c, 4, 61, 0
6, 169795, Note_on_c, 4, 63, 0
6, 169810, Note_on_c, 4, 64, 45
6, 170054, Note_on_c, 4, 64, 0
6, 170680, Note_on_c, 4, 56, 56
6, 172077, Note_on_c, 4, 56, 0
6, 185098, Note_on_c, 4, 62, 90
6, 185551, Note_on_c, 4, 62, 0
6, 185581, Note_on_c, 4, 62, 93
6, 187717, Note_on_c, 4, 63, 58
6, 187780, Note_on_c, 4, 62, 0
6, 188303, Note_on_c, 4, 61, 54
6, 188401, Note_on_c, 4, 63, 0
6, 188966, Note_on_c, 4, 60, 50
6, 189034, Note_on_c, 4, 61, 0
6, 189587, Note_on_c, 4, 58, 45
6, 189697, Note_on_c, 4, 60, 0
6, 190514, Note_on_c, 4, 56, 38
6, 190588, Note_on_c, 4, 58, 0
6, 191279, Note_on_c, 4, 56, 0
6, 201992, Note_on_c, 4, 53, 84
6, 202890, Note_on_c, 4, 54, 80
6, 202945, Note_on_c, 4, 53, 0
6, 203710, Note_on_c, 4, 55, 70
6, 203753, Note_on_c, 4, 54, 0
6, 205068, Note_on_c, 4, 53, 64
6, 205078, Note_on_c, 4, 55, 0
6, 206403, Note_on_c, 4, 51, 46
6, 206449, Note_on_c, 4, 53, 0
6, 207080, Note_on_c, 4, 51, 0
6, 220391, Note_on_c, 4, 56, 84
6, 221459, Note_on_c, 4, 58, 93
6, 221508, Note_on_c, 4, 56, 0
6, 222079, Note_on_c, 4, 56, 103
6, 222114, Note_on_c, 4, 58, 0
6, 222872, Note_on_c, 4, 68, 107
6, 222883, Note_on_c, 4, 56, 0
6, 223864, Note_on_c, 4, 68, 0
6, 223925, Note_on_c, 4, 68, 100
6, 225730, Note_on_c, 4, 68, 0
6, 230761, Note_on_c, 4, 51, 65
6, 233048, Note_on_c, 4, 51, 0
6, 236071, Note_on_c, 4, 51, 36
6, 241012, Note_on_c, 4, 51, 0
6, 254225, Note_on_c, 4, 66, 31
6, 254226, Note_on_c, 4, 56, 24
6, 257485, Note_on_c, 4, 66, 0
6, 257486, Note_on_c, 4, 56, 0
6, 257490, Note_on_c, 4, 64, 32
6, 258143, Note_on_c, 4, 64, 0
6, 258209, Note_on_c, 4, 64, 47
6, 259206, Control_c, 4, 11, 80
6, 259206, Note_on_c, 4, 59, 49
6, 259220, Note_on_c, 4, 64, 0
6, 259271, Control_c, 4, 11, 81
6, 259336, Control_c, 4, 11, 82
6, 259401, Control_c, 4, 11, 83
6, 259466, Control_c, 4, 11, 84
6, 259526, Control_c, 4, 11, 85
6, 259591, Control_c, 4, 11, 86
6, 259656, Control_c, 4, 11, 87
6, 259694, Note_on_c, 4, 59, 0
6, 259721, Control_c, 4, 11, 88
6, 259760, Note_on_c, 4, 59, 53
6, 259781, Control_c, 4, 11, 89
6, 259846, Control_c, 4, 11, 90
6, 259911, Control_c, 4, 11, 91
6, 259976, Control_c, 4, 11, 92
6, 260036, Control_c, 4, 11, 93
6, 260101, Control_c, 4, 11, 94
6, 260166, Control_c, 4, 11, 95
6, 260231, Control_c, 4, 11, 96
6, 260291, Control_c, 4, 11, 97
6, 260356, Control_c, 4, 11, 98
6, 260421, Control_c, 4, 11, 99
6, 260486, Control_c, 4, 11, 100
6, 260546, Control_c, 4, 11, 101
6, 260611, Control_c, 4, 11, 102
6, 260676, Control_c, 4, 11, 103
6, 260741, Control_c, 4, 11, 104
6, 260801, Control_c, 4, 11, 105
6, 260845, Note_on_c, 4, 54, 53
6, 260866, Control_c, 4, 11, 106
6, 260874, Note_on_c, 4, 59, 0
6, 260931, Control_c, 4, 11, 107
6, 260996, Control_c, 4, 11, 108
6, 261056, Control_c, 4, 11, 109
6, 261120, Control_c, 4, 11, 110
6, 261120, Control_c, 4, 11, 110
6, 261160, Control_c, 4, 11, 109
6, 261200, Control_c, 4, 11, 108
6, 261240, Control_c, 4, 11, 107
6, 261280, Control_c, 4, 11, 106
6, 261320, Control_c, 4, 11, 105
6, 261360, Control_c, 4, 11, 104
6, 261392, Note_on_c, 4, 59, 48
6, 261400, Control_c, 4, 11, 103
6, 261440, Control_c, 4, 11, 102
6, 261445, Note_on_c, 4, 54, 0
6, 261480, Control_c, 4, 11, 101
6, 261520, Control_c, 4, 11, 100
6, 261560, Control_c, 4, 11, 99
6, 261600, Control_c, 4, 11, 98
6, 261640, Control_c, 4, 11, 97
6, 261680, Control_c, 4, 11, 96
6, 261720, Control_c, 4, 11, 95
6, 261760, Control_c, 4, 11, 94
6, 261800, Control_c, 4, 11, 93
6, 261840, Control_c, 4, 11, 92
6, 261880, Control_c, 4, 11, 91
6, 261920, Control_c, 4, 11, 90
6, 261960, Control_c, 4, 11, 89
6, 262000, Control_c, 4, 11, 88
6, 262040, Control_c, 4, 11, 87
6, 262080, Control_c, 4, 11, 86
6, 262120, Control_c, 4, 11, 85
6, 262129, Note_on_c, 4, 59, 0
6, 262160, Control_c, 4, 11, 84
6, 262164, Note_on_c, 4, 59, 49
6, 262200, Control_c, 4, 11, 83
6, 262240, Control_c, 4, 11, 82
6, 262280, Control_c, 4, 11, 81
6, 262320, Control_c, 4, 11, 80
6, 262719, Note_on_c, 4, 64, 57
6, 262756, Note_on_c, 4, 59, 0
6, 263778, Note_on_c, 4, 59, 54
6, 263829, Note_on_c, 4, 64, 0
6, 264260, Note_on_c, 4, 59, 0
6, 264326, Note_on_c, 4, 59, 47
6, 265440, Control_c, 4, 11, 80
6, 265490, Control_c, 4, 11, 79
6, 265535, Control_c, 4, 11, 78
6, 265580, Control_c, 4, 11, 77
6, 265630, Control_c, 4, 11, 76
6, 265675, Control_c, 4, 11, 75
6, 265720, Control_c, 4, 11, 74
6, 265765, Control_c, 4, 11, 73
6, 265815, Control_c, 4, 11, 72
6, 265860, Control_c, 4, 11, 71
6, 265905, Control_c, 4, 11, 70
6, 265950, Control_c, 4, 11, 69
6, 266000, Control_c, 4, 11, 68
6, 266045, Control_c, 4, 11, 67
6, 266090, Control_c, 4, 11, 66
6, 266097, Note_on_c, 4, 54, 44
6, 266124, Note_on_c, 4, 59, 0
6, 266135, Control_c, 4, 11, 65
6, 266185, Control_c, 4, 11, 64
6, 266230, Control_c, 4, 11, 63
6, 266275, Control_c, 4, 11, 62
6, 266320, Control_c, 4, 11, 61
6, 266370, Control_c, 4, 11, 60
6, 266415, Control_c, 4, 11, 59
6, 266460, Control_c, 4, 11, 58
6, 266505, Control_c, 4, 11, 57
6, 266555, Control_c, 4, 11, 56
6, 266600, Control_c, 4, 11, 55
6, 266645, Control_c, 4, 11, 54
6, 266695, Control_c, 4, 11, 53
6, 266740, Control_c, 4, 11, 52
6, 266785, Control_c, 4, 11, 51
6, 266826, Note_on_c, 4, 56, 38
6, 266830, Control_c, 4, 11, 50
6, 266830, Control_c, 4, 11, 60
6, 266839, Note_on_c, 4, 54, 0
6, 266880, Control_c, 4, 11, 60
6, 266885, Control_c, 4, 11, 61
6, 266890, Control_c, 4, 11, 62
6, 266895, Control_c, 4, 11, 63
6, 266900, Control_c, 4, 11, 64
6, 266910, Control_c, 4, 11, 65
6, 266915, Control_c, 4, 11, 66
6, 266925, Control_c, 4, 11, 67
6, 266930, Control_c, 4, 11, 68
6, 266940, Control_c, 4, 11, 69
6, 266955, Control_c, 4, 11, 70
6, 266965, Control_c, 4, 11, 71
6, 266975, Control_c, 4, 11, 72
6, 266990, Control_c, 4, 11, 73
6, 267010, Control_c, 4, 11, 74
6, 267025, Control_c, 4, 11, 75
6, 267050, Control_c, 4, 11, 76
6, 267075, Control_c, 4, 11, 77
6, 267105, Control_c, 4, 11, 78
6, 267155, Control_c, 4, 11, 79
6, 267240, Control_c, 4, 11, 80
6, 267548, Note_on_c, 4, 62, 65
6, 267643, Note_on_c, 4, 56, 0
6, 267971, Note_on_c, 4, 64, 63
6, 268011, Note_on_c, 4, 62, 0
6, 268150, Note_on_c, 4, 62, 68
6, 268209, Note_on_c, 4, 64, 0
6, 269280, Control_c, 4, 11, 80
6, 269290, Control_c, 4, 11, 79
6, 269300, Control_c, 4, 11, 78
6, 269305, Control_c, 4, 11, 77
6, 269315, Control_c, 4, 11, 76
6, 269320, Control_c, 4, 11, 75
6, 269330, Control_c, 4, 11, 74
6, 269335, Control_c, 4, 11, 73
6, 269345, Control_c, 4, 11, 72
6, 269355, Control_c, 4, 11, 71
6, 269360, Control_c, 4, 11, 70
6, 269370, Control_c, 4, 11, 69
6, 269375, Control_c, 4, 11, 68
6, 269385, Control_c, 4, 11, 67
6, 269390, Control_c, 4, 11, 66
6, 269400, Control_c, 4, 11, 65
6, 269405, Control_c, 4, 11, 64
6, 269415, Control_c, 4, 11, 63
6, 269425, Control_c, 4, 11, 62
6, 269430, Control_c, 4, 11, 61
6, 269440, Control_c, 4, 11, 60
6, 269445, Control_c, 4, 11, 59
6, 269455, Control_c, 4, 11, 58
6, 269460, Control_c, 4, 11, 57
6, 269470, Control_c, 4, 11, 56
6, 269475, Control_c, 4, 11, 55
6, 269485, Control_c, 4, 11, 54
6, 269495, Control_c, 4, 11, 53
6, 269500, Control_c, 4, 11, 52
6, 269510, Control_c, 4, 11, 51
6, 269515, Control_c, 4, 11, 50
6, 269515, Control_c, 4, 11, 50
6, 269515, Note_on_c, 4, 61, 48
6, 269520, Control_c, 4, 11, 54
6, 269525, Control_c, 4, 11, 57
6, 269530, Control_c, 4, 11, 59
6, 269535, Control_c, 4, 11, 62
6, 269540, Control_c, 4, 11, 64
6, 269545, Control_c, 4, 11, 65
6, 269550, Control_c, 4, 11, 67
6, 269555, Control_c, 4, 11, 68
6, 269560, Control_c, 4, 11, 70
6, 269565, Control_c, 4, 11, 71
6, 269570, Control_c, 4, 11, 72
6, 269575, Control_c, 4, 11, 73
6, 269580, Control_c, 4, 11, 74
6, 269585, Control_c, 4, 11, 75
6, 269595, Control_c, 4, 11, 76
6, 269605, Control_c, 4, 11, 77
6, 269620, Control_c, 4, 11, 78
6, 269635, Control_c, 4, 11, 79
6, 269651, Note_on_c, 4, 62, 0
6, 269665, Control_c, 4, 11, 80
6, 271071, Note_on_c, 4, 61, 0
6, 273727, Note_on_c, 4, 63, 60
6, 274968, Note_on_c, 4, 61, 65
6, 275103, Note_on_c, 4, 63, 0
6, 276000, Control_c, 4, 11, 80
6, 276095, Control_c, 4, 11, 79
6, 276125, Control_c, 4, 11, 78
6, 276145, Control_c, 4, 11, 77
6, 276160, Control_c, 4, 11, 76
6, 276170, Control_c, 4, 11, 75
6, 276180, Control_c, 4, 11, 74
6, 276190, Control_c, 4, 11, 73
6, 276195, Control_c, 4, 11, 72
6, 276200, Control_c, 4, 11, 71
6, 276210, Control_c, 4, 11, 69
6, 276215, Control_c, 4, 11, 68
6, 276220, Control_c, 4, 11, 67
6, 276225, Control_c, 4, 11, 66
6, 276230, Control_c, 4, 11, 64
6, 276235, Control_c, 4, 11, 63
6, 276240, Control_c, 4, 11, 60
6, 276245, Control_c, 4, 11, 59
6, 276250, Control_c, 4, 11, 57
6, 276255, Control_c, 4, 11, 54
6, 276260, Control_c, 4, 11, 52
6, 276265, Control_c, 4, 11, 48
6, 276270, Control_c, 4, 11, 45
6, 276275, Control_c, 4, 11, 41
6, 276280, Control_c, 4, 11, 38
6, 276285, Control_c, 4, 11, 33
6, 276288, Control_c, 4, 11, 30
6, 276288, Control_c, 4, 11, 30
6, 276288, Note_on_c, 4, 57, 48
6, 276293, Control_c, 4, 11, 32
6, 276298, Control_c, 4, 11, 34
6, 276303, Control_c, 4, 11, 36
6, 276308, Control_c, 4, 11, 37
6, 276313, Control_c, 4, 11, 39
6, 276318, Control_c, 4, 11, 40
6, 276323, Control_c, 4, 11, 42
6, 276328, Control_c, 4, 11, 43
6, 276333, Control_c, 4, 11, 44
6, 276338, Control_c, 4, 11, 45
6, 276342, Note_on_c, 4, 61, 0
6, 276343, Control_c, 4, 11, 46
6, 276348, Control_c, 4, 11, 47
6, 276353, Control_c, 4, 11, 48
6, 276363, Control_c, 4, 11, 49
6, 276368, Control_c, 4, 11, 50
6, 276373, Control_c, 4, 11, 51
6, 276383, Control_c, 4, 11, 52
6, 276393, Control_c, 4, 11, 53
6, 276403, Control_c, 4, 11, 54
6, 276413, Control_c, 4, 11, 55
6, 276428, Control_c, 4, 11, 56
6, 276443, Control_c, 4, 11, 57
6, 276468, Control_c, 4, 11, 58
6, 276480, Control_c, 4, 11, 58
6, 276595, Control_c, 4, 11, 59
6, 276710, Control_c, 4, 11, 60
6, 276825, Control_c, 4, 11, 61
6, 276940, Control_c, 4, 11, 62
6, 276969, Note_on_c, 4, 66, 62
6, 277000, Note_on_c, 4, 57, 0
6, 277055, Control_c, 4, 11, 63
6, 277170, Control_c, 4, 11, 64
6, 277285, Control_c, 4, 11, 65
6, 277400, Control_c, 4, 11, 66
6, 277515, Control_c, 4, 11, 67
6, 277630, Control_c, 4, 11, 68
6, 277745, Control_c, 4, 11, 69
6, 277860, Control_c, 4, 11, 70
6, 277975, Control_c, 4, 11, 71
6, 278090, Control_c, 4, 11, 72
6, 278205, Control_c, 4, 11, 73
6, 278320, Control_c, 4, 11, 74
6, 278344, Note_on_c, 4, 64, 61
6, 278380, Note_on_c, 4, 66, 0
6, 278435, Control_c, 4, 11, 75
6, 278550, Control_c, 4, 11, 76
6, 278665, Control_c, 4, 11, 77
6, 278780, Control_c, 4, 11, 78
6, 278895, Control_c, 4, 11, 79
6, 279005, Control_c, 4, 11, 80
6, 279006, Note_on_c, 4, 63, 55
6, 279166, Note_on_c, 4, 64, 0
6, 280792, Note_on_c, 4, 64, 44
6, 280806, Note_on_c, 4, 63, 0
6, 281040, Control_c, 4, 11, 80
6, 281340, Control_c, 4, 11, 79
6, 281465, Control_c, 4, 11, 78
6, 281545, Control_c, 4, 11, 77
6, 281600, Control_c, 4, 11, 76
6, 281640, Control_c, 4, 11, 75
6, 281695, Control_c, 4, 11, 74
6, 281720, Control_c, 4, 11, 73
6, 281750, Control_c, 4, 11, 72
6, 281775, Control_c, 4, 11, 71
6, 281790, Control_c, 4, 11, 70
6, 281820, Control_c, 4, 11, 69
6, 281840, Control_c, 4, 11, 68
6, 281855, Control_c, 4, 11, 67
6, 281865, Control_c, 4, 11, 66
6, 281880, Control_c, 4, 11, 65
6, 281900, Control_c, 4, 11, 64
6, 281915, Control_c, 4, 11, 63
6, 281925, Control_c, 4, 11, 62
6, 281930, Control_c, 4, 11, 61
6, 281940, Control_c, 4, 11, 60
6, 281955, Control_c, 4, 11, 59
6, 281965, Control_c, 4, 11, 58
6, 281975, Control_c, 4, 11, 57
6, 281985, Control_c, 4, 11, 56
6, 281995, Control_c, 4, 11, 55
6, 282005, Control_c, 4, 11, 54
6, 282010, Control_c, 4, 11, 53
6, 282015, Control_c, 4, 11, 52
6, 282025, Control_c, 4, 11, 51
6, 282030, Control_c, 4, 11, 50
6, 282040, Control_c, 4, 11, 49
6, 282045, Control_c, 4, 11, 48
6, 282055, Control_c, 4, 11, 47
6, 282060, Control_c, 4, 11, 46
6, 282065, Control_c, 4, 11, 45
6, 282075, Control_c, 4, 11, 44
6, 282080, Control_c, 4, 11, 42
6, 282085, Control_c, 4, 11, 41
6, 282090, Control_c, 4, 11, 40
6, 282100, Control_c, 4, 11, 39
6, 282105, Control_c, 4, 11, 38
6, 282110, Control_c, 4, 11, 37
6, 282115, Control_c, 4, 11, 36
6, 282120, Control_c, 4, 11, 35
6, 282125, Control_c, 4, 11, 34
6, 282130, Control_c, 4, 11, 33
6, 282135, Control_c, 4, 11, 32
6, 282140, Control_c, 4, 11, 31
6, 282145, Control_c, 4, 11, 30
6, 282150, Control_c, 4, 11, 29
6, 282155, Control_c, 4, 11, 26
6, 282160, Control_c, 4, 11, 25
6, 282165, Control_c, 4, 11, 24
6, 282170, Control_c, 4, 11, 23
6, 282175, Control_c, 4, 11, 21
6, 282180, Control_c, 4, 11, 20
6, 282185, Control_c, 4, 11, 19
6, 282190, Control_c, 4, 11, 18
6, 282195, Control_c, 4, 11, 16
6, 282200, Control_c, 4, 11, 15
6, 282205, Control_c, 4, 11, 13
6, 282210, Control_c, 4, 11, 12
6, 282215, Control_c, 4, 11, 10
6, 282220, Control_c, 4, 11, 9
6, 282225, Control_c, 4, 11, 6
6, 282230, Control_c, 4, 11, 4
6, 282235, Control_c, 4, 11, 1
6, 282240, Control_c, 4, 11, 0
6, 282323, Note_on_c, 4, 64, 0
6, 288000, Control_c, 4, 11, 80
6, 288226, Control_c, 4, 11, 80
6, 288226, Note_on_c, 4, 64, 42
6, 288326, Control_c, 4, 11, 79
6, 288421, Control_c, 4, 11, 78
6, 288516, Control_c, 4, 11, 77
6, 288616, Control_c, 4, 11, 76
6, 288711, Control_c, 4, 11, 75
6, 288806, Control_c, 4, 11, 74
6, 288901, Control_c, 4, 11, 73
6, 289001, Control_c, 4, 11, 72
6, 289096, Control_c, 4, 11, 71
6, 289191, Control_c, 4, 11, 70
6, 289286, Control_c, 4, 11, 69
6, 289386, Control_c, 4, 11, 68
6, 289481, Control_c, 4, 11, 67
6, 289576, Control_c, 4, 11, 66
6, 289671, Control_c, 4, 11, 65
6, 289771, Control_c, 4, 11, 64
6, 289866, Control_c, 4, 11, 63
6, 289961, Control_c, 4, 11, 62
6, 290061, Control_c, 4, 11, 61
6, 290156, Control_c, 4, 11, 60
6, 290251, Control_c, 4, 11, 59
6, 290346, Control_c, 4, 11, 58
6, 290446, Control_c, 4, 11, 57
6, 290541, Control_c, 4, 11, 56
6, 290636, Control_c, 4, 11, 55
6, 290731, Control_c, 4, 11, 54
6, 290831, Control_c, 4, 11, 53
6, 290926, Control_c, 4, 11, 52
6, 291021, Control_c, 4, 11, 51
6, 291116, Control_c, 4, 11, 50
6, 291216, Control_c, 4, 11, 49
6, 291311, Control_c, 4, 11, 48
6, 291406, Control_c, 4, 11, 47
6, 291506, Control_c, 4, 11, 46
6, 291601, Control_c, 4, 11, 45
6, 291696, Control_c, 4, 11, 44
6, 291791, Control_c, 4, 11, 43
6, 291891, Control_c, 4, 11, 42
6, 291986, Control_c, 4, 11, 41
6, 292011, Control_c, 4, 11, 42
6, 292031, Control_c, 4, 11, 43
6, 292051, Control_c, 4, 11, 44
6, 292071, Control_c, 4, 11, 45
6, 292091, Control_c, 4, 11, 46
6, 292092, Note_on_c, 4, 63, 32
6, 292116, Control_c, 4, 11, 47
6, 292136, Control_c, 4, 11, 48
6, 292156, Control_c, 4, 11, 49
6, 292176, Control_c, 4, 11, 50
6, 292182, Note_on_c, 4, 64, 0
6, 292196, Control_c, 4, 11, 51
6, 292216, Control_c, 4, 11, 52
6, 292241, Control_c, 4, 11, 53
6, 292261, Control_c, 4, 11, 54
6, 292281, Control_c, 4, 11, 55
6, 292301, Control_c, 4, 11, 56
6, 292321, Control_c, 4, 11, 57
6, 292341, Control_c, 4, 11, 58
6, 292366, Control_c, 4, 11, 59
6, 292386, Control_c, 4, 11, 60
6, 292406, Control_c, 4, 11, 61
6, 292426, Control_c, 4, 11, 62
6, 292446, Control_c, 4, 11, 63
6, 292466, Control_c, 4, 11, 64
6, 292491, Control_c, 4, 11, 65
6, 292511, Control_c, 4, 11, 66
6, 292531, Control_c, 4, 11, 67
6, 292551, Control_c, 4, 11, 68
6, 292571, Control_c, 4, 11, 69
6, 292591, Control_c, 4, 11, 70
6, 292616, Control_c, 4, 11, 71
6, 292636, Control_c, 4, 11, 72
6, 292656, Control_c, 4, 11, 73
6, 292676, Control_c, 4, 11, 74
6, 292696, Control_c, 4, 11, 75
6, 292716, Control_c, 4, 11, 76
6, 292741, Control_c, 4, 11, 77
6, 292761, Control_c, 4, 11, 78
6, 292781, Control_c, 4, 11, 79
6, 292800, Control_c, 4, 11, 80
6, 294071, Note_on_c, 4, 64, 29
6, 294147, Note_on_c, 4, 63, 0
6, 299082, Note_on_c, 4, 68, 47
6, 299108, Note_on_c, 4, 64, 0
6, 300012, Note_on_c, 4, 66, 41
6, 300144, Note_on_c, 4, 68, 0
6, 302787, Control_c, 4, 11, 80
6, 302787, Note_on_c, 4, 63, 36
6, 302839, Note_on_c, 4, 66, 0
6, 302942, Control_c, 4, 11, 79
6, 303092, Control_c, 4, 11, 78
6, 303242, Control_c, 4, 11, 77
6, 303392, Control_c, 4, 11, 76
6, 303542, Control_c, 4, 11, 75
6, 303692, Control_c, 4, 11, 74
6, 303842, Control_c, 4, 11, 73
6, 303992, Control_c, 4, 11, 72
6, 304142, Control_c, 4, 11, 71
6, 304292, Control_c, 4, 11, 70
6, 304442, Control_c, 4, 11, 69
6, 304592, Control_c, 4, 11, 68
6, 304742, Control_c, 4, 11, 67
6, 304892, Control_c, 4, 11, 66
6, 305042, Control_c, 4, 11, 65
6, 305192, Control_c, 4, 11, 64
6, 305342, Control_c, 4, 11, 63
6, 305492, Control_c, 4, 11, 62
6, 305642, Control_c, 4, 11, 61
6, 305791, Control_c, 4, 11, 60
6, 305791, Note_on_c, 4, 64, 26
6, 305817, Note_on_c, 4, 63, 0
6, 307332, Note_on_c, 4, 64, 0
6, 319680, End_track
7, 0, Start_track
7, 0, Title_t, "Violoncelli"
7, 0, MIDI_port, 0
7, 100, Control_c, 5, 0, 0
7, 120, Control_c, 5, 32, 0
7, 140, Program_c, 5, 49
7, 160, Control_c, 5, 10, 109
7, 180, Control_c, 5, 7, 100
7, 200, Control_c, 5, 11, 80
7, 220, Control_c, 5, 1, 19
7, 240, Control_c, 5, 91, 60
7, 260, Control_c, 5, 93, 38
7, 280, Control_c, 5, 101, 0
7, 300, Control_c, 5, 100, 0
7, 320, Control_c, 5, 6, 12
7, 340, Pitch_bend_c, 5, 8208
7, 360, Control_c, 5, 99, 1
7, 380, Control_c, 5, 98, 32
7, 400, Control_c, 5, 6, 62
7, 420, Control_c, 5, 98, 33
7, 440, Control_c, 5, 6, 60
7, 460, Control_c, 5, 98, 99
7, 480, Control_c, 5, 6, 57
7, 500, Control_c, 5, 98, 100
7, 520, Control_c, 5, 6, 64
7, 540, Control_c, 5, 98, 102
7, 560, Control_c, 5, 6, 66
7, 580, Control_c, 5, 99, 1
7, 600, Control_c, 5, 98, 8
7, 620, Control_c, 5, 6, 90
7, 640, Control_c, 5, 98, 9
7, 660, Control_c, 5, 6, 50
7, 680, Control_c, 5, 98, 10
7, 705, Control_c, 5, 6, 70
7, 5285, Control_c, 5, 67, 127
7, 7293, Control_c, 5, 11, 12
7, 7293, Note_on_c, 5, 47, 54
7, 7298, Control_c, 5, 11, 16
7, 7303, Control_c, 5, 11, 18
7, 7308, Control_c, 5, 11, 20
7, 7313, Control_c, 5, 11, 22
7, 7318, Control_c, 5, 11, 24
7, 7323, Control_c, 5, 11, 26
7, 7328, Control_c, 5, 11, 28
7, 7333, Control_c, 5, 11, 29
7, 7338, Control_c, 5, 11, 31
7, 7343, Control_c, 5, 11, 32
7, 7348, Control_c, 5, 11, 34
7, 7353, Control_c, 5, 11, 35
7, 7358, Control_c, 5, 11, 36
7, 7363, Control_c, 5, 11, 37
7, 7368, Control_c, 5, 11, 38
7, 7373, Control_c, 5, 11, 39
7, 7378, Control_c, 5, 11, 40
7, 7388, Control_c, 5, 11, 41
7, 7393, Control_c, 5, 11, 42
7, 7403, Control_c, 5, 11, 43
7, 7413, Control_c, 5, 11, 44
7, 7423, Control_c, 5, 11, 45
7, 7438, Control_c, 5, 11, 46
7, 7453, Control_c, 5, 11, 47
7, 7468, Control_c, 5, 11, 48
7, 7498, Control_c, 5, 11, 49
7, 7548, Control_c, 5, 11, 50
7, 7628, Control_c, 5, 11, 51
7, 7708, Control_c, 5, 11, 52
7, 7788, Control_c, 5, 11, 53
7, 7863, Control_c, 5, 11, 54
7, 7943, Control_c, 5, 11, 55
7, 8023, Control_c, 5, 11, 56
7, 8098, Control_c, 5, 11, 57
7, 8178, Control_c, 5, 11, 58
7, 8258, Control_c, 5, 11, 59
7, 8278, Note_on_c, 5, 49, 46
7, 8333, Control_c, 5, 11, 60
7, 8391, Note_on_c, 5, 47, 0
7, 8413, Control_c, 5, 11, 61
7, 8493, Control_c, 5, 11, 62
7, 8568, Control_c, 5, 11, 63
7, 8622, Note_on_c, 5, 51, 45
7, 8648, Control_c, 5, 11, 64
7, 8687, Note_on_c, 5, 49, 0
7, 8728, Control_c, 5, 11, 65
7, 8803, Control_c, 5, 11, 66
7, 8883, Control_c, 5, 11, 67
7, 8963, Control_c, 5, 11, 68
7, 9038, Control_c, 5, 11, 69
7, 9118, Control_c, 5, 11, 70
7, 9198, Control_c, 5, 11, 71
7, 9273, Control_c, 5, 11, 72
7, 9331, Note_on_c, 5, 52, 50
7, 9353, Control_c, 5, 11, 73
7, 9363, Note_on_c, 5, 51, 0
7, 9433, Control_c, 5, 11, 74
7, 9508, Control_c, 5, 11, 75
7, 9588, Control_c, 5, 11, 76
7, 9668, Control_c, 5, 11, 77
7, 9748, Control_c, 5, 11, 78
7, 9823, Control_c, 5, 11, 79
7, 9901, Control_c, 5, 11, 80
7, 9901, Note_on_c, 5, 54, 46
7, 9927, Note_on_c, 5, 52, 0
7, 10060, Note_on_c, 5, 54, 0
7, 10105, Note_on_c, 5, 54, 41
7, 11447, Note_on_c, 5, 52, 30
7, 11471, Note_on_c, 5, 54, 0
7, 12902, Note_on_c, 5, 47, 35
7, 12959, Note_on_c, 5, 52, 0
7, 13574, Note_on_c, 5, 47, 0
7, 13635, Control_c, 5, 11, 80
7, 13635, Note_on_c, 5, 40, 32
7, 13830, Control_c, 5, 11, 79
7, 13905, Control_c, 5, 11, 78
7, 13955, Control_c, 5, 11, 77
7, 13995, Control_c, 5, 11, 76
7, 14020, Control_c, 5, 11, 75
7, 14050, Control_c, 5, 11, 74
7, 14070, Control_c, 5, 11, 73
7, 14090, Control_c, 5, 11, 72
7, 14105, Control_c, 5, 11, 71
7, 14115, Control_c, 5, 11, 70
7, 14135, Control_c, 5, 11, 69
7, 14145, Control_c, 5, 11, 68
7, 14155, Control_c, 5, 11, 67
7, 14165, Control_c, 5, 11, 66
7, 14170, Control_c, 5, 11, 65
7, 14185, Control_c, 5, 11, 64
7, 14195, Control_c, 5, 11, 63
7, 14200, Control_c, 5, 11, 62
7, 14205, Control_c, 5, 11, 61
7, 14210, Control_c, 5, 11, 60
7, 14220, Control_c, 5, 11, 59
7, 14225, Control_c, 5, 11, 58
7, 14230, Control_c, 5, 11, 57
7, 14235, Control_c, 5, 11, 56
7, 14245, Control_c, 5, 11, 55
7, 14250, Control_c, 5, 11, 54
7, 14255, Control_c, 5, 11, 53
7, 14260, Control_c, 5, 11, 52
7, 14265, Control_c, 5, 11, 50
7, 14275, Control_c, 5, 11, 48
7, 14280, Control_c, 5, 11, 47
7, 14285, Control_c, 5, 11, 46
7, 14290, Control_c, 5, 11, 45
7, 14295, Control_c, 5, 11, 43
7, 14300, Control_c, 5, 11, 42
7, 14305, Control_c, 5, 11, 40
7, 14310, Control_c, 5, 11, 39
7, 14315, Control_c, 5, 11, 38
7, 14320, Control_c, 5, 11, 36
7, 14325, Control_c, 5, 11, 34
7, 14330, Control_c, 5, 11, 33
7, 14335, Control_c, 5, 11, 31
7, 14340, Control_c, 5, 11, 29
7, 14345, Control_c, 5, 11, 28
7, 14350, Control_c, 5, 11, 25
7, 14355, Control_c, 5, 11, 23
7, 14360, Control_c, 5, 11, 21
7, 14365, Control_c, 5, 11, 19
7, 14370, Control_c, 5, 11, 16
7, 14375, Control_c, 5, 11, 15
7, 14380, Control_c, 5, 11, 12
7, 14385, Control_c, 5, 11, 9
7, 14390, Control_c, 5, 11, 7
7, 14395, Control_c, 5, 11, 4
7, 14400, Control_c, 5, 11, 0
7, 14489, Note_on_c, 5, 40, 0
7, 21551, Control_c, 5, 11, 15
7, 21551, Note_on_c, 5, 44, 58
7, 21556, Control_c, 5, 11, 19
7, 21561, Control_c, 5, 11, 22
7, 21566, Control_c, 5, 11, 25
7, 21571, Control_c, 5, 11, 27
7, 21576, Control_c, 5, 11, 29
7, 21581, Control_c, 5, 11, 31
7, 21586, Control_c, 5, 11, 33
7, 21591, Control_c, 5, 11, 35
7, 21596, Control_c, 5, 11, 36
7, 21601, Control_c, 5, 11, 37
7, 21606, Control_c, 5, 11, 38
7, 21611, Control_c, 5, 11, 40
7, 21616, Control_c, 5, 11, 41
7, 21621, Control_c, 5, 11, 42
7, 21631, Control_c, 5, 11, 43
7, 21636, Control_c, 5, 11, 44
7, 21646, Control_c, 5, 11, 45
7, 21656, Control_c, 5, 11, 46
7, 21666, Control_c, 5, 11, 47
7, 21681, Control_c, 5, 11, 48
7, 21701, Control_c, 5, 11, 49
7, 21736, Control_c, 5, 11, 50
7, 21816, Control_c, 5, 11, 51
7, 21896, Control_c, 5, 11, 52
7, 21976, Control_c, 5, 11, 53
7, 22056, Control_c, 5, 11, 54
7, 22131, Control_c, 5, 11, 55
7, 22211, Control_c, 5, 11, 56
7, 22291, Control_c, 5, 11, 57
7, 22371, Control_c, 5, 11, 58
7, 22446, Control_c, 5, 11, 59
7, 22448, Note_on_c, 5, 46, 53
7, 22526, Control_c, 5, 11, 60
7, 22532, Note_on_c, 5, 44, 0
7, 22606, Control_c, 5, 11, 61
7, 22686, Control_c, 5, 11, 62
7, 22761, Control_c, 5, 11, 63
7, 22798, Note_on_c, 5, 48, 46
7, 22841, Control_c, 5, 11, 64
7, 22860, Note_on_c, 5, 46, 0
7, 22921, Control_c, 5, 11, 65
7, 23001, Control_c, 5, 11, 66
7, 23076, Control_c, 5, 11, 67
7, 23156, Control_c, 5, 11, 68
7, 23236, Control_c, 5, 11, 69
7, 23316, Control_c, 5, 11, 70
7, 23391, Control_c, 5, 11, 71
7, 23471, Control_c, 5, 11, 72
7, 23524, Note_on_c, 5, 49, 50
7, 23551, Control_c, 5, 11, 73
7, 23578, Note_on_c, 5, 48, 0
7, 23631, Control_c, 5, 11, 74
7, 23706, Control_c, 5, 11, 75
7, 23786, Control_c, 5, 11, 76
7, 23866, Control_c, 5, 11, 77
7, 23946, Control_c, 5, 11, 78
7, 24021, Control_c, 5, 11, 79
7, 24100, Control_c, 5, 11, 80
7, 24100, Note_on_c, 5, 51, 53
7, 24152, Note_on_c, 5, 49, 0
7, 24292, Note_on_c, 5, 51, 0
7, 24349, Note_on_c, 5, 51, 41
7, 25741, Note_on_c, 5, 49, 37
7, 25781, Note_on_c, 5, 51, 0
7, 27102, Note_on_c, 5, 44, 34
7, 27124, Note_on_c, 5, 49, 0
7, 27904, Note_on_c, 5, 45, 31
7, 27938, Note_on_c, 5, 44, 0
7, 28080, Control_c, 5, 11, 80
7, 28200, Control_c, 5, 11, 79
7, 28250, Control_c, 5, 11, 78
7, 28285, Control_c, 5, 11, 77
7, 28305, Control_c, 5, 11, 76
7, 28320, Control_c, 5, 11, 75
7, 28345, Control_c, 5, 11, 74
7, 28355, Control_c, 5, 11, 73
7, 28365, Control_c, 5, 11, 72
7, 28375, Control_c, 5, 11, 71
7, 28380, Control_c, 5, 11, 70
7, 28395, Control_c, 5, 11, 69
7, 28400, Control_c, 5, 11, 68
7, 28405, Control_c, 5, 11, 67
7, 28410, Control_c, 5, 11, 66
7, 28415, Control_c, 5, 11, 65
7, 28425, Control_c, 5, 11, 64
7, 28430, Control_c, 5, 11, 63
7, 28435, Control_c, 5, 11, 62
7, 28440, Control_c, 5, 11, 60
7, 28445, Control_c, 5, 11, 59
7, 28450, Control_c, 5, 11, 58
7, 28455, Control_c, 5, 11, 57
7, 28460, Control_c, 5, 11, 55
7, 28465, Control_c, 5, 11, 54
7, 28470, Control_c, 5, 11, 52
7, 28475, Control_c, 5, 11, 50
7, 28480, Control_c, 5, 11, 49
7, 28485, Control_c, 5, 11, 47
7, 28490, Control_c, 5, 11, 45
7, 28495, Control_c, 5, 11, 43
7, 28500, Control_c, 5, 11, 40
7, 28505, Control_c, 5, 11, 38
7, 28510, Control_c, 5, 11, 36
7, 28515, Control_c, 5, 11, 33
7, 28520, Control_c, 5, 11, 30
7, 28525, Control_c, 5, 11, 28
7, 28530, Control_c, 5, 11, 24
7, 28535, Control_c, 5, 11, 20
7, 28540, Control_c, 5, 11, 18
7, 28545, Control_c, 5, 11, 13
7, 28550, Control_c, 5, 11, 9
7, 28555, Control_c, 5, 11, 6
7, 28560, Control_c, 5, 11, 0
7, 28580, Note_on_c, 5, 45, 0
7, 30237, Control_c, 5, 11, 15
7, 30237, Note_on_c, 5, 42, 41
7, 30242, Control_c, 5, 11, 18
7, 30247, Control_c, 5, 11, 20
7, 30252, Control_c, 5, 11, 21
7, 30257, Control_c, 5, 11, 23
7, 30262, Control_c, 5, 11, 25
7, 30267, Control_c, 5, 11, 26
7, 30272, Control_c, 5, 11, 27
7, 30277, Control_c, 5, 11, 29
7, 30282, Control_c, 5, 11, 30
7, 30287, Control_c, 5, 11, 31
7, 30292, Control_c, 5, 11, 32
7, 30297, Control_c, 5, 11, 33
7, 30302, Control_c, 5, 11, 34
7, 30307, Control_c, 5, 11, 35
7, 30312, Control_c, 5, 11, 36
7, 30317, Control_c, 5, 11, 37
7, 30322, Control_c, 5, 11, 38
7, 30332, Control_c, 5, 11, 39
7, 30337, Control_c, 5, 11, 40
7, 30347, Control_c, 5, 11, 41
7, 30357, Control_c, 5, 11, 42
7, 30367, Control_c, 5, 11, 43
7, 30377, Control_c, 5, 11, 44
7, 30392, Control_c, 5, 11, 45
7, 30407, Control_c, 5, 11, 46
7, 30422, Control_c, 5, 11, 47
7, 30452, Control_c, 5, 11, 48
7, 30482, Control_c, 5, 11, 49
7, 30542, Control_c, 5, 11, 50
7, 30562, Control_c, 5, 11, 51
7, 30582, Control_c, 5, 11, 52
7, 30602, Control_c, 5, 11, 53
7, 30622, Control_c, 5, 11, 54
7, 30637, Control_c, 5, 11, 55
7, 30657, Control_c, 5, 11, 56
7, 30677, Control_c, 5, 11, 57
7, 30697, Control_c, 5, 11, 58
7, 30717, Control_c, 5, 11, 59
7, 30732, Control_c, 5, 11, 60
7, 30752, Control_c, 5, 11, 61
7, 30772, Control_c, 5, 11, 62
7, 30792, Control_c, 5, 11, 63
7, 30812, Control_c, 5, 11, 64
7, 30827, Control_c, 5, 11, 65
7, 30847, Control_c, 5, 11, 66
7, 30867, Control_c, 5, 11, 67
7, 30887, Control_c, 5, 11, 68
7, 30907, Control_c, 5, 11, 69
7, 30922, Control_c, 5, 11, 70
7, 30942, Control_c, 5, 11, 71
7, 30962, Control_c, 5, 11, 72
7, 30982, Control_c, 5, 11, 73
7, 30997, Control_c, 5, 11, 74
7, 31017, Control_c, 5, 11, 75
7, 31037, Control_c, 5, 11, 76
7, 31057, Control_c, 5, 11, 77
7, 31077, Control_c, 5, 11, 78
7, 31092, Control_c, 5, 11, 79
7, 31112, Control_c, 5, 11, 80
7, 31132, Control_c, 5, 11, 81
7, 31152, Control_c, 5, 11, 82
7, 31172, Control_c, 5, 11, 83
7, 31187, Control_c, 5, 11, 84
7, 31207, Control_c, 5, 11, 85
7, 31227, Control_c, 5, 11, 86
7, 31247, Control_c, 5, 11, 87
7, 31267, Control_c, 5, 11, 88
7, 31282, Control_c, 5, 11, 89
7, 31302, Control_c, 5, 11, 90
7, 31322, Control_c, 5, 11, 91
7, 31342, Control_c, 5, 11, 92
7, 31357, Control_c, 5, 11, 93
7, 31377, Control_c, 5, 11, 94
7, 31397, Control_c, 5, 11, 95
7, 31417, Control_c, 5, 11, 96
7, 31437, Control_c, 5, 11, 97
7, 31452, Control_c, 5, 11, 98
7, 31472, Control_c, 5, 11, 99
7, 31492, Control_c, 5, 11, 100
7, 31512, Control_c, 5, 11, 101
7, 31532, Control_c, 5, 11, 102
7, 31547, Control_c, 5, 11, 103
7, 31567, Control_c, 5, 11, 104
7, 31587, Control_c, 5, 11, 105
7, 31607, Control_c, 5, 11, 106
7, 31627, Control_c, 5, 11, 107
7, 31642, Control_c, 5, 11, 108
7, 31662, Control_c, 5, 11, 109
7, 31680, Control_c, 5, 11, 110
7, 31680, Control_c, 5, 11, 111
7, 31711, Control_c, 5, 11, 110
7, 31742, Control_c, 5, 11, 109
7, 31773, Control_c, 5, 11, 108
7, 31804, Control_c, 5, 11, 107
7, 31835, Control_c, 5, 11, 106
7, 31866, Control_c, 5, 11, 105
7, 31897, Control_c, 5, 11, 104
7, 31928, Control_c, 5, 11, 103
7, 31959, Control_c, 5, 11, 102
7, 31990, Control_c, 5, 11, 101
7, 32021, Control_c, 5, 11, 100
7, 32052, Control_c, 5, 11, 99
7, 32083, Control_c, 5, 11, 98
7, 32114, Control_c, 5, 11, 97
7, 32145, Control_c, 5, 11, 96
7, 32175, Control_c, 5, 11, 95
7, 32206, Control_c, 5, 11, 94
7, 32237, Control_c, 5, 11, 93
7, 32268, Control_c, 5, 11, 92
7, 32299, Control_c, 5, 11, 91
7, 32330, Control_c, 5, 11, 90
7, 32361, Control_c, 5, 11, 89
7, 32392, Control_c, 5, 11, 88
7, 32417, Note_on_c, 5, 47, 43
7, 32420, Note_on_c, 5, 42, 0
7, 32423, Control_c, 5, 11, 87
7, 32454, Control_c, 5, 11, 86
7, 32485, Control_c, 5, 11, 85
7, 32516, Control_c, 5, 11, 84
7, 32547, Control_c, 5, 11, 83
7, 32578, Control_c, 5, 11, 82
7, 32609, Control_c, 5, 11, 81
7, 32639, Control_c, 5, 11, 80
7, 33600, Control_c, 5, 11, 80
7, 33780, Control_c, 5, 11, 79
7, 33855, Control_c, 5, 11, 78
7, 33905, Control_c, 5, 11, 77
7, 33935, Control_c, 5, 11, 76
7, 33960, Control_c, 5, 11, 75
7, 33995, Control_c, 5, 11, 74
7, 34010, Control_c, 5, 11, 73
7, 34025, Control_c, 5, 11, 72
7, 34040, Control_c, 5, 11, 71
7, 34050, Control_c, 5, 11, 70
7, 34070, Control_c, 5, 11, 69
7, 34080, Control_c, 5, 11, 68
7, 34090, Control_c, 5, 11, 67
7, 34095, Control_c, 5, 11, 66
7, 34105, Control_c, 5, 11, 65
7, 34115, Control_c, 5, 11, 64
7, 34125, Control_c, 5, 11, 63
7, 34130, Control_c, 5, 11, 62
7, 34135, Control_c, 5, 11, 61
7, 34140, Control_c, 5, 11, 60
7, 34150, Control_c, 5, 11, 59
7, 34155, Control_c, 5, 11, 58
7, 34160, Control_c, 5, 11, 57
7, 34165, Control_c, 5, 11, 56
7, 34175, Control_c, 5, 11, 55
7, 34180, Control_c, 5, 11, 54
7, 34185, Control_c, 5, 11, 52
7, 34190, Control_c, 5, 11, 51
7, 34195, Control_c, 5, 11, 50
7, 34200, Control_c, 5, 11, 49
7, 34205, Control_c, 5, 11, 48
7, 34210, Control_c, 5, 11, 46
7, 34215, Control_c, 5, 11, 45
7, 34220, Control_c, 5, 11, 44
7, 34225, Control_c, 5, 11, 42
7, 34230, Control_c, 5, 11, 40
7, 34235, Control_c, 5, 11, 39
7, 34240, Control_c, 5, 11, 38
7, 34245, Control_c, 5, 11, 36
7, 34250, Control_c, 5, 11, 34
7, 34255, Control_c, 5, 11, 32
7, 34260, Control_c, 5, 11, 31
7, 34265, Control_c, 5, 11, 29
7, 34270, Control_c, 5, 11, 26
7, 34275, Control_c, 5, 11, 24
7, 34280, Control_c, 5, 11, 21
7, 34285, Control_c, 5, 11, 20
7, 34290, Control_c, 5, 11, 18
7, 34295, Control_c, 5, 11, 15
7, 34300, Control_c, 5, 11, 12
7, 34305, Control_c, 5, 11, 9
7, 34310, Control_c, 5, 11, 7
7, 34315, Control_c, 5, 11, 4
7, 34320, Control_c, 5, 11, 0
7, 34520, Note_on_c, 5, 47, 0
7, 56355, Control_c, 5, 11, 80
7, 56355, Note_on_c, 5, 52, 35
7, 56375, Control_c, 5, 11, 81
7, 56394, Control_c, 5, 11, 82
7, 56413, Control_c, 5, 11, 83
7, 56432, Control_c, 5, 11, 84
7, 56451, Control_c, 5, 11, 85
7, 56470, Control_c, 5, 11, 86
7, 56489, Control_c, 5, 11, 87
7, 56508, Control_c, 5, 11, 88
7, 56527, Control_c, 5, 11, 89
7, 56546, Control_c, 5, 11, 90
7, 56566, Control_c, 5, 11, 91
7, 56585, Control_c, 5, 11, 92
7, 56604, Control_c, 5, 11, 93
7, 56623, Control_c, 5, 11, 94
7, 56642, Control_c, 5, 11, 95
7, 56661, Control_c, 5, 11, 96
7, 56680, Control_c, 5, 11, 97
7, 56699, Control_c, 5, 11, 98
7, 56718, Control_c, 5, 11, 99
7, 56737, Control_c, 5, 11, 100
7, 56757, Control_c, 5, 11, 101
7, 56776, Control_c, 5, 11, 102
7, 56795, Control_c, 5, 11, 103
7, 56814, Control_c, 5, 11, 104
7, 56833, Control_c, 5, 11, 105
7, 56852, Control_c, 5, 11, 106
7, 56871, Control_c, 5, 11, 107
7, 56880, Note_on_c, 5, 51, 37
7, 56890, Control_c, 5, 11, 108
7, 56909, Control_c, 5, 11, 109
7, 56928, Control_c, 5, 11, 110
7, 56948, Control_c, 5, 11, 111
7, 56967, Control_c, 5, 11, 112
7, 56986, Control_c, 5, 11, 113
7, 57005, Control_c, 5, 11, 114
7, 57024, Control_c, 5, 11, 115
7, 57043, Control_c, 5, 11, 116
7, 57062, Control_c, 5, 11, 117
7, 57065, Note_on_c, 5, 52, 0
7, 57081, Control_c, 5, 11, 118
7, 57100, Control_c, 5, 11, 119
7, 57119, Control_c, 5, 11, 120
7, 57144, Control_c, 5, 11, 119
7, 57169, Control_c, 5, 11, 118
7, 57193, Control_c, 5, 11, 117
7, 57218, Control_c, 5, 11, 116
7, 57243, Control_c, 5, 11, 115
7, 57267, Control_c, 5, 11, 114
7, 57292, Control_c, 5, 11, 113
7, 57316, Control_c, 5, 11, 112
7, 57341, Control_c, 5, 11, 111
7, 57366, Control_c, 5, 11, 110
7, 57390, Control_c, 5, 11, 109
7, 57415, Control_c, 5, 11, 108
7, 57440, Control_c, 5, 11, 107
7, 57464, Control_c, 5, 11, 106
7, 57481, Note_on_c, 5, 49, 36
7, 57489, Control_c, 5, 11, 105
7, 57513, Control_c, 5, 11, 104
7, 57538, Control_c, 5, 11, 103
7, 57563, Control_c, 5, 11, 102
7, 57587, Control_c, 5, 11, 101
7, 57590, Note_on_c, 5, 51, 0
7, 57612, Control_c, 5, 11, 100
7, 57637, Control_c, 5, 11, 99
7, 57661, Control_c, 5, 11, 98
7, 57686, Control_c, 5, 11, 97
7, 57710, Control_c, 5, 11, 96
7, 57735, Control_c, 5, 11, 95
7, 57760, Control_c, 5, 11, 94
7, 57784, Control_c, 5, 11, 93
7, 57809, Control_c, 5, 11, 92
7, 57834, Control_c, 5, 11, 91
7, 57858, Control_c, 5, 11, 90
7, 57883, Control_c, 5, 11, 89
7, 57907, Control_c, 5, 11, 88
7, 57932, Control_c, 5, 11, 87
7, 57957, Control_c, 5, 11, 86
7, 57981, Control_c, 5, 11, 85
7, 58006, Control_c, 5, 11, 84
7, 58031, Control_c, 5, 11, 83
7, 58055, Control_c, 5, 11, 82
7, 58080, Control_c, 5, 11, 81
7, 58104, Control_c, 5, 11, 80
7, 58105, Note_on_c, 5, 47, 34
7, 58158, Note_on_c, 5, 49, 0
7, 60304, Note_on_c, 5, 49, 43
7, 60307, Note_on_c, 5, 47, 0
7, 62415, Note_on_c, 5, 42, 53
7, 62449, Note_on_c, 5, 49, 0
7, 64437, Note_on_c, 5, 47, 57
7, 64454, Note_on_c, 5, 42, 0
7, 66274, Note_on_c, 5, 47, 0
7, 66440, Note_on_c, 5, 52, 48
7, 66942, Note_on_c, 5, 54, 53
7, 66999, Note_on_c, 5, 52, 0
7, 67383, Note_on_c, 5, 51, 67
7, 67445, Note_on_c, 5, 54, 0
7, 67799, Note_on_c, 5, 54, 66
7, 67834, Note_on_c, 5, 51, 0
7, 68178, Note_on_c, 5, 54, 0
7, 68212, Note_on_c, 5, 54, 67
7, 68640, Note_on_c, 5, 56, 71
7, 68700, Note_on_c, 5, 54, 0
7, 69052, Note_on_c, 5, 52, 75
7, 69118, Note_on_c, 5, 56, 0
7, 69500, Note_on_c, 5, 56, 74
7, 69532, Note_on_c, 5, 52, 0
7, 69917, Note_on_c, 5, 57, 73
7, 69973, Note_on_c, 5, 56, 0
7, 70552, Note_on_c, 5, 59, 76
7, 70618, Note_on_c, 5, 57, 0
7, 71144, Note_on_c, 5, 56, 75
7, 71252, Note_on_c, 5, 59, 0
7, 71873, Note_on_c, 5, 61, 68
7, 71957, Note_on_c, 5, 56, 0
7, 72402, Note_on_c, 5, 59, 57
7, 72449, Note_on_c, 5, 61, 0
7, 72864, Note_on_c, 5, 58, 50
7, 72988, Note_on_c, 5, 59, 0
7, 75509, Note_on_c, 5, 58, 0
7, 79434, Note_on_c, 5, 42, 53
7, 79846, Note_on_c, 5, 44, 63
7, 79905, Note_on_c, 5, 42, 0
7, 80329, Note_on_c, 5, 46, 71
7, 80390, Note_on_c, 5, 44, 0
7, 80964, Note_on_c, 5, 47, 67
7, 81007, Note_on_c, 5, 46, 0
7, 81619, Note_on_c, 5, 47, 0
7, 83396, Note_on_c, 5, 42, 65
7, 83784, Note_on_c, 5, 44, 63
7, 83819, Note_on_c, 5, 42, 0
7, 84232, Note_on_c, 5, 46, 69
7, 84306, Note_on_c, 5, 44, 0
7, 84788, Note_on_c, 5, 47, 66
7, 84839, Note_on_c, 5, 46, 0
7, 86738, Note_on_c, 5, 46, 74
7, 86808, Note_on_c, 5, 47, 0
7, 87617, Note_on_c, 5, 48, 79
7, 87682, Note_on_c, 5, 46, 0
7, 89044, Note_on_c, 5, 49, 66
7, 89106, Note_on_c, 5, 48, 0
7, 91417, Note_on_c, 5, 54, 54
7, 91467, Note_on_c, 5, 49, 0
7, 91988, Note_on_c, 5, 54, 0
7, 92947, Note_on_c, 5, 54, 64
7, 93609, Note_on_c, 5, 47, 63
7, 93656, Note_on_c, 5, 54, 0
7, 94218, Note_on_c, 5, 47, 0
7, 96188, Note_on_c, 5, 42, 72
7, 96618, Note_on_c, 5, 44, 71
7, 96680, Note_on_c, 5, 42, 0
7, 97021, Note_on_c, 5, 46, 68
7, 97088, Note_on_c, 5, 44, 0
7, 97644, Note_on_c, 5, 47, 64
7, 97689, Note_on_c, 5, 46, 0
7, 98163, Note_on_c, 5, 47, 0
7, 100401, Note_on_c, 5, 42, 87
7, 100821, Note_on_c, 5, 44, 84
7, 100866, Note_on_c, 5, 42, 0
7, 101452, Note_on_c, 5, 46, 85
7, 101512, Note_on_c, 5, 44, 0
7, 102161, Note_on_c, 5, 47, 78
7, 102193, Note_on_c, 5, 46, 0
7, 104250, Note_on_c, 5, 47, 0
7, 104254, Note_on_c, 5, 52, 74
7, 104849, Note_on_c, 5, 51, 84
7, 104888, Note_on_c, 5, 52, 0
7, 105370, Note_on_c, 5, 51, 0
7, 105390, Note_on_c, 5, 44, 85
7, 106038, Note_on_c, 5, 43, 87
7, 106070, Note_on_c, 5, 44, 0
7, 107002, Note_on_c, 5, 42, 97
7, 107056, Note_on_c, 5, 43, 0
7, 107762, Note_on_c, 5, 42, 0
7, 109263, Note_on_c, 5, 42, 57
7, 109907, Note_on_c, 5, 47, 37
7, 109970, Note_on_c, 5, 42, 0
7, 110573, Note_on_c, 5, 47, 0
7, 112176, Note_on_c, 5, 47, 60
7, 120481, Note_on_c, 5, 47, 0
7, 120561, Note_on_c, 5, 47, 44
7, 120782, Note_on_c, 5, 47, 0
7, 121109, Note_on_c, 5, 47, 48
7, 121269, Note_on_c, 5, 47, 0
7, 121613, Note_on_c, 5, 47, 40
7, 121831, Note_on_c, 5, 47, 0
7, 127578, Note_on_c, 5, 47, 42
7, 128161, Note_on_c, 5, 49, 46
7, 128233, Note_on_c, 5, 47, 0
7, 128372, Note_on_c, 5, 51, 51
7, 128464, Note_on_c, 5, 49, 0
7, 129171, Note_on_c, 5, 52, 44
7, 129221, Note_on_c, 5, 51, 0
7, 129686, Note_on_c, 5, 54, 38
7, 129810, Note_on_c, 5, 52, 0
7, 130364, Note_on_c, 5, 52, 31
7, 130434, Note_on_c, 5, 54, 0
7, 132668, Note_on_c, 5, 47, 45
7, 132670, Note_on_c, 5, 52, 0
7, 135100, Note_on_c, 5, 52, 56
7, 135180, Note_on_c, 5, 47, 0
7, 135759, Note_on_c, 5, 45, 66
7, 135793, Note_on_c, 5, 52, 0
7, 136349, Note_on_c, 5, 40, 55
7, 136387, Note_on_c, 5, 45, 0
7, 137356, Note_on_c, 5, 47, 54
7, 137416, Note_on_c, 5, 40, 0
7, 140204, Note_on_c, 5, 52, 37
7, 140270, Note_on_c, 5, 47, 0
7, 140940, Note_on_c, 5, 52, 0
7, 142329, Note_on_c, 5, 52, 46
7, 143737, Note_on_c, 5, 45, 36
7, 143776, Note_on_c, 5, 52, 0
7, 147552, Note_on_c, 5, 42, 52
7, 147601, Note_on_c, 5, 45, 0
7, 148601, Note_on_c, 5, 47, 44
7, 148645, Note_on_c, 5, 42, 0
7, 149658, Note_on_c, 5, 49, 55
7, 149764, Note_on_c, 5, 47, 0
7, 150155, Note_on_c, 5, 49, 0
7, 150305, Note_on_c, 5, 42, 44
7, 152230, Note_on_c, 5, 47, 36
7, 152303, Note_on_c, 5, 42, 0
7, 153433, Note_on_c, 5, 52, 31
7, 153482, Note_on_c, 5, 47, 0
7, 155281, Note_on_c, 5, 52, 0
7, 156540, Note_on_c, 5, 56, 67
7, 157130, Note_on_c, 5, 49, 53
7, 157177, Note_on_c, 5, 56, 0
7, 157408, Note_on_c, 5, 49, 0
7, 157669, Note_on_c, 5, 52, 68
7, 157879, Note_on_c, 5, 54, 76
7, 157893, Note_on_c, 5, 52, 0
7, 158116, Note_on_c, 5, 56, 83
7, 158168, Note_on_c, 5, 54, 0
7, 158569, Note_on_c, 5, 52, 86
7, 158608, Note_on_c, 5, 56, 0
7, 158809, Note_on_c, 5, 56, 78
7, 158846, Note_on_c, 5, 52, 0
7, 159032, Note_on_c, 5, 57, 79
7, 159076, Note_on_c, 5, 56, 0
7, 159478, Note_on_c, 5, 54, 72
7, 159510, Note_on_c, 5, 57, 0
7, 159684, Note_on_c, 5, 56, 72
7, 159723, Note_on_c, 5, 54, 0
7, 159940, Note_on_c, 5, 57, 68
7, 159962, Note_on_c, 5, 56, 0
7, 160351, Note_on_c, 5, 54, 67
7, 160365, Note_on_c, 5, 57, 0
7, 160532, Note_on_c, 5, 56, 61
7, 160573, Note_on_c, 5, 54, 0
7, 160778, Note_on_c, 5, 57, 53
7, 160823, Note_on_c, 5, 56, 0
7, 161262, Note_on_c, 5, 54, 78
7, 161343, Note_on_c, 5, 57, 0
7, 161526, Note_on_c, 5, 56, 71
7, 161570, Note_on_c, 5, 54, 0
7, 161771, Note_on_c, 5, 57, 67
7, 161803, Note_on_c, 5, 56, 0
7, 162252, Note_on_c, 5, 54, 66
7, 162286, Note_on_c, 5, 57, 0
7, 162594, Note_on_c, 5, 57, 43
7, 162623, Note_on_c, 5, 54, 0
7, 162955, Note_on_c, 5, 56, 30
7, 163006, Note_on_c, 5, 57, 0
7, 163416, Note_on_c, 5, 52, 54
7, 163449, Note_on_c, 5, 56, 0
7, 163618, Note_on_c, 5, 54, 58
7, 163672, Note_on_c, 5, 52, 0
7, 163903, Note_on_c, 5, 56, 63
7, 163948, Note_on_c, 5, 54, 0
7, 164395, Note_on_c, 5, 52, 74
7, 164405, Note_on_c, 5, 56, 0
7, 164607, Note_on_c, 5, 54, 67
7, 164668, Note_on_c, 5, 52, 0
7, 164956, Note_on_c, 5, 56, 48
7, 164986, Note_on_c, 5, 54, 0
7, 165516, Note_on_c, 5, 56, 0
7, 165518, Note_on_c, 5, 52, 46
7, 165753, Note_on_c, 5, 56, 53
7, 165848, Note_on_c, 5, 52, 0
7, 165990, Note_on_c, 5, 57, 62
7, 166052, Note_on_c, 5, 56, 0
7, 166429, Note_on_c, 5, 54, 76
7, 166473, Note_on_c, 5, 57, 0
7, 166698, Note_on_c, 5, 57, 61
7, 166714, Note_on_c, 5, 54, 0
7, 166937, Note_on_c, 5, 56, 48
7, 166976, Note_on_c, 5, 57, 0
7, 167319, Note_on_c, 5, 56, 0
7, 167345, Note_on_c, 5, 52, 43
7, 167610, Note_on_c, 5, 56, 51
7, 167648, Note_on_c, 5, 52, 0
7, 167847, Note_on_c, 5, 57, 58
7, 167899, Note_on_c, 5, 56, 0
7, 168327, Note_on_c, 5, 54, 65
7, 168354, Note_on_c, 5, 57, 0
7, 168528, Note_on_c, 5, 57, 76
7, 168612, Note_on_c, 5, 54, 0
7, 168740, Note_on_c, 5, 56, 64
7, 168797, Note_on_c, 5, 57, 0
7, 169178, Note_on_c, 5, 56, 0
7, 169257, Note_on_c, 5, 52, 73
7, 169487, Note_on_c, 5, 54, 79
7, 169565, Note_on_c, 5, 52, 0
7, 169797, Note_on_c, 5, 55, 84
7, 169811, Note_on_c, 5, 54, 0
7, 170037, Note_on_c, 5, 52, 73
7, 170062, Note_on_c, 5, 55, 0
7, 170421, Note_on_c, 5, 51, 61
7, 170463, Note_on_c, 5, 52, 0
7, 170655, Note_on_c, 5, 51, 0
7, 170692, Note_on_c, 5, 51, 66
7, 171705, Note_on_c, 5, 51, 0
7, 183652, Note_on_c, 5, 52, 89
7, 187706, Note_on_c, 5, 51, 55
7, 187794, Note_on_c, 5, 52, 0
7, 190535, Note_on_c, 5, 44, 52
7, 190591, Note_on_c, 5, 51, 0
7, 191234, Note_on_c, 5, 44, 0
7, 193210, Note_on_c, 5, 51, 65
7, 193682, Note_on_c, 5, 53, 67
7, 193739, Note_on_c, 5, 51, 0
7, 194190, Note_on_c, 5, 55, 57
7, 194244, Note_on_c, 5, 53, 0
7, 194857, Note_on_c, 5, 56, 55
7, 194938, Note_on_c, 5, 55, 0
7, 195481, Note_on_c, 5, 56, 0
7, 197512, Note_on_c, 5, 51, 57
7, 197993, Note_on_c, 5, 53, 62
7, 198039, Note_on_c, 5, 51, 0
7, 198451, Note_on_c, 5, 55, 66
7, 198493, Note_on_c, 5, 53, 0
7, 199005, Note_on_c, 5, 55, 0
7, 199008, Note_on_c, 5, 56, 67
7, 200167, Note_on_c, 5, 56, 0
7, 200997, Note_on_c, 5, 43, 73
7, 202026, Note_on_c, 5, 45, 81
7, 202068, Note_on_c, 5, 43, 0
7, 203744, Note_on_c, 5, 46, 53
7, 203881, Note_on_c, 5, 45, 0
7, 206434, Note_on_c, 5, 46, 0
7, 206444, Note_on_c, 5, 39, 36
7, 207122, Note_on_c, 5, 39, 0
7, 208182, Note_on_c, 5, 51, 55
7, 208974, Note_on_c, 5, 44, 37
7, 208984, Note_on_c, 5, 51, 0
7, 209715, Note_on_c, 5, 44, 0
7, 211925, Note_on_c, 5, 51, 64
7, 212396, Note_on_c, 5, 53, 69
7, 212446, Note_on_c, 5, 51, 0
7, 212857, Note_on_c, 5, 55, 71
7, 212933, Note_on_c, 5, 53, 0
7, 213536, Note_on_c, 5, 56, 48
7, 213613, Note_on_c, 5, 55, 0
7, 214184, Note_on_c, 5, 56, 0
7, 216464, Note_on_c, 5, 51, 77
7, 217018, Note_on_c, 5, 53, 72
7, 217081, Note_on_c, 5, 51, 0
7, 217778, Note_on_c, 5, 55, 57
7, 217834, Note_on_c, 5, 53, 0
7, 218586, Note_on_c, 5, 56, 52
7, 218675, Note_on_c, 5, 55, 0
7, 220859, Note_on_c, 5, 56, 0
7, 222069, Note_on_c, 5, 53, 106
7, 222870, Note_on_c, 5, 53, 0
7, 222884, Note_on_c, 5, 52, 107
7, 223861, Note_on_c, 5, 51, 112
7, 223893, Note_on_c, 5, 52, 0
7, 225600, Control_c, 5, 11, 80
7, 225645, Control_c, 5, 11, 79
7, 225690, Control_c, 5, 11, 78
7, 225735, Control_c, 5, 11, 77
7, 225780, Control_c, 5, 11, 76
7, 225825, Control_c, 5, 11, 75
7, 225870, Control_c, 5, 11, 74
7, 225910, Control_c, 5, 11, 73
7, 225955, Control_c, 5, 11, 72
7, 226000, Control_c, 5, 11, 71
7, 226045, Control_c, 5, 11, 70
7, 226090, Control_c, 5, 11, 69
7, 226135, Control_c, 5, 11, 68
7, 226180, Control_c, 5, 11, 67
7, 226220, Control_c, 5, 11, 66
7, 226265, Control_c, 5, 11, 65
7, 226310, Control_c, 5, 11, 64
7, 226355, Control_c, 5, 11, 63
7, 226400, Control_c, 5, 11, 62
7, 226445, Control_c, 5, 11, 61
7, 226490, Control_c, 5, 11, 60
7, 226530, Control_c, 5, 11, 59
7, 226575, Control_c, 5, 11, 58
7, 226620, Control_c, 5, 11, 57
7, 226665, Control_c, 5, 11, 56
7, 226710, Control_c, 5, 11, 55
7, 226755, Control_c, 5, 11, 54
7, 226800, Control_c, 5, 11, 53
7, 226840, Control_c, 5, 11, 52
7, 226885, Control_c, 5, 11, 51
7, 226930, Control_c, 5, 11, 50
7, 226975, Control_c, 5, 11, 49
7, 227020, Control_c, 5, 11, 48
7, 227065, Control_c, 5, 11, 47
7, 227110, Control_c, 5, 11, 46
7, 227150, Control_c, 5, 11, 45
7, 227195, Control_c, 5, 11, 44
7, 227240, Control_c, 5, 11, 43
7, 227285, Control_c, 5, 11, 42
7, 227330, Control_c, 5, 11, 41
7, 227367, Note_on_c, 5, 51, 0
7, 227372, Control_c, 5, 11, 40
7, 227372, Note_on_c, 5, 44, 65
7, 228073, Note_on_c, 5, 44, 0
7, 229440, Control_c, 5, 11, 80
7, 229756, Note_on_c, 5, 56, 47
7, 230743, Note_on_c, 5, 56, 0
7, 230757, Note_on_c, 5, 51, 45
7, 231948, Note_on_c, 5, 51, 0
7, 236059, Note_on_c, 5, 51, 53
7, 237739, Note_on_c, 5, 51, 0
7, 254181, Note_on_c, 5, 44, 36
7, 254956, Note_on_c, 5, 46, 45
7, 255057, Note_on_c, 5, 44, 0
7, 255637, Note_on_c, 5, 48, 55
7, 255680, Note_on_c, 5, 46, 0
7, 256525, Note_on_c, 5, 49, 46
7, 256636, Note_on_c, 5, 48, 0
7, 257175, Note_on_c, 5, 51, 42
7, 257270, Note_on_c, 5, 49, 0
7, 257412, Note_on_c, 5, 52, 36
7, 257461, Note_on_c, 5, 51, 0
7, 259775, Control_c, 5, 11, 80
7, 259775, Note_on_c, 5, 47, 42
7, 259825, Control_c, 5, 11, 81
7, 259870, Control_c, 5, 11, 82
7, 259915, Control_c, 5, 11, 83
7, 259960, Control_c, 5, 11, 84
7, 260010, Control_c, 5, 11, 85
7, 260044, Note_on_c, 5, 52, 0
7, 260055, Control_c, 5, 11, 86
7, 260100, Control_c, 5, 11, 87
7, 260145, Control_c, 5, 11, 88
7, 260195, Control_c, 5, 11, 89
7, 260240, Control_c, 5, 11, 90
7, 260285, Control_c, 5, 11, 91
7, 260330, Control_c, 5, 11, 92
7, 260380, Control_c, 5, 11, 93
7, 260425, Control_c, 5, 11, 94
7, 260470, Control_c, 5, 11, 95
7, 260515, Control_c, 5, 11, 96
7, 260565, Control_c, 5, 11, 97
7, 260610, Control_c, 5, 11, 98
7, 260655, Control_c, 5, 11, 99
7, 260700, Control_c, 5, 11, 100
7, 260750, Control_c, 5, 11, 101
7, 260795, Control_c, 5, 11, 102
7, 260840, Control_c, 5, 11, 103
7, 260885, Control_c, 5, 11, 104
7, 260935, Control_c, 5, 11, 105
7, 260980, Control_c, 5, 11, 106
7, 261025, Control_c, 5, 11, 107
7, 261070, Control_c, 5, 11, 108
7, 261120, Control_c, 5, 11, 109
7, 261120, Control_c, 5, 11, 109
7, 261160, Control_c, 5, 11, 108
7, 261195, Control_c, 5, 11, 107
7, 261230, Control_c, 5, 11, 106
7, 261265, Control_c, 5, 11, 105
7, 261300, Control_c, 5, 11, 104
7, 261335, Control_c, 5, 11, 103
7, 261375, Control_c, 5, 11, 102
7, 261410, Control_c, 5, 11, 101
7, 261445, Control_c, 5, 11, 100
7, 261480, Control_c, 5, 11, 99
7, 261515, Control_c, 5, 11, 98
7, 261550, Control_c, 5, 11, 97
7, 261585, Control_c, 5, 11, 96
7, 261625, Control_c, 5, 11, 95
7, 261660, Control_c, 5, 11, 94
7, 261695, Control_c, 5, 11, 93
7, 261730, Control_c, 5, 11, 92
7, 261765, Control_c, 5, 11, 91
7, 261800, Control_c, 5, 11, 90
7, 261835, Control_c, 5, 11, 89
7, 261875, Control_c, 5, 11, 88
7, 261910, Control_c, 5, 11, 87
7, 261945, Control_c, 5, 11, 86
7, 261980, Control_c, 5, 11, 85
7, 262015, Control_c, 5, 11, 84
7, 262050, Control_c, 5, 11, 83
7, 262085, Control_c, 5, 11, 82
7, 262125, Control_c, 5, 11, 81
7, 262155, Note_on_c, 5, 47, 0
7, 262160, Control_c, 5, 11, 80
7, 262163, Note_on_c, 5, 52, 52
7, 262678, Note_on_c, 5, 52, 0
7, 262707, Note_on_c, 5, 52, 65
7, 263134, Note_on_c, 5, 45, 55
7, 263184, Note_on_c, 5, 52, 0
7, 263289, Note_on_c, 5, 52, 59
7, 263308, Note_on_c, 5, 45, 0
7, 264325, Note_on_c, 5, 47, 54
7, 264364, Note_on_c, 5, 52, 0
7, 265440, Control_c, 5, 11, 80
7, 265490, Control_c, 5, 11, 79
7, 265540, Control_c, 5, 11, 78
7, 265585, Control_c, 5, 11, 77
7, 265635, Control_c, 5, 11, 76
7, 265680, Control_c, 5, 11, 75
7, 265730, Control_c, 5, 11, 74
7, 265780, Control_c, 5, 11, 73
7, 265825, Control_c, 5, 11, 72
7, 265875, Control_c, 5, 11, 71
7, 265920, Control_c, 5, 11, 70
7, 265970, Control_c, 5, 11, 69
7, 266020, Control_c, 5, 11, 68
7, 266065, Control_c, 5, 11, 67
7, 266115, Control_c, 5, 11, 66
7, 266160, Control_c, 5, 11, 65
7, 266210, Control_c, 5, 11, 64
7, 266260, Control_c, 5, 11, 63
7, 266305, Control_c, 5, 11, 62
7, 266355, Control_c, 5, 11, 61
7, 266400, Control_c, 5, 11, 60
7, 266450, Control_c, 5, 11, 59
7, 266500, Control_c, 5, 11, 58
7, 266545, Control_c, 5, 11, 57
7, 266595, Control_c, 5, 11, 56
7, 266640, Control_c, 5, 11, 55
7, 266690, Control_c, 5, 11, 54
7, 266740, Control_c, 5, 11, 53
7, 266785, Control_c, 5, 11, 52
7, 266813, Note_on_c, 5, 52, 46
7, 266835, Control_c, 5, 11, 51
7, 266836, Note_on_c, 5, 47, 0
7, 266880, Control_c, 5, 11, 50
7, 266880, Control_c, 5, 11, 50
7, 266885, Control_c, 5, 11, 52
7, 266890, Control_c, 5, 11, 53
7, 266895, Control_c, 5, 11, 54
7, 266900, Control_c, 5, 11, 55
7, 266905, Control_c, 5, 11, 56
7, 266910, Control_c, 5, 11, 57
7, 266915, Control_c, 5, 11, 58
7, 266920, Control_c, 5, 11, 59
7, 266925, Control_c, 5, 11, 60
7, 266935, Control_c, 5, 11, 61
7, 266940, Control_c, 5, 11, 62
7, 266945, Control_c, 5, 11, 63
7, 266955, Control_c, 5, 11, 64
7, 266960, Control_c, 5, 11, 65
7, 266970, Control_c, 5, 11, 66
7, 266980, Control_c, 5, 11, 67
7, 266990, Control_c, 5, 11, 68
7, 267000, Control_c, 5, 11, 69
7, 267010, Control_c, 5, 11, 70
7, 267025, Control_c, 5, 11, 71
7, 267035, Control_c, 5, 11, 72
7, 267050, Control_c, 5, 11, 73
7, 267070, Control_c, 5, 11, 74
7, 267090, Control_c, 5, 11, 75
7, 267115, Control_c, 5, 11, 76
7, 267140, Control_c, 5, 11, 77
7, 267175, Control_c, 5, 11, 78
7, 267225, Control_c, 5, 11, 79
7, 267315, Control_c, 5, 11, 80
7, 269271, Note_on_c, 5, 52, 0
7, 269524, Control_c, 5, 11, 50
7, 269524, Note_on_c, 5, 52, 35
7, 269529, Control_c, 5, 11, 54
7, 269534, Control_c, 5, 11, 57
7, 269539, Control_c, 5, 11, 60
7, 269544, Control_c, 5, 11, 62
7, 269549, Control_c, 5, 11, 64
7, 269554, Control_c, 5, 11, 66
7, 269559, Control_c, 5, 11, 68
7, 269564, Control_c, 5, 11, 69
7, 269569, Control_c, 5, 11, 70
7, 269574, Control_c, 5, 11, 71
7, 269579, Control_c, 5, 11, 72
7, 269584, Control_c, 5, 11, 73
7, 269589, Control_c, 5, 11, 74
7, 269594, Control_c, 5, 11, 75
7, 269604, Control_c, 5, 11, 76
7, 269609, Control_c, 5, 11, 77
7, 269624, Control_c, 5, 11, 78
7, 269639, Control_c, 5, 11, 79
7, 269669, Control_c, 5, 11, 80
7, 270995, Note_on_c, 5, 52, 0
7, 272430, Control_c, 5, 11, 30
7, 272430, Note_on_c, 5, 42, 51
7, 272435, Control_c, 5, 11, 34
7, 272440, Control_c, 5, 11, 37
7, 272445, Control_c, 5, 11, 39
7, 272450, Control_c, 5, 11, 42
7, 272455, Control_c, 5, 11, 45
7, 272460, Control_c, 5, 11, 47
7, 272465, Control_c, 5, 11, 48
7, 272470, Control_c, 5, 11, 50
7, 272475, Control_c, 5, 11, 52
7, 272480, Control_c, 5, 11, 54
7, 272485, Control_c, 5, 11, 55
7, 272490, Control_c, 5, 11, 57
7, 272495, Control_c, 5, 11, 59
7, 272500, Control_c, 5, 11, 60
7, 272505, Control_c, 5, 11, 61
7, 272510, Control_c, 5, 11, 62
7, 272515, Control_c, 5, 11, 63
7, 272520, Control_c, 5, 11, 64
7, 272525, Control_c, 5, 11, 65
7, 272530, Control_c, 5, 11, 66
7, 272535, Control_c, 5, 11, 67
7, 272540, Control_c, 5, 11, 68
7, 272545, Control_c, 5, 11, 69
7, 272555, Control_c, 5, 11, 70
7, 272560, Control_c, 5, 11, 71
7, 272570, Control_c, 5, 11, 72
7, 272580, Control_c, 5, 11, 73
7, 272590, Control_c, 5, 11, 74
7, 272605, Control_c, 5, 11, 75
7, 272615, Control_c, 5, 11, 76
7, 272635, Control_c, 5, 11, 77
7, 272655, Control_c, 5, 11, 78
7, 272685, Control_c, 5, 11, 79
7, 272735, Control_c, 5, 11, 80
7, 273703, Note_on_c, 5, 42, 0
7, 273712, Note_on_c, 5, 47, 60
7, 274322, Note_on_c, 5, 48, 72
7, 274348, Note_on_c, 5, 47, 0
7, 274952, Note_on_c, 5, 49, 67
7, 274999, Note_on_c, 5, 48, 0
7, 276000, Control_c, 5, 11, 80
7, 276105, Control_c, 5, 11, 79
7, 276140, Control_c, 5, 11, 78
7, 276165, Control_c, 5, 11, 77
7, 276180, Control_c, 5, 11, 76
7, 276190, Control_c, 5, 11, 75
7, 276200, Control_c, 5, 11, 74
7, 276210, Control_c, 5, 11, 73
7, 276220, Control_c, 5, 11, 72
7, 276225, Control_c, 5, 11, 71
7, 276230, Control_c, 5, 11, 70
7, 276235, Control_c, 5, 11, 69
7, 276240, Control_c, 5, 11, 68
7, 276245, Control_c, 5, 11, 67
7, 276250, Control_c, 5, 11, 66
7, 276255, Control_c, 5, 11, 65
7, 276260, Control_c, 5, 11, 63
7, 276265, Control_c, 5, 11, 62
7, 276270, Control_c, 5, 11, 60
7, 276275, Control_c, 5, 11, 58
7, 276280, Control_c, 5, 11, 56
7, 276285, Control_c, 5, 11, 54
7, 276290, Control_c, 5, 11, 52
7, 276295, Control_c, 5, 11, 49
7, 276296, Note_on_c, 5, 49, 0
7, 276300, Control_c, 5, 11, 46
7, 276305, Control_c, 5, 11, 43
7, 276310, Control_c, 5, 11, 39
7, 276315, Control_c, 5, 11, 36
7, 276320, Control_c, 5, 11, 31
7, 276322, Control_c, 5, 11, 30
7, 276322, Control_c, 5, 11, 30
7, 276322, Note_on_c, 5, 42, 52
7, 276327, Control_c, 5, 11, 33
7, 276332, Control_c, 5, 11, 35
7, 276337, Control_c, 5, 11, 36
7, 276342, Control_c, 5, 11, 38
7, 276347, Control_c, 5, 11, 40
7, 276352, Control_c, 5, 11, 41
7, 276357, Control_c, 5, 11, 42
7, 276362, Control_c, 5, 11, 44
7, 276367, Control_c, 5, 11, 45
7, 276372, Control_c, 5, 11, 46
7, 276377, Control_c, 5, 11, 47
7, 276382, Control_c, 5, 11, 48
7, 276392, Control_c, 5, 11, 49
7, 276397, Control_c, 5, 11, 50
7, 276402, Control_c, 5, 11, 51
7, 276412, Control_c, 5, 11, 52
7, 276417, Control_c, 5, 11, 53
7, 276427, Control_c, 5, 11, 54
7, 276437, Control_c, 5, 11, 55
7, 276452, Control_c, 5, 11, 56
7, 276467, Control_c, 5, 11, 57
7, 276480, Control_c, 5, 11, 57
7, 276590, Control_c, 5, 11, 58
7, 276700, Control_c, 5, 11, 59
7, 276805, Control_c, 5, 11, 60
7, 276915, Control_c, 5, 11, 61
7, 277020, Control_c, 5, 11, 62
7, 277130, Control_c, 5, 11, 63
7, 277235, Control_c, 5, 11, 64
7, 277345, Control_c, 5, 11, 65
7, 277450, Control_c, 5, 11, 66
7, 277560, Control_c, 5, 11, 67
7, 277641, Note_on_c, 5, 45, 42
7, 277665, Control_c, 5, 11, 68
7, 277698, Note_on_c, 5, 42, 0
7, 277775, Control_c, 5, 11, 69
7, 277885, Control_c, 5, 11, 70
7, 277990, Control_c, 5, 11, 71
7, 278100, Control_c, 5, 11, 72
7, 278205, Control_c, 5, 11, 73
7, 278315, Control_c, 5, 11, 74
7, 278420, Control_c, 5, 11, 75
7, 278530, Control_c, 5, 11, 76
7, 278635, Control_c, 5, 11, 77
7, 278745, Control_c, 5, 11, 78
7, 278850, Control_c, 5, 11, 79
7, 278958, Control_c, 5, 11, 80
7, 278958, Note_on_c, 5, 47, 36
7, 279083, Note_on_c, 5, 45, 0
7, 280838, Note_on_c, 5, 52, 31
7, 280891, Note_on_c, 5, 47, 0
7, 281040, Control_c, 5, 11, 80
7, 281340, Control_c, 5, 11, 79
7, 281465, Control_c, 5, 11, 78
7, 281545, Control_c, 5, 11, 77
7, 281600, Control_c, 5, 11, 76
7, 281640, Control_c, 5, 11, 75
7, 281695, Control_c, 5, 11, 74
7, 281720, Control_c, 5, 11, 73
7, 281750, Control_c, 5, 11, 72
7, 281775, Control_c, 5, 11, 71
7, 281790, Control_c, 5, 11, 70
7, 281820, Control_c, 5, 11, 69
7, 281840, Control_c, 5, 11, 68
7, 281855, Control_c, 5, 11, 67
7, 281865, Control_c, 5, 11, 66
7, 281880, Control_c, 5, 11, 65
7, 281900, Control_c, 5, 11, 64
7, 281915, Control_c, 5, 11, 63
7, 281925, Control_c, 5, 11, 62
7, 281930, Control_c, 5, 11, 61
7, 281940, Control_c, 5, 11, 60
7, 281955, Control_c, 5, 11, 59
7, 281965, Control_c, 5, 11, 58
7, 281975, Control_c, 5, 11, 57
7, 281985, Control_c, 5, 11, 56
7, 281995, Control_c, 5, 11, 55
7, 282005, Control_c, 5, 11, 54
7, 282010, Control_c, 5, 11, 53
7, 282015, Control_c, 5, 11, 52
7, 282025, Control_c, 5, 11, 51
7, 282030, Control_c, 5, 11, 50
7, 282040, Control_c, 5, 11, 49
7, 282045, Control_c, 5, 11, 48
7, 282055, Control_c, 5, 11, 47
7, 282060, Control_c, 5, 11, 46
7, 282065, Control_c, 5, 11, 45
7, 282075, Control_c, 5, 11, 44
7, 282080, Control_c, 5, 11, 42
7, 282085, Control_c, 5, 11, 41
7, 282090, Control_c, 5, 11, 40
7, 282100, Control_c, 5, 11, 39
7, 282105, Control_c, 5, 11, 38
7, 282110, Control_c, 5, 11, 37
7, 282115, Control_c, 5, 11, 36
7, 282120, Control_c, 5, 11, 35
7, 282125, Control_c, 5, 11, 34
7, 282130, Control_c, 5, 11, 33
7, 282135, Control_c, 5, 11, 32
7, 282140, Control_c, 5, 11, 31
7, 282145, Control_c, 5, 11, 30
7, 282150, Control_c, 5, 11, 29
7, 282155, Control_c, 5, 11, 26
7, 282160, Control_c, 5, 11, 25
7, 282165, Control_c, 5, 11, 24
7, 282170, Control_c, 5, 11, 23
7, 282175, Control_c, 5, 11, 21
7, 282180, Control_c, 5, 11, 20
7, 282185, Control_c, 5, 11, 19
7, 282190, Control_c, 5, 11, 18
7, 282195, Control_c, 5, 11, 16
7, 282200, Control_c, 5, 11, 15
7, 282205, Control_c, 5, 11, 13
7, 282210, Control_c, 5, 11, 12
7, 282215, Control_c, 5, 11, 10
7, 282220, Control_c, 5, 11, 9
7, 282225, Control_c, 5, 11, 6
7, 282230, Control_c, 5, 11, 4
7, 282235, Control_c, 5, 11, 1
7, 282240, Control_c, 5, 11, 0
7, 282360, Note_on_c, 5, 52, 0
7, 288000, Control_c, 5, 11, 80
7, 288240, Control_c, 5, 11, 80
7, 288242, Note_on_c, 5, 54, 41
7, 288340, Control_c, 5, 11, 79
7, 288435, Control_c, 5, 11, 78
7, 288530, Control_c, 5, 11, 77
7, 288625, Control_c, 5, 11, 76
7, 288720, Control_c, 5, 11, 75
7, 288820, Control_c, 5, 11, 74
7, 288915, Control_c, 5, 11, 73
7, 289010, Control_c, 5, 11, 72
7, 289105, Control_c, 5, 11, 71
7, 289200, Control_c, 5, 11, 70
7, 289300, Control_c, 5, 11, 69
7, 289395, Control_c, 5, 11, 68
7, 289490, Control_c, 5, 11, 67
7, 289585, Control_c, 5, 11, 66
7, 289680, Control_c, 5, 11, 65
7, 289780, Control_c, 5, 11, 64
7, 289875, Control_c, 5, 11, 63
7, 289970, Control_c, 5, 11, 62
7, 290065, Control_c, 5, 11, 61
7, 290160, Control_c, 5, 11, 60
7, 290260, Control_c, 5, 11, 59
7, 290355, Control_c, 5, 11, 58
7, 290450, Control_c, 5, 11, 57
7, 290545, Control_c, 5, 11, 56
7, 290640, Control_c, 5, 11, 55
7, 290740, Control_c, 5, 11, 54
7, 290835, Control_c, 5, 11, 53
7, 290930, Control_c, 5, 11, 52
7, 291025, Control_c, 5, 11, 51
7, 291120, Control_c, 5, 11, 50
7, 291220, Control_c, 5, 11, 49
7, 291315, Control_c, 5, 11, 48
7, 291410, Control_c, 5, 11, 47
7, 291505, Control_c, 5, 11, 46
7, 291600, Control_c, 5, 11, 45
7, 291700, Control_c, 5, 11, 44
7, 291795, Control_c, 5, 11, 43
7, 291890, Control_c, 5, 11, 42
7, 291985, Control_c, 5, 11, 41
7, 292010, Control_c, 5, 11, 42
7, 292030, Control_c, 5, 11, 43
7, 292050, Control_c, 5, 11, 44
7, 292070, Control_c, 5, 11, 45
7, 292081, Note_on_c, 5, 47, 36
7, 292090, Control_c, 5, 11, 46
7, 292115, Control_c, 5, 11, 47
7, 292135, Control_c, 5, 11, 48
7, 292155, Control_c, 5, 11, 49
7, 292175, Control_c, 5, 11, 50
7, 292195, Control_c, 5, 11, 51
7, 292200, Note_on_c, 5, 54, 0
7, 292215, Control_c, 5, 11, 52
7, 292240, Control_c, 5, 11, 53
7, 292260, Control_c, 5, 11, 54
7, 292280, Control_c, 5, 11, 55
7, 292300, Control_c, 5, 11, 56
7, 292320, Control_c, 5, 11, 57
7, 292340, Control_c, 5, 11, 58
7, 292365, Control_c, 5, 11, 59
7, 292385, Control_c, 5, 11, 60
7, 292405, Control_c, 5, 11, 61
7, 292425, Control_c, 5, 11, 62
7, 292445, Control_c, 5, 11, 63
7, 292470, Control_c, 5, 11, 64
7, 292490, Control_c, 5, 11, 65
7, 292510, Control_c, 5, 11, 66
7, 292530, Control_c, 5, 11, 67
7, 292550, Control_c, 5, 11, 68
7, 292570, Control_c, 5, 11, 69
7, 292595, Control_c, 5, 11, 70
7, 292615, Control_c, 5, 11, 71
7, 292635, Control_c, 5, 11, 72
7, 292655, Control_c, 5, 11, 73
7, 292675, Control_c, 5, 11, 74
7, 292695, Control_c, 5, 11, 75
7, 292720, Control_c, 5, 11, 76
7, 292740, Control_c, 5, 11, 77
7, 292760, Control_c, 5, 11, 78
7, 292780, Control_c, 5, 11, 79
7, 292800, Control_c, 5, 11, 80
7, 294056, Note_on_c, 5, 52, 31
7, 294135, Note_on_c, 5, 47, 0
7, 302880, Control_c, 5, 11, 80
7, 303015, Control_c, 5, 11, 79
7, 303145, Control_c, 5, 11, 78
7, 303280, Control_c, 5, 11, 77
7, 303410, Control_c, 5, 11, 76
7, 303540, Control_c, 5, 11, 75
7, 303675, Control_c, 5, 11, 74
7, 303805, Control_c, 5, 11, 73
7, 303940, Control_c, 5, 11, 72
7, 304070, Control_c, 5, 11, 71
7, 304200, Control_c, 5, 11, 70
7, 304335, Control_c, 5, 11, 69
7, 304465, Control_c, 5, 11, 68
7, 304600, Control_c, 5, 11, 67
7, 304730, Control_c, 5, 11, 66
7, 304860, Control_c, 5, 11, 65
7, 304995, Control_c, 5, 11, 64
7, 305125, Control_c, 5, 11, 63
7, 305260, Control_c, 5, 11, 62
7, 305390, Control_c, 5, 11, 61
7, 305520, Control_c, 5, 11, 60
7, 310198, Note_on_c, 5, 47, 40
7, 310324, Note_on_c, 5, 52, 0
7, 311899, Note_on_c, 5, 47, 0
7, 311900, Note_on_c, 5, 40, 38
7, 312000, Control_c, 5, 11, 60
7, 312200, Control_c, 5, 11, 59
7, 312400, Control_c, 5, 11, 58
7, 312600, Control_c, 5, 11, 57
7, 312800, Control_c, 5, 11, 56
7, 313000, Control_c, 5, 11, 55
7, 313200, Control_c, 5, 11, 54
7, 313400, Control_c, 5, 11, 53
7, 313600, Control_c, 5, 11, 52
7, 313800, Control_c, 5, 11, 51
7, 314000, Control_c, 5, 11, 50
7, 314200, Control_c, 5, 11, 49
7, 314400, Control_c, 5, 11, 48
7, 314600, Control_c, 5, 11, 47
7, 314800, Control_c, 5, 11, 46
7, 315000, Control_c, 5, 11, 45
7, 315200, Control_c, 5, 11, 44
7, 315400, Control_c, 5, 11, 43
7, 315600, Control_c, 5, 11, 42
7, 315800, Control_c, 5, 11, 41
7, 316000, Control_c, 5, 11, 40
7, 316200, Control_c, 5, 11, 39
7, 316400, Control_c, 5, 11, 38
7, 316600, Control_c, 5, 11, 37
7, 316800, Control_c, 5, 11, 36
7, 317000, Control_c, 5, 11, 35
7, 317200, Control_c, 5, 11, 34
7, 317400, Control_c, 5, 11, 33
7, 317600, Control_c, 5, 11, 32
7, 317800, Control_c, 5, 11, 31
7, 317985, Note_on_c, 5, 40, 0
7, 318000, Control_c, 5, 11, 30
7, 319680, End_track
8, 0, Start_track
8, 0, Title_t, "Contrabassi"
8, 0, MIDI_port, 0
8, 100, Control_c, 6, 0, 0
8, 120, Control_c, 6, 32, 0
8, 140, Program_c, 6, 49
8, 160, Control_c, 6, 10, 94
8, 180, Control_c, 6, 7, 100
8, 200, Control_c, 6, 11, 80
8, 220, Control_c, 6, 1, 19
8, 240, Control_c, 6, 91, 60
8, 260, Control_c, 6, 93, 38
8, 280, Control_c, 6, 101, 0
8, 300, Control_c, 6, 100, 0
8, 320, Control_c, 6, 6, 12
8, 340, Pitch_bend_c, 6, 8208
8, 360, Control_c, 6, 99, 1
8, 380, Control_c, 6, 98, 32
8, 400, Control_c, 6, 6, 62
8, 420, Control_c, 6, 98, 33
8, 440, Control_c, 6, 6, 60
8, 460, Control_c, 6, 98, 99
8, 480, Control_c, 6, 6, 57
8, 500, Control_c, 6, 98, 100
8, 520, Control_c, 6, 6, 64
8, 540, Control_c, 6, 98, 102
8, 560, Control_c, 6, 6, 66
8, 580, Control_c, 6, 99, 1
8, 600, Control_c, 6, 98, 8
8, 620, Control_c, 6, 6, 90
8, 640, Control_c, 6, 98, 9
8, 660, Control_c, 6, 6, 50
8, 680, Control_c, 6, 98, 10
8, 705, Control_c, 6, 6, 70
8, 30303, Control_c, 6, 11, 15
8, 30303, Note_on_c, 6, 42, 35
8, 30308, Control_c, 6, 11, 19
8, 30313, Control_c, 6, 11, 21
8, 30318, Control_c, 6, 11, 22
8, 30323, Control_c, 6, 11, 24
8, 30328, Control_c, 6, 11, 26
8, 30333, Control_c, 6, 11, 27
8, 30338, Control_c, 6, 11, 29
8, 30343, Control_c, 6, 11, 30
8, 30348, Control_c, 6, 11, 31
8, 30353, Control_c, 6, 11, 33
8, 30358, Control_c, 6, 11, 34
8, 30363, Control_c, 6, 11, 35
8, 30368, Control_c, 6, 11, 36
8, 30373, Control_c, 6, 11, 37
8, 30378, Control_c, 6, 11, 38
8, 30383, Control_c, 6, 11, 39
8, 30393, Control_c, 6, 11, 40
8, 30398, Control_c, 6, 11, 41
8, 30408, Control_c, 6, 11, 42
8, 30413, Control_c, 6, 11, 43
8, 30423, Control_c, 6, 11, 44
8, 30438, Control_c, 6, 11, 45
8, 30448, Control_c, 6, 11, 46
8, 30463, Control_c, 6, 11, 47
8, 30488, Control_c, 6, 11, 48
8, 30518, Control_c, 6, 11, 49
8, 30568, Control_c, 6, 11, 50
8, 30588, Control_c, 6, 11, 51
8, 30608, Control_c, 6, 11, 52
8, 30628, Control_c, 6, 11, 53
8, 30643, Control_c, 6, 11, 54
8, 30663, Control_c, 6, 11, 55
8, 30683, Control_c, 6, 11, 56
8, 30698, Control_c, 6, 11, 57
8, 30718, Control_c, 6, 11, 58
8, 30738, Control_c, 6, 11, 59
8, 30758, Control_c, 6, 11, 60
8, 30773, Control_c, 6, 11, 61
8, 30793, Control_c, 6, 11, 62
8, 30813, Control_c, 6, 11, 63
8, 30828, Control_c, 6, 11, 64
8, 30848, Control_c, 6, 11, 65
8, 30868, Control_c, 6, 11, 66
8, 30883, Control_c, 6, 11, 67
8, 30903, Control_c, 6, 11, 68
8, 30923, Control_c, 6, 11, 69
8, 30943, Control_c, 6, 11, 70
8, 30958, Control_c, 6, 11, 71
8, 30978, Control_c, 6, 11, 72
8, 30998, Control_c, 6, 11, 73
8, 31013, Control_c, 6, 11, 74
8, 31033, Control_c, 6, 11, 75
8, 31053, Control_c, 6, 11, 76
8, 31068, Control_c, 6, 11, 77
8, 31088, Control_c, 6, 11, 78
8, 31108, Control_c, 6, 11, 79
8, 31128, Control_c, 6, 11, 80
8, 31143, Control_c, 6, 11, 81
8, 31163, Control_c, 6, 11, 82
8, 31183, Control_c, 6, 11, 83
8, 31198, Control_c, 6, 11, 84
8, 31218, Control_c, 6, 11, 85
8, 31238, Control_c, 6, 11, 86
8, 31258, Control_c, 6, 11, 87
8, 31273, Control_c, 6, 11, 88
8, 31293, Control_c, 6, 11, 89
8, 31313, Control_c, 6, 11, 90
8, 31328, Control_c, 6, 11, 91
8, 31348, Control_c, 6, 11, 92
8, 31368, Control_c, 6, 11, 93
8, 31383, Control_c, 6, 11, 94
8, 31403, Control_c, 6, 11, 95
8, 31423, Control_c, 6, 11, 96
8, 31443, Control_c, 6, 11, 97
8, 31458, Control_c, 6, 11, 98
8, 31478, Control_c, 6, 11, 99
8, 31498, Control_c, 6, 11, 100
8, 31513, Control_c, 6, 11, 101
8, 31533, Control_c, 6, 11, 102
8, 31553, Control_c, 6, 11, 103
8, 31568, Control_c, 6, 11, 104
8, 31588, Control_c, 6, 11, 105
8, 31608, Control_c, 6, 11, 106
8, 31628, Control_c, 6, 11, 107
8, 31643, Control_c, 6, 11, 108
8, 31663, Control_c, 6, 11, 109
8, 31680, Control_c, 6, 11, 110
8, 31680, Control_c, 6, 11, 111
8, 31711, Control_c, 6, 11, 110
8, 31742, Control_c, 6, 11, 109
8, 31773, Control_c, 6, 11, 108
8, 31804, Control_c, 6, 11, 107
8, 31835, Control_c, 6, 11, 106
8, 31866, Control_c, 6, 11, 105
8, 31897, Control_c, 6, 11, 104
8, 31928, Control_c, 6, 11, 103
8, 31959, Control_c, 6, 11, 102
8, 31990, Control_c, 6, 11, 101
8, 32021, Control_c, 6, 11, 100
8, 32052, Control_c, 6, 11, 99
8, 32083, Control_c, 6, 11, 98
8, 32114, Control_c, 6, 11, 97
8, 32145, Control_c, 6, 11, 96
8, 32175, Control_c, 6, 11, 95
8, 32206, Control_c, 6, 11, 94
8, 32237, Control_c, 6, 11, 93
8, 32268, Control_c, 6, 11, 92
8, 32299, Control_c, 6, 11, 91
8, 32330, Control_c, 6, 11, 90
8, 32361, Control_c, 6, 11, 89
8, 32392, Control_c, 6, 11, 88
8, 32423, Control_c, 6, 11, 87
8, 32454, Control_c, 6, 11, 86
8, 32455, Note_on_c, 6, 42, 0
8, 32485, Control_c, 6, 11, 85
8, 32512, Note_on_c, 6, 35, 46
8, 32516, Control_c, 6, 11, 84
8, 32547, Control_c, 6, 11, 83
8, 32578, Control_c, 6, 11, 82
8, 32609, Control_c, 6, 11, 81
8, 32639, Control_c, 6, 11, 80
8, 33600, Control_c, 6, 11, 80
8, 33780, Control_c, 6, 11, 79
8, 33855, Control_c, 6, 11, 78
8, 33905, Control_c, 6, 11, 77
8, 33935, Control_c, 6, 11, 76
8, 33960, Control_c, 6, 11, 75
8, 33995, Control_c, 6, 11, 74
8, 34010, Control_c, 6, 11, 73
8, 34025, Control_c, 6, 11, 72
8, 34040, Control_c, 6, 11, 71
8, 34050, Control_c, 6, 11, 70
8, 34070, Control_c, 6, 11, 69
8, 34080, Control_c, 6, 11, 68
8, 34090, Control_c, 6, 11, 67
8, 34095, Control_c, 6, 11, 66
8, 34105, Control_c, 6, 11, 65
8, 34115, Control_c, 6, 11, 64
8, 34125, Control_c, 6, 11, 63
8, 34130, Control_c, 6, 11, 62
8, 34135, Control_c, 6, 11, 61
8, 34140, Control_c, 6, 11, 60
8, 34150, Control_c, 6, 11, 59
8, 34155, Control_c, 6, 11, 58
8, 34160, Control_c, 6, 11, 57
8, 34165, Control_c, 6, 11, 56
8, 34175, Control_c, 6, 11, 55
8, 34180, Control_c, 6, 11, 54
8, 34185, Control_c, 6, 11, 52
8, 34190, Control_c, 6, 11, 51
8, 34195, Control_c, 6, 11, 50
8, 34200, Control_c, 6, 11, 49
8, 34205, Control_c, 6, 11, 48
8, 34210, Control_c, 6, 11, 46
8, 34215, Control_c, 6, 11, 45
8, 34220, Control_c, 6, 11, 44
8, 34225, Control_c, 6, 11, 42
8, 34230, Control_c, 6, 11, 40
8, 34235, Control_c, 6, 11, 39
8, 34240, Control_c, 6, 11, 38
8, 34245, Control_c, 6, 11, 36
8, 34250, Control_c, 6, 11, 34
8, 34255, Control_c, 6, 11, 32
8, 34260, Control_c, 6, 11, 31
8, 34265, Control_c, 6, 11, 29
8, 34270, Control_c, 6, 11, 26
8, 34275, Control_c, 6, 11, 24
8, 34280, Control_c, 6, 11, 21
8, 34285, Control_c, 6, 11, 20
8, 34290, Control_c, 6, 11, 18
8, 34295, Control_c, 6, 11, 15
8, 34300, Control_c, 6, 11, 12
8, 34305, Control_c, 6, 11, 9
8, 34310, Control_c, 6, 11, 7
8, 34315, Control_c, 6, 11, 4
8, 34320, Control_c, 6, 11, 0
8, 34659, Note_on_c, 6, 35, 0
8, 56342, Control_c, 6, 11, 80
8, 56342, Note_on_c, 6, 40, 29
8, 56362, Control_c, 6, 11, 81
8, 56381, Control_c, 6, 11, 82
8, 56401, Control_c, 6, 11, 83
8, 56420, Control_c, 6, 11, 84
8, 56440, Control_c, 6, 11, 85
8, 56459, Control_c, 6, 11, 86
8, 56478, Control_c, 6, 11, 87
8, 56498, Control_c, 6, 11, 88
8, 56517, Control_c, 6, 11, 89
8, 56537, Control_c, 6, 11, 90
8, 56556, Control_c, 6, 11, 91
8, 56576, Control_c, 6, 11, 92
8, 56595, Control_c, 6, 11, 93
8, 56614, Control_c, 6, 11, 94
8, 56634, Control_c, 6, 11, 95
8, 56653, Control_c, 6, 11, 96
8, 56673, Control_c, 6, 11, 97
8, 56692, Control_c, 6, 11, 98
8, 56712, Control_c, 6, 11, 99
8, 56731, Control_c, 6, 11, 100
8, 56750, Control_c, 6, 11, 101
8, 56770, Control_c, 6, 11, 102
8, 56789, Control_c, 6, 11, 103
8, 56809, Control_c, 6, 11, 104
8, 56828, Control_c, 6, 11, 105
8, 56848, Control_c, 6, 11, 106
8, 56867, Control_c, 6, 11, 107
8, 56886, Control_c, 6, 11, 108
8, 56902, Note_on_c, 6, 39, 32
8, 56906, Control_c, 6, 11, 109
8, 56925, Control_c, 6, 11, 110
8, 56945, Control_c, 6, 11, 111
8, 56964, Control_c, 6, 11, 112
8, 56984, Control_c, 6, 11, 113
8, 57003, Control_c, 6, 11, 114
8, 57004, Note_on_c, 6, 40, 0
8, 57022, Control_c, 6, 11, 115
8, 57042, Control_c, 6, 11, 116
8, 57061, Control_c, 6, 11, 117
8, 57081, Control_c, 6, 11, 118
8, 57100, Control_c, 6, 11, 119
8, 57119, Control_c, 6, 11, 120
8, 57145, Control_c, 6, 11, 119
8, 57170, Control_c, 6, 11, 118
8, 57195, Control_c, 6, 11, 117
8, 57220, Control_c, 6, 11, 116
8, 57245, Control_c, 6, 11, 115
8, 57270, Control_c, 6, 11, 114
8, 57295, Control_c, 6, 11, 113
8, 57320, Control_c, 6, 11, 112
8, 57345, Control_c, 6, 11, 111
8, 57370, Control_c, 6, 11, 110
8, 57396, Control_c, 6, 11, 109
8, 57421, Control_c, 6, 11, 108
8, 57446, Control_c, 6, 11, 107
8, 57471, Control_c, 6, 11, 106
8, 57479, Note_on_c, 6, 37, 33
8, 57496, Control_c, 6, 11, 105
8, 57521, Control_c, 6, 11, 104
8, 57527, Note_on_c, 6, 39, 0
8, 57546, Control_c, 6, 11, 103
8, 57571, Control_c, 6, 11, 102
8, 57596, Control_c, 6, 11, 101
8, 57621, Control_c, 6, 11, 100
8, 57647, Control_c, 6, 11, 99
8, 57672, Control_c, 6, 11, 98
8, 57697, Control_c, 6, 11, 97
8, 57722, Control_c, 6, 11, 96
8, 57747, Control_c, 6, 11, 95
8, 57772, Control_c, 6, 11, 94
8, 57797, Control_c, 6, 11, 93
8, 57822, Control_c, 6, 11, 92
8, 57847, Control_c, 6, 11, 91
8, 57872, Control_c, 6, 11, 90
8, 57898, Control_c, 6, 11, 89
8, 57923, Control_c, 6, 11, 88
8, 57948, Control_c, 6, 11, 87
8, 57973, Control_c, 6, 11, 86
8, 57998, Control_c, 6, 11, 85
8, 58023, Control_c, 6, 11, 84
8, 58048, Control_c, 6, 11, 83
8, 58073, Control_c, 6, 11, 82
8, 58098, Control_c, 6, 11, 81
8, 58123, Control_c, 6, 11, 80
8, 58124, Note_on_c, 6, 35, 28
8, 58168, Note_on_c, 6, 37, 0
8, 59142, Note_on_c, 6, 35, 0
8, 68229, Note_on_c, 6, 44, 68
8, 69066, Note_on_c, 6, 37, 68
8, 69134, Note_on_c, 6, 44, 0
8, 69932, Note_on_c, 6, 35, 74
8, 70002, Note_on_c, 6, 37, 0
8, 71179, Note_on_c, 6, 40, 58
8, 71243, Note_on_c, 6, 35, 0
8, 72906, Note_on_c, 6, 42, 49
8, 72983, Note_on_c, 6, 40, 0
8, 75555, Note_on_c, 6, 42, 0
8, 90223, Note_on_c, 6, 37, 56
8, 91408, Note_on_c, 6, 42, 53
8, 91474, Note_on_c, 6, 37, 0
8, 92002, Note_on_c, 6, 42, 0
8, 92914, Note_on_c, 6, 42, 45
8, 93589, Note_on_c, 6, 35, 45
8, 93601, Note_on_c, 6, 42, 0
8, 94217, Note_on_c, 6, 35, 0
8, 104263, Note_on_c, 6, 40, 86
8, 104860, Note_on_c, 6, 39, 96
8, 104885, Note_on_c, 6, 40, 0
8, 105328, Note_on_c, 6, 39, 0
8, 105371, Note_on_c, 6, 44, 92
8, 105969, Note_on_c, 6, 43, 97
8, 106003, Note_on_c, 6, 44, 0
8, 107001, Note_on_c, 6, 42, 86
8, 107058, Note_on_c, 6, 43, 0
8, 107662, Note_on_c, 6, 42, 0
8, 114373, Note_on_c, 6, 35, 63
8, 120342, Note_on_c, 6, 35, 0
8, 120568, Note_on_c, 6, 35, 35
8, 120841, Note_on_c, 6, 35, 0
8, 121081, Note_on_c, 6, 35, 34
8, 121372, Note_on_c, 6, 35, 0
8, 121635, Note_on_c, 6, 35, 31
8, 121881, Note_on_c, 6, 35, 0
8, 135102, Note_on_c, 6, 40, 64
8, 135737, Note_on_c, 6, 45, 57
8, 135800, Note_on_c, 6, 40, 0
8, 136309, Note_on_c, 6, 40, 49
8, 136369, Note_on_c, 6, 45, 0
8, 137276, Note_on_c, 6, 40, 0
8, 137373, Note_on_c, 6, 47, 62
8, 140120, Note_on_c, 6, 40, 44
8, 140154, Note_on_c, 6, 47, 0
8, 141222, Note_on_c, 6, 40, 0
8, 142315, Note_on_c, 6, 40, 47
8, 143738, Note_on_c, 6, 33, 43
8, 143776, Note_on_c, 6, 40, 0
8, 147633, Note_on_c, 6, 33, 0
8, 152243, Note_on_c, 6, 35, 40
8, 153406, Note_on_c, 6, 40, 49
8, 153469, Note_on_c, 6, 35, 0
8, 155417, Note_on_c, 6, 40, 0
8, 156547, Note_on_c, 6, 44, 77
8, 157142, Note_on_c, 6, 44, 0
8, 157155, Note_on_c, 6, 37, 88
8, 160801, Note_on_c, 6, 36, 80
8, 160838, Note_on_c, 6, 37, 0
8, 162952, Note_on_c, 6, 37, 71
8, 163007, Note_on_c, 6, 36, 0
8, 164888, Note_on_c, 6, 37, 0
8, 164982, Note_on_c, 6, 37, 60
8, 166010, Note_on_c, 6, 42, 65
8, 166021, Note_on_c, 6, 37, 0
8, 166472, Note_on_c, 6, 42, 0
8, 166931, Note_on_c, 6, 37, 69
8, 167833, Note_on_c, 6, 42, 61
8, 167871, Note_on_c, 6, 37, 0
8, 168353, Note_on_c, 6, 42, 0
8, 168778, Note_on_c, 6, 37, 79
8, 169800, Note_on_c, 6, 45, 84
8, 169850, Note_on_c, 6, 37, 0
8, 170663, Note_on_c, 6, 44, 65
8, 170704, Note_on_c, 6, 45, 0
8, 170979, Note_on_c, 6, 43, 60
8, 171034, Note_on_c, 6, 44, 0
8, 171248, Note_on_c, 6, 44, 56
8, 171311, Note_on_c, 6, 43, 0
8, 171501, Note_on_c, 6, 43, 42
8, 171559, Note_on_c, 6, 44, 0
8, 171708, Note_on_c, 6, 44, 43
8, 171750, Note_on_c, 6, 43, 0
8, 171961, Note_on_c, 6, 43, 36
8, 172017, Note_on_c, 6, 44, 0
8, 172208, Note_on_c, 6, 44, 39
8, 172268, Note_on_c, 6, 43, 0
8, 172464, Note_on_c, 6, 43, 29
8, 172554, Note_on_c, 6, 44, 0
8, 172818, Note_on_c, 6, 44, 24
8, 172882, Note_on_c, 6, 43, 0
8, 173498, Note_on_c, 6, 44, 0
8, 175799, Note_on_c, 6, 39, 76
8, 176114, Note_on_c, 6, 38, 84
8, 176164, Note_on_c, 6, 39, 0
8, 176385, Note_on_c, 6, 39, 94
8, 176472, Note_on_c, 6, 38, 0
8, 176631, Note_on_c, 6, 41, 87
8, 176682, Note_on_c, 6, 39, 0
8, 177091, Note_on_c, 6, 42, 69
8, 177163, Note_on_c, 6, 41, 0
8, 177848, Note_on_c, 6, 42, 0
8, 180588, Note_on_c, 6, 37, 66
8, 180897, Note_on_c, 6, 36, 86
8, 180920, Note_on_c, 6, 37, 0
8, 181161, Note_on_c, 6, 37, 96
8, 181193, Note_on_c, 6, 36, 0
8, 181393, Note_on_c, 6, 39, 93
8, 181414, Note_on_c, 6, 37, 0
8, 181670, Note_on_c, 6, 40, 107
8, 181699, Note_on_c, 6, 39, 0
8, 187718, Note_on_c, 6, 39, 54
8, 187805, Note_on_c, 6, 40, 0
8, 190483, Note_on_c, 6, 32, 51
8, 190592, Note_on_c, 6, 39, 0
8, 191224, Note_on_c, 6, 32, 0
8, 193236, Note_on_c, 6, 39, 65
8, 193685, Note_on_c, 6, 41, 72
8, 193761, Note_on_c, 6, 39, 0
8, 194198, Note_on_c, 6, 43, 75
8, 194278, Note_on_c, 6, 41, 0
8, 194899, Note_on_c, 6, 44, 58
8, 194988, Note_on_c, 6, 43, 0
8, 195549, Note_on_c, 6, 44, 0
8, 197532, Note_on_c, 6, 39, 67
8, 197995, Note_on_c, 6, 41, 71
8, 198060, Note_on_c, 6, 39, 0
8, 198442, Note_on_c, 6, 43, 73
8, 198529, Note_on_c, 6, 41, 0
8, 199070, Note_on_c, 6, 44, 80
8, 199151, Note_on_c, 6, 43, 0
8, 201102, Note_on_c, 6, 44, 0
8, 208169, Note_on_c, 6, 39, 60
8, 208953, Note_on_c, 6, 44, 53
8, 208989, Note_on_c, 6, 39, 0
8, 209676, Note_on_c, 6, 44, 0
8, 211924, Note_on_c, 6, 39, 65
8, 212413, Note_on_c, 6, 41, 70
8, 212485, Note_on_c, 6, 39, 0
8, 212836, Note_on_c, 6, 43, 77
8, 212904, Note_on_c, 6, 41, 0
8, 213522, Note_on_c, 6, 44, 58
8, 213613, Note_on_c, 6, 43, 0
8, 214185, Note_on_c, 6, 44, 0
8, 216477, Note_on_c, 6, 39, 68
8, 217044, Note_on_c, 6, 41, 71
8, 217096, Note_on_c, 6, 39, 0
8, 217787, Note_on_c, 6, 43, 78
8, 217852, Note_on_c, 6, 41, 0
8, 218623, Note_on_c, 6, 44, 63
8, 218714, Note_on_c, 6, 43, 0
8, 220794, Note_on_c, 6, 44, 0
8, 220823, Note_on_c, 6, 49, 79
8, 221489, Note_on_c, 6, 48, 101
8, 221529, Note_on_c, 6, 49, 0
8, 222088, Note_on_c, 6, 41, 118
8, 222127, Note_on_c, 6, 48, 0
8, 222883, Note_on_c, 6, 40, 116
8, 222904, Note_on_c, 6, 41, 0
8, 223957, Note_on_c, 6, 39, 113
8, 223988, Note_on_c, 6, 40, 0
8, 225600, Control_c, 6, 11, 80
8, 225645, Control_c, 6, 11, 79
8, 225690, Control_c, 6, 11, 78
8, 225730, Control_c, 6, 11, 77
8, 225775, Control_c, 6, 11, 76
8, 225820, Control_c, 6, 11, 75
8, 225860, Control_c, 6, 11, 74
8, 225905, Control_c, 6, 11, 73
8, 225945, Control_c, 6, 11, 72
8, 225990, Control_c, 6, 11, 71
8, 226035, Control_c, 6, 11, 70
8, 226075, Control_c, 6, 11, 69
8, 226120, Control_c, 6, 11, 68
8, 226165, Control_c, 6, 11, 67
8, 226205, Control_c, 6, 11, 66
8, 226250, Control_c, 6, 11, 65
8, 226290, Control_c, 6, 11, 64
8, 226335, Control_c, 6, 11, 63
8, 226380, Control_c, 6, 11, 62
8, 226420, Control_c, 6, 11, 61
8, 226465, Control_c, 6, 11, 60
8, 226510, Control_c, 6, 11, 59
8, 226550, Control_c, 6, 11, 58
8, 226595, Control_c, 6, 11, 57
8, 226635, Control_c, 6, 11, 56
8, 226680, Control_c, 6, 11, 55
8, 226725, Control_c, 6, 11, 54
8, 226765, Control_c, 6, 11, 53
8, 226810, Control_c, 6, 11, 52
8, 226855, Control_c, 6, 11, 51
8, 226895, Control_c, 6, 11, 50
8, 226940, Control_c, 6, 11, 49
8, 226980, Control_c, 6, 11, 48
8, 227025, Control_c, 6, 11, 47
8, 227070, Control_c, 6, 11, 46
8, 227110, Control_c, 6, 11, 45
8, 227155, Control_c, 6, 11, 44
8, 227200, Control_c, 6, 11, 43
8, 227240, Control_c, 6, 11, 42
8, 227285, Control_c, 6, 11, 41
8, 227325, Control_c, 6, 11, 40
8, 227326, Note_on_c, 6, 32, 66
8, 227357, Note_on_c, 6, 39, 0
8, 228107, Note_on_c, 6, 32, 0
8, 228960, Control_c, 6, 11, 80
8, 229745, Note_on_c, 6, 44, 62
8, 230750, Note_on_c, 6, 39, 66
8, 230819, Note_on_c, 6, 44, 0
8, 231890, Note_on_c, 6, 44, 52
8, 231924, Note_on_c, 6, 39, 0
8, 236075, Note_on_c, 6, 39, 40
8, 236106, Note_on_c, 6, 44, 0
8, 237740, Note_on_c, 6, 44, 32
8, 237779, Note_on_c, 6, 39, 0
8, 241125, Note_on_c, 6, 44, 0
8, 254158, Note_on_c, 6, 32, 32
8, 254975, Note_on_c, 6, 34, 41
8, 255065, Note_on_c, 6, 32, 0
8, 255781, Note_on_c, 6, 36, 47
8, 255853, Note_on_c, 6, 34, 0
8, 256394, Note_on_c, 6, 37, 53
8, 256460, Note_on_c, 6, 36, 0
8, 257095, Note_on_c, 6, 39, 45
8, 257151, Note_on_c, 6, 37, 0
8, 257525, Note_on_c, 6, 40, 46
8, 257614, Note_on_c, 6, 39, 0
8, 259752, Control_c, 6, 11, 80
8, 259752, Note_on_c, 6, 35, 45
8, 259761, Note_on_c, 6, 40, 0
8, 259802, Control_c, 6, 11, 81
8, 259847, Control_c, 6, 11, 82
8, 259892, Control_c, 6, 11, 83
8, 259937, Control_c, 6, 11, 84
8, 259982, Control_c, 6, 11, 85
8, 260027, Control_c, 6, 11, 86
8, 260072, Control_c, 6, 11, 87
8, 260117, Control_c, 6, 11, 88
8, 260167, Control_c, 6, 11, 89
8, 260212, Control_c, 6, 11, 90
8, 260257, Control_c, 6, 11, 91
8, 260302, Control_c, 6, 11, 92
8, 260347, Control_c, 6, 11, 93
8, 260392, Control_c, 6, 11, 94
8, 260437, Control_c, 6, 11, 95
8, 260482, Control_c, 6, 11, 96
8, 260527, Control_c, 6, 11, 97
8, 260577, Control_c, 6, 11, 98
8, 260622, Control_c, 6, 11, 99
8, 260667, Control_c, 6, 11, 100
8, 260712, Control_c, 6, 11, 101
8, 260757, Control_c, 6, 11, 102
8, 260802, Control_c, 6, 11, 103
8, 260847, Control_c, 6, 11, 104
8, 260892, Control_c, 6, 11, 105
8, 260937, Control_c, 6, 11, 106
8, 260987, Control_c, 6, 11, 107
8, 261032, Control_c, 6, 11, 108
8, 261077, Control_c, 6, 11, 109
8, 261120, Control_c, 6, 11, 110
8, 261120, Control_c, 6, 11, 110
8, 261160, Control_c, 6, 11, 109
8, 261195, Control_c, 6, 11, 108
8, 261230, Control_c, 6, 11, 107
8, 261265, Control_c, 6, 11, 106
8, 261300, Control_c, 6, 11, 105
8, 261335, Control_c, 6, 11, 104
8, 261370, Control_c, 6, 11, 103
8, 261405, Control_c, 6, 11, 102
8, 261440, Control_c, 6, 11, 101
8, 261475, Control_c, 6, 11, 100
8, 261510, Control_c, 6, 11, 99
8, 261545, Control_c, 6, 11, 98
8, 261580, Control_c, 6, 11, 97
8, 261615, Control_c, 6, 11, 96
8, 261650, Control_c, 6, 11, 95
8, 261685, Control_c, 6, 11, 94
8, 261725, Control_c, 6, 11, 93
8, 261760, Control_c, 6, 11, 92
8, 261795, Control_c, 6, 11, 91
8, 261830, Control_c, 6, 11, 90
8, 261865, Control_c, 6, 11, 89
8, 261900, Control_c, 6, 11, 88
8, 261935, Control_c, 6, 11, 87
8, 261970, Control_c, 6, 11, 86
8, 262005, Control_c, 6, 11, 85
8, 262040, Control_c, 6, 11, 84
8, 262075, Control_c, 6, 11, 83
8, 262110, Control_c, 6, 11, 82
8, 262145, Control_c, 6, 11, 81
8, 262180, Control_c, 6, 11, 80
8, 262180, Note_on_c, 6, 40, 37
8, 262204, Note_on_c, 6, 35, 0
8, 262690, Note_on_c, 6, 40, 0
8, 262723, Note_on_c, 6, 40, 46
8, 263127, Note_on_c, 6, 33, 53
8, 263128, Note_on_c, 6, 40, 0
8, 263296, Note_on_c, 6, 40, 40
8, 263348, Note_on_c, 6, 33, 0
8, 264293, Note_on_c, 6, 40, 0
8, 264352, Note_on_c, 6, 35, 43
8, 265440, Control_c, 6, 11, 80
8, 265490, Control_c, 6, 11, 79
8, 265540, Control_c, 6, 11, 78
8, 265585, Control_c, 6, 11, 77
8, 265635, Control_c, 6, 11, 76
8, 265680, Control_c, 6, 11, 75
8, 265730, Control_c, 6, 11, 74
8, 265780, Control_c, 6, 11, 73
8, 265825, Control_c, 6, 11, 72
8, 265875, Control_c, 6, 11, 71
8, 265920, Control_c, 6, 11, 70
8, 265970, Control_c, 6, 11, 69
8, 266020, Control_c, 6, 11, 68
8, 266065, Control_c, 6, 11, 67
8, 266115, Control_c, 6, 11, 66
8, 266160, Control_c, 6, 11, 65
8, 266210, Control_c, 6, 11, 64
8, 266260, Control_c, 6, 11, 63
8, 266305, Control_c, 6, 11, 62
8, 266355, Control_c, 6, 11, 61
8, 266400, Control_c, 6, 11, 60
8, 266450, Control_c, 6, 11, 59
8, 266500, Control_c, 6, 11, 58
8, 266545, Control_c, 6, 11, 57
8, 266595, Control_c, 6, 11, 56
8, 266640, Control_c, 6, 11, 55
8, 266690, Control_c, 6, 11, 54
8, 266698, Note_on_c, 6, 35, 0
8, 266740, Control_c, 6, 11, 53
8, 266785, Control_c, 6, 11, 52
8, 266835, Control_c, 6, 11, 51
8, 266843, Note_on_c, 6, 40, 39
8, 266880, Control_c, 6, 11, 50
8, 266880, Control_c, 6, 11, 50
8, 266885, Control_c, 6, 11, 52
8, 266890, Control_c, 6, 11, 53
8, 266895, Control_c, 6, 11, 54
8, 266900, Control_c, 6, 11, 55
8, 266905, Control_c, 6, 11, 56
8, 266910, Control_c, 6, 11, 57
8, 266915, Control_c, 6, 11, 58
8, 266920, Control_c, 6, 11, 59
8, 266925, Control_c, 6, 11, 60
8, 266935, Control_c, 6, 11, 61
8, 266940, Control_c, 6, 11, 62
8, 266945, Control_c, 6, 11, 63
8, 266955, Control_c, 6, 11, 64
8, 266960, Control_c, 6, 11, 65
8, 266970, Control_c, 6, 11, 66
8, 266980, Control_c, 6, 11, 67
8, 266990, Control_c, 6, 11, 68
8, 267000, Control_c, 6, 11, 69
8, 267010, Control_c, 6, 11, 70
8, 267025, Control_c, 6, 11, 71
8, 267035, Control_c, 6, 11, 72
8, 267050, Control_c, 6, 11, 73
8, 267070, Control_c, 6, 11, 74
8, 267090, Control_c, 6, 11, 75
8, 267115, Control_c, 6, 11, 76
8, 267140, Control_c, 6, 11, 77
8, 267175, Control_c, 6, 11, 78
8, 267225, Control_c, 6, 11, 79
8, 267315, Control_c, 6, 11, 80
8, 269278, Note_on_c, 6, 40, 0
8, 269546, Control_c, 6, 11, 50
8, 269546, Note_on_c, 6, 33, 33
8, 269551, Control_c, 6, 11, 55
8, 269556, Control_c, 6, 11, 58
8, 269561, Control_c, 6, 11, 61
8, 269566, Control_c, 6, 11, 63
8, 269571, Control_c, 6, 11, 65
8, 269576, Control_c, 6, 11, 67
8, 269581, Control_c, 6, 11, 69
8, 269586, Control_c, 6, 11, 70
8, 269591, Control_c, 6, 11, 71
8, 269596, Control_c, 6, 11, 73
8, 269601, Control_c, 6, 11, 74
8, 269611, Control_c, 6, 11, 75
8, 269616, Control_c, 6, 11, 76
8, 269626, Control_c, 6, 11, 77
8, 269636, Control_c, 6, 11, 78
8, 269651, Control_c, 6, 11, 79
8, 269676, Control_c, 6, 11, 80
8, 271009, Note_on_c, 6, 33, 0
8, 280828, Note_on_c, 6, 40, 32
8, 281040, Control_c, 6, 11, 80
8, 281340, Control_c, 6, 11, 79
8, 281465, Control_c, 6, 11, 78
8, 281545, Control_c, 6, 11, 77
8, 281600, Control_c, 6, 11, 76
8, 281640, Control_c, 6, 11, 75
8, 281695, Control_c, 6, 11, 74
8, 281720, Control_c, 6, 11, 73
8, 281750, Control_c, 6, 11, 72
8, 281775, Control_c, 6, 11, 71
8, 281790, Control_c, 6, 11, 70
8, 281820, Control_c, 6, 11, 69
8, 281840, Control_c, 6, 11, 68
8, 281855, Control_c, 6, 11, 67
8, 281865, Control_c, 6, 11, 66
8, 281880, Control_c, 6, 11, 65
8, 281900, Control_c, 6, 11, 64
8, 281915, Control_c, 6, 11, 63
8, 281925, Control_c, 6, 11, 62
8, 281930, Control_c, 6, 11, 61
8, 281940, Control_c, 6, 11, 60
8, 281955, Control_c, 6, 11, 59
8, 281965, Control_c, 6, 11, 58
8, 281975, Control_c, 6, 11, 57
8, 281985, Control_c, 6, 11, 56
8, 281995, Control_c, 6, 11, 55
8, 282005, Control_c, 6, 11, 54
8, 282010, Control_c, 6, 11, 53
8, 282015, Control_c, 6, 11, 52
8, 282025, Control_c, 6, 11, 51
8, 282030, Control_c, 6, 11, 50
8, 282040, Control_c, 6, 11, 49
8, 282045, Control_c, 6, 11, 48
8, 282055, Control_c, 6, 11, 47
8, 282060, Control_c, 6, 11, 46
8, 282065, Control_c, 6, 11, 45
8, 282075, Control_c, 6, 11, 44
8, 282080, Control_c, 6, 11, 42
8, 282085, Control_c, 6, 11, 41
8, 282090, Control_c, 6, 11, 40
8, 282100, Control_c, 6, 11, 39
8, 282105, Control_c, 6, 11, 38
8, 282110, Control_c, 6, 11, 37
8, 282115, Control_c, 6, 11, 36
8, 282120, Control_c, 6, 11, 35
8, 282125, Control_c, 6, 11, 34
8, 282130, Control_c, 6, 11, 33
8, 282135, Control_c, 6, 11, 32
8, 282140, Control_c, 6, 11, 31
8, 282145, Control_c, 6, 11, 30
8, 282150, Control_c, 6, 11, 29
8, 282155, Control_c, 6, 11, 26
8, 282160, Control_c, 6, 11, 25
8, 282165, Control_c, 6, 11, 24
8, 282170, Control_c, 6, 11, 23
8, 282175, Control_c, 6, 11, 21
8, 282180, Control_c, 6, 11, 20
8, 282185, Control_c, 6, 11, 19
8, 282190, Control_c, 6, 11, 18
8, 282195, Control_c, 6, 11, 16
8, 282200, Control_c, 6, 11, 15
8, 282205, Control_c, 6, 11, 13
8, 282210, Control_c, 6, 11, 12
8, 282215, Control_c, 6, 11, 10
8, 282220, Control_c, 6, 11, 9
8, 282225, Control_c, 6, 11, 6
8, 282230, Control_c, 6, 11, 4
8, 282235, Control_c, 6, 11, 1
8, 282240, Control_c, 6, 11, 0
8, 282389, Note_on_c, 6, 40, 0
8, 288000, Control_c, 6, 11, 80
8, 288230, Control_c, 6, 11, 80
8, 288230, Note_on_c, 6, 42, 34
8, 288330, Control_c, 6, 11, 79
8, 288425, Control_c, 6, 11, 78
8, 288520, Control_c, 6, 11, 77
8, 288615, Control_c, 6, 11, 76
8, 288715, Control_c, 6, 11, 75
8, 288810, Control_c, 6, 11, 74
8, 288905, Control_c, 6, 11, 73
8, 289000, Control_c, 6, 11, 72
8, 289095, Control_c, 6, 11, 71
8, 289195, Control_c, 6, 11, 70
8, 289290, Control_c, 6, 11, 69
8, 289385, Control_c, 6, 11, 68
8, 289480, Control_c, 6, 11, 67
8, 289580, Control_c, 6, 11, 66
8, 289675, Control_c, 6, 11, 65
8, 289770, Control_c, 6, 11, 64
8, 289865, Control_c, 6, 11, 63
8, 289960, Control_c, 6, 11, 62
8, 290060, Control_c, 6, 11, 61
8, 290155, Control_c, 6, 11, 60
8, 290250, Control_c, 6, 11, 59
8, 290345, Control_c, 6, 11, 58
8, 290440, Control_c, 6, 11, 57
8, 290540, Control_c, 6, 11, 56
8, 290635, Control_c, 6, 11, 55
8, 290730, Control_c, 6, 11, 54
8, 290825, Control_c, 6, 11, 53
8, 290925, Control_c, 6, 11, 52
8, 291020, Control_c, 6, 11, 51
8, 291115, Control_c, 6, 11, 50
8, 291210, Control_c, 6, 11, 49
8, 291305, Control_c, 6, 11, 48
8, 291405, Control_c, 6, 11, 47
8, 291500, Control_c, 6, 11, 46
8, 291595, Control_c, 6, 11, 45
8, 291690, Control_c, 6, 11, 44
8, 291785, Control_c, 6, 11, 43
8, 291885, Control_c, 6, 11, 42
8, 291980, Control_c, 6, 11, 41
8, 292005, Control_c, 6, 11, 42
8, 292025, Control_c, 6, 11, 43
8, 292045, Control_c, 6, 11, 44
8, 292065, Control_c, 6, 11, 45
8, 292074, Note_on_c, 6, 35, 33
8, 292085, Control_c, 6, 11, 46
8, 292092, Note_on_c, 6, 42, 0
8, 292110, Control_c, 6, 11, 47
8, 292130, Control_c, 6, 11, 48
8, 292150, Control_c, 6, 11, 49
8, 292170, Control_c, 6, 11, 50
8, 292190, Control_c, 6, 11, 51
8, 292215, Control_c, 6, 11, 52
8, 292235, Control_c, 6, 11, 53
8, 292255, Control_c, 6, 11, 54
8, 292275, Control_c, 6, 11, 55
8, 292295, Control_c, 6, 11, 56
8, 292320, Control_c, 6, 11, 57
8, 292340, Control_c, 6, 11, 58
8, 292360, Control_c, 6, 11, 59
8, 292380, Control_c, 6, 11, 60
8, 292400, Control_c, 6, 11, 61
8, 292425, Control_c, 6, 11, 62
8, 292445, Control_c, 6, 11, 63
8, 292465, Control_c, 6, 11, 64
8, 292485, Control_c, 6, 11, 65
8, 292505, Control_c, 6, 11, 66
8, 292530, Control_c, 6, 11, 67
8, 292550, Control_c, 6, 11, 68
8, 292570, Control_c, 6, 11, 69
8, 292590, Control_c, 6, 11, 70
8, 292610, Control_c, 6, 11, 71
8, 292635, Control_c, 6, 11, 72
8, 292655, Control_c, 6, 11, 73
8, 292675, Control_c, 6, 11, 74
8, 292695, Control_c, 6, 11, 75
8, 292715, Control_c, 6, 11, 76
8, 292740, Control_c, 6, 11, 77
8, 292760, Control_c, 6, 11, 78
8, 292780, Control_c, 6, 11, 79
8, 292800, Control_c, 6, 11, 80
8, 294114, Note_on_c, 6, 40, 35
8, 294130, Note_on_c, 6, 35, 0
8, 295105, Note_on_c, 6, 40, 0
8, 298377, Note_on_c, 6, 40, 42
8, 302880, Control_c, 6, 11, 80
8, 303015, Control_c, 6, 11, 79
8, 303145, Control_c, 6, 11, 78
8, 303280, Control_c, 6, 11, 77
8, 303410, Control_c, 6, 11, 76
8, 303540, Control_c, 6, 11, 75
8, 303675, Control_c, 6, 11, 74
8, 303805, Control_c, 6, 11, 73
8, 303940, Control_c, 6, 11, 72
8, 304070, Control_c, 6, 11, 71
8, 304200, Control_c, 6, 11, 70
8, 304335, Control_c, 6, 11, 69
8, 304465, Control_c, 6, 11, 68
8, 304600, Control_c, 6, 11, 67
8, 304730, Control_c, 6, 11, 66
8, 304860, Control_c, 6, 11, 65
8, 304995, Control_c, 6, 11, 64
8, 305125, Control_c, 6, 11, 63
8, 305260, Control_c, 6, 11, 62
8, 305390, Control_c, 6, 11, 61
8, 305520, Control_c, 6, 11, 60
8, 310224, Note_on_c, 6, 35, 40
8, 310225, Note_on_c, 6, 40, 0
8, 311893, Note_on_c, 6, 40, 33
8, 311932, Note_on_c, 6, 35, 0
8, 312000, Control_c, 6, 11, 60
8, 312200, Control_c, 6, 11, 59
8, 312400, Control_c, 6, 11, 58
8, 312600, Control_c, 6, 11, 57
8, 312800, Control_c, 6, 11, 56
8, 313000, Control_c, 6, 11, 55
8, 313200, Control_c, 6, 11, 54
8, 313400, Control_c, 6, 11, 53
8, 313600, Control_c, 6, 11, 52
8, 313800, Control_c, 6, 11, 51
8, 314000, Control_c, 6, 11, 50
8, 314200, Control_c, 6, 11, 49
8, 314400, Control_c, 6, 11, 48
8, 314600, Control_c, 6, 11, 47
8, 314800, Control_c, 6, 11, 46
8, 315000, Control_c, 6, 11, 45
8, 315200, Control_c, 6, 11, 44
8, 315400, Control_c, 6, 11, 43
8, 315600, Control_c, 6, 11, 42
8, 315800, Control_c, 6, 11, 41
8, 316000, Control_c, 6, 11, 40
8, 316200, Control_c, 6, 11, 39
8, 316400, Control_c, 6, 11, 38
8, 316600, Control_c, 6, 11, 37
8, 316800, Control_c, 6, 11, 36
8, 317000, Control_c, 6, 11, 35
8, 317200, Control_c, 6, 11, 34
8, 317400, Control_c, 6, 11, 33
8, 317600, Control_c, 6, 11, 32
8, 317800, Control_c, 6, 11, 31
8, 317974, Note_on_c, 6, 40, 0
8, 318000, Control_c, 6, 11, 30
8, 318960, Control_c, 6, 67, 0
8, 319680, End_track
9, 0, Start_track
9, 0, Title_t, "Corni (E)"
9, 0, MIDI_port, 0
9, 0, Control_c, 7, 121, 0
9, 80, Control_c, 7, 101, 0
9, 100, Control_c, 7, 100, 0
9, 120, Control_c, 7, 6, 12
9, 140, Control_c, 7, 10, 48
9, 160, Control_c, 7, 7, 100
9, 180, Control_c, 7, 0, 0
9, 200, Control_c, 7, 32, 0
9, 220, Program_c, 7, 60
9, 240, Control_c, 7, 91, 100
9, 260, Control_c, 7, 93, 32
9, 280, Control_c, 7, 1, 12
9, 300, Control_c, 7, 11, 60
9, 320, Pitch_bend_c, 7, 8192
9, 340, Control_c, 7, 99, 1
9, 360, Control_c, 7, 98, 32
9, 380, Control_c, 7, 6, 64
9, 400, Control_c, 7, 98, 33
9, 420, Control_c, 7, 6, 64
9, 440, Control_c, 7, 98, 100
9, 460, Control_c, 7, 6, 64
9, 480, Control_c, 7, 98, 102
9, 500, Control_c, 7, 6, 65
9, 520, Control_c, 7, 98, 99
9, 705, Control_c, 7, 6, 66
9, 32501, Control_c, 7, 11, 0
9, 32501, Note_on_c, 7, 59, 38
9, 32502, Note_on_c, 7, 66, 42
9, 32506, Control_c, 7, 11, 6
9, 32511, Control_c, 7, 11, 9
9, 32516, Control_c, 7, 11, 13
9, 32521, Control_c, 7, 11, 16
9, 32526, Control_c, 7, 11, 19
9, 32531, Control_c, 7, 11, 23
9, 32536, Control_c, 7, 11, 25
9, 32541, Control_c, 7, 11, 28
9, 32546, Control_c, 7, 11, 30
9, 32551, Control_c, 7, 11, 32
9, 32556, Control_c, 7, 11, 34
9, 32561, Control_c, 7, 11, 36
9, 32566, Control_c, 7, 11, 38
9, 32571, Control_c, 7, 11, 39
9, 32576, Control_c, 7, 11, 41
9, 32581, Control_c, 7, 11, 42
9, 32586, Control_c, 7, 11, 44
9, 32591, Control_c, 7, 11, 45
9, 32596, Control_c, 7, 11, 46
9, 32601, Control_c, 7, 11, 47
9, 32606, Control_c, 7, 11, 48
9, 32611, Control_c, 7, 11, 49
9, 32621, Control_c, 7, 11, 50
9, 32626, Control_c, 7, 11, 51
9, 32631, Control_c, 7, 11, 52
9, 32636, Control_c, 7, 11, 53
9, 32646, Control_c, 7, 11, 54
9, 32661, Control_c, 7, 11, 55
9, 32671, Control_c, 7, 11, 56
9, 32686, Control_c, 7, 11, 57
9, 32706, Control_c, 7, 11, 58
9, 32731, Control_c, 7, 11, 59
9, 32771, Control_c, 7, 11, 60
9, 34320, Control_c, 7, 11, 60
9, 34365, Control_c, 7, 11, 59
9, 34405, Control_c, 7, 11, 58
9, 34445, Control_c, 7, 11, 57
9, 34485, Control_c, 7, 11, 56
9, 34525, Control_c, 7, 11, 55
9, 34565, Control_c, 7, 11, 54
9, 34605, Control_c, 7, 11, 53
9, 34650, Control_c, 7, 11, 52
9, 34690, Control_c, 7, 11, 51
9, 34730, Control_c, 7, 11, 50
9, 34770, Control_c, 7, 11, 49
9, 34810, Control_c, 7, 11, 48
9, 34850, Control_c, 7, 11, 47
9, 34890, Control_c, 7, 11, 46
9, 34935, Control_c, 7, 11, 45
9, 34975, Control_c, 7, 11, 44
9, 35015, Control_c, 7, 11, 43
9, 35055, Control_c, 7, 11, 42
9, 35095, Control_c, 7, 11, 41
9, 35134, Note_on_c, 7, 66, 0
9, 35135, Control_c, 7, 11, 40
9, 35135, Note_on_c, 7, 64, 30
9, 35140, Note_on_c, 7, 56, 39
9, 35245, Note_on_c, 7, 59, 0
9, 35349, Note_on_c, 7, 64, 0
9, 35363, Note_on_c, 7, 56, 0
9, 35409, Note_on_c, 7, 56, 35
9, 35409, Note_on_c, 7, 64, 23
9, 35520, Control_c, 7, 11, 40
9, 35860, Control_c, 7, 11, 39
9, 35970, Control_c, 7, 11, 38
9, 36045, Control_c, 7, 11, 37
9, 36090, Control_c, 7, 11, 36
9, 36120, Control_c, 7, 11, 35
9, 36160, Control_c, 7, 11, 34
9, 36180, Control_c, 7, 11, 33
9, 36210, Control_c, 7, 11, 32
9, 36225, Control_c, 7, 11, 31
9, 36240, Control_c, 7, 11, 30
9, 36260, Control_c, 7, 11, 29
9, 36275, Control_c, 7, 11, 28
9, 36287, Note_on_c, 7, 64, 0
9, 36290, Note_on_c, 7, 56, 0
9, 36290, Control_c, 7, 11, 27
9, 36300, Control_c, 7, 11, 26
9, 36315, Control_c, 7, 11, 25
9, 36325, Control_c, 7, 11, 24
9, 36335, Control_c, 7, 11, 23
9, 36345, Control_c, 7, 11, 22
9, 36355, Control_c, 7, 11, 21
9, 36360, Control_c, 7, 11, 20
9, 36375, Control_c, 7, 11, 19
9, 36380, Control_c, 7, 11, 18
9, 36390, Control_c, 7, 11, 17
9, 36395, Control_c, 7, 11, 16
9, 36405, Control_c, 7, 11, 15
9, 36410, Control_c, 7, 11, 14
9, 36415, Control_c, 7, 11, 13
9, 36420, Control_c, 7, 11, 12
9, 36430, Control_c, 7, 11, 11
9, 36435, Control_c, 7, 11, 10
9, 36440, Control_c, 7, 11, 9
9, 36445, Control_c, 7, 11, 8
9, 36450, Control_c, 7, 11, 7
9, 36455, Control_c, 7, 11, 6
9, 36460, Control_c, 7, 11, 5
9, 36465, Control_c, 7, 11, 4
9, 36470, Control_c, 7, 11, 3
9, 36475, Control_c, 7, 11, 2
9, 36480, Control_c, 7, 11, 0
9, 101450, Control_c, 7, 11, 60
9, 101450, Note_on_c, 7, 66, 70
9, 102173, Control_c, 7, 11, 60
9, 102173, Note_on_c, 7, 59, 60
9, 102197, Note_on_c, 7, 66, 0
9, 102228, Control_c, 7, 11, 61
9, 102278, Control_c, 7, 11, 62
9, 102333, Control_c, 7, 11, 63
9, 102383, Control_c, 7, 11, 64
9, 102438, Control_c, 7, 11, 65
9, 102488, Control_c, 7, 11, 66
9, 102538, Control_c, 7, 11, 67
9, 102593, Control_c, 7, 11, 68
9, 102643, Control_c, 7, 11, 69
9, 102698, Control_c, 7, 11, 70
9, 102748, Control_c, 7, 11, 71
9, 102798, Control_c, 7, 11, 72
9, 102853, Control_c, 7, 11, 73
9, 102903, Control_c, 7, 11, 74
9, 102958, Control_c, 7, 11, 75
9, 103008, Control_c, 7, 11, 76
9, 103058, Control_c, 7, 11, 77
9, 103113, Control_c, 7, 11, 78
9, 103163, Control_c, 7, 11, 79
9, 103215, Control_c, 7, 11, 80
9, 103215, Note_on_c, 7, 71, 64
9, 103265, Note_on_c, 7, 59, 0
9, 103738, Note_on_c, 7, 71, 0
9, 103779, Note_on_c, 7, 71, 73
9, 104234, Note_on_c, 7, 68, 80
9, 104336, Note_on_c, 7, 71, 0
9, 104850, Note_on_c, 7, 68, 0
9, 104859, Control_c, 7, 11, 50
9, 104859, Note_on_c, 7, 63, 88
9, 104934, Control_c, 7, 11, 51
9, 105009, Control_c, 7, 11, 52
9, 105079, Control_c, 7, 11, 53
9, 105154, Control_c, 7, 11, 54
9, 105224, Control_c, 7, 11, 55
9, 105299, Control_c, 7, 11, 56
9, 105369, Control_c, 7, 11, 57
9, 105444, Control_c, 7, 11, 58
9, 105514, Control_c, 7, 11, 59
9, 105589, Control_c, 7, 11, 60
9, 105659, Control_c, 7, 11, 61
9, 105734, Control_c, 7, 11, 62
9, 105804, Control_c, 7, 11, 63
9, 105879, Control_c, 7, 11, 64
9, 105949, Control_c, 7, 11, 65
9, 106016, Note_on_c, 7, 65, 85
9, 106024, Control_c, 7, 11, 66
9, 106046, Note_on_c, 7, 63, 0
9, 106094, Control_c, 7, 11, 67
9, 106169, Control_c, 7, 11, 68
9, 106239, Control_c, 7, 11, 69
9, 106314, Control_c, 7, 11, 70
9, 106384, Control_c, 7, 11, 71
9, 106459, Control_c, 7, 11, 72
9, 106529, Control_c, 7, 11, 73
9, 106604, Control_c, 7, 11, 74
9, 106674, Control_c, 7, 11, 75
9, 106749, Control_c, 7, 11, 76
9, 106824, Control_c, 7, 11, 77
9, 106894, Control_c, 7, 11, 78
9, 106969, Control_c, 7, 11, 79
9, 107038, Control_c, 7, 11, 80
9, 107038, Note_on_c, 7, 66, 90
9, 107040, Control_c, 7, 11, 80
9, 107067, Note_on_c, 7, 65, 0
9, 107175, Control_c, 7, 11, 79
9, 107215, Control_c, 7, 11, 78
9, 107235, Control_c, 7, 11, 77
9, 107255, Control_c, 7, 11, 76
9, 107265, Control_c, 7, 11, 75
9, 107275, Control_c, 7, 11, 74
9, 107285, Control_c, 7, 11, 73
9, 107295, Control_c, 7, 11, 72
9, 107300, Control_c, 7, 11, 71
9, 107305, Control_c, 7, 11, 70
9, 107310, Control_c, 7, 11, 69
9, 107315, Control_c, 7, 11, 68
9, 107320, Control_c, 7, 11, 67
9, 107325, Control_c, 7, 11, 66
9, 107330, Control_c, 7, 11, 65
9, 107335, Control_c, 7, 11, 64
9, 107340, Control_c, 7, 11, 62
9, 107345, Control_c, 7, 11, 60
9, 107350, Control_c, 7, 11, 58
9, 107355, Control_c, 7, 11, 56
9, 107360, Control_c, 7, 11, 54
9, 107365, Control_c, 7, 11, 52
9, 107370, Control_c, 7, 11, 50
9, 109882, Note_on_c, 7, 59, 55
9, 109961, Note_on_c, 7, 66, 0
9, 110573, Note_on_c, 7, 59, 0
9, 117302, Note_on_c, 7, 66, 53
9, 119529, Note_on_c, 7, 59, 35
9, 121655, Note_on_c, 7, 71, 31
9, 121730, Note_on_c, 7, 66, 0
9, 122159, Note_on_c, 7, 71, 0
9, 124320, Control_c, 7, 11, 50
9, 124555, Control_c, 7, 11, 49
9, 124635, Control_c, 7, 11, 48
9, 124680, Control_c, 7, 11, 47
9, 124720, Control_c, 7, 11, 46
9, 124745, Control_c, 7, 11, 45
9, 124770, Control_c, 7, 11, 44
9, 124790, Control_c, 7, 11, 43
9, 124805, Control_c, 7, 11, 42
9, 124820, Control_c, 7, 11, 41
9, 124835, Control_c, 7, 11, 40
9, 124845, Control_c, 7, 11, 39
9, 124860, Control_c, 7, 11, 38
9, 124870, Control_c, 7, 11, 37
9, 124880, Control_c, 7, 11, 36
9, 124885, Control_c, 7, 11, 35
9, 124895, Control_c, 7, 11, 34
9, 124905, Control_c, 7, 11, 33
9, 124910, Control_c, 7, 11, 32
9, 124915, Control_c, 7, 11, 31
9, 124925, Control_c, 7, 11, 30
9, 124930, Control_c, 7, 11, 29
9, 124935, Control_c, 7, 11, 28
9, 124940, Control_c, 7, 11, 27
9, 124950, Control_c, 7, 11, 25
9, 124960, Control_c, 7, 11, 23
9, 124970, Control_c, 7, 11, 22
9, 124975, Control_c, 7, 11, 20
9, 124980, Control_c, 7, 11, 19
9, 124984, Note_on_c, 7, 59, 0
9, 124985, Control_c, 7, 11, 17
9, 124995, Control_c, 7, 11, 15
9, 125000, Control_c, 7, 11, 14
9, 125005, Control_c, 7, 11, 12
9, 125010, Control_c, 7, 11, 10
9, 125015, Control_c, 7, 11, 9
9, 125020, Control_c, 7, 11, 8
9, 125025, Control_c, 7, 11, 6
9, 125030, Control_c, 7, 11, 4
9, 125035, Control_c, 7, 11, 3
9, 125040, Control_c, 7, 11, 0
9, 153600, Control_c, 7, 11, 60
9, 155300, Note_on_c, 7, 68, 37
9, 155879, Note_on_c, 7, 68, 0
9, 155918, Note_on_c, 7, 68, 52
9, 156472, Note_on_c, 7, 68, 0
9, 156508, Note_on_c, 7, 68, 59
9, 156513, Note_on_c, 7, 56, 64
9, 156894, Note_on_c, 7, 56, 0
9, 156904, Note_on_c, 7, 68, 0
9, 156940, Note_on_c, 7, 68, 69
9, 156950, Note_on_c, 7, 56, 73
9, 157065, Note_on_c, 7, 56, 0
9, 157076, Note_on_c, 7, 68, 0
9, 157100, Note_on_c, 7, 68, 65
9, 157100, Control_c, 7, 11, 60
9, 157100, Note_on_c, 7, 56, 79
9, 157270, Control_c, 7, 11, 59
9, 157335, Control_c, 7, 11, 58
9, 157370, Control_c, 7, 11, 57
9, 157405, Control_c, 7, 11, 56
9, 157425, Control_c, 7, 11, 55
9, 157445, Control_c, 7, 11, 54
9, 157460, Control_c, 7, 11, 53
9, 157475, Control_c, 7, 11, 52
9, 157485, Control_c, 7, 11, 51
9, 157495, Control_c, 7, 11, 50
9, 157505, Control_c, 7, 11, 49
9, 157515, Control_c, 7, 11, 48
9, 157525, Control_c, 7, 11, 47
9, 157530, Control_c, 7, 11, 46
9, 157535, Control_c, 7, 11, 45
9, 157545, Control_c, 7, 11, 44
9, 157555, Control_c, 7, 11, 42
9, 157565, Control_c, 7, 11, 41
9, 157570, Control_c, 7, 11, 40
9, 157575, Control_c, 7, 11, 38
9, 157585, Control_c, 7, 11, 36
9, 157590, Control_c, 7, 11, 35
9, 157595, Control_c, 7, 11, 34
9, 157600, Control_c, 7, 11, 33
9, 157605, Control_c, 7, 11, 31
9, 157610, Control_c, 7, 11, 30
9, 157615, Control_c, 7, 11, 29
9, 157620, Control_c, 7, 11, 27
9, 157625, Control_c, 7, 11, 25
9, 157630, Control_c, 7, 11, 23
9, 157635, Control_c, 7, 11, 22
9, 157640, Control_c, 7, 11, 20
9, 157645, Control_c, 7, 11, 18
9, 157650, Control_c, 7, 11, 15
9, 157655, Control_c, 7, 11, 13
9, 157660, Control_c, 7, 11, 11
9, 157665, Control_c, 7, 11, 9
9, 157670, Control_c, 7, 11, 6
9, 157675, Control_c, 7, 11, 3
9, 157680, Control_c, 7, 11, 0
9, 157712, Note_on_c, 7, 56, 0
9, 157719, Note_on_c, 7, 68, 0
9, 180480, Control_c, 7, 11, 60
9, 182723, Note_on_c, 7, 71, 81
9, 182731, Note_on_c, 7, 59, 76
9, 183377, Note_on_c, 7, 59, 0
9, 183388, Note_on_c, 7, 71, 0
9, 183408, Note_on_c, 7, 71, 68
9, 183420, Note_on_c, 7, 59, 84
9, 183625, Note_on_c, 7, 59, 0
9, 183640, Note_on_c, 7, 71, 0
9, 183668, Note_on_c, 7, 71, 94
9, 183668, Note_on_c, 7, 59, 87
9, 184722, Note_on_c, 7, 71, 0
9, 184730, Note_on_c, 7, 59, 0
9, 240041, Control_c, 7, 11, 23
9, 240041, Note_on_c, 7, 56, 38
9, 240046, Control_c, 7, 11, 26
9, 240051, Control_c, 7, 11, 28
9, 240056, Control_c, 7, 11, 30
9, 240061, Control_c, 7, 11, 32
9, 240066, Control_c, 7, 11, 34
9, 240071, Control_c, 7, 11, 35
9, 240076, Control_c, 7, 11, 37
9, 240081, Control_c, 7, 11, 39
9, 240086, Control_c, 7, 11, 40
9, 240091, Control_c, 7, 11, 41
9, 240096, Control_c, 7, 11, 42
9, 240101, Control_c, 7, 11, 44
9, 240111, Control_c, 7, 11, 45
9, 240116, Control_c, 7, 11, 46
9, 240121, Control_c, 7, 11, 47
9, 240126, Control_c, 7, 11, 48
9, 240131, Control_c, 7, 11, 49
9, 240136, Control_c, 7, 11, 50
9, 240146, Control_c, 7, 11, 51
9, 240151, Control_c, 7, 11, 52
9, 240161, Control_c, 7, 11, 53
9, 240176, Control_c, 7, 11, 54
9, 240186, Control_c, 7, 11, 55
9, 240201, Control_c, 7, 11, 56
9, 240216, Control_c, 7, 11, 57
9, 240241, Control_c, 7, 11, 58
9, 240271, Control_c, 7, 11, 59
9, 240326, Control_c, 7, 11, 60
9, 241920, Control_c, 7, 11, 60
9, 241970, Control_c, 7, 11, 59
9, 242020, Control_c, 7, 11, 58
9, 242065, Control_c, 7, 11, 57
9, 242115, Control_c, 7, 11, 56
9, 242160, Control_c, 7, 11, 55
9, 242210, Control_c, 7, 11, 54
9, 242260, Control_c, 7, 11, 53
9, 242305, Control_c, 7, 11, 52
9, 242355, Control_c, 7, 11, 51
9, 242400, Control_c, 7, 11, 50
9, 242450, Control_c, 7, 11, 49
9, 242500, Control_c, 7, 11, 48
9, 242545, Control_c, 7, 11, 47
9, 242595, Control_c, 7, 11, 46
9, 242640, Control_c, 7, 11, 45
9, 242690, Control_c, 7, 11, 44
9, 242740, Control_c, 7, 11, 43
9, 242785, Control_c, 7, 11, 42
9, 242835, Control_c, 7, 11, 41
9, 242880, Control_c, 7, 11, 40
9, 242880, Control_c, 7, 11, 40
9, 243050, Control_c, 7, 11, 39
9, 243105, Control_c, 7, 11, 38
9, 243145, Control_c, 7, 11, 37
9, 243165, Control_c, 7, 11, 36
9, 243180, Control_c, 7, 11, 35
9, 243200, Control_c, 7, 11, 34
9, 243210, Control_c, 7, 11, 33
9, 243225, Control_c, 7, 11, 32
9, 243235, Control_c, 7, 11, 31
9, 243240, Control_c, 7, 11, 30
9, 243250, Control_c, 7, 11, 29
9, 243260, Control_c, 7, 11, 28
9, 243265, Control_c, 7, 11, 27
9, 243270, Control_c, 7, 11, 26
9, 243275, Control_c, 7, 11, 25
9, 243285, Control_c, 7, 11, 24
9, 243290, Control_c, 7, 11, 23
9, 243295, Control_c, 7, 11, 22
9, 243300, Control_c, 7, 11, 20
9, 243305, Control_c, 7, 11, 19
9, 243310, Control_c, 7, 11, 18
9, 243315, Control_c, 7, 11, 17
9, 243320, Control_c, 7, 11, 15
9, 243325, Control_c, 7, 11, 14
9, 243330, Control_c, 7, 11, 12
9, 243335, Control_c, 7, 11, 10
9, 243340, Control_c, 7, 11, 9
9, 243345, Control_c, 7, 11, 7
9, 243350, Control_c, 7, 11, 5
9, 243355, Control_c, 7, 11, 3
9, 243360, Control_c, 7, 11, 0
9, 243542, Note_on_c, 7, 56, 0
9, 253440, Control_c, 7, 11, 60
9, 254138, Control_c, 7, 11, 0
9, 254138, Note_on_c, 7, 68, 18
9, 254143, Control_c, 7, 11, 7
9, 254148, Control_c, 7, 11, 12
9, 254151, Note_on_c, 7, 56, 30
9, 254153, Control_c, 7, 11, 17
9, 254158, Control_c, 7, 11, 22
9, 254163, Control_c, 7, 11, 26
9, 254168, Control_c, 7, 11, 29
9, 254173, Control_c, 7, 11, 33
9, 254178, Control_c, 7, 11, 35
9, 254183, Control_c, 7, 11, 38
9, 254188, Control_c, 7, 11, 40
9, 254193, Control_c, 7, 11, 42
9, 254198, Control_c, 7, 11, 44
9, 254203, Control_c, 7, 11, 45
9, 254208, Control_c, 7, 11, 47
9, 254213, Control_c, 7, 11, 49
9, 254218, Control_c, 7, 11, 50
9, 254223, Control_c, 7, 11, 51
9, 254228, Control_c, 7, 11, 52
9, 254233, Control_c, 7, 11, 53
9, 254238, Control_c, 7, 11, 54
9, 254248, Control_c, 7, 11, 55
9, 254258, Control_c, 7, 11, 56
9, 254263, Control_c, 7, 11, 57
9, 254278, Control_c, 7, 11, 58
9, 254298, Control_c, 7, 11, 59
9, 254323, Control_c, 7, 11, 60
9, 256445, Note_on_c, 7, 56, 0
9, 256456, Note_on_c, 7, 68, 0
9, 256522, Note_on_c, 7, 56, 10
9, 256523, Note_on_c, 7, 68, 23
9, 258380, Note_on_c, 7, 56, 0
9, 258388, Note_on_c, 7, 68, 0
9, 282355, Note_on_c, 7, 64, 48
9, 282856, Note_on_c, 7, 64, 0
9, 282904, Note_on_c, 7, 64, 59
9, 283445, Note_on_c, 7, 64, 0
9, 283500, Note_on_c, 7, 64, 65
9, 287208, Note_on_c, 7, 64, 0
9, 290703, Note_on_c, 7, 66, 60
9, 291989, Note_on_c, 7, 66, 0
9, 292058, Note_on_c, 7, 66, 64
9, 292065, Note_on_c, 7, 59, 67
9, 292976, Note_on_c, 7, 66, 0
9, 293024, Note_on_c, 7, 66, 72
9, 293648, Note_on_c, 7, 68, 71
9, 293758, Note_on_c, 7, 66, 0
9, 294103, Note_on_c, 7, 64, 67
9, 294110, Note_on_c, 7, 56, 56
9, 294132, Note_on_c, 7, 68, 0
9, 294277, Note_on_c, 7, 59, 0
9, 294765, Note_on_c, 7, 56, 0
9, 302243, Note_on_c, 7, 64, 0
9, 302494, Note_on_c, 7, 66, 72
9, 302763, Note_on_c, 7, 66, 0
9, 302799, Note_on_c, 7, 66, 79
9, 304106, Note_on_c, 7, 66, 0
9, 304143, Note_on_c, 7, 66, 56
9, 304153, Note_on_c, 7, 59, 62
9, 305530, Note_on_c, 7, 68, 63
9, 305555, Note_on_c, 7, 66, 0
9, 305840, Note_on_c, 7, 64, 64
9, 305879, Note_on_c, 7, 59, 0
9, 306240, Control_c, 7, 11, 60
9, 306525, Control_c, 7, 11, 59
9, 306625, Control_c, 7, 11, 58
9, 306690, Control_c, 7, 11, 57
9, 306745, Control_c, 7, 11, 56
9, 306780, Control_c, 7, 11, 55
9, 306810, Control_c, 7, 11, 54
9, 306835, Control_c, 7, 11, 53
9, 306860, Control_c, 7, 11, 52
9, 306880, Control_c, 7, 11, 51
9, 306895, Control_c, 7, 11, 50
9, 306910, Control_c, 7, 11, 49
9, 306930, Control_c, 7, 11, 48
9, 306940, Control_c, 7, 11, 47
9, 306955, Control_c, 7, 11, 46
9, 306960, Control_c, 7, 11, 45
9, 306975, Control_c, 7, 11, 44
9, 306990, Control_c, 7, 11, 43
9, 306995, Control_c, 7, 11, 42
9, 307005, Control_c, 7, 11, 41
9, 307015, Control_c, 7, 11, 40
9, 307020, Control_c, 7, 11, 39
9, 307030, Control_c, 7, 11, 38
9, 307040, Control_c, 7, 11, 37
9, 307045, Control_c, 7, 11, 36
9, 307050, Control_c, 7, 11, 35
9, 307060, Control_c, 7, 11, 34
9, 307065, Control_c, 7, 11, 33
9, 307075, Control_c, 7, 11, 32
9, 307080, Control_c, 7, 11, 30
9, 307090, Control_c, 7, 11, 29
9, 307095, Control_c, 7, 11, 28
9, 307100, Control_c, 7, 11, 27
9, 307110, Control_c, 7, 11, 25
9, 307115, Control_c, 7, 11, 24
9, 307120, Control_c, 7, 11, 23
9, 307125, Control_c, 7, 11, 22
9, 307130, Control_c, 7, 11, 21
9, 307135, Control_c, 7, 11, 20
9, 307140, Control_c, 7, 11, 18
9, 307145, Control_c, 7, 11, 17
9, 307150, Control_c, 7, 11, 16
9, 307155, Control_c, 7, 11, 14
9, 307160, Control_c, 7, 11, 13
9, 307165, Control_c, 7, 11, 12
9, 307170, Control_c, 7, 11, 10
9, 307175, Control_c, 7, 11, 9
9, 307180, Control_c, 7, 11, 8
9, 307185, Control_c, 7, 11, 6
9, 307190, Control_c, 7, 11, 4
9, 307195, Control_c, 7, 11, 3
9, 307200, Control_c, 7, 11, 0
9, 307276, Note_on_c, 7, 68, 0
9, 307293, Note_on_c, 7, 64, 0
9, 319680, End_track
10, 0, Start_track
10, 0, Title_t, "Tromba (C)"
10, 0, MIDI_port, 0
10, 0, Control_c, 8, 121, 0
10, 80, Control_c, 8, 101, 0
10, 100, Control_c, 8, 100, 0
10, 120, Control_c, 8, 6, 12
10, 140, Control_c, 8, 10, 84
10, 160, Control_c, 8, 7, 100
10, 180, Control_c, 8, 0, 0
10, 200, Control_c, 8, 32, 0
10, 220, Program_c, 8, 56
10, 240, Control_c, 8, 91, 90
10, 260, Control_c, 8, 93, 32
10, 280, Control_c, 8, 1, 12
10, 300, Control_c, 8, 11, 100
10, 320, Pitch_bend_c, 8, 8192
10, 340, Control_c, 8, 99, 1
10, 360, Control_c, 8, 98, 32
10, 380, Control_c, 8, 6, 64
10, 400, Control_c, 8, 98, 33
10, 420, Control_c, 8, 6, 70
10, 440, Control_c, 8, 98, 100
10, 460, Control_c, 8, 6, 64
10, 480, Control_c, 8, 98, 102
10, 500, Control_c, 8, 6, 65
10, 520, Control_c, 8, 98, 99
10, 705, Control_c, 8, 6, 65
10, 319680, End_track
11, 0, Start_track
11, 0, Title_t, "Corni (C)"
11, 0, MIDI_port, 0
11, 0, Control_c, 10, 121, 0
11, 80, Control_c, 10, 101, 0
11, 100, Control_c, 10, 100, 0
11, 120, Control_c, 10, 6, 12
11, 140, Control_c, 10, 10, 48
11, 160, Control_c, 10, 7, 100
11, 180, Control_c, 10, 0, 0
11, 200, Control_c, 10, 32, 0
11, 220, Program_c, 10, 60
11, 240, Control_c, 10, 91, 100
11, 260, Control_c, 10, 93, 32
11, 280, Control_c, 10, 1, 12
11, 300, Control_c, 10, 11, 100
11, 320, Pitch_bend_c, 10, 8192
11, 340, Control_c, 10, 99, 1
11, 360, Control_c, 10, 98, 32
11, 380, Control_c, 10, 6, 64
11, 400, Control_c, 10, 98, 33
11, 420, Control_c, 10, 6, 64
11, 440, Control_c, 10, 98, 100
11, 460, Control_c, 10, 6, 64
11, 480, Control_c, 10, 98, 102
11, 500, Control_c, 10, 6, 65
11, 520, Control_c, 10, 98, 99
11, 705, Control_c, 10, 6, 66
11, 319680, End_track
12, 0, Start_track
12, 0, Title_t, "Trombone"
12, 0, MIDI_port, 0
12, 0, Control_c, 11, 121, 0
12, 80, Control_c, 11, 101, 0
12, 100, Control_c, 11, 100, 0
12, 120, Control_c, 11, 6, 12
12, 140, Control_c, 11, 10, 38
12, 160, Control_c, 11, 7, 100
12, 180, Control_c, 11, 0, 0
12, 200, Control_c, 11, 32, 2
12, 220, Program_c, 11, 57
12, 240, Control_c, 11, 91, 80
12, 260, Control_c, 11, 93, 24
12, 280, Control_c, 11, 1, 12
12, 300, Control_c, 11, 11, 80
12, 320, Pitch_bend_c, 11, 8192
12, 340, Control_c, 11, 99, 1
12, 360, Control_c, 11, 98, 32
12, 380, Control_c, 11, 6, 80
12, 400, Control_c, 11, 98, 33
12, 420, Control_c, 11, 6, 62
12, 440, Control_c, 11, 98, 100
12, 460, Control_c, 11, 6, 64
12, 480, Control_c, 11, 98, 102
12, 500, Control_c, 11, 6, 64
12, 520, Control_c, 11, 98, 99
12, 705, Control_c, 11, 6, 64
12, 319680, End_track
13, 0, Start_track
13, 0, Title_t, "Flauti"
13, 0, MIDI_port, 0
13, 0, Control_c, 12, 121, 0
13, 80, Control_c, 12, 101, 0
13, 100, Control_c, 12, 100, 0
13, 120, Control_c, 12, 6, 12
13, 140, Control_c, 12, 10, 42
13, 160, Control_c, 12, 7, 100
13, 180, Control_c, 12, 0, 0
13, 200, Control_c, 12, 32, 0
13, 220, Program_c, 12, 73
13, 240, Control_c, 12, 91, 80
13, 260, Control_c, 12, 93, 24
13, 280, Control_c, 12, 1, 12
13, 300, Control_c, 12, 11, 80
13, 320, Pitch_bend_c, 12, 8192
13, 340, Control_c, 12, 99, 1
13, 360, Control_c, 12, 98, 32
13, 380, Control_c, 12, 6, 80
13, 400, Control_c, 12, 98, 33
13, 420, Control_c, 12, 6, 62
13, 440, Control_c, 12, 98, 100
13, 460, Control_c, 12, 6, 64
13, 480, Control_c, 12, 98, 102
13, 500, Control_c, 12, 6, 64
13, 520, Control_c, 12, 98, 99
13, 705, Control_c, 12, 6, 64
13, 91997, Note_on_c, 12, 80, 50
13, 92015, Note_on_c, 12, 76, 38
13, 92467, Note_on_c, 12, 76, 0
13, 92467, Note_on_c, 12, 76, 45
13, 92493, Note_on_c, 12, 73, 35
13, 92529, Note_on_c, 12, 80, 0
13, 92948, Note_on_c, 12, 75, 42
13, 92965, Note_on_c, 12, 70, 29
13, 93015, Note_on_c, 12, 76, 0
13, 93020, Note_on_c, 12, 73, 0
13, 93603, Note_on_c, 12, 71, 33
13, 93633, Note_on_c, 12, 75, 0
13, 93636, Note_on_c, 12, 70, 0
13, 94271, Note_on_c, 12, 71, 0
13, 207087, Note_on_c, 12, 89, 39
13, 207089, Note_on_c, 12, 85, 33
13, 207507, Note_on_c, 12, 85, 0
13, 207583, Note_on_c, 12, 85, 34
13, 207594, Note_on_c, 12, 82, 28
13, 207723, Note_on_c, 12, 89, 0
13, 208138, Note_on_c, 12, 82, 0
13, 208143, Note_on_c, 12, 84, 30
13, 208150, Note_on_c, 12, 79, 28
13, 208328, Note_on_c, 12, 85, 0
13, 208978, Note_on_c, 12, 80, 25
13, 209002, Note_on_c, 12, 79, 0
13, 209084, Note_on_c, 12, 84, 0
13, 209712, Note_on_c, 12, 80, 0
13, 295710, Control_c, 12, 11, 11
13, 295710, Note_on_c, 12, 80, 48
13, 295715, Control_c, 12, 11, 15
13, 295717, Note_on_c, 12, 68, 40
13, 295720, Control_c, 12, 11, 18
13, 295725, Control_c, 12, 11, 20
13, 295730, Control_c, 12, 11, 23
13, 295735, Control_c, 12, 11, 25
13, 295740, Control_c, 12, 11, 27
13, 295745, Control_c, 12, 11, 29
13, 295750, Control_c, 12, 11, 31
13, 295755, Control_c, 12, 11, 33
13, 295760, Control_c, 12, 11, 34
13, 295765, Control_c, 12, 11, 36
13, 295770, Control_c, 12, 11, 38
13, 295775, Control_c, 12, 11, 39
13, 295780, Control_c, 12, 11, 40
13, 295785, Control_c, 12, 11, 41
13, 295790, Control_c, 12, 11, 43
13, 295795, Control_c, 12, 11, 44
13, 295800, Control_c, 12, 11, 45
13, 295805, Control_c, 12, 11, 46
13, 295810, Control_c, 12, 11, 47
13, 295820, Control_c, 12, 11, 48
13, 295825, Control_c, 12, 11, 49
13, 295830, Control_c, 12, 11, 50
13, 295840, Control_c, 12, 11, 51
13, 295850, Control_c, 12, 11, 52
13, 295860, Control_c, 12, 11, 53
13, 295870, Control_c, 12, 11, 54
13, 295880, Control_c, 12, 11, 55
13, 295895, Control_c, 12, 11, 56
13, 295915, Control_c, 12, 11, 57
13, 295935, Control_c, 12, 11, 58
13, 295965, Control_c, 12, 11, 59
13, 296015, Control_c, 12, 11, 60
13, 296360, Control_c, 12, 11, 61
13, 296705, Control_c, 12, 11, 62
13, 297045, Control_c, 12, 11, 63
13, 297133, Note_on_c, 12, 81, 54
13, 297145, Note_on_c, 12, 69, 49
13, 297208, Note_on_c, 12, 80, 0
13, 297256, Note_on_c, 12, 68, 0
13, 297390, Control_c, 12, 11, 64
13, 297735, Control_c, 12, 11, 65
13, 298075, Control_c, 12, 11, 66
13, 298417, Note_on_c, 12, 71, 60
13, 298420, Control_c, 12, 11, 67
13, 298423, Note_on_c, 12, 83, 58
13, 298511, Note_on_c, 12, 81, 0
13, 298554, Note_on_c, 12, 69, 0
13, 298765, Control_c, 12, 11, 68
13, 299105, Control_c, 12, 11, 69
13, 299450, Control_c, 12, 11, 70
13, 299795, Control_c, 12, 11, 71
13, 300135, Control_c, 12, 11, 72
13, 300266, Note_on_c, 12, 73, 47
13, 300274, Note_on_c, 12, 85, 53
13, 300370, Note_on_c, 12, 83, 0
13, 300409, Note_on_c, 12, 71, 0
13, 300480, Control_c, 12, 11, 73
13, 300820, Control_c, 12, 11, 74
13, 301165, Control_c, 12, 11, 75
13, 301510, Control_c, 12, 11, 76
13, 301850, Control_c, 12, 11, 77
13, 302195, Control_c, 12, 11, 78
13, 302540, Control_c, 12, 11, 79
13, 302783, Note_on_c, 12, 75, 46
13, 302785, Note_on_c, 12, 87, 52
13, 302865, Note_on_c, 12, 85, 0
13, 302880, Control_c, 12, 11, 80
13, 302903, Control_c, 12, 11, 79
13, 302907, Note_on_c, 12, 73, 0
13, 303018, Control_c, 12, 11, 78
13, 303133, Control_c, 12, 11, 77
13, 303253, Control_c, 12, 11, 76
13, 303368, Control_c, 12, 11, 75
13, 303483, Control_c, 12, 11, 74
13, 303598, Control_c, 12, 11, 73
13, 303718, Control_c, 12, 11, 72
13, 303833, Control_c, 12, 11, 71
13, 303948, Control_c, 12, 11, 70
13, 304068, Control_c, 12, 11, 69
13, 304183, Control_c, 12, 11, 68
13, 304298, Control_c, 12, 11, 67
13, 304413, Control_c, 12, 11, 66
13, 304533, Control_c, 12, 11, 65
13, 304648, Control_c, 12, 11, 64
13, 304763, Control_c, 12, 11, 63
13, 304883, Control_c, 12, 11, 62
13, 304998, Control_c, 12, 11, 61
13, 305113, Control_c, 12, 11, 60
13, 305228, Control_c, 12, 11, 59
13, 305348, Control_c, 12, 11, 58
13, 305463, Control_c, 12, 11, 57
13, 305578, Control_c, 12, 11, 56
13, 305693, Control_c, 12, 11, 55
13, 305755, Note_on_c, 12, 88, 43
13, 305765, Note_on_c, 12, 76, 41
13, 305812, Note_on_c, 12, 87, 0
13, 305813, Control_c, 12, 11, 54
13, 305928, Control_c, 12, 11, 53
13, 305941, Note_on_c, 12, 75, 0
13, 306043, Control_c, 12, 11, 52
13, 306163, Control_c, 12, 11, 51
13, 306278, Control_c, 12, 11, 50
13, 306393, Control_c, 12, 11, 49
13, 306743, Control_c, 12, 11, 48
13, 306863, Control_c, 12, 11, 47
13, 306923, Control_c, 12, 11, 46
13, 306973, Control_c, 12, 11, 45
13, 307008, Control_c, 12, 11, 44
13, 307038, Control_c, 12, 11, 43
13, 307063, Control_c, 12, 11, 42
13, 307088, Control_c, 12, 11, 41
13, 307103, Control_c, 12, 11, 40
13, 307123, Control_c, 12, 11, 39
13, 307143, Control_c, 12, 11, 38
13, 307158, Control_c, 12, 11, 37
13, 307168, Control_c, 12, 11, 36
13, 307183, Control_c, 12, 11, 35
13, 307193, Control_c, 12, 11, 34
13, 307203, Control_c, 12, 11, 33
13, 307208, Control_c, 12, 11, 32
13, 307223, Control_c, 12, 11, 31
13, 307233, Control_c, 12, 11, 30
13, 307238, Control_c, 12, 11, 29
13, 307248, Control_c, 12, 11, 28
13, 307258, Control_c, 12, 11, 27
13, 307263, Control_c, 12, 11, 26
13, 307268, Control_c, 12, 11, 25
13, 307278, Control_c, 12, 11, 24
13, 307283, Control_c, 12, 11, 23
13, 307288, Control_c, 12, 11, 22
13, 307298, Control_c, 12, 11, 21
13, 307303, Control_c, 12, 11, 20
13, 307308, Control_c, 12, 11, 19
13, 307313, Control_c, 12, 11, 18
13, 307318, Control_c, 12, 11, 17
13, 307323, Control_c, 12, 11, 16
13, 307325, Control_c, 12, 11, 15
13, 307331, Note_on_c, 12, 88, 0
13, 307333, Note_on_c, 12, 76, 0
13, 319680, End_track
14, 0, Start_track
14, 0, Title_t, "Oboi"
14, 0, MIDI_port, 0
14, 0, Control_c, 13, 121, 0
14, 80, Control_c, 13, 101, 0
14, 100, Control_c, 13, 100, 0
14, 120, Control_c, 13, 6, 12
14, 140, Control_c, 13, 10, 52
14, 160, Control_c, 13, 7, 100
14, 180, Control_c, 13, 0, 0
14, 200, Control_c, 13, 32, 0
14, 220, Program_c, 13, 68
14, 240, Control_c, 13, 91, 80
14, 260, Control_c, 13, 93, 24
14, 280, Control_c, 13, 1, 16
14, 300, Control_c, 13, 11, 80
14, 320, Pitch_bend_c, 13, 8192
14, 340, Control_c, 13, 99, 1
14, 360, Control_c, 13, 98, 32
14, 380, Control_c, 13, 6, 80
14, 400, Control_c, 13, 98, 33
14, 420, Control_c, 13, 6, 62
14, 440, Control_c, 13, 98, 100
14, 460, Control_c, 13, 6, 64
14, 480, Control_c, 13, 98, 102
14, 500, Control_c, 13, 6, 64
14, 520, Control_c, 13, 98, 99
14, 705, Control_c, 13, 6, 64
14, 319680, End_track
15, 0, Start_track
15, 0, Title_t, "Clarinetti (C)"
15, 0, MIDI_port, 0
15, 0, Control_c, 14, 121, 0
15, 80, Control_c, 14, 101, 0
15, 100, Control_c, 14, 100, 0
15, 120, Control_c, 14, 6, 12
15, 140, Control_c, 14, 10, 72
15, 160, Control_c, 14, 7, 100
15, 180, Control_c, 14, 0, 0
15, 200, Program_c, 14, 71
15, 220, Control_c, 14, 91, 80
15, 240, Control_c, 14, 93, 24
15, 260, Control_c, 14, 1, 14
15, 280, Control_c, 14, 11, 80
15, 300, Pitch_bend_c, 14, 8192
15, 320, Control_c, 14, 99, 1
15, 340, Control_c, 14, 98, 32
15, 360, Control_c, 14, 6, 80
15, 380, Control_c, 14, 98, 33
15, 400, Control_c, 14, 6, 62
15, 420, Control_c, 14, 98, 100
15, 440, Control_c, 14, 6, 64
15, 460, Control_c, 14, 98, 102
15, 480, Control_c, 14, 6, 64
15, 500, Control_c, 14, 98, 99
15, 520, Control_c, 14, 6, 64
15, 540, Control_c, 14, 101, 0
15, 560, Control_c, 14, 100, 2
15, 705, Control_c, 14, 6, 64
15, 73079, Note_on_c, 14, 64, 27
15, 73081, Note_on_c, 14, 73, 21
15, 75743, Note_on_c, 14, 64, 0
15, 75746, Note_on_c, 14, 73, 0
15, 92024, Note_on_c, 14, 68, 56
15, 92038, Note_on_c, 14, 64, 48
15, 92460, Note_on_c, 14, 68, 0
15, 92463, Note_on_c, 14, 64, 0
15, 92463, Note_on_c, 14, 64, 53
15, 92482, Note_on_c, 14, 61, 49
15, 92955, Note_on_c, 14, 54, 55
15, 93005, Note_on_c, 14, 61, 0
15, 93598, Note_on_c, 14, 63, 49
15, 93616, Note_on_c, 14, 59, 46
15, 93694, Note_on_c, 14, 54, 0
15, 93705, Note_on_c, 14, 64, 0
15, 94241, Note_on_c, 14, 59, 0
15, 94277, Note_on_c, 14, 63, 0
15, 172809, Note_on_c, 14, 63, 38
15, 172812, Note_on_c, 14, 75, 42
15, 176058, Note_on_c, 14, 63, 0
15, 176060, Note_on_c, 14, 75, 0
15, 178315, Note_on_c, 14, 61, 44
15, 178317, Note_on_c, 14, 73, 48
15, 180324, Note_on_c, 14, 73, 0
15, 180330, Note_on_c, 14, 61, 0
15, 182727, Note_on_c, 14, 64, 76
15, 182733, Note_on_c, 14, 68, 87
15, 184463, Note_on_c, 14, 68, 0
15, 184468, Note_on_c, 14, 64, 0
15, 207045, Note_on_c, 14, 73, 39
15, 207050, Note_on_c, 14, 77, 44
15, 207595, Note_on_c, 14, 70, 32
15, 207601, Note_on_c, 14, 73, 0
15, 207601, Note_on_c, 14, 73, 40
15, 207692, Note_on_c, 14, 77, 0
15, 208920, Note_on_c, 14, 68, 23
15, 208942, Note_on_c, 14, 72, 35
15, 208958, Note_on_c, 14, 70, 0
15, 208971, Note_on_c, 14, 73, 0
15, 209707, Note_on_c, 14, 68, 0
15, 209722, Note_on_c, 14, 72, 0
15, 319680, End_track
16, 0, Start_track
16, 0, Title_t, "Fagotti"
16, 0, MIDI_port, 0
16, 0, Control_c, 15, 121, 0
16, 80, Control_c, 15, 101, 0
16, 100, Control_c, 15, 100, 0
16, 120, Control_c, 15, 6, 12
16, 140, Control_c, 15, 10, 82
16, 160, Control_c, 15, 7, 100
16, 180, Control_c, 15, 0, 0
16, 200, Control_c, 15, 32, 0
16, 220, Program_c, 15, 70
16, 240, Control_c, 15, 91, 80
16, 260, Control_c, 15, 93, 24
16, 280, Control_c, 15, 1, 14
16, 300, Control_c, 15, 11, 80
16, 320, Pitch_bend_c, 15, 8192
16, 340, Control_c, 15, 99, 1
16, 360, Control_c, 15, 98, 32
16, 380, Control_c, 15, 6, 50
16, 400, Control_c, 15, 98, 33
16, 420, Control_c, 15, 6, 44
16, 440, Control_c, 15, 98, 100
16, 460, Control_c, 15, 6, 64
16, 480, Control_c, 15, 98, 102
16, 500, Control_c, 15, 6, 64
16, 520, Control_c, 15, 98, 99
16, 705, Control_c, 15, 6, 64
16, 72961, Note_on_c, 15, 54, 51
16, 75610, Note_on_c, 15, 54, 0
16, 75736, Control_c, 15, 11, 25
16, 75736, Note_on_c, 15, 66, 57
16, 75741, Control_c, 15, 11, 30
16, 75746, Control_c, 15, 11, 34
16, 75751, Control_c, 15, 11, 38
16, 75756, Control_c, 15, 11, 41
16, 75761, Control_c, 15, 11, 44
16, 75766, Control_c, 15, 11, 47
16, 75771, Control_c, 15, 11, 50
16, 75776, Control_c, 15, 11, 52
16, 75781, Control_c, 15, 11, 54
16, 75786, Control_c, 15, 11, 56
16, 75791, Control_c, 15, 11, 58
16, 75796, Control_c, 15, 11, 60
16, 75801, Control_c, 15, 11, 62
16, 75806, Control_c, 15, 11, 63
16, 75811, Control_c, 15, 11, 64
16, 75816, Control_c, 15, 11, 66
16, 75821, Control_c, 15, 11, 67
16, 75826, Control_c, 15, 11, 68
16, 75831, Control_c, 15, 11, 69
16, 75836, Control_c, 15, 11, 70
16, 75841, Control_c, 15, 11, 71
16, 75851, Control_c, 15, 11, 72
16, 75856, Control_c, 15, 11, 73
16, 75866, Control_c, 15, 11, 74
16, 75876, Control_c, 15, 11, 75
16, 75886, Control_c, 15, 11, 76
16, 75901, Control_c, 15, 11, 77
16, 75916, Control_c, 15, 11, 78
16, 75936, Control_c, 15, 11, 79
16, 75981, Control_c, 15, 11, 80
16, 76575, Note_on_c, 15, 66, 0
16, 76604, Control_c, 15, 11, 60
16, 76604, Note_on_c, 15, 66, 59
16, 76609, Control_c, 15, 11, 63
16, 76614, Control_c, 15, 11, 66
16, 76619, Control_c, 15, 11, 68
16, 76624, Control_c, 15, 11, 69
16, 76629, Control_c, 15, 11, 71
16, 76634, Control_c, 15, 11, 72
16, 76639, Control_c, 15, 11, 73
16, 76644, Control_c, 15, 11, 74
16, 76649, Control_c, 15, 11, 75
16, 76654, Control_c, 15, 11, 76
16, 76664, Control_c, 15, 11, 77
16, 76674, Control_c, 15, 11, 78
16, 76684, Control_c, 15, 11, 79
16, 76709, Control_c, 15, 11, 80
16, 76754, Control_c, 15, 11, 81
16, 76794, Control_c, 15, 11, 82
16, 76834, Control_c, 15, 11, 83
16, 76874, Control_c, 15, 11, 84
16, 76914, Control_c, 15, 11, 85
16, 76954, Control_c, 15, 11, 86
16, 76994, Control_c, 15, 11, 87
16, 77034, Control_c, 15, 11, 88
16, 77074, Control_c, 15, 11, 89
16, 77114, Control_c, 15, 11, 90
16, 77159, Control_c, 15, 11, 91
16, 77199, Control_c, 15, 11, 92
16, 77239, Control_c, 15, 11, 93
16, 77279, Control_c, 15, 11, 94
16, 77319, Control_c, 15, 11, 95
16, 77359, Control_c, 15, 11, 96
16, 77399, Control_c, 15, 11, 97
16, 77439, Control_c, 15, 11, 98
16, 77479, Control_c, 15, 11, 99
16, 77519, Control_c, 15, 11, 100
16, 77589, Control_c, 15, 11, 99
16, 77659, Control_c, 15, 11, 98
16, 77729, Control_c, 15, 11, 97
16, 77799, Control_c, 15, 11, 96
16, 77851, Note_on_c, 15, 63, 60
16, 77869, Control_c, 15, 11, 95
16, 77939, Control_c, 15, 11, 94
16, 77993, Note_on_c, 15, 66, 0
16, 78009, Control_c, 15, 11, 93
16, 78074, Control_c, 15, 11, 92
16, 78144, Control_c, 15, 11, 91
16, 78214, Control_c, 15, 11, 90
16, 78284, Control_c, 15, 11, 89
16, 78354, Control_c, 15, 11, 88
16, 78376, Note_on_c, 15, 59, 54
16, 78424, Control_c, 15, 11, 87
16, 78463, Note_on_c, 15, 63, 0
16, 78494, Control_c, 15, 11, 86
16, 78559, Control_c, 15, 11, 85
16, 78629, Control_c, 15, 11, 84
16, 78699, Control_c, 15, 11, 83
16, 78769, Control_c, 15, 11, 82
16, 78839, Control_c, 15, 11, 81
16, 78906, Control_c, 15, 11, 80
16, 78906, Note_on_c, 15, 54, 49
16, 78960, Note_on_c, 15, 59, 0
16, 79972, Note_on_c, 15, 54, 0
16, 80972, Control_c, 15, 11, 52
16, 80972, Note_on_c, 15, 66, 86
16, 80977, Control_c, 15, 11, 55
16, 80982, Control_c, 15, 11, 57
16, 80987, Control_c, 15, 11, 58
16, 80992, Control_c, 15, 11, 60
16, 80997, Control_c, 15, 11, 61
16, 81002, Control_c, 15, 11, 62
16, 81007, Control_c, 15, 11, 64
16, 81012, Control_c, 15, 11, 65
16, 81017, Control_c, 15, 11, 66
16, 81022, Control_c, 15, 11, 67
16, 81027, Control_c, 15, 11, 68
16, 81032, Control_c, 15, 11, 69
16, 81037, Control_c, 15, 11, 70
16, 81047, Control_c, 15, 11, 71
16, 81052, Control_c, 15, 11, 72
16, 81062, Control_c, 15, 11, 73
16, 81072, Control_c, 15, 11, 74
16, 81082, Control_c, 15, 11, 75
16, 81092, Control_c, 15, 11, 76
16, 81107, Control_c, 15, 11, 77
16, 81127, Control_c, 15, 11, 78
16, 81157, Control_c, 15, 11, 79
16, 81202, Control_c, 15, 11, 80
16, 81439, Note_on_c, 15, 68, 86
16, 81559, Note_on_c, 15, 66, 0
16, 81668, Note_on_c, 15, 66, 78
16, 81738, Note_on_c, 15, 68, 0
16, 81881, Note_on_c, 15, 64, 73
16, 81984, Note_on_c, 15, 66, 0
16, 82116, Note_on_c, 15, 63, 75
16, 82258, Note_on_c, 15, 64, 0
16, 82360, Note_on_c, 15, 61, 71
16, 82488, Note_on_c, 15, 63, 0
16, 82630, Note_on_c, 15, 59, 66
16, 82682, Note_on_c, 15, 61, 0
16, 82897, Note_on_c, 15, 54, 61
16, 82952, Note_on_c, 15, 59, 0
16, 85920, Note_on_c, 15, 56, 64
16, 86060, Note_on_c, 15, 54, 0
16, 86765, Note_on_c, 15, 58, 74
16, 86918, Note_on_c, 15, 56, 0
16, 87174, Note_on_c, 15, 54, 70
16, 87244, Note_on_c, 15, 58, 0
16, 87652, Note_on_c, 15, 63, 78
16, 87765, Note_on_c, 15, 54, 0
16, 89036, Note_on_c, 15, 61, 64
16, 89146, Note_on_c, 15, 63, 0
16, 90723, Note_on_c, 15, 59, 57
16, 90824, Note_on_c, 15, 61, 0
16, 91424, Note_on_c, 15, 58, 52
16, 91521, Note_on_c, 15, 59, 0
16, 92116, Note_on_c, 15, 58, 0
16, 92966, Control_c, 15, 11, 40
16, 92966, Note_on_c, 15, 66, 72
16, 92971, Control_c, 15, 11, 44
16, 92976, Control_c, 15, 11, 46
16, 92981, Control_c, 15, 11, 48
16, 92986, Control_c, 15, 11, 51
16, 92991, Control_c, 15, 11, 53
16, 92996, Control_c, 15, 11, 55
16, 93001, Control_c, 15, 11, 56
16, 93006, Control_c, 15, 11, 58
16, 93011, Control_c, 15, 11, 60
16, 93016, Control_c, 15, 11, 61
16, 93021, Control_c, 15, 11, 62
16, 93026, Control_c, 15, 11, 64
16, 93031, Control_c, 15, 11, 65
16, 93036, Control_c, 15, 11, 66
16, 93041, Control_c, 15, 11, 67
16, 93046, Control_c, 15, 11, 68
16, 93051, Control_c, 15, 11, 69
16, 93061, Control_c, 15, 11, 70
16, 93066, Control_c, 15, 11, 71
16, 93071, Control_c, 15, 11, 72
16, 93081, Control_c, 15, 11, 73
16, 93091, Control_c, 15, 11, 74
16, 93101, Control_c, 15, 11, 75
16, 93116, Control_c, 15, 11, 76
16, 93131, Control_c, 15, 11, 77
16, 93146, Control_c, 15, 11, 78
16, 93181, Control_c, 15, 11, 79
16, 93221, Control_c, 15, 11, 80
16, 93587, Note_on_c, 15, 66, 0
16, 93622, Control_c, 15, 11, 50
16, 93622, Note_on_c, 15, 66, 78
16, 93627, Control_c, 15, 11, 52
16, 93632, Control_c, 15, 11, 54
16, 93637, Control_c, 15, 11, 56
16, 93642, Control_c, 15, 11, 57
16, 93647, Control_c, 15, 11, 59
16, 93652, Control_c, 15, 11, 60
16, 93657, Control_c, 15, 11, 61
16, 93662, Control_c, 15, 11, 62
16, 93667, Control_c, 15, 11, 64
16, 93672, Control_c, 15, 11, 65
16, 93682, Control_c, 15, 11, 66
16, 93687, Control_c, 15, 11, 67
16, 93692, Control_c, 15, 11, 68
16, 93697, Control_c, 15, 11, 69
16, 93707, Control_c, 15, 11, 70
16, 93712, Control_c, 15, 11, 71
16, 93722, Control_c, 15, 11, 72
16, 93732, Control_c, 15, 11, 73
16, 93742, Control_c, 15, 11, 74
16, 93757, Control_c, 15, 11, 75
16, 93772, Control_c, 15, 11, 76
16, 93787, Control_c, 15, 11, 77
16, 93812, Control_c, 15, 11, 78
16, 93842, Control_c, 15, 11, 79
16, 93897, Control_c, 15, 11, 80
16, 94652, Note_on_c, 15, 63, 70
16, 94747, Note_on_c, 15, 66, 0
16, 95059, Note_on_c, 15, 59, 68
16, 95089, Note_on_c, 15, 63, 0
16, 95700, Note_on_c, 15, 54, 66
16, 95755, Note_on_c, 15, 59, 0
16, 96757, Note_on_c, 15, 54, 0
16, 97638, Control_c, 15, 11, 50
16, 97638, Note_on_c, 15, 66, 88
16, 97643, Control_c, 15, 11, 54
16, 97648, Control_c, 15, 11, 56
16, 97653, Control_c, 15, 11, 58
16, 97658, Control_c, 15, 11, 61
16, 97663, Control_c, 15, 11, 62
16, 97668, Control_c, 15, 11, 64
16, 97673, Control_c, 15, 11, 65
16, 97678, Control_c, 15, 11, 67
16, 97683, Control_c, 15, 11, 68
16, 97688, Control_c, 15, 11, 69
16, 97693, Control_c, 15, 11, 71
16, 97703, Control_c, 15, 11, 72
16, 97708, Control_c, 15, 11, 73
16, 97713, Control_c, 15, 11, 74
16, 97723, Control_c, 15, 11, 75
16, 97733, Control_c, 15, 11, 76
16, 97738, Control_c, 15, 11, 77
16, 97758, Control_c, 15, 11, 78
16, 97773, Control_c, 15, 11, 79
16, 97808, Control_c, 15, 11, 80
16, 98122, Note_on_c, 15, 68, 95
16, 98185, Note_on_c, 15, 66, 0
16, 98346, Note_on_c, 15, 66, 88
16, 98403, Note_on_c, 15, 68, 0
16, 98552, Note_on_c, 15, 64, 83
16, 98608, Note_on_c, 15, 66, 0
16, 98786, Note_on_c, 15, 63, 83
16, 98836, Note_on_c, 15, 64, 0
16, 98994, Note_on_c, 15, 63, 0
16, 99026, Note_on_c, 15, 63, 90
16, 99123, Note_on_c, 15, 61, 82
16, 99232, Note_on_c, 15, 63, 0
16, 99432, Note_on_c, 15, 59, 72
16, 99509, Note_on_c, 15, 61, 0
16, 99949, Note_on_c, 15, 54, 67
16, 100014, Note_on_c, 15, 59, 0
16, 100978, Note_on_c, 15, 54, 0
16, 110573, Note_on_c, 15, 63, 49
16, 110577, Note_on_c, 15, 54, 41
16, 111044, Note_on_c, 15, 64, 53
16, 111047, Note_on_c, 15, 63, 0
16, 111053, Note_on_c, 15, 55, 39
16, 111075, Note_on_c, 15, 54, 0
16, 111710, Note_on_c, 15, 54, 37
16, 111827, Note_on_c, 15, 55, 0
16, 112202, Note_on_c, 15, 63, 59
16, 112207, Note_on_c, 15, 64, 0
16, 112226, Note_on_c, 15, 59, 34
16, 112231, Note_on_c, 15, 54, 0
16, 112777, Note_on_c, 15, 59, 0
16, 112791, Note_on_c, 15, 63, 0
16, 114996, Note_on_c, 15, 63, 63
16, 115003, Note_on_c, 15, 54, 44
16, 115530, Note_on_c, 15, 64, 61
16, 115541, Note_on_c, 15, 55, 46
16, 115575, Note_on_c, 15, 63, 0
16, 115589, Note_on_c, 15, 54, 0
16, 116137, Note_on_c, 15, 54, 49
16, 116236, Note_on_c, 15, 55, 0
16, 116564, Note_on_c, 15, 64, 0
16, 116564, Note_on_c, 15, 63, 57
16, 116594, Note_on_c, 15, 59, 24
16, 116613, Note_on_c, 15, 54, 0
16, 117267, Note_on_c, 15, 63, 0
16, 117280, Note_on_c, 15, 59, 0
16, 155322, Note_on_c, 15, 68, 49
16, 155326, Note_on_c, 15, 64, 35
16, 155908, Note_on_c, 15, 66, 55
16, 155909, Note_on_c, 15, 63, 43
16, 156008, Note_on_c, 15, 64, 0
16, 156032, Note_on_c, 15, 68, 0
16, 156404, Note_on_c, 15, 63, 0
16, 156463, Note_on_c, 15, 63, 60
16, 156475, Note_on_c, 15, 60, 52
16, 156589, Note_on_c, 15, 66, 0
16, 157042, Note_on_c, 15, 63, 0
16, 157048, Note_on_c, 15, 64, 54
16, 157050, Note_on_c, 15, 61, 58
16, 157084, Note_on_c, 15, 60, 0
16, 157413, Note_on_c, 15, 61, 0
16, 157416, Note_on_c, 15, 64, 0
16, 172855, Note_on_c, 15, 59, 33
16, 172858, Note_on_c, 15, 56, 50
16, 174337, Note_on_c, 15, 56, 0
16, 174342, Note_on_c, 15, 59, 0
16, 174383, Note_on_c, 15, 56, 53
16, 174385, Note_on_c, 15, 59, 63
16, 174972, Note_on_c, 15, 58, 54
16, 174978, Note_on_c, 15, 55, 42
16, 175036, Note_on_c, 15, 59, 0
16, 175044, Note_on_c, 15, 56, 0
16, 176100, Note_on_c, 15, 58, 0
16, 176109, Note_on_c, 15, 55, 0
16, 178300, Note_on_c, 15, 57, 60
16, 178301, Note_on_c, 15, 54, 70
16, 179328, Note_on_c, 15, 56, 55
16, 179333, Note_on_c, 15, 53, 57
16, 179381, Note_on_c, 15, 57, 0
16, 179396, Note_on_c, 15, 54, 0
16, 180266, Note_on_c, 15, 56, 0
16, 180298, Note_on_c, 15, 53, 0
16, 189587, Note_on_c, 15, 63, 63
16, 190433, Note_on_c, 15, 63, 0
16, 190472, Note_on_c, 15, 63, 73
16, 191766, Note_on_c, 15, 60, 69
16, 191809, Note_on_c, 15, 63, 0
16, 192245, Note_on_c, 15, 56, 60
16, 192323, Note_on_c, 15, 60, 0
16, 192782, Note_on_c, 15, 51, 54
16, 192827, Note_on_c, 15, 56, 0
16, 193663, Note_on_c, 15, 51, 0
16, 194885, Note_on_c, 15, 63, 70
16, 195488, Note_on_c, 15, 65, 79
16, 195590, Note_on_c, 15, 63, 0
16, 195736, Note_on_c, 15, 63, 79
16, 195820, Note_on_c, 15, 65, 0
16, 195984, Note_on_c, 15, 61, 88
16, 196058, Note_on_c, 15, 63, 0
16, 196198, Note_on_c, 15, 60, 84
16, 196243, Note_on_c, 15, 61, 0
16, 196431, Note_on_c, 15, 58, 78
16, 196464, Note_on_c, 15, 60, 0
16, 196663, Note_on_c, 15, 56, 72
16, 196725, Note_on_c, 15, 58, 0
16, 196968, Note_on_c, 15, 51, 65
16, 197006, Note_on_c, 15, 56, 0
16, 198074, Note_on_c, 15, 51, 0
16, 199049, Note_on_c, 15, 63, 77
16, 200097, Note_on_c, 15, 65, 89
16, 200134, Note_on_c, 15, 63, 0
16, 201002, Note_on_c, 15, 67, 85
16, 201112, Note_on_c, 15, 65, 0
16, 201470, Note_on_c, 15, 63, 88
16, 201527, Note_on_c, 15, 67, 0
16, 201972, Note_on_c, 15, 60, 76
16, 202029, Note_on_c, 15, 63, 0
16, 202899, Note_on_c, 15, 63, 68
16, 202950, Note_on_c, 15, 60, 0
16, 203730, Note_on_c, 15, 58, 48
16, 203812, Note_on_c, 15, 63, 0
16, 206446, Note_on_c, 15, 51, 45
16, 206481, Note_on_c, 15, 58, 0
16, 207138, Note_on_c, 15, 51, 0
16, 208177, Note_on_c, 15, 63, 52
16, 208968, Note_on_c, 15, 63, 0
16, 209001, Note_on_c, 15, 63, 63
16, 210182, Note_on_c, 15, 60, 67
16, 210254, Note_on_c, 15, 63, 0
16, 210599, Note_on_c, 15, 56, 76
16, 210633, Note_on_c, 15, 60, 0
16, 211244, Note_on_c, 15, 51, 63
16, 211301, Note_on_c, 15, 56, 0
16, 212452, Note_on_c, 15, 51, 0
16, 213560, Note_on_c, 15, 63, 83
16, 214171, Note_on_c, 15, 65, 89
16, 214285, Note_on_c, 15, 63, 0
16, 214408, Note_on_c, 15, 63, 92
16, 214491, Note_on_c, 15, 65, 0
16, 214609, Note_on_c, 15, 63, 0
16, 214634, Note_on_c, 15, 63, 95
16, 214841, Note_on_c, 15, 61, 90
16, 214908, Note_on_c, 15, 63, 0
16, 215016, Note_on_c, 15, 60, 86
16, 215054, Note_on_c, 15, 61, 0
16, 215173, Note_on_c, 15, 60, 0
16, 215198, Note_on_c, 15, 60, 92
16, 215392, Note_on_c, 15, 58, 83
16, 215425, Note_on_c, 15, 60, 0
16, 215579, Note_on_c, 15, 56, 81
16, 215587, Note_on_c, 15, 58, 0
16, 215888, Note_on_c, 15, 56, 0
16, 215893, Note_on_c, 15, 51, 80
16, 217046, Note_on_c, 15, 51, 0
16, 228062, Note_on_c, 15, 51, 34
16, 228073, Note_on_c, 15, 60, 51
16, 228571, Note_on_c, 15, 51, 0
16, 228647, Note_on_c, 15, 61, 60
16, 228648, Note_on_c, 15, 52, 51
16, 228654, Note_on_c, 15, 60, 0
16, 229244, Note_on_c, 15, 51, 48
16, 229300, Note_on_c, 15, 52, 0
16, 229682, Note_on_c, 15, 51, 0
16, 229769, Note_on_c, 15, 60, 45
16, 229775, Note_on_c, 15, 51, 23
16, 229795, Note_on_c, 15, 61, 0
16, 230389, Note_on_c, 15, 51, 0
16, 230414, Note_on_c, 15, 60, 0
16, 232582, Note_on_c, 15, 51, 43
16, 232584, Note_on_c, 15, 60, 58
16, 233041, Note_on_c, 15, 51, 0
16, 233094, Note_on_c, 15, 52, 50
16, 233098, Note_on_c, 15, 61, 70
16, 233126, Note_on_c, 15, 60, 0
16, 233666, Note_on_c, 15, 51, 44
16, 233739, Note_on_c, 15, 52, 0
16, 234140, Note_on_c, 15, 51, 0
16, 234227, Note_on_c, 15, 51, 40
16, 234228, Note_on_c, 15, 60, 61
16, 234354, Note_on_c, 15, 61, 0
16, 234933, Note_on_c, 15, 60, 0
16, 234955, Note_on_c, 15, 51, 0
16, 287007, Note_on_c, 15, 64, 58
16, 287584, Note_on_c, 15, 64, 0
16, 287614, Note_on_c, 15, 64, 66
16, 288133, Note_on_c, 15, 64, 0
16, 288201, Note_on_c, 15, 64, 71
16, 289266, Note_on_c, 15, 54, 64
16, 289297, Note_on_c, 15, 64, 0
16, 289560, Note_on_c, 15, 54, 0
16, 289594, Note_on_c, 15, 54, 60
16, 290114, Note_on_c, 15, 64, 59
16, 290176, Note_on_c, 15, 54, 0
16, 290655, Note_on_c, 15, 64, 0
16, 290689, Note_on_c, 15, 64, 64
16, 291360, Control_c, 15, 11, 80
16, 291387, Note_on_c, 15, 61, 53
16, 291489, Note_on_c, 15, 64, 0
16, 291505, Control_c, 15, 11, 79
16, 291650, Control_c, 15, 11, 78
16, 291795, Control_c, 15, 11, 77
16, 291940, Control_c, 15, 11, 76
16, 292080, Control_c, 15, 11, 75
16, 292093, Note_on_c, 15, 57, 49
16, 292170, Note_on_c, 15, 61, 0
16, 292225, Control_c, 15, 11, 74
16, 292370, Control_c, 15, 11, 73
16, 292515, Control_c, 15, 11, 72
16, 292660, Control_c, 15, 11, 71
16, 292800, Control_c, 15, 11, 70
16, 292945, Control_c, 15, 11, 69
16, 293090, Control_c, 15, 11, 68
16, 293235, Control_c, 15, 11, 67
16, 293380, Control_c, 15, 11, 66
16, 293520, Control_c, 15, 11, 65
16, 293665, Control_c, 15, 11, 64
16, 293810, Control_c, 15, 11, 63
16, 293955, Control_c, 15, 11, 62
16, 294021, Note_on_c, 15, 56, 51
16, 294100, Control_c, 15, 11, 61
16, 294109, Note_on_c, 15, 57, 0
16, 294240, Control_c, 15, 11, 60
16, 295645, Note_on_c, 15, 56, 0
16, 295677, Note_on_c, 15, 62, 64
16, 297120, Control_c, 15, 11, 60
16, 297128, Note_on_c, 15, 61, 54
16, 297223, Note_on_c, 15, 62, 0
16, 297310, Control_c, 15, 11, 61
16, 297500, Control_c, 15, 11, 62
16, 297685, Control_c, 15, 11, 63
16, 297875, Control_c, 15, 11, 64
16, 298065, Control_c, 15, 11, 65
16, 298250, Control_c, 15, 11, 66
16, 298399, Note_on_c, 15, 59, 65
16, 298440, Control_c, 15, 11, 67
16, 298452, Note_on_c, 15, 61, 0
16, 298630, Control_c, 15, 11, 68
16, 298815, Control_c, 15, 11, 69
16, 299005, Control_c, 15, 11, 70
16, 299195, Control_c, 15, 11, 71
16, 299380, Control_c, 15, 11, 72
16, 299570, Control_c, 15, 11, 73
16, 299760, Control_c, 15, 11, 74
16, 299945, Control_c, 15, 11, 75
16, 300135, Control_c, 15, 11, 76
16, 300225, Note_on_c, 15, 58, 53
16, 300270, Note_on_c, 15, 59, 0
16, 300320, Control_c, 15, 11, 77
16, 300510, Control_c, 15, 11, 78
16, 300700, Control_c, 15, 11, 79
16, 300885, Control_c, 15, 11, 80
16, 301075, Control_c, 15, 11, 81
16, 301265, Control_c, 15, 11, 82
16, 301450, Control_c, 15, 11, 83
16, 301640, Control_c, 15, 11, 84
16, 301830, Control_c, 15, 11, 85
16, 302015, Control_c, 15, 11, 86
16, 302205, Control_c, 15, 11, 87
16, 302395, Control_c, 15, 11, 88
16, 302580, Control_c, 15, 11, 89
16, 302768, Control_c, 15, 11, 90
16, 302769, Note_on_c, 15, 57, 43
16, 302855, Note_on_c, 15, 58, 0
16, 302953, Control_c, 15, 11, 89
16, 303133, Control_c, 15, 11, 88
16, 303318, Control_c, 15, 11, 87
16, 303498, Control_c, 15, 11, 86
16, 303683, Control_c, 15, 11, 85
16, 303863, Control_c, 15, 11, 84
16, 304048, Control_c, 15, 11, 83
16, 304228, Control_c, 15, 11, 82
16, 304413, Control_c, 15, 11, 81
16, 304593, Control_c, 15, 11, 80
16, 304778, Control_c, 15, 11, 79
16, 304958, Control_c, 15, 11, 78
16, 305143, Control_c, 15, 11, 77
16, 305323, Control_c, 15, 11, 76
16, 305508, Control_c, 15, 11, 75
16, 305688, Control_c, 15, 11, 74
16, 305798, Note_on_c, 15, 56, 38
16, 305873, Control_c, 15, 11, 73
16, 305897, Note_on_c, 15, 57, 0
16, 306053, Control_c, 15, 11, 72
16, 306238, Control_c, 15, 11, 71
16, 306418, Control_c, 15, 11, 70
16, 306600, Control_c, 15, 11, 69
16, 306600, Control_c, 15, 11, 68
16, 306660, Control_c, 15, 11, 67
16, 306715, Control_c, 15, 11, 66
16, 306750, Control_c, 15, 11, 65
16, 306780, Control_c, 15, 11, 64
16, 306810, Control_c, 15, 11, 63
16, 306835, Control_c, 15, 11, 62
16, 306850, Control_c, 15, 11, 61
16, 306870, Control_c, 15, 11, 60
16, 306885, Control_c, 15, 11, 59
16, 306900, Control_c, 15, 11, 58
16, 306915, Control_c, 15, 11, 57
16, 306930, Control_c, 15, 11, 56
16, 306940, Control_c, 15, 11, 55
16, 306950, Control_c, 15, 11, 54
16, 306960, Control_c, 15, 11, 53
16, 306970, Control_c, 15, 11, 52
16, 306980, Control_c, 15, 11, 51
16, 306990, Control_c, 15, 11, 50
16, 306995, Control_c, 15, 11, 49
16, 307005, Control_c, 15, 11, 48
16, 307015, Control_c, 15, 11, 47
16, 307020, Control_c, 15, 11, 46
16, 307025, Control_c, 15, 11, 45
16, 307035, Control_c, 15, 11, 44
16, 307040, Control_c, 15, 11, 43
16, 307045, Control_c, 15, 11, 42
16, 307050, Control_c, 15, 11, 41
16, 307060, Control_c, 15, 11, 40
16, 307065, Control_c, 15, 11, 39
16, 307070, Control_c, 15, 11, 38
16, 307075, Control_c, 15, 11, 37
16, 307080, Control_c, 15, 11, 35
16, 307090, Control_c, 15, 11, 34
16, 307095, Control_c, 15, 11, 32
16, 307105, Control_c, 15, 11, 31
16, 307110, Control_c, 15, 11, 29
16, 307115, Control_c, 15, 11, 28
16, 307120, Control_c, 15, 11, 27
16, 307125, Control_c, 15, 11, 25
16, 307130, Control_c, 15, 11, 24
16, 307135, Control_c, 15, 11, 23
16, 307140, Control_c, 15, 11, 21
16, 307145, Control_c, 15, 11, 20
16, 307150, Control_c, 15, 11, 19
16, 307155, Control_c, 15, 11, 17
16, 307160, Control_c, 15, 11, 16
16, 307165, Control_c, 15, 11, 14
16, 307170, Control_c, 15, 11, 12
16, 307175, Control_c, 15, 11, 11
16, 307180, Control_c, 15, 11, 9
16, 307185, Control_c, 15, 11, 7
16, 307190, Control_c, 15, 11, 5
16, 307195, Control_c, 15, 11, 4
16, 307200, Control_c, 15, 11, 0
16, 307302, Note_on_c, 15, 56, 0
16, 319680, End_track
17, 0, Start_track
17, 0, Title_t, "Set up"
17, 0, MIDI_port, 0
17, 0, System_exclusive, 0A, 41, 10, 42, 12, 40, 00, 7F, 00, 41, F7
17, 80, System_exclusive, 0A, 41, 10, 42, 12, 40, 01, 30, 03, 0C, F7
17, 170, System_exclusive, 0A, 41, 10, 42, 12, 40, 01, 33, 40, 4C, F7
17, 260, System_exclusive, 0A, 41, 10, 42, 12, 40, 01, 34, 50, 3B, F7
17, 350, System_exclusive, 0A, 41, 10, 42, 12, 40, 01, 35, 28, 62, F7
17, 440, System_exclusive, 0A, 41, 10, 42, 12, 40, 01, 36, 05, 04, F7
17, 530, System_exclusive, 0A, 41, 10, 42, 12, 40, 01, 38, 00, 07, F7
17, 705, System_exclusive, 0A, 41, 10, 42, 12, 40, 01, 3A, 32, 53, F7
17, 319680, End_track
0, 0, End_of_file