0, 0, Header, 1, 9, 384
1, 0, Start_track
1, 0, Time_signature, 4, 2, 96, 8
1, 0, Sequencer_specific, 03, 00, 00, 41
1, 0, Tempo, 500000
1, 0, End_track
2, 0, Start_track
2, 0, Title_t, "PIANO"
2, 0, Control_c, 0, 32, 1
2, 0, Control_c, 0, 0, 0
2, 0, Program_c, 0, 0
2, 0, Control_c, 0, 10, 64
2, 0, Control_c, 0, 91, 90
2, 0, Key_signature, 6, "major"
2, 0, Control_c, 0, 0, 0
2, 624, Control_c, 0, 7, 100
2, 776, Control_c, 0, 11, 127
2, 1084, Control_c, 0, 1, 0
2, 1160, Control_c, 0, 99, 1
2, 1164, Control_c, 0, 98, 32
2, 1168, Control_c, 0, 6, 62
2, 1168, Control_c, 0, 99, 1
2, 1172, Control_c, 0, 98, 33
2, 1176, Control_c, 0, 6, 54
2, 1180, Control_c, 0, 99, 1
2, 1184, Control_c, 0, 98, 99
2, 1184, Control_c, 0, 6, 62
2, 1188, Control_c, 0, 99, 1
2, 1192, Control_c, 0, 98, 100
2, 1196, Control_c, 0, 6, 60
2, 1200, Control_c, 0, 99, 1
2, 1200, Control_c, 0, 98, 102
2, 1204, Control_c, 0, 6, 70
2, 4848, Note_on_c, 0, 37, 127
2, 4848, Note_on_c, 0, 25, 127
2, 5196, Control_c, 0, 64, 63
2, 5212, Control_c, 0, 64, 127
2, 5536, Note_off_c, 0, 25, 0
2, 5624, Note_off_c, 0, 37, 0
2, 6004, Note_on_c, 0, 71, 127
2, 6016, Note_on_c, 0, 80, 127
2, 6020, Note_on_c, 0, 75, 127
2, 7780, Note_on_c, 0, 68, 127
2, 8212, Note_off_c, 0, 75, 0
2, 8216, Note_on_c, 0, 61, 127
2, 8228, Note_on_c, 0, 77, 127
2, 8348, Note_off_c, 0, 71, 0
2, 8460, Note_off_c, 0, 77, 0
2, 8608, Note_off_c, 0, 68, 0
2, 8612, Note_on_c, 0, 73, 127
2, 8632, Note_on_c, 0, 70, 127
2, 8832, Note_off_c, 0, 61, 0
2, 8884, Note_off_c, 0, 80, 0
2, 8912, Note_off_c, 0, 73, 0
2, 8932, Note_off_c, 0, 70, 0
2, 8932, Note_on_c, 0, 78, 127
2, 8952, Note_on_c, 0, 75, 127
2, 8952, Note_on_c, 0, 66, 127
2, 9168, Note_off_c, 0, 75, 0
2, 9232, Note_off_c, 0, 78, 0
2, 9232, Note_on_c, 0, 80, 127
2, 9244, Note_on_c, 0, 70, 127
2, 9244, Note_on_c, 0, 61, 127
2, 9272, Note_off_c, 0, 66, 0
2, 9360, Note_off_c, 0, 80, 0
2, 9436, Note_off_c, 0, 70, 0
2, 9480, Note_on_c, 0, 78, 127
2, 9488, Note_on_c, 0, 68, 127
2, 9496, Note_on_c, 0, 71, 127
2, 9512, Note_off_c, 0, 61, 0
2, 9680, Note_off_c, 0, 68, 0
2, 9688, Note_off_c, 0, 71, 0
2, 9696, Note_off_c, 0, 78, 0
2, 9740, Note_on_c, 0, 77, 127
2, 9744, Note_on_c, 0, 65, 127
2, 9748, Note_on_c, 0, 73, 127
2, 9780, Note_off_c, 0, 65, 0
2, 9836, Note_off_c, 0, 73, 0
2, 9900, Note_off_c, 0, 77, 0
2, 9976, Note_on_c, 0, 78, 127
2, 9976, Note_on_c, 0, 49, 127
2, 9980, Note_on_c, 0, 68, 127
2, 10068, Note_off_c, 0, 49, 0
2, 10068, Note_off_c, 0, 68, 0
2, 10160, Note_off_c, 0, 78, 0
2, 10224, Note_on_c, 0, 75, 127
2, 10236, Note_on_c, 0, 66, 127
2, 10252, Note_on_c, 0, 70, 127
2, 10320, Control_c, 0, 64, 63
2, 10384, Control_c, 0, 64, 127
2, 10476, Note_on_c, 0, 63, 127
2, 10480, Note_off_c, 0, 66, 0
2, 10484, Note_on_c, 0, 71, 127
2, 10508, Note_off_c, 0, 70, 0
2, 10520, Note_off_c, 0, 63, 0
2, 10696, Note_on_c, 0, 49, 127
2, 10708, Note_off_c, 0, 71, 0
2, 10708, Note_on_c, 0, 77, 127
2, 10724, Note_on_c, 0, 66, 127
2, 10732, Note_off_c, 0, 75, 0
2, 10796, Note_off_c, 0, 49, 0
2, 10832, Note_off_c, 0, 77, 0
2, 10864, Note_off_c, 0, 66, 0
2, 10948, Note_on_c, 0, 75, 127
2, 10952, Note_on_c, 0, 65, 127
2, 10956, Note_on_c, 0, 68, 127
2, 11008, Control_c, 0, 64, 63
2, 11044, Control_c, 0, 64, 127
2, 11188, Note_off_c, 0, 65, 0
2, 11188, Note_on_c, 0, 61, 127
2, 11192, Note_on_c, 0, 73, 127
2, 11192, Note_on_c, 0, 70, 127
2, 11208, Note_off_c, 0, 75, 0
2, 11212, Note_off_c, 0, 68, 0
2, 11228, Note_off_c, 0, 61, 0
2, 11368, Note_off_c, 0, 70, 0
2, 11408, Note_on_c, 0, 75, 127
2, 11408, Note_on_c, 0, 49, 127
2, 11424, Note_off_c, 0, 73, 0
2, 11436, Note_on_c, 0, 65, 127
2, 11512, Note_off_c, 0, 49, 0
2, 11560, Note_off_c, 0, 75, 0
2, 11648, Note_off_c, 0, 65, 0
2, 11648, Note_on_c, 0, 71, 127
2, 11652, Note_on_c, 0, 63, 127
2, 11656, Note_on_c, 0, 66, 127
2, 11680, Control_c, 0, 64, 63
2, 11720, Control_c, 0, 64, 127
2, 11872, Note_off_c, 0, 63, 0
2, 11876, Note_on_c, 0, 75, 127
2, 11888, Note_on_c, 0, 68, 127
2, 11888, Note_on_c, 0, 59, 127
2, 11892, Note_off_c, 0, 71, 0
2, 11904, Note_off_c, 0, 66, 0
2, 11960, Note_off_c, 0, 59, 0
2, 11988, Note_off_c, 0, 75, 0
2, 12124, Note_on_c, 0, 73, 127
2, 12124, Note_on_c, 0, 49, 127
2, 12128, Note_on_c, 0, 63, 127
2, 12136, Note_off_c, 0, 68, 0
2, 12192, Control_c, 0, 64, 63
2, 12228, Control_c, 0, 64, 127
2, 12276, Note_off_c, 0, 73, 0
2, 12284, Note_off_c, 0, 63, 0
2, 12368, Note_on_c, 0, 61, 127
2, 12384, Note_on_c, 0, 71, 127
2, 12392, Note_on_c, 0, 65, 127
2, 12412, Note_off_c, 0, 49, 0
2, 12464, Control_c, 0, 64, 63
2, 12504, Control_c, 0, 64, 127
2, 12624, Note_off_c, 0, 71, 0
2, 12632, Note_off_c, 0, 65, 0
2, 12632, Note_on_c, 0, 70, 127
2, 12644, Note_on_c, 0, 58, 127
2, 12648, Note_on_c, 0, 66, 127
2, 12656, Note_off_c, 0, 61, 0
2, 12700, Note_off_c, 0, 58, 0
2, 12704, Note_off_c, 0, 66, 0
2, 12728, Note_off_c, 0, 70, 0
2, 12920, Note_on_c, 0, 71, 127
2, 12928, Note_on_c, 0, 61, 127
2, 12932, Note_on_c, 0, 37, 127
2, 13000, Note_off_c, 0, 37, 0
2, 13016, Note_off_c, 0, 71, 0
2, 13144, Note_off_c, 0, 61, 0
2, 13216, Note_on_c, 0, 68, 127
2, 13220, Note_on_c, 0, 63, 127
2, 13232, Note_on_c, 0, 59, 127
2, 13240, Control_c, 0, 64, 63
2, 13292, Control_c, 0, 64, 127
2, 13364, Note_off_c, 0, 63, 0
2, 13476, Note_off_c, 0, 68, 0
2, 13560, Note_on_c, 0, 71, 127
2, 13568, Note_on_c, 0, 56, 127
2, 13572, Note_off_c, 0, 59, 0
2, 13584, Note_on_c, 0, 65, 127
2, 13640, Note_off_c, 0, 56, 0
2, 13680, Note_off_c, 0, 65, 0
2, 13684, Note_off_c, 0, 71, 0
2, 14032, Note_on_c, 0, 70, 127
2, 14044, Note_on_c, 0, 37, 127
2, 14052, Note_on_c, 0, 59, 127
2, 14128, Control_c, 0, 64, 63
2, 14156, Control_c, 0, 64, 0
2, 14224, Control_c, 0, 64, 63
2, 14248, Control_c, 0, 64, 127
2, 14292, Note_off_c, 0, 37, 0
2, 14340, Note_off_c, 0, 70, 0
2, 14364, Note_off_c, 0, 59, 0
2, 14976, Control_c, 0, 64, 63
2, 15072, Control_c, 0, 64, 0
2, 15864, Control_c, 0, 67, 127
2, 16364, Control_c, 0, 64, 63
2, 16372, Note_on_c, 0, 42, 127
2, 16384, Control_c, 0, 64, 127
2, 16736, Note_on_c, 0, 49, 127
2, 16856, Note_off_c, 0, 42, 0
2, 16988, Note_off_c, 0, 49, 0
2, 16996, Note_on_c, 0, 56, 127
2, 17204, Note_off_c, 0, 56, 0
2, 17244, Note_on_c, 0, 54, 127
2, 17348, Note_on_c, 0, 56, 127
2, 17384, Note_off_c, 0, 54, 0
2, 17436, Control_c, 0, 64, 63
2, 17468, Control_c, 0, 64, 0
2, 17488, Note_on_c, 0, 58, 127
2, 17496, Note_off_c, 0, 56, 0
2, 17556, Control_c, 0, 64, 63
2, 17572, Control_c, 0, 64, 127
2, 17768, Note_on_c, 0, 49, 127
2, 17876, Note_off_c, 0, 58, 0
2, 18024, Note_on_c, 0, 42, 127
2, 18048, Note_off_c, 0, 49, 0
2, 18180, Control_c, 0, 64, 63
2, 18224, Control_c, 0, 64, 127
2, 18288, Note_on_c, 0, 49, 127
2, 18440, Note_off_c, 0, 42, 0
2, 18540, Note_off_c, 0, 49, 0
2, 18540, Note_on_c, 0, 56, 127
2, 18652, Note_off_c, 0, 56, 0
2, 18792, Note_on_c, 0, 54, 127
2, 18920, Note_on_c, 0, 56, 127
2, 18936, Note_off_c, 0, 54, 0
2, 18948, Control_c, 0, 64, 63
2, 18968, Control_c, 0, 64, 0
2, 19068, Control_c, 0, 64, 63
2, 19068, Note_on_c, 0, 58, 127
2, 19080, Note_off_c, 0, 56, 0
2, 19080, Control_c, 0, 64, 127
2, 19264, Control_c, 0, 64, 63
2, 19284, Control_c, 0, 64, 0
2, 19328, Control_c, 0, 64, 63
2, 19348, Control_c, 0, 64, 127
2, 19384, Note_on_c, 0, 61, 127
2, 19476, Note_off_c, 0, 58, 0
2, 19548, Note_off_c, 0, 61, 0
2, 19768, Note_on_c, 0, 42, 108
2, 20116, Note_on_c, 0, 49, 127
2, 20332, Note_off_c, 0, 42, 0
2, 20400, Note_on_c, 0, 56, 127
2, 20408, Note_off_c, 0, 49, 0
2, 20596, Note_off_c, 0, 56, 0
2, 20640, Note_on_c, 0, 54, 127
2, 20748, Note_off_c, 0, 54, 0
2, 20748, Note_on_c, 0, 56, 127
2, 20860, Note_off_c, 0, 56, 0
2, 20880, Note_on_c, 0, 58, 127
2, 20996, Control_c, 0, 64, 63
2, 21016, Control_c, 0, 64, 0
2, 21104, Control_c, 0, 64, 63
2, 21124, Control_c, 0, 64, 127
2, 21148, Note_on_c, 0, 49, 127
2, 21224, Note_off_c, 0, 58, 0
2, 21392, Note_on_c, 0, 42, 127
2, 21416, Note_off_c, 0, 49, 0
2, 21512, Control_c, 0, 64, 63
2, 21532, Control_c, 0, 64, 0
2, 21608, Control_c, 0, 64, 63
2, 21624, Control_c, 0, 64, 127
2, 21652, Note_on_c, 0, 49, 127
2, 21756, Note_off_c, 0, 42, 0
2, 21892, Note_off_c, 0, 49, 0
2, 21896, Note_on_c, 0, 56, 127
2, 21992, Note_off_c, 0, 56, 0
2, 22152, Note_on_c, 0, 54, 127
2, 22272, Note_on_c, 0, 56, 127
2, 22288, Note_off_c, 0, 54, 0
2, 22344, Control_c, 0, 64, 63
2, 22364, Control_c, 0, 64, 0
2, 22432, Note_on_c, 0, 58, 127
2, 22448, Note_off_c, 0, 56, 0
2, 22468, Control_c, 0, 64, 63
2, 22484, Control_c, 0, 64, 127
2, 22660, Control_c, 0, 64, 63
2, 22680, Control_c, 0, 64, 127
2, 22720, Note_on_c, 0, 61, 127
2, 22744, Note_off_c, 0, 58, 0
2, 22832, Note_off_c, 0, 61, 0
2, 23044, Note_on_c, 0, 42, 127
2, 23392, Note_off_c, 0, 42, 0
2, 23400, Note_on_c, 0, 49, 127
2, 23560, Note_off_c, 0, 49, 0
2, 23656, Note_on_c, 0, 56, 127
2, 23736, Note_off_c, 0, 56, 0
2, 23904, Note_on_c, 0, 54, 127
2, 23936, Note_on_c, 0, 73, 127
2, 23944, Note_on_c, 0, 70, 127
2, 24060, Control_c, 0, 64, 63
2, 24076, Note_off_c, 0, 54, 0
2, 24080, Control_c, 0, 64, 0
2, 24080, Note_on_c, 0, 56, 127
2, 24168, Control_c, 0, 64, 63
2, 24184, Control_c, 0, 64, 127
2, 24216, Note_off_c, 0, 56, 0
2, 24224, Note_on_c, 0, 58, 127
2, 24348, Note_off_c, 0, 58, 0
2, 24520, Note_on_c, 0, 49, 127
2, 24756, Note_on_c, 0, 42, 127
2, 24784, Control_c, 0, 64, 63
2, 24796, Control_c, 0, 64, 0
2, 24840, Note_off_c, 0, 49, 0
2, 24868, Control_c, 0, 64, 63
2, 24884, Control_c, 0, 64, 127
2, 25088, Note_off_c, 0, 70, 0
2, 25116, Note_on_c, 0, 49, 127
2, 25128, Note_on_c, 0, 72, 127
2, 25140, Note_on_c, 0, 69, 127
2, 25148, Note_off_c, 0, 73, 0
2, 25208, Note_off_c, 0, 42, 0
2, 25364, Note_off_c, 0, 49, 0
2, 25364, Note_off_c, 0, 72, 0
2, 25392, Note_off_c, 0, 69, 0
2, 25396, Note_on_c, 0, 73, 127
2, 25396, Note_on_c, 0, 70, 127
2, 25408, Note_on_c, 0, 56, 127
2, 25440, Note_off_c, 0, 70, 0
2, 25460, Note_off_c, 0, 73, 0
2, 25476, Note_off_c, 0, 56, 0
2, 25644, Note_on_c, 0, 77, 127
2, 25648, Note_on_c, 0, 54, 127
2, 25656, Note_on_c, 0, 71, 127
2, 25692, Note_on_c, 0, 75, 127
2, 25724, Note_off_c, 0, 77, 0
2, 25768, Control_c, 0, 64, 63
2, 25772, Note_on_c, 0, 56, 127
2, 25784, Control_c, 0, 64, 0
2, 25792, Note_off_c, 0, 54, 0
2, 25872, Control_c, 0, 64, 63
2, 25888, Control_c, 0, 64, 127
2, 25900, Note_on_c, 0, 73, 127
2, 25912, Note_off_c, 0, 71, 0
2, 25916, Note_on_c, 0, 70, 127
2, 25928, Note_on_c, 0, 58, 127
2, 25936, Note_off_c, 0, 75, 0
2, 25936, Note_off_c, 0, 56, 0
2, 26036, Note_off_c, 0, 70, 0
2, 26112, Note_off_c, 0, 58, 0
2, 26136, Note_on_c, 0, 61, 127
2, 26144, Note_on_c, 0, 70, 127
2, 26148, Note_on_c, 0, 66, 127
2, 26160, Note_off_c, 0, 73, 0
2, 26176, Note_off_c, 0, 61, 0
2, 26404, Note_on_c, 0, 42, 127
2, 26408, Note_on_c, 0, 78, 127
2, 26420, Note_on_c, 0, 75, 127
2, 26480, Control_c, 0, 64, 63
2, 26488, Control_c, 0, 64, 0
2, 26588, Control_c, 0, 64, 63
2, 26596, Note_off_c, 0, 70, 0
2, 26600, Control_c, 0, 64, 127
2, 26620, Note_off_c, 0, 66, 0
2, 26680, Note_off_c, 0, 78, 0
2, 26680, Note_on_c, 0, 70, 127
2, 26684, Note_on_c, 0, 49, 127
2, 26688, Note_on_c, 0, 66, 127
2, 26720, Note_off_c, 0, 75, 0
2, 26796, Note_off_c, 0, 42, 0
2, 26828, Note_off_c, 0, 70, 0
2, 26896, Note_off_c, 0, 49, 0
2, 26904, Note_on_c, 0, 75, 127
2, 26912, Note_off_c, 0, 66, 0
2, 26920, Note_on_c, 0, 71, 127
2, 26932, Note_on_c, 0, 53, 127
2, 26980, Note_off_c, 0, 71, 0
2, 27008, Note_off_c, 0, 75, 0
2, 27148, Note_off_c, 0, 53, 0
2, 27160, Note_on_c, 0, 54, 127
2, 27164, Note_on_c, 0, 73, 127
2, 27164, Note_on_c, 0, 70, 127
2, 27264, Note_on_c, 0, 56, 127
2, 27292, Note_off_c, 0, 54, 0
2, 27292, Control_c, 0, 64, 63
2, 27312, Control_c, 0, 64, 0
2, 27400, Note_on_c, 0, 66, 127
2, 27412, Note_off_c, 0, 56, 0
2, 27412, Note_on_c, 0, 61, 127
2, 27424, Control_c, 0, 64, 63
2, 27428, Note_on_c, 0, 58, 127
2, 27436, Control_c, 0, 64, 127
2, 27456, Note_off_c, 0, 70, 0
2, 27504, Note_off_c, 0, 73, 0
2, 27600, Note_off_c, 0, 58, 0
2, 27652, Note_off_c, 0, 61, 0
2, 27692, Note_on_c, 0, 71, 127
2, 27692, Note_on_c, 0, 49, 127
2, 27696, Note_off_c, 0, 66, 0
2, 27696, Note_on_c, 0, 68, 127
2, 27932, Note_off_c, 0, 71, 0
2, 28008, Note_on_c, 0, 42, 127
2, 28012, Note_off_c, 0, 49, 0
2, 28016, Note_off_c, 0, 68, 0
2, 28040, Note_on_c, 0, 70, 127
2, 28060, Note_on_c, 0, 66, 127
2, 28188, Control_c, 0, 64, 63
2, 28200, Control_c, 0, 64, 0
2, 28316, Control_c, 0, 64, 63
2, 28328, Control_c, 0, 64, 127
2, 28404, Note_on_c, 0, 49, 127
2, 28568, Note_off_c, 0, 42, 0
2, 28648, Note_on_c, 0, 56, 127
2, 28660, Note_off_c, 0, 49, 0
2, 28880, Note_off_c, 0, 56, 0
2, 28932, Note_on_c, 0, 54, 127
2, 28960, Note_on_c, 0, 64, 127
2, 29084, Note_on_c, 0, 56, 127
2, 29120, Note_off_c, 0, 54, 0
2, 29200, Note_on_c, 0, 58, 127
2, 29248, Note_off_c, 0, 56, 0
2, 29344, Note_off_c, 0, 64, 0
2, 29384, Note_off_c, 0, 66, 0
2, 29416, Note_off_c, 0, 70, 0
2, 29484, Note_on_c, 0, 61, 127
2, 29488, Note_off_c, 0, 58, 0
2, 29540, Note_off_c, 0, 61, 0
2, 29852, Note_on_c, 0, 42, 127
2, 29928, Note_on_c, 0, 63, 127
2, 29944, Control_c, 0, 64, 63
2, 29952, Control_c, 0, 64, 0
2, 30024, Note_on_c, 0, 71, 127
2, 30036, Control_c, 0, 64, 63
2, 30044, Control_c, 0, 64, 127
2, 30100, Note_off_c, 0, 63, 0
2, 30192, Note_on_c, 0, 78, 127
2, 30224, Note_off_c, 0, 71, 0
2, 30516, Note_off_c, 0, 42, 0
2, 30524, Note_on_c, 0, 54, 127
2, 30584, Note_off_c, 0, 54, 0
2, 30624, Note_off_c, 0, 78, 0
2, 30768, Note_on_c, 0, 61, 127
2, 30872, Note_on_c, 0, 66, 127
2, 31012, Note_off_c, 0, 61, 0
2, 31020, Note_on_c, 0, 59, 127
2, 31024, Note_on_c, 0, 78, 127
2, 31032, Note_on_c, 0, 75, 127
2, 31096, Control_c, 0, 64, 63
2, 31104, Control_c, 0, 64, 0
2, 31164, Note_on_c, 0, 61, 127
2, 31176, Control_c, 0, 64, 63
2, 31188, Control_c, 0, 64, 127
2, 31220, Note_off_c, 0, 59, 0
2, 31292, Note_on_c, 0, 63, 127
2, 31304, Note_off_c, 0, 61, 0
2, 31368, Note_off_c, 0, 63, 0
2, 31456, Note_off_c, 0, 66, 0
2, 31548, Note_on_c, 0, 54, 127
2, 31600, Note_off_c, 0, 54, 0
2, 31784, Note_on_c, 0, 42, 127
2, 31832, Note_off_c, 0, 75, 0
2, 31844, Note_off_c, 0, 78, 0
2, 32016, Note_on_c, 0, 77, 127
2, 32028, Note_on_c, 0, 74, 127
2, 32032, Note_on_c, 0, 54, 127
2, 32056, Note_off_c, 0, 42, 0
2, 32100, Note_off_c, 0, 54, 0
2, 32212, Note_off_c, 0, 77, 0
2, 32212, Note_off_c, 0, 74, 0
2, 32252, Note_on_c, 0, 78, 127
2, 32260, Note_on_c, 0, 75, 127
2, 32264, Note_on_c, 0, 61, 127
2, 32448, Note_off_c, 0, 75, 0
2, 32464, Note_off_c, 0, 78, 0
2, 32508, Note_on_c, 0, 77, 127
2, 32512, Note_off_c, 0, 61, 0
2, 32516, Note_on_c, 0, 80, 127
2, 32516, Note_on_c, 0, 59, 127
2, 32584, Control_c, 0, 64, 63
2, 32600, Control_c, 0, 64, 0
2, 32624, Note_on_c, 0, 61, 127
2, 32704, Control_c, 0, 64, 63
2, 32716, Control_c, 0, 64, 127
2, 32768, Note_on_c, 0, 78, 127
2, 32772, Note_on_c, 0, 75, 127
2, 32784, Note_on_c, 0, 63, 127
2, 32796, Note_off_c, 0, 59, 0
2, 32808, Note_off_c, 0, 80, 0
2, 32816, Note_off_c, 0, 77, 0
2, 32844, Note_off_c, 0, 61, 0
2, 32960, Note_off_c, 0, 75, 0
2, 33032, Note_off_c, 0, 63, 0
2, 33040, Note_on_c, 0, 75, 127
2, 33048, Note_on_c, 0, 66, 127
2, 33052, Note_on_c, 0, 71, 127
2, 33072, Note_off_c, 0, 78, 0
2, 33096, Note_off_c, 0, 66, 0
2, 33376, Note_off_c, 0, 71, 0
2, 33384, Note_on_c, 0, 42, 127
2, 33408, Note_on_c, 0, 80, 127
2, 33408, Note_on_c, 0, 83, 127
2, 33480, Control_c, 0, 64, 63
2, 33492, Control_c, 0, 64, 0
2, 33524, Control_c, 0, 64, 63
2, 33544, Control_c, 0, 64, 127
2, 33636, Note_off_c, 0, 83, 0
2, 33680, Note_off_c, 0, 75, 0
2, 33688, Note_off_c, 0, 80, 0
2, 33736, Note_off_c, 0, 42, 0
2, 33736, Note_on_c, 0, 54, 127
2, 33736, Note_on_c, 0, 75, 127
2, 33744, Note_on_c, 0, 71, 127
2, 33800, Note_off_c, 0, 54, 0
2, 33872, Note_off_c, 0, 71, 0
2, 33936, Note_off_c, 0, 75, 0
2, 33976, Note_on_c, 0, 77, 127
2, 33984, Note_on_c, 0, 61, 127
2, 33984, Note_on_c, 0, 73, 127
2, 34160, Note_off_c, 0, 73, 0
2, 34164, Note_off_c, 0, 77, 0
2, 34196, Note_off_c, 0, 61, 0
2, 34220, Note_on_c, 0, 75, 127
2, 34224, Note_on_c, 0, 78, 127
2, 34228, Note_on_c, 0, 59, 127
2, 34240, Control_c, 0, 64, 63
2, 34252, Control_c, 0, 64, 0
2, 34272, Control_c, 0, 64, 63
2, 34296, Control_c, 0, 64, 127
2, 34332, Note_on_c, 0, 61, 127
2, 34340, Note_off_c, 0, 59, 0
2, 34412, Note_off_c, 0, 78, 0
2, 34444, Note_off_c, 0, 75, 0
2, 34452, Note_off_c, 0, 61, 0
2, 34460, Note_on_c, 0, 71, 127
2, 34468, Note_on_c, 0, 66, 127
2, 34476, Note_on_c, 0, 63, 127
2, 34540, Note_off_c, 0, 63, 0
2, 34548, Note_off_c, 0, 66, 0
2, 34656, Note_off_c, 0, 71, 0
2, 34712, Note_on_c, 0, 72, 127
2, 34720, Note_on_c, 0, 54, 127
2, 34720, Note_on_c, 0, 69, 127
2, 34764, Note_off_c, 0, 54, 0
2, 34864, Note_off_c, 0, 69, 0
2, 34968, Note_off_c, 0, 72, 0
2, 35000, Note_on_c, 0, 42, 127
2, 35000, Note_on_c, 0, 71, 127
2, 35004, Note_on_c, 0, 75, 127
2, 35008, Control_c, 0, 64, 63
2, 35016, Control_c, 0, 64, 0
2, 35080, Control_c, 0, 64, 63
2, 35100, Control_c, 0, 64, 127
2, 35180, Note_off_c, 0, 71, 0
2, 35304, Note_off_c, 0, 75, 0
2, 35312, Note_on_c, 0, 73, 127
2, 35316, Note_on_c, 0, 70, 127
2, 35320, Note_on_c, 0, 49, 127
2, 35496, Note_off_c, 0, 70, 0
2, 35624, Note_on_c, 0, 56, 127
2, 35632, Note_on_c, 0, 61, 127
2, 35684, Note_off_c, 0, 42, 0
2, 35692, Note_off_c, 0, 49, 0
2, 35908, Note_off_c, 0, 56, 0
2, 35912, Note_off_c, 0, 73, 0
2, 35932, Note_on_c, 0, 70, 127
2, 35940, Note_on_c, 0, 54, 127
2, 35952, Note_on_c, 0, 66, 127
2, 36012, Control_c, 0, 64, 63
2, 36032, Control_c, 0, 64, 0
2, 36052, Note_on_c, 0, 56, 127
2, 36052, Control_c, 0, 64, 63
2, 36088, Note_off_c, 0, 54, 0
2, 36096, Control_c, 0, 64, 127
2, 36128, Note_off_c, 0, 61, 0
2, 36216, Note_off_c, 0, 56, 0
2, 36220, Note_on_c, 0, 58, 127
2, 36340, Note_off_c, 0, 66, 0
2, 36364, Note_off_c, 0, 58, 0
2, 36636, Note_on_c, 0, 68, 127
2, 36648, Note_on_c, 0, 62, 127
2, 36652, Note_on_c, 0, 41, 127
2, 36696, Control_c, 0, 64, 63
2, 36744, Control_c, 0, 64, 127
2, 36844, Note_off_c, 0, 62, 0
2, 36872, Note_off_c, 0, 41, 0
2, 36924, Note_off_c, 0, 68, 0
2, 36936, Note_off_c, 0, 70, 0
2, 37144, Note_on_c, 0, 39, 127
2, 37180, Control_c, 0, 64, 63
2, 37192, Note_on_c, 0, 63, 127
2, 37192, Control_c, 0, 64, 0
2, 37200, Note_on_c, 0, 70, 127
2, 37212, Note_on_c, 0, 66, 127
2, 37224, Control_c, 0, 64, 63
2, 37248, Control_c, 0, 64, 127
2, 37272, Note_off_c, 0, 63, 0
2, 37296, Note_off_c, 0, 66, 0
2, 37364, Note_off_c, 0, 70, 0
2, 37384, Note_on_c, 0, 78, 127
2, 37780, Note_on_c, 0, 46, 127
2, 37808, Note_off_c, 0, 39, 0
2, 37864, Note_off_c, 0, 78, 0
2, 37996, Note_off_c, 0, 46, 0
2, 38060, Note_on_c, 0, 56, 127
2, 38152, Note_off_c, 0, 56, 0
2, 38304, Note_on_c, 0, 54, 127
2, 38352, Note_on_c, 0, 78, 127
2, 38364, Note_on_c, 0, 70, 127
2, 38472, Note_off_c, 0, 54, 0
2, 38476, Note_on_c, 0, 56, 127
2, 38572, Note_off_c, 0, 56, 0
2, 38600, Note_on_c, 0, 58, 127
2, 38640, Note_off_c, 0, 58, 0
2, 38856, Note_on_c, 0, 46, 127
2, 39028, Note_off_c, 0, 70, 0
2, 39032, Note_on_c, 0, 39, 127
2, 39040, Note_off_c, 0, 78, 0
2, 39088, Control_c, 0, 64, 63
2, 39108, Note_on_c, 0, 78, 127
2, 39108, Note_on_c, 0, 70, 127
2, 39144, Control_c, 0, 64, 127
2, 39160, Note_off_c, 0, 46, 0
2, 39220, Note_off_c, 0, 70, 0
2, 39264, Note_off_c, 0, 78, 0
2, 39312, Note_on_c, 0, 80, 127
2, 39320, Note_on_c, 0, 71, 127
2, 39360, Note_off_c, 0, 71, 0
2, 39368, Note_off_c, 0, 39, 0
2, 39368, Note_on_c, 0, 46, 127
2, 39392, Note_off_c, 0, 80, 0
2, 39404, Note_on_c, 0, 78, 127
2, 39420, Note_on_c, 0, 70, 127
2, 39456, Note_off_c, 0, 46, 0
2, 39472, Note_off_c, 0, 70, 0
2, 39480, Note_off_c, 0, 78, 0
2, 39660, Note_on_c, 0, 77, 127
2, 39664, Note_on_c, 0, 56, 127
2, 39668, Note_on_c, 0, 68, 127
2, 39712, Note_off_c, 0, 68, 0
2, 39720, Note_off_c, 0, 77, 0
2, 39728, Note_off_c, 0, 56, 0
2, 39896, Note_on_c, 0, 77, 127
2, 39904, Control_c, 0, 64, 63
2, 39904, Note_on_c, 0, 68, 127
2, 39908, Note_on_c, 0, 50, 127
2, 39956, Note_off_c, 0, 77, 0
2, 39960, Control_c, 0, 64, 127
2, 39972, Note_off_c, 0, 68, 0
2, 40100, Note_on_c, 0, 78, 127
2, 40104, Note_off_c, 0, 50, 0
2, 40104, Note_on_c, 0, 70, 127
2, 40120, Note_on_c, 0, 59, 127
2, 40144, Note_off_c, 0, 70, 0
2, 40152, Note_off_c, 0, 78, 0
2, 40188, Note_on_c, 0, 77, 127
2, 40192, Note_on_c, 0, 68, 127
2, 40200, Note_on_c, 0, 58, 127
2, 40204, Note_off_c, 0, 59, 0
2, 40232, Note_off_c, 0, 68, 0
2, 40240, Note_off_c, 0, 77, 0
2, 40240, Note_off_c, 0, 58, 0
2, 40464, Note_on_c, 0, 46, 127
2, 40472, Note_on_c, 0, 75, 127
2, 40480, Note_on_c, 0, 66, 127
2, 40728, Note_off_c, 0, 66, 0
2, 40736, Note_off_c, 0, 75, 0
2, 40736, Note_on_c, 0, 39, 127
2, 40812, Note_off_c, 0, 46, 0
2, 40836, Note_on_c, 0, 75, 127
2, 40848, Note_on_c, 0, 66, 127
2, 40888, Control_c, 0, 64, 63
2, 40896, Control_c, 0, 64, 0
2, 40984, Control_c, 0, 64, 63
2, 40992, Control_c, 0, 64, 127
2, 41136, Note_off_c, 0, 66, 0
2, 41188, Note_on_c, 0, 46, 127
2, 41200, Note_on_c, 0, 65, 127
2, 41204, Note_off_c, 0, 39, 0
2, 41408, Note_off_c, 0, 65, 0
2, 41444, Note_off_c, 0, 46, 0
2, 41468, Note_on_c, 0, 56, 127
2, 41560, Note_off_c, 0, 56, 0
2, 41568, Note_off_c, 0, 75, 0
2, 41580, Note_on_c, 0, 63, 127
2, 41632, Note_off_c, 0, 63, 0
2, 41668, Note_on_c, 0, 54, 127
2, 41688, Note_on_c, 0, 70, 127
2, 41696, Note_on_c, 0, 63, 127
2, 41752, Control_c, 0, 64, 63
2, 41760, Control_c, 0, 64, 0
2, 41800, Note_on_c, 0, 56, 127
2, 41844, Control_c, 0, 64, 63
2, 41856, Control_c, 0, 64, 127
2, 41864, Note_off_c, 0, 54, 0
2, 41908, Note_on_c, 0, 58, 127
2, 41912, Note_off_c, 0, 63, 0
2, 41920, Note_off_c, 0, 56, 0
2, 41980, Note_off_c, 0, 58, 0
2, 42160, Note_on_c, 0, 59, 127
2, 42164, Note_on_c, 0, 46, 127
2, 42240, Note_off_c, 0, 59, 0
2, 42424, Note_on_c, 0, 39, 127
2, 42444, Note_on_c, 0, 58, 127
2, 42488, Note_off_c, 0, 46, 0
2, 42500, Control_c, 0, 64, 63
2, 42512, Control_c, 0, 64, 0
2, 42632, Control_c, 0, 64, 63
2, 42644, Control_c, 0, 64, 127
2, 42752, Note_on_c, 0, 46, 127
2, 42796, Note_off_c, 0, 39, 0
2, 42960, Note_off_c, 0, 58, 0
2, 42972, Note_off_c, 0, 46, 0
2, 42976, Note_off_c, 0, 70, 0
2, 43000, Note_on_c, 0, 54, 127
2, 43080, Note_off_c, 0, 54, 0
2, 43096, Note_on_c, 0, 46, 76
2, 43236, Note_on_c, 0, 39, 127
2, 43240, Note_off_c, 0, 46, 0
2, 43240, Control_c, 0, 64, 63
2, 43244, Note_on_c, 0, 68, 127
2, 43256, Note_on_c, 0, 60, 127
2, 43256, Control_c, 0, 64, 0
2, 43292, Control_c, 0, 64, 63
2, 43320, Control_c, 0, 64, 127
2, 43408, Note_off_c, 0, 60, 0
2, 43424, Note_off_c, 0, 68, 0
2, 43436, Note_on_c, 0, 70, 127
2, 43484, Note_off_c, 0, 70, 0
2, 43536, Note_on_c, 0, 44, 127
2, 43540, Note_off_c, 0, 39, 0
2, 43548, Note_on_c, 0, 68, 127
2, 43612, Note_on_c, 0, 70, 127
2, 43620, Note_off_c, 0, 68, 0
2, 43672, Note_off_c, 0, 70, 0
2, 43672, Note_on_c, 0, 68, 127
2, 43712, Note_on_c, 0, 70, 127
2, 43724, Note_off_c, 0, 68, 0
2, 43760, Note_off_c, 0, 70, 0
2, 43764, Note_on_c, 0, 68, 127
2, 43812, Note_on_c, 0, 54, 127
2, 43820, Note_off_c, 0, 68, 0
2, 43820, Note_on_c, 0, 67, 127
2, 43876, Note_on_c, 0, 68, 127
2, 43896, Note_off_c, 0, 67, 0
2, 43928, Note_off_c, 0, 54, 0
2, 43964, Note_on_c, 0, 72, 127
2, 43988, Note_off_c, 0, 68, 0
2, 44076, Note_off_c, 0, 72, 0
2, 44080, Note_on_c, 0, 70, 127
2, 44196, Note_off_c, 0, 70, 0
2, 44236, Note_off_c, 0, 44, 0
2, 44256, Note_on_c, 0, 41, 127
2, 44280, Note_on_c, 0, 68, 127
2, 44284, Control_c, 0, 64, 63
2, 44288, Note_on_c, 0, 61, 127
2, 44296, Control_c, 0, 64, 0
2, 44416, Control_c, 0, 64, 63
2, 44428, Control_c, 0, 64, 127
2, 44660, Note_on_c, 0, 49, 127
2, 44692, Note_off_c, 0, 41, 0
2, 44856, Note_off_c, 0, 61, 0
2, 44888, Note_off_c, 0, 49, 0
2, 44964, Note_on_c, 0, 56, 127
2, 44984, Note_on_c, 0, 73, 127
2, 45012, Note_off_c, 0, 68, 0
2, 45160, Note_off_c, 0, 56, 0
2, 45188, Note_off_c, 0, 73, 0
2, 45288, Note_on_c, 0, 42, 127
2, 45360, Note_on_c, 0, 73, 127
2, 45376, Note_on_c, 0, 70, 127
2, 45392, Control_c, 0, 64, 63
2, 45420, Control_c, 0, 64, 0
2, 45472, Control_c, 0, 64, 63
2, 45488, Control_c, 0, 64, 127
2, 45652, Note_on_c, 0, 49, 127
2, 45664, Note_off_c, 0, 42, 0
2, 45728, Note_off_c, 0, 49, 0
2, 45752, Note_off_c, 0, 73, 0
2, 45780, Note_off_c, 0, 70, 0
2, 45892, Note_on_c, 0, 73, 127
2, 45892, Note_on_c, 0, 61, 127
2, 45952, Note_off_c, 0, 61, 0
2, 46060, Note_off_c, 0, 73, 0
2, 46156, Note_on_c, 0, 44, 127
2, 46164, Note_on_c, 0, 73, 127
2, 46180, Note_on_c, 0, 65, 127
2, 46208, Control_c, 0, 64, 63
2, 46228, Control_c, 0, 64, 0
2, 46244, Control_c, 0, 64, 63
2, 46272, Control_c, 0, 64, 127
2, 46408, Note_on_c, 0, 49, 127
2, 46440, Note_off_c, 0, 44, 0
2, 46448, Note_off_c, 0, 73, 0
2, 46500, Note_off_c, 0, 49, 0
2, 46524, Note_off_c, 0, 65, 0
2, 46648, Note_on_c, 0, 61, 127
2, 46652, Note_on_c, 0, 73, 127
2, 46724, Note_off_c, 0, 61, 0
2, 46724, Note_off_c, 0, 73, 0
2, 46876, Note_on_c, 0, 46, 127
2, 46892, Note_on_c, 0, 73, 127
2, 46896, Note_on_c, 0, 66, 127
2, 46904, Control_c, 0, 64, 63
2, 46956, Control_c, 0, 64, 127
2, 47024, Note_off_c, 0, 66, 0
2, 47068, Note_on_c, 0, 75, 127
2, 47072, Note_off_c, 0, 73, 0
2, 47136, Note_off_c, 0, 75, 0
2, 47144, Note_on_c, 0, 49, 127
2, 47152, Note_on_c, 0, 73, 127
2, 47184, Note_on_c, 0, 75, 127
2, 47192, Note_off_c, 0, 73, 0
2, 47196, Note_off_c, 0, 46, 0
2, 47232, Note_off_c, 0, 75, 0
2, 47236, Note_on_c, 0, 73, 127
2, 47296, Note_off_c, 0, 73, 0
2, 47296, Note_on_c, 0, 72, 127
2, 47352, Note_on_c, 0, 73, 127
2, 47376, Note_off_c, 0, 72, 0
2, 47464, Note_on_c, 0, 80, 127
2, 47484, Note_on_c, 0, 61, 127
2, 47500, Note_off_c, 0, 73, 0
2, 47560, Note_off_c, 0, 61, 0
2, 47576, Note_off_c, 0, 49, 0
2, 47584, Note_on_c, 0, 78, 127
2, 47632, Note_off_c, 0, 80, 0
2, 47712, Note_off_c, 0, 78, 0
2, 47764, Note_on_c, 0, 44, 127
2, 47772, Note_on_c, 0, 78, 127
2, 47784, Note_on_c, 0, 68, 127
2, 47816, Control_c, 0, 64, 63
2, 47824, Control_c, 0, 64, 0
2, 47912, Control_c, 0, 64, 63
2, 47920, Control_c, 0, 64, 127
2, 48060, Note_off_c, 0, 78, 0
2, 48084, Note_on_c, 0, 77, 127
2, 48088, Note_off_c, 0, 68, 0
2, 48092, Note_on_c, 0, 49, 127
2, 48112, Note_off_c, 0, 44, 0
2, 48144, Note_off_c, 0, 49, 0
2, 48272, Note_off_c, 0, 77, 0
2, 48312, Note_on_c, 0, 75, 127
2, 48316, Note_on_c, 0, 61, 127
2, 48364, Note_off_c, 0, 61, 0
2, 48416, Note_off_c, 0, 75, 0
2, 48552, Note_on_c, 0, 42, 127
2, 48556, Note_on_c, 0, 77, 127
2, 48564, Note_on_c, 0, 70, 127
2, 48624, Control_c, 0, 64, 63
2, 48632, Control_c, 0, 64, 0
2, 48720, Control_c, 0, 64, 63
2, 48732, Control_c, 0, 64, 127
2, 48832, Note_off_c, 0, 77, 0
2, 48852, Note_on_c, 0, 75, 127
2, 48872, Note_on_c, 0, 49, 127
2, 48908, Note_off_c, 0, 42, 0
2, 48952, Note_off_c, 0, 49, 0
2, 48988, Note_off_c, 0, 70, 0
2, 49128, Note_on_c, 0, 61, 127
2, 49148, Note_off_c, 0, 75, 0
2, 49200, Note_off_c, 0, 61, 0
2, 49232, Note_on_c, 0, 77, 127
2, 49304, Note_off_c, 0, 77, 0
2, 49384, Note_on_c, 0, 44, 127
2, 49400, Note_on_c, 0, 73, 127
2, 49404, Note_on_c, 0, 65, 127
2, 49472, Control_c, 0, 64, 63
2, 49484, Control_c, 0, 64, 0
2, 49580, Control_c, 0, 64, 63
2, 49588, Control_c, 0, 64, 127
2, 49660, Note_on_c, 0, 49, 127
2, 49676, Note_off_c, 0, 65, 0
2, 49680, Note_off_c, 0, 44, 0
2, 49744, Note_off_c, 0, 73, 0
2, 49944, Note_on_c, 0, 73, 127
2, 49952, Note_on_c, 0, 61, 127
2, 50008, Note_off_c, 0, 61, 0
2, 50016, Note_off_c, 0, 73, 0
2, 50216, Note_on_c, 0, 46, 127
2, 50224, Control_c, 0, 64, 63
2, 50232, Control_c, 0, 64, 0
2, 50240, Note_on_c, 0, 73, 127
2, 50244, Note_on_c, 0, 66, 127
2, 50264, Note_off_c, 0, 49, 0
2, 50300, Control_c, 0, 64, 63
2, 50312, Control_c, 0, 64, 127
2, 50344, Note_off_c, 0, 66, 0
2, 50372, Note_on_c, 0, 75, 127
2, 50376, Note_off_c, 0, 73, 0
2, 50436, Note_off_c, 0, 75, 0
2, 50440, Note_on_c, 0, 73, 127
2, 50476, Note_on_c, 0, 75, 127
2, 50492, Note_off_c, 0, 73, 0
2, 50520, Note_off_c, 0, 75, 0
2, 50524, Note_on_c, 0, 73, 127
2, 50592, Note_on_c, 0, 72, 127
2, 50600, Note_off_c, 0, 73, 0
2, 50656, Note_on_c, 0, 49, 127
2, 50680, Note_on_c, 0, 73, 127
2, 50704, Note_off_c, 0, 72, 0
2, 50852, Note_on_c, 0, 75, 127
2, 50884, Note_off_c, 0, 73, 0
2, 50896, Note_off_c, 0, 46, 0
2, 51040, Note_off_c, 0, 75, 0
2, 51040, Note_on_c, 0, 61, 127
2, 51056, Note_on_c, 0, 77, 127
2, 51152, Control_c, 0, 67, 0
2, 51200, Note_off_c, 0, 61, 0
2, 51248, Note_off_c, 0, 77, 0
2, 51296, Note_on_c, 0, 78, 127
2, 51384, Note_off_c, 0, 78, 0
2, 51644, Note_on_c, 0, 44, 127
2, 51648, Note_off_c, 0, 49, 0
2, 51688, Control_c, 0, 64, 63
2, 51696, Control_c, 0, 64, 0
2, 51700, Note_on_c, 0, 65, 127
2, 51760, Control_c, 0, 64, 63
2, 51772, Control_c, 0, 64, 127
2, 51820, Note_on_c, 0, 73, 127
2, 51848, Note_off_c, 0, 65, 0
2, 51980, Note_off_c, 0, 44, 0
2, 52012, Note_on_c, 0, 80, 127
2, 52016, Note_off_c, 0, 73, 0
2, 52340, Note_on_c, 0, 56, 127
2, 52360, Note_off_c, 0, 80, 0
2, 52624, Note_on_c, 0, 61, 127
2, 52948, Note_on_c, 0, 68, 127
2, 52972, Note_on_c, 0, 85, 127
2, 52988, Note_on_c, 0, 77, 127
2, 53028, Note_off_c, 0, 61, 0
2, 53204, Note_off_c, 0, 77, 0
2, 53216, Note_off_c, 0, 68, 0
2, 53360, Note_on_c, 0, 61, 127
2, 53384, Note_off_c, 0, 85, 0
2, 53392, Note_off_c, 0, 56, 0
2, 53476, Note_off_c, 0, 61, 0
2, 53700, Note_on_c, 0, 56, 127
2, 53760, Note_off_c, 0, 56, 0
2, 54052, Note_on_c, 0, 32, 127
2, 54084, Note_on_c, 0, 84, 127
2, 54088, Note_on_c, 0, 75, 127
2, 54128, Control_c, 0, 64, 63
2, 54148, Control_c, 0, 64, 0
2, 54156, Control_c, 0, 64, 63
2, 54184, Control_c, 0, 64, 127
2, 54280, Note_off_c, 0, 84, 0
2, 54360, Note_on_c, 0, 80, 127
2, 54368, Note_on_c, 0, 72, 127
2, 54376, Note_off_c, 0, 75, 0
2, 54420, Note_off_c, 0, 72, 0
2, 54452, Note_off_c, 0, 80, 0
2, 54560, Note_on_c, 0, 82, 127
2, 54560, Note_on_c, 0, 44, 127
2, 54564, Note_off_c, 0, 32, 0
2, 54568, Note_on_c, 0, 73, 127
2, 54596, Note_off_c, 0, 82, 0
2, 54608, Note_off_c, 0, 44, 0
2, 54664, Note_off_c, 0, 73, 0
2, 54688, Note_on_c, 0, 70, 127
2, 54692, Note_on_c, 0, 78, 127
2, 54760, Note_off_c, 0, 70, 0
2, 54776, Note_off_c, 0, 78, 0
2, 54824, Note_on_c, 0, 54, 127
2, 54828, Note_on_c, 0, 80, 127
2, 54860, Note_on_c, 0, 72, 127
2, 54944, Note_off_c, 0, 80, 0
2, 54968, Note_on_c, 0, 68, 127
2, 54992, Note_on_c, 0, 77, 127
2, 55016, Note_off_c, 0, 72, 0
2, 55060, Note_off_c, 0, 68, 0
2, 55060, Note_off_c, 0, 77, 0
2, 55136, Note_on_c, 0, 78, 127
2, 55140, Note_on_c, 0, 60, 127
2, 55144, Note_off_c, 0, 54, 0
2, 55152, Note_on_c, 0, 70, 127
2, 55204, Note_off_c, 0, 70, 0
2, 55232, Note_off_c, 0, 78, 0
2, 55276, Note_on_c, 0, 66, 127
2, 55284, Note_on_c, 0, 75, 127
2, 55292, Note_off_c, 0, 60, 0
2, 55368, Note_off_c, 0, 66, 0
2, 55384, Note_off_c, 0, 75, 0
2, 55436, Note_on_c, 0, 56, 127
2, 55448, Note_on_c, 0, 68, 127
2, 55448, Note_on_c, 0, 77, 127
2, 55496, Note_off_c, 0, 56, 0
2, 55512, Note_off_c, 0, 77, 0
2, 55608, Note_on_c, 0, 65, 127
2, 55620, Note_on_c, 0, 73, 127
2, 55624, Note_off_c, 0, 68, 0
2, 55760, Note_off_c, 0, 73, 0
2, 55768, Note_off_c, 0, 65, 0
2, 55840, Note_on_c, 0, 75, 127
2, 55848, Note_on_c, 0, 44, 127
2, 55848, Note_on_c, 0, 66, 127
2, 56052, Note_on_c, 0, 68, 127
2, 56056, Note_on_c, 0, 56, 127
2, 56088, Control_c, 0, 64, 63
2, 56136, Note_off_c, 0, 75, 0
2, 56136, Control_c, 0, 64, 127
2, 56204, Note_off_c, 0, 56, 0
2, 56248, Note_off_c, 0, 44, 0
2, 56360, Note_off_c, 0, 66, 0
2, 56392, Note_on_c, 0, 65, 127
2, 56396, Note_off_c, 0, 68, 0
2, 56404, Note_on_c, 0, 73, 127
2, 56408, Note_on_c, 0, 37, 112
2, 56580, Control_c, 0, 64, 63
2, 56604, Control_c, 0, 64, 0
2, 56708, Control_c, 0, 64, 63
2, 56720, Control_c, 0, 64, 127
2, 56896, Note_on_c, 0, 44, 127
2, 56944, Note_off_c, 0, 37, 0
2, 56960, Note_off_c, 0, 65, 0
2, 57016, Note_off_c, 0, 44, 0
2, 57032, Note_off_c, 0, 73, 0
2, 57232, Note_on_c, 0, 56, 127
2, 57316, Note_off_c, 0, 56, 0
2, 57508, Note_on_c, 0, 56, 127
2, 57520, Note_on_c, 0, 75, 127
2, 57532, Note_on_c, 0, 66, 127
2, 57628, Note_off_c, 0, 75, 0
2, 57656, Note_off_c, 0, 66, 0
2, 57684, Note_on_c, 0, 63, 127
2, 57684, Note_on_c, 0, 72, 127
2, 57752, Note_off_c, 0, 63, 0
2, 57784, Note_off_c, 0, 56, 0
2, 57800, Note_off_c, 0, 72, 0
2, 57808, Note_on_c, 0, 75, 127
2, 57824, Note_on_c, 0, 66, 127
2, 57872, Note_off_c, 0, 75, 0
2, 57932, Note_on_c, 0, 61, 127
2, 57940, Note_on_c, 0, 70, 127
2, 57952, Note_off_c, 0, 66, 0
2, 57984, Note_off_c, 0, 61, 0
2, 58044, Note_off_c, 0, 70, 0
2, 58048, Note_on_c, 0, 44, 127
2, 58064, Note_on_c, 0, 75, 127
2, 58080, Note_on_c, 0, 66, 127
2, 58136, Note_off_c, 0, 75, 0
2, 58188, Note_on_c, 0, 56, 127
2, 58192, Note_on_c, 0, 68, 127
2, 58200, Note_off_c, 0, 44, 0
2, 58208, Note_off_c, 0, 66, 0
2, 58232, Note_off_c, 0, 56, 0
2, 58348, Note_on_c, 0, 73, 127
2, 58348, Note_on_c, 0, 65, 127
2, 58360, Control_c, 0, 64, 63
2, 58364, Note_on_c, 0, 37, 127
2, 58368, Control_c, 0, 64, 0
2, 58372, Note_off_c, 0, 68, 0
2, 58448, Control_c, 0, 64, 63
2, 58464, Control_c, 0, 64, 127
2, 58624, Note_off_c, 0, 37, 0
2, 58624, Note_on_c, 0, 44, 127
2, 58640, Note_off_c, 0, 65, 0
2, 58656, Note_off_c, 0, 73, 0
2, 58656, Note_off_c, 0, 44, 0
2, 58884, Note_on_c, 0, 56, 127
2, 58956, Note_off_c, 0, 56, 0
2, 59152, Note_on_c, 0, 56, 127
2, 59168, Note_on_c, 0, 75, 127
2, 59176, Note_on_c, 0, 66, 127
2, 59256, Note_off_c, 0, 75, 0
2, 59276, Note_off_c, 0, 66, 0
2, 59328, Note_on_c, 0, 63, 127
2, 59328, Note_on_c, 0, 72, 127
2, 59400, Note_off_c, 0, 63, 0
2, 59424, Note_off_c, 0, 72, 0
2, 59452, Note_on_c, 0, 75, 127
2, 59464, Note_on_c, 0, 66, 127
2, 59472, Note_off_c, 0, 56, 0
2, 59520, Note_off_c, 0, 75, 0
2, 59576, Note_on_c, 0, 70, 127
2, 59584, Note_off_c, 0, 66, 0
2, 59584, Note_on_c, 0, 61, 127
2, 59616, Note_off_c, 0, 61, 0
2, 59680, Note_on_c, 0, 44, 127
2, 59688, Note_off_c, 0, 70, 0
2, 59712, Note_on_c, 0, 75, 127
2, 59724, Note_on_c, 0, 66, 127
2, 59772, Control_c, 0, 64, 63
2, 59788, Control_c, 0, 64, 0
2, 59808, Note_off_c, 0, 75, 0
2, 59836, Control_c, 0, 64, 63
2, 59844, Note_on_c, 0, 68, 127
2, 59860, Control_c, 0, 64, 127
2, 59872, Note_on_c, 0, 56, 127
2, 59928, Note_off_c, 0, 44, 0
2, 59932, Note_off_c, 0, 56, 0
2, 59960, Note_off_c, 0, 66, 0
2, 60064, Note_on_c, 0, 73, 127
2, 60068, Note_on_c, 0, 65, 127
2, 60088, Note_on_c, 0, 37, 127
2, 60184, Control_c, 0, 64, 63
2, 60196, Control_c, 0, 64, 0
2, 60232, Note_off_c, 0, 68, 0
2, 60300, Control_c, 0, 64, 63
2, 60312, Control_c, 0, 64, 127
2, 60464, Note_on_c, 0, 44, 127
2, 60484, Note_off_c, 0, 37, 0
2, 60536, Note_off_c, 0, 65, 0
2, 60544, Note_off_c, 0, 44, 0
2, 60564, Note_off_c, 0, 73, 0
2, 60756, Note_on_c, 0, 56, 127
2, 61000, Note_on_c, 0, 66, 127
2, 61044, Note_off_c, 0, 56, 0
2, 61108, Note_off_c, 0, 66, 0
2, 61108, Note_on_c, 0, 68, 127
2, 61112, Note_on_c, 0, 73, 127
2, 61112, Note_on_c, 0, 65, 127
2, 61380, Note_on_c, 0, 44, 127
2, 61468, Control_c, 0, 64, 63
2, 61556, Control_c, 0, 64, 127
2, 61620, Note_on_c, 0, 37, 127
2, 61752, Note_off_c, 0, 73, 0
2, 61756, Note_off_c, 0, 65, 0
2, 61780, Note_off_c, 0, 68, 0
2, 61840, Note_on_c, 0, 66, 127
2, 61848, Note_off_c, 0, 44, 0
2, 61920, Note_on_c, 0, 68, 127
2, 61924, Note_on_c, 0, 73, 127
2, 61924, Note_on_c, 0, 65, 127
2, 61944, Note_off_c, 0, 66, 0
2, 61988, Control_c, 0, 64, 63
2, 62004, Control_c, 0, 64, 0
2, 62104, Control_c, 0, 64, 63
2, 62116, Control_c, 0, 64, 127
2, 62184, Note_on_c, 0, 44, 127
2, 62228, Note_off_c, 0, 37, 0
2, 62264, Note_off_c, 0, 44, 0
2, 62428, Note_on_c, 0, 56, 127
2, 62476, Note_off_c, 0, 73, 0
2, 62476, Note_off_c, 0, 65, 0
2, 62496, Note_off_c, 0, 68, 0
2, 62632, Note_on_c, 0, 66, 127
2, 62704, Note_on_c, 0, 73, 127
2, 62704, Note_on_c, 0, 68, 127
2, 62716, Note_on_c, 0, 65, 127
2, 62728, Note_off_c, 0, 66, 0
2, 62872, Control_c, 0, 64, 63
2, 62900, Control_c, 0, 64, 0
2, 62940, Control_c, 0, 64, 63
2, 62960, Control_c, 0, 64, 127
2, 62968, Note_on_c, 0, 44, 127
2, 62984, Note_off_c, 0, 56, 0
2, 63272, Note_on_c, 0, 37, 127
2, 63292, Control_c, 0, 64, 63
2, 63364, Control_c, 0, 64, 127
2, 63448, Note_off_c, 0, 73, 0
2, 63460, Note_off_c, 0, 65, 0
2, 63480, Note_off_c, 0, 68, 0
2, 63492, Note_off_c, 0, 44, 0
2, 63548, Note_on_c, 0, 66, 127
2, 63664, Note_on_c, 0, 68, 127
2, 63668, Note_on_c, 0, 73, 127
2, 63676, Note_on_c, 0, 64, 127
2, 63688, Note_off_c, 0, 66, 0
2, 63800, Control_c, 0, 64, 63
2, 63828, Control_c, 0, 64, 0
2, 64052, Control_c, 0, 64, 63
2, 64056, Control_c, 0, 64, 127
2, 64056, Note_on_c, 0, 44, 127
2, 64124, Note_off_c, 0, 37, 0
2, 64260, Note_off_c, 0, 44, 0
2, 64444, Note_on_c, 0, 56, 127
2, 64456, Note_off_c, 0, 68, 0
2, 64456, Note_off_c, 0, 64, 0
2, 64476, Note_off_c, 0, 73, 0
2, 64760, Note_off_c, 0, 56, 0
2, 64784, Note_on_c, 0, 73, 127
2, 64796, Note_on_c, 0, 68, 127
2, 64808, Note_on_c, 0, 64, 127
2, 64888, Note_off_c, 0, 64, 0
2, 64896, Note_off_c, 0, 68, 0
2, 64908, Note_off_c, 0, 73, 0
2, 65096, Note_on_c, 0, 44, 127
2, 65236, Note_on_c, 0, 75, 127
2, 65244, Note_on_c, 0, 66, 127
2, 65344, Note_off_c, 0, 66, 0
2, 65364, Note_off_c, 0, 75, 0
2, 65508, Note_on_c, 0, 37, 127
2, 65540, Note_on_c, 0, 73, 127
2, 65544, Note_off_c, 0, 44, 0
2, 65544, Note_on_c, 0, 76, 127
2, 65556, Note_on_c, 0, 68, 76
2, 65576, Control_c, 0, 64, 63
2, 65592, Control_c, 0, 64, 0
2, 65660, Control_c, 0, 64, 63
2, 65672, Control_c, 0, 64, 127
2, 65776, Note_off_c, 0, 76, 0
2, 65788, Note_off_c, 0, 73, 0
2, 65800, Note_off_c, 0, 68, 0
2, 66008, Note_on_c, 0, 68, 127
2, 66020, Note_on_c, 0, 64, 127
2, 66024, Note_on_c, 0, 59, 127
2, 66328, Note_on_c, 0, 44, 127
2, 66360, Note_off_c, 0, 37, 0
2, 66532, Note_off_c, 0, 59, 0
2, 66584, Note_off_c, 0, 64, 0
2, 66608, Note_on_c, 0, 56, 127
2, 66616, Note_off_c, 0, 68, 0
2, 66704, Note_off_c, 0, 56, 0
2, 66856, Note_on_c, 0, 54, 127
2, 66856, Note_on_c, 0, 68, 127
2, 66868, Note_on_c, 0, 64, 127
2, 66944, Control_c, 0, 64, 63
2, 66996, Control_c, 0, 64, 127
2, 67012, Note_off_c, 0, 44, 0
2, 67056, Note_on_c, 0, 70, 127
2, 67112, Note_off_c, 0, 68, 0
2, 67132, Note_off_c, 0, 54, 0
2, 67168, Note_off_c, 0, 70, 0
2, 67168, Note_on_c, 0, 42, 127
2, 67196, Note_on_c, 0, 71, 127
2, 67200, Note_off_c, 0, 64, 0
2, 67236, Note_off_c, 0, 42, 0
2, 67260, Note_off_c, 0, 71, 0
2, 67288, Note_on_c, 0, 70, 127
2, 67340, Note_on_c, 0, 71, 127
2, 67344, Note_off_c, 0, 70, 0
2, 67400, Note_off_c, 0, 71, 0
2, 67420, Note_on_c, 0, 70, 127
2, 67448, Note_on_c, 0, 71, 127
2, 67456, Note_off_c, 0, 70, 0
2, 67500, Note_on_c, 0, 30, 127
2, 67520, Note_off_c, 0, 71, 0
2, 67528, Note_on_c, 0, 70, 127
2, 67548, Note_off_c, 0, 30, 0
2, 67616, Note_off_c, 0, 70, 0
2, 67632, Note_on_c, 0, 68, 127
2, 67720, Note_on_c, 0, 70, 127
2, 67736, Note_off_c, 0, 68, 0
2, 67868, Note_on_c, 0, 35, 127
2, 67952, Note_off_c, 0, 70, 0
2, 67956, Note_on_c, 0, 63, 127
2, 67960, Note_on_c, 0, 71, 127
2, 68060, Control_c, 0, 64, 63
2, 68076, Control_c, 0, 64, 0
2, 68172, Control_c, 0, 64, 63
2, 68184, Control_c, 0, 64, 127
2, 68352, Note_on_c, 0, 42, 127
2, 68384, Note_off_c, 0, 35, 0
2, 68580, Note_off_c, 0, 71, 0
2, 68588, Note_off_c, 0, 63, 0
2, 68600, Note_off_c, 0, 42, 0
2, 68644, Note_on_c, 0, 54, 127
2, 68708, Note_off_c, 0, 54, 0
2, 68932, Note_on_c, 0, 54, 127
2, 68944, Note_on_c, 0, 73, 127
2, 68960, Note_on_c, 0, 64, 127
2, 69044, Note_off_c, 0, 73, 0
2, 69060, Note_off_c, 0, 64, 0
2, 69100, Note_on_c, 0, 61, 127
2, 69104, Note_on_c, 0, 70, 127
2, 69156, Note_off_c, 0, 54, 0
2, 69160, Note_off_c, 0, 61, 0
2, 69208, Note_off_c, 0, 70, 0
2, 69216, Note_on_c, 0, 73, 127
2, 69232, Note_on_c, 0, 64, 127
2, 69280, Note_off_c, 0, 73, 0
2, 69328, Note_on_c, 0, 59, 127
2, 69340, Note_on_c, 0, 68, 127
2, 69360, Note_off_c, 0, 64, 0
2, 69372, Note_off_c, 0, 59, 0
2, 69456, Note_on_c, 0, 42, 127
2, 69464, Note_on_c, 0, 73, 127
2, 69472, Note_off_c, 0, 68, 0
2, 69472, Note_on_c, 0, 64, 127
2, 69536, Note_off_c, 0, 73, 0
2, 69580, Note_on_c, 0, 66, 127
2, 69584, Note_off_c, 0, 42, 0
2, 69584, Note_on_c, 0, 54, 127
2, 69600, Note_off_c, 0, 64, 0
2, 69612, Note_off_c, 0, 54, 0
2, 69668, Note_off_c, 0, 66, 0
2, 69732, Note_on_c, 0, 71, 127
2, 69736, Note_on_c, 0, 63, 127
2, 69740, Note_on_c, 0, 35, 127
2, 69800, Control_c, 0, 64, 63
2, 69812, Control_c, 0, 64, 0
2, 69912, Control_c, 0, 64, 63
2, 69928, Control_c, 0, 64, 127
2, 70004, Note_on_c, 0, 42, 127
2, 70020, Note_off_c, 0, 35, 0
2, 70080, Note_off_c, 0, 42, 0
2, 70156, Note_off_c, 0, 63, 0
2, 70188, Note_off_c, 0, 71, 0
2, 70260, Note_on_c, 0, 54, 127
2, 70324, Note_off_c, 0, 54, 0
2, 70540, Note_on_c, 0, 54, 127
2, 70552, Note_on_c, 0, 73, 127
2, 70556, Note_on_c, 0, 64, 127
2, 70628, Note_off_c, 0, 73, 0
2, 70640, Note_off_c, 0, 64, 0
2, 70704, Note_on_c, 0, 70, 127
2, 70708, Note_on_c, 0, 61, 127
2, 70764, Note_off_c, 0, 61, 0
2, 70776, Note_off_c, 0, 54, 0
2, 70812, Note_off_c, 0, 70, 0
2, 70824, Note_on_c, 0, 73, 127
2, 70844, Note_on_c, 0, 64, 127
2, 70888, Note_off_c, 0, 73, 0
2, 70944, Note_on_c, 0, 68, 127
2, 70948, Note_on_c, 0, 59, 127
2, 70972, Note_off_c, 0, 64, 0
2, 70988, Note_off_c, 0, 59, 0
2, 71064, Note_on_c, 0, 42, 127
2, 71072, Note_on_c, 0, 64, 127
2, 71076, Note_on_c, 0, 73, 127
2, 71088, Note_off_c, 0, 68, 0
2, 71152, Note_off_c, 0, 73, 0
2, 71188, Note_off_c, 0, 42, 0
2, 71192, Note_on_c, 0, 66, 127
2, 71196, Note_on_c, 0, 54, 127
2, 71224, Note_off_c, 0, 64, 0
2, 71240, Note_off_c, 0, 54, 0
2, 71312, Note_off_c, 0, 66, 0
2, 71392, Note_on_c, 0, 71, 127
2, 71392, Note_on_c, 0, 35, 127
2, 71404, Note_on_c, 0, 63, 127
2, 71492, Control_c, 0, 64, 63
2, 71504, Control_c, 0, 64, 0
2, 71668, Control_c, 0, 64, 63
2, 71672, Control_c, 0, 64, 127
2, 71736, Note_on_c, 0, 42, 127
2, 71756, Note_off_c, 0, 35, 0
2, 72008, Note_on_c, 0, 54, 127
2, 72060, Note_off_c, 0, 54, 0
2, 72216, Note_off_c, 0, 42, 0
2, 72216, Note_off_c, 0, 63, 0
2, 72216, Note_off_c, 0, 71, 0
2, 72256, Note_on_c, 0, 70, 127
2, 72268, Note_on_c, 0, 54, 127
2, 72268, Note_on_c, 0, 63, 127
2, 72328, Note_off_c, 0, 54, 0
2, 72532, Note_on_c, 0, 42, 127
2, 72544, Note_off_c, 0, 63, 0
2, 72548, Note_off_c, 0, 70, 0
2, 72660, Note_on_c, 0, 71, 127
2, 72720, Note_off_c, 0, 71, 0
2, 72752, Note_off_c, 0, 42, 0
2, 72784, Note_on_c, 0, 35, 127
2, 72792, Note_on_c, 0, 66, 127
2, 72800, Note_on_c, 0, 63, 127
2, 72808, Control_c, 0, 64, 63
2, 72816, Control_c, 0, 64, 0
2, 72856, Control_c, 0, 64, 63
2, 72876, Control_c, 0, 64, 127
2, 72960, Note_off_c, 0, 63, 0
2, 72972, Note_off_c, 0, 35, 0
2, 72984, Note_off_c, 0, 66, 0
2, 73036, Note_on_c, 0, 35, 127
2, 73036, Note_on_c, 0, 66, 127
2, 73040, Note_on_c, 0, 63, 127
2, 73060, Control_c, 0, 64, 63
2, 73096, Control_c, 0, 64, 127
2, 73252, Note_on_c, 0, 68, 127
2, 73288, Note_off_c, 0, 66, 0
2, 73288, Note_off_c, 0, 63, 0
2, 73376, Note_off_c, 0, 35, 0
2, 73384, Note_on_c, 0, 42, 127
2, 73400, Note_on_c, 0, 70, 127
2, 73424, Note_off_c, 0, 68, 0
2, 73452, Note_off_c, 0, 42, 0
2, 73480, Note_off_c, 0, 70, 0
2, 73532, Note_on_c, 0, 68, 127
2, 73600, Note_off_c, 0, 68, 0
2, 73608, Note_on_c, 0, 70, 127
2, 73648, Note_off_c, 0, 70, 0
2, 73660, Note_on_c, 0, 41, 127
2, 73676, Note_on_c, 0, 68, 127
2, 73728, Note_off_c, 0, 68, 0
2, 73728, Note_on_c, 0, 70, 127
2, 73760, Note_off_c, 0, 70, 0
2, 73784, Note_on_c, 0, 68, 127
2, 73824, Note_on_c, 0, 70, 127
2, 73840, Note_off_c, 0, 68, 0
2, 73856, Note_off_c, 0, 70, 0
2, 73872, Note_on_c, 0, 68, 127
2, 73880, Note_on_c, 0, 53, 127
2, 73900, Note_off_c, 0, 41, 0
2, 73920, Note_on_c, 0, 70, 127
2, 73936, Note_off_c, 0, 68, 0
2, 73956, Note_off_c, 0, 70, 0
2, 73960, Note_off_c, 0, 53, 0
2, 73980, Note_on_c, 0, 68, 127
2, 74032, Note_on_c, 0, 70, 127
2, 74044, Note_off_c, 0, 68, 0
2, 74056, Note_off_c, 0, 70, 0
2, 74080, Note_on_c, 0, 68, 127
2, 74104, Note_on_c, 0, 41, 127
2, 74128, Note_on_c, 0, 70, 127
2, 74140, Note_off_c, 0, 68, 0
2, 74152, Note_off_c, 0, 41, 0
2, 74160, Note_off_c, 0, 70, 0
2, 74184, Note_on_c, 0, 68, 127
2, 74252, Note_on_c, 0, 70, 127
2, 74260, Note_off_c, 0, 68, 0
2, 74312, Note_off_c, 0, 70, 0
2, 74324, Note_on_c, 0, 68, 127
2, 74360, Note_off_c, 0, 68, 0
2, 74372, Note_on_c, 0, 70, 127
2, 74384, Note_on_c, 0, 35, 127
2, 74416, Note_off_c, 0, 70, 0
2, 74432, Note_off_c, 0, 35, 0
2, 74436, Note_on_c, 0, 68, 127
2, 74484, Note_on_c, 0, 66, 127
2, 74488, Note_off_c, 0, 68, 0
2, 74556, Note_on_c, 0, 68, 127
2, 74560, Note_off_c, 0, 66, 0
2, 74692, Note_off_c, 0, 68, 0
2, 74732, Control_c, 0, 64, 63
2, 74740, Control_c, 0, 64, 0
2, 74764, Note_on_c, 0, 34, 127
2, 74764, Note_on_c, 0, 70, 127
2, 74768, Note_on_c, 0, 46, 127
2, 74772, Note_on_c, 0, 62, 127
2, 74872, Control_c, 0, 64, 63
2, 74872, Control_c, 0, 64, 127
2, 74928, Note_off_c, 0, 34, 0
2, 74964, Note_off_c, 0, 46, 0
2, 74976, Note_off_c, 0, 62, 0
2, 75040, Note_off_c, 0, 70, 0
2, 75288, Control_c, 0, 64, 63
2, 75292, Control_c, 0, 64, 0
2, 75424, Note_on_c, 0, 65, 127
2, 75432, Note_on_c, 0, 82, 127
2, 75432, Note_on_c, 0, 70, 127
2, 75432, Note_on_c, 0, 56, 127
2, 75436, Note_on_c, 0, 58, 127
2, 75476, Control_c, 0, 64, 63
2, 75480, Control_c, 0, 64, 127
2, 75600, Note_off_c, 0, 58, 0
2, 75636, Note_off_c, 0, 65, 0
2, 75648, Note_off_c, 0, 70, 0
2, 75816, Note_on_c, 0, 54, 127
2, 75820, Control_c, 0, 64, 63
2, 75824, Note_off_c, 0, 56, 0
2, 75856, Note_on_c, 0, 58, 127
2, 75856, Control_c, 0, 64, 127
2, 75864, Note_on_c, 0, 75, 127
2, 75872, Note_on_c, 0, 65, 127
2, 75920, Note_off_c, 0, 82, 0
2, 75948, Note_off_c, 0, 75, 0
2, 76100, Note_on_c, 0, 84, 127
2, 76156, Note_off_c, 0, 84, 0
2, 76212, Note_off_c, 0, 65, 0
2, 76244, Note_on_c, 0, 85, 127
2, 76252, Note_on_c, 0, 77, 127
2, 76296, Note_off_c, 0, 58, 0
2, 76296, Note_off_c, 0, 77, 0
2, 76308, Note_off_c, 0, 54, 0
2, 76316, Note_off_c, 0, 85, 0
2, 76380, Note_on_c, 0, 87, 127
2, 76384, Note_on_c, 0, 78, 127
2, 76416, Note_off_c, 0, 78, 0
2, 76460, Note_off_c, 0, 87, 0
2, 76508, Note_on_c, 0, 89, 127
2, 76520, Note_on_c, 0, 63, 127
2, 76556, Note_off_c, 0, 63, 0
2, 76572, Note_off_c, 0, 89, 0
2, 76632, Note_on_c, 0, 90, 127
2, 76668, Note_on_c, 0, 46, 127
2, 76732, Note_off_c, 0, 90, 0
2, 76732, Note_on_c, 0, 53, 127
2, 76768, Note_off_c, 0, 46, 0
2, 76800, Note_on_c, 0, 89, 127
2, 76804, Note_on_c, 0, 85, 127
2, 76824, Note_on_c, 0, 61, 127
2, 76844, Control_c, 0, 64, 63
2, 76864, Control_c, 0, 64, 0
2, 76916, Control_c, 0, 64, 63
2, 76936, Control_c, 0, 64, 127
2, 76952, Note_off_c, 0, 89, 0
2, 77000, Note_on_c, 0, 82, 127
2, 77036, Note_off_c, 0, 85, 0
2, 77084, Note_off_c, 0, 61, 0
2, 77088, Note_off_c, 0, 82, 0
2, 77112, Note_on_c, 0, 77, 127
2, 77168, Note_off_c, 0, 53, 0
2, 77168, Note_off_c, 0, 77, 0
2, 77216, Note_on_c, 0, 73, 127
2, 77220, Note_on_c, 0, 46, 127
2, 77280, Note_off_c, 0, 73, 0
2, 77296, Note_on_c, 0, 53, 127
2, 77320, Note_off_c, 0, 46, 0
2, 77340, Note_on_c, 0, 71, 127
2, 77352, Note_on_c, 0, 77, 127
2, 77352, Note_on_c, 0, 79, 127
2, 77356, Note_on_c, 0, 61, 127
2, 77384, Note_off_c, 0, 79, 0
2, 77412, Note_off_c, 0, 61, 0
2, 77420, Note_off_c, 0, 77, 0
2, 77456, Note_on_c, 0, 70, 127
2, 77460, Note_off_c, 0, 71, 0
2, 77476, Note_off_c, 0, 53, 0
2, 77504, Note_on_c, 0, 46, 127
2, 77560, Note_off_c, 0, 70, 0
2, 77568, Note_on_c, 0, 51, 127
2, 77596, Note_off_c, 0, 46, 0
2, 77600, Control_c, 0, 64, 63
2, 77600, Note_on_c, 0, 54, 127
2, 77612, Note_on_c, 0, 68, 127
2, 77640, Note_on_c, 0, 61, 127
2, 77640, Control_c, 0, 64, 127
2, 77652, Note_on_c, 0, 77, 127
2, 77736, Note_on_c, 0, 75, 127
2, 77740, Note_off_c, 0, 77, 0
2, 77768, Note_off_c, 0, 68, 0
2, 77808, Note_off_c, 0, 75, 0
2, 77808, Note_on_c, 0, 77, 127
2, 77872, Note_on_c, 0, 75, 127
2, 77880, Note_off_c, 0, 77, 0
2, 77920, Note_on_c, 0, 77, 127
2, 77924, Note_on_c, 0, 66, 127
2, 77936, Note_off_c, 0, 75, 0
2, 77940, Note_off_c, 0, 61, 0
2, 77980, Note_off_c, 0, 66, 0
2, 78000, Note_on_c, 0, 75, 127
2, 78016, Note_off_c, 0, 77, 0
2, 78060, Note_on_c, 0, 77, 127
2, 78076, Note_off_c, 0, 75, 0
2, 78096, Note_off_c, 0, 54, 0
2, 78136, Note_on_c, 0, 75, 127
2, 78152, Note_off_c, 0, 77, 0
2, 78168, Note_off_c, 0, 51, 0
2, 78200, Note_on_c, 0, 77, 127
2, 78216, Note_off_c, 0, 75, 0
2, 78232, Note_on_c, 0, 59, 127
2, 78248, Note_on_c, 0, 68, 127
2, 78252, Note_on_c, 0, 54, 127
2, 78264, Note_on_c, 0, 75, 127
2, 78272, Note_on_c, 0, 51, 127
2, 78288, Note_off_c, 0, 54, 0
2, 78292, Note_off_c, 0, 77, 0
2, 78296, Note_off_c, 0, 59, 0
2, 78304, Note_off_c, 0, 51, 0
2, 78316, Note_off_c, 0, 68, 0
2, 78364, Note_on_c, 0, 74, 127
2, 78388, Note_off_c, 0, 75, 0
2, 78456, Note_on_c, 0, 75, 127
2, 78484, Note_off_c, 0, 74, 0
2, 78628, Note_on_c, 0, 46, 127
2, 78628, Note_on_c, 0, 74, 127
2, 78632, Note_on_c, 0, 34, 127
2, 78632, Note_on_c, 0, 70, 127
2, 78636, Note_on_c, 0, 65, 127
2, 78676, Control_c, 0, 64, 63
2, 78684, Control_c, 0, 64, 0
2, 78720, Note_off_c, 0, 75, 0
2, 78784, Control_c, 0, 64, 63
2, 78788, Control_c, 0, 64, 127
2, 78848, Note_off_c, 0, 34, 0
2, 78896, Note_off_c, 0, 46, 0
2, 78908, Note_off_c, 0, 65, 0
2, 78976, Note_off_c, 0, 70, 0
2, 79252, Note_on_c, 0, 56, 127
2, 79252, Note_on_c, 0, 65, 127
2, 79256, Control_c, 0, 64, 63
2, 79256, Note_on_c, 0, 82, 127
2, 79260, Note_on_c, 0, 70, 127
2, 79264, Control_c, 0, 64, 0
2, 79264, Note_on_c, 0, 58, 127
2, 79292, Note_off_c, 0, 74, 0
2, 79300, Control_c, 0, 64, 63
2, 79320, Control_c, 0, 64, 127
2, 79412, Note_off_c, 0, 70, 0
2, 79488, Note_off_c, 0, 56, 0
2, 79520, Note_off_c, 0, 58, 0
2, 79584, Note_off_c, 0, 65, 0
2, 79668, Note_on_c, 0, 75, 127
2, 79668, Note_on_c, 0, 54, 127
2, 79668, Note_on_c, 0, 65, 127
2, 79672, Note_on_c, 0, 58, 127
2, 79684, Note_off_c, 0, 82, 0
2, 79752, Note_off_c, 0, 75, 0
2, 79896, Note_on_c, 0, 84, 127
2, 79956, Note_off_c, 0, 84, 0
2, 80008, Note_off_c, 0, 65, 0
2, 80092, Note_on_c, 0, 85, 127
2, 80096, Note_on_c, 0, 77, 127
2, 80112, Note_on_c, 0, 66, 127
2, 80140, Note_off_c, 0, 77, 0
2, 80188, Note_off_c, 0, 85, 0
2, 80200, Note_off_c, 0, 66, 0
2, 80256, Note_on_c, 0, 87, 127
2, 80264, Note_on_c, 0, 78, 127
2, 80296, Note_off_c, 0, 78, 0
2, 80344, Note_off_c, 0, 87, 0
2, 80388, Note_on_c, 0, 63, 127
2, 80396, Note_on_c, 0, 89, 127
2, 80440, Note_off_c, 0, 58, 0
2, 80456, Note_off_c, 0, 54, 0
2, 80464, Note_off_c, 0, 63, 0
2, 80464, Note_off_c, 0, 89, 0
2, 80528, Note_on_c, 0, 90, 127
2, 80568, Note_on_c, 0, 54, 127
2, 80584, Note_on_c, 0, 46, 127
2, 80604, Note_off_c, 0, 54, 0
2, 80624, Note_off_c, 0, 90, 0
2, 80652, Note_on_c, 0, 54, 127
2, 80656, Note_on_c, 0, 53, 127
2, 80668, Control_c, 0, 64, 63
2, 80680, Note_off_c, 0, 54, 0
2, 80684, Note_on_c, 0, 89, 127
2, 80688, Note_off_c, 0, 46, 0
2, 80688, Note_on_c, 0, 85, 127
2, 80688, Control_c, 0, 64, 0
2, 80716, Note_on_c, 0, 61, 127
2, 80756, Control_c, 0, 64, 63
2, 80772, Control_c, 0, 64, 127
2, 80816, Note_off_c, 0, 89, 0
2, 80848, Note_on_c, 0, 82, 127
2, 80888, Note_off_c, 0, 85, 0
2, 80948, Note_off_c, 0, 82, 0
2, 80960, Note_on_c, 0, 77, 127
2, 80972, Note_off_c, 0, 61, 0
2, 81032, Note_off_c, 0, 77, 0
2, 81052, Note_off_c, 0, 53, 0
2, 81068, Note_on_c, 0, 73, 127
2, 81084, Note_on_c, 0, 46, 127
2, 81148, Note_off_c, 0, 73, 0
2, 81168, Note_on_c, 0, 53, 127
2, 81176, Note_off_c, 0, 46, 0
2, 81204, Note_on_c, 0, 71, 127
2, 81208, Note_on_c, 0, 77, 127
2, 81220, Note_on_c, 0, 61, 127
2, 81284, Note_off_c, 0, 61, 0
2, 81312, Note_off_c, 0, 77, 0
2, 81320, Note_on_c, 0, 70, 127
2, 81336, Note_off_c, 0, 71, 0
2, 81356, Note_off_c, 0, 53, 0
2, 81380, Note_on_c, 0, 46, 127
2, 81428, Note_off_c, 0, 70, 0
2, 81460, Note_on_c, 0, 51, 127
2, 81476, Note_off_c, 0, 46, 0
2, 81500, Note_on_c, 0, 54, 127
2, 81504, Control_c, 0, 64, 63
2, 81504, Note_on_c, 0, 77, 127
2, 81536, Note_on_c, 0, 68, 127
2, 81544, Note_on_c, 0, 61, 127
2, 81568, Control_c, 0, 64, 127
2, 81600, Note_on_c, 0, 75, 127
2, 81636, Note_off_c, 0, 77, 0
2, 81676, Note_on_c, 0, 77, 127
2, 81692, Note_off_c, 0, 75, 0
2, 81760, Note_on_c, 0, 75, 127
2, 81768, Note_off_c, 0, 61, 0
2, 81776, Note_off_c, 0, 77, 0
2, 81836, Note_off_c, 0, 54, 0
2, 81840, Note_off_c, 0, 75, 0
2, 81840, Note_on_c, 0, 77, 127
2, 81848, Note_off_c, 0, 68, 0
2, 81876, Note_on_c, 0, 63, 127
2, 81884, Note_on_c, 0, 54, 127
2, 81920, Note_on_c, 0, 75, 127
2, 81956, Note_off_c, 0, 77, 0
2, 81960, Note_off_c, 0, 63, 0
2, 81996, Note_on_c, 0, 77, 127
2, 82016, Note_on_c, 0, 66, 127
2, 82020, Note_off_c, 0, 75, 0
2, 82084, Note_off_c, 0, 66, 0
2, 82088, Note_on_c, 0, 75, 127
2, 82124, Note_off_c, 0, 77, 0
2, 82192, Note_off_c, 0, 54, 0
2, 82192, Note_on_c, 0, 77, 127
2, 82224, Note_off_c, 0, 75, 0
2, 82232, Note_on_c, 0, 59, 127
2, 82244, Note_on_c, 0, 68, 127
2, 82248, Note_on_c, 0, 54, 127
2, 82304, Note_on_c, 0, 75, 127
2, 82312, Note_off_c, 0, 59, 0
2, 82344, Note_off_c, 0, 54, 0
2, 82348, Note_off_c, 0, 77, 0
2, 82372, Note_off_c, 0, 51, 0
2, 82436, Note_on_c, 0, 74, 127
2, 82480, Note_off_c, 0, 75, 0
2, 82488, Note_off_c, 0, 68, 0
2, 82552, Note_on_c, 0, 75, 127
2, 82584, Note_off_c, 0, 74, 0
2, 82708, Note_on_c, 0, 34, 127
2, 82720, Note_on_c, 0, 74, 127
2, 82724, Note_on_c, 0, 46, 127
2, 82728, Note_on_c, 0, 70, 127
2, 82732, Note_on_c, 0, 65, 127
2, 82784, Note_off_c, 0, 75, 0
2, 82860, Control_c, 0, 64, 63
2, 82876, Control_c, 0, 64, 0
2, 82984, Control_c, 0, 64, 63
2, 82992, Control_c, 0, 64, 127
2, 83044, Note_off_c, 0, 34, 0
2, 83092, Note_off_c, 0, 46, 0
2, 83104, Note_off_c, 0, 65, 0
2, 83168, Note_off_c, 0, 70, 0
2, 83280, Note_off_c, 0, 74, 0
2, 83360, Note_on_c, 0, 70, 127
2, 83364, Note_on_c, 0, 62, 127
2, 83368, Note_on_c, 0, 56, 127
2, 83368, Note_on_c, 0, 65, 127
2, 83424, Note_off_c, 0, 65, 0
2, 83432, Note_off_c, 0, 62, 0
2, 83448, Note_off_c, 0, 70, 0
2, 83456, Note_off_c, 0, 56, 0
2, 83672, Control_c, 0, 64, 63
2, 83680, Note_on_c, 0, 75, 127
2, 83692, Note_on_c, 0, 63, 127
2, 83696, Note_on_c, 0, 66, 127
2, 83700, Note_on_c, 0, 54, 127
2, 83732, Control_c, 0, 64, 127
2, 83756, Note_off_c, 0, 63, 0
2, 83796, Note_off_c, 0, 75, 0
2, 83800, Note_off_c, 0, 66, 0
2, 83808, Note_off_c, 0, 54, 0
2, 83848, Note_on_c, 0, 63, 127
2, 83852, Note_on_c, 0, 71, 127
2, 83900, Note_off_c, 0, 63, 0
2, 83936, Note_off_c, 0, 71, 0
2, 83976, Note_on_c, 0, 75, 127
2, 83988, Note_on_c, 0, 66, 127
2, 84036, Note_off_c, 0, 75, 0
2, 84064, Note_off_c, 0, 66, 0
2, 84100, Note_on_c, 0, 70, 127
2, 84108, Note_on_c, 0, 61, 127
2, 84148, Note_off_c, 0, 61, 0
2, 84180, Note_off_c, 0, 70, 0
2, 84224, Note_on_c, 0, 34, 127
2, 84228, Note_on_c, 0, 75, 127
2, 84236, Note_on_c, 0, 66, 127
2, 84288, Note_off_c, 0, 75, 0
2, 84328, Note_off_c, 0, 66, 0
2, 84356, Note_on_c, 0, 68, 127
2, 84420, Note_off_c, 0, 68, 0
2, 84420, Note_on_c, 0, 59, 100
2, 84456, Note_off_c, 0, 59, 0
2, 84556, Note_on_c, 0, 46, 127
2, 84556, Note_on_c, 0, 70, 127
2, 84556, Note_on_c, 0, 58, 127
2, 84564, Control_c, 0, 64, 63
2, 84572, Control_c, 0, 64, 0
2, 84584, Note_on_c, 0, 68, 127
2, 84616, Note_off_c, 0, 68, 0
2, 84640, Control_c, 0, 64, 63
2, 84656, Control_c, 0, 64, 127
2, 84760, Note_off_c, 0, 34, 0
2, 84776, Note_off_c, 0, 58, 0
2, 84796, Note_off_c, 0, 46, 0
2, 84824, Note_off_c, 0, 70, 0
2, 85140, Control_c, 0, 64, 63
2, 85152, Note_on_c, 0, 70, 127
2, 85156, Control_c, 0, 64, 0
2, 85156, Note_on_c, 0, 61, 127
2, 85160, Note_on_c, 0, 65, 127
2, 85164, Note_on_c, 0, 53, 127
2, 85188, Control_c, 0, 64, 63
2, 85212, Control_c, 0, 64, 127
2, 85240, Note_off_c, 0, 70, 0
2, 85240, Note_off_c, 0, 65, 0
2, 85244, Note_off_c, 0, 61, 0
2, 85272, Note_off_c, 0, 53, 0
2, 85436, Control_c, 0, 64, 63
2, 85464, Note_on_c, 0, 75, 127
2, 85464, Note_on_c, 0, 59, 127
2, 85472, Note_on_c, 0, 66, 127
2, 85472, Note_on_c, 0, 51, 127
2, 85492, Control_c, 0, 64, 127
2, 85564, Note_off_c, 0, 66, 0
2, 85572, Note_off_c, 0, 75, 0
2, 85576, Note_off_c, 0, 59, 0
2, 85616, Note_on_c, 0, 63, 127
2, 85616, Note_on_c, 0, 71, 127
2, 85640, Note_off_c, 0, 51, 0
2, 85688, Note_off_c, 0, 63, 0
2, 85724, Note_off_c, 0, 71, 0
2, 85772, Note_on_c, 0, 75, 127
2, 85776, Note_on_c, 0, 66, 127
2, 85836, Note_off_c, 0, 75, 0
2, 85868, Note_off_c, 0, 66, 0
2, 85928, Note_on_c, 0, 70, 127
2, 85932, Note_on_c, 0, 61, 127
2, 85972, Note_off_c, 0, 61, 0
2, 86048, Note_off_c, 0, 70, 0
2, 86096, Note_on_c, 0, 34, 127
2, 86104, Note_on_c, 0, 66, 127
2, 86104, Note_on_c, 0, 75, 127
2, 86152, Note_off_c, 0, 75, 0
2, 86160, Note_off_c, 0, 66, 0
2, 86288, Note_on_c, 0, 68, 127
2, 86292, Note_on_c, 0, 59, 127
2, 86324, Note_off_c, 0, 59, 0
2, 86344, Note_off_c, 0, 68, 0
2, 86548, Control_c, 0, 64, 63
2, 86552, Note_on_c, 0, 70, 127
2, 86552, Note_on_c, 0, 46, 127
2, 86556, Note_on_c, 0, 58, 127
2, 86560, Control_c, 0, 64, 0
2, 86616, Control_c, 0, 64, 63
2, 86628, Control_c, 0, 64, 127
2, 86684, Note_off_c, 0, 58, 0
2, 86740, Note_off_c, 0, 34, 0
2, 86760, Note_off_c, 0, 70, 0
2, 86792, Note_off_c, 0, 46, 0
2, 86880, Note_on_c, 0, 71, 127
2, 86976, Note_off_c, 0, 71, 0
2, 86992, Note_on_c, 0, 70, 127
2, 87060, Note_off_c, 0, 70, 0
2, 87072, Note_on_c, 0, 71, 127
2, 87140, Note_off_c, 0, 71, 0
2, 87144, Note_on_c, 0, 70, 127
2, 87184, Note_off_c, 0, 70, 0
2, 87204, Note_on_c, 0, 71, 127
2, 87220, Note_on_c, 0, 50, 127
2, 87224, Note_on_c, 0, 53, 72
2, 87232, Note_on_c, 0, 58, 127
2, 87240, Note_on_c, 0, 62, 127
2, 87264, Note_on_c, 0, 70, 127
2, 87276, Note_off_c, 0, 71, 0
2, 87288, Note_off_c, 0, 58, 0
2, 87296, Note_off_c, 0, 50, 0
2, 87300, Note_off_c, 0, 53, 0
2, 87300, Note_off_c, 0, 62, 0
2, 87324, Note_off_c, 0, 70, 0
2, 87328, Note_on_c, 0, 71, 127
2, 87372, Note_on_c, 0, 70, 127
2, 87396, Note_off_c, 0, 71, 0
2, 87432, Note_off_c, 0, 70, 0
2, 87444, Note_on_c, 0, 71, 127
2, 87496, Note_on_c, 0, 70, 127
2, 87516, Note_off_c, 0, 71, 0
2, 87552, Note_off_c, 0, 70, 0
2, 87560, Note_on_c, 0, 58, 127
2, 87560, Note_on_c, 0, 50, 127
2, 87560, Note_on_c, 0, 62, 127
2, 87564, Note_on_c, 0, 71, 127
2, 87568, Note_on_c, 0, 53, 127
2, 87592, Note_off_c, 0, 53, 0
2, 87600, Note_off_c, 0, 62, 0
2, 87604, Note_off_c, 0, 58, 0
2, 87616, Note_off_c, 0, 50, 0
2, 87616, Note_on_c, 0, 70, 127
2, 87636, Note_off_c, 0, 71, 0
2, 87676, Note_off_c, 0, 70, 0
2, 87688, Note_on_c, 0, 71, 127
2, 87752, Note_on_c, 0, 70, 127
2, 87760, Note_off_c, 0, 71, 0
2, 87792, Note_off_c, 0, 70, 0
2, 87820, Note_on_c, 0, 71, 127
2, 87876, Note_on_c, 0, 70, 127
2, 87884, Note_off_c, 0, 71, 0
2, 87936, Note_off_c, 0, 70, 0
2, 87944, Note_on_c, 0, 71, 127
2, 87996, Note_on_c, 0, 70, 127
2, 88012, Note_off_c, 0, 71, 0
2, 88052, Note_off_c, 0, 70, 0
2, 88072, Note_on_c, 0, 71, 127
2, 88136, Note_off_c, 0, 71, 0
2, 88136, Note_on_c, 0, 70, 127
2, 88188, Note_off_c, 0, 70, 0
2, 88204, Note_on_c, 0, 71, 127
2, 88208, Note_on_c, 0, 46, 127
2, 88208, Note_on_c, 0, 34, 127
2, 88248, Note_off_c, 0, 46, 0
2, 88256, Note_off_c, 0, 34, 0
2, 88272, Note_off_c, 0, 71, 0
2, 88288, Note_on_c, 0, 70, 127
2, 88352, Note_off_c, 0, 70, 0
2, 88364, Note_on_c, 0, 71, 127
2, 88428, Note_off_c, 0, 71, 0
2, 88444, Note_on_c, 0, 70, 127
2, 88528, Note_off_c, 0, 70, 0
2, 88568, Control_c, 0, 64, 63
2, 88568, Control_c, 0, 64, 0
2, 88576, Note_on_c, 0, 75, 127
2, 88580, Note_on_c, 0, 71, 127
2, 88584, Note_on_c, 0, 34, 127
2, 88584, Note_on_c, 0, 46, 127
2, 88704, Control_c, 0, 64, 63
2, 88708, Control_c, 0, 64, 127
2, 88780, Note_off_c, 0, 34, 0
2, 88784, Note_off_c, 0, 71, 0
2, 88792, Note_on_c, 0, 70, 127
2, 88796, Note_on_c, 0, 74, 127
2, 88824, Note_off_c, 0, 75, 0
2, 88824, Note_off_c, 0, 46, 0
2, 88876, Note_off_c, 0, 74, 0
2, 88884, Note_off_c, 0, 70, 0
2, 88900, Note_on_c, 0, 71, 127
2, 88920, Note_on_c, 0, 75, 127
2, 88976, Note_on_c, 0, 74, 127
2, 88988, Note_off_c, 0, 71, 0
2, 88988, Note_on_c, 0, 70, 127
2, 89012, Note_off_c, 0, 75, 0
2, 89056, Note_off_c, 0, 74, 0
2, 89068, Note_on_c, 0, 71, 127
2, 89080, Note_off_c, 0, 70, 0
2, 89112, Note_on_c, 0, 75, 127
2, 89140, Note_on_c, 0, 70, 127
2, 89140, Note_on_c, 0, 74, 127
2, 89160, Note_off_c, 0, 71, 0
2, 89196, Note_off_c, 0, 75, 0
2, 89200, Note_off_c, 0, 74, 0
2, 89208, Note_on_c, 0, 71, 127
2, 89224, Note_off_c, 0, 70, 0
2, 89272, Note_on_c, 0, 75, 127
2, 89276, Note_on_c, 0, 74, 127
2, 89288, Note_on_c, 0, 70, 127
2, 89296, Note_off_c, 0, 71, 0
2, 89296, Note_on_c, 0, 65, 127
2, 89300, Note_on_c, 0, 53, 127
2, 89304, Note_on_c, 0, 58, 127
2, 89336, Note_off_c, 0, 74, 0
2, 89336, Note_on_c, 0, 71, 127
2, 89340, Note_off_c, 0, 75, 0
2, 89340, Note_off_c, 0, 58, 0
2, 89348, Note_off_c, 0, 65, 0
2, 89356, Note_off_c, 0, 70, 0
2, 89360, Note_off_c, 0, 53, 0
2, 89396, Note_on_c, 0, 75, 127
2, 89408, Note_on_c, 0, 74, 127
2, 89412, Note_on_c, 0, 70, 127
2, 89420, Note_off_c, 0, 71, 0
2, 89464, Note_off_c, 0, 75, 0
2, 89464, Note_on_c, 0, 71, 127
2, 89472, Note_off_c, 0, 74, 0
2, 89488, Note_off_c, 0, 70, 0
2, 89524, Note_on_c, 0, 75, 127
2, 89532, Note_on_c, 0, 74, 127
2, 89536, Note_on_c, 0, 70, 127
2, 89544, Note_off_c, 0, 71, 0
2, 89592, Note_off_c, 0, 75, 0
2, 89592, Note_off_c, 0, 74, 0
2, 89592, Note_on_c, 0, 71, 127
2, 89600, Note_off_c, 0, 70, 0
2, 89640, Note_on_c, 0, 65, 127
2, 89644, Note_on_c, 0, 53, 127
2, 89648, Note_on_c, 0, 58, 127
2, 89648, Note_on_c, 0, 75, 127
2, 89652, Note_on_c, 0, 74, 127
2, 89656, Note_on_c, 0, 70, 127
2, 89668, Note_off_c, 0, 71, 0
2, 89708, Note_off_c, 0, 75, 0
2, 89716, Note_on_c, 0, 71, 127
2, 89720, Note_off_c, 0, 74, 0
2, 89728, Note_off_c, 0, 65, 0
2, 89732, Note_off_c, 0, 70, 0
2, 89744, Note_off_c, 0, 58, 0
2, 89748, Note_off_c, 0, 53, 0
2, 89776, Note_on_c, 0, 75, 127
2, 89780, Note_on_c, 0, 70, 127
2, 89788, Note_on_c, 0, 74, 127
2, 89804, Note_off_c, 0, 71, 0
2, 89840, Note_on_c, 0, 71, 127
2, 89848, Note_off_c, 0, 74, 0
2, 89860, Note_off_c, 0, 75, 0
2, 89860, Note_off_c, 0, 70, 0
2, 89904, Note_on_c, 0, 75, 127
2, 89912, Note_on_c, 0, 70, 127
2, 89916, Note_on_c, 0, 74, 127
2, 89928, Note_off_c, 0, 71, 0
2, 89972, Note_on_c, 0, 71, 127
2, 89976, Note_off_c, 0, 75, 0
2, 89976, Note_off_c, 0, 74, 0
2, 89992, Note_off_c, 0, 70, 0
2, 90032, Note_on_c, 0, 75, 127
2, 90040, Note_on_c, 0, 74, 127
2, 90040, Note_on_c, 0, 70, 127
2, 90052, Note_off_c, 0, 71, 0
2, 90100, Note_on_c, 0, 71, 127
2, 90104, Note_off_c, 0, 75, 0
2, 90104, Note_off_c, 0, 74, 0
2, 90120, Note_off_c, 0, 70, 0
2, 90160, Note_on_c, 0, 75, 127
2, 90164, Note_on_c, 0, 74, 127
2, 90176, Note_on_c, 0, 70, 127
2, 90184, Note_off_c, 0, 71, 0
2, 90228, Note_off_c, 0, 75, 0
2, 90228, Note_off_c, 0, 74, 0
2, 90228, Note_on_c, 0, 71, 127
2, 90260, Note_off_c, 0, 70, 0
2, 90292, Note_on_c, 0, 75, 127
2, 90296, Note_on_c, 0, 74, 127
2, 90304, Note_on_c, 0, 70, 127
2, 90312, Note_off_c, 0, 71, 0
2, 90360, Note_on_c, 0, 71, 127
2, 90364, Note_off_c, 0, 74, 0
2, 90384, Note_off_c, 0, 75, 0
2, 90392, Note_off_c, 0, 70, 0
2, 90436, Note_on_c, 0, 75, 127
2, 90440, Note_on_c, 0, 74, 127
2, 90440, Note_on_c, 0, 70, 127
2, 90448, Note_off_c, 0, 71, 0
2, 90464, Note_on_c, 0, 44, 127
2, 90468, Note_on_c, 0, 32, 127
2, 90504, Note_off_c, 0, 75, 0
2, 90504, Note_off_c, 0, 74, 0
2, 90504, Note_on_c, 0, 71, 127
2, 90528, Note_off_c, 0, 70, 0
2, 90568, Note_on_c, 0, 75, 127
2, 90584, Note_on_c, 0, 74, 127
2, 90584, Note_on_c, 0, 70, 127
2, 90592, Note_off_c, 0, 71, 0
2, 90624, Note_off_c, 0, 44, 0
2, 90640, Note_off_c, 0, 75, 0
2, 90640, Note_on_c, 0, 71, 127
2, 90648, Note_off_c, 0, 74, 0
2, 90664, Note_off_c, 0, 32, 0
2, 90672, Note_off_c, 0, 70, 0
2, 90720, Note_on_c, 0, 74, 127
2, 90720, Note_on_c, 0, 75, 127
2, 90724, Note_on_c, 0, 70, 127
2, 90732, Note_off_c, 0, 71, 0
2, 90780, Note_off_c, 0, 75, 0
2, 90792, Note_on_c, 0, 71, 127
2, 90796, Note_off_c, 0, 74, 0
2, 90824, Note_off_c, 0, 70, 0
2, 90876, Note_on_c, 0, 74, 127
2, 90880, Note_on_c, 0, 70, 127
2, 90920, Note_off_c, 0, 71, 0
2, 91104, Note_on_c, 0, 42, 127
2, 91108, Note_on_c, 0, 30, 127
2, 91112, Note_on_c, 0, 71, 127
2, 91112, Note_on_c, 0, 75, 127
2, 91156, Note_off_c, 0, 74, 0
2, 91160, Note_off_c, 0, 70, 0
2, 91212, Control_c, 0, 64, 63
2, 91216, Control_c, 0, 64, 0
2, 91340, Control_c, 0, 64, 63
2, 91340, Control_c, 0, 64, 127
2, 91400, Note_off_c, 0, 30, 0
2, 91404, Note_on_c, 0, 73, 127
2, 91404, Note_on_c, 0, 70, 127
2, 91440, Note_off_c, 0, 42, 0
2, 91452, Note_off_c, 0, 71, 0
2, 91456, Note_off_c, 0, 75, 0
2, 91568, Note_on_c, 0, 75, 127
2, 91572, Note_on_c, 0, 71, 127
2, 91616, Note_off_c, 0, 73, 0
2, 91620, Note_off_c, 0, 70, 0
2, 91704, Note_on_c, 0, 73, 127
2, 91708, Note_on_c, 0, 49, 127
2, 91712, Note_on_c, 0, 70, 127
2, 91736, Note_off_c, 0, 71, 0
2, 91756, Note_off_c, 0, 75, 0
2, 91832, Note_on_c, 0, 71, 127
2, 91836, Note_on_c, 0, 75, 127
2, 91848, Note_off_c, 0, 73, 0
2, 91848, Note_off_c, 0, 70, 0
2, 91928, Note_on_c, 0, 73, 127
2, 91932, Note_on_c, 0, 70, 127
2, 91936, Note_off_c, 0, 71, 0
2, 91988, Note_off_c, 0, 75, 0
2, 92024, Note_on_c, 0, 56, 127
2, 92028, Note_on_c, 0, 71, 127
2, 92032, Note_off_c, 0, 73, 0
2, 92032, Note_off_c, 0, 70, 0
2, 92036, Note_off_c, 0, 49, 0
2, 92040, Note_on_c, 0, 75, 127
2, 92100, Note_off_c, 0, 56, 0
2, 92100, Note_off_c, 0, 71, 0
2, 92104, Note_on_c, 0, 70, 127
2, 92116, Note_on_c, 0, 73, 127
2, 92152, Note_off_c, 0, 75, 0
2, 92152, Note_off_c, 0, 73, 0
2, 92168, Note_on_c, 0, 71, 127
2, 92172, Note_off_c, 0, 70, 0
2, 92224, Note_on_c, 0, 75, 127
2, 92244, Note_off_c, 0, 71, 0
2, 92248, Note_on_c, 0, 70, 127
2, 92248, Note_on_c, 0, 73, 127
2, 92280, Note_off_c, 0, 73, 0
2, 92296, Note_off_c, 0, 75, 0
2, 92296, Note_off_c, 0, 70, 0
2, 92296, Note_on_c, 0, 71, 127
2, 92312, Note_on_c, 0, 54, 127
2, 92352, Note_on_c, 0, 75, 127
2, 92360, Note_on_c, 0, 70, 127
2, 92364, Note_off_c, 0, 71, 0
2, 92368, Note_on_c, 0, 73, 127
2, 92396, Note_off_c, 0, 54, 0
2, 92400, Note_off_c, 0, 73, 0
2, 92416, Note_off_c, 0, 75, 0
2, 92420, Note_on_c, 0, 71, 127
2, 92424, Note_on_c, 0, 56, 127
2, 92436, Note_off_c, 0, 70, 0
2, 92476, Note_on_c, 0, 75, 127
2, 92480, Note_on_c, 0, 70, 127
2, 92488, Note_on_c, 0, 73, 127
2, 92496, Note_off_c, 0, 71, 0
2, 92532, Note_off_c, 0, 56, 0
2, 92548, Note_off_c, 0, 75, 0
2, 92548, Note_off_c, 0, 73, 0
2, 92548, Note_on_c, 0, 71, 127
2, 92552, Note_off_c, 0, 70, 0
2, 92556, Note_on_c, 0, 58, 127
2, 92600, Note_on_c, 0, 75, 127
2, 92616, Note_off_c, 0, 58, 0
2, 92616, Note_on_c, 0, 70, 127
2, 92620, Note_off_c, 0, 71, 0
2, 92624, Note_on_c, 0, 73, 127
2, 92660, Note_off_c, 0, 73, 0
2, 92672, Note_off_c, 0, 75, 0
2, 92672, Note_on_c, 0, 71, 127
2, 92692, Note_off_c, 0, 70, 0
2, 92732, Note_on_c, 0, 75, 127
2, 92744, Note_on_c, 0, 70, 127
2, 92748, Note_off_c, 0, 71, 0
2, 92748, Note_on_c, 0, 73, 127
2, 92788, Note_off_c, 0, 73, 0
2, 92800, Note_off_c, 0, 75, 0
2, 92800, Note_on_c, 0, 71, 127
2, 92820, Note_off_c, 0, 70, 0
2, 92832, Note_on_c, 0, 49, 127
2, 92852, Note_on_c, 0, 75, 127
2, 92868, Note_on_c, 0, 70, 127
2, 92876, Note_off_c, 0, 71, 0
2, 92876, Note_on_c, 0, 73, 127
2, 92888, Note_off_c, 0, 49, 0
2, 92920, Note_off_c, 0, 73, 0
2, 92932, Note_on_c, 0, 71, 127
2, 92952, Note_off_c, 0, 70, 0
2, 93012, Note_on_c, 0, 70, 127
2, 93012, Note_on_c, 0, 73, 127
2, 93024, Note_off_c, 0, 71, 0
2, 93076, Note_off_c, 0, 73, 0
2, 93088, Note_off_c, 0, 70, 0
2, 93088, Note_on_c, 0, 71, 127
2, 93120, Note_on_c, 0, 42, 127
2, 93128, Note_on_c, 0, 70, 127
2, 93132, Note_on_c, 0, 73, 127
2, 93164, Note_off_c, 0, 75, 0
2, 93176, Note_off_c, 0, 71, 0
2, 93212, Control_c, 0, 64, 63
2, 93224, Control_c, 0, 64, 0
2, 93324, Control_c, 0, 64, 63
2, 93332, Control_c, 0, 64, 127
2, 93404, Note_off_c, 0, 73, 0
2, 93436, Note_off_c, 0, 70, 0
2, 93460, Note_on_c, 0, 72, 127
2, 93464, Note_on_c, 0, 49, 127
2, 93480, Note_on_c, 0, 69, 127
2, 93512, Note_off_c, 0, 42, 0
2, 93552, Note_off_c, 0, 72, 0
2, 93568, Note_off_c, 0, 49, 0
2, 93600, Note_off_c, 0, 69, 0
2, 93696, Note_on_c, 0, 73, 127
2, 93700, Note_on_c, 0, 70, 127
2, 93700, Note_on_c, 0, 56, 127
2, 93748, Note_off_c, 0, 70, 0
2, 93772, Note_off_c, 0, 56, 0
2, 93776, Note_off_c, 0, 73, 0
2, 93960, Note_on_c, 0, 54, 127
2, 93976, Note_on_c, 0, 77, 127
2, 93984, Note_on_c, 0, 71, 127
2, 94012, Note_on_c, 0, 75, 127
2, 94044, Note_off_c, 0, 77, 0
2, 94048, Control_c, 0, 64, 63
2, 94056, Control_c, 0, 64, 0
2, 94084, Note_on_c, 0, 56, 127
2, 94120, Note_off_c, 0, 54, 0
2, 94144, Control_c, 0, 64, 63
2, 94160, Control_c, 0, 64, 127
2, 94176, Note_off_c, 0, 71, 0
2, 94220, Note_on_c, 0, 70, 127
2, 94224, Note_on_c, 0, 73, 127
2, 94244, Note_on_c, 0, 58, 127
2, 94260, Note_off_c, 0, 75, 0
2, 94264, Note_off_c, 0, 56, 0
2, 94340, Note_off_c, 0, 70, 0
2, 94448, Note_off_c, 0, 58, 0
2, 94492, Note_on_c, 0, 70, 127
2, 94492, Note_on_c, 0, 61, 127
2, 94500, Note_on_c, 0, 66, 127
2, 94528, Note_off_c, 0, 73, 0
2, 94544, Note_off_c, 0, 61, 0
2, 94808, Note_on_c, 0, 42, 127
2, 94876, Note_on_c, 0, 75, 127
2, 94880, Note_on_c, 0, 78, 127
2, 94932, Control_c, 0, 64, 63
2, 94944, Control_c, 0, 64, 0
2, 95108, Control_c, 0, 64, 63
2, 95108, Control_c, 0, 64, 127
2, 95204, Note_off_c, 0, 66, 0
2, 95232, Note_off_c, 0, 70, 0
2, 95256, Note_off_c, 0, 78, 0
2, 95260, Note_on_c, 0, 49, 127
2, 95272, Note_off_c, 0, 75, 0
2, 95296, Note_off_c, 0, 42, 0
2, 95388, Note_on_c, 0, 77, 127
2, 95392, Note_on_c, 0, 73, 127
2, 95428, Note_off_c, 0, 49, 0
2, 95468, Note_off_c, 0, 73, 0
2, 95476, Note_off_c, 0, 77, 0
2, 95520, Note_on_c, 0, 56, 127
2, 95524, Note_on_c, 0, 75, 127
2, 95532, Note_on_c, 0, 71, 127
2, 95592, Note_off_c, 0, 56, 0
2, 95592, Note_off_c, 0, 71, 0
2, 95616, Note_off_c, 0, 75, 0
2, 95632, Note_on_c, 0, 73, 127
2, 95636, Note_on_c, 0, 77, 127
2, 95704, Note_off_c, 0, 73, 0
2, 95728, Note_off_c, 0, 77, 0
2, 95768, Note_on_c, 0, 54, 127
2, 95768, Note_on_c, 0, 77, 127
2, 95780, Note_on_c, 0, 73, 127
2, 95788, Control_c, 0, 64, 63
2, 95804, Control_c, 0, 64, 0
2, 95840, Control_c, 0, 64, 63
2, 95860, Control_c, 0, 64, 127
2, 95872, Note_off_c, 0, 77, 0
2, 95888, Note_on_c, 0, 75, 127
2, 95892, Note_on_c, 0, 71, 127
2, 95896, Note_on_c, 0, 56, 127
2, 95928, Note_off_c, 0, 54, 0
2, 95928, Note_off_c, 0, 73, 0
2, 96016, Note_off_c, 0, 75, 0
2, 96024, Note_off_c, 0, 71, 0
2, 96024, Note_on_c, 0, 73, 127
2, 96028, Note_on_c, 0, 58, 127
2, 96040, Note_on_c, 0, 70, 127
2, 96044, Note_off_c, 0, 56, 0
2, 96080, Note_off_c, 0, 58, 0
2, 96116, Note_off_c, 0, 70, 0
2, 96144, Note_on_c, 0, 75, 127
2, 96160, Note_off_c, 0, 73, 0
2, 96168, Note_on_c, 0, 71, 127
2, 96224, Note_off_c, 0, 71, 0
2, 96240, Note_off_c, 0, 75, 0
2, 96288, Note_on_c, 0, 75, 127
2, 96292, Note_on_c, 0, 49, 127
2, 96296, Control_c, 0, 64, 63
2, 96296, Note_on_c, 0, 71, 127
2, 96312, Control_c, 0, 64, 127
2, 96416, Note_on_c, 0, 73, 127
2, 96420, Note_on_c, 0, 70, 127
2, 96424, Note_off_c, 0, 71, 0
2, 96448, Note_off_c, 0, 75, 0
2, 96480, Note_off_c, 0, 73, 0
2, 96484, Note_off_c, 0, 70, 0
2, 96568, Note_off_c, 0, 49, 0
2, 96576, Note_on_c, 0, 42, 127
2, 96616, Note_on_c, 0, 70, 127
2, 96620, Note_on_c, 0, 66, 127
2, 96660, Control_c, 0, 64, 63
2, 96672, Control_c, 0, 64, 0
2, 96784, Control_c, 0, 64, 63
2, 96792, Control_c, 0, 64, 127
2, 96928, Note_on_c, 0, 49, 127
2, 97020, Note_off_c, 0, 42, 0
2, 97116, Note_off_c, 0, 66, 0
2, 97172, Note_off_c, 0, 49, 0
2, 97192, Note_on_c, 0, 56, 127
2, 97268, Note_off_c, 0, 56, 0
2, 97504, Note_on_c, 0, 54, 127
2, 97504, Note_on_c, 0, 63, 127
2, 97516, Control_c, 0, 64, 63
2, 97536, Control_c, 0, 64, 0
2, 97560, Control_c, 0, 64, 63
2, 97584, Control_c, 0, 64, 127
2, 97628, Note_on_c, 0, 56, 127
2, 97644, Note_on_c, 0, 64, 127
2, 97648, Note_off_c, 0, 63, 0
2, 97672, Note_off_c, 0, 54, 0
2, 97812, Note_on_c, 0, 66, 127
2, 97824, Control_c, 0, 64, 63
2, 97832, Note_off_c, 0, 64, 0
2, 97832, Note_on_c, 0, 58, 127
2, 97860, Note_off_c, 0, 56, 0
2, 97880, Control_c, 0, 64, 127
2, 97980, Note_on_c, 0, 64, 127
2, 98048, Note_off_c, 0, 66, 0
2, 98068, Note_off_c, 0, 58, 0
2, 98184, Note_on_c, 0, 68, 127
2, 98200, Note_on_c, 0, 61, 127
2, 98220, Note_off_c, 0, 64, 0
2, 98328, Note_off_c, 0, 61, 0
2, 98372, Note_off_c, 0, 70, 0
2, 98392, Note_on_c, 0, 66, 127
2, 98464, Note_off_c, 0, 68, 0
2, 98512, Note_off_c, 0, 66, 0
2, 98644, Note_on_c, 0, 63, 127
2, 98676, Control_c, 0, 64, 63
2, 98684, Control_c, 0, 64, 0
2, 98692, Note_on_c, 0, 30, 127
2, 98748, Control_c, 0, 64, 63
2, 98756, Control_c, 0, 64, 127
2, 98896, Note_on_c, 0, 71, 127
2, 98952, Note_off_c, 0, 30, 0
2, 98960, Note_off_c, 0, 63, 0
2, 99048, Note_off_c, 0, 71, 0
2, 99048, Note_on_c, 0, 78, 127
2, 99104, Note_off_c, 0, 78, 0
2, 99164, Note_on_c, 0, 54, 127
2, 99484, Note_on_c, 0, 61, 127
2, 99556, Control_c, 0, 64, 63
2, 99576, Control_c, 0, 64, 0
2, 99768, Note_on_c, 0, 59, 127
2, 99776, Note_off_c, 0, 61, 0
2, 99784, Note_on_c, 0, 78, 127
2, 99788, Note_on_c, 0, 75, 127
2, 99904, Control_c, 0, 64, 127
2, 99924, Note_on_c, 0, 61, 127
2, 99944, Note_on_c, 0, 80, 127
2, 99960, Note_on_c, 0, 77, 127
2, 99968, Note_off_c, 0, 78, 0
2, 99996, Note_off_c, 0, 75, 0
2, 100016, Note_off_c, 0, 59, 0
2, 100068, Note_off_c, 0, 80, 0
2, 100084, Note_on_c, 0, 63, 127
2, 100088, Note_on_c, 0, 80, 127
2, 100096, Note_on_c, 0, 75, 127
2, 100100, Note_on_c, 0, 78, 127
2, 100108, Note_off_c, 0, 61, 0
2, 100132, Note_off_c, 0, 77, 0
2, 100148, Note_off_c, 0, 80, 0
2, 100152, Note_off_c, 0, 54, 0
2, 100184, Note_off_c, 0, 63, 0
2, 100200, Note_on_c, 0, 77, 127
2, 100208, Note_off_c, 0, 78, 0
2, 100216, Note_on_c, 0, 80, 127
2, 100232, Note_off_c, 0, 75, 0
2, 100316, Note_on_c, 0, 78, 127
2, 100316, Note_on_c, 0, 75, 127
2, 100336, Note_off_c, 0, 77, 0
2, 100368, Note_off_c, 0, 80, 0
2, 100412, Note_on_c, 0, 77, 127
2, 100416, Note_off_c, 0, 78, 0
2, 100416, Note_on_c, 0, 54, 127
2, 100432, Note_off_c, 0, 75, 0
2, 100436, Note_on_c, 0, 80, 127
2, 100468, Note_off_c, 0, 54, 0
2, 100512, Note_on_c, 0, 75, 127
2, 100516, Note_on_c, 0, 78, 127
2, 100524, Note_off_c, 0, 77, 0
2, 100564, Note_off_c, 0, 80, 0
2, 100580, Note_off_c, 0, 78, 0
2, 100588, Note_on_c, 0, 77, 127
2, 100608, Note_off_c, 0, 75, 0
2, 100636, Note_on_c, 0, 80, 127
2, 100664, Note_on_c, 0, 75, 127
2, 100672, Note_off_c, 0, 77, 0
2, 100680, Note_on_c, 0, 78, 127
2, 100688, Note_on_c, 0, 42, 127
2, 100704, Note_off_c, 0, 78, 0
2, 100716, Note_off_c, 0, 80, 0
2, 100728, Note_on_c, 0, 77, 127
2, 100748, Note_off_c, 0, 75, 0
2, 100784, Note_on_c, 0, 80, 127
2, 100792, Note_on_c, 0, 78, 127
2, 100800, Note_off_c, 0, 77, 0
2, 100808, Note_on_c, 0, 75, 127
2, 100840, Note_off_c, 0, 78, 0
2, 100852, Note_on_c, 0, 77, 127
2, 100860, Note_off_c, 0, 80, 0
2, 100876, Note_off_c, 0, 75, 0
2, 100912, Note_on_c, 0, 80, 127
2, 100920, Note_off_c, 0, 77, 0
2, 100920, Note_on_c, 0, 78, 127
2, 100924, Note_on_c, 0, 75, 127
2, 100956, Note_off_c, 0, 78, 0
2, 100960, Note_off_c, 0, 42, 0
2, 100964, Note_on_c, 0, 54, 127
2, 100976, Note_off_c, 0, 80, 0
2, 100976, Note_on_c, 0, 77, 127
2, 100996, Note_off_c, 0, 75, 0
2, 101020, Note_on_c, 0, 80, 127
2, 101024, Note_off_c, 0, 54, 0
2, 101040, Note_off_c, 0, 77, 0
2, 101040, Note_on_c, 0, 78, 127
2, 101048, Note_on_c, 0, 75, 127
2, 101072, Note_off_c, 0, 78, 0
2, 101092, Note_on_c, 0, 77, 127
2, 101096, Note_off_c, 0, 80, 0
2, 101116, Note_off_c, 0, 75, 0
2, 101144, Note_on_c, 0, 80, 127
2, 101160, Note_off_c, 0, 77, 0
2, 101160, Note_on_c, 0, 78, 127
2, 101160, Note_on_c, 0, 75, 127
2, 101188, Note_off_c, 0, 78, 0
2, 101200, Note_off_c, 0, 80, 0
2, 101204, Note_on_c, 0, 77, 127
2, 101224, Note_on_c, 0, 61, 127
2, 101228, Note_off_c, 0, 75, 0
2, 101264, Note_on_c, 0, 80, 127
2, 101280, Note_off_c, 0, 77, 0
2, 101280, Note_on_c, 0, 78, 127
2, 101284, Note_on_c, 0, 75, 127
2, 101288, Note_off_c, 0, 61, 0
2, 101304, Note_off_c, 0, 78, 0
2, 101324, Note_on_c, 0, 77, 127
2, 101336, Note_off_c, 0, 80, 0
2, 101352, Note_off_c, 0, 75, 0
2, 101388, Note_on_c, 0, 80, 127
2, 101396, Note_off_c, 0, 77, 0
2, 101400, Note_on_c, 0, 78, 127
2, 101416, Note_on_c, 0, 75, 127
2, 101432, Note_off_c, 0, 78, 0
2, 101456, Note_on_c, 0, 77, 127
2, 101464, Note_off_c, 0, 80, 0
2, 101480, Note_off_c, 0, 75, 0
2, 101484, Note_on_c, 0, 59, 127
2, 101532, Note_on_c, 0, 80, 127
2, 101536, Note_on_c, 0, 78, 127
2, 101544, Note_off_c, 0, 77, 0
2, 101560, Note_on_c, 0, 75, 127
2, 101584, Note_on_c, 0, 61, 127
2, 101596, Note_off_c, 0, 80, 0
2, 101596, Note_off_c, 0, 78, 0
2, 101616, Note_on_c, 0, 77, 127
2, 101624, Note_off_c, 0, 59, 0
2, 101648, Note_off_c, 0, 75, 0
2, 101680, Note_on_c, 0, 80, 127
2, 101692, Note_on_c, 0, 78, 127
2, 101696, Note_off_c, 0, 77, 0
2, 101724, Note_on_c, 0, 75, 127
2, 101732, Note_on_c, 0, 63, 127
2, 101744, Note_off_c, 0, 78, 0
2, 101760, Note_on_c, 0, 77, 127
2, 101772, Note_off_c, 0, 61, 0
2, 101776, Note_off_c, 0, 80, 0
2, 101800, Note_off_c, 0, 75, 0
2, 101836, Note_on_c, 0, 80, 127
2, 101844, Note_on_c, 0, 78, 127
2, 101888, Note_off_c, 0, 80, 0
2, 101896, Note_on_c, 0, 75, 127
2, 101936, Note_off_c, 0, 77, 0
2, 101936, Note_off_c, 0, 78, 0
2, 102000, Note_off_c, 0, 63, 0
2, 102016, Note_on_c, 0, 78, 127
2, 102024, Note_on_c, 0, 66, 127
2, 102104, Note_off_c, 0, 66, 0
2, 102132, Note_off_c, 0, 75, 0
2, 102152, Note_on_c, 0, 74, 127
2, 102156, Note_on_c, 0, 77, 127
2, 102180, Note_off_c, 0, 78, 0
2, 102244, Note_on_c, 0, 78, 127
2, 102252, Note_on_c, 0, 75, 127
2, 102276, Note_off_c, 0, 74, 0
2, 102280, Note_off_c, 0, 77, 0
2, 102304, Note_off_c, 0, 75, 0
2, 102316, Note_off_c, 0, 78, 0
2, 102420, Note_on_c, 0, 42, 127
2, 102472, Note_on_c, 0, 83, 127
2, 102476, Note_on_c, 0, 80, 127
2, 102568, Control_c, 0, 64, 63
2, 102576, Control_c, 0, 64, 0
2, 102624, Control_c, 0, 64, 63
2, 102640, Control_c, 0, 64, 127
2, 102780, Note_off_c, 0, 83, 0
2, 102824, Note_on_c, 0, 54, 127
2, 102832, Note_off_c, 0, 42, 0
2, 102896, Note_off_c, 0, 80, 0
2, 102896, Note_off_c, 0, 54, 0
2, 102980, Note_on_c, 0, 82, 127
2, 102984, Note_on_c, 0, 78, 127
2, 103112, Note_off_c, 0, 78, 0
2, 103116, Note_off_c, 0, 82, 0
2, 103144, Note_on_c, 0, 80, 127
2, 103144, Note_on_c, 0, 61, 127
2, 103152, Note_on_c, 0, 77, 127
2, 103228, Note_off_c, 0, 77, 0
2, 103232, Note_off_c, 0, 61, 0
2, 103252, Note_on_c, 0, 82, 127
2, 103256, Note_on_c, 0, 78, 127
2, 103304, Note_off_c, 0, 80, 0
2, 103344, Note_off_c, 0, 82, 0
2, 103344, Note_off_c, 0, 78, 0
2, 103344, Control_c, 0, 64, 63
2, 103376, Control_c, 0, 64, 127
2, 103396, Note_on_c, 0, 82, 127
2, 103400, Note_on_c, 0, 59, 127
2, 103412, Note_on_c, 0, 78, 127
2, 103456, Note_off_c, 0, 82, 0
2, 103456, Note_off_c, 0, 78, 0
2, 103568, Note_off_c, 0, 59, 0
2, 103604, Note_on_c, 0, 70, 127
2, 103612, Note_on_c, 0, 61, 127
2, 103612, Note_on_c, 0, 73, 127
2, 103668, Note_off_c, 0, 70, 0
2, 103716, Note_off_c, 0, 73, 0
2, 103744, Note_off_c, 0, 61, 0
2, 103752, Note_on_c, 0, 80, 127
2, 103768, Note_on_c, 0, 63, 127
2, 103776, Note_on_c, 0, 78, 127
2, 103776, Note_on_c, 0, 77, 127
2, 103820, Note_off_c, 0, 78, 0
2, 103824, Note_off_c, 0, 80, 0
2, 103832, Note_off_c, 0, 63, 0
2, 103856, Note_off_c, 0, 77, 0
2, 103884, Note_on_c, 0, 71, 127
2, 103900, Note_on_c, 0, 68, 127
2, 103988, Note_off_c, 0, 68, 0
2, 104016, Note_off_c, 0, 71, 0
2, 104020, Note_on_c, 0, 78, 127
2, 104024, Note_on_c, 0, 75, 127
2, 104036, Note_on_c, 0, 54, 127
2, 104080, Note_off_c, 0, 54, 0
2, 104120, Note_on_c, 0, 73, 127
2, 104132, Note_on_c, 0, 72, 127
2, 104144, Note_on_c, 0, 69, 127
2, 104160, Note_off_c, 0, 73, 0
2, 104176, Note_off_c, 0, 78, 0
2, 104188, Note_off_c, 0, 75, 0
2, 104248, Note_off_c, 0, 72, 0
2, 104296, Note_off_c, 0, 69, 0
2, 104316, Note_on_c, 0, 71, 127
2, 104320, Note_on_c, 0, 75, 127
2, 104328, Note_on_c, 0, 42, 127
2, 104360, Control_c, 0, 64, 63
2, 104368, Control_c, 0, 64, 0
2, 104424, Control_c, 0, 64, 63
2, 104440, Control_c, 0, 64, 127
2, 104604, Note_off_c, 0, 71, 0
2, 104620, Note_on_c, 0, 70, 127
2, 104624, Note_on_c, 0, 73, 127
2, 104640, Note_on_c, 0, 49, 127
2, 104652, Note_off_c, 0, 75, 0
2, 104672, Note_off_c, 0, 70, 0
2, 104680, Note_off_c, 0, 73, 0
2, 104824, Note_off_c, 0, 42, 0
2, 104896, Note_off_c, 0, 49, 0
2, 104896, Note_on_c, 0, 56, 127
2, 104900, Note_on_c, 0, 61, 127
2, 104900, Note_on_c, 0, 68, 127
2, 104992, Note_off_c, 0, 56, 0
2, 105052, Note_off_c, 0, 61, 0
2, 105168, Note_off_c, 0, 68, 0
2, 105224, Note_on_c, 0, 54, 127
2, 105228, Note_on_c, 0, 70, 127
2, 105244, Note_on_c, 0, 66, 127
2, 105360, Note_on_c, 0, 56, 127
2, 105380, Control_c, 0, 64, 63
2, 105392, Control_c, 0, 64, 0
2, 105432, Note_off_c, 0, 54, 0
2, 105536, Control_c, 0, 64, 63
2, 105544, Control_c, 0, 64, 127
2, 105564, Note_on_c, 0, 58, 127
2, 105592, Note_off_c, 0, 56, 0
2, 105796, Control_c, 0, 64, 63
2, 105804, Control_c, 0, 64, 0
2, 105864, Control_c, 0, 64, 63
2, 105872, Control_c, 0, 64, 127
2, 105944, Note_on_c, 0, 49, 127
2, 106060, Note_off_c, 0, 58, 0
2, 106120, Note_off_c, 0, 70, 0
2, 106128, Note_off_c, 0, 49, 0
2, 106136, Note_off_c, 0, 66, 0
2, 106432, Note_on_c, 0, 30, 127
2, 106476, Control_c, 0, 64, 63
2, 106480, Control_c, 0, 64, 0
2, 106512, Note_on_c, 0, 64, 127
2, 106528, Control_c, 0, 64, 63
2, 106536, Control_c, 0, 64, 127
2, 106580, Note_on_c, 0, 70, 127
2, 106608, Note_off_c, 0, 64, 0
2, 106672, Note_off_c, 0, 70, 0
2, 106692, Note_off_c, 0, 30, 0
2, 106740, Note_on_c, 0, 80, 127
2, 107132, Note_on_c, 0, 49, 127
2, 107416, Note_on_c, 0, 56, 127
2, 107424, Note_off_c, 0, 49, 0
2, 107428, Note_off_c, 0, 80, 0
2, 107568, Note_off_c, 0, 56, 0
2, 107704, Note_on_c, 0, 54, 127
2, 107704, Note_on_c, 0, 80, 127
2, 107720, Note_on_c, 0, 76, 127
2, 107720, Note_on_c, 0, 70, 127
2, 107748, Control_c, 0, 64, 63
2, 107752, Control_c, 0, 64, 0
2, 107816, Control_c, 0, 64, 63
2, 107828, Control_c, 0, 64, 127
2, 107864, Note_on_c, 0, 56, 127
2, 107880, Note_off_c, 0, 54, 0
2, 107992, Note_off_c, 0, 56, 0
2, 108004, Note_on_c, 0, 58, 127
2, 108136, Control_c, 0, 64, 63
2, 108144, Control_c, 0, 64, 0
2, 108184, Control_c, 0, 64, 63
2, 108192, Control_c, 0, 64, 127
2, 108288, Note_on_c, 0, 49, 127
2, 108348, Note_off_c, 0, 58, 0
2, 108560, Note_on_c, 0, 42, 127
2, 108572, Control_c, 0, 64, 63
2, 108576, Control_c, 0, 64, 0
2, 108616, Control_c, 0, 64, 63
2, 108628, Control_c, 0, 64, 127
2, 108648, Note_off_c, 0, 49, 0
2, 108804, Note_off_c, 0, 76, 0
2, 108816, Note_off_c, 0, 70, 0
2, 108884, Note_off_c, 0, 80, 0
2, 108908, Note_on_c, 0, 78, 127
2, 108916, Note_on_c, 0, 70, 127
2, 108920, Note_on_c, 0, 75, 127
2, 108928, Note_on_c, 0, 49, 127
2, 108948, Note_off_c, 0, 42, 0
2, 108948, Note_off_c, 0, 75, 0
2, 108960, Note_off_c, 0, 70, 0
2, 108976, Note_off_c, 0, 78, 0
2, 108976, Note_off_c, 0, 49, 0
2, 109240, Note_on_c, 0, 76, 127
2, 109248, Note_on_c, 0, 61, 127
2, 109252, Note_on_c, 0, 70, 127
2, 109252, Note_on_c, 0, 68, 127
2, 109272, Note_on_c, 0, 54, 127
2, 109276, Note_off_c, 0, 61, 0
2, 109300, Note_off_c, 0, 54, 0
2, 109304, Note_off_c, 0, 70, 0
2, 109312, Note_off_c, 0, 76, 0
2, 109320, Note_off_c, 0, 68, 0
2, 109516, Control_c, 0, 64, 63
2, 109532, Note_on_c, 0, 75, 127
2, 109536, Note_on_c, 0, 66, 127
2, 109540, Note_on_c, 0, 35, 127
2, 109544, Note_on_c, 0, 71, 127
2, 109548, Control_c, 0, 64, 127
2, 109592, Note_off_c, 0, 66, 0
2, 109596, Note_off_c, 0, 71, 0
2, 109620, Note_off_c, 0, 75, 0
2, 109660, Note_on_c, 0, 73, 127
2, 109664, Note_on_c, 0, 64, 127
2, 109664, Note_on_c, 0, 66, 127
2, 109716, Note_off_c, 0, 64, 0
2, 109724, Note_off_c, 0, 73, 0
2, 109736, Note_off_c, 0, 66, 0
2, 109816, Note_off_c, 0, 35, 0
2, 109844, Note_on_c, 0, 71, 127
2, 109848, Note_on_c, 0, 42, 127
2, 109852, Note_on_c, 0, 63, 127
2, 109856, Note_on_c, 0, 66, 127
2, 109928, Control_c, 0, 64, 63
2, 109964, Control_c, 0, 64, 127
2, 110080, Note_off_c, 0, 42, 0
2, 110148, Note_off_c, 0, 63, 0
2, 110164, Note_off_c, 0, 66, 0
2, 110168, Note_off_c, 0, 71, 0
2, 110196, Note_on_c, 0, 54, 127
2, 110256, Note_off_c, 0, 54, 0
2, 110408, Control_c, 0, 64, 63
2, 110412, Note_on_c, 0, 66, 127
2, 110416, Note_on_c, 0, 72, 127
2, 110416, Control_c, 0, 64, 0
2, 110436, Control_c, 0, 64, 63
2, 110452, Control_c, 0, 64, 127
2, 110504, Note_off_c, 0, 66, 0
2, 110552, Note_off_c, 0, 72, 0
2, 110608, Note_on_c, 0, 32, 127
2, 110648, Note_on_c, 0, 82, 127
2, 110704, Note_off_c, 0, 32, 0
2, 111036, Note_on_c, 0, 51, 127
2, 111268, Note_off_c, 0, 82, 0
2, 111304, Note_on_c, 0, 58, 127
2, 111440, Note_off_c, 0, 58, 0
2, 111564, Note_on_c, 0, 56, 127
2, 111572, Note_on_c, 0, 82, 127
2, 111576, Note_on_c, 0, 78, 127
2, 111584, Note_on_c, 0, 72, 127
2, 111676, Control_c, 0, 64, 63
2, 111680, Note_on_c, 0, 58, 127
2, 111684, Control_c, 0, 64, 0
2, 111744, Note_off_c, 0, 56, 0
2, 111824, Control_c, 0, 64, 63
2, 111828, Control_c, 0, 64, 127
2, 111832, Note_on_c, 0, 60, 127
2, 111872, Note_off_c, 0, 58, 0
2, 111920, Note_off_c, 0, 51, 0
2, 112100, Note_on_c, 0, 51, 127
2, 112104, Note_off_c, 0, 60, 0
2, 112356, Note_on_c, 0, 44, 127
2, 112424, Control_c, 0, 64, 63
2, 112436, Note_off_c, 0, 51, 0
2, 112436, Control_c, 0, 64, 0
2, 112444, Note_off_c, 0, 78, 0
2, 112472, Control_c, 0, 64, 63
2, 112492, Control_c, 0, 64, 127
2, 112616, Note_off_c, 0, 82, 0
2, 112624, Note_off_c, 0, 72, 0
2, 112672, Note_on_c, 0, 51, 127
2, 112676, Note_on_c, 0, 80, 127
2, 112676, Note_on_c, 0, 77, 127
2, 112684, Note_on_c, 0, 72, 127
2, 112704, Note_off_c, 0, 44, 0
2, 112748, Note_off_c, 0, 77, 0
2, 112752, Note_off_c, 0, 72, 0
2, 112760, Note_off_c, 0, 51, 0
2, 112764, Note_off_c, 0, 80, 0
2, 113000, Note_on_c, 0, 78, 127
2, 113004, Note_on_c, 0, 63, 127
2, 113008, Note_on_c, 0, 70, 127
2, 113016, Note_on_c, 0, 56, 127
2, 113016, Note_on_c, 0, 72, 127
2, 113056, Note_off_c, 0, 63, 0
2, 113056, Note_off_c, 0, 56, 0
2, 113092, Note_off_c, 0, 78, 0
2, 113104, Note_off_c, 0, 72, 0
2, 113108, Note_off_c, 0, 70, 0
2, 113296, Note_on_c, 0, 77, 127
2, 113296, Control_c, 0, 64, 63
2, 113304, Note_on_c, 0, 37, 127
2, 113304, Note_on_c, 0, 68, 127
2, 113308, Control_c, 0, 64, 0
2, 113312, Note_on_c, 0, 73, 127
2, 113332, Control_c, 0, 64, 63
2, 113352, Note_off_c, 0, 68, 0
2, 113352, Note_off_c, 0, 73, 0
2, 113352, Control_c, 0, 64, 127
2, 113356, Note_off_c, 0, 77, 0
2, 113396, Note_off_c, 0, 37, 0
2, 113440, Note_on_c, 0, 75, 127
2, 113444, Note_on_c, 0, 66, 127
2, 113456, Note_on_c, 0, 68, 127
2, 113520, Note_off_c, 0, 68, 0
2, 113528, Note_off_c, 0, 75, 0
2, 113528, Note_off_c, 0, 66, 0
2, 113612, Note_on_c, 0, 73, 127
2, 113616, Note_on_c, 0, 68, 127
2, 113616, Note_on_c, 0, 44, 127
2, 113616, Note_on_c, 0, 65, 127
2, 113656, Note_off_c, 0, 65, 0
2, 113660, Note_off_c, 0, 68, 0
2, 113684, Note_off_c, 0, 44, 0
2, 113688, Note_off_c, 0, 73, 0
2, 113940, Note_on_c, 0, 56, 127
2, 113940, Note_on_c, 0, 77, 127
2, 113944, Note_on_c, 0, 73, 127
2, 113952, Note_on_c, 0, 68, 127
2, 113976, Note_off_c, 0, 68, 0
2, 113992, Note_off_c, 0, 73, 0
2, 114000, Note_off_c, 0, 56, 0
2, 114008, Note_off_c, 0, 77, 0
2, 114156, Note_on_c, 0, 68, 127
2, 114164, Note_on_c, 0, 77, 127
2, 114192, Control_c, 0, 64, 63
2, 114228, Control_c, 0, 64, 127
2, 114280, Note_off_c, 0, 68, 0
2, 114344, Note_on_c, 0, 37, 127
2, 114352, Note_on_c, 0, 83, 127
2, 114392, Note_off_c, 0, 77, 0
2, 114412, Note_off_c, 0, 83, 0
2, 114424, Note_off_c, 0, 37, 0
2, 114684, Note_on_c, 0, 44, 127
2, 114932, Note_on_c, 0, 56, 127
2, 114984, Note_off_c, 0, 56, 0
2, 114996, Note_off_c, 0, 44, 0
2, 115084, Control_c, 0, 64, 63
2, 115092, Control_c, 0, 64, 0
2, 115096, Note_on_c, 0, 76, 127
2, 115096, Note_on_c, 0, 68, 127
2, 115120, Control_c, 0, 64, 63
2, 115136, Control_c, 0, 64, 127
2, 115196, Note_off_c, 0, 68, 0
2, 115256, Note_off_c, 0, 76, 0
2, 115324, Note_on_c, 0, 38, 127
2, 115336, Note_on_c, 0, 83, 127
2, 115384, Note_off_c, 0, 83, 0
2, 115404, Note_off_c, 0, 38, 0
2, 115680, Note_on_c, 0, 44, 127
2, 115976, Note_on_c, 0, 56, 127
2, 116032, Note_off_c, 0, 56, 0
2, 116048, Note_off_c, 0, 44, 0
2, 116140, Note_on_c, 0, 75, 127
2, 116140, Note_on_c, 0, 68, 127
2, 116276, Note_off_c, 0, 68, 0
2, 116420, Note_on_c, 0, 39, 127
2, 116428, Note_on_c, 0, 83, 127
2, 116456, Control_c, 0, 64, 63
2, 116496, Control_c, 0, 64, 127
2, 116588, Note_off_c, 0, 39, 0
2, 116604, Note_off_c, 0, 83, 0
2, 116632, Note_off_c, 0, 75, 0
2, 116776, Note_on_c, 0, 85, 127
2, 116784, Note_on_c, 0, 76, 127
2, 116820, Note_off_c, 0, 76, 0
2, 116836, Note_off_c, 0, 85, 0
2, 116872, Note_on_c, 0, 51, 127
2, 116888, Note_on_c, 0, 83, 127
2, 116888, Note_on_c, 0, 75, 127
2, 116924, Note_off_c, 0, 75, 0
2, 116936, Note_off_c, 0, 83, 0
2, 117240, Note_on_c, 0, 63, 127
2, 117296, Note_off_c, 0, 63, 0
2, 117324, Note_off_c, 0, 51, 0
2, 117480, Note_on_c, 0, 82, 127
2, 117492, Note_on_c, 0, 73, 127
2, 117496, Note_on_c, 0, 75, 127
2, 117516, Note_off_c, 0, 73, 0
2, 117520, Note_off_c, 0, 75, 0
2, 117536, Note_off_c, 0, 82, 0
2, 117568, Note_on_c, 0, 82, 127
2, 117576, Note_on_c, 0, 73, 127
2, 117576, Note_on_c, 0, 75, 127
2, 117584, Note_on_c, 0, 39, 127
2, 117652, Note_off_c, 0, 73, 0
2, 117652, Note_off_c, 0, 39, 0
2, 117656, Note_off_c, 0, 75, 0
2, 117660, Note_off_c, 0, 82, 0
2, 117784, Note_on_c, 0, 83, 127
2, 117796, Note_on_c, 0, 75, 127
2, 117820, Note_off_c, 0, 75, 0
2, 117840, Note_off_c, 0, 83, 0
2, 117868, Note_on_c, 0, 51, 127
2, 117876, Note_on_c, 0, 82, 127
2, 117880, Note_on_c, 0, 73, 127
2, 117924, Note_off_c, 0, 73, 0
2, 117944, Note_off_c, 0, 82, 0
2, 118132, Note_on_c, 0, 63, 127
2, 118136, Note_on_c, 0, 61, 127
2, 118144, Note_on_c, 0, 73, 127
2, 118144, Note_on_c, 0, 70, 127
2, 118144, Note_on_c, 0, 75, 127
2, 118152, Note_on_c, 0, 55, 127
2, 118176, Note_off_c, 0, 63, 0
2, 118188, Note_off_c, 0, 61, 0
2, 118200, Note_off_c, 0, 70, 0
2, 118200, Note_off_c, 0, 55, 0
2, 118204, Note_off_c, 0, 73, 0
2, 118224, Note_off_c, 0, 51, 0
2, 118228, Note_off_c, 0, 75, 0
2, 118416, Note_on_c, 0, 44, 127
2, 118420, Note_on_c, 0, 80, 127
2, 118424, Note_on_c, 0, 73, 127
2, 118428, Note_on_c, 0, 68, 127
2, 118468, Control_c, 0, 64, 63
2, 118476, Control_c, 0, 64, 0
2, 118548, Control_c, 0, 64, 63
2, 118560, Control_c, 0, 64, 127
2, 118600, Note_off_c, 0, 68, 0
2, 118640, Note_off_c, 0, 73, 0
2, 118640, Note_on_c, 0, 75, 127
2, 118700, Note_on_c, 0, 73, 127
2, 118704, Note_on_c, 0, 51, 127
2, 118728, Note_off_c, 0, 44, 0
2, 118752, Note_off_c, 0, 80, 0
2, 118768, Note_off_c, 0, 75, 0
2, 118772, Note_off_c, 0, 51, 0
2, 118960, Note_on_c, 0, 71, 127
2, 118960, Note_on_c, 0, 63, 127
2, 118968, Note_on_c, 0, 56, 127
2, 118972, Note_off_c, 0, 73, 0
2, 119024, Note_off_c, 0, 63, 0
2, 119032, Note_off_c, 0, 71, 0
2, 119040, Note_off_c, 0, 56, 0
2, 119224, Note_on_c, 0, 75, 127
2, 119228, Note_on_c, 0, 71, 127
2, 119228, Note_on_c, 0, 46, 127
2, 119232, Note_on_c, 0, 67, 127
2, 119304, Control_c, 0, 64, 63
2, 119316, Control_c, 0, 64, 0
2, 119372, Control_c, 0, 64, 63
2, 119384, Control_c, 0, 64, 127
2, 119420, Note_on_c, 0, 73, 127
2, 119432, Note_off_c, 0, 71, 0
2, 119476, Note_on_c, 0, 71, 127
2, 119496, Note_on_c, 0, 51, 127
2, 119528, Note_off_c, 0, 46, 0
2, 119568, Note_off_c, 0, 73, 0
2, 119748, Note_off_c, 0, 67, 0
2, 119812, Note_on_c, 0, 70, 127
2, 119824, Note_on_c, 0, 61, 127
2, 119824, Note_on_c, 0, 63, 127
2, 119856, Note_off_c, 0, 71, 0
2, 119856, Note_off_c, 0, 75, 0
2, 119880, Note_off_c, 0, 61, 0
2, 119880, Note_off_c, 0, 63, 0
2, 119892, Note_off_c, 0, 70, 0
2, 119896, Note_off_c, 0, 51, 0
2, 120168, Note_on_c, 0, 75, 127
2, 120168, Note_on_c, 0, 47, 127
2, 120172, Note_on_c, 0, 63, 127
2, 120172, Note_on_c, 0, 70, 127
2, 120384, Control_c, 0, 64, 63
2, 120392, Control_c, 0, 64, 0
2, 120472, Control_c, 0, 64, 63
2, 120484, Control_c, 0, 64, 127
2, 120572, Note_on_c, 0, 51, 127
2, 120576, Note_on_c, 0, 68, 127
2, 120612, Note_off_c, 0, 47, 0
2, 120648, Note_off_c, 0, 63, 0
2, 120652, Note_off_c, 0, 70, 0
2, 120672, Note_off_c, 0, 75, 0
2, 120684, Note_off_c, 0, 68, 0
2, 120860, Note_on_c, 0, 77, 127
2, 120864, Note_on_c, 0, 63, 127
2, 120872, Note_on_c, 0, 56, 127
2, 120916, Note_off_c, 0, 77, 0
2, 120924, Note_off_c, 0, 63, 0
2, 120960, Note_off_c, 0, 56, 0
2, 121148, Note_off_c, 0, 51, 0
2, 121156, Note_on_c, 0, 48, 127
2, 121160, Control_c, 0, 64, 63
2, 121176, Control_c, 0, 64, 0
2, 121184, Control_c, 0, 64, 63
2, 121188, Note_on_c, 0, 78, 127
2, 121192, Note_on_c, 0, 68, 127
2, 121196, Note_on_c, 0, 75, 127
2, 121204, Control_c, 0, 64, 127
2, 121264, Note_off_c, 0, 48, 0
2, 121280, Note_off_c, 0, 68, 0
2, 121316, Note_off_c, 0, 78, 0
2, 121316, Note_on_c, 0, 80, 127
2, 121324, Note_off_c, 0, 75, 0
2, 121376, Note_off_c, 0, 80, 0
2, 121428, Note_on_c, 0, 78, 127
2, 121500, Note_off_c, 0, 78, 0
2, 121508, Note_on_c, 0, 80, 127
2, 121564, Note_on_c, 0, 78, 127
2, 121600, Note_off_c, 0, 80, 0
2, 121624, Note_on_c, 0, 56, 127
2, 121664, Note_on_c, 0, 77, 127
2, 121708, Note_off_c, 0, 78, 0
2, 121856, Note_on_c, 0, 78, 127
2, 121860, Note_off_c, 0, 77, 0
2, 121960, Note_off_c, 0, 78, 0
2, 122072, Note_on_c, 0, 63, 127
2, 122080, Note_on_c, 0, 75, 127
2, 122084, Note_on_c, 0, 66, 127
2, 122088, Note_on_c, 0, 68, 127
2, 122144, Note_off_c, 0, 66, 0
2, 122152, Note_off_c, 0, 68, 0
2, 122160, Note_off_c, 0, 63, 0
2, 122192, Note_off_c, 0, 56, 0
2, 122196, Note_off_c, 0, 75, 0
2, 122368, Note_on_c, 0, 80, 127
2, 122380, Note_on_c, 0, 68, 127
2, 122420, Note_off_c, 0, 68, 0
2, 122424, Note_off_c, 0, 80, 0
2, 122792, Note_on_c, 0, 37, 127
2, 122800, Note_on_c, 0, 68, 127
2, 122808, Note_on_c, 0, 66, 127
2, 122808, Note_on_c, 0, 61, 127
2, 122924, Control_c, 0, 64, 63
2, 122928, Control_c, 0, 64, 0
2, 122992, Control_c, 0, 64, 63
2, 123000, Control_c, 0, 64, 127
2, 123180, Note_off_c, 0, 37, 0
2, 123204, Note_off_c, 0, 61, 0
2, 123220, Note_off_c, 0, 66, 0
2, 123248, Note_off_c, 0, 68, 0
2, 123440, Note_on_c, 0, 71, 127
2, 123444, Note_on_c, 0, 68, 127
2, 123456, Note_on_c, 0, 66, 127
2, 123456, Note_on_c, 0, 56, 127
2, 123456, Note_on_c, 0, 59, 127
2, 123472, Note_on_c, 0, 49, 127
2, 123604, Note_off_c, 0, 66, 0
2, 123620, Note_off_c, 0, 71, 0
2, 123624, Note_off_c, 0, 49, 0
2, 123628, Note_off_c, 0, 56, 0
2, 123640, Note_off_c, 0, 68, 0
2, 123656, Note_off_c, 0, 59, 0
2, 123904, Note_on_c, 0, 73, 127
2, 123908, Note_on_c, 0, 68, 127
2, 123912, Note_on_c, 0, 59, 127
2, 123912, Note_on_c, 0, 66, 127
2, 123912, Note_on_c, 0, 61, 127
2, 123916, Note_on_c, 0, 56, 127
2, 123960, Note_off_c, 0, 66, 0
2, 123968, Note_off_c, 0, 68, 0
2, 123980, Note_off_c, 0, 61, 0
2, 123984, Note_off_c, 0, 59, 0
2, 123992, Note_off_c, 0, 73, 0
2, 124000, Note_off_c, 0, 56, 0
2, 124248, Note_on_c, 0, 75, 127
2, 124256, Note_on_c, 0, 63, 127
2, 124256, Note_on_c, 0, 71, 127
2, 124256, Note_on_c, 0, 66, 127
2, 124260, Note_on_c, 0, 68, 127
2, 124260, Note_on_c, 0, 59, 127
2, 124268, Note_on_c, 0, 56, 127
2, 124316, Note_off_c, 0, 66, 0
2, 124324, Note_off_c, 0, 68, 0
2, 124328, Note_off_c, 0, 71, 0
2, 124336, Note_off_c, 0, 59, 0
2, 124352, Note_off_c, 0, 75, 0
2, 124352, Note_off_c, 0, 63, 0
2, 124352, Note_off_c, 0, 56, 0
2, 124584, Note_on_c, 0, 77, 127
2, 124600, Note_on_c, 0, 63, 127
2, 124600, Note_on_c, 0, 75, 127
2, 124600, Note_on_c, 0, 68, 127
2, 124600, Note_on_c, 0, 65, 127
2, 124604, Note_on_c, 0, 71, 127
2, 124608, Note_on_c, 0, 59, 127
2, 124612, Note_on_c, 0, 56, 127
2, 124644, Note_off_c, 0, 68, 0
2, 124652, Note_off_c, 0, 71, 0
2, 124664, Note_off_c, 0, 77, 0
2, 124676, Note_off_c, 0, 63, 0
2, 124684, Note_off_c, 0, 65, 0
2, 124684, Note_off_c, 0, 56, 0
2, 124692, Note_off_c, 0, 75, 0
2, 124696, Note_off_c, 0, 59, 0
2, 124908, Note_on_c, 0, 75, 127
2, 124908, Note_on_c, 0, 78, 127
2, 124916, Note_on_c, 0, 66, 127
2, 124920, Note_on_c, 0, 63, 127
2, 124924, Note_on_c, 0, 59, 127
2, 124928, Note_on_c, 0, 71, 127
2, 124928, Note_on_c, 0, 56, 104
2, 124976, Note_off_c, 0, 71, 0
2, 124976, Note_off_c, 0, 56, 0
2, 124980, Note_off_c, 0, 75, 0
2, 124984, Note_off_c, 0, 59, 0
2, 125008, Note_off_c, 0, 63, 0
2, 125012, Note_off_c, 0, 78, 0
2, 125020, Note_off_c, 0, 66, 0
2, 125216, Note_on_c, 0, 80, 127
2, 125228, Note_on_c, 0, 63, 127
2, 125232, Note_on_c, 0, 75, 127
2, 125232, Note_on_c, 0, 71, 127
2, 125232, Note_on_c, 0, 78, 127
2, 125232, Note_on_c, 0, 59, 127
2, 125232, Note_on_c, 0, 68, 127
2, 125240, Note_on_c, 0, 66, 127
2, 125300, Note_off_c, 0, 75, 0
2, 125304, Note_off_c, 0, 71, 0
2, 125320, Note_off_c, 0, 80, 0
2, 125320, Note_off_c, 0, 63, 0
2, 125320, Note_off_c, 0, 78, 0
2, 125328, Note_off_c, 0, 66, 0
2, 125332, Note_off_c, 0, 68, 0
2, 125336, Note_off_c, 0, 59, 0
2, 125576, Note_on_c, 0, 82, 127
2, 125588, Note_on_c, 0, 71, 127
2, 125588, Note_on_c, 0, 75, 127
2, 125592, Note_on_c, 0, 66, 127
2, 125592, Note_on_c, 0, 63, 127
2, 125592, Note_on_c, 0, 70, 127
2, 125596, Note_on_c, 0, 59, 127
2, 125600, Note_on_c, 0, 78, 127
2, 125640, Note_off_c, 0, 71, 0
2, 125648, Note_off_c, 0, 59, 0
2, 125652, Note_off_c, 0, 75, 0
2, 125660, Note_off_c, 0, 78, 0
2, 125664, Note_off_c, 0, 66, 0
2, 125664, Note_off_c, 0, 63, 0
2, 125664, Note_off_c, 0, 70, 0
2, 125672, Note_off_c, 0, 82, 0
2, 125976, Note_on_c, 0, 83, 127
2, 125984, Note_on_c, 0, 68, 127
2, 125988, Note_on_c, 0, 75, 127
2, 125988, Note_on_c, 0, 63, 127
2, 125996, Note_on_c, 0, 80, 127
2, 125996, Note_on_c, 0, 78, 127
2, 126000, Note_on_c, 0, 66, 127
2, 126056, Note_off_c, 0, 66, 0
2, 126060, Note_off_c, 0, 75, 0
2, 126064, Note_off_c, 0, 78, 0
2, 126080, Note_off_c, 0, 83, 0
2, 126088, Note_off_c, 0, 80, 0
2, 126092, Note_off_c, 0, 68, 0
2, 126096, Note_off_c, 0, 63, 0
2, 126444, Note_on_c, 0, 85, 127
2, 126444, Note_on_c, 0, 68, 127
2, 126452, Note_on_c, 0, 78, 127
2, 126452, Note_on_c, 0, 71, 127
2, 126456, Note_on_c, 0, 73, 127
2, 126464, Note_on_c, 0, 80, 127
2, 126464, Note_on_c, 0, 66, 127
2, 126472, Note_on_c, 0, 83, 127
2, 126528, Note_off_c, 0, 80, 0
2, 126548, Note_off_c, 0, 78, 0
2, 126552, Note_off_c, 0, 66, 0
2, 126560, Note_off_c, 0, 71, 0
2, 126560, Note_off_c, 0, 73, 0
2, 126568, Note_off_c, 0, 68, 0
2, 126576, Note_off_c, 0, 83, 0
2, 126584, Note_off_c, 0, 85, 0
2, 127144, Note_on_c, 0, 68, 52
2, 127152, Note_on_c, 0, 87, 127
2, 127156, Note_on_c, 0, 75, 108
2, 127156, Note_on_c, 0, 78, 127
2, 127160, Note_on_c, 0, 80, 127
2, 127172, Note_on_c, 0, 66, 127
2, 127172, Note_on_c, 0, 71, 127
2, 127176, Note_on_c, 0, 83, 127
2, 127224, Note_off_c, 0, 83, 0
2, 127236, Note_off_c, 0, 78, 0
2, 127244, Note_off_c, 0, 80, 0
2, 127252, Note_off_c, 0, 87, 0
2, 127256, Note_off_c, 0, 75, 0
2, 127264, Note_off_c, 0, 66, 0
2, 127268, Note_off_c, 0, 71, 0
2, 127272, Note_off_c, 0, 68, 0
2, 128212, Note_on_c, 0, 73, 127
2, 128224, Note_on_c, 0, 71, 127
2, 128224, Note_on_c, 0, 77, 127
2, 128224, Note_on_c, 0, 49, 127
2, 128228, Note_on_c, 0, 65, 120
2, 128236, Note_on_c, 0, 37, 127
2, 128432, Control_c, 0, 64, 63
2, 128500, Control_c, 0, 64, 0
2, 128612, Control_c, 0, 64, 63
2, 128616, Control_c, 0, 64, 127
2, 128792, Note_off_c, 0, 49, 0
2, 128824, Note_off_c, 0, 65, 0
2, 128836, Note_off_c, 0, 77, 0
2, 128864, Note_off_c, 0, 37, 0
2, 128872, Note_off_c, 0, 71, 0
2, 128896, Note_off_c, 0, 73, 0
2, 129116, Note_on_c, 0, 71, 127
2, 129280, Note_off_c, 0, 71, 0
2, 129284, Note_on_c, 0, 70, 127
2, 129292, Note_on_c, 0, 73, 127
2, 129292, Note_on_c, 0, 78, 127
2, 129300, Note_on_c, 0, 42, 127
2, 129304, Note_on_c, 0, 30, 127
2, 129348, Control_c, 0, 64, 63
2, 129356, Control_c, 0, 64, 0
2, 129436, Control_c, 0, 64, 63
2, 129444, Control_c, 0, 64, 127
2, 129552, Note_off_c, 0, 30, 0
2, 129592, Note_off_c, 0, 42, 0
2, 129860, Note_on_c, 0, 49, 127
2, 130140, Note_off_c, 0, 70, 0
2, 130164, Note_off_c, 0, 78, 0
2, 130168, Note_off_c, 0, 73, 0
2, 130268, Note_on_c, 0, 61, 127
2, 130348, Note_off_c, 0, 61, 0
2, 130648, Note_on_c, 0, 80, 127
2, 130660, Note_on_c, 0, 61, 127
2, 130660, Note_on_c, 0, 71, 127
2, 130780, Note_off_c, 0, 80, 0
2, 130844, Note_off_c, 0, 49, 0
2, 130856, Note_on_c, 0, 77, 127
2, 130864, Note_on_c, 0, 68, 127
2, 130880, Note_off_c, 0, 71, 0
2, 130936, Note_off_c, 0, 61, 0
2, 130940, Note_off_c, 0, 68, 0
2, 130980, Note_off_c, 0, 77, 0
2, 131000, Note_on_c, 0, 80, 127
2, 131024, Note_on_c, 0, 71, 127
2, 131068, Note_off_c, 0, 80, 0
2, 131128, Note_on_c, 0, 66, 127
2, 131140, Note_on_c, 0, 75, 127
2, 131144, Note_off_c, 0, 71, 0
2, 131192, Note_off_c, 0, 66, 0
2, 131244, Control_c, 0, 64, 63
2, 131264, Note_on_c, 0, 49, 127
2, 131280, Note_on_c, 0, 80, 127
2, 131284, Note_off_c, 0, 75, 0
2, 131288, Note_on_c, 0, 71, 127
2, 131288, Control_c, 0, 64, 127
2, 131348, Note_off_c, 0, 80, 0
2, 131376, Note_on_c, 0, 61, 127
2, 131396, Note_off_c, 0, 49, 0
2, 131424, Note_on_c, 0, 73, 127
2, 131432, Note_off_c, 0, 61, 0
2, 131448, Note_off_c, 0, 71, 0
2, 131588, Control_c, 0, 64, 63
2, 131592, Note_on_c, 0, 78, 127
2, 131596, Note_on_c, 0, 70, 127
2, 131596, Control_c, 0, 64, 0
2, 131600, Note_on_c, 0, 42, 127
2, 131624, Note_off_c, 0, 73, 0
2, 131672, Control_c, 0, 64, 63
2, 131676, Control_c, 0, 64, 127
2, 131744, Note_off_c, 0, 42, 0
2, 131928, Note_on_c, 0, 49, 127
2, 132136, Note_off_c, 0, 78, 0
2, 132176, Note_off_c, 0, 70, 0
2, 132284, Note_on_c, 0, 61, 127
2, 132372, Note_off_c, 0, 61, 0
2, 132640, Note_on_c, 0, 61, 127
2, 132640, Note_on_c, 0, 80, 127
2, 132664, Note_on_c, 0, 71, 127
2, 132776, Note_off_c, 0, 80, 0
2, 132840, Note_on_c, 0, 68, 127
2, 132844, Note_off_c, 0, 71, 0
2, 132876, Note_on_c, 0, 77, 127
2, 132892, Note_off_c, 0, 61, 0
2, 132936, Note_off_c, 0, 49, 0
2, 132944, Note_off_c, 0, 68, 0
2, 132988, Note_off_c, 0, 77, 0
2, 132992, Note_on_c, 0, 80, 127
2, 133020, Note_on_c, 0, 71, 127
2, 133068, Note_off_c, 0, 80, 0
2, 133104, Note_off_c, 0, 71, 0
2, 133140, Note_on_c, 0, 66, 127
2, 133144, Note_on_c, 0, 75, 127
2, 133176, Note_off_c, 0, 66, 0
2, 133264, Note_off_c, 0, 75, 0
2, 133316, Note_on_c, 0, 80, 127
2, 133320, Note_on_c, 0, 49, 127
2, 133332, Note_on_c, 0, 71, 127
2, 133356, Control_c, 0, 64, 63
2, 133392, Control_c, 0, 64, 127
2, 133408, Note_off_c, 0, 80, 0
2, 133480, Note_on_c, 0, 61, 127
2, 133488, Note_on_c, 0, 73, 127
2, 133496, Note_off_c, 0, 49, 0
2, 133520, Note_off_c, 0, 61, 0
2, 133532, Note_off_c, 0, 71, 0
2, 133692, Note_off_c, 0, 73, 0
2, 133728, Note_on_c, 0, 71, 127
2, 133752, Note_on_c, 0, 78, 127
2, 133760, Note_on_c, 0, 30, 127
2, 133772, Note_on_c, 0, 73, 127
2, 133776, Note_off_c, 0, 71, 0
2, 133780, Note_on_c, 0, 70, 127
2, 133788, Control_c, 0, 64, 63
2, 133800, Control_c, 0, 64, 0
2, 133880, Control_c, 0, 64, 63
2, 133888, Control_c, 0, 64, 127
2, 133960, Note_off_c, 0, 30, 0
2, 134168, Note_on_c, 0, 49, 127
2, 134288, Note_off_c, 0, 49, 0
2, 134352, Note_on_c, 0, 49, 68
2, 134436, Note_off_c, 0, 78, 0
2, 134504, Note_off_c, 0, 70, 0
2, 134524, Note_on_c, 0, 61, 127
2, 134540, Note_off_c, 0, 73, 0
2, 134800, Note_on_c, 0, 71, 127
2, 134896, Note_off_c, 0, 71, 0
2, 134908, Note_on_c, 0, 73, 127
2, 134916, Note_on_c, 0, 78, 127
2, 134916, Note_on_c, 0, 70, 127
2, 135156, Note_off_c, 0, 49, 0
2, 135228, Note_on_c, 0, 49, 127
2, 135268, Note_off_c, 0, 61, 0
2, 135300, Control_c, 0, 64, 63
2, 135344, Control_c, 0, 64, 127
2, 135584, Note_on_c, 0, 61, 127
2, 135640, Note_off_c, 0, 78, 0
2, 135644, Note_off_c, 0, 70, 0
2, 135652, Note_off_c, 0, 73, 0
2, 135872, Note_on_c, 0, 71, 127
2, 135956, Note_off_c, 0, 71, 0
2, 135968, Note_on_c, 0, 73, 127
2, 135972, Note_on_c, 0, 70, 127
2, 135984, Note_on_c, 0, 78, 127
2, 136092, Note_off_c, 0, 61, 0
2, 136152, Control_c, 0, 64, 63
2, 136188, Control_c, 0, 64, 0
2, 136232, Control_c, 0, 64, 63
2, 136236, Note_off_c, 0, 49, 0
2, 136256, Control_c, 0, 64, 127
2, 136272, Note_on_c, 0, 51, 127
2, 136344, Note_on_c, 0, 49, 127
2, 136352, Note_off_c, 0, 51, 0
2, 136608, Control_c, 0, 64, 63
2, 136628, Control_c, 0, 64, 0
2, 136724, Control_c, 0, 64, 63
2, 136728, Note_on_c, 0, 61, 127
2, 136736, Control_c, 0, 64, 127
2, 136904, Note_off_c, 0, 70, 0
2, 136916, Note_off_c, 0, 73, 0
2, 136920, Note_off_c, 0, 78, 0
2, 137068, Note_on_c, 0, 71, 127
2, 137168, Note_off_c, 0, 71, 0
2, 137184, Note_on_c, 0, 70, 127
2, 137188, Note_on_c, 0, 73, 127
2, 137216, Note_on_c, 0, 78, 127
2, 137332, Control_c, 0, 64, 63
2, 137384, Control_c, 0, 64, 0
2, 137440, Control_c, 0, 64, 63
2, 137464, Control_c, 0, 64, 127
2, 137544, Note_off_c, 0, 49, 0
2, 137552, Note_off_c, 0, 61, 0
2, 137572, Note_on_c, 0, 51, 127
2, 137656, Note_on_c, 0, 49, 127
2, 137668, Note_off_c, 0, 51, 0
2, 137828, Control_c, 0, 64, 63
2, 137884, Control_c, 0, 64, 0
2, 138136, Control_c, 0, 64, 63
2, 138156, Note_on_c, 0, 61, 127
2, 138168, Control_c, 0, 64, 127
2, 138268, Note_off_c, 0, 78, 0
2, 138292, Note_off_c, 0, 70, 0
2, 138312, Note_off_c, 0, 73, 0
2, 138880, Note_on_c, 0, 71, 127
2, 139004, Note_off_c, 0, 71, 0
2, 139048, Note_on_c, 0, 73, 127
2, 139060, Note_on_c, 0, 69, 104
2, 139092, Note_on_c, 0, 78, 127
2, 139204, Control_c, 0, 64, 63
2, 139220, Control_c, 0, 64, 0
2, 139336, Control_c, 0, 64, 63
2, 139344, Control_c, 0, 64, 127
2, 139508, Note_off_c, 0, 49, 0
2, 139568, Note_off_c, 0, 61, 0
2, 139748, Note_on_c, 0, 49, 127
2, 140256, Note_on_c, 0, 54, 127
2, 140292, Note_off_c, 0, 49, 0
2, 140668, Note_on_c, 0, 56, 127
2, 140724, Note_off_c, 0, 54, 0
2, 140736, Control_c, 0, 64, 63
2, 140936, Control_c, 0, 64, 127
2, 140980, Note_on_c, 0, 57, 127
2, 140996, Note_off_c, 0, 56, 0
2, 141232, Control_c, 0, 64, 63
2, 141280, Note_on_c, 0, 59, 127
2, 141280, Control_c, 0, 64, 0
2, 141340, Note_off_c, 0, 57, 0
2, 141512, Note_off_c, 0, 69, 0
2, 141548, Note_on_c, 0, 61, 127
2, 141584, Note_off_c, 0, 78, 0
2, 141604, Note_off_c, 0, 59, 0
2, 141612, Note_off_c, 0, 73, 0
2, 141832, Note_on_c, 0, 66, 127
2, 141872, Note_off_c, 0, 61, 0
2, 142112, Note_on_c, 0, 62, 127
2, 142204, Note_off_c, 0, 66, 0
2, 142336, Note_on_c, 0, 61, 127
2, 142384, Note_off_c, 0, 62, 0
2, 142560, Note_on_c, 0, 59, 127
2, 142588, Note_off_c, 0, 61, 0
2, 142776, Note_on_c, 0, 62, 127
2, 142800, Note_off_c, 0, 59, 0
2, 142996, Note_on_c, 0, 61, 127
2, 143024, Note_off_c, 0, 62, 0
2, 143236, Note_on_c, 0, 66, 127
2, 143256, Note_off_c, 0, 61, 0
2, 143452, Note_on_c, 0, 62, 127
2, 143476, Note_off_c, 0, 66, 0
2, 143656, Note_on_c, 0, 61, 127
2, 143696, Note_off_c, 0, 62, 0
2, 143840, Note_on_c, 0, 59, 127
2, 143888, Note_off_c, 0, 61, 0
2, 144028, Note_on_c, 0, 62, 127
2, 144064, Note_off_c, 0, 59, 0
2, 144236, Note_on_c, 0, 61, 127
2, 144268, Note_off_c, 0, 62, 0
2, 144500, Note_on_c, 0, 66, 127
2, 144524, Note_off_c, 0, 61, 0
2, 144728, Note_on_c, 0, 62, 127
2, 144804, Note_off_c, 0, 66, 0
2, 144968, Note_on_c, 0, 61, 127
2, 145036, Note_off_c, 0, 62, 0
2, 145264, Note_on_c, 0, 73, 127
2, 145432, Note_off_c, 0, 61, 0
2, 145560, Note_on_c, 0, 66, 127
2, 145680, Note_off_c, 0, 73, 0
2, 145796, Note_on_c, 0, 68, 127
2, 145844, Note_off_c, 0, 66, 0
2, 145996, Note_on_c, 0, 66, 127
2, 146064, Note_off_c, 0, 68, 0
2, 146200, Note_on_c, 0, 64, 127
2, 146220, Note_off_c, 0, 66, 0
2, 146388, Note_on_c, 0, 66, 127
2, 146416, Note_off_c, 0, 64, 0
2, 146592, Note_on_c, 0, 64, 127
2, 146636, Note_off_c, 0, 66, 0
2, 146784, Note_on_c, 0, 62, 127
2, 146804, Note_off_c, 0, 64, 0
2, 146972, Note_on_c, 0, 64, 127
2, 147004, Note_off_c, 0, 62, 0
2, 147152, Note_on_c, 0, 62, 127
2, 147184, Note_off_c, 0, 64, 0
2, 147328, Note_on_c, 0, 61, 127
2, 147388, Note_off_c, 0, 62, 0
2, 147520, Note_on_c, 0, 62, 127
2, 147540, Note_off_c, 0, 61, 0
2, 147724, Note_on_c, 0, 61, 127
2, 147784, Note_off_c, 0, 62, 0
2, 147920, Note_on_c, 0, 59, 127
2, 147940, Note_off_c, 0, 61, 0
2, 148160, Note_on_c, 0, 61, 127
2, 148220, Note_off_c, 0, 59, 0
2, 148396, Note_on_c, 0, 66, 127
2, 148448, Note_off_c, 0, 61, 0
2, 148604, Note_on_c, 0, 61, 127
2, 148624, Note_off_c, 0, 66, 0
2, 148624, Note_on_c, 0, 49, 127
2, 148820, Note_on_c, 0, 62, 127
2, 148824, Note_off_c, 0, 61, 0
2, 148824, Note_off_c, 0, 49, 0
2, 148832, Note_on_c, 0, 50, 127
2, 149032, Note_on_c, 0, 54, 127
2, 149040, Note_on_c, 0, 66, 127
2, 149220, Note_off_c, 0, 54, 0
2, 149224, Note_off_c, 0, 66, 0
2, 149228, Note_on_c, 0, 59, 127
2, 149236, Note_off_c, 0, 50, 0
2, 149244, Note_on_c, 0, 47, 127
2, 149248, Note_off_c, 0, 62, 0
2, 149416, Note_on_c, 0, 49, 127
2, 149416, Note_on_c, 0, 61, 127
2, 149432, Note_off_c, 0, 59, 0
2, 149440, Note_off_c, 0, 47, 0
2, 149612, Note_on_c, 0, 54, 127
2, 149612, Note_on_c, 0, 66, 127
2, 149796, Note_off_c, 0, 61, 0
2, 149804, Note_on_c, 0, 57, 127
2, 149812, Note_on_c, 0, 45, 127
2, 149816, Note_off_c, 0, 66, 0
2, 149820, Note_off_c, 0, 54, 0
2, 149832, Note_off_c, 0, 49, 0
2, 150008, Note_off_c, 0, 57, 0
2, 150016, Note_off_c, 0, 45, 0
2, 150020, Note_on_c, 0, 47, 127
2, 150020, Note_on_c, 0, 59, 127
2, 150280, Note_on_c, 0, 54, 127
2, 150280, Note_on_c, 0, 66, 127
2, 150504, Note_off_c, 0, 59, 0
2, 150536, Note_on_c, 0, 61, 127
2, 150556, Note_on_c, 0, 49, 127
2, 150568, Note_off_c, 0, 66, 0
2, 150572, Note_off_c, 0, 47, 0
2, 150584, Note_off_c, 0, 54, 0
2, 150648, Control_c, 0, 64, 63
2, 150648, Control_c, 0, 64, 127
2, 150716, Note_off_c, 0, 61, 0
2, 150728, Note_off_c, 0, 49, 0
2, 151008, Note_on_c, 0, 69, 127
2, 151008, Note_on_c, 0, 33, 127
2, 151020, Note_on_c, 0, 57, 96
2, 151024, Note_on_c, 0, 45, 116
2, 151144, Control_c, 0, 64, 63
2, 151160, Control_c, 0, 64, 0
2, 151292, Control_c, 0, 64, 63
2, 151300, Control_c, 0, 64, 127
2, 151524, Note_on_c, 0, 40, 127
2, 151552, Note_off_c, 0, 45, 0
2, 151568, Note_off_c, 0, 33, 0
2, 151764, Note_on_c, 0, 45, 127
2, 151768, Note_on_c, 0, 33, 127
2, 151816, Note_off_c, 0, 40, 0
2, 152112, Note_off_c, 0, 45, 0
2, 152128, Note_off_c, 0, 33, 0
2, 152204, Note_on_c, 0, 40, 127
2, 152252, Note_off_c, 0, 40, 0
2, 152448, Note_on_c, 0, 45, 127
2, 152532, Control_c, 0, 67, 127
2, 152884, Note_on_c, 0, 52, 127
2, 152896, Note_on_c, 0, 40, 127
2, 152932, Note_off_c, 0, 45, 0
2, 152952, Control_c, 0, 64, 63
2, 152996, Control_c, 0, 64, 0
2, 153108, Control_c, 0, 64, 63
2, 153120, Control_c, 0, 64, 127
2, 153144, Note_on_c, 0, 45, 127
2, 153208, Note_off_c, 0, 52, 0
2, 153216, Note_off_c, 0, 40, 0
2, 153504, Note_off_c, 0, 57, 0
2, 153600, Note_off_c, 0, 45, 0
2, 153656, Note_on_c, 0, 40, 100
2, 153656, Note_on_c, 0, 52, 112
2, 153984, Note_on_c, 0, 45, 108
2, 153992, Note_off_c, 0, 52, 0
2, 154016, Note_on_c, 0, 61, 127
2, 154080, Note_off_c, 0, 40, 0
2, 154112, Control_c, 0, 64, 63
2, 154184, Control_c, 0, 64, 127
2, 154392, Note_on_c, 0, 64, 127
2, 154636, Note_on_c, 0, 59, 127
2, 154648, Note_off_c, 0, 61, 0
2, 154672, Note_on_c, 0, 52, 52
2, 154688, Note_off_c, 0, 45, 0
2, 154696, Note_off_c, 0, 64, 0
2, 154700, Note_on_c, 0, 40, 44
2, 154852, Note_on_c, 0, 45, 127
2, 154856, Note_on_c, 0, 61, 127
2, 154888, Note_off_c, 0, 52, 0
2, 154888, Note_off_c, 0, 40, 0
2, 154904, Note_off_c, 0, 59, 0
2, 155064, Note_on_c, 0, 64, 127
2, 155080, Note_off_c, 0, 61, 0
2, 155236, Note_on_c, 0, 59, 127
2, 155248, Note_off_c, 0, 45, 0
2, 155268, Note_on_c, 0, 40, 88
2, 155268, Note_on_c, 0, 52, 60
2, 155272, Note_off_c, 0, 64, 0
2, 155432, Note_on_c, 0, 61, 127
2, 155440, Note_off_c, 0, 59, 0
2, 155444, Note_on_c, 0, 45, 127
2, 155448, Note_off_c, 0, 40, 0
2, 155452, Note_off_c, 0, 52, 0
2, 155460, Control_c, 0, 64, 63
2, 155512, Control_c, 0, 64, 127
2, 155544, Note_off_c, 0, 69, 0
2, 155640, Note_off_c, 0, 61, 0
2, 155700, Note_on_c, 0, 66, 127
2, 155704, Note_on_c, 0, 64, 127
2, 155796, Note_off_c, 0, 64, 0
2, 155812, Note_off_c, 0, 45, 0
2, 155916, Note_off_c, 0, 66, 0
2, 155920, Note_on_c, 0, 68, 127
2, 155944, Note_on_c, 0, 59, 127
2, 155956, Note_on_c, 0, 52, 96
2, 155968, Note_on_c, 0, 40, 76
2, 155996, Note_off_c, 0, 59, 0
2, 156020, Note_off_c, 0, 68, 0
2, 156120, Note_off_c, 0, 40, 0
2, 156124, Note_on_c, 0, 69, 127
2, 156128, Note_off_c, 0, 52, 0
2, 156152, Note_on_c, 0, 45, 127
2, 156152, Note_on_c, 0, 61, 127
2, 156200, Control_c, 0, 64, 63
2, 156256, Control_c, 0, 64, 127
2, 156296, Note_off_c, 0, 61, 0
2, 156336, Note_on_c, 0, 66, 127
2, 156340, Note_on_c, 0, 64, 127
2, 156368, Note_off_c, 0, 69, 0
2, 156460, Note_off_c, 0, 64, 0
2, 156508, Note_on_c, 0, 59, 127
2, 156512, Note_off_c, 0, 45, 0
2, 156512, Note_on_c, 0, 68, 127
2, 156528, Note_on_c, 0, 52, 127
2, 156536, Note_off_c, 0, 66, 0
2, 156540, Note_on_c, 0, 40, 127
2, 156572, Note_off_c, 0, 59, 0
2, 156636, Note_off_c, 0, 68, 0
2, 156708, Note_off_c, 0, 52, 0
2, 156720, Note_off_c, 0, 40, 0
2, 156728, Note_on_c, 0, 71, 127
2, 156736, Note_on_c, 0, 45, 127
2, 156752, Note_on_c, 0, 61, 127
2, 156776, Note_on_c, 0, 69, 127
2, 156812, Note_off_c, 0, 71, 0
2, 156816, Control_c, 0, 64, 63
2, 156832, Control_c, 0, 64, 0
2, 156936, Control_c, 0, 64, 63
2, 156948, Control_c, 0, 64, 127
2, 157016, Note_on_c, 0, 64, 127
2, 157040, Note_off_c, 0, 61, 0
2, 157100, Note_off_c, 0, 69, 0
2, 157136, Note_off_c, 0, 64, 0
2, 157176, Note_on_c, 0, 68, 127
2, 157184, Note_on_c, 0, 52, 127
2, 157188, Note_off_c, 0, 45, 0
2, 157188, Note_on_c, 0, 59, 127
2, 157192, Note_on_c, 0, 40, 127
2, 157252, Note_off_c, 0, 59, 0
2, 157320, Note_off_c, 0, 68, 0
2, 157372, Note_on_c, 0, 69, 127
2, 157392, Note_on_c, 0, 45, 127
2, 157396, Note_on_c, 0, 61, 127
2, 157400, Note_off_c, 0, 52, 0
2, 157416, Note_off_c, 0, 40, 0
2, 157416, Control_c, 0, 64, 63
2, 157432, Control_c, 0, 64, 0
2, 157500, Control_c, 0, 64, 63
2, 157512, Control_c, 0, 64, 127
2, 157588, Note_on_c, 0, 68, 127
2, 157644, Note_off_c, 0, 61, 0
2, 157672, Note_off_c, 0, 69, 0
2, 157728, Note_off_c, 0, 68, 0
2, 157772, Note_on_c, 0, 71, 127
2, 157772, Note_on_c, 0, 52, 127
2, 157776, Note_off_c, 0, 45, 0
2, 157784, Note_on_c, 0, 40, 127
2, 157788, Note_on_c, 0, 66, 127
2, 157832, Note_off_c, 0, 71, 0
2, 157848, Note_off_c, 0, 66, 0
2, 157996, Note_off_c, 0, 52, 0
2, 158016, Note_off_c, 0, 40, 0
2, 158020, Note_on_c, 0, 73, 127
2, 158028, Note_on_c, 0, 45, 127
2, 158052, Note_on_c, 0, 64, 127
2, 158120, Control_c, 0, 64, 63
2, 158136, Control_c, 0, 64, 0
2, 158216, Control_c, 0, 64, 63
2, 158224, Control_c, 0, 64, 127
2, 158292, Note_on_c, 0, 69, 127
2, 158336, Note_off_c, 0, 64, 0
2, 158500, Note_on_c, 0, 61, 127
2, 158508, Note_on_c, 0, 52, 116
2, 158528, Note_on_c, 0, 40, 96
2, 158532, Note_off_c, 0, 45, 0
2, 158648, Note_off_c, 0, 61, 0
2, 158668, Note_off_c, 0, 73, 0
2, 158748, Note_off_c, 0, 69, 0
2, 158760, Note_on_c, 0, 45, 127
2, 158776, Note_off_c, 0, 52, 0
2, 158796, Note_on_c, 0, 73, 127
2, 158824, Note_on_c, 0, 63, 127
2, 158860, Control_c, 0, 64, 63
2, 158876, Control_c, 0, 64, 0
2, 158900, Note_off_c, 0, 40, 0
2, 158924, Control_c, 0, 64, 63
2, 158944, Control_c, 0, 64, 127
2, 159104, Note_on_c, 0, 67, 127
2, 159192, Note_off_c, 0, 63, 0
2, 159312, Note_on_c, 0, 61, 127
2, 159312, Note_on_c, 0, 51, 127
2, 159332, Note_on_c, 0, 39, 108
2, 159368, Note_off_c, 0, 45, 0
2, 159444, Note_off_c, 0, 61, 0
2, 159496, Note_off_c, 0, 73, 0
2, 159520, Note_off_c, 0, 67, 0
2, 159608, Note_off_c, 0, 51, 0
2, 159632, Note_on_c, 0, 44, 127
2, 159636, Note_off_c, 0, 39, 0
2, 159676, Note_on_c, 0, 73, 127
2, 159712, Note_on_c, 0, 63, 127
2, 159792, Control_c, 0, 64, 63
2, 159808, Control_c, 0, 64, 0
2, 159864, Control_c, 0, 64, 63
2, 159880, Control_c, 0, 64, 127
2, 160060, Note_on_c, 0, 68, 127
2, 160128, Note_off_c, 0, 63, 0
2, 160252, Note_on_c, 0, 61, 127
2, 160264, Note_on_c, 0, 39, 127
2, 160272, Note_off_c, 0, 44, 0
2, 160272, Note_on_c, 0, 51, 104
2, 160308, Note_off_c, 0, 68, 0
2, 160348, Note_off_c, 0, 61, 0
2, 160444, Note_off_c, 0, 51, 0
2, 160452, Note_on_c, 0, 44, 127
2, 160456, Note_off_c, 0, 39, 0
2, 160456, Note_on_c, 0, 63, 127
2, 160544, Note_off_c, 0, 73, 0
2, 160608, Note_off_c, 0, 63, 0
2, 160668, Note_on_c, 0, 72, 127
2, 160692, Note_on_c, 0, 68, 127
2, 160740, Note_off_c, 0, 68, 0
2, 160936, Note_on_c, 0, 51, 127
2, 160940, Note_off_c, 0, 44, 0
2, 160940, Note_on_c, 0, 39, 127
2, 160976, Note_off_c, 0, 72, 0
2, 160988, Note_on_c, 0, 61, 127
2, 161128, Note_on_c, 0, 68, 127
2, 161200, Note_off_c, 0, 61, 0
2, 161216, Note_off_c, 0, 68, 0
2, 161280, Note_on_c, 0, 68, 127
2, 161280, Note_on_c, 0, 44, 127
2, 161292, Note_off_c, 0, 51, 0
2, 161296, Note_off_c, 0, 39, 0
2, 161296, Note_on_c, 0, 61, 127
2, 161320, Control_c, 0, 64, 63
2, 161332, Control_c, 0, 64, 0
2, 161384, Control_c, 0, 64, 63
2, 161400, Control_c, 0, 64, 127
2, 161472, Note_off_c, 0, 61, 0
2, 161520, Note_on_c, 0, 60, 127
2, 161636, Note_off_c, 0, 60, 0
2, 161704, Note_on_c, 0, 51, 127
2, 161712, Note_off_c, 0, 44, 0
2, 161712, Note_on_c, 0, 39, 127
2, 161856, Note_on_c, 0, 56, 127
2, 161884, Note_off_c, 0, 56, 0
2, 161940, Note_on_c, 0, 56, 127
2, 161968, Control_c, 0, 64, 63
2, 161972, Note_on_c, 0, 44, 127
2, 161976, Control_c, 0, 64, 0
2, 162044, Control_c, 0, 64, 63
2, 162056, Control_c, 0, 64, 127
2, 162192, Note_on_c, 0, 63, 127
2, 162200, Note_off_c, 0, 51, 0
2, 162208, Note_off_c, 0, 39, 0
2, 162284, Note_off_c, 0, 56, 0
2, 162424, Note_on_c, 0, 51, 127
2, 162424, Note_on_c, 0, 58, 127
2, 162432, Note_on_c, 0, 39, 127
2, 162448, Note_off_c, 0, 44, 0
2, 162456, Note_off_c, 0, 63, 0
2, 162468, Note_off_c, 0, 51, 0
2, 162504, Note_off_c, 0, 39, 0
2, 162552, Note_off_c, 0, 58, 0
2, 162744, Note_on_c, 0, 32, 127
2, 162752, Note_on_c, 0, 60, 127
2, 162760, Note_on_c, 0, 44, 127
2, 162776, Control_c, 0, 64, 63
2, 162788, Control_c, 0, 64, 0
2, 162828, Control_c, 0, 64, 63
2, 162840, Control_c, 0, 64, 127
2, 162896, Note_off_c, 0, 68, 0
2, 162932, Note_on_c, 0, 63, 127
2, 162952, Note_off_c, 0, 32, 0
2, 162976, Note_off_c, 0, 60, 0
2, 162992, Note_off_c, 0, 44, 0
2, 163076, Note_on_c, 0, 68, 127
2, 163080, Note_off_c, 0, 63, 0
2, 163140, Note_off_c, 0, 68, 0
2, 163228, Note_on_c, 0, 72, 127
2, 163260, Note_on_c, 0, 39, 127
2, 163280, Note_on_c, 0, 51, 127
2, 163344, Note_off_c, 0, 72, 0
2, 163360, Note_on_c, 0, 75, 127
2, 163440, Note_off_c, 0, 75, 0
2, 163444, Note_on_c, 0, 80, 127
2, 163496, Note_off_c, 0, 80, 0
2, 163544, Note_on_c, 0, 80, 127
2, 163544, Note_on_c, 0, 44, 127
2, 163552, Note_off_c, 0, 51, 0
2, 163652, Note_off_c, 0, 39, 0
2, 163732, Note_off_c, 0, 80, 0
2, 163732, Note_on_c, 0, 92, 127
2, 163792, Note_off_c, 0, 92, 0
2, 164168, Note_on_c, 0, 63, 127
2, 164420, Note_on_c, 0, 58, 127
2, 164424, Note_off_c, 0, 44, 0
2, 164428, Note_on_c, 0, 51, 127
2, 164448, Note_on_c, 0, 39, 64
2, 164540, Note_off_c, 0, 63, 0
2, 164656, Note_on_c, 0, 60, 127
2, 164664, Note_on_c, 0, 44, 127
2, 164696, Note_off_c, 0, 51, 0
2, 164728, Note_off_c, 0, 58, 0
2, 164748, Control_c, 0, 64, 63
2, 164764, Control_c, 0, 64, 0
2, 164796, Control_c, 0, 64, 63
2, 164824, Control_c, 0, 64, 127
2, 164852, Note_off_c, 0, 39, 0
2, 164872, Note_on_c, 0, 63, 127
2, 164916, Note_off_c, 0, 60, 0
2, 165048, Note_on_c, 0, 58, 127
2, 165064, Note_on_c, 0, 39, 127
2, 165072, Note_off_c, 0, 44, 0
2, 165072, Note_on_c, 0, 51, 127
2, 165092, Note_off_c, 0, 63, 0
2, 165284, Note_on_c, 0, 44, 127
2, 165288, Note_on_c, 0, 60, 127
2, 165308, Note_off_c, 0, 39, 0
2, 165328, Control_c, 0, 64, 63
2, 165356, Control_c, 0, 64, 0
2, 165368, Note_off_c, 0, 58, 0
2, 165368, Control_c, 0, 64, 63
2, 165400, Control_c, 0, 64, 127
2, 165484, Note_off_c, 0, 51, 0
2, 165512, Note_on_c, 0, 63, 127
2, 165536, Note_off_c, 0, 60, 0
2, 165776, Note_on_c, 0, 51, 127
2, 165780, Note_on_c, 0, 58, 127
2, 165792, Note_on_c, 0, 39, 127
2, 165796, Note_off_c, 0, 44, 0
2, 165828, Note_off_c, 0, 63, 0
2, 165832, Note_off_c, 0, 51, 0
2, 165880, Note_off_c, 0, 39, 0
2, 165944, Note_off_c, 0, 58, 0
2, 166144, Note_on_c, 0, 32, 127
2, 166160, Note_on_c, 0, 44, 127
2, 166180, Note_on_c, 0, 68, 127
2, 166200, Note_on_c, 0, 60, 127
2, 166244, Control_c, 0, 64, 63
2, 166260, Control_c, 0, 64, 0
2, 166292, Control_c, 0, 64, 63
2, 166316, Control_c, 0, 64, 127
2, 166452, Note_off_c, 0, 32, 0
2, 166500, Note_off_c, 0, 44, 0
2, 166520, Note_off_c, 0, 60, 0
2, 166544, Note_on_c, 0, 63, 127
2, 166768, Note_on_c, 0, 58, 127
2, 166772, Note_off_c, 0, 63, 0
2, 166788, Note_on_c, 0, 51, 96
2, 166800, Note_on_c, 0, 39, 56
2, 166880, Note_off_c, 0, 58, 0
2, 166976, Note_on_c, 0, 60, 127
2, 166984, Note_on_c, 0, 44, 127
2, 166988, Note_off_c, 0, 39, 0
2, 166992, Note_off_c, 0, 51, 0
2, 167096, Note_off_c, 0, 68, 0
2, 167136, Note_off_c, 0, 60, 0
2, 167184, Note_on_c, 0, 65, 127
2, 167184, Note_on_c, 0, 63, 127
2, 167260, Note_off_c, 0, 63, 0
2, 167320, Note_off_c, 0, 65, 0
2, 167364, Note_on_c, 0, 67, 127
2, 167368, Note_off_c, 0, 44, 0
2, 167376, Note_on_c, 0, 58, 127
2, 167380, Note_on_c, 0, 39, 127
2, 167380, Note_on_c, 0, 51, 127
2, 167432, Note_off_c, 0, 58, 0
2, 167460, Note_off_c, 0, 67, 0
2, 167540, Note_off_c, 0, 51, 0
2, 167544, Note_on_c, 0, 68, 127
2, 167560, Note_on_c, 0, 44, 127
2, 167568, Note_off_c, 0, 39, 0
2, 167568, Note_on_c, 0, 60, 127
2, 167608, Control_c, 0, 64, 63
2, 167648, Control_c, 0, 64, 127
2, 167720, Note_off_c, 0, 68, 0
2, 167720, Note_off_c, 0, 60, 0
2, 167736, Note_on_c, 0, 65, 127
2, 167752, Note_on_c, 0, 63, 127
2, 167900, Note_off_c, 0, 65, 0
2, 167908, Note_on_c, 0, 67, 127
2, 167920, Note_on_c, 0, 58, 127
2, 167932, Note_on_c, 0, 51, 127
2, 167936, Note_off_c, 0, 44, 0
2, 167936, Note_off_c, 0, 63, 0
2, 167936, Note_on_c, 0, 39, 127
2, 167996, Note_off_c, 0, 58, 0
2, 168012, Note_off_c, 0, 67, 0
2, 168100, Note_on_c, 0, 68, 127
2, 168104, Note_off_c, 0, 51, 0
2, 168104, Note_on_c, 0, 44, 127
2, 168108, Note_off_c, 0, 39, 0
2, 168120, Note_on_c, 0, 60, 127
2, 168172, Control_c, 0, 64, 63
2, 168236, Control_c, 0, 64, 127
2, 168248, Note_off_c, 0, 68, 0
2, 168284, Note_on_c, 0, 65, 127
2, 168304, Note_on_c, 0, 63, 127
2, 168312, Note_off_c, 0, 60, 0
2, 168436, Note_off_c, 0, 65, 0
2, 168464, Note_on_c, 0, 67, 127
2, 168468, Note_off_c, 0, 63, 0
2, 168472, Note_on_c, 0, 58, 127
2, 168480, Note_on_c, 0, 51, 127
2, 168480, Note_on_c, 0, 39, 127
2, 168496, Note_off_c, 0, 44, 0
2, 168528, Note_off_c, 0, 67, 0
2, 168528, Note_off_c, 0, 58, 0
2, 168684, Note_on_c, 0, 70, 127
2, 168692, Note_on_c, 0, 60, 127
2, 168696, Note_off_c, 0, 51, 0
2, 168696, Note_on_c, 0, 44, 127
2, 168704, Note_off_c, 0, 39, 0
2, 168712, Note_on_c, 0, 68, 127
2, 168744, Control_c, 0, 64, 63
2, 168752, Note_off_c, 0, 70, 0
2, 168776, Control_c, 0, 64, 0
2, 168800, Control_c, 0, 64, 63
2, 168832, Control_c, 0, 64, 127
2, 168940, Note_off_c, 0, 60, 0
2, 168944, Note_on_c, 0, 63, 127
2, 169012, Note_off_c, 0, 68, 0
2, 169100, Note_off_c, 0, 63, 0
2, 169152, Note_on_c, 0, 51, 127
2, 169156, Note_on_c, 0, 67, 127
2, 169160, Note_on_c, 0, 39, 127
2, 169160, Note_on_c, 0, 58, 127
2, 169164, Note_off_c, 0, 44, 0
2, 169216, Note_off_c, 0, 58, 0
2, 169324, Note_off_c, 0, 67, 0
2, 169404, Note_off_c, 0, 51, 0
2, 169404, Note_on_c, 0, 44, 127
2, 169404, Note_on_c, 0, 68, 127
2, 169408, Note_off_c, 0, 39, 0
2, 169416, Note_on_c, 0, 59, 127
2, 169440, Control_c, 0, 64, 63
2, 169460, Control_c, 0, 64, 0
2, 169504, Control_c, 0, 64, 63
2, 169528, Control_c, 0, 64, 127
2, 169668, Note_off_c, 0, 59, 0
2, 169680, Note_on_c, 0, 66, 127
2, 169712, Note_off_c, 0, 68, 0
2, 169836, Note_on_c, 0, 70, 127
2, 169840, Note_off_c, 0, 66, 0
2, 169844, Note_on_c, 0, 64, 127
2, 169852, Note_on_c, 0, 39, 127
2, 169852, Note_on_c, 0, 51, 127
2, 169872, Note_off_c, 0, 44, 0
2, 169900, Note_off_c, 0, 64, 0
2, 169936, Note_off_c, 0, 70, 0
2, 170092, Note_on_c, 0, 71, 127
2, 170096, Note_off_c, 0, 51, 0
2, 170096, Note_on_c, 0, 44, 127
2, 170104, Note_off_c, 0, 39, 0
2, 170112, Note_on_c, 0, 63, 127
2, 170160, Control_c, 0, 64, 63
2, 170176, Control_c, 0, 64, 0
2, 170224, Control_c, 0, 64, 63
2, 170240, Control_c, 0, 64, 127
2, 170356, Note_off_c, 0, 63, 0
2, 170368, Note_on_c, 0, 66, 127
2, 170512, Note_off_c, 0, 71, 0
2, 170536, Note_on_c, 0, 59, 127
2, 170536, Note_on_c, 0, 39, 127
2, 170540, Note_on_c, 0, 51, 127
2, 170544, Note_off_c, 0, 66, 0
2, 170560, Note_off_c, 0, 44, 0
2, 170580, Note_off_c, 0, 59, 0
2, 170672, Note_off_c, 0, 51, 0
2, 170736, Note_on_c, 0, 44, 127
2, 170784, Note_on_c, 0, 71, 127
2, 170792, Note_off_c, 0, 39, 0
2, 170796, Note_on_c, 0, 61, 127
2, 170868, Control_c, 0, 64, 63
2, 170880, Control_c, 0, 64, 0
2, 170940, Control_c, 0, 64, 63
2, 170956, Control_c, 0, 64, 127
2, 171064, Note_off_c, 0, 61, 0
2, 171072, Note_on_c, 0, 65, 127
2, 171284, Note_off_c, 0, 71, 0
2, 171360, Note_off_c, 0, 65, 0
2, 171360, Note_on_c, 0, 37, 127
2, 171368, Note_on_c, 0, 49, 127
2, 171408, Note_off_c, 0, 44, 0
2, 171432, Note_on_c, 0, 56, 127
2, 171480, Note_off_c, 0, 56, 0
2, 171492, Note_off_c, 0, 49, 0
2, 171496, Note_off_c, 0, 37, 0
2, 171748, Note_on_c, 0, 30, 127
2, 171864, Note_on_c, 0, 71, 127
2, 171876, Note_on_c, 0, 42, 127
2, 171896, Note_on_c, 0, 61, 127
2, 171920, Control_c, 0, 64, 63
2, 171932, Control_c, 0, 64, 0
2, 172004, Control_c, 0, 64, 63
2, 172020, Control_c, 0, 64, 127
2, 172144, Note_off_c, 0, 30, 0
2, 172212, Note_off_c, 0, 42, 0
2, 172240, Note_on_c, 0, 66, 127
2, 172276, Note_off_c, 0, 61, 0
2, 172388, Note_off_c, 0, 71, 0
2, 172468, Note_on_c, 0, 59, 127
2, 172480, Note_on_c, 0, 49, 127
2, 172492, Note_on_c, 0, 37, 112
2, 172568, Note_off_c, 0, 66, 0
2, 172676, Note_on_c, 0, 61, 127
2, 172680, Note_off_c, 0, 37, 0
2, 172684, Note_off_c, 0, 59, 0
2, 172684, Note_on_c, 0, 42, 127
2, 172704, Note_off_c, 0, 49, 0
2, 172744, Note_off_c, 0, 61, 0
2, 172928, Note_on_c, 0, 70, 127
2, 172976, Note_on_c, 0, 66, 127
2, 173048, Note_off_c, 0, 66, 0
2, 173240, Note_off_c, 0, 70, 0
2, 173240, Note_on_c, 0, 59, 127
2, 173248, Note_off_c, 0, 42, 0
2, 173252, Note_on_c, 0, 37, 127
2, 173288, Note_on_c, 0, 49, 100
2, 173356, Note_on_c, 0, 66, 127
2, 173420, Note_off_c, 0, 59, 0
2, 173424, Note_off_c, 0, 66, 0
2, 173472, Note_on_c, 0, 66, 127
2, 173480, Note_on_c, 0, 59, 127
2, 173492, Note_on_c, 0, 42, 127
2, 173520, Note_off_c, 0, 37, 0
2, 173528, Control_c, 0, 64, 63
2, 173540, Note_off_c, 0, 49, 0
2, 173544, Control_c, 0, 64, 0
2, 173604, Control_c, 0, 64, 63
2, 173616, Control_c, 0, 64, 127
2, 173708, Note_on_c, 0, 58, 127
2, 173748, Note_off_c, 0, 59, 0
2, 173892, Note_on_c, 0, 37, 127
2, 173900, Note_on_c, 0, 49, 127
2, 173920, Note_off_c, 0, 42, 0
2, 173968, Note_off_c, 0, 58, 0
2, 174016, Note_on_c, 0, 54, 127
2, 174068, Note_off_c, 0, 54, 0
2, 174124, Note_on_c, 0, 54, 127
2, 174140, Note_on_c, 0, 42, 127
2, 174156, Control_c, 0, 64, 63
2, 174164, Control_c, 0, 64, 0
2, 174236, Control_c, 0, 64, 63
2, 174248, Control_c, 0, 64, 127
2, 174312, Note_off_c, 0, 37, 0
2, 174360, Note_off_c, 0, 49, 0
2, 174372, Note_on_c, 0, 61, 127
2, 174460, Note_off_c, 0, 54, 0
2, 174608, Note_on_c, 0, 49, 127
2, 174616, Note_on_c, 0, 56, 127
2, 174624, Note_on_c, 0, 37, 127
2, 174640, Note_off_c, 0, 42, 0
2, 174648, Note_off_c, 0, 49, 0
2, 174672, Note_off_c, 0, 61, 0
2, 174688, Note_off_c, 0, 37, 0
2, 174896, Note_off_c, 0, 66, 0
2, 174900, Note_on_c, 0, 58, 127
2, 174912, Control_c, 0, 64, 63
2, 174920, Note_on_c, 0, 30, 127
2, 174924, Control_c, 0, 64, 0
2, 174936, Note_on_c, 0, 42, 127
2, 174952, Note_off_c, 0, 56, 0
2, 174968, Control_c, 0, 64, 63
2, 174984, Control_c, 0, 64, 127
2, 175072, Note_off_c, 0, 30, 0
2, 175084, Note_on_c, 0, 61, 127
2, 175112, Note_off_c, 0, 42, 0
2, 175136, Note_off_c, 0, 58, 0
2, 175232, Note_on_c, 0, 66, 127
2, 175248, Note_off_c, 0, 61, 0
2, 175292, Note_off_c, 0, 66, 0
2, 175368, Note_on_c, 0, 70, 127
2, 175424, Note_on_c, 0, 49, 127
2, 175436, Note_on_c, 0, 37, 127
2, 175480, Note_off_c, 0, 70, 0
2, 175504, Note_on_c, 0, 73, 127
2, 175592, Note_off_c, 0, 73, 0
2, 175600, Note_on_c, 0, 78, 127
2, 175644, Note_off_c, 0, 78, 0
2, 175688, Note_on_c, 0, 42, 127
2, 175696, Note_on_c, 0, 78, 127
2, 175700, Note_off_c, 0, 49, 0
2, 175728, Note_off_c, 0, 37, 0
2, 175860, Note_off_c, 0, 78, 0
2, 175872, Note_on_c, 0, 90, 127
2, 175928, Note_off_c, 0, 90, 0
2, 176360, Note_on_c, 0, 61, 127
2, 176664, Note_on_c, 0, 56, 127
2, 176672, Note_off_c, 0, 42, 0
2, 176680, Note_on_c, 0, 37, 52
2, 176684, Note_on_c, 0, 49, 64
2, 176880, Note_off_c, 0, 56, 0
2, 176920, Note_on_c, 0, 57, 127
2, 176920, Note_on_c, 0, 42, 127
2, 176948, Note_off_c, 0, 61, 0
2, 176984, Note_off_c, 0, 37, 0
2, 177020, Control_c, 0, 64, 63
2, 177040, Control_c, 0, 64, 0
2, 177072, Note_off_c, 0, 49, 0
2, 177072, Control_c, 0, 64, 63
2, 177104, Control_c, 0, 64, 127
2, 177152, Note_on_c, 0, 61, 127
2, 177188, Note_off_c, 0, 57, 0
2, 177228, Note_off_c, 0, 61, 0
2, 177376, Note_on_c, 0, 37, 127
2, 177380, Note_on_c, 0, 49, 124
2, 177384, Note_off_c, 0, 42, 0
2, 177408, Note_on_c, 0, 66, 127
2, 177432, Note_on_c, 0, 56, 127
2, 177552, Note_off_c, 0, 56, 0
2, 177632, Note_off_c, 0, 66, 0
2, 177648, Note_on_c, 0, 42, 127
2, 177652, Note_on_c, 0, 64, 127
2, 177664, Note_off_c, 0, 49, 0
2, 177664, Note_on_c, 0, 57, 127
2, 177672, Note_off_c, 0, 37, 0
2, 177712, Control_c, 0, 64, 63
2, 177736, Control_c, 0, 64, 0
2, 177760, Control_c, 0, 64, 63
2, 177788, Control_c, 0, 64, 127
2, 177868, Note_on_c, 0, 61, 127
2, 177884, Note_off_c, 0, 57, 0
2, 177964, Note_off_c, 0, 61, 0
2, 178036, Note_off_c, 0, 64, 0
2, 178068, Note_on_c, 0, 66, 127
2, 178080, Note_on_c, 0, 37, 127
2, 178084, Note_off_c, 0, 42, 0
2, 178084, Note_on_c, 0, 49, 104
2, 178088, Note_on_c, 0, 56, 127
2, 178160, Note_off_c, 0, 56, 0
2, 178340, Note_off_c, 0, 49, 0
2, 178344, Note_off_c, 0, 66, 0
2, 178348, Note_on_c, 0, 42, 127
2, 178376, Note_on_c, 0, 62, 127
2, 178384, Note_off_c, 0, 37, 0
2, 178388, Note_on_c, 0, 57, 127
2, 178424, Control_c, 0, 64, 63
2, 178440, Control_c, 0, 64, 0
2, 178488, Control_c, 0, 64, 63
2, 178508, Control_c, 0, 64, 127
2, 178632, Note_off_c, 0, 57, 0
2, 178640, Note_on_c, 0, 60, 127
2, 178832, Note_off_c, 0, 60, 0
2, 178836, Control_c, 0, 64, 63
2, 178840, Note_on_c, 0, 56, 127
2, 178856, Note_on_c, 0, 49, 68
2, 178860, Note_on_c, 0, 37, 104
2, 178860, Control_c, 0, 64, 127
2, 178872, Note_off_c, 0, 42, 0
2, 179004, Note_off_c, 0, 56, 0
2, 179056, Note_on_c, 0, 42, 127
2, 179060, Note_on_c, 0, 57, 127
2, 179104, Note_off_c, 0, 62, 0
2, 179104, Note_off_c, 0, 49, 0
2, 179108, Note_off_c, 0, 37, 0
2, 179304, Note_off_c, 0, 57, 0
2, 179344, Note_on_c, 0, 69, 127
2, 179420, Note_off_c, 0, 69, 0
2, 179656, Note_on_c, 0, 54, 127
2, 179664, Note_off_c, 0, 42, 0
2, 179672, Note_on_c, 0, 37, 127
2, 179680, Note_on_c, 0, 49, 44
2, 179780, Note_off_c, 0, 54, 0
2, 179976, Note_off_c, 0, 49, 0
2, 179988, Note_on_c, 0, 44, 127
2, 180000, Note_on_c, 0, 61, 127
2, 180020, Note_on_c, 0, 53, 127
2, 180064, Control_c, 0, 64, 63
2, 180072, Control_c, 0, 64, 0
2, 180104, Note_off_c, 0, 37, 0
2, 180152, Control_c, 0, 64, 63
2, 180168, Control_c, 0, 64, 127
2, 180296, Note_on_c, 0, 56, 127
2, 180336, Note_off_c, 0, 61, 0
2, 180440, Note_off_c, 0, 53, 0
2, 180520, Note_off_c, 0, 56, 0
2, 180528, Note_on_c, 0, 49, 127
2, 180528, Note_on_c, 0, 61, 127
2, 180548, Note_on_c, 0, 37, 127
2, 180572, Note_off_c, 0, 44, 0
2, 180620, Note_off_c, 0, 61, 0
2, 180760, Note_on_c, 0, 42, 127
2, 180772, Note_on_c, 0, 64, 127
2, 180780, Note_off_c, 0, 37, 0
2, 180800, Note_on_c, 0, 57, 127
2, 180820, Note_off_c, 0, 49, 0
2, 180840, Control_c, 0, 64, 63
2, 180856, Control_c, 0, 64, 0
2, 180920, Control_c, 0, 64, 63
2, 180936, Control_c, 0, 64, 127
2, 180992, Note_on_c, 0, 61, 127
2, 181016, Note_off_c, 0, 57, 0
2, 181032, Note_off_c, 0, 64, 0
2, 181076, Note_off_c, 0, 61, 0
2, 181184, Note_on_c, 0, 49, 127
2, 181192, Note_on_c, 0, 37, 127
2, 181196, Note_on_c, 0, 66, 127
2, 181204, Note_off_c, 0, 42, 0
2, 181208, Note_on_c, 0, 54, 127
2, 181248, Note_off_c, 0, 54, 0
2, 181392, Note_off_c, 0, 66, 0
2, 181432, Note_on_c, 0, 42, 127
2, 181440, Note_on_c, 0, 62, 127
2, 181444, Note_off_c, 0, 49, 0
2, 181456, Note_on_c, 0, 57, 127
2, 181480, Note_off_c, 0, 37, 0
2, 181528, Control_c, 0, 64, 63
2, 181544, Control_c, 0, 64, 0
2, 181592, Control_c, 0, 64, 63
2, 181608, Control_c, 0, 64, 127
2, 181676, Note_off_c, 0, 57, 0
2, 181712, Note_on_c, 0, 60, 84
2, 181888, Note_on_c, 0, 56, 127
2, 181916, Note_on_c, 0, 37, 127
2, 181924, Note_on_c, 0, 49, 108
2, 181932, Note_off_c, 0, 42, 0
2, 181944, Note_off_c, 0, 60, 0
2, 182064, Note_off_c, 0, 56, 0
2, 182100, Note_on_c, 0, 57, 127
2, 182120, Note_on_c, 0, 42, 127
2, 182136, Note_off_c, 0, 37, 0
2, 182136, Control_c, 0, 64, 63
2, 182160, Control_c, 0, 64, 0
2, 182180, Control_c, 0, 64, 63
2, 182204, Control_c, 0, 64, 127
2, 182212, Note_off_c, 0, 49, 0
2, 182304, Note_off_c, 0, 57, 0
2, 182324, Note_on_c, 0, 60, 127
2, 182528, Note_on_c, 0, 54, 127
2, 182560, Note_on_c, 0, 49, 127
2, 182568, Note_on_c, 0, 37, 127
2, 182576, Note_off_c, 0, 42, 0
2, 182672, Note_off_c, 0, 54, 0
2, 182724, Note_off_c, 0, 60, 0
2, 182752, Note_on_c, 0, 42, 127
2, 182764, Note_off_c, 0, 49, 0
2, 182764, Note_on_c, 0, 57, 127
2, 182768, Note_off_c, 0, 37, 0
2, 182808, Control_c, 0, 64, 63
2, 182872, Control_c, 0, 64, 127
2, 182984, Note_on_c, 0, 60, 127
2, 182988, Note_off_c, 0, 57, 0
2, 183192, Note_on_c, 0, 56, 127
2, 183200, Note_off_c, 0, 60, 0
2, 183212, Note_off_c, 0, 42, 0
2, 183216, Note_on_c, 0, 49, 68
2, 183224, Note_on_c, 0, 37, 100
2, 183360, Control_c, 0, 64, 63
2, 183368, Note_off_c, 0, 56, 0
2, 183376, Control_c, 0, 64, 0
2, 183404, Control_c, 0, 64, 63
2, 183424, Control_c, 0, 64, 127
2, 183436, Note_on_c, 0, 42, 127
2, 183444, Note_on_c, 0, 57, 127
2, 183452, Note_off_c, 0, 37, 0
2, 183480, Note_off_c, 0, 49, 0
2, 183496, Note_off_c, 0, 62, 0
2, 183648, Note_off_c, 0, 57, 0
2, 183688, Note_on_c, 0, 69, 127
2, 183744, Note_off_c, 0, 69, 0
2, 183968, Note_off_c, 0, 42, 0
2, 183968, Note_on_c, 0, 37, 127
2, 183976, Note_on_c, 0, 54, 127
2, 184072, Note_on_c, 0, 49, 20
2, 184124, Note_off_c, 0, 54, 0
2, 184288, Note_off_c, 0, 49, 0
2, 184296, Note_on_c, 0, 44, 127
2, 184304, Note_on_c, 0, 61, 127
2, 184304, Note_on_c, 0, 53, 127
2, 184316, Note_off_c, 0, 37, 0
2, 184320, Control_c, 0, 64, 63
2, 184328, Control_c, 0, 64, 0
2, 184400, Control_c, 0, 64, 63
2, 184416, Control_c, 0, 64, 127
2, 184580, Note_off_c, 0, 61, 0
2, 184608, Note_on_c, 0, 49, 127
2, 184612, Note_on_c, 0, 56, 127
2, 184664, Note_off_c, 0, 53, 0
2, 184784, Note_off_c, 0, 56, 0
2, 184900, Note_on_c, 0, 37, 127
2, 184904, Note_off_c, 0, 44, 0
2, 184904, Note_on_c, 0, 61, 127
2, 184916, Note_off_c, 0, 49, 0
2, 184956, Note_off_c, 0, 61, 0
2, 185200, Note_on_c, 0, 44, 127
2, 185208, Note_on_c, 0, 65, 127
2, 185236, Note_off_c, 0, 37, 0
2, 185328, Note_off_c, 0, 44, 0
2, 185456, Note_on_c, 0, 53, 127
2, 185464, Note_on_c, 0, 68, 127
2, 185492, Note_on_c, 0, 44, 20
2, 185524, Note_off_c, 0, 53, 0
2, 185664, Note_off_c, 0, 65, 0
2, 185680, Note_on_c, 0, 73, 127
2, 185680, Note_on_c, 0, 37, 127
2, 185704, Note_off_c, 0, 68, 0
2, 185728, Note_off_c, 0, 44, 0
2, 185756, Note_off_c, 0, 73, 0
2, 185940, Note_on_c, 0, 44, 127
2, 185944, Note_on_c, 0, 68, 127
2, 185948, Note_on_c, 0, 73, 127
2, 185976, Note_off_c, 0, 73, 0
2, 185980, Note_off_c, 0, 37, 0
2, 185988, Control_c, 0, 64, 63
2, 185992, Note_on_c, 0, 75, 127
2, 186000, Control_c, 0, 64, 0
2, 186020, Note_on_c, 0, 64, 20
2, 186056, Note_on_c, 0, 73, 127
2, 186060, Control_c, 0, 64, 63
2, 186072, Control_c, 0, 64, 127
2, 186104, Note_off_c, 0, 75, 0
2, 186196, Note_off_c, 0, 64, 0
2, 186232, Note_off_c, 0, 73, 0
2, 186272, Note_on_c, 0, 52, 127
2, 186276, Note_on_c, 0, 72, 127
2, 186284, Note_on_c, 0, 63, 127
2, 186328, Note_off_c, 0, 68, 0
2, 186376, Note_off_c, 0, 52, 0
2, 186492, Note_off_c, 0, 63, 0
2, 186556, Note_off_c, 0, 72, 0
2, 186568, Note_on_c, 0, 37, 127
2, 186572, Note_on_c, 0, 73, 127
2, 186572, Note_on_c, 0, 64, 127
2, 186584, Note_on_c, 0, 68, 127
2, 186608, Note_off_c, 0, 68, 0
2, 186644, Note_off_c, 0, 64, 0
2, 186660, Note_off_c, 0, 73, 0
2, 186728, Note_off_c, 0, 37, 0
2, 186736, Note_off_c, 0, 44, 0
2, 186856, Note_on_c, 0, 76, 127
2, 186864, Note_on_c, 0, 40, 127
2, 186864, Note_on_c, 0, 73, 127
2, 186864, Note_on_c, 0, 68, 127
2, 186876, Control_c, 0, 64, 63
2, 186884, Control_c, 0, 64, 0
2, 186960, Control_c, 0, 64, 63
2, 186968, Control_c, 0, 64, 127
2, 187104, Note_off_c, 0, 68, 0
2, 187124, Note_off_c, 0, 76, 0
2, 187172, Note_off_c, 0, 73, 0
2, 187212, Note_on_c, 0, 74, 127
2, 187216, Note_on_c, 0, 47, 127
2, 187220, Note_on_c, 0, 66, 127
2, 187248, Note_off_c, 0, 40, 0
2, 187260, Note_off_c, 0, 66, 0
2, 187280, Note_off_c, 0, 74, 0
2, 187280, Note_off_c, 0, 47, 0
2, 187632, Note_on_c, 0, 71, 127
2, 187640, Note_on_c, 0, 68, 127
2, 187640, Note_on_c, 0, 56, 127
2, 187644, Note_on_c, 0, 62, 127
2, 187676, Note_off_c, 0, 62, 0
2, 187688, Note_off_c, 0, 71, 0
2, 187696, Note_off_c, 0, 68, 0
2, 187700, Note_off_c, 0, 56, 0
2, 187936, Note_on_c, 0, 69, 127
2, 187944, Note_on_c, 0, 61, 127
2, 187960, Control_c, 0, 64, 63
2, 187968, Control_c, 0, 64, 0
2, 188032, Control_c, 0, 64, 63
2, 188040, Control_c, 0, 64, 127
2, 188092, Control_c, 0, 67, 0
2, 188120, Note_on_c, 0, 33, 127
2, 188180, Note_on_c, 0, 73, 127
2, 188200, Note_off_c, 0, 61, 0
2, 188240, Note_off_c, 0, 69, 0
2, 188300, Note_off_c, 0, 73, 0
2, 188432, Note_on_c, 0, 81, 127
2, 188432, Note_on_c, 0, 45, 127
2, 188464, Note_off_c, 0, 33, 0
2, 188496, Note_off_c, 0, 45, 0
2, 188500, Note_off_c, 0, 81, 0
2, 188892, Note_on_c, 0, 76, 127
2, 188892, Note_on_c, 0, 52, 127
2, 189104, Note_on_c, 0, 78, 127
2, 189136, Note_off_c, 0, 76, 0
2, 189184, Note_on_c, 0, 40, 127
2, 189220, Note_off_c, 0, 78, 0
2, 189232, Note_on_c, 0, 76, 127
2, 189308, Note_off_c, 0, 52, 0
2, 189316, Note_off_c, 0, 76, 0
2, 189316, Note_on_c, 0, 78, 127
2, 189384, Note_on_c, 0, 76, 127
2, 189388, Note_off_c, 0, 78, 0
2, 189436, Note_on_c, 0, 45, 127
2, 189448, Note_off_c, 0, 40, 0
2, 189452, Note_on_c, 0, 78, 127
2, 189472, Note_off_c, 0, 76, 0
2, 189512, Note_off_c, 0, 45, 0
2, 189512, Note_off_c, 0, 78, 0
2, 189524, Note_on_c, 0, 76, 127
2, 189576, Note_on_c, 0, 78, 127
2, 189600, Note_off_c, 0, 76, 0
2, 189628, Note_off_c, 0, 78, 0
2, 189648, Note_on_c, 0, 76, 127
2, 189684, Note_on_c, 0, 78, 127
2, 189700, Note_on_c, 0, 52, 127
2, 189708, Note_off_c, 0, 76, 0
2, 189736, Note_off_c, 0, 78, 0
2, 189744, Note_on_c, 0, 76, 127
2, 189768, Note_off_c, 0, 52, 0
2, 189788, Note_on_c, 0, 78, 127
2, 189812, Note_off_c, 0, 76, 0
2, 189844, Note_off_c, 0, 78, 0
2, 189848, Note_on_c, 0, 76, 127
2, 189908, Note_on_c, 0, 78, 127
2, 189920, Note_off_c, 0, 76, 0
2, 189944, Note_on_c, 0, 40, 127
2, 189972, Note_on_c, 0, 76, 127
2, 190012, Note_off_c, 0, 78, 0
2, 190080, Note_on_c, 0, 75, 127
2, 190092, Note_off_c, 0, 76, 0
2, 190160, Note_off_c, 0, 75, 0
2, 190164, Note_on_c, 0, 76, 127
2, 190328, Note_off_c, 0, 76, 0
2, 190352, Note_on_c, 0, 45, 127
2, 190356, Control_c, 0, 64, 63
2, 190368, Control_c, 0, 64, 0
2, 190376, Note_off_c, 0, 40, 0
2, 190376, Note_on_c, 0, 81, 127
2, 190376, Note_on_c, 0, 73, 127
2, 190384, Note_on_c, 0, 69, 127
2, 190396, Control_c, 0, 64, 63
2, 190416, Control_c, 0, 64, 127
2, 190500, Note_off_c, 0, 69, 0
2, 190500, Note_off_c, 0, 81, 0
2, 190552, Note_off_c, 0, 73, 0
2, 190656, Note_off_c, 0, 45, 0
2, 190712, Note_on_c, 0, 76, 127
2, 190712, Note_on_c, 0, 78, 127
2, 190720, Note_on_c, 0, 66, 127
2, 190724, Note_on_c, 0, 52, 127
2, 190756, Note_off_c, 0, 66, 0
2, 190772, Note_off_c, 0, 76, 0
2, 190784, Note_off_c, 0, 78, 0
2, 190828, Note_off_c, 0, 52, 0
2, 190936, Note_on_c, 0, 80, 127
2, 190940, Note_on_c, 0, 71, 127
2, 190952, Note_on_c, 0, 40, 127
2, 190956, Note_on_c, 0, 68, 127
2, 190996, Note_off_c, 0, 71, 0
2, 191012, Note_off_c, 0, 80, 0
2, 191024, Note_off_c, 0, 68, 0
2, 191144, Note_on_c, 0, 81, 127
2, 191144, Note_on_c, 0, 73, 127
2, 191152, Note_on_c, 0, 45, 127
2, 191156, Note_on_c, 0, 69, 127
2, 191168, Note_off_c, 0, 40, 0
2, 191184, Note_off_c, 0, 81, 0
2, 191192, Note_off_c, 0, 73, 0
2, 191216, Note_off_c, 0, 69, 0
2, 191360, Note_on_c, 0, 78, 127
2, 191360, Note_on_c, 0, 66, 127
2, 191364, Note_on_c, 0, 76, 127
2, 191380, Note_on_c, 0, 52, 127
2, 191384, Note_off_c, 0, 45, 0
2, 191416, Note_off_c, 0, 66, 0
2, 191440, Note_off_c, 0, 78, 0
2, 191456, Note_off_c, 0, 76, 0
2, 191464, Note_off_c, 0, 52, 0
2, 191552, Note_on_c, 0, 80, 127
2, 191556, Note_on_c, 0, 71, 127
2, 191568, Note_on_c, 0, 40, 127
2, 191568, Note_on_c, 0, 68, 127
2, 191616, Note_off_c, 0, 71, 0
2, 191632, Note_off_c, 0, 80, 0
2, 191636, Note_off_c, 0, 68, 0
2, 191840, Note_on_c, 0, 81, 127
2, 191844, Note_on_c, 0, 45, 127
2, 191848, Note_on_c, 0, 73, 127
2, 191860, Note_on_c, 0, 69, 127
2, 191912, Control_c, 0, 64, 63
2, 191968, Control_c, 0, 64, 127
2, 192080, Note_off_c, 0, 81, 0
2, 192120, Note_off_c, 0, 69, 0
2, 192120, Note_on_c, 0, 76, 127
2, 192128, Note_on_c, 0, 52, 127
2, 192136, Note_off_c, 0, 73, 0
2, 192160, Note_off_c, 0, 76, 0
2, 192184, Note_off_c, 0, 40, 0
2, 192268, Note_off_c, 0, 45, 0
2, 192320, Note_on_c, 0, 71, 127
2, 192320, Note_on_c, 0, 80, 127
2, 192328, Note_on_c, 0, 40, 127
2, 192328, Note_on_c, 0, 68, 127
2, 192344, Note_off_c, 0, 52, 0
2, 192380, Note_off_c, 0, 71, 0
2, 192396, Note_off_c, 0, 68, 0
2, 192420, Note_off_c, 0, 80, 0
2, 192520, Note_on_c, 0, 73, 127
2, 192520, Note_on_c, 0, 81, 127
2, 192520, Note_on_c, 0, 45, 127
2, 192532, Note_on_c, 0, 69, 127
2, 192568, Note_off_c, 0, 73, 0
2, 192576, Note_off_c, 0, 69, 0
2, 192584, Note_off_c, 0, 81, 0
2, 192596, Note_off_c, 0, 40, 0
2, 192652, Note_on_c, 0, 40, 96
2, 192752, Note_on_c, 0, 52, 127
2, 192756, Note_on_c, 0, 80, 127
2, 192776, Note_off_c, 0, 40, 0
2, 192800, Note_off_c, 0, 80, 0
2, 192932, Note_off_c, 0, 52, 0
2, 192936, Note_off_c, 0, 45, 0
2, 192948, Note_on_c, 0, 40, 127
2, 192952, Note_on_c, 0, 83, 127
2, 192956, Note_on_c, 0, 78, 127
2, 192960, Note_on_c, 0, 71, 127
2, 192996, Note_off_c, 0, 71, 0
2, 193016, Note_off_c, 0, 78, 0
2, 193024, Note_off_c, 0, 83, 0
2, 193056, Note_off_c, 0, 40, 0
2, 193216, Control_c, 0, 64, 63
2, 193224, Note_on_c, 0, 85, 127
2, 193224, Note_on_c, 0, 81, 127
2, 193228, Note_on_c, 0, 73, 127
2, 193240, Note_on_c, 0, 45, 127
2, 193240, Note_on_c, 0, 33, 127
2, 193252, Control_c, 0, 64, 127
2, 193304, Note_off_c, 0, 33, 0
2, 193320, Note_off_c, 0, 45, 0
2, 193328, Note_off_c, 0, 81, 0
2, 193348, Note_off_c, 0, 85, 0
2, 193416, Note_off_c, 0, 73, 0
2, 193492, Note_on_c, 0, 81, 127
2, 193496, Note_on_c, 0, 52, 127
2, 193560, Note_off_c, 0, 81, 0
2, 193580, Note_off_c, 0, 52, 0
2, 193736, Note_on_c, 0, 69, 127
2, 193736, Note_on_c, 0, 40, 127
2, 193776, Note_off_c, 0, 69, 0
2, 193816, Note_off_c, 0, 40, 0
2, 194020, Control_c, 0, 64, 63
2, 194028, Control_c, 0, 64, 0
2, 194032, Note_on_c, 0, 75, 127
2, 194032, Note_on_c, 0, 73, 127
2, 194036, Note_on_c, 0, 85, 127
2, 194040, Note_on_c, 0, 45, 127
2, 194068, Control_c, 0, 64, 63
2, 194080, Control_c, 0, 64, 127
2, 194132, Note_off_c, 0, 45, 0
2, 194200, Note_off_c, 0, 85, 0
2, 194208, Note_off_c, 0, 75, 0
2, 194244, Note_off_c, 0, 73, 0
2, 194340, Note_on_c, 0, 51, 127
2, 194348, Note_on_c, 0, 79, 127
2, 194396, Note_off_c, 0, 79, 0
2, 194408, Note_off_c, 0, 51, 0
2, 194700, Note_on_c, 0, 39, 127
2, 194704, Note_on_c, 0, 67, 127
2, 194756, Note_off_c, 0, 67, 0
2, 194764, Note_off_c, 0, 39, 0
2, 195156, Note_on_c, 0, 32, 127
2, 195156, Note_on_c, 0, 75, 127
2, 195160, Note_on_c, 0, 85, 127
2, 195160, Note_on_c, 0, 73, 127
2, 195168, Note_on_c, 0, 44, 127
2, 195180, Control_c, 0, 64, 63
2, 195188, Control_c, 0, 64, 0
2, 195292, Control_c, 0, 64, 63
2, 195296, Control_c, 0, 64, 127
2, 195396, Note_off_c, 0, 32, 0
2, 195424, Note_off_c, 0, 85, 0
2, 195432, Note_off_c, 0, 44, 0
2, 195444, Note_off_c, 0, 75, 0
2, 195524, Note_off_c, 0, 73, 0
2, 195644, Note_on_c, 0, 51, 127
2, 195656, Note_on_c, 0, 80, 127
2, 195748, Note_off_c, 0, 80, 0
2, 195904, Note_on_c, 0, 68, 127
2, 195912, Note_off_c, 0, 51, 0
2, 195916, Note_on_c, 0, 39, 127
2, 195976, Note_off_c, 0, 68, 0
2, 196112, Note_on_c, 0, 73, 127
2, 196112, Note_on_c, 0, 75, 127
2, 196116, Note_on_c, 0, 44, 127
2, 196148, Note_off_c, 0, 73, 0
2, 196152, Note_off_c, 0, 39, 0
2, 196160, Note_off_c, 0, 75, 0
2, 196324, Note_off_c, 0, 44, 0
2, 196340, Note_on_c, 0, 80, 127
2, 196340, Note_on_c, 0, 84, 127
2, 196344, Note_on_c, 0, 72, 127
2, 196348, Note_on_c, 0, 51, 127
2, 196368, Note_off_c, 0, 80, 0
2, 196376, Note_off_c, 0, 72, 0
2, 196384, Note_off_c, 0, 84, 0
2, 196568, Note_off_c, 0, 51, 0
2, 196600, Note_on_c, 0, 39, 127
2, 196704, Note_on_c, 0, 80, 127
2, 196704, Note_on_c, 0, 68, 127
2, 196712, Note_on_c, 0, 73, 127
2, 196736, Note_off_c, 0, 68, 0
2, 196736, Note_off_c, 0, 73, 0
2, 196760, Note_off_c, 0, 80, 0
2, 196788, Note_on_c, 0, 44, 127
2, 196788, Note_on_c, 0, 80, 127
2, 196796, Note_on_c, 0, 73, 127
2, 196796, Note_on_c, 0, 68, 127
2, 196804, Note_on_c, 0, 75, 127
2, 196832, Control_c, 0, 64, 63
2, 196840, Control_c, 0, 64, 0
2, 196904, Control_c, 0, 64, 63
2, 196916, Control_c, 0, 64, 127
2, 196972, Note_off_c, 0, 73, 0
2, 197020, Note_on_c, 0, 51, 127
2, 197020, Note_on_c, 0, 72, 127
2, 197048, Note_off_c, 0, 39, 0
2, 197056, Note_off_c, 0, 68, 0
2, 197200, Note_off_c, 0, 44, 0
2, 197212, Note_off_c, 0, 80, 0
2, 197212, Note_on_c, 0, 39, 127
2, 197244, Note_off_c, 0, 51, 0
2, 197304, Note_on_c, 0, 68, 127
2, 197308, Note_off_c, 0, 75, 0
2, 197328, Note_off_c, 0, 72, 0
2, 197360, Note_off_c, 0, 68, 0
2, 197436, Note_on_c, 0, 44, 127
2, 197476, Note_on_c, 0, 61, 127
2, 197480, Note_on_c, 0, 68, 127
2, 197500, Note_on_c, 0, 63, 127
2, 197684, Note_off_c, 0, 61, 0
2, 197772, Note_off_c, 0, 39, 0
2, 197784, Note_on_c, 0, 60, 127
2, 197788, Note_off_c, 0, 44, 0
2, 197788, Note_on_c, 0, 51, 127
2, 197816, Note_off_c, 0, 68, 0
2, 197820, Note_off_c, 0, 63, 0
2, 197844, Note_off_c, 0, 60, 0
2, 197876, Note_off_c, 0, 51, 0
2, 197992, Note_on_c, 0, 39, 127
2, 198048, Note_off_c, 0, 39, 0
2, 198116, Note_on_c, 0, 56, 127
2, 198192, Note_off_c, 0, 56, 0
2, 198332, Note_on_c, 0, 32, 127
2, 198336, Note_on_c, 0, 56, 127
2, 198340, Note_on_c, 0, 44, 127
2, 198352, Control_c, 0, 64, 63
2, 198360, Control_c, 0, 64, 0
2, 198424, Control_c, 0, 64, 63
2, 198432, Control_c, 0, 64, 127
2, 198472, Note_off_c, 0, 32, 0
2, 198504, Note_off_c, 0, 44, 0
2, 198544, Note_on_c, 0, 68, 127
2, 198576, Note_on_c, 0, 66, 127
2, 198604, Note_off_c, 0, 66, 0
2, 198632, Note_off_c, 0, 56, 0
2, 198688, Note_off_c, 0, 68, 0
2, 198700, Note_on_c, 0, 60, 127
2, 198704, Note_on_c, 0, 51, 127
2, 198836, Note_on_c, 0, 63, 127
2, 198860, Note_off_c, 0, 60, 0
2, 198956, Note_on_c, 0, 68, 127
2, 198960, Note_on_c, 0, 39, 127
2, 198964, Note_off_c, 0, 63, 0
2, 199004, Note_off_c, 0, 68, 0
2, 199032, Note_off_c, 0, 51, 0
2, 199064, Note_on_c, 0, 68, 127
2, 199140, Note_off_c, 0, 68, 0
2, 199168, Note_on_c, 0, 80, 127
2, 199216, Note_on_c, 0, 44, 127
2, 199232, Note_off_c, 0, 80, 0
2, 199284, Note_on_c, 0, 80, 127
2, 199388, Note_off_c, 0, 80, 0
2, 199428, Note_on_c, 0, 92, 127
2, 199480, Note_off_c, 0, 92, 0
2, 199516, Note_off_c, 0, 39, 0
2, 199612, Note_off_c, 0, 44, 0
2, 199744, Note_on_c, 0, 51, 127
2, 199764, Note_on_c, 0, 63, 127
2, 199844, Note_off_c, 0, 63, 0
2, 199868, Note_off_c, 0, 51, 0
2, 199992, Note_on_c, 0, 39, 127
2, 199996, Note_on_c, 0, 58, 127
2, 200104, Note_off_c, 0, 58, 0
2, 200188, Note_on_c, 0, 44, 127
2, 200192, Note_off_c, 0, 39, 0
2, 200192, Note_on_c, 0, 60, 127
2, 200336, Note_off_c, 0, 60, 0
2, 200408, Note_on_c, 0, 51, 127
2, 200408, Note_on_c, 0, 63, 127
2, 200436, Note_off_c, 0, 44, 0
2, 200468, Note_off_c, 0, 63, 0
2, 200620, Note_off_c, 0, 51, 0
2, 200624, Note_on_c, 0, 39, 127
2, 200632, Note_on_c, 0, 58, 127
2, 200632, Note_on_c, 0, 70, 127
2, 200680, Note_off_c, 0, 70, 0
2, 200684, Note_off_c, 0, 58, 0
2, 200856, Note_off_c, 0, 39, 0
2, 200860, Note_on_c, 0, 44, 127
2, 200864, Note_on_c, 0, 72, 127
2, 200880, Note_on_c, 0, 60, 127
2, 200900, Note_off_c, 0, 72, 0
2, 200916, Note_off_c, 0, 60, 0
2, 200984, Note_off_c, 0, 44, 0
2, 201128, Note_on_c, 0, 75, 127
2, 201128, Note_on_c, 0, 51, 127
2, 201132, Note_on_c, 0, 63, 127
2, 201176, Note_off_c, 0, 75, 0
2, 201184, Note_off_c, 0, 63, 0
2, 201212, Note_off_c, 0, 51, 0
2, 201440, Note_on_c, 0, 70, 127
2, 201452, Note_on_c, 0, 39, 127
2, 201504, Note_off_c, 0, 70, 0
2, 201536, Note_off_c, 0, 39, 0
2, 201808, Note_on_c, 0, 44, 127
2, 201808, Note_on_c, 0, 32, 127
2, 201812, Note_on_c, 0, 80, 127
2, 201816, Note_on_c, 0, 72, 127
2, 201820, Note_on_c, 0, 68, 127
2, 202092, Control_c, 0, 64, 63
2, 202108, Control_c, 0, 64, 0
2, 202200, Control_c, 0, 64, 127
2, 202312, Note_off_c, 0, 44, 0
2, 202312, Note_off_c, 0, 32, 0
2, 202376, Note_on_c, 0, 75, 127
2, 202400, Note_on_c, 0, 51, 127
2, 202440, Note_off_c, 0, 80, 0
2, 202472, Note_off_c, 0, 72, 0
2, 202532, Note_off_c, 0, 68, 0
2, 202612, Note_on_c, 0, 77, 127
2, 202656, Note_off_c, 0, 75, 0
2, 202696, Note_on_c, 0, 39, 127
2, 202744, Note_on_c, 0, 75, 127
2, 202752, Note_off_c, 0, 77, 0
2, 202816, Note_off_c, 0, 51, 0
2, 202816, Note_off_c, 0, 75, 0
2, 202820, Note_on_c, 0, 77, 127
2, 202904, Note_on_c, 0, 75, 127
2, 202912, Note_off_c, 0, 77, 0
2, 202952, Note_on_c, 0, 77, 127
2, 202952, Note_on_c, 0, 44, 127
2, 202956, Note_off_c, 0, 75, 0
2, 202988, Note_off_c, 0, 39, 0
2, 203008, Note_on_c, 0, 75, 127
2, 203020, Note_off_c, 0, 77, 0
2, 203060, Note_on_c, 0, 77, 127
2, 203068, Note_off_c, 0, 75, 0
2, 203116, Note_off_c, 0, 77, 0
2, 203120, Note_on_c, 0, 75, 127
2, 203140, Note_off_c, 0, 44, 0
2, 203160, Note_on_c, 0, 77, 127
2, 203172, Note_off_c, 0, 75, 0
2, 203184, Note_on_c, 0, 51, 127
2, 203220, Note_on_c, 0, 75, 127
2, 203224, Note_off_c, 0, 77, 0
2, 203264, Note_off_c, 0, 51, 0
2, 203268, Note_on_c, 0, 77, 127
2, 203272, Note_off_c, 0, 75, 0
2, 203320, Note_on_c, 0, 75, 127
2, 203324, Note_off_c, 0, 77, 0
2, 203376, Note_off_c, 0, 75, 0
2, 203388, Note_on_c, 0, 77, 124
2, 203392, Note_on_c, 0, 39, 127
2, 203420, Note_on_c, 0, 75, 127
2, 203488, Note_off_c, 0, 77, 0
2, 203532, Note_on_c, 0, 74, 127
2, 203544, Note_off_c, 0, 75, 0
2, 203596, Note_on_c, 0, 75, 127
2, 203620, Note_off_c, 0, 74, 0
2, 203656, Note_off_c, 0, 75, 0
2, 203796, Note_on_c, 0, 44, 127
2, 203824, Note_on_c, 0, 80, 127
2, 203824, Note_on_c, 0, 72, 127
2, 203836, Note_on_c, 0, 68, 127
2, 203840, Control_c, 0, 64, 63
2, 203844, Control_c, 0, 64, 0
2, 203896, Note_off_c, 0, 39, 0
2, 203904, Control_c, 0, 64, 63
2, 203912, Control_c, 0, 64, 127
2, 203992, Note_off_c, 0, 80, 0
2, 204032, Note_off_c, 0, 68, 0
2, 204060, Note_off_c, 0, 72, 0
2, 204196, Note_on_c, 0, 75, 127
2, 204200, Note_on_c, 0, 77, 127
2, 204200, Note_on_c, 0, 51, 127
2, 204208, Note_off_c, 0, 44, 0
2, 204248, Note_off_c, 0, 75, 0
2, 204248, Note_off_c, 0, 77, 0
2, 204296, Note_off_c, 0, 51, 0
2, 204436, Note_on_c, 0, 79, 127
2, 204440, Note_on_c, 0, 70, 127
2, 204444, Note_on_c, 0, 39, 127
2, 204456, Note_on_c, 0, 67, 127
2, 204500, Note_off_c, 0, 67, 0
2, 204520, Note_off_c, 0, 79, 0
2, 204520, Note_off_c, 0, 70, 0
2, 204644, Note_on_c, 0, 80, 127
2, 204652, Note_on_c, 0, 44, 127
2, 204652, Note_on_c, 0, 72, 127
2, 204656, Note_on_c, 0, 68, 127
2, 204680, Control_c, 0, 64, 63
2, 204708, Control_c, 0, 64, 127
2, 204760, Note_off_c, 0, 80, 0
2, 204780, Note_off_c, 0, 39, 0
2, 204788, Note_off_c, 0, 68, 0
2, 204852, Note_off_c, 0, 72, 0
2, 204872, Note_on_c, 0, 51, 127
2, 204884, Note_on_c, 0, 75, 127
2, 204888, Note_on_c, 0, 77, 127
2, 204948, Note_off_c, 0, 75, 0
2, 204948, Note_off_c, 0, 77, 0
2, 205084, Note_off_c, 0, 51, 0
2, 205088, Note_on_c, 0, 39, 127
2, 205088, Note_on_c, 0, 79, 127
2, 205088, Note_on_c, 0, 70, 127
2, 205104, Note_off_c, 0, 44, 0
2, 205108, Note_on_c, 0, 67, 127
2, 205168, Note_off_c, 0, 79, 0
2, 205168, Note_off_c, 0, 67, 0
2, 205176, Note_off_c, 0, 70, 0
2, 205344, Note_on_c, 0, 80, 127
2, 205352, Control_c, 0, 64, 63
2, 205356, Note_on_c, 0, 72, 127
2, 205360, Note_on_c, 0, 68, 127
2, 205360, Note_on_c, 0, 44, 127
2, 205364, Control_c, 0, 64, 0
2, 205432, Control_c, 0, 64, 63
2, 205436, Control_c, 0, 64, 127
2, 205624, Note_off_c, 0, 39, 0
2, 205660, Note_on_c, 0, 51, 127
2, 205668, Note_on_c, 0, 75, 127
2, 205680, Note_off_c, 0, 80, 0
2, 205688, Note_off_c, 0, 72, 0
2, 205712, Note_off_c, 0, 68, 0
2, 205784, Note_off_c, 0, 75, 0
2, 205868, Note_off_c, 0, 51, 0
2, 205868, Note_on_c, 0, 79, 127
2, 205872, Note_on_c, 0, 39, 127
2, 205872, Note_on_c, 0, 70, 127
2, 205900, Note_on_c, 0, 67, 112
2, 205904, Note_off_c, 0, 44, 0
2, 205928, Note_off_c, 0, 67, 0
2, 205944, Note_off_c, 0, 79, 0
2, 205968, Note_off_c, 0, 70, 0
2, 206080, Note_on_c, 0, 80, 127
2, 206088, Note_on_c, 0, 71, 127
2, 206092, Control_c, 0, 64, 63
2, 206096, Note_on_c, 0, 44, 127
2, 206096, Note_on_c, 0, 68, 127
2, 206100, Control_c, 0, 64, 0
2, 206144, Control_c, 0, 64, 63
2, 206152, Control_c, 0, 64, 127
2, 206240, Note_off_c, 0, 68, 0
2, 206248, Note_off_c, 0, 71, 0
2, 206260, Note_off_c, 0, 80, 0
2, 206296, Note_off_c, 0, 39, 0
2, 206304, Note_on_c, 0, 51, 127
2, 206308, Note_on_c, 0, 78, 127
2, 206372, Note_off_c, 0, 78, 0
2, 206412, Note_off_c, 0, 51, 0
2, 206460, Note_off_c, 0, 44, 0
2, 206508, Note_on_c, 0, 39, 127
2, 206512, Note_on_c, 0, 82, 127
2, 206520, Note_on_c, 0, 76, 127
2, 206520, Note_on_c, 0, 70, 127
2, 206576, Note_off_c, 0, 76, 0
2, 206596, Note_off_c, 0, 70, 0
2, 206628, Note_off_c, 0, 82, 0
2, 206724, Note_on_c, 0, 83, 127
2, 206728, Note_on_c, 0, 75, 127
2, 206732, Note_on_c, 0, 44, 127
2, 206736, Control_c, 0, 64, 63
2, 206736, Note_on_c, 0, 71, 127
2, 206744, Control_c, 0, 64, 0
2, 206756, Note_off_c, 0, 39, 0
2, 206792, Control_c, 0, 64, 63
2, 206800, Control_c, 0, 64, 127
2, 206968, Note_off_c, 0, 71, 0
2, 206992, Note_off_c, 0, 83, 0
2, 207016, Note_on_c, 0, 51, 127
2, 207020, Note_on_c, 0, 78, 127
2, 207132, Note_off_c, 0, 75, 0
2, 207140, Note_off_c, 0, 51, 0
2, 207256, Note_on_c, 0, 39, 127
2, 207264, Note_on_c, 0, 68, 127
2, 207308, Note_off_c, 0, 44, 0
2, 207324, Note_off_c, 0, 68, 0
2, 207344, Note_off_c, 0, 78, 0
2, 207520, Control_c, 0, 64, 63
2, 207524, Note_on_c, 0, 83, 127
2, 207524, Note_on_c, 0, 71, 127
2, 207528, Control_c, 0, 64, 0
2, 207528, Note_on_c, 0, 44, 127
2, 207540, Note_on_c, 0, 73, 127
2, 207556, Note_off_c, 0, 39, 0
2, 207576, Control_c, 0, 64, 63
2, 207584, Control_c, 0, 64, 127
2, 207768, Note_off_c, 0, 83, 0
2, 207824, Note_on_c, 0, 77, 127
2, 207828, Note_on_c, 0, 49, 127
2, 207852, Note_off_c, 0, 44, 0
2, 207872, Note_off_c, 0, 73, 0
2, 207928, Note_off_c, 0, 71, 0
2, 207960, Note_off_c, 0, 49, 0
2, 207992, Note_off_c, 0, 77, 0
2, 208144, Note_on_c, 0, 37, 127
2, 208152, Note_on_c, 0, 68, 127
2, 208212, Note_off_c, 0, 37, 0
2, 208216, Note_off_c, 0, 68, 0
2, 208584, Note_on_c, 0, 83, 127
2, 208592, Note_on_c, 0, 71, 127
2, 208592, Note_on_c, 0, 73, 127
2, 208592, Note_on_c, 0, 30, 127
2, 208600, Note_on_c, 0, 42, 127
2, 208636, Control_c, 0, 64, 63
2, 208640, Control_c, 0, 64, 0
2, 208764, Control_c, 0, 64, 127
2, 208892, Note_off_c, 0, 30, 0
2, 208912, Note_off_c, 0, 42, 0
2, 208920, Note_off_c, 0, 83, 0
2, 208992, Note_off_c, 0, 73, 0
2, 209084, Note_off_c, 0, 71, 0
2, 209112, Note_on_c, 0, 49, 127
2, 209116, Note_on_c, 0, 78, 127
2, 209192, Note_off_c, 0, 78, 0
2, 209368, Note_off_c, 0, 49, 0
2, 209380, Note_on_c, 0, 37, 127
2, 209384, Note_on_c, 0, 66, 127
2, 209468, Note_off_c, 0, 66, 0
2, 209584, Note_on_c, 0, 71, 127
2, 209584, Note_on_c, 0, 42, 127
2, 209584, Note_on_c, 0, 73, 127
2, 209588, Control_c, 0, 64, 63
2, 209596, Control_c, 0, 64, 0
2, 209624, Control_c, 0, 64, 63
2, 209640, Control_c, 0, 64, 127
2, 209652, Note_off_c, 0, 71, 0
2, 209664, Note_off_c, 0, 73, 0
2, 209772, Note_off_c, 0, 37, 0
2, 209848, Note_off_c, 0, 42, 0
2, 209848, Note_on_c, 0, 82, 127
2, 209856, Note_on_c, 0, 70, 127
2, 209860, Note_on_c, 0, 78, 127
2, 209860, Note_on_c, 0, 49, 127
2, 209880, Note_off_c, 0, 70, 0
2, 209884, Note_off_c, 0, 78, 0
2, 209912, Note_off_c, 0, 82, 0
2, 209936, Note_off_c, 0, 49, 0
2, 210104, Note_on_c, 0, 37, 127
2, 210200, Note_on_c, 0, 78, 127
2, 210208, Note_on_c, 0, 66, 127
2, 210252, Note_off_c, 0, 66, 0
2, 210264, Note_off_c, 0, 78, 0
2, 210296, Note_on_c, 0, 42, 127
2, 210296, Note_on_c, 0, 78, 127
2, 210304, Note_on_c, 0, 66, 127
2, 210308, Note_on_c, 0, 73, 127
2, 210308, Note_on_c, 0, 71, 127
2, 210312, Control_c, 0, 64, 63
2, 210320, Control_c, 0, 64, 0
2, 210384, Control_c, 0, 64, 63
2, 210392, Control_c, 0, 64, 127
2, 210480, Note_off_c, 0, 37, 0
2, 210484, Note_off_c, 0, 71, 0
2, 210560, Note_on_c, 0, 70, 127
2, 210560, Note_on_c, 0, 49, 127
2, 210596, Note_off_c, 0, 42, 0
2, 210600, Note_off_c, 0, 66, 0
2, 210704, Note_off_c, 0, 49, 0
2, 210736, Note_on_c, 0, 37, 127
2, 210768, Note_off_c, 0, 78, 0
2, 210840, Note_off_c, 0, 73, 0
2, 210840, Note_off_c, 0, 70, 0
2, 210844, Note_on_c, 0, 66, 127
2, 210896, Note_off_c, 0, 66, 0
2, 210976, Note_on_c, 0, 42, 127
2, 211024, Note_on_c, 0, 59, 127
2, 211040, Note_on_c, 0, 66, 127
2, 211052, Note_on_c, 0, 61, 127
2, 211268, Note_off_c, 0, 59, 0
2, 211368, Note_on_c, 0, 49, 127
2, 211372, Note_on_c, 0, 58, 127
2, 211388, Note_off_c, 0, 37, 0
2, 211396, Note_on_c, 0, 57, 127
2, 211432, Control_c, 0, 64, 63
2, 211440, Note_off_c, 0, 57, 0
2, 211452, Control_c, 0, 64, 127
2, 211576, Note_off_c, 0, 58, 0
2, 211640, Note_off_c, 0, 61, 0
2, 211644, Note_on_c, 0, 37, 127
2, 211648, Note_off_c, 0, 42, 0
2, 211648, Note_off_c, 0, 49, 0
2, 211728, Note_off_c, 0, 37, 0
2, 211792, Note_off_c, 0, 66, 0
2, 211804, Note_on_c, 0, 54, 127
2, 211904, Note_off_c, 0, 54, 0
2, 211980, Note_on_c, 0, 54, 127
2, 211988, Note_on_c, 0, 30, 127
2, 211992, Note_on_c, 0, 42, 127
2, 212016, Control_c, 0, 64, 63
2, 212024, Control_c, 0, 64, 0
2, 212068, Control_c, 0, 64, 63
2, 212080, Control_c, 0, 64, 127
2, 212152, Note_off_c, 0, 30, 0
2, 212180, Note_off_c, 0, 42, 0
2, 212268, Note_on_c, 0, 66, 127
2, 212376, Note_off_c, 0, 54, 0
2, 212400, Note_on_c, 0, 58, 127
2, 212408, Note_on_c, 0, 49, 127
2, 212420, Note_off_c, 0, 66, 0
2, 212528, Note_on_c, 0, 61, 127
2, 212572, Note_off_c, 0, 58, 0
2, 212640, Note_on_c, 0, 37, 127
2, 212640, Note_on_c, 0, 66, 127
2, 212648, Note_off_c, 0, 61, 0
2, 212680, Note_off_c, 0, 49, 0
2, 212700, Note_off_c, 0, 66, 0
2, 212760, Note_on_c, 0, 66, 127
2, 212832, Note_off_c, 0, 66, 0
2, 212856, Note_on_c, 0, 78, 127
2, 212912, Note_off_c, 0, 78, 0
2, 212920, Note_on_c, 0, 42, 127
2, 212976, Note_on_c, 0, 78, 127
2, 213008, Note_off_c, 0, 37, 0
2, 213156, Note_off_c, 0, 78, 0
2, 213168, Note_on_c, 0, 90, 127
2, 213236, Note_off_c, 0, 90, 0
2, 213592, Note_on_c, 0, 49, 127
2, 213604, Note_off_c, 0, 42, 0
2, 213624, Note_on_c, 0, 61, 127
2, 213940, Note_on_c, 0, 56, 127
2, 213952, Note_on_c, 0, 37, 127
2, 214016, Note_off_c, 0, 49, 0
2, 214096, Note_off_c, 0, 56, 0
2, 214136, Note_off_c, 0, 61, 0
2, 214164, Note_on_c, 0, 42, 127
2, 214176, Note_on_c, 0, 57, 127
2, 214268, Control_c, 0, 64, 63
2, 214324, Note_off_c, 0, 37, 0
2, 214324, Control_c, 0, 64, 127
2, 214404, Note_on_c, 0, 61, 127
2, 214416, Note_on_c, 0, 49, 127
2, 214460, Note_off_c, 0, 57, 0
2, 214512, Note_off_c, 0, 61, 0
2, 214608, Note_on_c, 0, 37, 127
2, 214628, Note_off_c, 0, 42, 0
2, 214632, Note_on_c, 0, 66, 127
2, 214648, Note_on_c, 0, 56, 127
2, 214656, Note_off_c, 0, 49, 0
2, 214744, Note_off_c, 0, 56, 0
2, 214824, Note_off_c, 0, 66, 0
2, 214900, Note_on_c, 0, 42, 127
2, 214916, Note_on_c, 0, 57, 127
2, 214920, Note_on_c, 0, 64, 127
2, 214940, Note_off_c, 0, 37, 0
2, 214984, Control_c, 0, 64, 63
2, 215000, Control_c, 0, 64, 0
2, 215016, Control_c, 0, 64, 63
2, 215040, Control_c, 0, 64, 127
2, 215168, Note_on_c, 0, 61, 127
2, 215176, Note_on_c, 0, 49, 127
2, 215184, Note_off_c, 0, 57, 0
2, 215224, Note_off_c, 0, 64, 0
2, 215224, Note_off_c, 0, 61, 0
2, 215348, Note_off_c, 0, 42, 0
2, 215356, Note_on_c, 0, 37, 127
2, 215368, Note_off_c, 0, 49, 0
2, 215380, Note_on_c, 0, 66, 127
2, 215396, Note_on_c, 0, 56, 127
2, 215492, Note_off_c, 0, 56, 0
2, 215584, Note_off_c, 0, 66, 0
2, 215632, Note_on_c, 0, 42, 127
2, 215652, Note_on_c, 0, 62, 127
2, 215656, Note_off_c, 0, 37, 0
2, 215664, Note_on_c, 0, 57, 127
2, 215688, Control_c, 0, 64, 63
2, 215696, Control_c, 0, 64, 0
2, 215744, Control_c, 0, 64, 63
2, 215764, Control_c, 0, 64, 127
2, 215924, Note_off_c, 0, 57, 0
2, 215964, Note_on_c, 0, 49, 127
2, 215972, Note_on_c, 0, 60, 127
2, 216160, Note_off_c, 0, 60, 0
2, 216160, Note_on_c, 0, 37, 127
2, 216164, Note_off_c, 0, 42, 0
2, 216164, Note_off_c, 0, 49, 0
2, 216184, Note_on_c, 0, 56, 127
2, 216296, Note_off_c, 0, 56, 0
2, 216360, Note_off_c, 0, 62, 0
2, 216364, Note_on_c, 0, 57, 127
2, 216380, Note_on_c, 0, 42, 127
2, 216432, Note_off_c, 0, 37, 0
2, 216600, Note_off_c, 0, 57, 0
2, 216632, Note_on_c, 0, 69, 127
2, 216656, Note_on_c, 0, 49, 127
2, 216688, Note_off_c, 0, 69, 0
2, 216924, Note_on_c, 0, 37, 127
2, 216952, Note_on_c, 0, 54, 127
2, 216960, Note_off_c, 0, 49, 0
2, 216968, Note_off_c, 0, 42, 0
2, 217036, Note_off_c, 0, 54, 0
2, 217284, Note_on_c, 0, 44, 127
2, 217304, Note_on_c, 0, 61, 127
2, 217316, Note_on_c, 0, 53, 127
2, 217368, Control_c, 0, 64, 63
2, 217376, Control_c, 0, 64, 0
2, 217424, Control_c, 0, 64, 63
2, 217440, Control_c, 0, 64, 127
2, 217592, Note_on_c, 0, 56, 127
2, 217604, Note_off_c, 0, 37, 0
2, 217608, Note_on_c, 0, 49, 127
2, 217612, Note_off_c, 0, 53, 0
2, 217632, Note_off_c, 0, 56, 0
2, 217640, Note_off_c, 0, 61, 0
2, 217920, Note_off_c, 0, 49, 0
2, 217936, Note_on_c, 0, 73, 127
2, 217940, Note_on_c, 0, 37, 127
2, 217944, Note_on_c, 0, 61, 127
2, 217948, Note_off_c, 0, 44, 0
2, 218004, Note_off_c, 0, 61, 0
2, 218016, Note_off_c, 0, 73, 0
2, 218240, Note_off_c, 0, 37, 0
2, 218240, Note_on_c, 0, 42, 127
2, 218244, Note_on_c, 0, 76, 127
2, 218256, Note_on_c, 0, 69, 127
2, 218264, Note_on_c, 0, 64, 124
2, 218284, Control_c, 0, 64, 63
2, 218292, Control_c, 0, 64, 0
2, 218336, Control_c, 0, 64, 63
2, 218352, Control_c, 0, 64, 127
2, 218500, Note_on_c, 0, 54, 127
2, 218516, Note_off_c, 0, 76, 0
2, 218528, Note_on_c, 0, 73, 127
2, 218532, Note_off_c, 0, 64, 0
2, 218576, Note_off_c, 0, 54, 0
2, 218592, Note_off_c, 0, 69, 0
2, 218672, Note_off_c, 0, 73, 0
2, 218716, Note_on_c, 0, 37, 127
2, 218720, Note_on_c, 0, 78, 127
2, 218732, Note_on_c, 0, 69, 127
2, 218736, Note_on_c, 0, 66, 127
2, 218752, Note_off_c, 0, 42, 0
2, 218800, Note_off_c, 0, 78, 0
2, 218804, Note_off_c, 0, 69, 0
2, 218816, Note_off_c, 0, 66, 0
2, 219020, Note_on_c, 0, 74, 127
2, 219024, Note_on_c, 0, 69, 127
2, 219028, Note_on_c, 0, 42, 127
2, 219040, Note_off_c, 0, 37, 0
2, 219040, Note_on_c, 0, 62, 127
2, 219112, Control_c, 0, 64, 63
2, 219120, Control_c, 0, 64, 0
2, 219152, Control_c, 0, 64, 63
2, 219168, Control_c, 0, 64, 127
2, 219416, Note_on_c, 0, 54, 127
2, 219456, Note_on_c, 0, 72, 127
2, 219492, Note_off_c, 0, 54, 0
2, 219496, Note_off_c, 0, 69, 0
2, 219684, Note_on_c, 0, 68, 127
2, 219704, Note_on_c, 0, 37, 127
2, 219732, Note_off_c, 0, 42, 0
2, 219736, Note_off_c, 0, 72, 0
2, 219772, Note_off_c, 0, 62, 0
2, 219832, Note_off_c, 0, 68, 0
2, 219888, Note_on_c, 0, 69, 127
2, 219920, Note_on_c, 0, 42, 127
2, 219932, Note_off_c, 0, 37, 0
2, 219988, Note_off_c, 0, 74, 0
2, 220096, Note_off_c, 0, 42, 0
2, 220132, Note_on_c, 0, 54, 127
2, 220148, Note_on_c, 0, 72, 127
2, 220164, Note_off_c, 0, 69, 0
2, 220208, Note_off_c, 0, 54, 0
2, 220336, Note_off_c, 0, 72, 0
2, 220344, Note_on_c, 0, 66, 127
2, 220348, Note_on_c, 0, 37, 127
2, 220392, Note_off_c, 0, 66, 0
2, 220560, Note_on_c, 0, 60, 127
2, 220568, Control_c, 0, 64, 63
2, 220568, Note_on_c, 0, 42, 127
2, 220576, Control_c, 0, 64, 0
2, 220592, Note_off_c, 0, 37, 0
2, 220600, Control_c, 0, 64, 63
2, 220620, Control_c, 0, 64, 127
2, 220712, Note_on_c, 0, 62, 127
2, 220760, Note_off_c, 0, 60, 0
2, 220836, Note_on_c, 0, 69, 127
2, 220844, Note_on_c, 0, 54, 127
2, 220848, Note_off_c, 0, 62, 0
2, 220908, Note_off_c, 0, 69, 0
2, 220920, Note_off_c, 0, 54, 0
2, 220976, Note_on_c, 0, 72, 127
2, 221104, Note_on_c, 0, 74, 127
2, 221120, Note_off_c, 0, 72, 0
2, 221168, Note_on_c, 0, 37, 127
2, 221188, Note_off_c, 0, 42, 0
2, 221192, Note_off_c, 0, 74, 0
2, 221192, Note_on_c, 0, 81, 127
2, 221248, Note_off_c, 0, 81, 0
2, 221300, Note_on_c, 0, 81, 127
2, 221396, Note_off_c, 0, 81, 0
2, 221472, Note_on_c, 0, 42, 127
2, 221488, Note_off_c, 0, 37, 0
2, 221496, Note_on_c, 0, 93, 127
2, 221592, Note_off_c, 0, 93, 0
2, 221872, Note_on_c, 0, 54, 127
2, 221964, Note_off_c, 0, 54, 0
2, 222312, Note_on_c, 0, 37, 127
2, 222328, Note_off_c, 0, 42, 0
2, 222328, Note_on_c, 0, 72, 127
2, 222344, Note_on_c, 0, 66, 127
2, 222352, Note_on_c, 0, 60, 127
2, 222468, Control_c, 0, 64, 63
2, 222516, Control_c, 0, 64, 127
2, 222604, Note_off_c, 0, 60, 0
2, 222628, Note_off_c, 0, 72, 0
2, 222652, Note_off_c, 0, 66, 0
2, 222764, Note_off_c, 0, 37, 0
2, 222992, Note_on_c, 0, 44, 127
2, 223012, Note_on_c, 0, 73, 127
2, 223020, Note_on_c, 0, 61, 80
2, 223072, Note_on_c, 0, 65, 76
2, 223128, Control_c, 0, 64, 63
2, 223136, Control_c, 0, 64, 0
2, 223204, Control_c, 0, 64, 63
2, 223216, Control_c, 0, 64, 127
2, 223468, Note_on_c, 0, 68, 127
2, 223476, Note_on_c, 0, 53, 127
2, 223544, Note_off_c, 0, 53, 0
2, 223628, Note_off_c, 0, 61, 0
2, 223760, Note_on_c, 0, 61, 127
2, 223760, Note_on_c, 0, 37, 127
2, 223800, Note_off_c, 0, 65, 0
2, 223840, Note_off_c, 0, 44, 0
2, 223864, Note_off_c, 0, 73, 0
2, 223892, Note_off_c, 0, 61, 0
2, 223932, Note_off_c, 0, 68, 0
2, 224024, Note_on_c, 0, 44, 127
2, 224024, Note_on_c, 0, 73, 127
2, 224036, Note_on_c, 0, 64, 127
2, 224044, Note_on_c, 0, 61, 127
2, 224080, Control_c, 0, 64, 63
2, 224104, Note_off_c, 0, 37, 0
2, 224128, Control_c, 0, 64, 127
2, 224344, Note_on_c, 0, 68, 127
2, 224356, Note_on_c, 0, 52, 127
2, 224428, Note_off_c, 0, 52, 0
2, 224508, Note_off_c, 0, 61, 0
2, 224656, Note_on_c, 0, 37, 127
2, 224672, Note_on_c, 0, 61, 127
2, 224732, Control_c, 0, 64, 63
2, 224760, Control_c, 0, 64, 127
2, 224768, Note_off_c, 0, 64, 0
2, 224840, Note_off_c, 0, 37, 0
2, 224976, Note_off_c, 0, 44, 0
2, 225000, Note_on_c, 0, 40, 127
2, 225040, Note_on_c, 0, 64, 127
2, 225056, Control_c, 0, 64, 63
2, 225068, Control_c, 0, 64, 0
2, 225080, Control_c, 0, 64, 63
2, 225104, Control_c, 0, 64, 127
2, 225200, Note_off_c, 0, 73, 0
2, 225276, Note_off_c, 0, 68, 0
2, 225296, Note_off_c, 0, 61, 0
2, 225312, Note_off_c, 0, 64, 0
2, 225432, Note_on_c, 0, 71, 127
2, 225436, Note_on_c, 0, 68, 127
2, 225448, Note_on_c, 0, 62, 127
2, 225460, Note_on_c, 0, 47, 127
2, 225468, Note_off_c, 0, 40, 0
2, 225552, Note_off_c, 0, 71, 0
2, 225552, Note_off_c, 0, 62, 0
2, 225552, Note_off_c, 0, 47, 0
2, 225604, Note_off_c, 0, 68, 0
2, 225760, Note_on_c, 0, 73, 127
2, 225776, Note_on_c, 0, 66, 127
2, 225792, Note_on_c, 0, 56, 127
2, 225836, Note_off_c, 0, 56, 0
2, 225856, Note_off_c, 0, 66, 0
2, 225880, Note_off_c, 0, 73, 0
2, 226172, Note_on_c, 0, 74, 127
2, 226176, Note_on_c, 0, 71, 127
2, 226216, Note_on_c, 0, 62, 52
2, 226216, Note_on_c, 0, 64, 96
2, 226248, Note_on_c, 0, 59, 120
2, 226252, Control_c, 0, 64, 63
2, 226284, Control_c, 0, 64, 127
2, 226420, Note_off_c, 0, 71, 0
2, 226432, Note_off_c, 0, 74, 0
2, 226676, Note_on_c, 0, 80, 127
2, 226688, Note_on_c, 0, 76, 127
2, 227104, Note_off_c, 0, 62, 0
2, 227236, Note_off_c, 0, 76, 0
2, 227264, Note_on_c, 0, 78, 127
2, 227296, Note_off_c, 0, 80, 0
2, 227312, Note_on_c, 0, 66, 120
2, 227316, Note_on_c, 0, 74, 108
2, 227448, Note_off_c, 0, 59, 0
2, 227508, Note_off_c, 0, 64, 0
2, 227536, Note_off_c, 0, 66, 0
2, 227568, Note_off_c, 0, 74, 0
2, 227608, Control_c, 0, 67, 127
2, 227616, Note_off_c, 0, 78, 0
2, 227908, Control_c, 0, 67, 0
2, 228156, Control_c, 0, 67, 127
2, 228204, Note_on_c, 0, 73, 127
2, 228216, Note_on_c, 0, 76, 127
2, 228244, Note_on_c, 0, 64, 60
2, 228256, Note_on_c, 0, 33, 76
2, 228276, Note_on_c, 0, 45, 76
2, 228328, Control_c, 0, 64, 63
2, 228332, Control_c, 0, 64, 0
2, 228400, Control_c, 0, 64, 63
2, 228408, Control_c, 0, 64, 127
2, 228480, Note_off_c, 0, 33, 0
2, 228528, Note_off_c, 0, 45, 0
2, 228696, Note_off_c, 0, 76, 0
2, 228712, Note_off_c, 0, 64, 0
2, 228736, Note_on_c, 0, 52, 127
2, 228744, Note_off_c, 0, 73, 0
2, 229028, Note_on_c, 0, 54, 127
2, 229044, Note_on_c, 0, 75, 127
2, 229048, Note_on_c, 0, 63, 127
2, 229052, Note_on_c, 0, 72, 127
2, 229116, Note_off_c, 0, 72, 0
2, 229148, Note_off_c, 0, 63, 0
2, 229160, Note_off_c, 0, 75, 0
2, 229268, Note_off_c, 0, 52, 0
2, 229288, Note_on_c, 0, 56, 127
2, 229300, Note_on_c, 0, 74, 127
2, 229312, Note_on_c, 0, 71, 127
2, 229324, Note_off_c, 0, 54, 0
2, 229332, Note_on_c, 0, 62, 64
2, 229372, Control_c, 0, 64, 63
2, 229424, Control_c, 0, 64, 127
2, 229528, Note_on_c, 0, 52, 127
2, 229536, Note_off_c, 0, 62, 0
2, 229608, Note_off_c, 0, 71, 0
2, 229664, Note_off_c, 0, 74, 0
2, 229736, Note_off_c, 0, 56, 0
2, 229744, Note_on_c, 0, 68, 127
2, 229752, Note_on_c, 0, 62, 127
2, 229752, Note_on_c, 0, 72, 127
2, 229788, Note_off_c, 0, 52, 0
2, 229792, Note_off_c, 0, 62, 0
2, 229792, Note_off_c, 0, 72, 0
2, 229796, Note_off_c, 0, 68, 0
2, 230016, Note_on_c, 0, 45, 127
2, 230024, Note_on_c, 0, 73, 127
2, 230032, Note_on_c, 0, 61, 127
2, 230040, Note_on_c, 0, 69, 127
2, 230060, Control_c, 0, 64, 63
2, 230072, Control_c, 0, 64, 0
2, 230100, Control_c, 0, 64, 63
2, 230120, Control_c, 0, 64, 127
2, 230240, Note_off_c, 0, 69, 0
2, 230244, Note_off_c, 0, 61, 0
2, 230260, Note_off_c, 0, 73, 0
2, 230284, Note_on_c, 0, 52, 127
2, 230320, Note_off_c, 0, 45, 0
2, 230452, Note_on_c, 0, 76, 127
2, 230456, Note_on_c, 0, 73, 127
2, 230456, Note_on_c, 0, 45, 127
2, 230460, Note_on_c, 0, 64, 127
2, 230496, Note_off_c, 0, 64, 0
2, 230500, Note_off_c, 0, 52, 0
2, 230520, Note_off_c, 0, 73, 0
2, 230536, Note_off_c, 0, 76, 0
2, 230708, Note_on_c, 0, 52, 127
2, 230716, Note_on_c, 0, 81, 127
2, 230716, Note_on_c, 0, 73, 127
2, 230736, Note_on_c, 0, 69, 127
2, 230744, Control_c, 0, 64, 63
2, 230760, Control_c, 0, 64, 0
2, 230792, Control_c, 0, 64, 63
2, 230816, Control_c, 0, 64, 127
2, 230960, Note_off_c, 0, 45, 0
2, 230972, Note_off_c, 0, 81, 0
2, 230996, Note_on_c, 0, 57, 127
2, 231016, Note_off_c, 0, 69, 0
2, 231020, Note_off_c, 0, 52, 0
2, 231060, Note_off_c, 0, 57, 0
2, 231120, Note_off_c, 0, 73, 0
2, 231276, Note_on_c, 0, 61, 127
2, 231280, Note_on_c, 0, 80, 127
2, 231288, Note_on_c, 0, 68, 127
2, 231304, Note_on_c, 0, 76, 127
2, 231340, Note_off_c, 0, 61, 0
2, 231348, Note_off_c, 0, 76, 0
2, 231368, Note_off_c, 0, 68, 0
2, 231376, Note_off_c, 0, 80, 0
2, 231596, Note_on_c, 0, 78, 127
2, 231604, Note_on_c, 0, 45, 116
2, 231612, Note_on_c, 0, 74, 127
2, 231616, Control_c, 0, 64, 63
2, 231620, Note_on_c, 0, 66, 127
2, 231628, Control_c, 0, 64, 0
2, 231644, Control_c, 0, 64, 63
2, 231668, Control_c, 0, 64, 127
2, 231724, Note_off_c, 0, 78, 0
2, 231736, Note_off_c, 0, 74, 0
2, 231768, Note_off_c, 0, 66, 0
2, 231876, Note_on_c, 0, 76, 127
2, 231880, Note_on_c, 0, 73, 127
2, 231900, Note_on_c, 0, 52, 127
2, 231904, Note_off_c, 0, 45, 0
2, 231940, Note_off_c, 0, 76, 0
2, 231948, Note_off_c, 0, 73, 0
2, 232040, Note_off_c, 0, 52, 0
2, 232088, Note_on_c, 0, 74, 127
2, 232088, Note_on_c, 0, 71, 127
2, 232092, Note_on_c, 0, 45, 127
2, 232100, Note_on_c, 0, 62, 127
2, 232136, Note_off_c, 0, 62, 0
2, 232152, Note_off_c, 0, 71, 0
2, 232156, Note_off_c, 0, 74, 0
2, 232332, Note_off_c, 0, 45, 0
2, 232348, Note_on_c, 0, 52, 127
2, 232360, Note_on_c, 0, 78, 127
2, 232364, Control_c, 0, 64, 63
2, 232364, Note_on_c, 0, 74, 127
2, 232376, Control_c, 0, 64, 0
2, 232384, Note_on_c, 0, 66, 127
2, 232392, Control_c, 0, 64, 63
2, 232416, Control_c, 0, 64, 127
2, 232592, Note_off_c, 0, 74, 0
2, 232604, Note_off_c, 0, 78, 0
2, 232664, Note_on_c, 0, 56, 127
2, 232716, Note_off_c, 0, 66, 0
2, 232872, Note_on_c, 0, 71, 127
2, 232876, Note_on_c, 0, 68, 127
2, 232896, Note_on_c, 0, 62, 127
2, 232912, Note_off_c, 0, 56, 0
2, 232928, Note_off_c, 0, 52, 0
2, 232940, Note_off_c, 0, 62, 0
2, 232964, Note_off_c, 0, 68, 0
2, 233016, Note_off_c, 0, 71, 0
2, 233136, Note_on_c, 0, 73, 127
2, 233144, Note_on_c, 0, 45, 127
2, 233160, Note_on_c, 0, 61, 127
2, 233160, Note_on_c, 0, 69, 127
2, 233192, Control_c, 0, 64, 63
2, 233200, Control_c, 0, 64, 0
2, 233264, Control_c, 0, 64, 63
2, 233280, Control_c, 0, 64, 127
2, 233392, Note_on_c, 0, 52, 127
2, 233476, Note_off_c, 0, 45, 0
2, 233496, Note_off_c, 0, 61, 0
2, 233496, Note_off_c, 0, 69, 0
2, 233528, Note_off_c, 0, 73, 0
2, 233584, Note_on_c, 0, 45, 127
2, 233660, Note_off_c, 0, 52, 0
2, 233792, Note_on_c, 0, 76, 127
2, 233800, Note_on_c, 0, 73, 127
2, 233808, Note_on_c, 0, 64, 127
2, 233808, Note_on_c, 0, 52, 127
2, 233888, Control_c, 0, 64, 63
2, 233900, Control_c, 0, 64, 0
2, 233952, Control_c, 0, 64, 63
2, 233968, Control_c, 0, 64, 127
2, 234052, Note_off_c, 0, 45, 0
2, 234064, Note_on_c, 0, 57, 127
2, 234108, Note_off_c, 0, 52, 0
2, 234300, Note_off_c, 0, 57, 0
2, 234340, Note_on_c, 0, 61, 127
2, 234416, Note_off_c, 0, 61, 0
2, 234668, Note_on_c, 0, 45, 127
2, 234752, Control_c, 0, 64, 63
2, 234768, Control_c, 0, 64, 0
2, 234792, Control_c, 0, 64, 63
2, 234812, Control_c, 0, 64, 127
2, 235068, Note_on_c, 0, 52, 127
2, 235072, Note_off_c, 0, 76, 0
2, 235100, Note_off_c, 0, 64, 0
2, 235132, Note_off_c, 0, 73, 0
2, 235152, Note_off_c, 0, 45, 0
2, 235300, Note_off_c, 0, 52, 0
2, 235304, Note_on_c, 0, 45, 127
2, 235316, Note_on_c, 0, 75, 127
2, 235328, Note_on_c, 0, 72, 127
2, 235336, Note_on_c, 0, 63, 127
2, 235456, Control_c, 0, 64, 63
2, 235468, Control_c, 0, 64, 0
2, 235484, Control_c, 0, 64, 63
2, 235504, Control_c, 0, 64, 127
2, 235552, Note_on_c, 0, 52, 127
2, 235592, Note_off_c, 0, 45, 0
2, 235616, Note_off_c, 0, 72, 0
2, 235624, Note_off_c, 0, 52, 0
2, 235628, Note_off_c, 0, 75, 0
2, 235644, Note_off_c, 0, 63, 0
2, 235764, Note_on_c, 0, 74, 127
2, 235764, Note_on_c, 0, 71, 127
2, 235768, Note_on_c, 0, 56, 127
2, 235780, Note_on_c, 0, 62, 127
2, 235888, Note_off_c, 0, 62, 0
2, 235932, Note_off_c, 0, 71, 0
2, 235956, Note_off_c, 0, 74, 0
2, 235984, Note_on_c, 0, 72, 127
2, 235984, Note_on_c, 0, 68, 127
2, 236000, Note_on_c, 0, 62, 127
2, 236008, Note_off_c, 0, 56, 0
2, 236036, Note_off_c, 0, 68, 0
2, 236060, Note_off_c, 0, 72, 0
2, 236064, Note_off_c, 0, 62, 0
2, 236152, Note_on_c, 0, 69, 116
2, 236188, Note_off_c, 0, 69, 0
2, 236216, Note_on_c, 0, 69, 127
2, 236220, Note_on_c, 0, 45, 127
2, 236224, Note_on_c, 0, 73, 127
2, 236228, Control_c, 0, 64, 63
2, 236236, Note_on_c, 0, 61, 127
2, 236272, Control_c, 0, 64, 127
2, 236344, Note_off_c, 0, 69, 0
2, 236372, Note_off_c, 0, 61, 0
2, 236384, Note_off_c, 0, 73, 0
2, 236480, Note_on_c, 0, 64, 127
2, 236480, Note_on_c, 0, 52, 127
2, 236480, Note_on_c, 0, 73, 127
2, 236480, Note_on_c, 0, 76, 127
2, 236520, Note_off_c, 0, 64, 0
2, 236528, Note_off_c, 0, 45, 0
2, 236548, Note_off_c, 0, 73, 0
2, 236552, Note_off_c, 0, 76, 0
2, 236672, Note_on_c, 0, 45, 127
2, 236696, Note_off_c, 0, 52, 0
2, 236704, Note_on_c, 0, 81, 127
2, 236724, Note_on_c, 0, 73, 127
2, 236728, Note_on_c, 0, 69, 127
2, 236812, Note_off_c, 0, 81, 0
2, 236832, Note_off_c, 0, 69, 0
2, 236872, Note_off_c, 0, 73, 0
2, 236968, Note_on_c, 0, 52, 127
2, 236976, Note_on_c, 0, 81, 127
2, 236988, Note_on_c, 0, 69, 127
2, 237000, Note_on_c, 0, 76, 127
2, 237040, Control_c, 0, 64, 63
2, 237048, Control_c, 0, 64, 0
2, 237092, Control_c, 0, 64, 63
2, 237112, Control_c, 0, 64, 127
2, 237252, Note_off_c, 0, 45, 0
2, 237264, Note_on_c, 0, 57, 127
2, 237288, Note_off_c, 0, 52, 0
2, 237292, Note_off_c, 0, 81, 0
2, 237336, Note_off_c, 0, 57, 0
2, 237352, Note_off_c, 0, 69, 0
2, 237396, Note_off_c, 0, 76, 0
2, 237568, Note_on_c, 0, 61, 127
2, 237568, Note_on_c, 0, 80, 127
2, 237568, Note_on_c, 0, 76, 127
2, 237576, Note_on_c, 0, 68, 127
2, 237616, Note_off_c, 0, 61, 0
2, 237644, Note_off_c, 0, 76, 0
2, 237656, Note_off_c, 0, 68, 0
2, 237664, Note_off_c, 0, 80, 0
2, 237916, Note_on_c, 0, 80, 127
2, 237924, Note_on_c, 0, 76, 127
2, 237924, Note_on_c, 0, 68, 127
2, 237928, Control_c, 0, 64, 63
2, 237936, Control_c, 0, 64, 0
2, 237960, Note_on_c, 0, 40, 127
2, 237968, Control_c, 0, 64, 63
2, 237988, Control_c, 0, 64, 127
2, 238044, Note_off_c, 0, 76, 0
2, 238068, Note_off_c, 0, 80, 0
2, 238144, Note_off_c, 0, 68, 0
2, 238268, Note_on_c, 0, 78, 127
2, 238272, Note_on_c, 0, 74, 127
2, 238272, Note_on_c, 0, 47, 127
2, 238296, Note_off_c, 0, 40, 0
2, 238296, Note_on_c, 0, 66, 127
2, 238348, Note_off_c, 0, 74, 0
2, 238364, Note_off_c, 0, 78, 0
2, 238380, Note_off_c, 0, 47, 0
2, 238388, Note_off_c, 0, 66, 0
2, 238512, Note_on_c, 0, 76, 127
2, 238520, Note_on_c, 0, 73, 127
2, 238528, Note_on_c, 0, 64, 127
2, 238532, Note_on_c, 0, 56, 127
2, 238568, Note_off_c, 0, 64, 0
2, 238588, Note_off_c, 0, 76, 0
2, 238604, Note_off_c, 0, 73, 0
2, 238616, Note_off_c, 0, 56, 0
2, 238720, Note_on_c, 0, 47, 127
2, 238744, Note_on_c, 0, 78, 127
2, 238752, Note_on_c, 0, 74, 127
2, 238760, Note_on_c, 0, 66, 127
2, 238812, Control_c, 0, 64, 63
2, 238856, Control_c, 0, 64, 127
2, 238984, Note_on_c, 0, 52, 127
2, 239004, Note_off_c, 0, 47, 0
2, 239032, Note_off_c, 0, 74, 0
2, 239048, Note_off_c, 0, 78, 0
2, 239052, Note_off_c, 0, 52, 0
2, 239076, Note_off_c, 0, 66, 0
2, 239260, Note_on_c, 0, 71, 127
2, 239272, Note_on_c, 0, 68, 127
2, 239280, Note_on_c, 0, 62, 127
2, 239296, Note_on_c, 0, 56, 127
2, 239352, Note_off_c, 0, 62, 0
2, 239356, Note_off_c, 0, 56, 0
2, 239364, Note_off_c, 0, 71, 0
2, 239384, Note_off_c, 0, 68, 0
2, 239552, Note_on_c, 0, 45, 127
2, 239560, Note_on_c, 0, 73, 127
2, 239580, Note_on_c, 0, 69, 127
2, 239584, Note_on_c, 0, 61, 127
2, 239684, Control_c, 0, 64, 63
2, 239696, Control_c, 0, 64, 0
2, 239784, Control_c, 0, 64, 63
2, 239796, Control_c, 0, 64, 127
2, 239884, Note_on_c, 0, 52, 127
2, 240016, Note_off_c, 0, 45, 0
2, 240084, Note_off_c, 0, 69, 0
2, 240092, Note_on_c, 0, 45, 127
2, 240096, Note_off_c, 0, 73, 0
2, 240156, Note_off_c, 0, 61, 0
2, 240216, Note_off_c, 0, 52, 0
2, 240304, Note_on_c, 0, 73, 127
2, 240304, Note_on_c, 0, 64, 127
2, 240312, Note_on_c, 0, 52, 127
2, 240320, Note_on_c, 0, 61, 127
2, 240444, Control_c, 0, 64, 63
2, 240464, Control_c, 0, 64, 0
2, 240528, Note_on_c, 0, 55, 127
2, 240604, Control_c, 0, 64, 63
2, 240612, Control_c, 0, 64, 127
2, 240692, Note_off_c, 0, 61, 0
2, 240772, Note_off_c, 0, 55, 0
2, 240808, Note_off_c, 0, 52, 0
2, 240816, Note_on_c, 0, 61, 127
2, 240856, Note_off_c, 0, 45, 0
2, 241168, Note_on_c, 0, 32, 127
2, 241172, Control_c, 0, 64, 63
2, 241188, Control_c, 0, 64, 0
2, 241236, Control_c, 0, 64, 63
2, 241248, Control_c, 0, 64, 127
2, 241360, Note_off_c, 0, 73, 0
2, 241372, Note_off_c, 0, 64, 0
2, 241388, Note_off_c, 0, 61, 0
2, 241600, Note_on_c, 0, 72, 127
2, 241608, Note_on_c, 0, 63, 127
2, 241612, Note_on_c, 0, 44, 127
2, 241616, Note_on_c, 0, 60, 127
2, 241636, Note_off_c, 0, 32, 0
2, 241672, Note_off_c, 0, 63, 0
2, 241672, Note_off_c, 0, 60, 0
2, 241676, Note_off_c, 0, 44, 0
2, 241688, Note_off_c, 0, 72, 0
2, 241956, Note_on_c, 0, 76, 127
2, 241960, Note_on_c, 0, 68, 127
2, 241968, Note_on_c, 0, 54, 127
2, 241976, Note_on_c, 0, 64, 127
2, 242244, Control_c, 0, 64, 63
2, 242248, Note_on_c, 0, 56, 127
2, 242288, Control_c, 0, 64, 127
2, 242392, Note_off_c, 0, 76, 0
2, 242428, Note_off_c, 0, 64, 0
2, 242452, Note_off_c, 0, 68, 0
2, 242464, Note_on_c, 0, 60, 127
2, 242492, Note_off_c, 0, 54, 0
2, 242496, Note_off_c, 0, 56, 0
2, 242516, Note_off_c, 0, 60, 0
2, 242676, Note_on_c, 0, 75, 127
2, 242680, Note_on_c, 0, 44, 127
2, 242688, Note_on_c, 0, 66, 127
2, 242688, Note_on_c, 0, 63, 127
2, 242736, Note_off_c, 0, 66, 0
2, 242744, Note_off_c, 0, 75, 0
2, 242748, Note_off_c, 0, 63, 0
2, 242972, Note_on_c, 0, 73, 127
2, 242976, Note_on_c, 0, 37, 127
2, 242984, Control_c, 0, 64, 63
2, 242988, Note_on_c, 0, 61, 127
2, 242992, Note_on_c, 0, 64, 127
2, 243000, Control_c, 0, 64, 0
2, 243032, Control_c, 0, 64, 63
2, 243036, Note_off_c, 0, 44, 0
2, 243056, Control_c, 0, 64, 127
2, 243136, Note_off_c, 0, 64, 0
2, 243140, Note_off_c, 0, 61, 0
2, 243156, Note_off_c, 0, 73, 0
2, 243316, Note_on_c, 0, 44, 127
2, 243316, Note_on_c, 0, 75, 127
2, 243320, Note_off_c, 0, 37, 0
2, 243320, Note_on_c, 0, 63, 127
2, 243324, Note_on_c, 0, 66, 127
2, 243364, Note_off_c, 0, 66, 0
2, 243388, Note_off_c, 0, 63, 0
2, 243420, Note_off_c, 0, 75, 0
2, 243480, Note_off_c, 0, 44, 0
2, 243564, Note_on_c, 0, 76, 127
2, 243564, Note_on_c, 0, 68, 127
2, 243576, Note_on_c, 0, 56, 127
2, 243580, Note_on_c, 0, 64, 127
2, 243632, Note_off_c, 0, 56, 0
2, 243776, Note_off_c, 0, 68, 0
2, 243796, Note_off_c, 0, 76, 0
2, 243796, Note_off_c, 0, 64, 0
2, 243892, Note_on_c, 0, 76, 127
2, 243896, Note_on_c, 0, 36, 127
2, 243904, Note_on_c, 0, 70, 127
2, 243908, Note_on_c, 0, 64, 127
2, 243988, Control_c, 0, 64, 63
2, 244000, Control_c, 0, 64, 0
2, 244060, Control_c, 0, 64, 63
2, 244080, Control_c, 0, 64, 127
2, 244240, Note_off_c, 0, 36, 0
2, 244248, Note_on_c, 0, 42, 127
2, 244392, Note_off_c, 0, 42, 0
2, 244476, Note_on_c, 0, 54, 127
2, 244536, Note_off_c, 0, 54, 0
2, 244688, Note_off_c, 0, 70, 0
2, 244768, Note_on_c, 0, 35, 127
2, 244784, Note_on_c, 0, 71, 127
2, 244864, Control_c, 0, 64, 63
2, 244872, Control_c, 0, 64, 0
2, 244928, Control_c, 0, 64, 63
2, 244944, Control_c, 0, 64, 127
2, 245020, Note_off_c, 0, 76, 0
2, 245068, Note_off_c, 0, 64, 0
2, 245208, Note_off_c, 0, 35, 0
2, 245208, Note_on_c, 0, 75, 127
2, 245208, Note_on_c, 0, 63, 127
2, 245216, Note_on_c, 0, 47, 127
2, 245280, Note_off_c, 0, 47, 0
2, 245348, Note_off_c, 0, 63, 0
2, 245368, Note_off_c, 0, 75, 0
2, 245384, Note_off_c, 0, 71, 0
2, 245488, Note_on_c, 0, 76, 127
2, 245492, Note_on_c, 0, 68, 127
2, 245504, Note_on_c, 0, 64, 127
2, 245508, Note_on_c, 0, 54, 127
2, 245544, Note_off_c, 0, 64, 0
2, 245568, Note_off_c, 0, 76, 0
2, 245568, Note_off_c, 0, 68, 0
2, 245716, Note_on_c, 0, 78, 127
2, 245716, Note_on_c, 0, 69, 127
2, 245724, Note_on_c, 0, 66, 127
2, 245736, Note_on_c, 0, 57, 127
2, 245800, Note_off_c, 0, 54, 0
2, 245800, Note_off_c, 0, 57, 0
2, 245800, Note_off_c, 0, 69, 0
2, 245808, Note_off_c, 0, 66, 0
2, 245840, Note_off_c, 0, 78, 0
2, 245932, Note_on_c, 0, 80, 127
2, 245932, Note_on_c, 0, 68, 127
2, 245940, Note_on_c, 0, 63, 127
2, 245984, Note_off_c, 0, 63, 0
2, 245988, Note_off_c, 0, 68, 0
2, 246032, Note_off_c, 0, 80, 0
2, 246164, Note_on_c, 0, 81, 127
2, 246176, Note_on_c, 0, 73, 127
2, 246180, Note_on_c, 0, 69, 127
2, 246184, Note_on_c, 0, 47, 127
2, 246252, Note_off_c, 0, 47, 0
2, 246436, Control_c, 0, 64, 63
2, 246448, Note_on_c, 0, 78, 127
2, 246448, Control_c, 0, 64, 0
2, 246468, Note_on_c, 0, 40, 127
2, 246520, Control_c, 0, 64, 63
2, 246528, Control_c, 0, 64, 127
2, 246560, Note_off_c, 0, 81, 0
2, 246616, Note_off_c, 0, 69, 0
2, 246676, Note_off_c, 0, 73, 0
2, 246712, Note_off_c, 0, 78, 0
2, 246712, Note_on_c, 0, 47, 127
2, 246724, Note_on_c, 0, 76, 127
2, 246724, Note_on_c, 0, 80, 127
2, 246728, Note_off_c, 0, 40, 0
2, 246728, Note_on_c, 0, 68, 127
2, 246768, Note_off_c, 0, 68, 0
2, 246776, Note_off_c, 0, 47, 0
2, 246800, Note_off_c, 0, 76, 0
2, 246816, Note_off_c, 0, 80, 0
2, 246924, Note_on_c, 0, 81, 127
2, 246928, Note_on_c, 0, 59, 127
2, 246932, Note_on_c, 0, 78, 127
2, 246936, Note_on_c, 0, 69, 127
2, 246984, Note_off_c, 0, 81, 0
2, 246984, Note_off_c, 0, 78, 0
2, 246984, Note_off_c, 0, 69, 0
2, 246988, Note_off_c, 0, 59, 0
2, 247144, Note_on_c, 0, 80, 127
2, 247144, Note_on_c, 0, 42, 127
2, 247144, Note_on_c, 0, 76, 127
2, 247148, Control_c, 0, 64, 63
2, 247152, Note_on_c, 0, 68, 127
2, 247164, Control_c, 0, 64, 0
2, 247176, Control_c, 0, 64, 63
2, 247200, Control_c, 0, 64, 127
2, 247240, Note_off_c, 0, 76, 0
2, 247260, Note_off_c, 0, 80, 0
2, 247288, Note_off_c, 0, 68, 0
2, 247364, Note_off_c, 0, 42, 0
2, 247372, Note_on_c, 0, 78, 127
2, 247376, Note_on_c, 0, 74, 127
2, 247384, Note_on_c, 0, 50, 127
2, 247392, Note_on_c, 0, 66, 127
2, 247448, Note_off_c, 0, 74, 0
2, 247448, Note_off_c, 0, 66, 0
2, 247476, Note_off_c, 0, 78, 0
2, 247612, Note_on_c, 0, 80, 127
2, 247616, Note_on_c, 0, 68, 127
2, 247624, Note_on_c, 0, 76, 127
2, 247632, Note_on_c, 0, 57, 127
2, 247668, Note_off_c, 0, 50, 0
2, 247688, Note_off_c, 0, 76, 0
2, 247704, Note_off_c, 0, 80, 0
2, 247720, Note_off_c, 0, 68, 0
2, 247756, Note_off_c, 0, 57, 0
2, 247868, Note_on_c, 0, 44, 127
2, 247880, Note_on_c, 0, 78, 127
2, 247884, Note_on_c, 0, 74, 127
2, 247884, Control_c, 0, 64, 63
2, 247892, Control_c, 0, 64, 0
2, 247896, Note_on_c, 0, 66, 127
2, 247932, Control_c, 0, 64, 63
2, 247952, Control_c, 0, 64, 127
2, 248012, Note_off_c, 0, 74, 0
2, 248024, Note_off_c, 0, 78, 0
2, 248056, Note_off_c, 0, 66, 0
2, 248160, Note_on_c, 0, 76, 127
2, 248168, Note_on_c, 0, 73, 127
2, 248180, Note_on_c, 0, 52, 127
2, 248192, Note_off_c, 0, 44, 0
2, 248228, Note_off_c, 0, 76, 0
2, 248232, Note_off_c, 0, 73, 0
2, 248384, Note_on_c, 0, 44, 127
2, 248400, Note_off_c, 0, 52, 0
2, 248404, Note_on_c, 0, 75, 127
2, 248424, Note_on_c, 0, 63, 127
2, 248428, Note_on_c, 0, 72, 127
2, 248480, Control_c, 0, 64, 63
2, 248520, Control_c, 0, 64, 127
2, 248536, Note_off_c, 0, 72, 0
2, 248572, Note_off_c, 0, 75, 0
2, 248592, Note_off_c, 0, 63, 0
2, 248700, Note_on_c, 0, 71, 127
2, 248704, Note_on_c, 0, 74, 127
2, 248720, Note_on_c, 0, 52, 127
2, 248720, Note_on_c, 0, 62, 124
2, 248740, Control_c, 0, 64, 63
2, 248780, Control_c, 0, 64, 127
2, 248928, Note_off_c, 0, 62, 0
2, 249080, Note_on_c, 0, 64, 127
2, 249184, Note_off_c, 0, 44, 0
2, 249284, Note_off_c, 0, 52, 0
2, 249388, Note_off_c, 0, 71, 0
2, 249440, Note_on_c, 0, 72, 127
2, 249448, Note_on_c, 0, 68, 127
2, 249468, Note_on_c, 0, 52, 127
2, 249528, Note_off_c, 0, 64, 0
2, 249544, Note_off_c, 0, 74, 0
2, 249636, Note_off_c, 0, 72, 0
2, 249656, Note_off_c, 0, 68, 0
2, 249808, Note_on_c, 0, 45, 127
2, 249864, Note_on_c, 0, 73, 127
2, 249884, Note_on_c, 0, 69, 127
2, 249896, Note_off_c, 0, 52, 0
2, 249896, Note_on_c, 0, 61, 127
2, 249924, Control_c, 0, 64, 63
2, 249932, Control_c, 0, 64, 0
2, 249980, Control_c, 0, 64, 63
2, 250000, Control_c, 0, 64, 127
2, 250168, Note_off_c, 0, 61, 0
2, 250192, Note_off_c, 0, 69, 0
2, 250216, Note_off_c, 0, 73, 0
2, 250216, Note_on_c, 0, 52, 127
2, 250280, Note_off_c, 0, 45, 0
2, 250424, Note_on_c, 0, 76, 127
2, 250432, Note_on_c, 0, 45, 127
2, 250432, Note_on_c, 0, 73, 127
2, 250440, Note_on_c, 0, 64, 127
2, 250472, Note_off_c, 0, 64, 0
2, 250480, Note_off_c, 0, 52, 0
2, 250492, Note_off_c, 0, 73, 0
2, 250504, Note_off_c, 0, 76, 0
2, 250696, Note_on_c, 0, 52, 127
2, 250700, Note_on_c, 0, 81, 127
2, 250708, Note_on_c, 0, 73, 127
2, 250720, Note_on_c, 0, 69, 127
2, 250880, Note_off_c, 0, 45, 0
2, 250904, Note_off_c, 0, 81, 0
2, 250916, Note_off_c, 0, 69, 0
2, 250952, Note_off_c, 0, 52, 0
2, 250964, Note_on_c, 0, 57, 127
2, 251028, Note_off_c, 0, 57, 0
2, 251040, Note_off_c, 0, 73, 0
2, 251180, Note_on_c, 0, 61, 127
2, 251184, Note_on_c, 0, 80, 127
2, 251192, Note_on_c, 0, 76, 127
2, 251192, Note_on_c, 0, 68, 127
2, 251236, Note_off_c, 0, 61, 0
2, 251252, Note_off_c, 0, 68, 0
2, 251264, Note_off_c, 0, 76, 0
2, 251300, Note_off_c, 0, 80, 0
2, 251392, Control_c, 0, 64, 63
2, 251408, Control_c, 0, 64, 0
2, 251416, Control_c, 0, 64, 63
2, 251416, Note_on_c, 0, 45, 127
2, 251424, Note_on_c, 0, 80, 127
2, 251432, Note_on_c, 0, 76, 127
2, 251432, Note_on_c, 0, 68, 127
2, 251440, Control_c, 0, 64, 127
2, 251496, Note_off_c, 0, 76, 0
2, 251520, Note_off_c, 0, 80, 0
2, 251552, Note_off_c, 0, 68, 0
2, 251696, Note_on_c, 0, 78, 127
2, 251704, Note_on_c, 0, 74, 127
2, 251712, Note_on_c, 0, 66, 127
2, 251712, Note_on_c, 0, 52, 127
2, 251720, Note_off_c, 0, 45, 0
2, 251752, Note_off_c, 0, 74, 0
2, 251784, Note_off_c, 0, 66, 0
2, 251792, Note_off_c, 0, 78, 0
2, 251928, Note_on_c, 0, 76, 127
2, 251928, Note_on_c, 0, 64, 127
2, 251928, Note_on_c, 0, 73, 127
2, 251932, Note_on_c, 0, 45, 127
2, 251944, Note_off_c, 0, 52, 0
2, 251992, Note_off_c, 0, 64, 0
2, 252016, Note_off_c, 0, 76, 0
2, 252028, Note_off_c, 0, 73, 0
2, 252228, Note_on_c, 0, 78, 127
2, 252232, Control_c, 0, 64, 63
2, 252236, Note_on_c, 0, 66, 127
2, 252236, Note_on_c, 0, 74, 127
2, 252240, Control_c, 0, 64, 0
2, 252248, Note_on_c, 0, 52, 127
2, 252280, Control_c, 0, 64, 63
2, 252292, Control_c, 0, 64, 127
2, 252352, Note_off_c, 0, 45, 0
2, 252400, Note_off_c, 0, 52, 0
2, 252456, Note_off_c, 0, 74, 0
2, 252468, Note_off_c, 0, 78, 0
2, 252548, Note_on_c, 0, 56, 127
2, 252564, Note_off_c, 0, 66, 0
2, 252776, Note_off_c, 0, 56, 0
2, 252812, Note_on_c, 0, 71, 127
2, 252816, Note_on_c, 0, 68, 127
2, 252828, Note_on_c, 0, 62, 127
2, 252900, Note_off_c, 0, 62, 0
2, 252908, Note_off_c, 0, 71, 0
2, 252908, Note_off_c, 0, 68, 0
2, 253164, Note_on_c, 0, 45, 127
2, 253168, Note_on_c, 0, 73, 127
2, 253184, Note_on_c, 0, 61, 127
2, 253200, Note_on_c, 0, 69, 127
2, 253236, Control_c, 0, 64, 63
2, 253244, Control_c, 0, 64, 0
2, 253312, Control_c, 0, 64, 63
2, 253324, Control_c, 0, 64, 127
2, 253512, Note_on_c, 0, 52, 127
2, 253592, Note_off_c, 0, 45, 0
2, 253612, Note_off_c, 0, 61, 0
2, 253628, Note_off_c, 0, 69, 0
2, 253648, Note_off_c, 0, 73, 0
2, 253792, Note_on_c, 0, 45, 127
2, 253824, Note_off_c, 0, 52, 0
2, 253888, Note_on_c, 0, 64, 127
2, 253956, Note_off_c, 0, 64, 0
2, 254016, Note_on_c, 0, 76, 127
2, 254016, Note_on_c, 0, 73, 127
2, 254072, Note_off_c, 0, 76, 0
2, 254080, Note_off_c, 0, 73, 0
2, 254176, Note_on_c, 0, 76, 127
2, 254296, Note_off_c, 0, 76, 0
2, 254304, Note_on_c, 0, 52, 127
2, 254368, Note_on_c, 0, 88, 127
2, 254372, Note_on_c, 0, 85, 127
2, 254728, Note_off_c, 0, 45, 0
2, 254764, Note_on_c, 0, 57, 127
2, 254784, Note_off_c, 0, 52, 0
2, 254868, Note_off_c, 0, 57, 0
2, 255028, Note_on_c, 0, 61, 127
2, 255064, Note_off_c, 0, 61, 0
2, 255320, Note_on_c, 0, 45, 127
2, 255328, Control_c, 0, 64, 63
2, 255336, Control_c, 0, 64, 0
2, 255360, Control_c, 0, 64, 63
2, 255376, Control_c, 0, 64, 127
2, 255456, Note_off_c, 0, 88, 0
2, 255492, Note_off_c, 0, 85, 0
2, 255764, Note_on_c, 0, 87, 127
2, 255768, Note_on_c, 0, 52, 127
2, 255772, Note_on_c, 0, 75, 127
2, 255792, Note_off_c, 0, 45, 0
2, 255792, Note_on_c, 0, 84, 127
2, 255860, Note_off_c, 0, 75, 0
2, 255876, Note_off_c, 0, 84, 0
2, 255896, Note_off_c, 0, 87, 0
2, 256020, Note_off_c, 0, 52, 0
2, 256132, Note_on_c, 0, 45, 127
2, 256248, Note_on_c, 0, 74, 127
2, 256248, Note_on_c, 0, 83, 127
2, 256256, Note_on_c, 0, 86, 127
2, 256312, Note_off_c, 0, 86, 0
2, 256312, Control_c, 0, 64, 63
2, 256320, Note_off_c, 0, 74, 0
2, 256324, Note_off_c, 0, 83, 0
2, 256336, Control_c, 0, 64, 127
2, 256380, Note_on_c, 0, 86, 127
2, 256384, Note_on_c, 0, 83, 127
2, 256392, Note_on_c, 0, 74, 127
2, 256392, Note_on_c, 0, 52, 127
2, 256432, Note_off_c, 0, 45, 0
2, 256464, Note_off_c, 0, 74, 0
2, 256472, Note_off_c, 0, 83, 0
2, 256484, Note_off_c, 0, 52, 0
2, 256488, Note_off_c, 0, 86, 0
2, 256728, Note_on_c, 0, 85, 127
2, 256732, Note_on_c, 0, 56, 127
2, 256744, Note_on_c, 0, 81, 127
2, 256752, Note_on_c, 0, 73, 127
2, 256820, Note_off_c, 0, 81, 0
2, 256844, Note_off_c, 0, 73, 0
2, 256856, Note_off_c, 0, 85, 0
2, 257040, Note_off_c, 0, 56, 0
2, 257044, Note_on_c, 0, 84, 127
2, 257044, Note_on_c, 0, 80, 127
2, 257052, Note_on_c, 0, 62, 127
2, 257064, Note_on_c, 0, 72, 112
2, 257112, Note_off_c, 0, 62, 0
2, 257112, Note_off_c, 0, 72, 0
2, 257136, Note_off_c, 0, 84, 0
2, 257152, Note_off_c, 0, 80, 0
2, 257408, Note_on_c, 0, 45, 127
2, 257420, Note_on_c, 0, 73, 127
2, 257424, Note_on_c, 0, 85, 127
2, 257432, Control_c, 0, 64, 63
2, 257432, Note_on_c, 0, 81, 127
2, 257472, Control_c, 0, 64, 127
2, 257576, Note_off_c, 0, 81, 0
2, 257584, Note_off_c, 0, 73, 0
2, 257604, Note_off_c, 0, 85, 0
2, 257844, Note_on_c, 0, 88, 127
2, 257848, Note_on_c, 0, 85, 127
2, 257852, Note_on_c, 0, 76, 127
2, 257864, Note_on_c, 0, 52, 127
2, 257884, Note_off_c, 0, 45, 0
2, 257928, Note_off_c, 0, 76, 0
2, 257960, Note_off_c, 0, 52, 0
2, 257996, Note_off_c, 0, 88, 0
2, 258000, Note_off_c, 0, 85, 0
2, 258312, Note_on_c, 0, 61, 127
2, 258368, Note_off_c, 0, 61, 0
2, 258572, Note_on_c, 0, 93, 127
2, 258580, Note_on_c, 0, 81, 124
2, 258584, Note_on_c, 0, 85, 127
2, 258656, Note_off_c, 0, 81, 0
2, 258664, Note_off_c, 0, 85, 0
2, 258680, Note_off_c, 0, 93, 0
2, 258936, Note_on_c, 0, 93, 127
2, 258952, Note_on_c, 0, 85, 127
2, 258952, Note_on_c, 0, 73, 127
2, 258960, Note_on_c, 0, 81, 116
2, 258980, Note_on_c, 0, 64, 120
2, 259028, Note_off_c, 0, 64, 0
2, 259040, Note_off_c, 0, 73, 0
2, 259596, Note_off_c, 0, 81, 0
2, 259616, Note_off_c, 0, 93, 0
2, 259672, Note_off_c, 0, 85, 0
2, 259672, Control_c, 0, 67, 127
2, 260148, Note_on_c, 0, 64, 127
2, 260652, Control_c, 0, 64, 63
2, 260660, Control_c, 0, 64, 127
2, 260744, Note_off_c, 0, 64, 0
2, 260800, Note_on_c, 0, 64, 127
2, 261072, Note_off_c, 0, 64, 0
2, 261076, Note_on_c, 0, 66, 127
2, 261200, Note_off_c, 0, 66, 0
2, 261216, Note_on_c, 0, 64, 127
2, 261340, Note_off_c, 0, 64, 0
2, 261344, Note_on_c, 0, 66, 127
2, 261424, Note_off_c, 0, 66, 0
2, 261448, Note_on_c, 0, 64, 127
2, 261532, Note_off_c, 0, 64, 0
2, 261532, Note_on_c, 0, 66, 127
2, 261608, Note_off_c, 0, 66, 0
2, 261628, Note_on_c, 0, 64, 127
2, 261696, Note_off_c, 0, 64, 0
2, 261700, Note_on_c, 0, 66, 127
2, 261760, Note_off_c, 0, 66, 0
2, 261768, Note_on_c, 0, 64, 127
2, 261844, Note_off_c, 0, 64, 0
2, 261844, Note_on_c, 0, 66, 127
2, 261908, Note_off_c, 0, 66, 0
2, 261912, Note_on_c, 0, 64, 127
2, 261996, Note_off_c, 0, 64, 0
2, 261996, Note_on_c, 0, 66, 127
2, 262048, Note_off_c, 0, 66, 0
2, 262060, Note_on_c, 0, 64, 127
2, 262124, Note_on_c, 0, 66, 127
2, 262132, Note_off_c, 0, 64, 0
2, 262192, Note_off_c, 0, 66, 0
2, 262192, Note_on_c, 0, 64, 127
2, 262260, Note_on_c, 0, 66, 127
2, 262272, Note_off_c, 0, 64, 0
2, 262320, Note_off_c, 0, 66, 0
2, 262324, Note_on_c, 0, 64, 127
2, 262376, Note_on_c, 0, 66, 127
2, 262392, Note_off_c, 0, 64, 0
2, 262432, Note_off_c, 0, 66, 0
2, 262440, Note_on_c, 0, 64, 127
2, 262488, Note_on_c, 0, 66, 127
2, 262508, Note_off_c, 0, 64, 0
2, 262548, Note_off_c, 0, 66, 0
2, 262556, Note_on_c, 0, 64, 127
2, 262604, Note_on_c, 0, 66, 127
2, 262624, Note_off_c, 0, 64, 0
2, 262656, Note_off_c, 0, 66, 0
2, 262660, Note_on_c, 0, 64, 127
2, 262716, Note_on_c, 0, 66, 127
2, 262732, Note_off_c, 0, 64, 0
2, 262768, Note_off_c, 0, 66, 0
2, 262768, Note_on_c, 0, 64, 127
2, 262824, Note_on_c, 0, 66, 127
2, 262840, Note_off_c, 0, 64, 0
2, 262880, Note_off_c, 0, 66, 0
2, 262888, Note_on_c, 0, 64, 127
2, 262936, Note_on_c, 0, 66, 127
2, 262952, Note_off_c, 0, 64, 0
2, 263008, Note_off_c, 0, 66, 0
2, 263016, Note_on_c, 0, 64, 127
2, 263056, Note_on_c, 0, 66, 127
2, 263080, Note_off_c, 0, 64, 0
2, 263120, Note_off_c, 0, 66, 0
2, 263124, Note_on_c, 0, 64, 127
2, 263168, Note_on_c, 0, 66, 127
2, 263188, Note_off_c, 0, 64, 0
2, 263224, Note_on_c, 0, 64, 127
2, 263228, Note_off_c, 0, 66, 0
2, 263276, Note_on_c, 0, 66, 127
2, 263292, Note_off_c, 0, 64, 0
2, 263332, Note_on_c, 0, 64, 127
2, 263336, Note_off_c, 0, 66, 0
2, 263380, Note_on_c, 0, 66, 127
2, 263400, Note_off_c, 0, 64, 0
2, 263436, Note_on_c, 0, 64, 127
2, 263440, Note_off_c, 0, 66, 0
2, 263488, Note_on_c, 0, 66, 127
2, 263508, Note_off_c, 0, 64, 0
2, 263544, Note_on_c, 0, 64, 127
2, 263556, Note_off_c, 0, 66, 0
2, 263600, Note_on_c, 0, 66, 127
2, 263616, Note_off_c, 0, 64, 0
2, 263656, Note_on_c, 0, 64, 127
2, 263660, Note_off_c, 0, 66, 0
2, 263704, Note_on_c, 0, 66, 127
2, 263724, Note_off_c, 0, 64, 0
2, 263760, Note_on_c, 0, 64, 127
2, 263768, Note_off_c, 0, 66, 0
2, 263812, Note_on_c, 0, 66, 127
2, 263832, Note_off_c, 0, 64, 0
2, 263864, Note_on_c, 0, 64, 127
2, 263876, Note_off_c, 0, 66, 0
2, 263924, Note_on_c, 0, 66, 127
2, 263936, Note_off_c, 0, 64, 0
2, 263984, Note_off_c, 0, 66, 0
2, 263988, Note_on_c, 0, 64, 127
2, 264048, Note_on_c, 0, 66, 127
2, 264104, Note_off_c, 0, 66, 0
2, 264160, Note_on_c, 0, 66, 127
2, 264172, Note_off_c, 0, 64, 0
2, 264240, Note_on_c, 0, 64, 127
2, 264264, Note_off_c, 0, 66, 0
2, 264376, Note_on_c, 0, 63, 127
2, 264384, Note_off_c, 0, 64, 0
2, 264512, Note_on_c, 0, 64, 127
2, 264556, Note_off_c, 0, 63, 0
2, 264556, Control_c, 0, 64, 63
2, 264592, Control_c, 0, 64, 0
2, 264672, Note_on_c, 0, 68, 127
2, 264700, Note_off_c, 0, 64, 0
2, 264800, Note_on_c, 0, 67, 127
2, 264832, Note_off_c, 0, 68, 0
2, 264992, Note_on_c, 0, 66, 127
2, 265048, Note_off_c, 0, 67, 0
2, 265096, Control_c, 0, 67, 0
2, 265212, Control_c, 0, 64, 63
2, 265216, Control_c, 0, 64, 127
2, 265288, Control_c, 0, 67, 127
2, 265440, Note_off_c, 0, 66, 0
2, 265896, Note_on_c, 0, 61, 127
2, 265900, Note_on_c, 0, 52, 108
2, 265904, Note_on_c, 0, 58, 127
2, 265920, Note_on_c, 0, 40, 127
2, 266024, Note_off_c, 0, 40, 0
2, 266036, Note_off_c, 0, 52, 0
2, 266100, Note_off_c, 0, 58, 0
2, 266172, Note_off_c, 0, 61, 0
2, 266272, Note_on_c, 0, 52, 127
2, 266280, Note_on_c, 0, 62, 127
2, 266280, Note_on_c, 0, 40, 127
2, 266292, Note_on_c, 0, 59, 127
2, 266476, Note_off_c, 0, 59, 0
2, 266528, Note_off_c, 0, 62, 0
2, 266544, Note_off_c, 0, 40, 0
2, 266548, Note_off_c, 0, 52, 0
2, 266808, Note_on_c, 0, 62, 127
2, 266812, Note_on_c, 0, 57, 127
2, 266816, Note_on_c, 0, 52, 127
2, 266816, Note_on_c, 0, 40, 127
2, 266900, Note_off_c, 0, 57, 0
2, 266920, Note_off_c, 0, 52, 0
2, 266936, Note_off_c, 0, 40, 0
2, 266960, Note_off_c, 0, 62, 0
2, 267132, Note_on_c, 0, 62, 127
2, 267144, Note_on_c, 0, 52, 127
2, 267144, Note_on_c, 0, 40, 127
2, 267152, Note_on_c, 0, 56, 127
2, 267280, Control_c, 0, 64, 63
2, 267308, Control_c, 0, 64, 127
2, 267416, Note_off_c, 0, 52, 0
2, 267432, Note_off_c, 0, 62, 0
2, 267476, Note_off_c, 0, 40, 0
2, 267488, Note_off_c, 0, 56, 0
2, 267760, Note_on_c, 0, 65, 127
2, 267768, Note_on_c, 0, 40, 127
2, 267776, Note_on_c, 0, 56, 127
2, 267784, Note_on_c, 0, 62, 127
2, 267800, Note_on_c, 0, 28, 127
2, 267968, Note_off_c, 0, 28, 0
2, 267980, Note_off_c, 0, 40, 0
2, 268032, Note_off_c, 0, 56, 0
2, 268044, Note_off_c, 0, 62, 0
2, 268136, Note_on_c, 0, 40, 127
2, 268160, Note_on_c, 0, 62, 127
2, 268164, Note_on_c, 0, 28, 127
2, 268172, Note_on_c, 0, 57, 127
2, 268188, Control_c, 0, 64, 63
2, 268204, Control_c, 0, 64, 0
2, 268304, Control_c, 0, 64, 63
2, 268316, Control_c, 0, 64, 127
2, 268412, Note_off_c, 0, 65, 0
2, 268436, Note_on_c, 0, 67, 127
2, 268452, Note_off_c, 0, 57, 0
2, 268468, Note_on_c, 0, 65, 127
2, 268508, Note_off_c, 0, 62, 0
2, 268516, Note_off_c, 0, 28, 0
2, 268528, Note_off_c, 0, 40, 0
2, 268548, Note_off_c, 0, 67, 0
2, 268680, Note_on_c, 0, 64, 127
2, 268696, Note_on_c, 0, 62, 127
2, 268700, Note_on_c, 0, 40, 127
2, 268704, Note_on_c, 0, 59, 127
2, 268728, Note_on_c, 0, 28, 127
2, 268732, Note_off_c, 0, 65, 0
2, 268780, Note_off_c, 0, 62, 0
2, 268800, Note_off_c, 0, 59, 0
2, 268816, Note_off_c, 0, 28, 0
2, 268828, Note_off_c, 0, 40, 0
2, 268984, Note_on_c, 0, 28, 127
2, 268996, Note_on_c, 0, 67, 127
2, 268996, Note_on_c, 0, 40, 127
2, 268996, Note_on_c, 0, 61, 127
2, 269008, Note_on_c, 0, 58, 127
2, 269032, Note_off_c, 0, 64, 0
2, 269044, Control_c, 0, 64, 63
2, 269052, Control_c, 0, 64, 0
2, 269192, Control_c, 0, 64, 63
2, 269200, Control_c, 0, 64, 127
2, 269284, Note_off_c, 0, 28, 0
2, 269320, Note_off_c, 0, 40, 0
2, 269380, Note_off_c, 0, 58, 0
2, 269384, Note_off_c, 0, 67, 0
2, 269416, Note_off_c, 0, 61, 0
2, 269664, Note_on_c, 0, 40, 127
2, 269676, Note_on_c, 0, 52, 127
2, 269688, Note_on_c, 0, 66, 127
2, 269700, Note_on_c, 0, 58, 127
2, 269704, Note_on_c, 0, 61, 127
2, 269888, Note_off_c, 0, 40, 0
2, 269920, Note_off_c, 0, 52, 0
2, 269968, Note_off_c, 0, 58, 0
2, 270016, Note_off_c, 0, 61, 0
2, 270060, Note_on_c, 0, 52, 127
2, 270064, Note_on_c, 0, 62, 127
2, 270068, Note_on_c, 0, 59, 127
2, 270072, Note_on_c, 0, 40, 127
2, 270124, Control_c, 0, 64, 63
2, 270140, Control_c, 0, 64, 0
2, 270304, Control_c, 0, 64, 63
2, 270312, Control_c, 0, 64, 127
2, 270428, Note_off_c, 0, 59, 0
2, 270440, Note_off_c, 0, 62, 0
2, 270456, Note_off_c, 0, 40, 0
2, 270464, Note_off_c, 0, 52, 0
2, 270652, Note_on_c, 0, 62, 127
2, 270656, Note_on_c, 0, 52, 127
2, 270664, Note_on_c, 0, 57, 127
2, 270672, Note_on_c, 0, 40, 127
2, 270776, Note_off_c, 0, 52, 0
2, 270784, Note_off_c, 0, 40, 0
2, 270812, Note_off_c, 0, 62, 0
2, 270828, Note_off_c, 0, 57, 0
2, 270972, Control_c, 0, 64, 63
2, 270972, Note_on_c, 0, 40, 127
2, 270980, Note_on_c, 0, 52, 124
2, 270980, Note_on_c, 0, 62, 127
2, 270984, Control_c, 0, 64, 0
2, 270984, Note_on_c, 0, 57, 127
2, 271040, Control_c, 0, 64, 63
2, 271052, Control_c, 0, 64, 127
2, 271120, Note_off_c, 0, 57, 0
2, 271184, Note_off_c, 0, 52, 0
2, 271264, Note_off_c, 0, 40, 0
2, 271308, Note_off_c, 0, 62, 0
2, 271360, Note_off_c, 0, 66, 0
2, 271372, Note_on_c, 0, 71, 127
2, 271464, Note_off_c, 0, 71, 0
2, 271740, Note_on_c, 0, 40, 127
2, 271748, Note_on_c, 0, 65, 127
2, 271760, Note_on_c, 0, 62, 127
2, 271764, Note_on_c, 0, 28, 127
2, 271776, Note_on_c, 0, 56, 127
2, 271940, Note_off_c, 0, 40, 0
2, 271944, Note_off_c, 0, 28, 0
2, 271984, Note_off_c, 0, 56, 0
2, 271984, Note_off_c, 0, 62, 0
2, 272064, Note_on_c, 0, 40, 127
2, 272072, Note_on_c, 0, 62, 127
2, 272076, Note_on_c, 0, 57, 127
2, 272080, Note_on_c, 0, 28, 127
2, 272128, Control_c, 0, 64, 63
2, 272148, Control_c, 0, 64, 0
2, 272212, Control_c, 0, 64, 63
2, 272228, Control_c, 0, 64, 127
2, 272324, Note_off_c, 0, 65, 0
2, 272368, Note_on_c, 0, 67, 127
2, 272376, Note_off_c, 0, 57, 0
2, 272380, Note_on_c, 0, 65, 127
2, 272416, Note_off_c, 0, 62, 0
2, 272468, Note_off_c, 0, 67, 0
2, 272552, Note_off_c, 0, 40, 0
2, 272560, Note_off_c, 0, 28, 0
2, 272664, Note_on_c, 0, 64, 127
2, 272672, Note_on_c, 0, 62, 127
2, 272680, Note_on_c, 0, 40, 127
2, 272688, Note_off_c, 0, 65, 0
2, 272688, Note_on_c, 0, 28, 127
2, 272688, Note_on_c, 0, 59, 127
2, 272744, Control_c, 0, 64, 63
2, 272788, Control_c, 0, 64, 127
2, 272840, Note_off_c, 0, 62, 0
2, 272880, Note_off_c, 0, 59, 0
2, 272952, Note_off_c, 0, 40, 0
2, 272960, Note_off_c, 0, 28, 0
2, 273064, Note_on_c, 0, 61, 127
2, 273068, Note_off_c, 0, 64, 0
2, 273068, Note_on_c, 0, 67, 127
2, 273068, Note_on_c, 0, 40, 127
2, 273084, Note_on_c, 0, 28, 127
2, 273088, Note_on_c, 0, 58, 127
2, 273192, Control_c, 0, 64, 63
2, 273204, Control_c, 0, 64, 0
2, 273292, Control_c, 0, 64, 63
2, 273304, Control_c, 0, 64, 127
2, 273392, Note_off_c, 0, 28, 0
2, 273452, Note_off_c, 0, 40, 0
2, 273492, Note_off_c, 0, 58, 0
2, 273520, Note_off_c, 0, 61, 0
2, 273528, Note_off_c, 0, 67, 0
2, 273788, Note_on_c, 0, 40, 127
2, 273792, Note_on_c, 0, 52, 127
2, 273792, Note_on_c, 0, 66, 127
2, 273808, Note_on_c, 0, 58, 127
2, 273816, Note_on_c, 0, 61, 127
2, 273972, Note_off_c, 0, 61, 0
2, 273980, Note_off_c, 0, 40, 0
2, 274004, Note_off_c, 0, 58, 0
2, 274008, Note_off_c, 0, 52, 0
2, 274152, Note_on_c, 0, 52, 127
2, 274152, Note_on_c, 0, 62, 127
2, 274160, Note_on_c, 0, 59, 127
2, 274176, Note_on_c, 0, 40, 124
2, 274224, Control_c, 0, 64, 63
2, 274240, Control_c, 0, 64, 0
2, 274336, Control_c, 0, 64, 63
2, 274344, Control_c, 0, 64, 127
2, 274536, Note_off_c, 0, 59, 0
2, 274556, Note_off_c, 0, 62, 0
2, 274576, Note_off_c, 0, 40, 0
2, 274592, Note_off_c, 0, 52, 0
2, 274700, Note_on_c, 0, 62, 127
2, 274712, Note_on_c, 0, 57, 127
2, 274712, Note_on_c, 0, 52, 127
2, 274740, Note_on_c, 0, 40, 127
2, 274820, Note_off_c, 0, 57, 0
2, 274832, Note_off_c, 0, 52, 0
2, 274836, Note_off_c, 0, 40, 0
2, 274856, Note_off_c, 0, 62, 0
2, 275012, Note_on_c, 0, 62, 127
2, 275016, Note_on_c, 0, 52, 127
2, 275020, Note_on_c, 0, 56, 127
2, 275032, Note_on_c, 0, 40, 127
2, 275084, Control_c, 0, 64, 63
2, 275104, Control_c, 0, 64, 0
2, 275136, Control_c, 0, 64, 63
2, 275160, Control_c, 0, 64, 127
2, 275272, Note_off_c, 0, 66, 0
2, 275304, Note_off_c, 0, 40, 0
2, 275328, Note_off_c, 0, 52, 0
2, 275328, Note_off_c, 0, 56, 0
2, 275336, Note_off_c, 0, 62, 0
2, 275568, Note_on_c, 0, 65, 127
2, 275584, Note_on_c, 0, 62, 127
2, 275588, Note_on_c, 0, 40, 127
2, 275592, Note_on_c, 0, 52, 112
2, 275596, Note_on_c, 0, 56, 64
2, 275680, Note_off_c, 0, 62, 0
2, 275688, Note_off_c, 0, 40, 0
2, 275696, Note_off_c, 0, 52, 0
2, 275696, Note_off_c, 0, 56, 0
2, 275716, Note_off_c, 0, 65, 0
2, 275884, Note_on_c, 0, 65, 127
2, 275888, Note_on_c, 0, 56, 124
2, 275888, Note_on_c, 0, 52, 124
2, 275888, Note_on_c, 0, 40, 127
2, 275896, Note_on_c, 0, 62, 127
2, 275944, Control_c, 0, 64, 63
2, 275972, Control_c, 0, 64, 0
2, 276004, Control_c, 0, 64, 63
2, 276028, Control_c, 0, 64, 127
2, 276200, Note_off_c, 0, 56, 0
2, 276200, Note_off_c, 0, 62, 0
2, 276204, Note_off_c, 0, 40, 0
2, 276216, Note_off_c, 0, 52, 0
2, 276240, Note_off_c, 0, 65, 0
2, 276492, Note_on_c, 0, 65, 127
2, 276512, Note_on_c, 0, 52, 100
2, 276516, Note_on_c, 0, 40, 127
2, 276516, Note_on_c, 0, 62, 127
2, 276520, Note_on_c, 0, 56, 96
2, 276604, Note_off_c, 0, 62, 0
2, 276624, Note_off_c, 0, 52, 0
2, 276624, Note_off_c, 0, 56, 0
2, 276632, Note_off_c, 0, 40, 0
2, 276668, Note_off_c, 0, 65, 0
2, 276880, Note_on_c, 0, 65, 127
2, 276904, Note_on_c, 0, 56, 116
2, 276904, Note_on_c, 0, 40, 92
2, 276908, Note_on_c, 0, 52, 68
2, 276912, Note_on_c, 0, 62, 127
2, 277000, Control_c, 0, 64, 63
2, 277016, Control_c, 0, 64, 0
2, 277088, Control_c, 0, 64, 63
2, 277104, Control_c, 0, 64, 127
2, 277280, Note_off_c, 0, 62, 0
2, 277292, Note_off_c, 0, 56, 0
2, 277308, Note_off_c, 0, 40, 0
2, 277324, Note_off_c, 0, 52, 0
2, 277572, Note_on_c, 0, 60, 127
2, 277576, Note_on_c, 0, 57, 127
2, 277584, Note_on_c, 0, 52, 84
2, 277592, Note_on_c, 0, 40, 108
2, 277704, Note_off_c, 0, 52, 0
2, 277704, Note_off_c, 0, 40, 0
2, 277712, Note_off_c, 0, 60, 0
2, 277720, Note_off_c, 0, 57, 0
2, 277900, Note_on_c, 0, 60, 127
2, 277900, Note_on_c, 0, 57, 127
2, 277900, Note_on_c, 0, 52, 124
2, 277904, Note_on_c, 0, 40, 127
2, 277964, Control_c, 0, 64, 63
2, 278060, Control_c, 0, 64, 127
2, 278236, Note_off_c, 0, 57, 0
2, 278240, Note_off_c, 0, 60, 0
2, 278256, Note_off_c, 0, 52, 0
2, 278268, Note_off_c, 0, 40, 0
2, 278456, Note_on_c, 0, 60, 127
2, 278460, Note_on_c, 0, 50, 127
2, 278464, Note_on_c, 0, 57, 112
2, 278488, Note_on_c, 0, 38, 127
2, 278492, Control_c, 0, 64, 63
2, 278560, Control_c, 0, 64, 127
2, 278616, Note_off_c, 0, 50, 0
2, 278624, Note_off_c, 0, 38, 0
2, 278644, Note_off_c, 0, 60, 0
2, 278648, Note_off_c, 0, 57, 0
2, 278804, Note_on_c, 0, 60, 127
2, 278808, Note_on_c, 0, 57, 127
2, 278820, Note_on_c, 0, 50, 108
2, 278832, Note_on_c, 0, 38, 124
2, 278860, Control_c, 0, 64, 63
2, 278952, Control_c, 0, 64, 127
2, 279128, Note_off_c, 0, 57, 0
2, 279164, Note_off_c, 0, 38, 0
2, 279188, Note_off_c, 0, 50, 0
2, 279196, Note_off_c, 0, 60, 0
2, 279204, Note_off_c, 0, 65, 0
2, 279536, Note_on_c, 0, 65, 127
2, 279552, Note_on_c, 0, 38, 88
2, 279552, Note_on_c, 0, 50, 68
2, 279608, Note_on_c, 0, 56, 20
2, 279632, Note_on_c, 0, 60, 36
2, 279680, Note_off_c, 0, 50, 0
2, 279688, Note_off_c, 0, 38, 0
2, 279752, Note_off_c, 0, 60, 0
2, 279760, Note_off_c, 0, 56, 0
2, 279872, Note_on_c, 0, 56, 127
2, 279880, Note_on_c, 0, 60, 127
2, 279888, Note_on_c, 0, 38, 127
2, 279892, Note_on_c, 0, 50, 104
2, 279968, Control_c, 0, 64, 63
2, 280056, Control_c, 0, 64, 127
2, 280212, Note_off_c, 0, 65, 0
2, 280216, Note_off_c, 0, 60, 0
2, 280240, Note_off_c, 0, 38, 0
2, 280252, Note_off_c, 0, 56, 0
2, 280288, Note_off_c, 0, 50, 0
2, 280460, Note_on_c, 0, 65, 127
2, 280480, Note_on_c, 0, 50, 127
2, 280480, Note_on_c, 0, 38, 127
2, 280496, Note_on_c, 0, 56, 127
2, 280504, Note_on_c, 0, 59, 127
2, 280540, Control_c, 0, 64, 63
2, 280568, Control_c, 0, 64, 0
2, 280612, Control_c, 0, 64, 63
2, 280632, Control_c, 0, 64, 127
2, 280684, Note_off_c, 0, 38, 0
2, 280704, Note_off_c, 0, 50, 0
2, 280720, Note_off_c, 0, 59, 0
2, 280724, Note_off_c, 0, 56, 0
2, 280836, Note_on_c, 0, 59, 127
2, 280844, Note_on_c, 0, 56, 127
2, 280852, Note_on_c, 0, 50, 127
2, 280864, Note_on_c, 0, 38, 127
2, 280912, Control_c, 0, 64, 63
2, 280928, Control_c, 0, 64, 0
2, 281024, Control_c, 0, 64, 63
2, 281036, Control_c, 0, 64, 127
2, 281208, Note_off_c, 0, 50, 0
2, 281288, Note_off_c, 0, 56, 0
2, 281304, Note_off_c, 0, 38, 0
2, 281344, Note_off_c, 0, 59, 0
2, 281348, Note_off_c, 0, 65, 0
2, 281696, Note_on_c, 0, 65, 127
2, 281696, Note_on_c, 0, 49, 127
2, 281712, Note_on_c, 0, 59, 127
2, 281716, Note_on_c, 0, 37, 120
2, 281728, Note_on_c, 0, 56, 44
2, 281752, Control_c, 0, 64, 63
2, 281816, Control_c, 0, 64, 127
2, 281896, Note_off_c, 0, 49, 0
2, 281916, Note_off_c, 0, 65, 0
2, 282004, Note_off_c, 0, 56, 0
2, 282044, Note_off_c, 0, 37, 0
2, 282056, Note_on_c, 0, 57, 127
2, 282056, Note_on_c, 0, 42, 127
2, 282056, Note_on_c, 0, 49, 116
2, 282060, Note_on_c, 0, 66, 127
2, 282104, Note_off_c, 0, 59, 0
2, 282128, Control_c, 0, 64, 63
2, 282140, Control_c, 0, 64, 0
2, 282240, Control_c, 0, 64, 63
2, 282252, Control_c, 0, 64, 127
2, 282384, Note_off_c, 0, 66, 0
2, 282416, Note_off_c, 0, 57, 0
2, 282424, Note_off_c, 0, 42, 0
2, 282480, Note_off_c, 0, 49, 0
2, 282732, Note_on_c, 0, 54, 127
2, 282740, Note_on_c, 0, 44, 127
2, 282744, Note_on_c, 0, 60, 127
2, 282772, Control_c, 0, 64, 63
2, 282784, Control_c, 0, 64, 0
2, 282852, Control_c, 0, 64, 63
2, 282868, Control_c, 0, 64, 127
2, 283032, Note_off_c, 0, 60, 0
2, 283056, Note_off_c, 0, 54, 0
2, 283156, Note_off_c, 0, 44, 0
2, 283180, Note_on_c, 0, 37, 116
2, 283192, Note_on_c, 0, 61, 127
2, 283192, Note_on_c, 0, 49, 68
2, 283208, Note_on_c, 0, 53, 127
2, 283304, Control_c, 0, 64, 63
2, 283316, Control_c, 0, 64, 0
2, 283456, Control_c, 0, 64, 63
2, 283464, Control_c, 0, 64, 127
2, 283612, Note_off_c, 0, 53, 0
2, 283616, Note_off_c, 0, 37, 0
2, 283680, Note_off_c, 0, 49, 0
2, 283684, Note_off_c, 0, 61, 0
2, 284144, Note_on_c, 0, 68, 127
2, 284164, Note_on_c, 0, 61, 127
2, 284176, Note_on_c, 0, 56, 104
2, 284180, Control_c, 0, 64, 63
2, 284192, Note_on_c, 0, 53, 88
2, 284192, Control_c, 0, 64, 0
2, 284256, Control_c, 0, 64, 63
2, 284276, Control_c, 0, 64, 127
2, 284424, Note_off_c, 0, 56, 0
2, 284432, Note_off_c, 0, 68, 0
2, 284440, Note_off_c, 0, 61, 0
2, 284516, Note_on_c, 0, 67, 127
2, 284532, Note_on_c, 0, 52, 127
2, 284536, Note_on_c, 0, 58, 127
2, 284536, Note_on_c, 0, 61, 127
2, 284584, Note_off_c, 0, 53, 0
2, 284636, Control_c, 0, 64, 63
2, 284652, Control_c, 0, 64, 0
2, 284688, Control_c, 0, 64, 63
2, 284708, Control_c, 0, 64, 127
2, 284800, Note_off_c, 0, 67, 0
2, 284824, Note_off_c, 0, 61, 0
2, 284852, Note_off_c, 0, 58, 0
2, 284860, Note_off_c, 0, 52, 0
2, 285112, Note_on_c, 0, 51, 127
2, 285112, Note_on_c, 0, 66, 127
2, 285120, Control_c, 0, 64, 63
2, 285124, Note_on_c, 0, 60, 127
2, 285136, Note_on_c, 0, 56, 127
2, 285172, Control_c, 0, 64, 127
2, 285268, Note_off_c, 0, 60, 0
2, 285292, Note_off_c, 0, 66, 0
2, 285308, Note_off_c, 0, 56, 0
2, 285312, Note_off_c, 0, 51, 0
2, 285440, Note_on_c, 0, 65, 127
2, 285452, Note_on_c, 0, 49, 127
2, 285464, Note_on_c, 0, 61, 127
2, 285488, Note_on_c, 0, 56, 72
2, 285492, Control_c, 0, 64, 63
2, 285508, Control_c, 0, 64, 0
2, 285604, Control_c, 0, 64, 63
2, 285620, Control_c, 0, 64, 127
2, 285720, Note_off_c, 0, 56, 0
2, 285724, Note_off_c, 0, 65, 0
2, 285752, Note_off_c, 0, 61, 0
2, 285764, Note_off_c, 0, 49, 0
2, 286144, Control_c, 0, 64, 63
2, 286148, Note_on_c, 0, 68, 127
2, 286148, Note_on_c, 0, 53, 127
2, 286156, Control_c, 0, 64, 0
2, 286160, Note_on_c, 0, 56, 124
2, 286160, Note_on_c, 0, 61, 127
2, 286204, Control_c, 0, 64, 63
2, 286224, Control_c, 0, 64, 127
2, 286348, Note_off_c, 0, 56, 0
2, 286352, Note_off_c, 0, 68, 0
2, 286352, Note_off_c, 0, 61, 0
2, 286448, Note_off_c, 0, 53, 0
2, 286544, Note_on_c, 0, 61, 127
2, 286552, Note_on_c, 0, 67, 127
2, 286556, Note_on_c, 0, 57, 127
2, 286568, Note_on_c, 0, 52, 96
2, 286636, Control_c, 0, 64, 63
2, 286656, Control_c, 0, 64, 0
2, 286724, Control_c, 0, 64, 63
2, 286744, Control_c, 0, 64, 127
2, 286904, Note_off_c, 0, 61, 0
2, 286936, Note_off_c, 0, 67, 0
2, 286936, Note_off_c, 0, 57, 0
2, 287024, Note_off_c, 0, 52, 0
2, 287308, Note_on_c, 0, 50, 127
2, 287312, Note_on_c, 0, 66, 127
2, 287328, Note_on_c, 0, 62, 127
2, 287332, Note_on_c, 0, 57, 72
2, 287344, Control_c, 0, 64, 63
2, 287368, Control_c, 0, 64, 127
2, 287524, Note_off_c, 0, 50, 0
2, 287552, Note_off_c, 0, 62, 0
2, 287584, Note_off_c, 0, 66, 0
2, 287584, Note_off_c, 0, 57, 0
2, 287736, Note_on_c, 0, 65, 127
2, 287752, Note_on_c, 0, 48, 96
2, 287752, Note_on_c, 0, 63, 127
2, 287768, Note_on_c, 0, 57, 92
2, 287852, Control_c, 0, 64, 63
2, 287880, Control_c, 0, 64, 0
2, 287960, Control_c, 0, 64, 63
2, 287984, Control_c, 0, 64, 127
2, 288168, Note_off_c, 0, 57, 0
2, 288204, Note_off_c, 0, 65, 0
2, 288216, Note_off_c, 0, 48, 0
2, 288244, Note_off_c, 0, 63, 0
2, 288640, Note_on_c, 0, 56, 108
2, 288644, Note_on_c, 0, 47, 127
2, 288644, Note_on_c, 0, 62, 127
2, 288648, Note_on_c, 0, 65, 127
2, 288832, Note_off_c, 0, 47, 0
2, 288840, Note_off_c, 0, 56, 0
2, 288840, Note_off_c, 0, 62, 0
2, 288900, Note_off_c, 0, 65, 0
2, 289128, Note_on_c, 0, 66, 127
2, 289144, Note_on_c, 0, 61, 127
2, 289160, Note_on_c, 0, 54, 127
2, 289168, Note_on_c, 0, 45, 124
2, 289256, Control_c, 0, 64, 63
2, 289280, Control_c, 0, 64, 0
2, 289400, Control_c, 0, 64, 63
2, 289416, Control_c, 0, 64, 127
2, 289568, Note_off_c, 0, 66, 0
2, 289632, Note_off_c, 0, 61, 0
2, 289656, Note_off_c, 0, 54, 0
2, 289708, Note_off_c, 0, 45, 0
2, 290296, Note_on_c, 0, 44, 127
2, 290312, Note_on_c, 0, 60, 127
2, 290320, Note_on_c, 0, 54, 60
2, 290416, Control_c, 0, 64, 63
2, 290436, Control_c, 0, 64, 0
2, 290504, Control_c, 0, 64, 63
2, 290524, Control_c, 0, 64, 127
2, 290688, Note_off_c, 0, 60, 0
2, 290744, Note_off_c, 0, 44, 0
2, 290748, Note_off_c, 0, 54, 0
2, 291000, Note_on_c, 0, 37, 127
2, 291056, Note_on_c, 0, 61, 127
2, 291084, Note_on_c, 0, 53, 127
2, 291116, Control_c, 0, 64, 63
2, 291132, Control_c, 0, 64, 0
2, 291244, Control_c, 0, 64, 63
2, 291256, Control_c, 0, 64, 127
2, 291584, Note_on_c, 0, 44, 127
2, 291596, Note_off_c, 0, 37, 0
2, 291652, Control_c, 0, 67, 0
2, 291732, Note_off_c, 0, 53, 0
2, 291856, Note_off_c, 0, 61, 0
2, 291864, Note_on_c, 0, 49, 127
2, 291980, Note_off_c, 0, 44, 0
2, 292144, Note_on_c, 0, 53, 108
2, 292152, Note_off_c, 0, 49, 0
2, 292288, Note_on_c, 0, 80, 127
2, 292464, Note_off_c, 0, 53, 0
2, 292472, Note_on_c, 0, 56, 127
2, 292688, Note_on_c, 0, 61, 127
2, 292700, Note_off_c, 0, 56, 0
2, 292892, Note_on_c, 0, 56, 127
2, 292920, Note_off_c, 0, 61, 0
2, 292968, Note_off_c, 0, 80, 0
2, 293100, Note_on_c, 0, 68, 127
2, 293200, Note_on_c, 0, 79, 127
2, 293440, Note_on_c, 0, 80, 127
2, 293472, Note_off_c, 0, 79, 0
2, 293584, Note_off_c, 0, 80, 0
2, 293640, Note_on_c, 0, 89, 127
2, 293836, Note_on_c, 0, 87, 127
2, 293840, Note_off_c, 0, 89, 0
2, 294004, Note_on_c, 0, 85, 127
2, 294012, Note_off_c, 0, 87, 0
2, 294128, Note_off_c, 0, 85, 0
2, 294136, Note_on_c, 0, 77, 127
2, 294284, Note_on_c, 0, 78, 127
2, 294312, Note_off_c, 0, 77, 0
2, 294328, Note_off_c, 0, 68, 0
2, 294424, Note_on_c, 0, 80, 127
2, 294440, Note_off_c, 0, 56, 0
2, 294460, Note_off_c, 0, 78, 0
2, 294552, Note_on_c, 0, 84, 127
2, 294564, Note_off_c, 0, 80, 0
2, 294676, Note_on_c, 0, 82, 127
2, 294692, Note_off_c, 0, 84, 0
2, 294864, Note_on_c, 0, 37, 127
2, 294928, Note_on_c, 0, 80, 127
2, 294972, Note_off_c, 0, 82, 0
2, 295060, Control_c, 0, 64, 63
2, 295072, Control_c, 0, 64, 0
2, 295196, Control_c, 0, 64, 63
2, 295208, Control_c, 0, 64, 127
2, 295284, Note_on_c, 0, 44, 127
2, 295360, Note_on_c, 0, 78, 127
2, 295440, Note_off_c, 0, 37, 0
2, 295448, Note_off_c, 0, 80, 0
2, 295596, Note_off_c, 0, 44, 0
2, 295624, Note_on_c, 0, 54, 127
2, 295752, Note_on_c, 0, 77, 127
2, 295768, Note_off_c, 0, 78, 0
2, 295768, Note_off_c, 0, 54, 0
2, 295820, Note_off_c, 0, 77, 0
2, 295880, Note_on_c, 0, 77, 127
2, 295880, Note_on_c, 0, 56, 127
2, 296100, Note_off_c, 0, 56, 0
2, 296108, Note_on_c, 0, 60, 127
2, 296176, Note_on_c, 0, 75, 127
2, 296212, Note_off_c, 0, 77, 0
2, 296276, Note_off_c, 0, 60, 0
2, 296328, Note_on_c, 0, 56, 127
2, 296432, Note_on_c, 0, 77, 127
2, 296484, Note_off_c, 0, 75, 0
2, 296548, Note_on_c, 0, 60, 127
2, 296584, Note_off_c, 0, 56, 0
2, 296648, Note_off_c, 0, 60, 0
2, 296784, Note_on_c, 0, 66, 127
2, 296788, Note_on_c, 0, 75, 127
2, 296800, Note_off_c, 0, 77, 0
2, 296900, Note_off_c, 0, 66, 0
2, 297084, Note_on_c, 0, 73, 127
2, 297140, Note_off_c, 0, 75, 0
2, 297356, Note_off_c, 0, 73, 0
2, 297428, Note_on_c, 0, 72, 127
2, 297492, Note_off_c, 0, 72, 0
2, 297536, Note_on_c, 0, 72, 127
2, 297788, Note_on_c, 0, 70, 127
2, 297820, Note_off_c, 0, 72, 0
2, 298032, Note_on_c, 0, 72, 127
2, 298044, Note_off_c, 0, 70, 0
2, 298232, Note_on_c, 0, 37, 127
2, 298336, Note_on_c, 0, 70, 127
2, 298380, Note_off_c, 0, 72, 0
2, 298400, Control_c, 0, 64, 63
2, 298416, Control_c, 0, 64, 0
2, 298536, Control_c, 0, 64, 63
2, 298544, Control_c, 0, 64, 127
2, 298696, Note_on_c, 0, 44, 127
2, 298744, Note_off_c, 0, 37, 0
2, 298956, Note_off_c, 0, 44, 0
2, 298992, Note_on_c, 0, 53, 127
2, 299020, Note_on_c, 0, 68, 127
2, 299096, Note_off_c, 0, 70, 0
2, 299280, Note_off_c, 0, 53, 0
2, 299288, Note_on_c, 0, 56, 127
2, 299316, Note_off_c, 0, 68, 0
2, 299316, Note_on_c, 0, 67, 127
2, 299496, Note_on_c, 0, 68, 127
2, 299536, Note_off_c, 0, 67, 0
2, 299552, Note_on_c, 0, 61, 127
2, 299680, Note_on_c, 0, 70, 127
2, 299700, Note_off_c, 0, 68, 0
2, 299808, Note_off_c, 0, 61, 0
2, 299808, Note_on_c, 0, 65, 127
2, 299812, Note_off_c, 0, 70, 0
2, 299820, Note_on_c, 0, 72, 127
2, 299908, Note_off_c, 0, 56, 0
2, 299968, Note_on_c, 0, 73, 127
2, 299976, Note_off_c, 0, 72, 0
2, 299992, Note_on_c, 0, 61, 127
2, 300016, Note_off_c, 0, 65, 0
2, 300092, Note_on_c, 0, 75, 127
2, 300116, Note_on_c, 0, 56, 127
2, 300120, Note_off_c, 0, 73, 0
2, 300140, Note_off_c, 0, 61, 0
2, 300208, Note_off_c, 0, 75, 0
2, 300212, Note_off_c, 0, 56, 0
2, 300212, Note_on_c, 0, 77, 127
2, 300240, Note_on_c, 0, 68, 127
2, 300292, Note_off_c, 0, 68, 0
2, 300336, Note_on_c, 0, 78, 127
2, 300360, Note_off_c, 0, 77, 0
2, 300456, Note_on_c, 0, 80, 127
2, 300488, Note_off_c, 0, 78, 0
2, 300560, Note_on_c, 0, 82, 127
2, 300596, Note_off_c, 0, 80, 0
2, 300640, Note_off_c, 0, 82, 0
2, 300672, Note_on_c, 0, 84, 127
2, 300776, Note_on_c, 0, 85, 127
2, 300784, Note_off_c, 0, 84, 0
2, 300884, Note_on_c, 0, 87, 127
2, 300904, Note_off_c, 0, 85, 0
2, 300968, Note_off_c, 0, 87, 0
2, 300996, Note_on_c, 0, 89, 127
2, 301136, Note_on_c, 0, 90, 127
2, 301144, Note_off_c, 0, 89, 0
2, 301272, Note_on_c, 0, 92, 127
2, 301296, Note_off_c, 0, 90, 0
2, 301340, Note_off_c, 0, 92, 0
2, 301440, Note_on_c, 0, 101, 127
2, 301600, Note_off_c, 0, 101, 0
2, 301600, Note_on_c, 0, 99, 127
2, 301784, Note_on_c, 0, 97, 127
2, 301788, Note_on_c, 0, 37, 127
2, 301836, Note_off_c, 0, 99, 0
2, 301920, Control_c, 0, 64, 63
2, 301976, Control_c, 0, 64, 127
2, 301980, Note_on_c, 0, 94, 127
2, 302020, Note_off_c, 0, 97, 0
2, 302132, Note_off_c, 0, 94, 0
2, 302140, Note_on_c, 0, 90, 127
2, 302160, Note_on_c, 0, 44, 127
2, 302172, Note_off_c, 0, 37, 0
2, 302252, Note_off_c, 0, 90, 0
2, 302272, Note_on_c, 0, 92, 127
2, 302276, Note_off_c, 0, 44, 0
2, 302388, Note_off_c, 0, 92, 0
2, 302408, Note_on_c, 0, 54, 127
2, 302420, Note_on_c, 0, 96, 127
2, 302488, Note_off_c, 0, 54, 0
2, 302520, Note_off_c, 0, 96, 0
2, 302540, Note_on_c, 0, 94, 127
2, 302624, Note_off_c, 0, 94, 0
2, 302672, Note_on_c, 0, 56, 127
2, 302680, Note_on_c, 0, 90, 127
2, 302748, Note_off_c, 0, 90, 0
2, 302788, Note_on_c, 0, 87, 127
2, 302868, Note_off_c, 0, 87, 0
2, 302916, Note_on_c, 0, 82, 127
2, 302920, Note_off_c, 0, 56, 0
2, 302920, Note_on_c, 0, 60, 127
2, 302976, Note_off_c, 0, 82, 0
2, 303016, Note_on_c, 0, 84, 127
2, 303036, Note_off_c, 0, 60, 0
2, 303120, Note_on_c, 0, 89, 127
2, 303128, Note_off_c, 0, 84, 0
2, 303148, Note_on_c, 0, 56, 127
2, 303216, Note_off_c, 0, 89, 0
2, 303248, Note_on_c, 0, 87, 127
2, 303328, Note_off_c, 0, 87, 0
2, 303404, Note_on_c, 0, 66, 127
2, 303420, Note_on_c, 0, 85, 127
2, 303576, Note_on_c, 0, 82, 127
2, 303580, Note_off_c, 0, 85, 0
2, 303680, Note_off_c, 0, 82, 0
2, 303704, Note_on_c, 0, 78, 127
2, 303784, Note_off_c, 0, 78, 0
2, 303808, Note_on_c, 0, 80, 127
2, 303896, Note_off_c, 0, 80, 0
2, 303924, Note_on_c, 0, 84, 127
2, 303936, Note_off_c, 0, 66, 0
2, 304032, Note_off_c, 0, 56, 0
2, 304032, Note_off_c, 0, 84, 0
2, 304040, Note_on_c, 0, 82, 127
2, 304184, Note_off_c, 0, 82, 0
2, 304188, Note_on_c, 0, 78, 127
2, 304272, Note_off_c, 0, 78, 0
2, 304312, Note_on_c, 0, 75, 127
2, 304456, Note_off_c, 0, 75, 0
2, 304460, Note_on_c, 0, 70, 127
2, 304540, Note_off_c, 0, 70, 0
2, 304588, Note_on_c, 0, 72, 127
2, 304764, Note_on_c, 0, 77, 127
2, 304772, Note_off_c, 0, 72, 0
2, 304912, Note_off_c, 0, 77, 0
2, 304912, Note_on_c, 0, 75, 127
2, 305088, Note_off_c, 0, 75, 0
2, 305092, Note_on_c, 0, 72, 127
2, 305092, Note_on_c, 0, 37, 127
2, 305152, Control_c, 0, 64, 63
2, 305168, Control_c, 0, 64, 0
2, 305236, Control_c, 0, 64, 63
2, 305252, Control_c, 0, 64, 127
2, 305308, Note_on_c, 0, 73, 127
2, 305336, Note_off_c, 0, 72, 0
2, 305472, Note_off_c, 0, 73, 0
2, 305476, Note_on_c, 0, 75, 127
2, 305488, Note_on_c, 0, 44, 127
2, 305504, Note_off_c, 0, 37, 0
2, 305624, Note_off_c, 0, 75, 0
2, 305644, Note_on_c, 0, 73, 127
2, 305716, Note_off_c, 0, 44, 0
2, 305728, Note_off_c, 0, 73, 0
2, 305740, Note_on_c, 0, 75, 127
2, 305780, Note_on_c, 0, 53, 127
2, 305804, Note_off_c, 0, 75, 0
2, 305828, Note_on_c, 0, 73, 127
2, 305848, Note_off_c, 0, 53, 0
2, 305868, Note_on_c, 0, 75, 127
2, 305880, Note_off_c, 0, 73, 0
2, 305920, Note_off_c, 0, 75, 0
2, 305936, Note_on_c, 0, 73, 127
2, 305968, Note_on_c, 0, 75, 127
2, 305992, Note_off_c, 0, 73, 0
2, 306024, Note_off_c, 0, 75, 0
2, 306032, Note_on_c, 0, 73, 127
2, 306072, Note_on_c, 0, 75, 127
2, 306080, Note_on_c, 0, 56, 127
2, 306092, Note_off_c, 0, 73, 0
2, 306124, Note_off_c, 0, 75, 0
2, 306132, Note_on_c, 0, 73, 127
2, 306164, Note_on_c, 0, 75, 127
2, 306184, Note_off_c, 0, 73, 0
2, 306228, Note_on_c, 0, 73, 127
2, 306236, Note_off_c, 0, 75, 0
2, 306280, Note_on_c, 0, 75, 127
2, 306292, Note_off_c, 0, 73, 0
2, 306352, Note_off_c, 0, 75, 0
2, 306352, Note_on_c, 0, 73, 127
2, 306360, Note_on_c, 0, 65, 127
2, 306424, Note_on_c, 0, 72, 127
2, 306448, Note_off_c, 0, 73, 0
2, 306540, Note_on_c, 0, 73, 127
2, 306584, Note_off_c, 0, 72, 0
2, 306616, Note_off_c, 0, 65, 0
2, 306672, Note_on_c, 0, 77, 127
2, 306692, Note_off_c, 0, 73, 0
2, 306716, Note_off_c, 0, 56, 0
2, 306808, Note_on_c, 0, 75, 127
2, 306828, Note_off_c, 0, 77, 0
2, 307000, Control_c, 0, 64, 63
2, 307008, Control_c, 0, 64, 0
2, 307012, Note_on_c, 0, 72, 127
2, 307012, Note_on_c, 0, 39, 127
2, 307016, Note_off_c, 0, 75, 0
2, 307072, Control_c, 0, 64, 63
2, 307088, Control_c, 0, 64, 127
2, 307200, Note_on_c, 0, 73, 127
2, 307208, Note_off_c, 0, 72, 0
2, 307260, Note_off_c, 0, 73, 0
2, 307372, Note_on_c, 0, 42, 127
2, 307388, Note_on_c, 0, 65, 127
2, 307396, Note_off_c, 0, 39, 0
2, 307496, Note_off_c, 0, 65, 0
2, 307520, Note_on_c, 0, 66, 127
2, 307588, Note_off_c, 0, 66, 0
2, 307656, Note_off_c, 0, 42, 0
2, 307656, Note_on_c, 0, 54, 127
2, 307668, Note_on_c, 0, 60, 127
2, 307728, Note_off_c, 0, 54, 0
2, 307776, Note_on_c, 0, 61, 127
2, 307792, Note_off_c, 0, 60, 0
2, 307844, Note_off_c, 0, 61, 0
2, 307908, Note_on_c, 0, 51, 127
2, 307924, Note_on_c, 0, 65, 127
2, 308024, Note_off_c, 0, 65, 0
2, 308024, Note_on_c, 0, 66, 127
2, 308040, Note_off_c, 0, 51, 0
2, 308084, Note_off_c, 0, 66, 0
2, 308160, Note_on_c, 0, 54, 127
2, 308176, Note_on_c, 0, 72, 127
2, 308180, Note_on_c, 0, 66, 127
2, 308244, Note_off_c, 0, 66, 0
2, 308296, Note_on_c, 0, 73, 127
2, 308300, Note_off_c, 0, 54, 0
2, 308328, Note_off_c, 0, 72, 0
2, 308432, Note_off_c, 0, 73, 0
2, 308432, Note_on_c, 0, 77, 127
2, 308548, Note_on_c, 0, 75, 127
2, 308588, Note_off_c, 0, 77, 0
2, 308640, Control_c, 0, 64, 63
2, 308652, Control_c, 0, 64, 0
2, 308696, Note_off_c, 0, 75, 0
2, 308700, Control_c, 0, 64, 63
2, 308712, Note_on_c, 0, 40, 127
2, 308720, Note_on_c, 0, 72, 127
2, 308720, Control_c, 0, 64, 127
2, 308788, Note_off_c, 0, 40, 0
2, 308824, Note_off_c, 0, 72, 0
2, 308840, Note_on_c, 0, 73, 127
2, 308896, Note_off_c, 0, 73, 0
2, 308996, Note_on_c, 0, 49, 127
2, 309000, Note_on_c, 0, 66, 127
2, 309120, Note_off_c, 0, 66, 0
2, 309120, Note_on_c, 0, 67, 127
2, 309180, Note_off_c, 0, 67, 0
2, 309264, Note_on_c, 0, 55, 127
2, 309276, Note_off_c, 0, 49, 0
2, 309280, Note_on_c, 0, 60, 127
2, 309344, Note_off_c, 0, 55, 0
2, 309384, Note_on_c, 0, 61, 127
2, 309404, Note_off_c, 0, 60, 0
2, 309460, Note_off_c, 0, 61, 0
2, 309552, Note_on_c, 0, 66, 127
2, 309584, Note_on_c, 0, 52, 127
2, 309664, Note_off_c, 0, 52, 0
2, 309684, Note_on_c, 0, 67, 127
2, 309688, Note_off_c, 0, 66, 0
2, 309760, Note_off_c, 0, 67, 0
2, 309876, Note_on_c, 0, 67, 127
2, 309876, Note_on_c, 0, 58, 127
2, 309892, Note_on_c, 0, 72, 127
2, 309920, Note_off_c, 0, 67, 0
2, 309936, Note_off_c, 0, 58, 0
2, 310048, Note_on_c, 0, 73, 127
2, 310064, Note_off_c, 0, 72, 0
2, 310216, Note_on_c, 0, 77, 127
2, 310224, Note_off_c, 0, 73, 0
2, 310380, Note_on_c, 0, 75, 127
2, 310428, Note_off_c, 0, 77, 0
2, 310512, Note_off_c, 0, 75, 0
2, 310580, Note_on_c, 0, 72, 127
2, 310592, Note_on_c, 0, 41, 127
2, 310632, Control_c, 0, 64, 63
2, 310640, Control_c, 0, 64, 0
2, 310704, Control_c, 0, 64, 63
2, 310716, Control_c, 0, 64, 127
2, 310756, Note_on_c, 0, 73, 127
2, 310764, Note_off_c, 0, 72, 0
2, 310864, Note_off_c, 0, 41, 0
2, 310872, Note_off_c, 0, 73, 0
2, 310876, Note_on_c, 0, 77, 127
2, 310980, Note_on_c, 0, 75, 127
2, 311032, Note_off_c, 0, 77, 0
2, 311104, Note_off_c, 0, 75, 0
2, 311104, Note_on_c, 0, 72, 127
2, 311104, Note_on_c, 0, 49, 127
2, 311252, Note_on_c, 0, 73, 127
2, 311280, Note_off_c, 0, 72, 0
2, 311368, Note_on_c, 0, 75, 127
2, 311388, Note_off_c, 0, 73, 0
2, 311492, Note_off_c, 0, 75, 0
2, 311492, Note_on_c, 0, 73, 127
2, 311576, Note_off_c, 0, 73, 0
2, 311576, Note_on_c, 0, 75, 127
2, 311624, Note_on_c, 0, 59, 127
2, 311632, Note_off_c, 0, 75, 0
2, 311672, Note_on_c, 0, 73, 127
2, 311728, Note_on_c, 0, 75, 127
2, 311732, Note_off_c, 0, 49, 0
2, 311732, Note_off_c, 0, 73, 0
2, 311760, Note_off_c, 0, 75, 0
2, 311776, Note_on_c, 0, 73, 127
2, 311800, Note_off_c, 0, 59, 0
2, 311820, Note_on_c, 0, 75, 127
2, 311836, Note_off_c, 0, 73, 0
2, 311856, Note_off_c, 0, 75, 0
2, 311876, Note_on_c, 0, 73, 127
2, 311908, Note_on_c, 0, 75, 127
2, 311928, Note_off_c, 0, 73, 0
2, 311956, Note_off_c, 0, 75, 0
2, 311972, Note_on_c, 0, 73, 127
2, 312016, Note_on_c, 0, 75, 127
2, 312036, Note_off_c, 0, 73, 0
2, 312048, Note_on_c, 0, 56, 127
2, 312084, Note_on_c, 0, 73, 127
2, 312088, Note_on_c, 0, 71, 127
2, 312108, Note_off_c, 0, 75, 0
2, 312136, Note_off_c, 0, 56, 0
2, 312200, Note_on_c, 0, 75, 127
2, 312204, Note_off_c, 0, 71, 0
2, 312224, Note_off_c, 0, 73, 0
2, 312316, Note_off_c, 0, 75, 0
2, 312336, Note_on_c, 0, 73, 127
2, 312372, Note_on_c, 0, 75, 127
2, 312384, Note_off_c, 0, 73, 0
2, 312456, Note_on_c, 0, 61, 127
2, 312464, Note_on_c, 0, 73, 127
2, 312468, Note_off_c, 0, 75, 0
2, 312468, Note_on_c, 0, 66, 127
2, 312520, Note_off_c, 0, 61, 0
2, 312536, Note_off_c, 0, 66, 0
2, 312560, Note_on_c, 0, 75, 127
2, 312576, Note_off_c, 0, 73, 0
2, 312660, Note_off_c, 0, 75, 0
2, 312688, Note_on_c, 0, 73, 127
2, 312736, Note_on_c, 0, 75, 127
2, 312752, Note_off_c, 0, 73, 0
2, 312900, Note_off_c, 0, 75, 0
2, 312908, Note_on_c, 0, 73, 127
2, 312916, Note_on_c, 0, 68, 127
2, 312920, Note_on_c, 0, 49, 127
2, 312988, Note_off_c, 0, 49, 0
2, 313056, Note_off_c, 0, 68, 0
2, 313116, Note_on_c, 0, 75, 127
2, 313156, Note_off_c, 0, 73, 0
2, 313284, Note_on_c, 0, 73, 127
2, 313340, Note_off_c, 0, 75, 0
2, 313456, Note_on_c, 0, 75, 127
2, 313492, Note_off_c, 0, 73, 0
2, 313548, Note_off_c, 0, 75, 0
2, 313708, Note_on_c, 0, 42, 127
2, 313708, Note_on_c, 0, 30, 127
2, 313712, Note_on_c, 0, 71, 127
2, 313716, Note_on_c, 0, 75, 127
2, 313848, Control_c, 0, 64, 127
2, 313928, Note_on_c, 0, 73, 127
2, 313928, Note_on_c, 0, 70, 127
2, 313960, Note_off_c, 0, 75, 0
2, 313980, Note_off_c, 0, 71, 0
2, 313988, Note_off_c, 0, 30, 0
2, 314016, Note_off_c, 0, 42, 0
2, 314068, Note_on_c, 0, 75, 127
2, 314080, Note_on_c, 0, 71, 127
2, 314088, Note_off_c, 0, 73, 0
2, 314092, Note_off_c, 0, 70, 0
2, 314180, Note_on_c, 0, 73, 127
2, 314180, Note_on_c, 0, 70, 127
2, 314196, Note_off_c, 0, 75, 0
2, 314204, Note_off_c, 0, 71, 0
2, 314224, Note_on_c, 0, 49, 127
2, 314232, Note_on_c, 0, 37, 127
2, 314256, Note_off_c, 0, 37, 0
2, 314272, Note_off_c, 0, 49, 0
2, 314276, Note_on_c, 0, 75, 127
2, 314280, Note_on_c, 0, 71, 127
2, 314284, Note_off_c, 0, 73, 0
2, 314292, Note_off_c, 0, 70, 0
2, 314380, Note_on_c, 0, 73, 127
2, 314384, Note_on_c, 0, 70, 127
2, 314408, Note_off_c, 0, 71, 0
2, 314416, Note_off_c, 0, 75, 0
2, 314472, Note_on_c, 0, 71, 127
2, 314480, Note_on_c, 0, 75, 127
2, 314488, Note_off_c, 0, 73, 0
2, 314500, Note_off_c, 0, 70, 0
2, 314560, Note_on_c, 0, 56, 127
2, 314564, Note_on_c, 0, 73, 127
2, 314564, Note_on_c, 0, 44, 127
2, 314572, Note_on_c, 0, 70, 127
2, 314584, Note_off_c, 0, 71, 0
2, 314600, Note_off_c, 0, 75, 0
2, 314604, Note_off_c, 0, 56, 0
2, 314616, Note_off_c, 0, 44, 0
2, 314640, Note_on_c, 0, 71, 127
2, 314652, Note_on_c, 0, 75, 127
2, 314656, Note_off_c, 0, 73, 0
2, 314664, Note_off_c, 0, 70, 0
2, 314724, Note_on_c, 0, 73, 127
2, 314728, Note_on_c, 0, 70, 127
2, 314740, Note_off_c, 0, 71, 0
2, 314760, Note_off_c, 0, 75, 0
2, 314792, Note_on_c, 0, 71, 127
2, 314808, Note_off_c, 0, 73, 0
2, 314816, Note_off_c, 0, 70, 0
2, 314832, Note_on_c, 0, 75, 127
2, 314840, Note_on_c, 0, 54, 127
2, 314840, Note_on_c, 0, 42, 127
2, 314876, Note_on_c, 0, 70, 127
2, 314876, Note_on_c, 0, 73, 127
2, 314880, Note_off_c, 0, 54, 0
2, 314880, Note_off_c, 0, 71, 0
2, 314884, Note_off_c, 0, 42, 0
2, 314928, Note_off_c, 0, 75, 0
2, 314944, Note_on_c, 0, 71, 127
2, 314956, Note_off_c, 0, 73, 0
2, 314960, Note_on_c, 0, 44, 127
2, 314960, Note_on_c, 0, 56, 127
2, 314964, Note_off_c, 0, 70, 0
2, 314984, Note_on_c, 0, 75, 127
2, 314996, Note_off_c, 0, 56, 0
2, 315000, Note_off_c, 0, 44, 0
2, 315032, Note_on_c, 0, 73, 127
2, 315032, Note_on_c, 0, 70, 127
2, 315036, Note_off_c, 0, 71, 0
2, 315080, Note_on_c, 0, 46, 127
2, 315084, Note_off_c, 0, 75, 0
2, 315084, Note_on_c, 0, 58, 127
2, 315088, Note_on_c, 0, 71, 127
2, 315096, Note_off_c, 0, 73, 0
2, 315104, Note_off_c, 0, 70, 0
2, 315116, Note_off_c, 0, 58, 0
2, 315124, Note_off_c, 0, 46, 0
2, 315152, Note_on_c, 0, 75, 127
2, 315168, Note_off_c, 0, 71, 0
2, 315168, Note_on_c, 0, 73, 127
2, 315176, Note_on_c, 0, 70, 127
2, 315216, Note_off_c, 0, 75, 0
2, 315220, Note_on_c, 0, 71, 127
2, 315228, Note_off_c, 0, 73, 0
2, 315244, Note_off_c, 0, 70, 0
2, 315284, Note_on_c, 0, 75, 127
2, 315292, Note_on_c, 0, 70, 127
2, 315296, Note_on_c, 0, 73, 127
2, 315304, Note_off_c, 0, 71, 0
2, 315344, Note_off_c, 0, 75, 0
2, 315360, Note_on_c, 0, 71, 127
2, 315364, Note_off_c, 0, 73, 0
2, 315368, Note_off_c, 0, 70, 0
2, 315376, Note_on_c, 0, 49, 127
2, 315384, Note_on_c, 0, 37, 127
2, 315408, Note_on_c, 0, 75, 127
2, 315416, Note_off_c, 0, 49, 0
2, 315416, Note_off_c, 0, 37, 0
2, 315428, Note_off_c, 0, 71, 0
2, 315432, Note_on_c, 0, 70, 127
2, 315432, Note_on_c, 0, 73, 127
2, 315476, Note_off_c, 0, 75, 0
2, 315476, Note_off_c, 0, 73, 0
2, 315480, Note_on_c, 0, 71, 127
2, 315500, Note_off_c, 0, 70, 0
2, 315536, Note_on_c, 0, 75, 127
2, 315544, Note_on_c, 0, 73, 127
2, 315552, Note_off_c, 0, 71, 0
2, 315576, Note_on_c, 0, 70, 127
2, 315612, Note_off_c, 0, 73, 0
2, 315616, Note_on_c, 0, 71, 127
2, 315636, Note_off_c, 0, 70, 0
2, 315660, Note_off_c, 0, 75, 0
2, 315688, Note_on_c, 0, 73, 127
2, 315692, Note_on_c, 0, 42, 127
2, 315692, Note_on_c, 0, 70, 127
2, 315696, Note_on_c, 0, 30, 127
2, 315712, Note_off_c, 0, 71, 0
2, 315740, Control_c, 0, 64, 63
2, 315748, Control_c, 0, 64, 0
2, 315820, Control_c, 0, 64, 63
2, 315824, Control_c, 0, 64, 127
2, 315896, Note_off_c, 0, 30, 0
2, 315928, Note_off_c, 0, 42, 0
2, 315992, Note_off_c, 0, 73, 0
2, 316020, Note_off_c, 0, 70, 0
2, 316080, Note_on_c, 0, 72, 127
2, 316088, Note_on_c, 0, 69, 127
2, 316088, Note_on_c, 0, 49, 127
2, 316092, Note_on_c, 0, 37, 127
2, 316136, Note_off_c, 0, 49, 0
2, 316136, Note_off_c, 0, 37, 0
2, 316160, Note_off_c, 0, 72, 0
2, 316176, Note_off_c, 0, 69, 0
2, 316360, Note_on_c, 0, 73, 127
2, 316364, Note_on_c, 0, 70, 127
2, 316372, Note_on_c, 0, 56, 127
2, 316376, Note_on_c, 0, 44, 127
2, 316408, Note_off_c, 0, 70, 0
2, 316408, Note_off_c, 0, 56, 0
2, 316416, Note_off_c, 0, 44, 0
2, 316428, Note_off_c, 0, 73, 0
2, 316544, Note_on_c, 0, 70, 127
2, 316548, Note_on_c, 0, 73, 127
2, 316588, Note_off_c, 0, 70, 0
2, 316608, Note_on_c, 0, 77, 127
2, 316632, Note_off_c, 0, 73, 0
2, 316684, Note_off_c, 0, 77, 0
2, 316696, Note_on_c, 0, 75, 127
2, 316704, Note_on_c, 0, 42, 127
2, 316704, Note_on_c, 0, 71, 127
2, 316704, Note_on_c, 0, 54, 127
2, 316744, Note_off_c, 0, 71, 0
2, 316744, Note_off_c, 0, 54, 0
2, 316752, Note_off_c, 0, 42, 0
2, 316776, Note_off_c, 0, 75, 0
2, 316840, Note_on_c, 0, 44, 127
2, 316844, Note_on_c, 0, 56, 127
2, 316884, Note_off_c, 0, 56, 0
2, 316888, Note_off_c, 0, 44, 0
2, 316972, Note_on_c, 0, 73, 127
2, 316980, Note_on_c, 0, 70, 127
2, 316984, Note_on_c, 0, 46, 127
2, 316984, Note_on_c, 0, 58, 127
2, 317008, Note_off_c, 0, 70, 0
2, 317020, Note_off_c, 0, 58, 0
2, 317024, Note_off_c, 0, 46, 0
2, 317036, Note_off_c, 0, 73, 0
2, 317248, Note_on_c, 0, 70, 127
2, 317248, Note_on_c, 0, 66, 127
2, 317252, Note_on_c, 0, 61, 127
2, 317252, Note_on_c, 0, 49, 127
2, 317272, Note_off_c, 0, 61, 0
2, 317304, Note_off_c, 0, 49, 0
2, 317560, Control_c, 0, 64, 63
2, 317564, Note_on_c, 0, 30, 127
2, 317568, Note_on_c, 0, 42, 127
2, 317572, Control_c, 0, 64, 0
2, 317584, Note_on_c, 0, 75, 127
2, 317588, Note_on_c, 0, 78, 127
2, 317620, Note_off_c, 0, 66, 0
2, 317632, Note_off_c, 0, 70, 0
2, 317660, Control_c, 0, 64, 63
2, 317664, Control_c, 0, 64, 127
2, 317724, Note_off_c, 0, 30, 0
2, 317756, Note_off_c, 0, 42, 0
2, 317916, Note_off_c, 0, 78, 0
2, 317928, Note_on_c, 0, 70, 127
2, 317940, Note_on_c, 0, 49, 127
2, 317940, Note_on_c, 0, 66, 127
2, 317944, Note_off_c, 0, 75, 0
2, 317944, Note_on_c, 0, 37, 127
2, 317968, Note_off_c, 0, 37, 0
2, 317988, Note_off_c, 0, 49, 0
2, 317996, Note_off_c, 0, 70, 0
2, 318000, Note_off_c, 0, 66, 0
2, 318188, Note_on_c, 0, 71, 127
2, 318188, Note_on_c, 0, 75, 127
2, 318188, Note_on_c, 0, 41, 127
2, 318192, Note_on_c, 0, 53, 127
2, 318224, Note_off_c, 0, 53, 0
2, 318228, Note_off_c, 0, 41, 0
2, 318240, Note_off_c, 0, 71, 0
2, 318248, Note_off_c, 0, 75, 0
2, 318456, Control_c, 0, 64, 63
2, 318460, Note_on_c, 0, 73, 127
2, 318464, Note_on_c, 0, 70, 127
2, 318464, Control_c, 0, 64, 0
2, 318472, Note_on_c, 0, 42, 127
2, 318472, Note_on_c, 0, 54, 127
2, 318492, Control_c, 0, 64, 63
2, 318504, Control_c, 0, 64, 127
2, 318512, Note_off_c, 0, 54, 0
2, 318520, Note_off_c, 0, 42, 0
2, 318568, Note_off_c, 0, 70, 0
2, 318592, Note_on_c, 0, 44, 127
2, 318592, Note_on_c, 0, 56, 127
2, 318600, Note_off_c, 0, 73, 0
2, 318628, Note_off_c, 0, 56, 0
2, 318640, Note_off_c, 0, 44, 0
2, 318728, Note_on_c, 0, 58, 127
2, 318728, Note_on_c, 0, 46, 127
2, 318732, Note_on_c, 0, 66, 127
2, 318732, Note_on_c, 0, 61, 127
2, 318748, Note_off_c, 0, 58, 0
2, 318768, Note_off_c, 0, 46, 0
2, 318776, Note_off_c, 0, 61, 0
2, 318796, Note_off_c, 0, 66, 0
2, 318976, Note_on_c, 0, 71, 127
2, 318980, Control_c, 0, 64, 63
2, 318980, Note_on_c, 0, 49, 127
2, 318980, Note_on_c, 0, 37, 127
2, 318984, Note_on_c, 0, 68, 127
2, 318992, Control_c, 0, 64, 0
2, 319020, Control_c, 0, 64, 63
2, 319032, Control_c, 0, 64, 127
2, 319056, Note_off_c, 0, 49, 0
2, 319096, Note_off_c, 0, 37, 0
2, 319128, Note_off_c, 0, 71, 0
2, 319240, Note_off_c, 0, 68, 0
2, 319284, Note_on_c, 0, 30, 127
2, 319288, Note_on_c, 0, 42, 127
2, 319304, Note_on_c, 0, 70, 127
2, 319312, Note_on_c, 0, 66, 127
2, 319348, Control_c, 0, 64, 63
2, 319356, Control_c, 0, 64, 0
2, 319400, Control_c, 0, 64, 63
2, 319408, Control_c, 0, 64, 127
2, 319468, Note_off_c, 0, 30, 0
2, 319492, Note_off_c, 0, 42, 0
2, 319656, Note_on_c, 0, 37, 127
2, 319656, Note_on_c, 0, 49, 127
2, 319700, Note_off_c, 0, 37, 0
2, 319704, Note_off_c, 0, 49, 0
2, 319928, Note_on_c, 0, 44, 127
2, 319928, Note_on_c, 0, 56, 127
2, 319972, Note_off_c, 0, 56, 0
2, 319980, Note_off_c, 0, 44, 0
2, 320200, Control_c, 0, 64, 63
2, 320208, Note_on_c, 0, 64, 127
2, 320212, Note_on_c, 0, 54, 127
2, 320212, Note_on_c, 0, 42, 127
2, 320236, Control_c, 0, 64, 127
2, 320248, Note_off_c, 0, 66, 0
2, 320260, Note_off_c, 0, 54, 0
2, 320268, Note_off_c, 0, 42, 0
2, 320340, Note_on_c, 0, 44, 127
2, 320348, Note_on_c, 0, 56, 127
2, 320396, Note_off_c, 0, 56, 0
2, 320400, Note_off_c, 0, 44, 0
2, 320488, Note_on_c, 0, 58, 127
2, 320488, Note_on_c, 0, 46, 127
2, 320528, Note_off_c, 0, 58, 0
2, 320536, Note_off_c, 0, 46, 0
2, 320732, Note_off_c, 0, 64, 0
2, 320816, Note_on_c, 0, 61, 127
2, 320820, Note_on_c, 0, 49, 127
2, 320852, Note_off_c, 0, 70, 0
2, 320856, Note_off_c, 0, 61, 0
2, 320892, Note_off_c, 0, 49, 0
2, 321048, Note_on_c, 0, 63, 127
2, 321100, Control_c, 0, 64, 63
2, 321108, Control_c, 0, 64, 0
2, 321132, Note_on_c, 0, 71, 127
2, 321144, Control_c, 0, 64, 63
2, 321156, Control_c, 0, 64, 127
2, 321216, Note_off_c, 0, 63, 0
2, 321252, Note_off_c, 0, 71, 0
2, 321264, Note_on_c, 0, 30, 127
2, 321268, Note_on_c, 0, 42, 127
2, 321272, Note_on_c, 0, 78, 127
2, 321304, Note_off_c, 0, 30, 0
2, 321308, Note_off_c, 0, 42, 0
2, 321320, Note_off_c, 0, 78, 0
2, 321632, Note_on_c, 0, 42, 127
2, 321636, Note_on_c, 0, 54, 127
2, 321672, Note_off_c, 0, 42, 0
2, 321672, Note_off_c, 0, 54, 0
2, 321920, Note_on_c, 0, 61, 127
2, 321920, Note_on_c, 0, 49, 127
2, 321956, Note_off_c, 0, 61, 0
2, 321964, Note_off_c, 0, 49, 0
2, 322168, Control_c, 0, 64, 63
2, 322176, Control_c, 0, 64, 0
2, 322192, Note_on_c, 0, 47, 127
2, 322192, Note_on_c, 0, 59, 127
2, 322208, Control_c, 0, 64, 63
2, 322212, Note_on_c, 0, 75, 127
2, 322212, Note_on_c, 0, 78, 127
2, 322216, Note_on_c, 0, 66, 127
2, 322220, Control_c, 0, 64, 127
2, 322244, Note_off_c, 0, 47, 0
2, 322248, Note_off_c, 0, 59, 0
2, 322344, Note_on_c, 0, 49, 127
2, 322352, Note_on_c, 0, 61, 127
2, 322392, Note_off_c, 0, 61, 0
2, 322400, Note_off_c, 0, 49, 0
2, 322476, Note_on_c, 0, 63, 127
2, 322480, Note_on_c, 0, 51, 127
2, 322504, Note_off_c, 0, 63, 0
2, 322520, Note_off_c, 0, 51, 0
2, 322720, Note_on_c, 0, 42, 127
2, 322720, Note_on_c, 0, 54, 127
2, 322760, Note_off_c, 0, 54, 0
2, 322776, Note_off_c, 0, 42, 0
2, 322952, Control_c, 0, 64, 63
2, 322960, Control_c, 0, 64, 0
2, 322992, Note_on_c, 0, 30, 127
2, 322992, Note_on_c, 0, 42, 127
2, 322996, Control_c, 0, 64, 63
2, 323008, Control_c, 0, 64, 127
2, 323052, Note_off_c, 0, 30, 0
2, 323072, Note_off_c, 0, 42, 0
2, 323120, Note_off_c, 0, 78, 0
2, 323152, Note_off_c, 0, 66, 0
2, 323152, Note_off_c, 0, 75, 0
2, 323324, Note_on_c, 0, 77, 127
2, 323324, Note_on_c, 0, 74, 127
2, 323328, Note_on_c, 0, 42, 127
2, 323328, Note_on_c, 0, 65, 127
2, 323328, Note_on_c, 0, 54, 127
2, 323352, Note_on_c, 0, 67, 127
2, 323360, Note_off_c, 0, 65, 0
2, 323368, Note_off_c, 0, 74, 0
2, 323368, Note_off_c, 0, 54, 0
2, 323372, Note_off_c, 0, 42, 0
2, 323376, Note_off_c, 0, 77, 0
2, 323376, Note_off_c, 0, 67, 0
2, 323584, Note_on_c, 0, 78, 127
2, 323588, Note_on_c, 0, 66, 127
2, 323592, Note_on_c, 0, 61, 127
2, 323592, Note_on_c, 0, 49, 127
2, 323596, Note_on_c, 0, 75, 127
2, 323616, Note_off_c, 0, 66, 0
2, 323624, Note_off_c, 0, 75, 0
2, 323636, Note_off_c, 0, 61, 0
2, 323648, Note_off_c, 0, 78, 0
2, 323652, Note_off_c, 0, 49, 0
2, 323760, Note_on_c, 0, 82, 127
2, 323808, Note_on_c, 0, 78, 127
2, 323824, Note_off_c, 0, 82, 0
2, 323840, Note_off_c, 0, 78, 0
2, 323888, Note_on_c, 0, 47, 127
2, 323888, Note_on_c, 0, 80, 127
2, 323888, Note_on_c, 0, 77, 127
2, 323888, Note_on_c, 0, 68, 127
2, 323892, Note_on_c, 0, 59, 127
2, 323928, Note_off_c, 0, 47, 0
2, 323928, Note_off_c, 0, 68, 0
2, 323932, Note_off_c, 0, 59, 0
2, 323936, Note_off_c, 0, 77, 0
2, 323952, Note_off_c, 0, 80, 0
2, 324012, Note_on_c, 0, 49, 127
2, 324020, Note_on_c, 0, 61, 127
2, 324052, Note_off_c, 0, 61, 0
2, 324064, Note_off_c, 0, 49, 0
2, 324132, Note_on_c, 0, 78, 127
2, 324136, Note_on_c, 0, 66, 127
2, 324140, Note_on_c, 0, 75, 127
2, 324140, Note_on_c, 0, 51, 127
2, 324144, Note_on_c, 0, 63, 127
2, 324176, Note_off_c, 0, 66, 0
2, 324180, Note_off_c, 0, 63, 0
2, 324184, Note_off_c, 0, 51, 0
2, 324192, Note_off_c, 0, 75, 0
2, 324196, Note_off_c, 0, 78, 0
2, 324384, Note_on_c, 0, 75, 127
2, 324384, Note_on_c, 0, 71, 127
2, 324388, Note_on_c, 0, 66, 127
2, 324392, Note_on_c, 0, 54, 127
2, 324424, Note_off_c, 0, 66, 0
2, 324428, Note_off_c, 0, 71, 0
2, 324440, Note_off_c, 0, 54, 0
2, 324456, Note_off_c, 0, 75, 0
2, 324704, Control_c, 0, 64, 63
2, 324704, Note_on_c, 0, 30, 127
2, 324704, Note_on_c, 0, 42, 127
2, 324704, Note_on_c, 0, 87, 127
2, 324708, Note_on_c, 0, 83, 127
2, 324708, Note_on_c, 0, 75, 127
2, 324720, Control_c, 0, 64, 0
2, 324760, Control_c, 0, 64, 63
2, 324768, Control_c, 0, 64, 127
2, 324848, Note_off_c, 0, 30, 0
2, 324876, Note_off_c, 0, 42, 0
2, 324884, Note_off_c, 0, 87, 0
2, 324892, Note_off_c, 0, 83, 0
2, 324912, Note_off_c, 0, 75, 0
2, 325052, Note_on_c, 0, 85, 127
2, 325060, Note_on_c, 0, 82, 127
2, 325064, Note_on_c, 0, 73, 127
2, 325068, Note_on_c, 0, 42, 127
2, 325072, Note_on_c, 0, 54, 127
2, 325104, Note_off_c, 0, 54, 0
2, 325108, Note_off_c, 0, 85, 0
2, 325108, Note_off_c, 0, 82, 0
2, 325108, Note_off_c, 0, 73, 0
2, 325120, Note_off_c, 0, 42, 0
2, 325356, Note_on_c, 0, 61, 127
2, 325360, Note_on_c, 0, 75, 127
2, 325360, Note_on_c, 0, 78, 127
2, 325360, Note_on_c, 0, 49, 127
2, 325396, Note_off_c, 0, 61, 0
2, 325404, Note_off_c, 0, 49, 0
2, 325408, Note_off_c, 0, 75, 0
2, 325420, Note_off_c, 0, 78, 0
2, 325600, Note_on_c, 0, 83, 127
2, 325604, Note_on_c, 0, 80, 127
2, 325608, Note_on_c, 0, 47, 127
2, 325608, Control_c, 0, 64, 63
2, 325608, Note_on_c, 0, 71, 127
2, 325612, Note_on_c, 0, 59, 127
2, 325624, Control_c, 0, 64, 127
2, 325644, Note_off_c, 0, 47, 0
2, 325656, Note_off_c, 0, 59, 0
2, 325656, Note_off_c, 0, 71, 0
2, 325700, Note_off_c, 0, 83, 0
2, 325716, Note_on_c, 0, 49, 127
2, 325728, Note_on_c, 0, 61, 127
2, 325756, Note_off_c, 0, 61, 0
2, 325768, Note_off_c, 0, 49, 0
2, 325788, Note_off_c, 0, 80, 0
2, 325840, Note_on_c, 0, 75, 127
2, 325840, Note_on_c, 0, 63, 127
2, 325840, Note_on_c, 0, 71, 127
2, 325840, Note_on_c, 0, 51, 127
2, 325868, Note_off_c, 0, 71, 0
2, 325872, Note_off_c, 0, 63, 0
2, 325876, Note_off_c, 0, 75, 0
2, 325888, Note_off_c, 0, 51, 0
2, 326088, Note_on_c, 0, 54, 127
2, 326088, Note_on_c, 0, 42, 127
2, 326088, Note_on_c, 0, 82, 127
2, 326092, Note_on_c, 0, 70, 127
2, 326096, Note_on_c, 0, 78, 127
2, 326120, Note_off_c, 0, 54, 0
2, 326128, Note_off_c, 0, 70, 0
2, 326136, Note_off_c, 0, 42, 0
2, 326152, Note_off_c, 0, 82, 0
2, 326152, Note_off_c, 0, 78, 0
2, 326348, Control_c, 0, 64, 63
2, 326356, Note_on_c, 0, 30, 127
2, 326356, Control_c, 0, 64, 0
2, 326356, Note_on_c, 0, 42, 127
2, 326356, Note_on_c, 0, 80, 127
2, 326360, Note_on_c, 0, 77, 127
2, 326360, Note_on_c, 0, 68, 127
2, 326380, Control_c, 0, 64, 63
2, 326396, Control_c, 0, 64, 127
2, 326424, Note_off_c, 0, 30, 0
2, 326436, Note_off_c, 0, 42, 0
2, 326480, Note_off_c, 0, 80, 0
2, 326484, Note_off_c, 0, 77, 0
2, 326504, Note_off_c, 0, 68, 0
2, 326680, Note_on_c, 0, 78, 127
2, 326684, Note_on_c, 0, 49, 127
2, 326684, Note_on_c, 0, 37, 127
2, 326684, Note_on_c, 0, 75, 127
2, 326688, Note_on_c, 0, 66, 127
2, 326724, Note_off_c, 0, 78, 0
2, 326724, Note_off_c, 0, 49, 0
2, 326724, Note_off_c, 0, 66, 0
2, 326728, Note_off_c, 0, 75, 0
2, 326732, Note_off_c, 0, 37, 0
2, 326936, Note_on_c, 0, 71, 127
2, 326936, Note_on_c, 0, 53, 127
2, 326940, Note_on_c, 0, 75, 127
2, 326940, Note_on_c, 0, 41, 127
2, 326944, Note_on_c, 0, 63, 127
2, 326976, Note_off_c, 0, 41, 0
2, 326976, Note_off_c, 0, 63, 0
2, 326980, Note_off_c, 0, 53, 0
2, 326984, Note_off_c, 0, 75, 0
2, 326988, Note_off_c, 0, 71, 0
2, 327204, Note_on_c, 0, 42, 127
2, 327204, Note_on_c, 0, 73, 127
2, 327204, Note_on_c, 0, 70, 127
2, 327204, Control_c, 0, 64, 63
2, 327208, Note_on_c, 0, 54, 127
2, 327208, Note_on_c, 0, 61, 127
2, 327232, Control_c, 0, 64, 127
2, 327252, Note_off_c, 0, 54, 0
2, 327264, Note_off_c, 0, 42, 0
2, 327328, Note_on_c, 0, 44, 127
2, 327328, Note_on_c, 0, 56, 127
2, 327388, Note_off_c, 0, 56, 0
2, 327404, Note_off_c, 0, 44, 0
2, 327476, Note_on_c, 0, 58, 127
2, 327480, Note_on_c, 0, 46, 127
2, 327520, Note_off_c, 0, 58, 0
2, 327544, Note_off_c, 0, 46, 0
2, 327592, Note_off_c, 0, 61, 0
2, 327792, Note_on_c, 0, 49, 127
2, 327792, Note_on_c, 0, 63, 127
2, 327796, Note_on_c, 0, 37, 127
2, 327848, Control_c, 0, 64, 63
2, 327880, Control_c, 0, 64, 127
2, 327968, Note_off_c, 0, 49, 0
2, 328008, Note_off_c, 0, 63, 0
2, 328008, Note_off_c, 0, 37, 0
2, 328032, Note_off_c, 0, 70, 0
2, 328044, Note_on_c, 0, 64, 127
2, 328056, Note_off_c, 0, 73, 0
2, 328096, Control_c, 0, 64, 63
2, 328128, Control_c, 0, 64, 127
2, 328136, Note_on_c, 0, 70, 127
2, 328208, Note_off_c, 0, 64, 0
2, 328260, Note_off_c, 0, 70, 0
2, 328272, Note_on_c, 0, 30, 127
2, 328296, Note_on_c, 0, 42, 127
2, 328304, Note_on_c, 0, 80, 127
2, 328336, Note_off_c, 0, 30, 0
2, 328352, Note_off_c, 0, 42, 0
2, 328352, Note_off_c, 0, 80, 0
2, 328636, Note_on_c, 0, 37, 127
2, 328644, Note_on_c, 0, 49, 127
2, 328680, Note_off_c, 0, 37, 0
2, 328680, Note_off_c, 0, 49, 0
2, 328896, Note_on_c, 0, 56, 127
2, 328904, Note_on_c, 0, 44, 127
2, 328940, Note_off_c, 0, 56, 0
2, 328952, Note_off_c, 0, 44, 0
2, 329132, Control_c, 0, 64, 63
2, 329140, Control_c, 0, 64, 0
2, 329152, Note_on_c, 0, 80, 127
2, 329152, Note_on_c, 0, 54, 127
2, 329152, Note_on_c, 0, 42, 127
2, 329156, Note_on_c, 0, 76, 127
2, 329156, Note_on_c, 0, 70, 127
2, 329164, Control_c, 0, 64, 63
2, 329176, Control_c, 0, 64, 127
2, 329196, Note_off_c, 0, 54, 0
2, 329208, Note_off_c, 0, 42, 0
2, 329272, Note_on_c, 0, 56, 127
2, 329272, Note_on_c, 0, 44, 127
2, 329316, Note_off_c, 0, 56, 0
2, 329328, Note_off_c, 0, 44, 0
2, 329416, Note_on_c, 0, 58, 127
2, 329440, Note_off_c, 0, 58, 0
2, 329656, Note_on_c, 0, 37, 127
2, 329656, Note_on_c, 0, 49, 127
2, 329700, Note_off_c, 0, 49, 0
2, 329720, Note_off_c, 0, 37, 0
2, 329880, Control_c, 0, 64, 63
2, 329884, Control_c, 0, 64, 0
2, 329908, Note_on_c, 0, 30, 127
2, 329908, Note_on_c, 0, 42, 127
2, 329936, Control_c, 0, 64, 63
2, 329940, Control_c, 0, 64, 127
2, 329976, Note_off_c, 0, 30, 0
2, 330000, Note_off_c, 0, 76, 0
2, 330008, Note_off_c, 0, 42, 0
2, 330040, Note_off_c, 0, 80, 0
2, 330088, Note_off_c, 0, 70, 0
2, 330244, Note_on_c, 0, 78, 127
2, 330244, Note_on_c, 0, 37, 127
2, 330248, Note_on_c, 0, 49, 127
2, 330252, Note_on_c, 0, 70, 127
2, 330256, Note_on_c, 0, 75, 127
2, 330288, Note_off_c, 0, 49, 0
2, 330288, Note_off_c, 0, 70, 0
2, 330292, Note_off_c, 0, 37, 0
2, 330308, Note_off_c, 0, 75, 0
2, 330316, Note_off_c, 0, 78, 0
2, 330592, Note_on_c, 0, 76, 127
2, 330592, Note_on_c, 0, 54, 127
2, 330600, Note_on_c, 0, 42, 127
2, 330600, Note_on_c, 0, 68, 127
2, 330600, Note_on_c, 0, 70, 127
2, 330624, Note_off_c, 0, 54, 0
2, 330624, Note_off_c, 0, 68, 0
2, 330644, Note_off_c, 0, 76, 0
2, 330644, Note_off_c, 0, 70, 0
2, 330648, Note_off_c, 0, 42, 0
2, 330848, Control_c, 0, 64, 63
2, 330860, Control_c, 0, 64, 127
2, 330868, Note_on_c, 0, 75, 127
2, 330872, Note_on_c, 0, 71, 127
2, 330872, Note_on_c, 0, 35, 127
2, 330876, Note_on_c, 0, 66, 127
2, 330876, Note_on_c, 0, 47, 127
2, 330912, Note_off_c, 0, 35, 0
2, 330920, Note_off_c, 0, 66, 0
2, 330928, Note_off_c, 0, 71, 0
2, 330928, Note_off_c, 0, 47, 0
2, 330936, Note_off_c, 0, 75, 0
2, 330976, Note_on_c, 0, 73, 127
2, 330980, Note_on_c, 0, 66, 127
2, 330980, Note_on_c, 0, 64, 127
2, 331012, Note_off_c, 0, 64, 0
2, 331032, Note_off_c, 0, 73, 0
2, 331036, Note_off_c, 0, 66, 0
2, 331112, Note_on_c, 0, 71, 127
2, 331112, Note_on_c, 0, 63, 127
2, 331116, Note_on_c, 0, 66, 127
2, 331124, Note_on_c, 0, 54, 127
2, 331128, Note_on_c, 0, 42, 127
2, 331164, Note_off_c, 0, 42, 0
2, 331172, Note_off_c, 0, 54, 0
2, 331316, Note_off_c, 0, 63, 0
2, 331332, Note_off_c, 0, 66, 0
2, 331336, Note_off_c, 0, 71, 0
2, 331368, Note_on_c, 0, 59, 127
2, 331372, Note_on_c, 0, 47, 127
2, 331416, Note_off_c, 0, 59, 0
2, 331444, Note_off_c, 0, 47, 0
2, 331496, Control_c, 0, 64, 63
2, 331496, Note_on_c, 0, 66, 127
2, 331500, Note_on_c, 0, 72, 127
2, 331504, Control_c, 0, 64, 0
2, 331536, Control_c, 0, 64, 63
2, 331544, Control_c, 0, 64, 127
2, 331624, Note_off_c, 0, 66, 0
2, 331652, Note_off_c, 0, 72, 0
2, 331700, Note_on_c, 0, 32, 127
2, 331716, Note_on_c, 0, 44, 127
2, 331720, Note_on_c, 0, 82, 127
2, 331764, Note_off_c, 0, 32, 0
2, 331776, Note_off_c, 0, 82, 0
2, 331780, Note_off_c, 0, 44, 0
2, 332092, Note_on_c, 0, 39, 127
2, 332096, Note_on_c, 0, 51, 127
2, 332136, Note_off_c, 0, 39, 0
2, 332136, Note_off_c, 0, 51, 0
2, 332368, Note_on_c, 0, 58, 127
2, 332372, Note_on_c, 0, 46, 127
2, 332416, Note_off_c, 0, 58, 0
2, 332428, Note_off_c, 0, 46, 0
2, 332636, Control_c, 0, 64, 63
2, 332644, Control_c, 0, 64, 0
2, 332648, Note_on_c, 0, 82, 127
2, 332648, Note_on_c, 0, 44, 127
2, 332648, Note_on_c, 0, 78, 127
2, 332648, Note_on_c, 0, 56, 127
2, 332652, Note_on_c, 0, 72, 127
2, 332664, Control_c, 0, 64, 63
2, 332680, Control_c, 0, 64, 127
2, 332704, Note_off_c, 0, 56, 0
2, 332716, Note_off_c, 0, 44, 0
2, 332796, Note_on_c, 0, 46, 127
2, 332796, Note_on_c, 0, 58, 127
2, 332840, Note_off_c, 0, 58, 0
2, 332848, Note_off_c, 0, 46, 0
2, 332932, Note_on_c, 0, 60, 127
2, 332936, Note_on_c, 0, 48, 127
2, 332968, Note_off_c, 0, 60, 0
2, 332976, Note_off_c, 0, 48, 0
2, 333168, Note_on_c, 0, 51, 127
2, 333172, Note_on_c, 0, 39, 127
2, 333212, Note_off_c, 0, 51, 0
2, 333232, Note_off_c, 0, 39, 0
2, 333396, Control_c, 0, 64, 63
2, 333404, Control_c, 0, 64, 0
2, 333436, Note_on_c, 0, 32, 127
2, 333436, Note_on_c, 0, 44, 127
2, 333444, Control_c, 0, 64, 63
2, 333456, Control_c, 0, 64, 127
2, 333504, Note_off_c, 0, 32, 0
2, 333536, Note_off_c, 0, 44, 0
2, 333564, Note_off_c, 0, 82, 0
2, 333592, Note_off_c, 0, 72, 0
2, 333596, Note_off_c, 0, 78, 0
2, 333700, Note_on_c, 0, 80, 127
2, 333704, Note_on_c, 0, 77, 127
2, 333704, Note_on_c, 0, 72, 127
2, 333712, Note_on_c, 0, 51, 127
2, 333716, Note_on_c, 0, 39, 127
2, 333748, Note_off_c, 0, 77, 0
2, 333752, Note_off_c, 0, 72, 0
2, 333752, Note_off_c, 0, 39, 0
2, 333756, Note_off_c, 0, 51, 0
2, 333768, Note_off_c, 0, 80, 0
2, 334016, Note_on_c, 0, 78, 127
2, 334016, Note_on_c, 0, 70, 127
2, 334016, Note_on_c, 0, 72, 127
2, 334024, Note_on_c, 0, 56, 127
2, 334024, Note_on_c, 0, 44, 127
2, 334056, Note_off_c, 0, 56, 0
2, 334060, Note_off_c, 0, 70, 0
2, 334068, Note_off_c, 0, 72, 0
2, 334068, Note_off_c, 0, 44, 0
2, 334076, Note_off_c, 0, 78, 0
2, 334272, Control_c, 0, 64, 63
2, 334312, Control_c, 0, 64, 127
2, 334320, Note_on_c, 0, 77, 127
2, 334328, Note_on_c, 0, 49, 127
2, 334328, Note_on_c, 0, 68, 127
2, 334328, Note_on_c, 0, 37, 127
2, 334332, Note_on_c, 0, 73, 127
2, 334376, Note_off_c, 0, 68, 0
2, 334380, Note_off_c, 0, 77, 0
2, 334388, Note_off_c, 0, 73, 0
2, 334424, Note_off_c, 0, 37, 0
2, 334440, Note_off_c, 0, 49, 0
2, 334472, Note_on_c, 0, 75, 127
2, 334476, Note_on_c, 0, 66, 127
2, 334484, Note_on_c, 0, 68, 127
2, 334516, Note_off_c, 0, 66, 0
2, 334540, Note_off_c, 0, 75, 0
2, 334552, Note_off_c, 0, 68, 0
2, 334592, Note_on_c, 0, 68, 127
2, 334596, Note_on_c, 0, 73, 127
2, 334596, Note_on_c, 0, 65, 127
2, 334616, Note_on_c, 0, 56, 127
2, 334620, Note_on_c, 0, 44, 127
2, 334644, Note_off_c, 0, 65, 0
2, 334652, Note_off_c, 0, 68, 0
2, 334652, Note_off_c, 0, 44, 0
2, 334656, Note_off_c, 0, 56, 0
2, 334680, Note_off_c, 0, 73, 0
2, 334916, Note_on_c, 0, 61, 127
2, 334920, Note_on_c, 0, 77, 127
2, 334920, Note_on_c, 0, 49, 127
2, 334928, Note_on_c, 0, 68, 127
2, 334928, Note_on_c, 0, 73, 127
2, 334960, Note_off_c, 0, 61, 0
2, 334964, Note_off_c, 0, 68, 0
2, 334992, Note_off_c, 0, 49, 0
2, 335024, Note_off_c, 0, 73, 0
2, 335040, Note_off_c, 0, 77, 0
2, 335064, Note_on_c, 0, 68, 127
2, 335108, Control_c, 0, 64, 63
2, 335120, Control_c, 0, 64, 0
2, 335128, Control_c, 0, 64, 63
2, 335144, Control_c, 0, 64, 127
2, 335172, Note_on_c, 0, 77, 127
2, 335220, Note_off_c, 0, 68, 0
2, 335316, Note_on_c, 0, 83, 127
2, 335320, Note_off_c, 0, 77, 0
2, 335328, Note_on_c, 0, 37, 127
2, 335328, Note_on_c, 0, 49, 127
2, 335364, Note_off_c, 0, 83, 0
2, 335372, Note_off_c, 0, 37, 0
2, 335380, Note_off_c, 0, 49, 0
2, 335684, Note_on_c, 0, 49, 127
2, 335688, Note_on_c, 0, 56, 127
2, 335740, Note_off_c, 0, 49, 0
2, 335752, Note_off_c, 0, 56, 0
2, 335972, Note_on_c, 0, 65, 127
2, 335992, Note_on_c, 0, 56, 127
2, 336012, Note_off_c, 0, 65, 0
2, 336016, Note_off_c, 0, 56, 0
2, 336140, Note_on_c, 0, 68, 127
2, 336148, Note_on_c, 0, 76, 127
2, 336208, Note_off_c, 0, 68, 0
2, 336332, Note_on_c, 0, 83, 127
2, 336332, Note_on_c, 0, 50, 127
2, 336332, Note_on_c, 0, 38, 127
2, 336340, Control_c, 0, 64, 63
2, 336344, Control_c, 0, 64, 0
2, 336360, Control_c, 0, 64, 63
2, 336376, Control_c, 0, 64, 127
2, 336432, Note_off_c, 0, 38, 0
2, 336472, Note_off_c, 0, 50, 0
2, 336648, Note_on_c, 0, 50, 127
2, 336656, Note_on_c, 0, 56, 127
2, 336760, Note_off_c, 0, 50, 0
2, 336808, Note_off_c, 0, 56, 0
2, 336872, Note_off_c, 0, 83, 0
2, 336952, Note_on_c, 0, 64, 127
2, 336956, Note_on_c, 0, 56, 127
2, 336992, Note_off_c, 0, 64, 0
2, 337020, Note_off_c, 0, 56, 0
2, 337180, Note_on_c, 0, 68, 127
2, 337264, Note_off_c, 0, 76, 0
2, 337284, Note_on_c, 0, 75, 127
2, 337332, Note_off_c, 0, 68, 0
2, 337404, Control_c, 0, 64, 63
2, 337416, Control_c, 0, 64, 0
2, 337420, Note_on_c, 0, 83, 127
2, 337420, Control_c, 0, 64, 63
2, 337424, Note_on_c, 0, 39, 127
2, 337428, Note_on_c, 0, 51, 127
2, 337436, Control_c, 0, 64, 127
2, 337520, Note_off_c, 0, 39, 0
2, 337552, Note_off_c, 0, 51, 0
2, 337576, Note_off_c, 0, 83, 0
2, 337584, Note_off_c, 0, 75, 0
2, 337760, Note_on_c, 0, 85, 127
2, 337768, Note_on_c, 0, 76, 127
2, 337800, Note_off_c, 0, 76, 0
2, 337808, Note_off_c, 0, 85, 0
2, 337848, Note_on_c, 0, 59, 127
2, 337848, Note_on_c, 0, 83, 127
2, 337848, Note_on_c, 0, 56, 127
2, 337848, Note_on_c, 0, 51, 127
2, 337852, Note_on_c, 0, 75, 127
2, 337872, Note_off_c, 0, 75, 0
2, 337888, Note_off_c, 0, 83, 0
2, 337888, Note_off_c, 0, 56, 0
2, 337900, Note_off_c, 0, 59, 0
2, 337912, Note_off_c, 0, 51, 0
2, 338152, Note_on_c, 0, 63, 127
2, 338152, Note_on_c, 0, 59, 127
2, 338160, Note_on_c, 0, 56, 127
2, 338192, Note_off_c, 0, 63, 0
2, 338192, Note_off_c, 0, 59, 0
2, 338224, Note_off_c, 0, 56, 0
2, 338360, Note_on_c, 0, 82, 127
2, 338364, Note_on_c, 0, 73, 127
2, 338372, Note_on_c, 0, 75, 127
2, 338392, Note_off_c, 0, 73, 0
2, 338392, Note_off_c, 0, 75, 0
2, 338404, Control_c, 0, 64, 63
2, 338408, Note_off_c, 0, 82, 0
2, 338408, Control_c, 0, 64, 0
2, 338432, Note_on_c, 0, 82, 127
2, 338436, Control_c, 0, 64, 63
2, 338436, Note_on_c, 0, 73, 127
2, 338436, Note_on_c, 0, 75, 127
2, 338440, Note_on_c, 0, 39, 127
2, 338444, Note_on_c, 0, 51, 127
2, 338448, Control_c, 0, 64, 127
2, 338500, Note_off_c, 0, 39, 0
2, 338520, Note_off_c, 0, 51, 0
2, 338536, Note_off_c, 0, 73, 0
2, 338552, Note_off_c, 0, 75, 0
2, 338568, Note_off_c, 0, 82, 0
2, 338668, Note_on_c, 0, 75, 127
2, 338672, Note_on_c, 0, 83, 127
2, 338720, Note_off_c, 0, 75, 0
2, 338724, Note_off_c, 0, 83, 0
2, 338772, Note_on_c, 0, 51, 127
2, 338776, Note_on_c, 0, 61, 127
2, 338784, Note_on_c, 0, 82, 127
2, 338788, Note_on_c, 0, 73, 127
2, 338824, Note_off_c, 0, 61, 0
2, 338824, Note_off_c, 0, 73, 0
2, 338832, Note_off_c, 0, 82, 0
2, 338840, Note_off_c, 0, 51, 0
2, 339136, Note_on_c, 0, 63, 127
2, 339140, Note_on_c, 0, 75, 127
2, 339144, Note_on_c, 0, 73, 127
2, 339144, Note_on_c, 0, 67, 127
2, 339144, Note_on_c, 0, 61, 127
2, 339148, Note_on_c, 0, 55, 127
2, 339172, Note_off_c, 0, 61, 0
2, 339176, Note_off_c, 0, 63, 0
2, 339176, Note_off_c, 0, 67, 0
2, 339184, Note_off_c, 0, 73, 0
2, 339192, Note_off_c, 0, 55, 0
2, 339200, Note_off_c, 0, 75, 0
2, 339528, Note_on_c, 0, 44, 127
2, 339532, Note_on_c, 0, 32, 127
2, 339552, Note_on_c, 0, 80, 127
2, 339552, Note_on_c, 0, 73, 127
2, 339556, Note_on_c, 0, 68, 127
2, 339584, Control_c, 0, 64, 63
2, 339588, Control_c, 0, 64, 0
2, 339628, Control_c, 0, 64, 63
2, 339640, Control_c, 0, 64, 127
2, 339700, Note_off_c, 0, 32, 0
2, 339728, Note_off_c, 0, 44, 0
2, 339792, Note_off_c, 0, 68, 0
2, 339816, Note_off_c, 0, 73, 0
2, 339852, Note_on_c, 0, 75, 127
2, 339948, Note_on_c, 0, 73, 127
2, 339952, Note_on_c, 0, 59, 127
2, 339956, Note_on_c, 0, 51, 127
2, 339960, Note_on_c, 0, 56, 127
2, 340004, Note_off_c, 0, 75, 0
2, 340012, Note_off_c, 0, 56, 0
2, 340016, Note_off_c, 0, 59, 0
2, 340016, Note_off_c, 0, 51, 0
2, 340236, Note_on_c, 0, 63, 127
2, 340240, Note_on_c, 0, 59, 127
2, 340240, Note_on_c, 0, 71, 127
2, 340240, Note_on_c, 0, 56, 127
2, 340256, Note_off_c, 0, 80, 0
2, 340272, Note_off_c, 0, 59, 0
2, 340276, Note_off_c, 0, 63, 0
2, 340280, Note_off_c, 0, 73, 0
2, 340304, Note_off_c, 0, 71, 0
2, 340304, Note_off_c, 0, 56, 0
2, 340508, Control_c, 0, 64, 63
2, 340516, Control_c, 0, 64, 0
2, 340520, Note_on_c, 0, 71, 127
2, 340520, Note_on_c, 0, 46, 127
2, 340520, Note_on_c, 0, 34, 127
2, 340520, Note_on_c, 0, 75, 127
2, 340524, Note_on_c, 0, 67, 127
2, 340552, Control_c, 0, 64, 63
2, 340560, Control_c, 0, 64, 127
2, 340580, Note_off_c, 0, 34, 0
2, 340608, Note_off_c, 0, 46, 0
2, 340776, Note_on_c, 0, 73, 127
2, 340792, Note_off_c, 0, 71, 0
2, 340848, Note_on_c, 0, 71, 127
2, 340852, Note_on_c, 0, 61, 127
2, 340856, Note_on_c, 0, 51, 127
2, 340864, Note_on_c, 0, 55, 127
2, 340936, Note_off_c, 0, 73, 0
2, 340964, Note_off_c, 0, 55, 0
2, 340968, Note_off_c, 0, 61, 0
2, 341124, Note_off_c, 0, 67, 0
2, 341136, Note_on_c, 0, 63, 127
2, 341140, Note_on_c, 0, 61, 127
2, 341140, Note_on_c, 0, 70, 127
2, 341148, Note_on_c, 0, 55, 127
2, 341176, Note_off_c, 0, 75, 0
2, 341176, Note_off_c, 0, 63, 0
2, 341184, Note_off_c, 0, 71, 0
2, 341184, Note_off_c, 0, 61, 0
2, 341184, Note_off_c, 0, 55, 0
2, 341212, Note_off_c, 0, 51, 0
2, 341212, Note_off_c, 0, 70, 0
2, 341428, Control_c, 0, 64, 63
2, 341432, Note_on_c, 0, 70, 127
2, 341436, Note_on_c, 0, 75, 127
2, 341436, Note_on_c, 0, 35, 127
2, 341436, Control_c, 0, 64, 0
2, 341440, Note_on_c, 0, 63, 127
2, 341440, Note_on_c, 0, 47, 127
2, 341464, Control_c, 0, 64, 63
2, 341472, Control_c, 0, 64, 127
2, 341480, Note_off_c, 0, 35, 0
2, 341508, Note_off_c, 0, 47, 0
2, 341744, Note_off_c, 0, 63, 0
2, 341776, Note_on_c, 0, 47, 127
2, 341780, Note_on_c, 0, 56, 127
2, 341788, Note_on_c, 0, 51, 127
2, 341796, Note_on_c, 0, 68, 127
2, 341820, Note_off_c, 0, 47, 0
2, 341828, Note_off_c, 0, 51, 0
2, 341840, Note_off_c, 0, 56, 0
2, 341848, Note_off_c, 0, 70, 0
2, 341876, Note_off_c, 0, 75, 0
2, 341892, Note_off_c, 0, 68, 0
2, 342056, Note_on_c, 0, 51, 127
2, 342072, Note_on_c, 0, 56, 127
2, 342072, Note_on_c, 0, 63, 127
2, 342076, Note_on_c, 0, 77, 127
2, 342112, Note_off_c, 0, 63, 0
2, 342120, Note_off_c, 0, 56, 0
2, 342132, Note_off_c, 0, 77, 0
2, 342144, Note_off_c, 0, 51, 0
2, 342404, Control_c, 0, 64, 63
2, 342412, Note_on_c, 0, 36, 127
2, 342412, Note_on_c, 0, 48, 127
2, 342412, Control_c, 0, 64, 0
2, 342420, Note_on_c, 0, 78, 127
2, 342424, Note_on_c, 0, 68, 127
2, 342428, Control_c, 0, 64, 63
2, 342428, Note_on_c, 0, 75, 127
2, 342440, Control_c, 0, 64, 127
2, 342512, Note_off_c, 0, 68, 0
2, 342532, Note_off_c, 0, 78, 0
2, 342536, Note_on_c, 0, 80, 127
2, 342544, Note_off_c, 0, 75, 0
2, 342604, Note_off_c, 0, 36, 0
2, 342616, Note_off_c, 0, 80, 0
2, 342640, Note_on_c, 0, 78, 127
2, 342644, Note_off_c, 0, 48, 0
2, 342704, Note_off_c, 0, 78, 0
2, 342712, Note_on_c, 0, 80, 127
2, 342744, Note_on_c, 0, 78, 127
2, 342764, Note_off_c, 0, 80, 0
2, 342796, Note_on_c, 0, 80, 127
2, 342800, Note_off_c, 0, 78, 0
2, 342840, Note_on_c, 0, 78, 127
2, 342848, Note_off_c, 0, 80, 0
2, 342888, Note_on_c, 0, 68, 127
2, 342888, Note_on_c, 0, 75, 127
2, 342892, Note_on_c, 0, 48, 127
2, 342896, Note_on_c, 0, 77, 127
2, 342896, Note_on_c, 0, 56, 127
2, 342904, Note_on_c, 0, 54, 127
2, 342936, Note_off_c, 0, 78, 0
2, 342960, Note_off_c, 0, 77, 0
2, 342964, Note_off_c, 0, 48, 0
2, 342976, Note_off_c, 0, 54, 0
2, 342984, Note_off_c, 0, 56, 0
2, 343044, Note_on_c, 0, 78, 127
2, 343056, Note_off_c, 0, 68, 0
2, 343064, Note_off_c, 0, 75, 0
2, 343072, Note_off_c, 0, 78, 0
2, 343100, Note_on_c, 0, 75, 127
2, 343100, Note_on_c, 0, 78, 127
2, 343104, Note_on_c, 0, 68, 127
2, 343176, Note_off_c, 0, 78, 0
2, 343192, Note_off_c, 0, 68, 0
2, 343212, Note_off_c, 0, 75, 0
2, 343296, Note_on_c, 0, 63, 127
2, 343296, Note_on_c, 0, 75, 127
2, 343304, Note_on_c, 0, 56, 127
2, 343304, Note_on_c, 0, 68, 127
2, 343304, Note_on_c, 0, 54, 127
2, 343348, Note_off_c, 0, 68, 0
2, 343352, Note_off_c, 0, 63, 0
2, 343368, Note_off_c, 0, 75, 0
2, 343376, Note_off_c, 0, 56, 0
2, 343388, Note_off_c, 0, 54, 0
2, 343552, Note_on_c, 0, 80, 127
2, 343564, Note_on_c, 0, 75, 127
2, 343564, Note_on_c, 0, 68, 127
2, 343588, Note_off_c, 0, 68, 0
2, 343604, Note_off_c, 0, 80, 0
2, 343608, Note_off_c, 0, 75, 0
2, 343856, Note_on_c, 0, 37, 127
2, 343856, Note_on_c, 0, 68, 127
2, 343856, Note_on_c, 0, 25, 127
2, 343856, Note_on_c, 0, 61, 127
2, 343860, Note_on_c, 0, 66, 127
2, 343908, Control_c, 0, 64, 63
2, 343916, Control_c, 0, 64, 0
2, 343984, Control_c, 0, 64, 63
2, 343992, Control_c, 0, 64, 127
2, 344084, Note_off_c, 0, 25, 0
2, 344128, Note_off_c, 0, 37, 0
2, 344160, Note_off_c, 0, 66, 0
2, 344176, Note_off_c, 0, 61, 0
2, 344180, Note_off_c, 0, 68, 0
2, 344368, Note_on_c, 0, 71, 127
2, 344368, Note_on_c, 0, 68, 127
2, 344376, Note_on_c, 0, 66, 127
2, 344376, Note_on_c, 0, 59, 127
2, 344384, Note_on_c, 0, 49, 127
2, 344384, Note_on_c, 0, 56, 127
2, 344412, Note_off_c, 0, 66, 0
2, 344416, Note_off_c, 0, 56, 0
2, 344424, Note_off_c, 0, 68, 0
2, 344428, Note_off_c, 0, 71, 0
2, 344436, Note_off_c, 0, 59, 0
2, 344440, Note_off_c, 0, 49, 0
2, 344740, Note_on_c, 0, 49, 127
2, 344744, Note_on_c, 0, 73, 127
2, 344744, Note_on_c, 0, 61, 127
2, 344752, Note_on_c, 0, 66, 127
2, 344752, Note_on_c, 0, 68, 127
2, 344752, Note_on_c, 0, 56, 127
2, 344780, Note_off_c, 0, 56, 0
2, 344788, Note_off_c, 0, 66, 0
2, 344800, Note_off_c, 0, 61, 0
2, 344804, Note_off_c, 0, 49, 0
2, 344804, Note_off_c, 0, 68, 0
2, 344820, Note_off_c, 0, 73, 0
2, 344948, Note_on_c, 0, 49, 127
2, 345044, Note_off_c, 0, 49, 0
2, 345048, Note_on_c, 0, 56, 127
2, 345052, Note_on_c, 0, 75, 127
2, 345056, Note_on_c, 0, 71, 127
2, 345056, Note_on_c, 0, 66, 127
2, 345056, Note_on_c, 0, 68, 127
2, 345060, Note_on_c, 0, 63, 127
2, 345092, Note_off_c, 0, 63, 0
2, 345096, Note_off_c, 0, 56, 0
2, 345100, Note_off_c, 0, 66, 0
2, 345104, Note_off_c, 0, 68, 0
2, 345116, Note_off_c, 0, 71, 0
2, 345128, Note_off_c, 0, 75, 0
2, 345312, Note_on_c, 0, 77, 127
2, 345316, Note_on_c, 0, 65, 127
2, 345316, Note_on_c, 0, 56, 127
2, 345320, Note_on_c, 0, 63, 127
2, 345320, Note_on_c, 0, 71, 127
2, 345320, Note_on_c, 0, 75, 127
2, 345324, Note_on_c, 0, 59, 127
2, 345324, Note_on_c, 0, 68, 127
2, 345352, Note_off_c, 0, 68, 0
2, 345360, Note_off_c, 0, 65, 0
2, 345360, Note_off_c, 0, 63, 0
2, 345360, Note_off_c, 0, 71, 0
2, 345368, Note_off_c, 0, 56, 0
2, 345380, Note_off_c, 0, 59, 0
2, 345384, Note_off_c, 0, 77, 0
2, 345384, Note_off_c, 0, 75, 0
2, 345572, Control_c, 0, 64, 63
2, 345584, Control_c, 0, 64, 0
2, 345588, Note_on_c, 0, 56, 127
2, 345588, Note_on_c, 0, 78, 127
2, 345592, Note_on_c, 0, 66, 127
2, 345592, Note_on_c, 0, 75, 127
2, 345592, Note_on_c, 0, 63, 127
2, 345596, Note_on_c, 0, 71, 127
2, 345600, Note_on_c, 0, 59, 127
2, 345608, Control_c, 0, 64, 63
2, 345616, Control_c, 0, 64, 127
2, 345736, Note_off_c, 0, 78, 0
2, 345752, Note_off_c, 0, 56, 0
2, 345752, Note_off_c, 0, 75, 0
2, 345764, Note_off_c, 0, 71, 0
2, 345768, Note_off_c, 0, 59, 0
2, 345784, Note_off_c, 0, 63, 0
2, 345796, Note_off_c, 0, 66, 0
2, 345872, Note_on_c, 0, 80, 127
2, 345876, Note_on_c, 0, 56, 127
2, 345880, Note_on_c, 0, 66, 127
2, 345884, Note_on_c, 0, 71, 127
2, 345884, Note_on_c, 0, 63, 127
2, 345892, Note_on_c, 0, 59, 127
2, 345892, Note_on_c, 0, 75, 127
2, 345948, Note_off_c, 0, 56, 0
2, 345960, Note_off_c, 0, 59, 0
2, 345964, Note_off_c, 0, 71, 0
2, 345968, Note_off_c, 0, 75, 0
2, 345972, Note_off_c, 0, 63, 0
2, 345980, Note_off_c, 0, 66, 0
2, 345988, Note_off_c, 0, 80, 0
2, 346188, Note_on_c, 0, 59, 127
2, 346192, Note_on_c, 0, 70, 127
2, 346192, Note_on_c, 0, 82, 127
2, 346192, Control_c, 0, 64, 63
2, 346192, Note_on_c, 0, 78, 127
2, 346196, Note_on_c, 0, 66, 127
2, 346196, Note_on_c, 0, 63, 127
2, 346196, Note_on_c, 0, 71, 127
2, 346200, Note_on_c, 0, 75, 127
2, 346216, Control_c, 0, 64, 127
2, 346300, Note_off_c, 0, 71, 0
2, 346320, Note_off_c, 0, 75, 0
2, 346332, Note_off_c, 0, 78, 0
2, 346336, Note_off_c, 0, 59, 0
2, 346340, Note_off_c, 0, 82, 0
2, 346352, Note_off_c, 0, 63, 0
2, 346360, Note_off_c, 0, 66, 0
2, 346384, Note_off_c, 0, 70, 0
2, 346500, Note_on_c, 0, 83, 127
2, 346504, Note_on_c, 0, 71, 127
2, 346504, Note_on_c, 0, 75, 127
2, 346504, Note_on_c, 0, 68, 127
2, 346508, Note_on_c, 0, 63, 127
2, 346508, Note_on_c, 0, 80, 127
2, 346512, Note_on_c, 0, 66, 127
2, 346512, Note_on_c, 0, 78, 127
2, 346632, Note_off_c, 0, 83, 0
2, 346636, Note_off_c, 0, 75, 0
2, 346668, Note_off_c, 0, 78, 0
2, 346672, Note_off_c, 0, 80, 0
2, 346704, Note_off_c, 0, 63, 0
2, 346704, Note_off_c, 0, 66, 0
2, 346712, Note_off_c, 0, 68, 0
2, 346716, Note_off_c, 0, 71, 0
2, 346856, Note_on_c, 0, 63, 127
2, 346864, Note_on_c, 0, 73, 127
2, 346864, Note_on_c, 0, 85, 127
2, 346864, Note_on_c, 0, 68, 127
2, 346868, Note_on_c, 0, 75, 127
2, 346872, Note_on_c, 0, 78, 127
2, 346872, Note_on_c, 0, 66, 127
2, 346872, Note_on_c, 0, 80, 127
2, 346904, Note_off_c, 0, 75, 0
2, 346920, Note_off_c, 0, 78, 0
2, 346936, Note_off_c, 0, 63, 0
2, 346936, Note_off_c, 0, 73, 0
2, 346936, Note_off_c, 0, 68, 0
2, 346936, Note_off_c, 0, 80, 0
2, 346940, Note_off_c, 0, 85, 0
2, 346940, Note_off_c, 0, 66, 0
2, 347316, Note_on_c, 0, 63, 127
2, 347320, Note_on_c, 0, 87, 127
2, 347320, Note_on_c, 0, 75, 127
2, 347324, Note_on_c, 0, 83, 127
2, 347324, Note_on_c, 0, 71, 127
2, 347328, Note_on_c, 0, 80, 127
2, 347328, Note_on_c, 0, 66, 127
2, 347328, Note_on_c, 0, 78, 127
2, 347372, Note_off_c, 0, 75, 0
2, 347380, Note_off_c, 0, 63, 0
2, 347388, Note_off_c, 0, 71, 0
2, 347400, Note_off_c, 0, 66, 0
2, 347440, Note_off_c, 0, 78, 0
2, 347452, Note_off_c, 0, 80, 0
2, 347476, Note_off_c, 0, 83, 0
2, 347496, Note_off_c, 0, 87, 0
2, 347632, Control_c, 0, 64, 63
2, 347640, Control_c, 0, 64, 0
2, 347920, Note_on_c, 0, 89, 127
2, 347924, Note_on_c, 0, 85, 127
2, 347924, Note_on_c, 0, 49, 127
2, 347924, Note_on_c, 0, 83, 127
2, 347924, Note_on_c, 0, 77, 127
2, 347928, Note_on_c, 0, 37, 127
2, 347980, Control_c, 0, 64, 63
2, 347984, Control_c, 0, 64, 127
2, 348124, Note_off_c, 0, 49, 0
2, 348128, Note_off_c, 0, 89, 0
2, 348128, Note_off_c, 0, 77, 0
2, 348156, Note_off_c, 0, 83, 0
2, 348164, Note_off_c, 0, 37, 0
2, 348192, Note_off_c, 0, 85, 0
2, 348348, Note_on_c, 0, 90, 127
2, 348352, Note_on_c, 0, 42, 127
2, 348352, Note_on_c, 0, 78, 127
2, 348352, Note_on_c, 0, 82, 127
2, 348352, Note_on_c, 0, 30, 127
2, 348384, Control_c, 0, 64, 63
2, 348388, Control_c, 0, 64, 0
2, 348444, Control_c, 0, 64, 63
2, 348448, Control_c, 0, 64, 127
2, 348516, Note_off_c, 0, 30, 0
2, 348536, Note_off_c, 0, 42, 0
2, 348620, Note_off_c, 0, 90, 0
2, 348656, Note_off_c, 0, 82, 0
2, 348672, Note_off_c, 0, 78, 0
2, 348736, Note_on_c, 0, 61, 127
2, 348736, Note_on_c, 0, 49, 127
2, 348788, Note_off_c, 0, 49, 0
2, 348792, Note_off_c, 0, 61, 0
2, 348980, Note_on_c, 0, 81, 127
2, 348980, Note_on_c, 0, 84, 127
2, 348984, Note_on_c, 0, 72, 127
2, 348984, Note_on_c, 0, 51, 127
2, 348984, Note_on_c, 0, 63, 127
2, 349020, Note_off_c, 0, 72, 0
2, 349020, Note_off_c, 0, 51, 0
2, 349024, Note_off_c, 0, 63, 0
2, 349032, Note_off_c, 0, 81, 0
2, 349032, Note_off_c, 0, 84, 0
2, 349208, Note_on_c, 0, 65, 127
2, 349208, Note_on_c, 0, 83, 127
2, 349208, Note_on_c, 0, 61, 127
2, 349208, Note_on_c, 0, 80, 127
2, 349208, Note_on_c, 0, 53, 127
2, 349212, Note_on_c, 0, 71, 127
2, 349224, Control_c, 0, 64, 63
2, 349232, Control_c, 0, 64, 0
2, 349256, Control_c, 0, 64, 63
2, 349264, Control_c, 0, 64, 127
2, 349312, Note_off_c, 0, 65, 0
2, 349328, Note_off_c, 0, 61, 0
2, 349336, Note_off_c, 0, 53, 0
2, 349420, Note_off_c, 0, 71, 0
2, 349424, Note_off_c, 0, 83, 0
2, 349444, Note_off_c, 0, 80, 0
2, 349468, Note_on_c, 0, 49, 127
2, 349468, Note_on_c, 0, 61, 127
2, 349504, Note_off_c, 0, 49, 0
2, 349520, Note_off_c, 0, 61, 0
2, 349652, Note_on_c, 0, 65, 127
2, 349656, Note_on_c, 0, 59, 127
2, 349656, Note_on_c, 0, 80, 127
2, 349656, Note_on_c, 0, 68, 127
2, 349656, Note_on_c, 0, 61, 127
2, 349656, Note_on_c, 0, 77, 127
2, 349684, Note_off_c, 0, 65, 0
2, 349688, Note_off_c, 0, 61, 0
2, 349692, Note_off_c, 0, 59, 0
2, 349696, Note_off_c, 0, 68, 0
2, 349712, Note_off_c, 0, 77, 0
2, 349724, Note_off_c, 0, 80, 0
2, 349884, Note_on_c, 0, 42, 127
2, 349884, Note_on_c, 0, 82, 127
2, 349884, Note_on_c, 0, 54, 127
2, 349888, Control_c, 0, 64, 63
2, 349888, Note_on_c, 0, 70, 127
2, 349888, Note_on_c, 0, 78, 127
2, 349888, Control_c, 0, 64, 0
2, 349928, Control_c, 0, 64, 63
2, 349936, Control_c, 0, 64, 127
2, 349964, Note_off_c, 0, 42, 0
2, 349988, Note_off_c, 0, 54, 0
2, 350104, Note_off_c, 0, 70, 0
2, 350136, Note_off_c, 0, 82, 0
2, 350148, Note_on_c, 0, 61, 127
2, 350152, Note_off_c, 0, 78, 0
2, 350156, Note_on_c, 0, 58, 127
2, 350156, Note_on_c, 0, 54, 127
2, 350232, Note_off_c, 0, 58, 0
2, 350236, Note_off_c, 0, 61, 0
2, 350244, Note_off_c, 0, 54, 0
2, 350340, Note_on_c, 0, 49, 127
2, 350344, Note_on_c, 0, 85, 127
2, 350344, Note_on_c, 0, 54, 127
2, 350344, Note_on_c, 0, 58, 127
2, 350348, Note_on_c, 0, 82, 127
2, 350348, Note_on_c, 0, 73, 127
2, 350384, Note_off_c, 0, 73, 0
2, 350400, Note_off_c, 0, 49, 0
2, 350408, Note_off_c, 0, 85, 0
2, 350412, Note_off_c, 0, 82, 0
2, 350420, Note_off_c, 0, 54, 0
2, 350432, Note_off_c, 0, 58, 0
2, 350576, Note_on_c, 0, 66, 127
2, 350576, Note_on_c, 0, 58, 127
2, 350576, Note_on_c, 0, 90, 127
2, 350580, Note_on_c, 0, 78, 127
2, 350580, Note_on_c, 0, 82, 127
2, 350584, Note_on_c, 0, 54, 127
2, 350636, Note_off_c, 0, 66, 0
2, 350648, Note_off_c, 0, 54, 0
2, 350656, Note_off_c, 0, 58, 0
2, 350776, Note_off_c, 0, 90, 0
2, 350784, Note_off_c, 0, 78, 0
2, 350800, Note_on_c, 0, 61, 127
2, 350808, Note_on_c, 0, 58, 127
2, 350812, Note_on_c, 0, 54, 127
2, 350836, Note_off_c, 0, 82, 0
2, 350880, Note_off_c, 0, 61, 0
2, 350880, Note_off_c, 0, 58, 0
2, 350908, Note_off_c, 0, 54, 0
2, 350988, Note_on_c, 0, 58, 127
2, 350988, Note_on_c, 0, 89, 127
2, 350992, Note_on_c, 0, 54, 127
2, 350992, Note_on_c, 0, 85, 127
2, 350992, Note_on_c, 0, 77, 127
2, 350992, Note_on_c, 0, 49, 127
2, 351020, Note_off_c, 0, 58, 0
2, 351028, Note_off_c, 0, 54, 0
2, 351040, Note_off_c, 0, 49, 0
2, 351048, Note_off_c, 0, 89, 0
2, 351052, Note_off_c, 0, 77, 0
2, 351064, Note_off_c, 0, 85, 0
2, 351216, Control_c, 0, 64, 63
2, 351224, Note_on_c, 0, 83, 127
2, 351224, Control_c, 0, 64, 0
2, 351224, Note_on_c, 0, 49, 127
2, 351224, Note_on_c, 0, 37, 127
2, 351224, Note_on_c, 0, 87, 127
2, 351228, Note_on_c, 0, 75, 127
2, 351256, Control_c, 0, 64, 63
2, 351264, Control_c, 0, 64, 127
2, 351280, Note_off_c, 0, 37, 0
2, 351300, Note_off_c, 0, 49, 0
2, 351320, Note_off_c, 0, 83, 0
2, 351320, Note_off_c, 0, 87, 0
2, 351340, Note_off_c, 0, 75, 0
2, 351480, Note_on_c, 0, 49, 127
2, 351480, Note_on_c, 0, 85, 127
2, 351484, Note_on_c, 0, 59, 127
2, 351488, Note_on_c, 0, 73, 127
2, 351488, Note_on_c, 0, 82, 127
2, 351488, Note_on_c, 0, 56, 127
2, 351512, Note_off_c, 0, 56, 0
2, 351520, Note_off_c, 0, 85, 0
2, 351520, Note_off_c, 0, 73, 0
2, 351524, Note_off_c, 0, 49, 0
2, 351528, Note_off_c, 0, 59, 0
2, 351528, Note_off_c, 0, 82, 0
2, 351668, Note_on_c, 0, 56, 127
2, 351668, Note_on_c, 0, 83, 127
2, 351668, Note_on_c, 0, 80, 127
2, 351672, Note_on_c, 0, 65, 127
2, 351672, Note_on_c, 0, 59, 127
2, 351672, Note_on_c, 0, 71, 127
2, 351692, Note_off_c, 0, 71, 0
2, 351704, Note_off_c, 0, 80, 0
2, 351704, Note_off_c, 0, 59, 0
2, 351708, Note_off_c, 0, 56, 0
2, 351712, Note_off_c, 0, 83, 0
2, 351712, Note_off_c, 0, 65, 0
2, 351864, Note_on_c, 0, 68, 127
2, 351864, Note_on_c, 0, 61, 127
2, 351868, Note_on_c, 0, 59, 127
2, 351872, Note_on_c, 0, 83, 127
2, 351872, Note_on_c, 0, 87, 127
2, 351872, Note_on_c, 0, 75, 127
2, 351896, Note_off_c, 0, 68, 0
2, 351896, Note_off_c, 0, 59, 0
2, 351900, Note_off_c, 0, 61, 0
2, 352072, Note_off_c, 0, 83, 0
2, 352076, Note_off_c, 0, 87, 0
2, 352076, Note_on_c, 0, 65, 127
2, 352080, Note_on_c, 0, 61, 127
2, 352080, Note_on_c, 0, 59, 127
2, 352080, Note_on_c, 0, 56, 127
2, 352096, Note_off_c, 0, 75, 0
2, 352108, Note_off_c, 0, 65, 0
2, 352116, Note_off_c, 0, 61, 0
2, 352120, Note_off_c, 0, 59, 0
2, 352136, Note_off_c, 0, 56, 0
2, 352272, Note_on_c, 0, 80, 127
2, 352272, Note_on_c, 0, 68, 127
2, 352276, Note_on_c, 0, 77, 127
2, 352276, Note_on_c, 0, 59, 127
2, 352280, Note_on_c, 0, 56, 127
2, 352280, Note_on_c, 0, 49, 127
2, 352304, Note_off_c, 0, 59, 0
2, 352304, Note_off_c, 0, 56, 0
2, 352308, Note_off_c, 0, 68, 0
2, 352324, Note_off_c, 0, 49, 0
2, 352328, Note_off_c, 0, 77, 0
2, 352340, Note_off_c, 0, 80, 0
2, 352480, Control_c, 0, 64, 63
2, 352488, Control_c, 0, 64, 0
2, 352492, Note_on_c, 0, 82, 127
2, 352492, Note_on_c, 0, 42, 127
2, 352492, Note_on_c, 0, 54, 127
2, 352496, Note_on_c, 0, 70, 127
2, 352496, Note_on_c, 0, 78, 127
2, 352528, Control_c, 0, 64, 63
2, 352532, Control_c, 0, 64, 127
2, 352596, Note_off_c, 0, 42, 0
2, 352616, Note_off_c, 0, 54, 0
2, 352748, Note_on_c, 0, 58, 127
2, 352752, Note_on_c, 0, 49, 127
2, 352752, Note_on_c, 0, 54, 127
2, 352796, Note_off_c, 0, 54, 0
2, 352800, Note_off_c, 0, 58, 0
2, 352800, Note_off_c, 0, 49, 0
2, 352976, Note_on_c, 0, 61, 127
2, 352980, Note_on_c, 0, 58, 127
2, 352984, Note_on_c, 0, 54, 127
2, 352996, Note_off_c, 0, 70, 0
2, 353008, Note_off_c, 0, 82, 0
2, 353008, Note_off_c, 0, 61, 0
2, 353016, Note_off_c, 0, 58, 0
2, 353020, Note_off_c, 0, 78, 0
2, 353028, Note_off_c, 0, 54, 0
2, 353248, Note_on_c, 0, 85, 127
2, 353248, Note_on_c, 0, 51, 127
2, 353248, Note_on_c, 0, 39, 127
2, 353252, Note_on_c, 0, 79, 127
2, 353252, Note_on_c, 0, 73, 127
2, 353260, Control_c, 0, 64, 63
2, 353264, Control_c, 0, 64, 0
2, 353356, Control_c, 0, 64, 63
2, 353360, Control_c, 0, 64, 127
2, 353408, Note_off_c, 0, 39, 0
2, 353432, Note_off_c, 0, 51, 0
2, 353580, Note_on_c, 0, 61, 127
2, 353580, Note_on_c, 0, 51, 127
2, 353588, Note_on_c, 0, 58, 127
2, 353612, Note_off_c, 0, 58, 0
2, 353624, Note_off_c, 0, 61, 0
2, 353624, Note_off_c, 0, 51, 0
2, 353804, Note_on_c, 0, 67, 127
2, 353808, Note_on_c, 0, 58, 127
2, 353808, Note_on_c, 0, 63, 127
2, 353812, Note_on_c, 0, 61, 127
2, 353832, Note_off_c, 0, 63, 0
2, 353840, Note_off_c, 0, 67, 0
2, 353840, Note_off_c, 0, 61, 0
2, 353860, Note_off_c, 0, 58, 0
2, 353896, Note_off_c, 0, 79, 0
2, 354080, Note_on_c, 0, 56, 127
2, 354080, Note_on_c, 0, 44, 127
2, 354088, Note_on_c, 0, 80, 127
2, 354092, Control_c, 0, 64, 63
2, 354096, Control_c, 0, 64, 0
2, 354176, Control_c, 0, 64, 63
2, 354176, Control_c, 0, 64, 127
2, 354264, Note_off_c, 0, 44, 0
2, 354296, Note_off_c, 0, 56, 0
2, 354304, Note_off_c, 0, 85, 0
2, 354308, Note_off_c, 0, 73, 0
2, 354336, Note_off_c, 0, 80, 0
2, 354432, Note_on_c, 0, 84, 127
2, 354432, Note_on_c, 0, 63, 127
2, 354432, Note_on_c, 0, 72, 127
2, 354432, Note_on_c, 0, 51, 127
2, 354436, Note_on_c, 0, 56, 127
2, 354464, Note_off_c, 0, 51, 0
2, 354464, Note_off_c, 0, 56, 0
2, 354472, Note_off_c, 0, 63, 0
2, 354480, Note_off_c, 0, 72, 0
2, 354484, Note_off_c, 0, 84, 0
2, 354672, Note_on_c, 0, 59, 127
2, 354672, Note_on_c, 0, 63, 127
2, 354672, Note_on_c, 0, 68, 127
2, 354700, Note_off_c, 0, 68, 0
2, 354704, Note_off_c, 0, 63, 0
2, 354724, Note_off_c, 0, 59, 0
2, 354760, Note_on_c, 0, 83, 127
2, 354760, Note_on_c, 0, 71, 127
2, 354824, Note_off_c, 0, 71, 0
2, 354832, Note_off_c, 0, 83, 0
2, 354884, Note_on_c, 0, 83, 127
2, 354884, Control_c, 0, 64, 63
2, 354888, Note_on_c, 0, 71, 127
2, 354888, Note_on_c, 0, 80, 127
2, 354892, Control_c, 0, 64, 0
2, 354896, Note_on_c, 0, 49, 127
2, 354896, Note_on_c, 0, 37, 127
2, 354912, Control_c, 0, 64, 63
2, 354920, Control_c, 0, 64, 127
2, 354936, Note_off_c, 0, 37, 0
2, 354956, Note_off_c, 0, 49, 0
2, 354980, Note_off_c, 0, 83, 0
2, 354988, Note_off_c, 0, 71, 0
2, 355000, Note_off_c, 0, 80, 0
2, 355168, Note_on_c, 0, 49, 127
2, 355172, Note_on_c, 0, 59, 127
2, 355172, Note_on_c, 0, 82, 127
2, 355172, Note_on_c, 0, 56, 127
2, 355176, Note_on_c, 0, 70, 127
2, 355176, Note_on_c, 0, 78, 127
2, 355208, Note_off_c, 0, 56, 0
2, 355216, Note_off_c, 0, 70, 0
2, 355220, Note_off_c, 0, 49, 0
2, 355220, Note_off_c, 0, 59, 0
2, 355224, Note_off_c, 0, 82, 0
2, 355228, Note_off_c, 0, 78, 0
2, 355392, Note_on_c, 0, 65, 127
2, 355392, Note_on_c, 0, 59, 127
2, 355396, Note_on_c, 0, 81, 127
2, 355400, Note_on_c, 0, 69, 127
2, 355400, Note_on_c, 0, 77, 127
2, 355400, Note_on_c, 0, 56, 127
2, 355424, Note_off_c, 0, 69, 0
2, 355428, Note_off_c, 0, 65, 0
2, 355432, Note_off_c, 0, 59, 0
2, 355432, Note_off_c, 0, 81, 0
2, 355432, Note_off_c, 0, 77, 0
2, 355448, Note_off_c, 0, 56, 0
2, 355644, Note_on_c, 0, 82, 127
2, 355644, Note_on_c, 0, 42, 127
2, 355644, Control_c, 0, 64, 63
2, 355644, Note_on_c, 0, 54, 127
2, 355648, Note_on_c, 0, 70, 127
2, 355648, Control_c, 0, 64, 0
2, 355648, Note_on_c, 0, 78, 127
2, 355676, Control_c, 0, 64, 63
2, 355684, Control_c, 0, 64, 127
2, 355728, Note_off_c, 0, 42, 0
2, 355752, Note_off_c, 0, 70, 0
2, 355756, Note_off_c, 0, 54, 0
2, 355768, Note_off_c, 0, 78, 0
2, 355772, Note_off_c, 0, 82, 0
2, 355924, Note_on_c, 0, 49, 127
2, 355924, Note_on_c, 0, 58, 127
2, 355924, Note_on_c, 0, 85, 127
2, 355928, Note_on_c, 0, 82, 127
2, 355928, Note_on_c, 0, 73, 127
2, 355932, Note_on_c, 0, 54, 127
2, 355952, Note_off_c, 0, 54, 0
2, 355960, Note_off_c, 0, 73, 0
2, 355964, Note_off_c, 0, 58, 0
2, 355972, Note_off_c, 0, 49, 0
2, 355984, Note_off_c, 0, 85, 0
2, 355984, Note_off_c, 0, 82, 0
2, 356156, Note_on_c, 0, 61, 127
2, 356160, Note_on_c, 0, 90, 127
2, 356160, Note_on_c, 0, 54, 127
2, 356160, Note_on_c, 0, 58, 127
2, 356164, Note_on_c, 0, 78, 127
2, 356164, Note_on_c, 0, 82, 127
2, 356204, Note_off_c, 0, 61, 0
2, 356204, Note_off_c, 0, 78, 0
2, 356212, Note_off_c, 0, 54, 0
2, 356212, Note_off_c, 0, 58, 0
2, 356232, Note_off_c, 0, 90, 0
2, 356252, Note_off_c, 0, 82, 0
2, 356388, Note_on_c, 0, 70, 127
2, 356392, Note_on_c, 0, 90, 127
2, 356392, Note_on_c, 0, 61, 127
2, 356396, Note_on_c, 0, 78, 127
2, 356396, Note_on_c, 0, 82, 127
2, 356400, Note_on_c, 0, 66, 127
2, 356436, Note_off_c, 0, 61, 0
2, 356448, Note_off_c, 0, 66, 0
2, 356456, Note_off_c, 0, 70, 0
2, 356600, Note_on_c, 0, 66, 127
2, 356604, Note_on_c, 0, 58, 127
2, 356616, Note_on_c, 0, 61, 127
2, 356636, Note_off_c, 0, 61, 0
2, 356648, Note_off_c, 0, 66, 0
2, 356656, Note_off_c, 0, 58, 0
2, 356680, Note_off_c, 0, 78, 0
2, 356688, Note_off_c, 0, 90, 0
2, 356700, Note_off_c, 0, 82, 0
2, 356820, Note_on_c, 0, 61, 127
2, 356824, Note_on_c, 0, 85, 127
2, 356824, Note_on_c, 0, 58, 127
2, 356824, Note_on_c, 0, 89, 127
2, 356824, Note_on_c, 0, 77, 127
2, 356824, Note_on_c, 0, 49, 127
2, 356852, Note_off_c, 0, 61, 0
2, 356856, Note_off_c, 0, 58, 0
2, 356864, Note_off_c, 0, 89, 0
2, 356868, Note_off_c, 0, 49, 0
2, 356872, Note_off_c, 0, 77, 0
2, 356880, Note_off_c, 0, 85, 0
2, 357072, Note_on_c, 0, 85, 127
2, 357072, Note_on_c, 0, 89, 127
2, 357076, Note_on_c, 0, 77, 127
2, 357076, Note_on_c, 0, 37, 127
2, 357076, Note_on_c, 0, 49, 127
2, 357080, Control_c, 0, 64, 63
2, 357088, Control_c, 0, 64, 0
2, 357112, Control_c, 0, 64, 63
2, 357120, Control_c, 0, 64, 127
2, 357168, Note_off_c, 0, 37, 0
2, 357184, Note_off_c, 0, 49, 0
2, 357192, Note_off_c, 0, 89, 0
2, 357212, Note_off_c, 0, 85, 0
2, 357220, Note_off_c, 0, 77, 0
2, 357352, Note_on_c, 0, 49, 127
2, 357352, Note_on_c, 0, 59, 127
2, 357352, Note_on_c, 0, 87, 127
2, 357356, Note_on_c, 0, 83, 127
2, 357356, Note_on_c, 0, 56, 127
2, 357360, Note_on_c, 0, 75, 127
2, 357388, Note_off_c, 0, 56, 0
2, 357392, Note_off_c, 0, 49, 0
2, 357396, Note_off_c, 0, 83, 0
2, 357400, Note_off_c, 0, 75, 0
2, 357404, Note_off_c, 0, 59, 0
2, 357408, Note_off_c, 0, 87, 0
2, 357548, Note_on_c, 0, 59, 127
2, 357552, Note_on_c, 0, 65, 127
2, 357552, Note_on_c, 0, 85, 127
2, 357552, Note_on_c, 0, 56, 127
2, 357556, Note_on_c, 0, 73, 127
2, 357556, Note_on_c, 0, 82, 127
2, 357588, Note_off_c, 0, 59, 0
2, 357588, Note_off_c, 0, 56, 0
2, 357588, Note_off_c, 0, 73, 0
2, 357596, Note_off_c, 0, 65, 0
2, 357604, Note_off_c, 0, 85, 0
2, 357604, Note_off_c, 0, 82, 0
2, 357756, Note_on_c, 0, 71, 127
2, 357760, Note_on_c, 0, 65, 127
2, 357760, Note_on_c, 0, 83, 127
2, 357760, Note_on_c, 0, 87, 127
2, 357764, Note_on_c, 0, 61, 127
2, 357764, Note_on_c, 0, 75, 127
2, 357804, Note_off_c, 0, 65, 0
2, 357808, Note_off_c, 0, 71, 0
2, 357820, Note_off_c, 0, 61, 0
2, 357940, Note_off_c, 0, 87, 0
2, 357944, Note_off_c, 0, 83, 0
2, 357980, Note_off_c, 0, 75, 0
2, 358008, Note_on_c, 0, 65, 127
2, 358012, Note_on_c, 0, 61, 127
2, 358016, Note_on_c, 0, 56, 127
2, 358040, Note_off_c, 0, 61, 0
2, 358048, Note_off_c, 0, 65, 0
2, 358064, Note_off_c, 0, 56, 0
2, 358232, Note_on_c, 0, 61, 127
2, 358232, Note_on_c, 0, 80, 127
2, 358232, Note_on_c, 0, 68, 127
2, 358232, Note_on_c, 0, 49, 127
2, 358232, Note_on_c, 0, 77, 127
2, 358256, Control_c, 0, 64, 63
2, 358284, Control_c, 0, 64, 127
2, 358352, Note_off_c, 0, 61, 0
2, 358368, Note_off_c, 0, 68, 0
2, 358376, Note_off_c, 0, 49, 0
2, 358376, Note_off_c, 0, 77, 0
2, 358380, Note_off_c, 0, 80, 0
2, 358516, Note_on_c, 0, 82, 127
2, 358520, Note_on_c, 0, 42, 127
2, 358520, Note_on_c, 0, 54, 127
2, 358520, Note_on_c, 0, 70, 127
2, 358520, Note_on_c, 0, 78, 127
2, 358576, Control_c, 0, 64, 63
2, 358580, Control_c, 0, 64, 0
2, 358596, Control_c, 0, 64, 63
2, 358608, Control_c, 0, 64, 127
2, 358640, Note_off_c, 0, 42, 0
2, 358672, Note_off_c, 0, 54, 0
2, 358832, Note_on_c, 0, 49, 127
2, 358836, Note_on_c, 0, 58, 127
2, 358840, Note_on_c, 0, 61, 127
2, 358868, Note_off_c, 0, 49, 0
2, 358868, Note_off_c, 0, 58, 0
2, 358884, Note_off_c, 0, 61, 0
2, 359096, Note_on_c, 0, 66, 127
2, 359100, Note_on_c, 0, 58, 127
2, 359100, Note_on_c, 0, 54, 127
2, 359116, Note_off_c, 0, 58, 0
2, 359120, Note_off_c, 0, 66, 0
2, 359140, Note_off_c, 0, 54, 0
2, 359172, Note_off_c, 0, 82, 0
2, 359188, Note_off_c, 0, 70, 0
2, 359336, Note_on_c, 0, 48, 127
2, 359336, Note_on_c, 0, 36, 127
2, 359336, Note_on_c, 0, 82, 127
2, 359340, Note_off_c, 0, 78, 0
2, 359340, Note_on_c, 0, 76, 127
2, 359344, Note_on_c, 0, 70, 127
2, 359344, Control_c, 0, 64, 63
2, 359348, Control_c, 0, 64, 0
2, 359380, Control_c, 0, 64, 63
2, 359384, Control_c, 0, 64, 127
2, 359408, Note_off_c, 0, 36, 0
2, 359440, Note_off_c, 0, 48, 0
2, 359600, Note_on_c, 0, 60, 127
2, 359604, Note_on_c, 0, 58, 127
2, 359604, Note_on_c, 0, 55, 127
2, 359720, Note_off_c, 0, 58, 0
2, 359736, Note_off_c, 0, 60, 0
2, 359892, Note_on_c, 0, 67, 127
2, 359892, Note_on_c, 0, 60, 127
2, 359896, Note_on_c, 0, 58, 127
2, 359940, Note_off_c, 0, 67, 0
2, 359948, Note_off_c, 0, 60, 0
2, 359964, Note_off_c, 0, 58, 0
2, 359972, Note_off_c, 0, 55, 0
2, 360032, Note_off_c, 0, 76, 0
2, 360064, Note_off_c, 0, 70, 0
2, 360116, Note_off_c, 0, 82, 0
2, 360232, Note_on_c, 0, 41, 127
2, 360240, Note_on_c, 0, 53, 127
2, 360248, Note_on_c, 0, 82, 127
2, 360248, Note_on_c, 0, 70, 127
2, 360252, Note_on_c, 0, 75, 127
2, 360292, Control_c, 0, 64, 63
2, 360296, Control_c, 0, 64, 0
2, 360328, Control_c, 0, 64, 63
2, 360336, Control_c, 0, 64, 127
2, 360384, Note_off_c, 0, 41, 0
2, 360416, Note_off_c, 0, 53, 0
2, 360456, Note_off_c, 0, 82, 0
2, 360476, Note_off_c, 0, 70, 0
2, 360576, Note_off_c, 0, 75, 0
2, 360592, Note_on_c, 0, 53, 127
2, 360592, Note_on_c, 0, 81, 127
2, 360596, Note_on_c, 0, 63, 127
2, 360600, Note_on_c, 0, 69, 127
2, 360628, Note_off_c, 0, 53, 0
2, 360628, Note_off_c, 0, 81, 0
2, 360628, Note_off_c, 0, 69, 0
2, 360648, Note_off_c, 0, 63, 0
2, 360848, Note_on_c, 0, 65, 127
2, 360848, Note_on_c, 0, 63, 127
2, 360852, Note_on_c, 0, 57, 127
2, 360856, Note_on_c, 0, 85, 127
2, 360856, Note_on_c, 0, 73, 127
2, 360896, Note_off_c, 0, 73, 0
2, 360908, Note_off_c, 0, 85, 0
2, 360912, Note_off_c, 0, 63, 0
2, 360916, Note_off_c, 0, 57, 0
2, 360932, Note_off_c, 0, 65, 0
2, 361068, Note_on_c, 0, 85, 127
2, 361068, Note_on_c, 0, 77, 127
2, 361068, Note_on_c, 0, 69, 127
2, 361068, Note_on_c, 0, 73, 127
2, 361072, Note_on_c, 0, 65, 127
2, 361076, Note_on_c, 0, 63, 127
2, 361112, Note_off_c, 0, 69, 0
2, 361112, Note_off_c, 0, 65, 0
2, 361128, Note_off_c, 0, 63, 0
2, 361256, Note_off_c, 0, 77, 0
2, 361264, Note_off_c, 0, 85, 0
2, 361268, Note_off_c, 0, 73, 0
2, 361288, Note_on_c, 0, 57, 127
2, 361288, Note_on_c, 0, 65, 127
2, 361292, Note_on_c, 0, 63, 127
2, 361320, Note_off_c, 0, 65, 0
2, 361320, Note_off_c, 0, 63, 0
2, 361328, Note_off_c, 0, 57, 0
2, 361480, Note_on_c, 0, 84, 127
2, 361480, Note_on_c, 0, 63, 127
2, 361480, Note_on_c, 0, 75, 127
2, 361480, Note_on_c, 0, 57, 127
2, 361488, Note_on_c, 0, 72, 127
2, 361488, Note_on_c, 0, 53, 127
2, 361508, Note_off_c, 0, 63, 0
2, 361512, Note_off_c, 0, 75, 0
2, 361512, Note_off_c, 0, 72, 0
2, 361516, Note_off_c, 0, 84, 0
2, 361520, Note_off_c, 0, 57, 0
2, 361532, Note_off_c, 0, 53, 0
2, 361712, Control_c, 0, 64, 63
2, 361716, Note_on_c, 0, 34, 127
2, 361716, Note_on_c, 0, 82, 127
2, 361716, Note_on_c, 0, 46, 127
2, 361720, Note_on_c, 0, 70, 127
2, 361720, Note_on_c, 0, 73, 127
2, 361728, Control_c, 0, 64, 0
2, 361748, Control_c, 0, 64, 63
2, 361756, Control_c, 0, 64, 127
2, 361772, Note_off_c, 0, 34, 0
2, 361796, Note_off_c, 0, 46, 0
2, 361800, Note_off_c, 0, 70, 0
2, 361804, Note_off_c, 0, 73, 0
2, 361820, Note_off_c, 0, 82, 0
2, 361960, Note_on_c, 0, 84, 127
2, 361964, Note_on_c, 0, 75, 127
2, 361968, Note_on_c, 0, 61, 127
2, 361972, Note_on_c, 0, 72, 127
2, 361976, Note_on_c, 0, 53, 127
2, 361976, Note_on_c, 0, 58, 127
2, 361996, Note_off_c, 0, 84, 0
2, 361996, Note_off_c, 0, 72, 0
2, 361996, Note_off_c, 0, 58, 0
2, 362012, Note_off_c, 0, 61, 0
2, 362016, Note_off_c, 0, 75, 0
2, 362020, Note_off_c, 0, 53, 0
2, 362188, Note_on_c, 0, 85, 127
2, 362188, Note_on_c, 0, 61, 127
2, 362188, Note_on_c, 0, 65, 127
2, 362188, Note_on_c, 0, 58, 127
2, 362192, Note_on_c, 0, 73, 127
2, 362192, Note_on_c, 0, 77, 127
2, 362216, Note_off_c, 0, 65, 0
2, 362220, Note_off_c, 0, 61, 0
2, 362236, Note_off_c, 0, 58, 0
2, 362260, Note_off_c, 0, 73, 0
2, 362260, Note_off_c, 0, 77, 0
2, 362284, Note_off_c, 0, 85, 0
2, 362420, Note_on_c, 0, 45, 127
2, 362420, Note_on_c, 0, 33, 127
2, 362424, Control_c, 0, 64, 63
2, 362424, Note_on_c, 0, 85, 127
2, 362424, Note_on_c, 0, 79, 127
2, 362428, Note_on_c, 0, 73, 127
2, 362428, Control_c, 0, 64, 0
2, 362476, Control_c, 0, 64, 63
2, 362480, Control_c, 0, 64, 127
2, 362528, Note_off_c, 0, 33, 0
2, 362544, Note_off_c, 0, 45, 0
2, 362700, Note_on_c, 0, 49, 127
2, 362704, Note_on_c, 0, 61, 127
2, 362708, Note_on_c, 0, 55, 127
2, 362740, Note_off_c, 0, 55, 0
2, 362744, Note_off_c, 0, 49, 0
2, 362756, Note_off_c, 0, 61, 0
2, 362944, Note_on_c, 0, 67, 127
2, 362948, Note_on_c, 0, 61, 127
2, 362948, Note_on_c, 0, 55, 127
2, 362984, Note_off_c, 0, 67, 0
2, 362988, Note_off_c, 0, 61, 0
2, 363008, Note_off_c, 0, 79, 0
2, 363012, Note_off_c, 0, 55, 0
2, 363104, Note_off_c, 0, 73, 0
2, 363176, Note_off_c, 0, 85, 0
2, 363248, Note_on_c, 0, 32, 127
2, 363248, Note_on_c, 0, 44, 127
2, 363248, Note_on_c, 0, 85, 127
2, 363252, Note_on_c, 0, 73, 127
2, 363252, Note_on_c, 0, 80, 127
2, 363256, Note_on_c, 0, 78, 127
2, 363264, Control_c, 0, 64, 63
2, 363264, Control_c, 0, 64, 0
2, 363332, Control_c, 0, 64, 63
2, 363336, Control_c, 0, 64, 127
2, 363392, Note_off_c, 0, 32, 0
2, 363416, Note_off_c, 0, 44, 0
2, 363440, Note_off_c, 0, 85, 0
2, 363456, Note_off_c, 0, 73, 0
2, 363548, Note_off_c, 0, 78, 0
2, 363576, Note_on_c, 0, 84, 127
2, 363584, Note_on_c, 0, 72, 127
2, 363584, Note_on_c, 0, 78, 127
2, 363584, Note_on_c, 0, 63, 127
2, 363588, Note_on_c, 0, 51, 127
2, 363608, Note_off_c, 0, 78, 0
2, 363608, Note_on_c, 0, 56, 127
2, 363612, Note_off_c, 0, 80, 0
2, 363612, Note_off_c, 0, 72, 0
2, 363616, Note_off_c, 0, 84, 0
2, 363624, Note_off_c, 0, 63, 0
2, 363628, Note_off_c, 0, 56, 0
2, 363632, Note_off_c, 0, 51, 0
2, 363832, Note_on_c, 0, 66, 127
2, 363832, Note_on_c, 0, 56, 127
2, 363832, Note_on_c, 0, 85, 127
2, 363836, Note_on_c, 0, 63, 127
2, 363836, Note_on_c, 0, 73, 127
2, 363872, Note_off_c, 0, 73, 0
2, 363888, Note_off_c, 0, 56, 0
2, 363892, Note_off_c, 0, 66, 0
2, 363896, Note_off_c, 0, 63, 0
2, 363900, Note_off_c, 0, 85, 0
2, 364048, Note_on_c, 0, 87, 127
2, 364048, Note_on_c, 0, 72, 127
2, 364048, Note_on_c, 0, 66, 127
2, 364048, Note_on_c, 0, 75, 127
2, 364052, Note_on_c, 0, 63, 127
2, 364052, Note_on_c, 0, 78, 127
2, 364080, Note_off_c, 0, 75, 0
2, 364080, Note_off_c, 0, 78, 0
2, 364084, Note_off_c, 0, 72, 0
2, 364092, Note_off_c, 0, 66, 0
2, 364104, Note_off_c, 0, 87, 0
2, 364108, Note_off_c, 0, 63, 0
2, 364256, Note_on_c, 0, 89, 127
2, 364264, Note_on_c, 0, 66, 127
2, 364264, Note_on_c, 0, 63, 127
2, 364264, Note_on_c, 0, 56, 127
2, 364264, Note_on_c, 0, 77, 127
2, 364268, Note_on_c, 0, 80, 127
2, 364272, Note_on_c, 0, 88, 127
2, 364284, Note_off_c, 0, 80, 0
2, 364288, Note_off_c, 0, 77, 0
2, 364292, Note_off_c, 0, 89, 0
2, 364296, Note_off_c, 0, 66, 0
2, 364296, Note_off_c, 0, 88, 0
2, 364300, Note_off_c, 0, 63, 0
2, 364320, Note_off_c, 0, 56, 0
2, 364532, Note_on_c, 0, 90, 127
2, 364532, Note_on_c, 0, 60, 127
2, 364536, Note_on_c, 0, 56, 127
2, 364536, Note_on_c, 0, 51, 127
2, 364536, Note_on_c, 0, 78, 127
2, 364536, Note_on_c, 0, 87, 127
2, 364564, Note_off_c, 0, 60, 0
2, 364584, Note_off_c, 0, 56, 0
2, 364596, Note_off_c, 0, 51, 0
2, 364808, Control_c, 0, 64, 63
2, 364812, Control_c, 0, 64, 0
2, 364840, Note_on_c, 0, 49, 127
2, 364844, Note_on_c, 0, 37, 127
2, 364876, Control_c, 0, 64, 63
2, 364876, Control_c, 0, 64, 127
2, 364944, Note_off_c, 0, 37, 0
2, 364952, Note_off_c, 0, 87, 0
2, 364960, Note_off_c, 0, 90, 0
2, 364964, Note_off_c, 0, 78, 0
2, 364968, Note_off_c, 0, 49, 0
2, 365112, Note_on_c, 0, 89, 127
2, 365116, Note_on_c, 0, 77, 127
2, 365120, Note_on_c, 0, 85, 127
2, 365120, Note_on_c, 0, 61, 127
2, 365128, Note_on_c, 0, 53, 127
2, 365128, Note_on_c, 0, 56, 127
2, 365152, Note_off_c, 0, 77, 0
2, 365160, Note_off_c, 0, 56, 0
2, 365164, Note_off_c, 0, 85, 0
2, 365164, Note_off_c, 0, 61, 0
2, 365168, Note_off_c, 0, 89, 0
2, 365168, Note_off_c, 0, 53, 0
2, 365348, Note_on_c, 0, 90, 127
2, 365348, Note_on_c, 0, 61, 127
2, 365348, Note_on_c, 0, 65, 127
2, 365352, Note_on_c, 0, 56, 127
2, 365352, Note_on_c, 0, 78, 127
2, 365356, Note_on_c, 0, 87, 127
2, 365372, Note_off_c, 0, 65, 0
2, 365376, Note_off_c, 0, 61, 0
2, 365376, Note_off_c, 0, 78, 0
2, 365380, Note_off_c, 0, 87, 0
2, 365396, Note_off_c, 0, 56, 0
2, 365408, Note_off_c, 0, 90, 0
2, 365568, Control_c, 0, 64, 63
2, 365568, Note_on_c, 0, 89, 127
2, 365572, Note_on_c, 0, 85, 127
2, 365572, Control_c, 0, 64, 0
2, 365572, Note_on_c, 0, 77, 127
2, 365576, Note_on_c, 0, 51, 127
2, 365576, Note_on_c, 0, 39, 127
2, 365592, Control_c, 0, 64, 63
2, 365604, Control_c, 0, 64, 127
2, 365624, Note_off_c, 0, 39, 0
2, 365640, Note_off_c, 0, 77, 0
2, 365648, Note_off_c, 0, 89, 0
2, 365652, Note_off_c, 0, 51, 0
2, 365656, Note_off_c, 0, 85, 0
2, 365808, Note_on_c, 0, 83, 127
2, 365808, Note_on_c, 0, 59, 127
2, 365808, Note_on_c, 0, 87, 127
2, 365808, Note_on_c, 0, 54, 127
2, 365812, Note_on_c, 0, 51, 127
2, 365812, Note_on_c, 0, 75, 127
2, 365840, Note_off_c, 0, 75, 0
2, 365848, Note_off_c, 0, 83, 0
2, 365848, Note_off_c, 0, 54, 0
2, 365856, Note_off_c, 0, 59, 0
2, 365856, Note_off_c, 0, 51, 0
2, 365868, Note_off_c, 0, 87, 0
2, 366008, Note_on_c, 0, 66, 127
2, 366012, Note_on_c, 0, 54, 127
2, 366012, Note_on_c, 0, 89, 127
2, 366012, Note_on_c, 0, 59, 127
2, 366016, Note_on_c, 0, 85, 127
2, 366016, Note_on_c, 0, 77, 127
2, 366032, Note_off_c, 0, 89, 0
2, 366036, Note_off_c, 0, 59, 0
2, 366040, Note_off_c, 0, 66, 0
2, 366040, Note_off_c, 0, 77, 0
2, 366048, Note_off_c, 0, 85, 0
2, 366064, Note_off_c, 0, 54, 0
2, 366276, Note_on_c, 0, 53, 127
2, 366284, Note_on_c, 0, 41, 127
2, 366288, Note_on_c, 0, 83, 127
2, 366288, Note_on_c, 0, 87, 127
2, 366288, Note_on_c, 0, 75, 127
2, 366300, Control_c, 0, 64, 63
2, 366304, Control_c, 0, 64, 0
2, 366344, Control_c, 0, 64, 63
2, 366348, Control_c, 0, 64, 127
2, 366408, Note_off_c, 0, 41, 0
2, 366416, Note_off_c, 0, 87, 0
2, 366428, Note_off_c, 0, 83, 0
2, 366440, Note_off_c, 0, 53, 0
2, 366452, Note_off_c, 0, 75, 0
2, 366540, Note_on_c, 0, 59, 127
2, 366544, Note_on_c, 0, 49, 127
2, 366544, Note_on_c, 0, 85, 127
2, 366548, Note_on_c, 0, 56, 127
2, 366548, Note_on_c, 0, 73, 127
2, 366552, Note_on_c, 0, 82, 127
2, 366576, Note_off_c, 0, 56, 0
2, 366588, Note_off_c, 0, 73, 0
2, 366600, Note_off_c, 0, 49, 0
2, 366600, Note_off_c, 0, 82, 0
2, 366608, Note_off_c, 0, 59, 0
2, 366624, Note_off_c, 0, 85, 0
2, 366748, Note_on_c, 0, 81, 127
2, 366748, Note_on_c, 0, 84, 127
2, 366748, Note_on_c, 0, 72, 127
2, 366752, Note_on_c, 0, 56, 127
2, 366752, Note_on_c, 0, 65, 127
2, 366752, Note_on_c, 0, 59, 127
2, 366784, Note_off_c, 0, 72, 0
2, 366788, Note_off_c, 0, 81, 0
2, 366788, Note_off_c, 0, 84, 0
2, 366788, Note_off_c, 0, 56, 0
2, 366792, Note_off_c, 0, 65, 0
2, 366792, Note_off_c, 0, 59, 0
2, 366944, Note_on_c, 0, 68, 127
2, 366944, Note_on_c, 0, 83, 127
2, 366944, Note_on_c, 0, 80, 127
2, 366944, Note_on_c, 0, 59, 127
2, 366944, Note_on_c, 0, 71, 127
2, 366952, Note_on_c, 0, 61, 127
2, 366968, Control_c, 0, 64, 63
2, 366992, Control_c, 0, 64, 127
2, 367020, Note_off_c, 0, 68, 0
2, 367024, Note_off_c, 0, 59, 0
2, 367040, Note_off_c, 0, 61, 0
2, 367172, Note_off_c, 0, 83, 0
2, 367176, Note_off_c, 0, 71, 0
2, 367176, Note_on_c, 0, 56, 127
2, 367176, Note_on_c, 0, 65, 127
2, 367176, Note_on_c, 0, 61, 127
2, 367184, Note_off_c, 0, 80, 0
2, 367204, Note_off_c, 0, 65, 0
2, 367216, Note_off_c, 0, 61, 0
2, 367232, Note_off_c, 0, 56, 0
2, 367396, Note_on_c, 0, 80, 127
2, 367396, Note_on_c, 0, 49, 127
2, 367396, Note_on_c, 0, 37, 127
2, 367396, Note_on_c, 0, 68, 127
2, 367400, Note_on_c, 0, 77, 127
2, 367428, Note_off_c, 0, 49, 0
2, 367432, Note_off_c, 0, 37, 0
2, 367528, Note_off_c, 0, 68, 0
2, 367548, Note_off_c, 0, 77, 0
2, 367552, Note_off_c, 0, 80, 0
2, 367704, Note_on_c, 0, 82, 127
2, 367704, Note_on_c, 0, 54, 127
2, 367704, Note_on_c, 0, 42, 127
2, 367704, Note_on_c, 0, 70, 127
2, 367708, Note_on_c, 0, 78, 127
2, 367736, Control_c, 0, 64, 63
2, 367744, Control_c, 0, 64, 0
2, 367800, Control_c, 0, 64, 63
2, 367804, Control_c, 0, 64, 127
2, 367820, Note_off_c, 0, 42, 0
2, 367848, Note_off_c, 0, 54, 0
2, 367988, Note_off_c, 0, 70, 0
2, 368004, Note_off_c, 0, 78, 0
2, 368004, Note_on_c, 0, 49, 127
2, 368008, Note_off_c, 0, 82, 0
2, 368008, Note_on_c, 0, 58, 127
2, 368012, Note_on_c, 0, 61, 127
2, 368024, Note_off_c, 0, 49, 0
2, 368040, Note_off_c, 0, 58, 0
2, 368048, Note_off_c, 0, 61, 0
2, 368260, Note_on_c, 0, 70, 127
2, 368264, Note_on_c, 0, 85, 127
2, 368264, Note_on_c, 0, 58, 127
2, 368268, Note_on_c, 0, 73, 127
2, 368268, Note_on_c, 0, 82, 127
2, 368272, Note_on_c, 0, 61, 127
2, 368288, Note_off_c, 0, 70, 0
2, 368292, Note_off_c, 0, 61, 0
2, 368300, Note_off_c, 0, 73, 0
2, 368320, Note_off_c, 0, 58, 0
2, 368328, Note_off_c, 0, 85, 0
2, 368328, Note_off_c, 0, 82, 0
2, 368500, Note_on_c, 0, 39, 127
2, 368504, Note_on_c, 0, 51, 127
2, 368508, Note_on_c, 0, 90, 127
2, 368512, Note_on_c, 0, 78, 127
2, 368512, Control_c, 0, 64, 63
2, 368512, Note_on_c, 0, 82, 127
2, 368520, Control_c, 0, 64, 0
2, 368548, Control_c, 0, 64, 63
2, 368560, Control_c, 0, 64, 127
2, 368572, Note_off_c, 0, 39, 0
2, 368600, Note_off_c, 0, 51, 0
2, 368740, Note_off_c, 0, 90, 0
2, 368748, Note_off_c, 0, 78, 0
2, 368752, Note_on_c, 0, 63, 127
2, 368756, Note_on_c, 0, 54, 127
2, 368760, Note_on_c, 0, 58, 127
2, 368780, Note_off_c, 0, 82, 0
2, 368792, Note_off_c, 0, 63, 0
2, 368800, Note_off_c, 0, 54, 0
2, 368800, Note_off_c, 0, 58, 0
2, 368952, Note_on_c, 0, 89, 127
2, 368952, Note_on_c, 0, 66, 127
2, 368956, Note_on_c, 0, 77, 127
2, 368956, Note_on_c, 0, 85, 127
2, 368960, Note_on_c, 0, 58, 127
2, 368960, Note_on_c, 0, 63, 127
2, 368988, Note_off_c, 0, 66, 0
2, 368988, Note_off_c, 0, 63, 0
2, 369008, Note_off_c, 0, 77, 0
2, 369008, Note_off_c, 0, 58, 0
2, 369016, Note_off_c, 0, 85, 0
2, 369024, Note_off_c, 0, 89, 0
2, 369148, Control_c, 0, 64, 63
2, 369152, Control_c, 0, 64, 0
2, 369164, Note_on_c, 0, 89, 127
2, 369164, Note_on_c, 0, 85, 127
2, 369164, Note_on_c, 0, 44, 127
2, 369164, Note_on_c, 0, 77, 127
2, 369164, Note_on_c, 0, 56, 127
2, 369184, Control_c, 0, 64, 63
2, 369196, Control_c, 0, 64, 127
2, 369232, Note_off_c, 0, 44, 0
2, 369240, Note_off_c, 0, 89, 0
2, 369252, Note_off_c, 0, 56, 0
2, 369256, Note_off_c, 0, 77, 0
2, 369264, Note_off_c, 0, 85, 0
2, 369416, Note_on_c, 0, 59, 127
2, 369416, Note_on_c, 0, 83, 127
2, 369416, Note_on_c, 0, 87, 127
2, 369420, Note_on_c, 0, 56, 127
2, 369424, Note_on_c, 0, 51, 127
2, 369424, Note_on_c, 0, 75, 127
2, 369452, Note_off_c, 0, 56, 0
2, 369460, Note_off_c, 0, 59, 0
2, 369468, Note_off_c, 0, 51, 0
2, 369472, Note_off_c, 0, 75, 0
2, 369476, Note_off_c, 0, 83, 0
2, 369480, Note_off_c, 0, 87, 0
2, 369628, Note_on_c, 0, 66, 127
2, 369632, Note_on_c, 0, 59, 127
2, 369636, Note_on_c, 0, 56, 127
2, 369636, Note_on_c, 0, 85, 127
2, 369640, Note_on_c, 0, 82, 127
2, 369640, Note_on_c, 0, 73, 127
2, 369656, Note_off_c, 0, 59, 0
2, 369664, Note_off_c, 0, 66, 0
2, 369672, Note_off_c, 0, 73, 0
2, 369684, Note_off_c, 0, 56, 0
2, 369700, Note_off_c, 0, 85, 0
2, 369704, Note_off_c, 0, 82, 0
2, 369832, Control_c, 0, 64, 63
2, 369840, Control_c, 0, 64, 0
2, 369848, Note_on_c, 0, 83, 127
2, 369852, Note_on_c, 0, 87, 127
2, 369852, Note_on_c, 0, 75, 127
2, 369852, Note_on_c, 0, 37, 127
2, 369856, Note_on_c, 0, 49, 127
2, 369880, Control_c, 0, 64, 63
2, 369884, Control_c, 0, 64, 127
2, 369908, Note_off_c, 0, 37, 0
2, 369928, Note_off_c, 0, 49, 0
2, 369952, Note_off_c, 0, 87, 0
2, 369964, Note_off_c, 0, 83, 0
2, 369984, Note_off_c, 0, 75, 0
2, 370112, Note_on_c, 0, 59, 127
2, 370112, Note_on_c, 0, 49, 127
2, 370116, Note_on_c, 0, 56, 127
2, 370144, Note_off_c, 0, 56, 0
2, 370156, Note_off_c, 0, 59, 0
2, 370156, Note_off_c, 0, 49, 0
2, 370344, Note_on_c, 0, 65, 127
2, 370344, Note_on_c, 0, 59, 127
2, 370348, Note_on_c, 0, 80, 127
2, 370348, Note_on_c, 0, 68, 127
2, 370352, Note_on_c, 0, 56, 127
2, 370352, Note_on_c, 0, 77, 127
2, 370380, Note_off_c, 0, 65, 0
2, 370384, Note_off_c, 0, 59, 0
2, 370384, Note_off_c, 0, 68, 0
2, 370400, Note_off_c, 0, 56, 0
2, 370404, Note_off_c, 0, 80, 0
2, 370408, Note_off_c, 0, 77, 0
2, 370656, Note_on_c, 0, 52, 127
2, 370656, Note_on_c, 0, 40, 127
2, 370660, Note_on_c, 0, 82, 127
2, 370660, Note_on_c, 0, 78, 127
2, 370664, Note_on_c, 0, 70, 127
2, 370668, Control_c, 0, 64, 63
2, 370676, Control_c, 0, 64, 0
2, 370752, Control_c, 0, 64, 63
2, 370752, Control_c, 0, 64, 127
2, 370804, Note_off_c, 0, 40, 0
2, 370832, Note_off_c, 0, 52, 0
2, 371016, Note_on_c, 0, 61, 127
2, 371016, Note_on_c, 0, 52, 127
2, 371024, Note_on_c, 0, 54, 127
2, 371068, Note_off_c, 0, 52, 0
2, 371076, Note_off_c, 0, 54, 0
2, 371080, Note_off_c, 0, 61, 0
2, 371280, Note_on_c, 0, 66, 127
2, 371284, Note_on_c, 0, 54, 127
2, 371288, Note_on_c, 0, 61, 127
2, 371308, Note_off_c, 0, 61, 0
2, 371320, Note_off_c, 0, 70, 0
2, 371320, Note_off_c, 0, 66, 0
2, 371332, Note_off_c, 0, 82, 0
2, 371336, Note_off_c, 0, 78, 0
2, 371344, Note_off_c, 0, 54, 0
2, 371500, Note_on_c, 0, 52, 127
2, 371500, Note_on_c, 0, 61, 127
2, 371500, Note_on_c, 0, 79, 127
2, 371500, Note_on_c, 0, 85, 127
2, 371500, Note_on_c, 0, 55, 127
2, 371500, Note_on_c, 0, 73, 127
2, 371508, Control_c, 0, 64, 63
2, 371512, Control_c, 0, 64, 0
2, 371544, Control_c, 0, 64, 63
2, 371552, Control_c, 0, 64, 127
2, 371580, Note_off_c, 0, 52, 0
2, 371584, Note_off_c, 0, 55, 0
2, 371592, Note_off_c, 0, 61, 0
2, 371788, Note_on_c, 0, 61, 127
2, 371788, Note_on_c, 0, 67, 127
2, 371792, Note_on_c, 0, 57, 127
2, 371824, Note_off_c, 0, 67, 0
2, 371832, Note_off_c, 0, 61, 0
2, 371848, Note_off_c, 0, 57, 0
2, 372060, Note_on_c, 0, 52, 127
2, 372060, Note_on_c, 0, 57, 127
2, 372060, Note_on_c, 0, 61, 127
2, 372096, Note_off_c, 0, 61, 0
2, 372108, Note_off_c, 0, 57, 0
2, 372128, Note_off_c, 0, 52, 0
2, 372396, Control_c, 0, 64, 63
2, 372400, Control_c, 0, 64, 0
2, 372404, Note_on_c, 0, 39, 127
2, 372404, Note_on_c, 0, 51, 127
2, 372460, Control_c, 0, 64, 63
2, 372464, Control_c, 0, 64, 127
2, 372560, Note_off_c, 0, 39, 0
2, 372576, Note_off_c, 0, 85, 0
2, 372580, Note_off_c, 0, 73, 0
2, 372588, Note_off_c, 0, 51, 0
2, 372596, Note_off_c, 0, 79, 0
2, 372776, Note_on_c, 0, 51, 127
2, 372776, Note_on_c, 0, 84, 127
2, 372776, Note_on_c, 0, 61, 127
2, 372776, Note_on_c, 0, 72, 127
2, 372780, Note_on_c, 0, 58, 127
2, 372832, Note_off_c, 0, 51, 0
2, 372832, Note_off_c, 0, 61, 0
2, 372832, Note_off_c, 0, 58, 0
2, 372848, Note_off_c, 0, 84, 0
2, 372912, Note_off_c, 0, 72, 0
2, 373028, Note_on_c, 0, 67, 127
2, 373032, Note_on_c, 0, 61, 127
2, 373036, Note_on_c, 0, 55, 127
2, 373068, Note_off_c, 0, 67, 0
2, 373068, Note_off_c, 0, 61, 0
2, 373088, Note_off_c, 0, 55, 0
2, 373128, Note_on_c, 0, 83, 127
2, 373132, Note_on_c, 0, 71, 127
2, 373224, Note_off_c, 0, 83, 0
2, 373224, Note_off_c, 0, 71, 0
2, 373280, Note_on_c, 0, 83, 127
2, 373280, Note_on_c, 0, 71, 127
2, 373280, Note_on_c, 0, 79, 127
2, 373280, Note_on_c, 0, 50, 127
2, 373280, Note_on_c, 0, 38, 127
2, 373288, Control_c, 0, 64, 63
2, 373292, Control_c, 0, 64, 0
2, 373328, Control_c, 0, 64, 63
2, 373336, Control_c, 0, 64, 127
2, 373352, Note_off_c, 0, 38, 0
2, 373372, Note_off_c, 0, 71, 0
2, 373376, Note_off_c, 0, 83, 0
2, 373376, Note_off_c, 0, 50, 0
2, 373396, Note_off_c, 0, 79, 0
2, 373556, Note_on_c, 0, 62, 127
2, 373560, Note_on_c, 0, 82, 127
2, 373564, Note_on_c, 0, 50, 127
2, 373564, Note_on_c, 0, 55, 127
2, 373564, Note_on_c, 0, 70, 127
2, 373568, Note_on_c, 0, 74, 127
2, 373608, Note_off_c, 0, 70, 0
2, 373616, Note_off_c, 0, 74, 0
2, 373620, Note_off_c, 0, 62, 0
2, 373632, Note_off_c, 0, 55, 0
2, 373640, Note_off_c, 0, 82, 0
2, 373652, Note_off_c, 0, 50, 0
2, 373816, Note_on_c, 0, 60, 127
2, 373816, Note_on_c, 0, 81, 127
2, 373816, Note_on_c, 0, 69, 127
2, 373816, Note_on_c, 0, 54, 127
2, 373820, Note_on_c, 0, 78, 127
2, 373820, Note_on_c, 0, 50, 127
2, 373852, Note_off_c, 0, 60, 0
2, 373856, Note_off_c, 0, 69, 0
2, 373864, Note_off_c, 0, 54, 0
2, 373872, Note_off_c, 0, 81, 0
2, 373880, Note_off_c, 0, 78, 0
2, 373880, Note_off_c, 0, 50, 0
2, 374104, Note_on_c, 0, 49, 127
2, 374104, Note_on_c, 0, 37, 127
2, 374108, Note_on_c, 0, 82, 127
2, 374108, Note_on_c, 0, 70, 127
2, 374112, Note_on_c, 0, 78, 127
2, 374132, Control_c, 0, 64, 63
2, 374136, Control_c, 0, 64, 0
2, 374184, Control_c, 0, 64, 63
2, 374188, Control_c, 0, 64, 127
2, 374216, Note_off_c, 0, 37, 0
2, 374240, Note_off_c, 0, 49, 0
2, 374276, Note_off_c, 0, 70, 0
2, 374296, Note_off_c, 0, 78, 0
2, 374300, Note_off_c, 0, 82, 0
2, 374420, Note_on_c, 0, 49, 127
2, 374440, Note_on_c, 0, 58, 127
2, 374440, Note_on_c, 0, 61, 127
2, 374440, Note_on_c, 0, 85, 127
2, 374448, Note_on_c, 0, 73, 127
2, 374448, Note_on_c, 0, 82, 127
2, 374468, Note_off_c, 0, 49, 0
2, 374472, Note_off_c, 0, 58, 0
2, 374472, Note_off_c, 0, 73, 0
2, 374480, Note_off_c, 0, 61, 0
2, 374488, Note_off_c, 0, 85, 0
2, 374488, Note_off_c, 0, 82, 0
2, 374796, Note_on_c, 0, 58, 127
2, 374796, Note_on_c, 0, 70, 127
2, 374800, Note_on_c, 0, 90, 127
2, 374804, Note_on_c, 0, 61, 127
2, 374804, Note_on_c, 0, 78, 127
2, 374808, Note_on_c, 0, 82, 127
2, 374824, Note_off_c, 0, 70, 0
2, 374824, Note_off_c, 0, 61, 0
2, 374832, Note_off_c, 0, 58, 0
2, 375120, Note_off_c, 0, 90, 0
2, 375132, Note_off_c, 0, 78, 0
2, 375132, Note_off_c, 0, 82, 0
2, 375304, Note_on_c, 0, 48, 127
2, 375304, Note_on_c, 0, 36, 127
2, 375312, Note_on_c, 0, 90, 127
2, 375312, Note_on_c, 0, 78, 127
2, 375312, Note_on_c, 0, 82, 127
2, 375360, Control_c, 0, 64, 63
2, 375368, Control_c, 0, 64, 0
2, 375464, Control_c, 0, 64, 63
2, 375472, Control_c, 0, 64, 127
2, 375636, Note_off_c, 0, 36, 0
2, 375648, Note_off_c, 0, 48, 0
2, 375900, Note_off_c, 0, 90, 0
2, 375924, Note_off_c, 0, 78, 0
2, 375924, Note_off_c, 0, 82, 0
2, 376060, Control_c, 0, 64, 63
2, 376072, Control_c, 0, 64, 0
2, 376304, Note_on_c, 0, 68, 127
2, 376488, Control_c, 0, 64, 63
2, 376504, Control_c, 0, 64, 127
2, 376644, Note_off_c, 0, 68, 0
2, 376656, Note_on_c, 0, 66, 127
2, 376656, Note_on_c, 0, 70, 127
2, 376660, Note_on_c, 0, 63, 127
2, 376660, Note_on_c, 0, 56, 127
2, 376704, Control_c, 0, 64, 63
2, 376712, Control_c, 0, 64, 0
2, 376740, Control_c, 0, 64, 63
2, 376748, Control_c, 0, 64, 127
2, 376832, Note_on_c, 0, 68, 127
2, 376872, Note_off_c, 0, 70, 0
2, 376968, Note_on_c, 0, 70, 127
2, 376984, Note_off_c, 0, 68, 0
2, 377064, Note_on_c, 0, 68, 127
2, 377072, Note_off_c, 0, 70, 0
2, 377156, Note_off_c, 0, 68, 0
2, 377156, Note_on_c, 0, 70, 127
2, 377224, Note_off_c, 0, 70, 0
2, 377228, Note_on_c, 0, 68, 127
2, 377292, Note_on_c, 0, 70, 127
2, 377296, Note_off_c, 0, 68, 0
2, 377348, Note_off_c, 0, 70, 0
2, 377348, Note_on_c, 0, 68, 127
2, 377408, Note_off_c, 0, 68, 0
2, 377408, Note_on_c, 0, 70, 127
2, 377448, Note_off_c, 0, 70, 0
2, 377460, Note_on_c, 0, 68, 127
2, 377516, Note_off_c, 0, 68, 0
2, 377516, Note_on_c, 0, 70, 127
2, 377540, Note_off_c, 0, 70, 0
2, 377552, Note_on_c, 0, 68, 127
2, 377576, Note_on_c, 0, 70, 127
2, 377596, Note_off_c, 0, 68, 0
2, 377628, Note_on_c, 0, 68, 127
2, 377640, Note_off_c, 0, 70, 0
2, 377648, Note_off_c, 0, 66, 0
2, 377656, Note_off_c, 0, 63, 0
2, 377680, Note_on_c, 0, 70, 127
2, 377692, Note_off_c, 0, 56, 0
2, 377696, Note_off_c, 0, 68, 0
2, 377740, Note_on_c, 0, 68, 127
2, 377748, Note_off_c, 0, 70, 0
2, 377784, Note_on_c, 0, 70, 127
2, 377792, Note_off_c, 0, 68, 0
2, 377844, Note_on_c, 0, 68, 127
2, 377888, Note_off_c, 0, 70, 0
2, 377920, Note_on_c, 0, 67, 127
2, 377936, Note_off_c, 0, 68, 0
2, 377976, Note_off_c, 0, 67, 0
2, 378044, Note_on_c, 0, 32, 127
2, 378108, Note_on_c, 0, 66, 127
2, 378108, Note_on_c, 0, 68, 127
2, 378112, Note_on_c, 0, 44, 127
2, 378112, Note_on_c, 0, 60, 127
2, 378156, Control_c, 0, 64, 63
2, 378160, Control_c, 0, 64, 0
2, 378220, Control_c, 0, 64, 63
2, 378228, Control_c, 0, 64, 127
2, 378288, Note_off_c, 0, 32, 0
2, 378312, Note_off_c, 0, 44, 0
2, 378312, Note_off_c, 0, 60, 0
2, 378324, Note_off_c, 0, 66, 0
2, 378348, Note_off_c, 0, 68, 0
2, 378560, Note_on_c, 0, 72, 127
2, 378560, Note_on_c, 0, 77, 127
2, 378560, Note_on_c, 0, 66, 127
2, 378564, Note_on_c, 0, 65, 127
2, 378568, Note_on_c, 0, 60, 127
2, 378568, Note_on_c, 0, 54, 127
2, 378572, Note_on_c, 0, 56, 127
2, 378608, Note_off_c, 0, 66, 0
2, 378632, Note_off_c, 0, 72, 0
2, 378632, Note_off_c, 0, 77, 0
2, 378784, Note_off_c, 0, 54, 0
2, 378792, Note_off_c, 0, 65, 0
2, 378800, Note_off_c, 0, 56, 0
2, 378804, Note_off_c, 0, 60, 0
2, 378916, Note_on_c, 0, 63, 127
2, 378920, Note_on_c, 0, 78, 127
2, 378920, Note_on_c, 0, 72, 127
2, 378920, Note_on_c, 0, 60, 127
2, 378920, Note_on_c, 0, 66, 127
2, 378928, Note_on_c, 0, 54, 127
2, 378932, Note_on_c, 0, 56, 127
2, 378936, Control_c, 0, 64, 63
2, 378944, Control_c, 0, 64, 0
2, 378984, Control_c, 0, 64, 63
2, 378996, Control_c, 0, 64, 127
2, 379052, Note_off_c, 0, 63, 0
2, 379056, Note_off_c, 0, 60, 0
2, 379064, Note_off_c, 0, 66, 0
2, 379072, Note_off_c, 0, 72, 0
2, 379080, Note_off_c, 0, 78, 0
2, 379080, Note_off_c, 0, 56, 0
2, 379100, Note_off_c, 0, 54, 0
2, 379320, Note_on_c, 0, 71, 127
2, 379320, Note_on_c, 0, 80, 127
2, 379320, Note_on_c, 0, 68, 127
2, 379324, Note_on_c, 0, 78, 127
2, 379328, Note_on_c, 0, 37, 127
2, 379328, Note_on_c, 0, 75, 127
2, 379328, Note_on_c, 0, 49, 127
2, 379376, Control_c, 0, 64, 63
2, 379380, Control_c, 0, 64, 0
2, 379452, Control_c, 0, 64, 63
2, 379456, Control_c, 0, 64, 127
2, 379544, Note_off_c, 0, 37, 0
2, 379568, Note_off_c, 0, 49, 0
2, 379576, Note_off_c, 0, 68, 0
2, 379584, Note_off_c, 0, 71, 0
2, 379600, Note_off_c, 0, 80, 0
2, 379604, Note_off_c, 0, 75, 0
2, 379628, Note_off_c, 0, 78, 0
2, 379844, Note_on_c, 0, 87, 127
2, 379848, Note_on_c, 0, 70, 127
2, 379848, Note_on_c, 0, 78, 127
2, 379848, Note_on_c, 0, 75, 127
2, 379852, Note_on_c, 0, 59, 127
2, 379856, Note_on_c, 0, 66, 127
2, 379856, Note_on_c, 0, 63, 127
2, 379884, Note_off_c, 0, 66, 0
2, 379892, Note_off_c, 0, 70, 0
2, 379892, Note_off_c, 0, 59, 0
2, 379896, Note_off_c, 0, 63, 0
2, 380036, Note_off_c, 0, 87, 0
2, 380084, Note_off_c, 0, 78, 0
2, 380112, Note_off_c, 0, 75, 0
2, 380540, Note_on_c, 0, 73, 127
2, 380540, Note_on_c, 0, 77, 127
2, 380544, Note_on_c, 0, 71, 127
2, 380544, Note_on_c, 0, 61, 127
2, 380544, Note_on_c, 0, 65, 127
2, 380544, Note_on_c, 0, 49, 127
2, 380548, Note_on_c, 0, 56, 127
2, 380688, Control_c, 0, 64, 63
2, 380704, Control_c, 0, 64, 0
2, 380828, Control_c, 0, 64, 63
2, 380832, Control_c, 0, 64, 127
2, 380912, Note_off_c, 0, 61, 0
2, 380940, Note_off_c, 0, 56, 0
2, 380980, Note_off_c, 0, 77, 0
2, 380992, Note_off_c, 0, 49, 0
2, 380992, Note_off_c, 0, 65, 0
2, 381024, Note_off_c, 0, 71, 0
2, 381108, Note_off_c, 0, 73, 0
2, 381384, Note_on_c, 0, 78, 127
2, 381392, Note_on_c, 0, 42, 127
2, 381392, Note_on_c, 0, 66, 127
2, 381392, Note_on_c, 0, 70, 127
2, 381400, Note_on_c, 0, 30, 127
2, 381500, Control_c, 0, 64, 63
2, 381512, Control_c, 0, 64, 0
2, 381608, Control_c, 0, 64, 63
2, 381612, Control_c, 0, 64, 127
2, 381740, Note_off_c, 0, 30, 0
2, 381768, Note_off_c, 0, 42, 0
2, 381968, Note_on_c, 0, 49, 127
2, 382352, Note_on_c, 0, 61, 127
2, 382364, Note_on_c, 0, 54, 127
2, 382412, Note_off_c, 0, 66, 0
2, 382416, Note_off_c, 0, 78, 0
2, 382420, Note_off_c, 0, 70, 0
2, 382472, Note_off_c, 0, 54, 0
2, 382488, Note_off_c, 0, 61, 0
2, 382512, Note_off_c, 0, 49, 0
2, 382696, Note_on_c, 0, 78, 127
2, 382700, Note_on_c, 0, 61, 127
2, 382704, Note_on_c, 0, 66, 127
2, 382708, Note_on_c, 0, 70, 127
2, 382708, Note_on_c, 0, 54, 127
2, 382800, Control_c, 0, 64, 63
2, 382816, Control_c, 0, 64, 127
2, 382992, Note_off_c, 0, 70, 0
2, 383044, Note_on_c, 0, 71, 127
2, 383048, Note_on_c, 0, 49, 127
2, 383056, Note_off_c, 0, 61, 0
2, 383080, Note_off_c, 0, 54, 0
2, 383120, Note_off_c, 0, 49, 0
2, 383196, Note_off_c, 0, 71, 0
2, 383320, Note_on_c, 0, 72, 127
2, 383320, Note_on_c, 0, 42, 127
2, 383380, Note_off_c, 0, 42, 0
2, 383452, Note_off_c, 0, 78, 0
2, 383500, Note_off_c, 0, 66, 0
2, 383608, Note_off_c, 0, 72, 0
2, 383704, Note_on_c, 0, 78, 127
2, 383708, Note_on_c, 0, 68, 127
2, 383708, Note_on_c, 0, 73, 127
2, 383712, Note_on_c, 0, 42, 127
2, 383716, Note_on_c, 0, 30, 127
2, 383776, Control_c, 0, 64, 63
2, 383788, Control_c, 0, 64, 0
2, 383848, Control_c, 0, 64, 63
2, 383856, Control_c, 0, 64, 127
2, 383908, Note_off_c, 0, 30, 0
2, 383940, Note_off_c, 0, 42, 0
2, 383984, Note_off_c, 0, 78, 0
2, 383992, Note_off_c, 0, 73, 0
2, 384008, Note_off_c, 0, 68, 0
2, 384160, Note_on_c, 0, 77, 127
2, 384160, Note_on_c, 0, 49, 127
2, 384168, Note_on_c, 0, 73, 127
2, 384236, Note_off_c, 0, 73, 0
2, 384424, Note_off_c, 0, 77, 0
2, 384504, Note_on_c, 0, 61, 127
2, 384512, Note_on_c, 0, 66, 127
2, 384512, Note_on_c, 0, 56, 127
2, 384584, Note_off_c, 0, 61, 0
2, 384596, Note_off_c, 0, 56, 0
2, 384620, Note_on_c, 0, 73, 127
2, 384656, Note_off_c, 0, 66, 0
2, 384696, Note_off_c, 0, 73, 0
2, 384776, Note_on_c, 0, 61, 127
2, 384776, Note_on_c, 0, 66, 127
2, 384776, Note_on_c, 0, 56, 127
2, 384784, Note_on_c, 0, 73, 127
2, 384784, Note_on_c, 0, 68, 127
2, 384800, Control_c, 0, 64, 63
2, 384812, Control_c, 0, 64, 0
2, 384836, Control_c, 0, 64, 63
2, 384860, Control_c, 0, 64, 127
2, 384980, Note_off_c, 0, 49, 0
2, 385000, Note_off_c, 0, 66, 0
2, 385032, Note_off_c, 0, 61, 0
2, 385088, Note_on_c, 0, 65, 127
2, 385088, Note_on_c, 0, 49, 127
2, 385100, Note_off_c, 0, 56, 0
2, 385152, Note_off_c, 0, 49, 0
2, 385208, Note_off_c, 0, 65, 0
2, 385236, Note_off_c, 0, 73, 0
2, 385256, Note_off_c, 0, 68, 0
2, 385384, Note_on_c, 0, 42, 127
2, 385436, Note_off_c, 0, 42, 0
2, 385536, Note_on_c, 0, 61, 127
2, 385584, Note_off_c, 0, 61, 0
2, 385708, Note_on_c, 0, 30, 127
2, 385780, Note_on_c, 0, 76, 127
2, 385780, Note_on_c, 0, 68, 127
2, 385784, Note_on_c, 0, 64, 127
2, 385788, Note_on_c, 0, 42, 127
2, 385848, Control_c, 0, 64, 63
2, 385852, Control_c, 0, 64, 0
2, 385900, Control_c, 0, 64, 63
2, 385916, Control_c, 0, 64, 127
2, 385968, Note_off_c, 0, 30, 0
2, 386000, Note_off_c, 0, 42, 0
2, 386188, Note_on_c, 0, 49, 127
2, 386192, Note_on_c, 0, 70, 127
2, 386240, Note_off_c, 0, 64, 0
2, 386260, Note_off_c, 0, 68, 0
2, 386288, Note_off_c, 0, 70, 0
2, 386472, Note_on_c, 0, 71, 127
2, 386480, Note_on_c, 0, 64, 127
2, 386488, Note_on_c, 0, 61, 127
2, 386496, Note_on_c, 0, 56, 127
2, 386520, Note_off_c, 0, 49, 0
2, 386544, Note_off_c, 0, 61, 0
2, 386544, Note_off_c, 0, 56, 0
2, 386552, Note_off_c, 0, 76, 0
2, 386552, Note_off_c, 0, 71, 0
2, 386552, Note_off_c, 0, 64, 0
2, 386752, Note_on_c, 0, 61, 127
2, 386756, Note_on_c, 0, 76, 127
2, 386760, Note_on_c, 0, 70, 127
2, 386764, Note_on_c, 0, 54, 127
2, 386764, Note_on_c, 0, 64, 127
2, 386808, Control_c, 0, 64, 63
2, 386816, Control_c, 0, 64, 0
2, 386852, Control_c, 0, 64, 63
2, 386872, Control_c, 0, 64, 127
2, 387004, Note_off_c, 0, 61, 0
2, 387080, Note_on_c, 0, 75, 127
2, 387080, Note_on_c, 0, 49, 127
2, 387092, Note_off_c, 0, 64, 0
2, 387104, Note_off_c, 0, 54, 0
2, 387136, Note_off_c, 0, 70, 0
2, 387144, Note_off_c, 0, 49, 0
2, 387184, Note_off_c, 0, 75, 0
2, 387384, Note_on_c, 0, 42, 127
2, 387384, Note_on_c, 0, 68, 127
2, 387392, Note_on_c, 0, 73, 127
2, 387432, Note_off_c, 0, 42, 0
2, 387456, Note_off_c, 0, 68, 0
2, 387488, Note_off_c, 0, 73, 0
2, 387528, Note_off_c, 0, 76, 0
2, 387760, Note_on_c, 0, 30, 127
2, 387772, Note_on_c, 0, 76, 127
2, 387776, Note_on_c, 0, 42, 127
2, 387776, Note_on_c, 0, 73, 127
2, 387788, Note_on_c, 0, 66, 127
2, 387824, Control_c, 0, 64, 63
2, 387828, Control_c, 0, 64, 0
2, 387860, Control_c, 0, 64, 63
2, 387872, Control_c, 0, 64, 127
2, 387928, Note_off_c, 0, 30, 0
2, 387956, Note_off_c, 0, 42, 0
2, 388064, Note_off_c, 0, 76, 0
2, 388120, Note_off_c, 0, 66, 0
2, 388124, Note_off_c, 0, 73, 0
2, 388184, Note_on_c, 0, 75, 127
2, 388192, Note_on_c, 0, 71, 127
2, 388192, Note_on_c, 0, 51, 127
2, 388244, Note_off_c, 0, 71, 0
2, 388436, Note_off_c, 0, 75, 0
2, 388480, Note_on_c, 0, 64, 127
2, 388484, Note_on_c, 0, 59, 127
2, 388484, Note_on_c, 0, 54, 127
2, 388552, Note_off_c, 0, 64, 0
2, 388556, Note_off_c, 0, 59, 0
2, 388564, Note_off_c, 0, 54, 0
2, 388592, Note_on_c, 0, 71, 127
2, 388660, Note_off_c, 0, 71, 0
2, 388728, Note_on_c, 0, 71, 127
2, 388732, Note_on_c, 0, 54, 127
2, 388732, Note_on_c, 0, 59, 127
2, 388744, Note_on_c, 0, 64, 127
2, 388752, Note_on_c, 0, 66, 127
2, 388792, Control_c, 0, 64, 63
2, 388840, Control_c, 0, 64, 127
2, 388872, Note_off_c, 0, 51, 0
2, 388888, Note_off_c, 0, 64, 0
2, 389024, Note_off_c, 0, 59, 0
2, 389044, Note_on_c, 0, 63, 127
2, 389048, Note_on_c, 0, 51, 127
2, 389064, Note_off_c, 0, 54, 0
2, 389108, Note_off_c, 0, 51, 0
2, 389184, Note_off_c, 0, 63, 0
2, 389292, Note_off_c, 0, 71, 0
2, 389340, Note_off_c, 0, 66, 0
2, 389368, Note_on_c, 0, 42, 127
2, 389412, Note_off_c, 0, 42, 0
2, 389512, Note_on_c, 0, 59, 127
2, 389640, Note_off_c, 0, 59, 0
2, 389656, Control_c, 0, 64, 63
2, 389656, Note_on_c, 0, 30, 127
2, 389664, Control_c, 0, 64, 0
2, 389680, Note_on_c, 0, 59, 127
2, 389680, Control_c, 0, 64, 63
2, 389696, Control_c, 0, 64, 127
2, 389712, Note_on_c, 0, 67, 127
2, 389752, Note_on_c, 0, 42, 127
2, 389760, Note_off_c, 0, 59, 0
2, 389796, Note_off_c, 0, 67, 0
2, 389820, Note_on_c, 0, 74, 127
2, 389840, Note_off_c, 0, 30, 0
2, 389872, Note_off_c, 0, 42, 0
2, 389872, Note_off_c, 0, 74, 0
2, 390188, Note_on_c, 0, 50, 127
2, 390192, Note_on_c, 0, 61, 127
2, 390260, Note_off_c, 0, 61, 0
2, 390480, Note_on_c, 0, 62, 127
2, 390484, Note_on_c, 0, 59, 127
2, 390488, Note_on_c, 0, 55, 127
2, 390556, Note_off_c, 0, 62, 0
2, 390572, Note_off_c, 0, 59, 0
2, 390580, Note_off_c, 0, 55, 0
2, 390736, Note_on_c, 0, 74, 127
2, 390740, Note_on_c, 0, 59, 127
2, 390744, Note_on_c, 0, 55, 127
2, 390744, Note_on_c, 0, 71, 127
2, 390744, Note_on_c, 0, 62, 127
2, 390764, Note_off_c, 0, 50, 0
2, 390788, Control_c, 0, 64, 63
2, 390792, Control_c, 0, 64, 0
2, 390824, Control_c, 0, 64, 63
2, 390840, Control_c, 0, 64, 127
2, 391048, Note_off_c, 0, 59, 0
2, 391056, Note_on_c, 0, 67, 127
2, 391060, Note_on_c, 0, 50, 127
2, 391068, Note_off_c, 0, 74, 0
2, 391072, Note_off_c, 0, 55, 0
2, 391088, Note_off_c, 0, 62, 0
2, 391100, Note_off_c, 0, 50, 0
2, 391108, Note_off_c, 0, 71, 0
2, 391128, Note_off_c, 0, 67, 0
2, 391312, Note_on_c, 0, 59, 127
2, 391324, Note_on_c, 0, 42, 127
2, 391368, Note_off_c, 0, 42, 0
2, 391376, Note_off_c, 0, 59, 0
2, 391620, Note_on_c, 0, 30, 127
2, 391624, Note_on_c, 0, 74, 127
2, 391624, Note_on_c, 0, 71, 127
2, 391628, Note_on_c, 0, 62, 127
2, 391664, Control_c, 0, 64, 63
2, 391672, Control_c, 0, 64, 0
2, 391704, Control_c, 0, 64, 63
2, 391720, Control_c, 0, 64, 127
2, 391784, Note_off_c, 0, 74, 0
2, 391792, Note_off_c, 0, 30, 0
2, 391816, Note_off_c, 0, 62, 0
2, 391816, Note_off_c, 0, 71, 0
2, 391980, Note_on_c, 0, 70, 127
2, 391980, Note_on_c, 0, 50, 127
2, 391984, Note_on_c, 0, 61, 127
2, 392072, Note_off_c, 0, 61, 0
2, 392132, Note_off_c, 0, 70, 0
2, 392288, Note_on_c, 0, 71, 127
2, 392288, Note_on_c, 0, 62, 127
2, 392296, Note_on_c, 0, 55, 127
2, 392348, Note_off_c, 0, 71, 0
2, 392380, Note_off_c, 0, 62, 0
2, 392388, Note_off_c, 0, 55, 0
2, 392424, Note_off_c, 0, 50, 0
2, 392552, Note_on_c, 0, 62, 127
2, 392556, Note_on_c, 0, 67, 127
2, 392560, Note_on_c, 0, 55, 127
2, 392564, Note_on_c, 0, 59, 127
2, 392624, Note_off_c, 0, 59, 0
2, 392704, Note_off_c, 0, 62, 0
2, 392840, Note_off_c, 0, 67, 0
2, 392884, Note_on_c, 0, 66, 127
2, 392892, Note_on_c, 0, 50, 127
2, 392896, Note_on_c, 0, 57, 127
2, 392928, Note_off_c, 0, 55, 0
2, 392944, Control_c, 0, 64, 63
2, 392952, Control_c, 0, 64, 127
2, 393084, Note_off_c, 0, 57, 0
2, 393104, Note_off_c, 0, 66, 0
2, 393228, Note_on_c, 0, 65, 127
2, 393232, Note_on_c, 0, 59, 127
2, 393240, Note_on_c, 0, 55, 127
2, 393348, Note_off_c, 0, 59, 0
2, 393392, Note_off_c, 0, 50, 0
2, 393412, Note_off_c, 0, 55, 0
2, 393420, Note_off_c, 0, 65, 0
2, 393672, Note_on_c, 0, 30, 127
2, 393688, Note_on_c, 0, 66, 127
2, 393692, Control_c, 0, 64, 63
2, 393692, Note_on_c, 0, 54, 127
2, 393728, Control_c, 0, 64, 127
2, 393816, Note_off_c, 0, 54, 0
2, 393848, Note_off_c, 0, 66, 0
2, 393868, Note_off_c, 0, 30, 0
2, 393920, Note_on_c, 0, 68, 127
2, 394020, Note_off_c, 0, 68, 0
2, 394024, Note_on_c, 0, 66, 127
2, 394112, Note_on_c, 0, 68, 127
2, 394116, Note_off_c, 0, 66, 0
2, 394128, Note_on_c, 0, 49, 127
2, 394192, Note_off_c, 0, 68, 0
2, 394192, Note_on_c, 0, 66, 127
2, 394264, Note_on_c, 0, 68, 127
2, 394272, Note_off_c, 0, 66, 0
2, 394332, Note_on_c, 0, 66, 127
2, 394340, Note_off_c, 0, 68, 0
2, 394392, Note_on_c, 0, 68, 127
2, 394408, Note_off_c, 0, 66, 0
2, 394440, Note_on_c, 0, 58, 127
2, 394476, Note_off_c, 0, 68, 0
2, 394480, Note_on_c, 0, 66, 127
2, 394508, Note_on_c, 0, 68, 127
2, 394520, Note_off_c, 0, 66, 0
2, 394564, Note_on_c, 0, 66, 127
2, 394568, Note_off_c, 0, 58, 0
2, 394568, Note_off_c, 0, 68, 0
2, 394576, Note_off_c, 0, 49, 0
2, 394624, Note_off_c, 0, 66, 0
2, 394624, Note_on_c, 0, 65, 127
2, 394692, Note_on_c, 0, 66, 127
2, 394712, Note_off_c, 0, 65, 0
2, 394768, Note_on_c, 0, 50, 127
2, 394800, Note_on_c, 0, 67, 127
2, 394804, Note_off_c, 0, 66, 0
2, 394812, Note_on_c, 0, 60, 127
2, 394836, Control_c, 0, 64, 63
2, 394848, Control_c, 0, 64, 0
2, 394880, Control_c, 0, 64, 63
2, 394904, Control_c, 0, 64, 127
2, 394936, Note_on_c, 0, 68, 127
2, 394968, Note_off_c, 0, 67, 0
2, 395016, Note_on_c, 0, 70, 127
2, 395028, Note_off_c, 0, 68, 0
2, 395088, Note_off_c, 0, 70, 0
2, 395096, Note_on_c, 0, 68, 127
2, 395136, Note_on_c, 0, 56, 127
2, 395144, Note_off_c, 0, 60, 0
2, 395168, Note_on_c, 0, 70, 127
2, 395172, Note_off_c, 0, 68, 0
2, 395192, Note_off_c, 0, 56, 0
2, 395196, Note_off_c, 0, 50, 0
2, 395240, Note_off_c, 0, 70, 0
2, 395248, Note_on_c, 0, 68, 127
2, 395312, Note_on_c, 0, 70, 127
2, 395316, Note_off_c, 0, 68, 0
2, 395368, Note_off_c, 0, 70, 0
2, 395376, Note_on_c, 0, 68, 127
2, 395436, Note_on_c, 0, 70, 127
2, 395440, Note_off_c, 0, 68, 0
2, 395468, Note_on_c, 0, 42, 127
2, 395488, Note_on_c, 0, 68, 127
2, 395492, Note_off_c, 0, 70, 0
2, 395528, Note_off_c, 0, 42, 0
2, 395532, Note_on_c, 0, 70, 127
2, 395540, Note_off_c, 0, 68, 0
2, 395592, Note_off_c, 0, 70, 0
2, 395596, Note_on_c, 0, 68, 127
2, 395648, Note_on_c, 0, 67, 127
2, 395652, Note_off_c, 0, 68, 0
2, 395668, Note_on_c, 0, 69, 127
2, 395696, Note_off_c, 0, 69, 0
2, 395712, Note_on_c, 0, 68, 127
2, 395728, Note_off_c, 0, 67, 0
2, 395792, Note_on_c, 0, 50, 127
2, 395796, Note_on_c, 0, 59, 127
2, 395800, Note_on_c, 0, 69, 127
2, 395812, Control_c, 0, 64, 63
2, 395824, Control_c, 0, 64, 0
2, 395832, Note_off_c, 0, 68, 0
2, 395840, Control_c, 0, 64, 63
2, 395864, Control_c, 0, 64, 127
2, 395908, Note_on_c, 0, 71, 127
2, 395920, Note_off_c, 0, 69, 0
2, 395988, Note_off_c, 0, 71, 0
2, 395992, Note_on_c, 0, 69, 127
2, 396044, Note_on_c, 0, 71, 127
2, 396060, Note_off_c, 0, 69, 0
2, 396060, Note_on_c, 0, 54, 127
2, 396072, Note_off_c, 0, 50, 0
2, 396100, Note_off_c, 0, 59, 0
2, 396104, Note_off_c, 0, 71, 0
2, 396108, Note_on_c, 0, 69, 127
2, 396160, Note_on_c, 0, 71, 127
2, 396176, Note_off_c, 0, 69, 0
2, 396188, Note_off_c, 0, 54, 0
2, 396216, Note_off_c, 0, 71, 0
2, 396220, Note_on_c, 0, 69, 127
2, 396272, Note_on_c, 0, 71, 127
2, 396288, Note_off_c, 0, 69, 0
2, 396340, Note_off_c, 0, 71, 0
2, 396340, Note_on_c, 0, 69, 127
2, 396384, Note_on_c, 0, 59, 127
2, 396392, Note_on_c, 0, 71, 127
2, 396392, Note_on_c, 0, 50, 127
2, 396408, Note_off_c, 0, 69, 0
2, 396452, Note_off_c, 0, 50, 0
2, 396460, Note_off_c, 0, 59, 0
2, 396464, Note_on_c, 0, 69, 127
2, 396468, Note_off_c, 0, 71, 0
2, 396536, Note_on_c, 0, 68, 127
2, 396544, Note_off_c, 0, 69, 0
2, 396608, Note_off_c, 0, 68, 0
2, 396612, Note_on_c, 0, 69, 127
2, 396712, Note_on_c, 0, 49, 127
2, 396716, Note_off_c, 0, 69, 0
2, 396744, Note_on_c, 0, 70, 127
2, 396744, Note_on_c, 0, 61, 127
2, 396756, Note_on_c, 0, 65, 127
2, 396768, Control_c, 0, 64, 63
2, 396772, Control_c, 0, 64, 0
2, 396800, Control_c, 0, 64, 63
2, 396816, Control_c, 0, 64, 127
2, 396904, Note_on_c, 0, 71, 127
2, 396912, Note_off_c, 0, 49, 0
2, 396936, Note_off_c, 0, 70, 0
2, 397004, Note_off_c, 0, 71, 0
2, 397024, Note_on_c, 0, 70, 127
2, 397040, Note_off_c, 0, 65, 0
2, 397072, Note_on_c, 0, 58, 127
2, 397100, Note_on_c, 0, 53, 127
2, 397104, Note_on_c, 0, 71, 127
2, 397112, Note_off_c, 0, 61, 0
2, 397128, Note_off_c, 0, 70, 0
2, 397176, Note_on_c, 0, 70, 127
2, 397180, Note_off_c, 0, 71, 0
2, 397236, Note_on_c, 0, 71, 127
2, 397256, Note_off_c, 0, 70, 0
2, 397280, Note_off_c, 0, 58, 0
2, 397288, Note_off_c, 0, 53, 0
2, 397300, Note_on_c, 0, 70, 127
2, 397304, Note_off_c, 0, 71, 0
2, 397356, Note_on_c, 0, 71, 127
2, 397364, Note_off_c, 0, 70, 0
2, 397436, Note_on_c, 0, 70, 127
2, 397440, Note_off_c, 0, 71, 0
2, 397488, Note_on_c, 0, 71, 127
2, 397504, Note_off_c, 0, 70, 0
2, 397544, Note_on_c, 0, 61, 127
2, 397544, Note_on_c, 0, 49, 127
2, 397572, Note_on_c, 0, 70, 127
2, 397588, Note_off_c, 0, 71, 0
2, 397592, Note_off_c, 0, 61, 0
2, 397668, Note_on_c, 0, 69, 127
2, 397680, Note_off_c, 0, 49, 0
2, 397680, Note_off_c, 0, 70, 0
2, 397792, Note_on_c, 0, 70, 127
2, 397804, Note_off_c, 0, 69, 0
2, 397864, Note_off_c, 0, 70, 0
2, 397956, Note_on_c, 0, 30, 127
2, 398040, Control_c, 0, 64, 63
2, 398044, Control_c, 0, 64, 0
2, 398044, Note_on_c, 0, 63, 127
2, 398068, Note_on_c, 0, 68, 127
2, 398080, Control_c, 0, 64, 63
2, 398092, Control_c, 0, 64, 127
2, 398148, Note_on_c, 0, 72, 127
2, 398160, Note_on_c, 0, 42, 127
2, 398176, Note_off_c, 0, 63, 0
2, 398200, Note_off_c, 0, 68, 0
2, 398252, Note_off_c, 0, 72, 0
2, 398264, Note_off_c, 0, 30, 0
2, 398300, Note_off_c, 0, 42, 0
2, 398324, Note_on_c, 0, 80, 127
2, 398756, Note_on_c, 0, 51, 127
2, 398796, Note_on_c, 0, 75, 127
2, 399100, Note_on_c, 0, 68, 127
2, 399108, Note_on_c, 0, 63, 127
2, 399108, Note_on_c, 0, 56, 127
2, 399124, Note_on_c, 0, 60, 127
2, 399172, Note_off_c, 0, 75, 0
2, 399196, Note_off_c, 0, 60, 0
2, 399204, Note_off_c, 0, 63, 0
2, 399208, Note_off_c, 0, 80, 0
2, 399208, Note_off_c, 0, 56, 0
2, 399220, Note_off_c, 0, 68, 0
2, 399384, Note_on_c, 0, 63, 127
2, 399392, Note_on_c, 0, 80, 127
2, 399392, Note_on_c, 0, 56, 127
2, 399392, Note_on_c, 0, 60, 127
2, 399400, Note_on_c, 0, 68, 127
2, 399400, Note_on_c, 0, 75, 127
2, 399400, Note_on_c, 0, 72, 127
2, 399428, Control_c, 0, 64, 63
2, 399436, Control_c, 0, 64, 0
2, 399460, Note_off_c, 0, 51, 0
2, 399472, Control_c, 0, 64, 63
2, 399492, Control_c, 0, 64, 127
2, 399560, Note_off_c, 0, 72, 0
2, 399624, Note_off_c, 0, 63, 0
2, 399676, Note_off_c, 0, 80, 0
2, 399692, Note_off_c, 0, 75, 0
2, 399720, Note_off_c, 0, 60, 0
2, 399728, Note_on_c, 0, 51, 127
2, 399728, Note_on_c, 0, 76, 127
2, 399732, Note_on_c, 0, 73, 127
2, 399752, Note_off_c, 0, 56, 0
2, 399768, Note_off_c, 0, 68, 0
2, 399788, Note_off_c, 0, 51, 0
2, 399820, Note_off_c, 0, 73, 0
2, 399824, Note_off_c, 0, 76, 0
2, 400000, Note_on_c, 0, 78, 127
2, 400004, Note_on_c, 0, 66, 127
2, 400008, Note_on_c, 0, 42, 127
2, 400008, Note_on_c, 0, 75, 127
2, 400040, Note_off_c, 0, 42, 0
2, 400044, Note_off_c, 0, 66, 0
2, 400060, Note_off_c, 0, 78, 0
2, 400068, Note_off_c, 0, 75, 0
2, 400360, Note_on_c, 0, 81, 127
2, 400368, Note_on_c, 0, 75, 127
2, 400368, Note_on_c, 0, 69, 127
2, 400372, Note_on_c, 0, 72, 127
2, 400376, Note_on_c, 0, 30, 127
2, 400376, Note_on_c, 0, 42, 127
2, 400388, Control_c, 0, 64, 63
2, 400392, Control_c, 0, 64, 0
2, 400444, Control_c, 0, 64, 63
2, 400456, Control_c, 0, 64, 127
2, 400540, Note_off_c, 0, 30, 0
2, 400572, Note_off_c, 0, 81, 0
2, 400576, Note_off_c, 0, 42, 0
2, 400608, Note_off_c, 0, 72, 0
2, 400612, Note_off_c, 0, 75, 0
2, 400632, Note_off_c, 0, 69, 0
2, 400792, Note_on_c, 0, 80, 127
2, 400796, Note_on_c, 0, 76, 127
2, 400800, Note_on_c, 0, 52, 127
2, 401096, Note_on_c, 0, 61, 127
2, 401096, Note_on_c, 0, 68, 127
2, 401096, Note_on_c, 0, 64, 127
2, 401104, Note_on_c, 0, 56, 127
2, 401120, Note_off_c, 0, 80, 0
2, 401156, Note_off_c, 0, 76, 0
2, 401208, Note_off_c, 0, 61, 0
2, 401232, Note_off_c, 0, 64, 0
2, 401236, Note_off_c, 0, 68, 0
2, 401252, Note_on_c, 0, 73, 127
2, 401252, Note_on_c, 0, 76, 127
2, 401264, Note_off_c, 0, 56, 0
2, 401328, Note_off_c, 0, 73, 0
2, 401340, Note_off_c, 0, 52, 0
2, 401352, Note_off_c, 0, 76, 0
2, 401484, Note_on_c, 0, 76, 127
2, 401484, Note_on_c, 0, 61, 127
2, 401484, Note_on_c, 0, 69, 127
2, 401488, Note_on_c, 0, 73, 127
2, 401496, Note_on_c, 0, 64, 127
2, 401496, Note_on_c, 0, 56, 127
2, 401584, Note_off_c, 0, 69, 0
2, 401736, Note_off_c, 0, 64, 0
2, 401776, Note_off_c, 0, 61, 0
2, 401812, Note_off_c, 0, 56, 0
2, 401840, Note_on_c, 0, 52, 127
2, 401844, Note_on_c, 0, 68, 127
2, 401892, Note_off_c, 0, 52, 0
2, 401904, Note_off_c, 0, 73, 0
2, 401928, Note_off_c, 0, 68, 0
2, 401952, Note_off_c, 0, 76, 0
2, 402156, Note_on_c, 0, 42, 127
2, 402200, Note_off_c, 0, 42, 0
2, 402300, Control_c, 0, 64, 127
2, 402332, Note_on_c, 0, 64, 127
2, 402392, Note_off_c, 0, 64, 0
2, 402488, Note_on_c, 0, 30, 127
2, 402564, Note_on_c, 0, 67, 127
2, 402568, Note_on_c, 0, 71, 127
2, 402568, Note_on_c, 0, 79, 127
2, 402568, Note_on_c, 0, 42, 127
2, 402572, Note_on_c, 0, 76, 127
2, 402596, Control_c, 0, 64, 63
2, 402600, Control_c, 0, 64, 0
2, 402656, Control_c, 0, 64, 63
2, 402660, Control_c, 0, 64, 127
2, 402736, Note_off_c, 0, 30, 0
2, 402760, Note_off_c, 0, 67, 0
2, 402768, Note_off_c, 0, 42, 0
2, 402780, Note_off_c, 0, 71, 0
2, 403008, Note_on_c, 0, 73, 127
2, 403008, Note_on_c, 0, 70, 127
2, 403016, Note_on_c, 0, 52, 127
2, 403164, Note_off_c, 0, 73, 0
2, 403164, Note_off_c, 0, 70, 0
2, 403376, Note_on_c, 0, 74, 127
2, 403380, Note_on_c, 0, 71, 127
2, 403384, Note_on_c, 0, 64, 127
2, 403384, Note_on_c, 0, 59, 127
2, 403388, Note_on_c, 0, 55, 127
2, 403448, Note_off_c, 0, 79, 0
2, 403452, Note_off_c, 0, 74, 0
2, 403460, Note_off_c, 0, 71, 0
2, 403464, Note_off_c, 0, 59, 0
2, 403472, Note_off_c, 0, 64, 0
2, 403480, Note_off_c, 0, 76, 0
2, 403488, Note_off_c, 0, 55, 0
2, 403664, Note_on_c, 0, 55, 116
2, 403716, Note_on_c, 0, 70, 127
2, 403716, Note_on_c, 0, 76, 127
2, 403720, Note_on_c, 0, 64, 127
2, 403720, Note_on_c, 0, 60, 127
2, 403724, Note_on_c, 0, 79, 127
2, 403724, Note_on_c, 0, 67, 127
2, 403740, Control_c, 0, 64, 63
2, 403744, Control_c, 0, 64, 0
2, 403776, Control_c, 0, 64, 63
2, 403792, Control_c, 0, 64, 127
2, 403944, Note_off_c, 0, 67, 0
2, 403952, Note_off_c, 0, 52, 0
2, 403952, Note_off_c, 0, 70, 0
2, 403976, Note_off_c, 0, 64, 0
2, 403992, Note_off_c, 0, 60, 0
2, 404012, Note_on_c, 0, 52, 127
2, 404016, Note_on_c, 0, 72, 127
2, 404024, Note_on_c, 0, 69, 127
2, 404044, Note_off_c, 0, 55, 0
2, 404068, Note_off_c, 0, 52, 0
2, 404084, Note_off_c, 0, 69, 0
2, 404096, Note_off_c, 0, 72, 0
2, 404272, Note_off_c, 0, 76, 0
2, 404296, Note_on_c, 0, 73, 127
2, 404300, Note_on_c, 0, 70, 127
2, 404304, Note_on_c, 0, 42, 127
2, 404328, Note_off_c, 0, 79, 0
2, 404344, Note_off_c, 0, 70, 0
2, 404344, Note_off_c, 0, 42, 0
2, 404368, Note_off_c, 0, 73, 0
2, 404632, Note_on_c, 0, 70, 127
2, 404632, Note_on_c, 0, 79, 127
2, 404632, Note_on_c, 0, 67, 127
2, 404636, Note_on_c, 0, 74, 127
2, 404640, Note_on_c, 0, 30, 127
2, 404640, Note_on_c, 0, 42, 127
2, 404672, Control_c, 0, 64, 63
2, 404680, Control_c, 0, 64, 0
2, 404728, Control_c, 0, 64, 63
2, 404736, Control_c, 0, 64, 127
2, 404796, Note_off_c, 0, 30, 0
2, 404832, Note_off_c, 0, 42, 0
2, 404892, Note_off_c, 0, 79, 0
2, 404936, Note_off_c, 0, 74, 0
2, 405032, Note_on_c, 0, 74, 127
2, 405032, Note_on_c, 0, 78, 127
2, 405044, Note_on_c, 0, 50, 127
2, 405152, Note_off_c, 0, 67, 0
2, 405176, Note_off_c, 0, 70, 0
2, 405344, Note_off_c, 0, 74, 0
2, 405352, Note_off_c, 0, 78, 0
2, 405376, Note_on_c, 0, 62, 127
2, 405376, Note_on_c, 0, 58, 127
2, 405380, Note_on_c, 0, 70, 127
2, 405384, Note_on_c, 0, 66, 127
2, 405384, Note_on_c, 0, 54, 127
2, 405432, Note_off_c, 0, 62, 0
2, 405440, Note_off_c, 0, 66, 0
2, 405444, Note_off_c, 0, 58, 0
2, 405444, Note_off_c, 0, 70, 0
2, 405460, Note_off_c, 0, 54, 0
2, 405504, Note_on_c, 0, 74, 127
2, 405636, Note_off_c, 0, 74, 0
2, 405680, Note_on_c, 0, 59, 127
2, 405684, Note_on_c, 0, 62, 127
2, 405688, Note_on_c, 0, 74, 127
2, 405688, Note_on_c, 0, 71, 127
2, 405688, Note_on_c, 0, 67, 127
2, 405696, Note_on_c, 0, 54, 127
2, 405724, Control_c, 0, 64, 63
2, 405728, Control_c, 0, 64, 0
2, 405776, Control_c, 0, 64, 63
2, 405792, Control_c, 0, 64, 127
2, 405832, Note_off_c, 0, 67, 0
2, 405920, Note_off_c, 0, 50, 0
2, 405952, Note_off_c, 0, 62, 0
2, 406036, Note_on_c, 0, 66, 127
2, 406040, Note_off_c, 0, 59, 0
2, 406040, Note_on_c, 0, 50, 127
2, 406072, Note_off_c, 0, 54, 0
2, 406096, Note_off_c, 0, 50, 0
2, 406136, Note_off_c, 0, 66, 0
2, 406168, Note_off_c, 0, 74, 0
2, 406336, Note_on_c, 0, 42, 127
2, 406384, Note_off_c, 0, 42, 0
2, 406484, Note_on_c, 0, 62, 127
2, 406524, Control_c, 0, 64, 63
2, 406532, Control_c, 0, 64, 0
2, 406564, Control_c, 0, 64, 63
2, 406576, Control_c, 0, 64, 127
2, 406600, Note_off_c, 0, 62, 0
2, 406628, Note_on_c, 0, 62, 127
2, 406660, Note_on_c, 0, 30, 127
2, 406728, Note_off_c, 0, 62, 0
2, 406736, Note_on_c, 0, 70, 127
2, 406744, Note_off_c, 0, 71, 0
2, 406804, Note_off_c, 0, 70, 0
2, 406840, Note_on_c, 0, 77, 127
2, 406860, Note_on_c, 0, 42, 127
2, 406892, Note_off_c, 0, 77, 0
2, 406896, Note_off_c, 0, 30, 0
2, 406924, Note_off_c, 0, 42, 0
2, 407248, Note_on_c, 0, 64, 127
2, 407252, Note_on_c, 0, 50, 127
2, 407320, Note_off_c, 0, 64, 0
2, 407628, Note_on_c, 0, 62, 127
2, 407632, Note_on_c, 0, 53, 127
2, 407640, Note_on_c, 0, 65, 127
2, 407640, Note_on_c, 0, 58, 127
2, 407684, Note_off_c, 0, 58, 0
2, 407696, Note_off_c, 0, 62, 0
2, 407712, Note_off_c, 0, 53, 0
2, 407716, Note_off_c, 0, 65, 0
2, 407984, Note_on_c, 0, 77, 127
2, 407988, Note_on_c, 0, 68, 127
2, 407992, Note_on_c, 0, 62, 127
2, 407992, Note_on_c, 0, 65, 127
2, 407992, Note_on_c, 0, 58, 127
2, 408004, Note_on_c, 0, 53, 127
2, 408008, Control_c, 0, 64, 63
2, 408016, Control_c, 0, 64, 0
2, 408052, Control_c, 0, 64, 63
2, 408064, Control_c, 0, 64, 127
2, 408200, Note_off_c, 0, 77, 0
2, 408208, Note_off_c, 0, 65, 0
2, 408232, Note_off_c, 0, 50, 0
2, 408280, Note_off_c, 0, 62, 0
2, 408296, Note_off_c, 0, 58, 0
2, 408312, Note_on_c, 0, 50, 127
2, 408312, Note_on_c, 0, 64, 127
2, 408320, Note_off_c, 0, 68, 0
2, 408336, Note_on_c, 0, 65, 127
2, 408340, Note_off_c, 0, 53, 0
2, 408360, Note_off_c, 0, 65, 0
2, 408372, Note_off_c, 0, 50, 0
2, 408616, Note_on_c, 0, 42, 127
2, 408628, Note_on_c, 0, 63, 127
2, 408652, Note_off_c, 0, 64, 0
2, 408652, Note_off_c, 0, 42, 0
2, 408688, Note_off_c, 0, 63, 0
2, 409008, Note_on_c, 0, 71, 127
2, 409012, Note_on_c, 0, 30, 127
2, 409012, Note_on_c, 0, 42, 127
2, 409016, Note_on_c, 0, 62, 127
2, 409020, Note_on_c, 0, 65, 127
2, 409040, Control_c, 0, 64, 63
2, 409044, Control_c, 0, 64, 0
2, 409096, Control_c, 0, 64, 63
2, 409104, Control_c, 0, 64, 127
2, 409164, Note_off_c, 0, 30, 0
2, 409192, Note_off_c, 0, 42, 0
2, 409208, Note_off_c, 0, 71, 0
2, 409216, Note_off_c, 0, 62, 0
2, 409216, Note_off_c, 0, 65, 0
2, 409448, Note_on_c, 0, 69, 127
2, 409460, Note_on_c, 0, 50, 127
2, 409464, Note_on_c, 0, 61, 127
2, 409496, Note_off_c, 0, 61, 0
2, 409520, Note_off_c, 0, 69, 0
2, 409756, Note_on_c, 0, 62, 127
2, 409828, Note_off_c, 0, 62, 0
2, 409888, Note_on_c, 0, 67, 127
2, 409896, Note_on_c, 0, 59, 127
2, 409948, Note_off_c, 0, 59, 0
2, 409968, Note_off_c, 0, 67, 0
2, 410048, Control_c, 0, 64, 63
2, 410056, Control_c, 0, 64, 0
2, 410056, Note_on_c, 0, 62, 127
2, 410060, Note_on_c, 0, 67, 127
2, 410072, Note_on_c, 0, 59, 127
2, 410100, Control_c, 0, 64, 63
2, 410112, Control_c, 0, 64, 127
2, 410232, Note_off_c, 0, 59, 0
2, 410240, Note_off_c, 0, 50, 0
2, 410268, Note_off_c, 0, 62, 0
2, 410272, Note_off_c, 0, 67, 0
2, 410392, Note_on_c, 0, 66, 127
2, 410396, Note_on_c, 0, 50, 127
2, 410396, Note_on_c, 0, 57, 127
2, 410444, Control_c, 0, 64, 63
2, 410484, Control_c, 0, 64, 127
2, 410596, Note_off_c, 0, 66, 0
2, 410604, Note_off_c, 0, 57, 0
2, 410804, Note_on_c, 0, 65, 127
2, 410804, Note_on_c, 0, 59, 127
2, 410808, Note_on_c, 0, 55, 127
2, 410840, Control_c, 0, 64, 63
2, 410880, Control_c, 0, 64, 127
2, 410984, Note_off_c, 0, 59, 0
2, 411004, Note_off_c, 0, 55, 0
2, 411024, Note_off_c, 0, 65, 0
2, 411032, Note_off_c, 0, 50, 0
2, 411360, Note_on_c, 0, 30, 127
2, 411364, Note_on_c, 0, 65, 127
2, 411368, Note_on_c, 0, 55, 127
2, 411372, Note_on_c, 0, 42, 127
2, 411380, Control_c, 0, 64, 63
2, 411384, Control_c, 0, 64, 0
2, 411432, Control_c, 0, 64, 63
2, 411440, Control_c, 0, 64, 127
2, 411500, Note_off_c, 0, 65, 0
2, 411548, Note_off_c, 0, 30, 0
2, 411588, Note_off_c, 0, 42, 0
2, 411640, Note_on_c, 0, 58, 127
2, 411652, Note_off_c, 0, 55, 0
2, 411732, Note_off_c, 0, 58, 0
2, 411776, Note_on_c, 0, 60, 127
2, 411840, Note_off_c, 0, 60, 0
2, 411880, Note_on_c, 0, 59, 127
2, 411976, Note_off_c, 0, 59, 0
2, 411992, Note_on_c, 0, 61, 127
2, 412000, Note_on_c, 0, 50, 127
2, 412084, Note_off_c, 0, 61, 0
2, 412096, Note_on_c, 0, 64, 127
2, 412160, Note_off_c, 0, 64, 0
2, 412184, Note_on_c, 0, 62, 127
2, 412268, Note_off_c, 0, 62, 0
2, 412268, Note_on_c, 0, 64, 127
2, 412352, Note_on_c, 0, 67, 127
2, 412360, Note_off_c, 0, 64, 0
2, 412360, Note_on_c, 0, 55, 127
2, 412392, Note_off_c, 0, 50, 0
2, 412412, Note_off_c, 0, 67, 0
2, 412420, Note_off_c, 0, 55, 0
2, 412444, Note_on_c, 0, 65, 127
2, 412520, Note_off_c, 0, 65, 0
2, 412528, Note_on_c, 0, 70, 127
2, 412604, Note_on_c, 0, 72, 127
2, 412608, Note_off_c, 0, 70, 0
2, 412656, Note_off_c, 0, 72, 0
2, 412684, Note_on_c, 0, 65, 127
2, 412684, Note_on_c, 0, 55, 127
2, 412692, Note_on_c, 0, 71, 127
2, 412760, Note_off_c, 0, 71, 0
2, 412764, Note_on_c, 0, 73, 127
2, 412832, Note_on_c, 0, 76, 127
2, 412840, Note_off_c, 0, 73, 0
2, 412884, Note_off_c, 0, 76, 0
2, 412904, Note_on_c, 0, 74, 127
2, 412976, Note_off_c, 0, 74, 0
2, 412980, Note_on_c, 0, 76, 127
2, 413024, Note_off_c, 0, 55, 0
2, 413040, Note_on_c, 0, 79, 127
2, 413048, Note_off_c, 0, 76, 0
2, 413084, Note_off_c, 0, 65, 0
2, 413096, Note_off_c, 0, 79, 0
2, 413124, Note_on_c, 0, 77, 127
2, 413184, Note_off_c, 0, 77, 0
2, 413192, Note_on_c, 0, 82, 127
2, 413252, Note_on_c, 0, 84, 127
2, 413260, Note_off_c, 0, 82, 0
2, 413296, Note_off_c, 0, 84, 0
2, 413320, Note_on_c, 0, 83, 127
2, 413380, Note_on_c, 0, 85, 127
2, 413384, Note_off_c, 0, 83, 0
2, 413436, Note_on_c, 0, 88, 127
2, 413444, Note_off_c, 0, 85, 0
2, 413488, Note_on_c, 0, 71, 127
2, 413492, Note_off_c, 0, 88, 0
2, 413492, Note_on_c, 0, 65, 127
2, 413500, Note_on_c, 0, 62, 127
2, 413500, Note_on_c, 0, 86, 127
2, 413564, Note_off_c, 0, 86, 0
2, 413564, Note_on_c, 0, 88, 127
2, 413624, Note_on_c, 0, 91, 127
2, 413628, Note_off_c, 0, 88, 0
2, 413632, Note_on_c, 0, 89, 127
2, 413652, Note_off_c, 0, 89, 0
2, 413668, Note_off_c, 0, 91, 0
2, 413692, Note_on_c, 0, 89, 127
2, 413760, Note_on_c, 0, 94, 127
2, 413764, Note_off_c, 0, 89, 0
2, 413824, Note_on_c, 0, 96, 127
2, 413828, Note_off_c, 0, 94, 0
2, 413872, Note_off_c, 0, 96, 0
2, 413896, Note_on_c, 0, 95, 127
2, 413916, Note_off_c, 0, 65, 0
2, 413920, Note_off_c, 0, 62, 0
2, 413956, Note_off_c, 0, 71, 0
2, 413960, Note_off_c, 0, 95, 0
2, 413960, Note_on_c, 0, 98, 127
2, 414048, Note_on_c, 0, 101, 127
2, 414064, Note_off_c, 0, 98, 0
2, 414116, Note_on_c, 0, 98, 127
2, 414188, Note_on_c, 0, 95, 127
2, 414212, Note_off_c, 0, 101, 0
2, 414248, Note_on_c, 0, 91, 127
2, 414256, Note_off_c, 0, 98, 0
2, 414284, Note_off_c, 0, 95, 0
2, 414312, Note_off_c, 0, 91, 0
2, 414328, Note_on_c, 0, 89, 127
2, 414416, Note_on_c, 0, 86, 127
2, 414456, Note_off_c, 0, 89, 0
2, 414500, Note_on_c, 0, 83, 127
2, 414532, Note_off_c, 0, 86, 0
2, 414588, Note_on_c, 0, 79, 127
2, 414628, Note_off_c, 0, 83, 0
2, 414680, Note_on_c, 0, 77, 127
2, 414692, Note_off_c, 0, 79, 0
2, 414768, Note_on_c, 0, 74, 127
2, 414864, Note_on_c, 0, 71, 127
2, 414964, Note_on_c, 0, 67, 127
2, 415008, Note_off_c, 0, 77, 0
2, 415076, Note_off_c, 0, 67, 0
2, 415084, Note_on_c, 0, 65, 127
2, 415096, Note_off_c, 0, 71, 0
2, 415120, Note_off_c, 0, 74, 0
2, 415216, Note_on_c, 0, 62, 127
2, 415256, Note_off_c, 0, 65, 0
2, 415364, Note_on_c, 0, 59, 127
2, 415372, Note_off_c, 0, 62, 0
2, 415532, Note_on_c, 0, 55, 127
2, 415564, Note_off_c, 0, 59, 0
2, 415608, Note_off_c, 0, 55, 0
2, 415832, Note_on_c, 0, 66, 127
2, 415836, Note_on_c, 0, 30, 127
2, 415836, Note_on_c, 0, 54, 127
2, 415928, Control_c, 0, 64, 63
2, 415944, Control_c, 0, 64, 0
2, 416024, Control_c, 0, 64, 63
2, 416032, Control_c, 0, 64, 127
2, 416144, Note_off_c, 0, 30, 0
2, 416272, Note_off_c, 0, 54, 0
2, 416472, Note_on_c, 0, 49, 127
2, 416736, Note_off_c, 0, 66, 0
2, 416836, Note_off_c, 0, 49, 0
2, 416840, Note_on_c, 0, 61, 127
2, 416920, Note_off_c, 0, 61, 0
2, 417144, Note_on_c, 0, 60, 127
2, 417224, Note_on_c, 0, 63, 127
2, 417240, Note_off_c, 0, 60, 0
2, 417320, Note_on_c, 0, 61, 127
2, 417324, Note_off_c, 0, 63, 0
2, 417372, Note_on_c, 0, 80, 127
2, 417380, Control_c, 0, 64, 63
2, 417380, Note_on_c, 0, 71, 127
2, 417388, Control_c, 0, 64, 0
2, 417420, Control_c, 0, 64, 63
2, 417440, Control_c, 0, 64, 127
2, 417580, Note_off_c, 0, 80, 0
2, 417600, Note_on_c, 0, 68, 127
2, 417612, Note_on_c, 0, 77, 127
2, 417620, Note_off_c, 0, 71, 0
2, 417672, Note_off_c, 0, 68, 0
2, 417720, Note_off_c, 0, 77, 0
2, 417756, Note_on_c, 0, 80, 127
2, 417772, Note_on_c, 0, 71, 127
2, 417812, Note_off_c, 0, 61, 0
2, 417832, Note_off_c, 0, 80, 0
2, 417840, Note_off_c, 0, 71, 0
2, 417912, Note_on_c, 0, 75, 127
2, 417920, Note_on_c, 0, 66, 127
2, 417960, Note_off_c, 0, 66, 0
2, 418048, Note_off_c, 0, 75, 0
2, 418048, Note_on_c, 0, 49, 127
2, 418048, Note_on_c, 0, 80, 127
2, 418060, Note_on_c, 0, 71, 127
2, 418128, Note_off_c, 0, 80, 0
2, 418200, Note_on_c, 0, 73, 127
2, 418208, Note_on_c, 0, 61, 127
2, 418216, Note_off_c, 0, 71, 0
2, 418252, Note_off_c, 0, 49, 0
2, 418256, Note_off_c, 0, 61, 0
2, 418304, Note_off_c, 0, 73, 0
2, 418392, Note_on_c, 0, 70, 127
2, 418396, Note_on_c, 0, 78, 127
2, 418400, Note_on_c, 0, 42, 127
2, 418444, Control_c, 0, 64, 63
2, 418452, Control_c, 0, 64, 0
2, 418508, Control_c, 0, 64, 63
2, 418516, Control_c, 0, 64, 127
2, 418600, Note_off_c, 0, 42, 0
2, 418756, Note_on_c, 0, 49, 127
2, 419124, Note_off_c, 0, 49, 0
2, 419124, Note_on_c, 0, 61, 127
2, 419176, Note_off_c, 0, 78, 0
2, 419192, Note_off_c, 0, 61, 0
2, 419200, Note_off_c, 0, 70, 0
2, 419432, Note_on_c, 0, 60, 127
2, 419524, Note_on_c, 0, 63, 127
2, 419532, Note_off_c, 0, 60, 0
2, 419576, Note_on_c, 0, 61, 127
2, 419604, Note_off_c, 0, 63, 0
2, 419616, Note_on_c, 0, 80, 127
2, 419620, Note_on_c, 0, 71, 127
2, 419636, Control_c, 0, 64, 63
2, 419644, Control_c, 0, 64, 0
2, 419688, Control_c, 0, 64, 63
2, 419704, Control_c, 0, 64, 127
2, 419812, Note_off_c, 0, 80, 0
2, 419824, Note_on_c, 0, 68, 127
2, 419832, Note_on_c, 0, 77, 127
2, 419840, Note_off_c, 0, 71, 0
2, 419912, Note_off_c, 0, 68, 0
2, 419944, Note_off_c, 0, 77, 0
2, 419960, Note_on_c, 0, 80, 127
2, 419980, Note_on_c, 0, 71, 127
2, 420008, Note_off_c, 0, 61, 0
2, 420028, Note_off_c, 0, 80, 0
2, 420044, Note_off_c, 0, 71, 0
2, 420096, Note_on_c, 0, 75, 127
2, 420104, Note_on_c, 0, 66, 127
2, 420144, Note_off_c, 0, 66, 0
2, 420232, Note_off_c, 0, 75, 0
2, 420236, Note_on_c, 0, 49, 127
2, 420240, Note_on_c, 0, 80, 127
2, 420252, Note_on_c, 0, 71, 127
2, 420312, Note_off_c, 0, 80, 0
2, 420344, Note_off_c, 0, 49, 0
2, 420400, Note_on_c, 0, 73, 127
2, 420404, Note_off_c, 0, 71, 0
2, 420412, Note_on_c, 0, 61, 127
2, 420436, Note_off_c, 0, 61, 0
2, 420568, Note_off_c, 0, 73, 0
2, 420588, Note_on_c, 0, 70, 127
2, 420596, Note_on_c, 0, 78, 127
2, 420612, Note_on_c, 0, 30, 127
2, 420648, Control_c, 0, 64, 63
2, 420656, Control_c, 0, 64, 0
2, 420712, Control_c, 0, 64, 63
2, 420720, Control_c, 0, 64, 127
2, 420880, Note_off_c, 0, 30, 0
2, 421048, Note_on_c, 0, 49, 127
2, 421380, Note_off_c, 0, 70, 0
2, 421380, Note_off_c, 0, 78, 0
2, 421416, Note_on_c, 0, 58, 127
2, 421576, Note_off_c, 0, 58, 0
2, 421788, Note_on_c, 0, 68, 127
2, 421800, Note_on_c, 0, 59, 127
2, 421848, Control_c, 0, 64, 63
2, 421856, Control_c, 0, 64, 0
2, 421892, Control_c, 0, 64, 63
2, 421908, Control_c, 0, 64, 127
2, 422000, Note_on_c, 0, 65, 127
2, 422004, Note_on_c, 0, 56, 127
2, 422036, Note_off_c, 0, 68, 0
2, 422152, Note_on_c, 0, 68, 127
2, 422168, Note_off_c, 0, 59, 0
2, 422180, Note_off_c, 0, 49, 0
2, 422188, Note_off_c, 0, 65, 0
2, 422212, Note_off_c, 0, 56, 0
2, 422232, Note_off_c, 0, 68, 0
2, 422312, Note_on_c, 0, 63, 127
2, 422320, Note_on_c, 0, 54, 127
2, 422408, Note_off_c, 0, 54, 0
2, 422472, Note_on_c, 0, 49, 127
2, 422488, Note_on_c, 0, 68, 127
2, 422560, Note_off_c, 0, 63, 0
2, 422620, Control_c, 0, 64, 63
2, 422648, Note_on_c, 0, 61, 127
2, 422648, Control_c, 0, 64, 127
2, 422664, Note_on_c, 0, 53, 127
2, 422672, Note_off_c, 0, 68, 0
2, 422692, Note_off_c, 0, 49, 0
2, 422768, Note_off_c, 0, 53, 0
2, 422864, Note_off_c, 0, 61, 0
2, 422864, Note_on_c, 0, 42, 127
2, 422868, Note_on_c, 0, 66, 127
2, 422872, Note_on_c, 0, 58, 127
2, 422944, Control_c, 0, 64, 63
2, 422968, Control_c, 0, 64, 0
2, 423080, Control_c, 0, 64, 63
2, 423100, Control_c, 0, 64, 127
2, 423264, Note_on_c, 0, 49, 127
2, 423376, Note_off_c, 0, 42, 0
2, 423400, Note_off_c, 0, 58, 0
2, 423712, Note_on_c, 0, 58, 127
2, 423736, Note_off_c, 0, 66, 0
2, 424028, Note_off_c, 0, 58, 0
2, 424200, Note_on_c, 0, 68, 127
2, 424216, Note_on_c, 0, 59, 127
2, 424304, Control_c, 0, 64, 63
2, 424360, Control_c, 0, 64, 127
2, 424444, Note_on_c, 0, 65, 127
2, 424448, Note_on_c, 0, 56, 127
2, 424496, Note_off_c, 0, 68, 0
2, 424648, Note_on_c, 0, 68, 127
2, 424680, Note_off_c, 0, 49, 0
2, 424692, Note_off_c, 0, 65, 0
2, 424700, Note_off_c, 0, 59, 0
2, 424760, Note_off_c, 0, 68, 0
2, 424768, Note_off_c, 0, 56, 0
2, 424888, Note_on_c, 0, 63, 127
2, 424896, Note_on_c, 0, 54, 127
2, 425000, Note_off_c, 0, 54, 0
2, 425140, Note_on_c, 0, 49, 127
2, 425144, Note_on_c, 0, 68, 127
2, 425204, Note_off_c, 0, 63, 0
2, 425240, Control_c, 0, 64, 63
2, 425292, Control_c, 0, 64, 127
2, 425440, Note_on_c, 0, 61, 127
2, 425444, Note_off_c, 0, 68, 0
2, 425464, Note_on_c, 0, 53, 127
2, 425496, Note_off_c, 0, 49, 0
2, 425536, Note_off_c, 0, 53, 0
2, 425620, Note_off_c, 0, 61, 0
2, 425824, Note_on_c, 0, 58, 127
2, 425832, Note_on_c, 0, 66, 127
2, 425844, Note_on_c, 0, 42, 127
2, 425848, Note_on_c, 0, 30, 127
2, 425956, Control_c, 0, 64, 63
2, 425968, Control_c, 0, 64, 0
2, 426048, Control_c, 0, 64, 63
2, 426060, Control_c, 0, 64, 127
2, 426120, Control_c, 0, 67, 127
2, 426272, Note_off_c, 0, 30, 0
2, 426320, Note_off_c, 0, 42, 0
2, 426360, Note_off_c, 0, 58, 0
2, 426404, Note_off_c, 0, 66, 0
2, 426812, Note_on_c, 0, 58, 127
2, 426816, Note_on_c, 0, 54, 127
2, 426816, Note_on_c, 0, 49, 127
2, 427160, Note_off_c, 0, 54, 0
2, 427336, Note_off_c, 0, 58, 0
2, 427408, Note_off_c, 0, 49, 0
2, 427408, Note_on_c, 0, 54, 127
2, 427408, Note_on_c, 0, 51, 127
2, 427408, Note_on_c, 0, 59, 127
2, 427720, Note_on_c, 0, 63, 127
2, 427740, Control_c, 0, 64, 63
2, 427748, Control_c, 0, 64, 127
2, 427828, Note_off_c, 0, 63, 0
2, 427836, Note_on_c, 0, 65, 127
2, 427944, Note_on_c, 0, 66, 127
2, 427956, Note_off_c, 0, 65, 0
2, 428056, Note_on_c, 0, 68, 127
2, 428064, Note_off_c, 0, 66, 0
2, 428076, Note_off_c, 0, 54, 0
2, 428088, Note_off_c, 0, 59, 0
2, 428132, Note_off_c, 0, 51, 0
2, 428140, Note_on_c, 0, 70, 127
2, 428164, Note_off_c, 0, 68, 0
2, 428216, Note_off_c, 0, 70, 0
2, 428220, Note_on_c, 0, 71, 127
2, 428296, Note_on_c, 0, 58, 127
2, 428296, Note_on_c, 0, 54, 127
2, 428296, Note_on_c, 0, 49, 127
2, 428308, Note_off_c, 0, 71, 0
2, 428308, Control_c, 0, 64, 63
2, 428312, Note_on_c, 0, 72, 127
2, 428360, Control_c, 0, 64, 127
2, 428392, Note_on_c, 0, 73, 127
2, 428400, Note_off_c, 0, 72, 0
2, 428440, Note_off_c, 0, 58, 0
2, 428468, Note_off_c, 0, 54, 0
2, 428468, Note_off_c, 0, 73, 0
2, 428472, Note_on_c, 0, 78, 127
2, 428552, Note_on_c, 0, 75, 127
2, 428560, Note_off_c, 0, 78, 0
2, 428592, Note_off_c, 0, 49, 0
2, 428628, Control_c, 0, 64, 63
2, 428632, Note_on_c, 0, 73, 127
2, 428640, Note_off_c, 0, 75, 0
2, 428640, Control_c, 0, 64, 0
2, 428640, Note_on_c, 0, 54, 127
2, 428644, Note_on_c, 0, 56, 127
2, 428644, Note_on_c, 0, 47, 127
2, 428688, Control_c, 0, 64, 63
2, 428712, Control_c, 0, 64, 127
2, 428720, Note_off_c, 0, 73, 0
2, 428720, Note_on_c, 0, 75, 127
2, 428812, Note_on_c, 0, 73, 127
2, 428820, Note_off_c, 0, 75, 0
2, 428884, Note_on_c, 0, 70, 127
2, 428896, Note_off_c, 0, 73, 0
2, 428956, Note_off_c, 0, 70, 0
2, 428968, Note_on_c, 0, 68, 127
2, 429032, Note_off_c, 0, 68, 0
2, 429048, Note_on_c, 0, 70, 127
2, 429080, Note_off_c, 0, 54, 0
2, 429112, Note_off_c, 0, 56, 0
2, 429132, Note_on_c, 0, 68, 127
2, 429140, Note_off_c, 0, 70, 0
2, 429212, Note_on_c, 0, 66, 127
2, 429216, Note_off_c, 0, 68, 0
2, 429260, Control_c, 0, 64, 63
2, 429264, Note_off_c, 0, 47, 0
2, 429280, Note_off_c, 0, 66, 0
2, 429288, Note_on_c, 0, 54, 127
2, 429288, Note_on_c, 0, 58, 127
2, 429292, Note_on_c, 0, 63, 127
2, 429296, Note_on_c, 0, 49, 127
2, 429304, Control_c, 0, 64, 127
2, 429352, Note_off_c, 0, 63, 0
2, 429376, Note_on_c, 0, 66, 127
2, 429384, Note_off_c, 0, 58, 0
2, 429408, Note_off_c, 0, 54, 0
2, 429456, Note_off_c, 0, 49, 0
2, 429464, Note_on_c, 0, 63, 127
2, 429476, Note_off_c, 0, 66, 0
2, 429544, Note_on_c, 0, 61, 127
2, 429564, Note_off_c, 0, 63, 0
2, 429624, Control_c, 0, 64, 63
2, 429640, Note_off_c, 0, 61, 0
2, 429648, Note_on_c, 0, 59, 127
2, 429660, Note_on_c, 0, 51, 127
2, 429664, Note_on_c, 0, 54, 127
2, 429684, Control_c, 0, 64, 127
2, 429772, Note_on_c, 0, 63, 127
2, 429836, Note_off_c, 0, 63, 0
2, 429868, Note_on_c, 0, 65, 127
2, 429944, Note_on_c, 0, 66, 127
2, 429952, Note_off_c, 0, 65, 0
2, 430032, Note_on_c, 0, 68, 127
2, 430036, Note_off_c, 0, 66, 0
2, 430112, Note_off_c, 0, 51, 0
2, 430112, Note_off_c, 0, 54, 0
2, 430120, Note_on_c, 0, 70, 127
2, 430144, Note_off_c, 0, 68, 0
2, 430156, Note_off_c, 0, 59, 0
2, 430192, Note_off_c, 0, 70, 0
2, 430196, Note_on_c, 0, 71, 127
2, 430280, Note_off_c, 0, 71, 0
2, 430280, Note_on_c, 0, 73, 127
2, 430348, Note_on_c, 0, 63, 127
2, 430356, Note_on_c, 0, 59, 127
2, 430360, Note_on_c, 0, 54, 127
2, 430360, Control_c, 0, 64, 63
2, 430372, Note_on_c, 0, 75, 127
2, 430392, Note_off_c, 0, 73, 0
2, 430416, Control_c, 0, 64, 127
2, 430448, Note_off_c, 0, 75, 0
2, 430452, Note_on_c, 0, 77, 127
2, 430536, Note_on_c, 0, 78, 127
2, 430540, Note_off_c, 0, 77, 0
2, 430596, Note_off_c, 0, 54, 0
2, 430616, Note_on_c, 0, 83, 127
2, 430628, Note_off_c, 0, 78, 0
2, 430632, Note_off_c, 0, 63, 0
2, 430760, Note_on_c, 0, 82, 127
2, 430768, Note_off_c, 0, 83, 0
2, 430776, Note_on_c, 0, 61, 127
2, 430776, Note_on_c, 0, 58, 127
2, 430784, Note_on_c, 0, 54, 127
2, 430792, Note_off_c, 0, 59, 0
2, 430892, Control_c, 0, 64, 63
2, 430896, Note_on_c, 0, 78, 127
2, 430904, Control_c, 0, 64, 0
2, 430912, Note_off_c, 0, 82, 0
2, 430984, Control_c, 0, 64, 63
2, 430996, Control_c, 0, 64, 127
2, 431000, Note_off_c, 0, 78, 0
2, 431008, Note_on_c, 0, 77, 127
2, 431080, Note_off_c, 0, 77, 0
2, 431084, Note_on_c, 0, 75, 127
2, 431180, Note_on_c, 0, 78, 127
2, 431192, Note_off_c, 0, 75, 0
2, 431224, Note_off_c, 0, 58, 0
2, 431256, Note_off_c, 0, 54, 0
2, 431276, Note_on_c, 0, 75, 127
2, 431288, Note_off_c, 0, 61, 0
2, 431288, Note_off_c, 0, 78, 0
2, 431368, Note_on_c, 0, 73, 127
2, 431376, Note_off_c, 0, 75, 0
2, 431440, Note_off_c, 0, 73, 0
2, 431448, Note_on_c, 0, 71, 127
2, 431520, Note_off_c, 0, 71, 0
2, 431532, Note_on_c, 0, 70, 127
2, 431536, Note_on_c, 0, 61, 127
2, 431536, Note_on_c, 0, 49, 127
2, 431552, Control_c, 0, 64, 63
2, 431600, Control_c, 0, 64, 127
2, 431616, Note_on_c, 0, 68, 127
2, 431624, Note_off_c, 0, 70, 0
2, 431708, Note_off_c, 0, 68, 0
2, 431712, Note_on_c, 0, 66, 127
2, 431728, Note_off_c, 0, 49, 0
2, 431784, Note_on_c, 0, 70, 127
2, 431788, Note_off_c, 0, 61, 0
2, 431796, Note_off_c, 0, 66, 0
2, 431876, Note_off_c, 0, 70, 0
2, 431880, Note_on_c, 0, 63, 127
2, 431884, Note_on_c, 0, 54, 127
2, 431888, Note_on_c, 0, 71, 127
2, 431908, Control_c, 0, 64, 63
2, 431936, Control_c, 0, 64, 127
2, 431968, Note_on_c, 0, 73, 127
2, 431972, Note_off_c, 0, 71, 0
2, 432048, Note_on_c, 0, 75, 127
2, 432068, Note_off_c, 0, 73, 0
2, 432120, Note_off_c, 0, 75, 0
2, 432120, Note_on_c, 0, 77, 127
2, 432204, Note_on_c, 0, 78, 127
2, 432208, Note_off_c, 0, 77, 0
2, 432232, Note_off_c, 0, 63, 0
2, 432264, Note_off_c, 0, 54, 0
2, 432280, Note_on_c, 0, 80, 127
2, 432304, Note_off_c, 0, 78, 0
2, 432368, Note_on_c, 0, 82, 127
2, 432400, Note_off_c, 0, 80, 0
2, 432448, Note_off_c, 0, 82, 0
2, 432448, Note_on_c, 0, 83, 127
2, 432528, Control_c, 0, 64, 63
2, 432536, Note_off_c, 0, 83, 0
2, 432540, Note_on_c, 0, 58, 127
2, 432540, Note_on_c, 0, 84, 127
2, 432544, Note_on_c, 0, 49, 127
2, 432548, Note_on_c, 0, 61, 127
2, 432552, Control_c, 0, 64, 0
2, 432560, Control_c, 0, 64, 63
2, 432592, Control_c, 0, 64, 127
2, 432620, Note_on_c, 0, 85, 127
2, 432636, Note_off_c, 0, 84, 0
2, 432636, Note_off_c, 0, 49, 0
2, 432672, Note_off_c, 0, 58, 0
2, 432700, Note_off_c, 0, 61, 0
2, 432712, Note_on_c, 0, 90, 127
2, 432724, Note_off_c, 0, 85, 0
2, 432792, Note_on_c, 0, 87, 127
2, 432820, Note_off_c, 0, 90, 0
2, 432900, Note_on_c, 0, 85, 127
2, 432908, Note_on_c, 0, 70, 127
2, 432920, Note_off_c, 0, 87, 0
2, 432920, Note_on_c, 0, 58, 127
2, 432924, Note_on_c, 0, 61, 127
2, 432988, Control_c, 0, 64, 63
2, 432996, Note_on_c, 0, 87, 127
2, 433004, Note_off_c, 0, 85, 0
2, 433012, Control_c, 0, 64, 0
2, 433044, Control_c, 0, 64, 63
2, 433064, Control_c, 0, 64, 127
2, 433112, Note_on_c, 0, 85, 127
2, 433120, Note_off_c, 0, 87, 0
2, 433204, Note_on_c, 0, 82, 127
2, 433208, Note_off_c, 0, 85, 0
2, 433292, Note_off_c, 0, 82, 0
2, 433300, Note_on_c, 0, 80, 127
2, 433372, Note_off_c, 0, 80, 0
2, 433392, Note_on_c, 0, 82, 127
2, 433428, Note_off_c, 0, 70, 0
2, 433432, Note_off_c, 0, 61, 0
2, 433468, Note_off_c, 0, 58, 0
2, 433496, Note_on_c, 0, 80, 127
2, 433504, Note_off_c, 0, 82, 0
2, 433588, Note_off_c, 0, 80, 0
2, 433588, Note_on_c, 0, 78, 127
2, 433672, Note_off_c, 0, 78, 0
2, 433680, Note_on_c, 0, 75, 127
2, 433696, Note_on_c, 0, 66, 127
2, 433700, Note_on_c, 0, 61, 127
2, 433704, Note_on_c, 0, 58, 127
2, 433724, Control_c, 0, 64, 63
2, 433740, Control_c, 0, 64, 127
2, 433764, Note_off_c, 0, 75, 0
2, 433800, Note_on_c, 0, 78, 127
2, 433920, Note_off_c, 0, 61, 0
2, 433920, Note_on_c, 0, 75, 127
2, 433940, Note_off_c, 0, 78, 0
2, 433948, Note_off_c, 0, 66, 0
2, 433984, Note_off_c, 0, 58, 0
2, 434020, Note_on_c, 0, 73, 127
2, 434044, Note_off_c, 0, 75, 0
2, 434112, Note_on_c, 0, 56, 127
2, 434144, Note_off_c, 0, 73, 0
2, 434144, Note_on_c, 0, 63, 127
2, 434160, Note_on_c, 0, 71, 127
2, 434160, Note_on_c, 0, 66, 127
2, 434180, Control_c, 0, 64, 63
2, 434224, Control_c, 0, 64, 127
2, 434280, Note_off_c, 0, 71, 0
2, 434288, Note_on_c, 0, 75, 127
2, 434400, Note_on_c, 0, 78, 127
2, 434404, Note_off_c, 0, 75, 0
2, 434496, Note_on_c, 0, 82, 127
2, 434512, Note_off_c, 0, 78, 0
2, 434568, Note_off_c, 0, 82, 0
2, 434612, Note_on_c, 0, 83, 127
2, 434724, Note_off_c, 0, 83, 0
2, 434732, Note_on_c, 0, 85, 127
2, 434860, Note_off_c, 0, 63, 0
2, 434864, Note_off_c, 0, 56, 0
2, 434864, Note_on_c, 0, 87, 127
2, 434876, Note_off_c, 0, 85, 0
2, 434884, Note_off_c, 0, 66, 0
2, 434980, Note_off_c, 0, 87, 0
2, 434984, Note_on_c, 0, 89, 127
2, 435144, Note_off_c, 0, 89, 0
2, 435144, Note_on_c, 0, 71, 127
2, 435144, Note_on_c, 0, 61, 127
2, 435148, Note_on_c, 0, 65, 127
2, 435148, Note_on_c, 0, 90, 127
2, 435168, Control_c, 0, 64, 63
2, 435188, Control_c, 0, 64, 0
2, 435252, Control_c, 0, 64, 63
2, 435264, Control_c, 0, 64, 127
2, 435312, Note_off_c, 0, 90, 0
2, 435320, Note_on_c, 0, 92, 127
2, 435496, Note_off_c, 0, 92, 0
2, 435496, Note_on_c, 0, 94, 127
2, 435516, Note_off_c, 0, 71, 0
2, 435552, Note_off_c, 0, 65, 0
2, 435600, Note_off_c, 0, 61, 0
2, 435668, Note_off_c, 0, 94, 0
2, 435700, Note_on_c, 0, 95, 127
2, 435828, Note_on_c, 0, 54, 127
2, 435872, Note_off_c, 0, 95, 0
2, 435904, Control_c, 0, 64, 63
2, 435912, Control_c, 0, 64, 0
2, 435956, Control_c, 0, 64, 63
2, 435960, Note_on_c, 0, 61, 127
2, 435968, Control_c, 0, 64, 127
2, 436056, Note_off_c, 0, 54, 0
2, 436212, Note_on_c, 0, 70, 127
2, 436212, Note_on_c, 0, 96, 127
2, 436496, Note_off_c, 0, 96, 0
2, 436496, Note_on_c, 0, 97, 127
2, 436660, Note_off_c, 0, 97, 0
2, 436696, Note_on_c, 0, 102, 127
2, 436880, Note_on_c, 0, 99, 127
2, 436908, Note_off_c, 0, 102, 0
2, 437012, Note_on_c, 0, 97, 127
2, 437024, Note_off_c, 0, 99, 0
2, 437140, Control_c, 0, 67, 0
2, 437152, Note_off_c, 0, 97, 0
2, 437156, Note_on_c, 0, 95, 127
2, 437288, Note_on_c, 0, 94, 127
2, 437292, Note_off_c, 0, 95, 0
2, 437400, Note_on_c, 0, 92, 127
2, 437412, Note_off_c, 0, 94, 0
2, 437524, Note_on_c, 0, 90, 127
2, 437532, Note_off_c, 0, 92, 0
2, 437628, Note_off_c, 0, 90, 0
2, 437632, Note_on_c, 0, 94, 127
2, 437744, Note_off_c, 0, 94, 0
2, 437748, Note_on_c, 0, 90, 127
2, 437832, Note_off_c, 0, 90, 0
2, 437844, Note_on_c, 0, 89, 127
2, 437928, Note_off_c, 0, 89, 0
2, 437936, Note_on_c, 0, 87, 127
2, 438032, Note_off_c, 0, 87, 0
2, 438032, Note_on_c, 0, 90, 127
2, 438076, Note_off_c, 0, 70, 0
2, 438112, Note_on_c, 0, 87, 127
2, 438120, Note_off_c, 0, 90, 0
2, 438156, Note_off_c, 0, 61, 0
2, 438200, Note_on_c, 0, 85, 127
2, 438212, Note_off_c, 0, 87, 0
2, 438264, Note_off_c, 0, 85, 0
2, 438272, Note_on_c, 0, 83, 127
2, 438344, Note_off_c, 0, 83, 0
2, 438352, Note_on_c, 0, 82, 127
2, 438416, Note_on_c, 0, 80, 127
2, 438428, Note_off_c, 0, 82, 0
2, 438496, Note_on_c, 0, 78, 127
2, 438500, Note_off_c, 0, 80, 0
2, 438560, Note_on_c, 0, 82, 127
2, 438564, Note_off_c, 0, 78, 0
2, 438632, Note_off_c, 0, 82, 0
2, 438636, Note_on_c, 0, 78, 127
2, 438696, Note_off_c, 0, 78, 0
2, 438708, Note_on_c, 0, 77, 127
2, 438768, Note_off_c, 0, 77, 0
2, 438768, Note_on_c, 0, 75, 127
2, 438840, Note_on_c, 0, 78, 127
2, 438848, Note_off_c, 0, 75, 0
2, 438900, Note_on_c, 0, 75, 127
2, 438916, Note_off_c, 0, 78, 0
2, 438964, Note_off_c, 0, 75, 0
2, 438964, Note_on_c, 0, 73, 127
2, 439016, Note_off_c, 0, 73, 0
2, 439016, Note_on_c, 0, 71, 127
2, 439072, Note_on_c, 0, 70, 127
2, 439080, Note_off_c, 0, 71, 0
2, 439132, Note_on_c, 0, 68, 127
2, 439148, Note_off_c, 0, 70, 0
2, 439184, Note_on_c, 0, 66, 127
2, 439200, Note_off_c, 0, 68, 0
2, 439224, Control_c, 0, 64, 63
2, 439248, Note_on_c, 0, 70, 127
2, 439260, Note_off_c, 0, 66, 0
2, 439264, Control_c, 0, 64, 127
2, 439300, Note_on_c, 0, 66, 127
2, 439316, Note_off_c, 0, 70, 0
2, 439360, Note_off_c, 0, 66, 0
2, 439360, Note_on_c, 0, 65, 127
2, 439404, Note_off_c, 0, 65, 0
2, 439408, Note_on_c, 0, 63, 127
2, 439460, Note_on_c, 0, 66, 127
2, 439472, Note_off_c, 0, 63, 0
2, 439508, Note_on_c, 0, 63, 127
2, 439536, Note_off_c, 0, 66, 0
2, 439560, Note_on_c, 0, 61, 127
2, 439568, Note_off_c, 0, 63, 0
2, 439612, Note_on_c, 0, 59, 127
2, 439616, Note_off_c, 0, 61, 0
2, 439672, Note_on_c, 0, 58, 127
2, 439680, Note_off_c, 0, 59, 0
2, 439728, Note_on_c, 0, 56, 127
2, 439744, Note_off_c, 0, 58, 0
2, 439788, Note_on_c, 0, 54, 127
2, 439804, Note_off_c, 0, 56, 0
2, 439804, Control_c, 0, 64, 63
2, 439852, Note_on_c, 0, 58, 127
2, 439860, Control_c, 0, 64, 127
2, 439864, Note_off_c, 0, 54, 0
2, 439916, Note_on_c, 0, 54, 127
2, 439932, Note_off_c, 0, 58, 0
2, 439976, Note_off_c, 0, 54, 0
2, 439980, Note_on_c, 0, 53, 127
2, 440040, Note_off_c, 0, 53, 0
2, 440040, Note_on_c, 0, 51, 127
2, 440104, Note_on_c, 0, 49, 127
2, 440108, Note_off_c, 0, 51, 0
2, 440160, Note_off_c, 0, 49, 0
2, 440160, Note_on_c, 0, 47, 127
2, 440232, Note_off_c, 0, 47, 0
2, 440232, Note_on_c, 0, 46, 127
2, 440296, Note_on_c, 0, 44, 127
2, 440320, Note_off_c, 0, 46, 0
2, 440344, Note_on_c, 0, 42, 127
2, 440380, Note_off_c, 0, 44, 0
2, 440412, Note_on_c, 0, 41, 127
2, 440416, Note_off_c, 0, 42, 0
2, 440472, Note_off_c, 0, 41, 0
2, 440472, Note_on_c, 0, 39, 127
2, 440536, Note_on_c, 0, 37, 127
2, 440540, Note_off_c, 0, 39, 0
2, 440588, Note_off_c, 0, 37, 0
2, 440608, Note_on_c, 0, 35, 127
2, 440668, Note_off_c, 0, 35, 0
2, 440684, Note_on_c, 0, 34, 127
2, 440752, Note_on_c, 0, 32, 127
2, 440776, Note_off_c, 0, 34, 0
2, 440812, Note_off_c, 0, 32, 0
2, 440828, Note_on_c, 0, 30, 127
2, 440856, Control_c, 0, 64, 63
2, 440864, Control_c, 0, 64, 0
2, 441192, Control_c, 0, 64, 127
2, 441236, Note_off_c, 0, 30, 0
2, 441520, Note_on_c, 0, 61, 127
2, 441520, Note_on_c, 0, 73, 127
2, 441524, Note_on_c, 0, 85, 127
2, 441524, Note_on_c, 0, 49, 127
2, 441556, Note_off_c, 0, 61, 0
2, 441560, Note_off_c, 0, 73, 0
2, 441560, Note_off_c, 0, 49, 0
2, 441564, Note_off_c, 0, 85, 0
2, 441828, Note_on_c, 0, 66, 127
2, 441832, Note_on_c, 0, 54, 127
2, 441832, Note_on_c, 0, 90, 127
2, 441836, Note_on_c, 0, 78, 127
2, 441876, Control_c, 0, 64, 63
2, 441880, Control_c, 0, 64, 0
2, 441920, Control_c, 0, 64, 63
2, 441928, Control_c, 0, 64, 127
2, 442148, Note_off_c, 0, 66, 0
2, 442148, Note_off_c, 0, 90, 0
2, 442184, Note_off_c, 0, 78, 0
2, 442212, Note_off_c, 0, 54, 0
2, 442620, Note_on_c, 0, 49, 127
2, 442620, Note_on_c, 0, 73, 127
2, 442624, Note_on_c, 0, 37, 127
2, 442624, Note_on_c, 0, 61, 127
2, 442632, Control_c, 0, 64, 63
2, 442636, Control_c, 0, 64, 0
2, 442684, Control_c, 0, 64, 63
2, 442700, Control_c, 0, 64, 127
2, 442776, Note_off_c, 0, 61, 0
2, 442780, Note_off_c, 0, 49, 0
2, 442804, Note_off_c, 0, 37, 0
2, 442808, Note_off_c, 0, 73, 0
2, 442980, Note_on_c, 0, 78, 127
2, 442984, Note_on_c, 0, 42, 127
2, 442984, Note_on_c, 0, 66, 127
2, 442984, Note_on_c, 0, 30, 127
2, 443044, Control_c, 0, 64, 63
2, 443056, Control_c, 0, 64, 0
2, 443344, Control_c, 0, 64, 63
2, 443368, Control_c, 0, 64, 127
2, 443640, Note_off_c, 0, 42, 0
2, 443652, Note_off_c, 0, 30, 0
2, 443660, Note_off_c, 0, 66, 0
2, 443704, Note_off_c, 0, 78, 0
2, 444084, Control_c, 0, 64, 63
2, 444112, Control_c, 0, 64, 0
2, 444112, End_track
3, 0, Start_track
3, 0, Key_signature, 0, "major"
3, 0, End_track
4, 0, Start_track
4, 0, Key_signature, 0, "major"
4, 0, End_track
5, 0, Start_track
5, 0, Key_signature, 0, "major"
5, 0, End_track
6, 0, Start_track
6, 0, Key_signature, 0, "major"
6, 0, End_track
7, 0, Start_track
7, 0, Key_signature, 0, "major"
7, 0, End_track
8, 0, Start_track
8, 0, Key_signature, 0, "major"
8, 0, End_track
9, 0, Start_track
9, 0, Key_signature, 0, "major"
9, 0, End_track
0, 0, End_of_file