0, 0, Header, 1, 3, 480
1, 0, Start_track
1, 0, Tempo, 833281
1, 0, Time_signature, 3, 2, 24, 8
1, 0, Copyright_t, "Copyright \251 1999 My Music Company"
1, 0, Title_t, "Piano Solo"
1, 32184, Tempo, 838913
1, 32208, Tempo, 844545
1, 32232, Tempo, 850177
1, 32256, Tempo, 856065
1, 32280, Tempo, 861953
1, 32304, Tempo, 867841
1, 32328, Tempo, 873985
1, 32352, Tempo, 880129
1, 32376, Tempo, 886529
1, 32400, Tempo, 892673
1, 32424, Tempo, 899073
1, 32448, Tempo, 905729
1, 32472, Tempo, 912385
1, 32496, Tempo, 919041
1, 32520, Tempo, 925697
1, 32544, Tempo, 932609
1, 32568, Tempo, 939777
1, 32592, Tempo, 946945
1, 32616, Tempo, 954113
1, 32640, Tempo, 961537
1, 32664, Tempo, 968961
1, 32688, Tempo, 976385
1, 32712, Tempo, 984065
1, 32736, Tempo, 992001
1, 32760, Tempo, 999937
1, 32784, Tempo, 1007873
1, 32808, Tempo, 1016065
1, 32832, Tempo, 1024513
1, 32856, Tempo, 1032961
1, 32880, Tempo, 1041665
1, 32904, Tempo, 1050369
1, 32928, Tempo, 1059329
1, 32952, Tempo, 1068289
1, 32976, Tempo, 1077505
1, 33000, Tempo, 1086977
1, 33024, Tempo, 1096449
1, 33048, Tempo, 1106177
1, 33060, Tempo, 1111041
1, 33120, Tempo, 833281
1, 46080, Time_signature, 2, 2, 24, 8
1, 90264, Tempo, 839169
1, 90288, Tempo, 845313
1, 90312, Tempo, 851457
1, 90336, Tempo, 857601
1, 90360, Tempo, 864001
1, 90384, Tempo, 870401
1, 90408, Tempo, 877057
1, 90432, Tempo, 883713
1, 90456, Tempo, 890369
1, 90480, Tempo, 897281
1, 90504, Tempo, 904193
1, 90528, Tempo, 911361
1, 90552, Tempo, 918529
1, 90576, Tempo, 925697
1, 90600, Tempo, 933121
1, 90624, Tempo, 940801
1, 90648, Tempo, 948481
1, 90672, Tempo, 956161
1, 90696, Tempo, 964097
1, 90720, Tempo, 972033
1, 90744, Tempo, 980225
1, 90768, Tempo, 988673
1, 90792, Tempo, 997121
1, 90816, Tempo, 1005569
1, 90840, Tempo, 1014273
1, 90864, Tempo, 1023233
1, 90888, Tempo, 1032449
1, 90912, Tempo, 1041665
1, 90936, Tempo, 1050881
1, 90960, Tempo, 1060609
1, 90984, Tempo, 1070337
1, 91008, Tempo, 1080065
1, 91032, Tempo, 1090305
1, 91056, Tempo, 1100545
1, 91080, Tempo, 1111041
1, 91200, Tempo, 2381569
1, 93096, Tempo, 1111041
1, 93096, End_track
2, 0, Start_track
2, 0, Control_c, 0, 7, 108
2, 0, Control_c, 0, 0, 0
2, 0, Control_c, 0, 32, 0
2, 0, Program_c, 0, 0
2, 0, Control_c, 0, 1, 0
2, 0, Control_c, 0, 10, 64
2, 0, Control_c, 0, 91, 0
2, 0, Control_c, 0, 93, 0
2, 0, Key_signature, -4, "major"
2, 0, Key_signature, -4, "major"
2, 0, Title_t, "Piano"
2, 0, Note_on_c, 0, 72, 100
2, 0, Note_on_c, 0, 60, 100
2, 456, Note_on_c, 0, 60, 0
2, 456, Note_on_c, 0, 72, 0
2, 480, Note_on_c, 0, 61, 100
2, 480, Note_on_c, 0, 73, 100
2, 960, Note_on_c, 0, 51, 100
2, 960, Note_on_c, 0, 66, 100
2, 960, Note_on_c, 0, 69, 100
2, 1188, Note_on_c, 0, 73, 0
2, 1188, Note_on_c, 0, 61, 0
2, 1200, Note_on_c, 0, 60, 100
2, 1200, Note_on_c, 0, 72, 100
2, 1416, Note_on_c, 0, 69, 0
2, 1416, Note_on_c, 0, 66, 0
2, 1416, Note_on_c, 0, 51, 0
2, 1428, Note_on_c, 0, 72, 0
2, 1428, Note_on_c, 0, 60, 0
2, 1440, Note_on_c, 0, 70, 100
2, 1440, Note_on_c, 0, 58, 100
2, 1440, Note_on_c, 0, 49, 100
2, 1440, Note_on_c, 0, 65, 100
2, 1668, Note_on_c, 0, 58, 0
2, 1668, Note_on_c, 0, 70, 0
2, 1680, Note_on_c, 0, 68, 100
2, 1680, Note_on_c, 0, 56, 100
2, 1908, Note_on_c, 0, 56, 0
2, 1908, Note_on_c, 0, 68, 0
2, 1920, Note_on_c, 0, 67, 100
2, 1920, Note_on_c, 0, 55, 100
2, 2376, Note_on_c, 0, 55, 0
2, 2376, Note_on_c, 0, 67, 0
2, 2376, Note_on_c, 0, 65, 0
2, 2376, Note_on_c, 0, 49, 0
2, 2880, Note_on_c, 0, 63, 100
2, 2880, Note_on_c, 0, 48, 100
2, 2880, Note_on_c, 0, 70, 100
2, 2880, Note_on_c, 0, 58, 100
2, 3108, Note_on_c, 0, 58, 0
2, 3108, Note_on_c, 0, 70, 0
2, 3120, Note_on_c, 0, 68, 100
2, 3120, Note_on_c, 0, 56, 100
2, 3348, Note_on_c, 0, 56, 0
2, 3348, Note_on_c, 0, 68, 0
2, 3360, Note_on_c, 0, 67, 100
2, 3360, Note_on_c, 0, 55, 100
2, 3816, Note_on_c, 0, 48, 0
2, 3840, Note_on_c, 0, 47, 100
2, 4296, Note_on_c, 0, 55, 0
2, 4296, Note_on_c, 0, 67, 0
2, 4296, Note_on_c, 0, 63, 0
2, 4320, Note_on_c, 0, 53, 100
2, 4320, Note_on_c, 0, 68, 100
2, 4320, Note_on_c, 0, 63, 100
2, 4548, Note_on_c, 0, 63, 0
2, 4560, Note_on_c, 0, 61, 100
2, 4752, Note_on_c, 0, 47, 0
2, 4788, Note_on_c, 0, 61, 0
2, 4800, Note_on_c, 0, 48, 100
2, 4800, Note_on_c, 0, 60, 100
2, 4830, Control_c, 0, 7, 107
2, 4870, Control_c, 0, 7, 106
2, 4920, Control_c, 0, 7, 105
2, 4971, Control_c, 0, 7, 104
2, 5011, Control_c, 0, 7, 103
2, 5062, Control_c, 0, 7, 102
2, 5112, Control_c, 0, 7, 101
2, 5152, Control_c, 0, 7, 100
2, 5203, Control_c, 0, 7, 99
2, 5243, Control_c, 0, 7, 98
2, 5256, Note_on_c, 0, 68, 0
2, 5256, Note_on_c, 0, 53, 0
2, 5256, Note_on_c, 0, 60, 0
2, 5280, Note_on_c, 0, 52, 100
2, 5280, Note_on_c, 0, 67, 100
2, 5280, Note_on_c, 0, 58, 100
2, 5293, Control_c, 0, 7, 97
2, 5344, Control_c, 0, 7, 96
2, 5384, Control_c, 0, 7, 95
2, 5435, Control_c, 0, 7, 94
2, 5485, Control_c, 0, 7, 93
2, 5525, Control_c, 0, 7, 92
2, 5576, Control_c, 0, 7, 91
2, 5626, Control_c, 0, 7, 90
2, 5736, Note_on_c, 0, 58, 0
2, 5736, Note_on_c, 0, 67, 0
2, 5736, Note_on_c, 0, 52, 0
2, 5736, Note_on_c, 0, 48, 0
2, 5760, Note_on_c, 0, 41, 100
2, 5760, Note_on_c, 0, 48, 100
2, 5760, Note_on_c, 0, 53, 100
2, 5760, Note_on_c, 0, 65, 100
2, 5760, Note_on_c, 0, 60, 100
2, 5760, Note_on_c, 0, 56, 100
2, 6696, Note_on_c, 0, 56, 0
2, 6696, Note_on_c, 0, 60, 0
2, 6696, Note_on_c, 0, 65, 0
2, 6696, Note_on_c, 0, 53, 0
2, 6696, Note_on_c, 0, 48, 0
2, 6696, Note_on_c, 0, 41, 0
2, 6720, Note_on_c, 0, 41, 100
2, 6720, Note_on_c, 0, 53, 100
2, 6720, Note_on_c, 0, 65, 100
2, 6720, Note_on_c, 0, 60, 100
2, 6720, Note_on_c, 0, 56, 100
2, 7176, Note_on_c, 0, 56, 0
2, 7176, Note_on_c, 0, 60, 0
2, 7176, Note_on_c, 0, 65, 0
2, 7176, Note_on_c, 0, 53, 0
2, 7176, Note_on_c, 0, 41, 0
2, 7200, Note_on_c, 0, 46, 100
2, 7200, Note_on_c, 0, 53, 100
2, 7200, Note_on_c, 0, 65, 100
2, 7200, Note_on_c, 0, 61, 100
2, 7200, Note_on_c, 0, 58, 100
2, 7656, Note_on_c, 0, 58, 0
2, 7656, Note_on_c, 0, 61, 0
2, 7656, Note_on_c, 0, 65, 0
2, 7656, Note_on_c, 0, 53, 0
2, 7656, Note_on_c, 0, 46, 0
2, 7680, Note_on_c, 0, 41, 100
2, 7680, Note_on_c, 0, 53, 100
2, 7680, Note_on_c, 0, 65, 100
2, 7680, Note_on_c, 0, 60, 100
2, 7680, Note_on_c, 0, 56, 100
2, 8136, Note_on_c, 0, 56, 0
2, 8136, Note_on_c, 0, 60, 0
2, 8136, Note_on_c, 0, 65, 0
2, 8136, Note_on_c, 0, 53, 0
2, 8136, Note_on_c, 0, 41, 0
2, 8640, Control_c, 0, 7, 78
2, 8640, Note_on_c, 0, 49, 100
2, 8640, Note_on_c, 0, 37, 100
2, 8640, Note_on_c, 0, 56, 100
2, 8640, Note_on_c, 0, 65, 100
2, 8868, Note_on_c, 0, 65, 0
2, 8868, Note_on_c, 0, 56, 0
2, 8880, Note_on_c, 0, 53, 100
2, 9108, Note_on_c, 0, 53, 0
2, 9120, Note_on_c, 0, 58, 100
2, 9120, Note_on_c, 0, 65, 100
2, 9348, Note_on_c, 0, 65, 0
2, 9348, Note_on_c, 0, 58, 0
2, 9360, Note_on_c, 0, 55, 100
2, 9588, Note_on_c, 0, 55, 0
2, 9600, Note_on_c, 0, 59, 100
2, 9600, Note_on_c, 0, 65, 100
2, 9620, Control_c, 0, 7, 79
2, 9650, Control_c, 0, 7, 80
2, 9680, Control_c, 0, 7, 81
2, 9710, Control_c, 0, 7, 82
2, 9741, Control_c, 0, 7, 83
2, 9771, Control_c, 0, 7, 84
2, 9801, Control_c, 0, 7, 85
2, 9828, Note_on_c, 0, 65, 0
2, 9828, Note_on_c, 0, 59, 0
2, 9831, Control_c, 0, 7, 86
2, 9840, Note_on_c, 0, 56, 100
2, 9862, Control_c, 0, 7, 87
2, 9892, Control_c, 0, 7, 88
2, 9922, Control_c, 0, 7, 89
2, 9952, Control_c, 0, 7, 90
2, 10056, Note_on_c, 0, 37, 0
2, 10056, Note_on_c, 0, 49, 0
2, 10068, Note_on_c, 0, 56, 0
2, 10080, Note_on_c, 0, 60, 100
2, 10080, Note_on_c, 0, 65, 100
2, 10080, Note_on_c, 0, 36, 100
2, 10080, Note_on_c, 0, 48, 100
2, 10100, Control_c, 0, 7, 89
2, 10130, Control_c, 0, 7, 88
2, 10160, Control_c, 0, 7, 87
2, 10190, Control_c, 0, 7, 86
2, 10221, Control_c, 0, 7, 85
2, 10251, Control_c, 0, 7, 84
2, 10281, Control_c, 0, 7, 83
2, 10308, Note_on_c, 0, 65, 0
2, 10308, Note_on_c, 0, 60, 0
2, 10311, Control_c, 0, 7, 82
2, 10320, Note_on_c, 0, 56, 100
2, 10342, Control_c, 0, 7, 81
2, 10372, Control_c, 0, 7, 80
2, 10402, Control_c, 0, 7, 79
2, 10432, Control_c, 0, 7, 78
2, 10548, Note_on_c, 0, 56, 0
2, 10560, Note_on_c, 0, 60, 100
2, 10560, Note_on_c, 0, 64, 100
2, 10788, Note_on_c, 0, 64, 0
2, 10788, Note_on_c, 0, 60, 0
2, 10800, Note_on_c, 0, 55, 100
2, 11016, Note_on_c, 0, 48, 0
2, 11016, Note_on_c, 0, 36, 0
2, 11028, Note_on_c, 0, 55, 0
2, 11040, Note_on_c, 0, 58, 100
2, 11040, Note_on_c, 0, 61, 100
2, 11060, Control_c, 0, 7, 79
2, 11090, Control_c, 0, 7, 80
2, 11120, Control_c, 0, 7, 81
2, 11150, Control_c, 0, 7, 82
2, 11181, Control_c, 0, 7, 83
2, 11211, Control_c, 0, 7, 84
2, 11241, Control_c, 0, 7, 85
2, 11268, Note_on_c, 0, 61, 0
2, 11268, Note_on_c, 0, 58, 0
2, 11271, Control_c, 0, 7, 86
2, 11280, Note_on_c, 0, 60, 100
2, 11280, Note_on_c, 0, 55, 100
2, 11302, Control_c, 0, 7, 87
2, 11332, Control_c, 0, 7, 88
2, 11362, Control_c, 0, 7, 89
2, 11392, Control_c, 0, 7, 90
2, 11508, Note_on_c, 0, 55, 0
2, 11508, Note_on_c, 0, 60, 0
2, 11520, Note_on_c, 0, 41, 100
2, 11520, Note_on_c, 0, 48, 100
2, 11520, Note_on_c, 0, 53, 100
2, 11520, Note_on_c, 0, 65, 100
2, 11520, Note_on_c, 0, 60, 100
2, 11520, Note_on_c, 0, 56, 100
2, 12456, Note_on_c, 0, 56, 0
2, 12456, Note_on_c, 0, 60, 0
2, 12456, Note_on_c, 0, 65, 0
2, 12456, Note_on_c, 0, 53, 0
2, 12456, Note_on_c, 0, 48, 0
2, 12456, Note_on_c, 0, 41, 0
2, 12480, Note_on_c, 0, 41, 100
2, 12480, Note_on_c, 0, 53, 100
2, 12480, Note_on_c, 0, 65, 100
2, 12480, Note_on_c, 0, 60, 100
2, 12480, Note_on_c, 0, 56, 100
2, 12936, Note_on_c, 0, 56, 0
2, 12936, Note_on_c, 0, 60, 0
2, 12936, Note_on_c, 0, 65, 0
2, 12936, Note_on_c, 0, 53, 0
2, 12936, Note_on_c, 0, 41, 0
2, 12960, Note_on_c, 0, 65, 100
2, 12960, Note_on_c, 0, 61, 100
2, 12960, Note_on_c, 0, 56, 100
2, 12960, Note_on_c, 0, 37, 100
2, 12960, Note_on_c, 0, 49, 100
2, 12960, Note_on_c, 0, 53, 100
2, 13416, Note_on_c, 0, 53, 0
2, 13416, Note_on_c, 0, 49, 0
2, 13416, Note_on_c, 0, 37, 0
2, 13416, Note_on_c, 0, 56, 0
2, 13416, Note_on_c, 0, 61, 0
2, 13416, Note_on_c, 0, 65, 0
2, 13440, Note_on_c, 0, 65, 100
2, 13440, Note_on_c, 0, 60, 100
2, 13440, Note_on_c, 0, 53, 100
2, 13440, Note_on_c, 0, 44, 100
2, 13440, Note_on_c, 0, 32, 100
2, 14160, Control_c, 0, 7, 78
2, 14370, Note_on_c, 0, 53, 100
2, 14376, Note_on_c, 0, 32, 0
2, 14376, Note_on_c, 0, 53, 0
2, 14376, Note_on_c, 0, 60, 0
2, 14376, Note_on_c, 0, 65, 0
2, 14400, Note_on_c, 0, 59, 100
2, 14400, Note_on_c, 0, 65, 100
2, 14628, Note_on_c, 0, 65, 0
2, 14628, Note_on_c, 0, 59, 0
2, 14640, Note_on_c, 0, 53, 100
2, 14826, Note_on_c, 0, 53, 0
2, 14856, Note_on_c, 0, 44, 0
2, 14868, Note_on_c, 0, 53, 0
2, 14880, Note_on_c, 0, 59, 100
2, 14880, Note_on_c, 0, 65, 100
2, 14880, Note_on_c, 0, 43, 100
2, 15108, Note_on_c, 0, 65, 0
2, 15108, Note_on_c, 0, 59, 0
2, 15120, Note_on_c, 0, 55, 100
2, 15348, Note_on_c, 0, 55, 0
2, 15360, Note_on_c, 0, 59, 100
2, 15360, Note_on_c, 0, 65, 100
2, 15360, Note_on_c, 0, 62, 100
2, 15588, Note_on_c, 0, 62, 0
2, 15588, Note_on_c, 0, 65, 0
2, 15588, Note_on_c, 0, 59, 0
2, 15600, Note_on_c, 0, 55, 100
2, 15816, Note_on_c, 0, 43, 0
2, 15828, Note_on_c, 0, 55, 0
2, 15840, Note_on_c, 0, 60, 100
2, 15840, Note_on_c, 0, 64, 100
2, 15840, Note_on_c, 0, 48, 100
2, 16068, Note_on_c, 0, 64, 0
2, 16068, Note_on_c, 0, 60, 0
2, 16080, Note_on_c, 0, 55, 100
2, 16308, Note_on_c, 0, 55, 0
2, 16320, Note_on_c, 0, 60, 100
2, 16320, Note_on_c, 0, 64, 100
2, 16548, Note_on_c, 0, 64, 0
2, 16548, Note_on_c, 0, 60, 0
2, 16560, Note_on_c, 0, 55, 100
2, 16776, Note_on_c, 0, 48, 0
2, 16788, Note_on_c, 0, 55, 0
2, 16800, Note_on_c, 0, 61, 100
2, 16800, Note_on_c, 0, 63, 100
2, 16800, Note_on_c, 0, 46, 100
2, 16820, Control_c, 0, 7, 79
2, 16850, Control_c, 0, 7, 80
2, 16880, Control_c, 0, 7, 81
2, 16910, Control_c, 0, 7, 82
2, 16941, Control_c, 0, 7, 83
2, 16971, Control_c, 0, 7, 84
2, 17001, Control_c, 0, 7, 85
2, 17028, Note_on_c, 0, 63, 0
2, 17028, Note_on_c, 0, 61, 0
2, 17031, Control_c, 0, 7, 86
2, 17040, Note_on_c, 0, 55, 100
2, 17062, Control_c, 0, 7, 87
2, 17092, Control_c, 0, 7, 88
2, 17122, Control_c, 0, 7, 89
2, 17152, Control_c, 0, 7, 90
2, 17256, Note_on_c, 0, 46, 0
2, 17268, Note_on_c, 0, 55, 0
2, 17280, Note_on_c, 0, 32, 100
2, 17280, Note_on_c, 0, 44, 100
2, 17280, Note_on_c, 0, 51, 100
2, 17280, Note_on_c, 0, 63, 100
2, 17280, Note_on_c, 0, 60, 100
2, 17280, Note_on_c, 0, 56, 100
2, 18216, Note_on_c, 0, 56, 0
2, 18216, Note_on_c, 0, 60, 0
2, 18216, Note_on_c, 0, 63, 0
2, 18216, Note_on_c, 0, 51, 0
2, 18216, Note_on_c, 0, 44, 0
2, 18216, Note_on_c, 0, 32, 0
2, 18240, Note_on_c, 0, 32, 100
2, 18240, Note_on_c, 0, 44, 100
2, 18240, Note_on_c, 0, 51, 100
2, 18240, Note_on_c, 0, 60, 100
2, 18240, Note_on_c, 0, 56, 100
2, 18696, Note_on_c, 0, 56, 0
2, 18696, Note_on_c, 0, 60, 0
2, 18696, Note_on_c, 0, 51, 0
2, 18696, Note_on_c, 0, 44, 0
2, 18696, Note_on_c, 0, 32, 0
2, 18720, Note_on_c, 0, 61, 100
2, 18720, Note_on_c, 0, 57, 100
2, 18720, Note_on_c, 0, 52, 100
2, 18720, Note_on_c, 0, 31, 100
2, 18720, Note_on_c, 0, 43, 100
2, 19176, Note_on_c, 0, 43, 0
2, 19176, Note_on_c, 0, 31, 0
2, 19176, Note_on_c, 0, 52, 0
2, 19176, Note_on_c, 0, 57, 0
2, 19176, Note_on_c, 0, 61, 0
2, 19200, Note_on_c, 0, 61, 100
2, 19200, Note_on_c, 0, 58, 100
2, 19200, Note_on_c, 0, 51, 100
2, 19200, Note_on_c, 0, 31, 100
2, 19200, Note_on_c, 0, 43, 100
2, 19656, Note_on_c, 0, 43, 0
2, 19656, Note_on_c, 0, 31, 0
2, 19656, Note_on_c, 0, 51, 0
2, 19656, Note_on_c, 0, 58, 0
2, 19656, Note_on_c, 0, 61, 0
2, 19680, Control_c, 0, 7, 78
2, 19680, Note_on_c, 0, 58, 100
2, 19680, Note_on_c, 0, 63, 100
2, 19680, Note_on_c, 0, 61, 100
2, 19908, Note_on_c, 0, 61, 0
2, 19908, Note_on_c, 0, 63, 0
2, 19908, Note_on_c, 0, 58, 0
2, 19920, Note_on_c, 0, 51, 100
2, 20148, Note_on_c, 0, 51, 0
2, 20160, Note_on_c, 0, 44, 100
2, 20160, Note_on_c, 0, 32, 100
2, 20160, Note_on_c, 0, 60, 100
2, 20160, Note_on_c, 0, 63, 100
2, 20160, Note_on_c, 0, 68, 100
2, 20388, Note_on_c, 0, 68, 0
2, 20388, Note_on_c, 0, 63, 0
2, 20388, Note_on_c, 0, 60, 0
2, 20400, Note_on_c, 0, 54, 100
2, 20628, Note_on_c, 0, 54, 0
2, 20640, Note_on_c, 0, 60, 100
2, 20640, Note_on_c, 0, 63, 100
2, 20640, Note_on_c, 0, 68, 100
2, 20868, Note_on_c, 0, 68, 0
2, 20868, Note_on_c, 0, 63, 0
2, 20868, Note_on_c, 0, 60, 0
2, 20880, Note_on_c, 0, 54, 100
2, 21108, Note_on_c, 0, 54, 0
2, 21120, Note_on_c, 0, 60, 100
2, 21120, Note_on_c, 0, 63, 100
2, 21120, Note_on_c, 0, 68, 100
2, 21348, Note_on_c, 0, 68, 0
2, 21348, Note_on_c, 0, 63, 0
2, 21348, Note_on_c, 0, 60, 0
2, 21360, Note_on_c, 0, 54, 100
2, 21576, Note_on_c, 0, 32, 0
2, 21576, Note_on_c, 0, 44, 0
2, 21588, Note_on_c, 0, 54, 0
2, 21600, Note_on_c, 0, 61, 100
2, 21600, Note_on_c, 0, 68, 100
2, 21600, Note_on_c, 0, 49, 100
2, 21600, Note_on_c, 0, 37, 100
2, 21828, Note_on_c, 0, 68, 0
2, 21828, Note_on_c, 0, 61, 0
2, 21840, Note_on_c, 0, 53, 100
2, 22068, Note_on_c, 0, 53, 0
2, 22080, Note_on_c, 0, 61, 100
2, 22080, Note_on_c, 0, 65, 100
2, 22308, Note_on_c, 0, 65, 0
2, 22308, Note_on_c, 0, 61, 0
2, 22320, Note_on_c, 0, 56, 100
2, 22548, Note_on_c, 0, 56, 0
2, 22560, Note_on_c, 0, 65, 100
2, 22788, Note_on_c, 0, 65, 0
2, 22800, Note_on_c, 0, 55, 100
2, 23016, Note_on_c, 0, 37, 0
2, 23016, Note_on_c, 0, 49, 0
2, 23028, Note_on_c, 0, 55, 0
2, 23040, Note_on_c, 0, 48, 100
2, 23040, Note_on_c, 0, 36, 100
2, 23040, Note_on_c, 0, 58, 100
2, 23040, Note_on_c, 0, 64, 100
2, 23268, Note_on_c, 0, 64, 0
2, 23268, Note_on_c, 0, 58, 0
2, 23280, Note_on_c, 0, 55, 100
2, 23508, Note_on_c, 0, 55, 0
2, 23520, Note_on_c, 0, 58, 100
2, 23520, Note_on_c, 0, 64, 100
2, 23748, Note_on_c, 0, 64, 0
2, 23748, Note_on_c, 0, 58, 0
2, 23760, Note_on_c, 0, 55, 100
2, 23988, Note_on_c, 0, 55, 0
2, 24000, Note_on_c, 0, 58, 100
2, 24000, Note_on_c, 0, 64, 100
2, 24228, Note_on_c, 0, 64, 0
2, 24228, Note_on_c, 0, 58, 0
2, 24240, Note_on_c, 0, 55, 100
2, 24456, Note_on_c, 0, 36, 0
2, 24456, Note_on_c, 0, 48, 0
2, 24468, Note_on_c, 0, 55, 0
2, 24480, Note_on_c, 0, 56, 100
2, 24480, Note_on_c, 0, 65, 100
2, 24480, Note_on_c, 0, 60, 100
2, 24480, Note_on_c, 0, 41, 100
2, 24708, Note_on_c, 0, 60, 0
2, 24708, Note_on_c, 0, 65, 0
2, 24708, Note_on_c, 0, 56, 0
2, 24720, Note_on_c, 0, 53, 100
2, 24948, Note_on_c, 0, 53, 0
2, 24960, Note_on_c, 0, 56, 100
2, 24960, Note_on_c, 0, 65, 100
2, 24960, Note_on_c, 0, 60, 100
2, 25188, Note_on_c, 0, 60, 0
2, 25188, Note_on_c, 0, 65, 0
2, 25188, Note_on_c, 0, 56, 0
2, 25200, Note_on_c, 0, 53, 100
2, 25416, Note_on_c, 0, 41, 0
2, 25428, Note_on_c, 0, 53, 0
2, 25440, Note_on_c, 0, 56, 100
2, 25440, Note_on_c, 0, 65, 100
2, 25440, Note_on_c, 0, 60, 100
2, 25440, Note_on_c, 0, 44, 100
2, 25668, Note_on_c, 0, 44, 0
2, 25668, Note_on_c, 0, 60, 0
2, 25668, Note_on_c, 0, 65, 0
2, 25668, Note_on_c, 0, 56, 0
2, 25680, Note_on_c, 0, 53, 100
2, 25680, Note_on_c, 0, 46, 100
2, 25908, Note_on_c, 0, 46, 0
2, 25908, Note_on_c, 0, 53, 0
2, 25920, Note_on_c, 0, 48, 100
2, 25920, Note_on_c, 0, 36, 100
2, 25920, Note_on_c, 0, 58, 100
2, 25920, Note_on_c, 0, 64, 100
2, 26148, Note_on_c, 0, 64, 0
2, 26148, Note_on_c, 0, 58, 0
2, 26160, Note_on_c, 0, 55, 100
2, 26388, Note_on_c, 0, 55, 0
2, 26400, Note_on_c, 0, 58, 100
2, 26400, Note_on_c, 0, 64, 100
2, 26628, Note_on_c, 0, 64, 0
2, 26628, Note_on_c, 0, 58, 0
2, 26640, Note_on_c, 0, 55, 100
2, 26868, Note_on_c, 0, 55, 0
2, 26880, Note_on_c, 0, 58, 100
2, 26880, Note_on_c, 0, 64, 100
2, 27108, Note_on_c, 0, 64, 0
2, 27108, Note_on_c, 0, 58, 0
2, 27120, Note_on_c, 0, 55, 100
2, 27348, Note_on_c, 0, 55, 0
2, 27360, Note_on_c, 0, 56, 100
2, 27360, Note_on_c, 0, 65, 100
2, 27360, Note_on_c, 0, 60, 100
2, 27588, Note_on_c, 0, 60, 0
2, 27588, Note_on_c, 0, 65, 0
2, 27588, Note_on_c, 0, 56, 0
2, 27600, Note_on_c, 0, 53, 100
2, 27828, Note_on_c, 0, 53, 0
2, 27840, Note_on_c, 0, 56, 100
2, 27840, Note_on_c, 0, 65, 100
2, 27840, Note_on_c, 0, 60, 100
2, 28068, Note_on_c, 0, 60, 0
2, 28068, Note_on_c, 0, 65, 0
2, 28068, Note_on_c, 0, 56, 0
2, 28080, Note_on_c, 0, 53, 100
2, 28308, Note_on_c, 0, 53, 0
2, 28320, Note_on_c, 0, 56, 100
2, 28320, Note_on_c, 0, 65, 100
2, 28320, Note_on_c, 0, 60, 100
2, 28548, Note_on_c, 0, 60, 0
2, 28548, Note_on_c, 0, 65, 0
2, 28548, Note_on_c, 0, 56, 0
2, 28560, Note_on_c, 0, 53, 100
2, 28776, Note_on_c, 0, 36, 0
2, 28776, Note_on_c, 0, 48, 0
2, 28788, Note_on_c, 0, 53, 0
2, 28800, Note_on_c, 0, 55, 100
2, 28800, Note_on_c, 0, 64, 100
2, 28800, Note_on_c, 0, 48, 100
2, 28800, Note_on_c, 0, 36, 100
2, 28800, Note_on_c, 0, 60, 100
2, 29028, Note_on_c, 0, 60, 0
2, 29028, Note_on_c, 0, 64, 0
2, 29028, Note_on_c, 0, 55, 0
2, 29040, Note_on_c, 0, 52, 100
2, 29268, Note_on_c, 0, 52, 0
2, 29280, Note_on_c, 0, 55, 100
2, 29280, Note_on_c, 0, 64, 100
2, 29280, Note_on_c, 0, 60, 100
2, 29508, Note_on_c, 0, 60, 0
2, 29508, Note_on_c, 0, 64, 0
2, 29508, Note_on_c, 0, 55, 0
2, 29520, Note_on_c, 0, 52, 100
2, 29748, Note_on_c, 0, 52, 0
2, 29760, Note_on_c, 0, 55, 100
2, 29760, Note_on_c, 0, 64, 100
2, 29760, Note_on_c, 0, 60, 100
2, 29988, Note_on_c, 0, 60, 0
2, 29988, Note_on_c, 0, 64, 0
2, 29988, Note_on_c, 0, 55, 0
2, 30000, Note_on_c, 0, 52, 100
2, 30216, Note_on_c, 0, 36, 0
2, 30216, Note_on_c, 0, 48, 0
2, 30228, Note_on_c, 0, 52, 0
2, 30240, Note_on_c, 0, 62, 100
2, 30240, Note_on_c, 0, 59, 100
2, 30240, Note_on_c, 0, 48, 100
2, 30240, Note_on_c, 0, 36, 100
2, 30468, Note_on_c, 0, 59, 0
2, 30468, Note_on_c, 0, 62, 0
2, 30480, Note_on_c, 0, 53, 100
2, 30708, Note_on_c, 0, 53, 0
2, 30720, Note_on_c, 0, 62, 100
2, 30720, Note_on_c, 0, 59, 100
2, 30948, Note_on_c, 0, 59, 0
2, 30948, Note_on_c, 0, 62, 0
2, 30960, Note_on_c, 0, 53, 100
2, 31188, Note_on_c, 0, 53, 0
2, 31200, Note_on_c, 0, 61, 100
2, 31200, Note_on_c, 0, 58, 100
2, 31428, Note_on_c, 0, 58, 0
2, 31428, Note_on_c, 0, 61, 0
2, 31440, Note_on_c, 0, 53, 100
2, 31656, Note_on_c, 0, 36, 0
2, 31656, Note_on_c, 0, 48, 0
2, 31668, Note_on_c, 0, 53, 0
2, 31680, Note_on_c, 0, 48, 100
2, 31680, Note_on_c, 0, 36, 100
2, 31680, Note_on_c, 0, 60, 100
2, 31680, Note_on_c, 0, 56, 100
2, 31908, Note_on_c, 0, 56, 0
2, 31908, Note_on_c, 0, 60, 0
2, 31920, Note_on_c, 0, 53, 100
2, 32148, Note_on_c, 0, 53, 0
2, 32160, Note_on_c, 0, 61, 100
2, 32160, Note_on_c, 0, 58, 100
2, 32160, Note_on_c, 0, 55, 100
2, 32388, Note_on_c, 0, 55, 0
2, 32388, Note_on_c, 0, 58, 0
2, 32388, Note_on_c, 0, 61, 0
2, 32400, Note_on_c, 0, 53, 100
2, 32628, Note_on_c, 0, 53, 0
2, 32640, Note_on_c, 0, 60, 100
2, 32640, Note_on_c, 0, 58, 100
2, 32640, Note_on_c, 0, 55, 100
2, 32868, Note_on_c, 0, 55, 0
2, 32868, Note_on_c, 0, 58, 0
2, 32868, Note_on_c, 0, 60, 0
2, 32880, Note_on_c, 0, 52, 100
2, 33096, Note_on_c, 0, 36, 0
2, 33096, Note_on_c, 0, 48, 0
2, 33108, Note_on_c, 0, 52, 0
2, 33120, Note_on_c, 0, 48, 100
2, 33120, Note_on_c, 0, 41, 100
2, 33120, Note_on_c, 0, 53, 100
2, 33120, Note_on_c, 0, 56, 100
2, 33348, Note_on_c, 0, 56, 0
2, 33348, Note_on_c, 0, 53, 0
2, 33360, Note_on_c, 0, 60, 100
2, 33576, Note_on_c, 0, 41, 0
2, 33576, Note_on_c, 0, 48, 0
2, 33588, Note_on_c, 0, 60, 0
2, 33600, Note_on_c, 0, 65, 100
2, 33828, Note_on_c, 0, 65, 0
2, 33840, Note_on_c, 0, 68, 100
2, 34068, Note_on_c, 0, 68, 0
2, 34080, Note_on_c, 0, 72, 100
2, 34536, Note_on_c, 0, 72, 0
2, 34560, Note_on_c, 0, 68, 100
2, 34560, Note_on_c, 0, 53, 100
2, 34560, Note_on_c, 0, 72, 100
2, 34560, Note_on_c, 0, 60, 100
2, 34600, Control_c, 0, 7, 79
2, 34680, Control_c, 0, 7, 80
2, 34761, Control_c, 0, 7, 81
2, 34788, Note_on_c, 0, 72, 0
2, 34800, Note_on_c, 0, 77, 100
2, 34832, Control_c, 0, 7, 82
2, 34912, Control_c, 0, 7, 83
2, 34993, Control_c, 0, 7, 84
2, 35016, Note_on_c, 0, 60, 0
2, 35016, Note_on_c, 0, 53, 0
2, 35016, Note_on_c, 0, 68, 0
2, 35028, Note_on_c, 0, 77, 0
2, 35040, Note_on_c, 0, 80, 100
2, 35074, Control_c, 0, 7, 85
2, 35144, Control_c, 0, 7, 86
2, 35225, Control_c, 0, 7, 87
2, 35268, Note_on_c, 0, 80, 0
2, 35280, Note_on_c, 0, 83, 100
2, 35305, Control_c, 0, 7, 88
2, 35376, Control_c, 0, 7, 89
2, 35457, Control_c, 0, 7, 90
2, 35508, Note_on_c, 0, 83, 0
2, 35520, Note_on_c, 0, 84, 100
2, 35537, Control_c, 0, 7, 91
2, 35618, Control_c, 0, 7, 92
2, 35688, Control_c, 0, 7, 93
2, 35769, Control_c, 0, 7, 94
2, 35850, Control_c, 0, 7, 95
2, 35976, Note_on_c, 0, 84, 0
2, 36000, Note_on_c, 0, 80, 100
2, 36040, Control_c, 0, 7, 94
2, 36120, Control_c, 0, 7, 93
2, 36201, Control_c, 0, 7, 92
2, 36228, Note_on_c, 0, 80, 0
2, 36240, Note_on_c, 0, 77, 100
2, 36272, Control_c, 0, 7, 91
2, 36352, Control_c, 0, 7, 90
2, 36433, Control_c, 0, 7, 89
2, 36468, Note_on_c, 0, 77, 0
2, 36480, Note_on_c, 0, 72, 100
2, 36514, Control_c, 0, 7, 88
2, 36584, Control_c, 0, 7, 87
2, 36665, Control_c, 0, 7, 86
2, 36708, Note_on_c, 0, 72, 0
2, 36720, Note_on_c, 0, 80, 100
2, 36745, Control_c, 0, 7, 85
2, 36816, Control_c, 0, 7, 84
2, 36897, Control_c, 0, 7, 83
2, 36948, Note_on_c, 0, 80, 0
2, 36960, Note_on_c, 0, 79, 100
2, 36960, Note_on_c, 0, 60, 100
2, 36960, Note_on_c, 0, 64, 100
2, 36960, Note_on_c, 0, 70, 100
2, 36977, Control_c, 0, 7, 82
2, 37058, Control_c, 0, 7, 81
2, 37128, Control_c, 0, 7, 80
2, 37209, Control_c, 0, 7, 79
2, 37290, Control_c, 0, 7, 78
2, 37416, Note_on_c, 0, 70, 0
2, 37416, Note_on_c, 0, 64, 0
2, 37416, Note_on_c, 0, 60, 0
2, 37416, Note_on_c, 0, 79, 0
2, 37440, Note_on_c, 0, 65, 100
2, 37440, Note_on_c, 0, 68, 100
2, 37440, Note_on_c, 0, 72, 100
2, 37480, Control_c, 0, 7, 79
2, 37560, Control_c, 0, 7, 80
2, 37641, Control_c, 0, 7, 81
2, 37668, Note_on_c, 0, 72, 0
2, 37680, Note_on_c, 0, 77, 100
2, 37712, Control_c, 0, 7, 82
2, 37792, Control_c, 0, 7, 83
2, 37873, Control_c, 0, 7, 84
2, 37896, Note_on_c, 0, 68, 0
2, 37896, Note_on_c, 0, 65, 0
2, 37908, Note_on_c, 0, 77, 0
2, 37920, Note_on_c, 0, 80, 100
2, 37954, Control_c, 0, 7, 85
2, 38024, Control_c, 0, 7, 86
2, 38105, Control_c, 0, 7, 87
2, 38148, Note_on_c, 0, 80, 0
2, 38160, Note_on_c, 0, 83, 100
2, 38185, Control_c, 0, 7, 88
2, 38256, Control_c, 0, 7, 89
2, 38337, Control_c, 0, 7, 90
2, 38388, Note_on_c, 0, 83, 0
2, 38400, Note_on_c, 0, 84, 100
2, 38417, Control_c, 0, 7, 91
2, 38498, Control_c, 0, 7, 92
2, 38568, Control_c, 0, 7, 93
2, 38649, Control_c, 0, 7, 94
2, 38730, Control_c, 0, 7, 95
2, 38856, Note_on_c, 0, 84, 0
2, 38880, Note_on_c, 0, 80, 100
2, 38920, Control_c, 0, 7, 94
2, 39000, Control_c, 0, 7, 93
2, 39081, Control_c, 0, 7, 92
2, 39108, Note_on_c, 0, 80, 0
2, 39120, Note_on_c, 0, 77, 100
2, 39152, Control_c, 0, 7, 91
2, 39232, Control_c, 0, 7, 90
2, 39313, Control_c, 0, 7, 89
2, 39348, Note_on_c, 0, 77, 0
2, 39360, Note_on_c, 0, 72, 100
2, 39394, Control_c, 0, 7, 88
2, 39464, Control_c, 0, 7, 87
2, 39545, Control_c, 0, 7, 86
2, 39588, Note_on_c, 0, 72, 0
2, 39600, Note_on_c, 0, 80, 100
2, 39625, Control_c, 0, 7, 85
2, 39696, Control_c, 0, 7, 84
2, 39777, Control_c, 0, 7, 83
2, 39828, Note_on_c, 0, 80, 0
2, 39840, Note_on_c, 0, 79, 100
2, 39840, Note_on_c, 0, 60, 100
2, 39840, Note_on_c, 0, 64, 100
2, 39840, Note_on_c, 0, 70, 100
2, 39857, Control_c, 0, 7, 82
2, 39938, Control_c, 0, 7, 81
2, 40008, Control_c, 0, 7, 80
2, 40089, Control_c, 0, 7, 79
2, 40170, Control_c, 0, 7, 78
2, 40296, Note_on_c, 0, 70, 0
2, 40296, Note_on_c, 0, 64, 0
2, 40296, Note_on_c, 0, 60, 0
2, 40296, Note_on_c, 0, 79, 0
2, 40320, Note_on_c, 0, 65, 100
2, 40320, Note_on_c, 0, 68, 100
2, 40320, Note_on_c, 0, 72, 100
2, 40360, Control_c, 0, 7, 79
2, 40440, Control_c, 0, 7, 80
2, 40521, Control_c, 0, 7, 81
2, 40548, Note_on_c, 0, 72, 0
2, 40560, Note_on_c, 0, 77, 100
2, 40592, Control_c, 0, 7, 82
2, 40672, Control_c, 0, 7, 83
2, 40753, Control_c, 0, 7, 84
2, 40776, Note_on_c, 0, 68, 0
2, 40776, Note_on_c, 0, 65, 0
2, 40788, Note_on_c, 0, 77, 0
2, 40800, Note_on_c, 0, 80, 100
2, 40834, Control_c, 0, 7, 85
2, 40904, Control_c, 0, 7, 86
2, 40985, Control_c, 0, 7, 87
2, 41028, Note_on_c, 0, 80, 0
2, 41040, Note_on_c, 0, 83, 100
2, 41065, Control_c, 0, 7, 88
2, 41136, Control_c, 0, 7, 89
2, 41217, Control_c, 0, 7, 90
2, 41268, Note_on_c, 0, 83, 0
2, 41280, Note_on_c, 0, 84, 100
2, 41297, Control_c, 0, 7, 91
2, 41378, Control_c, 0, 7, 92
2, 41448, Control_c, 0, 7, 93
2, 41529, Control_c, 0, 7, 94
2, 41610, Control_c, 0, 7, 95
2, 41736, Note_on_c, 0, 84, 0
2, 41760, Note_on_c, 0, 80, 100
2, 41800, Control_c, 0, 7, 94
2, 41880, Control_c, 0, 7, 93
2, 41961, Control_c, 0, 7, 92
2, 41988, Note_on_c, 0, 80, 0
2, 42000, Note_on_c, 0, 77, 100
2, 42032, Control_c, 0, 7, 91
2, 42112, Control_c, 0, 7, 90
2, 42193, Control_c, 0, 7, 89
2, 42228, Note_on_c, 0, 77, 0
2, 42240, Note_on_c, 0, 72, 100
2, 42274, Control_c, 0, 7, 88
2, 42344, Control_c, 0, 7, 87
2, 42425, Control_c, 0, 7, 86
2, 42468, Note_on_c, 0, 72, 0
2, 42480, Note_on_c, 0, 68, 100
2, 42505, Control_c, 0, 7, 85
2, 42576, Control_c, 0, 7, 84
2, 42657, Control_c, 0, 7, 83
2, 42708, Note_on_c, 0, 68, 0
2, 42720, Note_on_c, 0, 65, 100
2, 42737, Control_c, 0, 7, 82
2, 42818, Control_c, 0, 7, 81
2, 42888, Control_c, 0, 7, 80
2, 42969, Control_c, 0, 7, 79
2, 43050, Control_c, 0, 7, 78
2, 43176, Note_on_c, 0, 65, 0
2, 43200, Note_on_c, 0, 60, 100
2, 43200, Note_on_c, 0, 56, 100
2, 43200, Note_on_c, 0, 53, 100
2, 43200, Note_on_c, 0, 41, 100
2, 43200, Note_on_c, 0, 29, 100
2, 44616, Note_on_c, 0, 29, 0
2, 44616, Note_on_c, 0, 41, 0
2, 44616, Note_on_c, 0, 53, 0
2, 44616, Note_on_c, 0, 56, 0
2, 44616, Note_on_c, 0, 60, 0
2, 44640, Note_on_c, 0, 63, 100
2, 44640, Note_on_c, 0, 58, 100
2, 44640, Note_on_c, 0, 51, 100
2, 44640, Note_on_c, 0, 43, 100
2, 44640, Note_on_c, 0, 31, 100
2, 46056, Note_on_c, 0, 31, 0
2, 46056, Note_on_c, 0, 43, 0
2, 46056, Note_on_c, 0, 51, 0
2, 46056, Note_on_c, 0, 58, 0
2, 46056, Note_on_c, 0, 63, 0
2, 46080, Control_c, 0, 7, 80
2, 46080, Note_on_c, 0, 56, 100
2, 46080, Note_on_c, 0, 63, 100
2, 46080, Note_on_c, 0, 60, 100
2, 46080, Note_on_c, 0, 44, 100
2, 46308, Note_on_c, 0, 60, 0
2, 46308, Note_on_c, 0, 63, 0
2, 46308, Note_on_c, 0, 56, 0
2, 46320, Note_on_c, 0, 51, 100
2, 46548, Note_on_c, 0, 51, 0
2, 46560, Note_on_c, 0, 63, 100
2, 46560, Note_on_c, 0, 60, 100
2, 46788, Note_on_c, 0, 60, 0
2, 46788, Note_on_c, 0, 63, 0
2, 46800, Note_on_c, 0, 56, 100
2, 47016, Note_on_c, 0, 44, 0
2, 47028, Note_on_c, 0, 56, 0
2, 47040, Note_on_c, 0, 65, 100
2, 47040, Note_on_c, 0, 61, 100
2, 47040, Note_on_c, 0, 37, 100
2, 47040, Note_on_c, 0, 49, 100
2, 47268, Note_on_c, 0, 61, 0
2, 47268, Note_on_c, 0, 65, 0
2, 47280, Note_on_c, 0, 56, 100
2, 47508, Note_on_c, 0, 56, 0
2, 47520, Note_on_c, 0, 65, 100
2, 47520, Note_on_c, 0, 61, 100
2, 47748, Note_on_c, 0, 61, 0
2, 47748, Note_on_c, 0, 65, 0
2, 47760, Note_on_c, 0, 56, 100
2, 47976, Note_on_c, 0, 49, 0
2, 47976, Note_on_c, 0, 37, 0
2, 47988, Note_on_c, 0, 56, 0
2, 48000, Note_on_c, 0, 43, 100
2, 48000, Note_on_c, 0, 63, 100
2, 48000, Note_on_c, 0, 61, 100
2, 48000, Note_on_c, 0, 58, 100
2, 48228, Note_on_c, 0, 58, 0
2, 48228, Note_on_c, 0, 61, 0
2, 48228, Note_on_c, 0, 63, 0
2, 48240, Note_on_c, 0, 51, 100
2, 48468, Note_on_c, 0, 51, 0
2, 48480, Note_on_c, 0, 63, 100
2, 48480, Note_on_c, 0, 61, 100
2, 48480, Note_on_c, 0, 58, 100
2, 48708, Note_on_c, 0, 58, 0
2, 48708, Note_on_c, 0, 61, 0
2, 48708, Note_on_c, 0, 63, 0
2, 48720, Note_on_c, 0, 51, 100
2, 48936, Note_on_c, 0, 43, 0
2, 48948, Note_on_c, 0, 51, 0
2, 48960, Note_on_c, 0, 44, 100
2, 48960, Note_on_c, 0, 63, 100
2, 48960, Note_on_c, 0, 60, 100
2, 48960, Note_on_c, 0, 56, 100
2, 49188, Note_on_c, 0, 56, 0
2, 49188, Note_on_c, 0, 60, 0
2, 49188, Note_on_c, 0, 63, 0
2, 49200, Note_on_c, 0, 51, 100
2, 49428, Note_on_c, 0, 51, 0
2, 49440, Note_on_c, 0, 63, 100
2, 49440, Note_on_c, 0, 60, 100
2, 49440, Note_on_c, 0, 56, 100
2, 49668, Note_on_c, 0, 56, 0
2, 49668, Note_on_c, 0, 60, 0
2, 49668, Note_on_c, 0, 63, 0
2, 49680, Note_on_c, 0, 51, 100
2, 49896, Note_on_c, 0, 44, 0
2, 49908, Note_on_c, 0, 51, 0
2, 49920, Note_on_c, 0, 44, 100
2, 49920, Note_on_c, 0, 63, 100
2, 49920, Note_on_c, 0, 60, 100
2, 49920, Note_on_c, 0, 56, 100
2, 50148, Note_on_c, 0, 56, 0
2, 50148, Note_on_c, 0, 60, 0
2, 50148, Note_on_c, 0, 63, 0
2, 50160, Note_on_c, 0, 51, 100
2, 50388, Note_on_c, 0, 51, 0
2, 50400, Note_on_c, 0, 62, 100
2, 50400, Note_on_c, 0, 58, 100
2, 50628, Note_on_c, 0, 58, 0
2, 50628, Note_on_c, 0, 62, 0
2, 50640, Note_on_c, 0, 53, 100
2, 50856, Note_on_c, 0, 44, 0
2, 50868, Note_on_c, 0, 53, 0
2, 50880, Note_on_c, 0, 67, 100
2, 50880, Note_on_c, 0, 62, 100
2, 50880, Note_on_c, 0, 59, 100
2, 50880, Note_on_c, 0, 43, 100
2, 51108, Note_on_c, 0, 59, 0
2, 51108, Note_on_c, 0, 62, 0
2, 51108, Note_on_c, 0, 67, 0
2, 51120, Note_on_c, 0, 55, 100
2, 51336, Note_on_c, 0, 43, 0
2, 51348, Note_on_c, 0, 55, 0
2, 51360, Note_on_c, 0, 63, 100
2, 51360, Note_on_c, 0, 60, 100
2, 51360, Note_on_c, 0, 48, 100
2, 51360, Note_on_c, 0, 67, 100
2, 51588, Note_on_c, 0, 67, 0
2, 51588, Note_on_c, 0, 60, 0
2, 51588, Note_on_c, 0, 63, 0
2, 51600, Note_on_c, 0, 55, 100
2, 51810, Note_on_c, 0, 34, 100
2, 51816, Note_on_c, 0, 48, 0
2, 51828, Note_on_c, 0, 55, 0
2, 51840, Note_on_c, 0, 46, 100
2, 51840, Note_on_c, 0, 55, 100
2, 51840, Note_on_c, 0, 63, 100
2, 51840, Note_on_c, 0, 67, 100
2, 52068, Note_on_c, 0, 55, 0
2, 52080, Note_on_c, 0, 58, 100
2, 52296, Note_on_c, 0, 67, 0
2, 52296, Note_on_c, 0, 63, 0
2, 52308, Note_on_c, 0, 58, 0
2, 52320, Note_on_c, 0, 56, 100
2, 52320, Note_on_c, 0, 62, 100
2, 52320, Note_on_c, 0, 65, 100
2, 52548, Note_on_c, 0, 56, 0
2, 52560, Note_on_c, 0, 58, 100
2, 52776, Note_on_c, 0, 65, 0
2, 52776, Note_on_c, 0, 62, 0
2, 52776, Note_on_c, 0, 46, 0
2, 52788, Note_on_c, 0, 58, 0
2, 52800, Note_on_c, 0, 55, 100
2, 52800, Note_on_c, 0, 63, 100
2, 52800, Note_on_c, 0, 51, 100
2, 52800, Note_on_c, 0, 39, 100
2, 53028, Note_on_c, 0, 55, 0
2, 53040, Note_on_c, 0, 58, 100
2, 53226, Note_on_c, 0, 34, 0
2, 53256, Note_on_c, 0, 63, 0
2, 53268, Note_on_c, 0, 58, 0
2, 53280, Note_on_c, 0, 55, 100
2, 53508, Note_on_c, 0, 55, 0
2, 53520, Note_on_c, 0, 58, 100
2, 53736, Note_on_c, 0, 39, 0
2, 53736, Note_on_c, 0, 51, 0
2, 53748, Note_on_c, 0, 58, 0
2, 53760, Note_on_c, 0, 63, 100
2, 53760, Note_on_c, 0, 67, 100
2, 53760, Note_on_c, 0, 51, 100
2, 53760, Note_on_c, 0, 39, 100
2, 53988, Note_on_c, 0, 67, 0
2, 53988, Note_on_c, 0, 63, 0
2, 54000, Note_on_c, 0, 58, 100
2, 54228, Note_on_c, 0, 58, 0
2, 54240, Note_on_c, 0, 63, 100
2, 54240, Note_on_c, 0, 67, 100
2, 54468, Note_on_c, 0, 67, 0
2, 54468, Note_on_c, 0, 63, 0
2, 54480, Note_on_c, 0, 58, 100
2, 54696, Note_on_c, 0, 39, 0
2, 54696, Note_on_c, 0, 51, 0
2, 54708, Note_on_c, 0, 58, 0
2, 54720, Note_on_c, 0, 51, 100
2, 54720, Note_on_c, 0, 39, 100
2, 54720, Note_on_c, 0, 65, 100
2, 54720, Note_on_c, 0, 62, 100
2, 54720, Note_on_c, 0, 68, 100
2, 54948, Note_on_c, 0, 68, 0
2, 54948, Note_on_c, 0, 62, 0
2, 54948, Note_on_c, 0, 65, 0
2, 54960, Note_on_c, 0, 58, 100
2, 55188, Note_on_c, 0, 58, 0
2, 55200, Note_on_c, 0, 65, 100
2, 55200, Note_on_c, 0, 62, 100
2, 55200, Note_on_c, 0, 68, 100
2, 55428, Note_on_c, 0, 68, 0
2, 55428, Note_on_c, 0, 62, 0
2, 55428, Note_on_c, 0, 65, 0
2, 55440, Note_on_c, 0, 58, 100
2, 55656, Note_on_c, 0, 39, 0
2, 55656, Note_on_c, 0, 51, 0
2, 55668, Note_on_c, 0, 58, 0
2, 55680, Note_on_c, 0, 63, 100
2, 55680, Note_on_c, 0, 61, 100
2, 55680, Note_on_c, 0, 67, 100
2, 55680, Note_on_c, 0, 51, 100
2, 55680, Note_on_c, 0, 39, 100
2, 55908, Note_on_c, 0, 67, 0
2, 55908, Note_on_c, 0, 61, 0
2, 55908, Note_on_c, 0, 63, 0
2, 55920, Note_on_c, 0, 58, 100
2, 56136, Note_on_c, 0, 39, 0
2, 56136, Note_on_c, 0, 51, 0
2, 56148, Note_on_c, 0, 58, 0
2, 56160, Note_on_c, 0, 67, 100
2, 56160, Note_on_c, 0, 63, 100
2, 56160, Note_on_c, 0, 49, 100
2, 56160, Note_on_c, 0, 37, 100
2, 56388, Note_on_c, 0, 63, 0
2, 56388, Note_on_c, 0, 67, 0
2, 56400, Note_on_c, 0, 58, 100
2, 56616, Note_on_c, 0, 37, 0
2, 56616, Note_on_c, 0, 49, 0
2, 56628, Note_on_c, 0, 58, 0
2, 56640, Note_on_c, 0, 48, 100
2, 56640, Note_on_c, 0, 36, 100
2, 56640, Note_on_c, 0, 63, 100
2, 56640, Note_on_c, 0, 68, 100
2, 56868, Note_on_c, 0, 68, 0
2, 56868, Note_on_c, 0, 63, 0
2, 56880, Note_on_c, 0, 56, 100
2, 57096, Note_on_c, 0, 36, 0
2, 57096, Note_on_c, 0, 48, 0
2, 57108, Note_on_c, 0, 56, 0
2, 57120, Note_on_c, 0, 46, 100
2, 57120, Note_on_c, 0, 34, 100
2, 57120, Note_on_c, 0, 61, 100
2, 57120, Note_on_c, 0, 63, 100
2, 57120, Note_on_c, 0, 55, 100
2, 57150, Control_c, 0, 7, 79
2, 57190, Control_c, 0, 7, 78
2, 57230, Control_c, 0, 7, 77
2, 57271, Control_c, 0, 7, 76
2, 57311, Control_c, 0, 7, 75
2, 57348, Note_on_c, 0, 55, 0
2, 57348, Note_on_c, 0, 63, 0
2, 57348, Note_on_c, 0, 61, 0
2, 57351, Control_c, 0, 7, 74
2, 57360, Note_on_c, 0, 51, 100
2, 57402, Control_c, 0, 7, 73
2, 57442, Control_c, 0, 7, 72
2, 57482, Control_c, 0, 7, 71
2, 57523, Control_c, 0, 7, 70
2, 57576, Note_on_c, 0, 34, 0
2, 57576, Note_on_c, 0, 46, 0
2, 57588, Note_on_c, 0, 51, 0
2, 57600, Note_on_c, 0, 44, 100
2, 57600, Note_on_c, 0, 51, 100
2, 57600, Note_on_c, 0, 56, 100
2, 57600, Note_on_c, 0, 60, 100
2, 57600, Note_on_c, 0, 63, 100
2, 57828, Note_on_c, 0, 63, 0
2, 57828, Note_on_c, 0, 60, 0
2, 57828, Note_on_c, 0, 56, 0
2, 57840, Note_on_c, 0, 63, 100
2, 58056, Note_on_c, 0, 44, 0
2, 58068, Note_on_c, 0, 63, 0
2, 58080, Note_on_c, 0, 39, 100
2, 58080, Note_on_c, 0, 75, 100
2, 58308, Note_on_c, 0, 75, 0
2, 58320, Note_on_c, 0, 63, 100
2, 58536, Note_on_c, 0, 39, 0
2, 58536, Note_on_c, 0, 51, 0
2, 58548, Note_on_c, 0, 63, 0
2, 58560, Note_on_c, 0, 44, 100
2, 58560, Note_on_c, 0, 51, 100
2, 58560, Note_on_c, 0, 56, 100
2, 58560, Note_on_c, 0, 60, 100
2, 58560, Note_on_c, 0, 63, 100
2, 58788, Note_on_c, 0, 63, 0
2, 58788, Note_on_c, 0, 60, 0
2, 58788, Note_on_c, 0, 56, 0
2, 58800, Note_on_c, 0, 63, 100
2, 59016, Note_on_c, 0, 44, 0
2, 59028, Note_on_c, 0, 63, 0
2, 59040, Note_on_c, 0, 39, 100
2, 59040, Note_on_c, 0, 75, 100
2, 59268, Note_on_c, 0, 75, 0
2, 59280, Note_on_c, 0, 63, 100
2, 59496, Note_on_c, 0, 39, 0
2, 59496, Note_on_c, 0, 51, 0
2, 59508, Note_on_c, 0, 63, 0
2, 59520, Note_on_c, 0, 46, 100
2, 59520, Note_on_c, 0, 51, 100
2, 59520, Note_on_c, 0, 55, 100
2, 59520, Note_on_c, 0, 61, 100
2, 59520, Note_on_c, 0, 63, 100
2, 59748, Note_on_c, 0, 63, 0
2, 59748, Note_on_c, 0, 61, 0
2, 59748, Note_on_c, 0, 55, 0
2, 59760, Note_on_c, 0, 63, 100
2, 59976, Note_on_c, 0, 46, 0
2, 59988, Note_on_c, 0, 63, 0
2, 60000, Note_on_c, 0, 39, 100
2, 60000, Note_on_c, 0, 75, 100
2, 60228, Note_on_c, 0, 75, 0
2, 60240, Note_on_c, 0, 63, 100
2, 60456, Note_on_c, 0, 51, 0
2, 60456, Note_on_c, 0, 39, 0
2, 60468, Note_on_c, 0, 63, 0
2, 60480, Note_on_c, 0, 55, 100
2, 60480, Note_on_c, 0, 61, 100
2, 60480, Note_on_c, 0, 63, 100
2, 60480, Note_on_c, 0, 46, 100
2, 60480, Note_on_c, 0, 51, 100
2, 60708, Note_on_c, 0, 63, 0
2, 60708, Note_on_c, 0, 61, 0
2, 60708, Note_on_c, 0, 55, 0
2, 60720, Note_on_c, 0, 63, 100
2, 60936, Note_on_c, 0, 46, 0
2, 60948, Note_on_c, 0, 63, 0
2, 60960, Note_on_c, 0, 39, 100
2, 60960, Note_on_c, 0, 75, 100
2, 61188, Note_on_c, 0, 75, 0
2, 61200, Note_on_c, 0, 63, 100
2, 61416, Note_on_c, 0, 39, 0
2, 61416, Note_on_c, 0, 51, 0
2, 61428, Note_on_c, 0, 63, 0
2, 61440, Note_on_c, 0, 56, 100
2, 61440, Note_on_c, 0, 60, 100
2, 61440, Note_on_c, 0, 63, 100
2, 61440, Note_on_c, 0, 44, 100
2, 61440, Note_on_c, 0, 51, 100
2, 61668, Note_on_c, 0, 63, 0
2, 61668, Note_on_c, 0, 60, 0
2, 61668, Note_on_c, 0, 56, 0
2, 61680, Note_on_c, 0, 63, 100
2, 61896, Note_on_c, 0, 51, 0
2, 61896, Note_on_c, 0, 44, 0
2, 61908, Note_on_c, 0, 63, 0
2, 61920, Note_on_c, 0, 75, 100
2, 62148, Note_on_c, 0, 75, 0
2, 62160, Note_on_c, 0, 63, 100
2, 62388, Note_on_c, 0, 63, 0
2, 62640, Note_on_c, 0, 72, 100
2, 62640, Note_on_c, 0, 64, 100
2, 62640, Note_on_c, 0, 48, 100
2, 62640, Note_on_c, 0, 55, 100
2, 62640, Note_on_c, 0, 60, 100
2, 62868, Note_on_c, 0, 60, 0
2, 62868, Note_on_c, 0, 55, 0
2, 62868, Note_on_c, 0, 48, 0
2, 62868, Note_on_c, 0, 64, 0
2, 62880, Note_on_c, 0, 65, 100
2, 62880, Note_on_c, 0, 53, 100
2, 62880, Note_on_c, 0, 56, 100
2, 62880, Note_on_c, 0, 60, 100
2, 63096, Note_on_c, 0, 72, 0
2, 63108, Note_on_c, 0, 60, 0
2, 63108, Note_on_c, 0, 56, 0
2, 63108, Note_on_c, 0, 53, 0
2, 63108, Note_on_c, 0, 65, 0
2, 63120, Note_on_c, 0, 75, 100
2, 63120, Note_on_c, 0, 67, 100
2, 63120, Note_on_c, 0, 51, 100
2, 63120, Note_on_c, 0, 58, 100
2, 63120, Note_on_c, 0, 63, 100
2, 63348, Note_on_c, 0, 63, 0
2, 63348, Note_on_c, 0, 58, 0
2, 63348, Note_on_c, 0, 51, 0
2, 63348, Note_on_c, 0, 67, 0
2, 63348, Note_on_c, 0, 75, 0
2, 63360, Note_on_c, 0, 72, 100
2, 63360, Note_on_c, 0, 68, 100
2, 63360, Note_on_c, 0, 56, 100
2, 63360, Note_on_c, 0, 63, 100
2, 63588, Note_on_c, 0, 63, 0
2, 63588, Note_on_c, 0, 56, 0
2, 63588, Note_on_c, 0, 68, 0
2, 63588, Note_on_c, 0, 72, 0
2, 63600, Note_on_c, 0, 63, 100
2, 63600, Note_on_c, 0, 60, 100
2, 63828, Note_on_c, 0, 60, 0
2, 63828, Note_on_c, 0, 63, 0
2, 63840, Note_on_c, 0, 62, 100
2, 63840, Note_on_c, 0, 59, 100
2, 63840, Note_on_c, 0, 51, 100
2, 63840, Note_on_c, 0, 39, 100
2, 64068, Note_on_c, 0, 59, 0
2, 64068, Note_on_c, 0, 62, 0
2, 64080, Note_on_c, 0, 61, 100
2, 64080, Note_on_c, 0, 58, 100
2, 64296, Note_on_c, 0, 39, 0
2, 64296, Note_on_c, 0, 51, 0
2, 64308, Note_on_c, 0, 58, 0
2, 64308, Note_on_c, 0, 61, 0
2, 64320, Note_on_c, 0, 56, 100
2, 64320, Note_on_c, 0, 68, 100
2, 64320, Note_on_c, 0, 44, 100
2, 64320, Note_on_c, 0, 51, 100
2, 64320, Note_on_c, 0, 60, 100
2, 64548, Note_on_c, 0, 60, 0
2, 64548, Note_on_c, 0, 51, 0
2, 64548, Note_on_c, 0, 44, 0
2, 64548, Note_on_c, 0, 68, 0
2, 64548, Note_on_c, 0, 56, 0
2, 64560, Control_c, 0, 7, 100
2, 64560, Note_on_c, 0, 80, 100
2, 64620, Control_c, 0, 7, 99
2, 64741, Control_c, 0, 7, 98
2, 64788, Note_on_c, 0, 80, 0
2, 64800, Note_on_c, 0, 72, 100
2, 64852, Control_c, 0, 7, 97
2, 64973, Control_c, 0, 7, 96
2, 65028, Note_on_c, 0, 72, 0
2, 65040, Note_on_c, 0, 77, 100
2, 65084, Control_c, 0, 7, 95
2, 65205, Control_c, 0, 7, 94
2, 65268, Note_on_c, 0, 77, 0
2, 65280, Note_on_c, 0, 65, 100
2, 65280, Note_on_c, 0, 68, 100
2, 65280, Note_on_c, 0, 74, 100
2, 65316, Control_c, 0, 7, 93
2, 65436, Control_c, 0, 7, 92
2, 65508, Note_on_c, 0, 74, 0
2, 65508, Note_on_c, 0, 68, 0
2, 65508, Note_on_c, 0, 65, 0
2, 65520, Note_on_c, 0, 63, 100
2, 65520, Note_on_c, 0, 67, 100
2, 65520, Note_on_c, 0, 75, 100
2, 65547, Control_c, 0, 7, 91
2, 65668, Control_c, 0, 7, 90
2, 65748, Note_on_c, 0, 75, 0
2, 65748, Note_on_c, 0, 67, 0
2, 65748, Note_on_c, 0, 63, 0
2, 65760, Note_on_c, 0, 66, 100
2, 65760, Note_on_c, 0, 72, 100
2, 65760, Note_on_c, 0, 56, 100
2, 65779, Control_c, 0, 7, 89
2, 65900, Control_c, 0, 7, 88
2, 65988, Note_on_c, 0, 56, 0
2, 65988, Note_on_c, 0, 72, 0
2, 65988, Note_on_c, 0, 66, 0
2, 66000, Note_on_c, 0, 65, 100
2, 66000, Note_on_c, 0, 73, 100
2, 66000, Note_on_c, 0, 61, 100
2, 66011, Control_c, 0, 7, 87
2, 66132, Control_c, 0, 7, 86
2, 66228, Note_on_c, 0, 61, 0
2, 66228, Note_on_c, 0, 73, 0
2, 66228, Note_on_c, 0, 65, 0
2, 66240, Note_on_c, 0, 65, 100
2, 66240, Note_on_c, 0, 71, 100
2, 66240, Note_on_c, 0, 62, 100
2, 66243, Control_c, 0, 7, 85
2, 66364, Control_c, 0, 7, 84
2, 66468, Note_on_c, 0, 62, 0
2, 66468, Note_on_c, 0, 71, 0
2, 66468, Note_on_c, 0, 65, 0
2, 66475, Control_c, 0, 7, 83
2, 66480, Note_on_c, 0, 64, 100
2, 66480, Note_on_c, 0, 72, 100
2, 66480, Note_on_c, 0, 60, 100
2, 66596, Control_c, 0, 7, 82
2, 66707, Control_c, 0, 7, 81
2, 66708, Note_on_c, 0, 60, 0
2, 66708, Note_on_c, 0, 72, 0
2, 66708, Note_on_c, 0, 64, 0
2, 66720, Note_on_c, 0, 63, 100
2, 66720, Note_on_c, 0, 69, 100
2, 66720, Note_on_c, 0, 53, 100
2, 66828, Control_c, 0, 7, 80
2, 66938, Control_c, 0, 7, 79
2, 66948, Note_on_c, 0, 53, 0
2, 66948, Note_on_c, 0, 69, 0
2, 66948, Note_on_c, 0, 63, 0
2, 66960, Note_on_c, 0, 62, 100
2, 66960, Note_on_c, 0, 70, 100
2, 66960, Note_on_c, 0, 58, 100
2, 67059, Control_c, 0, 7, 78
2, 67170, Control_c, 0, 7, 77
2, 67188, Note_on_c, 0, 58, 0
2, 67188, Note_on_c, 0, 70, 0
2, 67188, Note_on_c, 0, 62, 0
2, 67200, Note_on_c, 0, 52, 100
2, 67200, Note_on_c, 0, 61, 100
2, 67200, Note_on_c, 0, 67, 100
2, 67291, Control_c, 0, 7, 76
2, 67402, Control_c, 0, 7, 75
2, 67428, Note_on_c, 0, 67, 0
2, 67428, Note_on_c, 0, 61, 0
2, 67428, Note_on_c, 0, 52, 0
2, 67440, Note_on_c, 0, 53, 100
2, 67440, Note_on_c, 0, 60, 100
2, 67440, Note_on_c, 0, 68, 100
2, 67523, Control_c, 0, 7, 74
2, 67644, Control_c, 0, 7, 73
2, 67668, Note_on_c, 0, 60, 0
2, 67668, Note_on_c, 0, 53, 0
2, 67680, Note_on_c, 0, 58, 100
2, 67680, Note_on_c, 0, 49, 100
2, 67754, Control_c, 0, 7, 72
2, 67875, Control_c, 0, 7, 71
2, 67896, Note_on_c, 0, 68, 0
2, 67908, Note_on_c, 0, 49, 0
2, 67920, Note_on_c, 0, 51, 100
2, 67920, Note_on_c, 0, 67, 100
2, 67920, Note_on_c, 0, 61, 100
2, 67986, Control_c, 0, 7, 70
2, 68136, Note_on_c, 0, 58, 0
2, 68148, Note_on_c, 0, 61, 0
2, 68148, Note_on_c, 0, 67, 0
2, 68148, Note_on_c, 0, 51, 0
2, 68160, Note_on_c, 0, 60, 100
2, 68160, Note_on_c, 0, 68, 100
2, 68160, Note_on_c, 0, 44, 100
2, 68160, Note_on_c, 0, 32, 100
2, 68388, Note_on_c, 0, 68, 0
2, 68388, Note_on_c, 0, 60, 0
2, 68400, Note_on_c, 0, 51, 100
2, 68616, Note_on_c, 0, 32, 0
2, 68616, Note_on_c, 0, 44, 0
2, 68628, Note_on_c, 0, 51, 0
2, 68640, Note_on_c, 0, 63, 100
2, 68640, Note_on_c, 0, 60, 100
2, 68640, Note_on_c, 0, 56, 100
2, 68868, Note_on_c, 0, 56, 0
2, 68868, Note_on_c, 0, 60, 0
2, 68868, Note_on_c, 0, 63, 0
2, 68880, Note_on_c, 0, 51, 100
2, 69108, Note_on_c, 0, 51, 0
2, 69120, Control_c, 0, 7, 80
2, 69120, Note_on_c, 0, 56, 100
2, 69120, Note_on_c, 0, 63, 100
2, 69120, Note_on_c, 0, 60, 100
2, 69120, Note_on_c, 0, 44, 100
2, 69348, Note_on_c, 0, 60, 0
2, 69348, Note_on_c, 0, 63, 0
2, 69348, Note_on_c, 0, 56, 0
2, 69360, Note_on_c, 0, 51, 100
2, 69588, Note_on_c, 0, 51, 0
2, 69600, Note_on_c, 0, 63, 100
2, 69600, Note_on_c, 0, 60, 100
2, 69828, Note_on_c, 0, 60, 0
2, 69828, Note_on_c, 0, 63, 0
2, 69840, Note_on_c, 0, 56, 100
2, 70056, Note_on_c, 0, 44, 0
2, 70068, Note_on_c, 0, 56, 0
2, 70080, Note_on_c, 0, 37, 100
2, 70080, Note_on_c, 0, 49, 100
2, 70080, Note_on_c, 0, 65, 100
2, 70080, Note_on_c, 0, 61, 100
2, 70308, Note_on_c, 0, 61, 0
2, 70308, Note_on_c, 0, 65, 0
2, 70320, Note_on_c, 0, 56, 100
2, 70548, Note_on_c, 0, 56, 0
2, 70560, Note_on_c, 0, 65, 100
2, 70560, Note_on_c, 0, 61, 100
2, 70788, Note_on_c, 0, 61, 0
2, 70788, Note_on_c, 0, 65, 0
2, 70800, Note_on_c, 0, 56, 100
2, 71016, Note_on_c, 0, 49, 0
2, 71016, Note_on_c, 0, 37, 0
2, 71028, Note_on_c, 0, 56, 0
2, 71040, Note_on_c, 0, 43, 100
2, 71040, Note_on_c, 0, 63, 100
2, 71040, Note_on_c, 0, 61, 100
2, 71040, Note_on_c, 0, 58, 100
2, 71268, Note_on_c, 0, 58, 0
2, 71268, Note_on_c, 0, 61, 0
2, 71268, Note_on_c, 0, 63, 0
2, 71280, Note_on_c, 0, 51, 100
2, 71508, Note_on_c, 0, 51, 0
2, 71520, Note_on_c, 0, 63, 100
2, 71520, Note_on_c, 0, 61, 100
2, 71520, Note_on_c, 0, 58, 100
2, 71748, Note_on_c, 0, 58, 0
2, 71748, Note_on_c, 0, 61, 0
2, 71748, Note_on_c, 0, 63, 0
2, 71760, Note_on_c, 0, 51, 100
2, 71976, Note_on_c, 0, 43, 0
2, 71988, Note_on_c, 0, 51, 0
2, 72000, Note_on_c, 0, 44, 100
2, 72000, Note_on_c, 0, 63, 100
2, 72000, Note_on_c, 0, 60, 100
2, 72000, Note_on_c, 0, 56, 100
2, 72228, Note_on_c, 0, 56, 0
2, 72228, Note_on_c, 0, 60, 0
2, 72228, Note_on_c, 0, 63, 0
2, 72240, Note_on_c, 0, 51, 100
2, 72468, Note_on_c, 0, 51, 0
2, 72480, Note_on_c, 0, 63, 100
2, 72480, Note_on_c, 0, 60, 100
2, 72480, Note_on_c, 0, 56, 100
2, 72708, Note_on_c, 0, 56, 0
2, 72708, Note_on_c, 0, 60, 0
2, 72708, Note_on_c, 0, 63, 0
2, 72720, Note_on_c, 0, 51, 100
2, 72936, Note_on_c, 0, 44, 0
2, 72948, Note_on_c, 0, 51, 0
2, 72960, Note_on_c, 0, 44, 100
2, 72960, Note_on_c, 0, 63, 100
2, 72960, Note_on_c, 0, 60, 100
2, 72960, Note_on_c, 0, 56, 100
2, 73188, Note_on_c, 0, 56, 0
2, 73188, Note_on_c, 0, 60, 0
2, 73188, Note_on_c, 0, 63, 0
2, 73200, Note_on_c, 0, 51, 100
2, 73428, Note_on_c, 0, 51, 0
2, 73440, Note_on_c, 0, 62, 100
2, 73440, Note_on_c, 0, 58, 100
2, 73668, Note_on_c, 0, 58, 0
2, 73668, Note_on_c, 0, 62, 0
2, 73680, Note_on_c, 0, 53, 100
2, 73896, Note_on_c, 0, 44, 0
2, 73908, Note_on_c, 0, 53, 0
2, 73920, Note_on_c, 0, 67, 100
2, 73920, Note_on_c, 0, 62, 100
2, 73920, Note_on_c, 0, 59, 100
2, 73920, Note_on_c, 0, 43, 100
2, 74148, Note_on_c, 0, 59, 0
2, 74148, Note_on_c, 0, 62, 0
2, 74148, Note_on_c, 0, 67, 0
2, 74160, Note_on_c, 0, 55, 100
2, 74376, Note_on_c, 0, 43, 0
2, 74388, Note_on_c, 0, 55, 0
2, 74400, Note_on_c, 0, 63, 100
2, 74400, Note_on_c, 0, 60, 100
2, 74400, Note_on_c, 0, 67, 100
2, 74400, Note_on_c, 0, 48, 100
2, 74628, Note_on_c, 0, 67, 0
2, 74628, Note_on_c, 0, 60, 0
2, 74628, Note_on_c, 0, 63, 0
2, 74640, Note_on_c, 0, 55, 100
2, 74850, Note_on_c, 0, 34, 100
2, 74856, Note_on_c, 0, 48, 0
2, 74868, Note_on_c, 0, 55, 0
2, 74880, Note_on_c, 0, 46, 100
2, 74880, Note_on_c, 0, 55, 100
2, 74880, Note_on_c, 0, 63, 100
2, 74880, Note_on_c, 0, 67, 100
2, 75108, Note_on_c, 0, 55, 0
2, 75120, Note_on_c, 0, 58, 100
2, 75336, Note_on_c, 0, 67, 0
2, 75336, Note_on_c, 0, 63, 0
2, 75348, Note_on_c, 0, 58, 0
2, 75360, Note_on_c, 0, 56, 100
2, 75360, Note_on_c, 0, 62, 100
2, 75360, Note_on_c, 0, 65, 100
2, 75588, Note_on_c, 0, 56, 0
2, 75600, Note_on_c, 0, 58, 100
2, 75816, Note_on_c, 0, 65, 0
2, 75816, Note_on_c, 0, 62, 0
2, 75816, Note_on_c, 0, 46, 0
2, 75828, Note_on_c, 0, 58, 0
2, 75840, Note_on_c, 0, 55, 100
2, 75840, Note_on_c, 0, 63, 100
2, 75840, Note_on_c, 0, 51, 100
2, 75840, Note_on_c, 0, 39, 100
2, 76068, Note_on_c, 0, 55, 0
2, 76080, Note_on_c, 0, 58, 100
2, 76266, Note_on_c, 0, 34, 0
2, 76296, Note_on_c, 0, 63, 0
2, 76308, Note_on_c, 0, 58, 0
2, 76320, Note_on_c, 0, 55, 100
2, 76548, Note_on_c, 0, 55, 0
2, 76560, Note_on_c, 0, 58, 100
2, 76776, Note_on_c, 0, 39, 0
2, 76776, Note_on_c, 0, 51, 0
2, 76788, Note_on_c, 0, 58, 0
2, 76800, Note_on_c, 0, 51, 100
2, 76800, Note_on_c, 0, 39, 100
2, 76800, Note_on_c, 0, 63, 100
2, 76800, Note_on_c, 0, 67, 100
2, 77028, Note_on_c, 0, 67, 0
2, 77028, Note_on_c, 0, 63, 0
2, 77040, Note_on_c, 0, 58, 100
2, 77268, Note_on_c, 0, 58, 0
2, 77280, Note_on_c, 0, 63, 100
2, 77280, Note_on_c, 0, 67, 100
2, 77508, Note_on_c, 0, 67, 0
2, 77508, Note_on_c, 0, 63, 0
2, 77520, Note_on_c, 0, 58, 100
2, 77736, Note_on_c, 0, 39, 0
2, 77736, Note_on_c, 0, 51, 0
2, 77748, Note_on_c, 0, 58, 0
2, 77760, Note_on_c, 0, 51, 100
2, 77760, Note_on_c, 0, 39, 100
2, 77760, Note_on_c, 0, 65, 100
2, 77760, Note_on_c, 0, 62, 100
2, 77760, Note_on_c, 0, 68, 100
2, 77988, Note_on_c, 0, 68, 0
2, 77988, Note_on_c, 0, 62, 0
2, 77988, Note_on_c, 0, 65, 0
2, 78000, Note_on_c, 0, 58, 100
2, 78228, Note_on_c, 0, 58, 0
2, 78240, Note_on_c, 0, 65, 100
2, 78240, Note_on_c, 0, 62, 100
2, 78240, Note_on_c, 0, 68, 100
2, 78468, Note_on_c, 0, 68, 0
2, 78468, Note_on_c, 0, 62, 0
2, 78468, Note_on_c, 0, 65, 0
2, 78480, Note_on_c, 0, 58, 100
2, 78696, Note_on_c, 0, 39, 0
2, 78696, Note_on_c, 0, 51, 0
2, 78708, Note_on_c, 0, 58, 0
2, 78720, Note_on_c, 0, 63, 100
2, 78720, Note_on_c, 0, 61, 100
2, 78720, Note_on_c, 0, 67, 100
2, 78720, Note_on_c, 0, 51, 100
2, 78720, Note_on_c, 0, 39, 100
2, 78948, Note_on_c, 0, 67, 0
2, 78948, Note_on_c, 0, 61, 0
2, 78948, Note_on_c, 0, 63, 0
2, 78960, Note_on_c, 0, 58, 100
2, 79176, Note_on_c, 0, 39, 0
2, 79176, Note_on_c, 0, 51, 0
2, 79188, Note_on_c, 0, 58, 0
2, 79200, Note_on_c, 0, 49, 100
2, 79200, Note_on_c, 0, 37, 100
2, 79200, Note_on_c, 0, 67, 100
2, 79200, Note_on_c, 0, 63, 100
2, 79428, Note_on_c, 0, 63, 0
2, 79428, Note_on_c, 0, 67, 0
2, 79440, Note_on_c, 0, 58, 100
2, 79656, Note_on_c, 0, 37, 0
2, 79656, Note_on_c, 0, 49, 0
2, 79668, Note_on_c, 0, 58, 0
2, 79680, Note_on_c, 0, 48, 100
2, 79680, Note_on_c, 0, 36, 100
2, 79680, Note_on_c, 0, 63, 100
2, 79680, Note_on_c, 0, 68, 100
2, 79908, Note_on_c, 0, 68, 0
2, 79908, Note_on_c, 0, 63, 0
2, 79920, Note_on_c, 0, 56, 100
2, 80136, Note_on_c, 0, 36, 0
2, 80136, Note_on_c, 0, 48, 0
2, 80148, Note_on_c, 0, 56, 0
2, 80160, Note_on_c, 0, 46, 100
2, 80160, Note_on_c, 0, 61, 100
2, 80160, Note_on_c, 0, 63, 100
2, 80160, Note_on_c, 0, 55, 100
2, 80160, Note_on_c, 0, 34, 100
2, 80180, Control_c, 0, 7, 79
2, 80220, Control_c, 0, 7, 78
2, 80250, Control_c, 0, 7, 77
2, 80291, Control_c, 0, 7, 76
2, 80331, Control_c, 0, 7, 75
2, 80361, Control_c, 0, 7, 74
2, 80388, Note_on_c, 0, 55, 0
2, 80388, Note_on_c, 0, 63, 0
2, 80388, Note_on_c, 0, 61, 0
2, 80400, Note_on_c, 0, 51, 100
2, 80401, Control_c, 0, 7, 73
2, 80432, Control_c, 0, 7, 72
2, 80472, Control_c, 0, 7, 71
2, 80502, Control_c, 0, 7, 70
2, 80616, Note_on_c, 0, 34, 0
2, 80616, Note_on_c, 0, 46, 0
2, 80628, Note_on_c, 0, 51, 0
2, 80640, Note_on_c, 0, 51, 100
2, 80640, Note_on_c, 0, 56, 100
2, 80640, Note_on_c, 0, 60, 100
2, 80640, Note_on_c, 0, 63, 100
2, 80640, Note_on_c, 0, 44, 100
2, 80868, Note_on_c, 0, 63, 0
2, 80868, Note_on_c, 0, 60, 0
2, 80868, Note_on_c, 0, 56, 0
2, 80880, Note_on_c, 0, 63, 100
2, 81096, Note_on_c, 0, 44, 0
2, 81108, Note_on_c, 0, 63, 0
2, 81120, Note_on_c, 0, 75, 100
2, 81120, Note_on_c, 0, 39, 100
2, 81348, Note_on_c, 0, 75, 0
2, 81360, Note_on_c, 0, 63, 100
2, 81576, Note_on_c, 0, 39, 0
2, 81576, Note_on_c, 0, 51, 0
2, 81588, Note_on_c, 0, 63, 0
2, 81600, Note_on_c, 0, 51, 100
2, 81600, Note_on_c, 0, 56, 100
2, 81600, Note_on_c, 0, 60, 100
2, 81600, Note_on_c, 0, 63, 100
2, 81600, Note_on_c, 0, 44, 100
2, 81828, Note_on_c, 0, 63, 0
2, 81828, Note_on_c, 0, 60, 0
2, 81828, Note_on_c, 0, 56, 0
2, 81840, Note_on_c, 0, 63, 100
2, 82056, Note_on_c, 0, 44, 0
2, 82068, Note_on_c, 0, 63, 0
2, 82080, Note_on_c, 0, 75, 100
2, 82080, Note_on_c, 0, 39, 100
2, 82308, Note_on_c, 0, 75, 0
2, 82320, Note_on_c, 0, 63, 100
2, 82536, Note_on_c, 0, 39, 0
2, 82536, Note_on_c, 0, 51, 0
2, 82548, Note_on_c, 0, 63, 0
2, 82560, Note_on_c, 0, 61, 100
2, 82560, Note_on_c, 0, 63, 100
2, 82560, Note_on_c, 0, 46, 100
2, 82560, Note_on_c, 0, 51, 100
2, 82560, Note_on_c, 0, 55, 100
2, 82788, Note_on_c, 0, 55, 0
2, 82788, Note_on_c, 0, 63, 0
2, 82788, Note_on_c, 0, 61, 0
2, 82800, Note_on_c, 0, 63, 100
2, 83016, Note_on_c, 0, 46, 0
2, 83028, Note_on_c, 0, 63, 0
2, 83040, Note_on_c, 0, 75, 100
2, 83040, Note_on_c, 0, 39, 100
2, 83268, Note_on_c, 0, 75, 0
2, 83280, Note_on_c, 0, 63, 100
2, 83496, Note_on_c, 0, 39, 0
2, 83496, Note_on_c, 0, 51, 0
2, 83508, Note_on_c, 0, 63, 0
2, 83520, Note_on_c, 0, 61, 100
2, 83520, Note_on_c, 0, 63, 100
2, 83520, Note_on_c, 0, 46, 100
2, 83520, Note_on_c, 0, 51, 100
2, 83520, Note_on_c, 0, 55, 100
2, 83748, Note_on_c, 0, 55, 0
2, 83748, Note_on_c, 0, 63, 0
2, 83748, Note_on_c, 0, 61, 0
2, 83760, Note_on_c, 0, 63, 100
2, 83976, Note_on_c, 0, 46, 0
2, 83988, Note_on_c, 0, 63, 0
2, 84000, Note_on_c, 0, 75, 100
2, 84000, Note_on_c, 0, 39, 100
2, 84228, Note_on_c, 0, 75, 0
2, 84240, Note_on_c, 0, 63, 100
2, 84456, Note_on_c, 0, 51, 0
2, 84456, Note_on_c, 0, 39, 0
2, 84468, Note_on_c, 0, 63, 0
2, 84480, Note_on_c, 0, 60, 100
2, 84480, Note_on_c, 0, 63, 100
2, 84480, Note_on_c, 0, 44, 100
2, 84480, Note_on_c, 0, 51, 100
2, 84480, Note_on_c, 0, 56, 100
2, 84708, Note_on_c, 0, 56, 0
2, 84708, Note_on_c, 0, 63, 0
2, 84708, Note_on_c, 0, 60, 0
2, 84720, Note_on_c, 0, 63, 100
2, 84936, Note_on_c, 0, 51, 0
2, 84936, Note_on_c, 0, 44, 0
2, 84948, Note_on_c, 0, 63, 0
2, 84960, Note_on_c, 0, 75, 100
2, 85188, Note_on_c, 0, 75, 0
2, 85200, Note_on_c, 0, 63, 100
2, 85428, Note_on_c, 0, 63, 0
2, 85680, Note_on_c, 0, 64, 100
2, 85680, Note_on_c, 0, 48, 100
2, 85680, Note_on_c, 0, 55, 100
2, 85680, Note_on_c, 0, 60, 100
2, 85680, Note_on_c, 0, 72, 100
2, 85908, Note_on_c, 0, 60, 0
2, 85908, Note_on_c, 0, 55, 0
2, 85908, Note_on_c, 0, 48, 0
2, 85908, Note_on_c, 0, 64, 0
2, 85920, Note_on_c, 0, 53, 100
2, 85920, Note_on_c, 0, 56, 100
2, 85920, Note_on_c, 0, 60, 100
2, 85920, Note_on_c, 0, 65, 100
2, 86136, Note_on_c, 0, 72, 0
2, 86148, Note_on_c, 0, 65, 0
2, 86148, Note_on_c, 0, 60, 0
2, 86148, Note_on_c, 0, 56, 0
2, 86148, Note_on_c, 0, 53, 0
2, 86160, Note_on_c, 0, 67, 100
2, 86160, Note_on_c, 0, 51, 100
2, 86160, Note_on_c, 0, 58, 100
2, 86160, Note_on_c, 0, 63, 100
2, 86160, Note_on_c, 0, 75, 100
2, 86388, Note_on_c, 0, 75, 0
2, 86388, Note_on_c, 0, 63, 0
2, 86388, Note_on_c, 0, 58, 0
2, 86388, Note_on_c, 0, 51, 0
2, 86388, Note_on_c, 0, 67, 0
2, 86400, Note_on_c, 0, 68, 100
2, 86400, Note_on_c, 0, 56, 100
2, 86400, Note_on_c, 0, 63, 100
2, 86400, Note_on_c, 0, 72, 100
2, 86628, Note_on_c, 0, 72, 0
2, 86628, Note_on_c, 0, 63, 0
2, 86628, Note_on_c, 0, 56, 0
2, 86628, Note_on_c, 0, 68, 0
2, 86640, Note_on_c, 0, 60, 100
2, 86640, Note_on_c, 0, 63, 100
2, 86868, Note_on_c, 0, 63, 0
2, 86868, Note_on_c, 0, 60, 0
2, 86880, Note_on_c, 0, 59, 100
2, 86880, Note_on_c, 0, 51, 100
2, 86880, Note_on_c, 0, 39, 100
2, 86880, Note_on_c, 0, 62, 100
2, 87108, Note_on_c, 0, 62, 0
2, 87108, Note_on_c, 0, 59, 0
2, 87120, Note_on_c, 0, 58, 100
2, 87120, Note_on_c, 0, 61, 100
2, 87336, Note_on_c, 0, 39, 0
2, 87336, Note_on_c, 0, 51, 0
2, 87348, Note_on_c, 0, 61, 0
2, 87348, Note_on_c, 0, 58, 0
2, 87360, Note_on_c, 0, 68, 100
2, 87360, Note_on_c, 0, 60, 100
2, 87360, Note_on_c, 0, 44, 100
2, 87360, Note_on_c, 0, 51, 100
2, 87360, Note_on_c, 0, 56, 100
2, 87588, Note_on_c, 0, 56, 0
2, 87588, Note_on_c, 0, 51, 0
2, 87588, Note_on_c, 0, 44, 0
2, 87588, Note_on_c, 0, 60, 0
2, 87588, Note_on_c, 0, 68, 0
2, 87600, Control_c, 0, 7, 100
2, 87600, Note_on_c, 0, 80, 100
2, 87660, Control_c, 0, 7, 99
2, 87781, Control_c, 0, 7, 98
2, 87828, Note_on_c, 0, 80, 0
2, 87840, Note_on_c, 0, 72, 100
2, 87892, Control_c, 0, 7, 97
2, 88013, Control_c, 0, 7, 96
2, 88068, Note_on_c, 0, 72, 0
2, 88080, Note_on_c, 0, 77, 100
2, 88124, Control_c, 0, 7, 95
2, 88245, Control_c, 0, 7, 94
2, 88308, Note_on_c, 0, 77, 0
2, 88320, Note_on_c, 0, 68, 100
2, 88320, Note_on_c, 0, 74, 100
2, 88320, Note_on_c, 0, 65, 100
2, 88356, Control_c, 0, 7, 93
2, 88476, Control_c, 0, 7, 92
2, 88548, Note_on_c, 0, 65, 0
2, 88548, Note_on_c, 0, 74, 0
2, 88548, Note_on_c, 0, 68, 0
2, 88560, Note_on_c, 0, 67, 100
2, 88560, Note_on_c, 0, 75, 100
2, 88560, Note_on_c, 0, 63, 100
2, 88587, Control_c, 0, 7, 91
2, 88708, Control_c, 0, 7, 90
2, 88788, Note_on_c, 0, 63, 0
2, 88788, Note_on_c, 0, 75, 0
2, 88788, Note_on_c, 0, 67, 0
2, 88800, Note_on_c, 0, 72, 100
2, 88800, Note_on_c, 0, 56, 100
2, 88800, Note_on_c, 0, 66, 100
2, 88819, Control_c, 0, 7, 89
2, 88940, Control_c, 0, 7, 88
2, 89028, Note_on_c, 0, 66, 0
2, 89028, Note_on_c, 0, 56, 0
2, 89028, Note_on_c, 0, 72, 0
2, 89040, Note_on_c, 0, 73, 100
2, 89040, Note_on_c, 0, 61, 100
2, 89040, Note_on_c, 0, 65, 100
2, 89051, Control_c, 0, 7, 87
2, 89172, Control_c, 0, 7, 86
2, 89268, Note_on_c, 0, 65, 0
2, 89268, Note_on_c, 0, 61, 0
2, 89268, Note_on_c, 0, 73, 0
2, 89280, Note_on_c, 0, 65, 100
2, 89280, Note_on_c, 0, 71, 100
2, 89280, Note_on_c, 0, 62, 100
2, 89283, Control_c, 0, 7, 85
2, 89404, Control_c, 0, 7, 84
2, 89508, Note_on_c, 0, 62, 0
2, 89508, Note_on_c, 0, 71, 0
2, 89508, Note_on_c, 0, 65, 0
2, 89515, Control_c, 0, 7, 83
2, 89520, Note_on_c, 0, 64, 100
2, 89520, Note_on_c, 0, 72, 100
2, 89520, Note_on_c, 0, 60, 100
2, 89636, Control_c, 0, 7, 82
2, 89747, Control_c, 0, 7, 81
2, 89748, Note_on_c, 0, 60, 0
2, 89748, Note_on_c, 0, 72, 0
2, 89748, Note_on_c, 0, 64, 0
2, 89760, Note_on_c, 0, 63, 100
2, 89760, Note_on_c, 0, 69, 100
2, 89760, Note_on_c, 0, 53, 100
2, 89868, Control_c, 0, 7, 80
2, 89978, Control_c, 0, 7, 79
2, 89988, Note_on_c, 0, 53, 0
2, 89988, Note_on_c, 0, 69, 0
2, 89988, Note_on_c, 0, 63, 0
2, 90000, Note_on_c, 0, 62, 100
2, 90000, Note_on_c, 0, 70, 100
2, 90000, Note_on_c, 0, 58, 100
2, 90099, Control_c, 0, 7, 78
2, 90210, Control_c, 0, 7, 77
2, 90228, Note_on_c, 0, 58, 0
2, 90228, Note_on_c, 0, 70, 0
2, 90228, Note_on_c, 0, 62, 0
2, 90240, Note_on_c, 0, 61, 100
2, 90240, Note_on_c, 0, 67, 100
2, 90240, Note_on_c, 0, 52, 100
2, 90331, Control_c, 0, 7, 76
2, 90442, Control_c, 0, 7, 75
2, 90468, Note_on_c, 0, 52, 0
2, 90468, Note_on_c, 0, 67, 0
2, 90468, Note_on_c, 0, 61, 0
2, 90480, Note_on_c, 0, 60, 100
2, 90480, Note_on_c, 0, 68, 100
2, 90480, Note_on_c, 0, 53, 100
2, 90563, Control_c, 0, 7, 74
2, 90684, Control_c, 0, 7, 73
2, 90708, Note_on_c, 0, 53, 0
2, 90708, Note_on_c, 0, 60, 0
2, 90720, Note_on_c, 0, 58, 100
2, 90720, Note_on_c, 0, 49, 100
2, 90794, Control_c, 0, 7, 72
2, 90915, Control_c, 0, 7, 71
2, 90936, Note_on_c, 0, 68, 0
2, 90948, Note_on_c, 0, 49, 0
2, 90960, Note_on_c, 0, 67, 100
2, 90960, Note_on_c, 0, 61, 100
2, 90960, Note_on_c, 0, 51, 100
2, 91026, Control_c, 0, 7, 70
2, 91176, Note_on_c, 0, 58, 0
2, 91188, Note_on_c, 0, 51, 0
2, 91188, Note_on_c, 0, 61, 0
2, 91188, Note_on_c, 0, 67, 0
2, 91200, Note_on_c, 0, 44, 100
2, 91200, Note_on_c, 0, 51, 100
2, 91200, Note_on_c, 0, 60, 100
2, 91200, Note_on_c, 0, 68, 100
2, 92085, Note_on_c, 0, 68, 0
2, 92085, Note_on_c, 0, 60, 0
2, 92085, Note_on_c, 0, 51, 0
2, 92085, Note_on_c, 0, 44, 0
2, 92160, End_track
3, 0, Start_track
3, 0, Control_c, 1, 7, 120
3, 0, Control_c, 1, 0, 0
3, 0, Control_c, 1, 32, 0
3, 0, Program_c, 1, 53
3, 0, Control_c, 1, 1, 0
3, 0, Control_c, 1, 10, 64
3, 0, Control_c, 1, 91, 0
3, 0, Control_c, 1, 93, 0
3, 0, Key_signature, -4, "major"
3, 0, Title_t, "Voice"
3, 5760, Note_on_c, 1, 65, 100
3, 6696, Note_on_c, 1, 65, 0
3, 6720, Note_on_c, 1, 60, 100
3, 7062, Note_on_c, 1, 60, 0
3, 7080, Note_on_c, 1, 60, 100
3, 7194, Note_on_c, 1, 60, 0
3, 7200, Note_on_c, 1, 61, 100
3, 7656, Note_on_c, 1, 61, 0
3, 7680, Note_on_c, 1, 60, 100
3, 7700, Control_c, 1, 7, 119
3, 7720, Control_c, 1, 7, 118
3, 7740, Control_c, 1, 7, 117
3, 7770, Control_c, 1, 7, 116
3, 7790, Control_c, 1, 7, 115
3, 7821, Control_c, 1, 7, 114
3, 7841, Control_c, 1, 7, 113
3, 7861, Control_c, 1, 7, 112
3, 7891, Control_c, 1, 7, 111
3, 7911, Control_c, 1, 7, 110
3, 7942, Control_c, 1, 7, 109
3, 7962, Control_c, 1, 7, 108
3, 7982, Control_c, 1, 7, 107
3, 8012, Control_c, 1, 7, 106
3, 8032, Control_c, 1, 7, 105
3, 8052, Control_c, 1, 7, 104
3, 8083, Control_c, 1, 7, 103
3, 8103, Control_c, 1, 7, 102
3, 8133, Control_c, 1, 7, 101
3, 8136, Note_on_c, 1, 60, 0
3, 8153, Control_c, 1, 7, 100
3, 8400, Control_c, 1, 7, 95
3, 8400, Note_on_c, 1, 65, 100
3, 8628, Note_on_c, 1, 65, 0
3, 8640, Note_on_c, 1, 65, 100
3, 9462, Note_on_c, 1, 65, 0
3, 9480, Note_on_c, 1, 67, 100
3, 9537, Note_on_c, 1, 67, 0
3, 9540, Note_on_c, 1, 65, 100
3, 9597, Note_on_c, 1, 65, 0
3, 9600, Note_on_c, 1, 64, 100
3, 9620, Control_c, 1, 7, 96
3, 9650, Control_c, 1, 7, 97
3, 9690, Control_c, 1, 7, 98
3, 9720, Control_c, 1, 7, 99
3, 9751, Control_c, 1, 7, 100
3, 9781, Control_c, 1, 7, 101
3, 9811, Control_c, 1, 7, 102
3, 9828, Note_on_c, 1, 64, 0
3, 9840, Note_on_c, 1, 65, 100
3, 9852, Control_c, 1, 7, 103
3, 9882, Control_c, 1, 7, 104
3, 9912, Control_c, 1, 7, 105
3, 9942, Control_c, 1, 7, 106
3, 9972, Control_c, 1, 7, 107
3, 10013, Control_c, 1, 7, 108
3, 10068, Note_on_c, 1, 65, 0
3, 10080, Note_on_c, 1, 68, 100
3, 10536, Note_on_c, 1, 68, 0
3, 10560, Note_on_c, 1, 67, 100
3, 10580, Control_c, 1, 7, 107
3, 10620, Control_c, 1, 7, 106
3, 10660, Control_c, 1, 7, 105
3, 10691, Control_c, 1, 7, 104
3, 10731, Control_c, 1, 7, 103
3, 10771, Control_c, 1, 7, 102
3, 10801, Control_c, 1, 7, 101
3, 10842, Control_c, 1, 7, 100
3, 10882, Control_c, 1, 7, 99
3, 10912, Control_c, 1, 7, 98
3, 10953, Control_c, 1, 7, 97
3, 10993, Control_c, 1, 7, 96
3, 11016, Note_on_c, 1, 67, 0
3, 11023, Control_c, 1, 7, 95
3, 11520, Control_c, 1, 7, 120
3, 11520, Note_on_c, 1, 65, 100
3, 12456, Note_on_c, 1, 65, 0
3, 12480, Note_on_c, 1, 60, 100
3, 12822, Note_on_c, 1, 60, 0
3, 12840, Note_on_c, 1, 60, 100
3, 12954, Note_on_c, 1, 60, 0
3, 12960, Note_on_c, 1, 61, 100
3, 13416, Note_on_c, 1, 61, 0
3, 13440, Note_on_c, 1, 60, 100
3, 13896, Note_on_c, 1, 60, 0
3, 14160, Control_c, 1, 7, 95
3, 14160, Note_on_c, 1, 65, 100
3, 14388, Note_on_c, 1, 65, 0
3, 14400, Note_on_c, 1, 65, 100
3, 15222, Note_on_c, 1, 65, 0
3, 15240, Note_on_c, 1, 67, 100
3, 15297, Note_on_c, 1, 67, 0
3, 15300, Note_on_c, 1, 65, 100
3, 15357, Note_on_c, 1, 65, 0
3, 15360, Note_on_c, 1, 64, 100
3, 15588, Note_on_c, 1, 64, 0
3, 15600, Note_on_c, 1, 65, 100
3, 15828, Note_on_c, 1, 65, 0
3, 15840, Note_on_c, 1, 68, 100
3, 16296, Note_on_c, 1, 68, 0
3, 16320, Note_on_c, 1, 67, 100
3, 16340, Control_c, 1, 7, 94
3, 16360, Control_c, 1, 7, 93
3, 16380, Control_c, 1, 7, 92
3, 16400, Control_c, 1, 7, 91
3, 16420, Control_c, 1, 7, 90
3, 16440, Control_c, 1, 7, 89
3, 16461, Control_c, 1, 7, 88
3, 16481, Control_c, 1, 7, 87
3, 16501, Control_c, 1, 7, 86
3, 16521, Control_c, 1, 7, 85
3, 16541, Control_c, 1, 7, 84
3, 16561, Control_c, 1, 7, 83
3, 16582, Control_c, 1, 7, 82
3, 16602, Control_c, 1, 7, 81
3, 16622, Control_c, 1, 7, 80
3, 16642, Control_c, 1, 7, 79
3, 16662, Control_c, 1, 7, 78
3, 16682, Control_c, 1, 7, 77
3, 16703, Control_c, 1, 7, 76
3, 16723, Control_c, 1, 7, 75
3, 16743, Control_c, 1, 7, 74
3, 16763, Control_c, 1, 7, 73
3, 16776, Note_on_c, 1, 67, 0
3, 16783, Control_c, 1, 7, 72
3, 16803, Control_c, 1, 7, 71
3, 17280, Control_c, 1, 7, 123
3, 17280, Note_on_c, 1, 68, 100
3, 18216, Note_on_c, 1, 68, 0
3, 18240, Note_on_c, 1, 63, 100
3, 18582, Note_on_c, 1, 63, 0
3, 18600, Note_on_c, 1, 63, 100
3, 18714, Note_on_c, 1, 63, 0
3, 18720, Note_on_c, 1, 64, 100
3, 19176, Note_on_c, 1, 64, 0
3, 19200, Note_on_c, 1, 63, 100
3, 19656, Note_on_c, 1, 63, 0
3, 19920, Control_c, 1, 7, 98
3, 19920, Note_on_c, 1, 63, 100
3, 20148, Note_on_c, 1, 63, 0
3, 20160, Note_on_c, 1, 63, 100
3, 20220, Control_c, 1, 7, 99
3, 20321, Control_c, 1, 7, 100
3, 20388, Note_on_c, 1, 63, 0
3, 20400, Note_on_c, 1, 68, 100
3, 20432, Control_c, 1, 7, 101
3, 20532, Control_c, 1, 7, 102
3, 20628, Note_on_c, 1, 68, 0
3, 20633, Control_c, 1, 7, 103
3, 20640, Note_on_c, 1, 67, 100
3, 20744, Control_c, 1, 7, 104
3, 20845, Control_c, 1, 7, 105
3, 20868, Note_on_c, 1, 67, 0
3, 20880, Note_on_c, 1, 68, 100
3, 20956, Control_c, 1, 7, 106
3, 21108, Note_on_c, 1, 68, 0
3, 21120, Note_on_c, 1, 70, 100
3, 21150, Control_c, 1, 7, 105
3, 21190, Control_c, 1, 7, 104
3, 21240, Control_c, 1, 7, 103
3, 21281, Control_c, 1, 7, 102
3, 21331, Control_c, 1, 7, 101
3, 21372, Control_c, 1, 7, 100
3, 21422, Control_c, 1, 7, 99
3, 21462, Note_on_c, 1, 70, 0
3, 21462, Control_c, 1, 7, 98
3, 21480, Note_on_c, 1, 68, 100
3, 21594, Note_on_c, 1, 68, 0
3, 21600, Note_on_c, 1, 68, 100
3, 22536, Note_on_c, 1, 68, 0
3, 22560, Note_on_c, 1, 70, 100
3, 23016, Note_on_c, 1, 70, 0
3, 23040, Note_on_c, 1, 72, 100
3, 23976, Note_on_c, 1, 72, 0
3, 24000, Note_on_c, 1, 67, 100
3, 24342, Note_on_c, 1, 67, 0
3, 24360, Note_on_c, 1, 67, 100
3, 24474, Note_on_c, 1, 67, 0
3, 24480, Note_on_c, 1, 68, 100
3, 25416, Note_on_c, 1, 68, 0
3, 25440, Note_on_c, 1, 65, 100
3, 25896, Note_on_c, 1, 65, 0
3, 25920, Note_on_c, 1, 64, 100
3, 25960, Control_c, 1, 7, 99
3, 26030, Control_c, 1, 7, 100
3, 26101, Control_c, 1, 7, 101
3, 26161, Control_c, 1, 7, 102
3, 26232, Control_c, 1, 7, 103
3, 26262, Note_on_c, 1, 64, 0
3, 26280, Note_on_c, 1, 67, 100
3, 26303, Control_c, 1, 7, 104
3, 26373, Control_c, 1, 7, 105
3, 26394, Note_on_c, 1, 67, 0
3, 26400, Note_on_c, 1, 73, 100
3, 26444, Control_c, 1, 7, 106
3, 26504, Control_c, 1, 7, 107
3, 26575, Control_c, 1, 7, 108
3, 26645, Control_c, 1, 7, 109
3, 26716, Control_c, 1, 7, 110
3, 26786, Control_c, 1, 7, 111
3, 26847, Control_c, 1, 7, 112
3, 27020, Control_c, 1, 7, 111
3, 27040, Control_c, 1, 7, 110
3, 27060, Control_c, 1, 7, 109
3, 27090, Control_c, 1, 7, 108
3, 27108, Note_on_c, 1, 73, 0
3, 27110, Control_c, 1, 7, 107
3, 27120, Note_on_c, 1, 72, 100
3, 27141, Control_c, 1, 7, 106
3, 27161, Control_c, 1, 7, 105
3, 27181, Control_c, 1, 7, 104
3, 27211, Control_c, 1, 7, 103
3, 27231, Control_c, 1, 7, 102
3, 27348, Note_on_c, 1, 72, 0
3, 27360, Note_on_c, 1, 70, 100
3, 27816, Note_on_c, 1, 70, 0
3, 27840, Note_on_c, 1, 68, 100
3, 28296, Note_on_c, 1, 68, 0
3, 28800, Note_on_c, 1, 72, 100
3, 29736, Note_on_c, 1, 72, 0
3, 29760, Note_on_c, 1, 67, 100
3, 30102, Note_on_c, 1, 67, 0
3, 30120, Note_on_c, 1, 67, 100
3, 30234, Note_on_c, 1, 67, 0
3, 30240, Note_on_c, 1, 68, 100
3, 31176, Note_on_c, 1, 68, 0
3, 31200, Note_on_c, 1, 65, 100
3, 31656, Note_on_c, 1, 65, 0
3, 31680, Note_on_c, 1, 60, 100
3, 31730, Control_c, 1, 7, 103
3, 31821, Control_c, 1, 7, 104
3, 31908, Note_on_c, 1, 60, 0
3, 31911, Control_c, 1, 7, 105
3, 31920, Note_on_c, 1, 61, 100
3, 31958, Note_on_c, 1, 61, 0
3, 31959, Note_on_c, 1, 60, 100
3, 31997, Note_on_c, 1, 60, 0
3, 31999, Note_on_c, 1, 59, 100
3, 32002, Control_c, 1, 7, 106
3, 32037, Note_on_c, 1, 59, 0
3, 32040, Note_on_c, 1, 60, 100
3, 32093, Control_c, 1, 7, 107
3, 32154, Note_on_c, 1, 60, 0
3, 32160, Note_on_c, 1, 68, 100
3, 32184, Control_c, 1, 7, 108
3, 32274, Control_c, 1, 7, 109
3, 32355, Control_c, 1, 7, 110
3, 32670, Control_c, 1, 7, 109
3, 32720, Control_c, 1, 7, 108
3, 32781, Control_c, 1, 7, 107
3, 32831, Control_c, 1, 7, 106
3, 32868, Note_on_c, 1, 68, 0
3, 32880, Note_on_c, 1, 67, 100
3, 32881, Control_c, 1, 7, 105
3, 32932, Control_c, 1, 7, 104
3, 32982, Control_c, 1, 7, 103
3, 33043, Control_c, 1, 7, 102
3, 33108, Note_on_c, 1, 67, 0
3, 33120, Note_on_c, 1, 67, 100
3, 33576, Note_on_c, 1, 67, 0
3, 33600, Note_on_c, 1, 65, 100
3, 34056, Note_on_c, 1, 65, 0
3, 46080, Control_c, 1, 7, 100
3, 46080, Note_on_c, 1, 63, 100
3, 46536, Note_on_c, 1, 63, 0
3, 46560, Note_on_c, 1, 68, 100
3, 46580, Control_c, 1, 7, 101
3, 46610, Control_c, 1, 7, 102
3, 46640, Control_c, 1, 7, 103
3, 46670, Control_c, 1, 7, 104
3, 46701, Control_c, 1, 7, 105
3, 46731, Control_c, 1, 7, 106
3, 46761, Control_c, 1, 7, 107
3, 46788, Note_on_c, 1, 68, 0
3, 46791, Control_c, 1, 7, 108
3, 46800, Note_on_c, 1, 67, 100
3, 46822, Control_c, 1, 7, 109
3, 46852, Control_c, 1, 7, 110
3, 46882, Control_c, 1, 7, 111
3, 46912, Control_c, 1, 7, 112
3, 47028, Note_on_c, 1, 67, 0
3, 47040, Note_on_c, 1, 65, 100
3, 47060, Control_c, 1, 7, 111
3, 47100, Control_c, 1, 7, 110
3, 47140, Control_c, 1, 7, 109
3, 47181, Control_c, 1, 7, 108
3, 47221, Control_c, 1, 7, 107
3, 47261, Control_c, 1, 7, 106
3, 47268, Note_on_c, 1, 65, 0
3, 47280, Note_on_c, 1, 67, 100
3, 47302, Control_c, 1, 7, 105
3, 47337, Note_on_c, 1, 67, 0
3, 47340, Note_on_c, 1, 65, 100
3, 47342, Control_c, 1, 7, 104
3, 47382, Control_c, 1, 7, 103
3, 47397, Note_on_c, 1, 65, 0
3, 47400, Note_on_c, 1, 64, 100
3, 47423, Control_c, 1, 7, 102
3, 47457, Note_on_c, 1, 64, 0
3, 47460, Note_on_c, 1, 65, 100
3, 47463, Control_c, 1, 7, 101
3, 47503, Control_c, 1, 7, 100
3, 47517, Note_on_c, 1, 65, 0
3, 47520, Note_on_c, 1, 67, 100
3, 47748, Note_on_c, 1, 67, 0
3, 47760, Note_on_c, 1, 68, 100
3, 47988, Note_on_c, 1, 68, 0
3, 48000, Note_on_c, 1, 63, 100
3, 48342, Note_on_c, 1, 63, 0
3, 48360, Note_on_c, 1, 65, 100
3, 48474, Note_on_c, 1, 65, 0
3, 48480, Note_on_c, 1, 63, 100
3, 48708, Note_on_c, 1, 63, 0
3, 48720, Note_on_c, 1, 65, 100
3, 48948, Note_on_c, 1, 65, 0
3, 48960, Note_on_c, 1, 63, 100
3, 49302, Note_on_c, 1, 63, 0
3, 49320, Note_on_c, 1, 61, 100
3, 49434, Note_on_c, 1, 61, 0
3, 49440, Note_on_c, 1, 60, 100
3, 49668, Note_on_c, 1, 60, 0
3, 49920, Note_on_c, 1, 63, 100
3, 50376, Note_on_c, 1, 63, 0
3, 50400, Note_on_c, 1, 65, 100
3, 50440, Control_c, 1, 7, 101
3, 50520, Control_c, 1, 7, 102
3, 50601, Control_c, 1, 7, 103
3, 50682, Control_c, 1, 7, 104
3, 50742, Note_on_c, 1, 65, 0
3, 50760, Note_on_c, 1, 65, 100
3, 50762, Control_c, 1, 7, 105
3, 50843, Control_c, 1, 7, 106
3, 50874, Note_on_c, 1, 65, 0
3, 50880, Note_on_c, 1, 67, 100
3, 50924, Control_c, 1, 7, 107
3, 51004, Control_c, 1, 7, 108
3, 51085, Control_c, 1, 7, 109
3, 51166, Control_c, 1, 7, 110
3, 51246, Control_c, 1, 7, 111
3, 51327, Control_c, 1, 7, 112
3, 51336, Note_on_c, 1, 67, 0
3, 51360, Note_on_c, 1, 67, 100
3, 51408, Control_c, 1, 7, 113
3, 51488, Control_c, 1, 7, 114
3, 51569, Control_c, 1, 7, 115
3, 51588, Note_on_c, 1, 67, 0
3, 51600, Note_on_c, 1, 68, 100
3, 51828, Note_on_c, 1, 68, 0
3, 51840, Note_on_c, 1, 72, 100
3, 51870, Control_c, 1, 7, 114
3, 51920, Control_c, 1, 7, 113
3, 51960, Control_c, 1, 7, 112
3, 52011, Control_c, 1, 7, 111
3, 52061, Control_c, 1, 7, 110
3, 52068, Note_on_c, 1, 72, 0
3, 52080, Note_on_c, 1, 70, 100
3, 52112, Control_c, 1, 7, 109
3, 52152, Control_c, 1, 7, 108
3, 52202, Control_c, 1, 7, 107
3, 52253, Control_c, 1, 7, 106
3, 52303, Control_c, 1, 7, 105
3, 52308, Note_on_c, 1, 70, 0
3, 52320, Note_on_c, 1, 65, 100
3, 52354, Control_c, 1, 7, 104
3, 52394, Control_c, 1, 7, 103
3, 52444, Control_c, 1, 7, 102
3, 52495, Control_c, 1, 7, 101
3, 52545, Control_c, 1, 7, 100
3, 52662, Note_on_c, 1, 65, 0
3, 52680, Note_on_c, 1, 67, 100
3, 52794, Note_on_c, 1, 67, 0
3, 52800, Note_on_c, 1, 65, 100
3, 53256, Note_on_c, 1, 65, 0
3, 53280, Note_on_c, 1, 63, 100
3, 53508, Note_on_c, 1, 63, 0
3, 53760, Note_on_c, 1, 70, 100
3, 54216, Note_on_c, 1, 70, 0
3, 54240, Note_on_c, 1, 72, 100
3, 54582, Note_on_c, 1, 72, 0
3, 54600, Note_on_c, 1, 70, 100
3, 54714, Note_on_c, 1, 70, 0
3, 54720, Note_on_c, 1, 65, 100
3, 55176, Note_on_c, 1, 65, 0
3, 55200, Note_on_c, 1, 70, 100
3, 55428, Note_on_c, 1, 70, 0
3, 55440, Note_on_c, 1, 70, 100
3, 55668, Note_on_c, 1, 70, 0
3, 55680, Note_on_c, 1, 69, 100
3, 56136, Note_on_c, 1, 69, 0
3, 56160, Note_on_c, 1, 72, 100
3, 56502, Note_on_c, 1, 72, 0
3, 56520, Note_on_c, 1, 70, 100
3, 56634, Note_on_c, 1, 70, 0
3, 56640, Note_on_c, 1, 63, 100
3, 56982, Note_on_c, 1, 63, 0
3, 57000, Note_on_c, 1, 67, 100
3, 57057, Note_on_c, 1, 67, 0
3, 57060, Note_on_c, 1, 65, 100
3, 57117, Note_on_c, 1, 65, 0
3, 57120, Note_on_c, 1, 63, 100
3, 57576, Note_on_c, 1, 63, 0
3, 57600, Control_c, 1, 7, 90
3, 57600, Note_on_c, 1, 63, 100
3, 58056, Note_on_c, 1, 63, 0
3, 58080, Note_on_c, 1, 68, 100
3, 58100, Control_c, 1, 7, 91
3, 58140, Control_c, 1, 7, 92
3, 58170, Control_c, 1, 7, 93
3, 58211, Control_c, 1, 7, 94
3, 58251, Control_c, 1, 7, 95
3, 58281, Control_c, 1, 7, 96
3, 58321, Control_c, 1, 7, 97
3, 58352, Control_c, 1, 7, 98
3, 58392, Control_c, 1, 7, 99
3, 58422, Note_on_c, 1, 68, 0
3, 58422, Control_c, 1, 7, 100
3, 58440, Note_on_c, 1, 70, 100
3, 58554, Note_on_c, 1, 70, 0
3, 58560, Note_on_c, 1, 72, 100
3, 58830, Control_c, 1, 7, 99
3, 58890, Control_c, 1, 7, 98
3, 58951, Control_c, 1, 7, 97
3, 59011, Control_c, 1, 7, 96
3, 59016, Note_on_c, 1, 72, 0
3, 59040, Note_on_c, 1, 73, 100
3, 59072, Control_c, 1, 7, 95
3, 59132, Control_c, 1, 7, 94
3, 59193, Control_c, 1, 7, 93
3, 59253, Control_c, 1, 7, 92
3, 59314, Control_c, 1, 7, 91
3, 59374, Control_c, 1, 7, 90
3, 59382, Note_on_c, 1, 73, 0
3, 59400, Note_on_c, 1, 72, 100
3, 59514, Note_on_c, 1, 72, 0
3, 59520, Note_on_c, 1, 72, 100
3, 59748, Note_on_c, 1, 72, 0
3, 59760, Note_on_c, 1, 70, 100
3, 59988, Note_on_c, 1, 70, 0
3, 60000, Note_on_c, 1, 67, 100
3, 60228, Note_on_c, 1, 67, 0
3, 60240, Note_on_c, 1, 65, 100
3, 60468, Note_on_c, 1, 65, 0
3, 60480, Note_on_c, 1, 65, 100
3, 61188, Note_on_c, 1, 65, 0
3, 61200, Note_on_c, 1, 63, 100
3, 61428, Note_on_c, 1, 63, 0
3, 61440, Note_on_c, 1, 63, 100
3, 61896, Note_on_c, 1, 63, 0
3, 61920, Note_on_c, 1, 68, 100
3, 61930, Control_c, 1, 7, 91
3, 61950, Control_c, 1, 7, 92
3, 61960, Control_c, 1, 7, 93
3, 61980, Control_c, 1, 7, 94
3, 61990, Control_c, 1, 7, 95
3, 62010, Control_c, 1, 7, 96
3, 62020, Control_c, 1, 7, 97
3, 62040, Control_c, 1, 7, 98
3, 62051, Control_c, 1, 7, 99
3, 62071, Control_c, 1, 7, 100
3, 62081, Control_c, 1, 7, 101
3, 62101, Control_c, 1, 7, 102
3, 62111, Control_c, 1, 7, 103
3, 62131, Control_c, 1, 7, 104
3, 62141, Control_c, 1, 7, 105
3, 62161, Control_c, 1, 7, 106
3, 62172, Control_c, 1, 7, 107
3, 62192, Control_c, 1, 7, 108
3, 62202, Control_c, 1, 7, 109
3, 62222, Control_c, 1, 7, 110
3, 62232, Control_c, 1, 7, 111
3, 62242, Control_c, 1, 7, 112
3, 62262, Note_on_c, 1, 68, 0
3, 62262, Control_c, 1, 7, 113
3, 62272, Control_c, 1, 7, 114
3, 62280, Note_on_c, 1, 70, 100
3, 62394, Note_on_c, 1, 70, 0
3, 62400, Note_on_c, 1, 72, 100
3, 62660, Control_c, 1, 7, 113
3, 62680, Control_c, 1, 7, 112
3, 62710, Control_c, 1, 7, 111
3, 62730, Control_c, 1, 7, 110
3, 62760, Control_c, 1, 7, 109
3, 62781, Control_c, 1, 7, 108
3, 62811, Control_c, 1, 7, 107
3, 62831, Control_c, 1, 7, 106
3, 62856, Note_on_c, 1, 72, 0
3, 62861, Control_c, 1, 7, 105
3, 62880, Note_on_c, 1, 72, 100
3, 62881, Control_c, 1, 7, 104
3, 62912, Control_c, 1, 7, 103
3, 62932, Control_c, 1, 7, 102
3, 62962, Control_c, 1, 7, 101
3, 62982, Control_c, 1, 7, 100
3, 63002, Control_c, 1, 7, 99
3, 63033, Control_c, 1, 7, 98
3, 63053, Control_c, 1, 7, 97
3, 63083, Control_c, 1, 7, 96
3, 63103, Control_c, 1, 7, 95
3, 63108, Note_on_c, 1, 72, 0
3, 63120, Note_on_c, 1, 70, 100
3, 63133, Control_c, 1, 7, 94
3, 63154, Control_c, 1, 7, 93
3, 63184, Control_c, 1, 7, 92
3, 63204, Control_c, 1, 7, 91
3, 63234, Control_c, 1, 7, 90
3, 63348, Note_on_c, 1, 70, 0
3, 63360, Note_on_c, 1, 63, 100
3, 63588, Note_on_c, 1, 63, 0
3, 63600, Note_on_c, 1, 65, 100
3, 63657, Note_on_c, 1, 65, 0
3, 63660, Note_on_c, 1, 63, 100
3, 63717, Note_on_c, 1, 63, 0
3, 63720, Note_on_c, 1, 62, 100
3, 63777, Note_on_c, 1, 62, 0
3, 63780, Note_on_c, 1, 63, 100
3, 63837, Note_on_c, 1, 63, 0
3, 63840, Note_on_c, 1, 65, 100
3, 64068, Note_on_c, 1, 65, 0
3, 64080, Note_on_c, 1, 67, 100
3, 64308, Note_on_c, 1, 67, 0
3, 64320, Note_on_c, 1, 70, 100
3, 64548, Note_on_c, 1, 70, 0
3, 64560, Note_on_c, 1, 68, 100
3, 64788, Note_on_c, 1, 68, 0
3, 69120, Control_c, 1, 7, 100
3, 69120, Note_on_c, 1, 63, 100
3, 69576, Note_on_c, 1, 63, 0
3, 69600, Note_on_c, 1, 68, 100
3, 69620, Control_c, 1, 7, 101
3, 69650, Control_c, 1, 7, 102
3, 69680, Control_c, 1, 7, 103
3, 69710, Control_c, 1, 7, 104
3, 69741, Control_c, 1, 7, 105
3, 69771, Control_c, 1, 7, 106
3, 69801, Control_c, 1, 7, 107
3, 69828, Note_on_c, 1, 68, 0
3, 69831, Control_c, 1, 7, 108
3, 69840, Note_on_c, 1, 67, 100
3, 69862, Control_c, 1, 7, 109
3, 69892, Control_c, 1, 7, 110
3, 69922, Control_c, 1, 7, 111
3, 69952, Control_c, 1, 7, 112
3, 70068, Note_on_c, 1, 67, 0
3, 70080, Note_on_c, 1, 65, 100
3, 70100, Control_c, 1, 7, 111
3, 70140, Control_c, 1, 7, 110
3, 70180, Control_c, 1, 7, 109
3, 70221, Control_c, 1, 7, 108
3, 70261, Control_c, 1, 7, 107
3, 70301, Control_c, 1, 7, 106
3, 70308, Note_on_c, 1, 65, 0
3, 70320, Note_on_c, 1, 67, 100
3, 70342, Control_c, 1, 7, 105
3, 70377, Note_on_c, 1, 67, 0
3, 70380, Note_on_c, 1, 65, 100
3, 70382, Control_c, 1, 7, 104
3, 70422, Control_c, 1, 7, 103
3, 70437, Note_on_c, 1, 65, 0
3, 70440, Note_on_c, 1, 64, 100
3, 70463, Control_c, 1, 7, 102
3, 70497, Note_on_c, 1, 64, 0
3, 70500, Note_on_c, 1, 65, 100
3, 70503, Control_c, 1, 7, 101
3, 70543, Control_c, 1, 7, 100
3, 70557, Note_on_c, 1, 65, 0
3, 70560, Note_on_c, 1, 67, 100
3, 70788, Note_on_c, 1, 67, 0
3, 70800, Note_on_c, 1, 68, 100
3, 71028, Note_on_c, 1, 68, 0
3, 71040, Note_on_c, 1, 63, 100
3, 71382, Note_on_c, 1, 63, 0
3, 71400, Note_on_c, 1, 65, 100
3, 71514, Note_on_c, 1, 65, 0
3, 71520, Note_on_c, 1, 63, 100
3, 71748, Note_on_c, 1, 63, 0
3, 71760, Note_on_c, 1, 65, 100
3, 71988, Note_on_c, 1, 65, 0
3, 72000, Note_on_c, 1, 63, 100
3, 72342, Note_on_c, 1, 63, 0
3, 72360, Note_on_c, 1, 61, 100
3, 72474, Note_on_c, 1, 61, 0
3, 72480, Note_on_c, 1, 60, 100
3, 72708, Note_on_c, 1, 60, 0
3, 72960, Note_on_c, 1, 63, 100
3, 73416, Note_on_c, 1, 63, 0
3, 73440, Note_on_c, 1, 65, 100
3, 73782, Note_on_c, 1, 65, 0
3, 73800, Note_on_c, 1, 65, 100
3, 73914, Note_on_c, 1, 65, 0
3, 73920, Note_on_c, 1, 67, 100
3, 74376, Note_on_c, 1, 67, 0
3, 74400, Note_on_c, 1, 67, 100
3, 74628, Note_on_c, 1, 67, 0
3, 74640, Note_on_c, 1, 68, 100
3, 74868, Note_on_c, 1, 68, 0
3, 74880, Note_on_c, 1, 72, 100
3, 75108, Note_on_c, 1, 72, 0
3, 75120, Note_on_c, 1, 70, 100
3, 75348, Note_on_c, 1, 70, 0
3, 75360, Note_on_c, 1, 65, 100
3, 75702, Note_on_c, 1, 65, 0
3, 75720, Note_on_c, 1, 67, 100
3, 75834, Note_on_c, 1, 67, 0
3, 75840, Note_on_c, 1, 65, 100
3, 76296, Note_on_c, 1, 65, 0
3, 76320, Note_on_c, 1, 63, 100
3, 76548, Note_on_c, 1, 63, 0
3, 76800, Note_on_c, 1, 70, 100
3, 77256, Note_on_c, 1, 70, 0
3, 77280, Note_on_c, 1, 72, 100
3, 77622, Note_on_c, 1, 72, 0
3, 77640, Note_on_c, 1, 70, 100
3, 77754, Note_on_c, 1, 70, 0
3, 77760, Note_on_c, 1, 65, 100
3, 78468, Note_on_c, 1, 65, 0
3, 78480, Note_on_c, 1, 70, 100
3, 78708, Note_on_c, 1, 70, 0
3, 78720, Note_on_c, 1, 69, 100
3, 79062, Note_on_c, 1, 69, 0
3, 79080, Note_on_c, 1, 70, 100
3, 79194, Note_on_c, 1, 70, 0
3, 79200, Note_on_c, 1, 72, 100
3, 79542, Note_on_c, 1, 72, 0
3, 79560, Note_on_c, 1, 70, 100
3, 79674, Note_on_c, 1, 70, 0
3, 79680, Note_on_c, 1, 63, 100
3, 80022, Note_on_c, 1, 63, 0
3, 80040, Note_on_c, 1, 67, 100
3, 80097, Note_on_c, 1, 67, 0
3, 80100, Note_on_c, 1, 65, 100
3, 80157, Note_on_c, 1, 65, 0
3, 80160, Note_on_c, 1, 63, 100
3, 80616, Note_on_c, 1, 63, 0
3, 80640, Control_c, 1, 7, 90
3, 80640, Note_on_c, 1, 63, 100
3, 81096, Note_on_c, 1, 63, 0
3, 81120, Note_on_c, 1, 68, 100
3, 81140, Control_c, 1, 7, 91
3, 81170, Control_c, 1, 7, 92
3, 81200, Control_c, 1, 7, 93
3, 81230, Control_c, 1, 7, 94
3, 81261, Control_c, 1, 7, 95
3, 81291, Control_c, 1, 7, 96
3, 81321, Control_c, 1, 7, 97
3, 81351, Control_c, 1, 7, 98
3, 81382, Control_c, 1, 7, 99
3, 81412, Control_c, 1, 7, 100
3, 81442, Control_c, 1, 7, 101
3, 81462, Note_on_c, 1, 68, 0
3, 81472, Control_c, 1, 7, 102
3, 81480, Note_on_c, 1, 70, 100
3, 81503, Control_c, 1, 7, 103
3, 81533, Control_c, 1, 7, 104
3, 81563, Control_c, 1, 7, 105
3, 81593, Control_c, 1, 7, 106
3, 81594, Note_on_c, 1, 70, 0
3, 81600, Note_on_c, 1, 72, 100
3, 81860, Control_c, 1, 7, 105
3, 81900, Control_c, 1, 7, 104
3, 81940, Control_c, 1, 7, 103
3, 81981, Control_c, 1, 7, 102
3, 82011, Control_c, 1, 7, 101
3, 82051, Control_c, 1, 7, 100
3, 82056, Note_on_c, 1, 72, 0
3, 82080, Note_on_c, 1, 73, 100
3, 82092, Control_c, 1, 7, 99
3, 82122, Control_c, 1, 7, 98
3, 82162, Control_c, 1, 7, 97
3, 82202, Control_c, 1, 7, 96
3, 82243, Control_c, 1, 7, 95
3, 82273, Control_c, 1, 7, 94
3, 82313, Control_c, 1, 7, 93
3, 82354, Control_c, 1, 7, 92
3, 82384, Control_c, 1, 7, 91
3, 82422, Note_on_c, 1, 73, 0
3, 82424, Control_c, 1, 7, 90
3, 82440, Note_on_c, 1, 72, 100
3, 82554, Note_on_c, 1, 72, 0
3, 82560, Note_on_c, 1, 72, 100
3, 82788, Note_on_c, 1, 72, 0
3, 82800, Note_on_c, 1, 70, 100
3, 83028, Note_on_c, 1, 70, 0
3, 83040, Note_on_c, 1, 67, 100
3, 83268, Note_on_c, 1, 67, 0
3, 83280, Note_on_c, 1, 65, 100
3, 83508, Note_on_c, 1, 65, 0
3, 83520, Note_on_c, 1, 65, 100
3, 84228, Note_on_c, 1, 65, 0
3, 84240, Note_on_c, 1, 63, 100
3, 84468, Note_on_c, 1, 63, 0
3, 84480, Note_on_c, 1, 63, 100
3, 84936, Note_on_c, 1, 63, 0
3, 84960, Note_on_c, 1, 68, 100
3, 84980, Control_c, 1, 7, 91
3, 85010, Control_c, 1, 7, 92
3, 85040, Control_c, 1, 7, 93
3, 85080, Control_c, 1, 7, 94
3, 85111, Control_c, 1, 7, 95
3, 85141, Control_c, 1, 7, 96
3, 85171, Control_c, 1, 7, 97
3, 85201, Control_c, 1, 7, 98
3, 85232, Control_c, 1, 7, 99
3, 85272, Control_c, 1, 7, 100
3, 85302, Note_on_c, 1, 68, 0
3, 85302, Control_c, 1, 7, 101
3, 85320, Note_on_c, 1, 70, 100
3, 85332, Control_c, 1, 7, 102
3, 85363, Control_c, 1, 7, 103
3, 85393, Control_c, 1, 7, 104
3, 85433, Control_c, 1, 7, 105
3, 85434, Note_on_c, 1, 70, 0
3, 85440, Note_on_c, 1, 72, 100
3, 85710, Control_c, 1, 7, 104
3, 85760, Control_c, 1, 7, 103
3, 85800, Control_c, 1, 7, 102
3, 85851, Control_c, 1, 7, 101
3, 85896, Note_on_c, 1, 72, 0
3, 85901, Control_c, 1, 7, 100
3, 85920, Note_on_c, 1, 72, 100
3, 85952, Control_c, 1, 7, 99
3, 85992, Control_c, 1, 7, 98
3, 86042, Control_c, 1, 7, 97
3, 86093, Control_c, 1, 7, 96
3, 86143, Control_c, 1, 7, 95
3, 86148, Note_on_c, 1, 72, 0
3, 86160, Note_on_c, 1, 70, 100
3, 86194, Control_c, 1, 7, 94
3, 86234, Control_c, 1, 7, 93
3, 86284, Control_c, 1, 7, 92
3, 86335, Control_c, 1, 7, 91
3, 86385, Control_c, 1, 7, 90
3, 86388, Note_on_c, 1, 70, 0
3, 86400, Note_on_c, 1, 63, 100
3, 86628, Note_on_c, 1, 63, 0
3, 86640, Note_on_c, 1, 65, 100
3, 86697, Note_on_c, 1, 65, 0
3, 86700, Note_on_c, 1, 63, 100
3, 86757, Note_on_c, 1, 63, 0
3, 86760, Note_on_c, 1, 62, 100
3, 86817, Note_on_c, 1, 62, 0
3, 86820, Note_on_c, 1, 63, 100
3, 86877, Note_on_c, 1, 63, 0
3, 86880, Note_on_c, 1, 65, 100
3, 87108, Note_on_c, 1, 65, 0
3, 87120, Note_on_c, 1, 67, 100
3, 87348, Note_on_c, 1, 67, 0
3, 87360, Note_on_c, 1, 70, 100
3, 87588, Note_on_c, 1, 70, 0
3, 87600, Note_on_c, 1, 68, 100
3, 87828, Note_on_c, 1, 68, 0
3, 92160, End_track
0, 0, End_of_file