0, 0, Header, 1, 2, 480
1, 0, Start_track
1, 0, Title_t, "untitled"
1, 0, SMPTE_offset, 96, 0, 3, 0, 0
1, 0, Time_signature, 4, 2, 24, 8
1, 0, Key_signature, 0, "major"
1, 0, Tempo, 500000
1, 0, End_track
2, 0, Start_track
2, 0, MIDI_port, 0
2, 0, Program_c, 0, 0
2, 299, Note_on_c, 0, 71, 35
2, 457, Note_on_c, 0, 71, 0
2, 464, Note_on_c, 0, 72, 66
2, 512, Note_on_c, 0, 72, 0
2, 531, Control_c, 0, 64, 127
2, 661, Note_on_c, 0, 43, 18
2, 671, Note_on_c, 0, 74, 71
2, 711, Note_on_c, 0, 43, 0
2, 716, Note_on_c, 0, 74, 0
2, 764, Note_on_c, 0, 76, 69
2, 776, Control_c, 0, 64, 0
2, 817, Note_on_c, 0, 76, 0
2, 841, Note_on_c, 0, 74, 62
2, 896, Note_on_c, 0, 59, 48
2, 908, Note_on_c, 0, 74, 0
2, 911, Note_on_c, 0, 50, 42
2, 913, Note_on_c, 0, 83, 71
2, 949, Note_on_c, 0, 83, 0
2, 1107, Note_on_c, 0, 59, 0
2, 1110, Note_on_c, 0, 72, 83
2, 1141, Note_on_c, 0, 51, 58
2, 1143, Note_on_c, 0, 50, 0
2, 1155, Note_on_c, 0, 72, 0
2, 1175, Note_on_c, 0, 74, 60
2, 1225, Note_on_c, 0, 74, 0
2, 1254, Note_on_c, 0, 72, 65
2, 1311, Note_on_c, 0, 72, 0
2, 1328, Note_on_c, 0, 81, 77
2, 1333, Note_on_c, 0, 54, 47
2, 1357, Note_on_c, 0, 60, 22
2, 1367, Note_on_c, 0, 81, 0
2, 1422, Note_on_c, 0, 60, 0
2, 1458, Note_on_c, 0, 54, 0
2, 1520, Note_on_c, 0, 51, 0
2, 1520, Note_on_c, 0, 71, 75
2, 1530, Note_on_c, 0, 52, 71
2, 1556, Note_on_c, 0, 71, 0
2, 1571, Note_on_c, 0, 72, 75
2, 1614, Note_on_c, 0, 72, 0
2, 1667, Note_on_c, 0, 71, 47
2, 1719, Note_on_c, 0, 59, 47
2, 1727, Note_on_c, 0, 71, 0
2, 1734, Note_on_c, 0, 79, 80
2, 1739, Note_on_c, 0, 55, 57
2, 1770, Note_on_c, 0, 79, 0
2, 1789, Note_on_c, 0, 59, 0
2, 1851, Note_on_c, 0, 55, 0
2, 1883, Note_on_c, 0, 52, 0
2, 1921, Note_on_c, 0, 69, 79
2, 1926, Note_on_c, 0, 48, 73
2, 1969, Note_on_c, 0, 48, 0
2, 2000, Note_on_c, 0, 69, 0
2, 2024, Note_on_c, 0, 76, 81
2, 2039, Control_c, 0, 64, 127
2, 2082, Note_on_c, 0, 76, 0
2, 2108, Note_on_c, 0, 81, 85
2, 2135, Note_on_c, 0, 64, 59
2, 2147, Note_on_c, 0, 81, 0
2, 2147, Note_on_c, 0, 57, 49
2, 2178, Note_on_c, 0, 64, 0
2, 2204, Note_on_c, 0, 57, 0
2, 2231, Note_on_c, 0, 88, 85
2, 2238, Control_c, 0, 64, 0
2, 2264, Note_on_c, 0, 88, 0
2, 2339, Note_on_c, 0, 74, 88
2, 2346, Note_on_c, 0, 50, 70
2, 2387, Note_on_c, 0, 50, 0
2, 2408, Note_on_c, 0, 74, 0
2, 2444, Note_on_c, 0, 79, 88
2, 2468, Control_c, 0, 64, 127
2, 2509, Note_on_c, 0, 79, 0
2, 2550, Note_on_c, 0, 83, 80
2, 2562, Note_on_c, 0, 62, 66
2, 2576, Note_on_c, 0, 83, 0
2, 2619, Note_on_c, 0, 62, 0
2, 2648, Note_on_c, 0, 86, 97
2, 2751, Note_on_c, 0, 86, 0
2, 2754, Note_on_c, 0, 91, 97
2, 2759, Note_on_c, 0, 74, 71
2, 2771, Note_on_c, 0, 71, 60
2, 2819, Note_on_c, 0, 74, 0
2, 2835, Note_on_c, 0, 71, 0
2, 2838, Control_c, 0, 64, 0
2, 2855, Note_on_c, 0, 95, 88
2, 2869, Note_on_c, 0, 91, 0
2, 2939, Note_on_c, 0, 95, 0
2, 2955, Note_on_c, 0, 100, 92
2, 2958, Note_on_c, 0, 62, 63
2, 3068, Note_on_c, 0, 98, 89
2, 3083, Note_on_c, 0, 100, 0
2, 3095, Note_on_c, 0, 62, 0
2, 3119, Note_on_c, 0, 98, 0
2, 3162, Note_on_c, 0, 97, 89
2, 3179, Note_on_c, 0, 72, 61
2, 3203, Note_on_c, 0, 69, 40
2, 3251, Note_on_c, 0, 72, 0
2, 3270, Note_on_c, 0, 96, 94
2, 3284, Note_on_c, 0, 69, 0
2, 3284, Note_on_c, 0, 97, 0
2, 3335, Note_on_c, 0, 96, 0
2, 3395, Note_on_c, 0, 88, 55
2, 3404, Note_on_c, 0, 62, 22
2, 3455, Note_on_c, 0, 88, 0
2, 3474, Note_on_c, 0, 90, 67
2, 3483, Note_on_c, 0, 62, 0
2, 3582, Note_on_c, 0, 90, 0
2, 3603, Note_on_c, 0, 71, 40
2, 3606, Note_on_c, 0, 93, 59
2, 3644, Note_on_c, 0, 67, 30
2, 3675, Note_on_c, 0, 93, 0
2, 3692, Note_on_c, 0, 71, 0
2, 3711, Note_on_c, 0, 67, 0
2, 3714, Control_c, 0, 64, 127
2, 3726, Note_on_c, 0, 91, 53
2, 3803, Note_on_c, 0, 91, 0
2, 3831, Note_on_c, 0, 86, 63
2, 3903, Note_on_c, 0, 86, 0
2, 3949, Note_on_c, 0, 83, 44
2, 3995, Note_on_c, 0, 83, 0
2, 4119, Note_on_c, 0, 74, 89
2, 4141, Note_on_c, 0, 43, 32
2, 4158, Note_on_c, 0, 74, 0
2, 4199, Note_on_c, 0, 76, 89
2, 4203, Note_on_c, 0, 43, 0
2, 4244, Note_on_c, 0, 76, 0
2, 4280, Note_on_c, 0, 74, 71
2, 4311, Control_c, 0, 64, 0
2, 4323, Note_on_c, 0, 74, 0
2, 4338, Note_on_c, 0, 83, 85
2, 4345, Note_on_c, 0, 50, 60
2, 4352, Note_on_c, 0, 59, 38
2, 4369, Note_on_c, 0, 83, 0
2, 4393, Note_on_c, 0, 50, 0
2, 4400, Note_on_c, 0, 59, 0
2, 4520, Note_on_c, 0, 72, 97
2, 4532, Note_on_c, 0, 51, 69
2, 4556, Note_on_c, 0, 72, 0
2, 4585, Note_on_c, 0, 74, 71
2, 4626, Note_on_c, 0, 74, 0
2, 4650, Control_c, 0, 64, 127
2, 4657, Note_on_c, 0, 72, 65
2, 4712, Control_c, 0, 64, 0
2, 4715, Note_on_c, 0, 60, 69
2, 4717, Note_on_c, 0, 72, 0
2, 4717, Note_on_c, 0, 54, 66
2, 4722, Note_on_c, 0, 81, 91
2, 4758, Note_on_c, 0, 81, 0
2, 4777, Note_on_c, 0, 54, 0
2, 4777, Note_on_c, 0, 60, 0
2, 4868, Note_on_c, 0, 51, 0
2, 4919, Note_on_c, 0, 52, 84
2, 4919, Note_on_c, 0, 71, 76
2, 4959, Note_on_c, 0, 71, 0
2, 4976, Note_on_c, 0, 72, 86
2, 5019, Note_on_c, 0, 72, 0
2, 5055, Note_on_c, 0, 71, 60
2, 5132, Note_on_c, 0, 79, 89
2, 5135, Note_on_c, 0, 59, 46
2, 5142, Note_on_c, 0, 71, 0
2, 5142, Note_on_c, 0, 55, 61
2, 5163, Note_on_c, 0, 52, 0
2, 5166, Note_on_c, 0, 79, 0
2, 5214, Note_on_c, 0, 55, 0
2, 5235, Note_on_c, 0, 59, 0
2, 5322, Note_on_c, 0, 69, 88
2, 5331, Note_on_c, 0, 48, 66
2, 5375, Note_on_c, 0, 48, 0
2, 5408, Note_on_c, 0, 69, 0
2, 5418, Note_on_c, 0, 76, 79
2, 5435, Control_c, 0, 64, 127
2, 5468, Note_on_c, 0, 76, 0
2, 5507, Note_on_c, 0, 81, 84
2, 5531, Note_on_c, 0, 64, 59
2, 5543, Note_on_c, 0, 81, 0
2, 5550, Note_on_c, 0, 57, 38
2, 5576, Note_on_c, 0, 64, 0
2, 5615, Note_on_c, 0, 57, 0
2, 5631, Note_on_c, 0, 88, 85
2, 5665, Note_on_c, 0, 88, 0
2, 5679, Control_c, 0, 64, 0
2, 5727, Note_on_c, 0, 50, 72
2, 5730, Note_on_c, 0, 74, 98
2, 5768, Note_on_c, 0, 50, 0
2, 5831, Note_on_c, 0, 74, 0
2, 5831, Note_on_c, 0, 79, 97
2, 5850, Control_c, 0, 64, 127
2, 5924, Note_on_c, 0, 79, 0
2, 5927, Note_on_c, 0, 83, 79
2, 5931, Note_on_c, 0, 62, 77
2, 5955, Note_on_c, 0, 83, 0
2, 5984, Note_on_c, 0, 62, 0
2, 6020, Note_on_c, 0, 86, 98
2, 6109, Control_c, 0, 64, 0
2, 6121, Note_on_c, 0, 86, 0
2, 6128, Note_on_c, 0, 91, 101
2, 6133, Note_on_c, 0, 74, 71
2, 6140, Note_on_c, 0, 71, 60
2, 6186, Note_on_c, 0, 71, 0
2, 6186, Note_on_c, 0, 74, 0
2, 6236, Note_on_c, 0, 95, 92
2, 6258, Note_on_c, 0, 91, 0
2, 6332, Note_on_c, 0, 100, 75
2, 6335, Note_on_c, 0, 95, 0
2, 6349, Note_on_c, 0, 62, 63
2, 6409, Note_on_c, 0, 62, 0
2, 6457, Note_on_c, 0, 98, 74
2, 6476, Note_on_c, 0, 100, 0
2, 6560, Note_on_c, 0, 96, 72
2, 6567, Note_on_c, 0, 98, 0
2, 6570, Note_on_c, 0, 72, 64
2, 6591, Note_on_c, 0, 69, 40
2, 6618, Note_on_c, 0, 72, 0
2, 6647, Note_on_c, 0, 69, 0
2, 6675, Note_on_c, 0, 93, 73
2, 6678, Note_on_c, 0, 96, 0
2, 6723, Note_on_c, 0, 93, 0
2, 6788, Note_on_c, 0, 62, 35
2, 6795, Note_on_c, 0, 88, 59
2, 6855, Note_on_c, 0, 88, 0
2, 6855, Note_on_c, 0, 62, 0
2, 6889, Note_on_c, 0, 90, 66
2, 6942, Note_on_c, 0, 90, 0
2, 7062, Note_on_c, 0, 91, 74
2, 7091, Note_on_c, 0, 71, 34
2, 7119, Note_on_c, 0, 67, 23
2, 7143, Note_on_c, 0, 91, 0
2, 7155, Control_c, 0, 64, 127
2, 7165, Note_on_c, 0, 71, 0
2, 7211, Note_on_c, 0, 67, 0
2, 7395, Note_on_c, 0, 71, 59
2, 7448, Note_on_c, 0, 71, 0
2, 7494, Control_c, 0, 64, 0
2, 7520, Note_on_c, 0, 72, 84
2, 7587, Note_on_c, 0, 72, 0
2, 7674, Note_on_c, 0, 74, 84
2, 7681, Note_on_c, 0, 43, 46
2, 7727, Note_on_c, 0, 74, 0
2, 7739, Control_c, 0, 64, 127
2, 7743, Note_on_c, 0, 43, 0
2, 7772, Note_on_c, 0, 76, 86
2, 7820, Note_on_c, 0, 76, 0
2, 7861, Note_on_c, 0, 74, 67
2, 7904, Note_on_c, 0, 74, 0
2, 7907, Note_on_c, 0, 50, 55
2, 7907, Note_on_c, 0, 59, 36
2, 7935, Note_on_c, 0, 83, 62
2, 7974, Note_on_c, 0, 83, 0
2, 8024, Note_on_c, 0, 59, 0
2, 8135, Note_on_c, 0, 72, 86
2, 8139, Control_c, 0, 64, 0
2, 8144, Note_on_c, 0, 51, 81
2, 8151, Note_on_c, 0, 50, 0
2, 8180, Note_on_c, 0, 72, 0
2, 8204, Note_on_c, 0, 74, 73
2, 8250, Note_on_c, 0, 74, 0
2, 8279, Note_on_c, 0, 72, 65
2, 8343, Note_on_c, 0, 72, 0
2, 8343, Note_on_c, 0, 60, 62
2, 8348, Note_on_c, 0, 54, 61
2, 8360, Note_on_c, 0, 81, 80
2, 8399, Note_on_c, 0, 81, 0
2, 8447, Note_on_c, 0, 60, 0
2, 8499, Note_on_c, 0, 54, 0
2, 8564, Note_on_c, 0, 71, 70
2, 8571, Note_on_c, 0, 52, 83
2, 8591, Note_on_c, 0, 51, 0
2, 8605, Note_on_c, 0, 71, 0
2, 8631, Note_on_c, 0, 72, 77
2, 8675, Note_on_c, 0, 72, 0
2, 8723, Note_on_c, 0, 71, 51
2, 8783, Note_on_c, 0, 71, 0
2, 8797, Note_on_c, 0, 79, 78
2, 8814, Control_c, 0, 64, 127
2, 8826, Note_on_c, 0, 59, 39
2, 8833, Note_on_c, 0, 79, 0
2, 8843, Note_on_c, 0, 55, 47
2, 8907, Control_c, 0, 64, 0
2, 8919, Note_on_c, 0, 59, 0
2, 8929, Note_on_c, 0, 55, 0
2, 8977, Note_on_c, 0, 52, 0
2, 9001, Note_on_c, 0, 69, 67
2, 9011, Note_on_c, 0, 48, 80
2, 9054, Note_on_c, 0, 48, 0
2, 9071, Note_on_c, 0, 69, 0
2, 9092, Control_c, 0, 64, 127
2, 9104, Note_on_c, 0, 76, 72
2, 9152, Note_on_c, 0, 76, 0
2, 9196, Note_on_c, 0, 81, 84
2, 9224, Note_on_c, 0, 64, 45
2, 9229, Note_on_c, 0, 81, 0
2, 9234, Note_on_c, 0, 57, 45
2, 9275, Note_on_c, 0, 64, 0
2, 9296, Note_on_c, 0, 57, 0
2, 9332, Note_on_c, 0, 88, 60
2, 9337, Control_c, 0, 64, 0
2, 9382, Note_on_c, 0, 88, 0
2, 9411, Note_on_c, 0, 74, 91
2, 9414, Note_on_c, 0, 50, 56
2, 9462, Note_on_c, 0, 50, 0
2, 9505, Note_on_c, 0, 74, 0
2, 9507, Control_c, 0, 64, 127
2, 9515, Note_on_c, 0, 79, 93
2, 9582, Note_on_c, 0, 79, 0
2, 9623, Note_on_c, 0, 83, 76
2, 9625, Note_on_c, 0, 62, 69
2, 9651, Note_on_c, 0, 83, 0
2, 9687, Note_on_c, 0, 62, 0
2, 9714, Note_on_c, 0, 86, 96
2, 9810, Note_on_c, 0, 86, 0
2, 9817, Note_on_c, 0, 91, 101
2, 9824, Note_on_c, 0, 74, 76
2, 9836, Note_on_c, 0, 71, 62
2, 9877, Note_on_c, 0, 74, 0
2, 9887, Note_on_c, 0, 71, 0
2, 9925, Note_on_c, 0, 95, 92
2, 9937, Control_c, 0, 64, 0
2, 9939, Note_on_c, 0, 91, 0
2, 10007, Note_on_c, 0, 95, 0
2, 10028, Note_on_c, 0, 100, 92
2, 10031, Note_on_c, 0, 62, 74
2, 10143, Note_on_c, 0, 98, 89
2, 10160, Note_on_c, 0, 100, 0
2, 10187, Note_on_c, 0, 62, 0
2, 10208, Note_on_c, 0, 98, 0
2, 10235, Note_on_c, 0, 97, 88
2, 10251, Note_on_c, 0, 72, 71
2, 10263, Note_on_c, 0, 69, 55
2, 10309, Note_on_c, 0, 72, 0
2, 10328, Note_on_c, 0, 69, 0
2, 10352, Note_on_c, 0, 96, 87
2, 10364, Note_on_c, 0, 97, 0
2, 10398, Note_on_c, 0, 96, 0
2, 10441, Note_on_c, 0, 62, 50
2, 10455, Note_on_c, 0, 88, 67
2, 10499, Note_on_c, 0, 62, 0
2, 10503, Note_on_c, 0, 88, 0
2, 10542, Note_on_c, 0, 90, 56
2, 10643, Note_on_c, 0, 90, 0
2, 10667, Note_on_c, 0, 71, 46
2, 10669, Note_on_c, 0, 93, 50
2, 10674, Note_on_c, 0, 67, 41
2, 10727, Note_on_c, 0, 93, 0
2, 10743, Note_on_c, 0, 71, 0
2, 10765, Note_on_c, 0, 91, 69
2, 10767, Note_on_c, 0, 67, 0
2, 10767, Control_c, 0, 64, 127
2, 10873, Note_on_c, 0, 91, 0
2, 10897, Note_on_c, 0, 86, 60
2, 11007, Note_on_c, 0, 86, 0
2, 11007, Note_on_c, 0, 83, 60
2, 11043, Note_on_c, 0, 83, 0
2, 11195, Note_on_c, 0, 43, 45
2, 11204, Note_on_c, 0, 74, 67
2, 11243, Note_on_c, 0, 43, 0
2, 11255, Note_on_c, 0, 74, 0
2, 11279, Note_on_c, 0, 76, 79
2, 11327, Note_on_c, 0, 76, 0
2, 11348, Note_on_c, 0, 74, 68
2, 11401, Note_on_c, 0, 74, 0
2, 11427, Note_on_c, 0, 59, 44
2, 11432, Note_on_c, 0, 83, 69
2, 11435, Note_on_c, 0, 50, 61
2, 11466, Note_on_c, 0, 83, 0
2, 11478, Note_on_c, 0, 59, 0
2, 11480, Note_on_c, 0, 50, 0
2, 11504, Control_c, 0, 64, 0
2, 11622, Note_on_c, 0, 72, 94
2, 11646, Note_on_c, 0, 51, 67
2, 11663, Note_on_c, 0, 72, 0
2, 11696, Note_on_c, 0, 74, 74
2, 11739, Note_on_c, 0, 74, 0
2, 11785, Note_on_c, 0, 72, 57
2, 11826, Note_on_c, 0, 54, 64
2, 11835, Note_on_c, 0, 60, 58
2, 11838, Note_on_c, 0, 72, 0
2, 11843, Note_on_c, 0, 81, 86
2, 11883, Note_on_c, 0, 81, 0
2, 11886, Note_on_c, 0, 54, 0
2, 11888, Control_c, 0, 64, 127
2, 11895, Note_on_c, 0, 60, 0
2, 11919, Control_c, 0, 64, 0
2, 12035, Note_on_c, 0, 51, 0
2, 12054, Note_on_c, 0, 71, 63
2, 12063, Note_on_c, 0, 52, 48
2, 12097, Note_on_c, 0, 71, 0
2, 12111, Note_on_c, 0, 72, 73
2, 12155, Note_on_c, 0, 72, 0
2, 12198, Note_on_c, 0, 71, 42
2, 12248, Note_on_c, 0, 71, 0
2, 12258, Note_on_c, 0, 79, 73
2, 12270, Control_c, 0, 64, 127
2, 12270, Note_on_c, 0, 59, 39
2, 12296, Note_on_c, 0, 55, 51
2, 12306, Note_on_c, 0, 79, 0
2, 12337, Note_on_c, 0, 59, 0
2, 12356, Note_on_c, 0, 55, 0
2, 12378, Control_c, 0, 64, 0
2, 12428, Note_on_c, 0, 52, 0
2, 12452, Note_on_c, 0, 69, 81
2, 12469, Note_on_c, 0, 48, 66
2, 12512, Note_on_c, 0, 48, 0
2, 12524, Note_on_c, 0, 69, 0
2, 12558, Note_on_c, 0, 76, 68
2, 12577, Control_c, 0, 64, 127
2, 12635, Note_on_c, 0, 76, 0
2, 12654, Note_on_c, 0, 81, 85
2, 12680, Note_on_c, 0, 64, 47
2, 12690, Note_on_c, 0, 81, 0
2, 12702, Note_on_c, 0, 57, 44
2, 12731, Note_on_c, 0, 64, 0
2, 12771, Note_on_c, 0, 57, 0
2, 12781, Note_on_c, 0, 88, 66
2, 12807, Control_c, 0, 64, 0
2, 12824, Note_on_c, 0, 88, 0
2, 12875, Note_on_c, 0, 50, 67
2, 12875, Note_on_c, 0, 74, 88
2, 12913, Note_on_c, 0, 50, 0
2, 12961, Control_c, 0, 64, 127
2, 12971, Note_on_c, 0, 74, 0
2, 12985, Note_on_c, 0, 79, 85
2, 13047, Note_on_c, 0, 79, 0
2, 13095, Note_on_c, 0, 83, 76
2, 13110, Note_on_c, 0, 62, 69
2, 13124, Note_on_c, 0, 83, 0
2, 13199, Note_on_c, 0, 86, 91
2, 13215, Note_on_c, 0, 62, 0
2, 13285, Note_on_c, 0, 86, 0
2, 13311, Note_on_c, 0, 74, 80
2, 13314, Note_on_c, 0, 91, 97
2, 13321, Note_on_c, 0, 71, 69
2, 13412, Note_on_c, 0, 74, 0
2, 13415, Note_on_c, 0, 71, 0
2, 13427, Note_on_c, 0, 95, 81
2, 13446, Note_on_c, 0, 91, 0
2, 13506, Note_on_c, 0, 62, 72
2, 13508, Note_on_c, 0, 95, 0
2, 13525, Note_on_c, 0, 100, 89
2, 13530, Control_c, 0, 64, 0
2, 13640, Note_on_c, 0, 100, 0
2, 13643, Note_on_c, 0, 98, 91
2, 13669, Note_on_c, 0, 62, 0
2, 13741, Note_on_c, 0, 72, 62
2, 13751, Note_on_c, 0, 96, 85
2, 13755, Note_on_c, 0, 98, 0
2, 13755, Note_on_c, 0, 69, 49
2, 13839, Note_on_c, 0, 96, 0
2, 13842, Note_on_c, 0, 72, 0
2, 13868, Note_on_c, 0, 93, 84
2, 13919, Note_on_c, 0, 93, 0
2, 13923, Note_on_c, 0, 69, 0
2, 13959, Note_on_c, 0, 62, 49
2, 13995, Note_on_c, 0, 88, 59
2, 14024, Note_on_c, 0, 62, 0
2, 14053, Note_on_c, 0, 88, 0
2, 14089, Note_on_c, 0, 90, 57
2, 14204, Note_on_c, 0, 90, 0
2, 14257, Note_on_c, 0, 67, 47
2, 14262, Note_on_c, 0, 91, 73
2, 14264, Note_on_c, 0, 71, 30
2, 14339, Note_on_c, 0, 91, 0
2, 14365, Note_on_c, 0, 71, 0
2, 14377, Control_c, 0, 64, 127
2, 14415, Note_on_c, 0, 67, 0
2, 14603, Note_on_c, 0, 71, 78
2, 14749, Note_on_c, 0, 71, 0
2, 14879, Note_on_c, 0, 47, 76
2, 14895, Note_on_c, 0, 83, 93
2, 14895, Note_on_c, 0, 78, 83
2, 14898, Note_on_c, 0, 71, 76
2, 14903, Note_on_c, 0, 75, 72
2, 14963, Note_on_c, 0, 47, 0
2, 15001, Note_on_c, 0, 59, 80
2, 15061, Note_on_c, 0, 59, 0
2, 15119, Note_on_c, 0, 46, 95
2, 15229, Note_on_c, 0, 71, 0
2, 15239, Note_on_c, 0, 47, 76
2, 15248, Note_on_c, 0, 78, 0
2, 15253, Note_on_c, 0, 75, 0
2, 15272, Note_on_c, 0, 83, 0
2, 15299, Note_on_c, 0, 46, 0
2, 15392, Note_on_c, 0, 49, 81
2, 15397, Note_on_c, 0, 82, 109
2, 15399, Note_on_c, 0, 70, 98
2, 15402, Note_on_c, 0, 76, 92
2, 15407, Control_c, 0, 64, 0
2, 15407, Note_on_c, 0, 78, 81
2, 15409, Note_on_c, 0, 47, 0
2, 15517, Note_on_c, 0, 61, 83
2, 15522, Note_on_c, 0, 49, 0
2, 15606, Control_c, 0, 64, 127
2, 15615, Note_on_c, 0, 61, 0
2, 15637, Note_on_c, 0, 48, 95
2, 15639, Note_on_c, 0, 78, 0
2, 15642, Note_on_c, 0, 76, 0
2, 15707, Note_on_c, 0, 70, 0
2, 15721, Note_on_c, 0, 49, 86
2, 15738, Note_on_c, 0, 82, 0
2, 15767, Note_on_c, 0, 48, 0
2, 15805, Control_c, 0, 64, 0
2, 15836, Note_on_c, 0, 81, 108
2, 15841, Note_on_c, 0, 51, 85
2, 15841, Note_on_c, 0, 71, 73
2, 15841, Note_on_c, 0, 78, 79
2, 15843, Note_on_c, 0, 69, 97
2, 15870, Note_on_c, 0, 49, 0
2, 15906, Note_on_c, 0, 51, 0
2, 15956, Note_on_c, 0, 63, 90
2, 15990, Control_c, 0, 64, 127
2, 16009, Note_on_c, 0, 63, 0
2, 16040, Note_on_c, 0, 49, 83
2, 16074, Note_on_c, 0, 78, 0
2, 16093, Note_on_c, 0, 81, 0
2, 16129, Note_on_c, 0, 69, 0
2, 16134, Note_on_c, 0, 71, 0
2, 16143, Note_on_c, 0, 51, 88
2, 16203, Note_on_c, 0, 49, 0
2, 16220, Control_c, 0, 64, 0
2, 16249, Note_on_c, 0, 71, 59
2, 16254, Note_on_c, 0, 79, 103
2, 16259, Note_on_c, 0, 67, 85
2, 16261, Note_on_c, 0, 76, 89
2, 16263, Note_on_c, 0, 52, 88
2, 16311, Note_on_c, 0, 51, 0
2, 16323, Note_on_c, 0, 52, 0
2, 16391, Note_on_c, 0, 64, 92
2, 16419, Control_c, 0, 64, 127
2, 16455, Note_on_c, 0, 64, 0
2, 16470, Note_on_c, 0, 51, 85
2, 16479, Note_on_c, 0, 76, 0
2, 16513, Note_on_c, 0, 79, 0
2, 16515, Note_on_c, 0, 71, 0
2, 16520, Note_on_c, 0, 67, 0
2, 16568, Note_on_c, 0, 52, 91
2, 16626, Note_on_c, 0, 51, 0
2, 16635, Control_c, 0, 64, 0
2, 16662, Note_on_c, 0, 78, 95
2, 16674, Note_on_c, 0, 75, 79
2, 16679, Note_on_c, 0, 69, 87
2, 16691, Note_on_c, 0, 54, 77
2, 16693, Note_on_c, 0, 71, 70
2, 16710, Note_on_c, 0, 52, 0
2, 16799, Note_on_c, 0, 54, 0
2, 16808, Note_on_c, 0, 66, 86
2, 16863, Note_on_c, 0, 66, 0
2, 16866, Control_c, 0, 64, 127
2, 16899, Note_on_c, 0, 69, 0
2, 16911, Note_on_c, 0, 53, 72
2, 16916, Note_on_c, 0, 71, 0
2, 16993, Note_on_c, 0, 54, 77
2, 16998, Note_on_c, 0, 78, 0
2, 17036, Note_on_c, 0, 53, 0
2, 17065, Control_c, 0, 64, 0
2, 17118, Note_on_c, 0, 76, 98
2, 17123, Note_on_c, 0, 67, 74
2, 17127, Note_on_c, 0, 71, 53
2, 17135, Note_on_c, 0, 55, 77
2, 17151, Note_on_c, 0, 75, 0
2, 17171, Note_on_c, 0, 67, 0
2, 17175, Note_on_c, 0, 54, 0
2, 17178, Note_on_c, 0, 55, 0
2, 17247, Note_on_c, 0, 71, 0
2, 17247, Note_on_c, 0, 67, 89
2, 17295, Control_c, 0, 64, 127
2, 17298, Note_on_c, 0, 67, 0
2, 17372, Note_on_c, 0, 54, 84
2, 17389, Control_c, 0, 64, 0
2, 17473, Note_on_c, 0, 54, 0
2, 17492, Note_on_c, 0, 55, 67
2, 17631, Note_on_c, 0, 55, 0
2, 17639, Note_on_c, 0, 70, 82
2, 17641, Note_on_c, 0, 66, 50
2, 17646, Note_on_c, 0, 64, 45
2, 17651, Note_on_c, 0, 76, 0
2, 17660, Note_on_c, 0, 60, 59
2, 17857, Note_on_c, 0, 60, 0
2, 17922, Note_on_c, 0, 62, 48
2, 17946, Note_on_c, 0, 64, 0
2, 17951, Note_on_c, 0, 66, 0
2, 17958, Control_c, 0, 64, 127
2, 17984, Note_on_c, 0, 62, 0
2, 18085, Note_on_c, 0, 60, 48
2, 18143, Note_on_c, 0, 60, 0
2, 18248, Note_on_c, 0, 59, 44
2, 18270, Note_on_c, 0, 66, 21
2, 18275, Note_on_c, 0, 70, 0
2, 18276, Note_on_c, 0, 71, 33
2, 18277, Note_on_c, 0, 63, 32
2, 18279, Control_c, 0, 64, 0
2, 18462, Note_on_c, 0, 54, 48
2, 18546, Note_on_c, 0, 59, 0
2, 18555, Control_c, 0, 64, 127
2, 18599, Note_on_c, 0, 63, 0
2, 18642, Note_on_c, 0, 54, 0
2, 18647, Note_on_c, 0, 51, 57
2, 18652, Note_on_c, 0, 66, 0
2, 18716, Note_on_c, 0, 51, 0
2, 18744, Note_on_c, 0, 71, 0
2, 18841, Note_on_c, 0, 47, 40
2, 18959, Note_on_c, 0, 47, 0
2, 19064, Control_c, 0, 64, 0
2, 19076, Note_on_c, 0, 43, 51
2, 19091, Note_on_c, 0, 74, 63
2, 19136, Note_on_c, 0, 74, 0
2, 19151, Note_on_c, 0, 76, 80
2, 19194, Note_on_c, 0, 43, 0
2, 19203, Note_on_c, 0, 76, 0
2, 19232, Control_c, 0, 64, 127
2, 19239, Note_on_c, 0, 74, 48
2, 19311, Note_on_c, 0, 59, 42
2, 19314, Note_on_c, 0, 83, 65
2, 19316, Note_on_c, 0, 74, 0
2, 19323, Note_on_c, 0, 50, 50
2, 19357, Note_on_c, 0, 83, 0
2, 19446, Note_on_c, 0, 59, 0
2, 19494, Control_c, 0, 64, 0
2, 19527, Note_on_c, 0, 50, 0
2, 19544, Note_on_c, 0, 51, 63
2, 19554, Note_on_c, 0, 72, 79
2, 19597, Note_on_c, 0, 72, 0
2, 19619, Note_on_c, 0, 74, 61
2, 19674, Note_on_c, 0, 74, 0
2, 19686, Note_on_c, 0, 72, 62
2, 19758, Note_on_c, 0, 72, 0
2, 19758, Note_on_c, 0, 81, 80
2, 19767, Note_on_c, 0, 54, 44
2, 19772, Note_on_c, 0, 60, 40
2, 19818, Note_on_c, 0, 81, 0
2, 19892, Note_on_c, 0, 60, 0
2, 19943, Note_on_c, 0, 54, 0
2, 19967, Note_on_c, 0, 51, 0
2, 19967, Note_on_c, 0, 71, 67
2, 19969, Note_on_c, 0, 52, 63
2, 20010, Note_on_c, 0, 71, 0
2, 20031, Note_on_c, 0, 72, 73
2, 20077, Note_on_c, 0, 72, 0
2, 20113, Note_on_c, 0, 71, 52
2, 20190, Note_on_c, 0, 59, 42
2, 20192, Note_on_c, 0, 55, 58
2, 20195, Note_on_c, 0, 79, 80
2, 20209, Note_on_c, 0, 71, 0
2, 20245, Note_on_c, 0, 79, 0
2, 20247, Control_c, 0, 64, 127
2, 20276, Note_on_c, 0, 59, 0
2, 20286, Note_on_c, 0, 55, 0
2, 20319, Note_on_c, 0, 52, 0
2, 20324, Control_c, 0, 64, 0
2, 20396, Note_on_c, 0, 69, 87
2, 20396, Note_on_c, 0, 48, 80
2, 20447, Note_on_c, 0, 48, 0
2, 20463, Note_on_c, 0, 69, 0
2, 20497, Note_on_c, 0, 76, 78
2, 20523, Control_c, 0, 64, 127
2, 20579, Note_on_c, 0, 76, 0
2, 20588, Note_on_c, 0, 81, 88
2, 20603, Note_on_c, 0, 57, 49
2, 20617, Note_on_c, 0, 64, 40
2, 20624, Note_on_c, 0, 81, 0
2, 20672, Note_on_c, 0, 64, 0
2, 20691, Note_on_c, 0, 57, 0
2, 20696, Note_on_c, 0, 88, 92
2, 20730, Note_on_c, 0, 88, 0
2, 20739, Control_c, 0, 64, 0
2, 20797, Note_on_c, 0, 50, 74
2, 20807, Note_on_c, 0, 74, 92
2, 20835, Note_on_c, 0, 50, 0
2, 20910, Note_on_c, 0, 79, 95
2, 20915, Note_on_c, 0, 74, 0
2, 20922, Control_c, 0, 64, 127
2, 21011, Note_on_c, 0, 62, 47
2, 21018, Note_on_c, 0, 79, 0
2, 21018, Note_on_c, 0, 83, 75
2, 21047, Note_on_c, 0, 83, 0
2, 21078, Note_on_c, 0, 62, 0
2, 21116, Note_on_c, 0, 86, 91
2, 21227, Note_on_c, 0, 91, 95
2, 21229, Note_on_c, 0, 74, 70
2, 21236, Note_on_c, 0, 71, 57
2, 21241, Note_on_c, 0, 86, 0
2, 21260, Control_c, 0, 64, 0
2, 21306, Note_on_c, 0, 71, 0
2, 21320, Note_on_c, 0, 74, 0
2, 21335, Note_on_c, 0, 95, 86
2, 21351, Note_on_c, 0, 91, 0
2, 21428, Note_on_c, 0, 100, 89
2, 21435, Note_on_c, 0, 95, 0
2, 21440, Note_on_c, 0, 62, 61
2, 21500, Note_on_c, 0, 62, 0
2, 21558, Note_on_c, 0, 98, 81
2, 21572, Note_on_c, 0, 100, 0
2, 21663, Note_on_c, 0, 72, 61
2, 21663, Note_on_c, 0, 96, 77
2, 21673, Note_on_c, 0, 69, 48
2, 21680, Note_on_c, 0, 98, 0
2, 21716, Note_on_c, 0, 72, 0
2, 21731, Note_on_c, 0, 69, 0
2, 21759, Note_on_c, 0, 96, 0
2, 21776, Note_on_c, 0, 93, 74
2, 21819, Note_on_c, 0, 93, 0
2, 21872, Note_on_c, 0, 62, 46
2, 21896, Note_on_c, 0, 88, 56
2, 21935, Note_on_c, 0, 62, 0
2, 21959, Note_on_c, 0, 88, 0
2, 21985, Note_on_c, 0, 90, 55
2, 22043, Note_on_c, 0, 90, 0
2, 22160, Note_on_c, 0, 91, 66
2, 22167, Note_on_c, 0, 71, 38
2, 22184, Note_on_c, 0, 67, 45
2, 22249, Note_on_c, 0, 91, 0
2, 22256, Note_on_c, 0, 71, 0
2, 22261, Control_c, 0, 64, 127
2, 22321, Note_on_c, 0, 67, 0
2, 22501, Note_on_c, 0, 71, 78
2, 22520, Control_c, 0, 64, 0
2, 22688, Note_on_c, 0, 71, 0
2, 22775, Note_on_c, 0, 83, 101
2, 22777, Note_on_c, 0, 71, 74
2, 22782, Note_on_c, 0, 78, 85
2, 22784, Note_on_c, 0, 75, 79
2, 22784, Note_on_c, 0, 47, 78
2, 22813, Control_c, 0, 64, 127
2, 22832, Note_on_c, 0, 47, 0
2, 22892, Note_on_c, 0, 59, 79
2, 22938, Note_on_c, 0, 59, 0
2, 23015, Note_on_c, 0, 46, 98
2, 23046, Note_on_c, 0, 71, 0
2, 23063, Note_on_c, 0, 75, 0
2, 23065, Note_on_c, 0, 78, 0
2, 23075, Note_on_c, 0, 83, 0
2, 23120, Note_on_c, 0, 47, 70
2, 23123, Note_on_c, 0, 46, 0
2, 23166, Control_c, 0, 64, 0
2, 23226, Note_on_c, 0, 82, 110
2, 23231, Note_on_c, 0, 76, 97
2, 23231, Note_on_c, 0, 70, 100
2, 23233, Note_on_c, 0, 78, 85
2, 23252, Note_on_c, 0, 49, 82
2, 23264, Note_on_c, 0, 47, 0
2, 23353, Note_on_c, 0, 61, 88
2, 23360, Note_on_c, 0, 49, 0
2, 23413, Control_c, 0, 64, 127
2, 23420, Note_on_c, 0, 61, 0
2, 23459, Note_on_c, 0, 48, 95
2, 23468, Note_on_c, 0, 78, 0
2, 23468, Note_on_c, 0, 76, 0
2, 23533, Note_on_c, 0, 70, 0
2, 23559, Note_on_c, 0, 49, 88
2, 23576, Note_on_c, 0, 48, 0
2, 23581, Note_on_c, 0, 82, 0
2, 23598, Control_c, 0, 64, 0
2, 23663, Note_on_c, 0, 81, 109
2, 23670, Note_on_c, 0, 71, 79
2, 23670, Note_on_c, 0, 69, 95
2, 23672, Note_on_c, 0, 78, 79
2, 23694, Note_on_c, 0, 51, 74
2, 23706, Note_on_c, 0, 49, 0
2, 23744, Note_on_c, 0, 51, 0
2, 23804, Note_on_c, 0, 63, 84
2, 23857, Control_c, 0, 64, 127
2, 23859, Note_on_c, 0, 63, 0
2, 23910, Note_on_c, 0, 78, 0
2, 23912, Note_on_c, 0, 49, 86
2, 23929, Note_on_c, 0, 81, 0
2, 23963, Note_on_c, 0, 69, 0
2, 23970, Note_on_c, 0, 71, 0
2, 24027, Note_on_c, 0, 51, 83
2, 24042, Control_c, 0, 64, 0
2, 24071, Note_on_c, 0, 49, 0
2, 24126, Note_on_c, 0, 79, 97
2, 24133, Note_on_c, 0, 52, 87
2, 24135, Note_on_c, 0, 67, 84
2, 24140, Note_on_c, 0, 76, 80
2, 24150, Note_on_c, 0, 71, 59
2, 24176, Note_on_c, 0, 51, 0
2, 24191, Note_on_c, 0, 52, 0
2, 24270, Note_on_c, 0, 64, 83
2, 24311, Note_on_c, 0, 64, 0
2, 24347, Note_on_c, 0, 51, 90
2, 24349, Control_c, 0, 64, 127
2, 24373, Note_on_c, 0, 76, 0
2, 24373, Note_on_c, 0, 71, 0
2, 24397, Note_on_c, 0, 67, 0
2, 24416, Note_on_c, 0, 79, 0
2, 24462, Note_on_c, 0, 52, 83
2, 24476, Note_on_c, 0, 51, 0
2, 24503, Control_c, 0, 64, 0
2, 24541, Note_on_c, 0, 78, 95
2, 24548, Note_on_c, 0, 75, 81
2, 24553, Note_on_c, 0, 69, 89
2, 24553, Note_on_c, 0, 71, 65
2, 24575, Note_on_c, 0, 54, 81
2, 24591, Note_on_c, 0, 52, 0
2, 24649, Note_on_c, 0, 69, 0
2, 24654, Note_on_c, 0, 54, 0
2, 24695, Note_on_c, 0, 66, 90
2, 24704, Note_on_c, 0, 71, 0
2, 24764, Note_on_c, 0, 66, 0
2, 24767, Control_c, 0, 64, 127
2, 24807, Note_on_c, 0, 53, 92
2, 24887, Note_on_c, 0, 54, 87
2, 24896, Note_on_c, 0, 78, 0
2, 24913, Note_on_c, 0, 53, 0
2, 24966, Control_c, 0, 64, 0
2, 25023, Note_on_c, 0, 55, 81
2, 25028, Note_on_c, 0, 76, 100
2, 25033, Note_on_c, 0, 67, 70
2, 25040, Note_on_c, 0, 71, 60
2, 25047, Note_on_c, 0, 54, 0
2, 25059, Note_on_c, 0, 55, 0
2, 25062, Note_on_c, 0, 75, 0
2, 25076, Note_on_c, 0, 67, 0
2, 25098, Note_on_c, 0, 71, 0
2, 25136, Note_on_c, 0, 67, 94
2, 25220, Note_on_c, 0, 67, 0
2, 25261, Note_on_c, 0, 54, 78
2, 25403, Note_on_c, 0, 54, 0
2, 25407, Note_on_c, 0, 55, 76
2, 25554, Note_on_c, 0, 55, 0
2, 25556, Note_on_c, 0, 64, 64
2, 25559, Note_on_c, 0, 70, 91
2, 25561, Note_on_c, 0, 66, 50
2, 25571, Note_on_c, 0, 76, 0
2, 25587, Note_on_c, 0, 60, 63
2, 25820, Note_on_c, 0, 60, 0
2, 25839, Note_on_c, 0, 64, 0
2, 25866, Note_on_c, 0, 62, 56
2, 25887, Control_c, 0, 64, 127
2, 25902, Note_on_c, 0, 66, 0
2, 25923, Note_on_c, 0, 62, 0
2, 26005, Note_on_c, 0, 60, 59
2, 26053, Note_on_c, 0, 60, 0
2, 26159, Note_on_c, 0, 59, 33
2, 26163, Control_c, 0, 64, 0
2, 26197, Note_on_c, 0, 63, 31
2, 26214, Note_on_c, 0, 70, 0
2, 26216, Note_on_c, 0, 71, 39
2, 26257, Note_on_c, 0, 66, 20
2, 26331, Note_on_c, 0, 54, 54
2, 26456, Note_on_c, 0, 59, 0
2, 26504, Note_on_c, 0, 54, 0
2, 26516, Control_c, 0, 64, 127
2, 26526, Note_on_c, 0, 51, 53
2, 26593, Note_on_c, 0, 51, 0
2, 26607, Note_on_c, 0, 63, 0
2, 26687, Note_on_c, 0, 66, 0
2, 26737, Note_on_c, 0, 47, 50
2, 26763, Note_on_c, 0, 71, 0
2, 26958, Note_on_c, 0, 47, 0
2, 26977, Control_c, 0, 64, 0
2, 27027, Note_on_c, 0, 43, 55
2, 27037, Note_on_c, 0, 74, 57
2, 27083, Note_on_c, 0, 74, 0
2, 27085, Note_on_c, 0, 76, 70
2, 27128, Note_on_c, 0, 43, 0
2, 27133, Note_on_c, 0, 76, 0
2, 27162, Control_c, 0, 64, 127
2, 27171, Note_on_c, 0, 74, 68
2, 27224, Note_on_c, 0, 74, 0
2, 27239, Control_c, 0, 64, 0
2, 27246, Note_on_c, 0, 83, 66
2, 27263, Note_on_c, 0, 59, 44
2, 27265, Note_on_c, 0, 50, 52
2, 27284, Note_on_c, 0, 83, 0
2, 27359, Note_on_c, 0, 59, 0
2, 27457, Note_on_c, 0, 50, 0
2, 27459, Note_on_c, 0, 51, 58
2, 27467, Note_on_c, 0, 72, 78
2, 27510, Note_on_c, 0, 72, 0
2, 27529, Note_on_c, 0, 74, 61
2, 27579, Note_on_c, 0, 74, 0
2, 27599, Note_on_c, 0, 72, 65
2, 27668, Note_on_c, 0, 81, 85
2, 27673, Note_on_c, 0, 72, 0
2, 27683, Note_on_c, 0, 54, 50
2, 27690, Note_on_c, 0, 60, 46
2, 27762, Note_on_c, 0, 81, 0
2, 27817, Note_on_c, 0, 60, 0
2, 27846, Note_on_c, 0, 54, 0
2, 27879, Note_on_c, 0, 71, 67
2, 27891, Note_on_c, 0, 52, 58
2, 27899, Note_on_c, 0, 51, 0
2, 27918, Note_on_c, 0, 71, 0
2, 27944, Note_on_c, 0, 72, 65
2, 27992, Note_on_c, 0, 72, 0
2, 28023, Note_on_c, 0, 71, 41
2, 28091, Note_on_c, 0, 79, 85
2, 28095, Note_on_c, 0, 59, 42
2, 28103, Note_on_c, 0, 71, 0
2, 28112, Note_on_c, 0, 55, 48
2, 28179, Note_on_c, 0, 59, 0
2, 28184, Note_on_c, 0, 55, 0
2, 28215, Note_on_c, 0, 79, 0
2, 28220, Note_on_c, 0, 52, 0
2, 28223, Control_c, 0, 64, 127
2, 28292, Note_on_c, 0, 69, 84
2, 28302, Note_on_c, 0, 48, 55
2, 28350, Note_on_c, 0, 48, 0
2, 28352, Note_on_c, 0, 69, 0
2, 28383, Note_on_c, 0, 76, 84
2, 28434, Note_on_c, 0, 76, 0
2, 28467, Note_on_c, 0, 81, 85
2, 28508, Note_on_c, 0, 81, 0
2, 28511, Note_on_c, 0, 64, 29
2, 28535, Note_on_c, 0, 57, 45
2, 28571, Note_on_c, 0, 64, 0
2, 28595, Note_on_c, 0, 88, 76
2, 28609, Note_on_c, 0, 57, 0
2, 28623, Control_c, 0, 64, 0
2, 28631, Note_on_c, 0, 88, 0
2, 28686, Note_on_c, 0, 50, 72
2, 28695, Note_on_c, 0, 74, 95
2, 28724, Note_on_c, 0, 50, 0
2, 28794, Note_on_c, 0, 74, 0
2, 28801, Note_on_c, 0, 79, 95
2, 28806, Control_c, 0, 64, 127
2, 28899, Note_on_c, 0, 62, 72
2, 28899, Note_on_c, 0, 83, 81
2, 28902, Note_on_c, 0, 79, 0
2, 28931, Note_on_c, 0, 83, 0
2, 28981, Note_on_c, 0, 62, 0
2, 29005, Note_on_c, 0, 86, 94
2, 29111, Note_on_c, 0, 91, 99
2, 29125, Note_on_c, 0, 86, 0
2, 29125, Note_on_c, 0, 74, 69
2, 29135, Note_on_c, 0, 71, 58
2, 29144, Control_c, 0, 64, 0
2, 29183, Note_on_c, 0, 74, 0
2, 29185, Note_on_c, 0, 71, 0
2, 29219, Note_on_c, 0, 95, 84
2, 29231, Note_on_c, 0, 91, 0
2, 29303, Note_on_c, 0, 95, 0
2, 29315, Note_on_c, 0, 100, 89
2, 29343, Note_on_c, 0, 62, 67
2, 29406, Note_on_c, 0, 62, 0
2, 29451, Note_on_c, 0, 98, 83
2, 29471, Note_on_c, 0, 100, 0
2, 29574, Note_on_c, 0, 96, 85
2, 29579, Note_on_c, 0, 72, 63
2, 29591, Note_on_c, 0, 69, 55
2, 29593, Note_on_c, 0, 98, 0
2, 29655, Note_on_c, 0, 69, 0
2, 29699, Note_on_c, 0, 96, 0
2, 29703, Note_on_c, 0, 93, 83
2, 29727, Note_on_c, 0, 72, 0
2, 29730, Control_c, 0, 64, 127
2, 29809, Note_on_c, 0, 93, 0
2, 29843, Note_on_c, 0, 62, 40
2, 29852, Note_on_c, 0, 88, 71
2, 29917, Note_on_c, 0, 88, 0
2, 29951, Note_on_c, 0, 62, 0
2, 29991, Note_on_c, 0, 90, 56
2, 30066, Control_c, 0, 64, 0
2, 30195, Note_on_c, 0, 90, 0
2, 30217, Note_on_c, 0, 91, 59
2, 30236, Note_on_c, 0, 67, 31
2, 30241, Note_on_c, 0, 71, 29
2, 30541, Note_on_c, 0, 71, 0
2, 30594, Note_on_c, 0, 67, 0
2, 30596, Note_on_c, 0, 91, 0
2, 30596, End_track
0, 0, End_of_file