0, 0, Header, 1, 7, 120
1, 0, Start_track
1, 0, Sequencer_specific, 03, 00, 00, 41
1, 0, Sequencer_specific, 03, 00, 00, 41
1, 0, Time_signature, 3, 2, 24, 8
1, 0, Key_signature, 3, "major"
1, 0, Tempo, 368098
1, 2522, Tempo, 394736
1, 2880, Tempo, 416666
1, 2998, Tempo, 434782
1, 3120, Tempo, 458015
1, 3242, Tempo, 377358
1, 5400, Tempo, 387096
1, 5760, Tempo, 410958
1, 5880, Tempo, 431654
1, 6120, Tempo, 375000
1, 8280, Tempo, 382165
1, 8638, Tempo, 397350
1, 9002, Tempo, 377358
1, 10798, Tempo, 389610
1, 11158, Tempo, 402684
1, 11520, Tempo, 422535
1, 11880, Tempo, 379746
1, 14162, Tempo, 397350
1, 14758, Tempo, 431654
1, 15002, Tempo, 458015
1, 15120, Tempo, 377358
1, 17642, Tempo, 410958
1, 18000, Tempo, 377358
1, 20162, Tempo, 402684
1, 20520, Tempo, 458015
1, 20520, End_track
2, 0, Start_track
2, 0, MIDI_port, 0
2, 0, Title_t, "Piano"
2, 0, Program_c, 0, 0
2, 0, Control_c, 0, 7, 110
2, 0, Control_c, 0, 10, 64
2, 240, Note_on_c, 0, 67, 93
2, 248, Control_c, 0, 121, 0
2, 248, Control_c, 0, 0, 0
2, 248, Program_c, 0, 0
2, 248, Control_c, 0, 91, 30
2, 248, Control_c, 0, 93, 5
2, 248, Control_c, 0, 7, 110
2, 365, Note_on_c, 0, 76, 100
2, 365, Note_on_c, 0, 48, 87
2, 368, Note_on_c, 0, 67, 0
2, 373, Control_c, 0, 64, 127
2, 482, Note_on_c, 0, 55, 74
2, 483, Note_on_c, 0, 64, 84
2, 491, Note_on_c, 0, 55, 0
2, 492, Note_on_c, 0, 64, 0
2, 533, Note_on_c, 0, 76, 0
2, 540, Note_on_c, 0, 75, 96
2, 595, Note_on_c, 0, 77, 102
2, 600, Note_on_c, 0, 64, 89
2, 600, Note_on_c, 0, 75, 0
2, 602, Note_on_c, 0, 55, 71
2, 604, Note_on_c, 0, 48, 0
2, 625, Note_on_c, 0, 64, 0
2, 630, Control_c, 0, 64, 0
2, 637, Note_on_c, 0, 55, 0
2, 649, Note_on_c, 0, 76, 95
2, 661, Note_on_c, 0, 77, 0
2, 705, Note_on_c, 0, 74, 104
2, 707, Note_on_c, 0, 48, 92
2, 707, Note_on_c, 0, 76, 0
2, 715, Control_c, 0, 64, 127
2, 768, Note_on_c, 0, 73, 103
2, 773, Note_on_c, 0, 74, 0
2, 820, Note_on_c, 0, 76, 103
2, 820, Note_on_c, 0, 57, 57
2, 820, Note_on_c, 0, 54, 87
2, 820, Note_on_c, 0, 62, 93
2, 822, Note_on_c, 0, 73, 0
2, 829, Note_on_c, 0, 57, 0
2, 837, Note_on_c, 0, 54, 0
2, 849, Note_on_c, 0, 62, 0
2, 850, Control_c, 0, 64, 0
2, 934, Note_on_c, 0, 76, 0
2, 936, Note_on_c, 0, 74, 95
2, 936, Note_on_c, 0, 62, 69
2, 939, Note_on_c, 0, 57, 79
2, 939, Note_on_c, 0, 54, 77
2, 946, Note_on_c, 0, 48, 0
2, 965, Note_on_c, 0, 62, 0
2, 975, Note_on_c, 0, 57, 0
2, 977, Note_on_c, 0, 54, 0
2, 1001, Note_on_c, 0, 74, 0
2, 1061, Note_on_c, 0, 74, 106
2, 1066, Note_on_c, 0, 48, 78
2, 1080, Control_c, 0, 64, 127
2, 1188, Note_on_c, 0, 62, 69
2, 1188, Note_on_c, 0, 59, 62
2, 1188, Note_on_c, 0, 53, 68
2, 1189, Note_on_c, 0, 56, 95
2, 1197, Note_on_c, 0, 59, 0
2, 1199, Note_on_c, 0, 56, 0
2, 1206, Note_on_c, 0, 62, 0
2, 1217, Note_on_c, 0, 53, 0
2, 1231, Note_on_c, 0, 74, 0
2, 1243, Note_on_c, 0, 73, 103
2, 1295, Note_on_c, 0, 76, 105
2, 1295, Note_on_c, 0, 53, 95
2, 1297, Note_on_c, 0, 62, 86
2, 1297, Note_on_c, 0, 56, 78
2, 1297, Note_on_c, 0, 59, 68
2, 1298, Note_on_c, 0, 73, 0
2, 1305, Note_on_c, 0, 48, 0
2, 1308, Note_on_c, 0, 59, 0
2, 1311, Note_on_c, 0, 62, 0
2, 1316, Note_on_c, 0, 53, 0
2, 1317, Note_on_c, 0, 56, 0
2, 1333, Control_c, 0, 64, 0
2, 1349, Note_on_c, 0, 74, 112
2, 1358, Note_on_c, 0, 76, 0
2, 1385, Note_on_c, 0, 74, 0
2, 1408, Control_c, 0, 64, 127
2, 1416, Note_on_c, 0, 48, 90
2, 1416, Note_on_c, 0, 72, 95
2, 1434, Note_on_c, 0, 74, 91
2, 1445, Note_on_c, 0, 72, 0
2, 1457, Note_on_c, 0, 72, 95
2, 1458, Note_on_c, 0, 74, 0
2, 1488, Note_on_c, 0, 72, 0
2, 1489, Note_on_c, 0, 71, 102
2, 1543, Note_on_c, 0, 74, 105
2, 1546, Note_on_c, 0, 60, 68
2, 1546, Note_on_c, 0, 55, 74
2, 1546, Note_on_c, 0, 52, 80
2, 1549, Note_on_c, 0, 71, 0
2, 1561, Note_on_c, 0, 55, 0
2, 1563, Note_on_c, 0, 52, 0
2, 1564, Note_on_c, 0, 60, 0
2, 1565, Control_c, 0, 64, 0
2, 1670, Note_on_c, 0, 74, 0
2, 1672, Note_on_c, 0, 60, 72
2, 1674, Note_on_c, 0, 72, 93
2, 1674, Note_on_c, 0, 52, 79
2, 1674, Note_on_c, 0, 55, 76
2, 1685, Note_on_c, 0, 48, 0
2, 1690, Note_on_c, 0, 55, 0
2, 1691, Note_on_c, 0, 60, 0
2, 1717, Note_on_c, 0, 72, 0
2, 1717, Note_on_c, 0, 52, 0
2, 1800, Note_on_c, 0, 42, 83
2, 1803, Note_on_c, 0, 69, 108
2, 1811, Control_c, 0, 64, 127
2, 1859, Note_on_c, 0, 42, 0
2, 1924, Note_on_c, 0, 50, 87
2, 1926, Note_on_c, 0, 57, 81
2, 1928, Note_on_c, 0, 60, 68
2, 1937, Note_on_c, 0, 57, 0
2, 1940, Note_on_c, 0, 60, 0
2, 1940, Note_on_c, 0, 50, 0
2, 1971, Note_on_c, 0, 69, 0
2, 1979, Note_on_c, 0, 68, 109
2, 2034, Note_on_c, 0, 71, 105
2, 2040, Note_on_c, 0, 68, 0
2, 2063, Control_c, 0, 64, 0
2, 2090, Note_on_c, 0, 69, 120
2, 2090, Note_on_c, 0, 71, 0
2, 2143, Note_on_c, 0, 69, 0
2, 2145, Note_on_c, 0, 43, 95
2, 2145, Note_on_c, 0, 67, 108
2, 2151, Control_c, 0, 64, 127
2, 2204, Note_on_c, 0, 43, 0
2, 2206, Note_on_c, 0, 67, 0
2, 2227, Note_on_c, 0, 72, 108
2, 2261, Note_on_c, 0, 76, 120
2, 2262, Note_on_c, 0, 72, 0
2, 2265, Note_on_c, 0, 52, 90
2, 2266, Note_on_c, 0, 55, 90
2, 2269, Note_on_c, 0, 60, 79
2, 2290, Note_on_c, 0, 55, 0
2, 2295, Note_on_c, 0, 60, 0
2, 2297, Note_on_c, 0, 52, 0
2, 2303, Control_c, 0, 64, 0
2, 2392, Note_on_c, 0, 60, 86
2, 2394, Note_on_c, 0, 52, 83
2, 2396, Note_on_c, 0, 55, 76
2, 2410, Note_on_c, 0, 55, 0
2, 2417, Note_on_c, 0, 60, 0
2, 2427, Note_on_c, 0, 52, 0
2, 2502, Note_on_c, 0, 76, 0
2, 2519, Control_c, 0, 64, 127
2, 2519, Note_on_c, 0, 43, 101
2, 2573, Note_on_c, 0, 74, 103
2, 2578, Note_on_c, 0, 43, 0
2, 2585, Note_on_c, 0, 74, 0
2, 2599, Note_on_c, 0, 76, 95
2, 2619, Note_on_c, 0, 74, 102
2, 2626, Note_on_c, 0, 76, 0
2, 2632, Note_on_c, 0, 55, 91
2, 2632, Note_on_c, 0, 59, 89
2, 2636, Note_on_c, 0, 73, 127
2, 2636, Note_on_c, 0, 53, 86
2, 2642, Note_on_c, 0, 59, 0
2, 2642, Note_on_c, 0, 74, 0
2, 2642, Note_on_c, 0, 55, 0
2, 2643, Note_on_c, 0, 53, 0
2, 2685, Note_on_c, 0, 74, 126
2, 2685, Note_on_c, 0, 73, 0
2, 2718, Control_c, 0, 64, 0
2, 2739, Note_on_c, 0, 76, 123
2, 2740, Note_on_c, 0, 59, 98
2, 2742, Note_on_c, 0, 53, 101
2, 2742, Note_on_c, 0, 55, 92
2, 2749, Note_on_c, 0, 74, 0
2, 2750, Note_on_c, 0, 59, 0
2, 2753, Note_on_c, 0, 55, 0
2, 2753, Note_on_c, 0, 53, 0
2, 2791, Note_on_c, 0, 77, 127
2, 2805, Note_on_c, 0, 76, 0
2, 2859, Note_on_c, 0, 81, 115
2, 2863, Note_on_c, 0, 48, 95
2, 2863, Note_on_c, 0, 77, 0
2, 2895, Control_c, 0, 64, 127
2, 2987, Note_on_c, 0, 54, 91
2, 2990, Note_on_c, 0, 63, 77
2, 3126, Note_on_c, 0, 81, 0
2, 3128, Note_on_c, 0, 79, 85
2, 3134, Note_on_c, 0, 64, 76
2, 3136, Note_on_c, 0, 55, 75
2, 3136, Note_on_c, 0, 54, 0
2, 3139, Note_on_c, 0, 63, 0
2, 3151, Control_c, 0, 64, 0
2, 3187, Note_on_c, 0, 79, 0
2, 3192, Note_on_c, 0, 48, 0
2, 3193, Note_on_c, 0, 64, 0
2, 3195, Note_on_c, 0, 55, 0
2, 3240, Control_c, 0, 7, 126
2, 3248, Note_on_c, 0, 76, 101
2, 3253, Note_on_c, 0, 48, 91
2, 3253, Note_on_c, 0, 67, 92
2, 3264, Control_c, 0, 64, 127
2, 3363, Note_on_c, 0, 55, 98
2, 3365, Note_on_c, 0, 64, 104
2, 3372, Note_on_c, 0, 55, 0
2, 3372, Note_on_c, 0, 67, 0
2, 3374, Note_on_c, 0, 64, 0
2, 3397, Note_on_c, 0, 76, 0
2, 3409, Note_on_c, 0, 66, 113
2, 3412, Note_on_c, 0, 75, 101
2, 3466, Note_on_c, 0, 77, 113
2, 3466, Note_on_c, 0, 69, 101
2, 3468, Note_on_c, 0, 66, 0
2, 3471, Note_on_c, 0, 75, 0
2, 3473, Note_on_c, 0, 55, 105
2, 3473, Note_on_c, 0, 64, 106
2, 3480, Note_on_c, 0, 64, 0
2, 3483, Note_on_c, 0, 55, 0
2, 3492, Note_on_c, 0, 48, 0
2, 3525, Note_on_c, 0, 67, 113
2, 3525, Note_on_c, 0, 69, 0
2, 3525, Note_on_c, 0, 77, 0
2, 3527, Note_on_c, 0, 76, 99
2, 3584, Note_on_c, 0, 67, 0
2, 3586, Note_on_c, 0, 76, 0
2, 3587, Note_on_c, 0, 74, 105
2, 3588, Note_on_c, 0, 66, 100
2, 3591, Note_on_c, 0, 48, 104
2, 3608, Note_on_c, 0, 76, 99
2, 3611, Control_c, 0, 64, 0
2, 3616, Note_on_c, 0, 74, 0
2, 3624, Control_c, 0, 64, 127
2, 3630, Note_on_c, 0, 74, 97
2, 3637, Note_on_c, 0, 76, 0
2, 3640, Note_on_c, 0, 73, 107
2, 3640, Note_on_c, 0, 64, 112
2, 3647, Note_on_c, 0, 66, 0
2, 3659, Note_on_c, 0, 74, 0
2, 3695, Note_on_c, 0, 73, 0
2, 3699, Note_on_c, 0, 64, 0
2, 3708, Note_on_c, 0, 76, 103
2, 3709, Note_on_c, 0, 57, 81
2, 3709, Note_on_c, 0, 54, 83
2, 3710, Note_on_c, 0, 62, 75
2, 3714, Note_on_c, 0, 67, 82
2, 3720, Note_on_c, 0, 54, 0
2, 3720, Note_on_c, 0, 57, 0
2, 3723, Note_on_c, 0, 62, 0
2, 3736, Control_c, 0, 64, 0
2, 3803, Note_on_c, 0, 67, 0
2, 3831, Note_on_c, 0, 74, 98
2, 3831, Note_on_c, 0, 66, 76
2, 3835, Note_on_c, 0, 76, 0
2, 3838, Note_on_c, 0, 54, 83
2, 3838, Note_on_c, 0, 62, 72
2, 3842, Note_on_c, 0, 57, 76
2, 3857, Note_on_c, 0, 57, 0
2, 3857, Note_on_c, 0, 62, 0
2, 3860, Note_on_c, 0, 48, 0
2, 3866, Note_on_c, 0, 54, 0
2, 3890, Note_on_c, 0, 74, 0
2, 3890, Note_on_c, 0, 66, 0
2, 3959, Note_on_c, 0, 74, 100
2, 3959, Note_on_c, 0, 65, 98
2, 3959, Note_on_c, 0, 48, 79
2, 3973, Control_c, 0, 64, 127
2, 4076, Note_on_c, 0, 62, 92
2, 4076, Note_on_c, 0, 59, 85
2, 4076, Note_on_c, 0, 56, 89
2, 4076, Note_on_c, 0, 53, 100
2, 4091, Note_on_c, 0, 59, 0
2, 4091, Note_on_c, 0, 62, 0
2, 4092, Note_on_c, 0, 56, 0
2, 4105, Note_on_c, 0, 53, 0
2, 4108, Note_on_c, 0, 74, 0
2, 4108, Note_on_c, 0, 65, 0
2, 4130, Note_on_c, 0, 64, 112
2, 4130, Note_on_c, 0, 73, 103
2, 4189, Note_on_c, 0, 73, 0
2, 4189, Note_on_c, 0, 64, 0
2, 4190, Note_on_c, 0, 76, 106
2, 4193, Note_on_c, 0, 62, 95
2, 4193, Note_on_c, 0, 67, 83
2, 4194, Note_on_c, 0, 53, 92
2, 4194, Note_on_c, 0, 56, 92
2, 4195, Note_on_c, 0, 59, 89
2, 4208, Note_on_c, 0, 59, 0
2, 4213, Note_on_c, 0, 62, 0
2, 4218, Note_on_c, 0, 53, 0
2, 4218, Note_on_c, 0, 56, 0
2, 4228, Note_on_c, 0, 48, 0
2, 4244, Note_on_c, 0, 74, 116
2, 4244, Note_on_c, 0, 65, 108
2, 4249, Note_on_c, 0, 76, 0
2, 4252, Note_on_c, 0, 67, 0
2, 4303, Note_on_c, 0, 74, 0
2, 4303, Note_on_c, 0, 65, 0
2, 4308, Note_on_c, 0, 48, 102
2, 4312, Note_on_c, 0, 64, 104
2, 4312, Note_on_c, 0, 72, 105
2, 4321, Control_c, 0, 64, 0
2, 4332, Note_on_c, 0, 74, 96
2, 4339, Control_c, 0, 64, 127
2, 4341, Note_on_c, 0, 72, 0
2, 4350, Note_on_c, 0, 72, 94
2, 4361, Note_on_c, 0, 74, 0
2, 4367, Note_on_c, 0, 71, 110
2, 4368, Note_on_c, 0, 63, 115
2, 4371, Note_on_c, 0, 64, 0
2, 4379, Note_on_c, 0, 72, 0
2, 4426, Note_on_c, 0, 71, 0
2, 4427, Note_on_c, 0, 63, 0
2, 4429, Note_on_c, 0, 74, 112
2, 4431, Note_on_c, 0, 65, 109
2, 4435, Note_on_c, 0, 55, 88
2, 4437, Note_on_c, 0, 60, 88
2, 4437, Note_on_c, 0, 52, 86
2, 4445, Note_on_c, 0, 60, 0
2, 4445, Note_on_c, 0, 55, 0
2, 4447, Note_on_c, 0, 52, 0
2, 4452, Control_c, 0, 64, 0
2, 4550, Note_on_c, 0, 72, 99
2, 4550, Note_on_c, 0, 65, 0
2, 4552, Note_on_c, 0, 64, 80
2, 4555, Note_on_c, 0, 60, 78
2, 4556, Note_on_c, 0, 74, 0
2, 4557, Note_on_c, 0, 52, 78
2, 4560, Note_on_c, 0, 55, 70
2, 4569, Note_on_c, 0, 60, 0
2, 4577, Note_on_c, 0, 48, 0
2, 4578, Note_on_c, 0, 55, 0
2, 4591, Note_on_c, 0, 52, 0
2, 4609, Note_on_c, 0, 72, 0
2, 4611, Note_on_c, 0, 64, 0
2, 4677, Note_on_c, 0, 69, 92
2, 4677, Note_on_c, 0, 65, 76
2, 4679, Note_on_c, 0, 41, 96
2, 4685, Control_c, 0, 64, 127
2, 4694, Note_on_c, 0, 71, 97
2, 4706, Note_on_c, 0, 69, 0
2, 4720, Note_on_c, 0, 69, 101
2, 4723, Note_on_c, 0, 71, 0
2, 4768, Note_on_c, 0, 41, 0
2, 4782, Note_on_c, 0, 65, 0
2, 4790, Note_on_c, 0, 57, 96
2, 4793, Note_on_c, 0, 60, 95
2, 4795, Note_on_c, 0, 53, 101
2, 4839, Note_on_c, 0, 69, 0
2, 4843, Note_on_c, 0, 68, 105
2, 4843, Note_on_c, 0, 64, 102
2, 4900, Note_on_c, 0, 60, 0
2, 4901, Note_on_c, 0, 71, 106
2, 4901, Note_on_c, 0, 67, 105
2, 4902, Note_on_c, 0, 68, 0
2, 4902, Note_on_c, 0, 64, 0
2, 4905, Note_on_c, 0, 53, 0
2, 4908, Note_on_c, 0, 57, 0
2, 4943, Control_c, 0, 64, 0
2, 4953, Note_on_c, 0, 69, 113
2, 4953, Note_on_c, 0, 65, 105
2, 4960, Note_on_c, 0, 67, 0
2, 4960, Note_on_c, 0, 71, 0
2, 5012, Note_on_c, 0, 65, 0
2, 5016, Note_on_c, 0, 43, 107
2, 5016, Note_on_c, 0, 69, 0
2, 5017, Note_on_c, 0, 67, 109
2, 5017, Note_on_c, 0, 64, 111
2, 5026, Control_c, 0, 64, 127
2, 5075, Note_on_c, 0, 43, 0
2, 5076, Note_on_c, 0, 64, 0
2, 5088, Note_on_c, 0, 67, 0
2, 5089, Note_on_c, 0, 72, 115
2, 5092, Note_on_c, 0, 64, 103
2, 5121, Note_on_c, 0, 64, 0
2, 5122, Note_on_c, 0, 72, 0
2, 5133, Note_on_c, 0, 67, 106
2, 5136, Note_on_c, 0, 76, 115
2, 5136, Note_on_c, 0, 52, 100
2, 5136, Note_on_c, 0, 60, 92
2, 5154, Note_on_c, 0, 60, 0
2, 5154, Note_on_c, 0, 52, 0
2, 5166, Control_c, 0, 64, 0
2, 5266, Note_on_c, 0, 60, 90
2, 5266, Note_on_c, 0, 52, 97
2, 5276, Note_on_c, 0, 60, 0
2, 5284, Note_on_c, 0, 67, 0
2, 5286, Note_on_c, 0, 52, 0
2, 5376, Note_on_c, 0, 76, 0
2, 5389, Note_on_c, 0, 43, 111
2, 5392, Control_c, 0, 64, 127
2, 5435, Note_on_c, 0, 74, 105
2, 5436, Note_on_c, 0, 65, 93
2, 5445, Note_on_c, 0, 74, 0
2, 5448, Note_on_c, 0, 43, 0
2, 5460, Note_on_c, 0, 76, 91
2, 5470, Note_on_c, 0, 76, 0
2, 5475, Note_on_c, 0, 74, 102
2, 5495, Note_on_c, 0, 65, 0
2, 5501, Note_on_c, 0, 73, 122
2, 5502, Note_on_c, 0, 50, 84
2, 5502, Note_on_c, 0, 55, 89
2, 5502, Note_on_c, 0, 59, 90
2, 5507, Note_on_c, 0, 64, 112
2, 5508, Note_on_c, 0, 74, 0
2, 5511, Note_on_c, 0, 59, 0
2, 5511, Note_on_c, 0, 55, 0
2, 5511, Note_on_c, 0, 50, 0
2, 5558, Note_on_c, 0, 74, 121
2, 5563, Note_on_c, 0, 65, 88
2, 5566, Note_on_c, 0, 73, 0
2, 5566, Note_on_c, 0, 64, 0
2, 5617, Note_on_c, 0, 74, 0
2, 5622, Note_on_c, 0, 65, 0
2, 5632, Note_on_c, 0, 50, 96
2, 5633, Note_on_c, 0, 77, 103
2, 5633, Note_on_c, 0, 69, 103
2, 5635, Note_on_c, 0, 59, 84
2, 5637, Note_on_c, 0, 55, 79
2, 5663, Note_on_c, 0, 59, 0
2, 5670, Control_c, 0, 64, 0
2, 5670, Note_on_c, 0, 55, 0
2, 5671, Note_on_c, 0, 50, 0
2, 5692, Note_on_c, 0, 69, 0
2, 5692, Note_on_c, 0, 77, 0
2, 5723, Note_on_c, 0, 76, 95
2, 5726, Note_on_c, 0, 67, 79
2, 5755, Note_on_c, 0, 67, 0
2, 5760, Note_on_c, 0, 76, 0
2, 5781, Note_on_c, 0, 74, 103
2, 5781, Note_on_c, 0, 36, 92
2, 5781, Note_on_c, 0, 65, 99
2, 5781, Note_on_c, 0, 48, 85
2, 5792, Control_c, 0, 64, 127
2, 5865, Note_on_c, 0, 74, 0
2, 5870, Note_on_c, 0, 48, 0
2, 5870, Note_on_c, 0, 65, 0
2, 5875, Note_on_c, 0, 67, 79
2, 5875, Note_on_c, 0, 76, 97
2, 5900, Note_on_c, 0, 36, 0
2, 5934, Note_on_c, 0, 60, 65
2, 5934, Note_on_c, 0, 64, 90
2, 5934, Note_on_c, 0, 72, 92
2, 5934, Note_on_c, 0, 52, 78
2, 5934, Note_on_c, 0, 48, 80
2, 5934, Note_on_c, 0, 76, 0
2, 5934, Note_on_c, 0, 67, 0
2, 5959, Control_c, 0, 64, 0
2, 6000, Control_c, 0, 7, 92
2, 6010, Note_on_c, 0, 64, 0
2, 6084, Note_on_c, 0, 72, 0
2, 6095, Note_on_c, 0, 60, 0
2, 6095, Note_on_c, 0, 52, 0
2, 6099, Note_on_c, 0, 67, 93
2, 6113, Note_on_c, 0, 48, 0
2, 6218, Note_on_c, 0, 67, 0
2, 6240, Note_on_c, 0, 76, 94
2, 6249, Note_on_c, 0, 48, 77
2, 6255, Control_c, 0, 64, 127
2, 6369, Note_on_c, 0, 55, 81
2, 6372, Note_on_c, 0, 60, 72
2, 6372, Note_on_c, 0, 64, 65
2, 6381, Note_on_c, 0, 55, 0
2, 6382, Note_on_c, 0, 64, 0
2, 6383, Note_on_c, 0, 60, 0
2, 6392, Note_on_c, 0, 76, 0
2, 6430, Note_on_c, 0, 75, 103
2, 6479, Note_on_c, 0, 77, 109
2, 6483, Note_on_c, 0, 64, 82
2, 6485, Note_on_c, 0, 55, 66
2, 6485, Note_on_c, 0, 60, 80
2, 6488, Note_on_c, 0, 48, 0
2, 6489, Note_on_c, 0, 75, 0
2, 6491, Note_on_c, 0, 64, 0
2, 6498, Note_on_c, 0, 55, 0
2, 6498, Note_on_c, 0, 60, 0
2, 6530, Note_on_c, 0, 77, 0
2, 6531, Note_on_c, 0, 76, 107
2, 6593, Note_on_c, 0, 76, 0
2, 6594, Note_on_c, 0, 74, 99
2, 6594, Note_on_c, 0, 48, 83
2, 6601, Control_c, 0, 64, 0
2, 6623, Control_c, 0, 64, 127
2, 6648, Note_on_c, 0, 74, 0
2, 6654, Note_on_c, 0, 73, 101
2, 6710, Note_on_c, 0, 76, 97
2, 6710, Note_on_c, 0, 62, 84
2, 6710, Note_on_c, 0, 73, 0
2, 6712, Note_on_c, 0, 54, 85
2, 6712, Note_on_c, 0, 57, 82
2, 6725, Note_on_c, 0, 57, 0
2, 6726, Note_on_c, 0, 54, 0
2, 6730, Note_on_c, 0, 62, 0
2, 6731, Control_c, 0, 64, 0
2, 6824, Note_on_c, 0, 76, 0
2, 6831, Note_on_c, 0, 74, 90
2, 6831, Note_on_c, 0, 62, 62
2, 6831, Note_on_c, 0, 57, 74
2, 6831, Note_on_c, 0, 54, 67
2, 6846, Note_on_c, 0, 62, 0
2, 6847, Note_on_c, 0, 57, 0
2, 6855, Note_on_c, 0, 54, 0
2, 6863, Note_on_c, 0, 48, 0
2, 6866, Note_on_c, 0, 74, 0
2, 6958, Note_on_c, 0, 74, 109
2, 6960, Note_on_c, 0, 48, 82
2, 6964, Control_c, 0, 64, 127
2, 7074, Note_on_c, 0, 62, 78
2, 7074, Note_on_c, 0, 59, 75
2, 7077, Note_on_c, 0, 53, 81
2, 7077, Note_on_c, 0, 56, 82
2, 7084, Note_on_c, 0, 59, 0
2, 7088, Note_on_c, 0, 53, 0
2, 7092, Note_on_c, 0, 56, 0
2, 7096, Note_on_c, 0, 62, 0
2, 7109, Note_on_c, 0, 74, 0
2, 7139, Note_on_c, 0, 73, 108
2, 7187, Note_on_c, 0, 76, 114
2, 7189, Note_on_c, 0, 62, 90
2, 7189, Note_on_c, 0, 56, 88
2, 7189, Note_on_c, 0, 53, 91
2, 7189, Note_on_c, 0, 59, 80
2, 7195, Note_on_c, 0, 73, 0
2, 7199, Note_on_c, 0, 59, 0
2, 7200, Note_on_c, 0, 62, 0
2, 7210, Note_on_c, 0, 56, 0
2, 7214, Note_on_c, 0, 53, 0
2, 7220, Control_c, 0, 64, 0
2, 7229, Note_on_c, 0, 48, 0
2, 7242, Note_on_c, 0, 74, 114
2, 7252, Note_on_c, 0, 76, 0
2, 7276, Note_on_c, 0, 74, 0
2, 7298, Control_c, 0, 64, 127
2, 7305, Note_on_c, 0, 72, 84
2, 7305, Note_on_c, 0, 48, 84
2, 7321, Note_on_c, 0, 74, 92
2, 7334, Note_on_c, 0, 72, 0
2, 7340, Note_on_c, 0, 72, 95
2, 7347, Note_on_c, 0, 74, 0
2, 7374, Note_on_c, 0, 71, 104
2, 7374, Note_on_c, 0, 72, 0
2, 7427, Note_on_c, 0, 71, 0
2, 7429, Note_on_c, 0, 74, 104
2, 7432, Note_on_c, 0, 60, 67
2, 7432, Note_on_c, 0, 55, 81
2, 7432, Note_on_c, 0, 52, 86
2, 7440, Note_on_c, 0, 60, 0
2, 7442, Note_on_c, 0, 55, 0
2, 7444, Note_on_c, 0, 52, 0
2, 7448, Control_c, 0, 64, 0
2, 7547, Note_on_c, 0, 72, 94
2, 7547, Note_on_c, 0, 74, 0
2, 7551, Note_on_c, 0, 60, 77
2, 7551, Note_on_c, 0, 55, 77
2, 7551, Note_on_c, 0, 52, 84
2, 7572, Note_on_c, 0, 60, 0
2, 7574, Note_on_c, 0, 48, 0
2, 7575, Note_on_c, 0, 72, 0
2, 7579, Note_on_c, 0, 55, 0
2, 7591, Note_on_c, 0, 52, 0
2, 7679, Note_on_c, 0, 42, 82
2, 7679, Note_on_c, 0, 69, 104
2, 7693, Control_c, 0, 64, 127
2, 7702, Note_on_c, 0, 42, 0
2, 7800, Note_on_c, 0, 57, 85
2, 7800, Note_on_c, 0, 50, 75
2, 7805, Note_on_c, 0, 60, 73
2, 7817, Note_on_c, 0, 60, 0
2, 7817, Note_on_c, 0, 57, 0
2, 7821, Note_on_c, 0, 50, 0
2, 7844, Note_on_c, 0, 69, 0
2, 7857, Note_on_c, 0, 68, 114
2, 7906, Note_on_c, 0, 68, 0
2, 7907, Note_on_c, 0, 71, 102
2, 7958, Note_on_c, 0, 71, 0
2, 7963, Note_on_c, 0, 69, 111
2, 8010, Control_c, 0, 64, 0
2, 8012, Note_on_c, 0, 69, 0
2, 8018, Note_on_c, 0, 67, 115
2, 8018, Note_on_c, 0, 43, 95
2, 8034, Control_c, 0, 64, 127
2, 8038, Note_on_c, 0, 43, 0
2, 8067, Note_on_c, 0, 67, 0
2, 8099, Note_on_c, 0, 72, 109
2, 8127, Note_on_c, 0, 72, 0
2, 8135, Note_on_c, 0, 76, 121
2, 8139, Note_on_c, 0, 60, 84
2, 8140, Note_on_c, 0, 52, 91
2, 8140, Note_on_c, 0, 55, 86
2, 8153, Note_on_c, 0, 55, 0
2, 8154, Note_on_c, 0, 52, 0
2, 8155, Note_on_c, 0, 60, 0
2, 8168, Control_c, 0, 64, 0
2, 8272, Note_on_c, 0, 60, 75
2, 8272, Note_on_c, 0, 52, 78
2, 8273, Note_on_c, 0, 55, 78
2, 8292, Note_on_c, 0, 60, 0
2, 8300, Note_on_c, 0, 55, 0
2, 8309, Note_on_c, 0, 52, 0
2, 8388, Control_c, 0, 64, 127
2, 8390, Note_on_c, 0, 43, 90
2, 8395, Note_on_c, 0, 76, 0
2, 8414, Note_on_c, 0, 43, 0
2, 8448, Note_on_c, 0, 74, 98
2, 8457, Note_on_c, 0, 74, 0
2, 8473, Note_on_c, 0, 76, 89
2, 8490, Note_on_c, 0, 74, 112
2, 8498, Note_on_c, 0, 76, 0
2, 8506, Note_on_c, 0, 55, 81
2, 8506, Note_on_c, 0, 53, 89
2, 8506, Note_on_c, 0, 59, 82
2, 8513, Note_on_c, 0, 73, 122
2, 8516, Note_on_c, 0, 53, 0
2, 8516, Note_on_c, 0, 55, 0
2, 8522, Note_on_c, 0, 74, 0
2, 8535, Note_on_c, 0, 59, 0
2, 8563, Note_on_c, 0, 73, 0
2, 8564, Note_on_c, 0, 74, 123
2, 8616, Note_on_c, 0, 76, 121
2, 8616, Note_on_c, 0, 55, 94
2, 8617, Note_on_c, 0, 59, 80
2, 8619, Note_on_c, 0, 53, 98
2, 8626, Note_on_c, 0, 74, 0
2, 8628, Note_on_c, 0, 53, 0
2, 8628, Note_on_c, 0, 55, 0
2, 8630, Note_on_c, 0, 59, 0
2, 8642, Control_c, 0, 64, 0
2, 8667, Note_on_c, 0, 77, 127
2, 8680, Note_on_c, 0, 76, 0
2, 8736, Note_on_c, 0, 81, 118
2, 8741, Note_on_c, 0, 77, 0
2, 8742, Note_on_c, 0, 48, 104
2, 8756, Control_c, 0, 64, 127
2, 8866, Note_on_c, 0, 54, 101
2, 8871, Note_on_c, 0, 63, 101
2, 8985, Note_on_c, 0, 54, 0
2, 8990, Control_c, 0, 64, 0
2, 8990, Note_on_c, 0, 63, 0
2, 8993, Note_on_c, 0, 81, 0
2, 9000, Note_on_c, 0, 79, 92
2, 9002, Note_on_c, 0, 64, 92
2, 9007, Note_on_c, 0, 55, 92
2, 9010, Control_c, 0, 7, 113
2, 9011, Note_on_c, 0, 48, 0
2, 9034, Note_on_c, 0, 79, 0
2, 9072, Note_on_c, 0, 55, 0
2, 9091, Note_on_c, 0, 64, 0
2, 9136, Note_on_c, 0, 76, 103
2, 9138, Note_on_c, 0, 67, 93
2, 9141, Note_on_c, 0, 48, 83
2, 9147, Control_c, 0, 64, 127
2, 9242, Note_on_c, 0, 55, 88
2, 9245, Note_on_c, 0, 64, 95
2, 9254, Note_on_c, 0, 64, 0
2, 9254, Note_on_c, 0, 55, 0
2, 9255, Note_on_c, 0, 76, 0
2, 9257, Note_on_c, 0, 67, 0
2, 9293, Note_on_c, 0, 66, 106
2, 9296, Note_on_c, 0, 75, 101
2, 9350, Note_on_c, 0, 77, 107
2, 9352, Note_on_c, 0, 66, 0
2, 9354, Note_on_c, 0, 55, 100
2, 9355, Note_on_c, 0, 75, 0
2, 9357, Note_on_c, 0, 64, 101
2, 9357, Note_on_c, 0, 69, 88
2, 9363, Note_on_c, 0, 55, 0
2, 9364, Note_on_c, 0, 64, 0
2, 9380, Note_on_c, 0, 48, 0
2, 9405, Note_on_c, 0, 76, 104
2, 9405, Note_on_c, 0, 67, 104
2, 9409, Note_on_c, 0, 77, 0
2, 9416, Note_on_c, 0, 69, 0
2, 9464, Note_on_c, 0, 76, 0
2, 9464, Note_on_c, 0, 67, 0
2, 9470, Note_on_c, 0, 66, 115
2, 9472, Note_on_c, 0, 74, 110
2, 9476, Note_on_c, 0, 48, 87
2, 9482, Control_c, 0, 64, 0
2, 9487, Note_on_c, 0, 76, 100
2, 9501, Control_c, 0, 64, 127
2, 9501, Note_on_c, 0, 74, 0
2, 9507, Note_on_c, 0, 74, 100
2, 9516, Note_on_c, 0, 76, 0
2, 9524, Note_on_c, 0, 73, 110
2, 9527, Note_on_c, 0, 64, 110
2, 9529, Note_on_c, 0, 66, 0
2, 9536, Note_on_c, 0, 74, 0
2, 9580, Note_on_c, 0, 54, 66
2, 9583, Note_on_c, 0, 76, 112
2, 9583, Note_on_c, 0, 73, 0
2, 9585, Note_on_c, 0, 57, 97
2, 9586, Note_on_c, 0, 64, 0
2, 9588, Note_on_c, 0, 67, 104
2, 9588, Note_on_c, 0, 62, 95
2, 9594, Note_on_c, 0, 54, 0
2, 9594, Note_on_c, 0, 57, 0
2, 9595, Note_on_c, 0, 62, 0
2, 9659, Control_c, 0, 64, 0
2, 9677, Note_on_c, 0, 67, 0
2, 9699, Note_on_c, 0, 54, 103
2, 9699, Note_on_c, 0, 76, 0
2, 9701, Note_on_c, 0, 74, 105
2, 9701, Note_on_c, 0, 66, 94
2, 9705, Note_on_c, 0, 62, 82
2, 9705, Note_on_c, 0, 57, 88
2, 9715, Note_on_c, 0, 57, 0
2, 9715, Note_on_c, 0, 48, 0
2, 9718, Note_on_c, 0, 62, 0
2, 9725, Note_on_c, 0, 54, 0
2, 9760, Note_on_c, 0, 74, 0
2, 9760, Note_on_c, 0, 66, 0
2, 9826, Note_on_c, 0, 74, 103
2, 9826, Note_on_c, 0, 48, 79
2, 9829, Note_on_c, 0, 65, 98
2, 9834, Control_c, 0, 64, 127
2, 9943, Note_on_c, 0, 59, 79
2, 9945, Note_on_c, 0, 53, 77
2, 9945, Note_on_c, 0, 56, 73
2, 9946, Note_on_c, 0, 62, 77
2, 9953, Note_on_c, 0, 53, 0
2, 9957, Note_on_c, 0, 59, 0
2, 9957, Note_on_c, 0, 56, 0
2, 9959, Note_on_c, 0, 62, 0
2, 9975, Note_on_c, 0, 74, 0
2, 9978, Note_on_c, 0, 65, 0
2, 9999, Note_on_c, 0, 73, 108
2, 10002, Note_on_c, 0, 64, 102
2, 10055, Note_on_c, 0, 76, 108
2, 10058, Note_on_c, 0, 67, 101
2, 10058, Note_on_c, 0, 73, 0
2, 10060, Note_on_c, 0, 62, 97
2, 10060, Note_on_c, 0, 53, 74
2, 10061, Note_on_c, 0, 56, 71
2, 10061, Note_on_c, 0, 64, 0
2, 10065, Note_on_c, 0, 59, 75
2, 10065, Note_on_c, 0, 48, 0
2, 10070, Note_on_c, 0, 53, 0
2, 10070, Note_on_c, 0, 62, 0
2, 10070, Note_on_c, 0, 56, 0
2, 10075, Note_on_c, 0, 59, 0
2, 10108, Note_on_c, 0, 74, 114
2, 10108, Note_on_c, 0, 65, 109
2, 10114, Note_on_c, 0, 76, 0
2, 10117, Note_on_c, 0, 67, 0
2, 10167, Note_on_c, 0, 74, 0
2, 10167, Note_on_c, 0, 65, 0
2, 10176, Note_on_c, 0, 48, 94
2, 10176, Note_on_c, 0, 72, 109
2, 10178, Note_on_c, 0, 64, 102
2, 10185, Control_c, 0, 64, 0
2, 10191, Note_on_c, 0, 74, 100
2, 10205, Note_on_c, 0, 72, 0
2, 10206, Control_c, 0, 64, 127
2, 10214, Note_on_c, 0, 72, 100
2, 10220, Note_on_c, 0, 74, 0
2, 10233, Note_on_c, 0, 63, 115
2, 10233, Note_on_c, 0, 71, 102
2, 10237, Note_on_c, 0, 64, 0
2, 10243, Note_on_c, 0, 72, 0
2, 10291, Note_on_c, 0, 52, 76
2, 10291, Note_on_c, 0, 74, 102
2, 10291, Note_on_c, 0, 65, 109
2, 10292, Note_on_c, 0, 63, 0
2, 10292, Note_on_c, 0, 71, 0
2, 10294, Note_on_c, 0, 60, 75
2, 10294, Note_on_c, 0, 55, 78
2, 10301, Note_on_c, 0, 52, 0
2, 10304, Note_on_c, 0, 55, 0
2, 10305, Note_on_c, 0, 60, 0
2, 10308, Control_c, 0, 64, 0
2, 10407, Note_on_c, 0, 72, 93
2, 10408, Note_on_c, 0, 64, 82
2, 10408, Note_on_c, 0, 74, 0
2, 10410, Note_on_c, 0, 65, 0
2, 10411, Note_on_c, 0, 60, 75
2, 10412, Note_on_c, 0, 52, 73
2, 10416, Note_on_c, 0, 55, 83
2, 10426, Note_on_c, 0, 60, 0
2, 10427, Note_on_c, 0, 55, 0
2, 10437, Note_on_c, 0, 52, 0
2, 10445, Note_on_c, 0, 48, 0
2, 10466, Note_on_c, 0, 72, 0
2, 10467, Note_on_c, 0, 64, 0
2, 10538, Note_on_c, 0, 69, 92
2, 10540, Note_on_c, 0, 65, 70
2, 10543, Note_on_c, 0, 41, 87
2, 10554, Control_c, 0, 64, 127
2, 10632, Note_on_c, 0, 41, 0
2, 10656, Note_on_c, 0, 60, 87
2, 10658, Note_on_c, 0, 57, 86
2, 10661, Note_on_c, 0, 53, 81
2, 10670, Note_on_c, 0, 57, 0
2, 10670, Note_on_c, 0, 60, 0
2, 10671, Note_on_c, 0, 53, 0
2, 10687, Note_on_c, 0, 69, 0
2, 10689, Note_on_c, 0, 65, 0
2, 10710, Note_on_c, 0, 68, 105
2, 10715, Note_on_c, 0, 64, 104
2, 10769, Note_on_c, 0, 68, 0
2, 10770, Note_on_c, 0, 71, 100
2, 10774, Note_on_c, 0, 64, 0
2, 10776, Note_on_c, 0, 67, 89
2, 10821, Note_on_c, 0, 69, 108
2, 10821, Note_on_c, 0, 65, 80
2, 10829, Note_on_c, 0, 71, 0
2, 10835, Note_on_c, 0, 67, 0
2, 10877, Note_on_c, 0, 69, 0
2, 10880, Note_on_c, 0, 65, 0
2, 10892, Note_on_c, 0, 64, 100
2, 10892, Note_on_c, 0, 67, 96
2, 10897, Note_on_c, 0, 43, 100
2, 10901, Control_c, 0, 64, 0
2, 10914, Note_on_c, 0, 43, 0
2, 10919, Control_c, 0, 64, 127
2, 10951, Note_on_c, 0, 67, 0
2, 10951, Note_on_c, 0, 64, 0
2, 10973, Note_on_c, 0, 72, 108
2, 10975, Note_on_c, 0, 67, 90
2, 11004, Note_on_c, 0, 67, 0
2, 11018, Note_on_c, 0, 76, 123
2, 11020, Note_on_c, 0, 67, 112
2, 11020, Note_on_c, 0, 52, 96
2, 11020, Note_on_c, 0, 60, 98
2, 11030, Note_on_c, 0, 60, 0
2, 11032, Note_on_c, 0, 72, 0
2, 11033, Note_on_c, 0, 52, 0
2, 11047, Control_c, 0, 64, 0
2, 11145, Note_on_c, 0, 52, 102
2, 11145, Note_on_c, 0, 60, 99
2, 11156, Note_on_c, 0, 60, 0
2, 11168, Note_on_c, 0, 52, 0
2, 11193, Note_on_c, 0, 67, 0
2, 11206, Note_on_c, 0, 76, 0
2, 11269, Note_on_c, 0, 43, 109
2, 11272, Control_c, 0, 64, 127
2, 11287, Note_on_c, 0, 43, 0
2, 11312, Note_on_c, 0, 74, 98
2, 11315, Note_on_c, 0, 65, 89
2, 11340, Note_on_c, 0, 76, 86
2, 11341, Note_on_c, 0, 74, 0
2, 11359, Note_on_c, 0, 74, 95
2, 11369, Note_on_c, 0, 76, 0
2, 11374, Note_on_c, 0, 65, 0
2, 11377, Note_on_c, 0, 50, 95
2, 11378, Note_on_c, 0, 73, 126
2, 11378, Note_on_c, 0, 55, 95
2, 11378, Note_on_c, 0, 59, 93
2, 11378, Note_on_c, 0, 64, 107
2, 11387, Note_on_c, 0, 59, 0
2, 11387, Note_on_c, 0, 55, 0
2, 11387, Note_on_c, 0, 50, 0
2, 11387, Note_on_c, 0, 74, 0
2, 11414, Note_on_c, 0, 73, 0
2, 11434, Note_on_c, 0, 74, 114
2, 11437, Note_on_c, 0, 65, 101
2, 11437, Note_on_c, 0, 64, 0
2, 11493, Note_on_c, 0, 74, 0
2, 11496, Note_on_c, 0, 65, 0
2, 11505, Note_on_c, 0, 77, 107
2, 11505, Note_on_c, 0, 50, 94
2, 11508, Note_on_c, 0, 69, 102
2, 11508, Note_on_c, 0, 59, 91
2, 11510, Note_on_c, 0, 55, 92
2, 11518, Note_on_c, 0, 50, 0
2, 11519, Note_on_c, 0, 59, 0
2, 11519, Note_on_c, 0, 55, 0
2, 11564, Note_on_c, 0, 77, 0
2, 11567, Note_on_c, 0, 69, 0
2, 11594, Note_on_c, 0, 76, 102
2, 11597, Note_on_c, 0, 67, 96
2, 11612, Control_c, 0, 64, 0
2, 11653, Note_on_c, 0, 76, 0
2, 11655, Note_on_c, 0, 74, 99
2, 11655, Note_on_c, 0, 65, 94
2, 11656, Note_on_c, 0, 67, 0
2, 11657, Note_on_c, 0, 36, 86
2, 11659, Note_on_c, 0, 48, 79
2, 11677, Control_c, 0, 64, 127
2, 11744, Note_on_c, 0, 65, 0
2, 11744, Note_on_c, 0, 74, 0
2, 11756, Note_on_c, 0, 76, 89
2, 11756, Note_on_c, 0, 67, 91
2, 11806, Note_on_c, 0, 36, 0
2, 11808, Note_on_c, 0, 48, 0
2, 11830, Note_on_c, 0, 76, 0
2, 11841, Note_on_c, 0, 72, 87
2, 11841, Note_on_c, 0, 64, 74
2, 11844, Note_on_c, 0, 60, 63
2, 11845, Note_on_c, 0, 67, 0
2, 11847, Note_on_c, 0, 55, 67
2, 11850, Note_on_c, 0, 48, 66
2, 11860, Control_c, 0, 64, 0
2, 12025, Note_on_c, 0, 60, 0
2, 12032, Note_on_c, 0, 55, 0
2, 12036, Note_on_c, 0, 72, 0
2, 12036, Note_on_c, 0, 64, 0
2, 12046, Note_on_c, 0, 48, 0
2, 12209, Note_on_c, 0, 38, 121
2, 12233, Note_on_c, 0, 38, 0
2, 12237, Note_on_c, 0, 50, 127
2, 12239, Note_on_c, 0, 62, 127
2, 12246, Control_c, 0, 64, 127
2, 12429, Note_on_c, 0, 69, 99
2, 12429, Note_on_c, 0, 66, 88
2, 12429, Note_on_c, 0, 60, 87
2, 12464, Note_on_c, 0, 66, 0
2, 12467, Note_on_c, 0, 69, 0
2, 12472, Note_on_c, 0, 60, 0
2, 12480, Note_on_c, 0, 67, 88
2, 12483, Note_on_c, 0, 71, 92
2, 12483, Note_on_c, 0, 59, 71
2, 12509, Note_on_c, 0, 67, 0
2, 12512, Note_on_c, 0, 71, 0
2, 12516, Note_on_c, 0, 59, 0
2, 12542, Note_on_c, 0, 57, 99
2, 12542, Note_on_c, 0, 69, 85
2, 12542, Note_on_c, 0, 72, 82
2, 12571, Note_on_c, 0, 72, 0
2, 12571, Note_on_c, 0, 69, 0
2, 12598, Note_on_c, 0, 67, 87
2, 12598, Note_on_c, 0, 59, 85
2, 12600, Note_on_c, 0, 71, 94
2, 12601, Note_on_c, 0, 57, 0
2, 12629, Note_on_c, 0, 67, 0
2, 12642, Note_on_c, 0, 71, 0
2, 12651, Note_on_c, 0, 69, 92
2, 12651, Note_on_c, 0, 72, 96
2, 12651, Note_on_c, 0, 59, 0
2, 12652, Note_on_c, 0, 57, 80
2, 12694, Note_on_c, 0, 57, 0
2, 12710, Note_on_c, 0, 72, 0
2, 12710, Note_on_c, 0, 69, 0
2, 12711, Control_c, 0, 64, 0
2, 12711, Note_on_c, 0, 55, 87
2, 12712, Note_on_c, 0, 74, 87
2, 12713, Note_on_c, 0, 71, 87
2, 12727, Control_c, 0, 64, 127
2, 12770, Note_on_c, 0, 55, 0
2, 12771, Note_on_c, 0, 74, 0
2, 12772, Note_on_c, 0, 71, 0
2, 12824, Note_on_c, 0, 61, 103
2, 12826, Note_on_c, 0, 70, 99
2, 12827, Note_on_c, 0, 76, 102
2, 12827, Note_on_c, 0, 67, 89
2, 12834, Control_c, 0, 64, 0
2, 12849, Control_c, 0, 64, 127
2, 12858, Note_on_c, 0, 67, 0
2, 12858, Note_on_c, 0, 61, 0
2, 12868, Note_on_c, 0, 62, 0
2, 12869, Note_on_c, 0, 70, 0
2, 12881, Note_on_c, 0, 50, 0
2, 12886, Note_on_c, 0, 76, 0
2, 12932, Note_on_c, 0, 38, 120
2, 12956, Note_on_c, 0, 62, 120
2, 12957, Note_on_c, 0, 50, 127
2, 12960, Note_on_c, 0, 38, 0
2, 12966, Control_c, 0, 64, 0
2, 13080, Control_c, 0, 64, 127
2, 13150, Note_on_c, 0, 69, 96
2, 13150, Note_on_c, 0, 66, 91
2, 13153, Note_on_c, 0, 60, 91
2, 13203, Control_c, 0, 64, 0
2, 13205, Note_on_c, 0, 59, 83
2, 13205, Note_on_c, 0, 71, 78
2, 13207, Note_on_c, 0, 67, 94
2, 13209, Note_on_c, 0, 66, 0
2, 13209, Note_on_c, 0, 69, 0
2, 13212, Control_c, 0, 64, 127
2, 13212, Note_on_c, 0, 60, 0
2, 13261, Note_on_c, 0, 57, 87
2, 13263, Note_on_c, 0, 72, 74
2, 13263, Note_on_c, 0, 69, 80
2, 13264, Note_on_c, 0, 59, 0
2, 13264, Note_on_c, 0, 71, 0
2, 13266, Note_on_c, 0, 67, 0
2, 13320, Note_on_c, 0, 57, 0
2, 13322, Note_on_c, 0, 72, 0
2, 13322, Note_on_c, 0, 69, 0
2, 13327, Note_on_c, 0, 71, 84
2, 13327, Note_on_c, 0, 55, 87
2, 13329, Note_on_c, 0, 67, 89
2, 13334, Control_c, 0, 64, 0
2, 13366, Control_c, 0, 64, 127
2, 13377, Note_on_c, 0, 69, 100
2, 13380, Note_on_c, 0, 66, 99
2, 13381, Note_on_c, 0, 57, 87
2, 13386, Note_on_c, 0, 55, 0
2, 13386, Note_on_c, 0, 71, 0
2, 13388, Note_on_c, 0, 67, 0
2, 13436, Note_on_c, 0, 69, 0
2, 13439, Note_on_c, 0, 66, 0
2, 13440, Note_on_c, 0, 57, 0
2, 13450, Note_on_c, 0, 67, 86
2, 13450, Note_on_c, 0, 64, 79
2, 13451, Note_on_c, 0, 58, 80
2, 13459, Control_c, 0, 64, 0
2, 13490, Control_c, 0, 64, 127
2, 13503, Note_on_c, 0, 50, 0
2, 13578, Note_on_c, 0, 58, 0
2, 13579, Note_on_c, 0, 62, 0
2, 13581, Note_on_c, 0, 55, 84
2, 13582, Note_on_c, 0, 61, 101
2, 13588, Control_c, 0, 64, 0
2, 13670, Note_on_c, 0, 55, 0
2, 13689, Note_on_c, 0, 64, 0
2, 13689, Note_on_c, 0, 67, 0
2, 13690, Note_on_c, 0, 61, 0
2, 13700, Note_on_c, 0, 38, 122
2, 13710, Control_c, 0, 64, 127
2, 13713, Note_on_c, 0, 62, 126
2, 13716, Note_on_c, 0, 50, 126
2, 13718, Note_on_c, 0, 38, 0
2, 13893, Note_on_c, 0, 60, 99
2, 13894, Note_on_c, 0, 69, 95
2, 13894, Note_on_c, 0, 66, 101
2, 13912, Control_c, 0, 64, 0
2, 13943, Note_on_c, 0, 60, 0
2, 13946, Note_on_c, 0, 71, 92
2, 13951, Note_on_c, 0, 67, 77
2, 13953, Note_on_c, 0, 69, 0
2, 13953, Note_on_c, 0, 66, 0
2, 13954, Note_on_c, 0, 59, 70
2, 13991, Note_on_c, 0, 67, 0
2, 13992, Note_on_c, 0, 71, 0
2, 13992, Note_on_c, 0, 59, 0
2, 14005, Note_on_c, 0, 57, 79
2, 14007, Note_on_c, 0, 72, 96
2, 14007, Note_on_c, 0, 69, 77
2, 14048, Note_on_c, 0, 57, 0
2, 14059, Note_on_c, 0, 59, 89
2, 14063, Note_on_c, 0, 71, 99
2, 14063, Note_on_c, 0, 67, 82
2, 14064, Note_on_c, 0, 72, 0
2, 14066, Note_on_c, 0, 69, 0
2, 14106, Note_on_c, 0, 67, 0
2, 14108, Note_on_c, 0, 59, 0
2, 14110, Note_on_c, 0, 69, 100
2, 14113, Note_on_c, 0, 72, 95
2, 14114, Note_on_c, 0, 57, 94
2, 14122, Note_on_c, 0, 71, 0
2, 14169, Note_on_c, 0, 69, 0
2, 14171, Note_on_c, 0, 57, 0
2, 14172, Note_on_c, 0, 72, 0
2, 14174, Note_on_c, 0, 55, 93
2, 14177, Note_on_c, 0, 71, 84
2, 14179, Note_on_c, 0, 74, 80
2, 14230, Note_on_c, 0, 55, 0
2, 14266, Note_on_c, 0, 71, 0
2, 14268, Note_on_c, 0, 74, 0
2, 14282, Note_on_c, 0, 62, 0
2, 14290, Note_on_c, 0, 61, 81
2, 14293, Note_on_c, 0, 76, 84
2, 14293, Note_on_c, 0, 70, 85
2, 14293, Note_on_c, 0, 67, 68
2, 14312, Control_c, 0, 64, 127
2, 14330, Note_on_c, 0, 50, 0
2, 14349, Note_on_c, 0, 70, 0
2, 14349, Note_on_c, 0, 61, 0
2, 14352, Note_on_c, 0, 76, 0
2, 14352, Note_on_c, 0, 67, 0
2, 14395, Note_on_c, 0, 38, 108
2, 14407, Note_on_c, 0, 62, 125
2, 14408, Note_on_c, 0, 50, 125
2, 14424, Note_on_c, 0, 38, 0
2, 14589, Note_on_c, 0, 66, 101
2, 14592, Note_on_c, 0, 69, 100
2, 14594, Note_on_c, 0, 60, 82
2, 14618, Note_on_c, 0, 66, 0
2, 14640, Note_on_c, 0, 69, 0
2, 14645, Note_on_c, 0, 60, 0
2, 14648, Note_on_c, 0, 71, 95
2, 14649, Note_on_c, 0, 67, 105
2, 14653, Note_on_c, 0, 59, 87
2, 14686, Note_on_c, 0, 67, 0
2, 14688, Note_on_c, 0, 71, 0
2, 14693, Note_on_c, 0, 59, 0
2, 14706, Note_on_c, 0, 72, 103
2, 14706, Note_on_c, 0, 57, 81
2, 14707, Note_on_c, 0, 69, 86
2, 14736, Note_on_c, 0, 62, 0
2, 14744, Note_on_c, 0, 57, 0
2, 14758, Note_on_c, 0, 69, 0
2, 14759, Note_on_c, 0, 72, 0
2, 14761, Note_on_c, 0, 71, 101
2, 14763, Note_on_c, 0, 65, 102
2, 14766, Note_on_c, 0, 62, 98
2, 14813, Note_on_c, 0, 62, 0
2, 14816, Note_on_c, 0, 57, 82
2, 14819, Note_on_c, 0, 72, 115
2, 14824, Note_on_c, 0, 71, 0
2, 14888, Note_on_c, 0, 72, 0
2, 14891, Note_on_c, 0, 74, 104
2, 14893, Note_on_c, 0, 57, 0
2, 14900, Note_on_c, 0, 59, 53
2, 14904, Note_on_c, 0, 65, 0
2, 15022, Note_on_c, 0, 67, 104
2, 15022, Note_on_c, 0, 57, 57
2, 15027, Note_on_c, 0, 59, 0
2, 15036, Note_on_c, 0, 74, 0
2, 15055, Control_c, 0, 64, 127
2, 15081, Note_on_c, 0, 67, 0
2, 15103, Note_on_c, 0, 67, 104
2, 15123, Note_on_c, 0, 50, 0
2, 15129, Note_on_c, 0, 76, 107
2, 15130, Control_c, 0, 7, 91
2, 15131, Note_on_c, 0, 48, 92
2, 15132, Note_on_c, 0, 67, 0
2, 15135, Control_c, 0, 64, 127
2, 15141, Note_on_c, 0, 57, 0
2, 15251, Note_on_c, 0, 55, 87
2, 15254, Note_on_c, 0, 64, 72
2, 15261, Note_on_c, 0, 55, 0
2, 15265, Note_on_c, 0, 64, 0
2, 15307, Note_on_c, 0, 75, 106
2, 15307, Note_on_c, 0, 76, 0
2, 15360, Note_on_c, 0, 64, 92
2, 15362, Note_on_c, 0, 55, 80
2, 15362, Note_on_c, 0, 77, 99
2, 15362, Note_on_c, 0, 75, 0
2, 15365, Control_c, 0, 64, 0
2, 15379, Note_on_c, 0, 55, 0
2, 15380, Note_on_c, 0, 64, 0
2, 15400, Note_on_c, 0, 48, 0
2, 15417, Note_on_c, 0, 76, 109
2, 15422, Note_on_c, 0, 77, 0
2, 15477, Note_on_c, 0, 76, 0
2, 15478, Note_on_c, 0, 74, 101
2, 15483, Note_on_c, 0, 48, 82
2, 15483, Control_c, 0, 64, 127
2, 15541, Note_on_c, 0, 73, 106
2, 15541, Note_on_c, 0, 74, 0
2, 15591, Note_on_c, 0, 57, 83
2, 15594, Note_on_c, 0, 62, 78
2, 15594, Note_on_c, 0, 73, 0
2, 15596, Note_on_c, 0, 76, 97
2, 15596, Note_on_c, 0, 54, 76
2, 15605, Control_c, 0, 64, 0
2, 15610, Note_on_c, 0, 57, 0
2, 15614, Note_on_c, 0, 54, 0
2, 15618, Note_on_c, 0, 62, 0
2, 15710, Note_on_c, 0, 76, 0
2, 15713, Note_on_c, 0, 54, 73
2, 15717, Note_on_c, 0, 74, 89
2, 15718, Note_on_c, 0, 57, 74
2, 15719, Note_on_c, 0, 62, 68
2, 15740, Note_on_c, 0, 62, 0
2, 15751, Note_on_c, 0, 57, 0
2, 15752, Note_on_c, 0, 48, 0
2, 15754, Note_on_c, 0, 54, 0
2, 15755, Note_on_c, 0, 74, 0
2, 15848, Note_on_c, 0, 74, 99
2, 15849, Note_on_c, 0, 48, 92
2, 15863, Control_c, 0, 64, 127
2, 15963, Note_on_c, 0, 59, 63
2, 15963, Note_on_c, 0, 62, 90
2, 15971, Note_on_c, 0, 56, 73
2, 15980, Note_on_c, 0, 56, 0
2, 15980, Note_on_c, 0, 59, 0
2, 15980, Note_on_c, 0, 62, 0
2, 16016, Note_on_c, 0, 74, 0
2, 16023, Note_on_c, 0, 73, 110
2, 16070, Note_on_c, 0, 56, 86
2, 16076, Note_on_c, 0, 76, 106
2, 16076, Note_on_c, 0, 53, 91
2, 16079, Note_on_c, 0, 62, 65
2, 16080, Note_on_c, 0, 73, 0
2, 16082, Note_on_c, 0, 59, 64
2, 16093, Note_on_c, 0, 59, 0
2, 16094, Control_c, 0, 64, 0
2, 16094, Note_on_c, 0, 62, 0
2, 16096, Note_on_c, 0, 56, 0
2, 16100, Note_on_c, 0, 53, 0
2, 16118, Note_on_c, 0, 48, 0
2, 16132, Note_on_c, 0, 74, 112
2, 16140, Note_on_c, 0, 76, 0
2, 16163, Note_on_c, 0, 74, 0
2, 16188, Note_on_c, 0, 48, 85
2, 16190, Control_c, 0, 64, 127
2, 16192, Note_on_c, 0, 72, 80
2, 16202, Note_on_c, 0, 72, 0
2, 16208, Note_on_c, 0, 74, 101
2, 16232, Note_on_c, 0, 72, 91
2, 16232, Note_on_c, 0, 74, 0
2, 16255, Note_on_c, 0, 72, 0
2, 16256, Note_on_c, 0, 71, 103
2, 16307, Note_on_c, 0, 71, 0
2, 16309, Note_on_c, 0, 74, 92
2, 16310, Control_c, 0, 64, 0
2, 16311, Note_on_c, 0, 52, 83
2, 16311, Note_on_c, 0, 60, 74
2, 16314, Note_on_c, 0, 55, 66
2, 16323, Note_on_c, 0, 60, 0
2, 16323, Note_on_c, 0, 52, 0
2, 16324, Note_on_c, 0, 55, 0
2, 16429, Note_on_c, 0, 74, 0
2, 16432, Note_on_c, 0, 60, 67
2, 16432, Note_on_c, 0, 72, 80
2, 16434, Note_on_c, 0, 52, 77
2, 16436, Note_on_c, 0, 55, 75
2, 16456, Note_on_c, 0, 60, 0
2, 16462, Note_on_c, 0, 72, 0
2, 16467, Note_on_c, 0, 55, 0
2, 16481, Note_on_c, 0, 52, 0
2, 16487, Note_on_c, 0, 48, 0
2, 16564, Note_on_c, 0, 42, 87
2, 16564, Note_on_c, 0, 69, 100
2, 16569, Control_c, 0, 64, 127
2, 16680, Note_on_c, 0, 57, 92
2, 16682, Note_on_c, 0, 60, 92
2, 16683, Note_on_c, 0, 50, 92
2, 16720, Note_on_c, 0, 69, 0
2, 16737, Note_on_c, 0, 68, 109
2, 16739, Note_on_c, 0, 57, 0
2, 16741, Note_on_c, 0, 60, 0
2, 16742, Note_on_c, 0, 50, 0
2, 16791, Note_on_c, 0, 71, 104
2, 16795, Note_on_c, 0, 68, 0
2, 16800, Control_c, 0, 64, 0
2, 16848, Note_on_c, 0, 69, 112
2, 16852, Note_on_c, 0, 71, 0
2, 16863, Note_on_c, 0, 42, 0
2, 16903, Note_on_c, 0, 69, 0
2, 16907, Control_c, 0, 64, 127
2, 16907, Note_on_c, 0, 67, 109
2, 16909, Note_on_c, 0, 43, 94
2, 16952, Note_on_c, 0, 67, 0
2, 16996, Note_on_c, 0, 72, 105
2, 17018, Note_on_c, 0, 60, 85
2, 17021, Note_on_c, 0, 55, 91
2, 17021, Note_on_c, 0, 52, 92
2, 17021, Note_on_c, 0, 76, 119
2, 17026, Note_on_c, 0, 72, 0
2, 17031, Control_c, 0, 64, 0
2, 17031, Note_on_c, 0, 55, 0
2, 17035, Note_on_c, 0, 52, 0
2, 17043, Note_on_c, 0, 60, 0
2, 17148, Note_on_c, 0, 60, 83
2, 17151, Note_on_c, 0, 55, 81
2, 17152, Note_on_c, 0, 52, 80
2, 17171, Note_on_c, 0, 60, 0
2, 17176, Note_on_c, 0, 55, 0
2, 17184, Note_on_c, 0, 52, 0
2, 17233, Note_on_c, 0, 76, 0
2, 17238, Note_on_c, 0, 43, 0
2, 17255, Control_c, 0, 64, 127
2, 17265, Note_on_c, 0, 43, 87
2, 17319, Note_on_c, 0, 74, 100
2, 17330, Note_on_c, 0, 74, 0
2, 17342, Note_on_c, 0, 76, 94
2, 17363, Note_on_c, 0, 74, 100
2, 17365, Note_on_c, 0, 76, 0
2, 17377, Note_on_c, 0, 59, 73
2, 17378, Note_on_c, 0, 53, 92
2, 17379, Note_on_c, 0, 55, 83
2, 17382, Note_on_c, 0, 73, 127
2, 17388, Note_on_c, 0, 74, 0
2, 17389, Note_on_c, 0, 55, 0
2, 17391, Note_on_c, 0, 53, 0
2, 17392, Note_on_c, 0, 59, 0
2, 17416, Control_c, 0, 64, 0
2, 17431, Note_on_c, 0, 74, 123
2, 17436, Note_on_c, 0, 73, 0
2, 17488, Note_on_c, 0, 76, 122
2, 17491, Note_on_c, 0, 59, 92
2, 17491, Note_on_c, 0, 53, 98
2, 17493, Note_on_c, 0, 55, 87
2, 17500, Note_on_c, 0, 74, 0
2, 17506, Note_on_c, 0, 55, 0
2, 17507, Note_on_c, 0, 59, 0
2, 17514, Note_on_c, 0, 53, 0
2, 17543, Note_on_c, 0, 77, 127
2, 17556, Note_on_c, 0, 76, 0
2, 17594, Note_on_c, 0, 43, 0
2, 17610, Note_on_c, 0, 81, 111
2, 17614, Note_on_c, 0, 48, 93
2, 17618, Note_on_c, 0, 77, 0
2, 17626, Control_c, 0, 64, 127
2, 17737, Note_on_c, 0, 63, 82
2, 17739, Note_on_c, 0, 54, 81
2, 17760, Control_c, 0, 64, 0
2, 17856, Note_on_c, 0, 63, 0
2, 17858, Note_on_c, 0, 54, 0
2, 17869, Note_on_c, 0, 79, 86
2, 17874, Note_on_c, 0, 64, 72
2, 17876, Note_on_c, 0, 55, 73
2, 17880, Note_on_c, 0, 81, 0
2, 17913, Note_on_c, 0, 48, 0
2, 17924, Note_on_c, 0, 55, 0
2, 17928, Note_on_c, 0, 79, 0
2, 17933, Note_on_c, 0, 64, 0
2, 18001, Note_on_c, 0, 76, 106
2, 18001, Note_on_c, 0, 67, 104
2, 18005, Note_on_c, 0, 48, 92
2, 18010, Control_c, 0, 7, 115
2, 18019, Control_c, 0, 64, 127
2, 18122, Note_on_c, 0, 55, 89
2, 18122, Note_on_c, 0, 64, 100
2, 18134, Note_on_c, 0, 64, 0
2, 18136, Note_on_c, 0, 55, 0
2, 18173, Note_on_c, 0, 66, 105
2, 18175, Note_on_c, 0, 75, 106
2, 18180, Note_on_c, 0, 76, 0
2, 18180, Note_on_c, 0, 67, 0
2, 18231, Note_on_c, 0, 55, 97
2, 18231, Note_on_c, 0, 77, 112
2, 18232, Note_on_c, 0, 66, 0
2, 18234, Note_on_c, 0, 64, 97
2, 18234, Note_on_c, 0, 75, 0
2, 18235, Note_on_c, 0, 69, 107
2, 18244, Note_on_c, 0, 64, 0
2, 18245, Note_on_c, 0, 55, 0
2, 18274, Note_on_c, 0, 48, 0
2, 18285, Note_on_c, 0, 67, 114
2, 18286, Note_on_c, 0, 76, 110
2, 18290, Note_on_c, 0, 77, 0
2, 18294, Note_on_c, 0, 69, 0
2, 18344, Note_on_c, 0, 67, 0
2, 18345, Note_on_c, 0, 76, 0
2, 18351, Note_on_c, 0, 74, 104
2, 18351, Note_on_c, 0, 66, 108
2, 18358, Note_on_c, 0, 48, 84
2, 18358, Control_c, 0, 64, 0
2, 18372, Note_on_c, 0, 76, 80
2, 18377, Control_c, 0, 64, 127
2, 18380, Note_on_c, 0, 74, 0
2, 18390, Note_on_c, 0, 74, 80
2, 18401, Note_on_c, 0, 76, 0
2, 18404, Note_on_c, 0, 73, 95
2, 18410, Note_on_c, 0, 66, 0
2, 18412, Note_on_c, 0, 64, 95
2, 18419, Note_on_c, 0, 74, 0
2, 18466, Note_on_c, 0, 54, 83
2, 18469, Note_on_c, 0, 76, 97
2, 18469, Note_on_c, 0, 57, 79
2, 18470, Note_on_c, 0, 62, 82
2, 18471, Note_on_c, 0, 67, 83
2, 18471, Note_on_c, 0, 64, 0
2, 18483, Note_on_c, 0, 57, 0
2, 18484, Note_on_c, 0, 54, 0
2, 18484, Note_on_c, 0, 62, 0
2, 18485, Control_c, 0, 64, 0
2, 18493, Note_on_c, 0, 73, 0
2, 18567, Note_on_c, 0, 76, 0
2, 18587, Note_on_c, 0, 74, 93
2, 18587, Note_on_c, 0, 66, 86
2, 18590, Note_on_c, 0, 67, 0
2, 18595, Note_on_c, 0, 54, 71
2, 18595, Note_on_c, 0, 62, 64
2, 18597, Note_on_c, 0, 57, 78
2, 18610, Note_on_c, 0, 62, 0
2, 18612, Note_on_c, 0, 57, 0
2, 18622, Note_on_c, 0, 54, 0
2, 18627, Note_on_c, 0, 48, 0
2, 18646, Note_on_c, 0, 74, 0
2, 18646, Note_on_c, 0, 66, 0
2, 18711, Note_on_c, 0, 74, 109
2, 18714, Note_on_c, 0, 65, 109
2, 18714, Note_on_c, 0, 48, 96
2, 18729, Control_c, 0, 64, 127
2, 18850, Note_on_c, 0, 53, 86
2, 18851, Note_on_c, 0, 62, 85
2, 18851, Note_on_c, 0, 56, 88
2, 18852, Note_on_c, 0, 59, 76
2, 18860, Note_on_c, 0, 74, 0
2, 18861, Note_on_c, 0, 53, 0
2, 18863, Note_on_c, 0, 56, 0
2, 18863, Note_on_c, 0, 65, 0
2, 18863, Note_on_c, 0, 59, 0
2, 18865, Note_on_c, 0, 62, 0
2, 18892, Note_on_c, 0, 73, 101
2, 18894, Note_on_c, 0, 64, 98
2, 18950, Note_on_c, 0, 76, 102
2, 18951, Note_on_c, 0, 73, 0
2, 18953, Note_on_c, 0, 67, 96
2, 18953, Note_on_c, 0, 64, 0
2, 18957, Note_on_c, 0, 62, 89
2, 18958, Note_on_c, 0, 53, 83
2, 18958, Note_on_c, 0, 56, 79
2, 18963, Note_on_c, 0, 59, 71
2, 18967, Note_on_c, 0, 62, 0
2, 18972, Note_on_c, 0, 56, 0
2, 18972, Note_on_c, 0, 53, 0
2, 18972, Note_on_c, 0, 59, 0
2, 18983, Note_on_c, 0, 48, 0
2, 18998, Control_c, 0, 64, 0
2, 19009, Note_on_c, 0, 76, 0
2, 19011, Note_on_c, 0, 74, 87
2, 19011, Note_on_c, 0, 65, 98
2, 19012, Note_on_c, 0, 67, 0
2, 19066, Note_on_c, 0, 48, 86
2, 19067, Note_on_c, 0, 64, 100
2, 19070, Note_on_c, 0, 72, 84
2, 19070, Note_on_c, 0, 65, 0
2, 19070, Note_on_c, 0, 74, 0
2, 19085, Control_c, 0, 64, 127
2, 19092, Note_on_c, 0, 74, 84
2, 19099, Note_on_c, 0, 72, 0
2, 19110, Note_on_c, 0, 72, 84
2, 19121, Note_on_c, 0, 74, 0
2, 19124, Note_on_c, 0, 63, 106
2, 19124, Note_on_c, 0, 71, 89
2, 19126, Note_on_c, 0, 64, 0
2, 19139, Note_on_c, 0, 72, 0
2, 19183, Note_on_c, 0, 63, 0
2, 19183, Note_on_c, 0, 71, 0
2, 19188, Note_on_c, 0, 74, 89
2, 19190, Note_on_c, 0, 65, 89
2, 19193, Note_on_c, 0, 52, 80
2, 19193, Note_on_c, 0, 55, 64
2, 19198, Note_on_c, 0, 60, 66
2, 19207, Note_on_c, 0, 52, 0
2, 19208, Note_on_c, 0, 55, 0
2, 19208, Note_on_c, 0, 60, 0
2, 19216, Control_c, 0, 64, 0
2, 19309, Note_on_c, 0, 65, 0
2, 19311, Note_on_c, 0, 72, 92
2, 19313, Note_on_c, 0, 74, 0
2, 19316, Note_on_c, 0, 60, 70
2, 19316, Note_on_c, 0, 52, 79
2, 19317, Note_on_c, 0, 64, 59
2, 19320, Note_on_c, 0, 55, 73
2, 19330, Note_on_c, 0, 60, 0
2, 19335, Note_on_c, 0, 48, 0
2, 19335, Note_on_c, 0, 55, 0
2, 19350, Note_on_c, 0, 52, 0
2, 19370, Note_on_c, 0, 72, 0
2, 19376, Note_on_c, 0, 64, 0
2, 19438, Note_on_c, 0, 41, 100
2, 19438, Note_on_c, 0, 65, 93
2, 19440, Note_on_c, 0, 69, 95
2, 19453, Control_c, 0, 64, 127
2, 19457, Note_on_c, 0, 71, 96
2, 19469, Note_on_c, 0, 69, 0
2, 19486, Note_on_c, 0, 69, 101
2, 19486, Note_on_c, 0, 71, 0
2, 19527, Note_on_c, 0, 41, 0
2, 19553, Note_on_c, 0, 60, 81
2, 19555, Note_on_c, 0, 53, 86
2, 19555, Note_on_c, 0, 57, 84
2, 19605, Note_on_c, 0, 69, 0
2, 19608, Note_on_c, 0, 68, 100
2, 19611, Note_on_c, 0, 64, 100
2, 19612, Note_on_c, 0, 60, 0
2, 19617, Note_on_c, 0, 65, 0
2, 19618, Note_on_c, 0, 57, 0
2, 19619, Note_on_c, 0, 53, 0
2, 19664, Note_on_c, 0, 71, 95
2, 19664, Note_on_c, 0, 60, 80
2, 19664, Note_on_c, 0, 57, 83
2, 19664, Note_on_c, 0, 53, 84
2, 19667, Note_on_c, 0, 68, 0
2, 19668, Note_on_c, 0, 67, 101
2, 19670, Note_on_c, 0, 64, 0
2, 19699, Control_c, 0, 64, 0
2, 19721, Note_on_c, 0, 69, 104
2, 19721, Note_on_c, 0, 65, 98
2, 19721, Note_on_c, 0, 71, 0
2, 19723, Note_on_c, 0, 53, 0
2, 19723, Note_on_c, 0, 60, 0
2, 19723, Note_on_c, 0, 57, 0
2, 19727, Note_on_c, 0, 67, 0
2, 19780, Note_on_c, 0, 65, 0
2, 19782, Note_on_c, 0, 69, 0
2, 19787, Note_on_c, 0, 67, 108
2, 19787, Note_on_c, 0, 64, 107
2, 19793, Note_on_c, 0, 43, 107
2, 19796, Control_c, 0, 64, 127
2, 19846, Note_on_c, 0, 64, 0
2, 19846, Note_on_c, 0, 67, 0
2, 19867, Note_on_c, 0, 72, 95
2, 19882, Note_on_c, 0, 43, 0
2, 19909, Note_on_c, 0, 67, 96
2, 19912, Note_on_c, 0, 76, 110
2, 19914, Note_on_c, 0, 60, 89
2, 19917, Note_on_c, 0, 52, 89
2, 19926, Note_on_c, 0, 72, 0
2, 19927, Note_on_c, 0, 60, 0
2, 19927, Note_on_c, 0, 52, 0
2, 19937, Control_c, 0, 64, 0
2, 20036, Note_on_c, 0, 52, 96
2, 20039, Note_on_c, 0, 60, 93
2, 20049, Note_on_c, 0, 60, 0
2, 20058, Note_on_c, 0, 52, 0
2, 20060, Note_on_c, 0, 67, 0
2, 20065, Note_on_c, 0, 76, 0
2, 20154, Note_on_c, 0, 43, 94
2, 20157, Control_c, 0, 64, 127
2, 20196, Note_on_c, 0, 74, 95
2, 20206, Note_on_c, 0, 74, 0
2, 20220, Note_on_c, 0, 76, 99
2, 20235, Note_on_c, 0, 76, 0
2, 20242, Note_on_c, 0, 74, 92
2, 20243, Note_on_c, 0, 43, 0
2, 20263, Note_on_c, 0, 73, 115
2, 20265, Note_on_c, 0, 74, 0
2, 20267, Note_on_c, 0, 50, 98
2, 20267, Note_on_c, 0, 59, 92
2, 20270, Note_on_c, 0, 64, 105
2, 20270, Note_on_c, 0, 55, 93
2, 20277, Note_on_c, 0, 59, 0
2, 20277, Note_on_c, 0, 50, 0
2, 20279, Note_on_c, 0, 55, 0
2, 20281, Note_on_c, 0, 64, 0
2, 20307, Control_c, 0, 64, 0
2, 20319, Note_on_c, 0, 73, 0
2, 20326, Note_on_c, 0, 74, 110
2, 20332, Note_on_c, 0, 65, 97
2, 20342, Note_on_c, 0, 65, 0
2, 20350, Note_on_c, 0, 74, 0
2, 20389, Note_on_c, 0, 77, 100
2, 20389, Note_on_c, 0, 69, 100
2, 20389, Note_on_c, 0, 59, 100
2, 20389, Note_on_c, 0, 55, 100
2, 20389, Note_on_c, 0, 50, 100
2, 20413, Note_on_c, 0, 55, 0
2, 20415, Note_on_c, 0, 59, 0
2, 20420, Note_on_c, 0, 50, 0
2, 20448, Note_on_c, 0, 77, 0
2, 20478, Note_on_c, 0, 69, 0
2, 20479, Note_on_c, 0, 76, 98
2, 20529, Note_on_c, 0, 76, 0
2, 20539, Note_on_c, 0, 48, 95
2, 20539, Note_on_c, 0, 74, 95
2, 20543, Note_on_c, 0, 65, 95
2, 20544, Note_on_c, 0, 36, 99
2, 20550, Control_c, 0, 64, 127
2, 20628, Note_on_c, 0, 48, 0
2, 20633, Note_on_c, 0, 36, 0
2, 20649, Note_on_c, 0, 76, 94
2, 20649, Note_on_c, 0, 67, 94
2, 20658, Note_on_c, 0, 74, 0
2, 20662, Note_on_c, 0, 65, 0
2, 20678, Note_on_c, 0, 76, 0
2, 20678, Note_on_c, 0, 67, 0
2, 20694, Note_on_c, 0, 64, 90
2, 20698, Note_on_c, 0, 72, 88
2, 20699, Note_on_c, 0, 55, 88
2, 20700, Note_on_c, 0, 60, 88
2, 20700, Note_on_c, 0, 48, 88
2, 20714, Control_c, 0, 64, 0
2, 20873, Note_on_c, 0, 64, 0
2, 20877, Note_on_c, 0, 72, 0
2, 20878, Note_on_c, 0, 55, 0
2, 20879, Note_on_c, 0, 60, 0
2, 20879, Note_on_c, 0, 48, 0
2, 20879, End_track
3, 0, Start_track
3, 0, MIDI_port, 0
3, 0, Title_t, "Creative Labs Inc."
3, 0, End_track
4, 0, Start_track
4, 0, MIDI_port, 0
4, 0, Title_t, "(c) 1994"
4, 0, End_track
5, 0, Start_track
5, 0, MIDI_port, 0
5, 0, Title_t, "Performed by Dr. Chew"
5, 0, End_track
6, 0, Start_track
6, 0, MIDI_port, 0
6, 0, Title_t, "Chopin "
6, 0, End_track
7, 0, Start_track
7, 0, MIDI_port, 0
7, 0, Title_t, "Mazurka Op 67 no.3"
7, 0, End_track
0, 0, End_of_file