0, 0, Header, 1, 4, 48
1, 0, Start_track
1, 0, Tempo, 500000
1, 0, Time_signature, 4, 2, 24, 8
1, 0, Key_signature, 6, "major"
1, 0, Title_t, "F.F.Chopin  Nocturne No.5 in F-sharp major Op.15-2"
1, 0, Text_t, "CVS Ver5.05 Created"
1, 144, Tempo, 1395348
1, 180, Tempo, 1935483
1, 192, Tempo, 1034482
1, 216, Tempo, 769230
1, 240, Tempo, 821917
1, 264, Tempo, 845070
1, 288, Tempo, 923076
1, 336, Tempo, 1034482
1, 384, Tempo, 895522
1, 432, Tempo, 750000
1, 444, Tempo, 800000
1, 468, Tempo, 923076
1, 480, Tempo, 1000000
1, 528, Tempo, 983606
1, 564, Tempo, 1304347
1, 576, Tempo, 869565
1, 600, Tempo, 631578
1, 624, Tempo, 923076
1, 640, Tempo, 681818
1, 656, Tempo, 750000
1, 672, Tempo, 895522
1, 720, Tempo, 1071428
1, 768, Tempo, 952380
1, 816, Tempo, 1000000
1, 826, Tempo, 800000
1, 836, Tempo, 895522
1, 845, Tempo, 789473
1, 854, Tempo, 895522
1, 864, Tempo, 1034482
1, 912, Tempo, 800000
1, 948, Tempo, 1200000
1, 960, Tempo, 845070
1, 984, Tempo, 714285
1, 1008, Tempo, 769230
1, 1032, Tempo, 821917
1, 1056, Tempo, 869565
1, 1104, Tempo, 952380
1, 1152, Tempo, 923076
1, 1200, Tempo, 952380
1, 1248, Tempo, 869565
1, 1272, Tempo, 845070
1, 1296, Tempo, 821917
1, 1320, Tempo, 1000000
1, 1344, Tempo, 845070
1, 1392, Tempo, 983606
1, 1428, Tempo, 1000000
1, 1440, Tempo, 2000000
1, 1444, Tempo, 1250000
1, 1448, Tempo, 1153846
1, 1452, Tempo, 1111111
1, 1456, Tempo, 1071428
1, 1460, Tempo, 869565
1, 1464, Tempo, 845070
1, 1472, Tempo, 750000
1, 1480, Tempo, 1395348
1, 1488, Tempo, 952380
1, 1512, Tempo, 1071428
1, 1524, Tempo, 1333333
1, 1536, Tempo, 1071428
1, 1620, Tempo, 1714285
1, 1632, Tempo, 1538461
1, 1668, Tempo, 3000000
1, 1672, Tempo, 1538461
1, 1676, Tempo, 1621621
1, 1680, Tempo, 1153846
1, 1684, Tempo, 1111111
1, 1688, Tempo, 1621621
1, 1692, Tempo, 2500000
1, 1716, Tempo, 1538461
1, 1732, Tempo, 2000000
1, 1736, Tempo, 1818181
1, 1752, Tempo, 750000
1, 1776, Tempo, 983606
1, 1800, Tempo, 800000
1, 1824, Tempo, 923076
1, 1872, Tempo, 1111111
1, 1920, Tempo, 1000000
1, 1968, Tempo, 714285
1, 1980, Tempo, 845070
1, 1992, Tempo, 869565
1, 2004, Tempo, 1034482
1, 2016, Tempo, 923076
1, 2064, Tempo, 1333333
1, 2071, Tempo, 952380
1, 2078, Tempo, 714285
1, 2085, Tempo, 845070
1, 2091, Tempo, 789473
1, 2098, Tempo, 1153846
1, 2105, Tempo, 1304347
1, 2112, Tempo, 1333333
1, 2118, Tempo, 1200000
1, 2124, Tempo, 923076
1, 2130, Tempo, 845070
1, 2136, Tempo, 750000
1, 2148, Tempo, 666666
1, 2160, Tempo, 645161
1, 2181, Tempo, 750000
1, 2187, Tempo, 645161
1, 2194, Tempo, 659340
1, 2201, Tempo, 666666
1, 2208, Tempo, 1621621
1, 2213, Tempo, 895522
1, 2228, Tempo, 1000000
1, 2238, Tempo, 923076
1, 2244, Tempo, 1000000
1, 2250, Tempo, 1071428
1, 2263, Tempo, 869565
1, 2270, Tempo, 789473
1, 2284, Tempo, 1250000
1, 2291, Tempo, 2727272
1, 2298, Tempo, 1818181
1, 2304, Tempo, 821917
1, 2352, Tempo, 845070
1, 2361, Tempo, 731707
1, 2370, Tempo, 714285
1, 2379, Tempo, 2142857
1, 2388, Tempo, 2307692
1, 2394, Tempo, 2142857
1, 2400, Tempo, 869565
1, 2448, Tempo, 1818181
1, 2456, Tempo, 1153846
1, 2464, Tempo, 1071428
1, 2472, Tempo, 1200000
1, 2480, Tempo, 1935483
1, 2488, Tempo, 1818181
1, 2496, Tempo, 869565
1, 2520, Tempo, 566037
1, 2544, Tempo, 714285
1, 2560, Tempo, 594059
1, 2576, Tempo, 681818
1, 2592, Tempo, 714285
1, 2628, Tempo, 983606
1, 2640, Tempo, 1071428
1, 2648, Tempo, 750000
1, 2656, Tempo, 869565
1, 2664, Tempo, 750000
1, 2672, Tempo, 821917
1, 2680, Tempo, 1000000
1, 2688, Tempo, 1034482
1, 2704, Tempo, 789473
1, 2720, Tempo, 1250000
1, 2736, Tempo, 895522
1, 2784, Tempo, 1538461
1, 2796, Tempo, 1250000
1, 2808, Tempo, 845070
1, 2820, Tempo, 666666
1, 2832, Tempo, 750000
1, 2844, Tempo, 714285
1, 2856, Tempo, 1250000
1, 2864, Tempo, 1538461
1, 2872, Tempo, 1935483
1, 2880, Tempo, 869565
1, 2928, Tempo, 845070
1, 2964, Tempo, 1153846
1, 2976, Tempo, 1395348
1, 2980, Tempo, 1250000
1, 2984, Tempo, 1153846
1, 2988, Tempo, 1000000
1, 2996, Tempo, 1153846
1, 3000, Tempo, 869565
1, 3008, Tempo, 821917
1, 3016, Tempo, 1333333
1, 3024, Tempo, 1034482
1, 3048, Tempo, 1153846
1, 3060, Tempo, 1538461
1, 3072, Tempo, 1111111
1, 3120, Tempo, 1153846
1, 3168, Tempo, 1304347
1, 3216, Tempo, 952380
1, 3252, Tempo, 1200000
1, 3264, Tempo, 895522
1, 3312, Tempo, 869565
1, 3348, Tempo, 1071428
1, 3360, Tempo, 845070
1, 3408, Tempo, 1111111
1, 3456, Tempo, 869565
1, 3504, Tempo, 1200000
1, 3522, Tempo, 1304347
1, 3527, Tempo, 800000
1, 3532, Tempo, 895522
1, 3537, Tempo, 800000
1, 3542, Tempo, 895522
1, 3547, Tempo, 697674
1, 3552, Tempo, 869565
1, 3600, Tempo, 895522
1, 3696, Tempo, 952380
1, 3732, Tempo, 1000000
1, 3744, Tempo, 923076
1, 3776, Tempo, 845070
1, 3792, Tempo, 952380
1, 3808, Tempo, 1071428
1, 3840, Tempo, 845070
1, 3904, Tempo, 1538461
1, 3908, Tempo, 1395348
1, 3912, Tempo, 1250000
1, 3920, Tempo, 1200000
1, 3928, Tempo, 1153846
1, 3936, Tempo, 869565
1, 4080, Tempo, 895522
1, 4116, Tempo, 923076
1, 4128, Tempo, 821917
1, 4176, Tempo, 1071428
1, 4176, Tempo, 923076
1, 4224, Tempo, 869565
1, 4251, Tempo, 571428
1, 4258, Tempo, 714285
1, 4265, Tempo, 869565
1, 4272, Tempo, 923076
1, 4296, Tempo, 769230
1, 4320, Tempo, 1034482
1, 4336, Tempo, 681818
1, 4347, Tempo, 697674
1, 4352, Tempo, 750000
1, 4354, Tempo, 789473
1, 4361, Tempo, 645161
1, 4368, Tempo, 714285
1, 4384, Tempo, 535714
1, 4400, Tempo, 789473
1, 4416, Tempo, 821917
1, 4448, Tempo, 869565
1, 4456, Tempo, 952380
1, 4464, Tempo, 845070
1, 4488, Tempo, 1153846
1, 4512, Tempo, 1250000
1, 4528, Tempo, 789473
1, 4544, Tempo, 952380
1, 4560, Tempo, 1538461
1, 4570, Tempo, 2727272
1, 4589, Tempo, 1935483
1, 4598, Tempo, 2500000
1, 4608, Tempo, 2142857
1, 4624, Tempo, 1250000
1, 4640, Tempo, 1395348
1, 4656, Tempo, 1935483
1, 4672, Tempo, 1463414
1, 4688, Tempo, 2000000
1, 4704, Tempo, 3000000
1, 4720, Tempo, 2000000
1, 4736, Tempo, 1395348
1, 4752, Tempo, 1333333
1, 4768, Tempo, 1818181
1, 4784, Tempo, 3333333
1, 4800, Tempo, 1621621
1, 4810, Tempo, 952380
1, 4820, Tempo, 750000
1, 4824, Tempo, 697674
1, 4829, Tempo, 845070
1, 4838, Tempo, 1153846
1, 4848, Tempo, 750000
1, 4858, Tempo, 697674
1, 4868, Tempo, 869565
1, 4872, Tempo, 400000
1, 4877, Tempo, 618556
1, 4886, Tempo, 1071428
1, 4896, Time_signature, 2, 2, 24, 8
1, 4896, Tempo, 895522
1, 4906, Tempo, 697674
1, 4916, Tempo, 769230
1, 4920, Tempo, 606060
1, 4925, Tempo, 555555
1, 4934, Tempo, 1071428
1, 4944, Tempo, 845070
1, 4954, Tempo, 555555
1, 4964, Tempo, 750000
1, 4973, Tempo, 618556
1, 4982, Tempo, 1071428
1, 4992, Tempo, 800000
1, 5002, Tempo, 659340
1, 5012, Tempo, 869565
1, 5016, Tempo, 697674
1, 5021, Tempo, 731707
1, 5030, Tempo, 800000
1, 5040, Tempo, 750000
1, 5050, Tempo, 606060
1, 5060, Tempo, 750000
1, 5064, Tempo, 800000
1, 5069, Tempo, 845070
1, 5078, Tempo, 1200000
1, 5088, Tempo, 952380
1, 5098, Tempo, 555555
1, 5108, Tempo, 869565
1, 5112, Tempo, 1000000
1, 5117, Tempo, 789473
1, 5126, Tempo, 800000
1, 5136, Tempo, 1000000
1, 5146, Tempo, 697674
1, 5156, Tempo, 1000000
1, 5160, Tempo, 697674
1, 5165, Tempo, 845070
1, 5174, Tempo, 1200000
1, 5184, Tempo, 952380
1, 5194, Tempo, 845070
1, 5204, Tempo, 869565
1, 5213, Tempo, 555555
1, 5222, Tempo, 952380
1, 5232, Tempo, 800000
1, 5242, Tempo, 659340
1, 5252, Tempo, 750000
1, 5256, Tempo, 500000
1, 5261, Tempo, 666666
1, 5270, Tempo, 845070
1, 5280, Tempo, 895522
1, 5290, Tempo, 606060
1, 5300, Tempo, 750000
1, 5304, Tempo, 606060
1, 5309, Tempo, 666666
1, 5318, Tempo, 952380
1, 5328, Tempo, 800000
1, 5338, Tempo, 606060
1, 5348, Tempo, 750000
1, 5352, Tempo, 697674
1, 5357, Tempo, 666666
1, 5366, Tempo, 1000000
1, 5376, Tempo, 895522
1, 5386, Tempo, 451127
1, 5396, Tempo, 631578
1, 5400, Tempo, 606060
1, 5405, Tempo, 500000
1, 5414, Tempo, 1111111
1, 5424, Tempo, 750000
1, 5434, Tempo, 500000
1, 5444, Tempo, 869565
1, 5453, Tempo, 555555
1, 5462, Tempo, 1111111
1, 5472, Tempo, 800000
1, 5482, Tempo, 555555
1, 5492, Tempo, 750000
1, 5501, Tempo, 555555
1, 5510, Tempo, 1071428
1, 5530, Tempo, 659340
1, 5540, Tempo, 869565
1, 5544, Tempo, 800000
1, 5549, Tempo, 666666
1, 5558, Tempo, 1200000
1, 5568, Tempo, 681818
1, 5584, Tempo, 952380
1, 5592, Tempo, 750000
1, 5600, Tempo, 681818
1, 5608, Tempo, 1153846
1, 5616, Tempo, 659340
1, 5632, Tempo, 750000
1, 5640, Tempo, 769230
1, 5648, Tempo, 500000
1, 5656, Tempo, 952380
1, 5664, Tempo, 821917
1, 5680, Tempo, 681818
1, 5688, Tempo, 631578
1, 5696, Tempo, 566037
1, 5704, Tempo, 952380
1, 5712, Tempo, 659340
1, 5728, Tempo, 631578
1, 5736, Tempo, 618556
1, 5744, Tempo, 750000
1, 5752, Tempo, 1000000
1, 5760, Tempo, 681818
1, 5784, Tempo, 869565
1, 5792, Tempo, 631578
1, 5800, Tempo, 869565
1, 5808, Tempo, 659340
1, 5824, Tempo, 681818
1, 5832, Tempo, 821917
1, 5840, Tempo, 697674
1, 5848, Tempo, 869565
1, 5856, Tempo, 659340
1, 5872, Tempo, 821917
1, 5880, Tempo, 750000
1, 5888, Tempo, 869565
1, 5896, Tempo, 769230
1, 5904, Tempo, 789473
1, 5920, Tempo, 750000
1, 5928, Tempo, 769230
1, 5936, Tempo, 750000
1, 5944, Tempo, 1000000
1, 5952, Tempo, 845070
1, 5968, Tempo, 952380
1, 5976, Tempo, 923076
1, 5984, Tempo, 681818
1, 5992, Tempo, 952380
1, 6000, Tempo, 631578
1, 6016, Tempo, 821917
1, 6024, Tempo, 631578
1, 6032, Tempo, 681818
1, 6040, Tempo, 1000000
1, 6048, Tempo, 789473
1, 6064, Tempo, 631578
1, 6072, Tempo, 821917
1, 6080, Tempo, 631578
1, 6088, Tempo, 1000000
1, 6096, Tempo, 631578
1, 6112, Tempo, 750000
1, 6120, Tempo, 821917
1, 6128, Tempo, 731707
1, 6136, Tempo, 1250000
1, 6144, Tempo, 845070
1, 6160, Tempo, 631578
1, 6168, Tempo, 566037
1, 6176, Tempo, 500000
1, 6184, Tempo, 1000000
1, 6192, Tempo, 789473
1, 6208, Tempo, 441176
1, 6216, Tempo, 566037
1, 6224, Tempo, 750000
1, 6232, Tempo, 895522
1, 6240, Tempo, 821917
1, 6256, Tempo, 500000
1, 6264, Tempo, 681818
1, 6272, Tempo, 631578
1, 6280, Tempo, 1250000
1, 6288, Tempo, 1000000
1, 6304, Tempo, 869565
1, 6312, Tempo, 631578
1, 6320, Tempo, 750000
1, 6328, Tempo, 1071428
1, 6336, Tempo, 821917
1, 6352, Tempo, 500000
1, 6360, Tempo, 750000
1, 6368, Tempo, 631578
1, 6376, Tempo, 1818181
1, 6384, Tempo, 923076
1, 6400, Tempo, 750000
1, 6408, Tempo, 769230
1, 6416, Tempo, 566037
1, 6424, Tempo, 1200000
1, 6432, Tempo, 750000
1, 6448, Tempo, 631578
1, 6456, Tempo, 869565
1, 6464, Tempo, 631578
1, 6472, Tempo, 1000000
1, 6480, Tempo, 681818
1, 6496, Tempo, 750000
1, 6504, Tempo, 952380
1, 6512, Tempo, 631578
1, 6520, Tempo, 1538461
1, 6528, Tempo, 869565
1, 6544, Tempo, 681818
1, 6552, Tempo, 869565
1, 6560, Tempo, 681818
1, 6568, Tempo, 1333333
1, 6576, Tempo, 750000
1, 6592, Tempo, 821917
1, 6600, Tempo, 750000
1, 6608, Tempo, 441176
1, 6616, Tempo, 1250000
1, 6624, Tempo, 750000
1, 6640, Tempo, 821917
1, 6648, Tempo, 800000
1, 6656, Tempo, 1304347
1, 6660, Tempo, 2000000
1, 6664, Tempo, 750000
1, 6668, Tempo, 631578
1, 6672, Tempo, 750000
1, 6688, Tempo, 681818
1, 6696, Tempo, 821917
1, 6704, Tempo, 1250000
1, 6708, Tempo, 2000000
1, 6712, Tempo, 769230
1, 6716, Tempo, 750000
1, 6720, Tempo, 869565
1, 6736, Tempo, 631578
1, 6744, Tempo, 769230
1, 6752, Tempo, 750000
1, 6760, Tempo, 2000000
1, 6768, Tempo, 1000000
1, 6784, Tempo, 750000
1, 6792, Tempo, 631578
1, 6800, Tempo, 681818
1, 6808, Tempo, 1395348
1, 6816, Tempo, 750000
1, 6832, Tempo, 869565
1, 6840, Tempo, 895522
1, 6848, Tempo, 681818
1, 6856, Tempo, 2307692
1, 6864, Tempo, 1034482
1, 6880, Tempo, 1071428
1, 6888, Tempo, 869565
1, 6896, Tempo, 1071428
1, 6904, Tempo, 2307692
1, 6912, Tempo, 1395348
1, 6928, Tempo, 1071428
1, 6936, Tempo, 952380
1, 6944, Tempo, 869565
1, 6952, Tempo, 2142857
1, 6960, Tempo, 1463414
1, 6976, Tempo, 1153846
1, 6984, Tempo, 1071428
1, 6992, Tempo, 952380
1, 7000, Tempo, 2307692
1, 7008, Tempo, 789473
1, 7040, Tempo, 659340
1, 7056, Tempo, 681818
1, 7072, Tempo, 1714285
1, 7088, Tempo, 2727272
1, 7126, Tempo, 3000000
1, 7152, Tempo, 1935483
1, 7188, Tempo, 2000000
1, 7200, Time_signature, 4, 2, 24, 8
1, 7200, Tempo, 1153846
1, 7224, Tempo, 869565
1, 7248, Tempo, 1071428
1, 7284, Tempo, 1153846
1, 7296, Tempo, 952380
1, 7344, Tempo, 1200000
1, 7392, Tempo, 923076
1, 7440, Tempo, 1000000
1, 7452, Tempo, 845070
1, 7464, Tempo, 800000
1, 7476, Tempo, 1200000
1, 7488, Tempo, 983606
1, 7536, Tempo, 1463414
1, 7543, Tempo, 1000000
1, 7550, Tempo, 869565
1, 7557, Tempo, 1000000
1, 7563, Tempo, 789473
1, 7570, Tempo, 1071428
1, 7577, Tempo, 952380
1, 7584, Tempo, 1818181
1, 7590, Tempo, 845070
1, 7596, Tempo, 821917
1, 7602, Tempo, 923076
1, 7617, Tempo, 895522
1, 7637, Tempo, 1111111
1, 7642, Tempo, 1071428
1, 7647, Tempo, 923076
1, 7657, Tempo, 895522
1, 7662, Tempo, 821917
1, 7668, Tempo, 1000000
1, 7674, Tempo, 845070
1, 7680, Tempo, 1714285
1, 7684, Tempo, 1621621
1, 7688, Tempo, 1250000
1, 7692, Tempo, 1034482
1, 7696, Tempo, 1000000
1, 7700, Tempo, 983606
1, 7704, Tempo, 923076
1, 7708, Tempo, 952380
1, 7716, Tempo, 895522
1, 7720, Tempo, 1250000
1, 7724, Tempo, 1153846
1, 7728, Tempo, 1304347
1, 7732, Tempo, 1250000
1, 7736, Tempo, 1538461
1, 7740, Tempo, 1714285
1, 7744, Tempo, 1621621
1, 7748, Tempo, 1538461
1, 7752, Tempo, 1250000
1, 7756, Tempo, 2000000
1, 7760, Tempo, 1538461
1, 7765, Tempo, 3333333
1, 7772, Tempo, 2727272
1, 7776, Tempo, 845070
1, 7824, Tempo, 1395348
1, 7830, Tempo, 923076
1, 7836, Tempo, 845070
1, 7842, Tempo, 1000000
1, 7848, Tempo, 1200000
1, 7854, Tempo, 2727272
1, 7860, Tempo, 3000000
1, 7866, Tempo, 2142857
1, 7872, Tempo, 983606
1, 7920, Tempo, 923076
1, 7956, Tempo, 1200000
1, 7968, Tempo, 1000000
1, 7992, Tempo, 666666
1, 8016, Tempo, 800000
1, 8052, Tempo, 1034482
1, 8064, Tempo, 869565
1, 8112, Tempo, 845070
1, 8160, Tempo, 1153846
1, 8176, Tempo, 923076
1, 8192, Tempo, 1153846
1, 8208, Tempo, 923076
1, 8256, Tempo, 3333333
1, 8264, Tempo, 1395348
1, 8272, Tempo, 952380
1, 8280, Tempo, 869565
1, 8288, Tempo, 821917
1, 8296, Tempo, 869565
1, 8304, Tempo, 952380
1, 8312, Tempo, 1000000
1, 8320, Tempo, 1200000
1, 8328, Tempo, 1621621
1, 8336, Tempo, 2000000
1, 8344, Tempo, 3333333
1, 8352, Tempo, 869565
1, 8400, Tempo, 1153846
1, 8436, Tempo, 1071428
1, 8448, Tempo, 845070
1, 8454, Tempo, 1000000
1, 8459, Tempo, 923076
1, 8464, Tempo, 895522
1, 8469, Tempo, 923076
1, 8474, Tempo, 1000000
1, 8479, Tempo, 1395348
1, 8484, Tempo, 1000000
1, 8490, Tempo, 1538461
1, 8496, Tempo, 923076
1, 8532, Tempo, 1538461
1, 8544, Tempo, 645161
1, 8580, Tempo, 1395348
1, 8592, Tempo, 952380
1, 8608, Tempo, 681818
1, 8624, Tempo, 1153846
1, 8632, Tempo, 2000000
1, 8636, Tempo, 1935483
1, 8640, Tempo, 1200000
1, 8645, Tempo, 1000000
1, 8650, Tempo, 923076
1, 8660, Tempo, 895522
1, 8665, Tempo, 1153846
1, 8669, Tempo, 1111111
1, 8673, Tempo, 1395348
1, 8678, Tempo, 1304347
1, 8683, Tempo, 1538461
1, 8688, Tempo, 923076
1, 8712, Tempo, 895522
1, 8724, Tempo, 1621621
1, 8736, Tempo, 1034482
1, 8752, Tempo, 983606
1, 8768, Tempo, 1153846
1, 8784, Tempo, 2142857
1, 8808, Tempo, 3000000
1, 8814, Tempo, 2307692
1, 8820, Tempo, 1818181
1, 8826, Tempo, 1935483
1, 8832, Tempo, 2000000
1, 8840, Tempo, 1538461
1, 8848, Tempo, 1395348
1, 8856, Tempo, 1250000
1, 8864, Tempo, 1395348
1, 8872, Tempo, 1935483
1, 8880, Tempo, 2500000
1, 8888, Tempo, 2727272
1, 8896, Tempo, 3000000
1, 8904, Tempo, 1818181
1, 8920, Tempo, 2000000
1, 8936, Tempo, 3000000
1, 8952, Tempo, 1200000
1, 9000, Tempo, 1714285
1, 9016, Tempo, 1250000
1, 9032, Tempo, 1621621
1, 9072, Tempo, 821917
1, 9080, Tempo, 631578
1, 9088, Tempo, 1071428
1, 9096, Tempo, 1463414
1, 9120, Tempo, 750000
1, 9128, Tempo, 631578
1, 9136, Tempo, 1153846
1, 9144, Tempo, 1395348
1, 9168, Tempo, 869565
1, 9176, Tempo, 631578
1, 9184, Tempo, 1153846
1, 9192, Tempo, 1395348
1, 9216, Tempo, 1333333
1, 9224, Tempo, 869565
1, 9232, Tempo, 1250000
1, 9240, Tempo, 1333333
1, 9264, Tempo, 1000000
1, 9272, Tempo, 750000
1, 9280, Tempo, 1071428
1, 9288, Tempo, 1250000
1, 9312, Tempo, 2500000
1, 9318, Tempo, 1621621
1, 9324, Tempo, 750000
1, 9328, Tempo, 1538461
1, 9332, Tempo, 1463414
1, 9336, Tempo, 1621621
1, 9344, Tempo, 1200000
1, 9352, Tempo, 895522
1, 9360, Tempo, 952380
1, 9368, Tempo, 923076
1, 9376, Tempo, 1071428
1, 9384, Tempo, 869565
1, 9392, Tempo, 1000000
1, 9408, Tempo, 952380
1, 9424, Tempo, 1153846
1, 9432, Tempo, 952380
1, 9440, Tempo, 1153846
1, 9448, Tempo, 869565
1, 9456, Tempo, 1034482
1, 9464, Tempo, 1071428
1, 9472, Tempo, 1304347
1, 9480, Tempo, 1200000
1, 9488, Tempo, 1071428
1, 9504, Tempo, 952380
1, 9512, Tempo, 1250000
1, 9520, Tempo, 1463414
1, 9536, Tempo, 1333333
1, 9544, Tempo, 1000000
1, 9552, Tempo, 1111111
1, 9560, Tempo, 1153846
1, 9568, Tempo, 1000000
1, 9576, Tempo, 1200000
1, 9584, Tempo, 1071428
1, 9592, Tempo, 1000000
1, 9600, Tempo, 1111111
1, 9608, Tempo, 1153846
1, 9616, Tempo, 1250000
1, 9624, Tempo, 1200000
1, 9632, Tempo, 1250000
1, 9640, Tempo, 1333333
1, 9648, Tempo, 1395348
1, 9656, Tempo, 1621621
1, 9664, Tempo, 2307692
1, 9672, Tempo, 1395348
1, 9688, Tempo, 1250000
1, 9704, Tempo, 1818181
1, 9720, Tempo, 1200000
1, 9744, Tempo, 1818181
1, 9768, Tempo, 1621621
1, 9816, Time_signature, 12, 3, 24, 8
1, 9816, Tempo, 1818181
1, 10008, Time_signature, 4, 2, 24, 8
1, 10008, End_track
2, 0, Start_track
2, 0, Title_t, "PIANO(RIGHT HAND)"
2, 0, MIDI_port, 0
2, 4, System_exclusive, 0A, 41, 10, 42, 12, 40, 00, 7F, 00, 41, F7
2, 6, System_exclusive, 0A, 41, 10, 42, 12, 40, 00, 04, 7F, 3D, F7
2, 10, System_exclusive, 0A, 41, 10, 42, 12, 40, 01, 30, 04, 0B, F7
2, 12, System_exclusive, 0A, 41, 10, 42, 12, 40, 01, 31, 03, 0B, F7
2, 14, System_exclusive, 0A, 41, 10, 42, 12, 40, 01, 33, 6E, 1E, F7
2, 16, System_exclusive, 0A, 41, 10, 42, 12, 40, 01, 34, 3C, 4F, F7
2, 18, System_exclusive, 0A, 41, 10, 42, 12, 40, 01, 38, 02, 05, F7
2, 20, System_exclusive, 0A, 41, 10, 42, 12, 40, 01, 3A, 64, 21, F7
2, 22, System_exclusive, 0A, 41, 10, 42, 12, 40, 01, 3D, 07, 7B, F7
2, 24, System_exclusive, 0A, 41, 10, 42, 12, 40, 01, 3E, 08, 79, F7
2, 26, Control_c, 0, 0, 0
2, 28, Control_c, 0, 32, 1
2, 30, Program_c, 0, 0
2, 32, Control_c, 0, 7, 120
2, 34, Control_c, 0, 11, 120
2, 36, Control_c, 0, 91, 40
2, 38, Control_c, 0, 93, 0
2, 40, Control_c, 0, 10, 64
2, 42, Control_c, 0, 99, 1
2, 44, Control_c, 0, 98, 8
2, 46, Control_c, 0, 6, 64
2, 48, Control_c, 0, 98, 9
2, 50, Control_c, 0, 6, 64
2, 52, Control_c, 0, 98, 10
2, 54, Control_c, 0, 6, 64
2, 56, Control_c, 0, 98, 32
2, 58, Control_c, 0, 6, 64
2, 60, Control_c, 0, 98, 33
2, 62, Control_c, 0, 6, 64
2, 64, Control_c, 0, 98, 99
2, 66, Control_c, 0, 6, 64
2, 68, Control_c, 0, 98, 100
2, 70, Control_c, 0, 6, 80
2, 72, Control_c, 0, 98, 102
2, 74, Control_c, 0, 6, 64
2, 144, Note_on_c, 0, 70, 54
2, 180, Note_on_c, 0, 70, 0
2, 180, Note_on_c, 0, 71, 46
2, 192, Note_on_c, 0, 71, 0
2, 192, Note_on_c, 0, 70, 52
2, 216, Note_on_c, 0, 70, 0
2, 216, Note_on_c, 0, 68, 50
2, 240, Note_on_c, 0, 68, 0
2, 240, Note_on_c, 0, 65, 43
2, 264, Note_on_c, 0, 65, 0
2, 264, Note_on_c, 0, 61, 45
2, 280, Note_on_c, 0, 61, 0
2, 288, Note_on_c, 0, 61, 44
2, 312, Note_on_c, 0, 61, 0
2, 336, Note_on_c, 0, 61, 42
2, 360, Note_on_c, 0, 61, 0
2, 384, Note_on_c, 0, 61, 42
2, 444, Note_on_c, 0, 61, 0
2, 444, Note_on_c, 0, 66, 38
2, 456, Note_on_c, 0, 66, 0
2, 456, Note_on_c, 0, 70, 42
2, 468, Note_on_c, 0, 70, 0
2, 468, Note_on_c, 0, 75, 47
2, 480, Note_on_c, 0, 75, 0
2, 480, Note_on_c, 0, 73, 40
2, 522, Note_on_c, 0, 73, 0
2, 528, Note_on_c, 0, 70, 50
2, 564, Note_on_c, 0, 70, 0
2, 564, Note_on_c, 0, 71, 46
2, 576, Note_on_c, 0, 71, 0
2, 576, Note_on_c, 0, 70, 52
2, 596, Note_on_c, 0, 70, 0
2, 600, Note_on_c, 0, 68, 50
2, 620, Note_on_c, 0, 68, 0
2, 624, Note_on_c, 0, 65, 47
2, 640, Note_on_c, 0, 65, 0
2, 640, Note_on_c, 0, 62, 46
2, 656, Note_on_c, 0, 62, 0
2, 656, Note_on_c, 0, 61, 45
2, 664, Note_on_c, 0, 61, 0
2, 672, Note_on_c, 0, 61, 47
2, 696, Note_on_c, 0, 61, 0
2, 720, Note_on_c, 0, 61, 44
2, 744, Note_on_c, 0, 61, 0
2, 768, Note_on_c, 0, 61, 40
2, 826, Note_on_c, 0, 61, 0
2, 826, Note_on_c, 0, 66, 39
2, 836, Note_on_c, 0, 66, 0
2, 836, Note_on_c, 0, 70, 43
2, 845, Note_on_c, 0, 70, 0
2, 845, Note_on_c, 0, 66, 49
2, 854, Note_on_c, 0, 66, 0
2, 854, Note_on_c, 0, 75, 62
2, 864, Note_on_c, 0, 75, 0
2, 864, Note_on_c, 0, 73, 54
2, 888, Note_on_c, 0, 73, 0
2, 912, Note_on_c, 0, 71, 62
2, 948, Note_on_c, 0, 71, 0
2, 948, Note_on_c, 0, 73, 58
2, 960, Note_on_c, 0, 73, 0
2, 960, Note_on_c, 0, 71, 59
2, 984, Note_on_c, 0, 71, 0
2, 984, Note_on_c, 0, 70, 62
2, 1008, Note_on_c, 0, 70, 0
2, 1008, Note_on_c, 0, 67, 60
2, 1032, Note_on_c, 0, 67, 0
2, 1032, Note_on_c, 0, 63, 62
2, 1056, Note_on_c, 0, 63, 0
2, 1056, Note_on_c, 0, 63, 60
2, 1080, Note_on_c, 0, 63, 0
2, 1104, Note_on_c, 0, 63, 60
2, 1128, Note_on_c, 0, 63, 0
2, 1152, Note_on_c, 0, 63, 60
2, 1176, Note_on_c, 0, 63, 0
2, 1200, Note_on_c, 0, 78, 74
2, 1272, Note_on_c, 0, 78, 0
2, 1272, Note_on_c, 0, 75, 62
2, 1296, Note_on_c, 0, 75, 0
2, 1296, Note_on_c, 0, 66, 60
2, 1320, Note_on_c, 0, 66, 0
2, 1320, Note_on_c, 0, 68, 58
2, 1344, Note_on_c, 0, 68, 0
2, 1344, Note_on_c, 0, 70, 57
2, 1368, Note_on_c, 0, 70, 0
2, 1392, Note_on_c, 0, 71, 54
2, 1428, Note_on_c, 0, 71, 0
2, 1428, Note_on_c, 0, 70, 52
2, 1440, Note_on_c, 0, 70, 0
2, 1440, Note_on_c, 0, 68, 48
2, 1444, Note_on_c, 0, 70, 42
2, 1445, Note_on_c, 0, 68, 0
2, 1448, Note_on_c, 0, 68, 43
2, 1449, Note_on_c, 0, 70, 0
2, 1452, Note_on_c, 0, 70, 48
2, 1453, Note_on_c, 0, 68, 0
2, 1456, Note_on_c, 0, 68, 46
2, 1457, Note_on_c, 0, 70, 0
2, 1460, Note_on_c, 0, 70, 43
2, 1461, Note_on_c, 0, 68, 0
2, 1464, Note_on_c, 0, 68, 42
2, 1465, Note_on_c, 0, 70, 0
2, 1472, Note_on_c, 0, 68, 0
2, 1472, Note_on_c, 0, 67, 45
2, 1480, Note_on_c, 0, 67, 0
2, 1480, Note_on_c, 0, 68, 50
2, 1488, Note_on_c, 0, 68, 0
2, 1488, Note_on_c, 0, 70, 50
2, 1512, Note_on_c, 0, 70, 0
2, 1524, Note_on_c, 0, 68, 52
2, 1536, Note_on_c, 0, 68, 0
2, 1536, Note_on_c, 0, 66, 52
2, 1584, Note_on_c, 0, 66, 0
2, 1584, Note_on_c, 0, 65, 50
2, 1620, Note_on_c, 0, 65, 0
2, 1620, Note_on_c, 0, 63, 42
2, 1632, Note_on_c, 0, 63, 0
2, 1632, Note_on_c, 0, 56, 28
2, 1632, Note_on_c, 0, 61, 40
2, 1656, Note_on_c, 0, 61, 0
2, 1656, Note_on_c, 0, 56, 0
2, 1680, Note_on_c, 0, 58, 40
2, 1684, Note_on_c, 0, 58, 0
2, 1684, Note_on_c, 0, 61, 42
2, 1688, Note_on_c, 0, 61, 0
2, 1688, Note_on_c, 0, 66, 44
2, 1692, Note_on_c, 0, 66, 0
2, 1692, Note_on_c, 0, 70, 54
2, 1716, Note_on_c, 0, 70, 0
2, 1716, Note_on_c, 0, 71, 44
2, 1728, Note_on_c, 0, 71, 0
2, 1728, Note_on_c, 0, 59, 31
2, 1732, Note_on_c, 0, 59, 0
2, 1732, Note_on_c, 0, 65, 39
2, 1736, Note_on_c, 0, 65, 0
2, 1736, Note_on_c, 0, 70, 48
2, 1752, Note_on_c, 0, 70, 0
2, 1752, Note_on_c, 0, 68, 44
2, 1776, Note_on_c, 0, 68, 0
2, 1776, Note_on_c, 0, 65, 43
2, 1800, Note_on_c, 0, 65, 0
2, 1800, Note_on_c, 0, 61, 41
2, 1816, Note_on_c, 0, 61, 0
2, 1824, Note_on_c, 0, 61, 40
2, 1848, Note_on_c, 0, 61, 0
2, 1872, Note_on_c, 0, 61, 42
2, 1896, Note_on_c, 0, 61, 0
2, 1920, Note_on_c, 0, 61, 45
2, 1980, Note_on_c, 0, 61, 0
2, 1980, Note_on_c, 0, 66, 40
2, 1992, Note_on_c, 0, 66, 0
2, 1992, Note_on_c, 0, 70, 46
2, 2004, Note_on_c, 0, 70, 0
2, 2004, Note_on_c, 0, 75, 39
2, 2016, Note_on_c, 0, 75, 0
2, 2016, Note_on_c, 0, 73, 44
2, 2040, Note_on_c, 0, 73, 0
2, 2064, Note_on_c, 0, 70, 37
2, 2071, Note_on_c, 0, 70, 0
2, 2071, Note_on_c, 0, 71, 40
2, 2078, Note_on_c, 0, 71, 0
2, 2078, Note_on_c, 0, 70, 44
2, 2085, Note_on_c, 0, 70, 0
2, 2085, Note_on_c, 0, 69, 46
2, 2091, Note_on_c, 0, 69, 0
2, 2091, Note_on_c, 0, 70, 42
2, 2098, Note_on_c, 0, 70, 0
2, 2098, Note_on_c, 0, 73, 38
2, 2105, Note_on_c, 0, 73, 0
2, 2105, Note_on_c, 0, 72, 36
2, 2112, Note_on_c, 0, 72, 0
2, 2112, Note_on_c, 0, 71, 34
2, 2118, Note_on_c, 0, 71, 0
2, 2118, Note_on_c, 0, 70, 38
2, 2124, Note_on_c, 0, 70, 0
2, 2124, Note_on_c, 0, 71, 40
2, 2130, Note_on_c, 0, 71, 0
2, 2130, Note_on_c, 0, 70, 38
2, 2136, Note_on_c, 0, 70, 0
2, 2136, Note_on_c, 0, 69, 44
2, 2142, Note_on_c, 0, 69, 0
2, 2142, Note_on_c, 0, 68, 42
2, 2148, Note_on_c, 0, 68, 0
2, 2148, Note_on_c, 0, 69, 45
2, 2154, Note_on_c, 0, 69, 0
2, 2154, Note_on_c, 0, 68, 43
2, 2160, Note_on_c, 0, 68, 0
2, 2160, Note_on_c, 0, 69, 45
2, 2167, Note_on_c, 0, 69, 0
2, 2167, Note_on_c, 0, 68, 46
2, 2174, Note_on_c, 0, 68, 0
2, 2174, Note_on_c, 0, 67, 40
2, 2181, Note_on_c, 0, 67, 0
2, 2181, Note_on_c, 0, 66, 42
2, 2187, Note_on_c, 0, 66, 0
2, 2187, Note_on_c, 0, 67, 40
2, 2194, Note_on_c, 0, 67, 0
2, 2194, Note_on_c, 0, 66, 42
2, 2201, Note_on_c, 0, 66, 0
2, 2201, Note_on_c, 0, 67, 40
2, 2208, Note_on_c, 0, 67, 0
2, 2208, Note_on_c, 0, 66, 38
2, 2213, Note_on_c, 0, 66, 0
2, 2213, Note_on_c, 0, 65, 48
2, 2218, Note_on_c, 0, 65, 0
2, 2218, Note_on_c, 0, 64, 44
2, 2223, Note_on_c, 0, 64, 0
2, 2223, Note_on_c, 0, 65, 46
2, 2228, Note_on_c, 0, 65, 0
2, 2228, Note_on_c, 0, 66, 48
2, 2233, Note_on_c, 0, 66, 0
2, 2233, Note_on_c, 0, 65, 45
2, 2238, Note_on_c, 0, 65, 0
2, 2238, Note_on_c, 0, 63, 42
2, 2244, Note_on_c, 0, 63, 0
2, 2244, Note_on_c, 0, 65, 43
2, 2250, Note_on_c, 0, 65, 0
2, 2250, Note_on_c, 0, 66, 41
2, 2256, Note_on_c, 0, 66, 0
2, 2256, Note_on_c, 0, 70, 45
2, 2263, Note_on_c, 0, 70, 0
2, 2263, Note_on_c, 0, 68, 48
2, 2270, Note_on_c, 0, 68, 0
2, 2270, Note_on_c, 0, 65, 46
2, 2277, Note_on_c, 0, 65, 0
2, 2277, Note_on_c, 0, 66, 44
2, 2284, Note_on_c, 0, 66, 0
2, 2284, Note_on_c, 0, 63, 46
2, 2291, Note_on_c, 0, 63, 0
2, 2291, Note_on_c, 0, 68, 48
2, 2295, Note_on_c, 0, 68, 0
2, 2298, Note_on_c, 0, 68, 48
2, 2304, Note_on_c, 0, 68, 0
2, 2304, Note_on_c, 0, 61, 43
2, 2361, Note_on_c, 0, 61, 0
2, 2361, Note_on_c, 0, 66, 47
2, 2370, Note_on_c, 0, 66, 0
2, 2370, Note_on_c, 0, 70, 53
2, 2379, Note_on_c, 0, 70, 0
2, 2379, Note_on_c, 0, 78, 67
2, 2388, Note_on_c, 0, 78, 0
2, 2394, Note_on_c, 0, 75, 62
2, 2400, Note_on_c, 0, 75, 0
2, 2400, Note_on_c, 0, 73, 55
2, 2436, Note_on_c, 0, 73, 0
2, 2448, Note_on_c, 0, 69, 63
2, 2456, Note_on_c, 0, 69, 0
2, 2456, Note_on_c, 0, 70, 65
2, 2464, Note_on_c, 0, 70, 0
2, 2464, Note_on_c, 0, 71, 73
2, 2472, Note_on_c, 0, 71, 0
2, 2472, Note_on_c, 0, 70, 70
2, 2480, Note_on_c, 0, 70, 0
2, 2480, Note_on_c, 0, 76, 70
2, 2488, Note_on_c, 0, 76, 0
2, 2488, Note_on_c, 0, 75, 70
2, 2496, Note_on_c, 0, 75, 0
2, 2496, Note_on_c, 0, 74, 67
2, 2508, Note_on_c, 0, 74, 0
2, 2520, Note_on_c, 0, 73, 66
2, 2532, Note_on_c, 0, 73, 0
2, 2544, Note_on_c, 0, 70, 62
2, 2552, Note_on_c, 0, 70, 0
2, 2560, Note_on_c, 0, 67, 60
2, 2568, Note_on_c, 0, 67, 0
2, 2576, Note_on_c, 0, 70, 61
2, 2584, Note_on_c, 0, 70, 0
2, 2592, Note_on_c, 0, 64, 60
2, 2628, Note_on_c, 0, 64, 0
2, 2628, Note_on_c, 0, 63, 65
2, 2636, Note_on_c, 0, 63, 0
2, 2640, Note_on_c, 0, 63, 60
2, 2648, Note_on_c, 0, 63, 0
2, 2648, Note_on_c, 0, 62, 74
2, 2656, Note_on_c, 0, 62, 0
2, 2656, Note_on_c, 0, 63, 69
2, 2664, Note_on_c, 0, 63, 0
2, 2664, Note_on_c, 0, 66, 51
2, 2672, Note_on_c, 0, 66, 0
2, 2672, Note_on_c, 0, 64, 62
2, 2680, Note_on_c, 0, 64, 0
2, 2680, Note_on_c, 0, 63, 72
2, 2684, Note_on_c, 0, 63, 0
2, 2688, Note_on_c, 0, 63, 70
2, 2696, Note_on_c, 0, 63, 0
2, 2704, Note_on_c, 0, 78, 76
2, 2712, Note_on_c, 0, 78, 0
2, 2720, Note_on_c, 0, 75, 80
2, 2728, Note_on_c, 0, 75, 0
2, 2736, Note_on_c, 0, 90, 86
2, 2796, Note_on_c, 0, 90, 0
2, 2796, Note_on_c, 0, 87, 70
2, 2808, Note_on_c, 0, 87, 0
2, 2808, Note_on_c, 0, 83, 67
2, 2820, Note_on_c, 0, 83, 0
2, 2820, Note_on_c, 0, 80, 64
2, 2832, Note_on_c, 0, 80, 0
2, 2832, Note_on_c, 0, 78, 61
2, 2844, Note_on_c, 0, 78, 0
2, 2844, Note_on_c, 0, 75, 58
2, 2856, Note_on_c, 0, 75, 0
2, 2856, Note_on_c, 0, 71, 55
2, 2864, Note_on_c, 0, 71, 0
2, 2864, Note_on_c, 0, 66, 53
2, 2872, Note_on_c, 0, 66, 0
2, 2872, Note_on_c, 0, 68, 55
2, 2880, Note_on_c, 0, 68, 0
2, 2880, Note_on_c, 0, 70, 55
2, 2904, Note_on_c, 0, 70, 0
2, 2928, Note_on_c, 0, 71, 52
2, 2964, Note_on_c, 0, 71, 0
2, 2964, Note_on_c, 0, 70, 48
2, 2976, Note_on_c, 0, 70, 0
2, 2976, Note_on_c, 0, 68, 40
2, 2980, Note_on_c, 0, 70, 32
2, 2981, Note_on_c, 0, 68, 0
2, 2984, Note_on_c, 0, 68, 40
2, 2985, Note_on_c, 0, 70, 0
2, 2988, Note_on_c, 0, 70, 38
2, 2989, Note_on_c, 0, 68, 0
2, 2992, Note_on_c, 0, 68, 41
2, 2993, Note_on_c, 0, 70, 0
2, 2996, Note_on_c, 0, 70, 42
2, 2997, Note_on_c, 0, 68, 0
2, 3000, Note_on_c, 0, 68, 40
2, 3001, Note_on_c, 0, 70, 0
2, 3008, Note_on_c, 0, 68, 0
2, 3008, Note_on_c, 0, 67, 45
2, 3016, Note_on_c, 0, 67, 0
2, 3016, Note_on_c, 0, 68, 42
2, 3024, Note_on_c, 0, 68, 0
2, 3024, Note_on_c, 0, 70, 46
2, 3048, Note_on_c, 0, 70, 0
2, 3060, Note_on_c, 0, 68, 42
2, 3072, Note_on_c, 0, 68, 0
2, 3072, Note_on_c, 0, 66, 38
2, 3168, Note_on_c, 0, 66, 0
2, 3216, Note_on_c, 0, 65, 39
2, 3252, Note_on_c, 0, 65, 0
2, 3252, Note_on_c, 0, 66, 41
2, 3264, Note_on_c, 0, 66, 0
2, 3264, Note_on_c, 0, 68, 49
2, 3312, Note_on_c, 0, 68, 0
2, 3312, Note_on_c, 0, 73, 53
2, 3348, Note_on_c, 0, 73, 0
2, 3348, Note_on_c, 0, 75, 51
2, 3360, Note_on_c, 0, 75, 0
2, 3360, Note_on_c, 0, 77, 64
2, 3384, Note_on_c, 0, 77, 0
2, 3408, Note_on_c, 0, 77, 60
2, 3432, Note_on_c, 0, 77, 0
2, 3456, Note_on_c, 0, 77, 64
2, 3504, Note_on_c, 0, 77, 0
2, 3517, Note_on_c, 0, 76, 41
2, 3522, Note_on_c, 0, 76, 0
2, 3522, Note_on_c, 0, 75, 35
2, 3527, Note_on_c, 0, 75, 0
2, 3527, Note_on_c, 0, 74, 45
2, 3532, Note_on_c, 0, 74, 0
2, 3532, Note_on_c, 0, 73, 34
2, 3537, Note_on_c, 0, 73, 0
2, 3537, Note_on_c, 0, 72, 34
2, 3542, Note_on_c, 0, 72, 0
2, 3542, Note_on_c, 0, 71, 46
2, 3547, Note_on_c, 0, 71, 0
2, 3547, Note_on_c, 0, 70, 37
2, 3552, Note_on_c, 0, 70, 0
2, 3552, Note_on_c, 0, 69, 45
2, 3688, Note_on_c, 0, 69, 0
2, 3696, Note_on_c, 0, 73, 69
2, 3732, Note_on_c, 0, 73, 0
2, 3732, Note_on_c, 0, 77, 74
2, 3744, Note_on_c, 0, 77, 0
2, 3744, Note_on_c, 0, 78, 74
2, 3760, Note_on_c, 0, 78, 0
2, 3776, Note_on_c, 0, 78, 84
2, 3792, Note_on_c, 0, 78, 0
2, 3808, Note_on_c, 0, 78, 86
2, 3824, Note_on_c, 0, 78, 0
2, 3840, Note_on_c, 0, 78, 60
2, 3888, Note_on_c, 0, 78, 0
2, 3904, Note_on_c, 0, 77, 47
2, 3908, Note_on_c, 0, 77, 0
2, 3908, Note_on_c, 0, 76, 39
2, 3912, Note_on_c, 0, 76, 0
2, 3912, Note_on_c, 0, 75, 34
2, 3916, Note_on_c, 0, 75, 0
2, 3916, Note_on_c, 0, 74, 41
2, 3920, Note_on_c, 0, 74, 0
2, 3920, Note_on_c, 0, 73, 33
2, 3924, Note_on_c, 0, 73, 0
2, 3924, Note_on_c, 0, 72, 37
2, 3928, Note_on_c, 0, 72, 0
2, 3928, Note_on_c, 0, 71, 37
2, 3932, Note_on_c, 0, 71, 0
2, 3932, Note_on_c, 0, 70, 27
2, 3936, Note_on_c, 0, 70, 0
2, 3936, Note_on_c, 0, 69, 40
2, 4080, Note_on_c, 0, 69, 0
2, 4080, Note_on_c, 0, 75, 74
2, 4116, Note_on_c, 0, 75, 0
2, 4116, Note_on_c, 0, 77, 77
2, 4128, Note_on_c, 0, 77, 0
2, 4128, Note_on_c, 0, 78, 80
2, 4164, Note_on_c, 0, 78, 0
2, 4176, Note_on_c, 0, 78, 80
2, 4200, Note_on_c, 0, 78, 0
2, 4212, Note_on_c, 0, 78, 81
2, 4218, Note_on_c, 0, 78, 0
2, 4224, Note_on_c, 0, 78, 84
2, 4296, Note_on_c, 0, 78, 0
2, 4296, Note_on_c, 0, 77, 76
2, 4320, Note_on_c, 0, 77, 0
2, 4320, Note_on_c, 0, 75, 72
2, 4336, Note_on_c, 0, 75, 0
2, 4336, Note_on_c, 0, 77, 74
2, 4352, Note_on_c, 0, 77, 0
2, 4352, Note_on_c, 0, 75, 74
2, 4368, Note_on_c, 0, 75, 0
2, 4368, Note_on_c, 0, 74, 65
2, 4384, Note_on_c, 0, 74, 0
2, 4384, Note_on_c, 0, 75, 68
2, 4400, Note_on_c, 0, 75, 0
2, 4400, Note_on_c, 0, 77, 69
2, 4416, Note_on_c, 0, 77, 0
2, 4416, Note_on_c, 0, 75, 66
2, 4488, Note_on_c, 0, 75, 0
2, 4488, Note_on_c, 0, 74, 55
2, 4512, Note_on_c, 0, 74, 0
2, 4512, Note_on_c, 0, 71, 45
2, 4528, Note_on_c, 0, 71, 0
2, 4528, Note_on_c, 0, 73, 52
2, 4544, Note_on_c, 0, 73, 0
2, 4544, Note_on_c, 0, 71, 49
2, 4560, Note_on_c, 0, 71, 0
2, 4560, Note_on_c, 0, 70, 44
2, 4570, Note_on_c, 0, 70, 0
2, 4570, Note_on_c, 0, 71, 46
2, 4580, Note_on_c, 0, 71, 0
2, 4580, Note_on_c, 0, 75, 50
2, 4589, Note_on_c, 0, 75, 0
2, 4589, Note_on_c, 0, 73, 47
2, 4598, Note_on_c, 0, 73, 0
2, 4598, Note_on_c, 0, 71, 50
2, 4608, Note_on_c, 0, 71, 0
2, 4608, Note_on_c, 0, 71, 48
2, 4650, Note_on_c, 0, 71, 0
2, 4656, Note_on_c, 0, 70, 40
2, 4704, Note_on_c, 0, 65, 41
2, 4712, Note_on_c, 0, 70, 0
2, 4720, Note_on_c, 0, 70, 37
2, 4728, Note_on_c, 0, 70, 0
2, 4736, Note_on_c, 0, 70, 43
2, 4744, Note_on_c, 0, 70, 0
2, 4752, Note_on_c, 0, 70, 45
2, 4760, Note_on_c, 0, 70, 0
2, 4768, Note_on_c, 0, 70, 39
2, 4776, Note_on_c, 0, 70, 0
2, 4784, Note_on_c, 0, 71, 35
2, 4792, Note_on_c, 0, 71, 0
2, 4792, Note_on_c, 0, 65, 0
2, 4800, Note_on_c, 0, 65, 41
2, 4800, Note_on_c, 0, 77, 46
2, 4810, Note_on_c, 0, 68, 39
2, 4820, Note_on_c, 0, 68, 0
2, 4820, Note_on_c, 0, 71, 42
2, 4824, Note_on_c, 0, 65, 0
2, 4829, Note_on_c, 0, 63, 37
2, 4832, Note_on_c, 0, 71, 0
2, 4833, Note_on_c, 0, 77, 0
2, 4838, Note_on_c, 0, 75, 52
2, 4844, Note_on_c, 0, 75, 0
2, 4844, Note_on_c, 0, 63, 0
2, 4848, Note_on_c, 0, 61, 40
2, 4848, Note_on_c, 0, 73, 50
2, 4858, Note_on_c, 0, 68, 35
2, 4868, Note_on_c, 0, 68, 0
2, 4868, Note_on_c, 0, 71, 50
2, 4872, Note_on_c, 0, 61, 0
2, 4877, Note_on_c, 0, 63, 37
2, 4880, Note_on_c, 0, 71, 0
2, 4881, Note_on_c, 0, 73, 0
2, 4886, Note_on_c, 0, 75, 52
2, 4892, Note_on_c, 0, 75, 0
2, 4892, Note_on_c, 0, 63, 0
2, 4896, Note_on_c, 0, 65, 45
2, 4896, Note_on_c, 0, 77, 52
2, 4906, Note_on_c, 0, 71, 31
2, 4916, Note_on_c, 0, 71, 0
2, 4916, Note_on_c, 0, 73, 31
2, 4920, Note_on_c, 0, 65, 0
2, 4925, Note_on_c, 0, 66, 30
2, 4928, Note_on_c, 0, 73, 0
2, 4929, Note_on_c, 0, 77, 0
2, 4934, Note_on_c, 0, 78, 47
2, 4940, Note_on_c, 0, 78, 0
2, 4940, Note_on_c, 0, 66, 0
2, 4944, Note_on_c, 0, 68, 48
2, 4944, Note_on_c, 0, 80, 58
2, 4954, Note_on_c, 0, 71, 40
2, 4964, Note_on_c, 0, 71, 0
2, 4964, Note_on_c, 0, 73, 43
2, 4968, Note_on_c, 0, 68, 0
2, 4973, Note_on_c, 0, 70, 37
2, 4976, Note_on_c, 0, 73, 0
2, 4977, Note_on_c, 0, 80, 0
2, 4982, Note_on_c, 0, 82, 52
2, 4988, Note_on_c, 0, 82, 0
2, 4988, Note_on_c, 0, 70, 0
2, 4992, Note_on_c, 0, 68, 57
2, 4992, Note_on_c, 0, 80, 62
2, 5002, Note_on_c, 0, 71, 35
2, 5012, Note_on_c, 0, 71, 0
2, 5012, Note_on_c, 0, 73, 37
2, 5016, Note_on_c, 0, 68, 0
2, 5021, Note_on_c, 0, 65, 43
2, 5024, Note_on_c, 0, 73, 0
2, 5025, Note_on_c, 0, 80, 0
2, 5030, Note_on_c, 0, 77, 62
2, 5036, Note_on_c, 0, 77, 0
2, 5036, Note_on_c, 0, 65, 0
2, 5040, Note_on_c, 0, 66, 58
2, 5040, Note_on_c, 0, 78, 60
2, 5050, Note_on_c, 0, 69, 38
2, 5060, Note_on_c, 0, 69, 0
2, 5060, Note_on_c, 0, 72, 40
2, 5064, Note_on_c, 0, 66, 0
2, 5069, Note_on_c, 0, 63, 45
2, 5072, Note_on_c, 0, 72, 0
2, 5073, Note_on_c, 0, 78, 0
2, 5078, Note_on_c, 0, 75, 60
2, 5084, Note_on_c, 0, 75, 0
2, 5084, Note_on_c, 0, 63, 0
2, 5088, Note_on_c, 0, 65, 62
2, 5088, Note_on_c, 0, 77, 67
2, 5098, Note_on_c, 0, 65, 0
2, 5098, Note_on_c, 0, 68, 46
2, 5108, Note_on_c, 0, 68, 0
2, 5108, Note_on_c, 0, 73, 50
2, 5117, Note_on_c, 0, 73, 0
2, 5117, Note_on_c, 0, 69, 49
2, 5126, Note_on_c, 0, 73, 50
2, 5132, Note_on_c, 0, 69, 0
2, 5136, Note_on_c, 0, 73, 0
2, 5136, Note_on_c, 0, 68, 61
2, 5146, Note_on_c, 0, 68, 0
2, 5146, Note_on_c, 0, 65, 54
2, 5156, Note_on_c, 0, 65, 0
2, 5156, Note_on_c, 0, 73, 56
2, 5165, Note_on_c, 0, 73, 0
2, 5165, Note_on_c, 0, 68, 50
2, 5174, Note_on_c, 0, 68, 0
2, 5174, Note_on_c, 0, 73, 48
2, 5180, Note_on_c, 0, 73, 0
2, 5180, Note_on_c, 0, 77, 0
2, 5184, Note_on_c, 0, 65, 57
2, 5184, Note_on_c, 0, 77, 63
2, 5194, Note_on_c, 0, 68, 46
2, 5204, Note_on_c, 0, 68, 0
2, 5204, Note_on_c, 0, 71, 49
2, 5208, Note_on_c, 0, 65, 0
2, 5213, Note_on_c, 0, 63, 42
2, 5216, Note_on_c, 0, 71, 0
2, 5217, Note_on_c, 0, 77, 0
2, 5222, Note_on_c, 0, 75, 57
2, 5228, Note_on_c, 0, 75, 0
2, 5228, Note_on_c, 0, 63, 0
2, 5232, Note_on_c, 0, 61, 50
2, 5232, Note_on_c, 0, 73, 55
2, 5242, Note_on_c, 0, 68, 35
2, 5252, Note_on_c, 0, 68, 0
2, 5252, Note_on_c, 0, 71, 37
2, 5256, Note_on_c, 0, 61, 0
2, 5261, Note_on_c, 0, 63, 45
2, 5264, Note_on_c, 0, 71, 0
2, 5265, Note_on_c, 0, 73, 0
2, 5270, Note_on_c, 0, 75, 58
2, 5276, Note_on_c, 0, 75, 0
2, 5276, Note_on_c, 0, 63, 0
2, 5280, Note_on_c, 0, 65, 58
2, 5280, Note_on_c, 0, 77, 63
2, 5290, Note_on_c, 0, 71, 37
2, 5300, Note_on_c, 0, 71, 0
2, 5300, Note_on_c, 0, 73, 39
2, 5304, Note_on_c, 0, 65, 0
2, 5309, Note_on_c, 0, 66, 49
2, 5312, Note_on_c, 0, 73, 0
2, 5313, Note_on_c, 0, 77, 0
2, 5318, Note_on_c, 0, 78, 64
2, 5324, Note_on_c, 0, 78, 0
2, 5324, Note_on_c, 0, 66, 0
2, 5328, Note_on_c, 0, 68, 60
2, 5328, Note_on_c, 0, 80, 65
2, 5338, Note_on_c, 0, 71, 42
2, 5348, Note_on_c, 0, 71, 0
2, 5348, Note_on_c, 0, 73, 44
2, 5352, Note_on_c, 0, 68, 0
2, 5357, Note_on_c, 0, 70, 53
2, 5360, Note_on_c, 0, 73, 0
2, 5361, Note_on_c, 0, 80, 0
2, 5366, Note_on_c, 0, 82, 69
2, 5372, Note_on_c, 0, 82, 0
2, 5372, Note_on_c, 0, 70, 0
2, 5376, Note_on_c, 0, 68, 62
2, 5376, Note_on_c, 0, 80, 67
2, 5386, Note_on_c, 0, 71, 40
2, 5396, Note_on_c, 0, 71, 0
2, 5396, Note_on_c, 0, 73, 43
2, 5400, Note_on_c, 0, 68, 0
2, 5405, Note_on_c, 0, 65, 50
2, 5408, Note_on_c, 0, 73, 0
2, 5409, Note_on_c, 0, 80, 0
2, 5414, Note_on_c, 0, 77, 64
2, 5420, Note_on_c, 0, 77, 0
2, 5420, Note_on_c, 0, 65, 0
2, 5424, Note_on_c, 0, 66, 65
2, 5424, Note_on_c, 0, 78, 71
2, 5434, Note_on_c, 0, 69, 43
2, 5444, Note_on_c, 0, 69, 0
2, 5444, Note_on_c, 0, 72, 45
2, 5448, Note_on_c, 0, 66, 0
2, 5453, Note_on_c, 0, 63, 50
2, 5456, Note_on_c, 0, 72, 0
2, 5457, Note_on_c, 0, 78, 0
2, 5462, Note_on_c, 0, 75, 67
2, 5468, Note_on_c, 0, 75, 0
2, 5468, Note_on_c, 0, 63, 0
2, 5472, Note_on_c, 0, 65, 72
2, 5472, Note_on_c, 0, 77, 77
2, 5482, Note_on_c, 0, 68, 51
2, 5492, Note_on_c, 0, 68, 0
2, 5492, Note_on_c, 0, 73, 40
2, 5496, Note_on_c, 0, 65, 0
2, 5501, Note_on_c, 0, 65, 60
2, 5504, Note_on_c, 0, 73, 0
2, 5505, Note_on_c, 0, 77, 0
2, 5510, Note_on_c, 0, 77, 77
2, 5516, Note_on_c, 0, 77, 0
2, 5516, Note_on_c, 0, 65, 0
2, 5520, Note_on_c, 0, 67, 79
2, 5520, Note_on_c, 0, 79, 84
2, 5530, Note_on_c, 0, 70, 49
2, 5540, Note_on_c, 0, 70, 0
2, 5540, Note_on_c, 0, 76, 55
2, 5544, Note_on_c, 0, 67, 0
2, 5549, Note_on_c, 0, 67, 60
2, 5552, Note_on_c, 0, 76, 0
2, 5553, Note_on_c, 0, 79, 0
2, 5558, Note_on_c, 0, 79, 76
2, 5564, Note_on_c, 0, 79, 0
2, 5564, Note_on_c, 0, 67, 0
2, 5568, Note_on_c, 0, 68, 72
2, 5568, Note_on_c, 0, 80, 82
2, 5584, Note_on_c, 0, 71, 48
2, 5592, Note_on_c, 0, 71, 0
2, 5592, Note_on_c, 0, 76, 50
2, 5596, Note_on_c, 0, 68, 0
2, 5600, Note_on_c, 0, 66, 54
2, 5604, Note_on_c, 0, 76, 0
2, 5604, Note_on_c, 0, 80, 0
2, 5608, Note_on_c, 0, 78, 65
2, 5612, Note_on_c, 0, 78, 0
2, 5612, Note_on_c, 0, 66, 0
2, 5616, Note_on_c, 0, 64, 70
2, 5616, Note_on_c, 0, 76, 80
2, 5632, Note_on_c, 0, 68, 53
2, 5640, Note_on_c, 0, 68, 0
2, 5640, Note_on_c, 0, 71, 55
2, 5644, Note_on_c, 0, 64, 0
2, 5648, Note_on_c, 0, 66, 66
2, 5652, Note_on_c, 0, 71, 0
2, 5652, Note_on_c, 0, 76, 0
2, 5656, Note_on_c, 0, 78, 76
2, 5660, Note_on_c, 0, 78, 0
2, 5660, Note_on_c, 0, 66, 0
2, 5664, Note_on_c, 0, 68, 78
2, 5664, Note_on_c, 0, 80, 86
2, 5680, Note_on_c, 0, 71, 53
2, 5688, Note_on_c, 0, 71, 0
2, 5688, Note_on_c, 0, 76, 53
2, 5692, Note_on_c, 0, 68, 0
2, 5696, Note_on_c, 0, 69, 64
2, 5700, Note_on_c, 0, 76, 0
2, 5700, Note_on_c, 0, 80, 0
2, 5704, Note_on_c, 0, 81, 69
2, 5708, Note_on_c, 0, 81, 0
2, 5708, Note_on_c, 0, 69, 0
2, 5712, Note_on_c, 0, 71, 83
2, 5712, Note_on_c, 0, 83, 90
2, 5728, Note_on_c, 0, 76, 60
2, 5736, Note_on_c, 0, 76, 0
2, 5736, Note_on_c, 0, 80, 67
2, 5740, Note_on_c, 0, 71, 0
2, 5744, Note_on_c, 0, 73, 75
2, 5748, Note_on_c, 0, 80, 0
2, 5748, Note_on_c, 0, 83, 0
2, 5752, Note_on_c, 0, 85, 90
2, 5756, Note_on_c, 0, 85, 0
2, 5756, Note_on_c, 0, 73, 0
2, 5760, Note_on_c, 0, 71, 70
2, 5760, Note_on_c, 0, 83, 92
2, 5776, Note_on_c, 0, 76, 60
2, 5784, Note_on_c, 0, 76, 0
2, 5784, Note_on_c, 0, 80, 65
2, 5788, Note_on_c, 0, 71, 0
2, 5792, Note_on_c, 0, 68, 60
2, 5796, Note_on_c, 0, 80, 0
2, 5796, Note_on_c, 0, 83, 0
2, 5800, Note_on_c, 0, 80, 80
2, 5804, Note_on_c, 0, 80, 0
2, 5804, Note_on_c, 0, 68, 0
2, 5808, Note_on_c, 0, 69, 75
2, 5808, Note_on_c, 0, 81, 95
2, 5824, Note_on_c, 0, 72, 65
2, 5832, Note_on_c, 0, 72, 0
2, 5832, Note_on_c, 0, 78, 69
2, 5836, Note_on_c, 0, 69, 0
2, 5840, Note_on_c, 0, 66, 69
2, 5844, Note_on_c, 0, 78, 0
2, 5844, Note_on_c, 0, 81, 0
2, 5848, Note_on_c, 0, 78, 80
2, 5852, Note_on_c, 0, 78, 0
2, 5852, Note_on_c, 0, 66, 0
2, 5856, Note_on_c, 0, 68, 79
2, 5856, Note_on_c, 0, 80, 87
2, 5872, Note_on_c, 0, 68, 0
2, 5872, Note_on_c, 0, 71, 60
2, 5880, Note_on_c, 0, 71, 0
2, 5880, Note_on_c, 0, 76, 63
2, 5888, Note_on_c, 0, 76, 0
2, 5888, Note_on_c, 0, 72, 60
2, 5896, Note_on_c, 0, 72, 0
2, 5896, Note_on_c, 0, 76, 62
2, 5904, Note_on_c, 0, 76, 0
2, 5904, Note_on_c, 0, 71, 58
2, 5920, Note_on_c, 0, 71, 0
2, 5920, Note_on_c, 0, 68, 58
2, 5928, Note_on_c, 0, 68, 0
2, 5928, Note_on_c, 0, 76, 70
2, 5936, Note_on_c, 0, 76, 0
2, 5936, Note_on_c, 0, 71, 60
2, 5944, Note_on_c, 0, 71, 0
2, 5944, Note_on_c, 0, 76, 59
2, 5948, Note_on_c, 0, 76, 0
2, 5948, Note_on_c, 0, 80, 0
2, 5952, Note_on_c, 0, 68, 80
2, 5952, Note_on_c, 0, 80, 88
2, 5968, Note_on_c, 0, 71, 60
2, 5976, Note_on_c, 0, 71, 0
2, 5976, Note_on_c, 0, 76, 62
2, 5980, Note_on_c, 0, 68, 0
2, 5984, Note_on_c, 0, 66, 60
2, 5988, Note_on_c, 0, 76, 0
2, 5988, Note_on_c, 0, 80, 0
2, 5992, Note_on_c, 0, 78, 80
2, 5996, Note_on_c, 0, 78, 0
2, 5996, Note_on_c, 0, 66, 0
2, 6000, Note_on_c, 0, 64, 80
2, 6000, Note_on_c, 0, 76, 87
2, 6016, Note_on_c, 0, 68, 63
2, 6024, Note_on_c, 0, 68, 0
2, 6024, Note_on_c, 0, 71, 64
2, 6028, Note_on_c, 0, 64, 0
2, 6032, Note_on_c, 0, 66, 62
2, 6036, Note_on_c, 0, 71, 0
2, 6036, Note_on_c, 0, 76, 0
2, 6040, Note_on_c, 0, 78, 85
2, 6044, Note_on_c, 0, 78, 0
2, 6044, Note_on_c, 0, 66, 0
2, 6048, Note_on_c, 0, 68, 80
2, 6048, Note_on_c, 0, 80, 90
2, 6064, Note_on_c, 0, 71, 68
2, 6072, Note_on_c, 0, 71, 0
2, 6072, Note_on_c, 0, 76, 68
2, 6076, Note_on_c, 0, 68, 0
2, 6080, Note_on_c, 0, 69, 62
2, 6084, Note_on_c, 0, 76, 0
2, 6084, Note_on_c, 0, 80, 0
2, 6088, Note_on_c, 0, 81, 88
2, 6092, Note_on_c, 0, 81, 0
2, 6092, Note_on_c, 0, 69, 0
2, 6096, Note_on_c, 0, 71, 83
2, 6096, Note_on_c, 0, 83, 95
2, 6112, Note_on_c, 0, 76, 68
2, 6120, Note_on_c, 0, 76, 0
2, 6120, Note_on_c, 0, 80, 70
2, 6124, Note_on_c, 0, 71, 0
2, 6128, Note_on_c, 0, 73, 70
2, 6132, Note_on_c, 0, 80, 0
2, 6132, Note_on_c, 0, 83, 0
2, 6136, Note_on_c, 0, 85, 93
2, 6140, Note_on_c, 0, 85, 0
2, 6140, Note_on_c, 0, 73, 0
2, 6144, Note_on_c, 0, 74, 93
2, 6144, Note_on_c, 0, 86, 101
2, 6160, Note_on_c, 0, 77, 68
2, 6168, Note_on_c, 0, 77, 0
2, 6168, Note_on_c, 0, 80, 68
2, 6172, Note_on_c, 0, 74, 0
2, 6176, Note_on_c, 0, 73, 80
2, 6180, Note_on_c, 0, 80, 0
2, 6180, Note_on_c, 0, 86, 0
2, 6184, Note_on_c, 0, 85, 95
2, 6188, Note_on_c, 0, 85, 0
2, 6188, Note_on_c, 0, 73, 0
2, 6192, Note_on_c, 0, 74, 88
2, 6192, Note_on_c, 0, 86, 98
2, 6208, Note_on_c, 0, 78, 43
2, 6216, Note_on_c, 0, 78, 0
2, 6216, Note_on_c, 0, 81, 62
2, 6220, Note_on_c, 0, 74, 0
2, 6224, Note_on_c, 0, 73, 66
2, 6228, Note_on_c, 0, 81, 0
2, 6228, Note_on_c, 0, 86, 0
2, 6232, Note_on_c, 0, 85, 95
2, 6236, Note_on_c, 0, 85, 0
2, 6236, Note_on_c, 0, 73, 0
2, 6240, Note_on_c, 0, 74, 95
2, 6240, Note_on_c, 0, 86, 103
2, 6256, Note_on_c, 0, 77, 62
2, 6264, Note_on_c, 0, 77, 0
2, 6264, Note_on_c, 0, 80, 67
2, 6268, Note_on_c, 0, 74, 0
2, 6272, Note_on_c, 0, 73, 70
2, 6276, Note_on_c, 0, 80, 0
2, 6276, Note_on_c, 0, 86, 0
2, 6280, Note_on_c, 0, 85, 100
2, 6284, Note_on_c, 0, 85, 0
2, 6284, Note_on_c, 0, 73, 0
2, 6288, Note_on_c, 0, 76, 98
2, 6288, Note_on_c, 0, 88, 108
2, 6304, Note_on_c, 0, 78, 50
2, 6312, Note_on_c, 0, 78, 0
2, 6312, Note_on_c, 0, 81, 56
2, 6316, Note_on_c, 0, 76, 0
2, 6320, Note_on_c, 0, 74, 75
2, 6324, Note_on_c, 0, 81, 0
2, 6324, Note_on_c, 0, 88, 0
2, 6328, Note_on_c, 0, 86, 95
2, 6332, Note_on_c, 0, 86, 0
2, 6332, Note_on_c, 0, 74, 0
2, 6336, Note_on_c, 0, 74, 93
2, 6336, Note_on_c, 0, 86, 100
2, 6352, Note_on_c, 0, 77, 52
2, 6360, Note_on_c, 0, 77, 0
2, 6360, Note_on_c, 0, 80, 55
2, 6364, Note_on_c, 0, 74, 0
2, 6368, Note_on_c, 0, 73, 66
2, 6372, Note_on_c, 0, 80, 0
2, 6372, Note_on_c, 0, 86, 0
2, 6376, Note_on_c, 0, 85, 85
2, 6380, Note_on_c, 0, 85, 0
2, 6380, Note_on_c, 0, 73, 0
2, 6384, Note_on_c, 0, 73, 80
2, 6384, Note_on_c, 0, 85, 90
2, 6400, Note_on_c, 0, 74, 50
2, 6408, Note_on_c, 0, 74, 0
2, 6408, Note_on_c, 0, 78, 55
2, 6412, Note_on_c, 0, 73, 0
2, 6416, Note_on_c, 0, 71, 70
2, 6420, Note_on_c, 0, 78, 0
2, 6420, Note_on_c, 0, 85, 0
2, 6424, Note_on_c, 0, 83, 85
2, 6428, Note_on_c, 0, 83, 0
2, 6428, Note_on_c, 0, 71, 0
2, 6432, Note_on_c, 0, 69, 70
2, 6432, Note_on_c, 0, 81, 80
2, 6448, Note_on_c, 0, 71, 50
2, 6456, Note_on_c, 0, 71, 0
2, 6456, Note_on_c, 0, 74, 54
2, 6460, Note_on_c, 0, 69, 0
2, 6464, Note_on_c, 0, 68, 54
2, 6468, Note_on_c, 0, 74, 0
2, 6468, Note_on_c, 0, 81, 0
2, 6472, Note_on_c, 0, 80, 72
2, 6476, Note_on_c, 0, 80, 0
2, 6476, Note_on_c, 0, 68, 0
2, 6480, Note_on_c, 0, 68, 74
2, 6480, Note_on_c, 0, 80, 82
2, 6496, Note_on_c, 0, 71, 41
2, 6504, Note_on_c, 0, 71, 0
2, 6504, Note_on_c, 0, 74, 57
2, 6508, Note_on_c, 0, 68, 0
2, 6512, Note_on_c, 0, 66, 49
2, 6516, Note_on_c, 0, 74, 0
2, 6516, Note_on_c, 0, 80, 0
2, 6520, Note_on_c, 0, 78, 60
2, 6524, Note_on_c, 0, 78, 0
2, 6524, Note_on_c, 0, 66, 0
2, 6528, Note_on_c, 0, 66, 72
2, 6528, Note_on_c, 0, 78, 79
2, 6544, Note_on_c, 0, 68, 53
2, 6552, Note_on_c, 0, 68, 0
2, 6552, Note_on_c, 0, 71, 39
2, 6556, Note_on_c, 0, 66, 0
2, 6560, Note_on_c, 0, 65, 65
2, 6564, Note_on_c, 0, 71, 0
2, 6564, Note_on_c, 0, 78, 0
2, 6568, Note_on_c, 0, 77, 70
2, 6572, Note_on_c, 0, 77, 0
2, 6572, Note_on_c, 0, 65, 0
2, 6576, Note_on_c, 0, 74, 72
2, 6592, Note_on_c, 0, 65, 38
2, 6600, Note_on_c, 0, 65, 0
2, 6600, Note_on_c, 0, 68, 42
2, 6608, Note_on_c, 0, 61, 50
2, 6612, Note_on_c, 0, 68, 0
2, 6612, Note_on_c, 0, 74, 0
2, 6616, Note_on_c, 0, 73, 65
2, 6620, Note_on_c, 0, 73, 0
2, 6620, Note_on_c, 0, 61, 0
2, 6624, Note_on_c, 0, 62, 60
2, 6624, Note_on_c, 0, 74, 70
2, 6640, Note_on_c, 0, 65, 38
2, 6648, Note_on_c, 0, 65, 0
2, 6648, Note_on_c, 0, 68, 42
2, 6652, Note_on_c, 0, 62, 0
2, 6656, Note_on_c, 0, 61, 51
2, 6660, Note_on_c, 0, 68, 0
2, 6660, Note_on_c, 0, 74, 0
2, 6660, Note_on_c, 0, 73, 51
2, 6664, Note_on_c, 0, 61, 0
2, 6668, Note_on_c, 0, 73, 0
2, 6672, Note_on_c, 0, 62, 59
2, 6672, Note_on_c, 0, 74, 75
2, 6688, Note_on_c, 0, 66, 40
2, 6696, Note_on_c, 0, 66, 0
2, 6696, Note_on_c, 0, 69, 44
2, 6700, Note_on_c, 0, 62, 0
2, 6704, Note_on_c, 0, 61, 52
2, 6708, Note_on_c, 0, 69, 0
2, 6708, Note_on_c, 0, 74, 0
2, 6708, Note_on_c, 0, 73, 53
2, 6712, Note_on_c, 0, 61, 0
2, 6716, Note_on_c, 0, 73, 0
2, 6720, Note_on_c, 0, 62, 60
2, 6720, Note_on_c, 0, 74, 75
2, 6736, Note_on_c, 0, 65, 36
2, 6744, Note_on_c, 0, 65, 0
2, 6744, Note_on_c, 0, 68, 40
2, 6748, Note_on_c, 0, 62, 0
2, 6752, Note_on_c, 0, 61, 46
2, 6756, Note_on_c, 0, 68, 0
2, 6756, Note_on_c, 0, 74, 0
2, 6760, Note_on_c, 0, 73, 44
2, 6764, Note_on_c, 0, 73, 0
2, 6764, Note_on_c, 0, 61, 0
2, 6784, Note_on_c, 0, 53, 34
2, 6792, Note_on_c, 0, 53, 0
2, 6792, Note_on_c, 0, 56, 38
2, 6800, Note_on_c, 0, 49, 45
2, 6804, Note_on_c, 0, 56, 0
2, 6808, Note_on_c, 0, 61, 56
2, 6812, Note_on_c, 0, 61, 0
2, 6812, Note_on_c, 0, 49, 0
2, 6816, Note_on_c, 0, 50, 53
2, 6816, Note_on_c, 0, 62, 68
2, 6832, Note_on_c, 0, 53, 33
2, 6840, Note_on_c, 0, 53, 0
2, 6840, Note_on_c, 0, 56, 37
2, 6844, Note_on_c, 0, 50, 0
2, 6848, Note_on_c, 0, 49, 40
2, 6852, Note_on_c, 0, 56, 0
2, 6852, Note_on_c, 0, 62, 0
2, 6856, Note_on_c, 0, 61, 50
2, 6860, Note_on_c, 0, 61, 0
2, 6860, Note_on_c, 0, 49, 0
2, 6864, Note_on_c, 0, 50, 48
2, 6864, Note_on_c, 0, 62, 65
2, 6880, Note_on_c, 0, 54, 32
2, 6888, Note_on_c, 0, 54, 0
2, 6888, Note_on_c, 0, 57, 36
2, 6892, Note_on_c, 0, 50, 0
2, 6896, Note_on_c, 0, 49, 40
2, 6900, Note_on_c, 0, 57, 0
2, 6900, Note_on_c, 0, 62, 0
2, 6904, Note_on_c, 0, 61, 50
2, 6908, Note_on_c, 0, 61, 0
2, 6908, Note_on_c, 0, 49, 0
2, 6912, Note_on_c, 0, 50, 44
2, 6912, Note_on_c, 0, 62, 54
2, 6928, Note_on_c, 0, 53, 30
2, 6936, Note_on_c, 0, 53, 0
2, 6936, Note_on_c, 0, 56, 34
2, 6940, Note_on_c, 0, 50, 0
2, 6944, Note_on_c, 0, 49, 39
2, 6948, Note_on_c, 0, 56, 0
2, 6948, Note_on_c, 0, 62, 0
2, 6952, Note_on_c, 0, 61, 44
2, 6956, Note_on_c, 0, 61, 0
2, 6956, Note_on_c, 0, 49, 0
2, 6960, Note_on_c, 0, 50, 38
2, 6960, Note_on_c, 0, 62, 50
2, 6976, Note_on_c, 0, 53, 28
2, 6984, Note_on_c, 0, 53, 0
2, 6984, Note_on_c, 0, 56, 32
2, 6988, Note_on_c, 0, 50, 0
2, 6992, Note_on_c, 0, 49, 32
2, 6996, Note_on_c, 0, 56, 0
2, 6996, Note_on_c, 0, 62, 0
2, 7000, Note_on_c, 0, 61, 42
2, 7004, Note_on_c, 0, 61, 0
2, 7004, Note_on_c, 0, 49, 0
2, 7008, Note_on_c, 0, 50, 30
2, 7008, Note_on_c, 0, 62, 40
2, 7040, Note_on_c, 0, 53, 24
2, 7056, Note_on_c, 0, 53, 0
2, 7056, Note_on_c, 0, 56, 28
2, 7064, Note_on_c, 0, 50, 0
2, 7072, Note_on_c, 0, 49, 27
2, 7080, Note_on_c, 0, 56, 0
2, 7080, Note_on_c, 0, 62, 0
2, 7088, Note_on_c, 0, 61, 26
2, 7096, Note_on_c, 0, 49, 0
2, 7126, Note_on_c, 0, 61, 0
2, 7152, Note_on_c, 0, 70, 51
2, 7188, Note_on_c, 0, 70, 0
2, 7188, Note_on_c, 0, 71, 46
2, 7200, Note_on_c, 0, 71, 0
2, 7200, Note_on_c, 0, 70, 53
2, 7224, Note_on_c, 0, 70, 0
2, 7224, Note_on_c, 0, 68, 48
2, 7248, Note_on_c, 0, 68, 0
2, 7248, Note_on_c, 0, 65, 48
2, 7284, Note_on_c, 0, 65, 0
2, 7284, Note_on_c, 0, 61, 45
2, 7292, Note_on_c, 0, 61, 0
2, 7296, Note_on_c, 0, 61, 45
2, 7320, Note_on_c, 0, 61, 0
2, 7344, Note_on_c, 0, 61, 44
2, 7368, Note_on_c, 0, 61, 0
2, 7392, Note_on_c, 0, 61, 50
2, 7452, Note_on_c, 0, 61, 0
2, 7452, Note_on_c, 0, 66, 46
2, 7464, Note_on_c, 0, 66, 0
2, 7464, Note_on_c, 0, 70, 50
2, 7476, Note_on_c, 0, 70, 0
2, 7476, Note_on_c, 0, 75, 54
2, 7488, Note_on_c, 0, 75, 0
2, 7488, Note_on_c, 0, 73, 50
2, 7512, Note_on_c, 0, 73, 0
2, 7536, Note_on_c, 0, 70, 37
2, 7543, Note_on_c, 0, 70, 0
2, 7543, Note_on_c, 0, 71, 40
2, 7550, Note_on_c, 0, 71, 0
2, 7550, Note_on_c, 0, 70, 44
2, 7557, Note_on_c, 0, 70, 0
2, 7557, Note_on_c, 0, 69, 46
2, 7563, Note_on_c, 0, 69, 0
2, 7563, Note_on_c, 0, 70, 42
2, 7570, Note_on_c, 0, 70, 0
2, 7570, Note_on_c, 0, 73, 38
2, 7577, Note_on_c, 0, 73, 0
2, 7577, Note_on_c, 0, 72, 36
2, 7584, Note_on_c, 0, 72, 0
2, 7584, Note_on_c, 0, 71, 40
2, 7590, Note_on_c, 0, 71, 0
2, 7590, Note_on_c, 0, 80, 35
2, 7596, Note_on_c, 0, 80, 0
2, 7596, Note_on_c, 0, 71, 41
2, 7602, Note_on_c, 0, 71, 0
2, 7602, Note_on_c, 0, 70, 52
2, 7607, Note_on_c, 0, 70, 0
2, 7607, Note_on_c, 0, 79, 53
2, 7612, Note_on_c, 0, 79, 0
2, 7612, Note_on_c, 0, 70, 41
2, 7617, Note_on_c, 0, 70, 0
2, 7617, Note_on_c, 0, 69, 59
2, 7622, Note_on_c, 0, 69, 0
2, 7622, Note_on_c, 0, 78, 60
2, 7627, Note_on_c, 0, 78, 0
2, 7627, Note_on_c, 0, 69, 60
2, 7632, Note_on_c, 0, 69, 0
2, 7632, Note_on_c, 0, 68, 60
2, 7637, Note_on_c, 0, 68, 0
2, 7637, Note_on_c, 0, 77, 54
2, 7642, Note_on_c, 0, 77, 0
2, 7642, Note_on_c, 0, 68, 53
2, 7647, Note_on_c, 0, 68, 0
2, 7647, Note_on_c, 0, 67, 53
2, 7652, Note_on_c, 0, 67, 0
2, 7652, Note_on_c, 0, 76, 55
2, 7657, Note_on_c, 0, 76, 0
2, 7657, Note_on_c, 0, 67, 56
2, 7662, Note_on_c, 0, 66, 67
2, 7663, Note_on_c, 0, 67, 0
2, 7668, Note_on_c, 0, 66, 0
2, 7668, Note_on_c, 0, 75, 60
2, 7674, Note_on_c, 0, 75, 0
2, 7674, Note_on_c, 0, 66, 50
2, 7680, Note_on_c, 0, 66, 0
2, 7680, Note_on_c, 0, 65, 71
2, 7684, Note_on_c, 0, 65, 0
2, 7684, Note_on_c, 0, 74, 60
2, 7688, Note_on_c, 0, 74, 0
2, 7688, Note_on_c, 0, 73, 70
2, 7692, Note_on_c, 0, 73, 0
2, 7692, Note_on_c, 0, 72, 53
2, 7696, Note_on_c, 0, 72, 0
2, 7696, Note_on_c, 0, 71, 58
2, 7700, Note_on_c, 0, 71, 0
2, 7700, Note_on_c, 0, 70, 69
2, 7704, Note_on_c, 0, 70, 0
2, 7704, Note_on_c, 0, 69, 71
2, 7708, Note_on_c, 0, 69, 0
2, 7708, Note_on_c, 0, 68, 50
2, 7712, Note_on_c, 0, 68, 0
2, 7712, Note_on_c, 0, 67, 69
2, 7716, Note_on_c, 0, 67, 0
2, 7716, Note_on_c, 0, 66, 45
2, 7720, Note_on_c, 0, 66, 0
2, 7720, Note_on_c, 0, 65, 65
2, 7724, Note_on_c, 0, 65, 0
2, 7724, Note_on_c, 0, 66, 52
2, 7728, Note_on_c, 0, 66, 0
2, 7728, Note_on_c, 0, 65, 65
2, 7732, Note_on_c, 0, 65, 0
2, 7732, Note_on_c, 0, 63, 61
2, 7736, Note_on_c, 0, 63, 0
2, 7736, Note_on_c, 0, 65, 52
2, 7740, Note_on_c, 0, 65, 0
2, 7740, Note_on_c, 0, 66, 59
2, 7744, Note_on_c, 0, 66, 0
2, 7744, Note_on_c, 0, 70, 50
2, 7748, Note_on_c, 0, 70, 0
2, 7748, Note_on_c, 0, 68, 44
2, 7752, Note_on_c, 0, 68, 0
2, 7752, Note_on_c, 0, 65, 42
2, 7756, Note_on_c, 0, 65, 0
2, 7756, Note_on_c, 0, 66, 40
2, 7760, Note_on_c, 0, 66, 0
2, 7760, Note_on_c, 0, 63, 38
2, 7765, Note_on_c, 0, 63, 0
2, 7765, Note_on_c, 0, 68, 37
2, 7770, Note_on_c, 0, 68, 0
2, 7772, Note_on_c, 0, 68, 46
2, 7776, Note_on_c, 0, 68, 0
2, 7776, Note_on_c, 0, 61, 48
2, 7830, Note_on_c, 0, 61, 0
2, 7830, Note_on_c, 0, 66, 56
2, 7836, Note_on_c, 0, 66, 0
2, 7836, Note_on_c, 0, 70, 50
2, 7842, Note_on_c, 0, 70, 0
2, 7842, Note_on_c, 0, 73, 68
2, 7848, Note_on_c, 0, 73, 0
2, 7848, Note_on_c, 0, 70, 62
2, 7854, Note_on_c, 0, 70, 0
2, 7854, Note_on_c, 0, 78, 78
2, 7860, Note_on_c, 0, 78, 0
2, 7866, Note_on_c, 0, 75, 72
2, 7872, Note_on_c, 0, 75, 0
2, 7872, Note_on_c, 0, 73, 66
2, 7908, Note_on_c, 0, 73, 0
2, 7920, Note_on_c, 0, 71, 70
2, 7956, Note_on_c, 0, 71, 0
2, 7956, Note_on_c, 0, 73, 66
2, 7968, Note_on_c, 0, 73, 0
2, 7968, Note_on_c, 0, 71, 60
2, 7992, Note_on_c, 0, 71, 0
2, 7992, Note_on_c, 0, 70, 65
2, 8016, Note_on_c, 0, 70, 0
2, 8016, Note_on_c, 0, 67, 66
2, 8052, Note_on_c, 0, 67, 0
2, 8052, Note_on_c, 0, 63, 67
2, 8060, Note_on_c, 0, 63, 0
2, 8064, Note_on_c, 0, 63, 66
2, 8088, Note_on_c, 0, 63, 0
2, 8112, Note_on_c, 0, 63, 74
2, 8136, Note_on_c, 0, 63, 0
2, 8160, Note_on_c, 0, 63, 77
2, 8168, Note_on_c, 0, 63, 0
2, 8176, Note_on_c, 0, 78, 82
2, 8184, Note_on_c, 0, 78, 0
2, 8192, Note_on_c, 0, 75, 78
2, 8200, Note_on_c, 0, 75, 0
2, 8208, Note_on_c, 0, 90, 91
2, 8264, Note_on_c, 0, 90, 0
2, 8264, Note_on_c, 0, 94, 81
2, 8272, Note_on_c, 0, 94, 0
2, 8272, Note_on_c, 0, 92, 76
2, 8280, Note_on_c, 0, 92, 0
2, 8280, Note_on_c, 0, 90, 72
2, 8288, Note_on_c, 0, 90, 0
2, 8288, Note_on_c, 0, 87, 69
2, 8296, Note_on_c, 0, 87, 0
2, 8296, Note_on_c, 0, 83, 66
2, 8304, Note_on_c, 0, 83, 0
2, 8304, Note_on_c, 0, 82, 61
2, 8312, Note_on_c, 0, 82, 0
2, 8312, Note_on_c, 0, 80, 58
2, 8320, Note_on_c, 0, 80, 0
2, 8320, Note_on_c, 0, 78, 56
2, 8328, Note_on_c, 0, 78, 0
2, 8328, Note_on_c, 0, 75, 54
2, 8336, Note_on_c, 0, 75, 0
2, 8336, Note_on_c, 0, 66, 56
2, 8344, Note_on_c, 0, 66, 0
2, 8344, Note_on_c, 0, 68, 52
2, 8352, Note_on_c, 0, 68, 0
2, 8352, Note_on_c, 0, 70, 46
2, 8376, Note_on_c, 0, 70, 0
2, 8400, Note_on_c, 0, 71, 50
2, 8436, Note_on_c, 0, 71, 0
2, 8436, Note_on_c, 0, 70, 41
2, 8448, Note_on_c, 0, 70, 0
2, 8448, Note_on_c, 0, 68, 40
2, 8454, Note_on_c, 0, 68, 0
2, 8454, Note_on_c, 0, 70, 38
2, 8459, Note_on_c, 0, 70, 0
2, 8459, Note_on_c, 0, 68, 33
2, 8464, Note_on_c, 0, 68, 0
2, 8464, Note_on_c, 0, 70, 35
2, 8469, Note_on_c, 0, 70, 0
2, 8469, Note_on_c, 0, 68, 33
2, 8474, Note_on_c, 0, 68, 0
2, 8474, Note_on_c, 0, 70, 35
2, 8479, Note_on_c, 0, 70, 0
2, 8479, Note_on_c, 0, 68, 33
2, 8484, Note_on_c, 0, 68, 0
2, 8484, Note_on_c, 0, 67, 34
2, 8490, Note_on_c, 0, 67, 0
2, 8490, Note_on_c, 0, 68, 40
2, 8496, Note_on_c, 0, 68, 0
2, 8496, Note_on_c, 0, 70, 47
2, 8532, Note_on_c, 0, 70, 0
2, 8532, Note_on_c, 0, 68, 45
2, 8542, Note_on_c, 0, 68, 0
2, 8544, Note_on_c, 0, 66, 50
2, 8544, Note_on_c, 0, 75, 55
2, 8556, Note_on_c, 0, 66, 0
2, 8580, Note_on_c, 0, 75, 0
2, 8580, Note_on_c, 0, 73, 51
2, 8588, Note_on_c, 0, 73, 0
2, 8592, Note_on_c, 0, 73, 46
2, 8608, Note_on_c, 0, 73, 0
2, 8608, Note_on_c, 0, 71, 53
2, 8624, Note_on_c, 0, 71, 0
2, 8624, Note_on_c, 0, 70, 48
2, 8632, Note_on_c, 0, 70, 0
2, 8632, Note_on_c, 0, 67, 48
2, 8636, Note_on_c, 0, 67, 0
2, 8636, Note_on_c, 0, 68, 45
2, 8640, Note_on_c, 0, 68, 0
2, 8640, Note_on_c, 0, 70, 40
2, 8645, Note_on_c, 0, 70, 0
2, 8645, Note_on_c, 0, 68, 35
2, 8650, Note_on_c, 0, 68, 0
2, 8650, Note_on_c, 0, 70, 35
2, 8655, Note_on_c, 0, 70, 0
2, 8655, Note_on_c, 0, 68, 33
2, 8660, Note_on_c, 0, 68, 0
2, 8660, Note_on_c, 0, 70, 33
2, 8665, Note_on_c, 0, 70, 0
2, 8665, Note_on_c, 0, 68, 33
2, 8669, Note_on_c, 0, 70, 34
2, 8670, Note_on_c, 0, 68, 0
2, 8673, Note_on_c, 0, 68, 35
2, 8674, Note_on_c, 0, 70, 0
2, 8678, Note_on_c, 0, 68, 0
2, 8678, Note_on_c, 0, 67, 38
2, 8683, Note_on_c, 0, 67, 0
2, 8683, Note_on_c, 0, 68, 43
2, 8688, Note_on_c, 0, 68, 0
2, 8688, Note_on_c, 0, 65, 36
2, 8688, Note_on_c, 0, 70, 44
2, 8712, Note_on_c, 0, 70, 0
2, 8724, Note_on_c, 0, 68, 56
2, 8734, Note_on_c, 0, 68, 0
2, 8734, Note_on_c, 0, 65, 0
2, 8736, Note_on_c, 0, 66, 62
2, 8752, Note_on_c, 0, 78, 70
2, 8768, Note_on_c, 0, 78, 0
2, 8768, Note_on_c, 0, 77, 74
2, 8784, Note_on_c, 0, 77, 0
2, 8784, Note_on_c, 0, 80, 78
2, 8796, Note_on_c, 0, 80, 0
2, 8808, Note_on_c, 0, 79, 60
2, 8812, Note_on_c, 0, 79, 0
2, 8814, Note_on_c, 0, 78, 56
2, 8818, Note_on_c, 0, 78, 0
2, 8820, Note_on_c, 0, 77, 54
2, 8824, Note_on_c, 0, 77, 0
2, 8826, Note_on_c, 0, 76, 60
2, 8830, Note_on_c, 0, 76, 0
2, 8832, Note_on_c, 0, 75, 56
2, 8836, Note_on_c, 0, 75, 0
2, 8840, Note_on_c, 0, 71, 40
2, 8844, Note_on_c, 0, 71, 0
2, 8848, Note_on_c, 0, 74, 45
2, 8852, Note_on_c, 0, 74, 0
2, 8856, Note_on_c, 0, 70, 38
2, 8860, Note_on_c, 0, 70, 0
2, 8864, Note_on_c, 0, 73, 50
2, 8868, Note_on_c, 0, 73, 0
2, 8872, Note_on_c, 0, 69, 33
2, 8876, Note_on_c, 0, 69, 0
2, 8880, Note_on_c, 0, 72, 52
2, 8884, Note_on_c, 0, 72, 0
2, 8888, Note_on_c, 0, 68, 46
2, 8892, Note_on_c, 0, 68, 0
2, 8892, Note_on_c, 0, 66, 0
2, 8896, Note_on_c, 0, 71, 43
2, 8904, Note_on_c, 0, 65, 35
2, 8920, Note_on_c, 0, 71, 0
2, 8920, Note_on_c, 0, 70, 35
2, 8936, Note_on_c, 0, 70, 0
2, 8936, Note_on_c, 0, 68, 33
2, 8944, Note_on_c, 0, 65, 0
2, 8952, Note_on_c, 0, 68, 0
2, 8952, Note_on_c, 0, 66, 40
2, 8976, Note_on_c, 0, 66, 0
2, 9000, Note_on_c, 0, 99, 74
2, 9072, Note_on_c, 0, 99, 0
2, 9072, Note_on_c, 0, 97, 49
2, 9080, Note_on_c, 0, 97, 0
2, 9080, Note_on_c, 0, 94, 45
2, 9088, Note_on_c, 0, 94, 0
2, 9088, Note_on_c, 0, 90, 41
2, 9096, Note_on_c, 0, 90, 0
2, 9096, Note_on_c, 0, 95, 64
2, 9120, Note_on_c, 0, 95, 0
2, 9120, Note_on_c, 0, 94, 48
2, 9128, Note_on_c, 0, 94, 0
2, 9128, Note_on_c, 0, 90, 44
2, 9136, Note_on_c, 0, 90, 0
2, 9136, Note_on_c, 0, 85, 40
2, 9144, Note_on_c, 0, 85, 0
2, 9144, Note_on_c, 0, 92, 56
2, 9168, Note_on_c, 0, 92, 0
2, 9168, Note_on_c, 0, 90, 45
2, 9176, Note_on_c, 0, 90, 0
2, 9176, Note_on_c, 0, 85, 42
2, 9184, Note_on_c, 0, 85, 0
2, 9184, Note_on_c, 0, 82, 40
2, 9192, Note_on_c, 0, 82, 0
2, 9192, Note_on_c, 0, 87, 53
2, 9216, Note_on_c, 0, 87, 0
2, 9216, Note_on_c, 0, 85, 39
2, 9224, Note_on_c, 0, 85, 0
2, 9224, Note_on_c, 0, 82, 35
2, 9232, Note_on_c, 0, 82, 0
2, 9232, Note_on_c, 0, 78, 37
2, 9240, Note_on_c, 0, 78, 0
2, 9240, Note_on_c, 0, 83, 60
2, 9264, Note_on_c, 0, 83, 0
2, 9264, Note_on_c, 0, 82, 55
2, 9272, Note_on_c, 0, 82, 0
2, 9272, Note_on_c, 0, 78, 37
2, 9280, Note_on_c, 0, 78, 0
2, 9280, Note_on_c, 0, 73, 50
2, 9288, Note_on_c, 0, 73, 0
2, 9288, Note_on_c, 0, 80, 39
2, 9312, Note_on_c, 0, 80, 0
2, 9312, Note_on_c, 0, 78, 37
2, 9318, Note_on_c, 0, 78, 0
2, 9318, Note_on_c, 0, 73, 41
2, 9324, Note_on_c, 0, 73, 0
2, 9324, Note_on_c, 0, 70, 41
2, 9336, Note_on_c, 0, 70, 0
2, 9336, Note_on_c, 0, 75, 48
2, 9344, Note_on_c, 0, 75, 0
2, 9344, Note_on_c, 0, 73, 44
2, 9352, Note_on_c, 0, 73, 0
2, 9352, Note_on_c, 0, 70, 42
2, 9360, Note_on_c, 0, 70, 0
2, 9360, Note_on_c, 0, 66, 40
2, 9368, Note_on_c, 0, 66, 0
2, 9368, Note_on_c, 0, 71, 42
2, 9376, Note_on_c, 0, 71, 0
2, 9376, Note_on_c, 0, 70, 40
2, 9384, Note_on_c, 0, 70, 0
2, 9384, Note_on_c, 0, 66, 39
2, 9392, Note_on_c, 0, 66, 0
2, 9392, Note_on_c, 0, 61, 38
2, 9400, Note_on_c, 0, 61, 0
2, 9400, Note_on_c, 0, 68, 40
2, 9408, Note_on_c, 0, 68, 0
2, 9408, Note_on_c, 0, 66, 38
2, 9416, Note_on_c, 0, 66, 0
2, 9416, Note_on_c, 0, 61, 37
2, 9424, Note_on_c, 0, 61, 0
2, 9424, Note_on_c, 0, 58, 36
2, 9432, Note_on_c, 0, 58, 0
2, 9432, Note_on_c, 0, 63, 40
2, 9440, Note_on_c, 0, 63, 0
2, 9440, Note_on_c, 0, 61, 39
2, 9448, Note_on_c, 0, 61, 0
2, 9448, Note_on_c, 0, 58, 38
2, 9456, Note_on_c, 0, 58, 0
2, 9456, Note_on_c, 0, 54, 37
2, 9464, Note_on_c, 0, 54, 0
2, 9464, Note_on_c, 0, 49, 36
2, 9472, Note_on_c, 0, 49, 0
2, 9472, Note_on_c, 0, 58, 38
2, 9480, Note_on_c, 0, 58, 0
2, 9480, Note_on_c, 0, 63, 40
2, 9488, Note_on_c, 0, 63, 0
2, 9488, Note_on_c, 0, 61, 38
2, 9496, Note_on_c, 0, 61, 0
2, 9496, Note_on_c, 0, 58, 37
2, 9504, Note_on_c, 0, 58, 0
2, 9504, Note_on_c, 0, 54, 36
2, 9512, Note_on_c, 0, 54, 0
2, 9512, Note_on_c, 0, 49, 34
2, 9520, Note_on_c, 0, 49, 0
2, 9520, Note_on_c, 0, 58, 36
2, 9528, Note_on_c, 0, 58, 0
2, 9528, Note_on_c, 0, 63, 42
2, 9536, Note_on_c, 0, 63, 0
2, 9536, Note_on_c, 0, 61, 35
2, 9544, Note_on_c, 0, 61, 0
2, 9544, Note_on_c, 0, 58, 34
2, 9552, Note_on_c, 0, 58, 0
2, 9552, Note_on_c, 0, 54, 33
2, 9560, Note_on_c, 0, 54, 0
2, 9560, Note_on_c, 0, 49, 32
2, 9568, Note_on_c, 0, 49, 0
2, 9568, Note_on_c, 0, 58, 34
2, 9576, Note_on_c, 0, 58, 0
2, 9576, Note_on_c, 0, 63, 36
2, 9584, Note_on_c, 0, 63, 0
2, 9584, Note_on_c, 0, 61, 35
2, 9592, Note_on_c, 0, 61, 0
2, 9592, Note_on_c, 0, 58, 33
2, 9600, Note_on_c, 0, 58, 0
2, 9600, Note_on_c, 0, 54, 32
2, 9608, Note_on_c, 0, 54, 0
2, 9608, Note_on_c, 0, 49, 31
2, 9616, Note_on_c, 0, 49, 0
2, 9616, Note_on_c, 0, 58, 32
2, 9624, Note_on_c, 0, 58, 0
2, 9624, Note_on_c, 0, 63, 32
2, 9632, Note_on_c, 0, 63, 0
2, 9632, Note_on_c, 0, 61, 30
2, 9640, Note_on_c, 0, 61, 0
2, 9640, Note_on_c, 0, 58, 28
2, 9648, Note_on_c, 0, 58, 0
2, 9648, Note_on_c, 0, 54, 27
2, 9656, Note_on_c, 0, 54, 0
2, 9656, Note_on_c, 0, 49, 24
2, 9664, Note_on_c, 0, 49, 0
2, 9664, Note_on_c, 0, 58, 26
2, 9672, Note_on_c, 0, 58, 0
2, 9672, Note_on_c, 0, 63, 30
2, 9688, Note_on_c, 0, 63, 0
2, 9688, Note_on_c, 0, 61, 28
2, 9704, Note_on_c, 0, 61, 0
2, 9704, Note_on_c, 0, 58, 27
2, 9720, Note_on_c, 0, 58, 0
2, 9720, Note_on_c, 0, 54, 26
2, 9744, Note_on_c, 0, 54, 0
2, 9744, Note_on_c, 0, 49, 25
2, 9768, Note_on_c, 0, 49, 0
2, 9768, Note_on_c, 0, 61, 24
2, 9816, Note_on_c, 0, 61, 0
2, 9816, Note_on_c, 0, 70, 29
2, 9960, Note_on_c, 0, 70, 0
2, 10008, End_track
3, 0, Start_track
3, 0, Title_t, "PIANO(LEFT HAND)"
3, 0, MIDI_port, 0
3, 192, Note_on_c, 0, 37, 34
3, 240, Note_on_c, 0, 37, 0
3, 240, Note_on_c, 0, 49, 35
3, 288, Note_on_c, 0, 49, 0
3, 288, Note_on_c, 0, 53, 23
3, 288, Note_on_c, 0, 59, 28
3, 336, Note_on_c, 0, 59, 0
3, 336, Note_on_c, 0, 53, 0
3, 336, Note_on_c, 0, 49, 31
3, 378, Note_on_c, 0, 49, 0
3, 384, Note_on_c, 0, 42, 33
3, 432, Note_on_c, 0, 42, 0
3, 432, Note_on_c, 0, 49, 31
3, 480, Note_on_c, 0, 49, 0
3, 480, Note_on_c, 0, 54, 23
3, 480, Note_on_c, 0, 58, 28
3, 528, Note_on_c, 0, 58, 0
3, 528, Note_on_c, 0, 54, 0
3, 528, Note_on_c, 0, 49, 31
3, 570, Note_on_c, 0, 49, 0
3, 576, Note_on_c, 0, 37, 33
3, 624, Note_on_c, 0, 37, 0
3, 624, Note_on_c, 0, 49, 30
3, 672, Note_on_c, 0, 49, 0
3, 672, Note_on_c, 0, 53, 22
3, 672, Note_on_c, 0, 59, 27
3, 720, Note_on_c, 0, 59, 0
3, 720, Note_on_c, 0, 53, 0
3, 720, Note_on_c, 0, 49, 25
3, 762, Note_on_c, 0, 49, 0
3, 768, Note_on_c, 0, 42, 28
3, 816, Note_on_c, 0, 42, 0
3, 816, Note_on_c, 0, 49, 32
3, 864, Note_on_c, 0, 49, 0
3, 864, Note_on_c, 0, 54, 20
3, 864, Note_on_c, 0, 58, 24
3, 864, Note_on_c, 0, 61, 28
3, 906, Note_on_c, 0, 61, 0
3, 906, Note_on_c, 0, 58, 0
3, 906, Note_on_c, 0, 54, 0
3, 960, Note_on_c, 0, 39, 40
3, 1008, Note_on_c, 0, 39, 0
3, 1008, Note_on_c, 0, 51, 36
3, 1056, Note_on_c, 0, 51, 0
3, 1056, Note_on_c, 0, 55, 36
3, 1056, Note_on_c, 0, 61, 44
3, 1104, Note_on_c, 0, 61, 0
3, 1104, Note_on_c, 0, 55, 0
3, 1104, Note_on_c, 0, 51, 34
3, 1146, Note_on_c, 0, 51, 0
3, 1152, Note_on_c, 0, 44, 44
3, 1176, Note_on_c, 0, 44, 0
3, 1200, Note_on_c, 0, 51, 30
3, 1200, Note_on_c, 0, 56, 35
3, 1200, Note_on_c, 0, 59, 40
3, 1248, Note_on_c, 0, 59, 0
3, 1248, Note_on_c, 0, 56, 0
3, 1248, Note_on_c, 0, 51, 0
3, 1248, Note_on_c, 0, 47, 46
3, 1272, Note_on_c, 0, 47, 0
3, 1296, Note_on_c, 0, 51, 34
3, 1296, Note_on_c, 0, 56, 38
3, 1296, Note_on_c, 0, 63, 42
3, 1338, Note_on_c, 0, 51, 0
3, 1344, Note_on_c, 0, 49, 47
3, 1386, Note_on_c, 0, 63, 0
3, 1386, Note_on_c, 0, 56, 0
3, 1392, Note_on_c, 0, 54, 29
3, 1392, Note_on_c, 0, 63, 42
3, 1428, Note_on_c, 0, 63, 0
3, 1440, Note_on_c, 0, 60, 40
3, 1476, Note_on_c, 0, 60, 0
3, 1482, Note_on_c, 0, 54, 0
3, 1488, Note_on_c, 0, 53, 38
3, 1488, Note_on_c, 0, 61, 43
3, 1512, Note_on_c, 0, 61, 0
3, 1512, Note_on_c, 0, 53, 0
3, 1512, Note_on_c, 0, 49, 0
3, 1524, Note_on_c, 0, 50, 35
3, 1524, Note_on_c, 0, 59, 40
3, 1532, Note_on_c, 0, 59, 0
3, 1532, Note_on_c, 0, 50, 0
3, 1536, Note_on_c, 0, 51, 32
3, 1536, Note_on_c, 0, 54, 34
3, 1536, Note_on_c, 0, 58, 38
3, 1572, Note_on_c, 0, 58, 0
3, 1572, Note_on_c, 0, 51, 0
3, 1584, Note_on_c, 0, 48, 26
3, 1584, Note_on_c, 0, 57, 30
3, 1620, Note_on_c, 0, 57, 0
3, 1620, Note_on_c, 0, 48, 0
3, 1620, Note_on_c, 0, 54, 0
3, 1632, Note_on_c, 0, 49, 22
3, 1632, Note_on_c, 0, 53, 26
3, 1656, Note_on_c, 0, 53, 0
3, 1656, Note_on_c, 0, 49, 0
3, 1668, Note_on_c, 0, 42, 42
3, 1672, Note_on_c, 0, 49, 40
3, 1676, Note_on_c, 0, 54, 38
3, 1712, Note_on_c, 0, 54, 0
3, 1712, Note_on_c, 0, 49, 0
3, 1712, Note_on_c, 0, 42, 0
3, 1736, Note_on_c, 0, 37, 27
3, 1776, Note_on_c, 0, 37, 0
3, 1776, Note_on_c, 0, 49, 27
3, 1824, Note_on_c, 0, 49, 0
3, 1824, Note_on_c, 0, 53, 19
3, 1824, Note_on_c, 0, 59, 25
3, 1872, Note_on_c, 0, 59, 0
3, 1872, Note_on_c, 0, 53, 0
3, 1872, Note_on_c, 0, 49, 24
3, 1920, Note_on_c, 0, 49, 0
3, 1920, Note_on_c, 0, 42, 22
3, 1968, Note_on_c, 0, 42, 0
3, 1968, Note_on_c, 0, 49, 23
3, 2016, Note_on_c, 0, 49, 0
3, 2016, Note_on_c, 0, 54, 18
3, 2016, Note_on_c, 0, 58, 26
3, 2064, Note_on_c, 0, 58, 0
3, 2064, Note_on_c, 0, 54, 0
3, 2064, Note_on_c, 0, 49, 37
3, 2112, Note_on_c, 0, 49, 0
3, 2112, Note_on_c, 0, 42, 35
3, 2158, Note_on_c, 0, 42, 0
3, 2158, Note_on_c, 0, 50, 38
3, 2210, Note_on_c, 0, 50, 0
3, 2210, Note_on_c, 0, 56, 35
3, 2210, Note_on_c, 0, 59, 40
3, 2258, Note_on_c, 0, 59, 0
3, 2258, Note_on_c, 0, 56, 0
3, 2258, Note_on_c, 0, 49, 35
3, 2304, Note_on_c, 0, 49, 0
3, 2304, Note_on_c, 0, 42, 40
3, 2352, Note_on_c, 0, 42, 0
3, 2352, Note_on_c, 0, 49, 42
3, 2388, Note_on_c, 0, 49, 0
3, 2400, Note_on_c, 0, 54, 26
3, 2400, Note_on_c, 0, 58, 30
3, 2400, Note_on_c, 0, 61, 32
3, 2448, Note_on_c, 0, 61, 0
3, 2448, Note_on_c, 0, 58, 0
3, 2448, Note_on_c, 0, 54, 0
3, 2496, Note_on_c, 0, 39, 41
3, 2544, Note_on_c, 0, 39, 0
3, 2544, Note_on_c, 0, 51, 43
3, 2592, Note_on_c, 0, 51, 0
3, 2592, Note_on_c, 0, 55, 40
3, 2592, Note_on_c, 0, 61, 40
3, 2640, Note_on_c, 0, 61, 0
3, 2640, Note_on_c, 0, 55, 0
3, 2640, Note_on_c, 0, 51, 50
3, 2688, Note_on_c, 0, 51, 0
3, 2688, Note_on_c, 0, 44, 64
3, 2712, Note_on_c, 0, 44, 0
3, 2736, Note_on_c, 0, 51, 45
3, 2736, Note_on_c, 0, 56, 50
3, 2736, Note_on_c, 0, 59, 55
3, 2760, Note_on_c, 0, 59, 0
3, 2760, Note_on_c, 0, 56, 0
3, 2760, Note_on_c, 0, 51, 0
3, 2784, Note_on_c, 0, 54, 45
3, 2784, Note_on_c, 0, 56, 45
3, 2784, Note_on_c, 0, 59, 53
3, 2784, Note_on_c, 0, 63, 60
3, 2808, Note_on_c, 0, 63, 0
3, 2808, Note_on_c, 0, 59, 0
3, 2808, Note_on_c, 0, 56, 0
3, 2808, Note_on_c, 0, 54, 0
3, 2832, Note_on_c, 0, 56, 32
3, 2832, Note_on_c, 0, 59, 36
3, 2832, Note_on_c, 0, 63, 40
3, 2832, Note_on_c, 0, 66, 44
3, 2856, Note_on_c, 0, 66, 0
3, 2856, Note_on_c, 0, 63, 0
3, 2856, Note_on_c, 0, 59, 0
3, 2856, Note_on_c, 0, 56, 0
3, 2880, Note_on_c, 0, 37, 44
3, 2880, Note_on_c, 0, 49, 50
3, 2904, Note_on_c, 0, 37, 0
3, 2928, Note_on_c, 0, 54, 32
3, 2928, Note_on_c, 0, 63, 38
3, 2964, Note_on_c, 0, 63, 0
3, 2976, Note_on_c, 0, 60, 34
3, 3012, Note_on_c, 0, 60, 0
3, 3012, Note_on_c, 0, 54, 0
3, 3018, Note_on_c, 0, 49, 0
3, 3024, Note_on_c, 0, 53, 27
3, 3024, Note_on_c, 0, 61, 35
3, 3048, Note_on_c, 0, 61, 0
3, 3048, Note_on_c, 0, 53, 0
3, 3060, Note_on_c, 0, 59, 36
3, 3066, Note_on_c, 0, 59, 0
3, 3072, Note_on_c, 0, 42, 35
3, 3108, Note_on_c, 0, 42, 0
3, 3120, Note_on_c, 0, 58, 26
3, 3120, Note_on_c, 0, 61, 32
3, 3156, Note_on_c, 0, 61, 0
3, 3156, Note_on_c, 0, 58, 0
3, 3168, Note_on_c, 0, 54, 20
3, 3168, Note_on_c, 0, 58, 26
3, 3204, Note_on_c, 0, 58, 0
3, 3204, Note_on_c, 0, 54, 0
3, 3264, Note_on_c, 0, 37, 26
3, 3288, Note_on_c, 0, 37, 0
3, 3312, Note_on_c, 0, 56, 21
3, 3312, Note_on_c, 0, 61, 23
3, 3312, Note_on_c, 0, 65, 25
3, 3336, Note_on_c, 0, 65, 0
3, 3336, Note_on_c, 0, 61, 0
3, 3336, Note_on_c, 0, 56, 0
3, 3360, Note_on_c, 0, 53, 24
3, 3360, Note_on_c, 0, 56, 27
3, 3360, Note_on_c, 0, 61, 34
3, 3384, Note_on_c, 0, 61, 0
3, 3384, Note_on_c, 0, 56, 0
3, 3384, Note_on_c, 0, 53, 0
3, 3408, Note_on_c, 0, 56, 18
3, 3408, Note_on_c, 0, 61, 22
3, 3408, Note_on_c, 0, 65, 24
3, 3432, Note_on_c, 0, 65, 0
3, 3432, Note_on_c, 0, 61, 0
3, 3432, Note_on_c, 0, 56, 0
3, 3456, Note_on_c, 0, 49, 31
3, 3480, Note_on_c, 0, 49, 0
3, 3504, Note_on_c, 0, 57, 20
3, 3504, Note_on_c, 0, 61, 24
3, 3504, Note_on_c, 0, 66, 26
3, 3528, Note_on_c, 0, 66, 0
3, 3528, Note_on_c, 0, 61, 0
3, 3528, Note_on_c, 0, 57, 0
3, 3552, Note_on_c, 0, 54, 24
3, 3552, Note_on_c, 0, 57, 30
3, 3552, Note_on_c, 0, 61, 34
3, 3576, Note_on_c, 0, 61, 0
3, 3576, Note_on_c, 0, 57, 0
3, 3576, Note_on_c, 0, 54, 0
3, 3600, Note_on_c, 0, 57, 26
3, 3600, Note_on_c, 0, 61, 28
3, 3600, Note_on_c, 0, 66, 31
3, 3624, Note_on_c, 0, 66, 0
3, 3624, Note_on_c, 0, 61, 0
3, 3624, Note_on_c, 0, 57, 0
3, 3648, Note_on_c, 0, 37, 43
3, 3648, Note_on_c, 0, 49, 53
3, 3672, Note_on_c, 0, 49, 0
3, 3672, Note_on_c, 0, 37, 0
3, 3696, Note_on_c, 0, 57, 38
3, 3696, Note_on_c, 0, 61, 40
3, 3696, Note_on_c, 0, 66, 44
3, 3720, Note_on_c, 0, 66, 0
3, 3720, Note_on_c, 0, 61, 0
3, 3720, Note_on_c, 0, 57, 0
3, 3744, Note_on_c, 0, 54, 46
3, 3744, Note_on_c, 0, 57, 50
3, 3744, Note_on_c, 0, 61, 54
3, 3768, Note_on_c, 0, 61, 0
3, 3768, Note_on_c, 0, 57, 0
3, 3768, Note_on_c, 0, 54, 0
3, 3792, Note_on_c, 0, 57, 46
3, 3792, Note_on_c, 0, 61, 50
3, 3792, Note_on_c, 0, 69, 60
3, 3816, Note_on_c, 0, 69, 0
3, 3816, Note_on_c, 0, 61, 0
3, 3816, Note_on_c, 0, 57, 0
3, 3840, Note_on_c, 0, 36, 40
3, 3840, Note_on_c, 0, 48, 50
3, 3864, Note_on_c, 0, 48, 0
3, 3864, Note_on_c, 0, 36, 0
3, 3888, Note_on_c, 0, 57, 28
3, 3888, Note_on_c, 0, 62, 32
3, 3888, Note_on_c, 0, 66, 36
3, 3912, Note_on_c, 0, 66, 0
3, 3912, Note_on_c, 0, 62, 0
3, 3912, Note_on_c, 0, 57, 0
3, 3936, Note_on_c, 0, 54, 30
3, 3936, Note_on_c, 0, 57, 35
3, 3936, Note_on_c, 0, 62, 41
3, 3960, Note_on_c, 0, 62, 0
3, 3960, Note_on_c, 0, 57, 0
3, 3960, Note_on_c, 0, 54, 0
3, 3984, Note_on_c, 0, 57, 40
3, 3984, Note_on_c, 0, 62, 46
3, 3984, Note_on_c, 0, 66, 56
3, 4008, Note_on_c, 0, 66, 0
3, 4008, Note_on_c, 0, 62, 0
3, 4008, Note_on_c, 0, 57, 0
3, 4032, Note_on_c, 0, 35, 55
3, 4032, Note_on_c, 0, 47, 63
3, 4056, Note_on_c, 0, 47, 0
3, 4056, Note_on_c, 0, 35, 0
3, 4080, Note_on_c, 0, 57, 43
3, 4080, Note_on_c, 0, 63, 46
3, 4080, Note_on_c, 0, 66, 54
3, 4104, Note_on_c, 0, 66, 0
3, 4104, Note_on_c, 0, 63, 0
3, 4104, Note_on_c, 0, 57, 0
3, 4128, Note_on_c, 0, 54, 52
3, 4128, Note_on_c, 0, 57, 56
3, 4128, Note_on_c, 0, 63, 60
3, 4152, Note_on_c, 0, 63, 0
3, 4152, Note_on_c, 0, 57, 0
3, 4152, Note_on_c, 0, 54, 0
3, 4176, Note_on_c, 0, 57, 58
3, 4176, Note_on_c, 0, 69, 64
3, 4200, Note_on_c, 0, 69, 0
3, 4200, Note_on_c, 0, 57, 0
3, 4224, Note_on_c, 0, 34, 60
3, 4224, Note_on_c, 0, 46, 66
3, 4241, Note_on_c, 0, 46, 0
3, 4241, Note_on_c, 0, 34, 0
3, 4251, Note_on_c, 0, 53, 57
3, 4258, Note_on_c, 0, 58, 59
3, 4265, Note_on_c, 0, 53, 0
3, 4265, Note_on_c, 0, 62, 61
3, 4272, Note_on_c, 0, 58, 0
3, 4272, Note_on_c, 0, 70, 69
3, 4308, Note_on_c, 0, 70, 0
3, 4308, Note_on_c, 0, 62, 0
3, 4320, Note_on_c, 0, 34, 56
3, 4320, Note_on_c, 0, 46, 62
3, 4337, Note_on_c, 0, 46, 0
3, 4337, Note_on_c, 0, 34, 0
3, 4347, Note_on_c, 0, 53, 62
3, 4354, Note_on_c, 0, 59, 55
3, 4361, Note_on_c, 0, 53, 0
3, 4361, Note_on_c, 0, 63, 58
3, 4368, Note_on_c, 0, 59, 0
3, 4368, Note_on_c, 0, 69, 62
3, 4404, Note_on_c, 0, 69, 0
3, 4404, Note_on_c, 0, 63, 0
3, 4416, Note_on_c, 0, 34, 37
3, 4416, Note_on_c, 0, 46, 43
3, 4436, Note_on_c, 0, 46, 0
3, 4436, Note_on_c, 0, 34, 0
3, 4448, Note_on_c, 0, 53, 42
3, 4456, Note_on_c, 0, 62, 46
3, 4464, Note_on_c, 0, 70, 53
3, 4500, Note_on_c, 0, 70, 0
3, 4500, Note_on_c, 0, 62, 0
3, 4500, Note_on_c, 0, 53, 0
3, 4512, Note_on_c, 0, 34, 31
3, 4512, Note_on_c, 0, 46, 33
3, 4532, Note_on_c, 0, 46, 0
3, 4532, Note_on_c, 0, 34, 0
3, 4546, Note_on_c, 0, 51, 34
3, 4553, Note_on_c, 0, 57, 40
3, 4560, Note_on_c, 0, 51, 0
3, 4560, Note_on_c, 0, 66, 38
3, 4596, Note_on_c, 0, 66, 0
3, 4596, Note_on_c, 0, 57, 0
3, 4608, Note_on_c, 0, 34, 44
3, 4618, Note_on_c, 0, 34, 0
3, 4624, Note_on_c, 0, 50, 29
3, 4640, Note_on_c, 0, 50, 0
3, 4640, Note_on_c, 0, 58, 32
3, 4656, Note_on_c, 0, 58, 0
3, 4656, Note_on_c, 0, 53, 29
3, 4672, Note_on_c, 0, 53, 0
3, 4672, Note_on_c, 0, 62, 37
3, 4688, Note_on_c, 0, 62, 0
3, 4688, Note_on_c, 0, 58, 32
3, 4704, Note_on_c, 0, 58, 0
3, 4800, Note_on_c, 0, 37, 33
3, 4812, Note_on_c, 0, 37, 0
3, 4824, Note_on_c, 0, 49, 23
3, 4824, Note_on_c, 0, 56, 24
3, 4824, Note_on_c, 0, 59, 27
3, 4860, Note_on_c, 0, 59, 0
3, 4860, Note_on_c, 0, 56, 0
3, 4860, Note_on_c, 0, 49, 0
3, 4872, Note_on_c, 0, 44, 50
3, 4884, Note_on_c, 0, 44, 0
3, 4896, Note_on_c, 0, 37, 38
3, 4908, Note_on_c, 0, 37, 0
3, 4920, Note_on_c, 0, 49, 24
3, 4920, Note_on_c, 0, 56, 29
3, 4920, Note_on_c, 0, 59, 31
3, 4956, Note_on_c, 0, 59, 0
3, 4956, Note_on_c, 0, 56, 0
3, 4956, Note_on_c, 0, 49, 0
3, 4968, Note_on_c, 0, 44, 47
3, 4980, Note_on_c, 0, 44, 0
3, 4992, Note_on_c, 0, 37, 50
3, 5004, Note_on_c, 0, 37, 0
3, 5016, Note_on_c, 0, 49, 42
3, 5016, Note_on_c, 0, 56, 44
3, 5016, Note_on_c, 0, 59, 48
3, 5034, Note_on_c, 0, 59, 0
3, 5034, Note_on_c, 0, 56, 0
3, 5040, Note_on_c, 0, 57, 48
3, 5040, Note_on_c, 0, 60, 59
3, 5052, Note_on_c, 0, 60, 0
3, 5052, Note_on_c, 0, 57, 0
3, 5052, Note_on_c, 0, 49, 0
3, 5064, Note_on_c, 0, 37, 44
3, 5076, Note_on_c, 0, 37, 0
3, 5088, Note_on_c, 0, 49, 42
3, 5088, Note_on_c, 0, 56, 47
3, 5088, Note_on_c, 0, 61, 62
3, 5112, Note_on_c, 0, 56, 0
3, 5112, Note_on_c, 0, 57, 67
3, 5136, Note_on_c, 0, 57, 0
3, 5136, Note_on_c, 0, 56, 61
3, 5148, Note_on_c, 0, 56, 0
3, 5148, Note_on_c, 0, 61, 0
3, 5148, Note_on_c, 0, 49, 0
3, 5160, Note_on_c, 0, 44, 61
3, 5172, Note_on_c, 0, 44, 0
3, 5184, Note_on_c, 0, 37, 45
3, 5196, Note_on_c, 0, 37, 0
3, 5208, Note_on_c, 0, 49, 32
3, 5208, Note_on_c, 0, 56, 37
3, 5208, Note_on_c, 0, 59, 43
3, 5244, Note_on_c, 0, 59, 0
3, 5244, Note_on_c, 0, 56, 0
3, 5244, Note_on_c, 0, 49, 0
3, 5256, Note_on_c, 0, 44, 39
3, 5268, Note_on_c, 0, 44, 0
3, 5280, Note_on_c, 0, 37, 55
3, 5292, Note_on_c, 0, 37, 0
3, 5304, Note_on_c, 0, 49, 35
3, 5304, Note_on_c, 0, 56, 37
3, 5304, Note_on_c, 0, 59, 42
3, 5340, Note_on_c, 0, 59, 0
3, 5340, Note_on_c, 0, 56, 0
3, 5340, Note_on_c, 0, 49, 0
3, 5352, Note_on_c, 0, 44, 45
3, 5364, Note_on_c, 0, 44, 0
3, 5376, Note_on_c, 0, 37, 57
3, 5388, Note_on_c, 0, 37, 0
3, 5400, Note_on_c, 0, 49, 37
3, 5400, Note_on_c, 0, 56, 42
3, 5400, Note_on_c, 0, 59, 47
3, 5418, Note_on_c, 0, 59, 0
3, 5418, Note_on_c, 0, 56, 0
3, 5418, Note_on_c, 0, 49, 0
3, 5424, Note_on_c, 0, 49, 37
3, 5424, Note_on_c, 0, 57, 47
3, 5424, Note_on_c, 0, 60, 53
3, 5436, Note_on_c, 0, 60, 0
3, 5436, Note_on_c, 0, 57, 0
3, 5442, Note_on_c, 0, 49, 0
3, 5448, Note_on_c, 0, 37, 51
3, 5460, Note_on_c, 0, 37, 0
3, 5472, Note_on_c, 0, 49, 45
3, 5472, Note_on_c, 0, 56, 50
3, 5472, Note_on_c, 0, 61, 55
3, 5484, Note_on_c, 0, 61, 0
3, 5484, Note_on_c, 0, 56, 0
3, 5484, Note_on_c, 0, 49, 0
3, 5496, Note_on_c, 0, 37, 63
3, 5508, Note_on_c, 0, 37, 0
3, 5520, Note_on_c, 0, 55, 41
3, 5520, Note_on_c, 0, 58, 46
3, 5520, Note_on_c, 0, 64, 79
3, 5532, Note_on_c, 0, 64, 0
3, 5532, Note_on_c, 0, 58, 0
3, 5532, Note_on_c, 0, 55, 0
3, 5544, Note_on_c, 0, 37, 56
3, 5544, Note_on_c, 0, 49, 61
3, 5556, Note_on_c, 0, 49, 0
3, 5556, Note_on_c, 0, 37, 0
3, 5568, Note_on_c, 0, 38, 55
3, 5568, Note_on_c, 0, 50, 60
3, 5580, Note_on_c, 0, 38, 0
3, 5592, Note_on_c, 0, 52, 41
3, 5592, Note_on_c, 0, 56, 46
3, 5592, Note_on_c, 0, 59, 51
3, 5628, Note_on_c, 0, 59, 0
3, 5628, Note_on_c, 0, 56, 0
3, 5628, Note_on_c, 0, 52, 0
3, 5640, Note_on_c, 0, 52, 52
3, 5640, Note_on_c, 0, 56, 58
3, 5640, Note_on_c, 0, 59, 64
3, 5652, Note_on_c, 0, 59, 0
3, 5652, Note_on_c, 0, 56, 0
3, 5652, Note_on_c, 0, 52, 0
3, 5652, Note_on_c, 0, 50, 0
3, 5664, Note_on_c, 0, 38, 60
3, 5664, Note_on_c, 0, 50, 70
3, 5676, Note_on_c, 0, 38, 0
3, 5688, Note_on_c, 0, 52, 46
3, 5688, Note_on_c, 0, 56, 51
3, 5688, Note_on_c, 0, 59, 56
3, 5724, Note_on_c, 0, 59, 0
3, 5724, Note_on_c, 0, 56, 0
3, 5724, Note_on_c, 0, 52, 0
3, 5736, Note_on_c, 0, 52, 50
3, 5736, Note_on_c, 0, 56, 55
3, 5736, Note_on_c, 0, 59, 60
3, 5748, Note_on_c, 0, 59, 0
3, 5748, Note_on_c, 0, 56, 0
3, 5748, Note_on_c, 0, 52, 0
3, 5748, Note_on_c, 0, 50, 0
3, 5760, Note_on_c, 0, 38, 60
3, 5760, Note_on_c, 0, 50, 70
3, 5772, Note_on_c, 0, 38, 0
3, 5784, Note_on_c, 0, 56, 55
3, 5784, Note_on_c, 0, 59, 60
3, 5808, Note_on_c, 0, 59, 0
3, 5808, Note_on_c, 0, 56, 0
3, 5808, Note_on_c, 0, 54, 71
3, 5808, Note_on_c, 0, 60, 82
3, 5820, Note_on_c, 0, 60, 0
3, 5820, Note_on_c, 0, 54, 0
3, 5820, Note_on_c, 0, 50, 0
3, 5832, Note_on_c, 0, 38, 69
3, 5844, Note_on_c, 0, 38, 0
3, 5856, Note_on_c, 0, 50, 35
3, 5856, Note_on_c, 0, 52, 53
3, 5856, Note_on_c, 0, 56, 56
3, 5856, Note_on_c, 0, 59, 79
3, 5880, Note_on_c, 0, 59, 0
3, 5880, Note_on_c, 0, 60, 80
3, 5904, Note_on_c, 0, 60, 0
3, 5904, Note_on_c, 0, 59, 62
3, 5916, Note_on_c, 0, 56, 0
3, 5928, Note_on_c, 0, 59, 0
3, 5928, Note_on_c, 0, 56, 60
3, 5940, Note_on_c, 0, 56, 0
3, 5940, Note_on_c, 0, 52, 0
3, 5940, Note_on_c, 0, 50, 0
3, 5952, Note_on_c, 0, 38, 62
3, 5952, Note_on_c, 0, 50, 72
3, 5964, Note_on_c, 0, 38, 0
3, 5976, Note_on_c, 0, 52, 50
3, 5976, Note_on_c, 0, 56, 55
3, 5976, Note_on_c, 0, 59, 60
3, 6012, Note_on_c, 0, 59, 0
3, 6012, Note_on_c, 0, 56, 0
3, 6012, Note_on_c, 0, 52, 0
3, 6024, Note_on_c, 0, 52, 55
3, 6024, Note_on_c, 0, 56, 59
3, 6024, Note_on_c, 0, 59, 64
3, 6036, Note_on_c, 0, 59, 0
3, 6036, Note_on_c, 0, 56, 0
3, 6036, Note_on_c, 0, 52, 0
3, 6036, Note_on_c, 0, 50, 0
3, 6048, Note_on_c, 0, 38, 70
3, 6048, Note_on_c, 0, 50, 75
3, 6060, Note_on_c, 0, 50, 0
3, 6060, Note_on_c, 0, 38, 0
3, 6072, Note_on_c, 0, 52, 45
3, 6072, Note_on_c, 0, 56, 50
3, 6072, Note_on_c, 0, 59, 55
3, 6108, Note_on_c, 0, 59, 0
3, 6108, Note_on_c, 0, 56, 0
3, 6108, Note_on_c, 0, 52, 0
3, 6120, Note_on_c, 0, 56, 61
3, 6120, Note_on_c, 0, 59, 66
3, 6132, Note_on_c, 0, 59, 0
3, 6132, Note_on_c, 0, 56, 0
3, 6144, Note_on_c, 0, 37, 80
3, 6144, Note_on_c, 0, 49, 90
3, 6156, Note_on_c, 0, 49, 0
3, 6156, Note_on_c, 0, 37, 0
3, 6168, Note_on_c, 0, 56, 55
3, 6168, Note_on_c, 0, 59, 60
3, 6168, Note_on_c, 0, 65, 65
3, 6180, Note_on_c, 0, 65, 0
3, 6180, Note_on_c, 0, 59, 0
3, 6180, Note_on_c, 0, 56, 0
3, 6192, Note_on_c, 0, 37, 80
3, 6192, Note_on_c, 0, 49, 90
3, 6204, Note_on_c, 0, 49, 0
3, 6204, Note_on_c, 0, 37, 0
3, 6216, Note_on_c, 0, 57, 69
3, 6216, Note_on_c, 0, 66, 74
3, 6228, Note_on_c, 0, 66, 0
3, 6228, Note_on_c, 0, 57, 0
3, 6240, Note_on_c, 0, 37, 80
3, 6240, Note_on_c, 0, 49, 90
3, 6252, Note_on_c, 0, 49, 0
3, 6252, Note_on_c, 0, 37, 0
3, 6264, Note_on_c, 0, 56, 54
3, 6264, Note_on_c, 0, 61, 59
3, 6264, Note_on_c, 0, 65, 64
3, 6276, Note_on_c, 0, 65, 0
3, 6276, Note_on_c, 0, 61, 0
3, 6276, Note_on_c, 0, 56, 0
3, 6288, Note_on_c, 0, 37, 80
3, 6288, Note_on_c, 0, 49, 90
3, 6300, Note_on_c, 0, 49, 0
3, 6300, Note_on_c, 0, 37, 0
3, 6312, Note_on_c, 0, 54, 58
3, 6312, Note_on_c, 0, 57, 62
3, 6312, Note_on_c, 0, 62, 66
3, 6324, Note_on_c, 0, 62, 0
3, 6324, Note_on_c, 0, 57, 0
3, 6324, Note_on_c, 0, 54, 0
3, 6336, Note_on_c, 0, 37, 75
3, 6336, Note_on_c, 0, 49, 85
3, 6348, Note_on_c, 0, 49, 0
3, 6348, Note_on_c, 0, 37, 0
3, 6360, Note_on_c, 0, 53, 55
3, 6360, Note_on_c, 0, 61, 62
3, 6372, Note_on_c, 0, 61, 0
3, 6372, Note_on_c, 0, 53, 0
3, 6384, Note_on_c, 0, 32, 80
3, 6384, Note_on_c, 0, 44, 90
3, 6396, Note_on_c, 0, 44, 0
3, 6396, Note_on_c, 0, 32, 0
3, 6408, Note_on_c, 0, 54, 65
3, 6408, Note_on_c, 0, 59, 75
3, 6444, Note_on_c, 0, 59, 0
3, 6444, Note_on_c, 0, 54, 0
3, 6456, Note_on_c, 0, 54, 58
3, 6456, Note_on_c, 0, 59, 65
3, 6480, Note_on_c, 0, 47, 65
3, 6492, Note_on_c, 0, 59, 0
3, 6492, Note_on_c, 0, 54, 0
3, 6504, Note_on_c, 0, 56, 58
3, 6516, Note_on_c, 0, 56, 0
3, 6516, Note_on_c, 0, 47, 0
3, 6528, Note_on_c, 0, 37, 70
3, 6540, Note_on_c, 0, 37, 0
3, 6552, Note_on_c, 0, 49, 46
3, 6552, Note_on_c, 0, 56, 53
3, 6576, Note_on_c, 0, 56, 0
3, 6576, Note_on_c, 0, 49, 0
3, 6576, Note_on_c, 0, 62, 62
3, 6600, Note_on_c, 0, 62, 0
3, 6664, Note_on_c, 0, 42, 45
3, 6668, Note_on_c, 0, 49, 50
3, 6672, Note_on_c, 0, 42, 0
3, 6672, Note_on_c, 0, 57, 60
3, 6696, Note_on_c, 0, 57, 0
3, 6696, Note_on_c, 0, 49, 0
3, 6712, Note_on_c, 0, 37, 42
3, 6716, Note_on_c, 0, 44, 50
3, 6720, Note_on_c, 0, 37, 0
3, 6720, Note_on_c, 0, 53, 60
3, 6744, Note_on_c, 0, 53, 0
3, 6744, Note_on_c, 0, 44, 0
3, 6768, Note_on_c, 0, 50, 60
3, 6768, Note_on_c, 0, 62, 70
3, 6792, Note_on_c, 0, 62, 0
3, 6792, Note_on_c, 0, 50, 0
3, 6864, Note_on_c, 0, 30, 38
3, 6864, Note_on_c, 0, 42, 48
3, 6900, Note_on_c, 0, 42, 0
3, 6900, Note_on_c, 0, 30, 0
3, 6912, Note_on_c, 0, 25, 32
3, 6912, Note_on_c, 0, 37, 42
3, 6960, Note_on_c, 0, 37, 0
3, 6960, Note_on_c, 0, 25, 0
3, 7200, Note_on_c, 0, 37, 24
3, 7248, Note_on_c, 0, 37, 0
3, 7248, Note_on_c, 0, 49, 25
3, 7296, Note_on_c, 0, 49, 0
3, 7296, Note_on_c, 0, 53, 28
3, 7296, Note_on_c, 0, 59, 33
3, 7344, Note_on_c, 0, 59, 0
3, 7344, Note_on_c, 0, 53, 0
3, 7344, Note_on_c, 0, 49, 24
3, 7386, Note_on_c, 0, 49, 0
3, 7392, Note_on_c, 0, 42, 36
3, 7440, Note_on_c, 0, 42, 0
3, 7440, Note_on_c, 0, 49, 38
3, 7488, Note_on_c, 0, 49, 0
3, 7488, Note_on_c, 0, 54, 22
3, 7488, Note_on_c, 0, 58, 27
3, 7536, Note_on_c, 0, 58, 0
3, 7536, Note_on_c, 0, 54, 0
3, 7536, Note_on_c, 0, 49, 26
3, 7584, Note_on_c, 0, 49, 0
3, 7584, Note_on_c, 0, 42, 40
3, 7630, Note_on_c, 0, 42, 0
3, 7630, Note_on_c, 0, 50, 50
3, 7682, Note_on_c, 0, 50, 0
3, 7682, Note_on_c, 0, 56, 35
3, 7682, Note_on_c, 0, 59, 40
3, 7730, Note_on_c, 0, 59, 0
3, 7730, Note_on_c, 0, 56, 0
3, 7730, Note_on_c, 0, 49, 23
3, 7776, Note_on_c, 0, 49, 0
3, 7776, Note_on_c, 0, 42, 36
3, 7824, Note_on_c, 0, 42, 0
3, 7824, Note_on_c, 0, 49, 42
3, 7860, Note_on_c, 0, 49, 0
3, 7872, Note_on_c, 0, 54, 26
3, 7872, Note_on_c, 0, 58, 30
3, 7872, Note_on_c, 0, 61, 32
3, 7920, Note_on_c, 0, 61, 0
3, 7920, Note_on_c, 0, 58, 0
3, 7920, Note_on_c, 0, 54, 0
3, 7968, Note_on_c, 0, 39, 46
3, 8016, Note_on_c, 0, 39, 0
3, 8016, Note_on_c, 0, 51, 43
3, 8064, Note_on_c, 0, 51, 0
3, 8064, Note_on_c, 0, 55, 44
3, 8064, Note_on_c, 0, 61, 52
3, 8112, Note_on_c, 0, 61, 0
3, 8112, Note_on_c, 0, 55, 0
3, 8112, Note_on_c, 0, 51, 42
3, 8160, Note_on_c, 0, 51, 0
3, 8160, Note_on_c, 0, 32, 48
3, 8160, Note_on_c, 0, 44, 53
3, 8184, Note_on_c, 0, 44, 0
3, 8184, Note_on_c, 0, 32, 0
3, 8208, Note_on_c, 0, 51, 36
3, 8208, Note_on_c, 0, 54, 40
3, 8208, Note_on_c, 0, 56, 42
3, 8208, Note_on_c, 0, 59, 46
3, 8232, Note_on_c, 0, 59, 0
3, 8232, Note_on_c, 0, 56, 0
3, 8232, Note_on_c, 0, 54, 0
3, 8232, Note_on_c, 0, 51, 0
3, 8256, Note_on_c, 0, 35, 52
3, 8256, Note_on_c, 0, 47, 62
3, 8280, Note_on_c, 0, 47, 0
3, 8280, Note_on_c, 0, 35, 0
3, 8304, Note_on_c, 0, 54, 33
3, 8304, Note_on_c, 0, 56, 41
3, 8304, Note_on_c, 0, 59, 42
3, 8304, Note_on_c, 0, 63, 49
3, 8328, Note_on_c, 0, 59, 0
3, 8328, Note_on_c, 0, 56, 0
3, 8328, Note_on_c, 0, 54, 0
3, 8352, Note_on_c, 0, 49, 49
3, 8376, Note_on_c, 0, 63, 0
3, 8400, Note_on_c, 0, 54, 40
3, 8400, Note_on_c, 0, 63, 44
3, 8448, Note_on_c, 0, 63, 0
3, 8448, Note_on_c, 0, 60, 40
3, 8484, Note_on_c, 0, 60, 0
3, 8484, Note_on_c, 0, 54, 0
3, 8496, Note_on_c, 0, 53, 32
3, 8496, Note_on_c, 0, 61, 38
3, 8532, Note_on_c, 0, 61, 0
3, 8532, Note_on_c, 0, 53, 0
3, 8532, Note_on_c, 0, 59, 38
3, 8540, Note_on_c, 0, 59, 0
3, 8544, Note_on_c, 0, 58, 41
3, 8592, Note_on_c, 0, 58, 0
3, 8592, Note_on_c, 0, 63, 55
3, 8640, Note_on_c, 0, 63, 0
3, 8640, Note_on_c, 0, 60, 40
3, 8688, Note_on_c, 0, 60, 0
3, 8688, Note_on_c, 0, 61, 50
3, 8712, Note_on_c, 0, 61, 0
3, 8712, Note_on_c, 0, 49, 0
3, 8724, Note_on_c, 0, 50, 37
3, 8724, Note_on_c, 0, 59, 44
3, 8732, Note_on_c, 0, 59, 0
3, 8732, Note_on_c, 0, 50, 0
3, 8736, Note_on_c, 0, 51, 37
3, 8736, Note_on_c, 0, 58, 42
3, 8772, Note_on_c, 0, 58, 0
3, 8772, Note_on_c, 0, 51, 0
3, 8784, Note_on_c, 0, 48, 45
3, 8784, Note_on_c, 0, 57, 48
3, 8784, Note_on_c, 0, 63, 53
3, 8820, Note_on_c, 0, 63, 0
3, 8820, Note_on_c, 0, 57, 0
3, 8820, Note_on_c, 0, 48, 0
3, 8832, Note_on_c, 0, 49, 35
3, 8832, Note_on_c, 0, 56, 40
3, 8868, Note_on_c, 0, 56, 0
3, 8868, Note_on_c, 0, 49, 0
3, 8880, Note_on_c, 0, 62, 43
3, 8920, Note_on_c, 0, 62, 0
3, 8920, Note_on_c, 0, 61, 32
3, 8936, Note_on_c, 0, 61, 0
3, 8936, Note_on_c, 0, 59, 26
3, 8946, Note_on_c, 0, 59, 0
3, 8952, Note_on_c, 0, 30, 40
3, 8976, Note_on_c, 0, 30, 0
3, 9000, Note_on_c, 0, 49, 28
3, 9000, Note_on_c, 0, 58, 39
3, 9008, Note_on_c, 0, 58, 0
3, 9008, Note_on_c, 0, 49, 0
3, 9016, Note_on_c, 0, 49, 26
3, 9016, Note_on_c, 0, 58, 37
3, 9024, Note_on_c, 0, 58, 0
3, 9024, Note_on_c, 0, 49, 0
3, 9032, Note_on_c, 0, 49, 26
3, 9032, Note_on_c, 0, 58, 37
3, 9040, Note_on_c, 0, 58, 0
3, 9040, Note_on_c, 0, 49, 0
3, 9048, Note_on_c, 0, 54, 25
3, 9048, Note_on_c, 0, 58, 30
3, 9048, Note_on_c, 0, 61, 35
3, 9072, Note_on_c, 0, 61, 0
3, 9072, Note_on_c, 0, 58, 0
3, 9072, Note_on_c, 0, 54, 0
3, 9096, Note_on_c, 0, 49, 33
3, 9096, Note_on_c, 0, 54, 35
3, 9096, Note_on_c, 0, 58, 39
3, 9120, Note_on_c, 0, 58, 0
3, 9120, Note_on_c, 0, 54, 0
3, 9120, Note_on_c, 0, 49, 0
3, 9144, Note_on_c, 0, 42, 34
3, 9180, Note_on_c, 0, 42, 0
3, 9192, Note_on_c, 0, 49, 24
3, 9192, Note_on_c, 0, 54, 28
3, 9192, Note_on_c, 0, 58, 32
3, 9208, Note_on_c, 0, 58, 0
3, 9208, Note_on_c, 0, 54, 0
3, 9208, Note_on_c, 0, 49, 0
3, 9216, Note_on_c, 0, 49, 30
3, 9216, Note_on_c, 0, 54, 34
3, 9216, Note_on_c, 0, 58, 38
3, 9220, Note_on_c, 0, 58, 0
3, 9220, Note_on_c, 0, 54, 0
3, 9220, Note_on_c, 0, 49, 0
3, 9224, Note_on_c, 0, 49, 31
3, 9224, Note_on_c, 0, 54, 35
3, 9224, Note_on_c, 0, 58, 39
3, 9228, Note_on_c, 0, 58, 0
3, 9228, Note_on_c, 0, 54, 0
3, 9228, Note_on_c, 0, 49, 0
3, 9232, Note_on_c, 0, 49, 33
3, 9232, Note_on_c, 0, 54, 37
3, 9232, Note_on_c, 0, 58, 41
3, 9236, Note_on_c, 0, 58, 0
3, 9236, Note_on_c, 0, 54, 0
3, 9236, Note_on_c, 0, 49, 0
3, 9240, Note_on_c, 0, 54, 32
3, 9240, Note_on_c, 0, 58, 36
3, 9240, Note_on_c, 0, 61, 40
3, 9264, Note_on_c, 0, 61, 0
3, 9264, Note_on_c, 0, 58, 0
3, 9264, Note_on_c, 0, 54, 0
3, 9288, Note_on_c, 0, 49, 23
3, 9288, Note_on_c, 0, 54, 25
3, 9288, Note_on_c, 0, 58, 31
3, 9312, Note_on_c, 0, 58, 0
3, 9312, Note_on_c, 0, 54, 0
3, 9312, Note_on_c, 0, 49, 0
3, 9328, Note_on_c, 0, 42, 33
3, 9332, Note_on_c, 0, 49, 36
3, 9336, Note_on_c, 0, 58, 39
3, 9360, Note_on_c, 0, 58, 0
3, 9360, Note_on_c, 0, 49, 0
3, 9360, Note_on_c, 0, 42, 0
3, 9480, Note_on_c, 0, 37, 36
3, 9516, Note_on_c, 0, 37, 0
3, 9528, Note_on_c, 0, 30, 26
3, 9528, Note_on_c, 0, 42, 31
3, 9660, Note_on_c, 0, 42, 0
3, 9660, Note_on_c, 0, 30, 0
3, 9672, Note_on_c, 0, 37, 23
3, 9792, Note_on_c, 0, 37, 0
3, 9816, Note_on_c, 0, 30, 24
3, 9960, Note_on_c, 0, 30, 0
3, 10008, End_track
4, 0, Start_track
4, 0, Title_t, "PIANO(PEDAL)"
4, 0, MIDI_port, 0
4, 192, Control_c, 0, 64, 0
4, 200, Control_c, 0, 64, 127
4, 290, Control_c, 0, 64, 0
4, 296, Control_c, 0, 64, 127
4, 338, Control_c, 0, 64, 0
4, 344, Control_c, 0, 64, 127
4, 382, Control_c, 0, 64, 0
4, 384, Control_c, 0, 64, 0
4, 392, Control_c, 0, 64, 127
4, 482, Control_c, 0, 64, 0
4, 488, Control_c, 0, 64, 127
4, 524, Control_c, 0, 64, 0
4, 576, Control_c, 0, 64, 0
4, 584, Control_c, 0, 64, 127
4, 674, Control_c, 0, 64, 0
4, 680, Control_c, 0, 64, 127
4, 722, Control_c, 0, 64, 0
4, 728, Control_c, 0, 64, 127
4, 766, Control_c, 0, 64, 0
4, 768, Control_c, 0, 64, 0
4, 776, Control_c, 0, 64, 127
4, 866, Control_c, 0, 64, 0
4, 872, Control_c, 0, 64, 127
4, 908, Control_c, 0, 64, 0
4, 960, Control_c, 0, 64, 0
4, 968, Control_c, 0, 64, 127
4, 1058, Control_c, 0, 64, 0
4, 1064, Control_c, 0, 64, 127
4, 1106, Control_c, 0, 64, 0
4, 1112, Control_c, 0, 64, 127
4, 1150, Control_c, 0, 64, 0
4, 1152, Control_c, 0, 64, 0
4, 1160, Control_c, 0, 64, 127
4, 1202, Control_c, 0, 64, 0
4, 1208, Control_c, 0, 64, 127
4, 1250, Control_c, 0, 64, 0
4, 1256, Control_c, 0, 64, 127
4, 1298, Control_c, 0, 64, 0
4, 1304, Control_c, 0, 64, 127
4, 1344, Control_c, 0, 64, 127
4, 1346, Control_c, 0, 64, 0
4, 1352, Control_c, 0, 64, 127
4, 1394, Control_c, 0, 64, 0
4, 1400, Control_c, 0, 64, 127
4, 1428, Control_c, 0, 64, 0
4, 1442, Control_c, 0, 64, 127
4, 1490, Control_c, 0, 64, 0
4, 1496, Control_c, 0, 64, 127
4, 1514, Control_c, 0, 64, 0
4, 1530, Control_c, 0, 64, 127
4, 1536, Control_c, 0, 64, 127
4, 1538, Control_c, 0, 64, 0
4, 1544, Control_c, 0, 64, 127
4, 1586, Control_c, 0, 64, 0
4, 1592, Control_c, 0, 64, 127
4, 1634, Control_c, 0, 64, 0
4, 1640, Control_c, 0, 64, 127
4, 1670, Control_c, 0, 64, 0
4, 1676, Control_c, 0, 64, 127
4, 1716, Control_c, 0, 64, 0
4, 1728, Control_c, 0, 64, 0
4, 1736, Control_c, 0, 64, 127
4, 1826, Control_c, 0, 64, 0
4, 1832, Control_c, 0, 64, 127
4, 1874, Control_c, 0, 64, 0
4, 1880, Control_c, 0, 64, 127
4, 1920, Control_c, 0, 64, 0
4, 1928, Control_c, 0, 64, 127
4, 2018, Control_c, 0, 64, 0
4, 2024, Control_c, 0, 64, 127
4, 2060, Control_c, 0, 64, 0
4, 2112, Control_c, 0, 64, 0
4, 2120, Control_c, 0, 64, 127
4, 2160, Control_c, 0, 64, 0
4, 2166, Control_c, 0, 64, 127
4, 2212, Control_c, 0, 64, 0
4, 2218, Control_c, 0, 64, 127
4, 2258, Control_c, 0, 64, 0
4, 2304, Control_c, 0, 64, 0
4, 2312, Control_c, 0, 64, 127
4, 2354, Control_c, 0, 64, 0
4, 2360, Control_c, 0, 64, 127
4, 2384, Control_c, 0, 64, 0
4, 2404, Control_c, 0, 64, 127
4, 2448, Control_c, 0, 64, 0
4, 2496, Control_c, 0, 64, 0
4, 2504, Control_c, 0, 64, 127
4, 2594, Control_c, 0, 64, 0
4, 2600, Control_c, 0, 64, 127
4, 2642, Control_c, 0, 64, 0
4, 2648, Control_c, 0, 64, 127
4, 2688, Control_c, 0, 64, 127
4, 2689, Control_c, 0, 64, 0
4, 2692, Control_c, 0, 64, 127
4, 2738, Control_c, 0, 64, 0
4, 2744, Control_c, 0, 64, 127
4, 2786, Control_c, 0, 64, 0
4, 2792, Control_c, 0, 64, 127
4, 2834, Control_c, 0, 64, 0
4, 2840, Control_c, 0, 64, 127
4, 2880, Control_c, 0, 64, 127
4, 2882, Control_c, 0, 64, 0
4, 2888, Control_c, 0, 64, 127
4, 2930, Control_c, 0, 64, 0
4, 2936, Control_c, 0, 64, 127
4, 2964, Control_c, 0, 64, 0
4, 2978, Control_c, 0, 64, 127
4, 3026, Control_c, 0, 64, 0
4, 3032, Control_c, 0, 64, 127
4, 3050, Control_c, 0, 64, 0
4, 3062, Control_c, 0, 64, 127
4, 3072, Control_c, 0, 64, 127
4, 3074, Control_c, 0, 64, 0
4, 3080, Control_c, 0, 64, 127
4, 3122, Control_c, 0, 64, 0
4, 3128, Control_c, 0, 64, 127
4, 3168, Control_c, 0, 64, 0
4, 3264, Control_c, 0, 64, 0
4, 3272, Control_c, 0, 64, 127
4, 3314, Control_c, 0, 64, 0
4, 3320, Control_c, 0, 64, 127
4, 3362, Control_c, 0, 64, 0
4, 3368, Control_c, 0, 64, 127
4, 3410, Control_c, 0, 64, 0
4, 3416, Control_c, 0, 64, 127
4, 3454, Control_c, 0, 64, 0
4, 3456, Control_c, 0, 64, 0
4, 3464, Control_c, 0, 64, 127
4, 3506, Control_c, 0, 64, 0
4, 3512, Control_c, 0, 64, 127
4, 3554, Control_c, 0, 64, 0
4, 3560, Control_c, 0, 64, 127
4, 3602, Control_c, 0, 64, 0
4, 3608, Control_c, 0, 64, 127
4, 3648, Control_c, 0, 64, 127
4, 3650, Control_c, 0, 64, 0
4, 3656, Control_c, 0, 64, 127
4, 3698, Control_c, 0, 64, 0
4, 3704, Control_c, 0, 64, 127
4, 3746, Control_c, 0, 64, 0
4, 3752, Control_c, 0, 64, 127
4, 3794, Control_c, 0, 64, 0
4, 3800, Control_c, 0, 64, 127
4, 3838, Control_c, 0, 64, 0
4, 3840, Control_c, 0, 64, 0
4, 3848, Control_c, 0, 64, 127
4, 3890, Control_c, 0, 64, 0
4, 3896, Control_c, 0, 64, 127
4, 3938, Control_c, 0, 64, 0
4, 3944, Control_c, 0, 64, 127
4, 3986, Control_c, 0, 64, 0
4, 3992, Control_c, 0, 64, 127
4, 4032, Control_c, 0, 64, 127
4, 4034, Control_c, 0, 64, 0
4, 4040, Control_c, 0, 64, 127
4, 4082, Control_c, 0, 64, 0
4, 4088, Control_c, 0, 64, 127
4, 4130, Control_c, 0, 64, 0
4, 4136, Control_c, 0, 64, 127
4, 4178, Control_c, 0, 64, 0
4, 4184, Control_c, 0, 64, 127
4, 4222, Control_c, 0, 64, 0
4, 4224, Control_c, 0, 64, 0
4, 4232, Control_c, 0, 64, 127
4, 4322, Control_c, 0, 64, 0
4, 4328, Control_c, 0, 64, 127
4, 4416, Control_c, 0, 64, 127
4, 4418, Control_c, 0, 64, 0
4, 4424, Control_c, 0, 64, 127
4, 4514, Control_c, 0, 64, 0
4, 4520, Control_c, 0, 64, 127
4, 4580, Control_c, 0, 64, 0
4, 4608, Control_c, 0, 64, 0
4, 4614, Control_c, 0, 64, 127
4, 4706, Control_c, 0, 64, 0
4, 4712, Control_c, 0, 64, 127
4, 4785, Control_c, 0, 64, 0
4, 4788, Control_c, 0, 64, 127
4, 4800, Control_c, 0, 64, 127
4, 4802, Control_c, 0, 64, 0
4, 4808, Control_c, 0, 64, 127
4, 4896, Control_c, 0, 64, 127
4, 4898, Control_c, 0, 64, 0
4, 4904, Control_c, 0, 64, 127
4, 4992, Control_c, 0, 64, 127
4, 4994, Control_c, 0, 64, 0
4, 5000, Control_c, 0, 64, 127
4, 5042, Control_c, 0, 64, 0
4, 5048, Control_c, 0, 64, 127
4, 5088, Control_c, 0, 64, 127
4, 5090, Control_c, 0, 64, 0
4, 5096, Control_c, 0, 64, 127
4, 5114, Control_c, 0, 64, 0
4, 5120, Control_c, 0, 64, 127
4, 5138, Control_c, 0, 64, 0
4, 5144, Control_c, 0, 64, 127
4, 5162, Control_c, 0, 64, 0
4, 5168, Control_c, 0, 64, 127
4, 5184, Control_c, 0, 64, 127
4, 5186, Control_c, 0, 64, 0
4, 5192, Control_c, 0, 64, 127
4, 5280, Control_c, 0, 64, 127
4, 5282, Control_c, 0, 64, 0
4, 5288, Control_c, 0, 64, 127
4, 5376, Control_c, 0, 64, 127
4, 5378, Control_c, 0, 64, 0
4, 5384, Control_c, 0, 64, 127
4, 5426, Control_c, 0, 64, 0
4, 5432, Control_c, 0, 64, 127
4, 5472, Control_c, 0, 64, 127
4, 5474, Control_c, 0, 64, 0
4, 5480, Control_c, 0, 64, 127
4, 5522, Control_c, 0, 64, 0
4, 5528, Control_c, 0, 64, 127
4, 5568, Control_c, 0, 64, 127
4, 5570, Control_c, 0, 64, 0
4, 5576, Control_c, 0, 64, 127
4, 5664, Control_c, 0, 64, 127
4, 5666, Control_c, 0, 64, 0
4, 5672, Control_c, 0, 64, 127
4, 5760, Control_c, 0, 64, 127
4, 5762, Control_c, 0, 64, 0
4, 5768, Control_c, 0, 64, 127
4, 5810, Control_c, 0, 64, 0
4, 5816, Control_c, 0, 64, 127
4, 5856, Control_c, 0, 64, 127
4, 5858, Control_c, 0, 64, 0
4, 5864, Control_c, 0, 64, 127
4, 5882, Control_c, 0, 64, 0
4, 5888, Control_c, 0, 64, 127
4, 5906, Control_c, 0, 64, 0
4, 5912, Control_c, 0, 64, 127
4, 5930, Control_c, 0, 64, 0
4, 5936, Control_c, 0, 64, 127
4, 5952, Control_c, 0, 64, 127
4, 5954, Control_c, 0, 64, 0
4, 5960, Control_c, 0, 64, 127
4, 6048, Control_c, 0, 64, 127
4, 6050, Control_c, 0, 64, 0
4, 6056, Control_c, 0, 64, 127
4, 6144, Control_c, 0, 64, 127
4, 6146, Control_c, 0, 64, 0
4, 6152, Control_c, 0, 64, 127
4, 6194, Control_c, 0, 64, 0
4, 6200, Control_c, 0, 64, 127
4, 6240, Control_c, 0, 64, 127
4, 6242, Control_c, 0, 64, 0
4, 6248, Control_c, 0, 64, 127
4, 6290, Control_c, 0, 64, 0
4, 6296, Control_c, 0, 64, 127
4, 6336, Control_c, 0, 64, 127
4, 6338, Control_c, 0, 64, 0
4, 6344, Control_c, 0, 64, 127
4, 6386, Control_c, 0, 64, 0
4, 6392, Control_c, 0, 64, 127
4, 6432, Control_c, 0, 64, 127
4, 6458, Control_c, 0, 64, 0
4, 6464, Control_c, 0, 64, 127
4, 6482, Control_c, 0, 64, 0
4, 6488, Control_c, 0, 64, 127
4, 6526, Control_c, 0, 64, 0
4, 6528, Control_c, 0, 64, 0
4, 6536, Control_c, 0, 64, 127
4, 6578, Control_c, 0, 64, 0
4, 6584, Control_c, 0, 64, 127
4, 6602, Control_c, 0, 64, 0
4, 6624, Control_c, 0, 64, 0
4, 6632, Control_c, 0, 64, 127
4, 6674, Control_c, 0, 64, 0
4, 6680, Control_c, 0, 64, 127
4, 6720, Control_c, 0, 64, 127
4, 6722, Control_c, 0, 64, 0
4, 6728, Control_c, 0, 64, 127
4, 6770, Control_c, 0, 64, 0
4, 6776, Control_c, 0, 64, 127
4, 6816, Control_c, 0, 64, 127
4, 6818, Control_c, 0, 64, 0
4, 6824, Control_c, 0, 64, 127
4, 6866, Control_c, 0, 64, 0
4, 6872, Control_c, 0, 64, 127
4, 6912, Control_c, 0, 64, 127
4, 6914, Control_c, 0, 64, 0
4, 6920, Control_c, 0, 64, 127
4, 6962, Control_c, 0, 64, 0
4, 6968, Control_c, 0, 64, 127
4, 7008, Control_c, 0, 64, 127
4, 7010, Control_c, 0, 64, 0
4, 7016, Control_c, 0, 64, 127
4, 7041, Control_c, 0, 64, 0
4, 7047, Control_c, 0, 64, 127
4, 7057, Control_c, 0, 64, 0
4, 7063, Control_c, 0, 64, 127
4, 7073, Control_c, 0, 64, 0
4, 7079, Control_c, 0, 64, 127
4, 7088, Control_c, 0, 64, 0
4, 7090, Control_c, 0, 64, 127
4, 7126, Control_c, 0, 64, 0
4, 7200, Control_c, 0, 64, 0
4, 7208, Control_c, 0, 64, 127
4, 7298, Control_c, 0, 64, 0
4, 7304, Control_c, 0, 64, 127
4, 7346, Control_c, 0, 64, 0
4, 7352, Control_c, 0, 64, 127
4, 7390, Control_c, 0, 64, 0
4, 7392, Control_c, 0, 64, 0
4, 7400, Control_c, 0, 64, 127
4, 7490, Control_c, 0, 64, 0
4, 7496, Control_c, 0, 64, 127
4, 7532, Control_c, 0, 64, 0
4, 7584, Control_c, 0, 64, 0
4, 7592, Control_c, 0, 64, 127
4, 7632, Control_c, 0, 64, 0
4, 7638, Control_c, 0, 64, 127
4, 7684, Control_c, 0, 64, 0
4, 7690, Control_c, 0, 64, 127
4, 7730, Control_c, 0, 64, 0
4, 7776, Control_c, 0, 64, 0
4, 7784, Control_c, 0, 64, 127
4, 7826, Control_c, 0, 64, 0
4, 7832, Control_c, 0, 64, 127
4, 7862, Control_c, 0, 64, 0
4, 7878, Control_c, 0, 64, 127
4, 7920, Control_c, 0, 64, 0
4, 7968, Control_c, 0, 64, 0
4, 7976, Control_c, 0, 64, 127
4, 8066, Control_c, 0, 64, 0
4, 8072, Control_c, 0, 64, 127
4, 8114, Control_c, 0, 64, 0
4, 8120, Control_c, 0, 64, 127
4, 8160, Control_c, 0, 64, 127
4, 8161, Control_c, 0, 64, 0
4, 8164, Control_c, 0, 64, 127
4, 8210, Control_c, 0, 64, 0
4, 8216, Control_c, 0, 64, 127
4, 8258, Control_c, 0, 64, 0
4, 8264, Control_c, 0, 64, 127
4, 8306, Control_c, 0, 64, 0
4, 8312, Control_c, 0, 64, 127
4, 8352, Control_c, 0, 64, 127
4, 8354, Control_c, 0, 64, 0
4, 8360, Control_c, 0, 64, 127
4, 8402, Control_c, 0, 64, 0
4, 8408, Control_c, 0, 64, 127
4, 8436, Control_c, 0, 64, 0
4, 8450, Control_c, 0, 64, 127
4, 8498, Control_c, 0, 64, 0
4, 8504, Control_c, 0, 64, 127
4, 8522, Control_c, 0, 64, 0
4, 8534, Control_c, 0, 64, 127
4, 8544, Control_c, 0, 64, 127
4, 8546, Control_c, 0, 64, 0
4, 8552, Control_c, 0, 64, 127
4, 8594, Control_c, 0, 64, 0
4, 8600, Control_c, 0, 64, 127
4, 8628, Control_c, 0, 64, 0
4, 8642, Control_c, 0, 64, 127
4, 8690, Control_c, 0, 64, 0
4, 8696, Control_c, 0, 64, 127
4, 8714, Control_c, 0, 64, 0
4, 8726, Control_c, 0, 64, 127
4, 8736, Control_c, 0, 64, 127
4, 8738, Control_c, 0, 64, 0
4, 8744, Control_c, 0, 64, 127
4, 8784, Control_c, 0, 64, 0
4, 8836, Control_c, 0, 64, 127
4, 8882, Control_c, 0, 64, 0
4, 8888, Control_c, 0, 64, 127
4, 8906, Control_c, 0, 64, 0
4, 8910, Control_c, 0, 64, 127
4, 8922, Control_c, 0, 64, 0
4, 8926, Control_c, 0, 64, 127
4, 8938, Control_c, 0, 64, 0
4, 8942, Control_c, 0, 64, 127
4, 8952, Control_c, 0, 64, 127
4, 8954, Control_c, 0, 64, 0
4, 8960, Control_c, 0, 64, 127
4, 9050, Control_c, 0, 64, 0
4, 9056, Control_c, 0, 64, 127
4, 9098, Control_c, 0, 64, 0
4, 9104, Control_c, 0, 64, 127
4, 9144, Control_c, 0, 64, 127
4, 9146, Control_c, 0, 64, 0
4, 9152, Control_c, 0, 64, 127
4, 9194, Control_c, 0, 64, 0
4, 9200, Control_c, 0, 64, 127
4, 9242, Control_c, 0, 64, 0
4, 9248, Control_c, 0, 64, 127
4, 9290, Control_c, 0, 64, 0
4, 9296, Control_c, 0, 64, 127
4, 9336, Control_c, 0, 64, 127
4, 9338, Control_c, 0, 64, 0
4, 9344, Control_c, 0, 64, 127
4, 9432, Control_c, 0, 64, 0
4, 9484, Control_c, 0, 64, 127
4, 9528, Control_c, 0, 64, 127
4, 9530, Control_c, 0, 64, 0
4, 9536, Control_c, 0, 64, 127
4, 9674, Control_c, 0, 64, 0
4, 9680, Control_c, 0, 64, 127
4, 9770, Control_c, 0, 64, 0
4, 9774, Control_c, 0, 64, 127
4, 9816, Control_c, 0, 64, 127
4, 9817, Control_c, 0, 64, 0
4, 9820, Control_c, 0, 64, 127
4, 9960, Control_c, 0, 64, 0
4, 10008, End_track
0, 0, End_of_file