0, 0, Header, 1, 6, 120
1, 0, Start_track
1, 0, Title_t, "untitled"
1, 0, SMPTE_offset, 96, 0, 3, 0, 0
1, 0, MIDI_port, 0
1, 0, System_exclusive, 0A, 41, 10, 42, 12, 40, 00, 7F, 00, 41, F7
1, 0, MIDI_port, 0
1, 0, System_exclusive, 0A, 41, 10, 42, 12, 40, 01, 30, 03, 0C, F7
1, 0, MIDI_port, 0
1, 0, Time_signature, 6, 3, 12, 8
1, 0, Key_signature, 0, "major"
1, 0, Tempo, 441176
1, 10440, Tempo, 431655
1, 10470, Tempo, 433213
1, 10500, Tempo, 434783
1, 10530, Tempo, 436364
1, 10560, Tempo, 437956
1, 10590, Tempo, 439560
1, 10615, Tempo, 441176
1, 10645, Tempo, 442804
1, 10675, Tempo, 444444
1, 10705, Tempo, 446097
1, 10735, Tempo, 447761
1, 10765, Tempo, 449438
1, 10790, Tempo, 451128
1, 10800, Tempo, 454545
1, 12240, Tempo, 452830
1, 12270, Tempo, 451128
1, 12300, Tempo, 449438
1, 12330, Tempo, 447761
1, 12355, Tempo, 446097
1, 12385, Tempo, 444444
1, 12415, Tempo, 442804
1, 12445, Tempo, 441176
1, 12470, Tempo, 439560
1, 12500, Tempo, 437956
1, 12530, Tempo, 436364
1, 12560, Tempo, 434783
1, 12585, Tempo, 433213
1, 12596, Tempo, 441176
1, 16195, Tempo, 433213
1, 16240, Tempo, 434783
1, 16285, Tempo, 436364
1, 16330, Tempo, 437956
1, 16370, Tempo, 439560
1, 16415, Tempo, 441176
1, 16460, Tempo, 442804
1, 16505, Tempo, 444444
1, 16545, Tempo, 446097
1, 16559, Tempo, 454545
1, 17750, Tempo, 447761
1, 17790, Tempo, 446097
1, 17830, Tempo, 444444
1, 17870, Tempo, 442804
1, 17910, Tempo, 441176
1, 17945, Tempo, 439560
1, 17985, Tempo, 437956
1, 18025, Tempo, 436364
1, 18065, Tempo, 434783
1, 18100, Tempo, 433213
1, 18140, Tempo, 431655
1, 18180, Tempo, 430108
1, 18220, Tempo, 428571
1, 18255, Tempo, 427046
1, 18295, Tempo, 425532
1, 18335, Tempo, 424028
1, 18375, Tempo, 422535
1, 18410, Tempo, 421053
1, 18423, Tempo, 422535
1, 18960, Tempo, 418118
1, 19000, Tempo, 419580
1, 19040, Tempo, 421053
1, 19080, Tempo, 422535
1, 19120, Tempo, 424028
1, 19155, Tempo, 425532
1, 19195, Tempo, 427046
1, 19235, Tempo, 428571
1, 19275, Tempo, 430108
1, 19310, Tempo, 431655
1, 19317, Tempo, 441176
1, 20523, Tempo, 535714
1, 20576, Tempo, 441176
1, 20576, End_track
2, 0, Start_track
2, 0, MIDI_port, 0
2, 0, Title_t, "Etude No. 7"
2, 60, Control_c, 0, 0, 0
2, 62, Program_c, 0, 0
2, 63, Control_c, 0, 7, 127
2, 120, Control_c, 0, 91, 80
2, 120, Control_c, 0, 0, 0
2, 120, Control_c, 0, 93, 20
2, 658, Note_on_c, 0, 67, 63
2, 697, Note_on_c, 0, 67, 0
2, 720, Note_on_c, 0, 67, 57
2, 720, Note_on_c, 0, 64, 48
2, 721, Note_on_c, 0, 48, 68
2, 721, Note_on_c, 0, 36, 56
2, 729, Control_c, 0, 64, 127
2, 747, Note_on_c, 0, 64, 0
2, 747, Note_on_c, 0, 67, 0
2, 748, Note_on_c, 0, 48, 0
2, 748, Note_on_c, 0, 36, 0
2, 750, Note_on_c, 0, 64, 51
2, 750, Note_on_c, 0, 72, 51
2, 777, Note_on_c, 0, 72, 0
2, 777, Note_on_c, 0, 64, 0
2, 779, Control_c, 0, 64, 0
2, 780, Note_on_c, 0, 68, 56
2, 780, Note_on_c, 0, 65, 45
2, 807, Note_on_c, 0, 65, 0
2, 807, Note_on_c, 0, 68, 0
2, 810, Note_on_c, 0, 65, 49
2, 810, Note_on_c, 0, 74, 62
2, 837, Note_on_c, 0, 74, 0
2, 837, Note_on_c, 0, 65, 0
2, 840, Note_on_c, 0, 65, 50
2, 840, Note_on_c, 0, 62, 21
2, 841, Note_on_c, 0, 56, 73
2, 867, Note_on_c, 0, 62, 0
2, 867, Note_on_c, 0, 65, 0
2, 870, Note_on_c, 0, 71, 45
2, 870, Note_on_c, 0, 62, 42
2, 897, Note_on_c, 0, 62, 0
2, 897, Note_on_c, 0, 71, 0
2, 899, Note_on_c, 0, 56, 0
2, 900, Note_on_c, 0, 62, 44
2, 900, Note_on_c, 0, 59, 39
2, 901, Note_on_c, 0, 55, 72
2, 927, Note_on_c, 0, 59, 0
2, 927, Note_on_c, 0, 62, 0
2, 930, Note_on_c, 0, 59, 41
2, 930, Note_on_c, 0, 67, 51
2, 957, Note_on_c, 0, 67, 0
2, 957, Note_on_c, 0, 59, 0
2, 959, Note_on_c, 0, 54, 68
2, 960, Note_on_c, 0, 63, 53
2, 960, Note_on_c, 0, 60, 54
2, 965, Note_on_c, 0, 55, 0
2, 987, Note_on_c, 0, 60, 0
2, 987, Note_on_c, 0, 63, 0
2, 990, Note_on_c, 0, 60, 46
2, 990, Note_on_c, 0, 69, 48
2, 1017, Note_on_c, 0, 69, 0
2, 1017, Note_on_c, 0, 60, 0
2, 1019, Note_on_c, 0, 54, 0
2, 1019, Note_on_c, 0, 53, 73
2, 1020, Note_on_c, 0, 68, 50
2, 1020, Note_on_c, 0, 62, 46
2, 1039, Note_on_c, 0, 53, 0
2, 1047, Note_on_c, 0, 62, 0
2, 1047, Note_on_c, 0, 68, 0
2, 1050, Note_on_c, 0, 71, 56
2, 1050, Note_on_c, 0, 62, 48
2, 1074, Control_c, 0, 64, 127
2, 1077, Note_on_c, 0, 62, 0
2, 1077, Note_on_c, 0, 71, 0
2, 1079, Note_on_c, 0, 36, 68
2, 1080, Note_on_c, 0, 67, 45
2, 1080, Note_on_c, 0, 64, 36
2, 1096, Note_on_c, 0, 36, 0
2, 1107, Note_on_c, 0, 64, 0
2, 1107, Note_on_c, 0, 67, 0
2, 1110, Note_on_c, 0, 64, 39
2, 1110, Note_on_c, 0, 72, 43
2, 1137, Note_on_c, 0, 72, 0
2, 1137, Note_on_c, 0, 64, 0
2, 1139, Note_on_c, 0, 48, 79
2, 1140, Note_on_c, 0, 68, 53
2, 1140, Note_on_c, 0, 65, 51
2, 1140, Control_c, 0, 64, 0
2, 1167, Note_on_c, 0, 65, 0
2, 1167, Note_on_c, 0, 68, 0
2, 1170, Note_on_c, 0, 65, 47
2, 1170, Note_on_c, 0, 74, 62
2, 1197, Note_on_c, 0, 74, 0
2, 1197, Note_on_c, 0, 65, 0
2, 1200, Note_on_c, 0, 65, 46
2, 1201, Note_on_c, 0, 56, 68
2, 1227, Note_on_c, 0, 65, 0
2, 1230, Note_on_c, 0, 71, 55
2, 1230, Note_on_c, 0, 62, 42
2, 1257, Note_on_c, 0, 62, 0
2, 1257, Note_on_c, 0, 71, 0
2, 1260, Note_on_c, 0, 62, 50
2, 1260, Note_on_c, 0, 59, 34
2, 1260, Note_on_c, 0, 55, 64
2, 1265, Note_on_c, 0, 56, 0
2, 1287, Note_on_c, 0, 59, 0
2, 1287, Note_on_c, 0, 62, 0
2, 1290, Note_on_c, 0, 67, 48
2, 1290, Note_on_c, 0, 59, 33
2, 1317, Note_on_c, 0, 59, 0
2, 1317, Note_on_c, 0, 67, 0
2, 1320, Note_on_c, 0, 63, 51
2, 1320, Note_on_c, 0, 60, 49
2, 1320, Note_on_c, 0, 54, 68
2, 1324, Note_on_c, 0, 55, 0
2, 1347, Note_on_c, 0, 60, 0
2, 1347, Note_on_c, 0, 63, 0
2, 1350, Note_on_c, 0, 60, 46
2, 1350, Note_on_c, 0, 69, 45
2, 1377, Note_on_c, 0, 69, 0
2, 1377, Note_on_c, 0, 60, 0
2, 1378, Note_on_c, 0, 54, 0
2, 1380, Note_on_c, 0, 68, 56
2, 1380, Note_on_c, 0, 62, 46
2, 1381, Note_on_c, 0, 53, 70
2, 1407, Note_on_c, 0, 62, 0
2, 1407, Note_on_c, 0, 68, 0
2, 1410, Note_on_c, 0, 62, 38
2, 1410, Note_on_c, 0, 71, 43
2, 1437, Note_on_c, 0, 71, 0
2, 1437, Note_on_c, 0, 62, 0
2, 1439, Note_on_c, 0, 52, 68
2, 1440, Note_on_c, 0, 48, 0
2, 1440, Note_on_c, 0, 67, 55
2, 1440, Note_on_c, 0, 64, 48
2, 1444, Note_on_c, 0, 53, 0
2, 1467, Note_on_c, 0, 64, 0
2, 1467, Note_on_c, 0, 67, 0
2, 1470, Note_on_c, 0, 64, 42
2, 1470, Note_on_c, 0, 72, 45
2, 1497, Note_on_c, 0, 72, 0
2, 1497, Note_on_c, 0, 64, 0
2, 1499, Note_on_c, 0, 50, 68
2, 1500, Note_on_c, 0, 71, 53
2, 1500, Note_on_c, 0, 65, 42
2, 1506, Note_on_c, 0, 52, 0
2, 1527, Note_on_c, 0, 65, 0
2, 1527, Note_on_c, 0, 71, 0
2, 1530, Note_on_c, 0, 65, 51
2, 1530, Note_on_c, 0, 74, 48
2, 1557, Note_on_c, 0, 74, 0
2, 1557, Note_on_c, 0, 65, 0
2, 1559, Note_on_c, 0, 49, 74
2, 1560, Note_on_c, 0, 70, 57
2, 1560, Note_on_c, 0, 67, 45
2, 1563, Note_on_c, 0, 50, 0
2, 1563, Control_c, 0, 64, 127
2, 1587, Note_on_c, 0, 67, 0
2, 1587, Note_on_c, 0, 70, 0
2, 1590, Note_on_c, 0, 67, 47
2, 1590, Note_on_c, 0, 76, 34
2, 1617, Note_on_c, 0, 76, 0
2, 1617, Note_on_c, 0, 67, 0
2, 1619, Note_on_c, 0, 61, 78
2, 1620, Note_on_c, 0, 70, 50
2, 1620, Note_on_c, 0, 76, 47
2, 1647, Note_on_c, 0, 76, 0
2, 1647, Note_on_c, 0, 70, 0
2, 1650, Note_on_c, 0, 79, 50
2, 1650, Note_on_c, 0, 70, 47
2, 1663, Note_on_c, 0, 61, 0
2, 1663, Note_on_c, 0, 49, 0
2, 1677, Note_on_c, 0, 79, 0
2, 1677, Note_on_c, 0, 70, 0
2, 1679, Note_on_c, 0, 62, 74
2, 1679, Note_on_c, 0, 50, 70
2, 1680, Note_on_c, 0, 74, 58
2, 1680, Note_on_c, 0, 69, 48
2, 1694, Control_c, 0, 64, 0
2, 1707, Note_on_c, 0, 69, 0
2, 1707, Note_on_c, 0, 74, 0
2, 1710, Note_on_c, 0, 69, 45
2, 1710, Note_on_c, 0, 77, 45
2, 1716, Note_on_c, 0, 50, 0
2, 1717, Note_on_c, 0, 62, 0
2, 1737, Note_on_c, 0, 69, 0
2, 1737, Note_on_c, 0, 77, 0
2, 1738, Control_c, 0, 64, 127
2, 1739, Note_on_c, 0, 52, 66
2, 1739, Note_on_c, 0, 60, 75
2, 1740, Note_on_c, 0, 67, 48
2, 1740, Note_on_c, 0, 69, 56
2, 1767, Note_on_c, 0, 69, 0
2, 1767, Note_on_c, 0, 67, 0
2, 1770, Note_on_c, 0, 67, 42
2, 1770, Note_on_c, 0, 76, 50
2, 1780, Note_on_c, 0, 60, 0
2, 1784, Note_on_c, 0, 52, 0
2, 1797, Note_on_c, 0, 67, 0
2, 1797, Note_on_c, 0, 76, 0
2, 1799, Note_on_c, 0, 61, 76
2, 1799, Note_on_c, 0, 52, 69
2, 1800, Note_on_c, 0, 69, 54
2, 1800, Note_on_c, 0, 67, 44
2, 1827, Note_on_c, 0, 67, 0
2, 1827, Note_on_c, 0, 69, 0
2, 1829, Note_on_c, 0, 61, 0
2, 1830, Note_on_c, 0, 52, 0
2, 1830, Note_on_c, 0, 67, 46
2, 1830, Note_on_c, 0, 76, 46
2, 1857, Note_on_c, 0, 76, 0
2, 1857, Note_on_c, 0, 67, 0
2, 1860, Note_on_c, 0, 69, 58
2, 1860, Note_on_c, 0, 65, 51
2, 1861, Note_on_c, 0, 62, 76
2, 1861, Note_on_c, 0, 53, 74
2, 1866, Control_c, 0, 64, 0
2, 1887, Note_on_c, 0, 65, 0
2, 1887, Note_on_c, 0, 69, 0
2, 1890, Note_on_c, 0, 65, 46
2, 1890, Note_on_c, 0, 74, 45
2, 1917, Note_on_c, 0, 74, 0
2, 1917, Note_on_c, 0, 65, 0
2, 1917, Note_on_c, 0, 62, 0
2, 1919, Note_on_c, 0, 54, 78
2, 1920, Note_on_c, 0, 63, 46
2, 1920, Note_on_c, 0, 69, 52
2, 1925, Note_on_c, 0, 53, 0
2, 1947, Note_on_c, 0, 69, 0
2, 1947, Note_on_c, 0, 63, 0
2, 1950, Note_on_c, 0, 72, 56
2, 1950, Note_on_c, 0, 63, 45
2, 1977, Note_on_c, 0, 63, 0
2, 1977, Note_on_c, 0, 72, 0
2, 1979, Note_on_c, 0, 54, 0
2, 1979, Note_on_c, 0, 55, 79
2, 1980, Note_on_c, 0, 64, 42
2, 1980, Note_on_c, 0, 67, 55
2, 1985, Control_c, 0, 64, 127
2, 2007, Note_on_c, 0, 67, 0
2, 2007, Note_on_c, 0, 64, 0
2, 2010, Note_on_c, 0, 64, 51
2, 2010, Note_on_c, 0, 72, 45
2, 2037, Note_on_c, 0, 72, 0
2, 2037, Note_on_c, 0, 64, 0
2, 2039, Note_on_c, 0, 43, 76
2, 2040, Note_on_c, 0, 63, 47
2, 2040, Note_on_c, 0, 66, 60
2, 2047, Note_on_c, 0, 55, 0
2, 2067, Note_on_c, 0, 66, 0
2, 2067, Note_on_c, 0, 63, 0
2, 2067, Control_c, 0, 64, 0
2, 2070, Note_on_c, 0, 72, 52
2, 2070, Note_on_c, 0, 63, 50
2, 2097, Note_on_c, 0, 63, 0
2, 2097, Note_on_c, 0, 72, 0
2, 2097, Note_on_c, 0, 43, 0
2, 2100, Note_on_c, 0, 62, 51
2, 2100, Note_on_c, 0, 65, 58
2, 2101, Note_on_c, 0, 55, 73
2, 2127, Note_on_c, 0, 65, 0
2, 2127, Note_on_c, 0, 62, 0
2, 2130, Note_on_c, 0, 62, 48
2, 2130, Note_on_c, 0, 71, 57
2, 2157, Note_on_c, 0, 71, 0
2, 2157, Note_on_c, 0, 62, 0
2, 2159, Note_on_c, 0, 48, 78
2, 2160, Note_on_c, 0, 64, 43
2, 2160, Note_on_c, 0, 67, 45
2, 2164, Note_on_c, 0, 55, 0
2, 2187, Note_on_c, 0, 67, 0
2, 2187, Note_on_c, 0, 64, 0
2, 2190, Note_on_c, 0, 64, 48
2, 2190, Note_on_c, 0, 72, 50
2, 2217, Note_on_c, 0, 72, 0
2, 2217, Note_on_c, 0, 64, 0
2, 2219, Note_on_c, 0, 56, 77
2, 2220, Note_on_c, 0, 68, 47
2, 2220, Note_on_c, 0, 65, 39
2, 2247, Note_on_c, 0, 65, 0
2, 2247, Note_on_c, 0, 68, 0
2, 2250, Note_on_c, 0, 65, 45
2, 2250, Note_on_c, 0, 74, 61
2, 2277, Note_on_c, 0, 74, 0
2, 2277, Note_on_c, 0, 65, 0
2, 2280, Note_on_c, 0, 65, 48
2, 2280, Note_on_c, 0, 62, 37
2, 2307, Note_on_c, 0, 62, 0
2, 2307, Note_on_c, 0, 65, 0
2, 2310, Note_on_c, 0, 62, 48
2, 2310, Note_on_c, 0, 71, 51
2, 2337, Note_on_c, 0, 71, 0
2, 2337, Note_on_c, 0, 62, 0
2, 2340, Note_on_c, 0, 62, 50
2, 2340, Note_on_c, 0, 59, 39
2, 2341, Note_on_c, 0, 55, 69
2, 2344, Note_on_c, 0, 56, 0
2, 2367, Note_on_c, 0, 59, 0
2, 2367, Note_on_c, 0, 62, 0
2, 2370, Note_on_c, 0, 59, 44
2, 2370, Note_on_c, 0, 67, 50
2, 2397, Note_on_c, 0, 67, 0
2, 2397, Note_on_c, 0, 59, 0
2, 2400, Note_on_c, 0, 60, 48
2, 2400, Note_on_c, 0, 63, 53
2, 2401, Note_on_c, 0, 54, 72
2, 2408, Note_on_c, 0, 55, 0
2, 2427, Note_on_c, 0, 63, 0
2, 2427, Note_on_c, 0, 60, 0
2, 2430, Note_on_c, 0, 69, 54
2, 2430, Note_on_c, 0, 60, 45
2, 2457, Note_on_c, 0, 60, 0
2, 2457, Note_on_c, 0, 69, 0
2, 2460, Note_on_c, 0, 62, 48
2, 2460, Note_on_c, 0, 68, 57
2, 2461, Note_on_c, 0, 53, 75
2, 2465, Note_on_c, 0, 54, 0
2, 2473, Note_on_c, 0, 48, 0
2, 2485, Note_on_c, 0, 53, 0
2, 2487, Note_on_c, 0, 62, 0
2, 2487, Note_on_c, 0, 68, 0
2, 2490, Note_on_c, 0, 62, 45
2, 2490, Note_on_c, 0, 71, 48
2, 2513, Control_c, 0, 64, 127
2, 2517, Note_on_c, 0, 71, 0
2, 2517, Note_on_c, 0, 62, 0
2, 2520, Note_on_c, 0, 64, 39
2, 2520, Note_on_c, 0, 67, 39
2, 2521, Note_on_c, 0, 36, 79
2, 2538, Note_on_c, 0, 36, 0
2, 2547, Note_on_c, 0, 67, 0
2, 2547, Note_on_c, 0, 64, 0
2, 2550, Note_on_c, 0, 64, 45
2, 2550, Note_on_c, 0, 72, 46
2, 2577, Note_on_c, 0, 72, 0
2, 2577, Note_on_c, 0, 64, 0
2, 2580, Note_on_c, 0, 68, 54
2, 2580, Note_on_c, 0, 65, 54
2, 2581, Note_on_c, 0, 48, 83
2, 2585, Control_c, 0, 64, 0
2, 2607, Note_on_c, 0, 65, 0
2, 2607, Note_on_c, 0, 68, 0
2, 2610, Note_on_c, 0, 65, 47
2, 2610, Note_on_c, 0, 74, 62
2, 2637, Note_on_c, 0, 74, 0
2, 2637, Note_on_c, 0, 65, 0
2, 2640, Note_on_c, 0, 62, 48
2, 2640, Note_on_c, 0, 65, 53
2, 2641, Note_on_c, 0, 56, 66
2, 2667, Note_on_c, 0, 65, 0
2, 2667, Note_on_c, 0, 62, 0
2, 2670, Note_on_c, 0, 71, 56
2, 2670, Note_on_c, 0, 62, 48
2, 2696, Note_on_c, 0, 56, 0
2, 2697, Note_on_c, 0, 62, 0
2, 2697, Note_on_c, 0, 71, 0
2, 2700, Note_on_c, 0, 59, 44
2, 2700, Note_on_c, 0, 62, 42
2, 2700, Note_on_c, 0, 55, 68
2, 2727, Note_on_c, 0, 62, 0
2, 2727, Note_on_c, 0, 59, 0
2, 2730, Note_on_c, 0, 67, 49
2, 2730, Note_on_c, 0, 59, 40
2, 2757, Note_on_c, 0, 59, 0
2, 2757, Note_on_c, 0, 67, 0
2, 2760, Note_on_c, 0, 60, 48
2, 2760, Note_on_c, 0, 63, 51
2, 2761, Note_on_c, 0, 54, 68
2, 2764, Note_on_c, 0, 55, 0
2, 2787, Note_on_c, 0, 63, 0
2, 2787, Note_on_c, 0, 60, 0
2, 2790, Note_on_c, 0, 69, 54
2, 2790, Note_on_c, 0, 60, 43
2, 2817, Note_on_c, 0, 60, 0
2, 2817, Note_on_c, 0, 69, 0
2, 2820, Note_on_c, 0, 68, 57
2, 2820, Note_on_c, 0, 62, 49
2, 2820, Note_on_c, 0, 53, 68
2, 2825, Note_on_c, 0, 54, 0
2, 2835, Note_on_c, 0, 48, 0
2, 2847, Note_on_c, 0, 62, 0
2, 2847, Note_on_c, 0, 68, 0
2, 2850, Note_on_c, 0, 71, 50
2, 2850, Note_on_c, 0, 62, 45
2, 2877, Note_on_c, 0, 62, 0
2, 2877, Note_on_c, 0, 71, 0
2, 2879, Note_on_c, 0, 52, 72
2, 2880, Note_on_c, 0, 64, 41
2, 2880, Note_on_c, 0, 67, 47
2, 2893, Note_on_c, 0, 53, 0
2, 2907, Note_on_c, 0, 67, 0
2, 2907, Note_on_c, 0, 64, 0
2, 2910, Note_on_c, 0, 64, 51
2, 2910, Note_on_c, 0, 72, 55
2, 2937, Note_on_c, 0, 72, 0
2, 2937, Note_on_c, 0, 64, 0
2, 2940, Note_on_c, 0, 70, 56
2, 2940, Note_on_c, 0, 67, 46
2, 2941, Note_on_c, 0, 48, 77
2, 2947, Note_on_c, 0, 52, 0
2, 2967, Note_on_c, 0, 70, 0
2, 2967, Note_on_c, 0, 67, 0
2, 2970, Note_on_c, 0, 67, 51
2, 2970, Note_on_c, 0, 76, 56
2, 2997, Note_on_c, 0, 76, 0
2, 2997, Note_on_c, 0, 67, 0
2, 2999, Note_on_c, 0, 47, 75
2, 3000, Note_on_c, 0, 67, 42
2, 3000, Note_on_c, 0, 71, 59
2, 3002, Note_on_c, 0, 48, 0
2, 3027, Note_on_c, 0, 71, 0
2, 3027, Note_on_c, 0, 67, 0
2, 3030, Note_on_c, 0, 67, 45
2, 3030, Note_on_c, 0, 76, 56
2, 3057, Note_on_c, 0, 76, 0
2, 3057, Note_on_c, 0, 67, 0
2, 3060, Note_on_c, 0, 73, 51
2, 3060, Note_on_c, 0, 67, 45
2, 3061, Note_on_c, 0, 46, 78
2, 3062, Note_on_c, 0, 47, 0
2, 3087, Note_on_c, 0, 73, 0
2, 3087, Note_on_c, 0, 67, 0
2, 3090, Note_on_c, 0, 67, 44
2, 3090, Note_on_c, 0, 76, 57
2, 3117, Note_on_c, 0, 76, 0
2, 3117, Note_on_c, 0, 67, 0
2, 3119, Note_on_c, 0, 47, 78
2, 3120, Note_on_c, 0, 71, 46
2, 3120, Note_on_c, 0, 76, 49
2, 3121, Note_on_c, 0, 46, 0
2, 3147, Note_on_c, 0, 76, 0
2, 3147, Note_on_c, 0, 71, 0
2, 3150, Note_on_c, 0, 71, 51
2, 3150, Note_on_c, 0, 79, 56
2, 3175, Note_on_c, 0, 47, 0
2, 3177, Note_on_c, 0, 79, 0
2, 3177, Note_on_c, 0, 71, 0
2, 3179, Note_on_c, 0, 59, 79
2, 3180, Note_on_c, 0, 71, 56
2, 3180, Note_on_c, 0, 69, 45
2, 3207, Note_on_c, 0, 69, 0
2, 3207, Note_on_c, 0, 71, 0
2, 3210, Note_on_c, 0, 69, 47
2, 3210, Note_on_c, 0, 78, 46
2, 3233, Note_on_c, 0, 59, 0
2, 3237, Note_on_c, 0, 78, 0
2, 3237, Note_on_c, 0, 69, 0
2, 3239, Note_on_c, 0, 52, 85
2, 3240, Note_on_c, 0, 67, 45
2, 3240, Note_on_c, 0, 71, 52
2, 3242, Control_c, 0, 64, 127
2, 3267, Note_on_c, 0, 71, 0
2, 3267, Note_on_c, 0, 67, 0
2, 3270, Note_on_c, 0, 67, 47
2, 3270, Note_on_c, 0, 76, 52
2, 3277, Note_on_c, 0, 52, 0
2, 3297, Note_on_c, 0, 76, 0
2, 3297, Note_on_c, 0, 67, 0
2, 3300, Note_on_c, 0, 76, 56
2, 3300, Note_on_c, 0, 71, 45
2, 3327, Note_on_c, 0, 71, 0
2, 3327, Note_on_c, 0, 76, 0
2, 3330, Note_on_c, 0, 71, 47
2, 3330, Note_on_c, 0, 79, 52
2, 3357, Note_on_c, 0, 79, 0
2, 3357, Note_on_c, 0, 71, 0
2, 3360, Note_on_c, 0, 79, 54
2, 3360, Note_on_c, 0, 76, 45
2, 3387, Note_on_c, 0, 76, 0
2, 3387, Note_on_c, 0, 79, 0
2, 3390, Note_on_c, 0, 76, 47
2, 3390, Note_on_c, 0, 83, 56
2, 3417, Note_on_c, 0, 83, 0
2, 3417, Note_on_c, 0, 76, 0
2, 3420, Note_on_c, 0, 79, 45
2, 3420, Note_on_c, 0, 83, 51
2, 3420, Control_c, 0, 64, 0
2, 3421, Note_on_c, 0, 64, 71
2, 3447, Note_on_c, 0, 83, 0
2, 3447, Note_on_c, 0, 79, 0
2, 3450, Note_on_c, 0, 79, 47
2, 3450, Note_on_c, 0, 88, 55
2, 3477, Note_on_c, 0, 88, 0
2, 3477, Note_on_c, 0, 79, 0
2, 3479, Note_on_c, 0, 65, 72
2, 3480, Note_on_c, 0, 77, 40
2, 3480, Note_on_c, 0, 81, 58
2, 3484, Note_on_c, 0, 64, 0
2, 3507, Note_on_c, 0, 81, 0
2, 3507, Note_on_c, 0, 77, 0
2, 3510, Note_on_c, 0, 86, 58
2, 3510, Note_on_c, 0, 77, 46
2, 3537, Note_on_c, 0, 77, 0
2, 3537, Note_on_c, 0, 86, 0
2, 3539, Note_on_c, 0, 67, 69
2, 3540, Note_on_c, 0, 79, 54
2, 3540, Note_on_c, 0, 77, 45
2, 3542, Note_on_c, 0, 65, 0
2, 3567, Note_on_c, 0, 77, 0
2, 3567, Note_on_c, 0, 79, 0
2, 3570, Note_on_c, 0, 77, 37
2, 3570, Note_on_c, 0, 83, 51
2, 3597, Note_on_c, 0, 83, 0
2, 3597, Note_on_c, 0, 77, 0
2, 3599, Note_on_c, 0, 60, 65
2, 3600, Note_on_c, 0, 76, 43
2, 3600, Note_on_c, 0, 79, 57
2, 3609, Note_on_c, 0, 67, 0
2, 3627, Note_on_c, 0, 79, 0
2, 3627, Note_on_c, 0, 76, 0
2, 3630, Note_on_c, 0, 76, 50
2, 3630, Note_on_c, 0, 84, 55
2, 3657, Note_on_c, 0, 84, 0
2, 3657, Note_on_c, 0, 76, 0
2, 3659, Note_on_c, 0, 68, 73
2, 3660, Note_on_c, 0, 80, 51
2, 3660, Note_on_c, 0, 77, 45
2, 3663, Note_on_c, 0, 60, 0
2, 3687, Note_on_c, 0, 77, 0
2, 3687, Note_on_c, 0, 80, 0
2, 3690, Note_on_c, 0, 86, 61
2, 3690, Note_on_c, 0, 77, 47
2, 3717, Note_on_c, 0, 77, 0
2, 3717, Note_on_c, 0, 86, 0
2, 3720, Note_on_c, 0, 77, 52
2, 3720, Note_on_c, 0, 74, 45
2, 3747, Note_on_c, 0, 74, 0
2, 3747, Note_on_c, 0, 77, 0
2, 3750, Note_on_c, 0, 74, 49
2, 3750, Note_on_c, 0, 83, 54
2, 3777, Note_on_c, 0, 83, 0
2, 3777, Note_on_c, 0, 74, 0
2, 3780, Note_on_c, 0, 71, 42
2, 3780, Note_on_c, 0, 74, 54
2, 3781, Note_on_c, 0, 67, 69
2, 3791, Note_on_c, 0, 68, 0
2, 3807, Note_on_c, 0, 71, 0
2, 3807, Note_on_c, 0, 74, 0
2, 3810, Note_on_c, 0, 79, 52
2, 3810, Note_on_c, 0, 71, 47
2, 3837, Note_on_c, 0, 71, 0
2, 3837, Note_on_c, 0, 79, 0
2, 3840, Note_on_c, 0, 75, 51
2, 3840, Note_on_c, 0, 72, 40
2, 3841, Note_on_c, 0, 66, 69
2, 3848, Note_on_c, 0, 67, 0
2, 3867, Note_on_c, 0, 75, 0
2, 3867, Note_on_c, 0, 72, 0
2, 3870, Note_on_c, 0, 72, 43
2, 3870, Note_on_c, 0, 81, 46
2, 3897, Note_on_c, 0, 81, 0
2, 3897, Note_on_c, 0, 72, 0
2, 3899, Note_on_c, 0, 65, 68
2, 3900, Note_on_c, 0, 74, 48
2, 3900, Note_on_c, 0, 80, 50
2, 3903, Note_on_c, 0, 66, 0
2, 3924, Note_on_c, 0, 65, 0
2, 3927, Note_on_c, 0, 74, 0
2, 3927, Note_on_c, 0, 80, 0
2, 3930, Note_on_c, 0, 74, 49
2, 3930, Note_on_c, 0, 83, 51
2, 3953, Control_c, 0, 64, 127
2, 3957, Note_on_c, 0, 83, 0
2, 3957, Note_on_c, 0, 74, 0
2, 3959, Note_on_c, 0, 48, 73
2, 3960, Note_on_c, 0, 76, 45
2, 3960, Note_on_c, 0, 79, 52
2, 3976, Note_on_c, 0, 48, 0
2, 3987, Note_on_c, 0, 79, 0
2, 3987, Note_on_c, 0, 76, 0
2, 3990, Note_on_c, 0, 76, 42
2, 3990, Note_on_c, 0, 84, 48
2, 4017, Note_on_c, 0, 84, 0
2, 4017, Note_on_c, 0, 76, 0
2, 4020, Note_on_c, 0, 80, 51
2, 4020, Note_on_c, 0, 77, 40
2, 4020, Note_on_c, 0, 60, 77
2, 4032, Control_c, 0, 64, 0
2, 4047, Note_on_c, 0, 77, 0
2, 4047, Note_on_c, 0, 80, 0
2, 4050, Note_on_c, 0, 86, 60
2, 4050, Note_on_c, 0, 77, 48
2, 4077, Note_on_c, 0, 77, 0
2, 4077, Note_on_c, 0, 86, 0
2, 4080, Note_on_c, 0, 74, 39
2, 4080, Note_on_c, 0, 77, 44
2, 4081, Note_on_c, 0, 68, 68
2, 4107, Note_on_c, 0, 77, 0
2, 4107, Note_on_c, 0, 74, 0
2, 4110, Note_on_c, 0, 74, 43
2, 4110, Note_on_c, 0, 83, 39
2, 4137, Note_on_c, 0, 83, 0
2, 4137, Note_on_c, 0, 74, 0
2, 4139, Note_on_c, 0, 68, 0
2, 4140, Note_on_c, 0, 74, 56
2, 4140, Note_on_c, 0, 71, 44
2, 4141, Note_on_c, 0, 67, 72
2, 4167, Note_on_c, 0, 71, 0
2, 4167, Note_on_c, 0, 74, 0
2, 4170, Note_on_c, 0, 71, 46
2, 4170, Note_on_c, 0, 79, 51
2, 4197, Note_on_c, 0, 79, 0
2, 4197, Note_on_c, 0, 71, 0
2, 4200, Note_on_c, 0, 72, 46
2, 4200, Note_on_c, 0, 75, 52
2, 4200, Note_on_c, 0, 66, 69
2, 4203, Note_on_c, 0, 67, 0
2, 4227, Note_on_c, 0, 75, 0
2, 4227, Note_on_c, 0, 72, 0
2, 4230, Note_on_c, 0, 72, 48
2, 4230, Note_on_c, 0, 81, 60
2, 4256, Note_on_c, 0, 66, 0
2, 4257, Note_on_c, 0, 81, 0
2, 4257, Note_on_c, 0, 72, 0
2, 4259, Note_on_c, 0, 65, 72
2, 4260, Note_on_c, 0, 80, 50
2, 4260, Note_on_c, 0, 74, 44
2, 4287, Note_on_c, 0, 74, 0
2, 4287, Note_on_c, 0, 80, 0
2, 4289, Note_on_c, 0, 60, 0
2, 4290, Note_on_c, 0, 83, 47
2, 4290, Note_on_c, 0, 74, 43
2, 4317, Note_on_c, 0, 74, 0
2, 4317, Note_on_c, 0, 83, 0
2, 4319, Note_on_c, 0, 64, 74
2, 4320, Note_on_c, 0, 76, 43
2, 4320, Note_on_c, 0, 79, 55
2, 4325, Note_on_c, 0, 65, 0
2, 4347, Note_on_c, 0, 79, 0
2, 4347, Note_on_c, 0, 76, 0
2, 4350, Note_on_c, 0, 84, 45
2, 4350, Note_on_c, 0, 76, 45
2, 4377, Note_on_c, 0, 76, 0
2, 4377, Note_on_c, 0, 84, 0
2, 4379, Note_on_c, 0, 62, 73
2, 4380, Note_on_c, 0, 83, 60
2, 4380, Note_on_c, 0, 77, 50
2, 4389, Note_on_c, 0, 64, 0
2, 4407, Note_on_c, 0, 77, 0
2, 4407, Note_on_c, 0, 83, 0
2, 4410, Note_on_c, 0, 86, 54
2, 4410, Note_on_c, 0, 77, 48
2, 4437, Note_on_c, 0, 77, 0
2, 4437, Note_on_c, 0, 86, 0
2, 4439, Note_on_c, 0, 61, 75
2, 4440, Note_on_c, 0, 82, 55
2, 4440, Note_on_c, 0, 79, 42
2, 4443, Note_on_c, 0, 62, 0
2, 4447, Control_c, 0, 64, 127
2, 4467, Note_on_c, 0, 79, 0
2, 4467, Note_on_c, 0, 82, 0
2, 4470, Note_on_c, 0, 79, 48
2, 4470, Note_on_c, 0, 88, 48
2, 4497, Note_on_c, 0, 88, 0
2, 4497, Note_on_c, 0, 79, 0
2, 4499, Note_on_c, 0, 70, 57
2, 4499, Note_on_c, 0, 73, 74
2, 4499, Note_on_c, 0, 67, 57
2, 4500, Note_on_c, 0, 88, 49
2, 4500, Note_on_c, 0, 82, 44
2, 4527, Note_on_c, 0, 82, 0
2, 4527, Note_on_c, 0, 61, 0
2, 4527, Note_on_c, 0, 88, 0
2, 4530, Note_on_c, 0, 82, 50
2, 4530, Note_on_c, 0, 91, 32
2, 4548, Note_on_c, 0, 67, 0
2, 4550, Note_on_c, 0, 70, 0
2, 4550, Control_c, 0, 64, 0
2, 4555, Note_on_c, 0, 73, 0
2, 4557, Note_on_c, 0, 82, 0
2, 4557, Note_on_c, 0, 91, 0
2, 4559, Note_on_c, 0, 74, 72
2, 4559, Note_on_c, 0, 69, 55
2, 4559, Note_on_c, 0, 62, 55
2, 4560, Note_on_c, 0, 81, 48
2, 4560, Note_on_c, 0, 86, 51
2, 4560, Note_on_c, 0, 65, 55
2, 4587, Note_on_c, 0, 86, 0
2, 4587, Note_on_c, 0, 81, 0
2, 4590, Note_on_c, 0, 89, 45
2, 4590, Note_on_c, 0, 81, 45
2, 4608, Note_on_c, 0, 62, 0
2, 4608, Note_on_c, 0, 65, 0
2, 4609, Note_on_c, 0, 69, 0
2, 4611, Note_on_c, 0, 74, 0
2, 4617, Note_on_c, 0, 81, 0
2, 4617, Note_on_c, 0, 89, 0
2, 4619, Control_c, 0, 64, 127
2, 4620, Note_on_c, 0, 81, 54
2, 4620, Note_on_c, 0, 79, 47
2, 4620, Note_on_c, 0, 73, 70
2, 4621, Note_on_c, 0, 69, 55
2, 4621, Note_on_c, 0, 64, 55
2, 4621, Note_on_c, 0, 67, 55
2, 4647, Note_on_c, 0, 79, 0
2, 4647, Note_on_c, 0, 81, 0
2, 4650, Note_on_c, 0, 79, 48
2, 4650, Note_on_c, 0, 88, 51
2, 4663, Note_on_c, 0, 64, 0
2, 4664, Note_on_c, 0, 69, 0
2, 4664, Note_on_c, 0, 67, 0
2, 4668, Note_on_c, 0, 73, 0
2, 4677, Note_on_c, 0, 79, 0
2, 4677, Note_on_c, 0, 88, 0
2, 4680, Note_on_c, 0, 79, 45
2, 4680, Note_on_c, 0, 81, 51
2, 4681, Note_on_c, 0, 73, 74
2, 4681, Note_on_c, 0, 67, 57
2, 4681, Note_on_c, 0, 64, 57
2, 4681, Note_on_c, 0, 69, 57
2, 4705, Note_on_c, 0, 64, 0
2, 4707, Note_on_c, 0, 81, 0
2, 4707, Note_on_c, 0, 79, 0
2, 4710, Note_on_c, 0, 79, 49
2, 4710, Note_on_c, 0, 88, 51
2, 4717, Note_on_c, 0, 67, 0
2, 4717, Note_on_c, 0, 69, 0
2, 4720, Note_on_c, 0, 73, 0
2, 4737, Note_on_c, 0, 88, 0
2, 4737, Note_on_c, 0, 79, 0
2, 4738, Control_c, 0, 64, 0
2, 4740, Note_on_c, 0, 81, 51
2, 4740, Note_on_c, 0, 77, 36
2, 4741, Note_on_c, 0, 69, 63
2, 4741, Note_on_c, 0, 74, 72
2, 4741, Note_on_c, 0, 65, 63
2, 4767, Note_on_c, 0, 77, 0
2, 4767, Note_on_c, 0, 81, 0
2, 4770, Note_on_c, 0, 77, 47
2, 4770, Note_on_c, 0, 86, 42
2, 4775, Note_on_c, 0, 74, 0
2, 4776, Note_on_c, 0, 65, 0
2, 4779, Note_on_c, 0, 69, 0
2, 4797, Note_on_c, 0, 77, 0
2, 4797, Note_on_c, 0, 86, 0
2, 4800, Note_on_c, 0, 81, 56
2, 4800, Note_on_c, 0, 75, 50
2, 4801, Note_on_c, 0, 69, 59
2, 4801, Note_on_c, 0, 66, 71
2, 4827, Note_on_c, 0, 75, 0
2, 4827, Note_on_c, 0, 81, 0
2, 4830, Note_on_c, 0, 75, 45
2, 4830, Note_on_c, 0, 84, 55
2, 4857, Note_on_c, 0, 84, 0
2, 4857, Note_on_c, 0, 75, 0
2, 4860, Note_on_c, 0, 76, 40
2, 4860, Note_on_c, 0, 79, 45
2, 4861, Note_on_c, 0, 67, 70
2, 4866, Note_on_c, 0, 69, 0
2, 4868, Note_on_c, 0, 66, 0
2, 4868, Control_c, 0, 64, 127
2, 4887, Note_on_c, 0, 79, 0
2, 4887, Note_on_c, 0, 76, 0
2, 4890, Note_on_c, 0, 76, 45
2, 4890, Note_on_c, 0, 84, 47
2, 4917, Note_on_c, 0, 84, 0
2, 4917, Note_on_c, 0, 76, 0
2, 4920, Note_on_c, 0, 78, 50
2, 4920, Note_on_c, 0, 75, 39
2, 4921, Note_on_c, 0, 55, 65
2, 4922, Control_c, 0, 64, 0
2, 4930, Note_on_c, 0, 67, 0
2, 4947, Note_on_c, 0, 78, 0
2, 4947, Note_on_c, 0, 75, 0
2, 4950, Note_on_c, 0, 75, 50
2, 4950, Note_on_c, 0, 84, 51
2, 4977, Note_on_c, 0, 84, 0
2, 4977, Note_on_c, 0, 75, 0
2, 4978, Note_on_c, 0, 55, 0
2, 4979, Note_on_c, 0, 67, 68
2, 4980, Note_on_c, 0, 74, 45
2, 4980, Note_on_c, 0, 77, 51
2, 4994, Note_on_c, 0, 67, 0
2, 5007, Note_on_c, 0, 77, 0
2, 5007, Note_on_c, 0, 74, 0
2, 5010, Note_on_c, 0, 83, 54
2, 5010, Note_on_c, 0, 74, 44
2, 5028, Note_on_c, 0, 48, 65
2, 5035, Control_c, 0, 64, 127
2, 5037, Note_on_c, 0, 74, 0
2, 5037, Note_on_c, 0, 83, 0
2, 5040, Note_on_c, 0, 76, 44
2, 5040, Note_on_c, 0, 79, 56
2, 5040, Note_on_c, 0, 60, 69
2, 5045, Note_on_c, 0, 48, 0
2, 5067, Note_on_c, 0, 76, 0
2, 5067, Note_on_c, 0, 79, 0
2, 5070, Note_on_c, 0, 76, 44
2, 5070, Note_on_c, 0, 84, 54
2, 5097, Note_on_c, 0, 84, 0
2, 5097, Note_on_c, 0, 76, 0
2, 5100, Note_on_c, 0, 80, 48
2, 5100, Note_on_c, 0, 77, 32
2, 5100, Note_on_c, 0, 68, 70
2, 5103, Control_c, 0, 64, 0
2, 5127, Note_on_c, 0, 77, 0
2, 5127, Note_on_c, 0, 80, 0
2, 5130, Note_on_c, 0, 86, 60
2, 5130, Note_on_c, 0, 77, 46
2, 5157, Note_on_c, 0, 77, 0
2, 5157, Note_on_c, 0, 86, 0
2, 5160, Note_on_c, 0, 77, 51
2, 5160, Note_on_c, 0, 74, 46
2, 5187, Note_on_c, 0, 74, 0
2, 5187, Note_on_c, 0, 77, 0
2, 5190, Note_on_c, 0, 74, 47
2, 5190, Note_on_c, 0, 83, 51
2, 5217, Note_on_c, 0, 83, 0
2, 5217, Note_on_c, 0, 74, 0
2, 5218, Note_on_c, 0, 68, 0
2, 5219, Note_on_c, 0, 67, 56
2, 5220, Note_on_c, 0, 74, 55
2, 5220, Note_on_c, 0, 71, 36
2, 5247, Note_on_c, 0, 71, 0
2, 5247, Note_on_c, 0, 74, 0
2, 5250, Note_on_c, 0, 79, 54
2, 5250, Note_on_c, 0, 71, 45
2, 5277, Note_on_c, 0, 71, 0
2, 5277, Note_on_c, 0, 79, 0
2, 5279, Note_on_c, 0, 66, 58
2, 5280, Note_on_c, 0, 72, 47
2, 5280, Note_on_c, 0, 75, 56
2, 5285, Note_on_c, 0, 67, 0
2, 5307, Note_on_c, 0, 72, 0
2, 5307, Note_on_c, 0, 75, 0
2, 5310, Note_on_c, 0, 72, 45
2, 5310, Note_on_c, 0, 81, 56
2, 5334, Note_on_c, 0, 66, 0
2, 5337, Note_on_c, 0, 81, 0
2, 5337, Note_on_c, 0, 72, 0
2, 5339, Note_on_c, 0, 65, 56
2, 5340, Note_on_c, 0, 80, 56
2, 5340, Note_on_c, 0, 74, 47
2, 5367, Note_on_c, 0, 74, 0
2, 5367, Note_on_c, 0, 80, 0
2, 5370, Note_on_c, 0, 60, 0
2, 5370, Note_on_c, 0, 74, 43
2, 5370, Note_on_c, 0, 83, 46
2, 5372, Note_on_c, 0, 65, 0
2, 5397, Note_on_c, 0, 83, 0
2, 5397, Note_on_c, 0, 74, 0
2, 5399, Control_c, 0, 64, 127
2, 5400, Note_on_c, 0, 79, 45
2, 5400, Note_on_c, 0, 76, 39
2, 5401, Note_on_c, 0, 48, 62
2, 5427, Note_on_c, 0, 76, 0
2, 5427, Note_on_c, 0, 79, 0
2, 5429, Note_on_c, 0, 48, 0
2, 5430, Note_on_c, 0, 76, 47
2, 5430, Note_on_c, 0, 84, 50
2, 5457, Note_on_c, 0, 84, 0
2, 5457, Note_on_c, 0, 76, 0
2, 5460, Note_on_c, 0, 80, 54
2, 5460, Note_on_c, 0, 77, 35
2, 5460, Note_on_c, 0, 60, 62
2, 5465, Control_c, 0, 64, 0
2, 5487, Note_on_c, 0, 77, 0
2, 5487, Note_on_c, 0, 80, 0
2, 5490, Note_on_c, 0, 86, 62
2, 5490, Note_on_c, 0, 77, 49
2, 5517, Note_on_c, 0, 77, 0
2, 5517, Note_on_c, 0, 86, 0
2, 5520, Note_on_c, 0, 77, 50
2, 5520, Note_on_c, 0, 74, 41
2, 5521, Note_on_c, 0, 68, 68
2, 5547, Note_on_c, 0, 74, 0
2, 5547, Note_on_c, 0, 77, 0
2, 5550, Note_on_c, 0, 74, 39
2, 5550, Note_on_c, 0, 83, 48
2, 5577, Note_on_c, 0, 83, 0
2, 5577, Note_on_c, 0, 74, 0
2, 5579, Note_on_c, 0, 67, 65
2, 5580, Note_on_c, 0, 71, 34
2, 5580, Note_on_c, 0, 74, 43
2, 5581, Note_on_c, 0, 68, 0
2, 5607, Note_on_c, 0, 71, 0
2, 5607, Note_on_c, 0, 74, 0
2, 5610, Note_on_c, 0, 71, 39
2, 5610, Note_on_c, 0, 79, 41
2, 5637, Note_on_c, 0, 79, 0
2, 5637, Note_on_c, 0, 71, 0
2, 5640, Note_on_c, 0, 75, 48
2, 5640, Note_on_c, 0, 72, 41
2, 5640, Note_on_c, 0, 66, 63
2, 5646, Note_on_c, 0, 67, 0
2, 5667, Note_on_c, 0, 72, 0
2, 5667, Note_on_c, 0, 75, 0
2, 5670, Note_on_c, 0, 81, 48
2, 5670, Note_on_c, 0, 72, 37
2, 5692, Note_on_c, 0, 66, 0
2, 5697, Note_on_c, 0, 72, 0
2, 5697, Note_on_c, 0, 81, 0
2, 5699, Note_on_c, 0, 65, 65
2, 5700, Note_on_c, 0, 74, 46
2, 5700, Note_on_c, 0, 80, 56
2, 5727, Note_on_c, 0, 80, 0
2, 5727, Note_on_c, 0, 74, 0
2, 5727, Note_on_c, 0, 60, 0
2, 5730, Note_on_c, 0, 83, 50
2, 5730, Note_on_c, 0, 74, 36
2, 5757, Note_on_c, 0, 74, 0
2, 5757, Note_on_c, 0, 83, 0
2, 5759, Note_on_c, 0, 64, 62
2, 5760, Note_on_c, 0, 76, 43
2, 5760, Note_on_c, 0, 79, 50
2, 5766, Note_on_c, 0, 65, 0
2, 5767, Control_c, 0, 64, 127
2, 5787, Note_on_c, 0, 79, 0
2, 5787, Note_on_c, 0, 76, 0
2, 5790, Note_on_c, 0, 76, 40
2, 5790, Note_on_c, 0, 84, 44
2, 5817, Note_on_c, 0, 84, 0
2, 5817, Note_on_c, 0, 76, 0
2, 5819, Note_on_c, 0, 60, 66
2, 5820, Note_on_c, 0, 82, 56
2, 5820, Note_on_c, 0, 79, 39
2, 5832, Note_on_c, 0, 64, 0
2, 5834, Control_c, 0, 64, 0
2, 5847, Note_on_c, 0, 79, 0
2, 5847, Note_on_c, 0, 82, 0
2, 5850, Note_on_c, 0, 79, 49
2, 5850, Note_on_c, 0, 88, 50
2, 5877, Note_on_c, 0, 88, 0
2, 5877, Note_on_c, 0, 79, 0
2, 5879, Note_on_c, 0, 59, 67
2, 5880, Note_on_c, 0, 60, 0
2, 5880, Note_on_c, 0, 79, 43
2, 5880, Note_on_c, 0, 83, 51
2, 5907, Note_on_c, 0, 83, 0
2, 5907, Note_on_c, 0, 79, 0
2, 5910, Note_on_c, 0, 79, 45
2, 5910, Note_on_c, 0, 88, 51
2, 5937, Note_on_c, 0, 88, 0
2, 5937, Note_on_c, 0, 79, 0
2, 5939, Note_on_c, 0, 58, 70
2, 5940, Note_on_c, 0, 85, 53
2, 5940, Note_on_c, 0, 79, 48
2, 5943, Note_on_c, 0, 59, 0
2, 5950, Control_c, 0, 64, 127
2, 5967, Note_on_c, 0, 79, 0
2, 5967, Note_on_c, 0, 85, 0
2, 5970, Note_on_c, 0, 88, 47
2, 5970, Note_on_c, 0, 79, 36
2, 5997, Note_on_c, 0, 79, 0
2, 5997, Note_on_c, 0, 88, 0
2, 5997, Note_on_c, 0, 58, 0
2, 5999, Note_on_c, 0, 59, 70
2, 6000, Note_on_c, 0, 88, 60
2, 6000, Note_on_c, 0, 83, 47
2, 6018, Control_c, 0, 64, 0
2, 6027, Note_on_c, 0, 83, 0
2, 6027, Note_on_c, 0, 88, 0
2, 6030, Note_on_c, 0, 83, 47
2, 6030, Note_on_c, 0, 91, 51
2, 6057, Note_on_c, 0, 91, 0
2, 6057, Note_on_c, 0, 83, 0
2, 6060, Note_on_c, 0, 81, 45
2, 6060, Note_on_c, 0, 83, 57
2, 6061, Note_on_c, 0, 47, 69
2, 6074, Note_on_c, 0, 59, 0
2, 6087, Note_on_c, 0, 81, 0
2, 6087, Note_on_c, 0, 83, 0
2, 6090, Note_on_c, 0, 81, 51
2, 6090, Note_on_c, 0, 90, 56
2, 6117, Note_on_c, 0, 90, 0
2, 6117, Note_on_c, 0, 81, 0
2, 6117, Note_on_c, 0, 47, 0
2, 6117, Control_c, 0, 64, 127
2, 6119, Note_on_c, 0, 40, 67
2, 6120, Note_on_c, 0, 79, 42
2, 6120, Note_on_c, 0, 83, 54
2, 6139, Note_on_c, 0, 40, 0
2, 6147, Note_on_c, 0, 83, 0
2, 6147, Note_on_c, 0, 79, 0
2, 6150, Note_on_c, 0, 79, 49
2, 6150, Note_on_c, 0, 88, 52
2, 6177, Note_on_c, 0, 88, 0
2, 6177, Note_on_c, 0, 79, 0
2, 6179, Note_on_c, 0, 55, 65
2, 6180, Note_on_c, 0, 79, 50
2, 6180, Note_on_c, 0, 83, 58
2, 6207, Note_on_c, 0, 83, 0
2, 6207, Note_on_c, 0, 79, 0
2, 6210, Note_on_c, 0, 79, 54
2, 6210, Note_on_c, 0, 88, 50
2, 6237, Note_on_c, 0, 88, 0
2, 6237, Note_on_c, 0, 79, 0
2, 6239, Note_on_c, 0, 52, 62
2, 6240, Note_on_c, 0, 79, 47
2, 6240, Note_on_c, 0, 83, 55
2, 6242, Note_on_c, 0, 55, 0
2, 6267, Note_on_c, 0, 83, 0
2, 6267, Note_on_c, 0, 79, 0
2, 6270, Note_on_c, 0, 88, 51
2, 6270, Note_on_c, 0, 79, 46
2, 6286, Note_on_c, 0, 52, 0
2, 6297, Note_on_c, 0, 79, 0
2, 6297, Note_on_c, 0, 88, 0
2, 6300, Note_on_c, 0, 79, 45
2, 6300, Note_on_c, 0, 83, 58
2, 6301, Note_on_c, 0, 67, 62
2, 6327, Note_on_c, 0, 83, 0
2, 6327, Note_on_c, 0, 79, 0
2, 6330, Note_on_c, 0, 79, 45
2, 6330, Note_on_c, 0, 88, 38
2, 6357, Note_on_c, 0, 88, 0
2, 6357, Note_on_c, 0, 79, 0
2, 6360, Note_on_c, 0, 79, 43
2, 6360, Note_on_c, 0, 83, 55
2, 6387, Note_on_c, 0, 83, 0
2, 6387, Note_on_c, 0, 79, 0
2, 6390, Note_on_c, 0, 79, 45
2, 6390, Note_on_c, 0, 88, 37
2, 6417, Note_on_c, 0, 88, 0
2, 6417, Note_on_c, 0, 79, 0
2, 6417, Note_on_c, 0, 67, 0
2, 6419, Note_on_c, 0, 62, 56
2, 6420, Note_on_c, 0, 82, 53
2, 6420, Note_on_c, 0, 79, 44
2, 6447, Note_on_c, 0, 79, 0
2, 6447, Note_on_c, 0, 82, 0
2, 6450, Note_on_c, 0, 79, 45
2, 6450, Note_on_c, 0, 88, 42
2, 6459, Note_on_c, 0, 62, 0
2, 6463, Control_c, 0, 64, 0
2, 6476, Control_c, 0, 64, 127
2, 6477, Note_on_c, 0, 88, 0
2, 6477, Note_on_c, 0, 79, 0
2, 6480, Note_on_c, 0, 79, 47
2, 6480, Note_on_c, 0, 81, 51
2, 6481, Note_on_c, 0, 45, 68
2, 6493, Note_on_c, 0, 45, 0
2, 6507, Note_on_c, 0, 81, 0
2, 6507, Note_on_c, 0, 79, 0
2, 6510, Note_on_c, 0, 79, 42
2, 6510, Note_on_c, 0, 88, 47
2, 6537, Note_on_c, 0, 88, 0
2, 6537, Note_on_c, 0, 79, 0
2, 6540, Note_on_c, 0, 79, 45
2, 6540, Note_on_c, 0, 81, 50
2, 6541, Note_on_c, 0, 61, 69
2, 6567, Note_on_c, 0, 81, 0
2, 6567, Note_on_c, 0, 79, 0
2, 6568, Note_on_c, 0, 61, 0
2, 6569, Note_on_c, 0, 52, 68
2, 6570, Note_on_c, 0, 79, 51
2, 6570, Note_on_c, 0, 88, 50
2, 6597, Note_on_c, 0, 88, 0
2, 6597, Note_on_c, 0, 79, 0
2, 6599, Note_on_c, 0, 45, 68
2, 6600, Note_on_c, 0, 79, 43
2, 6600, Note_on_c, 0, 81, 46
2, 6601, Note_on_c, 0, 52, 0
2, 6620, Control_c, 0, 64, 0
2, 6627, Note_on_c, 0, 81, 0
2, 6627, Note_on_c, 0, 79, 0
2, 6630, Note_on_c, 0, 79, 45
2, 6630, Note_on_c, 0, 88, 45
2, 6632, Note_on_c, 0, 45, 0
2, 6652, Control_c, 0, 64, 127
2, 6657, Note_on_c, 0, 88, 0
2, 6657, Note_on_c, 0, 79, 0
2, 6660, Note_on_c, 0, 79, 41
2, 6660, Note_on_c, 0, 81, 50
2, 6661, Note_on_c, 0, 33, 74
2, 6668, Note_on_c, 0, 33, 0
2, 6687, Note_on_c, 0, 81, 0
2, 6687, Note_on_c, 0, 79, 0
2, 6690, Note_on_c, 0, 79, 45
2, 6690, Note_on_c, 0, 88, 48
2, 6717, Note_on_c, 0, 88, 0
2, 6717, Note_on_c, 0, 79, 0
2, 6719, Note_on_c, 0, 61, 68
2, 6720, Note_on_c, 0, 81, 54
2, 6720, Note_on_c, 0, 79, 45
2, 6747, Note_on_c, 0, 79, 0
2, 6747, Note_on_c, 0, 81, 0
2, 6747, Note_on_c, 0, 61, 0
2, 6749, Note_on_c, 0, 52, 71
2, 6750, Note_on_c, 0, 79, 44
2, 6750, Note_on_c, 0, 89, 45
2, 6777, Note_on_c, 0, 89, 0
2, 6777, Note_on_c, 0, 79, 0
2, 6779, Note_on_c, 0, 45, 72
2, 6780, Note_on_c, 0, 81, 58
2, 6780, Note_on_c, 0, 79, 40
2, 6782, Note_on_c, 0, 52, 0
2, 6805, Note_on_c, 0, 45, 0
2, 6807, Note_on_c, 0, 81, 0
2, 6807, Note_on_c, 0, 79, 0
2, 6807, Control_c, 0, 64, 0
2, 6810, Note_on_c, 0, 79, 45
2, 6810, Note_on_c, 0, 88, 51
2, 6836, Control_c, 0, 64, 127
2, 6837, Note_on_c, 0, 88, 0
2, 6837, Note_on_c, 0, 79, 0
2, 6840, Note_on_c, 0, 79, 41
2, 6840, Note_on_c, 0, 81, 46
2, 6840, Note_on_c, 0, 38, 72
2, 6848, Note_on_c, 0, 38, 0
2, 6867, Note_on_c, 0, 81, 0
2, 6867, Note_on_c, 0, 79, 0
2, 6870, Note_on_c, 0, 79, 45
2, 6870, Note_on_c, 0, 88, 50
2, 6897, Note_on_c, 0, 88, 0
2, 6897, Note_on_c, 0, 79, 0
2, 6900, Note_on_c, 0, 81, 51
2, 6900, Note_on_c, 0, 76, 44
2, 6901, Note_on_c, 0, 69, 68
2, 6927, Note_on_c, 0, 76, 0
2, 6927, Note_on_c, 0, 81, 0
2, 6929, Note_on_c, 0, 57, 68
2, 6930, Note_on_c, 0, 69, 0
2, 6930, Note_on_c, 0, 85, 54
2, 6930, Note_on_c, 0, 76, 42
2, 6957, Note_on_c, 0, 76, 0
2, 6957, Note_on_c, 0, 85, 0
2, 6959, Note_on_c, 0, 50, 69
2, 6960, Note_on_c, 0, 57, 0
2, 6960, Note_on_c, 0, 81, 55
2, 6960, Note_on_c, 0, 77, 42
2, 6980, Note_on_c, 0, 50, 0
2, 6987, Note_on_c, 0, 77, 0
2, 6987, Note_on_c, 0, 81, 0
2, 6988, Control_c, 0, 64, 0
2, 6990, Note_on_c, 0, 77, 44
2, 6990, Note_on_c, 0, 86, 45
2, 7017, Note_on_c, 0, 86, 0
2, 7017, Note_on_c, 0, 77, 0
2, 7019, Note_on_c, 0, 65, 71
2, 7020, Note_on_c, 0, 81, 46
2, 7020, Note_on_c, 0, 77, 36
2, 7022, Control_c, 0, 64, 127
2, 7047, Note_on_c, 0, 77, 0
2, 7047, Note_on_c, 0, 81, 0
2, 7050, Note_on_c, 0, 77, 46
2, 7050, Note_on_c, 0, 86, 46
2, 7077, Note_on_c, 0, 86, 0
2, 7077, Note_on_c, 0, 77, 0
2, 7080, Note_on_c, 0, 77, 44
2, 7080, Note_on_c, 0, 81, 51
2, 7107, Note_on_c, 0, 81, 0
2, 7107, Note_on_c, 0, 77, 0
2, 7110, Note_on_c, 0, 77, 45
2, 7110, Note_on_c, 0, 86, 41
2, 7137, Note_on_c, 0, 86, 0
2, 7137, Note_on_c, 0, 77, 0
2, 7139, Note_on_c, 0, 60, 68
2, 7140, Note_on_c, 0, 80, 56
2, 7140, Note_on_c, 0, 77, 46
2, 7150, Note_on_c, 0, 65, 0
2, 7163, Note_on_c, 0, 60, 0
2, 7167, Note_on_c, 0, 80, 0
2, 7167, Note_on_c, 0, 77, 0
2, 7170, Note_on_c, 0, 86, 50
2, 7170, Note_on_c, 0, 77, 42
2, 7179, Control_c, 0, 64, 0
2, 7197, Note_on_c, 0, 77, 0
2, 7197, Note_on_c, 0, 86, 0
2, 7200, Note_on_c, 0, 79, 54
2, 7200, Note_on_c, 0, 77, 45
2, 7200, Note_on_c, 0, 43, 68
2, 7208, Control_c, 0, 64, 127
2, 7211, Note_on_c, 0, 43, 0
2, 7227, Note_on_c, 0, 77, 0
2, 7227, Note_on_c, 0, 79, 0
2, 7230, Note_on_c, 0, 77, 44
2, 7230, Note_on_c, 0, 86, 49
2, 7257, Note_on_c, 0, 86, 0
2, 7257, Note_on_c, 0, 77, 0
2, 7259, Note_on_c, 0, 59, 68
2, 7260, Note_on_c, 0, 79, 51
2, 7260, Note_on_c, 0, 77, 45
2, 7287, Note_on_c, 0, 77, 0
2, 7287, Note_on_c, 0, 79, 0
2, 7289, Note_on_c, 0, 50, 67
2, 7290, Note_on_c, 0, 77, 43
2, 7290, Note_on_c, 0, 86, 48
2, 7293, Note_on_c, 0, 59, 0
2, 7317, Note_on_c, 0, 86, 0
2, 7317, Note_on_c, 0, 77, 0
2, 7319, Note_on_c, 0, 43, 70
2, 7320, Note_on_c, 0, 79, 51
2, 7320, Note_on_c, 0, 77, 43
2, 7322, Note_on_c, 0, 50, 0
2, 7331, Note_on_c, 0, 43, 0
2, 7347, Note_on_c, 0, 79, 0
2, 7347, Note_on_c, 0, 77, 0
2, 7347, Control_c, 0, 64, 0
2, 7350, Note_on_c, 0, 77, 41
2, 7350, Note_on_c, 0, 86, 47
2, 7370, Control_c, 0, 64, 127
2, 7377, Note_on_c, 0, 86, 0
2, 7377, Note_on_c, 0, 77, 0
2, 7379, Note_on_c, 0, 31, 70
2, 7380, Note_on_c, 0, 79, 50
2, 7380, Note_on_c, 0, 77, 41
2, 7388, Note_on_c, 0, 31, 0
2, 7407, Note_on_c, 0, 77, 0
2, 7407, Note_on_c, 0, 79, 0
2, 7410, Note_on_c, 0, 77, 40
2, 7410, Note_on_c, 0, 86, 45
2, 7437, Note_on_c, 0, 86, 0
2, 7437, Note_on_c, 0, 77, 0
2, 7440, Note_on_c, 0, 79, 51
2, 7440, Note_on_c, 0, 77, 42
2, 7441, Note_on_c, 0, 59, 69
2, 7467, Note_on_c, 0, 77, 0
2, 7467, Note_on_c, 0, 79, 0
2, 7470, Note_on_c, 0, 88, 57
2, 7470, Note_on_c, 0, 77, 48
2, 7471, Note_on_c, 0, 59, 0
2, 7471, Note_on_c, 0, 50, 71
2, 7497, Note_on_c, 0, 77, 0
2, 7497, Note_on_c, 0, 88, 0
2, 7500, Note_on_c, 0, 79, 42
2, 7500, Note_on_c, 0, 77, 37
2, 7500, Note_on_c, 0, 43, 71
2, 7505, Note_on_c, 0, 50, 0
2, 7516, Note_on_c, 0, 43, 0
2, 7527, Note_on_c, 0, 77, 0
2, 7527, Note_on_c, 0, 79, 0
2, 7528, Control_c, 0, 64, 0
2, 7530, Note_on_c, 0, 77, 47
2, 7530, Note_on_c, 0, 86, 47
2, 7553, Control_c, 0, 64, 127
2, 7557, Note_on_c, 0, 86, 0
2, 7557, Note_on_c, 0, 77, 0
2, 7559, Note_on_c, 0, 36, 69
2, 7560, Note_on_c, 0, 79, 48
2, 7560, Note_on_c, 0, 77, 42
2, 7572, Note_on_c, 0, 36, 0
2, 7587, Note_on_c, 0, 77, 0
2, 7587, Note_on_c, 0, 79, 0
2, 7590, Note_on_c, 0, 77, 43
2, 7590, Note_on_c, 0, 86, 45
2, 7617, Note_on_c, 0, 86, 0
2, 7617, Note_on_c, 0, 77, 0
2, 7619, Note_on_c, 0, 67, 69
2, 7620, Note_on_c, 0, 79, 52
2, 7620, Note_on_c, 0, 74, 45
2, 7647, Note_on_c, 0, 74, 0
2, 7647, Note_on_c, 0, 79, 0
2, 7647, Note_on_c, 0, 67, 0
2, 7649, Note_on_c, 0, 55, 73
2, 7650, Note_on_c, 0, 83, 55
2, 7650, Note_on_c, 0, 74, 45
2, 7677, Note_on_c, 0, 74, 0
2, 7677, Note_on_c, 0, 83, 0
2, 7679, Note_on_c, 0, 55, 0
2, 7679, Note_on_c, 0, 48, 70
2, 7680, Note_on_c, 0, 79, 51
2, 7680, Note_on_c, 0, 76, 44
2, 7695, Note_on_c, 0, 48, 0
2, 7703, Control_c, 0, 64, 0
2, 7707, Note_on_c, 0, 76, 0
2, 7707, Note_on_c, 0, 79, 0
2, 7710, Note_on_c, 0, 76, 43
2, 7710, Note_on_c, 0, 84, 48
2, 7737, Note_on_c, 0, 84, 0
2, 7737, Note_on_c, 0, 76, 0
2, 7738, Control_c, 0, 64, 127
2, 7739, Note_on_c, 0, 64, 73
2, 7740, Note_on_c, 0, 76, 42
2, 7740, Note_on_c, 0, 79, 51
2, 7767, Note_on_c, 0, 79, 0
2, 7767, Note_on_c, 0, 76, 0
2, 7770, Note_on_c, 0, 76, 42
2, 7770, Note_on_c, 0, 84, 42
2, 7797, Note_on_c, 0, 84, 0
2, 7797, Note_on_c, 0, 76, 0
2, 7800, Note_on_c, 0, 76, 39
2, 7800, Note_on_c, 0, 79, 53
2, 7827, Note_on_c, 0, 79, 0
2, 7827, Note_on_c, 0, 76, 0
2, 7830, Note_on_c, 0, 76, 41
2, 7830, Note_on_c, 0, 84, 48
2, 7857, Note_on_c, 0, 84, 0
2, 7857, Note_on_c, 0, 76, 0
2, 7859, Note_on_c, 0, 57, 68
2, 7860, Note_on_c, 0, 79, 49
2, 7860, Note_on_c, 0, 74, 23
2, 7865, Note_on_c, 0, 64, 0
2, 7885, Control_c, 0, 64, 0
2, 7886, Note_on_c, 0, 57, 0
2, 7887, Note_on_c, 0, 79, 0
2, 7887, Note_on_c, 0, 74, 0
2, 7890, Note_on_c, 0, 83, 46
2, 7890, Note_on_c, 0, 74, 41
2, 7917, Note_on_c, 0, 74, 0
2, 7917, Note_on_c, 0, 83, 0
2, 7919, Note_on_c, 0, 38, 68
2, 7920, Note_on_c, 0, 72, 51
2, 7920, Note_on_c, 0, 74, 51
2, 7922, Control_c, 0, 64, 127
2, 7938, Note_on_c, 0, 38, 0
2, 7947, Note_on_c, 0, 74, 0
2, 7947, Note_on_c, 0, 72, 0
2, 7950, Note_on_c, 0, 72, 46
2, 7950, Note_on_c, 0, 81, 50
2, 7977, Note_on_c, 0, 81, 0
2, 7977, Note_on_c, 0, 72, 0
2, 7979, Note_on_c, 0, 66, 73
2, 7980, Note_on_c, 0, 72, 45
2, 7980, Note_on_c, 0, 74, 48
2, 8007, Note_on_c, 0, 74, 0
2, 8007, Note_on_c, 0, 72, 0
2, 8007, Note_on_c, 0, 66, 0
2, 8009, Note_on_c, 0, 57, 69
2, 8010, Note_on_c, 0, 81, 49
2, 8010, Note_on_c, 0, 72, 43
2, 8037, Note_on_c, 0, 72, 0
2, 8037, Note_on_c, 0, 81, 0
2, 8038, Note_on_c, 0, 57, 0
2, 8040, Note_on_c, 0, 72, 47
2, 8040, Note_on_c, 0, 74, 50
2, 8040, Note_on_c, 0, 50, 70
2, 8051, Note_on_c, 0, 50, 0
2, 8061, Control_c, 0, 64, 0
2, 8067, Note_on_c, 0, 74, 0
2, 8067, Note_on_c, 0, 72, 0
2, 8070, Note_on_c, 0, 72, 46
2, 8070, Note_on_c, 0, 81, 51
2, 8094, Control_c, 0, 64, 127
2, 8097, Note_on_c, 0, 81, 0
2, 8097, Note_on_c, 0, 72, 0
2, 8099, Note_on_c, 0, 38, 71
2, 8100, Note_on_c, 0, 72, 44
2, 8100, Note_on_c, 0, 74, 46
2, 8107, Note_on_c, 0, 38, 0
2, 8127, Note_on_c, 0, 74, 0
2, 8127, Note_on_c, 0, 72, 0
2, 8130, Note_on_c, 0, 72, 45
2, 8130, Note_on_c, 0, 81, 45
2, 8157, Note_on_c, 0, 81, 0
2, 8157, Note_on_c, 0, 72, 0
2, 8160, Note_on_c, 0, 74, 51
2, 8160, Note_on_c, 0, 72, 41
2, 8161, Note_on_c, 0, 66, 72
2, 8185, Note_on_c, 0, 66, 0
2, 8187, Note_on_c, 0, 72, 0
2, 8187, Note_on_c, 0, 74, 0
2, 8189, Note_on_c, 0, 57, 73
2, 8190, Note_on_c, 0, 72, 50
2, 8190, Note_on_c, 0, 83, 55
2, 8217, Note_on_c, 0, 83, 0
2, 8217, Note_on_c, 0, 72, 0
2, 8218, Note_on_c, 0, 57, 0
2, 8219, Note_on_c, 0, 50, 71
2, 8220, Note_on_c, 0, 72, 48
2, 8220, Note_on_c, 0, 74, 50
2, 8231, Note_on_c, 0, 50, 0
2, 8233, Control_c, 0, 64, 0
2, 8247, Note_on_c, 0, 74, 0
2, 8247, Note_on_c, 0, 72, 0
2, 8250, Note_on_c, 0, 72, 50
2, 8250, Note_on_c, 0, 81, 48
2, 8276, Control_c, 0, 64, 127
2, 8277, Note_on_c, 0, 81, 0
2, 8277, Note_on_c, 0, 72, 0
2, 8279, Note_on_c, 0, 43, 76
2, 8280, Note_on_c, 0, 71, 50
2, 8280, Note_on_c, 0, 74, 54
2, 8307, Note_on_c, 0, 74, 0
2, 8307, Note_on_c, 0, 71, 0
2, 8310, Note_on_c, 0, 71, 52
2, 8310, Note_on_c, 0, 75, 56
2, 8337, Note_on_c, 0, 75, 0
2, 8337, Note_on_c, 0, 71, 0
2, 8340, Note_on_c, 0, 71, 51
2, 8340, Note_on_c, 0, 74, 58
2, 8367, Note_on_c, 0, 74, 0
2, 8367, Note_on_c, 0, 71, 0
2, 8369, Note_on_c, 0, 50, 73
2, 8370, Note_on_c, 0, 71, 45
2, 8370, Note_on_c, 0, 76, 57
2, 8378, Note_on_c, 0, 43, 0
2, 8396, Control_c, 0, 64, 0
2, 8397, Note_on_c, 0, 76, 0
2, 8397, Note_on_c, 0, 71, 0
2, 8399, Note_on_c, 0, 50, 0
2, 8399, Note_on_c, 0, 55, 72
2, 8400, Note_on_c, 0, 74, 55
2, 8400, Note_on_c, 0, 71, 43
2, 8427, Note_on_c, 0, 71, 0
2, 8427, Note_on_c, 0, 74, 0
2, 8429, Note_on_c, 0, 57, 73
2, 8430, Note_on_c, 0, 71, 42
2, 8430, Note_on_c, 0, 77, 48
2, 8433, Note_on_c, 0, 55, 0
2, 8457, Note_on_c, 0, 77, 0
2, 8457, Note_on_c, 0, 71, 0
2, 8457, Control_c, 0, 64, 127
2, 8459, Note_on_c, 0, 59, 75
2, 8460, Note_on_c, 0, 57, 0
2, 8460, Note_on_c, 0, 74, 56
2, 8460, Note_on_c, 0, 71, 51
2, 8487, Note_on_c, 0, 71, 0
2, 8487, Note_on_c, 0, 74, 0
2, 8490, Note_on_c, 0, 71, 49
2, 8490, Note_on_c, 0, 78, 54
2, 8517, Note_on_c, 0, 78, 0
2, 8517, Note_on_c, 0, 71, 0
2, 8520, Note_on_c, 0, 71, 48
2, 8520, Note_on_c, 0, 74, 51
2, 8547, Note_on_c, 0, 74, 0
2, 8547, Note_on_c, 0, 71, 0
2, 8550, Note_on_c, 0, 71, 46
2, 8550, Note_on_c, 0, 79, 54
2, 8551, Note_on_c, 0, 57, 73
2, 8554, Note_on_c, 0, 59, 0
2, 8577, Note_on_c, 0, 71, 0
2, 8577, Note_on_c, 0, 79, 0
2, 8577, Note_on_c, 0, 57, 0
2, 8580, Note_on_c, 0, 74, 53
2, 8580, Note_on_c, 0, 71, 29
2, 8580, Note_on_c, 0, 55, 74
2, 8584, Control_c, 0, 64, 0
2, 8607, Note_on_c, 0, 71, 0
2, 8607, Note_on_c, 0, 74, 0
2, 8610, Note_on_c, 0, 71, 48
2, 8610, Note_on_c, 0, 80, 47
2, 8610, Note_on_c, 0, 50, 74
2, 8615, Note_on_c, 0, 55, 0
2, 8626, Note_on_c, 0, 50, 0
2, 8637, Note_on_c, 0, 80, 0
2, 8637, Note_on_c, 0, 71, 0
2, 8640, Note_on_c, 0, 72, 41
2, 8640, Note_on_c, 0, 74, 40
2, 8640, Note_on_c, 0, 38, 77
2, 8643, Control_c, 0, 64, 127
2, 8652, Note_on_c, 0, 38, 0
2, 8667, Note_on_c, 0, 74, 0
2, 8667, Note_on_c, 0, 72, 0
2, 8670, Note_on_c, 0, 72, 43
2, 8670, Note_on_c, 0, 81, 48
2, 8697, Note_on_c, 0, 81, 0
2, 8697, Note_on_c, 0, 72, 0
2, 8699, Note_on_c, 0, 66, 73
2, 8700, Note_on_c, 0, 72, 44
2, 8700, Note_on_c, 0, 74, 44
2, 8727, Note_on_c, 0, 74, 0
2, 8727, Note_on_c, 0, 72, 0
2, 8728, Note_on_c, 0, 66, 0
2, 8729, Note_on_c, 0, 57, 74
2, 8730, Note_on_c, 0, 72, 45
2, 8730, Note_on_c, 0, 81, 45
2, 8757, Note_on_c, 0, 81, 0
2, 8757, Note_on_c, 0, 72, 0
2, 8760, Note_on_c, 0, 57, 0
2, 8760, Note_on_c, 0, 74, 47
2, 8760, Note_on_c, 0, 72, 45
2, 8760, Note_on_c, 0, 50, 75
2, 8774, Note_on_c, 0, 50, 0
2, 8783, Control_c, 0, 64, 0
2, 8787, Note_on_c, 0, 72, 0
2, 8787, Note_on_c, 0, 74, 0
2, 8790, Note_on_c, 0, 72, 46
2, 8790, Note_on_c, 0, 81, 48
2, 8813, Control_c, 0, 64, 127
2, 8817, Note_on_c, 0, 81, 0
2, 8817, Note_on_c, 0, 72, 0
2, 8820, Note_on_c, 0, 74, 48
2, 8820, Note_on_c, 0, 72, 45
2, 8820, Note_on_c, 0, 38, 77
2, 8829, Note_on_c, 0, 38, 0
2, 8847, Note_on_c, 0, 72, 0
2, 8847, Note_on_c, 0, 74, 0
2, 8850, Note_on_c, 0, 72, 42
2, 8850, Note_on_c, 0, 81, 46
2, 8877, Note_on_c, 0, 81, 0
2, 8877, Note_on_c, 0, 72, 0
2, 8880, Note_on_c, 0, 74, 47
2, 8880, Note_on_c, 0, 72, 45
2, 8881, Note_on_c, 0, 66, 69
2, 8901, Note_on_c, 0, 66, 0
2, 8907, Note_on_c, 0, 72, 0
2, 8907, Note_on_c, 0, 74, 0
2, 8909, Note_on_c, 0, 57, 71
2, 8910, Note_on_c, 0, 83, 49
2, 8910, Note_on_c, 0, 72, 37
2, 8937, Note_on_c, 0, 72, 0
2, 8937, Note_on_c, 0, 83, 0
2, 8939, Note_on_c, 0, 50, 68
2, 8940, Note_on_c, 0, 57, 0
2, 8940, Note_on_c, 0, 74, 49
2, 8940, Note_on_c, 0, 72, 43
2, 8951, Note_on_c, 0, 50, 0
2, 8967, Note_on_c, 0, 72, 0
2, 8967, Note_on_c, 0, 74, 0
2, 8970, Note_on_c, 0, 72, 47
2, 8970, Note_on_c, 0, 81, 49
2, 8973, Control_c, 0, 64, 0
2, 8997, Note_on_c, 0, 81, 0
2, 8997, Note_on_c, 0, 72, 0
2, 8999, Note_on_c, 0, 55, 65
2, 8999, Note_on_c, 0, 59, 60
2, 8999, Note_on_c, 0, 67, 80
2, 9000, Note_on_c, 0, 71, 36
2, 9000, Note_on_c, 0, 74, 46
2, 9025, Note_on_c, 0, 55, 0
2, 9027, Note_on_c, 0, 71, 0
2, 9027, Note_on_c, 0, 74, 0
2, 9030, Note_on_c, 0, 59, 0
2, 9030, Note_on_c, 0, 71, 49
2, 9030, Note_on_c, 0, 79, 49
2, 9032, Note_on_c, 0, 67, 0
2, 9041, Note_on_c, 0, 53, 76
2, 9049, Note_on_c, 0, 60, 67
2, 9053, Note_on_c, 0, 63, 69
2, 9053, Control_c, 0, 64, 127
2, 9057, Note_on_c, 0, 79, 0
2, 9057, Note_on_c, 0, 71, 0
2, 9059, Note_on_c, 0, 53, 0
2, 9060, Note_on_c, 0, 75, 51
2, 9060, Note_on_c, 0, 72, 45
2, 9065, Note_on_c, 0, 68, 85
2, 9087, Note_on_c, 0, 72, 0
2, 9087, Note_on_c, 0, 75, 0
2, 9090, Note_on_c, 0, 80, 66
2, 9090, Note_on_c, 0, 72, 69
2, 9094, Note_on_c, 0, 60, 0
2, 9097, Note_on_c, 0, 68, 0
2, 9097, Note_on_c, 0, 63, 0
2, 9117, Note_on_c, 0, 80, 0
2, 9117, Note_on_c, 0, 72, 0
2, 9120, Note_on_c, 0, 72, 40
2, 9120, Note_on_c, 0, 68, 37
2, 9147, Note_on_c, 0, 68, 0
2, 9147, Note_on_c, 0, 72, 0
2, 9150, Note_on_c, 0, 68, 39
2, 9150, Note_on_c, 0, 77, 48
2, 9177, Note_on_c, 0, 77, 0
2, 9177, Note_on_c, 0, 68, 0
2, 9180, Note_on_c, 0, 68, 47
2, 9180, Note_on_c, 0, 65, 38
2, 9207, Note_on_c, 0, 65, 0
2, 9207, Note_on_c, 0, 68, 0
2, 9210, Note_on_c, 0, 65, 35
2, 9210, Note_on_c, 0, 74, 39
2, 9224, Control_c, 0, 64, 0
2, 9237, Note_on_c, 0, 74, 0
2, 9237, Note_on_c, 0, 65, 0
2, 9239, Note_on_c, 0, 41, 72
2, 9240, Note_on_c, 0, 68, 46
2, 9240, Note_on_c, 0, 65, 36
2, 9240, Note_on_c, 0, 53, 85
2, 9267, Note_on_c, 0, 65, 0
2, 9267, Note_on_c, 0, 68, 0
2, 9270, Note_on_c, 0, 65, 41
2, 9270, Note_on_c, 0, 74, 43
2, 9285, Note_on_c, 0, 53, 0
2, 9297, Note_on_c, 0, 74, 0
2, 9297, Note_on_c, 0, 65, 0
2, 9300, Note_on_c, 0, 69, 58
2, 9300, Note_on_c, 0, 63, 37
2, 9301, Note_on_c, 0, 42, 65
2, 9301, Note_on_c, 0, 54, 84
2, 9320, Note_on_c, 0, 41, 0
2, 9327, Note_on_c, 0, 69, 0
2, 9327, Note_on_c, 0, 63, 0
2, 9330, Note_on_c, 0, 63, 45
2, 9330, Note_on_c, 0, 72, 54
2, 9353, Note_on_c, 0, 54, 0
2, 9354, Note_on_c, 0, 42, 0
2, 9357, Note_on_c, 0, 63, 0
2, 9357, Note_on_c, 0, 72, 0
2, 9359, Note_on_c, 0, 43, 62
2, 9359, Note_on_c, 0, 55, 83
2, 9360, Note_on_c, 0, 62, 37
2, 9360, Note_on_c, 0, 67, 55
2, 9385, Note_on_c, 0, 43, 0
2, 9387, Note_on_c, 0, 67, 0
2, 9387, Note_on_c, 0, 62, 0
2, 9390, Note_on_c, 0, 55, 0
2, 9390, Note_on_c, 0, 71, 48
2, 9390, Note_on_c, 0, 62, 36
2, 9392, Control_c, 0, 64, 127
2, 9395, Note_on_c, 0, 41, 67
2, 9406, Note_on_c, 0, 48, 67
2, 9410, Note_on_c, 0, 51, 70
2, 9412, Note_on_c, 0, 41, 0
2, 9417, Note_on_c, 0, 71, 0
2, 9417, Note_on_c, 0, 62, 0
2, 9420, Note_on_c, 0, 63, 50
2, 9420, Note_on_c, 0, 60, 40
2, 9422, Note_on_c, 0, 56, 82
2, 9435, Note_on_c, 0, 56, 0
2, 9435, Note_on_c, 0, 51, 0
2, 9438, Note_on_c, 0, 48, 0
2, 9447, Note_on_c, 0, 63, 0
2, 9447, Note_on_c, 0, 60, 0
2, 9450, Note_on_c, 0, 60, 39
2, 9450, Note_on_c, 0, 68, 49
2, 9477, Note_on_c, 0, 68, 0
2, 9477, Note_on_c, 0, 60, 0
2, 9480, Note_on_c, 0, 60, 42
2, 9480, Note_on_c, 0, 56, 40
2, 9507, Note_on_c, 0, 56, 0
2, 9507, Note_on_c, 0, 60, 0
2, 9510, Note_on_c, 0, 65, 48
2, 9510, Note_on_c, 0, 56, 45
2, 9537, Note_on_c, 0, 56, 0
2, 9537, Note_on_c, 0, 65, 0
2, 9540, Note_on_c, 0, 53, 38
2, 9540, Note_on_c, 0, 56, 45
2, 9567, Note_on_c, 0, 56, 0
2, 9567, Note_on_c, 0, 53, 0
2, 9570, Note_on_c, 0, 62, 51
2, 9570, Note_on_c, 0, 53, 44
2, 9590, Control_c, 0, 64, 0
2, 9597, Note_on_c, 0, 53, 0
2, 9597, Note_on_c, 0, 62, 0
2, 9599, Note_on_c, 0, 41, 85
2, 9599, Note_on_c, 0, 29, 78
2, 9600, Note_on_c, 0, 56, 59
2, 9600, Note_on_c, 0, 53, 59
2, 9627, Note_on_c, 0, 53, 0
2, 9627, Note_on_c, 0, 56, 0
2, 9630, Note_on_c, 0, 53, 57
2, 9630, Note_on_c, 0, 62, 57
2, 9648, Note_on_c, 0, 41, 0
2, 9657, Note_on_c, 0, 62, 0
2, 9657, Note_on_c, 0, 53, 0
2, 9660, Note_on_c, 0, 57, 58
2, 9660, Note_on_c, 0, 51, 58
2, 9661, Note_on_c, 0, 30, 69
2, 9661, Note_on_c, 0, 42, 85
2, 9687, Note_on_c, 0, 51, 0
2, 9687, Note_on_c, 0, 57, 0
2, 9690, Note_on_c, 0, 29, 0
2, 9690, Note_on_c, 0, 51, 62
2, 9690, Note_on_c, 0, 60, 62
2, 9716, Note_on_c, 0, 30, 0
2, 9717, Note_on_c, 0, 60, 0
2, 9717, Note_on_c, 0, 51, 0
2, 9718, Control_c, 0, 64, 127
2, 9720, Note_on_c, 0, 55, 67
2, 9720, Note_on_c, 0, 50, 67
2, 9721, Note_on_c, 0, 31, 90
2, 9721, Note_on_c, 0, 43, 92
2, 9722, Note_on_c, 0, 42, 0
2, 9747, Note_on_c, 0, 55, 0
2, 9747, Note_on_c, 0, 50, 0
2, 9750, Note_on_c, 0, 59, 72
2, 9750, Note_on_c, 0, 50, 72
2, 9777, Note_on_c, 0, 50, 0
2, 9777, Note_on_c, 0, 59, 0
2, 9780, Note_on_c, 0, 57, 66
2, 9780, Note_on_c, 0, 53, 66
2, 9807, Note_on_c, 0, 53, 0
2, 9807, Note_on_c, 0, 57, 0
2, 9810, Note_on_c, 0, 62, 68
2, 9810, Note_on_c, 0, 53, 68
2, 9814, Control_c, 0, 64, 0
2, 9837, Note_on_c, 0, 53, 0
2, 9837, Note_on_c, 0, 62, 0
2, 9840, Note_on_c, 0, 55, 62
2, 9840, Note_on_c, 0, 52, 62
2, 9867, Note_on_c, 0, 52, 0
2, 9867, Note_on_c, 0, 55, 0
2, 9870, Note_on_c, 0, 52, 62
2, 9870, Note_on_c, 0, 60, 62
2, 9897, Note_on_c, 0, 60, 0
2, 9897, Note_on_c, 0, 52, 0
2, 9900, Note_on_c, 0, 59, 65
2, 9900, Note_on_c, 0, 55, 65
2, 9902, Control_c, 0, 64, 127
2, 9927, Note_on_c, 0, 55, 0
2, 9927, Note_on_c, 0, 59, 0
2, 9930, Note_on_c, 0, 64, 62
2, 9930, Note_on_c, 0, 55, 62
2, 9957, Note_on_c, 0, 55, 0
2, 9957, Note_on_c, 0, 64, 0
2, 9960, Note_on_c, 0, 57, 62
2, 9960, Note_on_c, 0, 53, 62
2, 9987, Note_on_c, 0, 53, 0
2, 9987, Note_on_c, 0, 57, 0
2, 9990, Note_on_c, 0, 53, 65
2, 9990, Note_on_c, 0, 62, 65
2, 9998, Control_c, 0, 64, 0
2, 10017, Note_on_c, 0, 62, 0
2, 10017, Note_on_c, 0, 53, 0
2, 10020, Note_on_c, 0, 60, 68
2, 10020, Note_on_c, 0, 57, 68
2, 10047, Note_on_c, 0, 57, 0
2, 10047, Note_on_c, 0, 60, 0
2, 10050, Note_on_c, 0, 57, 64
2, 10050, Note_on_c, 0, 65, 64
2, 10077, Note_on_c, 0, 65, 0
2, 10077, Note_on_c, 0, 57, 0
2, 10080, Note_on_c, 0, 59, 62
2, 10080, Note_on_c, 0, 55, 62
2, 10085, Control_c, 0, 64, 127
2, 10107, Note_on_c, 0, 55, 0
2, 10107, Note_on_c, 0, 59, 0
2, 10110, Note_on_c, 0, 55, 62
2, 10110, Note_on_c, 0, 64, 62
2, 10137, Note_on_c, 0, 64, 0
2, 10137, Note_on_c, 0, 55, 0
2, 10140, Note_on_c, 0, 62, 63
2, 10140, Note_on_c, 0, 59, 63
2, 10167, Note_on_c, 0, 59, 0
2, 10167, Note_on_c, 0, 62, 0
2, 10170, Note_on_c, 0, 59, 62
2, 10170, Note_on_c, 0, 67, 62
2, 10172, Control_c, 0, 64, 0
2, 10197, Note_on_c, 0, 67, 0
2, 10197, Note_on_c, 0, 59, 0
2, 10200, Note_on_c, 0, 60, 60
2, 10200, Note_on_c, 0, 57, 60
2, 10227, Note_on_c, 0, 57, 0
2, 10227, Note_on_c, 0, 60, 0
2, 10230, Note_on_c, 0, 65, 62
2, 10230, Note_on_c, 0, 57, 62
2, 10257, Note_on_c, 0, 57, 0
2, 10257, Note_on_c, 0, 65, 0
2, 10260, Note_on_c, 0, 64, 59
2, 10260, Note_on_c, 0, 60, 59
2, 10260, Control_c, 0, 64, 127
2, 10287, Note_on_c, 0, 60, 0
2, 10287, Note_on_c, 0, 64, 0
2, 10290, Note_on_c, 0, 60, 58
2, 10290, Note_on_c, 0, 69, 58
2, 10317, Note_on_c, 0, 69, 0
2, 10317, Note_on_c, 0, 60, 0
2, 10320, Note_on_c, 0, 62, 59
2, 10320, Note_on_c, 0, 59, 59
2, 10347, Note_on_c, 0, 59, 0
2, 10347, Note_on_c, 0, 62, 0
2, 10350, Note_on_c, 0, 67, 61
2, 10350, Note_on_c, 0, 59, 61
2, 10358, Control_c, 0, 64, 0
2, 10377, Note_on_c, 0, 59, 0
2, 10377, Note_on_c, 0, 67, 0
2, 10380, Note_on_c, 0, 65, 60
2, 10380, Note_on_c, 0, 62, 60
2, 10407, Note_on_c, 0, 62, 0
2, 10407, Note_on_c, 0, 65, 0
2, 10410, Note_on_c, 0, 71, 58
2, 10410, Note_on_c, 0, 62, 58
2, 10433, Control_c, 0, 64, 127
2, 10437, Note_on_c, 0, 62, 0
2, 10437, Note_on_c, 0, 71, 0
2, 10440, Note_on_c, 0, 64, 58
2, 10440, Note_on_c, 0, 60, 58
2, 10467, Note_on_c, 0, 60, 0
2, 10467, Note_on_c, 0, 64, 0
2, 10470, Note_on_c, 0, 60, 49
2, 10470, Note_on_c, 0, 69, 59
2, 10497, Note_on_c, 0, 69, 0
2, 10497, Note_on_c, 0, 60, 0
2, 10500, Note_on_c, 0, 65, 58
2, 10500, Note_on_c, 0, 62, 41
2, 10508, Control_c, 0, 64, 0
2, 10527, Note_on_c, 0, 62, 0
2, 10527, Note_on_c, 0, 65, 0
2, 10530, Note_on_c, 0, 71, 60
2, 10530, Note_on_c, 0, 62, 43
2, 10557, Note_on_c, 0, 62, 0
2, 10557, Note_on_c, 0, 71, 0
2, 10560, Note_on_c, 0, 67, 52
2, 10560, Note_on_c, 0, 64, 43
2, 10587, Note_on_c, 0, 64, 0
2, 10587, Note_on_c, 0, 67, 0
2, 10590, Note_on_c, 0, 72, 54
2, 10590, Note_on_c, 0, 64, 45
2, 10617, Note_on_c, 0, 64, 0
2, 10617, Note_on_c, 0, 72, 0
2, 10620, Note_on_c, 0, 69, 55
2, 10620, Note_on_c, 0, 65, 46
2, 10647, Note_on_c, 0, 65, 0
2, 10647, Note_on_c, 0, 69, 0
2, 10650, Note_on_c, 0, 74, 54
2, 10650, Note_on_c, 0, 65, 45
2, 10677, Note_on_c, 0, 65, 0
2, 10677, Note_on_c, 0, 74, 0
2, 10680, Note_on_c, 0, 71, 56
2, 10680, Note_on_c, 0, 67, 43
2, 10707, Note_on_c, 0, 67, 0
2, 10707, Note_on_c, 0, 71, 0
2, 10710, Note_on_c, 0, 67, 39
2, 10710, Note_on_c, 0, 76, 46
2, 10737, Note_on_c, 0, 76, 0
2, 10737, Note_on_c, 0, 67, 0
2, 10740, Note_on_c, 0, 72, 58
2, 10740, Note_on_c, 0, 69, 38
2, 10767, Note_on_c, 0, 69, 0
2, 10767, Note_on_c, 0, 72, 0
2, 10770, Note_on_c, 0, 69, 52
2, 10770, Note_on_c, 0, 77, 60
2, 10785, Note_on_c, 0, 31, 0
2, 10785, Note_on_c, 0, 43, 0
2, 10797, Note_on_c, 0, 69, 0
2, 10797, Note_on_c, 0, 77, 0
2, 10800, Note_on_c, 0, 74, 49
2, 10800, Note_on_c, 0, 71, 50
2, 10827, Note_on_c, 0, 71, 0
2, 10827, Note_on_c, 0, 74, 0
2, 10830, Note_on_c, 0, 71, 51
2, 10830, Note_on_c, 0, 79, 48
2, 10857, Note_on_c, 0, 79, 0
2, 10857, Note_on_c, 0, 71, 0
2, 10860, Note_on_c, 0, 74, 55
2, 10860, Note_on_c, 0, 72, 52
2, 10861, Note_on_c, 0, 66, 74
2, 10864, Control_c, 0, 64, 127
2, 10887, Note_on_c, 0, 72, 0
2, 10887, Note_on_c, 0, 74, 0
2, 10890, Note_on_c, 0, 72, 49
2, 10890, Note_on_c, 0, 81, 51
2, 10917, Note_on_c, 0, 81, 0
2, 10917, Note_on_c, 0, 72, 0
2, 10920, Note_on_c, 0, 74, 52
2, 10920, Note_on_c, 0, 72, 50
2, 10947, Note_on_c, 0, 72, 0
2, 10947, Note_on_c, 0, 74, 0
2, 10950, Note_on_c, 0, 72, 43
2, 10950, Note_on_c, 0, 81, 48
2, 10977, Note_on_c, 0, 81, 0
2, 10977, Note_on_c, 0, 72, 0
2, 10980, Note_on_c, 0, 74, 51
2, 10980, Note_on_c, 0, 72, 51
2, 11007, Note_on_c, 0, 72, 0
2, 11007, Note_on_c, 0, 74, 0
2, 11010, Note_on_c, 0, 72, 49
2, 11010, Note_on_c, 0, 81, 45
2, 11036, Control_c, 0, 64, 0
2, 11037, Note_on_c, 0, 81, 0
2, 11037, Note_on_c, 0, 72, 0
2, 11040, Note_on_c, 0, 74, 54
2, 11040, Note_on_c, 0, 72, 51
2, 11041, Note_on_c, 0, 64, 71
2, 11045, Note_on_c, 0, 66, 0
2, 11067, Note_on_c, 0, 74, 0
2, 11067, Note_on_c, 0, 72, 0
2, 11070, Note_on_c, 0, 72, 58
2, 11070, Note_on_c, 0, 83, 56
2, 11097, Note_on_c, 0, 83, 0
2, 11097, Note_on_c, 0, 72, 0
2, 11100, Note_on_c, 0, 72, 51
2, 11100, Note_on_c, 0, 74, 51
2, 11101, Note_on_c, 0, 66, 74
2, 11114, Note_on_c, 0, 64, 0
2, 11127, Note_on_c, 0, 72, 0
2, 11127, Note_on_c, 0, 74, 0
2, 11130, Note_on_c, 0, 72, 48
2, 11130, Note_on_c, 0, 81, 52
2, 11157, Note_on_c, 0, 81, 0
2, 11157, Note_on_c, 0, 72, 0
2, 11160, Note_on_c, 0, 71, 46
2, 11160, Note_on_c, 0, 74, 45
2, 11161, Note_on_c, 0, 67, 73
2, 11165, Note_on_c, 0, 66, 0
2, 11169, Control_c, 0, 64, 127
2, 11187, Note_on_c, 0, 71, 0
2, 11187, Note_on_c, 0, 74, 0
2, 11190, Note_on_c, 0, 71, 50
2, 11190, Note_on_c, 0, 79, 41
2, 11217, Note_on_c, 0, 79, 0
2, 11217, Note_on_c, 0, 71, 0
2, 11220, Note_on_c, 0, 74, 55
2, 11220, Note_on_c, 0, 71, 51
2, 11247, Note_on_c, 0, 71, 0
2, 11247, Note_on_c, 0, 74, 0
2, 11250, Note_on_c, 0, 71, 46
2, 11250, Note_on_c, 0, 79, 43
2, 11277, Note_on_c, 0, 79, 0
2, 11277, Note_on_c, 0, 71, 0
2, 11280, Note_on_c, 0, 74, 51
2, 11280, Note_on_c, 0, 71, 43
2, 11307, Note_on_c, 0, 71, 0
2, 11307, Note_on_c, 0, 74, 0
2, 11310, Note_on_c, 0, 71, 46
2, 11310, Note_on_c, 0, 79, 42
2, 11337, Note_on_c, 0, 79, 0
2, 11337, Note_on_c, 0, 71, 0
2, 11340, Note_on_c, 0, 74, 56
2, 11340, Note_on_c, 0, 70, 50
2, 11367, Note_on_c, 0, 70, 0
2, 11367, Note_on_c, 0, 74, 0
2, 11370, Note_on_c, 0, 70, 48
2, 11370, Note_on_c, 0, 79, 46
2, 11384, Control_c, 0, 64, 0
2, 11397, Note_on_c, 0, 79, 0
2, 11397, Note_on_c, 0, 70, 0
2, 11399, Note_on_c, 0, 62, 72
2, 11400, Note_on_c, 0, 70, 56
2, 11400, Note_on_c, 0, 74, 60
2, 11401, Note_on_c, 0, 67, 0
2, 11427, Note_on_c, 0, 74, 0
2, 11427, Note_on_c, 0, 70, 0
2, 11430, Note_on_c, 0, 70, 47
2, 11430, Note_on_c, 0, 79, 48
2, 11457, Note_on_c, 0, 79, 0
2, 11457, Note_on_c, 0, 70, 0
2, 11459, Note_on_c, 0, 64, 71
2, 11460, Note_on_c, 0, 72, 60
2, 11460, Note_on_c, 0, 70, 46
2, 11467, Note_on_c, 0, 62, 0
2, 11487, Note_on_c, 0, 70, 0
2, 11487, Note_on_c, 0, 72, 0
2, 11490, Note_on_c, 0, 70, 58
2, 11490, Note_on_c, 0, 79, 56
2, 11517, Note_on_c, 0, 79, 0
2, 11517, Note_on_c, 0, 70, 0
2, 11520, Note_on_c, 0, 69, 43
2, 11520, Note_on_c, 0, 72, 48
2, 11521, Note_on_c, 0, 65, 73
2, 11526, Note_on_c, 0, 64, 0
2, 11541, Control_c, 0, 64, 127
2, 11547, Note_on_c, 0, 69, 0
2, 11547, Note_on_c, 0, 72, 0
2, 11550, Note_on_c, 0, 69, 52
2, 11550, Note_on_c, 0, 77, 49
2, 11577, Note_on_c, 0, 77, 0
2, 11577, Note_on_c, 0, 69, 0
2, 11580, Note_on_c, 0, 72, 44
2, 11580, Note_on_c, 0, 69, 39
2, 11607, Note_on_c, 0, 69, 0
2, 11607, Note_on_c, 0, 72, 0
2, 11610, Note_on_c, 0, 69, 48
2, 11610, Note_on_c, 0, 77, 48
2, 11637, Note_on_c, 0, 77, 0
2, 11637, Note_on_c, 0, 69, 0
2, 11640, Note_on_c, 0, 69, 50
2, 11640, Note_on_c, 0, 72, 52
2, 11667, Note_on_c, 0, 72, 0
2, 11667, Note_on_c, 0, 69, 0
2, 11670, Note_on_c, 0, 69, 45
2, 11670, Note_on_c, 0, 77, 39
2, 11697, Note_on_c, 0, 77, 0
2, 11697, Note_on_c, 0, 69, 0
2, 11700, Note_on_c, 0, 72, 55
2, 11700, Note_on_c, 0, 69, 53
2, 11727, Note_on_c, 0, 69, 0
2, 11727, Note_on_c, 0, 72, 0
2, 11730, Note_on_c, 0, 69, 44
2, 11730, Note_on_c, 0, 77, 45
2, 11750, Control_c, 0, 64, 0
2, 11757, Note_on_c, 0, 77, 0
2, 11757, Note_on_c, 0, 69, 0
2, 11759, Note_on_c, 0, 60, 68
2, 11760, Note_on_c, 0, 72, 51
2, 11760, Note_on_c, 0, 69, 47
2, 11769, Note_on_c, 0, 65, 0
2, 11787, Note_on_c, 0, 69, 0
2, 11787, Note_on_c, 0, 72, 0
2, 11790, Note_on_c, 0, 69, 46
2, 11790, Note_on_c, 0, 77, 42
2, 11817, Note_on_c, 0, 77, 0
2, 11817, Note_on_c, 0, 69, 0
2, 11820, Note_on_c, 0, 71, 51
2, 11820, Note_on_c, 0, 69, 49
2, 11821, Note_on_c, 0, 62, 70
2, 11833, Note_on_c, 0, 60, 0
2, 11847, Note_on_c, 0, 71, 0
2, 11847, Note_on_c, 0, 69, 0
2, 11850, Note_on_c, 0, 69, 45
2, 11850, Note_on_c, 0, 77, 43
2, 11877, Note_on_c, 0, 77, 0
2, 11877, Note_on_c, 0, 69, 0
2, 11880, Note_on_c, 0, 68, 47
2, 11880, Note_on_c, 0, 71, 51
2, 11881, Note_on_c, 0, 64, 71
2, 11885, Note_on_c, 0, 62, 0
2, 11890, Control_c, 0, 64, 127
2, 11907, Note_on_c, 0, 68, 0
2, 11907, Note_on_c, 0, 71, 0
2, 11910, Note_on_c, 0, 68, 54
2, 11910, Note_on_c, 0, 76, 50
2, 11937, Note_on_c, 0, 76, 0
2, 11937, Note_on_c, 0, 68, 0
2, 11940, Note_on_c, 0, 67, 43
2, 11940, Note_on_c, 0, 71, 50
2, 11941, Note_on_c, 0, 59, 72
2, 11945, Note_on_c, 0, 64, 0
2, 11953, Control_c, 0, 64, 0
2, 11967, Note_on_c, 0, 67, 0
2, 11967, Note_on_c, 0, 71, 0
2, 11970, Note_on_c, 0, 67, 42
2, 11970, Note_on_c, 0, 76, 47
2, 11997, Note_on_c, 0, 76, 0
2, 11997, Note_on_c, 0, 67, 0
2, 12000, Note_on_c, 0, 67, 40
2, 12000, Note_on_c, 0, 69, 23
2, 12001, Note_on_c, 0, 61, 73
2, 12010, Note_on_c, 0, 59, 0
2, 12027, Note_on_c, 0, 67, 0
2, 12027, Note_on_c, 0, 69, 0
2, 12030, Note_on_c, 0, 67, 46
2, 12030, Note_on_c, 0, 76, 46
2, 12057, Note_on_c, 0, 76, 0
2, 12057, Note_on_c, 0, 67, 0
2, 12060, Note_on_c, 0, 69, 45
2, 12060, Note_on_c, 0, 66, 41
2, 12061, Note_on_c, 0, 62, 71
2, 12067, Note_on_c, 0, 61, 0
2, 12068, Control_c, 0, 64, 127
2, 12087, Note_on_c, 0, 69, 0
2, 12087, Note_on_c, 0, 66, 0
2, 12090, Note_on_c, 0, 74, 52
2, 12090, Note_on_c, 0, 66, 56
2, 12117, Note_on_c, 0, 66, 0
2, 12117, Note_on_c, 0, 74, 0
2, 12119, Note_on_c, 0, 57, 71
2, 12120, Note_on_c, 0, 65, 43
2, 12120, Note_on_c, 0, 69, 52
2, 12122, Note_on_c, 0, 62, 0
2, 12122, Control_c, 0, 64, 0
2, 12147, Note_on_c, 0, 69, 0
2, 12147, Note_on_c, 0, 65, 0
2, 12150, Note_on_c, 0, 65, 45
2, 12150, Note_on_c, 0, 74, 45
2, 12177, Note_on_c, 0, 74, 0
2, 12177, Note_on_c, 0, 65, 0
2, 12180, Note_on_c, 0, 67, 51
2, 12180, Note_on_c, 0, 65, 40
2, 12180, Note_on_c, 0, 59, 71
2, 12193, Note_on_c, 0, 57, 0
2, 12207, Note_on_c, 0, 67, 0
2, 12207, Note_on_c, 0, 65, 0
2, 12210, Note_on_c, 0, 65, 45
2, 12210, Note_on_c, 0, 74, 46
2, 12237, Note_on_c, 0, 74, 0
2, 12237, Note_on_c, 0, 65, 0
2, 12240, Note_on_c, 0, 64, 38
2, 12240, Note_on_c, 0, 67, 47
2, 12241, Note_on_c, 0, 59, 0
2, 12241, Note_on_c, 0, 60, 73
2, 12267, Note_on_c, 0, 67, 0
2, 12267, Note_on_c, 0, 64, 0
2, 12270, Note_on_c, 0, 64, 40
2, 12270, Note_on_c, 0, 72, 46
2, 12297, Note_on_c, 0, 72, 0
2, 12297, Note_on_c, 0, 64, 0
2, 12300, Note_on_c, 0, 68, 53
2, 12300, Note_on_c, 0, 63, 42
2, 12301, Note_on_c, 0, 56, 73
2, 12308, Note_on_c, 0, 60, 0
2, 12327, Note_on_c, 0, 68, 0
2, 12327, Note_on_c, 0, 63, 0
2, 12330, Note_on_c, 0, 72, 46
2, 12330, Note_on_c, 0, 63, 48
2, 12357, Note_on_c, 0, 63, 0
2, 12357, Note_on_c, 0, 72, 0
2, 12360, Note_on_c, 0, 69, 57
2, 12360, Note_on_c, 0, 63, 42
2, 12360, Note_on_c, 0, 54, 73
2, 12366, Note_on_c, 0, 56, 0
2, 12387, Note_on_c, 0, 69, 0
2, 12387, Note_on_c, 0, 63, 0
2, 12390, Note_on_c, 0, 63, 51
2, 12390, Note_on_c, 0, 72, 47
2, 12417, Note_on_c, 0, 72, 0
2, 12417, Note_on_c, 0, 63, 0
2, 12420, Note_on_c, 0, 64, 48
2, 12420, Note_on_c, 0, 67, 51
2, 12421, Note_on_c, 0, 55, 70
2, 12424, Note_on_c, 0, 54, 0
2, 12424, Control_c, 0, 64, 127
2, 12447, Note_on_c, 0, 64, 0
2, 12447, Note_on_c, 0, 67, 0
2, 12450, Note_on_c, 0, 64, 49
2, 12450, Note_on_c, 0, 72, 41
2, 12477, Note_on_c, 0, 72, 0
2, 12477, Note_on_c, 0, 64, 0
2, 12480, Note_on_c, 0, 66, 51
2, 12480, Note_on_c, 0, 63, 46
2, 12480, Note_on_c, 0, 43, 73
2, 12483, Note_on_c, 0, 55, 0
2, 12484, Control_c, 0, 64, 0
2, 12507, Note_on_c, 0, 66, 0
2, 12507, Note_on_c, 0, 63, 0
2, 12510, Note_on_c, 0, 63, 49
2, 12510, Note_on_c, 0, 72, 43
2, 12537, Note_on_c, 0, 72, 0
2, 12537, Note_on_c, 0, 63, 0
2, 12540, Note_on_c, 0, 62, 43
2, 12540, Note_on_c, 0, 65, 46
2, 12541, Note_on_c, 0, 55, 73
2, 12550, Note_on_c, 0, 43, 0
2, 12557, Note_on_c, 0, 55, 0
2, 12567, Note_on_c, 0, 65, 0
2, 12567, Note_on_c, 0, 62, 0
2, 12570, Note_on_c, 0, 62, 45
2, 12570, Note_on_c, 0, 71, 43
2, 12595, Note_on_c, 0, 36, 71
2, 12597, Note_on_c, 0, 71, 0
2, 12597, Note_on_c, 0, 62, 0
2, 12599, Control_c, 0, 64, 127
2, 12600, Note_on_c, 0, 64, 41
2, 12600, Note_on_c, 0, 67, 33
2, 12600, Note_on_c, 0, 48, 73
2, 12611, Note_on_c, 0, 36, 0
2, 12627, Note_on_c, 0, 64, 0
2, 12627, Note_on_c, 0, 67, 0
2, 12630, Note_on_c, 0, 64, 41
2, 12630, Note_on_c, 0, 72, 42
2, 12655, Control_c, 0, 64, 0
2, 12657, Note_on_c, 0, 72, 0
2, 12657, Note_on_c, 0, 64, 0
2, 12660, Note_on_c, 0, 65, 46
2, 12660, Note_on_c, 0, 68, 62
2, 12662, Note_on_c, 0, 56, 69
2, 12668, Control_c, 0, 64, 127
2, 12687, Note_on_c, 0, 68, 0
2, 12687, Note_on_c, 0, 65, 0
2, 12690, Note_on_c, 0, 65, 48
2, 12690, Note_on_c, 0, 74, 48
2, 12717, Note_on_c, 0, 74, 0
2, 12717, Note_on_c, 0, 65, 0
2, 12720, Note_on_c, 0, 62, 36
2, 12720, Note_on_c, 0, 65, 49
2, 12747, Note_on_c, 0, 65, 0
2, 12747, Note_on_c, 0, 62, 0
2, 12750, Note_on_c, 0, 62, 42
2, 12750, Note_on_c, 0, 71, 39
2, 12771, Control_c, 0, 64, 0
2, 12777, Note_on_c, 0, 71, 0
2, 12777, Note_on_c, 0, 62, 0
2, 12780, Note_on_c, 0, 59, 39
2, 12780, Note_on_c, 0, 62, 37
2, 12781, Note_on_c, 0, 55, 74
2, 12785, Note_on_c, 0, 56, 0
2, 12807, Note_on_c, 0, 62, 0
2, 12807, Note_on_c, 0, 59, 0
2, 12810, Note_on_c, 0, 59, 42
2, 12810, Note_on_c, 0, 67, 45
2, 12837, Note_on_c, 0, 67, 0
2, 12837, Note_on_c, 0, 59, 0
2, 12840, Note_on_c, 0, 60, 40
2, 12840, Note_on_c, 0, 63, 53
2, 12841, Note_on_c, 0, 54, 70
2, 12849, Note_on_c, 0, 55, 0
2, 12867, Note_on_c, 0, 63, 0
2, 12867, Note_on_c, 0, 60, 0
2, 12870, Note_on_c, 0, 60, 48
2, 12870, Note_on_c, 0, 69, 55
2, 12897, Note_on_c, 0, 69, 0
2, 12897, Note_on_c, 0, 60, 0
2, 12899, Note_on_c, 0, 53, 69
2, 12900, Note_on_c, 0, 48, 0
2, 12900, Note_on_c, 0, 62, 50
2, 12900, Note_on_c, 0, 68, 54
2, 12904, Note_on_c, 0, 54, 0
2, 12927, Note_on_c, 0, 68, 0
2, 12927, Note_on_c, 0, 62, 0
2, 12930, Note_on_c, 0, 62, 42
2, 12930, Note_on_c, 0, 71, 52
2, 12943, Note_on_c, 0, 53, 0
2, 12957, Note_on_c, 0, 71, 0
2, 12957, Note_on_c, 0, 62, 0
2, 12960, Note_on_c, 0, 64, 42
2, 12960, Note_on_c, 0, 67, 45
2, 12961, Note_on_c, 0, 36, 79
2, 12963, Control_c, 0, 64, 127
2, 12987, Note_on_c, 0, 67, 0
2, 12987, Note_on_c, 0, 64, 0
2, 12990, Note_on_c, 0, 64, 44
2, 12990, Note_on_c, 0, 72, 54
2, 12991, Note_on_c, 0, 36, 0
2, 13014, Control_c, 0, 64, 0
2, 13017, Note_on_c, 0, 72, 0
2, 13017, Note_on_c, 0, 64, 0
2, 13020, Note_on_c, 0, 68, 51
2, 13020, Note_on_c, 0, 65, 32
2, 13021, Note_on_c, 0, 48, 80
2, 13026, Control_c, 0, 64, 127
2, 13047, Note_on_c, 0, 65, 0
2, 13047, Note_on_c, 0, 68, 0
2, 13050, Note_on_c, 0, 65, 47
2, 13050, Note_on_c, 0, 74, 61
2, 13077, Note_on_c, 0, 74, 0
2, 13077, Note_on_c, 0, 65, 0
2, 13080, Note_on_c, 0, 62, 37
2, 13080, Note_on_c, 0, 65, 45
2, 13082, Note_on_c, 0, 56, 71
2, 13107, Note_on_c, 0, 65, 0
2, 13107, Note_on_c, 0, 62, 0
2, 13110, Note_on_c, 0, 62, 47
2, 13110, Note_on_c, 0, 71, 48
2, 13128, Control_c, 0, 64, 0
2, 13137, Note_on_c, 0, 71, 0
2, 13137, Note_on_c, 0, 62, 0
2, 13140, Note_on_c, 0, 59, 43
2, 13140, Note_on_c, 0, 62, 48
2, 13141, Note_on_c, 0, 56, 0
2, 13141, Note_on_c, 0, 55, 71
2, 13167, Note_on_c, 0, 62, 0
2, 13167, Note_on_c, 0, 59, 0
2, 13170, Note_on_c, 0, 59, 45
2, 13170, Note_on_c, 0, 67, 45
2, 13197, Note_on_c, 0, 67, 0
2, 13197, Note_on_c, 0, 59, 0
2, 13200, Note_on_c, 0, 60, 45
2, 13200, Note_on_c, 0, 63, 51
2, 13201, Note_on_c, 0, 54, 71
2, 13205, Note_on_c, 0, 55, 0
2, 13227, Note_on_c, 0, 63, 0
2, 13227, Note_on_c, 0, 60, 0
2, 13230, Note_on_c, 0, 60, 51
2, 13230, Note_on_c, 0, 69, 47
2, 13255, Note_on_c, 0, 54, 0
2, 13257, Note_on_c, 0, 69, 0
2, 13257, Note_on_c, 0, 60, 0
2, 13259, Note_on_c, 0, 53, 72
2, 13260, Note_on_c, 0, 62, 47
2, 13260, Note_on_c, 0, 68, 51
2, 13287, Note_on_c, 0, 68, 0
2, 13287, Note_on_c, 0, 62, 0
2, 13290, Note_on_c, 0, 62, 39
2, 13290, Note_on_c, 0, 71, 41
2, 13317, Note_on_c, 0, 71, 0
2, 13317, Note_on_c, 0, 62, 0
2, 13319, Note_on_c, 0, 52, 73
2, 13320, Note_on_c, 0, 64, 46
2, 13320, Note_on_c, 0, 67, 47
2, 13325, Note_on_c, 0, 48, 0
2, 13329, Note_on_c, 0, 53, 0
2, 13347, Note_on_c, 0, 64, 0
2, 13347, Note_on_c, 0, 67, 0
2, 13350, Note_on_c, 0, 64, 45
2, 13350, Note_on_c, 0, 72, 51
2, 13377, Note_on_c, 0, 72, 0
2, 13377, Note_on_c, 0, 64, 0
2, 13379, Note_on_c, 0, 50, 70
2, 13380, Note_on_c, 0, 65, 42
2, 13380, Note_on_c, 0, 71, 49
2, 13385, Note_on_c, 0, 52, 0
2, 13407, Note_on_c, 0, 71, 0
2, 13407, Note_on_c, 0, 65, 0
2, 13410, Note_on_c, 0, 65, 45
2, 13410, Note_on_c, 0, 74, 43
2, 13437, Note_on_c, 0, 74, 0
2, 13437, Note_on_c, 0, 65, 0
2, 13439, Note_on_c, 0, 49, 72
2, 13440, Note_on_c, 0, 70, 56
2, 13440, Note_on_c, 0, 67, 47
2, 13446, Note_on_c, 0, 50, 0
2, 13454, Control_c, 0, 64, 127
2, 13467, Note_on_c, 0, 67, 0
2, 13467, Note_on_c, 0, 70, 0
2, 13470, Note_on_c, 0, 76, 55
2, 13470, Note_on_c, 0, 67, 48
2, 13497, Note_on_c, 0, 67, 0
2, 13497, Note_on_c, 0, 76, 0
2, 13500, Note_on_c, 0, 76, 45
2, 13500, Note_on_c, 0, 70, 41
2, 13501, Note_on_c, 0, 61, 77
2, 13527, Note_on_c, 0, 70, 0
2, 13527, Note_on_c, 0, 76, 0
2, 13530, Note_on_c, 0, 79, 49
2, 13530, Note_on_c, 0, 70, 45
2, 13550, Note_on_c, 0, 61, 0
2, 13553, Note_on_c, 0, 49, 0
2, 13557, Note_on_c, 0, 79, 0
2, 13557, Note_on_c, 0, 70, 0
2, 13560, Note_on_c, 0, 69, 47
2, 13560, Note_on_c, 0, 74, 51
2, 13561, Note_on_c, 0, 62, 76
2, 13561, Note_on_c, 0, 50, 68
2, 13577, Control_c, 0, 64, 0
2, 13587, Note_on_c, 0, 74, 0
2, 13587, Note_on_c, 0, 69, 0
2, 13590, Note_on_c, 0, 69, 45
2, 13590, Note_on_c, 0, 77, 51
2, 13598, Note_on_c, 0, 50, 0
2, 13601, Note_on_c, 0, 62, 0
2, 13617, Note_on_c, 0, 69, 0
2, 13617, Note_on_c, 0, 77, 0
2, 13620, Note_on_c, 0, 67, 42
2, 13620, Note_on_c, 0, 69, 51
2, 13620, Note_on_c, 0, 61, 78
2, 13621, Note_on_c, 0, 52, 66
2, 13625, Control_c, 0, 64, 127
2, 13647, Note_on_c, 0, 69, 0
2, 13647, Note_on_c, 0, 67, 0
2, 13650, Note_on_c, 0, 67, 46
2, 13650, Note_on_c, 0, 76, 52
2, 13664, Note_on_c, 0, 61, 0
2, 13664, Note_on_c, 0, 52, 0
2, 13677, Note_on_c, 0, 67, 0
2, 13677, Note_on_c, 0, 76, 0
2, 13680, Note_on_c, 0, 67, 43
2, 13680, Note_on_c, 0, 69, 46
2, 13681, Note_on_c, 0, 52, 65
2, 13681, Note_on_c, 0, 61, 79
2, 13707, Note_on_c, 0, 69, 0
2, 13707, Note_on_c, 0, 67, 0
2, 13710, Note_on_c, 0, 76, 50
2, 13710, Note_on_c, 0, 67, 42
2, 13726, Note_on_c, 0, 52, 0
2, 13726, Note_on_c, 0, 61, 0
2, 13737, Note_on_c, 0, 76, 0
2, 13737, Note_on_c, 0, 67, 0
2, 13740, Note_on_c, 0, 65, 39
2, 13740, Note_on_c, 0, 69, 54
2, 13741, Note_on_c, 0, 62, 76
2, 13741, Note_on_c, 0, 53, 65
2, 13742, Control_c, 0, 64, 0
2, 13767, Note_on_c, 0, 69, 0
2, 13767, Note_on_c, 0, 65, 0
2, 13770, Note_on_c, 0, 65, 47
2, 13770, Note_on_c, 0, 74, 49
2, 13788, Note_on_c, 0, 62, 0
2, 13793, Note_on_c, 0, 53, 0
2, 13797, Note_on_c, 0, 65, 0
2, 13797, Note_on_c, 0, 74, 0
2, 13800, Note_on_c, 0, 63, 47
2, 13800, Note_on_c, 0, 69, 55
2, 13801, Note_on_c, 0, 54, 77
2, 13827, Note_on_c, 0, 69, 0
2, 13827, Note_on_c, 0, 63, 0
2, 13830, Note_on_c, 0, 63, 45
2, 13830, Note_on_c, 0, 72, 46
2, 13846, Note_on_c, 0, 54, 0
2, 13857, Note_on_c, 0, 72, 0
2, 13857, Note_on_c, 0, 63, 0
2, 13860, Note_on_c, 0, 64, 39
2, 13860, Note_on_c, 0, 67, 46
2, 13860, Note_on_c, 0, 55, 78
2, 13866, Control_c, 0, 64, 127
2, 13887, Note_on_c, 0, 67, 0
2, 13887, Note_on_c, 0, 64, 0
2, 13890, Note_on_c, 0, 64, 46
2, 13890, Note_on_c, 0, 72, 52
2, 13907, Note_on_c, 0, 55, 0
2, 13917, Note_on_c, 0, 72, 0
2, 13917, Note_on_c, 0, 64, 0
2, 13919, Note_on_c, 0, 43, 79
2, 13920, Note_on_c, 0, 66, 53
2, 13920, Note_on_c, 0, 63, 45
2, 13923, Control_c, 0, 64, 0
2, 13947, Note_on_c, 0, 63, 0
2, 13947, Note_on_c, 0, 66, 0
2, 13950, Note_on_c, 0, 72, 49
2, 13950, Note_on_c, 0, 63, 47
2, 13969, Note_on_c, 0, 43, 0
2, 13977, Note_on_c, 0, 63, 0
2, 13977, Note_on_c, 0, 72, 0
2, 13979, Note_on_c, 0, 55, 75
2, 13980, Note_on_c, 0, 62, 47
2, 13980, Note_on_c, 0, 65, 55
2, 14005, Note_on_c, 0, 55, 0
2, 14007, Note_on_c, 0, 65, 0
2, 14007, Note_on_c, 0, 62, 0
2, 14010, Note_on_c, 0, 62, 49
2, 14010, Note_on_c, 0, 71, 51
2, 14037, Note_on_c, 0, 71, 0
2, 14037, Note_on_c, 0, 62, 0
2, 14039, Control_c, 0, 64, 127
2, 14040, Note_on_c, 0, 64, 41
2, 14040, Note_on_c, 0, 67, 45
2, 14041, Note_on_c, 0, 36, 79
2, 14058, Note_on_c, 0, 36, 0
2, 14067, Note_on_c, 0, 67, 0
2, 14067, Note_on_c, 0, 64, 0
2, 14070, Note_on_c, 0, 64, 41
2, 14070, Note_on_c, 0, 72, 52
2, 14088, Control_c, 0, 64, 0
2, 14097, Note_on_c, 0, 72, 0
2, 14097, Note_on_c, 0, 64, 0
2, 14099, Note_on_c, 0, 48, 79
2, 14100, Note_on_c, 0, 68, 53
2, 14100, Note_on_c, 0, 65, 43
2, 14104, Control_c, 0, 64, 127
2, 14127, Note_on_c, 0, 65, 0
2, 14127, Note_on_c, 0, 68, 0
2, 14130, Note_on_c, 0, 65, 50
2, 14130, Note_on_c, 0, 74, 62
2, 14157, Note_on_c, 0, 74, 0
2, 14157, Note_on_c, 0, 65, 0
2, 14160, Note_on_c, 0, 62, 38
2, 14160, Note_on_c, 0, 65, 51
2, 14161, Note_on_c, 0, 56, 70
2, 14187, Note_on_c, 0, 65, 0
2, 14187, Note_on_c, 0, 62, 0
2, 14190, Note_on_c, 0, 62, 43
2, 14190, Note_on_c, 0, 71, 47
2, 14217, Note_on_c, 0, 71, 0
2, 14217, Note_on_c, 0, 62, 0
2, 14220, Note_on_c, 0, 59, 36
2, 14220, Note_on_c, 0, 62, 41
2, 14221, Note_on_c, 0, 55, 73
2, 14224, Note_on_c, 0, 56, 0
2, 14226, Control_c, 0, 64, 0
2, 14247, Note_on_c, 0, 62, 0
2, 14247, Note_on_c, 0, 59, 0
2, 14250, Note_on_c, 0, 59, 40
2, 14250, Note_on_c, 0, 67, 47
2, 14277, Note_on_c, 0, 67, 0
2, 14277, Note_on_c, 0, 59, 0
2, 14279, Note_on_c, 0, 54, 75
2, 14280, Note_on_c, 0, 63, 56
2, 14280, Note_on_c, 0, 60, 40
2, 14283, Note_on_c, 0, 55, 0
2, 14307, Note_on_c, 0, 63, 0
2, 14307, Note_on_c, 0, 60, 0
2, 14310, Note_on_c, 0, 60, 45
2, 14310, Note_on_c, 0, 69, 55
2, 14337, Note_on_c, 0, 69, 0
2, 14337, Note_on_c, 0, 60, 0
2, 14339, Note_on_c, 0, 53, 75
2, 14340, Note_on_c, 0, 62, 40
2, 14340, Note_on_c, 0, 68, 45
2, 14343, Note_on_c, 0, 54, 0
2, 14363, Note_on_c, 0, 48, 0
2, 14367, Note_on_c, 0, 62, 0
2, 14367, Note_on_c, 0, 68, 0
2, 14370, Note_on_c, 0, 71, 46
2, 14370, Note_on_c, 0, 62, 40
2, 14374, Note_on_c, 0, 53, 0
2, 14394, Control_c, 0, 64, 127
2, 14397, Note_on_c, 0, 62, 0
2, 14397, Note_on_c, 0, 71, 0
2, 14400, Note_on_c, 0, 67, 51
2, 14400, Note_on_c, 0, 64, 36
2, 14401, Note_on_c, 0, 36, 79
2, 14416, Note_on_c, 0, 36, 0
2, 14427, Note_on_c, 0, 64, 0
2, 14427, Note_on_c, 0, 67, 0
2, 14430, Note_on_c, 0, 72, 53
2, 14430, Note_on_c, 0, 64, 41
2, 14450, Control_c, 0, 64, 0
2, 14457, Note_on_c, 0, 64, 0
2, 14457, Note_on_c, 0, 72, 0
2, 14459, Note_on_c, 0, 48, 83
2, 14460, Note_on_c, 0, 68, 53
2, 14460, Note_on_c, 0, 65, 39
2, 14465, Control_c, 0, 64, 127
2, 14487, Note_on_c, 0, 65, 0
2, 14487, Note_on_c, 0, 68, 0
2, 14490, Note_on_c, 0, 65, 45
2, 14490, Note_on_c, 0, 74, 58
2, 14517, Note_on_c, 0, 74, 0
2, 14517, Note_on_c, 0, 65, 0
2, 14520, Note_on_c, 0, 62, 47
2, 14520, Note_on_c, 0, 65, 42
2, 14520, Note_on_c, 0, 56, 75
2, 14547, Note_on_c, 0, 65, 0
2, 14547, Note_on_c, 0, 62, 0
2, 14550, Note_on_c, 0, 62, 42
2, 14550, Note_on_c, 0, 71, 43
2, 14577, Note_on_c, 0, 71, 0
2, 14577, Note_on_c, 0, 62, 0
2, 14580, Note_on_c, 0, 59, 39
2, 14580, Note_on_c, 0, 62, 42
2, 14581, Note_on_c, 0, 55, 73
2, 14581, Control_c, 0, 64, 0
2, 14582, Note_on_c, 0, 56, 0
2, 14607, Note_on_c, 0, 62, 0
2, 14607, Note_on_c, 0, 59, 0
2, 14610, Note_on_c, 0, 59, 40
2, 14610, Note_on_c, 0, 67, 48
2, 14637, Note_on_c, 0, 67, 0
2, 14637, Note_on_c, 0, 59, 0
2, 14639, Note_on_c, 0, 54, 74
2, 14640, Note_on_c, 0, 60, 46
2, 14640, Note_on_c, 0, 63, 46
2, 14643, Note_on_c, 0, 55, 0
2, 14667, Note_on_c, 0, 60, 0
2, 14667, Note_on_c, 0, 63, 0
2, 14670, Note_on_c, 0, 60, 45
2, 14670, Note_on_c, 0, 69, 51
2, 14695, Note_on_c, 0, 54, 0
2, 14697, Note_on_c, 0, 69, 0
2, 14697, Note_on_c, 0, 60, 0
2, 14699, Note_on_c, 0, 53, 75
2, 14700, Note_on_c, 0, 62, 48
2, 14700, Note_on_c, 0, 68, 57
2, 14727, Note_on_c, 0, 68, 0
2, 14727, Note_on_c, 0, 62, 0
2, 14730, Note_on_c, 0, 62, 45
2, 14730, Note_on_c, 0, 71, 40
2, 14753, Note_on_c, 0, 53, 0
2, 14753, Note_on_c, 0, 48, 0
2, 14757, Note_on_c, 0, 62, 0
2, 14757, Note_on_c, 0, 71, 0
2, 14759, Note_on_c, 0, 52, 73
2, 14760, Note_on_c, 0, 64, 35
2, 14760, Note_on_c, 0, 67, 17
2, 14787, Note_on_c, 0, 67, 0
2, 14787, Note_on_c, 0, 64, 0
2, 14790, Note_on_c, 0, 64, 36
2, 14790, Note_on_c, 0, 72, 44
2, 14799, Note_on_c, 0, 52, 0
2, 14817, Note_on_c, 0, 72, 0
2, 14817, Note_on_c, 0, 64, 0
2, 14819, Note_on_c, 0, 49, 63
2, 14819, Control_c, 0, 64, 127
2, 14820, Note_on_c, 0, 67, 42
2, 14820, Note_on_c, 0, 69, 45
2, 14820, Note_on_c, 0, 57, 55
2, 14821, Note_on_c, 0, 61, 63
2, 14847, Note_on_c, 0, 69, 0
2, 14847, Note_on_c, 0, 67, 0
2, 14850, Note_on_c, 0, 67, 45
2, 14850, Note_on_c, 0, 76, 61
2, 14871, Note_on_c, 0, 61, 0
2, 14871, Note_on_c, 0, 57, 0
2, 14873, Note_on_c, 0, 49, 0
2, 14877, Note_on_c, 0, 76, 0
2, 14877, Note_on_c, 0, 67, 0
2, 14880, Note_on_c, 0, 69, 50
2, 14880, Note_on_c, 0, 65, 40
2, 14880, Note_on_c, 0, 57, 58
2, 14881, Note_on_c, 0, 50, 67
2, 14881, Note_on_c, 0, 62, 67
2, 14881, Control_c, 0, 64, 0
2, 14907, Note_on_c, 0, 50, 0
2, 14907, Note_on_c, 0, 65, 0
2, 14907, Note_on_c, 0, 69, 0
2, 14908, Note_on_c, 0, 57, 0
2, 14908, Note_on_c, 0, 62, 0
2, 14910, Note_on_c, 0, 65, 42
2, 14910, Note_on_c, 0, 74, 61
2, 14936, Control_c, 0, 64, 127
2, 14937, Note_on_c, 0, 74, 0
2, 14937, Note_on_c, 0, 65, 0
2, 14940, Note_on_c, 0, 72, 55
2, 14940, Note_on_c, 0, 70, 50
2, 14941, Note_on_c, 0, 52, 68
2, 14941, Note_on_c, 0, 64, 68
2, 14941, Note_on_c, 0, 60, 59
2, 14967, Note_on_c, 0, 70, 0
2, 14967, Note_on_c, 0, 72, 0
2, 14970, Note_on_c, 0, 79, 62
2, 14970, Note_on_c, 0, 70, 45
2, 14986, Note_on_c, 0, 52, 0
2, 14988, Note_on_c, 0, 64, 0
2, 14990, Note_on_c, 0, 60, 0
2, 14997, Note_on_c, 0, 79, 0
2, 14997, Note_on_c, 0, 70, 0
2, 14999, Control_c, 0, 64, 0
2, 15000, Note_on_c, 0, 72, 48
2, 15000, Note_on_c, 0, 69, 44
2, 15000, Note_on_c, 0, 60, 61
2, 15001, Note_on_c, 0, 65, 69
2, 15001, Note_on_c, 0, 53, 69
2, 15027, Note_on_c, 0, 69, 0
2, 15027, Note_on_c, 0, 72, 0
2, 15028, Note_on_c, 0, 53, 0
2, 15029, Note_on_c, 0, 65, 0
2, 15030, Note_on_c, 0, 60, 0
2, 15030, Note_on_c, 0, 69, 52
2, 15030, Note_on_c, 0, 77, 62
2, 15054, Control_c, 0, 64, 127
2, 15057, Note_on_c, 0, 77, 0
2, 15057, Note_on_c, 0, 69, 0
2, 15060, Note_on_c, 0, 72, 44
2, 15060, Note_on_c, 0, 74, 49
2, 15061, Note_on_c, 0, 54, 73
2, 15061, Note_on_c, 0, 66, 73
2, 15061, Note_on_c, 0, 62, 64
2, 15087, Note_on_c, 0, 74, 0
2, 15087, Note_on_c, 0, 72, 0
2, 15090, Note_on_c, 0, 72, 56
2, 15090, Note_on_c, 0, 81, 62
2, 15112, Note_on_c, 0, 62, 0
2, 15113, Note_on_c, 0, 66, 0
2, 15113, Note_on_c, 0, 54, 0
2, 15115, Control_c, 0, 64, 0
2, 15117, Note_on_c, 0, 72, 0
2, 15117, Note_on_c, 0, 81, 0
2, 15120, Note_on_c, 0, 74, 50
2, 15120, Note_on_c, 0, 71, 45
2, 15121, Note_on_c, 0, 62, 63
2, 15121, Note_on_c, 0, 67, 72
2, 15121, Note_on_c, 0, 55, 72
2, 15146, Note_on_c, 0, 55, 0
2, 15147, Note_on_c, 0, 74, 0
2, 15147, Note_on_c, 0, 71, 0
2, 15148, Note_on_c, 0, 62, 0
2, 15150, Note_on_c, 0, 67, 0
2, 15150, Note_on_c, 0, 79, 63
2, 15150, Note_on_c, 0, 71, 58
2, 15172, Control_c, 0, 64, 127
2, 15177, Note_on_c, 0, 71, 0
2, 15177, Note_on_c, 0, 79, 0
2, 15180, Note_on_c, 0, 74, 45
2, 15180, Note_on_c, 0, 76, 54
2, 15181, Note_on_c, 0, 56, 72
2, 15181, Note_on_c, 0, 68, 72
2, 15181, Note_on_c, 0, 64, 63
2, 15207, Note_on_c, 0, 76, 0
2, 15207, Note_on_c, 0, 74, 0
2, 15210, Note_on_c, 0, 74, 56
2, 15210, Note_on_c, 0, 83, 62
2, 15228, Note_on_c, 0, 64, 0
2, 15229, Note_on_c, 0, 68, 0
2, 15229, Note_on_c, 0, 56, 0
2, 15234, Control_c, 0, 64, 0
2, 15237, Note_on_c, 0, 74, 0
2, 15237, Note_on_c, 0, 83, 0
2, 15240, Note_on_c, 0, 72, 48
2, 15240, Note_on_c, 0, 76, 55
2, 15240, Note_on_c, 0, 64, 68
2, 15241, Note_on_c, 0, 57, 76
2, 15241, Note_on_c, 0, 69, 76
2, 15267, Note_on_c, 0, 76, 0
2, 15267, Note_on_c, 0, 72, 0
2, 15268, Note_on_c, 0, 57, 0
2, 15268, Note_on_c, 0, 69, 0
2, 15269, Note_on_c, 0, 64, 0
2, 15270, Note_on_c, 0, 72, 56
2, 15270, Note_on_c, 0, 81, 59
2, 15297, Note_on_c, 0, 81, 0
2, 15297, Note_on_c, 0, 72, 0
2, 15299, Control_c, 0, 64, 127
2, 15300, Note_on_c, 0, 77, 43
2, 15300, Note_on_c, 0, 79, 46
2, 15300, Note_on_c, 0, 59, 79
2, 15301, Note_on_c, 0, 71, 79
2, 15301, Note_on_c, 0, 67, 70
2, 15327, Note_on_c, 0, 79, 0
2, 15327, Note_on_c, 0, 77, 0
2, 15330, Note_on_c, 0, 86, 63
2, 15330, Note_on_c, 0, 77, 50
2, 15342, Control_c, 0, 64, 0
2, 15345, Note_on_c, 0, 59, 0
2, 15347, Note_on_c, 0, 71, 0
2, 15349, Note_on_c, 0, 67, 0
2, 15357, Note_on_c, 0, 86, 0
2, 15357, Note_on_c, 0, 77, 0
2, 15357, Control_c, 0, 64, 127
2, 15360, Note_on_c, 0, 76, 43
2, 15360, Note_on_c, 0, 79, 45
2, 15361, Note_on_c, 0, 67, 73
2, 15361, Note_on_c, 0, 72, 83
2, 15361, Note_on_c, 0, 60, 83
2, 15386, Note_on_c, 0, 60, 0
2, 15387, Note_on_c, 0, 76, 0
2, 15387, Note_on_c, 0, 79, 0
2, 15390, Note_on_c, 0, 67, 0
2, 15390, Note_on_c, 0, 76, 45
2, 15390, Note_on_c, 0, 84, 62
2, 15391, Note_on_c, 0, 72, 0
2, 15416, Control_c, 0, 64, 0
2, 15417, Note_on_c, 0, 84, 0
2, 15417, Note_on_c, 0, 76, 0
2, 15420, Note_on_c, 0, 81, 58
2, 15420, Note_on_c, 0, 79, 50
2, 15420, Note_on_c, 0, 61, 78
2, 15420, Note_on_c, 0, 69, 78
2, 15421, Note_on_c, 0, 73, 86
2, 15447, Note_on_c, 0, 79, 0
2, 15447, Note_on_c, 0, 81, 0
2, 15448, Note_on_c, 0, 73, 0
2, 15450, Note_on_c, 0, 61, 0
2, 15450, Note_on_c, 0, 88, 61
2, 15450, Note_on_c, 0, 79, 48
2, 15451, Note_on_c, 0, 69, 0
2, 15477, Note_on_c, 0, 79, 0
2, 15477, Note_on_c, 0, 88, 0
2, 15480, Note_on_c, 0, 81, 50
2, 15480, Note_on_c, 0, 79, 45
2, 15480, Note_on_c, 0, 73, 86
2, 15481, Note_on_c, 0, 69, 78
2, 15481, Note_on_c, 0, 62, 86
2, 15483, Control_c, 0, 64, 127
2, 15507, Note_on_c, 0, 79, 0
2, 15507, Note_on_c, 0, 81, 0
2, 15510, Note_on_c, 0, 88, 62
2, 15510, Note_on_c, 0, 79, 45
2, 15537, Note_on_c, 0, 79, 0
2, 15537, Note_on_c, 0, 88, 0
2, 15540, Note_on_c, 0, 79, 51
2, 15540, Note_on_c, 0, 81, 56
2, 15567, Note_on_c, 0, 81, 0
2, 15567, Note_on_c, 0, 79, 0
2, 15570, Note_on_c, 0, 79, 46
2, 15570, Note_on_c, 0, 88, 42
2, 15597, Note_on_c, 0, 88, 0
2, 15597, Note_on_c, 0, 79, 0
2, 15600, Note_on_c, 0, 81, 54
2, 15600, Note_on_c, 0, 79, 39
2, 15627, Note_on_c, 0, 79, 0
2, 15627, Note_on_c, 0, 81, 0
2, 15630, Note_on_c, 0, 79, 45
2, 15630, Note_on_c, 0, 88, 45
2, 15641, Control_c, 0, 64, 0
2, 15657, Note_on_c, 0, 88, 0
2, 15657, Note_on_c, 0, 79, 0
2, 15658, Control_c, 0, 64, 127
2, 15660, Note_on_c, 0, 81, 55
2, 15660, Note_on_c, 0, 79, 43
2, 15661, Note_on_c, 0, 74, 87
2, 15668, Note_on_c, 0, 73, 0
2, 15687, Note_on_c, 0, 79, 0
2, 15687, Note_on_c, 0, 81, 0
2, 15690, Note_on_c, 0, 79, 40
2, 15690, Note_on_c, 0, 88, 43
2, 15717, Note_on_c, 0, 88, 0
2, 15717, Note_on_c, 0, 79, 0
2, 15720, Note_on_c, 0, 81, 55
2, 15720, Note_on_c, 0, 77, 42
2, 15747, Note_on_c, 0, 77, 0
2, 15747, Note_on_c, 0, 81, 0
2, 15750, Note_on_c, 0, 86, 62
2, 15750, Note_on_c, 0, 77, 51
2, 15777, Note_on_c, 0, 77, 0
2, 15777, Note_on_c, 0, 86, 0
2, 15780, Note_on_c, 0, 81, 52
2, 15780, Note_on_c, 0, 77, 42
2, 15800, Note_on_c, 0, 69, 0
2, 15804, Note_on_c, 0, 62, 0
2, 15807, Note_on_c, 0, 77, 0
2, 15807, Note_on_c, 0, 81, 0
2, 15810, Note_on_c, 0, 74, 0
2, 15810, Note_on_c, 0, 77, 39
2, 15810, Note_on_c, 0, 84, 63
2, 15826, Control_c, 0, 64, 0
2, 15837, Note_on_c, 0, 84, 0
2, 15837, Note_on_c, 0, 77, 0
2, 15840, Note_on_c, 0, 81, 51
2, 15840, Note_on_c, 0, 77, 37
2, 15841, Note_on_c, 0, 43, 65
2, 15848, Control_c, 0, 64, 127
2, 15867, Note_on_c, 0, 77, 0
2, 15867, Note_on_c, 0, 81, 0
2, 15870, Note_on_c, 0, 77, 39
2, 15870, Note_on_c, 0, 83, 62
2, 15888, Note_on_c, 0, 43, 0
2, 15897, Note_on_c, 0, 83, 0
2, 15897, Note_on_c, 0, 77, 0
2, 15899, Note_on_c, 0, 55, 67
2, 15900, Note_on_c, 0, 77, 45
2, 15900, Note_on_c, 0, 81, 56
2, 15927, Note_on_c, 0, 81, 0
2, 15927, Note_on_c, 0, 77, 0
2, 15930, Note_on_c, 0, 77, 37
2, 15930, Note_on_c, 0, 83, 50
2, 15932, Note_on_c, 0, 55, 0
2, 15957, Note_on_c, 0, 83, 0
2, 15957, Note_on_c, 0, 77, 0
2, 15959, Note_on_c, 0, 65, 68
2, 15959, Note_on_c, 0, 62, 59
2, 15960, Note_on_c, 0, 77, 44
2, 15960, Note_on_c, 0, 81, 57
2, 15987, Note_on_c, 0, 81, 0
2, 15987, Note_on_c, 0, 77, 0
2, 15990, Note_on_c, 0, 77, 39
2, 15990, Note_on_c, 0, 83, 49
2, 16017, Note_on_c, 0, 83, 0
2, 16017, Note_on_c, 0, 77, 0
2, 16019, Note_on_c, 0, 71, 65
2, 16020, Note_on_c, 0, 81, 48
2, 16020, Note_on_c, 0, 77, 34
2, 16022, Note_on_c, 0, 62, 0
2, 16025, Note_on_c, 0, 65, 0
2, 16047, Note_on_c, 0, 81, 0
2, 16047, Note_on_c, 0, 77, 0
2, 16050, Note_on_c, 0, 77, 39
2, 16050, Note_on_c, 0, 83, 46
2, 16058, Note_on_c, 0, 71, 0
2, 16077, Note_on_c, 0, 83, 0
2, 16077, Note_on_c, 0, 77, 0
2, 16080, Note_on_c, 0, 76, 45
2, 16080, Note_on_c, 0, 79, 50
2, 16084, Control_c, 0, 64, 0
2, 16107, Note_on_c, 0, 79, 0
2, 16107, Note_on_c, 0, 76, 0
2, 16110, Note_on_c, 0, 76, 50
2, 16110, Note_on_c, 0, 83, 50
2, 16137, Note_on_c, 0, 83, 0
2, 16137, Note_on_c, 0, 76, 0
2, 16140, Note_on_c, 0, 74, 40
2, 16140, Note_on_c, 0, 77, 41
2, 16167, Note_on_c, 0, 77, 0
2, 16167, Note_on_c, 0, 74, 0
2, 16170, Note_on_c, 0, 74, 51
2, 16170, Note_on_c, 0, 83, 51
2, 16197, Note_on_c, 0, 83, 0
2, 16197, Note_on_c, 0, 74, 0
2, 16199, Note_on_c, 0, 60, 66
2, 16200, Note_on_c, 0, 76, 48
2, 16200, Note_on_c, 0, 79, 48
2, 16205, Control_c, 0, 64, 127
2, 16227, Note_on_c, 0, 79, 0
2, 16227, Note_on_c, 0, 76, 0
2, 16230, Note_on_c, 0, 76, 49
2, 16230, Note_on_c, 0, 84, 39
2, 16257, Note_on_c, 0, 84, 0
2, 16257, Note_on_c, 0, 76, 0
2, 16260, Note_on_c, 0, 77, 48
2, 16260, Note_on_c, 0, 81, 58
2, 16261, Note_on_c, 0, 72, 59
2, 16261, Note_on_c, 0, 69, 60
2, 16287, Note_on_c, 0, 81, 0
2, 16287, Note_on_c, 0, 77, 0
2, 16290, Note_on_c, 0, 77, 47
2, 16290, Note_on_c, 0, 86, 29
2, 16310, Note_on_c, 0, 72, 0
2, 16311, Control_c, 0, 64, 0
2, 16312, Note_on_c, 0, 69, 0
2, 16317, Note_on_c, 0, 86, 0
2, 16317, Note_on_c, 0, 77, 0
2, 16320, Note_on_c, 0, 79, 48
2, 16320, Note_on_c, 0, 83, 58
2, 16321, Note_on_c, 0, 71, 58
2, 16321, Note_on_c, 0, 67, 59
2, 16347, Note_on_c, 0, 83, 0
2, 16347, Note_on_c, 0, 79, 0
2, 16350, Note_on_c, 0, 79, 46
2, 16350, Note_on_c, 0, 88, 45
2, 16370, Note_on_c, 0, 67, 0
2, 16371, Note_on_c, 0, 71, 0
2, 16377, Note_on_c, 0, 88, 0
2, 16377, Note_on_c, 0, 79, 0
2, 16380, Note_on_c, 0, 81, 49
2, 16380, Note_on_c, 0, 84, 56
2, 16381, Note_on_c, 0, 69, 61
2, 16381, Note_on_c, 0, 65, 61
2, 16390, Control_c, 0, 64, 127
2, 16407, Note_on_c, 0, 84, 0
2, 16407, Note_on_c, 0, 81, 0
2, 16410, Note_on_c, 0, 81, 50
2, 16410, Note_on_c, 0, 89, 45
2, 16429, Note_on_c, 0, 69, 0
2, 16437, Note_on_c, 0, 81, 0
2, 16437, Note_on_c, 0, 89, 0
2, 16439, Note_on_c, 0, 67, 59
2, 16440, Note_on_c, 0, 79, 44
2, 16440, Note_on_c, 0, 83, 47
2, 16441, Note_on_c, 0, 71, 59
2, 16445, Note_on_c, 0, 65, 0
2, 16455, Control_c, 0, 64, 0
2, 16467, Note_on_c, 0, 83, 0
2, 16467, Note_on_c, 0, 79, 0
2, 16470, Note_on_c, 0, 79, 46
2, 16470, Note_on_c, 0, 88, 44
2, 16480, Note_on_c, 0, 71, 0
2, 16488, Note_on_c, 0, 67, 0
2, 16497, Note_on_c, 0, 79, 0
2, 16497, Note_on_c, 0, 88, 0
2, 16499, Note_on_c, 0, 69, 58
2, 16499, Note_on_c, 0, 72, 58
2, 16500, Note_on_c, 0, 77, 38
2, 16500, Note_on_c, 0, 81, 45
2, 16527, Note_on_c, 0, 81, 0
2, 16527, Note_on_c, 0, 77, 0
2, 16530, Note_on_c, 0, 77, 46
2, 16530, Note_on_c, 0, 86, 48
2, 16539, Note_on_c, 0, 72, 0
2, 16539, Note_on_c, 0, 69, 0
2, 16557, Note_on_c, 0, 86, 0
2, 16557, Note_on_c, 0, 77, 0
2, 16558, Control_c, 0, 64, 127
2, 16560, Note_on_c, 0, 79, 45
2, 16560, Note_on_c, 0, 77, 41
2, 16561, Note_on_c, 0, 71, 60
2, 16561, Note_on_c, 0, 74, 59
2, 16587, Note_on_c, 0, 77, 0
2, 16587, Note_on_c, 0, 79, 0
2, 16590, Note_on_c, 0, 77, 51
2, 16590, Note_on_c, 0, 86, 45
2, 16607, Note_on_c, 0, 60, 0
2, 16609, Note_on_c, 0, 74, 0
2, 16617, Note_on_c, 0, 86, 0
2, 16617, Note_on_c, 0, 77, 0
2, 16620, Note_on_c, 0, 79, 54
2, 16620, Note_on_c, 0, 77, 50
2, 16621, Note_on_c, 0, 60, 60
2, 16626, Note_on_c, 0, 71, 0
2, 16647, Note_on_c, 0, 79, 0
2, 16647, Note_on_c, 0, 77, 0
2, 16650, Note_on_c, 0, 77, 51
2, 16650, Note_on_c, 0, 86, 45
2, 16677, Note_on_c, 0, 86, 0
2, 16677, Note_on_c, 0, 77, 0
2, 16680, Note_on_c, 0, 81, 54
2, 16680, Note_on_c, 0, 77, 50
2, 16681, Note_on_c, 0, 69, 58
2, 16681, Note_on_c, 0, 72, 58
2, 16681, Control_c, 0, 64, 0
2, 16707, Note_on_c, 0, 77, 0
2, 16707, Note_on_c, 0, 81, 0
2, 16710, Note_on_c, 0, 77, 46
2, 16710, Note_on_c, 0, 86, 44
2, 16720, Note_on_c, 0, 72, 0
2, 16722, Note_on_c, 0, 69, 0
2, 16734, Control_c, 0, 64, 127
2, 16737, Note_on_c, 0, 86, 0
2, 16737, Note_on_c, 0, 77, 0
2, 16740, Note_on_c, 0, 79, 55
2, 16740, Note_on_c, 0, 77, 50
2, 16742, Note_on_c, 0, 71, 57
2, 16742, Note_on_c, 0, 74, 57
2, 16767, Note_on_c, 0, 77, 0
2, 16767, Note_on_c, 0, 79, 0
2, 16770, Note_on_c, 0, 77, 48
2, 16770, Note_on_c, 0, 86, 45
2, 16786, Note_on_c, 0, 60, 0
2, 16787, Note_on_c, 0, 74, 0
2, 16797, Note_on_c, 0, 86, 0
2, 16797, Note_on_c, 0, 77, 0
2, 16799, Note_on_c, 0, 71, 0
2, 16800, Note_on_c, 0, 79, 50
2, 16800, Note_on_c, 0, 77, 42
2, 16801, Note_on_c, 0, 60, 60
2, 16827, Note_on_c, 0, 77, 0
2, 16827, Note_on_c, 0, 79, 0
2, 16830, Note_on_c, 0, 77, 46
2, 16830, Note_on_c, 0, 88, 51
2, 16857, Note_on_c, 0, 88, 0
2, 16857, Note_on_c, 0, 77, 0
2, 16860, Note_on_c, 0, 79, 40
2, 16860, Note_on_c, 0, 77, 33
2, 16861, Note_on_c, 0, 71, 57
2, 16861, Note_on_c, 0, 67, 57
2, 16887, Note_on_c, 0, 77, 0
2, 16887, Note_on_c, 0, 79, 0
2, 16890, Note_on_c, 0, 86, 45
2, 16890, Note_on_c, 0, 77, 39
2, 16902, Note_on_c, 0, 60, 0
2, 16903, Control_c, 0, 64, 0
2, 16910, Note_on_c, 0, 71, 0
2, 16917, Note_on_c, 0, 86, 0
2, 16917, Note_on_c, 0, 77, 0
2, 16920, Note_on_c, 0, 76, 41
2, 16920, Note_on_c, 0, 79, 42
2, 16921, Note_on_c, 0, 60, 60
2, 16924, Note_on_c, 0, 67, 0
2, 16924, Control_c, 0, 64, 127
2, 16947, Note_on_c, 0, 76, 0
2, 16947, Note_on_c, 0, 79, 0
2, 16950, Note_on_c, 0, 76, 39
2, 16950, Note_on_c, 0, 84, 33
2, 16977, Note_on_c, 0, 84, 0
2, 16977, Note_on_c, 0, 76, 0
2, 16980, Note_on_c, 0, 77, 44
2, 16980, Note_on_c, 0, 81, 49
2, 16981, Note_on_c, 0, 72, 62
2, 16981, Note_on_c, 0, 69, 62
2, 16994, Control_c, 0, 64, 0
2, 17007, Note_on_c, 0, 81, 0
2, 17007, Note_on_c, 0, 77, 0
2, 17010, Note_on_c, 0, 77, 39
2, 17010, Note_on_c, 0, 86, 39
2, 17025, Note_on_c, 0, 72, 0
2, 17030, Note_on_c, 0, 69, 0
2, 17037, Note_on_c, 0, 86, 0
2, 17037, Note_on_c, 0, 77, 0
2, 17039, Note_on_c, 0, 67, 61
2, 17040, Note_on_c, 0, 79, 45
2, 17040, Note_on_c, 0, 83, 42
2, 17040, Note_on_c, 0, 71, 61
2, 17067, Note_on_c, 0, 83, 0
2, 17067, Note_on_c, 0, 79, 0
2, 17070, Note_on_c, 0, 79, 45
2, 17070, Note_on_c, 0, 88, 46
2, 17090, Note_on_c, 0, 71, 0
2, 17092, Note_on_c, 0, 67, 0
2, 17097, Note_on_c, 0, 88, 0
2, 17097, Note_on_c, 0, 79, 0
2, 17100, Note_on_c, 0, 84, 35
2, 17100, Note_on_c, 0, 81, 36
2, 17101, Note_on_c, 0, 69, 61
2, 17101, Note_on_c, 0, 65, 61
2, 17103, Control_c, 0, 64, 127
2, 17127, Note_on_c, 0, 81, 0
2, 17127, Note_on_c, 0, 84, 0
2, 17130, Note_on_c, 0, 81, 45
2, 17130, Note_on_c, 0, 89, 40
2, 17142, Note_on_c, 0, 69, 0
2, 17157, Note_on_c, 0, 81, 0
2, 17157, Note_on_c, 0, 89, 0
2, 17159, Note_on_c, 0, 67, 62
2, 17159, Control_c, 0, 64, 0
2, 17160, Note_on_c, 0, 79, 39
2, 17160, Note_on_c, 0, 83, 45
2, 17161, Note_on_c, 0, 71, 62
2, 17164, Note_on_c, 0, 65, 0
2, 17187, Note_on_c, 0, 83, 0
2, 17187, Note_on_c, 0, 79, 0
2, 17190, Note_on_c, 0, 79, 45
2, 17190, Note_on_c, 0, 88, 37
2, 17202, Note_on_c, 0, 71, 0
2, 17207, Note_on_c, 0, 67, 0
2, 17217, Note_on_c, 0, 79, 0
2, 17217, Note_on_c, 0, 88, 0
2, 17220, Note_on_c, 0, 77, 39
2, 17220, Note_on_c, 0, 81, 46
2, 17221, Note_on_c, 0, 69, 57
2, 17221, Note_on_c, 0, 72, 57
2, 17247, Note_on_c, 0, 81, 0
2, 17247, Note_on_c, 0, 77, 0
2, 17250, Note_on_c, 0, 77, 43
2, 17250, Note_on_c, 0, 86, 37
2, 17260, Note_on_c, 0, 72, 0
2, 17260, Note_on_c, 0, 69, 0
2, 17277, Note_on_c, 0, 86, 0
2, 17277, Note_on_c, 0, 77, 0
2, 17279, Control_c, 0, 64, 127
2, 17280, Note_on_c, 0, 77, 43
2, 17280, Note_on_c, 0, 79, 44
2, 17281, Note_on_c, 0, 71, 57
2, 17281, Note_on_c, 0, 74, 57
2, 17307, Note_on_c, 0, 79, 0
2, 17307, Note_on_c, 0, 77, 0
2, 17310, Note_on_c, 0, 77, 43
2, 17310, Note_on_c, 0, 86, 45
2, 17321, Note_on_c, 0, 60, 0
2, 17329, Note_on_c, 0, 74, 0
2, 17337, Note_on_c, 0, 86, 0
2, 17337, Note_on_c, 0, 77, 0
2, 17340, Note_on_c, 0, 79, 48
2, 17340, Note_on_c, 0, 77, 42
2, 17341, Note_on_c, 0, 60, 59
2, 17346, Note_on_c, 0, 71, 0
2, 17367, Note_on_c, 0, 79, 0
2, 17367, Note_on_c, 0, 77, 0
2, 17370, Note_on_c, 0, 77, 42
2, 17370, Note_on_c, 0, 86, 42
2, 17397, Note_on_c, 0, 86, 0
2, 17397, Note_on_c, 0, 77, 0
2, 17400, Note_on_c, 0, 77, 42
2, 17400, Note_on_c, 0, 81, 46
2, 17401, Note_on_c, 0, 69, 56
2, 17401, Note_on_c, 0, 72, 56
2, 17404, Control_c, 0, 64, 0
2, 17427, Note_on_c, 0, 81, 0
2, 17427, Note_on_c, 0, 77, 0
2, 17430, Note_on_c, 0, 86, 43
2, 17430, Note_on_c, 0, 77, 45
2, 17440, Note_on_c, 0, 69, 0
2, 17443, Note_on_c, 0, 72, 0
2, 17456, Control_c, 0, 64, 127
2, 17457, Note_on_c, 0, 77, 0
2, 17457, Note_on_c, 0, 86, 0
2, 17460, Note_on_c, 0, 77, 45
2, 17460, Note_on_c, 0, 79, 48
2, 17461, Note_on_c, 0, 71, 56
2, 17462, Note_on_c, 0, 74, 56
2, 17487, Note_on_c, 0, 79, 0
2, 17487, Note_on_c, 0, 77, 0
2, 17490, Note_on_c, 0, 86, 42
2, 17490, Note_on_c, 0, 77, 37
2, 17507, Note_on_c, 0, 74, 0
2, 17508, Note_on_c, 0, 60, 0
2, 17515, Note_on_c, 0, 71, 0
2, 17517, Note_on_c, 0, 77, 0
2, 17517, Note_on_c, 0, 86, 0
2, 17520, Note_on_c, 0, 79, 44
2, 17520, Note_on_c, 0, 77, 39
2, 17522, Note_on_c, 0, 60, 56
2, 17547, Note_on_c, 0, 77, 0
2, 17547, Note_on_c, 0, 79, 0
2, 17550, Note_on_c, 0, 77, 47
2, 17550, Note_on_c, 0, 88, 49
2, 17577, Note_on_c, 0, 88, 0
2, 17577, Note_on_c, 0, 77, 0
2, 17580, Note_on_c, 0, 79, 43
2, 17580, Note_on_c, 0, 77, 34
2, 17582, Note_on_c, 0, 67, 56
2, 17583, Note_on_c, 0, 71, 56
2, 17607, Note_on_c, 0, 77, 0
2, 17607, Note_on_c, 0, 79, 0
2, 17610, Note_on_c, 0, 77, 45
2, 17610, Note_on_c, 0, 86, 46
2, 17616, Note_on_c, 0, 71, 0
2, 17618, Note_on_c, 0, 60, 0
2, 17620, Note_on_c, 0, 67, 0
2, 17637, Note_on_c, 0, 86, 0
2, 17637, Note_on_c, 0, 77, 0
2, 17640, Note_on_c, 0, 76, 48
2, 17640, Note_on_c, 0, 79, 45
2, 17640, Note_on_c, 0, 60, 64
2, 17641, Note_on_c, 0, 72, 58
2, 17643, Control_c, 0, 64, 0
2, 17667, Note_on_c, 0, 79, 0
2, 17667, Note_on_c, 0, 76, 0
2, 17670, Note_on_c, 0, 76, 47
2, 17670, Note_on_c, 0, 84, 48
2, 17675, Note_on_c, 0, 72, 0
2, 17677, Note_on_c, 0, 60, 0
2, 17697, Note_on_c, 0, 76, 0
2, 17697, Note_on_c, 0, 84, 0
2, 17699, Note_on_c, 0, 54, 68
2, 17699, Note_on_c, 0, 66, 73
2, 17700, Note_on_c, 0, 75, 48
2, 17700, Note_on_c, 0, 80, 47
2, 17712, Control_c, 0, 64, 127
2, 17727, Note_on_c, 0, 80, 0
2, 17727, Note_on_c, 0, 75, 0
2, 17730, Note_on_c, 0, 84, 47
2, 17730, Note_on_c, 0, 75, 43
2, 17755, Note_on_c, 0, 54, 0
2, 17757, Note_on_c, 0, 75, 0
2, 17757, Note_on_c, 0, 84, 0
2, 17758, Note_on_c, 0, 66, 0
2, 17759, Note_on_c, 0, 55, 68
2, 17759, Note_on_c, 0, 67, 72
2, 17760, Note_on_c, 0, 74, 45
2, 17760, Note_on_c, 0, 79, 51
2, 17761, Control_c, 0, 64, 0
2, 17787, Note_on_c, 0, 79, 0
2, 17787, Note_on_c, 0, 74, 0
2, 17790, Note_on_c, 0, 74, 45
2, 17790, Note_on_c, 0, 83, 57
2, 17799, Note_on_c, 0, 67, 0
2, 17802, Note_on_c, 0, 55, 0
2, 17817, Note_on_c, 0, 74, 0
2, 17817, Note_on_c, 0, 83, 0
2, 17819, Note_on_c, 0, 63, 72
2, 17819, Control_c, 0, 64, 127
2, 17820, Note_on_c, 0, 73, 40
2, 17820, Note_on_c, 0, 79, 43
2, 17820, Note_on_c, 0, 51, 68
2, 17847, Note_on_c, 0, 79, 0
2, 17847, Note_on_c, 0, 73, 0
2, 17850, Note_on_c, 0, 73, 45
2, 17850, Note_on_c, 0, 82, 40
2, 17863, Note_on_c, 0, 51, 0
2, 17865, Note_on_c, 0, 63, 0
2, 17874, Control_c, 0, 64, 0
2, 17877, Note_on_c, 0, 73, 0
2, 17877, Note_on_c, 0, 82, 0
2, 17879, Note_on_c, 0, 56, 62
2, 17879, Note_on_c, 0, 68, 85
2, 17880, Note_on_c, 0, 72, 44
2, 17880, Note_on_c, 0, 76, 39
2, 17907, Note_on_c, 0, 76, 0
2, 17907, Note_on_c, 0, 72, 0
2, 17910, Note_on_c, 0, 80, 46
2, 17910, Note_on_c, 0, 72, 45
2, 17914, Note_on_c, 0, 68, 0
2, 17914, Note_on_c, 0, 56, 0
2, 17933, Control_c, 0, 64, 127
2, 17937, Note_on_c, 0, 80, 0
2, 17937, Note_on_c, 0, 72, 0
2, 17940, Note_on_c, 0, 70, 42
2, 17940, Note_on_c, 0, 76, 45
2, 17941, Note_on_c, 0, 49, 70
2, 17941, Note_on_c, 0, 61, 75
2, 17967, Note_on_c, 0, 76, 0
2, 17967, Note_on_c, 0, 70, 0
2, 17970, Note_on_c, 0, 70, 42
2, 17970, Note_on_c, 0, 79, 45
2, 17988, Note_on_c, 0, 49, 0
2, 17991, Note_on_c, 0, 61, 0
2, 17993, Control_c, 0, 64, 0
2, 17997, Note_on_c, 0, 70, 0
2, 17997, Note_on_c, 0, 79, 0
2, 17999, Note_on_c, 0, 62, 76
2, 17999, Note_on_c, 0, 50, 64
2, 18000, Note_on_c, 0, 74, 54
2, 18000, Note_on_c, 0, 69, 44
2, 18027, Note_on_c, 0, 69, 0
2, 18027, Note_on_c, 0, 74, 0
2, 18030, Note_on_c, 0, 78, 52
2, 18030, Note_on_c, 0, 69, 42
2, 18034, Note_on_c, 0, 50, 0
2, 18034, Note_on_c, 0, 62, 0
2, 18056, Control_c, 0, 64, 127
2, 18057, Note_on_c, 0, 78, 0
2, 18057, Note_on_c, 0, 69, 0
2, 18060, Note_on_c, 0, 68, 33
2, 18060, Note_on_c, 0, 74, 48
2, 18061, Note_on_c, 0, 59, 68
2, 18061, Note_on_c, 0, 47, 73
2, 18087, Note_on_c, 0, 74, 0
2, 18087, Note_on_c, 0, 68, 0
2, 18090, Note_on_c, 0, 68, 47
2, 18090, Note_on_c, 0, 77, 49
2, 18110, Note_on_c, 0, 59, 0
2, 18112, Note_on_c, 0, 47, 0
2, 18113, Control_c, 0, 64, 0
2, 18117, Note_on_c, 0, 68, 0
2, 18117, Note_on_c, 0, 77, 0
2, 18120, Note_on_c, 0, 67, 45
2, 18120, Note_on_c, 0, 72, 54
2, 18121, Note_on_c, 0, 48, 62
2, 18121, Note_on_c, 0, 60, 67
2, 18147, Note_on_c, 0, 72, 0
2, 18147, Note_on_c, 0, 67, 0
2, 18150, Note_on_c, 0, 76, 45
2, 18150, Note_on_c, 0, 67, 41
2, 18153, Note_on_c, 0, 60, 0
2, 18161, Note_on_c, 0, 48, 0
2, 18177, Note_on_c, 0, 76, 0
2, 18177, Note_on_c, 0, 67, 0
2, 18178, Control_c, 0, 64, 127
2, 18179, Note_on_c, 0, 56, 68
2, 18180, Note_on_c, 0, 72, 51
2, 18180, Note_on_c, 0, 68, 36
2, 18180, Note_on_c, 0, 44, 77
2, 18207, Note_on_c, 0, 68, 0
2, 18207, Note_on_c, 0, 72, 0
2, 18210, Note_on_c, 0, 75, 58
2, 18210, Note_on_c, 0, 68, 41
2, 18223, Note_on_c, 0, 56, 0
2, 18237, Note_on_c, 0, 68, 0
2, 18237, Note_on_c, 0, 75, 0
2, 18237, Control_c, 0, 64, 0
2, 18240, Note_on_c, 0, 69, 44
2, 18240, Note_on_c, 0, 72, 50
2, 18241, Note_on_c, 0, 54, 75
2, 18241, Note_on_c, 0, 42, 73
2, 18247, Note_on_c, 0, 44, 0
2, 18267, Note_on_c, 0, 69, 0
2, 18267, Note_on_c, 0, 72, 0
2, 18270, Note_on_c, 0, 69, 42
2, 18270, Note_on_c, 0, 74, 48
2, 18297, Note_on_c, 0, 74, 0
2, 18297, Note_on_c, 0, 42, 0
2, 18297, Note_on_c, 0, 54, 0
2, 18297, Note_on_c, 0, 69, 0
2, 18297, Control_c, 0, 64, 127
2, 18300, Note_on_c, 0, 65, 39
2, 18300, Note_on_c, 0, 67, 47
2, 18301, Note_on_c, 0, 43, 76
2, 18301, Note_on_c, 0, 55, 71
2, 18327, Note_on_c, 0, 67, 0
2, 18327, Note_on_c, 0, 65, 0
2, 18330, Note_on_c, 0, 65, 40
2, 18330, Note_on_c, 0, 71, 47
2, 18339, Note_on_c, 0, 43, 0
2, 18339, Note_on_c, 0, 55, 0
2, 18354, Control_c, 0, 64, 0
2, 18357, Note_on_c, 0, 65, 0
2, 18357, Note_on_c, 0, 71, 0
2, 18360, Note_on_c, 0, 67, 46
2, 18360, Note_on_c, 0, 64, 39
2, 18361, Note_on_c, 0, 36, 67
2, 18361, Note_on_c, 0, 48, 73
2, 18387, Note_on_c, 0, 64, 0
2, 18387, Note_on_c, 0, 67, 0
2, 18390, Note_on_c, 0, 72, 54
2, 18390, Note_on_c, 0, 64, 45
2, 18392, Note_on_c, 0, 36, 0
2, 18396, Note_on_c, 0, 48, 0
2, 18417, Note_on_c, 0, 72, 0
2, 18417, Note_on_c, 0, 64, 0
2, 18417, Control_c, 0, 64, 127
2, 18420, Note_on_c, 0, 69, 52
2, 18420, Note_on_c, 0, 63, 40
2, 18421, Note_on_c, 0, 54, 81
2, 18422, Note_on_c, 0, 42, 62
2, 18447, Note_on_c, 0, 63, 0
2, 18447, Note_on_c, 0, 69, 0
2, 18450, Note_on_c, 0, 72, 46
2, 18450, Note_on_c, 0, 63, 46
2, 18476, Note_on_c, 0, 42, 0
2, 18476, Control_c, 0, 64, 0
2, 18477, Note_on_c, 0, 63, 0
2, 18477, Note_on_c, 0, 72, 0
2, 18480, Note_on_c, 0, 67, 51
2, 18480, Note_on_c, 0, 62, 45
2, 18481, Note_on_c, 0, 43, 66
2, 18481, Note_on_c, 0, 55, 69
2, 18483, Note_on_c, 0, 54, 0
2, 18507, Note_on_c, 0, 67, 0
2, 18507, Note_on_c, 0, 62, 0
2, 18510, Note_on_c, 0, 62, 43
2, 18510, Note_on_c, 0, 71, 40
2, 18515, Note_on_c, 0, 55, 0
2, 18517, Note_on_c, 0, 43, 0
2, 18529, Control_c, 0, 64, 127
2, 18537, Note_on_c, 0, 62, 0
2, 18537, Note_on_c, 0, 71, 0
2, 18540, Note_on_c, 0, 61, 43
2, 18540, Note_on_c, 0, 67, 60
2, 18541, Note_on_c, 0, 39, 73
2, 18541, Note_on_c, 0, 51, 81
2, 18567, Note_on_c, 0, 67, 0
2, 18567, Note_on_c, 0, 61, 0
2, 18570, Note_on_c, 0, 70, 55
2, 18570, Note_on_c, 0, 61, 53
2, 18577, Note_on_c, 0, 39, 0
2, 18579, Note_on_c, 0, 51, 0
2, 18597, Note_on_c, 0, 70, 0
2, 18597, Note_on_c, 0, 61, 0
2, 18598, Control_c, 0, 64, 0
2, 18600, Note_on_c, 0, 64, 45
2, 18600, Note_on_c, 0, 60, 42
2, 18601, Note_on_c, 0, 44, 66
2, 18601, Note_on_c, 0, 56, 85
2, 18627, Note_on_c, 0, 60, 0
2, 18627, Note_on_c, 0, 64, 0
2, 18630, Note_on_c, 0, 68, 53
2, 18630, Note_on_c, 0, 60, 48
2, 18645, Note_on_c, 0, 44, 0
2, 18646, Note_on_c, 0, 56, 0
2, 18652, Control_c, 0, 64, 127
2, 18657, Note_on_c, 0, 68, 0
2, 18657, Note_on_c, 0, 60, 0
2, 18660, Note_on_c, 0, 64, 51
2, 18660, Note_on_c, 0, 58, 46
2, 18661, Note_on_c, 0, 37, 62
2, 18662, Note_on_c, 0, 49, 81
2, 18687, Note_on_c, 0, 58, 0
2, 18687, Note_on_c, 0, 64, 0
2, 18690, Note_on_c, 0, 58, 52
2, 18690, Note_on_c, 0, 67, 49
2, 18711, Control_c, 0, 64, 0
2, 18713, Note_on_c, 0, 37, 0
2, 18717, Note_on_c, 0, 67, 0
2, 18717, Note_on_c, 0, 58, 0
2, 18719, Note_on_c, 0, 49, 0
2, 18720, Note_on_c, 0, 62, 45
2, 18720, Note_on_c, 0, 57, 45
2, 18721, Note_on_c, 0, 38, 58
2, 18721, Note_on_c, 0, 50, 83
2, 18747, Note_on_c, 0, 57, 0
2, 18747, Note_on_c, 0, 62, 0
2, 18750, Note_on_c, 0, 66, 54
2, 18750, Note_on_c, 0, 57, 47
2, 18753, Note_on_c, 0, 50, 0
2, 18755, Note_on_c, 0, 38, 0
2, 18767, Control_c, 0, 64, 127
2, 18777, Note_on_c, 0, 66, 0
2, 18777, Note_on_c, 0, 57, 0
2, 18779, Note_on_c, 0, 35, 73
2, 18779, Note_on_c, 0, 47, 82
2, 18780, Note_on_c, 0, 62, 56
2, 18780, Note_on_c, 0, 56, 50
2, 18807, Note_on_c, 0, 56, 0
2, 18807, Note_on_c, 0, 62, 0
2, 18810, Note_on_c, 0, 56, 56
2, 18810, Note_on_c, 0, 65, 56
2, 18830, Note_on_c, 0, 47, 0
2, 18830, Control_c, 0, 64, 0
2, 18835, Note_on_c, 0, 35, 0
2, 18837, Note_on_c, 0, 56, 0
2, 18837, Note_on_c, 0, 65, 0
2, 18840, Note_on_c, 0, 60, 55
2, 18840, Note_on_c, 0, 55, 49
2, 18841, Note_on_c, 0, 36, 77
2, 18841, Note_on_c, 0, 48, 83
2, 18867, Note_on_c, 0, 55, 0
2, 18867, Note_on_c, 0, 60, 0
2, 18870, Note_on_c, 0, 55, 50
2, 18870, Note_on_c, 0, 64, 53
2, 18873, Note_on_c, 0, 48, 0
2, 18888, Note_on_c, 0, 36, 0
2, 18888, Control_c, 0, 64, 127
2, 18897, Note_on_c, 0, 55, 0
2, 18897, Note_on_c, 0, 64, 0
2, 18900, Note_on_c, 0, 56, 50
2, 18900, Note_on_c, 0, 60, 45
2, 18901, Note_on_c, 0, 44, 82
2, 18901, Note_on_c, 0, 32, 78
2, 18927, Note_on_c, 0, 60, 0
2, 18927, Note_on_c, 0, 56, 0
2, 18930, Note_on_c, 0, 56, 47
2, 18930, Note_on_c, 0, 63, 46
2, 18946, Note_on_c, 0, 44, 0
2, 18955, Control_c, 0, 64, 0
2, 18957, Note_on_c, 0, 63, 0
2, 18957, Note_on_c, 0, 56, 0
2, 18960, Note_on_c, 0, 60, 53
2, 18960, Note_on_c, 0, 57, 47
2, 18961, Note_on_c, 0, 42, 75
2, 18961, Note_on_c, 0, 30, 69
2, 18964, Note_on_c, 0, 32, 0
2, 18987, Note_on_c, 0, 60, 0
2, 18987, Note_on_c, 0, 57, 0
2, 18990, Note_on_c, 0, 57, 48
2, 18990, Note_on_c, 0, 62, 43
2, 19017, Note_on_c, 0, 62, 0
2, 19017, Note_on_c, 0, 57, 0
2, 19020, Note_on_c, 0, 30, 0
2, 19020, Note_on_c, 0, 53, 46
2, 19020, Note_on_c, 0, 55, 51
2, 19021, Note_on_c, 0, 31, 68
2, 19022, Note_on_c, 0, 43, 74
2, 19027, Note_on_c, 0, 42, 0
2, 19047, Note_on_c, 0, 53, 0
2, 19047, Note_on_c, 0, 55, 0
2, 19050, Note_on_c, 0, 59, 51
2, 19050, Note_on_c, 0, 53, 45
2, 19069, Note_on_c, 0, 31, 0
2, 19071, Note_on_c, 0, 43, 0
2, 19077, Note_on_c, 0, 59, 0
2, 19077, Note_on_c, 0, 53, 0
2, 19080, Note_on_c, 0, 55, 60
2, 19080, Note_on_c, 0, 52, 58
2, 19081, Note_on_c, 0, 43, 81
2, 19081, Note_on_c, 0, 36, 81
2, 19081, Control_c, 0, 64, 127
2, 19107, Note_on_c, 0, 52, 0
2, 19107, Note_on_c, 0, 55, 0
2, 19110, Note_on_c, 0, 60, 68
2, 19110, Note_on_c, 0, 52, 61
2, 19133, Control_c, 0, 64, 0
2, 19137, Note_on_c, 0, 52, 0
2, 19137, Note_on_c, 0, 60, 0
2, 19140, Note_on_c, 0, 53, 60
2, 19140, Note_on_c, 0, 57, 63
2, 19167, Note_on_c, 0, 57, 0
2, 19167, Note_on_c, 0, 53, 0
2, 19170, Note_on_c, 0, 62, 66
2, 19170, Note_on_c, 0, 53, 59
2, 19195, Note_on_c, 0, 36, 0
2, 19197, Note_on_c, 0, 53, 0
2, 19197, Note_on_c, 0, 62, 0
2, 19199, Note_on_c, 0, 43, 0
2, 19200, Note_on_c, 0, 59, 64
2, 19200, Note_on_c, 0, 55, 54
2, 19227, Note_on_c, 0, 55, 0
2, 19227, Note_on_c, 0, 59, 0
2, 19230, Note_on_c, 0, 64, 61
2, 19230, Note_on_c, 0, 55, 59
2, 19257, Note_on_c, 0, 55, 0
2, 19257, Note_on_c, 0, 64, 0
2, 19259, Control_c, 0, 64, 127
2, 19260, Note_on_c, 0, 60, 55
2, 19260, Note_on_c, 0, 57, 50
2, 19287, Note_on_c, 0, 57, 0
2, 19287, Note_on_c, 0, 60, 0
2, 19290, Note_on_c, 0, 65, 74
2, 19290, Note_on_c, 0, 57, 68
2, 19317, Note_on_c, 0, 57, 0
2, 19317, Note_on_c, 0, 65, 0
2, 19320, Note_on_c, 0, 57, 51
2, 19320, Note_on_c, 0, 53, 48
2, 19347, Note_on_c, 0, 53, 0
2, 19347, Note_on_c, 0, 57, 0
2, 19350, Note_on_c, 0, 53, 59
2, 19350, Note_on_c, 0, 62, 64
2, 19355, Control_c, 0, 64, 0
2, 19377, Note_on_c, 0, 62, 0
2, 19377, Note_on_c, 0, 53, 0
2, 19379, Note_on_c, 0, 31, 73
2, 19379, Note_on_c, 0, 43, 73
2, 19380, Note_on_c, 0, 59, 62
2, 19380, Note_on_c, 0, 55, 52
2, 19407, Note_on_c, 0, 55, 0
2, 19407, Note_on_c, 0, 59, 0
2, 19410, Note_on_c, 0, 64, 55
2, 19410, Note_on_c, 0, 55, 54
2, 19425, Note_on_c, 0, 43, 0
2, 19431, Note_on_c, 0, 31, 0
2, 19437, Note_on_c, 0, 64, 0
2, 19437, Note_on_c, 0, 55, 0
2, 19439, Note_on_c, 0, 43, 73
2, 19439, Note_on_c, 0, 36, 82
2, 19440, Note_on_c, 0, 55, 58
2, 19440, Note_on_c, 0, 52, 52
2, 19441, Control_c, 0, 64, 127
2, 19467, Note_on_c, 0, 52, 0
2, 19467, Note_on_c, 0, 55, 0
2, 19470, Note_on_c, 0, 60, 70
2, 19470, Note_on_c, 0, 52, 58
2, 19497, Note_on_c, 0, 52, 0
2, 19497, Note_on_c, 0, 60, 0
2, 19500, Note_on_c, 0, 53, 54
2, 19500, Note_on_c, 0, 57, 60
2, 19501, Control_c, 0, 64, 0
2, 19527, Note_on_c, 0, 57, 0
2, 19527, Note_on_c, 0, 53, 0
2, 19530, Note_on_c, 0, 53, 56
2, 19530, Note_on_c, 0, 62, 62
2, 19551, Note_on_c, 0, 43, 0
2, 19554, Note_on_c, 0, 36, 0
2, 19557, Note_on_c, 0, 53, 0
2, 19557, Note_on_c, 0, 62, 0
2, 19560, Note_on_c, 0, 55, 51
2, 19560, Note_on_c, 0, 59, 60
2, 19587, Note_on_c, 0, 59, 0
2, 19587, Note_on_c, 0, 55, 0
2, 19590, Note_on_c, 0, 55, 61
2, 19590, Note_on_c, 0, 64, 61
2, 19617, Note_on_c, 0, 64, 0
2, 19617, Note_on_c, 0, 55, 0
2, 19620, Note_on_c, 0, 60, 55
2, 19620, Note_on_c, 0, 57, 45
2, 19621, Control_c, 0, 64, 127
2, 19647, Note_on_c, 0, 57, 0
2, 19647, Note_on_c, 0, 60, 0
2, 19650, Note_on_c, 0, 57, 69
2, 19650, Note_on_c, 0, 65, 73
2, 19677, Note_on_c, 0, 65, 0
2, 19677, Note_on_c, 0, 57, 0
2, 19680, Note_on_c, 0, 57, 50
2, 19680, Note_on_c, 0, 53, 45
2, 19707, Note_on_c, 0, 53, 0
2, 19707, Note_on_c, 0, 57, 0
2, 19710, Note_on_c, 0, 62, 68
2, 19710, Note_on_c, 0, 53, 68
2, 19724, Control_c, 0, 64, 0
2, 19737, Note_on_c, 0, 53, 0
2, 19737, Note_on_c, 0, 62, 0
2, 19740, Note_on_c, 0, 59, 56
2, 19740, Note_on_c, 0, 55, 49
2, 19740, Note_on_c, 0, 31, 84
2, 19741, Note_on_c, 0, 43, 75
2, 19767, Note_on_c, 0, 55, 0
2, 19767, Note_on_c, 0, 59, 0
2, 19770, Note_on_c, 0, 55, 51
2, 19770, Note_on_c, 0, 64, 48
2, 19789, Note_on_c, 0, 43, 0
2, 19791, Note_on_c, 0, 31, 0
2, 19797, Note_on_c, 0, 55, 0
2, 19797, Note_on_c, 0, 64, 0
2, 19800, Note_on_c, 0, 55, 48
2, 19800, Note_on_c, 0, 52, 43
2, 19801, Note_on_c, 0, 43, 75
2, 19801, Note_on_c, 0, 36, 84
2, 19812, Control_c, 0, 64, 127
2, 19827, Note_on_c, 0, 52, 0
2, 19827, Note_on_c, 0, 55, 0
2, 19830, Note_on_c, 0, 52, 54
2, 19830, Note_on_c, 0, 60, 70
2, 19845, Note_on_c, 0, 36, 0
2, 19846, Note_on_c, 0, 43, 0
2, 19857, Note_on_c, 0, 52, 0
2, 19857, Note_on_c, 0, 60, 0
2, 19860, Note_on_c, 0, 55, 57
2, 19860, Note_on_c, 0, 53, 49
2, 19861, Note_on_c, 0, 43, 72
2, 19861, Note_on_c, 0, 35, 80
2, 19862, Control_c, 0, 64, 0
2, 19887, Note_on_c, 0, 53, 0
2, 19887, Note_on_c, 0, 55, 0
2, 19890, Note_on_c, 0, 62, 65
2, 19890, Note_on_c, 0, 53, 50
2, 19903, Note_on_c, 0, 35, 0
2, 19904, Note_on_c, 0, 43, 0
2, 19917, Note_on_c, 0, 62, 0
2, 19917, Note_on_c, 0, 53, 0
2, 19919, Note_on_c, 0, 43, 70
2, 19919, Note_on_c, 0, 36, 79
2, 19920, Note_on_c, 0, 52, 51
2, 19920, Note_on_c, 0, 55, 57
2, 19947, Note_on_c, 0, 55, 0
2, 19947, Note_on_c, 0, 52, 0
2, 19950, Note_on_c, 0, 60, 68
2, 19950, Note_on_c, 0, 52, 57
2, 19962, Note_on_c, 0, 36, 0
2, 19963, Note_on_c, 0, 43, 0
2, 19977, Note_on_c, 0, 60, 0
2, 19977, Note_on_c, 0, 52, 0
2, 19979, Note_on_c, 0, 43, 74
2, 19979, Note_on_c, 0, 35, 83
2, 19980, Note_on_c, 0, 53, 55
2, 19980, Note_on_c, 0, 55, 59
2, 19990, Control_c, 0, 64, 127
2, 20007, Note_on_c, 0, 55, 0
2, 20007, Note_on_c, 0, 53, 0
2, 20010, Note_on_c, 0, 62, 68
2, 20010, Note_on_c, 0, 53, 63
2, 20024, Note_on_c, 0, 35, 0
2, 20025, Note_on_c, 0, 43, 0
2, 20037, Note_on_c, 0, 62, 0
2, 20037, Note_on_c, 0, 53, 0
2, 20040, Note_on_c, 0, 55, 54
2, 20040, Note_on_c, 0, 52, 37
2, 20040, Note_on_c, 0, 43, 66
2, 20040, Note_on_c, 0, 36, 74
2, 20045, Control_c, 0, 64, 0
2, 20067, Note_on_c, 0, 52, 0
2, 20067, Note_on_c, 0, 55, 0
2, 20070, Note_on_c, 0, 52, 51
2, 20070, Note_on_c, 0, 60, 64
2, 20083, Note_on_c, 0, 43, 0
2, 20083, Note_on_c, 0, 36, 0
2, 20097, Note_on_c, 0, 52, 0
2, 20097, Note_on_c, 0, 60, 0
2, 20099, Note_on_c, 0, 43, 69
2, 20100, Note_on_c, 0, 55, 55
2, 20100, Note_on_c, 0, 53, 44
2, 20100, Note_on_c, 0, 35, 78
2, 20127, Note_on_c, 0, 53, 0
2, 20127, Note_on_c, 0, 55, 0
2, 20130, Note_on_c, 0, 53, 56
2, 20130, Note_on_c, 0, 62, 64
2, 20142, Note_on_c, 0, 43, 0
2, 20142, Note_on_c, 0, 35, 0
2, 20157, Note_on_c, 0, 53, 0
2, 20157, Note_on_c, 0, 62, 0
2, 20160, Note_on_c, 0, 52, 43
2, 20160, Note_on_c, 0, 55, 54
2, 20161, Note_on_c, 0, 43, 73
2, 20161, Note_on_c, 0, 36, 82
2, 20166, Control_c, 0, 64, 127
2, 20187, Note_on_c, 0, 55, 0
2, 20187, Note_on_c, 0, 52, 0
2, 20190, Note_on_c, 0, 60, 71
2, 20190, Note_on_c, 0, 52, 60
2, 20203, Note_on_c, 0, 36, 0
2, 20204, Note_on_c, 0, 43, 0
2, 20217, Note_on_c, 0, 60, 0
2, 20217, Note_on_c, 0, 52, 0
2, 20220, Note_on_c, 0, 53, 45
2, 20220, Note_on_c, 0, 55, 52
2, 20220, Note_on_c, 0, 43, 74
2, 20220, Note_on_c, 0, 35, 83
2, 20225, Control_c, 0, 64, 0
2, 20247, Note_on_c, 0, 55, 0
2, 20247, Note_on_c, 0, 53, 0
2, 20250, Note_on_c, 0, 53, 50
2, 20250, Note_on_c, 0, 62, 65
2, 20264, Note_on_c, 0, 43, 0
2, 20264, Note_on_c, 0, 35, 0
2, 20277, Note_on_c, 0, 53, 0
2, 20277, Note_on_c, 0, 62, 0
2, 20279, Note_on_c, 0, 43, 73
2, 20279, Note_on_c, 0, 36, 82
2, 20280, Note_on_c, 0, 52, 45
2, 20280, Note_on_c, 0, 55, 58
2, 20307, Note_on_c, 0, 55, 0
2, 20307, Note_on_c, 0, 52, 0
2, 20310, Note_on_c, 0, 52, 43
2, 20310, Note_on_c, 0, 60, 63
2, 20326, Note_on_c, 0, 36, 0
2, 20326, Note_on_c, 0, 43, 0
2, 20337, Note_on_c, 0, 52, 0
2, 20337, Note_on_c, 0, 60, 0
2, 20339, Note_on_c, 0, 43, 69
2, 20340, Note_on_c, 0, 53, 46
2, 20340, Note_on_c, 0, 55, 54
2, 20340, Note_on_c, 0, 35, 79
2, 20348, Control_c, 0, 64, 127
2, 20367, Note_on_c, 0, 55, 0
2, 20367, Note_on_c, 0, 53, 0
2, 20370, Note_on_c, 0, 53, 63
2, 20370, Note_on_c, 0, 62, 69
2, 20387, Note_on_c, 0, 35, 0
2, 20388, Note_on_c, 0, 43, 0
2, 20397, Note_on_c, 0, 53, 0
2, 20397, Note_on_c, 0, 62, 0
2, 20400, Note_on_c, 0, 52, 39
2, 20400, Note_on_c, 0, 55, 51
2, 20401, Note_on_c, 0, 43, 76
2, 20401, Note_on_c, 0, 36, 85
2, 20402, Control_c, 0, 64, 0
2, 20427, Note_on_c, 0, 55, 0
2, 20427, Note_on_c, 0, 52, 0
2, 20430, Note_on_c, 0, 52, 49
2, 20430, Note_on_c, 0, 60, 65
2, 20447, Note_on_c, 0, 36, 0
2, 20448, Note_on_c, 0, 43, 0
2, 20457, Note_on_c, 0, 52, 0
2, 20457, Note_on_c, 0, 60, 0
2, 20460, Note_on_c, 0, 55, 56
2, 20460, Note_on_c, 0, 53, 49
2, 20461, Note_on_c, 0, 43, 73
2, 20461, Note_on_c, 0, 35, 81
2, 20487, Note_on_c, 0, 53, 0
2, 20487, Note_on_c, 0, 55, 0
2, 20490, Note_on_c, 0, 53, 42
2, 20490, Note_on_c, 0, 62, 60
2, 20501, Note_on_c, 0, 43, 0
2, 20502, Note_on_c, 0, 35, 0
2, 20517, Note_on_c, 0, 53, 0
2, 20517, Note_on_c, 0, 62, 0
2, 20520, Note_on_c, 0, 60, 71
2, 20520, Note_on_c, 0, 52, 68
2, 20521, Note_on_c, 0, 36, 88
2, 20521, Note_on_c, 0, 43, 79
2, 20526, Control_c, 0, 64, 127
2, 20559, Note_on_c, 0, 52, 0
2, 20559, Note_on_c, 0, 60, 0
2, 20580, Note_on_c, 0, 60, 64
2, 20580, Note_on_c, 0, 52, 56
2, 20607, Note_on_c, 0, 52, 0
2, 20607, Note_on_c, 0, 60, 0
2, 20610, Note_on_c, 0, 52, 56
2, 20637, Note_on_c, 0, 52, 0
2, 20640, Note_on_c, 0, 64, 65
2, 20640, Note_on_c, 0, 55, 55
2, 20667, Note_on_c, 0, 55, 0
2, 20667, Note_on_c, 0, 64, 0
2, 20670, Note_on_c, 0, 55, 52
2, 20697, Note_on_c, 0, 55, 0
2, 20700, Note_on_c, 0, 67, 66
2, 20700, Note_on_c, 0, 60, 55
2, 20727, Note_on_c, 0, 60, 0
2, 20727, Note_on_c, 0, 67, 0
2, 20730, Note_on_c, 0, 60, 49
2, 20757, Note_on_c, 0, 60, 0
2, 20760, Note_on_c, 0, 72, 68
2, 20760, Note_on_c, 0, 64, 52
2, 20787, Note_on_c, 0, 64, 0
2, 20787, Note_on_c, 0, 72, 0
2, 20790, Note_on_c, 0, 64, 52
2, 20817, Note_on_c, 0, 64, 0
2, 20817, Note_on_c, 0, 43, 0
2, 20818, Note_on_c, 0, 36, 0
2, 20820, Note_on_c, 0, 67, 56
2, 20820, Note_on_c, 0, 76, 65
2, 20847, Note_on_c, 0, 76, 0
2, 20847, Note_on_c, 0, 67, 0
2, 20850, Note_on_c, 0, 67, 55
2, 20862, Note_on_c, 0, 48, 74
2, 20873, Note_on_c, 0, 55, 72
2, 20876, Note_on_c, 0, 48, 0
2, 20877, Note_on_c, 0, 67, 0
2, 20880, Note_on_c, 0, 79, 63
2, 20880, Note_on_c, 0, 72, 55
2, 20882, Note_on_c, 0, 64, 80
2, 20907, Note_on_c, 0, 72, 0
2, 20907, Note_on_c, 0, 79, 0
2, 20910, Note_on_c, 0, 72, 57
2, 20937, Note_on_c, 0, 72, 0
2, 20940, Note_on_c, 0, 84, 68
2, 20940, Note_on_c, 0, 76, 59
2, 20967, Note_on_c, 0, 76, 0
2, 20967, Note_on_c, 0, 84, 0
2, 20970, Note_on_c, 0, 76, 62
2, 20997, Note_on_c, 0, 76, 0
2, 21000, Note_on_c, 0, 88, 69
2, 21000, Note_on_c, 0, 79, 61
2, 21027, Note_on_c, 0, 79, 0
2, 21027, Note_on_c, 0, 88, 0
2, 21030, Note_on_c, 0, 79, 62
2, 21057, Note_on_c, 0, 79, 0
2, 21060, Note_on_c, 0, 91, 73
2, 21060, Note_on_c, 0, 84, 64
2, 21087, Note_on_c, 0, 84, 0
2, 21087, Note_on_c, 0, 91, 0
2, 21090, Note_on_c, 0, 84, 66
2, 21094, Note_on_c, 0, 55, 0
2, 21095, Note_on_c, 0, 64, 0
2, 21117, Note_on_c, 0, 84, 0
2, 21120, Note_on_c, 0, 96, 69
2, 21120, Note_on_c, 0, 88, 69
2, 21147, Note_on_c, 0, 88, 0
2, 21147, Note_on_c, 0, 96, 0
2, 21150, Note_on_c, 0, 88, 72
2, 21177, Note_on_c, 0, 88, 0
2, 21180, Note_on_c, 0, 100, 72
2, 21180, Note_on_c, 0, 91, 72
2, 21207, Note_on_c, 0, 91, 0
2, 21207, Note_on_c, 0, 100, 0
2, 21242, Note_on_c, 0, 100, 74
2, 21244, Note_on_c, 0, 91, 75
2, 21261, Note_on_c, 0, 100, 0
2, 21265, Note_on_c, 0, 60, 74
2, 21273, Note_on_c, 0, 67, 66
2, 21275, Note_on_c, 0, 84, 83
2, 21278, Note_on_c, 0, 60, 0
2, 21284, Note_on_c, 0, 91, 0
2, 21286, Note_on_c, 0, 76, 68
2, 21298, Note_on_c, 0, 67, 0
2, 21298, Note_on_c, 0, 84, 0
2, 21300, Note_on_c, 0, 76, 0
2, 21479, Note_on_c, 0, 60, 72
2, 21479, Note_on_c, 0, 88, 82
2, 21479, Note_on_c, 0, 84, 70
2, 21479, Note_on_c, 0, 76, 76
2, 21481, Note_on_c, 0, 79, 62
2, 21481, Note_on_c, 0, 67, 69
2, 21481, Note_on_c, 0, 72, 70
2, 21592, Note_on_c, 0, 72, 0
2, 21594, Note_on_c, 0, 76, 0
2, 21594, Note_on_c, 0, 67, 0
2, 21596, Note_on_c, 0, 79, 0
2, 21598, Note_on_c, 0, 84, 0
2, 21601, Note_on_c, 0, 88, 0
2, 21601, Note_on_c, 0, 60, 0
2, 21724, Note_on_c, 0, 60, 92
2, 21726, Note_on_c, 0, 36, 90
2, 21728, Note_on_c, 0, 48, 91
2, 22419, Note_on_c, 0, 48, 0
2, 22421, Note_on_c, 0, 60, 0
2, 22426, Note_on_c, 0, 36, 0
2, 22816, Control_c, 0, 64, 0
2, 22816, End_track
3, 0, Start_track
3, 0, MIDI_port, 0
3, 0, Title_t, "in C Major"
3, 0, End_track
4, 0, Start_track
4, 0, MIDI_port, 0
4, 0, Title_t, "Op. 10, No. 7"
4, 0, End_track
5, 0, Start_track
5, 0, MIDI_port, 0
5, 0, Title_t, "Chopin, Frederic"
5, 0, End_track
6, 0, Start_track
6, 0, MIDI_port, 0
6, 0, Title_t, "Sequenced by Anousone Kitisa"
6, 0, End_track
0, 0, End_of_file