0, 0, Header, 1, 18, 120
1, 0, Start_track
1, 0, Time_signature, 4, 2, 24, 8
1, 0, Key_signature, 0, "major"
1, 0, Tempo, 545455
1, 117, Tempo, 594059
1, 246, Tempo, 540541
1, 570, Tempo, 631579
1, 680, Tempo, 535714
1, 1099, Tempo, 576923
1, 1546, Tempo, 560748
1, 2003, Tempo, 606061
1, 2108, Tempo, 588235
1, 2217, Tempo, 512821
1, 2303, Tempo, 566038
1, 2555, Tempo, 606061
1, 2658, Tempo, 566038
1, 2731, Tempo, 594059
1, 2969, Tempo, 566038
1, 3186, Tempo, 600000
1, 3290, Tempo, 625000
1, 3388, Tempo, 582524
1, 3655, Tempo, 612245
1, 3708, Tempo, 566038
1, 4125, Tempo, 571429
1, 4559, Tempo, 566038
1, 5370, Tempo, 638298
1, 5425, Tempo, 550459
1, 7185, Tempo, 566038
1, 8118, Tempo, 566038
1, 8409, Tempo, 588235
1, 8544, Tempo, 566038
1, 8813, Tempo, 582524
1, 8974, Tempo, 566038
1, 9145, Tempo, 606061
1, 9244, Tempo, 618557
1, 9348, Tempo, 566038
1, 9376, Tempo, 631579
1, 9404, Tempo, 566038
1, 9516, Tempo, 594059
1, 9567, Tempo, 625000
1, 9665, Tempo, 612245
1, 9770, Tempo, 550459
1, 10212, Tempo, 560748
1, 11186, Tempo, 588235
1, 11384, Tempo, 550459
1, 12970, Tempo, 631579
1, 13319, Tempo, 560748
1, 13768, Tempo, 659341
1, 13873, Tempo, 560748
1, 14749, Tempo, 566038
1, 15408, Tempo, 600000
1, 15518, Tempo, 555556
1, 16332, Tempo, 588235
1, 16438, Tempo, 560748
1, 17698, Tempo, 512821
1, 17763, Tempo, 555556
1, 19397, Tempo, 530973
1, 21094, Tempo, 625000
1, 21293, Tempo, 530973
1, 21691, Tempo, 550459
1, 22245, Tempo, 645161
1, 22352, Tempo, 566038
1, 23890, Tempo, 540541
1, 24005, Tempo, 582524
1, 24115, Tempo, 560748
1, 24546, Tempo, 600000
1, 24649, Tempo, 555556
1, 25761, Tempo, 550459
1, 25952, Tempo, 495868
1, 25988, Tempo, 555556
1, 26091, Tempo, 612245
1, 26199, Tempo, 550459
1, 27188, Tempo, 618557
1, 27295, Tempo, 560748
1, 27633, Tempo, 588235
1, 27743, Tempo, 560748
1, 28285, Tempo, 600000
1, 28405, Tempo, 566038
1, 28488, Tempo, 571429
1, 28571, Tempo, 576923
1, 28655, Tempo, 582524
1, 28738, Tempo, 588235
1, 28821, Tempo, 594059
1, 28905, Tempo, 600000
1, 28988, Tempo, 606061
1, 29072, Tempo, 612245
1, 29155, Tempo, 618557
1, 29238, Tempo, 625000
1, 29322, Tempo, 631579
1, 29405, Tempo, 638298
1, 29488, Tempo, 645161
1, 29572, Tempo, 652174
1, 29655, Tempo, 659341
1, 29739, Tempo, 666667
1, 29740, Tempo, 631579
1, 31107, Tempo, 560748
1, 31544, Tempo, 571429
1, 31577, Tempo, 560748
1, 31882, Tempo, 588235
1, 32240, Tempo, 631579
1, 32470, Tempo, 681818
1, 32490, Tempo, 674157
1, 32511, Tempo, 666667
1, 32532, Tempo, 659341
1, 32552, Tempo, 652174
1, 32573, Tempo, 645161
1, 32594, Tempo, 638298
1, 32615, Tempo, 631579
1, 32635, Tempo, 625000
1, 32656, Tempo, 618557
1, 32677, Tempo, 612245
1, 32697, Tempo, 606061
1, 32718, Tempo, 600000
1, 32739, Tempo, 594059
1, 32760, Tempo, 588235
1, 32761, Tempo, 588235
1, 35170, Tempo, 600000
1, 35379, Tempo, 582524
1, 36616, Tempo, 571429
1, 37437, Tempo, 625000
1, 37658, Tempo, 571429
1, 39580, Tempo, 625000
1, 39596, Tempo, 666667
1, 39702, Tempo, 560748
1, 43904, Tempo, 545455
1, 44040, Tempo, 560748
1, 45335, Tempo, 582524
1, 45400, Tempo, 576923
1, 45465, Tempo, 571429
1, 45530, Tempo, 566038
1, 45595, Tempo, 560748
1, 45660, Tempo, 555556
1, 45725, Tempo, 550459
1, 45791, Tempo, 545455
1, 45792, Tempo, 550459
1, 46696, Tempo, 555556
1, 46857, Tempo, 582524
1, 46935, Tempo, 530973
1, 47603, Tempo, 555556
1, 47838, Tempo, 545455
1, 48870, Tempo, 545455
1, 52800, Tempo, 500000
1, 53904, Tempo, 521739
1, 59600, Tempo, 689655
1, 59785, Tempo, 555556
1, 64195, Tempo, 560748
1, 64261, Tempo, 545455
1, 64417, Tempo, 535714
1, 70655, Tempo, 526316
1, 70705, Tempo, 500000
1, 70989, Tempo, 472441
1, 71243, Tempo, 476190
1, 71509, Tempo, 461538
1, 71686, Tempo, 480000
1, 75133, Tempo, 472441
1, 75687, Tempo, 480000
1, 77220, Tempo, 508475
1, 77300, Tempo, 857143
1, 77337, Tempo, 476190
1, 77928, Tempo, 487805
1, 82681, Tempo, 508475
1, 82929, Tempo, 566038
1, 83057, Tempo, 526316
1, 83103, Tempo, 521739
1, 83258, Tempo, 476190
1, 85351, Tempo, 500000
1, 85390, Tempo, 454545
1, 89038, Tempo, 454545
1, 89490, Tempo, 447761
1, 90221, Tempo, 444444
1, 90801, Tempo, 441176
1, 91393, Tempo, 444444
1, 91950, Tempo, 444444
1, 92507, Tempo, 441176
1, 93064, Tempo, 437956
1, 93621, Tempo, 434783
1, 94178, Tempo, 431655
1, 94736, Tempo, 428571
1, 94737, Tempo, 437956
1, 94780, Tempo, 697674
1, 102140, Tempo, 714286
1, 102149, Tempo, 722892
1, 102158, Tempo, 731707
1, 102168, Tempo, 740741
1, 102177, Tempo, 750000
1, 102187, Tempo, 759494
1, 102196, Tempo, 769231
1, 102205, Tempo, 779221
1, 102215, Tempo, 789474
1, 102224, Tempo, 800000
1, 102234, Tempo, 810811
1, 102243, Tempo, 821918
1, 102252, Tempo, 833333
1, 102262, Tempo, 845070
1, 102271, Tempo, 857143
1, 102281, Tempo, 869565
1, 102290, Tempo, 882353
1, 102300, Tempo, 895522
1, 102309, Tempo, 909091
1, 102318, Tempo, 923077
1, 102328, Tempo, 937500
1, 102337, Tempo, 952381
1, 102347, Tempo, 967742
1, 102356, Tempo, 983607
1, 102365, Tempo, 1000000
1, 102375, Tempo, 1016949
1, 102384, Tempo, 1034483
1, 102394, Tempo, 1052632
1, 102403, Tempo, 1071429
1, 102412, Tempo, 1090909
1, 102422, Tempo, 1111111
1, 102431, Tempo, 1132075
1, 102441, Tempo, 1153846
1, 102450, Tempo, 1176471
1, 102460, Tempo, 1200000
1, 102461, Tempo, 714286
1, 102750, Tempo, 571429
1, 104002, Tempo, 526316
1, 104667, Tempo, 594059
1, 105013, Tempo, 555556
1, 107242, Tempo, 461538
1, 107382, Tempo, 512821
1, 109203, Tempo, 530973
1, 109506, Tempo, 571429
1, 109550, Tempo, 576923
1, 109610, Tempo, 566038
1, 110281, Tempo, 666667
1, 110419, Tempo, 560748
1, 111411, Tempo, 571429
1, 113557, Tempo, 594059
1, 113952, Tempo, 1200000
1, 114121, Tempo, 645161
1, 114550, Tempo, 472441
1, 121090, Tempo, 465116
1, 123333, Tempo, 465116
1, 126589, Tempo, 447761
1, 130105, Tempo, 441176
1, 132142, Tempo, 500000
1, 135982, Tempo, 504202
1, 137754, Tempo, 576923
1, 139826, Tempo, 576923
1, 140006, Tempo, 550459
1, 140646, Tempo, 576923
1, 140770, Tempo, 545455
1, 141724, Tempo, 512821
1, 142238, Tempo, 540541
1, 142984, Tempo, 545455
1, 145296, Tempo, 526316
1, 151706, Tempo, 500000
1, 152963, Tempo, 468750
1, 155672, Tempo, 468750
1, 157971, Tempo, 491803
1, 163634, Tempo, 545455
1, 163795, Tempo, 480000
1, 166032, Tempo, 472441
1, 173015, Tempo, 483871
1, 175389, Tempo, 476190
1, 176190, Tempo, 468750
1, 176721, Tempo, 458015
1, 178517, Tempo, 483871
1, 180437, Tempo, 530973
1, 180557, Tempo, 491803
1, 181247, Tempo, 487805
1, 181877, Tempo, 495868
1, 182177, Tempo, 512821
1, 182177, End_track
2, 0, Start_track
2, 0, MIDI_port, 0
2, 0, Title_t, "Violins 1&2"
2, 0, Program_c, 0, 48
2, 0, Control_c, 0, 7, 127
2, 0, Control_c, 0, 10, 20
2, 50, Control_c, 0, 121, 0
2, 100, Control_c, 0, 91, 100
2, 100, Control_c, 0, 93, 90
2, 110, Control_c, 0, 11, 80
2, 117, Note_on_c, 0, 77, 60
2, 144, Note_on_c, 0, 77, 0
2, 145, Note_on_c, 0, 68, 60
2, 221, Note_on_c, 0, 70, 65
2, 223, Note_on_c, 0, 68, 0
2, 246, Note_on_c, 0, 70, 0
2, 246, Note_on_c, 0, 72, 70
2, 360, Note_on_c, 0, 68, 30
2, 463, Note_on_c, 0, 67, 30
2, 470, Note_on_c, 0, 68, 0
2, 570, Note_on_c, 0, 66, 30
2, 575, Note_on_c, 0, 67, 0
2, 680, Note_on_c, 0, 70, 80
2, 680, Note_on_c, 0, 65, 30
2, 682, Note_on_c, 0, 72, 0
2, 690, Note_on_c, 0, 66, 0
2, 905, Note_on_c, 0, 68, 60
2, 918, Note_on_c, 0, 70, 0
2, 1014, Note_on_c, 0, 67, 60
2, 1014, Note_on_c, 0, 61, 30
2, 1019, Note_on_c, 0, 68, 0
2, 1020, Note_on_c, 0, 65, 0
2, 1079, Note_on_c, 0, 67, 0
2, 1099, Note_on_c, 0, 67, 70
2, 1119, Note_on_c, 0, 67, 0
2, 1124, Note_on_c, 0, 65, 60
2, 1124, Note_on_c, 0, 60, 30
2, 1134, Note_on_c, 0, 61, 0
2, 1196, Note_on_c, 0, 64, 60
2, 1201, Note_on_c, 0, 65, 0
2, 1223, Note_on_c, 0, 65, 60
2, 1223, Note_on_c, 0, 58, 40
2, 1228, Note_on_c, 0, 64, 0
2, 1230, Note_on_c, 0, 60, 0
2, 1293, Note_on_c, 0, 67, 60
2, 1300, Note_on_c, 0, 65, 0
2, 1323, Note_on_c, 0, 68, 60
2, 1323, Note_on_c, 0, 56, 30
2, 1329, Note_on_c, 0, 67, 0
2, 1333, Note_on_c, 0, 58, 0
2, 1413, Note_on_c, 0, 56, 0
2, 1434, Note_on_c, 0, 65, 60
2, 1434, Note_on_c, 0, 56, 30
2, 1445, Note_on_c, 0, 68, 0
2, 1529, Note_on_c, 0, 56, 0
2, 1529, Note_on_c, 0, 65, 0
2, 1546, Note_on_c, 0, 65, 90
2, 1546, Note_on_c, 0, 56, 30
2, 1780, Note_on_c, 0, 64, 60
2, 1780, Note_on_c, 0, 55, 30
2, 1791, Note_on_c, 0, 56, 0
2, 1791, Note_on_c, 0, 65, 0
2, 1835, Note_on_c, 0, 64, 0
2, 1835, Note_on_c, 0, 55, 0
2, 1860, Note_on_c, 0, 61, 70
2, 1880, Note_on_c, 0, 61, 0
2, 1901, Note_on_c, 0, 55, 85
2, 1977, Note_on_c, 0, 56, 70
2, 1983, Note_on_c, 0, 55, 0
2, 2003, Note_on_c, 0, 58, 65
2, 2012, Note_on_c, 0, 56, 0
2, 2084, Note_on_c, 0, 58, 0
2, 2108, Note_on_c, 0, 77, 120
2, 2108, Note_on_c, 0, 70, 100
2, 2108, Note_on_c, 0, 65, 100
2, 2148, Note_on_c, 0, 65, 0
2, 2148, Note_on_c, 0, 70, 0
2, 2148, Note_on_c, 0, 77, 0
2, 2217, Note_on_c, 0, 76, 120
2, 2217, Note_on_c, 0, 70, 100
2, 2217, Note_on_c, 0, 67, 90
2, 2257, Note_on_c, 0, 67, 0
2, 2257, Note_on_c, 0, 70, 0
2, 2257, Note_on_c, 0, 76, 0
2, 2303, Note_on_c, 0, 61, 70
2, 2327, Note_on_c, 0, 61, 0
2, 2348, Note_on_c, 0, 55, 85
2, 2421, Note_on_c, 0, 56, 70
2, 2425, Note_on_c, 0, 55, 0
2, 2450, Note_on_c, 0, 58, 65
2, 2454, Note_on_c, 0, 56, 0
2, 2528, Note_on_c, 0, 58, 0
2, 2555, Note_on_c, 0, 77, 120
2, 2555, Note_on_c, 0, 82, 100
2, 2555, Note_on_c, 0, 70, 100
2, 2555, Note_on_c, 0, 65, 100
2, 2595, Note_on_c, 0, 65, 0
2, 2595, Note_on_c, 0, 77, 0
2, 2595, Note_on_c, 0, 82, 0
2, 2595, Note_on_c, 0, 70, 0
2, 2658, Note_on_c, 0, 82, 120
2, 2658, Note_on_c, 0, 76, 100
2, 2658, Note_on_c, 0, 70, 100
2, 2658, Note_on_c, 0, 67, 100
2, 2698, Note_on_c, 0, 67, 0
2, 2698, Note_on_c, 0, 82, 0
2, 2698, Note_on_c, 0, 76, 0
2, 2698, Note_on_c, 0, 70, 0
2, 2731, Note_on_c, 0, 70, 105
2, 2752, Note_on_c, 0, 70, 0
2, 2759, Note_on_c, 0, 79, 100
2, 2837, Note_on_c, 0, 77, 100
2, 2841, Note_on_c, 0, 79, 0
2, 2864, Note_on_c, 0, 76, 100
2, 2870, Note_on_c, 0, 77, 0
2, 2934, Note_on_c, 0, 76, 0
2, 2969, Note_on_c, 0, 85, 110
2, 2969, Note_on_c, 0, 79, 90
2, 3050, Note_on_c, 0, 77, 90
2, 3059, Note_on_c, 0, 79, 0
2, 3075, Note_on_c, 0, 77, 0
2, 3077, Note_on_c, 0, 76, 90
2, 3147, Note_on_c, 0, 76, 0
2, 3186, Note_on_c, 0, 84, 100
2, 3186, Note_on_c, 0, 79, 90
2, 3192, Note_on_c, 0, 85, 0
2, 3246, Note_on_c, 0, 79, 0
2, 3246, Note_on_c, 0, 84, 0
2, 3262, Note_on_c, 0, 82, 100
2, 3289, Note_on_c, 0, 82, 0
2, 3290, Note_on_c, 0, 80, 100
2, 3290, Note_on_c, 0, 77, 90
2, 3350, Note_on_c, 0, 77, 0
2, 3350, Note_on_c, 0, 80, 0
2, 3361, Note_on_c, 0, 79, 100
2, 3361, Note_on_c, 0, 76, 80
2, 3388, Note_on_c, 0, 76, 0
2, 3388, Note_on_c, 0, 79, 0
2, 3388, Note_on_c, 0, 77, 100
2, 3488, Note_on_c, 0, 77, 0
2, 3700, Control_c, 0, 11, 60
2, 3708, Control_c, 0, 11, 60
2, 3708, Note_on_c, 0, 65, 60
2, 3806, Control_c, 0, 11, 61
2, 3904, Control_c, 0, 11, 62
2, 3919, Note_on_c, 0, 68, 60
2, 3933, Note_on_c, 0, 65, 0
2, 4002, Control_c, 0, 11, 63
2, 4099, Note_on_c, 0, 68, 0
2, 4100, Control_c, 0, 11, 64
2, 4125, Note_on_c, 0, 67, 60
2, 4198, Control_c, 0, 11, 65
2, 4206, Note_on_c, 0, 70, 60
2, 4213, Note_on_c, 0, 67, 0
2, 4222, Note_on_c, 0, 68, 60
2, 4224, Note_on_c, 0, 70, 0
2, 4296, Control_c, 0, 11, 66
2, 4299, Note_on_c, 0, 68, 0
2, 4300, Note_on_c, 0, 67, 60
2, 4312, Note_on_c, 0, 67, 0
2, 4324, Note_on_c, 0, 67, 60
2, 4388, Note_on_c, 0, 77, 60
2, 4389, Note_on_c, 0, 67, 0
2, 4394, Control_c, 0, 11, 67
2, 4468, Note_on_c, 0, 77, 0
2, 4492, Control_c, 0, 11, 68
2, 4494, Note_on_c, 0, 77, 60
2, 4550, Note_on_c, 0, 77, 0
2, 4559, Note_on_c, 0, 68, 70
2, 4590, Control_c, 0, 11, 69
2, 4688, Control_c, 0, 11, 70
2, 4782, Note_on_c, 0, 69, 75
2, 4786, Control_c, 0, 11, 71
2, 4789, Note_on_c, 0, 68, 0
2, 4884, Control_c, 0, 11, 72
2, 4938, Note_on_c, 0, 70, 80
2, 4944, Note_on_c, 0, 69, 0
2, 4980, Note_on_c, 0, 70, 0
2, 4982, Control_c, 0, 11, 73
2, 4999, Note_on_c, 0, 70, 60
2, 5080, Control_c, 0, 11, 74
2, 5087, Note_on_c, 0, 73, 60
2, 5091, Note_on_c, 0, 70, 0
2, 5099, Note_on_c, 0, 73, 0
2, 5099, Note_on_c, 0, 72, 85
2, 5178, Control_c, 0, 11, 75
2, 5185, Note_on_c, 0, 70, 60
2, 5189, Note_on_c, 0, 72, 0
2, 5203, Note_on_c, 0, 70, 0
2, 5211, Note_on_c, 0, 70, 85
2, 5267, Note_on_c, 0, 77, 80
2, 5268, Note_on_c, 0, 70, 0
2, 5276, Control_c, 0, 11, 76
2, 5347, Note_on_c, 0, 77, 0
2, 5370, Note_on_c, 0, 77, 75
2, 5374, Control_c, 0, 11, 77
2, 5425, Note_on_c, 0, 71, 70
2, 5433, Note_on_c, 0, 77, 0
2, 5472, Control_c, 0, 11, 78
2, 5475, Note_on_c, 0, 71, 0
2, 5483, Note_on_c, 0, 80, 85
2, 5570, Control_c, 0, 11, 79
2, 5593, Note_on_c, 0, 76, 80
2, 5599, Note_on_c, 0, 80, 0
2, 5641, Note_on_c, 0, 76, 0
2, 5649, Note_on_c, 0, 77, 75
2, 5668, Control_c, 0, 11, 80
2, 5703, Note_on_c, 0, 79, 85
2, 5709, Note_on_c, 0, 77, 0
2, 5766, Control_c, 0, 11, 81
2, 5815, Note_on_c, 0, 77, 60
2, 5821, Note_on_c, 0, 79, 0
2, 5860, Note_on_c, 0, 77, 0
2, 5864, Control_c, 0, 11, 82
2, 5872, Note_on_c, 0, 77, 70
2, 5933, Note_on_c, 0, 80, 85
2, 5940, Note_on_c, 0, 77, 0
2, 5962, Control_c, 0, 11, 83
2, 6036, Note_on_c, 0, 76, 80
2, 6046, Note_on_c, 0, 80, 0
2, 6060, Control_c, 0, 11, 84
2, 6081, Note_on_c, 0, 76, 0
2, 6089, Note_on_c, 0, 77, 80
2, 6147, Note_on_c, 0, 79, 90
2, 6154, Note_on_c, 0, 77, 0
2, 6158, Control_c, 0, 11, 85
2, 6254, Note_on_c, 0, 77, 70
2, 6256, Control_c, 0, 11, 86
2, 6262, Note_on_c, 0, 79, 0
2, 6296, Note_on_c, 0, 77, 0
2, 6306, Note_on_c, 0, 77, 78
2, 6354, Control_c, 0, 11, 87
2, 6368, Note_on_c, 0, 92, 95
2, 6374, Note_on_c, 0, 77, 0
2, 6390, Note_on_c, 0, 92, 0
2, 6395, Note_on_c, 0, 92, 80
2, 6417, Note_on_c, 0, 92, 0
2, 6422, Note_on_c, 0, 92, 80
2, 6444, Note_on_c, 0, 92, 0
2, 6449, Note_on_c, 0, 92, 80
2, 6452, Control_c, 0, 11, 88
2, 6471, Note_on_c, 0, 92, 0
2, 6476, Note_on_c, 0, 86, 90
2, 6498, Note_on_c, 0, 86, 0
2, 6503, Note_on_c, 0, 86, 80
2, 6525, Note_on_c, 0, 86, 0
2, 6530, Note_on_c, 0, 89, 100
2, 6550, Control_c, 0, 11, 89
2, 6552, Note_on_c, 0, 89, 0
2, 6556, Note_on_c, 0, 89, 90
2, 6578, Note_on_c, 0, 89, 0
2, 6581, Note_on_c, 0, 91, 110
2, 6603, Note_on_c, 0, 91, 0
2, 6608, Note_on_c, 0, 91, 95
2, 6630, Note_on_c, 0, 91, 0
2, 6635, Note_on_c, 0, 91, 95
2, 6648, Control_c, 0, 11, 90
2, 6657, Note_on_c, 0, 91, 0
2, 6662, Note_on_c, 0, 91, 95
2, 6684, Note_on_c, 0, 91, 0
2, 6690, Note_on_c, 0, 89, 100
2, 6712, Note_on_c, 0, 89, 0
2, 6718, Note_on_c, 0, 89, 90
2, 6740, Note_on_c, 0, 89, 0
2, 6746, Control_c, 0, 11, 91
2, 6746, Note_on_c, 0, 87, 100
2, 6768, Note_on_c, 0, 87, 0
2, 6773, Note_on_c, 0, 87, 90
2, 6795, Note_on_c, 0, 87, 0
2, 6800, Note_on_c, 0, 89, 110
2, 6822, Note_on_c, 0, 89, 0
2, 6828, Note_on_c, 0, 89, 90
2, 6844, Control_c, 0, 11, 92
2, 6850, Note_on_c, 0, 89, 0
2, 6856, Note_on_c, 0, 89, 90
2, 6878, Note_on_c, 0, 89, 0
2, 6884, Note_on_c, 0, 89, 90
2, 6906, Note_on_c, 0, 89, 0
2, 6912, Note_on_c, 0, 87, 100
2, 6934, Note_on_c, 0, 87, 0
2, 6939, Note_on_c, 0, 87, 90
2, 6942, Control_c, 0, 11, 93
2, 6961, Note_on_c, 0, 87, 0
2, 6965, Note_on_c, 0, 85, 95
2, 6987, Note_on_c, 0, 85, 0
2, 6991, Note_on_c, 0, 85, 80
2, 7013, Note_on_c, 0, 85, 0
2, 7016, Note_on_c, 0, 87, 100
2, 7038, Note_on_c, 0, 87, 0
2, 7040, Control_c, 0, 11, 94
2, 7044, Note_on_c, 0, 87, 90
2, 7066, Note_on_c, 0, 87, 0
2, 7072, Note_on_c, 0, 87, 90
2, 7094, Note_on_c, 0, 87, 0
2, 7100, Note_on_c, 0, 87, 90
2, 7122, Note_on_c, 0, 87, 0
2, 7128, Note_on_c, 0, 85, 95
2, 7138, Control_c, 0, 11, 80
2, 7150, Note_on_c, 0, 85, 0
2, 7155, Note_on_c, 0, 85, 80
2, 7177, Note_on_c, 0, 85, 0
2, 7185, Note_on_c, 0, 84, 100
2, 7236, Control_c, 0, 11, 96
2, 7275, Note_on_c, 0, 84, 0
2, 7290, Note_on_c, 0, 83, 80
2, 7318, Note_on_c, 0, 84, 85
2, 7325, Note_on_c, 0, 83, 0
2, 7334, Control_c, 0, 11, 97
2, 7341, Note_on_c, 0, 85, 90
2, 7362, Note_on_c, 0, 84, 0
2, 7365, Note_on_c, 0, 84, 80
2, 7376, Note_on_c, 0, 85, 0
2, 7398, Note_on_c, 0, 89, 100
2, 7405, Note_on_c, 0, 84, 0
2, 7432, Control_c, 0, 11, 98
2, 7493, Note_on_c, 0, 89, 0
2, 7508, Note_on_c, 0, 82, 90
2, 7530, Control_c, 0, 11, 99
2, 7603, Note_on_c, 0, 82, 0
2, 7620, Note_on_c, 0, 87, 100
2, 7628, Control_c, 0, 11, 100
2, 7715, Note_on_c, 0, 87, 0
2, 7726, Control_c, 0, 11, 101
2, 7732, Note_on_c, 0, 79, 80
2, 7755, Note_on_c, 0, 80, 85
2, 7762, Note_on_c, 0, 79, 0
2, 7782, Note_on_c, 0, 82, 90
2, 7785, Note_on_c, 0, 80, 0
2, 7806, Note_on_c, 0, 80, 85
2, 7812, Note_on_c, 0, 82, 0
2, 7824, Control_c, 0, 11, 102
2, 7838, Note_on_c, 0, 85, 95
2, 7841, Note_on_c, 0, 80, 0
2, 7922, Control_c, 0, 11, 103
2, 7933, Note_on_c, 0, 85, 0
2, 7952, Note_on_c, 0, 85, 90
2, 8020, Control_c, 0, 11, 104
2, 8042, Note_on_c, 0, 85, 0
2, 8057, Note_on_c, 0, 85, 85
2, 8082, Note_on_c, 0, 85, 0
2, 8118, Control_c, 0, 11, 105
2, 8118, Note_on_c, 0, 85, 95
2, 8118, Note_on_c, 0, 82, 80
2, 8130, Control_c, 0, 11, 104
2, 8140, Note_on_c, 0, 82, 0
2, 8140, Note_on_c, 0, 85, 0
2, 8142, Control_c, 0, 11, 103
2, 8144, Note_on_c, 0, 85, 75
2, 8144, Note_on_c, 0, 82, 60
2, 8154, Control_c, 0, 11, 102
2, 8166, Note_on_c, 0, 82, 0
2, 8166, Note_on_c, 0, 85, 0
2, 8166, Control_c, 0, 11, 101
2, 8170, Note_on_c, 0, 85, 75
2, 8170, Note_on_c, 0, 82, 60
2, 8178, Control_c, 0, 11, 100
2, 8191, Control_c, 0, 11, 99
2, 8192, Note_on_c, 0, 82, 0
2, 8192, Note_on_c, 0, 85, 0
2, 8196, Note_on_c, 0, 85, 75
2, 8196, Note_on_c, 0, 82, 60
2, 8203, Control_c, 0, 11, 98
2, 8215, Control_c, 0, 11, 97
2, 8218, Note_on_c, 0, 82, 0
2, 8218, Note_on_c, 0, 85, 0
2, 8223, Note_on_c, 0, 84, 85
2, 8223, Note_on_c, 0, 80, 60
2, 8227, Control_c, 0, 11, 96
2, 8239, Control_c, 0, 11, 95
2, 8245, Note_on_c, 0, 80, 0
2, 8245, Note_on_c, 0, 84, 0
2, 8250, Note_on_c, 0, 84, 75
2, 8250, Note_on_c, 0, 80, 60
2, 8251, Control_c, 0, 11, 94
2, 8264, Control_c, 0, 11, 93
2, 8272, Note_on_c, 0, 80, 0
2, 8272, Note_on_c, 0, 84, 0
2, 8276, Control_c, 0, 11, 92
2, 8278, Note_on_c, 0, 82, 85
2, 8278, Note_on_c, 0, 76, 70
2, 8288, Control_c, 0, 11, 91
2, 8298, Note_on_c, 0, 76, 0
2, 8298, Note_on_c, 0, 82, 0
2, 8300, Control_c, 0, 11, 90
2, 8301, Note_on_c, 0, 82, 75
2, 8301, Note_on_c, 0, 76, 60
2, 8312, Control_c, 0, 11, 89
2, 8321, Note_on_c, 0, 76, 0
2, 8321, Note_on_c, 0, 82, 0
2, 8324, Control_c, 0, 11, 88
2, 8329, Note_on_c, 0, 80, 85
2, 8329, Note_on_c, 0, 77, 70
2, 8337, Control_c, 0, 11, 87
2, 8349, Control_c, 0, 11, 86
2, 8351, Note_on_c, 0, 77, 0
2, 8351, Note_on_c, 0, 80, 0
2, 8356, Note_on_c, 0, 80, 75
2, 8356, Note_on_c, 0, 77, 60
2, 8361, Control_c, 0, 11, 85
2, 8373, Control_c, 0, 11, 84
2, 8378, Note_on_c, 0, 77, 0
2, 8378, Note_on_c, 0, 80, 0
2, 8384, Note_on_c, 0, 79, 85
2, 8384, Note_on_c, 0, 67, 60
2, 8385, Control_c, 0, 11, 83
2, 8397, Control_c, 0, 11, 82
2, 8406, Note_on_c, 0, 67, 0
2, 8406, Note_on_c, 0, 79, 0
2, 8409, Note_on_c, 0, 79, 75
2, 8409, Note_on_c, 0, 67, 60
2, 8410, Control_c, 0, 11, 81
2, 8422, Control_c, 0, 11, 80
2, 8431, Note_on_c, 0, 67, 0
2, 8431, Note_on_c, 0, 79, 0
2, 8434, Control_c, 0, 11, 79
2, 8434, Note_on_c, 0, 77, 85
2, 8434, Note_on_c, 0, 68, 60
2, 8446, Control_c, 0, 11, 78
2, 8456, Note_on_c, 0, 68, 0
2, 8456, Note_on_c, 0, 77, 0
2, 8458, Control_c, 0, 11, 77
2, 8459, Note_on_c, 0, 77, 75
2, 8459, Note_on_c, 0, 68, 60
2, 8470, Control_c, 0, 11, 76
2, 8481, Note_on_c, 0, 68, 0
2, 8481, Note_on_c, 0, 77, 0
2, 8483, Control_c, 0, 11, 75
2, 8484, Note_on_c, 0, 76, 80
2, 8484, Note_on_c, 0, 67, 60
2, 8495, Control_c, 0, 11, 74
2, 8506, Note_on_c, 0, 67, 0
2, 8506, Note_on_c, 0, 76, 0
2, 8507, Control_c, 0, 11, 73
2, 8514, Note_on_c, 0, 76, 75
2, 8514, Note_on_c, 0, 67, 60
2, 8519, Control_c, 0, 11, 72
2, 8531, Control_c, 0, 11, 71
2, 8536, Note_on_c, 0, 67, 0
2, 8536, Note_on_c, 0, 76, 0
2, 8544, Control_c, 0, 11, 70
2, 8544, Note_on_c, 0, 76, 95
2, 8544, Note_on_c, 0, 67, 80
2, 8558, Control_c, 0, 11, 71
2, 8566, Note_on_c, 0, 67, 0
2, 8566, Note_on_c, 0, 76, 0
2, 8571, Note_on_c, 0, 76, 75
2, 8571, Note_on_c, 0, 67, 60
2, 8572, Control_c, 0, 11, 72
2, 8587, Control_c, 0, 11, 73
2, 8593, Note_on_c, 0, 67, 0
2, 8593, Note_on_c, 0, 76, 0
2, 8598, Note_on_c, 0, 76, 75
2, 8598, Note_on_c, 0, 67, 60
2, 8601, Control_c, 0, 11, 74
2, 8615, Control_c, 0, 11, 75
2, 8620, Note_on_c, 0, 67, 0
2, 8620, Note_on_c, 0, 76, 0
2, 8624, Note_on_c, 0, 76, 75
2, 8624, Note_on_c, 0, 67, 60
2, 8630, Control_c, 0, 11, 76
2, 8644, Control_c, 0, 11, 77
2, 8646, Note_on_c, 0, 67, 0
2, 8646, Note_on_c, 0, 76, 0
2, 8650, Note_on_c, 0, 76, 75
2, 8650, Note_on_c, 0, 67, 60
2, 8658, Control_c, 0, 11, 78
2, 8672, Note_on_c, 0, 67, 0
2, 8672, Note_on_c, 0, 76, 0
2, 8673, Control_c, 0, 11, 79
2, 8679, Note_on_c, 0, 76, 75
2, 8679, Note_on_c, 0, 67, 60
2, 8687, Control_c, 0, 11, 80
2, 8701, Note_on_c, 0, 67, 0
2, 8701, Note_on_c, 0, 76, 0
2, 8701, Control_c, 0, 11, 81
2, 8708, Note_on_c, 0, 76, 75
2, 8708, Note_on_c, 0, 67, 60
2, 8716, Control_c, 0, 11, 82
2, 8730, Note_on_c, 0, 67, 0
2, 8730, Note_on_c, 0, 76, 0
2, 8730, Control_c, 0, 11, 83
2, 8734, Note_on_c, 0, 76, 75
2, 8734, Note_on_c, 0, 67, 60
2, 8744, Control_c, 0, 11, 84
2, 8756, Note_on_c, 0, 67, 0
2, 8756, Note_on_c, 0, 76, 0
2, 8759, Control_c, 0, 11, 85
2, 8759, Note_on_c, 0, 77, 85
2, 8759, Note_on_c, 0, 68, 60
2, 8773, Control_c, 0, 11, 86
2, 8781, Note_on_c, 0, 68, 0
2, 8781, Note_on_c, 0, 77, 0
2, 8784, Note_on_c, 0, 77, 75
2, 8784, Note_on_c, 0, 68, 60
2, 8787, Control_c, 0, 11, 87
2, 8802, Control_c, 0, 11, 88
2, 8806, Note_on_c, 0, 68, 0
2, 8806, Note_on_c, 0, 77, 0
2, 8813, Note_on_c, 0, 82, 85
2, 8813, Note_on_c, 0, 76, 60
2, 8816, Control_c, 0, 11, 89
2, 8830, Control_c, 0, 11, 90
2, 8835, Note_on_c, 0, 76, 0
2, 8835, Note_on_c, 0, 82, 0
2, 8838, Note_on_c, 0, 82, 75
2, 8838, Note_on_c, 0, 76, 60
2, 8845, Control_c, 0, 11, 91
2, 8859, Control_c, 0, 11, 92
2, 8860, Note_on_c, 0, 76, 0
2, 8860, Note_on_c, 0, 82, 0
2, 8863, Note_on_c, 0, 82, 75
2, 8863, Note_on_c, 0, 77, 60
2, 8873, Control_c, 0, 11, 93
2, 8885, Note_on_c, 0, 77, 0
2, 8885, Note_on_c, 0, 82, 0
2, 8888, Control_c, 0, 11, 94
2, 8890, Note_on_c, 0, 82, 75
2, 8890, Note_on_c, 0, 77, 60
2, 8902, Control_c, 0, 11, 95
2, 8912, Note_on_c, 0, 77, 0
2, 8912, Note_on_c, 0, 82, 0
2, 8916, Control_c, 0, 11, 96
2, 8918, Note_on_c, 0, 82, 75
2, 8918, Note_on_c, 0, 79, 60
2, 8931, Control_c, 0, 11, 97
2, 8940, Note_on_c, 0, 79, 0
2, 8940, Note_on_c, 0, 82, 0
2, 8945, Control_c, 0, 11, 98
2, 8946, Note_on_c, 0, 82, 75
2, 8946, Note_on_c, 0, 79, 60
2, 8959, Control_c, 0, 11, 99
2, 8968, Note_on_c, 0, 79, 0
2, 8968, Note_on_c, 0, 82, 0
2, 8974, Control_c, 0, 11, 100
2, 8974, Note_on_c, 0, 85, 85
2, 8974, Note_on_c, 0, 82, 80
2, 8989, Control_c, 0, 11, 99
2, 8996, Note_on_c, 0, 82, 0
2, 8996, Note_on_c, 0, 85, 0
2, 9002, Note_on_c, 0, 85, 75
2, 9002, Note_on_c, 0, 82, 60
2, 9005, Control_c, 0, 11, 98
2, 9021, Control_c, 0, 11, 97
2, 9024, Note_on_c, 0, 82, 0
2, 9024, Note_on_c, 0, 85, 0
2, 9030, Note_on_c, 0, 85, 75
2, 9030, Note_on_c, 0, 82, 60
2, 9037, Control_c, 0, 11, 96
2, 9052, Note_on_c, 0, 82, 0
2, 9052, Note_on_c, 0, 85, 0
2, 9053, Control_c, 0, 11, 95
2, 9057, Note_on_c, 0, 85, 75
2, 9057, Note_on_c, 0, 82, 60
2, 9069, Control_c, 0, 11, 94
2, 9079, Note_on_c, 0, 82, 0
2, 9079, Note_on_c, 0, 85, 0
2, 9085, Control_c, 0, 11, 93
2, 9088, Note_on_c, 0, 84, 85
2, 9088, Note_on_c, 0, 80, 60
2, 9101, Control_c, 0, 11, 92
2, 9110, Note_on_c, 0, 80, 0
2, 9110, Note_on_c, 0, 84, 0
2, 9116, Note_on_c, 0, 84, 75
2, 9116, Note_on_c, 0, 80, 60
2, 9117, Control_c, 0, 11, 91
2, 9133, Control_c, 0, 11, 90
2, 9138, Note_on_c, 0, 80, 0
2, 9138, Note_on_c, 0, 84, 0
2, 9145, Note_on_c, 0, 82, 85
2, 9145, Note_on_c, 0, 76, 60
2, 9148, Control_c, 0, 11, 89
2, 9164, Control_c, 0, 11, 88
2, 9167, Note_on_c, 0, 76, 0
2, 9167, Note_on_c, 0, 82, 0
2, 9169, Note_on_c, 0, 82, 75
2, 9169, Note_on_c, 0, 76, 60
2, 9180, Control_c, 0, 11, 87
2, 9191, Note_on_c, 0, 76, 0
2, 9191, Note_on_c, 0, 82, 0
2, 9193, Note_on_c, 0, 80, 85
2, 9193, Note_on_c, 0, 77, 60
2, 9196, Control_c, 0, 11, 86
2, 9212, Control_c, 0, 11, 85
2, 9215, Note_on_c, 0, 77, 0
2, 9215, Note_on_c, 0, 80, 0
2, 9218, Note_on_c, 0, 80, 75
2, 9218, Note_on_c, 0, 77, 60
2, 9228, Control_c, 0, 11, 84
2, 9240, Note_on_c, 0, 77, 0
2, 9240, Note_on_c, 0, 80, 0
2, 9244, Control_c, 0, 11, 83
2, 9244, Note_on_c, 0, 76, 85
2, 9244, Note_on_c, 0, 67, 60
2, 9260, Control_c, 0, 11, 82
2, 9266, Note_on_c, 0, 67, 0
2, 9266, Note_on_c, 0, 76, 0
2, 9268, Note_on_c, 0, 76, 75
2, 9268, Note_on_c, 0, 67, 60
2, 9276, Control_c, 0, 11, 81
2, 9290, Note_on_c, 0, 67, 0
2, 9290, Note_on_c, 0, 76, 0
2, 9292, Control_c, 0, 11, 80
2, 9292, Note_on_c, 0, 77, 85
2, 9292, Note_on_c, 0, 65, 60
2, 9297, Control_c, 0, 11, 81
2, 9303, Control_c, 0, 11, 82
2, 9308, Control_c, 0, 11, 83
2, 9314, Note_on_c, 0, 65, 0
2, 9314, Note_on_c, 0, 77, 0
2, 9314, Control_c, 0, 11, 84
2, 9320, Control_c, 0, 11, 85
2, 9321, Note_on_c, 0, 77, 75
2, 9321, Note_on_c, 0, 65, 60
2, 9325, Control_c, 0, 11, 86
2, 9331, Control_c, 0, 11, 87
2, 9336, Control_c, 0, 11, 88
2, 9342, Control_c, 0, 11, 89
2, 9343, Note_on_c, 0, 65, 0
2, 9343, Note_on_c, 0, 77, 0
2, 9348, Control_c, 0, 11, 90
2, 9348, Note_on_c, 0, 78, 85
2, 9348, Note_on_c, 0, 63, 60
2, 9353, Control_c, 0, 11, 91
2, 9359, Control_c, 0, 11, 92
2, 9364, Control_c, 0, 11, 93
2, 9370, Note_on_c, 0, 63, 0
2, 9370, Note_on_c, 0, 78, 0
2, 9370, Control_c, 0, 11, 94
2, 9376, Control_c, 0, 11, 95
2, 9376, Note_on_c, 0, 78, 75
2, 9376, Note_on_c, 0, 63, 60
2, 9381, Control_c, 0, 11, 96
2, 9387, Control_c, 0, 11, 97
2, 9392, Control_c, 0, 11, 98
2, 9398, Note_on_c, 0, 63, 0
2, 9398, Note_on_c, 0, 78, 0
2, 9398, Control_c, 0, 11, 99
2, 9404, Control_c, 0, 11, 100
2, 9404, Note_on_c, 0, 90, 95
2, 9404, Note_on_c, 0, 87, 80
2, 9426, Note_on_c, 0, 87, 0
2, 9426, Note_on_c, 0, 90, 0
2, 9432, Note_on_c, 0, 90, 80
2, 9432, Note_on_c, 0, 87, 60
2, 9435, Control_c, 0, 11, 99
2, 9454, Note_on_c, 0, 87, 0
2, 9454, Note_on_c, 0, 90, 0
2, 9460, Note_on_c, 0, 90, 80
2, 9460, Note_on_c, 0, 87, 60
2, 9466, Control_c, 0, 11, 98
2, 9482, Note_on_c, 0, 87, 0
2, 9482, Note_on_c, 0, 90, 0
2, 9488, Note_on_c, 0, 90, 80
2, 9488, Note_on_c, 0, 87, 60
2, 9497, Control_c, 0, 11, 97
2, 9510, Note_on_c, 0, 87, 0
2, 9510, Note_on_c, 0, 90, 0
2, 9516, Note_on_c, 0, 89, 90
2, 9516, Note_on_c, 0, 85, 60
2, 9528, Control_c, 0, 11, 96
2, 9538, Note_on_c, 0, 85, 0
2, 9538, Note_on_c, 0, 89, 0
2, 9541, Note_on_c, 0, 89, 80
2, 9541, Note_on_c, 0, 85, 60
2, 9559, Control_c, 0, 11, 95
2, 9563, Note_on_c, 0, 85, 0
2, 9563, Note_on_c, 0, 89, 0
2, 9567, Note_on_c, 0, 87, 90
2, 9567, Note_on_c, 0, 81, 60
2, 9589, Note_on_c, 0, 81, 0
2, 9589, Note_on_c, 0, 87, 0
2, 9590, Control_c, 0, 11, 94
2, 9591, Note_on_c, 0, 87, 80
2, 9591, Note_on_c, 0, 81, 60
2, 9613, Note_on_c, 0, 81, 0
2, 9613, Note_on_c, 0, 87, 0
2, 9615, Note_on_c, 0, 85, 90
2, 9615, Note_on_c, 0, 82, 60
2, 9621, Control_c, 0, 11, 93
2, 9637, Note_on_c, 0, 82, 0
2, 9637, Note_on_c, 0, 85, 0
2, 9640, Note_on_c, 0, 85, 80
2, 9640, Note_on_c, 0, 82, 60
2, 9652, Control_c, 0, 11, 92
2, 9662, Note_on_c, 0, 82, 0
2, 9662, Note_on_c, 0, 85, 0
2, 9665, Note_on_c, 0, 81, 90
2, 9665, Note_on_c, 0, 72, 60
2, 9683, Control_c, 0, 11, 91
2, 9687, Note_on_c, 0, 72, 0
2, 9687, Note_on_c, 0, 81, 0
2, 9690, Note_on_c, 0, 81, 80
2, 9690, Note_on_c, 0, 72, 60
2, 9712, Note_on_c, 0, 72, 0
2, 9712, Note_on_c, 0, 81, 0
2, 9715, Control_c, 0, 11, 100
2, 9715, Note_on_c, 0, 82, 90
2, 9715, Note_on_c, 0, 73, 60
2, 9737, Note_on_c, 0, 73, 0
2, 9737, Note_on_c, 0, 82, 0
2, 9742, Note_on_c, 0, 82, 80
2, 9742, Note_on_c, 0, 73, 60
2, 9764, Note_on_c, 0, 73, 0
2, 9764, Note_on_c, 0, 82, 0
2, 9770, Note_on_c, 0, 85, 90
2, 9770, Note_on_c, 0, 73, 60
2, 9792, Note_on_c, 0, 73, 0
2, 9792, Note_on_c, 0, 85, 0
2, 9800, Note_on_c, 0, 85, 80
2, 9800, Note_on_c, 0, 73, 60
2, 9822, Note_on_c, 0, 73, 0
2, 9822, Note_on_c, 0, 85, 0
2, 9829, Note_on_c, 0, 78, 95
2, 9829, Note_on_c, 0, 73, 80
2, 9851, Note_on_c, 0, 73, 0
2, 9851, Note_on_c, 0, 78, 0
2, 9856, Note_on_c, 0, 78, 80
2, 9856, Note_on_c, 0, 73, 60
2, 9878, Note_on_c, 0, 73, 0
2, 9878, Note_on_c, 0, 78, 0
2, 9883, Note_on_c, 0, 78, 80
2, 9883, Note_on_c, 0, 73, 80
2, 9905, Note_on_c, 0, 73, 0
2, 9905, Note_on_c, 0, 78, 0
2, 9910, Note_on_c, 0, 78, 60
2, 9910, Note_on_c, 0, 73, 60
2, 9932, Note_on_c, 0, 73, 0
2, 9932, Note_on_c, 0, 78, 0
2, 9940, Note_on_c, 0, 77, 90
2, 9940, Note_on_c, 0, 73, 60
2, 9962, Note_on_c, 0, 73, 0
2, 9962, Note_on_c, 0, 77, 0
2, 9968, Note_on_c, 0, 77, 80
2, 9968, Note_on_c, 0, 73, 60
2, 9990, Note_on_c, 0, 73, 0
2, 9990, Note_on_c, 0, 77, 0
2, 9997, Note_on_c, 0, 76, 90
2, 9997, Note_on_c, 0, 72, 60
2, 10019, Note_on_c, 0, 72, 0
2, 10019, Note_on_c, 0, 76, 0
2, 10024, Note_on_c, 0, 76, 80
2, 10024, Note_on_c, 0, 72, 60
2, 10046, Note_on_c, 0, 72, 0
2, 10046, Note_on_c, 0, 76, 0
2, 10051, Note_on_c, 0, 76, 80
2, 10051, Note_on_c, 0, 72, 60
2, 10073, Note_on_c, 0, 72, 0
2, 10073, Note_on_c, 0, 76, 0
2, 10078, Note_on_c, 0, 76, 80
2, 10078, Note_on_c, 0, 72, 60
2, 10100, Note_on_c, 0, 72, 0
2, 10100, Note_on_c, 0, 76, 0
2, 10107, Note_on_c, 0, 77, 90
2, 10107, Note_on_c, 0, 72, 60
2, 10129, Note_on_c, 0, 72, 0
2, 10129, Note_on_c, 0, 77, 0
2, 10133, Note_on_c, 0, 77, 80
2, 10133, Note_on_c, 0, 72, 60
2, 10155, Note_on_c, 0, 72, 0
2, 10155, Note_on_c, 0, 77, 0
2, 10159, Note_on_c, 0, 77, 80
2, 10159, Note_on_c, 0, 72, 60
2, 10181, Note_on_c, 0, 72, 0
2, 10181, Note_on_c, 0, 77, 0
2, 10185, Note_on_c, 0, 77, 80
2, 10185, Note_on_c, 0, 72, 60
2, 10207, Note_on_c, 0, 72, 0
2, 10207, Note_on_c, 0, 77, 0
2, 10212, Note_on_c, 0, 83, 90
2, 10212, Note_on_c, 0, 71, 60
2, 10234, Note_on_c, 0, 71, 0
2, 10234, Note_on_c, 0, 83, 0
2, 10240, Note_on_c, 0, 83, 80
2, 10240, Note_on_c, 0, 71, 60
2, 10262, Note_on_c, 0, 71, 0
2, 10262, Note_on_c, 0, 83, 0
2, 10268, Note_on_c, 0, 77, 96
2, 10268, Note_on_c, 0, 71, 80
2, 10290, Note_on_c, 0, 71, 0
2, 10290, Note_on_c, 0, 77, 0
2, 10294, Note_on_c, 0, 77, 80
2, 10294, Note_on_c, 0, 71, 60
2, 10316, Note_on_c, 0, 71, 0
2, 10316, Note_on_c, 0, 77, 0
2, 10320, Note_on_c, 0, 77, 80
2, 10320, Note_on_c, 0, 71, 80
2, 10342, Note_on_c, 0, 71, 0
2, 10342, Note_on_c, 0, 77, 0
2, 10346, Note_on_c, 0, 77, 80
2, 10346, Note_on_c, 0, 71, 60
2, 10368, Note_on_c, 0, 71, 0
2, 10368, Note_on_c, 0, 77, 0
2, 10373, Note_on_c, 0, 75, 90
2, 10373, Note_on_c, 0, 71, 60
2, 10395, Note_on_c, 0, 71, 0
2, 10395, Note_on_c, 0, 75, 0
2, 10401, Note_on_c, 0, 75, 80
2, 10401, Note_on_c, 0, 71, 60
2, 10423, Note_on_c, 0, 71, 0
2, 10423, Note_on_c, 0, 75, 0
2, 10429, Note_on_c, 0, 74, 90
2, 10429, Note_on_c, 0, 70, 60
2, 10451, Note_on_c, 0, 70, 0
2, 10451, Note_on_c, 0, 74, 0
2, 10455, Note_on_c, 0, 74, 80
2, 10455, Note_on_c, 0, 70, 60
2, 10477, Note_on_c, 0, 70, 0
2, 10477, Note_on_c, 0, 74, 0
2, 10481, Note_on_c, 0, 74, 80
2, 10481, Note_on_c, 0, 70, 60
2, 10503, Note_on_c, 0, 70, 0
2, 10503, Note_on_c, 0, 74, 0
2, 10507, Note_on_c, 0, 74, 80
2, 10507, Note_on_c, 0, 70, 60
2, 10529, Note_on_c, 0, 70, 0
2, 10529, Note_on_c, 0, 74, 0
2, 10533, Note_on_c, 0, 75, 90
2, 10533, Note_on_c, 0, 70, 60
2, 10555, Note_on_c, 0, 70, 0
2, 10555, Note_on_c, 0, 75, 0
2, 10560, Note_on_c, 0, 75, 80
2, 10560, Note_on_c, 0, 70, 60
2, 10582, Note_on_c, 0, 70, 0
2, 10582, Note_on_c, 0, 75, 0
2, 10587, Note_on_c, 0, 75, 80
2, 10587, Note_on_c, 0, 70, 60
2, 10609, Note_on_c, 0, 70, 0
2, 10609, Note_on_c, 0, 75, 0
2, 10614, Note_on_c, 0, 75, 80
2, 10614, Note_on_c, 0, 70, 60
2, 10636, Note_on_c, 0, 70, 0
2, 10636, Note_on_c, 0, 75, 0
2, 10642, Note_on_c, 0, 82, 90
2, 10642, Note_on_c, 0, 70, 60
2, 10664, Note_on_c, 0, 70, 0
2, 10664, Note_on_c, 0, 82, 0
2, 10671, Note_on_c, 0, 82, 80
2, 10671, Note_on_c, 0, 70, 60
2, 10693, Note_on_c, 0, 70, 0
2, 10693, Note_on_c, 0, 82, 0
2, 10700, Note_on_c, 0, 75, 90
2, 10700, Note_on_c, 0, 70, 80
2, 10722, Note_on_c, 0, 70, 0
2, 10722, Note_on_c, 0, 75, 0
2, 10726, Note_on_c, 0, 75, 80
2, 10726, Note_on_c, 0, 70, 60
2, 10748, Note_on_c, 0, 70, 0
2, 10748, Note_on_c, 0, 75, 0
2, 10752, Note_on_c, 0, 75, 80
2, 10752, Note_on_c, 0, 70, 60
2, 10774, Note_on_c, 0, 70, 0
2, 10774, Note_on_c, 0, 75, 0
2, 10778, Note_on_c, 0, 75, 80
2, 10778, Note_on_c, 0, 70, 60
2, 10800, Note_on_c, 0, 70, 0
2, 10800, Note_on_c, 0, 75, 0
2, 10805, Note_on_c, 0, 73, 90
2, 10805, Note_on_c, 0, 70, 60
2, 10827, Note_on_c, 0, 70, 0
2, 10827, Note_on_c, 0, 73, 0
2, 10832, Note_on_c, 0, 73, 80
2, 10832, Note_on_c, 0, 70, 60
2, 10854, Note_on_c, 0, 70, 0
2, 10854, Note_on_c, 0, 73, 0
2, 10859, Note_on_c, 0, 72, 90
2, 10859, Note_on_c, 0, 69, 60
2, 10881, Note_on_c, 0, 69, 0
2, 10881, Note_on_c, 0, 72, 0
2, 10886, Note_on_c, 0, 72, 80
2, 10886, Note_on_c, 0, 69, 60
2, 10908, Note_on_c, 0, 69, 0
2, 10908, Note_on_c, 0, 72, 0
2, 10913, Note_on_c, 0, 72, 80
2, 10913, Note_on_c, 0, 69, 60
2, 10935, Note_on_c, 0, 69, 0
2, 10935, Note_on_c, 0, 72, 0
2, 10940, Note_on_c, 0, 72, 80
2, 10940, Note_on_c, 0, 69, 60
2, 10962, Note_on_c, 0, 69, 0
2, 10962, Note_on_c, 0, 72, 0
2, 10968, Note_on_c, 0, 78, 90
2, 10968, Note_on_c, 0, 69, 60
2, 10990, Note_on_c, 0, 69, 0
2, 10990, Note_on_c, 0, 78, 0
2, 10995, Note_on_c, 0, 78, 80
2, 10995, Note_on_c, 0, 69, 60
2, 11017, Note_on_c, 0, 69, 0
2, 11017, Note_on_c, 0, 78, 0
2, 11022, Note_on_c, 0, 78, 80
2, 11022, Note_on_c, 0, 69, 60
2, 11044, Note_on_c, 0, 69, 0
2, 11044, Note_on_c, 0, 78, 0
2, 11049, Note_on_c, 0, 78, 80
2, 11049, Note_on_c, 0, 69, 60
2, 11071, Note_on_c, 0, 69, 0
2, 11071, Note_on_c, 0, 78, 0
2, 11076, Note_on_c, 0, 77, 90
2, 11076, Note_on_c, 0, 70, 60
2, 11098, Note_on_c, 0, 70, 0
2, 11098, Note_on_c, 0, 77, 0
2, 11103, Note_on_c, 0, 77, 80
2, 11103, Note_on_c, 0, 70, 60
2, 11125, Note_on_c, 0, 70, 0
2, 11125, Note_on_c, 0, 77, 0
2, 11130, Note_on_c, 0, 77, 80
2, 11130, Note_on_c, 0, 70, 60
2, 11152, Note_on_c, 0, 70, 0
2, 11152, Note_on_c, 0, 77, 0
2, 11157, Note_on_c, 0, 77, 80
2, 11157, Note_on_c, 0, 70, 60
2, 11179, Note_on_c, 0, 70, 0
2, 11179, Note_on_c, 0, 77, 0
2, 11186, Note_on_c, 0, 77, 85
2, 11186, Note_on_c, 0, 71, 80
2, 11208, Note_on_c, 0, 71, 0
2, 11208, Note_on_c, 0, 77, 0
2, 11210, Note_on_c, 0, 71, 60
2, 11210, Note_on_c, 0, 77, 80
2, 11232, Note_on_c, 0, 77, 0
2, 11232, Note_on_c, 0, 71, 0
2, 11234, Note_on_c, 0, 77, 80
2, 11234, Note_on_c, 0, 71, 60
2, 11256, Note_on_c, 0, 71, 0
2, 11256, Note_on_c, 0, 77, 0
2, 11258, Note_on_c, 0, 77, 80
2, 11258, Note_on_c, 0, 71, 60
2, 11280, Note_on_c, 0, 71, 0
2, 11280, Note_on_c, 0, 77, 0
2, 11282, Note_on_c, 0, 77, 80
2, 11282, Note_on_c, 0, 71, 60
2, 11304, Note_on_c, 0, 71, 0
2, 11304, Note_on_c, 0, 77, 0
2, 11306, Note_on_c, 0, 77, 80
2, 11306, Note_on_c, 0, 71, 60
2, 11328, Note_on_c, 0, 71, 0
2, 11328, Note_on_c, 0, 77, 0
2, 11330, Note_on_c, 0, 77, 80
2, 11330, Note_on_c, 0, 71, 60
2, 11352, Note_on_c, 0, 71, 0
2, 11352, Note_on_c, 0, 77, 0
2, 11354, Note_on_c, 0, 77, 80
2, 11354, Note_on_c, 0, 71, 60
2, 11376, Note_on_c, 0, 71, 0
2, 11376, Note_on_c, 0, 77, 0
2, 11384, Note_on_c, 0, 83, 95
2, 11384, Note_on_c, 0, 77, 60
2, 11406, Note_on_c, 0, 77, 0
2, 11406, Note_on_c, 0, 83, 0
2, 11412, Note_on_c, 0, 83, 85
2, 11412, Note_on_c, 0, 77, 70
2, 11434, Note_on_c, 0, 77, 0
2, 11434, Note_on_c, 0, 83, 0
2, 11440, Note_on_c, 0, 83, 85
2, 11440, Note_on_c, 0, 77, 60
2, 11462, Note_on_c, 0, 77, 0
2, 11462, Note_on_c, 0, 83, 0
2, 11468, Note_on_c, 0, 83, 85
2, 11468, Note_on_c, 0, 77, 60
2, 11490, Note_on_c, 0, 77, 0
2, 11490, Note_on_c, 0, 83, 0
2, 11499, Note_on_c, 0, 84, 100
2, 11499, Note_on_c, 0, 76, 60
2, 11548, Note_on_c, 0, 76, 0
2, 11548, Note_on_c, 0, 84, 0
2, 11557, Note_on_c, 0, 64, 45
2, 11602, Note_on_c, 0, 64, 0
2, 11617, Note_on_c, 0, 72, 80
2, 11617, Note_on_c, 0, 64, 60
2, 11662, Note_on_c, 0, 64, 0
2, 11670, Note_on_c, 0, 64, 60
2, 11715, Note_on_c, 0, 64, 0
2, 11723, Note_on_c, 0, 64, 60
2, 11768, Note_on_c, 0, 64, 0
2, 11776, Note_on_c, 0, 64, 60
2, 11800, Note_on_c, 0, 72, 0
2, 11821, Note_on_c, 0, 64, 0
2, 11830, Note_on_c, 0, 74, 80
2, 11830, Note_on_c, 0, 64, 45
2, 11853, Note_on_c, 0, 74, 0
2, 11855, Note_on_c, 0, 76, 82
2, 11875, Note_on_c, 0, 64, 0
2, 11876, Note_on_c, 0, 76, 0
2, 11882, Note_on_c, 0, 77, 84
2, 11882, Note_on_c, 0, 64, 45
2, 11900, Note_on_c, 0, 77, 0
2, 11911, Note_on_c, 0, 79, 86
2, 11927, Note_on_c, 0, 64, 0
2, 11937, Note_on_c, 0, 79, 0
2, 11940, Note_on_c, 0, 80, 90
2, 11940, Note_on_c, 0, 65, 45
2, 11985, Note_on_c, 0, 65, 0
2, 12003, Note_on_c, 0, 65, 45
2, 12010, Note_on_c, 0, 80, 0
2, 12048, Note_on_c, 0, 65, 0
2, 12066, Note_on_c, 0, 74, 85
2, 12066, Note_on_c, 0, 65, 45
2, 12111, Note_on_c, 0, 65, 0
2, 12126, Note_on_c, 0, 65, 45
2, 12171, Note_on_c, 0, 65, 0
2, 12186, Note_on_c, 0, 65, 45
2, 12227, Note_on_c, 0, 74, 0
2, 12231, Note_on_c, 0, 65, 0
2, 12246, Note_on_c, 0, 73, 80
2, 12246, Note_on_c, 0, 65, 45
2, 12263, Note_on_c, 0, 73, 0
2, 12271, Note_on_c, 0, 74, 83
2, 12291, Note_on_c, 0, 65, 0
2, 12295, Note_on_c, 0, 74, 0
2, 12297, Note_on_c, 0, 76, 86
2, 12297, Note_on_c, 0, 65, 45
2, 12315, Note_on_c, 0, 76, 0
2, 12327, Note_on_c, 0, 77, 89
2, 12342, Note_on_c, 0, 65, 0
2, 12348, Note_on_c, 0, 77, 0
2, 12350, Note_on_c, 0, 79, 92
2, 12350, Note_on_c, 0, 65, 45
2, 12375, Note_on_c, 0, 79, 0
2, 12377, Note_on_c, 0, 80, 92
2, 12395, Note_on_c, 0, 65, 0
2, 12404, Note_on_c, 0, 80, 0
2, 12406, Note_on_c, 0, 82, 95
2, 12406, Note_on_c, 0, 67, 50
2, 12451, Note_on_c, 0, 67, 0
2, 12463, Note_on_c, 0, 73, 45
2, 12501, Note_on_c, 0, 82, 0
2, 12508, Note_on_c, 0, 73, 0
2, 12520, Note_on_c, 0, 76, 85
2, 12520, Note_on_c, 0, 73, 45
2, 12565, Note_on_c, 0, 73, 0
2, 12574, Note_on_c, 0, 73, 45
2, 12619, Note_on_c, 0, 73, 0
2, 12628, Note_on_c, 0, 73, 45
2, 12673, Note_on_c, 0, 73, 0
2, 12684, Note_on_c, 0, 73, 45
2, 12705, Note_on_c, 0, 76, 0
2, 12729, Note_on_c, 0, 73, 0
2, 12735, Note_on_c, 0, 77, 80
2, 12735, Note_on_c, 0, 72, 45
2, 12759, Note_on_c, 0, 77, 0
2, 12761, Note_on_c, 0, 79, 83
2, 12780, Note_on_c, 0, 72, 0
2, 12784, Note_on_c, 0, 79, 0
2, 12789, Note_on_c, 0, 80, 86
2, 12789, Note_on_c, 0, 72, 45
2, 12814, Note_on_c, 0, 82, 89
2, 12817, Note_on_c, 0, 80, 0
2, 12834, Note_on_c, 0, 72, 0
2, 12847, Note_on_c, 0, 84, 92
2, 12847, Note_on_c, 0, 77, 60
2, 12847, Note_on_c, 0, 72, 60
2, 12851, Note_on_c, 0, 82, 0
2, 12947, Note_on_c, 0, 84, 0
2, 12947, Note_on_c, 0, 77, 0
2, 12947, Note_on_c, 0, 72, 0
2, 12970, Note_on_c, 0, 89, 100
2, 12970, Note_on_c, 0, 84, 60
2, 12970, Note_on_c, 0, 72, 60
2, 13090, Note_on_c, 0, 72, 0
2, 13090, Note_on_c, 0, 84, 0
2, 13095, Note_on_c, 0, 89, 0
2, 13200, Control_c, 0, 11, 70
2, 13319, Note_on_c, 0, 77, 60
2, 13319, Note_on_c, 0, 65, 45
2, 13488, Note_on_c, 0, 76, 60
2, 13488, Note_on_c, 0, 67, 45
2, 13496, Note_on_c, 0, 65, 0
2, 13496, Note_on_c, 0, 77, 0
2, 13538, Note_on_c, 0, 67, 0
2, 13540, Note_on_c, 0, 77, 60
2, 13540, Note_on_c, 0, 65, 45
2, 13548, Note_on_c, 0, 76, 0
2, 13596, Note_on_c, 0, 76, 60
2, 13596, Note_on_c, 0, 67, 45
2, 13604, Note_on_c, 0, 65, 0
2, 13604, Note_on_c, 0, 77, 0
2, 13649, Note_on_c, 0, 77, 60
2, 13649, Note_on_c, 0, 65, 45
2, 13656, Note_on_c, 0, 76, 0
2, 13656, Note_on_c, 0, 67, 0
2, 13710, Note_on_c, 0, 73, 60
2, 13715, Note_on_c, 0, 77, 0
2, 13768, Note_on_c, 0, 70, 60
2, 13776, Note_on_c, 0, 73, 0
2, 13834, Note_on_c, 0, 70, 0
2, 13854, Note_on_c, 0, 65, 0
2, 13873, Note_on_c, 0, 73, 80
2, 13873, Note_on_c, 0, 65, 50
2, 14039, Note_on_c, 0, 65, 0
2, 14039, Note_on_c, 0, 73, 0
2, 14040, Note_on_c, 0, 72, 60
2, 14040, Note_on_c, 0, 66, 45
2, 14094, Note_on_c, 0, 73, 60
2, 14094, Note_on_c, 0, 65, 45
2, 14099, Note_on_c, 0, 66, 0
2, 14099, Note_on_c, 0, 72, 0
2, 14150, Note_on_c, 0, 70, 60
2, 14159, Note_on_c, 0, 73, 0
2, 14194, Note_on_c, 0, 65, 0
2, 14209, Note_on_c, 0, 64, 60
2, 14217, Note_on_c, 0, 70, 0
2, 14265, Note_on_c, 0, 70, 75
2, 14319, Note_on_c, 0, 64, 0
2, 14322, Note_on_c, 0, 61, 60
2, 14379, Note_on_c, 0, 68, 60
2, 14393, Note_on_c, 0, 70, 0
2, 14439, Note_on_c, 0, 67, 60
2, 14445, Note_on_c, 0, 68, 0
2, 14493, Note_on_c, 0, 70, 60
2, 14503, Note_on_c, 0, 67, 0
2, 14542, Note_on_c, 0, 61, 0
2, 14547, Note_on_c, 0, 65, 60
2, 14547, Note_on_c, 0, 58, 45
2, 14557, Note_on_c, 0, 70, 0
2, 14598, Note_on_c, 0, 70, 60
2, 14607, Note_on_c, 0, 65, 0
2, 14645, Note_on_c, 0, 70, 0
2, 14652, Note_on_c, 0, 58, 0
2, 14654, Note_on_c, 0, 64, 60
2, 14654, Note_on_c, 0, 55, 45
2, 14705, Note_on_c, 0, 72, 60
2, 14712, Note_on_c, 0, 64, 0
2, 14726, Note_on_c, 0, 72, 0
2, 14749, Note_on_c, 0, 72, 60
2, 14754, Note_on_c, 0, 55, 0
2, 14763, Note_on_c, 0, 70, 70
2, 14763, Note_on_c, 0, 61, 45
2, 14767, Note_on_c, 0, 72, 0
2, 14813, Note_on_c, 0, 68, 60
2, 14820, Note_on_c, 0, 70, 0
2, 14863, Note_on_c, 0, 61, 0
2, 14869, Note_on_c, 0, 67, 60
2, 14879, Note_on_c, 0, 68, 0
2, 14921, Note_on_c, 0, 70, 60
2, 14929, Note_on_c, 0, 67, 0
2, 14976, Note_on_c, 0, 65, 60
2, 14976, Note_on_c, 0, 58, 45
2, 14985, Note_on_c, 0, 70, 0
2, 15026, Note_on_c, 0, 70, 60
2, 15035, Note_on_c, 0, 65, 0
2, 15076, Note_on_c, 0, 70, 0
2, 15076, Note_on_c, 0, 58, 0
2, 15086, Note_on_c, 0, 64, 60
2, 15086, Note_on_c, 0, 55, 45
2, 15185, Note_on_c, 0, 55, 0
2, 15185, Note_on_c, 0, 64, 0
2, 15360, Control_c, 0, 11, 95
2, 15408, Note_on_c, 0, 77, 90
2, 15408, Note_on_c, 0, 68, 90
2, 15488, Note_on_c, 0, 68, 0
2, 15488, Note_on_c, 0, 77, 0
2, 15518, Note_on_c, 0, 76, 90
2, 15518, Note_on_c, 0, 67, 90
2, 15638, Note_on_c, 0, 67, 0
2, 15638, Note_on_c, 0, 76, 0
2, 19320, Control_c, 0, 11, 60
2, 19340, Note_on_c, 0, 70, 35
2, 19397, Note_on_c, 0, 75, 70
2, 19397, Note_on_c, 0, 67, 35
2, 19400, Note_on_c, 0, 70, 0
2, 19454, Note_on_c, 0, 70, 35
2, 19457, Note_on_c, 0, 67, 0
2, 19512, Note_on_c, 0, 75, 0
2, 19512, Note_on_c, 0, 73, 70
2, 19512, Note_on_c, 0, 68, 35
2, 19514, Note_on_c, 0, 70, 0
2, 19570, Note_on_c, 0, 65, 35
2, 19572, Note_on_c, 0, 68, 0
2, 19628, Note_on_c, 0, 63, 35
2, 19630, Note_on_c, 0, 65, 0
2, 19686, Note_on_c, 0, 70, 35
2, 19688, Note_on_c, 0, 63, 0
2, 19743, Note_on_c, 0, 73, 0
2, 19746, Note_on_c, 0, 70, 0
2, 19753, Note_on_c, 0, 72, 70
2, 19753, Note_on_c, 0, 68, 35
2, 19810, Note_on_c, 0, 63, 35
2, 19813, Note_on_c, 0, 68, 0
2, 19867, Note_on_c, 0, 73, 70
2, 19867, Note_on_c, 0, 68, 35
2, 19868, Note_on_c, 0, 72, 0
2, 19870, Note_on_c, 0, 63, 0
2, 19922, Note_on_c, 0, 63, 35
2, 19927, Note_on_c, 0, 68, 0
2, 19944, Note_on_c, 0, 72, 75
2, 19958, Note_on_c, 0, 73, 0
2, 19966, Note_on_c, 0, 72, 0
2, 19978, Note_on_c, 0, 72, 80
2, 19978, Note_on_c, 0, 67, 35
2, 19982, Note_on_c, 0, 63, 0
2, 20034, Note_on_c, 0, 63, 35
2, 20038, Note_on_c, 0, 67, 0
2, 20090, Note_on_c, 0, 67, 35
2, 20094, Note_on_c, 0, 63, 0
2, 20150, Note_on_c, 0, 67, 0
2, 20150, Note_on_c, 0, 72, 0
2, 20156, Note_on_c, 0, 70, 70
2, 20156, Note_on_c, 0, 63, 35
2, 20216, Note_on_c, 0, 63, 0
2, 20218, Note_on_c, 0, 68, 70
2, 20220, Note_on_c, 0, 70, 0
2, 20273, Note_on_c, 0, 63, 35
2, 20329, Note_on_c, 0, 70, 70
2, 20329, Note_on_c, 0, 60, 35
2, 20332, Note_on_c, 0, 68, 0
2, 20333, Note_on_c, 0, 63, 0
2, 20389, Note_on_c, 0, 60, 0
2, 20389, Note_on_c, 0, 63, 35
2, 20410, Note_on_c, 0, 70, 0
2, 20414, Note_on_c, 0, 72, 75
2, 20437, Note_on_c, 0, 72, 0
2, 20449, Note_on_c, 0, 63, 0
2, 20452, Note_on_c, 0, 73, 80
2, 20452, Note_on_c, 0, 67, 35
2, 20507, Note_on_c, 0, 63, 35
2, 20512, Note_on_c, 0, 67, 0
2, 20543, Note_on_c, 0, 73, 0
2, 20563, Note_on_c, 0, 73, 80
2, 20563, Note_on_c, 0, 67, 35
2, 20567, Note_on_c, 0, 63, 0
2, 20613, Note_on_c, 0, 73, 0
2, 20621, Note_on_c, 0, 63, 35
2, 20623, Note_on_c, 0, 67, 0
2, 20650, Note_on_c, 0, 73, 80
2, 20674, Note_on_c, 0, 73, 0
2, 20679, Note_on_c, 0, 72, 75
2, 20679, Note_on_c, 0, 68, 35
2, 20681, Note_on_c, 0, 63, 0
2, 20734, Note_on_c, 0, 63, 35
2, 20739, Note_on_c, 0, 68, 0
2, 20779, Note_on_c, 0, 72, 0
2, 20790, Note_on_c, 0, 80, 90
2, 20790, Note_on_c, 0, 72, 35
2, 20794, Note_on_c, 0, 63, 0
2, 20846, Note_on_c, 0, 68, 35
2, 20890, Note_on_c, 0, 72, 0
2, 20902, Note_on_c, 0, 79, 90
2, 20902, Note_on_c, 0, 75, 35
2, 20903, Note_on_c, 0, 80, 0
2, 20906, Note_on_c, 0, 68, 0
2, 20958, Note_on_c, 0, 70, 35
2, 20962, Note_on_c, 0, 75, 0
2, 20977, Note_on_c, 0, 79, 0
2, 20989, Note_on_c, 0, 79, 78
2, 21012, Note_on_c, 0, 79, 0
2, 21014, Note_on_c, 0, 77, 85
2, 21014, Note_on_c, 0, 74, 35
2, 21018, Note_on_c, 0, 70, 0
2, 21070, Note_on_c, 0, 70, 35
2, 21074, Note_on_c, 0, 74, 0
2, 21090, Note_on_c, 0, 77, 0
2, 21094, Note_on_c, 0, 75, 80
2, 21112, Note_on_c, 0, 75, 0
2, 21126, Note_on_c, 0, 75, 85
2, 21126, Note_on_c, 0, 67, 35
2, 21130, Note_on_c, 0, 70, 0
2, 21182, Note_on_c, 0, 70, 35
2, 21186, Note_on_c, 0, 67, 0
2, 21238, Note_on_c, 0, 67, 35
2, 21242, Note_on_c, 0, 70, 0
2, 21293, Note_on_c, 0, 76, 80
2, 21293, Note_on_c, 0, 70, 35
2, 21298, Note_on_c, 0, 67, 0
2, 21301, Note_on_c, 0, 75, 0
2, 21353, Note_on_c, 0, 70, 0
2, 21354, Control_c, 0, 11, 60
2, 21354, Note_on_c, 0, 77, 85
2, 21354, Note_on_c, 0, 75, 60
2, 21354, Note_on_c, 0, 65, 60
2, 21357, Note_on_c, 0, 76, 0
2, 21383, Control_c, 0, 11, 61
2, 21404, Note_on_c, 0, 65, 0
2, 21404, Note_on_c, 0, 75, 0
2, 21407, Note_on_c, 0, 75, 60
2, 21407, Note_on_c, 0, 65, 60
2, 21413, Control_c, 0, 11, 62
2, 21434, Note_on_c, 0, 77, 0
2, 21443, Control_c, 0, 11, 63
2, 21457, Note_on_c, 0, 65, 0
2, 21457, Note_on_c, 0, 75, 0
2, 21461, Note_on_c, 0, 77, 60
2, 21461, Note_on_c, 0, 75, 60
2, 21461, Note_on_c, 0, 65, 60
2, 21472, Control_c, 0, 11, 64
2, 21502, Control_c, 0, 11, 65
2, 21511, Note_on_c, 0, 65, 0
2, 21511, Note_on_c, 0, 75, 0
2, 21514, Note_on_c, 0, 75, 60
2, 21514, Note_on_c, 0, 65, 60
2, 21521, Note_on_c, 0, 77, 0
2, 21532, Control_c, 0, 11, 66
2, 21540, Note_on_c, 0, 77, 60
2, 21561, Control_c, 0, 11, 67
2, 21564, Note_on_c, 0, 65, 0
2, 21564, Note_on_c, 0, 75, 0
2, 21565, Note_on_c, 0, 77, 0
2, 21574, Note_on_c, 0, 77, 85
2, 21574, Note_on_c, 0, 73, 65
2, 21574, Note_on_c, 0, 65, 65
2, 21591, Control_c, 0, 11, 68
2, 21621, Control_c, 0, 11, 69
2, 21624, Note_on_c, 0, 65, 0
2, 21624, Note_on_c, 0, 73, 0
2, 21634, Note_on_c, 0, 73, 65
2, 21651, Control_c, 0, 11, 70
2, 21680, Control_c, 0, 11, 71
2, 21681, Note_on_c, 0, 77, 0
2, 21684, Note_on_c, 0, 73, 0
2, 21691, Note_on_c, 0, 85, 96
2, 21691, Note_on_c, 0, 77, 70
2, 21691, Note_on_c, 0, 73, 70
2, 21710, Control_c, 0, 11, 72
2, 21713, Note_on_c, 0, 85, 0
2, 21718, Note_on_c, 0, 85, 70
2, 21740, Note_on_c, 0, 85, 0
2, 21740, Control_c, 0, 11, 73
2, 21741, Note_on_c, 0, 73, 0
2, 21741, Note_on_c, 0, 77, 0
2, 21746, Note_on_c, 0, 85, 70
2, 21746, Note_on_c, 0, 77, 70
2, 21746, Note_on_c, 0, 73, 70
2, 21768, Note_on_c, 0, 85, 0
2, 21769, Control_c, 0, 11, 74
2, 21773, Note_on_c, 0, 85, 70
2, 21795, Note_on_c, 0, 85, 0
2, 21796, Note_on_c, 0, 73, 0
2, 21796, Note_on_c, 0, 77, 0
2, 21799, Control_c, 0, 11, 75
2, 21801, Note_on_c, 0, 85, 90
2, 21801, Note_on_c, 0, 75, 70
2, 21823, Note_on_c, 0, 85, 0
2, 21828, Note_on_c, 0, 85, 70
2, 21829, Control_c, 0, 11, 76
2, 21850, Note_on_c, 0, 85, 0
2, 21851, Note_on_c, 0, 75, 0
2, 21855, Note_on_c, 0, 85, 70
2, 21855, Note_on_c, 0, 75, 70
2, 21858, Control_c, 0, 11, 77
2, 21877, Note_on_c, 0, 85, 0
2, 21882, Note_on_c, 0, 85, 70
2, 21888, Control_c, 0, 11, 78
2, 21904, Note_on_c, 0, 85, 0
2, 21905, Note_on_c, 0, 75, 0
2, 21911, Note_on_c, 0, 84, 85
2, 21911, Note_on_c, 0, 75, 70
2, 21918, Control_c, 0, 11, 79
2, 21933, Note_on_c, 0, 84, 0
2, 21938, Note_on_c, 0, 84, 70
2, 21948, Control_c, 0, 11, 80
2, 21960, Note_on_c, 0, 84, 0
2, 21961, Note_on_c, 0, 75, 0
2, 21965, Note_on_c, 0, 84, 70
2, 21965, Note_on_c, 0, 75, 70
2, 21977, Control_c, 0, 11, 81
2, 21987, Note_on_c, 0, 84, 0
2, 21992, Note_on_c, 0, 84, 80
2, 22007, Control_c, 0, 11, 82
2, 22014, Note_on_c, 0, 84, 0
2, 22015, Note_on_c, 0, 75, 0
2, 22021, Note_on_c, 0, 84, 70
2, 22021, Note_on_c, 0, 73, 70
2, 22037, Control_c, 0, 11, 83
2, 22043, Note_on_c, 0, 84, 0
2, 22048, Note_on_c, 0, 84, 70
2, 22066, Control_c, 0, 11, 84
2, 22070, Note_on_c, 0, 84, 0
2, 22071, Note_on_c, 0, 73, 0
2, 22075, Note_on_c, 0, 84, 70
2, 22075, Note_on_c, 0, 73, 70
2, 22096, Control_c, 0, 11, 85
2, 22097, Note_on_c, 0, 84, 0
2, 22102, Note_on_c, 0, 84, 70
2, 22124, Note_on_c, 0, 84, 0
2, 22125, Note_on_c, 0, 73, 0
2, 22126, Control_c, 0, 11, 86
2, 22131, Note_on_c, 0, 82, 85
2, 22131, Note_on_c, 0, 73, 70
2, 22153, Note_on_c, 0, 82, 0
2, 22155, Control_c, 0, 11, 87
2, 22159, Note_on_c, 0, 82, 70
2, 22181, Note_on_c, 0, 82, 0
2, 22181, Note_on_c, 0, 73, 0
2, 22185, Control_c, 0, 11, 88
2, 22187, Note_on_c, 0, 82, 70
2, 22187, Note_on_c, 0, 73, 70
2, 22209, Note_on_c, 0, 82, 0
2, 22215, Control_c, 0, 11, 89
2, 22215, Note_on_c, 0, 82, 70
2, 22237, Note_on_c, 0, 82, 0
2, 22237, Note_on_c, 0, 73, 0
2, 22245, Control_c, 0, 11, 90
2, 22245, Note_on_c, 0, 82, 85
2, 22320, Control_c, 0, 11, 75
2, 22342, Note_on_c, 0, 82, 0
2, 22352, Note_on_c, 0, 77, 85
2, 22352, Note_on_c, 0, 67, 60
2, 22460, Note_on_c, 0, 68, 65
2, 22466, Note_on_c, 0, 67, 0
2, 22511, Note_on_c, 0, 75, 80
2, 22515, Note_on_c, 0, 77, 0
2, 22563, Note_on_c, 0, 75, 0
2, 22568, Note_on_c, 0, 73, 80
2, 22568, Note_on_c, 0, 63, 65
2, 22574, Note_on_c, 0, 68, 0
2, 22622, Note_on_c, 0, 73, 0
2, 22623, Note_on_c, 0, 72, 75
2, 22681, Note_on_c, 0, 70, 75
2, 22681, Note_on_c, 0, 65, 65
2, 22682, Note_on_c, 0, 72, 0
2, 22682, Note_on_c, 0, 63, 0
2, 22771, Note_on_c, 0, 70, 0
2, 22781, Note_on_c, 0, 65, 0
2, 22788, Control_c, 0, 11, 65
2, 22788, Note_on_c, 0, 77, 75
2, 22788, Note_on_c, 0, 67, 57
2, 22896, Note_on_c, 0, 68, 60
2, 22902, Note_on_c, 0, 67, 0
2, 22944, Note_on_c, 0, 75, 75
2, 22946, Note_on_c, 0, 77, 0
2, 22972, Note_on_c, 0, 75, 0
2, 22987, Note_on_c, 0, 75, 60
2, 23004, Note_on_c, 0, 73, 75
2, 23004, Note_on_c, 0, 63, 50
2, 23009, Note_on_c, 0, 75, 0
2, 23010, Note_on_c, 0, 68, 0
2, 23055, Note_on_c, 0, 72, 72
2, 23064, Note_on_c, 0, 73, 0
2, 23111, Note_on_c, 0, 72, 0
2, 23113, Note_on_c, 0, 70, 70
2, 23113, Note_on_c, 0, 65, 55
2, 23117, Note_on_c, 0, 63, 0
2, 23227, Note_on_c, 0, 65, 0
2, 23233, Note_on_c, 0, 70, 0
2, 23233, Control_c, 0, 11, 75
2, 23233, Note_on_c, 0, 71, 85
2, 23233, Note_on_c, 0, 56, 60
2, 23450, Note_on_c, 0, 70, 80
2, 23450, Note_on_c, 0, 58, 60
2, 23454, Note_on_c, 0, 56, 0
2, 23454, Note_on_c, 0, 71, 0
2, 23500, Note_on_c, 0, 70, 0
2, 23500, Note_on_c, 0, 58, 0
2, 23501, Note_on_c, 0, 68, 80
2, 23501, Note_on_c, 0, 59, 50
2, 23557, Note_on_c, 0, 59, 0
2, 23557, Note_on_c, 0, 68, 0
2, 23561, Note_on_c, 0, 67, 75
2, 23561, Note_on_c, 0, 58, 55
2, 23668, Note_on_c, 0, 58, 0
2, 23668, Note_on_c, 0, 67, 0
2, 23671, Note_on_c, 0, 70, 85
2, 23671, Note_on_c, 0, 67, 55
2, 23671, Note_on_c, 0, 61, 55
2, 23781, Note_on_c, 0, 61, 0
2, 23781, Note_on_c, 0, 60, 60
2, 23832, Note_on_c, 0, 68, 80
2, 23832, Note_on_c, 0, 65, 55
2, 23845, Note_on_c, 0, 67, 0
2, 23845, Note_on_c, 0, 70, 0
2, 23886, Note_on_c, 0, 68, 0
2, 23886, Note_on_c, 0, 65, 0
2, 23890, Note_on_c, 0, 67, 80
2, 23890, Note_on_c, 0, 63, 55
2, 23890, Note_on_c, 0, 58, 55
2, 23895, Note_on_c, 0, 60, 0
2, 23932, Note_on_c, 0, 67, 0
2, 23932, Note_on_c, 0, 63, 0
2, 23941, Note_on_c, 0, 65, 77
2, 23941, Note_on_c, 0, 61, 50
2, 24004, Note_on_c, 0, 58, 0
2, 24005, Note_on_c, 0, 63, 75
2, 24005, Note_on_c, 0, 60, 50
2, 24010, Note_on_c, 0, 61, 0
2, 24010, Note_on_c, 0, 65, 0
2, 24075, Note_on_c, 0, 63, 0
2, 24075, Note_on_c, 0, 60, 0
2, 24480, Control_c, 0, 11, 50
2, 24546, Note_on_c, 0, 73, 50
2, 24546, Note_on_c, 0, 70, 40
2, 24649, Note_on_c, 0, 72, 50
2, 24649, Note_on_c, 0, 68, 40
2, 24656, Note_on_c, 0, 70, 0
2, 24656, Note_on_c, 0, 73, 0
2, 24759, Note_on_c, 0, 72, 0
2, 24759, Note_on_c, 0, 68, 0
2, 24764, Note_on_c, 0, 73, 50
2, 24764, Note_on_c, 0, 65, 50
2, 24871, Note_on_c, 0, 70, 50
2, 24871, Note_on_c, 0, 67, 40
2, 24874, Note_on_c, 0, 65, 0
2, 24874, Note_on_c, 0, 73, 0
2, 24960, Control_c, 0, 11, 70
2, 24971, Note_on_c, 0, 70, 0
2, 24971, Note_on_c, 0, 67, 0
2, 24983, Note_on_c, 0, 73, 70
2, 24983, Note_on_c, 0, 64, 60
2, 25040, Note_on_c, 0, 73, 0
2, 25042, Note_on_c, 0, 75, 60
2, 25065, Note_on_c, 0, 75, 0
2, 25066, Note_on_c, 0, 73, 60
2, 25094, Note_on_c, 0, 73, 0
2, 25095, Note_on_c, 0, 72, 60
2, 25095, Note_on_c, 0, 63, 60
2, 25098, Note_on_c, 0, 64, 0
2, 25175, Note_on_c, 0, 63, 0
2, 25175, Note_on_c, 0, 72, 0
2, 25203, Note_on_c, 0, 73, 70
2, 25203, Note_on_c, 0, 64, 60
2, 25261, Note_on_c, 0, 73, 0
2, 25265, Note_on_c, 0, 75, 60
2, 25287, Note_on_c, 0, 73, 60
2, 25289, Note_on_c, 0, 75, 0
2, 25316, Note_on_c, 0, 73, 0
2, 25318, Note_on_c, 0, 72, 60
2, 25318, Note_on_c, 0, 63, 60
2, 25323, Note_on_c, 0, 64, 0
2, 25398, Note_on_c, 0, 63, 0
2, 25398, Note_on_c, 0, 72, 0
2, 25428, Control_c, 0, 11, 70
2, 25428, Note_on_c, 0, 73, 70
2, 25428, Note_on_c, 0, 67, 60
2, 25453, Control_c, 0, 11, 71
2, 25479, Control_c, 0, 11, 72
2, 25505, Control_c, 0, 11, 73
2, 25509, Note_on_c, 0, 72, 60
2, 25509, Note_on_c, 0, 68, 50
2, 25518, Note_on_c, 0, 67, 0
2, 25518, Note_on_c, 0, 73, 0
2, 25530, Control_c, 0, 11, 74
2, 25532, Note_on_c, 0, 68, 0
2, 25539, Note_on_c, 0, 72, 0
2, 25542, Note_on_c, 0, 68, 60
2, 25542, Note_on_c, 0, 65, 59
2, 25556, Control_c, 0, 11, 75
2, 25582, Control_c, 0, 11, 76
2, 25607, Control_c, 0, 11, 77
2, 25633, Control_c, 0, 11, 78
2, 25649, Note_on_c, 0, 70, 60
2, 25649, Note_on_c, 0, 67, 50
2, 25652, Note_on_c, 0, 65, 0
2, 25652, Note_on_c, 0, 68, 0
2, 25659, Control_c, 0, 11, 79
2, 25685, Control_c, 0, 11, 80
2, 25710, Control_c, 0, 11, 81
2, 25736, Control_c, 0, 11, 82
2, 25738, Note_on_c, 0, 70, 0
2, 25738, Note_on_c, 0, 67, 0
2, 25761, Note_on_c, 0, 72, 80
2, 25761, Note_on_c, 0, 67, 60
2, 25762, Control_c, 0, 11, 83
2, 25787, Control_c, 0, 11, 84
2, 25801, Note_on_c, 0, 67, 0
2, 25813, Control_c, 0, 11, 85
2, 25817, Note_on_c, 0, 67, 60
2, 25839, Control_c, 0, 11, 86
2, 25857, Note_on_c, 0, 67, 0
2, 25859, Note_on_c, 0, 72, 0
2, 25864, Control_c, 0, 11, 87
2, 25874, Note_on_c, 0, 71, 80
2, 25874, Note_on_c, 0, 67, 60
2, 25890, Control_c, 0, 11, 88
2, 25898, Note_on_c, 0, 72, 85
2, 25902, Note_on_c, 0, 71, 0
2, 25914, Note_on_c, 0, 67, 0
2, 25916, Control_c, 0, 11, 89
2, 25925, Note_on_c, 0, 72, 0
2, 25925, Note_on_c, 0, 73, 85
2, 25925, Note_on_c, 0, 67, 60
2, 25942, Control_c, 0, 11, 90
2, 25952, Note_on_c, 0, 73, 0
2, 25952, Note_on_c, 0, 72, 80
2, 25965, Note_on_c, 0, 67, 0
2, 25967, Control_c, 0, 11, 91
2, 25987, Note_on_c, 0, 72, 0
2, 25988, Note_on_c, 0, 77, 85
2, 25988, Note_on_c, 0, 65, 65
2, 25993, Control_c, 0, 11, 92
2, 26019, Control_c, 0, 11, 93
2, 26028, Note_on_c, 0, 65, 0
2, 26039, Note_on_c, 0, 65, 65
2, 26044, Control_c, 0, 11, 94
2, 26070, Control_c, 0, 11, 95
2, 26079, Note_on_c, 0, 65, 0
2, 26082, Note_on_c, 0, 77, 0
2, 26091, Note_on_c, 0, 76, 85
2, 26091, Note_on_c, 0, 65, 65
2, 26096, Control_c, 0, 11, 96
2, 26114, Note_on_c, 0, 76, 0
2, 26115, Note_on_c, 0, 77, 85
2, 26121, Control_c, 0, 11, 97
2, 26131, Note_on_c, 0, 65, 0
2, 26140, Note_on_c, 0, 78, 90
2, 26141, Note_on_c, 0, 65, 65
2, 26142, Note_on_c, 0, 77, 0
2, 26147, Control_c, 0, 11, 98
2, 26164, Note_on_c, 0, 78, 0
2, 26166, Note_on_c, 0, 77, 85
2, 26173, Control_c, 0, 11, 99
2, 26181, Note_on_c, 0, 65, 0
2, 26195, Note_on_c, 0, 77, 0
2, 26199, Control_c, 0, 11, 100
2, 26199, Note_on_c, 0, 82, 90
2, 26199, Note_on_c, 0, 65, 70
2, 26217, Control_c, 0, 11, 99
2, 26235, Control_c, 0, 11, 98
2, 26239, Note_on_c, 0, 65, 0
2, 26253, Control_c, 0, 11, 97
2, 26253, Note_on_c, 0, 65, 70
2, 26271, Control_c, 0, 11, 96
2, 26289, Control_c, 0, 11, 95
2, 26293, Note_on_c, 0, 65, 0
2, 26299, Note_on_c, 0, 82, 0
2, 26307, Control_c, 0, 11, 94
2, 26307, Note_on_c, 0, 84, 95
2, 26307, Note_on_c, 0, 67, 75
2, 26326, Control_c, 0, 11, 93
2, 26329, Note_on_c, 0, 84, 0
2, 26335, Note_on_c, 0, 82, 90
2, 26344, Control_c, 0, 11, 92
2, 26347, Note_on_c, 0, 67, 0
2, 26362, Control_c, 0, 11, 91
2, 26362, Note_on_c, 0, 79, 80
2, 26362, Note_on_c, 0, 67, 75
2, 26364, Note_on_c, 0, 82, 0
2, 26380, Control_c, 0, 11, 90
2, 26384, Note_on_c, 0, 79, 0
2, 26388, Note_on_c, 0, 75, 80
2, 26398, Control_c, 0, 11, 89
2, 26402, Note_on_c, 0, 67, 0
2, 26416, Control_c, 0, 11, 88
2, 26417, Note_on_c, 0, 75, 0
2, 26419, Note_on_c, 0, 87, 100
2, 26419, Note_on_c, 0, 68, 85
2, 26435, Control_c, 0, 11, 87
2, 26453, Control_c, 0, 11, 86
2, 26459, Note_on_c, 0, 68, 0
2, 26471, Control_c, 0, 11, 85
2, 26474, Note_on_c, 0, 68, 85
2, 26489, Control_c, 0, 11, 84
2, 26507, Control_c, 0, 11, 83
2, 26514, Note_on_c, 0, 68, 0
2, 26525, Control_c, 0, 11, 82
2, 26529, Note_on_c, 0, 75, 80
2, 26529, Note_on_c, 0, 68, 80
2, 26537, Note_on_c, 0, 87, 0
2, 26544, Control_c, 0, 11, 81
2, 26562, Control_c, 0, 11, 80
2, 26569, Note_on_c, 0, 68, 0
2, 26580, Control_c, 0, 11, 79
2, 26584, Note_on_c, 0, 68, 75
2, 26598, Control_c, 0, 11, 78
2, 26616, Control_c, 0, 11, 77
2, 26624, Note_on_c, 0, 68, 0
2, 26634, Control_c, 0, 11, 76
2, 26639, Note_on_c, 0, 75, 0
2, 26653, Control_c, 0, 11, 75
2, 26653, Note_on_c, 0, 68, 80
2, 26653, Note_on_c, 0, 65, 60
2, 26653, Note_on_c, 0, 56, 60
2, 26685, Control_c, 0, 11, 76
2, 26693, Note_on_c, 0, 56, 0
2, 26693, Note_on_c, 0, 65, 0
2, 26708, Note_on_c, 0, 65, 60
2, 26708, Note_on_c, 0, 56, 60
2, 26717, Control_c, 0, 11, 77
2, 26748, Note_on_c, 0, 56, 0
2, 26748, Note_on_c, 0, 65, 0
2, 26749, Control_c, 0, 11, 78
2, 26754, Note_on_c, 0, 68, 0
2, 26762, Note_on_c, 0, 67, 75
2, 26762, Note_on_c, 0, 65, 60
2, 26762, Note_on_c, 0, 56, 60
2, 26781, Control_c, 0, 11, 79
2, 26786, Note_on_c, 0, 68, 80
2, 26787, Note_on_c, 0, 67, 0
2, 26802, Note_on_c, 0, 65, 0
2, 26802, Note_on_c, 0, 56, 0
2, 26813, Control_c, 0, 11, 80
2, 26815, Note_on_c, 0, 68, 0
2, 26815, Note_on_c, 0, 70, 85
2, 26815, Note_on_c, 0, 65, 60
2, 26815, Note_on_c, 0, 56, 60
2, 26840, Note_on_c, 0, 68, 80
2, 26841, Note_on_c, 0, 70, 0
2, 26845, Control_c, 0, 11, 81
2, 26855, Note_on_c, 0, 65, 0
2, 26855, Note_on_c, 0, 56, 0
2, 26869, Note_on_c, 0, 68, 0
2, 26869, Note_on_c, 0, 73, 85
2, 26869, Note_on_c, 0, 65, 60
2, 26877, Control_c, 0, 11, 82
2, 26909, Note_on_c, 0, 65, 0
2, 26909, Control_c, 0, 11, 83
2, 26924, Note_on_c, 0, 65, 60
2, 26941, Control_c, 0, 11, 84
2, 26964, Note_on_c, 0, 65, 0
2, 26973, Note_on_c, 0, 73, 0
2, 26974, Control_c, 0, 11, 85
2, 26977, Note_on_c, 0, 72, 80
2, 26977, Note_on_c, 0, 65, 60
2, 26998, Note_on_c, 0, 72, 0
2, 27000, Note_on_c, 0, 73, 85
2, 27006, Control_c, 0, 11, 86
2, 27017, Note_on_c, 0, 65, 0
2, 27027, Note_on_c, 0, 73, 0
2, 27027, Note_on_c, 0, 75, 85
2, 27027, Note_on_c, 0, 65, 60
2, 27038, Control_c, 0, 11, 87
2, 27050, Note_on_c, 0, 75, 0
2, 27051, Note_on_c, 0, 73, 80
2, 27067, Note_on_c, 0, 65, 0
2, 27070, Control_c, 0, 11, 88
2, 27081, Note_on_c, 0, 73, 0
2, 27085, Note_on_c, 0, 72, 75
2, 27085, Note_on_c, 0, 64, 60
2, 27102, Control_c, 0, 11, 89
2, 27125, Note_on_c, 0, 64, 0
2, 27134, Control_c, 0, 11, 90
2, 27140, Note_on_c, 0, 64, 60
2, 27166, Control_c, 0, 11, 91
2, 27180, Note_on_c, 0, 64, 0
2, 27187, Note_on_c, 0, 72, 0
2, 27188, Note_on_c, 0, 80, 80
2, 27188, Note_on_c, 0, 64, 60
2, 27198, Control_c, 0, 11, 92
2, 27211, Note_on_c, 0, 79, 80
2, 27213, Note_on_c, 0, 80, 0
2, 27228, Note_on_c, 0, 64, 0
2, 27230, Control_c, 0, 11, 93
2, 27240, Note_on_c, 0, 76, 77
2, 27240, Note_on_c, 0, 64, 60
2, 27242, Note_on_c, 0, 79, 0
2, 27262, Control_c, 0, 11, 94
2, 27264, Note_on_c, 0, 76, 0
2, 27267, Note_on_c, 0, 72, 75
2, 27280, Note_on_c, 0, 64, 0
2, 27294, Note_on_c, 0, 72, 0
2, 27295, Control_c, 0, 11, 95
2, 27295, Note_on_c, 0, 84, 90
2, 27295, Note_on_c, 0, 65, 70
2, 27335, Note_on_c, 0, 65, 0
2, 27365, Note_on_c, 0, 84, 0
2, 27411, Note_on_c, 0, 77, 90
2, 27481, Note_on_c, 0, 77, 0
2, 27521, Note_on_c, 0, 82, 90
2, 27591, Note_on_c, 0, 82, 0
2, 27633, Note_on_c, 0, 76, 90
2, 27703, Note_on_c, 0, 76, 0
2, 27743, Note_on_c, 0, 80, 90
2, 27813, Note_on_c, 0, 80, 0
2, 27840, Control_c, 0, 11, 70
2, 27850, Note_on_c, 0, 73, 70
2, 27850, Note_on_c, 0, 65, 60
2, 27957, Note_on_c, 0, 65, 0
2, 27957, Note_on_c, 0, 73, 0
2, 27963, Note_on_c, 0, 72, 65
2, 27963, Note_on_c, 0, 60, 55
2, 28067, Note_on_c, 0, 70, 65
2, 28069, Note_on_c, 0, 72, 0
2, 28118, Note_on_c, 0, 70, 0
2, 28120, Note_on_c, 0, 68, 65
2, 28171, Note_on_c, 0, 68, 0
2, 28176, Note_on_c, 0, 67, 60
2, 28176, Note_on_c, 0, 58, 50
2, 28183, Note_on_c, 0, 60, 0
2, 28281, Note_on_c, 0, 58, 0
2, 28281, Note_on_c, 0, 67, 0
2, 28285, Note_on_c, 0, 65, 60
2, 28285, Note_on_c, 0, 56, 50
2, 28320, Control_c, 0, 11, 50
2, 28375, Note_on_c, 0, 56, 0
2, 28375, Note_on_c, 0, 65, 0
2, 28405, Note_on_c, 0, 65, 50
2, 28405, Note_on_c, 0, 61, 40
2, 28575, Note_on_c, 0, 61, 0
2, 28575, Note_on_c, 0, 65, 0
2, 28954, Note_on_c, 0, 65, 50
2, 28954, Note_on_c, 0, 61, 35
2, 29024, Note_on_c, 0, 61, 0
2, 29024, Note_on_c, 0, 65, 0
2, 29068, Note_on_c, 0, 65, 50
2, 29068, Note_on_c, 0, 58, 35
2, 29138, Note_on_c, 0, 58, 0
2, 29138, Note_on_c, 0, 65, 0
2, 29182, Note_on_c, 0, 65, 50
2, 29182, Note_on_c, 0, 61, 35
2, 29252, Note_on_c, 0, 61, 0
2, 29252, Note_on_c, 0, 65, 0
2, 29296, Note_on_c, 0, 65, 50
2, 29296, Note_on_c, 0, 58, 40
2, 29466, Note_on_c, 0, 58, 0
2, 29466, Note_on_c, 0, 65, 0
2, 29853, Note_on_c, 0, 65, 50
2, 29853, Note_on_c, 0, 61, 35
2, 29923, Note_on_c, 0, 61, 0
2, 29923, Note_on_c, 0, 65, 0
2, 29967, Note_on_c, 0, 65, 50
2, 29967, Note_on_c, 0, 58, 35
2, 30037, Note_on_c, 0, 58, 0
2, 30037, Note_on_c, 0, 65, 0
2, 30081, Note_on_c, 0, 65, 50
2, 30081, Note_on_c, 0, 61, 35
2, 30151, Note_on_c, 0, 61, 0
2, 30151, Note_on_c, 0, 65, 0
2, 30195, Note_on_c, 0, 65, 50
2, 30195, Note_on_c, 0, 58, 35
2, 30423, Note_on_c, 0, 61, 35
2, 30435, Note_on_c, 0, 58, 0
2, 30537, Note_on_c, 0, 58, 35
2, 30543, Note_on_c, 0, 61, 0
2, 30630, Note_on_c, 0, 65, 0
2, 30651, Note_on_c, 0, 65, 50
2, 30651, Note_on_c, 0, 61, 35
2, 30657, Note_on_c, 0, 58, 0
2, 30871, Note_on_c, 0, 61, 0
2, 30871, Note_on_c, 0, 65, 0
2, 30879, Note_on_c, 0, 65, 50
2, 30879, Note_on_c, 0, 58, 35
2, 31099, Note_on_c, 0, 58, 0
2, 31099, Note_on_c, 0, 65, 0
2, 31107, Note_on_c, 0, 65, 50
2, 31107, Note_on_c, 0, 61, 35
2, 31827, Note_on_c, 0, 61, 0
2, 31827, Note_on_c, 0, 65, 0
2, 31882, Note_on_c, 0, 65, 55
2, 31882, Note_on_c, 0, 61, 45
2, 32071, Note_on_c, 0, 64, 50
2, 32071, Note_on_c, 0, 60, 40
2, 32077, Note_on_c, 0, 61, 0
2, 32077, Note_on_c, 0, 65, 0
2, 32240, Note_on_c, 0, 65, 45
2, 32241, Note_on_c, 0, 64, 0
2, 32361, Note_on_c, 0, 60, 0
2, 32420, Note_on_c, 0, 65, 0
2, 35612, Note_on_c, 0, 67, 60
2, 35612, Note_on_c, 0, 58, 45
2, 35972, Note_on_c, 0, 58, 0
2, 35996, Note_on_c, 0, 61, 55
2, 35996, Note_on_c, 0, 58, 40
2, 36002, Note_on_c, 0, 67, 0
2, 36206, Note_on_c, 0, 58, 0
2, 36206, Note_on_c, 0, 61, 0
2, 36222, Note_on_c, 0, 61, 50
2, 36222, Note_on_c, 0, 58, 37
2, 36369, Note_on_c, 0, 60, 35
2, 36369, Note_on_c, 0, 56, 34
2, 36372, Note_on_c, 0, 58, 0
2, 36372, Note_on_c, 0, 61, 0
2, 36489, Note_on_c, 0, 60, 0
2, 36489, Note_on_c, 0, 56, 0
2, 37427, Note_on_c, 0, 55, 45
2, 37427, Note_on_c, 0, 64, 55
2, 37554, Note_on_c, 0, 56, 30
2, 37554, Note_on_c, 0, 65, 40
2, 37567, Note_on_c, 0, 64, 0
2, 37567, Note_on_c, 0, 55, 0
2, 37644, Note_on_c, 0, 56, 0
2, 37644, Note_on_c, 0, 65, 0
2, 38630, Note_on_c, 0, 64, 45
2, 38760, Note_on_c, 0, 65, 47
2, 38775, Note_on_c, 0, 64, 0
2, 38899, Note_on_c, 0, 67, 50
2, 38905, Note_on_c, 0, 65, 0
2, 39010, Note_on_c, 0, 68, 53
2, 39029, Note_on_c, 0, 67, 0
2, 39145, Note_on_c, 0, 56, 53
2, 39311, Note_on_c, 0, 60, 53
2, 39320, Note_on_c, 0, 56, 0
2, 39580, Note_on_c, 0, 65, 53
2, 39580, Note_on_c, 0, 61, 53
2, 39590, Note_on_c, 0, 68, 0
2, 39616, Note_on_c, 0, 60, 0
2, 39830, Note_on_c, 0, 58, 53
2, 39840, Note_on_c, 0, 61, 0
2, 40065, Note_on_c, 0, 58, 0
2, 40087, Note_on_c, 0, 61, 53
2, 40087, Note_on_c, 0, 58, 53
2, 40095, Note_on_c, 0, 65, 0
2, 40340, Note_on_c, 0, 65, 53
2, 40357, Note_on_c, 0, 61, 0
2, 40597, Note_on_c, 0, 58, 0
2, 40600, Note_on_c, 0, 65, 0
2, 40630, Note_on_c, 0, 67, 45
2, 40630, Note_on_c, 0, 58, 40
2, 40771, Note_on_c, 0, 65, 45
2, 40771, Note_on_c, 0, 56, 37
2, 40785, Note_on_c, 0, 58, 0
2, 40785, Note_on_c, 0, 67, 0
2, 40923, Note_on_c, 0, 64, 45
2, 40923, Note_on_c, 0, 55, 35
2, 40936, Note_on_c, 0, 65, 0
2, 40936, Note_on_c, 0, 56, 0
2, 41043, Note_on_c, 0, 64, 0
2, 41043, Note_on_c, 0, 55, 0
2, 41971, Note_on_c, 0, 64, 55
2, 41971, Note_on_c, 0, 58, 45
2, 42106, Note_on_c, 0, 56, 30
2, 42106, Note_on_c, 0, 65, 35
2, 42136, Note_on_c, 0, 58, 0
2, 42136, Note_on_c, 0, 64, 0
2, 42196, Note_on_c, 0, 56, 0
2, 42196, Note_on_c, 0, 65, 0
2, 42870, Note_on_c, 0, 68, 45
2, 42870, Note_on_c, 0, 60, 45
2, 43150, Note_on_c, 0, 60, 0
2, 43179, Note_on_c, 0, 67, 45
2, 43179, Note_on_c, 0, 60, 45
2, 43190, Note_on_c, 0, 68, 0
2, 43349, Note_on_c, 0, 67, 0
2, 44171, Note_on_c, 0, 58, 45
2, 44179, Note_on_c, 0, 60, 0
2, 44286, Note_on_c, 0, 58, 0
2, 44307, Note_on_c, 0, 58, 45
2, 44685, Note_on_c, 0, 56, 45
2, 44697, Note_on_c, 0, 58, 0
2, 44817, Note_on_c, 0, 61, 55
2, 44855, Note_on_c, 0, 56, 0
2, 45177, Note_on_c, 0, 61, 0
2, 45207, Note_on_c, 0, 67, 57
2, 45207, Note_on_c, 0, 61, 50
2, 45335, Note_on_c, 0, 68, 60
2, 45335, Note_on_c, 0, 60, 55
2, 45342, Note_on_c, 0, 61, 0
2, 45342, Note_on_c, 0, 67, 0
2, 45472, Note_on_c, 0, 67, 60
2, 45472, Note_on_c, 0, 61, 60
2, 45475, Note_on_c, 0, 68, 0
2, 45475, Note_on_c, 0, 60, 0
2, 45594, Note_on_c, 0, 58, 60
2, 45602, Note_on_c, 0, 61, 0
2, 45723, Note_on_c, 0, 65, 60
2, 45723, Note_on_c, 0, 56, 60
2, 45729, Note_on_c, 0, 58, 0
2, 45742, Note_on_c, 0, 67, 0
2, 45843, Note_on_c, 0, 65, 0
2, 45843, Note_on_c, 0, 56, 0
2, 45883, Note_on_c, 0, 65, 70
2, 45883, Note_on_c, 0, 56, 60
2, 46483, Note_on_c, 0, 56, 0
2, 46483, Note_on_c, 0, 65, 0
2, 46696, Note_on_c, 0, 65, 60
2, 46696, Note_on_c, 0, 59, 50
2, 46857, Note_on_c, 0, 64, 55
2, 46857, Note_on_c, 0, 60, 45
2, 46866, Note_on_c, 0, 59, 0
2, 46866, Note_on_c, 0, 65, 0
2, 46967, Note_on_c, 0, 64, 0
2, 46967, Note_on_c, 0, 60, 0
2, 47122, Note_on_c, 0, 65, 55
2, 47122, Note_on_c, 0, 68, 50
2, 47367, Note_on_c, 0, 60, 60
2, 47367, Note_on_c, 0, 55, 55
2, 47372, Note_on_c, 0, 68, 0
2, 47372, Note_on_c, 0, 65, 0
2, 47477, Note_on_c, 0, 60, 0
2, 47477, Note_on_c, 0, 55, 0
2, 47603, Note_on_c, 0, 68, 65
2, 47603, Note_on_c, 0, 65, 60
2, 47838, Note_on_c, 0, 67, 65
2, 47838, Note_on_c, 0, 64, 60
2, 47853, Note_on_c, 0, 65, 0
2, 47853, Note_on_c, 0, 68, 0
2, 47948, Note_on_c, 0, 67, 0
2, 47948, Note_on_c, 0, 64, 0
2, 48071, Note_on_c, 0, 65, 70
2, 48306, Note_on_c, 0, 67, 55
2, 48306, Note_on_c, 0, 60, 50
2, 48311, Note_on_c, 0, 65, 0
2, 48416, Note_on_c, 0, 60, 0
2, 48416, Note_on_c, 0, 67, 0
2, 49050, Control_c, 0, 11, 60
2, 49056, Note_on_c, 0, 61, 55
2, 49056, Note_on_c, 0, 58, 45
2, 49306, Note_on_c, 0, 60, 50
2, 49306, Note_on_c, 0, 56, 40
2, 49316, Note_on_c, 0, 58, 0
2, 49316, Note_on_c, 0, 61, 0
2, 49416, Note_on_c, 0, 60, 0
2, 49416, Note_on_c, 0, 56, 0
2, 50044, Note_on_c, 0, 61, 55
2, 50044, Note_on_c, 0, 58, 45
2, 50293, Note_on_c, 0, 60, 50
2, 50293, Note_on_c, 0, 56, 40
2, 50309, Note_on_c, 0, 58, 0
2, 50309, Note_on_c, 0, 61, 0
2, 50403, Note_on_c, 0, 60, 0
2, 50403, Note_on_c, 0, 56, 0
2, 50905, Note_on_c, 0, 62, 60
2, 50905, Note_on_c, 0, 59, 55
2, 51139, Note_on_c, 0, 67, 60
2, 51139, Note_on_c, 0, 58, 55
2, 51165, Note_on_c, 0, 59, 0
2, 51165, Note_on_c, 0, 62, 0
2, 51262, Note_on_c, 0, 65, 55
2, 51262, Note_on_c, 0, 56, 50
2, 51269, Note_on_c, 0, 67, 0
2, 51269, Note_on_c, 0, 58, 0
2, 51372, Note_on_c, 0, 65, 0
2, 51372, Note_on_c, 0, 56, 0
2, 51381, Note_on_c, 0, 62, 70
2, 51381, Note_on_c, 0, 59, 60
2, 51652, Note_on_c, 0, 67, 60
2, 51652, Note_on_c, 0, 58, 55
2, 51661, Note_on_c, 0, 59, 0
2, 51661, Note_on_c, 0, 62, 0
2, 51761, Note_on_c, 0, 60, 55
2, 51761, Note_on_c, 0, 56, 55
2, 51762, Note_on_c, 0, 67, 0
2, 51762, Note_on_c, 0, 58, 0
2, 52001, Note_on_c, 0, 65, 60
2, 52011, Note_on_c, 0, 60, 0
2, 52011, Note_on_c, 0, 56, 0
2, 52231, Note_on_c, 0, 65, 0
2, 52239, Note_on_c, 0, 68, 65
2, 52239, Note_on_c, 0, 65, 60
2, 52709, Note_on_c, 0, 65, 0
2, 52727, Note_on_c, 0, 74, 80
2, 52727, Note_on_c, 0, 65, 70
2, 52729, Note_on_c, 0, 68, 0
2, 52837, Note_on_c, 0, 65, 0
2, 52837, Note_on_c, 0, 74, 0
2, 53637, Note_on_c, 0, 65, 50
2, 53637, Note_on_c, 0, 62, 45
2, 53800, Note_on_c, 0, 64, 45
2, 53800, Note_on_c, 0, 60, 40
2, 53807, Note_on_c, 0, 62, 0
2, 53807, Note_on_c, 0, 65, 0
2, 53910, Note_on_c, 0, 64, 0
2, 53910, Note_on_c, 0, 60, 0
2, 53930, Control_c, 0, 11, 50
2, 53980, Note_on_c, 0, 65, 55
2, 53980, Note_on_c, 0, 61, 50
2, 54245, Note_on_c, 0, 63, 50
2, 54255, Note_on_c, 0, 61, 0
2, 54255, Note_on_c, 0, 65, 0
2, 54373, Note_on_c, 0, 68, 50
2, 54390, Note_on_c, 0, 63, 0
2, 54483, Note_on_c, 0, 68, 0
2, 54503, Note_on_c, 0, 72, 55
2, 54503, Note_on_c, 0, 56, 50
2, 54769, Note_on_c, 0, 70, 45
2, 54778, Note_on_c, 0, 56, 0
2, 54778, Note_on_c, 0, 72, 0
2, 54894, Note_on_c, 0, 55, 40
2, 54894, Note_on_c, 0, 63, 40
2, 54899, Note_on_c, 0, 70, 0
2, 54974, Note_on_c, 0, 63, 0
2, 54974, Note_on_c, 0, 55, 0
2, 55061, Note_on_c, 0, 60, 65
2, 55061, Note_on_c, 0, 57, 55
2, 55316, Note_on_c, 0, 65, 50
2, 55316, Note_on_c, 0, 56, 45
2, 55326, Note_on_c, 0, 57, 0
2, 55326, Note_on_c, 0, 60, 0
2, 55443, Note_on_c, 0, 58, 40
2, 55443, Note_on_c, 0, 55, 35
2, 55451, Note_on_c, 0, 65, 0
2, 55451, Note_on_c, 0, 56, 0
2, 55563, Note_on_c, 0, 58, 0
2, 55563, Note_on_c, 0, 55, 0
2, 55570, Note_on_c, 0, 60, 65
2, 55570, Note_on_c, 0, 57, 55
2, 55822, Note_on_c, 0, 65, 50
2, 55822, Note_on_c, 0, 56, 50
2, 55835, Note_on_c, 0, 57, 0
2, 55835, Note_on_c, 0, 60, 0
2, 55942, Note_on_c, 0, 65, 0
2, 55942, Note_on_c, 0, 56, 0
2, 55953, Note_on_c, 0, 63, 50
2, 55953, Note_on_c, 0, 55, 45
2, 56086, Note_on_c, 0, 61, 50
2, 56086, Note_on_c, 0, 58, 40
2, 56093, Note_on_c, 0, 55, 0
2, 56093, Note_on_c, 0, 63, 0
2, 56216, Note_on_c, 0, 60, 50
2, 56216, Note_on_c, 0, 56, 50
2, 56226, Note_on_c, 0, 61, 0
2, 56226, Note_on_c, 0, 58, 0
2, 56345, Note_on_c, 0, 59, 50
2, 56361, Note_on_c, 0, 60, 0
2, 56482, Note_on_c, 0, 58, 50
2, 56482, Note_on_c, 0, 55, 50
2, 56496, Note_on_c, 0, 56, 0
2, 56500, Note_on_c, 0, 59, 0
2, 56602, Note_on_c, 0, 58, 0
2, 56602, Note_on_c, 0, 55, 0
2, 56644, Note_on_c, 0, 61, 50
2, 56644, Note_on_c, 0, 58, 40
2, 56785, Note_on_c, 0, 60, 50
2, 56785, Note_on_c, 0, 56, 40
2, 56799, Note_on_c, 0, 58, 0
2, 56799, Note_on_c, 0, 61, 0
2, 56905, Note_on_c, 0, 60, 0
2, 56905, Note_on_c, 0, 56, 0
2, 56919, Note_on_c, 0, 65, 50
2, 56919, Note_on_c, 0, 59, 40
2, 57061, Note_on_c, 0, 67, 45
2, 57061, Note_on_c, 0, 58, 35
2, 57074, Note_on_c, 0, 59, 0
2, 57074, Note_on_c, 0, 65, 0
2, 57874, Note_on_c, 0, 68, 55
2, 57881, Note_on_c, 0, 67, 0
2, 58018, Note_on_c, 0, 70, 59
2, 58018, Note_on_c, 0, 61, 45
2, 58021, Note_on_c, 0, 58, 0
2, 58024, Note_on_c, 0, 68, 0
2, 58168, Note_on_c, 0, 70, 0
2, 58168, Note_on_c, 0, 61, 0
2, 58193, Note_on_c, 0, 70, 65
2, 58193, Note_on_c, 0, 55, 55
2, 58450, Note_on_c, 0, 61, 52
2, 58458, Note_on_c, 0, 70, 0
2, 58628, Note_on_c, 0, 55, 0
2, 58690, Note_on_c, 0, 61, 0
2, 64200, Control_c, 0, 11, 55
2, 64261, Note_on_c, 0, 67, 45
2, 64417, Note_on_c, 0, 68, 45
2, 64417, Note_on_c, 0, 61, 40
2, 64426, Note_on_c, 0, 67, 0
2, 64554, Note_on_c, 0, 70, 45
2, 64562, Note_on_c, 0, 68, 0
2, 64699, Note_on_c, 0, 63, 45
2, 64699, Note_on_c, 0, 60, 40
2, 64704, Note_on_c, 0, 70, 0
2, 64707, Note_on_c, 0, 61, 0
2, 64819, Note_on_c, 0, 63, 0
2, 64819, Note_on_c, 0, 60, 0
2, 64973, Note_on_c, 0, 67, 60
2, 64973, Note_on_c, 0, 61, 50
2, 65258, Note_on_c, 0, 68, 45
2, 65258, Note_on_c, 0, 60, 40
2, 65268, Note_on_c, 0, 61, 0
2, 65268, Note_on_c, 0, 67, 0
2, 65368, Note_on_c, 0, 68, 0
2, 65368, Note_on_c, 0, 60, 0
2, 65663, Note_on_c, 0, 63, 45
2, 65663, Note_on_c, 0, 58, 40
2, 65797, Note_on_c, 0, 60, 40
2, 65803, Note_on_c, 0, 58, 0
2, 65939, Note_on_c, 0, 65, 45
2, 65953, Note_on_c, 0, 63, 0
2, 66080, Note_on_c, 0, 67, 45
2, 66080, Note_on_c, 0, 63, 40
2, 66084, Note_on_c, 0, 65, 0
2, 66097, Note_on_c, 0, 60, 0
2, 66213, Note_on_c, 0, 68, 45
2, 66213, Note_on_c, 0, 62, 40
2, 66220, Note_on_c, 0, 67, 0
2, 66220, Note_on_c, 0, 63, 0
2, 66362, Note_on_c, 0, 67, 45
2, 66362, Note_on_c, 0, 63, 45
2, 66368, Note_on_c, 0, 68, 0
2, 66368, Note_on_c, 0, 62, 0
2, 66472, Note_on_c, 0, 67, 0
2, 66472, Note_on_c, 0, 63, 0
2, 66687, Note_on_c, 0, 72, 50
2, 66687, Note_on_c, 0, 63, 45
2, 66964, Note_on_c, 0, 65, 45
2, 66964, Note_on_c, 0, 61, 40
2, 66972, Note_on_c, 0, 63, 0
2, 66972, Note_on_c, 0, 72, 0
2, 67084, Note_on_c, 0, 65, 0
2, 67084, Note_on_c, 0, 61, 0
2, 67265, Note_on_c, 0, 70, 50
2, 67265, Note_on_c, 0, 61, 45
2, 67541, Note_on_c, 0, 63, 45
2, 67541, Note_on_c, 0, 60, 40
2, 67550, Note_on_c, 0, 61, 0
2, 67550, Note_on_c, 0, 70, 0
2, 67841, Note_on_c, 0, 63, 0
2, 67841, Note_on_c, 0, 60, 0
2, 67857, Note_on_c, 0, 67, 50
2, 67857, Note_on_c, 0, 58, 45
2, 68143, Note_on_c, 0, 68, 50
2, 68143, Note_on_c, 0, 60, 45
2, 68152, Note_on_c, 0, 58, 0
2, 68152, Note_on_c, 0, 67, 0
2, 68413, Note_on_c, 0, 68, 0
2, 68413, Note_on_c, 0, 60, 0
2, 68430, Note_on_c, 0, 67, 50
2, 68430, Note_on_c, 0, 58, 45
2, 68705, Note_on_c, 0, 68, 55
2, 68705, Note_on_c, 0, 59, 55
2, 68715, Note_on_c, 0, 58, 0
2, 68715, Note_on_c, 0, 67, 0
2, 69025, Note_on_c, 0, 59, 0
2, 69030, Note_on_c, 0, 60, 55
2, 69140, Note_on_c, 0, 60, 0
2, 69145, Note_on_c, 0, 68, 0
2, 69484, Note_on_c, 0, 68, 50
2, 69484, Note_on_c, 0, 59, 45
2, 69594, Note_on_c, 0, 59, 0
2, 69594, Note_on_c, 0, 68, 0
2, 69813, Note_on_c, 0, 63, 45
2, 70149, Note_on_c, 0, 61, 45
2, 70152, Note_on_c, 0, 63, 0
2, 70350, Note_on_c, 0, 60, 45
2, 70350, Note_on_c, 0, 56, 45
2, 70354, Note_on_c, 0, 61, 0
2, 70630, Note_on_c, 0, 60, 0
2, 70655, Note_on_c, 0, 63, 45
2, 70655, Note_on_c, 0, 55, 45
2, 70660, Note_on_c, 0, 56, 0
2, 70765, Note_on_c, 0, 55, 0
2, 70765, Note_on_c, 0, 63, 0
2, 70829, Note_on_c, 0, 60, 47
2, 70939, Note_on_c, 0, 60, 0
2, 70989, Note_on_c, 0, 67, 50
2, 70989, Note_on_c, 0, 60, 45
2, 71243, Note_on_c, 0, 65, 50
2, 71254, Note_on_c, 0, 67, 0
2, 71334, Note_on_c, 0, 63, 50
2, 71343, Note_on_c, 0, 65, 0
2, 71349, Note_on_c, 0, 60, 0
2, 71444, Note_on_c, 0, 63, 0
2, 71686, Note_on_c, 0, 68, 60
2, 71686, Note_on_c, 0, 60, 50
2, 72050, Note_on_c, 0, 67, 55
2, 72050, Note_on_c, 0, 59, 50
2, 72066, Note_on_c, 0, 60, 0
2, 72066, Note_on_c, 0, 68, 0
2, 72280, Note_on_c, 0, 62, 55
2, 72290, Note_on_c, 0, 67, 0
2, 72565, Note_on_c, 0, 60, 50
2, 72570, Note_on_c, 0, 59, 0
2, 72575, Note_on_c, 0, 62, 0
2, 72956, Note_on_c, 0, 65, 60
2, 72956, Note_on_c, 0, 62, 50
2, 72970, Note_on_c, 0, 60, 0
2, 73176, Note_on_c, 0, 62, 0
2, 73176, Note_on_c, 0, 65, 0
2, 73457, Note_on_c, 0, 63, 45
2, 73677, Note_on_c, 0, 63, 0
2, 73856, Note_on_c, 0, 61, 50
2, 73856, Note_on_c, 0, 56, 45
2, 74206, Note_on_c, 0, 56, 0
2, 74206, Note_on_c, 0, 61, 0
2, 74221, Note_on_c, 0, 64, 55
2, 74221, Note_on_c, 0, 58, 45
2, 74387, Note_on_c, 0, 65, 60
2, 74387, Note_on_c, 0, 60, 50
2, 74391, Note_on_c, 0, 58, 0
2, 74391, Note_on_c, 0, 64, 0
2, 74507, Note_on_c, 0, 60, 0
2, 74559, Note_on_c, 0, 68, 55
2, 74559, Note_on_c, 0, 60, 55
2, 74567, Note_on_c, 0, 65, 0
2, 74679, Note_on_c, 0, 60, 0
2, 74679, Note_on_c, 0, 68, 0
2, 75687, Note_on_c, 0, 63, 45
2, 75687, Note_on_c, 0, 60, 35
2, 76060, Note_on_c, 0, 65, 45
2, 76072, Note_on_c, 0, 63, 0
2, 76415, Note_on_c, 0, 67, 45
2, 76420, Note_on_c, 0, 65, 0
2, 76547, Note_on_c, 0, 60, 0
2, 76605, Note_on_c, 0, 67, 0
2, 76969, Note_on_c, 0, 59, 45
2, 77220, Note_on_c, 0, 60, 45
2, 77234, Note_on_c, 0, 59, 0
2, 77390, Note_on_c, 0, 60, 0
2, 78194, Note_on_c, 0, 65, 50
2, 78194, Note_on_c, 0, 62, 40
2, 78337, Note_on_c, 0, 63, 50
2, 78337, Note_on_c, 0, 60, 40
2, 78344, Note_on_c, 0, 62, 0
2, 78344, Note_on_c, 0, 65, 0
2, 78447, Note_on_c, 0, 63, 0
2, 78447, Note_on_c, 0, 60, 0
2, 79296, Note_on_c, 0, 65, 50
2, 79296, Note_on_c, 0, 62, 40
2, 79442, Note_on_c, 0, 63, 50
2, 79442, Note_on_c, 0, 60, 50
2, 79446, Note_on_c, 0, 62, 0
2, 79446, Note_on_c, 0, 65, 0
2, 79552, Note_on_c, 0, 63, 0
2, 79552, Note_on_c, 0, 60, 0
2, 79856, Note_on_c, 0, 67, 55
2, 79856, Note_on_c, 0, 63, 45
2, 79995, Note_on_c, 0, 70, 60
2, 79995, Note_on_c, 0, 62, 50
2, 80001, Note_on_c, 0, 63, 0
2, 80001, Note_on_c, 0, 67, 0
2, 80264, Note_on_c, 0, 69, 55
2, 80264, Note_on_c, 0, 60, 45
2, 80275, Note_on_c, 0, 70, 0
2, 80275, Note_on_c, 0, 62, 0
2, 80391, Note_on_c, 0, 67, 55
2, 80391, Note_on_c, 0, 58, 45
2, 80404, Note_on_c, 0, 69, 0
2, 80404, Note_on_c, 0, 60, 0
2, 80542, Note_on_c, 0, 65, 50
2, 80542, Note_on_c, 0, 57, 40
2, 80551, Note_on_c, 0, 67, 0
2, 80551, Note_on_c, 0, 58, 0
2, 80652, Note_on_c, 0, 65, 0
2, 80652, Note_on_c, 0, 57, 0
2, 80945, Note_on_c, 0, 69, 55
2, 80945, Note_on_c, 0, 65, 45
2, 81082, Note_on_c, 0, 72, 60
2, 81082, Note_on_c, 0, 64, 50
2, 81101, Note_on_c, 0, 65, 0
2, 81101, Note_on_c, 0, 69, 0
2, 81352, Note_on_c, 0, 71, 55
2, 81352, Note_on_c, 0, 62, 45
2, 81362, Note_on_c, 0, 72, 0
2, 81362, Note_on_c, 0, 64, 0
2, 81482, Note_on_c, 0, 69, 55
2, 81482, Note_on_c, 0, 60, 45
2, 81492, Note_on_c, 0, 71, 0
2, 81492, Note_on_c, 0, 62, 0
2, 81631, Note_on_c, 0, 67, 50
2, 81631, Note_on_c, 0, 59, 40
2, 81642, Note_on_c, 0, 69, 0
2, 81642, Note_on_c, 0, 60, 0
2, 81751, Note_on_c, 0, 67, 0
2, 81751, Note_on_c, 0, 59, 0
2, 82066, Note_on_c, 0, 67, 45
2, 82066, Note_on_c, 0, 64, 40
2, 82210, Note_on_c, 0, 66, 45
2, 82210, Note_on_c, 0, 62, 40
2, 82221, Note_on_c, 0, 64, 0
2, 82221, Note_on_c, 0, 67, 0
2, 82361, Note_on_c, 0, 65, 45
2, 82370, Note_on_c, 0, 66, 0
2, 82501, Note_on_c, 0, 65, 0
2, 82510, Note_on_c, 0, 62, 0
2, 82681, Note_on_c, 0, 65, 45
2, 82681, Note_on_c, 0, 59, 40
2, 82929, Note_on_c, 0, 63, 50
2, 82929, Note_on_c, 0, 60, 40
2, 82936, Note_on_c, 0, 59, 0
2, 82936, Note_on_c, 0, 65, 0
2, 83258, Note_on_c, 0, 68, 55
2, 83274, Note_on_c, 0, 63, 0
2, 83562, Note_on_c, 0, 67, 55
2, 83562, Note_on_c, 0, 58, 45
2, 83573, Note_on_c, 0, 68, 0
2, 83574, Note_on_c, 0, 60, 0
2, 84168, Note_on_c, 0, 63, 50
2, 84168, Note_on_c, 0, 60, 50
2, 84177, Note_on_c, 0, 67, 0
2, 84177, Note_on_c, 0, 58, 0
2, 84480, Note_on_c, 0, 68, 55
2, 84493, Note_on_c, 0, 63, 0
2, 84791, Note_on_c, 0, 67, 55
2, 84791, Note_on_c, 0, 58, 45
2, 84805, Note_on_c, 0, 68, 0
2, 84808, Note_on_c, 0, 60, 0
2, 85031, Note_on_c, 0, 67, 0
2, 85031, Note_on_c, 0, 58, 0
2, 85243, Note_on_c, 0, 67, 50
2, 85243, Note_on_c, 0, 58, 40
2, 85390, Note_on_c, 0, 68, 55
2, 85390, Note_on_c, 0, 56, 45
2, 85403, Note_on_c, 0, 58, 0
2, 85403, Note_on_c, 0, 67, 0
2, 85694, Note_on_c, 0, 60, 50
2, 85700, Note_on_c, 0, 68, 0
2, 85995, Note_on_c, 0, 58, 50
2, 86004, Note_on_c, 0, 60, 0
2, 86115, Note_on_c, 0, 58, 0
2, 86130, Note_on_c, 0, 56, 0
2, 86459, Note_on_c, 0, 63, 50
2, 86764, Note_on_c, 0, 61, 60
2, 86774, Note_on_c, 0, 63, 0
2, 87069, Note_on_c, 0, 60, 60
2, 87079, Note_on_c, 0, 61, 0
2, 87371, Note_on_c, 0, 58, 55
2, 87384, Note_on_c, 0, 60, 0
2, 87491, Note_on_c, 0, 58, 0
2, 87522, Note_on_c, 0, 55, 55
2, 87642, Note_on_c, 0, 55, 0
2, 87669, Note_on_c, 0, 67, 55
2, 87824, Note_on_c, 0, 68, 60
2, 87829, Note_on_c, 0, 67, 0
2, 88132, Note_on_c, 0, 67, 60
2, 88139, Note_on_c, 0, 68, 0
2, 88302, Note_on_c, 0, 67, 0
2, 88431, Note_on_c, 0, 68, 60
2, 88738, Note_on_c, 0, 67, 55
2, 88746, Note_on_c, 0, 68, 0
2, 88908, Note_on_c, 0, 67, 0
2, 89337, Note_on_c, 0, 72, 55
2, 89337, Note_on_c, 0, 64, 55
2, 89337, Note_on_c, 0, 55, 55
2, 89437, Note_on_c, 0, 55, 0
2, 89437, Note_on_c, 0, 64, 0
2, 89437, Note_on_c, 0, 72, 0
2, 89490, Note_on_c, 0, 72, 55
2, 89490, Note_on_c, 0, 65, 55
2, 89490, Note_on_c, 0, 56, 55
2, 89590, Note_on_c, 0, 56, 0
2, 89590, Note_on_c, 0, 65, 0
2, 89590, Note_on_c, 0, 72, 0
2, 89635, Note_on_c, 0, 74, 60
2, 89635, Note_on_c, 0, 65, 60
2, 89635, Note_on_c, 0, 56, 60
2, 89735, Note_on_c, 0, 56, 0
2, 89735, Note_on_c, 0, 65, 0
2, 89735, Note_on_c, 0, 74, 0
2, 89783, Note_on_c, 0, 74, 75
2, 89783, Note_on_c, 0, 68, 75
2, 89783, Note_on_c, 0, 65, 75
2, 90064, Note_on_c, 0, 75, 60
2, 90064, Note_on_c, 0, 67, 60
2, 90064, Note_on_c, 0, 63, 60
2, 90073, Note_on_c, 0, 65, 0
2, 90073, Note_on_c, 0, 74, 0
2, 90073, Note_on_c, 0, 68, 0
2, 90221, Note_on_c, 0, 68, 60
2, 90221, Note_on_c, 0, 65, 60
2, 90221, Note_on_c, 0, 60, 60
2, 90221, Note_on_c, 0, 56, 60
2, 90224, Note_on_c, 0, 75, 0
2, 90224, Note_on_c, 0, 63, 0
2, 90224, Note_on_c, 0, 67, 0
2, 90311, Note_on_c, 0, 65, 0
2, 90311, Note_on_c, 0, 68, 0
2, 90311, Note_on_c, 0, 60, 0
2, 90311, Note_on_c, 0, 56, 0
2, 90366, Note_on_c, 0, 68, 60
2, 90366, Note_on_c, 0, 65, 60
2, 90366, Note_on_c, 0, 60, 60
2, 90366, Note_on_c, 0, 56, 60
2, 90456, Note_on_c, 0, 56, 0
2, 90456, Note_on_c, 0, 68, 0
2, 90456, Note_on_c, 0, 65, 0
2, 90456, Note_on_c, 0, 60, 0
2, 90801, Note_on_c, 0, 69, 65
2, 90801, Note_on_c, 0, 63, 65
2, 90801, Note_on_c, 0, 60, 65
2, 90801, Note_on_c, 0, 57, 65
2, 90891, Note_on_c, 0, 57, 0
2, 90891, Note_on_c, 0, 69, 0
2, 90891, Note_on_c, 0, 63, 0
2, 90891, Note_on_c, 0, 60, 0
2, 90945, Note_on_c, 0, 69, 65
2, 90945, Note_on_c, 0, 63, 65
2, 90945, Note_on_c, 0, 60, 65
2, 90945, Note_on_c, 0, 57, 65
2, 91035, Note_on_c, 0, 57, 0
2, 91035, Note_on_c, 0, 69, 0
2, 91035, Note_on_c, 0, 63, 0
2, 91035, Note_on_c, 0, 60, 0
2, 91237, Note_on_c, 0, 72, 65
2, 91237, Note_on_c, 0, 63, 65
2, 91237, Note_on_c, 0, 60, 65
2, 91372, Note_on_c, 0, 60, 0
2, 91372, Note_on_c, 0, 63, 0
2, 91372, Note_on_c, 0, 72, 0
2, 91393, Note_on_c, 0, 63, 55
2, 91393, Note_on_c, 0, 60, 55
2, 91663, Note_on_c, 0, 60, 0
2, 91663, Note_on_c, 0, 63, 0
2, 91834, Note_on_c, 0, 63, 55
2, 91834, Note_on_c, 0, 60, 55
2, 91954, Note_on_c, 0, 60, 0
2, 91954, Note_on_c, 0, 63, 0
2, 91977, Note_on_c, 0, 63, 70
2, 91977, Note_on_c, 0, 60, 60
2, 92097, Note_on_c, 0, 60, 0
2, 92097, Note_on_c, 0, 63, 0
2, 92128, Note_on_c, 0, 63, 60
2, 92128, Note_on_c, 0, 60, 60
2, 92248, Note_on_c, 0, 60, 0
2, 92248, Note_on_c, 0, 63, 0
2, 92405, Note_on_c, 0, 63, 60
2, 92405, Note_on_c, 0, 60, 60
2, 92525, Note_on_c, 0, 60, 0
2, 92525, Note_on_c, 0, 63, 0
2, 92542, Note_on_c, 0, 63, 60
2, 92542, Note_on_c, 0, 60, 60
2, 92662, Note_on_c, 0, 60, 0
2, 92662, Note_on_c, 0, 63, 0
2, 92695, Note_on_c, 0, 63, 60
2, 92695, Note_on_c, 0, 60, 60
2, 92935, Note_on_c, 0, 60, 0
2, 92935, Note_on_c, 0, 63, 0
2, 92972, Note_on_c, 0, 67, 65
2, 92972, Note_on_c, 0, 63, 65
2, 92972, Note_on_c, 0, 55, 65
2, 93212, Note_on_c, 0, 55, 0
2, 93212, Note_on_c, 0, 63, 0
2, 93247, Note_on_c, 0, 72, 70
2, 93247, Note_on_c, 0, 63, 70
2, 93247, Note_on_c, 0, 55, 70
2, 93252, Note_on_c, 0, 67, 0
2, 93367, Note_on_c, 0, 72, 0
2, 93367, Note_on_c, 0, 63, 0
2, 93367, Note_on_c, 0, 55, 0
2, 93519, Note_on_c, 0, 75, 75
2, 93519, Note_on_c, 0, 67, 75
2, 93519, Note_on_c, 0, 55, 75
2, 93639, Note_on_c, 0, 55, 0
2, 93639, Note_on_c, 0, 67, 0
2, 93639, Note_on_c, 0, 75, 0
2, 93667, Note_on_c, 0, 71, 80
2, 93667, Note_on_c, 0, 65, 80
2, 93731, Note_on_c, 0, 71, 80
2, 93731, Note_on_c, 0, 65, 80
2, 93787, Note_on_c, 0, 65, 0
2, 93787, Note_on_c, 0, 71, 0
2, 93831, Note_on_c, 0, 65, 0
2, 93831, Note_on_c, 0, 71, 0
2, 93865, Note_on_c, 0, 71, 80
2, 93865, Note_on_c, 0, 65, 80
2, 93965, Note_on_c, 0, 65, 0
2, 93965, Note_on_c, 0, 71, 0
2, 93999, Note_on_c, 0, 71, 80
2, 93999, Note_on_c, 0, 65, 80
2, 94099, Note_on_c, 0, 65, 0
2, 94099, Note_on_c, 0, 71, 0
2, 94135, Note_on_c, 0, 71, 80
2, 94135, Note_on_c, 0, 65, 80
2, 94206, Note_on_c, 0, 65, 80
2, 94206, Note_on_c, 0, 62, 70
2, 94206, Note_on_c, 0, 55, 70
2, 94228, Note_on_c, 0, 55, 0
2, 94228, Note_on_c, 0, 65, 0
2, 94228, Note_on_c, 0, 62, 0
2, 94235, Note_on_c, 0, 65, 0
2, 94235, Note_on_c, 0, 71, 0
2, 94241, Note_on_c, 0, 65, 80
2, 94241, Note_on_c, 0, 62, 70
2, 94241, Note_on_c, 0, 55, 70
2, 94263, Note_on_c, 0, 55, 0
2, 94263, Note_on_c, 0, 62, 0
2, 94263, Note_on_c, 0, 65, 0
2, 94280, Note_on_c, 0, 71, 80
2, 94280, Note_on_c, 0, 65, 80
2, 94280, Note_on_c, 0, 62, 70
2, 94280, Note_on_c, 0, 55, 70
2, 94302, Note_on_c, 0, 55, 0
2, 94302, Note_on_c, 0, 62, 0
2, 94302, Note_on_c, 0, 65, 0
2, 94311, Note_on_c, 0, 65, 80
2, 94311, Note_on_c, 0, 62, 70
2, 94311, Note_on_c, 0, 55, 70
2, 94333, Note_on_c, 0, 55, 0
2, 94333, Note_on_c, 0, 62, 0
2, 94333, Note_on_c, 0, 65, 0
2, 94348, Note_on_c, 0, 65, 80
2, 94348, Note_on_c, 0, 62, 70
2, 94348, Note_on_c, 0, 55, 70
2, 94370, Note_on_c, 0, 55, 0
2, 94370, Note_on_c, 0, 62, 0
2, 94370, Note_on_c, 0, 65, 0
2, 94380, Note_on_c, 0, 71, 0
2, 94382, Note_on_c, 0, 65, 80
2, 94382, Note_on_c, 0, 62, 70
2, 94382, Note_on_c, 0, 55, 70
2, 94404, Note_on_c, 0, 55, 0
2, 94404, Note_on_c, 0, 62, 0
2, 94404, Note_on_c, 0, 65, 0
2, 94419, Note_on_c, 0, 71, 80
2, 94419, Note_on_c, 0, 65, 80
2, 94419, Note_on_c, 0, 62, 70
2, 94419, Note_on_c, 0, 55, 70
2, 94441, Note_on_c, 0, 55, 0
2, 94441, Note_on_c, 0, 62, 0
2, 94441, Note_on_c, 0, 65, 0
2, 94450, Note_on_c, 0, 65, 80
2, 94450, Note_on_c, 0, 62, 70
2, 94450, Note_on_c, 0, 55, 70
2, 94472, Note_on_c, 0, 55, 0
2, 94472, Note_on_c, 0, 62, 0
2, 94472, Note_on_c, 0, 65, 0
2, 94487, Note_on_c, 0, 65, 80
2, 94487, Note_on_c, 0, 62, 70
2, 94487, Note_on_c, 0, 55, 70
2, 94509, Note_on_c, 0, 55, 0
2, 94509, Note_on_c, 0, 62, 0
2, 94509, Note_on_c, 0, 65, 0
2, 94519, Note_on_c, 0, 71, 0
2, 94522, Note_on_c, 0, 65, 80
2, 94522, Note_on_c, 0, 62, 70
2, 94522, Note_on_c, 0, 55, 70
2, 94544, Note_on_c, 0, 55, 0
2, 94544, Note_on_c, 0, 62, 0
2, 94544, Note_on_c, 0, 65, 0
2, 94560, Note_on_c, 0, 71, 80
2, 94560, Note_on_c, 0, 65, 80
2, 94560, Note_on_c, 0, 62, 70
2, 94560, Note_on_c, 0, 55, 70
2, 94582, Note_on_c, 0, 55, 0
2, 94582, Note_on_c, 0, 62, 0
2, 94582, Note_on_c, 0, 65, 0
2, 94595, Note_on_c, 0, 65, 80
2, 94595, Note_on_c, 0, 62, 70
2, 94595, Note_on_c, 0, 55, 70
2, 94617, Note_on_c, 0, 55, 0
2, 94617, Note_on_c, 0, 62, 0
2, 94617, Note_on_c, 0, 65, 0
2, 94632, Note_on_c, 0, 65, 80
2, 94632, Note_on_c, 0, 62, 70
2, 94632, Note_on_c, 0, 55, 70
2, 94654, Note_on_c, 0, 55, 0
2, 94654, Note_on_c, 0, 62, 0
2, 94654, Note_on_c, 0, 65, 0
2, 94660, Note_on_c, 0, 71, 0
2, 94664, Note_on_c, 0, 65, 80
2, 94664, Note_on_c, 0, 62, 70
2, 94664, Note_on_c, 0, 55, 70
2, 94686, Note_on_c, 0, 55, 0
2, 94686, Note_on_c, 0, 62, 0
2, 94686, Note_on_c, 0, 65, 0
2, 94702, Note_on_c, 0, 65, 80
2, 94702, Note_on_c, 0, 62, 70
2, 94702, Note_on_c, 0, 55, 70
2, 94702, Note_on_c, 0, 83, 80
2, 94724, Note_on_c, 0, 55, 0
2, 94724, Note_on_c, 0, 65, 0
2, 94724, Note_on_c, 0, 62, 0
2, 94736, Note_on_c, 0, 65, 80
2, 94736, Note_on_c, 0, 62, 70
2, 94736, Note_on_c, 0, 55, 70
2, 94758, Note_on_c, 0, 55, 0
2, 94758, Note_on_c, 0, 62, 0
2, 94758, Note_on_c, 0, 65, 0
2, 94772, Note_on_c, 0, 83, 0
2, 94780, Control_c, 0, 11, 80
2, 94780, Note_on_c, 0, 84, 80
2, 94780, Note_on_c, 0, 63, 60
2, 94780, Note_on_c, 0, 55, 60
2, 94795, Note_on_c, 0, 55, 0
2, 94795, Note_on_c, 0, 63, 0
2, 94795, Note_on_c, 0, 84, 0
2, 94800, Note_on_c, 0, 84, 80
2, 94800, Note_on_c, 0, 63, 60
2, 94800, Note_on_c, 0, 55, 60
2, 94815, Note_on_c, 0, 55, 0
2, 94815, Note_on_c, 0, 63, 0
2, 94815, Note_on_c, 0, 84, 0
2, 94820, Note_on_c, 0, 87, 80
2, 94820, Note_on_c, 0, 67, 60
2, 94820, Note_on_c, 0, 55, 60
2, 94835, Note_on_c, 0, 55, 0
2, 94835, Note_on_c, 0, 67, 0
2, 94835, Note_on_c, 0, 87, 0
2, 94840, Note_on_c, 0, 87, 80
2, 94840, Note_on_c, 0, 67, 60
2, 94840, Note_on_c, 0, 55, 60
2, 94855, Note_on_c, 0, 55, 0
2, 94855, Note_on_c, 0, 67, 0
2, 94855, Note_on_c, 0, 87, 0
2, 94860, Note_on_c, 0, 87, 80
2, 94860, Note_on_c, 0, 67, 60
2, 94860, Note_on_c, 0, 63, 60
2, 94875, Note_on_c, 0, 63, 0
2, 94875, Note_on_c, 0, 67, 0
2, 94875, Note_on_c, 0, 87, 0
2, 94880, Note_on_c, 0, 87, 80
2, 94880, Note_on_c, 0, 67, 60
2, 94880, Note_on_c, 0, 63, 60
2, 94895, Note_on_c, 0, 63, 0
2, 94895, Note_on_c, 0, 67, 0
2, 94895, Note_on_c, 0, 87, 0
2, 94900, Note_on_c, 0, 86, 77
2, 94900, Note_on_c, 0, 67, 60
2, 94900, Note_on_c, 0, 63, 60
2, 94915, Note_on_c, 0, 63, 0
2, 94915, Note_on_c, 0, 67, 0
2, 94915, Note_on_c, 0, 86, 0
2, 94920, Note_on_c, 0, 86, 77
2, 94920, Note_on_c, 0, 67, 60
2, 94920, Note_on_c, 0, 63, 60
2, 94935, Note_on_c, 0, 63, 0
2, 94935, Note_on_c, 0, 67, 0
2, 94935, Note_on_c, 0, 86, 0
2, 94940, Note_on_c, 0, 84, 74
2, 94940, Note_on_c, 0, 68, 58
2, 94940, Note_on_c, 0, 63, 58
2, 94955, Note_on_c, 0, 63, 0
2, 94955, Note_on_c, 0, 68, 0
2, 94955, Note_on_c, 0, 84, 0
2, 94960, Note_on_c, 0, 84, 74
2, 94960, Note_on_c, 0, 68, 58
2, 94960, Note_on_c, 0, 63, 58
2, 94975, Note_on_c, 0, 63, 0
2, 94975, Note_on_c, 0, 68, 0
2, 94975, Note_on_c, 0, 84, 0
2, 94980, Note_on_c, 0, 82, 71
2, 94980, Note_on_c, 0, 68, 56
2, 94980, Note_on_c, 0, 63, 56
2, 94995, Note_on_c, 0, 63, 0
2, 94995, Note_on_c, 0, 68, 0
2, 94995, Note_on_c, 0, 82, 0
2, 95000, Note_on_c, 0, 82, 71
2, 95000, Note_on_c, 0, 68, 56
2, 95000, Note_on_c, 0, 63, 56
2, 95015, Note_on_c, 0, 63, 0
2, 95015, Note_on_c, 0, 68, 0
2, 95015, Note_on_c, 0, 82, 0
2, 95020, Note_on_c, 0, 80, 68
2, 95020, Note_on_c, 0, 68, 54
2, 95020, Note_on_c, 0, 63, 54
2, 95035, Note_on_c, 0, 63, 0
2, 95035, Note_on_c, 0, 68, 0
2, 95035, Note_on_c, 0, 80, 0
2, 95040, Note_on_c, 0, 80, 68
2, 95040, Note_on_c, 0, 68, 54
2, 95040, Note_on_c, 0, 63, 54
2, 95055, Note_on_c, 0, 63, 0
2, 95055, Note_on_c, 0, 68, 0
2, 95055, Note_on_c, 0, 80, 0
2, 95060, Note_on_c, 0, 79, 65
2, 95060, Note_on_c, 0, 68, 52
2, 95060, Note_on_c, 0, 63, 52
2, 95075, Note_on_c, 0, 63, 0
2, 95075, Note_on_c, 0, 68, 0
2, 95075, Note_on_c, 0, 79, 0
2, 95080, Note_on_c, 0, 79, 65
2, 95080, Note_on_c, 0, 68, 52
2, 95080, Note_on_c, 0, 63, 52
2, 95095, Note_on_c, 0, 63, 0
2, 95095, Note_on_c, 0, 68, 0
2, 95095, Note_on_c, 0, 79, 0
2, 95100, Note_on_c, 0, 78, 62
2, 95100, Note_on_c, 0, 69, 50
2, 95100, Note_on_c, 0, 63, 50
2, 95115, Note_on_c, 0, 63, 0
2, 95115, Note_on_c, 0, 69, 0
2, 95115, Note_on_c, 0, 78, 0
2, 95120, Note_on_c, 0, 78, 62
2, 95120, Note_on_c, 0, 69, 50
2, 95120, Note_on_c, 0, 63, 50
2, 95135, Note_on_c, 0, 63, 0
2, 95135, Note_on_c, 0, 69, 0
2, 95135, Note_on_c, 0, 78, 0
2, 95140, Note_on_c, 0, 78, 62
2, 95140, Note_on_c, 0, 69, 50
2, 95140, Note_on_c, 0, 63, 50
2, 95155, Note_on_c, 0, 63, 0
2, 95155, Note_on_c, 0, 69, 0
2, 95155, Note_on_c, 0, 78, 0
2, 95160, Note_on_c, 0, 78, 62
2, 95160, Note_on_c, 0, 69, 50
2, 95160, Note_on_c, 0, 63, 50
2, 95175, Note_on_c, 0, 63, 0
2, 95175, Note_on_c, 0, 69, 0
2, 95175, Note_on_c, 0, 78, 0
2, 95180, Note_on_c, 0, 78, 65
2, 95180, Note_on_c, 0, 69, 50
2, 95180, Note_on_c, 0, 63, 50
2, 95195, Note_on_c, 0, 63, 0
2, 95195, Note_on_c, 0, 69, 0
2, 95195, Note_on_c, 0, 78, 0
2, 95200, Note_on_c, 0, 78, 65
2, 95200, Note_on_c, 0, 69, 50
2, 95200, Note_on_c, 0, 63, 50
2, 95215, Note_on_c, 0, 63, 0
2, 95215, Note_on_c, 0, 69, 0
2, 95215, Note_on_c, 0, 78, 0
2, 95220, Note_on_c, 0, 78, 65
2, 95220, Note_on_c, 0, 69, 50
2, 95220, Note_on_c, 0, 63, 50
2, 95235, Note_on_c, 0, 63, 0
2, 95235, Note_on_c, 0, 69, 0
2, 95235, Note_on_c, 0, 78, 0
2, 95240, Note_on_c, 0, 78, 68
2, 95240, Note_on_c, 0, 69, 50
2, 95240, Note_on_c, 0, 63, 50
2, 95255, Note_on_c, 0, 63, 0
2, 95255, Note_on_c, 0, 69, 0
2, 95255, Note_on_c, 0, 78, 0
2, 95260, Note_on_c, 0, 78, 71
2, 95260, Note_on_c, 0, 69, 51
2, 95260, Note_on_c, 0, 62, 51
2, 95275, Note_on_c, 0, 62, 0
2, 95275, Note_on_c, 0, 69, 0
2, 95275, Note_on_c, 0, 78, 0
2, 95280, Note_on_c, 0, 78, 71
2, 95280, Note_on_c, 0, 69, 51
2, 95280, Note_on_c, 0, 62, 51
2, 95295, Note_on_c, 0, 62, 0
2, 95295, Note_on_c, 0, 69, 0
2, 95295, Note_on_c, 0, 78, 0
2, 95300, Note_on_c, 0, 78, 71
2, 95300, Note_on_c, 0, 69, 51
2, 95300, Note_on_c, 0, 62, 51
2, 95315, Note_on_c, 0, 62, 0
2, 95315, Note_on_c, 0, 69, 0
2, 95315, Note_on_c, 0, 78, 0
2, 95320, Note_on_c, 0, 78, 71
2, 95320, Note_on_c, 0, 69, 51
2, 95320, Note_on_c, 0, 62, 51
2, 95335, Note_on_c, 0, 62, 0
2, 95335, Note_on_c, 0, 69, 0
2, 95335, Note_on_c, 0, 78, 0
2, 95340, Note_on_c, 0, 79, 75
2, 95340, Note_on_c, 0, 67, 53
2, 95340, Note_on_c, 0, 62, 53
2, 95355, Note_on_c, 0, 62, 0
2, 95355, Note_on_c, 0, 67, 0
2, 95355, Note_on_c, 0, 79, 0
2, 95360, Note_on_c, 0, 79, 75
2, 95360, Note_on_c, 0, 67, 53
2, 95360, Note_on_c, 0, 62, 53
2, 95375, Note_on_c, 0, 62, 0
2, 95375, Note_on_c, 0, 67, 0
2, 95375, Note_on_c, 0, 79, 0
2, 95380, Note_on_c, 0, 79, 75
2, 95380, Note_on_c, 0, 67, 53
2, 95380, Note_on_c, 0, 62, 53
2, 95395, Note_on_c, 0, 62, 0
2, 95395, Note_on_c, 0, 67, 0
2, 95395, Note_on_c, 0, 79, 0
2, 95400, Note_on_c, 0, 79, 75
2, 95400, Note_on_c, 0, 67, 53
2, 95400, Note_on_c, 0, 62, 53
2, 95415, Note_on_c, 0, 62, 0
2, 95415, Note_on_c, 0, 67, 0
2, 95415, Note_on_c, 0, 79, 0
2, 95420, Note_on_c, 0, 86, 80
2, 95420, Note_on_c, 0, 67, 60
2, 95420, Note_on_c, 0, 62, 60
2, 95420, Note_on_c, 0, 55, 60
2, 95435, Note_on_c, 0, 55, 0
2, 95435, Note_on_c, 0, 86, 0
2, 95435, Note_on_c, 0, 67, 0
2, 95435, Note_on_c, 0, 62, 0
2, 95440, Note_on_c, 0, 86, 80
2, 95440, Note_on_c, 0, 67, 60
2, 95440, Note_on_c, 0, 62, 60
2, 95440, Note_on_c, 0, 55, 60
2, 95455, Note_on_c, 0, 55, 0
2, 95455, Note_on_c, 0, 86, 0
2, 95455, Note_on_c, 0, 67, 0
2, 95455, Note_on_c, 0, 62, 0
2, 95460, Note_on_c, 0, 86, 80
2, 95460, Note_on_c, 0, 67, 60
2, 95460, Note_on_c, 0, 62, 60
2, 95460, Note_on_c, 0, 55, 60
2, 95475, Note_on_c, 0, 55, 0
2, 95475, Note_on_c, 0, 86, 0
2, 95475, Note_on_c, 0, 67, 0
2, 95475, Note_on_c, 0, 62, 0
2, 95480, Note_on_c, 0, 86, 80
2, 95480, Note_on_c, 0, 67, 60
2, 95480, Note_on_c, 0, 62, 60
2, 95480, Note_on_c, 0, 55, 60
2, 95495, Note_on_c, 0, 55, 0
2, 95495, Note_on_c, 0, 86, 0
2, 95495, Note_on_c, 0, 67, 0
2, 95495, Note_on_c, 0, 62, 0
2, 95500, Note_on_c, 0, 86, 80
2, 95500, Note_on_c, 0, 67, 60
2, 95500, Note_on_c, 0, 62, 60
2, 95500, Note_on_c, 0, 55, 60
2, 95515, Note_on_c, 0, 55, 0
2, 95515, Note_on_c, 0, 86, 0
2, 95515, Note_on_c, 0, 67, 0
2, 95515, Note_on_c, 0, 62, 0
2, 95520, Note_on_c, 0, 86, 80
2, 95520, Note_on_c, 0, 67, 60
2, 95520, Note_on_c, 0, 62, 60
2, 95520, Note_on_c, 0, 55, 60
2, 95535, Note_on_c, 0, 55, 0
2, 95535, Note_on_c, 0, 86, 0
2, 95535, Note_on_c, 0, 67, 0
2, 95535, Note_on_c, 0, 62, 0
2, 95540, Note_on_c, 0, 84, 80
2, 95540, Note_on_c, 0, 67, 60
2, 95540, Note_on_c, 0, 62, 60
2, 95540, Note_on_c, 0, 55, 60
2, 95555, Note_on_c, 0, 55, 0
2, 95555, Note_on_c, 0, 84, 0
2, 95555, Note_on_c, 0, 67, 0
2, 95555, Note_on_c, 0, 62, 0
2, 95560, Note_on_c, 0, 84, 80
2, 95560, Note_on_c, 0, 67, 60
2, 95560, Note_on_c, 0, 62, 60
2, 95560, Note_on_c, 0, 55, 60
2, 95575, Note_on_c, 0, 55, 0
2, 95575, Note_on_c, 0, 84, 0
2, 95575, Note_on_c, 0, 67, 0
2, 95575, Note_on_c, 0, 62, 0
2, 95580, Note_on_c, 0, 82, 77
2, 95580, Note_on_c, 0, 74, 58
2, 95580, Note_on_c, 0, 67, 58
2, 95580, Note_on_c, 0, 62, 58
2, 95580, Note_on_c, 0, 55, 58
2, 95595, Note_on_c, 0, 55, 0
2, 95595, Note_on_c, 0, 67, 0
2, 95595, Note_on_c, 0, 82, 0
2, 95595, Note_on_c, 0, 74, 0
2, 95595, Note_on_c, 0, 62, 0
2, 95600, Note_on_c, 0, 82, 77
2, 95600, Note_on_c, 0, 74, 58
2, 95600, Note_on_c, 0, 67, 58
2, 95600, Note_on_c, 0, 62, 58
2, 95600, Note_on_c, 0, 55, 58
2, 95615, Note_on_c, 0, 55, 0
2, 95615, Note_on_c, 0, 67, 0
2, 95615, Note_on_c, 0, 82, 0
2, 95615, Note_on_c, 0, 74, 0
2, 95615, Note_on_c, 0, 62, 0
2, 95620, Note_on_c, 0, 81, 74
2, 95620, Note_on_c, 0, 74, 57
2, 95620, Note_on_c, 0, 67, 57
2, 95620, Note_on_c, 0, 62, 57
2, 95620, Note_on_c, 0, 55, 57
2, 95635, Note_on_c, 0, 55, 0
2, 95635, Note_on_c, 0, 67, 0
2, 95635, Note_on_c, 0, 81, 0
2, 95635, Note_on_c, 0, 74, 0
2, 95635, Note_on_c, 0, 62, 0
2, 95640, Note_on_c, 0, 81, 74
2, 95640, Note_on_c, 0, 74, 57
2, 95640, Note_on_c, 0, 67, 57
2, 95640, Note_on_c, 0, 62, 57
2, 95640, Note_on_c, 0, 55, 57
2, 95655, Note_on_c, 0, 55, 0
2, 95655, Note_on_c, 0, 67, 0
2, 95655, Note_on_c, 0, 81, 0
2, 95655, Note_on_c, 0, 74, 0
2, 95655, Note_on_c, 0, 62, 0
2, 95660, Note_on_c, 0, 79, 71
2, 95660, Note_on_c, 0, 74, 56
2, 95660, Note_on_c, 0, 67, 56
2, 95660, Note_on_c, 0, 62, 56
2, 95660, Note_on_c, 0, 55, 56
2, 95675, Note_on_c, 0, 55, 0
2, 95675, Note_on_c, 0, 67, 0
2, 95675, Note_on_c, 0, 79, 0
2, 95675, Note_on_c, 0, 74, 0
2, 95675, Note_on_c, 0, 62, 0
2, 95680, Note_on_c, 0, 79, 71
2, 95680, Note_on_c, 0, 74, 56
2, 95680, Note_on_c, 0, 67, 56
2, 95680, Note_on_c, 0, 62, 56
2, 95680, Note_on_c, 0, 55, 56
2, 95695, Note_on_c, 0, 55, 0
2, 95695, Note_on_c, 0, 67, 0
2, 95695, Note_on_c, 0, 79, 0
2, 95695, Note_on_c, 0, 74, 0
2, 95695, Note_on_c, 0, 62, 0
2, 95700, Note_on_c, 0, 77, 68
2, 95700, Note_on_c, 0, 74, 54
2, 95700, Note_on_c, 0, 67, 54
2, 95700, Note_on_c, 0, 62, 54
2, 95700, Note_on_c, 0, 55, 54
2, 95715, Note_on_c, 0, 55, 0
2, 95715, Note_on_c, 0, 67, 0
2, 95715, Note_on_c, 0, 77, 0
2, 95715, Note_on_c, 0, 74, 0
2, 95715, Note_on_c, 0, 62, 0
2, 95720, Note_on_c, 0, 77, 68
2, 95720, Note_on_c, 0, 74, 54
2, 95720, Note_on_c, 0, 67, 54
2, 95720, Note_on_c, 0, 62, 54
2, 95720, Note_on_c, 0, 55, 54
2, 95735, Note_on_c, 0, 55, 0
2, 95735, Note_on_c, 0, 67, 0
2, 95735, Note_on_c, 0, 77, 0
2, 95735, Note_on_c, 0, 74, 0
2, 95735, Note_on_c, 0, 62, 0
2, 95740, Note_on_c, 0, 76, 65
2, 95740, Note_on_c, 0, 73, 52
2, 95740, Note_on_c, 0, 67, 52
2, 95740, Note_on_c, 0, 55, 52
2, 95755, Note_on_c, 0, 55, 0
2, 95755, Note_on_c, 0, 76, 0
2, 95755, Note_on_c, 0, 73, 0
2, 95755, Note_on_c, 0, 67, 0
2, 95760, Note_on_c, 0, 76, 65
2, 95760, Note_on_c, 0, 73, 52
2, 95760, Note_on_c, 0, 67, 52
2, 95760, Note_on_c, 0, 55, 52
2, 95775, Note_on_c, 0, 55, 0
2, 95775, Note_on_c, 0, 76, 0
2, 95775, Note_on_c, 0, 73, 0
2, 95775, Note_on_c, 0, 67, 0
2, 95780, Note_on_c, 0, 76, 65
2, 95780, Note_on_c, 0, 73, 50
2, 95780, Note_on_c, 0, 67, 50
2, 95780, Note_on_c, 0, 55, 50
2, 95795, Note_on_c, 0, 55, 0
2, 95795, Note_on_c, 0, 76, 0
2, 95795, Note_on_c, 0, 73, 0
2, 95795, Note_on_c, 0, 67, 0
2, 95800, Note_on_c, 0, 76, 65
2, 95800, Note_on_c, 0, 73, 50
2, 95800, Note_on_c, 0, 67, 50
2, 95800, Note_on_c, 0, 55, 50
2, 95815, Note_on_c, 0, 55, 0
2, 95815, Note_on_c, 0, 76, 0
2, 95815, Note_on_c, 0, 73, 0
2, 95815, Note_on_c, 0, 67, 0
2, 95820, Note_on_c, 0, 76, 62
2, 95820, Note_on_c, 0, 73, 50
2, 95820, Note_on_c, 0, 67, 50
2, 95835, Note_on_c, 0, 67, 0
2, 95835, Note_on_c, 0, 73, 0
2, 95835, Note_on_c, 0, 76, 0
2, 95840, Note_on_c, 0, 76, 62
2, 95840, Note_on_c, 0, 73, 50
2, 95840, Note_on_c, 0, 67, 50
2, 95855, Note_on_c, 0, 67, 0
2, 95855, Note_on_c, 0, 73, 0
2, 95855, Note_on_c, 0, 76, 0
2, 95860, Note_on_c, 0, 76, 62
2, 95860, Note_on_c, 0, 73, 50
2, 95860, Note_on_c, 0, 67, 50
2, 95875, Note_on_c, 0, 67, 0
2, 95875, Note_on_c, 0, 73, 0
2, 95875, Note_on_c, 0, 76, 0
2, 95880, Note_on_c, 0, 76, 60
2, 95880, Note_on_c, 0, 73, 50
2, 95880, Note_on_c, 0, 67, 50
2, 95895, Note_on_c, 0, 67, 0
2, 95895, Note_on_c, 0, 73, 0
2, 95895, Note_on_c, 0, 76, 0
2, 95900, Note_on_c, 0, 76, 60
2, 95900, Note_on_c, 0, 73, 50
2, 95900, Note_on_c, 0, 67, 50
2, 95900, Note_on_c, 0, 76, 60
2, 95900, Note_on_c, 0, 72, 50
2, 95900, Note_on_c, 0, 67, 50
2, 95915, Note_on_c, 0, 67, 0
2, 95915, Note_on_c, 0, 73, 0
2, 95915, Note_on_c, 0, 67, 0
2, 95915, Note_on_c, 0, 76, 0
2, 95915, Note_on_c, 0, 72, 0
2, 95915, Note_on_c, 0, 76, 0
2, 95920, Note_on_c, 0, 76, 60
2, 95920, Note_on_c, 0, 72, 50
2, 95920, Note_on_c, 0, 67, 50
2, 95935, Note_on_c, 0, 67, 0
2, 95935, Note_on_c, 0, 72, 0
2, 95935, Note_on_c, 0, 76, 0
2, 95940, Note_on_c, 0, 76, 60
2, 95940, Note_on_c, 0, 72, 50
2, 95940, Note_on_c, 0, 67, 50
2, 95955, Note_on_c, 0, 67, 0
2, 95955, Note_on_c, 0, 72, 0
2, 95955, Note_on_c, 0, 76, 0
2, 95960, Note_on_c, 0, 76, 60
2, 95960, Note_on_c, 0, 72, 50
2, 95960, Note_on_c, 0, 67, 50
2, 95975, Note_on_c, 0, 67, 0
2, 95975, Note_on_c, 0, 72, 0
2, 95975, Note_on_c, 0, 76, 0
2, 95980, Note_on_c, 0, 77, 60
2, 95980, Note_on_c, 0, 72, 50
2, 95980, Note_on_c, 0, 65, 50
2, 95995, Note_on_c, 0, 65, 0
2, 95995, Note_on_c, 0, 72, 0
2, 95995, Note_on_c, 0, 77, 0
2, 96000, Note_on_c, 0, 77, 60
2, 96000, Note_on_c, 0, 72, 50
2, 96000, Note_on_c, 0, 65, 50
2, 96015, Note_on_c, 0, 65, 0
2, 96015, Note_on_c, 0, 72, 0
2, 96015, Note_on_c, 0, 77, 0
2, 96020, Note_on_c, 0, 77, 60
2, 96020, Note_on_c, 0, 72, 50
2, 96020, Note_on_c, 0, 65, 50
2, 96035, Note_on_c, 0, 65, 0
2, 96035, Note_on_c, 0, 72, 0
2, 96035, Note_on_c, 0, 77, 0
2, 96040, Note_on_c, 0, 77, 60
2, 96040, Note_on_c, 0, 72, 50
2, 96040, Note_on_c, 0, 65, 50
2, 96055, Note_on_c, 0, 65, 0
2, 96055, Note_on_c, 0, 72, 0
2, 96055, Note_on_c, 0, 77, 0
2, 96060, Note_on_c, 0, 77, 60
2, 96060, Note_on_c, 0, 72, 50
2, 96060, Note_on_c, 0, 65, 50
2, 96075, Note_on_c, 0, 65, 0
2, 96075, Note_on_c, 0, 72, 0
2, 96075, Note_on_c, 0, 77, 0
2, 96080, Note_on_c, 0, 77, 60
2, 96080, Note_on_c, 0, 72, 50
2, 96080, Note_on_c, 0, 65, 50
2, 96095, Note_on_c, 0, 65, 0
2, 96095, Note_on_c, 0, 72, 0
2, 96095, Note_on_c, 0, 77, 0
2, 96100, Note_on_c, 0, 77, 60
2, 96100, Note_on_c, 0, 72, 50
2, 96100, Note_on_c, 0, 65, 50
2, 96115, Note_on_c, 0, 65, 0
2, 96115, Note_on_c, 0, 72, 0
2, 96115, Note_on_c, 0, 77, 0
2, 96120, Note_on_c, 0, 77, 60
2, 96120, Note_on_c, 0, 72, 50
2, 96120, Note_on_c, 0, 65, 50
2, 96135, Note_on_c, 0, 65, 0
2, 96135, Note_on_c, 0, 72, 0
2, 96135, Note_on_c, 0, 77, 0
2, 96140, Note_on_c, 0, 77, 60
2, 96140, Note_on_c, 0, 68, 50
2, 96140, Note_on_c, 0, 65, 50
2, 96155, Note_on_c, 0, 65, 0
2, 96155, Note_on_c, 0, 68, 0
2, 96155, Note_on_c, 0, 77, 0
2, 96160, Note_on_c, 0, 77, 60
2, 96160, Note_on_c, 0, 68, 50
2, 96160, Note_on_c, 0, 65, 50
2, 96175, Note_on_c, 0, 65, 0
2, 96175, Note_on_c, 0, 68, 0
2, 96175, Note_on_c, 0, 77, 0
2, 96180, Note_on_c, 0, 77, 60
2, 96180, Note_on_c, 0, 68, 50
2, 96180, Note_on_c, 0, 72, 50
2, 96195, Note_on_c, 0, 72, 0
2, 96195, Note_on_c, 0, 68, 0
2, 96195, Note_on_c, 0, 77, 0
2, 96200, Note_on_c, 0, 77, 60
2, 96200, Note_on_c, 0, 68, 50
2, 96200, Note_on_c, 0, 72, 50
2, 96215, Note_on_c, 0, 72, 0
2, 96215, Note_on_c, 0, 68, 0
2, 96215, Note_on_c, 0, 77, 0
2, 96220, Note_on_c, 0, 80, 63
2, 96220, Note_on_c, 0, 77, 52
2, 96220, Note_on_c, 0, 72, 52
2, 96235, Note_on_c, 0, 72, 0
2, 96235, Note_on_c, 0, 77, 0
2, 96235, Note_on_c, 0, 80, 0
2, 96240, Note_on_c, 0, 80, 63
2, 96240, Note_on_c, 0, 77, 52
2, 96240, Note_on_c, 0, 72, 52
2, 96255, Note_on_c, 0, 72, 0
2, 96255, Note_on_c, 0, 77, 0
2, 96255, Note_on_c, 0, 80, 0
2, 96260, Note_on_c, 0, 84, 66
2, 96260, Note_on_c, 0, 80, 54
2, 96260, Note_on_c, 0, 72, 54
2, 96275, Note_on_c, 0, 72, 0
2, 96275, Note_on_c, 0, 80, 0
2, 96275, Note_on_c, 0, 84, 0
2, 96280, Note_on_c, 0, 84, 66
2, 96280, Note_on_c, 0, 80, 54
2, 96280, Note_on_c, 0, 72, 54
2, 96295, Note_on_c, 0, 72, 0
2, 96295, Note_on_c, 0, 80, 0
2, 96295, Note_on_c, 0, 84, 0
2, 96300, Note_on_c, 0, 84, 66
2, 96300, Note_on_c, 0, 80, 54
2, 96300, Note_on_c, 0, 72, 54
2, 96315, Note_on_c, 0, 72, 0
2, 96315, Note_on_c, 0, 80, 0
2, 96315, Note_on_c, 0, 84, 0
2, 96320, Note_on_c, 0, 84, 66
2, 96320, Note_on_c, 0, 80, 54
2, 96320, Note_on_c, 0, 72, 54
2, 96335, Note_on_c, 0, 72, 0
2, 96335, Note_on_c, 0, 80, 0
2, 96335, Note_on_c, 0, 84, 0
2, 96340, Note_on_c, 0, 89, 69
2, 96340, Note_on_c, 0, 80, 56
2, 96340, Note_on_c, 0, 77, 56
2, 96355, Note_on_c, 0, 77, 0
2, 96355, Note_on_c, 0, 80, 0
2, 96355, Note_on_c, 0, 89, 0
2, 96360, Note_on_c, 0, 89, 69
2, 96360, Note_on_c, 0, 80, 54
2, 96360, Note_on_c, 0, 77, 54
2, 96375, Note_on_c, 0, 77, 0
2, 96375, Note_on_c, 0, 80, 0
2, 96375, Note_on_c, 0, 89, 0
2, 96380, Note_on_c, 0, 89, 69
2, 96380, Note_on_c, 0, 80, 54
2, 96380, Note_on_c, 0, 77, 54
2, 96395, Note_on_c, 0, 77, 0
2, 96395, Note_on_c, 0, 80, 0
2, 96395, Note_on_c, 0, 89, 0
2, 96400, Note_on_c, 0, 89, 69
2, 96400, Note_on_c, 0, 80, 54
2, 96400, Note_on_c, 0, 77, 54
2, 96415, Note_on_c, 0, 77, 0
2, 96415, Note_on_c, 0, 80, 0
2, 96415, Note_on_c, 0, 89, 0
2, 96420, Note_on_c, 0, 86, 80
2, 96420, Note_on_c, 0, 80, 70
2, 96420, Note_on_c, 0, 77, 70
2, 96435, Note_on_c, 0, 77, 0
2, 96435, Note_on_c, 0, 80, 0
2, 96435, Note_on_c, 0, 86, 0
2, 96440, Note_on_c, 0, 86, 66
2, 96440, Note_on_c, 0, 80, 54
2, 96440, Note_on_c, 0, 77, 54
2, 96455, Note_on_c, 0, 77, 0
2, 96455, Note_on_c, 0, 80, 0
2, 96455, Note_on_c, 0, 86, 0
2, 96460, Note_on_c, 0, 86, 66
2, 96460, Note_on_c, 0, 80, 54
2, 96460, Note_on_c, 0, 77, 54
2, 96475, Note_on_c, 0, 77, 0
2, 96475, Note_on_c, 0, 80, 0
2, 96475, Note_on_c, 0, 86, 0
2, 96480, Note_on_c, 0, 86, 66
2, 96480, Note_on_c, 0, 80, 66
2, 96480, Note_on_c, 0, 77, 66
2, 96495, Note_on_c, 0, 77, 0
2, 96495, Note_on_c, 0, 80, 0
2, 96495, Note_on_c, 0, 86, 0
2, 96500, Note_on_c, 0, 87, 66
2, 96500, Note_on_c, 0, 79, 54
2, 96500, Note_on_c, 0, 75, 54
2, 96515, Note_on_c, 0, 75, 0
2, 96515, Note_on_c, 0, 79, 0
2, 96515, Note_on_c, 0, 87, 0
2, 96520, Note_on_c, 0, 87, 66
2, 96520, Note_on_c, 0, 79, 54
2, 96520, Note_on_c, 0, 75, 54
2, 96535, Note_on_c, 0, 75, 0
2, 96535, Note_on_c, 0, 79, 0
2, 96535, Note_on_c, 0, 87, 0
2, 96540, Note_on_c, 0, 86, 66
2, 96540, Note_on_c, 0, 77, 54
2, 96555, Note_on_c, 0, 77, 0
2, 96555, Note_on_c, 0, 86, 0
2, 96560, Note_on_c, 0, 86, 66
2, 96560, Note_on_c, 0, 77, 54
2, 96575, Note_on_c, 0, 77, 0
2, 96575, Note_on_c, 0, 86, 0
2, 96580, Note_on_c, 0, 83, 80
2, 96580, Note_on_c, 0, 80, 70
2, 96580, Note_on_c, 0, 74, 70
2, 96595, Note_on_c, 0, 74, 0
2, 96595, Note_on_c, 0, 80, 0
2, 96595, Note_on_c, 0, 83, 0
2, 96600, Note_on_c, 0, 83, 66
2, 96600, Note_on_c, 0, 80, 54
2, 96600, Note_on_c, 0, 74, 54
2, 96615, Note_on_c, 0, 74, 0
2, 96615, Note_on_c, 0, 80, 0
2, 96615, Note_on_c, 0, 83, 0
2, 96620, Note_on_c, 0, 83, 66
2, 96620, Note_on_c, 0, 80, 54
2, 96620, Note_on_c, 0, 74, 54
2, 96635, Note_on_c, 0, 74, 0
2, 96635, Note_on_c, 0, 80, 0
2, 96635, Note_on_c, 0, 83, 0
2, 96640, Note_on_c, 0, 83, 66
2, 96640, Note_on_c, 0, 80, 54
2, 96640, Note_on_c, 0, 74, 54
2, 96655, Note_on_c, 0, 74, 0
2, 96655, Note_on_c, 0, 80, 0
2, 96655, Note_on_c, 0, 83, 0
2, 96660, Note_on_c, 0, 84, 64
2, 96660, Note_on_c, 0, 79, 53
2, 96660, Note_on_c, 0, 75, 53
2, 96675, Note_on_c, 0, 75, 0
2, 96675, Note_on_c, 0, 79, 0
2, 96675, Note_on_c, 0, 84, 0
2, 96680, Note_on_c, 0, 84, 64
2, 96680, Note_on_c, 0, 79, 53
2, 96680, Note_on_c, 0, 75, 53
2, 96695, Note_on_c, 0, 75, 0
2, 96695, Note_on_c, 0, 79, 0
2, 96695, Note_on_c, 0, 84, 0
2, 96700, Note_on_c, 0, 82, 62
2, 96700, Note_on_c, 0, 79, 52
2, 96700, Note_on_c, 0, 73, 52
2, 96715, Note_on_c, 0, 73, 0
2, 96715, Note_on_c, 0, 79, 0
2, 96715, Note_on_c, 0, 82, 0
2, 96720, Note_on_c, 0, 82, 62
2, 96720, Note_on_c, 0, 79, 52
2, 96720, Note_on_c, 0, 73, 52
2, 96735, Note_on_c, 0, 73, 0
2, 96735, Note_on_c, 0, 79, 0
2, 96735, Note_on_c, 0, 82, 0
2, 96740, Note_on_c, 0, 79, 80
2, 96740, Note_on_c, 0, 73, 70
2, 96740, Note_on_c, 0, 70, 70
2, 96755, Note_on_c, 0, 70, 0
2, 96755, Note_on_c, 0, 73, 0
2, 96755, Note_on_c, 0, 79, 0
2, 96760, Note_on_c, 0, 79, 62
2, 96760, Note_on_c, 0, 73, 50
2, 96760, Note_on_c, 0, 70, 50
2, 96775, Note_on_c, 0, 70, 0
2, 96775, Note_on_c, 0, 73, 0
2, 96775, Note_on_c, 0, 79, 0
2, 96780, Note_on_c, 0, 79, 62
2, 96780, Note_on_c, 0, 73, 50
2, 96780, Note_on_c, 0, 70, 50
2, 96795, Note_on_c, 0, 70, 0
2, 96795, Note_on_c, 0, 73, 0
2, 96795, Note_on_c, 0, 79, 0
2, 96800, Note_on_c, 0, 79, 62
2, 96800, Note_on_c, 0, 73, 50
2, 96800, Note_on_c, 0, 70, 50
2, 96815, Note_on_c, 0, 70, 0
2, 96815, Note_on_c, 0, 73, 0
2, 96815, Note_on_c, 0, 79, 0
2, 96820, Note_on_c, 0, 80, 62
2, 96820, Note_on_c, 0, 72, 50
2, 96820, Note_on_c, 0, 68, 50
2, 96835, Note_on_c, 0, 68, 0
2, 96835, Note_on_c, 0, 72, 0
2, 96835, Note_on_c, 0, 80, 0
2, 96840, Note_on_c, 0, 80, 62
2, 96840, Note_on_c, 0, 72, 50
2, 96840, Note_on_c, 0, 68, 50
2, 96855, Note_on_c, 0, 68, 0
2, 96855, Note_on_c, 0, 72, 0
2, 96855, Note_on_c, 0, 80, 0
2, 96860, Note_on_c, 0, 79, 62
2, 96860, Note_on_c, 0, 70, 50
2, 96860, Note_on_c, 0, 79, 62
2, 96860, Note_on_c, 0, 70, 50
2, 96875, Note_on_c, 0, 70, 0
2, 96875, Note_on_c, 0, 79, 0
2, 96875, Note_on_c, 0, 70, 0
2, 96875, Note_on_c, 0, 79, 0
2, 96880, Note_on_c, 0, 79, 62
2, 96880, Note_on_c, 0, 70, 50
2, 96895, Note_on_c, 0, 70, 0
2, 96895, Note_on_c, 0, 79, 0
2, 96900, Note_on_c, 0, 76, 80
2, 96900, Note_on_c, 0, 73, 70
2, 96900, Note_on_c, 0, 67, 70
2, 96915, Note_on_c, 0, 67, 0
2, 96915, Note_on_c, 0, 73, 0
2, 96915, Note_on_c, 0, 76, 0
2, 96920, Note_on_c, 0, 76, 62
2, 96920, Note_on_c, 0, 73, 50
2, 96920, Note_on_c, 0, 67, 50
2, 96935, Note_on_c, 0, 67, 0
2, 96935, Note_on_c, 0, 73, 0
2, 96935, Note_on_c, 0, 76, 0
2, 96940, Note_on_c, 0, 76, 62
2, 96940, Note_on_c, 0, 73, 50
2, 96940, Note_on_c, 0, 67, 50
2, 96955, Note_on_c, 0, 67, 0
2, 96955, Note_on_c, 0, 73, 0
2, 96955, Note_on_c, 0, 76, 0
2, 96960, Note_on_c, 0, 76, 62
2, 96960, Note_on_c, 0, 73, 50
2, 96960, Note_on_c, 0, 67, 50
2, 96975, Note_on_c, 0, 67, 0
2, 96975, Note_on_c, 0, 73, 0
2, 96975, Note_on_c, 0, 76, 0
2, 96980, Note_on_c, 0, 77, 62
2, 96980, Note_on_c, 0, 72, 50
2, 96980, Note_on_c, 0, 68, 50
2, 96995, Note_on_c, 0, 68, 0
2, 96995, Note_on_c, 0, 72, 0
2, 96995, Note_on_c, 0, 77, 0
2, 97000, Note_on_c, 0, 77, 62
2, 97000, Note_on_c, 0, 72, 50
2, 97000, Note_on_c, 0, 68, 50
2, 97015, Note_on_c, 0, 68, 0
2, 97015, Note_on_c, 0, 72, 0
2, 97015, Note_on_c, 0, 77, 0
2, 97020, Note_on_c, 0, 74, 62
2, 97020, Note_on_c, 0, 68, 50
2, 97020, Note_on_c, 0, 65, 50
2, 97080, Note_on_c, 0, 65, 0
2, 97080, Note_on_c, 0, 68, 0
2, 97080, Note_on_c, 0, 74, 0
2, 97100, Note_on_c, 0, 75, 62
2, 97100, Note_on_c, 0, 67, 50
2, 97100, Note_on_c, 0, 63, 50
2, 97160, Note_on_c, 0, 63, 0
2, 97160, Note_on_c, 0, 67, 0
2, 97160, Note_on_c, 0, 75, 0
2, 97680, Control_c, 0, 11, 60
2, 97720, Note_on_c, 0, 68, 60
2, 97740, Note_on_c, 0, 62, 80
2, 97742, Note_on_c, 0, 68, 0
2, 97800, Note_on_c, 0, 63, 60
2, 97810, Note_on_c, 0, 62, 0
2, 97820, Note_on_c, 0, 65, 50
2, 97822, Note_on_c, 0, 63, 0
2, 97890, Note_on_c, 0, 65, 0
2, 97900, Note_on_c, 0, 65, 50
2, 97920, Control_c, 0, 11, 45
2, 97970, Note_on_c, 0, 65, 0
2, 97980, Note_on_c, 0, 63, 45
2, 97980, Note_on_c, 0, 60, 35
2, 98060, Note_on_c, 0, 65, 47
2, 98060, Note_on_c, 0, 55, 37
2, 98070, Note_on_c, 0, 60, 0
2, 98070, Note_on_c, 0, 63, 0
2, 98140, Note_on_c, 0, 67, 49
2, 98140, Note_on_c, 0, 60, 39
2, 98150, Note_on_c, 0, 65, 0
2, 98150, Note_on_c, 0, 55, 0
2, 98220, Note_on_c, 0, 68, 51
2, 98220, Note_on_c, 0, 62, 41
2, 98220, Note_on_c, 0, 60, 41
2, 98230, Note_on_c, 0, 60, 0
2, 98230, Note_on_c, 0, 67, 0
2, 98300, Note_on_c, 0, 67, 53
2, 98300, Note_on_c, 0, 62, 43
2, 98300, Note_on_c, 0, 59, 43
2, 98310, Note_on_c, 0, 62, 0
2, 98310, Note_on_c, 0, 60, 0
2, 98310, Note_on_c, 0, 68, 0
2, 98350, Note_on_c, 0, 62, 0
2, 98350, Note_on_c, 0, 67, 0
2, 98350, Note_on_c, 0, 59, 0
2, 98360, Note_on_c, 0, 68, 60
2, 98380, Note_on_c, 0, 62, 80
2, 98382, Note_on_c, 0, 68, 0
2, 98440, Note_on_c, 0, 63, 60
2, 98450, Note_on_c, 0, 62, 0
2, 98460, Note_on_c, 0, 65, 50
2, 98462, Note_on_c, 0, 63, 0
2, 98530, Note_on_c, 0, 65, 0
2, 98540, Control_c, 0, 11, 70
2, 98540, Note_on_c, 0, 79, 75
2, 98540, Note_on_c, 0, 65, 60
2, 98540, Note_on_c, 0, 62, 60
2, 98540, Note_on_c, 0, 55, 60
2, 98595, Note_on_c, 0, 55, 0
2, 98595, Note_on_c, 0, 62, 0
2, 98595, Note_on_c, 0, 65, 0
2, 98600, Note_on_c, 0, 77, 75
2, 98600, Note_on_c, 0, 65, 60
2, 98600, Note_on_c, 0, 62, 60
2, 98600, Note_on_c, 0, 55, 60
2, 98605, Note_on_c, 0, 79, 0
2, 98615, Note_on_c, 0, 55, 0
2, 98620, Note_on_c, 0, 75, 75
2, 98620, Note_on_c, 0, 67, 60
2, 98620, Note_on_c, 0, 63, 60
2, 98620, Note_on_c, 0, 55, 60
2, 98625, Note_on_c, 0, 77, 0
2, 98625, Note_on_c, 0, 62, 0
2, 98625, Note_on_c, 0, 65, 0
2, 98635, Note_on_c, 0, 67, 0
2, 98635, Note_on_c, 0, 55, 0
2, 98635, Note_on_c, 0, 63, 0
2, 98640, Note_on_c, 0, 67, 60
2, 98640, Note_on_c, 0, 63, 60
2, 98655, Note_on_c, 0, 63, 0
2, 98655, Note_on_c, 0, 67, 0
2, 98660, Note_on_c, 0, 67, 60
2, 98660, Note_on_c, 0, 63, 60
2, 98675, Note_on_c, 0, 63, 0
2, 98675, Note_on_c, 0, 67, 0
2, 98680, Note_on_c, 0, 67, 60
2, 98680, Note_on_c, 0, 63, 60
2, 98695, Note_on_c, 0, 63, 0
2, 98695, Note_on_c, 0, 67, 0
2, 98700, Note_on_c, 0, 74, 75
2, 98700, Note_on_c, 0, 67, 60
2, 98700, Note_on_c, 0, 63, 60
2, 98705, Note_on_c, 0, 75, 0
2, 98715, Note_on_c, 0, 63, 0
2, 98715, Note_on_c, 0, 67, 0
2, 98720, Note_on_c, 0, 67, 60
2, 98720, Note_on_c, 0, 63, 60
2, 98735, Note_on_c, 0, 63, 0
2, 98735, Note_on_c, 0, 67, 0
2, 98740, Note_on_c, 0, 67, 60
2, 98740, Note_on_c, 0, 63, 60
2, 98755, Note_on_c, 0, 63, 0
2, 98755, Note_on_c, 0, 67, 0
2, 98760, Note_on_c, 0, 67, 60
2, 98760, Note_on_c, 0, 63, 60
2, 98760, Note_on_c, 0, 72, 75
2, 98765, Note_on_c, 0, 74, 0
2, 98775, Note_on_c, 0, 67, 0
2, 98775, Note_on_c, 0, 63, 0
2, 98777, Note_on_c, 0, 72, 0
2, 98780, Note_on_c, 0, 72, 90
2, 98780, Note_on_c, 0, 67, 60
2, 98780, Note_on_c, 0, 65, 60
2, 98795, Note_on_c, 0, 65, 0
2, 98795, Note_on_c, 0, 67, 0
2, 98800, Note_on_c, 0, 67, 60
2, 98800, Note_on_c, 0, 65, 60
2, 98815, Note_on_c, 0, 65, 0
2, 98815, Note_on_c, 0, 67, 0
2, 98820, Note_on_c, 0, 67, 60
2, 98820, Note_on_c, 0, 65, 60
2, 98835, Note_on_c, 0, 65, 0
2, 98835, Note_on_c, 0, 67, 0
2, 98840, Note_on_c, 0, 67, 60
2, 98840, Note_on_c, 0, 65, 60
2, 98855, Note_on_c, 0, 65, 0
2, 98855, Note_on_c, 0, 67, 0
2, 98860, Note_on_c, 0, 67, 60
2, 98860, Note_on_c, 0, 65, 60
2, 98875, Note_on_c, 0, 65, 0
2, 98875, Note_on_c, 0, 67, 0
2, 98880, Note_on_c, 0, 67, 60
2, 98880, Note_on_c, 0, 65, 60
2, 98895, Note_on_c, 0, 65, 0
2, 98895, Note_on_c, 0, 67, 0
2, 98900, Note_on_c, 0, 67, 60
2, 98900, Note_on_c, 0, 65, 60
2, 98900, Note_on_c, 0, 71, 80
2, 98910, Note_on_c, 0, 72, 0
2, 98915, Note_on_c, 0, 67, 0
2, 98915, Note_on_c, 0, 65, 0
2, 98920, Note_on_c, 0, 67, 60
2, 98920, Note_on_c, 0, 65, 60
2, 98930, Note_on_c, 0, 71, 0
2, 98935, Note_on_c, 0, 65, 0
2, 98935, Note_on_c, 0, 67, 0
2, 98940, Note_on_c, 0, 72, 80
2, 98940, Note_on_c, 0, 67, 60
2, 98955, Note_on_c, 0, 67, 0
2, 98960, Note_on_c, 0, 67, 60
2, 98975, Note_on_c, 0, 67, 0
2, 98980, Note_on_c, 0, 67, 60
2, 98980, Note_on_c, 0, 79, 85
2, 98985, Note_on_c, 0, 72, 0
2, 98995, Note_on_c, 0, 67, 0
2, 99000, Note_on_c, 0, 67, 60
2, 99015, Note_on_c, 0, 67, 0
2, 99020, Note_on_c, 0, 72, 60
2, 99020, Note_on_c, 0, 67, 60
2, 99020, Note_on_c, 0, 77, 80
2, 99025, Note_on_c, 0, 79, 0
2, 99035, Note_on_c, 0, 72, 0
2, 99035, Note_on_c, 0, 67, 0
2, 99040, Note_on_c, 0, 72, 60
2, 99040, Note_on_c, 0, 67, 60
2, 99055, Note_on_c, 0, 67, 0
2, 99055, Note_on_c, 0, 72, 0
2, 99060, Note_on_c, 0, 72, 60
2, 99060, Note_on_c, 0, 67, 60
2, 99075, Note_on_c, 0, 67, 0
2, 99075, Note_on_c, 0, 72, 0
2, 99080, Note_on_c, 0, 72, 60
2, 99080, Note_on_c, 0, 67, 60
2, 99080, Note_on_c, 0, 75, 80
2, 99085, Note_on_c, 0, 77, 0
2, 99095, Note_on_c, 0, 72, 0
2, 99095, Note_on_c, 0, 67, 0
2, 99097, Note_on_c, 0, 75, 0
2, 99100, Note_on_c, 0, 72, 60
2, 99100, Note_on_c, 0, 68, 60
2, 99100, Note_on_c, 0, 75, 90
2, 99115, Note_on_c, 0, 68, 0
2, 99115, Note_on_c, 0, 72, 0
2, 99120, Note_on_c, 0, 72, 60
2, 99120, Note_on_c, 0, 68, 60
2, 99135, Note_on_c, 0, 68, 0
2, 99135, Note_on_c, 0, 72, 0
2, 99140, Note_on_c, 0, 72, 60
2, 99140, Note_on_c, 0, 68, 60
2, 99155, Note_on_c, 0, 68, 0
2, 99155, Note_on_c, 0, 72, 0
2, 99160, Note_on_c, 0, 72, 60
2, 99160, Note_on_c, 0, 68, 60
2, 99175, Note_on_c, 0, 68, 0
2, 99175, Note_on_c, 0, 72, 0
2, 99180, Note_on_c, 0, 72, 60
2, 99180, Note_on_c, 0, 68, 60
2, 99195, Note_on_c, 0, 68, 0
2, 99195, Note_on_c, 0, 72, 0
2, 99200, Note_on_c, 0, 72, 60
2, 99200, Note_on_c, 0, 68, 60
2, 99215, Note_on_c, 0, 68, 0
2, 99215, Note_on_c, 0, 72, 0
2, 99220, Note_on_c, 0, 72, 60
2, 99220, Note_on_c, 0, 68, 60
2, 99220, Note_on_c, 0, 74, 80
2, 99230, Note_on_c, 0, 75, 0
2, 99235, Note_on_c, 0, 72, 0
2, 99235, Note_on_c, 0, 68, 0
2, 99240, Note_on_c, 0, 72, 60
2, 99240, Note_on_c, 0, 68, 60
2, 99250, Note_on_c, 0, 74, 0
2, 99255, Note_on_c, 0, 68, 0
2, 99255, Note_on_c, 0, 72, 0
2, 99260, Note_on_c, 0, 74, 85
2, 99260, Note_on_c, 0, 72, 60
2, 99260, Note_on_c, 0, 69, 60
2, 99260, Note_on_c, 0, 62, 60
2, 99315, Note_on_c, 0, 72, 0
2, 99320, Note_on_c, 0, 75, 80
2, 99320, Note_on_c, 0, 72, 60
2, 99320, Note_on_c, 0, 66, 60
2, 99320, Note_on_c, 0, 57, 60
2, 99320, Note_on_c, 0, 63, 60
2, 99325, Note_on_c, 0, 74, 0
2, 99325, Note_on_c, 0, 62, 0
2, 99325, Note_on_c, 0, 69, 0
2, 99336, Note_on_c, 0, 66, 0
2, 99336, Note_on_c, 0, 72, 0
2, 99336, Note_on_c, 0, 63, 0
2, 99336, Note_on_c, 0, 57, 0
2, 99336, Note_on_c, 0, 75, 0
2, 99340, Note_on_c, 0, 75, 85
2, 99340, Note_on_c, 0, 72, 55
2, 99340, Note_on_c, 0, 66, 60
2, 99340, Note_on_c, 0, 63, 60
2, 99340, Note_on_c, 0, 57, 60
2, 99400, Note_on_c, 0, 76, 80
2, 99400, Note_on_c, 0, 72, 60
2, 99400, Note_on_c, 0, 67, 60
2, 99400, Note_on_c, 0, 64, 60
2, 99400, Note_on_c, 0, 55, 60
2, 99405, Note_on_c, 0, 57, 0
2, 99405, Note_on_c, 0, 63, 0
2, 99405, Note_on_c, 0, 66, 0
2, 99405, Note_on_c, 0, 75, 0
2, 99416, Note_on_c, 0, 72, 0
2, 99416, Note_on_c, 0, 76, 0
2, 99416, Note_on_c, 0, 55, 0
2, 99416, Note_on_c, 0, 64, 0
2, 99416, Note_on_c, 0, 72, 0
2, 99416, Note_on_c, 0, 67, 0
2, 99420, Note_on_c, 0, 76, 85
2, 99420, Note_on_c, 0, 72, 60
2, 99420, Note_on_c, 0, 67, 60
2, 99420, Note_on_c, 0, 64, 60
2, 99420, Note_on_c, 0, 55, 60
2, 99475, Note_on_c, 0, 55, 0
2, 99475, Note_on_c, 0, 67, 0
2, 99475, Note_on_c, 0, 76, 0
2, 99475, Note_on_c, 0, 72, 0
2, 99475, Note_on_c, 0, 64, 0
2, 99480, Note_on_c, 0, 76, 85
2, 99480, Note_on_c, 0, 72, 60
2, 99480, Note_on_c, 0, 67, 60
2, 99480, Note_on_c, 0, 64, 60
2, 99496, Note_on_c, 0, 64, 0
2, 99496, Note_on_c, 0, 76, 0
2, 99496, Note_on_c, 0, 72, 0
2, 99496, Note_on_c, 0, 67, 0
2, 99500, Note_on_c, 0, 76, 85
2, 99500, Note_on_c, 0, 72, 60
2, 99500, Note_on_c, 0, 67, 60
2, 99500, Note_on_c, 0, 64, 60
2, 99500, Note_on_c, 0, 58, 60
2, 99555, Note_on_c, 0, 72, 0
2, 99560, Note_on_c, 0, 77, 90
2, 99560, Note_on_c, 0, 72, 60
2, 99560, Note_on_c, 0, 65, 60
2, 99565, Note_on_c, 0, 64, 0
2, 99565, Note_on_c, 0, 58, 0
2, 99565, Note_on_c, 0, 76, 0
2, 99565, Note_on_c, 0, 67, 0
2, 99576, Note_on_c, 0, 65, 0
2, 99576, Note_on_c, 0, 77, 0
2, 99576, Note_on_c, 0, 72, 0
2, 99580, Note_on_c, 0, 77, 90
2, 99580, Note_on_c, 0, 72, 60
2, 99580, Note_on_c, 0, 65, 60
2, 99640, Note_on_c, 0, 78, 95
2, 99640, Note_on_c, 0, 75, 60
2, 99640, Note_on_c, 0, 69, 60
2, 99640, Note_on_c, 0, 66, 60
2, 99645, Note_on_c, 0, 65, 0
2, 99645, Note_on_c, 0, 77, 0
2, 99645, Note_on_c, 0, 72, 0
2, 99656, Note_on_c, 0, 75, 0
2, 99656, Note_on_c, 0, 78, 0
2, 99656, Note_on_c, 0, 69, 0
2, 99656, Note_on_c, 0, 66, 0
2, 99660, Note_on_c, 0, 78, 95
2, 99660, Note_on_c, 0, 75, 60
2, 99660, Note_on_c, 0, 69, 60
2, 99660, Note_on_c, 0, 66, 60
2, 99715, Note_on_c, 0, 66, 0
2, 99715, Note_on_c, 0, 78, 0
2, 99715, Note_on_c, 0, 75, 0
2, 99715, Note_on_c, 0, 69, 0
2, 99720, Note_on_c, 0, 78, 95
2, 99720, Note_on_c, 0, 75, 60
2, 99720, Note_on_c, 0, 69, 60
2, 99720, Note_on_c, 0, 66, 60
2, 99736, Note_on_c, 0, 66, 0
2, 99736, Note_on_c, 0, 78, 0
2, 99736, Note_on_c, 0, 75, 0
2, 99736, Note_on_c, 0, 69, 0
2, 99740, Note_on_c, 0, 79, 100
2, 99740, Note_on_c, 0, 74, 60
2, 99740, Note_on_c, 0, 67, 60
2, 99756, Note_on_c, 0, 67, 0
2, 99756, Note_on_c, 0, 74, 0
2, 99756, Note_on_c, 0, 79, 0
2, 99760, Note_on_c, 0, 79, 60
2, 99760, Note_on_c, 0, 74, 60
2, 99760, Note_on_c, 0, 67, 60
2, 99776, Note_on_c, 0, 67, 0
2, 99776, Note_on_c, 0, 74, 0
2, 99776, Note_on_c, 0, 79, 0
2, 99780, Note_on_c, 0, 79, 60
2, 99780, Note_on_c, 0, 74, 60
2, 99780, Note_on_c, 0, 67, 60
2, 99796, Note_on_c, 0, 67, 0
2, 99796, Note_on_c, 0, 74, 0
2, 99796, Note_on_c, 0, 79, 0
2, 99800, Note_on_c, 0, 79, 60
2, 99800, Note_on_c, 0, 74, 60
2, 99800, Note_on_c, 0, 67, 60
2, 99816, Note_on_c, 0, 67, 0
2, 99816, Note_on_c, 0, 74, 0
2, 99816, Note_on_c, 0, 79, 0
2, 99820, Note_on_c, 0, 86, 80
2, 99820, Note_on_c, 0, 79, 60
2, 99820, Note_on_c, 0, 74, 70
2, 99836, Note_on_c, 0, 74, 0
2, 99836, Note_on_c, 0, 79, 0
2, 99836, Note_on_c, 0, 86, 0
2, 99840, Note_on_c, 0, 86, 70
2, 99840, Note_on_c, 0, 79, 60
2, 99840, Note_on_c, 0, 74, 60
2, 99856, Note_on_c, 0, 74, 0
2, 99856, Note_on_c, 0, 79, 0
2, 99856, Note_on_c, 0, 86, 0
2, 99860, Note_on_c, 0, 89, 80
2, 99860, Note_on_c, 0, 79, 60
2, 99860, Note_on_c, 0, 74, 60
2, 99876, Note_on_c, 0, 74, 0
2, 99876, Note_on_c, 0, 79, 0
2, 99876, Note_on_c, 0, 89, 0
2, 99880, Note_on_c, 0, 89, 70
2, 99880, Note_on_c, 0, 79, 60
2, 99880, Note_on_c, 0, 74, 60
2, 99896, Note_on_c, 0, 74, 0
2, 99896, Note_on_c, 0, 79, 0
2, 99896, Note_on_c, 0, 89, 0
2, 99900, Note_on_c, 0, 87, 80
2, 99900, Note_on_c, 0, 79, 60
2, 99900, Note_on_c, 0, 75, 75
2, 99916, Note_on_c, 0, 75, 0
2, 99916, Note_on_c, 0, 79, 0
2, 99916, Note_on_c, 0, 87, 0
2, 99920, Note_on_c, 0, 87, 80
2, 99920, Note_on_c, 0, 79, 60
2, 99920, Note_on_c, 0, 75, 60
2, 99936, Note_on_c, 0, 75, 0
2, 99936, Note_on_c, 0, 79, 0
2, 99936, Note_on_c, 0, 87, 0
2, 99940, Note_on_c, 0, 87, 80
2, 99940, Note_on_c, 0, 79, 60
2, 99940, Note_on_c, 0, 75, 60
2, 99956, Note_on_c, 0, 75, 0
2, 99956, Note_on_c, 0, 79, 0
2, 99956, Note_on_c, 0, 87, 0
2, 99960, Note_on_c, 0, 87, 80
2, 99960, Note_on_c, 0, 79, 60
2, 99960, Note_on_c, 0, 75, 60
2, 99976, Note_on_c, 0, 75, 0
2, 99976, Note_on_c, 0, 79, 0
2, 99976, Note_on_c, 0, 87, 0
2, 99980, Note_on_c, 0, 83, 80
2, 99980, Note_on_c, 0, 77, 60
2, 99996, Note_on_c, 0, 77, 0
2, 99996, Note_on_c, 0, 83, 0
2, 100000, Note_on_c, 0, 83, 70
2, 100000, Note_on_c, 0, 77, 60
2, 100016, Note_on_c, 0, 77, 0
2, 100016, Note_on_c, 0, 83, 0
2, 100020, Note_on_c, 0, 83, 70
2, 100020, Note_on_c, 0, 77, 60
2, 100036, Note_on_c, 0, 77, 0
2, 100036, Note_on_c, 0, 83, 0
2, 100040, Note_on_c, 0, 84, 85
2, 100040, Note_on_c, 0, 75, 60
2, 100056, Note_on_c, 0, 75, 0
2, 100056, Note_on_c, 0, 84, 0
2, 100060, Note_on_c, 0, 79, 70
2, 100060, Note_on_c, 0, 73, 60
2, 100076, Note_on_c, 0, 73, 0
2, 100076, Note_on_c, 0, 79, 0
2, 100080, Note_on_c, 0, 79, 80
2, 100080, Note_on_c, 0, 73, 60
2, 100096, Note_on_c, 0, 73, 0
2, 100096, Note_on_c, 0, 79, 0
2, 100100, Note_on_c, 0, 79, 75
2, 100100, Note_on_c, 0, 73, 60
2, 100116, Note_on_c, 0, 73, 0
2, 100116, Note_on_c, 0, 79, 0
2, 100120, Note_on_c, 0, 80, 80
2, 100120, Note_on_c, 0, 72, 60
2, 100136, Note_on_c, 0, 72, 0
2, 100136, Note_on_c, 0, 80, 0
2, 100140, Note_on_c, 0, 76, 75
2, 100140, Note_on_c, 0, 70, 60
2, 100156, Note_on_c, 0, 70, 0
2, 100156, Note_on_c, 0, 76, 0
2, 100160, Note_on_c, 0, 76, 70
2, 100160, Note_on_c, 0, 70, 60
2, 100176, Note_on_c, 0, 70, 0
2, 100176, Note_on_c, 0, 76, 0
2, 100180, Note_on_c, 0, 76, 70
2, 100180, Note_on_c, 0, 70, 60
2, 100196, Note_on_c, 0, 70, 0
2, 100196, Note_on_c, 0, 76, 0
2, 100200, Note_on_c, 0, 77, 80
2, 100200, Note_on_c, 0, 68, 60
2, 100216, Note_on_c, 0, 68, 0
2, 100216, Note_on_c, 0, 77, 0
2, 100220, Note_on_c, 0, 74, 80
2, 100220, Note_on_c, 0, 68, 60
2, 100236, Note_on_c, 0, 68, 0
2, 100236, Note_on_c, 0, 74, 0
2, 100240, Note_on_c, 0, 74, 70
2, 100240, Note_on_c, 0, 68, 60
2, 100256, Note_on_c, 0, 68, 0
2, 100256, Note_on_c, 0, 74, 0
2, 100260, Note_on_c, 0, 75, 80
2, 100260, Note_on_c, 0, 67, 60
2, 100276, Note_on_c, 0, 67, 0
2, 100276, Note_on_c, 0, 75, 0
2, 100280, Note_on_c, 0, 75, 70
2, 100280, Note_on_c, 0, 67, 60
2, 100296, Note_on_c, 0, 67, 0
2, 100296, Note_on_c, 0, 75, 0
2, 100300, Note_on_c, 0, 71, 80
2, 100300, Note_on_c, 0, 65, 60
2, 100316, Note_on_c, 0, 65, 0
2, 100316, Note_on_c, 0, 71, 0
2, 100320, Note_on_c, 0, 71, 70
2, 100320, Note_on_c, 0, 65, 60
2, 100336, Note_on_c, 0, 65, 0
2, 100336, Note_on_c, 0, 71, 0
2, 100340, Note_on_c, 0, 72, 80
2, 100340, Note_on_c, 0, 63, 60
2, 100356, Note_on_c, 0, 63, 0
2, 100356, Note_on_c, 0, 72, 0
2, 100360, Note_on_c, 0, 72, 70
2, 100360, Note_on_c, 0, 63, 60
2, 100376, Note_on_c, 0, 63, 0
2, 100376, Note_on_c, 0, 72, 0
2, 100380, Note_on_c, 0, 70, 80
2, 100380, Note_on_c, 0, 61, 60
2, 100396, Note_on_c, 0, 61, 0
2, 100396, Note_on_c, 0, 70, 0
2, 100400, Note_on_c, 0, 70, 70
2, 100400, Note_on_c, 0, 61, 60
2, 100416, Note_on_c, 0, 61, 0
2, 100416, Note_on_c, 0, 70, 0
2, 100420, Note_on_c, 0, 68, 80
2, 100420, Note_on_c, 0, 60, 60
2, 100436, Note_on_c, 0, 60, 0
2, 100436, Note_on_c, 0, 68, 0
2, 100440, Note_on_c, 0, 68, 70
2, 100440, Note_on_c, 0, 60, 60
2, 100456, Note_on_c, 0, 60, 0
2, 100456, Note_on_c, 0, 68, 0
2, 100460, Note_on_c, 0, 67, 80
2, 100460, Note_on_c, 0, 60, 60
2, 100476, Note_on_c, 0, 60, 0
2, 100476, Note_on_c, 0, 67, 0
2, 100480, Note_on_c, 0, 67, 70
2, 100480, Note_on_c, 0, 60, 60
2, 100496, Note_on_c, 0, 60, 0
2, 100496, Note_on_c, 0, 67, 0
2, 100500, Note_on_c, 0, 65, 80
2, 100500, Note_on_c, 0, 60, 60
2, 100516, Note_on_c, 0, 60, 0
2, 100516, Note_on_c, 0, 65, 0
2, 100520, Note_on_c, 0, 65, 70
2, 100520, Note_on_c, 0, 60, 60
2, 100536, Note_on_c, 0, 60, 0
2, 100536, Note_on_c, 0, 65, 0
2, 100540, Note_on_c, 0, 62, 50
2, 100540, Note_on_c, 0, 59, 50
2, 100540, Note_on_c, 0, 67, 80
2, 100700, Note_on_c, 0, 64, 50
2, 100700, Note_on_c, 0, 58, 50
2, 100705, Note_on_c, 0, 59, 0
2, 100705, Note_on_c, 0, 62, 0
2, 100860, Note_on_c, 0, 56, 50
2, 100865, Note_on_c, 0, 64, 0
2, 100865, Note_on_c, 0, 58, 0
2, 100940, Note_on_c, 0, 65, 60
2, 100950, Note_on_c, 0, 67, 0
2, 100980, Note_on_c, 0, 63, 60
2, 100985, Note_on_c, 0, 65, 0
2, 101020, Note_on_c, 0, 62, 60
2, 101025, Note_on_c, 0, 63, 0
2, 101025, Note_on_c, 0, 56, 0
2, 101100, Note_on_c, 0, 59, 50
2, 101150, Note_on_c, 0, 59, 0
2, 101180, Note_on_c, 0, 63, 50
2, 101180, Note_on_c, 0, 60, 40
2, 101185, Note_on_c, 0, 62, 0
2, 101220, Note_on_c, 0, 65, 50
2, 101220, Note_on_c, 0, 62, 50
2, 101225, Note_on_c, 0, 63, 0
2, 101260, Note_on_c, 0, 67, 40
2, 101260, Note_on_c, 0, 63, 50
2, 101265, Note_on_c, 0, 62, 0
2, 101265, Note_on_c, 0, 65, 0
2, 101340, Note_on_c, 0, 64, 50
2, 101340, Note_on_c, 0, 60, 50
2, 101345, Note_on_c, 0, 63, 0
2, 101580, Note_on_c, 0, 65, 50
2, 101585, Note_on_c, 0, 67, 0
2, 101610, Note_on_c, 0, 60, 0
2, 101610, Note_on_c, 0, 64, 0
2, 101620, Note_on_c, 0, 63, 50
2, 101625, Note_on_c, 0, 65, 0
2, 101660, Note_on_c, 0, 62, 50
2, 101665, Note_on_c, 0, 63, 0
2, 101760, Control_c, 0, 11, 45
2, 101780, Note_on_c, 0, 60, 0
2, 101820, Note_on_c, 0, 63, 60
2, 101820, Note_on_c, 0, 60, 50
2, 101825, Note_on_c, 0, 62, 0
2, 102050, Note_on_c, 0, 63, 0
2, 102060, Note_on_c, 0, 67, 60
2, 102060, Note_on_c, 0, 63, 50
2, 102075, Note_on_c, 0, 60, 0
2, 102140, Note_on_c, 0, 75, 60
2, 102150, Note_on_c, 0, 63, 0
2, 102150, Note_on_c, 0, 67, 0
2, 102300, Note_on_c, 0, 71, 60
2, 102300, Note_on_c, 0, 65, 50
2, 102310, Note_on_c, 0, 75, 0
2, 102460, Control_c, 0, 11, 40
2, 102460, Note_on_c, 0, 72, 60
2, 102460, Note_on_c, 0, 63, 50
2, 102470, Note_on_c, 0, 65, 0
2, 102470, Note_on_c, 0, 71, 0
2, 103460, Note_on_c, 0, 72, 0
2, 103460, Note_on_c, 0, 63, 0
2, 103470, Note_on_c, 0, 68, 50
2, 103470, Note_on_c, 0, 65, 50
2, 103590, Note_on_c, 0, 63, 50
2, 103600, Note_on_c, 0, 65, 0
2, 103714, Note_on_c, 0, 61, 50
2, 103720, Note_on_c, 0, 63, 0
2, 103934, Note_on_c, 0, 61, 0
2, 103934, Note_on_c, 0, 60, 50
2, 104177, Note_on_c, 0, 63, 50
2, 104190, Note_on_c, 0, 68, 0
2, 104274, Note_on_c, 0, 60, 0
2, 104353, Note_on_c, 0, 70, 50
2, 104507, Note_on_c, 0, 69, 50
2, 104513, Note_on_c, 0, 70, 0
2, 104667, Note_on_c, 0, 70, 50
2, 104667, Note_on_c, 0, 61, 50
2, 104677, Note_on_c, 0, 63, 0
2, 104682, Note_on_c, 0, 69, 0
2, 104793, Note_on_c, 0, 65, 50
2, 105007, Note_on_c, 0, 70, 0
2, 105007, Note_on_c, 0, 61, 0
2, 105013, Note_on_c, 0, 65, 0
2, 105043, Note_on_c, 0, 65, 50
2, 105143, Note_on_c, 0, 65, 0
2, 105164, Note_on_c, 0, 65, 50
2, 105164, Note_on_c, 0, 61, 50
2, 105614, Note_on_c, 0, 61, 0
2, 105625, Note_on_c, 0, 61, 50
2, 105744, Note_on_c, 0, 65, 0
2, 105751, Note_on_c, 0, 69, 50
2, 105751, Note_on_c, 0, 63, 50
2, 105755, Note_on_c, 0, 61, 0
2, 105877, Note_on_c, 0, 70, 50
2, 105877, Note_on_c, 0, 61, 50
2, 105881, Note_on_c, 0, 63, 0
2, 105881, Note_on_c, 0, 69, 0
2, 106026, Note_on_c, 0, 68, 50
2, 106037, Note_on_c, 0, 70, 0
2, 106182, Note_on_c, 0, 61, 0
2, 106201, Note_on_c, 0, 67, 50
2, 106201, Note_on_c, 0, 61, 50
2, 106211, Note_on_c, 0, 68, 0
2, 106761, Note_on_c, 0, 68, 50
2, 106761, Note_on_c, 0, 59, 50
2, 106771, Note_on_c, 0, 61, 0
2, 106771, Note_on_c, 0, 67, 0
2, 107101, Note_on_c, 0, 68, 0
2, 107101, Note_on_c, 0, 59, 0
2, 107117, Note_on_c, 0, 68, 50
2, 107117, Note_on_c, 0, 64, 40
2, 107117, Note_on_c, 0, 59, 40
2, 107237, Note_on_c, 0, 59, 0
2, 107237, Note_on_c, 0, 64, 0
2, 107237, Note_on_c, 0, 68, 0
2, 107242, Note_on_c, 0, 68, 50
2, 107242, Note_on_c, 0, 64, 40
2, 107242, Note_on_c, 0, 59, 40
2, 107742, Note_on_c, 0, 59, 0
2, 107742, Note_on_c, 0, 64, 0
2, 107742, Note_on_c, 0, 68, 0
2, 107783, Note_on_c, 0, 68, 50
2, 107783, Note_on_c, 0, 64, 40
2, 107783, Note_on_c, 0, 59, 40
2, 108028, Note_on_c, 0, 59, 0
2, 108028, Note_on_c, 0, 64, 0
2, 108028, Note_on_c, 0, 68, 0
2, 108046, Note_on_c, 0, 68, 50
2, 108046, Note_on_c, 0, 64, 40
2, 108046, Note_on_c, 0, 59, 40
2, 108166, Note_on_c, 0, 59, 0
2, 108166, Note_on_c, 0, 64, 0
2, 108166, Note_on_c, 0, 68, 0
2, 108180, Note_on_c, 0, 68, 60
2, 108180, Note_on_c, 0, 63, 50
2, 108180, Note_on_c, 0, 59, 50
2, 108300, Note_on_c, 0, 59, 0
2, 108300, Note_on_c, 0, 63, 0
2, 108300, Note_on_c, 0, 68, 0
2, 108325, Note_on_c, 0, 68, 50
2, 108325, Note_on_c, 0, 62, 40
2, 108325, Note_on_c, 0, 59, 40
2, 108895, Note_on_c, 0, 59, 0
2, 108895, Note_on_c, 0, 62, 0
2, 108895, Note_on_c, 0, 68, 0
2, 108913, Note_on_c, 0, 68, 55
2, 108913, Note_on_c, 0, 63, 40
2, 109380, Note_on_c, 0, 67, 50
2, 109393, Note_on_c, 0, 68, 0
2, 109600, Note_on_c, 0, 67, 0
2, 109610, Note_on_c, 0, 67, 50
2, 109610, Note_on_c, 0, 64, 40
2, 109613, Note_on_c, 0, 63, 0
2, 109943, Note_on_c, 0, 65, 50
2, 109950, Note_on_c, 0, 64, 0
2, 109950, Note_on_c, 0, 67, 0
2, 110063, Note_on_c, 0, 65, 0
2, 110419, Note_on_c, 0, 68, 50
2, 110419, Note_on_c, 0, 59, 40
2, 111411, Note_on_c, 0, 69, 50
2, 111411, Note_on_c, 0, 57, 40
2, 111419, Note_on_c, 0, 59, 0
2, 111419, Note_on_c, 0, 68, 0
2, 111581, Note_on_c, 0, 69, 0
2, 111581, Note_on_c, 0, 57, 0
2, 111899, Note_on_c, 0, 69, 50
2, 111899, Note_on_c, 0, 60, 40
2, 112535, Note_on_c, 0, 70, 50
2, 112535, Note_on_c, 0, 58, 50
2, 112539, Note_on_c, 0, 60, 0
2, 112539, Note_on_c, 0, 69, 0
2, 112850, Note_on_c, 0, 66, 50
2, 112860, Note_on_c, 0, 70, 0
2, 113175, Note_on_c, 0, 58, 0
2, 113215, Note_on_c, 0, 65, 50
2, 113215, Note_on_c, 0, 58, 50
2, 113220, Note_on_c, 0, 66, 0
2, 113557, Note_on_c, 0, 64, 50
2, 113565, Note_on_c, 0, 65, 0
2, 114105, Note_on_c, 0, 58, 0
2, 114121, Note_on_c, 0, 65, 50
2, 114121, Note_on_c, 0, 60, 45
2, 114127, Note_on_c, 0, 64, 0
2, 114311, Note_on_c, 0, 61, 45
2, 114316, Note_on_c, 0, 60, 0
2, 114521, Note_on_c, 0, 65, 0
2, 114541, Note_on_c, 0, 61, 0
2, 114544, Control_c, 0, 11, 50
2, 114544, Note_on_c, 0, 60, 40
2, 114544, Note_on_c, 0, 57, 40
2, 114604, Note_on_c, 0, 57, 0
2, 114604, Note_on_c, 0, 60, 0
2, 114621, Note_on_c, 0, 65, 50
2, 114621, Note_on_c, 0, 60, 40
2, 114621, Note_on_c, 0, 57, 40
2, 114644, Note_on_c, 0, 65, 0
2, 114741, Note_on_c, 0, 57, 0
2, 114741, Note_on_c, 0, 60, 0
2, 114749, Note_on_c, 0, 65, 50
2, 114749, Note_on_c, 0, 62, 40
2, 114749, Note_on_c, 0, 56, 40
2, 114818, Note_on_c, 0, 64, 50
2, 114818, Note_on_c, 0, 60, 40
2, 114818, Note_on_c, 0, 55, 40
2, 114822, Note_on_c, 0, 56, 0
2, 114822, Note_on_c, 0, 65, 0
2, 114822, Note_on_c, 0, 62, 0
2, 114880, Note_on_c, 0, 65, 55
2, 114880, Note_on_c, 0, 59, 42
2, 114880, Note_on_c, 0, 53, 42
2, 114884, Note_on_c, 0, 64, 0
2, 114884, Note_on_c, 0, 55, 0
2, 114884, Note_on_c, 0, 60, 0
2, 114946, Note_on_c, 0, 64, 60
2, 114946, Note_on_c, 0, 58, 45
2, 114946, Note_on_c, 0, 55, 45
2, 114952, Note_on_c, 0, 65, 0
2, 114952, Note_on_c, 0, 53, 0
2, 114952, Note_on_c, 0, 59, 0
2, 115012, Note_on_c, 0, 65, 65
2, 115012, Note_on_c, 0, 57, 45
2, 115018, Note_on_c, 0, 64, 0
2, 115018, Note_on_c, 0, 55, 0
2, 115018, Note_on_c, 0, 58, 0
2, 115082, Note_on_c, 0, 69, 70
2, 115082, Note_on_c, 0, 65, 60
2, 115082, Note_on_c, 0, 60, 60
2, 115112, Note_on_c, 0, 65, 0
2, 115112, Note_on_c, 0, 57, 0
2, 115612, Note_on_c, 0, 65, 0
2, 115612, Note_on_c, 0, 69, 0
2, 115612, Note_on_c, 0, 60, 0
2, 115639, Note_on_c, 0, 69, 60
2, 115639, Note_on_c, 0, 60, 50
2, 116219, Note_on_c, 0, 60, 0
2, 116219, Note_on_c, 0, 69, 0
2, 116285, Control_c, 0, 11, 75
2, 116285, Note_on_c, 0, 66, 70
2, 116285, Note_on_c, 0, 54, 60
2, 116318, Note_on_c, 0, 54, 0
2, 116318, Note_on_c, 0, 66, 0
2, 116319, Note_on_c, 0, 60, 70
2, 116319, Note_on_c, 0, 48, 60
2, 116419, Note_on_c, 0, 48, 0
2, 116419, Note_on_c, 0, 60, 0
2, 116419, Note_on_c, 0, 61, 70
2, 116419, Note_on_c, 0, 49, 60
2, 116452, Note_on_c, 0, 49, 0
2, 116452, Note_on_c, 0, 61, 0
2, 116453, Note_on_c, 0, 63, 70
2, 116453, Note_on_c, 0, 51, 60
2, 116553, Note_on_c, 0, 51, 0
2, 116553, Note_on_c, 0, 63, 0
2, 116588, Note_on_c, 0, 63, 70
2, 116588, Note_on_c, 0, 60, 60
2, 116588, Note_on_c, 0, 54, 60
2, 116732, Note_on_c, 0, 61, 60
2, 116732, Note_on_c, 0, 58, 50
2, 116743, Note_on_c, 0, 54, 0
2, 116743, Note_on_c, 0, 63, 0
2, 116743, Note_on_c, 0, 60, 0
2, 116792, Note_on_c, 0, 58, 0
2, 116803, Control_c, 0, 11, 55
2, 116803, Note_on_c, 0, 70, 50
2, 116923, Note_on_c, 0, 70, 0
2, 116940, Note_on_c, 0, 70, 50
2, 117002, Note_on_c, 0, 61, 0
2, 117003, Note_on_c, 0, 69, 50
2, 117003, Note_on_c, 0, 63, 40
2, 117006, Note_on_c, 0, 70, 0
2, 117065, Note_on_c, 0, 70, 50
2, 117065, Note_on_c, 0, 64, 40
2, 117070, Note_on_c, 0, 63, 0
2, 117070, Note_on_c, 0, 69, 0
2, 117133, Note_on_c, 0, 69, 50
2, 117133, Note_on_c, 0, 63, 40
2, 117137, Note_on_c, 0, 70, 0
2, 117137, Note_on_c, 0, 64, 0
2, 117199, Note_on_c, 0, 70, 50
2, 117199, Note_on_c, 0, 61, 40
2, 117203, Note_on_c, 0, 69, 0
2, 117203, Note_on_c, 0, 63, 0
2, 117265, Note_on_c, 0, 73, 50
2, 117265, Note_on_c, 0, 65, 50
2, 117299, Note_on_c, 0, 70, 0
2, 117299, Note_on_c, 0, 61, 0
2, 117815, Note_on_c, 0, 67, 50
2, 117815, Note_on_c, 0, 64, 50
2, 117825, Note_on_c, 0, 73, 0
2, 117825, Note_on_c, 0, 65, 0
2, 118375, Note_on_c, 0, 67, 0
2, 118375, Note_on_c, 0, 64, 0
2, 118452, Control_c, 0, 11, 75
2, 118452, Note_on_c, 0, 61, 70
2, 118452, Note_on_c, 0, 49, 60
2, 118486, Note_on_c, 0, 55, 70
2, 118486, Note_on_c, 0, 43, 60
2, 118492, Note_on_c, 0, 49, 0
2, 118492, Note_on_c, 0, 61, 0
2, 118585, Note_on_c, 0, 56, 70
2, 118585, Note_on_c, 0, 44, 60
2, 118591, Note_on_c, 0, 55, 0
2, 118591, Note_on_c, 0, 43, 0
2, 118617, Note_on_c, 0, 58, 70
2, 118617, Note_on_c, 0, 46, 60
2, 118625, Note_on_c, 0, 56, 0
2, 118625, Note_on_c, 0, 44, 0
2, 118692, Note_on_c, 0, 58, 0
2, 118692, Note_on_c, 0, 46, 0
2, 118755, Note_on_c, 0, 64, 50
2, 118755, Note_on_c, 0, 58, 45
2, 118755, Note_on_c, 0, 55, 45
2, 118830, Note_on_c, 0, 55, 0
2, 118830, Note_on_c, 0, 58, 0
2, 118830, Note_on_c, 0, 64, 0
2, 118899, Control_c, 0, 11, 55
2, 118899, Note_on_c, 0, 65, 55
2, 119184, Note_on_c, 0, 61, 55
2, 119451, Note_on_c, 0, 63, 55
2, 119459, Note_on_c, 0, 65, 0
2, 119691, Note_on_c, 0, 63, 0
2, 119715, Note_on_c, 0, 60, 65
2, 119724, Note_on_c, 0, 61, 0
2, 119821, Note_on_c, 0, 62, 70
2, 119853, Note_on_c, 0, 63, 75
2, 119857, Note_on_c, 0, 62, 0
2, 119945, Note_on_c, 0, 65, 75
2, 119953, Note_on_c, 0, 63, 0
2, 119955, Note_on_c, 0, 60, 0
2, 119992, Note_on_c, 0, 66, 80
2, 120000, Note_on_c, 0, 65, 0
2, 120232, Note_on_c, 0, 66, 0
2, 120270, Note_on_c, 0, 63, 70
2, 120510, Note_on_c, 0, 63, 0
2, 120539, Note_on_c, 0, 65, 70
2, 120779, Note_on_c, 0, 65, 0
2, 120813, Note_on_c, 0, 62, 55
2, 121053, Note_on_c, 0, 62, 0
2, 121090, Note_on_c, 0, 65, 55
2, 121090, Note_on_c, 0, 59, 45
2, 121649, Note_on_c, 0, 64, 55
2, 121649, Note_on_c, 0, 60, 45
2, 121665, Note_on_c, 0, 59, 0
2, 121665, Note_on_c, 0, 65, 0
2, 121929, Note_on_c, 0, 64, 0
2, 121929, Note_on_c, 0, 60, 0
2, 122216, Note_on_c, 0, 67, 55
2, 122216, Note_on_c, 0, 61, 45
2, 122778, Note_on_c, 0, 66, 55
2, 122778, Note_on_c, 0, 62, 45
2, 122786, Note_on_c, 0, 61, 0
2, 122786, Note_on_c, 0, 67, 0
2, 123188, Note_on_c, 0, 69, 55
2, 123188, Note_on_c, 0, 60, 45
2, 123203, Note_on_c, 0, 66, 0
2, 123203, Note_on_c, 0, 62, 0
2, 123318, Note_on_c, 0, 69, 0
2, 123318, Note_on_c, 0, 60, 0
2, 123333, Note_on_c, 0, 67, 50
2, 123333, Note_on_c, 0, 58, 50
2, 123600, Note_on_c, 0, 58, 0
2, 123600, Note_on_c, 0, 55, 45
2, 123713, Note_on_c, 0, 67, 0
2, 123738, Note_on_c, 0, 67, 50
2, 123858, Note_on_c, 0, 67, 0
2, 123872, Note_on_c, 0, 67, 70
2, 123872, Note_on_c, 0, 57, 45
2, 123880, Note_on_c, 0, 55, 0
2, 124009, Note_on_c, 0, 60, 45
2, 124012, Note_on_c, 0, 57, 0
2, 124122, Note_on_c, 0, 67, 0
2, 124145, Note_on_c, 0, 67, 70
2, 124145, Note_on_c, 0, 59, 50
2, 124149, Note_on_c, 0, 60, 0
2, 124395, Note_on_c, 0, 59, 0
2, 124395, Note_on_c, 0, 67, 0
2, 124420, Note_on_c, 0, 67, 70
2, 124420, Note_on_c, 0, 60, 50
2, 124684, Note_on_c, 0, 63, 50
2, 124690, Note_on_c, 0, 60, 0
2, 124785, Note_on_c, 0, 67, 0
2, 124812, Note_on_c, 0, 67, 60
2, 124949, Note_on_c, 0, 59, 50
2, 124954, Note_on_c, 0, 63, 0
2, 125083, Note_on_c, 0, 68, 70
2, 125092, Note_on_c, 0, 67, 0
2, 125220, Note_on_c, 0, 58, 60
2, 125229, Note_on_c, 0, 59, 0
2, 125353, Note_on_c, 0, 67, 60
2, 125363, Note_on_c, 0, 68, 0
2, 125496, Note_on_c, 0, 65, 60
2, 125496, Note_on_c, 0, 56, 50
2, 125500, Note_on_c, 0, 58, 0
2, 125503, Note_on_c, 0, 67, 0
2, 125769, Note_on_c, 0, 60, 50
2, 125776, Note_on_c, 0, 56, 0
2, 126042, Note_on_c, 0, 64, 60
2, 126042, Note_on_c, 0, 61, 50
2, 126046, Note_on_c, 0, 65, 0
2, 126049, Note_on_c, 0, 60, 0
2, 126312, Note_on_c, 0, 65, 60
2, 126312, Note_on_c, 0, 60, 50
2, 126322, Note_on_c, 0, 64, 0
2, 126322, Note_on_c, 0, 61, 0
2, 126589, Note_on_c, 0, 66, 60
2, 126589, Note_on_c, 0, 58, 50
2, 126592, Note_on_c, 0, 65, 0
2, 126592, Note_on_c, 0, 60, 0
2, 126689, Note_on_c, 0, 66, 0
2, 126689, Note_on_c, 0, 58, 0
2, 126891, Note_on_c, 0, 68, 60
2, 126891, Note_on_c, 0, 65, 50
2, 127174, Note_on_c, 0, 66, 60
2, 127181, Note_on_c, 0, 65, 0
2, 127181, Note_on_c, 0, 68, 0
2, 127274, Note_on_c, 0, 66, 0
2, 127465, Note_on_c, 0, 68, 60
2, 127465, Note_on_c, 0, 65, 50
2, 127741, Note_on_c, 0, 70, 60
2, 127741, Note_on_c, 0, 67, 50
2, 127750, Note_on_c, 0, 65, 0
2, 127750, Note_on_c, 0, 68, 0
2, 128018, Note_on_c, 0, 68, 63
2, 128021, Note_on_c, 0, 70, 0
2, 128021, Note_on_c, 0, 67, 0
2, 128295, Note_on_c, 0, 69, 73
2, 128295, Note_on_c, 0, 66, 63
2, 128303, Note_on_c, 0, 68, 0
2, 128567, Note_on_c, 0, 70, 67
2, 128567, Note_on_c, 0, 65, 57
2, 128575, Note_on_c, 0, 66, 0
2, 128575, Note_on_c, 0, 69, 0
2, 128843, Note_on_c, 0, 71, 70
2, 128843, Note_on_c, 0, 68, 60
2, 128857, Note_on_c, 0, 70, 0
2, 128857, Note_on_c, 0, 65, 0
2, 129373, Note_on_c, 0, 68, 0
2, 129399, Note_on_c, 0, 72, 75
2, 129399, Note_on_c, 0, 68, 65
2, 129403, Note_on_c, 0, 71, 0
2, 130049, Note_on_c, 0, 68, 0
2, 130095, Note_on_c, 0, 68, 50
2, 130099, Note_on_c, 0, 72, 0
2, 130238, Note_on_c, 0, 67, 50
2, 130245, Note_on_c, 0, 68, 0
2, 130377, Note_on_c, 0, 68, 50
2, 130388, Note_on_c, 0, 67, 0
2, 130514, Note_on_c, 0, 67, 50
2, 130527, Note_on_c, 0, 68, 0
2, 130653, Note_on_c, 0, 65, 50
2, 130664, Note_on_c, 0, 67, 0
2, 130791, Note_on_c, 0, 63, 50
2, 130803, Note_on_c, 0, 65, 0
2, 130925, Note_on_c, 0, 61, 50
2, 130931, Note_on_c, 0, 63, 0
2, 131060, Note_on_c, 0, 60, 50
2, 131065, Note_on_c, 0, 61, 0
2, 131180, Note_on_c, 0, 60, 0
2, 131192, Note_on_c, 0, 62, 75
2, 131192, Note_on_c, 0, 56, 65
2, 131572, Note_on_c, 0, 56, 0
2, 131572, Note_on_c, 0, 62, 0
2, 131601, Note_on_c, 0, 62, 80
2, 131601, Note_on_c, 0, 56, 70
2, 132131, Note_on_c, 0, 56, 0
2, 132131, Note_on_c, 0, 62, 0
2, 132142, Control_c, 0, 11, 110
2, 132142, Note_on_c, 0, 60, 60
2, 132142, Note_on_c, 0, 55, 50
2, 132164, Note_on_c, 0, 55, 0
2, 132164, Note_on_c, 0, 60, 0
2, 132172, Note_on_c, 0, 60, 60
2, 132172, Note_on_c, 0, 55, 50
2, 132194, Note_on_c, 0, 55, 0
2, 132194, Note_on_c, 0, 60, 0
2, 132202, Note_on_c, 0, 64, 60
2, 132202, Note_on_c, 0, 55, 50
2, 132224, Note_on_c, 0, 55, 0
2, 132224, Note_on_c, 0, 64, 0
2, 132232, Note_on_c, 0, 64, 60
2, 132232, Note_on_c, 0, 55, 50
2, 132254, Note_on_c, 0, 55, 0
2, 132254, Note_on_c, 0, 64, 0
2, 132262, Note_on_c, 0, 67, 60
2, 132262, Note_on_c, 0, 64, 50
2, 132284, Note_on_c, 0, 64, 0
2, 132284, Note_on_c, 0, 67, 0
2, 132292, Note_on_c, 0, 67, 60
2, 132292, Note_on_c, 0, 64, 50
2, 132314, Note_on_c, 0, 64, 0
2, 132314, Note_on_c, 0, 67, 0
2, 132322, Note_on_c, 0, 79, 60
2, 132322, Note_on_c, 0, 67, 50
2, 132344, Note_on_c, 0, 67, 0
2, 132344, Note_on_c, 0, 79, 0
2, 132352, Note_on_c, 0, 79, 60
2, 132352, Note_on_c, 0, 67, 50
2, 132374, Note_on_c, 0, 67, 0
2, 132374, Note_on_c, 0, 79, 0
2, 132382, Note_on_c, 0, 68, 50
2, 132382, Note_on_c, 0, 80, 60
2, 132404, Note_on_c, 0, 80, 0
2, 132404, Note_on_c, 0, 68, 0
2, 132412, Note_on_c, 0, 68, 50
2, 132412, Note_on_c, 0, 80, 60
2, 132434, Note_on_c, 0, 80, 0
2, 132434, Note_on_c, 0, 68, 0
2, 132442, Note_on_c, 0, 68, 50
2, 132442, Note_on_c, 0, 80, 60
2, 132464, Note_on_c, 0, 80, 0
2, 132464, Note_on_c, 0, 68, 0
2, 132472, Note_on_c, 0, 68, 50
2, 132472, Note_on_c, 0, 80, 60
2, 132494, Note_on_c, 0, 80, 0
2, 132494, Note_on_c, 0, 68, 0
2, 132502, Note_on_c, 0, 68, 50
2, 132502, Note_on_c, 0, 80, 60
2, 132524, Note_on_c, 0, 80, 0
2, 132524, Note_on_c, 0, 68, 0
2, 132532, Note_on_c, 0, 68, 50
2, 132532, Note_on_c, 0, 80, 60
2, 132554, Note_on_c, 0, 80, 0
2, 132554, Note_on_c, 0, 68, 0
2, 132562, Note_on_c, 0, 67, 50
2, 132562, Note_on_c, 0, 79, 60
2, 132584, Note_on_c, 0, 79, 0
2, 132584, Note_on_c, 0, 67, 0
2, 132592, Note_on_c, 0, 67, 50
2, 132592, Note_on_c, 0, 79, 60
2, 132614, Note_on_c, 0, 79, 0
2, 132614, Note_on_c, 0, 67, 0
2, 132622, Note_on_c, 0, 68, 50
2, 132622, Note_on_c, 0, 80, 60
2, 132644, Note_on_c, 0, 80, 0
2, 132644, Note_on_c, 0, 68, 0
2, 132652, Note_on_c, 0, 68, 50
2, 132652, Note_on_c, 0, 80, 60
2, 132674, Note_on_c, 0, 80, 0
2, 132674, Note_on_c, 0, 68, 0
2, 132682, Note_on_c, 0, 68, 50
2, 132682, Note_on_c, 0, 80, 60
2, 132704, Note_on_c, 0, 80, 0
2, 132704, Note_on_c, 0, 68, 0
2, 132712, Note_on_c, 0, 68, 50
2, 132712, Note_on_c, 0, 80, 60
2, 132734, Note_on_c, 0, 80, 0
2, 132734, Note_on_c, 0, 68, 0
2, 132742, Note_on_c, 0, 68, 50
2, 132742, Note_on_c, 0, 80, 60
2, 132764, Note_on_c, 0, 80, 0
2, 132764, Note_on_c, 0, 68, 0
2, 132772, Note_on_c, 0, 68, 50
2, 132772, Note_on_c, 0, 80, 60
2, 132794, Note_on_c, 0, 80, 0
2, 132794, Note_on_c, 0, 68, 0
2, 132802, Note_on_c, 0, 67, 50
2, 132802, Note_on_c, 0, 79, 60
2, 132824, Note_on_c, 0, 79, 0
2, 132824, Note_on_c, 0, 67, 0
2, 132832, Note_on_c, 0, 67, 50
2, 132832, Note_on_c, 0, 79, 60
2, 132854, Note_on_c, 0, 79, 0
2, 132854, Note_on_c, 0, 67, 0
2, 132862, Note_on_c, 0, 65, 50
2, 132862, Note_on_c, 0, 77, 60
2, 132884, Note_on_c, 0, 77, 0
2, 132884, Note_on_c, 0, 65, 0
2, 132892, Note_on_c, 0, 65, 50
2, 132892, Note_on_c, 0, 77, 60
2, 132914, Note_on_c, 0, 77, 0
2, 132914, Note_on_c, 0, 65, 0
2, 132922, Note_on_c, 0, 65, 50
2, 132922, Note_on_c, 0, 80, 60
2, 132944, Note_on_c, 0, 80, 0
2, 132944, Note_on_c, 0, 65, 0
2, 132952, Note_on_c, 0, 65, 50
2, 132952, Note_on_c, 0, 80, 60
2, 132974, Note_on_c, 0, 80, 0
2, 132974, Note_on_c, 0, 65, 0
2, 132982, Note_on_c, 0, 65, 50
2, 132982, Note_on_c, 0, 79, 60
2, 133004, Note_on_c, 0, 79, 0
2, 133004, Note_on_c, 0, 65, 0
2, 133012, Note_on_c, 0, 65, 50
2, 133012, Note_on_c, 0, 79, 60
2, 133034, Note_on_c, 0, 79, 0
2, 133034, Note_on_c, 0, 65, 0
2, 133042, Note_on_c, 0, 65, 50
2, 133042, Note_on_c, 0, 77, 60
2, 133064, Note_on_c, 0, 77, 0
2, 133064, Note_on_c, 0, 65, 0
2, 133072, Note_on_c, 0, 65, 50
2, 133072, Note_on_c, 0, 77, 60
2, 133094, Note_on_c, 0, 77, 0
2, 133094, Note_on_c, 0, 65, 0
2, 133102, Note_on_c, 0, 64, 50
2, 133102, Note_on_c, 0, 76, 60
2, 133124, Note_on_c, 0, 76, 0
2, 133124, Note_on_c, 0, 64, 0
2, 133132, Note_on_c, 0, 64, 50
2, 133132, Note_on_c, 0, 76, 60
2, 133154, Note_on_c, 0, 76, 0
2, 133154, Note_on_c, 0, 64, 0
2, 133162, Note_on_c, 0, 64, 50
2, 133162, Note_on_c, 0, 76, 60
2, 133184, Note_on_c, 0, 76, 0
2, 133184, Note_on_c, 0, 64, 0
2, 133192, Note_on_c, 0, 64, 50
2, 133192, Note_on_c, 0, 76, 60
2, 133214, Note_on_c, 0, 76, 0
2, 133214, Note_on_c, 0, 64, 0
2, 133222, Note_on_c, 0, 64, 50
2, 133222, Note_on_c, 0, 76, 60
2, 133244, Note_on_c, 0, 76, 0
2, 133244, Note_on_c, 0, 64, 0
2, 133252, Note_on_c, 0, 64, 50
2, 133252, Note_on_c, 0, 76, 60
2, 133274, Note_on_c, 0, 76, 0
2, 133274, Note_on_c, 0, 64, 0
2, 133282, Note_on_c, 0, 67, 50
2, 133282, Note_on_c, 0, 79, 60
2, 133304, Note_on_c, 0, 79, 0
2, 133304, Note_on_c, 0, 67, 0
2, 133312, Note_on_c, 0, 67, 50
2, 133312, Note_on_c, 0, 79, 60
2, 133334, Note_on_c, 0, 79, 0
2, 133334, Note_on_c, 0, 67, 0
2, 133342, Note_on_c, 0, 68, 50
2, 133342, Note_on_c, 0, 80, 60
2, 133364, Note_on_c, 0, 80, 0
2, 133364, Note_on_c, 0, 68, 0
2, 133372, Note_on_c, 0, 68, 50
2, 133372, Note_on_c, 0, 80, 60
2, 133394, Note_on_c, 0, 80, 0
2, 133394, Note_on_c, 0, 68, 0
2, 133402, Note_on_c, 0, 68, 50
2, 133402, Note_on_c, 0, 80, 60
2, 133424, Note_on_c, 0, 80, 0
2, 133424, Note_on_c, 0, 68, 0
2, 133432, Note_on_c, 0, 68, 50
2, 133432, Note_on_c, 0, 80, 60
2, 133454, Note_on_c, 0, 80, 0
2, 133454, Note_on_c, 0, 68, 0
2, 133462, Note_on_c, 0, 68, 50
2, 133462, Note_on_c, 0, 80, 60
2, 133484, Note_on_c, 0, 80, 0
2, 133484, Note_on_c, 0, 68, 0
2, 133492, Note_on_c, 0, 68, 50
2, 133492, Note_on_c, 0, 80, 60
2, 133514, Note_on_c, 0, 80, 0
2, 133514, Note_on_c, 0, 68, 0
2, 133522, Note_on_c, 0, 67, 50
2, 133522, Note_on_c, 0, 79, 60
2, 133544, Note_on_c, 0, 79, 0
2, 133544, Note_on_c, 0, 67, 0
2, 133552, Note_on_c, 0, 67, 50
2, 133552, Note_on_c, 0, 79, 60
2, 133574, Note_on_c, 0, 79, 0
2, 133574, Note_on_c, 0, 67, 0
2, 133582, Note_on_c, 0, 68, 50
2, 133582, Note_on_c, 0, 80, 60
2, 133604, Note_on_c, 0, 80, 0
2, 133604, Note_on_c, 0, 68, 0
2, 133612, Note_on_c, 0, 68, 50
2, 133612, Note_on_c, 0, 80, 60
2, 133634, Note_on_c, 0, 80, 0
2, 133634, Note_on_c, 0, 68, 0
2, 133642, Note_on_c, 0, 68, 50
2, 133642, Note_on_c, 0, 80, 60
2, 133664, Note_on_c, 0, 80, 0
2, 133664, Note_on_c, 0, 68, 0
2, 133672, Note_on_c, 0, 68, 50
2, 133672, Note_on_c, 0, 80, 60
2, 133694, Note_on_c, 0, 80, 0
2, 133694, Note_on_c, 0, 68, 0
2, 133702, Note_on_c, 0, 68, 50
2, 133702, Note_on_c, 0, 80, 60
2, 133724, Note_on_c, 0, 80, 0
2, 133724, Note_on_c, 0, 68, 0
2, 133732, Note_on_c, 0, 68, 50
2, 133732, Note_on_c, 0, 80, 60
2, 133754, Note_on_c, 0, 80, 0
2, 133754, Note_on_c, 0, 68, 0
2, 133762, Note_on_c, 0, 67, 50
2, 133762, Note_on_c, 0, 79, 60
2, 133784, Note_on_c, 0, 79, 0
2, 133784, Note_on_c, 0, 67, 0
2, 133792, Note_on_c, 0, 67, 50
2, 133792, Note_on_c, 0, 79, 60
2, 133814, Note_on_c, 0, 79, 0
2, 133814, Note_on_c, 0, 67, 0
2, 133822, Note_on_c, 0, 65, 50
2, 133822, Note_on_c, 0, 77, 60
2, 133844, Note_on_c, 0, 77, 0
2, 133844, Note_on_c, 0, 65, 0
2, 133852, Note_on_c, 0, 65, 50
2, 133852, Note_on_c, 0, 77, 60
2, 133874, Note_on_c, 0, 77, 0
2, 133874, Note_on_c, 0, 65, 0
2, 133882, Note_on_c, 0, 65, 50
2, 133882, Note_on_c, 0, 76, 60
2, 133904, Note_on_c, 0, 76, 0
2, 133904, Note_on_c, 0, 65, 0
2, 133912, Note_on_c, 0, 65, 50
2, 133912, Note_on_c, 0, 76, 60
2, 133934, Note_on_c, 0, 76, 0
2, 133934, Note_on_c, 0, 65, 0
2, 133942, Note_on_c, 0, 65, 50
2, 133942, Note_on_c, 0, 77, 60
2, 133964, Note_on_c, 0, 77, 0
2, 133964, Note_on_c, 0, 65, 0
2, 133972, Note_on_c, 0, 65, 50
2, 133972, Note_on_c, 0, 77, 60
2, 133994, Note_on_c, 0, 77, 0
2, 133994, Note_on_c, 0, 65, 0
2, 134002, Note_on_c, 0, 65, 50
2, 134002, Note_on_c, 0, 79, 60
2, 134024, Note_on_c, 0, 79, 0
2, 134024, Note_on_c, 0, 65, 0
2, 134032, Note_on_c, 0, 65, 50
2, 134032, Note_on_c, 0, 79, 60
2, 134054, Note_on_c, 0, 79, 0
2, 134054, Note_on_c, 0, 65, 0
2, 134062, Note_on_c, 0, 64, 50
2, 134062, Note_on_c, 0, 76, 60
2, 134084, Note_on_c, 0, 76, 0
2, 134084, Note_on_c, 0, 64, 0
2, 134092, Note_on_c, 0, 64, 50
2, 134092, Note_on_c, 0, 76, 60
2, 134114, Note_on_c, 0, 76, 0
2, 134114, Note_on_c, 0, 64, 0
2, 134122, Note_on_c, 0, 64, 50
2, 134122, Note_on_c, 0, 76, 60
2, 134144, Note_on_c, 0, 76, 0
2, 134144, Note_on_c, 0, 64, 0
2, 134152, Note_on_c, 0, 64, 50
2, 134152, Note_on_c, 0, 76, 60
2, 134174, Note_on_c, 0, 76, 0
2, 134174, Note_on_c, 0, 64, 0
2, 134182, Note_on_c, 0, 64, 50
2, 134182, Note_on_c, 0, 76, 60
2, 134204, Note_on_c, 0, 76, 0
2, 134204, Note_on_c, 0, 64, 0
2, 134212, Note_on_c, 0, 64, 50
2, 134212, Note_on_c, 0, 76, 60
2, 134234, Note_on_c, 0, 76, 0
2, 134234, Note_on_c, 0, 64, 0
2, 134242, Note_on_c, 0, 67, 50
2, 134242, Note_on_c, 0, 79, 60
2, 134264, Note_on_c, 0, 79, 0
2, 134264, Note_on_c, 0, 67, 0
2, 134272, Note_on_c, 0, 67, 50
2, 134272, Note_on_c, 0, 79, 60
2, 134294, Note_on_c, 0, 79, 0
2, 134294, Note_on_c, 0, 67, 0
2, 134302, Note_on_c, 0, 68, 50
2, 134302, Note_on_c, 0, 80, 60
2, 134324, Note_on_c, 0, 80, 0
2, 134324, Note_on_c, 0, 68, 0
2, 134332, Note_on_c, 0, 68, 50
2, 134332, Note_on_c, 0, 80, 60
2, 134354, Note_on_c, 0, 80, 0
2, 134354, Note_on_c, 0, 68, 0
2, 134362, Note_on_c, 0, 68, 50
2, 134362, Note_on_c, 0, 80, 60
2, 134384, Note_on_c, 0, 80, 0
2, 134384, Note_on_c, 0, 68, 0
2, 134392, Note_on_c, 0, 68, 50
2, 134392, Note_on_c, 0, 80, 60
2, 134414, Note_on_c, 0, 80, 0
2, 134414, Note_on_c, 0, 68, 0
2, 134422, Note_on_c, 0, 68, 50
2, 134422, Note_on_c, 0, 80, 60
2, 134444, Note_on_c, 0, 80, 0
2, 134444, Note_on_c, 0, 68, 0
2, 134452, Note_on_c, 0, 68, 50
2, 134452, Note_on_c, 0, 80, 60
2, 134474, Note_on_c, 0, 80, 0
2, 134474, Note_on_c, 0, 68, 0
2, 134482, Note_on_c, 0, 67, 50
2, 134482, Note_on_c, 0, 79, 60
2, 134504, Note_on_c, 0, 79, 0
2, 134504, Note_on_c, 0, 67, 0
2, 134512, Note_on_c, 0, 67, 50
2, 134512, Note_on_c, 0, 79, 60
2, 134534, Note_on_c, 0, 79, 0
2, 134534, Note_on_c, 0, 67, 0
2, 134542, Note_on_c, 0, 65, 50
2, 134542, Note_on_c, 0, 77, 60
2, 134564, Note_on_c, 0, 77, 0
2, 134564, Note_on_c, 0, 65, 0
2, 134572, Note_on_c, 0, 65, 50
2, 134572, Note_on_c, 0, 77, 60
2, 134594, Note_on_c, 0, 77, 0
2, 134594, Note_on_c, 0, 65, 0
2, 134602, Note_on_c, 0, 65, 50
2, 134602, Note_on_c, 0, 77, 60
2, 134624, Note_on_c, 0, 77, 0
2, 134624, Note_on_c, 0, 65, 0
2, 134632, Note_on_c, 0, 65, 50
2, 134632, Note_on_c, 0, 77, 60
2, 134654, Note_on_c, 0, 77, 0
2, 134654, Note_on_c, 0, 65, 0
2, 134662, Note_on_c, 0, 65, 50
2, 134662, Note_on_c, 0, 77, 60
2, 134684, Note_on_c, 0, 77, 0
2, 134684, Note_on_c, 0, 65, 0
2, 134692, Note_on_c, 0, 65, 50
2, 134692, Note_on_c, 0, 77, 60
2, 134714, Note_on_c, 0, 77, 0
2, 134714, Note_on_c, 0, 65, 0
2, 134722, Note_on_c, 0, 68, 50
2, 134722, Note_on_c, 0, 80, 60
2, 134744, Note_on_c, 0, 80, 0
2, 134744, Note_on_c, 0, 68, 0
2, 134752, Note_on_c, 0, 68, 50
2, 134752, Note_on_c, 0, 80, 60
2, 134774, Note_on_c, 0, 80, 0
2, 134774, Note_on_c, 0, 68, 0
2, 134782, Note_on_c, 0, 70, 50
2, 134782, Note_on_c, 0, 82, 60
2, 134804, Note_on_c, 0, 82, 0
2, 134804, Note_on_c, 0, 70, 0
2, 134812, Note_on_c, 0, 70, 50
2, 134812, Note_on_c, 0, 82, 60
2, 134834, Note_on_c, 0, 82, 0
2, 134834, Note_on_c, 0, 70, 0
2, 134842, Note_on_c, 0, 70, 50
2, 134842, Note_on_c, 0, 82, 60
2, 134864, Note_on_c, 0, 82, 0
2, 134864, Note_on_c, 0, 70, 0
2, 134872, Note_on_c, 0, 70, 50
2, 134872, Note_on_c, 0, 82, 60
2, 134894, Note_on_c, 0, 82, 0
2, 134894, Note_on_c, 0, 70, 0
2, 134902, Note_on_c, 0, 70, 50
2, 134902, Note_on_c, 0, 82, 60
2, 134924, Note_on_c, 0, 82, 0
2, 134924, Note_on_c, 0, 70, 0
2, 134932, Note_on_c, 0, 70, 50
2, 134932, Note_on_c, 0, 82, 60
2, 134954, Note_on_c, 0, 82, 0
2, 134954, Note_on_c, 0, 70, 0
2, 134962, Note_on_c, 0, 68, 50
2, 134962, Note_on_c, 0, 80, 60
2, 134984, Note_on_c, 0, 80, 0
2, 134984, Note_on_c, 0, 68, 0
2, 134992, Note_on_c, 0, 68, 50
2, 134992, Note_on_c, 0, 80, 60
2, 135014, Note_on_c, 0, 80, 0
2, 135014, Note_on_c, 0, 68, 0
2, 135022, Note_on_c, 0, 67, 50
2, 135022, Note_on_c, 0, 79, 60
2, 135044, Note_on_c, 0, 79, 0
2, 135044, Note_on_c, 0, 67, 0
2, 135052, Note_on_c, 0, 67, 50
2, 135052, Note_on_c, 0, 79, 60
2, 135074, Note_on_c, 0, 79, 0
2, 135074, Note_on_c, 0, 67, 0
2, 135082, Note_on_c, 0, 67, 50
2, 135082, Note_on_c, 0, 79, 60
2, 135104, Note_on_c, 0, 79, 0
2, 135104, Note_on_c, 0, 67, 0
2, 135112, Note_on_c, 0, 67, 50
2, 135112, Note_on_c, 0, 79, 60
2, 135134, Note_on_c, 0, 79, 0
2, 135134, Note_on_c, 0, 67, 0
2, 135142, Note_on_c, 0, 68, 50
2, 135142, Note_on_c, 0, 80, 60
2, 135164, Note_on_c, 0, 80, 0
2, 135164, Note_on_c, 0, 68, 0
2, 135172, Note_on_c, 0, 68, 50
2, 135172, Note_on_c, 0, 80, 60
2, 135194, Note_on_c, 0, 80, 0
2, 135194, Note_on_c, 0, 68, 0
2, 135202, Note_on_c, 0, 70, 50
2, 135202, Note_on_c, 0, 82, 60
2, 135224, Note_on_c, 0, 82, 0
2, 135224, Note_on_c, 0, 70, 0
2, 135232, Note_on_c, 0, 70, 50
2, 135232, Note_on_c, 0, 82, 60
2, 135254, Note_on_c, 0, 82, 0
2, 135254, Note_on_c, 0, 70, 0
2, 135262, Note_on_c, 0, 84, 60
2, 135262, Note_on_c, 0, 72, 50
2, 135284, Note_on_c, 0, 72, 0
2, 135284, Note_on_c, 0, 84, 0
2, 135292, Note_on_c, 0, 84, 60
2, 135292, Note_on_c, 0, 72, 50
2, 135314, Note_on_c, 0, 72, 0
2, 135314, Note_on_c, 0, 84, 0
2, 135322, Note_on_c, 0, 84, 60
2, 135322, Note_on_c, 0, 75, 50
2, 135344, Note_on_c, 0, 75, 0
2, 135344, Note_on_c, 0, 84, 0
2, 135352, Note_on_c, 0, 84, 60
2, 135352, Note_on_c, 0, 75, 50
2, 135374, Note_on_c, 0, 75, 0
2, 135374, Note_on_c, 0, 84, 0
2, 135382, Note_on_c, 0, 84, 60
2, 135382, Note_on_c, 0, 76, 50
2, 135404, Note_on_c, 0, 76, 0
2, 135404, Note_on_c, 0, 84, 0
2, 135412, Note_on_c, 0, 84, 60
2, 135412, Note_on_c, 0, 76, 50
2, 135434, Note_on_c, 0, 76, 0
2, 135434, Note_on_c, 0, 84, 0
2, 135442, Note_on_c, 0, 84, 60
2, 135442, Note_on_c, 0, 76, 50
2, 135464, Note_on_c, 0, 76, 0
2, 135464, Note_on_c, 0, 84, 0
2, 135472, Note_on_c, 0, 84, 60
2, 135472, Note_on_c, 0, 76, 50
2, 135494, Note_on_c, 0, 76, 0
2, 135494, Note_on_c, 0, 84, 0
2, 135502, Note_on_c, 0, 77, 50
2, 135502, Note_on_c, 0, 84, 60
2, 135524, Note_on_c, 0, 84, 0
2, 135524, Note_on_c, 0, 77, 0
2, 135532, Note_on_c, 0, 77, 50
2, 135532, Note_on_c, 0, 84, 60
2, 135554, Note_on_c, 0, 84, 0
2, 135554, Note_on_c, 0, 77, 0
2, 135562, Note_on_c, 0, 77, 50
2, 135562, Note_on_c, 0, 89, 65
2, 135584, Note_on_c, 0, 89, 0
2, 135584, Note_on_c, 0, 77, 0
2, 135592, Note_on_c, 0, 77, 50
2, 135592, Note_on_c, 0, 89, 65
2, 135614, Note_on_c, 0, 89, 0
2, 135614, Note_on_c, 0, 77, 0
2, 135622, Note_on_c, 0, 79, 50
2, 135622, Note_on_c, 0, 84, 65
2, 135644, Note_on_c, 0, 84, 0
2, 135644, Note_on_c, 0, 79, 0
2, 135652, Note_on_c, 0, 79, 50
2, 135652, Note_on_c, 0, 84, 65
2, 135674, Note_on_c, 0, 84, 0
2, 135674, Note_on_c, 0, 79, 0
2, 135682, Note_on_c, 0, 84, 65
2, 135682, Note_on_c, 0, 91, 70
2, 135704, Note_on_c, 0, 91, 0
2, 135704, Note_on_c, 0, 84, 0
2, 135712, Note_on_c, 0, 84, 50
2, 135712, Note_on_c, 0, 91, 75
2, 135734, Note_on_c, 0, 91, 0
2, 135734, Note_on_c, 0, 84, 0
2, 135742, Note_on_c, 0, 80, 50
2, 135742, Note_on_c, 0, 92, 80
2, 135764, Note_on_c, 0, 92, 0
2, 135764, Note_on_c, 0, 80, 0
2, 135772, Note_on_c, 0, 80, 60
2, 135772, Note_on_c, 0, 92, 80
2, 135794, Note_on_c, 0, 92, 0
2, 135794, Note_on_c, 0, 80, 0
2, 135802, Note_on_c, 0, 77, 65
2, 135802, Note_on_c, 0, 89, 75
2, 135824, Note_on_c, 0, 89, 0
2, 135824, Note_on_c, 0, 77, 0
2, 135832, Note_on_c, 0, 77, 65
2, 135832, Note_on_c, 0, 89, 75
2, 135854, Note_on_c, 0, 89, 0
2, 135854, Note_on_c, 0, 77, 0
2, 135862, Note_on_c, 0, 72, 50
2, 135862, Note_on_c, 0, 84, 70
2, 135884, Note_on_c, 0, 84, 0
2, 135884, Note_on_c, 0, 72, 0
2, 135892, Note_on_c, 0, 72, 50
2, 135892, Note_on_c, 0, 84, 70
2, 135914, Note_on_c, 0, 84, 0
2, 135914, Note_on_c, 0, 72, 0
2, 135922, Note_on_c, 0, 68, 50
2, 135922, Note_on_c, 0, 80, 65
2, 135944, Note_on_c, 0, 80, 0
2, 135944, Note_on_c, 0, 68, 0
2, 135952, Note_on_c, 0, 68, 50
2, 135952, Note_on_c, 0, 80, 65
2, 135974, Note_on_c, 0, 80, 0
2, 135974, Note_on_c, 0, 68, 0
2, 135982, Note_on_c, 0, 77, 50
2, 135982, Note_on_c, 0, 73, 50
2, 135982, Note_on_c, 0, 79, 75
2, 136032, Note_on_c, 0, 79, 0
2, 136032, Note_on_c, 0, 73, 0
2, 136032, Note_on_c, 0, 77, 0
2, 136072, Note_on_c, 0, 79, 60
2, 136072, Note_on_c, 0, 77, 50
2, 136072, Note_on_c, 0, 73, 50
2, 136072, Note_on_c, 0, 58, 50
2, 136094, Note_on_c, 0, 58, 0
2, 136094, Note_on_c, 0, 79, 0
2, 136094, Note_on_c, 0, 77, 0
2, 136094, Note_on_c, 0, 73, 0
2, 136102, Note_on_c, 0, 79, 60
2, 136102, Note_on_c, 0, 77, 50
2, 136102, Note_on_c, 0, 73, 50
2, 136102, Note_on_c, 0, 70, 50
2, 136152, Note_on_c, 0, 70, 0
2, 136152, Note_on_c, 0, 79, 0
2, 136152, Note_on_c, 0, 77, 0
2, 136152, Note_on_c, 0, 73, 0
2, 136192, Note_on_c, 0, 58, 90
2, 136214, Note_on_c, 0, 58, 0
2, 136222, Note_on_c, 0, 59, 90
2, 136272, Note_on_c, 0, 59, 0
2, 136312, Note_on_c, 0, 79, 75
2, 136312, Note_on_c, 0, 77, 50
2, 136312, Note_on_c, 0, 74, 50
2, 136334, Note_on_c, 0, 74, 0
2, 136334, Note_on_c, 0, 77, 0
2, 136334, Note_on_c, 0, 79, 0
2, 136342, Note_on_c, 0, 79, 75
2, 136342, Note_on_c, 0, 77, 50
2, 136342, Note_on_c, 0, 74, 50
2, 136375, Note_on_c, 0, 74, 0
2, 136375, Note_on_c, 0, 77, 0
2, 136375, Note_on_c, 0, 79, 0
2, 136432, Note_on_c, 0, 59, 90
2, 136454, Note_on_c, 0, 59, 0
2, 136462, Note_on_c, 0, 60, 90
2, 136512, Note_on_c, 0, 60, 0
2, 136552, Note_on_c, 0, 79, 75
2, 136552, Note_on_c, 0, 72, 50
2, 136552, Note_on_c, 0, 64, 50
2, 136574, Note_on_c, 0, 64, 0
2, 136574, Note_on_c, 0, 72, 0
2, 136574, Note_on_c, 0, 79, 0
2, 136582, Note_on_c, 0, 79, 75
2, 136582, Note_on_c, 0, 72, 50
2, 136582, Note_on_c, 0, 64, 50
2, 136615, Note_on_c, 0, 64, 0
2, 136615, Note_on_c, 0, 72, 0
2, 136615, Note_on_c, 0, 79, 0
2, 136672, Note_on_c, 0, 60, 90
2, 136694, Note_on_c, 0, 60, 0
2, 136702, Note_on_c, 0, 61, 90
2, 136752, Note_on_c, 0, 61, 0
2, 136792, Note_on_c, 0, 79, 75
2, 136792, Note_on_c, 0, 65, 50
2, 136814, Note_on_c, 0, 65, 0
2, 136814, Note_on_c, 0, 79, 0
2, 136822, Note_on_c, 0, 79, 75
2, 136822, Note_on_c, 0, 65, 50
2, 136892, Note_on_c, 0, 65, 0
2, 136892, Note_on_c, 0, 79, 0
2, 136912, Note_on_c, 0, 77, 75
2, 136912, Note_on_c, 0, 65, 50
2, 136942, Note_on_c, 0, 76, 80
2, 136942, Note_on_c, 0, 67, 50
2, 136947, Note_on_c, 0, 65, 0
2, 136947, Note_on_c, 0, 77, 0
2, 136992, Note_on_c, 0, 76, 0
2, 136992, Note_on_c, 0, 67, 0
2, 137062, Control_c, 0, 11, 70
2, 137062, Note_on_c, 0, 60, 60
2, 137097, Note_on_c, 0, 60, 0
2, 137182, Note_on_c, 0, 59, 60
2, 137202, Note_on_c, 0, 59, 0
2, 137204, Note_on_c, 0, 60, 60
2, 137224, Note_on_c, 0, 60, 0
2, 137226, Note_on_c, 0, 59, 60
2, 137246, Note_on_c, 0, 59, 0
2, 137248, Note_on_c, 0, 60, 60
2, 137268, Note_on_c, 0, 60, 0
2, 137270, Note_on_c, 0, 59, 60
2, 137290, Note_on_c, 0, 59, 0
2, 137292, Note_on_c, 0, 60, 60
2, 137312, Note_on_c, 0, 60, 0
2, 137314, Note_on_c, 0, 59, 60
2, 137334, Note_on_c, 0, 59, 0
2, 137336, Note_on_c, 0, 60, 60
2, 137356, Note_on_c, 0, 60, 0
2, 137358, Note_on_c, 0, 59, 60
2, 137375, Note_on_c, 0, 57, 60
2, 137378, Note_on_c, 0, 59, 0
2, 137395, Note_on_c, 0, 57, 0
2, 137395, Note_on_c, 0, 59, 60
2, 137415, Note_on_c, 0, 59, 0
2, 137422, Note_on_c, 0, 60, 60
2, 137455, Note_on_c, 0, 60, 0
2, 137512, Note_on_c, 0, 60, 60
2, 137542, Note_on_c, 0, 55, 75
2, 137547, Note_on_c, 0, 60, 0
2, 137609, Note_on_c, 0, 55, 0
2, 137632, Note_on_c, 0, 56, 60
2, 137662, Note_on_c, 0, 58, 60
2, 137667, Note_on_c, 0, 56, 0
2, 137712, Note_on_c, 0, 58, 0
2, 137782, Note_on_c, 0, 56, 50
2, 137832, Note_on_c, 0, 56, 0
2, 137842, Note_on_c, 0, 55, 40
2, 137892, Note_on_c, 0, 55, 0
2, 143160, Control_c, 0, 11, 50
2, 143165, Program_c, 0, 45
2, 143167, Note_on_c, 0, 69, 50
2, 143167, Note_on_c, 0, 63, 50
2, 143167, Note_on_c, 0, 60, 50
2, 143217, Note_on_c, 0, 60, 0
2, 143217, Note_on_c, 0, 63, 0
2, 143217, Note_on_c, 0, 69, 0
2, 143304, Note_on_c, 0, 70, 50
2, 143304, Note_on_c, 0, 61, 50
2, 143354, Note_on_c, 0, 61, 0
2, 143354, Note_on_c, 0, 70, 0
2, 143724, Note_on_c, 0, 69, 50
2, 143724, Note_on_c, 0, 63, 50
2, 143724, Note_on_c, 0, 60, 50
2, 143774, Note_on_c, 0, 60, 0
2, 143774, Note_on_c, 0, 63, 0
2, 143774, Note_on_c, 0, 69, 0
2, 143876, Note_on_c, 0, 70, 50
2, 143876, Note_on_c, 0, 61, 50
2, 143926, Note_on_c, 0, 61, 0
2, 143926, Note_on_c, 0, 70, 0
2, 144044, Note_on_c, 0, 70, 50
2, 144044, Note_on_c, 0, 61, 50
2, 144094, Note_on_c, 0, 61, 0
2, 144094, Note_on_c, 0, 70, 0
2, 144378, Note_on_c, 0, 67, 50
2, 144378, Note_on_c, 0, 58, 50
2, 144428, Note_on_c, 0, 58, 0
2, 144428, Note_on_c, 0, 67, 0
2, 144549, Note_on_c, 0, 68, 50
2, 144549, Note_on_c, 0, 60, 50
2, 144599, Note_on_c, 0, 60, 0
2, 144599, Note_on_c, 0, 68, 0
2, 144988, Note_on_c, 0, 68, 50
2, 144988, Note_on_c, 0, 62, 50
2, 145038, Note_on_c, 0, 62, 0
2, 145038, Note_on_c, 0, 68, 0
2, 145141, Note_on_c, 0, 67, 50
2, 145141, Note_on_c, 0, 63, 50
2, 145191, Note_on_c, 0, 63, 0
2, 145191, Note_on_c, 0, 67, 0
2, 145290, Program_c, 0, 48
2, 145296, Control_c, 0, 11, 45
2, 145296, Note_on_c, 0, 67, 50
2, 145453, Note_on_c, 0, 68, 50
2, 145453, Note_on_c, 0, 61, 40
2, 145461, Note_on_c, 0, 67, 0
2, 145618, Note_on_c, 0, 70, 50
2, 145623, Note_on_c, 0, 68, 0
2, 145782, Note_on_c, 0, 63, 50
2, 145782, Note_on_c, 0, 60, 40
2, 145790, Note_on_c, 0, 61, 0
2, 145793, Note_on_c, 0, 70, 0
2, 145942, Note_on_c, 0, 63, 0
2, 145942, Note_on_c, 0, 60, 0
2, 146071, Note_on_c, 0, 67, 50
2, 146071, Note_on_c, 0, 61, 40
2, 146071, Note_on_c, 0, 58, 40
2, 146384, Note_on_c, 0, 68, 50
2, 146384, Note_on_c, 0, 60, 40
2, 146384, Note_on_c, 0, 56, 40
2, 146391, Note_on_c, 0, 58, 0
2, 146391, Note_on_c, 0, 67, 0
2, 146391, Note_on_c, 0, 61, 0
2, 146494, Note_on_c, 0, 68, 0
2, 146494, Note_on_c, 0, 60, 0
2, 146494, Note_on_c, 0, 56, 0
2, 146668, Note_on_c, 0, 63, 50
2, 146818, Note_on_c, 0, 58, 50
2, 146958, Note_on_c, 0, 60, 50
2, 146963, Note_on_c, 0, 58, 0
2, 147105, Note_on_c, 0, 65, 50
2, 147110, Note_on_c, 0, 63, 0
2, 147262, Note_on_c, 0, 67, 50
2, 147262, Note_on_c, 0, 63, 40
2, 147267, Note_on_c, 0, 65, 0
2, 147268, Note_on_c, 0, 60, 0
2, 147407, Note_on_c, 0, 68, 50
2, 147407, Note_on_c, 0, 62, 40
2, 147412, Note_on_c, 0, 67, 0
2, 147412, Note_on_c, 0, 63, 0
2, 147565, Note_on_c, 0, 67, 50
2, 147565, Note_on_c, 0, 63, 40
2, 147569, Note_on_c, 0, 68, 0
2, 147569, Note_on_c, 0, 62, 0
2, 147675, Note_on_c, 0, 67, 0
2, 147675, Note_on_c, 0, 63, 0
2, 147929, Note_on_c, 0, 72, 60
2, 147929, Note_on_c, 0, 63, 50
2, 147929, Note_on_c, 0, 53, 50
2, 148226, Note_on_c, 0, 53, 0
2, 148226, Note_on_c, 0, 63, 0
2, 148226, Note_on_c, 0, 72, 0
2, 148226, Note_on_c, 0, 65, 50
2, 148226, Note_on_c, 0, 61, 40
2, 148373, Note_on_c, 0, 58, 50
2, 148486, Note_on_c, 0, 61, 0
2, 148486, Note_on_c, 0, 65, 0
2, 148523, Note_on_c, 0, 58, 0
2, 148545, Note_on_c, 0, 70, 55
2, 148545, Note_on_c, 0, 61, 45
2, 148545, Note_on_c, 0, 58, 45
2, 148698, Note_on_c, 0, 51, 45
2, 148705, Note_on_c, 0, 58, 0
2, 148842, Note_on_c, 0, 63, 50
2, 148842, Note_on_c, 0, 60, 40
2, 148850, Note_on_c, 0, 70, 0
2, 148850, Note_on_c, 0, 61, 0
2, 149082, Note_on_c, 0, 60, 0
2, 149082, Note_on_c, 0, 63, 0
2, 149198, Note_on_c, 0, 51, 0
2, 149205, Note_on_c, 0, 67, 50
2, 149205, Note_on_c, 0, 63, 40
2, 149205, Note_on_c, 0, 58, 40
2, 149472, Note_on_c, 0, 68, 50
2, 149472, Note_on_c, 0, 56, 50
2, 149475, Note_on_c, 0, 58, 0
2, 149475, Note_on_c, 0, 67, 0
2, 149712, Note_on_c, 0, 56, 0
2, 149712, Note_on_c, 0, 68, 0
2, 149715, Note_on_c, 0, 63, 0
2, 149784, Note_on_c, 0, 67, 50
2, 149784, Note_on_c, 0, 64, 40
2, 149784, Note_on_c, 0, 58, 40
2, 150052, Note_on_c, 0, 68, 55
2, 150052, Note_on_c, 0, 65, 45
2, 150052, Note_on_c, 0, 59, 45
2, 150064, Note_on_c, 0, 58, 0
2, 150064, Note_on_c, 0, 67, 0
2, 150064, Note_on_c, 0, 64, 0
2, 150292, Note_on_c, 0, 68, 0
2, 150292, Note_on_c, 0, 65, 0
2, 150292, Note_on_c, 0, 59, 0
2, 150384, Note_on_c, 0, 68, 60
2, 150384, Note_on_c, 0, 63, 50
2, 150384, Note_on_c, 0, 60, 50
2, 150624, Note_on_c, 0, 60, 0
2, 150624, Note_on_c, 0, 63, 0
2, 150624, Note_on_c, 0, 68, 0
2, 150830, Note_on_c, 0, 68, 50
2, 150830, Note_on_c, 0, 65, 45
2, 150830, Note_on_c, 0, 59, 40
2, 151070, Note_on_c, 0, 59, 0
2, 151070, Note_on_c, 0, 65, 0
2, 151070, Note_on_c, 0, 68, 0
2, 151160, Note_on_c, 0, 63, 50
2, 151160, Note_on_c, 0, 60, 50
2, 151503, Note_on_c, 0, 67, 50
2, 151503, Note_on_c, 0, 58, 50
2, 151510, Note_on_c, 0, 60, 0
2, 151510, Note_on_c, 0, 63, 0
2, 151709, Note_on_c, 0, 68, 55
2, 151709, Note_on_c, 0, 56, 45
2, 151713, Note_on_c, 0, 67, 0
2, 151713, Note_on_c, 0, 58, 0
2, 151872, Note_on_c, 0, 67, 55
2, 151872, Note_on_c, 0, 61, 45
2, 151879, Note_on_c, 0, 68, 0
2, 151879, Note_on_c, 0, 56, 0
2, 151953, Note_on_c, 0, 65, 55
2, 151957, Note_on_c, 0, 67, 0
2, 152035, Note_on_c, 0, 63, 55
2, 152038, Note_on_c, 0, 65, 0
2, 152152, Note_on_c, 0, 61, 0
2, 152190, Note_on_c, 0, 61, 55
2, 152348, Note_on_c, 0, 65, 60
2, 152348, Note_on_c, 0, 60, 60
2, 152350, Note_on_c, 0, 61, 0
2, 152355, Note_on_c, 0, 63, 0
2, 152649, Note_on_c, 0, 61, 60
2, 152658, Note_on_c, 0, 60, 0
2, 152809, Note_on_c, 0, 61, 0
2, 152963, Note_on_c, 0, 67, 60
2, 152963, Note_on_c, 0, 61, 50
2, 152973, Note_on_c, 0, 65, 0
2, 153422, Note_on_c, 0, 68, 55
2, 153428, Note_on_c, 0, 67, 0
2, 153807, Note_on_c, 0, 68, 0
2, 153821, Note_on_c, 0, 64, 55
2, 154142, Note_on_c, 0, 65, 55
2, 154142, Note_on_c, 0, 60, 45
2, 154143, Note_on_c, 0, 61, 0
2, 154268, Note_on_c, 0, 64, 0
2, 154362, Note_on_c, 0, 65, 0
2, 154362, Note_on_c, 0, 60, 0
2, 154504, Note_on_c, 0, 59, 55
2, 154504, Note_on_c, 0, 56, 45
2, 155672, Note_on_c, 0, 60, 60
2, 155672, Note_on_c, 0, 55, 50
2, 155679, Note_on_c, 0, 56, 0
2, 155679, Note_on_c, 0, 59, 0
2, 155792, Note_on_c, 0, 60, 0
2, 155792, Note_on_c, 0, 55, 0
2, 155962, Note_on_c, 0, 60, 60
2, 155962, Note_on_c, 0, 56, 50
2, 156082, Note_on_c, 0, 56, 0
2, 156082, Note_on_c, 0, 60, 0
2, 156246, Note_on_c, 0, 70, 60
2, 156246, Note_on_c, 0, 64, 50
2, 156246, Note_on_c, 0, 60, 50
2, 156366, Note_on_c, 0, 60, 0
2, 156366, Note_on_c, 0, 64, 0
2, 156366, Note_on_c, 0, 70, 0
2, 156525, Note_on_c, 0, 68, 65
2, 156525, Note_on_c, 0, 65, 55
2, 156525, Note_on_c, 0, 60, 55
2, 156645, Note_on_c, 0, 60, 0
2, 156645, Note_on_c, 0, 65, 0
2, 156645, Note_on_c, 0, 68, 0
2, 156811, Note_on_c, 0, 65, 70
2, 156811, Note_on_c, 0, 61, 60
2, 156931, Note_on_c, 0, 61, 0
2, 156931, Note_on_c, 0, 65, 0
2, 157815, Note_on_c, 0, 64, 50
2, 157815, Note_on_c, 0, 58, 40
2, 157971, Note_on_c, 0, 65, 50
2, 157971, Note_on_c, 0, 56, 40
2, 157975, Note_on_c, 0, 58, 0
2, 157975, Note_on_c, 0, 64, 0
2, 158111, Note_on_c, 0, 65, 0
2, 158111, Note_on_c, 0, 56, 0
2, 158536, Note_on_c, 0, 65, 55
2, 158536, Note_on_c, 0, 55, 45
2, 158814, Note_on_c, 0, 64, 55
2, 158814, Note_on_c, 0, 58, 45
2, 158821, Note_on_c, 0, 55, 0
2, 158821, Note_on_c, 0, 65, 0
2, 159097, Note_on_c, 0, 65, 55
2, 159097, Note_on_c, 0, 56, 45
2, 159104, Note_on_c, 0, 64, 0
2, 159104, Note_on_c, 0, 58, 0
2, 159237, Note_on_c, 0, 65, 0
2, 159237, Note_on_c, 0, 56, 0
2, 159643, Note_on_c, 0, 65, 55
2, 159643, Note_on_c, 0, 55, 45
2, 159917, Note_on_c, 0, 64, 55
2, 159917, Note_on_c, 0, 58, 45
2, 159923, Note_on_c, 0, 55, 0
2, 159923, Note_on_c, 0, 65, 0
2, 160188, Note_on_c, 0, 65, 55
2, 160188, Note_on_c, 0, 56, 45
2, 160197, Note_on_c, 0, 64, 0
2, 160197, Note_on_c, 0, 58, 0
2, 160328, Note_on_c, 0, 65, 0
2, 160328, Note_on_c, 0, 56, 0
2, 160596, Note_on_c, 0, 72, 55
2, 160596, Note_on_c, 0, 68, 45
2, 160596, Note_on_c, 0, 60, 45
2, 160731, Note_on_c, 0, 60, 0
2, 160740, Note_on_c, 0, 75, 60
2, 160740, Note_on_c, 0, 67, 50
2, 160740, Note_on_c, 0, 60, 50
2, 160756, Note_on_c, 0, 68, 0
2, 160756, Note_on_c, 0, 72, 0
2, 161016, Note_on_c, 0, 74, 60
2, 161016, Note_on_c, 0, 65, 50
2, 161020, Note_on_c, 0, 67, 0
2, 161020, Note_on_c, 0, 60, 0
2, 161020, Note_on_c, 0, 75, 0
2, 161144, Note_on_c, 0, 72, 60
2, 161144, Note_on_c, 0, 63, 50
2, 161151, Note_on_c, 0, 74, 0
2, 161151, Note_on_c, 0, 65, 0
2, 161297, Note_on_c, 0, 70, 60
2, 161297, Note_on_c, 0, 62, 50
2, 161304, Note_on_c, 0, 72, 0
2, 161304, Note_on_c, 0, 63, 0
2, 161437, Note_on_c, 0, 70, 0
2, 161437, Note_on_c, 0, 62, 0
2, 161687, Note_on_c, 0, 74, 60
2, 161687, Note_on_c, 0, 70, 50
2, 161687, Note_on_c, 0, 62, 50
2, 161822, Note_on_c, 0, 77, 65
2, 161822, Note_on_c, 0, 69, 55
2, 161827, Note_on_c, 0, 62, 0
2, 161827, Note_on_c, 0, 74, 0
2, 161827, Note_on_c, 0, 70, 0
2, 162088, Note_on_c, 0, 76, 60
2, 162088, Note_on_c, 0, 67, 50
2, 162092, Note_on_c, 0, 77, 0
2, 162092, Note_on_c, 0, 69, 0
2, 162219, Note_on_c, 0, 74, 55
2, 162219, Note_on_c, 0, 65, 45
2, 162228, Note_on_c, 0, 76, 0
2, 162228, Note_on_c, 0, 67, 0
2, 162360, Note_on_c, 0, 72, 55
2, 162360, Note_on_c, 0, 64, 45
2, 162364, Note_on_c, 0, 74, 0
2, 162364, Note_on_c, 0, 65, 0
2, 162655, Note_on_c, 0, 65, 45
2, 162660, Note_on_c, 0, 64, 0
2, 162795, Note_on_c, 0, 66, 45
2, 162805, Note_on_c, 0, 65, 0
2, 162931, Note_on_c, 0, 71, 55
2, 162940, Note_on_c, 0, 72, 0
2, 162945, Note_on_c, 0, 66, 0
2, 163080, Note_on_c, 0, 70, 55
2, 163080, Note_on_c, 0, 62, 45
2, 163086, Note_on_c, 0, 71, 0
2, 163235, Note_on_c, 0, 63, 45
2, 163240, Note_on_c, 0, 62, 0
2, 163385, Note_on_c, 0, 70, 0
2, 163406, Note_on_c, 0, 70, 50
2, 163406, Note_on_c, 0, 64, 45
2, 163415, Note_on_c, 0, 63, 0
2, 163586, Note_on_c, 0, 64, 0
2, 163586, Note_on_c, 0, 70, 0
2, 163634, Note_on_c, 0, 68, 50
2, 163634, Note_on_c, 0, 65, 40
2, 163944, Note_on_c, 0, 73, 50
2, 163954, Note_on_c, 0, 68, 0
2, 164246, Note_on_c, 0, 72, 50
2, 164246, Note_on_c, 0, 63, 50
2, 164254, Note_on_c, 0, 73, 0
2, 164254, Note_on_c, 0, 65, 0
2, 164834, Note_on_c, 0, 73, 50
2, 164834, Note_on_c, 0, 65, 40
2, 164846, Note_on_c, 0, 72, 0
2, 164846, Note_on_c, 0, 63, 0
2, 165444, Note_on_c, 0, 72, 50
2, 165444, Note_on_c, 0, 63, 40
2, 165454, Note_on_c, 0, 73, 0
2, 165454, Note_on_c, 0, 65, 0
2, 165734, Note_on_c, 0, 72, 0
2, 165734, Note_on_c, 0, 63, 0
2, 165879, Note_on_c, 0, 72, 50
2, 165879, Note_on_c, 0, 63, 40
2, 166032, Note_on_c, 0, 73, 50
2, 166032, Note_on_c, 0, 61, 45
2, 166034, Note_on_c, 0, 63, 0
2, 166034, Note_on_c, 0, 72, 0
2, 166186, Note_on_c, 0, 66, 50
2, 166192, Note_on_c, 0, 73, 0
2, 166485, Note_on_c, 0, 65, 50
2, 166491, Note_on_c, 0, 66, 0
2, 166628, Note_on_c, 0, 63, 50
2, 166635, Note_on_c, 0, 65, 0
2, 166918, Note_on_c, 0, 63, 0
2, 166926, Note_on_c, 0, 60, 45
2, 166927, Note_on_c, 0, 61, 0
2, 167070, Note_on_c, 0, 68, 65
2, 167216, Note_on_c, 0, 60, 0
2, 167223, Note_on_c, 0, 61, 50
2, 167368, Note_on_c, 0, 66, 50
2, 167375, Note_on_c, 0, 68, 0
2, 167528, Note_on_c, 0, 61, 0
2, 167660, Note_on_c, 0, 65, 50
2, 167668, Note_on_c, 0, 66, 0
2, 167947, Note_on_c, 0, 63, 50
2, 167955, Note_on_c, 0, 65, 0
2, 168087, Note_on_c, 0, 63, 0
2, 168098, Note_on_c, 0, 60, 50
2, 168384, Note_on_c, 0, 61, 50
2, 168384, Note_on_c, 0, 58, 40
2, 168384, Note_on_c, 0, 51, 45
2, 168388, Note_on_c, 0, 60, 0
2, 168682, Note_on_c, 0, 60, 50
2, 168682, Note_on_c, 0, 56, 40
2, 168689, Note_on_c, 0, 61, 0
2, 168689, Note_on_c, 0, 58, 0
2, 168980, Note_on_c, 0, 61, 50
2, 168980, Note_on_c, 0, 58, 40
2, 168987, Note_on_c, 0, 56, 0
2, 168987, Note_on_c, 0, 60, 0
2, 169269, Note_on_c, 0, 60, 50
2, 169269, Note_on_c, 0, 56, 40
2, 169270, Note_on_c, 0, 58, 0
2, 169270, Note_on_c, 0, 61, 0
2, 169344, Note_on_c, 0, 51, 0
2, 169414, Note_on_c, 0, 56, 0
2, 169414, Note_on_c, 0, 60, 0
2, 169556, Note_on_c, 0, 63, 65
2, 169556, Note_on_c, 0, 58, 55
2, 169556, Note_on_c, 0, 51, 55
2, 169701, Note_on_c, 0, 51, 0
2, 169701, Note_on_c, 0, 58, 0
2, 169701, Note_on_c, 0, 63, 0
2, 169842, Note_on_c, 0, 69, 55
2, 169842, Note_on_c, 0, 63, 45
2, 169842, Note_on_c, 0, 60, 45
2, 169987, Note_on_c, 0, 70, 60
2, 169987, Note_on_c, 0, 61, 50
2, 170000, Note_on_c, 0, 60, 0
2, 170000, Note_on_c, 0, 69, 0
2, 170000, Note_on_c, 0, 63, 0
2, 170136, Note_on_c, 0, 66, 55
2, 170287, Note_on_c, 0, 68, 50
2, 170287, Note_on_c, 0, 60, 50
2, 170292, Note_on_c, 0, 70, 0
2, 170292, Note_on_c, 0, 61, 0
2, 170420, Note_on_c, 0, 65, 60
2, 170420, Note_on_c, 0, 61, 50
2, 170426, Note_on_c, 0, 66, 0
2, 170427, Note_on_c, 0, 60, 0
2, 170569, Note_on_c, 0, 70, 60
2, 170569, Note_on_c, 0, 66, 50
2, 170572, Note_on_c, 0, 68, 0
2, 170705, Note_on_c, 0, 63, 50
2, 170740, Note_on_c, 0, 61, 0
2, 170740, Note_on_c, 0, 65, 0
2, 170850, Note_on_c, 0, 63, 0
2, 170850, Note_on_c, 0, 69, 50
2, 170854, Note_on_c, 0, 66, 0
2, 170854, Note_on_c, 0, 70, 0
2, 170950, Note_on_c, 0, 69, 0
2, 170990, Note_on_c, 0, 72, 55
2, 170990, Note_on_c, 0, 66, 45
2, 170990, Note_on_c, 0, 63, 45
2, 171132, Note_on_c, 0, 73, 55
2, 171132, Note_on_c, 0, 65, 45
2, 171132, Note_on_c, 0, 61, 45
2, 171140, Note_on_c, 0, 63, 0
2, 171140, Note_on_c, 0, 72, 0
2, 171140, Note_on_c, 0, 66, 0
2, 171252, Note_on_c, 0, 65, 0
2, 171276, Note_on_c, 0, 65, 55
2, 171276, Note_on_c, 0, 58, 55
2, 171280, Note_on_c, 0, 73, 0
2, 171418, Note_on_c, 0, 64, 55
2, 171422, Note_on_c, 0, 61, 0
2, 171518, Note_on_c, 0, 64, 0
2, 171526, Note_on_c, 0, 65, 0
2, 171526, Note_on_c, 0, 58, 0
2, 171562, Note_on_c, 0, 72, 55
2, 171562, Note_on_c, 0, 64, 50
2, 171562, Note_on_c, 0, 58, 45
2, 171672, Note_on_c, 0, 58, 0
2, 171672, Note_on_c, 0, 64, 0
2, 171672, Note_on_c, 0, 72, 0
2, 171699, Note_on_c, 0, 72, 55
2, 171699, Note_on_c, 0, 65, 50
2, 171699, Note_on_c, 0, 56, 45
2, 171844, Note_on_c, 0, 73, 65
2, 171849, Note_on_c, 0, 65, 0
2, 171849, Note_on_c, 0, 72, 0
2, 171954, Note_on_c, 0, 73, 0
2, 172074, Note_on_c, 0, 56, 0
2, 172662, Note_on_c, 0, 59, 75
2, 172936, Note_on_c, 0, 60, 65
2, 172942, Note_on_c, 0, 59, 0
2, 173036, Note_on_c, 0, 60, 0
2, 173805, Note_on_c, 0, 70, 50
2, 173805, Note_on_c, 0, 67, 50
2, 173805, Note_on_c, 0, 61, 50
2, 173871, Note_on_c, 0, 68, 50
2, 173871, Note_on_c, 0, 65, 40
2, 173871, Note_on_c, 0, 60, 40
2, 173875, Note_on_c, 0, 61, 0
2, 173875, Note_on_c, 0, 70, 0
2, 173875, Note_on_c, 0, 67, 0
2, 173938, Note_on_c, 0, 70, 50
2, 173938, Note_on_c, 0, 67, 40
2, 173938, Note_on_c, 0, 61, 40
2, 173941, Note_on_c, 0, 68, 0
2, 173941, Note_on_c, 0, 60, 0
2, 173941, Note_on_c, 0, 65, 0
2, 174010, Note_on_c, 0, 68, 50
2, 174010, Note_on_c, 0, 65, 40
2, 174010, Note_on_c, 0, 60, 40
2, 174013, Note_on_c, 0, 70, 0
2, 174013, Note_on_c, 0, 61, 0
2, 174013, Note_on_c, 0, 67, 0
2, 174130, Note_on_c, 0, 68, 0
2, 174130, Note_on_c, 0, 65, 0
2, 174130, Note_on_c, 0, 60, 0
2, 174563, Note_on_c, 0, 68, 50
2, 174563, Note_on_c, 0, 60, 45
2, 174704, Note_on_c, 0, 69, 55
2, 174708, Note_on_c, 0, 68, 0
2, 174834, Note_on_c, 0, 70, 60
2, 174834, Note_on_c, 0, 58, 60
2, 174838, Note_on_c, 0, 60, 0
2, 174844, Note_on_c, 0, 69, 0
2, 174968, Note_on_c, 0, 73, 65
2, 174974, Note_on_c, 0, 70, 0
2, 175106, Note_on_c, 0, 68, 70
2, 175106, Note_on_c, 0, 60, 60
2, 175109, Note_on_c, 0, 58, 0
2, 175113, Note_on_c, 0, 73, 0
2, 175256, Note_on_c, 0, 68, 0
2, 175256, Note_on_c, 0, 60, 0
2, 175504, Note_on_c, 0, 68, 60
2, 175504, Note_on_c, 0, 65, 50
2, 175504, Note_on_c, 0, 60, 50
2, 175574, Note_on_c, 0, 60, 0
2, 175574, Note_on_c, 0, 65, 0
2, 175574, Note_on_c, 0, 68, 0
2, 175642, Note_on_c, 0, 68, 60
2, 175642, Note_on_c, 0, 65, 50
2, 175642, Note_on_c, 0, 60, 50
2, 175712, Note_on_c, 0, 60, 0
2, 175712, Note_on_c, 0, 65, 0
2, 175712, Note_on_c, 0, 68, 0
2, 175778, Note_on_c, 0, 68, 60
2, 175778, Note_on_c, 0, 65, 50
2, 175778, Note_on_c, 0, 60, 50
2, 175848, Note_on_c, 0, 60, 0
2, 175848, Note_on_c, 0, 65, 0
2, 175848, Note_on_c, 0, 68, 0
2, 176044, Note_on_c, 0, 68, 50
2, 176044, Note_on_c, 0, 65, 45
2, 176044, Note_on_c, 0, 60, 45
2, 176134, Note_on_c, 0, 60, 0
2, 176134, Note_on_c, 0, 65, 0
2, 176134, Note_on_c, 0, 68, 0
2, 176180, Note_on_c, 0, 68, 50
2, 176180, Note_on_c, 0, 65, 45
2, 176180, Note_on_c, 0, 60, 45
2, 176270, Note_on_c, 0, 60, 0
2, 176270, Note_on_c, 0, 65, 0
2, 176270, Note_on_c, 0, 68, 0
2, 176444, Note_on_c, 0, 68, 50
2, 176444, Note_on_c, 0, 65, 45
2, 176444, Note_on_c, 0, 60, 45
2, 176534, Note_on_c, 0, 60, 0
2, 176534, Note_on_c, 0, 65, 0
2, 176534, Note_on_c, 0, 68, 0
2, 176710, Note_on_c, 0, 68, 50
2, 176710, Note_on_c, 0, 65, 45
2, 176710, Note_on_c, 0, 60, 45
2, 176800, Note_on_c, 0, 60, 0
2, 176800, Note_on_c, 0, 65, 0
2, 176800, Note_on_c, 0, 68, 0
2, 177122, Note_on_c, 0, 77, 50
2, 177122, Note_on_c, 0, 68, 45
2, 177122, Note_on_c, 0, 60, 45
2, 177212, Note_on_c, 0, 60, 0
2, 177212, Note_on_c, 0, 68, 0
2, 177212, Note_on_c, 0, 77, 0
2, 177267, Control_c, 0, 11, 50
2, 177267, Note_on_c, 0, 76, 60
2, 177267, Note_on_c, 0, 70, 45
2, 177267, Note_on_c, 0, 67, 45
2, 177267, Note_on_c, 0, 60, 45
2, 177294, Control_c, 0, 11, 51
2, 177317, Note_on_c, 0, 60, 0
2, 177317, Note_on_c, 0, 76, 0
2, 177317, Note_on_c, 0, 70, 0
2, 177317, Note_on_c, 0, 67, 0
2, 177321, Control_c, 0, 11, 52
2, 177344, Note_on_c, 0, 76, 60
2, 177344, Note_on_c, 0, 70, 50
2, 177348, Control_c, 0, 11, 53
2, 177375, Control_c, 0, 11, 54
2, 177402, Control_c, 0, 11, 55
2, 177410, Note_on_c, 0, 67, 60
2, 177410, Note_on_c, 0, 60, 60
2, 177424, Note_on_c, 0, 70, 0
2, 177424, Note_on_c, 0, 76, 0
2, 177429, Control_c, 0, 11, 56
2, 177456, Control_c, 0, 11, 57
2, 177478, Note_on_c, 0, 76, 60
2, 177478, Note_on_c, 0, 70, 50
2, 177483, Control_c, 0, 11, 58
2, 177490, Note_on_c, 0, 67, 0
2, 177490, Note_on_c, 0, 60, 0
2, 177510, Control_c, 0, 11, 59
2, 177538, Control_c, 0, 11, 60
2, 177544, Note_on_c, 0, 67, 60
2, 177544, Note_on_c, 0, 60, 50
2, 177558, Note_on_c, 0, 76, 0
2, 177558, Note_on_c, 0, 70, 0
2, 177565, Control_c, 0, 11, 61
2, 177592, Control_c, 0, 11, 62
2, 177610, Note_on_c, 0, 76, 60
2, 177610, Note_on_c, 0, 70, 50
2, 177619, Control_c, 0, 11, 63
2, 177624, Note_on_c, 0, 67, 0
2, 177624, Note_on_c, 0, 60, 0
2, 177646, Control_c, 0, 11, 64
2, 177673, Control_c, 0, 11, 65
2, 177676, Note_on_c, 0, 67, 60
2, 177676, Note_on_c, 0, 60, 50
2, 177690, Note_on_c, 0, 76, 0
2, 177690, Note_on_c, 0, 70, 0
2, 177700, Control_c, 0, 11, 66
2, 177727, Control_c, 0, 11, 67
2, 177747, Note_on_c, 0, 76, 60
2, 177747, Note_on_c, 0, 70, 50
2, 177754, Control_c, 0, 11, 68
2, 177756, Note_on_c, 0, 67, 0
2, 177756, Note_on_c, 0, 60, 0
2, 177781, Control_c, 0, 11, 69
2, 177809, Control_c, 0, 11, 70
2, 177816, Note_on_c, 0, 70, 60
2, 177816, Note_on_c, 0, 67, 50
2, 177816, Note_on_c, 0, 60, 50
2, 177827, Note_on_c, 0, 70, 0
2, 177827, Note_on_c, 0, 76, 0
2, 177836, Control_c, 0, 11, 71
2, 177838, Note_on_c, 0, 70, 0
2, 177838, Note_on_c, 0, 67, 0
2, 177838, Note_on_c, 0, 60, 0
2, 177850, Note_on_c, 0, 70, 60
2, 177850, Note_on_c, 0, 67, 50
2, 177850, Note_on_c, 0, 60, 50
2, 177863, Control_c, 0, 11, 72
2, 177872, Note_on_c, 0, 60, 0
2, 177872, Note_on_c, 0, 67, 0
2, 177872, Note_on_c, 0, 70, 0
2, 177888, Note_on_c, 0, 70, 60
2, 177888, Note_on_c, 0, 67, 50
2, 177888, Note_on_c, 0, 60, 50
2, 177888, Note_on_c, 0, 76, 60
2, 177888, Note_on_c, 0, 70, 50
2, 177890, Control_c, 0, 11, 73
2, 177910, Note_on_c, 0, 70, 0
2, 177910, Note_on_c, 0, 60, 0
2, 177910, Note_on_c, 0, 67, 0
2, 177917, Control_c, 0, 11, 74
2, 177919, Note_on_c, 0, 70, 60
2, 177919, Note_on_c, 0, 67, 50
2, 177919, Note_on_c, 0, 60, 50
2, 177941, Note_on_c, 0, 60, 0
2, 177941, Note_on_c, 0, 70, 0
2, 177941, Note_on_c, 0, 67, 0
2, 177944, Control_c, 0, 11, 75
2, 177958, Note_on_c, 0, 70, 60
2, 177958, Note_on_c, 0, 67, 50
2, 177958, Note_on_c, 0, 60, 50
2, 177968, Note_on_c, 0, 70, 0
2, 177968, Note_on_c, 0, 76, 0
2, 177971, Control_c, 0, 11, 76
2, 177980, Note_on_c, 0, 70, 0
2, 177980, Note_on_c, 0, 67, 0
2, 177980, Note_on_c, 0, 60, 0
2, 177991, Note_on_c, 0, 70, 60
2, 177991, Note_on_c, 0, 67, 50
2, 177991, Note_on_c, 0, 60, 50
2, 177998, Control_c, 0, 11, 77
2, 178013, Note_on_c, 0, 60, 0
2, 178013, Note_on_c, 0, 67, 0
2, 178013, Note_on_c, 0, 70, 0
2, 178025, Control_c, 0, 11, 78
2, 178027, Note_on_c, 0, 70, 60
2, 178027, Note_on_c, 0, 67, 50
2, 178027, Note_on_c, 0, 60, 50
2, 178027, Note_on_c, 0, 76, 60
2, 178027, Note_on_c, 0, 70, 50
2, 178049, Note_on_c, 0, 70, 0
2, 178049, Note_on_c, 0, 60, 0
2, 178049, Note_on_c, 0, 67, 0
2, 178052, Control_c, 0, 11, 79
2, 178058, Note_on_c, 0, 70, 60
2, 178058, Note_on_c, 0, 67, 50
2, 178058, Note_on_c, 0, 60, 50
2, 178080, Note_on_c, 0, 60, 0
2, 178080, Note_on_c, 0, 70, 0
2, 178080, Note_on_c, 0, 67, 0
2, 178080, Control_c, 0, 11, 80
2, 178098, Note_on_c, 0, 70, 60
2, 178098, Note_on_c, 0, 67, 50
2, 178098, Note_on_c, 0, 60, 50
2, 178107, Note_on_c, 0, 70, 0
2, 178107, Note_on_c, 0, 76, 0
2, 178107, Control_c, 0, 11, 81
2, 178120, Note_on_c, 0, 70, 0
2, 178120, Note_on_c, 0, 67, 0
2, 178120, Note_on_c, 0, 60, 0
2, 178131, Note_on_c, 0, 70, 60
2, 178131, Note_on_c, 0, 67, 50
2, 178131, Note_on_c, 0, 60, 50
2, 178134, Control_c, 0, 11, 82
2, 178153, Note_on_c, 0, 60, 0
2, 178153, Note_on_c, 0, 67, 0
2, 178153, Note_on_c, 0, 70, 0
2, 178161, Control_c, 0, 11, 83
2, 178170, Note_on_c, 0, 70, 60
2, 178170, Note_on_c, 0, 67, 50
2, 178170, Note_on_c, 0, 60, 50
2, 178170, Note_on_c, 0, 76, 60
2, 178170, Note_on_c, 0, 70, 50
2, 178188, Control_c, 0, 11, 84
2, 178192, Note_on_c, 0, 70, 0
2, 178192, Note_on_c, 0, 60, 0
2, 178192, Note_on_c, 0, 67, 0
2, 178202, Note_on_c, 0, 70, 60
2, 178202, Note_on_c, 0, 67, 50
2, 178202, Note_on_c, 0, 60, 50
2, 178215, Control_c, 0, 11, 85
2, 178224, Note_on_c, 0, 60, 0
2, 178224, Note_on_c, 0, 70, 0
2, 178224, Note_on_c, 0, 67, 0
2, 178239, Note_on_c, 0, 70, 60
2, 178239, Note_on_c, 0, 67, 50
2, 178239, Note_on_c, 0, 60, 50
2, 178242, Control_c, 0, 11, 86
2, 178250, Note_on_c, 0, 70, 0
2, 178250, Note_on_c, 0, 76, 0
2, 178261, Note_on_c, 0, 70, 0
2, 178261, Note_on_c, 0, 67, 0
2, 178261, Note_on_c, 0, 60, 0
2, 178269, Control_c, 0, 11, 87
2, 178272, Note_on_c, 0, 70, 60
2, 178272, Note_on_c, 0, 67, 50
2, 178272, Note_on_c, 0, 60, 50
2, 178294, Note_on_c, 0, 60, 0
2, 178294, Note_on_c, 0, 67, 0
2, 178294, Note_on_c, 0, 70, 0
2, 178296, Control_c, 0, 11, 88
2, 178303, Note_on_c, 0, 67, 50
2, 178303, Note_on_c, 0, 60, 50
2, 178303, Note_on_c, 0, 76, 60
2, 178303, Note_on_c, 0, 70, 50
2, 178323, Control_c, 0, 11, 89
2, 178325, Note_on_c, 0, 60, 0
2, 178325, Note_on_c, 0, 67, 0
2, 178337, Note_on_c, 0, 67, 60
2, 178337, Note_on_c, 0, 60, 50
2, 178351, Control_c, 0, 11, 90
2, 178359, Note_on_c, 0, 60, 0
2, 178359, Note_on_c, 0, 67, 0
2, 178381, Control_c, 0, 11, 90
2, 178381, Note_on_c, 0, 77, 70
2, 178381, Note_on_c, 0, 68, 60
2, 178381, Note_on_c, 0, 65, 60
2, 178383, Note_on_c, 0, 76, 0
2, 178383, Note_on_c, 0, 70, 0
2, 178403, Note_on_c, 0, 68, 0
2, 178403, Note_on_c, 0, 77, 0
2, 178403, Note_on_c, 0, 65, 0
2, 178411, Note_on_c, 0, 77, 70
2, 178411, Note_on_c, 0, 68, 60
2, 178411, Note_on_c, 0, 65, 60
2, 178433, Note_on_c, 0, 65, 0
2, 178433, Note_on_c, 0, 68, 0
2, 178433, Note_on_c, 0, 77, 0
2, 178441, Note_on_c, 0, 77, 70
2, 178441, Note_on_c, 0, 68, 60
2, 178441, Note_on_c, 0, 65, 60
2, 178463, Note_on_c, 0, 65, 0
2, 178463, Note_on_c, 0, 68, 0
2, 178463, Note_on_c, 0, 77, 0
2, 178471, Note_on_c, 0, 77, 70
2, 178471, Note_on_c, 0, 68, 60
2, 178471, Note_on_c, 0, 65, 60
2, 178493, Note_on_c, 0, 65, 0
2, 178493, Note_on_c, 0, 68, 0
2, 178493, Note_on_c, 0, 77, 0
2, 178501, Note_on_c, 0, 77, 70
2, 178501, Note_on_c, 0, 68, 60
2, 178501, Note_on_c, 0, 65, 60
2, 178523, Note_on_c, 0, 65, 0
2, 178523, Note_on_c, 0, 68, 0
2, 178523, Note_on_c, 0, 77, 0
2, 178531, Note_on_c, 0, 77, 70
2, 178531, Note_on_c, 0, 68, 60
2, 178531, Note_on_c, 0, 65, 60
2, 178553, Note_on_c, 0, 65, 0
2, 178553, Note_on_c, 0, 68, 0
2, 178553, Note_on_c, 0, 77, 0
2, 178561, Note_on_c, 0, 80, 70
2, 178561, Note_on_c, 0, 68, 60
2, 178561, Note_on_c, 0, 77, 60
2, 178561, Note_on_c, 0, 65, 60
2, 178583, Note_on_c, 0, 65, 0
2, 178583, Note_on_c, 0, 80, 0
2, 178583, Note_on_c, 0, 68, 0
2, 178583, Note_on_c, 0, 77, 0
2, 178591, Note_on_c, 0, 80, 70
2, 178591, Note_on_c, 0, 68, 60
2, 178591, Note_on_c, 0, 77, 60
2, 178591, Note_on_c, 0, 65, 60
2, 178613, Note_on_c, 0, 65, 0
2, 178613, Note_on_c, 0, 80, 0
2, 178613, Note_on_c, 0, 68, 0
2, 178613, Note_on_c, 0, 77, 0
2, 178621, Note_on_c, 0, 80, 70
2, 178621, Note_on_c, 0, 68, 60
2, 178621, Note_on_c, 0, 77, 60
2, 178621, Note_on_c, 0, 65, 60
2, 178643, Note_on_c, 0, 65, 0
2, 178643, Note_on_c, 0, 80, 0
2, 178643, Note_on_c, 0, 68, 0
2, 178643, Note_on_c, 0, 77, 0
2, 178651, Note_on_c, 0, 80, 70
2, 178651, Note_on_c, 0, 68, 60
2, 178651, Note_on_c, 0, 77, 60
2, 178651, Note_on_c, 0, 65, 60
2, 178673, Note_on_c, 0, 65, 0
2, 178673, Note_on_c, 0, 80, 0
2, 178673, Note_on_c, 0, 68, 0
2, 178673, Note_on_c, 0, 77, 0
2, 178681, Note_on_c, 0, 80, 70
2, 178681, Note_on_c, 0, 68, 60
2, 178681, Note_on_c, 0, 77, 60
2, 178681, Note_on_c, 0, 65, 60
2, 178703, Note_on_c, 0, 65, 0
2, 178703, Note_on_c, 0, 80, 0
2, 178703, Note_on_c, 0, 68, 0
2, 178703, Note_on_c, 0, 77, 0
2, 178711, Note_on_c, 0, 80, 70
2, 178711, Note_on_c, 0, 68, 60
2, 178711, Note_on_c, 0, 77, 60
2, 178711, Note_on_c, 0, 65, 60
2, 178711, Note_on_c, 0, 80, 70
2, 178711, Note_on_c, 0, 68, 60
2, 178711, Note_on_c, 0, 77, 60
2, 178711, Note_on_c, 0, 65, 60
2, 178733, Note_on_c, 0, 65, 0
2, 178733, Note_on_c, 0, 80, 0
2, 178733, Note_on_c, 0, 80, 0
2, 178733, Note_on_c, 0, 68, 0
2, 178733, Note_on_c, 0, 77, 0
2, 178733, Note_on_c, 0, 65, 0
2, 178733, Note_on_c, 0, 68, 0
2, 178733, Note_on_c, 0, 77, 0
2, 178741, Note_on_c, 0, 80, 70
2, 178741, Note_on_c, 0, 68, 60
2, 178741, Note_on_c, 0, 77, 60
2, 178741, Note_on_c, 0, 65, 60
2, 178763, Note_on_c, 0, 65, 0
2, 178763, Note_on_c, 0, 80, 0
2, 178763, Note_on_c, 0, 68, 0
2, 178763, Note_on_c, 0, 77, 0
2, 178771, Note_on_c, 0, 80, 70
2, 178771, Note_on_c, 0, 68, 60
2, 178771, Note_on_c, 0, 77, 60
2, 178771, Note_on_c, 0, 65, 60
2, 178793, Note_on_c, 0, 65, 0
2, 178793, Note_on_c, 0, 80, 0
2, 178793, Note_on_c, 0, 68, 0
2, 178793, Note_on_c, 0, 77, 0
2, 178801, Note_on_c, 0, 80, 70
2, 178801, Note_on_c, 0, 68, 60
2, 178801, Note_on_c, 0, 77, 60
2, 178801, Note_on_c, 0, 65, 60
2, 178823, Note_on_c, 0, 65, 0
2, 178823, Note_on_c, 0, 80, 0
2, 178823, Note_on_c, 0, 68, 0
2, 178823, Note_on_c, 0, 77, 0
2, 178831, Note_on_c, 0, 80, 70
2, 178831, Note_on_c, 0, 68, 60
2, 178831, Note_on_c, 0, 77, 60
2, 178831, Note_on_c, 0, 65, 60
2, 178853, Note_on_c, 0, 65, 0
2, 178853, Note_on_c, 0, 80, 0
2, 178853, Note_on_c, 0, 68, 0
2, 178853, Note_on_c, 0, 77, 0
2, 178861, Note_on_c, 0, 80, 70
2, 178861, Note_on_c, 0, 68, 60
2, 178861, Note_on_c, 0, 77, 60
2, 178861, Note_on_c, 0, 65, 60
2, 178883, Note_on_c, 0, 65, 0
2, 178883, Note_on_c, 0, 80, 0
2, 178883, Note_on_c, 0, 68, 0
2, 178883, Note_on_c, 0, 77, 0
2, 178891, Note_on_c, 0, 80, 70
2, 178891, Note_on_c, 0, 68, 60
2, 178891, Note_on_c, 0, 77, 60
2, 178891, Note_on_c, 0, 65, 60
2, 178913, Note_on_c, 0, 65, 0
2, 178913, Note_on_c, 0, 80, 0
2, 178913, Note_on_c, 0, 68, 0
2, 178913, Note_on_c, 0, 77, 0
2, 178921, Note_on_c, 0, 84, 70
2, 178921, Note_on_c, 0, 68, 60
2, 178921, Note_on_c, 0, 77, 60
2, 178921, Note_on_c, 0, 65, 60
2, 178943, Note_on_c, 0, 65, 0
2, 178943, Note_on_c, 0, 84, 0
2, 178943, Note_on_c, 0, 68, 0
2, 178943, Note_on_c, 0, 77, 0
2, 178951, Note_on_c, 0, 84, 70
2, 178951, Note_on_c, 0, 68, 60
2, 178951, Note_on_c, 0, 77, 60
2, 178951, Note_on_c, 0, 65, 60
2, 178973, Note_on_c, 0, 65, 0
2, 178973, Note_on_c, 0, 84, 0
2, 178973, Note_on_c, 0, 68, 0
2, 178973, Note_on_c, 0, 77, 0
2, 178981, Note_on_c, 0, 84, 70
2, 178981, Note_on_c, 0, 68, 60
2, 178981, Note_on_c, 0, 77, 60
2, 178981, Note_on_c, 0, 65, 60
2, 179003, Note_on_c, 0, 65, 0
2, 179003, Note_on_c, 0, 84, 0
2, 179003, Note_on_c, 0, 68, 0
2, 179003, Note_on_c, 0, 77, 0
2, 179011, Note_on_c, 0, 84, 70
2, 179011, Note_on_c, 0, 68, 60
2, 179011, Note_on_c, 0, 77, 60
2, 179011, Note_on_c, 0, 65, 60
2, 179033, Note_on_c, 0, 65, 0
2, 179033, Note_on_c, 0, 84, 0
2, 179033, Note_on_c, 0, 68, 0
2, 179033, Note_on_c, 0, 77, 0
2, 179041, Note_on_c, 0, 89, 70
2, 179041, Note_on_c, 0, 68, 60
2, 179041, Note_on_c, 0, 77, 60
2, 179041, Note_on_c, 0, 65, 60
2, 179063, Note_on_c, 0, 65, 0
2, 179063, Note_on_c, 0, 89, 0
2, 179063, Note_on_c, 0, 68, 0
2, 179063, Note_on_c, 0, 77, 0
2, 179071, Note_on_c, 0, 89, 70
2, 179071, Note_on_c, 0, 68, 60
2, 179071, Note_on_c, 0, 77, 60
2, 179071, Note_on_c, 0, 65, 60
2, 179093, Note_on_c, 0, 65, 0
2, 179093, Note_on_c, 0, 89, 0
2, 179093, Note_on_c, 0, 68, 0
2, 179093, Note_on_c, 0, 77, 0
2, 179101, Note_on_c, 0, 89, 70
2, 179101, Note_on_c, 0, 68, 60
2, 179101, Note_on_c, 0, 77, 60
2, 179101, Note_on_c, 0, 65, 60
2, 179123, Note_on_c, 0, 65, 0
2, 179123, Note_on_c, 0, 89, 0
2, 179123, Note_on_c, 0, 68, 0
2, 179123, Note_on_c, 0, 77, 0
2, 179131, Note_on_c, 0, 89, 70
2, 179131, Note_on_c, 0, 68, 60
2, 179131, Note_on_c, 0, 77, 60
2, 179131, Note_on_c, 0, 65, 60
2, 179153, Note_on_c, 0, 65, 0
2, 179153, Note_on_c, 0, 89, 0
2, 179153, Note_on_c, 0, 68, 0
2, 179153, Note_on_c, 0, 77, 0
2, 179161, Note_on_c, 0, 92, 70
2, 179161, Note_on_c, 0, 68, 60
2, 179161, Note_on_c, 0, 77, 60
2, 179161, Note_on_c, 0, 65, 60
2, 179183, Note_on_c, 0, 65, 0
2, 179183, Note_on_c, 0, 92, 0
2, 179183, Note_on_c, 0, 68, 0
2, 179183, Note_on_c, 0, 77, 0
2, 179191, Note_on_c, 0, 92, 70
2, 179191, Note_on_c, 0, 68, 60
2, 179191, Note_on_c, 0, 77, 60
2, 179191, Note_on_c, 0, 65, 60
2, 179213, Note_on_c, 0, 65, 0
2, 179213, Note_on_c, 0, 92, 0
2, 179213, Note_on_c, 0, 68, 0
2, 179213, Note_on_c, 0, 77, 0
2, 179221, Note_on_c, 0, 92, 70
2, 179221, Note_on_c, 0, 68, 60
2, 179221, Note_on_c, 0, 77, 60
2, 179221, Note_on_c, 0, 65, 60
2, 179243, Note_on_c, 0, 65, 0
2, 179243, Note_on_c, 0, 92, 0
2, 179243, Note_on_c, 0, 68, 0
2, 179243, Note_on_c, 0, 77, 0
2, 179251, Note_on_c, 0, 92, 70
2, 179251, Note_on_c, 0, 68, 60
2, 179251, Note_on_c, 0, 77, 60
2, 179251, Note_on_c, 0, 65, 60
2, 179273, Note_on_c, 0, 65, 0
2, 179273, Note_on_c, 0, 92, 0
2, 179273, Note_on_c, 0, 68, 0
2, 179273, Note_on_c, 0, 77, 0
2, 179281, Note_on_c, 0, 80, 70
2, 179281, Note_on_c, 0, 68, 60
2, 179281, Note_on_c, 0, 77, 60
2, 179281, Note_on_c, 0, 65, 60
2, 179303, Note_on_c, 0, 65, 0
2, 179303, Note_on_c, 0, 80, 0
2, 179303, Note_on_c, 0, 68, 0
2, 179303, Note_on_c, 0, 77, 0
2, 179311, Note_on_c, 0, 80, 70
2, 179311, Note_on_c, 0, 68, 60
2, 179311, Note_on_c, 0, 77, 60
2, 179311, Note_on_c, 0, 65, 60
2, 179333, Note_on_c, 0, 65, 0
2, 179333, Note_on_c, 0, 80, 0
2, 179333, Note_on_c, 0, 68, 0
2, 179333, Note_on_c, 0, 77, 0
2, 179341, Note_on_c, 0, 77, 70
2, 179341, Note_on_c, 0, 68, 60
2, 179341, Note_on_c, 0, 65, 60
2, 179363, Note_on_c, 0, 65, 0
2, 179363, Note_on_c, 0, 68, 0
2, 179363, Note_on_c, 0, 77, 0
2, 179371, Note_on_c, 0, 77, 70
2, 179371, Note_on_c, 0, 68, 60
2, 179371, Note_on_c, 0, 65, 60
2, 179393, Note_on_c, 0, 65, 0
2, 179393, Note_on_c, 0, 68, 0
2, 179393, Note_on_c, 0, 77, 0
2, 179401, Note_on_c, 0, 77, 70
2, 179401, Note_on_c, 0, 68, 60
2, 179401, Note_on_c, 0, 65, 60
2, 179423, Note_on_c, 0, 65, 0
2, 179423, Note_on_c, 0, 68, 0
2, 179423, Note_on_c, 0, 77, 0
2, 179431, Note_on_c, 0, 77, 70
2, 179431, Note_on_c, 0, 68, 60
2, 179431, Note_on_c, 0, 65, 60
2, 179453, Note_on_c, 0, 65, 0
2, 179453, Note_on_c, 0, 68, 0
2, 179453, Note_on_c, 0, 77, 0
2, 179461, Note_on_c, 0, 77, 70
2, 179461, Note_on_c, 0, 68, 60
2, 179461, Note_on_c, 0, 65, 60
2, 179483, Note_on_c, 0, 65, 0
2, 179483, Note_on_c, 0, 68, 0
2, 179483, Note_on_c, 0, 77, 0
2, 179491, Note_on_c, 0, 77, 70
2, 179491, Note_on_c, 0, 68, 60
2, 179491, Note_on_c, 0, 65, 60
2, 179513, Note_on_c, 0, 65, 0
2, 179513, Note_on_c, 0, 68, 0
2, 179513, Note_on_c, 0, 77, 0
2, 179521, Note_on_c, 0, 80, 70
2, 179521, Note_on_c, 0, 68, 60
2, 179521, Note_on_c, 0, 77, 60
2, 179521, Note_on_c, 0, 65, 60
2, 179543, Note_on_c, 0, 65, 0
2, 179543, Note_on_c, 0, 80, 0
2, 179543, Note_on_c, 0, 68, 0
2, 179543, Note_on_c, 0, 77, 0
2, 179551, Note_on_c, 0, 80, 70
2, 179551, Note_on_c, 0, 68, 60
2, 179551, Note_on_c, 0, 77, 60
2, 179551, Note_on_c, 0, 65, 60
2, 179573, Note_on_c, 0, 65, 0
2, 179573, Note_on_c, 0, 80, 0
2, 179573, Note_on_c, 0, 68, 0
2, 179573, Note_on_c, 0, 77, 0
2, 179581, Note_on_c, 0, 80, 70
2, 179581, Note_on_c, 0, 68, 60
2, 179581, Note_on_c, 0, 77, 60
2, 179581, Note_on_c, 0, 65, 60
2, 179603, Note_on_c, 0, 65, 0
2, 179603, Note_on_c, 0, 80, 0
2, 179603, Note_on_c, 0, 68, 0
2, 179603, Note_on_c, 0, 77, 0
2, 179611, Note_on_c, 0, 80, 70
2, 179611, Note_on_c, 0, 68, 60
2, 179611, Note_on_c, 0, 77, 60
2, 179611, Note_on_c, 0, 65, 60
2, 179633, Note_on_c, 0, 65, 0
2, 179633, Note_on_c, 0, 80, 0
2, 179633, Note_on_c, 0, 68, 0
2, 179633, Note_on_c, 0, 77, 0
2, 179641, Note_on_c, 0, 80, 70
2, 179641, Note_on_c, 0, 68, 60
2, 179641, Note_on_c, 0, 77, 60
2, 179641, Note_on_c, 0, 65, 60
2, 179663, Note_on_c, 0, 65, 0
2, 179663, Note_on_c, 0, 80, 0
2, 179663, Note_on_c, 0, 68, 0
2, 179663, Note_on_c, 0, 77, 0
2, 179671, Note_on_c, 0, 80, 70
2, 179671, Note_on_c, 0, 68, 60
2, 179671, Note_on_c, 0, 77, 60
2, 179671, Note_on_c, 0, 65, 60
2, 179693, Note_on_c, 0, 65, 0
2, 179693, Note_on_c, 0, 80, 0
2, 179693, Note_on_c, 0, 68, 0
2, 179693, Note_on_c, 0, 77, 0
2, 179701, Note_on_c, 0, 80, 70
2, 179701, Note_on_c, 0, 68, 60
2, 179701, Note_on_c, 0, 77, 60
2, 179701, Note_on_c, 0, 65, 60
2, 179723, Note_on_c, 0, 65, 0
2, 179723, Note_on_c, 0, 80, 0
2, 179723, Note_on_c, 0, 68, 0
2, 179723, Note_on_c, 0, 77, 0
2, 179731, Note_on_c, 0, 80, 70
2, 179731, Note_on_c, 0, 68, 60
2, 179731, Note_on_c, 0, 77, 60
2, 179731, Note_on_c, 0, 65, 60
2, 179753, Note_on_c, 0, 65, 0
2, 179753, Note_on_c, 0, 80, 0
2, 179753, Note_on_c, 0, 68, 0
2, 179753, Note_on_c, 0, 77, 0
2, 179761, Note_on_c, 0, 80, 70
2, 179761, Note_on_c, 0, 68, 60
2, 179761, Note_on_c, 0, 77, 60
2, 179761, Note_on_c, 0, 65, 60
2, 179783, Note_on_c, 0, 65, 0
2, 179783, Note_on_c, 0, 80, 0
2, 179783, Note_on_c, 0, 68, 0
2, 179783, Note_on_c, 0, 77, 0
2, 179791, Note_on_c, 0, 80, 70
2, 179791, Note_on_c, 0, 68, 60
2, 179791, Note_on_c, 0, 77, 60
2, 179791, Note_on_c, 0, 65, 60
2, 179813, Note_on_c, 0, 65, 0
2, 179813, Note_on_c, 0, 80, 0
2, 179813, Note_on_c, 0, 68, 0
2, 179813, Note_on_c, 0, 77, 0
2, 179821, Note_on_c, 0, 80, 70
2, 179821, Note_on_c, 0, 68, 60
2, 179821, Note_on_c, 0, 77, 60
2, 179821, Note_on_c, 0, 65, 60
2, 179843, Note_on_c, 0, 65, 0
2, 179843, Note_on_c, 0, 80, 0
2, 179843, Note_on_c, 0, 68, 0
2, 179843, Note_on_c, 0, 77, 0
2, 179851, Note_on_c, 0, 80, 70
2, 179851, Note_on_c, 0, 68, 60
2, 179851, Note_on_c, 0, 77, 60
2, 179851, Note_on_c, 0, 65, 60
2, 179873, Note_on_c, 0, 65, 0
2, 179873, Note_on_c, 0, 80, 0
2, 179873, Note_on_c, 0, 68, 0
2, 179873, Note_on_c, 0, 77, 0
2, 179881, Note_on_c, 0, 85, 70
2, 179881, Note_on_c, 0, 68, 60
2, 179881, Note_on_c, 0, 77, 60
2, 179881, Note_on_c, 0, 65, 60
2, 179903, Note_on_c, 0, 65, 0
2, 179903, Note_on_c, 0, 85, 0
2, 179903, Note_on_c, 0, 68, 0
2, 179903, Note_on_c, 0, 77, 0
2, 179911, Note_on_c, 0, 85, 70
2, 179911, Note_on_c, 0, 68, 60
2, 179911, Note_on_c, 0, 77, 60
2, 179911, Note_on_c, 0, 65, 60
2, 179933, Note_on_c, 0, 65, 0
2, 179933, Note_on_c, 0, 85, 0
2, 179933, Note_on_c, 0, 68, 0
2, 179933, Note_on_c, 0, 77, 0
2, 179941, Note_on_c, 0, 85, 70
2, 179941, Note_on_c, 0, 68, 60
2, 179941, Note_on_c, 0, 77, 60
2, 179941, Note_on_c, 0, 65, 60
2, 179963, Note_on_c, 0, 65, 0
2, 179963, Note_on_c, 0, 85, 0
2, 179963, Note_on_c, 0, 68, 0
2, 179963, Note_on_c, 0, 77, 0
2, 179971, Note_on_c, 0, 85, 70
2, 179971, Note_on_c, 0, 68, 60
2, 179971, Note_on_c, 0, 77, 60
2, 179971, Note_on_c, 0, 65, 60
2, 179993, Note_on_c, 0, 65, 0
2, 179993, Note_on_c, 0, 85, 0
2, 179993, Note_on_c, 0, 68, 0
2, 179993, Note_on_c, 0, 77, 0
2, 180001, Note_on_c, 0, 89, 70
2, 180001, Note_on_c, 0, 68, 60
2, 180001, Note_on_c, 0, 77, 60
2, 180001, Note_on_c, 0, 65, 60
2, 180023, Note_on_c, 0, 65, 0
2, 180023, Note_on_c, 0, 89, 0
2, 180023, Note_on_c, 0, 68, 0
2, 180023, Note_on_c, 0, 77, 0
2, 180031, Note_on_c, 0, 89, 70
2, 180031, Note_on_c, 0, 68, 60
2, 180031, Note_on_c, 0, 77, 60
2, 180031, Note_on_c, 0, 65, 60
2, 180053, Note_on_c, 0, 65, 0
2, 180053, Note_on_c, 0, 89, 0
2, 180053, Note_on_c, 0, 68, 0
2, 180053, Note_on_c, 0, 77, 0
2, 180061, Note_on_c, 0, 89, 70
2, 180061, Note_on_c, 0, 68, 60
2, 180061, Note_on_c, 0, 77, 60
2, 180061, Note_on_c, 0, 65, 60
2, 180083, Note_on_c, 0, 65, 0
2, 180083, Note_on_c, 0, 89, 0
2, 180083, Note_on_c, 0, 68, 0
2, 180083, Note_on_c, 0, 77, 0
2, 180091, Note_on_c, 0, 89, 70
2, 180091, Note_on_c, 0, 68, 60
2, 180091, Note_on_c, 0, 77, 60
2, 180091, Note_on_c, 0, 65, 60
2, 180113, Note_on_c, 0, 65, 0
2, 180113, Note_on_c, 0, 89, 0
2, 180113, Note_on_c, 0, 68, 0
2, 180113, Note_on_c, 0, 77, 0
2, 180121, Note_on_c, 0, 92, 70
2, 180121, Note_on_c, 0, 68, 60
2, 180121, Note_on_c, 0, 77, 60
2, 180121, Note_on_c, 0, 65, 60
2, 180143, Note_on_c, 0, 65, 0
2, 180143, Note_on_c, 0, 92, 0
2, 180143, Note_on_c, 0, 68, 0
2, 180143, Note_on_c, 0, 77, 0
2, 180151, Note_on_c, 0, 92, 70
2, 180151, Note_on_c, 0, 68, 60
2, 180151, Note_on_c, 0, 77, 60
2, 180151, Note_on_c, 0, 65, 60
2, 180173, Note_on_c, 0, 65, 0
2, 180173, Note_on_c, 0, 92, 0
2, 180173, Note_on_c, 0, 68, 0
2, 180173, Note_on_c, 0, 77, 0
2, 180181, Note_on_c, 0, 92, 70
2, 180181, Note_on_c, 0, 68, 60
2, 180181, Note_on_c, 0, 77, 60
2, 180181, Note_on_c, 0, 65, 60
2, 180203, Note_on_c, 0, 65, 0
2, 180203, Note_on_c, 0, 92, 0
2, 180203, Note_on_c, 0, 68, 0
2, 180203, Note_on_c, 0, 77, 0
2, 180211, Note_on_c, 0, 92, 70
2, 180211, Note_on_c, 0, 68, 60
2, 180211, Note_on_c, 0, 77, 60
2, 180211, Note_on_c, 0, 65, 60
2, 180233, Note_on_c, 0, 65, 0
2, 180233, Note_on_c, 0, 92, 0
2, 180233, Note_on_c, 0, 68, 0
2, 180233, Note_on_c, 0, 77, 0
2, 180241, Note_on_c, 0, 80, 70
2, 180241, Note_on_c, 0, 68, 60
2, 180241, Note_on_c, 0, 77, 60
2, 180241, Note_on_c, 0, 65, 60
2, 180263, Note_on_c, 0, 65, 0
2, 180263, Note_on_c, 0, 80, 0
2, 180263, Note_on_c, 0, 68, 0
2, 180263, Note_on_c, 0, 77, 0
2, 180271, Note_on_c, 0, 80, 70
2, 180271, Note_on_c, 0, 68, 60
2, 180271, Note_on_c, 0, 77, 60
2, 180271, Note_on_c, 0, 65, 60
2, 180293, Note_on_c, 0, 65, 0
2, 180293, Note_on_c, 0, 80, 0
2, 180293, Note_on_c, 0, 68, 0
2, 180293, Note_on_c, 0, 77, 0
2, 180301, Note_on_c, 0, 80, 70
2, 180301, Note_on_c, 0, 68, 60
2, 180301, Note_on_c, 0, 77, 60
2, 180301, Note_on_c, 0, 65, 60
2, 180351, Note_on_c, 0, 65, 0
2, 180351, Note_on_c, 0, 80, 0
2, 180351, Note_on_c, 0, 68, 0
2, 180351, Note_on_c, 0, 77, 0
2, 180901, Control_c, 0, 11, 80
2, 180901, Note_on_c, 0, 85, 90
2, 180901, Note_on_c, 0, 76, 80
2, 180901, Note_on_c, 0, 73, 80
2, 180901, Note_on_c, 0, 67, 80
2, 180951, Note_on_c, 0, 67, 0
2, 180951, Note_on_c, 0, 85, 0
2, 180951, Note_on_c, 0, 76, 0
2, 180951, Note_on_c, 0, 73, 0
2, 181021, Note_on_c, 0, 84, 90
2, 181021, Note_on_c, 0, 77, 80
2, 181021, Note_on_c, 0, 72, 80
2, 181021, Note_on_c, 0, 68, 80
2, 181071, Note_on_c, 0, 68, 0
2, 181071, Note_on_c, 0, 84, 0
2, 181071, Note_on_c, 0, 77, 0
2, 181071, Note_on_c, 0, 72, 0
2, 181111, Control_c, 0, 11, 75
2, 181111, Note_on_c, 0, 77, 70
2, 181141, Note_on_c, 0, 68, 60
2, 181141, Note_on_c, 0, 65, 40
2, 181146, Note_on_c, 0, 77, 0
2, 181231, Note_on_c, 0, 70, 60
2, 181236, Note_on_c, 0, 68, 0
2, 181251, Note_on_c, 0, 65, 0
2, 181261, Note_on_c, 0, 72, 65
2, 181261, Note_on_c, 0, 68, 40
2, 181261, Note_on_c, 0, 65, 40
2, 181266, Note_on_c, 0, 70, 0
2, 181501, Note_on_c, 0, 67, 40
2, 181501, Note_on_c, 0, 64, 40
2, 181511, Note_on_c, 0, 65, 0
2, 181511, Note_on_c, 0, 68, 0
2, 181621, Note_on_c, 0, 69, 30
2, 181621, Note_on_c, 0, 66, 40
2, 181621, Note_on_c, 0, 63, 40
2, 181631, Note_on_c, 0, 64, 0
2, 181631, Note_on_c, 0, 67, 0
2, 181741, Note_on_c, 0, 70, 60
2, 181741, Note_on_c, 0, 65, 45
2, 181741, Note_on_c, 0, 61, 45
2, 181751, Note_on_c, 0, 69, 0
2, 181751, Note_on_c, 0, 66, 0
2, 181751, Note_on_c, 0, 72, 0
2, 181751, Note_on_c, 0, 63, 0
2, 181891, Note_on_c, 0, 72, 60
2, 181896, Note_on_c, 0, 70, 0
2, 181921, Note_on_c, 0, 70, 60
2, 181926, Note_on_c, 0, 72, 0
2, 181951, Note_on_c, 0, 68, 55
2, 181951, Note_on_c, 0, 65, 45
2, 181951, Note_on_c, 0, 60, 45
2, 181956, Note_on_c, 0, 70, 0
2, 181991, Note_on_c, 0, 65, 0
2, 181991, Note_on_c, 0, 61, 0
2, 182031, Note_on_c, 0, 68, 0
2, 182031, Note_on_c, 0, 60, 0
2, 182031, Note_on_c, 0, 65, 0
2, 182041, Note_on_c, 0, 68, 55
2, 182041, Note_on_c, 0, 60, 45
2, 182071, Note_on_c, 0, 67, 55
2, 182071, Note_on_c, 0, 64, 45
2, 182071, Note_on_c, 0, 58, 45
2, 182076, Note_on_c, 0, 60, 0
2, 182076, Note_on_c, 0, 68, 0
2, 182161, Note_on_c, 0, 65, 55
2, 182161, Note_on_c, 0, 56, 45
2, 182166, Note_on_c, 0, 64, 0
2, 182166, Note_on_c, 0, 58, 0
2, 182166, Note_on_c, 0, 67, 0
2, 182183, Note_on_c, 0, 65, 0
2, 182183, Note_on_c, 0, 56, 0
2, 182191, Note_on_c, 0, 65, 70
2, 182191, Note_on_c, 0, 56, 45
2, 182231, Note_on_c, 0, 56, 0
2, 182231, Note_on_c, 0, 65, 0
2, 182281, Note_on_c, 0, 65, 70
2, 182311, Note_on_c, 0, 56, 75
2, 182316, Note_on_c, 0, 65, 0
2, 182391, Note_on_c, 0, 56, 0
2, 182401, Note_on_c, 0, 58, 70
2, 182431, Note_on_c, 0, 60, 65
2, 182436, Note_on_c, 0, 58, 0
2, 182466, Note_on_c, 0, 60, 0
2, 182551, Control_c, 0, 11, 95
2, 182551, Note_on_c, 0, 79, 70
2, 182551, Note_on_c, 0, 72, 60
2, 182551, Note_on_c, 0, 64, 60
2, 182551, Note_on_c, 0, 55, 60
2, 182601, Note_on_c, 0, 55, 0
2, 182601, Note_on_c, 0, 79, 0
2, 182601, Note_on_c, 0, 72, 0
2, 182601, Note_on_c, 0, 64, 0
2, 182671, Note_on_c, 0, 80, 70
2, 182671, Note_on_c, 0, 72, 60
2, 182671, Note_on_c, 0, 65, 60
2, 182671, Note_on_c, 0, 56, 60
2, 182721, Note_on_c, 0, 56, 0
2, 182721, Note_on_c, 0, 80, 0
2, 182721, Note_on_c, 0, 72, 0
2, 182721, Note_on_c, 0, 65, 0
2, 182761, Control_c, 0, 11, 80
2, 182761, Note_on_c, 0, 65, 70
2, 182791, Note_on_c, 0, 56, 80
2, 182796, Note_on_c, 0, 65, 0
2, 182881, Note_on_c, 0, 58, 70
2, 182886, Note_on_c, 0, 56, 0
2, 182911, Note_on_c, 0, 60, 65
2, 182916, Note_on_c, 0, 58, 0
2, 182946, Note_on_c, 0, 60, 0
2, 183031, Control_c, 0, 11, 100
2, 183031, Note_on_c, 0, 79, 70
2, 183031, Note_on_c, 0, 72, 60
2, 183031, Note_on_c, 0, 64, 60
2, 183031, Note_on_c, 0, 55, 60
2, 183066, Note_on_c, 0, 55, 0
2, 183066, Note_on_c, 0, 79, 0
2, 183066, Note_on_c, 0, 72, 0
2, 183066, Note_on_c, 0, 64, 0
2, 183151, Control_c, 0, 11, 115
2, 183151, Note_on_c, 0, 80, 70
2, 183151, Note_on_c, 0, 72, 60
2, 183151, Note_on_c, 0, 65, 60
2, 183151, Note_on_c, 0, 56, 60
2, 183186, Note_on_c, 0, 56, 0
2, 183186, Note_on_c, 0, 80, 0
2, 183186, Note_on_c, 0, 72, 0
2, 183186, Note_on_c, 0, 65, 0
2, 183391, Note_on_c, 0, 89, 80
2, 183391, Note_on_c, 0, 80, 70
2, 183391, Note_on_c, 0, 77, 70
2, 183391, Note_on_c, 0, 72, 70
2, 183391, Note_on_c, 0, 68, 70
2, 183391, Note_on_c, 0, 65, 70
2, 183481, Note_on_c, 0, 65, 0
2, 183481, Note_on_c, 0, 80, 0
2, 183481, Note_on_c, 0, 77, 0
2, 183481, Note_on_c, 0, 89, 0
2, 183481, Note_on_c, 0, 68, 0
2, 183481, Note_on_c, 0, 72, 0
2, 183631, Note_on_c, 0, 65, 80
2, 184111, Note_on_c, 0, 65, 0
2, 184664, Control_c, 0, 121, 0
2, 184664, End_track
3, 0, Start_track
3, 0, MIDI_port, 0
3, 0, Title_t, "Violas"
3, 0, Program_c, 1, 48
3, 0, Control_c, 1, 7, 127
3, 0, Control_c, 1, 10, 40
3, 50, Control_c, 1, 121, 0
3, 100, Control_c, 1, 91, 100
3, 100, Control_c, 1, 93, 90
3, 110, Control_c, 1, 11, 60
3, 360, Note_on_c, 1, 65, 30
3, 463, Note_on_c, 1, 64, 30
3, 470, Note_on_c, 1, 65, 0
3, 570, Note_on_c, 1, 63, 30
3, 575, Note_on_c, 1, 64, 0
3, 680, Note_on_c, 1, 62, 30
3, 690, Note_on_c, 1, 63, 0
3, 792, Note_on_c, 1, 61, 30
3, 799, Note_on_c, 1, 62, 0
3, 905, Note_on_c, 1, 60, 30
3, 911, Note_on_c, 1, 61, 0
3, 1014, Note_on_c, 1, 58, 30
3, 1019, Note_on_c, 1, 60, 0
3, 1124, Note_on_c, 1, 56, 30
3, 1134, Note_on_c, 1, 58, 0
3, 1223, Note_on_c, 1, 55, 30
3, 1230, Note_on_c, 1, 56, 0
3, 1323, Note_on_c, 1, 53, 30
3, 1333, Note_on_c, 1, 55, 0
3, 1413, Note_on_c, 1, 53, 0
3, 1434, Note_on_c, 1, 59, 40
3, 1529, Note_on_c, 1, 59, 0
3, 1546, Note_on_c, 1, 60, 50
3, 1846, Note_on_c, 1, 60, 0
3, 2108, Note_on_c, 1, 58, 80
3, 2178, Note_on_c, 1, 58, 0
3, 2217, Note_on_c, 1, 58, 80
3, 2287, Note_on_c, 1, 58, 0
3, 2969, Note_on_c, 1, 70, 95
3, 3186, Note_on_c, 1, 72, 90
3, 3192, Note_on_c, 1, 70, 0
3, 3268, Note_on_c, 1, 72, 0
3, 3290, Note_on_c, 1, 72, 90
3, 3361, Note_on_c, 1, 70, 88
3, 3370, Note_on_c, 1, 72, 0
3, 3388, Note_on_c, 1, 72, 85
3, 3394, Note_on_c, 1, 70, 0
3, 3508, Note_on_c, 1, 72, 0
3, 3600, Control_c, 1, 11, 40
3, 3708, Control_c, 1, 11, 40
3, 3708, Note_on_c, 1, 56, 50
3, 3753, Note_on_c, 1, 56, 0
3, 3761, Note_on_c, 1, 56, 50
3, 3806, Note_on_c, 1, 56, 0
3, 3814, Note_on_c, 1, 56, 50
3, 3818, Control_c, 1, 11, 41
3, 3859, Note_on_c, 1, 56, 0
3, 3867, Note_on_c, 1, 56, 50
3, 3912, Note_on_c, 1, 56, 0
3, 3919, Note_on_c, 1, 65, 50
3, 3919, Note_on_c, 1, 56, 50
3, 3928, Control_c, 1, 11, 42
3, 3964, Note_on_c, 1, 56, 0
3, 3964, Note_on_c, 1, 65, 0
3, 3971, Note_on_c, 1, 65, 50
3, 3971, Note_on_c, 1, 56, 50
3, 4016, Note_on_c, 1, 56, 0
3, 4016, Note_on_c, 1, 65, 0
3, 4023, Note_on_c, 1, 65, 50
3, 4023, Note_on_c, 1, 56, 50
3, 4038, Control_c, 1, 11, 43
3, 4068, Note_on_c, 1, 56, 0
3, 4068, Note_on_c, 1, 65, 0
3, 4075, Note_on_c, 1, 65, 50
3, 4075, Note_on_c, 1, 56, 50
3, 4120, Note_on_c, 1, 56, 0
3, 4120, Note_on_c, 1, 65, 0
3, 4125, Note_on_c, 1, 65, 50
3, 4125, Note_on_c, 1, 61, 50
3, 4149, Control_c, 1, 11, 44
3, 4170, Note_on_c, 1, 61, 0
3, 4170, Note_on_c, 1, 65, 0
3, 4175, Note_on_c, 1, 65, 50
3, 4175, Note_on_c, 1, 61, 50
3, 4220, Note_on_c, 1, 61, 0
3, 4220, Note_on_c, 1, 65, 0
3, 4225, Note_on_c, 1, 65, 50
3, 4225, Note_on_c, 1, 61, 50
3, 4259, Control_c, 1, 11, 45
3, 4270, Note_on_c, 1, 61, 0
3, 4270, Note_on_c, 1, 65, 0
3, 4275, Note_on_c, 1, 65, 50
3, 4275, Note_on_c, 1, 61, 50
3, 4320, Note_on_c, 1, 61, 0
3, 4320, Note_on_c, 1, 65, 0
3, 4324, Note_on_c, 1, 65, 50
3, 4324, Note_on_c, 1, 61, 50
3, 4369, Note_on_c, 1, 61, 0
3, 4369, Note_on_c, 1, 65, 0
3, 4369, Control_c, 1, 11, 46
3, 4383, Note_on_c, 1, 65, 50
3, 4383, Note_on_c, 1, 61, 50
3, 4428, Note_on_c, 1, 61, 0
3, 4428, Note_on_c, 1, 65, 0
3, 4442, Note_on_c, 1, 65, 50
3, 4442, Note_on_c, 1, 61, 50
3, 4479, Control_c, 1, 11, 47
3, 4487, Note_on_c, 1, 61, 0
3, 4487, Note_on_c, 1, 65, 0
3, 4501, Note_on_c, 1, 65, 50
3, 4501, Note_on_c, 1, 61, 50
3, 4546, Note_on_c, 1, 61, 0
3, 4546, Note_on_c, 1, 65, 0
3, 4559, Note_on_c, 1, 65, 50
3, 4559, Note_on_c, 1, 60, 50
3, 4590, Control_c, 1, 11, 48
3, 4604, Note_on_c, 1, 60, 0
3, 4604, Note_on_c, 1, 65, 0
3, 4615, Note_on_c, 1, 65, 50
3, 4615, Note_on_c, 1, 60, 50
3, 4660, Note_on_c, 1, 60, 0
3, 4660, Note_on_c, 1, 65, 0
3, 4671, Note_on_c, 1, 65, 50
3, 4671, Note_on_c, 1, 60, 50
3, 4700, Control_c, 1, 11, 49
3, 4716, Note_on_c, 1, 60, 0
3, 4716, Note_on_c, 1, 65, 0
3, 4727, Note_on_c, 1, 65, 50
3, 4727, Note_on_c, 1, 60, 50
3, 4772, Note_on_c, 1, 60, 0
3, 4772, Note_on_c, 1, 65, 0
3, 4782, Note_on_c, 1, 65, 50
3, 4782, Note_on_c, 1, 60, 50
3, 4810, Control_c, 1, 11, 50
3, 4827, Note_on_c, 1, 65, 0
3, 4836, Note_on_c, 1, 65, 50
3, 4881, Note_on_c, 1, 65, 0
3, 4890, Note_on_c, 1, 65, 50
3, 4920, Control_c, 1, 11, 51
3, 4935, Note_on_c, 1, 65, 0
3, 4944, Note_on_c, 1, 65, 50
3, 4944, Note_on_c, 1, 58, 50
3, 4952, Note_on_c, 1, 60, 0
3, 4989, Note_on_c, 1, 58, 0
3, 4989, Note_on_c, 1, 65, 0
3, 4999, Note_on_c, 1, 65, 50
3, 4999, Note_on_c, 1, 58, 50
3, 5031, Control_c, 1, 11, 52
3, 5044, Note_on_c, 1, 58, 0
3, 5044, Note_on_c, 1, 65, 0
3, 5052, Note_on_c, 1, 65, 50
3, 5052, Note_on_c, 1, 58, 50
3, 5097, Note_on_c, 1, 58, 0
3, 5097, Note_on_c, 1, 65, 0
3, 5105, Note_on_c, 1, 65, 50
3, 5105, Note_on_c, 1, 58, 50
3, 5141, Control_c, 1, 11, 53
3, 5150, Note_on_c, 1, 58, 0
3, 5150, Note_on_c, 1, 65, 0
3, 5158, Note_on_c, 1, 65, 50
3, 5158, Note_on_c, 1, 58, 50
3, 5203, Note_on_c, 1, 58, 0
3, 5203, Note_on_c, 1, 65, 0
3, 5211, Note_on_c, 1, 65, 50
3, 5211, Note_on_c, 1, 58, 50
3, 5251, Control_c, 1, 11, 54
3, 5256, Note_on_c, 1, 58, 0
3, 5256, Note_on_c, 1, 65, 0
3, 5264, Note_on_c, 1, 65, 50
3, 5264, Note_on_c, 1, 58, 50
3, 5309, Note_on_c, 1, 58, 0
3, 5309, Note_on_c, 1, 65, 0
3, 5317, Note_on_c, 1, 65, 50
3, 5317, Note_on_c, 1, 58, 50
3, 5361, Control_c, 1, 11, 55
3, 5362, Note_on_c, 1, 58, 0
3, 5362, Note_on_c, 1, 65, 0
3, 5370, Note_on_c, 1, 65, 50
3, 5370, Note_on_c, 1, 58, 50
3, 5415, Note_on_c, 1, 58, 0
3, 5415, Note_on_c, 1, 65, 0
3, 5425, Note_on_c, 1, 65, 50
3, 5425, Note_on_c, 1, 59, 50
3, 5470, Note_on_c, 1, 59, 0
3, 5470, Note_on_c, 1, 65, 0
3, 5472, Control_c, 1, 11, 56
3, 5481, Note_on_c, 1, 65, 50
3, 5481, Note_on_c, 1, 59, 50
3, 5526, Note_on_c, 1, 59, 0
3, 5526, Note_on_c, 1, 65, 0
3, 5537, Note_on_c, 1, 65, 50
3, 5537, Note_on_c, 1, 59, 50
3, 5582, Note_on_c, 1, 59, 0
3, 5582, Note_on_c, 1, 65, 0
3, 5582, Control_c, 1, 11, 57
3, 5593, Note_on_c, 1, 67, 50
3, 5593, Note_on_c, 1, 58, 50
3, 5638, Note_on_c, 1, 58, 0
3, 5638, Note_on_c, 1, 67, 0
3, 5649, Note_on_c, 1, 68, 50
3, 5649, Note_on_c, 1, 59, 50
3, 5692, Control_c, 1, 11, 58
3, 5694, Note_on_c, 1, 59, 0
3, 5694, Note_on_c, 1, 68, 0
3, 5705, Note_on_c, 1, 64, 50
3, 5705, Note_on_c, 1, 58, 50
3, 5750, Note_on_c, 1, 58, 0
3, 5750, Note_on_c, 1, 64, 0
3, 5761, Note_on_c, 1, 64, 50
3, 5761, Note_on_c, 1, 58, 50
3, 5802, Control_c, 1, 11, 59
3, 5806, Note_on_c, 1, 58, 0
3, 5806, Note_on_c, 1, 64, 0
3, 5817, Note_on_c, 1, 65, 50
3, 5817, Note_on_c, 1, 59, 50
3, 5862, Note_on_c, 1, 59, 0
3, 5862, Note_on_c, 1, 65, 0
3, 5872, Note_on_c, 1, 68, 50
3, 5872, Note_on_c, 1, 60, 50
3, 5913, Control_c, 1, 11, 60
3, 5917, Note_on_c, 1, 60, 0
3, 5917, Note_on_c, 1, 68, 0
3, 5926, Note_on_c, 1, 65, 50
3, 5926, Note_on_c, 1, 56, 50
3, 5971, Note_on_c, 1, 56, 0
3, 5971, Note_on_c, 1, 65, 0
3, 5980, Note_on_c, 1, 65, 50
3, 5980, Note_on_c, 1, 56, 50
3, 6023, Control_c, 1, 11, 61
3, 6025, Note_on_c, 1, 56, 0
3, 6025, Note_on_c, 1, 65, 0
3, 6034, Note_on_c, 1, 67, 50
3, 6034, Note_on_c, 1, 58, 50
3, 6079, Note_on_c, 1, 58, 0
3, 6079, Note_on_c, 1, 67, 0
3, 6089, Note_on_c, 1, 68, 50
3, 6089, Note_on_c, 1, 60, 50
3, 6133, Control_c, 1, 11, 62
3, 6134, Note_on_c, 1, 60, 0
3, 6134, Note_on_c, 1, 68, 0
3, 6143, Note_on_c, 1, 64, 50
3, 6143, Note_on_c, 1, 58, 50
3, 6188, Note_on_c, 1, 58, 0
3, 6188, Note_on_c, 1, 64, 0
3, 6197, Note_on_c, 1, 64, 50
3, 6197, Note_on_c, 1, 58, 50
3, 6242, Note_on_c, 1, 58, 0
3, 6242, Note_on_c, 1, 64, 0
3, 6243, Control_c, 1, 11, 63
3, 6251, Note_on_c, 1, 65, 50
3, 6251, Note_on_c, 1, 56, 50
3, 6296, Note_on_c, 1, 56, 0
3, 6296, Note_on_c, 1, 65, 0
3, 6306, Note_on_c, 1, 65, 50
3, 6306, Note_on_c, 1, 68, 50
3, 6351, Note_on_c, 1, 68, 0
3, 6351, Note_on_c, 1, 65, 0
3, 6354, Control_c, 1, 11, 64
3, 6368, Note_on_c, 1, 65, 55
3, 6368, Note_on_c, 1, 68, 55
3, 6413, Note_on_c, 1, 68, 0
3, 6413, Note_on_c, 1, 65, 0
3, 6422, Note_on_c, 1, 65, 55
3, 6422, Note_on_c, 1, 68, 55
3, 6464, Control_c, 1, 11, 65
3, 6467, Note_on_c, 1, 68, 0
3, 6467, Note_on_c, 1, 65, 0
3, 6476, Note_on_c, 1, 65, 55
3, 6476, Note_on_c, 1, 68, 55
3, 6521, Note_on_c, 1, 68, 0
3, 6521, Note_on_c, 1, 65, 0
3, 6530, Note_on_c, 1, 68, 55
3, 6530, Note_on_c, 1, 59, 55
3, 6574, Control_c, 1, 11, 66
3, 6575, Note_on_c, 1, 59, 0
3, 6575, Note_on_c, 1, 68, 0
3, 6581, Note_on_c, 1, 67, 60
3, 6581, Note_on_c, 1, 59, 60
3, 6626, Note_on_c, 1, 59, 0
3, 6626, Note_on_c, 1, 67, 0
3, 6635, Note_on_c, 1, 67, 60
3, 6635, Note_on_c, 1, 59, 60
3, 6680, Note_on_c, 1, 59, 0
3, 6680, Note_on_c, 1, 67, 0
3, 6684, Control_c, 1, 11, 67
3, 6690, Note_on_c, 1, 68, 60
3, 6690, Note_on_c, 1, 59, 60
3, 6735, Note_on_c, 1, 59, 0
3, 6735, Note_on_c, 1, 68, 0
3, 6746, Note_on_c, 1, 68, 60
3, 6746, Note_on_c, 1, 60, 60
3, 6791, Note_on_c, 1, 60, 0
3, 6791, Note_on_c, 1, 68, 0
3, 6795, Control_c, 1, 11, 68
3, 6800, Note_on_c, 1, 68, 60
3, 6800, Note_on_c, 1, 60, 60
3, 6845, Note_on_c, 1, 60, 0
3, 6845, Note_on_c, 1, 68, 0
3, 6856, Note_on_c, 1, 63, 60
3, 6856, Note_on_c, 1, 60, 60
3, 6901, Note_on_c, 1, 60, 0
3, 6901, Note_on_c, 1, 63, 0
3, 6905, Control_c, 1, 11, 69
3, 6912, Note_on_c, 1, 63, 60
3, 6912, Note_on_c, 1, 60, 60
3, 6957, Note_on_c, 1, 60, 0
3, 6957, Note_on_c, 1, 63, 0
3, 6965, Note_on_c, 1, 67, 60
3, 6965, Note_on_c, 1, 58, 60
3, 7010, Note_on_c, 1, 58, 0
3, 7010, Note_on_c, 1, 67, 0
3, 7015, Control_c, 1, 11, 70
3, 7016, Note_on_c, 1, 67, 60
3, 7016, Note_on_c, 1, 58, 60
3, 7061, Note_on_c, 1, 58, 0
3, 7061, Note_on_c, 1, 67, 0
3, 7072, Note_on_c, 1, 67, 60
3, 7072, Note_on_c, 1, 58, 60
3, 7117, Note_on_c, 1, 58, 0
3, 7117, Note_on_c, 1, 67, 0
3, 7125, Control_c, 1, 11, 71
3, 7128, Note_on_c, 1, 67, 60
3, 7128, Note_on_c, 1, 58, 60
3, 7173, Note_on_c, 1, 58, 0
3, 7173, Note_on_c, 1, 67, 0
3, 7185, Note_on_c, 1, 68, 60
3, 7185, Note_on_c, 1, 56, 60
3, 7230, Note_on_c, 1, 56, 0
3, 7230, Note_on_c, 1, 68, 0
3, 7236, Control_c, 1, 11, 72
3, 7237, Note_on_c, 1, 68, 60
3, 7237, Note_on_c, 1, 56, 60
3, 7282, Note_on_c, 1, 56, 0
3, 7282, Note_on_c, 1, 68, 0
3, 7290, Note_on_c, 1, 66, 60
3, 7290, Note_on_c, 1, 57, 60
3, 7335, Note_on_c, 1, 57, 0
3, 7335, Note_on_c, 1, 66, 0
3, 7341, Note_on_c, 1, 66, 60
3, 7341, Note_on_c, 1, 57, 60
3, 7346, Control_c, 1, 11, 73
3, 7386, Note_on_c, 1, 57, 0
3, 7386, Note_on_c, 1, 66, 0
3, 7398, Note_on_c, 1, 65, 65
3, 7398, Note_on_c, 1, 58, 65
3, 7443, Note_on_c, 1, 58, 0
3, 7443, Note_on_c, 1, 65, 0
3, 7453, Note_on_c, 1, 65, 65
3, 7453, Note_on_c, 1, 58, 65
3, 7456, Control_c, 1, 11, 74
3, 7498, Note_on_c, 1, 58, 0
3, 7498, Note_on_c, 1, 65, 0
3, 7508, Note_on_c, 1, 67, 65
3, 7508, Note_on_c, 1, 64, 65
3, 7553, Note_on_c, 1, 64, 0
3, 7553, Note_on_c, 1, 67, 0
3, 7564, Note_on_c, 1, 67, 65
3, 7564, Note_on_c, 1, 64, 65
3, 7566, Control_c, 1, 11, 75
3, 7609, Note_on_c, 1, 64, 0
3, 7609, Note_on_c, 1, 67, 0
3, 7620, Note_on_c, 1, 68, 70
3, 7620, Note_on_c, 1, 63, 70
3, 7665, Note_on_c, 1, 63, 0
3, 7665, Note_on_c, 1, 68, 0
3, 7676, Note_on_c, 1, 68, 70
3, 7676, Note_on_c, 1, 63, 70
3, 7677, Control_c, 1, 11, 76
3, 7721, Note_on_c, 1, 63, 0
3, 7721, Note_on_c, 1, 68, 0
3, 7732, Note_on_c, 1, 68, 70
3, 7732, Note_on_c, 1, 63, 70
3, 7777, Note_on_c, 1, 63, 0
3, 7777, Note_on_c, 1, 68, 0
3, 7782, Note_on_c, 1, 68, 70
3, 7782, Note_on_c, 1, 63, 70
3, 7787, Control_c, 1, 11, 77
3, 7827, Note_on_c, 1, 63, 0
3, 7827, Note_on_c, 1, 68, 0
3, 7838, Note_on_c, 1, 67, 70
3, 7838, Note_on_c, 1, 61, 70
3, 7883, Note_on_c, 1, 61, 0
3, 7883, Note_on_c, 1, 67, 0
3, 7895, Note_on_c, 1, 67, 70
3, 7895, Note_on_c, 1, 61, 70
3, 7897, Control_c, 1, 11, 78
3, 7940, Note_on_c, 1, 61, 0
3, 7940, Note_on_c, 1, 67, 0
3, 7952, Note_on_c, 1, 67, 70
3, 7952, Note_on_c, 1, 61, 70
3, 7997, Note_on_c, 1, 61, 0
3, 7997, Note_on_c, 1, 67, 0
3, 8004, Note_on_c, 1, 65, 70
3, 8004, Note_on_c, 1, 61, 70
3, 8007, Control_c, 1, 11, 79
3, 8049, Note_on_c, 1, 61, 0
3, 8049, Note_on_c, 1, 65, 0
3, 8057, Note_on_c, 1, 64, 70
3, 8057, Note_on_c, 1, 58, 70
3, 8102, Note_on_c, 1, 58, 0
3, 8102, Note_on_c, 1, 64, 0
3, 8118, Control_c, 1, 11, 80
3, 8118, Note_on_c, 1, 67, 80
3, 8139, Control_c, 1, 11, 79
3, 8140, Note_on_c, 1, 67, 0
3, 8144, Note_on_c, 1, 67, 60
3, 8160, Control_c, 1, 11, 78
3, 8166, Note_on_c, 1, 67, 0
3, 8170, Note_on_c, 1, 67, 60
3, 8181, Control_c, 1, 11, 77
3, 8192, Note_on_c, 1, 67, 0
3, 8196, Note_on_c, 1, 67, 60
3, 8203, Control_c, 1, 11, 76
3, 8218, Note_on_c, 1, 67, 0
3, 8223, Note_on_c, 1, 68, 60
3, 8224, Control_c, 1, 11, 75
3, 8245, Note_on_c, 1, 68, 0
3, 8245, Control_c, 1, 11, 74
3, 8250, Note_on_c, 1, 68, 60
3, 8267, Control_c, 1, 11, 73
3, 8272, Note_on_c, 1, 68, 0
3, 8278, Note_on_c, 1, 73, 60
3, 8288, Control_c, 1, 11, 72
3, 8298, Note_on_c, 1, 73, 0
3, 8301, Note_on_c, 1, 73, 60
3, 8309, Control_c, 1, 11, 71
3, 8321, Note_on_c, 1, 73, 0
3, 8329, Note_on_c, 1, 72, 60
3, 8331, Control_c, 1, 11, 70
3, 8351, Note_on_c, 1, 72, 0
3, 8352, Control_c, 1, 11, 69
3, 8356, Note_on_c, 1, 72, 60
3, 8373, Control_c, 1, 11, 68
3, 8378, Note_on_c, 1, 72, 0
3, 8384, Note_on_c, 1, 73, 60
3, 8394, Control_c, 1, 11, 67
3, 8406, Note_on_c, 1, 73, 0
3, 8409, Note_on_c, 1, 73, 60
3, 8416, Control_c, 1, 11, 66
3, 8431, Note_on_c, 1, 73, 0
3, 8434, Note_on_c, 1, 74, 60
3, 8437, Control_c, 1, 11, 65
3, 8456, Note_on_c, 1, 74, 0
3, 8458, Control_c, 1, 11, 64
3, 8459, Note_on_c, 1, 74, 60
3, 8480, Control_c, 1, 11, 63
3, 8481, Note_on_c, 1, 74, 0
3, 8484, Note_on_c, 1, 72, 60
3, 8501, Control_c, 1, 11, 62
3, 8506, Note_on_c, 1, 72, 0
3, 8514, Note_on_c, 1, 72, 60
3, 8522, Control_c, 1, 11, 61
3, 8536, Note_on_c, 1, 72, 0
3, 8544, Control_c, 1, 11, 60
3, 8544, Note_on_c, 1, 70, 80
3, 8565, Control_c, 1, 11, 61
3, 8566, Note_on_c, 1, 70, 0
3, 8571, Note_on_c, 1, 70, 60
3, 8587, Control_c, 1, 11, 62
3, 8593, Note_on_c, 1, 70, 0
3, 8598, Note_on_c, 1, 70, 60
3, 8608, Control_c, 1, 11, 63
3, 8620, Note_on_c, 1, 70, 0
3, 8624, Note_on_c, 1, 70, 60
3, 8630, Control_c, 1, 11, 64
3, 8646, Note_on_c, 1, 70, 0
3, 8650, Note_on_c, 1, 72, 60
3, 8651, Control_c, 1, 11, 65
3, 8672, Note_on_c, 1, 72, 0
3, 8673, Control_c, 1, 11, 66
3, 8679, Note_on_c, 1, 72, 60
3, 8694, Control_c, 1, 11, 67
3, 8701, Note_on_c, 1, 72, 0
3, 8708, Note_on_c, 1, 73, 60
3, 8716, Control_c, 1, 11, 68
3, 8730, Note_on_c, 1, 73, 0
3, 8734, Note_on_c, 1, 73, 60
3, 8737, Control_c, 1, 11, 69
3, 8756, Note_on_c, 1, 73, 0
3, 8759, Control_c, 1, 11, 70
3, 8759, Note_on_c, 1, 72, 60
3, 8780, Control_c, 1, 11, 71
3, 8781, Note_on_c, 1, 72, 0
3, 8784, Note_on_c, 1, 72, 60
3, 8802, Control_c, 1, 11, 72
3, 8806, Note_on_c, 1, 72, 0
3, 8813, Note_on_c, 1, 73, 60
3, 8823, Control_c, 1, 11, 73
3, 8835, Note_on_c, 1, 73, 0
3, 8838, Note_on_c, 1, 73, 60
3, 8845, Control_c, 1, 11, 74
3, 8860, Note_on_c, 1, 73, 0
3, 8863, Note_on_c, 1, 73, 60
3, 8866, Control_c, 1, 11, 75
3, 8885, Note_on_c, 1, 73, 0
3, 8888, Control_c, 1, 11, 76
3, 8890, Note_on_c, 1, 73, 60
3, 8909, Control_c, 1, 11, 77
3, 8912, Note_on_c, 1, 73, 0
3, 8918, Note_on_c, 1, 73, 60
3, 8931, Control_c, 1, 11, 78
3, 8940, Note_on_c, 1, 73, 0
3, 8946, Note_on_c, 1, 73, 60
3, 8952, Control_c, 1, 11, 79
3, 8968, Note_on_c, 1, 73, 0
3, 8974, Control_c, 1, 11, 80
3, 8974, Note_on_c, 1, 67, 80
3, 8989, Control_c, 1, 11, 79
3, 8996, Note_on_c, 1, 67, 0
3, 9002, Note_on_c, 1, 67, 60
3, 9005, Control_c, 1, 11, 78
3, 9021, Control_c, 1, 11, 77
3, 9024, Note_on_c, 1, 67, 0
3, 9030, Note_on_c, 1, 67, 60
3, 9037, Control_c, 1, 11, 76
3, 9052, Note_on_c, 1, 67, 0
3, 9053, Control_c, 1, 11, 75
3, 9057, Note_on_c, 1, 67, 60
3, 9069, Control_c, 1, 11, 74
3, 9079, Note_on_c, 1, 67, 0
3, 9085, Control_c, 1, 11, 73
3, 9088, Note_on_c, 1, 68, 60
3, 9101, Control_c, 1, 11, 72
3, 9110, Note_on_c, 1, 68, 0
3, 9116, Note_on_c, 1, 68, 60
3, 9117, Control_c, 1, 11, 71
3, 9133, Control_c, 1, 11, 70
3, 9138, Note_on_c, 1, 68, 0
3, 9145, Note_on_c, 1, 73, 60
3, 9148, Control_c, 1, 11, 69
3, 9164, Control_c, 1, 11, 68
3, 9167, Note_on_c, 1, 73, 0
3, 9169, Note_on_c, 1, 73, 60
3, 9180, Control_c, 1, 11, 67
3, 9191, Note_on_c, 1, 73, 0
3, 9193, Note_on_c, 1, 72, 60
3, 9196, Control_c, 1, 11, 66
3, 9212, Control_c, 1, 11, 65
3, 9215, Note_on_c, 1, 72, 0
3, 9218, Note_on_c, 1, 72, 60
3, 9228, Control_c, 1, 11, 64
3, 9240, Note_on_c, 1, 72, 0
3, 9244, Control_c, 1, 11, 63
3, 9244, Note_on_c, 1, 72, 60
3, 9260, Control_c, 1, 11, 62
3, 9266, Note_on_c, 1, 72, 0
3, 9268, Note_on_c, 1, 72, 60
3, 9276, Control_c, 1, 11, 61
3, 9290, Note_on_c, 1, 72, 0
3, 9292, Control_c, 1, 11, 60
3, 9292, Note_on_c, 1, 72, 60
3, 9297, Control_c, 1, 11, 61
3, 9303, Control_c, 1, 11, 62
3, 9308, Control_c, 1, 11, 63
3, 9314, Note_on_c, 1, 72, 0
3, 9314, Control_c, 1, 11, 64
3, 9320, Control_c, 1, 11, 65
3, 9321, Note_on_c, 1, 72, 60
3, 9325, Control_c, 1, 11, 66
3, 9331, Control_c, 1, 11, 67
3, 9336, Control_c, 1, 11, 68
3, 9342, Control_c, 1, 11, 69
3, 9343, Note_on_c, 1, 72, 0
3, 9348, Control_c, 1, 11, 70
3, 9348, Note_on_c, 1, 72, 60
3, 9353, Control_c, 1, 11, 71
3, 9359, Control_c, 1, 11, 72
3, 9364, Control_c, 1, 11, 73
3, 9370, Note_on_c, 1, 72, 0
3, 9370, Control_c, 1, 11, 74
3, 9376, Control_c, 1, 11, 75
3, 9376, Note_on_c, 1, 72, 60
3, 9381, Control_c, 1, 11, 76
3, 9387, Control_c, 1, 11, 77
3, 9392, Control_c, 1, 11, 78
3, 9398, Note_on_c, 1, 72, 0
3, 9398, Control_c, 1, 11, 79
3, 9404, Control_c, 1, 11, 80
3, 9404, Note_on_c, 1, 72, 80
3, 9424, Control_c, 1, 11, 79
3, 9426, Note_on_c, 1, 72, 0
3, 9432, Note_on_c, 1, 72, 60
3, 9445, Control_c, 1, 11, 78
3, 9454, Note_on_c, 1, 72, 0
3, 9460, Note_on_c, 1, 72, 60
3, 9466, Control_c, 1, 11, 77
3, 9482, Note_on_c, 1, 72, 0
3, 9486, Control_c, 1, 11, 76
3, 9488, Note_on_c, 1, 72, 60
3, 9507, Control_c, 1, 11, 75
3, 9510, Note_on_c, 1, 72, 0
3, 9516, Note_on_c, 1, 73, 60
3, 9528, Control_c, 1, 11, 74
3, 9538, Note_on_c, 1, 73, 0
3, 9541, Note_on_c, 1, 73, 60
3, 9549, Control_c, 1, 11, 73
3, 9563, Note_on_c, 1, 73, 0
3, 9567, Note_on_c, 1, 78, 60
3, 9569, Control_c, 1, 11, 72
3, 9589, Note_on_c, 1, 78, 0
3, 9590, Control_c, 1, 11, 71
3, 9591, Note_on_c, 1, 78, 60
3, 9611, Control_c, 1, 11, 70
3, 9613, Note_on_c, 1, 78, 0
3, 9615, Note_on_c, 1, 77, 60
3, 9632, Control_c, 1, 11, 69
3, 9637, Note_on_c, 1, 77, 0
3, 9640, Note_on_c, 1, 77, 60
3, 9652, Control_c, 1, 11, 68
3, 9662, Note_on_c, 1, 77, 0
3, 9665, Note_on_c, 1, 77, 60
3, 9673, Control_c, 1, 11, 67
3, 9687, Note_on_c, 1, 77, 0
3, 9690, Note_on_c, 1, 77, 60
3, 9694, Control_c, 1, 11, 66
3, 9712, Note_on_c, 1, 77, 0
3, 9715, Control_c, 1, 11, 65
3, 9715, Note_on_c, 1, 77, 60
3, 9737, Note_on_c, 1, 77, 0
3, 9742, Note_on_c, 1, 77, 60
3, 9764, Note_on_c, 1, 77, 0
3, 9770, Note_on_c, 1, 78, 60
3, 9792, Note_on_c, 1, 78, 0
3, 9800, Note_on_c, 1, 78, 60
3, 9822, Note_on_c, 1, 78, 0
3, 9829, Note_on_c, 1, 66, 80
3, 9851, Note_on_c, 1, 66, 0
3, 9856, Note_on_c, 1, 66, 60
3, 9878, Note_on_c, 1, 66, 0
3, 9883, Note_on_c, 1, 66, 60
3, 9905, Note_on_c, 1, 66, 0
3, 9910, Note_on_c, 1, 66, 60
3, 9932, Note_on_c, 1, 66, 0
3, 9940, Note_on_c, 1, 66, 60
3, 9962, Note_on_c, 1, 66, 0
3, 9968, Note_on_c, 1, 66, 60
3, 9990, Note_on_c, 1, 66, 0
3, 9997, Note_on_c, 1, 67, 60
3, 10019, Note_on_c, 1, 67, 0
3, 10024, Note_on_c, 1, 67, 60
3, 10046, Note_on_c, 1, 67, 0
3, 10051, Note_on_c, 1, 67, 60
3, 10073, Note_on_c, 1, 67, 0
3, 10078, Note_on_c, 1, 67, 60
3, 10100, Note_on_c, 1, 67, 0
3, 10107, Note_on_c, 1, 65, 60
3, 10129, Note_on_c, 1, 65, 0
3, 10133, Note_on_c, 1, 65, 60
3, 10155, Note_on_c, 1, 65, 0
3, 10159, Note_on_c, 1, 65, 60
3, 10181, Note_on_c, 1, 65, 0
3, 10185, Note_on_c, 1, 65, 60
3, 10207, Note_on_c, 1, 65, 0
3, 10212, Note_on_c, 1, 65, 60
3, 10234, Note_on_c, 1, 65, 0
3, 10240, Note_on_c, 1, 65, 60
3, 10262, Note_on_c, 1, 65, 0
3, 10268, Note_on_c, 1, 65, 80
3, 10290, Note_on_c, 1, 65, 0
3, 10294, Note_on_c, 1, 65, 60
3, 10316, Note_on_c, 1, 65, 0
3, 10320, Note_on_c, 1, 65, 60
3, 10342, Note_on_c, 1, 65, 0
3, 10346, Note_on_c, 1, 65, 60
3, 10368, Note_on_c, 1, 65, 0
3, 10373, Note_on_c, 1, 65, 60
3, 10395, Note_on_c, 1, 65, 0
3, 10401, Note_on_c, 1, 65, 60
3, 10423, Note_on_c, 1, 65, 0
3, 10429, Note_on_c, 1, 65, 60
3, 10451, Note_on_c, 1, 65, 0
3, 10455, Note_on_c, 1, 65, 60
3, 10477, Note_on_c, 1, 65, 0
3, 10481, Note_on_c, 1, 65, 60
3, 10503, Note_on_c, 1, 65, 0
3, 10507, Note_on_c, 1, 65, 60
3, 10529, Note_on_c, 1, 65, 0
3, 10533, Note_on_c, 1, 63, 60
3, 10555, Note_on_c, 1, 63, 0
3, 10560, Note_on_c, 1, 63, 60
3, 10582, Note_on_c, 1, 63, 0
3, 10587, Note_on_c, 1, 63, 60
3, 10609, Note_on_c, 1, 63, 0
3, 10614, Note_on_c, 1, 63, 60
3, 10636, Note_on_c, 1, 63, 0
3, 10642, Note_on_c, 1, 63, 60
3, 10664, Note_on_c, 1, 63, 0
3, 10671, Note_on_c, 1, 63, 60
3, 10693, Note_on_c, 1, 63, 0
3, 10700, Note_on_c, 1, 63, 80
3, 10722, Note_on_c, 1, 63, 0
3, 10726, Note_on_c, 1, 63, 60
3, 10748, Note_on_c, 1, 63, 0
3, 10752, Note_on_c, 1, 63, 60
3, 10774, Note_on_c, 1, 63, 0
3, 10778, Note_on_c, 1, 63, 60
3, 10800, Note_on_c, 1, 63, 0
3, 10805, Note_on_c, 1, 65, 60
3, 10827, Note_on_c, 1, 65, 0
3, 10832, Note_on_c, 1, 65, 60
3, 10854, Note_on_c, 1, 65, 0
3, 10859, Note_on_c, 1, 66, 60
3, 10881, Note_on_c, 1, 66, 0
3, 10886, Note_on_c, 1, 66, 60
3, 10908, Note_on_c, 1, 66, 0
3, 10913, Note_on_c, 1, 66, 60
3, 10935, Note_on_c, 1, 66, 0
3, 10940, Note_on_c, 1, 66, 60
3, 10962, Note_on_c, 1, 66, 0
3, 10968, Note_on_c, 1, 60, 60
3, 10990, Note_on_c, 1, 60, 0
3, 10995, Note_on_c, 1, 60, 60
3, 11017, Note_on_c, 1, 60, 0
3, 11022, Note_on_c, 1, 60, 60
3, 11044, Note_on_c, 1, 60, 0
3, 11049, Note_on_c, 1, 60, 60
3, 11071, Note_on_c, 1, 60, 0
3, 11076, Note_on_c, 1, 65, 60
3, 11098, Note_on_c, 1, 65, 0
3, 11103, Note_on_c, 1, 65, 60
3, 11125, Note_on_c, 1, 65, 0
3, 11130, Note_on_c, 1, 65, 60
3, 11152, Note_on_c, 1, 65, 0
3, 11157, Note_on_c, 1, 65, 60
3, 11179, Note_on_c, 1, 65, 0
3, 11186, Note_on_c, 1, 65, 80
3, 11208, Note_on_c, 1, 65, 0
3, 11210, Note_on_c, 1, 65, 60
3, 11232, Note_on_c, 1, 65, 0
3, 11234, Note_on_c, 1, 65, 60
3, 11256, Note_on_c, 1, 65, 0
3, 11258, Note_on_c, 1, 65, 60
3, 11280, Note_on_c, 1, 65, 0
3, 11282, Note_on_c, 1, 65, 60
3, 11304, Note_on_c, 1, 65, 0
3, 11306, Note_on_c, 1, 65, 60
3, 11328, Note_on_c, 1, 65, 0
3, 11330, Note_on_c, 1, 65, 60
3, 11352, Note_on_c, 1, 65, 0
3, 11354, Note_on_c, 1, 65, 60
3, 11376, Note_on_c, 1, 65, 0
3, 11384, Note_on_c, 1, 65, 60
3, 11406, Note_on_c, 1, 65, 0
3, 11412, Note_on_c, 1, 65, 60
3, 11434, Note_on_c, 1, 65, 0
3, 11440, Note_on_c, 1, 65, 60
3, 11462, Note_on_c, 1, 65, 0
3, 11468, Note_on_c, 1, 65, 60
3, 11490, Note_on_c, 1, 65, 0
3, 11499, Note_on_c, 1, 67, 60
3, 11520, Control_c, 1, 11, 50
3, 11548, Note_on_c, 1, 67, 0
3, 11557, Note_on_c, 1, 67, 60
3, 11602, Note_on_c, 1, 67, 0
3, 11617, Note_on_c, 1, 67, 60
3, 11662, Note_on_c, 1, 67, 0
3, 11670, Note_on_c, 1, 67, 60
3, 11715, Note_on_c, 1, 67, 0
3, 11723, Note_on_c, 1, 67, 60
3, 11768, Note_on_c, 1, 67, 0
3, 11776, Note_on_c, 1, 67, 60
3, 11821, Note_on_c, 1, 67, 0
3, 11830, Note_on_c, 1, 67, 65
3, 11875, Note_on_c, 1, 67, 0
3, 11882, Note_on_c, 1, 67, 65
3, 11927, Note_on_c, 1, 67, 0
3, 12003, Note_on_c, 1, 68, 65
3, 12048, Note_on_c, 1, 68, 0
3, 12066, Note_on_c, 1, 68, 65
3, 12111, Note_on_c, 1, 68, 0
3, 12126, Note_on_c, 1, 68, 65
3, 12171, Note_on_c, 1, 68, 0
3, 12186, Note_on_c, 1, 68, 65
3, 12231, Note_on_c, 1, 68, 0
3, 12246, Note_on_c, 1, 68, 65
3, 12291, Note_on_c, 1, 68, 0
3, 12297, Note_on_c, 1, 68, 65
3, 12342, Note_on_c, 1, 68, 0
3, 12350, Note_on_c, 1, 68, 65
3, 12395, Note_on_c, 1, 68, 0
3, 12463, Note_on_c, 1, 67, 70
3, 12508, Note_on_c, 1, 67, 0
3, 12520, Note_on_c, 1, 67, 70
3, 12565, Note_on_c, 1, 67, 0
3, 12574, Note_on_c, 1, 67, 70
3, 12619, Note_on_c, 1, 67, 0
3, 12628, Note_on_c, 1, 67, 70
3, 12673, Note_on_c, 1, 67, 0
3, 12684, Note_on_c, 1, 67, 70
3, 12729, Note_on_c, 1, 67, 0
3, 12735, Note_on_c, 1, 67, 70
3, 12780, Note_on_c, 1, 67, 0
3, 12789, Note_on_c, 1, 67, 70
3, 12834, Note_on_c, 1, 67, 0
3, 12847, Note_on_c, 1, 65, 80
3, 12947, Note_on_c, 1, 65, 0
3, 12970, Note_on_c, 1, 65, 90
3, 13095, Note_on_c, 1, 65, 0
3, 13200, Control_c, 1, 11, 50
3, 13319, Note_on_c, 1, 70, 50
3, 13873, Note_on_c, 1, 61, 60
3, 13879, Note_on_c, 1, 70, 0
3, 14039, Note_on_c, 1, 61, 0
3, 14040, Note_on_c, 1, 63, 50
3, 14094, Note_on_c, 1, 61, 50
3, 14100, Note_on_c, 1, 63, 0
3, 14209, Note_on_c, 1, 55, 50
3, 14214, Note_on_c, 1, 61, 0
3, 14322, Note_on_c, 1, 58, 60
3, 14329, Note_on_c, 1, 55, 0
3, 14492, Note_on_c, 1, 58, 0
3, 14654, Note_on_c, 1, 58, 50
3, 14744, Note_on_c, 1, 58, 0
3, 14763, Note_on_c, 1, 58, 60
3, 14973, Note_on_c, 1, 58, 0
3, 14976, Note_on_c, 1, 55, 60
3, 15066, Note_on_c, 1, 55, 0
3, 15360, Control_c, 1, 11, 70
3, 15408, Note_on_c, 1, 60, 80
3, 15488, Note_on_c, 1, 60, 0
3, 15518, Note_on_c, 1, 60, 80
3, 15638, Note_on_c, 1, 60, 0
3, 19320, Control_c, 1, 11, 50
3, 19397, Note_on_c, 1, 51, 50
3, 19512, Note_on_c, 1, 53, 50
3, 19515, Note_on_c, 1, 51, 0
3, 19628, Note_on_c, 1, 55, 50
3, 19630, Note_on_c, 1, 53, 0
3, 19748, Note_on_c, 1, 55, 0
3, 19753, Note_on_c, 1, 56, 50
3, 19853, Note_on_c, 1, 56, 0
3, 19867, Note_on_c, 1, 60, 50
3, 19967, Note_on_c, 1, 60, 0
3, 19978, Note_on_c, 1, 61, 60
3, 20208, Note_on_c, 1, 61, 0
3, 20218, Note_on_c, 1, 60, 50
3, 20308, Note_on_c, 1, 60, 0
3, 20329, Note_on_c, 1, 60, 50
3, 20419, Note_on_c, 1, 60, 0
3, 20452, Note_on_c, 1, 61, 50
3, 20542, Note_on_c, 1, 61, 0
3, 20563, Note_on_c, 1, 61, 50
3, 20653, Note_on_c, 1, 61, 0
3, 20679, Note_on_c, 1, 60, 50
3, 20769, Note_on_c, 1, 60, 0
3, 20790, Note_on_c, 1, 63, 50
3, 20846, Note_on_c, 1, 65, 50
3, 20850, Note_on_c, 1, 63, 0
3, 20902, Note_on_c, 1, 67, 50
3, 20906, Note_on_c, 1, 65, 0
3, 21014, Note_on_c, 1, 68, 50
3, 21017, Note_on_c, 1, 67, 0
3, 21126, Note_on_c, 1, 67, 50
3, 21129, Note_on_c, 1, 68, 0
3, 21241, Note_on_c, 1, 67, 0
3, 21354, Note_on_c, 1, 60, 50
3, 21404, Note_on_c, 1, 60, 0
3, 21407, Note_on_c, 1, 60, 50
3, 21457, Note_on_c, 1, 60, 0
3, 21461, Note_on_c, 1, 60, 50
3, 21511, Note_on_c, 1, 60, 0
3, 21514, Note_on_c, 1, 60, 50
3, 21564, Note_on_c, 1, 60, 0
3, 21694, Note_on_c, 1, 58, 50
3, 21744, Note_on_c, 1, 58, 0
3, 21746, Note_on_c, 1, 58, 50
3, 21796, Note_on_c, 1, 58, 0
3, 21801, Note_on_c, 1, 58, 50
3, 21851, Note_on_c, 1, 58, 0
3, 21855, Note_on_c, 1, 58, 50
3, 21905, Note_on_c, 1, 58, 0
3, 21911, Note_on_c, 1, 60, 50
3, 21961, Note_on_c, 1, 60, 0
3, 21965, Note_on_c, 1, 60, 50
3, 22015, Note_on_c, 1, 60, 0
3, 22021, Note_on_c, 1, 56, 50
3, 22071, Note_on_c, 1, 56, 0
3, 22075, Note_on_c, 1, 56, 50
3, 22125, Note_on_c, 1, 56, 0
3, 22131, Note_on_c, 1, 58, 50
3, 22181, Note_on_c, 1, 58, 0
3, 22187, Note_on_c, 1, 58, 50
3, 22237, Note_on_c, 1, 58, 0
3, 22245, Note_on_c, 1, 58, 50
3, 22335, Note_on_c, 1, 58, 0
3, 24480, Control_c, 1, 11, 50
3, 24546, Note_on_c, 1, 63, 50
3, 24649, Note_on_c, 1, 65, 50
3, 24656, Note_on_c, 1, 63, 0
3, 24759, Note_on_c, 1, 65, 0
3, 24764, Note_on_c, 1, 61, 50
3, 24871, Note_on_c, 1, 63, 50
3, 24874, Note_on_c, 1, 61, 0
3, 24971, Note_on_c, 1, 63, 0
3, 24983, Note_on_c, 1, 70, 60
3, 25095, Note_on_c, 1, 68, 50
3, 25103, Note_on_c, 1, 70, 0
3, 25175, Note_on_c, 1, 68, 0
3, 25203, Note_on_c, 1, 70, 60
3, 25318, Note_on_c, 1, 68, 60
3, 25323, Note_on_c, 1, 70, 0
3, 25398, Note_on_c, 1, 68, 0
3, 25428, Control_c, 1, 11, 60
3, 25428, Note_on_c, 1, 63, 60
3, 25466, Control_c, 1, 11, 61
3, 25505, Control_c, 1, 11, 62
3, 25508, Note_on_c, 1, 63, 0
3, 25509, Note_on_c, 1, 63, 60
3, 25539, Note_on_c, 1, 63, 0
3, 25542, Note_on_c, 1, 65, 60
3, 25543, Control_c, 1, 11, 63
3, 25582, Control_c, 1, 11, 64
3, 25620, Control_c, 1, 11, 65
3, 25649, Note_on_c, 1, 61, 60
3, 25652, Note_on_c, 1, 65, 0
3, 25659, Control_c, 1, 11, 66
3, 25697, Control_c, 1, 11, 67
3, 25736, Control_c, 1, 11, 68
3, 25738, Note_on_c, 1, 61, 0
3, 25761, Note_on_c, 1, 60, 50
3, 25774, Control_c, 1, 11, 69
3, 25801, Note_on_c, 1, 60, 0
3, 25813, Control_c, 1, 11, 70
3, 25817, Note_on_c, 1, 60, 50
3, 25852, Control_c, 1, 11, 71
3, 25857, Note_on_c, 1, 60, 0
3, 25874, Note_on_c, 1, 60, 50
3, 25890, Control_c, 1, 11, 72
3, 25914, Note_on_c, 1, 60, 0
3, 25925, Note_on_c, 1, 60, 50
3, 25929, Control_c, 1, 11, 73
3, 25965, Note_on_c, 1, 60, 0
3, 25967, Control_c, 1, 11, 74
3, 25988, Note_on_c, 1, 57, 50
3, 26006, Control_c, 1, 11, 75
3, 26028, Note_on_c, 1, 57, 0
3, 26039, Note_on_c, 1, 57, 50
3, 26044, Control_c, 1, 11, 76
3, 26079, Note_on_c, 1, 57, 0
3, 26083, Control_c, 1, 11, 77
3, 26091, Note_on_c, 1, 57, 50
3, 26121, Control_c, 1, 11, 78
3, 26131, Note_on_c, 1, 57, 0
3, 26141, Note_on_c, 1, 57, 50
3, 26160, Control_c, 1, 11, 79
3, 26181, Note_on_c, 1, 57, 0
3, 26199, Control_c, 1, 11, 80
3, 26199, Note_on_c, 1, 58, 50
3, 26221, Control_c, 1, 11, 79
3, 26239, Note_on_c, 1, 58, 0
3, 26244, Control_c, 1, 11, 78
3, 26253, Note_on_c, 1, 58, 50
3, 26267, Control_c, 1, 11, 77
3, 26289, Control_c, 1, 11, 76
3, 26293, Note_on_c, 1, 58, 0
3, 26307, Note_on_c, 1, 58, 50
3, 26312, Control_c, 1, 11, 75
3, 26335, Control_c, 1, 11, 74
3, 26347, Note_on_c, 1, 58, 0
3, 26357, Control_c, 1, 11, 73
3, 26362, Note_on_c, 1, 58, 50
3, 26380, Control_c, 1, 11, 72
3, 26402, Note_on_c, 1, 58, 0
3, 26403, Control_c, 1, 11, 71
3, 26419, Note_on_c, 1, 56, 50
3, 26426, Control_c, 1, 11, 70
3, 26448, Control_c, 1, 11, 69
3, 26459, Note_on_c, 1, 56, 0
3, 26471, Control_c, 1, 11, 68
3, 26474, Note_on_c, 1, 56, 50
3, 26494, Control_c, 1, 11, 67
3, 26514, Note_on_c, 1, 56, 0
3, 26516, Control_c, 1, 11, 66
3, 26529, Note_on_c, 1, 56, 50
3, 26539, Control_c, 1, 11, 65
3, 26562, Control_c, 1, 11, 64
3, 26569, Note_on_c, 1, 56, 0
3, 26584, Control_c, 1, 11, 63
3, 26584, Note_on_c, 1, 56, 50
3, 26607, Control_c, 1, 11, 62
3, 26624, Note_on_c, 1, 56, 0
3, 26630, Control_c, 1, 11, 61
3, 26653, Control_c, 1, 11, 60
3, 26653, Note_on_c, 1, 56, 50
3, 26693, Note_on_c, 1, 56, 0
3, 26695, Control_c, 1, 11, 61
3, 26708, Note_on_c, 1, 56, 50
3, 26738, Control_c, 1, 11, 62
3, 26748, Note_on_c, 1, 56, 0
3, 26762, Note_on_c, 1, 56, 50
3, 26781, Control_c, 1, 11, 63
3, 26802, Note_on_c, 1, 56, 0
3, 26815, Note_on_c, 1, 56, 50
3, 26824, Control_c, 1, 11, 64
3, 26855, Note_on_c, 1, 56, 0
3, 26867, Control_c, 1, 11, 65
3, 26869, Note_on_c, 1, 55, 50
3, 26909, Note_on_c, 1, 55, 0
3, 26909, Control_c, 1, 11, 66
3, 26924, Note_on_c, 1, 55, 50
3, 26952, Control_c, 1, 11, 67
3, 26964, Note_on_c, 1, 55, 0
3, 26977, Note_on_c, 1, 55, 50
3, 26995, Control_c, 1, 11, 68
3, 27017, Note_on_c, 1, 55, 0
3, 27027, Note_on_c, 1, 55, 50
3, 27038, Control_c, 1, 11, 69
3, 27067, Note_on_c, 1, 55, 0
3, 27081, Control_c, 1, 11, 70
3, 27085, Note_on_c, 1, 55, 50
3, 27123, Control_c, 1, 11, 71
3, 27125, Note_on_c, 1, 55, 0
3, 27140, Note_on_c, 1, 55, 50
3, 27166, Control_c, 1, 11, 72
3, 27180, Note_on_c, 1, 55, 0
3, 27188, Note_on_c, 1, 55, 50
3, 27209, Control_c, 1, 11, 73
3, 27228, Note_on_c, 1, 55, 0
3, 27240, Note_on_c, 1, 55, 50
3, 27252, Control_c, 1, 11, 74
3, 27280, Note_on_c, 1, 55, 0
3, 27295, Control_c, 1, 11, 75
3, 27295, Note_on_c, 1, 53, 50
3, 27395, Note_on_c, 1, 53, 0
3, 27960, Control_c, 1, 11, 50
3, 27963, Note_on_c, 1, 67, 50
3, 28067, Note_on_c, 1, 65, 50
3, 28073, Note_on_c, 1, 67, 0
3, 28176, Note_on_c, 1, 64, 50
3, 28177, Note_on_c, 1, 65, 0
3, 28286, Note_on_c, 1, 64, 0
3, 28320, Control_c, 1, 11, 40
3, 28405, Note_on_c, 1, 53, 45
3, 28575, Note_on_c, 1, 53, 0
3, 28954, Note_on_c, 1, 53, 45
3, 29296, Note_on_c, 1, 67, 45
3, 29304, Note_on_c, 1, 53, 0
3, 29466, Note_on_c, 1, 67, 0
3, 29853, Note_on_c, 1, 67, 45
3, 30623, Note_on_c, 1, 67, 0
3, 30651, Note_on_c, 1, 67, 45
3, 30821, Note_on_c, 1, 67, 0
3, 30879, Note_on_c, 1, 67, 45
3, 31049, Note_on_c, 1, 67, 0
3, 31107, Note_on_c, 1, 67, 45
3, 31827, Note_on_c, 1, 67, 0
3, 31882, Note_on_c, 1, 67, 45
3, 32047, Note_on_c, 1, 67, 0
3, 32071, Note_on_c, 1, 67, 40
3, 32221, Note_on_c, 1, 67, 0
3, 32240, Note_on_c, 1, 68, 35
3, 32420, Note_on_c, 1, 68, 0
3, 35612, Note_on_c, 1, 64, 50
3, 35752, Note_on_c, 1, 64, 0
3, 35996, Note_on_c, 1, 55, 50
3, 36206, Note_on_c, 1, 55, 0
3, 36222, Note_on_c, 1, 53, 50
3, 36492, Note_on_c, 1, 53, 0
3, 38640, Note_on_c, 1, 55, 50
3, 38770, Note_on_c, 1, 56, 50
3, 38785, Note_on_c, 1, 55, 0
3, 38899, Note_on_c, 1, 60, 50
3, 38915, Note_on_c, 1, 56, 0
3, 39010, Note_on_c, 1, 53, 50
3, 39029, Note_on_c, 1, 60, 0
3, 39860, Note_on_c, 1, 53, 0
3, 43310, Note_on_c, 1, 55, 50
3, 43550, Note_on_c, 1, 55, 0
3, 43584, Note_on_c, 1, 55, 50
3, 43719, Note_on_c, 1, 53, 50
3, 43724, Note_on_c, 1, 55, 0
3, 44171, Note_on_c, 1, 55, 50
3, 44174, Note_on_c, 1, 53, 0
3, 44291, Note_on_c, 1, 55, 0
3, 44307, Note_on_c, 1, 55, 50
3, 44685, Note_on_c, 1, 53, 50
3, 44697, Note_on_c, 1, 55, 0
3, 44805, Note_on_c, 1, 53, 0
3, 45840, Control_c, 1, 11, 50
3, 45883, Note_on_c, 1, 62, 50
3, 46131, Note_on_c, 1, 59, 50
3, 46133, Note_on_c, 1, 62, 0
3, 46357, Note_on_c, 1, 62, 50
3, 46361, Note_on_c, 1, 59, 0
3, 46467, Note_on_c, 1, 62, 0
3, 46696, Note_on_c, 1, 53, 50
3, 46857, Note_on_c, 1, 55, 50
3, 46866, Note_on_c, 1, 53, 0
3, 46967, Note_on_c, 1, 55, 0
3, 47122, Note_on_c, 1, 53, 50
3, 47367, Note_on_c, 1, 52, 53
3, 47372, Note_on_c, 1, 53, 0
3, 47477, Note_on_c, 1, 52, 0
3, 47603, Note_on_c, 1, 53, 55
3, 47720, Note_on_c, 1, 56, 55
3, 47838, Note_on_c, 1, 60, 58
3, 47850, Note_on_c, 1, 56, 0
3, 47853, Note_on_c, 1, 53, 0
3, 47948, Note_on_c, 1, 60, 0
3, 48071, Note_on_c, 1, 53, 60
3, 48306, Note_on_c, 1, 52, 50
3, 48321, Note_on_c, 1, 53, 0
3, 48416, Note_on_c, 1, 52, 0
3, 49056, Note_on_c, 1, 51, 50
3, 49426, Note_on_c, 1, 51, 0
3, 50044, Note_on_c, 1, 51, 50
3, 50309, Note_on_c, 1, 51, 0
3, 52001, Note_on_c, 1, 60, 50
3, 52231, Note_on_c, 1, 60, 0
3, 52239, Note_on_c, 1, 56, 50
3, 52729, Note_on_c, 1, 56, 0
3, 53637, Note_on_c, 1, 55, 50
3, 53800, Note_on_c, 1, 48, 50
3, 53807, Note_on_c, 1, 55, 0
3, 53910, Note_on_c, 1, 48, 0
3, 53980, Note_on_c, 1, 53, 50
3, 54117, Note_on_c, 1, 55, 50
3, 54125, Note_on_c, 1, 53, 0
3, 54373, Note_on_c, 1, 56, 50
3, 54392, Note_on_c, 1, 55, 0
3, 54483, Note_on_c, 1, 56, 0
3, 54635, Note_on_c, 1, 62, 50
3, 54914, Note_on_c, 1, 63, 50
3, 54925, Note_on_c, 1, 62, 0
3, 55024, Note_on_c, 1, 63, 0
3, 55316, Note_on_c, 1, 62, 50
3, 55443, Note_on_c, 1, 63, 50
3, 55451, Note_on_c, 1, 62, 0
3, 55563, Note_on_c, 1, 63, 0
3, 55822, Note_on_c, 1, 62, 50
3, 55942, Note_on_c, 1, 62, 0
3, 55953, Note_on_c, 1, 63, 50
3, 56093, Note_on_c, 1, 63, 0
3, 56345, Note_on_c, 1, 62, 50
3, 56482, Note_on_c, 1, 63, 50
3, 56500, Note_on_c, 1, 62, 0
3, 56602, Note_on_c, 1, 63, 0
3, 56919, Note_on_c, 1, 62, 50
3, 57061, Note_on_c, 1, 63, 45
3, 57074, Note_on_c, 1, 62, 0
3, 58501, Note_on_c, 1, 63, 0
3, 64920, Control_c, 1, 11, 45
3, 64973, Note_on_c, 1, 58, 45
3, 65258, Note_on_c, 1, 56, 45
3, 65268, Note_on_c, 1, 58, 0
3, 65368, Note_on_c, 1, 56, 0
3, 66687, Note_on_c, 1, 53, 45
3, 67084, Note_on_c, 1, 53, 0
3, 67265, Note_on_c, 1, 58, 45
3, 67400, Note_on_c, 1, 51, 45
3, 67415, Note_on_c, 1, 58, 0
3, 67857, Note_on_c, 1, 63, 45
3, 67865, Note_on_c, 1, 51, 0
3, 68430, Note_on_c, 1, 64, 45
3, 68442, Note_on_c, 1, 63, 0
3, 68705, Note_on_c, 1, 65, 50
3, 68715, Note_on_c, 1, 64, 0
3, 69030, Note_on_c, 1, 63, 45
3, 69040, Note_on_c, 1, 65, 0
3, 69150, Note_on_c, 1, 63, 0
3, 70027, Note_on_c, 1, 51, 45
3, 70149, Note_on_c, 1, 52, 45
3, 70157, Note_on_c, 1, 51, 0
3, 70350, Note_on_c, 1, 53, 45
3, 70364, Note_on_c, 1, 52, 0
3, 70655, Note_on_c, 1, 60, 45
3, 70660, Note_on_c, 1, 53, 0
3, 70829, Note_on_c, 1, 55, 45
3, 70830, Note_on_c, 1, 60, 0
3, 70979, Note_on_c, 1, 55, 0
3, 70989, Note_on_c, 1, 53, 50
3, 71334, Note_on_c, 1, 55, 45
3, 71349, Note_on_c, 1, 53, 0
3, 71454, Note_on_c, 1, 55, 0
3, 71686, Note_on_c, 1, 62, 55
3, 72280, Note_on_c, 1, 53, 45
3, 72286, Note_on_c, 1, 62, 0
3, 72565, Note_on_c, 1, 51, 45
3, 72570, Note_on_c, 1, 53, 0
3, 72956, Note_on_c, 1, 56, 55
3, 72970, Note_on_c, 1, 51, 0
3, 73176, Note_on_c, 1, 56, 0
3, 73457, Note_on_c, 1, 55, 45
3, 73677, Note_on_c, 1, 55, 0
3, 74221, Note_on_c, 1, 61, 45
3, 74391, Note_on_c, 1, 61, 0
3, 74559, Note_on_c, 1, 53, 55
3, 74679, Note_on_c, 1, 53, 0
3, 75687, Note_on_c, 1, 55, 50
3, 76060, Note_on_c, 1, 53, 50
3, 76072, Note_on_c, 1, 55, 0
3, 76415, Note_on_c, 1, 51, 50
3, 76420, Note_on_c, 1, 53, 0
3, 76605, Note_on_c, 1, 51, 0
3, 76969, Note_on_c, 1, 53, 45
3, 77220, Note_on_c, 1, 51, 45
3, 77234, Note_on_c, 1, 53, 0
3, 77390, Note_on_c, 1, 51, 0
3, 78194, Note_on_c, 1, 55, 45
3, 78454, Note_on_c, 1, 55, 0
3, 79296, Note_on_c, 1, 55, 45
3, 79556, Note_on_c, 1, 55, 0
3, 79856, Note_on_c, 1, 55, 50
3, 80281, Note_on_c, 1, 55, 0
3, 80542, Note_on_c, 1, 62, 50
3, 80652, Note_on_c, 1, 62, 0
3, 80945, Note_on_c, 1, 57, 50
3, 81381, Note_on_c, 1, 57, 0
3, 82066, Note_on_c, 1, 57, 50
3, 82502, Note_on_c, 1, 57, 0
3, 82681, Note_on_c, 1, 62, 50
3, 82936, Note_on_c, 1, 62, 0
3, 94206, Control_c, 1, 11, 60
3, 94206, Note_on_c, 1, 65, 60
3, 94206, Note_on_c, 1, 55, 60
3, 94206, Note_on_c, 1, 62, 60
3, 94228, Note_on_c, 1, 62, 0
3, 94228, Note_on_c, 1, 55, 0
3, 94228, Note_on_c, 1, 65, 0
3, 94243, Note_on_c, 1, 65, 60
3, 94243, Note_on_c, 1, 55, 60
3, 94243, Note_on_c, 1, 62, 60
3, 94265, Note_on_c, 1, 62, 0
3, 94265, Note_on_c, 1, 55, 0
3, 94265, Note_on_c, 1, 65, 0
3, 94280, Note_on_c, 1, 65, 60
3, 94280, Note_on_c, 1, 55, 60
3, 94280, Note_on_c, 1, 62, 60
3, 94302, Note_on_c, 1, 62, 0
3, 94302, Note_on_c, 1, 55, 0
3, 94302, Note_on_c, 1, 65, 0
3, 94314, Note_on_c, 1, 65, 60
3, 94314, Note_on_c, 1, 55, 60
3, 94314, Note_on_c, 1, 62, 60
3, 94336, Note_on_c, 1, 62, 0
3, 94336, Note_on_c, 1, 55, 0
3, 94336, Note_on_c, 1, 65, 0
3, 94348, Note_on_c, 1, 65, 60
3, 94348, Note_on_c, 1, 55, 60
3, 94348, Note_on_c, 1, 62, 60
3, 94370, Note_on_c, 1, 62, 0
3, 94370, Note_on_c, 1, 55, 0
3, 94370, Note_on_c, 1, 65, 0
3, 94383, Note_on_c, 1, 65, 60
3, 94383, Note_on_c, 1, 55, 60
3, 94383, Note_on_c, 1, 62, 60
3, 94405, Note_on_c, 1, 62, 0
3, 94405, Note_on_c, 1, 55, 0
3, 94405, Note_on_c, 1, 65, 0
3, 94419, Note_on_c, 1, 65, 60
3, 94419, Note_on_c, 1, 55, 60
3, 94419, Note_on_c, 1, 62, 60
3, 94441, Note_on_c, 1, 62, 0
3, 94441, Note_on_c, 1, 55, 0
3, 94441, Note_on_c, 1, 65, 0
3, 94453, Note_on_c, 1, 65, 60
3, 94453, Note_on_c, 1, 55, 60
3, 94453, Note_on_c, 1, 62, 60
3, 94475, Note_on_c, 1, 62, 0
3, 94475, Note_on_c, 1, 55, 0
3, 94475, Note_on_c, 1, 65, 0
3, 94487, Note_on_c, 1, 65, 60
3, 94487, Note_on_c, 1, 55, 60
3, 94487, Note_on_c, 1, 62, 60
3, 94509, Note_on_c, 1, 62, 0
3, 94509, Note_on_c, 1, 55, 0
3, 94509, Note_on_c, 1, 65, 0
3, 94523, Note_on_c, 1, 65, 60
3, 94523, Note_on_c, 1, 55, 60
3, 94523, Note_on_c, 1, 62, 60
3, 94545, Note_on_c, 1, 62, 0
3, 94545, Note_on_c, 1, 55, 0
3, 94545, Note_on_c, 1, 65, 0
3, 94560, Note_on_c, 1, 65, 60
3, 94560, Note_on_c, 1, 55, 60
3, 94560, Note_on_c, 1, 62, 60
3, 94582, Note_on_c, 1, 62, 0
3, 94582, Note_on_c, 1, 55, 0
3, 94582, Note_on_c, 1, 65, 0
3, 94596, Note_on_c, 1, 65, 60
3, 94596, Note_on_c, 1, 55, 60
3, 94596, Note_on_c, 1, 62, 60
3, 94618, Note_on_c, 1, 62, 0
3, 94618, Note_on_c, 1, 55, 0
3, 94618, Note_on_c, 1, 65, 0
3, 94632, Note_on_c, 1, 65, 60
3, 94632, Note_on_c, 1, 55, 60
3, 94632, Note_on_c, 1, 62, 60
3, 94654, Note_on_c, 1, 62, 0
3, 94654, Note_on_c, 1, 55, 0
3, 94654, Note_on_c, 1, 65, 0
3, 94665, Note_on_c, 1, 65, 60
3, 94665, Note_on_c, 1, 55, 60
3, 94665, Note_on_c, 1, 62, 60
3, 94687, Note_on_c, 1, 62, 0
3, 94687, Note_on_c, 1, 55, 0
3, 94687, Note_on_c, 1, 65, 0
3, 94702, Note_on_c, 1, 65, 60
3, 94702, Note_on_c, 1, 55, 60
3, 94702, Note_on_c, 1, 62, 60
3, 94724, Note_on_c, 1, 62, 0
3, 94724, Note_on_c, 1, 55, 0
3, 94724, Note_on_c, 1, 65, 0
3, 94741, Note_on_c, 1, 55, 60
3, 94741, Note_on_c, 1, 62, 60
3, 94763, Note_on_c, 1, 62, 0
3, 94763, Note_on_c, 1, 55, 0
3, 97900, Control_c, 1, 11, 50
3, 97900, Note_on_c, 1, 55, 45
3, 98220, Note_on_c, 1, 53, 45
3, 98225, Note_on_c, 1, 55, 0
3, 98300, Note_on_c, 1, 55, 45
3, 98310, Note_on_c, 1, 53, 0
3, 98350, Note_on_c, 1, 55, 0
3, 98360, Note_on_c, 1, 56, 60
3, 98380, Note_on_c, 1, 50, 80
3, 98382, Note_on_c, 1, 56, 0
3, 98440, Note_on_c, 1, 51, 60
3, 98450, Note_on_c, 1, 50, 0
3, 98460, Note_on_c, 1, 53, 50
3, 98462, Note_on_c, 1, 51, 0
3, 98530, Note_on_c, 1, 53, 0
3, 101340, Note_on_c, 1, 58, 50
3, 101385, Note_on_c, 1, 58, 0
3, 101500, Note_on_c, 1, 56, 50
3, 101740, Note_on_c, 1, 53, 50
3, 101750, Note_on_c, 1, 56, 0
3, 101760, Control_c, 1, 11, 40
3, 101820, Note_on_c, 1, 51, 50
3, 101830, Note_on_c, 1, 53, 0
3, 101900, Note_on_c, 1, 56, 60
3, 101910, Note_on_c, 1, 51, 0
3, 101980, Note_on_c, 1, 55, 50
3, 101990, Note_on_c, 1, 56, 0
3, 102100, Note_on_c, 1, 55, 0
3, 104793, Note_on_c, 1, 58, 50
3, 105013, Note_on_c, 1, 58, 0
3, 105043, Note_on_c, 1, 58, 50
3, 105143, Note_on_c, 1, 58, 0
3, 105164, Note_on_c, 1, 58, 50
3, 105625, Note_on_c, 1, 65, 50
3, 105744, Note_on_c, 1, 58, 0
3, 106205, Note_on_c, 1, 65, 0
3, 108913, Note_on_c, 1, 60, 50
3, 109493, Note_on_c, 1, 60, 0
3, 109610, Note_on_c, 1, 58, 50
3, 109943, Note_on_c, 1, 56, 50
3, 109950, Note_on_c, 1, 58, 0
3, 110063, Note_on_c, 1, 56, 0
3, 130095, Note_on_c, 1, 60, 50
3, 130238, Note_on_c, 1, 63, 50
3, 130245, Note_on_c, 1, 60, 0
3, 130377, Note_on_c, 1, 60, 50
3, 130388, Note_on_c, 1, 63, 0
3, 130514, Note_on_c, 1, 63, 50
3, 130527, Note_on_c, 1, 60, 0
3, 130653, Note_on_c, 1, 56, 50
3, 130664, Note_on_c, 1, 63, 0
3, 130791, Note_on_c, 1, 60, 50
3, 130803, Note_on_c, 1, 56, 0
3, 130925, Note_on_c, 1, 53, 50
3, 130931, Note_on_c, 1, 60, 0
3, 131060, Note_on_c, 1, 56, 50
3, 131065, Note_on_c, 1, 53, 0
3, 131180, Note_on_c, 1, 56, 0
3, 131192, Note_on_c, 1, 53, 75
3, 131572, Note_on_c, 1, 53, 0
3, 131601, Note_on_c, 1, 53, 80
3, 132131, Note_on_c, 1, 53, 0
3, 132142, Note_on_c, 1, 52, 70
3, 132142, Control_c, 1, 11, 70
3, 132142, Note_on_c, 1, 52, 60
3, 132164, Note_on_c, 1, 52, 0
3, 132172, Note_on_c, 1, 52, 60
3, 132194, Note_on_c, 1, 52, 0
3, 132202, Note_on_c, 1, 60, 60
3, 132224, Note_on_c, 1, 60, 0
3, 132232, Note_on_c, 1, 60, 60
3, 132242, Note_on_c, 1, 52, 0
3, 132254, Note_on_c, 1, 60, 0
3, 132262, Note_on_c, 1, 60, 60
3, 132284, Note_on_c, 1, 60, 0
3, 132292, Note_on_c, 1, 60, 60
3, 132314, Note_on_c, 1, 60, 0
3, 132322, Note_on_c, 1, 72, 60
3, 132344, Note_on_c, 1, 72, 0
3, 132352, Note_on_c, 1, 72, 60
3, 132374, Note_on_c, 1, 72, 0
3, 132382, Note_on_c, 1, 72, 60
3, 132404, Note_on_c, 1, 72, 0
3, 132412, Note_on_c, 1, 72, 60
3, 132434, Note_on_c, 1, 72, 0
3, 132442, Note_on_c, 1, 72, 60
3, 132464, Note_on_c, 1, 72, 0
3, 132472, Note_on_c, 1, 72, 60
3, 132494, Note_on_c, 1, 72, 0
3, 132502, Note_on_c, 1, 72, 60
3, 132524, Note_on_c, 1, 72, 0
3, 132532, Note_on_c, 1, 72, 60
3, 132554, Note_on_c, 1, 72, 0
3, 132562, Note_on_c, 1, 72, 60
3, 132584, Note_on_c, 1, 72, 0
3, 132592, Note_on_c, 1, 72, 60
3, 132614, Note_on_c, 1, 72, 0
3, 132622, Note_on_c, 1, 72, 60
3, 132644, Note_on_c, 1, 72, 0
3, 132652, Note_on_c, 1, 72, 60
3, 132674, Note_on_c, 1, 72, 0
3, 132682, Note_on_c, 1, 72, 60
3, 132704, Note_on_c, 1, 72, 0
3, 132712, Note_on_c, 1, 72, 60
3, 132734, Note_on_c, 1, 72, 0
3, 132742, Note_on_c, 1, 72, 60
3, 132764, Note_on_c, 1, 72, 0
3, 132772, Note_on_c, 1, 72, 60
3, 132794, Note_on_c, 1, 72, 0
3, 132802, Note_on_c, 1, 72, 60
3, 132824, Note_on_c, 1, 72, 0
3, 132832, Note_on_c, 1, 72, 60
3, 132854, Note_on_c, 1, 72, 0
3, 132862, Note_on_c, 1, 72, 60
3, 132884, Note_on_c, 1, 72, 0
3, 132892, Note_on_c, 1, 72, 60
3, 132914, Note_on_c, 1, 72, 0
3, 132922, Note_on_c, 1, 72, 60
3, 132944, Note_on_c, 1, 72, 0
3, 132952, Note_on_c, 1, 72, 60
3, 132974, Note_on_c, 1, 72, 0
3, 132982, Note_on_c, 1, 71, 60
3, 133004, Note_on_c, 1, 71, 0
3, 133012, Note_on_c, 1, 71, 60
3, 133034, Note_on_c, 1, 71, 0
3, 133042, Note_on_c, 1, 71, 60
3, 133064, Note_on_c, 1, 71, 0
3, 133072, Note_on_c, 1, 71, 60
3, 133094, Note_on_c, 1, 71, 0
3, 133102, Note_on_c, 1, 72, 60
3, 133124, Note_on_c, 1, 72, 0
3, 133132, Note_on_c, 1, 72, 60
3, 133154, Note_on_c, 1, 72, 0
3, 133162, Note_on_c, 1, 72, 60
3, 133184, Note_on_c, 1, 72, 0
3, 133192, Note_on_c, 1, 72, 60
3, 133214, Note_on_c, 1, 72, 0
3, 133222, Note_on_c, 1, 72, 60
3, 133244, Note_on_c, 1, 72, 0
3, 133252, Note_on_c, 1, 72, 60
3, 133274, Note_on_c, 1, 72, 0
3, 133282, Note_on_c, 1, 72, 60
3, 133304, Note_on_c, 1, 72, 0
3, 133312, Note_on_c, 1, 72, 60
3, 133334, Note_on_c, 1, 72, 0
3, 133342, Note_on_c, 1, 72, 60
3, 133364, Note_on_c, 1, 72, 0
3, 133372, Note_on_c, 1, 72, 60
3, 133394, Note_on_c, 1, 72, 0
3, 133402, Note_on_c, 1, 72, 60
3, 133424, Note_on_c, 1, 72, 0
3, 133432, Note_on_c, 1, 72, 60
3, 133454, Note_on_c, 1, 72, 0
3, 133462, Note_on_c, 1, 72, 60
3, 133484, Note_on_c, 1, 72, 0
3, 133492, Note_on_c, 1, 72, 60
3, 133514, Note_on_c, 1, 72, 0
3, 133522, Note_on_c, 1, 72, 60
3, 133544, Note_on_c, 1, 72, 0
3, 133552, Note_on_c, 1, 72, 60
3, 133574, Note_on_c, 1, 72, 0
3, 133582, Note_on_c, 1, 72, 60
3, 133604, Note_on_c, 1, 72, 0
3, 133612, Note_on_c, 1, 72, 60
3, 133634, Note_on_c, 1, 72, 0
3, 133642, Note_on_c, 1, 72, 60
3, 133664, Note_on_c, 1, 72, 0
3, 133672, Note_on_c, 1, 72, 60
3, 133694, Note_on_c, 1, 72, 0
3, 133702, Note_on_c, 1, 72, 60
3, 133724, Note_on_c, 1, 72, 0
3, 133732, Note_on_c, 1, 72, 60
3, 133754, Note_on_c, 1, 72, 0
3, 133762, Note_on_c, 1, 72, 60
3, 133784, Note_on_c, 1, 72, 0
3, 133792, Note_on_c, 1, 72, 60
3, 133814, Note_on_c, 1, 72, 0
3, 133822, Note_on_c, 1, 72, 60
3, 133844, Note_on_c, 1, 72, 0
3, 133852, Note_on_c, 1, 72, 60
3, 133874, Note_on_c, 1, 72, 0
3, 133882, Note_on_c, 1, 72, 60
3, 133904, Note_on_c, 1, 72, 0
3, 133912, Note_on_c, 1, 72, 60
3, 133934, Note_on_c, 1, 72, 0
3, 133942, Note_on_c, 1, 71, 60
3, 133964, Note_on_c, 1, 71, 0
3, 133972, Note_on_c, 1, 71, 60
3, 133994, Note_on_c, 1, 71, 0
3, 134002, Note_on_c, 1, 71, 60
3, 134024, Note_on_c, 1, 71, 0
3, 134032, Note_on_c, 1, 71, 60
3, 134054, Note_on_c, 1, 71, 0
3, 134062, Note_on_c, 1, 72, 60
3, 134084, Note_on_c, 1, 72, 0
3, 134092, Note_on_c, 1, 72, 60
3, 134114, Note_on_c, 1, 72, 0
3, 134122, Note_on_c, 1, 72, 60
3, 134144, Note_on_c, 1, 72, 0
3, 134152, Note_on_c, 1, 72, 60
3, 134174, Note_on_c, 1, 72, 0
3, 134182, Note_on_c, 1, 72, 60
3, 134204, Note_on_c, 1, 72, 0
3, 134212, Note_on_c, 1, 72, 60
3, 134234, Note_on_c, 1, 72, 0
3, 134242, Note_on_c, 1, 72, 60
3, 134264, Note_on_c, 1, 72, 0
3, 134272, Note_on_c, 1, 72, 60
3, 134294, Note_on_c, 1, 72, 0
3, 134302, Note_on_c, 1, 72, 60
3, 134324, Note_on_c, 1, 72, 0
3, 134332, Note_on_c, 1, 72, 60
3, 134354, Note_on_c, 1, 72, 0
3, 134362, Note_on_c, 1, 72, 60
3, 134384, Note_on_c, 1, 72, 0
3, 134392, Note_on_c, 1, 72, 60
3, 134414, Note_on_c, 1, 72, 0
3, 134422, Note_on_c, 1, 72, 60
3, 134444, Note_on_c, 1, 72, 0
3, 134452, Note_on_c, 1, 72, 60
3, 134474, Note_on_c, 1, 72, 0
3, 134482, Note_on_c, 1, 72, 60
3, 134504, Note_on_c, 1, 72, 0
3, 134512, Note_on_c, 1, 72, 60
3, 134534, Note_on_c, 1, 72, 0
3, 134542, Note_on_c, 1, 72, 60
3, 134564, Note_on_c, 1, 72, 0
3, 134572, Note_on_c, 1, 72, 60
3, 134594, Note_on_c, 1, 72, 0
3, 134602, Note_on_c, 1, 72, 60
3, 134624, Note_on_c, 1, 72, 0
3, 134632, Note_on_c, 1, 72, 60
3, 134654, Note_on_c, 1, 72, 0
3, 134662, Note_on_c, 1, 72, 60
3, 134684, Note_on_c, 1, 72, 0
3, 134692, Note_on_c, 1, 72, 60
3, 134714, Note_on_c, 1, 72, 0
3, 134722, Note_on_c, 1, 72, 60
3, 134744, Note_on_c, 1, 72, 0
3, 134752, Note_on_c, 1, 72, 60
3, 134774, Note_on_c, 1, 72, 0
3, 134782, Note_on_c, 1, 70, 60
3, 134804, Note_on_c, 1, 70, 0
3, 134812, Note_on_c, 1, 70, 60
3, 134834, Note_on_c, 1, 70, 0
3, 134842, Note_on_c, 1, 70, 60
3, 134864, Note_on_c, 1, 70, 0
3, 134872, Note_on_c, 1, 70, 60
3, 134894, Note_on_c, 1, 70, 0
3, 134902, Note_on_c, 1, 70, 60
3, 134924, Note_on_c, 1, 70, 0
3, 134932, Note_on_c, 1, 70, 60
3, 134954, Note_on_c, 1, 70, 0
3, 134962, Note_on_c, 1, 73, 60
3, 134984, Note_on_c, 1, 73, 0
3, 134992, Note_on_c, 1, 73, 60
3, 135014, Note_on_c, 1, 73, 0
3, 135022, Note_on_c, 1, 73, 60
3, 135044, Note_on_c, 1, 73, 0
3, 135052, Note_on_c, 1, 73, 60
3, 135074, Note_on_c, 1, 73, 0
3, 135082, Note_on_c, 1, 73, 60
3, 135104, Note_on_c, 1, 73, 0
3, 135112, Note_on_c, 1, 73, 60
3, 135134, Note_on_c, 1, 73, 0
3, 135142, Note_on_c, 1, 73, 60
3, 135164, Note_on_c, 1, 73, 0
3, 135172, Note_on_c, 1, 73, 60
3, 135194, Note_on_c, 1, 73, 0
3, 135202, Note_on_c, 1, 73, 60
3, 135224, Note_on_c, 1, 73, 0
3, 135232, Note_on_c, 1, 73, 60
3, 135254, Note_on_c, 1, 73, 0
3, 135262, Note_on_c, 1, 72, 60
3, 135284, Note_on_c, 1, 72, 0
3, 135292, Note_on_c, 1, 72, 60
3, 135314, Note_on_c, 1, 72, 0
3, 135322, Note_on_c, 1, 75, 60
3, 135344, Note_on_c, 1, 75, 0
3, 135352, Note_on_c, 1, 75, 60
3, 135374, Note_on_c, 1, 75, 0
3, 135382, Note_on_c, 1, 76, 60
3, 135404, Note_on_c, 1, 76, 0
3, 135412, Note_on_c, 1, 76, 60
3, 135434, Note_on_c, 1, 76, 0
3, 135442, Note_on_c, 1, 76, 60
3, 135464, Note_on_c, 1, 76, 0
3, 135472, Note_on_c, 1, 76, 60
3, 135494, Note_on_c, 1, 76, 0
3, 135502, Note_on_c, 1, 77, 60
3, 135524, Note_on_c, 1, 77, 0
3, 135532, Note_on_c, 1, 77, 60
3, 135554, Note_on_c, 1, 77, 0
3, 135562, Note_on_c, 1, 77, 60
3, 135584, Note_on_c, 1, 77, 0
3, 135592, Note_on_c, 1, 77, 60
3, 135614, Note_on_c, 1, 77, 0
3, 135622, Note_on_c, 1, 79, 60
3, 135644, Note_on_c, 1, 79, 0
3, 135652, Note_on_c, 1, 79, 60
3, 135674, Note_on_c, 1, 79, 0
3, 135682, Note_on_c, 1, 84, 60
3, 135704, Note_on_c, 1, 84, 0
3, 135712, Note_on_c, 1, 84, 60
3, 135734, Note_on_c, 1, 84, 0
3, 135742, Note_on_c, 1, 84, 60
3, 135764, Note_on_c, 1, 84, 0
3, 135772, Note_on_c, 1, 84, 60
3, 135794, Note_on_c, 1, 84, 0
3, 135802, Note_on_c, 1, 80, 60
3, 135824, Note_on_c, 1, 80, 0
3, 135832, Note_on_c, 1, 80, 60
3, 135854, Note_on_c, 1, 80, 0
3, 135862, Note_on_c, 1, 80, 60
3, 135884, Note_on_c, 1, 80, 0
3, 135892, Note_on_c, 1, 80, 60
3, 135914, Note_on_c, 1, 80, 0
3, 135922, Note_on_c, 1, 77, 60
3, 135944, Note_on_c, 1, 77, 0
3, 135952, Note_on_c, 1, 77, 60
3, 135974, Note_on_c, 1, 77, 0
3, 137889, Control_c, 1, 11, 45
3, 137889, Note_on_c, 1, 53, 50
3, 139064, Note_on_c, 1, 52, 50
3, 139074, Note_on_c, 1, 53, 0
3, 139206, Note_on_c, 1, 51, 40
3, 139214, Note_on_c, 1, 52, 0
3, 139806, Note_on_c, 1, 51, 0
3, 174554, Control_c, 1, 11, 50
3, 174563, Note_on_c, 1, 65, 50
3, 175253, Note_on_c, 1, 65, 0
3, 184664, Control_c, 1, 121, 0
3, 184664, End_track
4, 0, Start_track
4, 0, MIDI_port, 0
4, 0, Title_t, "Cellos"
4, 0, Program_c, 2, 48
4, 0, Control_c, 2, 7, 127
4, 0, Control_c, 2, 10, 100
4, 50, Control_c, 2, 121, 0
4, 100, Control_c, 2, 91, 100
4, 100, Control_c, 2, 93, 90
4, 110, Control_c, 2, 11, 70
4, 1434, Note_on_c, 2, 49, 60
4, 1529, Note_on_c, 2, 49, 0
4, 1546, Note_on_c, 2, 48, 60
4, 1846, Note_on_c, 2, 48, 0
4, 1875, Note_on_c, 2, 49, 80
4, 1895, Note_on_c, 2, 49, 0
4, 1901, Note_on_c, 2, 43, 100
4, 1977, Note_on_c, 2, 44, 80
4, 1983, Note_on_c, 2, 43, 0
4, 2003, Note_on_c, 2, 46, 80
4, 2012, Note_on_c, 2, 44, 0
4, 2084, Note_on_c, 2, 46, 0
4, 2108, Note_on_c, 2, 49, 90
4, 2148, Note_on_c, 2, 49, 0
4, 2217, Note_on_c, 2, 48, 90
4, 2257, Note_on_c, 2, 48, 0
4, 2315, Note_on_c, 2, 49, 80
4, 2339, Note_on_c, 2, 49, 0
4, 2348, Note_on_c, 2, 43, 100
4, 2421, Note_on_c, 2, 44, 80
4, 2425, Note_on_c, 2, 43, 0
4, 2450, Note_on_c, 2, 46, 80
4, 2454, Note_on_c, 2, 44, 0
4, 2528, Note_on_c, 2, 46, 0
4, 2555, Note_on_c, 2, 49, 90
4, 2595, Note_on_c, 2, 49, 0
4, 2658, Note_on_c, 2, 48, 90
4, 2698, Note_on_c, 2, 48, 0
4, 2731, Note_on_c, 2, 58, 80
4, 2752, Note_on_c, 2, 58, 0
4, 2759, Note_on_c, 2, 67, 90
4, 2837, Note_on_c, 2, 65, 80
4, 2841, Note_on_c, 2, 67, 0
4, 2864, Note_on_c, 2, 64, 80
4, 2870, Note_on_c, 2, 65, 0
4, 2934, Note_on_c, 2, 64, 0
4, 2969, Note_on_c, 2, 52, 80
4, 3050, Note_on_c, 2, 53, 80
4, 3059, Note_on_c, 2, 52, 0
4, 3075, Note_on_c, 2, 53, 0
4, 3077, Note_on_c, 2, 55, 80
4, 3167, Note_on_c, 2, 55, 0
4, 3186, Note_on_c, 2, 52, 80
4, 3226, Note_on_c, 2, 52, 0
4, 3290, Note_on_c, 2, 53, 80
4, 3330, Note_on_c, 2, 53, 0
4, 3361, Note_on_c, 2, 55, 80
4, 3388, Note_on_c, 2, 55, 0
4, 3388, Note_on_c, 2, 56, 80
4, 3549, Note_on_c, 2, 53, 55
4, 3563, Note_on_c, 2, 56, 0
4, 3602, Note_on_c, 2, 48, 52
4, 3605, Note_on_c, 2, 53, 0
4, 3655, Note_on_c, 2, 44, 49
4, 3658, Note_on_c, 2, 48, 0
4, 3700, Control_c, 2, 11, 45
4, 3708, Control_c, 2, 11, 45
4, 3708, Note_on_c, 2, 41, 80
4, 3711, Note_on_c, 2, 44, 0
4, 3738, Note_on_c, 2, 41, 0
4, 3761, Note_on_c, 2, 53, 100
4, 3834, Control_c, 2, 11, 46
4, 3867, Note_on_c, 2, 47, 80
4, 3873, Note_on_c, 2, 53, 0
4, 3897, Note_on_c, 2, 47, 0
4, 3919, Note_on_c, 2, 48, 80
4, 3949, Note_on_c, 2, 48, 0
4, 3960, Control_c, 2, 11, 47
4, 3971, Note_on_c, 2, 49, 100
4, 4075, Note_on_c, 2, 48, 80
4, 4081, Note_on_c, 2, 49, 0
4, 4086, Control_c, 2, 11, 48
4, 4105, Note_on_c, 2, 48, 0
4, 4125, Note_on_c, 2, 46, 80
4, 4155, Note_on_c, 2, 46, 0
4, 4175, Note_on_c, 2, 49, 80
4, 4205, Note_on_c, 2, 49, 0
4, 4212, Control_c, 2, 11, 49
4, 4225, Note_on_c, 2, 41, 80
4, 4255, Note_on_c, 2, 41, 0
4, 4275, Note_on_c, 2, 49, 80
4, 4305, Note_on_c, 2, 49, 0
4, 4324, Note_on_c, 2, 46, 80
4, 4338, Control_c, 2, 11, 50
4, 4464, Control_c, 2, 11, 51
4, 4559, Note_on_c, 2, 48, 80
4, 4569, Note_on_c, 2, 46, 0
4, 4589, Note_on_c, 2, 48, 0
4, 4590, Control_c, 2, 11, 52
4, 4615, Note_on_c, 2, 53, 100
4, 4716, Control_c, 2, 11, 53
4, 4727, Note_on_c, 2, 47, 80
4, 4733, Note_on_c, 2, 53, 0
4, 4757, Note_on_c, 2, 47, 0
4, 4782, Note_on_c, 2, 48, 80
4, 4812, Note_on_c, 2, 48, 0
4, 4836, Note_on_c, 2, 51, 100
4, 4842, Control_c, 2, 11, 54
4, 4944, Note_on_c, 2, 49, 80
4, 4948, Note_on_c, 2, 51, 0
4, 4968, Control_c, 2, 11, 55
4, 4974, Note_on_c, 2, 49, 0
4, 4999, Note_on_c, 2, 49, 80
4, 5094, Control_c, 2, 11, 56
4, 5105, Note_on_c, 2, 53, 85
4, 5111, Note_on_c, 2, 49, 0
4, 5145, Note_on_c, 2, 53, 0
4, 5158, Note_on_c, 2, 58, 85
4, 5198, Note_on_c, 2, 58, 0
4, 5211, Note_on_c, 2, 61, 90
4, 5220, Control_c, 2, 11, 57
4, 5346, Control_c, 2, 11, 58
4, 5425, Note_on_c, 2, 49, 80
4, 5433, Note_on_c, 2, 61, 0
4, 5455, Note_on_c, 2, 49, 0
4, 5472, Control_c, 2, 11, 59
4, 5481, Note_on_c, 2, 49, 80
4, 5511, Note_on_c, 2, 49, 0
4, 5537, Note_on_c, 2, 49, 80
4, 5567, Note_on_c, 2, 49, 0
4, 5593, Note_on_c, 2, 49, 80
4, 5598, Control_c, 2, 11, 60
4, 5623, Note_on_c, 2, 49, 0
4, 5649, Note_on_c, 2, 49, 80
4, 5679, Note_on_c, 2, 49, 0
4, 5705, Note_on_c, 2, 49, 80
4, 5724, Control_c, 2, 11, 61
4, 5735, Note_on_c, 2, 49, 0
4, 5761, Note_on_c, 2, 49, 80
4, 5791, Note_on_c, 2, 49, 0
4, 5817, Note_on_c, 2, 49, 80
4, 5847, Note_on_c, 2, 49, 0
4, 5850, Control_c, 2, 11, 62
4, 5872, Note_on_c, 2, 48, 85
4, 5902, Note_on_c, 2, 48, 0
4, 5926, Note_on_c, 2, 48, 85
4, 5956, Note_on_c, 2, 48, 0
4, 5976, Control_c, 2, 11, 63
4, 5980, Note_on_c, 2, 48, 85
4, 6010, Note_on_c, 2, 48, 0
4, 6034, Note_on_c, 2, 48, 85
4, 6064, Note_on_c, 2, 48, 0
4, 6089, Note_on_c, 2, 48, 85
4, 6102, Control_c, 2, 11, 64
4, 6119, Note_on_c, 2, 48, 0
4, 6143, Note_on_c, 2, 48, 85
4, 6173, Note_on_c, 2, 48, 0
4, 6197, Note_on_c, 2, 48, 85
4, 6227, Note_on_c, 2, 48, 0
4, 6228, Control_c, 2, 11, 65
4, 6254, Note_on_c, 2, 48, 85
4, 6284, Note_on_c, 2, 48, 0
4, 6306, Note_on_c, 2, 47, 90
4, 6336, Note_on_c, 2, 47, 0
4, 6354, Control_c, 2, 11, 66
4, 6368, Note_on_c, 2, 47, 90
4, 6398, Note_on_c, 2, 47, 0
4, 6422, Note_on_c, 2, 47, 90
4, 6452, Note_on_c, 2, 47, 0
4, 6476, Note_on_c, 2, 47, 90
4, 6480, Control_c, 2, 11, 67
4, 6506, Note_on_c, 2, 47, 0
4, 6530, Note_on_c, 2, 50, 95
4, 6560, Note_on_c, 2, 50, 0
4, 6581, Note_on_c, 2, 50, 95
4, 6606, Control_c, 2, 11, 68
4, 6611, Note_on_c, 2, 50, 0
4, 6635, Note_on_c, 2, 50, 95
4, 6665, Note_on_c, 2, 50, 0
4, 6690, Note_on_c, 2, 50, 95
4, 6720, Note_on_c, 2, 50, 0
4, 6732, Control_c, 2, 11, 69
4, 6746, Note_on_c, 2, 51, 100
4, 6776, Note_on_c, 2, 51, 0
4, 6800, Note_on_c, 2, 51, 100
4, 6830, Note_on_c, 2, 51, 0
4, 6856, Note_on_c, 2, 51, 100
4, 6858, Control_c, 2, 11, 70
4, 6886, Note_on_c, 2, 51, 0
4, 6912, Note_on_c, 2, 51, 100
4, 6942, Note_on_c, 2, 51, 0
4, 6965, Note_on_c, 2, 52, 105
4, 6984, Control_c, 2, 11, 71
4, 6995, Note_on_c, 2, 52, 0
4, 7016, Note_on_c, 2, 52, 105
4, 7046, Note_on_c, 2, 52, 0
4, 7072, Note_on_c, 2, 52, 105
4, 7102, Note_on_c, 2, 52, 0
4, 7110, Control_c, 2, 11, 72
4, 7128, Note_on_c, 2, 52, 105
4, 7158, Note_on_c, 2, 52, 0
4, 7185, Note_on_c, 2, 53, 110
4, 7215, Note_on_c, 2, 53, 0
4, 7236, Control_c, 2, 11, 73
4, 7237, Note_on_c, 2, 53, 110
4, 7267, Note_on_c, 2, 53, 0
4, 7290, Note_on_c, 2, 51, 100
4, 7320, Note_on_c, 2, 51, 0
4, 7341, Note_on_c, 2, 51, 100
4, 7362, Control_c, 2, 11, 95
4, 7371, Note_on_c, 2, 51, 0
4, 7398, Note_on_c, 2, 50, 95
4, 7428, Note_on_c, 2, 50, 0
4, 7453, Note_on_c, 2, 50, 95
4, 7483, Note_on_c, 2, 50, 0
4, 7488, Control_c, 2, 11, 75
4, 7508, Note_on_c, 2, 49, 95
4, 7538, Note_on_c, 2, 49, 0
4, 7564, Note_on_c, 2, 49, 95
4, 7594, Note_on_c, 2, 49, 0
4, 7614, Control_c, 2, 11, 76
4, 7620, Note_on_c, 2, 48, 90
4, 7650, Note_on_c, 2, 48, 0
4, 7676, Note_on_c, 2, 48, 90
4, 7706, Note_on_c, 2, 48, 0
4, 7732, Note_on_c, 2, 48, 90
4, 7740, Control_c, 2, 11, 77
4, 7762, Note_on_c, 2, 48, 0
4, 7782, Note_on_c, 2, 48, 90
4, 7812, Note_on_c, 2, 48, 0
4, 7838, Note_on_c, 2, 46, 85
4, 7866, Control_c, 2, 11, 78
4, 7868, Note_on_c, 2, 46, 0
4, 7895, Note_on_c, 2, 46, 85
4, 7925, Note_on_c, 2, 46, 0
4, 7952, Note_on_c, 2, 44, 80
4, 7982, Note_on_c, 2, 44, 0
4, 7992, Control_c, 2, 11, 79
4, 8004, Note_on_c, 2, 44, 80
4, 8034, Note_on_c, 2, 44, 0
4, 8057, Note_on_c, 2, 43, 80
4, 8102, Note_on_c, 2, 43, 0
4, 8118, Note_on_c, 2, 52, 110
4, 8118, Control_c, 2, 11, 70
4, 8208, Note_on_c, 2, 52, 0
4, 8223, Note_on_c, 2, 53, 90
4, 8268, Note_on_c, 2, 53, 0
4, 8278, Note_on_c, 2, 55, 90
4, 8323, Note_on_c, 2, 55, 0
4, 8329, Note_on_c, 2, 56, 90
4, 8374, Note_on_c, 2, 56, 0
4, 8384, Note_on_c, 2, 58, 90
4, 8429, Note_on_c, 2, 58, 0
4, 8434, Note_on_c, 2, 59, 90
4, 8479, Note_on_c, 2, 59, 0
4, 8484, Note_on_c, 2, 60, 90
4, 8534, Note_on_c, 2, 60, 0
4, 8544, Note_on_c, 2, 61, 110
4, 8639, Note_on_c, 2, 61, 0
4, 8650, Note_on_c, 2, 60, 90
4, 8695, Note_on_c, 2, 60, 0
4, 8708, Note_on_c, 2, 58, 90
4, 8753, Note_on_c, 2, 58, 0
4, 8759, Note_on_c, 2, 56, 90
4, 8804, Note_on_c, 2, 56, 0
4, 8813, Note_on_c, 2, 55, 90
4, 8858, Note_on_c, 2, 55, 0
4, 8863, Note_on_c, 2, 53, 90
4, 8908, Note_on_c, 2, 53, 0
4, 8918, Note_on_c, 2, 52, 90
4, 8966, Note_on_c, 2, 52, 0
4, 8974, Note_on_c, 2, 52, 110
4, 9070, Note_on_c, 2, 52, 0
4, 9088, Note_on_c, 2, 53, 90
4, 9133, Note_on_c, 2, 53, 0
4, 9145, Note_on_c, 2, 55, 90
4, 9190, Note_on_c, 2, 55, 0
4, 9193, Note_on_c, 2, 56, 90
4, 9238, Note_on_c, 2, 56, 0
4, 9244, Note_on_c, 2, 58, 90
4, 9289, Note_on_c, 2, 58, 0
4, 9292, Note_on_c, 2, 56, 90
4, 9337, Note_on_c, 2, 56, 0
4, 9348, Note_on_c, 2, 57, 90
4, 9393, Note_on_c, 2, 57, 0
4, 9404, Note_on_c, 2, 45, 110
4, 9499, Note_on_c, 2, 45, 0
4, 9516, Note_on_c, 2, 46, 90
4, 9561, Note_on_c, 2, 46, 0
4, 9567, Note_on_c, 2, 48, 90
4, 9612, Note_on_c, 2, 48, 0
4, 9615, Note_on_c, 2, 49, 90
4, 9660, Note_on_c, 2, 49, 0
4, 9665, Note_on_c, 2, 51, 90
4, 9710, Note_on_c, 2, 51, 0
4, 9715, Note_on_c, 2, 49, 90
4, 9760, Note_on_c, 2, 49, 0
4, 9770, Note_on_c, 2, 46, 90
4, 9815, Note_on_c, 2, 46, 0
4, 9883, Note_on_c, 2, 58, 110
4, 10107, Note_on_c, 2, 57, 80
4, 10113, Note_on_c, 2, 58, 0
4, 10202, Note_on_c, 2, 57, 0
4, 10212, Note_on_c, 2, 56, 80
4, 10302, Note_on_c, 2, 56, 0
4, 10320, Note_on_c, 2, 56, 110
4, 10533, Note_on_c, 2, 55, 80
4, 10540, Note_on_c, 2, 56, 0
4, 10623, Note_on_c, 2, 55, 0
4, 10642, Note_on_c, 2, 54, 80
4, 10732, Note_on_c, 2, 54, 0
4, 10752, Note_on_c, 2, 54, 80
4, 10782, Note_on_c, 2, 54, 0
4, 10805, Note_on_c, 2, 53, 80
4, 10835, Note_on_c, 2, 53, 0
4, 10859, Note_on_c, 2, 51, 80
4, 10889, Note_on_c, 2, 51, 0
4, 10913, Note_on_c, 2, 51, 80
4, 10943, Note_on_c, 2, 51, 0
4, 10968, Note_on_c, 2, 51, 80
4, 10998, Note_on_c, 2, 51, 0
4, 11022, Note_on_c, 2, 51, 80
4, 11052, Note_on_c, 2, 51, 0
4, 11076, Note_on_c, 2, 50, 80
4, 11106, Note_on_c, 2, 50, 0
4, 11130, Note_on_c, 2, 50, 80
4, 11160, Note_on_c, 2, 50, 0
4, 11186, Note_on_c, 2, 49, 100
4, 11216, Note_on_c, 2, 49, 0
4, 11234, Note_on_c, 2, 49, 80
4, 11264, Note_on_c, 2, 49, 0
4, 11282, Note_on_c, 2, 49, 80
4, 11312, Note_on_c, 2, 49, 0
4, 11330, Note_on_c, 2, 49, 80
4, 11360, Note_on_c, 2, 49, 0
4, 11378, Note_on_c, 2, 49, 80
4, 11408, Note_on_c, 2, 49, 0
4, 11428, Note_on_c, 2, 49, 80
4, 11458, Note_on_c, 2, 49, 0
4, 11499, Note_on_c, 2, 48, 100
4, 11544, Note_on_c, 2, 48, 0
4, 11617, Note_on_c, 2, 60, 110
4, 11830, Note_on_c, 2, 48, 80
4, 11832, Note_on_c, 2, 60, 0
4, 11875, Note_on_c, 2, 48, 0
4, 11940, Note_on_c, 2, 47, 80
4, 11985, Note_on_c, 2, 47, 0
4, 12066, Note_on_c, 2, 59, 110
4, 12286, Note_on_c, 2, 59, 0
4, 12297, Note_on_c, 2, 47, 80
4, 12342, Note_on_c, 2, 47, 0
4, 12406, Note_on_c, 2, 46, 80
4, 12451, Note_on_c, 2, 46, 0
4, 12520, Note_on_c, 2, 58, 110
4, 12715, Note_on_c, 2, 58, 0
4, 12735, Note_on_c, 2, 58, 80
4, 12780, Note_on_c, 2, 58, 0
4, 12847, Note_on_c, 2, 56, 100
4, 12892, Note_on_c, 2, 56, 0
4, 12970, Note_on_c, 2, 44, 110
4, 13060, Note_on_c, 2, 44, 0
4, 13200, Control_c, 2, 11, 55
4, 13319, Note_on_c, 2, 61, 50
4, 13488, Note_on_c, 2, 60, 50
4, 13496, Note_on_c, 2, 61, 0
4, 13540, Note_on_c, 2, 61, 50
4, 13548, Note_on_c, 2, 60, 0
4, 13596, Note_on_c, 2, 60, 50
4, 13604, Note_on_c, 2, 61, 0
4, 13649, Note_on_c, 2, 61, 50
4, 13656, Note_on_c, 2, 60, 0
4, 13710, Note_on_c, 2, 58, 50
4, 13715, Note_on_c, 2, 61, 0
4, 13768, Note_on_c, 2, 61, 50
4, 13776, Note_on_c, 2, 58, 0
4, 13853, Note_on_c, 2, 61, 0
4, 13873, Note_on_c, 2, 58, 60
4, 14039, Note_on_c, 2, 58, 0
4, 14040, Note_on_c, 2, 57, 50
4, 14094, Note_on_c, 2, 58, 50
4, 14099, Note_on_c, 2, 57, 0
4, 14150, Note_on_c, 2, 46, 50
4, 14159, Note_on_c, 2, 58, 0
4, 14209, Note_on_c, 2, 48, 50
4, 14217, Note_on_c, 2, 46, 0
4, 14299, Note_on_c, 2, 48, 0
4, 14322, Note_on_c, 2, 53, 50
4, 14439, Note_on_c, 2, 52, 50
4, 14442, Note_on_c, 2, 53, 0
4, 14547, Note_on_c, 2, 49, 50
4, 14559, Note_on_c, 2, 52, 0
4, 14654, Note_on_c, 2, 48, 50
4, 14667, Note_on_c, 2, 49, 0
4, 14744, Note_on_c, 2, 48, 0
4, 14763, Note_on_c, 2, 53, 50
4, 14869, Note_on_c, 2, 52, 50
4, 14883, Note_on_c, 2, 53, 0
4, 14976, Note_on_c, 2, 49, 50
4, 14989, Note_on_c, 2, 52, 0
4, 15086, Note_on_c, 2, 36, 50
4, 15096, Note_on_c, 2, 49, 0
4, 15206, Note_on_c, 2, 36, 0
4, 15360, Control_c, 2, 11, 65
4, 15388, Note_on_c, 2, 53, 80
4, 15408, Note_on_c, 2, 44, 100
4, 15413, Note_on_c, 2, 53, 0
4, 15490, Note_on_c, 2, 46, 80
4, 15493, Note_on_c, 2, 44, 0
4, 15518, Note_on_c, 2, 48, 80
4, 15522, Note_on_c, 2, 46, 0
4, 15628, Note_on_c, 2, 48, 0
4, 19321, Program_c, 2, 45
4, 19370, Control_c, 2, 11, 55
4, 19397, Note_on_c, 2, 51, 50
4, 19457, Note_on_c, 2, 51, 0
4, 19512, Note_on_c, 2, 53, 50
4, 19572, Note_on_c, 2, 53, 0
4, 19628, Note_on_c, 2, 55, 50
4, 19688, Note_on_c, 2, 55, 0
4, 19753, Note_on_c, 2, 56, 50
4, 19800, Program_c, 2, 48
4, 19813, Note_on_c, 2, 56, 0
4, 19867, Note_on_c, 2, 51, 60
4, 19957, Note_on_c, 2, 51, 0
4, 19978, Note_on_c, 2, 58, 60
4, 19978, Note_on_c, 2, 51, 60
4, 20068, Note_on_c, 2, 58, 0
4, 20208, Note_on_c, 2, 51, 0
4, 20218, Note_on_c, 2, 56, 60
4, 20308, Note_on_c, 2, 56, 0
4, 20329, Note_on_c, 2, 51, 60
4, 20419, Note_on_c, 2, 51, 0
4, 20452, Note_on_c, 2, 58, 60
4, 20542, Note_on_c, 2, 58, 0
4, 20562, Note_on_c, 2, 43, 60
4, 20652, Note_on_c, 2, 43, 0
4, 20679, Note_on_c, 2, 44, 60
4, 20769, Note_on_c, 2, 44, 0
4, 20790, Note_on_c, 2, 60, 60
4, 20790, Note_on_c, 2, 56, 60
4, 20880, Note_on_c, 2, 60, 0
4, 20902, Note_on_c, 2, 58, 60
4, 20905, Note_on_c, 2, 56, 0
4, 21014, Note_on_c, 2, 46, 60
4, 21104, Note_on_c, 2, 46, 0
4, 21126, Note_on_c, 2, 51, 60
4, 21140, Note_on_c, 2, 58, 0
4, 21216, Note_on_c, 2, 51, 0
4, 21354, Note_on_c, 2, 57, 80
4, 21384, Note_on_c, 2, 57, 0
4, 21407, Note_on_c, 2, 57, 80
4, 21437, Note_on_c, 2, 57, 0
4, 21461, Note_on_c, 2, 57, 80
4, 21491, Note_on_c, 2, 57, 0
4, 21514, Note_on_c, 2, 57, 80
4, 21544, Note_on_c, 2, 57, 0
4, 21574, Note_on_c, 2, 58, 85
4, 21604, Note_on_c, 2, 58, 0
4, 21634, Note_on_c, 2, 58, 85
4, 21664, Note_on_c, 2, 58, 0
4, 21694, Note_on_c, 2, 56, 85
4, 21724, Note_on_c, 2, 56, 0
4, 21746, Note_on_c, 2, 56, 85
4, 21776, Note_on_c, 2, 56, 0
4, 21801, Note_on_c, 2, 55, 90
4, 21831, Note_on_c, 2, 55, 0
4, 21855, Note_on_c, 2, 55, 90
4, 21885, Note_on_c, 2, 55, 0
4, 21911, Note_on_c, 2, 56, 95
4, 21941, Note_on_c, 2, 56, 0
4, 21965, Note_on_c, 2, 56, 95
4, 21995, Note_on_c, 2, 56, 0
4, 22021, Note_on_c, 2, 53, 95
4, 22051, Note_on_c, 2, 53, 0
4, 22075, Note_on_c, 2, 53, 95
4, 22105, Note_on_c, 2, 53, 0
4, 22131, Note_on_c, 2, 55, 95
4, 22161, Note_on_c, 2, 55, 0
4, 22187, Note_on_c, 2, 55, 95
4, 22217, Note_on_c, 2, 55, 0
4, 22245, Note_on_c, 2, 49, 100
4, 22335, Note_on_c, 2, 49, 0
4, 22352, Note_on_c, 2, 61, 90
4, 22422, Note_on_c, 2, 61, 0
4, 22433, Note_on_c, 2, 61, 70
4, 22455, Note_on_c, 2, 61, 0
4, 22460, Note_on_c, 2, 60, 70
4, 22550, Note_on_c, 2, 60, 0
4, 22568, Note_on_c, 2, 48, 70
4, 22681, Note_on_c, 2, 49, 70
4, 22688, Note_on_c, 2, 48, 0
4, 22771, Note_on_c, 2, 49, 0
4, 22788, Control_c, 2, 11, 45
4, 22788, Note_on_c, 2, 61, 100
4, 22858, Note_on_c, 2, 61, 0
4, 22869, Note_on_c, 2, 61, 90
4, 22891, Note_on_c, 2, 61, 0
4, 22896, Note_on_c, 2, 60, 80
4, 22986, Note_on_c, 2, 60, 0
4, 23004, Note_on_c, 2, 48, 70
4, 23113, Note_on_c, 2, 49, 70
4, 23116, Note_on_c, 2, 48, 0
4, 23203, Note_on_c, 2, 49, 0
4, 23233, Control_c, 2, 11, 55
4, 23233, Note_on_c, 2, 50, 90
4, 23313, Note_on_c, 2, 50, 0
4, 23450, Note_on_c, 2, 50, 80
4, 23540, Note_on_c, 2, 50, 0
4, 23561, Note_on_c, 2, 51, 80
4, 23671, Note_on_c, 2, 51, 0
4, 23671, Note_on_c, 2, 52, 80
4, 23781, Note_on_c, 2, 52, 0
4, 23781, Note_on_c, 2, 53, 80
4, 23890, Note_on_c, 2, 55, 80
4, 23891, Note_on_c, 2, 53, 0
4, 24000, Note_on_c, 2, 55, 0
4, 24005, Note_on_c, 2, 56, 80
4, 24115, Note_on_c, 2, 56, 0
4, 24983, Note_on_c, 2, 55, 80
4, 25048, Note_on_c, 2, 55, 0
4, 25067, Note_on_c, 2, 55, 80
4, 25090, Note_on_c, 2, 55, 0
4, 25095, Note_on_c, 2, 56, 80
4, 25175, Note_on_c, 2, 56, 0
4, 25203, Note_on_c, 2, 55, 80
4, 25268, Note_on_c, 2, 55, 0
4, 25287, Note_on_c, 2, 55, 80
4, 25310, Note_on_c, 2, 55, 0
4, 25318, Note_on_c, 2, 56, 80
4, 25398, Note_on_c, 2, 56, 0
4, 25428, Control_c, 2, 11, 60
4, 25428, Note_on_c, 2, 58, 80
4, 25466, Control_c, 2, 11, 61
4, 25505, Control_c, 2, 11, 62
4, 25509, Note_on_c, 2, 60, 85
4, 25518, Note_on_c, 2, 58, 0
4, 25539, Note_on_c, 2, 60, 0
4, 25542, Note_on_c, 2, 61, 90
4, 25543, Control_c, 2, 11, 63
4, 25582, Control_c, 2, 11, 64
4, 25620, Control_c, 2, 11, 65
4, 25649, Note_on_c, 2, 63, 90
4, 25652, Note_on_c, 2, 61, 0
4, 25659, Control_c, 2, 11, 66
4, 25697, Control_c, 2, 11, 67
4, 25736, Control_c, 2, 11, 68
4, 25739, Note_on_c, 2, 63, 0
4, 25761, Note_on_c, 2, 52, 80
4, 25774, Control_c, 2, 11, 69
4, 25791, Note_on_c, 2, 52, 0
4, 25813, Control_c, 2, 11, 70
4, 25817, Note_on_c, 2, 52, 80
4, 25847, Note_on_c, 2, 52, 0
4, 25852, Control_c, 2, 11, 71
4, 25874, Note_on_c, 2, 52, 80
4, 25890, Control_c, 2, 11, 72
4, 25904, Note_on_c, 2, 52, 0
4, 25925, Note_on_c, 2, 52, 80
4, 25929, Control_c, 2, 11, 73
4, 25955, Note_on_c, 2, 52, 0
4, 25967, Control_c, 2, 11, 74
4, 25988, Note_on_c, 2, 51, 85
4, 26006, Control_c, 2, 11, 75
4, 26018, Note_on_c, 2, 51, 0
4, 26039, Note_on_c, 2, 51, 85
4, 26044, Control_c, 2, 11, 76
4, 26069, Note_on_c, 2, 51, 0
4, 26083, Control_c, 2, 11, 77
4, 26091, Note_on_c, 2, 51, 85
4, 26121, Note_on_c, 2, 51, 0
4, 26121, Control_c, 2, 11, 78
4, 26141, Note_on_c, 2, 51, 85
4, 26160, Control_c, 2, 11, 79
4, 26171, Note_on_c, 2, 51, 0
4, 26199, Control_c, 2, 11, 80
4, 26199, Note_on_c, 2, 50, 90
4, 26221, Control_c, 2, 11, 79
4, 26229, Note_on_c, 2, 50, 0
4, 26244, Control_c, 2, 11, 78
4, 26253, Note_on_c, 2, 50, 90
4, 26267, Control_c, 2, 11, 77
4, 26283, Note_on_c, 2, 50, 0
4, 26289, Control_c, 2, 11, 76
4, 26307, Note_on_c, 2, 49, 90
4, 26312, Control_c, 2, 11, 75
4, 26335, Control_c, 2, 11, 74
4, 26337, Note_on_c, 2, 49, 0
4, 26357, Control_c, 2, 11, 73
4, 26362, Note_on_c, 2, 49, 90
4, 26380, Control_c, 2, 11, 72
4, 26392, Note_on_c, 2, 49, 0
4, 26403, Control_c, 2, 11, 71
4, 26419, Note_on_c, 2, 48, 85
4, 26426, Control_c, 2, 11, 70
4, 26448, Control_c, 2, 11, 69
4, 26449, Note_on_c, 2, 48, 0
4, 26471, Control_c, 2, 11, 68
4, 26474, Note_on_c, 2, 48, 85
4, 26494, Control_c, 2, 11, 67
4, 26504, Note_on_c, 2, 48, 0
4, 26516, Control_c, 2, 11, 66
4, 26529, Note_on_c, 2, 48, 85
4, 26539, Control_c, 2, 11, 65
4, 26559, Note_on_c, 2, 48, 0
4, 26562, Control_c, 2, 11, 64
4, 26584, Control_c, 2, 11, 63
4, 26584, Note_on_c, 2, 48, 85
4, 26607, Control_c, 2, 11, 62
4, 26614, Note_on_c, 2, 48, 0
4, 26630, Control_c, 2, 11, 61
4, 26653, Control_c, 2, 11, 60
4, 26653, Note_on_c, 2, 48, 85
4, 26683, Note_on_c, 2, 48, 0
4, 26695, Control_c, 2, 11, 61
4, 26708, Note_on_c, 2, 48, 85
4, 26738, Note_on_c, 2, 48, 0
4, 26738, Control_c, 2, 11, 62
4, 26762, Note_on_c, 2, 48, 80
4, 26781, Control_c, 2, 11, 63
4, 26792, Note_on_c, 2, 48, 0
4, 26815, Note_on_c, 2, 48, 80
4, 26824, Control_c, 2, 11, 64
4, 26845, Note_on_c, 2, 48, 0
4, 26867, Control_c, 2, 11, 65
4, 26869, Note_on_c, 2, 46, 80
4, 26899, Note_on_c, 2, 46, 0
4, 26909, Control_c, 2, 11, 66
4, 26924, Note_on_c, 2, 46, 80
4, 26952, Control_c, 2, 11, 67
4, 26954, Note_on_c, 2, 46, 0
4, 26977, Note_on_c, 2, 46, 80
4, 26995, Control_c, 2, 11, 68
4, 27007, Note_on_c, 2, 46, 0
4, 27027, Note_on_c, 2, 46, 80
4, 27038, Control_c, 2, 11, 69
4, 27057, Note_on_c, 2, 46, 0
4, 27081, Control_c, 2, 11, 70
4, 27085, Note_on_c, 2, 46, 80
4, 27115, Note_on_c, 2, 46, 0
4, 27123, Control_c, 2, 11, 71
4, 27140, Note_on_c, 2, 46, 80
4, 27166, Control_c, 2, 11, 72
4, 27170, Note_on_c, 2, 46, 0
4, 27188, Note_on_c, 2, 46, 80
4, 27209, Control_c, 2, 11, 73
4, 27218, Note_on_c, 2, 46, 0
4, 27240, Note_on_c, 2, 46, 80
4, 27252, Control_c, 2, 11, 74
4, 27270, Note_on_c, 2, 46, 0
4, 27295, Control_c, 2, 11, 75
4, 27295, Note_on_c, 2, 44, 90
4, 27365, Note_on_c, 2, 44, 0
4, 27411, Note_on_c, 2, 49, 90
4, 27481, Note_on_c, 2, 49, 0
4, 27521, Note_on_c, 2, 43, 90
4, 27591, Note_on_c, 2, 43, 0
4, 27633, Note_on_c, 2, 48, 90
4, 27703, Note_on_c, 2, 48, 0
4, 27743, Note_on_c, 2, 53, 90
4, 27743, Note_on_c, 2, 41, 90
4, 27813, Note_on_c, 2, 41, 0
4, 27813, Note_on_c, 2, 53, 0
4, 27840, Control_c, 2, 11, 55
4, 27850, Note_on_c, 2, 58, 50
4, 27850, Note_on_c, 2, 46, 50
4, 27930, Note_on_c, 2, 58, 0
4, 27950, Note_on_c, 2, 46, 0
4, 27963, Note_on_c, 2, 52, 50
4, 28063, Note_on_c, 2, 52, 0
4, 28067, Note_on_c, 2, 53, 50
4, 28167, Note_on_c, 2, 53, 0
4, 28176, Note_on_c, 2, 36, 50
4, 28276, Note_on_c, 2, 36, 0
4, 28285, Note_on_c, 2, 37, 50
4, 28320, Control_c, 2, 11, 50
4, 28385, Note_on_c, 2, 37, 0
4, 28405, Note_on_c, 2, 46, 50
4, 28575, Note_on_c, 2, 46, 0
4, 28954, Note_on_c, 2, 46, 50
4, 29024, Note_on_c, 2, 46, 0
4, 29068, Note_on_c, 2, 49, 50
4, 29138, Note_on_c, 2, 49, 0
4, 29182, Note_on_c, 2, 46, 50
4, 29252, Note_on_c, 2, 46, 0
4, 29296, Note_on_c, 2, 49, 50
4, 29466, Note_on_c, 2, 49, 0
4, 29853, Note_on_c, 2, 46, 50
4, 29923, Note_on_c, 2, 46, 0
4, 29967, Note_on_c, 2, 49, 50
4, 30037, Note_on_c, 2, 49, 0
4, 30081, Note_on_c, 2, 46, 50
4, 30151, Note_on_c, 2, 46, 0
4, 30195, Note_on_c, 2, 49, 50
4, 30423, Note_on_c, 2, 46, 35
4, 30425, Note_on_c, 2, 49, 0
4, 30537, Note_on_c, 2, 49, 35
4, 30543, Note_on_c, 2, 46, 0
4, 30630, Note_on_c, 2, 49, 0
4, 30651, Note_on_c, 2, 46, 50
4, 30871, Note_on_c, 2, 46, 0
4, 30879, Note_on_c, 2, 49, 50
4, 31099, Note_on_c, 2, 49, 0
4, 31107, Note_on_c, 2, 46, 50
4, 31827, Note_on_c, 2, 46, 0
4, 31882, Note_on_c, 2, 46, 45
4, 32047, Note_on_c, 2, 46, 0
4, 32071, Note_on_c, 2, 48, 40
4, 32221, Note_on_c, 2, 48, 0
4, 32240, Note_on_c, 2, 41, 35
4, 32420, Note_on_c, 2, 41, 0
4, 35612, Control_c, 2, 11, 60
4, 35612, Note_on_c, 2, 52, 50
4, 35996, Note_on_c, 2, 40, 50
4, 36002, Note_on_c, 2, 52, 0
4, 36206, Note_on_c, 2, 40, 0
4, 36222, Note_on_c, 2, 41, 50
4, 36492, Note_on_c, 2, 41, 0
4, 37427, Note_on_c, 2, 48, 50
4, 37554, Note_on_c, 2, 41, 50
4, 37567, Note_on_c, 2, 48, 0
4, 37644, Note_on_c, 2, 41, 0
4, 38630, Note_on_c, 2, 48, 50
4, 38760, Note_on_c, 2, 53, 50
4, 38775, Note_on_c, 2, 48, 0
4, 38899, Note_on_c, 2, 51, 50
4, 38905, Note_on_c, 2, 53, 0
4, 39010, Note_on_c, 2, 49, 50
4, 39029, Note_on_c, 2, 51, 0
4, 39311, Note_on_c, 2, 44, 60
4, 39325, Note_on_c, 2, 49, 0
4, 39580, Note_on_c, 2, 46, 60
4, 39591, Note_on_c, 2, 44, 0
4, 39830, Note_on_c, 2, 49, 60
4, 39840, Note_on_c, 2, 46, 0
4, 40087, Note_on_c, 2, 53, 60
4, 40090, Note_on_c, 2, 49, 0
4, 40340, Note_on_c, 2, 49, 55
4, 40347, Note_on_c, 2, 53, 0
4, 40600, Note_on_c, 2, 49, 0
4, 40630, Note_on_c, 2, 48, 50
4, 41110, Note_on_c, 2, 48, 0
4, 41971, Note_on_c, 2, 48, 50
4, 42106, Note_on_c, 2, 41, 50
4, 42111, Note_on_c, 2, 48, 0
4, 42196, Note_on_c, 2, 41, 0
4, 42870, Note_on_c, 2, 53, 50
4, 43179, Note_on_c, 2, 51, 50
4, 43190, Note_on_c, 2, 53, 0
4, 43719, Note_on_c, 2, 50, 50
4, 43729, Note_on_c, 2, 51, 0
4, 44040, Note_on_c, 2, 49, 50
4, 44049, Note_on_c, 2, 50, 0
4, 44307, Note_on_c, 2, 48, 55
4, 44315, Note_on_c, 2, 49, 0
4, 44685, Note_on_c, 2, 53, 55
4, 44687, Note_on_c, 2, 48, 0
4, 44817, Note_on_c, 2, 51, 55
4, 44820, Note_on_c, 2, 53, 0
4, 45335, Note_on_c, 2, 56, 55
4, 45337, Note_on_c, 2, 51, 0
4, 45472, Note_on_c, 2, 46, 55
4, 45475, Note_on_c, 2, 56, 0
4, 45594, Note_on_c, 2, 48, 55
4, 45597, Note_on_c, 2, 46, 0
4, 45723, Note_on_c, 2, 41, 55
4, 45724, Note_on_c, 2, 48, 0
4, 45840, Control_c, 2, 11, 65
4, 45883, Note_on_c, 2, 47, 50
4, 45886, Note_on_c, 2, 41, 0
4, 46131, Note_on_c, 2, 50, 50
4, 46133, Note_on_c, 2, 47, 0
4, 46357, Note_on_c, 2, 47, 50
4, 46361, Note_on_c, 2, 50, 0
4, 46467, Note_on_c, 2, 47, 0
4, 46696, Note_on_c, 2, 50, 50
4, 46857, Note_on_c, 2, 48, 50
4, 46866, Note_on_c, 2, 50, 0
4, 46967, Note_on_c, 2, 48, 0
4, 47122, Note_on_c, 2, 41, 50
4, 47245, Note_on_c, 2, 44, 54
4, 47252, Note_on_c, 2, 41, 0
4, 47367, Note_on_c, 2, 48, 58
4, 47375, Note_on_c, 2, 44, 0
4, 47477, Note_on_c, 2, 48, 0
4, 47838, Note_on_c, 2, 48, 62
4, 47948, Note_on_c, 2, 48, 0
4, 48071, Note_on_c, 2, 41, 66
4, 48306, Note_on_c, 2, 36, 50
4, 48321, Note_on_c, 2, 41, 0
4, 48416, Note_on_c, 2, 36, 0
4, 49056, Note_on_c, 2, 39, 50
4, 49306, Note_on_c, 2, 44, 50
4, 49316, Note_on_c, 2, 39, 0
4, 49416, Note_on_c, 2, 44, 0
4, 50044, Note_on_c, 2, 39, 50
4, 50293, Note_on_c, 2, 44, 50
4, 50309, Note_on_c, 2, 39, 0
4, 50403, Note_on_c, 2, 44, 0
4, 50905, Note_on_c, 2, 53, 50
4, 52357, Note_on_c, 2, 51, 55
4, 52365, Note_on_c, 2, 53, 0
4, 52477, Note_on_c, 2, 49, 60
4, 52487, Note_on_c, 2, 51, 0
4, 52594, Note_on_c, 2, 48, 65
4, 52607, Note_on_c, 2, 49, 0
4, 52724, Note_on_c, 2, 48, 0
4, 52727, Note_on_c, 2, 47, 70
4, 52837, Note_on_c, 2, 47, 0
4, 53637, Note_on_c, 2, 43, 55
4, 53807, Note_on_c, 2, 43, 0
4, 53980, Note_on_c, 2, 58, 50
4, 53980, Note_on_c, 2, 46, 50
4, 54117, Note_on_c, 2, 51, 50
4, 54125, Note_on_c, 2, 46, 0
4, 54125, Note_on_c, 2, 58, 0
4, 54373, Note_on_c, 2, 44, 50
4, 54392, Note_on_c, 2, 51, 0
4, 54483, Note_on_c, 2, 44, 0
4, 54503, Note_on_c, 2, 53, 50
4, 54503, Note_on_c, 2, 41, 50
4, 54635, Note_on_c, 2, 46, 50
4, 54643, Note_on_c, 2, 41, 0
4, 54643, Note_on_c, 2, 53, 0
4, 54914, Note_on_c, 2, 51, 50
4, 54925, Note_on_c, 2, 46, 0
4, 57674, Note_on_c, 2, 51, 0
4, 64200, Control_c, 2, 11, 50
4, 64261, Note_on_c, 2, 51, 45
4, 64417, Note_on_c, 2, 53, 45
4, 64426, Note_on_c, 2, 51, 0
4, 64554, Note_on_c, 2, 55, 45
4, 64562, Note_on_c, 2, 53, 0
4, 64699, Note_on_c, 2, 56, 45
4, 64704, Note_on_c, 2, 55, 0
4, 64819, Note_on_c, 2, 56, 0
4, 64973, Note_on_c, 2, 39, 60
4, 65258, Note_on_c, 2, 44, 45
4, 65268, Note_on_c, 2, 39, 0
4, 65368, Note_on_c, 2, 44, 0
4, 65640, Program_c, 2, 45
4, 65663, Note_on_c, 2, 43, 50
4, 65713, Note_on_c, 2, 43, 0
4, 65797, Note_on_c, 2, 44, 50
4, 65847, Note_on_c, 2, 44, 0
4, 65939, Note_on_c, 2, 56, 50
4, 65989, Note_on_c, 2, 56, 0
4, 66080, Note_on_c, 2, 58, 50
4, 66130, Note_on_c, 2, 58, 0
4, 66213, Note_on_c, 2, 46, 50
4, 66263, Note_on_c, 2, 46, 0
4, 66362, Note_on_c, 2, 51, 50
4, 66412, Note_on_c, 2, 51, 0
4, 66600, Program_c, 2, 48
4, 66687, Note_on_c, 2, 45, 50
4, 66964, Note_on_c, 2, 46, 50
4, 66972, Note_on_c, 2, 45, 0
4, 67084, Note_on_c, 2, 46, 0
4, 67265, Note_on_c, 2, 43, 50
4, 67541, Note_on_c, 2, 44, 50
4, 67550, Note_on_c, 2, 43, 0
4, 67841, Note_on_c, 2, 44, 0
4, 67857, Note_on_c, 2, 49, 50
4, 68143, Note_on_c, 2, 48, 50
4, 68152, Note_on_c, 2, 49, 0
4, 68413, Note_on_c, 2, 48, 0
4, 68430, Note_on_c, 2, 49, 50
4, 68700, Note_on_c, 2, 49, 0
4, 68705, Note_on_c, 2, 50, 50
4, 69025, Note_on_c, 2, 50, 0
4, 69030, Note_on_c, 2, 51, 50
4, 69140, Note_on_c, 2, 51, 0
4, 69484, Note_on_c, 2, 50, 50
4, 69638, Note_on_c, 2, 51, 50
4, 69649, Note_on_c, 2, 50, 0
4, 69748, Note_on_c, 2, 51, 0
4, 70350, Note_on_c, 2, 41, 50
4, 70655, Note_on_c, 2, 43, 50
4, 70660, Note_on_c, 2, 41, 0
4, 70765, Note_on_c, 2, 43, 0
4, 70989, Note_on_c, 2, 44, 50
4, 71334, Note_on_c, 2, 43, 50
4, 71349, Note_on_c, 2, 44, 0
4, 71454, Note_on_c, 2, 43, 0
4, 71686, Note_on_c, 2, 41, 55
4, 72050, Note_on_c, 2, 43, 50
4, 72071, Note_on_c, 2, 41, 0
4, 72530, Note_on_c, 2, 43, 0
4, 72565, Note_on_c, 2, 44, 50
4, 72956, Note_on_c, 2, 47, 55
4, 72970, Note_on_c, 2, 44, 0
4, 73176, Note_on_c, 2, 47, 0
4, 73457, Note_on_c, 2, 48, 45
4, 73677, Note_on_c, 2, 48, 0
4, 73856, Note_on_c, 2, 53, 45
4, 74206, Note_on_c, 2, 53, 0
4, 74221, Note_on_c, 2, 55, 55
4, 74387, Note_on_c, 2, 56, 55
4, 74391, Note_on_c, 2, 55, 0
4, 74559, Note_on_c, 2, 53, 55
4, 74567, Note_on_c, 2, 56, 0
4, 74679, Note_on_c, 2, 53, 0
4, 76060, Note_on_c, 2, 44, 50
4, 76415, Note_on_c, 2, 43, 50
4, 76420, Note_on_c, 2, 44, 0
4, 76605, Note_on_c, 2, 43, 0
4, 76969, Note_on_c, 2, 43, 45
4, 77220, Note_on_c, 2, 36, 45
4, 77234, Note_on_c, 2, 43, 0
4, 77390, Note_on_c, 2, 36, 0
4, 78194, Note_on_c, 2, 43, 45
4, 78337, Note_on_c, 2, 48, 45
4, 78344, Note_on_c, 2, 43, 0
4, 78447, Note_on_c, 2, 48, 0
4, 79296, Note_on_c, 2, 43, 45
4, 79442, Note_on_c, 2, 48, 45
4, 79446, Note_on_c, 2, 43, 0
4, 79552, Note_on_c, 2, 48, 0
4, 79856, Note_on_c, 2, 48, 50
4, 79995, Note_on_c, 2, 43, 50
4, 80001, Note_on_c, 2, 48, 0
4, 80275, Note_on_c, 2, 43, 0
4, 80542, Note_on_c, 2, 50, 45
4, 80652, Note_on_c, 2, 50, 0
4, 80945, Note_on_c, 2, 50, 50
4, 81082, Note_on_c, 2, 45, 55
4, 81101, Note_on_c, 2, 50, 0
4, 81362, Note_on_c, 2, 45, 0
4, 81631, Note_on_c, 2, 52, 50
4, 81786, Note_on_c, 2, 52, 0
4, 82066, Note_on_c, 2, 45, 45
4, 82210, Note_on_c, 2, 50, 45
4, 82221, Note_on_c, 2, 45, 0
4, 82370, Note_on_c, 2, 50, 0
4, 82681, Note_on_c, 2, 43, 45
4, 82929, Note_on_c, 2, 44, 50
4, 82936, Note_on_c, 2, 43, 0
4, 83562, Note_on_c, 2, 39, 50
4, 83574, Note_on_c, 2, 44, 0
4, 84168, Note_on_c, 2, 44, 50
4, 84187, Note_on_c, 2, 39, 0
4, 84791, Note_on_c, 2, 39, 50
4, 84803, Note_on_c, 2, 44, 0
4, 85091, Note_on_c, 2, 39, 0
4, 85390, Note_on_c, 2, 53, 50
4, 85694, Note_on_c, 2, 51, 50
4, 85705, Note_on_c, 2, 53, 0
4, 85995, Note_on_c, 2, 50, 50
4, 86014, Note_on_c, 2, 51, 0
4, 86115, Note_on_c, 2, 50, 0
4, 86459, Note_on_c, 2, 51, 50
4, 86609, Note_on_c, 2, 53, 50
4, 86619, Note_on_c, 2, 51, 0
4, 86913, Note_on_c, 2, 51, 50
4, 86919, Note_on_c, 2, 53, 0
4, 87217, Note_on_c, 2, 50, 50
4, 87223, Note_on_c, 2, 51, 0
4, 87522, Note_on_c, 2, 51, 50
4, 87527, Note_on_c, 2, 50, 0
4, 87824, Note_on_c, 2, 46, 50
4, 87832, Note_on_c, 2, 51, 0
4, 88132, Note_on_c, 2, 51, 50
4, 88139, Note_on_c, 2, 46, 0
4, 88252, Note_on_c, 2, 51, 0
4, 88431, Note_on_c, 2, 46, 50
4, 88738, Note_on_c, 2, 51, 50
4, 88746, Note_on_c, 2, 46, 0
4, 88858, Note_on_c, 2, 51, 0
4, 89038, Note_on_c, 2, 49, 55
4, 89158, Note_on_c, 2, 49, 0
4, 89337, Note_on_c, 2, 48, 60
4, 89490, Note_on_c, 2, 41, 60
4, 89502, Note_on_c, 2, 48, 0
4, 89610, Note_on_c, 2, 41, 0
4, 89635, Note_on_c, 2, 47, 60
4, 89735, Note_on_c, 2, 47, 0
4, 89783, Note_on_c, 2, 47, 75
4, 90064, Note_on_c, 2, 48, 60
4, 90073, Note_on_c, 2, 47, 0
4, 90184, Note_on_c, 2, 48, 0
4, 90221, Note_on_c, 2, 41, 70
4, 90321, Note_on_c, 2, 41, 0
4, 90366, Note_on_c, 2, 41, 70
4, 90466, Note_on_c, 2, 41, 0
4, 90801, Note_on_c, 2, 42, 75
4, 90901, Note_on_c, 2, 42, 0
4, 90945, Note_on_c, 2, 42, 75
4, 91045, Note_on_c, 2, 42, 0
4, 91237, Note_on_c, 2, 42, 70
4, 91393, Note_on_c, 2, 43, 70
4, 91412, Note_on_c, 2, 42, 0
4, 91513, Note_on_c, 2, 43, 0
4, 91834, Note_on_c, 2, 43, 55
4, 91954, Note_on_c, 2, 43, 0
4, 91977, Note_on_c, 2, 43, 70
4, 92097, Note_on_c, 2, 43, 0
4, 92128, Note_on_c, 2, 43, 60
4, 92248, Note_on_c, 2, 43, 0
4, 92405, Note_on_c, 2, 43, 60
4, 92525, Note_on_c, 2, 43, 0
4, 92542, Note_on_c, 2, 43, 60
4, 92812, Note_on_c, 2, 43, 0
4, 92838, Note_on_c, 2, 43, 60
4, 93093, Note_on_c, 2, 43, 0
4, 93111, Note_on_c, 2, 43, 60
4, 93351, Note_on_c, 2, 43, 0
4, 93381, Note_on_c, 2, 43, 60
4, 93641, Note_on_c, 2, 43, 0
4, 93667, Note_on_c, 2, 43, 63
4, 93777, Note_on_c, 2, 43, 0
4, 93797, Note_on_c, 2, 43, 66
4, 93907, Note_on_c, 2, 43, 0
4, 93932, Note_on_c, 2, 43, 69
4, 94042, Note_on_c, 2, 43, 0
4, 94067, Note_on_c, 2, 43, 72
4, 94177, Note_on_c, 2, 43, 0
4, 94206, Note_on_c, 2, 43, 75
4, 94256, Note_on_c, 2, 43, 0
4, 94280, Note_on_c, 2, 43, 75
4, 94330, Note_on_c, 2, 43, 0
4, 94348, Note_on_c, 2, 43, 78
4, 94398, Note_on_c, 2, 43, 0
4, 94419, Note_on_c, 2, 43, 78
4, 94469, Note_on_c, 2, 43, 0
4, 94487, Note_on_c, 2, 43, 81
4, 94537, Note_on_c, 2, 43, 0
4, 94560, Note_on_c, 2, 43, 84
4, 94610, Note_on_c, 2, 43, 0
4, 94632, Note_on_c, 2, 43, 84
4, 94682, Note_on_c, 2, 43, 0
4, 94702, Note_on_c, 2, 43, 84
4, 94752, Note_on_c, 2, 43, 0
4, 94780, Control_c, 2, 11, 60
4, 94780, Note_on_c, 2, 48, 70
4, 94810, Note_on_c, 2, 48, 0
4, 94820, Note_on_c, 2, 48, 70
4, 94850, Note_on_c, 2, 48, 0
4, 94860, Note_on_c, 2, 48, 70
4, 94890, Note_on_c, 2, 48, 0
4, 94900, Note_on_c, 2, 48, 70
4, 94930, Note_on_c, 2, 48, 0
4, 94940, Note_on_c, 2, 48, 70
4, 94970, Note_on_c, 2, 48, 0
4, 94980, Note_on_c, 2, 48, 70
4, 95010, Note_on_c, 2, 48, 0
4, 95020, Note_on_c, 2, 51, 70
4, 95050, Note_on_c, 2, 51, 0
4, 95080, Note_on_c, 2, 56, 70
4, 95100, Note_on_c, 2, 60, 70
4, 95110, Note_on_c, 2, 56, 0
4, 95130, Note_on_c, 2, 60, 0
4, 95140, Note_on_c, 2, 60, 70
4, 95170, Note_on_c, 2, 60, 0
4, 95180, Note_on_c, 2, 48, 85
4, 95210, Note_on_c, 2, 48, 0
4, 95220, Note_on_c, 2, 48, 70
4, 95250, Note_on_c, 2, 48, 0
4, 95260, Note_on_c, 2, 48, 70
4, 95290, Note_on_c, 2, 48, 0
4, 95300, Note_on_c, 2, 48, 70
4, 95330, Note_on_c, 2, 48, 0
4, 95340, Note_on_c, 2, 47, 70
4, 95370, Note_on_c, 2, 47, 0
4, 95380, Note_on_c, 2, 47, 70
4, 95410, Note_on_c, 2, 47, 0
4, 95420, Note_on_c, 2, 46, 70
4, 95450, Note_on_c, 2, 46, 0
4, 95460, Note_on_c, 2, 46, 70
4, 95490, Note_on_c, 2, 46, 0
4, 95500, Note_on_c, 2, 46, 70
4, 95530, Note_on_c, 2, 46, 0
4, 95540, Note_on_c, 2, 46, 70
4, 95570, Note_on_c, 2, 46, 0
4, 95580, Note_on_c, 2, 46, 70
4, 95610, Note_on_c, 2, 46, 0
4, 95620, Note_on_c, 2, 46, 70
4, 95650, Note_on_c, 2, 46, 0
4, 95660, Note_on_c, 2, 50, 70
4, 95690, Note_on_c, 2, 50, 0
4, 95720, Note_on_c, 2, 55, 70
4, 95740, Note_on_c, 2, 58, 70
4, 95750, Note_on_c, 2, 55, 0
4, 95770, Note_on_c, 2, 58, 0
4, 95780, Note_on_c, 2, 58, 70
4, 95810, Note_on_c, 2, 58, 0
4, 95820, Note_on_c, 2, 46, 70
4, 95850, Note_on_c, 2, 46, 0
4, 95860, Note_on_c, 2, 46, 70
4, 95890, Note_on_c, 2, 46, 0
4, 95900, Note_on_c, 2, 46, 70
4, 95930, Note_on_c, 2, 46, 0
4, 95940, Note_on_c, 2, 46, 70
4, 95970, Note_on_c, 2, 46, 0
4, 95980, Note_on_c, 2, 45, 70
4, 96010, Note_on_c, 2, 45, 0
4, 96020, Note_on_c, 2, 45, 70
4, 96050, Note_on_c, 2, 45, 0
4, 96060, Note_on_c, 2, 44, 70
4, 96090, Note_on_c, 2, 44, 0
4, 96100, Note_on_c, 2, 56, 70
4, 96130, Note_on_c, 2, 56, 0
4, 96140, Note_on_c, 2, 56, 70
4, 96170, Note_on_c, 2, 56, 0
4, 96180, Note_on_c, 2, 55, 70
4, 96210, Note_on_c, 2, 55, 0
4, 96220, Note_on_c, 2, 53, 70
4, 96250, Note_on_c, 2, 53, 0
4, 96260, Note_on_c, 2, 51, 70
4, 96290, Note_on_c, 2, 51, 0
4, 96300, Note_on_c, 2, 50, 70
4, 96330, Note_on_c, 2, 50, 0
4, 96340, Note_on_c, 2, 48, 70
4, 96370, Note_on_c, 2, 48, 0
4, 96380, Note_on_c, 2, 47, 70
4, 96410, Note_on_c, 2, 47, 0
4, 96420, Note_on_c, 2, 47, 70
4, 96450, Note_on_c, 2, 47, 0
4, 96460, Note_on_c, 2, 47, 70
4, 96490, Note_on_c, 2, 47, 0
4, 96500, Note_on_c, 2, 48, 70
4, 96530, Note_on_c, 2, 48, 0
4, 96540, Note_on_c, 2, 50, 70
4, 96570, Note_on_c, 2, 50, 0
4, 96580, Note_on_c, 2, 53, 70
4, 96610, Note_on_c, 2, 53, 0
4, 96620, Note_on_c, 2, 53, 70
4, 96650, Note_on_c, 2, 53, 0
4, 96660, Note_on_c, 2, 51, 70
4, 96690, Note_on_c, 2, 51, 0
4, 96700, Note_on_c, 2, 52, 70
4, 96730, Note_on_c, 2, 52, 0
4, 96740, Note_on_c, 2, 52, 70
4, 96770, Note_on_c, 2, 52, 0
4, 96780, Note_on_c, 2, 52, 70
4, 96810, Note_on_c, 2, 52, 0
4, 96820, Note_on_c, 2, 53, 70
4, 96850, Note_on_c, 2, 53, 0
4, 96860, Note_on_c, 2, 55, 70
4, 96890, Note_on_c, 2, 55, 0
4, 96900, Note_on_c, 2, 58, 70
4, 96930, Note_on_c, 2, 58, 0
4, 96940, Note_on_c, 2, 58, 70
4, 96970, Note_on_c, 2, 58, 0
4, 96980, Note_on_c, 2, 56, 70
4, 97010, Note_on_c, 2, 56, 0
4, 97020, Note_on_c, 2, 59, 70
4, 97070, Note_on_c, 2, 59, 0
4, 97100, Note_on_c, 2, 60, 70
4, 97150, Note_on_c, 2, 60, 0
4, 97720, Control_c, 2, 11, 50
4, 97720, Note_on_c, 2, 56, 50
4, 97740, Note_on_c, 2, 50, 70
4, 97742, Note_on_c, 2, 56, 0
4, 97800, Note_on_c, 2, 51, 50
4, 97810, Note_on_c, 2, 50, 0
4, 97820, Note_on_c, 2, 53, 50
4, 97822, Note_on_c, 2, 51, 0
4, 97890, Note_on_c, 2, 53, 0
4, 97900, Control_c, 2, 11, 60
4, 97900, Note_on_c, 2, 47, 45
4, 97980, Note_on_c, 2, 48, 46
4, 97990, Note_on_c, 2, 47, 0
4, 98060, Note_on_c, 2, 50, 47
4, 98070, Note_on_c, 2, 48, 0
4, 98140, Note_on_c, 2, 51, 48
4, 98150, Note_on_c, 2, 50, 0
4, 98220, Note_on_c, 2, 53, 49
4, 98230, Note_on_c, 2, 51, 0
4, 98300, Note_on_c, 2, 55, 50
4, 98310, Note_on_c, 2, 53, 0
4, 98350, Note_on_c, 2, 55, 0
4, 98360, Control_c, 2, 11, 50
4, 98360, Note_on_c, 2, 56, 50
4, 98380, Note_on_c, 2, 50, 70
4, 98382, Note_on_c, 2, 56, 0
4, 98440, Note_on_c, 2, 51, 50
4, 98450, Note_on_c, 2, 50, 0
4, 98460, Note_on_c, 2, 53, 50
4, 98462, Note_on_c, 2, 51, 0
4, 98530, Note_on_c, 2, 53, 0
4, 98540, Control_c, 2, 11, 60
4, 98540, Note_on_c, 2, 47, 55
4, 98590, Note_on_c, 2, 47, 0
4, 98600, Note_on_c, 2, 47, 55
4, 98616, Note_on_c, 2, 47, 0
4, 98620, Note_on_c, 2, 48, 55
4, 98650, Note_on_c, 2, 48, 0
4, 98660, Note_on_c, 2, 51, 55
4, 98690, Note_on_c, 2, 51, 0
4, 98700, Note_on_c, 2, 47, 55
4, 98730, Note_on_c, 2, 47, 0
4, 98740, Note_on_c, 2, 48, 55
4, 98770, Note_on_c, 2, 48, 0
4, 98780, Note_on_c, 2, 50, 55
4, 98810, Note_on_c, 2, 50, 0
4, 98820, Note_on_c, 2, 53, 55
4, 98850, Note_on_c, 2, 53, 0
4, 98860, Note_on_c, 2, 49, 55
4, 98890, Note_on_c, 2, 49, 0
4, 98900, Note_on_c, 2, 50, 55
4, 98930, Note_on_c, 2, 50, 0
4, 98940, Note_on_c, 2, 51, 57
4, 98970, Note_on_c, 2, 51, 0
4, 98980, Note_on_c, 2, 55, 57
4, 99010, Note_on_c, 2, 55, 0
4, 99020, Note_on_c, 2, 50, 59
4, 99050, Note_on_c, 2, 50, 0
4, 99060, Note_on_c, 2, 51, 59
4, 99090, Note_on_c, 2, 51, 0
4, 99100, Note_on_c, 2, 53, 61
4, 99130, Note_on_c, 2, 53, 0
4, 99140, Note_on_c, 2, 56, 61
4, 99170, Note_on_c, 2, 56, 0
4, 99180, Note_on_c, 2, 52, 63
4, 99210, Note_on_c, 2, 52, 0
4, 99220, Note_on_c, 2, 53, 63
4, 99250, Note_on_c, 2, 53, 0
4, 99260, Note_on_c, 2, 54, 65
4, 99290, Note_on_c, 2, 54, 0
4, 99320, Note_on_c, 2, 57, 65
4, 99337, Note_on_c, 2, 57, 0
4, 99340, Note_on_c, 2, 57, 65
4, 99390, Note_on_c, 2, 57, 0
4, 99400, Note_on_c, 2, 55, 65
4, 99417, Note_on_c, 2, 55, 0
4, 99420, Note_on_c, 2, 55, 65
4, 99470, Note_on_c, 2, 55, 0
4, 99480, Note_on_c, 2, 58, 65
4, 99497, Note_on_c, 2, 58, 0
4, 99500, Note_on_c, 2, 58, 65
4, 99550, Note_on_c, 2, 58, 0
4, 99560, Note_on_c, 2, 57, 65
4, 99577, Note_on_c, 2, 57, 0
4, 99580, Note_on_c, 2, 57, 65
4, 99630, Note_on_c, 2, 57, 0
4, 99640, Note_on_c, 2, 60, 65
4, 99657, Note_on_c, 2, 60, 0
4, 99660, Note_on_c, 2, 60, 65
4, 99710, Note_on_c, 2, 60, 0
4, 99720, Note_on_c, 2, 60, 65
4, 99737, Note_on_c, 2, 60, 0
4, 99740, Note_on_c, 2, 59, 65
4, 99780, Note_on_c, 2, 59, 65
4, 99790, Note_on_c, 2, 59, 0
4, 99820, Note_on_c, 2, 59, 65
4, 99830, Note_on_c, 2, 59, 0
4, 99850, Note_on_c, 2, 59, 0
4, 99860, Note_on_c, 2, 59, 65
4, 99890, Note_on_c, 2, 59, 0
4, 99900, Note_on_c, 2, 60, 65
4, 99930, Note_on_c, 2, 60, 0
4, 99940, Note_on_c, 2, 60, 65
4, 99970, Note_on_c, 2, 60, 0
4, 99980, Note_on_c, 2, 55, 65
4, 100030, Note_on_c, 2, 55, 0
4, 100040, Note_on_c, 2, 56, 65
4, 100057, Note_on_c, 2, 56, 0
4, 100060, Note_on_c, 2, 52, 65
4, 100110, Note_on_c, 2, 52, 0
4, 100120, Note_on_c, 2, 53, 65
4, 100137, Note_on_c, 2, 53, 0
4, 100140, Note_on_c, 2, 48, 65
4, 100190, Note_on_c, 2, 48, 0
4, 100200, Note_on_c, 2, 49, 65
4, 100217, Note_on_c, 2, 49, 0
4, 100220, Note_on_c, 2, 47, 65
4, 100260, Note_on_c, 2, 48, 65
4, 100265, Note_on_c, 2, 47, 0
4, 100300, Note_on_c, 2, 50, 65
4, 100305, Note_on_c, 2, 48, 0
4, 100340, Note_on_c, 2, 51, 65
4, 100345, Note_on_c, 2, 50, 0
4, 100370, Note_on_c, 2, 51, 0
4, 100380, Note_on_c, 2, 52, 65
4, 100420, Note_on_c, 2, 53, 65
4, 100425, Note_on_c, 2, 52, 0
4, 100460, Note_on_c, 2, 55, 65
4, 100465, Note_on_c, 2, 53, 0
4, 100500, Note_on_c, 2, 56, 65
4, 100505, Note_on_c, 2, 55, 0
4, 100540, Note_on_c, 2, 55, 65
4, 100545, Note_on_c, 2, 56, 0
4, 100700, Note_on_c, 2, 48, 55
4, 100705, Note_on_c, 2, 55, 0
4, 100860, Note_on_c, 2, 41, 50
4, 100865, Note_on_c, 2, 48, 0
4, 101100, Note_on_c, 2, 43, 55
4, 101110, Note_on_c, 2, 41, 0
4, 101160, Control_c, 2, 11, 45
4, 101170, Note_on_c, 2, 43, 0
4, 101180, Note_on_c, 2, 36, 50
4, 101500, Note_on_c, 2, 53, 50
4, 101500, Note_on_c, 2, 41, 50
4, 101510, Note_on_c, 2, 36, 0
4, 101820, Note_on_c, 2, 54, 50
4, 101820, Note_on_c, 2, 42, 50
4, 101830, Note_on_c, 2, 41, 0
4, 101830, Note_on_c, 2, 53, 0
4, 101980, Note_on_c, 2, 55, 50
4, 101980, Note_on_c, 2, 43, 50
4, 101990, Note_on_c, 2, 54, 0
4, 101990, Note_on_c, 2, 42, 0
4, 102130, Note_on_c, 2, 55, 0
4, 102130, Note_on_c, 2, 43, 0
4, 102140, Note_on_c, 2, 55, 50
4, 102140, Note_on_c, 2, 43, 50
4, 102460, Note_on_c, 2, 56, 50
4, 102460, Note_on_c, 2, 44, 50
4, 102470, Note_on_c, 2, 43, 0
4, 102470, Note_on_c, 2, 55, 0
4, 103460, Note_on_c, 2, 56, 0
4, 103460, Note_on_c, 2, 44, 0
4, 103470, Note_on_c, 2, 49, 50
4, 103590, Note_on_c, 2, 48, 50
4, 103600, Note_on_c, 2, 49, 0
4, 103714, Note_on_c, 2, 46, 50
4, 103720, Note_on_c, 2, 48, 0
4, 103934, Note_on_c, 2, 46, 0
4, 103934, Note_on_c, 2, 44, 50
4, 104353, Note_on_c, 2, 42, 50
4, 104359, Note_on_c, 2, 44, 0
4, 104507, Note_on_c, 2, 41, 50
4, 104513, Note_on_c, 2, 42, 0
4, 104667, Note_on_c, 2, 46, 50
4, 104672, Note_on_c, 2, 41, 0
4, 104887, Note_on_c, 2, 46, 0
4, 105043, Note_on_c, 2, 46, 50
4, 105143, Note_on_c, 2, 46, 0
4, 105164, Note_on_c, 2, 46, 50
4, 105614, Note_on_c, 2, 46, 0
4, 105625, Note_on_c, 2, 46, 50
4, 105751, Note_on_c, 2, 48, 50
4, 105755, Note_on_c, 2, 46, 0
4, 105877, Note_on_c, 2, 49, 50
4, 105881, Note_on_c, 2, 48, 0
4, 106026, Note_on_c, 2, 46, 50
4, 106037, Note_on_c, 2, 49, 0
4, 106156, Note_on_c, 2, 46, 0
4, 106201, Note_on_c, 2, 51, 50
4, 106761, Note_on_c, 2, 52, 50
4, 106771, Note_on_c, 2, 51, 0
4, 107101, Note_on_c, 2, 52, 0
4, 107117, Note_on_c, 2, 52, 50
4, 107237, Note_on_c, 2, 52, 0
4, 107242, Note_on_c, 2, 52, 50
4, 107742, Note_on_c, 2, 52, 0
4, 107783, Note_on_c, 2, 52, 50
4, 108028, Note_on_c, 2, 52, 0
4, 108046, Note_on_c, 2, 52, 50
4, 108166, Note_on_c, 2, 52, 0
4, 108180, Note_on_c, 2, 52, 50
4, 108300, Note_on_c, 2, 52, 0
4, 108325, Note_on_c, 2, 52, 50
4, 108895, Note_on_c, 2, 52, 0
4, 108913, Note_on_c, 2, 51, 50
4, 109203, Note_on_c, 2, 49, 50
4, 109208, Note_on_c, 2, 51, 0
4, 109610, Note_on_c, 2, 48, 50
4, 109618, Note_on_c, 2, 49, 0
4, 109943, Note_on_c, 2, 53, 50
4, 109950, Note_on_c, 2, 48, 0
4, 110063, Note_on_c, 2, 53, 0
4, 110419, Note_on_c, 2, 52, 50
4, 110759, Note_on_c, 2, 50, 50
4, 110764, Note_on_c, 2, 52, 0
4, 111068, Note_on_c, 2, 49, 50
4, 111074, Note_on_c, 2, 50, 0
4, 111411, Note_on_c, 2, 54, 50
4, 111416, Note_on_c, 2, 49, 0
4, 111531, Note_on_c, 2, 54, 0
4, 111899, Note_on_c, 2, 53, 50
4, 112238, Note_on_c, 2, 51, 53
4, 112239, Note_on_c, 2, 53, 0
4, 112535, Note_on_c, 2, 49, 55
4, 112543, Note_on_c, 2, 51, 0
4, 112850, Note_on_c, 2, 51, 53
4, 112855, Note_on_c, 2, 49, 0
4, 113215, Note_on_c, 2, 53, 51
4, 113220, Note_on_c, 2, 51, 0
4, 113557, Note_on_c, 2, 54, 50
4, 113565, Note_on_c, 2, 53, 0
4, 113952, Note_on_c, 2, 55, 50
4, 113957, Note_on_c, 2, 54, 0
4, 114121, Note_on_c, 2, 57, 50
4, 114127, Note_on_c, 2, 55, 0
4, 114311, Note_on_c, 2, 58, 50
4, 114316, Note_on_c, 2, 57, 0
4, 114544, Note_on_c, 2, 53, 50
4, 114551, Note_on_c, 2, 58, 0
4, 114604, Note_on_c, 2, 53, 0
4, 114621, Note_on_c, 2, 53, 70
4, 114741, Note_on_c, 2, 53, 0
4, 114749, Note_on_c, 2, 47, 60
4, 114818, Note_on_c, 2, 48, 60
4, 114822, Note_on_c, 2, 47, 0
4, 114880, Note_on_c, 2, 49, 70
4, 114884, Note_on_c, 2, 48, 0
4, 115012, Note_on_c, 2, 48, 60
4, 115020, Note_on_c, 2, 49, 0
4, 115082, Note_on_c, 2, 48, 0
4, 115082, Note_on_c, 2, 41, 60
4, 115142, Note_on_c, 2, 41, 0
4, 115152, Note_on_c, 2, 45, 60
4, 115212, Note_on_c, 2, 45, 0
4, 115221, Note_on_c, 2, 36, 60
4, 115281, Note_on_c, 2, 36, 0
4, 115293, Note_on_c, 2, 45, 60
4, 115352, Note_on_c, 2, 41, 60
4, 115353, Note_on_c, 2, 45, 0
4, 115592, Note_on_c, 2, 41, 0
4, 115639, Note_on_c, 2, 39, 60
4, 115879, Note_on_c, 2, 39, 0
4, 116588, Note_on_c, 2, 45, 60
4, 116708, Note_on_c, 2, 45, 0
4, 116732, Note_on_c, 2, 46, 60
4, 116787, Note_on_c, 2, 46, 0
4, 116803, Note_on_c, 2, 58, 75
4, 116940, Note_on_c, 2, 52, 60
4, 116943, Note_on_c, 2, 58, 0
4, 117003, Note_on_c, 2, 53, 60
4, 117006, Note_on_c, 2, 52, 0
4, 117065, Note_on_c, 2, 54, 75
4, 117069, Note_on_c, 2, 53, 0
4, 117199, Note_on_c, 2, 53, 60
4, 117205, Note_on_c, 2, 54, 0
4, 117254, Note_on_c, 2, 53, 0
4, 117265, Note_on_c, 2, 46, 60
4, 117333, Note_on_c, 2, 49, 60
4, 117335, Note_on_c, 2, 46, 0
4, 117396, Note_on_c, 2, 41, 60
4, 117403, Note_on_c, 2, 49, 0
4, 117461, Note_on_c, 2, 49, 60
4, 117466, Note_on_c, 2, 41, 0
4, 117528, Note_on_c, 2, 46, 60
4, 117531, Note_on_c, 2, 49, 0
4, 117788, Note_on_c, 2, 46, 0
4, 117815, Note_on_c, 2, 46, 60
4, 118375, Note_on_c, 2, 46, 0
4, 118899, Note_on_c, 2, 37, 60
4, 119451, Note_on_c, 2, 44, 60
4, 119459, Note_on_c, 2, 37, 0
4, 119992, Note_on_c, 2, 39, 60
4, 120011, Note_on_c, 2, 44, 0
4, 120068, Note_on_c, 2, 38, 60
4, 120072, Note_on_c, 2, 39, 0
4, 120136, Note_on_c, 2, 39, 60
4, 120143, Note_on_c, 2, 38, 0
4, 120203, Note_on_c, 2, 41, 60
4, 120208, Note_on_c, 2, 39, 0
4, 120270, Note_on_c, 2, 42, 60
4, 120277, Note_on_c, 2, 41, 0
4, 120539, Note_on_c, 2, 46, 60
4, 120540, Note_on_c, 2, 42, 0
4, 120879, Note_on_c, 2, 46, 0
4, 120882, Note_on_c, 2, 45, 60
4, 120954, Note_on_c, 2, 46, 60
4, 120955, Note_on_c, 2, 45, 0
4, 121025, Note_on_c, 2, 48, 60
4, 121027, Note_on_c, 2, 46, 0
4, 121090, Note_on_c, 2, 49, 60
4, 121098, Note_on_c, 2, 48, 0
4, 121649, Note_on_c, 2, 48, 60
4, 121660, Note_on_c, 2, 49, 0
4, 121924, Note_on_c, 2, 48, 0
4, 122216, Note_on_c, 2, 51, 60
4, 122776, Note_on_c, 2, 51, 0
4, 122778, Note_on_c, 2, 50, 60
4, 122846, Note_on_c, 2, 54, 60
4, 122850, Note_on_c, 2, 50, 0
4, 122913, Note_on_c, 2, 45, 60
4, 122916, Note_on_c, 2, 54, 0
4, 122984, Note_on_c, 2, 54, 60
4, 122985, Note_on_c, 2, 45, 0
4, 123048, Note_on_c, 2, 50, 60
4, 123057, Note_on_c, 2, 54, 0
4, 123288, Note_on_c, 2, 50, 0
4, 123333, Note_on_c, 2, 43, 60
4, 123453, Note_on_c, 2, 43, 0
4, 123600, Note_on_c, 2, 46, 60
4, 123872, Note_on_c, 2, 48, 60
4, 123880, Note_on_c, 2, 46, 0
4, 124009, Note_on_c, 2, 51, 60
4, 124017, Note_on_c, 2, 48, 0
4, 124145, Note_on_c, 2, 50, 60
4, 124149, Note_on_c, 2, 51, 0
4, 124420, Note_on_c, 2, 51, 60
4, 124425, Note_on_c, 2, 50, 0
4, 124684, Note_on_c, 2, 48, 60
4, 124690, Note_on_c, 2, 51, 0
4, 124812, Note_on_c, 2, 47, 60
4, 124814, Note_on_c, 2, 48, 0
4, 124882, Note_on_c, 2, 48, 60
4, 124887, Note_on_c, 2, 47, 0
4, 124949, Note_on_c, 2, 50, 60
4, 124952, Note_on_c, 2, 48, 0
4, 125220, Note_on_c, 2, 52, 60
4, 125224, Note_on_c, 2, 50, 0
4, 125496, Note_on_c, 2, 53, 60
4, 125500, Note_on_c, 2, 52, 0
4, 125769, Note_on_c, 2, 56, 60
4, 125776, Note_on_c, 2, 53, 0
4, 126042, Note_on_c, 2, 55, 60
4, 126049, Note_on_c, 2, 56, 0
4, 126312, Note_on_c, 2, 56, 60
4, 126322, Note_on_c, 2, 55, 0
4, 126589, Control_c, 2, 11, 50
4, 126589, Note_on_c, 2, 58, 60
4, 126592, Note_on_c, 2, 56, 0
4, 126689, Note_on_c, 2, 58, 0
4, 126891, Note_on_c, 2, 59, 60
4, 127174, Note_on_c, 2, 58, 60
4, 127181, Note_on_c, 2, 59, 0
4, 127274, Note_on_c, 2, 58, 0
4, 127465, Note_on_c, 2, 47, 60
4, 127741, Note_on_c, 2, 46, 60
4, 127755, Note_on_c, 2, 47, 0
4, 128018, Note_on_c, 2, 47, 63
4, 128031, Note_on_c, 2, 46, 0
4, 128295, Note_on_c, 2, 48, 73
4, 128308, Note_on_c, 2, 47, 0
4, 128567, Note_on_c, 2, 49, 65
4, 128585, Note_on_c, 2, 48, 0
4, 128843, Note_on_c, 2, 50, 67
4, 128857, Note_on_c, 2, 49, 0
4, 129132, Note_on_c, 2, 49, 70
4, 129143, Note_on_c, 2, 50, 0
4, 129399, Note_on_c, 2, 48, 73
4, 129412, Note_on_c, 2, 49, 0
4, 129669, Note_on_c, 2, 41, 69
4, 129689, Note_on_c, 2, 48, 0
4, 129953, Note_on_c, 2, 36, 60
4, 129959, Note_on_c, 2, 41, 0
4, 130073, Note_on_c, 2, 36, 0
4, 130095, Note_on_c, 2, 53, 50
4, 130238, Note_on_c, 2, 48, 50
4, 130245, Note_on_c, 2, 53, 0
4, 130377, Note_on_c, 2, 53, 50
4, 130388, Note_on_c, 2, 48, 0
4, 130514, Note_on_c, 2, 48, 50
4, 130527, Note_on_c, 2, 53, 0
4, 130653, Note_on_c, 2, 49, 50
4, 130664, Note_on_c, 2, 48, 0
4, 130791, Note_on_c, 2, 44, 50
4, 130803, Note_on_c, 2, 49, 0
4, 130925, Note_on_c, 2, 46, 50
4, 130931, Note_on_c, 2, 44, 0
4, 131060, Note_on_c, 2, 41, 50
4, 131065, Note_on_c, 2, 46, 0
4, 131180, Note_on_c, 2, 41, 0
4, 131192, Note_on_c, 2, 47, 75
4, 131572, Note_on_c, 2, 47, 0
4, 131601, Note_on_c, 2, 47, 80
4, 132131, Note_on_c, 2, 47, 0
4, 132142, Note_on_c, 2, 48, 70
4, 132192, Note_on_c, 2, 48, 0
4, 132202, Note_on_c, 2, 48, 70
4, 132252, Note_on_c, 2, 48, 0
4, 132322, Note_on_c, 2, 52, 70
4, 132372, Note_on_c, 2, 52, 0
4, 132382, Note_on_c, 2, 53, 70
4, 132432, Note_on_c, 2, 53, 0
4, 132442, Note_on_c, 2, 48, 70
4, 132492, Note_on_c, 2, 48, 0
4, 132562, Note_on_c, 2, 52, 70
4, 132612, Note_on_c, 2, 52, 0
4, 132622, Note_on_c, 2, 53, 70
4, 132672, Note_on_c, 2, 53, 0
4, 132682, Note_on_c, 2, 48, 70
4, 132732, Note_on_c, 2, 48, 0
4, 132802, Note_on_c, 2, 51, 70
4, 132852, Note_on_c, 2, 51, 0
4, 132862, Note_on_c, 2, 50, 70
4, 132912, Note_on_c, 2, 50, 0
4, 132922, Note_on_c, 2, 50, 70
4, 132972, Note_on_c, 2, 50, 0
4, 132982, Note_on_c, 2, 49, 70
4, 133032, Note_on_c, 2, 49, 0
4, 133042, Note_on_c, 2, 49, 70
4, 133092, Note_on_c, 2, 49, 0
4, 133102, Note_on_c, 2, 48, 70
4, 133152, Note_on_c, 2, 48, 0
4, 133162, Note_on_c, 2, 48, 70
4, 133212, Note_on_c, 2, 48, 0
4, 133282, Note_on_c, 2, 52, 70
4, 133332, Note_on_c, 2, 52, 0
4, 133342, Note_on_c, 2, 53, 70
4, 133392, Note_on_c, 2, 53, 0
4, 133402, Note_on_c, 2, 48, 70
4, 133452, Note_on_c, 2, 48, 0
4, 133522, Note_on_c, 2, 52, 70
4, 133572, Note_on_c, 2, 52, 0
4, 133582, Note_on_c, 2, 53, 70
4, 133632, Note_on_c, 2, 53, 0
4, 133642, Note_on_c, 2, 48, 70
4, 133692, Note_on_c, 2, 48, 0
4, 133762, Note_on_c, 2, 51, 70
4, 133812, Note_on_c, 2, 51, 0
4, 133822, Note_on_c, 2, 50, 70
4, 133872, Note_on_c, 2, 50, 0
4, 133882, Note_on_c, 2, 50, 70
4, 133932, Note_on_c, 2, 50, 0
4, 133942, Note_on_c, 2, 49, 70
4, 133992, Note_on_c, 2, 49, 0
4, 134002, Note_on_c, 2, 49, 70
4, 134052, Note_on_c, 2, 49, 0
4, 134062, Note_on_c, 2, 48, 70
4, 134112, Note_on_c, 2, 48, 0
4, 134122, Note_on_c, 2, 48, 70
4, 134172, Note_on_c, 2, 48, 0
4, 134182, Note_on_c, 2, 48, 70
4, 134232, Note_on_c, 2, 48, 0
4, 134242, Note_on_c, 2, 52, 70
4, 134292, Note_on_c, 2, 52, 0
4, 134302, Note_on_c, 2, 53, 70
4, 134352, Note_on_c, 2, 53, 0
4, 134362, Note_on_c, 2, 48, 70
4, 134412, Note_on_c, 2, 48, 0
4, 134482, Note_on_c, 2, 51, 70
4, 134532, Note_on_c, 2, 51, 0
4, 134542, Note_on_c, 2, 49, 70
4, 134592, Note_on_c, 2, 49, 0
4, 134602, Note_on_c, 2, 49, 70
4, 134652, Note_on_c, 2, 49, 0
4, 134662, Note_on_c, 2, 49, 70
4, 134712, Note_on_c, 2, 49, 0
4, 134722, Note_on_c, 2, 53, 70
4, 134772, Note_on_c, 2, 53, 0
4, 134782, Note_on_c, 2, 55, 70
4, 134832, Note_on_c, 2, 55, 0
4, 134842, Note_on_c, 2, 49, 70
4, 134892, Note_on_c, 2, 49, 0
4, 134962, Note_on_c, 2, 53, 70
4, 135012, Note_on_c, 2, 53, 0
4, 135022, Note_on_c, 2, 51, 70
4, 135072, Note_on_c, 2, 51, 0
4, 135082, Note_on_c, 2, 51, 70
4, 135132, Note_on_c, 2, 51, 0
4, 135142, Note_on_c, 2, 53, 70
4, 135192, Note_on_c, 2, 53, 0
4, 135202, Note_on_c, 2, 55, 70
4, 135252, Note_on_c, 2, 55, 0
4, 135262, Note_on_c, 2, 56, 70
4, 135312, Note_on_c, 2, 56, 0
4, 135322, Note_on_c, 2, 56, 70
4, 135372, Note_on_c, 2, 56, 0
4, 135382, Note_on_c, 2, 56, 70
4, 135432, Note_on_c, 2, 56, 0
4, 135442, Note_on_c, 2, 56, 70
4, 135492, Note_on_c, 2, 56, 0
4, 135502, Note_on_c, 2, 56, 70
4, 135552, Note_on_c, 2, 56, 0
4, 135562, Note_on_c, 2, 56, 70
4, 135612, Note_on_c, 2, 56, 0
4, 135622, Note_on_c, 2, 52, 70
4, 135672, Note_on_c, 2, 52, 0
4, 135682, Note_on_c, 2, 52, 70
4, 135732, Note_on_c, 2, 52, 0
4, 135742, Note_on_c, 2, 53, 70
4, 135792, Note_on_c, 2, 53, 0
4, 135802, Note_on_c, 2, 53, 70
4, 135852, Note_on_c, 2, 53, 0
4, 135862, Note_on_c, 2, 53, 70
4, 135912, Note_on_c, 2, 53, 0
4, 135922, Note_on_c, 2, 53, 70
4, 135972, Note_on_c, 2, 53, 0
4, 135982, Note_on_c, 2, 46, 70
4, 136032, Note_on_c, 2, 46, 0
4, 136192, Note_on_c, 2, 46, 70
4, 136214, Note_on_c, 2, 46, 0
4, 136222, Note_on_c, 2, 47, 70
4, 136272, Note_on_c, 2, 47, 0
4, 136432, Note_on_c, 2, 47, 70
4, 136454, Note_on_c, 2, 47, 0
4, 136462, Note_on_c, 2, 48, 70
4, 136512, Note_on_c, 2, 48, 0
4, 136672, Note_on_c, 2, 48, 70
4, 136694, Note_on_c, 2, 48, 0
4, 136702, Note_on_c, 2, 49, 70
4, 136752, Note_on_c, 2, 49, 0
4, 137062, Control_c, 2, 11, 35
4, 137062, Note_on_c, 2, 48, 50
4, 137097, Note_on_c, 2, 48, 0
4, 137182, Note_on_c, 2, 47, 50
4, 137204, Note_on_c, 2, 47, 0
4, 137208, Note_on_c, 2, 48, 50
4, 137230, Note_on_c, 2, 48, 0
4, 137234, Note_on_c, 2, 47, 50
4, 137256, Note_on_c, 2, 47, 0
4, 137261, Note_on_c, 2, 48, 50
4, 137283, Note_on_c, 2, 48, 0
4, 137287, Note_on_c, 2, 47, 50
4, 137309, Note_on_c, 2, 47, 0
4, 137314, Note_on_c, 2, 48, 50
4, 137336, Note_on_c, 2, 48, 0
4, 137340, Note_on_c, 2, 47, 50
4, 137362, Note_on_c, 2, 47, 0
4, 137366, Note_on_c, 2, 45, 50
4, 137388, Note_on_c, 2, 45, 0
4, 137392, Note_on_c, 2, 47, 50
4, 137414, Note_on_c, 2, 47, 0
4, 137422, Note_on_c, 2, 48, 50
4, 137455, Note_on_c, 2, 48, 0
4, 137512, Note_on_c, 2, 48, 50
4, 137542, Note_on_c, 2, 43, 50
4, 137547, Note_on_c, 2, 48, 0
4, 137586, Note_on_c, 2, 43, 0
4, 137632, Note_on_c, 2, 44, 50
4, 137662, Note_on_c, 2, 46, 50
4, 137667, Note_on_c, 2, 44, 0
4, 137712, Note_on_c, 2, 46, 0
4, 137782, Note_on_c, 2, 44, 45
4, 137832, Note_on_c, 2, 44, 0
4, 137842, Note_on_c, 2, 43, 40
4, 137889, Control_c, 2, 11, 30
4, 137889, Note_on_c, 2, 53, 50
4, 137889, Note_on_c, 2, 41, 50
4, 137892, Note_on_c, 2, 43, 0
4, 139064, Note_on_c, 2, 40, 50
4, 139074, Note_on_c, 2, 41, 0
4, 139074, Note_on_c, 2, 53, 0
4, 139206, Note_on_c, 2, 39, 40
4, 139214, Note_on_c, 2, 40, 0
4, 139806, Note_on_c, 2, 39, 0
4, 143160, Control_c, 2, 11, 45
4, 143165, Program_c, 2, 45
4, 143167, Note_on_c, 2, 53, 50
4, 143217, Note_on_c, 2, 53, 0
4, 143304, Note_on_c, 2, 46, 50
4, 143354, Note_on_c, 2, 46, 0
4, 143724, Note_on_c, 2, 53, 50
4, 143774, Note_on_c, 2, 53, 0
4, 143876, Note_on_c, 2, 58, 50
4, 143926, Note_on_c, 2, 58, 0
4, 144044, Note_on_c, 2, 46, 50
4, 144094, Note_on_c, 2, 46, 0
4, 144378, Note_on_c, 2, 51, 50
4, 144428, Note_on_c, 2, 51, 0
4, 144549, Note_on_c, 2, 44, 50
4, 144599, Note_on_c, 2, 44, 0
4, 144988, Note_on_c, 2, 46, 50
4, 145038, Note_on_c, 2, 46, 0
4, 145141, Note_on_c, 2, 51, 50
4, 145191, Note_on_c, 2, 51, 0
4, 145290, Program_c, 2, 48
4, 145296, Control_c, 2, 11, 40
4, 145296, Note_on_c, 2, 51, 50
4, 145453, Note_on_c, 2, 53, 50
4, 145461, Note_on_c, 2, 51, 0
4, 145618, Note_on_c, 2, 55, 50
4, 145623, Note_on_c, 2, 53, 0
4, 145782, Note_on_c, 2, 56, 50
4, 145793, Note_on_c, 2, 55, 0
4, 145942, Note_on_c, 2, 56, 0
4, 146071, Note_on_c, 2, 39, 50
4, 146384, Note_on_c, 2, 44, 50
4, 146391, Note_on_c, 2, 39, 0
4, 146494, Note_on_c, 2, 44, 0
4, 146818, Note_on_c, 2, 43, 50
4, 146938, Note_on_c, 2, 43, 0
4, 146958, Note_on_c, 2, 44, 50
4, 147105, Note_on_c, 2, 56, 50
4, 147113, Note_on_c, 2, 44, 0
4, 147225, Note_on_c, 2, 56, 0
4, 147262, Note_on_c, 2, 58, 50
4, 147407, Note_on_c, 2, 46, 50
4, 147417, Note_on_c, 2, 58, 0
4, 147552, Note_on_c, 2, 46, 0
4, 147565, Note_on_c, 2, 51, 50
4, 147675, Note_on_c, 2, 51, 0
4, 147929, Note_on_c, 2, 45, 50
4, 148226, Note_on_c, 2, 45, 0
4, 148226, Note_on_c, 2, 46, 50
4, 148486, Note_on_c, 2, 46, 0
4, 148545, Note_on_c, 2, 43, 50
4, 148842, Note_on_c, 2, 44, 50
4, 148850, Note_on_c, 2, 43, 0
4, 149082, Note_on_c, 2, 44, 0
4, 149205, Note_on_c, 2, 49, 50
4, 149472, Note_on_c, 2, 48, 50
4, 149475, Note_on_c, 2, 49, 0
4, 149712, Note_on_c, 2, 48, 0
4, 149784, Note_on_c, 2, 49, 50
4, 150052, Note_on_c, 2, 50, 50
4, 150064, Note_on_c, 2, 49, 0
4, 150292, Note_on_c, 2, 50, 0
4, 150384, Note_on_c, 2, 51, 50
4, 150624, Note_on_c, 2, 51, 0
4, 150830, Note_on_c, 2, 50, 50
4, 150991, Note_on_c, 2, 51, 50
4, 150995, Note_on_c, 2, 50, 0
4, 151160, Note_on_c, 2, 39, 50
4, 151231, Note_on_c, 2, 51, 0
4, 151400, Note_on_c, 2, 39, 0
4, 151709, Note_on_c, 2, 41, 55
4, 152035, Note_on_c, 2, 43, 60
4, 152039, Note_on_c, 2, 41, 0
4, 152348, Note_on_c, 2, 44, 60
4, 152355, Note_on_c, 2, 43, 0
4, 152649, Note_on_c, 2, 46, 60
4, 152653, Note_on_c, 2, 44, 0
4, 152889, Note_on_c, 2, 46, 0
4, 152963, Note_on_c, 2, 40, 50
4, 153422, Note_on_c, 2, 41, 50
4, 153428, Note_on_c, 2, 40, 0
4, 153807, Note_on_c, 2, 41, 0
4, 153821, Note_on_c, 2, 43, 50
4, 154142, Note_on_c, 2, 44, 50
4, 154268, Note_on_c, 2, 43, 0
4, 154504, Note_on_c, 2, 38, 50
4, 154512, Note_on_c, 2, 44, 0
4, 154801, Note_on_c, 2, 37, 55
4, 154804, Note_on_c, 2, 38, 0
4, 155092, Note_on_c, 2, 36, 60
4, 155096, Note_on_c, 2, 37, 0
4, 155379, Note_on_c, 2, 37, 65
4, 155387, Note_on_c, 2, 36, 0
4, 155524, Note_on_c, 2, 37, 0
4, 155524, Note_on_c, 2, 38, 70
4, 155672, Note_on_c, 2, 40, 70
4, 155674, Note_on_c, 2, 38, 0
4, 155822, Note_on_c, 2, 40, 0
4, 155962, Note_on_c, 2, 41, 70
4, 156112, Note_on_c, 2, 41, 0
4, 156246, Note_on_c, 2, 43, 70
4, 156366, Note_on_c, 2, 43, 0
4, 156525, Note_on_c, 2, 44, 70
4, 156645, Note_on_c, 2, 44, 0
4, 156811, Note_on_c, 2, 46, 70
4, 156931, Note_on_c, 2, 46, 0
4, 157815, Note_on_c, 2, 48, 55
4, 157935, Note_on_c, 2, 48, 0
4, 157971, Note_on_c, 2, 41, 55
4, 158091, Note_on_c, 2, 41, 0
4, 158536, Note_on_c, 2, 43, 55
4, 158814, Note_on_c, 2, 48, 55
4, 158821, Note_on_c, 2, 43, 0
4, 159097, Note_on_c, 2, 41, 55
4, 159104, Note_on_c, 2, 48, 0
4, 159237, Note_on_c, 2, 41, 0
4, 159643, Note_on_c, 2, 43, 55
4, 159917, Note_on_c, 2, 48, 55
4, 159923, Note_on_c, 2, 43, 0
4, 160188, Note_on_c, 2, 41, 55
4, 160197, Note_on_c, 2, 48, 0
4, 160328, Note_on_c, 2, 41, 0
4, 160596, Note_on_c, 2, 53, 55
4, 160740, Note_on_c, 2, 48, 55
4, 160756, Note_on_c, 2, 53, 0
4, 161040, Note_on_c, 2, 48, 0
4, 161297, Note_on_c, 2, 43, 55
4, 161597, Note_on_c, 2, 43, 0
4, 161687, Note_on_c, 2, 55, 55
4, 161822, Note_on_c, 2, 50, 55
4, 161827, Note_on_c, 2, 55, 0
4, 162092, Note_on_c, 2, 50, 0
4, 162360, Note_on_c, 2, 45, 55
4, 162645, Note_on_c, 2, 50, 55
4, 162650, Note_on_c, 2, 45, 0
4, 162931, Note_on_c, 2, 43, 55
4, 162935, Note_on_c, 2, 50, 0
4, 163235, Note_on_c, 2, 48, 55
4, 163241, Note_on_c, 2, 43, 0
4, 163535, Note_on_c, 2, 48, 0
4, 163634, Note_on_c, 2, 49, 50
4, 164246, Note_on_c, 2, 44, 50
4, 164254, Note_on_c, 2, 49, 0
4, 164834, Note_on_c, 2, 49, 50
4, 164846, Note_on_c, 2, 44, 0
4, 165444, Note_on_c, 2, 44, 50
4, 165454, Note_on_c, 2, 49, 0
4, 165834, Note_on_c, 2, 44, 0
4, 165879, Note_on_c, 2, 44, 50
4, 166032, Note_on_c, 2, 46, 50
4, 166039, Note_on_c, 2, 44, 0
4, 166338, Note_on_c, 2, 44, 50
4, 166342, Note_on_c, 2, 46, 0
4, 166628, Note_on_c, 2, 43, 50
4, 166638, Note_on_c, 2, 44, 0
4, 166926, Note_on_c, 2, 44, 50
4, 166928, Note_on_c, 2, 43, 0
4, 167223, Note_on_c, 2, 46, 50
4, 167226, Note_on_c, 2, 44, 0
4, 167514, Note_on_c, 2, 44, 50
4, 167523, Note_on_c, 2, 46, 0
4, 167802, Note_on_c, 2, 43, 50
4, 167814, Note_on_c, 2, 44, 0
4, 168098, Note_on_c, 2, 44, 50
4, 168102, Note_on_c, 2, 43, 0
4, 168384, Note_on_c, 2, 39, 55
4, 168398, Note_on_c, 2, 44, 0
4, 168682, Note_on_c, 2, 44, 55
4, 168689, Note_on_c, 2, 39, 0
4, 168980, Note_on_c, 2, 39, 55
4, 168987, Note_on_c, 2, 44, 0
4, 169269, Note_on_c, 2, 44, 55
4, 169270, Note_on_c, 2, 39, 0
4, 169556, Note_on_c, 2, 42, 55
4, 169559, Note_on_c, 2, 44, 0
4, 169701, Note_on_c, 2, 42, 0
4, 169842, Note_on_c, 2, 41, 55
4, 169987, Note_on_c, 2, 46, 55
4, 170000, Note_on_c, 2, 41, 0
4, 170136, Note_on_c, 2, 39, 55
4, 170145, Note_on_c, 2, 46, 0
4, 170287, Note_on_c, 2, 44, 55
4, 170294, Note_on_c, 2, 39, 0
4, 170420, Note_on_c, 2, 49, 55
4, 170427, Note_on_c, 2, 44, 0
4, 170565, Note_on_c, 2, 49, 0
4, 170569, Note_on_c, 2, 54, 55
4, 170705, Note_on_c, 2, 48, 55
4, 170727, Note_on_c, 2, 54, 0
4, 170870, Note_on_c, 2, 48, 0
4, 170990, Note_on_c, 2, 45, 55
4, 171100, Note_on_c, 2, 45, 0
4, 171132, Note_on_c, 2, 46, 55
4, 171242, Note_on_c, 2, 46, 0
4, 171276, Note_on_c, 2, 43, 55
4, 171386, Note_on_c, 2, 43, 0
4, 171562, Note_on_c, 2, 48, 55
4, 171699, Note_on_c, 2, 41, 60
4, 171702, Note_on_c, 2, 48, 0
4, 171844, Note_on_c, 2, 47, 70
4, 171849, Note_on_c, 2, 41, 0
4, 171994, Note_on_c, 2, 47, 0
4, 172662, Note_on_c, 2, 47, 70
4, 172936, Note_on_c, 2, 48, 70
4, 172942, Note_on_c, 2, 47, 0
4, 173036, Note_on_c, 2, 48, 0
4, 173805, Note_on_c, 2, 52, 50
4, 173871, Note_on_c, 2, 53, 50
4, 173875, Note_on_c, 2, 52, 0
4, 173938, Note_on_c, 2, 52, 50
4, 173941, Note_on_c, 2, 53, 0
4, 174010, Note_on_c, 2, 53, 50
4, 174013, Note_on_c, 2, 52, 0
4, 174130, Note_on_c, 2, 53, 0
4, 174563, Note_on_c, 2, 41, 50
4, 174704, Note_on_c, 2, 51, 55
4, 174704, Note_on_c, 2, 39, 45
4, 174708, Note_on_c, 2, 41, 0
4, 174834, Note_on_c, 2, 49, 60
4, 174834, Note_on_c, 2, 37, 50
4, 174844, Note_on_c, 2, 39, 0
4, 174844, Note_on_c, 2, 51, 0
4, 174968, Note_on_c, 2, 46, 65
4, 174974, Note_on_c, 2, 49, 0
4, 174974, Note_on_c, 2, 37, 0
4, 175106, Note_on_c, 2, 48, 70
4, 175113, Note_on_c, 2, 46, 0
4, 175256, Note_on_c, 2, 48, 0
4, 175504, Note_on_c, 2, 48, 70
4, 175574, Note_on_c, 2, 48, 0
4, 175642, Note_on_c, 2, 48, 70
4, 175712, Note_on_c, 2, 48, 0
4, 175778, Note_on_c, 2, 48, 70
4, 175848, Note_on_c, 2, 48, 0
4, 176044, Note_on_c, 2, 48, 70
4, 176114, Note_on_c, 2, 48, 0
4, 176180, Note_on_c, 2, 48, 70
4, 176250, Note_on_c, 2, 48, 0
4, 176444, Note_on_c, 2, 48, 70
4, 176514, Note_on_c, 2, 48, 0
4, 176710, Note_on_c, 2, 48, 70
4, 176780, Note_on_c, 2, 48, 0
4, 177267, Control_c, 2, 11, 40
4, 177277, Note_on_c, 2, 48, 70
4, 177321, Control_c, 2, 11, 41
4, 177375, Control_c, 2, 11, 42
4, 177429, Control_c, 2, 11, 43
4, 177483, Control_c, 2, 11, 44
4, 177538, Control_c, 2, 11, 45
4, 177592, Control_c, 2, 11, 46
4, 177646, Control_c, 2, 11, 47
4, 177700, Control_c, 2, 11, 48
4, 177754, Control_c, 2, 11, 49
4, 177787, Note_on_c, 2, 48, 0
4, 177809, Control_c, 2, 11, 50
4, 177816, Note_on_c, 2, 48, 70
4, 177816, Note_on_c, 2, 48, 70
4, 177863, Control_c, 2, 11, 51
4, 177866, Note_on_c, 2, 48, 0
4, 177888, Note_on_c, 2, 48, 70
4, 177917, Control_c, 2, 11, 52
4, 177938, Note_on_c, 2, 48, 0
4, 177958, Note_on_c, 2, 48, 70
4, 177966, Note_on_c, 2, 48, 0
4, 177971, Control_c, 2, 11, 53
4, 178008, Note_on_c, 2, 48, 0
4, 178025, Control_c, 2, 11, 54
4, 178027, Note_on_c, 2, 48, 70
4, 178077, Note_on_c, 2, 48, 0
4, 178080, Control_c, 2, 11, 55
4, 178098, Note_on_c, 2, 48, 70
4, 178134, Control_c, 2, 11, 56
4, 178148, Note_on_c, 2, 48, 0
4, 178170, Note_on_c, 2, 48, 70
4, 178188, Control_c, 2, 11, 57
4, 178220, Note_on_c, 2, 48, 0
4, 178239, Note_on_c, 2, 48, 70
4, 178242, Control_c, 2, 11, 58
4, 178289, Note_on_c, 2, 48, 0
4, 178296, Control_c, 2, 11, 59
4, 178303, Note_on_c, 2, 48, 70
4, 178351, Control_c, 2, 11, 60
4, 178353, Note_on_c, 2, 48, 0
4, 178381, Control_c, 2, 11, 60
4, 178381, Note_on_c, 2, 65, 60
4, 178381, Note_on_c, 2, 53, 60
4, 178431, Note_on_c, 2, 53, 0
4, 178431, Note_on_c, 2, 65, 0
4, 178441, Note_on_c, 2, 65, 60
4, 178561, Note_on_c, 2, 65, 0
4, 178561, Note_on_c, 2, 59, 60
4, 178561, Note_on_c, 2, 47, 60
4, 178611, Note_on_c, 2, 47, 0
4, 178611, Note_on_c, 2, 59, 0
4, 178621, Note_on_c, 2, 60, 60
4, 178621, Note_on_c, 2, 48, 60
4, 178671, Note_on_c, 2, 48, 0
4, 178671, Note_on_c, 2, 60, 0
4, 178681, Note_on_c, 2, 61, 60
4, 178681, Note_on_c, 2, 49, 60
4, 178801, Note_on_c, 2, 49, 0
4, 178801, Note_on_c, 2, 61, 0
4, 178801, Note_on_c, 2, 60, 60
4, 178801, Note_on_c, 2, 48, 60
4, 178851, Note_on_c, 2, 48, 0
4, 178851, Note_on_c, 2, 60, 0
4, 178861, Note_on_c, 2, 53, 60
4, 178911, Note_on_c, 2, 53, 0
4, 178921, Note_on_c, 2, 56, 60
4, 178971, Note_on_c, 2, 56, 0
4, 178981, Note_on_c, 2, 48, 60
4, 179031, Note_on_c, 2, 48, 0
4, 179041, Note_on_c, 2, 56, 60
4, 179091, Note_on_c, 2, 56, 0
4, 179101, Note_on_c, 2, 53, 60
4, 179191, Note_on_c, 2, 53, 0
4, 179221, Note_on_c, 2, 51, 60
4, 179311, Note_on_c, 2, 51, 0
4, 179341, Note_on_c, 2, 49, 60
4, 179391, Note_on_c, 2, 49, 0
4, 179401, Note_on_c, 2, 61, 60
4, 179521, Note_on_c, 2, 61, 0
4, 179521, Note_on_c, 2, 55, 60
4, 179571, Note_on_c, 2, 55, 0
4, 179581, Note_on_c, 2, 56, 60
4, 179631, Note_on_c, 2, 56, 0
4, 179641, Note_on_c, 2, 58, 60
4, 179761, Note_on_c, 2, 58, 0
4, 179761, Note_on_c, 2, 56, 60
4, 179811, Note_on_c, 2, 56, 0
4, 179821, Note_on_c, 2, 49, 60
4, 179871, Note_on_c, 2, 49, 0
4, 179881, Note_on_c, 2, 53, 60
4, 179931, Note_on_c, 2, 53, 0
4, 179941, Note_on_c, 2, 44, 60
4, 179991, Note_on_c, 2, 44, 0
4, 180001, Note_on_c, 2, 53, 60
4, 180051, Note_on_c, 2, 53, 0
4, 180061, Note_on_c, 2, 49, 60
4, 180151, Note_on_c, 2, 49, 0
4, 180181, Note_on_c, 2, 48, 60
4, 180271, Note_on_c, 2, 48, 0
4, 180301, Note_on_c, 2, 47, 60
4, 180391, Note_on_c, 2, 47, 0
4, 180901, Control_c, 2, 11, 70
4, 180901, Note_on_c, 2, 58, 80
4, 180951, Note_on_c, 2, 58, 0
4, 181021, Note_on_c, 2, 56, 80
4, 181071, Note_on_c, 2, 56, 0
4, 181141, Control_c, 2, 11, 50
4, 181141, Note_on_c, 2, 61, 60
4, 181261, Note_on_c, 2, 60, 60
4, 181271, Note_on_c, 2, 61, 0
4, 181741, Note_on_c, 2, 61, 60
4, 181751, Note_on_c, 2, 60, 0
4, 181861, Note_on_c, 2, 58, 60
4, 181871, Note_on_c, 2, 61, 0
4, 181981, Note_on_c, 2, 60, 60
4, 181991, Note_on_c, 2, 58, 0
4, 182101, Note_on_c, 2, 48, 60
4, 182111, Note_on_c, 2, 60, 0
4, 182221, Note_on_c, 2, 53, 60
4, 182231, Note_on_c, 2, 48, 0
4, 182351, Note_on_c, 2, 53, 0
4, 182551, Control_c, 2, 11, 70
4, 182551, Note_on_c, 2, 48, 70
4, 182641, Note_on_c, 2, 48, 0
4, 182671, Note_on_c, 2, 53, 70
4, 182671, Note_on_c, 2, 41, 70
4, 182761, Note_on_c, 2, 41, 0
4, 182761, Note_on_c, 2, 53, 0
4, 183031, Note_on_c, 2, 48, 70
4, 183121, Note_on_c, 2, 48, 0
4, 183151, Note_on_c, 2, 53, 70
4, 183151, Note_on_c, 2, 41, 70
4, 183241, Note_on_c, 2, 41, 0
4, 183241, Note_on_c, 2, 53, 0
4, 183391, Note_on_c, 2, 60, 70
4, 183391, Note_on_c, 2, 53, 70
4, 183481, Note_on_c, 2, 53, 0
4, 183481, Note_on_c, 2, 60, 0
4, 183631, Note_on_c, 2, 53, 70
4, 184111, Note_on_c, 2, 53, 0
4, 184664, Control_c, 2, 121, 0
4, 184664, End_track
5, 0, Start_track
5, 0, MIDI_port, 0
5, 0, Title_t, "Double Bass"
5, 0, Program_c, 3, 48
5, 0, Control_c, 3, 7, 127
5, 0, Control_c, 3, 10, 120
5, 50, Control_c, 3, 121, 0
5, 100, Control_c, 3, 91, 100
5, 100, Control_c, 3, 93, 90
5, 110, Control_c, 3, 11, 70
5, 1560, Program_c, 3, 45
5, 1660, Note_on_c, 3, 36, 60
5, 1710, Note_on_c, 3, 36, 0
5, 1780, Note_on_c, 3, 48, 60
5, 1830, Note_on_c, 3, 48, 0
5, 1875, Program_c, 3, 48
5, 2108, Note_on_c, 3, 37, 100
5, 2148, Note_on_c, 3, 37, 0
5, 2217, Note_on_c, 3, 36, 100
5, 2257, Note_on_c, 3, 36, 0
5, 2555, Note_on_c, 3, 37, 100
5, 2595, Note_on_c, 3, 37, 0
5, 2658, Note_on_c, 3, 36, 100
5, 2698, Note_on_c, 3, 36, 0
5, 2969, Note_on_c, 3, 40, 80
5, 3050, Note_on_c, 3, 41, 80
5, 3059, Note_on_c, 3, 40, 0
5, 3075, Note_on_c, 3, 41, 0
5, 3077, Note_on_c, 3, 43, 80
5, 3167, Note_on_c, 3, 43, 0
5, 3186, Note_on_c, 3, 40, 80
5, 3226, Note_on_c, 3, 40, 0
5, 3290, Note_on_c, 3, 41, 80
5, 3330, Note_on_c, 3, 41, 0
5, 3361, Note_on_c, 3, 43, 80
5, 3388, Note_on_c, 3, 43, 0
5, 3388, Note_on_c, 3, 44, 80
5, 3549, Note_on_c, 3, 41, 55
5, 3563, Note_on_c, 3, 44, 0
5, 3602, Note_on_c, 3, 36, 52
5, 3605, Note_on_c, 3, 41, 0
5, 3655, Note_on_c, 3, 32, 49
5, 3658, Note_on_c, 3, 36, 0
5, 3700, Control_c, 3, 11, 45
5, 3708, Control_c, 3, 11, 45
5, 3708, Note_on_c, 3, 29, 90
5, 3711, Note_on_c, 3, 32, 0
5, 3743, Note_on_c, 3, 29, 0
5, 3761, Note_on_c, 3, 41, 100
5, 3834, Control_c, 3, 11, 46
5, 3867, Note_on_c, 3, 35, 80
5, 3873, Note_on_c, 3, 41, 0
5, 3897, Note_on_c, 3, 35, 0
5, 3919, Note_on_c, 3, 36, 80
5, 3949, Note_on_c, 3, 36, 0
5, 3960, Control_c, 3, 11, 47
5, 3971, Note_on_c, 3, 37, 100
5, 4075, Note_on_c, 3, 36, 80
5, 4081, Note_on_c, 3, 37, 0
5, 4086, Control_c, 3, 11, 48
5, 4105, Note_on_c, 3, 36, 0
5, 4125, Note_on_c, 3, 34, 80
5, 4155, Note_on_c, 3, 34, 0
5, 4175, Note_on_c, 3, 37, 80
5, 4205, Note_on_c, 3, 37, 0
5, 4212, Control_c, 3, 11, 49
5, 4225, Note_on_c, 3, 29, 80
5, 4255, Note_on_c, 3, 29, 0
5, 4275, Note_on_c, 3, 37, 80
5, 4305, Note_on_c, 3, 37, 0
5, 4324, Note_on_c, 3, 34, 80
5, 4338, Control_c, 3, 11, 50
5, 4464, Control_c, 3, 11, 51
5, 4559, Note_on_c, 3, 36, 80
5, 4569, Note_on_c, 3, 34, 0
5, 4589, Note_on_c, 3, 36, 0
5, 4590, Control_c, 3, 11, 52
5, 4615, Note_on_c, 3, 41, 100
5, 4716, Control_c, 3, 11, 53
5, 4727, Note_on_c, 3, 35, 80
5, 4733, Note_on_c, 3, 41, 0
5, 4757, Note_on_c, 3, 35, 0
5, 4782, Note_on_c, 3, 36, 80
5, 4812, Note_on_c, 3, 36, 0
5, 4836, Note_on_c, 3, 39, 100
5, 4842, Control_c, 3, 11, 54
5, 4944, Note_on_c, 3, 37, 80
5, 4948, Note_on_c, 3, 39, 0
5, 4968, Control_c, 3, 11, 55
5, 4974, Note_on_c, 3, 37, 0
5, 4999, Note_on_c, 3, 37, 80
5, 5094, Control_c, 3, 11, 56
5, 5105, Note_on_c, 3, 41, 85
5, 5111, Note_on_c, 3, 37, 0
5, 5145, Note_on_c, 3, 41, 0
5, 5158, Note_on_c, 3, 46, 85
5, 5198, Note_on_c, 3, 46, 0
5, 5211, Note_on_c, 3, 49, 90
5, 5220, Control_c, 3, 11, 57
5, 5346, Control_c, 3, 11, 58
5, 5425, Note_on_c, 3, 37, 80
5, 5433, Note_on_c, 3, 49, 0
5, 5455, Note_on_c, 3, 37, 0
5, 5472, Control_c, 3, 11, 59
5, 5481, Note_on_c, 3, 37, 80
5, 5511, Note_on_c, 3, 37, 0
5, 5537, Note_on_c, 3, 37, 80
5, 5567, Note_on_c, 3, 37, 0
5, 5593, Note_on_c, 3, 37, 80
5, 5598, Control_c, 3, 11, 60
5, 5623, Note_on_c, 3, 37, 0
5, 5649, Note_on_c, 3, 37, 80
5, 5679, Note_on_c, 3, 37, 0
5, 5705, Note_on_c, 3, 37, 80
5, 5724, Control_c, 3, 11, 61
5, 5735, Note_on_c, 3, 37, 0
5, 5761, Note_on_c, 3, 37, 80
5, 5791, Note_on_c, 3, 37, 0
5, 5817, Note_on_c, 3, 37, 80
5, 5847, Note_on_c, 3, 37, 0
5, 5850, Control_c, 3, 11, 62
5, 5872, Note_on_c, 3, 36, 85
5, 5902, Note_on_c, 3, 36, 0
5, 5926, Note_on_c, 3, 36, 85
5, 5956, Note_on_c, 3, 36, 0
5, 5976, Control_c, 3, 11, 63
5, 5980, Note_on_c, 3, 36, 85
5, 6010, Note_on_c, 3, 36, 0
5, 6034, Note_on_c, 3, 36, 85
5, 6064, Note_on_c, 3, 36, 0
5, 6089, Note_on_c, 3, 36, 85
5, 6102, Control_c, 3, 11, 64
5, 6119, Note_on_c, 3, 36, 0
5, 6143, Note_on_c, 3, 36, 85
5, 6173, Note_on_c, 3, 36, 0
5, 6197, Note_on_c, 3, 36, 85
5, 6227, Note_on_c, 3, 36, 0
5, 6228, Control_c, 3, 11, 65
5, 6254, Note_on_c, 3, 36, 85
5, 6284, Note_on_c, 3, 36, 0
5, 6306, Note_on_c, 3, 35, 90
5, 6336, Note_on_c, 3, 35, 0
5, 6354, Control_c, 3, 11, 66
5, 6368, Note_on_c, 3, 35, 90
5, 6398, Note_on_c, 3, 35, 0
5, 6422, Note_on_c, 3, 35, 90
5, 6452, Note_on_c, 3, 35, 0
5, 6476, Note_on_c, 3, 35, 90
5, 6480, Control_c, 3, 11, 67
5, 6506, Note_on_c, 3, 35, 0
5, 6530, Note_on_c, 3, 38, 95
5, 6560, Note_on_c, 3, 38, 0
5, 6581, Note_on_c, 3, 38, 95
5, 6606, Control_c, 3, 11, 68
5, 6611, Note_on_c, 3, 38, 0
5, 6635, Note_on_c, 3, 38, 95
5, 6665, Note_on_c, 3, 38, 0
5, 6690, Note_on_c, 3, 38, 95
5, 6720, Note_on_c, 3, 38, 0
5, 6732, Control_c, 3, 11, 69
5, 6746, Note_on_c, 3, 39, 100
5, 6776, Note_on_c, 3, 39, 0
5, 6800, Note_on_c, 3, 39, 100
5, 6830, Note_on_c, 3, 39, 0
5, 6856, Note_on_c, 3, 39, 100
5, 6858, Control_c, 3, 11, 70
5, 6886, Note_on_c, 3, 39, 0
5, 6912, Note_on_c, 3, 39, 100
5, 6942, Note_on_c, 3, 39, 0
5, 6965, Note_on_c, 3, 40, 105
5, 6984, Control_c, 3, 11, 71
5, 6995, Note_on_c, 3, 40, 0
5, 7016, Note_on_c, 3, 40, 105
5, 7046, Note_on_c, 3, 40, 0
5, 7072, Note_on_c, 3, 40, 105
5, 7102, Note_on_c, 3, 40, 0
5, 7110, Control_c, 3, 11, 72
5, 7128, Note_on_c, 3, 40, 105
5, 7158, Note_on_c, 3, 40, 0
5, 7185, Note_on_c, 3, 41, 110
5, 7215, Note_on_c, 3, 41, 0
5, 7236, Control_c, 3, 11, 73
5, 7237, Note_on_c, 3, 41, 110
5, 7267, Note_on_c, 3, 41, 0
5, 7290, Note_on_c, 3, 39, 100
5, 7320, Note_on_c, 3, 39, 0
5, 7341, Note_on_c, 3, 39, 100
5, 7362, Control_c, 3, 11, 95
5, 7371, Note_on_c, 3, 39, 0
5, 7398, Note_on_c, 3, 38, 95
5, 7428, Note_on_c, 3, 38, 0
5, 7453, Note_on_c, 3, 38, 95
5, 7483, Note_on_c, 3, 38, 0
5, 7488, Control_c, 3, 11, 75
5, 7508, Note_on_c, 3, 37, 95
5, 7538, Note_on_c, 3, 37, 0
5, 7564, Note_on_c, 3, 37, 95
5, 7594, Note_on_c, 3, 37, 0
5, 7614, Control_c, 3, 11, 76
5, 7620, Note_on_c, 3, 36, 90
5, 7650, Note_on_c, 3, 36, 0
5, 7676, Note_on_c, 3, 36, 90
5, 7706, Note_on_c, 3, 36, 0
5, 7732, Note_on_c, 3, 36, 90
5, 7740, Control_c, 3, 11, 77
5, 7762, Note_on_c, 3, 36, 0
5, 7782, Note_on_c, 3, 36, 90
5, 7812, Note_on_c, 3, 36, 0
5, 7838, Note_on_c, 3, 34, 85
5, 7866, Control_c, 3, 11, 78
5, 7868, Note_on_c, 3, 34, 0
5, 7895, Note_on_c, 3, 34, 85
5, 7925, Note_on_c, 3, 34, 0
5, 7952, Note_on_c, 3, 32, 80
5, 7982, Note_on_c, 3, 32, 0
5, 7992, Control_c, 3, 11, 79
5, 8004, Note_on_c, 3, 32, 80
5, 8034, Note_on_c, 3, 32, 0
5, 8057, Note_on_c, 3, 31, 80
5, 8102, Note_on_c, 3, 31, 0
5, 8118, Note_on_c, 3, 40, 110
5, 8118, Control_c, 3, 11, 70
5, 8208, Note_on_c, 3, 40, 0
5, 8223, Note_on_c, 3, 41, 90
5, 8268, Note_on_c, 3, 41, 0
5, 8278, Note_on_c, 3, 43, 90
5, 8323, Note_on_c, 3, 43, 0
5, 8329, Note_on_c, 3, 44, 90
5, 8374, Note_on_c, 3, 44, 0
5, 8384, Note_on_c, 3, 46, 90
5, 8429, Note_on_c, 3, 46, 0
5, 8434, Note_on_c, 3, 47, 90
5, 8479, Note_on_c, 3, 47, 0
5, 8484, Note_on_c, 3, 48, 90
5, 8534, Note_on_c, 3, 48, 0
5, 8544, Note_on_c, 3, 49, 110
5, 8639, Note_on_c, 3, 49, 0
5, 8650, Note_on_c, 3, 48, 90
5, 8695, Note_on_c, 3, 48, 0
5, 8708, Note_on_c, 3, 46, 90
5, 8753, Note_on_c, 3, 46, 0
5, 8759, Note_on_c, 3, 44, 90
5, 8804, Note_on_c, 3, 44, 0
5, 8813, Note_on_c, 3, 43, 90
5, 8858, Note_on_c, 3, 43, 0
5, 8863, Note_on_c, 3, 41, 90
5, 8908, Note_on_c, 3, 41, 0
5, 8918, Note_on_c, 3, 40, 90
5, 8966, Note_on_c, 3, 40, 0
5, 8974, Note_on_c, 3, 40, 110
5, 9070, Note_on_c, 3, 40, 0
5, 9088, Note_on_c, 3, 41, 90
5, 9133, Note_on_c, 3, 41, 0
5, 9145, Note_on_c, 3, 43, 90
5, 9190, Note_on_c, 3, 43, 0
5, 9193, Note_on_c, 3, 44, 90
5, 9238, Note_on_c, 3, 44, 0
5, 9244, Note_on_c, 3, 46, 90
5, 9289, Note_on_c, 3, 46, 0
5, 9292, Note_on_c, 3, 44, 90
5, 9337, Note_on_c, 3, 44, 0
5, 9348, Note_on_c, 3, 45, 90
5, 9393, Note_on_c, 3, 45, 0
5, 9404, Note_on_c, 3, 33, 110
5, 9499, Note_on_c, 3, 33, 0
5, 9516, Note_on_c, 3, 34, 90
5, 9561, Note_on_c, 3, 34, 0
5, 9567, Note_on_c, 3, 36, 90
5, 9612, Note_on_c, 3, 36, 0
5, 9615, Note_on_c, 3, 37, 90
5, 9660, Note_on_c, 3, 37, 0
5, 9665, Note_on_c, 3, 39, 90
5, 9710, Note_on_c, 3, 39, 0
5, 9715, Note_on_c, 3, 37, 90
5, 9760, Note_on_c, 3, 37, 0
5, 9770, Note_on_c, 3, 34, 90
5, 9815, Note_on_c, 3, 34, 0
5, 9883, Note_on_c, 3, 46, 110
5, 10107, Note_on_c, 3, 45, 80
5, 10113, Note_on_c, 3, 46, 0
5, 10202, Note_on_c, 3, 45, 0
5, 10212, Note_on_c, 3, 44, 80
5, 10302, Note_on_c, 3, 44, 0
5, 10320, Note_on_c, 3, 44, 110
5, 10533, Note_on_c, 3, 43, 80
5, 10540, Note_on_c, 3, 44, 0
5, 10623, Note_on_c, 3, 43, 0
5, 10642, Note_on_c, 3, 42, 80
5, 10732, Note_on_c, 3, 42, 0
5, 10752, Note_on_c, 3, 42, 80
5, 10782, Note_on_c, 3, 42, 0
5, 10805, Note_on_c, 3, 41, 80
5, 10835, Note_on_c, 3, 41, 0
5, 10859, Note_on_c, 3, 39, 80
5, 10889, Note_on_c, 3, 39, 0
5, 10913, Note_on_c, 3, 39, 80
5, 10943, Note_on_c, 3, 39, 0
5, 10968, Note_on_c, 3, 39, 80
5, 10998, Note_on_c, 3, 39, 0
5, 11022, Note_on_c, 3, 39, 80
5, 11052, Note_on_c, 3, 39, 0
5, 11076, Note_on_c, 3, 38, 80
5, 11106, Note_on_c, 3, 38, 0
5, 11130, Note_on_c, 3, 38, 80
5, 11160, Note_on_c, 3, 38, 0
5, 11186, Note_on_c, 3, 37, 100
5, 11216, Note_on_c, 3, 37, 0
5, 11234, Note_on_c, 3, 37, 80
5, 11264, Note_on_c, 3, 37, 0
5, 11282, Note_on_c, 3, 37, 80
5, 11312, Note_on_c, 3, 37, 0
5, 11330, Note_on_c, 3, 37, 80
5, 11360, Note_on_c, 3, 37, 0
5, 11378, Note_on_c, 3, 37, 80
5, 11408, Note_on_c, 3, 37, 0
5, 11428, Note_on_c, 3, 37, 80
5, 11458, Note_on_c, 3, 37, 0
5, 11499, Note_on_c, 3, 36, 100
5, 11544, Note_on_c, 3, 36, 0
5, 11617, Note_on_c, 3, 48, 110
5, 11830, Note_on_c, 3, 36, 80
5, 11832, Note_on_c, 3, 48, 0
5, 11875, Note_on_c, 3, 36, 0
5, 11940, Note_on_c, 3, 35, 80
5, 11985, Note_on_c, 3, 35, 0
5, 12066, Note_on_c, 3, 47, 110
5, 12286, Note_on_c, 3, 47, 0
5, 12297, Note_on_c, 3, 35, 80
5, 12342, Note_on_c, 3, 35, 0
5, 12406, Note_on_c, 3, 34, 80
5, 12451, Note_on_c, 3, 34, 0
5, 12520, Note_on_c, 3, 46, 110
5, 12715, Note_on_c, 3, 46, 0
5, 12735, Note_on_c, 3, 46, 80
5, 12780, Note_on_c, 3, 46, 0
5, 12847, Note_on_c, 3, 44, 100
5, 12892, Note_on_c, 3, 44, 0
5, 12970, Note_on_c, 3, 32, 110
5, 13060, Note_on_c, 3, 32, 0
5, 15360, Control_c, 3, 11, 65
5, 15388, Note_on_c, 3, 41, 80
5, 15408, Note_on_c, 3, 32, 100
5, 15413, Note_on_c, 3, 41, 0
5, 15490, Note_on_c, 3, 34, 80
5, 15493, Note_on_c, 3, 32, 0
5, 15518, Note_on_c, 3, 36, 80
5, 15522, Note_on_c, 3, 34, 0
5, 15628, Note_on_c, 3, 36, 0
5, 19321, Program_c, 3, 45
5, 19370, Control_c, 3, 11, 55
5, 19397, Note_on_c, 3, 39, 50
5, 19457, Note_on_c, 3, 39, 0
5, 19512, Note_on_c, 3, 41, 50
5, 19572, Note_on_c, 3, 41, 0
5, 19628, Note_on_c, 3, 43, 50
5, 19688, Note_on_c, 3, 43, 0
5, 19753, Note_on_c, 3, 44, 50
5, 19800, Program_c, 3, 48
5, 19813, Note_on_c, 3, 44, 0
5, 19978, Note_on_c, 3, 39, 80
5, 20208, Note_on_c, 3, 39, 0
5, 20218, Note_on_c, 3, 44, 60
5, 20308, Note_on_c, 3, 44, 0
5, 20790, Note_on_c, 3, 44, 60
5, 20902, Note_on_c, 3, 46, 80
5, 20905, Note_on_c, 3, 44, 0
5, 21126, Note_on_c, 3, 39, 60
5, 21132, Note_on_c, 3, 46, 0
5, 21216, Note_on_c, 3, 39, 0
5, 21354, Note_on_c, 3, 45, 80
5, 21384, Note_on_c, 3, 45, 0
5, 21407, Note_on_c, 3, 45, 80
5, 21437, Note_on_c, 3, 45, 0
5, 21461, Note_on_c, 3, 45, 80
5, 21491, Note_on_c, 3, 45, 0
5, 21514, Note_on_c, 3, 45, 80
5, 21544, Note_on_c, 3, 45, 0
5, 21574, Note_on_c, 3, 46, 85
5, 21604, Note_on_c, 3, 46, 0
5, 21634, Note_on_c, 3, 46, 85
5, 21664, Note_on_c, 3, 46, 0
5, 21694, Note_on_c, 3, 44, 85
5, 21724, Note_on_c, 3, 44, 0
5, 21746, Note_on_c, 3, 44, 85
5, 21776, Note_on_c, 3, 44, 0
5, 21801, Note_on_c, 3, 43, 90
5, 21831, Note_on_c, 3, 43, 0
5, 21855, Note_on_c, 3, 43, 90
5, 21885, Note_on_c, 3, 43, 0
5, 21911, Note_on_c, 3, 44, 95
5, 21941, Note_on_c, 3, 44, 0
5, 21965, Note_on_c, 3, 44, 95
5, 21995, Note_on_c, 3, 44, 0
5, 22021, Note_on_c, 3, 41, 95
5, 22051, Note_on_c, 3, 41, 0
5, 22075, Note_on_c, 3, 41, 95
5, 22105, Note_on_c, 3, 41, 0
5, 22131, Note_on_c, 3, 43, 95
5, 22161, Note_on_c, 3, 43, 0
5, 22187, Note_on_c, 3, 43, 95
5, 22217, Note_on_c, 3, 43, 0
5, 22245, Note_on_c, 3, 37, 100
5, 22335, Note_on_c, 3, 37, 0
5, 23233, Control_c, 3, 11, 55
5, 24983, Note_on_c, 3, 43, 80
5, 25048, Note_on_c, 3, 43, 0
5, 25067, Note_on_c, 3, 43, 80
5, 25090, Note_on_c, 3, 43, 0
5, 25095, Note_on_c, 3, 44, 80
5, 25175, Note_on_c, 3, 44, 0
5, 25203, Note_on_c, 3, 43, 80
5, 25268, Note_on_c, 3, 43, 0
5, 25287, Note_on_c, 3, 43, 80
5, 25310, Note_on_c, 3, 43, 0
5, 25318, Note_on_c, 3, 44, 80
5, 25398, Note_on_c, 3, 44, 0
5, 25428, Control_c, 3, 11, 60
5, 25428, Note_on_c, 3, 46, 80
5, 25466, Control_c, 3, 11, 61
5, 25505, Control_c, 3, 11, 62
5, 25509, Note_on_c, 3, 48, 85
5, 25518, Note_on_c, 3, 46, 0
5, 25539, Note_on_c, 3, 48, 0
5, 25542, Note_on_c, 3, 49, 90
5, 25543, Control_c, 3, 11, 63
5, 25582, Control_c, 3, 11, 64
5, 25620, Control_c, 3, 11, 65
5, 25649, Note_on_c, 3, 51, 90
5, 25652, Note_on_c, 3, 49, 0
5, 25659, Control_c, 3, 11, 66
5, 25697, Control_c, 3, 11, 67
5, 25736, Control_c, 3, 11, 68
5, 25739, Note_on_c, 3, 51, 0
5, 25761, Note_on_c, 3, 40, 80
5, 25774, Control_c, 3, 11, 69
5, 25791, Note_on_c, 3, 40, 0
5, 25813, Control_c, 3, 11, 70
5, 25817, Note_on_c, 3, 40, 80
5, 25847, Note_on_c, 3, 40, 0
5, 25852, Control_c, 3, 11, 71
5, 25874, Note_on_c, 3, 40, 80
5, 25890, Control_c, 3, 11, 72
5, 25904, Note_on_c, 3, 40, 0
5, 25925, Note_on_c, 3, 40, 80
5, 25929, Control_c, 3, 11, 73
5, 25955, Note_on_c, 3, 40, 0
5, 25967, Control_c, 3, 11, 74
5, 25988, Note_on_c, 3, 39, 85
5, 26006, Control_c, 3, 11, 75
5, 26018, Note_on_c, 3, 39, 0
5, 26039, Note_on_c, 3, 39, 85
5, 26044, Control_c, 3, 11, 76
5, 26069, Note_on_c, 3, 39, 0
5, 26083, Control_c, 3, 11, 77
5, 26091, Note_on_c, 3, 39, 85
5, 26121, Note_on_c, 3, 39, 0
5, 26121, Control_c, 3, 11, 78
5, 26141, Note_on_c, 3, 39, 85
5, 26160, Control_c, 3, 11, 79
5, 26171, Note_on_c, 3, 39, 0
5, 26199, Control_c, 3, 11, 80
5, 26199, Note_on_c, 3, 38, 90
5, 26221, Control_c, 3, 11, 79
5, 26229, Note_on_c, 3, 38, 0
5, 26244, Control_c, 3, 11, 78
5, 26253, Note_on_c, 3, 38, 90
5, 26267, Control_c, 3, 11, 77
5, 26283, Note_on_c, 3, 38, 0
5, 26289, Control_c, 3, 11, 76
5, 26307, Note_on_c, 3, 37, 90
5, 26312, Control_c, 3, 11, 75
5, 26335, Control_c, 3, 11, 74
5, 26337, Note_on_c, 3, 37, 0
5, 26357, Control_c, 3, 11, 73
5, 26362, Note_on_c, 3, 37, 90
5, 26380, Control_c, 3, 11, 72
5, 26392, Note_on_c, 3, 37, 0
5, 26403, Control_c, 3, 11, 71
5, 26419, Note_on_c, 3, 36, 85
5, 26426, Control_c, 3, 11, 70
5, 26448, Control_c, 3, 11, 69
5, 26449, Note_on_c, 3, 36, 0
5, 26471, Control_c, 3, 11, 68
5, 26474, Note_on_c, 3, 36, 85
5, 26494, Control_c, 3, 11, 67
5, 26504, Note_on_c, 3, 36, 0
5, 26516, Control_c, 3, 11, 66
5, 26529, Note_on_c, 3, 36, 85
5, 26539, Control_c, 3, 11, 65
5, 26559, Note_on_c, 3, 36, 0
5, 26562, Control_c, 3, 11, 64
5, 26584, Control_c, 3, 11, 63
5, 26584, Note_on_c, 3, 36, 85
5, 26607, Control_c, 3, 11, 62
5, 26614, Note_on_c, 3, 36, 0
5, 26630, Control_c, 3, 11, 61
5, 26653, Control_c, 3, 11, 60
5, 26653, Note_on_c, 3, 36, 85
5, 26683, Note_on_c, 3, 36, 0
5, 26695, Control_c, 3, 11, 61
5, 26708, Note_on_c, 3, 36, 85
5, 26738, Note_on_c, 3, 36, 0
5, 26738, Control_c, 3, 11, 62
5, 26762, Note_on_c, 3, 36, 80
5, 26781, Control_c, 3, 11, 63
5, 26792, Note_on_c, 3, 36, 0
5, 26815, Note_on_c, 3, 36, 80
5, 26824, Control_c, 3, 11, 64
5, 26845, Note_on_c, 3, 36, 0
5, 26867, Control_c, 3, 11, 65
5, 26869, Note_on_c, 3, 34, 80
5, 26899, Note_on_c, 3, 34, 0
5, 26909, Control_c, 3, 11, 66
5, 26924, Note_on_c, 3, 34, 80
5, 26952, Control_c, 3, 11, 67
5, 26954, Note_on_c, 3, 34, 0
5, 26977, Note_on_c, 3, 34, 80
5, 26995, Control_c, 3, 11, 68
5, 27007, Note_on_c, 3, 34, 0
5, 27027, Note_on_c, 3, 34, 80
5, 27038, Control_c, 3, 11, 69
5, 27057, Note_on_c, 3, 34, 0
5, 27081, Control_c, 3, 11, 70
5, 27085, Note_on_c, 3, 34, 80
5, 27115, Note_on_c, 3, 34, 0
5, 27123, Control_c, 3, 11, 71
5, 27140, Note_on_c, 3, 34, 80
5, 27166, Control_c, 3, 11, 72
5, 27170, Note_on_c, 3, 34, 0
5, 27188, Note_on_c, 3, 34, 80
5, 27209, Control_c, 3, 11, 73
5, 27218, Note_on_c, 3, 34, 0
5, 27240, Note_on_c, 3, 34, 80
5, 27252, Control_c, 3, 11, 74
5, 27270, Note_on_c, 3, 34, 0
5, 27295, Control_c, 3, 11, 75
5, 27295, Note_on_c, 3, 32, 90
5, 27365, Note_on_c, 3, 32, 0
5, 27411, Note_on_c, 3, 37, 90
5, 27481, Note_on_c, 3, 37, 0
5, 27521, Note_on_c, 3, 31, 90
5, 27591, Note_on_c, 3, 31, 0
5, 27633, Note_on_c, 3, 36, 90
5, 27703, Note_on_c, 3, 36, 0
5, 27743, Note_on_c, 3, 41, 90
5, 27743, Note_on_c, 3, 29, 90
5, 27813, Note_on_c, 3, 29, 0
5, 27813, Note_on_c, 3, 41, 0
5, 27840, Control_c, 3, 11, 55
5, 27850, Note_on_c, 3, 46, 50
5, 27850, Note_on_c, 3, 34, 50
5, 27930, Note_on_c, 3, 46, 0
5, 27950, Note_on_c, 3, 34, 0
5, 27963, Note_on_c, 3, 40, 50
5, 28063, Note_on_c, 3, 40, 0
5, 28067, Note_on_c, 3, 41, 50
5, 28167, Note_on_c, 3, 41, 0
5, 28176, Note_on_c, 3, 24, 50
5, 28276, Note_on_c, 3, 24, 0
5, 28285, Note_on_c, 3, 25, 50
5, 28320, Control_c, 3, 11, 50
5, 28385, Note_on_c, 3, 25, 0
5, 28405, Note_on_c, 3, 34, 50
5, 28575, Note_on_c, 3, 34, 0
5, 28954, Note_on_c, 3, 34, 50
5, 29024, Note_on_c, 3, 34, 0
5, 29068, Note_on_c, 3, 37, 50
5, 29138, Note_on_c, 3, 37, 0
5, 29182, Note_on_c, 3, 34, 50
5, 29252, Note_on_c, 3, 34, 0
5, 29296, Note_on_c, 3, 37, 50
5, 29466, Note_on_c, 3, 37, 0
5, 29853, Note_on_c, 3, 34, 50
5, 29923, Note_on_c, 3, 34, 0
5, 29967, Note_on_c, 3, 37, 50
5, 30037, Note_on_c, 3, 37, 0
5, 30081, Note_on_c, 3, 34, 50
5, 30151, Note_on_c, 3, 34, 0
5, 30195, Note_on_c, 3, 37, 50
5, 30423, Note_on_c, 3, 34, 35
5, 30425, Note_on_c, 3, 37, 0
5, 30537, Note_on_c, 3, 37, 35
5, 30543, Note_on_c, 3, 34, 0
5, 30630, Note_on_c, 3, 37, 0
5, 30651, Note_on_c, 3, 34, 50
5, 30871, Note_on_c, 3, 34, 0
5, 30879, Note_on_c, 3, 37, 50
5, 31099, Note_on_c, 3, 37, 0
5, 31107, Note_on_c, 3, 34, 50
5, 31827, Note_on_c, 3, 34, 0
5, 31882, Note_on_c, 3, 34, 50
5, 32047, Note_on_c, 3, 34, 0
5, 32071, Note_on_c, 3, 36, 45
5, 32221, Note_on_c, 3, 36, 0
5, 32240, Note_on_c, 3, 29, 40
5, 32420, Note_on_c, 3, 29, 0
5, 35612, Control_c, 3, 11, 60
5, 44817, Note_on_c, 3, 39, 55
5, 45335, Note_on_c, 3, 44, 55
5, 45337, Note_on_c, 3, 39, 0
5, 45460, Note_on_c, 3, 44, 0
5, 45840, Control_c, 3, 11, 65
5, 45883, Note_on_c, 3, 35, 50
5, 46131, Note_on_c, 3, 38, 50
5, 46133, Note_on_c, 3, 35, 0
5, 46357, Note_on_c, 3, 35, 50
5, 46361, Note_on_c, 3, 38, 0
5, 46467, Note_on_c, 3, 35, 0
5, 48071, Note_on_c, 3, 53, 66
5, 48306, Note_on_c, 3, 48, 50
5, 48321, Note_on_c, 3, 53, 0
5, 48416, Note_on_c, 3, 48, 0
5, 52239, Note_on_c, 3, 41, 55
5, 52357, Note_on_c, 3, 39, 55
5, 52369, Note_on_c, 3, 41, 0
5, 52477, Note_on_c, 3, 37, 60
5, 52487, Note_on_c, 3, 39, 0
5, 52594, Note_on_c, 3, 36, 65
5, 52607, Note_on_c, 3, 37, 0
5, 52724, Note_on_c, 3, 36, 0
5, 52727, Note_on_c, 3, 35, 70
5, 52837, Note_on_c, 3, 35, 0
5, 54117, Note_on_c, 3, 39, 50
5, 54373, Note_on_c, 3, 56, 50
5, 54392, Note_on_c, 3, 39, 0
5, 54483, Note_on_c, 3, 56, 0
5, 54635, Note_on_c, 3, 34, 50
5, 54914, Note_on_c, 3, 39, 50
5, 54925, Note_on_c, 3, 34, 0
5, 55034, Note_on_c, 3, 39, 0
5, 57061, Note_on_c, 3, 39, 50
5, 58501, Note_on_c, 3, 39, 0
5, 64200, Control_c, 3, 11, 50
5, 66600, Program_c, 3, 48
5, 83562, Note_on_c, 3, 51, 50
5, 84168, Note_on_c, 3, 56, 50
5, 84187, Note_on_c, 3, 51, 0
5, 84288, Note_on_c, 3, 56, 0
5, 89783, Note_on_c, 3, 35, 75
5, 90064, Note_on_c, 3, 36, 60
5, 90073, Note_on_c, 3, 35, 0
5, 90184, Note_on_c, 3, 36, 0
5, 90221, Note_on_c, 3, 53, 70
5, 90321, Note_on_c, 3, 53, 0
5, 93667, Note_on_c, 3, 31, 63
5, 94177, Note_on_c, 3, 31, 0
5, 94206, Note_on_c, 3, 31, 75
5, 94306, Note_on_c, 3, 31, 0
5, 94348, Note_on_c, 3, 31, 78
5, 94448, Note_on_c, 3, 31, 0
5, 94487, Note_on_c, 3, 31, 81
5, 94587, Note_on_c, 3, 31, 0
5, 94632, Note_on_c, 3, 31, 84
5, 94732, Note_on_c, 3, 31, 0
5, 94780, Control_c, 3, 11, 60
5, 94780, Note_on_c, 3, 36, 70
5, 95020, Note_on_c, 3, 36, 0
5, 95020, Note_on_c, 3, 39, 70
5, 95050, Note_on_c, 3, 39, 0
5, 95080, Note_on_c, 3, 44, 70
5, 95100, Note_on_c, 3, 48, 70
5, 95110, Note_on_c, 3, 44, 0
5, 95160, Note_on_c, 3, 48, 0
5, 95180, Note_on_c, 3, 36, 85
5, 95340, Note_on_c, 3, 36, 0
5, 95340, Note_on_c, 3, 35, 70
5, 95410, Note_on_c, 3, 35, 0
5, 95420, Note_on_c, 3, 34, 70
5, 95660, Note_on_c, 3, 34, 0
5, 95660, Note_on_c, 3, 38, 70
5, 95690, Note_on_c, 3, 38, 0
5, 95720, Note_on_c, 3, 43, 70
5, 95740, Note_on_c, 3, 46, 70
5, 95750, Note_on_c, 3, 43, 0
5, 95800, Note_on_c, 3, 46, 0
5, 95820, Note_on_c, 3, 34, 70
5, 95980, Note_on_c, 3, 34, 0
5, 95980, Note_on_c, 3, 33, 70
5, 96050, Note_on_c, 3, 33, 0
5, 96060, Note_on_c, 3, 32, 70
5, 96090, Note_on_c, 3, 32, 0
5, 96100, Note_on_c, 3, 44, 80
5, 96180, Note_on_c, 3, 44, 0
5, 96180, Note_on_c, 3, 43, 70
5, 96210, Note_on_c, 3, 43, 0
5, 96220, Note_on_c, 3, 41, 70
5, 96250, Note_on_c, 3, 41, 0
5, 96260, Note_on_c, 3, 39, 70
5, 96290, Note_on_c, 3, 39, 0
5, 96300, Note_on_c, 3, 38, 70
5, 96330, Note_on_c, 3, 38, 0
5, 96340, Note_on_c, 3, 36, 70
5, 96370, Note_on_c, 3, 36, 0
5, 96380, Note_on_c, 3, 35, 70
5, 96410, Note_on_c, 3, 35, 0
5, 96420, Note_on_c, 3, 35, 85
5, 96480, Note_on_c, 3, 35, 0
5, 96500, Note_on_c, 3, 36, 70
5, 96530, Note_on_c, 3, 36, 0
5, 96540, Note_on_c, 3, 38, 70
5, 96570, Note_on_c, 3, 38, 0
5, 96580, Note_on_c, 3, 41, 85
5, 96640, Note_on_c, 3, 41, 0
5, 96660, Note_on_c, 3, 39, 70
5, 96690, Note_on_c, 3, 39, 0
5, 96700, Note_on_c, 3, 40, 70
5, 96730, Note_on_c, 3, 40, 0
5, 96740, Note_on_c, 3, 40, 85
5, 96800, Note_on_c, 3, 40, 0
5, 96820, Note_on_c, 3, 41, 70
5, 96850, Note_on_c, 3, 41, 0
5, 96860, Note_on_c, 3, 43, 70
5, 96890, Note_on_c, 3, 43, 0
5, 96900, Note_on_c, 3, 46, 90
5, 96960, Note_on_c, 3, 46, 0
5, 96980, Note_on_c, 3, 44, 70
5, 97010, Note_on_c, 3, 44, 0
5, 97020, Note_on_c, 3, 47, 70
5, 97070, Note_on_c, 3, 47, 0
5, 97100, Note_on_c, 3, 48, 70
5, 97150, Note_on_c, 3, 48, 0
5, 97900, Control_c, 3, 11, 60
5, 97900, Note_on_c, 3, 35, 45
5, 97980, Note_on_c, 3, 36, 46
5, 97990, Note_on_c, 3, 35, 0
5, 98060, Note_on_c, 3, 38, 47
5, 98070, Note_on_c, 3, 36, 0
5, 98140, Note_on_c, 3, 39, 48
5, 98150, Note_on_c, 3, 38, 0
5, 98220, Note_on_c, 3, 41, 49
5, 98230, Note_on_c, 3, 39, 0
5, 98300, Note_on_c, 3, 43, 50
5, 98310, Note_on_c, 3, 41, 0
5, 98350, Note_on_c, 3, 43, 0
5, 98540, Note_on_c, 3, 35, 55
5, 98590, Note_on_c, 3, 35, 0
5, 98600, Note_on_c, 3, 35, 55
5, 98616, Note_on_c, 3, 35, 0
5, 98620, Note_on_c, 3, 36, 55
5, 98650, Note_on_c, 3, 36, 0
5, 98660, Note_on_c, 3, 39, 55
5, 98690, Note_on_c, 3, 39, 0
5, 98700, Note_on_c, 3, 35, 55
5, 98730, Note_on_c, 3, 35, 0
5, 98740, Note_on_c, 3, 36, 55
5, 98770, Note_on_c, 3, 36, 0
5, 98780, Note_on_c, 3, 38, 55
5, 98810, Note_on_c, 3, 38, 0
5, 98820, Note_on_c, 3, 41, 55
5, 98850, Note_on_c, 3, 41, 0
5, 98860, Note_on_c, 3, 37, 55
5, 98890, Note_on_c, 3, 37, 0
5, 98900, Note_on_c, 3, 38, 55
5, 98930, Note_on_c, 3, 38, 0
5, 98940, Note_on_c, 3, 39, 57
5, 98970, Note_on_c, 3, 39, 0
5, 98980, Note_on_c, 3, 43, 57
5, 99010, Note_on_c, 3, 43, 0
5, 99020, Note_on_c, 3, 38, 59
5, 99050, Note_on_c, 3, 38, 0
5, 99060, Note_on_c, 3, 39, 59
5, 99090, Note_on_c, 3, 39, 0
5, 99100, Note_on_c, 3, 41, 61
5, 99130, Note_on_c, 3, 41, 0
5, 99140, Note_on_c, 3, 44, 61
5, 99170, Note_on_c, 3, 44, 0
5, 99180, Note_on_c, 3, 40, 63
5, 99210, Note_on_c, 3, 40, 0
5, 99220, Note_on_c, 3, 41, 63
5, 99250, Note_on_c, 3, 41, 0
5, 99260, Note_on_c, 3, 42, 65
5, 99290, Note_on_c, 3, 42, 0
5, 99320, Note_on_c, 3, 45, 65
5, 99337, Note_on_c, 3, 45, 0
5, 99340, Note_on_c, 3, 45, 65
5, 99390, Note_on_c, 3, 45, 0
5, 99400, Note_on_c, 3, 43, 65
5, 99417, Note_on_c, 3, 43, 0
5, 99420, Note_on_c, 3, 43, 65
5, 99470, Note_on_c, 3, 43, 0
5, 99480, Note_on_c, 3, 46, 65
5, 99497, Note_on_c, 3, 46, 0
5, 99500, Note_on_c, 3, 46, 65
5, 99550, Note_on_c, 3, 46, 0
5, 99560, Note_on_c, 3, 45, 65
5, 99577, Note_on_c, 3, 45, 0
5, 99580, Note_on_c, 3, 45, 65
5, 99630, Note_on_c, 3, 45, 0
5, 99640, Note_on_c, 3, 48, 65
5, 99657, Note_on_c, 3, 48, 0
5, 99660, Note_on_c, 3, 48, 65
5, 99710, Note_on_c, 3, 48, 0
5, 99720, Note_on_c, 3, 48, 65
5, 99737, Note_on_c, 3, 48, 0
5, 99740, Note_on_c, 3, 47, 65
5, 99780, Note_on_c, 3, 47, 65
5, 99790, Note_on_c, 3, 47, 0
5, 99820, Note_on_c, 3, 47, 65
5, 99830, Note_on_c, 3, 47, 0
5, 99850, Note_on_c, 3, 47, 0
5, 99860, Note_on_c, 3, 47, 65
5, 99890, Note_on_c, 3, 47, 0
5, 99900, Note_on_c, 3, 48, 65
5, 99930, Note_on_c, 3, 48, 0
5, 99940, Note_on_c, 3, 48, 65
5, 99970, Note_on_c, 3, 48, 0
5, 99980, Note_on_c, 3, 43, 65
5, 100030, Note_on_c, 3, 43, 0
5, 100040, Note_on_c, 3, 44, 65
5, 100057, Note_on_c, 3, 44, 0
5, 100060, Note_on_c, 3, 40, 65
5, 100110, Note_on_c, 3, 40, 0
5, 100120, Note_on_c, 3, 41, 65
5, 100137, Note_on_c, 3, 41, 0
5, 100140, Note_on_c, 3, 36, 65
5, 100190, Note_on_c, 3, 36, 0
5, 100200, Note_on_c, 3, 37, 65
5, 100217, Note_on_c, 3, 37, 0
5, 100220, Note_on_c, 3, 35, 65
5, 100260, Note_on_c, 3, 36, 65
5, 100265, Note_on_c, 3, 35, 0
5, 100300, Note_on_c, 3, 38, 65
5, 100305, Note_on_c, 3, 36, 0
5, 100340, Note_on_c, 3, 39, 65
5, 100345, Note_on_c, 3, 38, 0
5, 100370, Note_on_c, 3, 39, 0
5, 100380, Note_on_c, 3, 40, 65
5, 100420, Note_on_c, 3, 41, 65
5, 100425, Note_on_c, 3, 40, 0
5, 100460, Note_on_c, 3, 43, 65
5, 100465, Note_on_c, 3, 41, 0
5, 100500, Note_on_c, 3, 44, 65
5, 100505, Note_on_c, 3, 43, 0
5, 100540, Note_on_c, 3, 43, 65
5, 100545, Note_on_c, 3, 44, 0
5, 100700, Note_on_c, 3, 36, 55
5, 100705, Note_on_c, 3, 43, 0
5, 100860, Note_on_c, 3, 29, 50
5, 100865, Note_on_c, 3, 36, 0
5, 101100, Note_on_c, 3, 31, 55
5, 101110, Note_on_c, 3, 29, 0
5, 101160, Control_c, 3, 11, 45
5, 101170, Note_on_c, 3, 31, 0
5, 101180, Note_on_c, 3, 24, 50
5, 101500, Note_on_c, 3, 41, 50
5, 101500, Note_on_c, 3, 29, 50
5, 101510, Note_on_c, 3, 24, 0
5, 101820, Note_on_c, 3, 42, 50
5, 101820, Note_on_c, 3, 30, 50
5, 101830, Note_on_c, 3, 29, 0
5, 101830, Note_on_c, 3, 41, 0
5, 101980, Note_on_c, 3, 43, 50
5, 101980, Note_on_c, 3, 31, 50
5, 101990, Note_on_c, 3, 42, 0
5, 101990, Note_on_c, 3, 30, 0
5, 102130, Note_on_c, 3, 43, 0
5, 102130, Note_on_c, 3, 31, 0
5, 102140, Note_on_c, 3, 43, 50
5, 102140, Note_on_c, 3, 31, 50
5, 102460, Note_on_c, 3, 32, 50
5, 102470, Note_on_c, 3, 31, 0
5, 102470, Note_on_c, 3, 43, 0
5, 102700, Note_on_c, 3, 32, 0
5, 106480, Note_on_c, 3, 39, 50
5, 106760, Note_on_c, 3, 39, 0
5, 106761, Note_on_c, 3, 40, 50
5, 108801, Note_on_c, 3, 40, 0
5, 108913, Note_on_c, 3, 39, 50
5, 109033, Note_on_c, 3, 39, 0
5, 114311, Note_on_c, 3, 46, 50
5, 114544, Note_on_c, 3, 41, 50
5, 114551, Note_on_c, 3, 46, 0
5, 114604, Note_on_c, 3, 41, 0
5, 123188, Note_on_c, 3, 38, 60
5, 123308, Note_on_c, 3, 38, 0
5, 123333, Note_on_c, 3, 31, 60
5, 123453, Note_on_c, 3, 31, 0
5, 131192, Note_on_c, 3, 35, 75
5, 131572, Note_on_c, 3, 35, 0
5, 131601, Note_on_c, 3, 35, 80
5, 132131, Note_on_c, 3, 35, 0
5, 132142, Note_on_c, 3, 36, 70
5, 132192, Note_on_c, 3, 36, 0
5, 132202, Note_on_c, 3, 36, 70
5, 132252, Note_on_c, 3, 36, 0
5, 132322, Note_on_c, 3, 40, 70
5, 132372, Note_on_c, 3, 40, 0
5, 132382, Note_on_c, 3, 41, 70
5, 132432, Note_on_c, 3, 41, 0
5, 132442, Note_on_c, 3, 36, 70
5, 132492, Note_on_c, 3, 36, 0
5, 132562, Note_on_c, 3, 40, 70
5, 132612, Note_on_c, 3, 40, 0
5, 132622, Note_on_c, 3, 41, 70
5, 132672, Note_on_c, 3, 41, 0
5, 132682, Note_on_c, 3, 36, 70
5, 132732, Note_on_c, 3, 36, 0
5, 132802, Note_on_c, 3, 39, 70
5, 132852, Note_on_c, 3, 39, 0
5, 132862, Note_on_c, 3, 38, 70
5, 132912, Note_on_c, 3, 38, 0
5, 132922, Note_on_c, 3, 38, 70
5, 132972, Note_on_c, 3, 38, 0
5, 132982, Note_on_c, 3, 37, 70
5, 133032, Note_on_c, 3, 37, 0
5, 133042, Note_on_c, 3, 37, 70
5, 133092, Note_on_c, 3, 37, 0
5, 133102, Note_on_c, 3, 36, 70
5, 133152, Note_on_c, 3, 36, 0
5, 133162, Note_on_c, 3, 36, 70
5, 133212, Note_on_c, 3, 36, 0
5, 133282, Note_on_c, 3, 40, 70
5, 133332, Note_on_c, 3, 40, 0
5, 133342, Note_on_c, 3, 41, 70
5, 133392, Note_on_c, 3, 41, 0
5, 133402, Note_on_c, 3, 36, 70
5, 133452, Note_on_c, 3, 36, 0
5, 133522, Note_on_c, 3, 40, 70
5, 133572, Note_on_c, 3, 40, 0
5, 133582, Note_on_c, 3, 41, 70
5, 133632, Note_on_c, 3, 41, 0
5, 133642, Note_on_c, 3, 36, 70
5, 133692, Note_on_c, 3, 36, 0
5, 133762, Note_on_c, 3, 39, 70
5, 133812, Note_on_c, 3, 39, 0
5, 133822, Note_on_c, 3, 38, 70
5, 133872, Note_on_c, 3, 38, 0
5, 133882, Note_on_c, 3, 38, 70
5, 133932, Note_on_c, 3, 38, 0
5, 133942, Note_on_c, 3, 37, 70
5, 133992, Note_on_c, 3, 37, 0
5, 134002, Note_on_c, 3, 37, 70
5, 134052, Note_on_c, 3, 37, 0
5, 134062, Note_on_c, 3, 36, 70
5, 134112, Note_on_c, 3, 36, 0
5, 134122, Note_on_c, 3, 36, 70
5, 134172, Note_on_c, 3, 36, 0
5, 134182, Note_on_c, 3, 36, 70
5, 134232, Note_on_c, 3, 36, 0
5, 134242, Note_on_c, 3, 40, 70
5, 134292, Note_on_c, 3, 40, 0
5, 134302, Note_on_c, 3, 41, 70
5, 134352, Note_on_c, 3, 41, 0
5, 134362, Note_on_c, 3, 36, 70
5, 134412, Note_on_c, 3, 36, 0
5, 134482, Note_on_c, 3, 39, 70
5, 134532, Note_on_c, 3, 39, 0
5, 134542, Note_on_c, 3, 37, 70
5, 134592, Note_on_c, 3, 37, 0
5, 134602, Note_on_c, 3, 37, 70
5, 134672, Note_on_c, 3, 37, 0
5, 134722, Note_on_c, 3, 41, 70
5, 134772, Note_on_c, 3, 41, 0
5, 134782, Note_on_c, 3, 43, 70
5, 134832, Note_on_c, 3, 43, 0
5, 134842, Note_on_c, 3, 37, 70
5, 134892, Note_on_c, 3, 37, 0
5, 134962, Note_on_c, 3, 41, 70
5, 135012, Note_on_c, 3, 41, 0
5, 135022, Note_on_c, 3, 39, 70
5, 135072, Note_on_c, 3, 39, 0
5, 135082, Note_on_c, 3, 39, 70
5, 135132, Note_on_c, 3, 39, 0
5, 135142, Note_on_c, 3, 41, 70
5, 135192, Note_on_c, 3, 41, 0
5, 135202, Note_on_c, 3, 43, 70
5, 135252, Note_on_c, 3, 43, 0
5, 135262, Note_on_c, 3, 44, 70
5, 135312, Note_on_c, 3, 44, 0
5, 135322, Note_on_c, 3, 44, 70
5, 135372, Note_on_c, 3, 44, 0
5, 135382, Note_on_c, 3, 44, 70
5, 135432, Note_on_c, 3, 44, 0
5, 135442, Note_on_c, 3, 44, 70
5, 135492, Note_on_c, 3, 44, 0
5, 135502, Note_on_c, 3, 44, 70
5, 135552, Note_on_c, 3, 44, 0
5, 135562, Note_on_c, 3, 44, 70
5, 135612, Note_on_c, 3, 44, 0
5, 135622, Note_on_c, 3, 40, 70
5, 135672, Note_on_c, 3, 40, 0
5, 135682, Note_on_c, 3, 40, 70
5, 135732, Note_on_c, 3, 40, 0
5, 135742, Note_on_c, 3, 41, 70
5, 135792, Note_on_c, 3, 41, 0
5, 135802, Note_on_c, 3, 41, 70
5, 135852, Note_on_c, 3, 41, 0
5, 135862, Note_on_c, 3, 41, 70
5, 135912, Note_on_c, 3, 41, 0
5, 135922, Note_on_c, 3, 41, 70
5, 135972, Note_on_c, 3, 41, 0
5, 135982, Note_on_c, 3, 34, 70
5, 136032, Note_on_c, 3, 34, 0
5, 136192, Note_on_c, 3, 34, 70
5, 136214, Note_on_c, 3, 34, 0
5, 136222, Note_on_c, 3, 35, 70
5, 136272, Note_on_c, 3, 35, 0
5, 136432, Note_on_c, 3, 35, 70
5, 136454, Note_on_c, 3, 35, 0
5, 136462, Note_on_c, 3, 36, 70
5, 136512, Note_on_c, 3, 36, 0
5, 136672, Note_on_c, 3, 36, 70
5, 136694, Note_on_c, 3, 36, 0
5, 136702, Note_on_c, 3, 37, 70
5, 136752, Note_on_c, 3, 37, 0
5, 145290, Program_c, 3, 48
5, 145296, Control_c, 3, 11, 40
5, 163634, Note_on_c, 3, 37, 50
5, 164246, Note_on_c, 3, 32, 50
5, 164254, Note_on_c, 3, 37, 0
5, 164834, Note_on_c, 3, 37, 50
5, 164846, Note_on_c, 3, 32, 0
5, 165444, Note_on_c, 3, 32, 50
5, 165454, Note_on_c, 3, 37, 0
5, 165834, Note_on_c, 3, 32, 0
5, 171562, Note_on_c, 3, 36, 55
5, 171699, Note_on_c, 3, 29, 60
5, 171702, Note_on_c, 3, 36, 0
5, 171844, Note_on_c, 3, 35, 70
5, 171849, Note_on_c, 3, 29, 0
5, 171994, Note_on_c, 3, 35, 0
5, 172662, Note_on_c, 3, 35, 70
5, 172936, Note_on_c, 3, 36, 70
5, 172942, Note_on_c, 3, 35, 0
5, 173036, Note_on_c, 3, 36, 0
5, 174563, Note_on_c, 3, 29, 50
5, 174704, Note_on_c, 3, 27, 45
5, 174708, Note_on_c, 3, 29, 0
5, 174834, Note_on_c, 3, 25, 50
5, 174844, Note_on_c, 3, 27, 0
5, 174968, Note_on_c, 3, 34, 65
5, 174974, Note_on_c, 3, 25, 0
5, 175106, Note_on_c, 3, 36, 70
5, 175113, Note_on_c, 3, 34, 0
5, 175256, Note_on_c, 3, 36, 0
5, 177267, Control_c, 3, 11, 40
5, 177809, Control_c, 3, 11, 50
5, 177816, Note_on_c, 3, 36, 70
5, 177863, Control_c, 3, 11, 51
5, 177917, Control_c, 3, 11, 52
5, 177971, Control_c, 3, 11, 53
5, 178025, Control_c, 3, 11, 54
5, 178080, Control_c, 3, 11, 55
5, 178134, Control_c, 3, 11, 56
5, 178188, Control_c, 3, 11, 57
5, 178242, Control_c, 3, 11, 58
5, 178296, Note_on_c, 3, 36, 0
5, 178296, Control_c, 3, 11, 59
5, 178351, Control_c, 3, 11, 60
5, 178381, Control_c, 3, 11, 60
5, 178381, Note_on_c, 3, 41, 60
5, 178431, Note_on_c, 3, 41, 0
5, 178561, Note_on_c, 3, 35, 60
5, 178611, Note_on_c, 3, 35, 0
5, 178621, Note_on_c, 3, 36, 60
5, 178671, Note_on_c, 3, 36, 0
5, 178681, Note_on_c, 3, 37, 60
5, 178801, Note_on_c, 3, 37, 0
5, 178801, Note_on_c, 3, 36, 60
5, 178851, Note_on_c, 3, 36, 0
5, 178861, Note_on_c, 3, 41, 60
5, 178911, Note_on_c, 3, 41, 0
5, 178921, Note_on_c, 3, 44, 60
5, 178971, Note_on_c, 3, 44, 0
5, 178981, Note_on_c, 3, 36, 60
5, 179031, Note_on_c, 3, 36, 0
5, 179041, Note_on_c, 3, 44, 60
5, 179091, Note_on_c, 3, 44, 0
5, 179101, Note_on_c, 3, 41, 60
5, 179191, Note_on_c, 3, 41, 0
5, 179221, Note_on_c, 3, 39, 60
5, 179311, Note_on_c, 3, 39, 0
5, 179341, Note_on_c, 3, 37, 60
5, 179391, Note_on_c, 3, 37, 0
5, 179401, Note_on_c, 3, 49, 60
5, 179521, Note_on_c, 3, 49, 0
5, 179521, Note_on_c, 3, 43, 60
5, 179571, Note_on_c, 3, 43, 0
5, 179581, Note_on_c, 3, 44, 60
5, 179631, Note_on_c, 3, 44, 0
5, 179641, Note_on_c, 3, 46, 60
5, 179761, Note_on_c, 3, 46, 0
5, 179761, Note_on_c, 3, 44, 60
5, 179811, Note_on_c, 3, 44, 0
5, 179821, Note_on_c, 3, 37, 60
5, 179871, Note_on_c, 3, 37, 0
5, 179881, Note_on_c, 3, 41, 60
5, 179931, Note_on_c, 3, 41, 0
5, 179941, Note_on_c, 3, 32, 60
5, 179991, Note_on_c, 3, 32, 0
5, 180001, Note_on_c, 3, 41, 60
5, 180051, Note_on_c, 3, 41, 0
5, 180061, Note_on_c, 3, 37, 60
5, 180151, Note_on_c, 3, 37, 0
5, 180181, Note_on_c, 3, 36, 60
5, 180271, Note_on_c, 3, 36, 0
5, 180301, Note_on_c, 3, 35, 60
5, 180391, Note_on_c, 3, 35, 0
5, 180901, Control_c, 3, 11, 70
5, 180901, Note_on_c, 3, 46, 80
5, 180951, Note_on_c, 3, 46, 0
5, 181021, Note_on_c, 3, 44, 80
5, 181071, Note_on_c, 3, 44, 0
5, 181141, Control_c, 3, 11, 50
5, 181621, Note_on_c, 3, 48, 60
5, 181741, Note_on_c, 3, 49, 60
5, 181751, Note_on_c, 3, 48, 0
5, 181861, Note_on_c, 3, 46, 60
5, 181871, Note_on_c, 3, 49, 0
5, 181981, Note_on_c, 3, 48, 60
5, 181991, Note_on_c, 3, 46, 0
5, 182101, Note_on_c, 3, 36, 60
5, 182111, Note_on_c, 3, 48, 0
5, 182221, Note_on_c, 3, 41, 60
5, 182231, Note_on_c, 3, 36, 0
5, 182351, Note_on_c, 3, 41, 0
5, 182551, Control_c, 3, 11, 70
5, 182551, Note_on_c, 3, 36, 70
5, 182641, Note_on_c, 3, 36, 0
5, 182671, Note_on_c, 3, 29, 70
5, 182761, Note_on_c, 3, 29, 0
5, 183031, Note_on_c, 3, 36, 70
5, 183121, Note_on_c, 3, 36, 0
5, 183151, Note_on_c, 3, 29, 70
5, 183241, Note_on_c, 3, 29, 0
5, 183391, Note_on_c, 3, 48, 70
5, 183391, Note_on_c, 3, 41, 70
5, 183481, Note_on_c, 3, 41, 0
5, 183481, Note_on_c, 3, 48, 0
5, 183631, Note_on_c, 3, 41, 70
5, 184111, Note_on_c, 3, 41, 0
5, 184664, Control_c, 3, 121, 0
5, 184664, End_track
6, 0, Start_track
6, 0, MIDI_port, 0
6, 0, Title_t, "Flute"
6, 0, Program_c, 4, 73
6, 0, Control_c, 4, 7, 127
6, 0, Control_c, 4, 10, 70
6, 50, Control_c, 4, 121, 0
6, 100, Control_c, 4, 91, 100
6, 110, Control_c, 4, 11, 90
6, 2108, Note_on_c, 4, 77, 80
6, 2178, Note_on_c, 4, 77, 0
6, 2217, Note_on_c, 4, 76, 80
6, 2267, Note_on_c, 4, 76, 0
6, 2555, Note_on_c, 4, 82, 70
6, 2625, Note_on_c, 4, 82, 0
6, 2658, Note_on_c, 4, 82, 70
6, 2708, Note_on_c, 4, 82, 0
6, 2969, Note_on_c, 4, 85, 95
6, 3186, Note_on_c, 4, 84, 90
6, 3192, Note_on_c, 4, 85, 0
6, 3246, Note_on_c, 4, 84, 0
6, 3262, Note_on_c, 4, 82, 90
6, 3289, Note_on_c, 4, 82, 0
6, 3290, Note_on_c, 4, 80, 90
6, 3350, Note_on_c, 4, 80, 0
6, 3361, Note_on_c, 4, 79, 88
6, 3388, Note_on_c, 4, 79, 0
6, 3388, Note_on_c, 4, 77, 85
6, 3488, Note_on_c, 4, 77, 0
6, 6368, Note_on_c, 4, 92, 60
6, 6476, Note_on_c, 4, 86, 60
6, 6480, Note_on_c, 4, 92, 0
6, 6530, Note_on_c, 4, 89, 60
6, 6532, Note_on_c, 4, 86, 0
6, 6581, Note_on_c, 4, 91, 60
6, 6586, Note_on_c, 4, 89, 0
6, 6690, Note_on_c, 4, 89, 60
6, 6693, Note_on_c, 4, 91, 0
6, 6746, Note_on_c, 4, 87, 60
6, 6749, Note_on_c, 4, 89, 0
6, 6800, Note_on_c, 4, 89, 60
6, 6804, Note_on_c, 4, 87, 0
6, 6912, Note_on_c, 4, 87, 60
6, 6918, Note_on_c, 4, 89, 0
6, 6965, Note_on_c, 4, 85, 60
6, 6970, Note_on_c, 4, 87, 0
6, 7016, Note_on_c, 4, 87, 60
6, 7021, Note_on_c, 4, 85, 0
6, 7128, Note_on_c, 4, 85, 60
6, 7136, Note_on_c, 4, 87, 0
6, 7185, Note_on_c, 4, 84, 60
6, 7190, Note_on_c, 4, 85, 0
6, 7275, Note_on_c, 4, 84, 0
6, 7290, Note_on_c, 4, 83, 60
6, 7318, Note_on_c, 4, 84, 60
6, 7325, Note_on_c, 4, 83, 0
6, 7341, Note_on_c, 4, 85, 60
6, 7362, Note_on_c, 4, 84, 0
6, 7365, Note_on_c, 4, 84, 60
6, 7376, Note_on_c, 4, 85, 0
6, 7398, Note_on_c, 4, 89, 60
6, 7398, Note_on_c, 4, 77, 60
6, 7405, Note_on_c, 4, 84, 0
6, 7508, Note_on_c, 4, 77, 0
6, 7508, Note_on_c, 4, 89, 0
6, 7508, Note_on_c, 4, 82, 60
6, 7508, Note_on_c, 4, 76, 60
6, 7620, Note_on_c, 4, 76, 0
6, 7620, Note_on_c, 4, 82, 0
6, 7620, Note_on_c, 4, 87, 60
6, 7620, Note_on_c, 4, 75, 60
6, 7732, Note_on_c, 4, 79, 60
6, 7733, Note_on_c, 4, 75, 0
6, 7755, Note_on_c, 4, 80, 60
6, 7762, Note_on_c, 4, 79, 0
6, 7782, Note_on_c, 4, 82, 60
6, 7785, Note_on_c, 4, 80, 0
6, 7806, Note_on_c, 4, 80, 60
6, 7812, Note_on_c, 4, 82, 0
6, 7838, Note_on_c, 4, 85, 60
6, 7838, Note_on_c, 4, 73, 60
6, 7841, Note_on_c, 4, 80, 0
6, 7929, Note_on_c, 4, 73, 0
6, 7929, Note_on_c, 4, 85, 0
6, 7952, Note_on_c, 4, 85, 60
6, 7965, Note_on_c, 4, 87, 0
6, 8037, Note_on_c, 4, 85, 0
6, 8057, Note_on_c, 4, 85, 60
6, 8082, Note_on_c, 4, 85, 0
6, 8118, Note_on_c, 4, 85, 80
6, 8118, Note_on_c, 4, 82, 80
6, 8223, Note_on_c, 4, 84, 60
6, 8223, Note_on_c, 4, 80, 60
6, 8228, Note_on_c, 4, 82, 0
6, 8228, Note_on_c, 4, 85, 0
6, 8278, Note_on_c, 4, 82, 60
6, 8278, Note_on_c, 4, 76, 60
6, 8283, Note_on_c, 4, 84, 0
6, 8283, Note_on_c, 4, 80, 0
6, 8329, Note_on_c, 4, 80, 60
6, 8329, Note_on_c, 4, 77, 60
6, 8337, Note_on_c, 4, 82, 0
6, 8337, Note_on_c, 4, 76, 0
6, 8384, Note_on_c, 4, 76, 60
6, 8384, Note_on_c, 4, 73, 60
6, 8389, Note_on_c, 4, 80, 0
6, 8389, Note_on_c, 4, 77, 0
6, 8434, Note_on_c, 4, 77, 60
6, 8434, Note_on_c, 4, 74, 60
6, 8441, Note_on_c, 4, 76, 0
6, 8441, Note_on_c, 4, 73, 0
6, 8484, Note_on_c, 4, 76, 60
6, 8484, Note_on_c, 4, 72, 60
6, 8491, Note_on_c, 4, 77, 0
6, 8491, Note_on_c, 4, 74, 0
6, 8529, Note_on_c, 4, 76, 0
6, 8529, Note_on_c, 4, 72, 0
6, 8544, Note_on_c, 4, 76, 80
6, 8544, Note_on_c, 4, 70, 80
6, 8636, Note_on_c, 4, 70, 0
6, 8636, Note_on_c, 4, 76, 0
6, 8650, Note_on_c, 4, 76, 60
6, 8650, Note_on_c, 4, 72, 60
6, 8695, Note_on_c, 4, 72, 0
6, 8695, Note_on_c, 4, 76, 0
6, 8708, Note_on_c, 4, 76, 60
6, 8708, Note_on_c, 4, 73, 60
6, 8759, Note_on_c, 4, 77, 60
6, 8759, Note_on_c, 4, 72, 60
6, 8766, Note_on_c, 4, 73, 0
6, 8766, Note_on_c, 4, 76, 0
6, 8805, Note_on_c, 4, 77, 0
6, 8805, Note_on_c, 4, 72, 0
6, 8813, Note_on_c, 4, 82, 60
6, 8813, Note_on_c, 4, 76, 60
6, 8858, Note_on_c, 4, 76, 0
6, 8858, Note_on_c, 4, 82, 0
6, 8863, Note_on_c, 4, 82, 60
6, 8863, Note_on_c, 4, 77, 60
6, 8908, Note_on_c, 4, 77, 0
6, 8908, Note_on_c, 4, 82, 0
6, 8918, Note_on_c, 4, 82, 60
6, 8918, Note_on_c, 4, 79, 60
6, 8963, Note_on_c, 4, 79, 0
6, 8963, Note_on_c, 4, 82, 0
6, 8974, Note_on_c, 4, 85, 80
6, 8974, Note_on_c, 4, 82, 80
6, 9084, Note_on_c, 4, 82, 0
6, 9084, Note_on_c, 4, 85, 0
6, 9088, Note_on_c, 4, 84, 60
6, 9088, Note_on_c, 4, 80, 60
6, 9145, Note_on_c, 4, 82, 60
6, 9145, Note_on_c, 4, 76, 60
6, 9151, Note_on_c, 4, 80, 0
6, 9151, Note_on_c, 4, 84, 0
6, 9193, Note_on_c, 4, 80, 60
6, 9193, Note_on_c, 4, 77, 60
6, 9200, Note_on_c, 4, 82, 0
6, 9200, Note_on_c, 4, 76, 0
6, 9244, Note_on_c, 4, 76, 60
6, 9244, Note_on_c, 4, 72, 60
6, 9251, Note_on_c, 4, 80, 0
6, 9251, Note_on_c, 4, 77, 0
6, 9286, Note_on_c, 4, 72, 0
6, 9292, Note_on_c, 4, 77, 60
6, 9292, Note_on_c, 4, 72, 60
6, 9300, Note_on_c, 4, 76, 0
6, 9337, Note_on_c, 4, 72, 0
6, 9348, Note_on_c, 4, 78, 60
6, 9348, Note_on_c, 4, 72, 60
6, 9354, Note_on_c, 4, 77, 0
6, 9393, Note_on_c, 4, 72, 0
6, 9393, Note_on_c, 4, 78, 0
6, 9404, Note_on_c, 4, 90, 80
6, 9404, Note_on_c, 4, 75, 80
6, 9516, Note_on_c, 4, 89, 60
6, 9516, Note_on_c, 4, 85, 60
6, 9519, Note_on_c, 4, 75, 0
6, 9519, Note_on_c, 4, 90, 0
6, 9567, Note_on_c, 4, 87, 60
6, 9567, Note_on_c, 4, 84, 60
6, 9572, Note_on_c, 4, 89, 0
6, 9572, Note_on_c, 4, 85, 0
6, 9615, Note_on_c, 4, 85, 60
6, 9615, Note_on_c, 4, 82, 60
6, 9621, Note_on_c, 4, 87, 0
6, 9621, Note_on_c, 4, 84, 0
6, 9665, Note_on_c, 4, 81, 60
6, 9665, Note_on_c, 4, 77, 60
6, 9672, Note_on_c, 4, 85, 0
6, 9672, Note_on_c, 4, 82, 0
6, 9707, Note_on_c, 4, 77, 0
6, 9715, Note_on_c, 4, 82, 60
6, 9715, Note_on_c, 4, 77, 60
6, 9720, Note_on_c, 4, 81, 0
6, 9760, Note_on_c, 4, 77, 0
6, 9760, Note_on_c, 4, 82, 0
6, 9770, Note_on_c, 4, 85, 60
6, 9770, Note_on_c, 4, 78, 60
6, 9815, Note_on_c, 4, 78, 0
6, 9815, Note_on_c, 4, 85, 0
6, 9829, Note_on_c, 4, 78, 80
6, 9940, Note_on_c, 4, 77, 60
6, 9943, Note_on_c, 4, 78, 0
6, 9997, Note_on_c, 4, 76, 60
6, 10002, Note_on_c, 4, 77, 0
6, 10107, Note_on_c, 4, 77, 60
6, 10112, Note_on_c, 4, 76, 0
6, 10212, Note_on_c, 4, 83, 60
6, 10217, Note_on_c, 4, 77, 0
6, 10252, Note_on_c, 4, 83, 0
6, 10268, Note_on_c, 4, 77, 80
6, 10373, Note_on_c, 4, 75, 60
6, 10378, Note_on_c, 4, 77, 0
6, 10429, Note_on_c, 4, 74, 60
6, 10435, Note_on_c, 4, 75, 0
6, 10533, Note_on_c, 4, 75, 60
6, 10539, Note_on_c, 4, 74, 0
6, 10642, Note_on_c, 4, 82, 60
6, 10647, Note_on_c, 4, 75, 0
6, 10687, Note_on_c, 4, 82, 0
6, 10700, Note_on_c, 4, 75, 80
6, 10805, Note_on_c, 4, 73, 60
6, 10810, Note_on_c, 4, 75, 0
6, 10859, Note_on_c, 4, 72, 60
6, 10865, Note_on_c, 4, 73, 0
6, 10968, Note_on_c, 4, 78, 60
6, 10969, Note_on_c, 4, 72, 0
6, 11076, Note_on_c, 4, 77, 60
6, 11080, Note_on_c, 4, 78, 0
6, 11166, Note_on_c, 4, 77, 0
6, 11186, Note_on_c, 4, 77, 80
6, 11384, Note_on_c, 4, 83, 70
6, 11391, Note_on_c, 4, 77, 0
6, 11499, Note_on_c, 4, 84, 75
6, 11504, Note_on_c, 4, 83, 0
6, 11609, Note_on_c, 4, 84, 0
6, 12847, Note_on_c, 4, 84, 60
6, 12947, Note_on_c, 4, 84, 0
6, 12970, Note_on_c, 4, 89, 80
6, 12970, Note_on_c, 4, 84, 80
6, 13090, Note_on_c, 4, 84, 0
6, 13095, Note_on_c, 4, 89, 0
6, 15360, Control_c, 4, 11, 80
6, 15408, Note_on_c, 4, 89, 80
6, 15488, Note_on_c, 4, 89, 0
6, 15518, Note_on_c, 4, 88, 80
6, 15638, Note_on_c, 4, 88, 0
6, 17763, Note_on_c, 4, 77, 60
6, 17852, Note_on_c, 4, 77, 0
6, 17871, Note_on_c, 4, 77, 65
6, 17924, Note_on_c, 4, 77, 0
6, 17956, Note_on_c, 4, 77, 70
6, 17973, Note_on_c, 4, 77, 0
6, 17978, Note_on_c, 4, 77, 75
6, 18083, Note_on_c, 4, 85, 85
6, 18095, Note_on_c, 4, 77, 0
6, 18140, Note_on_c, 4, 85, 0
6, 18164, Note_on_c, 4, 85, 60
6, 18187, Note_on_c, 4, 85, 0
6, 18187, Note_on_c, 4, 84, 85
6, 18271, Note_on_c, 4, 82, 80
6, 18273, Note_on_c, 4, 84, 0
6, 18300, Note_on_c, 4, 82, 0
6, 18300, Note_on_c, 4, 84, 80
6, 18379, Note_on_c, 4, 85, 80
6, 18386, Note_on_c, 4, 84, 0
6, 18410, Note_on_c, 4, 82, 70
6, 18416, Note_on_c, 4, 85, 0
6, 18570, Note_on_c, 4, 82, 0
6, 18636, Note_on_c, 4, 75, 60
6, 18710, Note_on_c, 4, 75, 0
6, 18741, Note_on_c, 4, 75, 65
6, 18811, Note_on_c, 4, 75, 0
6, 18824, Note_on_c, 4, 75, 70
6, 18850, Note_on_c, 4, 80, 85
6, 18853, Note_on_c, 4, 75, 0
6, 19007, Note_on_c, 4, 80, 0
6, 19013, Note_on_c, 4, 79, 80
6, 19051, Note_on_c, 4, 79, 0
6, 19055, Note_on_c, 4, 79, 70
6, 19072, Note_on_c, 4, 77, 85
6, 19075, Note_on_c, 4, 79, 0
6, 19148, Note_on_c, 4, 75, 80
6, 19154, Note_on_c, 4, 77, 0
6, 19171, Note_on_c, 4, 77, 85
6, 19174, Note_on_c, 4, 75, 0
6, 19256, Note_on_c, 4, 79, 85
6, 19261, Note_on_c, 4, 77, 0
6, 19282, Note_on_c, 4, 75, 65
6, 19286, Note_on_c, 4, 79, 0
6, 19512, Note_on_c, 4, 75, 0
6, 19512, Note_on_c, 4, 73, 60
6, 19753, Note_on_c, 4, 72, 50
6, 19762, Note_on_c, 4, 73, 0
6, 19867, Note_on_c, 4, 68, 40
6, 19871, Note_on_c, 4, 72, 0
6, 19978, Note_on_c, 4, 67, 30
6, 19982, Note_on_c, 4, 68, 0
6, 20218, Note_on_c, 4, 68, 25
6, 20228, Note_on_c, 4, 67, 0
6, 20328, Note_on_c, 4, 68, 0
6, 21574, Note_on_c, 4, 77, 59
6, 21691, Note_on_c, 4, 85, 70
6, 21694, Note_on_c, 4, 77, 0
6, 21911, Note_on_c, 4, 84, 70
6, 21919, Note_on_c, 4, 85, 0
6, 22131, Note_on_c, 4, 82, 70
6, 22139, Note_on_c, 4, 84, 0
6, 22231, Note_on_c, 4, 82, 0
6, 22245, Note_on_c, 4, 82, 70
6, 22352, Note_on_c, 4, 77, 70
6, 22355, Note_on_c, 4, 82, 0
6, 22511, Note_on_c, 4, 75, 55
6, 22522, Note_on_c, 4, 77, 0
6, 22568, Note_on_c, 4, 73, 53
6, 22571, Note_on_c, 4, 75, 0
6, 22623, Note_on_c, 4, 72, 50
6, 22628, Note_on_c, 4, 73, 0
6, 22681, Note_on_c, 4, 70, 50
6, 22683, Note_on_c, 4, 72, 0
6, 22741, Note_on_c, 4, 70, 0
6, 24480, Control_c, 4, 11, 70
6, 24546, Note_on_c, 4, 79, 75
6, 24546, Note_on_c, 4, 73, 55
6, 24606, Note_on_c, 4, 73, 0
6, 24606, Note_on_c, 4, 79, 0
6, 24622, Note_on_c, 4, 79, 75
6, 24622, Note_on_c, 4, 73, 55
6, 24649, Note_on_c, 4, 80, 80
6, 24649, Note_on_c, 4, 72, 55
6, 24652, Note_on_c, 4, 73, 0
6, 24652, Note_on_c, 4, 79, 0
6, 24764, Note_on_c, 4, 77, 75
6, 24764, Note_on_c, 4, 73, 55
6, 24769, Note_on_c, 4, 80, 0
6, 24769, Note_on_c, 4, 72, 0
6, 24871, Note_on_c, 4, 75, 70
6, 24871, Note_on_c, 4, 70, 55
6, 24876, Note_on_c, 4, 77, 0
6, 24876, Note_on_c, 4, 73, 0
6, 24961, Note_on_c, 4, 75, 0
6, 24983, Note_on_c, 4, 73, 60
6, 25040, Note_on_c, 4, 73, 0
6, 25042, Note_on_c, 4, 75, 60
6, 25065, Note_on_c, 4, 75, 0
6, 25066, Note_on_c, 4, 73, 60
6, 25091, Note_on_c, 4, 70, 0
6, 25094, Note_on_c, 4, 73, 0
6, 25095, Note_on_c, 4, 72, 60
6, 25095, Note_on_c, 4, 68, 45
6, 25200, Note_on_c, 4, 68, 0
6, 25200, Note_on_c, 4, 72, 0
6, 27085, Note_on_c, 4, 72, 65
6, 27188, Note_on_c, 4, 76, 65
6, 27265, Note_on_c, 4, 72, 0
6, 27288, Note_on_c, 4, 76, 0
6, 27295, Control_c, 4, 11, 80
6, 27295, Note_on_c, 4, 77, 75
6, 27295, Note_on_c, 4, 72, 40
6, 27395, Note_on_c, 4, 72, 0
6, 27395, Note_on_c, 4, 77, 0
6, 27411, Note_on_c, 4, 77, 75
6, 27511, Note_on_c, 4, 77, 0
6, 27521, Note_on_c, 4, 82, 75
6, 27621, Note_on_c, 4, 82, 0
6, 27633, Note_on_c, 4, 76, 75
6, 27733, Note_on_c, 4, 76, 0
6, 27743, Note_on_c, 4, 80, 75
6, 27843, Note_on_c, 4, 80, 0
6, 28320, Control_c, 4, 11, 60
6, 28405, Note_on_c, 4, 89, 60
6, 28510, Note_on_c, 4, 87, 57
6, 28517, Note_on_c, 4, 89, 0
6, 28564, Note_on_c, 4, 85, 54
6, 28575, Note_on_c, 4, 87, 0
6, 28614, Note_on_c, 4, 84, 51
6, 28624, Note_on_c, 4, 85, 0
6, 28668, Note_on_c, 4, 82, 48
6, 28674, Note_on_c, 4, 84, 0
6, 28726, Note_on_c, 4, 85, 46
6, 28733, Note_on_c, 4, 82, 0
6, 28778, Note_on_c, 4, 82, 44
6, 28791, Note_on_c, 4, 85, 0
6, 28840, Note_on_c, 4, 77, 40
6, 28848, Note_on_c, 4, 82, 0
6, 28980, Note_on_c, 4, 77, 0
6, 29295, Note_on_c, 4, 89, 60
6, 29406, Note_on_c, 4, 87, 57
6, 29415, Note_on_c, 4, 89, 0
6, 29457, Note_on_c, 4, 85, 54
6, 29471, Note_on_c, 4, 87, 0
6, 29511, Note_on_c, 4, 84, 51
6, 29522, Note_on_c, 4, 85, 0
6, 29562, Note_on_c, 4, 82, 48
6, 29576, Note_on_c, 4, 84, 0
6, 29620, Note_on_c, 4, 85, 46
6, 29627, Note_on_c, 4, 82, 0
6, 29674, Note_on_c, 4, 82, 44
6, 29685, Note_on_c, 4, 85, 0
6, 29739, Note_on_c, 4, 79, 40
6, 29744, Note_on_c, 4, 82, 0
6, 29879, Note_on_c, 4, 79, 0
6, 94206, Control_c, 4, 11, 60
6, 94206, Note_on_c, 4, 83, 60
6, 94206, Note_on_c, 4, 77, 60
6, 94234, Control_c, 4, 11, 61
6, 94263, Control_c, 4, 11, 62
6, 94292, Control_c, 4, 11, 63
6, 94320, Control_c, 4, 11, 64
6, 94349, Control_c, 4, 11, 65
6, 94378, Control_c, 4, 11, 66
6, 94406, Control_c, 4, 11, 67
6, 94435, Control_c, 4, 11, 68
6, 94464, Control_c, 4, 11, 69
6, 94493, Control_c, 4, 11, 70
6, 94521, Control_c, 4, 11, 71
6, 94550, Control_c, 4, 11, 72
6, 94579, Control_c, 4, 11, 73
6, 94607, Control_c, 4, 11, 74
6, 94636, Control_c, 4, 11, 75
6, 94665, Control_c, 4, 11, 76
6, 94693, Control_c, 4, 11, 77
6, 94722, Control_c, 4, 11, 78
6, 94751, Control_c, 4, 11, 79
6, 94780, Control_c, 4, 11, 80
6, 94780, Note_on_c, 4, 84, 80
6, 94780, Note_on_c, 4, 75, 60
6, 94786, Note_on_c, 4, 77, 0
6, 94786, Note_on_c, 4, 83, 0
6, 94820, Note_on_c, 4, 87, 80
6, 94825, Note_on_c, 4, 84, 0
6, 94825, Note_on_c, 4, 75, 0
6, 94900, Note_on_c, 4, 86, 77
6, 94910, Note_on_c, 4, 87, 0
6, 94940, Note_on_c, 4, 84, 74
6, 94945, Note_on_c, 4, 86, 0
6, 94980, Note_on_c, 4, 82, 71
6, 94985, Note_on_c, 4, 84, 0
6, 95020, Note_on_c, 4, 80, 68
6, 95025, Note_on_c, 4, 82, 0
6, 95060, Note_on_c, 4, 79, 65
6, 95065, Note_on_c, 4, 80, 0
6, 95100, Note_on_c, 4, 78, 62
6, 95105, Note_on_c, 4, 79, 0
6, 95170, Note_on_c, 4, 78, 0
6, 95180, Note_on_c, 4, 78, 65
6, 95230, Note_on_c, 4, 78, 0
6, 95240, Note_on_c, 4, 78, 68
6, 95256, Note_on_c, 4, 78, 0
6, 95260, Note_on_c, 4, 78, 71
6, 95340, Note_on_c, 4, 79, 75
6, 95350, Note_on_c, 4, 78, 0
6, 95410, Note_on_c, 4, 79, 0
6, 95420, Note_on_c, 4, 86, 80
6, 95540, Note_on_c, 4, 84, 80
6, 95550, Note_on_c, 4, 86, 0
6, 95580, Note_on_c, 4, 82, 77
6, 95585, Note_on_c, 4, 84, 0
6, 95620, Note_on_c, 4, 81, 74
6, 95625, Note_on_c, 4, 82, 0
6, 95660, Note_on_c, 4, 79, 71
6, 95665, Note_on_c, 4, 81, 0
6, 95700, Note_on_c, 4, 77, 68
6, 95705, Note_on_c, 4, 79, 0
6, 95740, Note_on_c, 4, 76, 65
6, 95745, Note_on_c, 4, 77, 0
6, 95810, Note_on_c, 4, 76, 0
6, 95820, Note_on_c, 4, 76, 62
6, 95870, Note_on_c, 4, 76, 0
6, 95880, Note_on_c, 4, 76, 60
6, 95896, Note_on_c, 4, 76, 0
6, 95900, Note_on_c, 4, 76, 60
6, 95980, Note_on_c, 4, 77, 60
6, 95990, Note_on_c, 4, 76, 0
6, 96050, Note_on_c, 4, 77, 0
6, 96060, Note_on_c, 4, 77, 60
6, 96090, Note_on_c, 4, 77, 0
6, 96100, Note_on_c, 4, 77, 60
6, 96220, Note_on_c, 4, 80, 63
6, 96230, Note_on_c, 4, 77, 0
6, 96260, Note_on_c, 4, 84, 66
6, 96265, Note_on_c, 4, 80, 0
6, 96340, Note_on_c, 4, 89, 69
6, 96345, Note_on_c, 4, 84, 0
6, 96370, Note_on_c, 4, 89, 0
6, 96380, Note_on_c, 4, 89, 69
6, 96410, Note_on_c, 4, 89, 0
6, 96420, Note_on_c, 4, 86, 78
6, 96500, Note_on_c, 4, 87, 66
6, 96510, Note_on_c, 4, 86, 0
6, 96540, Note_on_c, 4, 86, 66
6, 96545, Note_on_c, 4, 87, 0
6, 96580, Note_on_c, 4, 83, 66
6, 96585, Note_on_c, 4, 86, 0
6, 96660, Note_on_c, 4, 84, 64
6, 96665, Note_on_c, 4, 83, 0
6, 96700, Note_on_c, 4, 82, 62
6, 96705, Note_on_c, 4, 84, 0
6, 96740, Note_on_c, 4, 79, 62
6, 96745, Note_on_c, 4, 82, 0
6, 96820, Note_on_c, 4, 80, 62
6, 96830, Note_on_c, 4, 79, 0
6, 96860, Note_on_c, 4, 79, 62
6, 96865, Note_on_c, 4, 80, 0
6, 96900, Note_on_c, 4, 76, 62
6, 96905, Note_on_c, 4, 79, 0
6, 96980, Note_on_c, 4, 77, 62
6, 96990, Note_on_c, 4, 76, 0
6, 97020, Note_on_c, 4, 74, 62
6, 97025, Note_on_c, 4, 77, 0
6, 97100, Note_on_c, 4, 75, 62
6, 97110, Note_on_c, 4, 74, 0
6, 97190, Note_on_c, 4, 75, 0
6, 99820, Note_on_c, 4, 86, 70
6, 99855, Note_on_c, 4, 86, 0
6, 99860, Note_on_c, 4, 89, 70
6, 99895, Note_on_c, 4, 89, 0
6, 99900, Note_on_c, 4, 87, 70
6, 99955, Note_on_c, 4, 87, 0
6, 99960, Note_on_c, 4, 87, 70
6, 99976, Note_on_c, 4, 87, 0
6, 99980, Note_on_c, 4, 83, 70
6, 100035, Note_on_c, 4, 83, 0
6, 100040, Note_on_c, 4, 84, 70
6, 100056, Note_on_c, 4, 84, 0
6, 100060, Note_on_c, 4, 79, 70
6, 100115, Note_on_c, 4, 79, 0
6, 100120, Note_on_c, 4, 80, 70
6, 100136, Note_on_c, 4, 80, 0
6, 100140, Note_on_c, 4, 76, 70
6, 100195, Note_on_c, 4, 76, 0
6, 100200, Note_on_c, 4, 77, 70
6, 100216, Note_on_c, 4, 77, 0
6, 100220, Note_on_c, 4, 74, 70
6, 100255, Note_on_c, 4, 74, 0
6, 100260, Note_on_c, 4, 75, 70
6, 100295, Note_on_c, 4, 75, 0
6, 100300, Note_on_c, 4, 71, 70
6, 100335, Note_on_c, 4, 71, 0
6, 100340, Note_on_c, 4, 72, 70
6, 100375, Note_on_c, 4, 72, 0
6, 100380, Note_on_c, 4, 70, 70
6, 100415, Note_on_c, 4, 70, 0
6, 100420, Note_on_c, 4, 68, 70
6, 100455, Note_on_c, 4, 68, 0
6, 100460, Note_on_c, 4, 67, 70
6, 100495, Note_on_c, 4, 67, 0
6, 100500, Note_on_c, 4, 65, 70
6, 100535, Note_on_c, 4, 65, 0
6, 100540, Note_on_c, 4, 67, 70
6, 100940, Note_on_c, 4, 65, 60
6, 100950, Note_on_c, 4, 67, 0
6, 100980, Note_on_c, 4, 63, 56
6, 100985, Note_on_c, 4, 65, 0
6, 101020, Note_on_c, 4, 62, 54
6, 101025, Note_on_c, 4, 63, 0
6, 101185, Note_on_c, 4, 62, 0
6, 101400, Control_c, 4, 11, 75
6, 101400, Note_on_c, 4, 84, 70
6, 101416, Note_on_c, 4, 84, 0
6, 101420, Note_on_c, 4, 76, 70
6, 101480, Note_on_c, 4, 77, 70
6, 101485, Note_on_c, 4, 76, 0
6, 101496, Note_on_c, 4, 77, 0
6, 101500, Note_on_c, 4, 79, 70
6, 101560, Note_on_c, 4, 80, 70
6, 101565, Note_on_c, 4, 79, 0
6, 101576, Note_on_c, 4, 80, 0
6, 101580, Note_on_c, 4, 74, 70
6, 101640, Note_on_c, 4, 75, 70
6, 101645, Note_on_c, 4, 74, 0
6, 101656, Note_on_c, 4, 75, 0
6, 101660, Note_on_c, 4, 77, 70
6, 101740, Note_on_c, 4, 75, 70
6, 101745, Note_on_c, 4, 77, 0
6, 101780, Note_on_c, 4, 74, 70
6, 101785, Note_on_c, 4, 75, 0
6, 101820, Note_on_c, 4, 72, 70
6, 101825, Note_on_c, 4, 74, 0
6, 101900, Note_on_c, 4, 72, 0
6, 107089, Control_c, 4, 11, 60
6, 107089, Note_on_c, 4, 88, 70
6, 107112, Note_on_c, 4, 88, 0
6, 107117, Note_on_c, 4, 80, 70
6, 107206, Note_on_c, 4, 81, 70
6, 107210, Note_on_c, 4, 80, 0
6, 107242, Note_on_c, 4, 83, 70
6, 107246, Note_on_c, 4, 81, 0
6, 107650, Note_on_c, 4, 80, 70
6, 107657, Note_on_c, 4, 83, 0
6, 107712, Note_on_c, 4, 81, 70
6, 107715, Note_on_c, 4, 80, 0
6, 107783, Note_on_c, 4, 83, 70
6, 107787, Note_on_c, 4, 81, 0
6, 108143, Note_on_c, 4, 83, 0
6, 108144, Note_on_c, 4, 88, 70
6, 108174, Note_on_c, 4, 88, 0
6, 108180, Note_on_c, 4, 80, 70
6, 108277, Note_on_c, 4, 81, 70
6, 108280, Note_on_c, 4, 80, 0
6, 108313, Note_on_c, 4, 81, 0
6, 108318, Note_on_c, 4, 83, 70
6, 108598, Note_on_c, 4, 83, 0
6, 115711, Note_on_c, 4, 90, 85
6, 115848, Note_on_c, 4, 87, 80
6, 115851, Note_on_c, 4, 90, 0
6, 115919, Note_on_c, 4, 84, 75
6, 115928, Note_on_c, 4, 87, 0
6, 115985, Note_on_c, 4, 81, 75
6, 115989, Note_on_c, 4, 84, 0
6, 116055, Note_on_c, 4, 75, 85
6, 116060, Note_on_c, 4, 81, 0
6, 116154, Note_on_c, 4, 77, 80
6, 116160, Note_on_c, 4, 75, 0
6, 116190, Note_on_c, 4, 78, 75
6, 116194, Note_on_c, 4, 77, 0
6, 116310, Note_on_c, 4, 78, 0
6, 117886, Note_on_c, 4, 85, 85
6, 118019, Note_on_c, 4, 82, 80
6, 118026, Note_on_c, 4, 85, 0
6, 118088, Note_on_c, 4, 79, 80
6, 118094, Note_on_c, 4, 82, 0
6, 118152, Note_on_c, 4, 76, 80
6, 118158, Note_on_c, 4, 79, 0
6, 118221, Note_on_c, 4, 70, 85
6, 118227, Note_on_c, 4, 76, 0
6, 118320, Note_on_c, 4, 72, 75
6, 118326, Note_on_c, 4, 70, 0
6, 118356, Note_on_c, 4, 73, 70
6, 118360, Note_on_c, 4, 72, 0
6, 118476, Note_on_c, 4, 73, 0
6, 120642, Note_on_c, 4, 82, 70
6, 120674, Note_on_c, 4, 75, 70
6, 120679, Note_on_c, 4, 82, 0
6, 120778, Note_on_c, 4, 77, 70
6, 120784, Note_on_c, 4, 75, 0
6, 120813, Note_on_c, 4, 70, 70
6, 120818, Note_on_c, 4, 77, 0
6, 120933, Note_on_c, 4, 70, 0
6, 121927, Note_on_c, 4, 79, 75
6, 121998, Note_on_c, 4, 78, 75
6, 122002, Note_on_c, 4, 79, 0
6, 122070, Note_on_c, 4, 79, 75
6, 122075, Note_on_c, 4, 78, 0
6, 122177, Note_on_c, 4, 81, 80
6, 122182, Note_on_c, 4, 79, 0
6, 122216, Note_on_c, 4, 82, 85
6, 122220, Note_on_c, 4, 81, 0
6, 122386, Note_on_c, 4, 82, 0
6, 132232, Control_c, 4, 11, 70
6, 132232, Note_on_c, 4, 84, 70
6, 132232, Note_on_c, 4, 72, 70
6, 132254, Note_on_c, 4, 72, 0
6, 132254, Note_on_c, 4, 84, 0
6, 132262, Note_on_c, 4, 84, 80
6, 132262, Note_on_c, 4, 72, 80
6, 132312, Note_on_c, 4, 72, 0
6, 132312, Note_on_c, 4, 84, 0
6, 132472, Note_on_c, 4, 72, 70
6, 132472, Note_on_c, 4, 84, 70
6, 132494, Note_on_c, 4, 84, 0
6, 132494, Note_on_c, 4, 72, 0
6, 132502, Note_on_c, 4, 72, 80
6, 132502, Note_on_c, 4, 84, 80
6, 132552, Note_on_c, 4, 84, 0
6, 132552, Note_on_c, 4, 72, 0
6, 132712, Note_on_c, 4, 84, 70
6, 132712, Note_on_c, 4, 72, 70
6, 132734, Note_on_c, 4, 72, 0
6, 132734, Note_on_c, 4, 84, 0
6, 132742, Note_on_c, 4, 84, 80
6, 132742, Note_on_c, 4, 72, 60
6, 132792, Note_on_c, 4, 84, 0
6, 132802, Note_on_c, 4, 79, 70
6, 132862, Note_on_c, 4, 77, 70
6, 132865, Note_on_c, 4, 79, 0
6, 132922, Note_on_c, 4, 80, 70
6, 132925, Note_on_c, 4, 77, 0
6, 132982, Note_on_c, 4, 72, 0
6, 132982, Note_on_c, 4, 79, 70
6, 132982, Note_on_c, 4, 71, 60
6, 132985, Note_on_c, 4, 80, 0
6, 133042, Note_on_c, 4, 77, 70
6, 133045, Note_on_c, 4, 79, 0
6, 133102, Note_on_c, 4, 71, 0
6, 133102, Note_on_c, 4, 76, 70
6, 133105, Note_on_c, 4, 77, 0
6, 133165, Note_on_c, 4, 76, 0
6, 133192, Note_on_c, 4, 84, 70
6, 133192, Note_on_c, 4, 72, 70
6, 133214, Note_on_c, 4, 72, 0
6, 133214, Note_on_c, 4, 84, 0
6, 133222, Note_on_c, 4, 84, 80
6, 133222, Note_on_c, 4, 84, 70
6, 133272, Note_on_c, 4, 84, 0
6, 133272, Note_on_c, 4, 84, 0
6, 133432, Note_on_c, 4, 84, 70
6, 133432, Note_on_c, 4, 72, 70
6, 133454, Note_on_c, 4, 72, 0
6, 133454, Note_on_c, 4, 84, 0
6, 133462, Note_on_c, 4, 84, 80
6, 133462, Note_on_c, 4, 72, 80
6, 133512, Note_on_c, 4, 72, 0
6, 133512, Note_on_c, 4, 84, 0
6, 133672, Note_on_c, 4, 84, 70
6, 133672, Note_on_c, 4, 72, 70
6, 133694, Note_on_c, 4, 72, 0
6, 133694, Note_on_c, 4, 84, 0
6, 133702, Note_on_c, 4, 84, 80
6, 133702, Note_on_c, 4, 72, 80
6, 133752, Note_on_c, 4, 72, 0
6, 133752, Note_on_c, 4, 84, 0
6, 133822, Note_on_c, 4, 89, 70
6, 133822, Note_on_c, 4, 77, 70
6, 133972, Note_on_c, 4, 77, 0
6, 133972, Note_on_c, 4, 89, 0
6, 134002, Note_on_c, 4, 89, 70
6, 134002, Note_on_c, 4, 77, 70
6, 134052, Note_on_c, 4, 77, 0
6, 134052, Note_on_c, 4, 89, 0
6, 134062, Note_on_c, 4, 88, 70
6, 134062, Note_on_c, 4, 76, 70
6, 134112, Note_on_c, 4, 76, 0
6, 134112, Note_on_c, 4, 88, 0
6, 134152, Note_on_c, 4, 84, 70
6, 134152, Note_on_c, 4, 72, 70
6, 134174, Note_on_c, 4, 72, 0
6, 134174, Note_on_c, 4, 84, 0
6, 134182, Note_on_c, 4, 84, 70
6, 134182, Note_on_c, 4, 72, 70
6, 134362, Note_on_c, 4, 72, 0
6, 134362, Note_on_c, 4, 84, 0
6, 134392, Note_on_c, 4, 84, 70
6, 134392, Note_on_c, 4, 72, 70
6, 134414, Note_on_c, 4, 72, 0
6, 134414, Note_on_c, 4, 84, 0
6, 134422, Note_on_c, 4, 84, 70
6, 134422, Note_on_c, 4, 72, 70
6, 134472, Note_on_c, 4, 72, 0
6, 134472, Note_on_c, 4, 84, 0
6, 134632, Note_on_c, 4, 85, 70
6, 134632, Note_on_c, 4, 73, 70
6, 134654, Note_on_c, 4, 73, 0
6, 134654, Note_on_c, 4, 85, 0
6, 134662, Note_on_c, 4, 85, 70
6, 134662, Note_on_c, 4, 73, 70
6, 134712, Note_on_c, 4, 73, 0
6, 134712, Note_on_c, 4, 85, 0
6, 134872, Note_on_c, 4, 85, 70
6, 134872, Note_on_c, 4, 73, 70
6, 134894, Note_on_c, 4, 73, 0
6, 134894, Note_on_c, 4, 85, 0
6, 134902, Note_on_c, 4, 85, 70
6, 134902, Note_on_c, 4, 73, 70
6, 134952, Note_on_c, 4, 73, 0
6, 134952, Note_on_c, 4, 85, 0
6, 135112, Note_on_c, 4, 87, 70
6, 135112, Note_on_c, 4, 75, 70
6, 135134, Note_on_c, 4, 75, 0
6, 135134, Note_on_c, 4, 87, 0
6, 135142, Note_on_c, 4, 87, 70
6, 135142, Note_on_c, 4, 75, 70
6, 135192, Note_on_c, 4, 75, 0
6, 135192, Note_on_c, 4, 87, 0
6, 135232, Note_on_c, 4, 87, 70
6, 135232, Note_on_c, 4, 75, 70
6, 135254, Note_on_c, 4, 75, 0
6, 135254, Note_on_c, 4, 87, 0
6, 135262, Note_on_c, 4, 87, 70
6, 135382, Note_on_c, 4, 88, 70
6, 135392, Note_on_c, 4, 87, 0
6, 135502, Note_on_c, 4, 89, 70
6, 135512, Note_on_c, 4, 88, 0
6, 135622, Note_on_c, 4, 91, 70
6, 135632, Note_on_c, 4, 89, 0
6, 135742, Note_on_c, 4, 92, 70
6, 135752, Note_on_c, 4, 91, 0
6, 135802, Note_on_c, 4, 89, 70
6, 135807, Note_on_c, 4, 92, 0
6, 135862, Note_on_c, 4, 84, 70
6, 135867, Note_on_c, 4, 89, 0
6, 135922, Note_on_c, 4, 80, 70
6, 135927, Note_on_c, 4, 84, 0
6, 135982, Note_on_c, 4, 79, 70
6, 135987, Note_on_c, 4, 80, 0
6, 136032, Note_on_c, 4, 79, 0
6, 136072, Note_on_c, 4, 91, 70
6, 136094, Note_on_c, 4, 91, 0
6, 136102, Note_on_c, 4, 91, 70
6, 136152, Note_on_c, 4, 91, 0
6, 136312, Note_on_c, 4, 91, 70
6, 136334, Note_on_c, 4, 91, 0
6, 136342, Note_on_c, 4, 91, 70
6, 136392, Note_on_c, 4, 91, 0
6, 136552, Note_on_c, 4, 91, 70
6, 136574, Note_on_c, 4, 91, 0
6, 136582, Note_on_c, 4, 91, 70
6, 136632, Note_on_c, 4, 91, 0
6, 136792, Note_on_c, 4, 91, 70
6, 136814, Note_on_c, 4, 91, 0
6, 136822, Note_on_c, 4, 91, 70
6, 136872, Note_on_c, 4, 91, 0
6, 136912, Note_on_c, 4, 89, 70
6, 136942, Note_on_c, 4, 88, 70
6, 136947, Note_on_c, 4, 89, 0
6, 136992, Note_on_c, 4, 88, 0
6, 178381, Control_c, 4, 11, 80
6, 178381, Note_on_c, 4, 89, 70
6, 178381, Note_on_c, 4, 80, 70
6, 178851, Note_on_c, 4, 80, 0
6, 178851, Note_on_c, 4, 89, 0
6, 178861, Note_on_c, 4, 92, 70
6, 178861, Note_on_c, 4, 89, 70
6, 179331, Note_on_c, 4, 89, 0
6, 179331, Note_on_c, 4, 92, 0
6, 179341, Note_on_c, 4, 89, 70
6, 179341, Note_on_c, 4, 80, 70
6, 179811, Note_on_c, 4, 80, 0
6, 179811, Note_on_c, 4, 89, 0
6, 179821, Note_on_c, 4, 89, 70
6, 179821, Note_on_c, 4, 92, 70
6, 180291, Note_on_c, 4, 92, 0
6, 180291, Note_on_c, 4, 89, 0
6, 180301, Note_on_c, 4, 92, 70
6, 180301, Note_on_c, 4, 89, 70
6, 180411, Note_on_c, 4, 89, 0
6, 180411, Note_on_c, 4, 92, 0
6, 180901, Note_on_c, 4, 85, 70
6, 180901, Note_on_c, 4, 76, 70
6, 180951, Note_on_c, 4, 76, 0
6, 180951, Note_on_c, 4, 85, 0
6, 181021, Note_on_c, 4, 84, 70
6, 181021, Note_on_c, 4, 80, 70
6, 181071, Note_on_c, 4, 80, 0
6, 181071, Note_on_c, 4, 84, 0
6, 182551, Control_c, 4, 11, 80
6, 182551, Note_on_c, 4, 84, 70
6, 182551, Note_on_c, 4, 72, 70
6, 182601, Note_on_c, 4, 72, 0
6, 182601, Note_on_c, 4, 84, 0
6, 182671, Note_on_c, 4, 84, 70
6, 182671, Note_on_c, 4, 72, 70
6, 182721, Note_on_c, 4, 72, 0
6, 182721, Note_on_c, 4, 84, 0
6, 183031, Note_on_c, 4, 84, 70
6, 183031, Note_on_c, 4, 72, 70
6, 183081, Note_on_c, 4, 72, 0
6, 183081, Note_on_c, 4, 84, 0
6, 183151, Note_on_c, 4, 89, 70
6, 183151, Note_on_c, 4, 77, 70
6, 183201, Note_on_c, 4, 77, 0
6, 183201, Note_on_c, 4, 89, 0
6, 183391, Note_on_c, 4, 77, 80
6, 183391, Note_on_c, 4, 89, 80
6, 183441, Note_on_c, 4, 89, 0
6, 183441, Note_on_c, 4, 77, 0
6, 183631, Note_on_c, 4, 65, 80
6, 184111, Note_on_c, 4, 65, 0
6, 184664, Control_c, 4, 121, 0
6, 184664, End_track
7, 0, Start_track
7, 0, MIDI_port, 0
7, 0, Title_t, "Oboes"
7, 0, Program_c, 5, 68
7, 0, Control_c, 5, 7, 110
7, 0, Control_c, 5, 10, 80
7, 50, Control_c, 5, 121, 0
7, 100, Control_c, 5, 91, 100
7, 110, Control_c, 5, 11, 70
7, 2108, Note_on_c, 5, 77, 80
7, 2108, Note_on_c, 5, 65, 80
7, 2178, Note_on_c, 5, 65, 0
7, 2178, Note_on_c, 5, 77, 0
7, 2217, Note_on_c, 5, 76, 80
7, 2217, Note_on_c, 5, 67, 80
7, 2287, Note_on_c, 5, 67, 0
7, 2287, Note_on_c, 5, 76, 0
7, 2555, Note_on_c, 5, 77, 80
7, 2555, Note_on_c, 5, 65, 80
7, 2625, Note_on_c, 5, 65, 0
7, 2625, Note_on_c, 5, 77, 0
7, 2658, Note_on_c, 5, 67, 80
7, 2658, Note_on_c, 5, 76, 80
7, 2708, Note_on_c, 5, 76, 0
7, 2708, Note_on_c, 5, 67, 0
7, 2969, Note_on_c, 5, 70, 80
7, 2969, Note_on_c, 5, 79, 80
7, 3050, Note_on_c, 5, 77, 80
7, 3059, Note_on_c, 5, 79, 0
7, 3075, Note_on_c, 5, 77, 0
7, 3077, Note_on_c, 5, 76, 80
7, 3186, Note_on_c, 5, 72, 80
7, 3186, Note_on_c, 5, 79, 80
7, 3189, Note_on_c, 5, 76, 0
7, 3192, Note_on_c, 5, 70, 0
7, 3268, Note_on_c, 5, 72, 0
7, 3290, Note_on_c, 5, 77, 80
7, 3290, Note_on_c, 5, 68, 80
7, 3296, Note_on_c, 5, 79, 0
7, 3350, Note_on_c, 5, 68, 0
7, 3350, Note_on_c, 5, 77, 0
7, 3361, Note_on_c, 5, 76, 80
7, 3361, Note_on_c, 5, 70, 80
7, 3388, Note_on_c, 5, 70, 0
7, 3388, Note_on_c, 5, 76, 0
7, 3388, Note_on_c, 5, 77, 80
7, 3388, Note_on_c, 5, 72, 60
7, 3508, Note_on_c, 5, 72, 0
7, 3508, Note_on_c, 5, 77, 0
7, 6089, Note_on_c, 5, 72, 60
7, 6306, Note_on_c, 5, 74, 60
7, 6309, Note_on_c, 5, 72, 0
7, 6368, Note_on_c, 5, 80, 60
7, 6476, Note_on_c, 5, 74, 60
7, 6478, Note_on_c, 5, 80, 0
7, 6530, Note_on_c, 5, 77, 60
7, 6534, Note_on_c, 5, 74, 0
7, 6542, Note_on_c, 5, 74, 0
7, 6581, Note_on_c, 5, 79, 60
7, 6585, Note_on_c, 5, 77, 0
7, 6690, Note_on_c, 5, 77, 60
7, 6694, Note_on_c, 5, 79, 0
7, 6746, Note_on_c, 5, 75, 60
7, 6750, Note_on_c, 5, 77, 0
7, 6800, Note_on_c, 5, 77, 60
7, 6806, Note_on_c, 5, 75, 0
7, 6912, Note_on_c, 5, 75, 60
7, 6918, Note_on_c, 5, 77, 0
7, 6965, Note_on_c, 5, 73, 60
7, 6970, Note_on_c, 5, 75, 0
7, 7016, Note_on_c, 5, 75, 60
7, 7020, Note_on_c, 5, 73, 0
7, 7128, Note_on_c, 5, 73, 60
7, 7135, Note_on_c, 5, 75, 0
7, 7185, Note_on_c, 5, 72, 60
7, 7185, Note_on_c, 5, 68, 60
7, 7189, Note_on_c, 5, 73, 0
7, 7290, Note_on_c, 5, 69, 60
7, 7290, Note_on_c, 5, 66, 60
7, 7295, Note_on_c, 5, 68, 0
7, 7295, Note_on_c, 5, 72, 0
7, 7398, Note_on_c, 5, 70, 60
7, 7398, Note_on_c, 5, 65, 60
7, 7402, Note_on_c, 5, 69, 0
7, 7402, Note_on_c, 5, 66, 0
7, 7508, Note_on_c, 5, 67, 60
7, 7513, Note_on_c, 5, 65, 0
7, 7620, Note_on_c, 5, 68, 60
7, 7626, Note_on_c, 5, 67, 0
7, 7626, Note_on_c, 5, 70, 0
7, 7838, Note_on_c, 5, 67, 60
7, 7842, Note_on_c, 5, 68, 0
7, 7948, Note_on_c, 5, 67, 0
7, 7952, Note_on_c, 5, 65, 60
7, 8057, Note_on_c, 5, 64, 60
7, 8062, Note_on_c, 5, 65, 0
7, 8118, Note_on_c, 5, 73, 80
7, 8118, Note_on_c, 5, 70, 80
7, 8167, Note_on_c, 5, 64, 0
7, 8223, Note_on_c, 5, 72, 60
7, 8223, Note_on_c, 5, 68, 60
7, 8228, Note_on_c, 5, 70, 0
7, 8228, Note_on_c, 5, 73, 0
7, 8278, Note_on_c, 5, 70, 60
7, 8278, Note_on_c, 5, 64, 60
7, 8283, Note_on_c, 5, 72, 0
7, 8283, Note_on_c, 5, 68, 0
7, 8329, Note_on_c, 5, 68, 60
7, 8329, Note_on_c, 5, 65, 60
7, 8337, Note_on_c, 5, 70, 0
7, 8337, Note_on_c, 5, 64, 0
7, 8384, Note_on_c, 5, 64, 60
7, 8389, Note_on_c, 5, 68, 0
7, 8389, Note_on_c, 5, 65, 0
7, 8434, Note_on_c, 5, 65, 60
7, 8434, Note_on_c, 5, 62, 60
7, 8441, Note_on_c, 5, 64, 0
7, 8484, Note_on_c, 5, 64, 60
7, 8491, Note_on_c, 5, 62, 0
7, 8491, Note_on_c, 5, 65, 0
7, 8529, Note_on_c, 5, 64, 0
7, 8544, Note_on_c, 5, 67, 80
7, 8544, Note_on_c, 5, 64, 80
7, 8636, Note_on_c, 5, 64, 0
7, 8636, Note_on_c, 5, 67, 0
7, 8650, Note_on_c, 5, 64, 60
7, 8650, Note_on_c, 5, 67, 60
7, 8695, Note_on_c, 5, 67, 0
7, 8695, Note_on_c, 5, 64, 0
7, 8708, Note_on_c, 5, 64, 60
7, 8708, Note_on_c, 5, 67, 60
7, 8759, Note_on_c, 5, 65, 60
7, 8759, Note_on_c, 5, 68, 60
7, 8766, Note_on_c, 5, 67, 0
7, 8766, Note_on_c, 5, 64, 0
7, 8805, Note_on_c, 5, 65, 0
7, 8805, Note_on_c, 5, 68, 0
7, 8813, Note_on_c, 5, 70, 60
7, 8813, Note_on_c, 5, 73, 60
7, 8858, Note_on_c, 5, 73, 0
7, 8858, Note_on_c, 5, 70, 0
7, 8863, Note_on_c, 5, 70, 60
7, 8863, Note_on_c, 5, 73, 60
7, 8908, Note_on_c, 5, 73, 0
7, 8908, Note_on_c, 5, 70, 0
7, 8918, Note_on_c, 5, 70, 60
7, 8918, Note_on_c, 5, 73, 60
7, 8963, Note_on_c, 5, 73, 0
7, 8963, Note_on_c, 5, 70, 0
7, 8974, Note_on_c, 5, 73, 80
7, 8974, Note_on_c, 5, 70, 80
7, 9084, Note_on_c, 5, 70, 0
7, 9084, Note_on_c, 5, 73, 0
7, 9088, Note_on_c, 5, 72, 60
7, 9088, Note_on_c, 5, 68, 60
7, 9145, Note_on_c, 5, 70, 60
7, 9145, Note_on_c, 5, 67, 60
7, 9151, Note_on_c, 5, 68, 0
7, 9151, Note_on_c, 5, 72, 0
7, 9193, Note_on_c, 5, 68, 60
7, 9193, Note_on_c, 5, 65, 60
7, 9200, Note_on_c, 5, 70, 0
7, 9200, Note_on_c, 5, 67, 0
7, 9244, Note_on_c, 5, 67, 60
7, 9251, Note_on_c, 5, 68, 0
7, 9251, Note_on_c, 5, 65, 0
7, 9292, Note_on_c, 5, 65, 60
7, 9292, Note_on_c, 5, 60, 60
7, 9300, Note_on_c, 5, 67, 0
7, 9337, Note_on_c, 5, 60, 0
7, 9348, Note_on_c, 5, 63, 60
7, 9348, Note_on_c, 5, 60, 60
7, 9354, Note_on_c, 5, 65, 0
7, 9393, Note_on_c, 5, 60, 0
7, 9393, Note_on_c, 5, 63, 0
7, 9404, Note_on_c, 5, 78, 80
7, 9404, Note_on_c, 5, 63, 80
7, 9516, Note_on_c, 5, 77, 60
7, 9516, Note_on_c, 5, 73, 60
7, 9519, Note_on_c, 5, 63, 0
7, 9519, Note_on_c, 5, 78, 0
7, 9567, Note_on_c, 5, 75, 60
7, 9567, Note_on_c, 5, 72, 60
7, 9572, Note_on_c, 5, 77, 0
7, 9572, Note_on_c, 5, 73, 0
7, 9615, Note_on_c, 5, 73, 60
7, 9615, Note_on_c, 5, 70, 60
7, 9621, Note_on_c, 5, 75, 0
7, 9621, Note_on_c, 5, 72, 0
7, 9665, Note_on_c, 5, 69, 60
7, 9665, Note_on_c, 5, 65, 60
7, 9672, Note_on_c, 5, 73, 0
7, 9672, Note_on_c, 5, 70, 0
7, 9707, Note_on_c, 5, 65, 0
7, 9715, Note_on_c, 5, 70, 60
7, 9715, Note_on_c, 5, 65, 60
7, 9720, Note_on_c, 5, 69, 0
7, 9760, Note_on_c, 5, 65, 0
7, 9760, Note_on_c, 5, 70, 0
7, 9770, Note_on_c, 5, 66, 60
7, 9815, Note_on_c, 5, 66, 0
7, 9997, Note_on_c, 5, 72, 60
7, 9997, Note_on_c, 5, 67, 60
7, 10107, Note_on_c, 5, 65, 60
7, 10112, Note_on_c, 5, 67, 0
7, 10212, Note_on_c, 5, 71, 60
7, 10212, Note_on_c, 5, 65, 60
7, 10217, Note_on_c, 5, 65, 0
7, 10227, Note_on_c, 5, 72, 0
7, 10252, Note_on_c, 5, 71, 0
7, 10252, Note_on_c, 5, 65, 0
7, 10429, Note_on_c, 5, 70, 60
7, 10533, Note_on_c, 5, 63, 60
7, 10539, Note_on_c, 5, 70, 0
7, 10642, Note_on_c, 5, 70, 60
7, 10642, Note_on_c, 5, 63, 60
7, 10647, Note_on_c, 5, 63, 0
7, 10687, Note_on_c, 5, 70, 0
7, 10687, Note_on_c, 5, 63, 0
7, 10805, Note_on_c, 5, 65, 60
7, 10859, Note_on_c, 5, 69, 60
7, 10859, Note_on_c, 5, 66, 60
7, 10865, Note_on_c, 5, 65, 0
7, 10968, Note_on_c, 5, 60, 60
7, 10969, Note_on_c, 5, 66, 0
7, 10969, Note_on_c, 5, 69, 0
7, 11076, Note_on_c, 5, 70, 60
7, 11076, Note_on_c, 5, 65, 60
7, 11080, Note_on_c, 5, 60, 0
7, 11166, Note_on_c, 5, 65, 0
7, 11166, Note_on_c, 5, 70, 0
7, 11186, Note_on_c, 5, 71, 80
7, 11186, Note_on_c, 5, 65, 80
7, 11356, Note_on_c, 5, 65, 0
7, 11384, Note_on_c, 5, 77, 70
7, 11384, Note_on_c, 5, 65, 70
7, 11391, Note_on_c, 5, 71, 0
7, 11499, Note_on_c, 5, 76, 75
7, 11499, Note_on_c, 5, 67, 75
7, 11504, Note_on_c, 5, 65, 0
7, 11504, Note_on_c, 5, 77, 0
7, 11609, Note_on_c, 5, 76, 0
7, 11609, Note_on_c, 5, 67, 0
7, 12406, Note_on_c, 5, 73, 60
7, 12735, Note_on_c, 5, 72, 60
7, 12741, Note_on_c, 5, 73, 0
7, 12825, Note_on_c, 5, 72, 0
7, 12847, Note_on_c, 5, 77, 60
7, 12847, Note_on_c, 5, 72, 60
7, 12947, Note_on_c, 5, 72, 0
7, 12947, Note_on_c, 5, 77, 0
7, 12970, Note_on_c, 5, 77, 75
7, 12970, Note_on_c, 5, 72, 75
7, 13070, Note_on_c, 5, 72, 0
7, 13070, Note_on_c, 5, 77, 0
7, 15360, Control_c, 5, 11, 70
7, 15408, Note_on_c, 5, 80, 70
7, 15408, Note_on_c, 5, 72, 70
7, 15488, Note_on_c, 5, 72, 0
7, 15488, Note_on_c, 5, 80, 0
7, 15518, Note_on_c, 5, 79, 70
7, 15518, Note_on_c, 5, 72, 70
7, 15638, Note_on_c, 5, 72, 0
7, 15638, Note_on_c, 5, 79, 0
7, 15720, Control_c, 5, 11, 60
7, 15762, Note_on_c, 5, 72, 70
7, 15865, Note_on_c, 5, 72, 0
7, 15884, Note_on_c, 5, 72, 80
7, 16001, Note_on_c, 5, 72, 0
7, 16001, Note_on_c, 5, 73, 95
7, 16224, Note_on_c, 5, 72, 80
7, 16229, Note_on_c, 5, 73, 0
7, 16332, Note_on_c, 5, 73, 90
7, 16336, Note_on_c, 5, 72, 0
7, 16383, Note_on_c, 5, 72, 85
7, 16391, Note_on_c, 5, 73, 0
7, 16438, Note_on_c, 5, 70, 90
7, 16447, Note_on_c, 5, 72, 0
7, 16662, Note_on_c, 5, 70, 0
7, 16662, Note_on_c, 5, 68, 60
7, 16752, Note_on_c, 5, 68, 0
7, 16766, Note_on_c, 5, 70, 80
7, 16816, Note_on_c, 5, 72, 85
7, 16826, Note_on_c, 5, 70, 0
7, 16877, Note_on_c, 5, 73, 90
7, 16882, Note_on_c, 5, 72, 0
7, 16958, Note_on_c, 5, 73, 0
7, 16988, Note_on_c, 5, 73, 90
7, 17058, Note_on_c, 5, 73, 0
7, 17068, Note_on_c, 5, 73, 90
7, 17095, Note_on_c, 5, 72, 80
7, 17098, Note_on_c, 5, 73, 0
7, 17206, Note_on_c, 5, 80, 110
7, 17211, Note_on_c, 5, 72, 0
7, 17310, Note_on_c, 5, 79, 90
7, 17316, Note_on_c, 5, 80, 0
7, 17380, Note_on_c, 5, 79, 0
7, 17401, Note_on_c, 5, 79, 80
7, 17418, Note_on_c, 5, 77, 90
7, 17424, Note_on_c, 5, 79, 0
7, 17503, Note_on_c, 5, 75, 85
7, 17505, Note_on_c, 5, 77, 0
7, 17523, Note_on_c, 5, 75, 0
7, 17530, Note_on_c, 5, 75, 80
7, 17698, Note_on_c, 5, 75, 0
7, 17698, Note_on_c, 5, 76, 60
7, 17762, Note_on_c, 5, 76, 0
7, 17763, Note_on_c, 5, 77, 50
7, 17871, Note_on_c, 5, 75, 50
7, 17875, Note_on_c, 5, 77, 0
7, 17978, Note_on_c, 5, 73, 50
7, 17983, Note_on_c, 5, 75, 0
7, 18083, Note_on_c, 5, 77, 50
7, 18095, Note_on_c, 5, 73, 0
7, 18140, Note_on_c, 5, 77, 0
7, 18164, Note_on_c, 5, 77, 50
7, 18187, Note_on_c, 5, 77, 0
7, 18187, Note_on_c, 5, 75, 50
7, 18271, Note_on_c, 5, 73, 50
7, 18273, Note_on_c, 5, 75, 0
7, 18300, Note_on_c, 5, 73, 0
7, 18300, Note_on_c, 5, 75, 50
7, 18379, Note_on_c, 5, 77, 50
7, 18386, Note_on_c, 5, 75, 0
7, 18410, Note_on_c, 5, 73, 50
7, 18416, Note_on_c, 5, 77, 0
7, 18615, Note_on_c, 5, 73, 0
7, 18636, Note_on_c, 5, 73, 50
7, 18850, Note_on_c, 5, 72, 50
7, 18861, Note_on_c, 5, 73, 0
7, 19072, Note_on_c, 5, 68, 50
7, 19078, Note_on_c, 5, 72, 0
7, 19148, Note_on_c, 5, 67, 50
7, 19154, Note_on_c, 5, 68, 0
7, 19171, Note_on_c, 5, 68, 50
7, 19174, Note_on_c, 5, 67, 0
7, 19256, Note_on_c, 5, 70, 50
7, 19261, Note_on_c, 5, 68, 0
7, 19282, Note_on_c, 5, 67, 50
7, 19286, Note_on_c, 5, 70, 0
7, 19512, Note_on_c, 5, 67, 0
7, 19512, Note_on_c, 5, 68, 45
7, 19632, Note_on_c, 5, 70, 40
7, 19642, Note_on_c, 5, 68, 0
7, 19753, Note_on_c, 5, 63, 40
7, 19762, Note_on_c, 5, 70, 0
7, 19963, Note_on_c, 5, 63, 0
7, 19978, Note_on_c, 5, 63, 60
7, 20218, Note_on_c, 5, 63, 0
7, 21354, Note_on_c, 5, 75, 50
7, 21354, Note_on_c, 5, 72, 50
7, 21574, Note_on_c, 5, 72, 0
7, 21574, Note_on_c, 5, 73, 50
7, 21574, Note_on_c, 5, 70, 50
7, 21584, Note_on_c, 5, 75, 0
7, 21774, Note_on_c, 5, 70, 0
7, 21774, Note_on_c, 5, 73, 0
7, 21801, Note_on_c, 5, 73, 50
7, 21801, Note_on_c, 5, 70, 50
7, 21911, Note_on_c, 5, 70, 0
7, 21911, Note_on_c, 5, 73, 0
7, 21911, Note_on_c, 5, 72, 50
7, 21911, Note_on_c, 5, 68, 50
7, 22131, Note_on_c, 5, 70, 50
7, 22131, Note_on_c, 5, 67, 50
7, 22136, Note_on_c, 5, 68, 0
7, 22136, Note_on_c, 5, 72, 0
7, 22231, Note_on_c, 5, 70, 0
7, 22231, Note_on_c, 5, 67, 0
7, 22245, Note_on_c, 5, 70, 50
7, 22245, Note_on_c, 5, 67, 50
7, 22460, Note_on_c, 5, 68, 50
7, 22465, Note_on_c, 5, 67, 0
7, 22465, Note_on_c, 5, 70, 0
7, 22560, Note_on_c, 5, 68, 0
7, 25761, Note_on_c, 5, 67, 60
7, 25988, Note_on_c, 5, 72, 63
7, 25988, Note_on_c, 5, 65, 63
7, 25991, Note_on_c, 5, 67, 0
7, 26199, Note_on_c, 5, 70, 67
7, 26208, Note_on_c, 5, 72, 0
7, 26298, Note_on_c, 5, 65, 0
7, 26307, Note_on_c, 5, 67, 70
7, 26417, Note_on_c, 5, 67, 0
7, 26419, Note_on_c, 5, 70, 0
7, 26419, Note_on_c, 5, 68, 75
7, 26529, Note_on_c, 5, 67, 72
7, 26534, Note_on_c, 5, 68, 0
7, 26629, Note_on_c, 5, 67, 0
7, 26653, Note_on_c, 5, 65, 67
7, 26869, Note_on_c, 5, 67, 60
7, 27064, Note_on_c, 5, 67, 0
7, 27073, Note_on_c, 5, 65, 0
7, 27085, Note_on_c, 5, 67, 60
7, 27085, Note_on_c, 5, 64, 60
7, 27285, Note_on_c, 5, 64, 0
7, 27285, Note_on_c, 5, 67, 0
7, 27295, Note_on_c, 5, 72, 60
7, 27295, Note_on_c, 5, 65, 45
7, 27395, Note_on_c, 5, 65, 0
7, 27395, Note_on_c, 5, 72, 0
7, 27411, Note_on_c, 5, 77, 60
7, 27411, Note_on_c, 5, 73, 45
7, 27631, Note_on_c, 5, 73, 0
7, 27631, Note_on_c, 5, 77, 0
7, 27633, Note_on_c, 5, 76, 60
7, 27633, Note_on_c, 5, 72, 45
7, 27713, Note_on_c, 5, 72, 0
7, 27713, Note_on_c, 5, 76, 0
7, 27743, Note_on_c, 5, 77, 60
7, 27743, Note_on_c, 5, 72, 45
7, 27843, Note_on_c, 5, 72, 0
7, 27843, Note_on_c, 5, 77, 0
7, 94206, Control_c, 5, 11, 60
7, 94206, Note_on_c, 5, 74, 60
7, 94206, Note_on_c, 5, 67, 60
7, 94263, Control_c, 5, 11, 61
7, 94320, Control_c, 5, 11, 62
7, 94378, Control_c, 5, 11, 63
7, 94435, Control_c, 5, 11, 64
7, 94493, Control_c, 5, 11, 65
7, 94550, Control_c, 5, 11, 66
7, 94607, Control_c, 5, 11, 67
7, 94665, Control_c, 5, 11, 68
7, 94722, Control_c, 5, 11, 69
7, 94746, Note_on_c, 5, 67, 0
7, 94780, Control_c, 5, 11, 65
7, 94780, Note_on_c, 5, 75, 70
7, 94780, Note_on_c, 5, 67, 60
7, 94786, Note_on_c, 5, 74, 0
7, 94890, Note_on_c, 5, 75, 0
7, 94940, Note_on_c, 5, 68, 60
7, 94945, Note_on_c, 5, 67, 0
7, 95050, Note_on_c, 5, 68, 0
7, 95100, Note_on_c, 5, 75, 62
7, 95100, Note_on_c, 5, 69, 50
7, 95170, Note_on_c, 5, 69, 0
7, 95170, Note_on_c, 5, 75, 0
7, 95180, Note_on_c, 5, 75, 65
7, 95180, Note_on_c, 5, 69, 50
7, 95230, Note_on_c, 5, 69, 0
7, 95230, Note_on_c, 5, 75, 0
7, 95240, Note_on_c, 5, 75, 68
7, 95240, Note_on_c, 5, 69, 50
7, 95256, Note_on_c, 5, 69, 0
7, 95256, Note_on_c, 5, 75, 0
7, 95260, Note_on_c, 5, 74, 71
7, 95260, Note_on_c, 5, 69, 50
7, 95340, Note_on_c, 5, 67, 50
7, 95350, Note_on_c, 5, 69, 0
7, 95410, Note_on_c, 5, 67, 0
7, 95410, Note_on_c, 5, 74, 0
7, 95420, Note_on_c, 5, 74, 60
7, 95420, Note_on_c, 5, 67, 50
7, 95720, Note_on_c, 5, 67, 0
7, 95720, Note_on_c, 5, 74, 0
7, 95740, Note_on_c, 5, 73, 58
7, 95740, Note_on_c, 5, 67, 50
7, 95810, Note_on_c, 5, 67, 0
7, 95810, Note_on_c, 5, 73, 0
7, 95820, Note_on_c, 5, 73, 58
7, 95820, Note_on_c, 5, 67, 45
7, 95870, Note_on_c, 5, 67, 0
7, 95870, Note_on_c, 5, 73, 0
7, 95880, Note_on_c, 5, 73, 58
7, 95880, Note_on_c, 5, 67, 45
7, 95896, Note_on_c, 5, 67, 0
7, 95896, Note_on_c, 5, 73, 0
7, 95900, Note_on_c, 5, 72, 58
7, 95900, Note_on_c, 5, 67, 50
7, 95980, Note_on_c, 5, 65, 50
7, 95990, Note_on_c, 5, 67, 0
7, 96050, Note_on_c, 5, 65, 0
7, 96060, Note_on_c, 5, 72, 0
7, 96060, Note_on_c, 5, 72, 58
7, 96060, Note_on_c, 5, 65, 50
7, 96210, Note_on_c, 5, 65, 0
7, 96210, Note_on_c, 5, 72, 0
7, 96220, Note_on_c, 5, 72, 58
7, 96220, Note_on_c, 5, 68, 50
7, 96370, Note_on_c, 5, 68, 0
7, 96370, Note_on_c, 5, 72, 0
7, 96380, Note_on_c, 5, 74, 55
7, 96380, Note_on_c, 5, 68, 50
7, 96410, Note_on_c, 5, 68, 0
7, 96410, Note_on_c, 5, 74, 0
7, 96420, Note_on_c, 5, 80, 70
7, 96420, Note_on_c, 5, 77, 60
7, 96500, Note_on_c, 5, 79, 60
7, 96500, Note_on_c, 5, 75, 50
7, 96510, Note_on_c, 5, 77, 0
7, 96510, Note_on_c, 5, 80, 0
7, 96540, Note_on_c, 5, 77, 60
7, 96545, Note_on_c, 5, 79, 0
7, 96545, Note_on_c, 5, 75, 0
7, 96580, Note_on_c, 5, 80, 70
7, 96580, Note_on_c, 5, 74, 60
7, 96585, Note_on_c, 5, 77, 0
7, 96660, Note_on_c, 5, 79, 60
7, 96660, Note_on_c, 5, 75, 50
7, 96665, Note_on_c, 5, 74, 0
7, 96665, Note_on_c, 5, 80, 0
7, 96700, Note_on_c, 5, 79, 60
7, 96700, Note_on_c, 5, 73, 50
7, 96705, Note_on_c, 5, 79, 0
7, 96705, Note_on_c, 5, 75, 0
7, 96740, Note_on_c, 5, 73, 70
7, 96740, Note_on_c, 5, 70, 60
7, 96745, Note_on_c, 5, 73, 0
7, 96745, Note_on_c, 5, 79, 0
7, 96820, Note_on_c, 5, 72, 60
7, 96820, Note_on_c, 5, 68, 50
7, 96830, Note_on_c, 5, 73, 0
7, 96830, Note_on_c, 5, 70, 0
7, 96860, Note_on_c, 5, 70, 60
7, 96865, Note_on_c, 5, 72, 0
7, 96865, Note_on_c, 5, 68, 0
7, 96900, Note_on_c, 5, 73, 70
7, 96900, Note_on_c, 5, 67, 60
7, 96905, Note_on_c, 5, 70, 0
7, 96980, Note_on_c, 5, 72, 60
7, 96980, Note_on_c, 5, 68, 50
7, 96990, Note_on_c, 5, 67, 0
7, 96990, Note_on_c, 5, 73, 0
7, 97010, Note_on_c, 5, 68, 0
7, 97020, Note_on_c, 5, 74, 60
7, 97020, Note_on_c, 5, 68, 50
7, 97025, Note_on_c, 5, 72, 0
7, 97090, Note_on_c, 5, 68, 0
7, 97100, Note_on_c, 5, 75, 60
7, 97100, Note_on_c, 5, 67, 60
7, 97110, Note_on_c, 5, 74, 0
7, 97170, Note_on_c, 5, 67, 0
7, 97170, Note_on_c, 5, 75, 0
7, 98540, Note_on_c, 5, 79, 60
7, 98600, Note_on_c, 5, 77, 70
7, 98620, Note_on_c, 5, 75, 70
7, 98625, Note_on_c, 5, 77, 0
7, 98630, Note_on_c, 5, 79, 0
7, 98700, Note_on_c, 5, 74, 70
7, 98705, Note_on_c, 5, 75, 0
7, 98760, Note_on_c, 5, 72, 70
7, 98765, Note_on_c, 5, 74, 0
7, 98777, Note_on_c, 5, 72, 0
7, 98780, Note_on_c, 5, 72, 85
7, 98900, Note_on_c, 5, 71, 70
7, 98910, Note_on_c, 5, 72, 0
7, 98930, Note_on_c, 5, 71, 0
7, 98940, Note_on_c, 5, 72, 70
7, 98980, Note_on_c, 5, 79, 70
7, 98985, Note_on_c, 5, 72, 0
7, 99020, Note_on_c, 5, 77, 70
7, 99025, Note_on_c, 5, 79, 0
7, 99080, Note_on_c, 5, 75, 70
7, 99085, Note_on_c, 5, 77, 0
7, 99097, Note_on_c, 5, 75, 0
7, 99100, Note_on_c, 5, 75, 85
7, 99220, Note_on_c, 5, 74, 70
7, 99230, Note_on_c, 5, 75, 0
7, 99250, Note_on_c, 5, 74, 0
7, 99260, Note_on_c, 5, 74, 70
7, 99320, Note_on_c, 5, 75, 70
7, 99325, Note_on_c, 5, 74, 0
7, 99336, Note_on_c, 5, 75, 0
7, 99340, Note_on_c, 5, 75, 70
7, 99400, Note_on_c, 5, 76, 70
7, 99405, Note_on_c, 5, 75, 0
7, 99416, Note_on_c, 5, 76, 0
7, 99420, Note_on_c, 5, 76, 70
7, 99475, Note_on_c, 5, 76, 0
7, 99480, Note_on_c, 5, 76, 70
7, 99496, Note_on_c, 5, 76, 0
7, 99500, Note_on_c, 5, 76, 70
7, 99560, Note_on_c, 5, 77, 70
7, 99565, Note_on_c, 5, 76, 0
7, 99576, Note_on_c, 5, 77, 0
7, 99580, Note_on_c, 5, 77, 70
7, 99640, Note_on_c, 5, 78, 70
7, 99645, Note_on_c, 5, 77, 0
7, 99656, Note_on_c, 5, 78, 0
7, 99660, Note_on_c, 5, 78, 70
7, 99715, Note_on_c, 5, 78, 0
7, 99720, Note_on_c, 5, 78, 70
7, 99736, Note_on_c, 5, 78, 0
7, 99740, Note_on_c, 5, 79, 70
7, 99790, Note_on_c, 5, 79, 0
7, 99900, Control_c, 5, 11, 60
7, 99900, Note_on_c, 5, 79, 60
7, 99900, Note_on_c, 5, 67, 60
7, 99980, Note_on_c, 5, 77, 60
7, 99980, Note_on_c, 5, 74, 50
7, 99985, Note_on_c, 5, 67, 0
7, 99985, Note_on_c, 5, 79, 0
7, 100035, Note_on_c, 5, 77, 0
7, 100035, Note_on_c, 5, 74, 0
7, 100040, Note_on_c, 5, 75, 60
7, 100040, Note_on_c, 5, 72, 50
7, 100056, Note_on_c, 5, 72, 0
7, 100056, Note_on_c, 5, 75, 0
7, 100060, Note_on_c, 5, 73, 60
7, 100060, Note_on_c, 5, 70, 50
7, 100115, Note_on_c, 5, 70, 0
7, 100115, Note_on_c, 5, 73, 0
7, 100120, Note_on_c, 5, 72, 60
7, 100120, Note_on_c, 5, 68, 50
7, 100136, Note_on_c, 5, 68, 0
7, 100136, Note_on_c, 5, 72, 0
7, 100140, Note_on_c, 5, 70, 60
7, 100140, Note_on_c, 5, 67, 50
7, 100195, Note_on_c, 5, 67, 0
7, 100195, Note_on_c, 5, 70, 0
7, 100200, Note_on_c, 5, 68, 60
7, 100200, Note_on_c, 5, 65, 50
7, 100216, Note_on_c, 5, 65, 0
7, 100216, Note_on_c, 5, 68, 0
7, 100220, Note_on_c, 5, 68, 60
7, 100220, Note_on_c, 5, 65, 50
7, 100255, Note_on_c, 5, 65, 0
7, 100255, Note_on_c, 5, 68, 0
7, 100260, Note_on_c, 5, 67, 60
7, 100260, Note_on_c, 5, 63, 50
7, 100295, Note_on_c, 5, 63, 0
7, 100295, Note_on_c, 5, 67, 0
7, 100300, Note_on_c, 5, 67, 60
7, 100300, Note_on_c, 5, 65, 50
7, 100335, Note_on_c, 5, 65, 0
7, 100340, Note_on_c, 5, 63, 50
7, 100370, Note_on_c, 5, 67, 0
7, 100375, Note_on_c, 5, 63, 0
7, 100380, Note_on_c, 5, 67, 60
7, 100415, Note_on_c, 5, 67, 0
7, 100420, Note_on_c, 5, 65, 60
7, 100455, Note_on_c, 5, 65, 0
7, 100460, Note_on_c, 5, 63, 60
7, 100495, Note_on_c, 5, 63, 0
7, 100500, Note_on_c, 5, 65, 60
7, 100500, Note_on_c, 5, 62, 50
7, 100535, Note_on_c, 5, 62, 0
7, 100535, Note_on_c, 5, 65, 0
7, 100540, Note_on_c, 5, 67, 60
7, 100940, Note_on_c, 5, 65, 60
7, 100950, Note_on_c, 5, 67, 0
7, 100980, Note_on_c, 5, 63, 60
7, 100985, Note_on_c, 5, 65, 0
7, 101020, Note_on_c, 5, 62, 60
7, 101025, Note_on_c, 5, 63, 0
7, 101160, Control_c, 5, 11, 55
7, 101180, Note_on_c, 5, 63, 70
7, 101180, Note_on_c, 5, 60, 50
7, 101185, Note_on_c, 5, 62, 0
7, 101220, Note_on_c, 5, 65, 70
7, 101220, Note_on_c, 5, 62, 50
7, 101225, Note_on_c, 5, 60, 0
7, 101225, Note_on_c, 5, 63, 0
7, 101260, Note_on_c, 5, 67, 70
7, 101260, Note_on_c, 5, 63, 50
7, 101265, Note_on_c, 5, 65, 0
7, 101265, Note_on_c, 5, 62, 0
7, 101350, Note_on_c, 5, 67, 0
7, 101350, Note_on_c, 5, 63, 0
7, 108913, Control_c, 5, 11, 60
7, 108913, Note_on_c, 5, 72, 50
7, 109380, Note_on_c, 5, 70, 40
7, 109393, Note_on_c, 5, 72, 0
7, 109600, Note_on_c, 5, 70, 0
7, 109610, Note_on_c, 5, 70, 65
7, 109773, Note_on_c, 5, 68, 55
7, 109777, Note_on_c, 5, 70, 0
7, 109853, Note_on_c, 5, 67, 50
7, 109858, Note_on_c, 5, 68, 0
7, 109943, Note_on_c, 5, 65, 40
7, 109948, Note_on_c, 5, 67, 0
7, 110063, Note_on_c, 5, 65, 0
7, 119551, Note_on_c, 5, 80, 60
7, 119582, Note_on_c, 5, 73, 60
7, 119586, Note_on_c, 5, 80, 0
7, 119683, Note_on_c, 5, 75, 60
7, 119691, Note_on_c, 5, 73, 0
7, 119715, Note_on_c, 5, 68, 60
7, 119718, Note_on_c, 5, 75, 0
7, 119835, Note_on_c, 5, 68, 0
7, 122293, Note_on_c, 5, 75, 60
7, 122432, Note_on_c, 5, 67, 60
7, 122448, Note_on_c, 5, 75, 0
7, 122505, Note_on_c, 5, 70, 60
7, 122511, Note_on_c, 5, 67, 0
7, 122639, Note_on_c, 5, 69, 60
7, 122645, Note_on_c, 5, 70, 0
7, 122706, Note_on_c, 5, 67, 60
7, 122711, Note_on_c, 5, 69, 0
7, 122778, Note_on_c, 5, 62, 60
7, 122785, Note_on_c, 5, 67, 0
7, 123018, Note_on_c, 5, 62, 0
7, 132322, Note_on_c, 5, 79, 60
7, 132382, Note_on_c, 5, 80, 60
7, 132387, Note_on_c, 5, 79, 0
7, 132562, Note_on_c, 5, 79, 60
7, 132567, Note_on_c, 5, 80, 0
7, 132622, Note_on_c, 5, 80, 60
7, 132627, Note_on_c, 5, 79, 0
7, 132802, Note_on_c, 5, 79, 60
7, 132802, Note_on_c, 5, 67, 60
7, 132807, Note_on_c, 5, 80, 0
7, 132862, Note_on_c, 5, 77, 60
7, 132862, Note_on_c, 5, 65, 60
7, 132867, Note_on_c, 5, 67, 0
7, 132867, Note_on_c, 5, 79, 0
7, 133102, Note_on_c, 5, 76, 60
7, 133102, Note_on_c, 5, 67, 60
7, 133112, Note_on_c, 5, 77, 0
7, 133112, Note_on_c, 5, 65, 0
7, 133267, Note_on_c, 5, 67, 0
7, 133282, Note_on_c, 5, 79, 60
7, 133282, Note_on_c, 5, 67, 60
7, 133287, Note_on_c, 5, 76, 0
7, 133342, Note_on_c, 5, 80, 60
7, 133342, Note_on_c, 5, 68, 60
7, 133347, Note_on_c, 5, 67, 0
7, 133347, Note_on_c, 5, 79, 0
7, 133522, Note_on_c, 5, 79, 60
7, 133522, Note_on_c, 5, 67, 60
7, 133527, Note_on_c, 5, 80, 0
7, 133527, Note_on_c, 5, 68, 0
7, 133582, Note_on_c, 5, 80, 60
7, 133582, Note_on_c, 5, 68, 60
7, 133587, Note_on_c, 5, 79, 0
7, 133587, Note_on_c, 5, 67, 0
7, 133762, Note_on_c, 5, 79, 60
7, 133762, Note_on_c, 5, 67, 60
7, 133767, Note_on_c, 5, 80, 0
7, 133767, Note_on_c, 5, 68, 0
7, 133822, Note_on_c, 5, 77, 60
7, 133822, Note_on_c, 5, 65, 60
7, 133827, Note_on_c, 5, 79, 0
7, 133827, Note_on_c, 5, 67, 0
7, 134062, Note_on_c, 5, 76, 60
7, 134062, Note_on_c, 5, 67, 60
7, 134072, Note_on_c, 5, 77, 0
7, 134072, Note_on_c, 5, 65, 0
7, 134227, Note_on_c, 5, 67, 0
7, 134242, Note_on_c, 5, 79, 60
7, 134242, Note_on_c, 5, 67, 60
7, 134247, Note_on_c, 5, 76, 0
7, 134302, Note_on_c, 5, 80, 60
7, 134302, Note_on_c, 5, 68, 60
7, 134307, Note_on_c, 5, 67, 0
7, 134307, Note_on_c, 5, 79, 0
7, 134482, Note_on_c, 5, 79, 60
7, 134482, Note_on_c, 5, 67, 60
7, 134487, Note_on_c, 5, 80, 0
7, 134487, Note_on_c, 5, 68, 0
7, 134542, Note_on_c, 5, 77, 60
7, 134542, Note_on_c, 5, 65, 60
7, 134547, Note_on_c, 5, 79, 0
7, 134547, Note_on_c, 5, 67, 0
7, 134722, Note_on_c, 5, 80, 60
7, 134722, Note_on_c, 5, 68, 60
7, 134727, Note_on_c, 5, 77, 0
7, 134727, Note_on_c, 5, 65, 0
7, 134782, Note_on_c, 5, 82, 60
7, 134782, Note_on_c, 5, 70, 60
7, 134787, Note_on_c, 5, 80, 0
7, 134787, Note_on_c, 5, 68, 0
7, 134962, Note_on_c, 5, 80, 60
7, 134962, Note_on_c, 5, 68, 60
7, 134967, Note_on_c, 5, 82, 0
7, 134967, Note_on_c, 5, 70, 0
7, 135022, Note_on_c, 5, 79, 60
7, 135022, Note_on_c, 5, 67, 60
7, 135027, Note_on_c, 5, 80, 0
7, 135027, Note_on_c, 5, 68, 0
7, 135142, Note_on_c, 5, 80, 60
7, 135142, Note_on_c, 5, 68, 60
7, 135202, Note_on_c, 5, 82, 60
7, 135202, Note_on_c, 5, 70, 60
7, 135207, Note_on_c, 5, 68, 0
7, 135207, Note_on_c, 5, 80, 0
7, 135207, Note_on_c, 5, 67, 0
7, 135207, Note_on_c, 5, 79, 0
7, 135262, Note_on_c, 5, 84, 60
7, 135262, Note_on_c, 5, 72, 60
7, 135267, Note_on_c, 5, 70, 0
7, 135267, Note_on_c, 5, 82, 0
7, 135372, Note_on_c, 5, 84, 0
7, 135372, Note_on_c, 5, 72, 0
7, 135382, Note_on_c, 5, 84, 60
7, 135382, Note_on_c, 5, 72, 60
7, 135492, Note_on_c, 5, 72, 0
7, 135492, Note_on_c, 5, 84, 0
7, 135502, Note_on_c, 5, 84, 60
7, 135502, Note_on_c, 5, 72, 60
7, 135732, Note_on_c, 5, 72, 0
7, 135732, Note_on_c, 5, 84, 0
7, 135742, Note_on_c, 5, 84, 60
7, 135742, Note_on_c, 5, 72, 60
7, 135852, Note_on_c, 5, 72, 0
7, 135852, Note_on_c, 5, 84, 0
7, 135862, Note_on_c, 5, 84, 60
7, 135862, Note_on_c, 5, 72, 60
7, 135922, Note_on_c, 5, 80, 60
7, 135922, Note_on_c, 5, 68, 60
7, 135927, Note_on_c, 5, 72, 0
7, 135927, Note_on_c, 5, 84, 0
7, 135982, Note_on_c, 5, 79, 60
7, 135982, Note_on_c, 5, 73, 60
7, 135987, Note_on_c, 5, 80, 0
7, 135987, Note_on_c, 5, 68, 0
7, 136032, Note_on_c, 5, 79, 0
7, 136032, Note_on_c, 5, 73, 0
7, 136072, Note_on_c, 5, 79, 60
7, 136072, Note_on_c, 5, 73, 60
7, 136094, Note_on_c, 5, 73, 0
7, 136094, Note_on_c, 5, 79, 0
7, 136102, Note_on_c, 5, 79, 60
7, 136102, Note_on_c, 5, 73, 60
7, 136152, Note_on_c, 5, 73, 0
7, 136152, Note_on_c, 5, 79, 0
7, 136312, Note_on_c, 5, 79, 60
7, 136312, Note_on_c, 5, 74, 60
7, 136334, Note_on_c, 5, 74, 0
7, 136334, Note_on_c, 5, 79, 0
7, 136342, Note_on_c, 5, 79, 60
7, 136342, Note_on_c, 5, 74, 60
7, 136392, Note_on_c, 5, 74, 0
7, 136392, Note_on_c, 5, 79, 0
7, 136552, Note_on_c, 5, 79, 60
7, 136552, Note_on_c, 5, 72, 60
7, 136574, Note_on_c, 5, 72, 0
7, 136574, Note_on_c, 5, 79, 0
7, 136582, Note_on_c, 5, 79, 60
7, 136582, Note_on_c, 5, 72, 60
7, 136632, Note_on_c, 5, 72, 0
7, 136632, Note_on_c, 5, 79, 0
7, 136792, Note_on_c, 5, 79, 60
7, 136792, Note_on_c, 5, 71, 60
7, 136814, Note_on_c, 5, 71, 0
7, 136814, Note_on_c, 5, 79, 0
7, 136822, Note_on_c, 5, 79, 60
7, 136822, Note_on_c, 5, 71, 60
7, 136872, Note_on_c, 5, 71, 0
7, 136872, Note_on_c, 5, 79, 0
7, 136912, Note_on_c, 5, 77, 60
7, 136912, Note_on_c, 5, 71, 60
7, 136942, Note_on_c, 5, 76, 60
7, 136942, Note_on_c, 5, 72, 60
7, 136947, Note_on_c, 5, 71, 0
7, 136947, Note_on_c, 5, 77, 0
7, 136992, Note_on_c, 5, 76, 0
7, 136992, Note_on_c, 5, 72, 0
7, 178381, Control_c, 5, 11, 80
7, 178381, Note_on_c, 5, 80, 70
7, 178381, Note_on_c, 5, 77, 70
7, 178851, Note_on_c, 5, 77, 0
7, 178851, Note_on_c, 5, 80, 0
7, 178861, Note_on_c, 5, 80, 70
7, 178861, Note_on_c, 5, 77, 70
7, 179331, Note_on_c, 5, 77, 0
7, 179331, Note_on_c, 5, 80, 0
7, 179341, Note_on_c, 5, 80, 70
7, 179341, Note_on_c, 5, 77, 70
7, 179811, Note_on_c, 5, 77, 0
7, 179811, Note_on_c, 5, 80, 0
7, 179821, Note_on_c, 5, 80, 70
7, 179821, Note_on_c, 5, 77, 70
7, 180051, Note_on_c, 5, 77, 0
7, 180051, Note_on_c, 5, 80, 0
7, 180061, Note_on_c, 5, 77, 70
7, 180061, Note_on_c, 5, 68, 70
7, 180291, Note_on_c, 5, 68, 0
7, 180291, Note_on_c, 5, 77, 0
7, 180301, Note_on_c, 5, 77, 70
7, 180301, Note_on_c, 5, 68, 70
7, 180411, Note_on_c, 5, 68, 0
7, 180411, Note_on_c, 5, 77, 0
7, 180421, Control_c, 5, 11, 50
7, 180421, Note_on_c, 5, 74, 60
7, 180781, Note_on_c, 5, 73, 60
7, 180791, Note_on_c, 5, 74, 0
7, 180851, Note_on_c, 5, 73, 0
7, 180901, Note_on_c, 5, 73, 70
7, 180901, Note_on_c, 5, 79, 80
7, 180951, Note_on_c, 5, 79, 0
7, 180951, Note_on_c, 5, 73, 0
7, 181021, Note_on_c, 5, 80, 80
7, 181021, Note_on_c, 5, 72, 70
7, 181071, Note_on_c, 5, 72, 0
7, 181071, Note_on_c, 5, 80, 0
7, 182551, Control_c, 5, 11, 80
7, 182551, Note_on_c, 5, 79, 70
7, 182551, Note_on_c, 5, 76, 70
7, 182601, Note_on_c, 5, 76, 0
7, 182601, Note_on_c, 5, 79, 0
7, 182671, Note_on_c, 5, 80, 70
7, 182671, Note_on_c, 5, 77, 70
7, 182721, Note_on_c, 5, 77, 0
7, 182721, Note_on_c, 5, 80, 0
7, 183031, Note_on_c, 5, 79, 70
7, 183031, Note_on_c, 5, 76, 70
7, 183081, Note_on_c, 5, 76, 0
7, 183081, Note_on_c, 5, 79, 0
7, 183151, Note_on_c, 5, 80, 70
7, 183151, Note_on_c, 5, 77, 70
7, 183201, Note_on_c, 5, 77, 0
7, 183201, Note_on_c, 5, 80, 0
7, 183391, Note_on_c, 5, 80, 80
7, 183391, Note_on_c, 5, 77, 80
7, 183441, Note_on_c, 5, 77, 0
7, 183441, Note_on_c, 5, 80, 0
7, 183631, Note_on_c, 5, 65, 80
7, 184111, Note_on_c, 5, 65, 0
7, 184664, Control_c, 5, 121, 0
7, 184664, End_track
8, 0, Start_track
8, 0, MIDI_port, 0
8, 0, Title_t, "Clarinets"
8, 0, Program_c, 6, 71
8, 0, Control_c, 6, 7, 110
8, 0, Control_c, 6, 10, 90
8, 50, Control_c, 6, 121, 0
8, 100, Control_c, 6, 91, 100
8, 110, Control_c, 6, 11, 70
8, 2108, Note_on_c, 6, 70, 80
8, 2108, Note_on_c, 6, 65, 80
8, 2178, Note_on_c, 6, 65, 0
8, 2178, Note_on_c, 6, 70, 0
8, 2217, Note_on_c, 6, 70, 80
8, 2217, Note_on_c, 6, 67, 80
8, 2267, Note_on_c, 6, 67, 0
8, 2267, Note_on_c, 6, 70, 0
8, 2555, Note_on_c, 6, 77, 80
8, 2555, Note_on_c, 6, 65, 80
8, 2625, Note_on_c, 6, 65, 0
8, 2625, Note_on_c, 6, 77, 0
8, 2658, Note_on_c, 6, 67, 80
8, 2658, Note_on_c, 6, 76, 80
8, 2708, Note_on_c, 6, 76, 0
8, 2708, Note_on_c, 6, 67, 0
8, 2969, Note_on_c, 6, 73, 80
8, 2969, Note_on_c, 6, 67, 60
8, 3050, Note_on_c, 6, 65, 80
8, 3059, Note_on_c, 6, 67, 0
8, 3075, Note_on_c, 6, 65, 0
8, 3077, Note_on_c, 6, 64, 80
8, 3186, Note_on_c, 6, 72, 80
8, 3186, Note_on_c, 6, 67, 80
8, 3189, Note_on_c, 6, 64, 0
8, 3192, Note_on_c, 6, 73, 0
8, 3268, Note_on_c, 6, 72, 0
8, 3290, Note_on_c, 6, 68, 80
8, 3290, Note_on_c, 6, 72, 80
8, 3296, Note_on_c, 6, 67, 0
8, 3350, Note_on_c, 6, 72, 0
8, 3350, Note_on_c, 6, 68, 0
8, 3361, Note_on_c, 6, 76, 80
8, 3361, Note_on_c, 6, 70, 80
8, 3388, Note_on_c, 6, 70, 0
8, 3388, Note_on_c, 6, 76, 0
8, 3388, Note_on_c, 6, 77, 80
8, 3388, Note_on_c, 6, 72, 80
8, 3508, Note_on_c, 6, 72, 0
8, 3508, Note_on_c, 6, 77, 0
8, 5872, Note_on_c, 6, 68, 60
8, 6036, Note_on_c, 6, 67, 60
8, 6042, Note_on_c, 6, 68, 0
8, 6089, Note_on_c, 6, 65, 60
8, 6095, Note_on_c, 6, 67, 0
8, 6147, Note_on_c, 6, 64, 60
8, 6151, Note_on_c, 6, 65, 0
8, 6254, Note_on_c, 6, 65, 60
8, 6259, Note_on_c, 6, 64, 0
8, 6299, Note_on_c, 6, 65, 0
8, 6306, Note_on_c, 6, 74, 60
8, 6306, Note_on_c, 6, 65, 60
8, 6530, Note_on_c, 6, 71, 60
8, 6530, Note_on_c, 6, 68, 60
8, 6536, Note_on_c, 6, 65, 0
8, 6536, Note_on_c, 6, 74, 0
8, 6581, Note_on_c, 6, 67, 60
8, 6585, Note_on_c, 6, 68, 0
8, 6690, Note_on_c, 6, 68, 60
8, 6693, Note_on_c, 6, 67, 0
8, 6737, Note_on_c, 6, 68, 0
8, 6746, Note_on_c, 6, 72, 60
8, 6746, Note_on_c, 6, 68, 60
8, 6755, Note_on_c, 6, 71, 0
8, 6965, Note_on_c, 6, 70, 60
8, 6965, Note_on_c, 6, 67, 60
8, 6968, Note_on_c, 6, 68, 0
8, 6968, Note_on_c, 6, 72, 0
8, 7185, Note_on_c, 6, 68, 60
8, 7187, Note_on_c, 6, 70, 0
8, 7187, Note_on_c, 6, 67, 0
8, 7290, Note_on_c, 6, 69, 60
8, 7290, Note_on_c, 6, 66, 60
8, 7295, Note_on_c, 6, 68, 0
8, 7398, Note_on_c, 6, 70, 60
8, 7398, Note_on_c, 6, 65, 60
8, 7400, Note_on_c, 6, 66, 0
8, 7400, Note_on_c, 6, 69, 0
8, 7508, Note_on_c, 6, 65, 0
8, 7508, Note_on_c, 6, 67, 60
8, 7618, Note_on_c, 6, 67, 0
8, 7620, Note_on_c, 6, 68, 60
8, 7627, Note_on_c, 6, 70, 0
8, 7732, Note_on_c, 6, 63, 60
8, 7838, Note_on_c, 6, 67, 60
8, 7838, Note_on_c, 6, 61, 60
8, 7840, Note_on_c, 6, 68, 0
8, 7842, Note_on_c, 6, 63, 0
8, 7948, Note_on_c, 6, 67, 0
8, 7952, Note_on_c, 6, 68, 60
8, 8057, Note_on_c, 6, 70, 60
8, 8058, Note_on_c, 6, 61, 0
8, 8062, Note_on_c, 6, 68, 0
8, 8167, Note_on_c, 6, 70, 0
8, 11940, Note_on_c, 6, 68, 60
8, 11940, Note_on_c, 6, 65, 60
8, 12350, Note_on_c, 6, 65, 0
8, 12350, Note_on_c, 6, 68, 0
8, 12406, Note_on_c, 6, 67, 60
8, 12406, Note_on_c, 6, 64, 60
8, 12606, Note_on_c, 6, 67, 0
8, 12634, Note_on_c, 6, 67, 60
8, 12806, Note_on_c, 6, 64, 0
8, 12834, Note_on_c, 6, 67, 0
8, 12847, Note_on_c, 6, 65, 50
8, 12847, Note_on_c, 6, 72, 50
8, 12957, Note_on_c, 6, 72, 0
8, 12957, Note_on_c, 6, 65, 0
8, 12970, Note_on_c, 6, 77, 70
8, 12970, Note_on_c, 6, 65, 70
8, 13080, Note_on_c, 6, 65, 0
8, 13080, Note_on_c, 6, 77, 0
8, 15360, Control_c, 6, 11, 70
8, 15408, Note_on_c, 6, 77, 70
8, 15408, Note_on_c, 6, 72, 70
8, 15488, Note_on_c, 6, 72, 0
8, 15488, Note_on_c, 6, 77, 0
8, 15518, Note_on_c, 6, 76, 70
8, 15518, Note_on_c, 6, 72, 70
8, 15638, Note_on_c, 6, 72, 0
8, 15638, Note_on_c, 6, 76, 0
8, 15960, Control_c, 6, 11, 50
8, 16001, Note_on_c, 6, 65, 50
8, 16112, Note_on_c, 6, 67, 50
8, 16119, Note_on_c, 6, 65, 0
8, 16224, Note_on_c, 6, 68, 50
8, 16230, Note_on_c, 6, 67, 0
8, 16332, Note_on_c, 6, 63, 50
8, 16338, Note_on_c, 6, 68, 0
8, 16438, Note_on_c, 6, 65, 50
8, 16442, Note_on_c, 6, 63, 0
8, 16548, Note_on_c, 6, 65, 0
8, 16550, Note_on_c, 6, 63, 50
8, 16606, Note_on_c, 6, 61, 50
8, 16610, Note_on_c, 6, 63, 0
8, 16662, Note_on_c, 6, 60, 50
8, 16666, Note_on_c, 6, 61, 0
8, 16752, Note_on_c, 6, 60, 0
8, 16766, Note_on_c, 6, 63, 50
8, 16816, Note_on_c, 6, 68, 50
8, 16821, Note_on_c, 6, 63, 0
8, 16877, Note_on_c, 6, 70, 50
8, 16886, Note_on_c, 6, 68, 0
8, 16967, Note_on_c, 6, 70, 0
8, 16988, Note_on_c, 6, 67, 50
8, 17095, Note_on_c, 6, 68, 50
8, 17103, Note_on_c, 6, 67, 0
8, 17206, Note_on_c, 6, 72, 50
8, 17212, Note_on_c, 6, 68, 0
8, 17296, Note_on_c, 6, 72, 0
8, 17310, Note_on_c, 6, 70, 50
8, 17418, Note_on_c, 6, 68, 50
8, 17422, Note_on_c, 6, 70, 0
8, 17530, Note_on_c, 6, 67, 50
8, 17532, Note_on_c, 6, 68, 0
8, 17640, Note_on_c, 6, 70, 50
8, 17648, Note_on_c, 6, 67, 0
8, 17750, Note_on_c, 6, 70, 0
8, 17763, Note_on_c, 6, 72, 50
8, 17978, Note_on_c, 6, 70, 50
8, 17983, Note_on_c, 6, 72, 0
8, 18083, Note_on_c, 6, 73, 50
8, 18088, Note_on_c, 6, 70, 0
8, 18187, Note_on_c, 6, 77, 50
8, 18193, Note_on_c, 6, 73, 0
8, 18297, Note_on_c, 6, 77, 0
8, 18300, Note_on_c, 6, 69, 50
8, 18410, Note_on_c, 6, 69, 0
8, 18410, Note_on_c, 6, 70, 50
8, 18610, Note_on_c, 6, 70, 0
8, 18636, Note_on_c, 6, 70, 50
8, 18741, Note_on_c, 6, 67, 50
8, 18746, Note_on_c, 6, 70, 0
8, 18850, Note_on_c, 6, 68, 50
8, 18851, Note_on_c, 6, 67, 0
8, 18960, Note_on_c, 6, 68, 0
8, 20790, Note_on_c, 6, 72, 50
8, 20790, Note_on_c, 6, 68, 50
8, 20900, Note_on_c, 6, 68, 0
8, 20900, Note_on_c, 6, 72, 0
8, 20902, Note_on_c, 6, 75, 50
8, 20902, Note_on_c, 6, 67, 50
8, 21012, Note_on_c, 6, 67, 0
8, 21012, Note_on_c, 6, 75, 0
8, 21014, Note_on_c, 6, 74, 50
8, 21014, Note_on_c, 6, 68, 50
8, 21124, Note_on_c, 6, 68, 0
8, 21124, Note_on_c, 6, 74, 0
8, 21126, Note_on_c, 6, 75, 50
8, 21126, Note_on_c, 6, 67, 50
8, 21236, Note_on_c, 6, 67, 0
8, 21236, Note_on_c, 6, 75, 0
8, 21354, Note_on_c, 6, 65, 60
8, 21801, Note_on_c, 6, 63, 65
8, 21809, Note_on_c, 6, 65, 0
8, 21911, Note_on_c, 6, 63, 0
8, 22245, Note_on_c, 6, 61, 65
8, 22345, Note_on_c, 6, 61, 0
8, 22460, Note_on_c, 6, 60, 65
8, 22570, Note_on_c, 6, 60, 0
8, 24000, Control_c, 6, 11, 60
8, 24115, Note_on_c, 6, 73, 75
8, 24115, Note_on_c, 6, 70, 55
8, 24181, Note_on_c, 6, 70, 0
8, 24181, Note_on_c, 6, 73, 0
8, 24198, Note_on_c, 6, 73, 75
8, 24198, Note_on_c, 6, 70, 55
8, 24224, Note_on_c, 6, 72, 70
8, 24224, Note_on_c, 6, 68, 50
8, 24230, Note_on_c, 6, 70, 0
8, 24230, Note_on_c, 6, 73, 0
8, 24333, Note_on_c, 6, 73, 75
8, 24333, Note_on_c, 6, 70, 55
8, 24338, Note_on_c, 6, 72, 0
8, 24338, Note_on_c, 6, 68, 0
8, 24443, Note_on_c, 6, 73, 0
8, 24443, Note_on_c, 6, 70, 0
8, 24444, Note_on_c, 6, 72, 75
8, 24444, Note_on_c, 6, 68, 55
8, 24546, Note_on_c, 6, 70, 45
8, 24546, Note_on_c, 6, 63, 45
8, 24551, Note_on_c, 6, 68, 0
8, 24551, Note_on_c, 6, 72, 0
8, 24649, Note_on_c, 6, 68, 45
8, 24649, Note_on_c, 6, 65, 45
8, 24653, Note_on_c, 6, 70, 0
8, 24653, Note_on_c, 6, 63, 0
8, 24761, Note_on_c, 6, 65, 0
8, 24764, Note_on_c, 6, 61, 45
8, 24871, Note_on_c, 6, 61, 0
8, 24871, Note_on_c, 6, 67, 45
8, 24871, Note_on_c, 6, 63, 45
8, 24874, Note_on_c, 6, 68, 0
8, 24978, Note_on_c, 6, 63, 0
8, 24978, Note_on_c, 6, 67, 0
8, 24983, Note_on_c, 6, 70, 45
8, 24983, Note_on_c, 6, 64, 55
8, 25090, Note_on_c, 6, 64, 0
8, 25090, Note_on_c, 6, 70, 0
8, 25095, Note_on_c, 6, 72, 55
8, 25095, Note_on_c, 6, 63, 55
8, 25202, Note_on_c, 6, 63, 0
8, 25202, Note_on_c, 6, 72, 0
8, 25761, Note_on_c, 6, 67, 60
8, 25981, Note_on_c, 6, 67, 0
8, 25988, Note_on_c, 6, 72, 60
8, 25988, Note_on_c, 6, 65, 60
8, 26199, Note_on_c, 6, 70, 60
8, 26208, Note_on_c, 6, 72, 0
8, 26307, Note_on_c, 6, 63, 60
8, 26313, Note_on_c, 6, 65, 0
8, 26419, Note_on_c, 6, 70, 0
8, 26419, Note_on_c, 6, 68, 60
8, 26529, Note_on_c, 6, 67, 60
8, 26534, Note_on_c, 6, 68, 0
8, 26629, Note_on_c, 6, 67, 0
8, 26653, Note_on_c, 6, 65, 60
8, 26653, Note_on_c, 6, 61, 60
8, 26657, Note_on_c, 6, 63, 0
8, 26869, Note_on_c, 6, 67, 60
8, 27064, Note_on_c, 6, 67, 0
8, 27073, Note_on_c, 6, 61, 0
8, 27073, Note_on_c, 6, 65, 0
8, 27085, Note_on_c, 6, 67, 60
8, 27085, Note_on_c, 6, 64, 60
8, 27285, Note_on_c, 6, 64, 0
8, 27285, Note_on_c, 6, 67, 0
8, 27295, Note_on_c, 6, 65, 60
8, 27395, Note_on_c, 6, 65, 0
8, 27411, Note_on_c, 6, 68, 60
8, 27411, Note_on_c, 6, 65, 45
8, 27511, Note_on_c, 6, 65, 0
8, 27511, Note_on_c, 6, 68, 0
8, 27521, Note_on_c, 6, 70, 60
8, 27521, Note_on_c, 6, 65, 45
8, 27621, Note_on_c, 6, 65, 0
8, 27633, Note_on_c, 6, 67, 60
8, 27733, Note_on_c, 6, 67, 0
8, 27741, Note_on_c, 6, 70, 0
8, 27743, Note_on_c, 6, 68, 60
8, 27743, Note_on_c, 6, 65, 45
8, 27843, Note_on_c, 6, 65, 0
8, 27843, Note_on_c, 6, 68, 0
8, 28320, Control_c, 6, 11, 40
8, 28405, Note_on_c, 6, 77, 60
8, 28510, Note_on_c, 6, 75, 57
8, 28517, Note_on_c, 6, 77, 0
8, 28564, Note_on_c, 6, 73, 54
8, 28575, Note_on_c, 6, 75, 0
8, 28614, Note_on_c, 6, 72, 51
8, 28624, Note_on_c, 6, 73, 0
8, 28668, Note_on_c, 6, 70, 48
8, 28674, Note_on_c, 6, 72, 0
8, 28726, Note_on_c, 6, 73, 46
8, 28733, Note_on_c, 6, 70, 0
8, 28778, Note_on_c, 6, 70, 44
8, 28791, Note_on_c, 6, 73, 0
8, 28840, Note_on_c, 6, 65, 40
8, 28848, Note_on_c, 6, 70, 0
8, 28980, Note_on_c, 6, 65, 0
8, 29295, Note_on_c, 6, 77, 60
8, 29406, Note_on_c, 6, 75, 57
8, 29415, Note_on_c, 6, 77, 0
8, 29457, Note_on_c, 6, 73, 54
8, 29471, Note_on_c, 6, 75, 0
8, 29511, Note_on_c, 6, 72, 51
8, 29522, Note_on_c, 6, 73, 0
8, 29562, Note_on_c, 6, 70, 48
8, 29576, Note_on_c, 6, 72, 0
8, 29620, Note_on_c, 6, 73, 46
8, 29627, Note_on_c, 6, 70, 0
8, 29674, Note_on_c, 6, 70, 44
8, 29685, Note_on_c, 6, 73, 0
8, 29739, Note_on_c, 6, 67, 40
8, 29744, Note_on_c, 6, 70, 0
8, 29879, Note_on_c, 6, 67, 0
8, 94780, Control_c, 6, 11, 55
8, 94780, Note_on_c, 6, 67, 70
8, 94780, Note_on_c, 6, 63, 60
8, 94890, Note_on_c, 6, 67, 0
8, 94940, Note_on_c, 6, 68, 60
8, 94945, Note_on_c, 6, 63, 0
8, 95050, Note_on_c, 6, 68, 0
8, 95100, Note_on_c, 6, 69, 62
8, 95100, Note_on_c, 6, 63, 50
8, 95170, Note_on_c, 6, 63, 0
8, 95170, Note_on_c, 6, 69, 0
8, 95180, Note_on_c, 6, 69, 65
8, 95180, Note_on_c, 6, 63, 50
8, 95230, Note_on_c, 6, 63, 0
8, 95230, Note_on_c, 6, 69, 0
8, 95240, Note_on_c, 6, 69, 68
8, 95240, Note_on_c, 6, 63, 50
8, 95256, Note_on_c, 6, 63, 0
8, 95256, Note_on_c, 6, 69, 0
8, 95260, Note_on_c, 6, 62, 55
8, 95260, Note_on_c, 6, 69, 70
8, 95340, Note_on_c, 6, 67, 60
8, 95350, Note_on_c, 6, 69, 0
8, 95410, Note_on_c, 6, 67, 0
8, 95410, Note_on_c, 6, 62, 0
8, 95420, Note_on_c, 6, 67, 60
8, 95420, Note_on_c, 6, 62, 50
8, 95720, Note_on_c, 6, 62, 0
8, 95720, Note_on_c, 6, 67, 0
8, 95740, Note_on_c, 6, 67, 58
8, 95740, Note_on_c, 6, 61, 50
8, 95810, Note_on_c, 6, 61, 0
8, 95810, Note_on_c, 6, 67, 0
8, 95820, Note_on_c, 6, 67, 58
8, 95820, Note_on_c, 6, 61, 45
8, 95870, Note_on_c, 6, 61, 0
8, 95870, Note_on_c, 6, 67, 0
8, 95880, Note_on_c, 6, 67, 58
8, 95880, Note_on_c, 6, 61, 45
8, 95896, Note_on_c, 6, 61, 0
8, 95896, Note_on_c, 6, 67, 0
8, 95900, Note_on_c, 6, 60, 50
8, 95900, Note_on_c, 6, 67, 58
8, 95980, Note_on_c, 6, 65, 58
8, 95990, Note_on_c, 6, 67, 0
8, 96050, Note_on_c, 6, 65, 0
8, 96060, Note_on_c, 6, 60, 0
8, 96060, Note_on_c, 6, 65, 58
8, 96060, Note_on_c, 6, 60, 50
8, 96370, Note_on_c, 6, 60, 0
8, 96370, Note_on_c, 6, 65, 0
8, 96380, Note_on_c, 6, 65, 55
8, 96380, Note_on_c, 6, 62, 50
8, 96410, Note_on_c, 6, 62, 0
8, 96410, Note_on_c, 6, 65, 0
8, 96420, Note_on_c, 6, 68, 70
8, 96420, Note_on_c, 6, 65, 60
8, 96500, Note_on_c, 6, 67, 60
8, 96500, Note_on_c, 6, 63, 50
8, 96510, Note_on_c, 6, 65, 0
8, 96510, Note_on_c, 6, 68, 0
8, 96540, Note_on_c, 6, 65, 60
8, 96545, Note_on_c, 6, 67, 0
8, 96545, Note_on_c, 6, 63, 0
8, 96580, Note_on_c, 6, 68, 70
8, 96580, Note_on_c, 6, 65, 60
8, 96585, Note_on_c, 6, 65, 0
8, 96660, Note_on_c, 6, 67, 60
8, 96660, Note_on_c, 6, 63, 50
8, 96665, Note_on_c, 6, 68, 0
8, 96665, Note_on_c, 6, 65, 0
8, 96700, Note_on_c, 6, 70, 60
8, 96700, Note_on_c, 6, 64, 50
8, 96705, Note_on_c, 6, 67, 0
8, 96705, Note_on_c, 6, 63, 0
8, 96740, Note_on_c, 6, 73, 70
8, 96740, Note_on_c, 6, 70, 60
8, 96745, Note_on_c, 6, 70, 0
8, 96745, Note_on_c, 6, 64, 0
8, 96820, Note_on_c, 6, 72, 60
8, 96820, Note_on_c, 6, 68, 50
8, 96830, Note_on_c, 6, 73, 0
8, 96830, Note_on_c, 6, 70, 0
8, 96860, Note_on_c, 6, 70, 60
8, 96865, Note_on_c, 6, 72, 0
8, 96865, Note_on_c, 6, 68, 0
8, 96890, Note_on_c, 6, 70, 0
8, 96900, Note_on_c, 6, 70, 70
8, 96900, Note_on_c, 6, 67, 60
8, 96980, Note_on_c, 6, 72, 60
8, 96980, Note_on_c, 6, 68, 50
8, 96990, Note_on_c, 6, 67, 0
8, 96990, Note_on_c, 6, 70, 0
8, 97010, Note_on_c, 6, 68, 0
8, 97020, Note_on_c, 6, 68, 60
8, 97020, Note_on_c, 6, 65, 50
8, 97025, Note_on_c, 6, 72, 0
8, 97090, Note_on_c, 6, 65, 0
8, 97100, Note_on_c, 6, 67, 60
8, 97100, Note_on_c, 6, 63, 50
8, 97110, Note_on_c, 6, 68, 0
8, 97170, Note_on_c, 6, 63, 0
8, 97170, Note_on_c, 6, 67, 0
8, 97170, Control_c, 6, 11, 50
8, 97180, Note_on_c, 6, 79, 70
8, 97300, Note_on_c, 6, 75, 70
8, 97315, Note_on_c, 6, 79, 0
8, 97340, Note_on_c, 6, 72, 70
8, 97350, Note_on_c, 6, 75, 0
8, 97420, Note_on_c, 6, 71, 68
8, 97420, Note_on_c, 6, 65, 45
8, 97430, Note_on_c, 6, 72, 0
8, 97500, Note_on_c, 6, 72, 66
8, 97500, Note_on_c, 6, 63, 45
8, 97510, Note_on_c, 6, 65, 0
8, 97510, Note_on_c, 6, 71, 0
8, 97580, Note_on_c, 6, 68, 66
8, 97580, Note_on_c, 6, 62, 45
8, 97590, Note_on_c, 6, 72, 0
8, 97590, Note_on_c, 6, 63, 0
8, 97650, Note_on_c, 6, 62, 0
8, 97660, Note_on_c, 6, 67, 63
8, 97660, Note_on_c, 6, 62, 43
8, 97670, Note_on_c, 6, 68, 0
8, 97780, Note_on_c, 6, 62, 0
8, 97780, Note_on_c, 6, 67, 0
8, 97800, Control_c, 6, 11, 70
8, 97900, Note_on_c, 6, 79, 70
8, 97960, Note_on_c, 6, 75, 70
8, 97970, Note_on_c, 6, 79, 0
8, 97980, Note_on_c, 6, 72, 70
8, 97985, Note_on_c, 6, 75, 0
8, 98060, Note_on_c, 6, 71, 68
8, 98070, Note_on_c, 6, 72, 0
8, 98140, Note_on_c, 6, 72, 66
8, 98150, Note_on_c, 6, 71, 0
8, 98220, Note_on_c, 6, 68, 64
8, 98230, Note_on_c, 6, 72, 0
8, 98300, Note_on_c, 6, 67, 60
8, 98310, Note_on_c, 6, 68, 0
8, 98420, Note_on_c, 6, 67, 0
8, 99900, Control_c, 6, 11, 60
8, 99900, Note_on_c, 6, 79, 60
8, 99900, Note_on_c, 6, 67, 60
8, 99980, Note_on_c, 6, 77, 60
8, 99980, Note_on_c, 6, 74, 50
8, 99985, Note_on_c, 6, 67, 0
8, 99985, Note_on_c, 6, 79, 0
8, 100035, Note_on_c, 6, 77, 0
8, 100035, Note_on_c, 6, 74, 0
8, 100040, Note_on_c, 6, 75, 60
8, 100040, Note_on_c, 6, 72, 50
8, 100056, Note_on_c, 6, 72, 0
8, 100056, Note_on_c, 6, 75, 0
8, 100060, Note_on_c, 6, 73, 60
8, 100060, Note_on_c, 6, 70, 50
8, 100115, Note_on_c, 6, 70, 0
8, 100115, Note_on_c, 6, 73, 0
8, 100120, Note_on_c, 6, 72, 60
8, 100120, Note_on_c, 6, 68, 50
8, 100136, Note_on_c, 6, 68, 0
8, 100136, Note_on_c, 6, 72, 0
8, 100140, Note_on_c, 6, 70, 60
8, 100140, Note_on_c, 6, 67, 50
8, 100195, Note_on_c, 6, 67, 0
8, 100195, Note_on_c, 6, 70, 0
8, 100200, Note_on_c, 6, 68, 60
8, 100200, Note_on_c, 6, 65, 50
8, 100216, Note_on_c, 6, 65, 0
8, 100216, Note_on_c, 6, 68, 0
8, 100220, Note_on_c, 6, 68, 60
8, 100220, Note_on_c, 6, 65, 50
8, 100255, Note_on_c, 6, 65, 0
8, 100255, Note_on_c, 6, 68, 0
8, 100260, Note_on_c, 6, 67, 60
8, 100260, Note_on_c, 6, 63, 50
8, 100295, Note_on_c, 6, 63, 0
8, 100295, Note_on_c, 6, 67, 0
8, 100300, Note_on_c, 6, 65, 60
8, 100300, Note_on_c, 6, 62, 50
8, 100335, Note_on_c, 6, 62, 0
8, 100335, Note_on_c, 6, 65, 0
8, 100340, Note_on_c, 6, 63, 60
8, 100340, Note_on_c, 6, 60, 50
8, 100375, Note_on_c, 6, 60, 0
8, 100375, Note_on_c, 6, 63, 0
8, 100380, Note_on_c, 6, 61, 60
8, 100415, Note_on_c, 6, 61, 0
8, 100420, Note_on_c, 6, 60, 60
8, 100525, Note_on_c, 6, 60, 0
8, 101280, Control_c, 6, 11, 50
8, 101400, Note_on_c, 6, 72, 70
8, 101416, Note_on_c, 6, 72, 0
8, 101420, Note_on_c, 6, 64, 70
8, 101480, Note_on_c, 6, 65, 70
8, 101485, Note_on_c, 6, 64, 0
8, 101496, Note_on_c, 6, 65, 0
8, 101500, Note_on_c, 6, 67, 70
8, 101560, Note_on_c, 6, 68, 70
8, 101565, Note_on_c, 6, 67, 0
8, 101576, Note_on_c, 6, 68, 0
8, 101580, Note_on_c, 6, 62, 70
8, 101640, Note_on_c, 6, 63, 70
8, 101645, Note_on_c, 6, 62, 0
8, 101656, Note_on_c, 6, 63, 0
8, 101660, Note_on_c, 6, 65, 70
8, 101740, Note_on_c, 6, 63, 70
8, 101745, Note_on_c, 6, 65, 0
8, 101780, Note_on_c, 6, 62, 70
8, 101785, Note_on_c, 6, 63, 0
8, 101820, Note_on_c, 6, 60, 70
8, 101825, Note_on_c, 6, 62, 0
8, 101900, Note_on_c, 6, 60, 0
8, 107089, Note_on_c, 6, 76, 70
8, 107112, Note_on_c, 6, 76, 0
8, 107117, Note_on_c, 6, 68, 70
8, 107206, Note_on_c, 6, 69, 70
8, 107210, Note_on_c, 6, 68, 0
8, 107242, Note_on_c, 6, 71, 70
8, 107246, Note_on_c, 6, 69, 0
8, 107650, Note_on_c, 6, 68, 70
8, 107657, Note_on_c, 6, 71, 0
8, 107712, Note_on_c, 6, 69, 70
8, 107715, Note_on_c, 6, 68, 0
8, 107783, Note_on_c, 6, 71, 70
8, 107787, Note_on_c, 6, 69, 0
8, 108143, Note_on_c, 6, 71, 0
8, 108144, Note_on_c, 6, 76, 70
8, 108174, Note_on_c, 6, 76, 0
8, 108180, Note_on_c, 6, 68, 70
8, 108277, Note_on_c, 6, 69, 70
8, 108280, Note_on_c, 6, 68, 0
8, 108313, Note_on_c, 6, 69, 0
8, 108318, Note_on_c, 6, 71, 70
8, 108598, Note_on_c, 6, 71, 0
8, 112376, Note_on_c, 6, 77, 70
8, 112685, Note_on_c, 6, 75, 65
8, 112691, Note_on_c, 6, 77, 0
8, 112767, Note_on_c, 6, 73, 60
8, 112775, Note_on_c, 6, 75, 0
8, 112850, Note_on_c, 6, 72, 55
8, 112857, Note_on_c, 6, 73, 0
8, 113046, Note_on_c, 6, 70, 50
8, 113050, Note_on_c, 6, 72, 0
8, 113196, Note_on_c, 6, 70, 0
8, 113215, Note_on_c, 6, 70, 50
8, 113557, Note_on_c, 6, 66, 50
8, 113565, Note_on_c, 6, 70, 0
8, 113757, Note_on_c, 6, 66, 0
8, 115711, Note_on_c, 6, 78, 70
8, 115848, Note_on_c, 6, 75, 70
8, 115851, Note_on_c, 6, 78, 0
8, 115919, Note_on_c, 6, 72, 70
8, 115928, Note_on_c, 6, 75, 0
8, 115985, Note_on_c, 6, 69, 70
8, 115989, Note_on_c, 6, 72, 0
8, 116055, Note_on_c, 6, 63, 70
8, 116060, Note_on_c, 6, 69, 0
8, 116154, Note_on_c, 6, 65, 70
8, 116160, Note_on_c, 6, 63, 0
8, 116190, Note_on_c, 6, 66, 70
8, 116194, Note_on_c, 6, 65, 0
8, 116310, Note_on_c, 6, 66, 0
8, 117886, Note_on_c, 6, 73, 70
8, 118019, Note_on_c, 6, 70, 70
8, 118026, Note_on_c, 6, 73, 0
8, 118088, Note_on_c, 6, 67, 70
8, 118099, Note_on_c, 6, 70, 0
8, 118152, Note_on_c, 6, 64, 70
8, 118158, Note_on_c, 6, 67, 0
8, 118221, Note_on_c, 6, 58, 70
8, 118227, Note_on_c, 6, 64, 0
8, 118320, Note_on_c, 6, 60, 70
8, 118326, Note_on_c, 6, 58, 0
8, 118356, Note_on_c, 6, 61, 70
8, 118360, Note_on_c, 6, 60, 0
8, 118476, Note_on_c, 6, 61, 0
8, 121162, Note_on_c, 6, 73, 70
8, 121304, Note_on_c, 6, 65, 70
8, 121310, Note_on_c, 6, 73, 0
8, 121375, Note_on_c, 6, 68, 70
8, 121383, Note_on_c, 6, 65, 0
8, 121510, Note_on_c, 6, 67, 70
8, 121515, Note_on_c, 6, 68, 0
8, 121577, Note_on_c, 6, 65, 70
8, 121585, Note_on_c, 6, 67, 0
8, 121649, Note_on_c, 6, 60, 70
8, 121657, Note_on_c, 6, 65, 0
8, 121889, Note_on_c, 6, 60, 0
8, 126748, Note_on_c, 6, 73, 60
8, 127033, Note_on_c, 6, 65, 60
8, 127040, Note_on_c, 6, 73, 0
8, 127178, Note_on_c, 6, 66, 55
8, 127183, Note_on_c, 6, 65, 0
8, 127395, Note_on_c, 6, 58, 55
8, 127398, Note_on_c, 6, 66, 0
8, 127465, Note_on_c, 6, 61, 55
8, 127590, Note_on_c, 6, 58, 0
8, 128018, Note_on_c, 6, 59, 55
8, 128025, Note_on_c, 6, 61, 0
8, 128118, Note_on_c, 6, 59, 0
8, 128843, Note_on_c, 6, 68, 55
8, 129122, Note_on_c, 6, 65, 55
8, 129131, Note_on_c, 6, 68, 0
8, 129652, Note_on_c, 6, 65, 0
8, 132262, Note_on_c, 6, 72, 55
8, 132322, Note_on_c, 6, 67, 55
8, 132382, Note_on_c, 6, 68, 55
8, 132387, Note_on_c, 6, 67, 0
8, 132447, Note_on_c, 6, 68, 0
8, 132492, Note_on_c, 6, 72, 0
8, 132502, Note_on_c, 6, 72, 55
8, 132562, Note_on_c, 6, 67, 55
8, 132622, Note_on_c, 6, 68, 55
8, 132627, Note_on_c, 6, 67, 0
8, 132687, Note_on_c, 6, 68, 0
8, 132732, Note_on_c, 6, 72, 0
8, 132742, Note_on_c, 6, 72, 55
8, 132802, Note_on_c, 6, 67, 55
8, 132862, Note_on_c, 6, 65, 55
8, 132867, Note_on_c, 6, 67, 0
8, 132982, Note_on_c, 6, 71, 55
8, 132992, Note_on_c, 6, 72, 0
8, 133102, Note_on_c, 6, 72, 55
8, 133102, Note_on_c, 6, 64, 55
8, 133112, Note_on_c, 6, 71, 0
8, 133112, Note_on_c, 6, 65, 0
8, 133167, Note_on_c, 6, 72, 0
8, 133222, Note_on_c, 6, 72, 55
8, 133282, Note_on_c, 6, 67, 55
8, 133287, Note_on_c, 6, 64, 0
8, 133342, Note_on_c, 6, 68, 55
8, 133347, Note_on_c, 6, 67, 0
8, 133452, Note_on_c, 6, 72, 0
8, 133462, Note_on_c, 6, 72, 55
8, 133472, Note_on_c, 6, 68, 0
8, 133522, Note_on_c, 6, 67, 55
8, 133582, Note_on_c, 6, 68, 55
8, 133587, Note_on_c, 6, 67, 0
8, 133692, Note_on_c, 6, 72, 0
8, 133702, Note_on_c, 6, 72, 55
8, 133712, Note_on_c, 6, 68, 0
8, 133762, Note_on_c, 6, 67, 55
8, 133822, Note_on_c, 6, 65, 55
8, 133827, Note_on_c, 6, 67, 0
8, 133887, Note_on_c, 6, 65, 0
8, 133942, Note_on_c, 6, 71, 55
8, 133952, Note_on_c, 6, 72, 0
8, 134062, Note_on_c, 6, 72, 55
8, 134062, Note_on_c, 6, 64, 55
8, 134072, Note_on_c, 6, 71, 0
8, 134172, Note_on_c, 6, 64, 0
8, 134172, Note_on_c, 6, 72, 0
8, 134182, Note_on_c, 6, 72, 55
8, 134242, Note_on_c, 6, 67, 55
8, 134302, Note_on_c, 6, 68, 55
8, 134307, Note_on_c, 6, 67, 0
8, 134412, Note_on_c, 6, 72, 0
8, 134422, Note_on_c, 6, 72, 55
8, 134482, Note_on_c, 6, 67, 55
8, 134487, Note_on_c, 6, 68, 0
8, 134532, Note_on_c, 6, 72, 0
8, 134542, Note_on_c, 6, 72, 55
8, 134542, Note_on_c, 6, 65, 55
8, 134547, Note_on_c, 6, 67, 0
8, 134652, Note_on_c, 6, 65, 0
8, 134662, Note_on_c, 6, 65, 55
8, 134782, Note_on_c, 6, 70, 55
8, 134792, Note_on_c, 6, 72, 0
8, 134847, Note_on_c, 6, 70, 0
8, 134892, Note_on_c, 6, 65, 0
8, 134902, Note_on_c, 6, 73, 55
8, 134902, Note_on_c, 6, 65, 55
8, 135012, Note_on_c, 6, 65, 0
8, 135012, Note_on_c, 6, 73, 0
8, 135022, Note_on_c, 6, 73, 55
8, 135022, Note_on_c, 6, 67, 55
8, 135142, Note_on_c, 6, 65, 55
8, 135152, Note_on_c, 6, 67, 0
8, 135202, Note_on_c, 6, 63, 55
8, 135207, Note_on_c, 6, 65, 0
8, 135252, Note_on_c, 6, 63, 0
8, 135262, Note_on_c, 6, 72, 55
8, 135262, Note_on_c, 6, 63, 55
8, 135272, Note_on_c, 6, 73, 0
8, 135322, Note_on_c, 6, 75, 55
8, 135327, Note_on_c, 6, 72, 0
8, 135382, Note_on_c, 6, 76, 55
8, 135382, Note_on_c, 6, 64, 55
8, 135387, Note_on_c, 6, 75, 0
8, 135392, Note_on_c, 6, 63, 0
8, 135502, Note_on_c, 6, 77, 55
8, 135502, Note_on_c, 6, 65, 55
8, 135512, Note_on_c, 6, 76, 0
8, 135512, Note_on_c, 6, 64, 0
8, 135622, Note_on_c, 6, 79, 55
8, 135622, Note_on_c, 6, 67, 55
8, 135632, Note_on_c, 6, 77, 0
8, 135632, Note_on_c, 6, 65, 0
8, 135742, Note_on_c, 6, 80, 55
8, 135742, Note_on_c, 6, 68, 55
8, 135752, Note_on_c, 6, 79, 0
8, 135752, Note_on_c, 6, 67, 0
8, 135922, Note_on_c, 6, 77, 55
8, 135927, Note_on_c, 6, 80, 0
8, 135972, Note_on_c, 6, 77, 0
8, 135982, Note_on_c, 6, 77, 55
8, 135982, Note_on_c, 6, 70, 55
8, 135992, Note_on_c, 6, 68, 0
8, 136032, Note_on_c, 6, 70, 0
8, 136032, Note_on_c, 6, 77, 0
8, 136072, Note_on_c, 6, 77, 55
8, 136072, Note_on_c, 6, 67, 55
8, 136094, Note_on_c, 6, 67, 0
8, 136094, Note_on_c, 6, 77, 0
8, 136102, Note_on_c, 6, 77, 55
8, 136102, Note_on_c, 6, 67, 55
8, 136152, Note_on_c, 6, 67, 0
8, 136152, Note_on_c, 6, 77, 0
8, 136312, Note_on_c, 6, 77, 55
8, 136312, Note_on_c, 6, 67, 55
8, 136334, Note_on_c, 6, 67, 0
8, 136334, Note_on_c, 6, 77, 0
8, 136342, Note_on_c, 6, 77, 55
8, 136342, Note_on_c, 6, 67, 55
8, 136392, Note_on_c, 6, 67, 0
8, 136392, Note_on_c, 6, 77, 0
8, 136552, Note_on_c, 6, 76, 55
8, 136552, Note_on_c, 6, 67, 55
8, 136574, Note_on_c, 6, 67, 0
8, 136574, Note_on_c, 6, 76, 0
8, 136582, Note_on_c, 6, 76, 55
8, 136582, Note_on_c, 6, 67, 55
8, 136632, Note_on_c, 6, 67, 0
8, 136632, Note_on_c, 6, 76, 0
8, 136792, Note_on_c, 6, 71, 55
8, 136792, Note_on_c, 6, 65, 55
8, 136814, Note_on_c, 6, 65, 0
8, 136814, Note_on_c, 6, 71, 0
8, 136822, Note_on_c, 6, 71, 55
8, 136822, Note_on_c, 6, 65, 55
8, 136855, Note_on_c, 6, 65, 0
8, 136855, Note_on_c, 6, 71, 0
8, 136912, Note_on_c, 6, 71, 55
8, 136912, Note_on_c, 6, 65, 55
8, 136942, Note_on_c, 6, 72, 55
8, 136942, Note_on_c, 6, 64, 55
8, 136947, Note_on_c, 6, 65, 0
8, 136947, Note_on_c, 6, 71, 0
8, 136992, Note_on_c, 6, 72, 0
8, 136992, Note_on_c, 6, 64, 0
8, 177816, Control_c, 6, 11, 55
8, 177816, Note_on_c, 6, 76, 55
8, 177816, Note_on_c, 6, 70, 55
8, 178381, Control_c, 6, 11, 60
8, 178381, Note_on_c, 6, 77, 70
8, 178381, Note_on_c, 6, 68, 70
8, 178386, Note_on_c, 6, 70, 0
8, 178386, Note_on_c, 6, 76, 0
8, 178611, Note_on_c, 6, 77, 0
8, 178611, Note_on_c, 6, 68, 0
8, 178621, Note_on_c, 6, 68, 70
8, 178621, Note_on_c, 6, 65, 70
8, 178851, Note_on_c, 6, 65, 0
8, 178851, Note_on_c, 6, 68, 0
8, 178861, Note_on_c, 6, 68, 70
8, 178861, Note_on_c, 6, 65, 70
8, 179331, Note_on_c, 6, 65, 0
8, 179331, Note_on_c, 6, 68, 0
8, 179341, Note_on_c, 6, 68, 70
8, 179341, Note_on_c, 6, 65, 70
8, 179811, Note_on_c, 6, 65, 0
8, 179811, Note_on_c, 6, 68, 0
8, 179821, Note_on_c, 6, 68, 70
8, 179821, Note_on_c, 6, 65, 70
8, 180051, Note_on_c, 6, 65, 0
8, 180051, Note_on_c, 6, 68, 0
8, 180061, Note_on_c, 6, 80, 70
8, 180291, Note_on_c, 6, 80, 0
8, 180301, Note_on_c, 6, 80, 70
8, 180301, Note_on_c, 6, 65, 70
8, 180411, Note_on_c, 6, 65, 0
8, 180411, Note_on_c, 6, 80, 0
8, 180421, Note_on_c, 6, 80, 65
8, 180421, Note_on_c, 6, 65, 40
8, 180661, Note_on_c, 6, 79, 60
8, 180661, Note_on_c, 6, 67, 50
8, 180671, Note_on_c, 6, 65, 0
8, 180671, Note_on_c, 6, 80, 0
8, 180721, Note_on_c, 6, 77, 50
8, 180721, Note_on_c, 6, 68, 40
8, 180726, Note_on_c, 6, 79, 0
8, 180726, Note_on_c, 6, 67, 0
8, 180781, Note_on_c, 6, 76, 50
8, 180781, Note_on_c, 6, 67, 40
8, 180786, Note_on_c, 6, 77, 0
8, 180786, Note_on_c, 6, 68, 0
8, 180831, Note_on_c, 6, 76, 0
8, 180831, Note_on_c, 6, 67, 0
8, 180901, Note_on_c, 6, 76, 50
8, 180901, Note_on_c, 6, 67, 40
8, 180951, Note_on_c, 6, 67, 0
8, 180951, Note_on_c, 6, 76, 0
8, 181021, Note_on_c, 6, 77, 50
8, 181021, Note_on_c, 6, 68, 40
8, 181071, Note_on_c, 6, 68, 0
8, 181071, Note_on_c, 6, 77, 0
8, 182551, Control_c, 6, 11, 80
8, 182551, Note_on_c, 6, 67, 70
8, 182551, Note_on_c, 6, 64, 70
8, 182601, Note_on_c, 6, 64, 0
8, 182601, Note_on_c, 6, 67, 0
8, 182671, Note_on_c, 6, 68, 70
8, 182671, Note_on_c, 6, 65, 70
8, 182721, Note_on_c, 6, 65, 0
8, 182721, Note_on_c, 6, 68, 0
8, 183031, Note_on_c, 6, 67, 70
8, 183031, Note_on_c, 6, 64, 70
8, 183081, Note_on_c, 6, 64, 0
8, 183081, Note_on_c, 6, 67, 0
8, 183151, Note_on_c, 6, 68, 70
8, 183151, Note_on_c, 6, 65, 70
8, 183201, Note_on_c, 6, 65, 0
8, 183201, Note_on_c, 6, 68, 0
8, 183391, Note_on_c, 6, 72, 80
8, 183391, Note_on_c, 6, 68, 80
8, 183441, Note_on_c, 6, 68, 0
8, 183441, Note_on_c, 6, 72, 0
8, 183631, Note_on_c, 6, 65, 80
8, 184111, Note_on_c, 6, 65, 0
8, 184664, Control_c, 6, 121, 0
8, 184664, End_track
9, 0, Start_track
9, 0, MIDI_port, 0
9, 0, Title_t, "Bassoon"
9, 0, Program_c, 7, 70
9, 0, Control_c, 7, 7, 127
9, 0, Control_c, 7, 10, 100
9, 50, Control_c, 7, 121, 0
9, 100, Control_c, 7, 91, 100
9, 110, Control_c, 7, 11, 90
9, 2108, Note_on_c, 7, 49, 80
9, 2178, Note_on_c, 7, 49, 0
9, 2217, Note_on_c, 7, 48, 80
9, 2267, Note_on_c, 7, 48, 0
9, 2555, Note_on_c, 7, 61, 80
9, 2555, Note_on_c, 7, 49, 80
9, 2625, Note_on_c, 7, 49, 0
9, 2625, Note_on_c, 7, 61, 0
9, 2658, Note_on_c, 7, 60, 80
9, 2658, Note_on_c, 7, 48, 80
9, 2708, Note_on_c, 7, 48, 0
9, 2708, Note_on_c, 7, 60, 0
9, 2969, Note_on_c, 7, 52, 80
9, 3050, Note_on_c, 7, 53, 80
9, 3059, Note_on_c, 7, 52, 0
9, 3075, Note_on_c, 7, 53, 0
9, 3077, Note_on_c, 7, 55, 80
9, 3186, Note_on_c, 7, 52, 80
9, 3189, Note_on_c, 7, 55, 0
9, 3290, Note_on_c, 7, 53, 80
9, 3296, Note_on_c, 7, 52, 0
9, 3350, Note_on_c, 7, 53, 0
9, 3361, Note_on_c, 7, 55, 80
9, 3388, Note_on_c, 7, 55, 0
9, 3388, Note_on_c, 7, 56, 80
9, 3508, Note_on_c, 7, 56, 0
9, 5400, Control_c, 7, 11, 45
9, 5425, Note_on_c, 7, 49, 60
9, 5872, Note_on_c, 7, 48, 60
9, 5880, Note_on_c, 7, 49, 0
9, 6036, Note_on_c, 7, 58, 60
9, 6081, Note_on_c, 7, 58, 0
9, 6089, Note_on_c, 7, 56, 60
9, 6108, Note_on_c, 7, 48, 0
9, 6147, Note_on_c, 7, 58, 60
9, 6154, Note_on_c, 7, 56, 0
9, 6254, Note_on_c, 7, 56, 60
9, 6262, Note_on_c, 7, 58, 0
9, 6296, Note_on_c, 7, 56, 0
9, 6306, Note_on_c, 7, 59, 60
9, 6306, Note_on_c, 7, 47, 60
9, 6530, Note_on_c, 7, 62, 60
9, 6530, Note_on_c, 7, 50, 60
9, 6536, Note_on_c, 7, 47, 0
9, 6536, Note_on_c, 7, 59, 0
9, 6746, Note_on_c, 7, 63, 60
9, 6746, Note_on_c, 7, 51, 60
9, 6760, Note_on_c, 7, 62, 0
9, 6760, Note_on_c, 7, 50, 0
9, 6836, Note_on_c, 7, 51, 0
9, 6856, Note_on_c, 7, 51, 60
9, 6946, Note_on_c, 7, 51, 0
9, 6965, Note_on_c, 7, 51, 60
9, 6966, Note_on_c, 7, 63, 0
9, 7055, Note_on_c, 7, 51, 0
9, 7072, Note_on_c, 7, 52, 60
9, 7162, Note_on_c, 7, 52, 0
9, 7185, Note_on_c, 7, 53, 60
9, 7290, Note_on_c, 7, 51, 60
9, 7295, Note_on_c, 7, 53, 0
9, 7398, Note_on_c, 7, 50, 60
9, 7400, Note_on_c, 7, 51, 0
9, 7508, Note_on_c, 7, 50, 0
9, 7508, Note_on_c, 7, 49, 60
9, 7618, Note_on_c, 7, 49, 0
9, 7620, Note_on_c, 7, 48, 60
9, 7732, Note_on_c, 7, 60, 60
9, 7838, Note_on_c, 7, 58, 60
9, 7838, Note_on_c, 7, 46, 60
9, 7840, Note_on_c, 7, 48, 0
9, 7842, Note_on_c, 7, 60, 0
9, 7948, Note_on_c, 7, 58, 0
9, 7948, Note_on_c, 7, 46, 0
9, 7952, Note_on_c, 7, 56, 60
9, 7952, Note_on_c, 7, 44, 60
9, 8057, Note_on_c, 7, 55, 60
9, 8057, Note_on_c, 7, 43, 60
9, 8062, Note_on_c, 7, 44, 0
9, 8062, Note_on_c, 7, 56, 0
9, 8167, Note_on_c, 7, 55, 0
9, 8167, Note_on_c, 7, 43, 0
9, 9770, Note_on_c, 7, 58, 50
9, 9770, Note_on_c, 7, 46, 50
9, 9860, Note_on_c, 7, 46, 0
9, 9860, Note_on_c, 7, 58, 0
9, 9883, Note_on_c, 7, 58, 60
9, 9883, Note_on_c, 7, 46, 60
9, 10107, Note_on_c, 7, 57, 50
9, 10107, Note_on_c, 7, 45, 50
9, 10108, Note_on_c, 7, 46, 0
9, 10108, Note_on_c, 7, 58, 0
9, 10212, Note_on_c, 7, 56, 50
9, 10212, Note_on_c, 7, 44, 50
9, 10217, Note_on_c, 7, 57, 0
9, 10217, Note_on_c, 7, 45, 0
9, 10302, Note_on_c, 7, 56, 0
9, 10302, Note_on_c, 7, 44, 0
9, 10320, Note_on_c, 7, 56, 60
9, 10320, Note_on_c, 7, 44, 60
9, 10533, Note_on_c, 7, 55, 50
9, 10533, Note_on_c, 7, 43, 50
9, 10545, Note_on_c, 7, 44, 0
9, 10545, Note_on_c, 7, 56, 0
9, 10623, Note_on_c, 7, 55, 0
9, 10623, Note_on_c, 7, 43, 0
9, 10642, Note_on_c, 7, 54, 50
9, 10642, Note_on_c, 7, 42, 50
9, 10732, Note_on_c, 7, 42, 0
9, 10732, Note_on_c, 7, 54, 0
9, 10752, Note_on_c, 7, 54, 50
9, 10805, Note_on_c, 7, 53, 50
9, 10807, Note_on_c, 7, 54, 0
9, 10859, Note_on_c, 7, 51, 50
9, 10860, Note_on_c, 7, 53, 0
9, 11076, Note_on_c, 7, 50, 50
9, 11079, Note_on_c, 7, 51, 0
9, 11166, Note_on_c, 7, 50, 0
9, 11186, Note_on_c, 7, 49, 60
9, 11356, Note_on_c, 7, 49, 0
9, 11384, Note_on_c, 7, 49, 60
9, 11400, Control_c, 7, 11, 50
9, 11474, Note_on_c, 7, 49, 0
9, 11499, Note_on_c, 7, 48, 60
9, 11579, Note_on_c, 7, 48, 0
9, 11617, Note_on_c, 7, 60, 75
9, 11830, Note_on_c, 7, 48, 60
9, 11832, Note_on_c, 7, 60, 0
9, 11875, Note_on_c, 7, 48, 0
9, 11940, Note_on_c, 7, 47, 60
9, 11985, Note_on_c, 7, 47, 0
9, 12066, Note_on_c, 7, 59, 75
9, 12286, Note_on_c, 7, 59, 0
9, 12297, Note_on_c, 7, 47, 60
9, 12342, Note_on_c, 7, 47, 0
9, 12406, Note_on_c, 7, 46, 60
9, 12451, Note_on_c, 7, 46, 0
9, 12520, Note_on_c, 7, 58, 75
9, 12715, Note_on_c, 7, 58, 0
9, 12735, Note_on_c, 7, 58, 60
9, 12780, Note_on_c, 7, 58, 0
9, 12847, Note_on_c, 7, 56, 60
9, 12892, Note_on_c, 7, 56, 0
9, 12970, Note_on_c, 7, 44, 60
9, 13060, Note_on_c, 7, 44, 0
9, 15360, Control_c, 7, 11, 50
9, 15388, Note_on_c, 7, 53, 60
9, 15408, Note_on_c, 7, 44, 60
9, 15413, Note_on_c, 7, 53, 0
9, 15490, Note_on_c, 7, 46, 60
9, 15493, Note_on_c, 7, 44, 0
9, 15518, Note_on_c, 7, 48, 60
9, 15522, Note_on_c, 7, 46, 0
9, 15628, Note_on_c, 7, 48, 0
9, 15840, Control_c, 7, 11, 35
9, 15884, Note_on_c, 7, 60, 30
9, 16001, Note_on_c, 7, 58, 40
9, 16004, Note_on_c, 7, 60, 0
9, 16112, Note_on_c, 7, 51, 40
9, 16119, Note_on_c, 7, 58, 0
9, 16224, Note_on_c, 7, 56, 40
9, 16230, Note_on_c, 7, 51, 0
9, 16332, Note_on_c, 7, 48, 40
9, 16438, Note_on_c, 7, 49, 40
9, 16442, Note_on_c, 7, 48, 0
9, 16548, Note_on_c, 7, 49, 0
9, 16550, Note_on_c, 7, 55, 40
9, 16550, Note_on_c, 7, 51, 40
9, 16564, Note_on_c, 7, 56, 0
9, 16660, Note_on_c, 7, 51, 0
9, 16660, Note_on_c, 7, 55, 0
9, 16662, Note_on_c, 7, 56, 40
9, 16662, Note_on_c, 7, 44, 40
9, 16772, Note_on_c, 7, 44, 0
9, 16772, Note_on_c, 7, 56, 0
9, 16877, Note_on_c, 7, 55, 40
9, 16987, Note_on_c, 7, 55, 0
9, 16988, Note_on_c, 7, 63, 40
9, 16988, Note_on_c, 7, 51, 40
9, 17095, Note_on_c, 7, 56, 40
9, 17103, Note_on_c, 7, 51, 0
9, 17206, Note_on_c, 7, 65, 40
9, 17206, Note_on_c, 7, 53, 40
9, 17208, Note_on_c, 7, 63, 0
9, 17210, Note_on_c, 7, 56, 0
9, 17310, Note_on_c, 7, 58, 40
9, 17316, Note_on_c, 7, 65, 0
9, 17316, Note_on_c, 7, 53, 0
9, 17418, Note_on_c, 7, 62, 40
9, 17418, Note_on_c, 7, 46, 40
9, 17420, Note_on_c, 7, 58, 0
9, 17528, Note_on_c, 7, 46, 0
9, 17528, Note_on_c, 7, 62, 0
9, 17530, Note_on_c, 7, 63, 40
9, 17530, Note_on_c, 7, 51, 40
9, 17640, Note_on_c, 7, 51, 0
9, 17640, Note_on_c, 7, 63, 0
9, 17640, Note_on_c, 7, 61, 40
9, 17640, Note_on_c, 7, 55, 40
9, 17755, Note_on_c, 7, 55, 0
9, 17755, Note_on_c, 7, 61, 0
9, 17763, Note_on_c, 7, 60, 40
9, 17763, Note_on_c, 7, 57, 40
9, 17871, Note_on_c, 7, 53, 40
9, 17878, Note_on_c, 7, 57, 0
9, 17878, Note_on_c, 7, 60, 0
9, 17978, Note_on_c, 7, 58, 40
9, 17986, Note_on_c, 7, 53, 0
9, 18083, Note_on_c, 7, 53, 40
9, 18093, Note_on_c, 7, 58, 0
9, 18187, Note_on_c, 7, 57, 40
9, 18193, Note_on_c, 7, 53, 0
9, 18300, Note_on_c, 7, 53, 40
9, 18302, Note_on_c, 7, 57, 0
9, 18410, Note_on_c, 7, 53, 0
9, 18410, Note_on_c, 7, 58, 40
9, 18520, Note_on_c, 7, 56, 40
9, 18525, Note_on_c, 7, 58, 0
9, 18635, Note_on_c, 7, 56, 0
9, 18636, Note_on_c, 7, 55, 40
9, 18741, Note_on_c, 7, 51, 40
9, 18751, Note_on_c, 7, 55, 0
9, 18850, Note_on_c, 7, 56, 40
9, 18856, Note_on_c, 7, 51, 0
9, 18962, Note_on_c, 7, 53, 40
9, 18965, Note_on_c, 7, 56, 0
9, 19072, Note_on_c, 7, 62, 40
9, 19072, Note_on_c, 7, 58, 40
9, 19077, Note_on_c, 7, 53, 0
9, 19171, Note_on_c, 7, 46, 40
9, 19187, Note_on_c, 7, 58, 0
9, 19282, Note_on_c, 7, 63, 40
9, 19282, Note_on_c, 7, 51, 40
9, 19286, Note_on_c, 7, 46, 0
9, 19292, Note_on_c, 7, 62, 0
9, 19397, Note_on_c, 7, 63, 0
9, 19402, Note_on_c, 7, 51, 0
9, 19512, Note_on_c, 7, 53, 40
9, 19628, Note_on_c, 7, 55, 40
9, 19630, Note_on_c, 7, 53, 0
9, 19753, Note_on_c, 7, 56, 40
9, 19763, Note_on_c, 7, 55, 0
9, 19867, Note_on_c, 7, 60, 40
9, 19871, Note_on_c, 7, 56, 0
9, 19978, Note_on_c, 7, 61, 40
9, 19982, Note_on_c, 7, 60, 0
9, 20218, Note_on_c, 7, 60, 40
9, 20228, Note_on_c, 7, 61, 0
9, 20328, Note_on_c, 7, 60, 0
9, 20790, Note_on_c, 7, 56, 45
9, 20900, Note_on_c, 7, 56, 0
9, 20902, Note_on_c, 7, 58, 45
9, 21012, Note_on_c, 7, 58, 0
9, 21014, Note_on_c, 7, 46, 45
9, 21124, Note_on_c, 7, 46, 0
9, 21126, Note_on_c, 7, 51, 45
9, 21236, Note_on_c, 7, 51, 0
9, 21354, Note_on_c, 7, 57, 50
9, 21354, Note_on_c, 7, 45, 50
9, 21574, Note_on_c, 7, 58, 50
9, 21574, Note_on_c, 7, 46, 50
9, 21584, Note_on_c, 7, 45, 0
9, 21584, Note_on_c, 7, 57, 0
9, 21691, Note_on_c, 7, 56, 50
9, 21691, Note_on_c, 7, 44, 50
9, 21694, Note_on_c, 7, 58, 0
9, 21694, Note_on_c, 7, 46, 0
9, 21801, Note_on_c, 7, 56, 0
9, 21801, Note_on_c, 7, 44, 0
9, 21801, Note_on_c, 7, 55, 50
9, 21801, Note_on_c, 7, 43, 50
9, 21911, Note_on_c, 7, 43, 0
9, 21911, Note_on_c, 7, 55, 0
9, 21911, Note_on_c, 7, 56, 50
9, 21911, Note_on_c, 7, 44, 50
9, 22021, Note_on_c, 7, 44, 0
9, 22021, Note_on_c, 7, 56, 0
9, 22021, Note_on_c, 7, 53, 50
9, 22021, Note_on_c, 7, 41, 50
9, 22131, Note_on_c, 7, 41, 0
9, 22131, Note_on_c, 7, 53, 0
9, 22131, Note_on_c, 7, 55, 50
9, 22131, Note_on_c, 7, 43, 50
9, 22241, Note_on_c, 7, 43, 0
9, 22241, Note_on_c, 7, 55, 0
9, 22245, Note_on_c, 7, 49, 50
9, 22355, Note_on_c, 7, 49, 0
9, 24115, Note_on_c, 7, 55, 40
9, 24224, Note_on_c, 7, 56, 40
9, 24225, Note_on_c, 7, 55, 0
9, 24333, Note_on_c, 7, 55, 40
9, 24334, Note_on_c, 7, 56, 0
9, 24443, Note_on_c, 7, 55, 0
9, 24444, Note_on_c, 7, 56, 40
9, 24554, Note_on_c, 7, 56, 0
9, 25761, Note_on_c, 7, 60, 60
9, 25761, Note_on_c, 7, 52, 60
9, 25981, Note_on_c, 7, 52, 0
9, 25981, Note_on_c, 7, 60, 0
9, 25988, Note_on_c, 7, 57, 65
9, 25988, Note_on_c, 7, 51, 65
9, 26199, Note_on_c, 7, 58, 70
9, 26199, Note_on_c, 7, 50, 70
9, 26208, Note_on_c, 7, 51, 0
9, 26208, Note_on_c, 7, 57, 0
9, 26307, Note_on_c, 7, 49, 70
9, 26311, Note_on_c, 7, 50, 0
9, 26419, Note_on_c, 7, 58, 0
9, 26419, Note_on_c, 7, 60, 75
9, 26419, Note_on_c, 7, 48, 75
9, 26424, Note_on_c, 7, 49, 0
9, 26639, Note_on_c, 7, 48, 0
9, 26639, Note_on_c, 7, 60, 0
9, 26653, Note_on_c, 7, 61, 70
9, 26653, Note_on_c, 7, 48, 70
9, 26863, Note_on_c, 7, 48, 0
9, 26869, Note_on_c, 7, 46, 70
9, 27064, Note_on_c, 7, 46, 0
9, 27073, Note_on_c, 7, 61, 0
9, 27085, Note_on_c, 7, 60, 75
9, 27085, Note_on_c, 7, 46, 75
9, 27285, Note_on_c, 7, 46, 0
9, 27285, Note_on_c, 7, 60, 0
9, 27295, Note_on_c, 7, 60, 80
9, 27295, Note_on_c, 7, 44, 80
9, 27375, Note_on_c, 7, 44, 0
9, 27375, Note_on_c, 7, 60, 0
9, 27411, Note_on_c, 7, 61, 80
9, 27411, Note_on_c, 7, 49, 80
9, 27491, Note_on_c, 7, 49, 0
9, 27491, Note_on_c, 7, 61, 0
9, 27521, Note_on_c, 7, 55, 80
9, 27521, Note_on_c, 7, 43, 80
9, 27601, Note_on_c, 7, 43, 0
9, 27601, Note_on_c, 7, 55, 0
9, 27633, Note_on_c, 7, 60, 80
9, 27633, Note_on_c, 7, 48, 80
9, 27713, Note_on_c, 7, 48, 0
9, 27713, Note_on_c, 7, 60, 0
9, 27743, Note_on_c, 7, 53, 80
9, 27743, Note_on_c, 7, 41, 80
9, 27823, Note_on_c, 7, 41, 0
9, 27823, Note_on_c, 7, 53, 0
9, 94780, Control_c, 7, 11, 55
9, 94780, Note_on_c, 7, 48, 60
9, 94780, Note_on_c, 7, 60, 70
9, 94890, Note_on_c, 7, 48, 0
9, 94940, Note_on_c, 7, 48, 60
9, 94945, Note_on_c, 7, 60, 0
9, 95020, Note_on_c, 7, 51, 60
9, 95030, Note_on_c, 7, 48, 0
9, 95070, Note_on_c, 7, 51, 0
9, 95080, Note_on_c, 7, 56, 60
9, 95096, Note_on_c, 7, 56, 0
9, 95100, Note_on_c, 7, 60, 62
9, 95170, Note_on_c, 7, 60, 0
9, 95180, Note_on_c, 7, 60, 65
9, 95180, Note_on_c, 7, 48, 50
9, 95230, Note_on_c, 7, 48, 0
9, 95230, Note_on_c, 7, 60, 0
9, 95240, Note_on_c, 7, 60, 68
9, 95240, Note_on_c, 7, 48, 50
9, 95256, Note_on_c, 7, 48, 0
9, 95256, Note_on_c, 7, 60, 0
9, 95260, Note_on_c, 7, 60, 70
9, 95260, Note_on_c, 7, 48, 70
9, 95340, Note_on_c, 7, 59, 60
9, 95340, Note_on_c, 7, 47, 60
9, 95350, Note_on_c, 7, 48, 0
9, 95350, Note_on_c, 7, 60, 0
9, 95410, Note_on_c, 7, 59, 0
9, 95410, Note_on_c, 7, 47, 0
9, 95420, Note_on_c, 7, 58, 60
9, 95420, Note_on_c, 7, 46, 50
9, 95575, Note_on_c, 7, 46, 0
9, 95580, Note_on_c, 7, 46, 50
9, 95650, Note_on_c, 7, 46, 0
9, 95660, Note_on_c, 7, 50, 50
9, 95710, Note_on_c, 7, 50, 0
9, 95720, Note_on_c, 7, 55, 50
9, 95725, Note_on_c, 7, 58, 0
9, 95736, Note_on_c, 7, 55, 0
9, 95740, Note_on_c, 7, 58, 58
9, 95810, Note_on_c, 7, 58, 0
9, 95820, Note_on_c, 7, 58, 58
9, 95820, Note_on_c, 7, 46, 45
9, 95870, Note_on_c, 7, 46, 0
9, 95870, Note_on_c, 7, 58, 0
9, 95880, Note_on_c, 7, 58, 58
9, 95880, Note_on_c, 7, 46, 45
9, 95896, Note_on_c, 7, 46, 0
9, 95896, Note_on_c, 7, 58, 0
9, 95900, Note_on_c, 7, 58, 58
9, 95900, Note_on_c, 7, 46, 58
9, 95980, Note_on_c, 7, 57, 58
9, 95980, Note_on_c, 7, 45, 50
9, 95990, Note_on_c, 7, 46, 0
9, 95990, Note_on_c, 7, 58, 0
9, 96050, Note_on_c, 7, 57, 0
9, 96050, Note_on_c, 7, 45, 0
9, 96060, Note_on_c, 7, 56, 58
9, 96060, Note_on_c, 7, 44, 50
9, 96090, Note_on_c, 7, 44, 0
9, 96090, Note_on_c, 7, 56, 0
9, 96100, Note_on_c, 7, 56, 70
9, 96170, Note_on_c, 7, 56, 0
9, 96180, Note_on_c, 7, 55, 60
9, 96215, Note_on_c, 7, 55, 0
9, 96220, Note_on_c, 7, 53, 60
9, 96255, Note_on_c, 7, 53, 0
9, 96260, Note_on_c, 7, 51, 60
9, 96295, Note_on_c, 7, 51, 0
9, 96300, Note_on_c, 7, 50, 60
9, 96335, Note_on_c, 7, 50, 0
9, 96340, Note_on_c, 7, 48, 60
9, 96375, Note_on_c, 7, 48, 0
9, 96380, Note_on_c, 7, 47, 55
9, 96410, Note_on_c, 7, 47, 0
9, 96420, Note_on_c, 7, 59, 70
9, 96420, Note_on_c, 7, 47, 60
9, 96500, Note_on_c, 7, 60, 60
9, 96500, Note_on_c, 7, 48, 50
9, 96510, Note_on_c, 7, 47, 0
9, 96510, Note_on_c, 7, 59, 0
9, 96540, Note_on_c, 7, 62, 60
9, 96540, Note_on_c, 7, 50, 60
9, 96545, Note_on_c, 7, 60, 0
9, 96545, Note_on_c, 7, 48, 0
9, 96580, Note_on_c, 7, 65, 70
9, 96580, Note_on_c, 7, 53, 60
9, 96585, Note_on_c, 7, 62, 0
9, 96585, Note_on_c, 7, 50, 0
9, 96660, Note_on_c, 7, 63, 60
9, 96660, Note_on_c, 7, 51, 50
9, 96665, Note_on_c, 7, 65, 0
9, 96665, Note_on_c, 7, 53, 0
9, 96700, Note_on_c, 7, 64, 60
9, 96700, Note_on_c, 7, 52, 50
9, 96705, Note_on_c, 7, 63, 0
9, 96705, Note_on_c, 7, 51, 0
9, 96735, Note_on_c, 7, 64, 0
9, 96735, Note_on_c, 7, 52, 0
9, 96740, Note_on_c, 7, 64, 70
9, 96740, Note_on_c, 7, 52, 60
9, 96810, Note_on_c, 7, 52, 0
9, 96810, Note_on_c, 7, 64, 0
9, 96820, Note_on_c, 7, 65, 60
9, 96820, Note_on_c, 7, 53, 50
9, 96860, Note_on_c, 7, 67, 60
9, 96860, Note_on_c, 7, 55, 60
9, 96865, Note_on_c, 7, 53, 0
9, 96865, Note_on_c, 7, 65, 0
9, 96890, Note_on_c, 7, 67, 0
9, 96890, Note_on_c, 7, 55, 0
9, 96900, Note_on_c, 7, 67, 70
9, 96900, Note_on_c, 7, 58, 60
9, 96980, Note_on_c, 7, 65, 60
9, 96980, Note_on_c, 7, 56, 50
9, 96990, Note_on_c, 7, 58, 0
9, 96990, Note_on_c, 7, 67, 0
9, 97010, Note_on_c, 7, 56, 0
9, 97020, Note_on_c, 7, 65, 60
9, 97020, Note_on_c, 7, 59, 50
9, 97025, Note_on_c, 7, 65, 0
9, 97100, Note_on_c, 7, 63, 60
9, 97100, Note_on_c, 7, 60, 50
9, 97110, Note_on_c, 7, 59, 0
9, 97110, Note_on_c, 7, 65, 0
9, 97170, Note_on_c, 7, 63, 0
9, 97170, Note_on_c, 7, 60, 0
9, 97180, Control_c, 7, 11, 45
9, 97180, Note_on_c, 7, 67, 50
9, 97300, Note_on_c, 7, 63, 50
9, 97315, Note_on_c, 7, 67, 0
9, 97340, Note_on_c, 7, 60, 50
9, 97350, Note_on_c, 7, 63, 0
9, 97420, Note_on_c, 7, 62, 50
9, 97420, Note_on_c, 7, 55, 50
9, 97430, Note_on_c, 7, 60, 0
9, 97500, Note_on_c, 7, 60, 50
9, 97500, Note_on_c, 7, 56, 50
9, 97510, Note_on_c, 7, 55, 0
9, 97510, Note_on_c, 7, 62, 0
9, 97580, Note_on_c, 7, 53, 50
9, 97590, Note_on_c, 7, 60, 0
9, 97590, Note_on_c, 7, 56, 0
9, 97660, Note_on_c, 7, 59, 50
9, 97660, Note_on_c, 7, 55, 50
9, 97670, Note_on_c, 7, 53, 0
9, 97780, Note_on_c, 7, 55, 0
9, 97780, Note_on_c, 7, 59, 0
9, 97900, Note_on_c, 7, 67, 50
9, 97960, Note_on_c, 7, 63, 50
9, 97970, Note_on_c, 7, 67, 0
9, 97980, Note_on_c, 7, 60, 50
9, 97985, Note_on_c, 7, 63, 0
9, 98060, Note_on_c, 7, 59, 50
9, 98070, Note_on_c, 7, 60, 0
9, 98140, Note_on_c, 7, 60, 50
9, 98150, Note_on_c, 7, 59, 0
9, 98220, Note_on_c, 7, 56, 50
9, 98230, Note_on_c, 7, 60, 0
9, 98300, Note_on_c, 7, 55, 50
9, 98310, Note_on_c, 7, 56, 0
9, 98420, Note_on_c, 7, 55, 0
9, 99900, Control_c, 7, 11, 60
9, 99900, Note_on_c, 7, 60, 60
9, 99900, Note_on_c, 7, 48, 60
9, 99980, Note_on_c, 7, 55, 60
9, 99980, Note_on_c, 7, 43, 50
9, 99985, Note_on_c, 7, 48, 0
9, 99985, Note_on_c, 7, 60, 0
9, 100035, Note_on_c, 7, 55, 0
9, 100035, Note_on_c, 7, 43, 0
9, 100040, Note_on_c, 7, 56, 60
9, 100040, Note_on_c, 7, 44, 50
9, 100056, Note_on_c, 7, 44, 0
9, 100056, Note_on_c, 7, 56, 0
9, 100060, Note_on_c, 7, 52, 60
9, 100060, Note_on_c, 7, 40, 50
9, 100115, Note_on_c, 7, 40, 0
9, 100115, Note_on_c, 7, 52, 0
9, 100120, Note_on_c, 7, 53, 60
9, 100120, Note_on_c, 7, 41, 50
9, 100136, Note_on_c, 7, 41, 0
9, 100136, Note_on_c, 7, 53, 0
9, 100140, Note_on_c, 7, 48, 60
9, 100195, Note_on_c, 7, 48, 0
9, 100200, Note_on_c, 7, 49, 60
9, 100216, Note_on_c, 7, 49, 0
9, 100220, Note_on_c, 7, 47, 60
9, 100255, Note_on_c, 7, 47, 0
9, 100260, Note_on_c, 7, 48, 60
9, 100295, Note_on_c, 7, 48, 0
9, 100300, Note_on_c, 7, 50, 60
9, 100335, Note_on_c, 7, 50, 0
9, 100340, Note_on_c, 7, 51, 50
9, 100375, Note_on_c, 7, 51, 0
9, 100380, Note_on_c, 7, 52, 60
9, 100415, Note_on_c, 7, 52, 0
9, 100420, Note_on_c, 7, 53, 60
9, 100455, Note_on_c, 7, 53, 0
9, 100460, Note_on_c, 7, 55, 60
9, 100495, Note_on_c, 7, 55, 0
9, 100500, Note_on_c, 7, 56, 60
9, 100535, Note_on_c, 7, 56, 0
9, 100540, Note_on_c, 7, 55, 60
9, 100700, Note_on_c, 7, 48, 60
9, 100860, Note_on_c, 7, 55, 0
9, 100860, Note_on_c, 7, 56, 60
9, 100860, Note_on_c, 7, 41, 60
9, 100865, Note_on_c, 7, 48, 0
9, 101100, Note_on_c, 7, 55, 60
9, 101100, Note_on_c, 7, 43, 60
9, 101110, Note_on_c, 7, 41, 0
9, 101110, Note_on_c, 7, 56, 0
9, 101180, Note_on_c, 7, 48, 60
9, 101185, Note_on_c, 7, 55, 0
9, 101185, Note_on_c, 7, 43, 0
9, 101265, Note_on_c, 7, 48, 0
9, 101760, Control_c, 7, 11, 45
9, 101820, Note_on_c, 7, 51, 60
9, 101900, Note_on_c, 7, 56, 75
9, 101910, Note_on_c, 7, 51, 0
9, 101980, Note_on_c, 7, 55, 60
9, 101990, Note_on_c, 7, 56, 0
9, 102050, Note_on_c, 7, 55, 0
9, 102060, Note_on_c, 7, 55, 60
9, 102110, Note_on_c, 7, 55, 0
9, 102120, Note_on_c, 7, 55, 60
9, 102135, Note_on_c, 7, 55, 0
9, 102140, Note_on_c, 7, 55, 60
9, 102220, Note_on_c, 7, 63, 70
9, 102230, Note_on_c, 7, 55, 0
9, 102300, Note_on_c, 7, 62, 68
9, 102310, Note_on_c, 7, 63, 0
9, 102340, Note_on_c, 7, 60, 66
9, 102345, Note_on_c, 7, 62, 0
9, 102380, Note_on_c, 7, 62, 64
9, 102385, Note_on_c, 7, 60, 0
9, 102420, Note_on_c, 7, 63, 62
9, 102425, Note_on_c, 7, 62, 0
9, 102460, Note_on_c, 7, 60, 55
9, 102465, Note_on_c, 7, 63, 0
9, 102700, Note_on_c, 7, 60, 0
9, 104002, Control_c, 7, 11, 45
9, 104002, Note_on_c, 7, 51, 50
9, 104177, Note_on_c, 7, 60, 55
9, 104182, Note_on_c, 7, 51, 0
9, 104327, Note_on_c, 7, 60, 0
9, 104353, Note_on_c, 7, 60, 55
9, 104432, Note_on_c, 7, 59, 55
9, 104438, Note_on_c, 7, 60, 0
9, 104507, Note_on_c, 7, 60, 57
9, 104512, Note_on_c, 7, 59, 0
9, 104585, Note_on_c, 7, 61, 60
9, 104592, Note_on_c, 7, 60, 0
9, 104667, Note_on_c, 7, 58, 55
9, 104672, Note_on_c, 7, 61, 0
9, 104817, Note_on_c, 7, 58, 0
9, 106201, Note_on_c, 7, 51, 55
9, 106340, Note_on_c, 7, 58, 55
9, 106351, Note_on_c, 7, 51, 0
9, 106470, Note_on_c, 7, 58, 0
9, 106480, Note_on_c, 7, 58, 55
9, 106585, Note_on_c, 7, 57, 55
9, 106590, Note_on_c, 7, 58, 0
9, 106618, Note_on_c, 7, 58, 55
9, 106625, Note_on_c, 7, 57, 0
9, 106726, Note_on_c, 7, 59, 55
9, 106728, Note_on_c, 7, 58, 0
9, 106761, Note_on_c, 7, 56, 55
9, 106766, Note_on_c, 7, 59, 0
9, 106911, Note_on_c, 7, 56, 0
9, 110580, Control_c, 7, 11, 60
9, 110580, Note_on_c, 7, 64, 55
9, 110615, Note_on_c, 7, 64, 0
9, 110618, Note_on_c, 7, 56, 65
9, 110723, Note_on_c, 7, 57, 60
9, 110738, Note_on_c, 7, 56, 0
9, 110758, Note_on_c, 7, 57, 0
9, 110759, Control_c, 7, 11, 50
9, 110759, Note_on_c, 7, 59, 50
9, 110791, Control_c, 7, 11, 49
9, 110824, Control_c, 7, 11, 48
9, 110856, Control_c, 7, 11, 47
9, 110889, Control_c, 7, 11, 46
9, 110922, Control_c, 7, 11, 45
9, 110954, Control_c, 7, 11, 44
9, 110987, Control_c, 7, 11, 43
9, 111019, Control_c, 7, 11, 42
9, 111052, Control_c, 7, 11, 41
9, 111085, Control_c, 7, 11, 40
9, 111117, Control_c, 7, 11, 39
9, 111150, Control_c, 7, 11, 38
9, 111182, Control_c, 7, 11, 37
9, 111215, Control_c, 7, 11, 36
9, 111248, Control_c, 7, 11, 35
9, 111280, Control_c, 7, 11, 34
9, 111313, Control_c, 7, 11, 33
9, 111345, Control_c, 7, 11, 32
9, 111378, Control_c, 7, 11, 31
9, 111411, Control_c, 7, 11, 30
9, 111411, Note_on_c, 7, 57, 40
9, 111419, Note_on_c, 7, 59, 0
9, 111531, Note_on_c, 7, 57, 0
9, 113215, Control_c, 7, 11, 45
9, 113215, Note_on_c, 7, 65, 50
9, 113381, Note_on_c, 7, 63, 45
9, 113390, Note_on_c, 7, 65, 0
9, 113469, Note_on_c, 7, 61, 40
9, 113476, Note_on_c, 7, 63, 0
9, 113557, Note_on_c, 7, 60, 35
9, 113564, Note_on_c, 7, 61, 0
9, 113773, Note_on_c, 7, 58, 35
9, 113777, Note_on_c, 7, 60, 0
9, 113928, Note_on_c, 7, 58, 0
9, 113952, Note_on_c, 7, 58, 35
9, 114121, Note_on_c, 7, 57, 35
9, 114127, Note_on_c, 7, 58, 0
9, 114311, Note_on_c, 7, 58, 35
9, 114316, Note_on_c, 7, 57, 0
9, 114544, Note_on_c, 7, 53, 35
9, 114546, Note_on_c, 7, 58, 0
9, 114664, Note_on_c, 7, 53, 0
9, 119042, Note_on_c, 7, 65, 50
9, 119184, Note_on_c, 7, 61, 50
9, 119192, Note_on_c, 7, 65, 0
9, 119312, Note_on_c, 7, 63, 50
9, 119319, Note_on_c, 7, 61, 0
9, 119410, Note_on_c, 7, 61, 50
9, 119417, Note_on_c, 7, 63, 0
9, 119451, Note_on_c, 7, 56, 50
9, 119455, Note_on_c, 7, 61, 0
9, 119691, Note_on_c, 7, 56, 0
9, 119715, Note_on_c, 7, 63, 50
9, 119821, Note_on_c, 7, 62, 50
9, 119825, Note_on_c, 7, 63, 0
9, 119853, Note_on_c, 7, 63, 50
9, 119857, Note_on_c, 7, 62, 0
9, 119945, Note_on_c, 7, 65, 50
9, 119951, Note_on_c, 7, 63, 0
9, 119980, Note_on_c, 7, 66, 50
9, 119995, Note_on_c, 7, 65, 0
9, 120270, Note_on_c, 7, 63, 50
9, 120280, Note_on_c, 7, 66, 0
9, 120405, Note_on_c, 7, 65, 50
9, 120410, Note_on_c, 7, 63, 0
9, 120471, Note_on_c, 7, 63, 50
9, 120477, Note_on_c, 7, 65, 0
9, 120539, Note_on_c, 7, 58, 50
9, 120543, Note_on_c, 7, 63, 0
9, 120659, Note_on_c, 7, 58, 0
9, 132322, Note_on_c, 7, 52, 50
9, 132382, Note_on_c, 7, 53, 50
9, 132387, Note_on_c, 7, 52, 0
9, 132442, Note_on_c, 7, 48, 50
9, 132447, Note_on_c, 7, 53, 0
9, 132507, Note_on_c, 7, 48, 0
9, 132562, Note_on_c, 7, 52, 50
9, 132622, Note_on_c, 7, 53, 50
9, 132627, Note_on_c, 7, 52, 0
9, 132682, Note_on_c, 7, 48, 50
9, 132687, Note_on_c, 7, 53, 0
9, 132747, Note_on_c, 7, 48, 0
9, 132802, Note_on_c, 7, 51, 50
9, 132862, Note_on_c, 7, 50, 50
9, 132867, Note_on_c, 7, 51, 0
9, 132982, Note_on_c, 7, 49, 50
9, 132992, Note_on_c, 7, 50, 0
9, 133102, Note_on_c, 7, 48, 50
9, 133112, Note_on_c, 7, 49, 0
9, 133152, Note_on_c, 7, 48, 0
9, 133162, Note_on_c, 7, 48, 50
9, 133212, Note_on_c, 7, 48, 0
9, 133282, Note_on_c, 7, 52, 50
9, 133342, Note_on_c, 7, 53, 50
9, 133347, Note_on_c, 7, 52, 0
9, 133402, Note_on_c, 7, 48, 50
9, 133407, Note_on_c, 7, 53, 0
9, 133467, Note_on_c, 7, 48, 0
9, 133522, Note_on_c, 7, 52, 50
9, 133582, Note_on_c, 7, 53, 50
9, 133587, Note_on_c, 7, 52, 0
9, 133642, Note_on_c, 7, 48, 50
9, 133647, Note_on_c, 7, 53, 0
9, 133707, Note_on_c, 7, 48, 0
9, 133762, Note_on_c, 7, 51, 50
9, 133822, Note_on_c, 7, 50, 50
9, 133827, Note_on_c, 7, 51, 0
9, 133942, Note_on_c, 7, 49, 50
9, 133952, Note_on_c, 7, 50, 0
9, 134062, Note_on_c, 7, 48, 50
9, 134072, Note_on_c, 7, 49, 0
9, 134112, Note_on_c, 7, 48, 0
9, 134122, Note_on_c, 7, 48, 50
9, 134172, Note_on_c, 7, 48, 0
9, 134242, Note_on_c, 7, 52, 50
9, 134302, Note_on_c, 7, 53, 50
9, 134307, Note_on_c, 7, 52, 0
9, 134362, Note_on_c, 7, 48, 50
9, 134367, Note_on_c, 7, 53, 0
9, 134427, Note_on_c, 7, 48, 0
9, 134482, Note_on_c, 7, 63, 50
9, 134482, Note_on_c, 7, 51, 50
9, 134542, Note_on_c, 7, 65, 50
9, 134542, Note_on_c, 7, 49, 50
9, 134547, Note_on_c, 7, 51, 0
9, 134547, Note_on_c, 7, 63, 0
9, 134592, Note_on_c, 7, 49, 0
9, 134602, Note_on_c, 7, 49, 50
9, 134607, Note_on_c, 7, 65, 0
9, 134662, Note_on_c, 7, 65, 50
9, 134667, Note_on_c, 7, 49, 0
9, 134722, Note_on_c, 7, 53, 50
9, 134782, Note_on_c, 7, 55, 50
9, 134787, Note_on_c, 7, 53, 0
9, 134842, Note_on_c, 7, 49, 50
9, 134847, Note_on_c, 7, 55, 0
9, 134907, Note_on_c, 7, 49, 0
9, 134962, Note_on_c, 7, 53, 50
9, 135022, Note_on_c, 7, 67, 50
9, 135022, Note_on_c, 7, 51, 50
9, 135027, Note_on_c, 7, 53, 0
9, 135032, Note_on_c, 7, 65, 0
9, 135087, Note_on_c, 7, 67, 0
9, 135087, Note_on_c, 7, 51, 0
9, 135142, Note_on_c, 7, 65, 50
9, 135142, Note_on_c, 7, 53, 50
9, 135202, Note_on_c, 7, 63, 50
9, 135202, Note_on_c, 7, 55, 50
9, 135207, Note_on_c, 7, 53, 0
9, 135207, Note_on_c, 7, 65, 0
9, 135252, Note_on_c, 7, 63, 0
9, 135262, Note_on_c, 7, 63, 50
9, 135262, Note_on_c, 7, 56, 50
9, 135267, Note_on_c, 7, 55, 0
9, 135372, Note_on_c, 7, 56, 0
9, 135382, Note_on_c, 7, 64, 50
9, 135382, Note_on_c, 7, 56, 50
9, 135392, Note_on_c, 7, 63, 0
9, 135492, Note_on_c, 7, 56, 0
9, 135502, Note_on_c, 7, 65, 50
9, 135502, Note_on_c, 7, 56, 50
9, 135512, Note_on_c, 7, 64, 0
9, 135612, Note_on_c, 7, 56, 0
9, 135622, Note_on_c, 7, 67, 50
9, 135622, Note_on_c, 7, 52, 50
9, 135632, Note_on_c, 7, 65, 0
9, 135742, Note_on_c, 7, 68, 50
9, 135742, Note_on_c, 7, 53, 50
9, 135752, Note_on_c, 7, 52, 0
9, 135752, Note_on_c, 7, 67, 0
9, 135982, Note_on_c, 7, 68, 0
9, 135982, Note_on_c, 7, 53, 0
9, 135982, Note_on_c, 7, 67, 50
9, 135982, Note_on_c, 7, 46, 50
9, 136032, Note_on_c, 7, 46, 0
9, 136032, Note_on_c, 7, 67, 0
9, 136072, Note_on_c, 7, 58, 50
9, 136094, Note_on_c, 7, 58, 0
9, 136102, Note_on_c, 7, 58, 50
9, 136152, Note_on_c, 7, 58, 0
9, 136312, Note_on_c, 7, 59, 50
9, 136334, Note_on_c, 7, 59, 0
9, 136342, Note_on_c, 7, 59, 50
9, 136392, Note_on_c, 7, 59, 0
9, 136552, Note_on_c, 7, 60, 50
9, 136574, Note_on_c, 7, 60, 0
9, 136582, Note_on_c, 7, 60, 50
9, 136632, Note_on_c, 7, 60, 0
9, 136792, Note_on_c, 7, 61, 50
9, 136792, Note_on_c, 7, 49, 50
9, 136814, Note_on_c, 7, 49, 0
9, 136814, Note_on_c, 7, 61, 0
9, 136822, Note_on_c, 7, 61, 50
9, 136822, Note_on_c, 7, 49, 50
9, 136855, Note_on_c, 7, 49, 0
9, 136855, Note_on_c, 7, 61, 0
9, 136912, Note_on_c, 7, 61, 50
9, 136912, Note_on_c, 7, 49, 50
9, 136942, Note_on_c, 7, 60, 50
9, 136942, Note_on_c, 7, 48, 50
9, 136947, Note_on_c, 7, 49, 0
9, 136947, Note_on_c, 7, 61, 0
9, 136992, Note_on_c, 7, 60, 0
9, 136992, Note_on_c, 7, 48, 0
9, 178381, Control_c, 7, 11, 50
9, 178381, Note_on_c, 7, 53, 60
9, 178381, Note_on_c, 7, 41, 60
9, 178431, Note_on_c, 7, 41, 0
9, 178431, Note_on_c, 7, 53, 0
9, 178441, Note_on_c, 7, 65, 60
9, 178441, Note_on_c, 7, 53, 60
9, 178561, Note_on_c, 7, 53, 0
9, 178561, Note_on_c, 7, 65, 0
9, 178561, Note_on_c, 7, 59, 60
9, 178561, Note_on_c, 7, 47, 60
9, 178611, Note_on_c, 7, 47, 0
9, 178611, Note_on_c, 7, 59, 0
9, 178621, Note_on_c, 7, 60, 60
9, 178621, Note_on_c, 7, 48, 60
9, 178671, Note_on_c, 7, 48, 0
9, 178671, Note_on_c, 7, 60, 0
9, 178681, Note_on_c, 7, 61, 60
9, 178681, Note_on_c, 7, 49, 60
9, 178801, Note_on_c, 7, 49, 0
9, 178801, Note_on_c, 7, 61, 0
9, 178801, Note_on_c, 7, 60, 60
9, 178801, Note_on_c, 7, 48, 60
9, 178851, Note_on_c, 7, 48, 0
9, 178851, Note_on_c, 7, 60, 0
9, 178861, Note_on_c, 7, 53, 60
9, 178911, Note_on_c, 7, 53, 0
9, 178921, Note_on_c, 7, 56, 60
9, 178971, Note_on_c, 7, 56, 0
9, 178981, Note_on_c, 7, 48, 60
9, 179031, Note_on_c, 7, 48, 0
9, 179041, Note_on_c, 7, 56, 60
9, 179091, Note_on_c, 7, 56, 0
9, 179101, Note_on_c, 7, 53, 60
9, 179191, Note_on_c, 7, 53, 0
9, 179221, Note_on_c, 7, 51, 60
9, 179311, Note_on_c, 7, 51, 0
9, 179341, Note_on_c, 7, 49, 60
9, 179391, Note_on_c, 7, 49, 0
9, 179401, Note_on_c, 7, 61, 60
9, 179401, Note_on_c, 7, 49, 60
9, 179521, Note_on_c, 7, 49, 0
9, 179521, Note_on_c, 7, 61, 0
9, 179521, Note_on_c, 7, 55, 60
9, 179521, Note_on_c, 7, 43, 60
9, 179571, Note_on_c, 7, 43, 0
9, 179571, Note_on_c, 7, 55, 0
9, 179581, Note_on_c, 7, 56, 60
9, 179581, Note_on_c, 7, 44, 60
9, 179631, Note_on_c, 7, 44, 0
9, 179631, Note_on_c, 7, 56, 0
9, 179641, Note_on_c, 7, 58, 60
9, 179641, Note_on_c, 7, 46, 60
9, 179761, Note_on_c, 7, 46, 0
9, 179761, Note_on_c, 7, 58, 0
9, 179761, Note_on_c, 7, 56, 60
9, 179761, Note_on_c, 7, 44, 60
9, 179811, Note_on_c, 7, 44, 0
9, 179811, Note_on_c, 7, 56, 0
9, 179821, Note_on_c, 7, 49, 60
9, 179871, Note_on_c, 7, 49, 0
9, 179881, Note_on_c, 7, 53, 60
9, 179931, Note_on_c, 7, 53, 0
9, 179941, Note_on_c, 7, 56, 60
9, 179941, Note_on_c, 7, 44, 60
9, 179991, Note_on_c, 7, 44, 0
9, 179991, Note_on_c, 7, 56, 0
9, 180001, Note_on_c, 7, 65, 60
9, 180001, Note_on_c, 7, 53, 60
9, 180051, Note_on_c, 7, 53, 0
9, 180051, Note_on_c, 7, 65, 0
9, 180061, Note_on_c, 7, 61, 60
9, 180061, Note_on_c, 7, 49, 60
9, 180151, Note_on_c, 7, 49, 0
9, 180151, Note_on_c, 7, 61, 0
9, 180181, Note_on_c, 7, 60, 60
9, 180181, Note_on_c, 7, 48, 60
9, 180271, Note_on_c, 7, 48, 0
9, 180271, Note_on_c, 7, 60, 0
9, 180301, Note_on_c, 7, 59, 60
9, 180301, Note_on_c, 7, 47, 60
9, 180391, Note_on_c, 7, 47, 0
9, 180391, Note_on_c, 7, 59, 0
9, 180421, Control_c, 7, 11, 40
9, 180421, Note_on_c, 7, 59, 50
9, 180781, Note_on_c, 7, 58, 50
9, 180791, Note_on_c, 7, 59, 0
9, 180851, Note_on_c, 7, 58, 0
9, 180901, Note_on_c, 7, 58, 50
9, 180951, Note_on_c, 7, 58, 0
9, 181021, Note_on_c, 7, 56, 50
9, 181071, Note_on_c, 7, 56, 0
9, 182551, Control_c, 7, 11, 80
9, 182551, Note_on_c, 7, 60, 70
9, 182551, Note_on_c, 7, 48, 70
9, 182601, Note_on_c, 7, 48, 0
9, 182601, Note_on_c, 7, 60, 0
9, 182671, Note_on_c, 7, 53, 70
9, 182671, Note_on_c, 7, 41, 70
9, 182721, Note_on_c, 7, 41, 0
9, 182721, Note_on_c, 7, 53, 0
9, 183031, Note_on_c, 7, 60, 70
9, 183031, Note_on_c, 7, 48, 70
9, 183081, Note_on_c, 7, 48, 0
9, 183081, Note_on_c, 7, 60, 0
9, 183151, Note_on_c, 7, 53, 70
9, 183151, Note_on_c, 7, 41, 70
9, 183201, Note_on_c, 7, 41, 0
9, 183201, Note_on_c, 7, 53, 0
9, 183391, Note_on_c, 7, 65, 80
9, 183391, Note_on_c, 7, 53, 80
9, 183441, Note_on_c, 7, 53, 0
9, 183441, Note_on_c, 7, 65, 0
9, 183631, Note_on_c, 7, 53, 80
9, 183631, Note_on_c, 7, 41, 80
9, 184111, Note_on_c, 7, 41, 0
9, 184111, Note_on_c, 7, 53, 0
9, 184664, Control_c, 7, 121, 0
9, 184664, End_track
10, 0, Start_track
10, 0, MIDI_port, 0
10, 0, Title_t, "French Horns"
10, 0, Program_c, 8, 60
10, 0, Control_c, 8, 7, 127
10, 0, Control_c, 8, 10, 70
10, 50, Control_c, 8, 121, 0
10, 100, Control_c, 8, 91, 100
10, 110, Control_c, 8, 11, 80
10, 2108, Note_on_c, 8, 65, 60
10, 2178, Note_on_c, 8, 65, 0
10, 2217, Note_on_c, 8, 67, 60
10, 2217, Note_on_c, 8, 60, 60
10, 2267, Note_on_c, 8, 60, 0
10, 2267, Note_on_c, 8, 67, 0
10, 2555, Note_on_c, 8, 65, 60
10, 2625, Note_on_c, 8, 65, 0
10, 2658, Note_on_c, 8, 67, 60
10, 2658, Note_on_c, 8, 60, 60
10, 2708, Note_on_c, 8, 60, 0
10, 2708, Note_on_c, 8, 67, 0
10, 3186, Note_on_c, 8, 67, 60
10, 3186, Note_on_c, 8, 60, 60
10, 3290, Note_on_c, 8, 65, 60
10, 3296, Note_on_c, 8, 60, 0
10, 3296, Note_on_c, 8, 67, 0
10, 3361, Note_on_c, 8, 67, 60
10, 3370, Note_on_c, 8, 65, 0
10, 3388, Note_on_c, 8, 68, 60
10, 3394, Note_on_c, 8, 67, 0
10, 3508, Note_on_c, 8, 68, 0
10, 6480, Control_c, 8, 11, 70
10, 6530, Note_on_c, 8, 65, 60
10, 6746, Note_on_c, 8, 68, 60
10, 6746, Note_on_c, 8, 63, 60
10, 6756, Note_on_c, 8, 65, 0
10, 6836, Note_on_c, 8, 63, 0
10, 6856, Note_on_c, 8, 68, 0
10, 6965, Note_on_c, 8, 67, 60
10, 7072, Note_on_c, 8, 64, 40
10, 7185, Note_on_c, 8, 68, 60
10, 7185, Note_on_c, 8, 65, 60
10, 7190, Note_on_c, 8, 64, 0
10, 7190, Note_on_c, 8, 67, 0
10, 7290, Note_on_c, 8, 63, 60
10, 7295, Note_on_c, 8, 68, 0
10, 7295, Note_on_c, 8, 65, 0
10, 7398, Note_on_c, 8, 62, 60
10, 7400, Note_on_c, 8, 63, 0
10, 7508, Note_on_c, 8, 62, 0
10, 7508, Note_on_c, 8, 67, 60
10, 7508, Note_on_c, 8, 61, 60
10, 7620, Note_on_c, 8, 68, 60
10, 7620, Note_on_c, 8, 60, 60
10, 7623, Note_on_c, 8, 61, 0
10, 7623, Note_on_c, 8, 67, 0
10, 7730, Note_on_c, 8, 68, 0
10, 7730, Note_on_c, 8, 60, 0
10, 7838, Note_on_c, 8, 67, 60
10, 7948, Note_on_c, 8, 67, 0
10, 7952, Note_on_c, 8, 65, 60
10, 8057, Note_on_c, 8, 67, 60
10, 8057, Note_on_c, 8, 64, 60
10, 8062, Note_on_c, 8, 65, 0
10, 8118, Note_on_c, 8, 67, 80
10, 8118, Note_on_c, 8, 64, 80
10, 8167, Note_on_c, 8, 64, 0
10, 8167, Note_on_c, 8, 67, 0
10, 8228, Note_on_c, 8, 64, 0
10, 8228, Note_on_c, 8, 67, 0
10, 8544, Note_on_c, 8, 67, 80
10, 8544, Note_on_c, 8, 64, 80
10, 8654, Note_on_c, 8, 64, 0
10, 8654, Note_on_c, 8, 67, 0
10, 8974, Note_on_c, 8, 67, 80
10, 8974, Note_on_c, 8, 64, 80
10, 9084, Note_on_c, 8, 64, 0
10, 9084, Note_on_c, 8, 67, 0
10, 9404, Note_on_c, 8, 69, 80
10, 9404, Note_on_c, 8, 63, 80
10, 9514, Note_on_c, 8, 63, 0
10, 9514, Note_on_c, 8, 69, 0
10, 11186, Note_on_c, 8, 65, 80
10, 11366, Note_on_c, 8, 65, 0
10, 11384, Note_on_c, 8, 65, 60
10, 11494, Note_on_c, 8, 65, 0
10, 11499, Note_on_c, 8, 67, 60
10, 11499, Note_on_c, 8, 60, 60
10, 11609, Note_on_c, 8, 60, 0
10, 11609, Note_on_c, 8, 67, 0
10, 12847, Note_on_c, 8, 65, 60
10, 12947, Note_on_c, 8, 65, 0
10, 12970, Note_on_c, 8, 65, 80
10, 12970, Note_on_c, 8, 60, 80
10, 13090, Note_on_c, 8, 60, 0
10, 13095, Note_on_c, 8, 65, 0
10, 15192, Note_on_c, 8, 67, 60
10, 15192, Note_on_c, 8, 60, 60
10, 15299, Note_on_c, 8, 68, 60
10, 15299, Note_on_c, 8, 65, 60
10, 15302, Note_on_c, 8, 60, 0
10, 15302, Note_on_c, 8, 67, 0
10, 15360, Control_c, 8, 11, 75
10, 15408, Note_on_c, 8, 65, 70
10, 15408, Note_on_c, 8, 68, 70
10, 15409, Note_on_c, 8, 68, 0
10, 15409, Note_on_c, 8, 65, 0
10, 15488, Note_on_c, 8, 68, 0
10, 15488, Note_on_c, 8, 65, 0
10, 15518, Note_on_c, 8, 67, 70
10, 15518, Note_on_c, 8, 60, 70
10, 15638, Note_on_c, 8, 67, 0
10, 15758, Note_on_c, 8, 60, 0
10, 16680, Control_c, 8, 11, 55
10, 16766, Note_on_c, 8, 63, 60
10, 16986, Note_on_c, 8, 63, 0
10, 17871, Note_on_c, 8, 65, 50
10, 18161, Note_on_c, 8, 65, 0
10, 18187, Note_on_c, 8, 65, 50
10, 18577, Note_on_c, 8, 64, 50
10, 18587, Note_on_c, 8, 65, 0
10, 18636, Note_on_c, 8, 63, 50
10, 18641, Note_on_c, 8, 64, 0
10, 18962, Note_on_c, 8, 65, 50
10, 18972, Note_on_c, 8, 63, 0
10, 19072, Note_on_c, 8, 70, 50
10, 19082, Note_on_c, 8, 65, 0
10, 19282, Note_on_c, 8, 67, 50
10, 19292, Note_on_c, 8, 70, 0
10, 19392, Note_on_c, 8, 67, 0
10, 19978, Note_on_c, 8, 63, 60
10, 20218, Note_on_c, 8, 63, 0
10, 20902, Note_on_c, 8, 70, 55
10, 21142, Note_on_c, 8, 70, 0
10, 21691, Note_on_c, 8, 65, 60
10, 21801, Note_on_c, 8, 67, 60
10, 21911, Note_on_c, 8, 65, 0
10, 21911, Note_on_c, 8, 68, 60
10, 22021, Note_on_c, 8, 67, 0
10, 22021, Note_on_c, 8, 65, 60
10, 22131, Note_on_c, 8, 68, 0
10, 22131, Note_on_c, 8, 67, 60
10, 22241, Note_on_c, 8, 65, 0
10, 22245, Note_on_c, 8, 70, 70
10, 22245, Note_on_c, 8, 67, 70
10, 22351, Note_on_c, 8, 67, 0
10, 22465, Note_on_c, 8, 70, 0
10, 22465, Note_on_c, 8, 67, 0
10, 24115, Note_on_c, 8, 63, 75
10, 24181, Note_on_c, 8, 63, 0
10, 24198, Note_on_c, 8, 63, 60
10, 24220, Note_on_c, 8, 63, 0
10, 24224, Note_on_c, 8, 63, 60
10, 24314, Note_on_c, 8, 63, 0
10, 24333, Note_on_c, 8, 63, 75
10, 24399, Note_on_c, 8, 63, 0
10, 24416, Note_on_c, 8, 63, 60
10, 24438, Note_on_c, 8, 63, 0
10, 24444, Note_on_c, 8, 63, 60
10, 24534, Note_on_c, 8, 63, 0
10, 25761, Note_on_c, 8, 67, 60
10, 25761, Note_on_c, 8, 60, 60
10, 25966, Note_on_c, 8, 60, 0
10, 25981, Note_on_c, 8, 67, 0
10, 25988, Note_on_c, 8, 65, 60
10, 25988, Note_on_c, 8, 60, 60
10, 26183, Note_on_c, 8, 65, 0
10, 26199, Note_on_c, 8, 65, 70
10, 26208, Note_on_c, 8, 60, 0
10, 26307, Note_on_c, 8, 67, 75
10, 26307, Note_on_c, 8, 63, 65
10, 26311, Note_on_c, 8, 65, 0
10, 26402, Note_on_c, 8, 63, 0
10, 26419, Note_on_c, 8, 68, 80
10, 26419, Note_on_c, 8, 63, 60
10, 26424, Note_on_c, 8, 67, 0
10, 26529, Note_on_c, 8, 68, 0
10, 26529, Note_on_c, 8, 67, 75
10, 26639, Note_on_c, 8, 63, 0
10, 26649, Note_on_c, 8, 67, 0
10, 26653, Note_on_c, 8, 65, 60
10, 26843, Note_on_c, 8, 65, 0
10, 26869, Note_on_c, 8, 65, 60
10, 27064, Note_on_c, 8, 65, 0
10, 27085, Note_on_c, 8, 67, 60
10, 27085, Note_on_c, 8, 60, 60
10, 27270, Note_on_c, 8, 60, 0
10, 27285, Note_on_c, 8, 67, 0
10, 27295, Note_on_c, 8, 65, 70
10, 27295, Note_on_c, 8, 60, 70
10, 27395, Note_on_c, 8, 60, 0
10, 27395, Note_on_c, 8, 65, 0
10, 27411, Note_on_c, 8, 68, 60
10, 27411, Note_on_c, 8, 65, 60
10, 27511, Note_on_c, 8, 65, 0
10, 27511, Note_on_c, 8, 68, 0
10, 27521, Note_on_c, 8, 67, 60
10, 27621, Note_on_c, 8, 67, 0
10, 27633, Note_on_c, 8, 67, 60
10, 27633, Note_on_c, 8, 60, 60
10, 27733, Note_on_c, 8, 60, 0
10, 27733, Note_on_c, 8, 67, 0
10, 27743, Note_on_c, 8, 65, 60
10, 27743, Note_on_c, 8, 60, 60
10, 27843, Note_on_c, 8, 60, 0
10, 27843, Note_on_c, 8, 65, 0
10, 44280, Control_c, 8, 11, 55
10, 44307, Note_on_c, 8, 60, 60
10, 44685, Note_on_c, 8, 65, 50
10, 44692, Note_on_c, 8, 60, 0
10, 44817, Note_on_c, 8, 63, 50
10, 44825, Note_on_c, 8, 65, 0
10, 45335, Note_on_c, 8, 56, 50
10, 45347, Note_on_c, 8, 63, 0
10, 45435, Note_on_c, 8, 56, 0
10, 93797, Control_c, 8, 11, 55
10, 93797, Note_on_c, 8, 67, 70
10, 93846, Control_c, 8, 11, 56
10, 93895, Control_c, 8, 11, 57
10, 93944, Control_c, 8, 11, 58
10, 93993, Control_c, 8, 11, 59
10, 94037, Note_on_c, 8, 67, 0
10, 94042, Control_c, 8, 11, 60
10, 94067, Note_on_c, 8, 67, 70
10, 94091, Control_c, 8, 11, 61
10, 94141, Control_c, 8, 11, 62
10, 94177, Note_on_c, 8, 67, 0
10, 94190, Control_c, 8, 11, 63
10, 94206, Note_on_c, 8, 67, 70
10, 94239, Control_c, 8, 11, 64
10, 94288, Control_c, 8, 11, 65
10, 94337, Control_c, 8, 11, 66
10, 94386, Control_c, 8, 11, 67
10, 94435, Control_c, 8, 11, 68
10, 94485, Control_c, 8, 11, 69
10, 94534, Control_c, 8, 11, 70
10, 94583, Control_c, 8, 11, 71
10, 94632, Control_c, 8, 11, 72
10, 94681, Control_c, 8, 11, 73
10, 94730, Control_c, 8, 11, 74
10, 94780, Control_c, 8, 11, 75
10, 94780, Note_on_c, 8, 63, 70
10, 94780, Note_on_c, 8, 60, 70
10, 94786, Note_on_c, 8, 67, 0
10, 95080, Note_on_c, 8, 60, 0
10, 95080, Note_on_c, 8, 63, 0
10, 95100, Note_on_c, 8, 63, 60
10, 95100, Note_on_c, 8, 60, 55
10, 95170, Note_on_c, 8, 63, 0
10, 95180, Note_on_c, 8, 69, 75
10, 95340, Note_on_c, 8, 67, 65
10, 95340, Note_on_c, 8, 62, 55
10, 95345, Note_on_c, 8, 69, 0
10, 95350, Note_on_c, 8, 60, 0
10, 95410, Note_on_c, 8, 67, 0
10, 95410, Note_on_c, 8, 62, 0
10, 95420, Note_on_c, 8, 67, 65
10, 95420, Note_on_c, 8, 62, 55
10, 95730, Note_on_c, 8, 62, 0
10, 95730, Note_on_c, 8, 67, 0
10, 95740, Note_on_c, 8, 67, 65
10, 95890, Note_on_c, 8, 67, 0
10, 95900, Note_on_c, 8, 67, 60
10, 95900, Note_on_c, 8, 60, 55
10, 95980, Note_on_c, 8, 65, 60
10, 95980, Note_on_c, 8, 57, 55
10, 95990, Note_on_c, 8, 60, 0
10, 95990, Note_on_c, 8, 67, 0
10, 96050, Note_on_c, 8, 65, 0
10, 96050, Note_on_c, 8, 57, 0
10, 96060, Note_on_c, 8, 65, 60
10, 96060, Note_on_c, 8, 60, 60
10, 96370, Note_on_c, 8, 60, 0
10, 96370, Note_on_c, 8, 65, 0
10, 96380, Note_on_c, 8, 65, 69
10, 96380, Note_on_c, 8, 62, 69
10, 96410, Note_on_c, 8, 62, 0
10, 96410, Note_on_c, 8, 65, 0
10, 96420, Note_on_c, 8, 68, 66
10, 96420, Note_on_c, 8, 65, 66
10, 96500, Note_on_c, 8, 67, 66
10, 96500, Note_on_c, 8, 63, 66
10, 96510, Note_on_c, 8, 65, 0
10, 96510, Note_on_c, 8, 68, 0
10, 96540, Note_on_c, 8, 65, 66
10, 96545, Note_on_c, 8, 67, 0
10, 96545, Note_on_c, 8, 63, 0
10, 96570, Note_on_c, 8, 65, 0
10, 96580, Note_on_c, 8, 68, 66
10, 96580, Note_on_c, 8, 65, 66
10, 96660, Note_on_c, 8, 67, 64
10, 96660, Note_on_c, 8, 63, 64
10, 96665, Note_on_c, 8, 65, 0
10, 96665, Note_on_c, 8, 68, 0
10, 96690, Note_on_c, 8, 67, 0
10, 96690, Note_on_c, 8, 63, 0
10, 96700, Note_on_c, 8, 67, 62
10, 96700, Note_on_c, 8, 64, 62
10, 96730, Note_on_c, 8, 64, 0
10, 96730, Note_on_c, 8, 67, 0
10, 96740, Note_on_c, 8, 67, 75
10, 96820, Note_on_c, 8, 72, 62
10, 96820, Note_on_c, 8, 65, 62
10, 96830, Note_on_c, 8, 67, 0
10, 96860, Note_on_c, 8, 67, 62
10, 96865, Note_on_c, 8, 65, 0
10, 96865, Note_on_c, 8, 72, 0
10, 96890, Note_on_c, 8, 67, 0
10, 96900, Note_on_c, 8, 67, 75
10, 96980, Note_on_c, 8, 72, 62
10, 96980, Note_on_c, 8, 65, 62
10, 96990, Note_on_c, 8, 67, 0
10, 97020, Note_on_c, 8, 68, 62
10, 97025, Note_on_c, 8, 65, 0
10, 97025, Note_on_c, 8, 72, 0
10, 97100, Note_on_c, 8, 67, 62
10, 97110, Note_on_c, 8, 68, 0
10, 97190, Note_on_c, 8, 67, 0
10, 99820, Note_on_c, 8, 67, 60
10, 99855, Note_on_c, 8, 67, 0
10, 99860, Note_on_c, 8, 67, 60
10, 99895, Note_on_c, 8, 67, 0
10, 99900, Note_on_c, 8, 67, 60
10, 99935, Note_on_c, 8, 67, 0
10, 112075, Control_c, 8, 11, 65
10, 112075, Note_on_c, 8, 65, 60
10, 112105, Note_on_c, 8, 57, 70
10, 112110, Note_on_c, 8, 65, 0
10, 112207, Note_on_c, 8, 58, 65
10, 112210, Note_on_c, 8, 57, 0
10, 112238, Note_on_c, 8, 60, 60
10, 112242, Note_on_c, 8, 58, 0
10, 112535, Note_on_c, 8, 58, 50
10, 112543, Note_on_c, 8, 60, 0
10, 112775, Note_on_c, 8, 58, 0
10, 132142, Control_c, 8, 11, 70
10, 132142, Note_on_c, 8, 72, 60
10, 132142, Note_on_c, 8, 60, 60
10, 132192, Note_on_c, 8, 60, 0
10, 132192, Note_on_c, 8, 72, 0
10, 132232, Note_on_c, 8, 72, 60
10, 132232, Note_on_c, 8, 60, 60
10, 132254, Note_on_c, 8, 60, 0
10, 132254, Note_on_c, 8, 72, 0
10, 132262, Note_on_c, 8, 72, 60
10, 132262, Note_on_c, 8, 60, 60
10, 132312, Note_on_c, 8, 60, 0
10, 132312, Note_on_c, 8, 72, 0
10, 132472, Note_on_c, 8, 72, 60
10, 132472, Note_on_c, 8, 60, 60
10, 132494, Note_on_c, 8, 60, 0
10, 132494, Note_on_c, 8, 72, 0
10, 132502, Note_on_c, 8, 72, 60
10, 132502, Note_on_c, 8, 60, 60
10, 132552, Note_on_c, 8, 60, 0
10, 132552, Note_on_c, 8, 72, 0
10, 132712, Note_on_c, 8, 72, 60
10, 132712, Note_on_c, 8, 60, 60
10, 132734, Note_on_c, 8, 60, 0
10, 132734, Note_on_c, 8, 72, 0
10, 132742, Note_on_c, 8, 72, 60
10, 132742, Note_on_c, 8, 60, 60
10, 132982, Note_on_c, 8, 65, 60
10, 132982, Note_on_c, 8, 59, 60
10, 132992, Note_on_c, 8, 60, 0
10, 132992, Note_on_c, 8, 72, 0
10, 133102, Note_on_c, 8, 60, 60
10, 133112, Note_on_c, 8, 65, 0
10, 133112, Note_on_c, 8, 59, 0
10, 133152, Note_on_c, 8, 60, 0
10, 133192, Note_on_c, 8, 72, 60
10, 133192, Note_on_c, 8, 60, 60
10, 133214, Note_on_c, 8, 60, 0
10, 133214, Note_on_c, 8, 72, 0
10, 133222, Note_on_c, 8, 60, 60
10, 133222, Note_on_c, 8, 72, 60
10, 133272, Note_on_c, 8, 72, 0
10, 133272, Note_on_c, 8, 60, 0
10, 133432, Note_on_c, 8, 72, 60
10, 133432, Note_on_c, 8, 60, 60
10, 133454, Note_on_c, 8, 60, 0
10, 133454, Note_on_c, 8, 72, 0
10, 133462, Note_on_c, 8, 72, 60
10, 133462, Note_on_c, 8, 60, 60
10, 133512, Note_on_c, 8, 60, 0
10, 133512, Note_on_c, 8, 72, 0
10, 133672, Note_on_c, 8, 72, 60
10, 133672, Note_on_c, 8, 60, 60
10, 133694, Note_on_c, 8, 60, 0
10, 133694, Note_on_c, 8, 72, 0
10, 133702, Note_on_c, 8, 72, 60
10, 133702, Note_on_c, 8, 60, 60
10, 133942, Note_on_c, 8, 65, 60
10, 133942, Note_on_c, 8, 59, 60
10, 133952, Note_on_c, 8, 60, 0
10, 133952, Note_on_c, 8, 72, 0
10, 134062, Note_on_c, 8, 60, 60
10, 134072, Note_on_c, 8, 65, 0
10, 134072, Note_on_c, 8, 59, 0
10, 134112, Note_on_c, 8, 60, 0
10, 134152, Note_on_c, 8, 72, 60
10, 134152, Note_on_c, 8, 60, 60
10, 134174, Note_on_c, 8, 60, 0
10, 134174, Note_on_c, 8, 72, 0
10, 134182, Note_on_c, 8, 72, 60
10, 134182, Note_on_c, 8, 60, 60
10, 134252, Note_on_c, 8, 60, 0
10, 134252, Note_on_c, 8, 72, 0
10, 134392, Note_on_c, 8, 72, 60
10, 134392, Note_on_c, 8, 60, 60
10, 134414, Note_on_c, 8, 60, 0
10, 134414, Note_on_c, 8, 72, 0
10, 134422, Note_on_c, 8, 72, 60
10, 134422, Note_on_c, 8, 60, 60
10, 134472, Note_on_c, 8, 60, 0
10, 134472, Note_on_c, 8, 72, 0
10, 135112, Note_on_c, 8, 63, 60
10, 135134, Note_on_c, 8, 63, 0
10, 135142, Note_on_c, 8, 63, 60
10, 135192, Note_on_c, 8, 63, 0
10, 135232, Note_on_c, 8, 63, 60
10, 135254, Note_on_c, 8, 63, 0
10, 135262, Note_on_c, 8, 72, 60
10, 135262, Note_on_c, 8, 63, 60
10, 135382, Note_on_c, 8, 64, 60
10, 135392, Note_on_c, 8, 63, 0
10, 135492, Note_on_c, 8, 72, 0
10, 135502, Note_on_c, 8, 72, 60
10, 135502, Note_on_c, 8, 65, 60
10, 135512, Note_on_c, 8, 64, 0
10, 135612, Note_on_c, 8, 72, 0
10, 135622, Note_on_c, 8, 72, 60
10, 135622, Note_on_c, 8, 67, 60
10, 135632, Note_on_c, 8, 65, 0
10, 135732, Note_on_c, 8, 72, 0
10, 135742, Note_on_c, 8, 72, 60
10, 135742, Note_on_c, 8, 68, 60
10, 135752, Note_on_c, 8, 67, 0
10, 135852, Note_on_c, 8, 68, 0
10, 135852, Note_on_c, 8, 72, 0
10, 135862, Note_on_c, 8, 68, 60
10, 135862, Note_on_c, 8, 65, 60
10, 135982, Note_on_c, 8, 67, 60
10, 135992, Note_on_c, 8, 65, 0
10, 135992, Note_on_c, 8, 68, 0
10, 136032, Note_on_c, 8, 67, 0
10, 136072, Note_on_c, 8, 67, 60
10, 136094, Note_on_c, 8, 67, 0
10, 136102, Note_on_c, 8, 67, 60
10, 136152, Note_on_c, 8, 67, 0
10, 136312, Note_on_c, 8, 67, 60
10, 136334, Note_on_c, 8, 67, 0
10, 136342, Note_on_c, 8, 67, 60
10, 136392, Note_on_c, 8, 67, 0
10, 136552, Note_on_c, 8, 67, 60
10, 136574, Note_on_c, 8, 67, 0
10, 136582, Note_on_c, 8, 67, 60
10, 136632, Note_on_c, 8, 67, 0
10, 136792, Note_on_c, 8, 67, 60
10, 136814, Note_on_c, 8, 67, 0
10, 136822, Note_on_c, 8, 67, 60
10, 136872, Note_on_c, 8, 67, 0
10, 136912, Note_on_c, 8, 67, 60
10, 136942, Note_on_c, 8, 72, 60
10, 136947, Note_on_c, 8, 67, 0
10, 136992, Note_on_c, 8, 72, 0
10, 139206, Control_c, 8, 11, 50
10, 139206, Note_on_c, 8, 63, 60
10, 140166, Note_on_c, 8, 63, 0
10, 177544, Control_c, 8, 11, 60
10, 177544, Note_on_c, 8, 60, 60
10, 177794, Note_on_c, 8, 60, 0
10, 177816, Note_on_c, 8, 67, 70
10, 177816, Note_on_c, 8, 60, 60
10, 178381, Control_c, 8, 11, 80
10, 178381, Note_on_c, 8, 68, 80
10, 178381, Note_on_c, 8, 65, 70
10, 178386, Note_on_c, 8, 60, 0
10, 178386, Note_on_c, 8, 67, 0
10, 178851, Note_on_c, 8, 68, 0
10, 178851, Note_on_c, 8, 65, 0
10, 178861, Note_on_c, 8, 68, 80
10, 178861, Note_on_c, 8, 65, 70
10, 179091, Note_on_c, 8, 65, 0
10, 179091, Note_on_c, 8, 68, 0
10, 179101, Note_on_c, 8, 68, 80
10, 179101, Note_on_c, 8, 65, 70
10, 179331, Note_on_c, 8, 65, 0
10, 179331, Note_on_c, 8, 68, 0
10, 179341, Note_on_c, 8, 68, 80
10, 179341, Note_on_c, 8, 65, 70
10, 179811, Note_on_c, 8, 65, 0
10, 179811, Note_on_c, 8, 68, 0
10, 179821, Note_on_c, 8, 68, 80
10, 179821, Note_on_c, 8, 65, 70
10, 180051, Note_on_c, 8, 65, 0
10, 180051, Note_on_c, 8, 68, 0
10, 180061, Note_on_c, 8, 68, 80
10, 180061, Note_on_c, 8, 65, 70
10, 180171, Note_on_c, 8, 65, 0
10, 180171, Note_on_c, 8, 68, 0
10, 180181, Note_on_c, 8, 68, 80
10, 180181, Note_on_c, 8, 65, 70
10, 180291, Note_on_c, 8, 65, 0
10, 180291, Note_on_c, 8, 68, 0
10, 180301, Note_on_c, 8, 68, 80
10, 180301, Note_on_c, 8, 65, 70
10, 180411, Note_on_c, 8, 65, 0
10, 180411, Note_on_c, 8, 68, 0
10, 180901, Note_on_c, 8, 67, 70
10, 180951, Note_on_c, 8, 67, 0
10, 181021, Note_on_c, 8, 72, 70
10, 181021, Note_on_c, 8, 65, 70
10, 181071, Note_on_c, 8, 65, 0
10, 181071, Note_on_c, 8, 72, 0
10, 182551, Control_c, 8, 11, 80
10, 182551, Note_on_c, 8, 67, 70
10, 182551, Note_on_c, 8, 60, 70
10, 182601, Note_on_c, 8, 60, 0
10, 182601, Note_on_c, 8, 67, 0
10, 182671, Note_on_c, 8, 68, 70
10, 182671, Note_on_c, 8, 65, 70
10, 182721, Note_on_c, 8, 65, 0
10, 182721, Note_on_c, 8, 68, 0
10, 183031, Note_on_c, 8, 67, 70
10, 183031, Note_on_c, 8, 60, 70
10, 183081, Note_on_c, 8, 60, 0
10, 183081, Note_on_c, 8, 67, 0
10, 183151, Note_on_c, 8, 68, 70
10, 183151, Note_on_c, 8, 65, 70
10, 183201, Note_on_c, 8, 65, 0
10, 183201, Note_on_c, 8, 68, 0
10, 183391, Note_on_c, 8, 72, 80
10, 183391, Note_on_c, 8, 65, 80
10, 183441, Note_on_c, 8, 65, 0
10, 183441, Note_on_c, 8, 72, 0
10, 183631, Note_on_c, 8, 53, 80
10, 184111, Note_on_c, 8, 53, 0
10, 184664, Control_c, 8, 121, 0
10, 184664, End_track
11, 0, Start_track
11, 0, MIDI_port, 0
11, 0, Title_t, "Trumpets"
11, 0, Program_c, 10, 56
11, 0, Control_c, 10, 7, 110
11, 0, Control_c, 10, 10, 80
11, 50, Control_c, 10, 121, 0
11, 100, Control_c, 10, 91, 100
11, 110, Control_c, 10, 11, 75
11, 2108, Note_on_c, 10, 70, 80
11, 2178, Note_on_c, 10, 70, 0
11, 2217, Note_on_c, 10, 70, 80
11, 2267, Note_on_c, 10, 70, 0
11, 2555, Note_on_c, 10, 70, 80
11, 2625, Note_on_c, 10, 70, 0
11, 2658, Note_on_c, 10, 70, 80
11, 2708, Note_on_c, 10, 70, 0
11, 3186, Note_on_c, 10, 72, 80
11, 3276, Note_on_c, 10, 72, 0
11, 3290, Note_on_c, 10, 72, 80
11, 3380, Note_on_c, 10, 72, 0
11, 3388, Note_on_c, 10, 72, 80
11, 3388, Note_on_c, 10, 65, 80
11, 3508, Note_on_c, 10, 65, 0
11, 3508, Note_on_c, 10, 72, 0
11, 6480, Control_c, 10, 11, 60
11, 6530, Note_on_c, 10, 74, 60
11, 6746, Note_on_c, 10, 72, 60
11, 6756, Note_on_c, 10, 74, 0
11, 6856, Note_on_c, 10, 72, 0
11, 6965, Note_on_c, 10, 70, 60
11, 7185, Note_on_c, 10, 65, 60
11, 7190, Note_on_c, 10, 70, 0
11, 7295, Note_on_c, 10, 65, 0
11, 8118, Note_on_c, 10, 70, 60
11, 8118, Note_on_c, 10, 58, 60
11, 8228, Note_on_c, 10, 58, 0
11, 8228, Note_on_c, 10, 70, 0
11, 8544, Note_on_c, 10, 70, 60
11, 8544, Note_on_c, 10, 58, 60
11, 8654, Note_on_c, 10, 58, 0
11, 8654, Note_on_c, 10, 70, 0
11, 8974, Note_on_c, 10, 70, 60
11, 8974, Note_on_c, 10, 58, 60
11, 9084, Note_on_c, 10, 58, 0
11, 9084, Note_on_c, 10, 70, 0
11, 9404, Note_on_c, 10, 72, 60
11, 9514, Note_on_c, 10, 72, 0
11, 11186, Note_on_c, 10, 65, 60
11, 11376, Note_on_c, 10, 65, 0
11, 11499, Note_on_c, 10, 72, 60
11, 11609, Note_on_c, 10, 72, 0
11, 12970, Note_on_c, 10, 65, 80
11, 13095, Note_on_c, 10, 65, 0
11, 15360, Control_c, 10, 11, 70
11, 15408, Note_on_c, 10, 72, 70
11, 15488, Note_on_c, 10, 72, 0
11, 15518, Note_on_c, 10, 72, 70
11, 15638, Note_on_c, 10, 72, 0
11, 21890, Control_c, 10, 11, 55
11, 21911, Note_on_c, 10, 68, 60
11, 22131, Note_on_c, 10, 70, 60
11, 22136, Note_on_c, 10, 68, 0
11, 22231, Note_on_c, 10, 70, 0
11, 22245, Note_on_c, 10, 70, 70
11, 22345, Note_on_c, 10, 70, 0
11, 26160, Control_c, 10, 11, 70
11, 26199, Note_on_c, 10, 70, 75
11, 26419, Note_on_c, 10, 70, 0
11, 26419, Note_on_c, 10, 68, 80
11, 26519, Note_on_c, 10, 68, 0
11, 27085, Note_on_c, 10, 72, 70
11, 27265, Note_on_c, 10, 72, 0
11, 27295, Note_on_c, 10, 72, 80
11, 27295, Note_on_c, 10, 65, 80
11, 27375, Note_on_c, 10, 65, 0
11, 27375, Note_on_c, 10, 72, 0
11, 27411, Note_on_c, 10, 65, 80
11, 27491, Note_on_c, 10, 65, 0
11, 27521, Note_on_c, 10, 70, 80
11, 27601, Note_on_c, 10, 70, 0
11, 27633, Note_on_c, 10, 70, 80
11, 27713, Note_on_c, 10, 70, 0
11, 27743, Note_on_c, 10, 68, 80
11, 27823, Note_on_c, 10, 68, 0
11, 94680, Control_c, 10, 11, 75
11, 94780, Note_on_c, 10, 72, 70
11, 94810, Note_on_c, 10, 72, 0
11, 94820, Note_on_c, 10, 72, 70
11, 94890, Note_on_c, 10, 72, 0
11, 94900, Note_on_c, 10, 72, 70
11, 94916, Note_on_c, 10, 72, 0
11, 94920, Note_on_c, 10, 72, 70
11, 94936, Note_on_c, 10, 72, 0
11, 94940, Note_on_c, 10, 72, 70
11, 94970, Note_on_c, 10, 72, 0
11, 94980, Note_on_c, 10, 72, 70
11, 95010, Note_on_c, 10, 72, 0
11, 95020, Note_on_c, 10, 72, 70
11, 95050, Note_on_c, 10, 72, 0
11, 95060, Note_on_c, 10, 72, 70
11, 95090, Note_on_c, 10, 72, 0
11, 95100, Note_on_c, 10, 72, 70
11, 95190, Note_on_c, 10, 72, 0
11, 95900, Note_on_c, 10, 72, 70
11, 95980, Note_on_c, 10, 72, 70
11, 95990, Note_on_c, 10, 72, 0
11, 96060, Note_on_c, 10, 77, 70
11, 96060, Note_on_c, 10, 65, 70
11, 96070, Note_on_c, 10, 72, 0
11, 96090, Note_on_c, 10, 65, 0
11, 96090, Note_on_c, 10, 77, 0
11, 96100, Note_on_c, 10, 77, 85
11, 96100, Note_on_c, 10, 65, 85
11, 96180, Note_on_c, 10, 77, 70
11, 96180, Note_on_c, 10, 65, 70
11, 96190, Note_on_c, 10, 65, 0
11, 96190, Note_on_c, 10, 77, 0
11, 96196, Note_on_c, 10, 65, 0
11, 96196, Note_on_c, 10, 77, 0
11, 96200, Note_on_c, 10, 77, 70
11, 96200, Note_on_c, 10, 65, 70
11, 96216, Note_on_c, 10, 65, 0
11, 96216, Note_on_c, 10, 77, 0
11, 96220, Note_on_c, 10, 77, 70
11, 96220, Note_on_c, 10, 65, 70
11, 96250, Note_on_c, 10, 65, 0
11, 96250, Note_on_c, 10, 77, 0
11, 96260, Note_on_c, 10, 77, 70
11, 96260, Note_on_c, 10, 65, 70
11, 96290, Note_on_c, 10, 65, 0
11, 96290, Note_on_c, 10, 77, 0
11, 96300, Note_on_c, 10, 77, 70
11, 96300, Note_on_c, 10, 65, 70
11, 96330, Note_on_c, 10, 65, 0
11, 96330, Note_on_c, 10, 77, 0
11, 96340, Note_on_c, 10, 77, 70
11, 96340, Note_on_c, 10, 65, 70
11, 96370, Note_on_c, 10, 65, 0
11, 96370, Note_on_c, 10, 77, 0
11, 96380, Note_on_c, 10, 77, 70
11, 96380, Note_on_c, 10, 65, 70
11, 96450, Note_on_c, 10, 65, 0
11, 96450, Note_on_c, 10, 77, 0
11, 96940, Note_on_c, 10, 72, 70
11, 97010, Note_on_c, 10, 72, 0
11, 97020, Note_on_c, 10, 77, 70
11, 97020, Note_on_c, 10, 65, 70
11, 97090, Note_on_c, 10, 65, 0
11, 97090, Note_on_c, 10, 77, 0
11, 97100, Note_on_c, 10, 72, 70
11, 97170, Note_on_c, 10, 72, 0
11, 132142, Control_c, 10, 11, 60
11, 132142, Note_on_c, 10, 72, 60
11, 132192, Note_on_c, 10, 72, 0
11, 132232, Note_on_c, 10, 72, 60
11, 132254, Note_on_c, 10, 72, 0
11, 132262, Note_on_c, 10, 72, 70
11, 132312, Note_on_c, 10, 72, 0
11, 132472, Note_on_c, 10, 72, 60
11, 132494, Note_on_c, 10, 72, 0
11, 132502, Note_on_c, 10, 72, 70
11, 132552, Note_on_c, 10, 72, 0
11, 132712, Note_on_c, 10, 72, 60
11, 132734, Note_on_c, 10, 72, 0
11, 132742, Note_on_c, 10, 72, 70
11, 132792, Note_on_c, 10, 72, 0
11, 133192, Note_on_c, 10, 72, 60
11, 133214, Note_on_c, 10, 72, 0
11, 133222, Note_on_c, 10, 72, 70
11, 133272, Note_on_c, 10, 72, 0
11, 133432, Note_on_c, 10, 72, 60
11, 133454, Note_on_c, 10, 72, 0
11, 133462, Note_on_c, 10, 72, 70
11, 133512, Note_on_c, 10, 72, 0
11, 133672, Note_on_c, 10, 72, 60
11, 133694, Note_on_c, 10, 72, 0
11, 133702, Note_on_c, 10, 72, 70
11, 133752, Note_on_c, 10, 72, 0
11, 134152, Note_on_c, 10, 72, 60
11, 134174, Note_on_c, 10, 72, 0
11, 134182, Note_on_c, 10, 72, 70
11, 134232, Note_on_c, 10, 72, 0
11, 134392, Note_on_c, 10, 72, 60
11, 134414, Note_on_c, 10, 72, 0
11, 134422, Note_on_c, 10, 72, 70
11, 134472, Note_on_c, 10, 72, 0
11, 135112, Note_on_c, 10, 75, 70
11, 135134, Note_on_c, 10, 75, 0
11, 135142, Note_on_c, 10, 75, 70
11, 135192, Note_on_c, 10, 75, 0
11, 135232, Note_on_c, 10, 75, 70
11, 135254, Note_on_c, 10, 75, 0
11, 135262, Note_on_c, 10, 75, 70
11, 135312, Note_on_c, 10, 75, 0
11, 135322, Note_on_c, 10, 72, 70
11, 135344, Note_on_c, 10, 72, 0
11, 135352, Note_on_c, 10, 72, 70
11, 135374, Note_on_c, 10, 72, 0
11, 135382, Note_on_c, 10, 72, 70
11, 135432, Note_on_c, 10, 72, 0
11, 135442, Note_on_c, 10, 72, 70
11, 135492, Note_on_c, 10, 72, 0
11, 135502, Note_on_c, 10, 72, 70
11, 135552, Note_on_c, 10, 72, 0
11, 135562, Note_on_c, 10, 72, 70
11, 135584, Note_on_c, 10, 72, 0
11, 135592, Note_on_c, 10, 72, 70
11, 135614, Note_on_c, 10, 72, 0
11, 135622, Note_on_c, 10, 72, 70
11, 135672, Note_on_c, 10, 72, 0
11, 135682, Note_on_c, 10, 72, 70
11, 135732, Note_on_c, 10, 72, 0
11, 135742, Note_on_c, 10, 72, 70
11, 135792, Note_on_c, 10, 72, 0
11, 135802, Note_on_c, 10, 72, 70
11, 135852, Note_on_c, 10, 72, 0
11, 135862, Note_on_c, 10, 77, 70
11, 135862, Note_on_c, 10, 72, 70
11, 135912, Note_on_c, 10, 72, 0
11, 135912, Note_on_c, 10, 77, 0
11, 135922, Note_on_c, 10, 77, 70
11, 135922, Note_on_c, 10, 72, 70
11, 135972, Note_on_c, 10, 72, 0
11, 135972, Note_on_c, 10, 77, 0
11, 135982, Note_on_c, 10, 77, 70
11, 135982, Note_on_c, 10, 70, 70
11, 136032, Note_on_c, 10, 70, 0
11, 136032, Note_on_c, 10, 77, 0
11, 136072, Note_on_c, 10, 77, 70
11, 136072, Note_on_c, 10, 70, 70
11, 136094, Note_on_c, 10, 70, 0
11, 136094, Note_on_c, 10, 77, 0
11, 136102, Note_on_c, 10, 77, 70
11, 136102, Note_on_c, 10, 70, 70
11, 136152, Note_on_c, 10, 70, 0
11, 136152, Note_on_c, 10, 77, 0
11, 136312, Note_on_c, 10, 77, 70
11, 136312, Note_on_c, 10, 74, 70
11, 136334, Note_on_c, 10, 74, 0
11, 136334, Note_on_c, 10, 77, 0
11, 136342, Note_on_c, 10, 77, 70
11, 136342, Note_on_c, 10, 74, 70
11, 136392, Note_on_c, 10, 74, 0
11, 136392, Note_on_c, 10, 77, 0
11, 136552, Note_on_c, 10, 72, 70
11, 136574, Note_on_c, 10, 72, 0
11, 136582, Note_on_c, 10, 72, 70
11, 136632, Note_on_c, 10, 72, 0
11, 178381, Control_c, 10, 11, 70
11, 178381, Note_on_c, 10, 77, 60
11, 178381, Note_on_c, 10, 65, 60
11, 178431, Note_on_c, 10, 65, 0
11, 178431, Note_on_c, 10, 77, 0
11, 178441, Note_on_c, 10, 77, 60
11, 178441, Note_on_c, 10, 65, 60
11, 178531, Note_on_c, 10, 65, 0
11, 178531, Note_on_c, 10, 77, 0
11, 178561, Note_on_c, 10, 77, 60
11, 178561, Note_on_c, 10, 65, 60
11, 178583, Note_on_c, 10, 65, 0
11, 178583, Note_on_c, 10, 77, 0
11, 178591, Note_on_c, 10, 77, 60
11, 178591, Note_on_c, 10, 65, 60
11, 178613, Note_on_c, 10, 65, 0
11, 178613, Note_on_c, 10, 77, 0
11, 178621, Note_on_c, 10, 77, 60
11, 178621, Note_on_c, 10, 65, 60
11, 178666, Note_on_c, 10, 65, 0
11, 178666, Note_on_c, 10, 77, 0
11, 178681, Note_on_c, 10, 77, 60
11, 178681, Note_on_c, 10, 65, 60
11, 178726, Note_on_c, 10, 65, 0
11, 178726, Note_on_c, 10, 77, 0
11, 178741, Note_on_c, 10, 77, 60
11, 178741, Note_on_c, 10, 65, 60
11, 178786, Note_on_c, 10, 65, 0
11, 178786, Note_on_c, 10, 77, 0
11, 178801, Note_on_c, 10, 77, 60
11, 178801, Note_on_c, 10, 65, 60
11, 178846, Note_on_c, 10, 65, 0
11, 178846, Note_on_c, 10, 77, 0
11, 178861, Note_on_c, 10, 77, 60
11, 178861, Note_on_c, 10, 65, 60
11, 179091, Note_on_c, 10, 65, 0
11, 179091, Note_on_c, 10, 77, 0
11, 179101, Note_on_c, 10, 77, 60
11, 179101, Note_on_c, 10, 65, 60
11, 179191, Note_on_c, 10, 65, 0
11, 179191, Note_on_c, 10, 77, 0
11, 179221, Note_on_c, 10, 77, 60
11, 179221, Note_on_c, 10, 65, 60
11, 179311, Note_on_c, 10, 65, 0
11, 179311, Note_on_c, 10, 77, 0
11, 179341, Note_on_c, 10, 77, 60
11, 179341, Note_on_c, 10, 65, 60
11, 179391, Note_on_c, 10, 65, 0
11, 179391, Note_on_c, 10, 77, 0
11, 179401, Note_on_c, 10, 77, 60
11, 179401, Note_on_c, 10, 65, 60
11, 179491, Note_on_c, 10, 65, 0
11, 179491, Note_on_c, 10, 77, 0
11, 179521, Note_on_c, 10, 77, 60
11, 179521, Note_on_c, 10, 77, 60
11, 179543, Note_on_c, 10, 77, 0
11, 179543, Note_on_c, 10, 77, 0
11, 179581, Note_on_c, 10, 77, 60
11, 179581, Note_on_c, 10, 65, 60
11, 179581, Note_on_c, 10, 77, 60
11, 179581, Note_on_c, 10, 65, 60
11, 179603, Note_on_c, 10, 65, 0
11, 179603, Note_on_c, 10, 77, 0
11, 179626, Note_on_c, 10, 65, 0
11, 179626, Note_on_c, 10, 77, 0
11, 179641, Note_on_c, 10, 77, 60
11, 179641, Note_on_c, 10, 65, 60
11, 179686, Note_on_c, 10, 65, 0
11, 179686, Note_on_c, 10, 77, 0
11, 179701, Note_on_c, 10, 77, 60
11, 179701, Note_on_c, 10, 65, 60
11, 179746, Note_on_c, 10, 65, 0
11, 179746, Note_on_c, 10, 77, 0
11, 179761, Note_on_c, 10, 77, 60
11, 179761, Note_on_c, 10, 65, 60
11, 179761, Note_on_c, 10, 77, 60
11, 179761, Note_on_c, 10, 65, 60
11, 179806, Note_on_c, 10, 65, 0
11, 179806, Note_on_c, 10, 77, 0
11, 179806, Note_on_c, 10, 65, 0
11, 179806, Note_on_c, 10, 77, 0
11, 179821, Note_on_c, 10, 77, 60
11, 179821, Note_on_c, 10, 65, 60
11, 179866, Note_on_c, 10, 65, 0
11, 179866, Note_on_c, 10, 77, 0
11, 179941, Note_on_c, 10, 77, 60
11, 179941, Note_on_c, 10, 65, 60
11, 179986, Note_on_c, 10, 65, 0
11, 179986, Note_on_c, 10, 77, 0
11, 180001, Note_on_c, 10, 77, 60
11, 180001, Note_on_c, 10, 65, 60
11, 180046, Note_on_c, 10, 65, 0
11, 180046, Note_on_c, 10, 77, 0
11, 180061, Note_on_c, 10, 77, 60
11, 180061, Note_on_c, 10, 65, 60
11, 180151, Note_on_c, 10, 65, 0
11, 180151, Note_on_c, 10, 77, 0
11, 180181, Note_on_c, 10, 77, 60
11, 180181, Note_on_c, 10, 65, 60
11, 180271, Note_on_c, 10, 65, 0
11, 180271, Note_on_c, 10, 77, 0
11, 180301, Note_on_c, 10, 77, 60
11, 180301, Note_on_c, 10, 65, 60
11, 180391, Note_on_c, 10, 65, 0
11, 180391, Note_on_c, 10, 77, 0
11, 182551, Control_c, 10, 11, 80
11, 182551, Note_on_c, 10, 72, 70
11, 182601, Note_on_c, 10, 72, 0
11, 182671, Note_on_c, 10, 72, 70
11, 182671, Note_on_c, 10, 65, 70
11, 182721, Note_on_c, 10, 65, 0
11, 182721, Note_on_c, 10, 72, 0
11, 183031, Note_on_c, 10, 72, 70
11, 183081, Note_on_c, 10, 72, 0
11, 183151, Note_on_c, 10, 72, 70
11, 183151, Note_on_c, 10, 65, 70
11, 183201, Note_on_c, 10, 65, 0
11, 183201, Note_on_c, 10, 72, 0
11, 183391, Note_on_c, 10, 72, 80
11, 183391, Note_on_c, 10, 65, 80
11, 183441, Note_on_c, 10, 65, 0
11, 183441, Note_on_c, 10, 72, 0
11, 183631, Note_on_c, 10, 65, 80
11, 184111, Note_on_c, 10, 65, 0
11, 184664, Control_c, 10, 121, 0
11, 184664, End_track
12, 0, Start_track
12, 0, MIDI_port, 0
12, 0, Title_t, "Trombones"
12, 0, Program_c, 11, 57
12, 0, Control_c, 11, 7, 110
12, 0, Control_c, 11, 10, 100
12, 50, Control_c, 11, 121, 0
12, 100, Control_c, 11, 91, 100
12, 110, Control_c, 11, 11, 70
12, 2108, Note_on_c, 11, 49, 80
12, 2178, Note_on_c, 11, 49, 0
12, 2217, Note_on_c, 11, 48, 80
12, 2267, Note_on_c, 11, 48, 0
12, 2555, Note_on_c, 11, 49, 80
12, 2625, Note_on_c, 11, 49, 0
12, 2658, Note_on_c, 11, 48, 80
12, 2708, Note_on_c, 11, 48, 0
12, 3186, Note_on_c, 11, 52, 80
12, 3290, Note_on_c, 11, 53, 80
12, 3296, Note_on_c, 11, 52, 0
12, 3350, Note_on_c, 11, 53, 0
12, 3361, Note_on_c, 11, 55, 80
12, 3388, Note_on_c, 11, 55, 0
12, 3388, Note_on_c, 11, 56, 80
12, 3508, Note_on_c, 11, 56, 0
12, 5400, Control_c, 11, 11, 40
12, 5425, Note_on_c, 11, 49, 50
12, 5872, Note_on_c, 11, 48, 53
12, 5880, Note_on_c, 11, 49, 0
12, 6306, Note_on_c, 11, 47, 55
12, 6317, Note_on_c, 11, 48, 0
12, 6530, Note_on_c, 11, 50, 55
12, 6540, Note_on_c, 11, 47, 0
12, 6746, Note_on_c, 11, 51, 55
12, 6756, Note_on_c, 11, 50, 0
12, 7072, Note_on_c, 11, 52, 55
12, 7086, Note_on_c, 11, 51, 0
12, 7185, Note_on_c, 11, 53, 55
12, 7192, Note_on_c, 11, 52, 0
12, 7290, Note_on_c, 11, 51, 55
12, 7295, Note_on_c, 11, 53, 0
12, 7398, Note_on_c, 11, 50, 55
12, 7400, Note_on_c, 11, 51, 0
12, 7508, Note_on_c, 11, 50, 0
12, 7508, Note_on_c, 11, 49, 55
12, 7620, Note_on_c, 11, 48, 55
12, 7623, Note_on_c, 11, 49, 0
12, 7838, Note_on_c, 11, 46, 55
12, 7845, Note_on_c, 11, 48, 0
12, 7952, Note_on_c, 11, 44, 55
12, 7953, Note_on_c, 11, 46, 0
12, 8057, Note_on_c, 11, 43, 55
12, 8067, Note_on_c, 11, 44, 0
12, 8118, Note_on_c, 11, 52, 75
12, 8118, Control_c, 11, 11, 60
12, 8172, Note_on_c, 11, 43, 0
12, 8208, Note_on_c, 11, 52, 0
12, 8223, Note_on_c, 11, 53, 60
12, 8268, Note_on_c, 11, 53, 0
12, 8278, Note_on_c, 11, 55, 60
12, 8323, Note_on_c, 11, 55, 0
12, 8329, Note_on_c, 11, 56, 60
12, 8374, Note_on_c, 11, 56, 0
12, 8384, Note_on_c, 11, 58, 60
12, 8429, Note_on_c, 11, 58, 0
12, 8434, Note_on_c, 11, 59, 60
12, 8479, Note_on_c, 11, 59, 0
12, 8484, Note_on_c, 11, 60, 60
12, 8534, Note_on_c, 11, 60, 0
12, 8544, Note_on_c, 11, 61, 75
12, 8639, Note_on_c, 11, 61, 0
12, 8650, Note_on_c, 11, 60, 60
12, 8695, Note_on_c, 11, 60, 0
12, 8708, Note_on_c, 11, 58, 60
12, 8753, Note_on_c, 11, 58, 0
12, 8759, Note_on_c, 11, 56, 60
12, 8804, Note_on_c, 11, 56, 0
12, 8813, Note_on_c, 11, 55, 60
12, 8858, Note_on_c, 11, 55, 0
12, 8863, Note_on_c, 11, 53, 60
12, 8908, Note_on_c, 11, 53, 0
12, 8918, Note_on_c, 11, 52, 60
12, 8966, Note_on_c, 11, 52, 0
12, 8974, Note_on_c, 11, 52, 80
12, 9070, Note_on_c, 11, 52, 0
12, 9088, Note_on_c, 11, 53, 60
12, 9133, Note_on_c, 11, 53, 0
12, 9145, Note_on_c, 11, 55, 60
12, 9190, Note_on_c, 11, 55, 0
12, 9193, Note_on_c, 11, 56, 60
12, 9238, Note_on_c, 11, 56, 0
12, 9244, Note_on_c, 11, 58, 60
12, 9289, Note_on_c, 11, 58, 0
12, 9292, Note_on_c, 11, 56, 60
12, 9337, Note_on_c, 11, 56, 0
12, 9348, Note_on_c, 11, 57, 60
12, 9393, Note_on_c, 11, 57, 0
12, 9404, Note_on_c, 11, 45, 80
12, 9499, Note_on_c, 11, 45, 0
12, 9516, Note_on_c, 11, 46, 60
12, 9561, Note_on_c, 11, 46, 0
12, 9567, Note_on_c, 11, 48, 60
12, 9612, Note_on_c, 11, 48, 0
12, 9615, Note_on_c, 11, 49, 60
12, 9660, Note_on_c, 11, 49, 0
12, 9665, Note_on_c, 11, 51, 60
12, 9710, Note_on_c, 11, 51, 0
12, 9715, Note_on_c, 11, 49, 60
12, 9760, Note_on_c, 11, 49, 0
12, 9770, Note_on_c, 11, 46, 60
12, 9815, Note_on_c, 11, 46, 0
12, 9883, Note_on_c, 11, 58, 75
12, 10107, Note_on_c, 11, 57, 60
12, 10113, Note_on_c, 11, 58, 0
12, 10202, Note_on_c, 11, 57, 0
12, 10212, Note_on_c, 11, 56, 60
12, 10302, Note_on_c, 11, 56, 0
12, 10320, Note_on_c, 11, 56, 75
12, 10533, Note_on_c, 11, 55, 60
12, 10540, Note_on_c, 11, 56, 0
12, 10623, Note_on_c, 11, 55, 0
12, 10642, Note_on_c, 11, 54, 60
12, 10732, Note_on_c, 11, 54, 0
12, 10752, Note_on_c, 11, 54, 60
12, 10797, Note_on_c, 11, 54, 0
12, 10805, Note_on_c, 11, 53, 60
12, 10850, Note_on_c, 11, 53, 0
12, 10859, Note_on_c, 11, 51, 60
12, 11076, Note_on_c, 11, 50, 60
12, 11079, Note_on_c, 11, 51, 0
12, 11121, Note_on_c, 11, 50, 0
12, 11186, Note_on_c, 11, 49, 75
12, 11356, Note_on_c, 11, 49, 0
12, 11378, Note_on_c, 11, 49, 60
12, 11423, Note_on_c, 11, 49, 0
12, 11499, Note_on_c, 11, 48, 60
12, 11544, Note_on_c, 11, 48, 0
12, 12520, Note_on_c, 11, 58, 60
12, 12640, Note_on_c, 11, 58, 0
12, 12735, Note_on_c, 11, 58, 60
12, 12780, Note_on_c, 11, 58, 0
12, 12847, Note_on_c, 11, 56, 60
12, 12947, Note_on_c, 11, 56, 0
12, 12970, Note_on_c, 11, 44, 80
12, 13095, Note_on_c, 11, 44, 0
12, 15360, Control_c, 11, 11, 60
12, 15388, Note_on_c, 11, 53, 60
12, 15408, Note_on_c, 11, 44, 60
12, 15413, Note_on_c, 11, 53, 0
12, 15490, Note_on_c, 11, 46, 60
12, 15493, Note_on_c, 11, 44, 0
12, 15518, Note_on_c, 11, 48, 60
12, 15522, Note_on_c, 11, 46, 0
12, 15628, Note_on_c, 11, 48, 0
12, 21354, Note_on_c, 11, 57, 50
12, 21574, Note_on_c, 11, 58, 50
12, 21584, Note_on_c, 11, 57, 0
12, 21691, Note_on_c, 11, 56, 50
12, 21694, Note_on_c, 11, 58, 0
12, 21801, Note_on_c, 11, 56, 0
12, 21801, Note_on_c, 11, 55, 50
12, 21911, Note_on_c, 11, 55, 0
12, 21911, Note_on_c, 11, 56, 50
12, 22021, Note_on_c, 11, 56, 0
12, 22021, Note_on_c, 11, 53, 50
12, 22131, Note_on_c, 11, 53, 0
12, 22131, Note_on_c, 11, 55, 50
12, 22241, Note_on_c, 11, 55, 0
12, 22245, Note_on_c, 11, 49, 50
12, 22355, Note_on_c, 11, 49, 0
12, 25680, Control_c, 11, 11, 40
12, 25761, Note_on_c, 11, 52, 60
12, 25981, Note_on_c, 11, 52, 0
12, 25988, Note_on_c, 11, 51, 65
12, 26199, Note_on_c, 11, 50, 70
12, 26208, Note_on_c, 11, 51, 0
12, 26307, Note_on_c, 11, 49, 75
12, 26311, Note_on_c, 11, 50, 0
12, 26419, Note_on_c, 11, 48, 80
12, 26424, Note_on_c, 11, 49, 0
12, 26639, Note_on_c, 11, 48, 0
12, 26653, Note_on_c, 11, 48, 70
12, 26863, Note_on_c, 11, 48, 0
12, 26869, Note_on_c, 11, 46, 70
12, 27064, Note_on_c, 11, 46, 0
12, 27085, Note_on_c, 11, 46, 70
12, 27285, Note_on_c, 11, 46, 0
12, 27295, Note_on_c, 11, 44, 70
12, 27395, Note_on_c, 11, 44, 0
12, 27411, Note_on_c, 11, 49, 70
12, 27511, Note_on_c, 11, 49, 0
12, 27521, Note_on_c, 11, 43, 70
12, 27621, Note_on_c, 11, 43, 0
12, 27633, Note_on_c, 11, 48, 70
12, 27733, Note_on_c, 11, 48, 0
12, 27743, Note_on_c, 11, 53, 70
12, 27843, Note_on_c, 11, 53, 0
12, 94680, Control_c, 11, 11, 65
12, 94780, Note_on_c, 11, 48, 70
12, 94930, Note_on_c, 11, 48, 0
12, 94940, Note_on_c, 11, 48, 70
12, 95020, Note_on_c, 11, 51, 70
12, 95030, Note_on_c, 11, 48, 0
12, 95070, Note_on_c, 11, 51, 0
12, 95080, Note_on_c, 11, 56, 70
12, 95096, Note_on_c, 11, 56, 0
12, 95100, Note_on_c, 11, 60, 70
12, 95170, Note_on_c, 11, 60, 0
12, 95180, Note_on_c, 11, 48, 70
12, 95340, Note_on_c, 11, 47, 75
12, 95345, Note_on_c, 11, 48, 0
12, 95410, Note_on_c, 11, 47, 0
12, 95420, Note_on_c, 11, 46, 75
12, 95660, Note_on_c, 11, 50, 75
12, 95670, Note_on_c, 11, 46, 0
12, 95710, Note_on_c, 11, 50, 0
12, 95720, Note_on_c, 11, 55, 75
12, 95736, Note_on_c, 11, 55, 0
12, 95740, Note_on_c, 11, 58, 75
12, 95810, Note_on_c, 11, 58, 0
12, 95820, Note_on_c, 11, 46, 85
12, 95980, Note_on_c, 11, 45, 70
12, 95985, Note_on_c, 11, 46, 0
12, 96050, Note_on_c, 11, 45, 0
12, 96060, Note_on_c, 11, 44, 70
12, 96090, Note_on_c, 11, 44, 0
12, 96100, Note_on_c, 11, 56, 85
12, 96170, Note_on_c, 11, 56, 0
12, 96180, Note_on_c, 11, 55, 70
12, 96215, Note_on_c, 11, 55, 0
12, 96220, Note_on_c, 11, 53, 70
12, 96255, Note_on_c, 11, 53, 0
12, 96260, Note_on_c, 11, 51, 70
12, 96295, Note_on_c, 11, 51, 0
12, 96300, Note_on_c, 11, 50, 70
12, 96335, Note_on_c, 11, 50, 0
12, 96340, Note_on_c, 11, 48, 70
12, 96375, Note_on_c, 11, 48, 0
12, 96380, Note_on_c, 11, 47, 70
12, 96410, Note_on_c, 11, 47, 0
12, 96420, Note_on_c, 11, 47, 85
12, 96500, Note_on_c, 11, 47, 0
12, 96500, Note_on_c, 11, 48, 70
12, 96530, Note_on_c, 11, 48, 0
12, 96540, Note_on_c, 11, 50, 70
12, 96570, Note_on_c, 11, 50, 0
12, 96580, Note_on_c, 11, 53, 85
12, 96660, Note_on_c, 11, 53, 0
12, 96660, Note_on_c, 11, 51, 70
12, 96690, Note_on_c, 11, 51, 0
12, 96700, Note_on_c, 11, 52, 70
12, 96730, Note_on_c, 11, 52, 0
12, 96740, Note_on_c, 11, 52, 80
12, 96770, Note_on_c, 11, 52, 0
12, 96820, Note_on_c, 11, 53, 70
12, 96850, Note_on_c, 11, 53, 0
12, 96860, Note_on_c, 11, 55, 70
12, 96890, Note_on_c, 11, 55, 0
12, 96900, Note_on_c, 11, 58, 80
12, 96980, Note_on_c, 11, 58, 0
12, 96980, Note_on_c, 11, 56, 70
12, 97010, Note_on_c, 11, 56, 0
12, 97020, Note_on_c, 11, 59, 70
12, 97090, Note_on_c, 11, 59, 0
12, 97100, Note_on_c, 11, 60, 70
12, 97170, Note_on_c, 11, 60, 0
12, 99900, Control_c, 11, 11, 50
12, 99900, Note_on_c, 11, 60, 60
12, 99980, Note_on_c, 11, 55, 60
12, 99985, Note_on_c, 11, 60, 0
12, 100035, Note_on_c, 11, 55, 0
12, 100040, Note_on_c, 11, 56, 60
12, 100056, Note_on_c, 11, 56, 0
12, 100060, Note_on_c, 11, 52, 60
12, 100115, Note_on_c, 11, 52, 0
12, 100120, Note_on_c, 11, 53, 60
12, 100136, Note_on_c, 11, 53, 0
12, 100140, Note_on_c, 11, 48, 60
12, 100195, Note_on_c, 11, 48, 0
12, 100200, Note_on_c, 11, 49, 60
12, 100216, Note_on_c, 11, 49, 0
12, 100220, Note_on_c, 11, 47, 60
12, 100255, Note_on_c, 11, 47, 0
12, 100260, Note_on_c, 11, 48, 60
12, 100295, Note_on_c, 11, 48, 0
12, 100300, Note_on_c, 11, 50, 60
12, 100335, Note_on_c, 11, 50, 0
12, 100340, Note_on_c, 11, 51, 60
12, 100375, Note_on_c, 11, 51, 0
12, 100380, Note_on_c, 11, 52, 60
12, 100415, Note_on_c, 11, 52, 0
12, 100420, Note_on_c, 11, 53, 60
12, 100455, Note_on_c, 11, 53, 0
12, 100460, Note_on_c, 11, 55, 60
12, 100495, Note_on_c, 11, 55, 0
12, 100500, Note_on_c, 11, 56, 60
12, 100535, Note_on_c, 11, 56, 0
12, 100540, Note_on_c, 11, 55, 60
12, 100625, Note_on_c, 11, 55, 0
12, 132142, Control_c, 11, 11, 60
12, 132142, Note_on_c, 11, 48, 60
12, 132322, Note_on_c, 11, 52, 60
12, 132327, Note_on_c, 11, 48, 0
12, 132372, Note_on_c, 11, 52, 0
12, 132382, Note_on_c, 11, 53, 60
12, 132432, Note_on_c, 11, 53, 0
12, 132442, Note_on_c, 11, 48, 60
12, 132492, Note_on_c, 11, 48, 0
12, 132562, Note_on_c, 11, 52, 60
12, 132612, Note_on_c, 11, 52, 0
12, 132622, Note_on_c, 11, 53, 60
12, 132672, Note_on_c, 11, 53, 0
12, 132682, Note_on_c, 11, 48, 60
12, 132732, Note_on_c, 11, 48, 0
12, 132802, Note_on_c, 11, 51, 60
12, 132852, Note_on_c, 11, 51, 0
12, 132862, Note_on_c, 11, 50, 60
12, 132982, Note_on_c, 11, 49, 60
12, 132992, Note_on_c, 11, 50, 0
12, 133102, Note_on_c, 11, 48, 60
12, 133112, Note_on_c, 11, 49, 0
12, 133152, Note_on_c, 11, 48, 0
12, 133162, Note_on_c, 11, 48, 60
12, 133212, Note_on_c, 11, 48, 0
12, 133282, Note_on_c, 11, 52, 60
12, 133332, Note_on_c, 11, 52, 0
12, 133342, Note_on_c, 11, 53, 60
12, 133392, Note_on_c, 11, 53, 0
12, 133402, Note_on_c, 11, 48, 60
12, 133452, Note_on_c, 11, 48, 0
12, 133522, Note_on_c, 11, 52, 60
12, 133572, Note_on_c, 11, 52, 0
12, 133582, Note_on_c, 11, 53, 60
12, 133632, Note_on_c, 11, 53, 0
12, 133642, Note_on_c, 11, 48, 60
12, 133692, Note_on_c, 11, 48, 0
12, 133762, Note_on_c, 11, 51, 60
12, 133812, Note_on_c, 11, 51, 0
12, 133822, Note_on_c, 11, 50, 60
12, 133942, Note_on_c, 11, 49, 60
12, 133952, Note_on_c, 11, 50, 0
12, 134062, Note_on_c, 11, 48, 60
12, 134072, Note_on_c, 11, 49, 0
12, 134112, Note_on_c, 11, 48, 0
12, 134122, Note_on_c, 11, 48, 60
12, 134172, Note_on_c, 11, 48, 0
12, 134182, Note_on_c, 11, 48, 60
12, 134232, Note_on_c, 11, 48, 0
12, 134242, Note_on_c, 11, 52, 60
12, 134292, Note_on_c, 11, 52, 0
12, 134302, Note_on_c, 11, 53, 60
12, 134352, Note_on_c, 11, 53, 0
12, 134362, Note_on_c, 11, 48, 60
12, 134412, Note_on_c, 11, 48, 0
12, 134482, Note_on_c, 11, 51, 60
12, 134532, Note_on_c, 11, 51, 0
12, 134542, Note_on_c, 11, 49, 60
12, 134592, Note_on_c, 11, 49, 0
12, 134602, Note_on_c, 11, 49, 60
12, 134722, Note_on_c, 11, 53, 60
12, 134732, Note_on_c, 11, 49, 0
12, 134772, Note_on_c, 11, 53, 0
12, 134782, Note_on_c, 11, 55, 60
12, 134832, Note_on_c, 11, 55, 0
12, 134842, Note_on_c, 11, 49, 60
12, 134892, Note_on_c, 11, 49, 0
12, 134962, Note_on_c, 11, 53, 60
12, 135012, Note_on_c, 11, 53, 0
12, 135022, Note_on_c, 11, 51, 60
12, 135142, Note_on_c, 11, 53, 60
12, 135152, Note_on_c, 11, 51, 0
12, 135192, Note_on_c, 11, 53, 0
12, 135202, Note_on_c, 11, 55, 60
12, 135252, Note_on_c, 11, 55, 0
12, 135262, Note_on_c, 11, 56, 60
12, 135622, Note_on_c, 11, 52, 60
12, 135632, Note_on_c, 11, 56, 0
12, 135742, Note_on_c, 11, 53, 60
12, 135752, Note_on_c, 11, 52, 0
12, 135982, Note_on_c, 11, 46, 60
12, 135992, Note_on_c, 11, 53, 0
12, 136032, Note_on_c, 11, 46, 0
12, 136912, Note_on_c, 11, 49, 60
12, 136942, Note_on_c, 11, 48, 60
12, 136947, Note_on_c, 11, 49, 0
12, 136992, Note_on_c, 11, 48, 0
12, 178381, Control_c, 11, 11, 50
12, 178441, Note_on_c, 11, 53, 60
12, 178551, Note_on_c, 11, 53, 0
12, 178561, Note_on_c, 11, 47, 60
12, 178611, Note_on_c, 11, 47, 0
12, 178621, Note_on_c, 11, 48, 60
12, 178671, Note_on_c, 11, 48, 0
12, 178681, Note_on_c, 11, 49, 60
12, 178791, Note_on_c, 11, 49, 0
12, 178801, Note_on_c, 11, 48, 60
12, 178851, Note_on_c, 11, 48, 0
12, 178861, Note_on_c, 11, 41, 60
12, 178911, Note_on_c, 11, 41, 0
12, 179101, Note_on_c, 11, 53, 60
12, 179191, Note_on_c, 11, 53, 0
12, 179221, Note_on_c, 11, 51, 60
12, 179311, Note_on_c, 11, 51, 0
12, 179341, Note_on_c, 11, 49, 60
12, 179391, Note_on_c, 11, 49, 0
12, 179401, Note_on_c, 11, 49, 60
12, 179511, Note_on_c, 11, 49, 0
12, 179521, Note_on_c, 11, 43, 60
12, 179571, Note_on_c, 11, 43, 0
12, 179581, Note_on_c, 11, 44, 60
12, 179631, Note_on_c, 11, 44, 0
12, 179641, Note_on_c, 11, 46, 60
12, 179751, Note_on_c, 11, 46, 0
12, 179761, Note_on_c, 11, 44, 60
12, 179811, Note_on_c, 11, 44, 0
12, 179821, Note_on_c, 11, 49, 60
12, 179871, Note_on_c, 11, 49, 0
12, 180061, Note_on_c, 11, 49, 60
12, 180151, Note_on_c, 11, 49, 0
12, 180181, Note_on_c, 11, 48, 60
12, 180271, Note_on_c, 11, 48, 0
12, 180301, Note_on_c, 11, 47, 60
12, 180391, Note_on_c, 11, 47, 0
12, 180901, Note_on_c, 11, 46, 60
12, 180951, Note_on_c, 11, 46, 0
12, 181021, Note_on_c, 11, 44, 60
12, 181071, Note_on_c, 11, 44, 0
12, 182551, Control_c, 11, 11, 80
12, 182551, Note_on_c, 11, 48, 70
12, 182601, Note_on_c, 11, 48, 0
12, 182671, Note_on_c, 11, 53, 70
12, 182721, Note_on_c, 11, 53, 0
12, 183031, Note_on_c, 11, 48, 70
12, 183081, Note_on_c, 11, 48, 0
12, 183151, Note_on_c, 11, 53, 70
12, 183201, Note_on_c, 11, 53, 0
12, 183391, Note_on_c, 11, 53, 80
12, 183441, Note_on_c, 11, 53, 0
12, 183631, Note_on_c, 11, 53, 80
12, 184111, Note_on_c, 11, 53, 0
12, 184664, Control_c, 11, 121, 0
12, 184664, End_track
13, 0, Start_track
13, 0, MIDI_port, 0
13, 0, Title_t, "Timpani"
13, 0, Program_c, 12, 47
13, 0, Control_c, 12, 7, 127
13, 0, Control_c, 12, 10, 80
13, 50, Control_c, 12, 121, 0
13, 100, Control_c, 12, 91, 100
13, 110, Control_c, 12, 11, 90
13, 2108, Note_on_c, 12, 53, 90
13, 2131, Note_on_c, 12, 53, 0
13, 2135, Note_on_c, 12, 53, 90
13, 2158, Note_on_c, 12, 53, 0
13, 2162, Note_on_c, 12, 53, 90
13, 2185, Note_on_c, 12, 53, 0
13, 2190, Note_on_c, 12, 53, 90
13, 2213, Note_on_c, 12, 53, 0
13, 2217, Note_on_c, 12, 48, 90
13, 2272, Note_on_c, 12, 48, 0
13, 2555, Note_on_c, 12, 53, 90
13, 2577, Note_on_c, 12, 53, 0
13, 2581, Note_on_c, 12, 53, 90
13, 2603, Note_on_c, 12, 53, 0
13, 2605, Note_on_c, 12, 53, 90
13, 2627, Note_on_c, 12, 53, 0
13, 2629, Note_on_c, 12, 53, 90
13, 2651, Note_on_c, 12, 53, 0
13, 2658, Note_on_c, 12, 48, 90
13, 2708, Note_on_c, 12, 48, 0
13, 3186, Note_on_c, 12, 48, 90
13, 3290, Note_on_c, 12, 53, 90
13, 3296, Note_on_c, 12, 48, 0
13, 3370, Note_on_c, 12, 53, 0
13, 3388, Note_on_c, 12, 53, 90
13, 3624, Note_on_c, 12, 53, 0
13, 12847, Note_on_c, 12, 53, 60
13, 12907, Note_on_c, 12, 53, 0
13, 12970, Note_on_c, 12, 53, 80
13, 13030, Note_on_c, 12, 53, 0
13, 15360, Control_c, 12, 11, 80
13, 15408, Note_on_c, 12, 53, 80
13, 15428, Note_on_c, 12, 53, 0
13, 15435, Note_on_c, 12, 53, 80
13, 15455, Note_on_c, 12, 53, 0
13, 15462, Note_on_c, 12, 53, 80
13, 15482, Note_on_c, 12, 53, 0
13, 15489, Note_on_c, 12, 53, 80
13, 15509, Note_on_c, 12, 53, 0
13, 15518, Note_on_c, 12, 48, 80
13, 15578, Note_on_c, 12, 48, 0
13, 27085, Control_c, 12, 11, 50
13, 27085, Note_on_c, 12, 36, 60
13, 27095, Control_c, 12, 11, 51
13, 27105, Note_on_c, 12, 36, 0
13, 27106, Control_c, 12, 11, 52
13, 27112, Note_on_c, 12, 36, 60
13, 27116, Control_c, 12, 11, 53
13, 27127, Control_c, 12, 11, 54
13, 27132, Note_on_c, 12, 36, 0
13, 27137, Control_c, 12, 11, 55
13, 27139, Note_on_c, 12, 36, 60
13, 27148, Control_c, 12, 11, 56
13, 27158, Control_c, 12, 11, 57
13, 27159, Note_on_c, 12, 36, 0
13, 27166, Note_on_c, 12, 36, 60
13, 27169, Control_c, 12, 11, 58
13, 27179, Control_c, 12, 11, 59
13, 27186, Note_on_c, 12, 36, 0
13, 27190, Control_c, 12, 11, 60
13, 27193, Note_on_c, 12, 36, 60
13, 27200, Control_c, 12, 11, 61
13, 27211, Control_c, 12, 11, 62
13, 27213, Note_on_c, 12, 36, 0
13, 27220, Note_on_c, 12, 36, 60
13, 27221, Control_c, 12, 11, 63
13, 27232, Control_c, 12, 11, 64
13, 27240, Note_on_c, 12, 36, 0
13, 27242, Control_c, 12, 11, 65
13, 27247, Note_on_c, 12, 36, 60
13, 27253, Control_c, 12, 11, 66
13, 27263, Control_c, 12, 11, 67
13, 27267, Note_on_c, 12, 36, 0
13, 27274, Control_c, 12, 11, 68
13, 27284, Control_c, 12, 11, 69
13, 27295, Control_c, 12, 11, 70
13, 27295, Note_on_c, 12, 53, 70
13, 27355, Note_on_c, 12, 53, 0
13, 27411, Note_on_c, 12, 53, 70
13, 27471, Note_on_c, 12, 53, 0
13, 27521, Note_on_c, 12, 53, 70
13, 27581, Note_on_c, 12, 53, 0
13, 27633, Note_on_c, 12, 48, 70
13, 27693, Note_on_c, 12, 48, 0
13, 27743, Note_on_c, 12, 53, 70
13, 27803, Note_on_c, 12, 53, 0
13, 94780, Note_on_c, 12, 48, 70
13, 94795, Note_on_c, 12, 48, 0
13, 94800, Note_on_c, 12, 48, 70
13, 94815, Note_on_c, 12, 48, 0
13, 94820, Note_on_c, 12, 48, 70
13, 94835, Note_on_c, 12, 48, 0
13, 94840, Note_on_c, 12, 48, 70
13, 94855, Note_on_c, 12, 48, 0
13, 94860, Note_on_c, 12, 48, 70
13, 94875, Note_on_c, 12, 48, 0
13, 94880, Note_on_c, 12, 48, 70
13, 94895, Note_on_c, 12, 48, 0
13, 94900, Note_on_c, 12, 48, 70
13, 94915, Note_on_c, 12, 48, 0
13, 94920, Note_on_c, 12, 48, 70
13, 94935, Note_on_c, 12, 48, 0
13, 94940, Note_on_c, 12, 48, 70
13, 94955, Note_on_c, 12, 48, 0
13, 94960, Note_on_c, 12, 48, 70
13, 94975, Note_on_c, 12, 48, 0
13, 94980, Note_on_c, 12, 48, 70
13, 94995, Note_on_c, 12, 48, 0
13, 95000, Note_on_c, 12, 48, 70
13, 95015, Note_on_c, 12, 48, 0
13, 95020, Note_on_c, 12, 48, 70
13, 95035, Note_on_c, 12, 48, 0
13, 95040, Note_on_c, 12, 48, 70
13, 95055, Note_on_c, 12, 48, 0
13, 95060, Note_on_c, 12, 48, 70
13, 95075, Note_on_c, 12, 48, 0
13, 95080, Note_on_c, 12, 48, 70
13, 95095, Note_on_c, 12, 48, 0
13, 95100, Note_on_c, 12, 48, 70
13, 95115, Note_on_c, 12, 48, 0
13, 96060, Note_on_c, 12, 53, 70
13, 96075, Note_on_c, 12, 53, 0
13, 96080, Note_on_c, 12, 53, 70
13, 96095, Note_on_c, 12, 53, 0
13, 96100, Note_on_c, 12, 53, 70
13, 96115, Note_on_c, 12, 53, 0
13, 96120, Note_on_c, 12, 53, 70
13, 96135, Note_on_c, 12, 53, 0
13, 96140, Note_on_c, 12, 53, 70
13, 96155, Note_on_c, 12, 53, 0
13, 96160, Note_on_c, 12, 53, 70
13, 96175, Note_on_c, 12, 53, 0
13, 96180, Note_on_c, 12, 53, 70
13, 96195, Note_on_c, 12, 53, 0
13, 96200, Note_on_c, 12, 53, 70
13, 96215, Note_on_c, 12, 53, 0
13, 96220, Note_on_c, 12, 53, 70
13, 96235, Note_on_c, 12, 53, 0
13, 96240, Note_on_c, 12, 53, 70
13, 96255, Note_on_c, 12, 53, 0
13, 96260, Note_on_c, 12, 53, 70
13, 96275, Note_on_c, 12, 53, 0
13, 96280, Note_on_c, 12, 53, 70
13, 96295, Note_on_c, 12, 53, 0
13, 96300, Note_on_c, 12, 53, 70
13, 96315, Note_on_c, 12, 53, 0
13, 96320, Note_on_c, 12, 53, 70
13, 96335, Note_on_c, 12, 53, 0
13, 96340, Note_on_c, 12, 53, 70
13, 96355, Note_on_c, 12, 53, 0
13, 96360, Note_on_c, 12, 53, 70
13, 96375, Note_on_c, 12, 53, 0
13, 96380, Note_on_c, 12, 53, 70
13, 96395, Note_on_c, 12, 53, 0
13, 96400, Note_on_c, 12, 53, 70
13, 96415, Note_on_c, 12, 53, 0
13, 96420, Note_on_c, 12, 53, 70
13, 96435, Note_on_c, 12, 53, 0
13, 96440, Note_on_c, 12, 53, 70
13, 96455, Note_on_c, 12, 53, 0
13, 96460, Note_on_c, 12, 53, 70
13, 96475, Note_on_c, 12, 53, 0
13, 96480, Note_on_c, 12, 53, 70
13, 96495, Note_on_c, 12, 53, 0
13, 96500, Note_on_c, 12, 48, 70
13, 96515, Note_on_c, 12, 48, 0
13, 96540, Note_on_c, 12, 53, 70
13, 96555, Note_on_c, 12, 53, 0
13, 96560, Note_on_c, 12, 53, 70
13, 96575, Note_on_c, 12, 53, 0
13, 96580, Note_on_c, 12, 53, 70
13, 96595, Note_on_c, 12, 53, 0
13, 96600, Note_on_c, 12, 53, 70
13, 96615, Note_on_c, 12, 53, 0
13, 96620, Note_on_c, 12, 53, 70
13, 96635, Note_on_c, 12, 53, 0
13, 96640, Note_on_c, 12, 53, 70
13, 96655, Note_on_c, 12, 53, 0
13, 96660, Note_on_c, 12, 48, 70
13, 96675, Note_on_c, 12, 48, 0
13, 96700, Note_on_c, 12, 48, 70
13, 96715, Note_on_c, 12, 48, 0
13, 96720, Note_on_c, 12, 48, 70
13, 96735, Note_on_c, 12, 48, 0
13, 96740, Note_on_c, 12, 48, 70
13, 96755, Note_on_c, 12, 48, 0
13, 96760, Note_on_c, 12, 48, 70
13, 96775, Note_on_c, 12, 48, 0
13, 96780, Note_on_c, 12, 48, 70
13, 96795, Note_on_c, 12, 48, 0
13, 96800, Note_on_c, 12, 48, 70
13, 96815, Note_on_c, 12, 48, 0
13, 96820, Note_on_c, 12, 53, 70
13, 96835, Note_on_c, 12, 53, 0
13, 96860, Note_on_c, 12, 48, 70
13, 96875, Note_on_c, 12, 48, 0
13, 96880, Note_on_c, 12, 48, 70
13, 96895, Note_on_c, 12, 48, 0
13, 96900, Note_on_c, 12, 48, 70
13, 96915, Note_on_c, 12, 48, 0
13, 96920, Note_on_c, 12, 48, 70
13, 96935, Note_on_c, 12, 48, 0
13, 96940, Note_on_c, 12, 48, 70
13, 96955, Note_on_c, 12, 48, 0
13, 96960, Note_on_c, 12, 48, 70
13, 96975, Note_on_c, 12, 48, 0
13, 96980, Note_on_c, 12, 53, 70
13, 96995, Note_on_c, 12, 53, 0
13, 97020, Note_on_c, 12, 53, 70
13, 97035, Note_on_c, 12, 53, 0
13, 97100, Note_on_c, 12, 48, 70
13, 97115, Note_on_c, 12, 48, 0
13, 99320, Note_on_c, 12, 48, 70
13, 99335, Note_on_c, 12, 48, 0
13, 99340, Note_on_c, 12, 48, 70
13, 99355, Note_on_c, 12, 48, 0
13, 99400, Note_on_c, 12, 48, 70
13, 99415, Note_on_c, 12, 48, 0
13, 99420, Note_on_c, 12, 48, 70
13, 99435, Note_on_c, 12, 48, 0
13, 99480, Note_on_c, 12, 48, 70
13, 99495, Note_on_c, 12, 48, 0
13, 99500, Note_on_c, 12, 48, 70
13, 99515, Note_on_c, 12, 48, 0
13, 99560, Note_on_c, 12, 48, 70
13, 99575, Note_on_c, 12, 48, 0
13, 99580, Note_on_c, 12, 48, 70
13, 99595, Note_on_c, 12, 48, 0
13, 99600, Note_on_c, 12, 48, 70
13, 99615, Note_on_c, 12, 48, 0
13, 99620, Note_on_c, 12, 48, 70
13, 99635, Note_on_c, 12, 48, 0
13, 99640, Note_on_c, 12, 48, 70
13, 99655, Note_on_c, 12, 48, 0
13, 99660, Note_on_c, 12, 48, 70
13, 99675, Note_on_c, 12, 48, 0
13, 99900, Note_on_c, 12, 48, 70
13, 99960, Note_on_c, 12, 48, 0
13, 131202, Note_on_c, 12, 53, 80
13, 131214, Note_on_c, 12, 53, 0
13, 131217, Note_on_c, 12, 53, 70
13, 131229, Note_on_c, 12, 53, 0
13, 131232, Note_on_c, 12, 53, 70
13, 131244, Note_on_c, 12, 53, 0
13, 131247, Note_on_c, 12, 53, 70
13, 131259, Note_on_c, 12, 53, 0
13, 131262, Note_on_c, 12, 53, 70
13, 131274, Note_on_c, 12, 53, 0
13, 131277, Note_on_c, 12, 53, 70
13, 131289, Note_on_c, 12, 53, 0
13, 131292, Note_on_c, 12, 53, 70
13, 131304, Note_on_c, 12, 53, 0
13, 131307, Note_on_c, 12, 53, 70
13, 131319, Note_on_c, 12, 53, 0
13, 131322, Note_on_c, 12, 53, 70
13, 131334, Note_on_c, 12, 53, 0
13, 131337, Note_on_c, 12, 53, 70
13, 131349, Note_on_c, 12, 53, 0
13, 131352, Note_on_c, 12, 53, 70
13, 131364, Note_on_c, 12, 53, 0
13, 131367, Note_on_c, 12, 53, 70
13, 131379, Note_on_c, 12, 53, 0
13, 131382, Note_on_c, 12, 53, 70
13, 131394, Note_on_c, 12, 53, 0
13, 131397, Note_on_c, 12, 53, 70
13, 131409, Note_on_c, 12, 53, 0
13, 131412, Note_on_c, 12, 53, 70
13, 131424, Note_on_c, 12, 53, 0
13, 131427, Note_on_c, 12, 53, 70
13, 131439, Note_on_c, 12, 53, 0
13, 131442, Note_on_c, 12, 53, 70
13, 131454, Note_on_c, 12, 53, 0
13, 131457, Note_on_c, 12, 53, 70
13, 131469, Note_on_c, 12, 53, 0
13, 131472, Note_on_c, 12, 53, 70
13, 131484, Note_on_c, 12, 53, 0
13, 131487, Note_on_c, 12, 53, 70
13, 131499, Note_on_c, 12, 53, 0
13, 131502, Note_on_c, 12, 53, 70
13, 131514, Note_on_c, 12, 53, 0
13, 131517, Note_on_c, 12, 53, 70
13, 131529, Note_on_c, 12, 53, 0
13, 131532, Note_on_c, 12, 53, 70
13, 131544, Note_on_c, 12, 53, 0
13, 131547, Note_on_c, 12, 53, 70
13, 131559, Note_on_c, 12, 53, 0
13, 131562, Note_on_c, 12, 53, 70
13, 131574, Note_on_c, 12, 53, 0
13, 131577, Note_on_c, 12, 53, 70
13, 131589, Note_on_c, 12, 53, 0
13, 131592, Note_on_c, 12, 53, 70
13, 131604, Note_on_c, 12, 53, 0
13, 131607, Note_on_c, 12, 53, 70
13, 131619, Note_on_c, 12, 53, 0
13, 131622, Note_on_c, 12, 53, 70
13, 131634, Note_on_c, 12, 53, 0
13, 131637, Note_on_c, 12, 53, 70
13, 131649, Note_on_c, 12, 53, 0
13, 131652, Note_on_c, 12, 53, 70
13, 131664, Note_on_c, 12, 53, 0
13, 131667, Note_on_c, 12, 53, 70
13, 131679, Note_on_c, 12, 53, 0
13, 131682, Note_on_c, 12, 53, 70
13, 131694, Note_on_c, 12, 53, 0
13, 131697, Note_on_c, 12, 53, 70
13, 131709, Note_on_c, 12, 53, 0
13, 131712, Note_on_c, 12, 53, 70
13, 131724, Note_on_c, 12, 53, 0
13, 131727, Note_on_c, 12, 53, 70
13, 131739, Note_on_c, 12, 53, 0
13, 131742, Note_on_c, 12, 53, 70
13, 131754, Note_on_c, 12, 53, 0
13, 131757, Note_on_c, 12, 53, 70
13, 131769, Note_on_c, 12, 53, 0
13, 131772, Note_on_c, 12, 53, 70
13, 131784, Note_on_c, 12, 53, 0
13, 131787, Note_on_c, 12, 53, 70
13, 131799, Note_on_c, 12, 53, 0
13, 131802, Note_on_c, 12, 53, 70
13, 131814, Note_on_c, 12, 53, 0
13, 131817, Note_on_c, 12, 53, 70
13, 131829, Note_on_c, 12, 53, 0
13, 131832, Note_on_c, 12, 53, 70
13, 131844, Note_on_c, 12, 53, 0
13, 131847, Note_on_c, 12, 53, 70
13, 131859, Note_on_c, 12, 53, 0
13, 131862, Note_on_c, 12, 53, 70
13, 131874, Note_on_c, 12, 53, 0
13, 131877, Note_on_c, 12, 53, 70
13, 131889, Note_on_c, 12, 53, 0
13, 131892, Note_on_c, 12, 53, 70
13, 131904, Note_on_c, 12, 53, 0
13, 131907, Note_on_c, 12, 53, 70
13, 131919, Note_on_c, 12, 53, 0
13, 131922, Note_on_c, 12, 53, 70
13, 131934, Note_on_c, 12, 53, 0
13, 131937, Note_on_c, 12, 53, 70
13, 131949, Note_on_c, 12, 53, 0
13, 131952, Note_on_c, 12, 53, 70
13, 131964, Note_on_c, 12, 53, 0
13, 131967, Note_on_c, 12, 53, 70
13, 131979, Note_on_c, 12, 53, 0
13, 131982, Note_on_c, 12, 53, 70
13, 131994, Note_on_c, 12, 53, 0
13, 131997, Note_on_c, 12, 53, 70
13, 132009, Note_on_c, 12, 53, 0
13, 132012, Note_on_c, 12, 53, 70
13, 132024, Note_on_c, 12, 53, 0
13, 132027, Note_on_c, 12, 53, 70
13, 132039, Note_on_c, 12, 53, 0
13, 132042, Note_on_c, 12, 53, 70
13, 132054, Note_on_c, 12, 53, 0
13, 132057, Note_on_c, 12, 53, 70
13, 132069, Note_on_c, 12, 53, 0
13, 132072, Note_on_c, 12, 53, 70
13, 132084, Note_on_c, 12, 53, 0
13, 132087, Note_on_c, 12, 53, 70
13, 132099, Note_on_c, 12, 53, 0
13, 132102, Note_on_c, 12, 53, 70
13, 132114, Note_on_c, 12, 53, 0
13, 132117, Note_on_c, 12, 53, 70
13, 132129, Note_on_c, 12, 53, 0
13, 132132, Note_on_c, 12, 53, 70
13, 132142, Control_c, 12, 11, 70
13, 132142, Note_on_c, 12, 36, 60
13, 132144, Note_on_c, 12, 53, 0
13, 132177, Note_on_c, 12, 53, 80
13, 132192, Note_on_c, 12, 36, 0
13, 132227, Note_on_c, 12, 53, 0
13, 132232, Note_on_c, 12, 36, 60
13, 132254, Note_on_c, 12, 36, 0
13, 132262, Note_on_c, 12, 36, 60
13, 132312, Note_on_c, 12, 36, 0
13, 132322, Note_on_c, 12, 36, 60
13, 132372, Note_on_c, 12, 36, 0
13, 132382, Note_on_c, 12, 53, 60
13, 132432, Note_on_c, 12, 53, 0
13, 132442, Note_on_c, 12, 36, 60
13, 132492, Note_on_c, 12, 36, 0
13, 132562, Note_on_c, 12, 36, 60
13, 132612, Note_on_c, 12, 36, 0
13, 132622, Note_on_c, 12, 53, 60
13, 132672, Note_on_c, 12, 53, 0
13, 132682, Note_on_c, 12, 36, 60
13, 132732, Note_on_c, 12, 36, 0
13, 132802, Note_on_c, 12, 36, 60
13, 132852, Note_on_c, 12, 36, 0
13, 132862, Note_on_c, 12, 53, 60
13, 132884, Note_on_c, 12, 53, 0
13, 132892, Note_on_c, 12, 53, 60
13, 132914, Note_on_c, 12, 53, 0
13, 132922, Note_on_c, 12, 53, 60
13, 132944, Note_on_c, 12, 53, 0
13, 132952, Note_on_c, 12, 53, 60
13, 132974, Note_on_c, 12, 53, 0
13, 132982, Note_on_c, 12, 53, 60
13, 133004, Note_on_c, 12, 53, 0
13, 133012, Note_on_c, 12, 53, 60
13, 133034, Note_on_c, 12, 53, 0
13, 133042, Note_on_c, 12, 53, 60
13, 133064, Note_on_c, 12, 53, 0
13, 133072, Note_on_c, 12, 53, 60
13, 133094, Note_on_c, 12, 53, 0
13, 133102, Note_on_c, 12, 36, 60
13, 133152, Note_on_c, 12, 36, 0
13, 133162, Note_on_c, 12, 36, 60
13, 133184, Note_on_c, 12, 36, 0
13, 133192, Note_on_c, 12, 36, 60
13, 133214, Note_on_c, 12, 36, 0
13, 133222, Note_on_c, 12, 36, 60
13, 133244, Note_on_c, 12, 36, 0
13, 133252, Note_on_c, 12, 36, 60
13, 133274, Note_on_c, 12, 36, 0
13, 133282, Note_on_c, 12, 36, 60
13, 133332, Note_on_c, 12, 36, 0
13, 133342, Note_on_c, 12, 53, 60
13, 133392, Note_on_c, 12, 53, 0
13, 133402, Note_on_c, 12, 36, 60
13, 133452, Note_on_c, 12, 36, 0
13, 133522, Note_on_c, 12, 36, 60
13, 133572, Note_on_c, 12, 36, 0
13, 133582, Note_on_c, 12, 53, 60
13, 133632, Note_on_c, 12, 53, 0
13, 133642, Note_on_c, 12, 36, 60
13, 133692, Note_on_c, 12, 36, 0
13, 133762, Note_on_c, 12, 36, 60
13, 133812, Note_on_c, 12, 36, 0
13, 133822, Note_on_c, 12, 53, 60
13, 133844, Note_on_c, 12, 53, 0
13, 133852, Note_on_c, 12, 53, 60
13, 133874, Note_on_c, 12, 53, 0
13, 133882, Note_on_c, 12, 53, 60
13, 133904, Note_on_c, 12, 53, 0
13, 133912, Note_on_c, 12, 53, 60
13, 133934, Note_on_c, 12, 53, 0
13, 133942, Note_on_c, 12, 53, 60
13, 133964, Note_on_c, 12, 53, 0
13, 133972, Note_on_c, 12, 53, 60
13, 133994, Note_on_c, 12, 53, 0
13, 134002, Note_on_c, 12, 53, 60
13, 134024, Note_on_c, 12, 53, 0
13, 134032, Note_on_c, 12, 53, 60
13, 134054, Note_on_c, 12, 53, 0
13, 134062, Note_on_c, 12, 36, 60
13, 134112, Note_on_c, 12, 36, 0
13, 135622, Note_on_c, 12, 36, 60
13, 135644, Note_on_c, 12, 36, 0
13, 135652, Note_on_c, 12, 36, 60
13, 135674, Note_on_c, 12, 36, 0
13, 135682, Note_on_c, 12, 36, 60
13, 135704, Note_on_c, 12, 36, 0
13, 135712, Note_on_c, 12, 36, 60
13, 135734, Note_on_c, 12, 36, 0
13, 135742, Note_on_c, 12, 53, 70
13, 135792, Note_on_c, 12, 53, 0
13, 136822, Note_on_c, 12, 53, 60
13, 136844, Note_on_c, 12, 53, 0
13, 136852, Note_on_c, 12, 53, 60
13, 136874, Note_on_c, 12, 53, 0
13, 136882, Note_on_c, 12, 53, 60
13, 136904, Note_on_c, 12, 53, 0
13, 136912, Note_on_c, 12, 53, 60
13, 136934, Note_on_c, 12, 53, 0
13, 136942, Note_on_c, 12, 36, 80
13, 136992, Note_on_c, 12, 36, 0
13, 178098, Note_on_c, 12, 48, 80
13, 178120, Note_on_c, 12, 48, 0
13, 178128, Note_on_c, 12, 48, 70
13, 178150, Note_on_c, 12, 48, 0
13, 178158, Note_on_c, 12, 48, 70
13, 178180, Note_on_c, 12, 48, 0
13, 178188, Note_on_c, 12, 48, 70
13, 178210, Note_on_c, 12, 48, 0
13, 178218, Note_on_c, 12, 48, 70
13, 178240, Note_on_c, 12, 48, 0
13, 178248, Note_on_c, 12, 48, 70
13, 178270, Note_on_c, 12, 48, 0
13, 178278, Note_on_c, 12, 48, 70
13, 178300, Note_on_c, 12, 48, 0
13, 178308, Note_on_c, 12, 48, 70
13, 178330, Note_on_c, 12, 48, 0
13, 178338, Note_on_c, 12, 48, 70
13, 178360, Note_on_c, 12, 48, 0
13, 178381, Control_c, 12, 11, 80
13, 178381, Note_on_c, 12, 53, 80
13, 178431, Note_on_c, 12, 53, 0
13, 178441, Note_on_c, 12, 53, 80
13, 178491, Note_on_c, 12, 53, 0
13, 178561, Note_on_c, 12, 53, 80
13, 178611, Note_on_c, 12, 53, 0
13, 178621, Note_on_c, 12, 53, 80
13, 178671, Note_on_c, 12, 53, 0
13, 178681, Note_on_c, 12, 53, 80
13, 178731, Note_on_c, 12, 53, 0
13, 178741, Note_on_c, 12, 53, 80
13, 178791, Note_on_c, 12, 53, 0
13, 178801, Note_on_c, 12, 53, 80
13, 178851, Note_on_c, 12, 53, 0
13, 178861, Note_on_c, 12, 53, 80
13, 178873, Note_on_c, 12, 53, 0
13, 178876, Note_on_c, 12, 53, 70
13, 178888, Note_on_c, 12, 53, 0
13, 178891, Note_on_c, 12, 53, 70
13, 178903, Note_on_c, 12, 53, 0
13, 178906, Note_on_c, 12, 53, 70
13, 178918, Note_on_c, 12, 53, 0
13, 178921, Note_on_c, 12, 53, 70
13, 178933, Note_on_c, 12, 53, 0
13, 178936, Note_on_c, 12, 53, 70
13, 178948, Note_on_c, 12, 53, 0
13, 178951, Note_on_c, 12, 53, 70
13, 178963, Note_on_c, 12, 53, 0
13, 178966, Note_on_c, 12, 53, 70
13, 178978, Note_on_c, 12, 53, 0
13, 178981, Note_on_c, 12, 53, 70
13, 178993, Note_on_c, 12, 53, 0
13, 178996, Note_on_c, 12, 53, 70
13, 179008, Note_on_c, 12, 53, 0
13, 179011, Note_on_c, 12, 53, 70
13, 179023, Note_on_c, 12, 53, 0
13, 179026, Note_on_c, 12, 53, 70
13, 179038, Note_on_c, 12, 53, 0
13, 179041, Note_on_c, 12, 53, 70
13, 179053, Note_on_c, 12, 53, 0
13, 179056, Note_on_c, 12, 53, 70
13, 179068, Note_on_c, 12, 53, 0
13, 179071, Note_on_c, 12, 53, 70
13, 179083, Note_on_c, 12, 53, 0
13, 179086, Note_on_c, 12, 53, 70
13, 179098, Note_on_c, 12, 53, 0
13, 179101, Note_on_c, 12, 53, 70
13, 179113, Note_on_c, 12, 53, 0
13, 179116, Note_on_c, 12, 53, 70
13, 179128, Note_on_c, 12, 53, 0
13, 179131, Note_on_c, 12, 53, 70
13, 179143, Note_on_c, 12, 53, 0
13, 179146, Note_on_c, 12, 53, 70
13, 179158, Note_on_c, 12, 53, 0
13, 179161, Note_on_c, 12, 53, 70
13, 179173, Note_on_c, 12, 53, 0
13, 179176, Note_on_c, 12, 53, 70
13, 179188, Note_on_c, 12, 53, 0
13, 179191, Note_on_c, 12, 53, 70
13, 179203, Note_on_c, 12, 53, 0
13, 179206, Note_on_c, 12, 53, 70
13, 179218, Note_on_c, 12, 53, 0
13, 179221, Note_on_c, 12, 53, 70
13, 179233, Note_on_c, 12, 53, 0
13, 179236, Note_on_c, 12, 53, 70
13, 179248, Note_on_c, 12, 53, 0
13, 179251, Note_on_c, 12, 53, 70
13, 179263, Note_on_c, 12, 53, 0
13, 179266, Note_on_c, 12, 53, 70
13, 179278, Note_on_c, 12, 53, 0
13, 179281, Note_on_c, 12, 53, 70
13, 179293, Note_on_c, 12, 53, 0
13, 179296, Note_on_c, 12, 53, 70
13, 179308, Note_on_c, 12, 53, 0
13, 179311, Note_on_c, 12, 53, 70
13, 179323, Note_on_c, 12, 53, 0
13, 179326, Note_on_c, 12, 53, 70
13, 179338, Note_on_c, 12, 53, 0
13, 179341, Note_on_c, 12, 53, 80
13, 179391, Note_on_c, 12, 53, 0
13, 179401, Note_on_c, 12, 53, 80
13, 179451, Note_on_c, 12, 53, 0
13, 179521, Note_on_c, 12, 53, 80
13, 179571, Note_on_c, 12, 53, 0
13, 179581, Note_on_c, 12, 53, 80
13, 179631, Note_on_c, 12, 53, 0
13, 179641, Note_on_c, 12, 53, 80
13, 179691, Note_on_c, 12, 53, 0
13, 179701, Note_on_c, 12, 53, 80
13, 179751, Note_on_c, 12, 53, 0
13, 179761, Note_on_c, 12, 53, 80
13, 179811, Note_on_c, 12, 53, 0
13, 179821, Note_on_c, 12, 53, 80
13, 179833, Note_on_c, 12, 53, 0
13, 179836, Note_on_c, 12, 53, 70
13, 179848, Note_on_c, 12, 53, 0
13, 179851, Note_on_c, 12, 53, 70
13, 179863, Note_on_c, 12, 53, 0
13, 179866, Note_on_c, 12, 53, 70
13, 179878, Note_on_c, 12, 53, 0
13, 179881, Note_on_c, 12, 53, 70
13, 179893, Note_on_c, 12, 53, 0
13, 179896, Note_on_c, 12, 53, 70
13, 179908, Note_on_c, 12, 53, 0
13, 179911, Note_on_c, 12, 53, 70
13, 179923, Note_on_c, 12, 53, 0
13, 179926, Note_on_c, 12, 53, 70
13, 179938, Note_on_c, 12, 53, 0
13, 179941, Note_on_c, 12, 53, 70
13, 179953, Note_on_c, 12, 53, 0
13, 179956, Note_on_c, 12, 53, 70
13, 179968, Note_on_c, 12, 53, 0
13, 179971, Note_on_c, 12, 53, 70
13, 179983, Note_on_c, 12, 53, 0
13, 179986, Note_on_c, 12, 53, 70
13, 179998, Note_on_c, 12, 53, 0
13, 180001, Note_on_c, 12, 53, 70
13, 180013, Note_on_c, 12, 53, 0
13, 180016, Note_on_c, 12, 53, 70
13, 180028, Note_on_c, 12, 53, 0
13, 180031, Note_on_c, 12, 53, 70
13, 180043, Note_on_c, 12, 53, 0
13, 180046, Note_on_c, 12, 53, 70
13, 180058, Note_on_c, 12, 53, 0
13, 180061, Note_on_c, 12, 53, 70
13, 180073, Note_on_c, 12, 53, 0
13, 180076, Note_on_c, 12, 53, 70
13, 180088, Note_on_c, 12, 53, 0
13, 180091, Note_on_c, 12, 53, 70
13, 180103, Note_on_c, 12, 53, 0
13, 180106, Note_on_c, 12, 53, 70
13, 180118, Note_on_c, 12, 53, 0
13, 180121, Note_on_c, 12, 53, 70
13, 180133, Note_on_c, 12, 53, 0
13, 180136, Note_on_c, 12, 53, 70
13, 180148, Note_on_c, 12, 53, 0
13, 180151, Note_on_c, 12, 53, 70
13, 180163, Note_on_c, 12, 53, 0
13, 180166, Note_on_c, 12, 53, 70
13, 180178, Note_on_c, 12, 53, 0
13, 180181, Note_on_c, 12, 53, 70
13, 180193, Note_on_c, 12, 53, 0
13, 180196, Note_on_c, 12, 53, 70
13, 180208, Note_on_c, 12, 53, 0
13, 180211, Note_on_c, 12, 53, 70
13, 180223, Note_on_c, 12, 53, 0
13, 180226, Note_on_c, 12, 53, 70
13, 180238, Note_on_c, 12, 53, 0
13, 180241, Note_on_c, 12, 53, 70
13, 180253, Note_on_c, 12, 53, 0
13, 180256, Note_on_c, 12, 53, 70
13, 180268, Note_on_c, 12, 53, 0
13, 180271, Note_on_c, 12, 53, 70
13, 180283, Note_on_c, 12, 53, 0
13, 180286, Note_on_c, 12, 53, 70
13, 180298, Note_on_c, 12, 53, 0
13, 180301, Note_on_c, 12, 53, 80
13, 180351, Note_on_c, 12, 53, 0
13, 182551, Note_on_c, 12, 48, 80
13, 182573, Note_on_c, 12, 48, 0
13, 182581, Note_on_c, 12, 48, 70
13, 182603, Note_on_c, 12, 48, 0
13, 182611, Note_on_c, 12, 48, 70
13, 182633, Note_on_c, 12, 48, 0
13, 182641, Note_on_c, 12, 48, 70
13, 182663, Note_on_c, 12, 48, 0
13, 182701, Note_on_c, 12, 53, 80
13, 182723, Note_on_c, 12, 53, 0
13, 183031, Note_on_c, 12, 48, 80
13, 183053, Note_on_c, 12, 48, 0
13, 183061, Note_on_c, 12, 48, 70
13, 183083, Note_on_c, 12, 48, 0
13, 183091, Note_on_c, 12, 48, 70
13, 183113, Note_on_c, 12, 48, 0
13, 183121, Note_on_c, 12, 48, 70
13, 183143, Note_on_c, 12, 48, 0
13, 183181, Note_on_c, 12, 53, 80
13, 183203, Note_on_c, 12, 53, 0
13, 183391, Note_on_c, 12, 53, 80
13, 183413, Note_on_c, 12, 53, 0
13, 183631, Note_on_c, 12, 53, 80
13, 183643, Note_on_c, 12, 53, 0
13, 183646, Note_on_c, 12, 53, 70
13, 183658, Note_on_c, 12, 53, 0
13, 183661, Note_on_c, 12, 53, 70
13, 183673, Note_on_c, 12, 53, 0
13, 183676, Note_on_c, 12, 53, 70
13, 183688, Note_on_c, 12, 53, 0
13, 183691, Note_on_c, 12, 53, 70
13, 183703, Note_on_c, 12, 53, 0
13, 183706, Note_on_c, 12, 53, 70
13, 183718, Note_on_c, 12, 53, 0
13, 183721, Note_on_c, 12, 53, 70
13, 183733, Note_on_c, 12, 53, 0
13, 183736, Note_on_c, 12, 53, 70
13, 183748, Note_on_c, 12, 53, 0
13, 183751, Note_on_c, 12, 53, 70
13, 183763, Note_on_c, 12, 53, 0
13, 183766, Note_on_c, 12, 53, 70
13, 183778, Note_on_c, 12, 53, 0
13, 183781, Note_on_c, 12, 53, 70
13, 183793, Note_on_c, 12, 53, 0
13, 183796, Note_on_c, 12, 53, 70
13, 183808, Note_on_c, 12, 53, 0
13, 183811, Note_on_c, 12, 53, 70
13, 183823, Note_on_c, 12, 53, 0
13, 183826, Note_on_c, 12, 53, 70
13, 183838, Note_on_c, 12, 53, 0
13, 183841, Note_on_c, 12, 53, 70
13, 183853, Note_on_c, 12, 53, 0
13, 183856, Note_on_c, 12, 53, 70
13, 183868, Note_on_c, 12, 53, 0
13, 183871, Note_on_c, 12, 53, 70
13, 183883, Note_on_c, 12, 53, 0
13, 183886, Note_on_c, 12, 53, 70
13, 183898, Note_on_c, 12, 53, 0
13, 183901, Note_on_c, 12, 53, 70
13, 183913, Note_on_c, 12, 53, 0
13, 183916, Note_on_c, 12, 53, 70
13, 183928, Note_on_c, 12, 53, 0
13, 183931, Note_on_c, 12, 53, 70
13, 183943, Note_on_c, 12, 53, 0
13, 183946, Note_on_c, 12, 53, 70
13, 183958, Note_on_c, 12, 53, 0
13, 183961, Note_on_c, 12, 53, 70
13, 183973, Note_on_c, 12, 53, 0
13, 183976, Note_on_c, 12, 53, 70
13, 183988, Note_on_c, 12, 53, 0
13, 183991, Note_on_c, 12, 53, 70
13, 184003, Note_on_c, 12, 53, 0
13, 184006, Note_on_c, 12, 53, 70
13, 184018, Note_on_c, 12, 53, 0
13, 184021, Note_on_c, 12, 53, 70
13, 184033, Note_on_c, 12, 53, 0
13, 184036, Note_on_c, 12, 53, 70
13, 184048, Note_on_c, 12, 53, 0
13, 184051, Note_on_c, 12, 53, 70
13, 184063, Note_on_c, 12, 53, 0
13, 184066, Note_on_c, 12, 53, 70
13, 184078, Note_on_c, 12, 53, 0
13, 184081, Note_on_c, 12, 53, 70
13, 184093, Note_on_c, 12, 53, 0
13, 184096, Note_on_c, 12, 53, 70
13, 184108, Note_on_c, 12, 53, 0
13, 184111, Note_on_c, 12, 53, 70
13, 184123, Note_on_c, 12, 53, 0
13, 184664, Control_c, 12, 121, 0
13, 184664, End_track
14, 0, Start_track
14, 0, MIDI_port, 0
14, 0, Title_t, "Pianoforte"
14, 0, Program_c, 13, 0
14, 0, Control_c, 13, 7, 110
14, 0, Control_c, 13, 10, 64
14, 31081, Control_c, 13, 91, 120
14, 31081, Control_c, 13, 93, 40
14, 31107, Control_c, 13, 64, 72
14, 31110, Control_c, 13, 64, 127
14, 31116, Note_on_c, 13, 97, 108
14, 31118, Note_on_c, 13, 85, 91
14, 31259, Note_on_c, 13, 85, 0
14, 31269, Note_on_c, 13, 97, 0
14, 31284, Note_on_c, 13, 79, 77
14, 31284, Note_on_c, 13, 91, 93
14, 31308, Note_on_c, 13, 91, 0
14, 31314, Note_on_c, 13, 79, 0
14, 31314, Note_on_c, 13, 89, 98
14, 31318, Note_on_c, 13, 77, 81
14, 31342, Note_on_c, 13, 89, 0
14, 31343, Note_on_c, 13, 82, 96
14, 31350, Note_on_c, 13, 77, 0
14, 31352, Note_on_c, 13, 70, 60
14, 31360, Note_on_c, 13, 70, 0
14, 31362, Note_on_c, 13, 82, 0
14, 31380, Note_on_c, 13, 73, 93
14, 31381, Note_on_c, 13, 85, 105
14, 31393, Control_c, 13, 64, 72
14, 31397, Control_c, 13, 64, 0
14, 31410, Control_c, 13, 64, 56
14, 31414, Control_c, 13, 64, 127
14, 31507, Note_on_c, 13, 73, 0
14, 31516, Note_on_c, 13, 85, 0
14, 31544, Note_on_c, 13, 67, 72
14, 31549, Note_on_c, 13, 79, 89
14, 31567, Note_on_c, 13, 67, 0
14, 31572, Note_on_c, 13, 79, 0
14, 31577, Note_on_c, 13, 65, 79
14, 31578, Note_on_c, 13, 77, 97
14, 31603, Note_on_c, 13, 77, 0
14, 31605, Note_on_c, 13, 65, 0
14, 31605, Note_on_c, 13, 70, 94
14, 31609, Note_on_c, 13, 58, 57
14, 31615, Note_on_c, 13, 58, 0
14, 31620, Note_on_c, 13, 70, 0
14, 31635, Note_on_c, 13, 61, 85
14, 31637, Note_on_c, 13, 73, 97
14, 31660, Note_on_c, 13, 73, 0
14, 31663, Note_on_c, 13, 61, 0
14, 31666, Note_on_c, 13, 67, 93
14, 31668, Note_on_c, 13, 55, 79
14, 31696, Note_on_c, 13, 65, 94
14, 31698, Note_on_c, 13, 67, 0
14, 31700, Note_on_c, 13, 53, 81
14, 31704, Note_on_c, 13, 55, 0
14, 31722, Note_on_c, 13, 65, 0
14, 31724, Note_on_c, 13, 58, 95
14, 31725, Note_on_c, 13, 46, 60
14, 31726, Note_on_c, 13, 53, 0
14, 31739, Note_on_c, 13, 46, 0
14, 31739, Note_on_c, 13, 58, 0
14, 31757, Note_on_c, 13, 49, 95
14, 31759, Note_on_c, 13, 61, 94
14, 31781, Note_on_c, 13, 61, 0
14, 31784, Note_on_c, 13, 49, 0
14, 31789, Note_on_c, 13, 55, 97
14, 31790, Note_on_c, 13, 43, 82
14, 31816, Note_on_c, 13, 41, 70
14, 31818, Note_on_c, 13, 53, 91
14, 31830, Note_on_c, 13, 43, 0
14, 31832, Note_on_c, 13, 55, 0
14, 31843, Note_on_c, 13, 41, 0
14, 31845, Note_on_c, 13, 34, 59
14, 31846, Note_on_c, 13, 53, 0
14, 31850, Note_on_c, 13, 46, 93
14, 31851, Note_on_c, 13, 34, 0
14, 31868, Note_on_c, 13, 46, 0
14, 31878, Control_c, 13, 64, 56
14, 31882, Control_c, 13, 64, 0
14, 31882, Note_on_c, 13, 46, 97
14, 31882, Note_on_c, 13, 34, 54
14, 31904, Note_on_c, 13, 34, 0
14, 31904, Note_on_c, 13, 46, 0
14, 31905, Control_c, 13, 64, 40
14, 31910, Control_c, 13, 64, 88
14, 31911, Note_on_c, 13, 48, 92
14, 31911, Note_on_c, 13, 36, 57
14, 31914, Control_c, 13, 64, 127
14, 31929, Note_on_c, 13, 46, 88
14, 31929, Note_on_c, 13, 34, 54
14, 31930, Note_on_c, 13, 36, 0
14, 31930, Note_on_c, 13, 48, 0
14, 31948, Note_on_c, 13, 46, 0
14, 31948, Note_on_c, 13, 34, 0
14, 31950, Note_on_c, 13, 48, 88
14, 31950, Note_on_c, 13, 36, 56
14, 31967, Note_on_c, 13, 46, 77
14, 31967, Note_on_c, 13, 34, 54
14, 31968, Note_on_c, 13, 36, 0
14, 31968, Note_on_c, 13, 48, 0
14, 31986, Note_on_c, 13, 46, 0
14, 31986, Note_on_c, 13, 34, 0
14, 31988, Note_on_c, 13, 48, 84
14, 31988, Note_on_c, 13, 36, 57
14, 32002, Note_on_c, 13, 46, 82
14, 32002, Note_on_c, 13, 34, 54
14, 32003, Control_c, 13, 64, 72
14, 32007, Control_c, 13, 64, 0
14, 32008, Note_on_c, 13, 36, 0
14, 32008, Note_on_c, 13, 48, 0
14, 32021, Note_on_c, 13, 46, 0
14, 32021, Note_on_c, 13, 34, 0
14, 32021, Note_on_c, 13, 44, 86
14, 32021, Note_on_c, 13, 32, 54
14, 32046, Note_on_c, 13, 46, 90
14, 32046, Note_on_c, 13, 34, 56
14, 32052, Note_on_c, 13, 32, 0
14, 32052, Note_on_c, 13, 44, 0
14, 32071, Note_on_c, 13, 48, 92
14, 32071, Note_on_c, 13, 36, 58
14, 32073, Note_on_c, 13, 46, 0
14, 32073, Note_on_c, 13, 34, 0
14, 32112, Note_on_c, 13, 46, 94
14, 32112, Note_on_c, 13, 34, 57
14, 32114, Note_on_c, 13, 48, 0
14, 32114, Note_on_c, 13, 36, 0
14, 32132, Control_c, 13, 64, 40
14, 32135, Control_c, 13, 64, 72
14, 32144, Note_on_c, 13, 46, 0
14, 32144, Note_on_c, 13, 34, 0
14, 32150, Note_on_c, 13, 32, 55
14, 32150, Note_on_c, 13, 44, 97
14, 32152, Control_c, 13, 64, 88
14, 32183, Note_on_c, 13, 44, 0
14, 32183, Note_on_c, 13, 32, 0
14, 32188, Note_on_c, 13, 31, 54
14, 32188, Note_on_c, 13, 43, 98
14, 32192, Control_c, 13, 64, 104
14, 32224, Control_c, 13, 64, 127
14, 32240, Note_on_c, 13, 41, 80
14, 32240, Note_on_c, 13, 29, 61
14, 32242, Note_on_c, 13, 43, 0
14, 32242, Note_on_c, 13, 31, 0
14, 32273, Control_c, 13, 64, 72
14, 32277, Control_c, 13, 64, 24
14, 32280, Control_c, 13, 64, 0
14, 32317, Control_c, 13, 64, 56
14, 32321, Control_c, 13, 64, 127
14, 32414, Note_on_c, 13, 41, 0
14, 32414, Note_on_c, 13, 29, 0
14, 32470, Note_on_c, 13, 36, 77
14, 32487, Control_c, 13, 64, 56
14, 32491, Control_c, 13, 64, 0
14, 32507, Control_c, 13, 64, 24
14, 32510, Note_on_c, 13, 36, 0
14, 32511, Control_c, 13, 64, 72
14, 32515, Note_on_c, 13, 41, 84
14, 32515, Control_c, 13, 64, 104
14, 32519, Control_c, 13, 64, 127
14, 32555, Control_c, 13, 64, 104
14, 32556, Note_on_c, 13, 43, 89
14, 32559, Control_c, 13, 64, 56
14, 32561, Note_on_c, 13, 41, 0
14, 32563, Control_c, 13, 64, 0
14, 32579, Control_c, 13, 64, 40
14, 32584, Control_c, 13, 64, 56
14, 32596, Note_on_c, 13, 44, 89
14, 32596, Control_c, 13, 64, 0
14, 32602, Note_on_c, 13, 43, 0
14, 32620, Control_c, 13, 64, 24
14, 32623, Control_c, 13, 64, 40
14, 32635, Note_on_c, 13, 48, 93
14, 32636, Note_on_c, 13, 44, 0
14, 32636, Control_c, 13, 64, 0
14, 32648, Control_c, 13, 64, 24
14, 32652, Control_c, 13, 64, 40
14, 32656, Control_c, 13, 64, 56
14, 32660, Control_c, 13, 64, 72
14, 32673, Note_on_c, 13, 48, 0
14, 32675, Control_c, 13, 64, 40
14, 32678, Note_on_c, 13, 53, 86
14, 32688, Control_c, 13, 64, 72
14, 32692, Control_c, 13, 64, 88
14, 32704, Control_c, 13, 64, 104
14, 32716, Note_on_c, 13, 58, 81
14, 32716, Control_c, 13, 64, 127
14, 32722, Note_on_c, 13, 53, 0
14, 32760, Note_on_c, 13, 58, 0
14, 32760, Note_on_c, 13, 56, 73
14, 32761, Control_c, 13, 64, 104
14, 32764, Control_c, 13, 64, 40
14, 32768, Control_c, 13, 64, 0
14, 32797, Control_c, 13, 64, 56
14, 32801, Control_c, 13, 64, 104
14, 32805, Control_c, 13, 64, 127
14, 32807, Note_on_c, 13, 56, 0
14, 32809, Note_on_c, 13, 60, 72
14, 32834, Note_on_c, 13, 77, 82
14, 32858, Control_c, 13, 64, 88
14, 32859, Note_on_c, 13, 60, 0
14, 32861, Note_on_c, 13, 77, 0
14, 32861, Note_on_c, 13, 68, 84
14, 32862, Control_c, 13, 64, 40
14, 32865, Control_c, 13, 64, 0
14, 32867, Note_on_c, 13, 65, 66
14, 32870, Control_c, 13, 64, 24
14, 32874, Control_c, 13, 64, 56
14, 32878, Control_c, 13, 64, 88
14, 32882, Control_c, 13, 64, 127
14, 32896, Note_on_c, 13, 68, 0
14, 32898, Note_on_c, 13, 65, 0
14, 32911, Note_on_c, 13, 67, 42
14, 32937, Note_on_c, 13, 70, 80
14, 32938, Note_on_c, 13, 67, 0
14, 32964, Note_on_c, 13, 70, 0
14, 32970, Note_on_c, 13, 72, 86
14, 32973, Note_on_c, 13, 68, 57
14, 32991, Control_c, 13, 64, 104
14, 32995, Control_c, 13, 64, 40
14, 32999, Control_c, 13, 64, 0
14, 33023, Control_c, 13, 64, 56
14, 33027, Control_c, 13, 64, 104
14, 33031, Control_c, 13, 64, 127
14, 33041, Note_on_c, 13, 68, 0
14, 33074, Note_on_c, 13, 68, 67
14, 33078, Note_on_c, 13, 65, 50
14, 33167, Note_on_c, 13, 65, 0
14, 33172, Note_on_c, 13, 68, 0
14, 33175, Note_on_c, 13, 67, 66
14, 33178, Note_on_c, 13, 64, 52
14, 33192, Control_c, 13, 64, 88
14, 33196, Control_c, 13, 64, 0
14, 33221, Control_c, 13, 64, 56
14, 33225, Control_c, 13, 64, 104
14, 33229, Control_c, 13, 64, 127
14, 33280, Note_on_c, 13, 64, 0
14, 33280, Note_on_c, 13, 66, 67
14, 33284, Note_on_c, 13, 67, 0
14, 33287, Note_on_c, 13, 63, 36
14, 33293, Control_c, 13, 64, 104
14, 33297, Control_c, 13, 64, 40
14, 33301, Control_c, 13, 64, 0
14, 33318, Control_c, 13, 64, 56
14, 33322, Control_c, 13, 64, 104
14, 33326, Control_c, 13, 64, 127
14, 33333, Note_on_c, 13, 63, 0
14, 33363, Note_on_c, 13, 66, 0
14, 33369, Note_on_c, 13, 72, 0
14, 33380, Note_on_c, 13, 70, 84
14, 33382, Note_on_c, 13, 65, 44
14, 33386, Note_on_c, 13, 62, 46
14, 33397, Control_c, 13, 64, 104
14, 33402, Control_c, 13, 64, 40
14, 33406, Control_c, 13, 64, 0
14, 33422, Control_c, 13, 64, 24
14, 33426, Control_c, 13, 64, 72
14, 33430, Control_c, 13, 64, 127
14, 33483, Control_c, 13, 64, 72
14, 33487, Control_c, 13, 64, 0
14, 33489, Note_on_c, 13, 61, 55
14, 33494, Note_on_c, 13, 62, 0
14, 33503, Control_c, 13, 64, 40
14, 33507, Control_c, 13, 64, 88
14, 33511, Control_c, 13, 64, 127
14, 33523, Note_on_c, 13, 61, 0
14, 33583, Note_on_c, 13, 70, 0
14, 33585, Note_on_c, 13, 68, 71
14, 33588, Control_c, 13, 64, 104
14, 33591, Note_on_c, 13, 60, 53
14, 33592, Control_c, 13, 64, 40
14, 33595, Control_c, 13, 64, 0
14, 33616, Control_c, 13, 64, 40
14, 33620, Control_c, 13, 64, 88
14, 33624, Control_c, 13, 64, 127
14, 33638, Note_on_c, 13, 65, 0
14, 33664, Note_on_c, 13, 60, 0
14, 33673, Note_on_c, 13, 68, 0
14, 33684, Note_on_c, 13, 67, 76
14, 33684, Control_c, 13, 64, 72
14, 33688, Note_on_c, 13, 58, 52
14, 33688, Note_on_c, 13, 61, 48
14, 33688, Control_c, 13, 64, 0
14, 33705, Note_on_c, 13, 61, 0
14, 33705, Control_c, 13, 64, 56
14, 33707, Note_on_c, 13, 58, 0
14, 33709, Control_c, 13, 64, 104
14, 33713, Control_c, 13, 64, 127
14, 33727, Note_on_c, 13, 67, 0
14, 33753, Note_on_c, 13, 65, 74
14, 33767, Note_on_c, 13, 65, 0
14, 33771, Note_on_c, 13, 67, 89
14, 33786, Control_c, 13, 64, 88
14, 33787, Note_on_c, 13, 67, 0
14, 33788, Note_on_c, 13, 60, 58
14, 33788, Note_on_c, 13, 56, 46
14, 33790, Control_c, 13, 64, 0
14, 33790, Note_on_c, 13, 65, 90
14, 33810, Control_c, 13, 64, 24
14, 33814, Control_c, 13, 64, 88
14, 33818, Control_c, 13, 64, 127
14, 33835, Note_on_c, 13, 65, 0
14, 33856, Note_on_c, 13, 64, 81
14, 33874, Note_on_c, 13, 56, 0
14, 33877, Note_on_c, 13, 60, 0
14, 33879, Note_on_c, 13, 64, 0
14, 33884, Note_on_c, 13, 65, 93
14, 33887, Note_on_c, 13, 58, 52
14, 33894, Control_c, 13, 64, 40
14, 33897, Note_on_c, 13, 55, 38
14, 33898, Control_c, 13, 64, 0
14, 33918, Control_c, 13, 64, 40
14, 33922, Control_c, 13, 64, 88
14, 33927, Control_c, 13, 64, 127
14, 33932, Note_on_c, 13, 65, 0
14, 33944, Note_on_c, 13, 55, 0
14, 33951, Note_on_c, 13, 67, 92
14, 33970, Note_on_c, 13, 58, 0
14, 33972, Note_on_c, 13, 67, 0
14, 33978, Note_on_c, 13, 68, 93
14, 33983, Control_c, 13, 64, 72
14, 33986, Note_on_c, 13, 53, 66
14, 33987, Note_on_c, 13, 56, 47
14, 33987, Control_c, 13, 64, 0
14, 34011, Control_c, 13, 64, 40
14, 34016, Control_c, 13, 64, 127
14, 34025, Note_on_c, 13, 53, 0
14, 34028, Note_on_c, 13, 56, 0
14, 34076, Note_on_c, 13, 68, 0
14, 34086, Note_on_c, 13, 65, 92
14, 34088, Control_c, 13, 64, 104
14, 34092, Note_on_c, 13, 56, 52
14, 34092, Note_on_c, 13, 49, 57
14, 34093, Control_c, 13, 64, 0
14, 34093, Note_on_c, 13, 59, 68
14, 34116, Control_c, 13, 64, 72
14, 34120, Control_c, 13, 64, 127
14, 34123, Note_on_c, 13, 65, 0
14, 34126, Note_on_c, 13, 56, 0
14, 34126, Note_on_c, 13, 49, 0
14, 34130, Note_on_c, 13, 59, 0
14, 34199, Note_on_c, 13, 65, 92
14, 34204, Note_on_c, 13, 56, 52
14, 34206, Note_on_c, 13, 60, 66
14, 34211, Note_on_c, 13, 48, 61
14, 34221, Control_c, 13, 64, 88
14, 34225, Control_c, 13, 64, 24
14, 34229, Control_c, 13, 64, 0
14, 34258, Control_c, 13, 64, 56
14, 34262, Control_c, 13, 64, 104
14, 34266, Control_c, 13, 64, 127
14, 34278, Note_on_c, 13, 60, 0
14, 34306, Control_c, 13, 64, 72
14, 34310, Control_c, 13, 64, 24
14, 34317, Note_on_c, 13, 59, 49
14, 34322, Control_c, 13, 64, 88
14, 34326, Control_c, 13, 64, 127
14, 34365, Note_on_c, 13, 65, 0
14, 34375, Note_on_c, 13, 56, 0
14, 34376, Note_on_c, 13, 67, 69
14, 34381, Note_on_c, 13, 59, 0
14, 34398, Note_on_c, 13, 65, 72
14, 34400, Note_on_c, 13, 67, 0
14, 34423, Control_c, 13, 64, 56
14, 34427, Control_c, 13, 64, 0
14, 34429, Note_on_c, 13, 65, 0
14, 34429, Note_on_c, 13, 64, 70
14, 34435, Note_on_c, 13, 55, 59
14, 34436, Note_on_c, 13, 60, 66
14, 34446, Note_on_c, 13, 64, 0
14, 34451, Control_c, 13, 64, 40
14, 34452, Note_on_c, 13, 60, 0
14, 34452, Note_on_c, 13, 55, 0
14, 34455, Control_c, 13, 64, 88
14, 34457, Note_on_c, 13, 48, 0
14, 34459, Control_c, 13, 64, 127
14, 34514, Note_on_c, 13, 61, 90
14, 34514, Note_on_c, 13, 37, 82
14, 34514, Note_on_c, 13, 49, 90
14, 34520, Note_on_c, 13, 49, 0
14, 34522, Note_on_c, 13, 37, 0
14, 34524, Control_c, 13, 64, 56
14, 34528, Control_c, 13, 64, 0
14, 34533, Note_on_c, 13, 61, 0
14, 34536, Note_on_c, 13, 55, 112
14, 34542, Note_on_c, 13, 43, 100
14, 34544, Note_on_c, 13, 31, 95
14, 34544, Control_c, 13, 64, 72
14, 34548, Control_c, 13, 64, 127
14, 34553, Note_on_c, 13, 31, 0
14, 34554, Note_on_c, 13, 43, 0
14, 34584, Note_on_c, 13, 55, 0
14, 34608, Note_on_c, 13, 44, 84
14, 34609, Note_on_c, 13, 56, 87
14, 34610, Note_on_c, 13, 32, 76
14, 34616, Note_on_c, 13, 32, 0
14, 34616, Note_on_c, 13, 44, 0
14, 34625, Control_c, 13, 64, 88
14, 34628, Note_on_c, 13, 56, 0
14, 34629, Control_c, 13, 64, 0
14, 34634, Note_on_c, 13, 58, 97
14, 34638, Note_on_c, 13, 46, 101
14, 34640, Note_on_c, 13, 34, 84
14, 34647, Note_on_c, 13, 34, 0
14, 34649, Control_c, 13, 64, 56
14, 34650, Note_on_c, 13, 46, 0
14, 34653, Control_c, 13, 64, 127
14, 34658, Note_on_c, 13, 58, 0
14, 34725, Note_on_c, 13, 49, 74
14, 34725, Note_on_c, 13, 55, 66
14, 34734, Control_c, 13, 64, 0
14, 34736, Note_on_c, 13, 58, 47
14, 34741, Note_on_c, 13, 77, 108
14, 34743, Note_on_c, 13, 70, 79
14, 34744, Note_on_c, 13, 65, 79
14, 34744, Note_on_c, 13, 67, 73
14, 34748, Note_on_c, 13, 61, 80
14, 34758, Control_c, 13, 64, 104
14, 34761, Control_c, 13, 64, 127
14, 34768, Note_on_c, 13, 70, 0
14, 34773, Note_on_c, 13, 49, 0
14, 34775, Note_on_c, 13, 55, 0
14, 34778, Note_on_c, 13, 77, 0
14, 34778, Note_on_c, 13, 58, 0
14, 34783, Note_on_c, 13, 67, 0
14, 34783, Note_on_c, 13, 65, 0
14, 34784, Note_on_c, 13, 61, 0
14, 34854, Note_on_c, 13, 76, 96
14, 34855, Control_c, 13, 64, 40
14, 34856, Note_on_c, 13, 64, 69
14, 34857, Note_on_c, 13, 70, 65
14, 34857, Note_on_c, 13, 58, 50
14, 34859, Note_on_c, 13, 48, 73
14, 34859, Note_on_c, 13, 67, 56
14, 34859, Control_c, 13, 64, 0
14, 34860, Note_on_c, 13, 60, 67
14, 34862, Note_on_c, 13, 55, 51
14, 34879, Control_c, 13, 64, 72
14, 34883, Note_on_c, 13, 76, 0
14, 34883, Control_c, 13, 64, 127
14, 34886, Note_on_c, 13, 67, 0
14, 34886, Note_on_c, 13, 70, 0
14, 34887, Note_on_c, 13, 60, 0
14, 34890, Note_on_c, 13, 55, 0
14, 34891, Note_on_c, 13, 58, 0
14, 34891, Note_on_c, 13, 64, 0
14, 34895, Note_on_c, 13, 48, 0
14, 34941, Note_on_c, 13, 49, 84
14, 34945, Note_on_c, 13, 61, 86
14, 34946, Note_on_c, 13, 37, 48
14, 34949, Note_on_c, 13, 49, 0
14, 34952, Note_on_c, 13, 37, 0
14, 34956, Control_c, 13, 64, 88
14, 34960, Control_c, 13, 64, 0
14, 34965, Note_on_c, 13, 55, 103
14, 34967, Note_on_c, 13, 61, 0
14, 34972, Note_on_c, 13, 43, 91
14, 34975, Note_on_c, 13, 31, 86
14, 34976, Control_c, 13, 64, 56
14, 34980, Control_c, 13, 64, 127
14, 34981, Note_on_c, 13, 31, 0
14, 34985, Note_on_c, 13, 43, 0
14, 35013, Note_on_c, 13, 55, 0
14, 35036, Note_on_c, 13, 56, 92
14, 35036, Note_on_c, 13, 44, 81
14, 35037, Note_on_c, 13, 32, 88
14, 35045, Note_on_c, 13, 44, 0
14, 35046, Note_on_c, 13, 32, 0
14, 35052, Control_c, 13, 64, 104
14, 35055, Note_on_c, 13, 56, 0
14, 35056, Control_c, 13, 64, 0
14, 35061, Note_on_c, 13, 58, 96
14, 35068, Note_on_c, 13, 46, 93
14, 35068, Note_on_c, 13, 34, 78
14, 35074, Note_on_c, 13, 34, 0
14, 35076, Control_c, 13, 64, 56
14, 35078, Note_on_c, 13, 46, 0
14, 35080, Control_c, 13, 64, 127
14, 35082, Note_on_c, 13, 58, 0
14, 35145, Control_c, 13, 64, 104
14, 35147, Note_on_c, 13, 49, 74
14, 35149, Control_c, 13, 64, 0
14, 35157, Note_on_c, 13, 55, 54
14, 35159, Note_on_c, 13, 58, 51
14, 35169, Note_on_c, 13, 49, 0
14, 35170, Note_on_c, 13, 82, 94
14, 35173, Note_on_c, 13, 70, 76
14, 35173, Control_c, 13, 64, 72
14, 35176, Note_on_c, 13, 77, 77
14, 35176, Note_on_c, 13, 79, 67
14, 35177, Control_c, 13, 64, 127
14, 35181, Note_on_c, 13, 65, 81
14, 35183, Note_on_c, 13, 55, 0
14, 35194, Note_on_c, 13, 55, 26
14, 35200, Note_on_c, 13, 65, 0
14, 35203, Note_on_c, 13, 58, 0
14, 35214, Note_on_c, 13, 55, 0
14, 35222, Control_c, 13, 64, 56
14, 35226, Control_c, 13, 64, 0
14, 35238, Note_on_c, 13, 77, 0
14, 35242, Control_c, 13, 64, 88
14, 35246, Control_c, 13, 64, 127
14, 35248, Note_on_c, 13, 79, 0
14, 35250, Note_on_c, 13, 70, 0
14, 35250, Note_on_c, 13, 48, 85
14, 35255, Note_on_c, 13, 82, 0
14, 35266, Note_on_c, 13, 48, 0
14, 35272, Note_on_c, 13, 55, 52
14, 35278, Note_on_c, 13, 58, 55
14, 35290, Control_c, 13, 64, 88
14, 35292, Note_on_c, 13, 82, 86
14, 35294, Note_on_c, 13, 64, 67
14, 35294, Note_on_c, 13, 70, 65
14, 35296, Control_c, 13, 64, 0
14, 35296, Note_on_c, 13, 79, 69
14, 35297, Note_on_c, 13, 76, 69
14, 35302, Control_c, 13, 64, 24
14, 35304, Note_on_c, 13, 76, 0
14, 35306, Control_c, 13, 64, 72
14, 35308, Note_on_c, 13, 55, 0
14, 35311, Control_c, 13, 64, 127
14, 35316, Note_on_c, 13, 58, 0
14, 35318, Note_on_c, 13, 64, 0
14, 35326, Note_on_c, 13, 70, 0
14, 35328, Note_on_c, 13, 79, 0
14, 35368, Note_on_c, 13, 82, 0
14, 35379, Note_on_c, 13, 70, 75
14, 35388, Note_on_c, 13, 58, 53
14, 35395, Note_on_c, 13, 70, 0
14, 35408, Note_on_c, 13, 79, 93
14, 35410, Note_on_c, 13, 67, 66
14, 35436, Control_c, 13, 64, 72
14, 35440, Control_c, 13, 64, 0
14, 35460, Control_c, 13, 64, 56
14, 35464, Control_c, 13, 64, 127
14, 35470, Note_on_c, 13, 67, 0
14, 35478, Note_on_c, 13, 79, 0
14, 35480, Note_on_c, 13, 77, 90
14, 35484, Note_on_c, 13, 65, 64
14, 35506, Note_on_c, 13, 77, 0
14, 35507, Note_on_c, 13, 76, 98
14, 35508, Control_c, 13, 64, 40
14, 35512, Control_c, 13, 64, 0
14, 35513, Note_on_c, 13, 65, 0
14, 35513, Note_on_c, 13, 64, 75
14, 35514, Note_on_c, 13, 58, 0
14, 35521, Note_on_c, 13, 64, 0
14, 35528, Control_c, 13, 64, 56
14, 35532, Control_c, 13, 64, 127
14, 35585, Control_c, 13, 64, 56
14, 35586, Note_on_c, 13, 76, 0
14, 35588, Control_c, 13, 64, 0
14, 35592, Note_on_c, 13, 52, 65
14, 35605, Control_c, 13, 64, 104
14, 35608, Note_on_c, 13, 58, 55
14, 35609, Control_c, 13, 64, 127
14, 35610, Note_on_c, 13, 52, 0
14, 35612, Note_on_c, 13, 82, 80
14, 35621, Note_on_c, 13, 61, 58
14, 35633, Note_on_c, 13, 84, 87
14, 35635, Note_on_c, 13, 82, 0
14, 35646, Note_on_c, 13, 67, 64
14, 35656, Note_on_c, 13, 82, 84
14, 35657, Note_on_c, 13, 84, 0
14, 35675, Note_on_c, 13, 82, 0
14, 35677, Note_on_c, 13, 81, 88
14, 35698, Note_on_c, 13, 82, 89
14, 35700, Note_on_c, 13, 81, 0
14, 35725, Note_on_c, 13, 85, 91
14, 35727, Note_on_c, 13, 82, 0
14, 35748, Note_on_c, 13, 85, 0
14, 35754, Note_on_c, 13, 92, 107
14, 35764, Note_on_c, 13, 85, 28
14, 35770, Note_on_c, 13, 85, 0
14, 35796, Note_on_c, 13, 92, 0
14, 35816, Note_on_c, 13, 91, 94
14, 35843, Note_on_c, 13, 88, 79
14, 35846, Note_on_c, 13, 91, 0
14, 35865, Note_on_c, 13, 85, 80
14, 35873, Note_on_c, 13, 88, 0
14, 35891, Note_on_c, 13, 82, 72
14, 35907, Note_on_c, 13, 85, 0
14, 35908, Note_on_c, 13, 67, 0
14, 35913, Note_on_c, 13, 82, 0
14, 35913, Note_on_c, 13, 79, 82
14, 35924, Note_on_c, 13, 79, 0
14, 35940, Note_on_c, 13, 76, 73
14, 35942, Note_on_c, 13, 61, 0
14, 35944, Note_on_c, 13, 58, 0
14, 35963, Note_on_c, 13, 73, 73
14, 35965, Note_on_c, 13, 76, 0
14, 35992, Note_on_c, 13, 73, 0
14, 35996, Note_on_c, 13, 72, 86
14, 36004, Note_on_c, 13, 61, 34
14, 36004, Note_on_c, 13, 58, 35
14, 36006, Note_on_c, 13, 52, 43
14, 36009, Control_c, 13, 64, 56
14, 36013, Control_c, 13, 64, 0
14, 36025, Note_on_c, 13, 72, 0
14, 36030, Note_on_c, 13, 73, 81
14, 36041, Control_c, 13, 64, 72
14, 36044, Control_c, 13, 64, 127
14, 36057, Note_on_c, 13, 73, 0
14, 36058, Note_on_c, 13, 67, 72
14, 36101, Note_on_c, 13, 67, 0
14, 36102, Note_on_c, 13, 72, 77
14, 36114, Control_c, 13, 64, 24
14, 36118, Control_c, 13, 64, 0
14, 36129, Note_on_c, 13, 72, 0
14, 36134, Control_c, 13, 64, 40
14, 36136, Note_on_c, 13, 70, 68
14, 36138, Control_c, 13, 64, 104
14, 36141, Control_c, 13, 64, 127
14, 36163, Note_on_c, 13, 52, 0
14, 36170, Note_on_c, 13, 70, 0
14, 36172, Note_on_c, 13, 61, 0
14, 36172, Note_on_c, 13, 68, 68
14, 36174, Note_on_c, 13, 58, 0
14, 36218, Note_on_c, 13, 68, 0
14, 36222, Note_on_c, 13, 67, 70
14, 36224, Note_on_c, 13, 58, 37
14, 36228, Note_on_c, 13, 61, 33
14, 36234, Note_on_c, 13, 53, 33
14, 36243, Control_c, 13, 64, 88
14, 36247, Control_c, 13, 64, 24
14, 36251, Control_c, 13, 64, 0
14, 36275, Control_c, 13, 64, 88
14, 36278, Control_c, 13, 64, 127
14, 36313, Note_on_c, 13, 67, 0
14, 36327, Note_on_c, 13, 53, 0
14, 36332, Note_on_c, 13, 65, 57
14, 36334, Note_on_c, 13, 61, 0
14, 36344, Note_on_c, 13, 65, 0
14, 36369, Note_on_c, 13, 65, 47
14, 36370, Note_on_c, 13, 58, 0
14, 36377, Note_on_c, 13, 56, 39
14, 36381, Note_on_c, 13, 60, 36
14, 36392, Control_c, 13, 64, 72
14, 36396, Control_c, 13, 64, 0
14, 36427, Control_c, 13, 64, 24
14, 36432, Control_c, 13, 64, 88
14, 36436, Control_c, 13, 64, 127
14, 36466, Note_on_c, 13, 65, 0
14, 36476, Note_on_c, 13, 56, 0
14, 36484, Note_on_c, 13, 60, 0
14, 36573, Control_c, 13, 64, 88
14, 36577, Control_c, 13, 64, 0
14, 36590, Note_on_c, 13, 72, 77
14, 36600, Control_c, 13, 64, 104
14, 36604, Control_c, 13, 64, 127
14, 36664, Note_on_c, 13, 84, 97
14, 36709, Note_on_c, 13, 84, 0
14, 36728, Note_on_c, 13, 80, 88
14, 36743, Note_on_c, 13, 72, 0
14, 36793, Note_on_c, 13, 80, 0
14, 36796, Note_on_c, 13, 77, 78
14, 36800, Note_on_c, 13, 53, 54
14, 36801, Note_on_c, 13, 68, 30
14, 36814, Control_c, 13, 64, 88
14, 36818, Control_c, 13, 64, 24
14, 36822, Control_c, 13, 64, 0
14, 36845, Control_c, 13, 64, 40
14, 36850, Control_c, 13, 64, 104
14, 36854, Control_c, 13, 64, 127
14, 36868, Note_on_c, 13, 68, 0
14, 36868, Note_on_c, 13, 53, 0
14, 36868, Note_on_c, 13, 60, 64
14, 36913, Note_on_c, 13, 60, 0
14, 36930, Note_on_c, 13, 77, 0
14, 36932, Note_on_c, 13, 76, 86
14, 36934, Note_on_c, 13, 67, 56
14, 36937, Note_on_c, 13, 58, 31
14, 36959, Control_c, 13, 64, 56
14, 36963, Control_c, 13, 64, 0
14, 36979, Control_c, 13, 64, 56
14, 36983, Control_c, 13, 64, 127
14, 36994, Note_on_c, 13, 67, 0
14, 36996, Note_on_c, 13, 60, 50
14, 36997, Note_on_c, 13, 58, 0
14, 37057, Note_on_c, 13, 60, 0
14, 37058, Note_on_c, 13, 77, 81
14, 37060, Note_on_c, 13, 65, 48
14, 37064, Note_on_c, 13, 76, 0
14, 37066, Note_on_c, 13, 56, 39
14, 37079, Control_c, 13, 64, 88
14, 37083, Control_c, 13, 64, 0
14, 37104, Control_c, 13, 64, 72
14, 37108, Control_c, 13, 64, 127
14, 37120, Note_on_c, 13, 56, 0
14, 37120, Note_on_c, 13, 65, 0
14, 37121, Note_on_c, 13, 60, 54
14, 37163, Note_on_c, 13, 60, 0
14, 37176, Note_on_c, 13, 77, 0
14, 37182, Note_on_c, 13, 73, 80
14, 37189, Note_on_c, 13, 56, 27
14, 37191, Note_on_c, 13, 53, 45
14, 37201, Control_c, 13, 64, 56
14, 37205, Control_c, 13, 64, 0
14, 37224, Control_c, 13, 64, 40
14, 37229, Control_c, 13, 64, 104
14, 37232, Note_on_c, 13, 53, 0
14, 37233, Control_c, 13, 64, 127
14, 37242, Note_on_c, 13, 56, 0
14, 37244, Note_on_c, 13, 60, 49
14, 37296, Note_on_c, 13, 60, 0
14, 37306, Note_on_c, 13, 73, 0
14, 37309, Note_on_c, 13, 72, 81
14, 37313, Note_on_c, 13, 55, 30
14, 37317, Note_on_c, 13, 52, 40
14, 37326, Control_c, 13, 64, 56
14, 37330, Control_c, 13, 64, 0
14, 37354, Control_c, 13, 64, 56
14, 37358, Control_c, 13, 64, 127
14, 37370, Note_on_c, 13, 55, 0
14, 37375, Note_on_c, 13, 52, 0
14, 37378, Note_on_c, 13, 60, 45
14, 37422, Note_on_c, 13, 60, 0
14, 37437, Note_on_c, 13, 48, 58
14, 37486, Note_on_c, 13, 48, 0
14, 37486, Note_on_c, 13, 72, 0
14, 37495, Note_on_c, 13, 70, 67
14, 37503, Note_on_c, 13, 60, 46
14, 37563, Control_c, 13, 64, 104
14, 37564, Note_on_c, 13, 68, 61
14, 37567, Note_on_c, 13, 70, 0
14, 37568, Control_c, 13, 64, 24
14, 37572, Note_on_c, 13, 53, 43
14, 37572, Control_c, 13, 64, 0
14, 37576, Note_on_c, 13, 60, 0
14, 37596, Control_c, 13, 64, 72
14, 37600, Control_c, 13, 64, 127
14, 37609, Note_on_c, 13, 68, 0
14, 37631, Note_on_c, 13, 60, 52
14, 37658, Note_on_c, 13, 72, 77
14, 37673, Note_on_c, 13, 72, 0
14, 37696, Note_on_c, 13, 85, 89
14, 37700, Note_on_c, 13, 60, 0
14, 37706, Note_on_c, 13, 56, 46
14, 37718, Note_on_c, 13, 85, 0
14, 37726, Note_on_c, 13, 84, 88
14, 37750, Note_on_c, 13, 83, 91
14, 37753, Note_on_c, 13, 53, 0
14, 37754, Note_on_c, 13, 84, 0
14, 37756, Note_on_c, 13, 60, 65
14, 37762, Note_on_c, 13, 56, 0
14, 37768, Note_on_c, 13, 83, 0
14, 37770, Note_on_c, 13, 60, 0
14, 37778, Note_on_c, 13, 84, 91
14, 37800, Note_on_c, 13, 80, 91
14, 37802, Note_on_c, 13, 84, 0
14, 37826, Note_on_c, 13, 80, 0
14, 37832, Note_on_c, 13, 77, 92
14, 37838, Control_c, 13, 64, 88
14, 37841, Control_c, 13, 64, 24
14, 37844, Note_on_c, 13, 68, 57
14, 37844, Note_on_c, 13, 53, 60
14, 37845, Control_c, 13, 64, 0
14, 37866, Control_c, 13, 64, 24
14, 37870, Control_c, 13, 64, 104
14, 37874, Control_c, 13, 64, 127
14, 37877, Note_on_c, 13, 53, 0
14, 37886, Note_on_c, 13, 68, 0
14, 37898, Note_on_c, 13, 60, 58
14, 37935, Note_on_c, 13, 60, 0
14, 37964, Note_on_c, 13, 77, 0
14, 37965, Note_on_c, 13, 76, 85
14, 37970, Note_on_c, 13, 68, 67
14, 37971, Note_on_c, 13, 58, 60
14, 37983, Control_c, 13, 64, 88
14, 37988, Control_c, 13, 64, 0
14, 38008, Control_c, 13, 64, 72
14, 38012, Control_c, 13, 64, 127
14, 38018, Note_on_c, 13, 68, 0
14, 38039, Note_on_c, 13, 60, 63
14, 38039, Note_on_c, 13, 67, 70
14, 38065, Note_on_c, 13, 58, 0
14, 38069, Note_on_c, 13, 67, 0
14, 38078, Note_on_c, 13, 60, 0
14, 38093, Note_on_c, 13, 76, 0
14, 38103, Note_on_c, 13, 77, 86
14, 38108, Note_on_c, 13, 65, 54
14, 38112, Control_c, 13, 64, 40
14, 38114, Note_on_c, 13, 56, 38
14, 38116, Control_c, 13, 64, 0
14, 38128, Control_c, 13, 64, 40
14, 38130, Note_on_c, 13, 77, 0
14, 38130, Note_on_c, 13, 79, 73
14, 38133, Control_c, 13, 64, 88
14, 38137, Control_c, 13, 64, 127
14, 38156, Note_on_c, 13, 79, 0
14, 38156, Note_on_c, 13, 77, 80
14, 38174, Note_on_c, 13, 77, 0
14, 38174, Note_on_c, 13, 76, 76
14, 38177, Note_on_c, 13, 60, 52
14, 38183, Note_on_c, 13, 56, 0
14, 38184, Note_on_c, 13, 65, 0
14, 38196, Note_on_c, 13, 77, 77
14, 38215, Note_on_c, 13, 76, 0
14, 38216, Note_on_c, 13, 79, 82
14, 38218, Note_on_c, 13, 77, 0
14, 38240, Note_on_c, 13, 79, 0
14, 38243, Note_on_c, 13, 82, 86
14, 38246, Control_c, 13, 64, 56
14, 38250, Control_c, 13, 64, 0
14, 38253, Note_on_c, 13, 60, 0
14, 38254, Note_on_c, 13, 56, 40
14, 38263, Note_on_c, 13, 53, 44
14, 38266, Control_c, 13, 64, 56
14, 38267, Note_on_c, 13, 80, 79
14, 38270, Control_c, 13, 64, 127
14, 38271, Note_on_c, 13, 82, 0
14, 38292, Note_on_c, 13, 77, 79
14, 38299, Note_on_c, 13, 80, 0
14, 38307, Note_on_c, 13, 77, 0
14, 38316, Note_on_c, 13, 71, 72
14, 38340, Note_on_c, 13, 71, 0
14, 38346, Note_on_c, 13, 72, 70
14, 38369, Note_on_c, 13, 72, 0
14, 38371, Note_on_c, 13, 75, 72
14, 38371, Control_c, 13, 64, 104
14, 38375, Control_c, 13, 64, 24
14, 38377, Note_on_c, 13, 60, 46
14, 38379, Control_c, 13, 64, 0
14, 38404, Note_on_c, 13, 73, 70
14, 38407, Note_on_c, 13, 75, 0
14, 38407, Control_c, 13, 64, 104
14, 38411, Control_c, 13, 64, 127
14, 38422, Note_on_c, 13, 53, 0
14, 38427, Note_on_c, 13, 73, 0
14, 38432, Note_on_c, 13, 60, 0
14, 38448, Note_on_c, 13, 56, 0
14, 38477, Note_on_c, 13, 72, 73
14, 38493, Note_on_c, 13, 72, 0
14, 38508, Note_on_c, 13, 72, 73
14, 38520, Note_on_c, 13, 52, 50
14, 38532, Control_c, 13, 64, 72
14, 38535, Control_c, 13, 64, 0
14, 38564, Control_c, 13, 64, 88
14, 38568, Control_c, 13, 64, 127
14, 38580, Note_on_c, 13, 55, 57
14, 38638, Note_on_c, 13, 55, 0
14, 38640, Note_on_c, 13, 60, 66
14, 38641, Note_on_c, 13, 52, 0
14, 38698, Note_on_c, 13, 60, 0
14, 38702, Note_on_c, 13, 70, 66
14, 38708, Note_on_c, 13, 72, 0
14, 38718, Note_on_c, 13, 48, 57
14, 38722, Control_c, 13, 64, 88
14, 38726, Control_c, 13, 64, 40
14, 38738, Control_c, 13, 64, 72
14, 38742, Control_c, 13, 64, 127
14, 38764, Note_on_c, 13, 48, 0
14, 38768, Note_on_c, 13, 70, 0
14, 38770, Note_on_c, 13, 68, 74
14, 38778, Note_on_c, 13, 53, 52
14, 38778, Control_c, 13, 64, 88
14, 38781, Control_c, 13, 64, 0
14, 38810, Control_c, 13, 64, 40
14, 38814, Control_c, 13, 64, 88
14, 38818, Control_c, 13, 64, 127
14, 38826, Note_on_c, 13, 53, 0
14, 38835, Note_on_c, 13, 60, 64
14, 38870, Note_on_c, 13, 60, 0
14, 38888, Note_on_c, 13, 68, 0
14, 38899, Note_on_c, 13, 67, 79
14, 38909, Note_on_c, 13, 51, 44
14, 38911, Control_c, 13, 64, 56
14, 38915, Control_c, 13, 64, 0
14, 38932, Control_c, 13, 64, 40
14, 38936, Control_c, 13, 64, 88
14, 38940, Control_c, 13, 64, 127
14, 38942, Note_on_c, 13, 51, 0
14, 38952, Note_on_c, 13, 60, 61
14, 38954, Note_on_c, 13, 67, 0
14, 38980, Note_on_c, 13, 67, 84
14, 38998, Note_on_c, 13, 60, 0
14, 39010, Note_on_c, 13, 65, 87
14, 39017, Note_on_c, 13, 67, 0
14, 39017, Note_on_c, 13, 49, 57
14, 39024, Control_c, 13, 64, 40
14, 39028, Control_c, 13, 64, 0
14, 39040, Control_c, 13, 64, 56
14, 39044, Note_on_c, 13, 67, 70
14, 39044, Control_c, 13, 64, 127
14, 39047, Note_on_c, 13, 65, 0
14, 39063, Note_on_c, 13, 67, 0
14, 39068, Note_on_c, 13, 65, 69
14, 39081, Note_on_c, 13, 53, 52
14, 39083, Note_on_c, 13, 67, 69
14, 39086, Note_on_c, 13, 65, 0
14, 39100, Note_on_c, 13, 67, 0
14, 39100, Note_on_c, 13, 65, 76
14, 39118, Note_on_c, 13, 67, 70
14, 39119, Note_on_c, 13, 65, 0
14, 39136, Note_on_c, 13, 67, 0
14, 39137, Note_on_c, 13, 65, 71
14, 39145, Note_on_c, 13, 56, 55
14, 39148, Note_on_c, 13, 53, 0
14, 39156, Note_on_c, 13, 65, 0
14, 39172, Note_on_c, 13, 64, 76
14, 39184, Note_on_c, 13, 64, 0
14, 39187, Note_on_c, 13, 61, 58
14, 39192, Note_on_c, 13, 65, 93
14, 39209, Note_on_c, 13, 65, 0
14, 39212, Note_on_c, 13, 56, 0
14, 39212, Note_on_c, 13, 68, 86
14, 39216, Note_on_c, 13, 61, 0
14, 39231, Note_on_c, 13, 49, 0
14, 39232, Note_on_c, 13, 68, 0
14, 39237, Note_on_c, 13, 73, 76
14, 39257, Note_on_c, 13, 73, 0
14, 39257, Note_on_c, 13, 76, 82
14, 39278, Note_on_c, 13, 76, 0
14, 39284, Note_on_c, 13, 79, 86
14, 39304, Note_on_c, 13, 79, 0
14, 39311, Note_on_c, 13, 77, 100
14, 39319, Control_c, 13, 64, 56
14, 39322, Note_on_c, 13, 44, 42
14, 39323, Control_c, 13, 64, 0
14, 39347, Control_c, 13, 64, 88
14, 39351, Control_c, 13, 64, 127
14, 39368, Note_on_c, 13, 44, 0
14, 39373, Note_on_c, 13, 77, 0
14, 39383, Note_on_c, 13, 53, 50
14, 39412, Note_on_c, 13, 53, 0
14, 39439, Note_on_c, 13, 89, 105
14, 39441, Note_on_c, 13, 60, 56
14, 39442, Note_on_c, 13, 77, 90
14, 39458, Note_on_c, 13, 60, 0
14, 39505, Note_on_c, 13, 68, 86
14, 39509, Note_on_c, 13, 77, 0
14, 39520, Note_on_c, 13, 68, 0
14, 39524, Note_on_c, 13, 89, 0
14, 39580, Note_on_c, 13, 92, 110
14, 39582, Note_on_c, 13, 80, 90
14, 39596, Note_on_c, 13, 46, 50
14, 39609, Control_c, 13, 64, 88
14, 39613, Control_c, 13, 64, 0
14, 39638, Control_c, 13, 64, 127
14, 39647, Note_on_c, 13, 46, 0
14, 39655, Note_on_c, 13, 55, 63
14, 39659, Note_on_c, 13, 92, 0
14, 39661, Note_on_c, 13, 80, 0
14, 39702, Note_on_c, 13, 91, 94
14, 39704, Note_on_c, 13, 79, 80
14, 39705, Note_on_c, 13, 55, 0
14, 39708, Note_on_c, 13, 61, 42
14, 39728, Note_on_c, 13, 61, 0
14, 39740, Note_on_c, 13, 79, 0
14, 39740, Note_on_c, 13, 91, 0
14, 39766, Note_on_c, 13, 67, 68
14, 39768, Note_on_c, 13, 89, 98
14, 39768, Note_on_c, 13, 77, 92
14, 39781, Note_on_c, 13, 67, 0
14, 39790, Note_on_c, 13, 77, 0
14, 39802, Note_on_c, 13, 89, 0
14, 39830, Note_on_c, 13, 88, 92
14, 39831, Note_on_c, 13, 76, 77
14, 39841, Note_on_c, 13, 49, 54
14, 39847, Control_c, 13, 64, 40
14, 39851, Control_c, 13, 64, 0
14, 39866, Note_on_c, 13, 76, 0
14, 39868, Control_c, 13, 64, 72
14, 39872, Control_c, 13, 64, 127
14, 39893, Note_on_c, 13, 88, 0
14, 39893, Note_on_c, 13, 89, 100
14, 39895, Note_on_c, 13, 77, 87
14, 39904, Note_on_c, 13, 55, 51
14, 39911, Note_on_c, 13, 49, 0
14, 39913, Note_on_c, 13, 89, 0
14, 39917, Note_on_c, 13, 77, 0
14, 39959, Note_on_c, 13, 82, 89
14, 39960, Note_on_c, 13, 55, 0
14, 39961, Note_on_c, 13, 70, 71
14, 39964, Note_on_c, 13, 58, 60
14, 39996, Note_on_c, 13, 70, 0
14, 40000, Note_on_c, 13, 58, 0
14, 40007, Note_on_c, 13, 82, 0
14, 40019, Note_on_c, 13, 65, 47
14, 40020, Note_on_c, 13, 80, 93
14, 40023, Note_on_c, 13, 68, 72
14, 40058, Note_on_c, 13, 65, 0
14, 40074, Note_on_c, 13, 68, 0
14, 40080, Note_on_c, 13, 80, 0
14, 40087, Note_on_c, 13, 79, 92
14, 40089, Note_on_c, 13, 67, 73
14, 40102, Note_on_c, 13, 53, 51
14, 40122, Control_c, 13, 64, 72
14, 40126, Control_c, 13, 64, 0
14, 40131, Note_on_c, 13, 67, 0
14, 40146, Control_c, 13, 64, 72
14, 40150, Control_c, 13, 64, 127
14, 40153, Note_on_c, 13, 55, 53
14, 40178, Note_on_c, 13, 79, 0
14, 40202, Note_on_c, 13, 80, 99
14, 40205, Note_on_c, 13, 68, 80
14, 40213, Note_on_c, 13, 61, 40
14, 40226, Note_on_c, 13, 68, 0
14, 40238, Note_on_c, 13, 80, 0
14, 40254, Note_on_c, 13, 53, 0
14, 40257, Note_on_c, 13, 55, 0
14, 40266, Note_on_c, 13, 82, 96
14, 40267, Note_on_c, 13, 70, 90
14, 40269, Note_on_c, 13, 58, 48
14, 40270, Note_on_c, 13, 61, 0
14, 40299, Note_on_c, 13, 70, 0
14, 40317, Note_on_c, 13, 58, 0
14, 40330, Note_on_c, 13, 82, 0
14, 40340, Note_on_c, 13, 84, 94
14, 40344, Note_on_c, 13, 72, 80
14, 40344, Note_on_c, 13, 49, 48
14, 40356, Control_c, 13, 64, 104
14, 40360, Control_c, 13, 64, 0
14, 40383, Note_on_c, 13, 72, 0
14, 40392, Control_c, 13, 64, 127
14, 40414, Note_on_c, 13, 85, 88
14, 40415, Note_on_c, 13, 84, 0
14, 40419, Note_on_c, 13, 73, 70
14, 40421, Note_on_c, 13, 53, 43
14, 40437, Note_on_c, 13, 73, 0
14, 40438, Note_on_c, 13, 85, 0
14, 40487, Note_on_c, 13, 77, 80
14, 40489, Note_on_c, 13, 65, 61
14, 40492, Note_on_c, 13, 58, 35
14, 40512, Note_on_c, 13, 53, 0
14, 40522, Note_on_c, 13, 65, 0
14, 40546, Note_on_c, 13, 49, 0
14, 40552, Note_on_c, 13, 55, 52
14, 40569, Note_on_c, 13, 77, 0
14, 40586, Note_on_c, 13, 79, 84
14, 40588, Note_on_c, 13, 67, 66
14, 40600, Note_on_c, 13, 67, 0
14, 40603, Note_on_c, 13, 79, 0
14, 40630, Note_on_c, 13, 76, 82
14, 40632, Note_on_c, 13, 64, 65
14, 40634, Control_c, 13, 64, 72
14, 40638, Control_c, 13, 64, 0
14, 40640, Note_on_c, 13, 48, 42
14, 40666, Control_c, 13, 64, 127
14, 40667, Note_on_c, 13, 58, 0
14, 40683, Note_on_c, 13, 64, 0
14, 40685, Note_on_c, 13, 48, 0
14, 40690, Note_on_c, 13, 55, 0
14, 40702, Note_on_c, 13, 60, 63
14, 40746, Note_on_c, 13, 60, 0
14, 40764, Note_on_c, 13, 76, 0
14, 40771, Note_on_c, 13, 77, 73
14, 40772, Note_on_c, 13, 56, 27
14, 40775, Note_on_c, 13, 65, 49
14, 40778, Note_on_c, 13, 53, 38
14, 40787, Control_c, 13, 64, 88
14, 40791, Control_c, 13, 64, 0
14, 40812, Control_c, 13, 64, 56
14, 40816, Control_c, 13, 64, 127
14, 40832, Note_on_c, 13, 65, 0
14, 40835, Note_on_c, 13, 53, 0
14, 40836, Note_on_c, 13, 56, 0
14, 40839, Note_on_c, 13, 60, 51
14, 40908, Note_on_c, 13, 77, 0
14, 40921, Note_on_c, 13, 55, 33
14, 40923, Note_on_c, 13, 79, 64
14, 40924, Note_on_c, 13, 67, 45
14, 40928, Note_on_c, 13, 52, 42
14, 40928, Control_c, 13, 64, 104
14, 40932, Control_c, 13, 64, 0
14, 40950, Note_on_c, 13, 60, 0
14, 40961, Control_c, 13, 64, 72
14, 40963, Note_on_c, 13, 52, 0
14, 40965, Control_c, 13, 64, 127
14, 40967, Note_on_c, 13, 55, 0
14, 40968, Note_on_c, 13, 67, 0
14, 40980, Note_on_c, 13, 79, 0
14, 40994, Note_on_c, 13, 72, 68
14, 41013, Note_on_c, 13, 72, 0
14, 41015, Note_on_c, 13, 73, 68
14, 41038, Note_on_c, 13, 73, 0
14, 41041, Note_on_c, 13, 72, 67
14, 41058, Control_c, 13, 64, 40
14, 41062, Note_on_c, 13, 72, 0
14, 41062, Control_c, 13, 64, 0
14, 41062, Note_on_c, 13, 71, 73
14, 41077, Control_c, 13, 64, 24
14, 41081, Control_c, 13, 64, 88
14, 41086, Control_c, 13, 64, 127
14, 41089, Note_on_c, 13, 71, 0
14, 41091, Note_on_c, 13, 72, 80
14, 41106, Note_on_c, 13, 72, 0
14, 41138, Note_on_c, 13, 84, 80
14, 41154, Control_c, 13, 64, 104
14, 41158, Control_c, 13, 64, 0
14, 41183, Control_c, 13, 64, 104
14, 41187, Control_c, 13, 64, 127
14, 41221, Note_on_c, 13, 84, 0
14, 41269, Note_on_c, 13, 80, 70
14, 41314, Note_on_c, 13, 80, 0
14, 41322, Note_on_c, 13, 77, 73
14, 41329, Note_on_c, 13, 68, 36
14, 41331, Note_on_c, 13, 53, 36
14, 41332, Control_c, 13, 64, 72
14, 41336, Control_c, 13, 64, 0
14, 41360, Control_c, 13, 64, 104
14, 41364, Control_c, 13, 64, 127
14, 41388, Note_on_c, 13, 53, 0
14, 41389, Note_on_c, 13, 68, 0
14, 41393, Note_on_c, 13, 60, 54
14, 41447, Note_on_c, 13, 60, 0
14, 41458, Note_on_c, 13, 77, 0
14, 41458, Note_on_c, 13, 76, 89
14, 41465, Note_on_c, 13, 67, 46
14, 41467, Note_on_c, 13, 58, 33
14, 41477, Control_c, 13, 64, 104
14, 41481, Control_c, 13, 64, 40
14, 41485, Control_c, 13, 64, 0
14, 41501, Control_c, 13, 64, 72
14, 41505, Control_c, 13, 64, 127
14, 41522, Note_on_c, 13, 67, 0
14, 41523, Note_on_c, 13, 58, 0
14, 41529, Note_on_c, 13, 60, 30
14, 41586, Note_on_c, 13, 77, 89
14, 41588, Note_on_c, 13, 60, 0
14, 41590, Note_on_c, 13, 65, 47
14, 41592, Note_on_c, 13, 76, 0
14, 41594, Note_on_c, 13, 56, 37
14, 41602, Control_c, 13, 64, 72
14, 41606, Control_c, 13, 64, 0
14, 41626, Control_c, 13, 64, 56
14, 41630, Control_c, 13, 64, 127
14, 41640, Note_on_c, 13, 65, 0
14, 41644, Note_on_c, 13, 56, 0
14, 41651, Note_on_c, 13, 60, 43
14, 41703, Note_on_c, 13, 60, 0
14, 41714, Note_on_c, 13, 73, 77
14, 41715, Note_on_c, 13, 56, 38
14, 41720, Note_on_c, 13, 77, 0
14, 41722, Note_on_c, 13, 53, 42
14, 41735, Control_c, 13, 64, 56
14, 41739, Control_c, 13, 64, 0
14, 41755, Control_c, 13, 64, 24
14, 41760, Note_on_c, 13, 53, 0
14, 41760, Control_c, 13, 64, 88
14, 41764, Control_c, 13, 64, 127
14, 41770, Note_on_c, 13, 60, 50
14, 41771, Note_on_c, 13, 56, 0
14, 41830, Note_on_c, 13, 60, 0
14, 41838, Note_on_c, 13, 73, 0
14, 41841, Note_on_c, 13, 72, 82
14, 41849, Note_on_c, 13, 55, 28
14, 41851, Note_on_c, 13, 52, 40
14, 41856, Control_c, 13, 64, 104
14, 41860, Control_c, 13, 64, 40
14, 41864, Control_c, 13, 64, 0
14, 41888, Control_c, 13, 64, 72
14, 41892, Control_c, 13, 64, 127
14, 41903, Note_on_c, 13, 55, 0
14, 41907, Note_on_c, 13, 52, 0
14, 41909, Note_on_c, 13, 60, 44
14, 41958, Note_on_c, 13, 60, 0
14, 41977, Control_c, 13, 64, 72
14, 41981, Control_c, 13, 64, 0
14, 41981, Note_on_c, 13, 48, 52
14, 41994, Control_c, 13, 64, 56
14, 41998, Control_c, 13, 64, 104
14, 42002, Control_c, 13, 64, 127
14, 42029, Note_on_c, 13, 48, 0
14, 42039, Note_on_c, 13, 72, 0
14, 42049, Note_on_c, 13, 70, 59
14, 42050, Note_on_c, 13, 60, 43
14, 42108, Note_on_c, 13, 70, 0
14, 42116, Note_on_c, 13, 68, 60
14, 42118, Control_c, 13, 64, 72
14, 42122, Control_c, 13, 64, 0
14, 42124, Note_on_c, 13, 60, 0
14, 42126, Note_on_c, 13, 53, 40
14, 42147, Control_c, 13, 64, 72
14, 42151, Control_c, 13, 64, 127
14, 42157, Note_on_c, 13, 68, 0
14, 42176, Note_on_c, 13, 60, 54
14, 42208, Note_on_c, 13, 72, 71
14, 42225, Note_on_c, 13, 72, 0
14, 42248, Note_on_c, 13, 84, 74
14, 42250, Note_on_c, 13, 60, 0
14, 42250, Note_on_c, 13, 56, 50
14, 42263, Note_on_c, 13, 84, 0
14, 42279, Note_on_c, 13, 85, 55
14, 42302, Note_on_c, 13, 85, 0
14, 42304, Note_on_c, 13, 83, 84
14, 42321, Note_on_c, 13, 60, 49
14, 42324, Note_on_c, 13, 53, 0
14, 42326, Note_on_c, 13, 83, 0
14, 42329, Note_on_c, 13, 56, 0
14, 42331, Note_on_c, 13, 84, 92
14, 42342, Note_on_c, 13, 60, 0
14, 42356, Note_on_c, 13, 79, 86
14, 42358, Note_on_c, 13, 84, 0
14, 42377, Note_on_c, 13, 79, 0
14, 42377, Note_on_c, 13, 80, 86
14, 42401, Note_on_c, 13, 80, 0
14, 42406, Note_on_c, 13, 77, 92
14, 42412, Control_c, 13, 64, 72
14, 42417, Control_c, 13, 64, 0
14, 42422, Note_on_c, 13, 68, 49
14, 42424, Note_on_c, 13, 53, 42
14, 42445, Control_c, 13, 64, 72
14, 42448, Note_on_c, 13, 53, 0
14, 42449, Control_c, 13, 64, 127
14, 42463, Note_on_c, 13, 68, 0
14, 42476, Note_on_c, 13, 60, 61
14, 42518, Note_on_c, 13, 60, 0
14, 42539, Note_on_c, 13, 77, 0
14, 42540, Note_on_c, 13, 76, 86
14, 42544, Note_on_c, 13, 68, 68
14, 42545, Note_on_c, 13, 58, 56
14, 42554, Control_c, 13, 64, 40
14, 42558, Control_c, 13, 64, 0
14, 42574, Control_c, 13, 64, 40
14, 42578, Control_c, 13, 64, 127
14, 42590, Note_on_c, 13, 68, 0
14, 42608, Note_on_c, 13, 60, 61
14, 42609, Note_on_c, 13, 67, 71
14, 42630, Note_on_c, 13, 58, 0
14, 42642, Note_on_c, 13, 67, 0
14, 42656, Note_on_c, 13, 60, 0
14, 42670, Note_on_c, 13, 76, 0
14, 42675, Note_on_c, 13, 77, 87
14, 42679, Note_on_c, 13, 65, 55
14, 42683, Note_on_c, 13, 56, 46
14, 42683, Control_c, 13, 64, 56
14, 42687, Control_c, 13, 64, 0
14, 42700, Note_on_c, 13, 77, 0
14, 42700, Note_on_c, 13, 79, 77
14, 42700, Control_c, 13, 64, 40
14, 42704, Control_c, 13, 64, 88
14, 42708, Control_c, 13, 64, 127
14, 42725, Note_on_c, 13, 79, 0
14, 42726, Note_on_c, 13, 77, 85
14, 42743, Note_on_c, 13, 77, 0
14, 42744, Note_on_c, 13, 76, 81
14, 42764, Note_on_c, 13, 60, 39
14, 42766, Note_on_c, 13, 77, 82
14, 42772, Note_on_c, 13, 76, 0
14, 42779, Note_on_c, 13, 56, 0
14, 42783, Note_on_c, 13, 65, 0
14, 42789, Note_on_c, 13, 78, 85
14, 42791, Note_on_c, 13, 77, 0
14, 42814, Note_on_c, 13, 78, 0
14, 42814, Note_on_c, 13, 79, 84
14, 42833, Control_c, 13, 64, 72
14, 42835, Note_on_c, 13, 82, 72
14, 42837, Control_c, 13, 64, 0
14, 42841, Note_on_c, 13, 79, 0
14, 42853, Control_c, 13, 64, 40
14, 42857, Control_c, 13, 64, 104
14, 42858, Note_on_c, 13, 80, 84
14, 42861, Control_c, 13, 64, 127
14, 42861, Note_on_c, 13, 53, 42
14, 42864, Note_on_c, 13, 82, 0
14, 42870, Note_on_c, 13, 56, 36
14, 42872, Note_on_c, 13, 60, 0
14, 42882, Note_on_c, 13, 80, 0
14, 42882, Note_on_c, 13, 76, 79
14, 42905, Note_on_c, 13, 76, 0
14, 42908, Note_on_c, 13, 79, 73
14, 42928, Note_on_c, 13, 77, 75
14, 42935, Note_on_c, 13, 79, 0
14, 42950, Note_on_c, 13, 77, 0
14, 42953, Note_on_c, 13, 71, 73
14, 42980, Note_on_c, 13, 71, 0
14, 42980, Note_on_c, 13, 72, 79
14, 43001, Note_on_c, 13, 60, 45
14, 43001, Control_c, 13, 64, 104
14, 43003, Note_on_c, 13, 72, 0
14, 43005, Control_c, 13, 64, 56
14, 43008, Note_on_c, 13, 73, 70
14, 43010, Control_c, 13, 64, 0
14, 43036, Note_on_c, 13, 72, 85
14, 43038, Note_on_c, 13, 73, 0
14, 43050, Control_c, 13, 64, 24
14, 43055, Control_c, 13, 64, 88
14, 43059, Control_c, 13, 64, 127
14, 43061, Note_on_c, 13, 72, 0
14, 43064, Note_on_c, 13, 75, 74
14, 43071, Note_on_c, 13, 53, 0
14, 43081, Note_on_c, 13, 60, 0
14, 43096, Note_on_c, 13, 73, 72
14, 43099, Note_on_c, 13, 75, 0
14, 43102, Note_on_c, 13, 56, 0
14, 43117, Note_on_c, 13, 73, 0
14, 43145, Note_on_c, 13, 72, 79
14, 43160, Note_on_c, 13, 72, 0
14, 43179, Note_on_c, 13, 72, 73
14, 43194, Note_on_c, 13, 51, 47
14, 43200, Control_c, 13, 64, 88
14, 43204, Control_c, 13, 64, 24
14, 43208, Control_c, 13, 64, 0
14, 43235, Control_c, 13, 64, 72
14, 43239, Control_c, 13, 64, 127
14, 43253, Note_on_c, 13, 55, 49
14, 43306, Note_on_c, 13, 55, 0
14, 43310, Note_on_c, 13, 60, 59
14, 43352, Note_on_c, 13, 60, 0
14, 43359, Note_on_c, 13, 72, 0
14, 43379, Note_on_c, 13, 70, 75
14, 43384, Note_on_c, 13, 55, 40
14, 43410, Note_on_c, 13, 70, 0
14, 43417, Note_on_c, 13, 68, 74
14, 43450, Note_on_c, 13, 68, 0
14, 43456, Note_on_c, 13, 67, 75
14, 43466, Note_on_c, 13, 63, 39
14, 43477, Control_c, 13, 64, 104
14, 43482, Control_c, 13, 64, 40
14, 43486, Control_c, 13, 64, 0
14, 43493, Note_on_c, 13, 55, 0
14, 43510, Control_c, 13, 64, 40
14, 43514, Control_c, 13, 64, 127
14, 43516, Note_on_c, 13, 51, 0
14, 43524, Note_on_c, 13, 60, 55
14, 43570, Note_on_c, 13, 60, 0
14, 43584, Note_on_c, 13, 55, 55
14, 43636, Note_on_c, 13, 51, 57
14, 43640, Note_on_c, 13, 55, 0
14, 43652, Note_on_c, 13, 63, 0
14, 43654, Note_on_c, 13, 67, 0
14, 43654, Note_on_c, 13, 51, 0
14, 43663, Note_on_c, 13, 64, 67
14, 43682, Note_on_c, 13, 64, 0
14, 43682, Note_on_c, 13, 65, 73
14, 43704, Note_on_c, 13, 65, 0
14, 43706, Note_on_c, 13, 67, 61
14, 43719, Note_on_c, 13, 67, 0
14, 43719, Note_on_c, 13, 65, 66
14, 43735, Note_on_c, 13, 50, 65
14, 43736, Control_c, 13, 64, 72
14, 43740, Note_on_c, 13, 67, 69
14, 43740, Control_c, 13, 64, 0
14, 43741, Note_on_c, 13, 65, 0
14, 43756, Note_on_c, 13, 65, 69
14, 43757, Note_on_c, 13, 67, 0
14, 43760, Control_c, 13, 64, 72
14, 43765, Control_c, 13, 64, 127
14, 43775, Note_on_c, 13, 65, 0
14, 43775, Note_on_c, 13, 67, 82
14, 43791, Note_on_c, 13, 65, 73
14, 43792, Note_on_c, 13, 67, 0
14, 43792, Note_on_c, 13, 53, 54
14, 43806, Note_on_c, 13, 67, 77
14, 43810, Note_on_c, 13, 65, 0
14, 43823, Note_on_c, 13, 67, 0
14, 43823, Note_on_c, 13, 65, 77
14, 43841, Note_on_c, 13, 67, 71
14, 43843, Note_on_c, 13, 65, 0
14, 43851, Note_on_c, 13, 60, 77
14, 43856, Note_on_c, 13, 65, 73
14, 43858, Note_on_c, 13, 67, 0
14, 43874, Note_on_c, 13, 65, 0
14, 43875, Note_on_c, 13, 67, 70
14, 43889, Note_on_c, 13, 65, 65
14, 43890, Note_on_c, 13, 67, 0
14, 43904, Note_on_c, 13, 64, 86
14, 43906, Note_on_c, 13, 65, 0
14, 43912, Note_on_c, 13, 56, 55
14, 43922, Note_on_c, 13, 64, 0
14, 43924, Note_on_c, 13, 53, 0
14, 43930, Note_on_c, 13, 65, 85
14, 43946, Note_on_c, 13, 65, 0
14, 43949, Note_on_c, 13, 68, 76
14, 43967, Note_on_c, 13, 68, 0
14, 43970, Note_on_c, 13, 72, 85
14, 43974, Note_on_c, 13, 50, 0
14, 43990, Note_on_c, 13, 76, 86
14, 43993, Note_on_c, 13, 72, 0
14, 43997, Note_on_c, 13, 60, 0
14, 44013, Note_on_c, 13, 76, 0
14, 44016, Note_on_c, 13, 79, 87
14, 44036, Note_on_c, 13, 56, 0
14, 44040, Note_on_c, 13, 77, 91
14, 44041, Note_on_c, 13, 49, 58
14, 44047, Control_c, 13, 64, 88
14, 44049, Note_on_c, 13, 79, 0
14, 44051, Control_c, 13, 64, 24
14, 44055, Control_c, 13, 64, 0
14, 44084, Control_c, 13, 64, 88
14, 44088, Control_c, 13, 64, 127
14, 44111, Note_on_c, 13, 53, 55
14, 44171, Note_on_c, 13, 65, 87
14, 44178, Note_on_c, 13, 58, 63
14, 44192, Note_on_c, 13, 53, 0
14, 44230, Note_on_c, 13, 49, 0
14, 44239, Note_on_c, 13, 55, 56
14, 44251, Note_on_c, 13, 77, 0
14, 44307, Note_on_c, 13, 79, 100
14, 44309, Control_c, 13, 64, 56
14, 44313, Control_c, 13, 64, 0
14, 44316, Note_on_c, 13, 48, 51
14, 44342, Control_c, 13, 64, 127
14, 44344, Note_on_c, 13, 58, 0
14, 44361, Note_on_c, 13, 79, 0
14, 44363, Note_on_c, 13, 55, 0
14, 44375, Note_on_c, 13, 60, 68
14, 44419, Note_on_c, 13, 60, 0
14, 44419, Note_on_c, 13, 65, 0
14, 44436, Note_on_c, 13, 64, 82
14, 44438, Note_on_c, 13, 48, 0
14, 44441, Note_on_c, 13, 58, 44
14, 44444, Note_on_c, 13, 55, 54
14, 44446, Control_c, 13, 64, 56
14, 44450, Control_c, 13, 64, 0
14, 44463, Control_c, 13, 64, 24
14, 44467, Control_c, 13, 64, 88
14, 44471, Control_c, 13, 64, 127
14, 44494, Note_on_c, 13, 60, 69
14, 44502, Note_on_c, 13, 55, 0
14, 44504, Note_on_c, 13, 58, 0
14, 44516, Note_on_c, 13, 64, 0
14, 44526, Note_on_c, 13, 62, 80
14, 44546, Note_on_c, 13, 60, 0
14, 44556, Note_on_c, 13, 62, 0
14, 44556, Note_on_c, 13, 64, 89
14, 44562, Note_on_c, 13, 58, 52
14, 44564, Control_c, 13, 64, 104
14, 44568, Control_c, 13, 64, 24
14, 44568, Note_on_c, 13, 55, 40
14, 44572, Control_c, 13, 64, 0
14, 44596, Control_c, 13, 64, 88
14, 44600, Control_c, 13, 64, 127
14, 44608, Note_on_c, 13, 64, 0
14, 44622, Note_on_c, 13, 60, 64
14, 44636, Note_on_c, 13, 58, 0
14, 44648, Note_on_c, 13, 55, 0
14, 44684, Note_on_c, 13, 56, 63
14, 44685, Note_on_c, 13, 80, 100
14, 44688, Note_on_c, 13, 60, 0
14, 44689, Control_c, 13, 64, 72
14, 44692, Note_on_c, 13, 53, 69
14, 44693, Control_c, 13, 64, 0
14, 44717, Control_c, 13, 64, 88
14, 44721, Control_c, 13, 64, 127
14, 44746, Note_on_c, 13, 80, 0
14, 44756, Note_on_c, 13, 60, 69
14, 44768, Note_on_c, 13, 60, 0
14, 44771, Note_on_c, 13, 53, 0
14, 44771, Note_on_c, 13, 56, 0
14, 44817, Note_on_c, 13, 80, 95
14, 44825, Control_c, 13, 64, 40
14, 44829, Note_on_c, 13, 39, 76
14, 44830, Control_c, 13, 64, 0
14, 44850, Control_c, 13, 64, 104
14, 44854, Note_on_c, 13, 39, 0
14, 44854, Control_c, 13, 64, 127
14, 44864, Note_on_c, 13, 82, 72
14, 44869, Note_on_c, 13, 80, 0
14, 44887, Note_on_c, 13, 82, 0
14, 44888, Note_on_c, 13, 84, 79
14, 44901, Note_on_c, 13, 63, 72
14, 44908, Note_on_c, 13, 84, 0
14, 44908, Note_on_c, 13, 82, 77
14, 44927, Note_on_c, 13, 84, 68
14, 44928, Note_on_c, 13, 82, 0
14, 44946, Note_on_c, 13, 84, 0
14, 44946, Note_on_c, 13, 82, 66
14, 44954, Note_on_c, 13, 63, 0
14, 44954, Note_on_c, 13, 79, 84
14, 44954, Note_on_c, 13, 51, 74
14, 44964, Note_on_c, 13, 82, 0
14, 44964, Note_on_c, 13, 84, 77
14, 44984, Note_on_c, 13, 84, 0
14, 44984, Note_on_c, 13, 82, 64
14, 44996, Note_on_c, 13, 51, 0
14, 44996, Note_on_c, 13, 79, 0
14, 44999, Note_on_c, 13, 84, 73
14, 45000, Note_on_c, 13, 82, 0
14, 45010, Note_on_c, 13, 63, 76
14, 45014, Note_on_c, 13, 77, 77
14, 45018, Note_on_c, 13, 84, 0
14, 45019, Note_on_c, 13, 82, 57
14, 45034, Note_on_c, 13, 84, 77
14, 45036, Note_on_c, 13, 82, 0
14, 45053, Note_on_c, 13, 84, 0
14, 45055, Note_on_c, 13, 82, 59
14, 45056, Note_on_c, 13, 77, 0
14, 45069, Note_on_c, 13, 84, 74
14, 45071, Note_on_c, 13, 82, 0
14, 45074, Note_on_c, 13, 79, 77
14, 45074, Note_on_c, 13, 61, 78
14, 45075, Note_on_c, 13, 63, 0
14, 45078, Note_on_c, 13, 58, 55
14, 45089, Note_on_c, 13, 84, 0
14, 45091, Note_on_c, 13, 82, 58
14, 45107, Note_on_c, 13, 84, 70
14, 45108, Note_on_c, 13, 82, 0
14, 45125, Note_on_c, 13, 84, 0
14, 45129, Note_on_c, 13, 82, 56
14, 45134, Note_on_c, 13, 61, 0
14, 45134, Note_on_c, 13, 79, 0
14, 45136, Note_on_c, 13, 58, 0
14, 45141, Note_on_c, 13, 84, 75
14, 45142, Note_on_c, 13, 63, 67
14, 45143, Note_on_c, 13, 82, 0
14, 45161, Note_on_c, 13, 84, 0
14, 45164, Note_on_c, 13, 82, 60
14, 45175, Note_on_c, 13, 84, 77
14, 45178, Note_on_c, 13, 82, 0
14, 45196, Note_on_c, 13, 84, 0
14, 45197, Note_on_c, 13, 82, 61
14, 45207, Note_on_c, 13, 51, 68
14, 45212, Note_on_c, 13, 84, 78
14, 45215, Note_on_c, 13, 82, 0
14, 45215, Note_on_c, 13, 63, 0
14, 45231, Note_on_c, 13, 84, 0
14, 45234, Note_on_c, 13, 82, 63
14, 45250, Note_on_c, 13, 82, 0
14, 45250, Note_on_c, 13, 51, 0
14, 45252, Note_on_c, 13, 84, 76
14, 45254, Note_on_c, 13, 63, 68
14, 45269, Note_on_c, 13, 82, 72
14, 45275, Note_on_c, 13, 84, 0
14, 45279, Note_on_c, 13, 63, 0
14, 45292, Note_on_c, 13, 82, 0
14, 45292, Note_on_c, 13, 80, 80
14, 45312, Note_on_c, 13, 80, 0
14, 45313, Note_on_c, 13, 82, 84
14, 45335, Note_on_c, 13, 84, 101
14, 45336, Note_on_c, 13, 82, 0
14, 45337, Note_on_c, 13, 80, 72
14, 45338, Control_c, 13, 64, 104
14, 45342, Control_c, 13, 64, 24
14, 45346, Control_c, 13, 64, 0
14, 45349, Note_on_c, 13, 56, 37
14, 45351, Note_on_c, 13, 60, 46
14, 45371, Control_c, 13, 64, 40
14, 45375, Control_c, 13, 64, 127
14, 45396, Note_on_c, 13, 56, 0
14, 45402, Note_on_c, 13, 60, 0
14, 45408, Note_on_c, 13, 68, 68
14, 45414, Note_on_c, 13, 84, 0
14, 45420, Note_on_c, 13, 80, 0
14, 45436, Note_on_c, 13, 68, 0
14, 45472, Note_on_c, 13, 85, 94
14, 45478, Note_on_c, 13, 79, 84
14, 45480, Note_on_c, 13, 67, 65
14, 45482, Note_on_c, 13, 58, 50
14, 45482, Note_on_c, 13, 61, 52
14, 45483, Control_c, 13, 64, 24
14, 45488, Control_c, 13, 64, 0
14, 45511, Note_on_c, 13, 58, 0
14, 45512, Control_c, 13, 64, 104
14, 45516, Control_c, 13, 64, 127
14, 45537, Note_on_c, 13, 70, 79
14, 45539, Note_on_c, 13, 67, 0
14, 45545, Note_on_c, 13, 61, 0
14, 45552, Note_on_c, 13, 79, 0
14, 45562, Note_on_c, 13, 85, 0
14, 45565, Note_on_c, 13, 77, 88
14, 45566, Note_on_c, 13, 70, 0
14, 45586, Note_on_c, 13, 77, 0
14, 45594, Note_on_c, 13, 79, 99
14, 45600, Control_c, 13, 64, 88
14, 45602, Note_on_c, 13, 67, 54
14, 45602, Note_on_c, 13, 76, 65
14, 45604, Note_on_c, 13, 70, 45
14, 45605, Control_c, 13, 64, 0
14, 45608, Note_on_c, 13, 60, 65
14, 45610, Note_on_c, 13, 76, 0
14, 45625, Note_on_c, 13, 76, 50
14, 45629, Control_c, 13, 64, 127
14, 45632, Note_on_c, 13, 60, 0
14, 45658, Note_on_c, 13, 70, 0
14, 45664, Note_on_c, 13, 72, 65
14, 45665, Note_on_c, 13, 67, 0
14, 45669, Note_on_c, 13, 79, 0
14, 45700, Note_on_c, 13, 72, 0
14, 45712, Note_on_c, 13, 76, 0
14, 45723, Note_on_c, 13, 80, 96
14, 45729, Note_on_c, 13, 68, 58
14, 45730, Note_on_c, 13, 77, 77
14, 45732, Note_on_c, 13, 65, 64
14, 45738, Control_c, 13, 64, 72
14, 45742, Control_c, 13, 64, 0
14, 45747, Note_on_c, 13, 77, 0
14, 45762, Control_c, 13, 64, 104
14, 45766, Control_c, 13, 64, 127
14, 45770, Note_on_c, 13, 80, 0
14, 45791, Note_on_c, 13, 72, 77
14, 45805, Note_on_c, 13, 72, 0
14, 45806, Note_on_c, 13, 68, 0
14, 45809, Note_on_c, 13, 65, 0
14, 45822, Note_on_c, 13, 80, 105
14, 45880, Note_on_c, 13, 47, 90
14, 45883, Note_on_c, 13, 92, 110
14, 45887, Control_c, 13, 64, 88
14, 45891, Control_c, 13, 64, 0
14, 45911, Control_c, 13, 64, 72
14, 45915, Control_c, 13, 64, 127
14, 45936, Note_on_c, 13, 92, 0
14, 45938, Note_on_c, 13, 80, 0
14, 45948, Note_on_c, 13, 86, 85
14, 45952, Note_on_c, 13, 47, 0
14, 45958, Note_on_c, 13, 53, 60
14, 45971, Note_on_c, 13, 86, 0
14, 45979, Note_on_c, 13, 88, 90
14, 46006, Note_on_c, 13, 88, 0
14, 46010, Note_on_c, 13, 91, 97
14, 46013, Note_on_c, 13, 53, 0
14, 46015, Note_on_c, 13, 56, 52
14, 46033, Note_on_c, 13, 89, 90
14, 46042, Note_on_c, 13, 91, 0
14, 46056, Note_on_c, 13, 56, 0
14, 46062, Note_on_c, 13, 80, 77
14, 46063, Note_on_c, 13, 62, 65
14, 46064, Note_on_c, 13, 89, 0
14, 46086, Note_on_c, 13, 80, 0
14, 46088, Note_on_c, 13, 83, 73
14, 46108, Note_on_c, 13, 85, 79
14, 46110, Note_on_c, 13, 83, 0
14, 46110, Note_on_c, 13, 62, 0
14, 46131, Note_on_c, 13, 50, 66
14, 46131, Note_on_c, 13, 88, 86
14, 46133, Note_on_c, 13, 85, 0
14, 46134, Control_c, 13, 64, 104
14, 46137, Control_c, 13, 64, 56
14, 46141, Control_c, 13, 64, 40
14, 46145, Control_c, 13, 64, 56
14, 46149, Control_c, 13, 64, 88
14, 46152, Note_on_c, 13, 86, 77
14, 46154, Control_c, 13, 64, 127
14, 46162, Note_on_c, 13, 88, 0
14, 46177, Note_on_c, 13, 77, 71
14, 46179, Note_on_c, 13, 86, 0
14, 46195, Note_on_c, 13, 53, 42
14, 46199, Note_on_c, 13, 80, 74
14, 46202, Note_on_c, 13, 77, 0
14, 46222, Note_on_c, 13, 82, 76
14, 46224, Note_on_c, 13, 80, 0
14, 46238, Note_on_c, 13, 56, 46
14, 46243, Note_on_c, 13, 85, 77
14, 46249, Note_on_c, 13, 82, 0
14, 46265, Note_on_c, 13, 83, 73
14, 46272, Note_on_c, 13, 85, 0
14, 46278, Note_on_c, 13, 53, 0
14, 46282, Note_on_c, 13, 50, 0
14, 46287, Note_on_c, 13, 83, 0
14, 46288, Note_on_c, 13, 56, 0
14, 46289, Note_on_c, 13, 74, 82
14, 46290, Note_on_c, 13, 59, 56
14, 46310, Note_on_c, 13, 77, 89
14, 46314, Note_on_c, 13, 74, 0
14, 46323, Note_on_c, 13, 59, 0
14, 46330, Note_on_c, 13, 79, 86
14, 46342, Note_on_c, 13, 77, 0
14, 46347, Control_c, 13, 64, 104
14, 46351, Control_c, 13, 64, 0
14, 46354, Note_on_c, 13, 79, 0
14, 46357, Note_on_c, 13, 82, 90
14, 46362, Note_on_c, 13, 47, 67
14, 46367, Control_c, 13, 64, 24
14, 46371, Control_c, 13, 64, 127
14, 46380, Note_on_c, 13, 80, 79
14, 46386, Note_on_c, 13, 82, 0
14, 46398, Note_on_c, 13, 80, 0
14, 46406, Note_on_c, 13, 71, 77
14, 46427, Note_on_c, 13, 74, 77
14, 46429, Note_on_c, 13, 53, 47
14, 46430, Note_on_c, 13, 71, 0
14, 46433, Note_on_c, 13, 47, 0
14, 46452, Note_on_c, 13, 76, 82
14, 46455, Note_on_c, 13, 74, 0
14, 46476, Note_on_c, 13, 56, 53
14, 46480, Note_on_c, 13, 76, 0
14, 46480, Note_on_c, 13, 79, 82
14, 46499, Note_on_c, 13, 77, 73
14, 46504, Note_on_c, 13, 53, 0
14, 46508, Note_on_c, 13, 79, 0
14, 46519, Note_on_c, 13, 56, 0
14, 46521, Note_on_c, 13, 77, 0
14, 46524, Note_on_c, 13, 68, 73
14, 46525, Note_on_c, 13, 62, 61
14, 46545, Note_on_c, 13, 71, 72
14, 46546, Note_on_c, 13, 68, 0
14, 46560, Note_on_c, 13, 62, 0
14, 46564, Note_on_c, 13, 73, 70
14, 46568, Note_on_c, 13, 71, 0
14, 46585, Control_c, 13, 64, 24
14, 46589, Note_on_c, 13, 76, 86
14, 46589, Control_c, 13, 64, 0
14, 46591, Note_on_c, 13, 73, 0
14, 46596, Note_on_c, 13, 50, 61
14, 46605, Control_c, 13, 64, 56
14, 46610, Control_c, 13, 64, 127
14, 46612, Note_on_c, 13, 74, 80
14, 46614, Note_on_c, 13, 76, 0
14, 46622, Note_on_c, 13, 74, 0
14, 46628, Note_on_c, 13, 62, 65
14, 46652, Note_on_c, 13, 65, 81
14, 46653, Note_on_c, 13, 53, 38
14, 46656, Note_on_c, 13, 62, 0
14, 46670, Note_on_c, 13, 67, 81
14, 46678, Note_on_c, 13, 65, 0
14, 46690, Note_on_c, 13, 67, 0
14, 46694, Note_on_c, 13, 56, 52
14, 46696, Note_on_c, 13, 70, 88
14, 46710, Control_c, 13, 64, 56
14, 46714, Control_c, 13, 64, 0
14, 46717, Note_on_c, 13, 68, 75
14, 46720, Note_on_c, 13, 70, 0
14, 46731, Note_on_c, 13, 59, 47
14, 46734, Control_c, 13, 64, 88
14, 46738, Control_c, 13, 64, 127
14, 46739, Note_on_c, 13, 65, 81
14, 46740, Note_on_c, 13, 56, 0
14, 46747, Note_on_c, 13, 53, 0
14, 46749, Note_on_c, 13, 68, 0
14, 46753, Note_on_c, 13, 59, 0
14, 46756, Note_on_c, 13, 50, 0
14, 46761, Note_on_c, 13, 62, 87
14, 46765, Note_on_c, 13, 65, 0
14, 46776, Note_on_c, 13, 62, 0
14, 46782, Note_on_c, 13, 59, 72
14, 46794, Note_on_c, 13, 59, 0
14, 46804, Note_on_c, 13, 56, 72
14, 46819, Note_on_c, 13, 56, 0
14, 46828, Note_on_c, 13, 53, 87
14, 46853, Note_on_c, 13, 53, 0
14, 46856, Control_c, 13, 64, 0
14, 46857, Note_on_c, 13, 52, 81
14, 46860, Note_on_c, 13, 36, 46
14, 46860, Control_c, 13, 64, 0
14, 46884, Control_c, 13, 64, 104
14, 46888, Control_c, 13, 64, 127
14, 46894, Note_on_c, 13, 36, 0
14, 46923, Control_c, 13, 64, 88
14, 46928, Control_c, 13, 64, 24
14, 46932, Note_on_c, 13, 52, 0
14, 46935, Note_on_c, 13, 52, 67
14, 46937, Control_c, 13, 64, 24
14, 46938, Note_on_c, 13, 48, 54
14, 46941, Control_c, 13, 64, 40
14, 46944, Control_c, 13, 64, 56
14, 46947, Control_c, 13, 64, 72
14, 46954, Note_on_c, 13, 52, 0
14, 46964, Note_on_c, 13, 48, 0
14, 46966, Note_on_c, 13, 53, 71
14, 46968, Note_on_c, 13, 50, 69
14, 46981, Control_c, 13, 64, 0
14, 46987, Note_on_c, 13, 53, 0
14, 46992, Note_on_c, 13, 50, 0
14, 46995, Note_on_c, 13, 52, 67
14, 46996, Note_on_c, 13, 55, 82
14, 47020, Note_on_c, 13, 55, 0
14, 47025, Note_on_c, 13, 52, 0
14, 47027, Note_on_c, 13, 48, 75
14, 47028, Note_on_c, 13, 60, 86
14, 47034, Control_c, 13, 64, 24
14, 47038, Control_c, 13, 64, 40
14, 47048, Note_on_c, 13, 48, 0
14, 47051, Control_c, 13, 64, 56
14, 47059, Note_on_c, 13, 59, 77
14, 47059, Note_on_c, 13, 56, 59
14, 47061, Control_c, 13, 64, 72
14, 47064, Note_on_c, 13, 60, 0
14, 47081, Note_on_c, 13, 56, 0
14, 47085, Control_c, 13, 64, 56
14, 47089, Note_on_c, 13, 55, 70
14, 47089, Note_on_c, 13, 58, 80
14, 47092, Note_on_c, 13, 59, 0
14, 47098, Control_c, 13, 64, 40
14, 47101, Control_c, 13, 64, 24
14, 47105, Control_c, 13, 64, 0
14, 47108, Note_on_c, 13, 55, 0
14, 47113, Note_on_c, 13, 58, 0
14, 47119, Note_on_c, 13, 53, 73
14, 47122, Note_on_c, 13, 56, 86
14, 47135, Control_c, 13, 64, 40
14, 47138, Note_on_c, 13, 56, 0
14, 47138, Control_c, 13, 64, 56
14, 47142, Control_c, 13, 64, 72
14, 47145, Control_c, 13, 64, 88
14, 47147, Note_on_c, 13, 53, 0
14, 47154, Note_on_c, 13, 72, 88
14, 47157, Note_on_c, 13, 41, 63
14, 47165, Note_on_c, 13, 72, 0
14, 47172, Control_c, 13, 64, 104
14, 47174, Note_on_c, 13, 41, 0
14, 47186, Note_on_c, 13, 56, 76
14, 47186, Note_on_c, 13, 53, 63
14, 47201, Note_on_c, 13, 56, 0
14, 47206, Note_on_c, 13, 53, 0
14, 47209, Control_c, 13, 64, 72
14, 47212, Control_c, 13, 64, 40
14, 47215, Note_on_c, 13, 58, 71
14, 47215, Note_on_c, 13, 55, 53
14, 47215, Control_c, 13, 64, 0
14, 47234, Note_on_c, 13, 58, 0
14, 47236, Note_on_c, 13, 55, 0
14, 47243, Note_on_c, 13, 56, 72
14, 47245, Note_on_c, 13, 60, 88
14, 47249, Control_c, 13, 64, 24
14, 47252, Control_c, 13, 64, 40
14, 47255, Control_c, 13, 64, 56
14, 47262, Note_on_c, 13, 60, 0
14, 47262, Control_c, 13, 64, 72
14, 47272, Control_c, 13, 64, 88
14, 47276, Note_on_c, 13, 68, 80
14, 47277, Note_on_c, 13, 53, 67
14, 47289, Note_on_c, 13, 56, 0
14, 47292, Note_on_c, 13, 68, 0
14, 47301, Note_on_c, 13, 53, 0
14, 47304, Note_on_c, 13, 61, 72
14, 47305, Note_on_c, 13, 67, 86
14, 47319, Control_c, 13, 64, 72
14, 47325, Note_on_c, 13, 67, 0
14, 47326, Note_on_c, 13, 61, 0
14, 47329, Control_c, 13, 64, 56
14, 47333, Control_c, 13, 64, 40
14, 47334, Note_on_c, 13, 59, 69
14, 47335, Note_on_c, 13, 65, 94
14, 47336, Control_c, 13, 64, 24
14, 47339, Control_c, 13, 64, 0
14, 47355, Note_on_c, 13, 59, 0
14, 47360, Note_on_c, 13, 65, 0
14, 47363, Note_on_c, 13, 60, 76
14, 47367, Note_on_c, 13, 64, 92
14, 47373, Control_c, 13, 64, 40
14, 47376, Control_c, 13, 64, 88
14, 47380, Control_c, 13, 64, 104
14, 47382, Note_on_c, 13, 64, 0
14, 47383, Control_c, 13, 64, 127
14, 47387, Note_on_c, 13, 60, 0
14, 47397, Note_on_c, 13, 79, 86
14, 47398, Note_on_c, 13, 48, 72
14, 47410, Note_on_c, 13, 79, 0
14, 47417, Note_on_c, 13, 48, 0
14, 47423, Control_c, 13, 64, 104
14, 47425, Note_on_c, 13, 64, 87
14, 47428, Note_on_c, 13, 60, 67
14, 47442, Note_on_c, 13, 64, 0
14, 47451, Note_on_c, 13, 60, 0
14, 47454, Note_on_c, 13, 62, 74
14, 47454, Note_on_c, 13, 65, 87
14, 47463, Control_c, 13, 64, 88
14, 47467, Control_c, 13, 64, 72
14, 47471, Note_on_c, 13, 65, 0
14, 47473, Control_c, 13, 64, 56
14, 47477, Control_c, 13, 64, 24
14, 47480, Control_c, 13, 64, 0
14, 47483, Note_on_c, 13, 62, 0
14, 47484, Note_on_c, 13, 67, 89
14, 47485, Note_on_c, 13, 64, 73
14, 47504, Note_on_c, 13, 67, 0
14, 47511, Note_on_c, 13, 64, 0
14, 47513, Note_on_c, 13, 72, 92
14, 47513, Note_on_c, 13, 60, 73
14, 47517, Control_c, 13, 64, 40
14, 47520, Control_c, 13, 64, 72
14, 47524, Control_c, 13, 64, 104
14, 47527, Control_c, 13, 64, 127
14, 47531, Note_on_c, 13, 60, 0
14, 47537, Note_on_c, 13, 72, 0
14, 47542, Note_on_c, 13, 71, 87
14, 47544, Note_on_c, 13, 68, 74
14, 47563, Note_on_c, 13, 68, 0
14, 47568, Note_on_c, 13, 71, 0
14, 47570, Note_on_c, 13, 67, 74
14, 47571, Control_c, 13, 64, 88
14, 47571, Note_on_c, 13, 70, 89
14, 47574, Control_c, 13, 64, 56
14, 47577, Control_c, 13, 64, 24
14, 47581, Control_c, 13, 64, 0
14, 47587, Note_on_c, 13, 67, 0
14, 47596, Note_on_c, 13, 70, 0
14, 47601, Note_on_c, 13, 65, 76
14, 47603, Note_on_c, 13, 68, 92
14, 47604, Control_c, 13, 64, 56
14, 47607, Control_c, 13, 64, 88
14, 47611, Control_c, 13, 64, 127
14, 47620, Note_on_c, 13, 68, 0
14, 47623, Note_on_c, 13, 65, 0
14, 47634, Note_on_c, 13, 84, 92
14, 47637, Note_on_c, 13, 53, 64
14, 47648, Note_on_c, 13, 84, 0
14, 47652, Note_on_c, 13, 53, 0
14, 47663, Note_on_c, 13, 68, 84
14, 47666, Note_on_c, 13, 65, 66
14, 47668, Control_c, 13, 64, 104
14, 47678, Note_on_c, 13, 68, 0
14, 47686, Note_on_c, 13, 65, 0
14, 47691, Note_on_c, 13, 70, 85
14, 47691, Control_c, 13, 64, 72
14, 47693, Note_on_c, 13, 67, 64
14, 47695, Control_c, 13, 64, 40
14, 47698, Control_c, 13, 64, 0
14, 47709, Note_on_c, 13, 70, 0
14, 47719, Note_on_c, 13, 67, 0
14, 47720, Note_on_c, 13, 72, 94
14, 47722, Note_on_c, 13, 68, 78
14, 47725, Control_c, 13, 64, 24
14, 47728, Control_c, 13, 64, 72
14, 47731, Control_c, 13, 64, 104
14, 47735, Control_c, 13, 64, 127
14, 47738, Note_on_c, 13, 72, 0
14, 47752, Note_on_c, 13, 80, 86
14, 47753, Note_on_c, 13, 65, 74
14, 47765, Note_on_c, 13, 68, 0
14, 47766, Note_on_c, 13, 80, 0
14, 47773, Note_on_c, 13, 65, 0
14, 47779, Note_on_c, 13, 79, 89
14, 47779, Note_on_c, 13, 73, 78
14, 47798, Note_on_c, 13, 73, 0
14, 47798, Control_c, 13, 64, 88
14, 47799, Note_on_c, 13, 79, 0
14, 47802, Control_c, 13, 64, 72
14, 47805, Control_c, 13, 64, 40
14, 47808, Note_on_c, 13, 77, 107
14, 47808, Control_c, 13, 64, 0
14, 47810, Note_on_c, 13, 71, 73
14, 47829, Note_on_c, 13, 71, 0
14, 47833, Note_on_c, 13, 77, 0
14, 47837, Note_on_c, 13, 72, 86
14, 47838, Note_on_c, 13, 76, 105
14, 47839, Control_c, 13, 64, 56
14, 47842, Control_c, 13, 64, 104
14, 47845, Control_c, 13, 64, 127
14, 47856, Note_on_c, 13, 76, 0
14, 47861, Note_on_c, 13, 72, 0
14, 47866, Note_on_c, 13, 91, 103
14, 47871, Note_on_c, 13, 60, 73
14, 47880, Note_on_c, 13, 91, 0
14, 47889, Note_on_c, 13, 60, 0
14, 47897, Note_on_c, 13, 76, 93
14, 47901, Note_on_c, 13, 72, 65
14, 47914, Note_on_c, 13, 76, 0
14, 47922, Note_on_c, 13, 77, 103
14, 47925, Note_on_c, 13, 74, 85
14, 47932, Note_on_c, 13, 72, 0
14, 47939, Note_on_c, 13, 77, 0
14, 47949, Control_c, 13, 64, 72
14, 47951, Note_on_c, 13, 74, 0
14, 47952, Control_c, 13, 64, 24
14, 47953, Note_on_c, 13, 79, 100
14, 47956, Control_c, 13, 64, 0
14, 47957, Note_on_c, 13, 76, 77
14, 47973, Note_on_c, 13, 79, 0
14, 47976, Control_c, 13, 64, 72
14, 47979, Control_c, 13, 64, 127
14, 47983, Note_on_c, 13, 84, 96
14, 47985, Note_on_c, 13, 72, 73
14, 47992, Note_on_c, 13, 76, 0
14, 48000, Note_on_c, 13, 72, 0
14, 48005, Note_on_c, 13, 84, 0
14, 48012, Note_on_c, 13, 83, 93
14, 48014, Note_on_c, 13, 80, 73
14, 48031, Note_on_c, 13, 80, 0
14, 48036, Note_on_c, 13, 83, 0
14, 48036, Control_c, 13, 64, 56
14, 48039, Control_c, 13, 64, 0
14, 48041, Note_on_c, 13, 82, 90
14, 48042, Note_on_c, 13, 79, 75
14, 48053, Control_c, 13, 64, 56
14, 48056, Control_c, 13, 64, 88
14, 48059, Note_on_c, 13, 79, 0
14, 48060, Control_c, 13, 64, 127
14, 48062, Note_on_c, 13, 82, 0
14, 48071, Note_on_c, 13, 80, 100
14, 48072, Note_on_c, 13, 77, 80
14, 48086, Note_on_c, 13, 80, 0
14, 48094, Note_on_c, 13, 77, 0
14, 48100, Note_on_c, 13, 96, 97
14, 48108, Note_on_c, 13, 65, 59
14, 48115, Note_on_c, 13, 96, 0
14, 48116, Note_on_c, 13, 65, 0
14, 48132, Note_on_c, 13, 80, 88
14, 48134, Note_on_c, 13, 77, 70
14, 48147, Note_on_c, 13, 80, 0
14, 48153, Note_on_c, 13, 77, 0
14, 48160, Note_on_c, 13, 82, 87
14, 48162, Note_on_c, 13, 79, 75
14, 48177, Note_on_c, 13, 82, 0
14, 48185, Note_on_c, 13, 79, 0
14, 48189, Note_on_c, 13, 84, 93
14, 48191, Note_on_c, 13, 80, 79
14, 48207, Note_on_c, 13, 84, 0
14, 48221, Note_on_c, 13, 92, 90
14, 48222, Note_on_c, 13, 77, 81
14, 48232, Note_on_c, 13, 80, 0
14, 48236, Note_on_c, 13, 92, 0
14, 48242, Note_on_c, 13, 77, 0
14, 48249, Note_on_c, 13, 91, 94
14, 48250, Note_on_c, 13, 85, 75
14, 48268, Note_on_c, 13, 91, 0
14, 48269, Note_on_c, 13, 85, 0
14, 48278, Note_on_c, 13, 89, 92
14, 48279, Note_on_c, 13, 83, 74
14, 48281, Note_on_c, 13, 91, 53
14, 48287, Control_c, 13, 64, 104
14, 48288, Note_on_c, 13, 91, 0
14, 48291, Control_c, 13, 64, 72
14, 48294, Control_c, 13, 64, 0
14, 48297, Note_on_c, 13, 89, 0
14, 48302, Note_on_c, 13, 83, 0
14, 48306, Note_on_c, 13, 88, 97
14, 48308, Note_on_c, 13, 84, 88
14, 48311, Control_c, 13, 64, 40
14, 48314, Control_c, 13, 64, 127
14, 48323, Note_on_c, 13, 84, 0
14, 48332, Note_on_c, 13, 88, 0
14, 48336, Note_on_c, 13, 96, 91
14, 48337, Note_on_c, 13, 91, 84
14, 48361, Note_on_c, 13, 96, 0
14, 48362, Note_on_c, 13, 91, 0
14, 48365, Note_on_c, 13, 88, 86
14, 48382, Note_on_c, 13, 88, 0
14, 48392, Note_on_c, 13, 91, 89
14, 48393, Note_on_c, 13, 85, 76
14, 48416, Note_on_c, 13, 91, 0
14, 48420, Note_on_c, 13, 85, 0
14, 48423, Note_on_c, 13, 84, 88
14, 48426, Note_on_c, 13, 72, 92
14, 48428, Note_on_c, 13, 60, 81
14, 48441, Note_on_c, 13, 84, 0
14, 48452, Note_on_c, 13, 88, 78
14, 48454, Note_on_c, 13, 82, 67
14, 48460, Note_on_c, 13, 72, 0
14, 48473, Note_on_c, 13, 60, 0
14, 48477, Note_on_c, 13, 88, 0
14, 48478, Note_on_c, 13, 82, 0
14, 48482, Note_on_c, 13, 79, 82
14, 48499, Note_on_c, 13, 79, 0
14, 48510, Note_on_c, 13, 84, 80
14, 48510, Note_on_c, 13, 79, 74
14, 48531, Note_on_c, 13, 84, 0
14, 48535, Note_on_c, 13, 79, 0
14, 48540, Note_on_c, 13, 60, 87
14, 48543, Note_on_c, 13, 72, 74
14, 48544, Note_on_c, 13, 48, 71
14, 48561, Note_on_c, 13, 72, 0
14, 48570, Note_on_c, 13, 79, 77
14, 48574, Note_on_c, 13, 73, 56
14, 48576, Note_on_c, 13, 60, 0
14, 48585, Note_on_c, 13, 48, 0
14, 48592, Note_on_c, 13, 79, 0
14, 48595, Note_on_c, 13, 73, 0
14, 48601, Note_on_c, 13, 72, 82
14, 48616, Note_on_c, 13, 72, 0
14, 48628, Note_on_c, 13, 76, 82
14, 48630, Note_on_c, 13, 70, 57
14, 48650, Note_on_c, 13, 76, 0
14, 48651, Note_on_c, 13, 70, 0
14, 48657, Note_on_c, 13, 67, 82
14, 48659, Note_on_c, 13, 48, 77
14, 48659, Control_c, 13, 64, 72
14, 48661, Note_on_c, 13, 40, 50
14, 48663, Control_c, 13, 64, 40
14, 48666, Control_c, 13, 64, 56
14, 48669, Control_c, 13, 64, 88
14, 48672, Note_on_c, 13, 67, 0
14, 48673, Control_c, 13, 64, 127
14, 48689, Note_on_c, 13, 64, 78
14, 48689, Note_on_c, 13, 72, 86
14, 48706, Note_on_c, 13, 72, 0
14, 48706, Note_on_c, 13, 64, 0
14, 48720, Note_on_c, 13, 60, 87
14, 48730, Note_on_c, 13, 40, 0
14, 48733, Note_on_c, 13, 60, 0
14, 48733, Note_on_c, 13, 48, 0
14, 48749, Note_on_c, 13, 58, 74
14, 48751, Note_on_c, 13, 67, 76
14, 48763, Note_on_c, 13, 58, 0
14, 48765, Note_on_c, 13, 67, 0
14, 48792, Note_on_c, 13, 68, 82
14, 48793, Control_c, 13, 64, 72
14, 48796, Note_on_c, 13, 56, 52
14, 48797, Control_c, 13, 64, 0
14, 48802, Note_on_c, 13, 53, 63
14, 48803, Note_on_c, 13, 41, 59
14, 48820, Control_c, 13, 64, 40
14, 48824, Note_on_c, 13, 41, 0
14, 48829, Note_on_c, 13, 53, 0
14, 48833, Note_on_c, 13, 56, 0
14, 48859, Note_on_c, 13, 68, 0
14, 48870, Note_on_c, 13, 60, 68
14, 48870, Control_c, 13, 64, 88
14, 48871, Note_on_c, 13, 56, 49
14, 48873, Control_c, 13, 64, 104
14, 48875, Note_on_c, 13, 53, 46
14, 48877, Control_c, 13, 64, 127
14, 48890, Note_on_c, 13, 60, 0
14, 48900, Note_on_c, 13, 65, 69
14, 48924, Note_on_c, 13, 65, 0
14, 48931, Note_on_c, 13, 67, 74
14, 48953, Note_on_c, 13, 67, 0
14, 48958, Note_on_c, 13, 68, 82
14, 48983, Note_on_c, 13, 68, 0
14, 48988, Note_on_c, 13, 53, 0
14, 48992, Note_on_c, 13, 61, 77
14, 48995, Note_on_c, 13, 52, 63
14, 49012, Note_on_c, 13, 61, 0
14, 49023, Note_on_c, 13, 68, 79
14, 49043, Note_on_c, 13, 52, 0
14, 49044, Note_on_c, 13, 68, 0
14, 49055, Control_c, 13, 64, 88
14, 49056, Note_on_c, 13, 69, 91
14, 49057, Note_on_c, 13, 51, 61
14, 49059, Control_c, 13, 64, 0
14, 49075, Note_on_c, 13, 69, 0
14, 49084, Control_c, 13, 64, 24
14, 49087, Note_on_c, 13, 70, 87
14, 49087, Control_c, 13, 64, 72
14, 49091, Control_c, 13, 64, 104
14, 49095, Control_c, 13, 64, 127
14, 49113, Note_on_c, 13, 70, 0
14, 49115, Note_on_c, 13, 72, 89
14, 49118, Note_on_c, 13, 56, 0
14, 49118, Note_on_c, 13, 55, 60
14, 49142, Note_on_c, 13, 72, 0
14, 49147, Note_on_c, 13, 70, 84
14, 49173, Note_on_c, 13, 55, 0
14, 49177, Note_on_c, 13, 70, 0
14, 49180, Note_on_c, 13, 68, 82
14, 49185, Note_on_c, 13, 53, 52
14, 49193, Control_c, 13, 64, 72
14, 49197, Control_c, 13, 64, 0
14, 49210, Note_on_c, 13, 61, 64
14, 49218, Note_on_c, 13, 68, 0
14, 49222, Control_c, 13, 64, 88
14, 49226, Control_c, 13, 64, 127
14, 49233, Note_on_c, 13, 61, 0
14, 49242, Note_on_c, 13, 53, 0
14, 49244, Note_on_c, 13, 63, 68
14, 49247, Note_on_c, 13, 55, 51
14, 49254, Note_on_c, 13, 55, 0
14, 49259, Note_on_c, 13, 51, 0
14, 49263, Note_on_c, 13, 63, 0
14, 49270, Note_on_c, 13, 70, 76
14, 49301, Note_on_c, 13, 70, 0
14, 49306, Control_c, 13, 64, 104
14, 49309, Control_c, 13, 64, 40
14, 49310, Note_on_c, 13, 72, 80
14, 49312, Note_on_c, 13, 44, 54
14, 49313, Control_c, 13, 64, 0
14, 49327, Control_c, 13, 64, 24
14, 49330, Note_on_c, 13, 72, 0
14, 49331, Control_c, 13, 64, 88
14, 49332, Note_on_c, 13, 44, 0
14, 49335, Control_c, 13, 64, 127
14, 49339, Note_on_c, 13, 60, 70
14, 49353, Note_on_c, 13, 60, 0
14, 49369, Note_on_c, 13, 63, 66
14, 49372, Note_on_c, 13, 60, 46
14, 49374, Note_on_c, 13, 56, 50
14, 49387, Note_on_c, 13, 63, 0
14, 49393, Note_on_c, 13, 60, 0
14, 49400, Note_on_c, 13, 56, 0
14, 49400, Note_on_c, 13, 72, 80
14, 49418, Note_on_c, 13, 72, 0
14, 49429, Control_c, 13, 64, 88
14, 49431, Note_on_c, 13, 58, 49
14, 49432, Note_on_c, 13, 64, 74
14, 49433, Control_c, 13, 64, 24
14, 49435, Note_on_c, 13, 55, 54
14, 49437, Control_c, 13, 64, 0
14, 49447, Control_c, 13, 64, 40
14, 49449, Note_on_c, 13, 64, 0
14, 49451, Control_c, 13, 64, 72
14, 49455, Control_c, 13, 64, 88
14, 49458, Control_c, 13, 64, 127
14, 49463, Note_on_c, 13, 72, 80
14, 49481, Note_on_c, 13, 58, 0
14, 49484, Note_on_c, 13, 55, 0
14, 49484, Control_c, 13, 64, 72
14, 49485, Note_on_c, 13, 72, 0
14, 49487, Control_c, 13, 64, 24
14, 49491, Control_c, 13, 64, 0
14, 49496, Note_on_c, 13, 65, 64
14, 49496, Note_on_c, 13, 53, 55
14, 49496, Note_on_c, 13, 56, 44
14, 49502, Control_c, 13, 64, 40
14, 49505, Note_on_c, 13, 56, 0
14, 49505, Control_c, 13, 64, 72
14, 49509, Control_c, 13, 64, 127
14, 49511, Note_on_c, 13, 53, 0
14, 49515, Note_on_c, 13, 65, 0
14, 49523, Note_on_c, 13, 77, 78
14, 49542, Note_on_c, 13, 77, 0
14, 49557, Note_on_c, 13, 75, 80
14, 49582, Note_on_c, 13, 75, 0
14, 49584, Note_on_c, 13, 73, 79
14, 49607, Note_on_c, 13, 73, 0
14, 49613, Note_on_c, 13, 65, 82
14, 49615, Note_on_c, 13, 46, 70
14, 49618, Note_on_c, 13, 61, 48
14, 49635, Note_on_c, 13, 46, 0
14, 49636, Note_on_c, 13, 65, 0
14, 49645, Note_on_c, 13, 67, 85
14, 49646, Note_on_c, 13, 61, 0
14, 49667, Note_on_c, 13, 67, 0
14, 49667, Control_c, 13, 64, 88
14, 49670, Control_c, 13, 64, 40
14, 49674, Control_c, 13, 64, 0
14, 49674, Note_on_c, 13, 68, 79
14, 49674, Note_on_c, 13, 56, 50
14, 49677, Note_on_c, 13, 60, 63
14, 49681, Note_on_c, 13, 48, 54
14, 49685, Control_c, 13, 64, 24
14, 49688, Control_c, 13, 64, 56
14, 49692, Control_c, 13, 64, 72
14, 49695, Control_c, 13, 64, 104
14, 49698, Control_c, 13, 64, 127
14, 49702, Note_on_c, 13, 68, 0
14, 49706, Note_on_c, 13, 56, 0
14, 49706, Note_on_c, 13, 72, 91
14, 49725, Control_c, 13, 64, 72
14, 49728, Control_c, 13, 64, 24
14, 49732, Note_on_c, 13, 72, 0
14, 49732, Control_c, 13, 64, 0
14, 49737, Note_on_c, 13, 64, 76
14, 49739, Note_on_c, 13, 55, 54
14, 49742, Control_c, 13, 64, 40
14, 49746, Control_c, 13, 64, 56
14, 49750, Control_c, 13, 64, 72
14, 49754, Control_c, 13, 64, 104
14, 49760, Note_on_c, 13, 64, 0
14, 49766, Note_on_c, 13, 48, 0
14, 49766, Note_on_c, 13, 70, 78
14, 49768, Control_c, 13, 64, 127
14, 49774, Note_on_c, 13, 60, 0
14, 49782, Control_c, 13, 64, 40
14, 49786, Control_c, 13, 64, 0
14, 49789, Note_on_c, 13, 55, 0
14, 49796, Note_on_c, 13, 65, 74
14, 49799, Note_on_c, 13, 53, 57
14, 49800, Note_on_c, 13, 70, 0
14, 49808, Note_on_c, 13, 53, 0
14, 49808, Control_c, 13, 64, 56
14, 49812, Control_c, 13, 64, 104
14, 49815, Control_c, 13, 64, 127
14, 49829, Note_on_c, 13, 65, 0
14, 49829, Note_on_c, 13, 68, 74
14, 49845, Note_on_c, 13, 68, 0
14, 49863, Note_on_c, 13, 72, 89
14, 49864, Note_on_c, 13, 68, 53
14, 49866, Note_on_c, 13, 65, 66
14, 49878, Note_on_c, 13, 72, 0
14, 49892, Note_on_c, 13, 77, 92
14, 49915, Note_on_c, 13, 77, 0
14, 49922, Note_on_c, 13, 79, 90
14, 49946, Note_on_c, 13, 79, 0
14, 49951, Note_on_c, 13, 80, 92
14, 49975, Note_on_c, 13, 80, 0
14, 49982, Note_on_c, 13, 73, 86
14, 49984, Note_on_c, 13, 65, 0
14, 49986, Note_on_c, 13, 64, 68
14, 50001, Note_on_c, 13, 73, 0
14, 50012, Note_on_c, 13, 80, 91
14, 50033, Note_on_c, 13, 80, 0
14, 50038, Note_on_c, 13, 64, 0
14, 50041, Control_c, 13, 64, 104
14, 50043, Note_on_c, 13, 63, 59
14, 50044, Note_on_c, 13, 81, 89
14, 50044, Control_c, 13, 64, 56
14, 50048, Control_c, 13, 64, 0
14, 50066, Note_on_c, 13, 81, 0
14, 50074, Note_on_c, 13, 82, 86
14, 50077, Control_c, 13, 64, 40
14, 50081, Control_c, 13, 64, 72
14, 50084, Control_c, 13, 64, 104
14, 50088, Control_c, 13, 64, 127
14, 50101, Note_on_c, 13, 82, 0
14, 50104, Note_on_c, 13, 84, 93
14, 50106, Note_on_c, 13, 67, 57
14, 50107, Note_on_c, 13, 68, 0
14, 50130, Note_on_c, 13, 84, 0
14, 50135, Note_on_c, 13, 82, 79
14, 50158, Note_on_c, 13, 67, 0
14, 50165, Note_on_c, 13, 80, 88
14, 50166, Note_on_c, 13, 82, 0
14, 50168, Control_c, 13, 64, 72
14, 50170, Note_on_c, 13, 65, 56
14, 50171, Control_c, 13, 64, 0
14, 50189, Control_c, 13, 64, 24
14, 50192, Note_on_c, 13, 80, 0
14, 50192, Control_c, 13, 64, 72
14, 50196, Note_on_c, 13, 73, 68
14, 50197, Control_c, 13, 64, 127
14, 50214, Note_on_c, 13, 73, 0
14, 50228, Note_on_c, 13, 65, 0
14, 50229, Note_on_c, 13, 75, 70
14, 50230, Note_on_c, 13, 67, 54
14, 50243, Note_on_c, 13, 67, 0
14, 50250, Note_on_c, 13, 63, 0
14, 50252, Note_on_c, 13, 75, 0
14, 50259, Note_on_c, 13, 82, 84
14, 50287, Note_on_c, 13, 82, 0
14, 50291, Control_c, 13, 64, 56
14, 50293, Note_on_c, 13, 84, 79
14, 50295, Control_c, 13, 64, 0
14, 50297, Note_on_c, 13, 56, 54
14, 50309, Control_c, 13, 64, 40
14, 50313, Control_c, 13, 64, 88
14, 50314, Note_on_c, 13, 84, 0
14, 50316, Note_on_c, 13, 56, 0
14, 50316, Control_c, 13, 64, 127
14, 50325, Note_on_c, 13, 72, 71
14, 50339, Note_on_c, 13, 72, 0
14, 50354, Note_on_c, 13, 75, 77
14, 50354, Note_on_c, 13, 72, 58
14, 50356, Note_on_c, 13, 68, 47
14, 50373, Note_on_c, 13, 75, 0
14, 50377, Note_on_c, 13, 72, 0
14, 50384, Note_on_c, 13, 68, 0
14, 50384, Note_on_c, 13, 84, 88
14, 50403, Note_on_c, 13, 84, 0
14, 50412, Note_on_c, 13, 76, 77
14, 50413, Note_on_c, 13, 70, 57
14, 50415, Note_on_c, 13, 67, 60
14, 50432, Note_on_c, 13, 76, 0
14, 50436, Note_on_c, 13, 70, 0
14, 50441, Note_on_c, 13, 84, 93
14, 50458, Note_on_c, 13, 67, 0
14, 50462, Control_c, 13, 64, 104
14, 50466, Note_on_c, 13, 84, 0
14, 50466, Control_c, 13, 64, 24
14, 50469, Control_c, 13, 64, 0
14, 50471, Note_on_c, 13, 68, 63
14, 50473, Note_on_c, 13, 77, 91
14, 50474, Note_on_c, 13, 65, 58
14, 50487, Note_on_c, 13, 65, 0
14, 50487, Note_on_c, 13, 68, 0
14, 50487, Control_c, 13, 64, 56
14, 50491, Control_c, 13, 64, 127
14, 50499, Note_on_c, 13, 77, 0
14, 50504, Note_on_c, 13, 89, 98
14, 50528, Note_on_c, 13, 89, 0
14, 50535, Note_on_c, 13, 87, 77
14, 50563, Note_on_c, 13, 87, 0
14, 50563, Note_on_c, 13, 85, 82
14, 50585, Control_c, 13, 64, 72
14, 50587, Note_on_c, 13, 85, 0
14, 50589, Control_c, 13, 64, 0
14, 50595, Note_on_c, 13, 77, 80
14, 50597, Note_on_c, 13, 58, 61
14, 50598, Note_on_c, 13, 73, 55
14, 50603, Control_c, 13, 64, 40
14, 50606, Control_c, 13, 64, 88
14, 50611, Control_c, 13, 64, 127
14, 50617, Note_on_c, 13, 77, 0
14, 50619, Note_on_c, 13, 58, 0
14, 50624, Note_on_c, 13, 73, 0
14, 50625, Note_on_c, 13, 79, 85
14, 50647, Note_on_c, 13, 79, 0
14, 50647, Control_c, 13, 64, 104
14, 50651, Control_c, 13, 64, 56
14, 50654, Note_on_c, 13, 80, 86
14, 50655, Control_c, 13, 64, 40
14, 50655, Note_on_c, 13, 72, 63
14, 50657, Note_on_c, 13, 68, 52
14, 50661, Note_on_c, 13, 60, 52
14, 50665, Control_c, 13, 64, 72
14, 50669, Control_c, 13, 64, 88
14, 50673, Control_c, 13, 64, 104
14, 50680, Note_on_c, 13, 80, 0
14, 50685, Note_on_c, 13, 84, 86
14, 50686, Note_on_c, 13, 68, 0
14, 50686, Control_c, 13, 64, 127
14, 50709, Control_c, 13, 64, 72
14, 50712, Control_c, 13, 64, 40
14, 50715, Note_on_c, 13, 84, 0
14, 50715, Note_on_c, 13, 76, 84
14, 50716, Note_on_c, 13, 72, 0
14, 50716, Control_c, 13, 64, 24
14, 50721, Note_on_c, 13, 67, 52
14, 50724, Control_c, 13, 64, 56
14, 50726, Control_c, 13, 64, 72
14, 50731, Control_c, 13, 64, 88
14, 50734, Control_c, 13, 64, 127
14, 50740, Note_on_c, 13, 76, 0
14, 50744, Note_on_c, 13, 82, 84
14, 50763, Note_on_c, 13, 82, 0
14, 50763, Note_on_c, 13, 60, 0
14, 50765, Note_on_c, 13, 67, 0
14, 50770, Control_c, 13, 64, 72
14, 50774, Control_c, 13, 64, 24
14, 50775, Note_on_c, 13, 82, 82
14, 50778, Control_c, 13, 64, 0
14, 50779, Note_on_c, 13, 65, 60
14, 50779, Note_on_c, 13, 77, 74
14, 50790, Note_on_c, 13, 77, 0
14, 50792, Control_c, 13, 64, 72
14, 50796, Control_c, 13, 64, 127
14, 50806, Note_on_c, 13, 65, 0
14, 50808, Note_on_c, 13, 80, 92
14, 50815, Note_on_c, 13, 82, 0
14, 50824, Note_on_c, 13, 80, 0
14, 50840, Note_on_c, 13, 84, 95
14, 50857, Note_on_c, 13, 84, 0
14, 50869, Note_on_c, 13, 89, 105
14, 50896, Note_on_c, 13, 89, 0
14, 50901, Note_on_c, 13, 56, 78
14, 50901, Note_on_c, 13, 62, 93
14, 50903, Note_on_c, 13, 59, 81
14, 50905, Note_on_c, 13, 91, 102
14, 50905, Note_on_c, 13, 53, 77
14, 50909, Control_c, 13, 64, 56
14, 50912, Control_c, 13, 64, 0
14, 50928, Note_on_c, 13, 91, 0
14, 50930, Control_c, 13, 64, 40
14, 50934, Control_c, 13, 64, 104
14, 50935, Note_on_c, 13, 92, 95
14, 50938, Control_c, 13, 64, 127
14, 50962, Note_on_c, 13, 92, 0
14, 50965, Note_on_c, 13, 90, 38
14, 50967, Note_on_c, 13, 89, 98
14, 50972, Note_on_c, 13, 90, 0
14, 50994, Note_on_c, 13, 86, 82
14, 51010, Note_on_c, 13, 89, 0
14, 51018, Note_on_c, 13, 86, 0
14, 51021, Note_on_c, 13, 83, 84
14, 51040, Note_on_c, 13, 83, 0
14, 51053, Note_on_c, 13, 80, 79
14, 51075, Note_on_c, 13, 80, 0
14, 51078, Note_on_c, 13, 59, 0
14, 51079, Note_on_c, 13, 77, 80
14, 51096, Note_on_c, 13, 62, 0
14, 51102, Note_on_c, 13, 77, 0
14, 51112, Note_on_c, 13, 74, 77
14, 51132, Note_on_c, 13, 74, 0
14, 51133, Control_c, 13, 64, 72
14, 51137, Note_on_c, 13, 53, 0
14, 51137, Control_c, 13, 64, 24
14, 51138, Note_on_c, 13, 56, 0
14, 51139, Note_on_c, 13, 73, 76
14, 51139, Note_on_c, 13, 58, 49
14, 51140, Note_on_c, 13, 64, 52
14, 51141, Control_c, 13, 64, 0
14, 51144, Note_on_c, 13, 55, 46
14, 51156, Control_c, 13, 64, 40
14, 51159, Control_c, 13, 64, 72
14, 51163, Control_c, 13, 64, 127
14, 51169, Note_on_c, 13, 72, 90
14, 51186, Note_on_c, 13, 72, 0
14, 51197, Note_on_c, 13, 80, 75
14, 51201, Note_on_c, 13, 64, 0
14, 51203, Note_on_c, 13, 76, 67
14, 51216, Note_on_c, 13, 76, 0
14, 51218, Note_on_c, 13, 80, 0
14, 51222, Note_on_c, 13, 55, 0
14, 51231, Note_on_c, 13, 79, 90
14, 51232, Note_on_c, 13, 58, 0
14, 51232, Note_on_c, 13, 73, 0
14, 51250, Control_c, 13, 64, 88
14, 51254, Control_c, 13, 64, 24
14, 51255, Note_on_c, 13, 79, 0
14, 51257, Control_c, 13, 64, 0
14, 51262, Note_on_c, 13, 56, 53
14, 51262, Note_on_c, 13, 77, 89
14, 51264, Note_on_c, 13, 65, 56
14, 51267, Note_on_c, 13, 53, 48
14, 51272, Control_c, 13, 64, 56
14, 51276, Control_c, 13, 64, 104
14, 51279, Control_c, 13, 64, 127
14, 51290, Note_on_c, 13, 77, 0
14, 51292, Note_on_c, 13, 80, 86
14, 51302, Note_on_c, 13, 65, 0
14, 51305, Note_on_c, 13, 80, 0
14, 51311, Note_on_c, 13, 53, 0
14, 51318, Note_on_c, 13, 56, 0
14, 51322, Note_on_c, 13, 84, 92
14, 51340, Note_on_c, 13, 84, 0
14, 51350, Note_on_c, 13, 89, 97
14, 51373, Note_on_c, 13, 89, 0
14, 51380, Note_on_c, 13, 56, 81
14, 51380, Control_c, 13, 64, 88
14, 51381, Note_on_c, 13, 91, 100
14, 51382, Note_on_c, 13, 59, 81
14, 51382, Note_on_c, 13, 62, 96
14, 51383, Note_on_c, 13, 53, 81
14, 51385, Control_c, 13, 64, 40
14, 51388, Control_c, 13, 64, 0
14, 51406, Note_on_c, 13, 91, 0
14, 51410, Control_c, 13, 64, 40
14, 51412, Note_on_c, 13, 92, 93
14, 51414, Control_c, 13, 64, 104
14, 51416, Control_c, 13, 64, 127
14, 51437, Note_on_c, 13, 92, 0
14, 51442, Note_on_c, 13, 89, 100
14, 51472, Note_on_c, 13, 86, 86
14, 51493, Note_on_c, 13, 89, 0
14, 51500, Note_on_c, 13, 86, 0
14, 51501, Note_on_c, 13, 83, 91
14, 51521, Note_on_c, 13, 83, 0
14, 51534, Note_on_c, 13, 80, 84
14, 51557, Note_on_c, 13, 80, 0
14, 51561, Note_on_c, 13, 59, 0
14, 51561, Note_on_c, 13, 77, 77
14, 51579, Note_on_c, 13, 62, 0
14, 51587, Note_on_c, 13, 77, 0
14, 51591, Note_on_c, 13, 74, 72
14, 51599, Note_on_c, 13, 74, 0
14, 51600, Note_on_c, 13, 56, 0
14, 51606, Note_on_c, 13, 53, 0
14, 51618, Note_on_c, 13, 64, 61
14, 51618, Note_on_c, 13, 58, 48
14, 51620, Control_c, 13, 64, 72
14, 51621, Note_on_c, 13, 55, 59
14, 51622, Note_on_c, 13, 73, 68
14, 51623, Control_c, 13, 64, 24
14, 51627, Control_c, 13, 64, 0
14, 51633, Note_on_c, 13, 73, 0
14, 51639, Note_on_c, 13, 75, 72
14, 51646, Control_c, 13, 64, 40
14, 51650, Control_c, 13, 64, 88
14, 51652, Note_on_c, 13, 73, 84
14, 51654, Control_c, 13, 64, 127
14, 51658, Note_on_c, 13, 75, 0
14, 51667, Note_on_c, 13, 73, 0
14, 51673, Note_on_c, 13, 72, 87
14, 51688, Note_on_c, 13, 72, 0
14, 51700, Note_on_c, 13, 80, 80
14, 51703, Note_on_c, 13, 76, 73
14, 51709, Note_on_c, 13, 76, 0
14, 51710, Note_on_c, 13, 64, 0
14, 51722, Note_on_c, 13, 80, 0
14, 51722, Note_on_c, 13, 55, 0
14, 51730, Note_on_c, 13, 79, 87
14, 51741, Note_on_c, 13, 58, 0
14, 51755, Note_on_c, 13, 79, 0
14, 51759, Control_c, 13, 64, 56
14, 51761, Note_on_c, 13, 77, 92
14, 51762, Control_c, 13, 64, 0
14, 51763, Note_on_c, 13, 56, 56
14, 51767, Note_on_c, 13, 65, 60
14, 51772, Note_on_c, 13, 53, 43
14, 51780, Control_c, 13, 64, 40
14, 51784, Control_c, 13, 64, 127
14, 51791, Note_on_c, 13, 80, 79
14, 51794, Note_on_c, 13, 77, 0
14, 51804, Note_on_c, 13, 80, 0
14, 51821, Note_on_c, 13, 56, 0
14, 51821, Note_on_c, 13, 84, 91
14, 51822, Note_on_c, 13, 53, 0
14, 51835, Note_on_c, 13, 65, 0
14, 51842, Note_on_c, 13, 84, 0
14, 51852, Note_on_c, 13, 89, 86
14, 51872, Note_on_c, 13, 89, 0
14, 51881, Note_on_c, 13, 91, 93
14, 51906, Note_on_c, 13, 91, 0
14, 51911, Note_on_c, 13, 92, 81
14, 51940, Note_on_c, 13, 89, 91
14, 51947, Note_on_c, 13, 60, 70
14, 51948, Note_on_c, 13, 68, 57
14, 51960, Note_on_c, 13, 92, 0
14, 51966, Note_on_c, 13, 89, 0
14, 51968, Note_on_c, 13, 84, 88
14, 51982, Note_on_c, 13, 84, 0
14, 51987, Note_on_c, 13, 68, 0
14, 51987, Control_c, 13, 64, 72
14, 51991, Control_c, 13, 64, 24
14, 51994, Control_c, 13, 64, 0
14, 51997, Note_on_c, 13, 65, 73
14, 52001, Note_on_c, 13, 79, 97
14, 52001, Note_on_c, 13, 56, 64
14, 52006, Note_on_c, 13, 60, 0
14, 52006, Control_c, 13, 64, 72
14, 52009, Control_c, 13, 64, 127
14, 52015, Note_on_c, 13, 65, 0
14, 52018, Note_on_c, 13, 79, 0
14, 52020, Note_on_c, 13, 56, 0
14, 52030, Note_on_c, 13, 80, 78
14, 52057, Note_on_c, 13, 60, 71
14, 52058, Note_on_c, 13, 77, 86
14, 52065, Note_on_c, 13, 53, 64
14, 52075, Note_on_c, 13, 60, 0
14, 52083, Note_on_c, 13, 53, 0
14, 52084, Note_on_c, 13, 77, 0
14, 52086, Note_on_c, 13, 80, 0
14, 52089, Note_on_c, 13, 72, 81
14, 52102, Note_on_c, 13, 72, 0
14, 52114, Note_on_c, 13, 56, 58
14, 52122, Note_on_c, 13, 67, 88
14, 52124, Note_on_c, 13, 48, 73
14, 52142, Note_on_c, 13, 67, 0
14, 52147, Note_on_c, 13, 68, 78
14, 52165, Note_on_c, 13, 56, 0
14, 52166, Note_on_c, 13, 48, 0
14, 52179, Note_on_c, 13, 65, 86
14, 52182, Note_on_c, 13, 48, 56
14, 52187, Note_on_c, 13, 48, 0
14, 52190, Note_on_c, 13, 68, 0
14, 52201, Note_on_c, 13, 65, 0
14, 52207, Note_on_c, 13, 60, 81
14, 52222, Note_on_c, 13, 60, 0
14, 52234, Control_c, 13, 64, 104
14, 52237, Control_c, 13, 64, 40
14, 52239, Note_on_c, 13, 41, 84
14, 52239, Note_on_c, 13, 55, 97
14, 52242, Control_c, 13, 64, 0
14, 52260, Control_c, 13, 64, 56
14, 52263, Note_on_c, 13, 55, 0
14, 52263, Control_c, 13, 64, 127
14, 52267, Note_on_c, 13, 56, 80
14, 52286, Note_on_c, 13, 41, 0
14, 52290, Note_on_c, 13, 56, 0
14, 52299, Note_on_c, 13, 53, 88
14, 52314, Note_on_c, 13, 53, 0
14, 52329, Note_on_c, 13, 60, 86
14, 52350, Control_c, 13, 64, 104
14, 52354, Control_c, 13, 64, 40
14, 52356, Note_on_c, 13, 60, 0
14, 52357, Control_c, 13, 64, 0
14, 52357, Note_on_c, 13, 67, 90
14, 52361, Note_on_c, 13, 51, 89
14, 52361, Note_on_c, 13, 39, 76
14, 52369, Control_c, 13, 64, 56
14, 52372, Control_c, 13, 64, 104
14, 52376, Note_on_c, 13, 67, 0
14, 52376, Control_c, 13, 64, 127
14, 52392, Note_on_c, 13, 68, 85
14, 52406, Note_on_c, 13, 68, 0
14, 52420, Note_on_c, 13, 65, 85
14, 52434, Note_on_c, 13, 65, 0
14, 52434, Note_on_c, 13, 51, 0
14, 52446, Note_on_c, 13, 72, 91
14, 52470, Control_c, 13, 64, 104
14, 52474, Control_c, 13, 64, 40
14, 52477, Note_on_c, 13, 79, 92
14, 52478, Note_on_c, 13, 72, 0
14, 52478, Control_c, 13, 64, 0
14, 52481, Note_on_c, 13, 49, 92
14, 52481, Note_on_c, 13, 37, 76
14, 52487, Note_on_c, 13, 39, 0
14, 52489, Control_c, 13, 64, 56
14, 52492, Control_c, 13, 64, 127
14, 52498, Note_on_c, 13, 79, 0
14, 52510, Note_on_c, 13, 80, 88
14, 52524, Note_on_c, 13, 80, 0
14, 52538, Note_on_c, 13, 77, 92
14, 52550, Note_on_c, 13, 49, 0
14, 52552, Note_on_c, 13, 77, 0
14, 52565, Note_on_c, 13, 84, 93
14, 52580, Note_on_c, 13, 37, 0
14, 52591, Note_on_c, 13, 84, 0
14, 52594, Note_on_c, 13, 91, 92
14, 52595, Note_on_c, 13, 48, 90
14, 52599, Note_on_c, 13, 36, 76
14, 52615, Note_on_c, 13, 91, 0
14, 52625, Note_on_c, 13, 92, 95
14, 52651, Note_on_c, 13, 92, 0
14, 52652, Note_on_c, 13, 48, 0
14, 52655, Note_on_c, 13, 36, 0
14, 52655, Note_on_c, 13, 80, 89
14, 52673, Note_on_c, 13, 80, 0
14, 52682, Note_on_c, 13, 89, 105
14, 52696, Note_on_c, 13, 89, 0
14, 52727, Note_on_c, 13, 101, 112
14, 52730, Note_on_c, 13, 35, 81
14, 52730, Note_on_c, 13, 47, 96
14, 52735, Control_c, 13, 64, 72
14, 52738, Control_c, 13, 64, 0
14, 52758, Note_on_c, 13, 101, 0
14, 52761, Control_c, 13, 64, 72
14, 52764, Control_c, 13, 64, 0
14, 52770, Note_on_c, 13, 35, 0
14, 52776, Note_on_c, 13, 47, 0
14, 52800, Note_on_c, 13, 56, 73
14, 52801, Note_on_c, 13, 53, 58
14, 52803, Control_c, 13, 64, 127
14, 52821, Note_on_c, 13, 56, 0
14, 52825, Note_on_c, 13, 53, 0
14, 52833, Note_on_c, 13, 47, 67
14, 52835, Note_on_c, 13, 62, 82
14, 52856, Note_on_c, 13, 62, 0
14, 52863, Note_on_c, 13, 47, 0
14, 52867, Note_on_c, 13, 61, 79
14, 52869, Note_on_c, 13, 52, 63
14, 52889, Note_on_c, 13, 61, 0
14, 52900, Note_on_c, 13, 52, 0
14, 52900, Note_on_c, 13, 62, 89
14, 52901, Note_on_c, 13, 53, 71
14, 52923, Note_on_c, 13, 53, 0
14, 52923, Note_on_c, 13, 62, 0
14, 52931, Note_on_c, 13, 56, 60
14, 52936, Note_on_c, 13, 59, 85
14, 52940, Control_c, 13, 64, 104
14, 52943, Note_on_c, 13, 56, 0
14, 52944, Control_c, 13, 64, 72
14, 52948, Control_c, 13, 64, 40
14, 52956, Note_on_c, 13, 59, 0
14, 52961, Note_on_c, 13, 50, 71
14, 52964, Control_c, 13, 64, 104
14, 52965, Note_on_c, 13, 65, 87
14, 52968, Control_c, 13, 64, 127
14, 52988, Control_c, 13, 64, 88
14, 52989, Note_on_c, 13, 65, 0
14, 52989, Note_on_c, 13, 50, 0
14, 52992, Control_c, 13, 64, 72
14, 52996, Control_c, 13, 64, 56
14, 53000, Note_on_c, 13, 55, 71
14, 53000, Note_on_c, 13, 64, 93
14, 53000, Control_c, 13, 64, 72
14, 53004, Control_c, 13, 64, 88
14, 53008, Control_c, 13, 64, 127
14, 53025, Note_on_c, 13, 55, 0
14, 53026, Note_on_c, 13, 64, 0
14, 53029, Note_on_c, 13, 56, 66
14, 53031, Note_on_c, 13, 65, 85
14, 53054, Note_on_c, 13, 65, 0
14, 53062, Note_on_c, 13, 56, 0
14, 53065, Note_on_c, 13, 62, 89
14, 53066, Note_on_c, 13, 59, 55
14, 53083, Note_on_c, 13, 59, 0
14, 53084, Note_on_c, 13, 53, 59
14, 53085, Note_on_c, 13, 62, 0
14, 53095, Note_on_c, 13, 68, 85
14, 53112, Note_on_c, 13, 53, 0
14, 53122, Note_on_c, 13, 68, 0
14, 53125, Control_c, 13, 64, 104
14, 53126, Note_on_c, 13, 58, 61
14, 53127, Note_on_c, 13, 67, 89
14, 53129, Control_c, 13, 64, 88
14, 53141, Control_c, 13, 64, 127
14, 53153, Note_on_c, 13, 67, 0
14, 53155, Note_on_c, 13, 58, 0
14, 53157, Note_on_c, 13, 68, 82
14, 53160, Note_on_c, 13, 59, 73
14, 53180, Note_on_c, 13, 59, 0
14, 53180, Note_on_c, 13, 68, 0
14, 53188, Note_on_c, 13, 62, 61
14, 53188, Note_on_c, 13, 65, 87
14, 53201, Control_c, 13, 64, 88
14, 53206, Control_c, 13, 64, 72
14, 53212, Note_on_c, 13, 65, 0
14, 53212, Note_on_c, 13, 62, 0
14, 53212, Note_on_c, 13, 56, 59
14, 53218, Control_c, 13, 64, 104
14, 53219, Note_on_c, 13, 71, 92
14, 53222, Control_c, 13, 64, 127
14, 53243, Note_on_c, 13, 71, 0
14, 53247, Note_on_c, 13, 56, 0
14, 53249, Note_on_c, 13, 70, 89
14, 53249, Note_on_c, 13, 61, 68
14, 53273, Note_on_c, 13, 61, 0
14, 53273, Note_on_c, 13, 70, 0
14, 53279, Note_on_c, 13, 71, 88
14, 53282, Note_on_c, 13, 62, 77
14, 53283, Control_c, 13, 64, 88
14, 53299, Control_c, 13, 64, 127
14, 53300, Note_on_c, 13, 71, 0
14, 53305, Note_on_c, 13, 62, 0
14, 53309, Note_on_c, 13, 68, 86
14, 53312, Note_on_c, 13, 65, 67
14, 53330, Note_on_c, 13, 68, 0
14, 53334, Note_on_c, 13, 65, 0
14, 53342, Note_on_c, 13, 74, 91
14, 53342, Note_on_c, 13, 59, 67
14, 53343, Control_c, 13, 64, 72
14, 53347, Control_c, 13, 64, 40
14, 53351, Control_c, 13, 64, 0
14, 53366, Note_on_c, 13, 74, 0
14, 53369, Note_on_c, 13, 59, 0
14, 53371, Control_c, 13, 64, 40
14, 53373, Note_on_c, 13, 73, 80
14, 53375, Note_on_c, 13, 64, 65
14, 53375, Control_c, 13, 64, 72
14, 53380, Control_c, 13, 64, 104
14, 53388, Control_c, 13, 64, 127
14, 53394, Note_on_c, 13, 73, 0
14, 53404, Note_on_c, 13, 74, 88
14, 53412, Note_on_c, 13, 65, 72
14, 53419, Note_on_c, 13, 64, 0
14, 53425, Note_on_c, 13, 74, 0
14, 53428, Control_c, 13, 64, 88
14, 53432, Control_c, 13, 64, 40
14, 53435, Note_on_c, 13, 65, 0
14, 53436, Control_c, 13, 64, 24
14, 53439, Note_on_c, 13, 71, 76
14, 53441, Note_on_c, 13, 67, 65
14, 53448, Control_c, 13, 64, 72
14, 53452, Control_c, 13, 64, 104
14, 53456, Note_on_c, 13, 71, 0
14, 53457, Control_c, 13, 64, 127
14, 53469, Note_on_c, 13, 77, 86
14, 53469, Note_on_c, 13, 62, 66
14, 53471, Note_on_c, 13, 67, 0
14, 53489, Control_c, 13, 64, 104
14, 53491, Note_on_c, 13, 62, 0
14, 53493, Note_on_c, 13, 77, 0
14, 53493, Control_c, 13, 64, 72
14, 53497, Note_on_c, 13, 67, 59
14, 53502, Note_on_c, 13, 76, 81
14, 53508, Control_c, 13, 64, 127
14, 53526, Note_on_c, 13, 67, 0
14, 53529, Note_on_c, 13, 76, 0
14, 53535, Note_on_c, 13, 77, 86
14, 53535, Note_on_c, 13, 68, 56
14, 53557, Note_on_c, 13, 77, 0
14, 53557, Control_c, 13, 64, 104
14, 53561, Control_c, 13, 64, 72
14, 53565, Note_on_c, 13, 68, 0
14, 53565, Control_c, 13, 64, 56
14, 53570, Note_on_c, 13, 71, 61
14, 53570, Note_on_c, 13, 74, 80
14, 53577, Control_c, 13, 64, 104
14, 53581, Control_c, 13, 64, 127
14, 53591, Note_on_c, 13, 71, 0
14, 53593, Note_on_c, 13, 74, 0
14, 53599, Note_on_c, 13, 65, 61
14, 53601, Note_on_c, 13, 80, 78
14, 53623, Note_on_c, 13, 65, 0
14, 53628, Note_on_c, 13, 80, 0
14, 53637, Note_on_c, 13, 79, 79
14, 53637, Note_on_c, 13, 70, 64
14, 53659, Note_on_c, 13, 79, 0
14, 53666, Note_on_c, 13, 70, 0
14, 53670, Note_on_c, 13, 80, 70
14, 53679, Note_on_c, 13, 71, 52
14, 53682, Control_c, 13, 64, 88
14, 53686, Control_c, 13, 64, 56
14, 53690, Control_c, 13, 64, 40
14, 53700, Note_on_c, 13, 80, 0
14, 53703, Control_c, 13, 64, 72
14, 53705, Note_on_c, 13, 71, 0
14, 53707, Control_c, 13, 64, 127
14, 53707, Note_on_c, 13, 77, 69
14, 53711, Note_on_c, 13, 74, 63
14, 53732, Note_on_c, 13, 77, 0
14, 53744, Note_on_c, 13, 67, 57
14, 53745, Note_on_c, 13, 74, 0
14, 53750, Note_on_c, 13, 83, 71
14, 53755, Note_on_c, 13, 67, 0
14, 53785, Note_on_c, 13, 83, 0
14, 53800, Note_on_c, 13, 84, 73
14, 53807, Note_on_c, 13, 67, 47
14, 53807, Control_c, 13, 64, 104
14, 53809, Note_on_c, 13, 76, 45
14, 53809, Note_on_c, 13, 60, 43
14, 53811, Control_c, 13, 64, 24
14, 53815, Control_c, 13, 64, 0
14, 53836, Control_c, 13, 64, 56
14, 53840, Control_c, 13, 64, 127
14, 53850, Note_on_c, 13, 84, 0
14, 53852, Note_on_c, 13, 76, 0
14, 53856, Note_on_c, 13, 60, 0
14, 53861, Note_on_c, 13, 67, 0
14, 53904, Note_on_c, 13, 71, 67
14, 53928, Note_on_c, 13, 71, 0
14, 53939, Note_on_c, 13, 72, 84
14, 53955, Note_on_c, 13, 72, 0
14, 53980, Note_on_c, 13, 73, 79
14, 53987, Note_on_c, 13, 61, 51
14, 53989, Note_on_c, 13, 56, 46
14, 53989, Note_on_c, 13, 53, 50
14, 53991, Note_on_c, 13, 65, 49
14, 53993, Control_c, 13, 64, 40
14, 53997, Control_c, 13, 64, 0
14, 54007, Note_on_c, 13, 73, 0
14, 54012, Control_c, 13, 64, 40
14, 54016, Note_on_c, 13, 77, 89
14, 54016, Control_c, 13, 64, 104
14, 54021, Control_c, 13, 64, 127
14, 54036, Note_on_c, 13, 77, 0
14, 54051, Note_on_c, 13, 80, 79
14, 54071, Note_on_c, 13, 56, 0
14, 54072, Note_on_c, 13, 53, 0
14, 54072, Note_on_c, 13, 80, 0
14, 54080, Note_on_c, 13, 85, 84
14, 54104, Note_on_c, 13, 85, 0
14, 54117, Note_on_c, 13, 84, 84
14, 54122, Note_on_c, 13, 55, 52
14, 54125, Note_on_c, 13, 58, 47
14, 54126, Control_c, 13, 64, 88
14, 54130, Control_c, 13, 64, 24
14, 54134, Control_c, 13, 64, 0
14, 54144, Note_on_c, 13, 84, 0
14, 54146, Control_c, 13, 64, 72
14, 54150, Control_c, 13, 64, 127
14, 54151, Note_on_c, 13, 82, 79
14, 54175, Note_on_c, 13, 65, 0
14, 54178, Note_on_c, 13, 82, 0
14, 54181, Note_on_c, 13, 80, 76
14, 54206, Note_on_c, 13, 80, 0
14, 54212, Note_on_c, 13, 79, 79
14, 54227, Note_on_c, 13, 61, 0
14, 54239, Note_on_c, 13, 55, 0
14, 54241, Note_on_c, 13, 79, 0
14, 54245, Note_on_c, 13, 63, 71
14, 54245, Note_on_c, 13, 82, 81
14, 54248, Note_on_c, 13, 58, 0
14, 54275, Note_on_c, 13, 82, 0
14, 54279, Note_on_c, 13, 77, 71
14, 54297, Note_on_c, 13, 77, 0
14, 54310, Note_on_c, 13, 75, 70
14, 54330, Note_on_c, 13, 75, 0
14, 54341, Note_on_c, 13, 73, 73
14, 54360, Control_c, 13, 64, 104
14, 54364, Control_c, 13, 64, 40
14, 54365, Note_on_c, 13, 73, 0
14, 54368, Control_c, 13, 64, 0
14, 54373, Note_on_c, 13, 72, 77
14, 54373, Note_on_c, 13, 56, 45
14, 54376, Note_on_c, 13, 60, 63
14, 54380, Control_c, 13, 64, 56
14, 54384, Control_c, 13, 64, 104
14, 54389, Control_c, 13, 64, 127
14, 54391, Note_on_c, 13, 63, 0
14, 54393, Note_on_c, 13, 72, 0
14, 54393, Note_on_c, 13, 60, 0
14, 54405, Note_on_c, 13, 56, 0
14, 54409, Note_on_c, 13, 75, 68
14, 54428, Note_on_c, 13, 75, 0
14, 54438, Note_on_c, 13, 70, 60
14, 54459, Note_on_c, 13, 70, 0
14, 54468, Note_on_c, 13, 68, 65
14, 54493, Control_c, 13, 64, 104
14, 54496, Note_on_c, 13, 68, 0
14, 54497, Control_c, 13, 64, 56
14, 54501, Control_c, 13, 64, 24
14, 54503, Note_on_c, 13, 72, 79
14, 54505, Control_c, 13, 64, 0
14, 54505, Note_on_c, 13, 56, 44
14, 54507, Note_on_c, 13, 53, 54
14, 54508, Note_on_c, 13, 44, 45
14, 54510, Control_c, 13, 64, 24
14, 54513, Control_c, 13, 64, 40
14, 54517, Control_c, 13, 64, 88
14, 54521, Control_c, 13, 64, 127
14, 54534, Note_on_c, 13, 72, 0
14, 54536, Note_on_c, 13, 67, 71
14, 54558, Note_on_c, 13, 67, 0
14, 54568, Note_on_c, 13, 65, 64
14, 54569, Note_on_c, 13, 53, 0
14, 54590, Note_on_c, 13, 65, 0
14, 54600, Note_on_c, 13, 63, 60
14, 54625, Note_on_c, 13, 63, 0
14, 54625, Note_on_c, 13, 56, 0
14, 54627, Control_c, 13, 64, 104
14, 54631, Control_c, 13, 64, 40
14, 54635, Note_on_c, 13, 62, 77
14, 54635, Control_c, 13, 64, 0
14, 54641, Note_on_c, 13, 46, 48
14, 54643, Note_on_c, 13, 44, 0
14, 54651, Control_c, 13, 64, 40
14, 54654, Note_on_c, 13, 62, 0
14, 54654, Control_c, 13, 64, 72
14, 54658, Control_c, 13, 64, 127
14, 54664, Note_on_c, 13, 65, 72
14, 54689, Note_on_c, 13, 65, 0
14, 54696, Note_on_c, 13, 60, 75
14, 54717, Note_on_c, 13, 60, 0
14, 54726, Note_on_c, 13, 58, 65
14, 54729, Note_on_c, 13, 46, 0
14, 54751, Note_on_c, 13, 58, 0
14, 54769, Note_on_c, 13, 67, 81
14, 54773, Note_on_c, 13, 46, 38
14, 54775, Note_on_c, 13, 34, 45
14, 54776, Control_c, 13, 64, 72
14, 54780, Control_c, 13, 64, 0
14, 54805, Note_on_c, 13, 56, 56
14, 54808, Control_c, 13, 64, 56
14, 54812, Control_c, 13, 64, 127
14, 54825, Note_on_c, 13, 56, 0
14, 54837, Note_on_c, 13, 67, 0
14, 54840, Note_on_c, 13, 62, 60
14, 54861, Note_on_c, 13, 62, 0
14, 54877, Note_on_c, 13, 65, 76
14, 54900, Note_on_c, 13, 65, 0
14, 54902, Note_on_c, 13, 34, 0
14, 54908, Note_on_c, 13, 46, 0
14, 54913, Control_c, 13, 64, 72
14, 54914, Note_on_c, 13, 63, 72
14, 54915, Note_on_c, 13, 55, 60
14, 54917, Control_c, 13, 64, 0
14, 54919, Note_on_c, 13, 39, 46
14, 54940, Note_on_c, 13, 55, 0
14, 54941, Control_c, 13, 64, 72
14, 54945, Control_c, 13, 64, 127
14, 54949, Note_on_c, 13, 63, 0
14, 54953, Note_on_c, 13, 39, 0
14, 54995, Note_on_c, 13, 63, 70
14, 55014, Note_on_c, 13, 63, 0
14, 55026, Note_on_c, 13, 64, 74
14, 55045, Note_on_c, 13, 64, 0
14, 55061, Note_on_c, 13, 65, 72
14, 55064, Note_on_c, 13, 60, 69
14, 55066, Control_c, 13, 64, 104
14, 55066, Note_on_c, 13, 57, 51
14, 55069, Note_on_c, 13, 51, 42
14, 55071, Control_c, 13, 64, 40
14, 55074, Control_c, 13, 64, 0
14, 55081, Note_on_c, 13, 65, 0
14, 55093, Note_on_c, 13, 71, 76
14, 55095, Control_c, 13, 64, 24
14, 55099, Control_c, 13, 64, 72
14, 55103, Control_c, 13, 64, 104
14, 55107, Control_c, 13, 64, 127
14, 55120, Note_on_c, 13, 71, 0
14, 55127, Note_on_c, 13, 72, 76
14, 55145, Note_on_c, 13, 72, 0
14, 55157, Note_on_c, 13, 65, 70
14, 55175, Note_on_c, 13, 65, 0
14, 55175, Note_on_c, 13, 57, 0
14, 55188, Note_on_c, 13, 71, 73
14, 55191, Control_c, 13, 64, 104
14, 55194, Note_on_c, 13, 56, 51
14, 55195, Control_c, 13, 64, 72
14, 55207, Note_on_c, 13, 71, 0
14, 55207, Control_c, 13, 64, 127
14, 55221, Note_on_c, 13, 72, 84
14, 55239, Note_on_c, 13, 72, 0
14, 55245, Note_on_c, 13, 60, 0
14, 55252, Note_on_c, 13, 77, 87
14, 55275, Note_on_c, 13, 77, 0
14, 55286, Note_on_c, 13, 72, 82
14, 55296, Control_c, 13, 64, 104
14, 55300, Control_c, 13, 64, 72
14, 55304, Control_c, 13, 64, 40
14, 55308, Control_c, 13, 64, 24
14, 55312, Note_on_c, 13, 72, 0
14, 55315, Note_on_c, 13, 62, 55
14, 55316, Note_on_c, 13, 71, 82
14, 55321, Control_c, 13, 64, 72
14, 55325, Control_c, 13, 64, 104
14, 55329, Control_c, 13, 64, 127
14, 55335, Note_on_c, 13, 71, 0
14, 55347, Note_on_c, 13, 70, 89
14, 55368, Note_on_c, 13, 70, 0
14, 55379, Note_on_c, 13, 82, 76
14, 55390, Note_on_c, 13, 62, 0
14, 55398, Note_on_c, 13, 82, 0
14, 55405, Note_on_c, 13, 56, 0
14, 55414, Note_on_c, 13, 81, 77
14, 55425, Control_c, 13, 64, 88
14, 55429, Control_c, 13, 64, 56
14, 55433, Control_c, 13, 64, 24
14, 55435, Note_on_c, 13, 81, 0
14, 55437, Control_c, 13, 64, 0
14, 55441, Control_c, 13, 64, 24
14, 55443, Note_on_c, 13, 80, 78
14, 55445, Note_on_c, 13, 63, 53
14, 55446, Control_c, 13, 64, 40
14, 55447, Note_on_c, 13, 55, 53
14, 55450, Control_c, 13, 64, 72
14, 55454, Control_c, 13, 64, 104
14, 55458, Control_c, 13, 64, 127
14, 55464, Note_on_c, 13, 55, 0
14, 55465, Note_on_c, 13, 63, 0
14, 55465, Note_on_c, 13, 51, 0
14, 55468, Note_on_c, 13, 80, 0
14, 55480, Note_on_c, 13, 79, 76
14, 55501, Note_on_c, 13, 79, 0
14, 55508, Note_on_c, 13, 75, 81
14, 55528, Note_on_c, 13, 75, 0
14, 55540, Note_on_c, 13, 76, 86
14, 55561, Note_on_c, 13, 76, 0
14, 55570, Note_on_c, 13, 77, 88
14, 55572, Note_on_c, 13, 60, 60
14, 55573, Note_on_c, 13, 51, 51
14, 55574, Note_on_c, 13, 57, 48
14, 55574, Control_c, 13, 64, 104
14, 55579, Control_c, 13, 64, 24
14, 55583, Control_c, 13, 64, 0
14, 55592, Note_on_c, 13, 77, 0
14, 55603, Note_on_c, 13, 83, 87
14, 55607, Control_c, 13, 64, 40
14, 55611, Control_c, 13, 64, 104
14, 55615, Control_c, 13, 64, 127
14, 55631, Note_on_c, 13, 83, 0
14, 55636, Note_on_c, 13, 84, 89
14, 55655, Note_on_c, 13, 84, 0
14, 55665, Note_on_c, 13, 77, 87
14, 55676, Note_on_c, 13, 57, 0
14, 55688, Note_on_c, 13, 77, 0
14, 55696, Note_on_c, 13, 83, 87
14, 55703, Note_on_c, 13, 56, 53
14, 55717, Note_on_c, 13, 83, 0
14, 55729, Note_on_c, 13, 60, 0
14, 55729, Note_on_c, 13, 84, 88
14, 55749, Note_on_c, 13, 84, 0
14, 55758, Note_on_c, 13, 89, 94
14, 55791, Note_on_c, 13, 84, 88
14, 55802, Note_on_c, 13, 89, 0
14, 55804, Control_c, 13, 64, 104
14, 55808, Control_c, 13, 64, 56
14, 55812, Control_c, 13, 64, 24
14, 55821, Note_on_c, 13, 84, 0
14, 55822, Note_on_c, 13, 83, 91
14, 55824, Note_on_c, 13, 62, 66
14, 55825, Control_c, 13, 64, 88
14, 55829, Control_c, 13, 64, 127
14, 55841, Note_on_c, 13, 83, 0
14, 55857, Note_on_c, 13, 82, 72
14, 55872, Note_on_c, 13, 56, 0
14, 55876, Note_on_c, 13, 82, 0
14, 55889, Note_on_c, 13, 94, 89
14, 55893, Note_on_c, 13, 62, 0
14, 55909, Note_on_c, 13, 94, 0
14, 55923, Note_on_c, 13, 93, 92
14, 55930, Control_c, 13, 64, 88
14, 55934, Control_c, 13, 64, 40
14, 55938, Control_c, 13, 64, 24
14, 55942, Note_on_c, 13, 51, 0
14, 55942, Control_c, 13, 64, 40
14, 55945, Note_on_c, 13, 93, 0
14, 55946, Control_c, 13, 64, 72
14, 55947, Note_on_c, 13, 63, 63
14, 55949, Note_on_c, 13, 55, 70
14, 55950, Control_c, 13, 64, 104
14, 55953, Note_on_c, 13, 92, 88
14, 55954, Control_c, 13, 64, 127
14, 55972, Note_on_c, 13, 55, 0
14, 55974, Note_on_c, 13, 92, 0
14, 55986, Note_on_c, 13, 91, 88
14, 55995, Control_c, 13, 64, 104
14, 55999, Control_c, 13, 64, 40
14, 56003, Control_c, 13, 64, 0
14, 56011, Note_on_c, 13, 91, 0
14, 56011, Control_c, 13, 64, 40
14, 56015, Control_c, 13, 64, 88
14, 56017, Note_on_c, 13, 97, 87
14, 56019, Control_c, 13, 64, 127
14, 56028, Note_on_c, 13, 63, 0
14, 56032, Note_on_c, 13, 51, 63
14, 56045, Note_on_c, 13, 89, 80
14, 56050, Note_on_c, 13, 97, 0
14, 56055, Note_on_c, 13, 51, 0
14, 56059, Note_on_c, 13, 58, 45
14, 56068, Note_on_c, 13, 89, 0
14, 56080, Note_on_c, 13, 61, 32
14, 56086, Note_on_c, 13, 88, 80
14, 56088, Note_on_c, 13, 67, 75
14, 56105, Note_on_c, 13, 88, 0
14, 56119, Note_on_c, 13, 87, 79
14, 56140, Note_on_c, 13, 87, 0
14, 56148, Note_on_c, 13, 67, 0
14, 56150, Note_on_c, 13, 86, 72
14, 56169, Note_on_c, 13, 86, 0
14, 56171, Note_on_c, 13, 61, 0
14, 56179, Note_on_c, 13, 85, 73
14, 56202, Note_on_c, 13, 85, 0
14, 56202, Note_on_c, 13, 58, 0
14, 56208, Control_c, 13, 64, 104
14, 56212, Control_c, 13, 64, 40
14, 56216, Note_on_c, 13, 84, 77
14, 56217, Control_c, 13, 64, 0
14, 56217, Note_on_c, 13, 68, 68
14, 56223, Note_on_c, 13, 60, 67
14, 56225, Control_c, 13, 64, 40
14, 56229, Control_c, 13, 64, 104
14, 56231, Note_on_c, 13, 60, 0
14, 56233, Control_c, 13, 64, 127
14, 56237, Note_on_c, 13, 84, 0
14, 56240, Note_on_c, 13, 68, 0
14, 56248, Note_on_c, 13, 92, 80
14, 56273, Note_on_c, 13, 92, 0
14, 56280, Note_on_c, 13, 96, 77
14, 56312, Note_on_c, 13, 89, 76
14, 56333, Note_on_c, 13, 96, 0
14, 56341, Note_on_c, 13, 89, 0
14, 56345, Note_on_c, 13, 86, 76
14, 56351, Note_on_c, 13, 56, 63
14, 56351, Note_on_c, 13, 62, 72
14, 56355, Note_on_c, 13, 51, 52
14, 56361, Note_on_c, 13, 86, 0
14, 56378, Note_on_c, 13, 83, 75
14, 56397, Note_on_c, 13, 83, 0
14, 56412, Note_on_c, 13, 80, 70
14, 56435, Note_on_c, 13, 80, 0
14, 56442, Note_on_c, 13, 62, 0
14, 56445, Note_on_c, 13, 56, 0
14, 56447, Note_on_c, 13, 77, 67
14, 56465, Note_on_c, 13, 77, 0
14, 56475, Control_c, 13, 64, 56
14, 56479, Control_c, 13, 64, 0
14, 56482, Note_on_c, 13, 75, 66
14, 56483, Note_on_c, 13, 63, 58
14, 56488, Note_on_c, 13, 55, 51
14, 56495, Note_on_c, 13, 75, 0
14, 56503, Control_c, 13, 64, 104
14, 56507, Control_c, 13, 64, 127
14, 56515, Note_on_c, 13, 51, 0
14, 56517, Note_on_c, 13, 79, 60
14, 56519, Note_on_c, 13, 55, 0
14, 56525, Note_on_c, 13, 63, 0
14, 56533, Note_on_c, 13, 79, 0
14, 56550, Note_on_c, 13, 85, 77
14, 56571, Note_on_c, 13, 85, 0
14, 56589, Note_on_c, 13, 77, 69
14, 56606, Note_on_c, 13, 77, 0
14, 56610, Note_on_c, 13, 63, 38
14, 56617, Note_on_c, 13, 61, 33
14, 56622, Note_on_c, 13, 67, 54
14, 56641, Note_on_c, 13, 72, 89
14, 56644, Note_on_c, 13, 76, 66
14, 56662, Note_on_c, 13, 76, 0
14, 56683, Note_on_c, 13, 75, 66
14, 56704, Note_on_c, 13, 75, 0
14, 56706, Note_on_c, 13, 72, 0
14, 56714, Note_on_c, 13, 74, 63
14, 56716, Note_on_c, 13, 61, 0
14, 56720, Note_on_c, 13, 67, 0
14, 56731, Note_on_c, 13, 63, 0
14, 56736, Note_on_c, 13, 74, 0
14, 56749, Note_on_c, 13, 70, 84
14, 56751, Note_on_c, 13, 73, 59
14, 56764, Note_on_c, 13, 70, 0
14, 56768, Note_on_c, 13, 73, 0
14, 56785, Note_on_c, 13, 68, 81
14, 56789, Note_on_c, 13, 72, 70
14, 56789, Control_c, 13, 64, 88
14, 56793, Note_on_c, 13, 63, 48
14, 56793, Control_c, 13, 64, 0
14, 56795, Note_on_c, 13, 60, 48
14, 56807, Note_on_c, 13, 72, 0
14, 56818, Control_c, 13, 64, 72
14, 56822, Control_c, 13, 64, 127
14, 56824, Note_on_c, 13, 80, 67
14, 56841, Note_on_c, 13, 68, 0
14, 56848, Note_on_c, 13, 60, 0
14, 56848, Note_on_c, 13, 63, 0
14, 56849, Note_on_c, 13, 80, 0
14, 56857, Note_on_c, 13, 84, 73
14, 56886, Note_on_c, 13, 77, 68
14, 56905, Note_on_c, 13, 84, 0
14, 56915, Note_on_c, 13, 77, 0
14, 56919, Note_on_c, 13, 74, 69
14, 56927, Note_on_c, 13, 62, 73
14, 56931, Note_on_c, 13, 56, 49
14, 56931, Control_c, 13, 64, 88
14, 56935, Control_c, 13, 64, 56
14, 56936, Note_on_c, 13, 74, 0
14, 56946, Control_c, 13, 64, 127
14, 56954, Note_on_c, 13, 71, 73
14, 56975, Note_on_c, 13, 71, 0
14, 56989, Note_on_c, 13, 68, 58
14, 57012, Note_on_c, 13, 56, 0
14, 57016, Note_on_c, 13, 68, 0
14, 57025, Note_on_c, 13, 65, 65
14, 57027, Note_on_c, 13, 62, 0
14, 57043, Note_on_c, 13, 65, 0
14, 57060, Control_c, 13, 64, 104
14, 57061, Note_on_c, 13, 63, 77
14, 57064, Control_c, 13, 64, 0
14, 57065, Note_on_c, 13, 55, 55
14, 57066, Note_on_c, 13, 51, 44
14, 57091, Note_on_c, 13, 63, 0
14, 57092, Control_c, 13, 64, 88
14, 57095, Note_on_c, 13, 67, 77
14, 57096, Control_c, 13, 64, 127
14, 57117, Note_on_c, 13, 67, 0
14, 57124, Note_on_c, 13, 55, 0
14, 57128, Note_on_c, 13, 68, 55
14, 57138, Note_on_c, 13, 51, 0
14, 57149, Note_on_c, 13, 68, 0
14, 57159, Note_on_c, 13, 69, 70
14, 57180, Note_on_c, 13, 69, 0
14, 57195, Note_on_c, 13, 70, 67
14, 57201, Control_c, 13, 64, 24
14, 57205, Note_on_c, 13, 51, 53
14, 57205, Control_c, 13, 64, 0
14, 57207, Note_on_c, 13, 39, 35
14, 57217, Control_c, 13, 64, 72
14, 57219, Note_on_c, 13, 70, 0
14, 57220, Control_c, 13, 64, 127
14, 57226, Note_on_c, 13, 68, 64
14, 57230, Note_on_c, 13, 51, 0
14, 57232, Note_on_c, 13, 39, 0
14, 57249, Note_on_c, 13, 68, 0
14, 57261, Note_on_c, 13, 67, 73
14, 57284, Note_on_c, 13, 67, 0
14, 57293, Note_on_c, 13, 77, 77
14, 57312, Note_on_c, 13, 77, 0
14, 57329, Note_on_c, 13, 73, 75
14, 57330, Control_c, 13, 64, 56
14, 57333, Note_on_c, 13, 61, 51
14, 57334, Control_c, 13, 64, 0
14, 57335, Note_on_c, 13, 51, 55
14, 57336, Note_on_c, 13, 58, 45
14, 57354, Control_c, 13, 64, 88
14, 57358, Control_c, 13, 64, 127
14, 57364, Note_on_c, 13, 73, 0
14, 57367, Note_on_c, 13, 67, 69
14, 57377, Note_on_c, 13, 61, 0
14, 57377, Note_on_c, 13, 58, 0
14, 57386, Note_on_c, 13, 67, 0
14, 57393, Note_on_c, 13, 51, 0
14, 57398, Note_on_c, 13, 68, 59
14, 57423, Note_on_c, 13, 68, 0
14, 57433, Note_on_c, 13, 69, 71
14, 57455, Note_on_c, 13, 69, 0
14, 57463, Control_c, 13, 64, 72
14, 57467, Note_on_c, 13, 70, 66
14, 57467, Control_c, 13, 64, 56
14, 57470, Note_on_c, 13, 51, 52
14, 57471, Note_on_c, 13, 39, 37
14, 57479, Control_c, 13, 64, 127
14, 57489, Note_on_c, 13, 70, 0
14, 57493, Note_on_c, 13, 39, 0
14, 57493, Note_on_c, 13, 51, 0
14, 57500, Note_on_c, 13, 68, 64
14, 57520, Note_on_c, 13, 68, 0
14, 57532, Note_on_c, 13, 67, 63
14, 57557, Note_on_c, 13, 67, 0
14, 57561, Note_on_c, 13, 77, 85
14, 57592, Note_on_c, 13, 77, 0
14, 57596, Control_c, 13, 64, 72
14, 57598, Note_on_c, 13, 73, 76
14, 57601, Control_c, 13, 64, 0
14, 57604, Note_on_c, 13, 61, 40
14, 57607, Note_on_c, 13, 51, 48
14, 57609, Note_on_c, 13, 58, 35
14, 57621, Control_c, 13, 64, 56
14, 57625, Control_c, 13, 64, 127
14, 57638, Note_on_c, 13, 67, 69
14, 57644, Note_on_c, 13, 61, 0
14, 57646, Note_on_c, 13, 58, 0
14, 57657, Note_on_c, 13, 67, 0
14, 57657, Note_on_c, 13, 51, 0
14, 57671, Note_on_c, 13, 68, 49
14, 57696, Note_on_c, 13, 68, 0
14, 57702, Note_on_c, 13, 69, 58
14, 57719, Note_on_c, 13, 73, 0
14, 57723, Note_on_c, 13, 69, 0
14, 57733, Note_on_c, 13, 39, 46
14, 57735, Note_on_c, 13, 70, 58
14, 57735, Note_on_c, 13, 51, 45
14, 57758, Note_on_c, 13, 51, 0
14, 57758, Note_on_c, 13, 39, 0
14, 57759, Note_on_c, 13, 70, 0
14, 57767, Note_on_c, 13, 68, 55
14, 57789, Note_on_c, 13, 68, 0
14, 57800, Note_on_c, 13, 67, 53
14, 57827, Note_on_c, 13, 67, 0
14, 57834, Note_on_c, 13, 77, 84
14, 57867, Control_c, 13, 64, 88
14, 57870, Control_c, 13, 64, 0
14, 57874, Note_on_c, 13, 73, 70
14, 57875, Note_on_c, 13, 61, 40
14, 57879, Note_on_c, 13, 51, 47
14, 57881, Note_on_c, 13, 58, 35
14, 57895, Control_c, 13, 64, 72
14, 57899, Control_c, 13, 64, 127
14, 57913, Note_on_c, 13, 67, 73
14, 57918, Note_on_c, 13, 61, 0
14, 57919, Note_on_c, 13, 73, 0
14, 57921, Note_on_c, 13, 58, 0
14, 57930, Note_on_c, 13, 51, 0
14, 57930, Note_on_c, 13, 67, 0
14, 57947, Note_on_c, 13, 68, 60
14, 57975, Note_on_c, 13, 68, 0
14, 57984, Note_on_c, 13, 69, 54
14, 58009, Note_on_c, 13, 69, 0
14, 58018, Note_on_c, 13, 70, 63
14, 58019, Note_on_c, 13, 39, 45
14, 58019, Note_on_c, 13, 51, 46
14, 58054, Note_on_c, 13, 68, 59
14, 58061, Note_on_c, 13, 70, 0
14, 58081, Note_on_c, 13, 77, 0
14, 58083, Note_on_c, 13, 39, 0
14, 58087, Note_on_c, 13, 51, 0
14, 58088, Note_on_c, 13, 68, 0
14, 58095, Note_on_c, 13, 67, 70
14, 58129, Note_on_c, 13, 67, 0
14, 58135, Note_on_c, 13, 76, 77
14, 58175, Note_on_c, 13, 76, 0
14, 58193, Note_on_c, 13, 75, 75
14, 58197, Note_on_c, 13, 61, 33
14, 58197, Note_on_c, 13, 58, 32
14, 58200, Note_on_c, 13, 51, 37
14, 58210, Control_c, 13, 64, 104
14, 58214, Control_c, 13, 64, 0
14, 58241, Note_on_c, 13, 67, 59
14, 58246, Control_c, 13, 64, 127
14, 58257, Note_on_c, 13, 75, 0
14, 58263, Note_on_c, 13, 67, 0
14, 58279, Note_on_c, 13, 73, 67
14, 58299, Note_on_c, 13, 51, 0
14, 58303, Note_on_c, 13, 58, 0
14, 58305, Note_on_c, 13, 61, 0
14, 58305, Note_on_c, 13, 73, 0
14, 58315, Note_on_c, 13, 77, 79
14, 58350, Note_on_c, 13, 75, 80
14, 58361, Note_on_c, 13, 77, 0
14, 58367, Note_on_c, 13, 75, 0
14, 58384, Note_on_c, 13, 79, 88
14, 58405, Note_on_c, 13, 79, 0
14, 58419, Note_on_c, 13, 85, 80
14, 58446, Note_on_c, 13, 85, 0
14, 58453, Note_on_c, 13, 89, 80
14, 58489, Note_on_c, 13, 87, 70
14, 58495, Note_on_c, 13, 89, 0
14, 58503, Note_on_c, 13, 87, 0
14, 58525, Note_on_c, 13, 91, 68
14, 58539, Note_on_c, 13, 91, 0
14, 58553, Note_on_c, 13, 97, 78
14, 58578, Note_on_c, 13, 97, 0
14, 58589, Note_on_c, 13, 101, 80
14, 58617, Note_on_c, 13, 101, 0
14, 58621, Note_on_c, 13, 99, 79
14, 58652, Note_on_c, 13, 91, 81
14, 58653, Note_on_c, 13, 99, 0
14, 58667, Note_on_c, 13, 91, 0
14, 58688, Note_on_c, 13, 85, 70
14, 58703, Note_on_c, 13, 85, 0
14, 58721, Note_on_c, 13, 89, 73
14, 58746, Note_on_c, 13, 89, 0
14, 58756, Note_on_c, 13, 87, 67
14, 58785, Note_on_c, 13, 87, 0
14, 58787, Note_on_c, 13, 79, 61
14, 58802, Note_on_c, 13, 79, 0
14, 58822, Note_on_c, 13, 73, 68
14, 58843, Note_on_c, 13, 73, 0
14, 58859, Note_on_c, 13, 77, 69
14, 58886, Note_on_c, 13, 77, 0
14, 58893, Note_on_c, 13, 75, 70
14, 58926, Note_on_c, 13, 75, 0
14, 58928, Note_on_c, 13, 67, 71
14, 58945, Note_on_c, 13, 67, 0
14, 58968, Note_on_c, 13, 61, 70
14, 58993, Note_on_c, 13, 61, 0
14, 59004, Note_on_c, 13, 65, 65
14, 59029, Note_on_c, 13, 65, 0
14, 59039, Note_on_c, 13, 63, 59
14, 59074, Note_on_c, 13, 63, 0
14, 59077, Note_on_c, 13, 55, 71
14, 59093, Note_on_c, 13, 55, 0
14, 59114, Note_on_c, 13, 49, 72
14, 59139, Note_on_c, 13, 49, 0
14, 59156, Note_on_c, 13, 53, 55
14, 59182, Note_on_c, 13, 53, 0
14, 59195, Note_on_c, 13, 51, 67
14, 59222, Note_on_c, 13, 51, 0
14, 59237, Note_on_c, 13, 49, 58
14, 59273, Note_on_c, 13, 49, 0
14, 59284, Note_on_c, 13, 43, 58
14, 59304, Note_on_c, 13, 43, 0
14, 59338, Note_on_c, 13, 39, 44
14, 59377, Note_on_c, 13, 39, 0
14, 59439, Note_on_c, 13, 73, 72
14, 59451, Note_on_c, 13, 27, 40
14, 59460, Control_c, 13, 64, 56
14, 59464, Control_c, 13, 64, 0
14, 59493, Control_c, 13, 64, 127
14, 59507, Note_on_c, 13, 27, 0
14, 59600, Note_on_c, 13, 51, 45
14, 59683, Note_on_c, 13, 63, 46
14, 59685, Note_on_c, 13, 51, 0
14, 59753, Note_on_c, 13, 73, 0
14, 59785, Note_on_c, 13, 72, 77
14, 59787, Note_on_c, 13, 56, 44
14, 59787, Control_c, 13, 64, 56
14, 59790, Note_on_c, 13, 63, 0
14, 59790, Control_c, 13, 64, 88
14, 59795, Control_c, 13, 64, 104
14, 59799, Control_c, 13, 64, 127
14, 59858, Note_on_c, 13, 56, 0
14, 59863, Note_on_c, 13, 63, 46
14, 59928, Note_on_c, 13, 73, 79
14, 59934, Note_on_c, 13, 51, 49
14, 59936, Control_c, 13, 64, 56
14, 59937, Note_on_c, 13, 63, 0
14, 59939, Note_on_c, 13, 72, 0
14, 59941, Control_c, 13, 64, 0
14, 59961, Control_c, 13, 64, 40
14, 59965, Control_c, 13, 64, 104
14, 59969, Control_c, 13, 64, 127
14, 59992, Note_on_c, 13, 51, 0
14, 59998, Note_on_c, 13, 63, 47
14, 60015, Note_on_c, 13, 73, 0
14, 60036, Note_on_c, 13, 72, 81
14, 60052, Note_on_c, 13, 72, 0
14, 60071, Note_on_c, 13, 72, 84
14, 60076, Note_on_c, 13, 61, 45
14, 60078, Control_c, 13, 64, 88
14, 60082, Control_c, 13, 64, 40
14, 60083, Note_on_c, 13, 63, 0
14, 60086, Control_c, 13, 64, 0
14, 60121, Control_c, 13, 64, 127
14, 60141, Note_on_c, 13, 61, 0
14, 60146, Note_on_c, 13, 63, 38
14, 60212, Note_on_c, 13, 67, 47
14, 60215, Note_on_c, 13, 51, 42
14, 60219, Note_on_c, 13, 63, 0
14, 60275, Note_on_c, 13, 51, 0
14, 60281, Note_on_c, 13, 72, 0
14, 60284, Note_on_c, 13, 70, 64
14, 60291, Note_on_c, 13, 63, 38
14, 60292, Note_on_c, 13, 67, 0
14, 60358, Note_on_c, 13, 70, 0
14, 60363, Note_on_c, 13, 68, 59
14, 60369, Note_on_c, 13, 63, 0
14, 60373, Note_on_c, 13, 60, 37
14, 60376, Control_c, 13, 64, 72
14, 60380, Control_c, 13, 64, 0
14, 60412, Control_c, 13, 64, 24
14, 60417, Control_c, 13, 64, 88
14, 60421, Control_c, 13, 64, 127
14, 60443, Note_on_c, 13, 60, 0
14, 60447, Note_on_c, 13, 63, 44
14, 60464, Note_on_c, 13, 68, 0
14, 60518, Note_on_c, 13, 70, 71
14, 60521, Control_c, 13, 64, 56
14, 60522, Note_on_c, 13, 63, 0
14, 60523, Note_on_c, 13, 61, 46
14, 60525, Control_c, 13, 64, 0
14, 60553, Control_c, 13, 64, 72
14, 60558, Control_c, 13, 64, 104
14, 60562, Control_c, 13, 64, 127
14, 60577, Note_on_c, 13, 61, 0
14, 60580, Note_on_c, 13, 70, 0
14, 60588, Note_on_c, 13, 72, 89
14, 60590, Note_on_c, 13, 60, 50
14, 60647, Note_on_c, 13, 72, 0
14, 60655, Note_on_c, 13, 73, 81
14, 60659, Note_on_c, 13, 60, 0
14, 60659, Control_c, 13, 64, 72
14, 60663, Control_c, 13, 64, 0
14, 60663, Note_on_c, 13, 58, 42
14, 60695, Control_c, 13, 64, 104
14, 60698, Control_c, 13, 64, 127
14, 60729, Note_on_c, 13, 63, 50
14, 60731, Note_on_c, 13, 58, 0
14, 60743, Note_on_c, 13, 73, 0
14, 60766, Note_on_c, 13, 63, 0
14, 60791, Note_on_c, 13, 73, 80
14, 60798, Note_on_c, 13, 55, 52
14, 60800, Control_c, 13, 64, 88
14, 60804, Control_c, 13, 64, 0
14, 60835, Control_c, 13, 64, 88
14, 60840, Control_c, 13, 64, 127
14, 60862, Note_on_c, 13, 55, 0
14, 60862, Note_on_c, 13, 64, 44
14, 60864, Note_on_c, 13, 73, 0
14, 60889, Note_on_c, 13, 73, 80
14, 60909, Note_on_c, 13, 64, 0
14, 60918, Note_on_c, 13, 73, 0
14, 60929, Control_c, 13, 64, 104
14, 60932, Control_c, 13, 64, 24
14, 60935, Note_on_c, 13, 72, 77
14, 60935, Note_on_c, 13, 56, 44
14, 60936, Control_c, 13, 64, 0
14, 60957, Note_on_c, 13, 72, 0
14, 60961, Control_c, 13, 64, 72
14, 60961, Note_on_c, 13, 74, 69
14, 60965, Control_c, 13, 64, 127
14, 60984, Note_on_c, 13, 74, 0
14, 60990, Note_on_c, 13, 72, 73
14, 61010, Note_on_c, 13, 72, 0
14, 61010, Note_on_c, 13, 60, 52
14, 61016, Note_on_c, 13, 71, 63
14, 61029, Control_c, 13, 64, 72
14, 61034, Control_c, 13, 64, 40
14, 61038, Control_c, 13, 64, 24
14, 61038, Note_on_c, 13, 72, 66
14, 61039, Note_on_c, 13, 71, 0
14, 61050, Control_c, 13, 64, 56
14, 61054, Control_c, 13, 64, 72
14, 61058, Note_on_c, 13, 72, 0
14, 61058, Control_c, 13, 64, 88
14, 61060, Note_on_c, 13, 73, 72
14, 61079, Note_on_c, 13, 73, 0
14, 61081, Note_on_c, 13, 74, 76
14, 61090, Control_c, 13, 64, 104
14, 61101, Note_on_c, 13, 64, 37
14, 61108, Note_on_c, 13, 74, 0
14, 61108, Note_on_c, 13, 75, 74
14, 61114, Control_c, 13, 64, 127
14, 61129, Note_on_c, 13, 75, 0
14, 61133, Note_on_c, 13, 76, 77
14, 61156, Note_on_c, 13, 76, 0
14, 61156, Note_on_c, 13, 77, 73
14, 61176, Note_on_c, 13, 77, 0
14, 61177, Note_on_c, 13, 78, 64
14, 61197, Note_on_c, 13, 78, 0
14, 61203, Note_on_c, 13, 79, 67
14, 61214, Note_on_c, 13, 64, 0
14, 61228, Note_on_c, 13, 79, 0
14, 61235, Control_c, 13, 64, 104
14, 61238, Note_on_c, 13, 82, 72
14, 61240, Control_c, 13, 64, 72
14, 61243, Control_c, 13, 64, 40
14, 61247, Control_c, 13, 64, 0
14, 61249, Note_on_c, 13, 65, 34
14, 61280, Control_c, 13, 64, 40
14, 61284, Control_c, 13, 64, 88
14, 61284, Note_on_c, 13, 80, 70
14, 61288, Control_c, 13, 64, 127
14, 61290, Note_on_c, 13, 56, 0
14, 61294, Note_on_c, 13, 82, 0
14, 61299, Note_on_c, 13, 60, 0
14, 61303, Note_on_c, 13, 65, 0
14, 61316, Note_on_c, 13, 80, 0
14, 61385, Note_on_c, 13, 79, 77
14, 61402, Note_on_c, 13, 79, 0
14, 61417, Control_c, 13, 64, 56
14, 61420, Note_on_c, 13, 79, 84
14, 61421, Control_c, 13, 64, 0
14, 61427, Note_on_c, 13, 58, 45
14, 61427, Note_on_c, 13, 63, 34
14, 61444, Control_c, 13, 64, 127
14, 61453, Note_on_c, 13, 58, 0
14, 61477, Note_on_c, 13, 63, 0
14, 61490, Note_on_c, 13, 72, 69
14, 61498, Note_on_c, 13, 79, 0
14, 61512, Note_on_c, 13, 72, 0
14, 61515, Note_on_c, 13, 79, 79
14, 61541, Note_on_c, 13, 79, 0
14, 61555, Note_on_c, 13, 77, 86
14, 61562, Note_on_c, 13, 70, 38
14, 61562, Control_c, 13, 64, 72
14, 61564, Note_on_c, 13, 62, 39
14, 61566, Control_c, 13, 64, 0
14, 61595, Control_c, 13, 64, 127
14, 61616, Note_on_c, 13, 70, 0
14, 61634, Note_on_c, 13, 68, 48
14, 61639, Note_on_c, 13, 62, 0
14, 61648, Note_on_c, 13, 68, 0
14, 61662, Note_on_c, 13, 77, 0
14, 61672, Note_on_c, 13, 75, 79
14, 61690, Note_on_c, 13, 75, 0
14, 61709, Note_on_c, 13, 75, 72
14, 61715, Control_c, 13, 64, 104
14, 61719, Control_c, 13, 64, 0
14, 61723, Note_on_c, 13, 51, 57
14, 61748, Control_c, 13, 64, 127
14, 61758, Note_on_c, 13, 51, 0
14, 61788, Note_on_c, 13, 67, 63
14, 61790, Note_on_c, 13, 58, 40
14, 61819, Note_on_c, 13, 67, 0
14, 61862, Note_on_c, 13, 58, 0
14, 61870, Note_on_c, 13, 68, 57
14, 61877, Control_c, 13, 64, 72
14, 61877, Note_on_c, 13, 60, 50
14, 61881, Control_c, 13, 64, 0
14, 61901, Control_c, 13, 64, 88
14, 61905, Control_c, 13, 64, 127
14, 61923, Note_on_c, 13, 68, 0
14, 61930, Note_on_c, 13, 60, 0
14, 61947, Note_on_c, 13, 75, 0
14, 61959, Note_on_c, 13, 76, 81
14, 61967, Note_on_c, 13, 67, 47
14, 61968, Note_on_c, 13, 58, 35
14, 61983, Note_on_c, 13, 67, 0
14, 61987, Note_on_c, 13, 76, 0
14, 61996, Note_on_c, 13, 58, 0
14, 62058, Note_on_c, 13, 76, 84
14, 62071, Control_c, 13, 64, 0
14, 62073, Note_on_c, 13, 41, 59
14, 62095, Control_c, 13, 64, 72
14, 62096, Note_on_c, 13, 41, 0
14, 62098, Control_c, 13, 64, 127
14, 62137, Note_on_c, 13, 76, 0
14, 62143, Note_on_c, 13, 65, 64
14, 62156, Note_on_c, 13, 77, 85
14, 62168, Note_on_c, 13, 77, 0
14, 62185, Note_on_c, 13, 77, 85
14, 62199, Note_on_c, 13, 77, 0
14, 62201, Note_on_c, 13, 80, 82
14, 62211, Note_on_c, 13, 65, 0
14, 62219, Note_on_c, 13, 63, 45
14, 62219, Note_on_c, 13, 57, 51
14, 62220, Control_c, 13, 64, 104
14, 62221, Note_on_c, 13, 78, 85
14, 62224, Control_c, 13, 64, 0
14, 62229, Note_on_c, 13, 80, 0
14, 62252, Control_c, 13, 64, 88
14, 62256, Control_c, 13, 64, 127
14, 62279, Note_on_c, 13, 57, 0
14, 62280, Note_on_c, 13, 63, 0
14, 62286, Note_on_c, 13, 65, 61
14, 62297, Note_on_c, 13, 78, 0
14, 62315, Note_on_c, 13, 77, 94
14, 62329, Note_on_c, 13, 77, 0
14, 62347, Note_on_c, 13, 77, 92
14, 62354, Note_on_c, 13, 61, 49
14, 62354, Note_on_c, 13, 58, 44
14, 62356, Note_on_c, 13, 65, 0
14, 62365, Control_c, 13, 64, 72
14, 62369, Control_c, 13, 64, 0
14, 62393, Control_c, 13, 64, 88
14, 62397, Control_c, 13, 64, 127
14, 62410, Note_on_c, 13, 61, 0
14, 62414, Note_on_c, 13, 58, 0
14, 62421, Note_on_c, 13, 65, 65
14, 62427, Note_on_c, 13, 77, 0
14, 62485, Note_on_c, 13, 65, 0
14, 62485, Note_on_c, 13, 85, 96
14, 62489, Note_on_c, 13, 77, 79
14, 62494, Control_c, 13, 64, 56
14, 62497, Note_on_c, 13, 53, 45
14, 62498, Control_c, 13, 64, 0
14, 62510, Control_c, 13, 64, 72
14, 62514, Control_c, 13, 64, 127
14, 62535, Note_on_c, 13, 77, 0
14, 62545, Note_on_c, 13, 53, 0
14, 62547, Note_on_c, 13, 85, 0
14, 62557, Note_on_c, 13, 65, 51
14, 62583, Note_on_c, 13, 85, 89
14, 62594, Note_on_c, 13, 77, 48
14, 62601, Note_on_c, 13, 77, 0
14, 62605, Note_on_c, 13, 85, 0
14, 62618, Note_on_c, 13, 84, 87
14, 62621, Note_on_c, 13, 75, 59
14, 62631, Note_on_c, 13, 57, 44
14, 62631, Control_c, 13, 64, 24
14, 62633, Note_on_c, 13, 65, 0
14, 62635, Control_c, 13, 64, 0
14, 62659, Control_c, 13, 64, 88
14, 62663, Control_c, 13, 64, 127
14, 62669, Note_on_c, 13, 75, 0
14, 62680, Note_on_c, 13, 84, 0
14, 62684, Note_on_c, 13, 57, 0
14, 62686, Note_on_c, 13, 65, 52
14, 62713, Note_on_c, 13, 82, 72
14, 62715, Note_on_c, 13, 73, 48
14, 62725, Note_on_c, 13, 73, 0
14, 62742, Note_on_c, 13, 82, 0
14, 62742, Note_on_c, 13, 65, 0
14, 62748, Note_on_c, 13, 84, 84
14, 62750, Note_on_c, 13, 75, 54
14, 62756, Control_c, 13, 64, 72
14, 62760, Note_on_c, 13, 53, 42
14, 62760, Control_c, 13, 64, 0
14, 62781, Control_c, 13, 64, 56
14, 62785, Control_c, 13, 64, 127
14, 62805, Note_on_c, 13, 84, 0
14, 62808, Note_on_c, 13, 53, 0
14, 62822, Note_on_c, 13, 65, 53
14, 62837, Note_on_c, 13, 75, 0
14, 62854, Note_on_c, 13, 85, 75
14, 62856, Note_on_c, 13, 65, 0
14, 62861, Note_on_c, 13, 77, 71
14, 62868, Note_on_c, 13, 77, 0
14, 62882, Note_on_c, 13, 85, 0
14, 62899, Note_on_c, 13, 82, 68
14, 62903, Note_on_c, 13, 73, 48
14, 62904, Note_on_c, 13, 58, 42
14, 62918, Control_c, 13, 64, 88
14, 62922, Control_c, 13, 64, 0
14, 62954, Control_c, 13, 64, 88
14, 62958, Control_c, 13, 64, 127
14, 62975, Note_on_c, 13, 65, 53
14, 63055, Note_on_c, 13, 56, 39
14, 63059, Control_c, 13, 64, 56
14, 63063, Control_c, 13, 64, 0
14, 63083, Note_on_c, 13, 58, 0
14, 63083, Control_c, 13, 64, 104
14, 63085, Note_on_c, 13, 65, 0
14, 63086, Control_c, 13, 64, 127
14, 63135, Note_on_c, 13, 82, 0
14, 63139, Note_on_c, 13, 64, 40
14, 63148, Note_on_c, 13, 56, 0
14, 63171, Note_on_c, 13, 73, 0
14, 63228, Note_on_c, 13, 75, 74
14, 63231, Note_on_c, 13, 73, 67
14, 63236, Control_c, 13, 64, 104
14, 63240, Note_on_c, 13, 64, 0
14, 63241, Control_c, 13, 64, 24
14, 63243, Note_on_c, 13, 55, 45
14, 63245, Control_c, 13, 64, 0
14, 63265, Control_c, 13, 64, 104
14, 63269, Control_c, 13, 64, 127
14, 63287, Note_on_c, 13, 73, 0
14, 63298, Note_on_c, 13, 75, 0
14, 63299, Note_on_c, 13, 58, 37
14, 63319, Note_on_c, 13, 75, 80
14, 63321, Note_on_c, 13, 73, 59
14, 63329, Note_on_c, 13, 73, 0
14, 63340, Note_on_c, 13, 75, 0
14, 63342, Note_on_c, 13, 55, 0
14, 63356, Note_on_c, 13, 75, 71
14, 63365, Note_on_c, 13, 58, 0
14, 63371, Note_on_c, 13, 79, 73
14, 63371, Note_on_c, 13, 63, 47
14, 63375, Note_on_c, 13, 75, 0
14, 63385, Note_on_c, 13, 77, 91
14, 63385, Note_on_c, 13, 73, 35
14, 63386, Control_c, 13, 64, 88
14, 63390, Control_c, 13, 64, 0
14, 63394, Note_on_c, 13, 79, 0
14, 63413, Control_c, 13, 64, 127
14, 63450, Note_on_c, 13, 51, 60
14, 63460, Note_on_c, 13, 63, 0
14, 63464, Note_on_c, 13, 73, 0
14, 63471, Note_on_c, 13, 77, 0
14, 63473, Note_on_c, 13, 51, 0
14, 63483, Note_on_c, 13, 75, 80
14, 63491, Note_on_c, 13, 73, 48
14, 63498, Note_on_c, 13, 73, 0
14, 63521, Note_on_c, 13, 75, 0
14, 63537, Note_on_c, 13, 80, 86
14, 63543, Note_on_c, 13, 72, 69
14, 63547, Control_c, 13, 64, 24
14, 63551, Control_c, 13, 64, 0
14, 63557, Note_on_c, 13, 44, 50
14, 63591, Control_c, 13, 64, 127
14, 63601, Note_on_c, 13, 44, 0
14, 63618, Note_on_c, 13, 53, 49
14, 63627, Note_on_c, 13, 72, 0
14, 63655, Note_on_c, 13, 80, 0
14, 63657, Note_on_c, 13, 53, 0
14, 63677, Note_on_c, 13, 75, 65
14, 63680, Note_on_c, 13, 68, 37
14, 63683, Note_on_c, 13, 72, 59
14, 63685, Note_on_c, 13, 60, 54
14, 63690, Note_on_c, 13, 72, 0
14, 63707, Note_on_c, 13, 60, 0
14, 63727, Note_on_c, 13, 75, 0
14, 63741, Note_on_c, 13, 79, 87
14, 63742, Note_on_c, 13, 68, 0
14, 63745, Note_on_c, 13, 65, 57
14, 63757, Note_on_c, 13, 65, 0
14, 63767, Note_on_c, 13, 79, 0
14, 63801, Note_on_c, 13, 79, 77
14, 63813, Control_c, 13, 64, 104
14, 63814, Note_on_c, 13, 74, 61
14, 63816, Note_on_c, 13, 77, 90
14, 63817, Note_on_c, 13, 68, 30
14, 63817, Control_c, 13, 64, 0
14, 63823, Note_on_c, 13, 79, 0
14, 63831, Note_on_c, 13, 46, 52
14, 63844, Note_on_c, 13, 74, 0
14, 63850, Control_c, 13, 64, 127
14, 63876, Note_on_c, 13, 46, 0
14, 63883, Note_on_c, 13, 77, 0
14, 63891, Note_on_c, 13, 75, 80
14, 63895, Note_on_c, 13, 72, 72
14, 63901, Note_on_c, 13, 53, 44
14, 63906, Note_on_c, 13, 72, 0
14, 63924, Note_on_c, 13, 75, 0
14, 63937, Note_on_c, 13, 68, 0
14, 63941, Note_on_c, 13, 53, 0
14, 63962, Note_on_c, 13, 77, 90
14, 63966, Note_on_c, 13, 70, 65
14, 63967, Note_on_c, 13, 58, 49
14, 63990, Note_on_c, 13, 77, 0
14, 64011, Note_on_c, 13, 70, 0
14, 64034, Note_on_c, 13, 79, 89
14, 64037, Note_on_c, 13, 58, 0
14, 64040, Note_on_c, 13, 68, 56
14, 64043, Note_on_c, 13, 62, 52
14, 64071, Note_on_c, 13, 62, 0
14, 64079, Note_on_c, 13, 79, 0
14, 64085, Note_on_c, 13, 68, 0
14, 64118, Note_on_c, 13, 75, 86
14, 64125, Note_on_c, 13, 67, 54
14, 64127, Note_on_c, 13, 63, 46
14, 64136, Control_c, 13, 64, 24
14, 64140, Control_c, 13, 64, 0
14, 64169, Control_c, 13, 64, 104
14, 64173, Control_c, 13, 64, 127
14, 64177, Note_on_c, 13, 63, 0
14, 64187, Note_on_c, 13, 67, 0
14, 64195, Note_on_c, 13, 70, 63
14, 64245, Note_on_c, 13, 70, 0
14, 64261, Note_on_c, 13, 67, 57
14, 64265, Note_on_c, 13, 39, 45
14, 64267, Note_on_c, 13, 51, 42
14, 64326, Note_on_c, 13, 75, 0
14, 64334, Note_on_c, 13, 67, 0
14, 64336, Note_on_c, 13, 70, 65
14, 64349, Note_on_c, 13, 39, 0
14, 64355, Note_on_c, 13, 70, 0
14, 64362, Note_on_c, 13, 51, 0
14, 64417, Note_on_c, 13, 73, 81
14, 64423, Note_on_c, 13, 68, 55
14, 64429, Note_on_c, 13, 41, 44
14, 64431, Note_on_c, 13, 53, 47
14, 64431, Control_c, 13, 64, 40
14, 64435, Control_c, 13, 64, 0
14, 64463, Control_c, 13, 64, 104
14, 64467, Control_c, 13, 64, 127
14, 64483, Note_on_c, 13, 68, 0
14, 64487, Note_on_c, 13, 41, 0
14, 64487, Note_on_c, 13, 61, 53
14, 64501, Note_on_c, 13, 53, 0
14, 64537, Note_on_c, 13, 61, 0
14, 64552, Control_c, 13, 64, 104
14, 64554, Note_on_c, 13, 70, 52
14, 64556, Control_c, 13, 64, 40
14, 64560, Control_c, 13, 64, 0
14, 64561, Note_on_c, 13, 64, 56
14, 64564, Note_on_c, 13, 55, 43
14, 64565, Note_on_c, 13, 43, 42
14, 64579, Control_c, 13, 64, 88
14, 64583, Control_c, 13, 64, 127
14, 64596, Note_on_c, 13, 55, 0
14, 64601, Note_on_c, 13, 43, 0
14, 64613, Note_on_c, 13, 64, 0
14, 64620, Note_on_c, 13, 73, 0
14, 64627, Note_on_c, 13, 63, 56
14, 64633, Note_on_c, 13, 70, 0
14, 64657, Note_on_c, 13, 63, 0
14, 64699, Note_on_c, 13, 72, 81
14, 64703, Note_on_c, 13, 60, 47
14, 64705, Note_on_c, 13, 68, 46
14, 64706, Note_on_c, 13, 56, 47
14, 64707, Note_on_c, 13, 44, 45
14, 64709, Control_c, 13, 64, 56
14, 64713, Control_c, 13, 64, 0
14, 64737, Control_c, 13, 64, 88
14, 64741, Control_c, 13, 64, 127
14, 64747, Note_on_c, 13, 68, 0
14, 64776, Note_on_c, 13, 63, 63
14, 64779, Note_on_c, 13, 72, 0
14, 64780, Note_on_c, 13, 60, 0
14, 64799, Note_on_c, 13, 63, 0
14, 64820, Note_on_c, 13, 67, 63
14, 64835, Note_on_c, 13, 73, 84
14, 64838, Note_on_c, 13, 44, 0
14, 64838, Control_c, 13, 64, 40
14, 64839, Note_on_c, 13, 56, 0
14, 64840, Note_on_c, 13, 67, 0
14, 64840, Note_on_c, 13, 65, 69
14, 64842, Control_c, 13, 64, 0
14, 64845, Note_on_c, 13, 51, 45
14, 64863, Control_c, 13, 64, 72
14, 64867, Control_c, 13, 64, 127
14, 64888, Note_on_c, 13, 73, 0
14, 64898, Note_on_c, 13, 65, 0
14, 64906, Note_on_c, 13, 63, 56
14, 64928, Note_on_c, 13, 63, 0
14, 64937, Note_on_c, 13, 72, 86
14, 64956, Note_on_c, 13, 72, 0
14, 64973, Note_on_c, 13, 72, 84
14, 64978, Note_on_c, 13, 61, 46
14, 64979, Note_on_c, 13, 67, 48
14, 64983, Control_c, 13, 64, 72
14, 64987, Note_on_c, 13, 39, 36
14, 64987, Control_c, 13, 64, 0
14, 65020, Control_c, 13, 64, 127
14, 65030, Note_on_c, 13, 61, 0
14, 65032, Note_on_c, 13, 67, 0
14, 65049, Note_on_c, 13, 39, 0
14, 65051, Note_on_c, 13, 63, 59
14, 65061, Note_on_c, 13, 51, 0
14, 65094, Note_on_c, 13, 63, 0
14, 65117, Note_on_c, 13, 61, 58
14, 65123, Note_on_c, 13, 51, 44
14, 65161, Note_on_c, 13, 72, 0
14, 65179, Note_on_c, 13, 61, 0
14, 65187, Note_on_c, 13, 70, 78
14, 65196, Note_on_c, 13, 63, 50
14, 65204, Note_on_c, 13, 63, 0
14, 65216, Note_on_c, 13, 70, 0
14, 65231, Note_on_c, 13, 51, 0
14, 65258, Note_on_c, 13, 68, 71
14, 65265, Note_on_c, 13, 60, 63
14, 65266, Control_c, 13, 64, 88
14, 65268, Note_on_c, 13, 56, 32
14, 65268, Note_on_c, 13, 44, 38
14, 65269, Control_c, 13, 64, 0
14, 65298, Control_c, 13, 64, 72
14, 65302, Control_c, 13, 64, 127
14, 65318, Note_on_c, 13, 60, 0
14, 65332, Note_on_c, 13, 68, 0
14, 65332, Note_on_c, 13, 63, 47
14, 65351, Note_on_c, 13, 63, 0
14, 65379, Note_on_c, 13, 67, 60
14, 65396, Note_on_c, 13, 70, 75
14, 65397, Note_on_c, 13, 56, 0
14, 65399, Note_on_c, 13, 67, 0
14, 65403, Note_on_c, 13, 65, 64
14, 65403, Control_c, 13, 64, 24
14, 65407, Control_c, 13, 64, 0
14, 65409, Note_on_c, 13, 44, 0
14, 65409, Note_on_c, 13, 51, 38
14, 65431, Control_c, 13, 64, 104
14, 65435, Control_c, 13, 64, 127
14, 65451, Note_on_c, 13, 65, 0
14, 65454, Note_on_c, 13, 70, 0
14, 65460, Note_on_c, 13, 63, 58
14, 65487, Note_on_c, 13, 63, 0
14, 65493, Note_on_c, 13, 72, 80
14, 65509, Note_on_c, 13, 72, 0
14, 65527, Note_on_c, 13, 73, 85
14, 65529, Note_on_c, 13, 67, 60
14, 65531, Note_on_c, 13, 61, 44
14, 65532, Control_c, 13, 64, 56
14, 65536, Control_c, 13, 64, 0
14, 65540, Note_on_c, 13, 58, 33
14, 65560, Control_c, 13, 64, 72
14, 65565, Control_c, 13, 64, 127
14, 65575, Note_on_c, 13, 67, 0
14, 65583, Note_on_c, 13, 58, 0
14, 65583, Note_on_c, 13, 73, 0
14, 65585, Note_on_c, 13, 51, 0
14, 65590, Note_on_c, 13, 61, 0
14, 65600, Note_on_c, 13, 63, 70
14, 65627, Note_on_c, 13, 63, 0
14, 65663, Note_on_c, 13, 73, 89
14, 65666, Note_on_c, 13, 61, 74
14, 65669, Note_on_c, 13, 70, 44
14, 65669, Control_c, 13, 64, 56
14, 65671, Note_on_c, 13, 43, 49
14, 65673, Control_c, 13, 64, 0
14, 65689, Control_c, 13, 64, 72
14, 65693, Control_c, 13, 64, 127
14, 65705, Note_on_c, 13, 43, 0
14, 65705, Note_on_c, 13, 70, 0
14, 65718, Note_on_c, 13, 73, 0
14, 65736, Note_on_c, 13, 63, 68
14, 65739, Note_on_c, 13, 61, 0
14, 65764, Note_on_c, 13, 63, 0
14, 65767, Note_on_c, 13, 73, 91
14, 65790, Note_on_c, 13, 73, 0
14, 65797, Note_on_c, 13, 72, 91
14, 65799, Note_on_c, 13, 60, 61
14, 65800, Note_on_c, 13, 68, 48
14, 65807, Control_c, 13, 64, 24
14, 65809, Note_on_c, 13, 56, 32
14, 65809, Note_on_c, 13, 44, 44
14, 65811, Control_c, 13, 64, 0
14, 65830, Note_on_c, 13, 68, 0
14, 65839, Control_c, 13, 64, 127
14, 65840, Note_on_c, 13, 44, 0
14, 65842, Note_on_c, 13, 56, 0
14, 65869, Note_on_c, 13, 63, 70
14, 65870, Note_on_c, 13, 60, 0
14, 65879, Note_on_c, 13, 72, 0
14, 65885, Note_on_c, 13, 63, 0
14, 65939, Note_on_c, 13, 80, 94
14, 65946, Note_on_c, 13, 72, 68
14, 65950, Note_on_c, 13, 56, 35
14, 65950, Note_on_c, 13, 63, 40
14, 66005, Note_on_c, 13, 72, 0
14, 66011, Note_on_c, 13, 63, 0
14, 66011, Note_on_c, 13, 68, 65
14, 66018, Note_on_c, 13, 56, 0
14, 66019, Note_on_c, 13, 65, 47
14, 66026, Note_on_c, 13, 80, 0
14, 66034, Note_on_c, 13, 68, 0
14, 66043, Note_on_c, 13, 65, 0
14, 66080, Note_on_c, 13, 79, 86
14, 66081, Control_c, 13, 64, 88
14, 66084, Note_on_c, 13, 67, 66
14, 66084, Note_on_c, 13, 75, 63
14, 66085, Control_c, 13, 64, 0
14, 66086, Note_on_c, 13, 63, 35
14, 66089, Note_on_c, 13, 58, 34
14, 66109, Control_c, 13, 64, 88
14, 66112, Control_c, 13, 64, 127
14, 66122, Note_on_c, 13, 75, 0
14, 66132, Note_on_c, 13, 63, 0
14, 66138, Note_on_c, 13, 79, 0
14, 66142, Note_on_c, 13, 58, 0
14, 66147, Note_on_c, 13, 70, 63
14, 66168, Note_on_c, 13, 70, 0
14, 66169, Note_on_c, 13, 67, 0
14, 66180, Note_on_c, 13, 79, 84
14, 66203, Note_on_c, 13, 79, 0
14, 66213, Note_on_c, 13, 77, 81
14, 66217, Note_on_c, 13, 74, 53
14, 66218, Control_c, 13, 64, 24
14, 66219, Note_on_c, 13, 68, 33
14, 66222, Control_c, 13, 64, 0
14, 66223, Note_on_c, 13, 46, 44
14, 66229, Note_on_c, 13, 74, 0
14, 66246, Control_c, 13, 64, 88
14, 66250, Control_c, 13, 64, 127
14, 66265, Note_on_c, 13, 46, 0
14, 66283, Note_on_c, 13, 68, 0
14, 66288, Note_on_c, 13, 70, 67
14, 66289, Note_on_c, 13, 77, 0
14, 66308, Note_on_c, 13, 70, 0
14, 66323, Note_on_c, 13, 75, 74
14, 66344, Note_on_c, 13, 75, 0
14, 66362, Note_on_c, 13, 75, 76
14, 66369, Note_on_c, 13, 67, 46
14, 66373, Note_on_c, 13, 63, 40
14, 66376, Note_on_c, 13, 51, 31
14, 66387, Control_c, 13, 64, 104
14, 66391, Control_c, 13, 64, 24
14, 66396, Control_c, 13, 64, 0
14, 66425, Note_on_c, 13, 67, 0
14, 66428, Control_c, 13, 64, 104
14, 66432, Control_c, 13, 64, 127
14, 66435, Note_on_c, 13, 70, 54
14, 66463, Note_on_c, 13, 63, 0
14, 66472, Note_on_c, 13, 51, 0
14, 66492, Note_on_c, 13, 70, 0
14, 66498, Note_on_c, 13, 75, 0
14, 66507, Note_on_c, 13, 67, 55
14, 66582, Note_on_c, 13, 67, 0
14, 66592, Note_on_c, 13, 76, 77
14, 66594, Note_on_c, 13, 70, 54
14, 66620, Note_on_c, 13, 70, 0
14, 66643, Note_on_c, 13, 76, 0
14, 66687, Note_on_c, 13, 77, 81
14, 66689, Note_on_c, 13, 75, 57
14, 66692, Control_c, 13, 64, 72
14, 66693, Note_on_c, 13, 72, 64
14, 66696, Control_c, 13, 64, 0
14, 66704, Note_on_c, 13, 45, 48
14, 66724, Control_c, 13, 64, 127
14, 66743, Note_on_c, 13, 72, 0
14, 66750, Note_on_c, 13, 75, 0
14, 66759, Note_on_c, 13, 45, 0
14, 66759, Note_on_c, 13, 65, 66
14, 66768, Note_on_c, 13, 53, 43
14, 66792, Note_on_c, 13, 77, 0
14, 66815, Note_on_c, 13, 65, 0
14, 66817, Note_on_c, 13, 53, 0
14, 66823, Note_on_c, 13, 78, 84
14, 66824, Note_on_c, 13, 75, 74
14, 66828, Note_on_c, 13, 72, 66
14, 66833, Note_on_c, 13, 60, 61
14, 66861, Note_on_c, 13, 60, 0
14, 66874, Note_on_c, 13, 75, 0
14, 66876, Note_on_c, 13, 78, 0
14, 66886, Note_on_c, 13, 72, 0
14, 66894, Note_on_c, 13, 65, 76
14, 66897, Note_on_c, 13, 45, 65
14, 66923, Note_on_c, 13, 65, 0
14, 66927, Note_on_c, 13, 77, 98
14, 66939, Note_on_c, 13, 45, 0
14, 66946, Note_on_c, 13, 77, 0
14, 66964, Note_on_c, 13, 77, 90
14, 66968, Note_on_c, 13, 73, 60
14, 66969, Note_on_c, 13, 70, 61
14, 66971, Control_c, 13, 64, 56
14, 66973, Note_on_c, 13, 46, 56
14, 66975, Control_c, 13, 64, 0
14, 67003, Control_c, 13, 64, 88
14, 67007, Control_c, 13, 64, 127
14, 67020, Note_on_c, 13, 46, 0
14, 67037, Note_on_c, 13, 70, 0
14, 67039, Note_on_c, 13, 65, 73
14, 67051, Note_on_c, 13, 65, 0
14, 67051, Note_on_c, 13, 53, 42
14, 67053, Note_on_c, 13, 77, 0
14, 67054, Note_on_c, 13, 73, 0
14, 67107, Note_on_c, 13, 85, 86
14, 67113, Note_on_c, 13, 53, 0
14, 67113, Note_on_c, 13, 82, 60
14, 67115, Note_on_c, 13, 61, 38
14, 67116, Note_on_c, 13, 77, 44
14, 67127, Note_on_c, 13, 77, 0
14, 67127, Note_on_c, 13, 61, 0
14, 67182, Note_on_c, 13, 85, 0
14, 67184, Note_on_c, 13, 73, 60
14, 67185, Note_on_c, 13, 82, 0
14, 67189, Note_on_c, 13, 44, 44
14, 67199, Note_on_c, 13, 73, 0
14, 67218, Note_on_c, 13, 44, 0
14, 67265, Note_on_c, 13, 76, 85
14, 67268, Note_on_c, 13, 70, 56
14, 67270, Note_on_c, 13, 73, 40
14, 67274, Control_c, 13, 64, 104
14, 67278, Control_c, 13, 64, 0
14, 67284, Note_on_c, 13, 43, 43
14, 67311, Control_c, 13, 64, 72
14, 67315, Control_c, 13, 64, 127
14, 67324, Note_on_c, 13, 70, 0
14, 67335, Note_on_c, 13, 43, 0
14, 67336, Note_on_c, 13, 63, 58
14, 67344, Note_on_c, 13, 51, 42
14, 67348, Note_on_c, 13, 73, 0
14, 67373, Note_on_c, 13, 76, 0
14, 67381, Note_on_c, 13, 63, 0
14, 67381, Note_on_c, 13, 51, 0
14, 67400, Note_on_c, 13, 75, 81
14, 67403, Note_on_c, 13, 61, 47
14, 67405, Note_on_c, 13, 70, 55
14, 67405, Note_on_c, 13, 73, 49
14, 67420, Note_on_c, 13, 61, 0
14, 67431, Note_on_c, 13, 73, 0
14, 67455, Note_on_c, 13, 75, 0
14, 67459, Note_on_c, 13, 70, 0
14, 67467, Note_on_c, 13, 43, 48
14, 67468, Note_on_c, 13, 63, 60
14, 67489, Note_on_c, 13, 43, 0
14, 67492, Note_on_c, 13, 63, 0
14, 67502, Note_on_c, 13, 75, 89
14, 67523, Note_on_c, 13, 75, 0
14, 67541, Note_on_c, 13, 75, 78
14, 67543, Note_on_c, 13, 72, 71
14, 67547, Note_on_c, 13, 68, 50
14, 67554, Control_c, 13, 64, 88
14, 67557, Note_on_c, 13, 44, 40
14, 67558, Control_c, 13, 64, 0
14, 67602, Control_c, 13, 64, 127
14, 67610, Note_on_c, 13, 44, 0
14, 67616, Note_on_c, 13, 63, 56
14, 67618, Note_on_c, 13, 68, 0
14, 67627, Note_on_c, 13, 51, 48
14, 67628, Note_on_c, 13, 75, 0
14, 67632, Note_on_c, 13, 63, 0
14, 67633, Note_on_c, 13, 72, 0
14, 67688, Note_on_c, 13, 51, 0
14, 67695, Note_on_c, 13, 80, 71
14, 67699, Note_on_c, 13, 75, 51
14, 67702, Note_on_c, 13, 56, 40
14, 67704, Note_on_c, 13, 72, 43
14, 67755, Note_on_c, 13, 80, 0
14, 67758, Note_on_c, 13, 72, 0
14, 67759, Note_on_c, 13, 75, 0
14, 67765, Note_on_c, 13, 56, 0
14, 67765, Note_on_c, 13, 68, 51
14, 67777, Note_on_c, 13, 60, 45
14, 67781, Note_on_c, 13, 68, 0
14, 67820, Note_on_c, 13, 70, 60
14, 67834, Note_on_c, 13, 70, 0
14, 67837, Note_on_c, 13, 60, 0
14, 67838, Note_on_c, 13, 72, 77
14, 67840, Control_c, 13, 64, 104
14, 67844, Control_c, 13, 64, 24
14, 67848, Control_c, 13, 64, 0
14, 67852, Note_on_c, 13, 67, 43
14, 67856, Note_on_c, 13, 49, 44
14, 67857, Note_on_c, 13, 70, 73
14, 67866, Note_on_c, 13, 72, 0
14, 67877, Control_c, 13, 64, 88
14, 67881, Control_c, 13, 64, 127
14, 67889, Note_on_c, 13, 67, 0
14, 67903, Note_on_c, 13, 70, 0
14, 67910, Note_on_c, 13, 69, 87
14, 67918, Note_on_c, 13, 49, 0
14, 67934, Note_on_c, 13, 55, 34
14, 67939, Note_on_c, 13, 69, 0
14, 67945, Note_on_c, 13, 70, 77
14, 67968, Note_on_c, 13, 70, 0
14, 67985, Note_on_c, 13, 71, 81
14, 67994, Note_on_c, 13, 63, 37
14, 68011, Note_on_c, 13, 71, 0
14, 68022, Note_on_c, 13, 72, 89
14, 68047, Note_on_c, 13, 72, 0
14, 68051, Note_on_c, 13, 55, 0
14, 68058, Note_on_c, 13, 73, 84
14, 68063, Note_on_c, 13, 58, 36
14, 68068, Note_on_c, 13, 63, 0
14, 68080, Note_on_c, 13, 58, 0
14, 68084, Note_on_c, 13, 73, 0
14, 68092, Note_on_c, 13, 74, 86
14, 68112, Note_on_c, 13, 74, 0
14, 68142, Note_on_c, 13, 68, 67
14, 68143, Note_on_c, 13, 77, 88
14, 68143, Control_c, 13, 64, 0
14, 68146, Note_on_c, 13, 48, 53
14, 68171, Control_c, 13, 64, 127
14, 68179, Note_on_c, 13, 77, 0
14, 68191, Note_on_c, 13, 75, 81
14, 68196, Note_on_c, 13, 48, 0
14, 68219, Note_on_c, 13, 51, 44
14, 68221, Note_on_c, 13, 75, 0
14, 68233, Note_on_c, 13, 77, 82
14, 68257, Note_on_c, 13, 77, 0
14, 68277, Note_on_c, 13, 75, 81
14, 68290, Note_on_c, 13, 63, 45
14, 68312, Note_on_c, 13, 75, 0
14, 68323, Note_on_c, 13, 73, 74
14, 68329, Note_on_c, 13, 68, 0
14, 68338, Note_on_c, 13, 51, 0
14, 68347, Note_on_c, 13, 63, 0
14, 68350, Note_on_c, 13, 73, 0
14, 68355, Note_on_c, 13, 56, 45
14, 68367, Note_on_c, 13, 72, 77
14, 68386, Note_on_c, 13, 72, 0
14, 68388, Note_on_c, 13, 56, 0
14, 68397, Note_on_c, 13, 70, 59
14, 68409, Note_on_c, 13, 70, 0
14, 68409, Note_on_c, 13, 67, 27
14, 68415, Note_on_c, 13, 72, 74
14, 68425, Control_c, 13, 64, 40
14, 68428, Control_c, 13, 64, 0
14, 68430, Note_on_c, 13, 70, 80
14, 68432, Note_on_c, 13, 49, 48
14, 68438, Note_on_c, 13, 72, 0
14, 68440, Note_on_c, 13, 67, 0
14, 68453, Control_c, 13, 64, 72
14, 68457, Control_c, 13, 64, 127
14, 68478, Note_on_c, 13, 70, 0
14, 68480, Note_on_c, 13, 69, 92
14, 68498, Note_on_c, 13, 49, 0
14, 68508, Note_on_c, 13, 69, 0
14, 68510, Note_on_c, 13, 55, 46
14, 68512, Note_on_c, 13, 70, 80
14, 68533, Note_on_c, 13, 70, 0
14, 68545, Note_on_c, 13, 71, 91
14, 68562, Note_on_c, 13, 55, 0
14, 68568, Note_on_c, 13, 71, 0
14, 68577, Note_on_c, 13, 72, 98
14, 68582, Note_on_c, 13, 64, 58
14, 68602, Note_on_c, 13, 72, 0
14, 68610, Note_on_c, 13, 73, 89
14, 68629, Note_on_c, 13, 64, 0
14, 68632, Note_on_c, 13, 73, 0
14, 68639, Note_on_c, 13, 74, 89
14, 68641, Note_on_c, 13, 58, 44
14, 68664, Note_on_c, 13, 74, 0
14, 68668, Note_on_c, 13, 75, 89
14, 68673, Note_on_c, 13, 58, 0
14, 68686, Note_on_c, 13, 75, 0
14, 68703, Note_on_c, 13, 71, 86
14, 68705, Note_on_c, 13, 76, 97
14, 68707, Control_c, 13, 64, 0
14, 68715, Note_on_c, 13, 50, 65
14, 68718, Note_on_c, 13, 71, 0
14, 68728, Control_c, 13, 64, 127
14, 68730, Note_on_c, 13, 76, 0
14, 68741, Note_on_c, 13, 77, 96
14, 68764, Note_on_c, 13, 50, 0
14, 68773, Note_on_c, 13, 78, 88
14, 68781, Note_on_c, 13, 77, 0
14, 68782, Note_on_c, 13, 59, 46
14, 68790, Note_on_c, 13, 78, 0
14, 68805, Note_on_c, 13, 79, 96
14, 68823, Note_on_c, 13, 79, 0
14, 68832, Note_on_c, 13, 59, 0
14, 68852, Note_on_c, 13, 65, 43
14, 68855, Note_on_c, 13, 82, 91
14, 68875, Note_on_c, 13, 82, 0
14, 68898, Note_on_c, 13, 80, 89
14, 68916, Note_on_c, 13, 80, 0
14, 68929, Note_on_c, 13, 65, 0
14, 68933, Note_on_c, 13, 79, 90
14, 68941, Note_on_c, 13, 59, 40
14, 68948, Note_on_c, 13, 59, 0
14, 68948, Note_on_c, 13, 79, 0
14, 68964, Note_on_c, 13, 77, 82
14, 68973, Note_on_c, 13, 77, 0
14, 68991, Note_on_c, 13, 77, 94
14, 69014, Control_c, 13, 64, 0
14, 69030, Note_on_c, 13, 39, 44
14, 69032, Note_on_c, 13, 77, 0
14, 69037, Note_on_c, 13, 89, 101
14, 69051, Control_c, 13, 64, 127
14, 69057, Note_on_c, 13, 89, 0
14, 69059, Note_on_c, 13, 39, 0
14, 69103, Note_on_c, 13, 74, 77
14, 69121, Note_on_c, 13, 74, 0
14, 69137, Note_on_c, 13, 75, 85
14, 69144, Note_on_c, 13, 68, 51
14, 69149, Note_on_c, 13, 60, 48
14, 69153, Note_on_c, 13, 75, 0
14, 69161, Note_on_c, 13, 60, 0
14, 69163, Note_on_c, 13, 68, 0
14, 69170, Note_on_c, 13, 87, 89
14, 69191, Note_on_c, 13, 87, 0
14, 69205, Note_on_c, 13, 85, 90
14, 69209, Note_on_c, 13, 68, 51
14, 69212, Note_on_c, 13, 60, 58
14, 69223, Note_on_c, 13, 60, 0
14, 69223, Note_on_c, 13, 68, 0
14, 69230, Note_on_c, 13, 85, 0
14, 69238, Note_on_c, 13, 80, 85
14, 69260, Note_on_c, 13, 80, 0
14, 69270, Note_on_c, 13, 72, 81
14, 69287, Note_on_c, 13, 72, 0
14, 69305, Note_on_c, 13, 84, 91
14, 69329, Control_c, 13, 64, 0
14, 69333, Note_on_c, 13, 84, 0
14, 69343, Note_on_c, 13, 82, 90
14, 69343, Note_on_c, 13, 38, 57
14, 69360, Note_on_c, 13, 38, 0
14, 69361, Control_c, 13, 64, 127
14, 69366, Note_on_c, 13, 82, 0
14, 69383, Note_on_c, 13, 70, 72
14, 69403, Note_on_c, 13, 70, 0
14, 69417, Note_on_c, 13, 71, 70
14, 69429, Note_on_c, 13, 65, 40
14, 69430, Note_on_c, 13, 71, 0
14, 69434, Note_on_c, 13, 59, 38
14, 69442, Note_on_c, 13, 65, 0
14, 69445, Note_on_c, 13, 59, 0
14, 69445, Note_on_c, 13, 80, 84
14, 69469, Note_on_c, 13, 80, 0
14, 69484, Note_on_c, 13, 79, 86
14, 69492, Note_on_c, 13, 65, 45
14, 69492, Note_on_c, 13, 59, 49
14, 69502, Note_on_c, 13, 65, 0
14, 69505, Note_on_c, 13, 59, 0
14, 69517, Note_on_c, 13, 79, 0
14, 69527, Note_on_c, 13, 74, 73
14, 69552, Note_on_c, 13, 74, 0
14, 69560, Note_on_c, 13, 68, 63
14, 69579, Note_on_c, 13, 68, 0
14, 69588, Note_on_c, 13, 77, 91
14, 69605, Note_on_c, 13, 77, 0
14, 69638, Note_on_c, 13, 77, 86
14, 69641, Note_on_c, 13, 72, 72
14, 69648, Control_c, 13, 64, 40
14, 69652, Control_c, 13, 64, 0
14, 69652, Note_on_c, 13, 39, 39
14, 69674, Note_on_c, 13, 77, 0
14, 69675, Control_c, 13, 64, 127
14, 69685, Note_on_c, 13, 39, 0
14, 69685, Note_on_c, 13, 72, 0
14, 69692, Note_on_c, 13, 63, 68
14, 69724, Note_on_c, 13, 63, 0
14, 69733, Note_on_c, 13, 70, 76
14, 69737, Note_on_c, 13, 61, 48
14, 69770, Note_on_c, 13, 70, 0
14, 69770, Note_on_c, 13, 75, 75
14, 69812, Note_on_c, 13, 60, 65
14, 69813, Note_on_c, 13, 68, 68
14, 69817, Control_c, 13, 64, 88
14, 69820, Control_c, 13, 64, 0
14, 69822, Note_on_c, 13, 61, 0
14, 69849, Control_c, 13, 64, 72
14, 69853, Control_c, 13, 64, 127
14, 69867, Note_on_c, 13, 60, 0
14, 69889, Note_on_c, 13, 51, 50
14, 69959, Note_on_c, 13, 63, 45
14, 69961, Note_on_c, 13, 75, 0
14, 69964, Note_on_c, 13, 60, 42
14, 69966, Note_on_c, 13, 51, 0
14, 69977, Note_on_c, 13, 68, 0
14, 69991, Note_on_c, 13, 63, 0
14, 70027, Note_on_c, 13, 68, 60
14, 70029, Note_on_c, 13, 63, 42
14, 70035, Note_on_c, 13, 51, 44
14, 70045, Note_on_c, 13, 68, 0
14, 70049, Note_on_c, 13, 70, 68
14, 70071, Note_on_c, 13, 68, 68
14, 70075, Note_on_c, 13, 70, 0
14, 70093, Note_on_c, 13, 68, 0
14, 70097, Note_on_c, 13, 67, 71
14, 70112, Note_on_c, 13, 67, 0
14, 70115, Note_on_c, 13, 68, 81
14, 70128, Note_on_c, 13, 63, 0
14, 70133, Note_on_c, 13, 51, 0
14, 70133, Note_on_c, 13, 60, 0
14, 70140, Note_on_c, 13, 68, 0
14, 70144, Note_on_c, 13, 67, 37
14, 70144, Control_c, 13, 64, 40
14, 70146, Note_on_c, 13, 52, 43
14, 70148, Control_c, 13, 64, 0
14, 70149, Note_on_c, 13, 72, 84
14, 70155, Note_on_c, 13, 61, 27
14, 70180, Control_c, 13, 64, 127
14, 70231, Note_on_c, 13, 58, 36
14, 70240, Note_on_c, 13, 72, 0
14, 70242, Note_on_c, 13, 67, 0
14, 70246, Note_on_c, 13, 52, 0
14, 70250, Note_on_c, 13, 58, 0
14, 70268, Note_on_c, 13, 70, 75
14, 70269, Note_on_c, 13, 61, 0
14, 70295, Note_on_c, 13, 70, 0
14, 70316, Note_on_c, 13, 60, 67
14, 70331, Note_on_c, 13, 65, 49
14, 70343, Note_on_c, 13, 41, 38
14, 70345, Control_c, 13, 64, 88
14, 70350, Note_on_c, 13, 70, 74
14, 70350, Control_c, 13, 64, 0
14, 70378, Control_c, 13, 64, 56
14, 70382, Control_c, 13, 64, 127
14, 70393, Note_on_c, 13, 60, 0
14, 70420, Note_on_c, 13, 48, 57
14, 70428, Note_on_c, 13, 41, 0
14, 70439, Note_on_c, 13, 48, 0
14, 70490, Note_on_c, 13, 60, 53
14, 70494, Note_on_c, 13, 65, 0
14, 70548, Note_on_c, 13, 70, 0
14, 70560, Note_on_c, 13, 60, 0
14, 70562, Note_on_c, 13, 68, 68
14, 70567, Note_on_c, 13, 48, 57
14, 70573, Note_on_c, 13, 62, 44
14, 70581, Note_on_c, 13, 62, 0
14, 70587, Note_on_c, 13, 68, 0
14, 70590, Note_on_c, 13, 48, 0
14, 70655, Control_c, 13, 64, 88
14, 70655, Note_on_c, 13, 67, 63
14, 70659, Control_c, 13, 64, 0
14, 70660, Note_on_c, 13, 63, 48
14, 70676, Note_on_c, 13, 43, 40
14, 70690, Note_on_c, 13, 63, 0
14, 70690, Note_on_c, 13, 67, 0
14, 70695, Control_c, 13, 64, 127
14, 70705, Note_on_c, 13, 55, 69
14, 70719, Note_on_c, 13, 55, 0
14, 70741, Note_on_c, 13, 60, 76
14, 70748, Note_on_c, 13, 43, 0
14, 70750, Note_on_c, 13, 48, 44
14, 70760, Note_on_c, 13, 60, 0
14, 70769, Note_on_c, 13, 48, 0
14, 70774, Note_on_c, 13, 63, 72
14, 70804, Note_on_c, 13, 66, 72
14, 70815, Note_on_c, 13, 63, 0
14, 70821, Note_on_c, 13, 66, 0
14, 70829, Note_on_c, 13, 60, 45
14, 70835, Note_on_c, 13, 67, 90
14, 70855, Note_on_c, 13, 67, 0
14, 70866, Note_on_c, 13, 72, 93
14, 70873, Note_on_c, 13, 60, 0
14, 70892, Note_on_c, 13, 72, 0
14, 70897, Note_on_c, 13, 75, 93
14, 70906, Note_on_c, 13, 48, 45
14, 70916, Note_on_c, 13, 48, 0
14, 70926, Note_on_c, 13, 78, 84
14, 70939, Note_on_c, 13, 75, 0
14, 70956, Note_on_c, 13, 78, 0
14, 70957, Note_on_c, 13, 79, 94
14, 70976, Note_on_c, 13, 79, 0
14, 70989, Note_on_c, 13, 79, 101
14, 70993, Note_on_c, 13, 67, 73
14, 70994, Note_on_c, 13, 72, 86
14, 71009, Note_on_c, 13, 44, 42
14, 71010, Control_c, 13, 64, 24
14, 71014, Control_c, 13, 64, 0
14, 71046, Control_c, 13, 64, 72
14, 71051, Control_c, 13, 64, 127
14, 71094, Note_on_c, 13, 48, 35
14, 71100, Note_on_c, 13, 44, 0
14, 71109, Note_on_c, 13, 48, 0
14, 71168, Note_on_c, 13, 60, 48
14, 71181, Note_on_c, 13, 67, 0
14, 71182, Note_on_c, 13, 79, 0
14, 71227, Note_on_c, 13, 60, 0
14, 71243, Note_on_c, 13, 77, 90
14, 71243, Note_on_c, 13, 48, 46
14, 71244, Note_on_c, 13, 65, 63
14, 71255, Note_on_c, 13, 48, 0
14, 71272, Note_on_c, 13, 65, 0
14, 71300, Note_on_c, 13, 77, 0
14, 71319, Note_on_c, 13, 72, 0
14, 71334, Note_on_c, 13, 75, 84
14, 71342, Note_on_c, 13, 63, 57
14, 71349, Control_c, 13, 64, 104
14, 71351, Note_on_c, 13, 43, 42
14, 71353, Control_c, 13, 64, 0
14, 71389, Control_c, 13, 64, 56
14, 71391, Note_on_c, 13, 63, 0
14, 71393, Control_c, 13, 64, 127
14, 71413, Note_on_c, 13, 75, 0
14, 71429, Note_on_c, 13, 43, 0
14, 71430, Note_on_c, 13, 48, 40
14, 71452, Note_on_c, 13, 48, 0
14, 71485, Note_on_c, 13, 75, 70
14, 71509, Note_on_c, 13, 87, 101
14, 71513, Note_on_c, 13, 60, 54
14, 71565, Note_on_c, 13, 75, 0
14, 71596, Note_on_c, 13, 48, 57
14, 71603, Note_on_c, 13, 60, 0
14, 71616, Note_on_c, 13, 48, 0
14, 71638, Note_on_c, 13, 87, 0
14, 71680, Control_c, 13, 64, 72
14, 71684, Control_c, 13, 64, 0
14, 71686, Note_on_c, 13, 86, 97
14, 71691, Note_on_c, 13, 41, 69
14, 71701, Note_on_c, 13, 41, 0
14, 71708, Control_c, 13, 64, 72
14, 71712, Control_c, 13, 64, 127
14, 71729, Note_on_c, 13, 86, 0
14, 71729, Note_on_c, 13, 87, 82
14, 71752, Note_on_c, 13, 87, 0
14, 71754, Note_on_c, 13, 86, 88
14, 71770, Note_on_c, 13, 86, 0
14, 71774, Note_on_c, 13, 87, 84
14, 71783, Note_on_c, 13, 60, 68
14, 71783, Note_on_c, 13, 50, 64
14, 71785, Note_on_c, 13, 56, 46
14, 71787, Note_on_c, 13, 86, 89
14, 71790, Note_on_c, 13, 50, 0
14, 71793, Note_on_c, 13, 56, 0
14, 71799, Note_on_c, 13, 87, 0
14, 71800, Note_on_c, 13, 60, 0
14, 71825, Note_on_c, 13, 84, 97
14, 71827, Note_on_c, 13, 86, 0
14, 71862, Note_on_c, 13, 84, 0
14, 71869, Note_on_c, 13, 86, 97
14, 71875, Note_on_c, 13, 65, 51
14, 71880, Note_on_c, 13, 60, 45
14, 71889, Note_on_c, 13, 60, 0
14, 71895, Note_on_c, 13, 65, 0
14, 71905, Note_on_c, 13, 86, 0
14, 71911, Note_on_c, 13, 87, 89
14, 71955, Note_on_c, 13, 87, 0
14, 71957, Note_on_c, 13, 89, 94
14, 71961, Note_on_c, 13, 65, 52
14, 71961, Note_on_c, 13, 72, 56
14, 71962, Note_on_c, 13, 62, 58
14, 71969, Note_on_c, 13, 72, 0
14, 71976, Note_on_c, 13, 62, 0
14, 71978, Note_on_c, 13, 65, 0
14, 71994, Note_on_c, 13, 89, 0
14, 71998, Note_on_c, 13, 84, 91
14, 72020, Note_on_c, 13, 84, 0
14, 72050, Note_on_c, 13, 84, 88
14, 72055, Control_c, 13, 64, 56
14, 72059, Control_c, 13, 64, 0
14, 72059, Note_on_c, 13, 43, 80
14, 72075, Control_c, 13, 64, 24
14, 72079, Control_c, 13, 64, 104
14, 72083, Control_c, 13, 64, 127
14, 72085, Note_on_c, 13, 83, 88
14, 72086, Note_on_c, 13, 43, 0
14, 72088, Note_on_c, 13, 84, 0
14, 72110, Note_on_c, 13, 83, 0
14, 72117, Note_on_c, 13, 86, 84
14, 72134, Note_on_c, 13, 86, 0
14, 72150, Note_on_c, 13, 80, 81
14, 72158, Note_on_c, 13, 80, 0
14, 72171, Note_on_c, 13, 50, 66
14, 72171, Note_on_c, 13, 80, 85
14, 72173, Note_on_c, 13, 59, 58
14, 72173, Note_on_c, 13, 53, 63
14, 72179, Note_on_c, 13, 50, 0
14, 72181, Note_on_c, 13, 53, 0
14, 72182, Note_on_c, 13, 59, 0
14, 72201, Note_on_c, 13, 79, 90
14, 72209, Note_on_c, 13, 80, 0
14, 72221, Note_on_c, 13, 79, 0
14, 72225, Note_on_c, 13, 83, 86
14, 72246, Note_on_c, 13, 83, 0
14, 72253, Note_on_c, 13, 78, 86
14, 72266, Note_on_c, 13, 78, 0
14, 72279, Note_on_c, 13, 78, 84
14, 72281, Note_on_c, 13, 62, 56
14, 72282, Note_on_c, 13, 59, 53
14, 72282, Note_on_c, 13, 53, 53
14, 72291, Note_on_c, 13, 53, 0
14, 72291, Note_on_c, 13, 59, 0
14, 72305, Note_on_c, 13, 62, 0
14, 72308, Note_on_c, 13, 78, 0
14, 72310, Note_on_c, 13, 77, 94
14, 72329, Note_on_c, 13, 77, 0
14, 72335, Note_on_c, 13, 80, 80
14, 72359, Note_on_c, 13, 75, 79
14, 72373, Note_on_c, 13, 80, 0
14, 72390, Note_on_c, 13, 74, 80
14, 72398, Note_on_c, 13, 59, 55
14, 72399, Note_on_c, 13, 65, 63
14, 72409, Note_on_c, 13, 75, 0
14, 72415, Note_on_c, 13, 74, 0
14, 72418, Note_on_c, 13, 65, 0
14, 72419, Note_on_c, 13, 72, 86
14, 72424, Note_on_c, 13, 59, 0
14, 72439, Note_on_c, 13, 72, 0
14, 72448, Note_on_c, 13, 71, 86
14, 72476, Note_on_c, 13, 68, 77
14, 72479, Note_on_c, 13, 71, 0
14, 72506, Note_on_c, 13, 67, 89
14, 72512, Note_on_c, 13, 68, 0
14, 72529, Note_on_c, 13, 67, 0
14, 72533, Note_on_c, 13, 65, 91
14, 72552, Note_on_c, 13, 65, 0
14, 72565, Note_on_c, 13, 65, 90
14, 72589, Note_on_c, 13, 44, 49
14, 72591, Control_c, 13, 64, 72
14, 72595, Control_c, 13, 64, 0
14, 72634, Note_on_c, 13, 44, 0
14, 72635, Control_c, 13, 64, 127
14, 72677, Note_on_c, 13, 60, 56
14, 72680, Note_on_c, 13, 51, 34
14, 72699, Note_on_c, 13, 51, 0
14, 72699, Note_on_c, 13, 60, 0
14, 72769, Note_on_c, 13, 60, 37
14, 72773, Note_on_c, 13, 51, 36
14, 72797, Note_on_c, 13, 51, 0
14, 72797, Note_on_c, 13, 60, 0
14, 72854, Note_on_c, 13, 63, 72
14, 72858, Note_on_c, 13, 65, 0
14, 72860, Note_on_c, 13, 60, 42
14, 72864, Note_on_c, 13, 51, 46
14, 72880, Note_on_c, 13, 60, 0
14, 72891, Note_on_c, 13, 51, 0
14, 72918, Note_on_c, 13, 63, 0
14, 72956, Note_on_c, 13, 62, 67
14, 72963, Control_c, 13, 64, 56
14, 72967, Control_c, 13, 64, 0
14, 72970, Note_on_c, 13, 47, 40
14, 72982, Note_on_c, 13, 62, 0
14, 72988, Note_on_c, 13, 63, 63
14, 72999, Control_c, 13, 64, 72
14, 73003, Control_c, 13, 64, 127
14, 73009, Note_on_c, 13, 63, 0
14, 73011, Note_on_c, 13, 62, 63
14, 73032, Note_on_c, 13, 62, 0
14, 73036, Note_on_c, 13, 61, 53
14, 73046, Note_on_c, 13, 47, 0
14, 73063, Note_on_c, 13, 61, 0
14, 73063, Note_on_c, 13, 62, 70
14, 73071, Control_c, 13, 64, 56
14, 73073, Note_on_c, 13, 56, 27
14, 73073, Note_on_c, 13, 53, 29
14, 73075, Control_c, 13, 64, 0
14, 73085, Note_on_c, 13, 62, 0
14, 73088, Note_on_c, 13, 63, 66
14, 73088, Control_c, 13, 64, 56
14, 73092, Control_c, 13, 64, 127
14, 73104, Note_on_c, 13, 53, 0
14, 73105, Note_on_c, 13, 63, 0
14, 73113, Note_on_c, 13, 56, 0
14, 73115, Note_on_c, 13, 65, 77
14, 73135, Note_on_c, 13, 65, 0
14, 73142, Note_on_c, 13, 67, 58
14, 73165, Note_on_c, 13, 67, 0
14, 73165, Note_on_c, 13, 69, 70
14, 73189, Note_on_c, 13, 71, 72
14, 73197, Control_c, 13, 64, 56
14, 73201, Control_c, 13, 64, 0
14, 73202, Note_on_c, 13, 62, 36
14, 73203, Note_on_c, 13, 53, 37
14, 73203, Note_on_c, 13, 56, 36
14, 73217, Note_on_c, 13, 69, 0
14, 73217, Control_c, 13, 64, 88
14, 73218, Note_on_c, 13, 73, 73
14, 73221, Control_c, 13, 64, 127
14, 73227, Note_on_c, 13, 71, 0
14, 73235, Note_on_c, 13, 53, 0
14, 73235, Note_on_c, 13, 73, 0
14, 73235, Note_on_c, 13, 62, 0
14, 73248, Note_on_c, 13, 56, 0
14, 73248, Note_on_c, 13, 74, 80
14, 73268, Note_on_c, 13, 74, 0
14, 73269, Note_on_c, 13, 75, 75
14, 73299, Note_on_c, 13, 79, 81
14, 73300, Note_on_c, 13, 75, 0
14, 73312, Note_on_c, 13, 53, 38
14, 73314, Note_on_c, 13, 62, 36
14, 73318, Note_on_c, 13, 56, 27
14, 73328, Note_on_c, 13, 79, 0
14, 73328, Note_on_c, 13, 77, 87
14, 73337, Note_on_c, 13, 62, 0
14, 73343, Note_on_c, 13, 53, 0
14, 73345, Note_on_c, 13, 56, 0
14, 73355, Note_on_c, 13, 77, 0
14, 73359, Note_on_c, 13, 71, 79
14, 73391, Note_on_c, 13, 75, 80
14, 73393, Note_on_c, 13, 71, 0
14, 73418, Note_on_c, 13, 75, 0
14, 73421, Note_on_c, 13, 74, 84
14, 73442, Note_on_c, 13, 74, 0
14, 73457, Note_on_c, 13, 74, 87
14, 73467, Note_on_c, 13, 48, 43
14, 73487, Control_c, 13, 64, 24
14, 73491, Control_c, 13, 64, 0
14, 73519, Note_on_c, 13, 48, 0
14, 73519, Control_c, 13, 64, 127
14, 73567, Note_on_c, 13, 62, 35
14, 73571, Note_on_c, 13, 51, 31
14, 73573, Note_on_c, 13, 55, 34
14, 73593, Note_on_c, 13, 55, 0
14, 73594, Note_on_c, 13, 51, 0
14, 73594, Note_on_c, 13, 62, 0
14, 73656, Note_on_c, 13, 62, 36
14, 73659, Note_on_c, 13, 55, 34
14, 73659, Note_on_c, 13, 51, 32
14, 73680, Note_on_c, 13, 62, 0
14, 73681, Note_on_c, 13, 51, 0
14, 73681, Note_on_c, 13, 55, 0
14, 73744, Note_on_c, 13, 72, 63
14, 73751, Note_on_c, 13, 74, 0
14, 73757, Note_on_c, 13, 51, 36
14, 73757, Note_on_c, 13, 55, 31
14, 73758, Note_on_c, 13, 60, 38
14, 73765, Control_c, 13, 64, 40
14, 73769, Control_c, 13, 64, 0
14, 73786, Note_on_c, 13, 55, 0
14, 73786, Control_c, 13, 64, 24
14, 73789, Note_on_c, 13, 51, 0
14, 73790, Control_c, 13, 64, 88
14, 73794, Control_c, 13, 64, 127
14, 73797, Note_on_c, 13, 72, 0
14, 73798, Note_on_c, 13, 60, 0
14, 73856, Note_on_c, 13, 73, 68
14, 73859, Note_on_c, 13, 53, 52
14, 73866, Control_c, 13, 64, 72
14, 73871, Control_c, 13, 64, 0
14, 73899, Control_c, 13, 64, 104
14, 73903, Control_c, 13, 64, 127
14, 73924, Note_on_c, 13, 73, 0
14, 73945, Note_on_c, 13, 68, 64
14, 73951, Note_on_c, 13, 56, 40
14, 73953, Note_on_c, 13, 61, 35
14, 73968, Note_on_c, 13, 68, 0
14, 73975, Note_on_c, 13, 61, 0
14, 73976, Note_on_c, 13, 56, 0
14, 73976, Note_on_c, 13, 70, 72
14, 74001, Note_on_c, 13, 68, 77
14, 74003, Note_on_c, 13, 70, 0
14, 74030, Note_on_c, 13, 68, 0
14, 74032, Note_on_c, 13, 67, 79
14, 74054, Note_on_c, 13, 61, 36
14, 74055, Note_on_c, 13, 56, 34
14, 74057, Note_on_c, 13, 68, 79
14, 74065, Note_on_c, 13, 67, 0
14, 74075, Note_on_c, 13, 61, 0
14, 74081, Note_on_c, 13, 70, 80
14, 74083, Note_on_c, 13, 56, 0
14, 74086, Note_on_c, 13, 68, 0
14, 74098, Note_on_c, 13, 70, 0
14, 74107, Note_on_c, 13, 72, 84
14, 74109, Note_on_c, 13, 53, 0
14, 74128, Note_on_c, 13, 56, 46
14, 74130, Note_on_c, 13, 61, 38
14, 74134, Note_on_c, 13, 73, 79
14, 74136, Note_on_c, 13, 72, 0
14, 74151, Note_on_c, 13, 56, 0
14, 74158, Note_on_c, 13, 75, 80
14, 74165, Note_on_c, 13, 73, 0
14, 74178, Note_on_c, 13, 61, 0
14, 74186, Note_on_c, 13, 75, 0
14, 74190, Note_on_c, 13, 77, 80
14, 74204, Note_on_c, 13, 77, 0
14, 74221, Note_on_c, 13, 77, 96
14, 74229, Note_on_c, 13, 55, 60
14, 74238, Control_c, 13, 64, 104
14, 74242, Control_c, 13, 64, 24
14, 74246, Control_c, 13, 64, 0
14, 74274, Control_c, 13, 64, 104
14, 74277, Control_c, 13, 64, 127
14, 74309, Note_on_c, 13, 55, 0
14, 74310, Note_on_c, 13, 58, 39
14, 74311, Note_on_c, 13, 64, 58
14, 74312, Note_on_c, 13, 61, 40
14, 74320, Note_on_c, 13, 61, 0
14, 74320, Note_on_c, 13, 64, 0
14, 74325, Note_on_c, 13, 58, 0
14, 74337, Note_on_c, 13, 77, 0
14, 74347, Note_on_c, 13, 76, 94
14, 74375, Note_on_c, 13, 76, 0
14, 74387, Note_on_c, 13, 79, 105
14, 74394, Note_on_c, 13, 56, 71
14, 74399, Control_c, 13, 64, 72
14, 74403, Control_c, 13, 64, 0
14, 74427, Control_c, 13, 64, 56
14, 74431, Control_c, 13, 64, 127
14, 74471, Note_on_c, 13, 65, 66
14, 74473, Note_on_c, 13, 60, 59
14, 74480, Note_on_c, 13, 65, 0
14, 74481, Note_on_c, 13, 56, 0
14, 74482, Note_on_c, 13, 60, 0
14, 74487, Note_on_c, 13, 79, 0
14, 74507, Note_on_c, 13, 77, 101
14, 74540, Note_on_c, 13, 77, 0
14, 74556, Control_c, 13, 64, 88
14, 74559, Note_on_c, 13, 80, 102
14, 74560, Control_c, 13, 64, 0
14, 74567, Note_on_c, 13, 53, 85
14, 74589, Control_c, 13, 64, 127
14, 74590, Note_on_c, 13, 53, 0
14, 74599, Note_on_c, 13, 80, 0
14, 74600, Note_on_c, 13, 81, 52
14, 74608, Note_on_c, 13, 81, 0
14, 74641, Note_on_c, 13, 80, 96
14, 74699, Note_on_c, 13, 96, 110
14, 74703, Note_on_c, 13, 68, 71
14, 74705, Note_on_c, 13, 62, 65
14, 74707, Note_on_c, 13, 60, 58
14, 74825, Note_on_c, 13, 62, 0
14, 74827, Note_on_c, 13, 60, 0
14, 74840, Note_on_c, 13, 68, 0
14, 74848, Note_on_c, 13, 96, 0
14, 74928, Note_on_c, 13, 80, 0
14, 74928, Note_on_c, 13, 92, 81
14, 74971, Note_on_c, 13, 92, 0
14, 74982, Note_on_c, 13, 89, 78
14, 75013, Note_on_c, 13, 89, 0
14, 75019, Note_on_c, 13, 86, 74
14, 75049, Note_on_c, 13, 86, 0
14, 75053, Note_on_c, 13, 87, 75
14, 75081, Note_on_c, 13, 87, 0
14, 75088, Note_on_c, 13, 88, 85
14, 75115, Note_on_c, 13, 88, 0
14, 75133, Note_on_c, 13, 91, 86
14, 75172, Note_on_c, 13, 91, 0
14, 75182, Note_on_c, 13, 89, 80
14, 75214, Note_on_c, 13, 89, 0
14, 75215, Note_on_c, 13, 87, 81
14, 75247, Note_on_c, 13, 87, 0
14, 75247, Note_on_c, 13, 86, 77
14, 75274, Note_on_c, 13, 86, 0
14, 75284, Note_on_c, 13, 84, 71
14, 75307, Note_on_c, 13, 84, 0
14, 75319, Note_on_c, 13, 82, 67
14, 75352, Note_on_c, 13, 80, 61
14, 75354, Note_on_c, 13, 82, 0
14, 75384, Note_on_c, 13, 80, 0
14, 75387, Note_on_c, 13, 79, 76
14, 75418, Note_on_c, 13, 79, 0
14, 75428, Note_on_c, 13, 77, 66
14, 75454, Note_on_c, 13, 77, 0
14, 75460, Note_on_c, 13, 75, 60
14, 75491, Note_on_c, 13, 75, 0
14, 75506, Note_on_c, 13, 74, 57
14, 75533, Note_on_c, 13, 74, 0
14, 75544, Note_on_c, 13, 72, 61
14, 75572, Note_on_c, 13, 72, 0
14, 75588, Note_on_c, 13, 70, 56
14, 75617, Note_on_c, 13, 70, 0
14, 75631, Note_on_c, 13, 68, 55
14, 75683, Note_on_c, 13, 68, 0
14, 75687, Note_on_c, 13, 67, 51
14, 75707, Note_on_c, 13, 43, 38
14, 75726, Control_c, 13, 64, 72
14, 75730, Control_c, 13, 64, 0
14, 75766, Control_c, 13, 64, 40
14, 75770, Control_c, 13, 64, 127
14, 75801, Note_on_c, 13, 43, 0
14, 75809, Note_on_c, 13, 51, 45
14, 75825, Note_on_c, 13, 51, 0
14, 75858, Note_on_c, 13, 67, 0
14, 75867, Note_on_c, 13, 79, 89
14, 75894, Note_on_c, 13, 60, 45
14, 75894, Note_on_c, 13, 67, 59
14, 75982, Note_on_c, 13, 60, 0
14, 75988, Note_on_c, 13, 79, 0
14, 75989, Note_on_c, 13, 55, 39
14, 75999, Note_on_c, 13, 55, 0
14, 76024, Note_on_c, 13, 67, 0
14, 76037, Note_on_c, 13, 77, 86
14, 76070, Note_on_c, 13, 65, 61
14, 76076, Control_c, 13, 64, 104
14, 76081, Control_c, 13, 64, 0
14, 76084, Note_on_c, 13, 44, 42
14, 76117, Control_c, 13, 64, 127
14, 76132, Note_on_c, 13, 77, 0
14, 76144, Note_on_c, 13, 65, 0
14, 76163, Note_on_c, 13, 44, 0
14, 76165, Note_on_c, 13, 48, 50
14, 76200, Note_on_c, 13, 60, 59
14, 76239, Note_on_c, 13, 72, 85
14, 76250, Note_on_c, 13, 56, 45
14, 76315, Note_on_c, 13, 60, 0
14, 76323, Note_on_c, 13, 53, 39
14, 76334, Note_on_c, 13, 72, 0
14, 76335, Note_on_c, 13, 56, 0
14, 76347, Note_on_c, 13, 48, 0
14, 76386, Note_on_c, 13, 75, 88
14, 76408, Note_on_c, 13, 53, 0
14, 76418, Note_on_c, 13, 63, 70
14, 76430, Note_on_c, 13, 43, 44
14, 76440, Control_c, 13, 64, 104
14, 76444, Control_c, 13, 64, 40
14, 76448, Control_c, 13, 64, 0
14, 76484, Control_c, 13, 64, 127
14, 76512, Note_on_c, 13, 48, 56
14, 76556, Note_on_c, 13, 43, 0
14, 76593, Note_on_c, 13, 56, 55
14, 76653, Note_on_c, 13, 56, 0
14, 76678, Note_on_c, 13, 48, 0
14, 76687, Note_on_c, 13, 55, 48
14, 76713, Note_on_c, 13, 55, 0
14, 76775, Control_c, 13, 64, 72
14, 76777, Note_on_c, 13, 43, 42
14, 76779, Control_c, 13, 64, 0
14, 76806, Control_c, 13, 64, 72
14, 76810, Control_c, 13, 64, 127
14, 76862, Note_on_c, 13, 63, 0
14, 76865, Note_on_c, 13, 43, 0
14, 76871, Note_on_c, 13, 47, 43
14, 76873, Note_on_c, 13, 75, 0
14, 76916, Note_on_c, 13, 75, 65
14, 76921, Note_on_c, 13, 63, 44
14, 76939, Note_on_c, 13, 63, 0
14, 76946, Note_on_c, 13, 75, 0
14, 76969, Note_on_c, 13, 74, 72
14, 76973, Note_on_c, 13, 62, 51
14, 76975, Note_on_c, 13, 47, 0
14, 76988, Note_on_c, 13, 55, 36
14, 77004, Control_c, 13, 64, 72
14, 77009, Control_c, 13, 64, 0
14, 77033, Control_c, 13, 64, 56
14, 77037, Control_c, 13, 64, 127
14, 77044, Note_on_c, 13, 62, 0
14, 77046, Note_on_c, 13, 74, 0
14, 77052, Note_on_c, 13, 55, 0
14, 77098, Note_on_c, 13, 53, 37
14, 77119, Note_on_c, 13, 53, 0
14, 77170, Note_on_c, 13, 72, 59
14, 77171, Note_on_c, 13, 60, 50
14, 77186, Note_on_c, 13, 72, 0
14, 77188, Note_on_c, 13, 60, 0
14, 77220, Note_on_c, 13, 72, 66
14, 77221, Note_on_c, 13, 60, 56
14, 77223, Control_c, 13, 64, 0
14, 77231, Note_on_c, 13, 36, 37
14, 77237, Note_on_c, 13, 72, 0
14, 77243, Control_c, 13, 64, 40
14, 77246, Control_c, 13, 64, 104
14, 77251, Control_c, 13, 64, 127
14, 77256, Note_on_c, 13, 60, 0
14, 77300, Note_on_c, 13, 43, 46
14, 77308, Note_on_c, 13, 36, 0
14, 77337, Note_on_c, 13, 56, 50
14, 77354, Note_on_c, 13, 56, 0
14, 77355, Note_on_c, 13, 58, 53
14, 77360, Control_c, 13, 64, 104
14, 77364, Control_c, 13, 64, 88
14, 77368, Control_c, 13, 64, 72
14, 77372, Control_c, 13, 64, 88
14, 77376, Note_on_c, 13, 58, 0
14, 77376, Control_c, 13, 64, 127
14, 77376, Note_on_c, 13, 56, 64
14, 77376, Note_on_c, 13, 51, 52
14, 77394, Note_on_c, 13, 43, 0
14, 77397, Note_on_c, 13, 51, 0
14, 77397, Note_on_c, 13, 56, 0
14, 77409, Note_on_c, 13, 55, 74
14, 77426, Note_on_c, 13, 55, 0
14, 77446, Note_on_c, 13, 60, 79
14, 77463, Note_on_c, 13, 60, 0
14, 77476, Note_on_c, 13, 62, 84
14, 77484, Control_c, 13, 64, 88
14, 77489, Control_c, 13, 64, 40
14, 77493, Control_c, 13, 64, 0
14, 77509, Control_c, 13, 64, 40
14, 77512, Note_on_c, 13, 63, 81
14, 77513, Control_c, 13, 64, 127
14, 77515, Note_on_c, 13, 60, 61
14, 77516, Note_on_c, 13, 62, 0
14, 77519, Note_on_c, 13, 36, 57
14, 77521, Note_on_c, 13, 60, 0
14, 77531, Note_on_c, 13, 63, 0
14, 77550, Note_on_c, 13, 67, 89
14, 77569, Note_on_c, 13, 67, 0
14, 77579, Note_on_c, 13, 36, 0
14, 77583, Note_on_c, 13, 72, 87
14, 77583, Note_on_c, 13, 48, 58
14, 77592, Note_on_c, 13, 48, 0
14, 77604, Note_on_c, 13, 72, 0
14, 77616, Note_on_c, 13, 74, 90
14, 77649, Note_on_c, 13, 75, 89
14, 77653, Note_on_c, 13, 72, 71
14, 77655, Note_on_c, 13, 55, 67
14, 77658, Note_on_c, 13, 74, 0
14, 77660, Note_on_c, 13, 72, 0
14, 77666, Note_on_c, 13, 55, 0
14, 77668, Note_on_c, 13, 75, 0
14, 77688, Note_on_c, 13, 79, 81
14, 77708, Note_on_c, 13, 79, 0
14, 77720, Note_on_c, 13, 84, 86
14, 77747, Note_on_c, 13, 84, 0
14, 77753, Note_on_c, 13, 87, 91
14, 77787, Note_on_c, 13, 87, 0
14, 77792, Note_on_c, 13, 86, 93
14, 77797, Note_on_c, 13, 78, 58
14, 77800, Control_c, 13, 64, 56
14, 77804, Control_c, 13, 64, 0
14, 77809, Note_on_c, 13, 38, 48
14, 77832, Control_c, 13, 64, 40
14, 77836, Control_c, 13, 64, 127
14, 77843, Note_on_c, 13, 86, 0
14, 77850, Note_on_c, 13, 78, 0
14, 77855, Note_on_c, 13, 38, 0
14, 77866, Note_on_c, 13, 50, 43
14, 77875, Note_on_c, 13, 50, 0
14, 77928, Note_on_c, 13, 78, 75
14, 77935, Note_on_c, 13, 60, 56
14, 77936, Note_on_c, 13, 72, 61
14, 77946, Note_on_c, 13, 72, 0
14, 77952, Note_on_c, 13, 60, 0
14, 77953, Note_on_c, 13, 78, 0
14, 77965, Note_on_c, 13, 75, 72
14, 77997, Note_on_c, 13, 75, 0
14, 78001, Note_on_c, 13, 74, 64
14, 78019, Note_on_c, 13, 74, 0
14, 78026, Note_on_c, 13, 66, 59
14, 78042, Note_on_c, 13, 66, 0
14, 78045, Control_c, 13, 64, 104
14, 78050, Control_c, 13, 64, 0
14, 78056, Note_on_c, 13, 80, 80
14, 78062, Note_on_c, 13, 43, 49
14, 78065, Note_on_c, 13, 71, 57
14, 78074, Control_c, 13, 64, 72
14, 78075, Note_on_c, 13, 71, 0
14, 78078, Control_c, 13, 64, 127
14, 78087, Note_on_c, 13, 80, 0
14, 78097, Note_on_c, 13, 75, 70
14, 78122, Note_on_c, 13, 50, 42
14, 78126, Note_on_c, 13, 43, 0
14, 78126, Note_on_c, 13, 74, 72
14, 78127, Note_on_c, 13, 75, 0
14, 78148, Note_on_c, 13, 74, 0
14, 78154, Note_on_c, 13, 50, 0
14, 78156, Note_on_c, 13, 65, 60
14, 78175, Note_on_c, 13, 65, 0
14, 78194, Note_on_c, 13, 79, 84
14, 78196, Note_on_c, 13, 59, 48
14, 78202, Note_on_c, 13, 71, 26
14, 78215, Note_on_c, 13, 71, 0
14, 78217, Note_on_c, 13, 79, 0
14, 78220, Note_on_c, 13, 59, 0
14, 78229, Note_on_c, 13, 75, 74
14, 78261, Note_on_c, 13, 75, 0
14, 78261, Note_on_c, 13, 74, 68
14, 78282, Note_on_c, 13, 74, 0
14, 78292, Note_on_c, 13, 65, 60
14, 78316, Note_on_c, 13, 65, 0
14, 78337, Note_on_c, 13, 72, 76
14, 78339, Note_on_c, 13, 63, 57
14, 78340, Control_c, 13, 64, 56
14, 78344, Control_c, 13, 64, 0
14, 78346, Note_on_c, 13, 36, 47
14, 78370, Note_on_c, 13, 72, 0
14, 78373, Control_c, 13, 64, 127
14, 78383, Note_on_c, 13, 63, 0
14, 78396, Note_on_c, 13, 36, 0
14, 78408, Note_on_c, 13, 43, 49
14, 78447, Note_on_c, 13, 56, 59
14, 78462, Note_on_c, 13, 56, 0
14, 78469, Note_on_c, 13, 58, 63
14, 78476, Note_on_c, 13, 51, 55
14, 78478, Note_on_c, 13, 43, 0
14, 78487, Note_on_c, 13, 58, 0
14, 78487, Note_on_c, 13, 56, 72
14, 78491, Note_on_c, 13, 51, 0
14, 78507, Note_on_c, 13, 56, 0
14, 78517, Note_on_c, 13, 55, 78
14, 78532, Note_on_c, 13, 55, 0
14, 78550, Note_on_c, 13, 60, 81
14, 78568, Note_on_c, 13, 60, 0
14, 78581, Note_on_c, 13, 62, 87
14, 78594, Control_c, 13, 64, 88
14, 78598, Control_c, 13, 64, 0
14, 78606, Note_on_c, 13, 62, 0
14, 78615, Note_on_c, 13, 63, 76
14, 78616, Note_on_c, 13, 60, 71
14, 78621, Note_on_c, 13, 36, 51
14, 78624, Note_on_c, 13, 60, 0
14, 78627, Control_c, 13, 64, 127
14, 78633, Note_on_c, 13, 63, 0
14, 78652, Note_on_c, 13, 67, 73
14, 78670, Note_on_c, 13, 67, 0
14, 78673, Note_on_c, 13, 48, 53
14, 78674, Note_on_c, 13, 36, 0
14, 78683, Note_on_c, 13, 72, 91
14, 78689, Note_on_c, 13, 48, 0
14, 78704, Note_on_c, 13, 72, 0
14, 78716, Note_on_c, 13, 74, 92
14, 78743, Note_on_c, 13, 74, 0
14, 78749, Note_on_c, 13, 75, 87
14, 78749, Note_on_c, 13, 55, 65
14, 78750, Note_on_c, 13, 72, 67
14, 78757, Note_on_c, 13, 72, 0
14, 78764, Note_on_c, 13, 55, 0
14, 78765, Note_on_c, 13, 75, 0
14, 78783, Note_on_c, 13, 79, 90
14, 78807, Note_on_c, 13, 79, 0
14, 78818, Note_on_c, 13, 84, 89
14, 78843, Note_on_c, 13, 84, 0
14, 78849, Note_on_c, 13, 87, 91
14, 78884, Note_on_c, 13, 87, 0
14, 78889, Note_on_c, 13, 86, 91
14, 78892, Note_on_c, 13, 78, 53
14, 78897, Control_c, 13, 64, 88
14, 78901, Control_c, 13, 64, 0
14, 78905, Note_on_c, 13, 38, 43
14, 78950, Control_c, 13, 64, 127
14, 78953, Note_on_c, 13, 86, 0
14, 78961, Note_on_c, 13, 78, 0
14, 78961, Note_on_c, 13, 50, 54
14, 78963, Note_on_c, 13, 38, 0
14, 78980, Note_on_c, 13, 50, 0
14, 79027, Note_on_c, 13, 60, 48
14, 79027, Note_on_c, 13, 78, 75
14, 79033, Note_on_c, 13, 72, 68
14, 79047, Note_on_c, 13, 60, 0
14, 79050, Note_on_c, 13, 72, 0
14, 79050, Note_on_c, 13, 78, 0
14, 79062, Note_on_c, 13, 75, 74
14, 79093, Note_on_c, 13, 75, 0
14, 79099, Note_on_c, 13, 74, 66
14, 79118, Note_on_c, 13, 74, 0
14, 79126, Note_on_c, 13, 66, 57
14, 79143, Control_c, 13, 64, 88
14, 79145, Note_on_c, 13, 66, 0
14, 79147, Control_c, 13, 64, 0
14, 79159, Note_on_c, 13, 80, 85
14, 79164, Note_on_c, 13, 43, 46
14, 79166, Note_on_c, 13, 71, 67
14, 79184, Control_c, 13, 64, 127
14, 79189, Note_on_c, 13, 80, 0
14, 79192, Note_on_c, 13, 71, 0
14, 79199, Note_on_c, 13, 75, 55
14, 79223, Note_on_c, 13, 75, 0
14, 79225, Note_on_c, 13, 74, 69
14, 79226, Note_on_c, 13, 50, 47
14, 79228, Note_on_c, 13, 43, 0
14, 79251, Note_on_c, 13, 74, 0
14, 79258, Note_on_c, 13, 50, 0
14, 79259, Note_on_c, 13, 65, 57
14, 79278, Note_on_c, 13, 65, 0
14, 79296, Note_on_c, 13, 79, 86
14, 79296, Note_on_c, 13, 59, 47
14, 79300, Note_on_c, 13, 71, 61
14, 79318, Note_on_c, 13, 71, 0
14, 79318, Note_on_c, 13, 79, 0
14, 79319, Note_on_c, 13, 59, 0
14, 79330, Note_on_c, 13, 75, 68
14, 79361, Note_on_c, 13, 75, 0
14, 79364, Note_on_c, 13, 74, 68
14, 79385, Note_on_c, 13, 74, 0
14, 79396, Note_on_c, 13, 65, 58
14, 79417, Note_on_c, 13, 65, 0
14, 79442, Note_on_c, 13, 72, 67
14, 79442, Note_on_c, 13, 63, 57
14, 79442, Control_c, 13, 64, 104
14, 79445, Control_c, 13, 64, 24
14, 79449, Note_on_c, 13, 36, 46
14, 79450, Control_c, 13, 64, 0
14, 79478, Note_on_c, 13, 72, 0
14, 79482, Control_c, 13, 64, 127
14, 79493, Note_on_c, 13, 63, 0
14, 79505, Note_on_c, 13, 36, 0
14, 79516, Note_on_c, 13, 43, 47
14, 79554, Note_on_c, 13, 56, 60
14, 79572, Note_on_c, 13, 58, 65
14, 79580, Note_on_c, 13, 56, 0
14, 79581, Note_on_c, 13, 51, 52
14, 79592, Note_on_c, 13, 56, 74
14, 79598, Note_on_c, 13, 58, 0
14, 79613, Note_on_c, 13, 56, 0
14, 79619, Note_on_c, 13, 51, 0
14, 79621, Note_on_c, 13, 55, 67
14, 79625, Note_on_c, 13, 43, 0
14, 79633, Note_on_c, 13, 55, 0
14, 79652, Note_on_c, 13, 60, 82
14, 79672, Note_on_c, 13, 60, 0
14, 79685, Note_on_c, 13, 62, 86
14, 79704, Control_c, 13, 64, 88
14, 79708, Control_c, 13, 64, 0
14, 79710, Note_on_c, 13, 62, 0
14, 79719, Note_on_c, 13, 63, 80
14, 79721, Note_on_c, 13, 60, 75
14, 79727, Note_on_c, 13, 60, 0
14, 79732, Note_on_c, 13, 36, 49
14, 79732, Control_c, 13, 64, 56
14, 79736, Note_on_c, 13, 63, 0
14, 79736, Control_c, 13, 64, 127
14, 79756, Note_on_c, 13, 67, 86
14, 79772, Note_on_c, 13, 67, 0
14, 79778, Note_on_c, 13, 36, 0
14, 79780, Note_on_c, 13, 48, 49
14, 79787, Note_on_c, 13, 72, 91
14, 79790, Note_on_c, 13, 48, 0
14, 79807, Note_on_c, 13, 72, 0
14, 79820, Note_on_c, 13, 74, 91
14, 79852, Note_on_c, 13, 55, 71
14, 79853, Note_on_c, 13, 72, 86
14, 79856, Note_on_c, 13, 75, 91
14, 79864, Note_on_c, 13, 74, 0
14, 79866, Note_on_c, 13, 72, 0
14, 79870, Note_on_c, 13, 55, 0
14, 79872, Note_on_c, 13, 75, 0
14, 79890, Note_on_c, 13, 79, 97
14, 79913, Note_on_c, 13, 79, 0
14, 79923, Note_on_c, 13, 84, 94
14, 79948, Note_on_c, 13, 84, 0
14, 79952, Note_on_c, 13, 87, 91
14, 79988, Note_on_c, 13, 87, 0
14, 79995, Note_on_c, 13, 86, 96
14, 79997, Note_on_c, 13, 82, 72
14, 80002, Control_c, 13, 64, 88
14, 80006, Control_c, 13, 64, 0
14, 80014, Note_on_c, 13, 43, 54
14, 80035, Note_on_c, 13, 43, 0
14, 80039, Control_c, 13, 64, 72
14, 80043, Control_c, 13, 64, 127
14, 80048, Note_on_c, 13, 82, 0
14, 80050, Note_on_c, 13, 86, 0
14, 80079, Note_on_c, 13, 50, 66
14, 80130, Note_on_c, 13, 50, 0
14, 80135, Note_on_c, 13, 74, 82
14, 80139, Note_on_c, 13, 70, 48
14, 80142, Note_on_c, 13, 62, 46
14, 80144, Note_on_c, 13, 58, 31
14, 80146, Note_on_c, 13, 70, 0
14, 80159, Note_on_c, 13, 74, 0
14, 80164, Note_on_c, 13, 75, 79
14, 80170, Note_on_c, 13, 62, 0
14, 80180, Note_on_c, 13, 58, 0
14, 80190, Note_on_c, 13, 75, 0
14, 80193, Note_on_c, 13, 74, 77
14, 80205, Note_on_c, 13, 50, 51
14, 80222, Note_on_c, 13, 74, 0
14, 80230, Note_on_c, 13, 67, 72
14, 80259, Note_on_c, 13, 67, 0
14, 80260, Note_on_c, 13, 50, 0
14, 80264, Note_on_c, 13, 72, 90
14, 80272, Note_on_c, 13, 60, 57
14, 80274, Note_on_c, 13, 57, 50
14, 80292, Note_on_c, 13, 72, 0
14, 80298, Note_on_c, 13, 74, 78
14, 80303, Note_on_c, 13, 60, 0
14, 80307, Note_on_c, 13, 57, 0
14, 80317, Note_on_c, 13, 74, 0
14, 80324, Note_on_c, 13, 72, 82
14, 80335, Note_on_c, 13, 50, 46
14, 80349, Note_on_c, 13, 72, 0
14, 80358, Note_on_c, 13, 66, 56
14, 80376, Note_on_c, 13, 66, 0
14, 80386, Note_on_c, 13, 50, 0
14, 80391, Note_on_c, 13, 70, 74
14, 80396, Note_on_c, 13, 67, 37
14, 80398, Note_on_c, 13, 58, 34
14, 80399, Note_on_c, 13, 55, 46
14, 80402, Control_c, 13, 64, 40
14, 80406, Control_c, 13, 64, 0
14, 80411, Note_on_c, 13, 67, 0
14, 80419, Note_on_c, 13, 70, 0
14, 80424, Note_on_c, 13, 72, 71
14, 80438, Control_c, 13, 64, 104
14, 80442, Control_c, 13, 64, 127
14, 80444, Note_on_c, 13, 70, 53
14, 80450, Note_on_c, 13, 72, 0
14, 80466, Note_on_c, 13, 50, 48
14, 80470, Note_on_c, 13, 70, 0
14, 80471, Note_on_c, 13, 55, 0
14, 80471, Note_on_c, 13, 58, 0
14, 80472, Note_on_c, 13, 62, 65
14, 80485, Note_on_c, 13, 50, 0
14, 80491, Note_on_c, 13, 62, 0
14, 80497, Note_on_c, 13, 64, 65
14, 80518, Note_on_c, 13, 64, 0
14, 80542, Note_on_c, 13, 69, 69
14, 80544, Note_on_c, 13, 65, 54
14, 80555, Control_c, 13, 64, 88
14, 80560, Control_c, 13, 64, 0
14, 80560, Note_on_c, 13, 38, 47
14, 80584, Note_on_c, 13, 69, 0
14, 80588, Control_c, 13, 64, 127
14, 80589, Note_on_c, 13, 65, 0
14, 80615, Note_on_c, 13, 45, 57
14, 80626, Note_on_c, 13, 38, 0
14, 80638, Note_on_c, 13, 45, 0
14, 80644, Note_on_c, 13, 58, 61
14, 80660, Note_on_c, 13, 58, 0
14, 80661, Note_on_c, 13, 60, 73
14, 80677, Note_on_c, 13, 58, 72
14, 80679, Note_on_c, 13, 60, 0
14, 80684, Note_on_c, 13, 53, 51
14, 80700, Note_on_c, 13, 58, 0
14, 80703, Note_on_c, 13, 53, 0
14, 80711, Note_on_c, 13, 57, 75
14, 80728, Note_on_c, 13, 57, 0
14, 80744, Note_on_c, 13, 62, 79
14, 80761, Note_on_c, 13, 62, 0
14, 80775, Note_on_c, 13, 64, 86
14, 80798, Control_c, 13, 64, 104
14, 80801, Note_on_c, 13, 64, 0
14, 80802, Control_c, 13, 64, 0
14, 80810, Note_on_c, 13, 65, 86
14, 80811, Note_on_c, 13, 62, 73
14, 80818, Note_on_c, 13, 62, 0
14, 80818, Note_on_c, 13, 38, 50
14, 80828, Note_on_c, 13, 65, 0
14, 80829, Control_c, 13, 64, 88
14, 80834, Control_c, 13, 64, 127
14, 80846, Note_on_c, 13, 69, 82
14, 80864, Note_on_c, 13, 69, 0
14, 80870, Note_on_c, 13, 38, 0
14, 80871, Note_on_c, 13, 50, 43
14, 80880, Note_on_c, 13, 74, 86
14, 80884, Note_on_c, 13, 50, 0
14, 80897, Note_on_c, 13, 74, 0
14, 80910, Note_on_c, 13, 76, 93
14, 80945, Note_on_c, 13, 77, 91
14, 80946, Note_on_c, 13, 74, 64
14, 80947, Note_on_c, 13, 57, 51
14, 80952, Note_on_c, 13, 74, 0
14, 80955, Note_on_c, 13, 76, 0
14, 80961, Note_on_c, 13, 57, 0
14, 80962, Note_on_c, 13, 77, 0
14, 80978, Note_on_c, 13, 81, 86
14, 81003, Note_on_c, 13, 81, 0
14, 81011, Note_on_c, 13, 86, 91
14, 81038, Note_on_c, 13, 86, 0
14, 81043, Note_on_c, 13, 89, 99
14, 81065, Note_on_c, 13, 89, 0
14, 81082, Note_on_c, 13, 88, 101
14, 81084, Note_on_c, 13, 84, 77
14, 81090, Note_on_c, 13, 45, 50
14, 81092, Control_c, 13, 64, 72
14, 81096, Control_c, 13, 64, 0
14, 81132, Control_c, 13, 64, 72
14, 81136, Control_c, 13, 64, 127
14, 81141, Note_on_c, 13, 84, 0
14, 81148, Note_on_c, 13, 88, 0
14, 81148, Note_on_c, 13, 52, 61
14, 81150, Note_on_c, 13, 45, 0
14, 81162, Note_on_c, 13, 52, 0
14, 81219, Note_on_c, 13, 76, 85
14, 81222, Note_on_c, 13, 60, 46
14, 81223, Note_on_c, 13, 64, 51
14, 81226, Note_on_c, 13, 72, 50
14, 81233, Note_on_c, 13, 72, 0
14, 81245, Note_on_c, 13, 76, 0
14, 81251, Note_on_c, 13, 77, 77
14, 81252, Note_on_c, 13, 64, 0
14, 81259, Note_on_c, 13, 60, 0
14, 81282, Note_on_c, 13, 77, 0
14, 81282, Note_on_c, 13, 76, 80
14, 81287, Note_on_c, 13, 52, 37
14, 81314, Note_on_c, 13, 76, 0
14, 81318, Note_on_c, 13, 69, 72
14, 81342, Note_on_c, 13, 52, 0
14, 81345, Note_on_c, 13, 69, 0
14, 81352, Note_on_c, 13, 74, 86
14, 81354, Note_on_c, 13, 62, 43
14, 81354, Note_on_c, 13, 59, 39
14, 81361, Note_on_c, 13, 71, 31
14, 81368, Note_on_c, 13, 71, 0
14, 81381, Note_on_c, 13, 74, 0
14, 81384, Note_on_c, 13, 76, 71
14, 81391, Note_on_c, 13, 62, 0
14, 81397, Note_on_c, 13, 59, 0
14, 81412, Note_on_c, 13, 74, 72
14, 81413, Note_on_c, 13, 76, 0
14, 81421, Note_on_c, 13, 52, 44
14, 81444, Note_on_c, 13, 74, 0
14, 81447, Note_on_c, 13, 68, 65
14, 81468, Note_on_c, 13, 68, 0
14, 81475, Note_on_c, 13, 52, 0
14, 81482, Note_on_c, 13, 72, 91
14, 81486, Note_on_c, 13, 60, 37
14, 81486, Note_on_c, 13, 57, 26
14, 81486, Note_on_c, 13, 69, 53
14, 81494, Note_on_c, 13, 69, 0
14, 81508, Note_on_c, 13, 72, 0
14, 81515, Note_on_c, 13, 74, 71
14, 81538, Note_on_c, 13, 72, 74
14, 81542, Note_on_c, 13, 60, 0
14, 81544, Note_on_c, 13, 74, 0
14, 81546, Note_on_c, 13, 52, 43
14, 81548, Note_on_c, 13, 57, 0
14, 81562, Note_on_c, 13, 52, 0
14, 81563, Note_on_c, 13, 72, 0
14, 81569, Note_on_c, 13, 64, 60
14, 81584, Note_on_c, 13, 64, 0
14, 81594, Note_on_c, 13, 66, 58
14, 81612, Note_on_c, 13, 66, 0
14, 81631, Note_on_c, 13, 71, 70
14, 81634, Note_on_c, 13, 67, 58
14, 81641, Control_c, 13, 64, 72
14, 81642, Note_on_c, 13, 40, 48
14, 81644, Control_c, 13, 64, 0
14, 81681, Control_c, 13, 64, 127
14, 81685, Note_on_c, 13, 67, 0
14, 81691, Note_on_c, 13, 40, 0
14, 81693, Note_on_c, 13, 71, 0
14, 81715, Note_on_c, 13, 59, 47
14, 81744, Note_on_c, 13, 59, 0
14, 81778, Note_on_c, 13, 79, 89
14, 81782, Note_on_c, 13, 67, 51
14, 81784, Note_on_c, 13, 76, 65
14, 81832, Note_on_c, 13, 67, 0
14, 81850, Note_on_c, 13, 59, 48
14, 81858, Note_on_c, 13, 59, 0
14, 81915, Control_c, 13, 64, 104
14, 81919, Control_c, 13, 64, 0
14, 81920, Note_on_c, 13, 45, 64
14, 81944, Note_on_c, 13, 76, 0
14, 81948, Control_c, 13, 64, 104
14, 81952, Control_c, 13, 64, 127
14, 81954, Note_on_c, 13, 71, 69
14, 81985, Note_on_c, 13, 71, 0
14, 81985, Note_on_c, 13, 45, 0
14, 81987, Note_on_c, 13, 57, 47
14, 81989, Note_on_c, 13, 72, 79
14, 82002, Note_on_c, 13, 79, 0
14, 82008, Note_on_c, 13, 57, 0
14, 82013, Note_on_c, 13, 72, 0
14, 82023, Note_on_c, 13, 69, 78
14, 82052, Note_on_c, 13, 69, 0
14, 82066, Note_on_c, 13, 79, 82
14, 82067, Note_on_c, 13, 73, 55
14, 82074, Note_on_c, 13, 64, 37
14, 82089, Note_on_c, 13, 73, 0
14, 82101, Note_on_c, 13, 79, 0
14, 82104, Note_on_c, 13, 81, 86
14, 82107, Note_on_c, 13, 69, 47
14, 82126, Note_on_c, 13, 69, 0
14, 82129, Note_on_c, 13, 81, 0
14, 82134, Note_on_c, 13, 64, 0
14, 82136, Note_on_c, 13, 79, 85
14, 82140, Note_on_c, 13, 57, 43
14, 82151, Note_on_c, 13, 57, 0
14, 82166, Note_on_c, 13, 79, 0
14, 82172, Note_on_c, 13, 69, 81
14, 82199, Note_on_c, 13, 69, 0
14, 82210, Note_on_c, 13, 78, 87
14, 82215, Note_on_c, 13, 74, 68
14, 82226, Note_on_c, 13, 50, 46
14, 82234, Control_c, 13, 64, 72
14, 82238, Control_c, 13, 64, 0
14, 82278, Control_c, 13, 64, 127
14, 82285, Note_on_c, 13, 74, 0
14, 82286, Note_on_c, 13, 50, 0
14, 82288, Note_on_c, 13, 57, 44
14, 82298, Note_on_c, 13, 78, 0
14, 82308, Note_on_c, 13, 57, 0
14, 82361, Note_on_c, 13, 77, 82
14, 82364, Note_on_c, 13, 74, 64
14, 82373, Note_on_c, 13, 65, 40
14, 82434, Note_on_c, 13, 65, 0
14, 82439, Note_on_c, 13, 57, 46
14, 82449, Note_on_c, 13, 57, 0
14, 82516, Control_c, 13, 64, 88
14, 82520, Control_c, 13, 64, 0
14, 82521, Note_on_c, 13, 43, 46
14, 82548, Note_on_c, 13, 74, 0
14, 82549, Control_c, 13, 64, 56
14, 82553, Control_c, 13, 64, 127
14, 82558, Note_on_c, 13, 69, 60
14, 82588, Note_on_c, 13, 69, 0
14, 82592, Note_on_c, 13, 43, 0
14, 82594, Note_on_c, 13, 70, 65
14, 82598, Note_on_c, 13, 55, 47
14, 82600, Note_on_c, 13, 77, 0
14, 82620, Note_on_c, 13, 55, 0
14, 82623, Note_on_c, 13, 70, 0
14, 82634, Note_on_c, 13, 65, 71
14, 82667, Note_on_c, 13, 65, 0
14, 82681, Note_on_c, 13, 77, 75
14, 82683, Note_on_c, 13, 71, 52
14, 82691, Note_on_c, 13, 62, 45
14, 82724, Note_on_c, 13, 77, 0
14, 82728, Note_on_c, 13, 79, 77
14, 82757, Note_on_c, 13, 79, 0
14, 82768, Note_on_c, 13, 71, 0
14, 82775, Note_on_c, 13, 62, 0
14, 82778, Note_on_c, 13, 77, 76
14, 82780, Note_on_c, 13, 55, 45
14, 82803, Note_on_c, 13, 55, 0
14, 82824, Note_on_c, 13, 77, 0
14, 82842, Note_on_c, 13, 65, 56
14, 82859, Note_on_c, 13, 65, 0
14, 82870, Control_c, 13, 64, 0
14, 82929, Control_c, 13, 64, 127
14, 82929, Note_on_c, 13, 63, 58
14, 82929, Note_on_c, 13, 77, 73
14, 82934, Note_on_c, 13, 72, 52
14, 82935, Note_on_c, 13, 44, 37
14, 82976, Note_on_c, 13, 63, 0
14, 83008, Note_on_c, 13, 72, 0
14, 83017, Note_on_c, 13, 44, 0
14, 83019, Note_on_c, 13, 77, 0
14, 83020, Note_on_c, 13, 75, 64
14, 83027, Note_on_c, 13, 51, 44
14, 83036, Note_on_c, 13, 75, 0
14, 83057, Note_on_c, 13, 75, 80
14, 83083, Note_on_c, 13, 75, 0
14, 83096, Note_on_c, 13, 51, 0
14, 83103, Note_on_c, 13, 89, 87
14, 83111, Note_on_c, 13, 60, 47
14, 83129, Note_on_c, 13, 89, 0
14, 83146, Note_on_c, 13, 75, 76
14, 83178, Note_on_c, 13, 75, 0
14, 83179, Note_on_c, 13, 87, 87
14, 83182, Note_on_c, 13, 80, 71
14, 83185, Note_on_c, 13, 51, 49
14, 83187, Note_on_c, 13, 60, 0
14, 83206, Note_on_c, 13, 87, 0
14, 83210, Note_on_c, 13, 80, 0
14, 83217, Note_on_c, 13, 86, 88
14, 83223, Note_on_c, 13, 80, 35
14, 83243, Note_on_c, 13, 86, 0
14, 83249, Note_on_c, 13, 80, 0
14, 83255, Note_on_c, 13, 51, 0
14, 83258, Note_on_c, 13, 85, 76
14, 83264, Note_on_c, 13, 44, 38
14, 83278, Note_on_c, 13, 85, 0
14, 83293, Note_on_c, 13, 72, 78
14, 83318, Note_on_c, 13, 44, 0
14, 83321, Note_on_c, 13, 72, 0
14, 83331, Note_on_c, 13, 84, 91
14, 83333, Note_on_c, 13, 75, 57
14, 83341, Note_on_c, 13, 51, 37
14, 83345, Note_on_c, 13, 75, 0
14, 83355, Note_on_c, 13, 84, 0
14, 83366, Note_on_c, 13, 82, 79
14, 83394, Note_on_c, 13, 51, 0
14, 83397, Note_on_c, 13, 82, 0
14, 83407, Note_on_c, 13, 80, 80
14, 83410, Note_on_c, 13, 63, 48
14, 83432, Note_on_c, 13, 80, 0
14, 83442, Note_on_c, 13, 72, 71
14, 83465, Note_on_c, 13, 72, 0
14, 83482, Note_on_c, 13, 79, 81
14, 83484, Note_on_c, 13, 72, 63
14, 83487, Note_on_c, 13, 63, 0
14, 83490, Note_on_c, 13, 51, 37
14, 83499, Note_on_c, 13, 72, 0
14, 83501, Note_on_c, 13, 51, 0
14, 83501, Note_on_c, 13, 79, 0
14, 83519, Note_on_c, 13, 77, 87
14, 83542, Note_on_c, 13, 77, 0
14, 83559, Control_c, 13, 64, 104
14, 83562, Note_on_c, 13, 77, 78
14, 83563, Control_c, 13, 64, 24
14, 83566, Note_on_c, 13, 73, 59
14, 83567, Control_c, 13, 64, 0
14, 83569, Note_on_c, 13, 39, 45
14, 83584, Note_on_c, 13, 73, 0
14, 83589, Note_on_c, 13, 77, 0
14, 83590, Control_c, 13, 64, 127
14, 83593, Note_on_c, 13, 39, 0
14, 83600, Note_on_c, 13, 67, 71
14, 83630, Note_on_c, 13, 67, 0
14, 83640, Note_on_c, 13, 75, 82
14, 83643, Note_on_c, 13, 51, 46
14, 83657, Note_on_c, 13, 75, 0
14, 83673, Note_on_c, 13, 85, 82
14, 83687, Note_on_c, 13, 51, 0
14, 83691, Note_on_c, 13, 85, 0
14, 83714, Note_on_c, 13, 77, 78
14, 83717, Note_on_c, 13, 73, 68
14, 83718, Note_on_c, 13, 63, 38
14, 83734, Note_on_c, 13, 73, 0
14, 83737, Note_on_c, 13, 77, 0
14, 83751, Note_on_c, 13, 67, 73
14, 83774, Note_on_c, 13, 67, 0
14, 83779, Note_on_c, 13, 63, 0
14, 83788, Note_on_c, 13, 51, 38
14, 83789, Note_on_c, 13, 75, 80
14, 83796, Note_on_c, 13, 51, 0
14, 83808, Note_on_c, 13, 75, 0
14, 83826, Note_on_c, 13, 84, 80
14, 83839, Note_on_c, 13, 84, 0
14, 83865, Note_on_c, 13, 77, 89
14, 83867, Note_on_c, 13, 73, 72
14, 83875, Note_on_c, 13, 39, 39
14, 83886, Note_on_c, 13, 73, 0
14, 83890, Note_on_c, 13, 77, 0
14, 83892, Note_on_c, 13, 39, 0
14, 83902, Note_on_c, 13, 67, 68
14, 83927, Note_on_c, 13, 67, 0
14, 83940, Note_on_c, 13, 75, 78
14, 83948, Note_on_c, 13, 51, 40
14, 83958, Note_on_c, 13, 75, 0
14, 83977, Note_on_c, 13, 84, 86
14, 83992, Note_on_c, 13, 84, 0
14, 83992, Note_on_c, 13, 51, 0
14, 84017, Note_on_c, 13, 77, 78
14, 84020, Note_on_c, 13, 73, 60
14, 84022, Note_on_c, 13, 63, 35
14, 84041, Note_on_c, 13, 73, 0
14, 84044, Note_on_c, 13, 77, 0
14, 84052, Note_on_c, 13, 67, 70
14, 84079, Note_on_c, 13, 67, 0
14, 84087, Note_on_c, 13, 63, 0
14, 84089, Note_on_c, 13, 75, 74
14, 84093, Note_on_c, 13, 51, 35
14, 84105, Note_on_c, 13, 51, 0
14, 84108, Note_on_c, 13, 75, 0
14, 84124, Note_on_c, 13, 82, 80
14, 84144, Note_on_c, 13, 82, 0
14, 84168, Control_c, 13, 64, 88
14, 84168, Note_on_c, 13, 80, 71
14, 84172, Control_c, 13, 64, 0
14, 84173, Note_on_c, 13, 72, 67
14, 84175, Note_on_c, 13, 44, 38
14, 84201, Note_on_c, 13, 72, 0
14, 84205, Control_c, 13, 64, 104
14, 84209, Control_c, 13, 64, 127
14, 84209, Note_on_c, 13, 73, 67
14, 84223, Note_on_c, 13, 80, 0
14, 84226, Note_on_c, 13, 44, 0
14, 84246, Note_on_c, 13, 73, 0
14, 84249, Note_on_c, 13, 74, 80
14, 84249, Note_on_c, 13, 51, 35
14, 84286, Note_on_c, 13, 75, 84
14, 84287, Note_on_c, 13, 74, 0
14, 84302, Note_on_c, 13, 75, 0
14, 84315, Note_on_c, 13, 51, 0
14, 84330, Note_on_c, 13, 60, 43
14, 84331, Note_on_c, 13, 89, 98
14, 84352, Note_on_c, 13, 89, 0
14, 84367, Note_on_c, 13, 75, 72
14, 84391, Note_on_c, 13, 75, 0
14, 84404, Note_on_c, 13, 60, 0
14, 84404, Note_on_c, 13, 87, 89
14, 84408, Note_on_c, 13, 80, 65
14, 84409, Note_on_c, 13, 51, 45
14, 84431, Note_on_c, 13, 87, 0
14, 84441, Note_on_c, 13, 86, 92
14, 84470, Note_on_c, 13, 86, 0
14, 84472, Note_on_c, 13, 80, 0
14, 84477, Note_on_c, 13, 51, 0
14, 84480, Note_on_c, 13, 85, 84
14, 84491, Note_on_c, 13, 44, 26
14, 84508, Note_on_c, 13, 85, 0
14, 84518, Note_on_c, 13, 72, 70
14, 84542, Note_on_c, 13, 72, 0
14, 84549, Note_on_c, 13, 44, 0
14, 84557, Note_on_c, 13, 84, 94
14, 84561, Note_on_c, 13, 75, 58
14, 84565, Note_on_c, 13, 51, 40
14, 84571, Note_on_c, 13, 75, 0
14, 84584, Note_on_c, 13, 84, 0
14, 84592, Note_on_c, 13, 82, 80
14, 84625, Note_on_c, 13, 51, 0
14, 84629, Note_on_c, 13, 82, 0
14, 84635, Note_on_c, 13, 80, 86
14, 84637, Note_on_c, 13, 63, 46
14, 84663, Note_on_c, 13, 80, 0
14, 84671, Note_on_c, 13, 72, 75
14, 84694, Note_on_c, 13, 72, 0
14, 84711, Note_on_c, 13, 63, 0
14, 84712, Note_on_c, 13, 79, 87
14, 84713, Note_on_c, 13, 51, 38
14, 84714, Note_on_c, 13, 72, 61
14, 84727, Note_on_c, 13, 51, 0
14, 84731, Note_on_c, 13, 72, 0
14, 84735, Note_on_c, 13, 79, 0
14, 84750, Note_on_c, 13, 77, 87
14, 84774, Note_on_c, 13, 77, 0
14, 84785, Control_c, 13, 64, 40
14, 84789, Control_c, 13, 64, 0
14, 84791, Note_on_c, 13, 77, 80
14, 84795, Note_on_c, 13, 39, 50
14, 84796, Note_on_c, 13, 73, 56
14, 84814, Control_c, 13, 64, 72
14, 84818, Note_on_c, 13, 73, 0
14, 84818, Control_c, 13, 64, 127
14, 84819, Note_on_c, 13, 39, 0
14, 84823, Note_on_c, 13, 77, 0
14, 84830, Note_on_c, 13, 67, 74
14, 84862, Note_on_c, 13, 67, 0
14, 84866, Note_on_c, 13, 51, 44
14, 84868, Note_on_c, 13, 75, 80
14, 84886, Note_on_c, 13, 75, 0
14, 84901, Note_on_c, 13, 85, 85
14, 84917, Note_on_c, 13, 85, 0
14, 84919, Note_on_c, 13, 51, 0
14, 84941, Note_on_c, 13, 77, 82
14, 84946, Note_on_c, 13, 73, 57
14, 84949, Note_on_c, 13, 63, 40
14, 84963, Note_on_c, 13, 73, 0
14, 84968, Note_on_c, 13, 77, 0
14, 84982, Note_on_c, 13, 67, 67
14, 85003, Note_on_c, 13, 67, 0
14, 85005, Note_on_c, 13, 63, 0
14, 85009, Note_on_c, 13, 51, 37
14, 85015, Note_on_c, 13, 75, 84
14, 85028, Note_on_c, 13, 51, 0
14, 85035, Note_on_c, 13, 75, 0
14, 85052, Note_on_c, 13, 84, 84
14, 85067, Note_on_c, 13, 84, 0
14, 85091, Note_on_c, 13, 39, 53
14, 85092, Note_on_c, 13, 77, 86
14, 85096, Note_on_c, 13, 73, 46
14, 85105, Note_on_c, 13, 73, 0
14, 85111, Note_on_c, 13, 39, 0
14, 85116, Note_on_c, 13, 77, 0
14, 85129, Note_on_c, 13, 67, 72
14, 85149, Note_on_c, 13, 67, 0
14, 85164, Note_on_c, 13, 51, 44
14, 85165, Note_on_c, 13, 75, 80
14, 85183, Note_on_c, 13, 75, 0
14, 85203, Note_on_c, 13, 84, 78
14, 85208, Note_on_c, 13, 51, 0
14, 85216, Note_on_c, 13, 84, 0
14, 85243, Note_on_c, 13, 77, 79
14, 85244, Note_on_c, 13, 73, 68
14, 85246, Note_on_c, 13, 63, 39
14, 85264, Note_on_c, 13, 73, 0
14, 85266, Note_on_c, 13, 77, 0
14, 85276, Note_on_c, 13, 67, 60
14, 85303, Note_on_c, 13, 67, 0
14, 85313, Note_on_c, 13, 63, 0
14, 85317, Note_on_c, 13, 75, 71
14, 85317, Note_on_c, 13, 51, 38
14, 85326, Note_on_c, 13, 51, 0
14, 85338, Note_on_c, 13, 75, 0
14, 85351, Note_on_c, 13, 82, 72
14, 85373, Note_on_c, 13, 82, 0
14, 85379, Control_c, 13, 64, 56
14, 85383, Control_c, 13, 64, 0
14, 85390, Note_on_c, 13, 80, 87
14, 85398, Control_c, 13, 64, 56
14, 85399, Note_on_c, 13, 41, 53
14, 85403, Control_c, 13, 64, 127
14, 85409, Note_on_c, 13, 80, 0
14, 85431, Note_on_c, 13, 73, 71
14, 85438, Note_on_c, 13, 68, 45
14, 85454, Note_on_c, 13, 73, 0
14, 85460, Note_on_c, 13, 41, 0
14, 85462, Note_on_c, 13, 68, 0
14, 85469, Note_on_c, 13, 65, 76
14, 85475, Note_on_c, 13, 53, 58
14, 85489, Note_on_c, 13, 65, 0
14, 85507, Note_on_c, 13, 63, 73
14, 85521, Note_on_c, 13, 63, 0
14, 85536, Note_on_c, 13, 53, 0
14, 85541, Note_on_c, 13, 56, 52
14, 85545, Note_on_c, 13, 61, 76
14, 85551, Note_on_c, 13, 56, 0
14, 85558, Note_on_c, 13, 61, 0
14, 85584, Note_on_c, 13, 68, 73
14, 85585, Note_on_c, 13, 73, 82
14, 85601, Note_on_c, 13, 68, 0
14, 85609, Note_on_c, 13, 73, 0
14, 85614, Note_on_c, 13, 41, 40
14, 85622, Note_on_c, 13, 75, 80
14, 85638, Note_on_c, 13, 41, 0
14, 85647, Note_on_c, 13, 75, 0
14, 85657, Note_on_c, 13, 73, 85
14, 85683, Note_on_c, 13, 73, 0
14, 85693, Control_c, 13, 64, 72
14, 85694, Note_on_c, 13, 80, 88
14, 85697, Control_c, 13, 64, 0
14, 85702, Note_on_c, 13, 39, 55
14, 85726, Control_c, 13, 64, 127
14, 85734, Note_on_c, 13, 68, 51
14, 85736, Note_on_c, 13, 72, 69
14, 85737, Note_on_c, 13, 80, 0
14, 85743, Note_on_c, 13, 72, 0
14, 85754, Note_on_c, 13, 68, 0
14, 85761, Note_on_c, 13, 39, 0
14, 85767, Note_on_c, 13, 51, 53
14, 85773, Note_on_c, 13, 63, 75
14, 85789, Note_on_c, 13, 63, 0
14, 85806, Note_on_c, 13, 61, 73
14, 85810, Note_on_c, 13, 51, 0
14, 85831, Note_on_c, 13, 61, 0
14, 85843, Note_on_c, 13, 60, 82
14, 85845, Note_on_c, 13, 56, 57
14, 85855, Note_on_c, 13, 56, 0
14, 85859, Note_on_c, 13, 60, 0
14, 85883, Note_on_c, 13, 72, 86
14, 85883, Note_on_c, 13, 68, 66
14, 85903, Note_on_c, 13, 68, 0
14, 85909, Note_on_c, 13, 72, 0
14, 85918, Note_on_c, 13, 73, 76
14, 85919, Note_on_c, 13, 39, 50
14, 85945, Note_on_c, 13, 73, 0
14, 85946, Note_on_c, 13, 39, 0
14, 85957, Note_on_c, 13, 72, 84
14, 85972, Note_on_c, 13, 72, 0
14, 85988, Control_c, 13, 64, 40
14, 85991, Control_c, 13, 64, 0
14, 85995, Note_on_c, 13, 80, 91
14, 85997, Note_on_c, 13, 38, 56
14, 86012, Note_on_c, 13, 80, 0
14, 86012, Control_c, 13, 64, 104
14, 86013, Note_on_c, 13, 38, 0
14, 86016, Control_c, 13, 64, 127
14, 86034, Note_on_c, 13, 70, 72
14, 86036, Note_on_c, 13, 68, 58
14, 86055, Note_on_c, 13, 68, 0
14, 86057, Note_on_c, 13, 70, 0
14, 86071, Note_on_c, 13, 60, 77
14, 86082, Note_on_c, 13, 50, 45
14, 86097, Note_on_c, 13, 60, 0
14, 86107, Note_on_c, 13, 58, 76
14, 86115, Note_on_c, 13, 60, 42
14, 86121, Note_on_c, 13, 60, 0
14, 86124, Note_on_c, 13, 58, 0
14, 86130, Note_on_c, 13, 50, 0
14, 86144, Note_on_c, 13, 56, 47
14, 86147, Note_on_c, 13, 72, 86
14, 86164, Note_on_c, 13, 72, 0
14, 86182, Note_on_c, 13, 70, 84
14, 86187, Note_on_c, 13, 68, 67
14, 86206, Note_on_c, 13, 68, 0
14, 86207, Note_on_c, 13, 70, 0
14, 86222, Note_on_c, 13, 60, 73
14, 86227, Note_on_c, 13, 50, 63
14, 86231, Note_on_c, 13, 56, 0
14, 86237, Note_on_c, 13, 50, 0
14, 86248, Note_on_c, 13, 60, 0
14, 86259, Note_on_c, 13, 58, 66
14, 86273, Note_on_c, 13, 58, 0
14, 86295, Control_c, 13, 64, 56
14, 86299, Control_c, 13, 64, 0
14, 86305, Note_on_c, 13, 72, 80
14, 86308, Note_on_c, 13, 39, 48
14, 86320, Note_on_c, 13, 72, 0
14, 86323, Control_c, 13, 64, 56
14, 86327, Control_c, 13, 64, 127
14, 86330, Note_on_c, 13, 39, 0
14, 86339, Note_on_c, 13, 70, 74
14, 86343, Note_on_c, 13, 67, 61
14, 86361, Note_on_c, 13, 67, 0
14, 86364, Note_on_c, 13, 70, 0
14, 86372, Note_on_c, 13, 51, 58
14, 86378, Note_on_c, 13, 60, 67
14, 86410, Note_on_c, 13, 58, 73
14, 86422, Note_on_c, 13, 60, 0
14, 86426, Note_on_c, 13, 58, 0
14, 86434, Note_on_c, 13, 51, 0
14, 86452, Note_on_c, 13, 55, 45
14, 86459, Note_on_c, 13, 72, 71
14, 86467, Note_on_c, 13, 72, 0
14, 86490, Note_on_c, 13, 70, 74
14, 86515, Note_on_c, 13, 70, 0
14, 86523, Note_on_c, 13, 51, 45
14, 86527, Note_on_c, 13, 63, 89
14, 86540, Note_on_c, 13, 55, 0
14, 86546, Note_on_c, 13, 51, 0
14, 86550, Note_on_c, 13, 63, 0
14, 86562, Note_on_c, 13, 75, 93
14, 86594, Note_on_c, 13, 75, 0
14, 86605, Control_c, 13, 64, 88
14, 86609, Note_on_c, 13, 80, 93
14, 86609, Control_c, 13, 64, 0
14, 86616, Note_on_c, 13, 41, 51
14, 86637, Control_c, 13, 64, 88
14, 86641, Control_c, 13, 64, 127
14, 86647, Note_on_c, 13, 80, 0
14, 86648, Note_on_c, 13, 68, 67
14, 86656, Note_on_c, 13, 75, 56
14, 86663, Note_on_c, 13, 75, 0
14, 86668, Note_on_c, 13, 68, 0
14, 86680, Note_on_c, 13, 41, 0
14, 86691, Note_on_c, 13, 65, 85
14, 86695, Note_on_c, 13, 53, 50
14, 86704, Note_on_c, 13, 65, 0
14, 86725, Note_on_c, 13, 63, 87
14, 86747, Note_on_c, 13, 63, 0
14, 86747, Note_on_c, 13, 53, 0
14, 86764, Note_on_c, 13, 61, 73
14, 86768, Note_on_c, 13, 56, 48
14, 86774, Note_on_c, 13, 61, 0
14, 86776, Note_on_c, 13, 56, 0
14, 86809, Note_on_c, 13, 68, 37
14, 86809, Note_on_c, 13, 73, 61
14, 86819, Note_on_c, 13, 73, 0
14, 86819, Note_on_c, 13, 68, 0
14, 86840, Note_on_c, 13, 75, 85
14, 86845, Note_on_c, 13, 68, 51
14, 86847, Note_on_c, 13, 41, 51
14, 86854, Note_on_c, 13, 68, 0
14, 86865, Note_on_c, 13, 41, 0
14, 86865, Note_on_c, 13, 75, 0
14, 86875, Note_on_c, 13, 73, 91
14, 86903, Note_on_c, 13, 73, 0
14, 86913, Note_on_c, 13, 80, 92
14, 86915, Control_c, 13, 64, 88
14, 86920, Control_c, 13, 64, 0
14, 86925, Note_on_c, 13, 39, 46
14, 86952, Note_on_c, 13, 73, 75
14, 86955, Note_on_c, 13, 80, 0
14, 86955, Note_on_c, 13, 68, 47
14, 86956, Control_c, 13, 64, 127
14, 86974, Note_on_c, 13, 73, 0
14, 86975, Note_on_c, 13, 68, 0
14, 86985, Note_on_c, 13, 39, 0
14, 86992, Note_on_c, 13, 51, 55
14, 86994, Note_on_c, 13, 63, 77
14, 87012, Note_on_c, 13, 63, 0
14, 87022, Note_on_c, 13, 51, 0
14, 87025, Note_on_c, 13, 61, 81
14, 87047, Note_on_c, 13, 61, 0
14, 87068, Note_on_c, 13, 56, 58
14, 87069, Note_on_c, 13, 60, 66
14, 87080, Note_on_c, 13, 60, 0
14, 87081, Note_on_c, 13, 56, 0
14, 87105, Note_on_c, 13, 68, 59
14, 87105, Note_on_c, 13, 72, 78
14, 87123, Note_on_c, 13, 68, 0
14, 87133, Note_on_c, 13, 72, 0
14, 87142, Note_on_c, 13, 73, 74
14, 87143, Note_on_c, 13, 39, 55
14, 87165, Note_on_c, 13, 39, 0
14, 87166, Note_on_c, 13, 73, 0
14, 87178, Note_on_c, 13, 72, 85
14, 87194, Note_on_c, 13, 72, 0
14, 87207, Control_c, 13, 64, 88
14, 87211, Control_c, 13, 64, 0
14, 87217, Note_on_c, 13, 80, 88
14, 87222, Note_on_c, 13, 38, 56
14, 87231, Note_on_c, 13, 80, 0
14, 87231, Control_c, 13, 64, 56
14, 87235, Note_on_c, 13, 38, 0
14, 87235, Control_c, 13, 64, 127
14, 87256, Note_on_c, 13, 70, 79
14, 87259, Note_on_c, 13, 68, 56
14, 87275, Note_on_c, 13, 68, 0
14, 87277, Note_on_c, 13, 70, 0
14, 87293, Note_on_c, 13, 60, 84
14, 87298, Note_on_c, 13, 50, 67
14, 87318, Note_on_c, 13, 60, 0
14, 87333, Note_on_c, 13, 58, 66
14, 87335, Note_on_c, 13, 60, 50
14, 87340, Note_on_c, 13, 58, 0
14, 87342, Note_on_c, 13, 60, 0
14, 87356, Note_on_c, 13, 50, 0
14, 87368, Note_on_c, 13, 56, 48
14, 87371, Note_on_c, 13, 72, 87
14, 87387, Note_on_c, 13, 72, 0
14, 87405, Note_on_c, 13, 70, 79
14, 87406, Note_on_c, 13, 68, 70
14, 87427, Note_on_c, 13, 68, 0
14, 87429, Note_on_c, 13, 70, 0
14, 87443, Note_on_c, 13, 60, 74
14, 87444, Note_on_c, 13, 50, 59
14, 87447, Note_on_c, 13, 56, 0
14, 87455, Note_on_c, 13, 50, 0
14, 87476, Note_on_c, 13, 58, 79
14, 87487, Note_on_c, 13, 60, 0
14, 87496, Note_on_c, 13, 58, 0
14, 87516, Control_c, 13, 64, 24
14, 87520, Control_c, 13, 64, 0
14, 87522, Note_on_c, 13, 72, 84
14, 87522, Note_on_c, 13, 39, 49
14, 87538, Note_on_c, 13, 72, 0
14, 87541, Control_c, 13, 64, 56
14, 87545, Control_c, 13, 64, 127
14, 87549, Note_on_c, 13, 39, 0
14, 87555, Note_on_c, 13, 70, 72
14, 87559, Note_on_c, 13, 67, 58
14, 87578, Note_on_c, 13, 67, 0
14, 87582, Note_on_c, 13, 70, 0
14, 87588, Note_on_c, 13, 51, 59
14, 87595, Note_on_c, 13, 60, 58
14, 87627, Note_on_c, 13, 58, 72
14, 87639, Note_on_c, 13, 60, 0
14, 87644, Note_on_c, 13, 58, 0
14, 87650, Note_on_c, 13, 51, 0
14, 87663, Note_on_c, 13, 55, 51
14, 87669, Note_on_c, 13, 72, 79
14, 87688, Note_on_c, 13, 72, 0
14, 87705, Note_on_c, 13, 70, 72
14, 87737, Note_on_c, 13, 70, 0
14, 87745, Note_on_c, 13, 51, 39
14, 87746, Note_on_c, 13, 63, 80
14, 87783, Note_on_c, 13, 75, 93
14, 87804, Note_on_c, 13, 63, 0
14, 87805, Note_on_c, 13, 51, 0
14, 87809, Note_on_c, 13, 75, 0
14, 87816, Note_on_c, 13, 55, 0
14, 87824, Note_on_c, 13, 75, 85
14, 87826, Note_on_c, 13, 46, 47
14, 87826, Note_on_c, 13, 70, 71
14, 87829, Note_on_c, 13, 68, 54
14, 87836, Note_on_c, 13, 68, 0
14, 87839, Control_c, 13, 64, 24
14, 87843, Control_c, 13, 64, 0
14, 87866, Note_on_c, 13, 53, 66
14, 87876, Control_c, 13, 64, 127
14, 87879, Note_on_c, 13, 68, 10
14, 87888, Note_on_c, 13, 46, 0
14, 87895, Note_on_c, 13, 53, 0
14, 87903, Note_on_c, 13, 52, 64
14, 87931, Note_on_c, 13, 75, 0
14, 87932, Note_on_c, 13, 52, 0
14, 87940, Note_on_c, 13, 53, 61
14, 87961, Note_on_c, 13, 53, 0
14, 87973, Note_on_c, 13, 74, 87
14, 87975, Note_on_c, 13, 55, 63
14, 87988, Note_on_c, 13, 70, 0
14, 88000, Note_on_c, 13, 55, 0
14, 88011, Note_on_c, 13, 56, 57
14, 88039, Note_on_c, 13, 56, 0
14, 88056, Note_on_c, 13, 48, 65
14, 88064, Note_on_c, 13, 74, 0
14, 88084, Note_on_c, 13, 68, 0
14, 88085, Note_on_c, 13, 48, 0
14, 88090, Note_on_c, 13, 72, 91
14, 88092, Note_on_c, 13, 50, 66
14, 88110, Note_on_c, 13, 50, 0
14, 88112, Note_on_c, 13, 72, 0
14, 88131, Note_on_c, 13, 51, 67
14, 88132, Note_on_c, 13, 72, 93
14, 88137, Note_on_c, 13, 67, 63
14, 88143, Control_c, 13, 64, 0
14, 88155, Note_on_c, 13, 51, 0
14, 88170, Note_on_c, 13, 39, 46
14, 88179, Control_c, 13, 64, 127
14, 88202, Note_on_c, 13, 39, 0
14, 88208, Note_on_c, 13, 46, 57
14, 88235, Note_on_c, 13, 46, 0
14, 88246, Note_on_c, 13, 51, 61
14, 88267, Note_on_c, 13, 51, 0
14, 88282, Note_on_c, 13, 55, 57
14, 88285, Note_on_c, 13, 70, 76
14, 88292, Note_on_c, 13, 72, 0
14, 88295, Note_on_c, 13, 67, 0
14, 88305, Note_on_c, 13, 55, 0
14, 88319, Note_on_c, 13, 56, 52
14, 88350, Note_on_c, 13, 56, 0
14, 88356, Note_on_c, 13, 58, 54
14, 88369, Note_on_c, 13, 70, 0
14, 88385, Note_on_c, 13, 58, 0
14, 88388, Note_on_c, 13, 63, 67
14, 88395, Note_on_c, 13, 75, 93
14, 88404, Note_on_c, 13, 63, 0
14, 88415, Note_on_c, 13, 75, 0
14, 88431, Note_on_c, 13, 75, 91
14, 88435, Note_on_c, 13, 68, 75
14, 88437, Note_on_c, 13, 46, 67
14, 88437, Control_c, 13, 64, 72
14, 88438, Note_on_c, 13, 70, 68
14, 88441, Control_c, 13, 64, 0
14, 88469, Control_c, 13, 64, 127
14, 88474, Note_on_c, 13, 70, 0
14, 88481, Note_on_c, 13, 53, 61
14, 88487, Note_on_c, 13, 46, 0
14, 88505, Note_on_c, 13, 53, 0
14, 88508, Note_on_c, 13, 52, 67
14, 88526, Note_on_c, 13, 75, 0
14, 88541, Note_on_c, 13, 52, 0
14, 88545, Note_on_c, 13, 77, 81
14, 88549, Note_on_c, 13, 53, 61
14, 88564, Note_on_c, 13, 75, 80
14, 88570, Note_on_c, 13, 53, 0
14, 88577, Note_on_c, 13, 77, 0
14, 88581, Note_on_c, 13, 55, 70
14, 88586, Note_on_c, 13, 74, 94
14, 88601, Note_on_c, 13, 75, 0
14, 88609, Note_on_c, 13, 55, 0
14, 88622, Note_on_c, 13, 56, 59
14, 88645, Note_on_c, 13, 68, 0
14, 88653, Note_on_c, 13, 56, 0
14, 88667, Note_on_c, 13, 48, 50
14, 88678, Note_on_c, 13, 74, 0
14, 88694, Note_on_c, 13, 48, 0
14, 88696, Note_on_c, 13, 72, 94
14, 88697, Note_on_c, 13, 68, 65
14, 88699, Note_on_c, 13, 50, 70
14, 88711, Note_on_c, 13, 72, 0
14, 88712, Note_on_c, 13, 68, 0
14, 88715, Note_on_c, 13, 50, 0
14, 88738, Note_on_c, 13, 72, 97
14, 88738, Note_on_c, 13, 51, 73
14, 88741, Note_on_c, 13, 67, 71
14, 88744, Control_c, 13, 64, 72
14, 88748, Control_c, 13, 64, 0
14, 88762, Note_on_c, 13, 51, 0
14, 88780, Control_c, 13, 64, 104
14, 88781, Note_on_c, 13, 39, 55
14, 88784, Control_c, 13, 64, 127
14, 88813, Note_on_c, 13, 39, 0
14, 88818, Note_on_c, 13, 46, 58
14, 88845, Note_on_c, 13, 46, 0
14, 88854, Note_on_c, 13, 51, 60
14, 88876, Note_on_c, 13, 51, 0
14, 88891, Note_on_c, 13, 70, 76
14, 88891, Note_on_c, 13, 55, 65
14, 88899, Note_on_c, 13, 72, 0
14, 88928, Note_on_c, 13, 56, 38
14, 88929, Note_on_c, 13, 55, 0
14, 88959, Note_on_c, 13, 58, 57
14, 88963, Note_on_c, 13, 67, 0
14, 88964, Note_on_c, 13, 56, 0
14, 88973, Note_on_c, 13, 70, 0
14, 88994, Note_on_c, 13, 58, 0
14, 88995, Note_on_c, 13, 60, 73
14, 89012, Note_on_c, 13, 60, 0
14, 89038, Note_on_c, 13, 77, 107
14, 89040, Note_on_c, 13, 70, 74
14, 89040, Note_on_c, 13, 67, 63
14, 89041, Note_on_c, 13, 65, 77
14, 89046, Note_on_c, 13, 61, 67
14, 89047, Control_c, 13, 64, 104
14, 89050, Control_c, 13, 64, 0
14, 89071, Note_on_c, 13, 61, 0
14, 89082, Note_on_c, 13, 60, 72
14, 89082, Control_c, 13, 64, 127
14, 89107, Note_on_c, 13, 60, 0
14, 89117, Note_on_c, 13, 58, 57
14, 89141, Note_on_c, 13, 77, 0
14, 89144, Note_on_c, 13, 65, 0
14, 89149, Note_on_c, 13, 67, 0
14, 89152, Note_on_c, 13, 58, 0
14, 89152, Note_on_c, 13, 56, 60
14, 89177, Note_on_c, 13, 56, 0
14, 89181, Note_on_c, 13, 70, 0
14, 89189, Note_on_c, 13, 76, 89
14, 89190, Note_on_c, 13, 64, 77
14, 89192, Note_on_c, 13, 55, 64
14, 89214, Note_on_c, 13, 64, 0
14, 89215, Note_on_c, 13, 55, 0
14, 89226, Note_on_c, 13, 76, 0
14, 89229, Note_on_c, 13, 53, 69
14, 89259, Note_on_c, 13, 53, 0
14, 89261, Note_on_c, 13, 52, 73
14, 89299, Note_on_c, 13, 77, 93
14, 89300, Note_on_c, 13, 49, 58
14, 89300, Note_on_c, 13, 65, 77
14, 89301, Note_on_c, 13, 52, 0
14, 89316, Note_on_c, 13, 65, 0
14, 89321, Note_on_c, 13, 49, 0
14, 89321, Note_on_c, 13, 77, 0
14, 89337, Note_on_c, 13, 48, 91
14, 89337, Note_on_c, 13, 79, 103
14, 89337, Control_c, 13, 64, 40
14, 89339, Note_on_c, 13, 67, 86
14, 89340, Note_on_c, 13, 70, 66
14, 89340, Note_on_c, 13, 76, 63
14, 89341, Control_c, 13, 64, 0
14, 89364, Control_c, 13, 64, 104
14, 89366, Note_on_c, 13, 48, 0
14, 89368, Control_c, 13, 64, 127
14, 89377, Note_on_c, 13, 46, 66
14, 89413, Note_on_c, 13, 44, 63
14, 89414, Note_on_c, 13, 46, 0
14, 89420, Note_on_c, 13, 70, 0
14, 89427, Note_on_c, 13, 67, 0
14, 89432, Note_on_c, 13, 76, 0
14, 89436, Note_on_c, 13, 44, 0
14, 89437, Note_on_c, 13, 79, 0
14, 89446, Note_on_c, 13, 43, 74
14, 89479, Note_on_c, 13, 43, 0
14, 89490, Note_on_c, 13, 80, 91
14, 89491, Note_on_c, 13, 68, 82
14, 89492, Note_on_c, 13, 41, 73
14, 89494, Note_on_c, 13, 72, 86
14, 89495, Note_on_c, 13, 77, 79
14, 89519, Note_on_c, 13, 41, 0
14, 89521, Note_on_c, 13, 39, 67
14, 89525, Note_on_c, 13, 72, 0
14, 89531, Note_on_c, 13, 77, 0
14, 89533, Note_on_c, 13, 68, 0
14, 89556, Note_on_c, 13, 39, 0
14, 89558, Note_on_c, 13, 37, 67
14, 89559, Note_on_c, 13, 80, 0
14, 89596, Note_on_c, 13, 36, 85
14, 89597, Note_on_c, 13, 37, 0
14, 89615, Note_on_c, 13, 36, 0
14, 89635, Note_on_c, 13, 86, 101
14, 89635, Control_c, 13, 64, 104
14, 89637, Note_on_c, 13, 80, 80
14, 89639, Note_on_c, 13, 74, 86
14, 89639, Note_on_c, 13, 77, 82
14, 89640, Control_c, 13, 64, 0
14, 89643, Note_on_c, 13, 35, 78
14, 89664, Note_on_c, 13, 35, 0
14, 89672, Control_c, 13, 64, 127
14, 89679, Note_on_c, 13, 41, 57
14, 89682, Note_on_c, 13, 77, 0
14, 89697, Note_on_c, 13, 74, 0
14, 89697, Note_on_c, 13, 80, 0
14, 89707, Note_on_c, 13, 41, 0
14, 89710, Note_on_c, 13, 44, 70
14, 89720, Note_on_c, 13, 86, 0
14, 89739, Note_on_c, 13, 44, 0
14, 89742, Note_on_c, 13, 50, 63
14, 89751, Note_on_c, 13, 50, 0
14, 89783, Note_on_c, 13, 89, 107
14, 89785, Control_c, 13, 64, 24
14, 89785, Note_on_c, 13, 80, 88
14, 89786, Note_on_c, 13, 77, 96
14, 89786, Note_on_c, 13, 86, 86
14, 89789, Control_c, 13, 64, 0
14, 89790, Note_on_c, 13, 47, 77
14, 89813, Control_c, 13, 64, 127
14, 89817, Note_on_c, 13, 47, 0
14, 89826, Note_on_c, 13, 53, 73
14, 89854, Note_on_c, 13, 53, 0
14, 89857, Note_on_c, 13, 56, 58
14, 89884, Note_on_c, 13, 56, 0
14, 89887, Note_on_c, 13, 62, 59
14, 89897, Note_on_c, 13, 62, 0
14, 89925, Note_on_c, 13, 59, 75
14, 89945, Note_on_c, 13, 59, 0
14, 89960, Note_on_c, 13, 65, 71
14, 89985, Note_on_c, 13, 80, 0
14, 89987, Note_on_c, 13, 89, 0
14, 89989, Note_on_c, 13, 65, 0
14, 89989, Note_on_c, 13, 77, 0
14, 89991, Note_on_c, 13, 68, 65
14, 90008, Note_on_c, 13, 86, 0
14, 90020, Note_on_c, 13, 68, 0
14, 90028, Note_on_c, 13, 74, 65
14, 90037, Note_on_c, 13, 74, 0
14, 90064, Note_on_c, 13, 87, 97
14, 90066, Note_on_c, 13, 75, 89
14, 90068, Note_on_c, 13, 60, 84
14, 90071, Note_on_c, 13, 79, 69
14, 90071, Control_c, 13, 64, 40
14, 90072, Note_on_c, 13, 84, 66
14, 90075, Control_c, 13, 64, 0
14, 90078, Note_on_c, 13, 84, 0
14, 90078, Note_on_c, 13, 79, 0
14, 90091, Note_on_c, 13, 75, 0
14, 90095, Control_c, 13, 64, 88
14, 90099, Control_c, 13, 64, 127
14, 90105, Note_on_c, 13, 63, 64
14, 90114, Note_on_c, 13, 87, 0
14, 90134, Note_on_c, 13, 60, 0
14, 90149, Note_on_c, 13, 67, 58
14, 90168, Note_on_c, 13, 63, 0
14, 90176, Note_on_c, 13, 67, 0
14, 90221, Note_on_c, 13, 94, 97
14, 90221, Control_c, 13, 64, 104
14, 90225, Control_c, 13, 64, 0
14, 90225, Note_on_c, 13, 89, 87
14, 90227, Note_on_c, 13, 41, 80
14, 90241, Note_on_c, 13, 89, 0
14, 90248, Control_c, 13, 64, 88
14, 90253, Control_c, 13, 64, 127
14, 90254, Note_on_c, 13, 41, 0
14, 90261, Note_on_c, 13, 94, 0
14, 90263, Note_on_c, 13, 92, 93
14, 90294, Note_on_c, 13, 92, 0
14, 90298, Note_on_c, 13, 89, 89
14, 90331, Note_on_c, 13, 89, 0
14, 90331, Note_on_c, 13, 84, 78
14, 90347, Note_on_c, 13, 84, 0
14, 90366, Note_on_c, 13, 68, 86
14, 90366, Note_on_c, 13, 82, 79
14, 90367, Note_on_c, 13, 60, 81
14, 90387, Note_on_c, 13, 82, 0
14, 90402, Note_on_c, 13, 80, 86
14, 90430, Note_on_c, 13, 80, 0
14, 90436, Note_on_c, 13, 68, 0
14, 90439, Note_on_c, 13, 77, 82
14, 90468, Note_on_c, 13, 77, 0
14, 90470, Note_on_c, 13, 72, 79
14, 90483, Note_on_c, 13, 72, 0
14, 90501, Note_on_c, 13, 60, 0
14, 90505, Note_on_c, 13, 70, 81
14, 90512, Note_on_c, 13, 65, 59
14, 90519, Note_on_c, 13, 65, 0
14, 90528, Note_on_c, 13, 70, 0
14, 90539, Note_on_c, 13, 68, 79
14, 90571, Note_on_c, 13, 68, 0
14, 90576, Note_on_c, 13, 65, 74
14, 90602, Note_on_c, 13, 65, 0
14, 90606, Note_on_c, 13, 60, 81
14, 90623, Note_on_c, 13, 60, 0
14, 90643, Note_on_c, 13, 58, 78
14, 90646, Note_on_c, 13, 53, 84
14, 90654, Note_on_c, 13, 53, 0
14, 90662, Note_on_c, 13, 58, 0
14, 90675, Note_on_c, 13, 56, 85
14, 90710, Note_on_c, 13, 56, 0
14, 90714, Note_on_c, 13, 53, 73
14, 90729, Note_on_c, 13, 53, 0
14, 90743, Note_on_c, 13, 41, 75
14, 90761, Note_on_c, 13, 41, 0
14, 90797, Control_c, 13, 64, 24
14, 90801, Note_on_c, 13, 98, 101
14, 90802, Note_on_c, 13, 42, 76
14, 90802, Control_c, 13, 64, 0
14, 90805, Note_on_c, 13, 93, 96
14, 90822, Control_c, 13, 64, 56
14, 90826, Control_c, 13, 64, 127
14, 90827, Note_on_c, 13, 98, 0
14, 90829, Note_on_c, 13, 93, 0
14, 90830, Note_on_c, 13, 42, 0
14, 90839, Note_on_c, 13, 96, 97
14, 90870, Note_on_c, 13, 96, 0
14, 90874, Note_on_c, 13, 93, 94
14, 90896, Note_on_c, 13, 93, 0
14, 90899, Note_on_c, 13, 87, 76
14, 90906, Note_on_c, 13, 87, 0
14, 90922, Note_on_c, 13, 54, 71
14, 90931, Note_on_c, 13, 63, 72
14, 90940, Note_on_c, 13, 54, 0
14, 90945, Note_on_c, 13, 86, 90
14, 90947, Note_on_c, 13, 81, 78
14, 90951, Note_on_c, 13, 69, 79
14, 90954, Note_on_c, 13, 63, 0
14, 90961, Note_on_c, 13, 69, 0
14, 90964, Note_on_c, 13, 81, 0
14, 90970, Note_on_c, 13, 86, 0
14, 90981, Note_on_c, 13, 84, 86
14, 91012, Note_on_c, 13, 84, 0
14, 91020, Note_on_c, 13, 81, 85
14, 91049, Note_on_c, 13, 81, 0
14, 91053, Note_on_c, 13, 75, 85
14, 91064, Note_on_c, 13, 75, 0
14, 91089, Note_on_c, 13, 74, 80
14, 91093, Note_on_c, 13, 69, 65
14, 91100, Note_on_c, 13, 69, 0
14, 91108, Note_on_c, 13, 74, 0
14, 91121, Note_on_c, 13, 72, 81
14, 91149, Note_on_c, 13, 72, 0
14, 91161, Note_on_c, 13, 69, 82
14, 91187, Note_on_c, 13, 69, 0
14, 91194, Note_on_c, 13, 63, 72
14, 91201, Note_on_c, 13, 63, 0
14, 91234, Note_on_c, 13, 42, 101
14, 91234, Note_on_c, 13, 30, 80
14, 91237, Note_on_c, 13, 62, 74
14, 91257, Note_on_c, 13, 62, 0
14, 91269, Note_on_c, 13, 60, 73
14, 91301, Note_on_c, 13, 60, 0
14, 91310, Note_on_c, 13, 57, 51
14, 91329, Note_on_c, 13, 30, 0
14, 91341, Note_on_c, 13, 57, 0
14, 91343, Note_on_c, 13, 42, 0
14, 91350, Note_on_c, 13, 51, 70
14, 91365, Note_on_c, 13, 51, 0
14, 91393, Note_on_c, 13, 43, 93
14, 91394, Note_on_c, 13, 31, 77
14, 91407, Control_c, 13, 64, 104
14, 91410, Control_c, 13, 64, 24
14, 91414, Control_c, 13, 64, 0
14, 91451, Control_c, 13, 64, 72
14, 91455, Control_c, 13, 64, 127
14, 91471, Note_on_c, 13, 31, 0
14, 91484, Note_on_c, 13, 43, 0
14, 91554, Note_on_c, 13, 55, 74
14, 91555, Note_on_c, 13, 51, 77
14, 91573, Note_on_c, 13, 55, 0
14, 91586, Note_on_c, 13, 51, 0
14, 91591, Note_on_c, 13, 60, 81
14, 91592, Note_on_c, 13, 48, 77
14, 91612, Note_on_c, 13, 60, 0
14, 91627, Note_on_c, 13, 62, 79
14, 91629, Note_on_c, 13, 44, 63
14, 91632, Note_on_c, 13, 48, 0
14, 91654, Note_on_c, 13, 62, 0
14, 91660, Note_on_c, 13, 63, 74
14, 91672, Note_on_c, 13, 44, 0
14, 91675, Note_on_c, 13, 43, 27
14, 91680, Note_on_c, 13, 63, 0
14, 91681, Note_on_c, 13, 43, 0
14, 91698, Note_on_c, 13, 60, 87
14, 91701, Note_on_c, 13, 55, 68
14, 91718, Note_on_c, 13, 60, 0
14, 91731, Note_on_c, 13, 55, 0
14, 91731, Note_on_c, 13, 63, 76
14, 91733, Note_on_c, 13, 51, 67
14, 91752, Note_on_c, 13, 63, 0
14, 91766, Note_on_c, 13, 66, 77
14, 91771, Note_on_c, 13, 50, 77
14, 91773, Note_on_c, 13, 51, 0
14, 91799, Note_on_c, 13, 67, 82
14, 91801, Note_on_c, 13, 50, 0
14, 91802, Note_on_c, 13, 48, 67
14, 91810, Note_on_c, 13, 48, 0
14, 91810, Note_on_c, 13, 66, 0
14, 91815, Note_on_c, 13, 67, 0
14, 91834, Note_on_c, 13, 63, 86
14, 91841, Note_on_c, 13, 60, 67
14, 91851, Note_on_c, 13, 63, 0
14, 91853, Note_on_c, 13, 60, 0
14, 91870, Note_on_c, 13, 67, 87
14, 91878, Note_on_c, 13, 55, 61
14, 91889, Note_on_c, 13, 67, 0
14, 91901, Note_on_c, 13, 71, 86
14, 91907, Note_on_c, 13, 55, 0
14, 91909, Note_on_c, 13, 53, 61
14, 91926, Note_on_c, 13, 71, 0
14, 91936, Note_on_c, 13, 53, 0
14, 91937, Note_on_c, 13, 51, 64
14, 91938, Note_on_c, 13, 72, 91
14, 91951, Note_on_c, 13, 51, 0
14, 91961, Note_on_c, 13, 72, 0
14, 91977, Note_on_c, 13, 67, 91
14, 91977, Note_on_c, 13, 63, 78
14, 91984, Control_c, 13, 64, 88
14, 91988, Control_c, 13, 64, 0
14, 92016, Control_c, 13, 64, 56
14, 92020, Control_c, 13, 64, 127
14, 92034, Note_on_c, 13, 67, 0
14, 92042, Note_on_c, 13, 63, 0
14, 92128, Note_on_c, 13, 55, 86
14, 92131, Note_on_c, 13, 51, 79
14, 92150, Note_on_c, 13, 55, 0
14, 92159, Note_on_c, 13, 51, 0
14, 92167, Note_on_c, 13, 60, 79
14, 92170, Note_on_c, 13, 48, 70
14, 92187, Note_on_c, 13, 60, 0
14, 92201, Note_on_c, 13, 62, 77
14, 92208, Note_on_c, 13, 44, 59
14, 92210, Note_on_c, 13, 48, 0
14, 92231, Note_on_c, 13, 62, 0
14, 92233, Note_on_c, 13, 63, 78
14, 92241, Note_on_c, 13, 43, 48
14, 92245, Note_on_c, 13, 44, 0
14, 92249, Note_on_c, 13, 43, 0
14, 92255, Note_on_c, 13, 63, 0
14, 92266, Control_c, 13, 64, 88
14, 92270, Control_c, 13, 64, 0
14, 92270, Note_on_c, 13, 60, 89
14, 92274, Note_on_c, 13, 55, 70
14, 92291, Note_on_c, 13, 60, 0
14, 92295, Control_c, 13, 64, 104
14, 92299, Control_c, 13, 64, 127
14, 92303, Note_on_c, 13, 63, 87
14, 92306, Note_on_c, 13, 51, 68
14, 92307, Note_on_c, 13, 55, 0
14, 92325, Note_on_c, 13, 63, 0
14, 92337, Note_on_c, 13, 66, 80
14, 92345, Note_on_c, 13, 50, 68
14, 92349, Note_on_c, 13, 51, 0
14, 92365, Note_on_c, 13, 66, 0
14, 92370, Note_on_c, 13, 67, 85
14, 92371, Note_on_c, 13, 48, 76
14, 92376, Note_on_c, 13, 50, 0
14, 92382, Note_on_c, 13, 48, 0
14, 92390, Note_on_c, 13, 67, 0
14, 92405, Note_on_c, 13, 63, 76
14, 92409, Note_on_c, 13, 60, 75
14, 92421, Note_on_c, 13, 63, 0
14, 92432, Note_on_c, 13, 60, 0
14, 92438, Note_on_c, 13, 67, 86
14, 92439, Note_on_c, 13, 55, 67
14, 92458, Note_on_c, 13, 67, 0
14, 92465, Note_on_c, 13, 55, 0
14, 92470, Note_on_c, 13, 71, 85
14, 92474, Note_on_c, 13, 53, 57
14, 92498, Note_on_c, 13, 71, 0
14, 92501, Note_on_c, 13, 53, 0
14, 92502, Note_on_c, 13, 72, 86
14, 92503, Note_on_c, 13, 51, 57
14, 92515, Note_on_c, 13, 51, 0
14, 92517, Note_on_c, 13, 72, 0
14, 92542, Note_on_c, 13, 75, 94
14, 92546, Note_on_c, 13, 63, 76
14, 92561, Note_on_c, 13, 75, 0
14, 92565, Note_on_c, 13, 63, 0
14, 92686, Control_c, 13, 64, 40
14, 92690, Control_c, 13, 64, 0
14, 92695, Note_on_c, 13, 55, 81
14, 92696, Note_on_c, 13, 51, 80
14, 92714, Control_c, 13, 64, 88
14, 92715, Note_on_c, 13, 55, 0
14, 92718, Control_c, 13, 64, 127
14, 92724, Note_on_c, 13, 51, 0
14, 92732, Note_on_c, 13, 60, 85
14, 92732, Note_on_c, 13, 48, 76
14, 92752, Note_on_c, 13, 60, 0
14, 92767, Note_on_c, 13, 62, 76
14, 92769, Note_on_c, 13, 48, 0
14, 92769, Note_on_c, 13, 44, 63
14, 92795, Note_on_c, 13, 62, 0
14, 92798, Note_on_c, 13, 63, 78
14, 92807, Note_on_c, 13, 43, 66
14, 92813, Note_on_c, 13, 43, 0
14, 92813, Note_on_c, 13, 44, 0
14, 92819, Note_on_c, 13, 63, 0
14, 92838, Note_on_c, 13, 60, 87
14, 92841, Note_on_c, 13, 55, 73
14, 92858, Note_on_c, 13, 60, 0
14, 92871, Note_on_c, 13, 55, 0
14, 92871, Note_on_c, 13, 63, 78
14, 92873, Note_on_c, 13, 51, 72
14, 92892, Note_on_c, 13, 63, 0
14, 92904, Note_on_c, 13, 66, 84
14, 92906, Note_on_c, 13, 51, 0
14, 92907, Note_on_c, 13, 50, 78
14, 92931, Note_on_c, 13, 66, 0
14, 92938, Note_on_c, 13, 67, 79
14, 92939, Note_on_c, 13, 48, 79
14, 92941, Note_on_c, 13, 50, 0
14, 92950, Note_on_c, 13, 48, 0
14, 92956, Note_on_c, 13, 67, 0
14, 92972, Note_on_c, 13, 63, 79
14, 92975, Note_on_c, 13, 60, 73
14, 92989, Note_on_c, 13, 63, 0
14, 93001, Note_on_c, 13, 60, 0
14, 93008, Note_on_c, 13, 55, 65
14, 93009, Note_on_c, 13, 67, 88
14, 93027, Note_on_c, 13, 67, 0
14, 93039, Note_on_c, 13, 71, 84
14, 93045, Note_on_c, 13, 55, 0
14, 93048, Note_on_c, 13, 53, 63
14, 93073, Note_on_c, 13, 72, 88
14, 93078, Note_on_c, 13, 53, 0
14, 93080, Note_on_c, 13, 71, 0
14, 93091, Note_on_c, 13, 72, 0
14, 93111, Note_on_c, 13, 67, 86
14, 93112, Note_on_c, 13, 63, 65
14, 93126, Note_on_c, 13, 67, 0
14, 93140, Note_on_c, 13, 63, 0
14, 93146, Note_on_c, 13, 72, 91
14, 93146, Note_on_c, 13, 60, 72
14, 93164, Note_on_c, 13, 72, 0
14, 93179, Note_on_c, 13, 74, 92
14, 93185, Note_on_c, 13, 56, 57
14, 93186, Note_on_c, 13, 60, 0
14, 93211, Note_on_c, 13, 75, 89
14, 93217, Note_on_c, 13, 74, 0
14, 93219, Note_on_c, 13, 56, 0
14, 93232, Note_on_c, 13, 75, 0
14, 93238, Control_c, 13, 64, 72
14, 93242, Control_c, 13, 64, 24
14, 93247, Control_c, 13, 64, 0
14, 93247, Note_on_c, 13, 72, 92
14, 93249, Note_on_c, 13, 67, 69
14, 93255, Control_c, 13, 64, 56
14, 93259, Control_c, 13, 64, 127
14, 93269, Note_on_c, 13, 72, 0
14, 93279, Note_on_c, 13, 75, 89
14, 93280, Note_on_c, 13, 67, 0
14, 93280, Note_on_c, 13, 63, 64
14, 93300, Note_on_c, 13, 75, 0
14, 93313, Note_on_c, 13, 63, 0
14, 93314, Note_on_c, 13, 78, 88
14, 93314, Note_on_c, 13, 62, 73
14, 93341, Note_on_c, 13, 78, 0
14, 93346, Note_on_c, 13, 79, 87
14, 93348, Note_on_c, 13, 62, 0
14, 93349, Note_on_c, 13, 60, 65
14, 93356, Note_on_c, 13, 60, 0
14, 93364, Note_on_c, 13, 79, 0
14, 93381, Note_on_c, 13, 75, 91
14, 93387, Note_on_c, 13, 72, 56
14, 93399, Note_on_c, 13, 75, 0
14, 93414, Note_on_c, 13, 72, 0
14, 93416, Note_on_c, 13, 79, 91
14, 93416, Note_on_c, 13, 67, 67
14, 93435, Note_on_c, 13, 79, 0
14, 93446, Note_on_c, 13, 83, 90
14, 93451, Note_on_c, 13, 67, 0
14, 93453, Note_on_c, 13, 65, 64
14, 93480, Note_on_c, 13, 83, 0
14, 93481, Note_on_c, 13, 84, 91
14, 93485, Note_on_c, 13, 65, 0
14, 93487, Note_on_c, 13, 63, 37
14, 93495, Note_on_c, 13, 63, 0
14, 93500, Note_on_c, 13, 84, 0
14, 93519, Note_on_c, 13, 79, 90
14, 93522, Note_on_c, 13, 75, 68
14, 93538, Note_on_c, 13, 79, 0
14, 93551, Note_on_c, 13, 75, 0
14, 93553, Note_on_c, 13, 72, 70
14, 93553, Note_on_c, 13, 84, 93
14, 93577, Note_on_c, 13, 84, 0
14, 93583, Note_on_c, 13, 72, 0
14, 93589, Note_on_c, 13, 86, 82
14, 93619, Note_on_c, 13, 87, 87
14, 93627, Note_on_c, 13, 86, 0
14, 93640, Note_on_c, 13, 87, 0
14, 93642, Control_c, 13, 64, 40
14, 93646, Control_c, 13, 64, 0
14, 93652, Note_on_c, 13, 67, 48
14, 93659, Note_on_c, 13, 74, 63
14, 93661, Note_on_c, 13, 67, 0
14, 93661, Note_on_c, 13, 77, 65
14, 93667, Note_on_c, 13, 91, 92
14, 93668, Note_on_c, 13, 86, 86
14, 93671, Control_c, 13, 64, 104
14, 93674, Note_on_c, 13, 79, 84
14, 93675, Note_on_c, 13, 74, 0
14, 93675, Control_c, 13, 64, 127
14, 93679, Note_on_c, 13, 77, 0
14, 93684, Note_on_c, 13, 86, 0
14, 93688, Note_on_c, 13, 91, 0
14, 93698, Note_on_c, 13, 79, 0
14, 93699, Note_on_c, 13, 83, 85
14, 93709, Note_on_c, 13, 77, 77
14, 93722, Note_on_c, 13, 83, 0
14, 93731, Note_on_c, 13, 91, 93
14, 93732, Note_on_c, 13, 86, 86
14, 93733, Note_on_c, 13, 77, 0
14, 93740, Note_on_c, 13, 79, 67
14, 93748, Note_on_c, 13, 86, 0
14, 93755, Note_on_c, 13, 91, 0
14, 93762, Note_on_c, 13, 79, 0
14, 93763, Note_on_c, 13, 83, 89
14, 93769, Note_on_c, 13, 77, 73
14, 93788, Note_on_c, 13, 83, 0
14, 93795, Note_on_c, 13, 77, 0
14, 93797, Note_on_c, 13, 91, 94
14, 93798, Note_on_c, 13, 86, 86
14, 93802, Note_on_c, 13, 79, 79
14, 93814, Note_on_c, 13, 86, 0
14, 93821, Note_on_c, 13, 91, 0
14, 93825, Note_on_c, 13, 79, 0
14, 93829, Note_on_c, 13, 83, 89
14, 93836, Note_on_c, 13, 77, 77
14, 93858, Note_on_c, 13, 83, 0
14, 93859, Note_on_c, 13, 77, 0
14, 93865, Note_on_c, 13, 91, 96
14, 93866, Note_on_c, 13, 86, 86
14, 93866, Note_on_c, 13, 79, 73
14, 93883, Note_on_c, 13, 86, 0
14, 93892, Note_on_c, 13, 79, 0
14, 93892, Note_on_c, 13, 91, 0
14, 93896, Note_on_c, 13, 83, 90
14, 93902, Note_on_c, 13, 77, 78
14, 93927, Note_on_c, 13, 77, 0
14, 93927, Note_on_c, 13, 83, 0
14, 93931, Note_on_c, 13, 79, 73
14, 93932, Note_on_c, 13, 91, 89
14, 93933, Note_on_c, 13, 86, 86
14, 93954, Note_on_c, 13, 86, 0
14, 93959, Note_on_c, 13, 91, 0
14, 93960, Note_on_c, 13, 79, 0
14, 93963, Note_on_c, 13, 83, 90
14, 93968, Note_on_c, 13, 77, 82
14, 93993, Note_on_c, 13, 83, 0
14, 93995, Note_on_c, 13, 77, 0
14, 93999, Note_on_c, 13, 79, 76
14, 93999, Note_on_c, 13, 91, 93
14, 94000, Note_on_c, 13, 86, 86
14, 94022, Note_on_c, 13, 86, 0
14, 94026, Note_on_c, 13, 91, 0
14, 94027, Note_on_c, 13, 79, 0
14, 94030, Note_on_c, 13, 83, 88
14, 94033, Note_on_c, 13, 77, 81
14, 94060, Note_on_c, 13, 77, 0
14, 94062, Note_on_c, 13, 83, 0
14, 94066, Note_on_c, 13, 79, 78
14, 94067, Note_on_c, 13, 91, 93
14, 94068, Note_on_c, 13, 86, 86
14, 94089, Note_on_c, 13, 86, 0
14, 94093, Note_on_c, 13, 91, 0
14, 94093, Note_on_c, 13, 79, 0
14, 94097, Note_on_c, 13, 77, 73
14, 94099, Note_on_c, 13, 83, 91
14, 94128, Note_on_c, 13, 83, 0
14, 94129, Note_on_c, 13, 77, 0
14, 94135, Note_on_c, 13, 91, 91
14, 94136, Note_on_c, 13, 86, 85
14, 94136, Note_on_c, 13, 79, 71
14, 94155, Note_on_c, 13, 86, 0
14, 94161, Note_on_c, 13, 91, 0
14, 94164, Note_on_c, 13, 83, 86
14, 94167, Note_on_c, 13, 79, 0
14, 94176, Note_on_c, 13, 77, 75
14, 94183, Control_c, 13, 64, 88
14, 94187, Control_c, 13, 64, 0
14, 94197, Note_on_c, 13, 83, 0
14, 94205, Note_on_c, 13, 74, 53
14, 94205, Note_on_c, 13, 67, 57
14, 94206, Note_on_c, 13, 91, 103
14, 94207, Note_on_c, 13, 86, 94
14, 94208, Control_c, 13, 64, 56
14, 94212, Control_c, 13, 64, 127
14, 94213, Note_on_c, 13, 67, 0
14, 94213, Note_on_c, 13, 79, 93
14, 94224, Note_on_c, 13, 74, 0
14, 94226, Note_on_c, 13, 86, 0
14, 94226, Note_on_c, 13, 77, 0
14, 94230, Note_on_c, 13, 79, 0
14, 94234, Note_on_c, 13, 91, 0
14, 94241, Note_on_c, 13, 83, 91
14, 94271, Note_on_c, 13, 83, 0
14, 94280, Note_on_c, 13, 91, 86
14, 94281, Note_on_c, 13, 86, 81
14, 94299, Note_on_c, 13, 86, 0
14, 94307, Note_on_c, 13, 91, 0
14, 94311, Note_on_c, 13, 83, 88
14, 94315, Note_on_c, 13, 55, 65
14, 94323, Note_on_c, 13, 55, 0
14, 94326, Note_on_c, 13, 62, 58
14, 94335, Note_on_c, 13, 65, 64
14, 94340, Note_on_c, 13, 83, 0
14, 94348, Note_on_c, 13, 91, 97
14, 94349, Note_on_c, 13, 71, 89
14, 94349, Note_on_c, 13, 86, 90
14, 94355, Note_on_c, 13, 62, 0
14, 94361, Note_on_c, 13, 71, 0
14, 94361, Note_on_c, 13, 65, 0
14, 94369, Note_on_c, 13, 86, 0
14, 94378, Note_on_c, 13, 91, 0
14, 94382, Note_on_c, 13, 83, 88
14, 94414, Note_on_c, 13, 83, 0
14, 94419, Note_on_c, 13, 91, 88
14, 94421, Note_on_c, 13, 86, 77
14, 94439, Note_on_c, 13, 86, 0
14, 94449, Note_on_c, 13, 91, 0
14, 94450, Note_on_c, 13, 83, 87
14, 94456, Note_on_c, 13, 43, 70
14, 94467, Note_on_c, 13, 50, 51
14, 94473, Note_on_c, 13, 43, 0
14, 94475, Note_on_c, 13, 53, 77
14, 94479, Note_on_c, 13, 83, 0
14, 94487, Note_on_c, 13, 91, 101
14, 94488, Note_on_c, 13, 59, 87
14, 94489, Note_on_c, 13, 86, 92
14, 94498, Note_on_c, 13, 50, 0
14, 94501, Note_on_c, 13, 53, 0
14, 94503, Note_on_c, 13, 59, 0
14, 94508, Note_on_c, 13, 86, 0
14, 94516, Note_on_c, 13, 91, 0
14, 94522, Note_on_c, 13, 83, 87
14, 94552, Note_on_c, 13, 83, 0
14, 94560, Note_on_c, 13, 91, 93
14, 94561, Note_on_c, 13, 86, 87
14, 94581, Note_on_c, 13, 86, 0
14, 94591, Note_on_c, 13, 91, 0
14, 94595, Note_on_c, 13, 83, 94
14, 94624, Note_on_c, 13, 83, 0
14, 94632, Note_on_c, 13, 91, 101
14, 94633, Note_on_c, 13, 86, 91
14, 94635, Note_on_c, 13, 43, 89
14, 94635, Note_on_c, 13, 31, 73
14, 94653, Note_on_c, 13, 86, 0
14, 94656, Note_on_c, 13, 31, 0
14, 94656, Note_on_c, 13, 43, 0
14, 94659, Note_on_c, 13, 91, 0
14, 94664, Note_on_c, 13, 83, 88
14, 94698, Note_on_c, 13, 83, 0
14, 94702, Note_on_c, 13, 91, 94
14, 94702, Note_on_c, 13, 86, 84
14, 94724, Note_on_c, 13, 86, 0
14, 94734, Note_on_c, 13, 91, 0
14, 94736, Note_on_c, 13, 83, 94
14, 94756, Note_on_c, 13, 83, 0
14, 94769, Control_c, 13, 64, 40
14, 94773, Control_c, 13, 64, 0
14, 94780, Note_on_c, 13, 96, 103
14, 94782, Note_on_c, 13, 84, 96
14, 94785, Note_on_c, 13, 36, 77
14, 94785, Note_on_c, 13, 24, 77
14, 94786, Note_on_c, 13, 86, 73
14, 94792, Note_on_c, 13, 86, 0
14, 94797, Control_c, 13, 64, 88
14, 94799, Note_on_c, 13, 84, 0
14, 94801, Control_c, 13, 64, 127
14, 94806, Note_on_c, 13, 24, 0
14, 94809, Note_on_c, 13, 96, 0
14, 94810, Note_on_c, 13, 36, 0
14, 95007, Control_c, 13, 64, 88
14, 95011, Control_c, 13, 64, 40
14, 95015, Control_c, 13, 64, 0
14, 102750, Note_on_c, 13, 92, 76
14, 102756, Note_on_c, 13, 80, 56
14, 102780, Note_on_c, 13, 84, 81
14, 102781, Note_on_c, 13, 92, 0
14, 102787, Note_on_c, 13, 80, 0
14, 102787, Note_on_c, 13, 72, 63
14, 102818, Control_c, 13, 64, 40
14, 102822, Control_c, 13, 64, 56
14, 102826, Control_c, 13, 64, 88
14, 102854, Control_c, 13, 64, 104
14, 102857, Note_on_c, 13, 84, 0
14, 102858, Note_on_c, 13, 72, 0
14, 102862, Control_c, 13, 64, 127
14, 102862, Note_on_c, 13, 85, 84
14, 102868, Note_on_c, 13, 73, 50
14, 102886, Control_c, 13, 64, 88
14, 102890, Control_c, 13, 64, 56
14, 102894, Note_on_c, 13, 73, 0
14, 102894, Control_c, 13, 64, 24
14, 102895, Note_on_c, 13, 87, 81
14, 102897, Note_on_c, 13, 85, 0
14, 102898, Control_c, 13, 64, 0
14, 102900, Note_on_c, 13, 75, 63
14, 102935, Control_c, 13, 64, 56
14, 102939, Control_c, 13, 64, 88
14, 102943, Control_c, 13, 64, 127
14, 103003, Note_on_c, 13, 79, 69
14, 103003, Control_c, 13, 64, 104
14, 103004, Note_on_c, 13, 87, 0
14, 103007, Control_c, 13, 64, 88
14, 103011, Control_c, 13, 64, 24
14, 103011, Note_on_c, 13, 67, 42
14, 103015, Note_on_c, 13, 75, 0
14, 103015, Control_c, 13, 64, 0
14, 103048, Control_c, 13, 64, 24
14, 103052, Control_c, 13, 64, 40
14, 103057, Note_on_c, 13, 80, 86
14, 103058, Note_on_c, 13, 67, 0
14, 103060, Note_on_c, 13, 79, 0
14, 103066, Note_on_c, 13, 68, 48
14, 103080, Control_c, 13, 64, 72
14, 103096, Control_c, 13, 64, 88
14, 103111, Note_on_c, 13, 68, 0
14, 103112, Control_c, 13, 64, 40
14, 103114, Note_on_c, 13, 85, 81
14, 103116, Note_on_c, 13, 80, 0
14, 103116, Control_c, 13, 64, 0
14, 103118, Note_on_c, 13, 73, 49
14, 103140, Control_c, 13, 64, 24
14, 103144, Control_c, 13, 64, 72
14, 103148, Control_c, 13, 64, 88
14, 103152, Control_c, 13, 64, 104
14, 103160, Note_on_c, 13, 85, 0
14, 103168, Note_on_c, 13, 84, 78
14, 103172, Note_on_c, 13, 73, 0
14, 103175, Note_on_c, 13, 72, 60
14, 103204, Note_on_c, 13, 72, 0
14, 103218, Note_on_c, 13, 68, 46
14, 103222, Note_on_c, 13, 80, 75
14, 103226, Note_on_c, 13, 84, 0
14, 103270, Note_on_c, 13, 80, 0
14, 103270, Note_on_c, 13, 68, 0
14, 103276, Note_on_c, 13, 77, 76
14, 103280, Note_on_c, 13, 65, 50
14, 103331, Note_on_c, 13, 77, 0
14, 103333, Note_on_c, 13, 65, 0
14, 103335, Note_on_c, 13, 75, 68
14, 103340, Note_on_c, 13, 63, 42
14, 103342, Control_c, 13, 64, 72
14, 103346, Control_c, 13, 64, 24
14, 103350, Control_c, 13, 64, 0
14, 103374, Control_c, 13, 64, 24
14, 103378, Control_c, 13, 64, 88
14, 103382, Control_c, 13, 64, 127
14, 103392, Note_on_c, 13, 75, 0
14, 103396, Note_on_c, 13, 63, 0
14, 103470, Note_on_c, 13, 68, 68
14, 103474, Note_on_c, 13, 65, 55
14, 103478, Note_on_c, 13, 49, 44
14, 103478, Note_on_c, 13, 56, 33
14, 103479, Control_c, 13, 64, 88
14, 103483, Control_c, 13, 64, 24
14, 103487, Control_c, 13, 64, 0
14, 103512, Control_c, 13, 64, 56
14, 103516, Control_c, 13, 64, 127
14, 103524, Note_on_c, 13, 65, 0
14, 103539, Note_on_c, 13, 68, 0
14, 103541, Note_on_c, 13, 49, 0
14, 103545, Note_on_c, 13, 56, 0
14, 103590, Note_on_c, 13, 68, 76
14, 103594, Note_on_c, 13, 63, 49
14, 103599, Control_c, 13, 64, 88
14, 103600, Note_on_c, 13, 56, 29
14, 103603, Control_c, 13, 64, 24
14, 103605, Note_on_c, 13, 48, 43
14, 103607, Control_c, 13, 64, 0
14, 103632, Control_c, 13, 64, 56
14, 103636, Control_c, 13, 64, 127
14, 103650, Note_on_c, 13, 48, 0
14, 103654, Note_on_c, 13, 56, 0
14, 103656, Note_on_c, 13, 63, 0
14, 103684, Note_on_c, 13, 68, 0
14, 103714, Note_on_c, 13, 68, 70
14, 103717, Control_c, 13, 64, 88
14, 103718, Note_on_c, 13, 61, 52
14, 103718, Note_on_c, 13, 56, 32
14, 103721, Control_c, 13, 64, 0
14, 103723, Note_on_c, 13, 46, 39
14, 103745, Control_c, 13, 64, 56
14, 103750, Control_c, 13, 64, 104
14, 103751, Note_on_c, 13, 70, 76
14, 103754, Control_c, 13, 64, 127
14, 103756, Note_on_c, 13, 68, 0
14, 103783, Note_on_c, 13, 68, 74
14, 103787, Note_on_c, 13, 70, 0
14, 103815, Note_on_c, 13, 68, 0
14, 103816, Note_on_c, 13, 46, 0
14, 103816, Note_on_c, 13, 67, 79
14, 103845, Note_on_c, 13, 67, 0
14, 103848, Note_on_c, 13, 68, 73
14, 103870, Note_on_c, 13, 56, 0
14, 103870, Control_c, 13, 64, 72
14, 103874, Control_c, 13, 64, 0
14, 103884, Note_on_c, 13, 70, 77
14, 103897, Note_on_c, 13, 68, 0
14, 103901, Note_on_c, 13, 61, 0
14, 103902, Note_on_c, 13, 44, 37
14, 103911, Control_c, 13, 64, 40
14, 103915, Control_c, 13, 64, 72
14, 103919, Control_c, 13, 64, 104
14, 103920, Note_on_c, 13, 51, 49
14, 103923, Control_c, 13, 64, 127
14, 103928, Note_on_c, 13, 70, 0
14, 103934, Note_on_c, 13, 60, 54
14, 103945, Note_on_c, 13, 63, 42
14, 103947, Note_on_c, 13, 56, 23
14, 103966, Note_on_c, 13, 68, 55
14, 104002, Note_on_c, 13, 73, 72
14, 104003, Control_c, 13, 64, 104
14, 104008, Control_c, 13, 64, 72
14, 104012, Control_c, 13, 64, 24
14, 104016, Control_c, 13, 64, 0
14, 104040, Control_c, 13, 64, 40
14, 104044, Control_c, 13, 64, 104
14, 104048, Control_c, 13, 64, 127
14, 104054, Note_on_c, 13, 73, 0
14, 104073, Note_on_c, 13, 63, 0
14, 104093, Note_on_c, 13, 72, 58
14, 104129, Control_c, 13, 64, 56
14, 104133, Control_c, 13, 64, 0
14, 104174, Note_on_c, 13, 72, 0
14, 104178, Note_on_c, 13, 68, 0
14, 104203, Note_on_c, 13, 60, 0
14, 104230, Note_on_c, 13, 56, 0
14, 104238, Note_on_c, 13, 51, 0
14, 104238, Note_on_c, 13, 44, 0
14, 104697, Control_c, 13, 64, 0
14, 104734, Control_c, 13, 64, 72
14, 104738, Control_c, 13, 64, 127
14, 105013, Note_on_c, 13, 94, 84
14, 105016, Control_c, 13, 64, 88
14, 105018, Note_on_c, 13, 82, 57
14, 105020, Control_c, 13, 64, 24
14, 105024, Control_c, 13, 64, 0
14, 105036, Control_c, 13, 64, 24
14, 105040, Control_c, 13, 64, 88
14, 105043, Note_on_c, 13, 85, 86
14, 105044, Control_c, 13, 64, 127
14, 105046, Note_on_c, 13, 94, 0
14, 105048, Note_on_c, 13, 82, 0
14, 105048, Note_on_c, 13, 73, 65
14, 105060, Control_c, 13, 64, 104
14, 105064, Control_c, 13, 64, 40
14, 105068, Control_c, 13, 64, 0
14, 105080, Control_c, 13, 64, 56
14, 105084, Control_c, 13, 64, 127
14, 105127, Note_on_c, 13, 85, 0
14, 105128, Note_on_c, 13, 87, 86
14, 105129, Note_on_c, 13, 73, 0
14, 105130, Note_on_c, 13, 75, 60
14, 105160, Note_on_c, 13, 75, 0
14, 105164, Note_on_c, 13, 89, 89
14, 105168, Note_on_c, 13, 77, 61
14, 105172, Note_on_c, 13, 87, 0
14, 105189, Control_c, 13, 64, 104
14, 105193, Control_c, 13, 64, 40
14, 105197, Control_c, 13, 64, 0
14, 105218, Control_c, 13, 64, 72
14, 105222, Control_c, 13, 64, 127
14, 105278, Note_on_c, 13, 81, 69
14, 105282, Note_on_c, 13, 89, 0
14, 105287, Note_on_c, 13, 69, 46
14, 105298, Note_on_c, 13, 77, 0
14, 105332, Note_on_c, 13, 82, 82
14, 105334, Note_on_c, 13, 81, 0
14, 105338, Note_on_c, 13, 69, 0
14, 105343, Note_on_c, 13, 70, 51
14, 105391, Note_on_c, 13, 70, 0
14, 105392, Note_on_c, 13, 87, 88
14, 105393, Note_on_c, 13, 82, 0
14, 105398, Note_on_c, 13, 75, 55
14, 105399, Control_c, 13, 64, 40
14, 105403, Control_c, 13, 64, 0
14, 105419, Control_c, 13, 64, 40
14, 105423, Control_c, 13, 64, 104
14, 105427, Control_c, 13, 64, 127
14, 105444, Note_on_c, 13, 85, 78
14, 105445, Note_on_c, 13, 87, 0
14, 105451, Note_on_c, 13, 73, 55
14, 105452, Note_on_c, 13, 75, 0
14, 105491, Note_on_c, 13, 73, 0
14, 105497, Note_on_c, 13, 85, 0
14, 105501, Note_on_c, 13, 70, 48
14, 105504, Note_on_c, 13, 82, 72
14, 105552, Note_on_c, 13, 70, 0
14, 105554, Note_on_c, 13, 82, 0
14, 105557, Note_on_c, 13, 78, 80
14, 105560, Note_on_c, 13, 66, 46
14, 105608, Note_on_c, 13, 78, 0
14, 105625, Note_on_c, 13, 77, 73
14, 105632, Note_on_c, 13, 66, 0
14, 105642, Note_on_c, 13, 65, 42
14, 105669, Control_c, 13, 64, 88
14, 105673, Control_c, 13, 64, 0
14, 105702, Control_c, 13, 64, 88
14, 105706, Control_c, 13, 64, 127
14, 105751, Note_on_c, 13, 69, 48
14, 105762, Note_on_c, 13, 60, 40
14, 105762, Control_c, 13, 64, 88
14, 105766, Control_c, 13, 64, 0
14, 105786, Control_c, 13, 64, 40
14, 105790, Control_c, 13, 64, 104
14, 105794, Control_c, 13, 64, 127
14, 105795, Note_on_c, 13, 69, 0
14, 105805, Note_on_c, 13, 65, 0
14, 105816, Note_on_c, 13, 77, 0
14, 105874, Note_on_c, 13, 60, 0
14, 105877, Note_on_c, 13, 73, 72
14, 105882, Note_on_c, 13, 70, 46
14, 105882, Note_on_c, 13, 61, 45
14, 105883, Control_c, 13, 64, 40
14, 105887, Control_c, 13, 64, 0
14, 105903, Control_c, 13, 64, 40
14, 105907, Note_on_c, 13, 73, 0
14, 105907, Control_c, 13, 64, 104
14, 105909, Note_on_c, 13, 75, 75
14, 105911, Control_c, 13, 64, 127
14, 105935, Note_on_c, 13, 73, 72
14, 105940, Note_on_c, 13, 75, 0
14, 105961, Note_on_c, 13, 72, 86
14, 105965, Note_on_c, 13, 73, 0
14, 105985, Note_on_c, 13, 73, 79
14, 105988, Note_on_c, 13, 72, 0
14, 105993, Note_on_c, 13, 70, 0
14, 106012, Note_on_c, 13, 73, 0
14, 106026, Note_on_c, 13, 75, 80
14, 106027, Note_on_c, 13, 72, 70
14, 106028, Note_on_c, 13, 68, 37
14, 106030, Note_on_c, 13, 58, 42
14, 106031, Note_on_c, 13, 61, 0
14, 106044, Control_c, 13, 64, 88
14, 106048, Control_c, 13, 64, 0
14, 106058, Note_on_c, 13, 72, 0
14, 106073, Control_c, 13, 64, 104
14, 106077, Control_c, 13, 64, 127
14, 106081, Note_on_c, 13, 75, 0
14, 106087, Note_on_c, 13, 68, 0
14, 106105, Note_on_c, 13, 77, 87
14, 106108, Note_on_c, 13, 73, 49
14, 106130, Note_on_c, 13, 73, 0
14, 106151, Note_on_c, 13, 77, 0
14, 106185, Note_on_c, 13, 58, 0
14, 106201, Note_on_c, 13, 77, 80
14, 106203, Note_on_c, 13, 67, 49
14, 106205, Note_on_c, 13, 73, 46
14, 106211, Note_on_c, 13, 51, 36
14, 106234, Control_c, 13, 64, 56
14, 106238, Control_c, 13, 64, 0
14, 106274, Control_c, 13, 64, 72
14, 106278, Control_c, 13, 64, 127
14, 106317, Note_on_c, 13, 77, 0
14, 106398, Note_on_c, 13, 73, 0
14, 106412, Note_on_c, 13, 79, 64
14, 106434, Note_on_c, 13, 79, 0
14, 106445, Note_on_c, 13, 77, 69
14, 106470, Note_on_c, 13, 77, 0
14, 106480, Note_on_c, 13, 75, 64
14, 106496, Note_on_c, 13, 72, 53
14, 106504, Control_c, 13, 64, 72
14, 106508, Control_c, 13, 64, 0
14, 106536, Control_c, 13, 64, 56
14, 106537, Note_on_c, 13, 72, 0
14, 106540, Control_c, 13, 64, 127
14, 106610, Note_on_c, 13, 75, 0
14, 106618, Note_on_c, 13, 73, 53
14, 106624, Note_on_c, 13, 70, 46
14, 106633, Note_on_c, 13, 67, 0
14, 106674, Note_on_c, 13, 70, 0
14, 106698, Note_on_c, 13, 73, 0
14, 106710, Note_on_c, 13, 51, 0
14, 106761, Note_on_c, 13, 71, 49
14, 106762, Note_on_c, 13, 68, 34
14, 106766, Note_on_c, 13, 52, 35
14, 106786, Control_c, 13, 64, 104
14, 106790, Control_c, 13, 64, 88
14, 106794, Control_c, 13, 64, 56
14, 106799, Control_c, 13, 64, 0
14, 106835, Control_c, 13, 64, 56
14, 106839, Control_c, 13, 64, 127
14, 106854, Note_on_c, 13, 52, 0
14, 106860, Note_on_c, 13, 68, 0
14, 106861, Note_on_c, 13, 71, 0
14, 107085, Control_c, 13, 64, 72
14, 107089, Control_c, 13, 64, 0
14, 107262, Control_c, 13, 64, 72
14, 107266, Control_c, 13, 64, 127
14, 107382, Note_on_c, 13, 52, 66
14, 107389, Note_on_c, 13, 40, 52
14, 107393, Control_c, 13, 64, 72
14, 107397, Control_c, 13, 64, 127
14, 107410, Note_on_c, 13, 52, 0
14, 107418, Note_on_c, 13, 56, 74
14, 107419, Note_on_c, 13, 40, 0
14, 107422, Note_on_c, 13, 44, 47
14, 107443, Note_on_c, 13, 56, 0
14, 107446, Note_on_c, 13, 44, 0
14, 107451, Note_on_c, 13, 59, 82
14, 107456, Note_on_c, 13, 47, 53
14, 107483, Note_on_c, 13, 47, 0
14, 107484, Note_on_c, 13, 63, 75
14, 107487, Note_on_c, 13, 51, 60
14, 107491, Note_on_c, 13, 59, 0
14, 107495, Note_on_c, 13, 51, 0
14, 107504, Note_on_c, 13, 63, 0
14, 107517, Note_on_c, 13, 64, 87
14, 107523, Note_on_c, 13, 52, 63
14, 107544, Note_on_c, 13, 64, 0
14, 107549, Control_c, 13, 64, 104
14, 107550, Note_on_c, 13, 52, 0
14, 107550, Note_on_c, 13, 68, 86
14, 107553, Control_c, 13, 64, 0
14, 107554, Note_on_c, 13, 56, 59
14, 107571, Control_c, 13, 64, 40
14, 107575, Control_c, 13, 64, 104
14, 107577, Note_on_c, 13, 68, 0
14, 107578, Control_c, 13, 64, 127
14, 107582, Note_on_c, 13, 56, 0
14, 107582, Note_on_c, 13, 71, 90
14, 107587, Note_on_c, 13, 59, 69
14, 107617, Note_on_c, 13, 75, 85
14, 107618, Note_on_c, 13, 59, 0
14, 107622, Note_on_c, 13, 63, 70
14, 107625, Note_on_c, 13, 71, 0
14, 107630, Note_on_c, 13, 63, 0
14, 107634, Note_on_c, 13, 75, 0
14, 107650, Note_on_c, 13, 76, 86
14, 107655, Note_on_c, 13, 64, 61
14, 107668, Note_on_c, 13, 76, 0
14, 107676, Note_on_c, 13, 64, 0
14, 107681, Note_on_c, 13, 80, 91
14, 107684, Note_on_c, 13, 68, 58
14, 107703, Note_on_c, 13, 80, 0
14, 107710, Note_on_c, 13, 68, 0
14, 107712, Note_on_c, 13, 83, 92
14, 107719, Note_on_c, 13, 71, 65
14, 107735, Note_on_c, 13, 83, 0
14, 107739, Note_on_c, 13, 71, 0
14, 107743, Note_on_c, 13, 87, 96
14, 107748, Note_on_c, 13, 75, 75
14, 107770, Note_on_c, 13, 75, 0
14, 107771, Note_on_c, 13, 87, 0
14, 107783, Note_on_c, 13, 86, 98
14, 107785, Control_c, 13, 64, 104
14, 107785, Note_on_c, 13, 74, 73
14, 107789, Control_c, 13, 64, 40
14, 107792, Control_c, 13, 64, 0
14, 107815, Note_on_c, 13, 74, 0
14, 107815, Control_c, 13, 64, 72
14, 107816, Note_on_c, 13, 80, 85
14, 107818, Note_on_c, 13, 68, 57
14, 107819, Control_c, 13, 64, 127
14, 107829, Note_on_c, 13, 86, 0
14, 107840, Note_on_c, 13, 80, 0
14, 107846, Note_on_c, 13, 81, 84
14, 107851, Note_on_c, 13, 69, 61
14, 107869, Note_on_c, 13, 81, 0
14, 107877, Note_on_c, 13, 68, 0
14, 107877, Note_on_c, 13, 82, 89
14, 107879, Note_on_c, 13, 69, 0
14, 107884, Note_on_c, 13, 70, 70
14, 107904, Note_on_c, 13, 70, 0
14, 107906, Note_on_c, 13, 82, 0
14, 107914, Note_on_c, 13, 71, 67
14, 107914, Note_on_c, 13, 83, 88
14, 107917, Control_c, 13, 64, 104
14, 107920, Control_c, 13, 64, 24
14, 107924, Control_c, 13, 64, 0
14, 107935, Note_on_c, 13, 71, 0
14, 107942, Control_c, 13, 64, 56
14, 107945, Control_c, 13, 64, 127
14, 107947, Note_on_c, 13, 76, 92
14, 107949, Note_on_c, 13, 64, 53
14, 107950, Note_on_c, 13, 83, 0
14, 107971, Note_on_c, 13, 64, 0
14, 107976, Note_on_c, 13, 76, 0
14, 107978, Note_on_c, 13, 80, 89
14, 107980, Note_on_c, 13, 68, 50
14, 107997, Note_on_c, 13, 68, 0
14, 108008, Note_on_c, 13, 80, 0
14, 108010, Note_on_c, 13, 71, 89
14, 108018, Note_on_c, 13, 59, 57
14, 108039, Note_on_c, 13, 59, 0
14, 108041, Note_on_c, 13, 71, 0
14, 108044, Control_c, 13, 64, 56
14, 108046, Note_on_c, 13, 76, 88
14, 108047, Note_on_c, 13, 64, 73
14, 108047, Control_c, 13, 64, 0
14, 108065, Control_c, 13, 64, 40
14, 108069, Control_c, 13, 64, 104
14, 108072, Note_on_c, 13, 64, 0
14, 108072, Control_c, 13, 64, 127
14, 108073, Note_on_c, 13, 76, 0
14, 108079, Note_on_c, 13, 68, 81
14, 108079, Note_on_c, 13, 56, 58
14, 108103, Note_on_c, 13, 68, 0
14, 108108, Note_on_c, 13, 56, 0
14, 108110, Note_on_c, 13, 69, 84
14, 108114, Note_on_c, 13, 57, 61
14, 108135, Note_on_c, 13, 69, 0
14, 108144, Note_on_c, 13, 57, 0
14, 108144, Note_on_c, 13, 70, 84
14, 108149, Note_on_c, 13, 58, 71
14, 108171, Note_on_c, 13, 58, 0
14, 108175, Note_on_c, 13, 70, 0
14, 108180, Note_on_c, 13, 59, 66
14, 108180, Note_on_c, 13, 71, 86
14, 108189, Control_c, 13, 64, 56
14, 108192, Control_c, 13, 64, 0
14, 108201, Note_on_c, 13, 59, 0
14, 108210, Note_on_c, 13, 71, 0
14, 108211, Note_on_c, 13, 68, 74
14, 108212, Note_on_c, 13, 56, 56
14, 108214, Control_c, 13, 64, 88
14, 108218, Control_c, 13, 64, 127
14, 108241, Note_on_c, 13, 56, 0
14, 108244, Note_on_c, 13, 63, 76
14, 108247, Note_on_c, 13, 68, 0
14, 108250, Note_on_c, 13, 51, 56
14, 108274, Note_on_c, 13, 63, 0
14, 108277, Note_on_c, 13, 59, 82
14, 108281, Note_on_c, 13, 51, 0
14, 108283, Note_on_c, 13, 47, 60
14, 108290, Note_on_c, 13, 47, 0
14, 108294, Note_on_c, 13, 59, 0
14, 108325, Note_on_c, 13, 52, 98
14, 108330, Note_on_c, 13, 40, 64
14, 108356, Control_c, 13, 64, 104
14, 108359, Control_c, 13, 64, 72
14, 108363, Control_c, 13, 64, 56
14, 108366, Control_c, 13, 64, 0
14, 108403, Control_c, 13, 64, 24
14, 108406, Control_c, 13, 64, 88
14, 108409, Control_c, 13, 64, 127
14, 108492, Note_on_c, 13, 40, 0
14, 108495, Note_on_c, 13, 52, 0
14, 108504, Note_on_c, 13, 55, 80
14, 108507, Note_on_c, 13, 43, 50
14, 108530, Note_on_c, 13, 55, 0
14, 108534, Note_on_c, 13, 43, 0
14, 108537, Note_on_c, 13, 56, 76
14, 108538, Control_c, 13, 64, 72
14, 108539, Note_on_c, 13, 44, 56
14, 108540, Control_c, 13, 64, 0
14, 108559, Control_c, 13, 64, 56
14, 108563, Control_c, 13, 64, 127
14, 108568, Note_on_c, 13, 44, 0
14, 108572, Note_on_c, 13, 61, 78
14, 108575, Note_on_c, 13, 49, 55
14, 108578, Note_on_c, 13, 56, 0
14, 108591, Note_on_c, 13, 61, 0
14, 108606, Note_on_c, 13, 49, 0
14, 108606, Note_on_c, 13, 62, 86
14, 108608, Note_on_c, 13, 50, 72
14, 108615, Note_on_c, 13, 50, 0
14, 108627, Note_on_c, 13, 62, 0
14, 108640, Note_on_c, 13, 67, 86
14, 108643, Note_on_c, 13, 55, 73
14, 108664, Note_on_c, 13, 67, 0
14, 108666, Note_on_c, 13, 55, 0
14, 108674, Note_on_c, 13, 68, 88
14, 108675, Control_c, 13, 64, 56
14, 108676, Note_on_c, 13, 56, 67
14, 108679, Control_c, 13, 64, 0
14, 108697, Control_c, 13, 64, 88
14, 108701, Control_c, 13, 64, 127
14, 108706, Note_on_c, 13, 68, 0
14, 108707, Note_on_c, 13, 73, 86
14, 108709, Note_on_c, 13, 56, 0
14, 108709, Note_on_c, 13, 61, 65
14, 108727, Note_on_c, 13, 73, 0
14, 108744, Note_on_c, 13, 74, 88
14, 108744, Note_on_c, 13, 62, 71
14, 108746, Note_on_c, 13, 61, 0
14, 108754, Note_on_c, 13, 62, 0
14, 108765, Note_on_c, 13, 74, 0
14, 108780, Note_on_c, 13, 79, 94
14, 108782, Note_on_c, 13, 67, 61
14, 108804, Note_on_c, 13, 67, 0
14, 108806, Note_on_c, 13, 79, 0
14, 108817, Note_on_c, 13, 80, 90
14, 108820, Note_on_c, 13, 68, 60
14, 108841, Note_on_c, 13, 68, 0
14, 108845, Note_on_c, 13, 80, 0
14, 108860, Note_on_c, 13, 86, 92
14, 108864, Note_on_c, 13, 74, 78
14, 108883, Note_on_c, 13, 74, 0
14, 108892, Note_on_c, 13, 86, 0
14, 108913, Note_on_c, 13, 87, 94
14, 108918, Note_on_c, 13, 75, 76
14, 108955, Control_c, 13, 64, 72
14, 108958, Control_c, 13, 64, 0
14, 108980, Control_c, 13, 64, 104
14, 108984, Control_c, 13, 64, 127
14, 108994, Note_on_c, 13, 75, 0
14, 109003, Note_on_c, 13, 87, 0
14, 109079, Note_on_c, 13, 63, 84
14, 109203, Note_on_c, 13, 49, 46
14, 109220, Control_c, 13, 64, 88
14, 109223, Control_c, 13, 64, 40
14, 109227, Control_c, 13, 64, 0
14, 109235, Note_on_c, 13, 63, 0
14, 109237, Note_on_c, 13, 65, 71
14, 109249, Control_c, 13, 64, 40
14, 109252, Control_c, 13, 64, 127
14, 109265, Note_on_c, 13, 63, 71
14, 109269, Note_on_c, 13, 65, 0
14, 109291, Note_on_c, 13, 63, 0
14, 109293, Note_on_c, 13, 62, 76
14, 109296, Note_on_c, 13, 51, 36
14, 109319, Note_on_c, 13, 62, 0
14, 109319, Note_on_c, 13, 63, 76
14, 109338, Note_on_c, 13, 63, 0
14, 109345, Note_on_c, 13, 65, 79
14, 109369, Note_on_c, 13, 65, 0
14, 109371, Note_on_c, 13, 67, 73
14, 109380, Control_c, 13, 64, 104
14, 109383, Control_c, 13, 64, 40
14, 109387, Control_c, 13, 64, 0
14, 109389, Note_on_c, 13, 68, 71
14, 109389, Note_on_c, 13, 58, 38
14, 109395, Note_on_c, 13, 67, 0
14, 109409, Control_c, 13, 64, 72
14, 109412, Control_c, 13, 64, 127
14, 109416, Note_on_c, 13, 70, 76
14, 109426, Note_on_c, 13, 68, 0
14, 109429, Note_on_c, 13, 70, 0
14, 109441, Note_on_c, 13, 72, 79
14, 109459, Note_on_c, 13, 72, 0
14, 109460, Note_on_c, 13, 73, 79
14, 109479, Note_on_c, 13, 55, 40
14, 109483, Note_on_c, 13, 75, 85
14, 109486, Note_on_c, 13, 73, 0
14, 109500, Note_on_c, 13, 75, 0
14, 109506, Note_on_c, 13, 77, 89
14, 109526, Note_on_c, 13, 55, 0
14, 109528, Note_on_c, 13, 77, 0
14, 109528, Note_on_c, 13, 79, 86
14, 109531, Note_on_c, 13, 51, 0
14, 109542, Note_on_c, 13, 49, 0
14, 109550, Note_on_c, 13, 80, 89
14, 109553, Note_on_c, 13, 79, 0
14, 109563, Note_on_c, 13, 58, 0
14, 109576, Note_on_c, 13, 80, 0
14, 109576, Note_on_c, 13, 82, 80
14, 109610, Note_on_c, 13, 84, 93
14, 109611, Note_on_c, 13, 82, 0
14, 109621, Note_on_c, 13, 48, 42
14, 109630, Control_c, 13, 64, 104
14, 109634, Control_c, 13, 64, 72
14, 109637, Control_c, 13, 64, 24
14, 109641, Control_c, 13, 64, 0
14, 109666, Control_c, 13, 64, 56
14, 109670, Control_c, 13, 64, 127
14, 109699, Note_on_c, 13, 48, 0
14, 109701, Note_on_c, 13, 55, 37
14, 109759, Note_on_c, 13, 55, 0
14, 109773, Note_on_c, 13, 58, 40
14, 109843, Note_on_c, 13, 58, 0
14, 109853, Note_on_c, 13, 64, 43
14, 109881, Note_on_c, 13, 64, 0
14, 109920, Note_on_c, 13, 84, 0
14, 109943, Note_on_c, 13, 82, 67
14, 109949, Control_c, 13, 64, 104
14, 109951, Note_on_c, 13, 65, 33
14, 109953, Control_c, 13, 64, 40
14, 109957, Control_c, 13, 64, 0
14, 109958, Note_on_c, 13, 53, 30
14, 109965, Note_on_c, 13, 82, 0
14, 109966, Note_on_c, 13, 84, 73
14, 109979, Control_c, 13, 64, 127
14, 109990, Note_on_c, 13, 82, 56
14, 109991, Note_on_c, 13, 84, 0
14, 110008, Note_on_c, 13, 80, 76
14, 110010, Note_on_c, 13, 82, 0
14, 110031, Note_on_c, 13, 82, 71
14, 110033, Note_on_c, 13, 80, 0
14, 110045, Note_on_c, 13, 56, 45
14, 110050, Note_on_c, 13, 82, 0
14, 110054, Note_on_c, 13, 84, 76
14, 110076, Note_on_c, 13, 80, 70
14, 110077, Note_on_c, 13, 84, 0
14, 110097, Note_on_c, 13, 80, 0
14, 110100, Note_on_c, 13, 79, 74
14, 110119, Note_on_c, 13, 79, 0
14, 110123, Note_on_c, 13, 80, 72
14, 110136, Note_on_c, 13, 60, 42
14, 110145, Note_on_c, 13, 79, 77
14, 110146, Note_on_c, 13, 80, 0
14, 110165, Note_on_c, 13, 79, 0
14, 110168, Note_on_c, 13, 77, 74
14, 110190, Note_on_c, 13, 77, 0
14, 110191, Note_on_c, 13, 79, 77
14, 110212, Note_on_c, 13, 79, 0
14, 110214, Note_on_c, 13, 82, 70
14, 110219, Note_on_c, 13, 60, 0
14, 110241, Note_on_c, 13, 80, 72
14, 110246, Note_on_c, 13, 82, 0
14, 110254, Note_on_c, 13, 80, 0
14, 110281, Note_on_c, 13, 68, 67
14, 110282, Note_on_c, 13, 65, 0
14, 110289, Note_on_c, 13, 61, 35
14, 110309, Control_c, 13, 64, 104
14, 110313, Control_c, 13, 64, 40
14, 110316, Control_c, 13, 64, 0
14, 110329, Note_on_c, 13, 53, 0
14, 110331, Control_c, 13, 64, 40
14, 110334, Control_c, 13, 64, 127
14, 110348, Note_on_c, 13, 61, 0
14, 110348, Note_on_c, 13, 56, 0
14, 110362, Note_on_c, 13, 68, 0
14, 110380, Note_on_c, 13, 70, 70
14, 110407, Note_on_c, 13, 70, 0
14, 110419, Note_on_c, 13, 71, 73
14, 110434, Note_on_c, 13, 62, 35
14, 110435, Control_c, 13, 64, 88
14, 110436, Note_on_c, 13, 52, 38
14, 110440, Control_c, 13, 64, 0
14, 110465, Control_c, 13, 64, 72
14, 110469, Control_c, 13, 64, 127
14, 110475, Note_on_c, 13, 71, 0
14, 110505, Note_on_c, 13, 78, 70
14, 110509, Note_on_c, 13, 56, 35
14, 110529, Note_on_c, 13, 78, 0
14, 110532, Note_on_c, 13, 76, 78
14, 110552, Note_on_c, 13, 76, 0
14, 110555, Note_on_c, 13, 80, 67
14, 110575, Note_on_c, 13, 78, 80
14, 110580, Note_on_c, 13, 80, 0
14, 110594, Note_on_c, 13, 78, 0
14, 110595, Note_on_c, 13, 76, 84
14, 110606, Note_on_c, 13, 76, 0
14, 110612, Note_on_c, 13, 59, 35
14, 110618, Note_on_c, 13, 76, 84
14, 110630, Note_on_c, 13, 56, 0
14, 110658, Control_c, 13, 64, 88
14, 110661, Control_c, 13, 64, 24
14, 110665, Control_c, 13, 64, 0
14, 110676, Control_c, 13, 64, 72
14, 110679, Control_c, 13, 64, 127
14, 110690, Note_on_c, 13, 56, 46
14, 110694, Note_on_c, 13, 59, 0
14, 110694, Note_on_c, 13, 52, 0
14, 110722, Note_on_c, 13, 62, 0
14, 110753, Note_on_c, 13, 56, 0
14, 110759, Note_on_c, 13, 50, 50
14, 110763, Control_c, 13, 64, 40
14, 110766, Control_c, 13, 64, 0
14, 110781, Control_c, 13, 64, 56
14, 110785, Control_c, 13, 64, 127
14, 110790, Note_on_c, 13, 78, 66
14, 110792, Note_on_c, 13, 76, 0
14, 110818, Note_on_c, 13, 78, 0
14, 110821, Note_on_c, 13, 76, 84
14, 110827, Note_on_c, 13, 56, 51
14, 110853, Note_on_c, 13, 75, 87
14, 110854, Note_on_c, 13, 76, 0
14, 110878, Note_on_c, 13, 75, 0
14, 110884, Note_on_c, 13, 76, 91
14, 110914, Note_on_c, 13, 59, 32
14, 110915, Note_on_c, 13, 78, 80
14, 110918, Note_on_c, 13, 76, 0
14, 110931, Note_on_c, 13, 56, 0
14, 110952, Note_on_c, 13, 78, 0
14, 110952, Note_on_c, 13, 80, 84
14, 110980, Note_on_c, 13, 80, 0
14, 110987, Note_on_c, 13, 50, 0
14, 110987, Note_on_c, 13, 81, 88
14, 110987, Note_on_c, 13, 56, 46
14, 110997, Note_on_c, 13, 59, 0
14, 111019, Note_on_c, 13, 83, 92
14, 111024, Note_on_c, 13, 81, 0
14, 111065, Note_on_c, 13, 56, 0
14, 111068, Note_on_c, 13, 85, 94
14, 111069, Note_on_c, 13, 83, 0
14, 111083, Note_on_c, 13, 49, 44
14, 111100, Control_c, 13, 64, 56
14, 111104, Control_c, 13, 64, 0
14, 111137, Control_c, 13, 64, 127
14, 111153, Note_on_c, 13, 49, 0
14, 111160, Note_on_c, 13, 56, 38
14, 111225, Note_on_c, 13, 56, 0
14, 111233, Note_on_c, 13, 59, 49
14, 111301, Note_on_c, 13, 59, 0
14, 111313, Note_on_c, 13, 65, 32
14, 111360, Note_on_c, 13, 65, 0
14, 111369, Note_on_c, 13, 85, 0
14, 111411, Note_on_c, 13, 83, 74
14, 111412, Control_c, 13, 64, 88
14, 111415, Note_on_c, 13, 66, 30
14, 111416, Note_on_c, 13, 54, 33
14, 111416, Control_c, 13, 64, 0
14, 111437, Note_on_c, 13, 83, 0
14, 111438, Control_c, 13, 64, 88
14, 111440, Note_on_c, 13, 85, 72
14, 111442, Control_c, 13, 64, 127
14, 111463, Note_on_c, 13, 83, 73
14, 111468, Note_on_c, 13, 85, 0
14, 111483, Note_on_c, 13, 83, 0
14, 111484, Note_on_c, 13, 81, 69
14, 111506, Note_on_c, 13, 83, 74
14, 111515, Note_on_c, 13, 81, 0
14, 111516, Note_on_c, 13, 57, 37
14, 111529, Note_on_c, 13, 85, 75
14, 111533, Note_on_c, 13, 83, 0
14, 111548, Note_on_c, 13, 85, 0
14, 111550, Note_on_c, 13, 81, 77
14, 111571, Note_on_c, 13, 81, 0
14, 111576, Note_on_c, 13, 80, 81
14, 111592, Note_on_c, 13, 80, 0
14, 111593, Note_on_c, 13, 61, 45
14, 111597, Note_on_c, 13, 81, 75
14, 111620, Note_on_c, 13, 80, 79
14, 111625, Note_on_c, 13, 81, 0
14, 111642, Note_on_c, 13, 80, 0
14, 111643, Note_on_c, 13, 78, 75
14, 111650, Note_on_c, 13, 61, 0
14, 111664, Note_on_c, 13, 80, 74
14, 111665, Note_on_c, 13, 78, 0
14, 111691, Note_on_c, 13, 83, 71
14, 111692, Note_on_c, 13, 80, 0
14, 111716, Note_on_c, 13, 81, 77
14, 111719, Note_on_c, 13, 83, 0
14, 111733, Note_on_c, 13, 81, 0
14, 111754, Note_on_c, 13, 69, 74
14, 111760, Note_on_c, 13, 66, 0
14, 111760, Note_on_c, 13, 62, 45
14, 111771, Note_on_c, 13, 57, 0
14, 111772, Control_c, 13, 64, 72
14, 111776, Control_c, 13, 64, 0
14, 111793, Note_on_c, 13, 54, 0
14, 111797, Control_c, 13, 64, 88
14, 111801, Control_c, 13, 64, 127
14, 111816, Note_on_c, 13, 62, 0
14, 111829, Note_on_c, 13, 69, 0
14, 111860, Note_on_c, 13, 70, 76
14, 111895, Note_on_c, 13, 70, 0
14, 111899, Note_on_c, 13, 72, 82
14, 111904, Note_on_c, 13, 63, 26
14, 111908, Note_on_c, 13, 53, 34
14, 111910, Control_c, 13, 64, 24
14, 111914, Control_c, 13, 64, 0
14, 111932, Control_c, 13, 64, 40
14, 111935, Control_c, 13, 64, 127
14, 111939, Note_on_c, 13, 72, 0
14, 111979, Note_on_c, 13, 78, 77
14, 111992, Note_on_c, 13, 57, 39
14, 112002, Note_on_c, 13, 78, 0
14, 112010, Note_on_c, 13, 77, 86
14, 112033, Note_on_c, 13, 77, 0
14, 112036, Note_on_c, 13, 80, 67
14, 112055, Note_on_c, 13, 78, 80
14, 112062, Note_on_c, 13, 80, 0
14, 112078, Note_on_c, 13, 78, 0
14, 112080, Note_on_c, 13, 77, 84
14, 112093, Note_on_c, 13, 77, 0
14, 112093, Note_on_c, 13, 60, 38
14, 112105, Note_on_c, 13, 77, 88
14, 112107, Note_on_c, 13, 57, 0
14, 112131, Control_c, 13, 64, 40
14, 112135, Control_c, 13, 64, 0
14, 112149, Control_c, 13, 64, 72
14, 112152, Control_c, 13, 64, 127
14, 112168, Note_on_c, 13, 53, 0
14, 112170, Note_on_c, 13, 60, 0
14, 112172, Note_on_c, 13, 57, 46
14, 112198, Note_on_c, 13, 63, 0
14, 112238, Note_on_c, 13, 51, 55
14, 112240, Control_c, 13, 64, 72
14, 112243, Control_c, 13, 64, 0
14, 112245, Note_on_c, 13, 57, 0
14, 112258, Control_c, 13, 64, 72
14, 112262, Control_c, 13, 64, 127
14, 112267, Note_on_c, 13, 78, 63
14, 112289, Note_on_c, 13, 78, 0
14, 112290, Note_on_c, 13, 77, 71
14, 112310, Note_on_c, 13, 76, 77
14, 112312, Note_on_c, 13, 77, 0
14, 112313, Note_on_c, 13, 77, 0
14, 112313, Note_on_c, 13, 57, 38
14, 112339, Note_on_c, 13, 76, 0
14, 112340, Note_on_c, 13, 77, 81
14, 112372, Note_on_c, 13, 77, 0
14, 112376, Note_on_c, 13, 79, 84
14, 112388, Note_on_c, 13, 60, 44
14, 112396, Note_on_c, 13, 57, 0
14, 112409, Note_on_c, 13, 81, 88
14, 112417, Note_on_c, 13, 79, 0
14, 112430, Note_on_c, 13, 81, 0
14, 112449, Note_on_c, 13, 82, 91
14, 112450, Note_on_c, 13, 57, 46
14, 112479, Note_on_c, 13, 82, 0
14, 112481, Note_on_c, 13, 57, 0
14, 112485, Note_on_c, 13, 84, 94
14, 112491, Note_on_c, 13, 51, 0
14, 112525, Note_on_c, 13, 84, 0
14, 112535, Note_on_c, 13, 85, 96
14, 112541, Note_on_c, 13, 60, 0
14, 112543, Note_on_c, 13, 49, 51
14, 112545, Control_c, 13, 64, 40
14, 112549, Control_c, 13, 64, 0
14, 112574, Control_c, 13, 64, 88
14, 112578, Control_c, 13, 64, 127
14, 112590, Note_on_c, 13, 85, 0
14, 112612, Note_on_c, 13, 53, 48
14, 112648, Note_on_c, 13, 82, 89
14, 112667, Note_on_c, 13, 82, 0
14, 112685, Note_on_c, 13, 97, 108
14, 112689, Note_on_c, 13, 58, 42
14, 112705, Note_on_c, 13, 97, 0
14, 112755, Note_on_c, 13, 49, 0
14, 112760, Note_on_c, 13, 53, 0
14, 112766, Note_on_c, 13, 61, 38
14, 112773, Note_on_c, 13, 58, 0
14, 112787, Note_on_c, 13, 61, 0
14, 112850, Note_on_c, 13, 96, 94
14, 112855, Note_on_c, 13, 51, 36
14, 112856, Note_on_c, 13, 66, 45
14, 112865, Control_c, 13, 64, 104
14, 112868, Control_c, 13, 64, 0
14, 112890, Control_c, 13, 64, 88
14, 112893, Control_c, 13, 64, 127
14, 112904, Note_on_c, 13, 96, 0
14, 112914, Note_on_c, 13, 94, 71
14, 112931, Note_on_c, 13, 66, 0
14, 112933, Note_on_c, 13, 90, 75
14, 112937, Note_on_c, 13, 94, 0
14, 112938, Note_on_c, 13, 51, 0
14, 112949, Note_on_c, 13, 58, 38
14, 112954, Note_on_c, 13, 87, 70
14, 112963, Note_on_c, 13, 90, 0
14, 112968, Note_on_c, 13, 87, 0
14, 112972, Note_on_c, 13, 84, 65
14, 112978, Note_on_c, 13, 84, 0
14, 112992, Note_on_c, 13, 82, 42
14, 112999, Note_on_c, 13, 82, 0
14, 113007, Note_on_c, 13, 78, 74
14, 113027, Note_on_c, 13, 78, 0
14, 113027, Note_on_c, 13, 75, 75
14, 113043, Note_on_c, 13, 75, 0
14, 113046, Note_on_c, 13, 72, 73
14, 113050, Note_on_c, 13, 58, 0
14, 113052, Note_on_c, 13, 60, 36
14, 113131, Note_on_c, 13, 60, 0
14, 113132, Note_on_c, 13, 66, 33
14, 113152, Note_on_c, 13, 66, 0
14, 113206, Note_on_c, 13, 72, 0
14, 113215, Note_on_c, 13, 70, 56
14, 113224, Note_on_c, 13, 65, 23
14, 113224, Note_on_c, 13, 53, 39
14, 113234, Control_c, 13, 64, 88
14, 113238, Control_c, 13, 64, 0
14, 113264, Control_c, 13, 64, 56
14, 113268, Control_c, 13, 64, 127
14, 113269, Note_on_c, 13, 70, 0
14, 113301, Note_on_c, 13, 58, 34
14, 113342, Note_on_c, 13, 82, 44
14, 113362, Note_on_c, 13, 82, 0
14, 113381, Note_on_c, 13, 65, 0
14, 113381, Note_on_c, 13, 97, 86
14, 113382, Note_on_c, 13, 61, 31
14, 113400, Note_on_c, 13, 97, 0
14, 113467, Note_on_c, 13, 65, 44
14, 113480, Note_on_c, 13, 53, 0
14, 113487, Note_on_c, 13, 61, 0
14, 113503, Note_on_c, 13, 65, 0
14, 113517, Note_on_c, 13, 58, 0
14, 113557, Note_on_c, 13, 96, 74
14, 113565, Note_on_c, 13, 54, 36
14, 113567, Note_on_c, 13, 64, 34
14, 113586, Control_c, 13, 64, 72
14, 113591, Control_c, 13, 64, 0
14, 113607, Note_on_c, 13, 96, 0
14, 113612, Control_c, 13, 64, 104
14, 113614, Note_on_c, 13, 94, 64
14, 113616, Control_c, 13, 64, 127
14, 113642, Note_on_c, 13, 94, 0
14, 113642, Note_on_c, 13, 90, 63
14, 113656, Note_on_c, 13, 58, 32
14, 113663, Note_on_c, 13, 88, 65
14, 113665, Note_on_c, 13, 90, 0
14, 113677, Note_on_c, 13, 88, 0
14, 113680, Note_on_c, 13, 84, 76
14, 113686, Note_on_c, 13, 84, 0
14, 113704, Note_on_c, 13, 82, 59
14, 113722, Note_on_c, 13, 82, 0
14, 113726, Note_on_c, 13, 78, 55
14, 113744, Note_on_c, 13, 78, 0
14, 113748, Note_on_c, 13, 76, 51
14, 113764, Note_on_c, 13, 64, 0
14, 113770, Note_on_c, 13, 76, 0
14, 113773, Note_on_c, 13, 72, 65
14, 113789, Note_on_c, 13, 60, 35
14, 113831, Note_on_c, 13, 54, 0
14, 113858, Note_on_c, 13, 60, 0
14, 113862, Note_on_c, 13, 64, 44
14, 113884, Note_on_c, 13, 58, 0
14, 113922, Note_on_c, 13, 72, 0
14, 113952, Note_on_c, 13, 72, 73
14, 113954, Note_on_c, 13, 55, 45
14, 113965, Control_c, 13, 64, 104
14, 113968, Control_c, 13, 64, 24
14, 113972, Control_c, 13, 64, 0
14, 113978, Note_on_c, 13, 55, 0
14, 113990, Control_c, 13, 64, 88
14, 113994, Note_on_c, 13, 58, 42
14, 113994, Control_c, 13, 64, 127
14, 113999, Note_on_c, 13, 72, 0
14, 114016, Note_on_c, 13, 58, 0
14, 114020, Note_on_c, 13, 72, 77
14, 114036, Note_on_c, 13, 60, 40
14, 114046, Note_on_c, 13, 72, 0
14, 114061, Note_on_c, 13, 60, 0
14, 114071, Note_on_c, 13, 72, 86
14, 114078, Note_on_c, 13, 64, 40
14, 114094, Note_on_c, 13, 72, 0
14, 114099, Note_on_c, 13, 64, 0
14, 114121, Note_on_c, 13, 72, 82
14, 114137, Note_on_c, 13, 64, 0
14, 114138, Note_on_c, 13, 57, 37
14, 114139, Control_c, 13, 64, 56
14, 114142, Control_c, 13, 64, 0
14, 114161, Note_on_c, 13, 72, 0
14, 114163, Note_on_c, 13, 73, 78
14, 114164, Control_c, 13, 64, 40
14, 114168, Control_c, 13, 64, 104
14, 114172, Control_c, 13, 64, 127
14, 114196, Note_on_c, 13, 72, 92
14, 114204, Note_on_c, 13, 73, 0
14, 114207, Note_on_c, 13, 57, 0
14, 114214, Note_on_c, 13, 65, 25
14, 114225, Note_on_c, 13, 72, 0
14, 114227, Note_on_c, 13, 71, 79
14, 114256, Note_on_c, 13, 71, 0
14, 114260, Note_on_c, 13, 72, 93
14, 114290, Note_on_c, 13, 72, 0
14, 114311, Note_on_c, 13, 75, 81
14, 114315, Note_on_c, 13, 65, 0
14, 114325, Note_on_c, 13, 58, 26
14, 114335, Control_c, 13, 64, 56
14, 114339, Control_c, 13, 64, 0
14, 114370, Note_on_c, 13, 73, 74
14, 114379, Note_on_c, 13, 75, 0
14, 114415, Control_c, 13, 64, 72
14, 114418, Control_c, 13, 64, 127
14, 114435, Note_on_c, 13, 65, 42
14, 114439, Note_on_c, 13, 73, 0
14, 114475, Note_on_c, 13, 65, 0
14, 114490, Note_on_c, 13, 58, 0
14, 114510, Note_on_c, 13, 72, 67
14, 114524, Note_on_c, 13, 72, 0
14, 114550, Note_on_c, 13, 72, 80
14, 114552, Note_on_c, 13, 69, 65
14, 114552, Control_c, 13, 64, 127
14, 114554, Note_on_c, 13, 60, 60
14, 114554, Note_on_c, 13, 65, 48
14, 114555, Note_on_c, 13, 53, 45
14, 114556, Control_c, 13, 64, 104
14, 114560, Control_c, 13, 64, 127
14, 114568, Note_on_c, 13, 65, 0
14, 114569, Note_on_c, 13, 60, 0
14, 114569, Note_on_c, 13, 53, 0
14, 114586, Note_on_c, 13, 69, 0
14, 114613, Note_on_c, 13, 72, 0
14, 114619, Note_on_c, 13, 57, 52
14, 114621, Note_on_c, 13, 60, 85
14, 114631, Note_on_c, 13, 57, 0
14, 114639, Note_on_c, 13, 60, 0
14, 114648, Control_c, 13, 64, 104
14, 114652, Note_on_c, 13, 66, 76
14, 114653, Note_on_c, 13, 58, 55
14, 114656, Control_c, 13, 64, 88
14, 114660, Control_c, 13, 64, 72
14, 114665, Control_c, 13, 64, 56
14, 114669, Control_c, 13, 64, 40
14, 114673, Control_c, 13, 64, 24
14, 114677, Control_c, 13, 64, 0
14, 114678, Note_on_c, 13, 58, 0
14, 114679, Note_on_c, 13, 66, 0
14, 114686, Note_on_c, 13, 65, 78
14, 114687, Note_on_c, 13, 57, 53
14, 114710, Note_on_c, 13, 57, 0
14, 114715, Note_on_c, 13, 65, 0
14, 114717, Note_on_c, 13, 69, 88
14, 114717, Note_on_c, 13, 60, 56
14, 114735, Note_on_c, 13, 60, 0
14, 114738, Note_on_c, 13, 69, 0
14, 114741, Control_c, 13, 64, 24
14, 114749, Note_on_c, 13, 68, 87
14, 114751, Note_on_c, 13, 65, 58
14, 114757, Control_c, 13, 64, 40
14, 114769, Note_on_c, 13, 65, 0
14, 114769, Note_on_c, 13, 68, 0
14, 114780, Note_on_c, 13, 59, 58
14, 114782, Note_on_c, 13, 77, 96
14, 114800, Note_on_c, 13, 59, 0
14, 114808, Note_on_c, 13, 77, 0
14, 114810, Control_c, 13, 64, 0
14, 114818, Note_on_c, 13, 76, 85
14, 114818, Note_on_c, 13, 60, 54
14, 114838, Control_c, 13, 64, 24
14, 114841, Note_on_c, 13, 60, 0
14, 114843, Note_on_c, 13, 76, 0
14, 114848, Note_on_c, 13, 79, 90
14, 114848, Note_on_c, 13, 70, 58
14, 114854, Control_c, 13, 64, 40
14, 114868, Note_on_c, 13, 70, 0
14, 114870, Note_on_c, 13, 79, 0
14, 114880, Note_on_c, 13, 77, 89
14, 114880, Note_on_c, 13, 71, 57
14, 114906, Note_on_c, 13, 71, 0
14, 114910, Note_on_c, 13, 77, 0
14, 114912, Note_on_c, 13, 65, 53
14, 114914, Note_on_c, 13, 80, 91
14, 114930, Note_on_c, 13, 65, 0
14, 114937, Note_on_c, 13, 80, 0
14, 114946, Note_on_c, 13, 79, 90
14, 114948, Note_on_c, 13, 70, 55
14, 114972, Note_on_c, 13, 70, 0
14, 114974, Note_on_c, 13, 79, 0
14, 114976, Note_on_c, 13, 76, 58
14, 114977, Note_on_c, 13, 82, 92
14, 114998, Note_on_c, 13, 76, 0
14, 115004, Note_on_c, 13, 82, 0
14, 115010, Note_on_c, 13, 77, 59
14, 115012, Note_on_c, 13, 81, 91
14, 115041, Note_on_c, 13, 69, 57
14, 115043, Note_on_c, 13, 77, 0
14, 115043, Note_on_c, 13, 84, 94
14, 115049, Note_on_c, 13, 81, 0
14, 115052, Control_c, 13, 64, 24
14, 115055, Note_on_c, 13, 69, 0
14, 115056, Control_c, 13, 64, 0
14, 115060, Note_on_c, 13, 84, 0
14, 115082, Note_on_c, 13, 96, 105
14, 115084, Note_on_c, 13, 93, 93
14, 115085, Note_on_c, 13, 65, 71
14, 115088, Control_c, 13, 64, 72
14, 115092, Control_c, 13, 64, 127
14, 115103, Note_on_c, 13, 93, 0
14, 115104, Note_on_c, 13, 96, 0
14, 115114, Note_on_c, 13, 65, 0
14, 115116, Note_on_c, 13, 96, 39
14, 115118, Note_on_c, 13, 89, 86
14, 115126, Note_on_c, 13, 93, 25
14, 115138, Note_on_c, 13, 93, 0
14, 115138, Note_on_c, 13, 96, 0
14, 115150, Note_on_c, 13, 89, 0
14, 115152, Note_on_c, 13, 84, 69
14, 115161, Note_on_c, 13, 84, 0
14, 115187, Note_on_c, 13, 77, 77
14, 115202, Note_on_c, 13, 77, 0
14, 115213, Control_c, 13, 64, 104
14, 115217, Control_c, 13, 64, 40
14, 115221, Note_on_c, 13, 84, 92
14, 115222, Control_c, 13, 64, 0
14, 115223, Note_on_c, 13, 81, 78
14, 115225, Note_on_c, 13, 41, 68
14, 115238, Control_c, 13, 64, 40
14, 115242, Control_c, 13, 64, 104
14, 115246, Control_c, 13, 64, 127
14, 115256, Note_on_c, 13, 77, 86
14, 115272, Note_on_c, 13, 84, 0
14, 115275, Note_on_c, 13, 41, 0
14, 115286, Note_on_c, 13, 77, 0
14, 115293, Note_on_c, 13, 72, 78
14, 115296, Note_on_c, 13, 81, 0
14, 115308, Note_on_c, 13, 72, 0
14, 115320, Note_on_c, 13, 65, 86
14, 115330, Note_on_c, 13, 65, 0
14, 115341, Control_c, 13, 64, 88
14, 115345, Control_c, 13, 64, 24
14, 115349, Control_c, 13, 64, 0
14, 115352, Note_on_c, 13, 72, 94
14, 115355, Note_on_c, 13, 69, 78
14, 115370, Control_c, 13, 64, 72
14, 115374, Control_c, 13, 64, 127
14, 115388, Note_on_c, 13, 69, 0
14, 115389, Note_on_c, 13, 65, 77
14, 115401, Note_on_c, 13, 72, 0
14, 115416, Note_on_c, 13, 65, 0
14, 115426, Note_on_c, 13, 60, 73
14, 115443, Note_on_c, 13, 60, 0
14, 115455, Note_on_c, 13, 66, 88
14, 115467, Note_on_c, 13, 66, 0
14, 115487, Control_c, 13, 64, 56
14, 115491, Control_c, 13, 64, 0
14, 115492, Note_on_c, 13, 72, 81
14, 115492, Note_on_c, 13, 69, 77
14, 115503, Control_c, 13, 64, 24
14, 115507, Control_c, 13, 64, 88
14, 115511, Control_c, 13, 64, 127
14, 115524, Note_on_c, 13, 65, 81
14, 115543, Note_on_c, 13, 72, 0
14, 115548, Note_on_c, 13, 69, 0
14, 115551, Note_on_c, 13, 65, 0
14, 115559, Note_on_c, 13, 60, 68
14, 115580, Note_on_c, 13, 60, 0
14, 115593, Note_on_c, 13, 53, 70
14, 115604, Note_on_c, 13, 53, 0
14, 115636, Control_c, 13, 64, 72
14, 115639, Note_on_c, 13, 69, 92
14, 115640, Control_c, 13, 64, 0
14, 115641, Note_on_c, 13, 39, 65
14, 115641, Note_on_c, 13, 66, 64
14, 115642, Note_on_c, 13, 60, 78
14, 115664, Note_on_c, 13, 60, 0
14, 115664, Note_on_c, 13, 39, 0
14, 115664, Control_c, 13, 64, 72
14, 115668, Control_c, 13, 64, 127
14, 115670, Note_on_c, 13, 66, 0
14, 115676, Note_on_c, 13, 42, 59
14, 115701, Note_on_c, 13, 42, 0
14, 115706, Note_on_c, 13, 69, 0
14, 115711, Note_on_c, 13, 45, 67
14, 115738, Note_on_c, 13, 45, 0
14, 115745, Note_on_c, 13, 48, 61
14, 115754, Note_on_c, 13, 48, 0
14, 115782, Note_on_c, 13, 69, 85
14, 115785, Note_on_c, 13, 51, 72
14, 115802, Note_on_c, 13, 51, 0
14, 115804, Note_on_c, 13, 69, 0
14, 115814, Note_on_c, 13, 54, 59
14, 115816, Note_on_c, 13, 63, 74
14, 115837, Note_on_c, 13, 54, 0
14, 115842, Note_on_c, 13, 63, 0
14, 115848, Note_on_c, 13, 66, 76
14, 115851, Note_on_c, 13, 57, 64
14, 115867, Note_on_c, 13, 66, 0
14, 115877, Note_on_c, 13, 57, 0
14, 115884, Note_on_c, 13, 78, 86
14, 115885, Note_on_c, 13, 60, 69
14, 115898, Note_on_c, 13, 78, 0
14, 115903, Note_on_c, 13, 60, 0
14, 115918, Note_on_c, 13, 63, 68
14, 115919, Note_on_c, 13, 81, 96
14, 115937, Note_on_c, 13, 63, 0
14, 115943, Note_on_c, 13, 81, 0
14, 115949, Note_on_c, 13, 66, 59
14, 115951, Note_on_c, 13, 75, 87
14, 115975, Note_on_c, 13, 66, 0
14, 115985, Note_on_c, 13, 75, 0
14, 115985, Note_on_c, 13, 78, 79
14, 115986, Note_on_c, 13, 69, 69
14, 115998, Note_on_c, 13, 78, 0
14, 116010, Note_on_c, 13, 69, 0
14, 116020, Note_on_c, 13, 72, 72
14, 116021, Note_on_c, 13, 90, 91
14, 116042, Note_on_c, 13, 90, 0
14, 116043, Note_on_c, 13, 72, 0
14, 116055, Note_on_c, 13, 93, 103
14, 116057, Note_on_c, 13, 75, 64
14, 116077, Note_on_c, 13, 75, 0
14, 116078, Note_on_c, 13, 93, 0
14, 116087, Note_on_c, 13, 87, 84
14, 116088, Note_on_c, 13, 78, 58
14, 116111, Note_on_c, 13, 87, 0
14, 116113, Note_on_c, 13, 78, 0
14, 116121, Note_on_c, 13, 90, 82
14, 116125, Note_on_c, 13, 81, 53
14, 116144, Note_on_c, 13, 90, 0
14, 116145, Note_on_c, 13, 81, 0
14, 116148, Control_c, 13, 64, 88
14, 116153, Control_c, 13, 64, 56
14, 116154, Note_on_c, 13, 93, 100
14, 116157, Control_c, 13, 64, 24
14, 116157, Note_on_c, 13, 84, 71
14, 116161, Control_c, 13, 64, 0
14, 116173, Note_on_c, 13, 84, 0
14, 116174, Note_on_c, 13, 93, 0
14, 116177, Control_c, 13, 64, 56
14, 116181, Control_c, 13, 64, 104
14, 116185, Control_c, 13, 64, 127
14, 116189, Note_on_c, 13, 81, 82
14, 116190, Note_on_c, 13, 90, 94
14, 116208, Note_on_c, 13, 81, 0
14, 116215, Note_on_c, 13, 90, 0
14, 116220, Note_on_c, 13, 85, 81
14, 116221, Note_on_c, 13, 77, 70
14, 116247, Note_on_c, 13, 77, 0
14, 116247, Note_on_c, 13, 85, 0
14, 116254, Note_on_c, 13, 84, 81
14, 116257, Note_on_c, 13, 75, 73
14, 116275, Note_on_c, 13, 75, 0
14, 116277, Note_on_c, 13, 84, 0
14, 116285, Note_on_c, 13, 87, 86
14, 116290, Note_on_c, 13, 78, 71
14, 116307, Note_on_c, 13, 78, 0
14, 116308, Note_on_c, 13, 87, 0
14, 116318, Note_on_c, 13, 75, 68
14, 116319, Note_on_c, 13, 81, 84
14, 116337, Note_on_c, 13, 81, 0
14, 116347, Note_on_c, 13, 75, 0
14, 116353, Note_on_c, 13, 72, 77
14, 116355, Note_on_c, 13, 78, 84
14, 116377, Note_on_c, 13, 78, 0
14, 116385, Note_on_c, 13, 72, 0
14, 116387, Note_on_c, 13, 81, 81
14, 116389, Note_on_c, 13, 69, 64
14, 116410, Note_on_c, 13, 81, 0
14, 116419, Note_on_c, 13, 75, 86
14, 116423, Note_on_c, 13, 69, 0
14, 116427, Note_on_c, 13, 66, 57
14, 116439, Note_on_c, 13, 75, 0
14, 116443, Note_on_c, 13, 66, 0
14, 116447, Control_c, 13, 64, 88
14, 116451, Control_c, 13, 64, 40
14, 116453, Note_on_c, 13, 78, 85
14, 116455, Note_on_c, 13, 69, 84
14, 116455, Control_c, 13, 64, 0
14, 116471, Control_c, 13, 64, 56
14, 116475, Control_c, 13, 64, 104
14, 116479, Note_on_c, 13, 69, 0
14, 116479, Control_c, 13, 64, 127
14, 116481, Note_on_c, 13, 78, 0
14, 116485, Note_on_c, 13, 73, 81
14, 116486, Note_on_c, 13, 65, 67
14, 116512, Note_on_c, 13, 73, 0
14, 116516, Note_on_c, 13, 65, 0
14, 116521, Note_on_c, 13, 72, 79
14, 116523, Note_on_c, 13, 63, 60
14, 116540, Control_c, 13, 64, 88
14, 116541, Note_on_c, 13, 63, 0
14, 116541, Note_on_c, 13, 72, 0
14, 116544, Control_c, 13, 64, 72
14, 116552, Note_on_c, 13, 75, 86
14, 116553, Note_on_c, 13, 66, 61
14, 116556, Control_c, 13, 64, 127
14, 116575, Note_on_c, 13, 66, 0
14, 116579, Note_on_c, 13, 75, 0
14, 116585, Note_on_c, 13, 63, 63
14, 116588, Note_on_c, 13, 69, 82
14, 116599, Note_on_c, 13, 69, 0
14, 116619, Note_on_c, 13, 63, 0
14, 116623, Note_on_c, 13, 60, 73
14, 116625, Note_on_c, 13, 66, 72
14, 116644, Note_on_c, 13, 60, 0
14, 116647, Note_on_c, 13, 66, 0
14, 116658, Note_on_c, 13, 69, 80
14, 116659, Note_on_c, 13, 57, 58
14, 116682, Note_on_c, 13, 69, 0
14, 116692, Note_on_c, 13, 63, 72
14, 116692, Note_on_c, 13, 54, 54
14, 116693, Note_on_c, 13, 57, 0
14, 116715, Note_on_c, 13, 54, 0
14, 116715, Note_on_c, 13, 63, 0
14, 116725, Control_c, 13, 64, 104
14, 116729, Control_c, 13, 64, 56
14, 116732, Note_on_c, 13, 70, 80
14, 116734, Control_c, 13, 64, 0
14, 116735, Note_on_c, 13, 61, 72
14, 116744, Note_on_c, 13, 53, 64
14, 116745, Note_on_c, 13, 46, 35
14, 116758, Control_c, 13, 64, 72
14, 116762, Control_c, 13, 64, 127
14, 116763, Note_on_c, 13, 61, 0
14, 116763, Note_on_c, 13, 70, 0
14, 116764, Note_on_c, 13, 53, 0
14, 116767, Note_on_c, 13, 46, 0
14, 116801, Note_on_c, 13, 49, 52
14, 116803, Note_on_c, 13, 53, 75
14, 116819, Note_on_c, 13, 49, 0
14, 116823, Note_on_c, 13, 53, 0
14, 116836, Note_on_c, 13, 60, 77
14, 116836, Note_on_c, 13, 51, 54
14, 116855, Note_on_c, 13, 51, 0
14, 116855, Note_on_c, 13, 60, 0
14, 116871, Control_c, 13, 64, 72
14, 116872, Note_on_c, 13, 58, 70
14, 116872, Note_on_c, 13, 49, 52
14, 116875, Control_c, 13, 64, 24
14, 116879, Control_c, 13, 64, 0
14, 116890, Note_on_c, 13, 49, 0
14, 116895, Note_on_c, 13, 58, 0
14, 116895, Control_c, 13, 64, 24
14, 116899, Control_c, 13, 64, 72
14, 116903, Control_c, 13, 64, 104
14, 116905, Note_on_c, 13, 63, 76
14, 116907, Note_on_c, 13, 53, 55
14, 116907, Control_c, 13, 64, 127
14, 116927, Note_on_c, 13, 53, 0
14, 116927, Note_on_c, 13, 63, 0
14, 116938, Note_on_c, 13, 58, 52
14, 116940, Note_on_c, 13, 61, 73
14, 116952, Note_on_c, 13, 58, 0
14, 116957, Note_on_c, 13, 61, 0
14, 116971, Note_on_c, 13, 70, 76
14, 116973, Note_on_c, 13, 52, 56
14, 116992, Control_c, 13, 64, 104
14, 116993, Note_on_c, 13, 52, 0
14, 116993, Note_on_c, 13, 70, 0
14, 116996, Control_c, 13, 64, 72
14, 117000, Control_c, 13, 64, 24
14, 117003, Note_on_c, 13, 69, 89
14, 117003, Note_on_c, 13, 53, 57
14, 117004, Control_c, 13, 64, 0
14, 117020, Control_c, 13, 64, 40
14, 117024, Control_c, 13, 64, 72
14, 117025, Note_on_c, 13, 53, 0
14, 117028, Control_c, 13, 64, 104
14, 117029, Note_on_c, 13, 69, 0
14, 117032, Control_c, 13, 64, 127
14, 117033, Note_on_c, 13, 63, 59
14, 117035, Note_on_c, 13, 72, 88
14, 117050, Note_on_c, 13, 63, 0
14, 117054, Note_on_c, 13, 72, 0
14, 117065, Note_on_c, 13, 70, 86
14, 117066, Note_on_c, 13, 64, 56
14, 117088, Note_on_c, 13, 64, 0
14, 117091, Note_on_c, 13, 70, 0
14, 117101, Note_on_c, 13, 73, 85
14, 117101, Note_on_c, 13, 58, 55
14, 117121, Note_on_c, 13, 58, 0
14, 117123, Note_on_c, 13, 73, 0
14, 117132, Note_on_c, 13, 57, 52
14, 117133, Note_on_c, 13, 72, 89
14, 117137, Control_c, 13, 64, 72
14, 117141, Control_c, 13, 64, 0
14, 117153, Note_on_c, 13, 57, 0
14, 117156, Note_on_c, 13, 72, 0
14, 117161, Control_c, 13, 64, 56
14, 117164, Note_on_c, 13, 66, 57
14, 117165, Control_c, 13, 64, 127
14, 117166, Note_on_c, 13, 75, 87
14, 117187, Note_on_c, 13, 66, 0
14, 117193, Note_on_c, 13, 75, 0
14, 117199, Note_on_c, 13, 73, 80
14, 117199, Note_on_c, 13, 65, 54
14, 117214, Note_on_c, 13, 65, 0
14, 117217, Note_on_c, 13, 73, 0
14, 117230, Note_on_c, 13, 77, 77
14, 117232, Note_on_c, 13, 58, 52
14, 117242, Note_on_c, 13, 77, 0
14, 117244, Note_on_c, 13, 58, 0
14, 117258, Control_c, 13, 64, 104
14, 117262, Control_c, 13, 64, 88
14, 117265, Note_on_c, 13, 73, 63
14, 117265, Note_on_c, 13, 89, 100
14, 117265, Note_on_c, 13, 85, 82
14, 117266, Control_c, 13, 64, 104
14, 117270, Control_c, 13, 64, 127
14, 117288, Note_on_c, 13, 89, 0
14, 117300, Note_on_c, 13, 89, 25
14, 117301, Note_on_c, 13, 82, 78
14, 117305, Note_on_c, 13, 73, 0
14, 117313, Note_on_c, 13, 89, 0
14, 117319, Note_on_c, 13, 85, 0
14, 117330, Note_on_c, 13, 82, 0
14, 117333, Note_on_c, 13, 77, 81
14, 117341, Note_on_c, 13, 77, 0
14, 117363, Note_on_c, 13, 70, 80
14, 117379, Note_on_c, 13, 70, 0
14, 117395, Control_c, 13, 64, 56
14, 117396, Note_on_c, 13, 77, 91
14, 117398, Note_on_c, 13, 73, 72
14, 117399, Note_on_c, 13, 46, 72
14, 117399, Control_c, 13, 64, 0
14, 117401, Note_on_c, 13, 34, 52
14, 117415, Note_on_c, 13, 46, 0
14, 117415, Control_c, 13, 64, 72
14, 117417, Note_on_c, 13, 34, 0
14, 117419, Control_c, 13, 64, 127
14, 117433, Note_on_c, 13, 70, 67
14, 117439, Note_on_c, 13, 77, 0
14, 117446, Note_on_c, 13, 73, 0
14, 117458, Note_on_c, 13, 70, 0
14, 117461, Note_on_c, 13, 65, 73
14, 117471, Note_on_c, 13, 65, 0
14, 117493, Note_on_c, 13, 58, 77
14, 117510, Note_on_c, 13, 58, 0
14, 117524, Control_c, 13, 64, 24
14, 117527, Note_on_c, 13, 61, 70
14, 117528, Note_on_c, 13, 65, 84
14, 117529, Control_c, 13, 64, 0
14, 117545, Control_c, 13, 64, 24
14, 117549, Control_c, 13, 64, 104
14, 117553, Control_c, 13, 64, 127
14, 117560, Note_on_c, 13, 58, 66
14, 117565, Note_on_c, 13, 65, 0
14, 117579, Note_on_c, 13, 61, 0
14, 117588, Note_on_c, 13, 58, 0
14, 117599, Note_on_c, 13, 53, 66
14, 117616, Note_on_c, 13, 53, 0
14, 117630, Note_on_c, 13, 66, 89
14, 117643, Note_on_c, 13, 66, 0
14, 117657, Control_c, 13, 64, 72
14, 117661, Control_c, 13, 64, 0
14, 117665, Note_on_c, 13, 61, 68
14, 117665, Note_on_c, 13, 65, 82
14, 117686, Control_c, 13, 64, 104
14, 117690, Note_on_c, 13, 61, 0
14, 117690, Control_c, 13, 64, 127
14, 117701, Note_on_c, 13, 58, 65
14, 117724, Note_on_c, 13, 65, 0
14, 117734, Note_on_c, 13, 58, 0
14, 117736, Note_on_c, 13, 53, 63
14, 117750, Note_on_c, 13, 53, 0
14, 117771, Note_on_c, 13, 46, 65
14, 117779, Note_on_c, 13, 46, 0
14, 117815, Note_on_c, 13, 64, 89
14, 117815, Control_c, 13, 64, 88
14, 117818, Note_on_c, 13, 61, 63
14, 117818, Note_on_c, 13, 34, 67
14, 117819, Note_on_c, 13, 55, 68
14, 117819, Control_c, 13, 64, 24
14, 117823, Control_c, 13, 64, 0
14, 117829, Note_on_c, 13, 55, 0
14, 117841, Note_on_c, 13, 61, 0
14, 117843, Control_c, 13, 64, 72
14, 117847, Control_c, 13, 64, 127
14, 117849, Note_on_c, 13, 34, 0
14, 117851, Note_on_c, 13, 37, 55
14, 117877, Note_on_c, 13, 64, 0
14, 117880, Note_on_c, 13, 37, 0
14, 117886, Note_on_c, 13, 40, 63
14, 117915, Note_on_c, 13, 40, 0
14, 117919, Note_on_c, 13, 43, 67
14, 117931, Note_on_c, 13, 43, 0
14, 117957, Note_on_c, 13, 64, 87
14, 117960, Note_on_c, 13, 46, 64
14, 117977, Note_on_c, 13, 46, 0
14, 117980, Note_on_c, 13, 64, 0
14, 117986, Note_on_c, 13, 58, 64
14, 117989, Note_on_c, 13, 49, 65
14, 118015, Note_on_c, 13, 49, 0
14, 118019, Note_on_c, 13, 61, 76
14, 118023, Note_on_c, 13, 52, 77
14, 118024, Note_on_c, 13, 58, 0
14, 118041, Note_on_c, 13, 61, 0
14, 118051, Note_on_c, 13, 52, 0
14, 118051, Note_on_c, 13, 55, 75
14, 118054, Note_on_c, 13, 73, 92
14, 118068, Note_on_c, 13, 73, 0
14, 118069, Note_on_c, 13, 55, 0
14, 118079, Control_c, 13, 64, 104
14, 118083, Control_c, 13, 64, 40
14, 118087, Control_c, 13, 64, 0
14, 118088, Note_on_c, 13, 76, 101
14, 118089, Note_on_c, 13, 58, 60
14, 118099, Control_c, 13, 64, 72
14, 118103, Control_c, 13, 64, 127
14, 118108, Note_on_c, 13, 58, 0
14, 118111, Note_on_c, 13, 76, 0
14, 118117, Note_on_c, 13, 61, 56
14, 118120, Note_on_c, 13, 70, 84
14, 118144, Note_on_c, 13, 61, 0
14, 118147, Note_on_c, 13, 70, 0
14, 118152, Note_on_c, 13, 73, 84
14, 118153, Note_on_c, 13, 64, 69
14, 118164, Note_on_c, 13, 73, 0
14, 118178, Note_on_c, 13, 64, 0
14, 118187, Note_on_c, 13, 67, 73
14, 118188, Note_on_c, 13, 85, 92
14, 118202, Note_on_c, 13, 84, 34
14, 118203, Note_on_c, 13, 85, 0
14, 118208, Note_on_c, 13, 67, 0
14, 118209, Note_on_c, 13, 84, 0
14, 118221, Note_on_c, 13, 88, 100
14, 118224, Note_on_c, 13, 70, 71
14, 118241, Note_on_c, 13, 70, 0
14, 118245, Note_on_c, 13, 88, 0
14, 118254, Note_on_c, 13, 82, 78
14, 118256, Note_on_c, 13, 73, 64
14, 118278, Note_on_c, 13, 82, 0
14, 118281, Note_on_c, 13, 73, 0
14, 118287, Note_on_c, 13, 85, 80
14, 118289, Note_on_c, 13, 76, 70
14, 118310, Note_on_c, 13, 76, 0
14, 118310, Note_on_c, 13, 85, 0
14, 118320, Note_on_c, 13, 88, 91
14, 118322, Note_on_c, 13, 79, 64
14, 118339, Note_on_c, 13, 79, 0
14, 118339, Note_on_c, 13, 88, 0
14, 118349, Control_c, 13, 64, 104
14, 118353, Control_c, 13, 64, 40
14, 118355, Note_on_c, 13, 76, 68
14, 118356, Note_on_c, 13, 85, 93
14, 118358, Control_c, 13, 64, 0
14, 118374, Control_c, 13, 64, 24
14, 118377, Note_on_c, 13, 76, 0
14, 118378, Control_c, 13, 64, 72
14, 118381, Note_on_c, 13, 85, 0
14, 118382, Control_c, 13, 64, 127
14, 118386, Note_on_c, 13, 72, 70
14, 118387, Note_on_c, 13, 80, 80
14, 118414, Note_on_c, 13, 80, 0
14, 118419, Note_on_c, 13, 72, 0
14, 118421, Note_on_c, 13, 79, 75
14, 118422, Note_on_c, 13, 70, 67
14, 118441, Note_on_c, 13, 70, 0
14, 118441, Note_on_c, 13, 79, 0
14, 118452, Note_on_c, 13, 82, 85
14, 118455, Note_on_c, 13, 73, 68
14, 118473, Note_on_c, 13, 73, 0
14, 118475, Note_on_c, 13, 82, 0
14, 118486, Note_on_c, 13, 76, 70
14, 118486, Note_on_c, 13, 70, 63
14, 118502, Note_on_c, 13, 76, 0
14, 118508, Note_on_c, 13, 70, 0
14, 118517, Note_on_c, 13, 67, 53
14, 118521, Note_on_c, 13, 73, 80
14, 118543, Note_on_c, 13, 73, 0
14, 118553, Note_on_c, 13, 76, 81
14, 118555, Note_on_c, 13, 67, 0
14, 118557, Note_on_c, 13, 64, 67
14, 118577, Note_on_c, 13, 76, 0
14, 118585, Note_on_c, 13, 70, 74
14, 118586, Note_on_c, 13, 61, 58
14, 118590, Note_on_c, 13, 64, 0
14, 118597, Note_on_c, 13, 61, 0
14, 118608, Note_on_c, 13, 70, 0
14, 118612, Control_c, 13, 64, 88
14, 118616, Control_c, 13, 64, 40
14, 118617, Note_on_c, 13, 73, 89
14, 118618, Note_on_c, 13, 64, 81
14, 118620, Control_c, 13, 64, 0
14, 118636, Control_c, 13, 64, 56
14, 118637, Note_on_c, 13, 64, 0
14, 118640, Control_c, 13, 64, 104
14, 118643, Note_on_c, 13, 73, 0
14, 118644, Control_c, 13, 64, 127
14, 118649, Note_on_c, 13, 68, 79
14, 118651, Note_on_c, 13, 60, 67
14, 118671, Note_on_c, 13, 60, 0
14, 118677, Note_on_c, 13, 68, 0
14, 118685, Note_on_c, 13, 67, 79
14, 118691, Note_on_c, 13, 58, 53
14, 118706, Note_on_c, 13, 58, 0
14, 118706, Note_on_c, 13, 67, 0
14, 118717, Note_on_c, 13, 70, 78
14, 118721, Note_on_c, 13, 61, 52
14, 118739, Note_on_c, 13, 61, 0
14, 118743, Note_on_c, 13, 70, 0
14, 118745, Control_c, 13, 64, 72
14, 118749, Control_c, 13, 64, 24
14, 118753, Note_on_c, 13, 58, 58
14, 118755, Note_on_c, 13, 64, 76
14, 118765, Control_c, 13, 64, 88
14, 118769, Control_c, 13, 64, 127
14, 118771, Note_on_c, 13, 64, 0
14, 118779, Note_on_c, 13, 58, 0
14, 118786, Note_on_c, 13, 55, 69
14, 118789, Note_on_c, 13, 61, 78
14, 118813, Note_on_c, 13, 61, 0
14, 118813, Note_on_c, 13, 55, 0
14, 118817, Note_on_c, 13, 52, 61
14, 118822, Note_on_c, 13, 64, 77
14, 118847, Note_on_c, 13, 64, 0
14, 118855, Note_on_c, 13, 58, 72
14, 118855, Note_on_c, 13, 49, 55
14, 118858, Note_on_c, 13, 52, 0
14, 118877, Note_on_c, 13, 49, 0
14, 118879, Note_on_c, 13, 58, 0
14, 118894, Control_c, 13, 64, 104
14, 118898, Control_c, 13, 64, 72
14, 118899, Note_on_c, 13, 65, 90
14, 118902, Note_on_c, 13, 49, 57
14, 118903, Control_c, 13, 64, 0
14, 118903, Note_on_c, 13, 53, 57
14, 118904, Note_on_c, 13, 61, 55
14, 118904, Note_on_c, 13, 44, 36
14, 118905, Note_on_c, 13, 37, 39
14, 118931, Control_c, 13, 64, 72
14, 118935, Control_c, 13, 64, 127
14, 118937, Note_on_c, 13, 44, 0
14, 118939, Note_on_c, 13, 53, 0
14, 118940, Note_on_c, 13, 37, 0
14, 118942, Note_on_c, 13, 49, 0
14, 118942, Note_on_c, 13, 65, 0
14, 118943, Note_on_c, 13, 61, 0
14, 118972, Note_on_c, 13, 52, 54
14, 118973, Note_on_c, 13, 43, 54
14, 118987, Note_on_c, 13, 52, 0
14, 118992, Note_on_c, 13, 43, 0
14, 119005, Note_on_c, 13, 44, 57
14, 119006, Note_on_c, 13, 53, 73
14, 119020, Note_on_c, 13, 44, 0
14, 119022, Note_on_c, 13, 53, 0
14, 119031, Control_c, 13, 64, 88
14, 119035, Control_c, 13, 64, 24
14, 119039, Control_c, 13, 64, 0
14, 119042, Note_on_c, 13, 61, 82
14, 119042, Note_on_c, 13, 37, 63
14, 119043, Note_on_c, 13, 56, 72
14, 119052, Control_c, 13, 64, 24
14, 119056, Control_c, 13, 64, 72
14, 119060, Note_on_c, 13, 56, 0
14, 119060, Control_c, 13, 64, 127
14, 119067, Note_on_c, 13, 61, 0
14, 119073, Note_on_c, 13, 37, 0
14, 119073, Note_on_c, 13, 44, 72
14, 119074, Note_on_c, 13, 65, 82
14, 119096, Note_on_c, 13, 44, 0
14, 119099, Note_on_c, 13, 65, 0
14, 119111, Note_on_c, 13, 53, 58
14, 119112, Note_on_c, 13, 64, 86
14, 119133, Note_on_c, 13, 53, 0
14, 119139, Note_on_c, 13, 64, 0
14, 119145, Note_on_c, 13, 65, 87
14, 119147, Note_on_c, 13, 56, 66
14, 119157, Note_on_c, 13, 56, 0
14, 119159, Note_on_c, 13, 65, 0
14, 119169, Control_c, 13, 64, 56
14, 119173, Control_c, 13, 64, 0
14, 119177, Note_on_c, 13, 49, 65
14, 119178, Note_on_c, 13, 68, 75
14, 119184, Note_on_c, 13, 73, 90
14, 119189, Control_c, 13, 64, 40
14, 119192, Note_on_c, 13, 68, 0
14, 119193, Control_c, 13, 64, 104
14, 119196, Note_on_c, 13, 73, 0
14, 119197, Control_c, 13, 64, 127
14, 119201, Note_on_c, 13, 49, 0
14, 119207, Note_on_c, 13, 56, 70
14, 119213, Note_on_c, 13, 77, 97
14, 119233, Note_on_c, 13, 56, 0
14, 119236, Note_on_c, 13, 77, 0
14, 119247, Note_on_c, 13, 76, 97
14, 119249, Note_on_c, 13, 67, 65
14, 119278, Note_on_c, 13, 67, 0
14, 119278, Note_on_c, 13, 77, 94
14, 119280, Note_on_c, 13, 68, 73
14, 119287, Note_on_c, 13, 76, 0
14, 119294, Note_on_c, 13, 77, 0
14, 119297, Note_on_c, 13, 68, 0
14, 119302, Control_c, 13, 64, 72
14, 119306, Control_c, 13, 64, 0
14, 119311, Note_on_c, 13, 80, 90
14, 119312, Note_on_c, 13, 85, 97
14, 119313, Note_on_c, 13, 61, 65
14, 119322, Control_c, 13, 64, 40
14, 119325, Note_on_c, 13, 80, 0
14, 119326, Control_c, 13, 64, 104
14, 119330, Control_c, 13, 64, 127
14, 119332, Note_on_c, 13, 85, 0
14, 119337, Note_on_c, 13, 61, 0
14, 119339, Note_on_c, 13, 68, 70
14, 119346, Note_on_c, 13, 89, 89
14, 119365, Note_on_c, 13, 68, 0
14, 119373, Note_on_c, 13, 89, 0
14, 119380, Note_on_c, 13, 88, 93
14, 119382, Note_on_c, 13, 79, 71
14, 119404, Note_on_c, 13, 88, 0
14, 119409, Note_on_c, 13, 80, 89
14, 119410, Note_on_c, 13, 89, 94
14, 119413, Note_on_c, 13, 79, 0
14, 119423, Note_on_c, 13, 80, 0
14, 119430, Note_on_c, 13, 89, 0
14, 119447, Control_c, 13, 64, 88
14, 119451, Note_on_c, 13, 92, 99
14, 119451, Control_c, 13, 64, 24
14, 119453, Note_on_c, 13, 87, 87
14, 119453, Note_on_c, 13, 68, 78
14, 119455, Control_c, 13, 64, 0
14, 119471, Control_c, 13, 64, 40
14, 119475, Control_c, 13, 64, 127
14, 119487, Note_on_c, 13, 85, 80
14, 119500, Note_on_c, 13, 68, 0
14, 119509, Note_on_c, 13, 92, 0
14, 119510, Note_on_c, 13, 87, 0
14, 119515, Note_on_c, 13, 85, 0
14, 119517, Note_on_c, 13, 80, 76
14, 119531, Note_on_c, 13, 80, 0
14, 119551, Note_on_c, 13, 73, 78
14, 119567, Note_on_c, 13, 73, 0
14, 119576, Control_c, 13, 64, 88
14, 119580, Control_c, 13, 64, 24
14, 119582, Note_on_c, 13, 80, 84
14, 119584, Control_c, 13, 64, 0
14, 119585, Note_on_c, 13, 75, 75
14, 119586, Note_on_c, 13, 56, 76
14, 119597, Control_c, 13, 64, 56
14, 119601, Control_c, 13, 64, 104
14, 119605, Control_c, 13, 64, 127
14, 119613, Note_on_c, 13, 56, 0
14, 119625, Note_on_c, 13, 73, 68
14, 119635, Note_on_c, 13, 80, 0
14, 119638, Note_on_c, 13, 75, 0
14, 119646, Note_on_c, 13, 73, 0
14, 119651, Note_on_c, 13, 68, 63
14, 119658, Note_on_c, 13, 68, 0
14, 119683, Note_on_c, 13, 61, 77
14, 119701, Note_on_c, 13, 61, 0
14, 119713, Control_c, 13, 64, 56
14, 119715, Note_on_c, 13, 68, 77
14, 119718, Control_c, 13, 64, 0
14, 119719, Note_on_c, 13, 44, 68
14, 119719, Note_on_c, 13, 63, 67
14, 119742, Control_c, 13, 64, 88
14, 119744, Note_on_c, 13, 44, 0
14, 119746, Control_c, 13, 64, 127
14, 119754, Note_on_c, 13, 63, 0
14, 119756, Note_on_c, 13, 60, 71
14, 119758, Note_on_c, 13, 68, 0
14, 119779, Note_on_c, 13, 60, 0
14, 119788, Note_on_c, 13, 56, 65
14, 119808, Note_on_c, 13, 56, 0
14, 119821, Note_on_c, 13, 65, 77
14, 119837, Note_on_c, 13, 65, 0
14, 119851, Control_c, 13, 64, 104
14, 119853, Note_on_c, 13, 68, 82
14, 119855, Control_c, 13, 64, 40
14, 119855, Note_on_c, 13, 63, 64
14, 119859, Control_c, 13, 64, 0
14, 119875, Control_c, 13, 64, 72
14, 119879, Control_c, 13, 64, 127
14, 119889, Note_on_c, 13, 60, 69
14, 119904, Note_on_c, 13, 63, 0
14, 119917, Note_on_c, 13, 60, 0
14, 119919, Note_on_c, 13, 56, 54
14, 119921, Note_on_c, 13, 68, 0
14, 119938, Note_on_c, 13, 56, 0
14, 119945, Note_on_c, 13, 44, 68
14, 119960, Note_on_c, 13, 44, 0
14, 119988, Control_c, 13, 64, 88
14, 119992, Note_on_c, 13, 66, 79
14, 119992, Control_c, 13, 64, 0
14, 119994, Note_on_c, 13, 54, 65
14, 119996, Note_on_c, 13, 51, 49
14, 119997, Note_on_c, 13, 46, 63
14, 119997, Note_on_c, 13, 63, 57
14, 119999, Note_on_c, 13, 58, 50
14, 120001, Note_on_c, 13, 39, 45
14, 120016, Control_c, 13, 64, 72
14, 120020, Control_c, 13, 64, 127
14, 120021, Note_on_c, 13, 46, 0
14, 120025, Note_on_c, 13, 51, 0
14, 120027, Note_on_c, 13, 63, 0
14, 120028, Note_on_c, 13, 54, 0
14, 120032, Note_on_c, 13, 39, 0
14, 120040, Note_on_c, 13, 58, 0
14, 120045, Note_on_c, 13, 66, 0
14, 120068, Note_on_c, 13, 53, 59
14, 120071, Note_on_c, 13, 45, 73
14, 120079, Note_on_c, 13, 53, 0
14, 120089, Note_on_c, 13, 45, 0
14, 120100, Note_on_c, 13, 54, 63
14, 120102, Note_on_c, 13, 46, 73
14, 120116, Note_on_c, 13, 54, 0
14, 120117, Note_on_c, 13, 46, 0
14, 120125, Control_c, 13, 64, 88
14, 120129, Control_c, 13, 64, 24
14, 120133, Control_c, 13, 64, 0
14, 120136, Note_on_c, 13, 39, 72
14, 120136, Note_on_c, 13, 63, 87
14, 120140, Note_on_c, 13, 58, 68
14, 120149, Control_c, 13, 64, 72
14, 120153, Note_on_c, 13, 58, 0
14, 120153, Control_c, 13, 64, 127
14, 120161, Note_on_c, 13, 63, 0
14, 120161, Note_on_c, 13, 39, 0
14, 120166, Note_on_c, 13, 46, 80
14, 120170, Note_on_c, 13, 66, 81
14, 120188, Note_on_c, 13, 46, 0
14, 120198, Note_on_c, 13, 66, 0
14, 120203, Note_on_c, 13, 65, 85
14, 120205, Note_on_c, 13, 57, 55
14, 120231, Note_on_c, 13, 57, 0
14, 120232, Note_on_c, 13, 65, 0
14, 120234, Note_on_c, 13, 66, 85
14, 120239, Note_on_c, 13, 58, 56
14, 120247, Note_on_c, 13, 58, 0
14, 120249, Note_on_c, 13, 66, 0
14, 120258, Control_c, 13, 64, 88
14, 120262, Control_c, 13, 64, 24
14, 120266, Note_on_c, 13, 51, 68
14, 120267, Control_c, 13, 64, 0
14, 120269, Note_on_c, 13, 70, 77
14, 120270, Note_on_c, 13, 75, 96
14, 120279, Control_c, 13, 64, 24
14, 120281, Note_on_c, 13, 70, 0
14, 120283, Control_c, 13, 64, 72
14, 120287, Control_c, 13, 64, 127
14, 120292, Note_on_c, 13, 51, 0
14, 120293, Note_on_c, 13, 75, 0
14, 120299, Note_on_c, 13, 58, 66
14, 120302, Note_on_c, 13, 78, 81
14, 120325, Note_on_c, 13, 58, 0
14, 120327, Note_on_c, 13, 78, 0
14, 120335, Note_on_c, 13, 77, 88
14, 120341, Note_on_c, 13, 69, 67
14, 120368, Note_on_c, 13, 78, 84
14, 120369, Note_on_c, 13, 69, 0
14, 120370, Note_on_c, 13, 70, 74
14, 120375, Note_on_c, 13, 77, 0
14, 120381, Note_on_c, 13, 78, 0
14, 120388, Note_on_c, 13, 70, 0
14, 120391, Control_c, 13, 64, 56
14, 120395, Control_c, 13, 64, 0
14, 120403, Note_on_c, 13, 82, 80
14, 120404, Note_on_c, 13, 63, 65
14, 120405, Note_on_c, 13, 87, 93
14, 120412, Control_c, 13, 64, 24
14, 120416, Control_c, 13, 64, 72
14, 120417, Note_on_c, 13, 82, 0
14, 120420, Control_c, 13, 64, 127
14, 120427, Note_on_c, 13, 87, 0
14, 120433, Note_on_c, 13, 63, 0
14, 120434, Note_on_c, 13, 70, 77
14, 120437, Note_on_c, 13, 90, 87
14, 120455, Note_on_c, 13, 70, 0
14, 120463, Note_on_c, 13, 90, 0
14, 120471, Note_on_c, 13, 89, 88
14, 120473, Note_on_c, 13, 81, 73
14, 120495, Note_on_c, 13, 89, 0
14, 120497, Note_on_c, 13, 82, 86
14, 120498, Note_on_c, 13, 81, 0
14, 120503, Note_on_c, 13, 90, 89
14, 120511, Note_on_c, 13, 82, 0
14, 120522, Note_on_c, 13, 90, 0
14, 120533, Control_c, 13, 64, 88
14, 120537, Control_c, 13, 64, 0
14, 120539, Note_on_c, 13, 89, 100
14, 120542, Note_on_c, 13, 70, 80
14, 120542, Note_on_c, 13, 87, 76
14, 120561, Control_c, 13, 64, 72
14, 120565, Control_c, 13, 64, 127
14, 120576, Note_on_c, 13, 82, 76
14, 120578, Note_on_c, 13, 70, 0
14, 120594, Note_on_c, 13, 89, 0
14, 120601, Note_on_c, 13, 87, 0
14, 120606, Note_on_c, 13, 82, 0
14, 120609, Note_on_c, 13, 77, 72
14, 120619, Note_on_c, 13, 77, 0
14, 120642, Note_on_c, 13, 70, 72
14, 120656, Note_on_c, 13, 70, 0
14, 120662, Control_c, 13, 64, 88
14, 120666, Control_c, 13, 64, 24
14, 120670, Control_c, 13, 64, 0
14, 120674, Note_on_c, 13, 77, 86
14, 120674, Note_on_c, 13, 75, 72
14, 120675, Note_on_c, 13, 58, 74
14, 120686, Control_c, 13, 64, 56
14, 120690, Control_c, 13, 64, 127
14, 120698, Note_on_c, 13, 58, 0
14, 120710, Note_on_c, 13, 70, 68
14, 120720, Note_on_c, 13, 77, 0
14, 120729, Note_on_c, 13, 75, 0
14, 120739, Note_on_c, 13, 70, 0
14, 120743, Note_on_c, 13, 65, 72
14, 120756, Note_on_c, 13, 65, 0
14, 120778, Note_on_c, 13, 58, 60
14, 120793, Note_on_c, 13, 58, 0
14, 120803, Control_c, 13, 64, 72
14, 120807, Control_c, 13, 64, 0
14, 120813, Note_on_c, 13, 65, 78
14, 120815, Note_on_c, 13, 34, 65
14, 120815, Note_on_c, 13, 62, 75
14, 120816, Note_on_c, 13, 46, 65
14, 120831, Control_c, 13, 64, 40
14, 120835, Note_on_c, 13, 34, 0
14, 120835, Control_c, 13, 64, 104
14, 120838, Note_on_c, 13, 46, 0
14, 120839, Control_c, 13, 64, 127
14, 120845, Note_on_c, 13, 65, 0
14, 120849, Note_on_c, 13, 58, 57
14, 120852, Note_on_c, 13, 62, 0
14, 120877, Note_on_c, 13, 58, 0
14, 120882, Note_on_c, 13, 53, 69
14, 120903, Note_on_c, 13, 53, 0
14, 120918, Note_on_c, 13, 66, 89
14, 120931, Note_on_c, 13, 66, 0
14, 120948, Control_c, 13, 64, 88
14, 120953, Control_c, 13, 64, 0
14, 120954, Note_on_c, 13, 65, 84
14, 120957, Note_on_c, 13, 62, 71
14, 120977, Control_c, 13, 64, 72
14, 120981, Control_c, 13, 64, 127
14, 120987, Note_on_c, 13, 62, 0
14, 120990, Note_on_c, 13, 58, 59
14, 120996, Note_on_c, 13, 65, 0
14, 121017, Note_on_c, 13, 58, 0
14, 121025, Note_on_c, 13, 53, 58
14, 121034, Note_on_c, 13, 53, 0
14, 121055, Note_on_c, 13, 46, 57
14, 121062, Note_on_c, 13, 46, 0
14, 121090, Note_on_c, 13, 65, 75
14, 121091, Control_c, 13, 64, 24
14, 121093, Note_on_c, 13, 59, 71
14, 121094, Note_on_c, 13, 53, 67
14, 121095, Control_c, 13, 64, 88
14, 121096, Note_on_c, 13, 37, 55
14, 121097, Note_on_c, 13, 49, 47
14, 121099, Control_c, 13, 64, 127
14, 121105, Note_on_c, 13, 65, 0
14, 121108, Note_on_c, 13, 59, 0
14, 121113, Note_on_c, 13, 49, 0
14, 121114, Note_on_c, 13, 53, 0
14, 121114, Note_on_c, 13, 37, 0
14, 121162, Note_on_c, 13, 52, 74
14, 121165, Note_on_c, 13, 43, 53
14, 121186, Note_on_c, 13, 52, 0
14, 121196, Note_on_c, 13, 43, 0
14, 121197, Note_on_c, 13, 53, 81
14, 121199, Note_on_c, 13, 44, 60
14, 121207, Note_on_c, 13, 44, 0
14, 121209, Note_on_c, 13, 53, 0
14, 121235, Note_on_c, 13, 65, 92
14, 121237, Note_on_c, 13, 59, 68
14, 121242, Note_on_c, 13, 49, 52
14, 121246, Note_on_c, 13, 59, 0
14, 121248, Control_c, 13, 64, 24
14, 121252, Control_c, 13, 64, 0
14, 121260, Note_on_c, 13, 49, 0
14, 121261, Note_on_c, 13, 65, 0
14, 121268, Control_c, 13, 64, 40
14, 121272, Note_on_c, 13, 71, 86
14, 121272, Note_on_c, 13, 56, 46
14, 121273, Control_c, 13, 64, 127
14, 121300, Note_on_c, 13, 56, 0
14, 121304, Note_on_c, 13, 64, 82
14, 121309, Note_on_c, 13, 55, 57
14, 121322, Note_on_c, 13, 71, 0
14, 121331, Note_on_c, 13, 55, 0
14, 121339, Note_on_c, 13, 56, 64
14, 121340, Note_on_c, 13, 64, 0
14, 121340, Note_on_c, 13, 65, 75
14, 121347, Note_on_c, 13, 65, 0
14, 121350, Note_on_c, 13, 56, 0
14, 121375, Note_on_c, 13, 77, 100
14, 121376, Note_on_c, 13, 71, 78
14, 121380, Note_on_c, 13, 61, 61
14, 121381, Control_c, 13, 64, 40
14, 121385, Control_c, 13, 64, 0
14, 121396, Note_on_c, 13, 71, 0
14, 121400, Note_on_c, 13, 77, 0
14, 121402, Control_c, 13, 64, 88
14, 121406, Control_c, 13, 64, 127
14, 121406, Note_on_c, 13, 68, 55
14, 121407, Note_on_c, 13, 61, 0
14, 121410, Note_on_c, 13, 83, 94
14, 121431, Note_on_c, 13, 68, 0
14, 121440, Note_on_c, 13, 76, 85
14, 121443, Note_on_c, 13, 67, 57
14, 121466, Note_on_c, 13, 83, 0
14, 121472, Note_on_c, 13, 67, 0
14, 121475, Note_on_c, 13, 77, 82
14, 121477, Note_on_c, 13, 76, 0
14, 121478, Note_on_c, 13, 68, 68
14, 121482, Note_on_c, 13, 77, 0
14, 121488, Note_on_c, 13, 68, 0
14, 121510, Note_on_c, 13, 89, 102
14, 121510, Note_on_c, 13, 83, 89
14, 121518, Note_on_c, 13, 73, 63
14, 121528, Note_on_c, 13, 83, 0
14, 121535, Note_on_c, 13, 89, 0
14, 121539, Note_on_c, 13, 73, 0
14, 121544, Note_on_c, 13, 80, 64
14, 121545, Note_on_c, 13, 95, 101
14, 121568, Note_on_c, 13, 80, 0
14, 121577, Note_on_c, 13, 88, 86
14, 121577, Note_on_c, 13, 79, 60
14, 121594, Note_on_c, 13, 95, 0
14, 121604, Note_on_c, 13, 79, 0
14, 121606, Note_on_c, 13, 88, 0
14, 121610, Note_on_c, 13, 89, 102
14, 121612, Note_on_c, 13, 77, 67
14, 121628, Note_on_c, 13, 89, 0
14, 121634, Note_on_c, 13, 77, 0
14, 121648, Control_c, 13, 64, 24
14, 121649, Note_on_c, 13, 96, 100
14, 121650, Note_on_c, 13, 91, 99
14, 121652, Control_c, 13, 64, 0
14, 121653, Note_on_c, 13, 76, 73
14, 121655, Note_on_c, 13, 72, 72
14, 121672, Note_on_c, 13, 91, 0
14, 121672, Control_c, 13, 64, 127
14, 121685, Note_on_c, 13, 88, 85
14, 121688, Note_on_c, 13, 72, 0
14, 121688, Note_on_c, 13, 76, 0
14, 121707, Note_on_c, 13, 96, 0
14, 121718, Note_on_c, 13, 88, 0
14, 121720, Note_on_c, 13, 84, 78
14, 121734, Note_on_c, 13, 84, 0
14, 121754, Note_on_c, 13, 76, 87
14, 121771, Note_on_c, 13, 76, 0
14, 121787, Note_on_c, 13, 84, 81
14, 121788, Note_on_c, 13, 79, 73
14, 121789, Note_on_c, 13, 67, 61
14, 121789, Control_c, 13, 64, 0
14, 121790, Note_on_c, 13, 60, 64
14, 121809, Control_c, 13, 64, 88
14, 121810, Note_on_c, 13, 67, 0
14, 121813, Note_on_c, 13, 79, 0
14, 121813, Control_c, 13, 64, 127
14, 121814, Note_on_c, 13, 60, 0
14, 121819, Note_on_c, 13, 84, 0
14, 121824, Note_on_c, 13, 76, 75
14, 121856, Note_on_c, 13, 76, 0
14, 121858, Note_on_c, 13, 72, 75
14, 121866, Note_on_c, 13, 72, 0
14, 121891, Note_on_c, 13, 64, 76
14, 121910, Note_on_c, 13, 64, 0
14, 121922, Control_c, 13, 64, 40
14, 121926, Control_c, 13, 64, 0
14, 121927, Note_on_c, 13, 72, 81
14, 121927, Note_on_c, 13, 67, 68
14, 121929, Note_on_c, 13, 48, 67
14, 121937, Note_on_c, 13, 48, 0
14, 121950, Control_c, 13, 64, 104
14, 121952, Note_on_c, 13, 67, 0
14, 121954, Control_c, 13, 64, 127
14, 121957, Note_on_c, 13, 72, 0
14, 121961, Note_on_c, 13, 64, 73
14, 121991, Note_on_c, 13, 64, 0
14, 121998, Note_on_c, 13, 60, 70
14, 122018, Note_on_c, 13, 60, 0
14, 122031, Note_on_c, 13, 68, 76
14, 122044, Note_on_c, 13, 68, 0
14, 122070, Note_on_c, 13, 72, 79
14, 122072, Note_on_c, 13, 67, 65
14, 122075, Control_c, 13, 64, 40
14, 122079, Control_c, 13, 64, 0
14, 122094, Note_on_c, 13, 67, 0
14, 122096, Control_c, 13, 64, 56
14, 122100, Control_c, 13, 64, 127
14, 122106, Note_on_c, 13, 64, 71
14, 122118, Note_on_c, 13, 72, 0
14, 122132, Note_on_c, 13, 64, 0
14, 122136, Note_on_c, 13, 60, 70
14, 122152, Note_on_c, 13, 60, 0
14, 122177, Note_on_c, 13, 48, 64
14, 122184, Note_on_c, 13, 48, 0
14, 122212, Control_c, 13, 64, 88
14, 122216, Note_on_c, 13, 67, 84
14, 122217, Control_c, 13, 64, 0
14, 122217, Note_on_c, 13, 55, 63
14, 122220, Note_on_c, 13, 61, 59
14, 122222, Note_on_c, 13, 51, 52
14, 122224, Note_on_c, 13, 39, 55
14, 122238, Note_on_c, 13, 67, 0
14, 122240, Note_on_c, 13, 61, 0
14, 122241, Control_c, 13, 64, 88
14, 122243, Note_on_c, 13, 51, 0
14, 122245, Control_c, 13, 64, 127
14, 122251, Note_on_c, 13, 39, 0
14, 122266, Note_on_c, 13, 55, 0
14, 122293, Note_on_c, 13, 54, 65
14, 122294, Note_on_c, 13, 45, 60
14, 122315, Note_on_c, 13, 54, 0
14, 122318, Note_on_c, 13, 45, 0
14, 122324, Note_on_c, 13, 55, 76
14, 122325, Note_on_c, 13, 46, 72
14, 122332, Note_on_c, 13, 55, 0
14, 122338, Note_on_c, 13, 46, 0
14, 122366, Note_on_c, 13, 67, 78
14, 122366, Note_on_c, 13, 61, 60
14, 122370, Control_c, 13, 64, 56
14, 122370, Note_on_c, 13, 51, 57
14, 122374, Control_c, 13, 64, 0
14, 122381, Note_on_c, 13, 51, 0
14, 122388, Note_on_c, 13, 67, 0
14, 122390, Note_on_c, 13, 61, 0
14, 122394, Control_c, 13, 64, 72
14, 122398, Note_on_c, 13, 58, 52
14, 122398, Control_c, 13, 64, 127
14, 122401, Note_on_c, 13, 73, 88
14, 122403, Note_on_c, 13, 61, 23
14, 122412, Note_on_c, 13, 61, 0
14, 122426, Note_on_c, 13, 73, 0
14, 122427, Note_on_c, 13, 58, 0
14, 122432, Note_on_c, 13, 66, 80
14, 122438, Note_on_c, 13, 57, 56
14, 122462, Note_on_c, 13, 57, 0
14, 122465, Note_on_c, 13, 67, 80
14, 122470, Note_on_c, 13, 58, 61
14, 122473, Note_on_c, 13, 67, 0
14, 122476, Note_on_c, 13, 66, 0
14, 122477, Note_on_c, 13, 58, 0
14, 122504, Note_on_c, 13, 73, 86
14, 122505, Note_on_c, 13, 79, 97
14, 122509, Note_on_c, 13, 63, 71
14, 122511, Control_c, 13, 64, 56
14, 122515, Control_c, 13, 64, 0
14, 122521, Note_on_c, 13, 73, 0
14, 122524, Note_on_c, 13, 79, 0
14, 122527, Control_c, 13, 64, 40
14, 122530, Note_on_c, 13, 63, 0
14, 122532, Control_c, 13, 64, 127
14, 122536, Note_on_c, 13, 70, 55
14, 122539, Note_on_c, 13, 85, 90
14, 122561, Note_on_c, 13, 70, 0
14, 122566, Note_on_c, 13, 85, 0
14, 122570, Note_on_c, 13, 78, 85
14, 122574, Note_on_c, 13, 69, 63
14, 122600, Note_on_c, 13, 69, 0
14, 122602, Note_on_c, 13, 79, 82
14, 122607, Note_on_c, 13, 70, 72
14, 122610, Note_on_c, 13, 79, 0
14, 122612, Note_on_c, 13, 78, 0
14, 122618, Note_on_c, 13, 70, 0
14, 122639, Note_on_c, 13, 85, 92
14, 122639, Note_on_c, 13, 91, 107
14, 122647, Note_on_c, 13, 75, 73
14, 122652, Note_on_c, 13, 85, 0
14, 122658, Note_on_c, 13, 91, 0
14, 122669, Note_on_c, 13, 75, 0
14, 122675, Note_on_c, 13, 97, 95
14, 122677, Note_on_c, 13, 82, 65
14, 122697, Note_on_c, 13, 82, 0
14, 122698, Note_on_c, 13, 97, 0
14, 122706, Note_on_c, 13, 90, 81
14, 122712, Note_on_c, 13, 81, 55
14, 122730, Note_on_c, 13, 90, 0
14, 122731, Note_on_c, 13, 81, 0
14, 122739, Note_on_c, 13, 79, 71
14, 122740, Note_on_c, 13, 91, 103
14, 122757, Note_on_c, 13, 79, 0
14, 122758, Note_on_c, 13, 91, 0
14, 122778, Control_c, 13, 64, 104
14, 122778, Note_on_c, 13, 98, 107
14, 122778, Note_on_c, 13, 93, 108
14, 122779, Note_on_c, 13, 78, 68
14, 122780, Note_on_c, 13, 74, 77
14, 122782, Control_c, 13, 64, 0
14, 122801, Note_on_c, 13, 93, 0
14, 122802, Control_c, 13, 64, 127
14, 122812, Note_on_c, 13, 74, 0
14, 122815, Note_on_c, 13, 90, 75
14, 122820, Note_on_c, 13, 78, 0
14, 122834, Note_on_c, 13, 98, 0
14, 122845, Note_on_c, 13, 90, 0
14, 122846, Note_on_c, 13, 86, 74
14, 122855, Note_on_c, 13, 86, 0
14, 122879, Note_on_c, 13, 78, 79
14, 122896, Note_on_c, 13, 78, 0
14, 122913, Note_on_c, 13, 86, 87
14, 122915, Control_c, 13, 64, 72
14, 122915, Note_on_c, 13, 81, 80
14, 122917, Note_on_c, 13, 69, 69
14, 122918, Note_on_c, 13, 62, 61
14, 122919, Control_c, 13, 64, 0
14, 122938, Note_on_c, 13, 69, 0
14, 122938, Note_on_c, 13, 81, 0
14, 122939, Control_c, 13, 64, 104
14, 122942, Note_on_c, 13, 62, 0
14, 122943, Control_c, 13, 64, 127
14, 122951, Note_on_c, 13, 78, 71
14, 122953, Note_on_c, 13, 86, 0
14, 122977, Note_on_c, 13, 78, 0
14, 122984, Note_on_c, 13, 74, 69
14, 122992, Note_on_c, 13, 74, 0
14, 123016, Note_on_c, 13, 66, 72
14, 123033, Note_on_c, 13, 66, 0
14, 123040, Control_c, 13, 64, 104
14, 123044, Control_c, 13, 64, 0
14, 123048, Note_on_c, 13, 74, 84
14, 123052, Note_on_c, 13, 69, 72
14, 123052, Note_on_c, 13, 50, 60
14, 123064, Note_on_c, 13, 50, 0
14, 123068, Control_c, 13, 64, 72
14, 123072, Control_c, 13, 64, 127
14, 123074, Note_on_c, 13, 69, 0
14, 123082, Note_on_c, 13, 66, 63
14, 123083, Note_on_c, 13, 74, 0
14, 123110, Note_on_c, 13, 66, 0
14, 123117, Note_on_c, 13, 62, 70
14, 123138, Note_on_c, 13, 62, 0
14, 123153, Note_on_c, 13, 70, 86
14, 123163, Note_on_c, 13, 70, 0
14, 123188, Note_on_c, 13, 74, 82
14, 123191, Note_on_c, 13, 69, 71
14, 123201, Control_c, 13, 64, 40
14, 123205, Control_c, 13, 64, 0
14, 123213, Note_on_c, 13, 69, 0
14, 123221, Note_on_c, 13, 66, 68
14, 123222, Control_c, 13, 64, 72
14, 123226, Control_c, 13, 64, 127
14, 123256, Note_on_c, 13, 66, 0
14, 123257, Note_on_c, 13, 62, 67
14, 123272, Note_on_c, 13, 62, 0
14, 123289, Note_on_c, 13, 50, 66
14, 123296, Note_on_c, 13, 50, 0
14, 123296, Note_on_c, 13, 74, 0
14, 123333, Note_on_c, 13, 67, 76
14, 123338, Control_c, 13, 64, 56
14, 123342, Control_c, 13, 64, 0
14, 123344, Note_on_c, 13, 43, 61
14, 123362, Control_c, 13, 64, 72
14, 123367, Note_on_c, 13, 67, 0
14, 123367, Control_c, 13, 64, 127
14, 123369, Note_on_c, 13, 72, 84
14, 123372, Note_on_c, 13, 43, 0
14, 123384, Note_on_c, 13, 72, 0
14, 123402, Note_on_c, 13, 70, 85
14, 123406, Note_on_c, 13, 50, 53
14, 123407, Note_on_c, 13, 58, 42
14, 123414, Note_on_c, 13, 50, 0
14, 123424, Note_on_c, 13, 70, 0
14, 123426, Note_on_c, 13, 58, 0
14, 123433, Note_on_c, 13, 75, 88
14, 123449, Note_on_c, 13, 75, 0
14, 123466, Note_on_c, 13, 74, 91
14, 123470, Note_on_c, 13, 62, 46
14, 123478, Note_on_c, 13, 55, 34
14, 123486, Note_on_c, 13, 74, 0
14, 123494, Note_on_c, 13, 62, 0
14, 123499, Note_on_c, 13, 81, 94
14, 123502, Note_on_c, 13, 55, 0
14, 123521, Note_on_c, 13, 81, 0
14, 123530, Note_on_c, 13, 79, 92
14, 123535, Note_on_c, 13, 67, 57
14, 123536, Note_on_c, 13, 58, 48
14, 123544, Note_on_c, 13, 79, 0
14, 123551, Note_on_c, 13, 67, 0
14, 123565, Note_on_c, 13, 93, 98
14, 123573, Note_on_c, 13, 58, 0
14, 123578, Note_on_c, 13, 93, 0
14, 123595, Note_on_c, 13, 70, 61
14, 123599, Note_on_c, 13, 62, 58
14, 123600, Note_on_c, 13, 91, 96
14, 123608, Note_on_c, 13, 62, 0
14, 123610, Note_on_c, 13, 70, 0
14, 123623, Note_on_c, 13, 91, 0
14, 123636, Note_on_c, 13, 87, 88
14, 123655, Note_on_c, 13, 87, 0
14, 123666, Note_on_c, 13, 62, 56
14, 123670, Note_on_c, 13, 86, 93
14, 123696, Note_on_c, 13, 86, 0
14, 123701, Note_on_c, 13, 79, 86
14, 123718, Note_on_c, 13, 79, 0
14, 123724, Note_on_c, 13, 62, 0
14, 123738, Note_on_c, 13, 75, 86
14, 123740, Note_on_c, 13, 55, 61
14, 123754, Note_on_c, 13, 75, 0
14, 123770, Note_on_c, 13, 74, 84
14, 123793, Note_on_c, 13, 74, 0
14, 123801, Note_on_c, 13, 67, 80
14, 123806, Note_on_c, 13, 46, 63
14, 123819, Note_on_c, 13, 67, 0
14, 123821, Note_on_c, 13, 55, 0
14, 123824, Note_on_c, 13, 46, 0
14, 123838, Note_on_c, 13, 62, 86
14, 123852, Note_on_c, 13, 62, 0
14, 123872, Note_on_c, 13, 63, 90
14, 123875, Control_c, 13, 64, 40
14, 123878, Note_on_c, 13, 48, 64
14, 123879, Control_c, 13, 64, 0
14, 123899, Note_on_c, 13, 63, 0
14, 123899, Control_c, 13, 64, 56
14, 123903, Control_c, 13, 64, 127
14, 123907, Note_on_c, 13, 70, 77
14, 123927, Note_on_c, 13, 70, 0
14, 123930, Note_on_c, 13, 48, 0
14, 123942, Note_on_c, 13, 69, 86
14, 123946, Note_on_c, 13, 57, 46
14, 123962, Note_on_c, 13, 69, 0
14, 123973, Note_on_c, 13, 74, 87
14, 123990, Note_on_c, 13, 57, 0
14, 123994, Note_on_c, 13, 74, 0
14, 124009, Note_on_c, 13, 72, 87
14, 124011, Note_on_c, 13, 51, 53
14, 124012, Note_on_c, 13, 60, 47
14, 124023, Note_on_c, 13, 60, 0
14, 124025, Note_on_c, 13, 72, 0
14, 124038, Note_on_c, 13, 51, 0
14, 124043, Note_on_c, 13, 81, 84
14, 124069, Note_on_c, 13, 81, 0
14, 124074, Note_on_c, 13, 75, 79
14, 124076, Note_on_c, 13, 63, 46
14, 124081, Note_on_c, 13, 57, 53
14, 124098, Note_on_c, 13, 63, 0
14, 124100, Note_on_c, 13, 57, 0
14, 124100, Note_on_c, 13, 75, 0
14, 124108, Note_on_c, 13, 69, 80
14, 124123, Note_on_c, 13, 69, 0
14, 124141, Control_c, 13, 64, 104
14, 124145, Note_on_c, 13, 65, 86
14, 124145, Control_c, 13, 64, 0
14, 124152, Note_on_c, 13, 50, 63
14, 124170, Note_on_c, 13, 65, 0
14, 124174, Control_c, 13, 64, 127
14, 124176, Note_on_c, 13, 72, 87
14, 124195, Note_on_c, 13, 50, 0
14, 124200, Note_on_c, 13, 72, 0
14, 124212, Note_on_c, 13, 71, 88
14, 124214, Note_on_c, 13, 59, 65
14, 124245, Note_on_c, 13, 75, 88
14, 124250, Note_on_c, 13, 71, 0
14, 124251, Note_on_c, 13, 59, 0
14, 124265, Note_on_c, 13, 75, 0
14, 124278, Note_on_c, 13, 74, 96
14, 124279, Note_on_c, 13, 62, 57
14, 124280, Note_on_c, 13, 55, 61
14, 124290, Note_on_c, 13, 55, 0
14, 124299, Note_on_c, 13, 62, 0
14, 124301, Note_on_c, 13, 74, 0
14, 124313, Note_on_c, 13, 83, 97
14, 124342, Note_on_c, 13, 83, 0
14, 124346, Note_on_c, 13, 77, 88
14, 124352, Note_on_c, 13, 59, 57
14, 124352, Note_on_c, 13, 65, 52
14, 124361, Note_on_c, 13, 65, 0
14, 124361, Note_on_c, 13, 59, 0
14, 124374, Note_on_c, 13, 77, 0
14, 124380, Note_on_c, 13, 71, 75
14, 124395, Note_on_c, 13, 71, 0
14, 124412, Control_c, 13, 64, 104
14, 124416, Control_c, 13, 64, 0
14, 124420, Note_on_c, 13, 67, 75
14, 124421, Note_on_c, 13, 51, 67
14, 124437, Note_on_c, 13, 51, 0
14, 124439, Note_on_c, 13, 67, 0
14, 124440, Control_c, 13, 64, 88
14, 124444, Control_c, 13, 64, 127
14, 124451, Note_on_c, 13, 74, 77
14, 124471, Note_on_c, 13, 74, 0
14, 124485, Note_on_c, 13, 72, 86
14, 124486, Note_on_c, 13, 63, 52
14, 124489, Note_on_c, 13, 55, 49
14, 124502, Note_on_c, 13, 55, 0
14, 124518, Note_on_c, 13, 72, 0
14, 124518, Note_on_c, 13, 77, 86
14, 124529, Note_on_c, 13, 63, 0
14, 124534, Note_on_c, 13, 77, 0
14, 124548, Note_on_c, 13, 60, 61
14, 124549, Note_on_c, 13, 67, 54
14, 124550, Note_on_c, 13, 75, 75
14, 124557, Note_on_c, 13, 60, 0
14, 124570, Note_on_c, 13, 75, 0
14, 124570, Note_on_c, 13, 67, 0
14, 124579, Note_on_c, 13, 80, 88
14, 124602, Note_on_c, 13, 80, 0
14, 124613, Note_on_c, 13, 79, 90
14, 124618, Note_on_c, 13, 72, 63
14, 124618, Note_on_c, 13, 63, 65
14, 124634, Note_on_c, 13, 72, 0
14, 124638, Note_on_c, 13, 63, 0
14, 124640, Note_on_c, 13, 79, 0
14, 124645, Note_on_c, 13, 86, 93
14, 124666, Note_on_c, 13, 86, 0
14, 124674, Control_c, 13, 64, 104
14, 124678, Control_c, 13, 64, 24
14, 124680, Note_on_c, 13, 75, 76
14, 124682, Control_c, 13, 64, 0
14, 124684, Note_on_c, 13, 84, 92
14, 124684, Note_on_c, 13, 67, 68
14, 124690, Control_c, 13, 64, 56
14, 124694, Note_on_c, 13, 75, 0
14, 124694, Control_c, 13, 64, 127
14, 124704, Note_on_c, 13, 67, 0
14, 124706, Note_on_c, 13, 84, 0
14, 124717, Note_on_c, 13, 79, 79
14, 124744, Note_on_c, 13, 79, 0
14, 124748, Note_on_c, 13, 75, 75
14, 124750, Note_on_c, 13, 63, 64
14, 124775, Note_on_c, 13, 75, 0
14, 124780, Note_on_c, 13, 74, 76
14, 124796, Note_on_c, 13, 63, 0
14, 124798, Note_on_c, 13, 74, 0
14, 124812, Note_on_c, 13, 72, 78
14, 124815, Note_on_c, 13, 55, 68
14, 124835, Note_on_c, 13, 72, 0
14, 124846, Note_on_c, 13, 74, 85
14, 124872, Note_on_c, 13, 74, 0
14, 124880, Note_on_c, 13, 48, 67
14, 124882, Note_on_c, 13, 75, 75
14, 124888, Note_on_c, 13, 48, 0
14, 124892, Note_on_c, 13, 55, 0
14, 124908, Note_on_c, 13, 75, 0
14, 124912, Note_on_c, 13, 67, 82
14, 124931, Note_on_c, 13, 67, 0
14, 124948, Control_c, 13, 64, 72
14, 124949, Note_on_c, 13, 65, 86
14, 124952, Control_c, 13, 64, 0
14, 124955, Note_on_c, 13, 50, 60
14, 124972, Note_on_c, 13, 65, 0
14, 124976, Control_c, 13, 64, 72
14, 124980, Control_c, 13, 64, 127
14, 124983, Note_on_c, 13, 72, 87
14, 125003, Note_on_c, 13, 72, 0
14, 125004, Note_on_c, 13, 50, 0
14, 125017, Note_on_c, 13, 71, 88
14, 125020, Note_on_c, 13, 59, 64
14, 125049, Note_on_c, 13, 75, 84
14, 125053, Note_on_c, 13, 71, 0
14, 125064, Note_on_c, 13, 59, 0
14, 125069, Note_on_c, 13, 75, 0
14, 125083, Note_on_c, 13, 74, 91
14, 125086, Note_on_c, 13, 53, 48
14, 125086, Note_on_c, 13, 62, 51
14, 125095, Note_on_c, 13, 53, 0
14, 125104, Note_on_c, 13, 74, 0
14, 125105, Note_on_c, 13, 62, 0
14, 125116, Note_on_c, 13, 83, 92
14, 125150, Note_on_c, 13, 77, 87
14, 125151, Note_on_c, 13, 83, 0
14, 125152, Note_on_c, 13, 65, 48
14, 125154, Note_on_c, 13, 59, 58
14, 125161, Note_on_c, 13, 65, 0
14, 125164, Note_on_c, 13, 59, 0
14, 125178, Note_on_c, 13, 77, 0
14, 125184, Note_on_c, 13, 71, 78
14, 125199, Note_on_c, 13, 71, 0
14, 125220, Note_on_c, 13, 70, 100
14, 125223, Control_c, 13, 64, 0
14, 125227, Note_on_c, 13, 52, 54
14, 125243, Note_on_c, 13, 70, 0
14, 125247, Control_c, 13, 64, 127
14, 125252, Note_on_c, 13, 77, 90
14, 125264, Note_on_c, 13, 52, 0
14, 125275, Note_on_c, 13, 77, 0
14, 125287, Note_on_c, 13, 76, 92
14, 125287, Note_on_c, 13, 61, 59
14, 125311, Note_on_c, 13, 76, 0
14, 125318, Note_on_c, 13, 80, 94
14, 125336, Note_on_c, 13, 61, 0
14, 125344, Note_on_c, 13, 80, 0
14, 125353, Note_on_c, 13, 79, 93
14, 125356, Note_on_c, 13, 64, 64
14, 125357, Note_on_c, 13, 58, 56
14, 125377, Note_on_c, 13, 64, 0
14, 125378, Note_on_c, 13, 58, 0
14, 125380, Note_on_c, 13, 79, 0
14, 125388, Note_on_c, 13, 85, 96
14, 125413, Note_on_c, 13, 85, 0
14, 125422, Note_on_c, 13, 82, 94
14, 125424, Note_on_c, 13, 67, 55
14, 125424, Note_on_c, 13, 61, 56
14, 125435, Note_on_c, 13, 67, 0
14, 125440, Note_on_c, 13, 61, 0
14, 125453, Note_on_c, 13, 82, 0
14, 125458, Note_on_c, 13, 73, 86
14, 125479, Note_on_c, 13, 73, 0
14, 125496, Note_on_c, 13, 68, 82
14, 125497, Control_c, 13, 64, 56
14, 125501, Control_c, 13, 64, 0
14, 125502, Note_on_c, 13, 53, 64
14, 125510, Note_on_c, 13, 53, 0
14, 125517, Control_c, 13, 64, 56
14, 125520, Note_on_c, 13, 68, 0
14, 125521, Control_c, 13, 64, 127
14, 125529, Note_on_c, 13, 73, 74
14, 125544, Note_on_c, 13, 73, 0
14, 125564, Note_on_c, 13, 72, 86
14, 125566, Note_on_c, 13, 60, 56
14, 125570, Note_on_c, 13, 68, 52
14, 125581, Note_on_c, 13, 72, 0
14, 125590, Note_on_c, 13, 60, 0
14, 125595, Note_on_c, 13, 79, 90
14, 125608, Note_on_c, 13, 68, 0
14, 125614, Control_c, 13, 64, 104
14, 125616, Note_on_c, 13, 79, 0
14, 125618, Control_c, 13, 64, 0
14, 125628, Note_on_c, 13, 77, 98
14, 125628, Note_on_c, 13, 65, 61
14, 125630, Note_on_c, 13, 72, 56
14, 125634, Control_c, 13, 64, 88
14, 125637, Note_on_c, 13, 65, 0
14, 125638, Control_c, 13, 64, 127
14, 125650, Note_on_c, 13, 72, 0
14, 125662, Note_on_c, 13, 82, 86
14, 125665, Note_on_c, 13, 77, 0
14, 125676, Note_on_c, 13, 82, 0
14, 125696, Note_on_c, 13, 80, 91
14, 125701, Note_on_c, 13, 77, 58
14, 125703, Note_on_c, 13, 68, 56
14, 125715, Note_on_c, 13, 80, 0
14, 125720, Note_on_c, 13, 77, 0
14, 125723, Note_on_c, 13, 68, 0
14, 125729, Note_on_c, 13, 91, 106
14, 125748, Note_on_c, 13, 91, 0
14, 125767, Note_on_c, 13, 80, 78
14, 125769, Note_on_c, 13, 89, 103
14, 125771, Note_on_c, 13, 72, 73
14, 125780, Note_on_c, 13, 72, 0
14, 125781, Note_on_c, 13, 80, 0
14, 125790, Note_on_c, 13, 89, 0
14, 125802, Note_on_c, 13, 84, 85
14, 125828, Note_on_c, 13, 84, 0
14, 125836, Note_on_c, 13, 80, 82
14, 125839, Note_on_c, 13, 68, 74
14, 125865, Note_on_c, 13, 80, 0
14, 125868, Note_on_c, 13, 79, 82
14, 125886, Note_on_c, 13, 68, 0
14, 125889, Note_on_c, 13, 79, 0
14, 125906, Note_on_c, 13, 60, 68
14, 125907, Note_on_c, 13, 77, 86
14, 125924, Note_on_c, 13, 77, 0
14, 125938, Note_on_c, 13, 79, 90
14, 125962, Note_on_c, 13, 79, 0
14, 125968, Note_on_c, 13, 53, 68
14, 125972, Note_on_c, 13, 80, 74
14, 125976, Note_on_c, 13, 53, 0
14, 125978, Note_on_c, 13, 60, 0
14, 126000, Note_on_c, 13, 80, 0
14, 126003, Note_on_c, 13, 72, 89
14, 126021, Note_on_c, 13, 72, 0
14, 126038, Control_c, 13, 64, 72
14, 126042, Control_c, 13, 64, 0
14, 126042, Note_on_c, 13, 70, 94
14, 126046, Note_on_c, 13, 55, 63
14, 126066, Note_on_c, 13, 70, 0
14, 126070, Control_c, 13, 64, 127
14, 126076, Note_on_c, 13, 77, 93
14, 126088, Note_on_c, 13, 55, 0
14, 126098, Note_on_c, 13, 77, 0
14, 126111, Note_on_c, 13, 76, 92
14, 126112, Note_on_c, 13, 64, 69
14, 126136, Note_on_c, 13, 76, 0
14, 126140, Note_on_c, 13, 80, 95
14, 126154, Note_on_c, 13, 64, 0
14, 126167, Note_on_c, 13, 80, 0
14, 126176, Note_on_c, 13, 79, 93
14, 126178, Note_on_c, 13, 67, 64
14, 126179, Note_on_c, 13, 80, 73
14, 126180, Note_on_c, 13, 58, 57
14, 126195, Note_on_c, 13, 80, 0
14, 126197, Note_on_c, 13, 67, 0
14, 126204, Note_on_c, 13, 79, 0
14, 126207, Note_on_c, 13, 58, 0
14, 126212, Note_on_c, 13, 85, 91
14, 126235, Note_on_c, 13, 85, 0
14, 126244, Note_on_c, 13, 64, 71
14, 126245, Note_on_c, 13, 70, 49
14, 126246, Note_on_c, 13, 82, 88
14, 126259, Note_on_c, 13, 70, 0
14, 126264, Note_on_c, 13, 64, 0
14, 126270, Note_on_c, 13, 82, 0
14, 126278, Note_on_c, 13, 76, 90
14, 126304, Control_c, 13, 64, 72
14, 126306, Note_on_c, 13, 76, 0
14, 126308, Control_c, 13, 64, 0
14, 126312, Note_on_c, 13, 72, 93
14, 126318, Note_on_c, 13, 56, 63
14, 126332, Control_c, 13, 64, 104
14, 126336, Note_on_c, 13, 56, 0
14, 126336, Control_c, 13, 64, 127
14, 126340, Note_on_c, 13, 72, 0
14, 126345, Note_on_c, 13, 79, 88
14, 126371, Note_on_c, 13, 79, 0
14, 126380, Note_on_c, 13, 77, 96
14, 126382, Note_on_c, 13, 68, 50
14, 126412, Note_on_c, 13, 82, 86
14, 126417, Note_on_c, 13, 77, 0
14, 126426, Note_on_c, 13, 68, 0
14, 126430, Note_on_c, 13, 82, 0
14, 126443, Note_on_c, 13, 80, 96
14, 126448, Note_on_c, 13, 72, 68
14, 126449, Note_on_c, 13, 65, 61
14, 126457, Note_on_c, 13, 65, 0
14, 126463, Note_on_c, 13, 80, 0
14, 126467, Note_on_c, 13, 72, 0
14, 126478, Note_on_c, 13, 84, 88
14, 126499, Note_on_c, 13, 84, 0
14, 126513, Note_on_c, 13, 88, 103
14, 126520, Note_on_c, 13, 77, 51
14, 126527, Note_on_c, 13, 68, 52
14, 126531, Note_on_c, 13, 77, 0
14, 126537, Note_on_c, 13, 88, 0
14, 126539, Note_on_c, 13, 68, 0
14, 126546, Note_on_c, 13, 89, 118
14, 126566, Note_on_c, 13, 89, 0
14, 126574, Control_c, 13, 64, 88
14, 126578, Control_c, 13, 64, 0
14, 126589, Note_on_c, 13, 90, 111
14, 126592, Note_on_c, 13, 78, 111
14, 126592, Note_on_c, 13, 85, 96
14, 126592, Note_on_c, 13, 58, 69
14, 126592, Note_on_c, 13, 82, 92
14, 126593, Note_on_c, 13, 70, 74
14, 126594, Note_on_c, 13, 66, 76
14, 126594, Note_on_c, 13, 61, 70
14, 126600, Note_on_c, 13, 82, 0
14, 126602, Note_on_c, 13, 78, 0
14, 126603, Control_c, 13, 64, 104
14, 126606, Note_on_c, 13, 70, 0
14, 126606, Control_c, 13, 64, 127
14, 126608, Note_on_c, 13, 58, 0
14, 126610, Note_on_c, 13, 85, 0
14, 126610, Note_on_c, 13, 66, 0
14, 126612, Note_on_c, 13, 90, 0
14, 126613, Note_on_c, 13, 61, 0
14, 126677, Note_on_c, 13, 45, 82
14, 126679, Note_on_c, 13, 33, 55
14, 126703, Note_on_c, 13, 45, 0
14, 126706, Note_on_c, 13, 33, 0
14, 126709, Note_on_c, 13, 34, 64
14, 126713, Note_on_c, 13, 46, 84
14, 126736, Control_c, 13, 64, 104
14, 126737, Note_on_c, 13, 46, 0
14, 126740, Control_c, 13, 64, 56
14, 126744, Control_c, 13, 64, 0
14, 126748, Note_on_c, 13, 49, 93
14, 126749, Control_c, 13, 64, 40
14, 126750, Note_on_c, 13, 34, 0
14, 126750, Note_on_c, 13, 37, 66
14, 126752, Control_c, 13, 64, 72
14, 126756, Control_c, 13, 64, 88
14, 126765, Control_c, 13, 64, 104
14, 126769, Control_c, 13, 64, 127
14, 126778, Note_on_c, 13, 37, 0
14, 126783, Note_on_c, 13, 54, 80
14, 126783, Note_on_c, 13, 42, 71
14, 126791, Note_on_c, 13, 49, 0
14, 126796, Note_on_c, 13, 42, 0
14, 126802, Note_on_c, 13, 54, 0
14, 126819, Note_on_c, 13, 57, 87
14, 126822, Note_on_c, 13, 45, 73
14, 126837, Note_on_c, 13, 45, 0
14, 126842, Note_on_c, 13, 57, 0
14, 126851, Note_on_c, 13, 46, 74
14, 126854, Note_on_c, 13, 58, 81
14, 126867, Note_on_c, 13, 46, 0
14, 126877, Note_on_c, 13, 58, 0
14, 126891, Note_on_c, 13, 59, 97
14, 126895, Note_on_c, 13, 47, 80
14, 126897, Control_c, 13, 64, 40
14, 126901, Control_c, 13, 64, 0
14, 126913, Note_on_c, 13, 47, 0
14, 126919, Note_on_c, 13, 59, 0
14, 126927, Note_on_c, 13, 61, 86
14, 126927, Note_on_c, 13, 49, 65
14, 126930, Control_c, 13, 64, 104
14, 126934, Control_c, 13, 64, 127
14, 126951, Note_on_c, 13, 61, 0
14, 126953, Note_on_c, 13, 49, 0
14, 126962, Note_on_c, 13, 65, 81
14, 126965, Note_on_c, 13, 53, 70
14, 126991, Note_on_c, 13, 53, 0
14, 126997, Note_on_c, 13, 70, 86
14, 126998, Note_on_c, 13, 58, 65
14, 126999, Note_on_c, 13, 65, 0
14, 127010, Note_on_c, 13, 58, 0
14, 127013, Note_on_c, 13, 70, 0
14, 127033, Note_on_c, 13, 71, 91
14, 127034, Note_on_c, 13, 59, 69
14, 127051, Note_on_c, 13, 59, 0
14, 127051, Note_on_c, 13, 71, 0
14, 127062, Note_on_c, 13, 61, 58
14, 127066, Note_on_c, 13, 73, 93
14, 127087, Note_on_c, 13, 73, 0
14, 127088, Note_on_c, 13, 61, 0
14, 127100, Note_on_c, 13, 82, 94
14, 127101, Note_on_c, 13, 70, 72
14, 127120, Note_on_c, 13, 70, 0
14, 127124, Note_on_c, 13, 82, 0
14, 127133, Note_on_c, 13, 80, 95
14, 127134, Note_on_c, 13, 68, 70
14, 127163, Note_on_c, 13, 68, 0
14, 127164, Control_c, 13, 64, 40
14, 127168, Note_on_c, 13, 80, 0
14, 127168, Control_c, 13, 64, 0
14, 127174, Note_on_c, 13, 78, 100
14, 127176, Note_on_c, 13, 66, 76
14, 127192, Control_c, 13, 64, 127
14, 127195, Note_on_c, 13, 66, 0
14, 127199, Note_on_c, 13, 78, 0
14, 127253, Note_on_c, 13, 45, 72
14, 127256, Note_on_c, 13, 57, 69
14, 127273, Note_on_c, 13, 57, 0
14, 127280, Note_on_c, 13, 45, 0
14, 127285, Control_c, 13, 64, 104
14, 127287, Note_on_c, 13, 58, 76
14, 127289, Control_c, 13, 64, 72
14, 127289, Note_on_c, 13, 46, 67
14, 127293, Control_c, 13, 64, 24
14, 127297, Control_c, 13, 64, 0
14, 127310, Note_on_c, 13, 58, 0
14, 127321, Note_on_c, 13, 46, 0
14, 127323, Note_on_c, 13, 61, 89
14, 127323, Note_on_c, 13, 49, 74
14, 127333, Control_c, 13, 64, 72
14, 127337, Control_c, 13, 64, 127
14, 127353, Note_on_c, 13, 49, 0
14, 127354, Note_on_c, 13, 61, 0
14, 127357, Note_on_c, 13, 66, 75
14, 127359, Note_on_c, 13, 54, 72
14, 127371, Note_on_c, 13, 54, 0
14, 127377, Note_on_c, 13, 66, 0
14, 127395, Note_on_c, 13, 69, 89
14, 127399, Note_on_c, 13, 57, 66
14, 127414, Note_on_c, 13, 69, 0
14, 127418, Note_on_c, 13, 57, 0
14, 127425, Note_on_c, 13, 58, 67
14, 127428, Note_on_c, 13, 70, 89
14, 127445, Note_on_c, 13, 58, 0
14, 127450, Note_on_c, 13, 70, 0
14, 127465, Note_on_c, 13, 71, 98
14, 127466, Control_c, 13, 64, 104
14, 127467, Note_on_c, 13, 59, 73
14, 127470, Control_c, 13, 64, 40
14, 127474, Control_c, 13, 64, 0
14, 127486, Note_on_c, 13, 59, 0
14, 127490, Note_on_c, 13, 71, 0
14, 127495, Control_c, 13, 64, 40
14, 127497, Note_on_c, 13, 73, 89
14, 127498, Note_on_c, 13, 61, 64
14, 127499, Control_c, 13, 64, 127
14, 127522, Note_on_c, 13, 73, 0
14, 127526, Note_on_c, 13, 61, 0
14, 127532, Note_on_c, 13, 77, 92
14, 127537, Note_on_c, 13, 65, 72
14, 127560, Note_on_c, 13, 65, 0
14, 127567, Note_on_c, 13, 82, 80
14, 127569, Note_on_c, 13, 70, 59
14, 127571, Note_on_c, 13, 77, 0
14, 127576, Note_on_c, 13, 70, 0
14, 127583, Note_on_c, 13, 82, 0
14, 127599, Note_on_c, 13, 83, 98
14, 127601, Note_on_c, 13, 71, 69
14, 127618, Note_on_c, 13, 71, 0
14, 127619, Note_on_c, 13, 83, 0
14, 127633, Note_on_c, 13, 85, 95
14, 127638, Note_on_c, 13, 73, 66
14, 127647, Note_on_c, 13, 73, 0
14, 127654, Note_on_c, 13, 85, 0
14, 127668, Note_on_c, 13, 94, 97
14, 127673, Note_on_c, 13, 82, 79
14, 127689, Note_on_c, 13, 82, 0
14, 127692, Note_on_c, 13, 94, 0
14, 127704, Note_on_c, 13, 92, 99
14, 127704, Note_on_c, 13, 80, 72
14, 127724, Note_on_c, 13, 92, 0
14, 127725, Note_on_c, 13, 80, 0
14, 127729, Control_c, 13, 64, 72
14, 127733, Control_c, 13, 64, 0
14, 127741, Note_on_c, 13, 91, 103
14, 127743, Note_on_c, 13, 88, 92
14, 127743, Note_on_c, 13, 79, 80
14, 127745, Note_on_c, 13, 73, 65
14, 127747, Note_on_c, 13, 76, 71
14, 127761, Control_c, 13, 64, 104
14, 127765, Control_c, 13, 64, 127
14, 127768, Note_on_c, 13, 73, 0
14, 127771, Note_on_c, 13, 79, 0
14, 127771, Note_on_c, 13, 76, 0
14, 127775, Note_on_c, 13, 91, 0
14, 127779, Note_on_c, 13, 88, 0
14, 127785, Note_on_c, 13, 79, 81
14, 127799, Note_on_c, 13, 79, 0
14, 127816, Note_on_c, 13, 76, 84
14, 127838, Note_on_c, 13, 76, 0
14, 127849, Note_on_c, 13, 75, 85
14, 127875, Note_on_c, 13, 75, 0
14, 127883, Note_on_c, 13, 73, 81
14, 127906, Note_on_c, 13, 73, 0
14, 127915, Note_on_c, 13, 72, 81
14, 127937, Note_on_c, 13, 72, 0
14, 127949, Note_on_c, 13, 71, 87
14, 127968, Note_on_c, 13, 71, 0
14, 127983, Note_on_c, 13, 70, 81
14, 127995, Control_c, 13, 64, 104
14, 127999, Control_c, 13, 64, 56
14, 128003, Control_c, 13, 64, 0
14, 128008, Note_on_c, 13, 70, 0
14, 128018, Note_on_c, 13, 76, 89
14, 128021, Note_on_c, 13, 47, 67
14, 128030, Note_on_c, 13, 47, 0
14, 128031, Control_c, 13, 64, 72
14, 128035, Control_c, 13, 64, 127
14, 128039, Note_on_c, 13, 76, 0
14, 128056, Note_on_c, 13, 68, 67
14, 128072, Note_on_c, 13, 68, 0
14, 128085, Note_on_c, 13, 63, 68
14, 128089, Note_on_c, 13, 75, 85
14, 128103, Note_on_c, 13, 63, 0
14, 128114, Note_on_c, 13, 75, 0
14, 128122, Note_on_c, 13, 80, 88
14, 128142, Note_on_c, 13, 80, 0
14, 128144, Control_c, 13, 64, 88
14, 128148, Control_c, 13, 64, 24
14, 128152, Control_c, 13, 64, 0
14, 128157, Note_on_c, 13, 75, 84
14, 128161, Note_on_c, 13, 59, 58
14, 128168, Control_c, 13, 64, 56
14, 128172, Control_c, 13, 64, 127
14, 128174, Note_on_c, 13, 75, 0
14, 128188, Note_on_c, 13, 87, 89
14, 128208, Note_on_c, 13, 87, 0
14, 128222, Note_on_c, 13, 80, 95
14, 128224, Note_on_c, 13, 68, 65
14, 128225, Note_on_c, 13, 63, 63
14, 128227, Note_on_c, 13, 59, 0
14, 128232, Note_on_c, 13, 68, 0
14, 128234, Note_on_c, 13, 63, 0
14, 128244, Note_on_c, 13, 80, 0
14, 128256, Note_on_c, 13, 92, 101
14, 128275, Note_on_c, 13, 92, 0
14, 128285, Control_c, 13, 64, 72
14, 128289, Control_c, 13, 64, 0
14, 128295, Note_on_c, 13, 93, 108
14, 128296, Note_on_c, 13, 90, 87
14, 128300, Note_on_c, 13, 48, 85
14, 128307, Note_on_c, 13, 48, 0
14, 128313, Control_c, 13, 64, 104
14, 128317, Control_c, 13, 64, 127
14, 128328, Note_on_c, 13, 93, 0
14, 128331, Note_on_c, 13, 81, 82
14, 128335, Note_on_c, 13, 90, 0
14, 128352, Note_on_c, 13, 81, 0
14, 128369, Note_on_c, 13, 69, 65
14, 128369, Note_on_c, 13, 78, 81
14, 128370, Note_on_c, 13, 63, 57
14, 128371, Note_on_c, 13, 66, 59
14, 128374, Note_on_c, 13, 81, 55
14, 128382, Note_on_c, 13, 81, 0
14, 128385, Note_on_c, 13, 78, 0
14, 128397, Note_on_c, 13, 77, 82
14, 128417, Note_on_c, 13, 77, 0
14, 128417, Note_on_c, 13, 63, 0
14, 128424, Note_on_c, 13, 66, 0
14, 128425, Note_on_c, 13, 69, 0
14, 128430, Note_on_c, 13, 76, 92
14, 128435, Note_on_c, 13, 60, 65
14, 128453, Note_on_c, 13, 76, 0
14, 128463, Note_on_c, 13, 75, 89
14, 128487, Note_on_c, 13, 75, 0
14, 128492, Note_on_c, 13, 60, 0
14, 128495, Note_on_c, 13, 73, 89
14, 128499, Note_on_c, 13, 63, 55
14, 128502, Note_on_c, 13, 69, 57
14, 128503, Note_on_c, 13, 66, 59
14, 128510, Note_on_c, 13, 66, 0
14, 128510, Note_on_c, 13, 69, 0
14, 128513, Note_on_c, 13, 63, 0
14, 128519, Note_on_c, 13, 73, 0
14, 128529, Note_on_c, 13, 72, 90
14, 128548, Note_on_c, 13, 72, 0
14, 128551, Control_c, 13, 64, 104
14, 128555, Control_c, 13, 64, 40
14, 128559, Control_c, 13, 64, 0
14, 128567, Note_on_c, 13, 78, 89
14, 128571, Note_on_c, 13, 49, 63
14, 128588, Note_on_c, 13, 49, 0
14, 128588, Control_c, 13, 64, 56
14, 128591, Note_on_c, 13, 78, 0
14, 128592, Control_c, 13, 64, 127
14, 128602, Note_on_c, 13, 70, 67
14, 128621, Note_on_c, 13, 70, 0
14, 128637, Note_on_c, 13, 77, 92
14, 128640, Note_on_c, 13, 65, 65
14, 128663, Note_on_c, 13, 77, 0
14, 128670, Note_on_c, 13, 82, 80
14, 128675, Note_on_c, 13, 65, 0
14, 128691, Note_on_c, 13, 82, 0
14, 128703, Note_on_c, 13, 77, 98
14, 128706, Note_on_c, 13, 61, 59
14, 128725, Note_on_c, 13, 77, 0
14, 128736, Note_on_c, 13, 89, 96
14, 128757, Note_on_c, 13, 89, 0
14, 128766, Note_on_c, 13, 61, 0
14, 128771, Note_on_c, 13, 82, 85
14, 128773, Note_on_c, 13, 70, 59
14, 128774, Note_on_c, 13, 65, 60
14, 128782, Note_on_c, 13, 65, 0
14, 128794, Note_on_c, 13, 82, 0
14, 128798, Note_on_c, 13, 70, 0
14, 128802, Note_on_c, 13, 94, 99
14, 128823, Note_on_c, 13, 94, 0
14, 128826, Control_c, 13, 64, 104
14, 128830, Control_c, 13, 64, 40
14, 128834, Control_c, 13, 64, 0
14, 128843, Note_on_c, 13, 92, 96
14, 128843, Note_on_c, 13, 95, 105
14, 128846, Note_on_c, 13, 65, 73
14, 128849, Note_on_c, 13, 71, 77
14, 128850, Note_on_c, 13, 62, 69
14, 128862, Control_c, 13, 64, 56
14, 128866, Control_c, 13, 64, 127
14, 128876, Note_on_c, 13, 95, 0
14, 128879, Note_on_c, 13, 83, 81
14, 128881, Note_on_c, 13, 92, 0
14, 128893, Note_on_c, 13, 65, 0
14, 128896, Note_on_c, 13, 62, 0
14, 128898, Note_on_c, 13, 71, 0
14, 128903, Note_on_c, 13, 83, 0
14, 128913, Note_on_c, 13, 82, 86
14, 128915, Note_on_c, 13, 70, 73
14, 128937, Note_on_c, 13, 70, 0
14, 128939, Note_on_c, 13, 82, 0
14, 128947, Note_on_c, 13, 81, 88
14, 128949, Note_on_c, 13, 69, 69
14, 128969, Note_on_c, 13, 69, 0
14, 128973, Note_on_c, 13, 81, 0
14, 128983, Note_on_c, 13, 80, 80
14, 128985, Note_on_c, 13, 68, 60
14, 129006, Note_on_c, 13, 68, 0
14, 129007, Note_on_c, 13, 80, 0
14, 129014, Note_on_c, 13, 79, 85
14, 129015, Control_c, 13, 64, 104
14, 129016, Note_on_c, 13, 67, 69
14, 129023, Control_c, 13, 64, 88
14, 129038, Note_on_c, 13, 79, 0
14, 129039, Control_c, 13, 64, 72
14, 129041, Note_on_c, 13, 67, 0
14, 129047, Note_on_c, 13, 78, 80
14, 129048, Note_on_c, 13, 66, 71
14, 129051, Control_c, 13, 64, 56
14, 129072, Note_on_c, 13, 78, 0
14, 129077, Note_on_c, 13, 66, 0
14, 129079, Note_on_c, 13, 65, 67
14, 129080, Note_on_c, 13, 77, 91
14, 129085, Note_on_c, 13, 65, 0
14, 129100, Control_c, 13, 64, 40
14, 129104, Control_c, 13, 64, 24
14, 129108, Control_c, 13, 64, 0
14, 129109, Note_on_c, 13, 77, 0
14, 129121, Note_on_c, 13, 80, 82
14, 129122, Note_on_c, 13, 83, 99
14, 129123, Note_on_c, 13, 53, 89
14, 129124, Note_on_c, 13, 59, 85
14, 129125, Note_on_c, 13, 49, 74
14, 129140, Control_c, 13, 64, 40
14, 129144, Control_c, 13, 64, 104
14, 129148, Control_c, 13, 64, 127
14, 129154, Note_on_c, 13, 83, 0
14, 129159, Note_on_c, 13, 80, 0
14, 129161, Note_on_c, 13, 71, 77
14, 129171, Note_on_c, 13, 53, 0
14, 129182, Note_on_c, 13, 59, 0
14, 129183, Note_on_c, 13, 49, 0
14, 129186, Note_on_c, 13, 71, 0
14, 129195, Note_on_c, 13, 70, 76
14, 129196, Note_on_c, 13, 58, 65
14, 129215, Note_on_c, 13, 58, 0
14, 129220, Note_on_c, 13, 70, 0
14, 129227, Note_on_c, 13, 69, 87
14, 129229, Note_on_c, 13, 57, 69
14, 129249, Note_on_c, 13, 57, 0
14, 129252, Note_on_c, 13, 69, 0
14, 129263, Note_on_c, 13, 68, 77
14, 129269, Note_on_c, 13, 56, 58
14, 129278, Note_on_c, 13, 56, 0
14, 129287, Note_on_c, 13, 68, 0
14, 129293, Note_on_c, 13, 67, 80
14, 129295, Note_on_c, 13, 55, 71
14, 129297, Control_c, 13, 64, 104
14, 129306, Control_c, 13, 64, 88
14, 129313, Note_on_c, 13, 55, 0
14, 129314, Control_c, 13, 64, 72
14, 129317, Note_on_c, 13, 67, 0
14, 129327, Note_on_c, 13, 66, 76
14, 129330, Note_on_c, 13, 54, 65
14, 129351, Note_on_c, 13, 54, 0
14, 129353, Note_on_c, 13, 66, 0
14, 129360, Note_on_c, 13, 65, 86
14, 129362, Note_on_c, 13, 53, 60
14, 129366, Control_c, 13, 64, 56
14, 129378, Control_c, 13, 64, 40
14, 129382, Control_c, 13, 64, 24
14, 129384, Note_on_c, 13, 53, 0
14, 129386, Control_c, 13, 64, 0
14, 129390, Note_on_c, 13, 65, 0
14, 129399, Note_on_c, 13, 60, 94
14, 129401, Note_on_c, 13, 48, 84
14, 129428, Note_on_c, 13, 60, 0
14, 129431, Control_c, 13, 64, 56
14, 129433, Note_on_c, 13, 65, 80
14, 129435, Control_c, 13, 64, 127
14, 129436, Note_on_c, 13, 53, 69
14, 129437, Note_on_c, 13, 48, 0
14, 129467, Note_on_c, 13, 65, 0
14, 129469, Note_on_c, 13, 68, 80
14, 129470, Note_on_c, 13, 53, 0
14, 129471, Note_on_c, 13, 56, 68
14, 129487, Note_on_c, 13, 68, 0
14, 129501, Note_on_c, 13, 56, 0
14, 129503, Note_on_c, 13, 72, 101
14, 129506, Note_on_c, 13, 60, 72
14, 129513, Note_on_c, 13, 60, 0
14, 129523, Note_on_c, 13, 72, 0
14, 129535, Note_on_c, 13, 77, 97
14, 129539, Note_on_c, 13, 65, 75
14, 129554, Note_on_c, 13, 65, 0
14, 129557, Note_on_c, 13, 77, 0
14, 129567, Note_on_c, 13, 80, 90
14, 129569, Note_on_c, 13, 68, 65
14, 129591, Note_on_c, 13, 68, 0
14, 129595, Note_on_c, 13, 80, 0
14, 129601, Note_on_c, 13, 84, 100
14, 129602, Note_on_c, 13, 72, 77
14, 129624, Note_on_c, 13, 72, 0
14, 129633, Note_on_c, 13, 84, 0
14, 129633, Note_on_c, 13, 82, 84
14, 129633, Note_on_c, 13, 70, 76
14, 129657, Control_c, 13, 64, 56
14, 129661, Control_c, 13, 64, 0
14, 129667, Note_on_c, 13, 82, 0
14, 129668, Note_on_c, 13, 68, 78
14, 129669, Note_on_c, 13, 80, 92
14, 129672, Note_on_c, 13, 70, 0
14, 129681, Control_c, 13, 64, 40
14, 129684, Note_on_c, 13, 68, 0
14, 129685, Control_c, 13, 64, 88
14, 129689, Control_c, 13, 64, 127
14, 129701, Note_on_c, 13, 80, 0
14, 129701, Note_on_c, 13, 77, 90
14, 129717, Control_c, 13, 64, 104
14, 129721, Control_c, 13, 64, 72
14, 129725, Control_c, 13, 64, 40
14, 129729, Control_c, 13, 64, 0
14, 129732, Note_on_c, 13, 77, 0
14, 129734, Note_on_c, 13, 60, 85
14, 129736, Note_on_c, 13, 72, 89
14, 129750, Note_on_c, 13, 60, 0
14, 129752, Note_on_c, 13, 72, 0
14, 129767, Note_on_c, 13, 68, 84
14, 129795, Note_on_c, 13, 68, 0
14, 129803, Note_on_c, 13, 53, 73
14, 129804, Note_on_c, 13, 65, 86
14, 129806, Control_c, 13, 64, 24
14, 129810, Note_on_c, 13, 53, 0
14, 129810, Control_c, 13, 64, 56
14, 129814, Control_c, 13, 64, 88
14, 129818, Control_c, 13, 64, 104
14, 129822, Control_c, 13, 64, 127
14, 129835, Note_on_c, 13, 65, 0
14, 129840, Note_on_c, 13, 60, 86
14, 129854, Control_c, 13, 64, 88
14, 129856, Note_on_c, 13, 60, 0
14, 129858, Control_c, 13, 64, 56
14, 129862, Control_c, 13, 64, 24
14, 129866, Control_c, 13, 64, 0
14, 129873, Note_on_c, 13, 41, 74
14, 129875, Note_on_c, 13, 56, 78
14, 129883, Control_c, 13, 64, 40
14, 129885, Note_on_c, 13, 41, 0
14, 129894, Note_on_c, 13, 56, 0
14, 129903, Control_c, 13, 64, 24
14, 129907, Control_c, 13, 64, 0
14, 129908, Note_on_c, 13, 53, 89
14, 129931, Note_on_c, 13, 53, 0
14, 129953, Note_on_c, 13, 48, 105
14, 129955, Note_on_c, 13, 36, 78
14, 129959, Control_c, 13, 64, 56
14, 129963, Note_on_c, 13, 36, 0
14, 129963, Control_c, 13, 64, 127
14, 129972, Note_on_c, 13, 48, 0
14, 130064, Control_c, 13, 64, 88
14, 130068, Control_c, 13, 64, 56
14, 130072, Control_c, 13, 64, 24
14, 130076, Control_c, 13, 64, 0
14, 130105, Note_on_c, 13, 68, 81
14, 130106, Note_on_c, 13, 56, 70
14, 130142, Note_on_c, 13, 67, 87
14, 130143, Note_on_c, 13, 55, 77
14, 130151, Note_on_c, 13, 56, 0
14, 130154, Note_on_c, 13, 68, 0
14, 130175, Note_on_c, 13, 67, 0
14, 130178, Note_on_c, 13, 65, 91
14, 130180, Note_on_c, 13, 53, 70
14, 130190, Note_on_c, 13, 55, 0
14, 130199, Note_on_c, 13, 53, 0
14, 130199, Note_on_c, 13, 65, 0
14, 130212, Note_on_c, 13, 65, 71
14, 130214, Note_on_c, 13, 77, 92
14, 130240, Note_on_c, 13, 77, 0
14, 130242, Note_on_c, 13, 65, 0
14, 130248, Note_on_c, 13, 63, 73
14, 130250, Note_on_c, 13, 75, 86
14, 130282, Note_on_c, 13, 63, 0
14, 130282, Note_on_c, 13, 61, 74
14, 130283, Note_on_c, 13, 75, 0
14, 130285, Note_on_c, 13, 73, 82
14, 130313, Note_on_c, 13, 73, 0
14, 130319, Note_on_c, 13, 72, 96
14, 130319, Note_on_c, 13, 60, 79
14, 130324, Note_on_c, 13, 61, 0
14, 130331, Note_on_c, 13, 60, 0
14, 130339, Note_on_c, 13, 72, 0
14, 130351, Note_on_c, 13, 84, 88
14, 130354, Note_on_c, 13, 72, 73
14, 130376, Note_on_c, 13, 84, 0
14, 130380, Note_on_c, 13, 72, 0
14, 130387, Note_on_c, 13, 68, 67
14, 130387, Note_on_c, 13, 80, 92
14, 130419, Note_on_c, 13, 80, 0
14, 130421, Note_on_c, 13, 79, 91
14, 130421, Note_on_c, 13, 67, 74
14, 130428, Note_on_c, 13, 68, 0
14, 130452, Note_on_c, 13, 79, 0
14, 130456, Note_on_c, 13, 77, 94
14, 130457, Note_on_c, 13, 65, 67
14, 130466, Note_on_c, 13, 67, 0
14, 130472, Note_on_c, 13, 77, 0
14, 130473, Note_on_c, 13, 65, 0
14, 130490, Note_on_c, 13, 89, 97
14, 130490, Note_on_c, 13, 77, 70
14, 130517, Note_on_c, 13, 89, 0
14, 130521, Note_on_c, 13, 77, 0
14, 130523, Note_on_c, 13, 75, 74
14, 130524, Note_on_c, 13, 87, 89
14, 130556, Note_on_c, 13, 87, 0
14, 130556, Note_on_c, 13, 73, 73
14, 130557, Note_on_c, 13, 85, 80
14, 130558, Note_on_c, 13, 75, 0
14, 130586, Note_on_c, 13, 85, 0
14, 130592, Note_on_c, 13, 84, 96
14, 130592, Note_on_c, 13, 72, 79
14, 130596, Note_on_c, 13, 73, 0
14, 130608, Note_on_c, 13, 72, 0
14, 130617, Note_on_c, 13, 84, 0
14, 130623, Note_on_c, 13, 96, 98
14, 130630, Note_on_c, 13, 84, 46
14, 130645, Note_on_c, 13, 84, 0
14, 130646, Note_on_c, 13, 96, 0
14, 130660, Note_on_c, 13, 77, 85
14, 130663, Note_on_c, 13, 89, 110
14, 130687, Note_on_c, 13, 77, 0
14, 130688, Note_on_c, 13, 89, 0
14, 130689, Note_on_c, 13, 75, 72
14, 130695, Note_on_c, 13, 87, 92
14, 130728, Note_on_c, 13, 87, 0
14, 130730, Note_on_c, 13, 85, 89
14, 130732, Note_on_c, 13, 73, 68
14, 130736, Note_on_c, 13, 75, 0
14, 130753, Note_on_c, 13, 73, 0
14, 130755, Note_on_c, 13, 85, 0
14, 130762, Note_on_c, 13, 92, 94
14, 130766, Note_on_c, 13, 80, 61
14, 130782, Note_on_c, 13, 92, 0
14, 130787, Note_on_c, 13, 80, 0
14, 130800, Note_on_c, 13, 72, 77
14, 130801, Note_on_c, 13, 84, 98
14, 130823, Note_on_c, 13, 84, 0
14, 130832, Note_on_c, 13, 72, 0
14, 130832, Note_on_c, 13, 82, 86
14, 130833, Note_on_c, 13, 70, 74
14, 130859, Note_on_c, 13, 82, 0
14, 130865, Note_on_c, 13, 70, 0
14, 130866, Note_on_c, 13, 68, 68
14, 130868, Note_on_c, 13, 80, 90
14, 130887, Note_on_c, 13, 80, 0
14, 130888, Note_on_c, 13, 68, 0
14, 130898, Note_on_c, 13, 92, 95
14, 130901, Note_on_c, 13, 80, 70
14, 130922, Note_on_c, 13, 80, 0
14, 130922, Note_on_c, 13, 92, 0
14, 130935, Note_on_c, 13, 85, 89
14, 130936, Note_on_c, 13, 73, 78
14, 130962, Note_on_c, 13, 73, 0
14, 130966, Note_on_c, 13, 72, 86
14, 130967, Note_on_c, 13, 84, 91
14, 130970, Note_on_c, 13, 85, 0
14, 130993, Note_on_c, 13, 84, 0
14, 131002, Note_on_c, 13, 82, 79
14, 131003, Note_on_c, 13, 72, 0
14, 131004, Note_on_c, 13, 70, 70
14, 131028, Note_on_c, 13, 82, 0
14, 131029, Note_on_c, 13, 70, 0
14, 131032, Note_on_c, 13, 89, 88
14, 131035, Note_on_c, 13, 77, 73
14, 131051, Note_on_c, 13, 89, 0
14, 131053, Note_on_c, 13, 77, 0
14, 131068, Note_on_c, 13, 68, 68
14, 131070, Note_on_c, 13, 80, 91
14, 131090, Note_on_c, 13, 80, 0
14, 131100, Note_on_c, 13, 79, 89
14, 131105, Note_on_c, 13, 67, 74
14, 131110, Note_on_c, 13, 68, 0
14, 131126, Note_on_c, 13, 79, 0
14, 131134, Note_on_c, 13, 77, 96
14, 131140, Note_on_c, 13, 65, 73
14, 131142, Note_on_c, 13, 67, 0
14, 131156, Note_on_c, 13, 77, 0
14, 131160, Note_on_c, 13, 65, 0
14, 131166, Note_on_c, 13, 89, 92
14, 131169, Note_on_c, 13, 77, 77
14, 131185, Note_on_c, 13, 89, 0
14, 131190, Note_on_c, 13, 77, 0
14, 131202, Note_on_c, 13, 92, 108
14, 131202, Note_on_c, 13, 89, 78
14, 131204, Note_on_c, 13, 80, 101
14, 131206, Note_on_c, 13, 90, 49
14, 131213, Note_on_c, 13, 90, 0
14, 131220, Note_on_c, 13, 89, 0
14, 131225, Note_on_c, 13, 92, 0
14, 131230, Note_on_c, 13, 80, 0
14, 131238, Note_on_c, 13, 91, 101
14, 131239, Note_on_c, 13, 79, 84
14, 131240, Note_on_c, 13, 88, 94
14, 131256, Note_on_c, 13, 79, 0
14, 131257, Note_on_c, 13, 91, 0
14, 131258, Note_on_c, 13, 88, 0
14, 131273, Note_on_c, 13, 90, 92
14, 131274, Note_on_c, 13, 87, 85
14, 131276, Note_on_c, 13, 78, 76
14, 131288, Note_on_c, 13, 87, 0
14, 131291, Note_on_c, 13, 78, 0
14, 131293, Note_on_c, 13, 90, 0
14, 131306, Note_on_c, 13, 89, 102
14, 131309, Note_on_c, 13, 86, 96
14, 131310, Note_on_c, 13, 77, 82
14, 131324, Note_on_c, 13, 86, 0
14, 131325, Note_on_c, 13, 89, 0
14, 131328, Note_on_c, 13, 77, 0
14, 131340, Note_on_c, 13, 85, 91
14, 131341, Note_on_c, 13, 88, 95
14, 131342, Note_on_c, 13, 76, 77
14, 131358, Note_on_c, 13, 85, 0
14, 131364, Note_on_c, 13, 76, 0
14, 131364, Note_on_c, 13, 88, 0
14, 131374, Note_on_c, 13, 84, 78
14, 131375, Note_on_c, 13, 87, 90
14, 131378, Note_on_c, 13, 75, 81
14, 131390, Note_on_c, 13, 84, 0
14, 131391, Note_on_c, 13, 87, 0
14, 131398, Note_on_c, 13, 75, 0
14, 131407, Note_on_c, 13, 86, 98
14, 131410, Note_on_c, 13, 74, 84
14, 131411, Note_on_c, 13, 83, 79
14, 131424, Note_on_c, 13, 83, 0
14, 131424, Note_on_c, 13, 86, 0
14, 131427, Note_on_c, 13, 74, 0
14, 131440, Note_on_c, 13, 85, 97
14, 131444, Note_on_c, 13, 82, 79
14, 131444, Note_on_c, 13, 73, 73
14, 131457, Note_on_c, 13, 82, 0
14, 131459, Note_on_c, 13, 73, 0
14, 131461, Note_on_c, 13, 85, 0
14, 131475, Note_on_c, 13, 84, 106
14, 131476, Note_on_c, 13, 72, 89
14, 131478, Note_on_c, 13, 81, 95
14, 131492, Note_on_c, 13, 81, 0
14, 131497, Note_on_c, 13, 72, 0
14, 131497, Note_on_c, 13, 84, 0
14, 131510, Note_on_c, 13, 80, 85
14, 131511, Note_on_c, 13, 83, 90
14, 131516, Note_on_c, 13, 71, 74
14, 131529, Note_on_c, 13, 80, 0
14, 131530, Note_on_c, 13, 71, 0
14, 131533, Note_on_c, 13, 83, 0
14, 131544, Note_on_c, 13, 82, 86
14, 131546, Note_on_c, 13, 79, 81
14, 131549, Note_on_c, 13, 70, 68
14, 131560, Note_on_c, 13, 79, 0
14, 131561, Note_on_c, 13, 82, 0
14, 131564, Note_on_c, 13, 70, 0
14, 131578, Note_on_c, 13, 81, 97
14, 131578, Note_on_c, 13, 78, 91
14, 131580, Note_on_c, 13, 69, 82
14, 131596, Note_on_c, 13, 78, 0
14, 131597, Note_on_c, 13, 69, 0
14, 131597, Note_on_c, 13, 81, 0
14, 131611, Note_on_c, 13, 80, 96
14, 131614, Note_on_c, 13, 68, 85
14, 131618, Note_on_c, 13, 77, 68
14, 131625, Note_on_c, 13, 77, 0
14, 131633, Note_on_c, 13, 68, 0
14, 131633, Note_on_c, 13, 80, 0
14, 131646, Note_on_c, 13, 67, 82
14, 131646, Note_on_c, 13, 79, 100
14, 131650, Note_on_c, 13, 76, 88
14, 131662, Note_on_c, 13, 67, 0
14, 131664, Note_on_c, 13, 79, 0
14, 131666, Note_on_c, 13, 76, 0
14, 131679, Note_on_c, 13, 78, 93
14, 131682, Note_on_c, 13, 66, 76
14, 131682, Note_on_c, 13, 75, 81
14, 131696, Note_on_c, 13, 75, 0
14, 131698, Note_on_c, 13, 66, 0
14, 131700, Note_on_c, 13, 78, 0
14, 131712, Note_on_c, 13, 65, 79
14, 131712, Note_on_c, 13, 77, 108
14, 131716, Note_on_c, 13, 74, 92
14, 131726, Note_on_c, 13, 74, 0
14, 131731, Note_on_c, 13, 65, 0
14, 131732, Note_on_c, 13, 77, 0
14, 131746, Note_on_c, 13, 73, 84
14, 131747, Note_on_c, 13, 76, 90
14, 131749, Note_on_c, 13, 64, 85
14, 131767, Note_on_c, 13, 64, 0
14, 131768, Note_on_c, 13, 73, 0
14, 131772, Note_on_c, 13, 76, 0
14, 131780, Note_on_c, 13, 75, 88
14, 131782, Note_on_c, 13, 72, 84
14, 131785, Note_on_c, 13, 63, 73
14, 131797, Note_on_c, 13, 72, 0
14, 131797, Note_on_c, 13, 75, 0
14, 131803, Note_on_c, 13, 63, 0
14, 131814, Note_on_c, 13, 74, 97
14, 131814, Note_on_c, 13, 62, 81
14, 131816, Note_on_c, 13, 71, 89
14, 131829, Note_on_c, 13, 74, 0
14, 131832, Note_on_c, 13, 71, 0
14, 131832, Note_on_c, 13, 62, 0
14, 131845, Note_on_c, 13, 73, 92
14, 131849, Note_on_c, 13, 61, 75
14, 131850, Note_on_c, 13, 70, 75
14, 131863, Note_on_c, 13, 70, 0
14, 131864, Note_on_c, 13, 61, 0
14, 131867, Note_on_c, 13, 73, 0
14, 131880, Note_on_c, 13, 60, 78
14, 131881, Note_on_c, 13, 72, 101
14, 131884, Note_on_c, 13, 69, 90
14, 131894, Note_on_c, 13, 69, 0
14, 131900, Note_on_c, 13, 72, 0
14, 131900, Note_on_c, 13, 60, 0
14, 131914, Note_on_c, 13, 68, 79
14, 131915, Note_on_c, 13, 71, 89
14, 131918, Note_on_c, 13, 59, 79
14, 131934, Note_on_c, 13, 59, 0
14, 131936, Note_on_c, 13, 68, 0
14, 131938, Note_on_c, 13, 71, 0
14, 131948, Note_on_c, 13, 70, 78
14, 131950, Note_on_c, 13, 58, 69
14, 131952, Note_on_c, 13, 67, 66
14, 131965, Note_on_c, 13, 70, 0
14, 131966, Note_on_c, 13, 67, 0
14, 131971, Note_on_c, 13, 58, 0
14, 131981, Note_on_c, 13, 69, 96
14, 131981, Note_on_c, 13, 66, 76
14, 131981, Note_on_c, 13, 57, 74
14, 132000, Note_on_c, 13, 57, 0
14, 132000, Note_on_c, 13, 66, 0
14, 132000, Note_on_c, 13, 69, 0
14, 132014, Note_on_c, 13, 56, 73
14, 132015, Note_on_c, 13, 68, 86
14, 132015, Note_on_c, 13, 65, 63
14, 132036, Note_on_c, 13, 56, 0
14, 132037, Note_on_c, 13, 65, 0
14, 132037, Note_on_c, 13, 68, 0
14, 132047, Note_on_c, 13, 55, 73
14, 132049, Note_on_c, 13, 67, 100
14, 132064, Note_on_c, 13, 55, 0
14, 132070, Note_on_c, 13, 67, 0
14, 132081, Note_on_c, 13, 66, 89
14, 132082, Note_on_c, 13, 54, 73
14, 132100, Note_on_c, 13, 54, 0
14, 132104, Note_on_c, 13, 66, 0
14, 132114, Note_on_c, 13, 53, 89
14, 132114, Note_on_c, 13, 65, 91
14, 132137, Note_on_c, 13, 65, 0
14, 132139, Note_on_c, 13, 53, 0
14, 132152, Note_on_c, 13, 60, 101
14, 132155, Note_on_c, 13, 48, 90
14, 132164, Control_c, 13, 64, 40
14, 132168, Control_c, 13, 64, 88
14, 132172, Note_on_c, 13, 48, 0
14, 132172, Control_c, 13, 64, 127
14, 132184, Note_on_c, 13, 60, 0
14, 132253, Control_c, 13, 64, 104
14, 132257, Control_c, 13, 64, 56
14, 132261, Control_c, 13, 64, 24
14, 132265, Control_c, 13, 64, 0
14, 137754, Note_on_c, 13, 77, 74
14, 137780, Note_on_c, 13, 77, 0
14, 137782, Note_on_c, 13, 68, 78
14, 137856, Note_on_c, 13, 70, 75
14, 137860, Note_on_c, 13, 68, 0
14, 137889, Note_on_c, 13, 70, 0
14, 137889, Note_on_c, 13, 72, 81
14, 137998, Note_on_c, 13, 68, 57
14, 138000, Note_on_c, 13, 65, 49
14, 138029, Control_c, 13, 64, 24
14, 138033, Control_c, 13, 64, 56
14, 138038, Control_c, 13, 64, 72
14, 138046, Control_c, 13, 64, 88
14, 138058, Control_c, 13, 64, 104
14, 138098, Note_on_c, 13, 65, 0
14, 138099, Note_on_c, 13, 67, 58
14, 138102, Control_c, 13, 64, 56
14, 138104, Note_on_c, 13, 64, 48
14, 138106, Control_c, 13, 64, 24
14, 138108, Note_on_c, 13, 68, 0
14, 138110, Control_c, 13, 64, 0
14, 138129, Control_c, 13, 64, 24
14, 138134, Control_c, 13, 64, 56
14, 138138, Control_c, 13, 64, 88
14, 138142, Control_c, 13, 64, 104
14, 138146, Control_c, 13, 64, 127
14, 138203, Note_on_c, 13, 64, 0
14, 138203, Control_c, 13, 64, 72
14, 138204, Note_on_c, 13, 67, 0
14, 138204, Note_on_c, 13, 66, 61
14, 138206, Note_on_c, 13, 63, 48
14, 138206, Control_c, 13, 64, 24
14, 138211, Control_c, 13, 64, 0
14, 138230, Control_c, 13, 64, 40
14, 138235, Control_c, 13, 64, 88
14, 138239, Control_c, 13, 64, 127
14, 138259, Note_on_c, 13, 63, 0
14, 138302, Note_on_c, 13, 72, 0
14, 138307, Note_on_c, 13, 66, 0
14, 138315, Note_on_c, 13, 70, 80
14, 138316, Control_c, 13, 64, 104
14, 138320, Control_c, 13, 64, 40
14, 138320, Note_on_c, 13, 65, 34
14, 138321, Note_on_c, 13, 62, 39
14, 138324, Control_c, 13, 64, 0
14, 138348, Control_c, 13, 64, 72
14, 138352, Control_c, 13, 64, 104
14, 138356, Control_c, 13, 64, 127
14, 138386, Note_on_c, 13, 70, 0
14, 138416, Note_on_c, 13, 61, 48
14, 138418, Note_on_c, 13, 62, 0
14, 138443, Note_on_c, 13, 69, 77
14, 138452, Note_on_c, 13, 61, 0
14, 138467, Note_on_c, 13, 69, 0
14, 138473, Note_on_c, 13, 72, 84
14, 138498, Note_on_c, 13, 70, 78
14, 138500, Note_on_c, 13, 72, 0
14, 138525, Control_c, 13, 64, 88
14, 138528, Note_on_c, 13, 68, 77
14, 138530, Control_c, 13, 64, 56
14, 138531, Note_on_c, 13, 70, 0
14, 138531, Note_on_c, 13, 60, 40
14, 138534, Control_c, 13, 64, 0
14, 138559, Note_on_c, 13, 65, 0
14, 138562, Control_c, 13, 64, 24
14, 138566, Control_c, 13, 64, 72
14, 138569, Control_c, 13, 64, 127
14, 138577, Note_on_c, 13, 68, 0
14, 138610, Note_on_c, 13, 60, 0
14, 138635, Note_on_c, 13, 67, 84
14, 138638, Control_c, 13, 64, 72
14, 138639, Note_on_c, 13, 61, 46
14, 138639, Note_on_c, 13, 58, 40
14, 138642, Control_c, 13, 64, 24
14, 138646, Control_c, 13, 64, 0
14, 138662, Control_c, 13, 64, 40
14, 138666, Control_c, 13, 64, 88
14, 138670, Control_c, 13, 64, 127
14, 138674, Note_on_c, 13, 61, 0
14, 138678, Note_on_c, 13, 58, 0
14, 138690, Note_on_c, 13, 67, 0
14, 138703, Note_on_c, 13, 65, 77
14, 138720, Note_on_c, 13, 65, 0
14, 138720, Note_on_c, 13, 67, 75
14, 138735, Control_c, 13, 64, 104
14, 138736, Note_on_c, 13, 65, 78
14, 138738, Note_on_c, 13, 67, 0
14, 138739, Control_c, 13, 64, 72
14, 138742, Note_on_c, 13, 56, 52
14, 138743, Note_on_c, 13, 60, 51
14, 138743, Control_c, 13, 64, 0
14, 138772, Control_c, 13, 64, 72
14, 138776, Control_c, 13, 64, 127
14, 138798, Note_on_c, 13, 65, 0
14, 138809, Note_on_c, 13, 64, 77
14, 138810, Note_on_c, 13, 60, 0
14, 138819, Note_on_c, 13, 56, 0
14, 138833, Note_on_c, 13, 65, 93
14, 138834, Note_on_c, 13, 64, 0
14, 138836, Control_c, 13, 64, 104
14, 138840, Note_on_c, 13, 58, 37
14, 138840, Control_c, 13, 64, 40
14, 138842, Note_on_c, 13, 55, 50
14, 138844, Control_c, 13, 64, 0
14, 138868, Control_c, 13, 64, 40
14, 138872, Control_c, 13, 64, 104
14, 138876, Control_c, 13, 64, 127
14, 138881, Note_on_c, 13, 55, 0
14, 138885, Note_on_c, 13, 65, 0
14, 138887, Note_on_c, 13, 58, 0
14, 138910, Note_on_c, 13, 67, 85
14, 138938, Note_on_c, 13, 67, 0
14, 138940, Note_on_c, 13, 68, 90
14, 138941, Control_c, 13, 64, 72
14, 138944, Note_on_c, 13, 56, 44
14, 138945, Control_c, 13, 64, 0
14, 138946, Note_on_c, 13, 53, 61
14, 138973, Control_c, 13, 64, 40
14, 138976, Note_on_c, 13, 53, 0
14, 138977, Control_c, 13, 64, 88
14, 138981, Control_c, 13, 64, 127
14, 138993, Note_on_c, 13, 56, 0
14, 138999, Note_on_c, 13, 68, 0
14, 139064, Note_on_c, 13, 68, 85
14, 139070, Control_c, 13, 64, 88
14, 139072, Note_on_c, 13, 62, 52
14, 139074, Control_c, 13, 64, 24
14, 139074, Note_on_c, 13, 52, 52
14, 139076, Note_on_c, 13, 59, 42
14, 139078, Control_c, 13, 64, 0
14, 139098, Control_c, 13, 64, 24
14, 139101, Control_c, 13, 64, 72
14, 139106, Control_c, 13, 64, 127
14, 139121, Note_on_c, 13, 52, 0
14, 139133, Note_on_c, 13, 62, 0
14, 139136, Note_on_c, 13, 68, 0
14, 139166, Note_on_c, 13, 59, 0
14, 139206, Note_on_c, 13, 68, 84
14, 139216, Note_on_c, 13, 60, 53
14, 139216, Note_on_c, 13, 51, 46
14, 139231, Control_c, 13, 64, 104
14, 139235, Control_c, 13, 64, 56
14, 139239, Control_c, 13, 64, 0
14, 139268, Control_c, 13, 64, 40
14, 139272, Control_c, 13, 64, 104
14, 139276, Control_c, 13, 64, 127
14, 139311, Note_on_c, 13, 62, 60
14, 139324, Note_on_c, 13, 68, 0
14, 139336, Note_on_c, 13, 65, 52
14, 139338, Note_on_c, 13, 60, 0
14, 139355, Note_on_c, 13, 67, 71
14, 139363, Note_on_c, 13, 65, 0
14, 139367, Note_on_c, 13, 59, 38
14, 139378, Note_on_c, 13, 70, 76
14, 139380, Note_on_c, 13, 67, 0
14, 139388, Control_c, 13, 64, 88
14, 139392, Control_c, 13, 64, 72
14, 139397, Control_c, 13, 64, 40
14, 139401, Note_on_c, 13, 68, 74
14, 139401, Control_c, 13, 64, 0
14, 139406, Note_on_c, 13, 70, 0
14, 139457, Control_c, 13, 64, 40
14, 139461, Control_c, 13, 64, 88
14, 139465, Control_c, 13, 64, 127
14, 139520, Note_on_c, 13, 68, 0
14, 139545, Note_on_c, 13, 62, 0
14, 139547, Note_on_c, 13, 67, 64
14, 139570, Note_on_c, 13, 67, 0
14, 139599, Note_on_c, 13, 67, 60
14, 139603, Note_on_c, 13, 59, 0
14, 139607, Note_on_c, 13, 63, 36
14, 139611, Note_on_c, 13, 58, 33
14, 139614, Control_c, 13, 64, 104
14, 139618, Control_c, 13, 64, 72
14, 139622, Control_c, 13, 64, 40
14, 139626, Control_c, 13, 64, 0
14, 139667, Control_c, 13, 64, 24
14, 139671, Control_c, 13, 64, 72
14, 139675, Control_c, 13, 64, 127
14, 139687, Note_on_c, 13, 51, 0
14, 139690, Note_on_c, 13, 63, 0
14, 139694, Note_on_c, 13, 58, 0
14, 139696, Note_on_c, 13, 67, 0
14, 139826, Note_on_c, 13, 70, 73
14, 139836, Control_c, 13, 64, 104
14, 139839, Control_c, 13, 64, 88
14, 139843, Control_c, 13, 64, 56
14, 139848, Control_c, 13, 64, 0
14, 139880, Control_c, 13, 64, 56
14, 139884, Control_c, 13, 64, 127
14, 139948, Note_on_c, 13, 70, 0
14, 139968, Note_on_c, 13, 72, 79
14, 139993, Note_on_c, 13, 72, 0
14, 140006, Control_c, 13, 64, 56
14, 140006, Note_on_c, 13, 73, 88
14, 140010, Control_c, 13, 64, 0
14, 140016, Note_on_c, 13, 39, 40
14, 140038, Control_c, 13, 64, 40
14, 140041, Control_c, 13, 64, 104
14, 140043, Note_on_c, 13, 39, 0
14, 140045, Control_c, 13, 64, 127
14, 140102, Note_on_c, 13, 63, 49
14, 140178, Note_on_c, 13, 55, 57
14, 140184, Note_on_c, 13, 63, 0
14, 140252, Note_on_c, 13, 55, 0
14, 140258, Note_on_c, 13, 63, 53
14, 140323, Note_on_c, 13, 73, 0
14, 140328, Control_c, 13, 64, 88
14, 140332, Control_c, 13, 64, 24
14, 140336, Control_c, 13, 64, 0
14, 140337, Note_on_c, 13, 72, 81
14, 140340, Note_on_c, 13, 56, 40
14, 140358, Note_on_c, 13, 63, 0
14, 140359, Note_on_c, 13, 72, 0
14, 140360, Control_c, 13, 64, 72
14, 140364, Control_c, 13, 64, 127
14, 140366, Note_on_c, 13, 73, 70
14, 140392, Note_on_c, 13, 72, 79
14, 140401, Note_on_c, 13, 73, 0
14, 140413, Control_c, 13, 64, 72
14, 140417, Control_c, 13, 64, 0
14, 140417, Note_on_c, 13, 71, 81
14, 140419, Note_on_c, 13, 72, 0
14, 140433, Control_c, 13, 64, 24
14, 140437, Note_on_c, 13, 71, 0
14, 140437, Note_on_c, 13, 56, 0
14, 140437, Note_on_c, 13, 63, 30
14, 140441, Control_c, 13, 64, 88
14, 140441, Control_c, 13, 64, 127
14, 140446, Note_on_c, 13, 72, 86
14, 140475, Note_on_c, 13, 84, 84
14, 140492, Note_on_c, 13, 72, 0
14, 140498, Note_on_c, 13, 84, 0
14, 140502, Note_on_c, 13, 79, 77
14, 140534, Note_on_c, 13, 82, 85
14, 140535, Note_on_c, 13, 79, 0
14, 140543, Note_on_c, 13, 63, 0
14, 140545, Note_on_c, 13, 51, 39
14, 140560, Note_on_c, 13, 80, 88
14, 140562, Note_on_c, 13, 82, 0
14, 140587, Note_on_c, 13, 72, 84
14, 140589, Note_on_c, 13, 80, 0
14, 140613, Note_on_c, 13, 73, 88
14, 140620, Note_on_c, 13, 72, 0
14, 140640, Note_on_c, 13, 73, 0
14, 140646, Note_on_c, 13, 75, 89
14, 140655, Note_on_c, 13, 63, 49
14, 140656, Note_on_c, 13, 51, 0
14, 140676, Note_on_c, 13, 79, 82
14, 140686, Note_on_c, 13, 75, 0
14, 140702, Note_on_c, 13, 79, 0
14, 140704, Note_on_c, 13, 77, 79
14, 140732, Note_on_c, 13, 75, 77
14, 140735, Note_on_c, 13, 77, 0
14, 140763, Note_on_c, 13, 75, 0
14, 140763, Note_on_c, 13, 63, 0
14, 140770, Note_on_c, 13, 72, 84
14, 140771, Control_c, 13, 64, 104
14, 140776, Control_c, 13, 64, 72
14, 140779, Note_on_c, 13, 61, 33
14, 140779, Control_c, 13, 64, 24
14, 140783, Control_c, 13, 64, 0
14, 140812, Control_c, 13, 64, 56
14, 140816, Control_c, 13, 64, 127
14, 140853, Note_on_c, 13, 61, 0
14, 140856, Note_on_c, 13, 63, 38
14, 140932, Note_on_c, 13, 67, 49
14, 140938, Note_on_c, 13, 51, 39
14, 140972, Note_on_c, 13, 63, 0
14, 141000, Note_on_c, 13, 72, 0
14, 141008, Note_on_c, 13, 51, 0
14, 141012, Note_on_c, 13, 70, 63
14, 141019, Note_on_c, 13, 63, 33
14, 141020, Note_on_c, 13, 67, 0
14, 141090, Note_on_c, 13, 70, 0
14, 141094, Note_on_c, 13, 68, 59
14, 141101, Note_on_c, 13, 63, 0
14, 141102, Control_c, 13, 64, 104
14, 141104, Note_on_c, 13, 60, 42
14, 141106, Control_c, 13, 64, 72
14, 141110, Control_c, 13, 64, 24
14, 141114, Control_c, 13, 64, 0
14, 141143, Control_c, 13, 64, 72
14, 141147, Control_c, 13, 64, 127
14, 141152, Note_on_c, 13, 68, 0
14, 141170, Note_on_c, 13, 60, 0
14, 141182, Note_on_c, 13, 63, 40
14, 141256, Note_on_c, 13, 70, 78
14, 141263, Note_on_c, 13, 61, 38
14, 141272, Control_c, 13, 64, 104
14, 141276, Control_c, 13, 64, 40
14, 141280, Control_c, 13, 64, 0
14, 141285, Note_on_c, 13, 63, 0
14, 141304, Control_c, 13, 64, 88
14, 141308, Control_c, 13, 64, 127
14, 141326, Note_on_c, 13, 61, 0
14, 141332, Note_on_c, 13, 70, 0
14, 141337, Note_on_c, 13, 72, 84
14, 141345, Note_on_c, 13, 60, 49
14, 141409, Note_on_c, 13, 72, 0
14, 141411, Note_on_c, 13, 60, 0
14, 141414, Note_on_c, 13, 73, 90
14, 141417, Control_c, 13, 64, 104
14, 141420, Note_on_c, 13, 58, 49
14, 141420, Control_c, 13, 64, 56
14, 141425, Control_c, 13, 64, 0
14, 141449, Control_c, 13, 64, 40
14, 141453, Control_c, 13, 64, 127
14, 141494, Note_on_c, 13, 58, 0
14, 141499, Note_on_c, 13, 63, 52
14, 141508, Note_on_c, 13, 73, 0
14, 141544, Note_on_c, 13, 63, 0
14, 141573, Note_on_c, 13, 73, 88
14, 141574, Control_c, 13, 64, 104
14, 141578, Control_c, 13, 64, 40
14, 141582, Control_c, 13, 64, 0
14, 141583, Note_on_c, 13, 55, 58
14, 141606, Control_c, 13, 64, 56
14, 141610, Control_c, 13, 64, 127
14, 141653, Note_on_c, 13, 55, 0
14, 141655, Note_on_c, 13, 64, 55
14, 141662, Note_on_c, 13, 73, 0
14, 141676, Note_on_c, 13, 64, 0
14, 141688, Note_on_c, 13, 73, 81
14, 141713, Note_on_c, 13, 73, 0
14, 141720, Note_on_c, 13, 72, 74
14, 141726, Note_on_c, 13, 72, 0
14, 141736, Control_c, 13, 64, 72
14, 141737, Note_on_c, 13, 73, 76
14, 141740, Control_c, 13, 64, 0
14, 141748, Note_on_c, 13, 56, 51
14, 141757, Note_on_c, 13, 72, 89
14, 141762, Note_on_c, 13, 73, 0
14, 141772, Control_c, 13, 64, 40
14, 141776, Control_c, 13, 64, 104
14, 141780, Control_c, 13, 64, 127
14, 141789, Note_on_c, 13, 71, 77
14, 141796, Note_on_c, 13, 72, 0
14, 141805, Note_on_c, 13, 71, 0
14, 141815, Note_on_c, 13, 72, 79
14, 141838, Note_on_c, 13, 72, 0
14, 141843, Note_on_c, 13, 77, 81
14, 141850, Note_on_c, 13, 60, 44
14, 141854, Note_on_c, 13, 56, 0
14, 141866, Note_on_c, 13, 80, 82
14, 141883, Note_on_c, 13, 77, 0
14, 141894, Note_on_c, 13, 83, 85
14, 141903, Note_on_c, 13, 80, 0
14, 141906, Note_on_c, 13, 83, 0
14, 141921, Note_on_c, 13, 84, 92
14, 141938, Note_on_c, 13, 84, 0
14, 141948, Note_on_c, 13, 89, 94
14, 141959, Note_on_c, 13, 65, 51
14, 141970, Note_on_c, 13, 89, 0
14, 141974, Note_on_c, 13, 60, 0
14, 141978, Note_on_c, 13, 92, 86
14, 141993, Note_on_c, 13, 65, 0
14, 142002, Note_on_c, 13, 92, 0
14, 142008, Note_on_c, 13, 95, 89
14, 142038, Note_on_c, 13, 98, 92
14, 142039, Note_on_c, 13, 95, 0
14, 142065, Note_on_c, 13, 96, 90
14, 142070, Note_on_c, 13, 98, 0
14, 142088, Note_on_c, 13, 72, 63
14, 142100, Note_on_c, 13, 96, 0
14, 142100, Note_on_c, 13, 91, 88
14, 142113, Note_on_c, 13, 72, 0
14, 142133, Note_on_c, 13, 89, 85
14, 142138, Note_on_c, 13, 91, 0
14, 142158, Note_on_c, 13, 89, 0
14, 142166, Note_on_c, 13, 86, 73
14, 142186, Note_on_c, 13, 86, 0
14, 142195, Note_on_c, 13, 84, 80
14, 142216, Note_on_c, 13, 84, 0
14, 142241, Note_on_c, 13, 79, 84
14, 142252, Note_on_c, 13, 58, 38
14, 142252, Control_c, 13, 64, 56
14, 142253, Note_on_c, 13, 63, 39
14, 142255, Control_c, 13, 64, 0
14, 142284, Control_c, 13, 64, 24
14, 142288, Control_c, 13, 64, 104
14, 142289, Note_on_c, 13, 58, 0
14, 142292, Control_c, 13, 64, 127
14, 142303, Note_on_c, 13, 63, 0
14, 142326, Note_on_c, 13, 72, 48
14, 142334, Note_on_c, 13, 79, 0
14, 142351, Note_on_c, 13, 72, 0
14, 142409, Note_on_c, 13, 79, 76
14, 142414, Note_on_c, 13, 70, 34
14, 142421, Note_on_c, 13, 62, 39
14, 142433, Control_c, 13, 64, 56
14, 142437, Control_c, 13, 64, 0
14, 142462, Note_on_c, 13, 79, 0
14, 142462, Note_on_c, 13, 77, 80
14, 142466, Control_c, 13, 64, 24
14, 142470, Control_c, 13, 64, 88
14, 142474, Control_c, 13, 64, 127
14, 142491, Note_on_c, 13, 77, 0
14, 142508, Note_on_c, 13, 62, 0
14, 142508, Note_on_c, 13, 68, 52
14, 142515, Note_on_c, 13, 70, 0
14, 142518, Note_on_c, 13, 68, 0
14, 142558, Note_on_c, 13, 75, 79
14, 142577, Note_on_c, 13, 75, 0
14, 142600, Note_on_c, 13, 75, 82
14, 142607, Control_c, 13, 64, 88
14, 142611, Control_c, 13, 64, 24
14, 142612, Note_on_c, 13, 51, 53
14, 142615, Control_c, 13, 64, 0
14, 142638, Control_c, 13, 64, 88
14, 142641, Note_on_c, 13, 51, 0
14, 142642, Control_c, 13, 64, 127
14, 142682, Note_on_c, 13, 67, 58
14, 142685, Note_on_c, 13, 58, 46
14, 142722, Note_on_c, 13, 67, 0
14, 142732, Note_on_c, 13, 58, 0
14, 142768, Note_on_c, 13, 68, 50
14, 142778, Note_on_c, 13, 60, 46
14, 142783, Control_c, 13, 64, 88
14, 142787, Control_c, 13, 64, 24
14, 142792, Control_c, 13, 64, 0
14, 142808, Control_c, 13, 64, 40
14, 142812, Control_c, 13, 64, 104
14, 142816, Control_c, 13, 64, 127
14, 142826, Note_on_c, 13, 68, 0
14, 142837, Note_on_c, 13, 60, 0
14, 142840, Note_on_c, 13, 75, 0
14, 142869, Note_on_c, 13, 76, 77
14, 142877, Control_c, 13, 64, 104
14, 142878, Note_on_c, 13, 67, 36
14, 142880, Note_on_c, 13, 58, 29
14, 142881, Control_c, 13, 64, 88
14, 142893, Control_c, 13, 64, 127
14, 142904, Note_on_c, 13, 67, 0
14, 142904, Note_on_c, 13, 76, 0
14, 142915, Note_on_c, 13, 58, 0
14, 142982, Control_c, 13, 64, 88
14, 142985, Control_c, 13, 64, 40
14, 142987, Note_on_c, 13, 76, 86
14, 142990, Control_c, 13, 64, 0
14, 142998, Note_on_c, 13, 41, 52
14, 143006, Control_c, 13, 64, 24
14, 143010, Control_c, 13, 64, 88
14, 143014, Control_c, 13, 64, 127
14, 143022, Note_on_c, 13, 41, 0
14, 143074, Note_on_c, 13, 65, 60
14, 143078, Note_on_c, 13, 76, 0
14, 143096, Note_on_c, 13, 77, 89
14, 143111, Note_on_c, 13, 77, 0
14, 143127, Note_on_c, 13, 77, 86
14, 143138, Note_on_c, 13, 65, 0
14, 143145, Note_on_c, 13, 77, 0
14, 143150, Note_on_c, 13, 80, 79
14, 143160, Note_on_c, 13, 60, 55
14, 143160, Note_on_c, 13, 63, 36
14, 143163, Control_c, 13, 64, 104
14, 143166, Note_on_c, 13, 53, 51
14, 143167, Note_on_c, 13, 78, 91
14, 143168, Control_c, 13, 64, 40
14, 143171, Control_c, 13, 64, 0
14, 143175, Note_on_c, 13, 80, 0
14, 143198, Note_on_c, 13, 53, 0
14, 143200, Control_c, 13, 64, 88
14, 143204, Control_c, 13, 64, 127
14, 143221, Note_on_c, 13, 63, 0
14, 143229, Note_on_c, 13, 60, 0
14, 143238, Note_on_c, 13, 65, 59
14, 143247, Note_on_c, 13, 78, 0
14, 143272, Note_on_c, 13, 77, 84
14, 143285, Note_on_c, 13, 77, 0
14, 143304, Note_on_c, 13, 77, 97
14, 143315, Note_on_c, 13, 61, 45
14, 143315, Note_on_c, 13, 58, 39
14, 143317, Control_c, 13, 64, 104
14, 143318, Note_on_c, 13, 65, 0
14, 143320, Control_c, 13, 64, 56
14, 143324, Control_c, 13, 64, 0
14, 143349, Control_c, 13, 64, 88
14, 143353, Control_c, 13, 64, 127
14, 143372, Note_on_c, 13, 61, 0
14, 143378, Note_on_c, 13, 58, 0
14, 143384, Note_on_c, 13, 65, 60
14, 143396, Note_on_c, 13, 77, 0
14, 143447, Note_on_c, 13, 85, 99
14, 143452, Note_on_c, 13, 77, 74
14, 143453, Note_on_c, 13, 65, 0
14, 143456, Note_on_c, 13, 53, 57
14, 143498, Note_on_c, 13, 77, 0
14, 143511, Note_on_c, 13, 53, 0
14, 143511, Note_on_c, 13, 85, 0
14, 143525, Note_on_c, 13, 65, 47
14, 143547, Note_on_c, 13, 85, 93
14, 143553, Note_on_c, 13, 77, 68
14, 143560, Note_on_c, 13, 77, 0
14, 143570, Note_on_c, 13, 85, 0
14, 143581, Note_on_c, 13, 84, 98
14, 143585, Note_on_c, 13, 75, 55
14, 143591, Control_c, 13, 64, 104
14, 143595, Control_c, 13, 64, 56
14, 143596, Note_on_c, 13, 57, 48
14, 143599, Control_c, 13, 64, 0
14, 143600, Note_on_c, 13, 65, 0
14, 143627, Control_c, 13, 64, 72
14, 143631, Control_c, 13, 64, 127
14, 143637, Note_on_c, 13, 75, 0
14, 143653, Note_on_c, 13, 57, 0
14, 143659, Note_on_c, 13, 84, 0
14, 143663, Note_on_c, 13, 65, 42
14, 143688, Note_on_c, 13, 82, 76
14, 143692, Note_on_c, 13, 73, 50
14, 143702, Note_on_c, 13, 73, 0
14, 143717, Note_on_c, 13, 65, 0
14, 143721, Note_on_c, 13, 82, 0
14, 143724, Note_on_c, 13, 84, 85
14, 143728, Note_on_c, 13, 75, 57
14, 143734, Note_on_c, 13, 53, 45
14, 143777, Note_on_c, 13, 84, 0
14, 143791, Note_on_c, 13, 53, 0
14, 143806, Note_on_c, 13, 65, 45
14, 143812, Note_on_c, 13, 75, 0
14, 143832, Note_on_c, 13, 85, 75
14, 143839, Note_on_c, 13, 77, 69
14, 143848, Note_on_c, 13, 77, 0
14, 143857, Note_on_c, 13, 85, 0
14, 143876, Note_on_c, 13, 82, 75
14, 143877, Note_on_c, 13, 65, 0
14, 143880, Note_on_c, 13, 73, 50
14, 143885, Note_on_c, 13, 58, 39
14, 143893, Control_c, 13, 64, 72
14, 143897, Control_c, 13, 64, 0
14, 143926, Control_c, 13, 64, 56
14, 143930, Control_c, 13, 64, 127
14, 143960, Note_on_c, 13, 65, 46
14, 144044, Note_on_c, 13, 56, 37
14, 144058, Note_on_c, 13, 58, 0
14, 144059, Note_on_c, 13, 65, 0
14, 144073, Note_on_c, 13, 82, 0
14, 144122, Note_on_c, 13, 56, 0
14, 144128, Note_on_c, 13, 64, 50
14, 144170, Note_on_c, 13, 73, 0
14, 144220, Note_on_c, 13, 75, 84
14, 144223, Note_on_c, 13, 73, 67
14, 144224, Control_c, 13, 64, 88
14, 144228, Control_c, 13, 64, 40
14, 144230, Note_on_c, 13, 55, 48
14, 144232, Control_c, 13, 64, 0
14, 144252, Note_on_c, 13, 64, 0
14, 144255, Control_c, 13, 64, 56
14, 144260, Control_c, 13, 64, 127
14, 144283, Note_on_c, 13, 73, 0
14, 144286, Note_on_c, 13, 75, 0
14, 144296, Note_on_c, 13, 58, 36
14, 144315, Note_on_c, 13, 55, 0
14, 144318, Note_on_c, 13, 75, 84
14, 144319, Note_on_c, 13, 73, 56
14, 144326, Note_on_c, 13, 73, 0
14, 144335, Note_on_c, 13, 75, 0
14, 144344, Note_on_c, 13, 75, 68
14, 144346, Note_on_c, 13, 58, 0
14, 144347, Note_on_c, 13, 73, 75
14, 144358, Note_on_c, 13, 63, 37
14, 144362, Note_on_c, 13, 73, 0
14, 144364, Note_on_c, 13, 75, 0
14, 144365, Control_c, 13, 64, 88
14, 144368, Note_on_c, 13, 79, 81
14, 144369, Control_c, 13, 64, 24
14, 144378, Note_on_c, 13, 77, 88
14, 144378, Control_c, 13, 64, 0
14, 144381, Note_on_c, 13, 79, 0
14, 144394, Control_c, 13, 64, 40
14, 144397, Note_on_c, 13, 73, 11
14, 144398, Control_c, 13, 64, 127
14, 144423, Note_on_c, 13, 73, 0
14, 144450, Note_on_c, 13, 63, 0
14, 144454, Note_on_c, 13, 51, 66
14, 144466, Note_on_c, 13, 77, 0
14, 144475, Note_on_c, 13, 51, 0
14, 144481, Note_on_c, 13, 75, 82
14, 144485, Note_on_c, 13, 73, 53
14, 144491, Note_on_c, 13, 73, 0
14, 144495, Note_on_c, 13, 75, 0
14, 144510, Note_on_c, 13, 75, 74
14, 144514, Note_on_c, 13, 73, 63
14, 144525, Note_on_c, 13, 73, 0
14, 144549, Note_on_c, 13, 80, 86
14, 144552, Control_c, 13, 64, 104
14, 144555, Note_on_c, 13, 72, 57
14, 144556, Note_on_c, 13, 75, 0
14, 144556, Control_c, 13, 64, 72
14, 144556, Note_on_c, 13, 44, 47
14, 144560, Control_c, 13, 64, 0
14, 144601, Note_on_c, 13, 44, 0
14, 144604, Control_c, 13, 64, 72
14, 144608, Control_c, 13, 64, 127
14, 144633, Note_on_c, 13, 53, 44
14, 144665, Note_on_c, 13, 72, 0
14, 144675, Note_on_c, 13, 53, 0
14, 144684, Note_on_c, 13, 80, 0
14, 144694, Note_on_c, 13, 75, 66
14, 144700, Note_on_c, 13, 60, 56
14, 144700, Note_on_c, 13, 68, 34
14, 144706, Note_on_c, 13, 72, 28
14, 144725, Note_on_c, 13, 60, 0
14, 144737, Note_on_c, 13, 72, 0
14, 144749, Note_on_c, 13, 75, 0
14, 144763, Note_on_c, 13, 65, 58
14, 144765, Note_on_c, 13, 79, 85
14, 144777, Note_on_c, 13, 65, 0
14, 144777, Note_on_c, 13, 68, 0
14, 144787, Note_on_c, 13, 79, 0
14, 144804, Note_on_c, 13, 79, 78
14, 144826, Note_on_c, 13, 79, 0
14, 144836, Note_on_c, 13, 77, 97
14, 144841, Note_on_c, 13, 68, 42
14, 144842, Note_on_c, 13, 74, 60
14, 144846, Control_c, 13, 64, 56
14, 144850, Control_c, 13, 64, 0
14, 144859, Note_on_c, 13, 46, 48
14, 144870, Note_on_c, 13, 74, 0
14, 144878, Control_c, 13, 64, 56
14, 144882, Control_c, 13, 64, 127
14, 144901, Note_on_c, 13, 46, 0
14, 144903, Note_on_c, 13, 77, 0
14, 144914, Note_on_c, 13, 75, 80
14, 144921, Note_on_c, 13, 72, 68
14, 144926, Note_on_c, 13, 68, 0
14, 144926, Note_on_c, 13, 53, 42
14, 144937, Note_on_c, 13, 72, 0
14, 144948, Note_on_c, 13, 75, 0
14, 144955, Note_on_c, 13, 53, 0
14, 144988, Note_on_c, 13, 77, 92
14, 144992, Note_on_c, 13, 70, 59
14, 144992, Note_on_c, 13, 74, 68
14, 144996, Note_on_c, 13, 58, 40
14, 145012, Note_on_c, 13, 77, 0
14, 145043, Note_on_c, 13, 74, 0
14, 145044, Note_on_c, 13, 70, 0
14, 145062, Note_on_c, 13, 79, 91
14, 145069, Note_on_c, 13, 68, 58
14, 145073, Note_on_c, 13, 62, 51
14, 145091, Note_on_c, 13, 62, 0
14, 145099, Note_on_c, 13, 79, 0
14, 145105, Note_on_c, 13, 68, 0
14, 145127, Note_on_c, 13, 58, 0
14, 145137, Control_c, 13, 64, 56
14, 145141, Note_on_c, 13, 75, 85
14, 145141, Control_c, 13, 64, 0
14, 145147, Note_on_c, 13, 67, 58
14, 145147, Note_on_c, 13, 63, 53
14, 145157, Control_c, 13, 64, 40
14, 145161, Control_c, 13, 64, 127
14, 145171, Note_on_c, 13, 63, 0
14, 145211, Note_on_c, 13, 67, 0
14, 145221, Note_on_c, 13, 70, 58
14, 145293, Note_on_c, 13, 70, 0
14, 145294, Control_c, 13, 64, 88
14, 145296, Note_on_c, 13, 67, 66
14, 145298, Control_c, 13, 64, 40
14, 145300, Note_on_c, 13, 39, 46
14, 145303, Note_on_c, 13, 51, 34
14, 145310, Control_c, 13, 64, 127
14, 145323, Note_on_c, 13, 51, 0
14, 145323, Note_on_c, 13, 39, 0
14, 145372, Note_on_c, 13, 70, 68
14, 145377, Note_on_c, 13, 75, 0
14, 145385, Note_on_c, 13, 67, 0
14, 145397, Note_on_c, 13, 70, 0
14, 145453, Note_on_c, 13, 73, 84
14, 145459, Note_on_c, 13, 68, 61
14, 145463, Control_c, 13, 64, 104
14, 145464, Note_on_c, 13, 41, 52
14, 145467, Note_on_c, 13, 53, 40
14, 145467, Control_c, 13, 64, 40
14, 145470, Control_c, 13, 64, 0
14, 145491, Control_c, 13, 64, 40
14, 145495, Control_c, 13, 64, 127
14, 145540, Note_on_c, 13, 41, 0
14, 145546, Note_on_c, 13, 61, 48
14, 145550, Note_on_c, 13, 53, 0
14, 145571, Note_on_c, 13, 68, 0
14, 145618, Note_on_c, 13, 70, 47
14, 145621, Note_on_c, 13, 64, 50
14, 145623, Note_on_c, 13, 55, 39
14, 145623, Note_on_c, 13, 43, 40
14, 145637, Control_c, 13, 64, 88
14, 145641, Control_c, 13, 64, 24
14, 145645, Control_c, 13, 64, 0
14, 145655, Note_on_c, 13, 64, 0
14, 145664, Control_c, 13, 64, 56
14, 145668, Control_c, 13, 64, 127
14, 145697, Note_on_c, 13, 73, 0
14, 145709, Note_on_c, 13, 61, 0
14, 145709, Note_on_c, 13, 63, 52
14, 145715, Note_on_c, 13, 70, 0
14, 145717, Note_on_c, 13, 43, 0
14, 145748, Note_on_c, 13, 63, 0
14, 145751, Note_on_c, 13, 55, 0
14, 145782, Note_on_c, 13, 72, 88
14, 145783, Note_on_c, 13, 60, 64
14, 145784, Note_on_c, 13, 68, 51
14, 145794, Control_c, 13, 64, 56
14, 145797, Note_on_c, 13, 44, 33
14, 145798, Control_c, 13, 64, 0
14, 145823, Note_on_c, 13, 68, 0
14, 145826, Control_c, 13, 64, 72
14, 145830, Control_c, 13, 64, 127
14, 145860, Note_on_c, 13, 63, 56
14, 145864, Note_on_c, 13, 60, 0
14, 145871, Note_on_c, 13, 72, 0
14, 145887, Note_on_c, 13, 63, 0
14, 145896, Note_on_c, 13, 67, 63
14, 145918, Note_on_c, 13, 67, 0
14, 145925, Note_on_c, 13, 73, 89
14, 145929, Note_on_c, 13, 44, 0
14, 145930, Note_on_c, 13, 65, 59
14, 145933, Note_on_c, 13, 51, 48
14, 145988, Note_on_c, 13, 65, 0
14, 145991, Note_on_c, 13, 73, 0
14, 146001, Note_on_c, 13, 63, 57
14, 146027, Note_on_c, 13, 63, 0
14, 146030, Note_on_c, 13, 72, 93
14, 146033, Note_on_c, 13, 51, 0
14, 146055, Note_on_c, 13, 72, 0
14, 146071, Note_on_c, 13, 72, 85
14, 146073, Note_on_c, 13, 61, 59
14, 146073, Note_on_c, 13, 58, 49
14, 146075, Note_on_c, 13, 67, 69
14, 146080, Control_c, 13, 64, 104
14, 146084, Control_c, 13, 64, 72
14, 146088, Note_on_c, 13, 51, 25
14, 146088, Control_c, 13, 64, 24
14, 146089, Note_on_c, 13, 39, 33
14, 146092, Control_c, 13, 64, 0
14, 146121, Control_c, 13, 64, 24
14, 146125, Control_c, 13, 64, 88
14, 146129, Control_c, 13, 64, 127
14, 146135, Note_on_c, 13, 39, 0
14, 146138, Note_on_c, 13, 61, 0
14, 146138, Note_on_c, 13, 58, 0
14, 146145, Note_on_c, 13, 67, 0
14, 146157, Note_on_c, 13, 63, 52
14, 146165, Note_on_c, 13, 51, 0
14, 146216, Note_on_c, 13, 63, 0
14, 146229, Note_on_c, 13, 61, 51
14, 146238, Note_on_c, 13, 51, 38
14, 146293, Note_on_c, 13, 72, 0
14, 146299, Note_on_c, 13, 61, 0
14, 146305, Note_on_c, 13, 70, 71
14, 146310, Note_on_c, 13, 63, 57
14, 146326, Note_on_c, 13, 51, 0
14, 146334, Note_on_c, 13, 70, 0
14, 146348, Note_on_c, 13, 63, 0
14, 146384, Note_on_c, 13, 68, 71
14, 146392, Note_on_c, 13, 60, 35
14, 146396, Note_on_c, 13, 44, 39
14, 146399, Control_c, 13, 64, 72
14, 146400, Note_on_c, 13, 56, 19
14, 146403, Control_c, 13, 64, 24
14, 146407, Control_c, 13, 64, 0
14, 146431, Control_c, 13, 64, 72
14, 146435, Control_c, 13, 64, 127
14, 146455, Note_on_c, 13, 68, 0
14, 146461, Note_on_c, 13, 63, 56
14, 146465, Note_on_c, 13, 60, 0
14, 146485, Note_on_c, 13, 63, 0
14, 146503, Note_on_c, 13, 67, 63
14, 146522, Note_on_c, 13, 67, 0
14, 146529, Note_on_c, 13, 56, 0
14, 146530, Note_on_c, 13, 70, 82
14, 146536, Note_on_c, 13, 44, 0
14, 146537, Note_on_c, 13, 51, 34
14, 146537, Note_on_c, 13, 65, 38
14, 146580, Note_on_c, 13, 65, 0
14, 146582, Note_on_c, 13, 70, 0
14, 146599, Note_on_c, 13, 63, 50
14, 146626, Note_on_c, 13, 63, 0
14, 146631, Note_on_c, 13, 72, 91
14, 146650, Note_on_c, 13, 72, 0
14, 146668, Note_on_c, 13, 73, 94
14, 146669, Note_on_c, 13, 51, 0
14, 146674, Note_on_c, 13, 67, 53
14, 146676, Note_on_c, 13, 61, 33
14, 146677, Note_on_c, 13, 58, 38
14, 146677, Control_c, 13, 64, 72
14, 146681, Control_c, 13, 64, 0
14, 146709, Control_c, 13, 64, 72
14, 146713, Control_c, 13, 64, 127
14, 146722, Note_on_c, 13, 67, 0
14, 146736, Note_on_c, 13, 58, 0
14, 146738, Note_on_c, 13, 73, 0
14, 146743, Note_on_c, 13, 61, 0
14, 146745, Note_on_c, 13, 63, 67
14, 146778, Note_on_c, 13, 63, 0
14, 146818, Note_on_c, 13, 73, 90
14, 146819, Note_on_c, 13, 70, 74
14, 146820, Note_on_c, 13, 61, 69
14, 146824, Note_on_c, 13, 43, 51
14, 146857, Note_on_c, 13, 43, 0
14, 146868, Note_on_c, 13, 70, 0
14, 146878, Note_on_c, 13, 73, 0
14, 146891, Note_on_c, 13, 63, 64
14, 146907, Note_on_c, 13, 61, 0
14, 146917, Note_on_c, 13, 63, 0
14, 146920, Note_on_c, 13, 73, 95
14, 146944, Note_on_c, 13, 73, 0
14, 146958, Note_on_c, 13, 72, 90
14, 146960, Note_on_c, 13, 60, 68
14, 146960, Note_on_c, 13, 68, 50
14, 146963, Control_c, 13, 64, 88
14, 146967, Control_c, 13, 64, 24
14, 146971, Control_c, 13, 64, 0
14, 146972, Note_on_c, 13, 44, 44
14, 146996, Control_c, 13, 64, 40
14, 147000, Control_c, 13, 64, 127
14, 147005, Note_on_c, 13, 44, 0
14, 147016, Note_on_c, 13, 60, 0
14, 147019, Note_on_c, 13, 68, 0
14, 147032, Note_on_c, 13, 63, 64
14, 147040, Note_on_c, 13, 72, 0
14, 147059, Note_on_c, 13, 63, 0
14, 147105, Note_on_c, 13, 80, 93
14, 147109, Note_on_c, 13, 72, 78
14, 147110, Note_on_c, 13, 63, 34
14, 147111, Note_on_c, 13, 56, 38
14, 147187, Note_on_c, 13, 68, 58
14, 147190, Note_on_c, 13, 56, 0
14, 147192, Note_on_c, 13, 65, 48
14, 147195, Note_on_c, 13, 72, 0
14, 147200, Note_on_c, 13, 80, 0
14, 147203, Note_on_c, 13, 63, 0
14, 147209, Note_on_c, 13, 68, 0
14, 147240, Note_on_c, 13, 65, 0
14, 147262, Note_on_c, 13, 79, 86
14, 147265, Control_c, 13, 64, 88
14, 147267, Note_on_c, 13, 67, 52
14, 147268, Note_on_c, 13, 75, 46
14, 147269, Note_on_c, 13, 58, 39
14, 147270, Control_c, 13, 64, 24
14, 147274, Control_c, 13, 64, 0
14, 147296, Note_on_c, 13, 75, 0
14, 147298, Control_c, 13, 64, 127
14, 147322, Note_on_c, 13, 58, 0
14, 147324, Note_on_c, 13, 79, 0
14, 147338, Note_on_c, 13, 70, 52
14, 147349, Note_on_c, 13, 67, 0
14, 147357, Note_on_c, 13, 70, 0
14, 147369, Note_on_c, 13, 79, 78
14, 147391, Note_on_c, 13, 79, 0
14, 147407, Note_on_c, 13, 77, 82
14, 147409, Note_on_c, 13, 68, 38
14, 147409, Note_on_c, 13, 46, 37
14, 147411, Note_on_c, 13, 74, 57
14, 147415, Control_c, 13, 64, 88
14, 147419, Control_c, 13, 64, 0
14, 147422, Note_on_c, 13, 74, 0
14, 147443, Control_c, 13, 64, 72
14, 147447, Control_c, 13, 64, 127
14, 147456, Note_on_c, 13, 46, 0
14, 147486, Note_on_c, 13, 68, 0
14, 147490, Note_on_c, 13, 77, 0
14, 147495, Note_on_c, 13, 70, 60
14, 147515, Note_on_c, 13, 70, 0
14, 147529, Note_on_c, 13, 75, 70
14, 147546, Note_on_c, 13, 75, 0
14, 147565, Note_on_c, 13, 75, 74
14, 147571, Note_on_c, 13, 67, 47
14, 147573, Control_c, 13, 64, 72
14, 147577, Control_c, 13, 64, 0
14, 147579, Note_on_c, 13, 51, 38
14, 147583, Note_on_c, 13, 63, 37
14, 147597, Control_c, 13, 64, 127
14, 147633, Note_on_c, 13, 67, 0
14, 147637, Note_on_c, 13, 51, 0
14, 147639, Note_on_c, 13, 63, 0
14, 147647, Note_on_c, 13, 70, 52
14, 147723, Note_on_c, 13, 70, 0
14, 147738, Note_on_c, 13, 67, 48
14, 147762, Note_on_c, 13, 75, 0
14, 147795, Note_on_c, 13, 67, 0
14, 147821, Note_on_c, 13, 76, 79
14, 147823, Note_on_c, 13, 70, 54
14, 147846, Note_on_c, 13, 70, 0
14, 147855, Note_on_c, 13, 76, 0
14, 147929, Note_on_c, 13, 77, 88
14, 147934, Note_on_c, 13, 75, 48
14, 147935, Note_on_c, 13, 72, 59
14, 147941, Note_on_c, 13, 45, 50
14, 147943, Control_c, 13, 64, 72
14, 147947, Control_c, 13, 64, 0
14, 147972, Control_c, 13, 64, 40
14, 147976, Control_c, 13, 64, 104
14, 147980, Control_c, 13, 64, 127
14, 147992, Note_on_c, 13, 45, 0
14, 148000, Note_on_c, 13, 72, 0
14, 148009, Note_on_c, 13, 75, 0
14, 148013, Note_on_c, 13, 65, 63
14, 148019, Note_on_c, 13, 53, 48
14, 148040, Note_on_c, 13, 77, 0
14, 148060, Note_on_c, 13, 65, 0
14, 148071, Note_on_c, 13, 53, 0
14, 148079, Note_on_c, 13, 78, 90
14, 148083, Note_on_c, 13, 75, 73
14, 148086, Note_on_c, 13, 72, 67
14, 148087, Note_on_c, 13, 60, 61
14, 148118, Note_on_c, 13, 60, 0
14, 148143, Note_on_c, 13, 75, 0
14, 148147, Note_on_c, 13, 72, 0
14, 148149, Note_on_c, 13, 78, 0
14, 148155, Note_on_c, 13, 65, 70
14, 148162, Note_on_c, 13, 45, 57
14, 148172, Note_on_c, 13, 45, 0
14, 148177, Note_on_c, 13, 65, 0
14, 148187, Note_on_c, 13, 77, 93
14, 148208, Note_on_c, 13, 77, 0
14, 148226, Note_on_c, 13, 77, 96
14, 148230, Note_on_c, 13, 73, 60
14, 148230, Note_on_c, 13, 70, 68
14, 148242, Control_c, 13, 64, 72
14, 148242, Note_on_c, 13, 46, 49
14, 148245, Control_c, 13, 64, 0
14, 148270, Control_c, 13, 64, 56
14, 148274, Control_c, 13, 64, 127
14, 148291, Note_on_c, 13, 46, 0
14, 148298, Note_on_c, 13, 65, 71
14, 148311, Note_on_c, 13, 70, 0
14, 148313, Note_on_c, 13, 65, 0
14, 148315, Note_on_c, 13, 73, 0
14, 148317, Note_on_c, 13, 53, 29
14, 148321, Note_on_c, 13, 77, 0
14, 148373, Note_on_c, 13, 85, 92
14, 148379, Note_on_c, 13, 61, 50
14, 148379, Note_on_c, 13, 77, 74
14, 148380, Note_on_c, 13, 82, 59
14, 148383, Note_on_c, 13, 53, 0
14, 148387, Note_on_c, 13, 77, 0
14, 148396, Note_on_c, 13, 61, 0
14, 148462, Note_on_c, 13, 73, 59
14, 148463, Note_on_c, 13, 85, 0
14, 148463, Note_on_c, 13, 44, 48
14, 148464, Note_on_c, 13, 82, 0
14, 148477, Note_on_c, 13, 73, 0
14, 148501, Note_on_c, 13, 44, 0
14, 148545, Note_on_c, 13, 76, 80
14, 148550, Note_on_c, 13, 73, 48
14, 148551, Note_on_c, 13, 70, 54
14, 148561, Control_c, 13, 64, 88
14, 148561, Note_on_c, 13, 43, 44
14, 148565, Control_c, 13, 64, 0
14, 148593, Control_c, 13, 64, 104
14, 148597, Control_c, 13, 64, 127
14, 148612, Note_on_c, 13, 70, 0
14, 148621, Note_on_c, 13, 73, 0
14, 148624, Note_on_c, 13, 43, 0
14, 148624, Note_on_c, 13, 63, 48
14, 148633, Note_on_c, 13, 51, 47
14, 148671, Note_on_c, 13, 51, 0
14, 148674, Note_on_c, 13, 76, 0
14, 148693, Note_on_c, 13, 63, 0
14, 148698, Note_on_c, 13, 75, 76
14, 148701, Note_on_c, 13, 61, 40
14, 148702, Note_on_c, 13, 73, 46
14, 148703, Note_on_c, 13, 70, 47
14, 148716, Note_on_c, 13, 61, 0
14, 148728, Note_on_c, 13, 73, 0
14, 148764, Note_on_c, 13, 70, 0
14, 148769, Note_on_c, 13, 43, 48
14, 148769, Note_on_c, 13, 63, 47
14, 148774, Note_on_c, 13, 75, 0
14, 148788, Note_on_c, 13, 43, 0
14, 148799, Note_on_c, 13, 63, 0
14, 148803, Note_on_c, 13, 75, 86
14, 148824, Note_on_c, 13, 75, 0
14, 148842, Note_on_c, 13, 75, 78
14, 148850, Note_on_c, 13, 72, 52
14, 148851, Note_on_c, 13, 68, 37
14, 148855, Control_c, 13, 64, 104
14, 148857, Note_on_c, 13, 44, 37
14, 148859, Control_c, 13, 64, 24
14, 148863, Control_c, 13, 64, 0
14, 148903, Control_c, 13, 64, 88
14, 148907, Control_c, 13, 64, 127
14, 148917, Note_on_c, 13, 44, 0
14, 148925, Note_on_c, 13, 63, 49
14, 148930, Note_on_c, 13, 51, 42
14, 148939, Note_on_c, 13, 68, 0
14, 148941, Note_on_c, 13, 63, 0
14, 148941, Note_on_c, 13, 72, 0
14, 148948, Note_on_c, 13, 75, 0
14, 148996, Note_on_c, 13, 51, 0
14, 149001, Note_on_c, 13, 80, 74
14, 149005, Note_on_c, 13, 75, 54
14, 149006, Note_on_c, 13, 56, 37
14, 149006, Note_on_c, 13, 72, 46
14, 149019, Note_on_c, 13, 72, 0
14, 149065, Note_on_c, 13, 80, 0
14, 149078, Note_on_c, 13, 75, 0
14, 149082, Note_on_c, 13, 68, 48
14, 149087, Note_on_c, 13, 56, 0
14, 149093, Note_on_c, 13, 60, 39
14, 149103, Note_on_c, 13, 68, 0
14, 149147, Note_on_c, 13, 70, 67
14, 149159, Note_on_c, 13, 70, 0
14, 149163, Note_on_c, 13, 60, 0
14, 149164, Note_on_c, 13, 72, 72
14, 149177, Control_c, 13, 64, 72
14, 149182, Control_c, 13, 64, 0
14, 149185, Note_on_c, 13, 70, 74
14, 149189, Note_on_c, 13, 72, 0
14, 149191, Note_on_c, 13, 49, 37
14, 149198, Note_on_c, 13, 67, 40
14, 149206, Control_c, 13, 64, 40
14, 149210, Control_c, 13, 64, 104
14, 149214, Control_c, 13, 64, 127
14, 149227, Note_on_c, 13, 70, 0
14, 149243, Note_on_c, 13, 69, 80
14, 149250, Note_on_c, 13, 49, 0
14, 149258, Note_on_c, 13, 55, 45
14, 149265, Note_on_c, 13, 69, 0
14, 149278, Note_on_c, 13, 70, 75
14, 149307, Note_on_c, 13, 70, 0
14, 149314, Note_on_c, 13, 55, 0
14, 149318, Note_on_c, 13, 71, 80
14, 149325, Note_on_c, 13, 63, 46
14, 149341, Note_on_c, 13, 67, 0
14, 149351, Note_on_c, 13, 71, 0
14, 149351, Note_on_c, 13, 72, 89
14, 149359, Note_on_c, 13, 67, 36
14, 149377, Note_on_c, 13, 72, 0
14, 149386, Note_on_c, 13, 73, 88
14, 149396, Note_on_c, 13, 63, 0
14, 149396, Note_on_c, 13, 55, 47
14, 149397, Note_on_c, 13, 67, 0
14, 149405, Note_on_c, 13, 55, 0
14, 149413, Note_on_c, 13, 73, 0
14, 149417, Note_on_c, 13, 74, 92
14, 149440, Note_on_c, 13, 74, 0
14, 149461, Note_on_c, 13, 48, 54
14, 149472, Note_on_c, 13, 77, 92
14, 149474, Note_on_c, 13, 68, 59
14, 149480, Control_c, 13, 64, 40
14, 149484, Control_c, 13, 64, 0
14, 149508, Control_c, 13, 64, 88
14, 149509, Note_on_c, 13, 77, 0
14, 149512, Control_c, 13, 64, 127
14, 149523, Note_on_c, 13, 48, 0
14, 149527, Note_on_c, 13, 75, 89
14, 149544, Note_on_c, 13, 51, 50
14, 149564, Note_on_c, 13, 75, 0
14, 149570, Note_on_c, 13, 77, 90
14, 149601, Note_on_c, 13, 77, 0
14, 149620, Note_on_c, 13, 51, 0
14, 149620, Note_on_c, 13, 63, 57
14, 149621, Note_on_c, 13, 75, 76
14, 149657, Note_on_c, 13, 75, 0
14, 149660, Note_on_c, 13, 68, 0
14, 149672, Note_on_c, 13, 73, 70
14, 149701, Note_on_c, 13, 73, 0
14, 149701, Note_on_c, 13, 56, 36
14, 149707, Note_on_c, 13, 63, 0
14, 149717, Note_on_c, 13, 72, 78
14, 149741, Note_on_c, 13, 72, 0
14, 149746, Note_on_c, 13, 56, 0
14, 149748, Note_on_c, 13, 70, 57
14, 149761, Note_on_c, 13, 67, 46
14, 149763, Note_on_c, 13, 70, 0
14, 149763, Note_on_c, 13, 72, 79
14, 149767, Control_c, 13, 64, 56
14, 149771, Control_c, 13, 64, 0
14, 149781, Note_on_c, 13, 49, 34
14, 149784, Note_on_c, 13, 70, 71
14, 149793, Note_on_c, 13, 72, 0
14, 149795, Control_c, 13, 64, 72
14, 149797, Note_on_c, 13, 67, 0
14, 149798, Control_c, 13, 64, 127
14, 149829, Note_on_c, 13, 70, 0
14, 149829, Note_on_c, 13, 69, 90
14, 149856, Note_on_c, 13, 69, 0
14, 149860, Note_on_c, 13, 70, 89
14, 149862, Note_on_c, 13, 55, 52
14, 149866, Note_on_c, 13, 49, 0
14, 149883, Note_on_c, 13, 70, 0
14, 149891, Note_on_c, 13, 71, 96
14, 149920, Note_on_c, 13, 71, 0
14, 149923, Note_on_c, 13, 72, 110
14, 149925, Note_on_c, 13, 55, 0
14, 149930, Note_on_c, 13, 64, 55
14, 149952, Note_on_c, 13, 72, 0
14, 149955, Note_on_c, 13, 73, 94
14, 149982, Note_on_c, 13, 73, 0
14, 149986, Note_on_c, 13, 74, 80
14, 149986, Note_on_c, 13, 55, 56
14, 149988, Note_on_c, 13, 64, 0
14, 150015, Note_on_c, 13, 75, 99
14, 150017, Note_on_c, 13, 55, 0
14, 150017, Note_on_c, 13, 74, 0
14, 150038, Note_on_c, 13, 75, 0
14, 150052, Note_on_c, 13, 71, 82
14, 150052, Note_on_c, 13, 76, 108
14, 150053, Control_c, 13, 64, 104
14, 150057, Control_c, 13, 64, 0
14, 150062, Note_on_c, 13, 50, 57
14, 150070, Note_on_c, 13, 71, 0
14, 150073, Control_c, 13, 64, 72
14, 150077, Control_c, 13, 64, 127
14, 150089, Note_on_c, 13, 77, 101
14, 150100, Note_on_c, 13, 76, 0
14, 150108, Note_on_c, 13, 50, 0
14, 150118, Note_on_c, 13, 56, 47
14, 150124, Note_on_c, 13, 78, 88
14, 150133, Note_on_c, 13, 77, 0
14, 150145, Note_on_c, 13, 78, 0
14, 150156, Note_on_c, 13, 79, 101
14, 150180, Note_on_c, 13, 79, 0
14, 150181, Note_on_c, 13, 56, 0
14, 150188, Note_on_c, 13, 65, 51
14, 150201, Note_on_c, 13, 82, 94
14, 150227, Note_on_c, 13, 82, 0
14, 150246, Note_on_c, 13, 80, 91
14, 150265, Note_on_c, 13, 80, 0
14, 150280, Note_on_c, 13, 79, 97
14, 150287, Note_on_c, 13, 65, 0
14, 150289, Note_on_c, 13, 59, 55
14, 150295, Note_on_c, 13, 59, 0
14, 150295, Note_on_c, 13, 79, 0
14, 150313, Note_on_c, 13, 77, 96
14, 150325, Note_on_c, 13, 77, 0
14, 150340, Note_on_c, 13, 77, 92
14, 150349, Note_on_c, 13, 79, 35
14, 150357, Note_on_c, 13, 79, 0
14, 150359, Control_c, 13, 64, 104
14, 150363, Control_c, 13, 64, 0
14, 150377, Note_on_c, 13, 77, 0
14, 150377, Note_on_c, 13, 39, 42
14, 150384, Note_on_c, 13, 89, 110
14, 150392, Control_c, 13, 64, 127
14, 150402, Note_on_c, 13, 39, 0
14, 150407, Note_on_c, 13, 89, 0
14, 150441, Note_on_c, 13, 74, 80
14, 150454, Note_on_c, 13, 74, 0
14, 150468, Note_on_c, 13, 68, 55
14, 150470, Note_on_c, 13, 75, 91
14, 150472, Note_on_c, 13, 60, 60
14, 150481, Note_on_c, 13, 60, 0
14, 150486, Note_on_c, 13, 75, 0
14, 150487, Note_on_c, 13, 68, 0
14, 150503, Note_on_c, 13, 87, 93
14, 150527, Note_on_c, 13, 87, 0
14, 150540, Note_on_c, 13, 85, 95
14, 150541, Note_on_c, 13, 68, 54
14, 150545, Note_on_c, 13, 60, 67
14, 150559, Note_on_c, 13, 68, 0
14, 150564, Note_on_c, 13, 60, 0
14, 150569, Note_on_c, 13, 85, 0
14, 150576, Note_on_c, 13, 80, 82
14, 150599, Note_on_c, 13, 80, 0
14, 150612, Note_on_c, 13, 72, 76
14, 150627, Note_on_c, 13, 72, 0
14, 150644, Note_on_c, 13, 84, 94
14, 150666, Note_on_c, 13, 84, 0
14, 150682, Control_c, 13, 64, 40
14, 150683, Note_on_c, 13, 82, 93
14, 150686, Control_c, 13, 64, 0
14, 150687, Note_on_c, 13, 38, 56
14, 150702, Note_on_c, 13, 38, 0
14, 150706, Control_c, 13, 64, 88
14, 150708, Note_on_c, 13, 82, 0
14, 150710, Control_c, 13, 64, 127
14, 150725, Note_on_c, 13, 70, 67
14, 150743, Note_on_c, 13, 70, 0
14, 150757, Note_on_c, 13, 65, 40
14, 150758, Note_on_c, 13, 71, 74
14, 150762, Note_on_c, 13, 59, 39
14, 150769, Note_on_c, 13, 71, 0
14, 150779, Note_on_c, 13, 59, 0
14, 150781, Note_on_c, 13, 65, 0
14, 150788, Note_on_c, 13, 80, 81
14, 150814, Note_on_c, 13, 80, 0
14, 150830, Note_on_c, 13, 79, 88
14, 150836, Note_on_c, 13, 65, 46
14, 150838, Note_on_c, 13, 59, 45
14, 150861, Note_on_c, 13, 65, 0
14, 150867, Note_on_c, 13, 59, 0
14, 150875, Note_on_c, 13, 79, 0
14, 150876, Note_on_c, 13, 74, 69
14, 150899, Note_on_c, 13, 74, 0
14, 150910, Note_on_c, 13, 68, 52
14, 150932, Note_on_c, 13, 68, 0
14, 150941, Note_on_c, 13, 77, 90
14, 150962, Note_on_c, 13, 77, 0
14, 150989, Control_c, 13, 64, 24
14, 150990, Note_on_c, 13, 72, 76
14, 150991, Note_on_c, 13, 77, 86
14, 150993, Control_c, 13, 64, 0
14, 150999, Note_on_c, 13, 39, 48
14, 151016, Control_c, 13, 64, 88
14, 151021, Control_c, 13, 64, 127
14, 151022, Note_on_c, 13, 77, 0
14, 151028, Note_on_c, 13, 39, 0
14, 151041, Note_on_c, 13, 63, 50
14, 151069, Note_on_c, 13, 72, 0
14, 151074, Note_on_c, 13, 63, 0
14, 151079, Note_on_c, 13, 70, 74
14, 151082, Note_on_c, 13, 61, 50
14, 151114, Note_on_c, 13, 70, 0
14, 151115, Note_on_c, 13, 75, 85
14, 151158, Note_on_c, 13, 61, 0
14, 151160, Note_on_c, 13, 68, 75
14, 151167, Note_on_c, 13, 60, 54
14, 151186, Control_c, 13, 64, 40
14, 151190, Control_c, 13, 64, 0
14, 151214, Control_c, 13, 64, 127
14, 151249, Note_on_c, 13, 51, 36
14, 151262, Note_on_c, 13, 60, 0
14, 151264, Note_on_c, 13, 75, 0
14, 151309, Note_on_c, 13, 51, 0
14, 151318, Note_on_c, 13, 60, 49
14, 151323, Note_on_c, 13, 68, 0
14, 151326, Note_on_c, 13, 63, 47
14, 151359, Note_on_c, 13, 68, 71
14, 151373, Note_on_c, 13, 63, 0
14, 151386, Note_on_c, 13, 68, 0
14, 151390, Note_on_c, 13, 70, 77
14, 151404, Note_on_c, 13, 51, 30
14, 151415, Note_on_c, 13, 68, 73
14, 151417, Note_on_c, 13, 60, 0
14, 151419, Note_on_c, 13, 70, 0
14, 151440, Note_on_c, 13, 68, 0
14, 151444, Note_on_c, 13, 63, 24
14, 151446, Note_on_c, 13, 67, 66
14, 151459, Note_on_c, 13, 63, 0
14, 151465, Note_on_c, 13, 67, 0
14, 151466, Note_on_c, 13, 68, 77
14, 151487, Note_on_c, 13, 51, 0
14, 151493, Note_on_c, 13, 68, 0
14, 151500, Control_c, 13, 64, 72
14, 151501, Note_on_c, 13, 67, 39
14, 151503, Note_on_c, 13, 72, 77
14, 151505, Control_c, 13, 64, 0
14, 151506, Note_on_c, 13, 58, 28
14, 151506, Note_on_c, 13, 61, 31
14, 151537, Control_c, 13, 64, 72
14, 151541, Control_c, 13, 64, 127
14, 151582, Note_on_c, 13, 67, 0
14, 151601, Note_on_c, 13, 52, 45
14, 151608, Note_on_c, 13, 58, 0
14, 151614, Note_on_c, 13, 52, 0
14, 151625, Note_on_c, 13, 72, 0
14, 151645, Note_on_c, 13, 70, 73
14, 151653, Note_on_c, 13, 61, 0
14, 151674, Note_on_c, 13, 70, 0
14, 151707, Control_c, 13, 64, 72
14, 151709, Note_on_c, 13, 73, 79
14, 151711, Control_c, 13, 64, 0
14, 151719, Note_on_c, 13, 41, 52
14, 151719, Note_on_c, 13, 68, 37
14, 151729, Note_on_c, 13, 68, 0
14, 151735, Control_c, 13, 64, 127
14, 151742, Note_on_c, 13, 73, 0
14, 151768, Note_on_c, 13, 60, 58
14, 151783, Note_on_c, 13, 60, 0
14, 151787, Note_on_c, 13, 41, 0
14, 151802, Note_on_c, 13, 61, 69
14, 151808, Note_on_c, 13, 49, 57
14, 151841, Note_on_c, 13, 61, 0
14, 151841, Note_on_c, 13, 68, 77
14, 151858, Note_on_c, 13, 68, 0
14, 151872, Note_on_c, 13, 49, 0
14, 151874, Note_on_c, 13, 72, 93
14, 151878, Note_on_c, 13, 56, 40
14, 151897, Note_on_c, 13, 72, 0
14, 151907, Note_on_c, 13, 73, 86
14, 151920, Note_on_c, 13, 56, 0
14, 151924, Note_on_c, 13, 73, 0
14, 151948, Note_on_c, 13, 80, 101
14, 151951, Note_on_c, 13, 61, 39
14, 151963, Note_on_c, 13, 61, 0
14, 151967, Note_on_c, 13, 80, 0
14, 151983, Note_on_c, 13, 92, 103
14, 152023, Note_on_c, 13, 92, 0
14, 152025, Control_c, 13, 64, 24
14, 152029, Control_c, 13, 64, 0
14, 152035, Note_on_c, 13, 94, 97
14, 152041, Note_on_c, 13, 43, 68
14, 152045, Control_c, 13, 64, 104
14, 152049, Control_c, 13, 64, 127
14, 152053, Note_on_c, 13, 94, 0
14, 152090, Note_on_c, 13, 62, 75
14, 152097, Note_on_c, 13, 62, 0
14, 152112, Note_on_c, 13, 43, 0
14, 152120, Note_on_c, 13, 63, 78
14, 152132, Note_on_c, 13, 51, 58
14, 152156, Note_on_c, 13, 70, 86
14, 152159, Note_on_c, 13, 63, 0
14, 152172, Note_on_c, 13, 70, 0
14, 152190, Note_on_c, 13, 74, 94
14, 152196, Note_on_c, 13, 51, 0
14, 152196, Note_on_c, 13, 58, 53
14, 152205, Note_on_c, 13, 74, 0
14, 152221, Note_on_c, 13, 58, 0
14, 152224, Note_on_c, 13, 75, 101
14, 152259, Note_on_c, 13, 75, 0
14, 152261, Note_on_c, 13, 82, 98
14, 152263, Note_on_c, 13, 63, 78
14, 152267, Note_on_c, 13, 82, 0
14, 152279, Note_on_c, 13, 63, 0
14, 152300, Note_on_c, 13, 94, 101
14, 152337, Note_on_c, 13, 94, 0
14, 152348, Note_on_c, 13, 96, 103
14, 152360, Control_c, 13, 64, 24
14, 152360, Note_on_c, 13, 44, 68
14, 152364, Control_c, 13, 64, 0
14, 152384, Control_c, 13, 64, 127
14, 152391, Note_on_c, 13, 96, 0
14, 152397, Note_on_c, 13, 91, 96
14, 152418, Note_on_c, 13, 44, 0
14, 152425, Note_on_c, 13, 91, 0
14, 152433, Note_on_c, 13, 92, 99
14, 152439, Note_on_c, 13, 53, 64
14, 152453, Note_on_c, 13, 92, 0
14, 152466, Note_on_c, 13, 80, 86
14, 152486, Note_on_c, 13, 80, 0
14, 152496, Note_on_c, 13, 53, 0
14, 152501, Note_on_c, 13, 84, 96
14, 152507, Note_on_c, 13, 60, 69
14, 152524, Note_on_c, 13, 84, 0
14, 152535, Note_on_c, 13, 60, 0
14, 152535, Note_on_c, 13, 87, 89
14, 152565, Note_on_c, 13, 87, 0
14, 152569, Note_on_c, 13, 91, 98
14, 152569, Note_on_c, 13, 65, 77
14, 152583, Note_on_c, 13, 65, 0
14, 152594, Note_on_c, 13, 91, 0
14, 152604, Note_on_c, 13, 89, 105
14, 152645, Note_on_c, 13, 89, 0
14, 152649, Note_on_c, 13, 87, 94
14, 152654, Control_c, 13, 64, 40
14, 152656, Note_on_c, 13, 46, 59
14, 152658, Control_c, 13, 64, 0
14, 152679, Control_c, 13, 64, 127
14, 152689, Note_on_c, 13, 84, 90
14, 152695, Note_on_c, 13, 87, 0
14, 152711, Note_on_c, 13, 46, 0
14, 152724, Note_on_c, 13, 84, 0
14, 152726, Note_on_c, 13, 85, 86
14, 152727, Note_on_c, 13, 53, 64
14, 152745, Note_on_c, 13, 85, 0
14, 152757, Note_on_c, 13, 53, 0
14, 152757, Note_on_c, 13, 73, 91
14, 152781, Note_on_c, 13, 73, 0
14, 152794, Note_on_c, 13, 77, 93
14, 152798, Note_on_c, 13, 61, 53
14, 152815, Note_on_c, 13, 77, 0
14, 152828, Note_on_c, 13, 80, 89
14, 152860, Note_on_c, 13, 80, 0
14, 152869, Note_on_c, 13, 84, 93
14, 152875, Note_on_c, 13, 65, 56
14, 152883, Note_on_c, 13, 61, 0
14, 152899, Note_on_c, 13, 82, 88
14, 152906, Note_on_c, 13, 84, 0
14, 152916, Note_on_c, 13, 65, 0
14, 152929, Note_on_c, 13, 80, 82
14, 152945, Note_on_c, 13, 82, 0
14, 152950, Control_c, 13, 64, 0
14, 152963, Control_c, 13, 64, 127
14, 152963, Note_on_c, 13, 79, 72
14, 152965, Note_on_c, 13, 80, 0
14, 152972, Note_on_c, 13, 52, 49
14, 152994, Note_on_c, 13, 79, 0
14, 152994, Note_on_c, 13, 80, 80
14, 153016, Note_on_c, 13, 80, 0
14, 153018, Note_on_c, 13, 79, 84
14, 153044, Note_on_c, 13, 79, 0
14, 153044, Note_on_c, 13, 78, 80
14, 153065, Note_on_c, 13, 52, 0
14, 153067, Note_on_c, 13, 78, 0
14, 153071, Note_on_c, 13, 79, 86
14, 153075, Note_on_c, 13, 58, 42
14, 153093, Note_on_c, 13, 79, 0
14, 153098, Note_on_c, 13, 80, 88
14, 153119, Note_on_c, 13, 80, 0
14, 153125, Note_on_c, 13, 82, 90
14, 153151, Note_on_c, 13, 82, 0
14, 153154, Note_on_c, 13, 84, 94
14, 153180, Note_on_c, 13, 84, 0
14, 153184, Note_on_c, 13, 58, 0
14, 153185, Note_on_c, 13, 87, 93
14, 153190, Note_on_c, 13, 67, 57
14, 153206, Note_on_c, 13, 87, 0
14, 153214, Note_on_c, 13, 85, 86
14, 153239, Note_on_c, 13, 85, 0
14, 153243, Note_on_c, 13, 82, 81
14, 153271, Note_on_c, 13, 79, 77
14, 153286, Note_on_c, 13, 82, 0
14, 153296, Note_on_c, 13, 79, 0
14, 153298, Note_on_c, 13, 76, 78
14, 153298, Note_on_c, 13, 61, 47
14, 153317, Note_on_c, 13, 76, 0
14, 153329, Note_on_c, 13, 72, 82
14, 153340, Note_on_c, 13, 67, 0
14, 153351, Note_on_c, 13, 72, 0
14, 153358, Note_on_c, 13, 73, 75
14, 153386, Note_on_c, 13, 73, 0
14, 153386, Note_on_c, 13, 70, 74
14, 153412, Note_on_c, 13, 61, 0
14, 153415, Note_on_c, 13, 70, 0
14, 153422, Note_on_c, 13, 68, 77
14, 153433, Note_on_c, 13, 53, 49
14, 153450, Control_c, 13, 64, 104
14, 153454, Control_c, 13, 64, 24
14, 153458, Control_c, 13, 64, 0
14, 153496, Control_c, 13, 64, 24
14, 153500, Control_c, 13, 64, 56
14, 153504, Control_c, 13, 64, 88
14, 153507, Control_c, 13, 64, 127
14, 153524, Note_on_c, 13, 56, 45
14, 153616, Note_on_c, 13, 53, 0
14, 153618, Note_on_c, 13, 65, 38
14, 153656, Note_on_c, 13, 56, 0
14, 153690, Note_on_c, 13, 68, 0
14, 153719, Note_on_c, 13, 61, 40
14, 153776, Note_on_c, 13, 65, 0
14, 153815, Note_on_c, 13, 55, 46
14, 153821, Note_on_c, 13, 69, 69
14, 153824, Note_on_c, 13, 61, 0
14, 153825, Control_c, 13, 64, 104
14, 153829, Control_c, 13, 64, 40
14, 153833, Control_c, 13, 64, 0
14, 153851, Note_on_c, 13, 69, 0
14, 153853, Note_on_c, 13, 70, 68
14, 153856, Control_c, 13, 64, 56
14, 153860, Control_c, 13, 64, 127
14, 153885, Note_on_c, 13, 70, 0
14, 153889, Note_on_c, 13, 72, 86
14, 153897, Note_on_c, 13, 58, 30
14, 153905, Note_on_c, 13, 55, 0
14, 153914, Note_on_c, 13, 72, 0
14, 153918, Note_on_c, 13, 70, 76
14, 153945, Note_on_c, 13, 70, 0
14, 153947, Note_on_c, 13, 69, 89
14, 153975, Note_on_c, 13, 69, 0
14, 153979, Note_on_c, 13, 70, 87
14, 153985, Note_on_c, 13, 64, 50
14, 154002, Note_on_c, 13, 70, 0
14, 154010, Note_on_c, 13, 72, 92
14, 154039, Note_on_c, 13, 72, 0
14, 154045, Note_on_c, 13, 75, 93
14, 154058, Note_on_c, 13, 58, 0
14, 154065, Note_on_c, 13, 61, 46
14, 154071, Note_on_c, 13, 75, 0
14, 154074, Note_on_c, 13, 73, 85
14, 154102, Note_on_c, 13, 73, 0
14, 154102, Note_on_c, 13, 72, 97
14, 154124, Note_on_c, 13, 64, 0
14, 154125, Note_on_c, 13, 72, 0
14, 154142, Note_on_c, 13, 72, 87
14, 154157, Note_on_c, 13, 56, 40
14, 154168, Note_on_c, 13, 61, 0
14, 154185, Control_c, 13, 64, 72
14, 154188, Control_c, 13, 64, 24
14, 154193, Control_c, 13, 64, 0
14, 154224, Control_c, 13, 64, 24
14, 154227, Control_c, 13, 64, 88
14, 154231, Control_c, 13, 64, 127
14, 154234, Note_on_c, 13, 60, 55
14, 154325, Note_on_c, 13, 67, 56
14, 154391, Note_on_c, 13, 67, 0
14, 154417, Note_on_c, 13, 65, 52
14, 154427, Note_on_c, 13, 60, 0
14, 154428, Note_on_c, 13, 65, 0
14, 154442, Note_on_c, 13, 56, 0
14, 154504, Note_on_c, 13, 50, 59
14, 154511, Control_c, 13, 64, 72
14, 154515, Control_c, 13, 64, 24
14, 154518, Control_c, 13, 64, 0
14, 154537, Note_on_c, 13, 72, 0
14, 154538, Control_c, 13, 64, 56
14, 154542, Control_c, 13, 64, 127
14, 154544, Note_on_c, 13, 71, 67
14, 154568, Note_on_c, 13, 71, 0
14, 154577, Note_on_c, 13, 56, 52
14, 154580, Note_on_c, 13, 65, 67
14, 154582, Note_on_c, 13, 50, 0
14, 154602, Note_on_c, 13, 56, 0
14, 154603, Note_on_c, 13, 65, 0
14, 154617, Note_on_c, 13, 71, 80
14, 154654, Note_on_c, 13, 71, 0
14, 154654, Note_on_c, 13, 77, 82
14, 154658, Note_on_c, 13, 67, 57
14, 154672, Note_on_c, 13, 77, 0
14, 154691, Note_on_c, 13, 71, 79
14, 154712, Note_on_c, 13, 71, 0
14, 154727, Note_on_c, 13, 77, 92
14, 154729, Note_on_c, 13, 65, 67
14, 154734, Note_on_c, 13, 67, 0
14, 154736, Note_on_c, 13, 65, 0
14, 154765, Note_on_c, 13, 83, 86
14, 154768, Note_on_c, 13, 77, 0
14, 154783, Note_on_c, 13, 83, 0
14, 154801, Note_on_c, 13, 77, 78
14, 154802, Control_c, 13, 64, 56
14, 154804, Note_on_c, 13, 49, 68
14, 154806, Control_c, 13, 64, 0
14, 154822, Note_on_c, 13, 77, 0
14, 154825, Control_c, 13, 64, 56
14, 154829, Control_c, 13, 64, 127
14, 154836, Note_on_c, 13, 83, 94
14, 154871, Note_on_c, 13, 56, 58
14, 154873, Note_on_c, 13, 89, 94
14, 154876, Note_on_c, 13, 49, 0
14, 154879, Note_on_c, 13, 83, 0
14, 154889, Note_on_c, 13, 56, 0
14, 154893, Note_on_c, 13, 89, 0
14, 154906, Note_on_c, 13, 83, 93
14, 154930, Note_on_c, 13, 83, 0
14, 154943, Note_on_c, 13, 89, 94
14, 154948, Note_on_c, 13, 67, 86
14, 154982, Note_on_c, 13, 95, 97
14, 154991, Note_on_c, 13, 89, 0
14, 155000, Note_on_c, 13, 95, 0
14, 155020, Note_on_c, 13, 89, 108
14, 155020, Note_on_c, 13, 65, 78
14, 155024, Note_on_c, 13, 67, 0
14, 155027, Note_on_c, 13, 65, 0
14, 155046, Note_on_c, 13, 89, 0
14, 155053, Note_on_c, 13, 101, 105
14, 155087, Note_on_c, 13, 101, 0
14, 155092, Note_on_c, 13, 96, 105
14, 155093, Control_c, 13, 64, 104
14, 155094, Note_on_c, 13, 48, 89
14, 155097, Control_c, 13, 64, 24
14, 155101, Control_c, 13, 64, 0
14, 155123, Control_c, 13, 64, 127
14, 155130, Note_on_c, 13, 89, 88
14, 155134, Note_on_c, 13, 96, 0
14, 155151, Note_on_c, 13, 89, 0
14, 155162, Note_on_c, 13, 56, 72
14, 155168, Note_on_c, 13, 48, 0
14, 155168, Note_on_c, 13, 84, 100
14, 155179, Note_on_c, 13, 56, 0
14, 155189, Note_on_c, 13, 84, 0
14, 155201, Note_on_c, 13, 89, 96
14, 155229, Note_on_c, 13, 89, 0
14, 155237, Note_on_c, 13, 84, 89
14, 155239, Note_on_c, 13, 67, 93
14, 155265, Note_on_c, 13, 84, 0
14, 155270, Note_on_c, 13, 77, 91
14, 155302, Note_on_c, 13, 77, 0
14, 155307, Note_on_c, 13, 67, 0
14, 155309, Note_on_c, 13, 89, 97
14, 155311, Note_on_c, 13, 65, 73
14, 155320, Note_on_c, 13, 65, 0
14, 155333, Note_on_c, 13, 89, 0
14, 155342, Note_on_c, 13, 84, 96
14, 155369, Control_c, 13, 64, 88
14, 155373, Control_c, 13, 64, 24
14, 155374, Note_on_c, 13, 84, 0
14, 155377, Control_c, 13, 64, 0
14, 155379, Note_on_c, 13, 82, 89
14, 155380, Note_on_c, 13, 49, 89
14, 155396, Control_c, 13, 64, 88
14, 155399, Note_on_c, 13, 49, 0
14, 155400, Control_c, 13, 64, 127
14, 155410, Note_on_c, 13, 82, 0
14, 155414, Note_on_c, 13, 77, 94
14, 155444, Note_on_c, 13, 77, 0
14, 155451, Note_on_c, 13, 89, 103
14, 155456, Note_on_c, 13, 65, 73
14, 155462, Note_on_c, 13, 65, 0
14, 155480, Note_on_c, 13, 89, 0
14, 155486, Note_on_c, 13, 77, 98
14, 155514, Note_on_c, 13, 77, 0
14, 155519, Control_c, 13, 64, 104
14, 155522, Note_on_c, 13, 50, 92
14, 155522, Control_c, 13, 64, 24
14, 155524, Note_on_c, 13, 83, 103
14, 155526, Control_c, 13, 64, 0
14, 155543, Note_on_c, 13, 50, 0
14, 155546, Control_c, 13, 64, 104
14, 155549, Control_c, 13, 64, 127
14, 155557, Note_on_c, 13, 83, 0
14, 155560, Note_on_c, 13, 77, 100
14, 155592, Note_on_c, 13, 77, 0
14, 155596, Note_on_c, 13, 89, 105
14, 155598, Note_on_c, 13, 65, 76
14, 155613, Note_on_c, 13, 65, 0
14, 155628, Note_on_c, 13, 83, 98
14, 155650, Note_on_c, 13, 83, 0
14, 155663, Note_on_c, 13, 89, 0
14, 155664, Control_c, 13, 64, 104
14, 155668, Control_c, 13, 64, 24
14, 155670, Note_on_c, 13, 52, 93
14, 155672, Note_on_c, 13, 84, 107
14, 155672, Control_c, 13, 64, 0
14, 155692, Note_on_c, 13, 52, 0
14, 155695, Control_c, 13, 64, 56
14, 155699, Control_c, 13, 64, 127
14, 155727, Note_on_c, 13, 84, 0
14, 155751, Note_on_c, 13, 91, 93
14, 155752, Note_on_c, 13, 88, 87
14, 155754, Note_on_c, 13, 79, 76
14, 155774, Note_on_c, 13, 79, 0
14, 155784, Note_on_c, 13, 88, 0
14, 155789, Note_on_c, 13, 96, 93
14, 155791, Note_on_c, 13, 78, 71
14, 155795, Note_on_c, 13, 91, 0
14, 155807, Note_on_c, 13, 78, 0
14, 155813, Note_on_c, 13, 96, 0
14, 155825, Note_on_c, 13, 85, 91
14, 155826, Note_on_c, 13, 77, 72
14, 155844, Note_on_c, 13, 77, 0
14, 155846, Note_on_c, 13, 85, 0
14, 155857, Note_on_c, 13, 88, 89
14, 155859, Note_on_c, 13, 85, 74
14, 155859, Note_on_c, 13, 76, 81
14, 155877, Note_on_c, 13, 76, 0
14, 155888, Note_on_c, 13, 85, 0
14, 155890, Note_on_c, 13, 88, 0
14, 155895, Note_on_c, 13, 91, 88
14, 155895, Note_on_c, 13, 75, 68
14, 155918, Note_on_c, 13, 75, 0
14, 155920, Note_on_c, 13, 91, 0
14, 155927, Note_on_c, 13, 83, 87
14, 155930, Note_on_c, 13, 74, 71
14, 155949, Note_on_c, 13, 83, 0
14, 155950, Note_on_c, 13, 74, 0
14, 155959, Control_c, 13, 64, 104
14, 155962, Note_on_c, 13, 84, 87
14, 155963, Control_c, 13, 64, 56
14, 155964, Note_on_c, 13, 73, 79
14, 155965, Note_on_c, 13, 82, 73
14, 155967, Control_c, 13, 64, 24
14, 155971, Control_c, 13, 64, 0
14, 155978, Control_c, 13, 64, 56
14, 155982, Control_c, 13, 64, 104
14, 155986, Note_on_c, 13, 82, 0
14, 155986, Control_c, 13, 64, 127
14, 155990, Note_on_c, 13, 73, 0
14, 155993, Note_on_c, 13, 84, 0
14, 155995, Note_on_c, 13, 81, 86
14, 156000, Note_on_c, 13, 72, 75
14, 156019, Note_on_c, 13, 81, 0
14, 156023, Note_on_c, 13, 72, 0
14, 156030, Note_on_c, 13, 84, 86
14, 156032, Note_on_c, 13, 80, 75
14, 156034, Note_on_c, 13, 71, 77
14, 156057, Note_on_c, 13, 71, 0
14, 156061, Note_on_c, 13, 80, 0
14, 156067, Note_on_c, 13, 89, 88
14, 156069, Note_on_c, 13, 70, 64
14, 156075, Note_on_c, 13, 84, 0
14, 156091, Note_on_c, 13, 70, 0
14, 156093, Note_on_c, 13, 89, 0
14, 156100, Note_on_c, 13, 79, 80
14, 156104, Note_on_c, 13, 69, 70
14, 156122, Note_on_c, 13, 69, 0
14, 156125, Note_on_c, 13, 79, 0
14, 156133, Note_on_c, 13, 68, 63
14, 156133, Note_on_c, 13, 80, 86
14, 156136, Note_on_c, 13, 77, 77
14, 156154, Note_on_c, 13, 77, 0
14, 156159, Note_on_c, 13, 68, 0
14, 156166, Note_on_c, 13, 80, 0
14, 156166, Note_on_c, 13, 67, 70
14, 156169, Note_on_c, 13, 84, 88
14, 156196, Note_on_c, 13, 84, 0
14, 156199, Note_on_c, 13, 67, 0
14, 156199, Note_on_c, 13, 65, 68
14, 156203, Note_on_c, 13, 72, 98
14, 156206, Note_on_c, 13, 65, 0
14, 156233, Note_on_c, 13, 72, 0
14, 156246, Note_on_c, 13, 79, 101
14, 156246, Note_on_c, 13, 76, 97
14, 156250, Note_on_c, 13, 60, 63
14, 156254, Control_c, 13, 64, 56
14, 156258, Control_c, 13, 64, 0
14, 156271, Note_on_c, 13, 60, 0
14, 156281, Control_c, 13, 64, 104
14, 156284, Note_on_c, 13, 76, 0
14, 156285, Control_c, 13, 64, 127
14, 156306, Note_on_c, 13, 79, 0
14, 156323, Note_on_c, 13, 79, 81
14, 156326, Note_on_c, 13, 76, 80
14, 156328, Note_on_c, 13, 67, 66
14, 156349, Note_on_c, 13, 67, 0
14, 156350, Note_on_c, 13, 76, 0
14, 156357, Note_on_c, 13, 84, 91
14, 156364, Note_on_c, 13, 66, 59
14, 156370, Note_on_c, 13, 79, 0
14, 156380, Note_on_c, 13, 84, 0
14, 156383, Note_on_c, 13, 66, 0
14, 156391, Note_on_c, 13, 73, 80
14, 156396, Note_on_c, 13, 65, 77
14, 156410, Note_on_c, 13, 73, 0
14, 156416, Note_on_c, 13, 65, 0
14, 156422, Note_on_c, 13, 76, 84
14, 156425, Note_on_c, 13, 72, 71
14, 156425, Note_on_c, 13, 64, 68
14, 156432, Note_on_c, 13, 72, 0
14, 156449, Note_on_c, 13, 76, 0
14, 156450, Note_on_c, 13, 64, 0
14, 156460, Note_on_c, 13, 63, 65
14, 156461, Note_on_c, 13, 79, 91
14, 156484, Note_on_c, 13, 63, 0
14, 156486, Note_on_c, 13, 79, 0
14, 156494, Note_on_c, 13, 71, 87
14, 156494, Note_on_c, 13, 62, 72
14, 156514, Note_on_c, 13, 62, 0
14, 156514, Note_on_c, 13, 71, 0
14, 156525, Note_on_c, 13, 72, 94
14, 156526, Control_c, 13, 64, 72
14, 156527, Note_on_c, 13, 61, 68
14, 156528, Note_on_c, 13, 70, 67
14, 156530, Control_c, 13, 64, 24
14, 156534, Control_c, 13, 64, 0
14, 156550, Note_on_c, 13, 70, 0
14, 156550, Control_c, 13, 64, 72
14, 156552, Note_on_c, 13, 61, 0
14, 156553, Control_c, 13, 64, 127
14, 156557, Note_on_c, 13, 72, 0
14, 156562, Note_on_c, 13, 69, 87
14, 156562, Note_on_c, 13, 60, 77
14, 156583, Note_on_c, 13, 69, 0
14, 156587, Note_on_c, 13, 60, 0
14, 156595, Note_on_c, 13, 72, 90
14, 156596, Note_on_c, 13, 59, 75
14, 156598, Note_on_c, 13, 68, 68
14, 156620, Note_on_c, 13, 59, 0
14, 156623, Note_on_c, 13, 68, 0
14, 156631, Note_on_c, 13, 77, 90
14, 156631, Note_on_c, 13, 58, 59
14, 156639, Note_on_c, 13, 72, 0
14, 156657, Note_on_c, 13, 58, 0
14, 156657, Note_on_c, 13, 77, 0
14, 156663, Note_on_c, 13, 67, 78
14, 156668, Note_on_c, 13, 57, 59
14, 156685, Note_on_c, 13, 57, 0
14, 156688, Note_on_c, 13, 67, 0
14, 156696, Note_on_c, 13, 68, 85
14, 156697, Note_on_c, 13, 56, 60
14, 156699, Note_on_c, 13, 65, 70
14, 156721, Note_on_c, 13, 65, 0
14, 156723, Note_on_c, 13, 56, 0
14, 156730, Note_on_c, 13, 55, 72
14, 156732, Note_on_c, 13, 68, 0
14, 156732, Note_on_c, 13, 72, 94
14, 156758, Note_on_c, 13, 72, 0
14, 156759, Note_on_c, 13, 55, 0
14, 156762, Note_on_c, 13, 53, 72
14, 156765, Note_on_c, 13, 60, 96
14, 156769, Note_on_c, 13, 53, 0
14, 156782, Note_on_c, 13, 60, 0
14, 156795, Control_c, 13, 64, 104
14, 156798, Control_c, 13, 64, 40
14, 156802, Control_c, 13, 64, 0
14, 156811, Note_on_c, 13, 73, 105
14, 156813, Note_on_c, 13, 61, 93
14, 156813, Note_on_c, 13, 67, 87
14, 156815, Note_on_c, 13, 46, 87
14, 156815, Note_on_c, 13, 65, 77
14, 156822, Note_on_c, 13, 65, 0
14, 156825, Note_on_c, 13, 61, 0
14, 156829, Control_c, 13, 64, 72
14, 156830, Note_on_c, 13, 67, 0
14, 156832, Note_on_c, 13, 46, 0
14, 156833, Control_c, 13, 64, 127
14, 156844, Note_on_c, 13, 73, 0
14, 156894, Note_on_c, 13, 97, 100
14, 156916, Note_on_c, 13, 97, 0
14, 156927, Note_on_c, 13, 89, 103
14, 156958, Note_on_c, 13, 89, 0
14, 156962, Note_on_c, 13, 94, 96
14, 156966, Note_on_c, 13, 77, 94
14, 156966, Note_on_c, 13, 70, 78
14, 156966, Note_on_c, 13, 67, 82
14, 156971, Control_c, 13, 64, 104
14, 156975, Control_c, 13, 64, 56
14, 156979, Control_c, 13, 64, 24
14, 156982, Control_c, 13, 64, 56
14, 156986, Control_c, 13, 64, 127
14, 156995, Note_on_c, 13, 94, 0
14, 157001, Note_on_c, 13, 85, 84
14, 157028, Note_on_c, 13, 85, 0
14, 157036, Note_on_c, 13, 91, 93
14, 157065, Note_on_c, 13, 82, 78
14, 157067, Note_on_c, 13, 91, 0
14, 157079, Note_on_c, 13, 67, 0
14, 157079, Note_on_c, 13, 77, 0
14, 157082, Note_on_c, 13, 70, 0
14, 157089, Note_on_c, 13, 82, 0
14, 157100, Note_on_c, 13, 89, 98
14, 157127, Note_on_c, 13, 89, 0
14, 157133, Note_on_c, 13, 79, 79
14, 157155, Note_on_c, 13, 79, 0
14, 157166, Note_on_c, 13, 85, 93
14, 157196, Note_on_c, 13, 85, 0
14, 157198, Note_on_c, 13, 77, 85
14, 157217, Note_on_c, 13, 77, 0
14, 157232, Note_on_c, 13, 82, 93
14, 157256, Note_on_c, 13, 82, 0
14, 157266, Note_on_c, 13, 73, 73
14, 157288, Note_on_c, 13, 73, 0
14, 157299, Note_on_c, 13, 79, 92
14, 157328, Note_on_c, 13, 79, 0
14, 157328, Note_on_c, 13, 70, 72
14, 157350, Note_on_c, 13, 70, 0
14, 157365, Note_on_c, 13, 77, 97
14, 157393, Note_on_c, 13, 77, 0
14, 157396, Note_on_c, 13, 67, 71
14, 157418, Note_on_c, 13, 67, 0
14, 157429, Note_on_c, 13, 73, 87
14, 157457, Note_on_c, 13, 73, 0
14, 157461, Note_on_c, 13, 65, 71
14, 157479, Note_on_c, 13, 65, 0
14, 157496, Note_on_c, 13, 70, 89
14, 157518, Note_on_c, 13, 70, 0
14, 157527, Note_on_c, 13, 61, 70
14, 157553, Note_on_c, 13, 61, 0
14, 157567, Note_on_c, 13, 67, 88
14, 157595, Note_on_c, 13, 67, 0
14, 157600, Note_on_c, 13, 58, 70
14, 157625, Note_on_c, 13, 58, 0
14, 157650, Note_on_c, 13, 65, 82
14, 157658, Note_on_c, 13, 55, 55
14, 157661, Note_on_c, 13, 49, 45
14, 157665, Note_on_c, 13, 37, 35
14, 157680, Control_c, 13, 64, 88
14, 157684, Control_c, 13, 64, 24
14, 157687, Control_c, 13, 64, 0
14, 157714, Control_c, 13, 64, 72
14, 157718, Control_c, 13, 64, 127
14, 157753, Note_on_c, 13, 37, 0
14, 157755, Note_on_c, 13, 49, 0
14, 157783, Note_on_c, 13, 65, 0
14, 157801, Note_on_c, 13, 55, 0
14, 157815, Note_on_c, 13, 64, 73
14, 157820, Note_on_c, 13, 60, 58
14, 157826, Note_on_c, 13, 48, 38
14, 157826, Note_on_c, 13, 36, 39
14, 157829, Note_on_c, 13, 60, 0
14, 157855, Note_on_c, 13, 60, 6
14, 157860, Control_c, 13, 64, 72
14, 157864, Control_c, 13, 64, 0
14, 157882, Control_c, 13, 64, 24
14, 157887, Control_c, 13, 64, 88
14, 157891, Control_c, 13, 64, 127
14, 157904, Note_on_c, 13, 36, 0
14, 157905, Note_on_c, 13, 60, 0
14, 157929, Note_on_c, 13, 48, 0
14, 157933, Note_on_c, 13, 64, 0
14, 157971, Note_on_c, 13, 65, 70
14, 157974, Note_on_c, 13, 56, 42
14, 157982, Note_on_c, 13, 41, 43
14, 157998, Control_c, 13, 64, 88
14, 158002, Control_c, 13, 64, 40
14, 158005, Control_c, 13, 64, 0
14, 158032, Control_c, 13, 64, 127
14, 158042, Note_on_c, 13, 65, 0
14, 158049, Note_on_c, 13, 56, 0
14, 158055, Note_on_c, 13, 48, 69
14, 158064, Note_on_c, 13, 41, 0
14, 158068, Note_on_c, 13, 48, 0
14, 158128, Note_on_c, 13, 56, 64
14, 158130, Note_on_c, 13, 53, 47
14, 158136, Note_on_c, 13, 53, 0
14, 158147, Note_on_c, 13, 56, 0
14, 158165, Note_on_c, 13, 60, 78
14, 158179, Note_on_c, 13, 60, 0
14, 158200, Note_on_c, 13, 65, 78
14, 158217, Note_on_c, 13, 65, 0
14, 158230, Note_on_c, 13, 67, 86
14, 158254, Control_c, 13, 64, 72
14, 158257, Control_c, 13, 64, 0
14, 158263, Note_on_c, 13, 44, 74
14, 158268, Note_on_c, 13, 65, 56
14, 158269, Note_on_c, 13, 68, 89
14, 158272, Control_c, 13, 64, 40
14, 158276, Control_c, 13, 64, 127
14, 158277, Note_on_c, 13, 67, 0
14, 158278, Note_on_c, 13, 65, 0
14, 158288, Note_on_c, 13, 68, 0
14, 158304, Note_on_c, 13, 72, 94
14, 158311, Note_on_c, 13, 44, 0
14, 158323, Note_on_c, 13, 72, 0
14, 158336, Note_on_c, 13, 53, 54
14, 158337, Note_on_c, 13, 77, 93
14, 158357, Note_on_c, 13, 77, 0
14, 158365, Note_on_c, 13, 79, 94
14, 158396, Note_on_c, 13, 80, 94
14, 158396, Note_on_c, 13, 77, 68
14, 158401, Note_on_c, 13, 60, 81
14, 158405, Note_on_c, 13, 79, 0
14, 158411, Note_on_c, 13, 77, 0
14, 158411, Note_on_c, 13, 80, 0
14, 158418, Note_on_c, 13, 60, 0
14, 158424, Note_on_c, 13, 53, 0
14, 158431, Note_on_c, 13, 84, 90
14, 158451, Note_on_c, 13, 84, 0
14, 158464, Note_on_c, 13, 89, 94
14, 158488, Note_on_c, 13, 89, 0
14, 158495, Note_on_c, 13, 92, 103
14, 158525, Note_on_c, 13, 92, 0
14, 158536, Note_on_c, 13, 91, 94
14, 158540, Note_on_c, 13, 83, 66
14, 158548, Control_c, 13, 64, 88
14, 158549, Note_on_c, 13, 43, 57
14, 158552, Control_c, 13, 64, 24
14, 158556, Control_c, 13, 64, 0
14, 158583, Control_c, 13, 64, 104
14, 158587, Control_c, 13, 64, 127
14, 158592, Note_on_c, 13, 91, 0
14, 158602, Note_on_c, 13, 83, 0
14, 158611, Note_on_c, 13, 43, 0
14, 158614, Note_on_c, 13, 55, 51
14, 158624, Note_on_c, 13, 55, 0
14, 158676, Note_on_c, 13, 83, 90
14, 158679, Note_on_c, 13, 65, 64
14, 158682, Note_on_c, 13, 77, 73
14, 158698, Note_on_c, 13, 65, 0
14, 158702, Note_on_c, 13, 77, 0
14, 158705, Note_on_c, 13, 83, 0
14, 158713, Note_on_c, 13, 80, 70
14, 158746, Note_on_c, 13, 79, 69
14, 158750, Note_on_c, 13, 80, 0
14, 158769, Note_on_c, 13, 79, 0
14, 158776, Note_on_c, 13, 71, 63
14, 158792, Note_on_c, 13, 71, 0
14, 158814, Note_on_c, 13, 85, 96
14, 158818, Note_on_c, 13, 76, 86
14, 158820, Control_c, 13, 64, 56
14, 158823, Note_on_c, 13, 48, 57
14, 158824, Control_c, 13, 64, 0
14, 158843, Control_c, 13, 64, 40
14, 158845, Note_on_c, 13, 76, 0
14, 158847, Control_c, 13, 64, 127
14, 158848, Note_on_c, 13, 85, 0
14, 158854, Note_on_c, 13, 80, 65
14, 158883, Note_on_c, 13, 80, 0
14, 158885, Note_on_c, 13, 48, 0
14, 158885, Note_on_c, 13, 79, 76
14, 158887, Note_on_c, 13, 55, 51
14, 158909, Note_on_c, 13, 55, 0
14, 158912, Note_on_c, 13, 79, 0
14, 158915, Note_on_c, 13, 70, 68
14, 158937, Note_on_c, 13, 70, 0
14, 158951, Note_on_c, 13, 84, 86
14, 158954, Note_on_c, 13, 64, 53
14, 158955, Note_on_c, 13, 76, 70
14, 158963, Note_on_c, 13, 76, 0
14, 158966, Note_on_c, 13, 64, 0
14, 158973, Note_on_c, 13, 84, 0
14, 158985, Note_on_c, 13, 80, 79
14, 159021, Note_on_c, 13, 79, 71
14, 159025, Note_on_c, 13, 80, 0
14, 159040, Note_on_c, 13, 79, 0
14, 159047, Note_on_c, 13, 70, 60
14, 159064, Note_on_c, 13, 70, 0
14, 159097, Note_on_c, 13, 77, 78
14, 159101, Note_on_c, 13, 68, 44
14, 159104, Control_c, 13, 64, 56
14, 159105, Note_on_c, 13, 41, 48
14, 159108, Control_c, 13, 64, 0
14, 159130, Control_c, 13, 64, 40
14, 159134, Control_c, 13, 64, 127
14, 159140, Note_on_c, 13, 77, 0
14, 159152, Note_on_c, 13, 68, 0
14, 159170, Note_on_c, 13, 48, 57
14, 159172, Note_on_c, 13, 41, 0
14, 159178, Note_on_c, 13, 48, 0
14, 159239, Note_on_c, 13, 56, 65
14, 159241, Note_on_c, 13, 53, 65
14, 159248, Note_on_c, 13, 53, 0
14, 159261, Note_on_c, 13, 56, 0
14, 159277, Note_on_c, 13, 60, 67
14, 159285, Note_on_c, 13, 60, 0
14, 159309, Note_on_c, 13, 65, 85
14, 159329, Note_on_c, 13, 65, 0
14, 159338, Note_on_c, 13, 67, 82
14, 159360, Control_c, 13, 64, 72
14, 159364, Control_c, 13, 64, 24
14, 159367, Control_c, 13, 64, 0
14, 159373, Note_on_c, 13, 44, 70
14, 159374, Note_on_c, 13, 68, 88
14, 159377, Note_on_c, 13, 65, 55
14, 159384, Note_on_c, 13, 65, 0
14, 159384, Note_on_c, 13, 67, 0
14, 159384, Control_c, 13, 64, 72
14, 159387, Control_c, 13, 64, 127
14, 159391, Note_on_c, 13, 68, 0
14, 159411, Note_on_c, 13, 72, 90
14, 159419, Note_on_c, 13, 44, 0
14, 159427, Note_on_c, 13, 72, 0
14, 159442, Note_on_c, 13, 77, 94
14, 159443, Note_on_c, 13, 53, 54
14, 159465, Note_on_c, 13, 77, 0
14, 159471, Note_on_c, 13, 79, 90
14, 159506, Note_on_c, 13, 80, 92
14, 159507, Note_on_c, 13, 60, 79
14, 159515, Note_on_c, 13, 79, 0
14, 159520, Note_on_c, 13, 80, 0
14, 159522, Note_on_c, 13, 60, 0
14, 159527, Note_on_c, 13, 53, 0
14, 159540, Note_on_c, 13, 84, 88
14, 159564, Note_on_c, 13, 84, 0
14, 159572, Note_on_c, 13, 89, 94
14, 159596, Note_on_c, 13, 89, 0
14, 159602, Note_on_c, 13, 92, 105
14, 159631, Note_on_c, 13, 92, 0
14, 159643, Note_on_c, 13, 91, 105
14, 159645, Note_on_c, 13, 83, 76
14, 159659, Note_on_c, 13, 43, 57
14, 159663, Control_c, 13, 64, 88
14, 159667, Control_c, 13, 64, 0
14, 159698, Control_c, 13, 64, 127
14, 159704, Note_on_c, 13, 91, 0
14, 159713, Note_on_c, 13, 83, 0
14, 159718, Note_on_c, 13, 43, 0
14, 159720, Note_on_c, 13, 55, 57
14, 159731, Note_on_c, 13, 55, 0
14, 159786, Note_on_c, 13, 65, 53
14, 159787, Note_on_c, 13, 83, 79
14, 159788, Note_on_c, 13, 77, 71
14, 159798, Note_on_c, 13, 65, 0
14, 159807, Note_on_c, 13, 77, 0
14, 159810, Note_on_c, 13, 83, 0
14, 159818, Note_on_c, 13, 80, 76
14, 159850, Note_on_c, 13, 79, 75
14, 159853, Note_on_c, 13, 80, 0
14, 159868, Note_on_c, 13, 79, 0
14, 159877, Note_on_c, 13, 71, 67
14, 159898, Note_on_c, 13, 71, 0
14, 159917, Note_on_c, 13, 85, 93
14, 159922, Note_on_c, 13, 76, 73
14, 159927, Note_on_c, 13, 48, 55
14, 159928, Note_on_c, 13, 76, 0
14, 159928, Control_c, 13, 64, 56
14, 159932, Control_c, 13, 64, 0
14, 159947, Note_on_c, 13, 85, 0
14, 159952, Note_on_c, 13, 80, 74
14, 159954, Control_c, 13, 64, 127
14, 159982, Note_on_c, 13, 79, 81
14, 159986, Note_on_c, 13, 80, 0
14, 159990, Note_on_c, 13, 55, 48
14, 159992, Note_on_c, 13, 48, 0
14, 160006, Note_on_c, 13, 79, 0
14, 160013, Note_on_c, 13, 70, 78
14, 160014, Note_on_c, 13, 55, 0
14, 160032, Note_on_c, 13, 70, 0
14, 160048, Note_on_c, 13, 84, 87
14, 160050, Note_on_c, 13, 64, 56
14, 160054, Note_on_c, 13, 76, 60
14, 160061, Note_on_c, 13, 76, 0
14, 160063, Note_on_c, 13, 64, 0
14, 160070, Note_on_c, 13, 84, 0
14, 160084, Note_on_c, 13, 80, 76
14, 160118, Note_on_c, 13, 79, 71
14, 160120, Note_on_c, 13, 80, 0
14, 160136, Note_on_c, 13, 79, 0
14, 160143, Note_on_c, 13, 70, 65
14, 160160, Note_on_c, 13, 70, 0
14, 160188, Note_on_c, 13, 77, 78
14, 160190, Note_on_c, 13, 68, 48
14, 160191, Control_c, 13, 64, 56
14, 160196, Control_c, 13, 64, 0
14, 160196, Note_on_c, 13, 41, 45
14, 160219, Control_c, 13, 64, 88
14, 160223, Control_c, 13, 64, 127
14, 160225, Note_on_c, 13, 77, 0
14, 160237, Note_on_c, 13, 68, 0
14, 160260, Note_on_c, 13, 48, 63
14, 160263, Note_on_c, 13, 41, 0
14, 160268, Note_on_c, 13, 48, 0
14, 160328, Note_on_c, 13, 53, 67
14, 160328, Note_on_c, 13, 56, 64
14, 160337, Note_on_c, 13, 53, 0
14, 160348, Note_on_c, 13, 56, 0
14, 160365, Note_on_c, 13, 60, 80
14, 160378, Note_on_c, 13, 60, 0
14, 160398, Note_on_c, 13, 65, 81
14, 160414, Note_on_c, 13, 65, 0
14, 160427, Note_on_c, 13, 67, 91
14, 160449, Control_c, 13, 64, 104
14, 160453, Control_c, 13, 64, 56
14, 160456, Control_c, 13, 64, 0
14, 160464, Note_on_c, 13, 67, 0
14, 160464, Note_on_c, 13, 68, 79
14, 160465, Note_on_c, 13, 44, 76
14, 160465, Note_on_c, 13, 65, 78
14, 160475, Note_on_c, 13, 65, 0
14, 160475, Control_c, 13, 64, 72
14, 160478, Control_c, 13, 64, 127
14, 160484, Note_on_c, 13, 68, 0
14, 160502, Note_on_c, 13, 72, 93
14, 160510, Note_on_c, 13, 44, 0
14, 160519, Note_on_c, 13, 72, 0
14, 160534, Note_on_c, 13, 77, 98
14, 160535, Note_on_c, 13, 53, 63
14, 160558, Note_on_c, 13, 77, 0
14, 160563, Note_on_c, 13, 79, 92
14, 160596, Note_on_c, 13, 80, 86
14, 160596, Note_on_c, 13, 77, 63
14, 160600, Note_on_c, 13, 60, 75
14, 160606, Note_on_c, 13, 79, 0
14, 160606, Note_on_c, 13, 53, 0
14, 160609, Note_on_c, 13, 77, 0
14, 160609, Note_on_c, 13, 80, 0
14, 160613, Note_on_c, 13, 60, 0
14, 160630, Note_on_c, 13, 84, 87
14, 160651, Note_on_c, 13, 84, 0
14, 160663, Note_on_c, 13, 89, 98
14, 160692, Note_on_c, 13, 89, 0
14, 160696, Note_on_c, 13, 92, 94
14, 160732, Note_on_c, 13, 92, 0
14, 160740, Note_on_c, 13, 91, 99
14, 160743, Note_on_c, 13, 87, 76
14, 160751, Control_c, 13, 64, 72
14, 160755, Control_c, 13, 64, 0
14, 160757, Note_on_c, 13, 48, 63
14, 160773, Note_on_c, 13, 48, 0
14, 160778, Control_c, 13, 64, 40
14, 160782, Control_c, 13, 64, 127
14, 160806, Note_on_c, 13, 87, 0
14, 160806, Note_on_c, 13, 91, 0
14, 160831, Note_on_c, 13, 55, 57
14, 160887, Note_on_c, 13, 55, 0
14, 160889, Note_on_c, 13, 79, 81
14, 160893, Note_on_c, 13, 63, 50
14, 160893, Note_on_c, 13, 67, 56
14, 160912, Note_on_c, 13, 79, 0
14, 160919, Note_on_c, 13, 80, 70
14, 160924, Note_on_c, 13, 63, 0
14, 160925, Note_on_c, 13, 67, 0
14, 160938, Note_on_c, 13, 80, 0
14, 160951, Note_on_c, 13, 79, 80
14, 160955, Note_on_c, 13, 55, 55
14, 160973, Note_on_c, 13, 79, 0
14, 160981, Note_on_c, 13, 72, 77
14, 161002, Note_on_c, 13, 72, 0
14, 161012, Note_on_c, 13, 55, 0
14, 161016, Note_on_c, 13, 77, 87
14, 161019, Note_on_c, 13, 74, 65
14, 161022, Note_on_c, 13, 62, 53
14, 161023, Note_on_c, 13, 65, 50
14, 161027, Note_on_c, 13, 74, 0
14, 161042, Note_on_c, 13, 77, 0
14, 161048, Note_on_c, 13, 65, 0
14, 161051, Note_on_c, 13, 79, 71
14, 161062, Note_on_c, 13, 62, 0
14, 161071, Note_on_c, 13, 79, 0
14, 161082, Note_on_c, 13, 77, 73
14, 161091, Note_on_c, 13, 55, 50
14, 161105, Note_on_c, 13, 77, 0
14, 161113, Note_on_c, 13, 71, 67
14, 161135, Note_on_c, 13, 71, 0
14, 161137, Note_on_c, 13, 55, 0
14, 161144, Note_on_c, 13, 75, 80
14, 161146, Control_c, 13, 64, 72
14, 161148, Note_on_c, 13, 72, 65
14, 161150, Control_c, 13, 64, 0
14, 161151, Note_on_c, 13, 60, 53
14, 161152, Note_on_c, 13, 63, 37
14, 161156, Note_on_c, 13, 72, 0
14, 161165, Control_c, 13, 64, 56
14, 161169, Control_c, 13, 64, 127
14, 161170, Note_on_c, 13, 75, 0
14, 161177, Note_on_c, 13, 77, 73
14, 161200, Note_on_c, 13, 75, 72
14, 161203, Note_on_c, 13, 77, 0
14, 161213, Note_on_c, 13, 55, 34
14, 161214, Note_on_c, 13, 63, 0
14, 161218, Note_on_c, 13, 60, 0
14, 161225, Note_on_c, 13, 75, 0
14, 161229, Note_on_c, 13, 55, 0
14, 161233, Note_on_c, 13, 67, 67
14, 161251, Note_on_c, 13, 67, 0
14, 161257, Note_on_c, 13, 69, 63
14, 161282, Note_on_c, 13, 69, 0
14, 161297, Note_on_c, 13, 74, 84
14, 161297, Note_on_c, 13, 70, 63
14, 161307, Control_c, 13, 64, 56
14, 161308, Note_on_c, 13, 43, 47
14, 161311, Control_c, 13, 64, 0
14, 161330, Control_c, 13, 64, 40
14, 161334, Control_c, 13, 64, 104
14, 161338, Note_on_c, 13, 74, 0
14, 161338, Control_c, 13, 64, 127
14, 161346, Note_on_c, 13, 70, 0
14, 161371, Note_on_c, 13, 50, 51
14, 161372, Note_on_c, 13, 43, 0
14, 161380, Note_on_c, 13, 50, 0
14, 161428, Note_on_c, 13, 58, 65
14, 161430, Note_on_c, 13, 55, 33
14, 161437, Note_on_c, 13, 55, 0
14, 161448, Note_on_c, 13, 58, 0
14, 161463, Note_on_c, 13, 62, 66
14, 161471, Note_on_c, 13, 62, 0
14, 161493, Note_on_c, 13, 67, 81
14, 161509, Note_on_c, 13, 67, 0
14, 161522, Note_on_c, 13, 69, 88
14, 161537, Control_c, 13, 64, 88
14, 161540, Control_c, 13, 64, 40
14, 161544, Control_c, 13, 64, 0
14, 161557, Note_on_c, 13, 70, 82
14, 161558, Note_on_c, 13, 46, 84
14, 161560, Note_on_c, 13, 67, 52
14, 161564, Control_c, 13, 64, 56
14, 161567, Note_on_c, 13, 67, 0
14, 161567, Control_c, 13, 64, 127
14, 161568, Note_on_c, 13, 69, 0
14, 161577, Note_on_c, 13, 70, 0
14, 161597, Note_on_c, 13, 74, 77
14, 161602, Note_on_c, 13, 46, 0
14, 161604, Note_on_c, 13, 74, 0
14, 161626, Note_on_c, 13, 79, 94
14, 161632, Note_on_c, 13, 55, 64
14, 161653, Note_on_c, 13, 79, 0
14, 161655, Note_on_c, 13, 81, 79
14, 161685, Note_on_c, 13, 55, 0
14, 161685, Note_on_c, 13, 79, 68
14, 161687, Note_on_c, 13, 82, 87
14, 161694, Note_on_c, 13, 62, 72
14, 161695, Note_on_c, 13, 81, 0
14, 161699, Note_on_c, 13, 82, 0
14, 161705, Note_on_c, 13, 79, 0
14, 161710, Note_on_c, 13, 62, 0
14, 161719, Note_on_c, 13, 86, 93
14, 161741, Note_on_c, 13, 86, 0
14, 161754, Note_on_c, 13, 91, 97
14, 161774, Note_on_c, 13, 91, 0
14, 161783, Note_on_c, 13, 94, 95
14, 161807, Note_on_c, 13, 94, 0
14, 161822, Note_on_c, 13, 93, 108
14, 161824, Note_on_c, 13, 89, 89
14, 161827, Control_c, 13, 64, 88
14, 161832, Note_on_c, 13, 50, 69
14, 161832, Control_c, 13, 64, 24
14, 161836, Control_c, 13, 64, 0
14, 161851, Note_on_c, 13, 50, 0
14, 161855, Control_c, 13, 64, 40
14, 161859, Control_c, 13, 64, 127
14, 161864, Note_on_c, 13, 89, 0
14, 161875, Note_on_c, 13, 93, 0
14, 161901, Note_on_c, 13, 57, 64
14, 161947, Note_on_c, 13, 57, 0
14, 161961, Note_on_c, 13, 81, 86
14, 161961, Note_on_c, 13, 77, 65
14, 161966, Note_on_c, 13, 69, 61
14, 161969, Note_on_c, 13, 65, 45
14, 161991, Note_on_c, 13, 77, 0
14, 161991, Note_on_c, 13, 81, 0
14, 161995, Note_on_c, 13, 82, 74
14, 161999, Note_on_c, 13, 69, 0
14, 162005, Note_on_c, 13, 65, 0
14, 162020, Note_on_c, 13, 82, 0
14, 162027, Note_on_c, 13, 81, 73
14, 162027, Note_on_c, 13, 57, 50
14, 162052, Note_on_c, 13, 81, 0
14, 162059, Note_on_c, 13, 74, 75
14, 162080, Note_on_c, 13, 74, 0
14, 162083, Note_on_c, 13, 57, 0
14, 162088, Note_on_c, 13, 79, 86
14, 162090, Note_on_c, 13, 67, 57
14, 162091, Note_on_c, 13, 64, 59
14, 162094, Note_on_c, 13, 76, 67
14, 162102, Note_on_c, 13, 76, 0
14, 162115, Note_on_c, 13, 79, 0
14, 162125, Note_on_c, 13, 81, 67
14, 162136, Note_on_c, 13, 64, 0
14, 162142, Note_on_c, 13, 67, 0
14, 162151, Note_on_c, 13, 79, 75
14, 162156, Note_on_c, 13, 81, 0
14, 162158, Note_on_c, 13, 57, 42
14, 162180, Note_on_c, 13, 79, 0
14, 162186, Note_on_c, 13, 73, 68
14, 162206, Note_on_c, 13, 73, 0
14, 162213, Note_on_c, 13, 57, 0
14, 162219, Note_on_c, 13, 77, 87
14, 162220, Note_on_c, 13, 74, 69
14, 162223, Note_on_c, 13, 65, 47
14, 162224, Note_on_c, 13, 62, 51
14, 162234, Note_on_c, 13, 74, 0
14, 162245, Note_on_c, 13, 77, 0
14, 162252, Note_on_c, 13, 79, 77
14, 162274, Note_on_c, 13, 77, 74
14, 162276, Note_on_c, 13, 79, 0
14, 162291, Note_on_c, 13, 57, 48
14, 162298, Note_on_c, 13, 77, 0
14, 162298, Note_on_c, 13, 62, 0
14, 162299, Note_on_c, 13, 65, 0
14, 162303, Note_on_c, 13, 69, 65
14, 162309, Note_on_c, 13, 57, 0
14, 162322, Note_on_c, 13, 69, 0
14, 162325, Note_on_c, 13, 71, 65
14, 162346, Note_on_c, 13, 71, 0
14, 162357, Control_c, 13, 64, 88
14, 162360, Note_on_c, 13, 76, 76
14, 162361, Control_c, 13, 64, 24
14, 162364, Note_on_c, 13, 72, 69
14, 162364, Control_c, 13, 64, 0
14, 162371, Note_on_c, 13, 45, 51
14, 162380, Note_on_c, 13, 45, 0
14, 162384, Control_c, 13, 64, 40
14, 162387, Control_c, 13, 64, 127
14, 162427, Note_on_c, 13, 72, 0
14, 162438, Note_on_c, 13, 76, 0
14, 162443, Note_on_c, 13, 57, 55
14, 162504, Note_on_c, 13, 57, 0
14, 162512, Note_on_c, 13, 84, 94
14, 162516, Note_on_c, 13, 81, 74
14, 162517, Note_on_c, 13, 64, 55
14, 162543, Note_on_c, 13, 64, 0
14, 162587, Note_on_c, 13, 57, 53
14, 162601, Note_on_c, 13, 57, 0
14, 162644, Control_c, 13, 64, 88
14, 162648, Control_c, 13, 64, 40
14, 162652, Control_c, 13, 64, 0
14, 162655, Note_on_c, 13, 50, 69
14, 162666, Note_on_c, 13, 50, 0
14, 162667, Control_c, 13, 64, 72
14, 162671, Control_c, 13, 64, 127
14, 162693, Note_on_c, 13, 81, 0
14, 162694, Note_on_c, 13, 76, 76
14, 162721, Note_on_c, 13, 76, 0
14, 162721, Note_on_c, 13, 57, 40
14, 162729, Note_on_c, 13, 77, 75
14, 162749, Note_on_c, 13, 77, 0
14, 162750, Note_on_c, 13, 84, 0
14, 162763, Note_on_c, 13, 74, 71
14, 162782, Note_on_c, 13, 57, 0
14, 162785, Note_on_c, 13, 74, 0
14, 162795, Note_on_c, 13, 84, 92
14, 162796, Note_on_c, 13, 78, 72
14, 162798, Note_on_c, 13, 62, 53
14, 162813, Note_on_c, 13, 78, 0
14, 162825, Note_on_c, 13, 84, 0
14, 162829, Note_on_c, 13, 86, 82
14, 162853, Note_on_c, 13, 86, 0
14, 162862, Note_on_c, 13, 84, 80
14, 162865, Note_on_c, 13, 69, 49
14, 162868, Note_on_c, 13, 62, 0
14, 162873, Note_on_c, 13, 69, 0
14, 162889, Note_on_c, 13, 84, 0
14, 162896, Note_on_c, 13, 74, 77
14, 162925, Note_on_c, 13, 74, 0
14, 162931, Note_on_c, 13, 83, 81
14, 162936, Note_on_c, 13, 79, 67
14, 162944, Note_on_c, 13, 43, 50
14, 162947, Control_c, 13, 64, 56
14, 162951, Control_c, 13, 64, 0
14, 162985, Control_c, 13, 64, 24
14, 162989, Control_c, 13, 64, 88
14, 162993, Control_c, 13, 64, 127
14, 163000, Note_on_c, 13, 43, 0
14, 163008, Note_on_c, 13, 55, 56
14, 163046, Note_on_c, 13, 83, 0
14, 163050, Note_on_c, 13, 79, 0
14, 163080, Note_on_c, 13, 82, 88
14, 163081, Note_on_c, 13, 55, 0
14, 163083, Note_on_c, 13, 79, 72
14, 163087, Note_on_c, 13, 62, 56
14, 163146, Note_on_c, 13, 62, 0
14, 163146, Note_on_c, 13, 79, 0
14, 163158, Note_on_c, 13, 55, 53
14, 163168, Note_on_c, 13, 55, 0
14, 163234, Control_c, 13, 64, 104
14, 163235, Note_on_c, 13, 48, 56
14, 163238, Control_c, 13, 64, 0
14, 163264, Control_c, 13, 64, 72
14, 163268, Control_c, 13, 64, 127
14, 163277, Note_on_c, 13, 74, 67
14, 163305, Note_on_c, 13, 74, 0
14, 163310, Note_on_c, 13, 82, 0
14, 163317, Note_on_c, 13, 75, 67
14, 163325, Note_on_c, 13, 55, 48
14, 163326, Note_on_c, 13, 48, 0
14, 163341, Note_on_c, 13, 55, 0
14, 163342, Note_on_c, 13, 75, 0
14, 163358, Note_on_c, 13, 70, 74
14, 163382, Note_on_c, 13, 70, 0
14, 163406, Note_on_c, 13, 82, 75
14, 163407, Note_on_c, 13, 60, 50
14, 163412, Note_on_c, 13, 76, 65
14, 163422, Note_on_c, 13, 76, 0
14, 163425, Note_on_c, 13, 60, 0
14, 163447, Note_on_c, 13, 82, 0
14, 163450, Note_on_c, 13, 84, 84
14, 163477, Note_on_c, 13, 84, 0
14, 163496, Note_on_c, 13, 82, 73
14, 163509, Note_on_c, 13, 67, 49
14, 163526, Note_on_c, 13, 67, 0
14, 163561, Note_on_c, 13, 70, 59
14, 163564, Note_on_c, 13, 82, 0
14, 163584, Note_on_c, 13, 70, 0
14, 163605, Control_c, 13, 64, 0
14, 163634, Control_c, 13, 64, 127
14, 163634, Note_on_c, 13, 82, 73
14, 163638, Note_on_c, 13, 68, 38
14, 163638, Control_c, 13, 64, 24
14, 163640, Note_on_c, 13, 77, 63
14, 163642, Note_on_c, 13, 49, 37
14, 163642, Control_c, 13, 64, 72
14, 163646, Control_c, 13, 64, 127
14, 163656, Note_on_c, 13, 68, 0
14, 163710, Note_on_c, 13, 77, 0
14, 163715, Note_on_c, 13, 80, 70
14, 163718, Note_on_c, 13, 82, 0
14, 163719, Note_on_c, 13, 49, 0
14, 163722, Note_on_c, 13, 56, 38
14, 163734, Note_on_c, 13, 80, 0
14, 163791, Note_on_c, 13, 56, 0
14, 163795, Note_on_c, 13, 94, 82
14, 163800, Note_on_c, 13, 65, 49
14, 163822, Note_on_c, 13, 94, 0
14, 163833, Note_on_c, 13, 80, 71
14, 163866, Note_on_c, 13, 80, 0
14, 163868, Note_on_c, 13, 92, 91
14, 163870, Note_on_c, 13, 65, 0
14, 163872, Note_on_c, 13, 56, 42
14, 163874, Note_on_c, 13, 85, 60
14, 163893, Note_on_c, 13, 85, 0
14, 163895, Note_on_c, 13, 92, 0
14, 163906, Note_on_c, 13, 91, 93
14, 163924, Note_on_c, 13, 56, 0
14, 163936, Control_c, 13, 64, 104
14, 163938, Note_on_c, 13, 91, 0
14, 163940, Control_c, 13, 64, 40
14, 163944, Note_on_c, 13, 90, 79
14, 163944, Control_c, 13, 64, 0
14, 163953, Note_on_c, 13, 49, 44
14, 163961, Control_c, 13, 64, 72
14, 163965, Control_c, 13, 64, 127
14, 163973, Note_on_c, 13, 90, 0
14, 163982, Note_on_c, 13, 77, 79
14, 164008, Note_on_c, 13, 77, 0
14, 164016, Note_on_c, 13, 49, 0
14, 164017, Note_on_c, 13, 80, 68
14, 164019, Note_on_c, 13, 89, 91
14, 164023, Note_on_c, 13, 56, 44
14, 164044, Note_on_c, 13, 89, 0
14, 164048, Note_on_c, 13, 80, 0
14, 164054, Note_on_c, 13, 87, 78
14, 164073, Note_on_c, 13, 56, 0
14, 164089, Note_on_c, 13, 87, 0
14, 164094, Note_on_c, 13, 85, 78
14, 164096, Note_on_c, 13, 68, 39
14, 164120, Note_on_c, 13, 85, 0
14, 164128, Note_on_c, 13, 77, 78
14, 164151, Note_on_c, 13, 77, 0
14, 164165, Note_on_c, 13, 68, 0
14, 164165, Note_on_c, 13, 84, 79
14, 164167, Note_on_c, 13, 77, 63
14, 164168, Note_on_c, 13, 56, 34
14, 164177, Note_on_c, 13, 77, 0
14, 164183, Note_on_c, 13, 84, 0
14, 164184, Note_on_c, 13, 56, 0
14, 164202, Note_on_c, 13, 82, 84
14, 164226, Note_on_c, 13, 82, 0
14, 164246, Note_on_c, 13, 82, 79
14, 164247, Control_c, 13, 64, 88
14, 164249, Note_on_c, 13, 78, 67
14, 164251, Control_c, 13, 64, 24
14, 164255, Control_c, 13, 64, 0
14, 164257, Note_on_c, 13, 44, 43
14, 164275, Note_on_c, 13, 78, 0
14, 164277, Note_on_c, 13, 44, 0
14, 164279, Note_on_c, 13, 82, 0
14, 164280, Control_c, 13, 64, 56
14, 164284, Note_on_c, 13, 72, 72
14, 164284, Control_c, 13, 64, 127
14, 164312, Note_on_c, 13, 72, 0
14, 164321, Note_on_c, 13, 56, 43
14, 164322, Note_on_c, 13, 80, 73
14, 164340, Note_on_c, 13, 80, 0
14, 164356, Note_on_c, 13, 90, 85
14, 164371, Note_on_c, 13, 90, 0
14, 164394, Note_on_c, 13, 56, 0
14, 164394, Note_on_c, 13, 82, 76
14, 164401, Note_on_c, 13, 66, 30
14, 164404, Note_on_c, 13, 63, 31
14, 164419, Note_on_c, 13, 82, 0
14, 164433, Note_on_c, 13, 72, 66
14, 164454, Note_on_c, 13, 72, 0
14, 164466, Note_on_c, 13, 66, 0
14, 164467, Note_on_c, 13, 56, 45
14, 164468, Note_on_c, 13, 63, 0
14, 164470, Note_on_c, 13, 80, 78
14, 164479, Note_on_c, 13, 56, 0
14, 164488, Note_on_c, 13, 80, 0
14, 164504, Note_on_c, 13, 89, 87
14, 164518, Note_on_c, 13, 89, 0
14, 164534, Control_c, 13, 64, 56
14, 164538, Control_c, 13, 64, 0
14, 164542, Note_on_c, 13, 82, 76
14, 164544, Note_on_c, 13, 78, 70
14, 164544, Note_on_c, 13, 44, 52
14, 164558, Control_c, 13, 64, 40
14, 164561, Control_c, 13, 64, 127
14, 164562, Note_on_c, 13, 44, 0
14, 164563, Note_on_c, 13, 78, 0
14, 164564, Note_on_c, 13, 82, 0
14, 164578, Note_on_c, 13, 72, 73
14, 164600, Note_on_c, 13, 72, 0
14, 164610, Note_on_c, 13, 56, 40
14, 164615, Note_on_c, 13, 80, 73
14, 164631, Note_on_c, 13, 80, 0
14, 164647, Note_on_c, 13, 89, 81
14, 164661, Note_on_c, 13, 89, 0
14, 164679, Note_on_c, 13, 56, 0
14, 164685, Note_on_c, 13, 82, 72
14, 164687, Note_on_c, 13, 78, 59
14, 164691, Note_on_c, 13, 68, 45
14, 164708, Note_on_c, 13, 78, 0
14, 164709, Note_on_c, 13, 82, 0
14, 164723, Note_on_c, 13, 72, 61
14, 164742, Note_on_c, 13, 72, 0
14, 164759, Note_on_c, 13, 56, 43
14, 164760, Note_on_c, 13, 80, 70
14, 164762, Note_on_c, 13, 68, 0
14, 164774, Note_on_c, 13, 56, 0
14, 164780, Note_on_c, 13, 80, 0
14, 164793, Note_on_c, 13, 87, 78
14, 164816, Note_on_c, 13, 87, 0
14, 164832, Control_c, 13, 64, 104
14, 164834, Note_on_c, 13, 85, 68
14, 164836, Control_c, 13, 64, 72
14, 164838, Note_on_c, 13, 77, 71
14, 164840, Control_c, 13, 64, 0
14, 164844, Note_on_c, 13, 49, 48
14, 164859, Note_on_c, 13, 77, 0
14, 164867, Note_on_c, 13, 85, 0
14, 164868, Control_c, 13, 64, 72
14, 164872, Control_c, 13, 64, 127
14, 164874, Note_on_c, 13, 78, 66
14, 164900, Note_on_c, 13, 78, 0
14, 164909, Note_on_c, 13, 79, 72
14, 164915, Note_on_c, 13, 49, 0
14, 164922, Note_on_c, 13, 56, 30
14, 164933, Note_on_c, 13, 79, 0
14, 164937, Note_on_c, 13, 80, 71
14, 164958, Note_on_c, 13, 80, 0
14, 164964, Note_on_c, 13, 80, 76
14, 164990, Note_on_c, 13, 56, 0
14, 164997, Note_on_c, 13, 65, 47
14, 165000, Note_on_c, 13, 80, 0
14, 165008, Note_on_c, 13, 94, 97
14, 165037, Note_on_c, 13, 94, 0
14, 165043, Note_on_c, 13, 80, 73
14, 165076, Note_on_c, 13, 80, 0
14, 165078, Note_on_c, 13, 92, 94
14, 165082, Note_on_c, 13, 85, 68
14, 165083, Note_on_c, 13, 56, 46
14, 165084, Note_on_c, 13, 65, 0
14, 165087, Note_on_c, 13, 80, 19
14, 165102, Note_on_c, 13, 92, 0
14, 165106, Note_on_c, 13, 85, 0
14, 165114, Note_on_c, 13, 80, 0
14, 165115, Note_on_c, 13, 92, 36
14, 165116, Note_on_c, 13, 91, 101
14, 165137, Note_on_c, 13, 92, 0
14, 165146, Note_on_c, 13, 91, 0
14, 165149, Note_on_c, 13, 56, 0
14, 165153, Note_on_c, 13, 90, 85
14, 165155, Control_c, 13, 64, 72
14, 165159, Control_c, 13, 64, 0
14, 165161, Note_on_c, 13, 49, 49
14, 165179, Control_c, 13, 64, 104
14, 165182, Note_on_c, 13, 90, 0
14, 165182, Control_c, 13, 64, 127
14, 165188, Note_on_c, 13, 77, 84
14, 165220, Note_on_c, 13, 77, 0
14, 165224, Note_on_c, 13, 89, 97
14, 165225, Note_on_c, 13, 49, 0
14, 165226, Note_on_c, 13, 80, 70
14, 165232, Note_on_c, 13, 56, 39
14, 165252, Note_on_c, 13, 89, 0
14, 165258, Note_on_c, 13, 80, 0
14, 165258, Note_on_c, 13, 87, 80
14, 165283, Note_on_c, 13, 56, 0
14, 165298, Note_on_c, 13, 87, 0
14, 165298, Note_on_c, 13, 85, 86
14, 165306, Note_on_c, 13, 68, 36
14, 165322, Note_on_c, 13, 85, 0
14, 165331, Note_on_c, 13, 77, 77
14, 165355, Note_on_c, 13, 77, 0
14, 165370, Note_on_c, 13, 84, 82
14, 165372, Note_on_c, 13, 77, 60
14, 165374, Note_on_c, 13, 68, 0
14, 165378, Note_on_c, 13, 56, 35
14, 165382, Note_on_c, 13, 77, 0
14, 165389, Note_on_c, 13, 84, 0
14, 165391, Note_on_c, 13, 56, 0
14, 165403, Note_on_c, 13, 82, 86
14, 165426, Note_on_c, 13, 82, 0
14, 165441, Control_c, 13, 64, 104
14, 165444, Note_on_c, 13, 82, 75
14, 165445, Control_c, 13, 64, 40
14, 165448, Note_on_c, 13, 78, 70
14, 165449, Control_c, 13, 64, 0
14, 165453, Note_on_c, 13, 44, 51
14, 165473, Note_on_c, 13, 78, 0
14, 165473, Control_c, 13, 64, 88
14, 165477, Note_on_c, 13, 44, 0
14, 165477, Control_c, 13, 64, 127
14, 165482, Note_on_c, 13, 72, 78
14, 165509, Note_on_c, 13, 72, 0
14, 165517, Note_on_c, 13, 80, 84
14, 165519, Note_on_c, 13, 82, 0
14, 165522, Note_on_c, 13, 56, 40
14, 165535, Note_on_c, 13, 80, 0
14, 165552, Note_on_c, 13, 90, 86
14, 165566, Note_on_c, 13, 90, 0
14, 165589, Note_on_c, 13, 82, 80
14, 165592, Note_on_c, 13, 78, 65
14, 165593, Note_on_c, 13, 56, 0
14, 165598, Note_on_c, 13, 66, 38
14, 165601, Note_on_c, 13, 63, 35
14, 165614, Note_on_c, 13, 78, 0
14, 165616, Note_on_c, 13, 82, 0
14, 165626, Note_on_c, 13, 72, 72
14, 165652, Note_on_c, 13, 66, 0
14, 165653, Note_on_c, 13, 63, 0
14, 165654, Note_on_c, 13, 72, 0
14, 165658, Note_on_c, 13, 56, 35
14, 165662, Note_on_c, 13, 80, 72
14, 165666, Note_on_c, 13, 56, 0
14, 165682, Note_on_c, 13, 80, 0
14, 165695, Note_on_c, 13, 89, 87
14, 165710, Note_on_c, 13, 89, 0
14, 165724, Control_c, 13, 64, 104
14, 165728, Control_c, 13, 64, 56
14, 165732, Control_c, 13, 64, 0
14, 165735, Note_on_c, 13, 82, 78
14, 165735, Note_on_c, 13, 44, 50
14, 165737, Note_on_c, 13, 78, 70
14, 165744, Control_c, 13, 64, 40
14, 165748, Control_c, 13, 64, 104
14, 165752, Control_c, 13, 64, 127
14, 165756, Note_on_c, 13, 44, 0
14, 165757, Note_on_c, 13, 78, 0
14, 165761, Note_on_c, 13, 82, 0
14, 165771, Note_on_c, 13, 72, 71
14, 165794, Note_on_c, 13, 72, 0
14, 165800, Note_on_c, 13, 56, 37
14, 165807, Note_on_c, 13, 80, 74
14, 165825, Note_on_c, 13, 80, 0
14, 165840, Note_on_c, 13, 89, 84
14, 165854, Note_on_c, 13, 89, 0
14, 165866, Note_on_c, 13, 56, 0
14, 165879, Note_on_c, 13, 68, 60
14, 165879, Note_on_c, 13, 82, 74
14, 165882, Note_on_c, 13, 78, 65
14, 165901, Note_on_c, 13, 78, 0
14, 165904, Note_on_c, 13, 82, 0
14, 165914, Note_on_c, 13, 72, 72
14, 165939, Note_on_c, 13, 72, 0
14, 165951, Note_on_c, 13, 68, 0
14, 165953, Note_on_c, 13, 80, 71
14, 165954, Note_on_c, 13, 56, 42
14, 165964, Note_on_c, 13, 56, 0
14, 165970, Note_on_c, 13, 80, 0
14, 165986, Note_on_c, 13, 87, 85
14, 166014, Control_c, 13, 64, 88
14, 166015, Note_on_c, 13, 87, 0
14, 166018, Control_c, 13, 64, 0
14, 166032, Note_on_c, 13, 85, 89
14, 166038, Control_c, 13, 64, 56
14, 166038, Note_on_c, 13, 46, 48
14, 166042, Control_c, 13, 64, 127
14, 166052, Note_on_c, 13, 85, 0
14, 166074, Note_on_c, 13, 78, 85
14, 166081, Note_on_c, 13, 73, 48
14, 166090, Note_on_c, 13, 73, 0
14, 166093, Note_on_c, 13, 78, 0
14, 166104, Note_on_c, 13, 46, 0
14, 166114, Note_on_c, 13, 70, 79
14, 166117, Note_on_c, 13, 54, 39
14, 166133, Note_on_c, 13, 70, 0
14, 166148, Note_on_c, 13, 68, 77
14, 166176, Note_on_c, 13, 68, 0
14, 166186, Note_on_c, 13, 66, 86
14, 166190, Note_on_c, 13, 54, 0
14, 166193, Note_on_c, 13, 61, 49
14, 166201, Note_on_c, 13, 66, 0
14, 166216, Note_on_c, 13, 61, 0
14, 166226, Note_on_c, 13, 73, 76
14, 166227, Note_on_c, 13, 78, 80
14, 166243, Note_on_c, 13, 73, 0
14, 166248, Note_on_c, 13, 78, 0
14, 166262, Note_on_c, 13, 46, 52
14, 166262, Note_on_c, 13, 80, 90
14, 166283, Note_on_c, 13, 46, 0
14, 166284, Note_on_c, 13, 80, 0
14, 166294, Note_on_c, 13, 78, 94
14, 166323, Note_on_c, 13, 78, 0
14, 166336, Control_c, 13, 64, 72
14, 166338, Note_on_c, 13, 85, 92
14, 166340, Control_c, 13, 64, 0
14, 166350, Note_on_c, 13, 44, 46
14, 166377, Note_on_c, 13, 85, 0
14, 166377, Control_c, 13, 64, 127
14, 166379, Note_on_c, 13, 78, 72
14, 166381, Note_on_c, 13, 73, 57
14, 166393, Note_on_c, 13, 78, 0
14, 166400, Note_on_c, 13, 73, 0
14, 166400, Note_on_c, 13, 44, 0
14, 166419, Note_on_c, 13, 68, 73
14, 166420, Note_on_c, 13, 53, 29
14, 166450, Note_on_c, 13, 66, 76
14, 166474, Note_on_c, 13, 66, 0
14, 166476, Note_on_c, 13, 68, 0
14, 166477, Note_on_c, 13, 53, 0
14, 166484, Note_on_c, 13, 61, 45
14, 166485, Note_on_c, 13, 65, 80
14, 166495, Note_on_c, 13, 65, 0
14, 166497, Note_on_c, 13, 61, 0
14, 166522, Note_on_c, 13, 77, 92
14, 166523, Note_on_c, 13, 73, 72
14, 166538, Note_on_c, 13, 73, 0
14, 166550, Note_on_c, 13, 77, 0
14, 166552, Note_on_c, 13, 44, 46
14, 166557, Note_on_c, 13, 78, 80
14, 166574, Note_on_c, 13, 44, 0
14, 166578, Note_on_c, 13, 78, 0
14, 166590, Note_on_c, 13, 77, 90
14, 166603, Control_c, 13, 64, 88
14, 166605, Note_on_c, 13, 77, 0
14, 166607, Control_c, 13, 64, 0
14, 166627, Control_c, 13, 64, 104
14, 166628, Note_on_c, 13, 85, 81
14, 166631, Control_c, 13, 64, 127
14, 166638, Note_on_c, 13, 43, 51
14, 166642, Note_on_c, 13, 85, 0
14, 166666, Note_on_c, 13, 77, 87
14, 166667, Note_on_c, 13, 73, 65
14, 166682, Note_on_c, 13, 77, 0
14, 166685, Note_on_c, 13, 73, 0
14, 166696, Note_on_c, 13, 43, 0
14, 166702, Note_on_c, 13, 65, 77
14, 166709, Note_on_c, 13, 51, 48
14, 166725, Note_on_c, 13, 65, 0
14, 166737, Note_on_c, 13, 63, 79
14, 166754, Note_on_c, 13, 63, 0
14, 166766, Note_on_c, 13, 51, 0
14, 166777, Note_on_c, 13, 77, 92
14, 166778, Note_on_c, 13, 61, 49
14, 166795, Note_on_c, 13, 61, 0
14, 166797, Note_on_c, 13, 77, 0
14, 166812, Note_on_c, 13, 75, 81
14, 166820, Note_on_c, 13, 73, 44
14, 166837, Note_on_c, 13, 75, 0
14, 166839, Note_on_c, 13, 73, 0
14, 166850, Note_on_c, 13, 43, 56
14, 166851, Note_on_c, 13, 65, 73
14, 166859, Note_on_c, 13, 43, 0
14, 166876, Note_on_c, 13, 65, 0
14, 166883, Note_on_c, 13, 63, 78
14, 166901, Note_on_c, 13, 63, 0
14, 166921, Control_c, 13, 64, 72
14, 166925, Control_c, 13, 64, 0
14, 166926, Note_on_c, 13, 77, 88
14, 166930, Note_on_c, 13, 44, 52
14, 166948, Note_on_c, 13, 77, 0
14, 166950, Control_c, 13, 64, 88
14, 166954, Control_c, 13, 64, 127
14, 166963, Note_on_c, 13, 75, 75
14, 166965, Note_on_c, 13, 72, 71
14, 166985, Note_on_c, 13, 72, 0
14, 166988, Note_on_c, 13, 75, 0
14, 166991, Note_on_c, 13, 44, 0
14, 166999, Note_on_c, 13, 65, 63
14, 167002, Note_on_c, 13, 51, 47
14, 167029, Note_on_c, 13, 63, 74
14, 167039, Note_on_c, 13, 65, 0
14, 167047, Note_on_c, 13, 63, 0
14, 167058, Note_on_c, 13, 51, 0
14, 167070, Note_on_c, 13, 77, 84
14, 167070, Note_on_c, 13, 60, 63
14, 167082, Note_on_c, 13, 60, 0
14, 167088, Note_on_c, 13, 77, 0
14, 167102, Note_on_c, 13, 75, 76
14, 167130, Note_on_c, 13, 75, 0
14, 167140, Note_on_c, 13, 68, 85
14, 167140, Note_on_c, 13, 44, 57
14, 167155, Note_on_c, 13, 44, 0
14, 167164, Note_on_c, 13, 68, 0
14, 167174, Note_on_c, 13, 80, 91
14, 167201, Note_on_c, 13, 80, 0
14, 167220, Control_c, 13, 64, 104
14, 167223, Note_on_c, 13, 85, 96
14, 167224, Control_c, 13, 64, 24
14, 167225, Note_on_c, 13, 46, 48
14, 167228, Control_c, 13, 64, 0
14, 167248, Control_c, 13, 64, 127
14, 167256, Note_on_c, 13, 85, 0
14, 167260, Note_on_c, 13, 80, 78
14, 167263, Note_on_c, 13, 73, 70
14, 167275, Note_on_c, 13, 80, 0
14, 167283, Note_on_c, 13, 73, 0
14, 167285, Note_on_c, 13, 46, 0
14, 167300, Note_on_c, 13, 54, 44
14, 167300, Note_on_c, 13, 70, 80
14, 167316, Note_on_c, 13, 70, 0
14, 167332, Note_on_c, 13, 68, 78
14, 167355, Note_on_c, 13, 68, 0
14, 167362, Note_on_c, 13, 54, 0
14, 167368, Note_on_c, 13, 66, 81
14, 167372, Note_on_c, 13, 61, 54
14, 167382, Note_on_c, 13, 66, 0
14, 167399, Note_on_c, 13, 61, 0
14, 167407, Note_on_c, 13, 73, 71
14, 167407, Note_on_c, 13, 78, 74
14, 167422, Note_on_c, 13, 73, 0
14, 167424, Note_on_c, 13, 78, 0
14, 167438, Note_on_c, 13, 46, 52
14, 167438, Note_on_c, 13, 80, 85
14, 167459, Note_on_c, 13, 46, 0
14, 167461, Note_on_c, 13, 80, 0
14, 167474, Note_on_c, 13, 78, 90
14, 167499, Note_on_c, 13, 78, 0
14, 167510, Control_c, 13, 64, 104
14, 167514, Note_on_c, 13, 85, 85
14, 167514, Control_c, 13, 64, 0
14, 167521, Note_on_c, 13, 44, 48
14, 167550, Note_on_c, 13, 85, 0
14, 167554, Note_on_c, 13, 73, 66
14, 167554, Note_on_c, 13, 78, 68
14, 167554, Control_c, 13, 64, 127
14, 167563, Note_on_c, 13, 78, 0
14, 167569, Note_on_c, 13, 73, 0
14, 167571, Note_on_c, 13, 44, 0
14, 167591, Note_on_c, 13, 68, 74
14, 167594, Note_on_c, 13, 53, 33
14, 167608, Note_on_c, 13, 68, 0
14, 167623, Note_on_c, 13, 66, 73
14, 167647, Note_on_c, 13, 66, 0
14, 167654, Note_on_c, 13, 53, 0
14, 167660, Note_on_c, 13, 65, 68
14, 167660, Note_on_c, 13, 61, 58
14, 167670, Note_on_c, 13, 65, 0
14, 167676, Note_on_c, 13, 61, 0
14, 167693, Note_on_c, 13, 77, 86
14, 167696, Note_on_c, 13, 73, 58
14, 167709, Note_on_c, 13, 73, 0
14, 167719, Note_on_c, 13, 77, 0
14, 167728, Note_on_c, 13, 78, 80
14, 167732, Note_on_c, 13, 44, 45
14, 167751, Note_on_c, 13, 78, 0
14, 167753, Note_on_c, 13, 44, 0
14, 167762, Note_on_c, 13, 77, 86
14, 167777, Note_on_c, 13, 77, 0
14, 167784, Control_c, 13, 64, 72
14, 167788, Control_c, 13, 64, 0
14, 167802, Note_on_c, 13, 85, 86
14, 167805, Control_c, 13, 64, 56
14, 167809, Control_c, 13, 64, 127
14, 167815, Note_on_c, 13, 43, 48
14, 167818, Note_on_c, 13, 85, 0
14, 167842, Note_on_c, 13, 77, 85
14, 167848, Note_on_c, 13, 73, 53
14, 167857, Note_on_c, 13, 73, 0
14, 167863, Note_on_c, 13, 77, 0
14, 167873, Note_on_c, 13, 43, 0
14, 167878, Note_on_c, 13, 65, 77
14, 167883, Note_on_c, 13, 51, 56
14, 167900, Note_on_c, 13, 65, 0
14, 167908, Note_on_c, 13, 63, 77
14, 167926, Note_on_c, 13, 63, 0
14, 167935, Note_on_c, 13, 51, 0
14, 167947, Note_on_c, 13, 61, 55
14, 167949, Note_on_c, 13, 77, 93
14, 167966, Note_on_c, 13, 77, 0
14, 167966, Note_on_c, 13, 61, 0
14, 167982, Note_on_c, 13, 75, 81
14, 168005, Note_on_c, 13, 75, 0
14, 168021, Note_on_c, 13, 65, 81
14, 168025, Note_on_c, 13, 43, 58
14, 168039, Note_on_c, 13, 43, 0
14, 168046, Note_on_c, 13, 65, 0
14, 168055, Note_on_c, 13, 63, 77
14, 168073, Note_on_c, 13, 63, 0
14, 168095, Control_c, 13, 64, 56
14, 168098, Note_on_c, 13, 77, 86
14, 168098, Note_on_c, 13, 44, 56
14, 168099, Control_c, 13, 64, 0
14, 168117, Note_on_c, 13, 77, 0
14, 168119, Control_c, 13, 64, 40
14, 168123, Control_c, 13, 64, 127
14, 168128, Note_on_c, 13, 75, 80
14, 168134, Note_on_c, 13, 72, 67
14, 168150, Note_on_c, 13, 72, 0
14, 168154, Note_on_c, 13, 75, 0
14, 168154, Note_on_c, 13, 44, 0
14, 168164, Note_on_c, 13, 65, 64
14, 168166, Note_on_c, 13, 51, 53
14, 168197, Note_on_c, 13, 63, 74
14, 168206, Note_on_c, 13, 65, 0
14, 168210, Note_on_c, 13, 63, 0
14, 168218, Note_on_c, 13, 51, 0
14, 168233, Note_on_c, 13, 60, 47
14, 168237, Note_on_c, 13, 77, 82
14, 168252, Note_on_c, 13, 60, 0
14, 168259, Note_on_c, 13, 77, 0
14, 168272, Note_on_c, 13, 72, 64
14, 168273, Note_on_c, 13, 75, 74
14, 168286, Note_on_c, 13, 72, 0
14, 168301, Note_on_c, 13, 75, 0
14, 168309, Note_on_c, 13, 68, 79
14, 168312, Note_on_c, 13, 44, 58
14, 168328, Note_on_c, 13, 44, 0
14, 168338, Note_on_c, 13, 68, 0
14, 168344, Note_on_c, 13, 80, 92
14, 168367, Note_on_c, 13, 80, 0
14, 168384, Note_on_c, 13, 80, 84
14, 168388, Note_on_c, 13, 73, 66
14, 168388, Note_on_c, 13, 51, 61
14, 168388, Note_on_c, 13, 75, 63
14, 168394, Control_c, 13, 64, 56
14, 168398, Control_c, 13, 64, 0
14, 168421, Control_c, 13, 64, 72
14, 168424, Note_on_c, 13, 58, 56
14, 168426, Control_c, 13, 64, 127
14, 168434, Note_on_c, 13, 51, 0
14, 168450, Note_on_c, 13, 58, 0
14, 168460, Note_on_c, 13, 57, 54
14, 168486, Note_on_c, 13, 57, 0
14, 168492, Note_on_c, 13, 58, 63
14, 168497, Note_on_c, 13, 80, 0
14, 168522, Note_on_c, 13, 73, 0
14, 168526, Note_on_c, 13, 58, 0
14, 168528, Note_on_c, 13, 79, 90
14, 168533, Note_on_c, 13, 60, 73
14, 168558, Note_on_c, 13, 60, 0
14, 168563, Note_on_c, 13, 61, 72
14, 168597, Note_on_c, 13, 79, 0
14, 168603, Note_on_c, 13, 75, 0
14, 168604, Note_on_c, 13, 77, 90
14, 168609, Note_on_c, 13, 53, 47
14, 168617, Note_on_c, 13, 61, 0
14, 168638, Note_on_c, 13, 53, 0
14, 168642, Note_on_c, 13, 55, 65
14, 168644, Note_on_c, 13, 77, 0
14, 168665, Note_on_c, 13, 55, 0
14, 168682, Note_on_c, 13, 77, 97
14, 168685, Note_on_c, 13, 56, 66
14, 168688, Note_on_c, 13, 72, 56
14, 168696, Control_c, 13, 64, 104
14, 168698, Note_on_c, 13, 72, 0
14, 168700, Control_c, 13, 64, 24
14, 168704, Control_c, 13, 64, 0
14, 168708, Note_on_c, 13, 56, 0
14, 168712, Note_on_c, 13, 72, 22
14, 168723, Note_on_c, 13, 44, 61
14, 168728, Control_c, 13, 64, 88
14, 168732, Control_c, 13, 64, 127
14, 168758, Note_on_c, 13, 44, 0
14, 168761, Note_on_c, 13, 51, 60
14, 168785, Note_on_c, 13, 51, 0
14, 168794, Note_on_c, 13, 56, 60
14, 168818, Note_on_c, 13, 56, 0
14, 168830, Note_on_c, 13, 60, 70
14, 168834, Note_on_c, 13, 75, 81
14, 168844, Note_on_c, 13, 77, 0
14, 168845, Note_on_c, 13, 72, 0
14, 168858, Note_on_c, 13, 60, 0
14, 168870, Note_on_c, 13, 61, 59
14, 168901, Note_on_c, 13, 61, 0
14, 168908, Note_on_c, 13, 63, 57
14, 168924, Note_on_c, 13, 75, 0
14, 168934, Note_on_c, 13, 63, 0
14, 168944, Note_on_c, 13, 80, 96
14, 168963, Note_on_c, 13, 80, 0
14, 168980, Note_on_c, 13, 80, 89
14, 168982, Note_on_c, 13, 51, 80
14, 168983, Note_on_c, 13, 73, 74
14, 168984, Note_on_c, 13, 75, 73
14, 168986, Control_c, 13, 64, 40
14, 168990, Control_c, 13, 64, 0
14, 169015, Control_c, 13, 64, 127
14, 169019, Note_on_c, 13, 58, 57
14, 169021, Note_on_c, 13, 51, 0
14, 169047, Note_on_c, 13, 58, 0
14, 169051, Note_on_c, 13, 57, 71
14, 169054, Note_on_c, 13, 75, 0
14, 169061, Note_on_c, 13, 80, 0
14, 169081, Note_on_c, 13, 57, 0
14, 169084, Note_on_c, 13, 82, 72
14, 169086, Note_on_c, 13, 58, 60
14, 169097, Note_on_c, 13, 80, 81
14, 169111, Note_on_c, 13, 82, 0
14, 169118, Note_on_c, 13, 58, 0
14, 169118, Note_on_c, 13, 79, 96
14, 169127, Note_on_c, 13, 60, 63
14, 169129, Note_on_c, 13, 80, 0
14, 169153, Note_on_c, 13, 60, 0
14, 169159, Note_on_c, 13, 61, 59
14, 169199, Note_on_c, 13, 53, 69
14, 169207, Note_on_c, 13, 61, 0
14, 169217, Note_on_c, 13, 79, 0
14, 169230, Note_on_c, 13, 77, 94
14, 169234, Note_on_c, 13, 53, 0
14, 169234, Note_on_c, 13, 55, 77
14, 169238, Note_on_c, 13, 73, 0
14, 169246, Note_on_c, 13, 77, 0
14, 169256, Note_on_c, 13, 55, 0
14, 169269, Note_on_c, 13, 77, 98
14, 169273, Control_c, 13, 64, 72
14, 169273, Note_on_c, 13, 72, 67
14, 169274, Note_on_c, 13, 56, 65
14, 169277, Control_c, 13, 64, 0
14, 169294, Note_on_c, 13, 56, 0
14, 169301, Control_c, 13, 64, 88
14, 169305, Control_c, 13, 64, 127
14, 169308, Note_on_c, 13, 44, 58
14, 169338, Note_on_c, 13, 44, 0
14, 169344, Note_on_c, 13, 51, 68
14, 169368, Note_on_c, 13, 51, 0
14, 169378, Note_on_c, 13, 56, 67
14, 169403, Note_on_c, 13, 56, 0
14, 169409, Note_on_c, 13, 77, 0
14, 169415, Note_on_c, 13, 60, 69
14, 169416, Note_on_c, 13, 75, 89
14, 169430, Note_on_c, 13, 72, 0
14, 169443, Note_on_c, 13, 60, 0
14, 169450, Note_on_c, 13, 61, 60
14, 169478, Note_on_c, 13, 61, 0
14, 169482, Note_on_c, 13, 63, 71
14, 169503, Note_on_c, 13, 75, 0
14, 169513, Note_on_c, 13, 63, 0
14, 169515, Note_on_c, 13, 75, 88
14, 169515, Note_on_c, 13, 65, 78
14, 169537, Note_on_c, 13, 75, 0
14, 169548, Note_on_c, 13, 65, 0
14, 169556, Note_on_c, 13, 82, 98
14, 169557, Note_on_c, 13, 75, 80
14, 169559, Note_on_c, 13, 72, 82
14, 169559, Note_on_c, 13, 66, 65
14, 169559, Control_c, 13, 64, 56
14, 169560, Note_on_c, 13, 70, 67
14, 169563, Control_c, 13, 64, 0
14, 169584, Note_on_c, 13, 66, 0
14, 169592, Control_c, 13, 64, 127
14, 169592, Note_on_c, 13, 65, 72
14, 169622, Note_on_c, 13, 65, 0
14, 169627, Note_on_c, 13, 82, 0
14, 169630, Note_on_c, 13, 63, 68
14, 169638, Note_on_c, 13, 70, 0
14, 169658, Note_on_c, 13, 63, 0
14, 169663, Note_on_c, 13, 61, 74
14, 169683, Note_on_c, 13, 72, 0
14, 169686, Note_on_c, 13, 61, 0
14, 169688, Note_on_c, 13, 75, 0
14, 169699, Note_on_c, 13, 81, 93
14, 169701, Note_on_c, 13, 60, 73
14, 169702, Note_on_c, 13, 69, 80
14, 169703, Note_on_c, 13, 75, 72
14, 169705, Note_on_c, 13, 72, 68
14, 169730, Note_on_c, 13, 60, 0
14, 169737, Note_on_c, 13, 58, 66
14, 169747, Note_on_c, 13, 81, 0
14, 169748, Note_on_c, 13, 69, 0
14, 169769, Note_on_c, 13, 58, 0
14, 169770, Note_on_c, 13, 57, 76
14, 169786, Note_on_c, 13, 72, 0
14, 169794, Note_on_c, 13, 75, 0
14, 169808, Note_on_c, 13, 70, 79
14, 169808, Note_on_c, 13, 82, 94
14, 169810, Note_on_c, 13, 57, 0
14, 169810, Note_on_c, 13, 54, 65
14, 169822, Note_on_c, 13, 70, 0
14, 169828, Note_on_c, 13, 82, 0
14, 169829, Note_on_c, 13, 54, 0
14, 169842, Control_c, 13, 64, 104
14, 169842, Note_on_c, 13, 84, 98
14, 169843, Note_on_c, 13, 72, 97
14, 169843, Note_on_c, 13, 81, 81
14, 169843, Note_on_c, 13, 53, 78
14, 169843, Note_on_c, 13, 77, 81
14, 169846, Control_c, 13, 64, 0
14, 169846, Note_on_c, 13, 80, 46
14, 169854, Note_on_c, 13, 80, 0
14, 169865, Control_c, 13, 64, 72
14, 169869, Note_on_c, 13, 53, 0
14, 169870, Control_c, 13, 64, 127
14, 169880, Note_on_c, 13, 51, 70
14, 169914, Note_on_c, 13, 51, 0
14, 169915, Note_on_c, 13, 49, 71
14, 169925, Note_on_c, 13, 81, 0
14, 169927, Note_on_c, 13, 84, 0
14, 169927, Note_on_c, 13, 72, 0
14, 169936, Note_on_c, 13, 49, 0
14, 169940, Note_on_c, 13, 77, 0
14, 169948, Note_on_c, 13, 48, 84
14, 169972, Note_on_c, 13, 48, 0
14, 169987, Note_on_c, 13, 85, 103
14, 169989, Note_on_c, 13, 73, 100
14, 169990, Note_on_c, 13, 82, 81
14, 169990, Note_on_c, 13, 46, 75
14, 169991, Note_on_c, 13, 77, 92
14, 169995, Control_c, 13, 64, 24
14, 169999, Control_c, 13, 64, 0
14, 170014, Note_on_c, 13, 46, 0
14, 170015, Control_c, 13, 64, 104
14, 170019, Control_c, 13, 64, 127
14, 170026, Note_on_c, 13, 44, 78
14, 170043, Note_on_c, 13, 77, 0
14, 170051, Note_on_c, 13, 44, 0
14, 170056, Note_on_c, 13, 73, 0
14, 170056, Note_on_c, 13, 42, 67
14, 170066, Note_on_c, 13, 82, 0
14, 170074, Note_on_c, 13, 85, 0
14, 170091, Note_on_c, 13, 42, 0
14, 170093, Note_on_c, 13, 41, 80
14, 170109, Note_on_c, 13, 41, 0
14, 170136, Note_on_c, 13, 90, 107
14, 170138, Note_on_c, 13, 78, 108
14, 170140, Note_on_c, 13, 85, 88
14, 170141, Note_on_c, 13, 82, 75
14, 170143, Note_on_c, 13, 39, 68
14, 170144, Control_c, 13, 64, 88
14, 170148, Note_on_c, 13, 82, 0
14, 170148, Control_c, 13, 64, 0
14, 170161, Note_on_c, 13, 82, 18
14, 170172, Control_c, 13, 64, 88
14, 170176, Control_c, 13, 64, 127
14, 170179, Note_on_c, 13, 39, 0
14, 170180, Note_on_c, 13, 46, 74
14, 170205, Note_on_c, 13, 46, 0
14, 170207, Note_on_c, 13, 82, 0
14, 170213, Note_on_c, 13, 51, 73
14, 170215, Note_on_c, 13, 85, 0
14, 170246, Note_on_c, 13, 51, 0
14, 170248, Note_on_c, 13, 54, 56
14, 170268, Note_on_c, 13, 54, 0
14, 170284, Note_on_c, 13, 44, 72
14, 170287, Note_on_c, 13, 84, 87
14, 170288, Note_on_c, 13, 80, 72
14, 170289, Control_c, 13, 64, 104
14, 170293, Control_c, 13, 64, 0
14, 170314, Note_on_c, 13, 44, 0
14, 170314, Control_c, 13, 64, 72
14, 170318, Control_c, 13, 64, 127
14, 170322, Note_on_c, 13, 51, 72
14, 170346, Note_on_c, 13, 51, 0
14, 170353, Note_on_c, 13, 56, 67
14, 170358, Note_on_c, 13, 90, 0
14, 170360, Note_on_c, 13, 78, 0
14, 170384, Note_on_c, 13, 84, 0
14, 170389, Note_on_c, 13, 60, 71
14, 170393, Note_on_c, 13, 56, 0
14, 170409, Note_on_c, 13, 80, 0
14, 170410, Note_on_c, 13, 60, 0
14, 170420, Note_on_c, 13, 89, 107
14, 170423, Note_on_c, 13, 80, 50
14, 170424, Note_on_c, 13, 77, 88
14, 170426, Note_on_c, 13, 84, 80
14, 170428, Note_on_c, 13, 49, 76
14, 170434, Control_c, 13, 64, 40
14, 170438, Control_c, 13, 64, 0
14, 170455, Control_c, 13, 64, 56
14, 170456, Note_on_c, 13, 49, 0
14, 170459, Control_c, 13, 64, 127
14, 170462, Note_on_c, 13, 56, 72
14, 170486, Note_on_c, 13, 56, 0
14, 170488, Note_on_c, 13, 84, 0
14, 170494, Note_on_c, 13, 80, 0
14, 170494, Note_on_c, 13, 61, 67
14, 170509, Note_on_c, 13, 89, 0
14, 170523, Note_on_c, 13, 61, 0
14, 170530, Note_on_c, 13, 65, 68
14, 170554, Note_on_c, 13, 65, 0
14, 170569, Note_on_c, 13, 82, 88
14, 170574, Note_on_c, 13, 54, 71
14, 170574, Note_on_c, 13, 78, 63
14, 170583, Control_c, 13, 64, 72
14, 170588, Control_c, 13, 64, 0
14, 170602, Note_on_c, 13, 54, 0
14, 170604, Control_c, 13, 64, 56
14, 170606, Note_on_c, 13, 61, 68
14, 170608, Control_c, 13, 64, 127
14, 170616, Note_on_c, 13, 77, 0
14, 170624, Note_on_c, 13, 78, 0
14, 170632, Note_on_c, 13, 61, 0
14, 170641, Note_on_c, 13, 66, 72
14, 170667, Note_on_c, 13, 82, 0
14, 170674, Note_on_c, 13, 66, 0
14, 170679, Note_on_c, 13, 70, 58
14, 170702, Note_on_c, 13, 70, 0
14, 170705, Note_on_c, 13, 87, 97
14, 170709, Note_on_c, 13, 75, 88
14, 170710, Note_on_c, 13, 82, 70
14, 170710, Note_on_c, 13, 78, 70
14, 170715, Note_on_c, 13, 60, 77
14, 170717, Control_c, 13, 64, 24
14, 170721, Control_c, 13, 64, 0
14, 170740, Note_on_c, 13, 60, 0
14, 170741, Control_c, 13, 64, 127
14, 170748, Note_on_c, 13, 63, 68
14, 170772, Note_on_c, 13, 82, 0
14, 170781, Note_on_c, 13, 63, 0
14, 170782, Note_on_c, 13, 66, 61
14, 170815, Note_on_c, 13, 66, 0
14, 170816, Note_on_c, 13, 70, 48
14, 170833, Note_on_c, 13, 87, 0
14, 170836, Note_on_c, 13, 70, 0
14, 170838, Note_on_c, 13, 78, 0
14, 170850, Note_on_c, 13, 81, 91
14, 170853, Note_on_c, 13, 69, 73
14, 170879, Note_on_c, 13, 69, 0
14, 170884, Note_on_c, 13, 66, 71
14, 170919, Note_on_c, 13, 63, 72
14, 170920, Note_on_c, 13, 66, 0
14, 170937, Note_on_c, 13, 81, 0
14, 170939, Note_on_c, 13, 63, 0
14, 170944, Note_on_c, 13, 75, 0
14, 170951, Note_on_c, 13, 82, 86
14, 170955, Note_on_c, 13, 60, 74
14, 170979, Note_on_c, 13, 60, 0
14, 170983, Note_on_c, 13, 82, 0
14, 170990, Note_on_c, 13, 84, 101
14, 170992, Note_on_c, 13, 81, 74
14, 170992, Note_on_c, 13, 57, 71
14, 170993, Note_on_c, 13, 72, 82
14, 170995, Control_c, 13, 64, 88
14, 170997, Note_on_c, 13, 77, 70
14, 170999, Control_c, 13, 64, 0
14, 171020, Control_c, 13, 64, 72
14, 171024, Note_on_c, 13, 57, 0
14, 171024, Control_c, 13, 64, 127
14, 171028, Note_on_c, 13, 54, 73
14, 171051, Note_on_c, 13, 54, 0
14, 171063, Note_on_c, 13, 53, 71
14, 171066, Note_on_c, 13, 72, 0
14, 171070, Note_on_c, 13, 84, 0
14, 171088, Note_on_c, 13, 53, 0
14, 171090, Note_on_c, 13, 81, 0
14, 171096, Note_on_c, 13, 51, 78
14, 171118, Note_on_c, 13, 77, 0
14, 171125, Note_on_c, 13, 51, 0
14, 171132, Note_on_c, 13, 85, 95
14, 171134, Note_on_c, 13, 49, 71
14, 171135, Note_on_c, 13, 73, 89
14, 171135, Note_on_c, 13, 82, 79
14, 171135, Note_on_c, 13, 77, 84
14, 171140, Control_c, 13, 64, 40
14, 171144, Control_c, 13, 64, 0
14, 171154, Note_on_c, 13, 49, 0
14, 171156, Control_c, 13, 64, 40
14, 171161, Control_c, 13, 64, 127
14, 171167, Note_on_c, 13, 48, 73
14, 171190, Note_on_c, 13, 48, 0
14, 171197, Note_on_c, 13, 82, 0
14, 171198, Note_on_c, 13, 85, 0
14, 171200, Note_on_c, 13, 46, 59
14, 171202, Note_on_c, 13, 77, 0
14, 171223, Note_on_c, 13, 73, 0
14, 171228, Note_on_c, 13, 46, 0
14, 171231, Note_on_c, 13, 44, 74
14, 171255, Note_on_c, 13, 44, 0
14, 171276, Note_on_c, 13, 77, 100
14, 171277, Note_on_c, 13, 73, 76
14, 171278, Note_on_c, 13, 43, 73
14, 171279, Note_on_c, 13, 70, 66
14, 171286, Control_c, 13, 64, 40
14, 171290, Control_c, 13, 64, 0
14, 171308, Note_on_c, 13, 43, 0
14, 171310, Control_c, 13, 64, 127
14, 171311, Note_on_c, 13, 49, 76
14, 171336, Note_on_c, 13, 49, 0
14, 171351, Note_on_c, 13, 53, 80
14, 171363, Note_on_c, 13, 70, 0
14, 171371, Note_on_c, 13, 53, 0
14, 171383, Note_on_c, 13, 56, 80
14, 171403, Note_on_c, 13, 56, 0
14, 171404, Note_on_c, 13, 73, 0
14, 171406, Note_on_c, 13, 77, 0
14, 171418, Note_on_c, 13, 76, 94
14, 171420, Note_on_c, 13, 55, 81
14, 171431, Control_c, 13, 64, 56
14, 171435, Control_c, 13, 64, 0
14, 171446, Note_on_c, 13, 55, 0
14, 171447, Control_c, 13, 64, 88
14, 171451, Control_c, 13, 64, 127
14, 171457, Note_on_c, 13, 53, 65
14, 171476, Note_on_c, 13, 53, 0
14, 171500, Note_on_c, 13, 52, 69
14, 171506, Note_on_c, 13, 52, 0
14, 171518, Note_on_c, 13, 76, 0
14, 171525, Note_on_c, 13, 77, 96
14, 171526, Note_on_c, 13, 49, 68
14, 171544, Note_on_c, 13, 49, 0
14, 171558, Note_on_c, 13, 77, 0
14, 171562, Note_on_c, 13, 79, 97
14, 171562, Note_on_c, 13, 48, 73
14, 171563, Note_on_c, 13, 76, 86
14, 171564, Note_on_c, 13, 67, 71
14, 171568, Note_on_c, 13, 72, 66
14, 171568, Control_c, 13, 64, 104
14, 171572, Control_c, 13, 64, 0
14, 171585, Note_on_c, 13, 48, 0
14, 171592, Control_c, 13, 64, 104
14, 171596, Control_c, 13, 64, 127
14, 171597, Note_on_c, 13, 46, 72
14, 171628, Note_on_c, 13, 46, 0
14, 171628, Note_on_c, 13, 44, 81
14, 171635, Note_on_c, 13, 67, 0
14, 171638, Note_on_c, 13, 72, 0
14, 171649, Note_on_c, 13, 79, 0
14, 171650, Note_on_c, 13, 76, 0
14, 171659, Note_on_c, 13, 44, 0
14, 171662, Note_on_c, 13, 43, 75
14, 171686, Note_on_c, 13, 43, 0
14, 171699, Note_on_c, 13, 41, 71
14, 171699, Note_on_c, 13, 80, 93
14, 171702, Note_on_c, 13, 68, 86
14, 171703, Note_on_c, 13, 77, 89
14, 171705, Note_on_c, 13, 72, 73
14, 171709, Control_c, 13, 64, 56
14, 171713, Control_c, 13, 64, 0
14, 171725, Note_on_c, 13, 41, 0
14, 171726, Control_c, 13, 64, 56
14, 171730, Control_c, 13, 64, 127
14, 171736, Note_on_c, 13, 39, 68
14, 171763, Note_on_c, 13, 39, 0
14, 171766, Note_on_c, 13, 37, 67
14, 171788, Note_on_c, 13, 37, 0
14, 171798, Note_on_c, 13, 77, 0
14, 171798, Note_on_c, 13, 72, 0
14, 171802, Note_on_c, 13, 80, 0
14, 171804, Note_on_c, 13, 36, 68
14, 171816, Note_on_c, 13, 68, 0
14, 171828, Note_on_c, 13, 36, 0
14, 171844, Note_on_c, 13, 80, 100
14, 171846, Control_c, 13, 64, 104
14, 171847, Note_on_c, 13, 68, 89
14, 171848, Note_on_c, 13, 77, 89
14, 171849, Note_on_c, 13, 73, 74
14, 171850, Control_c, 13, 64, 0
14, 171856, Note_on_c, 13, 35, 64
14, 171875, Control_c, 13, 64, 104
14, 171879, Note_on_c, 13, 35, 0
14, 171879, Control_c, 13, 64, 127
14, 171880, Note_on_c, 13, 77, 0
14, 171881, Note_on_c, 13, 73, 0
14, 171883, Note_on_c, 13, 80, 0
14, 171885, Note_on_c, 13, 41, 68
14, 171887, Note_on_c, 13, 68, 0
14, 171918, Note_on_c, 13, 44, 74
14, 171922, Note_on_c, 13, 41, 0
14, 171953, Note_on_c, 13, 44, 0
14, 171953, Note_on_c, 13, 47, 85
14, 171971, Note_on_c, 13, 47, 0
14, 171986, Note_on_c, 13, 53, 90
14, 171996, Note_on_c, 13, 41, 60
14, 172008, Note_on_c, 13, 53, 0
14, 172024, Note_on_c, 13, 59, 85
14, 172026, Note_on_c, 13, 41, 0
14, 172027, Note_on_c, 13, 47, 65
14, 172042, Note_on_c, 13, 59, 0
14, 172055, Note_on_c, 13, 61, 84
14, 172056, Note_on_c, 13, 49, 70
14, 172059, Note_on_c, 13, 47, 0
14, 172083, Note_on_c, 13, 49, 0
14, 172084, Note_on_c, 13, 61, 0
14, 172088, Note_on_c, 13, 53, 63
14, 172090, Note_on_c, 13, 65, 87
14, 172109, Note_on_c, 13, 53, 0
14, 172110, Note_on_c, 13, 65, 0
14, 172125, Note_on_c, 13, 59, 86
14, 172128, Note_on_c, 13, 47, 77
14, 172133, Control_c, 13, 64, 40
14, 172137, Control_c, 13, 64, 0
14, 172146, Note_on_c, 13, 59, 0
14, 172148, Control_c, 13, 64, 40
14, 172152, Control_c, 13, 64, 104
14, 172156, Note_on_c, 13, 47, 0
14, 172157, Control_c, 13, 64, 127
14, 172158, Note_on_c, 13, 49, 75
14, 172158, Note_on_c, 13, 61, 85
14, 172181, Note_on_c, 13, 61, 0
14, 172190, Note_on_c, 13, 65, 77
14, 172193, Note_on_c, 13, 49, 0
14, 172198, Note_on_c, 13, 53, 69
14, 172221, Note_on_c, 13, 53, 0
14, 172226, Note_on_c, 13, 71, 86
14, 172228, Note_on_c, 13, 59, 58
14, 172230, Note_on_c, 13, 65, 0
14, 172239, Note_on_c, 13, 71, 0
14, 172243, Note_on_c, 13, 59, 0
14, 172257, Note_on_c, 13, 65, 94
14, 172265, Note_on_c, 13, 53, 61
14, 172274, Note_on_c, 13, 65, 0
14, 172292, Note_on_c, 13, 53, 0
14, 172294, Note_on_c, 13, 71, 91
14, 172296, Note_on_c, 13, 59, 59
14, 172316, Note_on_c, 13, 61, 55
14, 172318, Note_on_c, 13, 71, 0
14, 172322, Note_on_c, 13, 59, 0
14, 172325, Note_on_c, 13, 73, 87
14, 172357, Note_on_c, 13, 61, 0
14, 172357, Note_on_c, 13, 65, 63
14, 172363, Note_on_c, 13, 77, 86
14, 172367, Note_on_c, 13, 73, 0
14, 172375, Note_on_c, 13, 65, 0
14, 172378, Note_on_c, 13, 77, 0
14, 172391, Note_on_c, 13, 71, 89
14, 172392, Note_on_c, 13, 59, 70
14, 172412, Note_on_c, 13, 71, 0
14, 172415, Note_on_c, 13, 59, 0
14, 172425, Note_on_c, 13, 73, 84
14, 172425, Note_on_c, 13, 61, 63
14, 172443, Note_on_c, 13, 73, 0
14, 172450, Note_on_c, 13, 61, 0
14, 172458, Note_on_c, 13, 77, 90
14, 172458, Note_on_c, 13, 65, 67
14, 172482, Note_on_c, 13, 77, 0
14, 172484, Note_on_c, 13, 65, 0
14, 172490, Note_on_c, 13, 83, 91
14, 172492, Note_on_c, 13, 71, 71
14, 172512, Note_on_c, 13, 71, 0
14, 172514, Note_on_c, 13, 83, 0
14, 172524, Control_c, 13, 64, 104
14, 172526, Note_on_c, 13, 77, 94
14, 172526, Note_on_c, 13, 65, 85
14, 172527, Control_c, 13, 64, 24
14, 172532, Control_c, 13, 64, 0
14, 172536, Control_c, 13, 64, 24
14, 172540, Control_c, 13, 64, 72
14, 172544, Control_c, 13, 64, 127
14, 172560, Note_on_c, 13, 73, 84
14, 172564, Note_on_c, 13, 65, 0
14, 172564, Note_on_c, 13, 61, 66
14, 172580, Note_on_c, 13, 77, 0
14, 172581, Note_on_c, 13, 61, 0
14, 172594, Note_on_c, 13, 73, 0
14, 172594, Note_on_c, 13, 71, 76
14, 172599, Note_on_c, 13, 59, 70
14, 172605, Note_on_c, 13, 71, 0
14, 172619, Note_on_c, 13, 59, 0
14, 172626, Note_on_c, 13, 65, 86
14, 172631, Note_on_c, 13, 53, 77
14, 172645, Note_on_c, 13, 65, 0
14, 172654, Note_on_c, 13, 53, 0
14, 172662, Note_on_c, 13, 61, 89
14, 172665, Note_on_c, 13, 49, 76
14, 172674, Control_c, 13, 64, 40
14, 172678, Control_c, 13, 64, 0
14, 172684, Note_on_c, 13, 61, 0
14, 172690, Control_c, 13, 64, 88
14, 172692, Note_on_c, 13, 49, 0
14, 172694, Control_c, 13, 64, 127
14, 172695, Note_on_c, 13, 65, 75
14, 172699, Note_on_c, 13, 53, 77
14, 172721, Note_on_c, 13, 65, 0
14, 172724, Note_on_c, 13, 53, 0
14, 172731, Note_on_c, 13, 71, 85
14, 172732, Note_on_c, 13, 59, 69
14, 172753, Note_on_c, 13, 71, 0
14, 172756, Note_on_c, 13, 59, 0
14, 172765, Note_on_c, 13, 65, 71
14, 172766, Note_on_c, 13, 53, 75
14, 172788, Note_on_c, 13, 53, 0
14, 172798, Note_on_c, 13, 49, 57
14, 172802, Note_on_c, 13, 61, 76
14, 172804, Note_on_c, 13, 49, 0
14, 172823, Note_on_c, 13, 65, 0
14, 172826, Note_on_c, 13, 47, 69
14, 172831, Note_on_c, 13, 59, 73
14, 172831, Note_on_c, 13, 48, 48
14, 172832, Note_on_c, 13, 61, 0
14, 172838, Note_on_c, 13, 59, 0
14, 172840, Note_on_c, 13, 48, 0
14, 172843, Note_on_c, 13, 47, 0
14, 172862, Note_on_c, 13, 53, 94
14, 172863, Note_on_c, 13, 41, 57
14, 172878, Note_on_c, 13, 53, 0
14, 172893, Note_on_c, 13, 41, 0
14, 172894, Note_on_c, 13, 49, 92
14, 172899, Note_on_c, 13, 37, 63
14, 172920, Note_on_c, 13, 37, 0
14, 172921, Note_on_c, 13, 49, 0
14, 172934, Note_on_c, 13, 48, 94
14, 172936, Note_on_c, 13, 36, 81
14, 172940, Control_c, 13, 64, 56
14, 172944, Control_c, 13, 64, 0
14, 172980, Note_on_c, 13, 36, 0
14, 172986, Note_on_c, 13, 48, 0
14, 173015, Note_on_c, 13, 55, 80
14, 173020, Note_on_c, 13, 40, 47
14, 173028, Control_c, 13, 64, 24
14, 173033, Control_c, 13, 64, 40
14, 173040, Control_c, 13, 64, 56
14, 173041, Note_on_c, 13, 40, 0
14, 173043, Note_on_c, 13, 55, 0
14, 173044, Control_c, 13, 64, 72
14, 173047, Note_on_c, 13, 58, 72
14, 173048, Control_c, 13, 64, 88
14, 173052, Note_on_c, 13, 49, 49
14, 173052, Control_c, 13, 64, 104
14, 173056, Control_c, 13, 64, 127
14, 173070, Control_c, 13, 64, 0
14, 173072, Note_on_c, 13, 49, 0
14, 173082, Note_on_c, 13, 56, 80
14, 173083, Note_on_c, 13, 58, 0
14, 173087, Note_on_c, 13, 41, 66
14, 173102, Control_c, 13, 64, 24
14, 173105, Control_c, 13, 64, 40
14, 173109, Control_c, 13, 64, 72
14, 173110, Note_on_c, 13, 56, 0
14, 173113, Note_on_c, 13, 41, 0
14, 173113, Control_c, 13, 64, 88
14, 173116, Note_on_c, 13, 53, 88
14, 173120, Note_on_c, 13, 48, 76
14, 173121, Control_c, 13, 64, 104
14, 173133, Note_on_c, 13, 53, 0
14, 173140, Control_c, 13, 64, 40
14, 173144, Note_on_c, 13, 48, 0
14, 173144, Control_c, 13, 64, 0
14, 173151, Note_on_c, 13, 60, 88
14, 173156, Note_on_c, 13, 45, 73
14, 173175, Note_on_c, 13, 45, 0
14, 173175, Control_c, 13, 64, 40
14, 173178, Control_c, 13, 64, 72
14, 173182, Note_on_c, 13, 60, 0
14, 173182, Note_on_c, 13, 63, 77
14, 173185, Note_on_c, 13, 54, 55
14, 173186, Control_c, 13, 64, 88
14, 173208, Control_c, 13, 64, 0
14, 173211, Note_on_c, 13, 54, 0
14, 173218, Note_on_c, 13, 61, 84
14, 173219, Note_on_c, 13, 63, 0
14, 173219, Note_on_c, 13, 46, 67
14, 173236, Control_c, 13, 64, 40
14, 173240, Control_c, 13, 64, 72
14, 173243, Control_c, 13, 64, 104
14, 173245, Note_on_c, 13, 61, 0
14, 173247, Note_on_c, 13, 46, 0
14, 173250, Note_on_c, 13, 58, 72
14, 173257, Note_on_c, 13, 53, 53
14, 173259, Control_c, 13, 64, 127
14, 173263, Note_on_c, 13, 58, 0
14, 173274, Note_on_c, 13, 53, 0
14, 173274, Control_c, 13, 64, 72
14, 173278, Control_c, 13, 64, 24
14, 173282, Control_c, 13, 64, 0
14, 173287, Note_on_c, 13, 67, 89
14, 173291, Note_on_c, 13, 52, 67
14, 173309, Note_on_c, 13, 52, 0
14, 173309, Control_c, 13, 64, 56
14, 173313, Note_on_c, 13, 67, 0
14, 173313, Control_c, 13, 64, 88
14, 173316, Control_c, 13, 64, 104
14, 173317, Note_on_c, 13, 70, 80
14, 173319, Note_on_c, 13, 61, 61
14, 173340, Note_on_c, 13, 61, 0
14, 173342, Control_c, 13, 64, 0
14, 173348, Note_on_c, 13, 70, 0
14, 173348, Note_on_c, 13, 68, 80
14, 173352, Note_on_c, 13, 53, 67
14, 173370, Control_c, 13, 64, 24
14, 173371, Note_on_c, 13, 53, 0
14, 173374, Control_c, 13, 64, 56
14, 173376, Note_on_c, 13, 68, 0
14, 173378, Control_c, 13, 64, 72
14, 173381, Note_on_c, 13, 65, 84
14, 173384, Note_on_c, 13, 60, 63
14, 173397, Note_on_c, 13, 65, 0
14, 173401, Note_on_c, 13, 60, 0
14, 173405, Control_c, 13, 64, 0
14, 173416, Note_on_c, 13, 72, 103
14, 173416, Note_on_c, 13, 57, 60
14, 173435, Control_c, 13, 64, 24
14, 173438, Note_on_c, 13, 57, 0
14, 173439, Control_c, 13, 64, 56
14, 173443, Note_on_c, 13, 72, 0
14, 173443, Control_c, 13, 64, 72
14, 173446, Note_on_c, 13, 75, 88
14, 173447, Control_c, 13, 64, 88
14, 173449, Note_on_c, 13, 66, 56
14, 173472, Note_on_c, 13, 66, 0
14, 173477, Control_c, 13, 64, 0
14, 173478, Note_on_c, 13, 73, 89
14, 173480, Note_on_c, 13, 75, 0
14, 173482, Note_on_c, 13, 58, 67
14, 173500, Control_c, 13, 64, 24
14, 173504, Note_on_c, 13, 73, 0
14, 173504, Control_c, 13, 64, 56
14, 173508, Control_c, 13, 64, 72
14, 173510, Note_on_c, 13, 58, 0
14, 173510, Note_on_c, 13, 70, 74
14, 173512, Control_c, 13, 64, 88
14, 173515, Note_on_c, 13, 65, 66
14, 173523, Control_c, 13, 64, 104
14, 173525, Note_on_c, 13, 70, 0
14, 173537, Note_on_c, 13, 65, 0
14, 173542, Control_c, 13, 64, 0
14, 173548, Note_on_c, 13, 79, 97
14, 173556, Note_on_c, 13, 64, 69
14, 173569, Control_c, 13, 64, 24
14, 173573, Control_c, 13, 64, 56
14, 173574, Note_on_c, 13, 64, 0
14, 173576, Note_on_c, 13, 79, 0
14, 173577, Control_c, 13, 64, 88
14, 173579, Note_on_c, 13, 82, 87
14, 173581, Control_c, 13, 64, 104
14, 173583, Note_on_c, 13, 73, 60
14, 173585, Control_c, 13, 64, 127
14, 173607, Note_on_c, 13, 73, 0
14, 173611, Note_on_c, 13, 82, 0
14, 173611, Control_c, 13, 64, 24
14, 173613, Note_on_c, 13, 80, 88
14, 173615, Control_c, 13, 64, 0
14, 173617, Note_on_c, 13, 65, 67
14, 173638, Control_c, 13, 64, 40
14, 173641, Note_on_c, 13, 65, 0
14, 173642, Control_c, 13, 64, 72
14, 173643, Note_on_c, 13, 80, 0
14, 173646, Control_c, 13, 64, 88
14, 173648, Note_on_c, 13, 77, 89
14, 173649, Note_on_c, 13, 72, 70
14, 173650, Control_c, 13, 64, 104
14, 173661, Control_c, 13, 64, 127
14, 173663, Note_on_c, 13, 77, 0
14, 173665, Control_c, 13, 64, 104
14, 173669, Control_c, 13, 64, 72
14, 173671, Note_on_c, 13, 72, 0
14, 173673, Control_c, 13, 64, 24
14, 173677, Control_c, 13, 64, 0
14, 173682, Note_on_c, 13, 84, 101
14, 173688, Note_on_c, 13, 69, 77
14, 173699, Control_c, 13, 64, 56
14, 173703, Control_c, 13, 64, 88
14, 173704, Note_on_c, 13, 69, 0
14, 173707, Control_c, 13, 64, 127
14, 173710, Note_on_c, 13, 84, 0
14, 173712, Note_on_c, 13, 87, 87
14, 173714, Note_on_c, 13, 78, 67
14, 173738, Note_on_c, 13, 78, 0
14, 173742, Control_c, 13, 64, 40
14, 173745, Control_c, 13, 64, 0
14, 173746, Note_on_c, 13, 85, 92
14, 173748, Note_on_c, 13, 87, 0
14, 173750, Note_on_c, 13, 70, 72
14, 173761, Control_c, 13, 64, 24
14, 173765, Control_c, 13, 64, 56
14, 173769, Control_c, 13, 64, 88
14, 173772, Control_c, 13, 64, 104
14, 173775, Note_on_c, 13, 85, 0
14, 173778, Note_on_c, 13, 70, 0
14, 173778, Note_on_c, 13, 82, 80
14, 173784, Control_c, 13, 64, 127
14, 173785, Note_on_c, 13, 77, 64
14, 173790, Note_on_c, 13, 82, 0
14, 173803, Note_on_c, 13, 77, 0
14, 173807, Control_c, 13, 64, 72
14, 173811, Control_c, 13, 64, 0
14, 173815, Note_on_c, 13, 91, 100
14, 173821, Note_on_c, 13, 76, 80
14, 173832, Control_c, 13, 64, 56
14, 173835, Control_c, 13, 64, 88
14, 173840, Control_c, 13, 64, 104
14, 173844, Note_on_c, 13, 91, 0
14, 173847, Note_on_c, 13, 76, 0
14, 173848, Note_on_c, 13, 94, 88
14, 173853, Note_on_c, 13, 85, 70
14, 173855, Control_c, 13, 64, 127
14, 173874, Control_c, 13, 64, 72
14, 173876, Note_on_c, 13, 85, 0
14, 173876, Note_on_c, 13, 94, 0
14, 173877, Control_c, 13, 64, 0
14, 173881, Note_on_c, 13, 92, 95
14, 173886, Note_on_c, 13, 77, 76
14, 173893, Control_c, 13, 64, 24
14, 173897, Control_c, 13, 64, 56
14, 173901, Control_c, 13, 64, 72
14, 173905, Control_c, 13, 64, 88
14, 173910, Note_on_c, 13, 92, 0
14, 173913, Note_on_c, 13, 77, 0
14, 173916, Note_on_c, 13, 89, 87
14, 173918, Note_on_c, 13, 84, 74
14, 173939, Control_c, 13, 64, 72
14, 173940, Note_on_c, 13, 84, 0
14, 173941, Note_on_c, 13, 89, 0
14, 173948, Note_on_c, 13, 91, 93
14, 173955, Note_on_c, 13, 76, 76
14, 173973, Note_on_c, 13, 91, 0
14, 173982, Note_on_c, 13, 94, 89
14, 173985, Note_on_c, 13, 85, 73
14, 174000, Note_on_c, 13, 85, 0
14, 174004, Control_c, 13, 64, 56
14, 174005, Note_on_c, 13, 76, 0
14, 174008, Control_c, 13, 64, 24
14, 174011, Note_on_c, 13, 94, 0
14, 174012, Control_c, 13, 64, 0
14, 174020, Note_on_c, 13, 92, 95
14, 174023, Note_on_c, 13, 77, 86
14, 174024, Note_on_c, 13, 84, 87
14, 174039, Control_c, 13, 64, 72
14, 174042, Note_on_c, 13, 84, 0
14, 174042, Control_c, 13, 64, 127
14, 174049, Note_on_c, 13, 77, 0
14, 174054, Note_on_c, 13, 92, 0
14, 174056, Note_on_c, 13, 89, 92
14, 174089, Note_on_c, 13, 89, 0
14, 174092, Note_on_c, 13, 84, 80
14, 174106, Note_on_c, 13, 84, 0
14, 174123, Note_on_c, 13, 82, 80
14, 174143, Note_on_c, 13, 82, 0
14, 174149, Control_c, 13, 64, 88
14, 174153, Control_c, 13, 64, 24
14, 174155, Note_on_c, 13, 68, 90
14, 174158, Control_c, 13, 64, 0
14, 174158, Note_on_c, 13, 80, 89
14, 174173, Control_c, 13, 64, 56
14, 174175, Note_on_c, 13, 68, 0
14, 174177, Control_c, 13, 64, 127
14, 174187, Note_on_c, 13, 80, 0
14, 174187, Note_on_c, 13, 65, 77
14, 174189, Note_on_c, 13, 77, 91
14, 174212, Note_on_c, 13, 65, 0
14, 174218, Note_on_c, 13, 77, 0
14, 174223, Note_on_c, 13, 72, 87
14, 174227, Note_on_c, 13, 60, 63
14, 174241, Note_on_c, 13, 72, 0
14, 174253, Note_on_c, 13, 60, 0
14, 174254, Note_on_c, 13, 58, 66
14, 174255, Note_on_c, 13, 70, 87
14, 174269, Note_on_c, 13, 70, 0
14, 174292, Note_on_c, 13, 68, 79
14, 174293, Note_on_c, 13, 56, 68
14, 174299, Control_c, 13, 64, 56
14, 174302, Note_on_c, 13, 58, 0
14, 174303, Control_c, 13, 64, 0
14, 174311, Control_c, 13, 64, 24
14, 174313, Note_on_c, 13, 56, 0
14, 174315, Control_c, 13, 64, 72
14, 174318, Control_c, 13, 64, 127
14, 174322, Note_on_c, 13, 68, 0
14, 174324, Note_on_c, 13, 65, 90
14, 174326, Note_on_c, 13, 53, 77
14, 174354, Note_on_c, 13, 53, 0
14, 174356, Note_on_c, 13, 65, 0
14, 174359, Note_on_c, 13, 60, 94
14, 174366, Note_on_c, 13, 48, 76
14, 174380, Note_on_c, 13, 60, 0
14, 174393, Note_on_c, 13, 58, 89
14, 174394, Note_on_c, 13, 48, 0
14, 174394, Note_on_c, 13, 46, 73
14, 174418, Note_on_c, 13, 58, 0
14, 174430, Note_on_c, 13, 56, 88
14, 174430, Control_c, 13, 64, 72
14, 174431, Note_on_c, 13, 44, 70
14, 174434, Control_c, 13, 64, 0
14, 174445, Note_on_c, 13, 46, 0
14, 174449, Control_c, 13, 64, 56
14, 174453, Note_on_c, 13, 44, 0
14, 174453, Control_c, 13, 64, 104
14, 174456, Control_c, 13, 64, 127
14, 174460, Note_on_c, 13, 56, 0
14, 174466, Note_on_c, 13, 53, 96
14, 174467, Note_on_c, 13, 41, 84
14, 174489, Note_on_c, 13, 41, 0
14, 174493, Note_on_c, 13, 53, 0
14, 174500, Note_on_c, 13, 48, 93
14, 174504, Note_on_c, 13, 36, 59
14, 174523, Note_on_c, 13, 36, 0
14, 174524, Note_on_c, 13, 48, 0
14, 174535, Note_on_c, 13, 46, 93
14, 174537, Note_on_c, 13, 34, 72
14, 174550, Note_on_c, 13, 34, 0
14, 174559, Note_on_c, 13, 46, 0
14, 174572, Control_c, 13, 64, 104
14, 174573, Note_on_c, 13, 44, 99
14, 174573, Note_on_c, 13, 41, 85
14, 174575, Note_on_c, 13, 29, 77
14, 174575, Control_c, 13, 64, 24
14, 174579, Control_c, 13, 64, 0
14, 174595, Note_on_c, 13, 44, 0
14, 174598, Control_c, 13, 64, 40
14, 174601, Control_c, 13, 64, 104
14, 174606, Control_c, 13, 64, 127
14, 174608, Note_on_c, 13, 29, 0
14, 174610, Note_on_c, 13, 48, 96
14, 174611, Note_on_c, 13, 41, 0
14, 174631, Note_on_c, 13, 48, 0
14, 174645, Note_on_c, 13, 53, 86
14, 174677, Note_on_c, 13, 56, 84
14, 174682, Note_on_c, 13, 53, 0
14, 174695, Note_on_c, 13, 56, 0
14, 174706, Control_c, 13, 64, 56
14, 174709, Control_c, 13, 64, 0
14, 174712, Note_on_c, 13, 51, 101
14, 174713, Note_on_c, 13, 39, 86
14, 174713, Note_on_c, 13, 57, 94
14, 174725, Control_c, 13, 64, 40
14, 174727, Note_on_c, 13, 39, 0
14, 174728, Note_on_c, 13, 57, 0
14, 174729, Control_c, 13, 64, 104
14, 174732, Note_on_c, 13, 51, 0
14, 174732, Control_c, 13, 64, 127
14, 174744, Note_on_c, 13, 60, 82
14, 174765, Note_on_c, 13, 60, 0
14, 174777, Note_on_c, 13, 53, 86
14, 174778, Note_on_c, 13, 65, 84
14, 174791, Note_on_c, 13, 53, 0
14, 174813, Note_on_c, 13, 69, 89
14, 174820, Note_on_c, 13, 65, 0
14, 174826, Note_on_c, 13, 69, 0
14, 174836, Control_c, 13, 64, 104
14, 174840, Control_c, 13, 64, 24
14, 174844, Control_c, 13, 64, 0
14, 174844, Note_on_c, 13, 70, 94
14, 174847, Note_on_c, 13, 37, 89
14, 174847, Note_on_c, 13, 49, 99
14, 174860, Note_on_c, 13, 49, 0
14, 174861, Note_on_c, 13, 37, 0
14, 174861, Note_on_c, 13, 70, 0
14, 174863, Control_c, 13, 64, 72
14, 174866, Control_c, 13, 64, 127
14, 174879, Note_on_c, 13, 73, 80
14, 174903, Note_on_c, 13, 73, 0
14, 174909, Note_on_c, 13, 53, 86
14, 174910, Note_on_c, 13, 77, 87
14, 174922, Note_on_c, 13, 53, 0
14, 174945, Note_on_c, 13, 82, 76
14, 174947, Note_on_c, 13, 77, 0
14, 174953, Note_on_c, 13, 37, 28
14, 174956, Note_on_c, 13, 82, 0
14, 174960, Note_on_c, 13, 37, 0
14, 174965, Control_c, 13, 64, 88
14, 174970, Control_c, 13, 64, 0
14, 174978, Note_on_c, 13, 85, 101
14, 174980, Note_on_c, 13, 34, 89
14, 174981, Note_on_c, 13, 46, 101
14, 174990, Note_on_c, 13, 34, 0
14, 174993, Note_on_c, 13, 46, 0
14, 174993, Control_c, 13, 64, 72
14, 174996, Note_on_c, 13, 85, 0
14, 174997, Control_c, 13, 64, 127
14, 175009, Note_on_c, 13, 89, 88
14, 175034, Note_on_c, 13, 89, 0
14, 175043, Note_on_c, 13, 53, 94
14, 175044, Note_on_c, 13, 94, 91
14, 175059, Note_on_c, 13, 53, 0
14, 175070, Note_on_c, 13, 94, 0
14, 175078, Note_on_c, 13, 101, 92
14, 175085, Control_c, 13, 64, 104
14, 175089, Control_c, 13, 64, 72
14, 175093, Control_c, 13, 64, 0
14, 175100, Note_on_c, 13, 101, 0
14, 175116, Note_on_c, 13, 96, 108
14, 175118, Note_on_c, 13, 56, 87
14, 175118, Note_on_c, 13, 53, 81
14, 175120, Note_on_c, 13, 48, 89
14, 175120, Note_on_c, 13, 60, 101
14, 175123, Control_c, 13, 64, 72
14, 175127, Control_c, 13, 64, 127
14, 175136, Note_on_c, 13, 60, 0
14, 175136, Note_on_c, 13, 96, 0
14, 175138, Note_on_c, 13, 56, 0
14, 175140, Note_on_c, 13, 48, 0
14, 175142, Note_on_c, 13, 53, 0
14, 175238, Control_c, 13, 64, 88
14, 175241, Control_c, 13, 64, 40
14, 175246, Control_c, 13, 64, 0
14, 175253, Note_on_c, 13, 48, 86
14, 175256, Note_on_c, 13, 36, 73
14, 175269, Control_c, 13, 64, 24
14, 175271, Note_on_c, 13, 48, 0
14, 175273, Control_c, 13, 64, 88
14, 175276, Control_c, 13, 64, 127
14, 175281, Note_on_c, 13, 36, 0
14, 175289, Note_on_c, 13, 53, 78
14, 175290, Note_on_c, 13, 41, 61
14, 175307, Note_on_c, 13, 53, 0
14, 175314, Note_on_c, 13, 41, 0
14, 175319, Note_on_c, 13, 44, 64
14, 175320, Note_on_c, 13, 56, 77
14, 175353, Note_on_c, 13, 59, 76
14, 175354, Note_on_c, 13, 44, 0
14, 175354, Note_on_c, 13, 48, 53
14, 175361, Note_on_c, 13, 56, 0
14, 175362, Note_on_c, 13, 48, 0
14, 175368, Note_on_c, 13, 59, 0
14, 175384, Control_c, 13, 64, 88
14, 175388, Control_c, 13, 64, 24
14, 175390, Note_on_c, 13, 60, 82
14, 175390, Note_on_c, 13, 48, 65
14, 175392, Control_c, 13, 64, 0
14, 175403, Control_c, 13, 64, 24
14, 175405, Note_on_c, 13, 60, 0
14, 175407, Control_c, 13, 64, 72
14, 175411, Note_on_c, 13, 48, 0
14, 175411, Control_c, 13, 64, 127
14, 175419, Note_on_c, 13, 65, 85
14, 175420, Note_on_c, 13, 53, 61
14, 175438, Note_on_c, 13, 65, 0
14, 175443, Note_on_c, 13, 53, 0
14, 175449, Note_on_c, 13, 68, 80
14, 175449, Note_on_c, 13, 56, 67
14, 175473, Note_on_c, 13, 68, 0
14, 175481, Note_on_c, 13, 71, 84
14, 175487, Note_on_c, 13, 56, 0
14, 175507, Note_on_c, 13, 71, 0
14, 175514, Note_on_c, 13, 60, 70
14, 175514, Note_on_c, 13, 72, 91
14, 175514, Control_c, 13, 64, 88
14, 175518, Control_c, 13, 64, 24
14, 175522, Control_c, 13, 64, 0
14, 175533, Control_c, 13, 64, 56
14, 175537, Control_c, 13, 64, 88
14, 175538, Note_on_c, 13, 60, 0
14, 175541, Note_on_c, 13, 72, 0
14, 175541, Control_c, 13, 64, 127
14, 175544, Note_on_c, 13, 55, 69
14, 175547, Note_on_c, 13, 67, 82
14, 175569, Note_on_c, 13, 55, 0
14, 175571, Note_on_c, 13, 67, 0
14, 175578, Note_on_c, 13, 56, 68
14, 175578, Note_on_c, 13, 68, 76
14, 175602, Note_on_c, 13, 56, 0
14, 175611, Note_on_c, 13, 68, 0
14, 175613, Note_on_c, 13, 65, 81
14, 175614, Note_on_c, 13, 53, 69
14, 175638, Note_on_c, 13, 53, 0
14, 175642, Note_on_c, 13, 65, 0
14, 175648, Control_c, 13, 64, 72
14, 175652, Note_on_c, 13, 60, 91
14, 175652, Control_c, 13, 64, 0
14, 175655, Note_on_c, 13, 48, 76
14, 175674, Note_on_c, 13, 60, 0
14, 175675, Control_c, 13, 64, 40
14, 175679, Note_on_c, 13, 48, 0
14, 175679, Control_c, 13, 64, 104
14, 175683, Control_c, 13, 64, 127
14, 175686, Note_on_c, 13, 53, 69
14, 175688, Note_on_c, 13, 65, 77
14, 175709, Note_on_c, 13, 65, 0
14, 175714, Note_on_c, 13, 53, 0
14, 175719, Note_on_c, 13, 68, 74
14, 175719, Note_on_c, 13, 56, 65
14, 175752, Note_on_c, 13, 59, 70
14, 175753, Note_on_c, 13, 71, 82
14, 175758, Note_on_c, 13, 56, 0
14, 175765, Note_on_c, 13, 59, 0
14, 175766, Note_on_c, 13, 68, 0
14, 175771, Note_on_c, 13, 71, 0
14, 175788, Note_on_c, 13, 72, 93
14, 175790, Control_c, 13, 64, 104
14, 175791, Note_on_c, 13, 60, 70
14, 175794, Control_c, 13, 64, 56
14, 175798, Control_c, 13, 64, 0
14, 175807, Note_on_c, 13, 72, 0
14, 175809, Control_c, 13, 64, 40
14, 175813, Control_c, 13, 64, 72
14, 175817, Note_on_c, 13, 60, 0
14, 175817, Control_c, 13, 64, 127
14, 175820, Note_on_c, 13, 77, 91
14, 175822, Note_on_c, 13, 65, 65
14, 175840, Note_on_c, 13, 77, 0
14, 175849, Note_on_c, 13, 65, 0
14, 175853, Note_on_c, 13, 80, 89
14, 175855, Note_on_c, 13, 68, 70
14, 175875, Note_on_c, 13, 80, 0
14, 175882, Note_on_c, 13, 83, 96
14, 175886, Note_on_c, 13, 68, 0
14, 175886, Note_on_c, 13, 71, 71
14, 175901, Note_on_c, 13, 71, 0
14, 175910, Note_on_c, 13, 83, 0
14, 175916, Control_c, 13, 64, 104
14, 175918, Note_on_c, 13, 84, 94
14, 175920, Control_c, 13, 64, 40
14, 175921, Note_on_c, 13, 72, 88
14, 175924, Control_c, 13, 64, 0
14, 175936, Control_c, 13, 64, 24
14, 175939, Control_c, 13, 64, 72
14, 175943, Note_on_c, 13, 72, 0
14, 175943, Control_c, 13, 64, 127
14, 175950, Note_on_c, 13, 84, 0
14, 175952, Note_on_c, 13, 67, 56
14, 175952, Note_on_c, 13, 79, 89
14, 175975, Note_on_c, 13, 79, 0
14, 175975, Note_on_c, 13, 67, 0
14, 175984, Note_on_c, 13, 80, 82
14, 175988, Note_on_c, 13, 68, 65
14, 176012, Note_on_c, 13, 80, 0
14, 176016, Note_on_c, 13, 77, 93
14, 176021, Note_on_c, 13, 68, 0
14, 176023, Note_on_c, 13, 65, 58
14, 176044, Note_on_c, 13, 77, 0
14, 176046, Note_on_c, 13, 65, 0
14, 176050, Control_c, 13, 64, 88
14, 176054, Note_on_c, 13, 72, 105
14, 176054, Control_c, 13, 64, 24
14, 176058, Note_on_c, 13, 60, 81
14, 176058, Control_c, 13, 64, 0
14, 176077, Control_c, 13, 64, 56
14, 176079, Note_on_c, 13, 72, 0
14, 176081, Control_c, 13, 64, 127
14, 176083, Note_on_c, 13, 60, 0
14, 176088, Note_on_c, 13, 65, 75
14, 176089, Note_on_c, 13, 77, 93
14, 176110, Note_on_c, 13, 77, 0
14, 176118, Note_on_c, 13, 65, 0
14, 176121, Note_on_c, 13, 68, 70
14, 176123, Note_on_c, 13, 80, 80
14, 176155, Note_on_c, 13, 71, 79
14, 176155, Note_on_c, 13, 83, 80
14, 176158, Note_on_c, 13, 68, 0
14, 176163, Note_on_c, 13, 80, 0
14, 176167, Note_on_c, 13, 71, 0
14, 176169, Note_on_c, 13, 83, 0
14, 176190, Note_on_c, 13, 84, 96
14, 176195, Note_on_c, 13, 72, 77
14, 176200, Control_c, 13, 64, 72
14, 176204, Control_c, 13, 64, 40
14, 176208, Control_c, 13, 64, 72
14, 176209, Note_on_c, 13, 84, 0
14, 176211, Control_c, 13, 64, 127
14, 176220, Note_on_c, 13, 72, 0
14, 176223, Note_on_c, 13, 89, 93
14, 176226, Note_on_c, 13, 77, 67
14, 176244, Note_on_c, 13, 89, 0
14, 176254, Note_on_c, 13, 92, 92
14, 176255, Note_on_c, 13, 77, 0
14, 176258, Note_on_c, 13, 80, 76
14, 176279, Note_on_c, 13, 92, 0
14, 176285, Note_on_c, 13, 80, 0
14, 176287, Note_on_c, 13, 95, 94
14, 176288, Note_on_c, 13, 83, 73
14, 176305, Note_on_c, 13, 83, 0
14, 176314, Note_on_c, 13, 95, 0
14, 176319, Control_c, 13, 64, 104
14, 176321, Note_on_c, 13, 96, 101
14, 176322, Control_c, 13, 64, 56
14, 176324, Control_c, 13, 64, 0
14, 176324, Note_on_c, 13, 84, 85
14, 176339, Control_c, 13, 64, 40
14, 176343, Control_c, 13, 64, 88
14, 176346, Control_c, 13, 64, 127
14, 176350, Note_on_c, 13, 84, 0
14, 176354, Note_on_c, 13, 96, 0
14, 176357, Note_on_c, 13, 91, 92
14, 176358, Note_on_c, 13, 79, 73
14, 176380, Note_on_c, 13, 91, 0
14, 176382, Note_on_c, 13, 79, 0
14, 176390, Note_on_c, 13, 92, 87
14, 176393, Note_on_c, 13, 80, 74
14, 176416, Note_on_c, 13, 92, 0
14, 176421, Note_on_c, 13, 89, 89
14, 176422, Note_on_c, 13, 80, 0
14, 176425, Note_on_c, 13, 77, 65
14, 176445, Note_on_c, 13, 77, 0
14, 176449, Note_on_c, 13, 89, 0
14, 176450, Control_c, 13, 64, 88
14, 176454, Control_c, 13, 64, 40
14, 176454, Note_on_c, 13, 84, 94
14, 176458, Control_c, 13, 64, 0
14, 176458, Note_on_c, 13, 72, 75
14, 176469, Control_c, 13, 64, 40
14, 176473, Control_c, 13, 64, 104
14, 176477, Control_c, 13, 64, 127
14, 176481, Note_on_c, 13, 72, 0
14, 176481, Note_on_c, 13, 84, 0
14, 176487, Note_on_c, 13, 89, 89
14, 176490, Note_on_c, 13, 77, 69
14, 176509, Note_on_c, 13, 89, 0
14, 176513, Note_on_c, 13, 77, 0
14, 176519, Note_on_c, 13, 92, 92
14, 176521, Note_on_c, 13, 80, 80
14, 176541, Note_on_c, 13, 92, 0
14, 176549, Note_on_c, 13, 95, 103
14, 176550, Note_on_c, 13, 80, 0
14, 176552, Note_on_c, 13, 83, 79
14, 176568, Note_on_c, 13, 83, 0
14, 176578, Note_on_c, 13, 95, 0
14, 176583, Control_c, 13, 64, 88
14, 176585, Note_on_c, 13, 96, 103
14, 176588, Control_c, 13, 64, 24
14, 176589, Note_on_c, 13, 84, 86
14, 176592, Control_c, 13, 64, 0
14, 176603, Control_c, 13, 64, 72
14, 176607, Control_c, 13, 64, 127
14, 176611, Note_on_c, 13, 84, 0
14, 176618, Note_on_c, 13, 96, 0
14, 176620, Note_on_c, 13, 91, 96
14, 176621, Note_on_c, 13, 79, 70
14, 176644, Note_on_c, 13, 91, 0
14, 176645, Note_on_c, 13, 79, 0
14, 176651, Note_on_c, 13, 92, 93
14, 176655, Note_on_c, 13, 80, 73
14, 176677, Note_on_c, 13, 92, 0
14, 176682, Note_on_c, 13, 80, 0
14, 176684, Note_on_c, 13, 89, 94
14, 176688, Note_on_c, 13, 77, 75
14, 176708, Note_on_c, 13, 77, 0
14, 176710, Note_on_c, 13, 89, 0
14, 176714, Control_c, 13, 64, 104
14, 176717, Control_c, 13, 64, 40
14, 176720, Note_on_c, 13, 84, 92
14, 176722, Control_c, 13, 64, 0
14, 176724, Note_on_c, 13, 72, 74
14, 176734, Control_c, 13, 64, 40
14, 176737, Control_c, 13, 64, 88
14, 176741, Control_c, 13, 64, 127
14, 176745, Note_on_c, 13, 72, 0
14, 176749, Note_on_c, 13, 84, 0
14, 176756, Note_on_c, 13, 89, 86
14, 176757, Note_on_c, 13, 77, 69
14, 176782, Note_on_c, 13, 89, 0
14, 176791, Note_on_c, 13, 77, 0
14, 176792, Note_on_c, 13, 92, 89
14, 176795, Note_on_c, 13, 80, 81
14, 176817, Note_on_c, 13, 92, 0
14, 176824, Note_on_c, 13, 80, 0
14, 176824, Note_on_c, 13, 95, 100
14, 176826, Note_on_c, 13, 83, 75
14, 176844, Note_on_c, 13, 83, 0
14, 176850, Note_on_c, 13, 95, 0
14, 176855, Control_c, 13, 64, 88
14, 176860, Note_on_c, 13, 96, 101
14, 176860, Control_c, 13, 64, 24
14, 176864, Note_on_c, 13, 84, 78
14, 176864, Control_c, 13, 64, 0
14, 176875, Control_c, 13, 64, 56
14, 176879, Control_c, 13, 64, 104
14, 176883, Control_c, 13, 64, 127
14, 176887, Note_on_c, 13, 84, 0
14, 176888, Note_on_c, 13, 96, 0
14, 176895, Note_on_c, 13, 91, 97
14, 176896, Note_on_c, 13, 79, 71
14, 176918, Note_on_c, 13, 79, 0
14, 176923, Note_on_c, 13, 91, 0
14, 176929, Note_on_c, 13, 92, 96
14, 176932, Note_on_c, 13, 80, 84
14, 176957, Note_on_c, 13, 80, 0
14, 176958, Note_on_c, 13, 92, 0
14, 176963, Note_on_c, 13, 88, 89
14, 176966, Note_on_c, 13, 76, 71
14, 176986, Note_on_c, 13, 88, 0
14, 176987, Note_on_c, 13, 76, 0
14, 176997, Note_on_c, 13, 89, 96
14, 176997, Note_on_c, 13, 77, 84
14, 176998, Control_c, 13, 64, 72
14, 177002, Control_c, 13, 64, 24
14, 177006, Control_c, 13, 64, 0
14, 177017, Control_c, 13, 64, 40
14, 177021, Control_c, 13, 64, 72
14, 177024, Note_on_c, 13, 77, 0
14, 177025, Control_c, 13, 64, 127
14, 177027, Note_on_c, 13, 89, 0
14, 177030, Note_on_c, 13, 84, 93
14, 177033, Note_on_c, 13, 72, 72
14, 177056, Note_on_c, 13, 72, 0
14, 177059, Note_on_c, 13, 84, 0
14, 177064, Note_on_c, 13, 85, 89
14, 177064, Note_on_c, 13, 73, 72
14, 177085, Note_on_c, 13, 73, 0
14, 177092, Note_on_c, 13, 85, 0
14, 177097, Note_on_c, 13, 71, 71
14, 177098, Note_on_c, 13, 83, 89
14, 177119, Note_on_c, 13, 83, 0
14, 177119, Note_on_c, 13, 71, 0
14, 177128, Control_c, 13, 64, 56
14, 177132, Note_on_c, 13, 72, 85
14, 177132, Note_on_c, 13, 84, 93
14, 177132, Control_c, 13, 64, 0
14, 177144, Control_c, 13, 64, 24
14, 177147, Control_c, 13, 64, 72
14, 177151, Control_c, 13, 64, 104
14, 177155, Control_c, 13, 64, 127
14, 177161, Note_on_c, 13, 72, 0
14, 177166, Note_on_c, 13, 84, 0
14, 177168, Note_on_c, 13, 79, 87
14, 177170, Note_on_c, 13, 67, 67
14, 177197, Note_on_c, 13, 79, 0
14, 177198, Note_on_c, 13, 67, 0
14, 177205, Note_on_c, 13, 80, 88
14, 177206, Note_on_c, 13, 68, 76
14, 177234, Note_on_c, 13, 80, 0
14, 177237, Note_on_c, 13, 65, 77
14, 177238, Note_on_c, 13, 68, 0
14, 177240, Note_on_c, 13, 77, 89
14, 177257, Note_on_c, 13, 65, 0
14, 177264, Note_on_c, 13, 77, 0
14, 177266, Control_c, 13, 64, 88
14, 177270, Control_c, 13, 64, 24
14, 177274, Control_c, 13, 64, 0
14, 177276, Note_on_c, 13, 70, 70
14, 177277, Note_on_c, 13, 84, 94
14, 177279, Note_on_c, 13, 80, 89
14, 177280, Note_on_c, 13, 60, 75
14, 177293, Control_c, 13, 64, 72
14, 177297, Note_on_c, 13, 60, 0
14, 177297, Control_c, 13, 64, 127
14, 177300, Note_on_c, 13, 80, 0
14, 177305, Note_on_c, 13, 70, 0
14, 177308, Note_on_c, 13, 84, 0
14, 177311, Note_on_c, 13, 79, 87
14, 177311, Note_on_c, 13, 76, 87
14, 177314, Note_on_c, 13, 72, 63
14, 177326, Note_on_c, 13, 72, 0
14, 177335, Note_on_c, 13, 76, 0
14, 177335, Note_on_c, 13, 79, 0
14, 177344, Note_on_c, 13, 84, 89
14, 177344, Note_on_c, 13, 80, 84
14, 177345, Note_on_c, 13, 70, 74
14, 177347, Note_on_c, 13, 79, 84
14, 177365, Note_on_c, 13, 79, 0
14, 177367, Note_on_c, 13, 70, 0
14, 177372, Note_on_c, 13, 80, 0
14, 177372, Note_on_c, 13, 84, 0
14, 177377, Note_on_c, 13, 76, 89
14, 177379, Note_on_c, 13, 72, 63
14, 177397, Note_on_c, 13, 72, 0
14, 177404, Note_on_c, 13, 76, 0
14, 177410, Note_on_c, 13, 84, 94
14, 177412, Note_on_c, 13, 80, 86
14, 177412, Note_on_c, 13, 70, 77
14, 177432, Note_on_c, 13, 80, 0
14, 177436, Note_on_c, 13, 70, 0
14, 177436, Note_on_c, 13, 84, 0
14, 177443, Note_on_c, 13, 79, 90
14, 177443, Note_on_c, 13, 76, 84
14, 177447, Note_on_c, 13, 72, 69
14, 177467, Note_on_c, 13, 72, 0
14, 177471, Note_on_c, 13, 76, 0
14, 177471, Note_on_c, 13, 79, 0
14, 177478, Note_on_c, 13, 84, 100
14, 177480, Note_on_c, 13, 80, 89
14, 177481, Note_on_c, 13, 70, 82
14, 177499, Note_on_c, 13, 80, 0
14, 177504, Note_on_c, 13, 70, 0
14, 177506, Note_on_c, 13, 84, 0
14, 177511, Note_on_c, 13, 79, 90
14, 177511, Note_on_c, 13, 76, 84
14, 177513, Note_on_c, 13, 72, 73
14, 177539, Note_on_c, 13, 72, 0
14, 177539, Note_on_c, 13, 76, 0
14, 177539, Note_on_c, 13, 79, 0
14, 177544, Note_on_c, 13, 84, 100
14, 177546, Note_on_c, 13, 80, 89
14, 177546, Note_on_c, 13, 70, 80
14, 177563, Note_on_c, 13, 80, 0
14, 177570, Note_on_c, 13, 70, 0
14, 177573, Note_on_c, 13, 84, 0
14, 177576, Note_on_c, 13, 79, 91
14, 177576, Note_on_c, 13, 76, 84
14, 177579, Note_on_c, 13, 72, 71
14, 177602, Note_on_c, 13, 76, 0
14, 177602, Note_on_c, 13, 79, 0
14, 177605, Note_on_c, 13, 72, 0
14, 177610, Note_on_c, 13, 84, 101
14, 177611, Note_on_c, 13, 80, 87
14, 177612, Note_on_c, 13, 70, 75
14, 177630, Note_on_c, 13, 80, 0
14, 177636, Note_on_c, 13, 70, 0
14, 177636, Note_on_c, 13, 84, 0
14, 177640, Note_on_c, 13, 79, 92
14, 177640, Note_on_c, 13, 76, 84
14, 177645, Note_on_c, 13, 72, 73
14, 177670, Note_on_c, 13, 76, 0
14, 177670, Note_on_c, 13, 79, 0
14, 177671, Note_on_c, 13, 72, 0
14, 177676, Note_on_c, 13, 84, 96
14, 177678, Note_on_c, 13, 80, 87
14, 177679, Note_on_c, 13, 70, 77
14, 177699, Note_on_c, 13, 80, 0
14, 177704, Note_on_c, 13, 70, 0
14, 177706, Note_on_c, 13, 84, 0
14, 177709, Note_on_c, 13, 79, 90
14, 177709, Note_on_c, 13, 76, 84
14, 177711, Note_on_c, 13, 72, 77
14, 177739, Note_on_c, 13, 76, 0
14, 177739, Note_on_c, 13, 79, 0
14, 177741, Note_on_c, 13, 72, 0
14, 177747, Note_on_c, 13, 84, 90
14, 177747, Note_on_c, 13, 70, 74
14, 177748, Note_on_c, 13, 80, 81
14, 177768, Note_on_c, 13, 80, 0
14, 177772, Note_on_c, 13, 70, 0
14, 177774, Note_on_c, 13, 84, 0
14, 177779, Note_on_c, 13, 72, 85
14, 177779, Note_on_c, 13, 79, 89
14, 177779, Note_on_c, 13, 76, 84
14, 177807, Note_on_c, 13, 76, 0
14, 177807, Note_on_c, 13, 79, 0
14, 177807, Control_c, 13, 64, 88
14, 177811, Control_c, 13, 64, 40
14, 177814, Control_c, 13, 64, 0
14, 177816, Note_on_c, 13, 84, 100
14, 177816, Note_on_c, 13, 70, 82
14, 177817, Note_on_c, 13, 72, 0
14, 177817, Note_on_c, 13, 80, 90
14, 177826, Control_c, 13, 64, 56
14, 177830, Control_c, 13, 64, 104
14, 177832, Note_on_c, 13, 70, 0
14, 177833, Control_c, 13, 64, 127
14, 177836, Note_on_c, 13, 80, 0
14, 177844, Note_on_c, 13, 84, 0
14, 177850, Note_on_c, 13, 79, 91
14, 177850, Note_on_c, 13, 76, 84
14, 177879, Note_on_c, 13, 76, 0
14, 177879, Note_on_c, 13, 79, 0
14, 177888, Note_on_c, 13, 84, 93
14, 177888, Note_on_c, 13, 80, 79
14, 177910, Note_on_c, 13, 80, 0
14, 177910, Control_c, 13, 64, 56
14, 177914, Control_c, 13, 64, 0
14, 177916, Note_on_c, 13, 84, 0
14, 177919, Note_on_c, 13, 79, 88
14, 177919, Note_on_c, 13, 76, 82
14, 177925, Note_on_c, 13, 48, 78
14, 177928, Control_c, 13, 64, 40
14, 177933, Control_c, 13, 64, 104
14, 177934, Note_on_c, 13, 55, 55
14, 177937, Control_c, 13, 64, 127
14, 177938, Note_on_c, 13, 58, 55
14, 177941, Note_on_c, 13, 48, 0
14, 177947, Note_on_c, 13, 79, 0
14, 177947, Note_on_c, 13, 76, 0
14, 177956, Note_on_c, 13, 64, 100
14, 177958, Note_on_c, 13, 84, 96
14, 177959, Note_on_c, 13, 80, 87
14, 177964, Note_on_c, 13, 55, 0
14, 177969, Note_on_c, 13, 64, 0
14, 177970, Note_on_c, 13, 58, 0
14, 177977, Note_on_c, 13, 80, 0
14, 177985, Note_on_c, 13, 84, 0
14, 177991, Note_on_c, 13, 79, 88
14, 177991, Note_on_c, 13, 76, 82
14, 178017, Note_on_c, 13, 76, 0
14, 178017, Note_on_c, 13, 79, 0
14, 178027, Note_on_c, 13, 84, 80
14, 178032, Note_on_c, 13, 80, 61
14, 178044, Note_on_c, 13, 80, 0
14, 178053, Note_on_c, 13, 84, 0
14, 178058, Note_on_c, 13, 79, 84
14, 178058, Note_on_c, 13, 76, 77
14, 178085, Note_on_c, 13, 76, 0
14, 178085, Note_on_c, 13, 79, 0
14, 178090, Control_c, 13, 64, 104
14, 178094, Control_c, 13, 64, 56
14, 178096, Note_on_c, 13, 36, 88
14, 178097, Note_on_c, 13, 48, 98
14, 178098, Note_on_c, 13, 84, 88
14, 178098, Control_c, 13, 64, 0
14, 178100, Note_on_c, 13, 80, 77
14, 178102, Control_c, 13, 64, 24
14, 178105, Control_c, 13, 64, 72
14, 178109, Control_c, 13, 64, 127
14, 178112, Note_on_c, 13, 36, 0
14, 178116, Note_on_c, 13, 48, 0
14, 178118, Note_on_c, 13, 80, 0
14, 178125, Note_on_c, 13, 84, 0
14, 178131, Note_on_c, 13, 79, 82
14, 178131, Note_on_c, 13, 76, 75
14, 178162, Note_on_c, 13, 76, 0
14, 178162, Note_on_c, 13, 79, 0
14, 178170, Note_on_c, 13, 84, 86
14, 178171, Note_on_c, 13, 80, 73
14, 178190, Note_on_c, 13, 80, 0
14, 178197, Note_on_c, 13, 84, 0
14, 178202, Note_on_c, 13, 79, 81
14, 178202, Note_on_c, 13, 76, 77
14, 178232, Note_on_c, 13, 76, 0
14, 178232, Note_on_c, 13, 79, 0
14, 178239, Note_on_c, 13, 36, 96
14, 178239, Note_on_c, 13, 84, 97
14, 178239, Control_c, 13, 64, 72
14, 178241, Note_on_c, 13, 24, 85
14, 178243, Control_c, 13, 64, 24
14, 178245, Note_on_c, 13, 80, 59
14, 178248, Control_c, 13, 64, 0
14, 178252, Note_on_c, 13, 80, 0
14, 178255, Control_c, 13, 64, 40
14, 178257, Note_on_c, 13, 24, 0
14, 178259, Note_on_c, 13, 36, 0
14, 178259, Control_c, 13, 64, 88
14, 178263, Control_c, 13, 64, 127
14, 178268, Note_on_c, 13, 84, 0
14, 178272, Note_on_c, 13, 79, 87
14, 178272, Note_on_c, 13, 76, 81
14, 178301, Note_on_c, 13, 76, 0
14, 178301, Note_on_c, 13, 79, 0
14, 178303, Note_on_c, 13, 84, 90
14, 178303, Note_on_c, 13, 80, 82
14, 178331, Note_on_c, 13, 80, 0
14, 178331, Note_on_c, 13, 84, 0
14, 178337, Note_on_c, 13, 79, 90
14, 178337, Note_on_c, 13, 76, 82
14, 178351, Note_on_c, 13, 76, 0
14, 178351, Note_on_c, 13, 79, 0
14, 178362, Control_c, 13, 64, 72
14, 178366, Control_c, 13, 64, 0
14, 178381, Note_on_c, 13, 89, 114
14, 178381, Note_on_c, 13, 77, 103
14, 178382, Note_on_c, 13, 41, 101
14, 178382, Note_on_c, 13, 29, 86
14, 178393, Control_c, 13, 64, 127
14, 178395, Note_on_c, 13, 29, 0
14, 178396, Note_on_c, 13, 41, 0
14, 178396, Note_on_c, 13, 77, 0
14, 178403, Note_on_c, 13, 89, 0
14, 178515, Control_c, 13, 64, 56
14, 178519, Control_c, 13, 64, 0
14, 178519, End_track
15, 0, Start_track
15, 0, MIDI_port, 0
15, 0, Title_t, "Concerto No 2 in F min, 1st Mov"
15, 0, End_track
16, 0, Start_track
16, 0, MIDI_port, 0
16, 0, Title_t, "Frederic Chopin"
16, 0, End_track
17, 0, Start_track
17, 0, MIDI_port, 0
17, 0, Title_t, "Robert Finley, piano"
17, 0, End_track
18, 0, Start_track
18, 0, MIDI_port, 0
18, 0, Title_t, "Copyright 1998"
18, 0, End_track
0, 0, End_of_file