0, 0, Header, 1, 11, 240
1, 0, Start_track
1, 0, Time_signature, 4, 2, 96, 8
1, 0, Tempo, 413793
1, 23467, Tempo, 387097
1, 68972, Tempo, 413793
1, 68972, End_track
2, 0, Start_track
2, 0, Title_t, "Chopin Sonata No. 3"
2, 375, Note_on_c, 0, 55, 64
2, 440, Note_on_c, 0, 56, 61
2, 442, Note_off_c, 0, 55, 64
2, 442, Control_c, 0, 64, 24
2, 470, Control_c, 0, 64, 40
2, 492, Note_off_c, 0, 56, 64
2, 510, Control_c, 0, 64, 56
2, 512, Note_on_c, 0, 57, 58
2, 567, Note_off_c, 0, 57, 64
2, 567, Note_on_c, 0, 60, 57
2, 585, Control_c, 0, 64, 0
2, 627, Note_off_c, 0, 60, 64
2, 632, Note_on_c, 0, 58, 61
2, 640, Control_c, 0, 64, 24
2, 647, Control_c, 0, 64, 40
2, 652, Control_c, 0, 64, 72
2, 660, Control_c, 0, 64, 88
2, 675, Note_off_c, 0, 58, 64
2, 687, Control_c, 0, 64, 104
2, 697, Note_on_c, 0, 67, 65
2, 722, Control_c, 0, 64, 88
2, 727, Control_c, 0, 64, 56
2, 735, Control_c, 0, 64, 0
2, 757, Note_off_c, 0, 67, 64
2, 767, Note_on_c, 0, 62, 62
2, 780, Note_on_c, 0, 56, 48
2, 787, Note_on_c, 0, 46, 53
2, 790, Control_c, 0, 64, 24
2, 795, Control_c, 0, 64, 56
2, 802, Control_c, 0, 64, 72
2, 810, Control_c, 0, 64, 88
2, 815, Note_off_c, 0, 62, 64
2, 830, Note_on_c, 0, 65, 65
2, 837, Control_c, 0, 64, 104
2, 840, Note_off_c, 0, 56, 64
2, 845, Control_c, 0, 64, 127
2, 877, Control_c, 0, 64, 72
2, 880, Note_off_c, 0, 65, 64
2, 885, Control_c, 0, 64, 24
2, 890, Control_c, 0, 64, 0
2, 897, Note_on_c, 0, 63, 68
2, 907, Note_on_c, 0, 55, 45
2, 922, Note_off_c, 0, 55, 64
2, 925, Control_c, 0, 64, 56
2, 932, Control_c, 0, 64, 88
2, 937, Control_c, 0, 64, 127
2, 955, Note_off_c, 0, 63, 64
2, 972, Note_on_c, 0, 55, 64
2, 1010, Note_off_c, 0, 55, 64
2, 1022, Note_on_c, 0, 39, 48
2, 1037, Note_on_c, 0, 58, 58
2, 1040, Control_c, 0, 64, 72
2, 1047, Control_c, 0, 64, 0
2, 1087, Control_c, 0, 64, 56
2, 1095, Control_c, 0, 64, 127
2, 1100, Note_on_c, 0, 63, 58
2, 1107, Note_off_c, 0, 58, 64
2, 1135, Note_off_c, 0, 63, 64
2, 1170, Note_on_c, 0, 67, 64
2, 1217, Note_off_c, 0, 67, 64
2, 1227, Note_off_c, 0, 39, 64
2, 1235, Note_off_c, 0, 46, 64
2, 1237, Note_on_c, 0, 68, 60
2, 1275, Note_off_c, 0, 68, 64
2, 1292, Note_on_c, 0, 69, 65
2, 1350, Note_off_c, 0, 69, 64
2, 1360, Note_on_c, 0, 72, 68
2, 1410, Note_off_c, 0, 72, 64
2, 1427, Note_on_c, 0, 70, 67
2, 1460, Note_off_c, 0, 70, 64
2, 1487, Note_on_c, 0, 79, 68
2, 1535, Control_c, 0, 64, 72
2, 1540, Control_c, 0, 64, 0
2, 1550, Note_off_c, 0, 79, 64
2, 1552, Note_on_c, 0, 74, 74
2, 1557, Note_on_c, 0, 68, 40
2, 1560, Note_on_c, 0, 58, 42
2, 1582, Control_c, 0, 64, 40
2, 1590, Control_c, 0, 64, 88
2, 1595, Control_c, 0, 64, 127
2, 1597, Note_off_c, 0, 74, 64
2, 1610, Note_on_c, 0, 77, 78
2, 1625, Note_off_c, 0, 68, 64
2, 1652, Note_off_c, 0, 58, 64
2, 1657, Note_off_c, 0, 77, 64
2, 1657, Control_c, 0, 64, 56
2, 1665, Control_c, 0, 64, 0
2, 1670, Note_on_c, 0, 75, 71
2, 1672, Note_on_c, 0, 58, 20
2, 1675, Note_on_c, 0, 67, 52
2, 1690, Note_off_c, 0, 67, 64
2, 1705, Control_c, 0, 64, 56
2, 1710, Control_c, 0, 64, 127
2, 1720, Note_off_c, 0, 75, 64
2, 1737, Note_on_c, 0, 67, 76
2, 1777, Note_off_c, 0, 67, 64
2, 1802, Note_on_c, 0, 70, 65
2, 1805, Note_on_c, 0, 51, 42
2, 1807, Control_c, 0, 64, 56
2, 1812, Control_c, 0, 64, 0
2, 1840, Control_c, 0, 64, 24
2, 1847, Control_c, 0, 64, 88
2, 1855, Control_c, 0, 64, 127
2, 1865, Note_on_c, 0, 75, 64
2, 1872, Note_off_c, 0, 70, 64
2, 1897, Note_off_c, 0, 75, 64
2, 1927, Note_on_c, 0, 79, 79
2, 1955, Note_off_c, 0, 51, 64
2, 1977, Note_off_c, 0, 79, 64
2, 1990, Note_off_c, 0, 58, 64
2, 1992, Note_on_c, 0, 80, 64
2, 2037, Note_off_c, 0, 80, 64
2, 2045, Note_on_c, 0, 81, 75
2, 2107, Note_on_c, 0, 84, 81
2, 2120, Note_off_c, 0, 81, 64
2, 2157, Note_off_c, 0, 84, 64
2, 2172, Note_on_c, 0, 82, 73
2, 2212, Note_off_c, 0, 82, 64
2, 2232, Note_on_c, 0, 91, 81
2, 2280, Control_c, 0, 64, 104
2, 2287, Control_c, 0, 64, 72
2, 2290, Note_off_c, 0, 91, 64
2, 2295, Note_on_c, 0, 86, 82
2, 2295, Control_c, 0, 64, 24
2, 2302, Note_on_c, 0, 79, 51
2, 2305, Note_on_c, 0, 70, 44
2, 2315, Control_c, 0, 64, 88
2, 2322, Control_c, 0, 64, 127
2, 2347, Note_off_c, 0, 86, 64
2, 2355, Note_on_c, 0, 89, 84
2, 2380, Note_off_c, 0, 79, 64
2, 2410, Note_off_c, 0, 89, 64
2, 2412, Note_off_c, 0, 70, 64
2, 2425, Note_on_c, 0, 87, 73
2, 2427, Note_on_c, 0, 75, 51
2, 2435, Note_on_c, 0, 67, 36
2, 2442, Control_c, 0, 64, 104
2, 2450, Control_c, 0, 64, 56
2, 2457, Control_c, 0, 64, 0
2, 2482, Note_off_c, 0, 87, 64
2, 2490, Note_on_c, 0, 82, 65
2, 2490, Control_c, 0, 64, 72
2, 2495, Note_off_c, 0, 75, 64
2, 2497, Note_off_c, 0, 67, 64
2, 2497, Control_c, 0, 64, 127
2, 2547, Note_off_c, 0, 82, 64
2, 2552, Note_on_c, 0, 79, 74
2, 2582, Note_off_c, 0, 79, 64
2, 2615, Note_on_c, 0, 75, 68
2, 2670, Note_off_c, 0, 75, 64
2, 2682, Note_on_c, 0, 70, 61
2, 2727, Note_off_c, 0, 70, 64
2, 2737, Note_on_c, 0, 67, 76
2, 2767, Note_off_c, 0, 67, 64
2, 2805, Note_on_c, 0, 63, 60
2, 2817, Control_c, 0, 64, 104
2, 2822, Note_on_c, 0, 48, 59
2, 2822, Control_c, 0, 64, 40
2, 2827, Control_c, 0, 64, 0
2, 2877, Note_on_c, 0, 55, 65
2, 2877, Control_c, 0, 64, 40
2, 2885, Control_c, 0, 64, 88
2, 2890, Control_c, 0, 64, 127
2, 2907, Note_off_c, 0, 63, 64
2, 2910, Note_off_c, 0, 55, 64
2, 2935, Note_on_c, 0, 60, 62
2, 2975, Note_off_c, 0, 60, 64
2, 2992, Note_on_c, 0, 63, 64
2, 3055, Note_off_c, 0, 63, 64
2, 3062, Note_on_c, 0, 67, 63
2, 3095, Note_off_c, 0, 67, 64
2, 3122, Note_on_c, 0, 65, 53
2, 3177, Note_off_c, 0, 65, 64
2, 3182, Note_off_c, 0, 48, 64
2, 3182, Control_c, 0, 64, 56
2, 3185, Note_on_c, 0, 63, 60
2, 3187, Note_on_c, 0, 41, 51
2, 3190, Control_c, 0, 64, 0
2, 3235, Note_off_c, 0, 63, 64
2, 3237, Control_c, 0, 64, 72
2, 3242, Control_c, 0, 64, 127
2, 3245, Note_on_c, 0, 56, 57
2, 3277, Note_off_c, 0, 56, 64
2, 3317, Note_on_c, 0, 62, 58
2, 3335, Note_off_c, 0, 62, 64
2, 3372, Note_on_c, 0, 60, 57
2, 3420, Note_off_c, 0, 60, 64
2, 3427, Note_off_c, 0, 41, 64
2, 3440, Note_on_c, 0, 59, 59
2, 3447, Note_on_c, 0, 43, 52
2, 3447, Control_c, 0, 64, 104
2, 3455, Control_c, 0, 64, 56
2, 3460, Control_c, 0, 64, 0
2, 3492, Note_off_c, 0, 59, 64
2, 3502, Note_on_c, 0, 55, 64
2, 3515, Control_c, 0, 64, 40
2, 3520, Control_c, 0, 64, 72
2, 3527, Control_c, 0, 64, 88
2, 3535, Control_c, 0, 64, 104
2, 3550, Note_off_c, 0, 43, 64
2, 3567, Control_c, 0, 64, 40
2, 3575, Note_off_c, 0, 55, 64
2, 3575, Control_c, 0, 64, 0
2, 3577, Note_on_c, 0, 56, 61
2, 3630, Note_off_c, 0, 56, 64
2, 3640, Note_on_c, 0, 57, 58
2, 3662, Control_c, 0, 64, 24
2, 3670, Control_c, 0, 64, 40
2, 3685, Control_c, 0, 64, 56
2, 3690, Note_off_c, 0, 57, 64
2, 3690, Control_c, 0, 64, 72
2, 3695, Note_on_c, 0, 58, 57
2, 3697, Control_c, 0, 64, 88
2, 3710, Control_c, 0, 64, 104
2, 3730, Control_c, 0, 64, 127
2, 3735, Note_off_c, 0, 58, 64
2, 3765, Note_on_c, 0, 67, 65
2, 3780, Control_c, 0, 64, 72
2, 3785, Control_c, 0, 64, 40
2, 3792, Control_c, 0, 64, 0
2, 3830, Note_off_c, 0, 67, 64
2, 3830, Note_on_c, 0, 56, 36
2, 3832, Note_on_c, 0, 62, 58
2, 3835, Note_on_c, 0, 46, 42
2, 3840, Control_c, 0, 64, 24
2, 3847, Control_c, 0, 64, 56
2, 3867, Control_c, 0, 64, 0
2, 3870, Note_off_c, 0, 62, 64
2, 3885, Note_on_c, 0, 65, 62
2, 3900, Note_off_c, 0, 56, 64
2, 3915, Control_c, 0, 64, 40
2, 3922, Control_c, 0, 64, 56
2, 3927, Control_c, 0, 64, 40
2, 3935, Control_c, 0, 64, 0
2, 3940, Note_off_c, 0, 65, 64
2, 3955, Note_on_c, 0, 63, 61
2, 3957, Note_on_c, 0, 55, 52
2, 3970, Control_c, 0, 64, 24
2, 3972, Note_off_c, 0, 55, 64
2, 3975, Control_c, 0, 64, 72
2, 3980, Control_c, 0, 64, 127
2, 3992, Note_off_c, 0, 46, 64
2, 4005, Note_off_c, 0, 63, 64
2, 4025, Note_on_c, 0, 55, 56
2, 4065, Note_off_c, 0, 55, 64
2, 4070, Note_on_c, 0, 39, 47
2, 4070, Control_c, 0, 64, 56
2, 4077, Control_c, 0, 64, 0
2, 4082, Note_on_c, 0, 58, 46
2, 4097, Control_c, 0, 64, 24
2, 4105, Control_c, 0, 64, 88
2, 4112, Control_c, 0, 64, 127
2, 4142, Note_off_c, 0, 58, 64
2, 4142, Note_on_c, 0, 63, 47
2, 4172, Note_off_c, 0, 63, 64
2, 4205, Note_off_c, 0, 39, 64
2, 4212, Note_on_c, 0, 67, 52
2, 4247, Note_off_c, 0, 67, 64
2, 4272, Note_on_c, 0, 68, 46
2, 4297, Note_off_c, 0, 68, 64
2, 4325, Note_on_c, 0, 69, 74
2, 4385, Note_on_c, 0, 72, 77
2, 4397, Note_off_c, 0, 69, 64
2, 4430, Note_off_c, 0, 72, 64
2, 4447, Note_on_c, 0, 70, 71
2, 4482, Note_off_c, 0, 70, 64
2, 4507, Note_on_c, 0, 79, 77
2, 4552, Control_c, 0, 64, 72
2, 4560, Control_c, 0, 64, 0
2, 4570, Note_off_c, 0, 79, 64
2, 4570, Note_on_c, 0, 74, 68
2, 4577, Note_on_c, 0, 68, 47
2, 4582, Note_on_c, 0, 58, 38
2, 4600, Control_c, 0, 64, 56
2, 4605, Control_c, 0, 64, 104
2, 4607, Note_off_c, 0, 74, 64
2, 4612, Control_c, 0, 64, 127
2, 4625, Note_on_c, 0, 77, 76
2, 4635, Note_off_c, 0, 68, 64
2, 4667, Control_c, 0, 64, 72
2, 4672, Note_off_c, 0, 77, 64
2, 4675, Control_c, 0, 64, 0
2, 4687, Note_on_c, 0, 75, 69
2, 4692, Note_on_c, 0, 67, 51
2, 4707, Control_c, 0, 64, 40
2, 4712, Note_off_c, 0, 67, 64
2, 4715, Control_c, 0, 64, 104
2, 4722, Control_c, 0, 64, 127
2, 4725, Note_off_c, 0, 58, 64
2, 4735, Note_off_c, 0, 75, 64
2, 4762, Note_on_c, 0, 67, 59
2, 4812, Note_on_c, 0, 70, 58
2, 4817, Note_on_c, 0, 51, 48
2, 4820, Note_off_c, 0, 67, 64
2, 4870, Note_on_c, 0, 75, 61
2, 4872, Note_off_c, 0, 70, 64
2, 4902, Note_off_c, 0, 75, 64
2, 4937, Note_on_c, 0, 79, 79
2, 4985, Note_off_c, 0, 79, 64
2, 5000, Note_on_c, 0, 80, 64
2, 5047, Note_off_c, 0, 80, 64
2, 5050, Note_on_c, 0, 81, 83
2, 5077, Note_off_c, 0, 51, 64
2, 5115, Note_on_c, 0, 84, 82
2, 5132, Note_off_c, 0, 81, 64
2, 5165, Note_off_c, 0, 84, 64
2, 5177, Note_on_c, 0, 82, 73
2, 5207, Note_off_c, 0, 82, 64
2, 5235, Note_on_c, 0, 82, 70
2, 5265, Note_off_c, 0, 82, 64
2, 5305, Control_c, 0, 64, 104
2, 5310, Control_c, 0, 64, 40
2, 5312, Note_on_c, 0, 96, 86
2, 5315, Note_on_c, 0, 79, 51
2, 5315, Note_on_c, 0, 70, 46
2, 5317, Control_c, 0, 64, 0
2, 5352, Note_off_c, 0, 96, 64
2, 5360, Control_c, 0, 64, 104
2, 5365, Control_c, 0, 64, 127
2, 5367, Note_on_c, 0, 94, 71
2, 5400, Note_off_c, 0, 79, 64
2, 5410, Note_off_c, 0, 70, 64
2, 5415, Note_off_c, 0, 94, 64
2, 5432, Note_on_c, 0, 91, 75
2, 5435, Note_on_c, 0, 75, 50
2, 5440, Note_on_c, 0, 67, 44
2, 5485, Note_off_c, 0, 91, 64
2, 5492, Note_on_c, 0, 87, 69
2, 5520, Note_off_c, 0, 67, 64
2, 5525, Note_off_c, 0, 75, 64
2, 5547, Note_off_c, 0, 87, 64
2, 5557, Note_on_c, 0, 84, 75
2, 5595, Note_off_c, 0, 84, 64
2, 5617, Note_on_c, 0, 82, 57
2, 5670, Note_off_c, 0, 82, 64
2, 5685, Note_on_c, 0, 79, 66
2, 5725, Note_off_c, 0, 79, 64
2, 5740, Note_on_c, 0, 75, 67
2, 5785, Note_off_c, 0, 75, 64
2, 5805, Note_on_c, 0, 72, 61
2, 5832, Note_off_c, 0, 72, 64
2, 5862, Note_on_c, 0, 70, 57
2, 5910, Note_off_c, 0, 70, 64
2, 5930, Note_on_c, 0, 67, 54
2, 5967, Note_off_c, 0, 67, 64
2, 5990, Note_on_c, 0, 60, 64
2, 6010, Control_c, 0, 64, 104
2, 6022, Control_c, 0, 64, 88
2, 6030, Control_c, 0, 64, 72
2, 6035, Control_c, 0, 64, 24
2, 6042, Control_c, 0, 64, 0
2, 6045, Note_off_c, 0, 60, 64
2, 6052, Note_on_c, 0, 62, 69
2, 6062, Note_on_c, 0, 46, 45
2, 6062, Note_on_c, 0, 56, 34
2, 6090, Control_c, 0, 64, 24
2, 6097, Control_c, 0, 64, 88
2, 6105, Note_off_c, 0, 62, 64
2, 6105, Control_c, 0, 64, 127
2, 6117, Note_on_c, 0, 67, 74
2, 6170, Note_off_c, 0, 67, 64
2, 6195, Note_off_c, 0, 46, 64
2, 6197, Note_on_c, 0, 65, 66
2, 6197, Control_c, 0, 64, 104
2, 6205, Note_on_c, 0, 51, 49
2, 6205, Control_c, 0, 64, 40
2, 6212, Control_c, 0, 64, 0
2, 6252, Control_c, 0, 64, 24
2, 6255, Note_off_c, 0, 65, 64
2, 6257, Note_on_c, 0, 63, 65
2, 6260, Control_c, 0, 64, 72
2, 6267, Control_c, 0, 64, 104
2, 6272, Control_c, 0, 64, 127
2, 6307, Note_off_c, 0, 56, 64
2, 6310, Note_off_c, 0, 63, 64
2, 6325, Note_on_c, 0, 57, 61
2, 6327, Control_c, 0, 64, 88
2, 6335, Control_c, 0, 64, 40
2, 6342, Note_on_c, 0, 55, 53
2, 6342, Control_c, 0, 64, 0
2, 6387, Note_off_c, 0, 57, 64
2, 6392, Note_on_c, 0, 58, 57
2, 6427, Note_off_c, 0, 51, 64
2, 6435, Note_off_c, 0, 55, 64
2, 6445, Note_off_c, 0, 58, 64
2, 6455, Note_on_c, 0, 59, 50
2, 6505, Note_off_c, 0, 59, 64
2, 6507, Note_on_c, 0, 60, 63
2, 6525, Control_c, 0, 64, 24
2, 6530, Control_c, 0, 64, 40
2, 6537, Control_c, 0, 64, 56
2, 6545, Control_c, 0, 64, 88
2, 6552, Control_c, 0, 64, 104
2, 6557, Control_c, 0, 64, 127
2, 6560, Note_off_c, 0, 60, 64
2, 6575, Note_on_c, 0, 61, 57
2, 6632, Control_c, 0, 64, 88
2, 6637, Note_off_c, 0, 61, 64
2, 6640, Note_on_c, 0, 63, 59
2, 6640, Control_c, 0, 64, 40
2, 6647, Control_c, 0, 64, 0
2, 6672, Note_off_c, 0, 63, 64
2, 6680, Control_c, 0, 64, 24
2, 6687, Control_c, 0, 64, 56
2, 6695, Control_c, 0, 64, 72
2, 6697, Note_on_c, 0, 62, 66
2, 6700, Control_c, 0, 64, 88
2, 6707, Control_c, 0, 64, 104
2, 6740, Note_off_c, 0, 62, 64
2, 6747, Control_c, 0, 64, 56
2, 6755, Note_on_c, 0, 70, 67
2, 6755, Control_c, 0, 64, 24
2, 6762, Control_c, 0, 64, 0
2, 6767, Control_c, 0, 64, 24
2, 6775, Control_c, 0, 64, 40
2, 6782, Control_c, 0, 64, 56
2, 6787, Control_c, 0, 64, 72
2, 6800, Note_off_c, 0, 70, 64
2, 6810, Control_c, 0, 64, 24
2, 6817, Control_c, 0, 64, 0
2, 6820, Note_on_c, 0, 66, 61
2, 6840, Note_on_c, 0, 60, 41
2, 6845, Note_on_c, 0, 50, 33
2, 6850, Control_c, 0, 64, 24
2, 6855, Control_c, 0, 64, 56
2, 6862, Control_c, 0, 64, 88
2, 6870, Note_off_c, 0, 66, 64
2, 6870, Control_c, 0, 64, 104
2, 6877, Control_c, 0, 64, 127
2, 6885, Note_on_c, 0, 69, 67
2, 6930, Control_c, 0, 64, 72
2, 6932, Note_off_c, 0, 69, 64
2, 6937, Control_c, 0, 64, 0
2, 6950, Note_on_c, 0, 67, 64
2, 6962, Note_on_c, 0, 58, 49
2, 6970, Note_off_c, 0, 60, 64
2, 6972, Control_c, 0, 64, 56
2, 6980, Control_c, 0, 64, 88
2, 6982, Note_off_c, 0, 50, 64
2, 6985, Control_c, 0, 64, 127
2, 6987, Note_off_c, 0, 58, 64
2, 7000, Note_off_c, 0, 67, 64
2, 7015, Note_on_c, 0, 62, 67
2, 7072, Note_off_c, 0, 62, 64
2, 7080, Note_on_c, 0, 58, 62
2, 7095, Note_on_c, 0, 43, 44
2, 7107, Note_off_c, 0, 58, 64
2, 7137, Note_on_c, 0, 62, 66
2, 7172, Note_off_c, 0, 62, 64
2, 7182, Control_c, 0, 64, 88
2, 7190, Control_c, 0, 64, 24
2, 7195, Control_c, 0, 64, 0
2, 7202, Note_on_c, 0, 67, 64
2, 7230, Control_c, 0, 64, 56
2, 7235, Note_off_c, 0, 67, 64
2, 7235, Control_c, 0, 64, 104
2, 7242, Control_c, 0, 64, 127
2, 7265, Note_on_c, 0, 70, 57
2, 7302, Note_off_c, 0, 70, 64
2, 7322, Note_on_c, 0, 73, 59
2, 7340, Note_off_c, 0, 43, 64
2, 7387, Note_on_c, 0, 75, 67
2, 7395, Note_off_c, 0, 73, 64
2, 7412, Note_off_c, 0, 75, 64
2, 7445, Note_on_c, 0, 74, 67
2, 7482, Note_off_c, 0, 74, 64
2, 7497, Note_on_c, 0, 82, 69
2, 7515, Control_c, 0, 64, 104
2, 7520, Control_c, 0, 64, 72
2, 7527, Control_c, 0, 64, 24
2, 7535, Control_c, 0, 64, 0
2, 7547, Note_off_c, 0, 82, 64
2, 7555, Note_on_c, 0, 78, 71
2, 7582, Control_c, 0, 64, 40
2, 7587, Control_c, 0, 64, 88
2, 7595, Control_c, 0, 64, 127
2, 7597, Note_on_c, 0, 62, 34
2, 7597, Note_on_c, 0, 72, 44
2, 7605, Note_off_c, 0, 78, 64
2, 7615, Note_on_c, 0, 81, 74
2, 7662, Control_c, 0, 64, 88
2, 7667, Note_off_c, 0, 81, 64
2, 7670, Control_c, 0, 64, 24
2, 7677, Control_c, 0, 64, 0
2, 7690, Note_on_c, 0, 79, 75
2, 7697, Note_off_c, 0, 72, 64
2, 7697, Note_on_c, 0, 70, 51
2, 7697, Control_c, 0, 64, 40
2, 7705, Control_c, 0, 64, 72
2, 7710, Control_c, 0, 64, 127
2, 7720, Note_off_c, 0, 70, 64
2, 7722, Note_off_c, 0, 62, 64
2, 7737, Note_off_c, 0, 79, 64
2, 7752, Note_on_c, 0, 74, 70
2, 7800, Note_off_c, 0, 74, 64
2, 7830, Note_on_c, 0, 55, 55
2, 7830, Note_on_c, 0, 70, 68
2, 7875, Note_off_c, 0, 70, 64
2, 7882, Note_on_c, 0, 74, 73
2, 7925, Note_off_c, 0, 74, 64
2, 7945, Note_on_c, 0, 79, 72
2, 7947, Control_c, 0, 64, 88
2, 7955, Control_c, 0, 64, 24
2, 7962, Control_c, 0, 64, 0
2, 7975, Control_c, 0, 64, 24
2, 7980, Control_c, 0, 64, 56
2, 7985, Note_off_c, 0, 79, 64
2, 7987, Control_c, 0, 64, 104
2, 7995, Control_c, 0, 64, 127
2, 8005, Note_on_c, 0, 82, 71
2, 8070, Note_on_c, 0, 85, 67
2, 8077, Note_off_c, 0, 82, 64
2, 8100, Note_off_c, 0, 85, 64
2, 8125, Note_off_c, 0, 55, 64
2, 8125, Note_on_c, 0, 86, 85
2, 8195, Note_on_c, 0, 98, 84
2, 8250, Note_on_c, 0, 93, 85
2, 8255, Note_off_c, 0, 98, 64
2, 8277, Note_off_c, 0, 86, 64
2, 8300, Note_off_c, 0, 93, 64
2, 8315, Note_on_c, 0, 96, 82
2, 8320, Note_on_c, 0, 82, 62
2, 8325, Note_on_c, 0, 74, 47
2, 8365, Note_off_c, 0, 96, 64
2, 8372, Note_on_c, 0, 94, 73
2, 8410, Note_off_c, 0, 82, 64
2, 8425, Note_off_c, 0, 74, 64
2, 8437, Control_c, 0, 64, 104
2, 8440, Note_on_c, 0, 91, 71
2, 8442, Control_c, 0, 64, 40
2, 8447, Note_on_c, 0, 79, 73
2, 8450, Note_on_c, 0, 70, 55
2, 8450, Control_c, 0, 64, 0
2, 8485, Control_c, 0, 64, 56
2, 8487, Note_off_c, 0, 91, 64
2, 8490, Control_c, 0, 64, 127
2, 8492, Note_off_c, 0, 94, 64
2, 8495, Note_off_c, 0, 79, 64
2, 8502, Note_on_c, 0, 86, 71
2, 8507, Note_off_c, 0, 70, 64
2, 8527, Note_off_c, 0, 86, 64
2, 8562, Note_on_c, 0, 82, 62
2, 8615, Note_off_c, 0, 82, 64
2, 8622, Note_on_c, 0, 79, 67
2, 8662, Note_off_c, 0, 79, 64
2, 8680, Note_on_c, 0, 74, 68
2, 8710, Note_off_c, 0, 74, 64
2, 8747, Note_on_c, 0, 69, 72
2, 8790, Note_off_c, 0, 69, 64
2, 8810, Note_on_c, 0, 72, 81
2, 8815, Control_c, 0, 64, 88
2, 8822, Control_c, 0, 64, 24
2, 8830, Control_c, 0, 64, 0
2, 8860, Note_off_c, 0, 72, 64
2, 8870, Note_on_c, 0, 70, 64
2, 8870, Control_c, 0, 64, 40
2, 8877, Control_c, 0, 64, 72
2, 8882, Control_c, 0, 64, 104
2, 8890, Control_c, 0, 64, 127
2, 8920, Note_off_c, 0, 70, 64
2, 8932, Control_c, 0, 64, 88
2, 8937, Control_c, 0, 64, 72
2, 8945, Control_c, 0, 64, 56
2, 8947, Note_on_c, 0, 67, 64
2, 8965, Control_c, 0, 64, 104
2, 8972, Control_c, 0, 64, 127
2, 8985, Note_off_c, 0, 67, 64
2, 9005, Note_on_c, 0, 62, 62
2, 9047, Note_off_c, 0, 62, 64
2, 9067, Control_c, 0, 64, 88
2, 9072, Note_on_c, 0, 64, 64
2, 9075, Control_c, 0, 64, 40
2, 9080, Control_c, 0, 64, 0
2, 9082, Note_on_c, 0, 58, 42
2, 9100, Note_on_c, 0, 48, 35
2, 9107, Control_c, 0, 64, 24
2, 9112, Control_c, 0, 64, 56
2, 9120, Control_c, 0, 64, 88
2, 9122, Note_off_c, 0, 64, 64
2, 9127, Control_c, 0, 64, 104
2, 9135, Note_on_c, 0, 68, 65
2, 9135, Control_c, 0, 64, 127
2, 9182, Control_c, 0, 64, 104
2, 9187, Note_off_c, 0, 68, 64
2, 9187, Control_c, 0, 64, 72
2, 9195, Control_c, 0, 64, 0
2, 9207, Note_on_c, 0, 67, 66
2, 9212, Note_on_c, 0, 56, 48
2, 9217, Note_off_c, 0, 58, 64
2, 9230, Control_c, 0, 64, 40
2, 9237, Note_off_c, 0, 56, 64
2, 9237, Control_c, 0, 64, 88
2, 9240, Note_off_c, 0, 48, 64
2, 9242, Control_c, 0, 64, 104
2, 9250, Control_c, 0, 64, 127
2, 9257, Note_off_c, 0, 67, 64
2, 9270, Note_on_c, 0, 65, 67
2, 9325, Control_c, 0, 64, 104
2, 9327, Note_off_c, 0, 65, 64
2, 9330, Control_c, 0, 64, 56
2, 9337, Control_c, 0, 64, 0
2, 9342, Note_on_c, 0, 60, 70
2, 9342, Note_on_c, 0, 41, 43
2, 9380, Note_off_c, 0, 60, 64
2, 9380, Control_c, 0, 64, 40
2, 9385, Control_c, 0, 64, 72
2, 9392, Control_c, 0, 64, 88
2, 9400, Control_c, 0, 64, 104
2, 9410, Note_on_c, 0, 55, 62
2, 9432, Note_off_c, 0, 41, 64
2, 9455, Note_off_c, 0, 55, 64
2, 9467, Note_on_c, 0, 56, 60
2, 9472, Control_c, 0, 64, 88
2, 9480, Control_c, 0, 64, 72
2, 9487, Control_c, 0, 64, 40
2, 9492, Control_c, 0, 64, 0
2, 9530, Note_on_c, 0, 58, 62
2, 9547, Note_off_c, 0, 56, 64
2, 9572, Note_off_c, 0, 58, 64
2, 9595, Note_on_c, 0, 59, 64
2, 9645, Note_off_c, 0, 59, 64
2, 9650, Control_c, 0, 64, 24
2, 9660, Note_on_c, 0, 61, 65
2, 9662, Control_c, 0, 64, 40
2, 9670, Control_c, 0, 64, 56
2, 9682, Control_c, 0, 64, 72
2, 9707, Note_off_c, 0, 61, 64
2, 9712, Control_c, 0, 64, 88
2, 9725, Note_on_c, 0, 60, 65
2, 9732, Control_c, 0, 64, 104
2, 9757, Control_c, 0, 64, 127
2, 9785, Note_off_c, 0, 60, 64
2, 9785, Note_on_c, 0, 68, 59
2, 9805, Control_c, 0, 64, 72
2, 9812, Control_c, 0, 64, 40
2, 9820, Control_c, 0, 64, 0
2, 9845, Note_off_c, 0, 68, 64
2, 9847, Note_on_c, 0, 58, 43
2, 9850, Note_on_c, 0, 64, 65
2, 9860, Note_on_c, 0, 48, 51
2, 9860, Control_c, 0, 64, 40
2, 9867, Control_c, 0, 64, 72
2, 9875, Control_c, 0, 64, 104
2, 9880, Control_c, 0, 64, 127
2, 9897, Note_off_c, 0, 64, 64
2, 9907, Note_on_c, 0, 67, 59
2, 9910, Note_off_c, 0, 58, 64
2, 9942, Control_c, 0, 64, 72
2, 9947, Control_c, 0, 64, 24
2, 9955, Note_off_c, 0, 67, 64
2, 9955, Control_c, 0, 64, 0
2, 9962, Note_off_c, 0, 48, 64
2, 9975, Note_on_c, 0, 65, 60
2, 9975, Control_c, 0, 64, 40
2, 9977, Note_on_c, 0, 56, 48
2, 9982, Control_c, 0, 64, 72
2, 9987, Control_c, 0, 64, 104
2, 9995, Control_c, 0, 64, 127
2, 10005, Note_off_c, 0, 56, 64
2, 10022, Note_off_c, 0, 65, 64
2, 10037, Note_on_c, 0, 60, 63
2, 10090, Note_off_c, 0, 60, 64
2, 10095, Note_on_c, 0, 41, 33
2, 10115, Note_on_c, 0, 56, 59
2, 10132, Note_off_c, 0, 56, 64
2, 10170, Note_on_c, 0, 60, 64
2, 10200, Note_off_c, 0, 60, 64
2, 10227, Control_c, 0, 64, 72
2, 10232, Control_c, 0, 64, 40
2, 10235, Note_on_c, 0, 65, 55
2, 10237, Control_c, 0, 64, 0
2, 10257, Control_c, 0, 64, 72
2, 10267, Note_off_c, 0, 65, 64
2, 10267, Control_c, 0, 64, 104
2, 10272, Control_c, 0, 64, 127
2, 10292, Note_on_c, 0, 68, 61
2, 10337, Note_off_c, 0, 68, 64
2, 10357, Note_on_c, 0, 71, 69
2, 10395, Note_off_c, 0, 41, 64
2, 10420, Note_off_c, 0, 71, 64
2, 10422, Note_on_c, 0, 73, 65
2, 10447, Note_off_c, 0, 73, 64
2, 10480, Note_on_c, 0, 72, 72
2, 10517, Note_off_c, 0, 72, 64
2, 10535, Note_on_c, 0, 80, 73
2, 10537, Control_c, 0, 64, 72
2, 10545, Control_c, 0, 64, 24
2, 10552, Control_c, 0, 64, 0
2, 10582, Note_off_c, 0, 80, 64
2, 10585, Control_c, 0, 64, 24
2, 10592, Control_c, 0, 64, 56
2, 10600, Note_on_c, 0, 76, 75
2, 10600, Control_c, 0, 64, 104
2, 10605, Note_on_c, 0, 70, 54
2, 10605, Control_c, 0, 64, 127
2, 10620, Note_on_c, 0, 60, 41
2, 10642, Note_off_c, 0, 76, 64
2, 10655, Note_on_c, 0, 79, 74
2, 10660, Note_off_c, 0, 70, 64
2, 10705, Note_off_c, 0, 79, 64
2, 10707, Control_c, 0, 64, 72
2, 10715, Control_c, 0, 64, 40
2, 10720, Note_on_c, 0, 77, 79
2, 10727, Note_on_c, 0, 68, 57
2, 10735, Control_c, 0, 64, 88
2, 10742, Control_c, 0, 64, 127
2, 10750, Note_off_c, 0, 60, 64
2, 10772, Note_off_c, 0, 77, 64
2, 10775, Note_off_c, 0, 68, 64
2, 10782, Note_on_c, 0, 72, 75
2, 10827, Note_off_c, 0, 72, 64
2, 10855, Note_on_c, 0, 53, 44
2, 10855, Note_on_c, 0, 68, 67
2, 10900, Note_off_c, 0, 68, 64
2, 10902, Note_on_c, 0, 72, 73
2, 10937, Note_off_c, 0, 72, 64
2, 10967, Note_on_c, 0, 77, 79
2, 11005, Note_off_c, 0, 77, 64
2, 11027, Note_on_c, 0, 80, 65
2, 11092, Note_on_c, 0, 83, 75
2, 11105, Note_off_c, 0, 80, 64
2, 11117, Note_off_c, 0, 83, 64
2, 11147, Note_on_c, 0, 84, 81
2, 11190, Note_off_c, 0, 84, 64
2, 11212, Note_off_c, 0, 53, 64
2, 11215, Note_on_c, 0, 96, 84
2, 11262, Note_off_c, 0, 96, 64
2, 11272, Note_on_c, 0, 91, 86
2, 11322, Note_off_c, 0, 91, 64
2, 11335, Note_on_c, 0, 94, 77
2, 11387, Note_off_c, 0, 94, 64
2, 11392, Note_on_c, 0, 92, 86
2, 11420, Control_c, 0, 64, 104
2, 11425, Control_c, 0, 64, 88
2, 11432, Control_c, 0, 64, 72
2, 11440, Control_c, 0, 64, 56
2, 11445, Control_c, 0, 64, 40
2, 11452, Control_c, 0, 64, 0
2, 11460, Note_on_c, 0, 89, 82
2, 11462, Note_off_c, 0, 92, 64
2, 11472, Note_on_c, 0, 72, 73
2, 11472, Note_on_c, 0, 80, 70
2, 11477, Note_on_c, 0, 74, 66
2, 11507, Control_c, 0, 64, 56
2, 11515, Control_c, 0, 64, 127
2, 11520, Note_off_c, 0, 89, 64
2, 11525, Note_off_c, 0, 74, 64
2, 11527, Note_off_c, 0, 72, 64
2, 11527, Note_on_c, 0, 86, 75
2, 11530, Note_off_c, 0, 80, 64
2, 11560, Note_off_c, 0, 86, 64
2, 11585, Note_on_c, 0, 84, 69
2, 11620, Note_off_c, 0, 84, 64
2, 11647, Note_on_c, 0, 80, 58
2, 11697, Note_off_c, 0, 80, 64
2, 11710, Note_on_c, 0, 77, 74
2, 11755, Note_off_c, 0, 77, 64
2, 11772, Note_on_c, 0, 74, 66
2, 11802, Note_off_c, 0, 74, 64
2, 11835, Note_on_c, 0, 72, 63
2, 11865, Note_off_c, 0, 72, 64
2, 11897, Note_on_c, 0, 68, 57
2, 11952, Note_off_c, 0, 68, 64
2, 11962, Note_on_c, 0, 65, 58
2, 12005, Note_off_c, 0, 65, 64
2, 12027, Note_on_c, 0, 62, 58
2, 12075, Note_off_c, 0, 62, 64
2, 12090, Note_on_c, 0, 68, 58
2, 12140, Note_off_c, 0, 68, 64
2, 12162, Note_on_c, 0, 60, 64
2, 12210, Note_off_c, 0, 60, 64
2, 12245, Control_c, 0, 64, 104
2, 12252, Note_on_c, 0, 59, 58
2, 12255, Control_c, 0, 64, 56
2, 12260, Note_on_c, 0, 50, 42
2, 12260, Control_c, 0, 64, 0
2, 12262, Note_on_c, 0, 43, 41
2, 12300, Control_c, 0, 64, 40
2, 12307, Control_c, 0, 64, 88
2, 12315, Control_c, 0, 64, 127
2, 12327, Note_off_c, 0, 59, 64
2, 12335, Note_on_c, 0, 55, 56
2, 12372, Note_off_c, 0, 55, 64
2, 12375, Note_on_c, 0, 56, 53
2, 12402, Note_off_c, 0, 56, 64
2, 12407, Note_on_c, 0, 58, 55
2, 12427, Control_c, 0, 64, 104
2, 12435, Note_on_c, 0, 56, 53
2, 12435, Control_c, 0, 64, 56
2, 12442, Control_c, 0, 64, 0
2, 12445, Note_off_c, 0, 58, 64
2, 12490, Control_c, 0, 64, 40
2, 12495, Note_off_c, 0, 50, 64
2, 12497, Note_off_c, 0, 56, 64
2, 12497, Control_c, 0, 64, 72
2, 12500, Note_off_c, 0, 43, 64
2, 12505, Note_on_c, 0, 55, 56
2, 12505, Control_c, 0, 64, 104
2, 12575, Note_off_c, 0, 55, 64
2, 12585, Note_on_c, 0, 67, 56
2, 12592, Control_c, 0, 64, 40
2, 12597, Control_c, 0, 64, 0
2, 12632, Note_off_c, 0, 67, 64
2, 12652, Control_c, 0, 64, 40
2, 12655, Note_on_c, 0, 55, 61
2, 12660, Control_c, 0, 64, 56
2, 12672, Control_c, 0, 64, 40
2, 12680, Control_c, 0, 64, 24
2, 12687, Control_c, 0, 64, 0
2, 12720, Note_off_c, 0, 55, 64
2, 12727, Note_on_c, 0, 56, 57
2, 12747, Control_c, 0, 64, 40
2, 12755, Control_c, 0, 64, 56
2, 12760, Control_c, 0, 64, 72
2, 12785, Note_off_c, 0, 56, 64
2, 12795, Note_on_c, 0, 57, 59
2, 12810, Control_c, 0, 64, 88
2, 12835, Control_c, 0, 64, 104
2, 12842, Note_off_c, 0, 57, 64
2, 12847, Note_on_c, 0, 58, 54
2, 12855, Control_c, 0, 64, 127
2, 12890, Note_off_c, 0, 58, 64
2, 12925, Note_on_c, 0, 67, 58
2, 12957, Control_c, 0, 64, 72
2, 12965, Control_c, 0, 64, 0
2, 12970, Note_off_c, 0, 67, 64
2, 12985, Note_on_c, 0, 46, 43
2, 12985, Note_on_c, 0, 56, 40
2, 12990, Note_on_c, 0, 62, 58
2, 13005, Control_c, 0, 64, 40
2, 13012, Control_c, 0, 64, 88
2, 13020, Control_c, 0, 64, 127
2, 13027, Note_off_c, 0, 62, 64
2, 13045, Note_off_c, 0, 56, 64
2, 13045, Note_on_c, 0, 65, 59
2, 13045, Control_c, 0, 64, 104
2, 13052, Control_c, 0, 64, 56
2, 13060, Control_c, 0, 64, 0
2, 13090, Note_off_c, 0, 65, 64
2, 13095, Control_c, 0, 64, 24
2, 13100, Control_c, 0, 64, 72
2, 13107, Control_c, 0, 64, 104
2, 13115, Note_on_c, 0, 63, 55
2, 13115, Control_c, 0, 64, 127
2, 13117, Note_on_c, 0, 55, 46
2, 13132, Note_off_c, 0, 55, 64
2, 13145, Note_off_c, 0, 46, 64
2, 13162, Note_off_c, 0, 63, 64
2, 13187, Note_on_c, 0, 55, 56
2, 13235, Note_on_c, 0, 39, 47
2, 13252, Note_on_c, 0, 58, 55
2, 13255, Note_off_c, 0, 55, 64
2, 13257, Control_c, 0, 64, 88
2, 13262, Control_c, 0, 64, 40
2, 13270, Control_c, 0, 64, 0
2, 13297, Control_c, 0, 64, 56
2, 13302, Control_c, 0, 64, 104
2, 13310, Control_c, 0, 64, 127
2, 13315, Note_off_c, 0, 58, 64
2, 13315, Note_on_c, 0, 63, 55
2, 13342, Note_off_c, 0, 63, 64
2, 13382, Note_on_c, 0, 67, 58
2, 13420, Note_off_c, 0, 67, 64
2, 13427, Note_off_c, 0, 39, 64
2, 13450, Note_on_c, 0, 68, 53
2, 13492, Note_off_c, 0, 68, 64
2, 13500, Note_on_c, 0, 69, 70
2, 13550, Note_off_c, 0, 69, 64
2, 13560, Note_on_c, 0, 72, 72
2, 13605, Note_off_c, 0, 72, 64
2, 13625, Note_on_c, 0, 70, 65
2, 13660, Note_off_c, 0, 70, 64
2, 13685, Note_on_c, 0, 79, 70
2, 13735, Note_off_c, 0, 79, 64
2, 13737, Control_c, 0, 64, 72
2, 13745, Control_c, 0, 64, 0
2, 13750, Note_on_c, 0, 74, 73
2, 13757, Note_on_c, 0, 58, 36
2, 13757, Note_on_c, 0, 68, 38
2, 13785, Control_c, 0, 64, 56
2, 13792, Control_c, 0, 64, 88
2, 13795, Note_off_c, 0, 74, 64
2, 13797, Control_c, 0, 64, 127
2, 13805, Note_on_c, 0, 77, 73
2, 13815, Note_off_c, 0, 68, 64
2, 13852, Control_c, 0, 64, 88
2, 13860, Control_c, 0, 64, 24
2, 13862, Note_off_c, 0, 77, 64
2, 13865, Control_c, 0, 64, 0
2, 13872, Note_on_c, 0, 75, 71
2, 13877, Note_on_c, 0, 67, 52
2, 13885, Control_c, 0, 64, 40
2, 13895, Control_c, 0, 64, 88
2, 13897, Note_off_c, 0, 67, 64
2, 13900, Control_c, 0, 64, 127
2, 13912, Note_off_c, 0, 58, 64
2, 13920, Note_off_c, 0, 75, 64
2, 13937, Note_on_c, 0, 67, 59
2, 13992, Note_on_c, 0, 70, 61
2, 13995, Note_off_c, 0, 67, 64
2, 13997, Note_on_c, 0, 51, 50
2, 14050, Note_on_c, 0, 75, 65
2, 14055, Note_off_c, 0, 70, 64
2, 14080, Note_off_c, 0, 75, 64
2, 14095, Note_off_c, 0, 51, 64
2, 14115, Note_on_c, 0, 79, 72
2, 14155, Note_off_c, 0, 79, 64
2, 14175, Note_on_c, 0, 80, 64
2, 14215, Note_off_c, 0, 80, 64
2, 14227, Note_on_c, 0, 81, 69
2, 14280, Note_off_c, 0, 81, 64
2, 14285, Note_on_c, 0, 84, 82
2, 14327, Note_off_c, 0, 84, 64
2, 14347, Note_on_c, 0, 82, 76
2, 14387, Note_off_c, 0, 82, 64
2, 14410, Note_on_c, 0, 91, 79
2, 14462, Note_off_c, 0, 91, 64
2, 14475, Note_on_c, 0, 86, 76
2, 14487, Note_on_c, 0, 79, 55
2, 14490, Note_on_c, 0, 70, 46
2, 14522, Note_off_c, 0, 86, 64
2, 14535, Note_on_c, 0, 89, 78
2, 14562, Note_off_c, 0, 79, 64
2, 14577, Note_off_c, 0, 70, 64
2, 14587, Note_off_c, 0, 89, 64
2, 14602, Note_on_c, 0, 87, 72
2, 14610, Note_on_c, 0, 75, 47
2, 14610, Control_c, 0, 64, 88
2, 14615, Note_on_c, 0, 67, 47
2, 14620, Control_c, 0, 64, 24
2, 14625, Control_c, 0, 64, 0
2, 14660, Control_c, 0, 64, 56
2, 14662, Note_on_c, 0, 82, 62
2, 14665, Control_c, 0, 64, 127
2, 14682, Note_off_c, 0, 75, 64
2, 14682, Note_off_c, 0, 87, 64
2, 14685, Note_off_c, 0, 67, 64
2, 14710, Note_off_c, 0, 82, 64
2, 14720, Note_on_c, 0, 79, 68
2, 14750, Note_off_c, 0, 79, 64
2, 14785, Note_on_c, 0, 75, 65
2, 14827, Note_off_c, 0, 75, 64
2, 14850, Note_on_c, 0, 70, 53
2, 14882, Note_off_c, 0, 70, 64
2, 14905, Note_on_c, 0, 67, 63
2, 14920, Note_off_c, 0, 67, 64
2, 14967, Note_on_c, 0, 63, 54
2, 14985, Note_on_c, 0, 48, 64
2, 14992, Control_c, 0, 64, 72
2, 14997, Control_c, 0, 64, 0
2, 15040, Note_off_c, 0, 63, 64
2, 15040, Note_on_c, 0, 55, 66
2, 15040, Control_c, 0, 64, 24
2, 15047, Control_c, 0, 64, 88
2, 15052, Control_c, 0, 64, 127
2, 15085, Note_off_c, 0, 55, 64
2, 15100, Note_on_c, 0, 60, 70
2, 15135, Note_off_c, 0, 60, 64
2, 15160, Note_on_c, 0, 63, 64
2, 15215, Note_off_c, 0, 63, 64
2, 15222, Note_on_c, 0, 67, 68
2, 15255, Note_off_c, 0, 67, 64
2, 15282, Note_on_c, 0, 65, 63
2, 15330, Note_off_c, 0, 65, 64
2, 15337, Control_c, 0, 64, 72
2, 15340, Note_off_c, 0, 48, 64
2, 15342, Control_c, 0, 64, 24
2, 15347, Note_on_c, 0, 63, 56
2, 15350, Note_on_c, 0, 41, 55
2, 15352, Control_c, 0, 64, 0
2, 15392, Control_c, 0, 64, 56
2, 15395, Note_off_c, 0, 63, 64
2, 15400, Control_c, 0, 64, 104
2, 15405, Control_c, 0, 64, 127
2, 15407, Note_on_c, 0, 56, 58
2, 15450, Note_off_c, 0, 56, 64
2, 15477, Note_on_c, 0, 62, 62
2, 15510, Note_off_c, 0, 62, 64
2, 15537, Note_on_c, 0, 60, 64
2, 15582, Note_off_c, 0, 60, 64
2, 15590, Note_off_c, 0, 41, 64
2, 15605, Note_on_c, 0, 59, 58
2, 15607, Note_on_c, 0, 43, 42
2, 15622, Control_c, 0, 64, 104
2, 15627, Control_c, 0, 64, 88
2, 15635, Control_c, 0, 64, 56
2, 15642, Control_c, 0, 64, 0
2, 15655, Note_off_c, 0, 59, 64
2, 15667, Note_on_c, 0, 55, 58
2, 15705, Control_c, 0, 64, 40
2, 15710, Control_c, 0, 64, 56
2, 15717, Control_c, 0, 64, 88
2, 15727, Note_off_c, 0, 55, 64
2, 15732, Note_on_c, 0, 56, 56
2, 15750, Control_c, 0, 64, 104
2, 15757, Note_off_c, 0, 43, 64
2, 15780, Note_off_c, 0, 56, 64
2, 15797, Note_on_c, 0, 57, 55
2, 15840, Note_off_c, 0, 57, 64
2, 15850, Note_on_c, 0, 58, 47
2, 15867, Control_c, 0, 64, 127
2, 15887, Note_off_c, 0, 58, 64
2, 15925, Note_on_c, 0, 67, 58
2, 15940, Control_c, 0, 64, 104
2, 15947, Control_c, 0, 64, 88
2, 15955, Control_c, 0, 64, 56
2, 15960, Control_c, 0, 64, 24
2, 15967, Control_c, 0, 64, 0
2, 15985, Note_off_c, 0, 67, 64
2, 15987, Note_on_c, 0, 62, 61
2, 15990, Note_on_c, 0, 56, 39
2, 15992, Note_on_c, 0, 46, 44
2, 16010, Control_c, 0, 64, 40
2, 16015, Control_c, 0, 64, 88
2, 16022, Control_c, 0, 64, 127
2, 16030, Note_off_c, 0, 62, 64
2, 16042, Note_on_c, 0, 65, 63
2, 16045, Note_off_c, 0, 56, 64
2, 16075, Control_c, 0, 64, 72
2, 16082, Control_c, 0, 64, 24
2, 16090, Control_c, 0, 64, 0
2, 16095, Note_off_c, 0, 65, 64
2, 16110, Note_on_c, 0, 63, 57
2, 16115, Note_on_c, 0, 55, 50
2, 16117, Control_c, 0, 64, 40
2, 16122, Control_c, 0, 64, 88
2, 16130, Note_off_c, 0, 55, 64
2, 16130, Control_c, 0, 64, 127
2, 16142, Note_off_c, 0, 46, 64
2, 16157, Note_off_c, 0, 63, 64
2, 16172, Note_on_c, 0, 55, 54
2, 16225, Control_c, 0, 64, 104
2, 16227, Note_on_c, 0, 39, 37
2, 16232, Note_off_c, 0, 55, 64
2, 16232, Note_on_c, 0, 58, 49
2, 16232, Control_c, 0, 64, 56
2, 16240, Control_c, 0, 64, 0
2, 16260, Control_c, 0, 64, 72
2, 16265, Control_c, 0, 64, 127
2, 16285, Note_on_c, 0, 63, 57
2, 16292, Note_off_c, 0, 58, 64
2, 16317, Note_off_c, 0, 63, 64
2, 16335, Note_off_c, 0, 39, 64
2, 16357, Note_on_c, 0, 67, 68
2, 16392, Note_off_c, 0, 67, 64
2, 16420, Note_on_c, 0, 68, 50
2, 16457, Note_off_c, 0, 68, 64
2, 16465, Note_on_c, 0, 69, 64
2, 16525, Note_off_c, 0, 69, 64
2, 16530, Note_on_c, 0, 72, 68
2, 16575, Note_off_c, 0, 72, 64
2, 16592, Note_on_c, 0, 70, 64
2, 16630, Note_off_c, 0, 70, 64
2, 16655, Note_on_c, 0, 79, 75
2, 16692, Control_c, 0, 64, 88
2, 16700, Control_c, 0, 64, 40
2, 16707, Note_off_c, 0, 79, 64
2, 16707, Control_c, 0, 64, 0
2, 16717, Note_on_c, 0, 74, 76
2, 16727, Note_on_c, 0, 68, 45
2, 16735, Note_on_c, 0, 58, 35
2, 16740, Control_c, 0, 64, 40
2, 16747, Control_c, 0, 64, 88
2, 16755, Control_c, 0, 64, 127
2, 16762, Note_off_c, 0, 74, 64
2, 16772, Note_on_c, 0, 77, 76
2, 16782, Note_off_c, 0, 68, 64
2, 16810, Control_c, 0, 64, 104
2, 16815, Control_c, 0, 64, 40
2, 16822, Control_c, 0, 64, 0
2, 16825, Note_off_c, 0, 77, 64
2, 16835, Note_on_c, 0, 75, 71
2, 16842, Control_c, 0, 64, 24
2, 16845, Note_on_c, 0, 67, 58
2, 16850, Control_c, 0, 64, 88
2, 16855, Control_c, 0, 64, 127
2, 16860, Note_off_c, 0, 67, 64
2, 16867, Note_off_c, 0, 58, 64
2, 16882, Note_off_c, 0, 75, 64
2, 16900, Note_on_c, 0, 67, 62
2, 16955, Note_on_c, 0, 70, 61
2, 16962, Note_on_c, 0, 51, 49
2, 16970, Note_off_c, 0, 67, 64
2, 17017, Note_on_c, 0, 75, 64
2, 17027, Note_off_c, 0, 70, 64
2, 17055, Note_off_c, 0, 75, 64
2, 17087, Note_on_c, 0, 79, 76
2, 17130, Note_off_c, 0, 79, 64
2, 17142, Note_off_c, 0, 51, 64
2, 17145, Note_on_c, 0, 80, 63
2, 17185, Note_off_c, 0, 80, 64
2, 17195, Note_on_c, 0, 81, 78
2, 17257, Note_on_c, 0, 84, 78
2, 17270, Note_off_c, 0, 81, 64
2, 17310, Note_off_c, 0, 84, 64
2, 17322, Note_on_c, 0, 82, 74
2, 17352, Note_off_c, 0, 82, 64
2, 17382, Note_on_c, 0, 82, 67
2, 17412, Note_off_c, 0, 82, 64
2, 17452, Control_c, 0, 64, 104
2, 17460, Note_on_c, 0, 96, 90
2, 17460, Control_c, 0, 64, 56
2, 17467, Note_on_c, 0, 79, 58
2, 17467, Control_c, 0, 64, 0
2, 17472, Note_on_c, 0, 70, 48
2, 17487, Control_c, 0, 64, 24
2, 17492, Control_c, 0, 64, 88
2, 17500, Control_c, 0, 64, 127
2, 17502, Note_off_c, 0, 96, 64
2, 17520, Note_on_c, 0, 94, 71
2, 17542, Note_off_c, 0, 79, 64
2, 17555, Note_off_c, 0, 70, 64
2, 17567, Note_off_c, 0, 94, 64
2, 17585, Note_on_c, 0, 91, 75
2, 17587, Note_on_c, 0, 75, 55
2, 17590, Note_on_c, 0, 67, 43
2, 17630, Note_off_c, 0, 67, 64
2, 17635, Note_off_c, 0, 75, 64
2, 17635, Note_off_c, 0, 91, 64
2, 17650, Note_on_c, 0, 87, 64
2, 17715, Note_off_c, 0, 87, 64
2, 17720, Note_on_c, 0, 84, 74
2, 17750, Note_off_c, 0, 84, 64
2, 17785, Note_on_c, 0, 82, 59
2, 17825, Note_off_c, 0, 82, 64
2, 17847, Note_on_c, 0, 79, 68
2, 17895, Note_off_c, 0, 79, 64
2, 17925, Note_on_c, 0, 75, 64
2, 17960, Note_off_c, 0, 75, 64
2, 17980, Note_on_c, 0, 72, 66
2, 18017, Note_off_c, 0, 72, 64
2, 18035, Note_on_c, 0, 69, 80
2, 18085, Note_off_c, 0, 69, 64
2, 18097, Note_on_c, 0, 72, 80
2, 18127, Note_off_c, 0, 72, 64
2, 18155, Note_on_c, 0, 70, 79
2, 18185, Note_off_c, 0, 70, 64
2, 18225, Control_c, 0, 64, 104
2, 18232, Control_c, 0, 64, 56
2, 18235, Note_on_c, 0, 84, 86
2, 18237, Control_c, 0, 64, 0
2, 18240, Note_on_c, 0, 67, 54
2, 18245, Note_on_c, 0, 58, 47
2, 18272, Control_c, 0, 64, 24
2, 18280, Control_c, 0, 64, 72
2, 18282, Note_off_c, 0, 84, 64
2, 18287, Control_c, 0, 64, 127
2, 18292, Note_on_c, 0, 82, 67
2, 18327, Note_off_c, 0, 67, 64
2, 18340, Note_off_c, 0, 58, 64
2, 18342, Note_off_c, 0, 82, 64
2, 18362, Note_on_c, 0, 79, 71
2, 18367, Note_on_c, 0, 63, 48
2, 18372, Note_on_c, 0, 55, 46
2, 18407, Note_off_c, 0, 63, 64
2, 18410, Note_off_c, 0, 55, 64
2, 18412, Note_off_c, 0, 79, 64
2, 18427, Note_on_c, 0, 75, 68
2, 18482, Note_off_c, 0, 75, 64
2, 18495, Note_on_c, 0, 72, 70
2, 18530, Note_off_c, 0, 72, 64
2, 18560, Note_on_c, 0, 70, 44
2, 18592, Note_off_c, 0, 70, 64
2, 18620, Note_on_c, 0, 67, 60
2, 18667, Note_off_c, 0, 67, 64
2, 18680, Note_on_c, 0, 63, 61
2, 18732, Note_off_c, 0, 63, 64
2, 18742, Note_on_c, 0, 60, 67
2, 18772, Note_off_c, 0, 60, 64
2, 18795, Note_on_c, 0, 57, 61
2, 18855, Note_off_c, 0, 57, 64
2, 18862, Note_on_c, 0, 60, 63
2, 18900, Note_off_c, 0, 60, 64
2, 18930, Note_on_c, 0, 58, 73
2, 18955, Note_off_c, 0, 58, 64
2, 18982, Control_c, 0, 64, 104
2, 18992, Control_c, 0, 64, 72
2, 18997, Control_c, 0, 64, 0
2, 19010, Note_on_c, 0, 72, 79
2, 19015, Note_on_c, 0, 60, 59
2, 19052, Note_off_c, 0, 60, 64
2, 19052, Control_c, 0, 64, 24
2, 19055, Note_off_c, 0, 72, 64
2, 19057, Control_c, 0, 64, 72
2, 19065, Control_c, 0, 64, 88
2, 19067, Note_on_c, 0, 70, 64
2, 19070, Note_on_c, 0, 58, 47
2, 19072, Control_c, 0, 64, 104
2, 19107, Note_off_c, 0, 58, 64
2, 19120, Note_off_c, 0, 70, 64
2, 19137, Note_on_c, 0, 67, 57
2, 19145, Note_on_c, 0, 55, 39
2, 19182, Note_off_c, 0, 67, 64
2, 19190, Note_off_c, 0, 55, 64
2, 19195, Note_on_c, 0, 63, 63
2, 19200, Note_on_c, 0, 51, 49
2, 19242, Note_off_c, 0, 51, 64
2, 19250, Note_off_c, 0, 63, 64
2, 19260, Note_on_c, 0, 60, 66
2, 19260, Note_on_c, 0, 48, 58
2, 19277, Control_c, 0, 64, 127
2, 19305, Note_off_c, 0, 48, 64
2, 19305, Note_off_c, 0, 60, 64
2, 19317, Note_on_c, 0, 58, 57
2, 19325, Note_on_c, 0, 46, 52
2, 19357, Note_off_c, 0, 58, 64
2, 19357, Control_c, 0, 64, 104
2, 19365, Control_c, 0, 64, 72
2, 19370, Control_c, 0, 64, 24
2, 19372, Note_off_c, 0, 46, 64
2, 19377, Control_c, 0, 64, 0
2, 19382, Note_on_c, 0, 67, 73
2, 19390, Note_on_c, 0, 55, 60
2, 19405, Control_c, 0, 64, 40
2, 19412, Control_c, 0, 64, 72
2, 19420, Control_c, 0, 64, 104
2, 19422, Note_off_c, 0, 67, 64
2, 19425, Control_c, 0, 64, 127
2, 19430, Note_off_c, 0, 55, 64
2, 19442, Note_on_c, 0, 63, 61
2, 19447, Note_on_c, 0, 51, 60
2, 19490, Note_off_c, 0, 51, 64
2, 19492, Note_off_c, 0, 63, 64
2, 19507, Note_on_c, 0, 48, 59
2, 19510, Note_on_c, 0, 60, 64
2, 19552, Note_off_c, 0, 48, 64
2, 19555, Note_on_c, 0, 46, 55
2, 19560, Note_off_c, 0, 60, 64
2, 19570, Note_on_c, 0, 58, 54
2, 19620, Note_off_c, 0, 58, 64
2, 19630, Note_on_c, 0, 55, 75
2, 19635, Note_off_c, 0, 46, 64
2, 19637, Note_on_c, 0, 43, 55
2, 19655, Note_off_c, 0, 43, 64
2, 19662, Note_off_c, 0, 55, 64
2, 19692, Note_on_c, 0, 67, 70
2, 19697, Note_on_c, 0, 55, 51
2, 19732, Note_off_c, 0, 67, 64
2, 19740, Note_off_c, 0, 55, 64
2, 19750, Control_c, 0, 64, 104
2, 19757, Control_c, 0, 64, 56
2, 19760, Note_on_c, 0, 63, 60
2, 19765, Control_c, 0, 64, 24
2, 19767, Note_on_c, 0, 51, 65
2, 19785, Control_c, 0, 64, 56
2, 19792, Control_c, 0, 64, 88
2, 19797, Control_c, 0, 64, 127
2, 19810, Note_off_c, 0, 51, 64
2, 19810, Note_off_c, 0, 63, 64
2, 19822, Note_on_c, 0, 60, 62
2, 19822, Note_on_c, 0, 48, 70
2, 19875, Note_off_c, 0, 48, 64
2, 19875, Note_off_c, 0, 60, 64
2, 19885, Note_on_c, 0, 58, 53
2, 19885, Note_on_c, 0, 46, 55
2, 19930, Note_off_c, 0, 58, 64
2, 19940, Note_off_c, 0, 46, 64
2, 19942, Note_on_c, 0, 55, 75
2, 19957, Note_on_c, 0, 43, 59
2, 19990, Note_off_c, 0, 43, 64
2, 19995, Note_off_c, 0, 55, 64
2, 20007, Note_on_c, 0, 63, 65
2, 20015, Note_on_c, 0, 51, 60
2, 20052, Note_off_c, 0, 51, 64
2, 20052, Note_off_c, 0, 63, 64
2, 20067, Note_on_c, 0, 60, 70
2, 20077, Note_on_c, 0, 48, 63
2, 20117, Note_off_c, 0, 48, 64
2, 20120, Note_on_c, 0, 46, 60
2, 20127, Note_off_c, 0, 60, 64
2, 20130, Note_on_c, 0, 58, 62
2, 20187, Note_off_c, 0, 58, 64
2, 20192, Note_on_c, 0, 55, 77
2, 20200, Note_on_c, 0, 43, 51
2, 20202, Note_off_c, 0, 46, 64
2, 20212, Note_off_c, 0, 43, 64
2, 20230, Note_off_c, 0, 55, 64
2, 20250, Control_c, 0, 64, 88
2, 20260, Note_on_c, 0, 51, 77
2, 20260, Control_c, 0, 64, 56
2, 20265, Note_on_c, 0, 39, 52
2, 20265, Control_c, 0, 64, 0
2, 20280, Note_off_c, 0, 39, 64
2, 20300, Control_c, 0, 64, 40
2, 20307, Control_c, 0, 64, 72
2, 20312, Control_c, 0, 64, 104
2, 20315, Note_off_c, 0, 51, 64
2, 20320, Control_c, 0, 64, 127
2, 20330, Note_on_c, 0, 50, 54
2, 20332, Note_on_c, 0, 38, 48
2, 20365, Note_off_c, 0, 50, 64
2, 20372, Note_off_c, 0, 38, 64
2, 20385, Note_on_c, 0, 41, 50
2, 20385, Note_on_c, 0, 53, 70
2, 20422, Note_off_c, 0, 41, 64
2, 20432, Note_off_c, 0, 53, 64
2, 20437, Note_on_c, 0, 39, 51
2, 20445, Note_on_c, 0, 51, 67
2, 20487, Note_off_c, 0, 39, 64
2, 20497, Note_off_c, 0, 51, 64
2, 20502, Note_on_c, 0, 37, 57
2, 20505, Control_c, 0, 64, 104
2, 20507, Note_on_c, 0, 49, 73
2, 20510, Control_c, 0, 64, 56
2, 20517, Control_c, 0, 64, 0
2, 20550, Control_c, 0, 64, 24
2, 20557, Control_c, 0, 64, 56
2, 20562, Note_off_c, 0, 49, 64
2, 20565, Control_c, 0, 64, 88
2, 20570, Note_on_c, 0, 53, 66
2, 20570, Control_c, 0, 64, 127
2, 20572, Note_on_c, 0, 41, 64
2, 20575, Note_off_c, 0, 37, 64
2, 20622, Note_off_c, 0, 41, 64
2, 20622, Note_off_c, 0, 53, 64
2, 20625, Note_on_c, 0, 39, 58
2, 20632, Note_on_c, 0, 51, 64
2, 20677, Note_off_c, 0, 39, 64
2, 20680, Control_c, 0, 64, 104
2, 20687, Note_off_c, 0, 51, 64
2, 20687, Control_c, 0, 64, 56
2, 20692, Control_c, 0, 64, 24
2, 20695, Note_on_c, 0, 48, 87
2, 20695, Note_on_c, 0, 36, 66
2, 20700, Control_c, 0, 64, 0
2, 20720, Control_c, 0, 64, 72
2, 20727, Control_c, 0, 64, 88
2, 20735, Control_c, 0, 64, 127
2, 20747, Note_on_c, 0, 41, 53
2, 20752, Note_off_c, 0, 36, 64
2, 20760, Note_on_c, 0, 53, 64
2, 20772, Note_off_c, 0, 48, 64
2, 20797, Note_off_c, 0, 53, 64
2, 20797, Note_off_c, 0, 41, 64
2, 20805, Note_on_c, 0, 39, 54
2, 20815, Note_on_c, 0, 51, 63
2, 20865, Note_off_c, 0, 39, 64
2, 20867, Note_off_c, 0, 51, 64
2, 20870, Control_c, 0, 64, 88
2, 20872, Note_on_c, 0, 47, 82
2, 20875, Note_on_c, 0, 35, 66
2, 20877, Control_c, 0, 64, 40
2, 20882, Control_c, 0, 64, 24
2, 20902, Control_c, 0, 64, 56
2, 20910, Control_c, 0, 64, 72
2, 20917, Control_c, 0, 64, 104
2, 20922, Control_c, 0, 64, 127
2, 20925, Note_on_c, 0, 41, 54
2, 20930, Note_off_c, 0, 35, 64
2, 20932, Note_on_c, 0, 53, 69
2, 20957, Note_off_c, 0, 47, 64
2, 20972, Note_off_c, 0, 41, 64
2, 20975, Note_off_c, 0, 53, 64
2, 20977, Note_on_c, 0, 39, 54
2, 20990, Note_on_c, 0, 51, 67
2, 21037, Note_off_c, 0, 51, 64
2, 21040, Note_off_c, 0, 39, 64
2, 21040, Control_c, 0, 64, 104
2, 21045, Control_c, 0, 64, 56
2, 21047, Note_on_c, 0, 34, 65
2, 21050, Note_on_c, 0, 46, 83
2, 21052, Control_c, 0, 64, 0
2, 21072, Control_c, 0, 64, 24
2, 21080, Control_c, 0, 64, 56
2, 21085, Control_c, 0, 64, 88
2, 21092, Control_c, 0, 64, 127
2, 21097, Note_on_c, 0, 41, 56
2, 21107, Note_off_c, 0, 34, 64
2, 21110, Note_on_c, 0, 53, 66
2, 21145, Note_off_c, 0, 53, 64
2, 21145, Note_off_c, 0, 41, 64
2, 21147, Note_off_c, 0, 46, 64
2, 21162, Note_on_c, 0, 51, 62
2, 21207, Note_off_c, 0, 51, 64
2, 21207, Control_c, 0, 64, 56
2, 21215, Note_on_c, 0, 45, 93
2, 21215, Control_c, 0, 64, 0
2, 21217, Note_on_c, 0, 33, 66
2, 21242, Control_c, 0, 64, 24
2, 21250, Control_c, 0, 64, 72
2, 21255, Control_c, 0, 64, 127
2, 21267, Note_on_c, 0, 41, 59
2, 21272, Note_on_c, 0, 53, 69
2, 21307, Note_off_c, 0, 45, 64
2, 21315, Note_off_c, 0, 53, 64
2, 21317, Note_off_c, 0, 41, 64
2, 21320, Note_on_c, 0, 39, 56
2, 21322, Note_on_c, 0, 51, 72
2, 21357, Note_off_c, 0, 33, 64
2, 21377, Note_off_c, 0, 51, 64
2, 21377, Note_off_c, 0, 39, 64
2, 21382, Note_on_c, 0, 48, 94
2, 21385, Control_c, 0, 64, 72
2, 21387, Note_on_c, 0, 36, 63
2, 21392, Control_c, 0, 64, 0
2, 21425, Control_c, 0, 64, 40
2, 21432, Control_c, 0, 64, 72
2, 21437, Control_c, 0, 64, 127
2, 21442, Note_on_c, 0, 41, 51
2, 21445, Note_on_c, 0, 53, 64
2, 21455, Note_off_c, 0, 36, 64
2, 21462, Note_off_c, 0, 48, 64
2, 21480, Note_off_c, 0, 53, 64
2, 21487, Note_on_c, 0, 51, 69
2, 21490, Note_off_c, 0, 41, 64
2, 21495, Note_on_c, 0, 39, 60
2, 21540, Control_c, 0, 64, 104
2, 21545, Note_off_c, 0, 51, 64
2, 21547, Control_c, 0, 64, 40
2, 21552, Note_on_c, 0, 46, 84
2, 21555, Control_c, 0, 64, 0
2, 21560, Note_off_c, 0, 39, 64
2, 21567, Note_on_c, 0, 34, 67
2, 21580, Control_c, 0, 64, 24
2, 21587, Control_c, 0, 64, 72
2, 21595, Control_c, 0, 64, 127
2, 21615, Note_on_c, 0, 55, 74
2, 21620, Note_on_c, 0, 43, 64
2, 21625, Note_off_c, 0, 46, 64
2, 21642, Note_off_c, 0, 34, 64
2, 21645, Note_off_c, 0, 43, 64
2, 21647, Note_off_c, 0, 55, 64
2, 21697, Note_on_c, 0, 39, 90
2, 21705, Note_on_c, 0, 27, 76
2, 21717, Control_c, 0, 64, 72
2, 21722, Control_c, 0, 64, 0
2, 21765, Control_c, 0, 64, 24
2, 21772, Control_c, 0, 64, 88
2, 21777, Control_c, 0, 64, 127
2, 21800, Note_off_c, 0, 27, 64
2, 21807, Note_off_c, 0, 39, 64
2, 22017, Note_on_c, 0, 87, 99
2, 22020, Note_on_c, 0, 75, 85
2, 22027, Note_on_c, 0, 63, 65
2, 22027, Note_on_c, 0, 58, 60
2, 22035, Note_on_c, 0, 55, 51
2, 22035, Note_on_c, 0, 67, 57
2, 22075, Control_c, 0, 64, 88
2, 22082, Control_c, 0, 64, 0
2, 22130, Control_c, 0, 64, 127
2, 22150, Note_off_c, 0, 87, 64
2, 22157, Note_off_c, 0, 75, 64
2, 22167, Note_off_c, 0, 67, 64
2, 22180, Note_off_c, 0, 63, 64
2, 22182, Note_off_c, 0, 55, 64
2, 22192, Note_off_c, 0, 58, 64
2, 22340, Note_on_c, 0, 63, 83
2, 22340, Note_on_c, 0, 51, 84
2, 22342, Note_on_c, 0, 39, 77
2, 22362, Note_off_c, 0, 51, 64
2, 22365, Note_off_c, 0, 39, 64
2, 22367, Note_off_c, 0, 63, 64
2, 22395, Note_on_c, 0, 63, 82
2, 22395, Note_on_c, 0, 51, 83
2, 22397, Note_on_c, 0, 39, 71
2, 22425, Note_off_c, 0, 39, 64
2, 22425, Note_off_c, 0, 51, 64
2, 22427, Note_off_c, 0, 63, 64
2, 22452, Note_on_c, 0, 63, 83
2, 22455, Note_on_c, 0, 51, 80
2, 22465, Note_on_c, 0, 39, 75
2, 22497, Control_c, 0, 64, 88
2, 23040, Note_off_c, 0, 39, 64
2, 23040, Note_off_c, 0, 51, 64
2, 23040, Note_off_c, 0, 63, 64
2, 23280, Control_c, 0, 64, 0
2, 23467, Note_on_c, 0, 63, 56
2, 23472, Note_on_c, 0, 54, 40
2, 23477, Note_on_c, 0, 35, 46
2, 23487, Note_on_c, 0, 47, 45
2, 23487, Note_on_c, 0, 59, 40
2, 23567, Note_off_c, 0, 35, 64
2, 23607, Control_c, 0, 64, 72
2, 23617, Control_c, 0, 64, 127
2, 23655, Note_off_c, 0, 59, 64
2, 23667, Note_off_c, 0, 54, 64
2, 23765, Note_off_c, 0, 63, 64
2, 23772, Note_on_c, 0, 59, 50
2, 23945, Control_c, 0, 64, 104
2, 23950, Note_on_c, 0, 61, 52
2, 23950, Note_on_c, 0, 64, 62
2, 23952, Note_on_c, 0, 54, 50
2, 23955, Control_c, 0, 64, 40
2, 23965, Control_c, 0, 64, 0
2, 24030, Control_c, 0, 64, 40
2, 24042, Control_c, 0, 64, 88
2, 24052, Control_c, 0, 64, 127
2, 24057, Note_off_c, 0, 59, 64
2, 24080, Note_off_c, 0, 61, 64
2, 24090, Note_on_c, 0, 58, 56
2, 24110, Note_off_c, 0, 64, 64
2, 24202, Note_off_c, 0, 58, 64
2, 24225, Note_on_c, 0, 56, 54
2, 24225, Control_c, 0, 64, 72
2, 24237, Control_c, 0, 64, 0
2, 24292, Control_c, 0, 64, 40
2, 24302, Control_c, 0, 64, 88
2, 24315, Control_c, 0, 64, 127
2, 24382, Note_off_c, 0, 56, 64
2, 24382, Note_on_c, 0, 58, 55
2, 24392, Control_c, 0, 64, 56
2, 24402, Control_c, 0, 64, 0
2, 24542, Control_c, 0, 64, 88
2, 24552, Control_c, 0, 64, 127
2, 24587, Note_off_c, 0, 58, 64
2, 24662, Note_on_c, 0, 68, 68
2, 24672, Note_on_c, 0, 58, 53
2, 24680, Note_on_c, 0, 64, 59
2, 24777, Note_off_c, 0, 64, 64
2, 24782, Note_off_c, 0, 68, 64
2, 24822, Note_on_c, 0, 66, 66
2, 24850, Note_off_c, 0, 58, 64
2, 24967, Note_on_c, 0, 59, 54
2, 24975, Note_off_c, 0, 66, 64
2, 25065, Note_off_c, 0, 47, 64
2, 25095, Note_off_c, 0, 59, 64
2, 25102, Note_on_c, 0, 61, 56
2, 25237, Note_off_c, 0, 61, 64
2, 25255, Note_on_c, 0, 63, 57
2, 25270, Note_on_c, 0, 47, 49
2, 25305, Control_c, 0, 64, 104
2, 25317, Control_c, 0, 64, 56
2, 25327, Control_c, 0, 64, 0
2, 25412, Control_c, 0, 64, 88
2, 25425, Control_c, 0, 64, 127
2, 25505, Note_off_c, 0, 63, 64
2, 25557, Note_on_c, 0, 66, 69
2, 25562, Note_on_c, 0, 63, 54
2, 25567, Note_on_c, 0, 61, 48
2, 25670, Note_off_c, 0, 61, 64
2, 25705, Note_off_c, 0, 66, 64
2, 25730, Note_on_c, 0, 68, 71
2, 25767, Note_off_c, 0, 63, 64
2, 25850, Note_off_c, 0, 54, 64
2, 25850, Note_on_c, 0, 59, 57
2, 25985, Note_on_c, 0, 58, 56
2, 25987, Note_off_c, 0, 59, 64
2, 26000, Note_off_c, 0, 68, 64
2, 26132, Control_c, 0, 64, 88
2, 26142, Note_on_c, 0, 71, 72
2, 26142, Control_c, 0, 64, 0
2, 26155, Note_on_c, 0, 59, 55
2, 26155, Note_on_c, 0, 63, 47
2, 26187, Note_off_c, 0, 58, 64
2, 26222, Control_c, 0, 64, 56
2, 26232, Control_c, 0, 64, 127
2, 26255, Note_off_c, 0, 47, 64
2, 26287, Note_on_c, 0, 56, 55
2, 26430, Note_off_c, 0, 63, 64
2, 26430, Note_on_c, 0, 47, 60
2, 26440, Note_off_c, 0, 59, 64
2, 26557, Note_off_c, 0, 71, 64
2, 26577, Note_on_c, 0, 63, 65
2, 26587, Note_on_c, 0, 59, 48
2, 26642, Note_off_c, 0, 47, 64
2, 26720, Note_on_c, 0, 46, 59
2, 26870, Note_on_c, 0, 44, 57
2, 26872, Note_off_c, 0, 46, 64
2, 26892, Note_off_c, 0, 56, 64
2, 26967, Note_off_c, 0, 63, 64
2, 27000, Note_off_c, 0, 44, 64
2, 27035, Note_on_c, 0, 64, 69
2, 27060, Control_c, 0, 64, 88
2, 27065, Note_on_c, 0, 44, 52
2, 27070, Control_c, 0, 64, 0
2, 27157, Control_c, 0, 64, 40
2, 27167, Control_c, 0, 64, 127
2, 27175, Note_on_c, 0, 37, 55
2, 27190, Note_off_c, 0, 44, 64
2, 27195, Note_off_c, 0, 37, 64
2, 27295, Note_off_c, 0, 59, 64
2, 27310, Note_on_c, 0, 56, 58
2, 27430, Note_off_c, 0, 64, 64
2, 27470, Note_on_c, 0, 68, 73
2, 27487, Note_on_c, 0, 59, 53
2, 27617, Note_on_c, 0, 54, 57
2, 27630, Note_off_c, 0, 56, 64
2, 27717, Note_off_c, 0, 54, 64
2, 27750, Note_on_c, 0, 52, 61
2, 27770, Note_off_c, 0, 52, 64
2, 27775, Note_off_c, 0, 59, 64
2, 27775, Note_off_c, 0, 68, 64
2, 27892, Note_on_c, 0, 61, 71
2, 27907, Control_c, 0, 64, 56
2, 27910, Note_on_c, 0, 44, 48
2, 27915, Note_on_c, 0, 59, 52
2, 27920, Control_c, 0, 64, 0
2, 27925, Note_on_c, 0, 52, 48
2, 27975, Note_off_c, 0, 52, 64
2, 27985, Control_c, 0, 64, 40
2, 27995, Note_off_c, 0, 44, 64
2, 27997, Control_c, 0, 64, 127
2, 28035, Note_on_c, 0, 37, 55
2, 28077, Note_off_c, 0, 37, 64
2, 28100, Note_off_c, 0, 59, 64
2, 28172, Note_on_c, 0, 52, 69
2, 28290, Note_off_c, 0, 61, 64
2, 28320, Note_on_c, 0, 64, 70
2, 28340, Note_on_c, 0, 59, 52
2, 28470, Note_off_c, 0, 59, 64
2, 28470, Note_on_c, 0, 51, 61
2, 28485, Note_off_c, 0, 52, 64
2, 28537, Note_off_c, 0, 64, 64
2, 28587, Note_off_c, 0, 51, 64
2, 28602, Note_on_c, 0, 49, 64
2, 28640, Note_off_c, 0, 49, 64
2, 28785, Note_on_c, 0, 63, 66
2, 28792, Control_c, 0, 64, 104
2, 28797, Note_on_c, 0, 52, 62
2, 28797, Note_on_c, 0, 58, 55
2, 28800, Control_c, 0, 64, 40
2, 28812, Note_on_c, 0, 42, 58
2, 28815, Control_c, 0, 64, 0
2, 28960, Note_off_c, 0, 58, 64
2, 28965, Control_c, 0, 64, 127
2, 29070, Note_off_c, 0, 63, 64
2, 29072, Note_on_c, 0, 58, 63
2, 29245, Note_on_c, 0, 61, 65
2, 29260, Control_c, 0, 64, 0
2, 29335, Control_c, 0, 64, 104
2, 29347, Control_c, 0, 64, 127
2, 29380, Note_off_c, 0, 58, 64
2, 29380, Control_c, 0, 64, 72
2, 29385, Note_on_c, 0, 59, 68
2, 29390, Control_c, 0, 64, 0
2, 29467, Control_c, 0, 64, 88
2, 29477, Control_c, 0, 64, 127
2, 29520, Note_off_c, 0, 59, 64
2, 29525, Note_on_c, 0, 56, 62
2, 29530, Control_c, 0, 64, 24
2, 29542, Control_c, 0, 64, 0
2, 29630, Control_c, 0, 64, 88
2, 29642, Note_off_c, 0, 56, 64
2, 29642, Control_c, 0, 64, 127
2, 29707, Note_on_c, 0, 56, 55
2, 29782, Control_c, 0, 64, 40
2, 29792, Control_c, 0, 64, 0
2, 29857, Control_c, 0, 64, 56
2, 29867, Control_c, 0, 64, 127
2, 29890, Note_off_c, 0, 56, 64
2, 29997, Note_off_c, 0, 61, 64
2, 30000, Note_on_c, 0, 56, 55
2, 30087, Note_off_c, 0, 52, 64
2, 30097, Note_off_c, 0, 56, 64
2, 30210, Note_on_c, 0, 62, 62
2, 30212, Note_on_c, 0, 56, 43
2, 30222, Note_on_c, 0, 52, 45
2, 30227, Note_on_c, 0, 30, 51
2, 30247, Control_c, 0, 64, 72
2, 30262, Control_c, 0, 64, 0
2, 30357, Note_off_c, 0, 56, 64
2, 30357, Control_c, 0, 64, 56
2, 30370, Control_c, 0, 64, 127
2, 30380, Note_on_c, 0, 58, 50
2, 30390, Control_c, 0, 64, 104
2, 30402, Control_c, 0, 64, 24
2, 30415, Control_c, 0, 64, 0
2, 30467, Control_c, 0, 64, 104
2, 30480, Control_c, 0, 64, 127
2, 30525, Note_on_c, 0, 54, 53
2, 30542, Note_off_c, 0, 62, 64
2, 30565, Note_off_c, 0, 58, 64
2, 30572, Note_off_c, 0, 30, 64
2, 30572, Note_off_c, 0, 52, 64
2, 30597, Note_off_c, 0, 42, 64
2, 30722, Note_off_c, 0, 54, 64
2, 30775, Note_on_c, 0, 63, 65
2, 30787, Note_on_c, 0, 51, 53
2, 30802, Note_on_c, 0, 47, 52
2, 30812, Note_on_c, 0, 35, 53
2, 30817, Control_c, 0, 64, 72
2, 30827, Control_c, 0, 64, 0
2, 30927, Control_c, 0, 64, 72
2, 30937, Control_c, 0, 64, 127
2, 30972, Note_off_c, 0, 51, 64
2, 31057, Note_off_c, 0, 63, 64
2, 31085, Note_on_c, 0, 61, 50
2, 31087, Note_on_c, 0, 57, 45
2, 31137, Note_off_c, 0, 57, 64
2, 31162, Note_off_c, 0, 61, 64
2, 31242, Control_c, 0, 64, 88
2, 31247, Note_on_c, 0, 64, 69
2, 31252, Note_on_c, 0, 61, 50
2, 31252, Control_c, 0, 64, 0
2, 31260, Note_on_c, 0, 57, 47
2, 31317, Control_c, 0, 64, 72
2, 31327, Control_c, 0, 64, 127
2, 31342, Note_off_c, 0, 57, 64
2, 31362, Note_off_c, 0, 61, 64
2, 31390, Note_on_c, 0, 56, 47
2, 31392, Note_on_c, 0, 59, 49
2, 31405, Note_off_c, 0, 64, 64
2, 31440, Note_off_c, 0, 56, 64
2, 31515, Note_off_c, 0, 59, 64
2, 31530, Note_on_c, 0, 57, 48
2, 31532, Note_on_c, 0, 54, 47
2, 31577, Note_off_c, 0, 57, 64
2, 31585, Note_off_c, 0, 54, 64
2, 31692, Note_on_c, 0, 59, 59
2, 31692, Note_on_c, 0, 54, 53
2, 31697, Note_on_c, 0, 57, 52
2, 31722, Control_c, 0, 64, 56
2, 31732, Control_c, 0, 64, 0
2, 31840, Control_c, 0, 64, 88
2, 31852, Control_c, 0, 64, 127
2, 31857, Note_off_c, 0, 57, 64
2, 31857, Note_off_c, 0, 54, 64
2, 31972, Note_on_c, 0, 56, 44
2, 31980, Note_on_c, 0, 52, 40
2, 31995, Control_c, 0, 64, 104
2, 32005, Control_c, 0, 64, 40
2, 32015, Control_c, 0, 64, 0
2, 32045, Note_off_c, 0, 52, 64
2, 32057, Control_c, 0, 64, 24
2, 32067, Note_off_c, 0, 56, 64
2, 32070, Control_c, 0, 64, 56
2, 32080, Control_c, 0, 64, 88
2, 32090, Control_c, 0, 64, 127
2, 32135, Control_c, 0, 64, 72
2, 32145, Control_c, 0, 64, 24
2, 32147, Note_on_c, 0, 56, 47
2, 32152, Note_on_c, 0, 52, 39
2, 32155, Control_c, 0, 64, 0
2, 32287, Control_c, 0, 64, 56
2, 32297, Control_c, 0, 64, 104
2, 32310, Control_c, 0, 64, 127
2, 32445, Note_off_c, 0, 52, 64
2, 32470, Note_off_c, 0, 59, 64
2, 32490, Note_off_c, 0, 35, 64
2, 32560, Note_off_c, 0, 47, 64
2, 32647, Note_on_c, 0, 63, 58
2, 32667, Note_off_c, 0, 56, 64
2, 32667, Note_on_c, 0, 35, 44
2, 32680, Note_on_c, 0, 47, 32
2, 32710, Control_c, 0, 64, 88
2, 32722, Control_c, 0, 64, 0
2, 32820, Control_c, 0, 64, 88
2, 32832, Control_c, 0, 64, 127
2, 32885, Note_off_c, 0, 63, 64
2, 32932, Note_on_c, 0, 61, 53
2, 32935, Note_on_c, 0, 57, 47
2, 32995, Note_off_c, 0, 57, 64
2, 33005, Note_off_c, 0, 61, 64
2, 33072, Control_c, 0, 64, 72
2, 33082, Note_on_c, 0, 64, 64
2, 33082, Control_c, 0, 64, 0
2, 33087, Note_on_c, 0, 61, 50
2, 33095, Note_on_c, 0, 57, 49
2, 33137, Control_c, 0, 64, 56
2, 33147, Control_c, 0, 64, 127
2, 33175, Note_off_c, 0, 57, 64
2, 33195, Note_off_c, 0, 64, 64
2, 33197, Note_off_c, 0, 61, 64
2, 33212, Control_c, 0, 64, 0
2, 33220, Note_on_c, 0, 56, 46
2, 33222, Note_on_c, 0, 59, 50
2, 33267, Control_c, 0, 64, 56
2, 33280, Control_c, 0, 64, 127
2, 33282, Note_off_c, 0, 56, 64
2, 33345, Control_c, 0, 64, 56
2, 33352, Note_off_c, 0, 59, 64
2, 33355, Control_c, 0, 64, 0
2, 33360, Note_on_c, 0, 57, 50
2, 33367, Note_on_c, 0, 54, 44
2, 33410, Control_c, 0, 64, 56
2, 33420, Control_c, 0, 64, 127
2, 33430, Note_off_c, 0, 57, 64
2, 33470, Note_off_c, 0, 54, 64
2, 33530, Note_on_c, 0, 54, 44
2, 33535, Note_on_c, 0, 59, 56
2, 33537, Note_on_c, 0, 57, 45
2, 33540, Control_c, 0, 64, 88
2, 33552, Control_c, 0, 64, 0
2, 33615, Control_c, 0, 64, 40
2, 33627, Control_c, 0, 64, 104
2, 33637, Control_c, 0, 64, 127
2, 33680, Note_off_c, 0, 54, 64
2, 33710, Note_off_c, 0, 57, 64
2, 33812, Note_on_c, 0, 56, 46
2, 33822, Note_on_c, 0, 52, 43
2, 33875, Note_off_c, 0, 52, 64
2, 33880, Note_off_c, 0, 56, 64
2, 33975, Note_on_c, 0, 56, 48
2, 33992, Note_on_c, 0, 52, 39
2, 34095, Control_c, 0, 64, 104
2, 34107, Control_c, 0, 64, 40
2, 34117, Control_c, 0, 64, 0
2, 34192, Control_c, 0, 64, 40
2, 34205, Control_c, 0, 64, 104
2, 34215, Control_c, 0, 64, 127
2, 34262, Note_off_c, 0, 52, 64
2, 34295, Note_off_c, 0, 35, 64
2, 34312, Note_off_c, 0, 47, 64
2, 34467, Note_off_c, 0, 59, 64
2, 34482, Note_on_c, 0, 61, 61
2, 34520, Note_on_c, 0, 35, 44
2, 34535, Note_on_c, 0, 47, 22
2, 34552, Control_c, 0, 64, 104
2, 34565, Control_c, 0, 64, 40
2, 34575, Control_c, 0, 64, 0
2, 34605, Note_off_c, 0, 56, 64
2, 34650, Control_c, 0, 64, 104
2, 34660, Control_c, 0, 64, 127
2, 34765, Note_off_c, 0, 61, 64
2, 34777, Note_on_c, 0, 56, 46
2, 34785, Note_on_c, 0, 59, 50
2, 34847, Note_off_c, 0, 56, 64
2, 34867, Note_off_c, 0, 59, 64
2, 34942, Note_on_c, 0, 63, 63
2, 34952, Note_on_c, 0, 56, 46
2, 34955, Control_c, 0, 64, 88
2, 34967, Note_on_c, 0, 59, 50
2, 34967, Control_c, 0, 64, 24
2, 34977, Control_c, 0, 64, 0
2, 35000, Control_c, 0, 64, 40
2, 35010, Control_c, 0, 64, 88
2, 35015, Note_off_c, 0, 59, 64
2, 35020, Control_c, 0, 64, 127
2, 35042, Note_off_c, 0, 56, 64
2, 35085, Control_c, 0, 64, 24
2, 35090, Note_on_c, 0, 54, 42
2, 35095, Note_on_c, 0, 58, 49
2, 35095, Control_c, 0, 64, 0
2, 35142, Control_c, 0, 64, 56
2, 35145, Note_off_c, 0, 54, 64
2, 35152, Control_c, 0, 64, 127
2, 35207, Control_c, 0, 64, 72
2, 35215, Note_off_c, 0, 58, 64
2, 35217, Control_c, 0, 64, 0
2, 35220, Note_on_c, 0, 56, 50
2, 35222, Note_off_c, 0, 63, 64
2, 35237, Note_on_c, 0, 52, 42
2, 35270, Control_c, 0, 64, 56
2, 35282, Control_c, 0, 64, 104
2, 35287, Note_off_c, 0, 52, 64
2, 35292, Control_c, 0, 64, 127
2, 35305, Note_off_c, 0, 56, 64
2, 35392, Control_c, 0, 64, 88
2, 35402, Control_c, 0, 64, 24
2, 35407, Note_on_c, 0, 59, 61
2, 35412, Note_on_c, 0, 56, 48
2, 35412, Control_c, 0, 64, 0
2, 35415, Note_on_c, 0, 52, 52
2, 35500, Control_c, 0, 64, 72
2, 35510, Control_c, 0, 64, 127
2, 35540, Note_off_c, 0, 52, 64
2, 35605, Note_off_c, 0, 56, 64
2, 35685, Control_c, 0, 64, 40
2, 35697, Control_c, 0, 64, 0
2, 35707, Note_on_c, 0, 54, 47
2, 35715, Note_on_c, 0, 51, 42
2, 35762, Control_c, 0, 64, 56
2, 35772, Control_c, 0, 64, 127
2, 35780, Note_off_c, 0, 51, 64
2, 35782, Note_off_c, 0, 54, 64
2, 35857, Control_c, 0, 64, 56
2, 35870, Control_c, 0, 64, 0
2, 35885, Note_on_c, 0, 54, 46
2, 35890, Note_on_c, 0, 51, 40
2, 35937, Control_c, 0, 64, 40
2, 35947, Control_c, 0, 64, 104
2, 35957, Control_c, 0, 64, 127
2, 35967, Note_off_c, 0, 54, 64
2, 35967, Note_off_c, 0, 59, 64
2, 36002, Note_off_c, 0, 51, 64
2, 36017, Note_off_c, 0, 35, 64
2, 36037, Note_off_c, 0, 47, 64
2, 36165, Control_c, 0, 64, 40
2, 36172, Note_on_c, 0, 49, 56
2, 36177, Control_c, 0, 64, 0
2, 36180, Note_on_c, 0, 37, 48
2, 36217, Control_c, 0, 64, 24
2, 36227, Control_c, 0, 64, 88
2, 36240, Control_c, 0, 64, 127
2, 36245, Note_off_c, 0, 49, 64
2, 36255, Note_off_c, 0, 37, 64
2, 36337, Control_c, 0, 64, 104
2, 36345, Note_on_c, 0, 49, 56
2, 36352, Control_c, 0, 64, 24
2, 36360, Note_on_c, 0, 37, 46
2, 36362, Control_c, 0, 64, 0
2, 36412, Note_off_c, 0, 49, 64
2, 36415, Control_c, 0, 64, 72
2, 36427, Note_off_c, 0, 37, 64
2, 36427, Control_c, 0, 64, 127
2, 36610, Control_c, 0, 64, 104
2, 36622, Control_c, 0, 64, 24
2, 36632, Control_c, 0, 64, 0
2, 36635, Note_on_c, 0, 51, 58
2, 36637, Note_on_c, 0, 39, 48
2, 36677, Control_c, 0, 64, 40
2, 36687, Control_c, 0, 64, 104
2, 36700, Control_c, 0, 64, 127
2, 36710, Note_off_c, 0, 51, 64
2, 36715, Note_off_c, 0, 39, 64
2, 36775, Control_c, 0, 64, 40
2, 36785, Control_c, 0, 64, 0
2, 36807, Note_on_c, 0, 39, 56
2, 36810, Note_on_c, 0, 51, 63
2, 36850, Control_c, 0, 64, 56
2, 36860, Control_c, 0, 64, 127
2, 36892, Note_off_c, 0, 51, 64
2, 36897, Note_off_c, 0, 39, 64
2, 37080, Control_c, 0, 64, 56
2, 37090, Control_c, 0, 64, 0
2, 37092, Note_on_c, 0, 47, 63
2, 37095, Note_on_c, 0, 35, 54
2, 37132, Control_c, 0, 64, 24
2, 37145, Control_c, 0, 64, 88
2, 37155, Note_off_c, 0, 35, 64
2, 37157, Control_c, 0, 64, 127
2, 37162, Note_off_c, 0, 47, 64
2, 37242, Control_c, 0, 64, 88
2, 37255, Control_c, 0, 64, 0
2, 37267, Note_on_c, 0, 47, 66
2, 37275, Note_on_c, 0, 35, 53
2, 37307, Control_c, 0, 64, 24
2, 37320, Control_c, 0, 64, 88
2, 37330, Control_c, 0, 64, 127
2, 37335, Note_off_c, 0, 35, 64
2, 37335, Note_off_c, 0, 47, 64
2, 37537, Control_c, 0, 64, 72
2, 37547, Control_c, 0, 64, 0
2, 37552, Note_on_c, 0, 30, 55
2, 37555, Note_on_c, 0, 42, 60
2, 37592, Control_c, 0, 64, 24
2, 37602, Control_c, 0, 64, 72
2, 37612, Control_c, 0, 64, 127
2, 37622, Note_off_c, 0, 42, 64
2, 37625, Note_off_c, 0, 30, 64
2, 37720, Note_on_c, 0, 42, 70
2, 37722, Note_on_c, 0, 30, 63
2, 37722, Control_c, 0, 64, 88
2, 37735, Control_c, 0, 64, 0
2, 37810, Control_c, 0, 64, 88
2, 37815, Note_off_c, 0, 30, 64
2, 37820, Control_c, 0, 64, 127
2, 37837, Note_off_c, 0, 42, 64
2, 37995, Control_c, 0, 64, 88
2, 38005, Note_on_c, 0, 45, 80
2, 38005, Control_c, 0, 64, 0
2, 38017, Note_on_c, 0, 33, 61
2, 38050, Control_c, 0, 64, 56
2, 38055, Note_off_c, 0, 33, 64
2, 38060, Control_c, 0, 64, 104
2, 38065, Note_off_c, 0, 45, 64
2, 38070, Control_c, 0, 64, 127
2, 38167, Control_c, 0, 64, 40
2, 38175, Note_on_c, 0, 46, 83
2, 38180, Note_on_c, 0, 34, 69
2, 38180, Control_c, 0, 64, 0
2, 38267, Control_c, 0, 64, 72
2, 38277, Control_c, 0, 64, 127
2, 38317, Note_off_c, 0, 34, 64
2, 38320, Note_off_c, 0, 46, 64
2, 38435, Note_on_c, 0, 70, 82
2, 38440, Note_on_c, 0, 44, 65
2, 38440, Note_on_c, 0, 58, 64
2, 38445, Note_on_c, 0, 32, 53
2, 38477, Note_off_c, 0, 58, 64
2, 38480, Note_off_c, 0, 70, 64
2, 38515, Note_on_c, 0, 70, 84
2, 38517, Note_on_c, 0, 58, 67
2, 38560, Note_off_c, 0, 58, 64
2, 38565, Note_off_c, 0, 70, 64
2, 38605, Note_on_c, 0, 70, 85
2, 38607, Note_on_c, 0, 58, 79
2, 38612, Note_off_c, 0, 44, 64
2, 38625, Control_c, 0, 64, 104
2, 38637, Control_c, 0, 64, 24
2, 38647, Control_c, 0, 64, 0
2, 38687, Note_off_c, 0, 32, 64
2, 38690, Control_c, 0, 64, 40
2, 38702, Control_c, 0, 64, 104
2, 38712, Control_c, 0, 64, 127
2, 38732, Note_on_c, 0, 42, 65
2, 38737, Note_on_c, 0, 30, 51
2, 38767, Note_off_c, 0, 42, 64
2, 38782, Note_off_c, 0, 30, 64
2, 38835, Note_off_c, 0, 70, 64
2, 38867, Note_on_c, 0, 39, 67
2, 38867, Note_on_c, 0, 27, 65
2, 38905, Note_off_c, 0, 58, 64
2, 38907, Note_off_c, 0, 39, 64
2, 38920, Note_off_c, 0, 27, 64
2, 39030, Note_on_c, 0, 65, 81
2, 39045, Note_on_c, 0, 58, 58
2, 39062, Note_on_c, 0, 38, 56
2, 39062, Control_c, 0, 64, 88
2, 39067, Note_on_c, 0, 26, 45
2, 39070, Control_c, 0, 64, 0
2, 39192, Control_c, 0, 64, 127
2, 39302, Note_off_c, 0, 65, 64
2, 39317, Note_on_c, 0, 56, 71
2, 39342, Note_off_c, 0, 26, 64
2, 39355, Note_off_c, 0, 38, 64
2, 39355, Note_off_c, 0, 58, 64
2, 39390, Note_off_c, 0, 56, 64
2, 39497, Note_on_c, 0, 66, 73
2, 39500, Note_on_c, 0, 56, 58
2, 39500, Control_c, 0, 64, 104
2, 39505, Note_on_c, 0, 58, 53
2, 39507, Control_c, 0, 64, 0
2, 39532, Note_on_c, 0, 37, 50
2, 39537, Note_on_c, 0, 25, 48
2, 39562, Control_c, 0, 64, 56
2, 39575, Control_c, 0, 64, 127
2, 39580, Note_off_c, 0, 56, 64
2, 39630, Note_off_c, 0, 66, 64
2, 39645, Note_off_c, 0, 58, 64
2, 39645, Note_on_c, 0, 54, 68
2, 39705, Note_off_c, 0, 54, 64
2, 39762, Note_off_c, 0, 25, 64
2, 39810, Note_on_c, 0, 51, 72
2, 39842, Note_off_c, 0, 37, 64
2, 39887, Note_off_c, 0, 51, 64
2, 39935, Note_on_c, 0, 37, 56
2, 39992, Note_on_c, 0, 61, 67
2, 40005, Note_on_c, 0, 54, 46
2, 40005, Note_on_c, 0, 58, 46
2, 40020, Control_c, 0, 64, 56
2, 40025, Note_on_c, 0, 49, 53
2, 40030, Control_c, 0, 64, 0
2, 40140, Control_c, 0, 64, 88
2, 40142, Note_off_c, 0, 54, 64
2, 40150, Control_c, 0, 64, 127
2, 40162, Note_off_c, 0, 58, 64
2, 40312, Note_on_c, 0, 56, 57
2, 40322, Note_on_c, 0, 59, 61
2, 40337, Control_c, 0, 64, 40
2, 40347, Control_c, 0, 64, 0
2, 40412, Control_c, 0, 64, 72
2, 40422, Control_c, 0, 64, 127
2, 40542, Note_off_c, 0, 59, 64
2, 40580, Note_off_c, 0, 56, 64
2, 40622, Note_on_c, 0, 58, 53
2, 40625, Note_on_c, 0, 54, 44
2, 40692, Note_off_c, 0, 54, 64
2, 40692, Note_off_c, 0, 58, 64
2, 40770, Note_on_c, 0, 57, 56
2, 40772, Note_on_c, 0, 53, 51
2, 40822, Note_off_c, 0, 57, 64
2, 40835, Note_off_c, 0, 53, 64
2, 40840, Note_off_c, 0, 37, 64
2, 40892, Note_off_c, 0, 61, 64
2, 40930, Note_on_c, 0, 57, 59
2, 40945, Note_on_c, 0, 53, 47
2, 40947, Note_on_c, 0, 42, 46
2, 40967, Control_c, 0, 64, 56
2, 40977, Control_c, 0, 64, 0
2, 41075, Control_c, 0, 64, 72
2, 41087, Control_c, 0, 64, 127
2, 41195, Note_off_c, 0, 53, 64
2, 41207, Control_c, 0, 64, 40
2, 41217, Note_on_c, 0, 54, 57
2, 41217, Control_c, 0, 64, 0
2, 41237, Note_off_c, 0, 49, 64
2, 41247, Note_off_c, 0, 57, 64
2, 41250, Note_off_c, 0, 42, 64
2, 41272, Control_c, 0, 64, 56
2, 41282, Control_c, 0, 64, 127
2, 41302, Note_off_c, 0, 54, 64
2, 41372, Control_c, 0, 64, 72
2, 41382, Control_c, 0, 64, 0
2, 41390, Note_on_c, 0, 45, 69
2, 41397, Note_on_c, 0, 33, 49
2, 41405, Control_c, 0, 64, 24
2, 41415, Control_c, 0, 64, 56
2, 41425, Control_c, 0, 64, 104
2, 41430, Note_off_c, 0, 33, 64
2, 41437, Control_c, 0, 64, 127
2, 41440, Note_off_c, 0, 45, 64
2, 41522, Note_on_c, 0, 47, 79
2, 41530, Note_on_c, 0, 35, 67
2, 41555, Note_off_c, 0, 35, 64
2, 41567, Note_off_c, 0, 47, 64
2, 41667, Note_on_c, 0, 50, 81
2, 41677, Note_on_c, 0, 38, 62
2, 41697, Note_off_c, 0, 38, 64
2, 41712, Note_off_c, 0, 50, 64
2, 41810, Note_on_c, 0, 49, 77
2, 41817, Note_on_c, 0, 37, 65
2, 41850, Control_c, 0, 64, 72
2, 41862, Control_c, 0, 64, 0
2, 41947, Control_c, 0, 64, 88
2, 41960, Control_c, 0, 64, 127
2, 41965, Note_off_c, 0, 49, 64
2, 42030, Note_off_c, 0, 37, 64
2, 42105, Note_on_c, 0, 73, 85
2, 42107, Note_on_c, 0, 47, 57
2, 42107, Note_on_c, 0, 61, 79
2, 42117, Note_on_c, 0, 35, 52
2, 42137, Note_off_c, 0, 61, 64
2, 42145, Note_off_c, 0, 73, 64
2, 42177, Note_on_c, 0, 73, 87
2, 42182, Note_on_c, 0, 61, 72
2, 42215, Note_off_c, 0, 61, 64
2, 42220, Note_off_c, 0, 73, 64
2, 42255, Note_off_c, 0, 35, 64
2, 42262, Note_on_c, 0, 73, 87
2, 42270, Note_on_c, 0, 61, 83
2, 42297, Note_off_c, 0, 47, 64
2, 42307, Control_c, 0, 64, 88
2, 42317, Control_c, 0, 64, 0
2, 42375, Control_c, 0, 64, 24
2, 42385, Control_c, 0, 64, 88
2, 42395, Control_c, 0, 64, 127
2, 42397, Note_on_c, 0, 45, 68
2, 42402, Note_on_c, 0, 33, 52
2, 42435, Note_off_c, 0, 33, 64
2, 42437, Note_off_c, 0, 45, 64
2, 42547, Note_on_c, 0, 42, 67
2, 42567, Note_off_c, 0, 73, 64
2, 42572, Note_off_c, 0, 42, 64
2, 42605, Note_off_c, 0, 61, 64
2, 42725, Note_on_c, 0, 68, 78
2, 42735, Note_on_c, 0, 56, 60
2, 42735, Note_on_c, 0, 61, 62
2, 42755, Note_on_c, 0, 41, 49
2, 42762, Note_on_c, 0, 29, 51
2, 42775, Control_c, 0, 64, 104
2, 42787, Control_c, 0, 64, 0
2, 42862, Control_c, 0, 64, 88
2, 42867, Note_off_c, 0, 29, 64
2, 42872, Control_c, 0, 64, 127
2, 42897, Note_off_c, 0, 61, 64
2, 42900, Note_off_c, 0, 41, 64
2, 43012, Note_on_c, 0, 60, 69
2, 43017, Note_on_c, 0, 48, 41
2, 43050, Note_off_c, 0, 48, 64
2, 43085, Note_off_c, 0, 60, 64
2, 43155, Note_on_c, 0, 48, 46
2, 43155, Note_on_c, 0, 60, 64
2, 43187, Note_on_c, 0, 41, 34
2, 43210, Note_off_c, 0, 48, 64
2, 43220, Note_off_c, 0, 60, 64
2, 43295, Note_off_c, 0, 56, 64
2, 43297, Note_on_c, 0, 58, 65
2, 43310, Note_on_c, 0, 49, 51
2, 43415, Note_off_c, 0, 49, 64
2, 43432, Note_off_c, 0, 58, 64
2, 43435, Note_on_c, 0, 56, 60
2, 43460, Note_on_c, 0, 53, 43
2, 43485, Control_c, 0, 64, 40
2, 43495, Control_c, 0, 64, 0
2, 43560, Control_c, 0, 64, 40
2, 43570, Control_c, 0, 64, 104
2, 43582, Control_c, 0, 64, 127
2, 43607, Note_on_c, 0, 60, 70
2, 43625, Control_c, 0, 64, 88
2, 43627, Note_on_c, 0, 48, 49
2, 43635, Control_c, 0, 64, 0
2, 43725, Control_c, 0, 64, 56
2, 43735, Control_c, 0, 64, 104
2, 43745, Control_c, 0, 64, 127
2, 43810, Note_off_c, 0, 48, 64
2, 43880, Note_off_c, 0, 60, 64
2, 43895, Note_on_c, 0, 61, 58
2, 43900, Note_on_c, 0, 47, 43
2, 43955, Note_off_c, 0, 47, 64
2, 43970, Note_off_c, 0, 61, 64
2, 44070, Note_on_c, 0, 61, 60
2, 44072, Note_on_c, 0, 47, 51
2, 44082, Control_c, 0, 64, 56
2, 44095, Control_c, 0, 64, 0
2, 44160, Control_c, 0, 64, 72
2, 44170, Control_c, 0, 64, 127
2, 44262, Note_off_c, 0, 61, 64
2, 44302, Note_off_c, 0, 47, 64
2, 44350, Note_on_c, 0, 60, 63
2, 44365, Note_on_c, 0, 48, 41
2, 44392, Note_off_c, 0, 56, 64
2, 44457, Note_off_c, 0, 48, 64
2, 44460, Note_off_c, 0, 60, 64
2, 44530, Note_on_c, 0, 56, 38
2, 44532, Note_on_c, 0, 61, 51
2, 44547, Note_on_c, 0, 47, 46
2, 44572, Control_c, 0, 64, 88
2, 44585, Control_c, 0, 64, 0
2, 44637, Note_off_c, 0, 41, 64
2, 44670, Control_c, 0, 64, 72
2, 44682, Control_c, 0, 64, 127
2, 44747, Note_off_c, 0, 61, 64
2, 44782, Note_off_c, 0, 56, 64
2, 44832, Note_on_c, 0, 56, 44
2, 44842, Note_on_c, 0, 41, 45
2, 44847, Note_on_c, 0, 62, 58
2, 44900, Note_off_c, 0, 56, 64
2, 44915, Note_off_c, 0, 62, 64
2, 44930, Note_off_c, 0, 41, 64
2, 45015, Note_on_c, 0, 62, 57
2, 45017, Note_on_c, 0, 56, 34
2, 45040, Note_off_c, 0, 47, 64
2, 45040, Note_on_c, 0, 41, 44
2, 45065, Control_c, 0, 64, 72
2, 45075, Control_c, 0, 64, 0
2, 45140, Control_c, 0, 64, 72
2, 45150, Control_c, 0, 64, 127
2, 45170, Note_off_c, 0, 41, 64
2, 45172, Note_off_c, 0, 53, 64
2, 45175, Note_off_c, 0, 62, 64
2, 45177, Note_on_c, 0, 61, 64
2, 45250, Note_off_c, 0, 56, 64
2, 45272, Note_off_c, 0, 61, 64
2, 45375, Note_on_c, 0, 56, 35
2, 45377, Note_on_c, 0, 62, 54
2, 45405, Note_on_c, 0, 52, 40
2, 45410, Note_on_c, 0, 40, 50
2, 45412, Control_c, 0, 64, 72
2, 45422, Control_c, 0, 64, 0
2, 45495, Note_off_c, 0, 68, 64
2, 45510, Control_c, 0, 64, 56
2, 45522, Control_c, 0, 64, 127
2, 45532, Note_off_c, 0, 52, 64
2, 45537, Note_off_c, 0, 62, 64
2, 45637, Note_on_c, 0, 52, 40
2, 45662, Note_on_c, 0, 68, 69
2, 45685, Control_c, 0, 64, 104
2, 45692, Note_on_c, 0, 62, 33
2, 45695, Note_off_c, 0, 56, 64
2, 45695, Control_c, 0, 64, 0
2, 45730, Note_off_c, 0, 62, 64
2, 45750, Control_c, 0, 64, 40
2, 45762, Control_c, 0, 64, 127
2, 45940, Note_off_c, 0, 68, 64
2, 45972, Note_on_c, 0, 66, 60
2, 45972, Note_on_c, 0, 62, 53
2, 46022, Note_off_c, 0, 62, 64
2, 46040, Note_off_c, 0, 66, 64
2, 46130, Note_on_c, 0, 69, 68
2, 46142, Note_on_c, 0, 66, 37
2, 46145, Note_on_c, 0, 62, 57
2, 46162, Control_c, 0, 64, 56
2, 46175, Control_c, 0, 64, 0
2, 46242, Note_off_c, 0, 62, 64
2, 46242, Control_c, 0, 64, 88
2, 46252, Control_c, 0, 64, 127
2, 46267, Note_off_c, 0, 66, 64
2, 46280, Note_on_c, 0, 64, 59
2, 46285, Note_on_c, 0, 61, 44
2, 46337, Note_off_c, 0, 61, 64
2, 46347, Note_off_c, 0, 69, 64
2, 46372, Note_off_c, 0, 64, 64
2, 46417, Note_on_c, 0, 62, 68
2, 46425, Note_on_c, 0, 59, 51
2, 46462, Note_off_c, 0, 59, 64
2, 46465, Note_off_c, 0, 62, 64
2, 46582, Note_on_c, 0, 64, 63
2, 46582, Note_on_c, 0, 62, 56
2, 46592, Note_on_c, 0, 59, 39
2, 46600, Control_c, 0, 64, 88
2, 46610, Control_c, 0, 64, 0
2, 46740, Control_c, 0, 64, 127
2, 46742, Note_off_c, 0, 62, 64
2, 46767, Note_off_c, 0, 59, 64
2, 46875, Note_on_c, 0, 61, 55
2, 46887, Note_on_c, 0, 57, 42
2, 46940, Note_off_c, 0, 57, 64
2, 46947, Note_off_c, 0, 61, 64
2, 47037, Note_on_c, 0, 61, 40
2, 47047, Note_on_c, 0, 57, 36
2, 47110, Control_c, 0, 64, 88
2, 47122, Control_c, 0, 64, 0
2, 47210, Control_c, 0, 64, 72
2, 47220, Control_c, 0, 64, 127
2, 47310, Note_off_c, 0, 64, 64
2, 47380, Note_off_c, 0, 57, 64
2, 47472, Note_off_c, 0, 61, 64
2, 47495, Note_on_c, 0, 68, 65
2, 47547, Control_c, 0, 64, 88
2, 47560, Control_c, 0, 64, 0
2, 47657, Control_c, 0, 64, 72
2, 47667, Control_c, 0, 64, 127
2, 47735, Note_off_c, 0, 68, 64
2, 47760, Note_on_c, 0, 66, 50
2, 47767, Note_on_c, 0, 62, 53
2, 47817, Note_off_c, 0, 62, 64
2, 47837, Note_off_c, 0, 66, 64
2, 47895, Control_c, 0, 64, 104
2, 47902, Note_on_c, 0, 69, 70
2, 47907, Control_c, 0, 64, 0
2, 47912, Note_on_c, 0, 66, 40
2, 47922, Note_on_c, 0, 62, 48
2, 47960, Control_c, 0, 64, 56
2, 47972, Control_c, 0, 64, 127
2, 47992, Note_off_c, 0, 62, 64
2, 48002, Note_off_c, 0, 69, 64
2, 48015, Note_off_c, 0, 66, 64
2, 48047, Note_on_c, 0, 61, 44
2, 48050, Note_on_c, 0, 64, 62
2, 48102, Note_off_c, 0, 61, 64
2, 48140, Note_off_c, 0, 64, 64
2, 48182, Note_on_c, 0, 62, 62
2, 48195, Note_on_c, 0, 59, 54
2, 48235, Note_off_c, 0, 62, 64
2, 48245, Note_off_c, 0, 59, 64
2, 48355, Note_on_c, 0, 64, 58
2, 48357, Note_on_c, 0, 62, 47
2, 48370, Note_on_c, 0, 59, 32
2, 48375, Control_c, 0, 64, 24
2, 48387, Control_c, 0, 64, 0
2, 48482, Control_c, 0, 64, 72
2, 48495, Control_c, 0, 64, 127
2, 48505, Note_off_c, 0, 62, 64
2, 48535, Note_off_c, 0, 59, 64
2, 48662, Note_on_c, 0, 61, 39
2, 48675, Note_on_c, 0, 57, 40
2, 48725, Note_off_c, 0, 57, 64
2, 48742, Note_off_c, 0, 61, 64
2, 48832, Note_on_c, 0, 61, 36
2, 48840, Note_on_c, 0, 57, 35
2, 48855, Control_c, 0, 64, 104
2, 48865, Control_c, 0, 64, 56
2, 48877, Control_c, 0, 64, 0
2, 48975, Control_c, 0, 64, 24
2, 48985, Control_c, 0, 64, 88
2, 48995, Control_c, 0, 64, 127
2, 49137, Note_off_c, 0, 40, 64
2, 49150, Note_off_c, 0, 52, 64
2, 49315, Note_on_c, 0, 66, 64
2, 49340, Note_off_c, 0, 64, 64
2, 49342, Note_on_c, 0, 40, 45
2, 49345, Note_on_c, 0, 52, 40
2, 49365, Control_c, 0, 64, 72
2, 49377, Control_c, 0, 64, 0
2, 49442, Control_c, 0, 64, 24
2, 49447, Note_off_c, 0, 57, 64
2, 49452, Control_c, 0, 64, 88
2, 49462, Control_c, 0, 64, 127
2, 49467, Note_off_c, 0, 61, 64
2, 49597, Note_off_c, 0, 66, 64
2, 49610, Note_on_c, 0, 62, 55
2, 49615, Note_on_c, 0, 59, 44
2, 49650, Note_off_c, 0, 59, 64
2, 49665, Note_off_c, 0, 62, 64
2, 49757, Control_c, 0, 64, 104
2, 49760, Note_on_c, 0, 68, 61
2, 49767, Note_on_c, 0, 62, 53
2, 49770, Control_c, 0, 64, 24
2, 49772, Note_on_c, 0, 59, 47
2, 49780, Control_c, 0, 64, 0
2, 49812, Note_off_c, 0, 59, 64
2, 49812, Note_off_c, 0, 62, 64
2, 49812, Control_c, 0, 64, 56
2, 49822, Control_c, 0, 64, 104
2, 49835, Control_c, 0, 64, 127
2, 49902, Note_on_c, 0, 61, 54
2, 49912, Note_on_c, 0, 57, 35
2, 49922, Note_off_c, 0, 68, 64
2, 49937, Note_off_c, 0, 57, 64
2, 49962, Note_off_c, 0, 61, 64
2, 50042, Note_on_c, 0, 56, 37
2, 50042, Note_on_c, 0, 59, 60
2, 50105, Note_off_c, 0, 59, 64
2, 50105, Note_off_c, 0, 56, 64
2, 50205, Control_c, 0, 64, 104
2, 50207, Note_on_c, 0, 64, 70
2, 50210, Note_on_c, 0, 56, 43
2, 50217, Control_c, 0, 64, 24
2, 50222, Note_on_c, 0, 59, 48
2, 50227, Control_c, 0, 64, 0
2, 50345, Control_c, 0, 64, 104
2, 50357, Control_c, 0, 64, 127
2, 50377, Note_off_c, 0, 59, 64
2, 50380, Note_off_c, 0, 56, 64
2, 50475, Note_on_c, 0, 61, 52
2, 50492, Note_on_c, 0, 57, 51
2, 50522, Note_off_c, 0, 57, 64
2, 50540, Note_off_c, 0, 61, 64
2, 50632, Note_on_c, 0, 61, 50
2, 50640, Control_c, 0, 64, 0
2, 50645, Note_on_c, 0, 57, 50
2, 50717, Control_c, 0, 64, 72
2, 50722, Note_off_c, 0, 57, 64
2, 50727, Control_c, 0, 64, 127
2, 50772, Note_on_c, 0, 59, 66
2, 50772, Note_on_c, 0, 56, 48
2, 50775, Note_off_c, 0, 61, 64
2, 50782, Control_c, 0, 64, 72
2, 50815, Control_c, 0, 64, 127
2, 50827, Note_off_c, 0, 56, 64
2, 50862, Note_off_c, 0, 59, 64
2, 50912, Note_on_c, 0, 54, 45
2, 50912, Control_c, 0, 64, 56
2, 50917, Note_on_c, 0, 57, 58
2, 50925, Control_c, 0, 64, 0
2, 50980, Control_c, 0, 64, 56
2, 50985, Note_off_c, 0, 54, 64
2, 50990, Control_c, 0, 64, 127
2, 51000, Note_off_c, 0, 57, 64
2, 51090, Note_on_c, 0, 57, 48
2, 51090, Note_on_c, 0, 54, 36
2, 51097, Control_c, 0, 64, 56
2, 51107, Control_c, 0, 64, 0
2, 51197, Control_c, 0, 64, 104
2, 51205, Note_off_c, 0, 54, 64
2, 51207, Control_c, 0, 64, 127
2, 51332, Note_off_c, 0, 57, 64
2, 51392, Note_on_c, 0, 56, 46
2, 51395, Note_on_c, 0, 59, 60
2, 51437, Note_off_c, 0, 56, 64
2, 51457, Note_off_c, 0, 59, 64
2, 51535, Control_c, 0, 64, 56
2, 51537, Note_on_c, 0, 56, 40
2, 51542, Note_on_c, 0, 59, 56
2, 51542, Control_c, 0, 64, 0
2, 51600, Control_c, 0, 64, 40
2, 51605, Note_off_c, 0, 56, 64
2, 51610, Control_c, 0, 64, 104
2, 51620, Control_c, 0, 64, 127
2, 51635, Note_off_c, 0, 59, 64
2, 51675, Control_c, 0, 64, 104
2, 51687, Control_c, 0, 64, 24
2, 51695, Note_on_c, 0, 57, 59
2, 51695, Note_on_c, 0, 54, 49
2, 51697, Control_c, 0, 64, 0
2, 51730, Control_c, 0, 64, 40
2, 51742, Note_off_c, 0, 54, 64
2, 51742, Control_c, 0, 64, 72
2, 51752, Control_c, 0, 64, 127
2, 51787, Note_off_c, 0, 57, 64
2, 51817, Control_c, 0, 64, 72
2, 51827, Control_c, 0, 64, 0
2, 51840, Note_on_c, 0, 56, 44
2, 51847, Note_on_c, 0, 59, 55
2, 51882, Control_c, 0, 64, 40
2, 51892, Control_c, 0, 64, 104
2, 51902, Control_c, 0, 64, 127
2, 51905, Note_off_c, 0, 56, 64
2, 51937, Note_off_c, 0, 59, 64
2, 51962, Note_off_c, 0, 52, 64
2, 52055, Note_on_c, 0, 56, 47
2, 52075, Note_on_c, 0, 52, 11
2, 52110, Control_c, 0, 64, 88
2, 52122, Control_c, 0, 64, 24
2, 52132, Control_c, 0, 64, 0
2, 52272, Control_c, 0, 64, 127
2, 52287, Note_off_c, 0, 64, 64
2, 52570, Note_on_c, 0, 61, 54
2, 52622, Note_off_c, 0, 56, 64
2, 52697, Control_c, 0, 64, 72
2, 52710, Control_c, 0, 64, 0
2, 52777, Control_c, 0, 64, 24
2, 52787, Control_c, 0, 64, 88
2, 52797, Control_c, 0, 64, 127
2, 52892, Note_off_c, 0, 52, 64
2, 52892, Note_off_c, 0, 40, 64
2, 53177, Note_on_c, 0, 63, 54
2, 53202, Note_on_c, 0, 54, 41
2, 53212, Note_on_c, 0, 42, 46
2, 53255, Control_c, 0, 64, 56
2, 53265, Control_c, 0, 64, 0
2, 53375, Control_c, 0, 64, 72
2, 53385, Control_c, 0, 64, 127
2, 53492, Note_off_c, 0, 61, 64
2, 53505, Note_off_c, 0, 63, 64
2, 53515, Note_on_c, 0, 59, 60
2, 53600, Note_off_c, 0, 59, 64
2, 53687, Note_on_c, 0, 64, 70
2, 53697, Note_on_c, 0, 61, 46
2, 53717, Note_on_c, 0, 59, 29
2, 53722, Control_c, 0, 64, 104
2, 53732, Control_c, 0, 64, 0
2, 53795, Note_off_c, 0, 59, 64
2, 53810, Control_c, 0, 64, 72
2, 53822, Control_c, 0, 64, 127
2, 53825, Note_off_c, 0, 61, 64
2, 53842, Note_on_c, 0, 58, 62
2, 53875, Control_c, 0, 64, 104
2, 53887, Control_c, 0, 64, 88
2, 53895, Control_c, 0, 64, 104
2, 53907, Control_c, 0, 64, 127
2, 53952, Note_off_c, 0, 58, 64
2, 53980, Note_on_c, 0, 56, 59
2, 54017, Control_c, 0, 64, 56
2, 54027, Control_c, 0, 64, 0
2, 54095, Control_c, 0, 64, 56
2, 54105, Control_c, 0, 64, 127
2, 54130, Note_off_c, 0, 56, 64
2, 54142, Note_on_c, 0, 58, 55
2, 54152, Note_off_c, 0, 64, 64
2, 54170, Control_c, 0, 64, 56
2, 54180, Control_c, 0, 64, 0
2, 54300, Control_c, 0, 64, 104
2, 54310, Control_c, 0, 64, 127
2, 54367, Note_off_c, 0, 58, 64
2, 54430, Note_on_c, 0, 68, 67
2, 54437, Note_on_c, 0, 58, 47
2, 54450, Note_on_c, 0, 64, 60
2, 54565, Note_off_c, 0, 68, 64
2, 54590, Note_on_c, 0, 66, 70
2, 54642, Note_off_c, 0, 58, 64
2, 54705, Note_off_c, 0, 64, 64
2, 54727, Note_on_c, 0, 59, 57
2, 54875, Note_off_c, 0, 66, 64
2, 54875, Note_on_c, 0, 61, 71
2, 54882, Note_off_c, 0, 59, 64
2, 54885, Note_off_c, 0, 42, 64
2, 55015, Note_off_c, 0, 61, 64
2, 55035, Note_on_c, 0, 63, 65
2, 55052, Note_on_c, 0, 47, 41
2, 55062, Control_c, 0, 64, 56
2, 55072, Control_c, 0, 64, 0
2, 55182, Control_c, 0, 64, 72
2, 55192, Control_c, 0, 64, 127
2, 55265, Note_off_c, 0, 63, 64
2, 55330, Note_on_c, 0, 66, 69
2, 55337, Note_on_c, 0, 63, 54
2, 55337, Note_on_c, 0, 61, 53
2, 55400, Note_off_c, 0, 61, 64
2, 55467, Note_off_c, 0, 63, 64
2, 55482, Note_off_c, 0, 66, 64
2, 55492, Note_on_c, 0, 68, 71
2, 55625, Note_off_c, 0, 54, 64
2, 55630, Note_on_c, 0, 59, 58
2, 55750, Note_off_c, 0, 59, 64
2, 55757, Note_on_c, 0, 58, 64
2, 55762, Note_off_c, 0, 68, 64
2, 55922, Note_on_c, 0, 71, 75
2, 55935, Note_on_c, 0, 59, 50
2, 55935, Control_c, 0, 64, 40
2, 55937, Note_on_c, 0, 63, 39
2, 55945, Control_c, 0, 64, 0
2, 55972, Note_off_c, 0, 58, 64
2, 56020, Control_c, 0, 64, 104
2, 56032, Control_c, 0, 64, 127
2, 56045, Note_off_c, 0, 47, 64
2, 56055, Note_on_c, 0, 56, 61
2, 56200, Note_on_c, 0, 47, 61
2, 56202, Note_off_c, 0, 63, 64
2, 56260, Note_off_c, 0, 71, 64
2, 56342, Note_on_c, 0, 63, 72
2, 56420, Note_off_c, 0, 47, 64
2, 56495, Note_on_c, 0, 46, 55
2, 56632, Note_off_c, 0, 46, 64
2, 56635, Note_off_c, 0, 56, 64
2, 56635, Note_on_c, 0, 44, 55
2, 56645, Note_off_c, 0, 63, 64
2, 56735, Note_off_c, 0, 59, 64
2, 56752, Note_off_c, 0, 44, 64
2, 56807, Note_on_c, 0, 64, 69
2, 56830, Note_on_c, 0, 44, 37
2, 56860, Control_c, 0, 64, 24
2, 56870, Control_c, 0, 64, 0
2, 56877, Note_on_c, 0, 59, 39
2, 56960, Note_on_c, 0, 37, 55
2, 56990, Note_off_c, 0, 37, 64
2, 56990, Note_off_c, 0, 44, 64
2, 56990, Control_c, 0, 64, 127
2, 57047, Note_off_c, 0, 59, 64
2, 57110, Note_on_c, 0, 56, 60
2, 57217, Note_off_c, 0, 64, 64
2, 57260, Note_on_c, 0, 68, 73
2, 57275, Note_on_c, 0, 59, 57
2, 57420, Note_on_c, 0, 54, 56
2, 57435, Note_off_c, 0, 56, 64
2, 57547, Note_off_c, 0, 68, 64
2, 57547, Note_on_c, 0, 52, 59
2, 57550, Note_off_c, 0, 54, 64
2, 57570, Note_off_c, 0, 52, 64
2, 57667, Note_off_c, 0, 59, 64
2, 57705, Note_on_c, 0, 61, 67
2, 57717, Note_on_c, 0, 44, 34
2, 57725, Note_on_c, 0, 52, 22
2, 57732, Note_on_c, 0, 59, 21
2, 57765, Control_c, 0, 64, 40
2, 57775, Control_c, 0, 64, 0
2, 57802, Note_off_c, 0, 52, 64
2, 57837, Note_off_c, 0, 44, 64
2, 57840, Control_c, 0, 64, 56
2, 57850, Control_c, 0, 64, 127
2, 57855, Note_on_c, 0, 37, 60
2, 57897, Note_off_c, 0, 37, 64
2, 57900, Note_off_c, 0, 59, 64
2, 58005, Note_on_c, 0, 52, 63
2, 58090, Note_off_c, 0, 61, 64
2, 58152, Note_on_c, 0, 64, 73
2, 58167, Note_on_c, 0, 59, 50
2, 58297, Note_on_c, 0, 51, 62
2, 58310, Note_off_c, 0, 59, 64
2, 58330, Note_off_c, 0, 52, 64
2, 58415, Note_off_c, 0, 64, 64
2, 58435, Note_on_c, 0, 49, 67
2, 58440, Note_off_c, 0, 51, 64
2, 58577, Note_off_c, 0, 49, 64
2, 58645, Note_on_c, 0, 63, 71
2, 58655, Note_on_c, 0, 52, 54
2, 58657, Control_c, 0, 64, 88
2, 58660, Note_on_c, 0, 58, 48
2, 58665, Note_on_c, 0, 42, 46
2, 58667, Control_c, 0, 64, 0
2, 58802, Note_off_c, 0, 58, 64
2, 58832, Control_c, 0, 64, 127
2, 58952, Note_on_c, 0, 58, 63
2, 58962, Note_off_c, 0, 63, 64
2, 59122, Note_on_c, 0, 61, 55
2, 59157, Control_c, 0, 64, 88
2, 59170, Control_c, 0, 64, 0
2, 59232, Control_c, 0, 64, 56
2, 59245, Control_c, 0, 64, 127
2, 59265, Control_c, 0, 64, 104
2, 59272, Note_on_c, 0, 59, 62
2, 59277, Note_off_c, 0, 58, 64
2, 59280, Control_c, 0, 64, 72
2, 59287, Control_c, 0, 64, 0
2, 59332, Control_c, 0, 64, 40
2, 59345, Control_c, 0, 64, 88
2, 59355, Control_c, 0, 64, 127
2, 59397, Note_off_c, 0, 59, 64
2, 59432, Note_on_c, 0, 56, 61
2, 59452, Control_c, 0, 64, 72
2, 59462, Control_c, 0, 64, 0
2, 59527, Control_c, 0, 64, 88
2, 59537, Control_c, 0, 64, 127
2, 59552, Note_off_c, 0, 56, 64
2, 59612, Note_on_c, 0, 56, 51
2, 59670, Control_c, 0, 64, 40
2, 59680, Control_c, 0, 64, 0
2, 59735, Control_c, 0, 64, 72
2, 59745, Control_c, 0, 64, 127
2, 59787, Note_off_c, 0, 56, 64
2, 59925, Note_off_c, 0, 61, 64
2, 59925, Note_on_c, 0, 56, 52
2, 59930, Note_off_c, 0, 52, 64
2, 60002, Note_off_c, 0, 56, 64
2, 60122, Note_on_c, 0, 62, 54
2, 60127, Note_on_c, 0, 56, 48
2, 60127, Control_c, 0, 64, 72
2, 60130, Note_on_c, 0, 52, 37
2, 60140, Control_c, 0, 64, 0
2, 60202, Control_c, 0, 64, 40
2, 60212, Control_c, 0, 64, 104
2, 60225, Control_c, 0, 64, 127
2, 60285, Note_off_c, 0, 56, 64
2, 60315, Note_on_c, 0, 58, 36
2, 60357, Control_c, 0, 64, 88
2, 60367, Control_c, 0, 64, 0
2, 60452, Control_c, 0, 64, 88
2, 60462, Control_c, 0, 64, 127
2, 60472, Note_on_c, 0, 54, 51
2, 60487, Note_off_c, 0, 58, 64
2, 60507, Control_c, 0, 64, 56
2, 60520, Control_c, 0, 64, 127
2, 60532, Note_off_c, 0, 52, 64
2, 60552, Note_off_c, 0, 62, 64
2, 60570, Note_off_c, 0, 42, 64
2, 60570, Note_off_c, 0, 54, 64
2, 60685, Note_on_c, 0, 63, 62
2, 60697, Note_on_c, 0, 51, 37
2, 60707, Note_on_c, 0, 47, 30
2, 60710, Note_on_c, 0, 35, 27
2, 60725, Control_c, 0, 64, 88
2, 60735, Control_c, 0, 64, 40
2, 60745, Control_c, 0, 64, 0
2, 60880, Control_c, 0, 64, 40
2, 60890, Control_c, 0, 64, 104
2, 60900, Control_c, 0, 64, 127
2, 60907, Note_off_c, 0, 51, 64
2, 60982, Note_off_c, 0, 63, 64
2, 61010, Note_on_c, 0, 61, 51
2, 61015, Note_on_c, 0, 57, 44
2, 61050, Note_off_c, 0, 57, 64
2, 61090, Note_off_c, 0, 61, 64
2, 61177, Note_on_c, 0, 64, 69
2, 61185, Note_on_c, 0, 61, 48
2, 61200, Note_on_c, 0, 57, 43
2, 61232, Note_off_c, 0, 57, 64
2, 61290, Note_off_c, 0, 61, 64
2, 61310, Note_off_c, 0, 64, 64
2, 61335, Note_on_c, 0, 56, 49
2, 61337, Note_on_c, 0, 59, 64
2, 61372, Note_off_c, 0, 56, 64
2, 61457, Note_off_c, 0, 59, 64
2, 61480, Note_on_c, 0, 57, 68
2, 61490, Note_on_c, 0, 54, 50
2, 61532, Note_off_c, 0, 57, 64
2, 61550, Note_off_c, 0, 54, 64
2, 61655, Note_on_c, 0, 59, 60
2, 61655, Note_on_c, 0, 54, 40
2, 61657, Note_on_c, 0, 57, 53
2, 61745, Control_c, 0, 64, 0
2, 61825, Note_off_c, 0, 54, 64
2, 61837, Control_c, 0, 64, 88
2, 61847, Control_c, 0, 64, 127
2, 61860, Note_off_c, 0, 57, 64
2, 61945, Note_on_c, 0, 56, 47
2, 61955, Control_c, 0, 64, 104
2, 61962, Note_on_c, 0, 52, 39
2, 61965, Control_c, 0, 64, 0
2, 62035, Note_off_c, 0, 56, 64
2, 62037, Control_c, 0, 64, 56
2, 62042, Note_off_c, 0, 52, 64
2, 62047, Control_c, 0, 64, 127
2, 62125, Note_on_c, 0, 52, 40
2, 62125, Note_on_c, 0, 56, 37
2, 62150, Control_c, 0, 64, 104
2, 62160, Control_c, 0, 64, 56
2, 62172, Control_c, 0, 64, 0
2, 62275, Control_c, 0, 64, 72
2, 62285, Control_c, 0, 64, 127
2, 62427, Note_off_c, 0, 52, 64
2, 62557, Note_off_c, 0, 56, 64
2, 62617, Note_on_c, 0, 63, 69
2, 62655, Note_off_c, 0, 59, 64
2, 62692, Control_c, 0, 64, 24
2, 62702, Control_c, 0, 64, 0
2, 62775, Control_c, 0, 64, 56
2, 62785, Control_c, 0, 64, 127
2, 62880, Note_off_c, 0, 63, 64
2, 62900, Note_on_c, 0, 61, 47
2, 62902, Note_on_c, 0, 57, 48
2, 62960, Note_off_c, 0, 57, 64
2, 62970, Note_off_c, 0, 61, 64
2, 63050, Note_on_c, 0, 64, 68
2, 63057, Note_on_c, 0, 61, 43
2, 63065, Note_on_c, 0, 57, 55
2, 63067, Control_c, 0, 64, 88
2, 63077, Control_c, 0, 64, 24
2, 63087, Control_c, 0, 64, 0
2, 63107, Control_c, 0, 64, 40
2, 63117, Control_c, 0, 64, 88
2, 63127, Control_c, 0, 64, 127
2, 63145, Note_off_c, 0, 57, 64
2, 63170, Note_off_c, 0, 61, 64
2, 63175, Note_off_c, 0, 64, 64
2, 63182, Note_on_c, 0, 56, 45
2, 63192, Note_on_c, 0, 59, 60
2, 63225, Note_off_c, 0, 56, 64
2, 63302, Note_off_c, 0, 59, 64
2, 63327, Note_on_c, 0, 57, 65
2, 63340, Note_on_c, 0, 54, 44
2, 63370, Note_off_c, 0, 57, 64
2, 63387, Note_off_c, 0, 54, 64
2, 63495, Note_on_c, 0, 59, 59
2, 63495, Note_on_c, 0, 54, 37
2, 63500, Note_on_c, 0, 57, 52
2, 63522, Control_c, 0, 64, 72
2, 63535, Control_c, 0, 64, 0
2, 63607, Control_c, 0, 64, 88
2, 63617, Control_c, 0, 64, 127
2, 63620, Note_off_c, 0, 54, 64
2, 63657, Note_off_c, 0, 57, 64
2, 63777, Note_on_c, 0, 56, 39
2, 63782, Note_on_c, 0, 52, 41
2, 63815, Control_c, 0, 64, 72
2, 63827, Control_c, 0, 64, 0
2, 63862, Note_off_c, 0, 52, 64
2, 63867, Note_off_c, 0, 56, 64
2, 63877, Control_c, 0, 64, 40
2, 63887, Control_c, 0, 64, 88
2, 63897, Control_c, 0, 64, 127
2, 63957, Note_on_c, 0, 56, 38
2, 63987, Note_on_c, 0, 52, 32
2, 64055, Control_c, 0, 64, 88
2, 64065, Control_c, 0, 64, 40
2, 64075, Control_c, 0, 64, 0
2, 64160, Control_c, 0, 64, 56
2, 64170, Control_c, 0, 64, 127
2, 64230, Note_off_c, 0, 52, 64
2, 64325, Note_off_c, 0, 35, 64
2, 64347, Note_off_c, 0, 47, 64
2, 64360, Note_off_c, 0, 59, 64
2, 64515, Note_on_c, 0, 61, 57
2, 64535, Note_on_c, 0, 35, 34
2, 64547, Note_on_c, 0, 47, 22
2, 64607, Control_c, 0, 64, 104
2, 64617, Control_c, 0, 64, 24
2, 64627, Control_c, 0, 64, 0
2, 64657, Note_off_c, 0, 56, 64
2, 64692, Control_c, 0, 64, 88
2, 64702, Control_c, 0, 64, 127
2, 64800, Note_off_c, 0, 61, 64
2, 64810, Note_on_c, 0, 56, 49
2, 64822, Note_on_c, 0, 59, 43
2, 64867, Note_off_c, 0, 56, 64
2, 64892, Note_off_c, 0, 59, 64
2, 64982, Note_on_c, 0, 63, 64
2, 64995, Note_on_c, 0, 59, 54
2, 64997, Note_on_c, 0, 56, 39
2, 65090, Note_off_c, 0, 56, 64
2, 65117, Note_off_c, 0, 59, 64
2, 65137, Note_on_c, 0, 54, 48
2, 65142, Note_on_c, 0, 58, 46
2, 65187, Note_off_c, 0, 54, 64
2, 65232, Note_off_c, 0, 63, 64
2, 65252, Note_off_c, 0, 58, 64
2, 65282, Note_on_c, 0, 56, 62
2, 65297, Note_on_c, 0, 52, 45
2, 65325, Note_off_c, 0, 52, 64
2, 65345, Note_off_c, 0, 56, 64
2, 65467, Note_on_c, 0, 59, 64
2, 65467, Note_on_c, 0, 56, 45
2, 65475, Note_on_c, 0, 52, 46
2, 65512, Control_c, 0, 64, 72
2, 65522, Control_c, 0, 64, 0
2, 65605, Control_c, 0, 64, 56
2, 65617, Control_c, 0, 64, 127
2, 65630, Note_off_c, 0, 52, 64
2, 65745, Note_off_c, 0, 56, 64
2, 65795, Note_on_c, 0, 51, 50
2, 65795, Note_on_c, 0, 54, 47
2, 65855, Control_c, 0, 64, 56
2, 65865, Control_c, 0, 64, 24
2, 65867, Note_off_c, 0, 54, 64
2, 65887, Control_c, 0, 64, 56
2, 65890, Note_off_c, 0, 51, 64
2, 65897, Control_c, 0, 64, 104
2, 65907, Control_c, 0, 64, 127
2, 65985, Note_on_c, 0, 54, 42
2, 65990, Note_on_c, 0, 51, 36
2, 66012, Control_c, 0, 64, 40
2, 66022, Control_c, 0, 64, 0
2, 66085, Control_c, 0, 64, 88
2, 66095, Control_c, 0, 64, 127
2, 66107, Note_off_c, 0, 54, 64
2, 66115, Note_off_c, 0, 59, 64
2, 66145, Note_off_c, 0, 51, 64
2, 66147, Note_off_c, 0, 47, 64
2, 66177, Note_off_c, 0, 35, 64
2, 66312, Control_c, 0, 64, 104
2, 66315, Note_on_c, 0, 49, 57
2, 66320, Note_on_c, 0, 37, 46
2, 66325, Control_c, 0, 64, 24
2, 66335, Control_c, 0, 64, 0
2, 66355, Control_c, 0, 64, 40
2, 66365, Control_c, 0, 64, 88
2, 66375, Control_c, 0, 64, 127
2, 66382, Note_off_c, 0, 49, 64
2, 66385, Note_off_c, 0, 37, 64
2, 66487, Note_on_c, 0, 49, 57
2, 66497, Note_on_c, 0, 37, 35
2, 66520, Control_c, 0, 64, 104
2, 66530, Control_c, 0, 64, 40
2, 66542, Control_c, 0, 64, 0
2, 66585, Control_c, 0, 64, 40
2, 66595, Control_c, 0, 64, 104
2, 66605, Control_c, 0, 64, 127
2, 66730, Note_off_c, 0, 37, 64
2, 66765, Note_off_c, 0, 49, 64
2, 66802, Control_c, 0, 64, 56
2, 66805, Note_on_c, 0, 51, 58
2, 66812, Control_c, 0, 64, 24
2, 66820, Note_on_c, 0, 39, 40
2, 66825, Control_c, 0, 64, 40
2, 66835, Control_c, 0, 64, 72
2, 66845, Control_c, 0, 64, 127
2, 66865, Note_off_c, 0, 39, 64
2, 66882, Note_off_c, 0, 51, 64
2, 66980, Note_on_c, 0, 39, 37
2, 66985, Note_on_c, 0, 51, 57
2, 67002, Control_c, 0, 64, 72
2, 67012, Control_c, 0, 64, 0
2, 67062, Control_c, 0, 64, 24
2, 67075, Control_c, 0, 64, 88
2, 67085, Control_c, 0, 64, 127
2, 67145, Note_off_c, 0, 51, 64
2, 67247, Note_off_c, 0, 39, 64
2, 67302, Control_c, 0, 64, 72
2, 67305, Note_on_c, 0, 47, 63
2, 67312, Note_on_c, 0, 35, 51
2, 67312, Control_c, 0, 64, 0
2, 67335, Control_c, 0, 64, 24
2, 67345, Control_c, 0, 64, 72
2, 67355, Control_c, 0, 64, 127
2, 67370, Note_off_c, 0, 47, 64
2, 67377, Note_off_c, 0, 35, 64
2, 67487, Note_on_c, 0, 47, 64
2, 67490, Note_on_c, 0, 35, 51
2, 67522, Control_c, 0, 64, 56
2, 67530, Control_c, 0, 64, 0
2, 67562, Control_c, 0, 64, 40
2, 67572, Control_c, 0, 64, 88
2, 67585, Control_c, 0, 64, 127
2, 67702, Note_off_c, 0, 47, 64
2, 67740, Note_off_c, 0, 35, 64
2, 67840, Note_on_c, 0, 32, 44
2, 67845, Note_on_c, 0, 44, 48
2, 67845, Control_c, 0, 64, 104
2, 67855, Control_c, 0, 64, 40
2, 67865, Control_c, 0, 64, 0
2, 67895, Control_c, 0, 64, 40
2, 67905, Control_c, 0, 64, 88
2, 67915, Control_c, 0, 64, 127
2, 67935, Note_off_c, 0, 44, 64
2, 67940, Note_off_c, 0, 32, 64
2, 68040, Note_on_c, 0, 32, 40
2, 68047, Note_on_c, 0, 44, 54
2, 68105, Control_c, 0, 64, 72
2, 68115, Control_c, 0, 64, 0
2, 68165, Control_c, 0, 64, 40
2, 68177, Control_c, 0, 64, 104
2, 68187, Control_c, 0, 64, 127
2, 68295, Note_off_c, 0, 44, 64
2, 68397, Note_off_c, 0, 32, 64
2, 68460, Note_on_c, 0, 45, 51
2, 68460, Note_on_c, 0, 33, 54
2, 68490, Control_c, 0, 64, 72
2, 68500, Control_c, 0, 64, 0
2, 68572, Control_c, 0, 64, 88
2, 68582, Control_c, 0, 64, 127
2, 68587, Note_off_c, 0, 33, 64
2, 68647, Note_off_c, 0, 45, 64
2, 68852, Note_on_c, 0, 46, 54
2, 68855, Note_on_c, 0, 34, 59
2, 68925, Control_c, 0, 64, 104
2, 68935, Control_c, 0, 64, 56
2, 68947, Control_c, 0, 64, 0
2, 68977, Note_on_c, 0, 58, 61
2, 68985, Control_c, 0, 64, 24
2, 68992, Control_c, 0, 64, 40
2, 68997, Control_c, 0, 64, 72
2, 69005, Control_c, 0, 64, 88
2, 69020, Note_off_c, 0, 58, 64
2, 69032, Control_c, 0, 64, 104
2, 69042, Note_on_c, 0, 67, 65
2, 69067, Control_c, 0, 64, 88
2, 69072, Control_c, 0, 64, 56
2, 69080, Control_c, 0, 64, 0
2, 69102, Note_off_c, 0, 67, 64
2, 69112, Note_on_c, 0, 62, 62
2, 69120, Note_off_c, 0, 34, 64
2, 69120, Note_off_c, 0, 46, 64
2, 69125, Note_on_c, 0, 56, 48
2, 69132, Note_on_c, 0, 46, 53
2, 69135, Control_c, 0, 64, 24
2, 69140, Control_c, 0, 64, 56
2, 69147, Control_c, 0, 64, 72
2, 69155, Control_c, 0, 64, 88
2, 69160, Note_off_c, 0, 62, 64
2, 69175, Note_on_c, 0, 65, 65
2, 69182, Control_c, 0, 64, 104
2, 69185, Note_off_c, 0, 56, 64
2, 69190, Control_c, 0, 64, 127
2, 69222, Control_c, 0, 64, 72
2, 69225, Note_off_c, 0, 65, 64
2, 69230, Control_c, 0, 64, 24
2, 69235, Control_c, 0, 64, 0
2, 69242, Note_on_c, 0, 63, 68
2, 69252, Note_on_c, 0, 55, 45
2, 69267, Note_off_c, 0, 55, 64
2, 69270, Control_c, 0, 64, 56
2, 69277, Control_c, 0, 64, 88
2, 69282, Control_c, 0, 64, 127
2, 69300, Note_off_c, 0, 63, 64
2, 69317, Note_on_c, 0, 55, 64
2, 69355, Note_off_c, 0, 55, 64
2, 69367, Note_on_c, 0, 39, 48
2, 69382, Note_on_c, 0, 58, 58
2, 69385, Control_c, 0, 64, 72
2, 69392, Control_c, 0, 64, 0
2, 69432, Control_c, 0, 64, 56
2, 69440, Control_c, 0, 64, 127
2, 69445, Note_on_c, 0, 63, 58
2, 69452, Note_off_c, 0, 58, 64
2, 69480, Note_off_c, 0, 63, 64
2, 69515, Note_on_c, 0, 67, 64
2, 69562, Note_off_c, 0, 67, 64
2, 69572, Note_off_c, 0, 39, 64
2, 69580, Note_off_c, 0, 46, 64
2, 69582, Note_on_c, 0, 68, 60
2, 69620, Note_off_c, 0, 68, 64
2, 69637, Note_on_c, 0, 69, 65
2, 69695, Note_off_c, 0, 69, 64
2, 69705, Note_on_c, 0, 72, 68
2, 69755, Note_off_c, 0, 72, 64
2, 69772, Note_on_c, 0, 70, 67
2, 69805, Note_off_c, 0, 70, 64
2, 69832, Note_on_c, 0, 79, 68
2, 69880, Control_c, 0, 64, 72
2, 69885, Control_c, 0, 64, 0
2, 69895, Note_off_c, 0, 79, 64
2, 69897, Note_on_c, 0, 74, 74
2, 69902, Note_on_c, 0, 68, 40
2, 69905, Note_on_c, 0, 58, 42
2, 69927, Control_c, 0, 64, 40
2, 69935, Control_c, 0, 64, 88
2, 69940, Control_c, 0, 64, 127
2, 69942, Note_off_c, 0, 74, 64
2, 69955, Note_on_c, 0, 77, 78
2, 69970, Note_off_c, 0, 68, 64
2, 69997, Note_off_c, 0, 58, 64
2, 70002, Note_off_c, 0, 77, 64
2, 70002, Control_c, 0, 64, 56
2, 70010, Control_c, 0, 64, 0
2, 70015, Note_on_c, 0, 75, 71
2, 70017, Note_on_c, 0, 58, 20
2, 70020, Note_on_c, 0, 67, 52
2, 70035, Note_off_c, 0, 67, 64
2, 70050, Control_c, 0, 64, 56
2, 70055, Control_c, 0, 64, 127
2, 70065, Note_off_c, 0, 75, 64
2, 70082, Note_on_c, 0, 67, 76
2, 70122, Note_off_c, 0, 67, 64
2, 70147, Note_on_c, 0, 70, 65
2, 70150, Note_on_c, 0, 51, 42
2, 70152, Control_c, 0, 64, 56
2, 70157, Control_c, 0, 64, 0
2, 70185, Control_c, 0, 64, 24
2, 70192, Control_c, 0, 64, 88
2, 70200, Control_c, 0, 64, 127
2, 70210, Note_on_c, 0, 75, 64
2, 70217, Note_off_c, 0, 70, 64
2, 70242, Note_off_c, 0, 75, 64
2, 70272, Note_on_c, 0, 79, 79
2, 70300, Note_off_c, 0, 51, 64
2, 70322, Note_off_c, 0, 79, 64
2, 70335, Note_off_c, 0, 58, 64
2, 70337, Note_on_c, 0, 80, 64
2, 70382, Note_off_c, 0, 80, 64
2, 70390, Note_on_c, 0, 81, 75
2, 70452, Note_on_c, 0, 84, 81
2, 70465, Note_off_c, 0, 81, 64
2, 70502, Note_off_c, 0, 84, 64
2, 70517, Note_on_c, 0, 82, 73
2, 70557, Note_off_c, 0, 82, 64
2, 70577, Note_on_c, 0, 91, 81
2, 70625, Control_c, 0, 64, 104
2, 70632, Control_c, 0, 64, 72
2, 70635, Note_off_c, 0, 91, 64
2, 70640, Note_on_c, 0, 86, 82
2, 70640, Control_c, 0, 64, 24
2, 70647, Note_on_c, 0, 79, 51
2, 70650, Note_on_c, 0, 70, 44
2, 70660, Control_c, 0, 64, 88
2, 70667, Control_c, 0, 64, 127
2, 70692, Note_off_c, 0, 86, 64
2, 70700, Note_on_c, 0, 89, 84
2, 70725, Note_off_c, 0, 79, 64
2, 70755, Note_off_c, 0, 89, 64
2, 70757, Note_off_c, 0, 70, 64
2, 70770, Note_on_c, 0, 87, 73
2, 70772, Note_on_c, 0, 75, 51
2, 70780, Note_on_c, 0, 67, 36
2, 70787, Control_c, 0, 64, 104
2, 70795, Control_c, 0, 64, 56
2, 70802, Control_c, 0, 64, 0
2, 70827, Note_off_c, 0, 87, 64
2, 70835, Note_on_c, 0, 82, 65
2, 70835, Control_c, 0, 64, 72
2, 70840, Note_off_c, 0, 75, 64
2, 70842, Note_off_c, 0, 67, 64
2, 70842, Control_c, 0, 64, 127
2, 70892, Note_off_c, 0, 82, 64
2, 70897, Note_on_c, 0, 79, 74
2, 70927, Note_off_c, 0, 79, 64
2, 70960, Note_on_c, 0, 75, 68
2, 71015, Note_off_c, 0, 75, 64
2, 71027, Note_on_c, 0, 70, 61
2, 71072, Note_off_c, 0, 70, 64
2, 71082, Note_on_c, 0, 67, 76
2, 71112, Note_off_c, 0, 67, 64
2, 71150, Note_on_c, 0, 63, 60
2, 71162, Control_c, 0, 64, 104
2, 71167, Note_on_c, 0, 48, 59
2, 71167, Control_c, 0, 64, 40
2, 71172, Control_c, 0, 64, 0
2, 71222, Note_on_c, 0, 55, 65
2, 71222, Control_c, 0, 64, 40
2, 71230, Control_c, 0, 64, 88
2, 71235, Control_c, 0, 64, 127
2, 71252, Note_off_c, 0, 63, 64
2, 71255, Note_off_c, 0, 55, 64
2, 71280, Note_on_c, 0, 60, 62
2, 71320, Note_off_c, 0, 60, 64
2, 71337, Note_on_c, 0, 63, 64
2, 71400, Note_off_c, 0, 63, 64
2, 71407, Note_on_c, 0, 67, 63
2, 71440, Note_off_c, 0, 67, 64
2, 71467, Note_on_c, 0, 65, 53
2, 71522, Note_off_c, 0, 65, 64
2, 71527, Note_off_c, 0, 48, 64
2, 71527, Control_c, 0, 64, 56
2, 71530, Note_on_c, 0, 63, 60
2, 71532, Note_on_c, 0, 41, 51
2, 71535, Control_c, 0, 64, 0
2, 71580, Note_off_c, 0, 63, 64
2, 71582, Control_c, 0, 64, 72
2, 71587, Control_c, 0, 64, 127
2, 71590, Note_on_c, 0, 56, 50
2, 71622, Note_off_c, 0, 56, 64
2, 71662, Note_on_c, 0, 62, 58
2, 71680, Note_off_c, 0, 62, 64
2, 71717, Note_on_c, 0, 60, 65
2, 71765, Note_off_c, 0, 60, 64
2, 71772, Note_off_c, 0, 41, 64
2, 71785, Note_on_c, 0, 59, 59
2, 71792, Note_on_c, 0, 43, 52
2, 71792, Control_c, 0, 64, 104
2, 71800, Control_c, 0, 64, 56
2, 71805, Control_c, 0, 64, 0
2, 71837, Note_off_c, 0, 59, 64
2, 71847, Note_on_c, 0, 55, 64
2, 71860, Control_c, 0, 64, 40
2, 71865, Control_c, 0, 64, 72
2, 71872, Control_c, 0, 64, 88
2, 71880, Control_c, 0, 64, 104
2, 71895, Note_off_c, 0, 43, 64
2, 71912, Control_c, 0, 64, 40
2, 71920, Note_off_c, 0, 55, 64
2, 71920, Control_c, 0, 64, 0
2, 71922, Note_on_c, 0, 56, 61
2, 71975, Note_off_c, 0, 56, 64
2, 71985, Note_on_c, 0, 57, 58
2, 72007, Control_c, 0, 64, 24
2, 72015, Control_c, 0, 64, 40
2, 72030, Control_c, 0, 64, 56
2, 72035, Note_off_c, 0, 57, 64
2, 72035, Control_c, 0, 64, 72
2, 72040, Note_on_c, 0, 58, 57
2, 72042, Control_c, 0, 64, 88
2, 72055, Control_c, 0, 64, 104
2, 72075, Control_c, 0, 64, 127
2, 72080, Note_off_c, 0, 58, 64
2, 72110, Note_on_c, 0, 67, 65
2, 72125, Control_c, 0, 64, 72
2, 72130, Control_c, 0, 64, 40
2, 72137, Control_c, 0, 64, 0
2, 72175, Note_off_c, 0, 67, 64
2, 72175, Note_on_c, 0, 56, 36
2, 72177, Note_on_c, 0, 62, 58
2, 72180, Note_on_c, 0, 46, 42
2, 72185, Control_c, 0, 64, 24
2, 72192, Control_c, 0, 64, 56
2, 72212, Control_c, 0, 64, 0
2, 72215, Note_off_c, 0, 62, 64
2, 72230, Note_on_c, 0, 65, 62
2, 72245, Note_off_c, 0, 56, 64
2, 72260, Control_c, 0, 64, 40
2, 72267, Control_c, 0, 64, 56
2, 72272, Control_c, 0, 64, 40
2, 72280, Control_c, 0, 64, 0
2, 72285, Note_off_c, 0, 65, 64
2, 72300, Note_on_c, 0, 63, 61
2, 72302, Note_on_c, 0, 55, 52
2, 72315, Control_c, 0, 64, 24
2, 72317, Note_off_c, 0, 55, 64
2, 72320, Control_c, 0, 64, 72
2, 72325, Control_c, 0, 64, 127
2, 72337, Note_off_c, 0, 46, 64
2, 72350, Note_off_c, 0, 63, 64
2, 72370, Note_on_c, 0, 55, 58
2, 72410, Note_off_c, 0, 55, 64
2, 72415, Note_on_c, 0, 39, 43
2, 72415, Control_c, 0, 64, 56
2, 72422, Control_c, 0, 64, 0
2, 72427, Note_on_c, 0, 58, 46
2, 72442, Control_c, 0, 64, 24
2, 72450, Control_c, 0, 64, 88
2, 72457, Control_c, 0, 64, 127
2, 72487, Note_off_c, 0, 58, 64
2, 72487, Note_on_c, 0, 63, 47
2, 72517, Note_off_c, 0, 63, 64
2, 72550, Note_off_c, 0, 39, 64
2, 72557, Note_on_c, 0, 67, 52
2, 72592, Note_off_c, 0, 67, 64
2, 72617, Note_on_c, 0, 68, 46
2, 72642, Note_off_c, 0, 68, 64
2, 72670, Note_on_c, 0, 69, 74
2, 72730, Note_on_c, 0, 72, 77
2, 72742, Note_off_c, 0, 69, 64
2, 72775, Note_off_c, 0, 72, 64
2, 72792, Note_on_c, 0, 70, 71
2, 72827, Note_off_c, 0, 70, 64
2, 72852, Note_on_c, 0, 79, 77
2, 72897, Control_c, 0, 64, 72
2, 72905, Control_c, 0, 64, 0
2, 72915, Note_off_c, 0, 79, 64
2, 72915, Note_on_c, 0, 74, 68
2, 72922, Note_on_c, 0, 68, 47
2, 72927, Note_on_c, 0, 58, 38
2, 72945, Control_c, 0, 64, 56
2, 72950, Control_c, 0, 64, 104
2, 72952, Note_off_c, 0, 74, 64
2, 72957, Control_c, 0, 64, 127
2, 72970, Note_on_c, 0, 77, 76
2, 72980, Note_off_c, 0, 68, 64
2, 73012, Control_c, 0, 64, 72
2, 73017, Note_off_c, 0, 77, 64
2, 73020, Control_c, 0, 64, 0
2, 73032, Note_on_c, 0, 75, 69
2, 73037, Note_on_c, 0, 67, 51
2, 73052, Control_c, 0, 64, 40
2, 73057, Note_off_c, 0, 67, 64
2, 73060, Control_c, 0, 64, 104
2, 73067, Control_c, 0, 64, 127
2, 73070, Note_off_c, 0, 58, 64
2, 73080, Note_off_c, 0, 75, 64
2, 73107, Note_on_c, 0, 67, 59
2, 73157, Note_on_c, 0, 70, 58
2, 73162, Note_on_c, 0, 51, 48
2, 73165, Note_off_c, 0, 67, 64
2, 73215, Note_on_c, 0, 75, 61
2, 73217, Note_off_c, 0, 70, 64
2, 73247, Note_off_c, 0, 75, 64
2, 73282, Note_on_c, 0, 79, 79
2, 73330, Note_off_c, 0, 79, 64
2, 73345, Note_on_c, 0, 80, 64
2, 73392, Note_off_c, 0, 80, 64
2, 73395, Note_on_c, 0, 81, 83
2, 73422, Note_off_c, 0, 51, 64
2, 73460, Note_on_c, 0, 84, 82
2, 73477, Note_off_c, 0, 81, 64
2, 73510, Note_off_c, 0, 84, 64
2, 73522, Note_on_c, 0, 82, 73
2, 73552, Note_off_c, 0, 82, 64
2, 73580, Note_on_c, 0, 82, 70
2, 73610, Note_off_c, 0, 82, 64
2, 73650, Control_c, 0, 64, 104
2, 73655, Control_c, 0, 64, 40
2, 73657, Note_on_c, 0, 96, 86
2, 73660, Note_on_c, 0, 79, 51
2, 73660, Note_on_c, 0, 70, 46
2, 73662, Control_c, 0, 64, 0
2, 73697, Note_off_c, 0, 96, 64
2, 73705, Control_c, 0, 64, 104
2, 73710, Control_c, 0, 64, 127
2, 73712, Note_on_c, 0, 94, 71
2, 73745, Note_off_c, 0, 79, 64
2, 73755, Note_off_c, 0, 70, 64
2, 73760, Note_off_c, 0, 94, 64
2, 73777, Note_on_c, 0, 91, 75
2, 73780, Note_on_c, 0, 75, 50
2, 73785, Note_on_c, 0, 67, 44
2, 73830, Note_off_c, 0, 91, 64
2, 73837, Note_on_c, 0, 87, 69
2, 73865, Note_off_c, 0, 67, 64
2, 73870, Note_off_c, 0, 75, 64
2, 73892, Note_off_c, 0, 87, 64
2, 73902, Note_on_c, 0, 84, 75
2, 73940, Note_off_c, 0, 84, 64
2, 73962, Note_on_c, 0, 82, 57
2, 74015, Note_off_c, 0, 82, 64
2, 74030, Note_on_c, 0, 79, 66
2, 74070, Note_off_c, 0, 79, 64
2, 74085, Note_on_c, 0, 75, 67
2, 74130, Note_off_c, 0, 75, 64
2, 74150, Note_on_c, 0, 72, 61
2, 74177, Note_off_c, 0, 72, 64
2, 74207, Note_on_c, 0, 70, 57
2, 74255, Note_off_c, 0, 70, 64
2, 74275, Note_on_c, 0, 67, 54
2, 74312, Note_off_c, 0, 67, 64
2, 74335, Note_on_c, 0, 60, 64
2, 74355, Control_c, 0, 64, 104
2, 74367, Control_c, 0, 64, 88
2, 74375, Control_c, 0, 64, 72
2, 74380, Control_c, 0, 64, 24
2, 74387, Control_c, 0, 64, 0
2, 74390, Note_off_c, 0, 60, 64
2, 74397, Note_on_c, 0, 62, 69
2, 74407, Note_on_c, 0, 46, 45
2, 74407, Note_on_c, 0, 56, 34
2, 74435, Control_c, 0, 64, 24
2, 74442, Control_c, 0, 64, 88
2, 74450, Note_off_c, 0, 62, 64
2, 74450, Control_c, 0, 64, 127
2, 74462, Note_on_c, 0, 67, 74
2, 74515, Note_off_c, 0, 67, 64
2, 74540, Note_off_c, 0, 46, 64
2, 74542, Note_on_c, 0, 65, 66
2, 74542, Control_c, 0, 64, 104
2, 74550, Note_on_c, 0, 51, 49
2, 74550, Control_c, 0, 64, 40
2, 74557, Control_c, 0, 64, 0
2, 74597, Control_c, 0, 64, 24
2, 74600, Note_off_c, 0, 65, 64
2, 74602, Note_on_c, 0, 63, 61
2, 74605, Control_c, 0, 64, 72
2, 74612, Control_c, 0, 64, 104
2, 74617, Control_c, 0, 64, 127
2, 74652, Note_off_c, 0, 56, 64
2, 74655, Note_off_c, 0, 63, 64
2, 74670, Note_on_c, 0, 57, 61
2, 74672, Control_c, 0, 64, 88
2, 74680, Control_c, 0, 64, 40
2, 74687, Note_on_c, 0, 55, 47
2, 74687, Control_c, 0, 64, 0
2, 74732, Note_off_c, 0, 57, 64
2, 74737, Note_on_c, 0, 58, 57
2, 74772, Note_off_c, 0, 51, 64
2, 74780, Note_off_c, 0, 55, 64
2, 74790, Note_off_c, 0, 58, 64
2, 74800, Note_on_c, 0, 59, 50
2, 74850, Note_off_c, 0, 59, 64
2, 74852, Note_on_c, 0, 60, 64
2, 74870, Control_c, 0, 64, 24
2, 74875, Control_c, 0, 64, 40
2, 74882, Control_c, 0, 64, 56
2, 74890, Control_c, 0, 64, 88
2, 74897, Control_c, 0, 64, 104
2, 74902, Control_c, 0, 64, 127
2, 74905, Note_off_c, 0, 60, 64
2, 74920, Note_on_c, 0, 61, 57
2, 74977, Control_c, 0, 64, 88
2, 74982, Note_off_c, 0, 61, 64
2, 74985, Note_on_c, 0, 63, 59
2, 74985, Control_c, 0, 64, 40
2, 74992, Control_c, 0, 64, 0
2, 75017, Note_off_c, 0, 63, 64
2, 75025, Control_c, 0, 64, 24
2, 75032, Control_c, 0, 64, 56
2, 75040, Control_c, 0, 64, 72
2, 75042, Note_on_c, 0, 62, 66
2, 75045, Control_c, 0, 64, 88
2, 75052, Control_c, 0, 64, 104
2, 75085, Note_off_c, 0, 62, 64
2, 75092, Control_c, 0, 64, 56
2, 75100, Note_on_c, 0, 70, 67
2, 75100, Control_c, 0, 64, 24
2, 75107, Control_c, 0, 64, 0
2, 75112, Control_c, 0, 64, 24
2, 75120, Control_c, 0, 64, 40
2, 75127, Control_c, 0, 64, 56
2, 75132, Control_c, 0, 64, 72
2, 75145, Note_off_c, 0, 70, 64
2, 75155, Control_c, 0, 64, 24
2, 75162, Control_c, 0, 64, 0
2, 75165, Note_on_c, 0, 66, 61
2, 75185, Note_on_c, 0, 60, 41
2, 75190, Note_on_c, 0, 50, 33
2, 75195, Control_c, 0, 64, 24
2, 75200, Control_c, 0, 64, 56
2, 75207, Control_c, 0, 64, 88
2, 75215, Note_off_c, 0, 66, 64
2, 75215, Control_c, 0, 64, 104
2, 75222, Control_c, 0, 64, 127
2, 75230, Note_on_c, 0, 69, 67
2, 75275, Control_c, 0, 64, 72
2, 75277, Note_off_c, 0, 69, 64
2, 75282, Control_c, 0, 64, 0
2, 75295, Note_on_c, 0, 67, 64
2, 75307, Note_on_c, 0, 58, 49
2, 75315, Note_off_c, 0, 60, 64
2, 75317, Control_c, 0, 64, 56
2, 75325, Control_c, 0, 64, 88
2, 75327, Note_off_c, 0, 50, 64
2, 75330, Control_c, 0, 64, 127
2, 75332, Note_off_c, 0, 58, 64
2, 75345, Note_off_c, 0, 67, 64
2, 75360, Note_on_c, 0, 62, 67
2, 75417, Note_off_c, 0, 62, 64
2, 75425, Note_on_c, 0, 58, 46
2, 75440, Note_on_c, 0, 43, 44
2, 75452, Note_off_c, 0, 58, 64
2, 75482, Note_on_c, 0, 62, 66
2, 75517, Note_off_c, 0, 62, 64
2, 75527, Control_c, 0, 64, 88
2, 75535, Control_c, 0, 64, 24
2, 75540, Control_c, 0, 64, 0
2, 75547, Note_on_c, 0, 67, 64
2, 75575, Control_c, 0, 64, 56
2, 75580, Note_off_c, 0, 67, 64
2, 75580, Control_c, 0, 64, 104
2, 75587, Control_c, 0, 64, 127
2, 75610, Note_on_c, 0, 70, 57
2, 75647, Note_off_c, 0, 70, 64
2, 75667, Note_on_c, 0, 73, 59
2, 75685, Note_off_c, 0, 43, 64
2, 75732, Note_on_c, 0, 75, 67
2, 75740, Note_off_c, 0, 73, 64
2, 75757, Note_off_c, 0, 75, 64
2, 75790, Note_on_c, 0, 74, 67
2, 75827, Note_off_c, 0, 74, 64
2, 75842, Note_on_c, 0, 82, 69
2, 75860, Control_c, 0, 64, 104
2, 75865, Control_c, 0, 64, 72
2, 75872, Control_c, 0, 64, 24
2, 75880, Control_c, 0, 64, 0
2, 75892, Note_off_c, 0, 82, 64
2, 75900, Note_on_c, 0, 78, 71
2, 75927, Control_c, 0, 64, 40
2, 75932, Control_c, 0, 64, 88
2, 75940, Control_c, 0, 64, 127
2, 75942, Note_on_c, 0, 72, 44
2, 75942, Note_on_c, 0, 62, 34
2, 75950, Note_off_c, 0, 78, 64
2, 75960, Note_on_c, 0, 81, 74
2, 76007, Control_c, 0, 64, 88
2, 76012, Note_off_c, 0, 81, 64
2, 76015, Control_c, 0, 64, 24
2, 76022, Control_c, 0, 64, 0
2, 76035, Note_on_c, 0, 79, 75
2, 76042, Note_off_c, 0, 72, 64
2, 76042, Note_on_c, 0, 70, 51
2, 76042, Control_c, 0, 64, 40
2, 76050, Control_c, 0, 64, 72
2, 76055, Control_c, 0, 64, 127
2, 76065, Note_off_c, 0, 70, 64
2, 76067, Note_off_c, 0, 62, 64
2, 76082, Note_off_c, 0, 79, 64
2, 76097, Note_on_c, 0, 74, 70
2, 76145, Note_off_c, 0, 74, 64
2, 76175, Note_on_c, 0, 55, 55
2, 76175, Note_on_c, 0, 70, 67
2, 76220, Note_off_c, 0, 70, 64
2, 76227, Note_on_c, 0, 74, 78
2, 76270, Note_off_c, 0, 74, 64
2, 76290, Note_on_c, 0, 79, 72
2, 76292, Control_c, 0, 64, 88
2, 76300, Control_c, 0, 64, 24
2, 76307, Control_c, 0, 64, 0
2, 76320, Control_c, 0, 64, 24
2, 76325, Control_c, 0, 64, 56
2, 76330, Note_off_c, 0, 79, 64
2, 76332, Control_c, 0, 64, 104
2, 76340, Control_c, 0, 64, 127
2, 76350, Note_on_c, 0, 82, 71
2, 76415, Note_on_c, 0, 85, 67
2, 76422, Note_off_c, 0, 82, 64
2, 76445, Note_off_c, 0, 85, 64
2, 76470, Note_off_c, 0, 55, 64
2, 76470, Note_on_c, 0, 86, 85
2, 76540, Note_on_c, 0, 98, 84
2, 76595, Note_on_c, 0, 93, 85
2, 76600, Note_off_c, 0, 98, 64
2, 76622, Note_off_c, 0, 86, 64
2, 76645, Note_off_c, 0, 93, 64
2, 76660, Note_on_c, 0, 96, 82
2, 76665, Note_on_c, 0, 82, 62
2, 76670, Note_on_c, 0, 74, 47
2, 76710, Note_off_c, 0, 96, 64
2, 76717, Note_on_c, 0, 94, 73
2, 76755, Note_off_c, 0, 82, 64
2, 76770, Note_off_c, 0, 74, 64
2, 76782, Control_c, 0, 64, 104
2, 76785, Note_on_c, 0, 91, 71
2, 76787, Control_c, 0, 64, 40
2, 76792, Note_on_c, 0, 79, 73
2, 76795, Note_on_c, 0, 70, 55
2, 76795, Control_c, 0, 64, 0
2, 76830, Control_c, 0, 64, 56
2, 76832, Note_off_c, 0, 91, 64
2, 76835, Control_c, 0, 64, 127
2, 76837, Note_off_c, 0, 94, 64
2, 76840, Note_off_c, 0, 79, 64
2, 76847, Note_on_c, 0, 86, 71
2, 76852, Note_off_c, 0, 70, 64
2, 76872, Note_off_c, 0, 86, 64
2, 76907, Note_on_c, 0, 82, 62
2, 76960, Note_off_c, 0, 82, 64
2, 76967, Note_on_c, 0, 79, 67
2, 77007, Note_off_c, 0, 79, 64
2, 77025, Note_on_c, 0, 74, 68
2, 77055, Note_off_c, 0, 74, 64
2, 77092, Note_on_c, 0, 69, 72
2, 77135, Note_off_c, 0, 69, 64
2, 77155, Note_on_c, 0, 72, 81
2, 77160, Control_c, 0, 64, 88
2, 77167, Control_c, 0, 64, 24
2, 77175, Control_c, 0, 64, 0
2, 77205, Note_off_c, 0, 72, 64
2, 77215, Note_on_c, 0, 70, 64
2, 77215, Control_c, 0, 64, 40
2, 77222, Control_c, 0, 64, 72
2, 77227, Control_c, 0, 64, 104
2, 77235, Control_c, 0, 64, 127
2, 77265, Note_off_c, 0, 70, 64
2, 77277, Control_c, 0, 64, 88
2, 77282, Control_c, 0, 64, 72
2, 77290, Control_c, 0, 64, 56
2, 77292, Note_on_c, 0, 67, 64
2, 77310, Control_c, 0, 64, 104
2, 77317, Control_c, 0, 64, 127
2, 77330, Note_off_c, 0, 67, 64
2, 77350, Note_on_c, 0, 62, 62
2, 77392, Note_off_c, 0, 62, 64
2, 77412, Control_c, 0, 64, 88
2, 77417, Note_on_c, 0, 64, 64
2, 77420, Control_c, 0, 64, 40
2, 77425, Control_c, 0, 64, 0
2, 77427, Note_on_c, 0, 58, 42
2, 77445, Note_on_c, 0, 48, 35
2, 77452, Control_c, 0, 64, 24
2, 77457, Control_c, 0, 64, 56
2, 77465, Control_c, 0, 64, 88
2, 77467, Note_off_c, 0, 64, 64
2, 77472, Control_c, 0, 64, 104
2, 77480, Note_on_c, 0, 68, 65
2, 77480, Control_c, 0, 64, 127
2, 77527, Control_c, 0, 64, 104
2, 77532, Note_off_c, 0, 68, 64
2, 77532, Control_c, 0, 64, 72
2, 77540, Control_c, 0, 64, 0
2, 77552, Note_on_c, 0, 67, 66
2, 77557, Note_on_c, 0, 56, 48
2, 77562, Note_off_c, 0, 58, 64
2, 77575, Control_c, 0, 64, 40
2, 77582, Note_off_c, 0, 56, 64
2, 77582, Control_c, 0, 64, 88
2, 77585, Note_off_c, 0, 48, 64
2, 77587, Control_c, 0, 64, 104
2, 77595, Control_c, 0, 64, 127
2, 77602, Note_off_c, 0, 67, 64
2, 77615, Note_on_c, 0, 65, 67
2, 77670, Control_c, 0, 64, 104
2, 77672, Note_off_c, 0, 65, 64
2, 77675, Control_c, 0, 64, 56
2, 77682, Control_c, 0, 64, 0
2, 77687, Note_on_c, 0, 41, 43
2, 77687, Note_on_c, 0, 60, 70
2, 77725, Note_off_c, 0, 60, 64
2, 77725, Control_c, 0, 64, 40
2, 77730, Control_c, 0, 64, 72
2, 77737, Control_c, 0, 64, 88
2, 77745, Control_c, 0, 64, 104
2, 77755, Note_on_c, 0, 55, 62
2, 77777, Note_off_c, 0, 41, 64
2, 77800, Note_off_c, 0, 55, 64
2, 77812, Note_on_c, 0, 56, 60
2, 77817, Control_c, 0, 64, 88
2, 77825, Control_c, 0, 64, 72
2, 77832, Control_c, 0, 64, 40
2, 77837, Control_c, 0, 64, 0
2, 77875, Note_on_c, 0, 58, 62
2, 77892, Note_off_c, 0, 56, 64
2, 77917, Note_off_c, 0, 58, 64
2, 77940, Note_on_c, 0, 59, 64
2, 77990, Note_off_c, 0, 59, 64
2, 77995, Control_c, 0, 64, 24
2, 78005, Note_on_c, 0, 61, 65
2, 78007, Control_c, 0, 64, 40
2, 78015, Control_c, 0, 64, 56
2, 78027, Control_c, 0, 64, 72
2, 78052, Note_off_c, 0, 61, 64
2, 78057, Control_c, 0, 64, 88
2, 78070, Note_on_c, 0, 60, 65
2, 78077, Control_c, 0, 64, 104
2, 78102, Control_c, 0, 64, 127
2, 78130, Note_off_c, 0, 60, 64
2, 78130, Note_on_c, 0, 68, 59
2, 78150, Control_c, 0, 64, 72
2, 78157, Control_c, 0, 64, 40
2, 78165, Control_c, 0, 64, 0
2, 78190, Note_off_c, 0, 68, 64
2, 78192, Note_on_c, 0, 58, 43
2, 78195, Note_on_c, 0, 64, 65
2, 78205, Note_on_c, 0, 48, 51
2, 78205, Control_c, 0, 64, 40
2, 78212, Control_c, 0, 64, 72
2, 78220, Control_c, 0, 64, 104
2, 78225, Control_c, 0, 64, 127
2, 78242, Note_off_c, 0, 64, 64
2, 78252, Note_on_c, 0, 67, 59
2, 78255, Note_off_c, 0, 58, 64
2, 78287, Control_c, 0, 64, 72
2, 78292, Control_c, 0, 64, 24
2, 78300, Note_off_c, 0, 67, 64
2, 78300, Control_c, 0, 64, 0
2, 78307, Note_off_c, 0, 48, 64
2, 78320, Note_on_c, 0, 65, 60
2, 78320, Control_c, 0, 64, 40
2, 78322, Note_on_c, 0, 56, 48
2, 78327, Control_c, 0, 64, 72
2, 78332, Control_c, 0, 64, 104
2, 78340, Control_c, 0, 64, 127
2, 78350, Note_off_c, 0, 56, 64
2, 78367, Note_off_c, 0, 65, 64
2, 78382, Note_on_c, 0, 60, 63
2, 78435, Note_off_c, 0, 60, 64
2, 78440, Note_on_c, 0, 41, 33
2, 78460, Note_on_c, 0, 56, 63
2, 78477, Note_off_c, 0, 56, 64
2, 78515, Note_on_c, 0, 60, 64
2, 78545, Note_off_c, 0, 60, 64
2, 78572, Control_c, 0, 64, 72
2, 78577, Control_c, 0, 64, 40
2, 78580, Note_on_c, 0, 65, 55
2, 78582, Control_c, 0, 64, 0
2, 78602, Control_c, 0, 64, 72
2, 78612, Note_off_c, 0, 65, 64
2, 78612, Control_c, 0, 64, 104
2, 78617, Control_c, 0, 64, 127
2, 78637, Note_on_c, 0, 68, 61
2, 78682, Note_off_c, 0, 68, 64
2, 78702, Note_on_c, 0, 71, 69
2, 78740, Note_off_c, 0, 41, 64
2, 78765, Note_off_c, 0, 71, 64
2, 78767, Note_on_c, 0, 73, 65
2, 78792, Note_off_c, 0, 73, 64
2, 78825, Note_on_c, 0, 72, 72
2, 78862, Note_off_c, 0, 72, 64
2, 78880, Note_on_c, 0, 80, 73
2, 78882, Control_c, 0, 64, 72
2, 78890, Control_c, 0, 64, 24
2, 78897, Control_c, 0, 64, 0
2, 78927, Note_off_c, 0, 80, 64
2, 78930, Control_c, 0, 64, 24
2, 78937, Control_c, 0, 64, 56
2, 78945, Note_on_c, 0, 76, 75
2, 78945, Control_c, 0, 64, 104
2, 78950, Note_on_c, 0, 70, 54
2, 78950, Control_c, 0, 64, 127
2, 78965, Note_on_c, 0, 60, 41
2, 78987, Note_off_c, 0, 76, 64
2, 79000, Note_on_c, 0, 79, 74
2, 79005, Note_off_c, 0, 70, 64
2, 79050, Note_off_c, 0, 79, 64
2, 79052, Control_c, 0, 64, 72
2, 79060, Control_c, 0, 64, 40
2, 79065, Note_on_c, 0, 77, 79
2, 79072, Note_on_c, 0, 68, 57
2, 79080, Control_c, 0, 64, 88
2, 79087, Control_c, 0, 64, 127
2, 79095, Note_off_c, 0, 60, 64
2, 79117, Note_off_c, 0, 77, 64
2, 79120, Note_off_c, 0, 68, 64
2, 79127, Note_on_c, 0, 72, 75
2, 79172, Note_off_c, 0, 72, 64
2, 79200, Note_on_c, 0, 53, 44
2, 79200, Note_on_c, 0, 68, 67
2, 79245, Note_off_c, 0, 68, 64
2, 79247, Note_on_c, 0, 72, 73
2, 79282, Note_off_c, 0, 72, 64
2, 79312, Note_on_c, 0, 77, 79
2, 79350, Note_off_c, 0, 77, 64
2, 79372, Note_on_c, 0, 80, 65
2, 79437, Note_on_c, 0, 83, 75
2, 79450, Note_off_c, 0, 80, 64
2, 79462, Note_off_c, 0, 83, 64
2, 79492, Note_on_c, 0, 84, 81
2, 79535, Note_off_c, 0, 84, 64
2, 79557, Note_off_c, 0, 53, 64
2, 79560, Note_on_c, 0, 96, 84
2, 79607, Note_off_c, 0, 96, 64
2, 79617, Note_on_c, 0, 91, 86
2, 79667, Note_off_c, 0, 91, 64
2, 79680, Note_on_c, 0, 94, 77
2, 79732, Note_off_c, 0, 94, 64
2, 79737, Note_on_c, 0, 92, 86
2, 79765, Control_c, 0, 64, 104
2, 79770, Control_c, 0, 64, 88
2, 79777, Control_c, 0, 64, 72
2, 79785, Control_c, 0, 64, 56
2, 79790, Control_c, 0, 64, 40
2, 79797, Control_c, 0, 64, 0
2, 79805, Note_on_c, 0, 89, 82
2, 79807, Note_off_c, 0, 92, 64
2, 79817, Note_on_c, 0, 80, 70
2, 79817, Note_on_c, 0, 72, 73
2, 79822, Note_on_c, 0, 74, 66
2, 79852, Control_c, 0, 64, 56
2, 79860, Control_c, 0, 64, 127
2, 79865, Note_off_c, 0, 89, 64
2, 79870, Note_off_c, 0, 74, 64
2, 79872, Note_off_c, 0, 72, 64
2, 79872, Note_on_c, 0, 86, 75
2, 79875, Note_off_c, 0, 80, 64
2, 79905, Note_off_c, 0, 86, 64
2, 79930, Note_on_c, 0, 84, 69
2, 79965, Note_off_c, 0, 84, 64
2, 79992, Note_on_c, 0, 80, 58
2, 80042, Note_off_c, 0, 80, 64
2, 80055, Note_on_c, 0, 77, 74
2, 80100, Note_off_c, 0, 77, 64
2, 80117, Note_on_c, 0, 74, 66
2, 80147, Note_off_c, 0, 74, 64
2, 80180, Note_on_c, 0, 72, 63
2, 80210, Note_off_c, 0, 72, 64
2, 80242, Note_on_c, 0, 68, 57
2, 80297, Note_off_c, 0, 68, 64
2, 80307, Note_on_c, 0, 65, 58
2, 80350, Note_off_c, 0, 65, 64
2, 80372, Note_on_c, 0, 62, 58
2, 80420, Note_off_c, 0, 62, 64
2, 80435, Note_on_c, 0, 68, 58
2, 80485, Note_off_c, 0, 68, 64
2, 80507, Note_on_c, 0, 60, 64
2, 80555, Note_off_c, 0, 60, 64
2, 80590, Control_c, 0, 64, 104
2, 80597, Note_on_c, 0, 59, 58
2, 80600, Control_c, 0, 64, 56
2, 80605, Note_on_c, 0, 50, 42
2, 80605, Control_c, 0, 64, 0
2, 80607, Note_on_c, 0, 43, 41
2, 80637, Control_c, 0, 64, 40
2, 80645, Control_c, 0, 64, 88
2, 80652, Control_c, 0, 64, 127
2, 80665, Note_off_c, 0, 59, 64
2, 80672, Note_on_c, 0, 55, 56
2, 80710, Note_off_c, 0, 55, 64
2, 80712, Note_on_c, 0, 56, 53
2, 80740, Note_off_c, 0, 56, 64
2, 80745, Note_on_c, 0, 58, 55
2, 80765, Control_c, 0, 64, 104
2, 80772, Note_on_c, 0, 56, 53
2, 80772, Control_c, 0, 64, 56
2, 80780, Control_c, 0, 64, 0
2, 80782, Note_off_c, 0, 58, 64
2, 80827, Control_c, 0, 64, 40
2, 80832, Note_off_c, 0, 50, 64
2, 80835, Note_off_c, 0, 56, 64
2, 80835, Control_c, 0, 64, 72
2, 80837, Note_off_c, 0, 43, 64
2, 80842, Note_on_c, 0, 55, 56
2, 80842, Control_c, 0, 64, 104
2, 80912, Note_off_c, 0, 55, 64
2, 80922, Note_on_c, 0, 67, 56
2, 80930, Control_c, 0, 64, 40
2, 80935, Control_c, 0, 64, 0
2, 80970, Note_off_c, 0, 67, 64
2, 80990, Control_c, 0, 64, 40
2, 80992, Note_on_c, 0, 55, 61
2, 80997, Control_c, 0, 64, 56
2, 81010, Control_c, 0, 64, 40
2, 81017, Control_c, 0, 64, 24
2, 81025, Control_c, 0, 64, 0
2, 81057, Note_off_c, 0, 55, 64
2, 81065, Note_on_c, 0, 56, 57
2, 81085, Control_c, 0, 64, 40
2, 81092, Control_c, 0, 64, 56
2, 81097, Control_c, 0, 64, 72
2, 81122, Note_off_c, 0, 56, 64
2, 81132, Note_on_c, 0, 57, 59
2, 81147, Control_c, 0, 64, 88
2, 81172, Control_c, 0, 64, 104
2, 81180, Note_off_c, 0, 57, 64
2, 81185, Note_on_c, 0, 58, 54
2, 81192, Control_c, 0, 64, 127
2, 81227, Note_off_c, 0, 58, 64
2, 81262, Note_on_c, 0, 67, 58
2, 81295, Control_c, 0, 64, 72
2, 81302, Control_c, 0, 64, 0
2, 81307, Note_off_c, 0, 67, 64
2, 81322, Note_on_c, 0, 46, 44
2, 81322, Note_on_c, 0, 56, 40
2, 81327, Note_on_c, 0, 62, 58
2, 81342, Control_c, 0, 64, 40
2, 81350, Control_c, 0, 64, 88
2, 81357, Control_c, 0, 64, 127
2, 81365, Note_off_c, 0, 62, 64
2, 81382, Note_off_c, 0, 56, 64
2, 81382, Note_on_c, 0, 65, 59
2, 81382, Control_c, 0, 64, 104
2, 81390, Control_c, 0, 64, 56
2, 81397, Control_c, 0, 64, 0
2, 81427, Note_off_c, 0, 65, 64
2, 81432, Control_c, 0, 64, 24
2, 81437, Control_c, 0, 64, 72
2, 81445, Control_c, 0, 64, 104
2, 81452, Note_on_c, 0, 63, 55
2, 81452, Control_c, 0, 64, 127
2, 81455, Note_on_c, 0, 55, 46
2, 81470, Note_off_c, 0, 55, 64
2, 81482, Note_off_c, 0, 46, 64
2, 81500, Note_off_c, 0, 63, 64
2, 81525, Note_on_c, 0, 55, 54
2, 81572, Note_on_c, 0, 39, 42
2, 81590, Note_on_c, 0, 58, 52
2, 81592, Note_off_c, 0, 55, 64
2, 81595, Control_c, 0, 64, 88
2, 81600, Control_c, 0, 64, 40
2, 81607, Control_c, 0, 64, 0
2, 81635, Control_c, 0, 64, 56
2, 81640, Control_c, 0, 64, 104
2, 81647, Control_c, 0, 64, 127
2, 81652, Note_off_c, 0, 58, 64
2, 81652, Note_on_c, 0, 63, 55
2, 81680, Note_off_c, 0, 63, 64
2, 81720, Note_on_c, 0, 67, 58
2, 81757, Note_off_c, 0, 67, 64
2, 81765, Note_off_c, 0, 39, 64
2, 81787, Note_on_c, 0, 68, 63
2, 81830, Note_off_c, 0, 68, 64
2, 81837, Note_on_c, 0, 69, 70
2, 81887, Note_off_c, 0, 69, 64
2, 81897, Note_on_c, 0, 72, 72
2, 81942, Note_off_c, 0, 72, 64
2, 81962, Note_on_c, 0, 70, 65
2, 81997, Note_off_c, 0, 70, 64
2, 82022, Note_on_c, 0, 79, 70
2, 82072, Note_off_c, 0, 79, 64
2, 82075, Control_c, 0, 64, 72
2, 82082, Control_c, 0, 64, 0
2, 82087, Note_on_c, 0, 74, 73
2, 82095, Note_on_c, 0, 58, 45
2, 82095, Note_on_c, 0, 68, 53
2, 82122, Control_c, 0, 64, 56
2, 82130, Control_c, 0, 64, 88
2, 82132, Note_off_c, 0, 74, 64
2, 82135, Control_c, 0, 64, 127
2, 82142, Note_on_c, 0, 77, 73
2, 82152, Note_off_c, 0, 68, 64
2, 82190, Control_c, 0, 64, 88
2, 82197, Control_c, 0, 64, 24
2, 82200, Note_off_c, 0, 77, 64
2, 82202, Control_c, 0, 64, 0
2, 82210, Note_on_c, 0, 75, 71
2, 82215, Note_on_c, 0, 67, 52
2, 82222, Control_c, 0, 64, 40
2, 82232, Control_c, 0, 64, 88
2, 82235, Note_off_c, 0, 67, 64
2, 82237, Control_c, 0, 64, 127
2, 82250, Note_off_c, 0, 58, 64
2, 82257, Note_off_c, 0, 75, 64
2, 82275, Note_on_c, 0, 67, 58
2, 82330, Note_on_c, 0, 70, 61
2, 82332, Note_off_c, 0, 67, 64
2, 82335, Note_on_c, 0, 51, 50
2, 82387, Note_on_c, 0, 75, 65
2, 82392, Note_off_c, 0, 70, 64
2, 82417, Note_off_c, 0, 75, 64
2, 82432, Note_off_c, 0, 51, 64
2, 82452, Note_on_c, 0, 79, 72
2, 82492, Note_off_c, 0, 79, 64
2, 82512, Note_on_c, 0, 80, 64
2, 82552, Note_off_c, 0, 80, 64
2, 82565, Note_on_c, 0, 81, 69
2, 82617, Note_off_c, 0, 81, 64
2, 82622, Note_on_c, 0, 84, 82
2, 82665, Note_off_c, 0, 84, 64
2, 82685, Note_on_c, 0, 82, 76
2, 82725, Note_off_c, 0, 82, 64
2, 82747, Note_on_c, 0, 91, 79
2, 82800, Note_off_c, 0, 91, 64
2, 82812, Note_on_c, 0, 86, 76
2, 82825, Note_on_c, 0, 79, 55
2, 82827, Note_on_c, 0, 70, 46
2, 82860, Note_off_c, 0, 86, 64
2, 82872, Note_on_c, 0, 89, 78
2, 82900, Note_off_c, 0, 79, 64
2, 82915, Note_off_c, 0, 70, 64
2, 82925, Note_off_c, 0, 89, 64
2, 82940, Note_on_c, 0, 87, 72
2, 82947, Note_on_c, 0, 75, 47
2, 82947, Control_c, 0, 64, 88
2, 82952, Note_on_c, 0, 67, 47
2, 82957, Control_c, 0, 64, 24
2, 82962, Control_c, 0, 64, 0
2, 82997, Control_c, 0, 64, 56
2, 83000, Note_on_c, 0, 82, 62
2, 83002, Control_c, 0, 64, 127
2, 83020, Note_off_c, 0, 75, 64
2, 83020, Note_off_c, 0, 87, 64
2, 83022, Note_off_c, 0, 67, 64
2, 83047, Note_off_c, 0, 82, 64
2, 83057, Note_on_c, 0, 79, 68
2, 83087, Note_off_c, 0, 79, 64
2, 83122, Note_on_c, 0, 75, 65
2, 83165, Note_off_c, 0, 75, 64
2, 83187, Note_on_c, 0, 70, 53
2, 83220, Note_off_c, 0, 70, 64
2, 83242, Note_on_c, 0, 67, 63
2, 83257, Note_off_c, 0, 67, 64
2, 83305, Note_on_c, 0, 63, 54
2, 83322, Note_on_c, 0, 48, 64
2, 83330, Control_c, 0, 64, 72
2, 83335, Control_c, 0, 64, 0
2, 83377, Note_off_c, 0, 63, 64
2, 83377, Note_on_c, 0, 55, 66
2, 83377, Control_c, 0, 64, 24
2, 83385, Control_c, 0, 64, 88
2, 83390, Control_c, 0, 64, 127
2, 83422, Note_off_c, 0, 55, 64
2, 83437, Note_on_c, 0, 60, 70
2, 83472, Note_off_c, 0, 60, 64
2, 83497, Note_on_c, 0, 63, 64
2, 83552, Note_off_c, 0, 63, 64
2, 83560, Note_on_c, 0, 67, 68
2, 83592, Note_off_c, 0, 67, 64
2, 83620, Note_on_c, 0, 65, 63
2, 83667, Note_off_c, 0, 65, 64
2, 83675, Control_c, 0, 64, 72
2, 83677, Note_off_c, 0, 48, 64
2, 83680, Control_c, 0, 64, 24
2, 83685, Note_on_c, 0, 63, 56
2, 83687, Note_on_c, 0, 41, 55
2, 83690, Control_c, 0, 64, 0
2, 83730, Control_c, 0, 64, 56
2, 83732, Note_off_c, 0, 63, 64
2, 83737, Control_c, 0, 64, 104
2, 83742, Control_c, 0, 64, 127
2, 83745, Note_on_c, 0, 56, 59
2, 83787, Note_off_c, 0, 56, 64
2, 83815, Note_on_c, 0, 62, 62
2, 83847, Note_off_c, 0, 62, 64
2, 83875, Note_on_c, 0, 60, 64
2, 83920, Note_off_c, 0, 60, 64
2, 83927, Note_off_c, 0, 41, 64
2, 83942, Note_on_c, 0, 59, 58
2, 83945, Note_on_c, 0, 43, 42
2, 83960, Control_c, 0, 64, 104
2, 83965, Control_c, 0, 64, 88
2, 83972, Control_c, 0, 64, 56
2, 83980, Control_c, 0, 64, 0
2, 83992, Note_off_c, 0, 59, 64
2, 84005, Note_on_c, 0, 55, 58
2, 84042, Control_c, 0, 64, 40
2, 84047, Control_c, 0, 64, 56
2, 84055, Control_c, 0, 64, 88
2, 84065, Note_off_c, 0, 55, 64
2, 84070, Note_on_c, 0, 56, 56
2, 84087, Control_c, 0, 64, 104
2, 84095, Note_off_c, 0, 43, 64
2, 84117, Note_off_c, 0, 56, 64
2, 84135, Note_on_c, 0, 57, 55
2, 84177, Note_off_c, 0, 57, 64
2, 84187, Note_on_c, 0, 58, 47
2, 84205, Control_c, 0, 64, 127
2, 84225, Note_off_c, 0, 58, 64
2, 84262, Note_on_c, 0, 67, 58
2, 84277, Control_c, 0, 64, 104
2, 84285, Control_c, 0, 64, 88
2, 84292, Control_c, 0, 64, 56
2, 84297, Control_c, 0, 64, 24
2, 84305, Control_c, 0, 64, 0
2, 84322, Note_off_c, 0, 67, 64
2, 84325, Note_on_c, 0, 62, 61
2, 84327, Note_on_c, 0, 56, 46
2, 84330, Note_on_c, 0, 46, 50
2, 84347, Control_c, 0, 64, 40
2, 84352, Control_c, 0, 64, 88
2, 84360, Control_c, 0, 64, 127
2, 84367, Note_off_c, 0, 62, 64
2, 84380, Note_on_c, 0, 65, 63
2, 84382, Note_off_c, 0, 56, 64
2, 84412, Control_c, 0, 64, 72
2, 84420, Control_c, 0, 64, 24
2, 84427, Control_c, 0, 64, 0
2, 84432, Note_off_c, 0, 65, 64
2, 84447, Note_on_c, 0, 63, 57
2, 84452, Note_on_c, 0, 55, 50
2, 84455, Control_c, 0, 64, 40
2, 84460, Control_c, 0, 64, 88
2, 84467, Note_off_c, 0, 55, 64
2, 84467, Control_c, 0, 64, 127
2, 84480, Note_off_c, 0, 46, 64
2, 84495, Note_off_c, 0, 63, 64
2, 84510, Note_on_c, 0, 55, 56
2, 84562, Control_c, 0, 64, 104
2, 84565, Note_on_c, 0, 39, 43
2, 84570, Note_off_c, 0, 55, 64
2, 84570, Note_on_c, 0, 58, 49
2, 84570, Control_c, 0, 64, 56
2, 84577, Control_c, 0, 64, 0
2, 84597, Control_c, 0, 64, 72
2, 84602, Control_c, 0, 64, 127
2, 84622, Note_on_c, 0, 63, 57
2, 84630, Note_off_c, 0, 58, 64
2, 84655, Note_off_c, 0, 63, 64
2, 84672, Note_off_c, 0, 39, 64
2, 84695, Note_on_c, 0, 67, 68
2, 84730, Note_off_c, 0, 67, 64
2, 84757, Note_on_c, 0, 68, 50
2, 84795, Note_off_c, 0, 68, 64
2, 84802, Note_on_c, 0, 69, 64
2, 84862, Note_off_c, 0, 69, 64
2, 84867, Note_on_c, 0, 72, 68
2, 84912, Note_off_c, 0, 72, 64
2, 84930, Note_on_c, 0, 70, 64
2, 84967, Note_off_c, 0, 70, 64
2, 84992, Note_on_c, 0, 79, 75
2, 85030, Control_c, 0, 64, 88
2, 85037, Control_c, 0, 64, 40
2, 85045, Note_off_c, 0, 79, 64
2, 85045, Control_c, 0, 64, 0
2, 85055, Note_on_c, 0, 74, 76
2, 85065, Note_on_c, 0, 68, 45
2, 85072, Note_on_c, 0, 58, 35
2, 85077, Control_c, 0, 64, 40
2, 85085, Control_c, 0, 64, 88
2, 85092, Control_c, 0, 64, 127
2, 85100, Note_off_c, 0, 74, 64
2, 85110, Note_on_c, 0, 77, 76
2, 85120, Note_off_c, 0, 68, 64
2, 85147, Control_c, 0, 64, 104
2, 85152, Control_c, 0, 64, 40
2, 85160, Control_c, 0, 64, 0
2, 85162, Note_off_c, 0, 77, 64
2, 85172, Note_on_c, 0, 75, 71
2, 85180, Control_c, 0, 64, 24
2, 85182, Note_on_c, 0, 67, 58
2, 85187, Control_c, 0, 64, 88
2, 85192, Control_c, 0, 64, 127
2, 85197, Note_off_c, 0, 67, 64
2, 85205, Note_off_c, 0, 58, 64
2, 85220, Note_off_c, 0, 75, 64
2, 85237, Note_on_c, 0, 67, 62
2, 85292, Note_on_c, 0, 70, 61
2, 85300, Note_on_c, 0, 51, 49
2, 85307, Note_off_c, 0, 67, 64
2, 85355, Note_on_c, 0, 75, 64
2, 85365, Note_off_c, 0, 70, 64
2, 85392, Note_off_c, 0, 75, 64
2, 85425, Note_on_c, 0, 79, 76
2, 85467, Note_off_c, 0, 79, 64
2, 85480, Note_off_c, 0, 51, 64
2, 85482, Note_on_c, 0, 80, 63
2, 85522, Note_off_c, 0, 80, 64
2, 85532, Note_on_c, 0, 81, 78
2, 85595, Note_on_c, 0, 84, 78
2, 85607, Note_off_c, 0, 81, 64
2, 85647, Note_off_c, 0, 84, 64
2, 85660, Note_on_c, 0, 82, 74
2, 85690, Note_off_c, 0, 82, 64
2, 85720, Note_on_c, 0, 82, 67
2, 85750, Note_off_c, 0, 82, 64
2, 85790, Control_c, 0, 64, 104
2, 85797, Note_on_c, 0, 96, 90
2, 85797, Control_c, 0, 64, 56
2, 85805, Note_on_c, 0, 79, 58
2, 85805, Control_c, 0, 64, 0
2, 85810, Note_on_c, 0, 70, 48
2, 85825, Control_c, 0, 64, 24
2, 85830, Control_c, 0, 64, 88
2, 85837, Control_c, 0, 64, 127
2, 85840, Note_off_c, 0, 96, 64
2, 85857, Note_on_c, 0, 94, 71
2, 85880, Note_off_c, 0, 79, 64
2, 85892, Note_off_c, 0, 70, 64
2, 85905, Note_off_c, 0, 94, 64
2, 85922, Note_on_c, 0, 91, 75
2, 85925, Note_on_c, 0, 75, 55
2, 85927, Note_on_c, 0, 67, 43
2, 85967, Note_off_c, 0, 67, 64
2, 85972, Note_off_c, 0, 75, 64
2, 85972, Note_off_c, 0, 91, 64
2, 85987, Note_on_c, 0, 87, 64
2, 86052, Note_off_c, 0, 87, 64
2, 86057, Note_on_c, 0, 84, 74
2, 86087, Note_off_c, 0, 84, 64
2, 86122, Note_on_c, 0, 82, 59
2, 86162, Note_off_c, 0, 82, 64
2, 86185, Note_on_c, 0, 79, 68
2, 86232, Note_off_c, 0, 79, 64
2, 86262, Note_on_c, 0, 75, 63
2, 86297, Note_off_c, 0, 75, 64
2, 86317, Note_on_c, 0, 72, 66
2, 86355, Note_off_c, 0, 72, 64
2, 86372, Note_on_c, 0, 69, 67
2, 86422, Note_off_c, 0, 69, 64
2, 86435, Note_on_c, 0, 72, 68
2, 86465, Note_off_c, 0, 72, 64
2, 86492, Note_on_c, 0, 70, 67
2, 86522, Note_off_c, 0, 70, 64
2, 86562, Control_c, 0, 64, 104
2, 86570, Control_c, 0, 64, 56
2, 86572, Note_on_c, 0, 84, 86
2, 86575, Control_c, 0, 64, 0
2, 86577, Note_on_c, 0, 67, 54
2, 86582, Note_on_c, 0, 58, 47
2, 86610, Control_c, 0, 64, 24
2, 86617, Control_c, 0, 64, 72
2, 86620, Note_off_c, 0, 84, 64
2, 86625, Control_c, 0, 64, 127
2, 86630, Note_on_c, 0, 82, 67
2, 86665, Note_off_c, 0, 67, 64
2, 86677, Note_off_c, 0, 58, 64
2, 86680, Note_off_c, 0, 82, 64
2, 86700, Note_on_c, 0, 79, 71
2, 86705, Note_on_c, 0, 63, 48
2, 86710, Note_on_c, 0, 55, 46
2, 86745, Note_off_c, 0, 63, 64
2, 86747, Note_off_c, 0, 55, 64
2, 86750, Note_off_c, 0, 79, 64
2, 86765, Note_on_c, 0, 75, 68
2, 86820, Note_off_c, 0, 75, 64
2, 86832, Note_on_c, 0, 72, 70
2, 86867, Note_off_c, 0, 72, 64
2, 86897, Note_on_c, 0, 70, 66
2, 86930, Note_off_c, 0, 70, 64
2, 86957, Note_on_c, 0, 67, 60
2, 87005, Note_off_c, 0, 67, 64
2, 87017, Note_on_c, 0, 63, 61
2, 87070, Note_off_c, 0, 63, 64
2, 87080, Note_on_c, 0, 60, 67
2, 87110, Note_off_c, 0, 60, 64
2, 87132, Note_on_c, 0, 57, 61
2, 87192, Note_off_c, 0, 57, 64
2, 87200, Note_on_c, 0, 60, 63
2, 87237, Note_off_c, 0, 60, 64
2, 87267, Note_on_c, 0, 58, 73
2, 87292, Note_off_c, 0, 58, 64
2, 87320, Control_c, 0, 64, 104
2, 87330, Control_c, 0, 64, 72
2, 87335, Control_c, 0, 64, 0
2, 87347, Note_on_c, 0, 72, 79
2, 87352, Note_on_c, 0, 60, 59
2, 87390, Note_off_c, 0, 60, 64
2, 87390, Control_c, 0, 64, 24
2, 87392, Note_off_c, 0, 72, 64
2, 87395, Control_c, 0, 64, 72
2, 87402, Control_c, 0, 64, 88
2, 87405, Note_on_c, 0, 70, 64
2, 87407, Note_on_c, 0, 58, 47
2, 87410, Control_c, 0, 64, 104
2, 87445, Note_off_c, 0, 58, 64
2, 87457, Note_off_c, 0, 70, 64
2, 87475, Note_on_c, 0, 67, 57
2, 87482, Note_on_c, 0, 55, 39
2, 87520, Note_off_c, 0, 67, 64
2, 87527, Note_off_c, 0, 55, 64
2, 87532, Note_on_c, 0, 63, 63
2, 87537, Note_on_c, 0, 51, 49
2, 87580, Note_off_c, 0, 51, 64
2, 87587, Note_off_c, 0, 63, 64
2, 87597, Note_on_c, 0, 60, 66
2, 87597, Note_on_c, 0, 48, 58
2, 87615, Control_c, 0, 64, 127
2, 87642, Note_off_c, 0, 48, 64
2, 87642, Note_off_c, 0, 60, 64
2, 87655, Note_on_c, 0, 58, 57
2, 87662, Note_on_c, 0, 46, 52
2, 87695, Note_off_c, 0, 58, 64
2, 87695, Control_c, 0, 64, 104
2, 87702, Control_c, 0, 64, 72
2, 87707, Control_c, 0, 64, 24
2, 87710, Note_off_c, 0, 46, 64
2, 87715, Control_c, 0, 64, 0
2, 87720, Note_on_c, 0, 67, 73
2, 87727, Note_on_c, 0, 55, 60
2, 87742, Control_c, 0, 64, 40
2, 87750, Control_c, 0, 64, 72
2, 87757, Control_c, 0, 64, 104
2, 87760, Note_off_c, 0, 67, 64
2, 87762, Control_c, 0, 64, 127
2, 87767, Note_off_c, 0, 55, 64
2, 87780, Note_on_c, 0, 63, 61
2, 87785, Note_on_c, 0, 51, 60
2, 87827, Note_off_c, 0, 51, 64
2, 87830, Note_off_c, 0, 63, 64
2, 87845, Note_on_c, 0, 48, 59
2, 87847, Note_on_c, 0, 60, 64
2, 87890, Note_off_c, 0, 48, 64
2, 87892, Note_on_c, 0, 46, 55
2, 87897, Note_off_c, 0, 60, 64
2, 87907, Note_on_c, 0, 58, 54
2, 87957, Note_off_c, 0, 58, 64
2, 87967, Note_on_c, 0, 55, 75
2, 87972, Note_off_c, 0, 46, 64
2, 87975, Note_on_c, 0, 43, 55
2, 87992, Note_off_c, 0, 43, 64
2, 88000, Note_off_c, 0, 55, 64
2, 88030, Note_on_c, 0, 67, 70
2, 88035, Note_on_c, 0, 55, 51
2, 88070, Note_off_c, 0, 67, 64
2, 88077, Note_off_c, 0, 55, 64
2, 88087, Control_c, 0, 64, 104
2, 88095, Control_c, 0, 64, 56
2, 88097, Note_on_c, 0, 63, 60
2, 88102, Control_c, 0, 64, 24
2, 88105, Note_on_c, 0, 51, 65
2, 88122, Control_c, 0, 64, 56
2, 88130, Control_c, 0, 64, 88
2, 88135, Control_c, 0, 64, 127
2, 88147, Note_off_c, 0, 51, 64
2, 88147, Note_off_c, 0, 63, 64
2, 88160, Note_on_c, 0, 60, 62
2, 88160, Note_on_c, 0, 48, 70
2, 88212, Note_off_c, 0, 48, 64
2, 88212, Note_off_c, 0, 60, 64
2, 88222, Note_on_c, 0, 58, 53
2, 88222, Note_on_c, 0, 46, 55
2, 88267, Note_off_c, 0, 58, 64
2, 88277, Note_off_c, 0, 46, 64
2, 88280, Note_on_c, 0, 55, 75
2, 88295, Note_on_c, 0, 43, 59
2, 88327, Note_off_c, 0, 43, 64
2, 88332, Note_off_c, 0, 55, 64
2, 88345, Note_on_c, 0, 63, 65
2, 88352, Note_on_c, 0, 51, 60
2, 88390, Note_off_c, 0, 51, 64
2, 88390, Note_off_c, 0, 63, 64
2, 88405, Note_on_c, 0, 60, 70
2, 88415, Note_on_c, 0, 48, 63
2, 88455, Note_off_c, 0, 48, 64
2, 88457, Note_on_c, 0, 46, 60
2, 88465, Note_off_c, 0, 60, 64
2, 88467, Note_on_c, 0, 58, 62
2, 88525, Note_off_c, 0, 58, 64
2, 88530, Note_on_c, 0, 55, 77
2, 88537, Note_on_c, 0, 43, 51
2, 88540, Note_off_c, 0, 46, 64
2, 88550, Note_off_c, 0, 43, 64
2, 88567, Note_off_c, 0, 55, 64
2, 88587, Control_c, 0, 64, 88
2, 88597, Note_on_c, 0, 51, 77
2, 88597, Control_c, 0, 64, 56
2, 88602, Note_on_c, 0, 39, 52
2, 88602, Control_c, 0, 64, 0
2, 88617, Note_off_c, 0, 39, 64
2, 88637, Control_c, 0, 64, 40
2, 88645, Control_c, 0, 64, 72
2, 88650, Control_c, 0, 64, 104
2, 88652, Note_off_c, 0, 51, 64
2, 88657, Control_c, 0, 64, 127
2, 88667, Note_on_c, 0, 50, 54
2, 88670, Note_on_c, 0, 38, 48
2, 88702, Note_off_c, 0, 50, 64
2, 88710, Note_off_c, 0, 38, 64
2, 88722, Note_on_c, 0, 41, 50
2, 88722, Note_on_c, 0, 53, 70
2, 88760, Note_off_c, 0, 41, 64
2, 88770, Note_off_c, 0, 53, 64
2, 88775, Note_on_c, 0, 39, 51
2, 88782, Note_on_c, 0, 51, 67
2, 88825, Note_off_c, 0, 39, 64
2, 88835, Note_off_c, 0, 51, 64
2, 88840, Note_on_c, 0, 37, 57
2, 88842, Control_c, 0, 64, 104
2, 88845, Note_on_c, 0, 49, 73
2, 88847, Control_c, 0, 64, 56
2, 88855, Control_c, 0, 64, 0
2, 88887, Control_c, 0, 64, 24
2, 88895, Control_c, 0, 64, 56
2, 88900, Note_off_c, 0, 49, 64
2, 88902, Control_c, 0, 64, 88
2, 88907, Note_on_c, 0, 53, 66
2, 88907, Control_c, 0, 64, 127
2, 88910, Note_on_c, 0, 41, 64
2, 88912, Note_off_c, 0, 37, 64
2, 88960, Note_off_c, 0, 41, 64
2, 88960, Note_off_c, 0, 53, 64
2, 88962, Note_on_c, 0, 39, 58
2, 88970, Note_on_c, 0, 51, 64
2, 89015, Note_off_c, 0, 39, 64
2, 89017, Control_c, 0, 64, 104
2, 89025, Note_off_c, 0, 51, 64
2, 89025, Control_c, 0, 64, 56
2, 89030, Control_c, 0, 64, 24
2, 89032, Note_on_c, 0, 48, 87
2, 89032, Note_on_c, 0, 36, 66
2, 89037, Control_c, 0, 64, 0
2, 89057, Control_c, 0, 64, 72
2, 89065, Control_c, 0, 64, 88
2, 89072, Control_c, 0, 64, 127
2, 89085, Note_on_c, 0, 41, 53
2, 89090, Note_off_c, 0, 36, 64
2, 89097, Note_on_c, 0, 53, 64
2, 89110, Note_off_c, 0, 48, 64
2, 89135, Note_off_c, 0, 53, 64
2, 89135, Note_off_c, 0, 41, 64
2, 89142, Note_on_c, 0, 39, 54
2, 89152, Note_on_c, 0, 51, 63
2, 89202, Note_off_c, 0, 39, 64
2, 89205, Note_off_c, 0, 51, 64
2, 89207, Control_c, 0, 64, 88
2, 89210, Note_on_c, 0, 47, 82
2, 89212, Note_on_c, 0, 35, 66
2, 89215, Control_c, 0, 64, 40
2, 89220, Control_c, 0, 64, 24
2, 89240, Control_c, 0, 64, 56
2, 89247, Control_c, 0, 64, 72
2, 89255, Control_c, 0, 64, 104
2, 89260, Control_c, 0, 64, 127
2, 89262, Note_on_c, 0, 41, 54
2, 89267, Note_off_c, 0, 35, 64
2, 89270, Note_on_c, 0, 53, 69
2, 89295, Note_off_c, 0, 47, 64
2, 89310, Note_off_c, 0, 41, 64
2, 89312, Note_off_c, 0, 53, 64
2, 89315, Note_on_c, 0, 39, 54
2, 89327, Note_on_c, 0, 51, 67
2, 89375, Note_off_c, 0, 51, 64
2, 89377, Note_off_c, 0, 39, 64
2, 89377, Control_c, 0, 64, 104
2, 89382, Control_c, 0, 64, 56
2, 89385, Note_on_c, 0, 34, 65
2, 89387, Note_on_c, 0, 46, 83
2, 89390, Control_c, 0, 64, 0
2, 89410, Control_c, 0, 64, 24
2, 89417, Control_c, 0, 64, 56
2, 89422, Control_c, 0, 64, 88
2, 89430, Control_c, 0, 64, 127
2, 89435, Note_on_c, 0, 41, 56
2, 89445, Note_off_c, 0, 34, 64
2, 89447, Note_on_c, 0, 53, 66
2, 89482, Note_off_c, 0, 53, 64
2, 89482, Note_off_c, 0, 41, 64
2, 89485, Note_off_c, 0, 46, 64
2, 89500, Note_on_c, 0, 51, 62
2, 89545, Note_off_c, 0, 51, 64
2, 89545, Control_c, 0, 64, 56
2, 89552, Note_on_c, 0, 45, 93
2, 89552, Control_c, 0, 64, 0
2, 89555, Note_on_c, 0, 33, 66
2, 89580, Control_c, 0, 64, 24
2, 89587, Control_c, 0, 64, 72
2, 89592, Control_c, 0, 64, 127
2, 89605, Note_on_c, 0, 41, 59
2, 89610, Note_on_c, 0, 53, 69
2, 89645, Note_off_c, 0, 45, 64
2, 89652, Note_off_c, 0, 53, 64
2, 89655, Note_off_c, 0, 41, 64
2, 89657, Note_on_c, 0, 39, 56
2, 89660, Note_on_c, 0, 51, 72
2, 89695, Note_off_c, 0, 33, 64
2, 89715, Note_off_c, 0, 51, 64
2, 89715, Note_off_c, 0, 39, 64
2, 89720, Note_on_c, 0, 48, 94
2, 89722, Control_c, 0, 64, 72
2, 89725, Note_on_c, 0, 36, 63
2, 89730, Control_c, 0, 64, 0
2, 89762, Control_c, 0, 64, 40
2, 89770, Control_c, 0, 64, 72
2, 89775, Control_c, 0, 64, 127
2, 89780, Note_on_c, 0, 41, 51
2, 89782, Note_on_c, 0, 53, 64
2, 89792, Note_off_c, 0, 36, 64
2, 89800, Note_off_c, 0, 48, 64
2, 89817, Note_off_c, 0, 53, 64
2, 89825, Note_on_c, 0, 51, 69
2, 89827, Note_off_c, 0, 41, 64
2, 89832, Note_on_c, 0, 39, 60
2, 89877, Control_c, 0, 64, 104
2, 89882, Note_off_c, 0, 51, 64
2, 89885, Control_c, 0, 64, 40
2, 89890, Note_on_c, 0, 46, 84
2, 89892, Control_c, 0, 64, 0
2, 89897, Note_off_c, 0, 39, 64
2, 89905, Note_on_c, 0, 34, 67
2, 89917, Control_c, 0, 64, 24
2, 89925, Control_c, 0, 64, 72
2, 89932, Control_c, 0, 64, 127
2, 89952, Note_on_c, 0, 55, 74
2, 89957, Note_on_c, 0, 43, 64
2, 89962, Note_off_c, 0, 46, 64
2, 89980, Note_off_c, 0, 34, 64
2, 89982, Note_off_c, 0, 43, 64
2, 89985, Note_off_c, 0, 55, 64
2, 90035, Note_on_c, 0, 39, 90
2, 90042, Note_on_c, 0, 27, 76
2, 90055, Control_c, 0, 64, 72
2, 90060, Control_c, 0, 64, 0
2, 90102, Control_c, 0, 64, 24
2, 90110, Control_c, 0, 64, 88
2, 90115, Control_c, 0, 64, 127
2, 90137, Note_off_c, 0, 27, 64
2, 90145, Note_off_c, 0, 39, 64
2, 90355, Note_on_c, 0, 87, 99
2, 90357, Note_on_c, 0, 75, 85
2, 90365, Note_on_c, 0, 58, 60
2, 90365, Note_on_c, 0, 63, 65
2, 90372, Note_on_c, 0, 67, 57
2, 90372, Note_on_c, 0, 55, 51
2, 90412, Control_c, 0, 64, 88
2, 90420, Control_c, 0, 64, 0
2, 90467, Control_c, 0, 64, 127
2, 90487, Note_off_c, 0, 87, 64
2, 90495, Note_off_c, 0, 75, 64
2, 90505, Note_off_c, 0, 67, 64
2, 90517, Note_off_c, 0, 63, 64
2, 90520, Note_off_c, 0, 55, 64
2, 90530, Note_off_c, 0, 58, 64
2, 90677, Note_on_c, 0, 63, 83
2, 90677, Note_on_c, 0, 51, 84
2, 90680, Note_on_c, 0, 39, 77
2, 90700, Note_off_c, 0, 51, 64
2, 90702, Note_off_c, 0, 39, 64
2, 90705, Note_off_c, 0, 63, 64
2, 90732, Note_on_c, 0, 63, 82
2, 90732, Note_on_c, 0, 51, 83
2, 90735, Note_on_c, 0, 39, 71
2, 90762, Note_off_c, 0, 39, 64
2, 90762, Note_off_c, 0, 51, 64
2, 90765, Note_off_c, 0, 63, 64
2, 90790, Note_on_c, 0, 63, 83
2, 90792, Note_on_c, 0, 51, 80
2, 90802, Note_on_c, 0, 39, 75
2, 90835, Control_c, 0, 64, 88
2, 91377, Note_off_c, 0, 63, 64
2, 91377, Note_off_c, 0, 51, 64
2, 91377, Note_off_c, 0, 39, 64
2, 91650, Control_c, 0, 64, 24
2, 91660, Control_c, 0, 64, 104
2, 91670, Control_c, 0, 64, 127
2, 91835, Control_c, 0, 64, 72
2, 91847, Control_c, 0, 64, 0
2, 91890, Control_c, 0, 64, 56
2, 91900, Control_c, 0, 64, 104
2, 91910, Control_c, 0, 64, 127
2, 91942, Control_c, 0, 64, 104
2, 91952, Control_c, 0, 64, 56
2, 91962, Control_c, 0, 64, 0
2, 91962, End_track
3, 0, Start_track
3, 0, Title_t, "2nd mov.  Scherzo"
3, 0, End_track
4, 0, Start_track
4, 0, Title_t, "Robert Finley, piano"
4, 0, End_track
5, 0, Start_track
5, 0, End_track
6, 0, Start_track
6, 0, End_track
7, 0, Start_track
7, 0, End_track
8, 0, Start_track
8, 0, End_track
9, 0, Start_track
9, 0, End_track
10, 0, Start_track
10, 0, End_track
11, 0, Start_track
11, 0, End_track
0, 0, End_of_file