0, 0, Header, 1, 9, 120
1, 0, Start_track
1, 0, Time_signature, 3, 2, 24, 8
1, 0, Key_signature, -4, "major"
1, 0, Tempo, 375000
1, 2650, Tempo, 375000
1, 2670, Tempo, 377358
1, 2700, Tempo, 379746
1, 2710, Tempo, 382165
1, 2730, Tempo, 384615
1, 2740, Tempo, 387096
1, 2760, Tempo, 389610
1, 2780, Tempo, 394736
1, 2800, Tempo, 397350
1, 2820, Tempo, 400000
1, 2830, Tempo, 402684
1, 2840, Tempo, 408163
1, 2860, Tempo, 410958
1, 2870, Tempo, 416666
1, 2880, Tempo, 419580
1, 2890, Tempo, 422535
1, 2910, Tempo, 428571
1, 3120, Tempo, 375000
1, 4800, Tempo, 377358
1, 4810, Tempo, 384615
1, 4820, Tempo, 387096
1, 4840, Tempo, 389610
1, 4850, Tempo, 392156
1, 4870, Tempo, 394736
1, 4890, Tempo, 397350
1, 4900, Tempo, 402684
1, 4920, Tempo, 405405
1, 4930, Tempo, 410958
1, 4940, Tempo, 413793
1, 4960, Tempo, 416666
1, 4970, Tempo, 419580
1, 4980, Tempo, 422535
1, 5000, Tempo, 425531
1, 5010, Tempo, 428571
1, 5020, Tempo, 431654
1, 5160, Tempo, 375000
1, 6960, Tempo, 377358
1, 6980, Tempo, 379746
1, 6990, Tempo, 382165
1, 7000, Tempo, 384615
1, 7030, Tempo, 387096
1, 7050, Tempo, 389610
1, 7060, Tempo, 392156
1, 7080, Tempo, 394736
1, 7100, Tempo, 397350
1, 7130, Tempo, 402684
1, 7150, Tempo, 405405
1, 7160, Tempo, 408163
1, 7170, Tempo, 413793
1, 7200, Tempo, 422535
1, 7220, Tempo, 431654
1, 7240, Tempo, 434782
1, 7250, Tempo, 441176
1, 7260, Tempo, 444444
1, 7270, Tempo, 447761
1, 7280, Tempo, 451127
1, 7290, Tempo, 454545
1, 7300, Tempo, 461538
1, 7320, Tempo, 472440
1, 7330, Tempo, 476190
1, 7340, Tempo, 483870
1, 7350, Tempo, 487804
1, 7360, Tempo, 491803
1, 7370, Tempo, 495867
1, 7380, Tempo, 504201
1, 7390, Tempo, 508474
1, 7410, Tempo, 517241
1, 7420, Tempo, 526315
1, 7440, Tempo, 535714
1, 7450, Tempo, 540540
1, 7460, Tempo, 550458
1, 7470, Tempo, 560747
1, 7480, Tempo, 566037
1, 7490, Tempo, 576923
1, 7500, Tempo, 588235
1, 7510, Tempo, 612244
1, 7520, Tempo, 618556
1, 7530, Tempo, 625000
1, 7540, Tempo, 652173
1, 7550, Tempo, 659340
1, 7560, Tempo, 674157
1, 7570, Tempo, 681818
1, 7580, Tempo, 714285
1, 7600, Tempo, 722891
1, 7610, Tempo, 731707
1, 7620, Tempo, 750000
1, 7630, Tempo, 769230
1, 7650, Tempo, 789473
1, 7660, Tempo, 810810
1, 7680, Tempo, 375000
1, 9850, Tempo, 377358
1, 9860, Tempo, 379746
1, 9880, Tempo, 389610
1, 9890, Tempo, 397350
1, 9900, Tempo, 410958
1, 9910, Tempo, 413793
1, 9920, Tempo, 425531
1, 9930, Tempo, 428571
1, 9940, Tempo, 434782
1, 9950, Tempo, 437956
1, 9960, Tempo, 444444
1, 9970, Tempo, 451127
1, 9980, Tempo, 454545
1, 9990, Tempo, 458015
1, 10000, Tempo, 465116
1, 10010, Tempo, 476190
1, 10020, Tempo, 480000
1, 10030, Tempo, 483870
1, 10040, Tempo, 491803
1, 10050, Tempo, 495867
1, 10320, Tempo, 495867
1, 10440, Tempo, 428571
1, 10680, Tempo, 375000
1, 13810, Tempo, 375000
1, 13820, Tempo, 377358
1, 13870, Tempo, 379746
1, 13880, Tempo, 382165
1, 13910, Tempo, 384615
1, 13950, Tempo, 387096
1, 13960, Tempo, 389610
1, 13990, Tempo, 394736
1, 14020, Tempo, 397350
1, 14040, Tempo, 402684
1, 14050, Tempo, 405405
1, 14060, Tempo, 408163
1, 14070, Tempo, 410958
1, 14080, Tempo, 413793
1, 14100, Tempo, 419580
1, 14120, Tempo, 425531
1, 14150, Tempo, 428571
1, 14160, Tempo, 431654
1, 14170, Tempo, 434782
1, 14190, Tempo, 437956
1, 14210, Tempo, 441176
1, 14220, Tempo, 444444
1, 14230, Tempo, 447761
1, 14250, Tempo, 451127
1, 14260, Tempo, 458015
1, 14290, Tempo, 461538
1, 14300, Tempo, 465116
1, 14310, Tempo, 472440
1, 14340, Tempo, 476190
1, 14350, Tempo, 480000
1, 14380, Tempo, 487804
1, 14390, Tempo, 495867
1, 14640, Tempo, 375000
1, 17040, Tempo, 375000
1, 17060, Tempo, 379746
1, 17090, Tempo, 382165
1, 17110, Tempo, 384615
1, 17140, Tempo, 387096
1, 17150, Tempo, 389610
1, 17170, Tempo, 392156
1, 17180, Tempo, 394736
1, 17190, Tempo, 397350
1, 17200, Tempo, 400000
1, 17210, Tempo, 402684
1, 17220, Tempo, 408163
1, 17230, Tempo, 410958
1, 17240, Tempo, 416666
1, 17250, Tempo, 422535
1, 17260, Tempo, 428571
1, 17770, Tempo, 375000
1, 19930, Tempo, 377358
1, 19940, Tempo, 379746
1, 19960, Tempo, 382165
1, 19970, Tempo, 387096
1, 20000, Tempo, 394736
1, 20030, Tempo, 402684
1, 20060, Tempo, 408163
1, 20080, Tempo, 413793
1, 20100, Tempo, 416666
1, 20110, Tempo, 419580
1, 20140, Tempo, 428571
1, 20170, Tempo, 437956
1, 20210, Tempo, 447761
1, 20240, Tempo, 458015
1, 20270, Tempo, 468750
1, 20310, Tempo, 480000
1, 20330, Tempo, 483870
1, 20360, Tempo, 487804
1, 20380, Tempo, 500000
1, 20420, Tempo, 508474
1, 20450, Tempo, 521739
1, 20490, Tempo, 535714
1, 20500, Tempo, 540540
1, 20510, Tempo, 545454
1, 20520, Tempo, 550458
1, 20530, Tempo, 555555
1, 20550, Tempo, 560747
1, 20580, Tempo, 566037
1, 20590, Tempo, 571428
1, 20610, Tempo, 576923
1, 20630, Tempo, 582524
1, 20640, Tempo, 375000
1, 25680, Tempo, 377358
1, 25700, Tempo, 379746
1, 25720, Tempo, 382165
1, 25730, Tempo, 387096
1, 25750, Tempo, 389610
1, 25770, Tempo, 394736
1, 25780, Tempo, 397350
1, 25790, Tempo, 400000
1, 25810, Tempo, 408163
1, 25830, Tempo, 410958
1, 25840, Tempo, 413793
1, 25850, Tempo, 419580
1, 25870, Tempo, 422535
1, 25890, Tempo, 428571
1, 26280, Tempo, 375000
1, 28920, Tempo, 375000
1, 28930, Tempo, 377358
1, 28940, Tempo, 379746
1, 28960, Tempo, 382165
1, 28980, Tempo, 384615
1, 28990, Tempo, 387096
1, 29000, Tempo, 389610
1, 29010, Tempo, 392156
1, 29020, Tempo, 397350
1, 29030, Tempo, 400000
1, 29040, Tempo, 402684
1, 29050, Tempo, 405405
1, 29060, Tempo, 408163
1, 29080, Tempo, 413793
1, 29100, Tempo, 416666
1, 29120, Tempo, 419580
1, 29140, Tempo, 425531
1, 29160, Tempo, 428571
1, 29400, Tempo, 375000
1, 32880, Tempo, 379746
1, 32890, Tempo, 382165
1, 32910, Tempo, 389610
1, 32930, Tempo, 392156
1, 32940, Tempo, 397350
1, 32950, Tempo, 402684
1, 32980, Tempo, 405405
1, 33000, Tempo, 408163
1, 33010, Tempo, 410958
1, 33020, Tempo, 413793
1, 33040, Tempo, 416666
1, 33060, Tempo, 419580
1, 33080, Tempo, 422535
1, 33110, Tempo, 425531
1, 33120, Tempo, 428571
1, 33600, Tempo, 375000
1, 38650, Tempo, 375000
1, 38680, Tempo, 377358
1, 38700, Tempo, 379746
1, 38720, Tempo, 387096
1, 38750, Tempo, 392156
1, 38770, Tempo, 397350
1, 38800, Tempo, 405405
1, 38830, Tempo, 410958
1, 38840, Tempo, 416666
1, 38860, Tempo, 419580
1, 38880, Tempo, 422535
1, 38900, Tempo, 431654
1, 38920, Tempo, 441176
1, 38950, Tempo, 444444
1, 38960, Tempo, 451127
1, 38970, Tempo, 454545
1, 38990, Tempo, 458015
1, 39000, Tempo, 461538
1, 39010, Tempo, 465116
1, 39040, Tempo, 472440
1, 39060, Tempo, 483870
1, 39080, Tempo, 491803
1, 39090, Tempo, 495867
1, 39110, Tempo, 500000
1, 39120, Tempo, 512820
1, 39130, Tempo, 517241
1, 39150, Tempo, 530973
1, 39160, Tempo, 545454
1, 39170, Tempo, 555555
1, 39190, Tempo, 566037
1, 39200, Tempo, 571428
1, 39210, Tempo, 582524
1, 39220, Tempo, 594059
1, 39230, Tempo, 600000
1, 39240, Tempo, 618556
1, 39250, Tempo, 631578
1, 39260, Tempo, 645161
1, 39270, Tempo, 652173
1, 39280, Tempo, 666666
1, 39290, Tempo, 681818
1, 39360, Tempo, 375000
1, 41520, Tempo, 375000
1, 41530, Tempo, 377358
1, 41550, Tempo, 382165
1, 41570, Tempo, 387096
1, 41590, Tempo, 389610
1, 41610, Tempo, 392156
1, 41630, Tempo, 397350
1, 41650, Tempo, 400000
1, 41660, Tempo, 402684
1, 41670, Tempo, 408163
1, 41690, Tempo, 416666
1, 41700, Tempo, 419580
1, 41710, Tempo, 422535
1, 41720, Tempo, 425531
1, 42120, Tempo, 375000
1, 44040, Tempo, 379746
1, 44050, Tempo, 382165
1, 44080, Tempo, 384615
1, 44100, Tempo, 387096
1, 44140, Tempo, 389610
1, 44150, Tempo, 392156
1, 44170, Tempo, 394736
1, 44180, Tempo, 397350
1, 44190, Tempo, 400000
1, 44200, Tempo, 402684
1, 44220, Tempo, 408163
1, 44230, Tempo, 410958
1, 44240, Tempo, 413793
1, 44250, Tempo, 416666
1, 44260, Tempo, 419580
1, 44270, Tempo, 422535
1, 44280, Tempo, 425531
1, 44300, Tempo, 428571
1, 44320, Tempo, 431654
1, 44340, Tempo, 434782
1, 44360, Tempo, 437956
1, 44380, Tempo, 441176
1, 44400, Tempo, 444444
1, 44440, Tempo, 447761
1, 44450, Tempo, 451127
1, 44500, Tempo, 454545
1, 44520, Tempo, 458015
1, 44540, Tempo, 461538
1, 44560, Tempo, 465116
1, 44580, Tempo, 468750
1, 44610, Tempo, 472440
1, 44650, Tempo, 476190
1, 44660, Tempo, 480000
1, 44680, Tempo, 483870
1, 44700, Tempo, 487804
1, 44720, Tempo, 491803
1, 44740, Tempo, 495867
1, 44770, Tempo, 500000
1, 44800, Tempo, 508474
1, 44830, Tempo, 512820
1, 44840, Tempo, 517241
1, 44880, Tempo, 521739
1, 44900, Tempo, 526315
1, 44920, Tempo, 530973
1, 44960, Tempo, 535714
1, 44980, Tempo, 540540
1, 44980, End_track
2, 0, Start_track
2, 0, MIDI_port, 0
2, 0, Program_c, 0, 0
2, 0, Control_c, 0, 7, 127
2, 0, Control_c, 0, 10, 64
2, 120, Control_c, 0, 91, 64
2, 120, Control_c, 0, 11, 88
2, 360, Note_on_c, 0, 72, 101
2, 480, Control_c, 0, 64, 127
2, 480, Control_c, 0, 11, 88
2, 507, Control_c, 0, 11, 87
2, 535, Control_c, 0, 11, 86
2, 562, Control_c, 0, 11, 85
2, 585, Note_on_c, 0, 72, 0
2, 590, Control_c, 0, 11, 84
2, 600, Note_on_c, 0, 73, 101
2, 618, Control_c, 0, 11, 83
2, 646, Control_c, 0, 11, 82
2, 652, Note_on_c, 0, 73, 0
2, 660, Note_on_c, 0, 72, 101
2, 673, Control_c, 0, 11, 81
2, 701, Control_c, 0, 11, 80
2, 712, Note_on_c, 0, 72, 0
2, 720, Note_on_c, 0, 70, 101
2, 729, Control_c, 0, 11, 79
2, 756, Control_c, 0, 11, 78
2, 772, Note_on_c, 0, 70, 0
2, 780, Note_on_c, 0, 68, 101
2, 784, Control_c, 0, 64, 0
2, 784, Control_c, 0, 11, 77
2, 812, Control_c, 0, 11, 76
2, 832, Note_on_c, 0, 68, 0
2, 840, Control_c, 0, 64, 127
2, 840, Note_on_c, 0, 67, 101
2, 1005, Note_on_c, 0, 67, 0
2, 1020, Note_on_c, 0, 65, 101
2, 1072, Note_on_c, 0, 65, 0
2, 1080, Note_on_c, 0, 65, 127
2, 1144, Control_c, 0, 64, 0
2, 1185, Note_on_c, 0, 65, 0
2, 1200, Note_on_c, 0, 77, 101
2, 1200, Control_c, 0, 11, 75
2, 1227, Control_c, 0, 11, 76
2, 1255, Control_c, 0, 11, 77
2, 1282, Control_c, 0, 11, 78
2, 1305, Note_on_c, 0, 77, 0
2, 1310, Control_c, 0, 11, 79
2, 1320, Note_on_c, 0, 70, 101
2, 1338, Control_c, 0, 11, 80
2, 1366, Control_c, 0, 11, 81
2, 1372, Note_on_c, 0, 70, 0
2, 1380, Note_on_c, 0, 72, 101
2, 1393, Control_c, 0, 11, 82
2, 1421, Control_c, 0, 11, 83
2, 1432, Note_on_c, 0, 72, 0
2, 1440, Note_on_c, 0, 75, 101
2, 1449, Control_c, 0, 11, 84
2, 1476, Control_c, 0, 11, 85
2, 1492, Note_on_c, 0, 75, 0
2, 1500, Note_on_c, 0, 73, 101
2, 1504, Control_c, 0, 11, 86
2, 1515, Note_on_c, 0, 72, 101
2, 1528, Note_on_c, 0, 72, 0
2, 1530, Note_on_c, 0, 73, 101
2, 1532, Control_c, 0, 11, 87
2, 1543, Note_on_c, 0, 73, 0
2, 1545, Note_on_c, 0, 75, 101
2, 1552, Note_on_c, 0, 73, 0
2, 1558, Note_on_c, 0, 75, 0
2, 1560, Control_c, 0, 64, 127
2, 1560, Note_on_c, 0, 73, 101
2, 1725, Note_on_c, 0, 73, 0
2, 1740, Note_on_c, 0, 72, 101
2, 1792, Note_on_c, 0, 72, 0
2, 1800, Note_on_c, 0, 72, 127
2, 1864, Control_c, 0, 64, 0
2, 1905, Note_on_c, 0, 72, 0
2, 1920, Control_c, 0, 64, 127
2, 1920, Note_on_c, 0, 71, 101
2, 1920, Control_c, 0, 11, 88
2, 1947, Control_c, 0, 11, 89
2, 1972, Note_on_c, 0, 71, 0
2, 1975, Control_c, 0, 11, 90
2, 1980, Note_on_c, 0, 72, 101
2, 2002, Control_c, 0, 11, 91
2, 2025, Note_on_c, 0, 75, 101
2, 2030, Control_c, 0, 11, 92
2, 2032, Note_on_c, 0, 72, 0
2, 2038, Note_on_c, 0, 75, 0
2, 2040, Note_on_c, 0, 73, 101
2, 2058, Control_c, 0, 11, 93
2, 2086, Control_c, 0, 11, 94
2, 2092, Note_on_c, 0, 73, 0
2, 2100, Note_on_c, 0, 72, 101
2, 2113, Control_c, 0, 11, 95
2, 2141, Control_c, 0, 11, 96
2, 2152, Note_on_c, 0, 72, 0
2, 2160, Note_on_c, 0, 77, 101
2, 2169, Control_c, 0, 11, 97
2, 2196, Control_c, 0, 11, 98
2, 2212, Note_on_c, 0, 77, 0
2, 2220, Note_on_c, 0, 79, 101
2, 2224, Control_c, 0, 64, 0
2, 2224, Control_c, 0, 11, 99
2, 2252, Control_c, 0, 11, 100
2, 2272, Note_on_c, 0, 79, 0
2, 2280, Control_c, 0, 64, 127
2, 2280, Note_on_c, 0, 80, 101
2, 2280, Control_c, 0, 11, 101
2, 2307, Control_c, 0, 11, 102
2, 2332, Note_on_c, 0, 80, 0
2, 2335, Control_c, 0, 11, 103
2, 2340, Note_on_c, 0, 68, 101
2, 2362, Control_c, 0, 11, 104
2, 2390, Control_c, 0, 11, 105
2, 2392, Note_on_c, 0, 68, 0
2, 2400, Note_on_c, 0, 76, 101
2, 2418, Control_c, 0, 11, 106
2, 2446, Control_c, 0, 11, 107
2, 2452, Note_on_c, 0, 76, 0
2, 2460, Note_on_c, 0, 79, 101
2, 2473, Control_c, 0, 11, 108
2, 2501, Control_c, 0, 11, 109
2, 2512, Note_on_c, 0, 79, 0
2, 2520, Note_on_c, 0, 77, 101
2, 2529, Control_c, 0, 11, 110
2, 2556, Control_c, 0, 11, 111
2, 2572, Note_on_c, 0, 77, 0
2, 2580, Note_on_c, 0, 65, 101
2, 2584, Control_c, 0, 64, 0
2, 2584, Control_c, 0, 11, 112
2, 2612, Control_c, 0, 11, 113
2, 2632, Note_on_c, 0, 65, 0
2, 2640, Control_c, 0, 64, 127
2, 2640, Note_on_c, 0, 72, 101
2, 2640, Control_c, 0, 11, 114
2, 2653, Control_c, 0, 11, 113
2, 2667, Control_c, 0, 11, 112
2, 2681, Control_c, 0, 11, 111
2, 2692, Note_on_c, 0, 72, 0
2, 2695, Control_c, 0, 11, 110
2, 2700, Note_on_c, 0, 75, 101
2, 2709, Control_c, 0, 11, 109
2, 2722, Control_c, 0, 11, 108
2, 2736, Control_c, 0, 11, 107
2, 2750, Control_c, 0, 11, 106
2, 2752, Note_on_c, 0, 75, 0
2, 2760, Note_on_c, 0, 73, 101
2, 2764, Control_c, 0, 11, 105
2, 2778, Control_c, 0, 11, 104
2, 2792, Control_c, 0, 11, 103
2, 2806, Control_c, 0, 11, 102
2, 2812, Note_on_c, 0, 73, 0
2, 2820, Note_on_c, 0, 61, 101
2, 2820, Control_c, 0, 11, 101
2, 2833, Control_c, 0, 11, 100
2, 2847, Control_c, 0, 11, 99
2, 2861, Control_c, 0, 11, 98
2, 2872, Note_on_c, 0, 61, 0
2, 2875, Control_c, 0, 11, 97
2, 2880, Note_on_c, 0, 72, 101
2, 2889, Control_c, 0, 11, 96
2, 2902, Control_c, 0, 11, 95
2, 2916, Control_c, 0, 11, 94
2, 2930, Control_c, 0, 11, 93
2, 2932, Note_on_c, 0, 72, 0
2, 2940, Note_on_c, 0, 70, 101
2, 2944, Control_c, 0, 64, 0
2, 2944, Control_c, 0, 11, 92
2, 2958, Control_c, 0, 11, 91
2, 2972, Control_c, 0, 11, 90
2, 2986, Control_c, 0, 11, 89
2, 2992, Note_on_c, 0, 70, 0
2, 3000, Control_c, 0, 64, 127
2, 3000, Note_on_c, 0, 67, 101
2, 3000, Control_c, 0, 11, 88
2, 3013, Control_c, 0, 11, 89
2, 3027, Control_c, 0, 11, 90
2, 3041, Control_c, 0, 11, 91
2, 3052, Note_on_c, 0, 67, 0
2, 3055, Control_c, 0, 11, 92
2, 3060, Note_on_c, 0, 72, 101
2, 3069, Control_c, 0, 11, 93
2, 3082, Control_c, 0, 11, 94
2, 3096, Control_c, 0, 11, 95
2, 3110, Control_c, 0, 11, 96
2, 3112, Note_on_c, 0, 72, 0
2, 3120, Note_on_c, 0, 71, 101
2, 3124, Control_c, 0, 11, 97
2, 3138, Control_c, 0, 11, 98
2, 3152, Control_c, 0, 11, 99
2, 3166, Control_c, 0, 11, 100
2, 3172, Note_on_c, 0, 71, 0
2, 3180, Note_on_c, 0, 72, 101
2, 3180, Control_c, 0, 11, 101
2, 3193, Control_c, 0, 11, 102
2, 3207, Control_c, 0, 11, 103
2, 3221, Control_c, 0, 11, 104
2, 3232, Note_on_c, 0, 72, 0
2, 3235, Control_c, 0, 11, 105
2, 3240, Note_on_c, 0, 73, 101
2, 3249, Control_c, 0, 11, 106
2, 3262, Control_c, 0, 11, 107
2, 3276, Control_c, 0, 11, 108
2, 3290, Control_c, 0, 11, 109
2, 3292, Note_on_c, 0, 73, 0
2, 3300, Note_on_c, 0, 74, 101
2, 3304, Control_c, 0, 64, 0
2, 3304, Control_c, 0, 11, 110
2, 3318, Control_c, 0, 11, 111
2, 3332, Control_c, 0, 11, 112
2, 3346, Control_c, 0, 11, 113
2, 3352, Note_on_c, 0, 74, 0
2, 3360, Control_c, 0, 64, 127
2, 3360, Note_on_c, 0, 75, 101
2, 3360, Control_c, 0, 11, 114
2, 3373, Control_c, 0, 11, 113
2, 3387, Control_c, 0, 11, 112
2, 3401, Control_c, 0, 11, 111
2, 3415, Control_c, 0, 11, 110
2, 3429, Control_c, 0, 11, 109
2, 3442, Control_c, 0, 11, 108
2, 3456, Control_c, 0, 11, 107
2, 3465, Note_on_c, 0, 75, 0
2, 3470, Control_c, 0, 11, 106
2, 3480, Note_on_c, 0, 77, 101
2, 3484, Control_c, 0, 11, 105
2, 3498, Control_c, 0, 11, 104
2, 3512, Control_c, 0, 11, 103
2, 3526, Control_c, 0, 11, 102
2, 3532, Note_on_c, 0, 77, 0
2, 3540, Note_on_c, 0, 75, 101
2, 3540, Control_c, 0, 11, 101
2, 3553, Control_c, 0, 11, 100
2, 3567, Control_c, 0, 11, 99
2, 3581, Control_c, 0, 11, 98
2, 3592, Note_on_c, 0, 75, 0
2, 3595, Control_c, 0, 11, 97
2, 3600, Note_on_c, 0, 73, 101
2, 3609, Control_c, 0, 11, 96
2, 3622, Control_c, 0, 11, 95
2, 3636, Control_c, 0, 11, 94
2, 3650, Control_c, 0, 11, 93
2, 3652, Note_on_c, 0, 73, 0
2, 3660, Note_on_c, 0, 72, 101
2, 3664, Control_c, 0, 64, 0
2, 3664, Control_c, 0, 11, 92
2, 3678, Control_c, 0, 11, 91
2, 3692, Control_c, 0, 11, 90
2, 3706, Control_c, 0, 11, 89
2, 3712, Note_on_c, 0, 72, 0
2, 3720, Control_c, 0, 64, 127
2, 3720, Note_on_c, 0, 70, 101
2, 3885, Note_on_c, 0, 70, 0
2, 3900, Note_on_c, 0, 68, 101
2, 3952, Note_on_c, 0, 68, 0
2, 3960, Note_on_c, 0, 68, 127
2, 4024, Control_c, 0, 64, 0
2, 4065, Note_on_c, 0, 68, 0
2, 4080, Control_c, 0, 64, 127
2, 4080, Note_on_c, 0, 80, 101
2, 4185, Note_on_c, 0, 80, 0
2, 4200, Note_on_c, 0, 72, 101
2, 4252, Note_on_c, 0, 72, 0
2, 4260, Note_on_c, 0, 75, 101
2, 4312, Note_on_c, 0, 75, 0
2, 4320, Note_on_c, 0, 79, 101
2, 4372, Note_on_c, 0, 79, 0
2, 4380, Note_on_c, 0, 77, 101
2, 4384, Control_c, 0, 64, 0
2, 4432, Note_on_c, 0, 77, 0
2, 4440, Control_c, 0, 64, 127
2, 4440, Note_on_c, 0, 75, 101
2, 4605, Note_on_c, 0, 75, 0
2, 4620, Note_on_c, 0, 74, 101
2, 4672, Note_on_c, 0, 74, 0
2, 4680, Note_on_c, 0, 74, 127
2, 4744, Control_c, 0, 64, 0
2, 4785, Note_on_c, 0, 74, 0
2, 4800, Control_c, 0, 64, 127
2, 4800, Note_on_c, 0, 84, 101
2, 4800, Control_c, 0, 11, 101
2, 4965, Note_on_c, 0, 84, 0
2, 4980, Note_on_c, 0, 82, 101
2, 5032, Note_on_c, 0, 82, 0
2, 5040, Note_on_c, 0, 81, 101
2, 5092, Note_on_c, 0, 81, 0
2, 5100, Note_on_c, 0, 80, 101
2, 5104, Control_c, 0, 64, 0
2, 5152, Note_on_c, 0, 80, 0
2, 5160, Control_c, 0, 64, 127
2, 5160, Note_on_c, 0, 80, 101
2, 5160, Control_c, 0, 11, 101
2, 5187, Control_c, 0, 11, 100
2, 5212, Note_on_c, 0, 80, 0
2, 5215, Control_c, 0, 11, 99
2, 5220, Note_on_c, 0, 79, 101
2, 5242, Control_c, 0, 11, 98
2, 5270, Control_c, 0, 11, 97
2, 5272, Note_on_c, 0, 79, 0
2, 5280, Note_on_c, 0, 77, 101
2, 5298, Control_c, 0, 11, 96
2, 5326, Control_c, 0, 11, 95
2, 5332, Note_on_c, 0, 77, 0
2, 5340, Note_on_c, 0, 75, 101
2, 5353, Control_c, 0, 11, 94
2, 5381, Control_c, 0, 11, 93
2, 5392, Note_on_c, 0, 75, 0
2, 5400, Note_on_c, 0, 74, 101
2, 5409, Control_c, 0, 11, 92
2, 5436, Control_c, 0, 11, 91
2, 5452, Note_on_c, 0, 74, 0
2, 5460, Note_on_c, 0, 72, 101
2, 5464, Control_c, 0, 64, 0
2, 5464, Control_c, 0, 11, 90
2, 5492, Control_c, 0, 11, 89
2, 5512, Note_on_c, 0, 72, 0
2, 5520, Control_c, 0, 64, 127
2, 5520, Note_on_c, 0, 72, 101
2, 5572, Note_on_c, 0, 72, 0
2, 5580, Note_on_c, 0, 70, 101
2, 5632, Note_on_c, 0, 70, 0
2, 5640, Note_on_c, 0, 69, 101
2, 5692, Note_on_c, 0, 69, 0
2, 5700, Note_on_c, 0, 70, 101
2, 5745, Note_on_c, 0, 74, 101
2, 5752, Note_on_c, 0, 70, 0
2, 5758, Note_on_c, 0, 74, 0
2, 5760, Note_on_c, 0, 72, 101
2, 5812, Note_on_c, 0, 72, 0
2, 5820, Note_on_c, 0, 70, 101
2, 5824, Control_c, 0, 64, 0
2, 5872, Note_on_c, 0, 70, 0
2, 5880, Control_c, 0, 64, 127
2, 5880, Note_on_c, 0, 72, 101
2, 5932, Note_on_c, 0, 72, 0
2, 5940, Note_on_c, 0, 70, 101
2, 5992, Note_on_c, 0, 70, 0
2, 6000, Note_on_c, 0, 69, 101
2, 6052, Note_on_c, 0, 69, 0
2, 6060, Note_on_c, 0, 70, 101
2, 6105, Note_on_c, 0, 74, 101
2, 6112, Note_on_c, 0, 70, 0
2, 6118, Note_on_c, 0, 74, 0
2, 6120, Note_on_c, 0, 72, 101
2, 6172, Note_on_c, 0, 72, 0
2, 6180, Note_on_c, 0, 70, 101
2, 6184, Control_c, 0, 64, 0
2, 6232, Note_on_c, 0, 70, 0
2, 6240, Control_c, 0, 64, 127
2, 6240, Note_on_c, 0, 70, 101
2, 6240, Control_c, 0, 11, 62
2, 6345, Note_on_c, 0, 70, 0
2, 6360, Note_on_c, 0, 84, 101
2, 6412, Note_on_c, 0, 84, 0
2, 6420, Note_on_c, 0, 82, 101
2, 6472, Note_on_c, 0, 82, 0
2, 6480, Note_on_c, 0, 81, 101
2, 6532, Note_on_c, 0, 81, 0
2, 6540, Note_on_c, 0, 80, 101
2, 6544, Control_c, 0, 64, 0
2, 6592, Note_on_c, 0, 80, 0
2, 6600, Control_c, 0, 64, 127
2, 6600, Note_on_c, 0, 78, 101
2, 6652, Note_on_c, 0, 78, 0
2, 6660, Note_on_c, 0, 79, 101
2, 6712, Note_on_c, 0, 79, 0
2, 6720, Note_on_c, 0, 74, 101
2, 6772, Note_on_c, 0, 74, 0
2, 6780, Note_on_c, 0, 75, 101
2, 6832, Note_on_c, 0, 75, 0
2, 6840, Note_on_c, 0, 63, 101
2, 6892, Note_on_c, 0, 63, 0
2, 6900, Note_on_c, 0, 72, 101
2, 6904, Control_c, 0, 64, 0
2, 6952, Note_on_c, 0, 72, 0
2, 6960, Control_c, 0, 64, 127
2, 6960, Note_on_c, 0, 70, 101
2, 7012, Note_on_c, 0, 70, 0
2, 7020, Note_on_c, 0, 58, 101
2, 7072, Note_on_c, 0, 58, 0
2, 7080, Note_on_c, 0, 67, 101
2, 7132, Note_on_c, 0, 67, 0
2, 7140, Note_on_c, 0, 70, 101
2, 7192, Note_on_c, 0, 70, 0
2, 7200, Note_on_c, 0, 65, 101
2, 7252, Note_on_c, 0, 65, 0
2, 7260, Note_on_c, 0, 70, 101
2, 7264, Control_c, 0, 64, 0
2, 7312, Note_on_c, 0, 70, 0
2, 7320, Note_on_c, 0, 63, 101
2, 7441, Control_c, 0, 11, 58
2, 7448, Control_c, 0, 11, 59
2, 7455, Control_c, 0, 11, 60
2, 7463, Control_c, 0, 11, 61
2, 7470, Control_c, 0, 11, 62
2, 7477, Control_c, 0, 11, 63
2, 7485, Control_c, 0, 11, 64
2, 7492, Control_c, 0, 11, 65
2, 7500, Note_on_c, 0, 73, 101
2, 7500, Control_c, 0, 11, 66
2, 7507, Control_c, 0, 11, 67
2, 7514, Control_c, 0, 11, 68
2, 7515, Note_on_c, 0, 72, 101
2, 7522, Control_c, 0, 11, 69
2, 7528, Note_on_c, 0, 72, 0
2, 7529, Control_c, 0, 11, 70
2, 7530, Note_on_c, 0, 73, 101
2, 7535, Control_c, 0, 64, 127
2, 7536, Control_c, 0, 11, 71
2, 7543, Note_on_c, 0, 73, 0
2, 7544, Control_c, 0, 11, 72
2, 7545, Note_on_c, 0, 63, 0
2, 7545, Note_on_c, 0, 75, 101
2, 7551, Control_c, 0, 11, 73
2, 7552, Note_on_c, 0, 73, 0
2, 7558, Note_on_c, 0, 75, 0
2, 7558, Control_c, 0, 11, 74
2, 7560, Note_on_c, 0, 73, 101
2, 7564, Control_c, 0, 11, 75
2, 7573, Control_c, 0, 11, 74
2, 7582, Control_c, 0, 11, 73
2, 7591, Control_c, 0, 11, 72
2, 7599, Control_c, 0, 11, 71
2, 7608, Control_c, 0, 11, 70
2, 7612, Note_on_c, 0, 73, 0
2, 7617, Control_c, 0, 11, 69
2, 7620, Note_on_c, 0, 72, 101
2, 7626, Control_c, 0, 11, 68
2, 7635, Control_c, 0, 11, 67
2, 7644, Control_c, 0, 11, 66
2, 7653, Control_c, 0, 11, 65
2, 7656, Control_c, 0, 64, 0
2, 7662, Control_c, 0, 11, 64
2, 7671, Control_c, 0, 11, 63
2, 7672, Note_on_c, 0, 72, 0
2, 7680, Note_on_c, 0, 72, 101
2, 7680, Control_c, 0, 11, 88
2, 7707, Control_c, 0, 11, 87
2, 7735, Control_c, 0, 11, 86
2, 7762, Control_c, 0, 11, 85
2, 7785, Note_on_c, 0, 72, 0
2, 7790, Control_c, 0, 11, 84
2, 7800, Note_on_c, 0, 73, 101
2, 7818, Control_c, 0, 11, 83
2, 7846, Control_c, 0, 11, 82
2, 7852, Note_on_c, 0, 73, 0
2, 7860, Note_on_c, 0, 72, 101
2, 7873, Control_c, 0, 11, 81
2, 7901, Control_c, 0, 11, 80
2, 7912, Note_on_c, 0, 72, 0
2, 7920, Note_on_c, 0, 70, 101
2, 7929, Control_c, 0, 11, 79
2, 7956, Control_c, 0, 11, 78
2, 7972, Note_on_c, 0, 70, 0
2, 7980, Note_on_c, 0, 68, 101
2, 7984, Control_c, 0, 11, 77
2, 7988, Control_c, 0, 64, 0
2, 8012, Control_c, 0, 11, 76
2, 8032, Note_on_c, 0, 68, 0
2, 8040, Note_on_c, 0, 67, 101
2, 8205, Note_on_c, 0, 67, 0
2, 8220, Note_on_c, 0, 65, 101
2, 8272, Note_on_c, 0, 65, 0
2, 8280, Note_on_c, 0, 65, 127
2, 8348, Control_c, 0, 64, 0
2, 8385, Note_on_c, 0, 65, 0
2, 8400, Note_on_c, 0, 77, 101
2, 8400, Control_c, 0, 11, 75
2, 8427, Control_c, 0, 11, 76
2, 8455, Control_c, 0, 11, 77
2, 8482, Control_c, 0, 11, 78
2, 8505, Note_on_c, 0, 77, 0
2, 8510, Control_c, 0, 11, 79
2, 8520, Note_on_c, 0, 70, 101
2, 8538, Control_c, 0, 11, 80
2, 8566, Control_c, 0, 11, 81
2, 8572, Note_on_c, 0, 70, 0
2, 8580, Note_on_c, 0, 72, 101
2, 8593, Control_c, 0, 11, 82
2, 8621, Control_c, 0, 11, 83
2, 8632, Note_on_c, 0, 72, 0
2, 8640, Note_on_c, 0, 75, 101
2, 8649, Control_c, 0, 11, 84
2, 8676, Control_c, 0, 11, 85
2, 8692, Note_on_c, 0, 75, 0
2, 8700, Note_on_c, 0, 73, 101
2, 8704, Control_c, 0, 11, 86
2, 8715, Note_on_c, 0, 72, 101
2, 8728, Note_on_c, 0, 72, 0
2, 8730, Note_on_c, 0, 73, 101
2, 8732, Control_c, 0, 11, 87
2, 8743, Note_on_c, 0, 73, 0
2, 8745, Note_on_c, 0, 75, 101
2, 8752, Note_on_c, 0, 73, 0
2, 8758, Note_on_c, 0, 75, 0
2, 8760, Note_on_c, 0, 73, 101
2, 8925, Note_on_c, 0, 73, 0
2, 8940, Note_on_c, 0, 72, 101
2, 8992, Note_on_c, 0, 72, 0
2, 9000, Note_on_c, 0, 72, 127
2, 9068, Control_c, 0, 64, 0
2, 9105, Note_on_c, 0, 72, 0
2, 9120, Note_on_c, 0, 71, 101
2, 9120, Control_c, 0, 11, 88
2, 9172, Note_on_c, 0, 71, 0
2, 9175, Control_c, 0, 11, 89
2, 9180, Note_on_c, 0, 72, 101
2, 9225, Note_on_c, 0, 75, 101
2, 9230, Control_c, 0, 11, 90
2, 9232, Note_on_c, 0, 72, 0
2, 9238, Note_on_c, 0, 75, 0
2, 9240, Note_on_c, 0, 73, 101
2, 9286, Control_c, 0, 11, 91
2, 9292, Note_on_c, 0, 73, 0
2, 9300, Note_on_c, 0, 72, 101
2, 9341, Control_c, 0, 11, 92
2, 9352, Note_on_c, 0, 72, 0
2, 9360, Note_on_c, 0, 77, 101
2, 9396, Control_c, 0, 11, 93
2, 9412, Note_on_c, 0, 77, 0
2, 9420, Note_on_c, 0, 79, 101
2, 9428, Control_c, 0, 64, 0
2, 9452, Control_c, 0, 11, 94
2, 9472, Note_on_c, 0, 79, 0
2, 9480, Note_on_c, 0, 80, 101
2, 9507, Control_c, 0, 11, 95
2, 9532, Note_on_c, 0, 80, 0
2, 9540, Note_on_c, 0, 68, 101
2, 9562, Control_c, 0, 11, 96
2, 9592, Note_on_c, 0, 68, 0
2, 9600, Note_on_c, 0, 76, 101
2, 9618, Control_c, 0, 11, 97
2, 9652, Note_on_c, 0, 76, 0
2, 9660, Note_on_c, 0, 79, 101
2, 9673, Control_c, 0, 11, 98
2, 9712, Note_on_c, 0, 79, 0
2, 9720, Note_on_c, 0, 77, 101
2, 9729, Control_c, 0, 11, 99
2, 9772, Note_on_c, 0, 77, 0
2, 9780, Note_on_c, 0, 65, 101
2, 9784, Control_c, 0, 11, 100
2, 9788, Control_c, 0, 64, 0
2, 9832, Note_on_c, 0, 65, 0
2, 9840, Note_on_c, 0, 72, 101
2, 9840, Control_c, 0, 11, 101
2, 9867, Control_c, 0, 11, 100
2, 9892, Note_on_c, 0, 72, 0
2, 9895, Control_c, 0, 11, 99
2, 9900, Note_on_c, 0, 75, 101
2, 9922, Control_c, 0, 11, 98
2, 9950, Control_c, 0, 11, 97
2, 9952, Note_on_c, 0, 75, 0
2, 9960, Note_on_c, 0, 73, 101
2, 9978, Control_c, 0, 11, 96
2, 10006, Control_c, 0, 11, 95
2, 10012, Note_on_c, 0, 73, 0
2, 10020, Note_on_c, 0, 61, 101
2, 10033, Control_c, 0, 11, 94
2, 10061, Control_c, 0, 11, 93
2, 10072, Note_on_c, 0, 61, 0
2, 10080, Note_on_c, 0, 72, 101
2, 10089, Control_c, 0, 11, 92
2, 10116, Control_c, 0, 11, 91
2, 10132, Note_on_c, 0, 72, 0
2, 10140, Note_on_c, 0, 70, 101
2, 10144, Control_c, 0, 11, 90
2, 10148, Control_c, 0, 64, 0
2, 10172, Control_c, 0, 11, 89
2, 10192, Note_on_c, 0, 70, 0
2, 10200, Note_on_c, 0, 67, 101
2, 10200, Control_c, 0, 11, 88
2, 10213, Control_c, 0, 11, 89
2, 10227, Control_c, 0, 11, 90
2, 10241, Control_c, 0, 11, 91
2, 10252, Note_on_c, 0, 67, 0
2, 10255, Control_c, 0, 11, 92
2, 10260, Note_on_c, 0, 72, 101
2, 10269, Control_c, 0, 11, 93
2, 10282, Control_c, 0, 11, 94
2, 10296, Control_c, 0, 11, 95
2, 10310, Control_c, 0, 11, 96
2, 10312, Note_on_c, 0, 72, 0
2, 10320, Note_on_c, 0, 71, 101
2, 10324, Control_c, 0, 11, 97
2, 10338, Control_c, 0, 11, 98
2, 10352, Control_c, 0, 11, 99
2, 10366, Control_c, 0, 11, 100
2, 10372, Note_on_c, 0, 71, 0
2, 10380, Note_on_c, 0, 72, 101
2, 10380, Control_c, 0, 11, 101
2, 10393, Control_c, 0, 11, 102
2, 10407, Control_c, 0, 11, 103
2, 10421, Control_c, 0, 11, 104
2, 10432, Note_on_c, 0, 72, 0
2, 10435, Control_c, 0, 11, 105
2, 10440, Note_on_c, 0, 73, 101
2, 10449, Control_c, 0, 11, 106
2, 10462, Control_c, 0, 11, 107
2, 10476, Control_c, 0, 11, 108
2, 10490, Control_c, 0, 11, 109
2, 10492, Note_on_c, 0, 73, 0
2, 10500, Note_on_c, 0, 74, 101
2, 10504, Control_c, 0, 11, 110
2, 10508, Control_c, 0, 64, 0
2, 10518, Control_c, 0, 11, 111
2, 10532, Control_c, 0, 11, 112
2, 10546, Control_c, 0, 11, 113
2, 10552, Note_on_c, 0, 74, 0
2, 10560, Note_on_c, 0, 75, 101
2, 10560, Control_c, 0, 11, 114
2, 10573, Control_c, 0, 11, 113
2, 10587, Control_c, 0, 11, 112
2, 10601, Control_c, 0, 11, 111
2, 10615, Control_c, 0, 11, 110
2, 10629, Control_c, 0, 11, 109
2, 10642, Control_c, 0, 11, 108
2, 10656, Control_c, 0, 11, 107
2, 10665, Note_on_c, 0, 75, 0
2, 10670, Control_c, 0, 11, 106
2, 10680, Note_on_c, 0, 77, 101
2, 10684, Control_c, 0, 11, 105
2, 10698, Control_c, 0, 11, 104
2, 10712, Control_c, 0, 11, 103
2, 10726, Control_c, 0, 11, 102
2, 10732, Note_on_c, 0, 77, 0
2, 10740, Note_on_c, 0, 75, 101
2, 10740, Control_c, 0, 11, 101
2, 10753, Control_c, 0, 11, 100
2, 10767, Control_c, 0, 11, 99
2, 10781, Control_c, 0, 11, 98
2, 10792, Note_on_c, 0, 75, 0
2, 10795, Control_c, 0, 11, 97
2, 10800, Note_on_c, 0, 73, 101
2, 10809, Control_c, 0, 11, 96
2, 10822, Control_c, 0, 11, 95
2, 10836, Control_c, 0, 11, 94
2, 10850, Control_c, 0, 11, 93
2, 10852, Note_on_c, 0, 73, 0
2, 10860, Note_on_c, 0, 72, 101
2, 10864, Control_c, 0, 11, 92
2, 10868, Control_c, 0, 64, 0
2, 10878, Control_c, 0, 11, 91
2, 10892, Control_c, 0, 11, 90
2, 10906, Control_c, 0, 11, 89
2, 10912, Note_on_c, 0, 72, 0
2, 10920, Note_on_c, 0, 70, 101
2, 11085, Note_on_c, 0, 70, 0
2, 11100, Note_on_c, 0, 68, 101
2, 11152, Note_on_c, 0, 68, 0
2, 11160, Note_on_c, 0, 68, 127
2, 11228, Control_c, 0, 64, 0
2, 11265, Note_on_c, 0, 68, 0
2, 11280, Note_on_c, 0, 80, 101
2, 11385, Note_on_c, 0, 80, 0
2, 11400, Note_on_c, 0, 72, 101
2, 11452, Note_on_c, 0, 72, 0
2, 11460, Note_on_c, 0, 75, 101
2, 11512, Note_on_c, 0, 75, 0
2, 11520, Note_on_c, 0, 79, 101
2, 11572, Note_on_c, 0, 79, 0
2, 11580, Note_on_c, 0, 77, 101
2, 11588, Control_c, 0, 64, 0
2, 11632, Note_on_c, 0, 77, 0
2, 11640, Note_on_c, 0, 75, 101
2, 11805, Note_on_c, 0, 75, 0
2, 11820, Note_on_c, 0, 74, 101
2, 11872, Note_on_c, 0, 74, 0
2, 11880, Note_on_c, 0, 74, 127
2, 11948, Control_c, 0, 64, 0
2, 11985, Note_on_c, 0, 74, 0
2, 12000, Note_on_c, 0, 84, 101
2, 12000, Control_c, 0, 11, 101
2, 12165, Note_on_c, 0, 84, 0
2, 12180, Note_on_c, 0, 82, 101
2, 12232, Note_on_c, 0, 82, 0
2, 12240, Note_on_c, 0, 81, 101
2, 12292, Note_on_c, 0, 81, 0
2, 12300, Note_on_c, 0, 80, 101
2, 12308, Control_c, 0, 64, 0
2, 12352, Note_on_c, 0, 80, 0
2, 12360, Note_on_c, 0, 80, 101
2, 12360, Control_c, 0, 11, 101
2, 12387, Control_c, 0, 11, 100
2, 12412, Note_on_c, 0, 80, 0
2, 12415, Control_c, 0, 11, 99
2, 12420, Note_on_c, 0, 79, 101
2, 12442, Control_c, 0, 11, 98
2, 12470, Control_c, 0, 11, 97
2, 12472, Note_on_c, 0, 79, 0
2, 12480, Note_on_c, 0, 77, 101
2, 12498, Control_c, 0, 11, 96
2, 12526, Control_c, 0, 11, 95
2, 12532, Note_on_c, 0, 77, 0
2, 12540, Note_on_c, 0, 75, 101
2, 12553, Control_c, 0, 11, 94
2, 12581, Control_c, 0, 11, 93
2, 12592, Note_on_c, 0, 75, 0
2, 12600, Note_on_c, 0, 74, 101
2, 12609, Control_c, 0, 11, 92
2, 12636, Control_c, 0, 11, 91
2, 12652, Note_on_c, 0, 74, 0
2, 12660, Note_on_c, 0, 72, 101
2, 12664, Control_c, 0, 11, 90
2, 12668, Control_c, 0, 64, 0
2, 12692, Control_c, 0, 11, 89
2, 12712, Note_on_c, 0, 72, 0
2, 12720, Note_on_c, 0, 72, 101
2, 12772, Note_on_c, 0, 72, 0
2, 12780, Note_on_c, 0, 70, 101
2, 12832, Note_on_c, 0, 70, 0
2, 12840, Note_on_c, 0, 69, 101
2, 12892, Note_on_c, 0, 69, 0
2, 12900, Note_on_c, 0, 70, 101
2, 12945, Note_on_c, 0, 74, 101
2, 12952, Note_on_c, 0, 70, 0
2, 12958, Note_on_c, 0, 74, 0
2, 12960, Note_on_c, 0, 72, 101
2, 13012, Note_on_c, 0, 72, 0
2, 13020, Note_on_c, 0, 70, 101
2, 13028, Control_c, 0, 64, 0
2, 13072, Note_on_c, 0, 70, 0
2, 13080, Note_on_c, 0, 72, 101
2, 13132, Note_on_c, 0, 72, 0
2, 13140, Note_on_c, 0, 70, 101
2, 13192, Note_on_c, 0, 70, 0
2, 13200, Note_on_c, 0, 69, 101
2, 13252, Note_on_c, 0, 69, 0
2, 13260, Note_on_c, 0, 70, 101
2, 13305, Note_on_c, 0, 74, 101
2, 13312, Note_on_c, 0, 70, 0
2, 13318, Note_on_c, 0, 74, 0
2, 13320, Note_on_c, 0, 72, 101
2, 13372, Note_on_c, 0, 72, 0
2, 13380, Note_on_c, 0, 70, 101
2, 13388, Control_c, 0, 64, 0
2, 13432, Note_on_c, 0, 70, 0
2, 13440, Note_on_c, 0, 70, 101
2, 13440, Control_c, 0, 11, 88
2, 13467, Control_c, 0, 11, 87
2, 13495, Control_c, 0, 11, 86
2, 13522, Control_c, 0, 11, 85
2, 13545, Note_on_c, 0, 70, 0
2, 13550, Control_c, 0, 11, 84
2, 13560, Note_on_c, 0, 84, 101
2, 13578, Control_c, 0, 11, 83
2, 13606, Control_c, 0, 11, 82
2, 13612, Note_on_c, 0, 84, 0
2, 13620, Note_on_c, 0, 82, 101
2, 13633, Control_c, 0, 11, 81
2, 13661, Control_c, 0, 11, 80
2, 13672, Note_on_c, 0, 82, 0
2, 13680, Note_on_c, 0, 81, 101
2, 13689, Control_c, 0, 11, 79
2, 13716, Control_c, 0, 11, 78
2, 13732, Note_on_c, 0, 81, 0
2, 13740, Note_on_c, 0, 80, 101
2, 13744, Control_c, 0, 11, 77
2, 13748, Control_c, 0, 64, 0
2, 13772, Control_c, 0, 11, 76
2, 13792, Note_on_c, 0, 80, 0
2, 13800, Note_on_c, 0, 78, 101
2, 13852, Note_on_c, 0, 78, 0
2, 13860, Note_on_c, 0, 79, 101
2, 13912, Note_on_c, 0, 79, 0
2, 13920, Note_on_c, 0, 74, 101
2, 13972, Note_on_c, 0, 74, 0
2, 13980, Note_on_c, 0, 75, 101
2, 14032, Note_on_c, 0, 75, 0
2, 14040, Note_on_c, 0, 63, 101
2, 14092, Note_on_c, 0, 63, 0
2, 14100, Note_on_c, 0, 72, 101
2, 14108, Control_c, 0, 64, 0
2, 14152, Note_on_c, 0, 72, 0
2, 14160, Note_on_c, 0, 70, 101
2, 14212, Note_on_c, 0, 70, 0
2, 14220, Note_on_c, 0, 58, 101
2, 14272, Note_on_c, 0, 58, 0
2, 14280, Note_on_c, 0, 67, 101
2, 14332, Note_on_c, 0, 67, 0
2, 14340, Note_on_c, 0, 70, 101
2, 14392, Note_on_c, 0, 70, 0
2, 14400, Note_on_c, 0, 65, 101
2, 14452, Note_on_c, 0, 65, 0
2, 14460, Note_on_c, 0, 70, 101
2, 14468, Control_c, 0, 64, 0
2, 14512, Note_on_c, 0, 70, 0
2, 14520, Note_on_c, 0, 63, 101
2, 14745, Note_on_c, 0, 63, 0
2, 14760, Note_on_c, 0, 64, 101
2, 14865, Note_on_c, 0, 64, 0
2, 14880, Note_on_c, 0, 65, 127
2, 15105, Note_on_c, 0, 65, 0
2, 15120, Note_on_c, 0, 67, 101
2, 15188, Control_c, 0, 64, 0
2, 15210, Note_on_c, 0, 68, 101
2, 15223, Note_on_c, 0, 68, 0
2, 15225, Note_on_c, 0, 67, 0
2, 15225, Note_on_c, 0, 70, 101
2, 15238, Note_on_c, 0, 70, 0
2, 15240, Note_on_c, 0, 68, 101
2, 15345, Note_on_c, 0, 68, 0
2, 15360, Note_on_c, 0, 67, 101
2, 15412, Note_on_c, 0, 67, 0
2, 15420, Note_on_c, 0, 68, 101
2, 15472, Note_on_c, 0, 68, 0
2, 15480, Note_on_c, 0, 72, 101
2, 15532, Note_on_c, 0, 72, 0
2, 15540, Note_on_c, 0, 70, 101
2, 15548, Control_c, 0, 64, 0
2, 15592, Note_on_c, 0, 70, 0
2, 15720, Note_on_c, 0, 62, 101
2, 15772, Note_on_c, 0, 62, 0
2, 15780, Note_on_c, 0, 65, 101
2, 15832, Note_on_c, 0, 65, 0
2, 15840, Note_on_c, 0, 63, 101
2, 15892, Note_on_c, 0, 63, 0
2, 15900, Note_on_c, 0, 68, 101
2, 15908, Control_c, 0, 64, 0
2, 15952, Note_on_c, 0, 68, 0
2, 15960, Note_on_c, 0, 60, 127
2, 16268, Control_c, 0, 64, 0
2, 16305, Note_on_c, 0, 60, 0
2, 16320, Note_on_c, 0, 55, 101
2, 16320, Control_c, 0, 11, 75
2, 16329, Control_c, 0, 11, 76
2, 16338, Control_c, 0, 11, 77
2, 16347, Control_c, 0, 11, 78
2, 16356, Control_c, 0, 11, 79
2, 16366, Control_c, 0, 11, 80
2, 16372, Note_on_c, 0, 55, 0
2, 16375, Control_c, 0, 11, 81
2, 16380, Note_on_c, 0, 61, 101
2, 16384, Control_c, 0, 11, 82
2, 16393, Control_c, 0, 11, 83
2, 16402, Control_c, 0, 11, 84
2, 16412, Control_c, 0, 11, 85
2, 16421, Control_c, 0, 11, 86
2, 16430, Control_c, 0, 11, 87
2, 16432, Note_on_c, 0, 61, 0
2, 16440, Note_on_c, 0, 63, 101
2, 16440, Control_c, 0, 11, 88
2, 16449, Control_c, 0, 11, 89
2, 16458, Control_c, 0, 11, 90
2, 16467, Control_c, 0, 11, 91
2, 16476, Control_c, 0, 11, 92
2, 16486, Control_c, 0, 11, 93
2, 16492, Note_on_c, 0, 63, 0
2, 16495, Control_c, 0, 11, 94
2, 16500, Note_on_c, 0, 67, 101
2, 16504, Control_c, 0, 11, 95
2, 16513, Control_c, 0, 11, 96
2, 16522, Control_c, 0, 11, 97
2, 16532, Control_c, 0, 11, 98
2, 16541, Control_c, 0, 11, 99
2, 16550, Control_c, 0, 11, 100
2, 16552, Note_on_c, 0, 67, 0
2, 16560, Note_on_c, 0, 73, 101
2, 16560, Control_c, 0, 11, 101
2, 16569, Control_c, 0, 11, 102
2, 16578, Control_c, 0, 11, 103
2, 16587, Control_c, 0, 11, 104
2, 16596, Control_c, 0, 11, 105
2, 16606, Control_c, 0, 11, 106
2, 16612, Note_on_c, 0, 73, 0
2, 16615, Control_c, 0, 11, 107
2, 16620, Note_on_c, 0, 77, 101
2, 16624, Control_c, 0, 11, 108
2, 16628, Control_c, 0, 64, 0
2, 16633, Control_c, 0, 11, 109
2, 16642, Control_c, 0, 11, 110
2, 16652, Control_c, 0, 11, 111
2, 16661, Control_c, 0, 11, 112
2, 16665, Note_on_c, 0, 73, 101
2, 16670, Control_c, 0, 11, 113
2, 16672, Note_on_c, 0, 77, 0
2, 16680, Note_on_c, 0, 77, 101
2, 16905, Note_on_c, 0, 77, 0
2, 16905, Note_on_c, 0, 73, 0
2, 16920, Note_on_c, 0, 73, 101
2, 16920, Note_on_c, 0, 75, 101
2, 16988, Control_c, 0, 64, 0
2, 17010, Note_on_c, 0, 75, 101
2, 17023, Note_on_c, 0, 75, 0
2, 17025, Note_on_c, 0, 75, 0
2, 17025, Note_on_c, 0, 73, 0
2, 17025, Note_on_c, 0, 77, 101
2, 17038, Note_on_c, 0, 77, 0
2, 17040, Note_on_c, 0, 72, 101
2, 17040, Note_on_c, 0, 75, 101
2, 17145, Note_on_c, 0, 75, 0
2, 17145, Note_on_c, 0, 72, 0
2, 17160, Note_on_c, 0, 71, 101
2, 17160, Note_on_c, 0, 74, 101
2, 17212, Note_on_c, 0, 74, 0
2, 17212, Note_on_c, 0, 71, 0
2, 17220, Note_on_c, 0, 72, 101
2, 17220, Note_on_c, 0, 75, 101
2, 17272, Note_on_c, 0, 75, 0
2, 17272, Note_on_c, 0, 72, 0
2, 17280, Note_on_c, 0, 73, 101
2, 17280, Note_on_c, 0, 77, 101
2, 17332, Note_on_c, 0, 77, 0
2, 17332, Note_on_c, 0, 73, 0
2, 17340, Note_on_c, 0, 72, 101
2, 17340, Note_on_c, 0, 75, 101
2, 17348, Control_c, 0, 64, 0
2, 17392, Note_on_c, 0, 75, 0
2, 17392, Note_on_c, 0, 72, 0
2, 17400, Note_on_c, 0, 72, 127
2, 17400, Note_on_c, 0, 80, 127
2, 17625, Note_on_c, 0, 80, 0
2, 17625, Note_on_c, 0, 72, 0
2, 17629, Control_c, 0, 11, 75
2, 17640, Note_on_c, 0, 67, 101
2, 17708, Control_c, 0, 64, 0
2, 17745, Note_on_c, 0, 67, 0
2, 17760, Note_on_c, 0, 65, 127
2, 17985, Note_on_c, 0, 65, 0
2, 18000, Note_on_c, 0, 67, 101
2, 18068, Control_c, 0, 64, 0
2, 18090, Note_on_c, 0, 68, 101
2, 18103, Note_on_c, 0, 68, 0
2, 18105, Note_on_c, 0, 67, 0
2, 18105, Note_on_c, 0, 70, 101
2, 18118, Note_on_c, 0, 70, 0
2, 18120, Note_on_c, 0, 68, 101
2, 18120, Control_c, 0, 11, 75
2, 18147, Control_c, 0, 11, 76
2, 18175, Control_c, 0, 11, 77
2, 18202, Control_c, 0, 11, 78
2, 18225, Note_on_c, 0, 68, 0
2, 18230, Control_c, 0, 11, 79
2, 18240, Note_on_c, 0, 67, 101
2, 18258, Control_c, 0, 11, 80
2, 18286, Control_c, 0, 11, 81
2, 18292, Note_on_c, 0, 67, 0
2, 18300, Note_on_c, 0, 68, 101
2, 18313, Control_c, 0, 11, 82
2, 18341, Control_c, 0, 11, 83
2, 18352, Note_on_c, 0, 68, 0
2, 18360, Note_on_c, 0, 72, 101
2, 18369, Control_c, 0, 11, 84
2, 18396, Control_c, 0, 11, 85
2, 18412, Note_on_c, 0, 72, 0
2, 18420, Note_on_c, 0, 70, 101
2, 18424, Control_c, 0, 11, 86
2, 18428, Control_c, 0, 64, 0
2, 18452, Control_c, 0, 11, 87
2, 18472, Note_on_c, 0, 70, 0
2, 18600, Note_on_c, 0, 62, 101
2, 18652, Note_on_c, 0, 62, 0
2, 18660, Note_on_c, 0, 65, 101
2, 18712, Note_on_c, 0, 65, 0
2, 18720, Note_on_c, 0, 63, 101
2, 18772, Note_on_c, 0, 63, 0
2, 18780, Note_on_c, 0, 68, 101
2, 18788, Control_c, 0, 64, 0
2, 18832, Note_on_c, 0, 68, 0
2, 18840, Note_on_c, 0, 60, 127
2, 19148, Control_c, 0, 64, 0
2, 19185, Note_on_c, 0, 60, 0
2, 19200, Note_on_c, 0, 55, 101
2, 19200, Control_c, 0, 11, 88
2, 19227, Control_c, 0, 11, 89
2, 19252, Note_on_c, 0, 55, 0
2, 19255, Control_c, 0, 11, 90
2, 19260, Note_on_c, 0, 60, 101
2, 19282, Control_c, 0, 11, 91
2, 19310, Control_c, 0, 11, 92
2, 19312, Note_on_c, 0, 60, 0
2, 19320, Note_on_c, 0, 63, 101
2, 19338, Control_c, 0, 11, 93
2, 19366, Control_c, 0, 11, 94
2, 19372, Note_on_c, 0, 63, 0
2, 19380, Note_on_c, 0, 67, 101
2, 19393, Control_c, 0, 11, 95
2, 19421, Control_c, 0, 11, 96
2, 19432, Note_on_c, 0, 67, 0
2, 19440, Note_on_c, 0, 72, 101
2, 19449, Control_c, 0, 11, 97
2, 19476, Control_c, 0, 11, 98
2, 19504, Control_c, 0, 11, 99
2, 19508, Control_c, 0, 64, 0
2, 19518, Note_on_c, 0, 72, 0
2, 19530, Note_on_c, 0, 75, 101
2, 19532, Control_c, 0, 11, 100
2, 19545, Note_on_c, 0, 67, 101
2, 19556, Note_on_c, 0, 75, 0
2, 19560, Note_on_c, 0, 75, 101
2, 19785, Note_on_c, 0, 75, 0
2, 19785, Note_on_c, 0, 67, 0
2, 19800, Note_on_c, 0, 65, 101
2, 19800, Note_on_c, 0, 74, 101
2, 19868, Control_c, 0, 64, 0
2, 19920, Control_c, 0, 11, 101
2, 19947, Control_c, 0, 11, 100
2, 19975, Control_c, 0, 11, 99
2, 20002, Control_c, 0, 11, 98
2, 20030, Control_c, 0, 11, 97
2, 20058, Control_c, 0, 11, 96
2, 20086, Control_c, 0, 11, 95
2, 20113, Control_c, 0, 11, 94
2, 20115, Note_on_c, 0, 74, 0
2, 20115, Note_on_c, 0, 65, 0
2, 20130, Note_on_c, 0, 63, 101
2, 20130, Note_on_c, 0, 72, 101
2, 20141, Control_c, 0, 11, 93
2, 20156, Note_on_c, 0, 72, 0
2, 20156, Note_on_c, 0, 63, 0
2, 20160, Note_on_c, 0, 63, 101
2, 20160, Note_on_c, 0, 72, 101
2, 20169, Control_c, 0, 11, 92
2, 20196, Control_c, 0, 11, 91
2, 20224, Control_c, 0, 11, 90
2, 20228, Control_c, 0, 64, 0
2, 20252, Control_c, 0, 11, 89
2, 20280, Control_c, 0, 11, 62
2, 20475, Note_on_c, 0, 72, 0
2, 20475, Note_on_c, 0, 63, 0
2, 20490, Note_on_c, 0, 63, 101
2, 20490, Note_on_c, 0, 72, 101
2, 20516, Note_on_c, 0, 72, 0
2, 20516, Note_on_c, 0, 63, 0
2, 20520, Note_on_c, 0, 63, 127
2, 20520, Note_on_c, 0, 72, 127
2, 20588, Control_c, 0, 64, 0
2, 20625, Note_on_c, 0, 63, 0
2, 20640, Control_c, 0, 11, 75
2, 20745, Note_on_c, 0, 72, 0
2, 20760, Note_on_c, 0, 65, 101
2, 20865, Note_on_c, 0, 65, 0
2, 20880, Note_on_c, 0, 67, 101
2, 20948, Control_c, 0, 64, 0
2, 20970, Note_on_c, 0, 68, 101
2, 20983, Note_on_c, 0, 68, 0
2, 20985, Note_on_c, 0, 67, 0
2, 20985, Note_on_c, 0, 70, 101
2, 20998, Note_on_c, 0, 70, 0
2, 21000, Note_on_c, 0, 68, 101
2, 21000, Control_c, 0, 11, 75
2, 21027, Control_c, 0, 11, 76
2, 21055, Control_c, 0, 11, 77
2, 21082, Control_c, 0, 11, 78
2, 21105, Note_on_c, 0, 68, 0
2, 21110, Control_c, 0, 11, 79
2, 21120, Note_on_c, 0, 67, 101
2, 21138, Control_c, 0, 11, 80
2, 21166, Control_c, 0, 11, 81
2, 21172, Note_on_c, 0, 67, 0
2, 21180, Note_on_c, 0, 68, 101
2, 21193, Control_c, 0, 11, 82
2, 21221, Control_c, 0, 11, 83
2, 21232, Note_on_c, 0, 68, 0
2, 21240, Note_on_c, 0, 72, 101
2, 21249, Control_c, 0, 11, 84
2, 21276, Control_c, 0, 11, 85
2, 21292, Note_on_c, 0, 72, 0
2, 21300, Note_on_c, 0, 70, 101
2, 21304, Control_c, 0, 11, 86
2, 21308, Control_c, 0, 64, 0
2, 21332, Control_c, 0, 11, 87
2, 21352, Note_on_c, 0, 70, 0
2, 21480, Note_on_c, 0, 62, 101
2, 21532, Note_on_c, 0, 62, 0
2, 21540, Note_on_c, 0, 65, 101
2, 21592, Note_on_c, 0, 65, 0
2, 21600, Note_on_c, 0, 63, 101
2, 21652, Note_on_c, 0, 63, 0
2, 21660, Note_on_c, 0, 68, 101
2, 21668, Control_c, 0, 64, 0
2, 21712, Note_on_c, 0, 68, 0
2, 21720, Note_on_c, 0, 60, 127
2, 22028, Control_c, 0, 64, 0
2, 22065, Note_on_c, 0, 60, 0
2, 22080, Note_on_c, 0, 55, 101
2, 22080, Control_c, 0, 11, 88
2, 22093, Control_c, 0, 11, 89
2, 22107, Control_c, 0, 11, 90
2, 22121, Control_c, 0, 11, 91
2, 22132, Note_on_c, 0, 55, 0
2, 22135, Control_c, 0, 11, 92
2, 22140, Note_on_c, 0, 61, 101
2, 22149, Control_c, 0, 11, 93
2, 22162, Control_c, 0, 11, 94
2, 22176, Control_c, 0, 11, 95
2, 22190, Control_c, 0, 11, 96
2, 22192, Note_on_c, 0, 61, 0
2, 22200, Note_on_c, 0, 63, 101
2, 22204, Control_c, 0, 11, 97
2, 22218, Control_c, 0, 11, 98
2, 22232, Control_c, 0, 11, 99
2, 22246, Control_c, 0, 11, 100
2, 22252, Note_on_c, 0, 63, 0
2, 22260, Note_on_c, 0, 67, 101
2, 22260, Control_c, 0, 11, 101
2, 22273, Control_c, 0, 11, 102
2, 22287, Control_c, 0, 11, 103
2, 22301, Control_c, 0, 11, 104
2, 22312, Note_on_c, 0, 67, 0
2, 22315, Control_c, 0, 11, 105
2, 22320, Note_on_c, 0, 73, 101
2, 22329, Control_c, 0, 11, 106
2, 22342, Control_c, 0, 11, 107
2, 22356, Control_c, 0, 11, 108
2, 22370, Control_c, 0, 11, 109
2, 22372, Note_on_c, 0, 73, 0
2, 22380, Note_on_c, 0, 77, 101
2, 22384, Control_c, 0, 11, 110
2, 22388, Control_c, 0, 64, 0
2, 22398, Control_c, 0, 11, 111
2, 22412, Control_c, 0, 11, 112
2, 22425, Note_on_c, 0, 73, 101
2, 22426, Control_c, 0, 11, 113
2, 22432, Note_on_c, 0, 77, 0
2, 22440, Note_on_c, 0, 77, 101
2, 22665, Note_on_c, 0, 77, 0
2, 22665, Note_on_c, 0, 73, 0
2, 22680, Note_on_c, 0, 73, 101
2, 22680, Note_on_c, 0, 75, 101
2, 22748, Control_c, 0, 64, 0
2, 22770, Note_on_c, 0, 75, 101
2, 22783, Note_on_c, 0, 75, 0
2, 22785, Note_on_c, 0, 75, 0
2, 22785, Note_on_c, 0, 73, 0
2, 22785, Note_on_c, 0, 77, 101
2, 22798, Note_on_c, 0, 77, 0
2, 22800, Note_on_c, 0, 72, 101
2, 22800, Note_on_c, 0, 75, 101
2, 22905, Note_on_c, 0, 75, 0
2, 22905, Note_on_c, 0, 72, 0
2, 22920, Note_on_c, 0, 71, 101
2, 22920, Note_on_c, 0, 74, 101
2, 22972, Note_on_c, 0, 74, 0
2, 22972, Note_on_c, 0, 71, 0
2, 22980, Note_on_c, 0, 72, 101
2, 22980, Note_on_c, 0, 75, 101
2, 23032, Note_on_c, 0, 75, 0
2, 23032, Note_on_c, 0, 72, 0
2, 23040, Note_on_c, 0, 73, 101
2, 23040, Note_on_c, 0, 77, 101
2, 23092, Note_on_c, 0, 77, 0
2, 23092, Note_on_c, 0, 73, 0
2, 23100, Note_on_c, 0, 72, 101
2, 23100, Note_on_c, 0, 75, 101
2, 23108, Control_c, 0, 64, 0
2, 23152, Note_on_c, 0, 75, 0
2, 23152, Note_on_c, 0, 72, 0
2, 23160, Note_on_c, 0, 72, 127
2, 23160, Note_on_c, 0, 80, 127
2, 23385, Note_on_c, 0, 80, 0
2, 23385, Note_on_c, 0, 72, 0
2, 23393, Control_c, 0, 11, 75
2, 23400, Note_on_c, 0, 67, 101
2, 23468, Control_c, 0, 64, 0
2, 23505, Note_on_c, 0, 67, 0
2, 23520, Note_on_c, 0, 65, 127
2, 23745, Note_on_c, 0, 65, 0
2, 23760, Note_on_c, 0, 67, 101
2, 23828, Control_c, 0, 64, 0
2, 23850, Note_on_c, 0, 68, 101
2, 23863, Note_on_c, 0, 68, 0
2, 23865, Note_on_c, 0, 67, 0
2, 23865, Note_on_c, 0, 70, 101
2, 23878, Note_on_c, 0, 70, 0
2, 23880, Note_on_c, 0, 68, 101
2, 23880, Control_c, 0, 11, 75
2, 23907, Control_c, 0, 11, 76
2, 23935, Control_c, 0, 11, 77
2, 23962, Control_c, 0, 11, 78
2, 23985, Note_on_c, 0, 68, 0
2, 23990, Control_c, 0, 11, 79
2, 24000, Note_on_c, 0, 67, 101
2, 24018, Control_c, 0, 11, 80
2, 24046, Control_c, 0, 11, 81
2, 24052, Note_on_c, 0, 67, 0
2, 24060, Note_on_c, 0, 68, 101
2, 24073, Control_c, 0, 11, 82
2, 24101, Control_c, 0, 11, 83
2, 24112, Note_on_c, 0, 68, 0
2, 24120, Note_on_c, 0, 72, 101
2, 24129, Control_c, 0, 11, 84
2, 24156, Control_c, 0, 11, 85
2, 24172, Note_on_c, 0, 72, 0
2, 24180, Note_on_c, 0, 70, 101
2, 24184, Control_c, 0, 11, 86
2, 24188, Control_c, 0, 64, 0
2, 24212, Control_c, 0, 11, 87
2, 24232, Note_on_c, 0, 70, 0
2, 24360, Note_on_c, 0, 62, 101
2, 24412, Note_on_c, 0, 62, 0
2, 24420, Note_on_c, 0, 65, 101
2, 24472, Note_on_c, 0, 65, 0
2, 24480, Note_on_c, 0, 63, 101
2, 24532, Note_on_c, 0, 63, 0
2, 24540, Note_on_c, 0, 68, 101
2, 24548, Control_c, 0, 64, 0
2, 24592, Note_on_c, 0, 68, 0
2, 24600, Note_on_c, 0, 60, 127
2, 24908, Control_c, 0, 64, 0
2, 24945, Note_on_c, 0, 60, 0
2, 24960, Control_c, 0, 11, 75
2, 24996, Control_c, 0, 11, 76
2, 25033, Control_c, 0, 11, 77
2, 25070, Control_c, 0, 11, 78
2, 25080, Note_on_c, 0, 62, 101
2, 25107, Control_c, 0, 11, 79
2, 25132, Note_on_c, 0, 62, 0
2, 25140, Note_on_c, 0, 63, 101
2, 25144, Control_c, 0, 11, 80
2, 25181, Control_c, 0, 11, 81
2, 25192, Note_on_c, 0, 63, 0
2, 25200, Note_on_c, 0, 65, 101
2, 25218, Control_c, 0, 11, 82
2, 25252, Note_on_c, 0, 65, 0
2, 25255, Control_c, 0, 11, 83
2, 25260, Note_on_c, 0, 67, 101
2, 25268, Control_c, 0, 64, 0
2, 25292, Control_c, 0, 11, 84
2, 25312, Note_on_c, 0, 67, 0
2, 25320, Note_on_c, 0, 65, 101
2, 25329, Control_c, 0, 11, 85
2, 25333, Note_on_c, 0, 65, 0
2, 25335, Note_on_c, 0, 67, 101
2, 25348, Note_on_c, 0, 67, 0
2, 25350, Note_on_c, 0, 65, 101
2, 25363, Note_on_c, 0, 65, 0
2, 25365, Note_on_c, 0, 67, 101
2, 25366, Control_c, 0, 11, 86
2, 25378, Note_on_c, 0, 67, 0
2, 25380, Note_on_c, 0, 65, 101
2, 25393, Note_on_c, 0, 65, 0
2, 25395, Note_on_c, 0, 67, 101
2, 25402, Control_c, 0, 11, 87
2, 25408, Note_on_c, 0, 67, 0
2, 25410, Note_on_c, 0, 65, 101
2, 25423, Note_on_c, 0, 65, 0
2, 25425, Note_on_c, 0, 67, 101
2, 25438, Note_on_c, 0, 67, 0
2, 25440, Note_on_c, 0, 64, 101
2, 25440, Control_c, 0, 11, 88
2, 25476, Control_c, 0, 11, 89
2, 25492, Note_on_c, 0, 64, 0
2, 25500, Note_on_c, 0, 65, 101
2, 25513, Control_c, 0, 11, 90
2, 25550, Control_c, 0, 11, 91
2, 25552, Note_on_c, 0, 65, 0
2, 25560, Note_on_c, 0, 67, 101
2, 25587, Control_c, 0, 11, 92
2, 25612, Note_on_c, 0, 67, 0
2, 25620, Note_on_c, 0, 68, 101
2, 25624, Control_c, 0, 11, 93
2, 25628, Control_c, 0, 64, 0
2, 25661, Control_c, 0, 11, 94
2, 25672, Note_on_c, 0, 68, 0
2, 25680, Note_on_c, 0, 68, 101
2, 25693, Note_on_c, 0, 68, 0
2, 25695, Note_on_c, 0, 70, 101
2, 25698, Control_c, 0, 11, 95
2, 25708, Note_on_c, 0, 70, 0
2, 25710, Note_on_c, 0, 68, 101
2, 25723, Note_on_c, 0, 68, 0
2, 25725, Note_on_c, 0, 70, 101
2, 25735, Control_c, 0, 11, 96
2, 25738, Note_on_c, 0, 70, 0
2, 25740, Note_on_c, 0, 68, 101
2, 25753, Note_on_c, 0, 68, 0
2, 25755, Note_on_c, 0, 70, 101
2, 25768, Note_on_c, 0, 70, 0
2, 25770, Note_on_c, 0, 68, 101
2, 25772, Control_c, 0, 11, 97
2, 25783, Note_on_c, 0, 68, 0
2, 25785, Note_on_c, 0, 70, 101
2, 25798, Note_on_c, 0, 70, 0
2, 25800, Note_on_c, 0, 67, 101
2, 25809, Control_c, 0, 11, 98
2, 25846, Control_c, 0, 11, 99
2, 25852, Note_on_c, 0, 67, 0
2, 25860, Note_on_c, 0, 68, 101
2, 25882, Control_c, 0, 11, 100
2, 25912, Note_on_c, 0, 68, 0
2, 25920, Note_on_c, 0, 70, 101
2, 25920, Control_c, 0, 11, 101
2, 25956, Control_c, 0, 11, 102
2, 25972, Note_on_c, 0, 70, 0
2, 25980, Note_on_c, 0, 72, 101
2, 25988, Control_c, 0, 64, 0
2, 25993, Control_c, 0, 11, 103
2, 26030, Control_c, 0, 11, 104
2, 26032, Note_on_c, 0, 72, 0
2, 26040, Note_on_c, 0, 68, 101
2, 26067, Control_c, 0, 11, 105
2, 26104, Control_c, 0, 11, 106
2, 26141, Control_c, 0, 11, 107
2, 26178, Control_c, 0, 11, 108
2, 26215, Control_c, 0, 11, 109
2, 26252, Control_c, 0, 11, 110
2, 26265, Note_on_c, 0, 68, 0
2, 26280, Note_on_c, 0, 72, 101
2, 26289, Control_c, 0, 11, 111
2, 26326, Control_c, 0, 11, 112
2, 26348, Control_c, 0, 64, 0
2, 26362, Control_c, 0, 11, 113
2, 26400, Control_c, 0, 11, 114
2, 26413, Control_c, 0, 11, 113
2, 26427, Control_c, 0, 11, 112
2, 26441, Control_c, 0, 11, 111
2, 26455, Control_c, 0, 11, 110
2, 26469, Control_c, 0, 11, 109
2, 26482, Control_c, 0, 11, 108
2, 26496, Control_c, 0, 11, 107
2, 26505, Note_on_c, 0, 72, 0
2, 26510, Control_c, 0, 11, 106
2, 26520, Note_on_c, 0, 73, 101
2, 26524, Control_c, 0, 11, 105
2, 26538, Control_c, 0, 11, 104
2, 26552, Control_c, 0, 11, 103
2, 26566, Control_c, 0, 11, 102
2, 26572, Note_on_c, 0, 73, 0
2, 26580, Note_on_c, 0, 72, 101
2, 26580, Control_c, 0, 11, 101
2, 26593, Control_c, 0, 11, 100
2, 26607, Control_c, 0, 11, 99
2, 26621, Control_c, 0, 11, 98
2, 26632, Note_on_c, 0, 72, 0
2, 26635, Control_c, 0, 11, 97
2, 26640, Note_on_c, 0, 70, 101
2, 26649, Control_c, 0, 11, 96
2, 26662, Control_c, 0, 11, 95
2, 26676, Control_c, 0, 11, 94
2, 26690, Control_c, 0, 11, 93
2, 26692, Note_on_c, 0, 70, 0
2, 26700, Note_on_c, 0, 68, 101
2, 26704, Control_c, 0, 11, 92
2, 26708, Control_c, 0, 64, 0
2, 26718, Control_c, 0, 11, 91
2, 26732, Control_c, 0, 11, 90
2, 26746, Control_c, 0, 11, 89
2, 26752, Note_on_c, 0, 68, 0
2, 26760, Note_on_c, 0, 67, 101
2, 26925, Note_on_c, 0, 67, 0
2, 26940, Note_on_c, 0, 65, 101
2, 26992, Note_on_c, 0, 65, 0
2, 27000, Note_on_c, 0, 65, 127
2, 27068, Control_c, 0, 64, 0
2, 27105, Note_on_c, 0, 65, 0
2, 27120, Note_on_c, 0, 77, 101
2, 27120, Control_c, 0, 11, 88
2, 27147, Control_c, 0, 11, 89
2, 27175, Control_c, 0, 11, 90
2, 27202, Control_c, 0, 11, 91
2, 27225, Note_on_c, 0, 77, 0
2, 27230, Control_c, 0, 11, 92
2, 27240, Note_on_c, 0, 70, 101
2, 27258, Control_c, 0, 11, 93
2, 27286, Control_c, 0, 11, 94
2, 27292, Note_on_c, 0, 70, 0
2, 27300, Note_on_c, 0, 72, 101
2, 27313, Control_c, 0, 11, 95
2, 27341, Control_c, 0, 11, 96
2, 27352, Note_on_c, 0, 72, 0
2, 27360, Note_on_c, 0, 75, 101
2, 27369, Control_c, 0, 11, 97
2, 27396, Control_c, 0, 11, 98
2, 27412, Note_on_c, 0, 75, 0
2, 27420, Note_on_c, 0, 73, 101
2, 27424, Control_c, 0, 11, 99
2, 27428, Control_c, 0, 64, 0
2, 27435, Note_on_c, 0, 72, 101
2, 27448, Note_on_c, 0, 72, 0
2, 27450, Note_on_c, 0, 73, 101
2, 27452, Control_c, 0, 11, 100
2, 27463, Note_on_c, 0, 73, 0
2, 27465, Note_on_c, 0, 75, 101
2, 27472, Note_on_c, 0, 73, 0
2, 27478, Note_on_c, 0, 75, 0
2, 27480, Note_on_c, 0, 73, 101
2, 27645, Note_on_c, 0, 73, 0
2, 27660, Note_on_c, 0, 72, 101
2, 27712, Note_on_c, 0, 72, 0
2, 27720, Note_on_c, 0, 72, 127
2, 27788, Control_c, 0, 64, 0
2, 27825, Note_on_c, 0, 72, 0
2, 27840, Note_on_c, 0, 71, 101
2, 27840, Control_c, 0, 11, 101
2, 27892, Note_on_c, 0, 71, 0
2, 27895, Control_c, 0, 11, 102
2, 27900, Note_on_c, 0, 72, 101
2, 27945, Note_on_c, 0, 75, 101
2, 27950, Control_c, 0, 11, 103
2, 27952, Note_on_c, 0, 72, 0
2, 27958, Note_on_c, 0, 75, 0
2, 27960, Note_on_c, 0, 73, 101
2, 28006, Control_c, 0, 11, 104
2, 28012, Note_on_c, 0, 73, 0
2, 28020, Note_on_c, 0, 72, 101
2, 28061, Control_c, 0, 11, 105
2, 28072, Note_on_c, 0, 72, 0
2, 28080, Note_on_c, 0, 77, 101
2, 28116, Control_c, 0, 11, 106
2, 28132, Note_on_c, 0, 77, 0
2, 28140, Note_on_c, 0, 79, 101
2, 28148, Control_c, 0, 64, 0
2, 28172, Control_c, 0, 11, 107
2, 28192, Note_on_c, 0, 79, 0
2, 28200, Note_on_c, 0, 80, 101
2, 28227, Control_c, 0, 11, 108
2, 28252, Note_on_c, 0, 80, 0
2, 28260, Note_on_c, 0, 68, 101
2, 28282, Control_c, 0, 11, 109
2, 28312, Note_on_c, 0, 68, 0
2, 28320, Note_on_c, 0, 76, 101
2, 28338, Control_c, 0, 11, 110
2, 28372, Note_on_c, 0, 76, 0
2, 28380, Note_on_c, 0, 79, 101
2, 28393, Control_c, 0, 11, 111
2, 28432, Note_on_c, 0, 79, 0
2, 28440, Note_on_c, 0, 77, 101
2, 28449, Control_c, 0, 11, 112
2, 28492, Note_on_c, 0, 77, 0
2, 28500, Note_on_c, 0, 65, 101
2, 28504, Control_c, 0, 11, 113
2, 28508, Control_c, 0, 64, 0
2, 28552, Note_on_c, 0, 65, 0
2, 28560, Note_on_c, 0, 72, 101
2, 28560, Control_c, 0, 11, 114
2, 28587, Control_c, 0, 11, 113
2, 28612, Note_on_c, 0, 72, 0
2, 28615, Control_c, 0, 11, 112
2, 28620, Note_on_c, 0, 75, 101
2, 28642, Control_c, 0, 11, 111
2, 28670, Control_c, 0, 11, 110
2, 28672, Note_on_c, 0, 75, 0
2, 28680, Note_on_c, 0, 73, 101
2, 28698, Control_c, 0, 11, 109
2, 28726, Control_c, 0, 11, 108
2, 28732, Note_on_c, 0, 73, 0
2, 28740, Note_on_c, 0, 61, 101
2, 28753, Control_c, 0, 11, 107
2, 28781, Control_c, 0, 11, 106
2, 28792, Note_on_c, 0, 61, 0
2, 28800, Note_on_c, 0, 72, 101
2, 28809, Control_c, 0, 11, 105
2, 28836, Control_c, 0, 11, 104
2, 28852, Note_on_c, 0, 72, 0
2, 28860, Note_on_c, 0, 70, 101
2, 28864, Control_c, 0, 11, 103
2, 28868, Control_c, 0, 64, 0
2, 28892, Control_c, 0, 11, 102
2, 28912, Note_on_c, 0, 70, 0
2, 28920, Note_on_c, 0, 67, 101
2, 28920, Control_c, 0, 11, 101
2, 28947, Control_c, 0, 11, 102
2, 28972, Note_on_c, 0, 67, 0
2, 28975, Control_c, 0, 11, 103
2, 28980, Note_on_c, 0, 72, 101
2, 29002, Control_c, 0, 11, 104
2, 29030, Control_c, 0, 11, 105
2, 29032, Note_on_c, 0, 72, 0
2, 29040, Note_on_c, 0, 71, 101
2, 29058, Control_c, 0, 11, 106
2, 29086, Control_c, 0, 11, 107
2, 29092, Note_on_c, 0, 71, 0
2, 29100, Note_on_c, 0, 72, 101
2, 29113, Control_c, 0, 11, 108
2, 29141, Control_c, 0, 11, 109
2, 29152, Note_on_c, 0, 72, 0
2, 29160, Note_on_c, 0, 73, 101
2, 29169, Control_c, 0, 11, 110
2, 29196, Control_c, 0, 11, 111
2, 29212, Note_on_c, 0, 73, 0
2, 29220, Note_on_c, 0, 74, 101
2, 29224, Control_c, 0, 11, 112
2, 29228, Control_c, 0, 64, 0
2, 29252, Control_c, 0, 11, 113
2, 29272, Note_on_c, 0, 74, 0
2, 29280, Note_on_c, 0, 75, 101
2, 29280, Control_c, 0, 11, 114
2, 29307, Control_c, 0, 11, 113
2, 29335, Control_c, 0, 11, 112
2, 29362, Control_c, 0, 11, 111
2, 29385, Note_on_c, 0, 75, 0
2, 29390, Control_c, 0, 11, 110
2, 29400, Note_on_c, 0, 77, 101
2, 29418, Control_c, 0, 11, 109
2, 29446, Control_c, 0, 11, 108
2, 29452, Note_on_c, 0, 77, 0
2, 29460, Note_on_c, 0, 75, 101
2, 29473, Control_c, 0, 11, 107
2, 29501, Control_c, 0, 11, 106
2, 29512, Note_on_c, 0, 75, 0
2, 29520, Note_on_c, 0, 73, 101
2, 29529, Control_c, 0, 11, 105
2, 29556, Control_c, 0, 11, 104
2, 29572, Note_on_c, 0, 73, 0
2, 29580, Note_on_c, 0, 72, 101
2, 29584, Control_c, 0, 11, 103
2, 29588, Control_c, 0, 64, 0
2, 29612, Control_c, 0, 11, 102
2, 29632, Note_on_c, 0, 72, 0
2, 29640, Note_on_c, 0, 70, 101
2, 29805, Note_on_c, 0, 70, 0
2, 29820, Note_on_c, 0, 68, 101
2, 29872, Note_on_c, 0, 68, 0
2, 29880, Note_on_c, 0, 68, 127
2, 29948, Control_c, 0, 64, 0
2, 29985, Note_on_c, 0, 68, 0
2, 30000, Note_on_c, 0, 80, 101
2, 30105, Note_on_c, 0, 80, 0
2, 30120, Note_on_c, 0, 72, 101
2, 30172, Note_on_c, 0, 72, 0
2, 30180, Note_on_c, 0, 75, 101
2, 30232, Note_on_c, 0, 75, 0
2, 30240, Note_on_c, 0, 79, 101
2, 30292, Note_on_c, 0, 79, 0
2, 30300, Note_on_c, 0, 77, 101
2, 30308, Control_c, 0, 64, 0
2, 30352, Note_on_c, 0, 77, 0
2, 30360, Note_on_c, 0, 75, 101
2, 30525, Note_on_c, 0, 75, 0
2, 30540, Note_on_c, 0, 74, 101
2, 30592, Note_on_c, 0, 74, 0
2, 30600, Note_on_c, 0, 74, 101
2, 30668, Control_c, 0, 64, 0
2, 30705, Note_on_c, 0, 74, 0
2, 30720, Note_on_c, 0, 84, 101
2, 30720, Control_c, 0, 11, 101
2, 30885, Note_on_c, 0, 84, 0
2, 30900, Note_on_c, 0, 82, 101
2, 30952, Note_on_c, 0, 82, 0
2, 30960, Note_on_c, 0, 81, 101
2, 31012, Note_on_c, 0, 81, 0
2, 31020, Note_on_c, 0, 80, 101
2, 31028, Control_c, 0, 64, 0
2, 31072, Note_on_c, 0, 80, 0
2, 31080, Note_on_c, 0, 80, 101
2, 31080, Control_c, 0, 11, 101
2, 31107, Control_c, 0, 11, 100
2, 31132, Note_on_c, 0, 80, 0
2, 31135, Control_c, 0, 11, 99
2, 31140, Note_on_c, 0, 79, 101
2, 31162, Control_c, 0, 11, 98
2, 31190, Control_c, 0, 11, 97
2, 31192, Note_on_c, 0, 79, 0
2, 31200, Note_on_c, 0, 77, 101
2, 31218, Control_c, 0, 11, 96
2, 31246, Control_c, 0, 11, 95
2, 31252, Note_on_c, 0, 77, 0
2, 31260, Note_on_c, 0, 75, 101
2, 31273, Control_c, 0, 11, 94
2, 31301, Control_c, 0, 11, 93
2, 31312, Note_on_c, 0, 75, 0
2, 31320, Note_on_c, 0, 74, 101
2, 31329, Control_c, 0, 11, 92
2, 31356, Control_c, 0, 11, 91
2, 31372, Note_on_c, 0, 74, 0
2, 31380, Note_on_c, 0, 72, 101
2, 31384, Control_c, 0, 11, 90
2, 31388, Control_c, 0, 64, 0
2, 31412, Control_c, 0, 11, 89
2, 31432, Note_on_c, 0, 72, 0
2, 31440, Note_on_c, 0, 72, 101
2, 31492, Note_on_c, 0, 72, 0
2, 31500, Note_on_c, 0, 70, 101
2, 31552, Note_on_c, 0, 70, 0
2, 31560, Note_on_c, 0, 69, 101
2, 31612, Note_on_c, 0, 69, 0
2, 31620, Note_on_c, 0, 70, 101
2, 31665, Note_on_c, 0, 74, 101
2, 31672, Note_on_c, 0, 70, 0
2, 31678, Note_on_c, 0, 74, 0
2, 31680, Note_on_c, 0, 72, 101
2, 31732, Note_on_c, 0, 72, 0
2, 31740, Note_on_c, 0, 70, 101
2, 31748, Control_c, 0, 64, 0
2, 31792, Note_on_c, 0, 70, 0
2, 31800, Note_on_c, 0, 72, 101
2, 31852, Note_on_c, 0, 72, 0
2, 31860, Note_on_c, 0, 70, 101
2, 31912, Note_on_c, 0, 70, 0
2, 31920, Note_on_c, 0, 69, 101
2, 31972, Note_on_c, 0, 69, 0
2, 31980, Note_on_c, 0, 70, 101
2, 32025, Note_on_c, 0, 74, 101
2, 32032, Note_on_c, 0, 70, 0
2, 32038, Note_on_c, 0, 74, 0
2, 32040, Note_on_c, 0, 72, 101
2, 32092, Note_on_c, 0, 72, 0
2, 32100, Note_on_c, 0, 70, 101
2, 32108, Control_c, 0, 64, 0
2, 32152, Note_on_c, 0, 70, 0
2, 32160, Note_on_c, 0, 70, 101
2, 32160, Control_c, 0, 11, 88
2, 32242, Control_c, 0, 11, 87
2, 32265, Note_on_c, 0, 70, 0
2, 32280, Note_on_c, 0, 84, 101
2, 32326, Control_c, 0, 11, 86
2, 32332, Note_on_c, 0, 84, 0
2, 32340, Note_on_c, 0, 82, 101
2, 32392, Note_on_c, 0, 82, 0
2, 32400, Note_on_c, 0, 81, 101
2, 32409, Control_c, 0, 11, 85
2, 32452, Note_on_c, 0, 81, 0
2, 32460, Note_on_c, 0, 80, 101
2, 32468, Control_c, 0, 64, 0
2, 32492, Control_c, 0, 11, 84
2, 32512, Note_on_c, 0, 80, 0
2, 32520, Note_on_c, 0, 78, 101
2, 32572, Note_on_c, 0, 78, 0
2, 32575, Control_c, 0, 11, 83
2, 32580, Note_on_c, 0, 79, 101
2, 32632, Note_on_c, 0, 79, 0
2, 32640, Note_on_c, 0, 74, 101
2, 32658, Control_c, 0, 11, 82
2, 32692, Note_on_c, 0, 74, 0
2, 32700, Note_on_c, 0, 75, 101
2, 32741, Control_c, 0, 11, 81
2, 32752, Note_on_c, 0, 75, 0
2, 32760, Note_on_c, 0, 63, 101
2, 32812, Note_on_c, 0, 63, 0
2, 32820, Note_on_c, 0, 72, 101
2, 32824, Control_c, 0, 11, 80
2, 32828, Control_c, 0, 64, 0
2, 32872, Note_on_c, 0, 72, 0
2, 32880, Note_on_c, 0, 70, 101
2, 32907, Control_c, 0, 11, 79
2, 32932, Note_on_c, 0, 70, 0
2, 32940, Note_on_c, 0, 58, 101
2, 32990, Control_c, 0, 11, 78
2, 32992, Note_on_c, 0, 58, 0
2, 33000, Note_on_c, 0, 67, 101
2, 33052, Note_on_c, 0, 67, 0
2, 33060, Note_on_c, 0, 70, 101
2, 33073, Control_c, 0, 11, 77
2, 33112, Note_on_c, 0, 70, 0
2, 33120, Note_on_c, 0, 65, 101
2, 33156, Control_c, 0, 11, 76
2, 33172, Note_on_c, 0, 65, 0
2, 33180, Note_on_c, 0, 70, 101
2, 33188, Control_c, 0, 64, 0
2, 33232, Note_on_c, 0, 70, 0
2, 33240, Note_on_c, 0, 63, 101
2, 33465, Note_on_c, 0, 63, 0
2, 33480, Note_on_c, 0, 64, 101
2, 33585, Note_on_c, 0, 64, 0
2, 33600, Note_on_c, 0, 65, 127
2, 33825, Note_on_c, 0, 65, 0
2, 33840, Note_on_c, 0, 67, 101
2, 33908, Control_c, 0, 64, 0
2, 33930, Note_on_c, 0, 68, 101
2, 33943, Note_on_c, 0, 68, 0
2, 33945, Note_on_c, 0, 67, 0
2, 33945, Note_on_c, 0, 70, 101
2, 33958, Note_on_c, 0, 70, 0
2, 33960, Note_on_c, 0, 68, 101
2, 34065, Note_on_c, 0, 68, 0
2, 34080, Note_on_c, 0, 67, 101
2, 34132, Note_on_c, 0, 67, 0
2, 34140, Note_on_c, 0, 68, 101
2, 34192, Note_on_c, 0, 68, 0
2, 34200, Note_on_c, 0, 72, 101
2, 34252, Note_on_c, 0, 72, 0
2, 34260, Note_on_c, 0, 70, 101
2, 34268, Control_c, 0, 64, 0
2, 34312, Note_on_c, 0, 70, 0
2, 34440, Note_on_c, 0, 62, 101
2, 34492, Note_on_c, 0, 62, 0
2, 34500, Note_on_c, 0, 65, 101
2, 34552, Note_on_c, 0, 65, 0
2, 34560, Note_on_c, 0, 63, 101
2, 34612, Note_on_c, 0, 63, 0
2, 34620, Note_on_c, 0, 68, 101
2, 34628, Control_c, 0, 64, 0
2, 34672, Note_on_c, 0, 68, 0
2, 34680, Note_on_c, 0, 60, 127
2, 34988, Control_c, 0, 64, 0
2, 35025, Note_on_c, 0, 60, 0
2, 35040, Note_on_c, 0, 55, 101
2, 35040, Control_c, 0, 11, 75
2, 35049, Control_c, 0, 11, 76
2, 35058, Control_c, 0, 11, 77
2, 35067, Control_c, 0, 11, 78
2, 35076, Control_c, 0, 11, 79
2, 35086, Control_c, 0, 11, 80
2, 35092, Note_on_c, 0, 55, 0
2, 35095, Control_c, 0, 11, 81
2, 35100, Note_on_c, 0, 61, 101
2, 35104, Control_c, 0, 11, 82
2, 35113, Control_c, 0, 11, 83
2, 35122, Control_c, 0, 11, 84
2, 35132, Control_c, 0, 11, 85
2, 35141, Control_c, 0, 11, 86
2, 35150, Control_c, 0, 11, 87
2, 35152, Note_on_c, 0, 61, 0
2, 35160, Note_on_c, 0, 63, 101
2, 35160, Control_c, 0, 11, 88
2, 35169, Control_c, 0, 11, 89
2, 35178, Control_c, 0, 11, 90
2, 35187, Control_c, 0, 11, 91
2, 35196, Control_c, 0, 11, 92
2, 35206, Control_c, 0, 11, 93
2, 35212, Note_on_c, 0, 63, 0
2, 35215, Control_c, 0, 11, 94
2, 35220, Note_on_c, 0, 67, 101
2, 35224, Control_c, 0, 11, 95
2, 35233, Control_c, 0, 11, 96
2, 35242, Control_c, 0, 11, 97
2, 35252, Control_c, 0, 11, 98
2, 35261, Control_c, 0, 11, 99
2, 35270, Control_c, 0, 11, 100
2, 35272, Note_on_c, 0, 67, 0
2, 35280, Note_on_c, 0, 73, 101
2, 35280, Control_c, 0, 11, 101
2, 35289, Control_c, 0, 11, 102
2, 35298, Control_c, 0, 11, 103
2, 35307, Control_c, 0, 11, 104
2, 35316, Control_c, 0, 11, 105
2, 35326, Control_c, 0, 11, 106
2, 35332, Note_on_c, 0, 73, 0
2, 35335, Control_c, 0, 11, 107
2, 35340, Note_on_c, 0, 77, 101
2, 35344, Control_c, 0, 11, 108
2, 35348, Control_c, 0, 64, 0
2, 35353, Control_c, 0, 11, 109
2, 35362, Control_c, 0, 11, 110
2, 35372, Control_c, 0, 11, 111
2, 35381, Control_c, 0, 11, 112
2, 35385, Note_on_c, 0, 73, 101
2, 35390, Control_c, 0, 11, 113
2, 35392, Note_on_c, 0, 77, 0
2, 35400, Note_on_c, 0, 77, 101
2, 35625, Note_on_c, 0, 77, 0
2, 35625, Note_on_c, 0, 73, 0
2, 35640, Note_on_c, 0, 73, 101
2, 35640, Note_on_c, 0, 75, 101
2, 35708, Control_c, 0, 64, 0
2, 35730, Note_on_c, 0, 75, 101
2, 35743, Note_on_c, 0, 75, 0
2, 35745, Note_on_c, 0, 75, 0
2, 35745, Note_on_c, 0, 73, 0
2, 35745, Note_on_c, 0, 77, 101
2, 35758, Note_on_c, 0, 77, 0
2, 35760, Note_on_c, 0, 72, 101
2, 35760, Note_on_c, 0, 75, 101
2, 35865, Note_on_c, 0, 75, 0
2, 35865, Note_on_c, 0, 72, 0
2, 35880, Note_on_c, 0, 71, 101
2, 35880, Note_on_c, 0, 74, 101
2, 35932, Note_on_c, 0, 74, 0
2, 35932, Note_on_c, 0, 71, 0
2, 35940, Note_on_c, 0, 72, 101
2, 35940, Note_on_c, 0, 75, 101
2, 35992, Note_on_c, 0, 75, 0
2, 35992, Note_on_c, 0, 72, 0
2, 36000, Note_on_c, 0, 73, 101
2, 36000, Note_on_c, 0, 77, 101
2, 36052, Note_on_c, 0, 77, 0
2, 36052, Note_on_c, 0, 73, 0
2, 36060, Note_on_c, 0, 72, 101
2, 36060, Note_on_c, 0, 75, 101
2, 36068, Control_c, 0, 64, 0
2, 36112, Note_on_c, 0, 75, 0
2, 36112, Note_on_c, 0, 72, 0
2, 36120, Note_on_c, 0, 72, 127
2, 36120, Note_on_c, 0, 80, 127
2, 36345, Note_on_c, 0, 80, 0
2, 36345, Note_on_c, 0, 72, 0
2, 36360, Note_on_c, 0, 67, 101
2, 36362, Control_c, 0, 11, 75
2, 36428, Control_c, 0, 64, 0
2, 36465, Note_on_c, 0, 67, 0
2, 36480, Note_on_c, 0, 65, 127
2, 36480, Control_c, 0, 11, 75
2, 36507, Control_c, 0, 11, 76
2, 36535, Control_c, 0, 11, 77
2, 36562, Control_c, 0, 11, 78
2, 36590, Control_c, 0, 11, 79
2, 36618, Control_c, 0, 11, 80
2, 36646, Control_c, 0, 11, 81
2, 36673, Control_c, 0, 11, 82
2, 36701, Control_c, 0, 11, 83
2, 36705, Note_on_c, 0, 65, 0
2, 36720, Note_on_c, 0, 67, 101
2, 36729, Control_c, 0, 11, 84
2, 36756, Control_c, 0, 11, 85
2, 36784, Control_c, 0, 11, 86
2, 36788, Control_c, 0, 64, 0
2, 36810, Note_on_c, 0, 68, 101
2, 36812, Control_c, 0, 11, 87
2, 36823, Note_on_c, 0, 68, 0
2, 36825, Note_on_c, 0, 67, 0
2, 36825, Note_on_c, 0, 70, 101
2, 36838, Note_on_c, 0, 70, 0
2, 36840, Note_on_c, 0, 68, 101
2, 36945, Note_on_c, 0, 68, 0
2, 36960, Note_on_c, 0, 67, 101
2, 37012, Note_on_c, 0, 67, 0
2, 37020, Note_on_c, 0, 68, 101
2, 37072, Note_on_c, 0, 68, 0
2, 37080, Note_on_c, 0, 72, 101
2, 37132, Note_on_c, 0, 72, 0
2, 37140, Note_on_c, 0, 70, 101
2, 37148, Control_c, 0, 64, 0
2, 37192, Note_on_c, 0, 70, 0
2, 37320, Note_on_c, 0, 62, 101
2, 37372, Note_on_c, 0, 62, 0
2, 37380, Note_on_c, 0, 65, 101
2, 37432, Note_on_c, 0, 65, 0
2, 37440, Note_on_c, 0, 63, 101
2, 37492, Note_on_c, 0, 63, 0
2, 37500, Note_on_c, 0, 68, 101
2, 37508, Control_c, 0, 64, 0
2, 37552, Note_on_c, 0, 68, 0
2, 37560, Note_on_c, 0, 60, 127
2, 37868, Control_c, 0, 64, 0
2, 37905, Note_on_c, 0, 60, 0
2, 37920, Note_on_c, 0, 55, 101
2, 37920, Control_c, 0, 11, 88
2, 37947, Control_c, 0, 11, 89
2, 37972, Note_on_c, 0, 55, 0
2, 37975, Control_c, 0, 11, 90
2, 37980, Note_on_c, 0, 60, 101
2, 38002, Control_c, 0, 11, 91
2, 38030, Control_c, 0, 11, 92
2, 38032, Note_on_c, 0, 60, 0
2, 38040, Note_on_c, 0, 63, 101
2, 38058, Control_c, 0, 11, 93
2, 38086, Control_c, 0, 11, 94
2, 38092, Note_on_c, 0, 63, 0
2, 38100, Note_on_c, 0, 67, 101
2, 38113, Control_c, 0, 11, 95
2, 38141, Control_c, 0, 11, 96
2, 38152, Note_on_c, 0, 67, 0
2, 38160, Note_on_c, 0, 72, 101
2, 38169, Control_c, 0, 11, 97
2, 38196, Control_c, 0, 11, 98
2, 38224, Control_c, 0, 11, 99
2, 38228, Control_c, 0, 64, 0
2, 38238, Note_on_c, 0, 72, 0
2, 38250, Note_on_c, 0, 75, 101
2, 38252, Control_c, 0, 11, 100
2, 38265, Note_on_c, 0, 67, 101
2, 38276, Note_on_c, 0, 75, 0
2, 38280, Note_on_c, 0, 75, 101
2, 38505, Note_on_c, 0, 75, 0
2, 38505, Note_on_c, 0, 67, 0
2, 38520, Note_on_c, 0, 65, 101
2, 38520, Note_on_c, 0, 74, 101
2, 38588, Control_c, 0, 64, 0
2, 38640, Control_c, 0, 11, 101
2, 38649, Control_c, 0, 11, 100
2, 38658, Control_c, 0, 11, 99
2, 38667, Control_c, 0, 11, 98
2, 38676, Control_c, 0, 11, 97
2, 38686, Control_c, 0, 11, 96
2, 38695, Control_c, 0, 11, 95
2, 38704, Control_c, 0, 11, 94
2, 38713, Control_c, 0, 11, 93
2, 38722, Control_c, 0, 11, 92
2, 38732, Control_c, 0, 11, 91
2, 38741, Control_c, 0, 11, 90
2, 38750, Control_c, 0, 11, 89
2, 38760, Control_c, 0, 11, 88
2, 38769, Control_c, 0, 11, 87
2, 38778, Control_c, 0, 11, 86
2, 38787, Control_c, 0, 11, 85
2, 38796, Control_c, 0, 11, 84
2, 38806, Control_c, 0, 11, 83
2, 38815, Control_c, 0, 11, 82
2, 38824, Control_c, 0, 11, 81
2, 38833, Control_c, 0, 11, 80
2, 38835, Note_on_c, 0, 74, 0
2, 38835, Note_on_c, 0, 65, 0
2, 38842, Control_c, 0, 11, 79
2, 38850, Note_on_c, 0, 63, 101
2, 38850, Note_on_c, 0, 72, 101
2, 38852, Control_c, 0, 11, 78
2, 38861, Control_c, 0, 11, 77
2, 38870, Control_c, 0, 11, 76
2, 38876, Note_on_c, 0, 72, 0
2, 38876, Note_on_c, 0, 63, 0
2, 38880, Note_on_c, 0, 63, 127
2, 38880, Note_on_c, 0, 72, 127
2, 38880, Control_c, 0, 11, 75
2, 38889, Control_c, 0, 11, 74
2, 38898, Control_c, 0, 11, 73
2, 38907, Control_c, 0, 11, 72
2, 38916, Control_c, 0, 11, 71
2, 38926, Control_c, 0, 11, 70
2, 38935, Control_c, 0, 11, 69
2, 38944, Control_c, 0, 11, 68
2, 38948, Control_c, 0, 64, 0
2, 38953, Control_c, 0, 11, 67
2, 38962, Control_c, 0, 11, 66
2, 38972, Control_c, 0, 11, 65
2, 38981, Control_c, 0, 11, 64
2, 38990, Control_c, 0, 11, 63
2, 39000, Control_c, 0, 11, 75
2, 39195, Note_on_c, 0, 72, 0
2, 39195, Note_on_c, 0, 63, 0
2, 39210, Note_on_c, 0, 63, 101
2, 39210, Note_on_c, 0, 72, 101
2, 39236, Note_on_c, 0, 72, 0
2, 39236, Note_on_c, 0, 63, 0
2, 39240, Note_on_c, 0, 63, 101
2, 39240, Note_on_c, 0, 72, 101
2, 39308, Control_c, 0, 64, 0
2, 39345, Note_on_c, 0, 63, 0
2, 39465, Note_on_c, 0, 72, 0
2, 39480, Note_on_c, 0, 65, 127
2, 39585, Note_on_c, 0, 65, 0
2, 39600, Note_on_c, 0, 67, 127
2, 39668, Control_c, 0, 64, 0
2, 39690, Note_on_c, 0, 68, 101
2, 39703, Note_on_c, 0, 68, 0
2, 39705, Note_on_c, 0, 67, 0
2, 39705, Note_on_c, 0, 70, 101
2, 39718, Note_on_c, 0, 70, 0
2, 39720, Note_on_c, 0, 68, 101
2, 39720, Control_c, 0, 11, 75
2, 39747, Control_c, 0, 11, 76
2, 39775, Control_c, 0, 11, 77
2, 39802, Control_c, 0, 11, 78
2, 39825, Note_on_c, 0, 68, 0
2, 39830, Control_c, 0, 11, 79
2, 39840, Note_on_c, 0, 67, 101
2, 39858, Control_c, 0, 11, 80
2, 39886, Control_c, 0, 11, 81
2, 39892, Note_on_c, 0, 67, 0
2, 39900, Note_on_c, 0, 68, 101
2, 39913, Control_c, 0, 11, 82
2, 39941, Control_c, 0, 11, 83
2, 39952, Note_on_c, 0, 68, 0
2, 39960, Note_on_c, 0, 72, 101
2, 39969, Control_c, 0, 11, 84
2, 39996, Control_c, 0, 11, 85
2, 40012, Note_on_c, 0, 72, 0
2, 40020, Note_on_c, 0, 70, 101
2, 40024, Control_c, 0, 11, 86
2, 40028, Control_c, 0, 64, 0
2, 40052, Control_c, 0, 11, 87
2, 40072, Note_on_c, 0, 70, 0
2, 40200, Note_on_c, 0, 62, 101
2, 40252, Note_on_c, 0, 62, 0
2, 40260, Note_on_c, 0, 65, 101
2, 40312, Note_on_c, 0, 65, 0
2, 40320, Note_on_c, 0, 63, 101
2, 40372, Note_on_c, 0, 63, 0
2, 40380, Note_on_c, 0, 68, 101
2, 40388, Control_c, 0, 64, 0
2, 40432, Note_on_c, 0, 68, 0
2, 40440, Note_on_c, 0, 60, 127
2, 40748, Control_c, 0, 64, 0
2, 40785, Note_on_c, 0, 60, 0
2, 40800, Note_on_c, 0, 55, 101
2, 40800, Control_c, 0, 11, 88
2, 40813, Control_c, 0, 11, 89
2, 40827, Control_c, 0, 11, 90
2, 40841, Control_c, 0, 11, 91
2, 40852, Note_on_c, 0, 55, 0
2, 40855, Control_c, 0, 11, 92
2, 40860, Note_on_c, 0, 61, 101
2, 40869, Control_c, 0, 11, 93
2, 40882, Control_c, 0, 11, 94
2, 40896, Control_c, 0, 11, 95
2, 40910, Control_c, 0, 11, 96
2, 40912, Note_on_c, 0, 61, 0
2, 40920, Note_on_c, 0, 63, 101
2, 40924, Control_c, 0, 11, 97
2, 40938, Control_c, 0, 11, 98
2, 40952, Control_c, 0, 11, 99
2, 40966, Control_c, 0, 11, 100
2, 40972, Note_on_c, 0, 63, 0
2, 40980, Note_on_c, 0, 67, 101
2, 40980, Control_c, 0, 11, 101
2, 40993, Control_c, 0, 11, 102
2, 41007, Control_c, 0, 11, 103
2, 41021, Control_c, 0, 11, 104
2, 41032, Note_on_c, 0, 67, 0
2, 41035, Control_c, 0, 11, 105
2, 41040, Note_on_c, 0, 73, 101
2, 41049, Control_c, 0, 11, 106
2, 41062, Control_c, 0, 11, 107
2, 41076, Control_c, 0, 11, 108
2, 41090, Control_c, 0, 11, 109
2, 41092, Note_on_c, 0, 73, 0
2, 41100, Note_on_c, 0, 77, 101
2, 41104, Control_c, 0, 11, 110
2, 41108, Control_c, 0, 64, 0
2, 41118, Control_c, 0, 11, 111
2, 41132, Control_c, 0, 11, 112
2, 41145, Note_on_c, 0, 73, 101
2, 41146, Control_c, 0, 11, 113
2, 41152, Note_on_c, 0, 77, 0
2, 41158, Note_on_c, 0, 73, 0
2, 41160, Note_on_c, 0, 73, 101
2, 41160, Note_on_c, 0, 77, 101
2, 41385, Note_on_c, 0, 77, 0
2, 41385, Note_on_c, 0, 73, 0
2, 41400, Note_on_c, 0, 73, 101
2, 41400, Note_on_c, 0, 75, 101
2, 41468, Control_c, 0, 64, 0
2, 41490, Note_on_c, 0, 75, 101
2, 41503, Note_on_c, 0, 75, 0
2, 41505, Note_on_c, 0, 75, 0
2, 41505, Note_on_c, 0, 73, 0
2, 41505, Note_on_c, 0, 77, 101
2, 41518, Note_on_c, 0, 77, 0
2, 41520, Note_on_c, 0, 72, 101
2, 41520, Note_on_c, 0, 75, 101
2, 41625, Note_on_c, 0, 75, 0
2, 41625, Note_on_c, 0, 72, 0
2, 41640, Note_on_c, 0, 71, 101
2, 41640, Note_on_c, 0, 74, 101
2, 41692, Note_on_c, 0, 74, 0
2, 41692, Note_on_c, 0, 71, 0
2, 41700, Note_on_c, 0, 72, 101
2, 41700, Note_on_c, 0, 75, 101
2, 41752, Note_on_c, 0, 75, 0
2, 41752, Note_on_c, 0, 72, 0
2, 41760, Note_on_c, 0, 73, 101
2, 41760, Note_on_c, 0, 77, 101
2, 41812, Note_on_c, 0, 77, 0
2, 41812, Note_on_c, 0, 73, 0
2, 41820, Note_on_c, 0, 72, 101
2, 41820, Note_on_c, 0, 75, 101
2, 41828, Control_c, 0, 64, 0
2, 41872, Note_on_c, 0, 75, 0
2, 41872, Note_on_c, 0, 72, 0
2, 41880, Note_on_c, 0, 72, 127
2, 41880, Note_on_c, 0, 80, 127
2, 42105, Note_on_c, 0, 80, 0
2, 42105, Note_on_c, 0, 72, 0
2, 42107, Control_c, 0, 11, 75
2, 42120, Note_on_c, 0, 67, 101
2, 42188, Control_c, 0, 64, 0
2, 42225, Note_on_c, 0, 67, 0
2, 42240, Note_on_c, 0, 65, 127
2, 42465, Note_on_c, 0, 65, 0
2, 42480, Note_on_c, 0, 67, 101
2, 42548, Control_c, 0, 64, 0
2, 42570, Note_on_c, 0, 68, 101
2, 42583, Note_on_c, 0, 68, 0
2, 42585, Note_on_c, 0, 67, 0
2, 42585, Note_on_c, 0, 70, 101
2, 42598, Note_on_c, 0, 70, 0
2, 42600, Note_on_c, 0, 68, 101
2, 42600, Control_c, 0, 11, 75
2, 42627, Control_c, 0, 11, 76
2, 42655, Control_c, 0, 11, 77
2, 42682, Control_c, 0, 11, 78
2, 42705, Note_on_c, 0, 68, 0
2, 42710, Control_c, 0, 11, 79
2, 42720, Note_on_c, 0, 67, 101
2, 42738, Control_c, 0, 11, 80
2, 42766, Control_c, 0, 11, 81
2, 42772, Note_on_c, 0, 67, 0
2, 42780, Note_on_c, 0, 68, 101
2, 42793, Control_c, 0, 11, 82
2, 42821, Control_c, 0, 11, 83
2, 42832, Note_on_c, 0, 68, 0
2, 42840, Note_on_c, 0, 72, 101
2, 42849, Control_c, 0, 11, 84
2, 42876, Control_c, 0, 11, 85
2, 42892, Note_on_c, 0, 72, 0
2, 42900, Note_on_c, 0, 70, 101
2, 42904, Control_c, 0, 11, 86
2, 42908, Control_c, 0, 64, 0
2, 42932, Control_c, 0, 11, 87
2, 42952, Note_on_c, 0, 70, 0
2, 43080, Note_on_c, 0, 62, 101
2, 43132, Note_on_c, 0, 62, 0
2, 43140, Note_on_c, 0, 65, 101
2, 43192, Note_on_c, 0, 65, 0
2, 43200, Note_on_c, 0, 63, 101
2, 43252, Note_on_c, 0, 63, 0
2, 43260, Note_on_c, 0, 68, 101
2, 43268, Control_c, 0, 64, 0
2, 43312, Note_on_c, 0, 68, 0
2, 43320, Note_on_c, 0, 60, 127
2, 43628, Control_c, 0, 64, 0
2, 43665, Note_on_c, 0, 60, 0
2, 43680, Control_c, 0, 11, 88
2, 43707, Control_c, 0, 11, 89
2, 43735, Control_c, 0, 11, 90
2, 43762, Control_c, 0, 11, 91
2, 43790, Control_c, 0, 11, 92
2, 43800, Note_on_c, 0, 62, 101
2, 43818, Control_c, 0, 11, 93
2, 43846, Control_c, 0, 11, 94
2, 43852, Note_on_c, 0, 62, 0
2, 43860, Note_on_c, 0, 63, 101
2, 43873, Control_c, 0, 11, 95
2, 43901, Control_c, 0, 11, 96
2, 43912, Note_on_c, 0, 63, 0
2, 43920, Note_on_c, 0, 65, 101
2, 43929, Control_c, 0, 11, 97
2, 43956, Control_c, 0, 11, 98
2, 43972, Note_on_c, 0, 65, 0
2, 43980, Note_on_c, 0, 67, 101
2, 43984, Control_c, 0, 11, 99
2, 43988, Control_c, 0, 64, 0
2, 44012, Control_c, 0, 11, 100
2, 44032, Note_on_c, 0, 67, 0
2, 44040, Note_on_c, 0, 65, 101
2, 44053, Note_on_c, 0, 65, 0
2, 44055, Note_on_c, 0, 67, 101
2, 44068, Note_on_c, 0, 67, 0
2, 44070, Note_on_c, 0, 65, 101
2, 44083, Note_on_c, 0, 65, 0
2, 44085, Note_on_c, 0, 67, 101
2, 44098, Note_on_c, 0, 67, 0
2, 44100, Note_on_c, 0, 65, 101
2, 44113, Note_on_c, 0, 65, 0
2, 44115, Note_on_c, 0, 67, 101
2, 44128, Note_on_c, 0, 67, 0
2, 44130, Note_on_c, 0, 65, 101
2, 44143, Note_on_c, 0, 65, 0
2, 44145, Note_on_c, 0, 67, 101
2, 44158, Note_on_c, 0, 67, 0
2, 44160, Note_on_c, 0, 64, 101
2, 44212, Note_on_c, 0, 64, 0
2, 44220, Note_on_c, 0, 65, 101
2, 44272, Note_on_c, 0, 65, 0
2, 44280, Note_on_c, 0, 67, 101
2, 44332, Note_on_c, 0, 67, 0
2, 44340, Note_on_c, 0, 68, 101
2, 44348, Control_c, 0, 64, 0
2, 44392, Note_on_c, 0, 68, 0
2, 44400, Note_on_c, 0, 68, 101
2, 44413, Note_on_c, 0, 68, 0
2, 44415, Note_on_c, 0, 70, 101
2, 44428, Note_on_c, 0, 70, 0
2, 44430, Note_on_c, 0, 68, 101
2, 44443, Note_on_c, 0, 68, 0
2, 44445, Note_on_c, 0, 70, 101
2, 44458, Note_on_c, 0, 70, 0
2, 44460, Note_on_c, 0, 68, 101
2, 44473, Note_on_c, 0, 68, 0
2, 44475, Note_on_c, 0, 70, 101
2, 44488, Note_on_c, 0, 70, 0
2, 44490, Note_on_c, 0, 68, 101
2, 44503, Note_on_c, 0, 68, 0
2, 44505, Note_on_c, 0, 70, 101
2, 44518, Note_on_c, 0, 70, 0
2, 44520, Note_on_c, 0, 67, 101
2, 44572, Note_on_c, 0, 67, 0
2, 44580, Note_on_c, 0, 68, 101
2, 44632, Note_on_c, 0, 68, 0
2, 44640, Note_on_c, 0, 70, 101
2, 44692, Note_on_c, 0, 70, 0
2, 44700, Note_on_c, 0, 72, 101
2, 44708, Control_c, 0, 64, 0
2, 44752, Note_on_c, 0, 72, 0
2, 44760, Control_c, 0, 64, 127
2, 44760, Note_on_c, 0, 68, 101
2, 44985, Note_on_c, 0, 68, 0
2, 45120, Control_c, 0, 64, 0
2, 45120, Control_c, 0, 7, 101
2, 45120, Control_c, 0, 11, 101
2, 45120, End_track
3, 0, Start_track
3, 0, MIDI_port, 0
3, 0, Program_c, 1, 0
3, 0, Control_c, 1, 7, 127
3, 0, Control_c, 1, 10, 64
3, 120, Control_c, 1, 91, 64
3, 120, Control_c, 1, 11, 88
3, 480, Control_c, 1, 64, 127
3, 480, Note_on_c, 1, 53, 86
3, 480, Control_c, 1, 11, 88
3, 480, Control_c, 1, 11, 88
3, 507, Control_c, 1, 11, 87
3, 507, Control_c, 1, 11, 87
3, 535, Control_c, 1, 11, 86
3, 535, Control_c, 1, 11, 86
3, 562, Control_c, 1, 11, 85
3, 562, Control_c, 1, 11, 85
3, 590, Control_c, 1, 11, 84
3, 590, Control_c, 1, 11, 84
3, 600, Note_on_c, 1, 56, 86
3, 600, Note_on_c, 1, 60, 86
3, 618, Control_c, 1, 11, 83
3, 618, Control_c, 1, 11, 83
3, 646, Control_c, 1, 11, 82
3, 646, Control_c, 1, 11, 82
3, 673, Control_c, 1, 11, 81
3, 673, Control_c, 1, 11, 81
3, 701, Control_c, 1, 11, 80
3, 701, Control_c, 1, 11, 80
3, 705, Note_on_c, 1, 60, 0
3, 705, Note_on_c, 1, 56, 0
3, 720, Note_on_c, 1, 56, 86
3, 720, Note_on_c, 1, 60, 86
3, 729, Control_c, 1, 11, 79
3, 729, Control_c, 1, 11, 79
3, 756, Control_c, 1, 11, 78
3, 756, Control_c, 1, 11, 78
3, 784, Control_c, 1, 64, 0
3, 784, Control_c, 1, 11, 77
3, 784, Control_c, 1, 11, 77
3, 812, Control_c, 1, 11, 76
3, 812, Control_c, 1, 11, 76
3, 825, Note_on_c, 1, 60, 0
3, 825, Note_on_c, 1, 56, 0
3, 825, Note_on_c, 1, 53, 0
3, 840, Control_c, 1, 64, 127
3, 840, Note_on_c, 1, 51, 86
3, 960, Note_on_c, 1, 53, 86
3, 960, Note_on_c, 1, 56, 86
3, 960, Note_on_c, 1, 60, 86
3, 1065, Note_on_c, 1, 60, 0
3, 1065, Note_on_c, 1, 56, 0
3, 1065, Note_on_c, 1, 53, 0
3, 1080, Note_on_c, 1, 53, 86
3, 1080, Note_on_c, 1, 56, 86
3, 1080, Note_on_c, 1, 60, 86
3, 1144, Control_c, 1, 64, 0
3, 1185, Note_on_c, 1, 60, 0
3, 1185, Note_on_c, 1, 51, 0
3, 1185, Note_on_c, 1, 53, 0
3, 1185, Note_on_c, 1, 56, 0
3, 1200, Note_on_c, 1, 49, 86
3, 1200, Control_c, 1, 11, 75
3, 1227, Control_c, 1, 11, 76
3, 1255, Control_c, 1, 11, 77
3, 1282, Control_c, 1, 11, 78
3, 1310, Control_c, 1, 11, 79
3, 1320, Note_on_c, 1, 53, 86
3, 1320, Note_on_c, 1, 58, 86
3, 1338, Control_c, 1, 11, 80
3, 1366, Control_c, 1, 11, 81
3, 1393, Control_c, 1, 11, 82
3, 1421, Control_c, 1, 11, 83
3, 1425, Note_on_c, 1, 49, 0
3, 1440, Note_on_c, 1, 46, 86
3, 1449, Control_c, 1, 11, 84
3, 1476, Control_c, 1, 11, 85
3, 1504, Control_c, 1, 11, 86
3, 1532, Control_c, 1, 11, 87
3, 1545, Note_on_c, 1, 46, 0
3, 1545, Note_on_c, 1, 58, 0
3, 1545, Note_on_c, 1, 53, 0
3, 1560, Control_c, 1, 64, 127
3, 1560, Note_on_c, 1, 41, 86
3, 1665, Note_on_c, 1, 41, 0
3, 1680, Note_on_c, 1, 60, 86
3, 1680, Note_on_c, 1, 68, 86
3, 1785, Note_on_c, 1, 68, 0
3, 1785, Note_on_c, 1, 60, 0
3, 1800, Note_on_c, 1, 60, 86
3, 1800, Note_on_c, 1, 68, 86
3, 1864, Control_c, 1, 64, 0
3, 1905, Note_on_c, 1, 68, 0
3, 1905, Note_on_c, 1, 60, 0
3, 1920, Control_c, 1, 64, 127
3, 1920, Note_on_c, 1, 51, 86
3, 1920, Control_c, 1, 11, 88
3, 1947, Control_c, 1, 11, 89
3, 1975, Control_c, 1, 11, 90
3, 2002, Control_c, 1, 11, 91
3, 2030, Control_c, 1, 11, 92
3, 2040, Note_on_c, 1, 58, 86
3, 2040, Note_on_c, 1, 60, 86
3, 2040, Note_on_c, 1, 67, 86
3, 2058, Control_c, 1, 11, 93
3, 2086, Control_c, 1, 11, 94
3, 2113, Control_c, 1, 11, 95
3, 2141, Control_c, 1, 11, 96
3, 2145, Note_on_c, 1, 67, 0
3, 2145, Note_on_c, 1, 60, 0
3, 2145, Note_on_c, 1, 58, 0
3, 2160, Note_on_c, 1, 58, 86
3, 2160, Note_on_c, 1, 60, 86
3, 2160, Note_on_c, 1, 67, 86
3, 2169, Control_c, 1, 11, 97
3, 2196, Control_c, 1, 11, 98
3, 2224, Control_c, 1, 64, 0
3, 2224, Control_c, 1, 11, 99
3, 2252, Control_c, 1, 11, 100
3, 2265, Note_on_c, 1, 67, 0
3, 2265, Note_on_c, 1, 51, 0
3, 2265, Note_on_c, 1, 58, 0
3, 2265, Note_on_c, 1, 60, 0
3, 2280, Control_c, 1, 64, 127
3, 2280, Note_on_c, 1, 53, 86
3, 2280, Control_c, 1, 11, 101
3, 2307, Control_c, 1, 11, 102
3, 2335, Control_c, 1, 11, 103
3, 2362, Control_c, 1, 11, 104
3, 2390, Control_c, 1, 11, 105
3, 2400, Note_on_c, 1, 56, 86
3, 2400, Note_on_c, 1, 60, 86
3, 2400, Note_on_c, 1, 65, 86
3, 2418, Control_c, 1, 11, 106
3, 2446, Control_c, 1, 11, 107
3, 2473, Control_c, 1, 11, 108
3, 2501, Control_c, 1, 11, 109
3, 2505, Note_on_c, 1, 65, 0
3, 2505, Note_on_c, 1, 53, 0
3, 2505, Note_on_c, 1, 56, 0
3, 2505, Note_on_c, 1, 60, 0
3, 2520, Note_on_c, 1, 44, 86
3, 2529, Control_c, 1, 11, 110
3, 2556, Control_c, 1, 11, 111
3, 2584, Control_c, 1, 64, 0
3, 2584, Control_c, 1, 11, 112
3, 2612, Control_c, 1, 11, 113
3, 2625, Note_on_c, 1, 44, 0
3, 2640, Control_c, 1, 64, 127
3, 2640, Note_on_c, 1, 46, 86
3, 2640, Control_c, 1, 11, 114
3, 2653, Control_c, 1, 11, 113
3, 2667, Control_c, 1, 11, 112
3, 2681, Control_c, 1, 11, 111
3, 2695, Control_c, 1, 11, 110
3, 2709, Control_c, 1, 11, 109
3, 2722, Control_c, 1, 11, 108
3, 2736, Control_c, 1, 11, 107
3, 2750, Control_c, 1, 11, 106
3, 2760, Note_on_c, 1, 53, 86
3, 2760, Note_on_c, 1, 55, 86
3, 2760, Note_on_c, 1, 61, 86
3, 2764, Control_c, 1, 11, 105
3, 2778, Control_c, 1, 11, 104
3, 2792, Control_c, 1, 11, 103
3, 2806, Control_c, 1, 11, 102
3, 2820, Control_c, 1, 11, 101
3, 2833, Control_c, 1, 11, 100
3, 2847, Control_c, 1, 11, 99
3, 2861, Control_c, 1, 11, 98
3, 2865, Note_on_c, 1, 61, 0
3, 2865, Note_on_c, 1, 46, 0
3, 2865, Note_on_c, 1, 53, 0
3, 2865, Note_on_c, 1, 55, 0
3, 2875, Control_c, 1, 11, 97
3, 2880, Note_on_c, 1, 34, 86
3, 2889, Control_c, 1, 11, 96
3, 2902, Control_c, 1, 11, 95
3, 2916, Control_c, 1, 11, 94
3, 2930, Control_c, 1, 11, 93
3, 2944, Control_c, 1, 64, 0
3, 2944, Control_c, 1, 11, 92
3, 2958, Control_c, 1, 11, 91
3, 2972, Control_c, 1, 11, 90
3, 2985, Note_on_c, 1, 34, 0
3, 2986, Control_c, 1, 11, 89
3, 3000, Control_c, 1, 64, 127
3, 3000, Note_on_c, 1, 36, 86
3, 3000, Control_c, 1, 11, 88
3, 3013, Control_c, 1, 11, 89
3, 3027, Control_c, 1, 11, 90
3, 3041, Control_c, 1, 11, 91
3, 3055, Control_c, 1, 11, 92
3, 3069, Control_c, 1, 11, 93
3, 3082, Control_c, 1, 11, 94
3, 3096, Control_c, 1, 11, 95
3, 3105, Note_on_c, 1, 36, 0
3, 3110, Control_c, 1, 11, 96
3, 3120, Note_on_c, 1, 48, 86
3, 3120, Note_on_c, 1, 55, 86
3, 3120, Note_on_c, 1, 64, 86
3, 3124, Control_c, 1, 11, 97
3, 3138, Control_c, 1, 11, 98
3, 3152, Control_c, 1, 11, 99
3, 3166, Control_c, 1, 11, 100
3, 3180, Control_c, 1, 11, 101
3, 3193, Control_c, 1, 11, 102
3, 3207, Control_c, 1, 11, 103
3, 3221, Control_c, 1, 11, 104
3, 3225, Note_on_c, 1, 64, 0
3, 3225, Note_on_c, 1, 55, 0
3, 3225, Note_on_c, 1, 48, 0
3, 3235, Control_c, 1, 11, 105
3, 3249, Control_c, 1, 11, 106
3, 3262, Control_c, 1, 11, 107
3, 3276, Control_c, 1, 11, 108
3, 3290, Control_c, 1, 11, 109
3, 3304, Control_c, 1, 64, 0
3, 3304, Control_c, 1, 11, 110
3, 3318, Control_c, 1, 11, 111
3, 3332, Control_c, 1, 11, 112
3, 3346, Control_c, 1, 11, 113
3, 3360, Control_c, 1, 64, 127
3, 3360, Note_on_c, 1, 56, 86
3, 3360, Control_c, 1, 11, 114
3, 3373, Control_c, 1, 11, 113
3, 3387, Control_c, 1, 11, 112
3, 3401, Control_c, 1, 11, 111
3, 3415, Control_c, 1, 11, 110
3, 3429, Control_c, 1, 11, 109
3, 3442, Control_c, 1, 11, 108
3, 3456, Control_c, 1, 11, 107
3, 3470, Control_c, 1, 11, 106
3, 3480, Note_on_c, 1, 60, 86
3, 3480, Note_on_c, 1, 63, 86
3, 3484, Control_c, 1, 11, 105
3, 3498, Control_c, 1, 11, 104
3, 3512, Control_c, 1, 11, 103
3, 3526, Control_c, 1, 11, 102
3, 3540, Control_c, 1, 11, 101
3, 3553, Control_c, 1, 11, 100
3, 3567, Control_c, 1, 11, 99
3, 3581, Control_c, 1, 11, 98
3, 3585, Note_on_c, 1, 63, 0
3, 3585, Note_on_c, 1, 60, 0
3, 3595, Control_c, 1, 11, 97
3, 3600, Note_on_c, 1, 60, 86
3, 3600, Note_on_c, 1, 63, 86
3, 3609, Control_c, 1, 11, 96
3, 3622, Control_c, 1, 11, 95
3, 3636, Control_c, 1, 11, 94
3, 3650, Control_c, 1, 11, 93
3, 3664, Control_c, 1, 64, 0
3, 3664, Control_c, 1, 11, 92
3, 3678, Control_c, 1, 11, 91
3, 3692, Control_c, 1, 11, 90
3, 3705, Note_on_c, 1, 63, 0
3, 3705, Note_on_c, 1, 60, 0
3, 3705, Note_on_c, 1, 56, 0
3, 3706, Control_c, 1, 11, 89
3, 3720, Control_c, 1, 64, 127
3, 3720, Note_on_c, 1, 55, 86
3, 3840, Note_on_c, 1, 56, 86
3, 3840, Note_on_c, 1, 60, 86
3, 3840, Note_on_c, 1, 63, 86
3, 3945, Note_on_c, 1, 63, 0
3, 3945, Note_on_c, 1, 60, 0
3, 3945, Note_on_c, 1, 56, 0
3, 3960, Note_on_c, 1, 56, 86
3, 3960, Note_on_c, 1, 60, 86
3, 3960, Note_on_c, 1, 63, 86
3, 4024, Control_c, 1, 64, 0
3, 4065, Note_on_c, 1, 63, 0
3, 4065, Note_on_c, 1, 55, 0
3, 4065, Note_on_c, 1, 56, 0
3, 4065, Note_on_c, 1, 60, 0
3, 4080, Control_c, 1, 64, 127
3, 4080, Note_on_c, 1, 53, 86
3, 4200, Note_on_c, 1, 56, 86
3, 4200, Note_on_c, 1, 60, 86
3, 4200, Note_on_c, 1, 63, 86
3, 4305, Note_on_c, 1, 63, 0
3, 4305, Note_on_c, 1, 60, 0
3, 4305, Note_on_c, 1, 56, 0
3, 4320, Note_on_c, 1, 56, 86
3, 4320, Note_on_c, 1, 60, 86
3, 4320, Note_on_c, 1, 63, 86
3, 4384, Control_c, 1, 64, 0
3, 4425, Note_on_c, 1, 63, 0
3, 4425, Note_on_c, 1, 53, 0
3, 4425, Note_on_c, 1, 56, 0
3, 4425, Note_on_c, 1, 60, 0
3, 4440, Control_c, 1, 64, 127
3, 4440, Note_on_c, 1, 46, 86
3, 4545, Note_on_c, 1, 46, 0
3, 4560, Note_on_c, 1, 56, 86
3, 4560, Note_on_c, 1, 58, 86
3, 4560, Note_on_c, 1, 65, 86
3, 4665, Note_on_c, 1, 65, 0
3, 4665, Note_on_c, 1, 58, 0
3, 4665, Note_on_c, 1, 56, 0
3, 4680, Note_on_c, 1, 56, 86
3, 4680, Note_on_c, 1, 58, 86
3, 4680, Note_on_c, 1, 65, 86
3, 4744, Control_c, 1, 64, 0
3, 4785, Note_on_c, 1, 65, 0
3, 4785, Note_on_c, 1, 58, 0
3, 4785, Note_on_c, 1, 56, 0
3, 4800, Control_c, 1, 64, 127
3, 4800, Note_on_c, 1, 46, 86
3, 4800, Control_c, 1, 11, 101
3, 4905, Note_on_c, 1, 46, 0
3, 4920, Note_on_c, 1, 56, 86
3, 4920, Note_on_c, 1, 58, 86
3, 4920, Note_on_c, 1, 62, 86
3, 5025, Note_on_c, 1, 62, 0
3, 5025, Note_on_c, 1, 58, 0
3, 5025, Note_on_c, 1, 56, 0
3, 5040, Note_on_c, 1, 56, 86
3, 5040, Note_on_c, 1, 58, 86
3, 5040, Note_on_c, 1, 62, 86
3, 5104, Control_c, 1, 64, 0
3, 5145, Note_on_c, 1, 62, 0
3, 5145, Note_on_c, 1, 58, 0
3, 5145, Note_on_c, 1, 56, 0
3, 5160, Control_c, 1, 64, 127
3, 5160, Note_on_c, 1, 46, 86
3, 5160, Control_c, 1, 11, 101
3, 5187, Control_c, 1, 11, 100
3, 5215, Control_c, 1, 11, 99
3, 5242, Control_c, 1, 11, 98
3, 5265, Note_on_c, 1, 46, 0
3, 5270, Control_c, 1, 11, 97
3, 5280, Note_on_c, 1, 55, 86
3, 5280, Note_on_c, 1, 58, 86
3, 5280, Note_on_c, 1, 63, 86
3, 5298, Control_c, 1, 11, 96
3, 5326, Control_c, 1, 11, 95
3, 5353, Control_c, 1, 11, 94
3, 5381, Control_c, 1, 11, 93
3, 5385, Note_on_c, 1, 63, 0
3, 5385, Note_on_c, 1, 58, 0
3, 5385, Note_on_c, 1, 55, 0
3, 5400, Note_on_c, 1, 55, 86
3, 5400, Note_on_c, 1, 58, 86
3, 5400, Note_on_c, 1, 63, 86
3, 5409, Control_c, 1, 11, 92
3, 5436, Control_c, 1, 11, 91
3, 5464, Control_c, 1, 64, 0
3, 5464, Control_c, 1, 11, 90
3, 5492, Control_c, 1, 11, 89
3, 5505, Note_on_c, 1, 63, 0
3, 5505, Note_on_c, 1, 58, 0
3, 5505, Note_on_c, 1, 55, 0
3, 5520, Control_c, 1, 64, 127
3, 5520, Note_on_c, 1, 46, 86
3, 5625, Note_on_c, 1, 46, 0
3, 5640, Note_on_c, 1, 56, 86
3, 5640, Note_on_c, 1, 58, 86
3, 5640, Note_on_c, 1, 65, 86
3, 5745, Note_on_c, 1, 65, 0
3, 5745, Note_on_c, 1, 58, 0
3, 5745, Note_on_c, 1, 56, 0
3, 5760, Note_on_c, 1, 56, 86
3, 5760, Note_on_c, 1, 58, 86
3, 5760, Note_on_c, 1, 65, 86
3, 5824, Control_c, 1, 64, 0
3, 5865, Note_on_c, 1, 65, 0
3, 5865, Note_on_c, 1, 58, 0
3, 5865, Note_on_c, 1, 56, 0
3, 5880, Control_c, 1, 64, 127
3, 5880, Note_on_c, 1, 46, 86
3, 5985, Note_on_c, 1, 46, 0
3, 6000, Note_on_c, 1, 55, 86
3, 6000, Note_on_c, 1, 58, 86
3, 6000, Note_on_c, 1, 63, 86
3, 6105, Note_on_c, 1, 63, 0
3, 6105, Note_on_c, 1, 58, 0
3, 6105, Note_on_c, 1, 55, 0
3, 6120, Note_on_c, 1, 55, 86
3, 6120, Note_on_c, 1, 58, 86
3, 6120, Note_on_c, 1, 63, 86
3, 6184, Control_c, 1, 64, 0
3, 6225, Note_on_c, 1, 63, 0
3, 6225, Note_on_c, 1, 58, 0
3, 6225, Note_on_c, 1, 55, 0
3, 6240, Control_c, 1, 64, 127
3, 6240, Note_on_c, 1, 46, 86
3, 6240, Control_c, 1, 11, 62
3, 6240, Control_c, 1, 11, 75
3, 6240, Control_c, 1, 11, 75
3, 6261, Control_c, 1, 11, 74
3, 6282, Control_c, 1, 11, 73
3, 6303, Control_c, 1, 11, 72
3, 6324, Control_c, 1, 11, 71
3, 6345, Note_on_c, 1, 46, 0
3, 6345, Control_c, 1, 11, 70
3, 6360, Note_on_c, 1, 56, 86
3, 6360, Note_on_c, 1, 58, 86
3, 6360, Note_on_c, 1, 62, 86
3, 6367, Control_c, 1, 11, 69
3, 6388, Control_c, 1, 11, 68
3, 6409, Control_c, 1, 11, 67
3, 6430, Control_c, 1, 11, 66
3, 6451, Control_c, 1, 11, 65
3, 6465, Note_on_c, 1, 62, 0
3, 6465, Note_on_c, 1, 58, 0
3, 6465, Note_on_c, 1, 56, 0
3, 6472, Control_c, 1, 11, 64
3, 6480, Note_on_c, 1, 56, 86
3, 6480, Note_on_c, 1, 58, 86
3, 6480, Note_on_c, 1, 62, 86
3, 6494, Control_c, 1, 11, 63
3, 6515, Control_c, 1, 11, 62
3, 6536, Control_c, 1, 11, 61
3, 6544, Control_c, 1, 64, 0
3, 6557, Control_c, 1, 11, 60
3, 6578, Control_c, 1, 11, 59
3, 6585, Note_on_c, 1, 62, 0
3, 6585, Note_on_c, 1, 58, 0
3, 6585, Note_on_c, 1, 56, 0
3, 6600, Control_c, 1, 64, 127
3, 6600, Note_on_c, 1, 51, 86
3, 6705, Note_on_c, 1, 51, 0
3, 6720, Note_on_c, 1, 58, 86
3, 6720, Note_on_c, 1, 63, 86
3, 6720, Note_on_c, 1, 67, 86
3, 6825, Note_on_c, 1, 67, 0
3, 6825, Note_on_c, 1, 63, 0
3, 6825, Note_on_c, 1, 58, 0
3, 6840, Note_on_c, 1, 57, 86
3, 6840, Note_on_c, 1, 60, 86
3, 6840, Note_on_c, 1, 66, 86
3, 6904, Control_c, 1, 64, 0
3, 6945, Note_on_c, 1, 66, 0
3, 6945, Note_on_c, 1, 60, 0
3, 6945, Note_on_c, 1, 57, 0
3, 6960, Control_c, 1, 64, 127
3, 6960, Note_on_c, 1, 46, 86
3, 7065, Note_on_c, 1, 46, 0
3, 7080, Note_on_c, 1, 58, 86
3, 7080, Note_on_c, 1, 63, 86
3, 7185, Note_on_c, 1, 63, 0
3, 7185, Note_on_c, 1, 58, 0
3, 7200, Note_on_c, 1, 56, 86
3, 7200, Note_on_c, 1, 62, 86
3, 7264, Control_c, 1, 64, 0
3, 7305, Note_on_c, 1, 62, 0
3, 7305, Note_on_c, 1, 56, 0
3, 7320, Note_on_c, 1, 51, 86
3, 7440, Note_on_c, 1, 55, 86
3, 7440, Note_on_c, 1, 58, 86
3, 7535, Control_c, 1, 64, 127
3, 7537, Note_on_c, 1, 48, 86
3, 7545, Note_on_c, 1, 58, 0
3, 7545, Note_on_c, 1, 51, 0
3, 7545, Note_on_c, 1, 55, 0
3, 7545, Note_on_c, 1, 55, 86
3, 7552, Note_on_c, 1, 58, 86
3, 7560, Note_on_c, 1, 64, 86
3, 7656, Control_c, 1, 64, 0
3, 7665, Note_on_c, 1, 64, 0
3, 7665, Note_on_c, 1, 48, 0
3, 7665, Note_on_c, 1, 55, 0
3, 7665, Note_on_c, 1, 58, 0
3, 7680, Note_on_c, 1, 53, 86
3, 7680, Control_c, 1, 11, 88
3, 7680, Control_c, 1, 11, 88
3, 7707, Control_c, 1, 11, 87
3, 7735, Control_c, 1, 11, 86
3, 7762, Control_c, 1, 11, 85
3, 7790, Control_c, 1, 11, 84
3, 7800, Note_on_c, 1, 56, 86
3, 7800, Note_on_c, 1, 60, 86
3, 7818, Control_c, 1, 11, 83
3, 7846, Control_c, 1, 11, 82
3, 7873, Control_c, 1, 11, 81
3, 7901, Control_c, 1, 11, 80
3, 7905, Note_on_c, 1, 60, 0
3, 7905, Note_on_c, 1, 56, 0
3, 7920, Note_on_c, 1, 56, 86
3, 7920, Note_on_c, 1, 60, 86
3, 7929, Control_c, 1, 11, 79
3, 7956, Control_c, 1, 11, 78
3, 7984, Control_c, 1, 11, 77
3, 7988, Control_c, 1, 64, 0
3, 8012, Control_c, 1, 11, 76
3, 8025, Note_on_c, 1, 60, 0
3, 8025, Note_on_c, 1, 56, 0
3, 8025, Note_on_c, 1, 53, 0
3, 8040, Note_on_c, 1, 51, 86
3, 8160, Note_on_c, 1, 53, 86
3, 8160, Note_on_c, 1, 56, 86
3, 8160, Note_on_c, 1, 60, 86
3, 8265, Note_on_c, 1, 60, 0
3, 8265, Note_on_c, 1, 56, 0
3, 8265, Note_on_c, 1, 53, 0
3, 8280, Note_on_c, 1, 53, 86
3, 8280, Note_on_c, 1, 56, 86
3, 8280, Note_on_c, 1, 60, 86
3, 8348, Control_c, 1, 64, 0
3, 8385, Note_on_c, 1, 60, 0
3, 8385, Note_on_c, 1, 51, 0
3, 8385, Note_on_c, 1, 53, 0
3, 8385, Note_on_c, 1, 56, 0
3, 8400, Note_on_c, 1, 49, 86
3, 8400, Control_c, 1, 11, 75
3, 8427, Control_c, 1, 11, 76
3, 8455, Control_c, 1, 11, 77
3, 8482, Control_c, 1, 11, 78
3, 8510, Control_c, 1, 11, 79
3, 8520, Note_on_c, 1, 53, 86
3, 8520, Note_on_c, 1, 58, 86
3, 8538, Control_c, 1, 11, 80
3, 8566, Control_c, 1, 11, 81
3, 8593, Control_c, 1, 11, 82
3, 8621, Control_c, 1, 11, 83
3, 8625, Note_on_c, 1, 49, 0
3, 8640, Note_on_c, 1, 46, 86
3, 8649, Control_c, 1, 11, 84
3, 8676, Control_c, 1, 11, 85
3, 8704, Control_c, 1, 11, 86
3, 8732, Control_c, 1, 11, 87
3, 8745, Note_on_c, 1, 46, 0
3, 8745, Note_on_c, 1, 58, 0
3, 8745, Note_on_c, 1, 53, 0
3, 8760, Note_on_c, 1, 41, 86
3, 8865, Note_on_c, 1, 41, 0
3, 8880, Note_on_c, 1, 60, 86
3, 8880, Note_on_c, 1, 68, 86
3, 8985, Note_on_c, 1, 68, 0
3, 8985, Note_on_c, 1, 60, 0
3, 9000, Note_on_c, 1, 60, 86
3, 9000, Note_on_c, 1, 68, 86
3, 9068, Control_c, 1, 64, 0
3, 9105, Note_on_c, 1, 68, 0
3, 9105, Note_on_c, 1, 60, 0
3, 9120, Note_on_c, 1, 52, 86
3, 9120, Control_c, 1, 11, 88
3, 9175, Control_c, 1, 11, 89
3, 9230, Control_c, 1, 11, 90
3, 9240, Note_on_c, 1, 58, 86
3, 9240, Note_on_c, 1, 60, 86
3, 9240, Note_on_c, 1, 67, 86
3, 9286, Control_c, 1, 11, 91
3, 9341, Control_c, 1, 11, 92
3, 9345, Note_on_c, 1, 67, 0
3, 9345, Note_on_c, 1, 60, 0
3, 9345, Note_on_c, 1, 58, 0
3, 9360, Note_on_c, 1, 58, 86
3, 9360, Note_on_c, 1, 60, 86
3, 9360, Note_on_c, 1, 67, 86
3, 9396, Control_c, 1, 11, 93
3, 9428, Control_c, 1, 64, 0
3, 9452, Control_c, 1, 11, 94
3, 9465, Note_on_c, 1, 67, 0
3, 9465, Note_on_c, 1, 52, 0
3, 9465, Note_on_c, 1, 58, 0
3, 9465, Note_on_c, 1, 60, 0
3, 9480, Note_on_c, 1, 53, 86
3, 9507, Control_c, 1, 11, 95
3, 9562, Control_c, 1, 11, 96
3, 9600, Note_on_c, 1, 56, 86
3, 9600, Note_on_c, 1, 60, 86
3, 9600, Note_on_c, 1, 65, 86
3, 9618, Control_c, 1, 11, 97
3, 9673, Control_c, 1, 11, 98
3, 9705, Note_on_c, 1, 65, 0
3, 9705, Note_on_c, 1, 53, 0
3, 9705, Note_on_c, 1, 56, 0
3, 9705, Note_on_c, 1, 60, 0
3, 9720, Note_on_c, 1, 44, 86
3, 9729, Control_c, 1, 11, 99
3, 9784, Control_c, 1, 11, 100
3, 9788, Control_c, 1, 64, 0
3, 9825, Note_on_c, 1, 44, 0
3, 9840, Note_on_c, 1, 46, 86
3, 9840, Control_c, 1, 11, 101
3, 9867, Control_c, 1, 11, 100
3, 9895, Control_c, 1, 11, 99
3, 9922, Control_c, 1, 11, 98
3, 9950, Control_c, 1, 11, 97
3, 9960, Note_on_c, 1, 53, 86
3, 9960, Note_on_c, 1, 55, 86
3, 9960, Note_on_c, 1, 61, 86
3, 9978, Control_c, 1, 11, 96
3, 10006, Control_c, 1, 11, 95
3, 10033, Control_c, 1, 11, 94
3, 10061, Control_c, 1, 11, 93
3, 10065, Note_on_c, 1, 61, 0
3, 10065, Note_on_c, 1, 46, 0
3, 10065, Note_on_c, 1, 53, 0
3, 10065, Note_on_c, 1, 55, 0
3, 10080, Note_on_c, 1, 34, 86
3, 10089, Control_c, 1, 11, 92
3, 10116, Control_c, 1, 11, 91
3, 10144, Control_c, 1, 11, 90
3, 10148, Control_c, 1, 64, 0
3, 10172, Control_c, 1, 11, 89
3, 10185, Note_on_c, 1, 34, 0
3, 10200, Note_on_c, 1, 36, 86
3, 10200, Control_c, 1, 11, 88
3, 10213, Control_c, 1, 11, 89
3, 10227, Control_c, 1, 11, 90
3, 10241, Control_c, 1, 11, 91
3, 10255, Control_c, 1, 11, 92
3, 10269, Control_c, 1, 11, 93
3, 10282, Control_c, 1, 11, 94
3, 10296, Control_c, 1, 11, 95
3, 10305, Note_on_c, 1, 36, 0
3, 10310, Control_c, 1, 11, 96
3, 10320, Note_on_c, 1, 48, 86
3, 10320, Note_on_c, 1, 55, 86
3, 10320, Note_on_c, 1, 64, 86
3, 10324, Control_c, 1, 11, 97
3, 10338, Control_c, 1, 11, 98
3, 10352, Control_c, 1, 11, 99
3, 10366, Control_c, 1, 11, 100
3, 10380, Control_c, 1, 11, 101
3, 10393, Control_c, 1, 11, 102
3, 10407, Control_c, 1, 11, 103
3, 10421, Control_c, 1, 11, 104
3, 10425, Note_on_c, 1, 64, 0
3, 10425, Note_on_c, 1, 55, 0
3, 10425, Note_on_c, 1, 48, 0
3, 10435, Control_c, 1, 11, 105
3, 10449, Control_c, 1, 11, 106
3, 10462, Control_c, 1, 11, 107
3, 10476, Control_c, 1, 11, 108
3, 10490, Control_c, 1, 11, 109
3, 10504, Control_c, 1, 11, 110
3, 10508, Control_c, 1, 64, 0
3, 10518, Control_c, 1, 11, 111
3, 10532, Control_c, 1, 11, 112
3, 10546, Control_c, 1, 11, 113
3, 10560, Note_on_c, 1, 56, 86
3, 10560, Control_c, 1, 11, 114
3, 10573, Control_c, 1, 11, 113
3, 10587, Control_c, 1, 11, 112
3, 10601, Control_c, 1, 11, 111
3, 10615, Control_c, 1, 11, 110
3, 10629, Control_c, 1, 11, 109
3, 10642, Control_c, 1, 11, 108
3, 10656, Control_c, 1, 11, 107
3, 10670, Control_c, 1, 11, 106
3, 10680, Note_on_c, 1, 60, 86
3, 10680, Note_on_c, 1, 63, 86
3, 10684, Control_c, 1, 11, 105
3, 10698, Control_c, 1, 11, 104
3, 10712, Control_c, 1, 11, 103
3, 10726, Control_c, 1, 11, 102
3, 10740, Control_c, 1, 11, 101
3, 10753, Control_c, 1, 11, 100
3, 10767, Control_c, 1, 11, 99
3, 10781, Control_c, 1, 11, 98
3, 10785, Note_on_c, 1, 63, 0
3, 10785, Note_on_c, 1, 60, 0
3, 10795, Control_c, 1, 11, 97
3, 10800, Note_on_c, 1, 60, 86
3, 10800, Note_on_c, 1, 63, 86
3, 10809, Control_c, 1, 11, 96
3, 10822, Control_c, 1, 11, 95
3, 10836, Control_c, 1, 11, 94
3, 10850, Control_c, 1, 11, 93
3, 10864, Control_c, 1, 11, 92
3, 10868, Control_c, 1, 64, 0
3, 10878, Control_c, 1, 11, 91
3, 10892, Control_c, 1, 11, 90
3, 10905, Note_on_c, 1, 63, 0
3, 10905, Note_on_c, 1, 60, 0
3, 10905, Note_on_c, 1, 56, 0
3, 10906, Control_c, 1, 11, 89
3, 10920, Note_on_c, 1, 55, 86
3, 11040, Note_on_c, 1, 56, 86
3, 11040, Note_on_c, 1, 60, 86
3, 11040, Note_on_c, 1, 63, 86
3, 11145, Note_on_c, 1, 63, 0
3, 11145, Note_on_c, 1, 60, 0
3, 11145, Note_on_c, 1, 56, 0
3, 11160, Note_on_c, 1, 56, 86
3, 11160, Note_on_c, 1, 60, 86
3, 11160, Note_on_c, 1, 63, 86
3, 11228, Control_c, 1, 64, 0
3, 11265, Note_on_c, 1, 63, 0
3, 11265, Note_on_c, 1, 55, 0
3, 11265, Note_on_c, 1, 56, 0
3, 11265, Note_on_c, 1, 60, 0
3, 11280, Note_on_c, 1, 53, 86
3, 11400, Note_on_c, 1, 56, 86
3, 11400, Note_on_c, 1, 60, 86
3, 11400, Note_on_c, 1, 63, 86
3, 11505, Note_on_c, 1, 63, 0
3, 11505, Note_on_c, 1, 60, 0
3, 11505, Note_on_c, 1, 56, 0
3, 11520, Note_on_c, 1, 56, 86
3, 11520, Note_on_c, 1, 60, 86
3, 11520, Note_on_c, 1, 63, 86
3, 11588, Control_c, 1, 64, 0
3, 11625, Note_on_c, 1, 63, 0
3, 11625, Note_on_c, 1, 53, 0
3, 11625, Note_on_c, 1, 56, 0
3, 11625, Note_on_c, 1, 60, 0
3, 11640, Note_on_c, 1, 46, 86
3, 11745, Note_on_c, 1, 46, 0
3, 11760, Note_on_c, 1, 56, 86
3, 11760, Note_on_c, 1, 58, 86
3, 11760, Note_on_c, 1, 65, 86
3, 11865, Note_on_c, 1, 65, 0
3, 11865, Note_on_c, 1, 58, 0
3, 11865, Note_on_c, 1, 56, 0
3, 11880, Note_on_c, 1, 56, 86
3, 11880, Note_on_c, 1, 58, 86
3, 11880, Note_on_c, 1, 65, 86
3, 11948, Control_c, 1, 64, 0
3, 11985, Note_on_c, 1, 65, 0
3, 11985, Note_on_c, 1, 58, 0
3, 11985, Note_on_c, 1, 56, 0
3, 12000, Note_on_c, 1, 46, 86
3, 12000, Control_c, 1, 11, 101
3, 12105, Note_on_c, 1, 46, 0
3, 12120, Note_on_c, 1, 56, 86
3, 12120, Note_on_c, 1, 58, 86
3, 12120, Note_on_c, 1, 62, 86
3, 12225, Note_on_c, 1, 62, 0
3, 12225, Note_on_c, 1, 58, 0
3, 12225, Note_on_c, 1, 56, 0
3, 12240, Note_on_c, 1, 56, 86
3, 12240, Note_on_c, 1, 58, 86
3, 12240, Note_on_c, 1, 62, 86
3, 12308, Control_c, 1, 64, 0
3, 12345, Note_on_c, 1, 62, 0
3, 12345, Note_on_c, 1, 58, 0
3, 12345, Note_on_c, 1, 56, 0
3, 12360, Note_on_c, 1, 46, 86
3, 12360, Control_c, 1, 11, 101
3, 12387, Control_c, 1, 11, 100
3, 12415, Control_c, 1, 11, 99
3, 12442, Control_c, 1, 11, 98
3, 12465, Note_on_c, 1, 46, 0
3, 12470, Control_c, 1, 11, 97
3, 12480, Note_on_c, 1, 55, 86
3, 12480, Note_on_c, 1, 58, 86
3, 12480, Note_on_c, 1, 63, 86
3, 12498, Control_c, 1, 11, 96
3, 12526, Control_c, 1, 11, 95
3, 12553, Control_c, 1, 11, 94
3, 12581, Control_c, 1, 11, 93
3, 12585, Note_on_c, 1, 63, 0
3, 12585, Note_on_c, 1, 58, 0
3, 12585, Note_on_c, 1, 55, 0
3, 12600, Note_on_c, 1, 55, 86
3, 12600, Note_on_c, 1, 58, 86
3, 12600, Note_on_c, 1, 63, 86
3, 12609, Control_c, 1, 11, 92
3, 12636, Control_c, 1, 11, 91
3, 12664, Control_c, 1, 11, 90
3, 12668, Control_c, 1, 64, 0
3, 12692, Control_c, 1, 11, 89
3, 12705, Note_on_c, 1, 63, 0
3, 12705, Note_on_c, 1, 58, 0
3, 12705, Note_on_c, 1, 55, 0
3, 12720, Note_on_c, 1, 46, 86
3, 12825, Note_on_c, 1, 46, 0
3, 12840, Note_on_c, 1, 56, 86
3, 12840, Note_on_c, 1, 58, 86
3, 12840, Note_on_c, 1, 65, 86
3, 12945, Note_on_c, 1, 65, 0
3, 12945, Note_on_c, 1, 58, 0
3, 12945, Note_on_c, 1, 56, 0
3, 12960, Note_on_c, 1, 56, 86
3, 12960, Note_on_c, 1, 58, 86
3, 12960, Note_on_c, 1, 65, 86
3, 13028, Control_c, 1, 64, 0
3, 13065, Note_on_c, 1, 65, 0
3, 13065, Note_on_c, 1, 58, 0
3, 13065, Note_on_c, 1, 56, 0
3, 13080, Note_on_c, 1, 46, 86
3, 13185, Note_on_c, 1, 46, 0
3, 13200, Note_on_c, 1, 55, 86
3, 13200, Note_on_c, 1, 58, 86
3, 13200, Note_on_c, 1, 63, 86
3, 13305, Note_on_c, 1, 63, 0
3, 13305, Note_on_c, 1, 58, 0
3, 13305, Note_on_c, 1, 55, 0
3, 13320, Note_on_c, 1, 55, 86
3, 13320, Note_on_c, 1, 58, 86
3, 13320, Note_on_c, 1, 63, 86
3, 13388, Control_c, 1, 64, 0
3, 13425, Note_on_c, 1, 63, 0
3, 13425, Note_on_c, 1, 58, 0
3, 13425, Note_on_c, 1, 55, 0
3, 13440, Note_on_c, 1, 46, 86
3, 13440, Control_c, 1, 11, 88
3, 13467, Control_c, 1, 11, 87
3, 13495, Control_c, 1, 11, 86
3, 13522, Control_c, 1, 11, 85
3, 13545, Note_on_c, 1, 46, 0
3, 13550, Control_c, 1, 11, 84
3, 13560, Note_on_c, 1, 56, 86
3, 13560, Note_on_c, 1, 58, 86
3, 13560, Note_on_c, 1, 62, 86
3, 13578, Control_c, 1, 11, 83
3, 13606, Control_c, 1, 11, 82
3, 13633, Control_c, 1, 11, 81
3, 13661, Control_c, 1, 11, 80
3, 13665, Note_on_c, 1, 62, 0
3, 13665, Note_on_c, 1, 58, 0
3, 13665, Note_on_c, 1, 56, 0
3, 13680, Note_on_c, 1, 56, 86
3, 13680, Note_on_c, 1, 58, 86
3, 13680, Note_on_c, 1, 62, 86
3, 13689, Control_c, 1, 11, 79
3, 13716, Control_c, 1, 11, 78
3, 13744, Control_c, 1, 11, 77
3, 13748, Control_c, 1, 64, 0
3, 13772, Control_c, 1, 11, 76
3, 13785, Note_on_c, 1, 62, 0
3, 13785, Note_on_c, 1, 58, 0
3, 13785, Note_on_c, 1, 56, 0
3, 13800, Note_on_c, 1, 51, 86
3, 13905, Note_on_c, 1, 51, 0
3, 13920, Note_on_c, 1, 58, 86
3, 13920, Note_on_c, 1, 63, 86
3, 13920, Note_on_c, 1, 67, 86
3, 14025, Note_on_c, 1, 67, 0
3, 14025, Note_on_c, 1, 63, 0
3, 14025, Note_on_c, 1, 58, 0
3, 14040, Note_on_c, 1, 57, 86
3, 14040, Note_on_c, 1, 60, 86
3, 14040, Note_on_c, 1, 66, 86
3, 14108, Control_c, 1, 64, 0
3, 14145, Note_on_c, 1, 66, 0
3, 14145, Note_on_c, 1, 60, 0
3, 14145, Note_on_c, 1, 57, 0
3, 14160, Note_on_c, 1, 46, 86
3, 14265, Note_on_c, 1, 46, 0
3, 14280, Note_on_c, 1, 58, 86
3, 14280, Note_on_c, 1, 63, 86
3, 14385, Note_on_c, 1, 63, 0
3, 14385, Note_on_c, 1, 58, 0
3, 14400, Note_on_c, 1, 56, 86
3, 14400, Note_on_c, 1, 62, 86
3, 14468, Control_c, 1, 64, 0
3, 14505, Note_on_c, 1, 62, 0
3, 14505, Note_on_c, 1, 56, 0
3, 14520, Note_on_c, 1, 51, 86
3, 14640, Note_on_c, 1, 55, 86
3, 14640, Note_on_c, 1, 58, 86
3, 14745, Note_on_c, 1, 58, 0
3, 14745, Note_on_c, 1, 55, 0
3, 14745, Note_on_c, 1, 51, 0
3, 14880, Note_on_c, 1, 49, 86
3, 15000, Note_on_c, 1, 53, 86
3, 15000, Note_on_c, 1, 58, 86
3, 15000, Note_on_c, 1, 61, 86
3, 15105, Note_on_c, 1, 61, 0
3, 15105, Note_on_c, 1, 58, 0
3, 15105, Note_on_c, 1, 53, 0
3, 15120, Note_on_c, 1, 53, 86
3, 15120, Note_on_c, 1, 58, 86
3, 15120, Note_on_c, 1, 61, 86
3, 15188, Control_c, 1, 64, 0
3, 15225, Note_on_c, 1, 61, 0
3, 15225, Note_on_c, 1, 49, 0
3, 15225, Note_on_c, 1, 53, 0
3, 15225, Note_on_c, 1, 58, 0
3, 15240, Note_on_c, 1, 46, 86
3, 15360, Note_on_c, 1, 53, 86
3, 15360, Note_on_c, 1, 56, 86
3, 15360, Note_on_c, 1, 61, 86
3, 15465, Note_on_c, 1, 61, 0
3, 15465, Note_on_c, 1, 46, 0
3, 15465, Note_on_c, 1, 53, 0
3, 15465, Note_on_c, 1, 56, 0
3, 15480, Note_on_c, 1, 55, 86
3, 15480, Note_on_c, 1, 61, 86
3, 15480, Note_on_c, 1, 51, 86
3, 15548, Control_c, 1, 64, 0
3, 15585, Note_on_c, 1, 51, 0
3, 15585, Note_on_c, 1, 61, 0
3, 15585, Note_on_c, 1, 55, 0
3, 15600, Note_on_c, 1, 51, 86
3, 15720, Note_on_c, 1, 56, 86
3, 15720, Note_on_c, 1, 60, 86
3, 15825, Note_on_c, 1, 60, 0
3, 15825, Note_on_c, 1, 56, 0
3, 15840, Note_on_c, 1, 56, 86
3, 15840, Note_on_c, 1, 60, 86
3, 15908, Control_c, 1, 64, 0
3, 15945, Note_on_c, 1, 60, 0
3, 15945, Note_on_c, 1, 56, 0
3, 15945, Note_on_c, 1, 51, 0
3, 15960, Note_on_c, 1, 39, 86
3, 16080, Note_on_c, 1, 51, 86
3, 16080, Note_on_c, 1, 56, 86
3, 16185, Note_on_c, 1, 56, 0
3, 16185, Note_on_c, 1, 51, 0
3, 16200, Note_on_c, 1, 51, 86
3, 16200, Note_on_c, 1, 56, 86
3, 16268, Control_c, 1, 64, 0
3, 16305, Note_on_c, 1, 56, 0
3, 16305, Note_on_c, 1, 51, 0
3, 16305, Note_on_c, 1, 39, 0
3, 16320, Note_on_c, 1, 39, 86
3, 16320, Control_c, 1, 11, 75
3, 16329, Control_c, 1, 11, 76
3, 16338, Control_c, 1, 11, 77
3, 16347, Control_c, 1, 11, 78
3, 16356, Control_c, 1, 11, 79
3, 16366, Control_c, 1, 11, 80
3, 16375, Control_c, 1, 11, 81
3, 16384, Control_c, 1, 11, 82
3, 16393, Control_c, 1, 11, 83
3, 16402, Control_c, 1, 11, 84
3, 16412, Control_c, 1, 11, 85
3, 16421, Control_c, 1, 11, 86
3, 16425, Note_on_c, 1, 39, 0
3, 16430, Control_c, 1, 11, 87
3, 16440, Note_on_c, 1, 51, 86
3, 16440, Note_on_c, 1, 55, 86
3, 16440, Note_on_c, 1, 61, 86
3, 16440, Control_c, 1, 11, 88
3, 16449, Control_c, 1, 11, 89
3, 16458, Control_c, 1, 11, 90
3, 16467, Control_c, 1, 11, 91
3, 16476, Control_c, 1, 11, 92
3, 16486, Control_c, 1, 11, 93
3, 16495, Control_c, 1, 11, 94
3, 16504, Control_c, 1, 11, 95
3, 16513, Control_c, 1, 11, 96
3, 16522, Control_c, 1, 11, 97
3, 16532, Control_c, 1, 11, 98
3, 16541, Control_c, 1, 11, 99
3, 16545, Note_on_c, 1, 61, 0
3, 16545, Note_on_c, 1, 55, 0
3, 16545, Note_on_c, 1, 51, 0
3, 16550, Control_c, 1, 11, 100
3, 16560, Note_on_c, 1, 55, 86
3, 16560, Note_on_c, 1, 58, 86
3, 16560, Note_on_c, 1, 63, 86
3, 16560, Control_c, 1, 11, 101
3, 16569, Control_c, 1, 11, 102
3, 16578, Control_c, 1, 11, 103
3, 16587, Control_c, 1, 11, 104
3, 16596, Control_c, 1, 11, 105
3, 16606, Control_c, 1, 11, 106
3, 16615, Control_c, 1, 11, 107
3, 16624, Control_c, 1, 11, 108
3, 16628, Control_c, 1, 64, 0
3, 16633, Control_c, 1, 11, 109
3, 16642, Control_c, 1, 11, 110
3, 16652, Control_c, 1, 11, 111
3, 16661, Control_c, 1, 11, 112
3, 16665, Note_on_c, 1, 63, 0
3, 16665, Note_on_c, 1, 58, 0
3, 16665, Note_on_c, 1, 55, 0
3, 16670, Control_c, 1, 11, 113
3, 16680, Note_on_c, 1, 51, 86
3, 16785, Note_on_c, 1, 51, 0
3, 16800, Note_on_c, 1, 61, 86
3, 16800, Note_on_c, 1, 63, 86
3, 16800, Note_on_c, 1, 67, 86
3, 16905, Note_on_c, 1, 67, 0
3, 16905, Note_on_c, 1, 63, 0
3, 16905, Note_on_c, 1, 61, 0
3, 16920, Note_on_c, 1, 61, 86
3, 16920, Note_on_c, 1, 63, 86
3, 16920, Note_on_c, 1, 67, 86
3, 16988, Control_c, 1, 64, 0
3, 17025, Note_on_c, 1, 67, 0
3, 17025, Note_on_c, 1, 63, 0
3, 17025, Note_on_c, 1, 61, 0
3, 17040, Note_on_c, 1, 44, 86
3, 17145, Note_on_c, 1, 44, 0
3, 17160, Note_on_c, 1, 63, 86
3, 17160, Note_on_c, 1, 68, 86
3, 17265, Note_on_c, 1, 68, 0
3, 17265, Note_on_c, 1, 63, 0
3, 17280, Note_on_c, 1, 63, 86
3, 17280, Note_on_c, 1, 68, 86
3, 17348, Control_c, 1, 64, 0
3, 17385, Note_on_c, 1, 68, 0
3, 17385, Note_on_c, 1, 63, 0
3, 17400, Note_on_c, 1, 44, 86
3, 17505, Note_on_c, 1, 44, 0
3, 17520, Note_on_c, 1, 51, 86
3, 17520, Note_on_c, 1, 56, 86
3, 17520, Note_on_c, 1, 60, 86
3, 17625, Note_on_c, 1, 60, 0
3, 17625, Note_on_c, 1, 56, 0
3, 17625, Note_on_c, 1, 51, 0
3, 17629, Control_c, 1, 11, 75
3, 17640, Note_on_c, 1, 51, 86
3, 17640, Note_on_c, 1, 56, 86
3, 17640, Note_on_c, 1, 60, 86
3, 17708, Control_c, 1, 64, 0
3, 17745, Note_on_c, 1, 60, 0
3, 17745, Note_on_c, 1, 56, 0
3, 17745, Note_on_c, 1, 51, 0
3, 17760, Note_on_c, 1, 49, 86
3, 17880, Note_on_c, 1, 53, 86
3, 17880, Note_on_c, 1, 58, 86
3, 17880, Note_on_c, 1, 61, 86
3, 17985, Note_on_c, 1, 61, 0
3, 17985, Note_on_c, 1, 58, 0
3, 17985, Note_on_c, 1, 53, 0
3, 18000, Note_on_c, 1, 53, 86
3, 18000, Note_on_c, 1, 58, 86
3, 18000, Note_on_c, 1, 61, 86
3, 18068, Control_c, 1, 64, 0
3, 18105, Note_on_c, 1, 61, 0
3, 18105, Note_on_c, 1, 49, 0
3, 18105, Note_on_c, 1, 53, 0
3, 18105, Note_on_c, 1, 58, 0
3, 18120, Note_on_c, 1, 46, 86
3, 18120, Control_c, 1, 11, 75
3, 18147, Control_c, 1, 11, 76
3, 18175, Control_c, 1, 11, 77
3, 18202, Control_c, 1, 11, 78
3, 18230, Control_c, 1, 11, 79
3, 18240, Note_on_c, 1, 53, 86
3, 18240, Note_on_c, 1, 56, 86
3, 18240, Note_on_c, 1, 61, 86
3, 18258, Control_c, 1, 11, 80
3, 18286, Control_c, 1, 11, 81
3, 18313, Control_c, 1, 11, 82
3, 18341, Control_c, 1, 11, 83
3, 18345, Note_on_c, 1, 61, 0
3, 18345, Note_on_c, 1, 46, 0
3, 18345, Note_on_c, 1, 53, 0
3, 18345, Note_on_c, 1, 56, 0
3, 18360, Note_on_c, 1, 55, 86
3, 18360, Note_on_c, 1, 61, 86
3, 18360, Note_on_c, 1, 51, 86
3, 18369, Control_c, 1, 11, 84
3, 18396, Control_c, 1, 11, 85
3, 18424, Control_c, 1, 11, 86
3, 18428, Control_c, 1, 64, 0
3, 18452, Control_c, 1, 11, 87
3, 18465, Note_on_c, 1, 51, 0
3, 18465, Note_on_c, 1, 61, 0
3, 18465, Note_on_c, 1, 55, 0
3, 18480, Note_on_c, 1, 44, 86
3, 18600, Note_on_c, 1, 51, 86
3, 18600, Note_on_c, 1, 56, 86
3, 18600, Note_on_c, 1, 60, 86
3, 18705, Note_on_c, 1, 60, 0
3, 18705, Note_on_c, 1, 56, 0
3, 18705, Note_on_c, 1, 51, 0
3, 18720, Note_on_c, 1, 51, 86
3, 18720, Note_on_c, 1, 56, 86
3, 18720, Note_on_c, 1, 60, 86
3, 18788, Control_c, 1, 64, 0
3, 18825, Note_on_c, 1, 60, 0
3, 18825, Note_on_c, 1, 44, 0
3, 18825, Note_on_c, 1, 51, 0
3, 18825, Note_on_c, 1, 56, 0
3, 18840, Note_on_c, 1, 44, 86
3, 18960, Note_on_c, 1, 50, 86
3, 18960, Note_on_c, 1, 53, 86
3, 19065, Note_on_c, 1, 53, 0
3, 19065, Note_on_c, 1, 50, 0
3, 19080, Note_on_c, 1, 50, 86
3, 19080, Note_on_c, 1, 53, 86
3, 19148, Control_c, 1, 64, 0
3, 19185, Note_on_c, 1, 53, 0
3, 19185, Note_on_c, 1, 50, 0
3, 19185, Note_on_c, 1, 44, 0
3, 19200, Note_on_c, 1, 43, 86
3, 19200, Control_c, 1, 11, 88
3, 19227, Control_c, 1, 11, 89
3, 19255, Control_c, 1, 11, 90
3, 19282, Control_c, 1, 11, 91
3, 19305, Note_on_c, 1, 43, 0
3, 19310, Control_c, 1, 11, 92
3, 19320, Note_on_c, 1, 51, 86
3, 19320, Note_on_c, 1, 55, 86
3, 19320, Note_on_c, 1, 60, 86
3, 19338, Control_c, 1, 11, 93
3, 19366, Control_c, 1, 11, 94
3, 19393, Control_c, 1, 11, 95
3, 19421, Control_c, 1, 11, 96
3, 19425, Note_on_c, 1, 60, 0
3, 19425, Note_on_c, 1, 55, 0
3, 19425, Note_on_c, 1, 51, 0
3, 19440, Note_on_c, 1, 51, 86
3, 19440, Note_on_c, 1, 55, 86
3, 19440, Note_on_c, 1, 60, 86
3, 19449, Control_c, 1, 11, 97
3, 19476, Control_c, 1, 11, 98
3, 19504, Control_c, 1, 11, 99
3, 19508, Control_c, 1, 64, 0
3, 19532, Control_c, 1, 11, 100
3, 19545, Note_on_c, 1, 60, 0
3, 19545, Note_on_c, 1, 55, 0
3, 19545, Note_on_c, 1, 51, 0
3, 19560, Note_on_c, 1, 43, 86
3, 19665, Note_on_c, 1, 43, 0
3, 19680, Note_on_c, 1, 55, 86
3, 19680, Note_on_c, 1, 59, 86
3, 19680, Note_on_c, 1, 67, 86
3, 19785, Note_on_c, 1, 67, 0
3, 19785, Note_on_c, 1, 59, 0
3, 19785, Note_on_c, 1, 55, 0
3, 19800, Note_on_c, 1, 55, 86
3, 19800, Note_on_c, 1, 59, 86
3, 19800, Note_on_c, 1, 67, 86
3, 19868, Control_c, 1, 64, 0
3, 19905, Note_on_c, 1, 67, 0
3, 19905, Note_on_c, 1, 59, 0
3, 19905, Note_on_c, 1, 55, 0
3, 19920, Note_on_c, 1, 48, 86
3, 20025, Note_on_c, 1, 48, 0
3, 20040, Note_on_c, 1, 55, 86
3, 20040, Note_on_c, 1, 60, 86
3, 20040, Note_on_c, 1, 67, 86
3, 20145, Note_on_c, 1, 67, 0
3, 20145, Note_on_c, 1, 60, 0
3, 20145, Note_on_c, 1, 55, 0
3, 20160, Note_on_c, 1, 55, 86
3, 20160, Note_on_c, 1, 60, 86
3, 20160, Note_on_c, 1, 67, 86
3, 20228, Control_c, 1, 64, 0
3, 20265, Note_on_c, 1, 67, 0
3, 20265, Note_on_c, 1, 60, 0
3, 20265, Note_on_c, 1, 55, 0
3, 20280, Note_on_c, 1, 48, 86
3, 20280, Control_c, 1, 11, 62
3, 20385, Note_on_c, 1, 48, 0
3, 20400, Note_on_c, 1, 55, 86
3, 20400, Note_on_c, 1, 60, 86
3, 20400, Note_on_c, 1, 67, 86
3, 20505, Note_on_c, 1, 67, 0
3, 20505, Note_on_c, 1, 60, 0
3, 20505, Note_on_c, 1, 55, 0
3, 20520, Note_on_c, 1, 55, 86
3, 20520, Note_on_c, 1, 60, 86
3, 20520, Note_on_c, 1, 67, 86
3, 20588, Control_c, 1, 64, 0
3, 20625, Note_on_c, 1, 67, 0
3, 20625, Note_on_c, 1, 60, 0
3, 20625, Note_on_c, 1, 55, 0
3, 20640, Note_on_c, 1, 49, 86
3, 20640, Control_c, 1, 11, 75
3, 20760, Note_on_c, 1, 56, 86
3, 20760, Note_on_c, 1, 58, 86
3, 20865, Note_on_c, 1, 58, 0
3, 20865, Note_on_c, 1, 56, 0
3, 20880, Note_on_c, 1, 56, 86
3, 20880, Note_on_c, 1, 58, 86
3, 20948, Control_c, 1, 64, 0
3, 20985, Note_on_c, 1, 58, 0
3, 20985, Note_on_c, 1, 56, 0
3, 20985, Note_on_c, 1, 49, 0
3, 21000, Note_on_c, 1, 46, 86
3, 21000, Control_c, 1, 11, 75
3, 21027, Control_c, 1, 11, 76
3, 21055, Control_c, 1, 11, 77
3, 21082, Control_c, 1, 11, 78
3, 21110, Control_c, 1, 11, 79
3, 21120, Note_on_c, 1, 53, 86
3, 21120, Note_on_c, 1, 56, 86
3, 21120, Note_on_c, 1, 61, 86
3, 21138, Control_c, 1, 11, 80
3, 21166, Control_c, 1, 11, 81
3, 21193, Control_c, 1, 11, 82
3, 21221, Control_c, 1, 11, 83
3, 21225, Note_on_c, 1, 61, 0
3, 21225, Note_on_c, 1, 46, 0
3, 21225, Note_on_c, 1, 53, 0
3, 21225, Note_on_c, 1, 56, 0
3, 21240, Note_on_c, 1, 55, 86
3, 21240, Note_on_c, 1, 61, 86
3, 21240, Note_on_c, 1, 51, 86
3, 21249, Control_c, 1, 11, 84
3, 21276, Control_c, 1, 11, 85
3, 21304, Control_c, 1, 11, 86
3, 21308, Control_c, 1, 64, 0
3, 21332, Control_c, 1, 11, 87
3, 21345, Note_on_c, 1, 51, 0
3, 21345, Note_on_c, 1, 61, 0
3, 21345, Note_on_c, 1, 55, 0
3, 21360, Note_on_c, 1, 51, 86
3, 21480, Note_on_c, 1, 56, 86
3, 21480, Note_on_c, 1, 60, 86
3, 21585, Note_on_c, 1, 60, 0
3, 21585, Note_on_c, 1, 56, 0
3, 21600, Note_on_c, 1, 56, 86
3, 21600, Note_on_c, 1, 60, 86
3, 21668, Control_c, 1, 64, 0
3, 21705, Note_on_c, 1, 60, 0
3, 21705, Note_on_c, 1, 56, 0
3, 21705, Note_on_c, 1, 51, 0
3, 21720, Note_on_c, 1, 39, 86
3, 21840, Note_on_c, 1, 51, 86
3, 21840, Note_on_c, 1, 56, 86
3, 21945, Note_on_c, 1, 56, 0
3, 21945, Note_on_c, 1, 51, 0
3, 21960, Note_on_c, 1, 51, 86
3, 21960, Note_on_c, 1, 56, 86
3, 22028, Control_c, 1, 64, 0
3, 22065, Note_on_c, 1, 56, 0
3, 22065, Note_on_c, 1, 51, 0
3, 22065, Note_on_c, 1, 39, 0
3, 22080, Note_on_c, 1, 39, 86
3, 22080, Control_c, 1, 11, 88
3, 22093, Control_c, 1, 11, 89
3, 22107, Control_c, 1, 11, 90
3, 22121, Control_c, 1, 11, 91
3, 22135, Control_c, 1, 11, 92
3, 22149, Control_c, 1, 11, 93
3, 22162, Control_c, 1, 11, 94
3, 22176, Control_c, 1, 11, 95
3, 22185, Note_on_c, 1, 39, 0
3, 22190, Control_c, 1, 11, 96
3, 22200, Note_on_c, 1, 51, 86
3, 22200, Note_on_c, 1, 55, 86
3, 22200, Note_on_c, 1, 61, 86
3, 22204, Control_c, 1, 11, 97
3, 22218, Control_c, 1, 11, 98
3, 22232, Control_c, 1, 11, 99
3, 22246, Control_c, 1, 11, 100
3, 22260, Control_c, 1, 11, 101
3, 22273, Control_c, 1, 11, 102
3, 22287, Control_c, 1, 11, 103
3, 22301, Control_c, 1, 11, 104
3, 22305, Note_on_c, 1, 61, 0
3, 22305, Note_on_c, 1, 55, 0
3, 22305, Note_on_c, 1, 51, 0
3, 22315, Control_c, 1, 11, 105
3, 22320, Note_on_c, 1, 55, 86
3, 22320, Note_on_c, 1, 58, 86
3, 22320, Note_on_c, 1, 63, 86
3, 22329, Control_c, 1, 11, 106
3, 22342, Control_c, 1, 11, 107
3, 22356, Control_c, 1, 11, 108
3, 22370, Control_c, 1, 11, 109
3, 22384, Control_c, 1, 11, 110
3, 22388, Control_c, 1, 64, 0
3, 22398, Control_c, 1, 11, 111
3, 22412, Control_c, 1, 11, 112
3, 22425, Note_on_c, 1, 63, 0
3, 22425, Note_on_c, 1, 58, 0
3, 22425, Note_on_c, 1, 55, 0
3, 22426, Control_c, 1, 11, 113
3, 22440, Note_on_c, 1, 51, 86
3, 22545, Note_on_c, 1, 51, 0
3, 22560, Note_on_c, 1, 61, 86
3, 22560, Note_on_c, 1, 63, 86
3, 22560, Note_on_c, 1, 67, 86
3, 22665, Note_on_c, 1, 67, 0
3, 22665, Note_on_c, 1, 63, 0
3, 22665, Note_on_c, 1, 61, 0
3, 22680, Note_on_c, 1, 61, 86
3, 22680, Note_on_c, 1, 63, 86
3, 22680, Note_on_c, 1, 67, 86
3, 22748, Control_c, 1, 64, 0
3, 22785, Note_on_c, 1, 67, 0
3, 22785, Note_on_c, 1, 63, 0
3, 22785, Note_on_c, 1, 61, 0
3, 22800, Note_on_c, 1, 44, 86
3, 22905, Note_on_c, 1, 44, 0
3, 22920, Note_on_c, 1, 63, 86
3, 22920, Note_on_c, 1, 68, 86
3, 23025, Note_on_c, 1, 68, 0
3, 23025, Note_on_c, 1, 63, 0
3, 23040, Note_on_c, 1, 63, 86
3, 23040, Note_on_c, 1, 68, 86
3, 23108, Control_c, 1, 64, 0
3, 23145, Note_on_c, 1, 68, 0
3, 23145, Note_on_c, 1, 63, 0
3, 23160, Note_on_c, 1, 44, 86
3, 23265, Note_on_c, 1, 44, 0
3, 23280, Note_on_c, 1, 51, 86
3, 23280, Note_on_c, 1, 56, 86
3, 23280, Note_on_c, 1, 60, 86
3, 23385, Note_on_c, 1, 60, 0
3, 23385, Note_on_c, 1, 56, 0
3, 23385, Note_on_c, 1, 51, 0
3, 23393, Control_c, 1, 11, 75
3, 23400, Note_on_c, 1, 51, 86
3, 23400, Note_on_c, 1, 56, 86
3, 23400, Note_on_c, 1, 60, 86
3, 23468, Control_c, 1, 64, 0
3, 23505, Note_on_c, 1, 60, 0
3, 23505, Note_on_c, 1, 56, 0
3, 23505, Note_on_c, 1, 51, 0
3, 23520, Note_on_c, 1, 49, 86
3, 23640, Note_on_c, 1, 53, 86
3, 23640, Note_on_c, 1, 58, 86
3, 23640, Note_on_c, 1, 61, 86
3, 23745, Note_on_c, 1, 61, 0
3, 23745, Note_on_c, 1, 58, 0
3, 23745, Note_on_c, 1, 53, 0
3, 23760, Note_on_c, 1, 53, 86
3, 23760, Note_on_c, 1, 58, 86
3, 23760, Note_on_c, 1, 61, 86
3, 23828, Control_c, 1, 64, 0
3, 23865, Note_on_c, 1, 61, 0
3, 23865, Note_on_c, 1, 49, 0
3, 23865, Note_on_c, 1, 53, 0
3, 23865, Note_on_c, 1, 58, 0
3, 23880, Note_on_c, 1, 46, 86
3, 24000, Note_on_c, 1, 53, 86
3, 24000, Note_on_c, 1, 56, 86
3, 24000, Note_on_c, 1, 61, 86
3, 24105, Note_on_c, 1, 61, 0
3, 24105, Note_on_c, 1, 46, 0
3, 24105, Note_on_c, 1, 53, 0
3, 24105, Note_on_c, 1, 56, 0
3, 24120, Note_on_c, 1, 55, 86
3, 24120, Note_on_c, 1, 61, 86
3, 24120, Note_on_c, 1, 51, 86
3, 24188, Control_c, 1, 64, 0
3, 24225, Note_on_c, 1, 51, 0
3, 24225, Note_on_c, 1, 61, 0
3, 24225, Note_on_c, 1, 55, 0
3, 24240, Note_on_c, 1, 44, 86
3, 24360, Note_on_c, 1, 51, 86
3, 24360, Note_on_c, 1, 56, 86
3, 24360, Note_on_c, 1, 60, 86
3, 24465, Note_on_c, 1, 60, 0
3, 24465, Note_on_c, 1, 56, 0
3, 24465, Note_on_c, 1, 51, 0
3, 24480, Note_on_c, 1, 51, 86
3, 24480, Note_on_c, 1, 56, 86
3, 24480, Note_on_c, 1, 60, 86
3, 24548, Control_c, 1, 64, 0
3, 24585, Note_on_c, 1, 60, 0
3, 24585, Note_on_c, 1, 44, 0
3, 24585, Note_on_c, 1, 51, 0
3, 24585, Note_on_c, 1, 56, 0
3, 24600, Note_on_c, 1, 39, 86
3, 24720, Note_on_c, 1, 51, 86
3, 24720, Note_on_c, 1, 56, 86
3, 24825, Note_on_c, 1, 56, 0
3, 24825, Note_on_c, 1, 51, 0
3, 24840, Note_on_c, 1, 51, 86
3, 24840, Note_on_c, 1, 56, 86
3, 24908, Control_c, 1, 64, 0
3, 24945, Note_on_c, 1, 56, 0
3, 24945, Note_on_c, 1, 51, 0
3, 24945, Note_on_c, 1, 39, 0
3, 24960, Note_on_c, 1, 51, 86
3, 24960, Control_c, 1, 11, 75
3, 24996, Control_c, 1, 11, 76
3, 25033, Control_c, 1, 11, 77
3, 25070, Control_c, 1, 11, 78
3, 25080, Note_on_c, 1, 56, 86
3, 25080, Note_on_c, 1, 58, 86
3, 25107, Control_c, 1, 11, 79
3, 25144, Control_c, 1, 11, 80
3, 25181, Control_c, 1, 11, 81
3, 25185, Note_on_c, 1, 58, 0
3, 25185, Note_on_c, 1, 56, 0
3, 25200, Note_on_c, 1, 56, 86
3, 25200, Note_on_c, 1, 58, 86
3, 25218, Control_c, 1, 11, 82
3, 25255, Control_c, 1, 11, 83
3, 25268, Control_c, 1, 64, 0
3, 25292, Control_c, 1, 11, 84
3, 25305, Note_on_c, 1, 58, 0
3, 25305, Note_on_c, 1, 56, 0
3, 25305, Note_on_c, 1, 51, 0
3, 25320, Note_on_c, 1, 51, 86
3, 25329, Control_c, 1, 11, 85
3, 25366, Control_c, 1, 11, 86
3, 25402, Control_c, 1, 11, 87
3, 25440, Note_on_c, 1, 56, 86
3, 25440, Note_on_c, 1, 58, 86
3, 25440, Note_on_c, 1, 62, 86
3, 25440, Control_c, 1, 11, 88
3, 25476, Control_c, 1, 11, 89
3, 25513, Control_c, 1, 11, 90
3, 25545, Note_on_c, 1, 62, 0
3, 25545, Note_on_c, 1, 58, 0
3, 25545, Note_on_c, 1, 56, 0
3, 25550, Control_c, 1, 11, 91
3, 25560, Note_on_c, 1, 56, 86
3, 25560, Note_on_c, 1, 58, 86
3, 25560, Note_on_c, 1, 62, 86
3, 25587, Control_c, 1, 11, 92
3, 25624, Control_c, 1, 11, 93
3, 25628, Control_c, 1, 64, 0
3, 25661, Control_c, 1, 11, 94
3, 25665, Note_on_c, 1, 62, 0
3, 25665, Note_on_c, 1, 51, 0
3, 25665, Note_on_c, 1, 56, 0
3, 25665, Note_on_c, 1, 58, 0
3, 25680, Note_on_c, 1, 51, 86
3, 25698, Control_c, 1, 11, 95
3, 25735, Control_c, 1, 11, 96
3, 25772, Control_c, 1, 11, 97
3, 25800, Note_on_c, 1, 61, 86
3, 25800, Note_on_c, 1, 63, 86
3, 25809, Control_c, 1, 11, 98
3, 25846, Control_c, 1, 11, 99
3, 25882, Control_c, 1, 11, 100
3, 25905, Note_on_c, 1, 63, 0
3, 25905, Note_on_c, 1, 61, 0
3, 25920, Note_on_c, 1, 61, 86
3, 25920, Note_on_c, 1, 63, 86
3, 25920, Control_c, 1, 11, 101
3, 25956, Control_c, 1, 11, 102
3, 25988, Control_c, 1, 64, 0
3, 25993, Control_c, 1, 11, 103
3, 26025, Note_on_c, 1, 63, 0
3, 26025, Note_on_c, 1, 61, 0
3, 26025, Note_on_c, 1, 51, 0
3, 26030, Control_c, 1, 11, 104
3, 26040, Note_on_c, 1, 44, 86
3, 26067, Control_c, 1, 11, 105
3, 26104, Control_c, 1, 11, 106
3, 26141, Control_c, 1, 11, 107
3, 26160, Note_on_c, 1, 51, 86
3, 26160, Note_on_c, 1, 56, 86
3, 26160, Note_on_c, 1, 60, 86
3, 26178, Control_c, 1, 11, 108
3, 26215, Control_c, 1, 11, 109
3, 26252, Control_c, 1, 11, 110
3, 26265, Note_on_c, 1, 60, 0
3, 26265, Note_on_c, 1, 44, 0
3, 26265, Note_on_c, 1, 51, 0
3, 26265, Note_on_c, 1, 56, 0
3, 26280, Note_on_c, 1, 52, 86
3, 26280, Note_on_c, 1, 56, 86
3, 26280, Note_on_c, 1, 60, 86
3, 26289, Control_c, 1, 11, 111
3, 26326, Control_c, 1, 11, 112
3, 26348, Control_c, 1, 64, 0
3, 26362, Control_c, 1, 11, 113
3, 26385, Note_on_c, 1, 52, 0
3, 26400, Note_on_c, 1, 53, 86
3, 26400, Control_c, 1, 11, 114
3, 26413, Control_c, 1, 11, 113
3, 26427, Control_c, 1, 11, 112
3, 26441, Control_c, 1, 11, 111
3, 26455, Control_c, 1, 11, 110
3, 26469, Control_c, 1, 11, 109
3, 26482, Control_c, 1, 11, 108
3, 26496, Control_c, 1, 11, 107
3, 26505, Note_on_c, 1, 60, 0
3, 26505, Note_on_c, 1, 56, 0
3, 26510, Control_c, 1, 11, 106
3, 26520, Note_on_c, 1, 56, 86
3, 26520, Note_on_c, 1, 60, 86
3, 26524, Control_c, 1, 11, 105
3, 26538, Control_c, 1, 11, 104
3, 26552, Control_c, 1, 11, 103
3, 26566, Control_c, 1, 11, 102
3, 26580, Control_c, 1, 11, 101
3, 26593, Control_c, 1, 11, 100
3, 26607, Control_c, 1, 11, 99
3, 26621, Control_c, 1, 11, 98
3, 26625, Note_on_c, 1, 60, 0
3, 26625, Note_on_c, 1, 56, 0
3, 26635, Control_c, 1, 11, 97
3, 26640, Note_on_c, 1, 56, 86
3, 26640, Note_on_c, 1, 60, 86
3, 26649, Control_c, 1, 11, 96
3, 26662, Control_c, 1, 11, 95
3, 26676, Control_c, 1, 11, 94
3, 26690, Control_c, 1, 11, 93
3, 26704, Control_c, 1, 11, 92
3, 26708, Control_c, 1, 64, 0
3, 26718, Control_c, 1, 11, 91
3, 26732, Control_c, 1, 11, 90
3, 26745, Note_on_c, 1, 60, 0
3, 26745, Note_on_c, 1, 56, 0
3, 26745, Note_on_c, 1, 53, 0
3, 26746, Control_c, 1, 11, 89
3, 26760, Note_on_c, 1, 51, 86
3, 26880, Note_on_c, 1, 53, 86
3, 26880, Note_on_c, 1, 56, 86
3, 26880, Note_on_c, 1, 60, 86
3, 26985, Note_on_c, 1, 60, 0
3, 26985, Note_on_c, 1, 56, 0
3, 26985, Note_on_c, 1, 53, 0
3, 27000, Note_on_c, 1, 53, 86
3, 27000, Note_on_c, 1, 56, 86
3, 27000, Note_on_c, 1, 60, 86
3, 27068, Control_c, 1, 64, 0
3, 27105, Note_on_c, 1, 60, 0
3, 27105, Note_on_c, 1, 51, 0
3, 27105, Note_on_c, 1, 53, 0
3, 27105, Note_on_c, 1, 56, 0
3, 27120, Note_on_c, 1, 49, 86
3, 27120, Control_c, 1, 11, 88
3, 27147, Control_c, 1, 11, 89
3, 27175, Control_c, 1, 11, 90
3, 27202, Control_c, 1, 11, 91
3, 27230, Control_c, 1, 11, 92
3, 27240, Note_on_c, 1, 53, 86
3, 27240, Note_on_c, 1, 58, 86
3, 27258, Control_c, 1, 11, 93
3, 27286, Control_c, 1, 11, 94
3, 27313, Control_c, 1, 11, 95
3, 27341, Control_c, 1, 11, 96
3, 27345, Note_on_c, 1, 49, 0
3, 27360, Note_on_c, 1, 46, 86
3, 27369, Control_c, 1, 11, 97
3, 27396, Control_c, 1, 11, 98
3, 27424, Control_c, 1, 11, 99
3, 27428, Control_c, 1, 64, 0
3, 27452, Control_c, 1, 11, 100
3, 27465, Note_on_c, 1, 46, 0
3, 27465, Note_on_c, 1, 58, 0
3, 27465, Note_on_c, 1, 53, 0
3, 27480, Note_on_c, 1, 41, 86
3, 27585, Note_on_c, 1, 41, 0
3, 27600, Note_on_c, 1, 60, 86
3, 27600, Note_on_c, 1, 68, 86
3, 27705, Note_on_c, 1, 68, 0
3, 27705, Note_on_c, 1, 60, 0
3, 27720, Note_on_c, 1, 60, 86
3, 27720, Note_on_c, 1, 68, 86
3, 27788, Control_c, 1, 64, 0
3, 27825, Note_on_c, 1, 68, 0
3, 27825, Note_on_c, 1, 60, 0
3, 27840, Note_on_c, 1, 52, 86
3, 27840, Control_c, 1, 11, 101
3, 27895, Control_c, 1, 11, 102
3, 27950, Control_c, 1, 11, 103
3, 27960, Note_on_c, 1, 58, 86
3, 27960, Note_on_c, 1, 60, 86
3, 27960, Note_on_c, 1, 67, 86
3, 28006, Control_c, 1, 11, 104
3, 28061, Control_c, 1, 11, 105
3, 28065, Note_on_c, 1, 67, 0
3, 28065, Note_on_c, 1, 60, 0
3, 28065, Note_on_c, 1, 58, 0
3, 28080, Note_on_c, 1, 58, 86
3, 28080, Note_on_c, 1, 60, 86
3, 28080, Note_on_c, 1, 67, 86
3, 28116, Control_c, 1, 11, 106
3, 28148, Control_c, 1, 64, 0
3, 28172, Control_c, 1, 11, 107
3, 28185, Note_on_c, 1, 67, 0
3, 28185, Note_on_c, 1, 52, 0
3, 28185, Note_on_c, 1, 58, 0
3, 28185, Note_on_c, 1, 60, 0
3, 28200, Note_on_c, 1, 53, 86
3, 28227, Control_c, 1, 11, 108
3, 28282, Control_c, 1, 11, 109
3, 28320, Note_on_c, 1, 56, 86
3, 28320, Note_on_c, 1, 60, 86
3, 28320, Note_on_c, 1, 65, 86
3, 28338, Control_c, 1, 11, 110
3, 28393, Control_c, 1, 11, 111
3, 28425, Note_on_c, 1, 65, 0
3, 28425, Note_on_c, 1, 53, 0
3, 28425, Note_on_c, 1, 56, 0
3, 28425, Note_on_c, 1, 60, 0
3, 28440, Note_on_c, 1, 44, 86
3, 28449, Control_c, 1, 11, 112
3, 28504, Control_c, 1, 11, 113
3, 28508, Control_c, 1, 64, 0
3, 28545, Note_on_c, 1, 44, 0
3, 28560, Note_on_c, 1, 46, 86
3, 28560, Control_c, 1, 11, 114
3, 28587, Control_c, 1, 11, 113
3, 28615, Control_c, 1, 11, 112
3, 28642, Control_c, 1, 11, 111
3, 28670, Control_c, 1, 11, 110
3, 28680, Note_on_c, 1, 53, 86
3, 28680, Note_on_c, 1, 55, 86
3, 28680, Note_on_c, 1, 61, 86
3, 28698, Control_c, 1, 11, 109
3, 28726, Control_c, 1, 11, 108
3, 28753, Control_c, 1, 11, 107
3, 28781, Control_c, 1, 11, 106
3, 28785, Note_on_c, 1, 61, 0
3, 28785, Note_on_c, 1, 46, 0
3, 28785, Note_on_c, 1, 53, 0
3, 28785, Note_on_c, 1, 55, 0
3, 28800, Note_on_c, 1, 34, 86
3, 28809, Control_c, 1, 11, 105
3, 28836, Control_c, 1, 11, 104
3, 28864, Control_c, 1, 11, 103
3, 28868, Control_c, 1, 64, 0
3, 28892, Control_c, 1, 11, 102
3, 28905, Note_on_c, 1, 34, 0
3, 28920, Note_on_c, 1, 36, 86
3, 28920, Control_c, 1, 11, 101
3, 28947, Control_c, 1, 11, 102
3, 28975, Control_c, 1, 11, 103
3, 29002, Control_c, 1, 11, 104
3, 29025, Note_on_c, 1, 36, 0
3, 29030, Control_c, 1, 11, 105
3, 29040, Note_on_c, 1, 48, 86
3, 29040, Note_on_c, 1, 55, 86
3, 29040, Note_on_c, 1, 64, 86
3, 29058, Control_c, 1, 11, 106
3, 29086, Control_c, 1, 11, 107
3, 29113, Control_c, 1, 11, 108
3, 29141, Control_c, 1, 11, 109
3, 29145, Note_on_c, 1, 64, 0
3, 29145, Note_on_c, 1, 55, 0
3, 29145, Note_on_c, 1, 48, 0
3, 29169, Control_c, 1, 11, 110
3, 29196, Control_c, 1, 11, 111
3, 29224, Control_c, 1, 11, 112
3, 29228, Control_c, 1, 64, 0
3, 29252, Control_c, 1, 11, 113
3, 29280, Note_on_c, 1, 56, 86
3, 29280, Control_c, 1, 11, 114
3, 29307, Control_c, 1, 11, 113
3, 29335, Control_c, 1, 11, 112
3, 29362, Control_c, 1, 11, 111
3, 29390, Control_c, 1, 11, 110
3, 29400, Note_on_c, 1, 60, 86
3, 29400, Note_on_c, 1, 63, 86
3, 29418, Control_c, 1, 11, 109
3, 29446, Control_c, 1, 11, 108
3, 29473, Control_c, 1, 11, 107
3, 29501, Control_c, 1, 11, 106
3, 29505, Note_on_c, 1, 63, 0
3, 29505, Note_on_c, 1, 60, 0
3, 29520, Note_on_c, 1, 60, 86
3, 29520, Note_on_c, 1, 63, 86
3, 29529, Control_c, 1, 11, 105
3, 29556, Control_c, 1, 11, 104
3, 29584, Control_c, 1, 11, 103
3, 29588, Control_c, 1, 64, 0
3, 29612, Control_c, 1, 11, 102
3, 29625, Note_on_c, 1, 63, 0
3, 29625, Note_on_c, 1, 60, 0
3, 29625, Note_on_c, 1, 56, 0
3, 29640, Note_on_c, 1, 55, 86
3, 29760, Note_on_c, 1, 56, 86
3, 29760, Note_on_c, 1, 60, 86
3, 29760, Note_on_c, 1, 63, 86
3, 29865, Note_on_c, 1, 63, 0
3, 29865, Note_on_c, 1, 60, 0
3, 29865, Note_on_c, 1, 56, 0
3, 29880, Note_on_c, 1, 56, 86
3, 29880, Note_on_c, 1, 60, 86
3, 29880, Note_on_c, 1, 63, 86
3, 29948, Control_c, 1, 64, 0
3, 29985, Note_on_c, 1, 63, 0
3, 29985, Note_on_c, 1, 55, 0
3, 29985, Note_on_c, 1, 56, 0
3, 29985, Note_on_c, 1, 60, 0
3, 30000, Note_on_c, 1, 53, 86
3, 30120, Note_on_c, 1, 56, 86
3, 30120, Note_on_c, 1, 60, 86
3, 30120, Note_on_c, 1, 63, 86
3, 30225, Note_on_c, 1, 63, 0
3, 30225, Note_on_c, 1, 60, 0
3, 30225, Note_on_c, 1, 56, 0
3, 30240, Note_on_c, 1, 56, 86
3, 30240, Note_on_c, 1, 60, 86
3, 30240, Note_on_c, 1, 63, 86
3, 30308, Control_c, 1, 64, 0
3, 30345, Note_on_c, 1, 63, 0
3, 30345, Note_on_c, 1, 53, 0
3, 30345, Note_on_c, 1, 56, 0
3, 30345, Note_on_c, 1, 60, 0
3, 30360, Note_on_c, 1, 46, 86
3, 30465, Note_on_c, 1, 46, 0
3, 30480, Note_on_c, 1, 56, 86
3, 30480, Note_on_c, 1, 58, 86
3, 30480, Note_on_c, 1, 65, 86
3, 30585, Note_on_c, 1, 65, 0
3, 30585, Note_on_c, 1, 58, 0
3, 30585, Note_on_c, 1, 56, 0
3, 30600, Note_on_c, 1, 56, 86
3, 30600, Note_on_c, 1, 58, 86
3, 30600, Note_on_c, 1, 65, 86
3, 30668, Control_c, 1, 64, 0
3, 30705, Note_on_c, 1, 65, 0
3, 30705, Note_on_c, 1, 58, 0
3, 30705, Note_on_c, 1, 56, 0
3, 30720, Note_on_c, 1, 46, 86
3, 30720, Control_c, 1, 11, 101
3, 30825, Note_on_c, 1, 46, 0
3, 30840, Note_on_c, 1, 56, 86
3, 30840, Note_on_c, 1, 58, 86
3, 30840, Note_on_c, 1, 62, 86
3, 30945, Note_on_c, 1, 62, 0
3, 30945, Note_on_c, 1, 58, 0
3, 30945, Note_on_c, 1, 56, 0
3, 30960, Note_on_c, 1, 56, 86
3, 30960, Note_on_c, 1, 58, 86
3, 30960, Note_on_c, 1, 62, 86
3, 31028, Control_c, 1, 64, 0
3, 31065, Note_on_c, 1, 62, 0
3, 31065, Note_on_c, 1, 58, 0
3, 31065, Note_on_c, 1, 56, 0
3, 31080, Note_on_c, 1, 46, 86
3, 31080, Control_c, 1, 11, 101
3, 31107, Control_c, 1, 11, 100
3, 31135, Control_c, 1, 11, 99
3, 31162, Control_c, 1, 11, 98
3, 31185, Note_on_c, 1, 46, 0
3, 31190, Control_c, 1, 11, 97
3, 31200, Note_on_c, 1, 55, 86
3, 31200, Note_on_c, 1, 58, 86
3, 31200, Note_on_c, 1, 63, 86
3, 31218, Control_c, 1, 11, 96
3, 31246, Control_c, 1, 11, 95
3, 31273, Control_c, 1, 11, 94
3, 31301, Control_c, 1, 11, 93
3, 31305, Note_on_c, 1, 63, 0
3, 31305, Note_on_c, 1, 58, 0
3, 31305, Note_on_c, 1, 55, 0
3, 31320, Note_on_c, 1, 55, 86
3, 31320, Note_on_c, 1, 58, 86
3, 31320, Note_on_c, 1, 63, 86
3, 31329, Control_c, 1, 11, 92
3, 31356, Control_c, 1, 11, 91
3, 31384, Control_c, 1, 11, 90
3, 31388, Control_c, 1, 64, 0
3, 31412, Control_c, 1, 11, 89
3, 31425, Note_on_c, 1, 63, 0
3, 31425, Note_on_c, 1, 58, 0
3, 31425, Note_on_c, 1, 55, 0
3, 31440, Note_on_c, 1, 46, 86
3, 31545, Note_on_c, 1, 46, 0
3, 31560, Note_on_c, 1, 56, 86
3, 31560, Note_on_c, 1, 58, 86
3, 31560, Note_on_c, 1, 65, 86
3, 31665, Note_on_c, 1, 65, 0
3, 31665, Note_on_c, 1, 58, 0
3, 31665, Note_on_c, 1, 56, 0
3, 31680, Note_on_c, 1, 56, 86
3, 31680, Note_on_c, 1, 58, 86
3, 31680, Note_on_c, 1, 65, 86
3, 31748, Control_c, 1, 64, 0
3, 31785, Note_on_c, 1, 65, 0
3, 31785, Note_on_c, 1, 58, 0
3, 31785, Note_on_c, 1, 56, 0
3, 31800, Note_on_c, 1, 46, 86
3, 31905, Note_on_c, 1, 46, 0
3, 31920, Note_on_c, 1, 55, 86
3, 31920, Note_on_c, 1, 58, 86
3, 31920, Note_on_c, 1, 63, 86
3, 32025, Note_on_c, 1, 63, 0
3, 32025, Note_on_c, 1, 58, 0
3, 32025, Note_on_c, 1, 55, 0
3, 32040, Note_on_c, 1, 55, 86
3, 32040, Note_on_c, 1, 58, 86
3, 32040, Note_on_c, 1, 63, 86
3, 32108, Control_c, 1, 64, 0
3, 32145, Note_on_c, 1, 63, 0
3, 32145, Note_on_c, 1, 58, 0
3, 32145, Note_on_c, 1, 55, 0
3, 32160, Note_on_c, 1, 46, 86
3, 32160, Control_c, 1, 11, 88
3, 32242, Control_c, 1, 11, 87
3, 32265, Note_on_c, 1, 46, 0
3, 32280, Note_on_c, 1, 56, 86
3, 32280, Note_on_c, 1, 58, 86
3, 32280, Note_on_c, 1, 62, 86
3, 32326, Control_c, 1, 11, 86
3, 32385, Note_on_c, 1, 62, 0
3, 32385, Note_on_c, 1, 58, 0
3, 32385, Note_on_c, 1, 56, 0
3, 32400, Note_on_c, 1, 56, 86
3, 32400, Note_on_c, 1, 58, 86
3, 32400, Note_on_c, 1, 62, 86
3, 32409, Control_c, 1, 11, 85
3, 32468, Control_c, 1, 64, 0
3, 32492, Control_c, 1, 11, 84
3, 32505, Note_on_c, 1, 62, 0
3, 32505, Note_on_c, 1, 58, 0
3, 32505, Note_on_c, 1, 56, 0
3, 32520, Note_on_c, 1, 51, 86
3, 32575, Control_c, 1, 11, 83
3, 32625, Note_on_c, 1, 51, 0
3, 32640, Note_on_c, 1, 58, 86
3, 32640, Note_on_c, 1, 63, 86
3, 32640, Note_on_c, 1, 67, 86
3, 32658, Control_c, 1, 11, 82
3, 32741, Control_c, 1, 11, 81
3, 32745, Note_on_c, 1, 67, 0
3, 32745, Note_on_c, 1, 63, 0
3, 32745, Note_on_c, 1, 58, 0
3, 32760, Note_on_c, 1, 57, 86
3, 32760, Note_on_c, 1, 60, 86
3, 32760, Note_on_c, 1, 63, 86
3, 32824, Control_c, 1, 11, 80
3, 32828, Control_c, 1, 64, 0
3, 32865, Note_on_c, 1, 63, 0
3, 32865, Note_on_c, 1, 60, 0
3, 32865, Note_on_c, 1, 57, 0
3, 32880, Note_on_c, 1, 46, 86
3, 32907, Control_c, 1, 11, 79
3, 32985, Note_on_c, 1, 46, 0
3, 32990, Control_c, 1, 11, 78
3, 33000, Note_on_c, 1, 58, 86
3, 33000, Note_on_c, 1, 63, 86
3, 33073, Control_c, 1, 11, 77
3, 33105, Note_on_c, 1, 63, 0
3, 33105, Note_on_c, 1, 58, 0
3, 33120, Note_on_c, 1, 56, 86
3, 33120, Note_on_c, 1, 62, 86
3, 33156, Control_c, 1, 11, 76
3, 33188, Control_c, 1, 64, 0
3, 33225, Note_on_c, 1, 62, 0
3, 33225, Note_on_c, 1, 56, 0
3, 33240, Note_on_c, 1, 51, 86
3, 33360, Note_on_c, 1, 55, 86
3, 33360, Note_on_c, 1, 58, 86
3, 33465, Note_on_c, 1, 58, 0
3, 33465, Note_on_c, 1, 55, 0
3, 33465, Note_on_c, 1, 51, 0
3, 33600, Note_on_c, 1, 49, 86
3, 33720, Note_on_c, 1, 53, 86
3, 33720, Note_on_c, 1, 58, 86
3, 33720, Note_on_c, 1, 61, 86
3, 33825, Note_on_c, 1, 61, 0
3, 33825, Note_on_c, 1, 58, 0
3, 33825, Note_on_c, 1, 53, 0
3, 33840, Note_on_c, 1, 53, 86
3, 33840, Note_on_c, 1, 58, 86
3, 33840, Note_on_c, 1, 61, 86
3, 33908, Control_c, 1, 64, 0
3, 33945, Note_on_c, 1, 61, 0
3, 33945, Note_on_c, 1, 49, 0
3, 33945, Note_on_c, 1, 53, 0
3, 33945, Note_on_c, 1, 58, 0
3, 33960, Note_on_c, 1, 46, 86
3, 34080, Note_on_c, 1, 53, 86
3, 34080, Note_on_c, 1, 56, 86
3, 34080, Note_on_c, 1, 61, 86
3, 34185, Note_on_c, 1, 61, 0
3, 34185, Note_on_c, 1, 46, 0
3, 34185, Note_on_c, 1, 53, 0
3, 34185, Note_on_c, 1, 56, 0
3, 34200, Note_on_c, 1, 55, 86
3, 34200, Note_on_c, 1, 61, 86
3, 34200, Note_on_c, 1, 51, 86
3, 34268, Control_c, 1, 64, 0
3, 34305, Note_on_c, 1, 51, 0
3, 34305, Note_on_c, 1, 61, 0
3, 34305, Note_on_c, 1, 55, 0
3, 34320, Note_on_c, 1, 51, 86
3, 34440, Note_on_c, 1, 56, 86
3, 34440, Note_on_c, 1, 60, 86
3, 34545, Note_on_c, 1, 60, 0
3, 34545, Note_on_c, 1, 56, 0
3, 34560, Note_on_c, 1, 56, 86
3, 34560, Note_on_c, 1, 60, 86
3, 34628, Control_c, 1, 64, 0
3, 34665, Note_on_c, 1, 60, 0
3, 34665, Note_on_c, 1, 56, 0
3, 34665, Note_on_c, 1, 51, 0
3, 34680, Note_on_c, 1, 39, 86
3, 34800, Note_on_c, 1, 51, 86
3, 34800, Note_on_c, 1, 56, 86
3, 34905, Note_on_c, 1, 56, 0
3, 34905, Note_on_c, 1, 51, 0
3, 34920, Note_on_c, 1, 51, 86
3, 34920, Note_on_c, 1, 56, 86
3, 34988, Control_c, 1, 64, 0
3, 35025, Note_on_c, 1, 56, 0
3, 35025, Note_on_c, 1, 51, 0
3, 35025, Note_on_c, 1, 39, 0
3, 35040, Note_on_c, 1, 39, 86
3, 35040, Control_c, 1, 11, 75
3, 35049, Control_c, 1, 11, 76
3, 35058, Control_c, 1, 11, 77
3, 35067, Control_c, 1, 11, 78
3, 35076, Control_c, 1, 11, 79
3, 35086, Control_c, 1, 11, 80
3, 35095, Control_c, 1, 11, 81
3, 35104, Control_c, 1, 11, 82
3, 35113, Control_c, 1, 11, 83
3, 35122, Control_c, 1, 11, 84
3, 35132, Control_c, 1, 11, 85
3, 35141, Control_c, 1, 11, 86
3, 35145, Note_on_c, 1, 39, 0
3, 35150, Control_c, 1, 11, 87
3, 35160, Note_on_c, 1, 51, 86
3, 35160, Note_on_c, 1, 55, 86
3, 35160, Note_on_c, 1, 61, 86
3, 35160, Control_c, 1, 11, 88
3, 35169, Control_c, 1, 11, 89
3, 35178, Control_c, 1, 11, 90
3, 35187, Control_c, 1, 11, 91
3, 35196, Control_c, 1, 11, 92
3, 35206, Control_c, 1, 11, 93
3, 35215, Control_c, 1, 11, 94
3, 35224, Control_c, 1, 11, 95
3, 35233, Control_c, 1, 11, 96
3, 35242, Control_c, 1, 11, 97
3, 35252, Control_c, 1, 11, 98
3, 35261, Control_c, 1, 11, 99
3, 35265, Note_on_c, 1, 61, 0
3, 35265, Note_on_c, 1, 55, 0
3, 35265, Note_on_c, 1, 51, 0
3, 35270, Control_c, 1, 11, 100
3, 35280, Note_on_c, 1, 55, 86
3, 35280, Note_on_c, 1, 58, 86
3, 35280, Note_on_c, 1, 63, 86
3, 35280, Control_c, 1, 11, 101
3, 35289, Control_c, 1, 11, 102
3, 35298, Control_c, 1, 11, 103
3, 35307, Control_c, 1, 11, 104
3, 35316, Control_c, 1, 11, 105
3, 35326, Control_c, 1, 11, 106
3, 35335, Control_c, 1, 11, 107
3, 35344, Control_c, 1, 11, 108
3, 35348, Control_c, 1, 64, 0
3, 35353, Control_c, 1, 11, 109
3, 35362, Control_c, 1, 11, 110
3, 35372, Control_c, 1, 11, 111
3, 35381, Control_c, 1, 11, 112
3, 35385, Note_on_c, 1, 63, 0
3, 35385, Note_on_c, 1, 58, 0
3, 35385, Note_on_c, 1, 55, 0
3, 35390, Control_c, 1, 11, 113
3, 35400, Note_on_c, 1, 51, 86
3, 35505, Note_on_c, 1, 51, 0
3, 35520, Note_on_c, 1, 61, 86
3, 35520, Note_on_c, 1, 63, 86
3, 35520, Note_on_c, 1, 67, 86
3, 35625, Note_on_c, 1, 67, 0
3, 35625, Note_on_c, 1, 63, 0
3, 35625, Note_on_c, 1, 61, 0
3, 35640, Note_on_c, 1, 61, 86
3, 35640, Note_on_c, 1, 63, 86
3, 35640, Note_on_c, 1, 67, 86
3, 35708, Control_c, 1, 64, 0
3, 35745, Note_on_c, 1, 67, 0
3, 35745, Note_on_c, 1, 63, 0
3, 35745, Note_on_c, 1, 61, 0
3, 35760, Note_on_c, 1, 44, 86
3, 35865, Note_on_c, 1, 44, 0
3, 35880, Note_on_c, 1, 63, 86
3, 35880, Note_on_c, 1, 68, 86
3, 35985, Note_on_c, 1, 68, 0
3, 35985, Note_on_c, 1, 63, 0
3, 36000, Note_on_c, 1, 63, 86
3, 36000, Note_on_c, 1, 68, 86
3, 36068, Control_c, 1, 64, 0
3, 36105, Note_on_c, 1, 68, 0
3, 36105, Note_on_c, 1, 63, 0
3, 36120, Note_on_c, 1, 44, 86
3, 36225, Note_on_c, 1, 44, 0
3, 36240, Note_on_c, 1, 51, 86
3, 36240, Note_on_c, 1, 56, 86
3, 36240, Note_on_c, 1, 60, 86
3, 36345, Note_on_c, 1, 60, 0
3, 36345, Note_on_c, 1, 56, 0
3, 36345, Note_on_c, 1, 51, 0
3, 36360, Note_on_c, 1, 51, 86
3, 36360, Note_on_c, 1, 56, 86
3, 36360, Note_on_c, 1, 60, 86
3, 36362, Control_c, 1, 11, 75
3, 36428, Control_c, 1, 64, 0
3, 36465, Note_on_c, 1, 60, 0
3, 36465, Note_on_c, 1, 56, 0
3, 36465, Note_on_c, 1, 51, 0
3, 36480, Note_on_c, 1, 49, 86
3, 36480, Control_c, 1, 11, 75
3, 36507, Control_c, 1, 11, 76
3, 36535, Control_c, 1, 11, 77
3, 36562, Control_c, 1, 11, 78
3, 36590, Control_c, 1, 11, 79
3, 36600, Note_on_c, 1, 53, 86
3, 36600, Note_on_c, 1, 58, 86
3, 36600, Note_on_c, 1, 61, 86
3, 36618, Control_c, 1, 11, 80
3, 36646, Control_c, 1, 11, 81
3, 36673, Control_c, 1, 11, 82
3, 36701, Control_c, 1, 11, 83
3, 36705, Note_on_c, 1, 61, 0
3, 36705, Note_on_c, 1, 58, 0
3, 36705, Note_on_c, 1, 53, 0
3, 36720, Note_on_c, 1, 53, 86
3, 36720, Note_on_c, 1, 58, 86
3, 36720, Note_on_c, 1, 61, 86
3, 36729, Control_c, 1, 11, 84
3, 36756, Control_c, 1, 11, 85
3, 36784, Control_c, 1, 11, 86
3, 36788, Control_c, 1, 64, 0
3, 36812, Control_c, 1, 11, 87
3, 36825, Note_on_c, 1, 61, 0
3, 36825, Note_on_c, 1, 49, 0
3, 36825, Note_on_c, 1, 53, 0
3, 36825, Note_on_c, 1, 58, 0
3, 36840, Note_on_c, 1, 46, 86
3, 36960, Note_on_c, 1, 53, 86
3, 36960, Note_on_c, 1, 56, 86
3, 36960, Note_on_c, 1, 61, 86
3, 37065, Note_on_c, 1, 61, 0
3, 37065, Note_on_c, 1, 46, 0
3, 37065, Note_on_c, 1, 53, 0
3, 37065, Note_on_c, 1, 56, 0
3, 37080, Note_on_c, 1, 55, 86
3, 37080, Note_on_c, 1, 61, 86
3, 37080, Note_on_c, 1, 51, 86
3, 37148, Control_c, 1, 64, 0
3, 37185, Note_on_c, 1, 51, 0
3, 37185, Note_on_c, 1, 61, 0
3, 37185, Note_on_c, 1, 55, 0
3, 37200, Note_on_c, 1, 44, 86
3, 37320, Note_on_c, 1, 51, 86
3, 37320, Note_on_c, 1, 56, 86
3, 37320, Note_on_c, 1, 60, 86
3, 37425, Note_on_c, 1, 60, 0
3, 37425, Note_on_c, 1, 56, 0
3, 37425, Note_on_c, 1, 51, 0
3, 37440, Note_on_c, 1, 51, 86
3, 37440, Note_on_c, 1, 56, 86
3, 37440, Note_on_c, 1, 60, 86
3, 37508, Control_c, 1, 64, 0
3, 37545, Note_on_c, 1, 60, 0
3, 37545, Note_on_c, 1, 44, 0
3, 37545, Note_on_c, 1, 51, 0
3, 37545, Note_on_c, 1, 56, 0
3, 37560, Note_on_c, 1, 44, 86
3, 37680, Note_on_c, 1, 50, 86
3, 37680, Note_on_c, 1, 53, 86
3, 37785, Note_on_c, 1, 53, 0
3, 37785, Note_on_c, 1, 50, 0
3, 37800, Note_on_c, 1, 50, 86
3, 37800, Note_on_c, 1, 53, 86
3, 37868, Control_c, 1, 64, 0
3, 37905, Note_on_c, 1, 53, 0
3, 37905, Note_on_c, 1, 50, 0
3, 37905, Note_on_c, 1, 44, 0
3, 37920, Note_on_c, 1, 43, 86
3, 37920, Control_c, 1, 11, 88
3, 37947, Control_c, 1, 11, 89
3, 37975, Control_c, 1, 11, 90
3, 38002, Control_c, 1, 11, 91
3, 38025, Note_on_c, 1, 43, 0
3, 38030, Control_c, 1, 11, 92
3, 38040, Note_on_c, 1, 51, 86
3, 38040, Note_on_c, 1, 55, 86
3, 38040, Note_on_c, 1, 60, 86
3, 38058, Control_c, 1, 11, 93
3, 38086, Control_c, 1, 11, 94
3, 38113, Control_c, 1, 11, 95
3, 38141, Control_c, 1, 11, 96
3, 38145, Note_on_c, 1, 60, 0
3, 38145, Note_on_c, 1, 55, 0
3, 38145, Note_on_c, 1, 51, 0
3, 38160, Note_on_c, 1, 51, 86
3, 38160, Note_on_c, 1, 55, 86
3, 38160, Note_on_c, 1, 60, 86
3, 38169, Control_c, 1, 11, 97
3, 38196, Control_c, 1, 11, 98
3, 38224, Control_c, 1, 11, 99
3, 38228, Control_c, 1, 64, 0
3, 38252, Control_c, 1, 11, 100
3, 38265, Note_on_c, 1, 60, 0
3, 38265, Note_on_c, 1, 55, 0
3, 38265, Note_on_c, 1, 51, 0
3, 38280, Note_on_c, 1, 43, 86
3, 38385, Note_on_c, 1, 43, 0
3, 38400, Note_on_c, 1, 55, 86
3, 38400, Note_on_c, 1, 59, 86
3, 38400, Note_on_c, 1, 67, 86
3, 38505, Note_on_c, 1, 67, 0
3, 38505, Note_on_c, 1, 59, 0
3, 38505, Note_on_c, 1, 55, 0
3, 38520, Note_on_c, 1, 55, 86
3, 38520, Note_on_c, 1, 59, 86
3, 38520, Note_on_c, 1, 67, 86
3, 38588, Control_c, 1, 64, 0
3, 38625, Note_on_c, 1, 67, 0
3, 38625, Note_on_c, 1, 59, 0
3, 38625, Note_on_c, 1, 55, 0
3, 38640, Note_on_c, 1, 48, 86
3, 38640, Control_c, 1, 11, 101
3, 38649, Control_c, 1, 11, 100
3, 38658, Control_c, 1, 11, 99
3, 38667, Control_c, 1, 11, 98
3, 38676, Control_c, 1, 11, 97
3, 38686, Control_c, 1, 11, 96
3, 38695, Control_c, 1, 11, 95
3, 38704, Control_c, 1, 11, 94
3, 38713, Control_c, 1, 11, 93
3, 38722, Control_c, 1, 11, 92
3, 38732, Control_c, 1, 11, 91
3, 38741, Control_c, 1, 11, 90
3, 38745, Note_on_c, 1, 48, 0
3, 38750, Control_c, 1, 11, 89
3, 38760, Note_on_c, 1, 55, 86
3, 38760, Note_on_c, 1, 60, 86
3, 38760, Note_on_c, 1, 67, 86
3, 38760, Control_c, 1, 11, 88
3, 38769, Control_c, 1, 11, 87
3, 38778, Control_c, 1, 11, 86
3, 38787, Control_c, 1, 11, 85
3, 38796, Control_c, 1, 11, 84
3, 38806, Control_c, 1, 11, 83
3, 38815, Control_c, 1, 11, 82
3, 38824, Control_c, 1, 11, 81
3, 38833, Control_c, 1, 11, 80
3, 38842, Control_c, 1, 11, 79
3, 38852, Control_c, 1, 11, 78
3, 38861, Control_c, 1, 11, 77
3, 38865, Note_on_c, 1, 67, 0
3, 38865, Note_on_c, 1, 60, 0
3, 38865, Note_on_c, 1, 55, 0
3, 38870, Control_c, 1, 11, 76
3, 38880, Note_on_c, 1, 55, 86
3, 38880, Note_on_c, 1, 60, 86
3, 38880, Note_on_c, 1, 67, 86
3, 38880, Control_c, 1, 11, 75
3, 38889, Control_c, 1, 11, 74
3, 38898, Control_c, 1, 11, 73
3, 38907, Control_c, 1, 11, 72
3, 38916, Control_c, 1, 11, 71
3, 38926, Control_c, 1, 11, 70
3, 38935, Control_c, 1, 11, 69
3, 38944, Control_c, 1, 11, 68
3, 38948, Control_c, 1, 64, 0
3, 38953, Control_c, 1, 11, 67
3, 38962, Control_c, 1, 11, 66
3, 38972, Control_c, 1, 11, 65
3, 38981, Control_c, 1, 11, 64
3, 38985, Note_on_c, 1, 67, 0
3, 38985, Note_on_c, 1, 60, 0
3, 38985, Note_on_c, 1, 55, 0
3, 38990, Control_c, 1, 11, 63
3, 39000, Note_on_c, 1, 48, 86
3, 39000, Control_c, 1, 11, 75
3, 39105, Note_on_c, 1, 48, 0
3, 39120, Note_on_c, 1, 55, 86
3, 39120, Note_on_c, 1, 60, 86
3, 39120, Note_on_c, 1, 67, 86
3, 39225, Note_on_c, 1, 67, 0
3, 39225, Note_on_c, 1, 60, 0
3, 39225, Note_on_c, 1, 55, 0
3, 39240, Note_on_c, 1, 55, 86
3, 39240, Note_on_c, 1, 60, 86
3, 39240, Note_on_c, 1, 67, 86
3, 39308, Control_c, 1, 64, 0
3, 39345, Note_on_c, 1, 67, 0
3, 39345, Note_on_c, 1, 60, 0
3, 39345, Note_on_c, 1, 55, 0
3, 39360, Note_on_c, 1, 49, 86
3, 39480, Note_on_c, 1, 56, 86
3, 39480, Note_on_c, 1, 58, 86
3, 39585, Note_on_c, 1, 58, 0
3, 39585, Note_on_c, 1, 56, 0
3, 39600, Note_on_c, 1, 56, 86
3, 39600, Note_on_c, 1, 58, 86
3, 39668, Control_c, 1, 64, 0
3, 39705, Note_on_c, 1, 58, 0
3, 39705, Note_on_c, 1, 56, 0
3, 39705, Note_on_c, 1, 49, 0
3, 39720, Note_on_c, 1, 46, 86
3, 39720, Control_c, 1, 11, 75
3, 39747, Control_c, 1, 11, 76
3, 39775, Control_c, 1, 11, 77
3, 39802, Control_c, 1, 11, 78
3, 39830, Control_c, 1, 11, 79
3, 39840, Note_on_c, 1, 53, 86
3, 39840, Note_on_c, 1, 56, 86
3, 39840, Note_on_c, 1, 61, 86
3, 39858, Control_c, 1, 11, 80
3, 39886, Control_c, 1, 11, 81
3, 39913, Control_c, 1, 11, 82
3, 39941, Control_c, 1, 11, 83
3, 39945, Note_on_c, 1, 61, 0
3, 39945, Note_on_c, 1, 46, 0
3, 39945, Note_on_c, 1, 53, 0
3, 39945, Note_on_c, 1, 56, 0
3, 39960, Note_on_c, 1, 55, 86
3, 39960, Note_on_c, 1, 61, 86
3, 39960, Note_on_c, 1, 51, 86
3, 39969, Control_c, 1, 11, 84
3, 39996, Control_c, 1, 11, 85
3, 40024, Control_c, 1, 11, 86
3, 40028, Control_c, 1, 64, 0
3, 40052, Control_c, 1, 11, 87
3, 40065, Note_on_c, 1, 51, 0
3, 40065, Note_on_c, 1, 61, 0
3, 40065, Note_on_c, 1, 55, 0
3, 40080, Note_on_c, 1, 51, 86
3, 40200, Note_on_c, 1, 56, 86
3, 40200, Note_on_c, 1, 60, 86
3, 40305, Note_on_c, 1, 60, 0
3, 40305, Note_on_c, 1, 56, 0
3, 40320, Note_on_c, 1, 56, 86
3, 40320, Note_on_c, 1, 60, 86
3, 40388, Control_c, 1, 64, 0
3, 40425, Note_on_c, 1, 60, 0
3, 40425, Note_on_c, 1, 56, 0
3, 40425, Note_on_c, 1, 51, 0
3, 40440, Note_on_c, 1, 39, 86
3, 40560, Note_on_c, 1, 51, 86
3, 40560, Note_on_c, 1, 56, 86
3, 40665, Note_on_c, 1, 56, 0
3, 40665, Note_on_c, 1, 51, 0
3, 40680, Note_on_c, 1, 51, 86
3, 40680, Note_on_c, 1, 56, 86
3, 40748, Control_c, 1, 64, 0
3, 40785, Note_on_c, 1, 56, 0
3, 40785, Note_on_c, 1, 51, 0
3, 40785, Note_on_c, 1, 39, 0
3, 40800, Note_on_c, 1, 39, 86
3, 40800, Control_c, 1, 11, 88
3, 40813, Control_c, 1, 11, 89
3, 40827, Control_c, 1, 11, 90
3, 40841, Control_c, 1, 11, 91
3, 40855, Control_c, 1, 11, 92
3, 40869, Control_c, 1, 11, 93
3, 40882, Control_c, 1, 11, 94
3, 40896, Control_c, 1, 11, 95
3, 40905, Note_on_c, 1, 39, 0
3, 40910, Control_c, 1, 11, 96
3, 40920, Note_on_c, 1, 51, 86
3, 40920, Note_on_c, 1, 55, 86
3, 40920, Note_on_c, 1, 61, 86
3, 40924, Control_c, 1, 11, 97
3, 40938, Control_c, 1, 11, 98
3, 40952, Control_c, 1, 11, 99
3, 40966, Control_c, 1, 11, 100
3, 40980, Control_c, 1, 11, 101
3, 40993, Control_c, 1, 11, 102
3, 41007, Control_c, 1, 11, 103
3, 41021, Control_c, 1, 11, 104
3, 41025, Note_on_c, 1, 61, 0
3, 41025, Note_on_c, 1, 55, 0
3, 41025, Note_on_c, 1, 51, 0
3, 41035, Control_c, 1, 11, 105
3, 41040, Note_on_c, 1, 55, 86
3, 41040, Note_on_c, 1, 58, 86
3, 41040, Note_on_c, 1, 63, 86
3, 41049, Control_c, 1, 11, 106
3, 41062, Control_c, 1, 11, 107
3, 41076, Control_c, 1, 11, 108
3, 41090, Control_c, 1, 11, 109
3, 41104, Control_c, 1, 11, 110
3, 41108, Control_c, 1, 64, 0
3, 41118, Control_c, 1, 11, 111
3, 41132, Control_c, 1, 11, 112
3, 41145, Note_on_c, 1, 63, 0
3, 41145, Note_on_c, 1, 58, 0
3, 41145, Note_on_c, 1, 55, 0
3, 41146, Control_c, 1, 11, 113
3, 41160, Note_on_c, 1, 51, 86
3, 41265, Note_on_c, 1, 51, 0
3, 41280, Note_on_c, 1, 61, 86
3, 41280, Note_on_c, 1, 63, 86
3, 41280, Note_on_c, 1, 67, 86
3, 41385, Note_on_c, 1, 67, 0
3, 41385, Note_on_c, 1, 63, 0
3, 41385, Note_on_c, 1, 61, 0
3, 41400, Note_on_c, 1, 61, 86
3, 41400, Note_on_c, 1, 63, 86
3, 41400, Note_on_c, 1, 67, 86
3, 41468, Control_c, 1, 64, 0
3, 41505, Note_on_c, 1, 67, 0
3, 41505, Note_on_c, 1, 63, 0
3, 41505, Note_on_c, 1, 61, 0
3, 41520, Note_on_c, 1, 44, 86
3, 41625, Note_on_c, 1, 44, 0
3, 41640, Note_on_c, 1, 63, 86
3, 41640, Note_on_c, 1, 68, 86
3, 41745, Note_on_c, 1, 68, 0
3, 41745, Note_on_c, 1, 63, 0
3, 41760, Note_on_c, 1, 63, 86
3, 41760, Note_on_c, 1, 68, 86
3, 41828, Control_c, 1, 64, 0
3, 41865, Note_on_c, 1, 68, 0
3, 41865, Note_on_c, 1, 63, 0
3, 41880, Note_on_c, 1, 44, 86
3, 41985, Note_on_c, 1, 44, 0
3, 42000, Note_on_c, 1, 51, 86
3, 42000, Note_on_c, 1, 56, 86
3, 42000, Note_on_c, 1, 60, 86
3, 42105, Note_on_c, 1, 60, 0
3, 42105, Note_on_c, 1, 56, 0
3, 42105, Note_on_c, 1, 51, 0
3, 42107, Control_c, 1, 11, 75
3, 42120, Note_on_c, 1, 51, 86
3, 42120, Note_on_c, 1, 56, 86
3, 42120, Note_on_c, 1, 60, 86
3, 42188, Control_c, 1, 64, 0
3, 42225, Note_on_c, 1, 60, 0
3, 42225, Note_on_c, 1, 56, 0
3, 42225, Note_on_c, 1, 51, 0
3, 42240, Note_on_c, 1, 49, 86
3, 42360, Note_on_c, 1, 53, 86
3, 42360, Note_on_c, 1, 58, 86
3, 42360, Note_on_c, 1, 61, 86
3, 42465, Note_on_c, 1, 61, 0
3, 42465, Note_on_c, 1, 58, 0
3, 42465, Note_on_c, 1, 53, 0
3, 42480, Note_on_c, 1, 53, 86
3, 42480, Note_on_c, 1, 58, 86
3, 42480, Note_on_c, 1, 61, 86
3, 42548, Control_c, 1, 64, 0
3, 42585, Note_on_c, 1, 61, 0
3, 42585, Note_on_c, 1, 49, 0
3, 42585, Note_on_c, 1, 53, 0
3, 42585, Note_on_c, 1, 58, 0
3, 42600, Note_on_c, 1, 46, 86
3, 42600, Control_c, 1, 11, 75
3, 42627, Control_c, 1, 11, 76
3, 42655, Control_c, 1, 11, 77
3, 42682, Control_c, 1, 11, 78
3, 42710, Control_c, 1, 11, 79
3, 42720, Note_on_c, 1, 53, 86
3, 42720, Note_on_c, 1, 56, 86
3, 42720, Note_on_c, 1, 61, 86
3, 42738, Control_c, 1, 11, 80
3, 42766, Control_c, 1, 11, 81
3, 42793, Control_c, 1, 11, 82
3, 42821, Control_c, 1, 11, 83
3, 42825, Note_on_c, 1, 61, 0
3, 42825, Note_on_c, 1, 46, 0
3, 42825, Note_on_c, 1, 53, 0
3, 42825, Note_on_c, 1, 56, 0
3, 42840, Note_on_c, 1, 55, 86
3, 42840, Note_on_c, 1, 61, 86
3, 42840, Note_on_c, 1, 51, 86
3, 42849, Control_c, 1, 11, 84
3, 42876, Control_c, 1, 11, 85
3, 42904, Control_c, 1, 11, 86
3, 42908, Control_c, 1, 64, 0
3, 42932, Control_c, 1, 11, 87
3, 42945, Note_on_c, 1, 51, 0
3, 42945, Note_on_c, 1, 61, 0
3, 42945, Note_on_c, 1, 55, 0
3, 42960, Note_on_c, 1, 44, 86
3, 43080, Note_on_c, 1, 51, 86
3, 43080, Note_on_c, 1, 56, 86
3, 43080, Note_on_c, 1, 60, 86
3, 43185, Note_on_c, 1, 60, 0
3, 43185, Note_on_c, 1, 56, 0
3, 43185, Note_on_c, 1, 51, 0
3, 43200, Note_on_c, 1, 51, 86
3, 43200, Note_on_c, 1, 56, 86
3, 43200, Note_on_c, 1, 60, 86
3, 43268, Control_c, 1, 64, 0
3, 43305, Note_on_c, 1, 60, 0
3, 43305, Note_on_c, 1, 44, 0
3, 43305, Note_on_c, 1, 51, 0
3, 43305, Note_on_c, 1, 56, 0
3, 43320, Note_on_c, 1, 39, 86
3, 43440, Note_on_c, 1, 51, 86
3, 43440, Note_on_c, 1, 56, 86
3, 43545, Note_on_c, 1, 56, 0
3, 43545, Note_on_c, 1, 51, 0
3, 43560, Note_on_c, 1, 51, 86
3, 43560, Note_on_c, 1, 56, 86
3, 43628, Control_c, 1, 64, 0
3, 43665, Note_on_c, 1, 56, 0
3, 43665, Note_on_c, 1, 51, 0
3, 43665, Note_on_c, 1, 39, 0
3, 43680, Note_on_c, 1, 51, 86
3, 43680, Control_c, 1, 11, 88
3, 43707, Control_c, 1, 11, 89
3, 43735, Control_c, 1, 11, 90
3, 43762, Control_c, 1, 11, 91
3, 43790, Control_c, 1, 11, 92
3, 43800, Note_on_c, 1, 56, 86
3, 43800, Note_on_c, 1, 58, 86
3, 43818, Control_c, 1, 11, 93
3, 43846, Control_c, 1, 11, 94
3, 43873, Control_c, 1, 11, 95
3, 43901, Control_c, 1, 11, 96
3, 43905, Note_on_c, 1, 58, 0
3, 43905, Note_on_c, 1, 56, 0
3, 43920, Note_on_c, 1, 56, 86
3, 43920, Note_on_c, 1, 58, 86
3, 43929, Control_c, 1, 11, 97
3, 43956, Control_c, 1, 11, 98
3, 43984, Control_c, 1, 11, 99
3, 43988, Control_c, 1, 64, 0
3, 44012, Control_c, 1, 11, 100
3, 44025, Note_on_c, 1, 58, 0
3, 44025, Note_on_c, 1, 56, 0
3, 44025, Note_on_c, 1, 51, 0
3, 44040, Note_on_c, 1, 51, 86
3, 44160, Note_on_c, 1, 56, 86
3, 44160, Note_on_c, 1, 58, 86
3, 44160, Note_on_c, 1, 62, 86
3, 44265, Note_on_c, 1, 62, 0
3, 44265, Note_on_c, 1, 58, 0
3, 44265, Note_on_c, 1, 56, 0
3, 44280, Note_on_c, 1, 56, 86
3, 44280, Note_on_c, 1, 58, 86
3, 44280, Note_on_c, 1, 62, 86
3, 44348, Control_c, 1, 64, 0
3, 44385, Note_on_c, 1, 62, 0
3, 44385, Note_on_c, 1, 51, 0
3, 44385, Note_on_c, 1, 56, 0
3, 44385, Note_on_c, 1, 58, 0
3, 44400, Note_on_c, 1, 51, 86
3, 44520, Note_on_c, 1, 61, 86
3, 44520, Note_on_c, 1, 63, 86
3, 44625, Note_on_c, 1, 63, 0
3, 44625, Note_on_c, 1, 61, 0
3, 44640, Note_on_c, 1, 61, 86
3, 44640, Note_on_c, 1, 63, 86
3, 44708, Control_c, 1, 64, 0
3, 44745, Note_on_c, 1, 63, 0
3, 44745, Note_on_c, 1, 61, 0
3, 44745, Note_on_c, 1, 51, 0
3, 44760, Control_c, 1, 64, 127
3, 44760, Note_on_c, 1, 44, 86
3, 44880, Note_on_c, 1, 51, 86
3, 44880, Note_on_c, 1, 60, 86
3, 44985, Note_on_c, 1, 60, 0
3, 44985, Note_on_c, 1, 51, 0
3, 44985, Note_on_c, 1, 44, 0
3, 45068, Control_c, 1, 64, 0
3, 45120, Control_c, 1, 64, 0
3, 45120, Control_c, 1, 7, 101
3, 45120, Control_c, 1, 11, 101
3, 45120, End_track
4, 0, Start_track
4, 0, MIDI_port, 0
4, 0, Title_t, "Waltz Op.70 No. 2"
4, 0, End_track
5, 0, Start_track
5, 0, MIDI_port, 0
5, 0, Title_t, "by F. Chopin"
5, 0, End_track
6, 0, Start_track
6, 0, MIDI_port, 0
6, 0, Title_t, "Sequence by"
6, 0, End_track
7, 0, Start_track
7, 0, MIDI_port, 0
7, 0, Title_t, "Faren Raborn"
7, 0, End_track
8, 0, Start_track
8, 0, MIDI_port, 0
8, 0, Title_t, "June, 1995"
8, 0, End_track
9, 0, Start_track
9, 0, MIDI_port, 0
9, 0, Title_t, " raborn@mail.dtx-bbs.com"
9, 0, End_track
0, 0, End_of_file