0, 0, Header, 1, 3, 480
1, 0, Start_track
1, 0, Tempo, 952321
1, 0, Time_signature, 2, 2, 24, 8
1, 0, Title_t, "Piano Solo"
1, 0, Copyright_t, "Copyright \251 1999 My Music Company"
1, 40320, Tempo, 952321
1, 96024, Tempo, 957953
1, 96048, Tempo, 963585
1, 96072, Tempo, 969473
1, 96096, Tempo, 975361
1, 96120, Tempo, 981249
1, 96144, Tempo, 987137
1, 96168, Tempo, 993281
1, 96192, Tempo, 999425
1, 96216, Tempo, 1005569
1, 96240, Tempo, 1011969
1, 96264, Tempo, 1018369
1, 96288, Tempo, 1024769
1, 96312, Tempo, 1031425
1, 96336, Tempo, 1037825
1, 96360, Tempo, 1044737
1, 96384, Tempo, 1051393
1, 96408, Tempo, 1058305
1, 96432, Tempo, 1065217
1, 96456, Tempo, 1072385
1, 96480, Tempo, 1079553
1, 96504, Tempo, 1086721
1, 96528, Tempo, 1094145
1, 96552, Tempo, 1101569
1, 96576, Tempo, 1109249
1, 96600, Tempo, 1116929
1, 96624, Tempo, 1124609
1, 96648, Tempo, 1132545
1, 96672, Tempo, 1140481
1, 96696, Tempo, 1148673
1, 96720, Tempo, 1156865
1, 96744, Tempo, 1165313
1, 96768, Tempo, 1173761
1, 96792, Tempo, 1182209
1, 96816, Tempo, 1190913
1, 96840, Tempo, 1199873
1, 96960, Tempo, 1499905
1, 97920, End_track
2, 0, Start_track
2, 0, Key_signature, -1, "major"
2, 0, Control_c, 0, 7, 102
2, 0, Control_c, 0, 0, 0
2, 0, Control_c, 0, 32, 0
2, 0, Program_c, 0, 0
2, 0, Control_c, 0, 1, 0
2, 0, Control_c, 0, 10, 64
2, 0, Control_c, 0, 91, 0
2, 0, Control_c, 0, 93, 0
2, 0, Title_t, "Piano"
2, 0, Note_on_c, 0, 69, 100
2, 0, Note_on_c, 0, 81, 100
2, 228, Note_on_c, 0, 81, 0
2, 228, Note_on_c, 0, 69, 0
2, 240, Note_on_c, 0, 74, 100
2, 240, Note_on_c, 0, 62, 100
2, 240, Note_on_c, 0, 65, 100
2, 468, Note_on_c, 0, 65, 0
2, 468, Note_on_c, 0, 62, 0
2, 468, Note_on_c, 0, 74, 0
2, 480, Note_on_c, 0, 76, 100
2, 480, Note_on_c, 0, 64, 100
2, 480, Note_on_c, 0, 57, 100
2, 708, Note_on_c, 0, 57, 0
2, 708, Note_on_c, 0, 64, 0
2, 708, Note_on_c, 0, 76, 0
2, 720, Note_on_c, 0, 69, 100
2, 930, Note_on_c, 0, 69, 100
2, 948, Note_on_c, 0, 69, 0
2, 960, Note_on_c, 0, 55, 100
2, 960, Note_on_c, 0, 67, 100
2, 1074, Note_on_c, 0, 67, 0
2, 1074, Note_on_c, 0, 55, 0
2, 1080, Note_on_c, 0, 53, 100
2, 1080, Note_on_c, 0, 65, 100
2, 1194, Note_on_c, 0, 65, 0
2, 1194, Note_on_c, 0, 53, 0
2, 1200, Note_on_c, 0, 69, 0
2, 1200, Note_on_c, 0, 52, 100
2, 1200, Note_on_c, 0, 64, 100
2, 1314, Note_on_c, 0, 64, 0
2, 1314, Note_on_c, 0, 52, 0
2, 1320, Note_on_c, 0, 50, 100
2, 1320, Note_on_c, 0, 62, 100
2, 1434, Note_on_c, 0, 62, 0
2, 1434, Note_on_c, 0, 50, 0
2, 1440, Note_on_c, 0, 52, 100
2, 1440, Note_on_c, 0, 64, 100
2, 1668, Note_on_c, 0, 64, 0
2, 1668, Note_on_c, 0, 52, 0
2, 1680, Note_on_c, 0, 45, 100
2, 1680, Note_on_c, 0, 57, 100
2, 1728, Control_c, 0, 7, 103
2, 1824, Control_c, 0, 7, 104
2, 1908, Note_on_c, 0, 45, 0
2, 1920, Control_c, 0, 7, 105
2, 1920, Note_on_c, 0, 61, 100
2, 1920, Note_on_c, 0, 69, 100
2, 1920, Note_on_c, 0, 45, 100
2, 1920, Note_on_c, 0, 52, 100
2, 2000, Control_c, 0, 7, 106
2, 2096, Control_c, 0, 7, 107
2, 2176, Control_c, 0, 7, 108
2, 2272, Control_c, 0, 7, 109
2, 2364, Note_on_c, 0, 57, 0
2, 2368, Control_c, 0, 7, 110
2, 2376, Note_on_c, 0, 52, 0
2, 2376, Note_on_c, 0, 45, 0
2, 2376, Note_on_c, 0, 69, 0
2, 2376, Note_on_c, 0, 61, 0
2, 2400, Note_on_c, 0, 50, 100
2, 2400, Note_on_c, 0, 69, 100
2, 2400, Note_on_c, 0, 62, 100
2, 2552, Control_c, 0, 7, 109
2, 2584, Control_c, 0, 7, 108
2, 2628, Note_on_c, 0, 62, 0
2, 2632, Control_c, 0, 7, 107
2, 2640, Note_on_c, 0, 58, 100
2, 2680, Control_c, 0, 7, 106
2, 2712, Control_c, 0, 7, 105
2, 2760, Control_c, 0, 7, 104
2, 2808, Control_c, 0, 7, 103
2, 2820, Note_on_c, 0, 60, 100
2, 2840, Control_c, 0, 7, 102
2, 2848, Note_on_c, 0, 60, 0
2, 2850, Note_on_c, 0, 58, 100
2, 2856, Note_on_c, 0, 69, 0
2, 2856, Note_on_c, 0, 50, 0
2, 2868, Note_on_c, 0, 58, 0
2, 2880, Note_on_c, 0, 57, 100
2, 2880, Note_on_c, 0, 69, 100
2, 2880, Note_on_c, 0, 52, 100
2, 2880, Note_on_c, 0, 45, 100
2, 2888, Control_c, 0, 7, 101
2, 2920, Control_c, 0, 7, 100
2, 2968, Control_c, 0, 7, 99
2, 3016, Control_c, 0, 7, 98
2, 3048, Control_c, 0, 7, 97
2, 3096, Control_c, 0, 7, 96
2, 3120, Note_on_c, 0, 58, 0
2, 3144, Control_c, 0, 7, 95
2, 3176, Control_c, 0, 7, 94
2, 3224, Control_c, 0, 7, 93
2, 3256, Control_c, 0, 7, 92
2, 3304, Control_c, 0, 7, 91
2, 3352, Control_c, 0, 7, 90
2, 3816, Note_on_c, 0, 45, 0
2, 3816, Note_on_c, 0, 52, 0
2, 3816, Note_on_c, 0, 69, 0
2, 3816, Note_on_c, 0, 57, 0
2, 3840, Note_on_c, 0, 69, 100
2, 3840, Note_on_c, 0, 65, 100
2, 3840, Note_on_c, 0, 50, 100
2, 3840, Note_on_c, 0, 57, 100
2, 4068, Note_on_c, 0, 57, 0
2, 4068, Note_on_c, 0, 50, 0
2, 4068, Note_on_c, 0, 65, 0
2, 4068, Note_on_c, 0, 69, 0
2, 4080, Note_on_c, 0, 67, 100
2, 4080, Note_on_c, 0, 64, 100
2, 4080, Note_on_c, 0, 49, 100
2, 4080, Note_on_c, 0, 58, 100
2, 4308, Note_on_c, 0, 58, 0
2, 4308, Note_on_c, 0, 49, 0
2, 4308, Note_on_c, 0, 64, 0
2, 4308, Note_on_c, 0, 67, 0
2, 4320, Note_on_c, 0, 65, 100
2, 4320, Note_on_c, 0, 62, 100
2, 4320, Note_on_c, 0, 50, 100
2, 4320, Note_on_c, 0, 57, 100
2, 4548, Note_on_c, 0, 57, 0
2, 4548, Note_on_c, 0, 50, 0
2, 4548, Note_on_c, 0, 62, 0
2, 4548, Note_on_c, 0, 65, 0
2, 4560, Note_on_c, 0, 64, 100
2, 4560, Note_on_c, 0, 61, 100
2, 4560, Note_on_c, 0, 45, 100
2, 4560, Note_on_c, 0, 55, 100
2, 4788, Note_on_c, 0, 55, 0
2, 4788, Note_on_c, 0, 45, 0
2, 4788, Note_on_c, 0, 61, 0
2, 4788, Note_on_c, 0, 64, 0
2, 4800, Note_on_c, 0, 62, 100
2, 4800, Note_on_c, 0, 46, 100
2, 4800, Note_on_c, 0, 53, 100
2, 5028, Note_on_c, 0, 53, 0
2, 5028, Note_on_c, 0, 46, 0
2, 5028, Note_on_c, 0, 62, 0
2, 5040, Note_on_c, 0, 64, 100
2, 5040, Note_on_c, 0, 61, 100
2, 5040, Note_on_c, 0, 45, 100
2, 5154, Note_on_c, 0, 45, 0
2, 5160, Note_on_c, 0, 43, 100
2, 5268, Note_on_c, 0, 61, 0
2, 5268, Note_on_c, 0, 64, 0
2, 5274, Note_on_c, 0, 43, 0
2, 5280, Note_on_c, 0, 65, 100
2, 5280, Note_on_c, 0, 62, 100
2, 5280, Note_on_c, 0, 41, 100
2, 5394, Note_on_c, 0, 41, 0
2, 5400, Note_on_c, 0, 40, 100
2, 5508, Note_on_c, 0, 62, 0
2, 5508, Note_on_c, 0, 65, 0
2, 5514, Note_on_c, 0, 40, 0
2, 5520, Note_on_c, 0, 65, 100
2, 5520, Note_on_c, 0, 62, 100
2, 5520, Note_on_c, 0, 38, 100
2, 5520, Note_on_c, 0, 57, 100
2, 5748, Note_on_c, 0, 57, 0
2, 5748, Note_on_c, 0, 38, 0
2, 5748, Note_on_c, 0, 62, 0
2, 5748, Note_on_c, 0, 65, 0
2, 5760, Note_on_c, 0, 64, 100
2, 5760, Note_on_c, 0, 67, 100
2, 5760, Note_on_c, 0, 48, 100
2, 5760, Note_on_c, 0, 36, 100
2, 5760, Note_on_c, 0, 60, 100
2, 5760, Note_on_c, 0, 55, 100
2, 5988, Note_on_c, 0, 55, 0
2, 5988, Note_on_c, 0, 60, 0
2, 6000, Note_on_c, 0, 58, 100
2, 6000, Note_on_c, 0, 62, 100
2, 6216, Note_on_c, 0, 36, 0
2, 6216, Note_on_c, 0, 48, 0
2, 6216, Note_on_c, 0, 67, 0
2, 6216, Note_on_c, 0, 64, 0
2, 6228, Note_on_c, 0, 62, 0
2, 6228, Note_on_c, 0, 58, 0
2, 6240, Note_on_c, 0, 65, 100
2, 6240, Note_on_c, 0, 60, 100
2, 6240, Note_on_c, 0, 57, 100
2, 6240, Note_on_c, 0, 41, 100
2, 6696, Note_on_c, 0, 41, 0
2, 6696, Note_on_c, 0, 57, 0
2, 6696, Note_on_c, 0, 60, 0
2, 6696, Note_on_c, 0, 65, 0
2, 6720, Note_on_c, 0, 65, 100
2, 6720, Note_on_c, 0, 43, 100
2, 6720, Note_on_c, 0, 58, 100
2, 6948, Note_on_c, 0, 65, 0
2, 6960, Note_on_c, 0, 64, 100
2, 7176, Note_on_c, 0, 58, 0
2, 7176, Note_on_c, 0, 43, 0
2, 7188, Note_on_c, 0, 64, 0
2, 7200, Note_on_c, 0, 62, 100
2, 7200, Note_on_c, 0, 45, 100
2, 7200, Note_on_c, 0, 57, 100
2, 7428, Note_on_c, 0, 62, 0
2, 7440, Note_on_c, 0, 61, 100
2, 7656, Note_on_c, 0, 57, 0
2, 7656, Note_on_c, 0, 45, 0
2, 7668, Note_on_c, 0, 61, 0
2, 7680, Note_on_c, 0, 60, 100
2, 7680, Note_on_c, 0, 57, 100
2, 7680, Note_on_c, 0, 53, 100
2, 7680, Note_on_c, 0, 48, 100
2, 7680, Note_on_c, 0, 41, 100
2, 8136, Note_on_c, 0, 41, 0
2, 8136, Note_on_c, 0, 48, 0
2, 8136, Note_on_c, 0, 53, 0
2, 8136, Note_on_c, 0, 57, 0
2, 8136, Note_on_c, 0, 60, 0
2, 8160, Note_on_c, 0, 41, 100
2, 8160, Note_on_c, 0, 48, 100
2, 8160, Note_on_c, 0, 60, 100
2, 8160, Note_on_c, 0, 57, 100
2, 8160, Note_on_c, 0, 53, 100
2, 8388, Note_on_c, 0, 53, 0
2, 8388, Note_on_c, 0, 57, 0
2, 8388, Note_on_c, 0, 60, 0
2, 8388, Note_on_c, 0, 48, 0
2, 8388, Note_on_c, 0, 41, 0
2, 8400, Note_on_c, 0, 48, 100
2, 8400, Note_on_c, 0, 41, 100
2, 8400, Note_on_c, 0, 57, 100
2, 8400, Note_on_c, 0, 60, 100
2, 8628, Note_on_c, 0, 60, 0
2, 8628, Note_on_c, 0, 57, 0
2, 8628, Note_on_c, 0, 41, 0
2, 8628, Note_on_c, 0, 48, 0
2, 8640, Note_on_c, 0, 58, 100
2, 8640, Note_on_c, 0, 60, 100
2, 8640, Note_on_c, 0, 48, 100
2, 8640, Note_on_c, 0, 41, 100
2, 8868, Note_on_c, 0, 41, 0
2, 8868, Note_on_c, 0, 48, 0
2, 8868, Note_on_c, 0, 60, 0
2, 8868, Note_on_c, 0, 58, 0
2, 8880, Note_on_c, 0, 60, 100
2, 8880, Note_on_c, 0, 58, 100
2, 8880, Note_on_c, 0, 55, 100
2, 8880, Note_on_c, 0, 41, 100
2, 9108, Note_on_c, 0, 41, 0
2, 9108, Note_on_c, 0, 55, 0
2, 9108, Note_on_c, 0, 58, 0
2, 9108, Note_on_c, 0, 60, 0
2, 9120, Note_on_c, 0, 60, 100
2, 9120, Note_on_c, 0, 57, 100
2, 9120, Note_on_c, 0, 53, 100
2, 9120, Note_on_c, 0, 41, 100
2, 9348, Note_on_c, 0, 41, 0
2, 9348, Note_on_c, 0, 53, 0
2, 9348, Note_on_c, 0, 57, 0
2, 9348, Note_on_c, 0, 60, 0
2, 9600, Note_on_c, 0, 61, 100
2, 9600, Note_on_c, 0, 57, 100
2, 9600, Note_on_c, 0, 52, 100
2, 9600, Note_on_c, 0, 45, 100
2, 10056, Note_on_c, 0, 45, 0
2, 10056, Note_on_c, 0, 52, 0
2, 10056, Note_on_c, 0, 57, 0
2, 10056, Note_on_c, 0, 61, 0
2, 10080, Note_on_c, 0, 62, 100
2, 10080, Note_on_c, 0, 57, 100
2, 10080, Note_on_c, 0, 53, 100
2, 10080, Note_on_c, 0, 45, 100
2, 10536, Note_on_c, 0, 45, 0
2, 10536, Note_on_c, 0, 53, 0
2, 10536, Note_on_c, 0, 57, 0
2, 10536, Note_on_c, 0, 62, 0
2, 10560, Note_on_c, 0, 45, 100
2, 10560, Note_on_c, 0, 57, 100
2, 10560, Note_on_c, 0, 52, 100
2, 10560, Note_on_c, 0, 61, 100
2, 10788, Note_on_c, 0, 52, 0
2, 10788, Note_on_c, 0, 57, 0
2, 10788, Note_on_c, 0, 45, 0
2, 10800, Note_on_c, 0, 43, 100
2, 10800, Note_on_c, 0, 52, 100
2, 10800, Note_on_c, 0, 58, 100
2, 11016, Note_on_c, 0, 61, 0
2, 11028, Note_on_c, 0, 58, 0
2, 11028, Note_on_c, 0, 52, 0
2, 11028, Note_on_c, 0, 43, 0
2, 11040, Note_on_c, 0, 62, 100
2, 11040, Note_on_c, 0, 57, 100
2, 11040, Note_on_c, 0, 53, 100
2, 11040, Note_on_c, 0, 41, 100
2, 11496, Note_on_c, 0, 41, 0
2, 11496, Note_on_c, 0, 53, 0
2, 11496, Note_on_c, 0, 57, 0
2, 11496, Note_on_c, 0, 62, 0
2, 11760, Note_on_c, 0, 40, 100
2, 11760, Note_on_c, 0, 55, 100
2, 11760, Note_on_c, 0, 58, 100
2, 11760, Note_on_c, 0, 61, 100
2, 11988, Note_on_c, 0, 61, 0
2, 11988, Note_on_c, 0, 58, 0
2, 11988, Note_on_c, 0, 55, 0
2, 11988, Note_on_c, 0, 40, 0
2, 12000, Note_on_c, 0, 41, 100
2, 12000, Note_on_c, 0, 57, 100
2, 12000, Note_on_c, 0, 62, 100
2, 12228, Note_on_c, 0, 57, 0
2, 12228, Note_on_c, 0, 41, 0
2, 12240, Note_on_c, 0, 43, 100
2, 12240, Note_on_c, 0, 58, 100
2, 12456, Note_on_c, 0, 62, 0
2, 12468, Note_on_c, 0, 58, 0
2, 12468, Note_on_c, 0, 43, 0
2, 12480, Note_on_c, 0, 45, 100
2, 12480, Note_on_c, 0, 57, 100
2, 12480, Note_on_c, 0, 52, 100
2, 12480, Note_on_c, 0, 62, 100
2, 12708, Note_on_c, 0, 62, 0
2, 12720, Note_on_c, 0, 61, 100
2, 12936, Note_on_c, 0, 52, 0
2, 12936, Note_on_c, 0, 57, 0
2, 12936, Note_on_c, 0, 45, 0
2, 12948, Note_on_c, 0, 61, 0
2, 12960, Note_on_c, 0, 38, 100
2, 12960, Note_on_c, 0, 62, 100
2, 12960, Note_on_c, 0, 57, 100
2, 12960, Note_on_c, 0, 53, 100
2, 13416, Note_on_c, 0, 53, 0
2, 13416, Note_on_c, 0, 57, 0
2, 13416, Note_on_c, 0, 62, 0
2, 13416, Note_on_c, 0, 38, 0
2, 13440, Control_c, 0, 7, 102
2, 13440, Key_signature, -1, "major"
2, 13440, Note_on_c, 0, 69, 100
2, 13440, Note_on_c, 0, 81, 100
2, 13668, Note_on_c, 0, 81, 0
2, 13668, Note_on_c, 0, 69, 0
2, 13680, Note_on_c, 0, 74, 100
2, 13680, Note_on_c, 0, 62, 100
2, 13680, Note_on_c, 0, 65, 100
2, 13908, Note_on_c, 0, 65, 0
2, 13908, Note_on_c, 0, 62, 0
2, 13908, Note_on_c, 0, 74, 0
2, 13920, Note_on_c, 0, 76, 100
2, 13920, Note_on_c, 0, 64, 100
2, 13920, Note_on_c, 0, 57, 100
2, 14148, Note_on_c, 0, 57, 0
2, 14148, Note_on_c, 0, 64, 0
2, 14148, Note_on_c, 0, 76, 0
2, 14160, Note_on_c, 0, 69, 100
2, 14370, Note_on_c, 0, 69, 100
2, 14388, Note_on_c, 0, 69, 0
2, 14400, Note_on_c, 0, 55, 100
2, 14400, Note_on_c, 0, 67, 100
2, 14514, Note_on_c, 0, 67, 0
2, 14514, Note_on_c, 0, 55, 0
2, 14520, Note_on_c, 0, 53, 100
2, 14520, Note_on_c, 0, 65, 100
2, 14634, Note_on_c, 0, 65, 0
2, 14634, Note_on_c, 0, 53, 0
2, 14640, Note_on_c, 0, 69, 0
2, 14640, Note_on_c, 0, 52, 100
2, 14640, Note_on_c, 0, 64, 100
2, 14754, Note_on_c, 0, 64, 0
2, 14754, Note_on_c, 0, 52, 0
2, 14760, Note_on_c, 0, 50, 100
2, 14760, Note_on_c, 0, 62, 100
2, 14874, Note_on_c, 0, 62, 0
2, 14874, Note_on_c, 0, 50, 0
2, 14880, Note_on_c, 0, 52, 100
2, 14880, Note_on_c, 0, 64, 100
2, 15108, Note_on_c, 0, 64, 0
2, 15108, Note_on_c, 0, 52, 0
2, 15120, Note_on_c, 0, 45, 100
2, 15120, Note_on_c, 0, 57, 100
2, 15168, Control_c, 0, 7, 103
2, 15264, Control_c, 0, 7, 104
2, 15348, Note_on_c, 0, 45, 0
2, 15360, Control_c, 0, 7, 105
2, 15360, Note_on_c, 0, 61, 100
2, 15360, Note_on_c, 0, 69, 100
2, 15360, Note_on_c, 0, 45, 100
2, 15360, Note_on_c, 0, 52, 100
2, 15440, Control_c, 0, 7, 106
2, 15536, Control_c, 0, 7, 107
2, 15616, Control_c, 0, 7, 108
2, 15712, Control_c, 0, 7, 109
2, 15804, Note_on_c, 0, 57, 0
2, 15808, Control_c, 0, 7, 110
2, 15816, Note_on_c, 0, 52, 0
2, 15816, Note_on_c, 0, 45, 0
2, 15816, Note_on_c, 0, 69, 0
2, 15816, Note_on_c, 0, 61, 0
2, 15840, Note_on_c, 0, 50, 100
2, 15840, Note_on_c, 0, 69, 100
2, 15840, Note_on_c, 0, 62, 100
2, 15992, Control_c, 0, 7, 109
2, 16024, Control_c, 0, 7, 108
2, 16068, Note_on_c, 0, 62, 0
2, 16072, Control_c, 0, 7, 107
2, 16080, Note_on_c, 0, 58, 100
2, 16120, Control_c, 0, 7, 106
2, 16152, Control_c, 0, 7, 105
2, 16200, Control_c, 0, 7, 104
2, 16248, Control_c, 0, 7, 103
2, 16260, Note_on_c, 0, 60, 100
2, 16280, Control_c, 0, 7, 102
2, 16288, Note_on_c, 0, 60, 0
2, 16290, Note_on_c, 0, 58, 100
2, 16296, Note_on_c, 0, 69, 0
2, 16296, Note_on_c, 0, 50, 0
2, 16308, Note_on_c, 0, 58, 0
2, 16320, Note_on_c, 0, 57, 100
2, 16320, Note_on_c, 0, 69, 100
2, 16320, Note_on_c, 0, 52, 100
2, 16320, Note_on_c, 0, 45, 100
2, 16328, Control_c, 0, 7, 101
2, 16360, Control_c, 0, 7, 100
2, 16408, Control_c, 0, 7, 99
2, 16456, Control_c, 0, 7, 98
2, 16488, Control_c, 0, 7, 97
2, 16536, Control_c, 0, 7, 96
2, 16560, Note_on_c, 0, 58, 0
2, 16584, Control_c, 0, 7, 95
2, 16616, Control_c, 0, 7, 94
2, 16664, Control_c, 0, 7, 93
2, 16696, Control_c, 0, 7, 92
2, 16744, Control_c, 0, 7, 91
2, 16792, Control_c, 0, 7, 90
2, 17256, Note_on_c, 0, 45, 0
2, 17256, Note_on_c, 0, 52, 0
2, 17256, Note_on_c, 0, 69, 0
2, 17256, Note_on_c, 0, 57, 0
2, 17280, Note_on_c, 0, 69, 100
2, 17280, Note_on_c, 0, 65, 100
2, 17280, Note_on_c, 0, 50, 100
2, 17280, Note_on_c, 0, 57, 100
2, 17508, Note_on_c, 0, 57, 0
2, 17508, Note_on_c, 0, 50, 0
2, 17508, Note_on_c, 0, 65, 0
2, 17508, Note_on_c, 0, 69, 0
2, 17520, Note_on_c, 0, 67, 100
2, 17520, Note_on_c, 0, 64, 100
2, 17520, Note_on_c, 0, 49, 100
2, 17520, Note_on_c, 0, 58, 100
2, 17748, Note_on_c, 0, 58, 0
2, 17748, Note_on_c, 0, 49, 0
2, 17748, Note_on_c, 0, 64, 0
2, 17748, Note_on_c, 0, 67, 0
2, 17760, Note_on_c, 0, 65, 100
2, 17760, Note_on_c, 0, 62, 100
2, 17760, Note_on_c, 0, 50, 100
2, 17760, Note_on_c, 0, 57, 100
2, 17988, Note_on_c, 0, 57, 0
2, 17988, Note_on_c, 0, 50, 0
2, 17988, Note_on_c, 0, 62, 0
2, 17988, Note_on_c, 0, 65, 0
2, 18000, Note_on_c, 0, 64, 100
2, 18000, Note_on_c, 0, 61, 100
2, 18000, Note_on_c, 0, 45, 100
2, 18000, Note_on_c, 0, 55, 100
2, 18228, Note_on_c, 0, 55, 0
2, 18228, Note_on_c, 0, 45, 0
2, 18228, Note_on_c, 0, 61, 0
2, 18228, Note_on_c, 0, 64, 0
2, 18240, Note_on_c, 0, 62, 100
2, 18240, Note_on_c, 0, 46, 100
2, 18240, Note_on_c, 0, 53, 100
2, 18468, Note_on_c, 0, 53, 0
2, 18468, Note_on_c, 0, 46, 0
2, 18468, Note_on_c, 0, 62, 0
2, 18480, Note_on_c, 0, 64, 100
2, 18480, Note_on_c, 0, 61, 100
2, 18480, Note_on_c, 0, 45, 100
2, 18594, Note_on_c, 0, 45, 0
2, 18600, Note_on_c, 0, 43, 100
2, 18708, Note_on_c, 0, 61, 0
2, 18708, Note_on_c, 0, 64, 0
2, 18714, Note_on_c, 0, 43, 0
2, 18720, Note_on_c, 0, 65, 100
2, 18720, Note_on_c, 0, 62, 100
2, 18720, Note_on_c, 0, 41, 100
2, 18834, Note_on_c, 0, 41, 0
2, 18840, Note_on_c, 0, 40, 100
2, 18948, Note_on_c, 0, 62, 0
2, 18948, Note_on_c, 0, 65, 0
2, 18954, Note_on_c, 0, 40, 0
2, 18960, Note_on_c, 0, 65, 100
2, 18960, Note_on_c, 0, 62, 100
2, 18960, Note_on_c, 0, 38, 100
2, 18960, Note_on_c, 0, 57, 100
2, 19188, Note_on_c, 0, 57, 0
2, 19188, Note_on_c, 0, 38, 0
2, 19188, Note_on_c, 0, 62, 0
2, 19188, Note_on_c, 0, 65, 0
2, 19200, Note_on_c, 0, 64, 100
2, 19200, Note_on_c, 0, 67, 100
2, 19200, Note_on_c, 0, 48, 100
2, 19200, Note_on_c, 0, 36, 100
2, 19200, Note_on_c, 0, 60, 100
2, 19200, Note_on_c, 0, 55, 100
2, 19428, Note_on_c, 0, 55, 0
2, 19428, Note_on_c, 0, 60, 0
2, 19440, Note_on_c, 0, 58, 100
2, 19440, Note_on_c, 0, 62, 100
2, 19656, Note_on_c, 0, 36, 0
2, 19656, Note_on_c, 0, 48, 0
2, 19656, Note_on_c, 0, 67, 0
2, 19656, Note_on_c, 0, 64, 0
2, 19668, Note_on_c, 0, 62, 0
2, 19668, Note_on_c, 0, 58, 0
2, 19680, Note_on_c, 0, 65, 100
2, 19680, Note_on_c, 0, 60, 100
2, 19680, Note_on_c, 0, 57, 100
2, 19680, Note_on_c, 0, 41, 100
2, 20136, Note_on_c, 0, 41, 0
2, 20136, Note_on_c, 0, 57, 0
2, 20136, Note_on_c, 0, 60, 0
2, 20136, Note_on_c, 0, 65, 0
2, 20160, Note_on_c, 0, 65, 100
2, 20160, Note_on_c, 0, 43, 100
2, 20160, Note_on_c, 0, 58, 100
2, 20388, Note_on_c, 0, 65, 0
2, 20400, Note_on_c, 0, 64, 100
2, 20616, Note_on_c, 0, 58, 0
2, 20616, Note_on_c, 0, 43, 0
2, 20628, Note_on_c, 0, 64, 0
2, 20640, Note_on_c, 0, 62, 100
2, 20640, Note_on_c, 0, 45, 100
2, 20640, Note_on_c, 0, 57, 100
2, 20868, Note_on_c, 0, 62, 0
2, 20880, Note_on_c, 0, 61, 100
2, 21096, Note_on_c, 0, 57, 0
2, 21096, Note_on_c, 0, 45, 0
2, 21108, Note_on_c, 0, 61, 0
2, 21120, Note_on_c, 0, 60, 100
2, 21120, Note_on_c, 0, 57, 100
2, 21120, Note_on_c, 0, 53, 100
2, 21120, Note_on_c, 0, 48, 100
2, 21120, Note_on_c, 0, 41, 100
2, 21576, Note_on_c, 0, 41, 0
2, 21576, Note_on_c, 0, 48, 0
2, 21576, Note_on_c, 0, 53, 0
2, 21576, Note_on_c, 0, 57, 0
2, 21576, Note_on_c, 0, 60, 0
2, 21600, Note_on_c, 0, 41, 100
2, 21600, Note_on_c, 0, 48, 100
2, 21600, Note_on_c, 0, 60, 100
2, 21600, Note_on_c, 0, 57, 100
2, 21600, Note_on_c, 0, 53, 100
2, 21828, Note_on_c, 0, 53, 0
2, 21828, Note_on_c, 0, 57, 0
2, 21828, Note_on_c, 0, 60, 0
2, 21828, Note_on_c, 0, 48, 0
2, 21828, Note_on_c, 0, 41, 0
2, 21840, Note_on_c, 0, 48, 100
2, 21840, Note_on_c, 0, 41, 100
2, 21840, Note_on_c, 0, 57, 100
2, 21840, Note_on_c, 0, 60, 100
2, 22068, Note_on_c, 0, 60, 0
2, 22068, Note_on_c, 0, 57, 0
2, 22068, Note_on_c, 0, 41, 0
2, 22068, Note_on_c, 0, 48, 0
2, 22080, Note_on_c, 0, 58, 100
2, 22080, Note_on_c, 0, 60, 100
2, 22080, Note_on_c, 0, 48, 100
2, 22080, Note_on_c, 0, 41, 100
2, 22308, Note_on_c, 0, 41, 0
2, 22308, Note_on_c, 0, 48, 0
2, 22308, Note_on_c, 0, 60, 0
2, 22308, Note_on_c, 0, 58, 0
2, 22320, Note_on_c, 0, 60, 100
2, 22320, Note_on_c, 0, 58, 100
2, 22320, Note_on_c, 0, 55, 100
2, 22320, Note_on_c, 0, 41, 100
2, 22548, Note_on_c, 0, 41, 0
2, 22548, Note_on_c, 0, 55, 0
2, 22548, Note_on_c, 0, 58, 0
2, 22548, Note_on_c, 0, 60, 0
2, 22560, Note_on_c, 0, 60, 100
2, 22560, Note_on_c, 0, 57, 100
2, 22560, Note_on_c, 0, 53, 100
2, 22560, Note_on_c, 0, 41, 100
2, 22788, Note_on_c, 0, 41, 0
2, 22788, Note_on_c, 0, 53, 0
2, 22788, Note_on_c, 0, 57, 0
2, 22788, Note_on_c, 0, 60, 0
2, 23040, Note_on_c, 0, 61, 100
2, 23040, Note_on_c, 0, 57, 100
2, 23040, Note_on_c, 0, 52, 100
2, 23040, Note_on_c, 0, 45, 100
2, 23496, Note_on_c, 0, 45, 0
2, 23496, Note_on_c, 0, 52, 0
2, 23496, Note_on_c, 0, 57, 0
2, 23496, Note_on_c, 0, 61, 0
2, 23520, Note_on_c, 0, 62, 100
2, 23520, Note_on_c, 0, 57, 100
2, 23520, Note_on_c, 0, 53, 100
2, 23520, Note_on_c, 0, 45, 100
2, 23976, Note_on_c, 0, 45, 0
2, 23976, Note_on_c, 0, 53, 0
2, 23976, Note_on_c, 0, 57, 0
2, 23976, Note_on_c, 0, 62, 0
2, 24000, Note_on_c, 0, 45, 100
2, 24000, Note_on_c, 0, 57, 100
2, 24000, Note_on_c, 0, 52, 100
2, 24000, Note_on_c, 0, 61, 100
2, 24228, Note_on_c, 0, 52, 0
2, 24228, Note_on_c, 0, 57, 0
2, 24228, Note_on_c, 0, 45, 0
2, 24240, Note_on_c, 0, 43, 100
2, 24240, Note_on_c, 0, 52, 100
2, 24240, Note_on_c, 0, 58, 100
2, 24456, Note_on_c, 0, 61, 0
2, 24468, Note_on_c, 0, 58, 0
2, 24468, Note_on_c, 0, 52, 0
2, 24468, Note_on_c, 0, 43, 0
2, 24480, Note_on_c, 0, 62, 100
2, 24480, Note_on_c, 0, 57, 100
2, 24480, Note_on_c, 0, 53, 100
2, 24480, Note_on_c, 0, 41, 100
2, 24936, Note_on_c, 0, 41, 0
2, 24936, Note_on_c, 0, 53, 0
2, 24936, Note_on_c, 0, 57, 0
2, 24936, Note_on_c, 0, 62, 0
2, 25200, Note_on_c, 0, 40, 100
2, 25200, Note_on_c, 0, 55, 100
2, 25200, Note_on_c, 0, 58, 100
2, 25200, Note_on_c, 0, 61, 100
2, 25428, Note_on_c, 0, 61, 0
2, 25428, Note_on_c, 0, 58, 0
2, 25428, Note_on_c, 0, 55, 0
2, 25428, Note_on_c, 0, 40, 0
2, 25440, Note_on_c, 0, 41, 100
2, 25440, Note_on_c, 0, 57, 100
2, 25440, Note_on_c, 0, 62, 100
2, 25668, Note_on_c, 0, 57, 0
2, 25668, Note_on_c, 0, 41, 0
2, 25680, Note_on_c, 0, 43, 100
2, 25680, Note_on_c, 0, 58, 100
2, 25896, Note_on_c, 0, 62, 0
2, 25908, Note_on_c, 0, 58, 0
2, 25908, Note_on_c, 0, 43, 0
2, 25920, Note_on_c, 0, 45, 100
2, 25920, Note_on_c, 0, 57, 100
2, 25920, Note_on_c, 0, 52, 100
2, 25920, Note_on_c, 0, 62, 100
2, 26148, Note_on_c, 0, 62, 0
2, 26160, Note_on_c, 0, 61, 100
2, 26376, Note_on_c, 0, 52, 0
2, 26376, Note_on_c, 0, 57, 0
2, 26376, Note_on_c, 0, 45, 0
2, 26388, Note_on_c, 0, 61, 0
2, 26400, Note_on_c, 0, 38, 100
2, 26400, Note_on_c, 0, 62, 100
2, 26400, Note_on_c, 0, 57, 100
2, 26400, Note_on_c, 0, 53, 100
2, 26856, Note_on_c, 0, 53, 0
2, 26856, Note_on_c, 0, 57, 0
2, 26856, Note_on_c, 0, 62, 0
2, 26856, Note_on_c, 0, 38, 0
2, 26880, Control_c, 0, 7, 102
2, 26880, Key_signature, -1, "major"
2, 26880, Note_on_c, 0, 69, 100
2, 26880, Note_on_c, 0, 81, 100
2, 27108, Note_on_c, 0, 81, 0
2, 27108, Note_on_c, 0, 69, 0
2, 27120, Note_on_c, 0, 74, 100
2, 27120, Note_on_c, 0, 62, 100
2, 27120, Note_on_c, 0, 65, 100
2, 27348, Note_on_c, 0, 65, 0
2, 27348, Note_on_c, 0, 62, 0
2, 27348, Note_on_c, 0, 74, 0
2, 27360, Note_on_c, 0, 76, 100
2, 27360, Note_on_c, 0, 64, 100
2, 27360, Note_on_c, 0, 57, 100
2, 27588, Note_on_c, 0, 57, 0
2, 27588, Note_on_c, 0, 64, 0
2, 27588, Note_on_c, 0, 76, 0
2, 27600, Note_on_c, 0, 69, 100
2, 27810, Note_on_c, 0, 69, 100
2, 27828, Note_on_c, 0, 69, 0
2, 27840, Note_on_c, 0, 55, 100
2, 27840, Note_on_c, 0, 67, 100
2, 27954, Note_on_c, 0, 67, 0
2, 27954, Note_on_c, 0, 55, 0
2, 27960, Note_on_c, 0, 53, 100
2, 27960, Note_on_c, 0, 65, 100
2, 28074, Note_on_c, 0, 65, 0
2, 28074, Note_on_c, 0, 53, 0
2, 28080, Note_on_c, 0, 69, 0
2, 28080, Note_on_c, 0, 52, 100
2, 28080, Note_on_c, 0, 64, 100
2, 28194, Note_on_c, 0, 64, 0
2, 28194, Note_on_c, 0, 52, 0
2, 28200, Note_on_c, 0, 50, 100
2, 28200, Note_on_c, 0, 62, 100
2, 28314, Note_on_c, 0, 62, 0
2, 28314, Note_on_c, 0, 50, 0
2, 28320, Note_on_c, 0, 52, 100
2, 28320, Note_on_c, 0, 64, 100
2, 28548, Note_on_c, 0, 64, 0
2, 28548, Note_on_c, 0, 52, 0
2, 28560, Note_on_c, 0, 45, 100
2, 28560, Note_on_c, 0, 57, 100
2, 28608, Control_c, 0, 7, 103
2, 28704, Control_c, 0, 7, 104
2, 28788, Note_on_c, 0, 45, 0
2, 28800, Control_c, 0, 7, 105
2, 28800, Note_on_c, 0, 61, 100
2, 28800, Note_on_c, 0, 69, 100
2, 28800, Note_on_c, 0, 45, 100
2, 28800, Note_on_c, 0, 52, 100
2, 28880, Control_c, 0, 7, 106
2, 28976, Control_c, 0, 7, 107
2, 29056, Control_c, 0, 7, 108
2, 29152, Control_c, 0, 7, 109
2, 29244, Note_on_c, 0, 57, 0
2, 29248, Control_c, 0, 7, 110
2, 29256, Note_on_c, 0, 52, 0
2, 29256, Note_on_c, 0, 45, 0
2, 29256, Note_on_c, 0, 69, 0
2, 29256, Note_on_c, 0, 61, 0
2, 29280, Note_on_c, 0, 50, 100
2, 29280, Note_on_c, 0, 69, 100
2, 29280, Note_on_c, 0, 62, 100
2, 29432, Control_c, 0, 7, 109
2, 29464, Control_c, 0, 7, 108
2, 29508, Note_on_c, 0, 62, 0
2, 29512, Control_c, 0, 7, 107
2, 29520, Note_on_c, 0, 58, 100
2, 29560, Control_c, 0, 7, 106
2, 29592, Control_c, 0, 7, 105
2, 29640, Control_c, 0, 7, 104
2, 29688, Control_c, 0, 7, 103
2, 29700, Note_on_c, 0, 60, 100
2, 29720, Control_c, 0, 7, 102
2, 29728, Note_on_c, 0, 60, 0
2, 29730, Note_on_c, 0, 58, 100
2, 29736, Note_on_c, 0, 69, 0
2, 29736, Note_on_c, 0, 50, 0
2, 29748, Note_on_c, 0, 58, 0
2, 29760, Note_on_c, 0, 57, 100
2, 29760, Note_on_c, 0, 69, 100
2, 29760, Note_on_c, 0, 52, 100
2, 29760, Note_on_c, 0, 45, 100
2, 29768, Control_c, 0, 7, 101
2, 29800, Control_c, 0, 7, 100
2, 29848, Control_c, 0, 7, 99
2, 29896, Control_c, 0, 7, 98
2, 29928, Control_c, 0, 7, 97
2, 29976, Control_c, 0, 7, 96
2, 30000, Note_on_c, 0, 58, 0
2, 30024, Control_c, 0, 7, 95
2, 30056, Control_c, 0, 7, 94
2, 30104, Control_c, 0, 7, 93
2, 30136, Control_c, 0, 7, 92
2, 30184, Control_c, 0, 7, 91
2, 30232, Control_c, 0, 7, 90
2, 30696, Note_on_c, 0, 45, 0
2, 30696, Note_on_c, 0, 52, 0
2, 30696, Note_on_c, 0, 69, 0
2, 30696, Note_on_c, 0, 57, 0
2, 30720, Note_on_c, 0, 69, 100
2, 30720, Note_on_c, 0, 65, 100
2, 30720, Note_on_c, 0, 50, 100
2, 30720, Note_on_c, 0, 57, 100
2, 30948, Note_on_c, 0, 57, 0
2, 30948, Note_on_c, 0, 50, 0
2, 30948, Note_on_c, 0, 65, 0
2, 30948, Note_on_c, 0, 69, 0
2, 30960, Note_on_c, 0, 67, 100
2, 30960, Note_on_c, 0, 64, 100
2, 30960, Note_on_c, 0, 49, 100
2, 30960, Note_on_c, 0, 58, 100
2, 31188, Note_on_c, 0, 58, 0
2, 31188, Note_on_c, 0, 49, 0
2, 31188, Note_on_c, 0, 64, 0
2, 31188, Note_on_c, 0, 67, 0
2, 31200, Note_on_c, 0, 65, 100
2, 31200, Note_on_c, 0, 62, 100
2, 31200, Note_on_c, 0, 50, 100
2, 31200, Note_on_c, 0, 57, 100
2, 31428, Note_on_c, 0, 57, 0
2, 31428, Note_on_c, 0, 50, 0
2, 31428, Note_on_c, 0, 62, 0
2, 31428, Note_on_c, 0, 65, 0
2, 31440, Note_on_c, 0, 64, 100
2, 31440, Note_on_c, 0, 61, 100
2, 31440, Note_on_c, 0, 45, 100
2, 31440, Note_on_c, 0, 55, 100
2, 31668, Note_on_c, 0, 55, 0
2, 31668, Note_on_c, 0, 45, 0
2, 31668, Note_on_c, 0, 61, 0
2, 31668, Note_on_c, 0, 64, 0
2, 31680, Note_on_c, 0, 62, 100
2, 31680, Note_on_c, 0, 46, 100
2, 31680, Note_on_c, 0, 53, 100
2, 31908, Note_on_c, 0, 53, 0
2, 31908, Note_on_c, 0, 46, 0
2, 31908, Note_on_c, 0, 62, 0
2, 31920, Note_on_c, 0, 64, 100
2, 31920, Note_on_c, 0, 61, 100
2, 31920, Note_on_c, 0, 45, 100
2, 32034, Note_on_c, 0, 45, 0
2, 32040, Note_on_c, 0, 43, 100
2, 32148, Note_on_c, 0, 61, 0
2, 32148, Note_on_c, 0, 64, 0
2, 32154, Note_on_c, 0, 43, 0
2, 32160, Note_on_c, 0, 65, 100
2, 32160, Note_on_c, 0, 62, 100
2, 32160, Note_on_c, 0, 41, 100
2, 32274, Note_on_c, 0, 41, 0
2, 32280, Note_on_c, 0, 40, 100
2, 32388, Note_on_c, 0, 62, 0
2, 32388, Note_on_c, 0, 65, 0
2, 32394, Note_on_c, 0, 40, 0
2, 32400, Note_on_c, 0, 65, 100
2, 32400, Note_on_c, 0, 62, 100
2, 32400, Note_on_c, 0, 38, 100
2, 32400, Note_on_c, 0, 57, 100
2, 32628, Note_on_c, 0, 57, 0
2, 32628, Note_on_c, 0, 38, 0
2, 32628, Note_on_c, 0, 62, 0
2, 32628, Note_on_c, 0, 65, 0
2, 32640, Note_on_c, 0, 64, 100
2, 32640, Note_on_c, 0, 67, 100
2, 32640, Note_on_c, 0, 48, 100
2, 32640, Note_on_c, 0, 36, 100
2, 32640, Note_on_c, 0, 60, 100
2, 32640, Note_on_c, 0, 55, 100
2, 32868, Note_on_c, 0, 55, 0
2, 32868, Note_on_c, 0, 60, 0
2, 32880, Note_on_c, 0, 58, 100
2, 32880, Note_on_c, 0, 62, 100
2, 33096, Note_on_c, 0, 36, 0
2, 33096, Note_on_c, 0, 48, 0
2, 33096, Note_on_c, 0, 67, 0
2, 33096, Note_on_c, 0, 64, 0
2, 33108, Note_on_c, 0, 62, 0
2, 33108, Note_on_c, 0, 58, 0
2, 33120, Note_on_c, 0, 65, 100
2, 33120, Note_on_c, 0, 60, 100
2, 33120, Note_on_c, 0, 57, 100
2, 33120, Note_on_c, 0, 41, 100
2, 33576, Note_on_c, 0, 41, 0
2, 33576, Note_on_c, 0, 57, 0
2, 33576, Note_on_c, 0, 60, 0
2, 33576, Note_on_c, 0, 65, 0
2, 33600, Note_on_c, 0, 65, 100
2, 33600, Note_on_c, 0, 43, 100
2, 33600, Note_on_c, 0, 58, 100
2, 33828, Note_on_c, 0, 65, 0
2, 33840, Note_on_c, 0, 64, 100
2, 34056, Note_on_c, 0, 58, 0
2, 34056, Note_on_c, 0, 43, 0
2, 34068, Note_on_c, 0, 64, 0
2, 34080, Note_on_c, 0, 62, 100
2, 34080, Note_on_c, 0, 45, 100
2, 34080, Note_on_c, 0, 57, 100
2, 34308, Note_on_c, 0, 62, 0
2, 34320, Note_on_c, 0, 61, 100
2, 34536, Note_on_c, 0, 57, 0
2, 34536, Note_on_c, 0, 45, 0
2, 34548, Note_on_c, 0, 61, 0
2, 34560, Note_on_c, 0, 60, 100
2, 34560, Note_on_c, 0, 57, 100
2, 34560, Note_on_c, 0, 53, 100
2, 34560, Note_on_c, 0, 48, 100
2, 34560, Note_on_c, 0, 41, 100
2, 35016, Note_on_c, 0, 41, 0
2, 35016, Note_on_c, 0, 48, 0
2, 35016, Note_on_c, 0, 53, 0
2, 35016, Note_on_c, 0, 57, 0
2, 35016, Note_on_c, 0, 60, 0
2, 35040, Note_on_c, 0, 41, 100
2, 35040, Note_on_c, 0, 48, 100
2, 35040, Note_on_c, 0, 60, 100
2, 35040, Note_on_c, 0, 57, 100
2, 35040, Note_on_c, 0, 53, 100
2, 35268, Note_on_c, 0, 53, 0
2, 35268, Note_on_c, 0, 57, 0
2, 35268, Note_on_c, 0, 60, 0
2, 35268, Note_on_c, 0, 48, 0
2, 35268, Note_on_c, 0, 41, 0
2, 35280, Note_on_c, 0, 48, 100
2, 35280, Note_on_c, 0, 41, 100
2, 35280, Note_on_c, 0, 57, 100
2, 35280, Note_on_c, 0, 60, 100
2, 35508, Note_on_c, 0, 60, 0
2, 35508, Note_on_c, 0, 57, 0
2, 35508, Note_on_c, 0, 41, 0
2, 35508, Note_on_c, 0, 48, 0
2, 35520, Note_on_c, 0, 58, 100
2, 35520, Note_on_c, 0, 60, 100
2, 35520, Note_on_c, 0, 48, 100
2, 35520, Note_on_c, 0, 41, 100
2, 35748, Note_on_c, 0, 41, 0
2, 35748, Note_on_c, 0, 48, 0
2, 35748, Note_on_c, 0, 60, 0
2, 35748, Note_on_c, 0, 58, 0
2, 35760, Note_on_c, 0, 60, 100
2, 35760, Note_on_c, 0, 58, 100
2, 35760, Note_on_c, 0, 55, 100
2, 35760, Note_on_c, 0, 41, 100
2, 35988, Note_on_c, 0, 41, 0
2, 35988, Note_on_c, 0, 55, 0
2, 35988, Note_on_c, 0, 58, 0
2, 35988, Note_on_c, 0, 60, 0
2, 36000, Note_on_c, 0, 60, 100
2, 36000, Note_on_c, 0, 57, 100
2, 36000, Note_on_c, 0, 53, 100
2, 36000, Note_on_c, 0, 41, 100
2, 36228, Note_on_c, 0, 41, 0
2, 36228, Note_on_c, 0, 53, 0
2, 36228, Note_on_c, 0, 57, 0
2, 36228, Note_on_c, 0, 60, 0
2, 36480, Note_on_c, 0, 61, 100
2, 36480, Note_on_c, 0, 57, 100
2, 36480, Note_on_c, 0, 52, 100
2, 36480, Note_on_c, 0, 45, 100
2, 36936, Note_on_c, 0, 45, 0
2, 36936, Note_on_c, 0, 52, 0
2, 36936, Note_on_c, 0, 57, 0
2, 36936, Note_on_c, 0, 61, 0
2, 36960, Note_on_c, 0, 62, 100
2, 36960, Note_on_c, 0, 57, 100
2, 36960, Note_on_c, 0, 53, 100
2, 36960, Note_on_c, 0, 45, 100
2, 37416, Note_on_c, 0, 45, 0
2, 37416, Note_on_c, 0, 53, 0
2, 37416, Note_on_c, 0, 57, 0
2, 37416, Note_on_c, 0, 62, 0
2, 37440, Note_on_c, 0, 45, 100
2, 37440, Note_on_c, 0, 57, 100
2, 37440, Note_on_c, 0, 52, 100
2, 37440, Note_on_c, 0, 61, 100
2, 37668, Note_on_c, 0, 52, 0
2, 37668, Note_on_c, 0, 57, 0
2, 37668, Note_on_c, 0, 45, 0
2, 37680, Note_on_c, 0, 43, 100
2, 37680, Note_on_c, 0, 52, 100
2, 37680, Note_on_c, 0, 58, 100
2, 37896, Note_on_c, 0, 61, 0
2, 37908, Note_on_c, 0, 58, 0
2, 37908, Note_on_c, 0, 52, 0
2, 37908, Note_on_c, 0, 43, 0
2, 37920, Note_on_c, 0, 62, 100
2, 37920, Note_on_c, 0, 57, 100
2, 37920, Note_on_c, 0, 53, 100
2, 37920, Note_on_c, 0, 41, 100
2, 38376, Note_on_c, 0, 41, 0
2, 38376, Note_on_c, 0, 53, 0
2, 38376, Note_on_c, 0, 57, 0
2, 38376, Note_on_c, 0, 62, 0
2, 38640, Note_on_c, 0, 40, 100
2, 38640, Note_on_c, 0, 55, 100
2, 38640, Note_on_c, 0, 58, 100
2, 38640, Note_on_c, 0, 61, 100
2, 38868, Note_on_c, 0, 61, 0
2, 38868, Note_on_c, 0, 58, 0
2, 38868, Note_on_c, 0, 55, 0
2, 38868, Note_on_c, 0, 40, 0
2, 38880, Note_on_c, 0, 41, 100
2, 38880, Note_on_c, 0, 57, 100
2, 38880, Note_on_c, 0, 62, 100
2, 39108, Note_on_c, 0, 57, 0
2, 39108, Note_on_c, 0, 41, 0
2, 39120, Note_on_c, 0, 43, 100
2, 39120, Note_on_c, 0, 58, 100
2, 39336, Note_on_c, 0, 62, 0
2, 39348, Note_on_c, 0, 58, 0
2, 39348, Note_on_c, 0, 43, 0
2, 39360, Note_on_c, 0, 45, 100
2, 39360, Note_on_c, 0, 57, 100
2, 39360, Note_on_c, 0, 52, 100
2, 39360, Note_on_c, 0, 62, 100
2, 39588, Note_on_c, 0, 62, 0
2, 39600, Note_on_c, 0, 61, 100
2, 39816, Note_on_c, 0, 52, 0
2, 39816, Note_on_c, 0, 57, 0
2, 39816, Note_on_c, 0, 45, 0
2, 39828, Note_on_c, 0, 61, 0
2, 39840, Note_on_c, 0, 38, 100
2, 39840, Note_on_c, 0, 62, 100
2, 39840, Note_on_c, 0, 57, 100
2, 39840, Note_on_c, 0, 53, 100
2, 40296, Note_on_c, 0, 53, 0
2, 40296, Note_on_c, 0, 57, 0
2, 40296, Note_on_c, 0, 62, 0
2, 40296, Note_on_c, 0, 38, 0
2, 40320, Key_signature, -1, "major"
2, 40320, Control_c, 0, 7, 102
2, 40320, Control_c, 0, 0, 0
2, 40320, Control_c, 0, 32, 0
2, 40320, Program_c, 0, 0
2, 40320, Control_c, 0, 1, 0
2, 40320, Control_c, 0, 10, 64
2, 40320, Control_c, 0, 91, 0
2, 40320, Control_c, 0, 93, 0
2, 40320, Note_on_c, 0, 69, 100
2, 40320, Note_on_c, 0, 81, 100
2, 40548, Note_on_c, 0, 81, 0
2, 40548, Note_on_c, 0, 69, 0
2, 40560, Note_on_c, 0, 74, 100
2, 40560, Note_on_c, 0, 62, 100
2, 40560, Note_on_c, 0, 65, 100
2, 40788, Note_on_c, 0, 65, 0
2, 40788, Note_on_c, 0, 62, 0
2, 40788, Note_on_c, 0, 74, 0
2, 40800, Note_on_c, 0, 76, 100
2, 40800, Note_on_c, 0, 64, 100
2, 40800, Note_on_c, 0, 57, 100
2, 41028, Note_on_c, 0, 57, 0
2, 41028, Note_on_c, 0, 64, 0
2, 41028, Note_on_c, 0, 76, 0
2, 41040, Note_on_c, 0, 69, 100
2, 41250, Note_on_c, 0, 69, 100
2, 41268, Note_on_c, 0, 69, 0
2, 41280, Note_on_c, 0, 55, 100
2, 41280, Note_on_c, 0, 67, 100
2, 41394, Note_on_c, 0, 67, 0
2, 41394, Note_on_c, 0, 55, 0
2, 41400, Note_on_c, 0, 53, 100
2, 41400, Note_on_c, 0, 65, 100
2, 41514, Note_on_c, 0, 65, 0
2, 41514, Note_on_c, 0, 53, 0
2, 41520, Note_on_c, 0, 69, 0
2, 41520, Note_on_c, 0, 52, 100
2, 41520, Note_on_c, 0, 64, 100
2, 41634, Note_on_c, 0, 64, 0
2, 41634, Note_on_c, 0, 52, 0
2, 41640, Note_on_c, 0, 50, 100
2, 41640, Note_on_c, 0, 62, 100
2, 41754, Note_on_c, 0, 62, 0
2, 41754, Note_on_c, 0, 50, 0
2, 41760, Note_on_c, 0, 52, 100
2, 41760, Note_on_c, 0, 64, 100
2, 41988, Note_on_c, 0, 64, 0
2, 41988, Note_on_c, 0, 52, 0
2, 42000, Note_on_c, 0, 45, 100
2, 42000, Note_on_c, 0, 57, 100
2, 42048, Control_c, 0, 7, 103
2, 42144, Control_c, 0, 7, 104
2, 42228, Note_on_c, 0, 45, 0
2, 42240, Control_c, 0, 7, 105
2, 42240, Note_on_c, 0, 61, 100
2, 42240, Note_on_c, 0, 69, 100
2, 42240, Note_on_c, 0, 45, 100
2, 42240, Note_on_c, 0, 52, 100
2, 42320, Control_c, 0, 7, 106
2, 42416, Control_c, 0, 7, 107
2, 42496, Control_c, 0, 7, 108
2, 42592, Control_c, 0, 7, 109
2, 42684, Note_on_c, 0, 57, 0
2, 42688, Control_c, 0, 7, 110
2, 42696, Note_on_c, 0, 52, 0
2, 42696, Note_on_c, 0, 45, 0
2, 42696, Note_on_c, 0, 69, 0
2, 42696, Note_on_c, 0, 61, 0
2, 42720, Note_on_c, 0, 50, 100
2, 42720, Note_on_c, 0, 69, 100
2, 42720, Note_on_c, 0, 62, 100
2, 42872, Control_c, 0, 7, 109
2, 42904, Control_c, 0, 7, 108
2, 42948, Note_on_c, 0, 62, 0
2, 42952, Control_c, 0, 7, 107
2, 42960, Note_on_c, 0, 58, 100
2, 43000, Control_c, 0, 7, 106
2, 43032, Control_c, 0, 7, 105
2, 43080, Control_c, 0, 7, 104
2, 43128, Control_c, 0, 7, 103
2, 43140, Note_on_c, 0, 60, 100
2, 43160, Control_c, 0, 7, 102
2, 43168, Note_on_c, 0, 60, 0
2, 43170, Note_on_c, 0, 58, 100
2, 43176, Note_on_c, 0, 69, 0
2, 43176, Note_on_c, 0, 50, 0
2, 43188, Note_on_c, 0, 58, 0
2, 43200, Note_on_c, 0, 57, 100
2, 43200, Note_on_c, 0, 69, 100
2, 43200, Note_on_c, 0, 52, 100
2, 43200, Note_on_c, 0, 45, 100
2, 43208, Control_c, 0, 7, 101
2, 43240, Control_c, 0, 7, 100
2, 43288, Control_c, 0, 7, 99
2, 43336, Control_c, 0, 7, 98
2, 43368, Control_c, 0, 7, 97
2, 43416, Control_c, 0, 7, 96
2, 43440, Note_on_c, 0, 58, 0
2, 43464, Control_c, 0, 7, 95
2, 43496, Control_c, 0, 7, 94
2, 43544, Control_c, 0, 7, 93
2, 43576, Control_c, 0, 7, 92
2, 43624, Control_c, 0, 7, 91
2, 43672, Control_c, 0, 7, 90
2, 44136, Note_on_c, 0, 45, 0
2, 44136, Note_on_c, 0, 52, 0
2, 44136, Note_on_c, 0, 69, 0
2, 44136, Note_on_c, 0, 57, 0
2, 44160, Note_on_c, 0, 69, 100
2, 44160, Note_on_c, 0, 65, 100
2, 44160, Note_on_c, 0, 50, 100
2, 44160, Note_on_c, 0, 57, 100
2, 44388, Note_on_c, 0, 57, 0
2, 44388, Note_on_c, 0, 50, 0
2, 44388, Note_on_c, 0, 65, 0
2, 44388, Note_on_c, 0, 69, 0
2, 44400, Note_on_c, 0, 67, 100
2, 44400, Note_on_c, 0, 64, 100
2, 44400, Note_on_c, 0, 49, 100
2, 44400, Note_on_c, 0, 58, 100
2, 44628, Note_on_c, 0, 58, 0
2, 44628, Note_on_c, 0, 49, 0
2, 44628, Note_on_c, 0, 64, 0
2, 44628, Note_on_c, 0, 67, 0
2, 44640, Note_on_c, 0, 65, 100
2, 44640, Note_on_c, 0, 62, 100
2, 44640, Note_on_c, 0, 50, 100
2, 44640, Note_on_c, 0, 57, 100
2, 44868, Note_on_c, 0, 57, 0
2, 44868, Note_on_c, 0, 50, 0
2, 44868, Note_on_c, 0, 62, 0
2, 44868, Note_on_c, 0, 65, 0
2, 44880, Note_on_c, 0, 64, 100
2, 44880, Note_on_c, 0, 61, 100
2, 44880, Note_on_c, 0, 45, 100
2, 44880, Note_on_c, 0, 55, 100
2, 45108, Note_on_c, 0, 55, 0
2, 45108, Note_on_c, 0, 45, 0
2, 45108, Note_on_c, 0, 61, 0
2, 45108, Note_on_c, 0, 64, 0
2, 45120, Note_on_c, 0, 62, 100
2, 45120, Note_on_c, 0, 46, 100
2, 45120, Note_on_c, 0, 53, 100
2, 45348, Note_on_c, 0, 53, 0
2, 45348, Note_on_c, 0, 46, 0
2, 45348, Note_on_c, 0, 62, 0
2, 45360, Note_on_c, 0, 64, 100
2, 45360, Note_on_c, 0, 61, 100
2, 45360, Note_on_c, 0, 45, 100
2, 45474, Note_on_c, 0, 45, 0
2, 45480, Note_on_c, 0, 43, 100
2, 45588, Note_on_c, 0, 61, 0
2, 45588, Note_on_c, 0, 64, 0
2, 45594, Note_on_c, 0, 43, 0
2, 45600, Note_on_c, 0, 65, 100
2, 45600, Note_on_c, 0, 62, 100
2, 45600, Note_on_c, 0, 41, 100
2, 45714, Note_on_c, 0, 41, 0
2, 45720, Note_on_c, 0, 40, 100
2, 45828, Note_on_c, 0, 62, 0
2, 45828, Note_on_c, 0, 65, 0
2, 45834, Note_on_c, 0, 40, 0
2, 45840, Note_on_c, 0, 65, 100
2, 45840, Note_on_c, 0, 62, 100
2, 45840, Note_on_c, 0, 38, 100
2, 45840, Note_on_c, 0, 57, 100
2, 46068, Note_on_c, 0, 57, 0
2, 46068, Note_on_c, 0, 38, 0
2, 46068, Note_on_c, 0, 62, 0
2, 46068, Note_on_c, 0, 65, 0
2, 46080, Note_on_c, 0, 64, 100
2, 46080, Note_on_c, 0, 67, 100
2, 46080, Note_on_c, 0, 48, 100
2, 46080, Note_on_c, 0, 36, 100
2, 46080, Note_on_c, 0, 60, 100
2, 46080, Note_on_c, 0, 55, 100
2, 46308, Note_on_c, 0, 55, 0
2, 46308, Note_on_c, 0, 60, 0
2, 46320, Note_on_c, 0, 58, 100
2, 46320, Note_on_c, 0, 62, 100
2, 46536, Note_on_c, 0, 36, 0
2, 46536, Note_on_c, 0, 48, 0
2, 46536, Note_on_c, 0, 67, 0
2, 46536, Note_on_c, 0, 64, 0
2, 46548, Note_on_c, 0, 62, 0
2, 46548, Note_on_c, 0, 58, 0
2, 46560, Note_on_c, 0, 65, 100
2, 46560, Note_on_c, 0, 60, 100
2, 46560, Note_on_c, 0, 57, 100
2, 46560, Note_on_c, 0, 41, 100
2, 47016, Note_on_c, 0, 41, 0
2, 47016, Note_on_c, 0, 57, 0
2, 47016, Note_on_c, 0, 60, 0
2, 47016, Note_on_c, 0, 65, 0
2, 47040, Note_on_c, 0, 65, 100
2, 47040, Note_on_c, 0, 43, 100
2, 47040, Note_on_c, 0, 58, 100
2, 47268, Note_on_c, 0, 65, 0
2, 47280, Note_on_c, 0, 64, 100
2, 47496, Note_on_c, 0, 58, 0
2, 47496, Note_on_c, 0, 43, 0
2, 47508, Note_on_c, 0, 64, 0
2, 47520, Note_on_c, 0, 62, 100
2, 47520, Note_on_c, 0, 45, 100
2, 47520, Note_on_c, 0, 57, 100
2, 47748, Note_on_c, 0, 62, 0
2, 47760, Note_on_c, 0, 61, 100
2, 47976, Note_on_c, 0, 57, 0
2, 47976, Note_on_c, 0, 45, 0
2, 47988, Note_on_c, 0, 61, 0
2, 48000, Note_on_c, 0, 60, 100
2, 48000, Note_on_c, 0, 57, 100
2, 48000, Note_on_c, 0, 53, 100
2, 48000, Note_on_c, 0, 48, 100
2, 48000, Note_on_c, 0, 41, 100
2, 48456, Note_on_c, 0, 41, 0
2, 48456, Note_on_c, 0, 48, 0
2, 48456, Note_on_c, 0, 53, 0
2, 48456, Note_on_c, 0, 57, 0
2, 48456, Note_on_c, 0, 60, 0
2, 48480, Note_on_c, 0, 41, 100
2, 48480, Note_on_c, 0, 48, 100
2, 48480, Note_on_c, 0, 60, 100
2, 48480, Note_on_c, 0, 57, 100
2, 48480, Note_on_c, 0, 53, 100
2, 48708, Note_on_c, 0, 53, 0
2, 48708, Note_on_c, 0, 57, 0
2, 48708, Note_on_c, 0, 60, 0
2, 48708, Note_on_c, 0, 48, 0
2, 48708, Note_on_c, 0, 41, 0
2, 48720, Note_on_c, 0, 48, 100
2, 48720, Note_on_c, 0, 41, 100
2, 48720, Note_on_c, 0, 57, 100
2, 48720, Note_on_c, 0, 60, 100
2, 48948, Note_on_c, 0, 60, 0
2, 48948, Note_on_c, 0, 57, 0
2, 48948, Note_on_c, 0, 41, 0
2, 48948, Note_on_c, 0, 48, 0
2, 48960, Note_on_c, 0, 58, 100
2, 48960, Note_on_c, 0, 60, 100
2, 48960, Note_on_c, 0, 48, 100
2, 48960, Note_on_c, 0, 41, 100
2, 49188, Note_on_c, 0, 41, 0
2, 49188, Note_on_c, 0, 48, 0
2, 49188, Note_on_c, 0, 60, 0
2, 49188, Note_on_c, 0, 58, 0
2, 49200, Note_on_c, 0, 60, 100
2, 49200, Note_on_c, 0, 58, 100
2, 49200, Note_on_c, 0, 55, 100
2, 49200, Note_on_c, 0, 41, 100
2, 49428, Note_on_c, 0, 41, 0
2, 49428, Note_on_c, 0, 55, 0
2, 49428, Note_on_c, 0, 58, 0
2, 49428, Note_on_c, 0, 60, 0
2, 49440, Note_on_c, 0, 60, 100
2, 49440, Note_on_c, 0, 57, 100
2, 49440, Note_on_c, 0, 53, 100
2, 49440, Note_on_c, 0, 41, 100
2, 49668, Note_on_c, 0, 41, 0
2, 49668, Note_on_c, 0, 53, 0
2, 49668, Note_on_c, 0, 57, 0
2, 49668, Note_on_c, 0, 60, 0
2, 49920, Note_on_c, 0, 61, 100
2, 49920, Note_on_c, 0, 57, 100
2, 49920, Note_on_c, 0, 52, 100
2, 49920, Note_on_c, 0, 45, 100
2, 50376, Note_on_c, 0, 45, 0
2, 50376, Note_on_c, 0, 52, 0
2, 50376, Note_on_c, 0, 57, 0
2, 50376, Note_on_c, 0, 61, 0
2, 50400, Note_on_c, 0, 62, 100
2, 50400, Note_on_c, 0, 57, 100
2, 50400, Note_on_c, 0, 53, 100
2, 50400, Note_on_c, 0, 45, 100
2, 50856, Note_on_c, 0, 45, 0
2, 50856, Note_on_c, 0, 53, 0
2, 50856, Note_on_c, 0, 57, 0
2, 50856, Note_on_c, 0, 62, 0
2, 50880, Note_on_c, 0, 45, 100
2, 50880, Note_on_c, 0, 57, 100
2, 50880, Note_on_c, 0, 52, 100
2, 50880, Note_on_c, 0, 61, 100
2, 51108, Note_on_c, 0, 52, 0
2, 51108, Note_on_c, 0, 57, 0
2, 51108, Note_on_c, 0, 45, 0
2, 51120, Note_on_c, 0, 43, 100
2, 51120, Note_on_c, 0, 52, 100
2, 51120, Note_on_c, 0, 58, 100
2, 51336, Note_on_c, 0, 61, 0
2, 51348, Note_on_c, 0, 58, 0
2, 51348, Note_on_c, 0, 52, 0
2, 51348, Note_on_c, 0, 43, 0
2, 51360, Note_on_c, 0, 62, 100
2, 51360, Note_on_c, 0, 57, 100
2, 51360, Note_on_c, 0, 53, 100
2, 51360, Note_on_c, 0, 41, 100
2, 51816, Note_on_c, 0, 41, 0
2, 51816, Note_on_c, 0, 53, 0
2, 51816, Note_on_c, 0, 57, 0
2, 51816, Note_on_c, 0, 62, 0
2, 52080, Note_on_c, 0, 40, 100
2, 52080, Note_on_c, 0, 55, 100
2, 52080, Note_on_c, 0, 58, 100
2, 52080, Note_on_c, 0, 61, 100
2, 52308, Note_on_c, 0, 61, 0
2, 52308, Note_on_c, 0, 58, 0
2, 52308, Note_on_c, 0, 55, 0
2, 52308, Note_on_c, 0, 40, 0
2, 52320, Note_on_c, 0, 41, 100
2, 52320, Note_on_c, 0, 57, 100
2, 52320, Note_on_c, 0, 62, 100
2, 52548, Note_on_c, 0, 57, 0
2, 52548, Note_on_c, 0, 41, 0
2, 52560, Note_on_c, 0, 43, 100
2, 52560, Note_on_c, 0, 58, 100
2, 52776, Note_on_c, 0, 62, 0
2, 52788, Note_on_c, 0, 58, 0
2, 52788, Note_on_c, 0, 43, 0
2, 52800, Note_on_c, 0, 45, 100
2, 52800, Note_on_c, 0, 57, 100
2, 52800, Note_on_c, 0, 52, 100
2, 52800, Note_on_c, 0, 62, 100
2, 53028, Note_on_c, 0, 62, 0
2, 53040, Note_on_c, 0, 61, 100
2, 53256, Note_on_c, 0, 52, 0
2, 53256, Note_on_c, 0, 57, 0
2, 53256, Note_on_c, 0, 45, 0
2, 53268, Note_on_c, 0, 61, 0
2, 53280, Note_on_c, 0, 38, 100
2, 53280, Note_on_c, 0, 62, 100
2, 53280, Note_on_c, 0, 57, 100
2, 53280, Note_on_c, 0, 53, 100
2, 53736, Note_on_c, 0, 53, 0
2, 53736, Note_on_c, 0, 57, 0
2, 53736, Note_on_c, 0, 62, 0
2, 53736, Note_on_c, 0, 38, 0
2, 53760, Control_c, 0, 7, 102
2, 53760, Key_signature, -1, "major"
2, 53760, Note_on_c, 0, 69, 100
2, 53760, Note_on_c, 0, 81, 100
2, 53988, Note_on_c, 0, 81, 0
2, 53988, Note_on_c, 0, 69, 0
2, 54000, Note_on_c, 0, 74, 100
2, 54000, Note_on_c, 0, 62, 100
2, 54000, Note_on_c, 0, 65, 100
2, 54228, Note_on_c, 0, 65, 0
2, 54228, Note_on_c, 0, 62, 0
2, 54228, Note_on_c, 0, 74, 0
2, 54240, Note_on_c, 0, 76, 100
2, 54240, Note_on_c, 0, 64, 100
2, 54240, Note_on_c, 0, 57, 100
2, 54468, Note_on_c, 0, 57, 0
2, 54468, Note_on_c, 0, 64, 0
2, 54468, Note_on_c, 0, 76, 0
2, 54480, Note_on_c, 0, 69, 100
2, 54690, Note_on_c, 0, 69, 100
2, 54708, Note_on_c, 0, 69, 0
2, 54720, Note_on_c, 0, 55, 100
2, 54720, Note_on_c, 0, 67, 100
2, 54834, Note_on_c, 0, 67, 0
2, 54834, Note_on_c, 0, 55, 0
2, 54840, Note_on_c, 0, 53, 100
2, 54840, Note_on_c, 0, 65, 100
2, 54954, Note_on_c, 0, 65, 0
2, 54954, Note_on_c, 0, 53, 0
2, 54960, Note_on_c, 0, 69, 0
2, 54960, Note_on_c, 0, 52, 100
2, 54960, Note_on_c, 0, 64, 100
2, 55074, Note_on_c, 0, 64, 0
2, 55074, Note_on_c, 0, 52, 0
2, 55080, Note_on_c, 0, 50, 100
2, 55080, Note_on_c, 0, 62, 100
2, 55194, Note_on_c, 0, 62, 0
2, 55194, Note_on_c, 0, 50, 0
2, 55200, Note_on_c, 0, 52, 100
2, 55200, Note_on_c, 0, 64, 100
2, 55428, Note_on_c, 0, 64, 0
2, 55428, Note_on_c, 0, 52, 0
2, 55440, Note_on_c, 0, 45, 100
2, 55440, Note_on_c, 0, 57, 100
2, 55488, Control_c, 0, 7, 103
2, 55584, Control_c, 0, 7, 104
2, 55668, Note_on_c, 0, 45, 0
2, 55680, Control_c, 0, 7, 105
2, 55680, Note_on_c, 0, 61, 100
2, 55680, Note_on_c, 0, 69, 100
2, 55680, Note_on_c, 0, 45, 100
2, 55680, Note_on_c, 0, 52, 100
2, 55760, Control_c, 0, 7, 106
2, 55856, Control_c, 0, 7, 107
2, 55936, Control_c, 0, 7, 108
2, 56032, Control_c, 0, 7, 109
2, 56124, Note_on_c, 0, 57, 0
2, 56128, Control_c, 0, 7, 110
2, 56136, Note_on_c, 0, 52, 0
2, 56136, Note_on_c, 0, 45, 0
2, 56136, Note_on_c, 0, 69, 0
2, 56136, Note_on_c, 0, 61, 0
2, 56160, Note_on_c, 0, 50, 100
2, 56160, Note_on_c, 0, 69, 100
2, 56160, Note_on_c, 0, 62, 100
2, 56312, Control_c, 0, 7, 109
2, 56344, Control_c, 0, 7, 108
2, 56388, Note_on_c, 0, 62, 0
2, 56392, Control_c, 0, 7, 107
2, 56400, Note_on_c, 0, 58, 100
2, 56440, Control_c, 0, 7, 106
2, 56472, Control_c, 0, 7, 105
2, 56520, Control_c, 0, 7, 104
2, 56568, Control_c, 0, 7, 103
2, 56580, Note_on_c, 0, 60, 100
2, 56600, Control_c, 0, 7, 102
2, 56608, Note_on_c, 0, 60, 0
2, 56610, Note_on_c, 0, 58, 100
2, 56616, Note_on_c, 0, 69, 0
2, 56616, Note_on_c, 0, 50, 0
2, 56628, Note_on_c, 0, 58, 0
2, 56640, Note_on_c, 0, 57, 100
2, 56640, Note_on_c, 0, 69, 100
2, 56640, Note_on_c, 0, 52, 100
2, 56640, Note_on_c, 0, 45, 100
2, 56648, Control_c, 0, 7, 101
2, 56680, Control_c, 0, 7, 100
2, 56728, Control_c, 0, 7, 99
2, 56776, Control_c, 0, 7, 98
2, 56808, Control_c, 0, 7, 97
2, 56856, Control_c, 0, 7, 96
2, 56880, Note_on_c, 0, 58, 0
2, 56904, Control_c, 0, 7, 95
2, 56936, Control_c, 0, 7, 94
2, 56984, Control_c, 0, 7, 93
2, 57016, Control_c, 0, 7, 92
2, 57064, Control_c, 0, 7, 91
2, 57112, Control_c, 0, 7, 90
2, 57576, Note_on_c, 0, 45, 0
2, 57576, Note_on_c, 0, 52, 0
2, 57576, Note_on_c, 0, 69, 0
2, 57576, Note_on_c, 0, 57, 0
2, 57600, Note_on_c, 0, 69, 100
2, 57600, Note_on_c, 0, 65, 100
2, 57600, Note_on_c, 0, 50, 100
2, 57600, Note_on_c, 0, 57, 100
2, 57828, Note_on_c, 0, 57, 0
2, 57828, Note_on_c, 0, 50, 0
2, 57828, Note_on_c, 0, 65, 0
2, 57828, Note_on_c, 0, 69, 0
2, 57840, Note_on_c, 0, 67, 100
2, 57840, Note_on_c, 0, 64, 100
2, 57840, Note_on_c, 0, 49, 100
2, 57840, Note_on_c, 0, 58, 100
2, 58068, Note_on_c, 0, 58, 0
2, 58068, Note_on_c, 0, 49, 0
2, 58068, Note_on_c, 0, 64, 0
2, 58068, Note_on_c, 0, 67, 0
2, 58080, Note_on_c, 0, 65, 100
2, 58080, Note_on_c, 0, 62, 100
2, 58080, Note_on_c, 0, 50, 100
2, 58080, Note_on_c, 0, 57, 100
2, 58308, Note_on_c, 0, 57, 0
2, 58308, Note_on_c, 0, 50, 0
2, 58308, Note_on_c, 0, 62, 0
2, 58308, Note_on_c, 0, 65, 0
2, 58320, Note_on_c, 0, 64, 100
2, 58320, Note_on_c, 0, 61, 100
2, 58320, Note_on_c, 0, 45, 100
2, 58320, Note_on_c, 0, 55, 100
2, 58548, Note_on_c, 0, 55, 0
2, 58548, Note_on_c, 0, 45, 0
2, 58548, Note_on_c, 0, 61, 0
2, 58548, Note_on_c, 0, 64, 0
2, 58560, Note_on_c, 0, 62, 100
2, 58560, Note_on_c, 0, 46, 100
2, 58560, Note_on_c, 0, 53, 100
2, 58788, Note_on_c, 0, 53, 0
2, 58788, Note_on_c, 0, 46, 0
2, 58788, Note_on_c, 0, 62, 0
2, 58800, Note_on_c, 0, 64, 100
2, 58800, Note_on_c, 0, 61, 100
2, 58800, Note_on_c, 0, 45, 100
2, 58914, Note_on_c, 0, 45, 0
2, 58920, Note_on_c, 0, 43, 100
2, 59028, Note_on_c, 0, 61, 0
2, 59028, Note_on_c, 0, 64, 0
2, 59034, Note_on_c, 0, 43, 0
2, 59040, Note_on_c, 0, 65, 100
2, 59040, Note_on_c, 0, 62, 100
2, 59040, Note_on_c, 0, 41, 100
2, 59154, Note_on_c, 0, 41, 0
2, 59160, Note_on_c, 0, 40, 100
2, 59268, Note_on_c, 0, 62, 0
2, 59268, Note_on_c, 0, 65, 0
2, 59274, Note_on_c, 0, 40, 0
2, 59280, Note_on_c, 0, 65, 100
2, 59280, Note_on_c, 0, 62, 100
2, 59280, Note_on_c, 0, 38, 100
2, 59280, Note_on_c, 0, 57, 100
2, 59508, Note_on_c, 0, 57, 0
2, 59508, Note_on_c, 0, 38, 0
2, 59508, Note_on_c, 0, 62, 0
2, 59508, Note_on_c, 0, 65, 0
2, 59520, Note_on_c, 0, 64, 100
2, 59520, Note_on_c, 0, 67, 100
2, 59520, Note_on_c, 0, 48, 100
2, 59520, Note_on_c, 0, 36, 100
2, 59520, Note_on_c, 0, 60, 100
2, 59520, Note_on_c, 0, 55, 100
2, 59748, Note_on_c, 0, 55, 0
2, 59748, Note_on_c, 0, 60, 0
2, 59760, Note_on_c, 0, 58, 100
2, 59760, Note_on_c, 0, 62, 100
2, 59976, Note_on_c, 0, 36, 0
2, 59976, Note_on_c, 0, 48, 0
2, 59976, Note_on_c, 0, 67, 0
2, 59976, Note_on_c, 0, 64, 0
2, 59988, Note_on_c, 0, 62, 0
2, 59988, Note_on_c, 0, 58, 0
2, 60000, Note_on_c, 0, 65, 100
2, 60000, Note_on_c, 0, 60, 100
2, 60000, Note_on_c, 0, 57, 100
2, 60000, Note_on_c, 0, 41, 100
2, 60456, Note_on_c, 0, 41, 0
2, 60456, Note_on_c, 0, 57, 0
2, 60456, Note_on_c, 0, 60, 0
2, 60456, Note_on_c, 0, 65, 0
2, 60480, Note_on_c, 0, 65, 100
2, 60480, Note_on_c, 0, 43, 100
2, 60480, Note_on_c, 0, 58, 100
2, 60708, Note_on_c, 0, 65, 0
2, 60720, Note_on_c, 0, 64, 100
2, 60936, Note_on_c, 0, 58, 0
2, 60936, Note_on_c, 0, 43, 0
2, 60948, Note_on_c, 0, 64, 0
2, 60960, Note_on_c, 0, 62, 100
2, 60960, Note_on_c, 0, 45, 100
2, 60960, Note_on_c, 0, 57, 100
2, 61188, Note_on_c, 0, 62, 0
2, 61200, Note_on_c, 0, 61, 100
2, 61416, Note_on_c, 0, 57, 0
2, 61416, Note_on_c, 0, 45, 0
2, 61428, Note_on_c, 0, 61, 0
2, 61440, Note_on_c, 0, 60, 100
2, 61440, Note_on_c, 0, 57, 100
2, 61440, Note_on_c, 0, 53, 100
2, 61440, Note_on_c, 0, 48, 100
2, 61440, Note_on_c, 0, 41, 100
2, 61896, Note_on_c, 0, 41, 0
2, 61896, Note_on_c, 0, 48, 0
2, 61896, Note_on_c, 0, 53, 0
2, 61896, Note_on_c, 0, 57, 0
2, 61896, Note_on_c, 0, 60, 0
2, 61920, Note_on_c, 0, 41, 100
2, 61920, Note_on_c, 0, 48, 100
2, 61920, Note_on_c, 0, 60, 100
2, 61920, Note_on_c, 0, 57, 100
2, 61920, Note_on_c, 0, 53, 100
2, 62148, Note_on_c, 0, 53, 0
2, 62148, Note_on_c, 0, 57, 0
2, 62148, Note_on_c, 0, 60, 0
2, 62148, Note_on_c, 0, 48, 0
2, 62148, Note_on_c, 0, 41, 0
2, 62160, Note_on_c, 0, 48, 100
2, 62160, Note_on_c, 0, 41, 100
2, 62160, Note_on_c, 0, 57, 100
2, 62160, Note_on_c, 0, 60, 100
2, 62388, Note_on_c, 0, 60, 0
2, 62388, Note_on_c, 0, 57, 0
2, 62388, Note_on_c, 0, 41, 0
2, 62388, Note_on_c, 0, 48, 0
2, 62400, Note_on_c, 0, 58, 100
2, 62400, Note_on_c, 0, 60, 100
2, 62400, Note_on_c, 0, 48, 100
2, 62400, Note_on_c, 0, 41, 100
2, 62628, Note_on_c, 0, 41, 0
2, 62628, Note_on_c, 0, 48, 0
2, 62628, Note_on_c, 0, 60, 0
2, 62628, Note_on_c, 0, 58, 0
2, 62640, Note_on_c, 0, 60, 100
2, 62640, Note_on_c, 0, 58, 100
2, 62640, Note_on_c, 0, 55, 100
2, 62640, Note_on_c, 0, 41, 100
2, 62868, Note_on_c, 0, 41, 0
2, 62868, Note_on_c, 0, 55, 0
2, 62868, Note_on_c, 0, 58, 0
2, 62868, Note_on_c, 0, 60, 0
2, 62880, Note_on_c, 0, 60, 100
2, 62880, Note_on_c, 0, 57, 100
2, 62880, Note_on_c, 0, 53, 100
2, 62880, Note_on_c, 0, 41, 100
2, 63108, Note_on_c, 0, 41, 0
2, 63108, Note_on_c, 0, 53, 0
2, 63108, Note_on_c, 0, 57, 0
2, 63108, Note_on_c, 0, 60, 0
2, 63360, Note_on_c, 0, 61, 100
2, 63360, Note_on_c, 0, 57, 100
2, 63360, Note_on_c, 0, 52, 100
2, 63360, Note_on_c, 0, 45, 100
2, 63816, Note_on_c, 0, 45, 0
2, 63816, Note_on_c, 0, 52, 0
2, 63816, Note_on_c, 0, 57, 0
2, 63816, Note_on_c, 0, 61, 0
2, 63840, Note_on_c, 0, 62, 100
2, 63840, Note_on_c, 0, 57, 100
2, 63840, Note_on_c, 0, 53, 100
2, 63840, Note_on_c, 0, 45, 100
2, 64296, Note_on_c, 0, 45, 0
2, 64296, Note_on_c, 0, 53, 0
2, 64296, Note_on_c, 0, 57, 0
2, 64296, Note_on_c, 0, 62, 0
2, 64320, Note_on_c, 0, 45, 100
2, 64320, Note_on_c, 0, 57, 100
2, 64320, Note_on_c, 0, 52, 100
2, 64320, Note_on_c, 0, 61, 100
2, 64548, Note_on_c, 0, 52, 0
2, 64548, Note_on_c, 0, 57, 0
2, 64548, Note_on_c, 0, 45, 0
2, 64560, Note_on_c, 0, 43, 100
2, 64560, Note_on_c, 0, 52, 100
2, 64560, Note_on_c, 0, 58, 100
2, 64776, Note_on_c, 0, 61, 0
2, 64788, Note_on_c, 0, 58, 0
2, 64788, Note_on_c, 0, 52, 0
2, 64788, Note_on_c, 0, 43, 0
2, 64800, Note_on_c, 0, 62, 100
2, 64800, Note_on_c, 0, 57, 100
2, 64800, Note_on_c, 0, 53, 100
2, 64800, Note_on_c, 0, 41, 100
2, 65256, Note_on_c, 0, 41, 0
2, 65256, Note_on_c, 0, 53, 0
2, 65256, Note_on_c, 0, 57, 0
2, 65256, Note_on_c, 0, 62, 0
2, 65520, Note_on_c, 0, 40, 100
2, 65520, Note_on_c, 0, 55, 100
2, 65520, Note_on_c, 0, 58, 100
2, 65520, Note_on_c, 0, 61, 100
2, 65748, Note_on_c, 0, 61, 0
2, 65748, Note_on_c, 0, 58, 0
2, 65748, Note_on_c, 0, 55, 0
2, 65748, Note_on_c, 0, 40, 0
2, 65760, Note_on_c, 0, 41, 100
2, 65760, Note_on_c, 0, 57, 100
2, 65760, Note_on_c, 0, 62, 100
2, 65988, Note_on_c, 0, 57, 0
2, 65988, Note_on_c, 0, 41, 0
2, 66000, Note_on_c, 0, 43, 100
2, 66000, Note_on_c, 0, 58, 100
2, 66216, Note_on_c, 0, 62, 0
2, 66228, Note_on_c, 0, 58, 0
2, 66228, Note_on_c, 0, 43, 0
2, 66240, Note_on_c, 0, 45, 100
2, 66240, Note_on_c, 0, 57, 100
2, 66240, Note_on_c, 0, 52, 100
2, 66240, Note_on_c, 0, 62, 100
2, 66468, Note_on_c, 0, 62, 0
2, 66480, Note_on_c, 0, 61, 100
2, 66696, Note_on_c, 0, 52, 0
2, 66696, Note_on_c, 0, 57, 0
2, 66696, Note_on_c, 0, 45, 0
2, 66708, Note_on_c, 0, 61, 0
2, 66720, Note_on_c, 0, 38, 100
2, 66720, Note_on_c, 0, 62, 100
2, 66720, Note_on_c, 0, 57, 100
2, 66720, Note_on_c, 0, 53, 100
2, 67176, Note_on_c, 0, 53, 0
2, 67176, Note_on_c, 0, 57, 0
2, 67176, Note_on_c, 0, 62, 0
2, 67176, Note_on_c, 0, 38, 0
2, 67200, Control_c, 0, 7, 102
2, 67200, Key_signature, -1, "major"
2, 67200, Note_on_c, 0, 69, 100
2, 67200, Note_on_c, 0, 81, 100
2, 67428, Note_on_c, 0, 81, 0
2, 67428, Note_on_c, 0, 69, 0
2, 67440, Note_on_c, 0, 74, 100
2, 67440, Note_on_c, 0, 62, 100
2, 67440, Note_on_c, 0, 65, 100
2, 67668, Note_on_c, 0, 65, 0
2, 67668, Note_on_c, 0, 62, 0
2, 67668, Note_on_c, 0, 74, 0
2, 67680, Note_on_c, 0, 76, 100
2, 67680, Note_on_c, 0, 64, 100
2, 67680, Note_on_c, 0, 57, 100
2, 67908, Note_on_c, 0, 57, 0
2, 67908, Note_on_c, 0, 64, 0
2, 67908, Note_on_c, 0, 76, 0
2, 67920, Note_on_c, 0, 69, 100
2, 68130, Note_on_c, 0, 69, 100
2, 68148, Note_on_c, 0, 69, 0
2, 68160, Note_on_c, 0, 55, 100
2, 68160, Note_on_c, 0, 67, 100
2, 68274, Note_on_c, 0, 67, 0
2, 68274, Note_on_c, 0, 55, 0
2, 68280, Note_on_c, 0, 53, 100
2, 68280, Note_on_c, 0, 65, 100
2, 68394, Note_on_c, 0, 65, 0
2, 68394, Note_on_c, 0, 53, 0
2, 68400, Note_on_c, 0, 69, 0
2, 68400, Note_on_c, 0, 52, 100
2, 68400, Note_on_c, 0, 64, 100
2, 68514, Note_on_c, 0, 64, 0
2, 68514, Note_on_c, 0, 52, 0
2, 68520, Note_on_c, 0, 50, 100
2, 68520, Note_on_c, 0, 62, 100
2, 68634, Note_on_c, 0, 62, 0
2, 68634, Note_on_c, 0, 50, 0
2, 68640, Note_on_c, 0, 52, 100
2, 68640, Note_on_c, 0, 64, 100
2, 68868, Note_on_c, 0, 64, 0
2, 68868, Note_on_c, 0, 52, 0
2, 68880, Note_on_c, 0, 45, 100
2, 68880, Note_on_c, 0, 57, 100
2, 68928, Control_c, 0, 7, 103
2, 69024, Control_c, 0, 7, 104
2, 69108, Note_on_c, 0, 45, 0
2, 69120, Control_c, 0, 7, 105
2, 69120, Note_on_c, 0, 61, 100
2, 69120, Note_on_c, 0, 69, 100
2, 69120, Note_on_c, 0, 45, 100
2, 69120, Note_on_c, 0, 52, 100
2, 69200, Control_c, 0, 7, 106
2, 69296, Control_c, 0, 7, 107
2, 69376, Control_c, 0, 7, 108
2, 69472, Control_c, 0, 7, 109
2, 69564, Note_on_c, 0, 57, 0
2, 69568, Control_c, 0, 7, 110
2, 69576, Note_on_c, 0, 52, 0
2, 69576, Note_on_c, 0, 45, 0
2, 69576, Note_on_c, 0, 69, 0
2, 69576, Note_on_c, 0, 61, 0
2, 69600, Note_on_c, 0, 50, 100
2, 69600, Note_on_c, 0, 69, 100
2, 69600, Note_on_c, 0, 62, 100
2, 69752, Control_c, 0, 7, 109
2, 69784, Control_c, 0, 7, 108
2, 69828, Note_on_c, 0, 62, 0
2, 69832, Control_c, 0, 7, 107
2, 69840, Note_on_c, 0, 58, 100
2, 69880, Control_c, 0, 7, 106
2, 69912, Control_c, 0, 7, 105
2, 69960, Control_c, 0, 7, 104
2, 70008, Control_c, 0, 7, 103
2, 70020, Note_on_c, 0, 60, 100
2, 70040, Control_c, 0, 7, 102
2, 70048, Note_on_c, 0, 60, 0
2, 70050, Note_on_c, 0, 58, 100
2, 70056, Note_on_c, 0, 69, 0
2, 70056, Note_on_c, 0, 50, 0
2, 70068, Note_on_c, 0, 58, 0
2, 70080, Note_on_c, 0, 57, 100
2, 70080, Note_on_c, 0, 69, 100
2, 70080, Note_on_c, 0, 52, 100
2, 70080, Note_on_c, 0, 45, 100
2, 70088, Control_c, 0, 7, 101
2, 70120, Control_c, 0, 7, 100
2, 70168, Control_c, 0, 7, 99
2, 70216, Control_c, 0, 7, 98
2, 70248, Control_c, 0, 7, 97
2, 70296, Control_c, 0, 7, 96
2, 70320, Note_on_c, 0, 58, 0
2, 70344, Control_c, 0, 7, 95
2, 70376, Control_c, 0, 7, 94
2, 70424, Control_c, 0, 7, 93
2, 70456, Control_c, 0, 7, 92
2, 70504, Control_c, 0, 7, 91
2, 70552, Control_c, 0, 7, 90
2, 71016, Note_on_c, 0, 45, 0
2, 71016, Note_on_c, 0, 52, 0
2, 71016, Note_on_c, 0, 69, 0
2, 71016, Note_on_c, 0, 57, 0
2, 71040, Note_on_c, 0, 69, 100
2, 71040, Note_on_c, 0, 65, 100
2, 71040, Note_on_c, 0, 50, 100
2, 71040, Note_on_c, 0, 57, 100
2, 71268, Note_on_c, 0, 57, 0
2, 71268, Note_on_c, 0, 50, 0
2, 71268, Note_on_c, 0, 65, 0
2, 71268, Note_on_c, 0, 69, 0
2, 71280, Note_on_c, 0, 67, 100
2, 71280, Note_on_c, 0, 64, 100
2, 71280, Note_on_c, 0, 49, 100
2, 71280, Note_on_c, 0, 58, 100
2, 71508, Note_on_c, 0, 58, 0
2, 71508, Note_on_c, 0, 49, 0
2, 71508, Note_on_c, 0, 64, 0
2, 71508, Note_on_c, 0, 67, 0
2, 71520, Note_on_c, 0, 65, 100
2, 71520, Note_on_c, 0, 62, 100
2, 71520, Note_on_c, 0, 50, 100
2, 71520, Note_on_c, 0, 57, 100
2, 71748, Note_on_c, 0, 57, 0
2, 71748, Note_on_c, 0, 50, 0
2, 71748, Note_on_c, 0, 62, 0
2, 71748, Note_on_c, 0, 65, 0
2, 71760, Note_on_c, 0, 64, 100
2, 71760, Note_on_c, 0, 61, 100
2, 71760, Note_on_c, 0, 45, 100
2, 71760, Note_on_c, 0, 55, 100
2, 71988, Note_on_c, 0, 55, 0
2, 71988, Note_on_c, 0, 45, 0
2, 71988, Note_on_c, 0, 61, 0
2, 71988, Note_on_c, 0, 64, 0
2, 72000, Note_on_c, 0, 62, 100
2, 72000, Note_on_c, 0, 46, 100
2, 72000, Note_on_c, 0, 53, 100
2, 72228, Note_on_c, 0, 53, 0
2, 72228, Note_on_c, 0, 46, 0
2, 72228, Note_on_c, 0, 62, 0
2, 72240, Note_on_c, 0, 64, 100
2, 72240, Note_on_c, 0, 61, 100
2, 72240, Note_on_c, 0, 45, 100
2, 72354, Note_on_c, 0, 45, 0
2, 72360, Note_on_c, 0, 43, 100
2, 72468, Note_on_c, 0, 61, 0
2, 72468, Note_on_c, 0, 64, 0
2, 72474, Note_on_c, 0, 43, 0
2, 72480, Note_on_c, 0, 65, 100
2, 72480, Note_on_c, 0, 62, 100
2, 72480, Note_on_c, 0, 41, 100
2, 72594, Note_on_c, 0, 41, 0
2, 72600, Note_on_c, 0, 40, 100
2, 72708, Note_on_c, 0, 62, 0
2, 72708, Note_on_c, 0, 65, 0
2, 72714, Note_on_c, 0, 40, 0
2, 72720, Note_on_c, 0, 65, 100
2, 72720, Note_on_c, 0, 62, 100
2, 72720, Note_on_c, 0, 38, 100
2, 72720, Note_on_c, 0, 57, 100
2, 72948, Note_on_c, 0, 57, 0
2, 72948, Note_on_c, 0, 38, 0
2, 72948, Note_on_c, 0, 62, 0
2, 72948, Note_on_c, 0, 65, 0
2, 72960, Note_on_c, 0, 64, 100
2, 72960, Note_on_c, 0, 67, 100
2, 72960, Note_on_c, 0, 48, 100
2, 72960, Note_on_c, 0, 36, 100
2, 72960, Note_on_c, 0, 60, 100
2, 72960, Note_on_c, 0, 55, 100
2, 73188, Note_on_c, 0, 55, 0
2, 73188, Note_on_c, 0, 60, 0
2, 73200, Note_on_c, 0, 58, 100
2, 73200, Note_on_c, 0, 62, 100
2, 73416, Note_on_c, 0, 36, 0
2, 73416, Note_on_c, 0, 48, 0
2, 73416, Note_on_c, 0, 67, 0
2, 73416, Note_on_c, 0, 64, 0
2, 73428, Note_on_c, 0, 62, 0
2, 73428, Note_on_c, 0, 58, 0
2, 73440, Note_on_c, 0, 65, 100
2, 73440, Note_on_c, 0, 60, 100
2, 73440, Note_on_c, 0, 57, 100
2, 73440, Note_on_c, 0, 41, 100
2, 73896, Note_on_c, 0, 41, 0
2, 73896, Note_on_c, 0, 57, 0
2, 73896, Note_on_c, 0, 60, 0
2, 73896, Note_on_c, 0, 65, 0
2, 73920, Note_on_c, 0, 65, 100
2, 73920, Note_on_c, 0, 43, 100
2, 73920, Note_on_c, 0, 58, 100
2, 74148, Note_on_c, 0, 65, 0
2, 74160, Note_on_c, 0, 64, 100
2, 74376, Note_on_c, 0, 58, 0
2, 74376, Note_on_c, 0, 43, 0
2, 74388, Note_on_c, 0, 64, 0
2, 74400, Note_on_c, 0, 62, 100
2, 74400, Note_on_c, 0, 45, 100
2, 74400, Note_on_c, 0, 57, 100
2, 74628, Note_on_c, 0, 62, 0
2, 74640, Note_on_c, 0, 61, 100
2, 74856, Note_on_c, 0, 57, 0
2, 74856, Note_on_c, 0, 45, 0
2, 74868, Note_on_c, 0, 61, 0
2, 74880, Note_on_c, 0, 60, 100
2, 74880, Note_on_c, 0, 57, 100
2, 74880, Note_on_c, 0, 53, 100
2, 74880, Note_on_c, 0, 48, 100
2, 74880, Note_on_c, 0, 41, 100
2, 75336, Note_on_c, 0, 41, 0
2, 75336, Note_on_c, 0, 48, 0
2, 75336, Note_on_c, 0, 53, 0
2, 75336, Note_on_c, 0, 57, 0
2, 75336, Note_on_c, 0, 60, 0
2, 75360, Note_on_c, 0, 41, 100
2, 75360, Note_on_c, 0, 48, 100
2, 75360, Note_on_c, 0, 60, 100
2, 75360, Note_on_c, 0, 57, 100
2, 75360, Note_on_c, 0, 53, 100
2, 75588, Note_on_c, 0, 53, 0
2, 75588, Note_on_c, 0, 57, 0
2, 75588, Note_on_c, 0, 60, 0
2, 75588, Note_on_c, 0, 48, 0
2, 75588, Note_on_c, 0, 41, 0
2, 75600, Note_on_c, 0, 48, 100
2, 75600, Note_on_c, 0, 41, 100
2, 75600, Note_on_c, 0, 57, 100
2, 75600, Note_on_c, 0, 60, 100
2, 75828, Note_on_c, 0, 60, 0
2, 75828, Note_on_c, 0, 57, 0
2, 75828, Note_on_c, 0, 41, 0
2, 75828, Note_on_c, 0, 48, 0
2, 75840, Note_on_c, 0, 58, 100
2, 75840, Note_on_c, 0, 60, 100
2, 75840, Note_on_c, 0, 48, 100
2, 75840, Note_on_c, 0, 41, 100
2, 76068, Note_on_c, 0, 41, 0
2, 76068, Note_on_c, 0, 48, 0
2, 76068, Note_on_c, 0, 60, 0
2, 76068, Note_on_c, 0, 58, 0
2, 76080, Note_on_c, 0, 60, 100
2, 76080, Note_on_c, 0, 58, 100
2, 76080, Note_on_c, 0, 55, 100
2, 76080, Note_on_c, 0, 41, 100
2, 76308, Note_on_c, 0, 41, 0
2, 76308, Note_on_c, 0, 55, 0
2, 76308, Note_on_c, 0, 58, 0
2, 76308, Note_on_c, 0, 60, 0
2, 76320, Note_on_c, 0, 60, 100
2, 76320, Note_on_c, 0, 57, 100
2, 76320, Note_on_c, 0, 53, 100
2, 76320, Note_on_c, 0, 41, 100
2, 76548, Note_on_c, 0, 41, 0
2, 76548, Note_on_c, 0, 53, 0
2, 76548, Note_on_c, 0, 57, 0
2, 76548, Note_on_c, 0, 60, 0
2, 76800, Note_on_c, 0, 61, 100
2, 76800, Note_on_c, 0, 57, 100
2, 76800, Note_on_c, 0, 52, 100
2, 76800, Note_on_c, 0, 45, 100
2, 77256, Note_on_c, 0, 45, 0
2, 77256, Note_on_c, 0, 52, 0
2, 77256, Note_on_c, 0, 57, 0
2, 77256, Note_on_c, 0, 61, 0
2, 77280, Note_on_c, 0, 62, 100
2, 77280, Note_on_c, 0, 57, 100
2, 77280, Note_on_c, 0, 53, 100
2, 77280, Note_on_c, 0, 45, 100
2, 77736, Note_on_c, 0, 45, 0
2, 77736, Note_on_c, 0, 53, 0
2, 77736, Note_on_c, 0, 57, 0
2, 77736, Note_on_c, 0, 62, 0
2, 77760, Note_on_c, 0, 45, 100
2, 77760, Note_on_c, 0, 57, 100
2, 77760, Note_on_c, 0, 52, 100
2, 77760, Note_on_c, 0, 61, 100
2, 77988, Note_on_c, 0, 52, 0
2, 77988, Note_on_c, 0, 57, 0
2, 77988, Note_on_c, 0, 45, 0
2, 78000, Note_on_c, 0, 43, 100
2, 78000, Note_on_c, 0, 52, 100
2, 78000, Note_on_c, 0, 58, 100
2, 78216, Note_on_c, 0, 61, 0
2, 78228, Note_on_c, 0, 58, 0
2, 78228, Note_on_c, 0, 52, 0
2, 78228, Note_on_c, 0, 43, 0
2, 78240, Note_on_c, 0, 62, 100
2, 78240, Note_on_c, 0, 57, 100
2, 78240, Note_on_c, 0, 53, 100
2, 78240, Note_on_c, 0, 41, 100
2, 78696, Note_on_c, 0, 41, 0
2, 78696, Note_on_c, 0, 53, 0
2, 78696, Note_on_c, 0, 57, 0
2, 78696, Note_on_c, 0, 62, 0
2, 78960, Note_on_c, 0, 40, 100
2, 78960, Note_on_c, 0, 55, 100
2, 78960, Note_on_c, 0, 58, 100
2, 78960, Note_on_c, 0, 61, 100
2, 79188, Note_on_c, 0, 61, 0
2, 79188, Note_on_c, 0, 58, 0
2, 79188, Note_on_c, 0, 55, 0
2, 79188, Note_on_c, 0, 40, 0
2, 79200, Note_on_c, 0, 41, 100
2, 79200, Note_on_c, 0, 57, 100
2, 79200, Note_on_c, 0, 62, 100
2, 79428, Note_on_c, 0, 57, 0
2, 79428, Note_on_c, 0, 41, 0
2, 79440, Note_on_c, 0, 43, 100
2, 79440, Note_on_c, 0, 58, 100
2, 79656, Note_on_c, 0, 62, 0
2, 79668, Note_on_c, 0, 58, 0
2, 79668, Note_on_c, 0, 43, 0
2, 79680, Note_on_c, 0, 45, 100
2, 79680, Note_on_c, 0, 57, 100
2, 79680, Note_on_c, 0, 52, 100
2, 79680, Note_on_c, 0, 62, 100
2, 79908, Note_on_c, 0, 62, 0
2, 79920, Note_on_c, 0, 61, 100
2, 80136, Note_on_c, 0, 52, 0
2, 80136, Note_on_c, 0, 57, 0
2, 80136, Note_on_c, 0, 45, 0
2, 80148, Note_on_c, 0, 61, 0
2, 80160, Note_on_c, 0, 38, 100
2, 80160, Note_on_c, 0, 62, 100
2, 80160, Note_on_c, 0, 57, 100
2, 80160, Note_on_c, 0, 53, 100
2, 80616, Note_on_c, 0, 53, 0
2, 80616, Note_on_c, 0, 57, 0
2, 80616, Note_on_c, 0, 62, 0
2, 80616, Note_on_c, 0, 38, 0
2, 80640, Control_c, 0, 7, 102
2, 80640, Key_signature, -1, "major"
2, 80640, Note_on_c, 0, 69, 100
2, 80640, Note_on_c, 0, 81, 100
2, 80868, Note_on_c, 0, 81, 0
2, 80868, Note_on_c, 0, 69, 0
2, 80880, Note_on_c, 0, 74, 100
2, 80880, Note_on_c, 0, 62, 100
2, 80880, Note_on_c, 0, 65, 100
2, 81108, Note_on_c, 0, 65, 0
2, 81108, Note_on_c, 0, 62, 0
2, 81108, Note_on_c, 0, 74, 0
2, 81120, Note_on_c, 0, 76, 100
2, 81120, Note_on_c, 0, 64, 100
2, 81120, Note_on_c, 0, 57, 100
2, 81348, Note_on_c, 0, 57, 0
2, 81348, Note_on_c, 0, 64, 0
2, 81348, Note_on_c, 0, 76, 0
2, 81360, Note_on_c, 0, 69, 100
2, 81570, Note_on_c, 0, 69, 100
2, 81588, Note_on_c, 0, 69, 0
2, 81600, Note_on_c, 0, 55, 100
2, 81600, Note_on_c, 0, 67, 100
2, 81714, Note_on_c, 0, 67, 0
2, 81714, Note_on_c, 0, 55, 0
2, 81720, Note_on_c, 0, 53, 100
2, 81720, Note_on_c, 0, 65, 100
2, 81834, Note_on_c, 0, 65, 0
2, 81834, Note_on_c, 0, 53, 0
2, 81840, Note_on_c, 0, 69, 0
2, 81840, Note_on_c, 0, 52, 100
2, 81840, Note_on_c, 0, 64, 100
2, 81954, Note_on_c, 0, 64, 0
2, 81954, Note_on_c, 0, 52, 0
2, 81960, Note_on_c, 0, 50, 100
2, 81960, Note_on_c, 0, 62, 100
2, 82074, Note_on_c, 0, 62, 0
2, 82074, Note_on_c, 0, 50, 0
2, 82080, Note_on_c, 0, 52, 100
2, 82080, Note_on_c, 0, 64, 100
2, 82308, Note_on_c, 0, 64, 0
2, 82308, Note_on_c, 0, 52, 0
2, 82320, Note_on_c, 0, 45, 100
2, 82320, Note_on_c, 0, 57, 100
2, 82368, Control_c, 0, 7, 103
2, 82464, Control_c, 0, 7, 104
2, 82548, Note_on_c, 0, 45, 0
2, 82560, Control_c, 0, 7, 105
2, 82560, Note_on_c, 0, 61, 100
2, 82560, Note_on_c, 0, 69, 100
2, 82560, Note_on_c, 0, 45, 100
2, 82560, Note_on_c, 0, 52, 100
2, 82640, Control_c, 0, 7, 106
2, 82736, Control_c, 0, 7, 107
2, 82816, Control_c, 0, 7, 108
2, 82912, Control_c, 0, 7, 109
2, 83004, Note_on_c, 0, 57, 0
2, 83008, Control_c, 0, 7, 110
2, 83016, Note_on_c, 0, 52, 0
2, 83016, Note_on_c, 0, 45, 0
2, 83016, Note_on_c, 0, 69, 0
2, 83016, Note_on_c, 0, 61, 0
2, 83040, Note_on_c, 0, 50, 100
2, 83040, Note_on_c, 0, 69, 100
2, 83040, Note_on_c, 0, 62, 100
2, 83192, Control_c, 0, 7, 109
2, 83224, Control_c, 0, 7, 108
2, 83268, Note_on_c, 0, 62, 0
2, 83272, Control_c, 0, 7, 107
2, 83280, Note_on_c, 0, 58, 100
2, 83320, Control_c, 0, 7, 106
2, 83352, Control_c, 0, 7, 105
2, 83400, Control_c, 0, 7, 104
2, 83448, Control_c, 0, 7, 103
2, 83460, Note_on_c, 0, 60, 100
2, 83480, Control_c, 0, 7, 102
2, 83488, Note_on_c, 0, 60, 0
2, 83490, Note_on_c, 0, 58, 100
2, 83496, Note_on_c, 0, 69, 0
2, 83496, Note_on_c, 0, 50, 0
2, 83508, Note_on_c, 0, 58, 0
2, 83520, Note_on_c, 0, 57, 100
2, 83520, Note_on_c, 0, 69, 100
2, 83520, Note_on_c, 0, 52, 100
2, 83520, Note_on_c, 0, 45, 100
2, 83528, Control_c, 0, 7, 101
2, 83560, Control_c, 0, 7, 100
2, 83608, Control_c, 0, 7, 99
2, 83656, Control_c, 0, 7, 98
2, 83688, Control_c, 0, 7, 97
2, 83736, Control_c, 0, 7, 96
2, 83760, Note_on_c, 0, 58, 0
2, 83784, Control_c, 0, 7, 95
2, 83816, Control_c, 0, 7, 94
2, 83864, Control_c, 0, 7, 93
2, 83896, Control_c, 0, 7, 92
2, 83944, Control_c, 0, 7, 91
2, 83992, Control_c, 0, 7, 90
2, 84456, Note_on_c, 0, 45, 0
2, 84456, Note_on_c, 0, 52, 0
2, 84456, Note_on_c, 0, 69, 0
2, 84456, Note_on_c, 0, 57, 0
2, 84480, Note_on_c, 0, 69, 100
2, 84480, Note_on_c, 0, 65, 100
2, 84480, Note_on_c, 0, 50, 100
2, 84480, Note_on_c, 0, 57, 100
2, 84708, Note_on_c, 0, 57, 0
2, 84708, Note_on_c, 0, 50, 0
2, 84708, Note_on_c, 0, 65, 0
2, 84708, Note_on_c, 0, 69, 0
2, 84720, Note_on_c, 0, 67, 100
2, 84720, Note_on_c, 0, 64, 100
2, 84720, Note_on_c, 0, 49, 100
2, 84720, Note_on_c, 0, 58, 100
2, 84948, Note_on_c, 0, 58, 0
2, 84948, Note_on_c, 0, 49, 0
2, 84948, Note_on_c, 0, 64, 0
2, 84948, Note_on_c, 0, 67, 0
2, 84960, Note_on_c, 0, 65, 100
2, 84960, Note_on_c, 0, 62, 100
2, 84960, Note_on_c, 0, 50, 100
2, 84960, Note_on_c, 0, 57, 100
2, 85188, Note_on_c, 0, 57, 0
2, 85188, Note_on_c, 0, 50, 0
2, 85188, Note_on_c, 0, 62, 0
2, 85188, Note_on_c, 0, 65, 0
2, 85200, Note_on_c, 0, 64, 100
2, 85200, Note_on_c, 0, 61, 100
2, 85200, Note_on_c, 0, 45, 100
2, 85200, Note_on_c, 0, 55, 100
2, 85428, Note_on_c, 0, 55, 0
2, 85428, Note_on_c, 0, 45, 0
2, 85428, Note_on_c, 0, 61, 0
2, 85428, Note_on_c, 0, 64, 0
2, 85440, Note_on_c, 0, 62, 100
2, 85440, Note_on_c, 0, 46, 100
2, 85440, Note_on_c, 0, 53, 100
2, 85668, Note_on_c, 0, 53, 0
2, 85668, Note_on_c, 0, 46, 0
2, 85668, Note_on_c, 0, 62, 0
2, 85680, Note_on_c, 0, 64, 100
2, 85680, Note_on_c, 0, 61, 100
2, 85680, Note_on_c, 0, 45, 100
2, 85794, Note_on_c, 0, 45, 0
2, 85800, Note_on_c, 0, 43, 100
2, 85908, Note_on_c, 0, 61, 0
2, 85908, Note_on_c, 0, 64, 0
2, 85914, Note_on_c, 0, 43, 0
2, 85920, Note_on_c, 0, 65, 100
2, 85920, Note_on_c, 0, 62, 100
2, 85920, Note_on_c, 0, 41, 100
2, 86034, Note_on_c, 0, 41, 0
2, 86040, Note_on_c, 0, 40, 100
2, 86148, Note_on_c, 0, 62, 0
2, 86148, Note_on_c, 0, 65, 0
2, 86154, Note_on_c, 0, 40, 0
2, 86160, Note_on_c, 0, 65, 100
2, 86160, Note_on_c, 0, 62, 100
2, 86160, Note_on_c, 0, 38, 100
2, 86160, Note_on_c, 0, 57, 100
2, 86388, Note_on_c, 0, 57, 0
2, 86388, Note_on_c, 0, 38, 0
2, 86388, Note_on_c, 0, 62, 0
2, 86388, Note_on_c, 0, 65, 0
2, 86400, Note_on_c, 0, 64, 100
2, 86400, Note_on_c, 0, 67, 100
2, 86400, Note_on_c, 0, 48, 100
2, 86400, Note_on_c, 0, 36, 100
2, 86400, Note_on_c, 0, 60, 100
2, 86400, Note_on_c, 0, 55, 100
2, 86628, Note_on_c, 0, 55, 0
2, 86628, Note_on_c, 0, 60, 0
2, 86640, Note_on_c, 0, 58, 100
2, 86640, Note_on_c, 0, 62, 100
2, 86856, Note_on_c, 0, 36, 0
2, 86856, Note_on_c, 0, 48, 0
2, 86856, Note_on_c, 0, 67, 0
2, 86856, Note_on_c, 0, 64, 0
2, 86868, Note_on_c, 0, 62, 0
2, 86868, Note_on_c, 0, 58, 0
2, 86880, Note_on_c, 0, 65, 100
2, 86880, Note_on_c, 0, 60, 100
2, 86880, Note_on_c, 0, 57, 100
2, 86880, Note_on_c, 0, 41, 100
2, 87336, Note_on_c, 0, 41, 0
2, 87336, Note_on_c, 0, 57, 0
2, 87336, Note_on_c, 0, 60, 0
2, 87336, Note_on_c, 0, 65, 0
2, 87360, Note_on_c, 0, 65, 100
2, 87360, Note_on_c, 0, 43, 100
2, 87360, Note_on_c, 0, 58, 100
2, 87588, Note_on_c, 0, 65, 0
2, 87600, Note_on_c, 0, 64, 100
2, 87816, Note_on_c, 0, 58, 0
2, 87816, Note_on_c, 0, 43, 0
2, 87828, Note_on_c, 0, 64, 0
2, 87840, Note_on_c, 0, 62, 100
2, 87840, Note_on_c, 0, 45, 100
2, 87840, Note_on_c, 0, 57, 100
2, 88068, Note_on_c, 0, 62, 0
2, 88080, Note_on_c, 0, 61, 100
2, 88296, Note_on_c, 0, 57, 0
2, 88296, Note_on_c, 0, 45, 0
2, 88308, Note_on_c, 0, 61, 0
2, 88320, Note_on_c, 0, 60, 100
2, 88320, Note_on_c, 0, 57, 100
2, 88320, Note_on_c, 0, 53, 100
2, 88320, Note_on_c, 0, 48, 100
2, 88320, Note_on_c, 0, 41, 100
2, 88776, Note_on_c, 0, 41, 0
2, 88776, Note_on_c, 0, 48, 0
2, 88776, Note_on_c, 0, 53, 0
2, 88776, Note_on_c, 0, 57, 0
2, 88776, Note_on_c, 0, 60, 0
2, 88800, Note_on_c, 0, 41, 100
2, 88800, Note_on_c, 0, 48, 100
2, 88800, Note_on_c, 0, 60, 100
2, 88800, Note_on_c, 0, 57, 100
2, 88800, Note_on_c, 0, 53, 100
2, 89028, Note_on_c, 0, 53, 0
2, 89028, Note_on_c, 0, 57, 0
2, 89028, Note_on_c, 0, 60, 0
2, 89028, Note_on_c, 0, 48, 0
2, 89028, Note_on_c, 0, 41, 0
2, 89040, Note_on_c, 0, 48, 100
2, 89040, Note_on_c, 0, 41, 100
2, 89040, Note_on_c, 0, 57, 100
2, 89040, Note_on_c, 0, 60, 100
2, 89268, Note_on_c, 0, 60, 0
2, 89268, Note_on_c, 0, 57, 0
2, 89268, Note_on_c, 0, 41, 0
2, 89268, Note_on_c, 0, 48, 0
2, 89280, Note_on_c, 0, 58, 100
2, 89280, Note_on_c, 0, 60, 100
2, 89280, Note_on_c, 0, 48, 100
2, 89280, Note_on_c, 0, 41, 100
2, 89508, Note_on_c, 0, 41, 0
2, 89508, Note_on_c, 0, 48, 0
2, 89508, Note_on_c, 0, 60, 0
2, 89508, Note_on_c, 0, 58, 0
2, 89520, Note_on_c, 0, 60, 100
2, 89520, Note_on_c, 0, 58, 100
2, 89520, Note_on_c, 0, 55, 100
2, 89520, Note_on_c, 0, 41, 100
2, 89748, Note_on_c, 0, 41, 0
2, 89748, Note_on_c, 0, 55, 0
2, 89748, Note_on_c, 0, 58, 0
2, 89748, Note_on_c, 0, 60, 0
2, 89760, Note_on_c, 0, 60, 100
2, 89760, Note_on_c, 0, 57, 100
2, 89760, Note_on_c, 0, 53, 100
2, 89760, Note_on_c, 0, 41, 100
2, 89988, Note_on_c, 0, 41, 0
2, 89988, Note_on_c, 0, 53, 0
2, 89988, Note_on_c, 0, 57, 0
2, 89988, Note_on_c, 0, 60, 0
2, 90240, Note_on_c, 0, 61, 100
2, 90240, Note_on_c, 0, 57, 100
2, 90240, Note_on_c, 0, 52, 100
2, 90240, Note_on_c, 0, 45, 100
2, 90696, Note_on_c, 0, 45, 0
2, 90696, Note_on_c, 0, 52, 0
2, 90696, Note_on_c, 0, 57, 0
2, 90696, Note_on_c, 0, 61, 0
2, 90720, Note_on_c, 0, 62, 100
2, 90720, Note_on_c, 0, 57, 100
2, 90720, Note_on_c, 0, 53, 100
2, 90720, Note_on_c, 0, 45, 100
2, 91176, Note_on_c, 0, 45, 0
2, 91176, Note_on_c, 0, 53, 0
2, 91176, Note_on_c, 0, 57, 0
2, 91176, Note_on_c, 0, 62, 0
2, 91200, Note_on_c, 0, 45, 100
2, 91200, Note_on_c, 0, 57, 100
2, 91200, Note_on_c, 0, 52, 100
2, 91200, Note_on_c, 0, 61, 100
2, 91428, Note_on_c, 0, 52, 0
2, 91428, Note_on_c, 0, 57, 0
2, 91428, Note_on_c, 0, 45, 0
2, 91440, Note_on_c, 0, 43, 100
2, 91440, Note_on_c, 0, 52, 100
2, 91440, Note_on_c, 0, 58, 100
2, 91656, Note_on_c, 0, 61, 0
2, 91668, Note_on_c, 0, 58, 0
2, 91668, Note_on_c, 0, 52, 0
2, 91668, Note_on_c, 0, 43, 0
2, 91680, Note_on_c, 0, 62, 100
2, 91680, Note_on_c, 0, 57, 100
2, 91680, Note_on_c, 0, 53, 100
2, 91680, Note_on_c, 0, 41, 100
2, 92136, Note_on_c, 0, 41, 0
2, 92136, Note_on_c, 0, 53, 0
2, 92136, Note_on_c, 0, 57, 0
2, 92136, Note_on_c, 0, 62, 0
2, 92400, Note_on_c, 0, 40, 100
2, 92400, Note_on_c, 0, 55, 100
2, 92400, Note_on_c, 0, 58, 100
2, 92400, Note_on_c, 0, 61, 100
2, 92628, Note_on_c, 0, 61, 0
2, 92628, Note_on_c, 0, 58, 0
2, 92628, Note_on_c, 0, 55, 0
2, 92628, Note_on_c, 0, 40, 0
2, 92640, Note_on_c, 0, 41, 100
2, 92640, Note_on_c, 0, 57, 100
2, 92640, Note_on_c, 0, 62, 100
2, 92868, Note_on_c, 0, 57, 0
2, 92868, Note_on_c, 0, 41, 0
2, 92880, Note_on_c, 0, 43, 100
2, 92880, Note_on_c, 0, 58, 100
2, 93096, Note_on_c, 0, 62, 0
2, 93108, Note_on_c, 0, 58, 0
2, 93108, Note_on_c, 0, 43, 0
2, 93120, Note_on_c, 0, 45, 100
2, 93120, Note_on_c, 0, 57, 100
2, 93120, Note_on_c, 0, 52, 100
2, 93120, Note_on_c, 0, 62, 100
2, 93348, Note_on_c, 0, 62, 0
2, 93360, Note_on_c, 0, 61, 100
2, 93576, Note_on_c, 0, 52, 0
2, 93576, Note_on_c, 0, 57, 0
2, 93576, Note_on_c, 0, 45, 0
2, 93588, Note_on_c, 0, 61, 0
2, 93600, Note_on_c, 0, 38, 100
2, 93600, Note_on_c, 0, 62, 100
2, 93600, Note_on_c, 0, 57, 100
2, 93600, Note_on_c, 0, 53, 100
2, 94056, Note_on_c, 0, 53, 0
2, 94056, Note_on_c, 0, 57, 0
2, 94056, Note_on_c, 0, 62, 0
2, 94056, Note_on_c, 0, 38, 0
2, 94080, Control_c, 0, 7, 102
2, 94080, Note_on_c, 0, 69, 100
2, 94080, Note_on_c, 0, 81, 100
2, 94308, Note_on_c, 0, 81, 0
2, 94308, Note_on_c, 0, 69, 0
2, 94320, Note_on_c, 0, 74, 100
2, 94320, Note_on_c, 0, 62, 100
2, 94320, Note_on_c, 0, 65, 100
2, 94368, Control_c, 0, 7, 101
2, 94464, Control_c, 0, 7, 100
2, 94544, Control_c, 0, 7, 99
2, 94548, Note_on_c, 0, 65, 0
2, 94548, Note_on_c, 0, 62, 0
2, 94548, Note_on_c, 0, 74, 0
2, 94560, Note_on_c, 0, 76, 100
2, 94560, Note_on_c, 0, 64, 100
2, 94560, Note_on_c, 0, 57, 100
2, 94624, Control_c, 0, 7, 98
2, 94720, Control_c, 0, 7, 97
2, 94788, Note_on_c, 0, 57, 0
2, 94788, Note_on_c, 0, 64, 0
2, 94788, Note_on_c, 0, 76, 0
2, 94800, Control_c, 0, 7, 96
2, 94800, Note_on_c, 0, 69, 100
2, 94880, Control_c, 0, 7, 95
2, 95010, Note_on_c, 0, 69, 100
2, 95028, Note_on_c, 0, 69, 0
2, 95040, Note_on_c, 0, 55, 100
2, 95040, Note_on_c, 0, 67, 100
2, 95154, Note_on_c, 0, 67, 0
2, 95154, Note_on_c, 0, 55, 0
2, 95160, Note_on_c, 0, 53, 100
2, 95160, Note_on_c, 0, 65, 100
2, 95274, Note_on_c, 0, 65, 0
2, 95274, Note_on_c, 0, 53, 0
2, 95280, Note_on_c, 0, 69, 0
2, 95280, Note_on_c, 0, 52, 100
2, 95280, Note_on_c, 0, 64, 100
2, 95394, Note_on_c, 0, 64, 0
2, 95394, Note_on_c, 0, 52, 0
2, 95400, Note_on_c, 0, 50, 100
2, 95400, Note_on_c, 0, 62, 100
2, 95514, Note_on_c, 0, 62, 0
2, 95514, Note_on_c, 0, 50, 0
2, 95520, Note_on_c, 0, 52, 100
2, 95520, Note_on_c, 0, 64, 100
2, 95748, Note_on_c, 0, 64, 0
2, 95748, Note_on_c, 0, 52, 0
2, 95760, Note_on_c, 0, 45, 100
2, 95760, Note_on_c, 0, 57, 100
2, 95988, Note_on_c, 0, 57, 0
2, 95988, Note_on_c, 0, 45, 0
2, 96000, Note_on_c, 0, 61, 100
2, 96000, Note_on_c, 0, 52, 100
2, 96000, Note_on_c, 0, 45, 100
2, 96000, Note_on_c, 0, 69, 100
2, 96016, Control_c, 0, 7, 96
2, 96048, Control_c, 0, 7, 97
2, 96080, Control_c, 0, 7, 98
2, 96112, Control_c, 0, 7, 99
2, 96144, Control_c, 0, 7, 100
2, 96176, Control_c, 0, 7, 101
2, 96208, Control_c, 0, 7, 102
2, 96240, Control_c, 0, 7, 103
2, 96256, Control_c, 0, 7, 104
2, 96288, Control_c, 0, 7, 105
2, 96320, Control_c, 0, 7, 106
2, 96352, Control_c, 0, 7, 107
2, 96456, Note_on_c, 0, 52, 0
2, 96456, Note_on_c, 0, 61, 0
2, 96480, Note_on_c, 0, 62, 100
2, 96480, Note_on_c, 0, 53, 100
2, 96616, Control_c, 0, 7, 105
2, 96632, Control_c, 0, 7, 102
2, 96648, Control_c, 0, 7, 100
2, 96664, Control_c, 0, 7, 97
2, 96680, Control_c, 0, 7, 95
2, 96696, Control_c, 0, 7, 92
2, 96712, Control_c, 0, 7, 90
2, 96728, Control_c, 0, 7, 87
2, 96744, Control_c, 0, 7, 85
2, 96760, Control_c, 0, 7, 82
2, 96776, Control_c, 0, 7, 80
2, 96792, Control_c, 0, 7, 77
2, 96808, Control_c, 0, 7, 75
2, 96824, Control_c, 0, 7, 72
2, 96840, Control_c, 0, 7, 70
2, 96936, Note_on_c, 0, 53, 0
2, 96936, Note_on_c, 0, 62, 0
2, 96936, Note_on_c, 0, 69, 0
2, 96936, Note_on_c, 0, 45, 0
2, 96960, Note_on_c, 0, 65, 100
2, 96960, Note_on_c, 0, 74, 100
2, 96960, Note_on_c, 0, 45, 100
2, 96960, Note_on_c, 0, 38, 100
2, 97896, Note_on_c, 0, 38, 0
2, 97896, Note_on_c, 0, 45, 0
2, 97896, Note_on_c, 0, 74, 0
2, 97896, Note_on_c, 0, 65, 0
2, 97920, End_track
3, 0, Start_track
3, 0, Title_t, "Voice"
3, 0, Control_c, 1, 7, 95
3, 0, Control_c, 1, 0, 0
3, 0, Control_c, 1, 32, 0
3, 0, Program_c, 1, 53
3, 0, Control_c, 1, 1, 0
3, 0, Control_c, 1, 10, 64
3, 0, Control_c, 1, 91, 0
3, 0, Control_c, 1, 93, 0
3, 0, Key_signature, -1, "major"
3, 3840, Note_on_c, 1, 69, 100
3, 4068, Note_on_c, 1, 69, 0
3, 4080, Note_on_c, 1, 67, 100
3, 4308, Note_on_c, 1, 67, 0
3, 4320, Note_on_c, 1, 65, 100
3, 4548, Note_on_c, 1, 65, 0
3, 4560, Note_on_c, 1, 64, 100
3, 4788, Note_on_c, 1, 64, 0
3, 4800, Note_on_c, 1, 62, 100
3, 5028, Note_on_c, 1, 62, 0
3, 5040, Note_on_c, 1, 64, 100
3, 5268, Note_on_c, 1, 64, 0
3, 5280, Note_on_c, 1, 65, 100
3, 5508, Note_on_c, 1, 65, 0
3, 5520, Note_on_c, 1, 65, 100
3, 5748, Note_on_c, 1, 65, 0
3, 5760, Note_on_c, 1, 67, 100
3, 5988, Note_on_c, 1, 67, 0
3, 6000, Note_on_c, 1, 67, 100
3, 6228, Note_on_c, 1, 67, 0
3, 6240, Note_on_c, 1, 69, 100
3, 6468, Note_on_c, 1, 69, 0
3, 6480, Note_on_c, 1, 69, 100
3, 6708, Note_on_c, 1, 69, 0
3, 6720, Note_on_c, 1, 69, 100
3, 6834, Note_on_c, 1, 69, 0
3, 6840, Note_on_c, 1, 67, 100
3, 6954, Note_on_c, 1, 67, 0
3, 6960, Note_on_c, 1, 65, 100
3, 7074, Note_on_c, 1, 65, 0
3, 7080, Note_on_c, 1, 64, 100
3, 7194, Note_on_c, 1, 64, 0
3, 7200, Note_on_c, 1, 62, 100
3, 7428, Note_on_c, 1, 62, 0
3, 7440, Note_on_c, 1, 61, 100
3, 7668, Note_on_c, 1, 61, 0
3, 7680, Note_on_c, 1, 69, 100
3, 7776, Control_c, 1, 7, 96
3, 7908, Note_on_c, 1, 69, 0
3, 7920, Note_on_c, 1, 67, 100
3, 7968, Control_c, 1, 7, 97
3, 8148, Note_on_c, 1, 67, 0
3, 8160, Control_c, 1, 7, 98
3, 8160, Note_on_c, 1, 65, 100
3, 8336, Control_c, 1, 7, 99
3, 8388, Note_on_c, 1, 65, 0
3, 8400, Note_on_c, 1, 64, 100
3, 8528, Control_c, 1, 7, 100
3, 8628, Note_on_c, 1, 64, 0
3, 8640, Note_on_c, 1, 62, 100
3, 8704, Control_c, 1, 7, 101
3, 8868, Note_on_c, 1, 62, 0
3, 8880, Note_on_c, 1, 64, 100
3, 8896, Control_c, 1, 7, 102
3, 9088, Control_c, 1, 7, 103
3, 9108, Note_on_c, 1, 64, 0
3, 9120, Note_on_c, 1, 65, 100
3, 9264, Control_c, 1, 7, 104
3, 9348, Note_on_c, 1, 65, 0
3, 9360, Note_on_c, 1, 67, 100
3, 9456, Control_c, 1, 7, 105
3, 9588, Note_on_c, 1, 67, 0
3, 9600, Note_on_c, 1, 64, 100
3, 9648, Control_c, 1, 7, 106
3, 9824, Control_c, 1, 7, 107
3, 9828, Note_on_c, 1, 64, 0
3, 9840, Note_on_c, 1, 65, 100
3, 9954, Note_on_c, 1, 65, 0
3, 9960, Note_on_c, 1, 64, 100
3, 10016, Control_c, 1, 7, 108
3, 10074, Note_on_c, 1, 64, 0
3, 10080, Note_on_c, 1, 62, 100
3, 10192, Control_c, 1, 7, 109
3, 10308, Note_on_c, 1, 62, 0
3, 10320, Note_on_c, 1, 65, 100
3, 10384, Control_c, 1, 7, 110
3, 10434, Note_on_c, 1, 65, 0
3, 10440, Note_on_c, 1, 67, 100
3, 10554, Note_on_c, 1, 67, 0
3, 10560, Note_on_c, 1, 69, 100
3, 10576, Control_c, 1, 7, 111
3, 10752, Control_c, 1, 7, 112
3, 10788, Note_on_c, 1, 69, 0
3, 10800, Note_on_c, 1, 64, 100
3, 10944, Control_c, 1, 7, 113
3, 11028, Note_on_c, 1, 64, 0
3, 11040, Note_on_c, 1, 69, 100
3, 11136, Control_c, 1, 7, 114
3, 11268, Note_on_c, 1, 69, 0
3, 11280, Note_on_c, 1, 65, 100
3, 11312, Control_c, 1, 7, 115
3, 11508, Note_on_c, 1, 65, 0
3, 11520, Note_on_c, 1, 67, 100
3, 11568, Control_c, 1, 7, 114
3, 11632, Control_c, 1, 7, 113
3, 11696, Control_c, 1, 7, 112
3, 11748, Note_on_c, 1, 67, 0
3, 11760, Control_c, 1, 7, 111
3, 11760, Note_on_c, 1, 65, 100
3, 11824, Control_c, 1, 7, 110
3, 11874, Note_on_c, 1, 65, 0
3, 11880, Note_on_c, 1, 64, 100
3, 11888, Control_c, 1, 7, 109
3, 11952, Control_c, 1, 7, 108
3, 11994, Note_on_c, 1, 64, 0
3, 12000, Note_on_c, 1, 62, 100
3, 12016, Control_c, 1, 7, 107
3, 12096, Control_c, 1, 7, 106
3, 12160, Control_c, 1, 7, 105
3, 12224, Control_c, 1, 7, 104
3, 12228, Note_on_c, 1, 62, 0
3, 12240, Note_on_c, 1, 70, 100
3, 12288, Control_c, 1, 7, 103
3, 12352, Control_c, 1, 7, 102
3, 12416, Control_c, 1, 7, 101
3, 12468, Note_on_c, 1, 70, 0
3, 12480, Control_c, 1, 7, 100
3, 12480, Note_on_c, 1, 69, 100
3, 12544, Control_c, 1, 7, 99
3, 12594, Note_on_c, 1, 69, 0
3, 12600, Note_on_c, 1, 67, 100
3, 12624, Control_c, 1, 7, 98
3, 12688, Control_c, 1, 7, 97
3, 12714, Note_on_c, 1, 67, 0
3, 12720, Note_on_c, 1, 65, 100
3, 12752, Control_c, 1, 7, 96
3, 12816, Control_c, 1, 7, 95
3, 12834, Note_on_c, 1, 65, 0
3, 12840, Note_on_c, 1, 64, 100
3, 12954, Note_on_c, 1, 64, 0
3, 12960, Control_c, 1, 7, 105
3, 12960, Note_on_c, 1, 64, 100
3, 12992, Control_c, 1, 7, 104
3, 13024, Control_c, 1, 7, 103
3, 13056, Control_c, 1, 7, 102
3, 13088, Control_c, 1, 7, 101
3, 13136, Control_c, 1, 7, 100
3, 13168, Control_c, 1, 7, 99
3, 13188, Note_on_c, 1, 64, 0
3, 13200, Control_c, 1, 7, 98
3, 13200, Note_on_c, 1, 62, 100
3, 13232, Control_c, 1, 7, 97
3, 13280, Control_c, 1, 7, 96
3, 13312, Control_c, 1, 7, 95
3, 13428, Note_on_c, 1, 62, 0
3, 13440, Key_signature, -1, "major"
3, 17280, Note_on_c, 1, 69, 100
3, 17508, Note_on_c, 1, 69, 0
3, 17520, Note_on_c, 1, 67, 100
3, 17748, Note_on_c, 1, 67, 0
3, 17760, Note_on_c, 1, 65, 100
3, 17988, Note_on_c, 1, 65, 0
3, 18000, Note_on_c, 1, 64, 100
3, 18228, Note_on_c, 1, 64, 0
3, 18240, Note_on_c, 1, 62, 100
3, 18468, Note_on_c, 1, 62, 0
3, 18480, Note_on_c, 1, 64, 100
3, 18708, Note_on_c, 1, 64, 0
3, 18720, Note_on_c, 1, 65, 100
3, 18948, Note_on_c, 1, 65, 0
3, 18960, Note_on_c, 1, 65, 100
3, 19188, Note_on_c, 1, 65, 0
3, 19200, Note_on_c, 1, 67, 100
3, 19428, Note_on_c, 1, 67, 0
3, 19440, Note_on_c, 1, 67, 100
3, 19668, Note_on_c, 1, 67, 0
3, 19680, Note_on_c, 1, 69, 100
3, 19908, Note_on_c, 1, 69, 0
3, 19920, Note_on_c, 1, 69, 100
3, 20148, Note_on_c, 1, 69, 0
3, 20160, Note_on_c, 1, 69, 100
3, 20274, Note_on_c, 1, 69, 0
3, 20280, Note_on_c, 1, 67, 100
3, 20394, Note_on_c, 1, 67, 0
3, 20400, Note_on_c, 1, 65, 100
3, 20514, Note_on_c, 1, 65, 0
3, 20520, Note_on_c, 1, 64, 100
3, 20634, Note_on_c, 1, 64, 0
3, 20640, Note_on_c, 1, 62, 100
3, 20868, Note_on_c, 1, 62, 0
3, 20880, Note_on_c, 1, 61, 100
3, 21108, Note_on_c, 1, 61, 0
3, 21120, Note_on_c, 1, 69, 100
3, 21216, Control_c, 1, 7, 96
3, 21348, Note_on_c, 1, 69, 0
3, 21360, Note_on_c, 1, 67, 100
3, 21408, Control_c, 1, 7, 97
3, 21588, Note_on_c, 1, 67, 0
3, 21600, Control_c, 1, 7, 98
3, 21600, Note_on_c, 1, 65, 100
3, 21776, Control_c, 1, 7, 99
3, 21828, Note_on_c, 1, 65, 0
3, 21840, Note_on_c, 1, 64, 100
3, 21968, Control_c, 1, 7, 100
3, 22068, Note_on_c, 1, 64, 0
3, 22080, Note_on_c, 1, 62, 100
3, 22144, Control_c, 1, 7, 101
3, 22308, Note_on_c, 1, 62, 0
3, 22320, Note_on_c, 1, 64, 100
3, 22336, Control_c, 1, 7, 102
3, 22528, Control_c, 1, 7, 103
3, 22548, Note_on_c, 1, 64, 0
3, 22560, Note_on_c, 1, 65, 100
3, 22704, Control_c, 1, 7, 104
3, 22788, Note_on_c, 1, 65, 0
3, 22800, Note_on_c, 1, 67, 100
3, 22896, Control_c, 1, 7, 105
3, 23028, Note_on_c, 1, 67, 0
3, 23040, Note_on_c, 1, 64, 100
3, 23088, Control_c, 1, 7, 106
3, 23264, Control_c, 1, 7, 107
3, 23268, Note_on_c, 1, 64, 0
3, 23280, Note_on_c, 1, 65, 100
3, 23394, Note_on_c, 1, 65, 0
3, 23400, Note_on_c, 1, 64, 100
3, 23456, Control_c, 1, 7, 108
3, 23514, Note_on_c, 1, 64, 0
3, 23520, Note_on_c, 1, 62, 100
3, 23632, Control_c, 1, 7, 109
3, 23748, Note_on_c, 1, 62, 0
3, 23760, Note_on_c, 1, 65, 100
3, 23824, Control_c, 1, 7, 110
3, 23874, Note_on_c, 1, 65, 0
3, 23880, Note_on_c, 1, 67, 100
3, 23994, Note_on_c, 1, 67, 0
3, 24000, Note_on_c, 1, 69, 100
3, 24016, Control_c, 1, 7, 111
3, 24192, Control_c, 1, 7, 112
3, 24228, Note_on_c, 1, 69, 0
3, 24240, Note_on_c, 1, 64, 100
3, 24384, Control_c, 1, 7, 113
3, 24468, Note_on_c, 1, 64, 0
3, 24480, Note_on_c, 1, 69, 100
3, 24576, Control_c, 1, 7, 114
3, 24708, Note_on_c, 1, 69, 0
3, 24720, Note_on_c, 1, 65, 100
3, 24752, Control_c, 1, 7, 115
3, 24948, Note_on_c, 1, 65, 0
3, 24960, Note_on_c, 1, 67, 100
3, 25008, Control_c, 1, 7, 114
3, 25072, Control_c, 1, 7, 113
3, 25136, Control_c, 1, 7, 112
3, 25188, Note_on_c, 1, 67, 0
3, 25200, Control_c, 1, 7, 111
3, 25200, Note_on_c, 1, 65, 100
3, 25264, Control_c, 1, 7, 110
3, 25314, Note_on_c, 1, 65, 0
3, 25320, Note_on_c, 1, 64, 100
3, 25328, Control_c, 1, 7, 109
3, 25392, Control_c, 1, 7, 108
3, 25434, Note_on_c, 1, 64, 0
3, 25440, Note_on_c, 1, 62, 100
3, 25456, Control_c, 1, 7, 107
3, 25536, Control_c, 1, 7, 106
3, 25600, Control_c, 1, 7, 105
3, 25664, Control_c, 1, 7, 104
3, 25668, Note_on_c, 1, 62, 0
3, 25680, Note_on_c, 1, 70, 100
3, 25728, Control_c, 1, 7, 103
3, 25792, Control_c, 1, 7, 102
3, 25856, Control_c, 1, 7, 101
3, 25908, Note_on_c, 1, 70, 0
3, 25920, Control_c, 1, 7, 100
3, 25920, Note_on_c, 1, 69, 100
3, 25984, Control_c, 1, 7, 99
3, 26034, Note_on_c, 1, 69, 0
3, 26040, Note_on_c, 1, 67, 100
3, 26064, Control_c, 1, 7, 98
3, 26128, Control_c, 1, 7, 97
3, 26154, Note_on_c, 1, 67, 0
3, 26160, Note_on_c, 1, 65, 100
3, 26192, Control_c, 1, 7, 96
3, 26256, Control_c, 1, 7, 95
3, 26274, Note_on_c, 1, 65, 0
3, 26280, Note_on_c, 1, 64, 100
3, 26394, Note_on_c, 1, 64, 0
3, 26400, Control_c, 1, 7, 105
3, 26400, Note_on_c, 1, 64, 100
3, 26432, Control_c, 1, 7, 104
3, 26464, Control_c, 1, 7, 103
3, 26496, Control_c, 1, 7, 102
3, 26528, Control_c, 1, 7, 101
3, 26576, Control_c, 1, 7, 100
3, 26608, Control_c, 1, 7, 99
3, 26628, Note_on_c, 1, 64, 0
3, 26640, Control_c, 1, 7, 98
3, 26640, Note_on_c, 1, 62, 100
3, 26672, Control_c, 1, 7, 97
3, 26720, Control_c, 1, 7, 96
3, 26752, Control_c, 1, 7, 95
3, 26868, Note_on_c, 1, 62, 0
3, 26880, Key_signature, -1, "major"
3, 30720, Note_on_c, 1, 69, 100
3, 30948, Note_on_c, 1, 69, 0
3, 30960, Note_on_c, 1, 67, 100
3, 31188, Note_on_c, 1, 67, 0
3, 31200, Note_on_c, 1, 65, 100
3, 31428, Note_on_c, 1, 65, 0
3, 31440, Note_on_c, 1, 64, 100
3, 31668, Note_on_c, 1, 64, 0
3, 31680, Note_on_c, 1, 62, 100
3, 31908, Note_on_c, 1, 62, 0
3, 31920, Note_on_c, 1, 64, 100
3, 32148, Note_on_c, 1, 64, 0
3, 32160, Note_on_c, 1, 65, 100
3, 32388, Note_on_c, 1, 65, 0
3, 32400, Note_on_c, 1, 65, 100
3, 32628, Note_on_c, 1, 65, 0
3, 32640, Note_on_c, 1, 67, 100
3, 32868, Note_on_c, 1, 67, 0
3, 32880, Note_on_c, 1, 67, 100
3, 33108, Note_on_c, 1, 67, 0
3, 33120, Note_on_c, 1, 69, 100
3, 33348, Note_on_c, 1, 69, 0
3, 33360, Note_on_c, 1, 69, 100
3, 33588, Note_on_c, 1, 69, 0
3, 33600, Note_on_c, 1, 69, 100
3, 33714, Note_on_c, 1, 69, 0
3, 33720, Note_on_c, 1, 67, 100
3, 33834, Note_on_c, 1, 67, 0
3, 33840, Note_on_c, 1, 65, 100
3, 33954, Note_on_c, 1, 65, 0
3, 33960, Note_on_c, 1, 64, 100
3, 34074, Note_on_c, 1, 64, 0
3, 34080, Note_on_c, 1, 62, 100
3, 34308, Note_on_c, 1, 62, 0
3, 34320, Note_on_c, 1, 61, 100
3, 34548, Note_on_c, 1, 61, 0
3, 34560, Note_on_c, 1, 69, 100
3, 34656, Control_c, 1, 7, 96
3, 34788, Note_on_c, 1, 69, 0
3, 34800, Note_on_c, 1, 67, 100
3, 34848, Control_c, 1, 7, 97
3, 35028, Note_on_c, 1, 67, 0
3, 35040, Control_c, 1, 7, 98
3, 35040, Note_on_c, 1, 65, 100
3, 35216, Control_c, 1, 7, 99
3, 35268, Note_on_c, 1, 65, 0
3, 35280, Note_on_c, 1, 64, 100
3, 35408, Control_c, 1, 7, 100
3, 35508, Note_on_c, 1, 64, 0
3, 35520, Note_on_c, 1, 62, 100
3, 35584, Control_c, 1, 7, 101
3, 35748, Note_on_c, 1, 62, 0
3, 35760, Note_on_c, 1, 64, 100
3, 35776, Control_c, 1, 7, 102
3, 35968, Control_c, 1, 7, 103
3, 35988, Note_on_c, 1, 64, 0
3, 36000, Note_on_c, 1, 65, 100
3, 36144, Control_c, 1, 7, 104
3, 36228, Note_on_c, 1, 65, 0
3, 36240, Note_on_c, 1, 67, 100
3, 36336, Control_c, 1, 7, 105
3, 36468, Note_on_c, 1, 67, 0
3, 36480, Note_on_c, 1, 64, 100
3, 36528, Control_c, 1, 7, 106
3, 36704, Control_c, 1, 7, 107
3, 36708, Note_on_c, 1, 64, 0
3, 36720, Note_on_c, 1, 65, 100
3, 36834, Note_on_c, 1, 65, 0
3, 36840, Note_on_c, 1, 64, 100
3, 36896, Control_c, 1, 7, 108
3, 36954, Note_on_c, 1, 64, 0
3, 36960, Note_on_c, 1, 62, 100
3, 37072, Control_c, 1, 7, 109
3, 37188, Note_on_c, 1, 62, 0
3, 37200, Note_on_c, 1, 65, 100
3, 37264, Control_c, 1, 7, 110
3, 37314, Note_on_c, 1, 65, 0
3, 37320, Note_on_c, 1, 67, 100
3, 37434, Note_on_c, 1, 67, 0
3, 37440, Note_on_c, 1, 69, 100
3, 37456, Control_c, 1, 7, 111
3, 37632, Control_c, 1, 7, 112
3, 37668, Note_on_c, 1, 69, 0
3, 37680, Note_on_c, 1, 64, 100
3, 37824, Control_c, 1, 7, 113
3, 37908, Note_on_c, 1, 64, 0
3, 37920, Note_on_c, 1, 69, 100
3, 38016, Control_c, 1, 7, 114
3, 38148, Note_on_c, 1, 69, 0
3, 38160, Note_on_c, 1, 65, 100
3, 38192, Control_c, 1, 7, 115
3, 38388, Note_on_c, 1, 65, 0
3, 38400, Note_on_c, 1, 67, 100
3, 38448, Control_c, 1, 7, 114
3, 38512, Control_c, 1, 7, 113
3, 38576, Control_c, 1, 7, 112
3, 38628, Note_on_c, 1, 67, 0
3, 38640, Control_c, 1, 7, 111
3, 38640, Note_on_c, 1, 65, 100
3, 38704, Control_c, 1, 7, 110
3, 38754, Note_on_c, 1, 65, 0
3, 38760, Note_on_c, 1, 64, 100
3, 38768, Control_c, 1, 7, 109
3, 38832, Control_c, 1, 7, 108
3, 38874, Note_on_c, 1, 64, 0
3, 38880, Note_on_c, 1, 62, 100
3, 38896, Control_c, 1, 7, 107
3, 38976, Control_c, 1, 7, 106
3, 39040, Control_c, 1, 7, 105
3, 39104, Control_c, 1, 7, 104
3, 39108, Note_on_c, 1, 62, 0
3, 39120, Note_on_c, 1, 70, 100
3, 39168, Control_c, 1, 7, 103
3, 39232, Control_c, 1, 7, 102
3, 39296, Control_c, 1, 7, 101
3, 39348, Note_on_c, 1, 70, 0
3, 39360, Control_c, 1, 7, 100
3, 39360, Note_on_c, 1, 69, 100
3, 39424, Control_c, 1, 7, 99
3, 39474, Note_on_c, 1, 69, 0
3, 39480, Note_on_c, 1, 67, 100
3, 39504, Control_c, 1, 7, 98
3, 39568, Control_c, 1, 7, 97
3, 39594, Note_on_c, 1, 67, 0
3, 39600, Note_on_c, 1, 65, 100
3, 39632, Control_c, 1, 7, 96
3, 39696, Control_c, 1, 7, 95
3, 39714, Note_on_c, 1, 65, 0
3, 39720, Note_on_c, 1, 64, 100
3, 39834, Note_on_c, 1, 64, 0
3, 39840, Control_c, 1, 7, 105
3, 39840, Note_on_c, 1, 64, 100
3, 39872, Control_c, 1, 7, 104
3, 39904, Control_c, 1, 7, 103
3, 39936, Control_c, 1, 7, 102
3, 39968, Control_c, 1, 7, 101
3, 40016, Control_c, 1, 7, 100
3, 40048, Control_c, 1, 7, 99
3, 40068, Note_on_c, 1, 64, 0
3, 40080, Control_c, 1, 7, 98
3, 40080, Note_on_c, 1, 62, 100
3, 40112, Control_c, 1, 7, 97
3, 40160, Control_c, 1, 7, 96
3, 40192, Control_c, 1, 7, 95
3, 40308, Note_on_c, 1, 62, 0
3, 40320, Control_c, 1, 7, 95
3, 40320, Control_c, 1, 0, 0
3, 40320, Control_c, 1, 32, 0
3, 40320, Program_c, 1, 53
3, 40320, Control_c, 1, 1, 0
3, 40320, Control_c, 1, 10, 64
3, 40320, Control_c, 1, 91, 0
3, 40320, Control_c, 1, 93, 0
3, 40320, Key_signature, -1, "major"
3, 44160, Note_on_c, 1, 69, 100
3, 44388, Note_on_c, 1, 69, 0
3, 44400, Note_on_c, 1, 67, 100
3, 44628, Note_on_c, 1, 67, 0
3, 44640, Note_on_c, 1, 65, 100
3, 44868, Note_on_c, 1, 65, 0
3, 44880, Note_on_c, 1, 64, 100
3, 45108, Note_on_c, 1, 64, 0
3, 45120, Note_on_c, 1, 62, 100
3, 45348, Note_on_c, 1, 62, 0
3, 45360, Note_on_c, 1, 64, 100
3, 45588, Note_on_c, 1, 64, 0
3, 45600, Note_on_c, 1, 65, 100
3, 45828, Note_on_c, 1, 65, 0
3, 45840, Note_on_c, 1, 65, 100
3, 46068, Note_on_c, 1, 65, 0
3, 46080, Note_on_c, 1, 67, 100
3, 46308, Note_on_c, 1, 67, 0
3, 46320, Note_on_c, 1, 67, 100
3, 46548, Note_on_c, 1, 67, 0
3, 46560, Note_on_c, 1, 69, 100
3, 46788, Note_on_c, 1, 69, 0
3, 46800, Note_on_c, 1, 69, 100
3, 47028, Note_on_c, 1, 69, 0
3, 47040, Note_on_c, 1, 69, 100
3, 47154, Note_on_c, 1, 69, 0
3, 47160, Note_on_c, 1, 67, 100
3, 47274, Note_on_c, 1, 67, 0
3, 47280, Note_on_c, 1, 65, 100
3, 47394, Note_on_c, 1, 65, 0
3, 47400, Note_on_c, 1, 64, 100
3, 47514, Note_on_c, 1, 64, 0
3, 47520, Note_on_c, 1, 62, 100
3, 47748, Note_on_c, 1, 62, 0
3, 47760, Note_on_c, 1, 61, 100
3, 47988, Note_on_c, 1, 61, 0
3, 48000, Note_on_c, 1, 69, 100
3, 48096, Control_c, 1, 7, 96
3, 48228, Note_on_c, 1, 69, 0
3, 48240, Note_on_c, 1, 67, 100
3, 48288, Control_c, 1, 7, 97
3, 48468, Note_on_c, 1, 67, 0
3, 48480, Control_c, 1, 7, 98
3, 48480, Note_on_c, 1, 65, 100
3, 48656, Control_c, 1, 7, 99
3, 48708, Note_on_c, 1, 65, 0
3, 48720, Note_on_c, 1, 64, 100
3, 48848, Control_c, 1, 7, 100
3, 48948, Note_on_c, 1, 64, 0
3, 48960, Note_on_c, 1, 62, 100
3, 49024, Control_c, 1, 7, 101
3, 49188, Note_on_c, 1, 62, 0
3, 49200, Note_on_c, 1, 64, 100
3, 49216, Control_c, 1, 7, 102
3, 49408, Control_c, 1, 7, 103
3, 49428, Note_on_c, 1, 64, 0
3, 49440, Note_on_c, 1, 65, 100
3, 49584, Control_c, 1, 7, 104
3, 49668, Note_on_c, 1, 65, 0
3, 49680, Note_on_c, 1, 67, 100
3, 49776, Control_c, 1, 7, 105
3, 49908, Note_on_c, 1, 67, 0
3, 49920, Note_on_c, 1, 64, 100
3, 49968, Control_c, 1, 7, 106
3, 50144, Control_c, 1, 7, 107
3, 50148, Note_on_c, 1, 64, 0
3, 50160, Note_on_c, 1, 65, 100
3, 50274, Note_on_c, 1, 65, 0
3, 50280, Note_on_c, 1, 64, 100
3, 50336, Control_c, 1, 7, 108
3, 50394, Note_on_c, 1, 64, 0
3, 50400, Note_on_c, 1, 62, 100
3, 50512, Control_c, 1, 7, 109
3, 50628, Note_on_c, 1, 62, 0
3, 50640, Note_on_c, 1, 65, 100
3, 50704, Control_c, 1, 7, 110
3, 50754, Note_on_c, 1, 65, 0
3, 50760, Note_on_c, 1, 67, 100
3, 50874, Note_on_c, 1, 67, 0
3, 50880, Note_on_c, 1, 69, 100
3, 50896, Control_c, 1, 7, 111
3, 51072, Control_c, 1, 7, 112
3, 51108, Note_on_c, 1, 69, 0
3, 51120, Note_on_c, 1, 64, 100
3, 51264, Control_c, 1, 7, 113
3, 51348, Note_on_c, 1, 64, 0
3, 51360, Note_on_c, 1, 69, 100
3, 51456, Control_c, 1, 7, 114
3, 51588, Note_on_c, 1, 69, 0
3, 51600, Note_on_c, 1, 65, 100
3, 51632, Control_c, 1, 7, 115
3, 51828, Note_on_c, 1, 65, 0
3, 51840, Note_on_c, 1, 67, 100
3, 51888, Control_c, 1, 7, 114
3, 51952, Control_c, 1, 7, 113
3, 52016, Control_c, 1, 7, 112
3, 52068, Note_on_c, 1, 67, 0
3, 52080, Control_c, 1, 7, 111
3, 52080, Note_on_c, 1, 65, 100
3, 52144, Control_c, 1, 7, 110
3, 52194, Note_on_c, 1, 65, 0
3, 52200, Note_on_c, 1, 64, 100
3, 52208, Control_c, 1, 7, 109
3, 52272, Control_c, 1, 7, 108
3, 52314, Note_on_c, 1, 64, 0
3, 52320, Note_on_c, 1, 62, 100
3, 52336, Control_c, 1, 7, 107
3, 52416, Control_c, 1, 7, 106
3, 52480, Control_c, 1, 7, 105
3, 52544, Control_c, 1, 7, 104
3, 52548, Note_on_c, 1, 62, 0
3, 52560, Note_on_c, 1, 70, 100
3, 52608, Control_c, 1, 7, 103
3, 52672, Control_c, 1, 7, 102
3, 52736, Control_c, 1, 7, 101
3, 52788, Note_on_c, 1, 70, 0
3, 52800, Control_c, 1, 7, 100
3, 52800, Note_on_c, 1, 69, 100
3, 52864, Control_c, 1, 7, 99
3, 52914, Note_on_c, 1, 69, 0
3, 52920, Note_on_c, 1, 67, 100
3, 52944, Control_c, 1, 7, 98
3, 53008, Control_c, 1, 7, 97
3, 53034, Note_on_c, 1, 67, 0
3, 53040, Note_on_c, 1, 65, 100
3, 53072, Control_c, 1, 7, 96
3, 53136, Control_c, 1, 7, 95
3, 53154, Note_on_c, 1, 65, 0
3, 53160, Note_on_c, 1, 64, 100
3, 53274, Note_on_c, 1, 64, 0
3, 53280, Control_c, 1, 7, 105
3, 53280, Note_on_c, 1, 64, 100
3, 53312, Control_c, 1, 7, 104
3, 53344, Control_c, 1, 7, 103
3, 53376, Control_c, 1, 7, 102
3, 53408, Control_c, 1, 7, 101
3, 53456, Control_c, 1, 7, 100
3, 53488, Control_c, 1, 7, 99
3, 53508, Note_on_c, 1, 64, 0
3, 53520, Control_c, 1, 7, 98
3, 53520, Note_on_c, 1, 62, 100
3, 53552, Control_c, 1, 7, 97
3, 53600, Control_c, 1, 7, 96
3, 53632, Control_c, 1, 7, 95
3, 53748, Note_on_c, 1, 62, 0
3, 53760, Key_signature, -1, "major"
3, 57600, Note_on_c, 1, 69, 100
3, 57828, Note_on_c, 1, 69, 0
3, 57840, Note_on_c, 1, 67, 100
3, 58068, Note_on_c, 1, 67, 0
3, 58080, Note_on_c, 1, 65, 100
3, 58308, Note_on_c, 1, 65, 0
3, 58320, Note_on_c, 1, 64, 100
3, 58548, Note_on_c, 1, 64, 0
3, 58560, Note_on_c, 1, 62, 100
3, 58788, Note_on_c, 1, 62, 0
3, 58800, Note_on_c, 1, 64, 100
3, 59028, Note_on_c, 1, 64, 0
3, 59040, Note_on_c, 1, 65, 100
3, 59268, Note_on_c, 1, 65, 0
3, 59280, Note_on_c, 1, 65, 100
3, 59508, Note_on_c, 1, 65, 0
3, 59520, Note_on_c, 1, 67, 100
3, 59748, Note_on_c, 1, 67, 0
3, 59760, Note_on_c, 1, 67, 100
3, 59988, Note_on_c, 1, 67, 0
3, 60000, Note_on_c, 1, 69, 100
3, 60228, Note_on_c, 1, 69, 0
3, 60240, Note_on_c, 1, 69, 100
3, 60468, Note_on_c, 1, 69, 0
3, 60480, Note_on_c, 1, 69, 100
3, 60594, Note_on_c, 1, 69, 0
3, 60600, Note_on_c, 1, 67, 100
3, 60714, Note_on_c, 1, 67, 0
3, 60720, Note_on_c, 1, 65, 100
3, 60834, Note_on_c, 1, 65, 0
3, 60840, Note_on_c, 1, 64, 100
3, 60954, Note_on_c, 1, 64, 0
3, 60960, Note_on_c, 1, 62, 100
3, 61188, Note_on_c, 1, 62, 0
3, 61200, Note_on_c, 1, 61, 100
3, 61428, Note_on_c, 1, 61, 0
3, 61440, Note_on_c, 1, 69, 100
3, 61536, Control_c, 1, 7, 96
3, 61668, Note_on_c, 1, 69, 0
3, 61680, Note_on_c, 1, 67, 100
3, 61728, Control_c, 1, 7, 97
3, 61908, Note_on_c, 1, 67, 0
3, 61920, Control_c, 1, 7, 98
3, 61920, Note_on_c, 1, 65, 100
3, 62096, Control_c, 1, 7, 99
3, 62148, Note_on_c, 1, 65, 0
3, 62160, Note_on_c, 1, 64, 100
3, 62288, Control_c, 1, 7, 100
3, 62388, Note_on_c, 1, 64, 0
3, 62400, Note_on_c, 1, 62, 100
3, 62464, Control_c, 1, 7, 101
3, 62628, Note_on_c, 1, 62, 0
3, 62640, Note_on_c, 1, 64, 100
3, 62656, Control_c, 1, 7, 102
3, 62848, Control_c, 1, 7, 103
3, 62868, Note_on_c, 1, 64, 0
3, 62880, Note_on_c, 1, 65, 100
3, 63024, Control_c, 1, 7, 104
3, 63108, Note_on_c, 1, 65, 0
3, 63120, Note_on_c, 1, 67, 100
3, 63216, Control_c, 1, 7, 105
3, 63348, Note_on_c, 1, 67, 0
3, 63360, Note_on_c, 1, 64, 100
3, 63408, Control_c, 1, 7, 106
3, 63584, Control_c, 1, 7, 107
3, 63588, Note_on_c, 1, 64, 0
3, 63600, Note_on_c, 1, 65, 100
3, 63714, Note_on_c, 1, 65, 0
3, 63720, Note_on_c, 1, 64, 100
3, 63776, Control_c, 1, 7, 108
3, 63834, Note_on_c, 1, 64, 0
3, 63840, Note_on_c, 1, 62, 100
3, 63952, Control_c, 1, 7, 109
3, 64068, Note_on_c, 1, 62, 0
3, 64080, Note_on_c, 1, 65, 100
3, 64144, Control_c, 1, 7, 110
3, 64194, Note_on_c, 1, 65, 0
3, 64200, Note_on_c, 1, 67, 100
3, 64314, Note_on_c, 1, 67, 0
3, 64320, Note_on_c, 1, 69, 100
3, 64336, Control_c, 1, 7, 111
3, 64512, Control_c, 1, 7, 112
3, 64548, Note_on_c, 1, 69, 0
3, 64560, Note_on_c, 1, 64, 100
3, 64704, Control_c, 1, 7, 113
3, 64788, Note_on_c, 1, 64, 0
3, 64800, Note_on_c, 1, 69, 100
3, 64896, Control_c, 1, 7, 114
3, 65028, Note_on_c, 1, 69, 0
3, 65040, Note_on_c, 1, 65, 100
3, 65072, Control_c, 1, 7, 115
3, 65268, Note_on_c, 1, 65, 0
3, 65280, Note_on_c, 1, 67, 100
3, 65328, Control_c, 1, 7, 114
3, 65392, Control_c, 1, 7, 113
3, 65456, Control_c, 1, 7, 112
3, 65508, Note_on_c, 1, 67, 0
3, 65520, Control_c, 1, 7, 111
3, 65520, Note_on_c, 1, 65, 100
3, 65584, Control_c, 1, 7, 110
3, 65634, Note_on_c, 1, 65, 0
3, 65640, Note_on_c, 1, 64, 100
3, 65648, Control_c, 1, 7, 109
3, 65712, Control_c, 1, 7, 108
3, 65754, Note_on_c, 1, 64, 0
3, 65760, Note_on_c, 1, 62, 100
3, 65776, Control_c, 1, 7, 107
3, 65856, Control_c, 1, 7, 106
3, 65920, Control_c, 1, 7, 105
3, 65984, Control_c, 1, 7, 104
3, 65988, Note_on_c, 1, 62, 0
3, 66000, Note_on_c, 1, 70, 100
3, 66048, Control_c, 1, 7, 103
3, 66112, Control_c, 1, 7, 102
3, 66176, Control_c, 1, 7, 101
3, 66228, Note_on_c, 1, 70, 0
3, 66240, Control_c, 1, 7, 100
3, 66240, Note_on_c, 1, 69, 100
3, 66304, Control_c, 1, 7, 99
3, 66354, Note_on_c, 1, 69, 0
3, 66360, Note_on_c, 1, 67, 100
3, 66384, Control_c, 1, 7, 98
3, 66448, Control_c, 1, 7, 97
3, 66474, Note_on_c, 1, 67, 0
3, 66480, Note_on_c, 1, 65, 100
3, 66512, Control_c, 1, 7, 96
3, 66576, Control_c, 1, 7, 95
3, 66594, Note_on_c, 1, 65, 0
3, 66600, Note_on_c, 1, 64, 100
3, 66714, Note_on_c, 1, 64, 0
3, 66720, Control_c, 1, 7, 105
3, 66720, Note_on_c, 1, 64, 100
3, 66752, Control_c, 1, 7, 104
3, 66784, Control_c, 1, 7, 103
3, 66816, Control_c, 1, 7, 102
3, 66848, Control_c, 1, 7, 101
3, 66896, Control_c, 1, 7, 100
3, 66928, Control_c, 1, 7, 99
3, 66948, Note_on_c, 1, 64, 0
3, 66960, Control_c, 1, 7, 98
3, 66960, Note_on_c, 1, 62, 100
3, 66992, Control_c, 1, 7, 97
3, 67040, Control_c, 1, 7, 96
3, 67072, Control_c, 1, 7, 95
3, 67188, Note_on_c, 1, 62, 0
3, 67200, Key_signature, -1, "major"
3, 71040, Note_on_c, 1, 69, 100
3, 71268, Note_on_c, 1, 69, 0
3, 71280, Note_on_c, 1, 67, 100
3, 71508, Note_on_c, 1, 67, 0
3, 71520, Note_on_c, 1, 65, 100
3, 71748, Note_on_c, 1, 65, 0
3, 71760, Note_on_c, 1, 64, 100
3, 71988, Note_on_c, 1, 64, 0
3, 72000, Note_on_c, 1, 62, 100
3, 72228, Note_on_c, 1, 62, 0
3, 72240, Note_on_c, 1, 64, 100
3, 72468, Note_on_c, 1, 64, 0
3, 72480, Note_on_c, 1, 65, 100
3, 72708, Note_on_c, 1, 65, 0
3, 72720, Note_on_c, 1, 65, 100
3, 72948, Note_on_c, 1, 65, 0
3, 72960, Note_on_c, 1, 67, 100
3, 73188, Note_on_c, 1, 67, 0
3, 73200, Note_on_c, 1, 67, 100
3, 73428, Note_on_c, 1, 67, 0
3, 73440, Note_on_c, 1, 69, 100
3, 73668, Note_on_c, 1, 69, 0
3, 73680, Note_on_c, 1, 69, 100
3, 73908, Note_on_c, 1, 69, 0
3, 73920, Note_on_c, 1, 69, 100
3, 74034, Note_on_c, 1, 69, 0
3, 74040, Note_on_c, 1, 67, 100
3, 74154, Note_on_c, 1, 67, 0
3, 74160, Note_on_c, 1, 65, 100
3, 74274, Note_on_c, 1, 65, 0
3, 74280, Note_on_c, 1, 64, 100
3, 74394, Note_on_c, 1, 64, 0
3, 74400, Note_on_c, 1, 62, 100
3, 74628, Note_on_c, 1, 62, 0
3, 74640, Note_on_c, 1, 61, 100
3, 74868, Note_on_c, 1, 61, 0
3, 74880, Note_on_c, 1, 69, 100
3, 74976, Control_c, 1, 7, 96
3, 75108, Note_on_c, 1, 69, 0
3, 75120, Note_on_c, 1, 67, 100
3, 75168, Control_c, 1, 7, 97
3, 75348, Note_on_c, 1, 67, 0
3, 75360, Control_c, 1, 7, 98
3, 75360, Note_on_c, 1, 65, 100
3, 75536, Control_c, 1, 7, 99
3, 75588, Note_on_c, 1, 65, 0
3, 75600, Note_on_c, 1, 64, 100
3, 75728, Control_c, 1, 7, 100
3, 75828, Note_on_c, 1, 64, 0
3, 75840, Note_on_c, 1, 62, 100
3, 75904, Control_c, 1, 7, 101
3, 76068, Note_on_c, 1, 62, 0
3, 76080, Note_on_c, 1, 64, 100
3, 76096, Control_c, 1, 7, 102
3, 76288, Control_c, 1, 7, 103
3, 76308, Note_on_c, 1, 64, 0
3, 76320, Note_on_c, 1, 65, 100
3, 76464, Control_c, 1, 7, 104
3, 76548, Note_on_c, 1, 65, 0
3, 76560, Note_on_c, 1, 67, 100
3, 76656, Control_c, 1, 7, 105
3, 76788, Note_on_c, 1, 67, 0
3, 76800, Note_on_c, 1, 64, 100
3, 76848, Control_c, 1, 7, 106
3, 77024, Control_c, 1, 7, 107
3, 77028, Note_on_c, 1, 64, 0
3, 77040, Note_on_c, 1, 65, 100
3, 77154, Note_on_c, 1, 65, 0
3, 77160, Note_on_c, 1, 64, 100
3, 77216, Control_c, 1, 7, 108
3, 77274, Note_on_c, 1, 64, 0
3, 77280, Note_on_c, 1, 62, 100
3, 77392, Control_c, 1, 7, 109
3, 77508, Note_on_c, 1, 62, 0
3, 77520, Note_on_c, 1, 65, 100
3, 77584, Control_c, 1, 7, 110
3, 77634, Note_on_c, 1, 65, 0
3, 77640, Note_on_c, 1, 67, 100
3, 77754, Note_on_c, 1, 67, 0
3, 77760, Note_on_c, 1, 69, 100
3, 77776, Control_c, 1, 7, 111
3, 77952, Control_c, 1, 7, 112
3, 77988, Note_on_c, 1, 69, 0
3, 78000, Note_on_c, 1, 64, 100
3, 78144, Control_c, 1, 7, 113
3, 78228, Note_on_c, 1, 64, 0
3, 78240, Note_on_c, 1, 69, 100
3, 78336, Control_c, 1, 7, 114
3, 78468, Note_on_c, 1, 69, 0
3, 78480, Note_on_c, 1, 65, 100
3, 78512, Control_c, 1, 7, 115
3, 78708, Note_on_c, 1, 65, 0
3, 78720, Note_on_c, 1, 67, 100
3, 78768, Control_c, 1, 7, 114
3, 78832, Control_c, 1, 7, 113
3, 78896, Control_c, 1, 7, 112
3, 78948, Note_on_c, 1, 67, 0
3, 78960, Control_c, 1, 7, 111
3, 78960, Note_on_c, 1, 65, 100
3, 79024, Control_c, 1, 7, 110
3, 79074, Note_on_c, 1, 65, 0
3, 79080, Note_on_c, 1, 64, 100
3, 79088, Control_c, 1, 7, 109
3, 79152, Control_c, 1, 7, 108
3, 79194, Note_on_c, 1, 64, 0
3, 79200, Note_on_c, 1, 62, 100
3, 79200, Control_c, 1, 7, 108
3, 79216, Control_c, 1, 7, 107
3, 79216, Control_c, 1, 7, 107
3, 79296, Control_c, 1, 7, 106
3, 79296, Control_c, 1, 7, 106
3, 79360, Control_c, 1, 7, 105
3, 79360, Control_c, 1, 7, 105
3, 79424, Control_c, 1, 7, 104
3, 79424, Control_c, 1, 7, 104
3, 79428, Note_on_c, 1, 62, 0
3, 79440, Note_on_c, 1, 70, 100
3, 79488, Control_c, 1, 7, 103
3, 79488, Control_c, 1, 7, 103
3, 79552, Control_c, 1, 7, 102
3, 79552, Control_c, 1, 7, 102
3, 79616, Control_c, 1, 7, 101
3, 79616, Control_c, 1, 7, 101
3, 79668, Note_on_c, 1, 70, 0
3, 79680, Control_c, 1, 7, 100
3, 79680, Note_on_c, 1, 69, 100
3, 79680, Control_c, 1, 7, 100
3, 79744, Control_c, 1, 7, 99
3, 79744, Control_c, 1, 7, 99
3, 79794, Note_on_c, 1, 69, 0
3, 79800, Note_on_c, 1, 67, 100
3, 79824, Control_c, 1, 7, 98
3, 79824, Control_c, 1, 7, 98
3, 79888, Control_c, 1, 7, 97
3, 79888, Control_c, 1, 7, 97
3, 79914, Note_on_c, 1, 67, 0
3, 79920, Note_on_c, 1, 65, 100
3, 79952, Control_c, 1, 7, 96
3, 79952, Control_c, 1, 7, 96
3, 80016, Control_c, 1, 7, 95
3, 80016, Control_c, 1, 7, 95
3, 80034, Note_on_c, 1, 65, 0
3, 80040, Note_on_c, 1, 64, 100
3, 80154, Note_on_c, 1, 64, 0
3, 80160, Control_c, 1, 7, 105
3, 80160, Note_on_c, 1, 64, 100
3, 80160, Control_c, 1, 7, 105
3, 80192, Control_c, 1, 7, 104
3, 80192, Control_c, 1, 7, 104
3, 80224, Control_c, 1, 7, 103
3, 80224, Control_c, 1, 7, 103
3, 80256, Control_c, 1, 7, 102
3, 80256, Control_c, 1, 7, 102
3, 80288, Control_c, 1, 7, 101
3, 80288, Control_c, 1, 7, 101
3, 80336, Control_c, 1, 7, 100
3, 80336, Control_c, 1, 7, 100
3, 80368, Control_c, 1, 7, 99
3, 80368, Control_c, 1, 7, 99
3, 80388, Note_on_c, 1, 64, 0
3, 80400, Control_c, 1, 7, 98
3, 80400, Note_on_c, 1, 62, 100
3, 80400, Control_c, 1, 7, 98
3, 80432, Control_c, 1, 7, 97
3, 80432, Control_c, 1, 7, 97
3, 80480, Control_c, 1, 7, 96
3, 80480, Control_c, 1, 7, 96
3, 80512, Control_c, 1, 7, 95
3, 80512, Control_c, 1, 7, 95
3, 80628, Note_on_c, 1, 62, 0
3, 80640, Key_signature, -1, "major"
3, 84480, Note_on_c, 1, 69, 100
3, 84708, Note_on_c, 1, 69, 0
3, 84720, Note_on_c, 1, 67, 100
3, 84948, Note_on_c, 1, 67, 0
3, 84960, Note_on_c, 1, 65, 100
3, 85188, Note_on_c, 1, 65, 0
3, 85200, Note_on_c, 1, 64, 100
3, 85428, Note_on_c, 1, 64, 0
3, 85440, Note_on_c, 1, 62, 100
3, 85668, Note_on_c, 1, 62, 0
3, 85680, Note_on_c, 1, 64, 100
3, 85908, Note_on_c, 1, 64, 0
3, 85920, Note_on_c, 1, 65, 100
3, 86148, Note_on_c, 1, 65, 0
3, 86160, Note_on_c, 1, 65, 100
3, 86388, Note_on_c, 1, 65, 0
3, 86400, Note_on_c, 1, 67, 100
3, 86628, Note_on_c, 1, 67, 0
3, 86640, Note_on_c, 1, 67, 100
3, 86868, Note_on_c, 1, 67, 0
3, 86880, Note_on_c, 1, 69, 100
3, 87108, Note_on_c, 1, 69, 0
3, 87120, Note_on_c, 1, 69, 100
3, 87348, Note_on_c, 1, 69, 0
3, 87360, Note_on_c, 1, 69, 100
3, 87474, Note_on_c, 1, 69, 0
3, 87480, Note_on_c, 1, 67, 100
3, 87594, Note_on_c, 1, 67, 0
3, 87600, Note_on_c, 1, 65, 100
3, 87714, Note_on_c, 1, 65, 0
3, 87720, Note_on_c, 1, 64, 100
3, 87834, Note_on_c, 1, 64, 0
3, 87840, Note_on_c, 1, 62, 100
3, 88068, Note_on_c, 1, 62, 0
3, 88080, Note_on_c, 1, 61, 100
3, 88308, Note_on_c, 1, 61, 0
3, 88320, Note_on_c, 1, 69, 100
3, 88416, Control_c, 1, 7, 96
3, 88548, Note_on_c, 1, 69, 0
3, 88560, Note_on_c, 1, 67, 100
3, 88608, Control_c, 1, 7, 97
3, 88788, Note_on_c, 1, 67, 0
3, 88800, Control_c, 1, 7, 98
3, 88800, Note_on_c, 1, 65, 100
3, 88976, Control_c, 1, 7, 99
3, 89028, Note_on_c, 1, 65, 0
3, 89040, Note_on_c, 1, 64, 100
3, 89168, Control_c, 1, 7, 100
3, 89268, Note_on_c, 1, 64, 0
3, 89280, Note_on_c, 1, 62, 100
3, 89344, Control_c, 1, 7, 101
3, 89508, Note_on_c, 1, 62, 0
3, 89520, Note_on_c, 1, 64, 100
3, 89536, Control_c, 1, 7, 102
3, 89728, Control_c, 1, 7, 103
3, 89748, Note_on_c, 1, 64, 0
3, 89760, Note_on_c, 1, 65, 100
3, 89904, Control_c, 1, 7, 104
3, 89988, Note_on_c, 1, 65, 0
3, 90000, Note_on_c, 1, 67, 100
3, 90096, Control_c, 1, 7, 105
3, 90228, Note_on_c, 1, 67, 0
3, 90240, Note_on_c, 1, 64, 100
3, 90288, Control_c, 1, 7, 106
3, 90464, Control_c, 1, 7, 107
3, 90468, Note_on_c, 1, 64, 0
3, 90480, Note_on_c, 1, 65, 100
3, 90594, Note_on_c, 1, 65, 0
3, 90600, Note_on_c, 1, 64, 100
3, 90656, Control_c, 1, 7, 108
3, 90714, Note_on_c, 1, 64, 0
3, 90720, Note_on_c, 1, 62, 100
3, 90832, Control_c, 1, 7, 109
3, 90948, Note_on_c, 1, 62, 0
3, 90960, Note_on_c, 1, 65, 100
3, 91024, Control_c, 1, 7, 110
3, 91074, Note_on_c, 1, 65, 0
3, 91080, Note_on_c, 1, 67, 100
3, 91194, Note_on_c, 1, 67, 0
3, 91200, Note_on_c, 1, 69, 100
3, 91216, Control_c, 1, 7, 111
3, 91392, Control_c, 1, 7, 112
3, 91428, Note_on_c, 1, 69, 0
3, 91440, Note_on_c, 1, 64, 100
3, 91584, Control_c, 1, 7, 113
3, 91668, Note_on_c, 1, 64, 0
3, 91680, Note_on_c, 1, 69, 100
3, 91776, Control_c, 1, 7, 114
3, 91908, Note_on_c, 1, 69, 0
3, 91920, Note_on_c, 1, 65, 100
3, 91952, Control_c, 1, 7, 115
3, 92148, Note_on_c, 1, 65, 0
3, 92160, Note_on_c, 1, 67, 100
3, 92208, Control_c, 1, 7, 114
3, 92272, Control_c, 1, 7, 113
3, 92336, Control_c, 1, 7, 112
3, 92388, Note_on_c, 1, 67, 0
3, 92400, Control_c, 1, 7, 111
3, 92400, Note_on_c, 1, 65, 100
3, 92464, Control_c, 1, 7, 110
3, 92514, Note_on_c, 1, 65, 0
3, 92520, Note_on_c, 1, 64, 100
3, 92528, Control_c, 1, 7, 109
3, 92592, Control_c, 1, 7, 108
3, 92634, Note_on_c, 1, 64, 0
3, 92640, Note_on_c, 1, 62, 100
3, 92656, Control_c, 1, 7, 107
3, 92736, Control_c, 1, 7, 106
3, 92800, Control_c, 1, 7, 105
3, 92864, Control_c, 1, 7, 104
3, 92868, Note_on_c, 1, 62, 0
3, 92880, Note_on_c, 1, 70, 100
3, 92928, Control_c, 1, 7, 103
3, 92992, Control_c, 1, 7, 102
3, 93056, Control_c, 1, 7, 101
3, 93108, Note_on_c, 1, 70, 0
3, 93120, Control_c, 1, 7, 100
3, 93120, Note_on_c, 1, 69, 100
3, 93184, Control_c, 1, 7, 99
3, 93234, Note_on_c, 1, 69, 0
3, 93240, Note_on_c, 1, 67, 100
3, 93264, Control_c, 1, 7, 98
3, 93328, Control_c, 1, 7, 97
3, 93354, Note_on_c, 1, 67, 0
3, 93360, Note_on_c, 1, 65, 100
3, 93392, Control_c, 1, 7, 96
3, 93456, Control_c, 1, 7, 95
3, 93474, Note_on_c, 1, 65, 0
3, 93480, Note_on_c, 1, 64, 100
3, 93594, Note_on_c, 1, 64, 0
3, 93600, Control_c, 1, 7, 105
3, 93600, Note_on_c, 1, 64, 100
3, 93632, Control_c, 1, 7, 104
3, 93664, Control_c, 1, 7, 103
3, 93696, Control_c, 1, 7, 102
3, 93728, Control_c, 1, 7, 101
3, 93776, Control_c, 1, 7, 100
3, 93808, Control_c, 1, 7, 99
3, 93828, Note_on_c, 1, 64, 0
3, 93840, Control_c, 1, 7, 98
3, 93840, Note_on_c, 1, 62, 100
3, 93872, Control_c, 1, 7, 97
3, 93920, Control_c, 1, 7, 96
3, 93952, Control_c, 1, 7, 95
3, 94068, Note_on_c, 1, 62, 0
3, 97920, End_track
0, 0, End_of_file