0, 0, Header, 1, 3, 480
1, 0, Start_track
1, 0, Tempo, 952321
1, 0, Time_signature, 2, 2, 24, 8
1, 0, Copyright_t, "Copyright \251 1999 My Music Company"
1, 0, Title_t, "Piano Solo"
1, 121920, End_track
2, 0, Start_track
2, 0, Control_c, 0, 7, 92
2, 0, Control_c, 0, 0, 0
2, 0, Control_c, 0, 32, 0
2, 0, Program_c, 0, 0
2, 0, Control_c, 0, 1, 0
2, 0, Control_c, 0, 10, 64
2, 0, Control_c, 0, 91, 0
2, 0, Control_c, 0, 93, 0
2, 0, Title_t, "Piano"
2, 0, Note_on_c, 0, 69, 100
2, 0, Note_on_c, 0, 64, 100
2, 0, Note_on_c, 0, 60, 100
2, 0, Note_on_c, 0, 57, 100
2, 0, Note_on_c, 0, 45, 100
2, 456, Note_on_c, 0, 45, 0
2, 456, Note_on_c, 0, 57, 0
2, 456, Note_on_c, 0, 60, 0
2, 456, Note_on_c, 0, 64, 0
2, 456, Note_on_c, 0, 69, 0
2, 480, Note_on_c, 0, 50, 100
2, 480, Note_on_c, 0, 57, 100
2, 480, Note_on_c, 0, 62, 100
2, 480, Note_on_c, 0, 65, 100
2, 480, Note_on_c, 0, 69, 100
2, 822, Note_on_c, 0, 69, 0
2, 840, Note_on_c, 0, 71, 100
2, 936, Note_on_c, 0, 65, 0
2, 936, Note_on_c, 0, 62, 0
2, 936, Note_on_c, 0, 57, 0
2, 936, Note_on_c, 0, 50, 0
2, 954, Note_on_c, 0, 71, 0
2, 960, Note_on_c, 0, 69, 100
2, 960, Note_on_c, 0, 64, 100
2, 960, Note_on_c, 0, 60, 100
2, 960, Note_on_c, 0, 57, 100
2, 960, Note_on_c, 0, 45, 100
2, 1416, Note_on_c, 0, 45, 0
2, 1416, Note_on_c, 0, 57, 0
2, 1416, Note_on_c, 0, 60, 0
2, 1416, Note_on_c, 0, 64, 0
2, 1416, Note_on_c, 0, 69, 0
2, 1440, Note_on_c, 0, 50, 100
2, 1440, Note_on_c, 0, 57, 100
2, 1440, Note_on_c, 0, 62, 100
2, 1440, Note_on_c, 0, 65, 100
2, 1440, Note_on_c, 0, 69, 100
2, 1782, Note_on_c, 0, 69, 0
2, 1800, Note_on_c, 0, 71, 100
2, 1896, Note_on_c, 0, 65, 0
2, 1896, Note_on_c, 0, 62, 0
2, 1896, Note_on_c, 0, 57, 0
2, 1896, Note_on_c, 0, 50, 0
2, 1914, Note_on_c, 0, 71, 0
2, 1920, Note_on_c, 0, 69, 100
2, 1920, Note_on_c, 0, 64, 100
2, 1920, Note_on_c, 0, 60, 100
2, 1920, Note_on_c, 0, 57, 100
2, 1920, Note_on_c, 0, 45, 100
2, 2376, Note_on_c, 0, 45, 0
2, 2376, Note_on_c, 0, 57, 0
2, 2376, Note_on_c, 0, 60, 0
2, 2376, Note_on_c, 0, 64, 0
2, 2376, Note_on_c, 0, 69, 0
2, 2400, Note_on_c, 0, 47, 100
2, 2400, Note_on_c, 0, 59, 100
2, 2400, Note_on_c, 0, 64, 100
2, 2400, Note_on_c, 0, 68, 100
2, 2742, Note_on_c, 0, 68, 0
2, 2760, Note_on_c, 0, 69, 100
2, 2856, Note_on_c, 0, 64, 0
2, 2856, Note_on_c, 0, 59, 0
2, 2856, Note_on_c, 0, 47, 0
2, 2874, Note_on_c, 0, 69, 0
2, 2880, Note_on_c, 0, 66, 100
2, 2880, Note_on_c, 0, 63, 100
2, 2880, Note_on_c, 0, 59, 100
2, 2880, Note_on_c, 0, 47, 100
2, 2880, Note_on_c, 0, 57, 100
2, 2930, Control_c, 0, 7, 91
2, 3006, Control_c, 0, 7, 90
2, 3056, Control_c, 0, 7, 89
2, 3132, Control_c, 0, 7, 88
2, 3207, Control_c, 0, 7, 87
2, 3258, Control_c, 0, 7, 86
2, 3333, Control_c, 0, 7, 85
2, 3336, Note_on_c, 0, 57, 0
2, 3336, Note_on_c, 0, 47, 0
2, 3336, Note_on_c, 0, 59, 0
2, 3336, Note_on_c, 0, 63, 0
2, 3336, Note_on_c, 0, 66, 0
2, 3360, Note_on_c, 0, 64, 100
2, 3360, Note_on_c, 0, 59, 100
2, 3360, Note_on_c, 0, 56, 100
2, 3360, Note_on_c, 0, 40, 100
2, 3816, Note_on_c, 0, 40, 0
2, 3816, Note_on_c, 0, 56, 0
2, 3816, Note_on_c, 0, 59, 0
2, 3816, Note_on_c, 0, 64, 0
2, 3840, Note_on_c, 0, 40, 100
2, 3840, Note_on_c, 0, 52, 100
2, 3840, Note_on_c, 0, 64, 100
2, 3840, Note_on_c, 0, 62, 100
2, 3840, Note_on_c, 0, 56, 100
2, 4776, Note_on_c, 0, 56, 0
2, 4776, Note_on_c, 0, 62, 0
2, 4776, Note_on_c, 0, 64, 0
2, 4776, Note_on_c, 0, 52, 0
2, 4776, Note_on_c, 0, 40, 0
2, 4800, Note_on_c, 0, 45, 100
2, 4800, Note_on_c, 0, 52, 100
2, 4800, Note_on_c, 0, 64, 100
2, 4800, Note_on_c, 0, 60, 100
2, 4800, Note_on_c, 0, 57, 100
2, 5736, Note_on_c, 0, 57, 0
2, 5736, Note_on_c, 0, 60, 0
2, 5736, Note_on_c, 0, 64, 0
2, 5736, Note_on_c, 0, 52, 0
2, 5736, Note_on_c, 0, 45, 0
2, 5760, Note_on_c, 0, 62, 100
2, 5760, Note_on_c, 0, 59, 100
2, 5760, Note_on_c, 0, 57, 100
2, 5760, Note_on_c, 0, 45, 100
2, 6216, Note_on_c, 0, 45, 0
2, 6240, Note_on_c, 0, 38, 100
2, 6696, Note_on_c, 0, 38, 0
2, 6696, Note_on_c, 0, 57, 0
2, 6696, Note_on_c, 0, 59, 0
2, 6696, Note_on_c, 0, 62, 0
2, 6720, Note_on_c, 0, 64, 100
2, 6720, Note_on_c, 0, 60, 100
2, 6720, Note_on_c, 0, 57, 100
2, 6720, Note_on_c, 0, 45, 100
2, 6720, Note_on_c, 0, 52, 100
2, 7656, Note_on_c, 0, 52, 0
2, 7656, Note_on_c, 0, 45, 0
2, 7656, Note_on_c, 0, 57, 0
2, 7656, Note_on_c, 0, 60, 0
2, 7656, Note_on_c, 0, 64, 0
2, 7680, Note_on_c, 0, 62, 100
2, 7680, Note_on_c, 0, 68, 100
2, 7680, Note_on_c, 0, 59, 100
2, 7680, Note_on_c, 0, 40, 100
2, 7680, Note_on_c, 0, 52, 100
2, 8616, Note_on_c, 0, 52, 0
2, 8616, Note_on_c, 0, 40, 0
2, 8616, Note_on_c, 0, 59, 0
2, 8616, Note_on_c, 0, 68, 0
2, 8616, Note_on_c, 0, 62, 0
2, 8640, Note_on_c, 0, 57, 100
2, 8640, Note_on_c, 0, 60, 100
2, 8640, Note_on_c, 0, 69, 100
2, 8640, Note_on_c, 0, 53, 100
2, 8640, Note_on_c, 0, 41, 100
2, 9096, Note_on_c, 0, 41, 0
2, 9096, Note_on_c, 0, 53, 0
2, 9096, Note_on_c, 0, 69, 0
2, 9096, Note_on_c, 0, 60, 0
2, 9096, Note_on_c, 0, 57, 0
2, 9120, Note_on_c, 0, 57, 100
2, 9120, Note_on_c, 0, 59, 100
2, 9120, Note_on_c, 0, 65, 100
2, 9120, Note_on_c, 0, 69, 100
2, 9120, Note_on_c, 0, 50, 100
2, 9120, Note_on_c, 0, 38, 100
2, 9576, Note_on_c, 0, 38, 0
2, 9576, Note_on_c, 0, 50, 0
2, 9576, Note_on_c, 0, 69, 0
2, 9576, Note_on_c, 0, 65, 0
2, 9576, Note_on_c, 0, 59, 0
2, 9576, Note_on_c, 0, 57, 0
2, 9600, Note_on_c, 0, 64, 100
2, 9600, Note_on_c, 0, 68, 100
2, 9600, Note_on_c, 0, 59, 100
2, 9600, Note_on_c, 0, 40, 100
2, 9600, Note_on_c, 0, 52, 100
2, 9600, Note_on_c, 0, 62, 100
2, 10536, Note_on_c, 0, 62, 0
2, 10536, Note_on_c, 0, 52, 0
2, 10536, Note_on_c, 0, 40, 0
2, 10536, Note_on_c, 0, 59, 0
2, 10536, Note_on_c, 0, 68, 0
2, 10536, Note_on_c, 0, 64, 0
2, 10560, Note_on_c, 0, 64, 100
2, 10560, Note_on_c, 0, 60, 100
2, 10560, Note_on_c, 0, 69, 100
2, 10560, Note_on_c, 0, 57, 100
2, 10560, Note_on_c, 0, 45, 100
2, 11016, Note_on_c, 0, 45, 0
2, 11016, Note_on_c, 0, 57, 0
2, 11016, Note_on_c, 0, 69, 0
2, 11016, Note_on_c, 0, 60, 0
2, 11016, Note_on_c, 0, 64, 0
2, 11040, Note_on_c, 0, 57, 100
2, 11040, Note_on_c, 0, 60, 100
2, 11040, Note_on_c, 0, 64, 100
2, 11040, Note_on_c, 0, 52, 100
2, 11496, Note_on_c, 0, 52, 0
2, 11496, Note_on_c, 0, 64, 0
2, 11496, Note_on_c, 0, 60, 0
2, 11496, Note_on_c, 0, 57, 0
2, 11520, Note_on_c, 0, 48, 100
2, 11520, Note_on_c, 0, 55, 100
2, 11520, Note_on_c, 0, 60, 100
2, 11520, Note_on_c, 0, 64, 100
2, 13416, Note_on_c, 0, 64, 0
2, 13416, Note_on_c, 0, 60, 0
2, 13416, Note_on_c, 0, 55, 0
2, 13416, Note_on_c, 0, 48, 0
2, 13440, Note_on_c, 0, 62, 100
2, 13440, Note_on_c, 0, 55, 100
2, 13440, Note_on_c, 0, 59, 100
2, 13440, Note_on_c, 0, 43, 100
2, 14376, Note_on_c, 0, 43, 0
2, 14376, Note_on_c, 0, 59, 0
2, 14376, Note_on_c, 0, 55, 0
2, 14376, Note_on_c, 0, 62, 0
2, 14400, Note_on_c, 0, 62, 100
2, 14400, Note_on_c, 0, 65, 100
2, 14400, Note_on_c, 0, 57, 100
2, 14400, Note_on_c, 0, 38, 100
2, 15336, Note_on_c, 0, 38, 0
2, 15336, Note_on_c, 0, 57, 0
2, 15336, Note_on_c, 0, 65, 0
2, 15336, Note_on_c, 0, 62, 0
2, 15360, Note_on_c, 0, 64, 100
2, 15360, Note_on_c, 0, 56, 100
2, 15360, Note_on_c, 0, 59, 100
2, 15360, Note_on_c, 0, 62, 100
2, 15360, Note_on_c, 0, 40, 100
2, 15360, Note_on_c, 0, 52, 100
2, 16296, Note_on_c, 0, 52, 0
2, 16296, Note_on_c, 0, 40, 0
2, 16296, Note_on_c, 0, 62, 0
2, 16296, Note_on_c, 0, 59, 0
2, 16296, Note_on_c, 0, 56, 0
2, 16296, Note_on_c, 0, 64, 0
2, 16320, Note_on_c, 0, 57, 100
2, 16320, Note_on_c, 0, 60, 100
2, 16320, Note_on_c, 0, 64, 100
2, 16320, Note_on_c, 0, 45, 100
2, 16776, Note_on_c, 0, 45, 0
2, 16776, Note_on_c, 0, 64, 0
2, 16776, Note_on_c, 0, 60, 0
2, 16776, Note_on_c, 0, 57, 0
2, 16800, Note_on_c, 0, 57, 100
2, 16800, Note_on_c, 0, 62, 100
2, 16800, Note_on_c, 0, 65, 100
2, 16800, Note_on_c, 0, 38, 100
2, 17256, Note_on_c, 0, 38, 0
2, 17256, Note_on_c, 0, 65, 0
2, 17256, Note_on_c, 0, 62, 0
2, 17256, Note_on_c, 0, 57, 0
2, 17280, Note_on_c, 0, 57, 100
2, 17280, Note_on_c, 0, 60, 100
2, 17280, Note_on_c, 0, 64, 100
2, 17280, Note_on_c, 0, 40, 100
2, 17736, Note_on_c, 0, 40, 0
2, 17736, Note_on_c, 0, 64, 0
2, 17736, Note_on_c, 0, 60, 0
2, 17736, Note_on_c, 0, 57, 0
2, 17760, Note_on_c, 0, 56, 100
2, 17760, Note_on_c, 0, 62, 100
2, 17760, Note_on_c, 0, 64, 100
2, 17760, Note_on_c, 0, 52, 100
2, 18216, Note_on_c, 0, 52, 0
2, 18216, Note_on_c, 0, 64, 0
2, 18216, Note_on_c, 0, 62, 0
2, 18216, Note_on_c, 0, 56, 0
2, 18240, Note_on_c, 0, 57, 100
2, 18240, Note_on_c, 0, 60, 100
2, 18240, Note_on_c, 0, 64, 100
2, 18240, Note_on_c, 0, 45, 100
2, 18696, Note_on_c, 0, 45, 0
2, 18696, Note_on_c, 0, 64, 0
2, 18696, Note_on_c, 0, 60, 0
2, 18696, Note_on_c, 0, 57, 0
2, 18720, Note_on_c, 0, 55, 100
2, 18720, Note_on_c, 0, 60, 100
2, 18720, Note_on_c, 0, 64, 100
2, 18720, Note_on_c, 0, 48, 100
2, 19176, Note_on_c, 0, 48, 0
2, 19176, Note_on_c, 0, 64, 0
2, 19176, Note_on_c, 0, 60, 0
2, 19176, Note_on_c, 0, 55, 0
2, 19200, Note_on_c, 0, 48, 100
2, 19200, Note_on_c, 0, 55, 100
2, 19200, Note_on_c, 0, 60, 100
2, 19200, Note_on_c, 0, 64, 100
2, 21096, Note_on_c, 0, 64, 0
2, 21096, Note_on_c, 0, 60, 0
2, 21096, Note_on_c, 0, 55, 0
2, 21096, Note_on_c, 0, 48, 0
2, 21120, Note_on_c, 0, 43, 100
2, 21120, Note_on_c, 0, 62, 100
2, 21120, Note_on_c, 0, 55, 100
2, 21120, Note_on_c, 0, 59, 100
2, 22056, Note_on_c, 0, 59, 0
2, 22056, Note_on_c, 0, 55, 0
2, 22056, Note_on_c, 0, 62, 0
2, 22056, Note_on_c, 0, 43, 0
2, 22080, Note_on_c, 0, 38, 100
2, 22080, Note_on_c, 0, 62, 100
2, 22080, Note_on_c, 0, 65, 100
2, 22080, Note_on_c, 0, 57, 100
2, 23016, Note_on_c, 0, 57, 0
2, 23016, Note_on_c, 0, 65, 0
2, 23016, Note_on_c, 0, 62, 0
2, 23016, Note_on_c, 0, 38, 0
2, 23040, Note_on_c, 0, 64, 100
2, 23040, Note_on_c, 0, 56, 100
2, 23040, Note_on_c, 0, 59, 100
2, 23040, Note_on_c, 0, 62, 100
2, 23040, Note_on_c, 0, 40, 100
2, 23040, Note_on_c, 0, 52, 100
2, 23976, Note_on_c, 0, 52, 0
2, 23976, Note_on_c, 0, 40, 0
2, 23976, Note_on_c, 0, 62, 0
2, 23976, Note_on_c, 0, 59, 0
2, 23976, Note_on_c, 0, 56, 0
2, 23976, Note_on_c, 0, 64, 0
2, 24000, Note_on_c, 0, 57, 100
2, 24000, Note_on_c, 0, 60, 100
2, 24000, Note_on_c, 0, 64, 100
2, 24000, Note_on_c, 0, 45, 100
2, 24456, Note_on_c, 0, 45, 0
2, 24456, Note_on_c, 0, 64, 0
2, 24456, Note_on_c, 0, 60, 0
2, 24456, Note_on_c, 0, 57, 0
2, 24480, Note_on_c, 0, 38, 100
2, 24480, Note_on_c, 0, 57, 100
2, 24480, Note_on_c, 0, 62, 100
2, 24480, Note_on_c, 0, 65, 100
2, 24480, Note_on_c, 0, 50, 100
2, 24936, Note_on_c, 0, 50, 0
2, 24936, Note_on_c, 0, 65, 0
2, 24936, Note_on_c, 0, 62, 0
2, 24936, Note_on_c, 0, 57, 0
2, 24936, Note_on_c, 0, 38, 0
2, 24960, Note_on_c, 0, 57, 100
2, 24960, Note_on_c, 0, 60, 100
2, 24960, Note_on_c, 0, 64, 100
2, 24960, Note_on_c, 0, 40, 100
2, 24960, Note_on_c, 0, 52, 100
2, 26784, Note_on_c, 0, 52, 0
2, 26784, Note_on_c, 0, 40, 0
2, 26784, Note_on_c, 0, 64, 0
2, 26784, Note_on_c, 0, 60, 0
2, 26784, Note_on_c, 0, 57, 0
2, 26880, Note_on_c, 0, 64, 100
2, 26880, Note_on_c, 0, 57, 100
2, 26880, Note_on_c, 0, 59, 100
2, 26880, Note_on_c, 0, 40, 100
2, 26880, Note_on_c, 0, 52, 100
2, 27816, Note_on_c, 0, 59, 0
2, 27816, Note_on_c, 0, 57, 0
2, 27816, Note_on_c, 0, 64, 0
2, 27840, Note_on_c, 0, 56, 100
2, 27840, Note_on_c, 0, 59, 100
2, 27840, Note_on_c, 0, 64, 100
2, 27840, Note_on_c, 0, 62, 100
2, 28296, Note_on_c, 0, 62, 0
2, 28296, Note_on_c, 0, 64, 0
2, 28296, Note_on_c, 0, 59, 0
2, 28296, Note_on_c, 0, 56, 0
2, 28320, Note_on_c, 0, 68, 100
2, 28320, Note_on_c, 0, 64, 100
2, 28320, Note_on_c, 0, 62, 100
2, 28345, Control_c, 0, 7, 86
2, 28395, Control_c, 0, 7, 87
2, 28446, Control_c, 0, 7, 88
2, 28496, Control_c, 0, 7, 89
2, 28547, Control_c, 0, 7, 90
2, 28572, Control_c, 0, 7, 91
2, 28622, Control_c, 0, 7, 92
2, 28673, Control_c, 0, 7, 93
2, 28752, Note_on_c, 0, 52, 0
2, 28752, Note_on_c, 0, 40, 0
2, 28776, Note_on_c, 0, 62, 0
2, 28776, Note_on_c, 0, 64, 0
2, 28776, Note_on_c, 0, 68, 0
2, 28800, Note_on_c, 0, 69, 100
2, 28800, Note_on_c, 0, 64, 100
2, 28800, Note_on_c, 0, 60, 100
2, 28800, Note_on_c, 0, 57, 100
2, 28800, Note_on_c, 0, 45, 100
2, 29256, Note_on_c, 0, 45, 0
2, 29256, Note_on_c, 0, 57, 0
2, 29256, Note_on_c, 0, 60, 0
2, 29256, Note_on_c, 0, 64, 0
2, 29256, Note_on_c, 0, 69, 0
2, 29280, Note_on_c, 0, 50, 100
2, 29280, Note_on_c, 0, 57, 100
2, 29280, Note_on_c, 0, 62, 100
2, 29280, Note_on_c, 0, 65, 100
2, 29280, Note_on_c, 0, 69, 100
2, 29622, Note_on_c, 0, 69, 0
2, 29640, Note_on_c, 0, 71, 100
2, 29736, Note_on_c, 0, 65, 0
2, 29736, Note_on_c, 0, 62, 0
2, 29736, Note_on_c, 0, 57, 0
2, 29736, Note_on_c, 0, 50, 0
2, 29754, Note_on_c, 0, 71, 0
2, 29760, Note_on_c, 0, 69, 100
2, 29760, Note_on_c, 0, 64, 100
2, 29760, Note_on_c, 0, 60, 100
2, 29760, Note_on_c, 0, 57, 100
2, 29760, Note_on_c, 0, 45, 100
2, 30216, Note_on_c, 0, 45, 0
2, 30216, Note_on_c, 0, 57, 0
2, 30216, Note_on_c, 0, 60, 0
2, 30216, Note_on_c, 0, 64, 0
2, 30216, Note_on_c, 0, 69, 0
2, 30240, Note_on_c, 0, 62, 100
2, 30240, Note_on_c, 0, 65, 100
2, 30240, Note_on_c, 0, 69, 100
2, 30240, Note_on_c, 0, 50, 100
2, 30240, Note_on_c, 0, 57, 100
2, 30582, Note_on_c, 0, 69, 0
2, 30600, Note_on_c, 0, 71, 100
2, 30696, Note_on_c, 0, 57, 0
2, 30696, Note_on_c, 0, 50, 0
2, 30696, Note_on_c, 0, 65, 0
2, 30696, Note_on_c, 0, 62, 0
2, 30714, Note_on_c, 0, 71, 0
2, 30720, Note_on_c, 0, 69, 100
2, 30720, Note_on_c, 0, 64, 100
2, 30720, Note_on_c, 0, 60, 100
2, 30720, Note_on_c, 0, 57, 100
2, 30720, Note_on_c, 0, 45, 100
2, 31176, Note_on_c, 0, 45, 0
2, 31176, Note_on_c, 0, 57, 0
2, 31176, Note_on_c, 0, 60, 0
2, 31176, Note_on_c, 0, 64, 0
2, 31176, Note_on_c, 0, 69, 0
2, 31200, Note_on_c, 0, 59, 100
2, 31200, Note_on_c, 0, 64, 100
2, 31200, Note_on_c, 0, 68, 100
2, 31200, Note_on_c, 0, 47, 100
2, 31542, Note_on_c, 0, 68, 0
2, 31560, Note_on_c, 0, 69, 100
2, 31656, Note_on_c, 0, 47, 0
2, 31656, Note_on_c, 0, 64, 0
2, 31656, Note_on_c, 0, 59, 0
2, 31674, Note_on_c, 0, 69, 0
2, 31680, Note_on_c, 0, 66, 100
2, 31680, Note_on_c, 0, 63, 100
2, 31680, Note_on_c, 0, 59, 100
2, 31680, Note_on_c, 0, 47, 100
2, 31680, Note_on_c, 0, 57, 100
2, 31730, Control_c, 0, 7, 92
2, 31780, Control_c, 0, 7, 91
2, 31831, Control_c, 0, 7, 90
2, 31907, Control_c, 0, 7, 89
2, 31957, Control_c, 0, 7, 88
2, 32032, Control_c, 0, 7, 87
2, 32083, Control_c, 0, 7, 86
2, 32133, Control_c, 0, 7, 85
2, 32136, Note_on_c, 0, 57, 0
2, 32136, Note_on_c, 0, 47, 0
2, 32136, Note_on_c, 0, 59, 0
2, 32136, Note_on_c, 0, 63, 0
2, 32136, Note_on_c, 0, 66, 0
2, 32160, Note_on_c, 0, 64, 100
2, 32160, Note_on_c, 0, 59, 100
2, 32160, Note_on_c, 0, 56, 100
2, 32160, Note_on_c, 0, 40, 100
2, 32616, Note_on_c, 0, 40, 0
2, 32616, Note_on_c, 0, 56, 0
2, 32616, Note_on_c, 0, 59, 0
2, 32616, Note_on_c, 0, 64, 0
2, 32640, Note_on_c, 0, 40, 100
2, 32640, Note_on_c, 0, 52, 100
2, 32640, Note_on_c, 0, 64, 100
2, 32640, Note_on_c, 0, 62, 100
2, 32640, Note_on_c, 0, 56, 100
2, 33576, Note_on_c, 0, 56, 0
2, 33576, Note_on_c, 0, 62, 0
2, 33576, Note_on_c, 0, 64, 0
2, 33576, Note_on_c, 0, 52, 0
2, 33576, Note_on_c, 0, 40, 0
2, 33600, Note_on_c, 0, 45, 100
2, 33600, Note_on_c, 0, 52, 100
2, 33600, Note_on_c, 0, 64, 100
2, 33600, Note_on_c, 0, 60, 100
2, 33600, Note_on_c, 0, 57, 100
2, 34536, Note_on_c, 0, 57, 0
2, 34536, Note_on_c, 0, 60, 0
2, 34536, Note_on_c, 0, 64, 0
2, 34536, Note_on_c, 0, 52, 0
2, 34536, Note_on_c, 0, 45, 0
2, 34560, Note_on_c, 0, 62, 100
2, 34560, Note_on_c, 0, 59, 100
2, 34560, Note_on_c, 0, 57, 100
2, 34560, Note_on_c, 0, 45, 100
2, 35016, Note_on_c, 0, 45, 0
2, 35040, Note_on_c, 0, 38, 100
2, 35496, Note_on_c, 0, 38, 0
2, 35496, Note_on_c, 0, 57, 0
2, 35496, Note_on_c, 0, 59, 0
2, 35496, Note_on_c, 0, 62, 0
2, 35520, Note_on_c, 0, 64, 100
2, 35520, Note_on_c, 0, 60, 100
2, 35520, Note_on_c, 0, 57, 100
2, 35520, Note_on_c, 0, 45, 100
2, 35520, Note_on_c, 0, 52, 100
2, 36456, Note_on_c, 0, 52, 0
2, 36456, Note_on_c, 0, 45, 0
2, 36456, Note_on_c, 0, 57, 0
2, 36456, Note_on_c, 0, 60, 0
2, 36456, Note_on_c, 0, 64, 0
2, 36480, Note_on_c, 0, 62, 100
2, 36480, Note_on_c, 0, 68, 100
2, 36480, Note_on_c, 0, 59, 100
2, 36480, Note_on_c, 0, 40, 100
2, 36480, Note_on_c, 0, 52, 100
2, 37416, Note_on_c, 0, 52, 0
2, 37416, Note_on_c, 0, 40, 0
2, 37416, Note_on_c, 0, 59, 0
2, 37416, Note_on_c, 0, 68, 0
2, 37416, Note_on_c, 0, 62, 0
2, 37440, Note_on_c, 0, 57, 100
2, 37440, Note_on_c, 0, 60, 100
2, 37440, Note_on_c, 0, 69, 100
2, 37440, Note_on_c, 0, 53, 100
2, 37440, Note_on_c, 0, 41, 100
2, 37896, Note_on_c, 0, 41, 0
2, 37896, Note_on_c, 0, 53, 0
2, 37896, Note_on_c, 0, 69, 0
2, 37896, Note_on_c, 0, 60, 0
2, 37896, Note_on_c, 0, 57, 0
2, 37920, Note_on_c, 0, 57, 100
2, 37920, Note_on_c, 0, 59, 100
2, 37920, Note_on_c, 0, 65, 100
2, 37920, Note_on_c, 0, 69, 100
2, 37920, Note_on_c, 0, 50, 100
2, 37920, Note_on_c, 0, 38, 100
2, 38376, Note_on_c, 0, 38, 0
2, 38376, Note_on_c, 0, 50, 0
2, 38376, Note_on_c, 0, 69, 0
2, 38376, Note_on_c, 0, 65, 0
2, 38376, Note_on_c, 0, 59, 0
2, 38376, Note_on_c, 0, 57, 0
2, 38400, Note_on_c, 0, 64, 100
2, 38400, Note_on_c, 0, 68, 100
2, 38400, Note_on_c, 0, 59, 100
2, 38400, Note_on_c, 0, 40, 100
2, 38400, Note_on_c, 0, 52, 100
2, 38400, Note_on_c, 0, 62, 100
2, 39336, Note_on_c, 0, 62, 0
2, 39336, Note_on_c, 0, 52, 0
2, 39336, Note_on_c, 0, 40, 0
2, 39336, Note_on_c, 0, 59, 0
2, 39336, Note_on_c, 0, 68, 0
2, 39336, Note_on_c, 0, 64, 0
2, 39360, Note_on_c, 0, 64, 100
2, 39360, Note_on_c, 0, 60, 100
2, 39360, Note_on_c, 0, 69, 100
2, 39360, Note_on_c, 0, 57, 100
2, 39360, Note_on_c, 0, 45, 100
2, 39816, Note_on_c, 0, 45, 0
2, 39816, Note_on_c, 0, 57, 0
2, 39816, Note_on_c, 0, 69, 0
2, 39816, Note_on_c, 0, 60, 0
2, 39816, Note_on_c, 0, 64, 0
2, 39840, Note_on_c, 0, 57, 100
2, 39840, Note_on_c, 0, 60, 100
2, 39840, Note_on_c, 0, 64, 100
2, 39840, Note_on_c, 0, 52, 100
2, 40296, Note_on_c, 0, 52, 0
2, 40296, Note_on_c, 0, 64, 0
2, 40296, Note_on_c, 0, 60, 0
2, 40296, Note_on_c, 0, 57, 0
2, 40320, Note_on_c, 0, 48, 100
2, 40320, Note_on_c, 0, 55, 100
2, 40320, Note_on_c, 0, 60, 100
2, 40320, Note_on_c, 0, 64, 100
2, 42216, Note_on_c, 0, 64, 0
2, 42216, Note_on_c, 0, 60, 0
2, 42216, Note_on_c, 0, 55, 0
2, 42216, Note_on_c, 0, 48, 0
2, 42240, Note_on_c, 0, 62, 100
2, 42240, Note_on_c, 0, 55, 100
2, 42240, Note_on_c, 0, 59, 100
2, 42240, Note_on_c, 0, 43, 100
2, 43176, Note_on_c, 0, 43, 0
2, 43176, Note_on_c, 0, 59, 0
2, 43176, Note_on_c, 0, 55, 0
2, 43176, Note_on_c, 0, 62, 0
2, 43200, Note_on_c, 0, 62, 100
2, 43200, Note_on_c, 0, 65, 100
2, 43200, Note_on_c, 0, 57, 100
2, 43200, Note_on_c, 0, 38, 100
2, 44136, Note_on_c, 0, 38, 0
2, 44136, Note_on_c, 0, 57, 0
2, 44136, Note_on_c, 0, 65, 0
2, 44136, Note_on_c, 0, 62, 0
2, 44160, Note_on_c, 0, 64, 100
2, 44160, Note_on_c, 0, 56, 100
2, 44160, Note_on_c, 0, 59, 100
2, 44160, Note_on_c, 0, 62, 100
2, 44160, Note_on_c, 0, 40, 100
2, 44160, Note_on_c, 0, 52, 100
2, 45096, Note_on_c, 0, 52, 0
2, 45096, Note_on_c, 0, 40, 0
2, 45096, Note_on_c, 0, 62, 0
2, 45096, Note_on_c, 0, 59, 0
2, 45096, Note_on_c, 0, 56, 0
2, 45096, Note_on_c, 0, 64, 0
2, 45120, Note_on_c, 0, 57, 100
2, 45120, Note_on_c, 0, 60, 100
2, 45120, Note_on_c, 0, 64, 100
2, 45120, Note_on_c, 0, 45, 100
2, 45576, Note_on_c, 0, 45, 0
2, 45576, Note_on_c, 0, 64, 0
2, 45576, Note_on_c, 0, 60, 0
2, 45576, Note_on_c, 0, 57, 0
2, 45600, Note_on_c, 0, 57, 100
2, 45600, Note_on_c, 0, 62, 100
2, 45600, Note_on_c, 0, 65, 100
2, 45600, Note_on_c, 0, 38, 100
2, 46056, Note_on_c, 0, 38, 0
2, 46056, Note_on_c, 0, 65, 0
2, 46056, Note_on_c, 0, 62, 0
2, 46056, Note_on_c, 0, 57, 0
2, 46080, Note_on_c, 0, 57, 100
2, 46080, Note_on_c, 0, 60, 100
2, 46080, Note_on_c, 0, 64, 100
2, 46080, Note_on_c, 0, 40, 100
2, 46536, Note_on_c, 0, 40, 0
2, 46536, Note_on_c, 0, 64, 0
2, 46536, Note_on_c, 0, 60, 0
2, 46536, Note_on_c, 0, 57, 0
2, 46560, Note_on_c, 0, 56, 100
2, 46560, Note_on_c, 0, 62, 100
2, 46560, Note_on_c, 0, 64, 100
2, 46560, Note_on_c, 0, 52, 100
2, 47016, Note_on_c, 0, 52, 0
2, 47016, Note_on_c, 0, 64, 0
2, 47016, Note_on_c, 0, 62, 0
2, 47016, Note_on_c, 0, 56, 0
2, 47040, Note_on_c, 0, 57, 100
2, 47040, Note_on_c, 0, 60, 100
2, 47040, Note_on_c, 0, 64, 100
2, 47040, Note_on_c, 0, 45, 100
2, 47496, Note_on_c, 0, 45, 0
2, 47496, Note_on_c, 0, 64, 0
2, 47496, Note_on_c, 0, 60, 0
2, 47496, Note_on_c, 0, 57, 0
2, 47520, Note_on_c, 0, 55, 100
2, 47520, Note_on_c, 0, 60, 100
2, 47520, Note_on_c, 0, 64, 100
2, 47520, Note_on_c, 0, 48, 100
2, 47976, Note_on_c, 0, 48, 0
2, 47976, Note_on_c, 0, 64, 0
2, 47976, Note_on_c, 0, 60, 0
2, 47976, Note_on_c, 0, 55, 0
2, 48000, Note_on_c, 0, 48, 100
2, 48000, Note_on_c, 0, 55, 100
2, 48000, Note_on_c, 0, 60, 100
2, 48000, Note_on_c, 0, 64, 100
2, 49896, Note_on_c, 0, 64, 0
2, 49896, Note_on_c, 0, 60, 0
2, 49896, Note_on_c, 0, 55, 0
2, 49896, Note_on_c, 0, 48, 0
2, 49920, Note_on_c, 0, 43, 100
2, 49920, Note_on_c, 0, 62, 100
2, 49920, Note_on_c, 0, 55, 100
2, 49920, Note_on_c, 0, 59, 100
2, 50856, Note_on_c, 0, 59, 0
2, 50856, Note_on_c, 0, 55, 0
2, 50856, Note_on_c, 0, 62, 0
2, 50856, Note_on_c, 0, 43, 0
2, 50880, Note_on_c, 0, 38, 100
2, 50880, Note_on_c, 0, 62, 100
2, 50880, Note_on_c, 0, 65, 100
2, 50880, Note_on_c, 0, 57, 100
2, 51816, Note_on_c, 0, 57, 0
2, 51816, Note_on_c, 0, 65, 0
2, 51816, Note_on_c, 0, 62, 0
2, 51816, Note_on_c, 0, 38, 0
2, 51840, Note_on_c, 0, 64, 100
2, 51840, Note_on_c, 0, 56, 100
2, 51840, Note_on_c, 0, 59, 100
2, 51840, Note_on_c, 0, 62, 100
2, 51840, Note_on_c, 0, 40, 100
2, 51840, Note_on_c, 0, 52, 100
2, 52776, Note_on_c, 0, 52, 0
2, 52776, Note_on_c, 0, 40, 0
2, 52776, Note_on_c, 0, 62, 0
2, 52776, Note_on_c, 0, 59, 0
2, 52776, Note_on_c, 0, 56, 0
2, 52776, Note_on_c, 0, 64, 0
2, 52800, Note_on_c, 0, 57, 100
2, 52800, Note_on_c, 0, 60, 100
2, 52800, Note_on_c, 0, 64, 100
2, 52800, Note_on_c, 0, 45, 100
2, 53256, Note_on_c, 0, 45, 0
2, 53256, Note_on_c, 0, 64, 0
2, 53256, Note_on_c, 0, 60, 0
2, 53256, Note_on_c, 0, 57, 0
2, 53280, Note_on_c, 0, 38, 100
2, 53280, Note_on_c, 0, 57, 100
2, 53280, Note_on_c, 0, 62, 100
2, 53280, Note_on_c, 0, 65, 100
2, 53280, Note_on_c, 0, 50, 100
2, 53736, Note_on_c, 0, 50, 0
2, 53736, Note_on_c, 0, 65, 0
2, 53736, Note_on_c, 0, 62, 0
2, 53736, Note_on_c, 0, 57, 0
2, 53736, Note_on_c, 0, 38, 0
2, 53760, Note_on_c, 0, 57, 100
2, 53760, Note_on_c, 0, 60, 100
2, 53760, Note_on_c, 0, 64, 100
2, 53760, Note_on_c, 0, 40, 100
2, 53760, Note_on_c, 0, 52, 100
2, 55584, Note_on_c, 0, 52, 0
2, 55584, Note_on_c, 0, 40, 0
2, 55584, Note_on_c, 0, 64, 0
2, 55584, Note_on_c, 0, 60, 0
2, 55584, Note_on_c, 0, 57, 0
2, 55680, Note_on_c, 0, 64, 100
2, 55680, Note_on_c, 0, 57, 100
2, 55680, Note_on_c, 0, 59, 100
2, 55680, Note_on_c, 0, 40, 100
2, 55680, Note_on_c, 0, 52, 100
2, 56616, Note_on_c, 0, 59, 0
2, 56616, Note_on_c, 0, 57, 0
2, 56616, Note_on_c, 0, 64, 0
2, 56640, Note_on_c, 0, 56, 100
2, 56640, Note_on_c, 0, 59, 100
2, 56640, Note_on_c, 0, 64, 100
2, 56640, Note_on_c, 0, 62, 100
2, 57096, Note_on_c, 0, 62, 0
2, 57096, Note_on_c, 0, 64, 0
2, 57096, Note_on_c, 0, 59, 0
2, 57096, Note_on_c, 0, 56, 0
2, 57120, Note_on_c, 0, 68, 100
2, 57120, Note_on_c, 0, 64, 100
2, 57120, Note_on_c, 0, 62, 100
2, 57145, Control_c, 0, 7, 86
2, 57195, Control_c, 0, 7, 87
2, 57246, Control_c, 0, 7, 88
2, 57296, Control_c, 0, 7, 89
2, 57347, Control_c, 0, 7, 90
2, 57372, Control_c, 0, 7, 91
2, 57422, Control_c, 0, 7, 92
2, 57473, Control_c, 0, 7, 93
2, 57552, Note_on_c, 0, 52, 0
2, 57552, Note_on_c, 0, 40, 0
2, 57576, Note_on_c, 0, 62, 0
2, 57576, Note_on_c, 0, 64, 0
2, 57576, Note_on_c, 0, 68, 0
2, 57600, Note_on_c, 0, 69, 100
2, 57600, Note_on_c, 0, 64, 100
2, 57600, Note_on_c, 0, 60, 100
2, 57600, Note_on_c, 0, 57, 100
2, 57600, Note_on_c, 0, 45, 100
2, 58056, Note_on_c, 0, 45, 0
2, 58056, Note_on_c, 0, 57, 0
2, 58056, Note_on_c, 0, 60, 0
2, 58056, Note_on_c, 0, 64, 0
2, 58056, Note_on_c, 0, 69, 0
2, 58080, Note_on_c, 0, 50, 100
2, 58080, Note_on_c, 0, 57, 100
2, 58080, Note_on_c, 0, 62, 100
2, 58080, Note_on_c, 0, 65, 100
2, 58080, Note_on_c, 0, 69, 100
2, 58422, Note_on_c, 0, 69, 0
2, 58440, Note_on_c, 0, 71, 100
2, 58536, Note_on_c, 0, 65, 0
2, 58536, Note_on_c, 0, 62, 0
2, 58536, Note_on_c, 0, 57, 0
2, 58536, Note_on_c, 0, 50, 0
2, 58554, Note_on_c, 0, 71, 0
2, 58560, Note_on_c, 0, 69, 100
2, 58560, Note_on_c, 0, 64, 100
2, 58560, Note_on_c, 0, 60, 100
2, 58560, Note_on_c, 0, 57, 100
2, 58560, Note_on_c, 0, 45, 100
2, 59016, Note_on_c, 0, 45, 0
2, 59016, Note_on_c, 0, 57, 0
2, 59016, Note_on_c, 0, 60, 0
2, 59016, Note_on_c, 0, 64, 0
2, 59016, Note_on_c, 0, 69, 0
2, 59040, Note_on_c, 0, 62, 100
2, 59040, Note_on_c, 0, 65, 100
2, 59040, Note_on_c, 0, 69, 100
2, 59040, Note_on_c, 0, 50, 100
2, 59040, Note_on_c, 0, 57, 100
2, 59382, Note_on_c, 0, 69, 0
2, 59400, Note_on_c, 0, 71, 100
2, 59496, Note_on_c, 0, 57, 0
2, 59496, Note_on_c, 0, 50, 0
2, 59496, Note_on_c, 0, 65, 0
2, 59496, Note_on_c, 0, 62, 0
2, 59514, Note_on_c, 0, 71, 0
2, 59520, Note_on_c, 0, 69, 100
2, 59520, Note_on_c, 0, 64, 100
2, 59520, Note_on_c, 0, 60, 100
2, 59520, Note_on_c, 0, 57, 100
2, 59520, Note_on_c, 0, 45, 100
2, 59976, Note_on_c, 0, 45, 0
2, 59976, Note_on_c, 0, 57, 0
2, 59976, Note_on_c, 0, 60, 0
2, 59976, Note_on_c, 0, 64, 0
2, 59976, Note_on_c, 0, 69, 0
2, 60000, Note_on_c, 0, 59, 100
2, 60000, Note_on_c, 0, 64, 100
2, 60000, Note_on_c, 0, 68, 100
2, 60000, Note_on_c, 0, 47, 100
2, 60342, Note_on_c, 0, 68, 0
2, 60360, Note_on_c, 0, 69, 100
2, 60456, Note_on_c, 0, 47, 0
2, 60456, Note_on_c, 0, 64, 0
2, 60456, Note_on_c, 0, 59, 0
2, 60474, Note_on_c, 0, 69, 0
2, 60480, Note_on_c, 0, 66, 100
2, 60480, Note_on_c, 0, 63, 100
2, 60480, Note_on_c, 0, 59, 100
2, 60480, Note_on_c, 0, 47, 100
2, 60480, Note_on_c, 0, 57, 100
2, 60530, Control_c, 0, 7, 92
2, 60580, Control_c, 0, 7, 91
2, 60631, Control_c, 0, 7, 90
2, 60707, Control_c, 0, 7, 89
2, 60757, Control_c, 0, 7, 88
2, 60832, Control_c, 0, 7, 87
2, 60883, Control_c, 0, 7, 86
2, 60933, Control_c, 0, 7, 85
2, 60936, Note_on_c, 0, 57, 0
2, 60936, Note_on_c, 0, 47, 0
2, 60936, Note_on_c, 0, 59, 0
2, 60936, Note_on_c, 0, 63, 0
2, 60936, Note_on_c, 0, 66, 0
2, 60960, Note_on_c, 0, 64, 100
2, 60960, Note_on_c, 0, 59, 100
2, 60960, Note_on_c, 0, 56, 100
2, 60960, Note_on_c, 0, 40, 100
2, 61416, Note_on_c, 0, 40, 0
2, 61416, Note_on_c, 0, 56, 0
2, 61416, Note_on_c, 0, 59, 0
2, 61416, Note_on_c, 0, 64, 0
2, 61440, Note_on_c, 0, 40, 100
2, 61440, Note_on_c, 0, 52, 100
2, 61440, Note_on_c, 0, 64, 100
2, 61440, Note_on_c, 0, 62, 100
2, 61440, Note_on_c, 0, 56, 100
2, 62376, Note_on_c, 0, 56, 0
2, 62376, Note_on_c, 0, 62, 0
2, 62376, Note_on_c, 0, 64, 0
2, 62376, Note_on_c, 0, 52, 0
2, 62376, Note_on_c, 0, 40, 0
2, 62400, Note_on_c, 0, 45, 100
2, 62400, Note_on_c, 0, 52, 100
2, 62400, Note_on_c, 0, 64, 100
2, 62400, Note_on_c, 0, 60, 100
2, 62400, Note_on_c, 0, 57, 100
2, 63336, Note_on_c, 0, 57, 0
2, 63336, Note_on_c, 0, 60, 0
2, 63336, Note_on_c, 0, 64, 0
2, 63336, Note_on_c, 0, 52, 0
2, 63336, Note_on_c, 0, 45, 0
2, 63360, Note_on_c, 0, 62, 100
2, 63360, Note_on_c, 0, 59, 100
2, 63360, Note_on_c, 0, 57, 100
2, 63360, Note_on_c, 0, 45, 100
2, 63816, Note_on_c, 0, 45, 0
2, 63840, Note_on_c, 0, 38, 100
2, 64296, Note_on_c, 0, 38, 0
2, 64296, Note_on_c, 0, 57, 0
2, 64296, Note_on_c, 0, 59, 0
2, 64296, Note_on_c, 0, 62, 0
2, 64320, Note_on_c, 0, 64, 100
2, 64320, Note_on_c, 0, 60, 100
2, 64320, Note_on_c, 0, 57, 100
2, 64320, Note_on_c, 0, 45, 100
2, 64320, Note_on_c, 0, 52, 100
2, 65256, Note_on_c, 0, 52, 0
2, 65256, Note_on_c, 0, 45, 0
2, 65256, Note_on_c, 0, 57, 0
2, 65256, Note_on_c, 0, 60, 0
2, 65256, Note_on_c, 0, 64, 0
2, 65280, Note_on_c, 0, 62, 100
2, 65280, Note_on_c, 0, 68, 100
2, 65280, Note_on_c, 0, 59, 100
2, 65280, Note_on_c, 0, 40, 100
2, 65280, Note_on_c, 0, 52, 100
2, 66216, Note_on_c, 0, 52, 0
2, 66216, Note_on_c, 0, 40, 0
2, 66216, Note_on_c, 0, 59, 0
2, 66216, Note_on_c, 0, 68, 0
2, 66216, Note_on_c, 0, 62, 0
2, 66240, Note_on_c, 0, 57, 100
2, 66240, Note_on_c, 0, 60, 100
2, 66240, Note_on_c, 0, 69, 100
2, 66240, Note_on_c, 0, 53, 100
2, 66240, Note_on_c, 0, 41, 100
2, 66696, Note_on_c, 0, 41, 0
2, 66696, Note_on_c, 0, 53, 0
2, 66696, Note_on_c, 0, 69, 0
2, 66696, Note_on_c, 0, 60, 0
2, 66696, Note_on_c, 0, 57, 0
2, 66720, Note_on_c, 0, 57, 100
2, 66720, Note_on_c, 0, 59, 100
2, 66720, Note_on_c, 0, 65, 100
2, 66720, Note_on_c, 0, 69, 100
2, 66720, Note_on_c, 0, 50, 100
2, 66720, Note_on_c, 0, 38, 100
2, 67176, Note_on_c, 0, 38, 0
2, 67176, Note_on_c, 0, 50, 0
2, 67176, Note_on_c, 0, 69, 0
2, 67176, Note_on_c, 0, 65, 0
2, 67176, Note_on_c, 0, 59, 0
2, 67176, Note_on_c, 0, 57, 0
2, 67200, Note_on_c, 0, 64, 100
2, 67200, Note_on_c, 0, 68, 100
2, 67200, Note_on_c, 0, 59, 100
2, 67200, Note_on_c, 0, 40, 100
2, 67200, Note_on_c, 0, 52, 100
2, 67200, Note_on_c, 0, 62, 100
2, 68136, Note_on_c, 0, 62, 0
2, 68136, Note_on_c, 0, 52, 0
2, 68136, Note_on_c, 0, 40, 0
2, 68136, Note_on_c, 0, 59, 0
2, 68136, Note_on_c, 0, 68, 0
2, 68136, Note_on_c, 0, 64, 0
2, 68160, Note_on_c, 0, 64, 100
2, 68160, Note_on_c, 0, 60, 100
2, 68160, Note_on_c, 0, 69, 100
2, 68160, Note_on_c, 0, 57, 100
2, 68160, Note_on_c, 0, 45, 100
2, 68616, Note_on_c, 0, 45, 0
2, 68616, Note_on_c, 0, 57, 0
2, 68616, Note_on_c, 0, 69, 0
2, 68616, Note_on_c, 0, 60, 0
2, 68616, Note_on_c, 0, 64, 0
2, 68640, Note_on_c, 0, 57, 100
2, 68640, Note_on_c, 0, 60, 100
2, 68640, Note_on_c, 0, 64, 100
2, 68640, Note_on_c, 0, 52, 100
2, 69096, Note_on_c, 0, 52, 0
2, 69096, Note_on_c, 0, 64, 0
2, 69096, Note_on_c, 0, 60, 0
2, 69096, Note_on_c, 0, 57, 0
2, 69120, Note_on_c, 0, 48, 100
2, 69120, Note_on_c, 0, 55, 100
2, 69120, Note_on_c, 0, 60, 100
2, 69120, Note_on_c, 0, 64, 100
2, 71016, Note_on_c, 0, 64, 0
2, 71016, Note_on_c, 0, 60, 0
2, 71016, Note_on_c, 0, 55, 0
2, 71016, Note_on_c, 0, 48, 0
2, 71040, Note_on_c, 0, 62, 100
2, 71040, Note_on_c, 0, 55, 100
2, 71040, Note_on_c, 0, 59, 100
2, 71040, Note_on_c, 0, 43, 100
2, 71976, Note_on_c, 0, 43, 0
2, 71976, Note_on_c, 0, 59, 0
2, 71976, Note_on_c, 0, 55, 0
2, 71976, Note_on_c, 0, 62, 0
2, 72000, Note_on_c, 0, 62, 100
2, 72000, Note_on_c, 0, 65, 100
2, 72000, Note_on_c, 0, 57, 100
2, 72000, Note_on_c, 0, 38, 100
2, 72936, Note_on_c, 0, 38, 0
2, 72936, Note_on_c, 0, 57, 0
2, 72936, Note_on_c, 0, 65, 0
2, 72936, Note_on_c, 0, 62, 0
2, 72960, Note_on_c, 0, 64, 100
2, 72960, Note_on_c, 0, 56, 100
2, 72960, Note_on_c, 0, 59, 100
2, 72960, Note_on_c, 0, 62, 100
2, 72960, Note_on_c, 0, 40, 100
2, 72960, Note_on_c, 0, 52, 100
2, 73896, Note_on_c, 0, 52, 0
2, 73896, Note_on_c, 0, 40, 0
2, 73896, Note_on_c, 0, 62, 0
2, 73896, Note_on_c, 0, 59, 0
2, 73896, Note_on_c, 0, 56, 0
2, 73896, Note_on_c, 0, 64, 0
2, 73920, Note_on_c, 0, 57, 100
2, 73920, Note_on_c, 0, 60, 100
2, 73920, Note_on_c, 0, 64, 100
2, 73920, Note_on_c, 0, 45, 100
2, 74376, Note_on_c, 0, 45, 0
2, 74376, Note_on_c, 0, 64, 0
2, 74376, Note_on_c, 0, 60, 0
2, 74376, Note_on_c, 0, 57, 0
2, 74400, Note_on_c, 0, 57, 100
2, 74400, Note_on_c, 0, 62, 100
2, 74400, Note_on_c, 0, 65, 100
2, 74400, Note_on_c, 0, 38, 100
2, 74856, Note_on_c, 0, 38, 0
2, 74856, Note_on_c, 0, 65, 0
2, 74856, Note_on_c, 0, 62, 0
2, 74856, Note_on_c, 0, 57, 0
2, 74880, Note_on_c, 0, 57, 100
2, 74880, Note_on_c, 0, 60, 100
2, 74880, Note_on_c, 0, 64, 100
2, 74880, Note_on_c, 0, 40, 100
2, 75336, Note_on_c, 0, 40, 0
2, 75336, Note_on_c, 0, 64, 0
2, 75336, Note_on_c, 0, 60, 0
2, 75336, Note_on_c, 0, 57, 0
2, 75360, Note_on_c, 0, 56, 100
2, 75360, Note_on_c, 0, 62, 100
2, 75360, Note_on_c, 0, 64, 100
2, 75360, Note_on_c, 0, 52, 100
2, 75816, Note_on_c, 0, 52, 0
2, 75816, Note_on_c, 0, 64, 0
2, 75816, Note_on_c, 0, 62, 0
2, 75816, Note_on_c, 0, 56, 0
2, 75840, Note_on_c, 0, 57, 100
2, 75840, Note_on_c, 0, 60, 100
2, 75840, Note_on_c, 0, 64, 100
2, 75840, Note_on_c, 0, 45, 100
2, 76296, Note_on_c, 0, 45, 0
2, 76296, Note_on_c, 0, 64, 0
2, 76296, Note_on_c, 0, 60, 0
2, 76296, Note_on_c, 0, 57, 0
2, 76320, Note_on_c, 0, 55, 100
2, 76320, Note_on_c, 0, 60, 100
2, 76320, Note_on_c, 0, 64, 100
2, 76320, Note_on_c, 0, 48, 100
2, 76776, Note_on_c, 0, 48, 0
2, 76776, Note_on_c, 0, 64, 0
2, 76776, Note_on_c, 0, 60, 0
2, 76776, Note_on_c, 0, 55, 0
2, 76800, Note_on_c, 0, 48, 100
2, 76800, Note_on_c, 0, 55, 100
2, 76800, Note_on_c, 0, 60, 100
2, 76800, Note_on_c, 0, 64, 100
2, 78696, Note_on_c, 0, 64, 0
2, 78696, Note_on_c, 0, 60, 0
2, 78696, Note_on_c, 0, 55, 0
2, 78696, Note_on_c, 0, 48, 0
2, 78720, Note_on_c, 0, 43, 100
2, 78720, Note_on_c, 0, 62, 100
2, 78720, Note_on_c, 0, 55, 100
2, 78720, Note_on_c, 0, 59, 100
2, 79656, Note_on_c, 0, 59, 0
2, 79656, Note_on_c, 0, 55, 0
2, 79656, Note_on_c, 0, 62, 0
2, 79656, Note_on_c, 0, 43, 0
2, 79680, Note_on_c, 0, 38, 100
2, 79680, Note_on_c, 0, 62, 100
2, 79680, Note_on_c, 0, 65, 100
2, 79680, Note_on_c, 0, 57, 100
2, 80616, Note_on_c, 0, 57, 0
2, 80616, Note_on_c, 0, 65, 0
2, 80616, Note_on_c, 0, 62, 0
2, 80616, Note_on_c, 0, 38, 0
2, 80640, Note_on_c, 0, 64, 100
2, 80640, Note_on_c, 0, 56, 100
2, 80640, Note_on_c, 0, 59, 100
2, 80640, Note_on_c, 0, 62, 100
2, 80640, Note_on_c, 0, 40, 100
2, 80640, Note_on_c, 0, 52, 100
2, 81576, Note_on_c, 0, 52, 0
2, 81576, Note_on_c, 0, 40, 0
2, 81576, Note_on_c, 0, 62, 0
2, 81576, Note_on_c, 0, 59, 0
2, 81576, Note_on_c, 0, 56, 0
2, 81576, Note_on_c, 0, 64, 0
2, 81600, Note_on_c, 0, 57, 100
2, 81600, Note_on_c, 0, 60, 100
2, 81600, Note_on_c, 0, 64, 100
2, 81600, Note_on_c, 0, 45, 100
2, 82056, Note_on_c, 0, 45, 0
2, 82056, Note_on_c, 0, 64, 0
2, 82056, Note_on_c, 0, 60, 0
2, 82056, Note_on_c, 0, 57, 0
2, 82080, Note_on_c, 0, 38, 100
2, 82080, Note_on_c, 0, 57, 100
2, 82080, Note_on_c, 0, 62, 100
2, 82080, Note_on_c, 0, 65, 100
2, 82080, Note_on_c, 0, 50, 100
2, 82536, Note_on_c, 0, 50, 0
2, 82536, Note_on_c, 0, 65, 0
2, 82536, Note_on_c, 0, 62, 0
2, 82536, Note_on_c, 0, 57, 0
2, 82536, Note_on_c, 0, 38, 0
2, 82560, Note_on_c, 0, 57, 100
2, 82560, Note_on_c, 0, 60, 100
2, 82560, Note_on_c, 0, 64, 100
2, 82560, Note_on_c, 0, 40, 100
2, 82560, Note_on_c, 0, 52, 100
2, 84384, Note_on_c, 0, 52, 0
2, 84384, Note_on_c, 0, 40, 0
2, 84384, Note_on_c, 0, 64, 0
2, 84384, Note_on_c, 0, 60, 0
2, 84384, Note_on_c, 0, 57, 0
2, 84480, Note_on_c, 0, 64, 100
2, 84480, Note_on_c, 0, 57, 100
2, 84480, Note_on_c, 0, 59, 100
2, 84480, Note_on_c, 0, 40, 100
2, 84480, Note_on_c, 0, 52, 100
2, 85416, Note_on_c, 0, 59, 0
2, 85416, Note_on_c, 0, 57, 0
2, 85416, Note_on_c, 0, 64, 0
2, 85440, Note_on_c, 0, 56, 100
2, 85440, Note_on_c, 0, 59, 100
2, 85440, Note_on_c, 0, 64, 100
2, 85440, Note_on_c, 0, 62, 100
2, 85896, Note_on_c, 0, 62, 0
2, 85896, Note_on_c, 0, 64, 0
2, 85896, Note_on_c, 0, 59, 0
2, 85896, Note_on_c, 0, 56, 0
2, 85920, Note_on_c, 0, 68, 100
2, 85920, Note_on_c, 0, 64, 100
2, 85920, Note_on_c, 0, 62, 100
2, 85945, Control_c, 0, 7, 86
2, 85995, Control_c, 0, 7, 87
2, 86046, Control_c, 0, 7, 88
2, 86096, Control_c, 0, 7, 89
2, 86147, Control_c, 0, 7, 90
2, 86172, Control_c, 0, 7, 91
2, 86222, Control_c, 0, 7, 92
2, 86273, Control_c, 0, 7, 93
2, 86352, Note_on_c, 0, 52, 0
2, 86352, Note_on_c, 0, 40, 0
2, 86376, Note_on_c, 0, 62, 0
2, 86376, Note_on_c, 0, 64, 0
2, 86376, Note_on_c, 0, 68, 0
2, 86400, Note_on_c, 0, 69, 100
2, 86400, Note_on_c, 0, 64, 100
2, 86400, Note_on_c, 0, 60, 100
2, 86400, Note_on_c, 0, 57, 100
2, 86400, Note_on_c, 0, 45, 100
2, 86856, Note_on_c, 0, 45, 0
2, 86856, Note_on_c, 0, 57, 0
2, 86856, Note_on_c, 0, 60, 0
2, 86856, Note_on_c, 0, 64, 0
2, 86856, Note_on_c, 0, 69, 0
2, 86880, Note_on_c, 0, 50, 100
2, 86880, Note_on_c, 0, 57, 100
2, 86880, Note_on_c, 0, 62, 100
2, 86880, Note_on_c, 0, 65, 100
2, 86880, Note_on_c, 0, 69, 100
2, 87222, Note_on_c, 0, 69, 0
2, 87240, Note_on_c, 0, 71, 100
2, 87336, Note_on_c, 0, 65, 0
2, 87336, Note_on_c, 0, 62, 0
2, 87336, Note_on_c, 0, 57, 0
2, 87336, Note_on_c, 0, 50, 0
2, 87354, Note_on_c, 0, 71, 0
2, 87360, Note_on_c, 0, 69, 100
2, 87360, Note_on_c, 0, 64, 100
2, 87360, Note_on_c, 0, 60, 100
2, 87360, Note_on_c, 0, 57, 100
2, 87360, Note_on_c, 0, 45, 100
2, 87816, Note_on_c, 0, 45, 0
2, 87816, Note_on_c, 0, 57, 0
2, 87816, Note_on_c, 0, 60, 0
2, 87816, Note_on_c, 0, 64, 0
2, 87816, Note_on_c, 0, 69, 0
2, 87840, Note_on_c, 0, 62, 100
2, 87840, Note_on_c, 0, 65, 100
2, 87840, Note_on_c, 0, 69, 100
2, 87840, Note_on_c, 0, 50, 100
2, 87840, Note_on_c, 0, 57, 100
2, 88182, Note_on_c, 0, 69, 0
2, 88200, Note_on_c, 0, 71, 100
2, 88296, Note_on_c, 0, 57, 0
2, 88296, Note_on_c, 0, 50, 0
2, 88296, Note_on_c, 0, 65, 0
2, 88296, Note_on_c, 0, 62, 0
2, 88314, Note_on_c, 0, 71, 0
2, 88320, Note_on_c, 0, 69, 100
2, 88320, Note_on_c, 0, 64, 100
2, 88320, Note_on_c, 0, 60, 100
2, 88320, Note_on_c, 0, 57, 100
2, 88320, Note_on_c, 0, 45, 100
2, 88776, Note_on_c, 0, 45, 0
2, 88776, Note_on_c, 0, 57, 0
2, 88776, Note_on_c, 0, 60, 0
2, 88776, Note_on_c, 0, 64, 0
2, 88776, Note_on_c, 0, 69, 0
2, 88800, Note_on_c, 0, 59, 100
2, 88800, Note_on_c, 0, 64, 100
2, 88800, Note_on_c, 0, 68, 100
2, 88800, Note_on_c, 0, 47, 100
2, 89142, Note_on_c, 0, 68, 0
2, 89160, Note_on_c, 0, 69, 100
2, 89256, Note_on_c, 0, 47, 0
2, 89256, Note_on_c, 0, 64, 0
2, 89256, Note_on_c, 0, 59, 0
2, 89274, Note_on_c, 0, 69, 0
2, 89280, Note_on_c, 0, 66, 100
2, 89280, Note_on_c, 0, 63, 100
2, 89280, Note_on_c, 0, 59, 100
2, 89280, Note_on_c, 0, 47, 100
2, 89280, Note_on_c, 0, 57, 100
2, 89330, Control_c, 0, 7, 92
2, 89380, Control_c, 0, 7, 91
2, 89431, Control_c, 0, 7, 90
2, 89507, Control_c, 0, 7, 89
2, 89557, Control_c, 0, 7, 88
2, 89632, Control_c, 0, 7, 87
2, 89683, Control_c, 0, 7, 86
2, 89733, Control_c, 0, 7, 85
2, 89736, Note_on_c, 0, 57, 0
2, 89736, Note_on_c, 0, 47, 0
2, 89736, Note_on_c, 0, 59, 0
2, 89736, Note_on_c, 0, 63, 0
2, 89736, Note_on_c, 0, 66, 0
2, 89760, Note_on_c, 0, 64, 100
2, 89760, Note_on_c, 0, 59, 100
2, 89760, Note_on_c, 0, 56, 100
2, 89760, Note_on_c, 0, 40, 100
2, 90216, Note_on_c, 0, 40, 0
2, 90216, Note_on_c, 0, 56, 0
2, 90216, Note_on_c, 0, 59, 0
2, 90216, Note_on_c, 0, 64, 0
2, 90240, Note_on_c, 0, 40, 100
2, 90240, Note_on_c, 0, 52, 100
2, 90240, Note_on_c, 0, 64, 100
2, 90240, Note_on_c, 0, 62, 100
2, 90240, Note_on_c, 0, 56, 100
2, 91176, Note_on_c, 0, 56, 0
2, 91176, Note_on_c, 0, 62, 0
2, 91176, Note_on_c, 0, 64, 0
2, 91176, Note_on_c, 0, 52, 0
2, 91176, Note_on_c, 0, 40, 0
2, 91200, Note_on_c, 0, 45, 100
2, 91200, Note_on_c, 0, 52, 100
2, 91200, Note_on_c, 0, 64, 100
2, 91200, Note_on_c, 0, 60, 100
2, 91200, Note_on_c, 0, 57, 100
2, 92136, Note_on_c, 0, 57, 0
2, 92136, Note_on_c, 0, 60, 0
2, 92136, Note_on_c, 0, 64, 0
2, 92136, Note_on_c, 0, 52, 0
2, 92136, Note_on_c, 0, 45, 0
2, 92160, Note_on_c, 0, 62, 100
2, 92160, Note_on_c, 0, 59, 100
2, 92160, Note_on_c, 0, 57, 100
2, 92160, Note_on_c, 0, 45, 100
2, 92616, Note_on_c, 0, 45, 0
2, 92640, Note_on_c, 0, 38, 100
2, 93096, Note_on_c, 0, 38, 0
2, 93096, Note_on_c, 0, 57, 0
2, 93096, Note_on_c, 0, 59, 0
2, 93096, Note_on_c, 0, 62, 0
2, 93120, Note_on_c, 0, 64, 100
2, 93120, Note_on_c, 0, 60, 100
2, 93120, Note_on_c, 0, 57, 100
2, 93120, Note_on_c, 0, 45, 100
2, 93120, Note_on_c, 0, 52, 100
2, 94056, Note_on_c, 0, 52, 0
2, 94056, Note_on_c, 0, 45, 0
2, 94056, Note_on_c, 0, 57, 0
2, 94056, Note_on_c, 0, 60, 0
2, 94056, Note_on_c, 0, 64, 0
2, 94080, Note_on_c, 0, 62, 100
2, 94080, Note_on_c, 0, 68, 100
2, 94080, Note_on_c, 0, 59, 100
2, 94080, Note_on_c, 0, 40, 100
2, 94080, Note_on_c, 0, 52, 100
2, 95016, Note_on_c, 0, 52, 0
2, 95016, Note_on_c, 0, 40, 0
2, 95016, Note_on_c, 0, 59, 0
2, 95016, Note_on_c, 0, 68, 0
2, 95016, Note_on_c, 0, 62, 0
2, 95040, Note_on_c, 0, 57, 100
2, 95040, Note_on_c, 0, 60, 100
2, 95040, Note_on_c, 0, 69, 100
2, 95040, Note_on_c, 0, 53, 100
2, 95040, Note_on_c, 0, 41, 100
2, 95496, Note_on_c, 0, 41, 0
2, 95496, Note_on_c, 0, 53, 0
2, 95496, Note_on_c, 0, 69, 0
2, 95496, Note_on_c, 0, 60, 0
2, 95496, Note_on_c, 0, 57, 0
2, 95520, Note_on_c, 0, 57, 100
2, 95520, Note_on_c, 0, 59, 100
2, 95520, Note_on_c, 0, 65, 100
2, 95520, Note_on_c, 0, 69, 100
2, 95520, Note_on_c, 0, 50, 100
2, 95520, Note_on_c, 0, 38, 100
2, 95976, Note_on_c, 0, 38, 0
2, 95976, Note_on_c, 0, 50, 0
2, 95976, Note_on_c, 0, 69, 0
2, 95976, Note_on_c, 0, 65, 0
2, 95976, Note_on_c, 0, 59, 0
2, 95976, Note_on_c, 0, 57, 0
2, 96000, Note_on_c, 0, 64, 100
2, 96000, Note_on_c, 0, 68, 100
2, 96000, Note_on_c, 0, 59, 100
2, 96000, Note_on_c, 0, 40, 100
2, 96000, Note_on_c, 0, 52, 100
2, 96000, Note_on_c, 0, 62, 100
2, 96936, Note_on_c, 0, 62, 0
2, 96936, Note_on_c, 0, 52, 0
2, 96936, Note_on_c, 0, 40, 0
2, 96936, Note_on_c, 0, 59, 0
2, 96936, Note_on_c, 0, 68, 0
2, 96936, Note_on_c, 0, 64, 0
2, 96960, Note_on_c, 0, 64, 100
2, 96960, Note_on_c, 0, 60, 100
2, 96960, Note_on_c, 0, 69, 100
2, 96960, Note_on_c, 0, 57, 100
2, 96960, Note_on_c, 0, 45, 100
2, 97416, Note_on_c, 0, 45, 0
2, 97416, Note_on_c, 0, 57, 0
2, 97416, Note_on_c, 0, 69, 0
2, 97416, Note_on_c, 0, 60, 0
2, 97416, Note_on_c, 0, 64, 0
2, 97440, Note_on_c, 0, 57, 100
2, 97440, Note_on_c, 0, 60, 100
2, 97440, Note_on_c, 0, 64, 100
2, 97440, Note_on_c, 0, 52, 100
2, 97896, Note_on_c, 0, 52, 0
2, 97896, Note_on_c, 0, 64, 0
2, 97896, Note_on_c, 0, 60, 0
2, 97896, Note_on_c, 0, 57, 0
2, 97920, Note_on_c, 0, 48, 100
2, 97920, Note_on_c, 0, 55, 100
2, 97920, Note_on_c, 0, 60, 100
2, 97920, Note_on_c, 0, 64, 100
2, 99816, Note_on_c, 0, 64, 0
2, 99816, Note_on_c, 0, 60, 0
2, 99816, Note_on_c, 0, 55, 0
2, 99816, Note_on_c, 0, 48, 0
2, 99840, Note_on_c, 0, 62, 100
2, 99840, Note_on_c, 0, 55, 100
2, 99840, Note_on_c, 0, 59, 100
2, 99840, Note_on_c, 0, 43, 100
2, 100776, Note_on_c, 0, 43, 0
2, 100776, Note_on_c, 0, 59, 0
2, 100776, Note_on_c, 0, 55, 0
2, 100776, Note_on_c, 0, 62, 0
2, 100800, Note_on_c, 0, 62, 100
2, 100800, Note_on_c, 0, 65, 100
2, 100800, Note_on_c, 0, 57, 100
2, 100800, Note_on_c, 0, 38, 100
2, 101736, Note_on_c, 0, 38, 0
2, 101736, Note_on_c, 0, 57, 0
2, 101736, Note_on_c, 0, 65, 0
2, 101736, Note_on_c, 0, 62, 0
2, 101760, Note_on_c, 0, 64, 100
2, 101760, Note_on_c, 0, 56, 100
2, 101760, Note_on_c, 0, 59, 100
2, 101760, Note_on_c, 0, 62, 100
2, 101760, Note_on_c, 0, 40, 100
2, 101760, Note_on_c, 0, 52, 100
2, 102696, Note_on_c, 0, 52, 0
2, 102696, Note_on_c, 0, 40, 0
2, 102696, Note_on_c, 0, 62, 0
2, 102696, Note_on_c, 0, 59, 0
2, 102696, Note_on_c, 0, 56, 0
2, 102696, Note_on_c, 0, 64, 0
2, 102720, Note_on_c, 0, 57, 100
2, 102720, Note_on_c, 0, 60, 100
2, 102720, Note_on_c, 0, 64, 100
2, 102720, Note_on_c, 0, 45, 100
2, 103176, Note_on_c, 0, 45, 0
2, 103176, Note_on_c, 0, 64, 0
2, 103176, Note_on_c, 0, 60, 0
2, 103176, Note_on_c, 0, 57, 0
2, 103200, Note_on_c, 0, 57, 100
2, 103200, Note_on_c, 0, 62, 100
2, 103200, Note_on_c, 0, 65, 100
2, 103200, Note_on_c, 0, 38, 100
2, 103656, Note_on_c, 0, 38, 0
2, 103656, Note_on_c, 0, 65, 0
2, 103656, Note_on_c, 0, 62, 0
2, 103656, Note_on_c, 0, 57, 0
2, 103680, Note_on_c, 0, 57, 100
2, 103680, Note_on_c, 0, 60, 100
2, 103680, Note_on_c, 0, 64, 100
2, 103680, Note_on_c, 0, 40, 100
2, 104136, Note_on_c, 0, 40, 0
2, 104136, Note_on_c, 0, 64, 0
2, 104136, Note_on_c, 0, 60, 0
2, 104136, Note_on_c, 0, 57, 0
2, 104160, Note_on_c, 0, 56, 100
2, 104160, Note_on_c, 0, 62, 100
2, 104160, Note_on_c, 0, 64, 100
2, 104160, Note_on_c, 0, 52, 100
2, 104616, Note_on_c, 0, 52, 0
2, 104616, Note_on_c, 0, 64, 0
2, 104616, Note_on_c, 0, 62, 0
2, 104616, Note_on_c, 0, 56, 0
2, 104640, Note_on_c, 0, 57, 100
2, 104640, Note_on_c, 0, 60, 100
2, 104640, Note_on_c, 0, 64, 100
2, 104640, Note_on_c, 0, 45, 100
2, 105096, Note_on_c, 0, 45, 0
2, 105096, Note_on_c, 0, 64, 0
2, 105096, Note_on_c, 0, 60, 0
2, 105096, Note_on_c, 0, 57, 0
2, 105120, Note_on_c, 0, 55, 100
2, 105120, Note_on_c, 0, 60, 100
2, 105120, Note_on_c, 0, 64, 100
2, 105120, Note_on_c, 0, 48, 100
2, 105576, Note_on_c, 0, 48, 0
2, 105576, Note_on_c, 0, 64, 0
2, 105576, Note_on_c, 0, 60, 0
2, 105576, Note_on_c, 0, 55, 0
2, 105600, Note_on_c, 0, 48, 100
2, 105600, Note_on_c, 0, 55, 100
2, 105600, Note_on_c, 0, 60, 100
2, 105600, Note_on_c, 0, 64, 100
2, 107496, Note_on_c, 0, 64, 0
2, 107496, Note_on_c, 0, 60, 0
2, 107496, Note_on_c, 0, 55, 0
2, 107496, Note_on_c, 0, 48, 0
2, 107520, Note_on_c, 0, 43, 100
2, 107520, Note_on_c, 0, 62, 100
2, 107520, Note_on_c, 0, 55, 100
2, 107520, Note_on_c, 0, 59, 100
2, 108456, Note_on_c, 0, 59, 0
2, 108456, Note_on_c, 0, 55, 0
2, 108456, Note_on_c, 0, 62, 0
2, 108456, Note_on_c, 0, 43, 0
2, 108480, Note_on_c, 0, 38, 100
2, 108480, Note_on_c, 0, 62, 100
2, 108480, Note_on_c, 0, 65, 100
2, 108480, Note_on_c, 0, 57, 100
2, 109416, Note_on_c, 0, 57, 0
2, 109416, Note_on_c, 0, 65, 0
2, 109416, Note_on_c, 0, 62, 0
2, 109416, Note_on_c, 0, 38, 0
2, 109440, Note_on_c, 0, 64, 100
2, 109440, Note_on_c, 0, 56, 100
2, 109440, Note_on_c, 0, 59, 100
2, 109440, Note_on_c, 0, 62, 100
2, 109440, Note_on_c, 0, 40, 100
2, 109440, Note_on_c, 0, 52, 100
2, 110376, Note_on_c, 0, 52, 0
2, 110376, Note_on_c, 0, 40, 0
2, 110376, Note_on_c, 0, 62, 0
2, 110376, Note_on_c, 0, 59, 0
2, 110376, Note_on_c, 0, 56, 0
2, 110376, Note_on_c, 0, 64, 0
2, 110400, Note_on_c, 0, 57, 100
2, 110400, Note_on_c, 0, 60, 100
2, 110400, Note_on_c, 0, 64, 100
2, 110400, Note_on_c, 0, 45, 100
2, 110856, Note_on_c, 0, 45, 0
2, 110856, Note_on_c, 0, 64, 0
2, 110856, Note_on_c, 0, 60, 0
2, 110856, Note_on_c, 0, 57, 0
2, 110880, Note_on_c, 0, 38, 100
2, 110880, Note_on_c, 0, 57, 100
2, 110880, Note_on_c, 0, 62, 100
2, 110880, Note_on_c, 0, 65, 100
2, 110880, Note_on_c, 0, 50, 100
2, 111336, Note_on_c, 0, 50, 0
2, 111336, Note_on_c, 0, 65, 0
2, 111336, Note_on_c, 0, 62, 0
2, 111336, Note_on_c, 0, 57, 0
2, 111336, Note_on_c, 0, 38, 0
2, 111360, Note_on_c, 0, 57, 100
2, 111360, Note_on_c, 0, 60, 100
2, 111360, Note_on_c, 0, 64, 100
2, 111360, Note_on_c, 0, 40, 100
2, 111360, Note_on_c, 0, 52, 100
2, 113184, Note_on_c, 0, 52, 0
2, 113184, Note_on_c, 0, 40, 0
2, 113184, Note_on_c, 0, 64, 0
2, 113184, Note_on_c, 0, 60, 0
2, 113184, Note_on_c, 0, 57, 0
2, 113280, Note_on_c, 0, 64, 100
2, 113280, Note_on_c, 0, 57, 100
2, 113280, Note_on_c, 0, 59, 100
2, 113280, Note_on_c, 0, 40, 100
2, 113280, Note_on_c, 0, 52, 100
2, 114216, Note_on_c, 0, 59, 0
2, 114216, Note_on_c, 0, 57, 0
2, 114216, Note_on_c, 0, 64, 0
2, 114240, Note_on_c, 0, 56, 100
2, 114240, Note_on_c, 0, 59, 100
2, 114240, Note_on_c, 0, 64, 100
2, 114240, Note_on_c, 0, 62, 100
2, 114696, Note_on_c, 0, 62, 0
2, 114696, Note_on_c, 0, 64, 0
2, 114696, Note_on_c, 0, 59, 0
2, 114696, Note_on_c, 0, 56, 0
2, 114720, Note_on_c, 0, 68, 100
2, 114720, Note_on_c, 0, 64, 100
2, 114720, Note_on_c, 0, 62, 100
2, 114745, Control_c, 0, 7, 86
2, 114795, Control_c, 0, 7, 87
2, 114846, Control_c, 0, 7, 88
2, 114896, Control_c, 0, 7, 89
2, 114947, Control_c, 0, 7, 90
2, 114972, Control_c, 0, 7, 91
2, 115022, Control_c, 0, 7, 92
2, 115073, Control_c, 0, 7, 93
2, 115152, Note_on_c, 0, 52, 0
2, 115152, Note_on_c, 0, 40, 0
2, 115176, Note_on_c, 0, 62, 0
2, 115176, Note_on_c, 0, 64, 0
2, 115176, Note_on_c, 0, 68, 0
2, 115200, Note_on_c, 0, 69, 100
2, 115200, Note_on_c, 0, 64, 100
2, 115200, Note_on_c, 0, 60, 100
2, 115200, Note_on_c, 0, 57, 100
2, 115200, Note_on_c, 0, 45, 100
2, 115656, Note_on_c, 0, 45, 0
2, 115656, Note_on_c, 0, 57, 0
2, 115656, Note_on_c, 0, 60, 0
2, 115656, Note_on_c, 0, 64, 0
2, 115656, Note_on_c, 0, 69, 0
2, 115680, Note_on_c, 0, 50, 100
2, 115680, Note_on_c, 0, 57, 100
2, 115680, Note_on_c, 0, 62, 100
2, 115680, Note_on_c, 0, 65, 100
2, 115680, Note_on_c, 0, 69, 100
2, 116022, Note_on_c, 0, 69, 0
2, 116040, Note_on_c, 0, 71, 100
2, 116136, Note_on_c, 0, 65, 0
2, 116136, Note_on_c, 0, 62, 0
2, 116136, Note_on_c, 0, 57, 0
2, 116136, Note_on_c, 0, 50, 0
2, 116154, Note_on_c, 0, 71, 0
2, 116160, Note_on_c, 0, 69, 100
2, 116160, Note_on_c, 0, 64, 100
2, 116160, Note_on_c, 0, 60, 100
2, 116160, Note_on_c, 0, 57, 100
2, 116160, Note_on_c, 0, 45, 100
2, 116616, Note_on_c, 0, 45, 0
2, 116616, Note_on_c, 0, 57, 0
2, 116616, Note_on_c, 0, 60, 0
2, 116616, Note_on_c, 0, 64, 0
2, 116616, Note_on_c, 0, 69, 0
2, 116640, Note_on_c, 0, 62, 100
2, 116640, Note_on_c, 0, 65, 100
2, 116640, Note_on_c, 0, 69, 100
2, 116640, Note_on_c, 0, 50, 100
2, 116640, Note_on_c, 0, 57, 100
2, 116982, Note_on_c, 0, 69, 0
2, 117000, Note_on_c, 0, 71, 100
2, 117096, Note_on_c, 0, 57, 0
2, 117096, Note_on_c, 0, 50, 0
2, 117096, Note_on_c, 0, 65, 0
2, 117096, Note_on_c, 0, 62, 0
2, 117114, Note_on_c, 0, 71, 0
2, 117120, Note_on_c, 0, 69, 100
2, 117120, Note_on_c, 0, 64, 100
2, 117120, Note_on_c, 0, 60, 100
2, 117120, Note_on_c, 0, 57, 100
2, 117120, Note_on_c, 0, 45, 100
2, 117576, Note_on_c, 0, 45, 0
2, 117576, Note_on_c, 0, 57, 0
2, 117576, Note_on_c, 0, 60, 0
2, 117576, Note_on_c, 0, 64, 0
2, 117576, Note_on_c, 0, 69, 0
2, 117600, Note_on_c, 0, 59, 100
2, 117600, Note_on_c, 0, 64, 100
2, 117600, Note_on_c, 0, 68, 100
2, 117600, Note_on_c, 0, 47, 100
2, 117942, Note_on_c, 0, 68, 0
2, 117960, Note_on_c, 0, 69, 100
2, 118056, Note_on_c, 0, 47, 0
2, 118056, Note_on_c, 0, 64, 0
2, 118056, Note_on_c, 0, 59, 0
2, 118074, Note_on_c, 0, 69, 0
2, 118080, Note_on_c, 0, 66, 100
2, 118080, Note_on_c, 0, 63, 100
2, 118080, Note_on_c, 0, 59, 100
2, 118080, Note_on_c, 0, 47, 100
2, 118080, Note_on_c, 0, 57, 100
2, 118130, Control_c, 0, 7, 92
2, 118180, Control_c, 0, 7, 91
2, 118231, Control_c, 0, 7, 90
2, 118307, Control_c, 0, 7, 89
2, 118357, Control_c, 0, 7, 88
2, 118432, Control_c, 0, 7, 87
2, 118483, Control_c, 0, 7, 86
2, 118533, Control_c, 0, 7, 85
2, 118536, Note_on_c, 0, 57, 0
2, 118536, Note_on_c, 0, 47, 0
2, 118536, Note_on_c, 0, 59, 0
2, 118536, Note_on_c, 0, 63, 0
2, 118536, Note_on_c, 0, 66, 0
2, 118560, Note_on_c, 0, 64, 100
2, 118560, Note_on_c, 0, 59, 100
2, 118560, Note_on_c, 0, 56, 100
2, 118560, Note_on_c, 0, 40, 100
2, 119016, Note_on_c, 0, 40, 0
2, 119016, Note_on_c, 0, 56, 0
2, 119016, Note_on_c, 0, 59, 0
2, 119016, Note_on_c, 0, 64, 0
2, 119040, Control_c, 0, 7, 95
2, 119040, Note_on_c, 0, 52, 100
2, 119040, Note_on_c, 0, 40, 100
2, 119040, Note_on_c, 0, 62, 100
2, 119040, Note_on_c, 0, 68, 100
2, 119040, Note_on_c, 0, 71, 100
2, 119090, Control_c, 0, 7, 94
2, 119191, Control_c, 0, 7, 93
2, 119292, Control_c, 0, 7, 92
2, 119392, Control_c, 0, 7, 91
2, 119493, Control_c, 0, 7, 90
2, 119569, Control_c, 0, 7, 89
2, 119670, Control_c, 0, 7, 88
2, 119771, Control_c, 0, 7, 87
2, 119871, Control_c, 0, 7, 86
2, 119972, Control_c, 0, 7, 85
2, 119976, Note_on_c, 0, 71, 0
2, 119976, Note_on_c, 0, 68, 0
2, 119976, Note_on_c, 0, 62, 0
2, 120000, Note_on_c, 0, 64, 100
2, 120000, Note_on_c, 0, 68, 100
2, 120000, Note_on_c, 0, 72, 100
2, 120073, Control_c, 0, 7, 84
2, 120148, Control_c, 0, 7, 83
2, 120249, Control_c, 0, 7, 82
2, 120350, Control_c, 0, 7, 81
2, 120451, Control_c, 0, 7, 80
2, 120456, Note_on_c, 0, 72, 0
2, 120456, Note_on_c, 0, 68, 0
2, 120456, Note_on_c, 0, 64, 0
2, 120480, Note_on_c, 0, 68, 100
2, 120480, Note_on_c, 0, 64, 100
2, 120480, Note_on_c, 0, 59, 100
2, 120552, Control_c, 0, 7, 79
2, 120627, Control_c, 0, 7, 78
2, 120728, Control_c, 0, 7, 77
2, 120829, Control_c, 0, 7, 76
2, 120930, Control_c, 0, 7, 75
2, 120936, Note_on_c, 0, 40, 0
2, 120936, Note_on_c, 0, 52, 0
2, 120936, Note_on_c, 0, 59, 0
2, 120936, Note_on_c, 0, 64, 0
2, 120936, Note_on_c, 0, 68, 0
2, 120960, Note_on_c, 0, 68, 100
2, 120960, Note_on_c, 0, 52, 100
2, 120960, Note_on_c, 0, 45, 100
2, 120960, Note_on_c, 0, 64, 100
2, 120960, Note_on_c, 0, 60, 100
2, 121017, Note_on_c, 0, 68, 0
2, 121020, Note_on_c, 0, 69, 100
2, 121031, Control_c, 0, 7, 74
2, 121106, Control_c, 0, 7, 73
2, 121207, Control_c, 0, 7, 72
2, 121308, Control_c, 0, 7, 71
2, 121408, Control_c, 0, 7, 70
2, 121896, Note_on_c, 0, 60, 0
2, 121896, Note_on_c, 0, 64, 0
2, 121896, Note_on_c, 0, 45, 0
2, 121896, Note_on_c, 0, 52, 0
2, 121899, Note_on_c, 0, 69, 0
2, 121920, End_track
3, 0, Start_track
3, 0, Control_c, 1, 7, 90
3, 0, Control_c, 1, 0, 0
3, 0, Control_c, 1, 32, 0
3, 0, Program_c, 1, 53
3, 0, Control_c, 1, 1, 0
3, 0, Control_c, 1, 10, 64
3, 0, Control_c, 1, 91, 0
3, 0, Control_c, 1, 93, 0
3, 0, Title_t, "Voice"
3, 3840, Note_on_c, 1, 64, 100
3, 3890, Control_c, 1, 7, 91
3, 3991, Control_c, 1, 7, 92
3, 4067, Control_c, 1, 7, 93
3, 4142, Control_c, 1, 7, 94
3, 4243, Control_c, 1, 7, 95
3, 4296, Note_on_c, 1, 64, 0
3, 4319, Control_c, 1, 7, 96
3, 4320, Note_on_c, 1, 71, 100
3, 4394, Control_c, 1, 7, 97
3, 4495, Control_c, 1, 7, 98
3, 4571, Control_c, 1, 7, 99
3, 4646, Control_c, 1, 7, 100
3, 4662, Note_on_c, 1, 71, 0
3, 4680, Note_on_c, 1, 72, 100
3, 4794, Note_on_c, 1, 72, 0
3, 4800, Note_on_c, 1, 69, 100
3, 5199, Note_on_c, 1, 69, 0
3, 5220, Note_on_c, 1, 71, 100
3, 5277, Note_on_c, 1, 71, 0
3, 5280, Note_on_c, 1, 69, 100
3, 5508, Note_on_c, 1, 69, 0
3, 5520, Note_on_c, 1, 67, 100
3, 5748, Note_on_c, 1, 67, 0
3, 5760, Note_on_c, 1, 65, 100
3, 6216, Note_on_c, 1, 65, 0
3, 6240, Note_on_c, 1, 67, 100
3, 6468, Note_on_c, 1, 67, 0
3, 6480, Note_on_c, 1, 65, 100
3, 6708, Note_on_c, 1, 65, 0
3, 6720, Note_on_c, 1, 64, 100
3, 6795, Control_c, 1, 7, 101
3, 6947, Control_c, 1, 7, 102
3, 7072, Control_c, 1, 7, 103
3, 7224, Control_c, 1, 7, 104
3, 7375, Control_c, 1, 7, 105
3, 7428, Note_on_c, 1, 64, 0
3, 7440, Note_on_c, 1, 76, 100
3, 7501, Control_c, 1, 7, 106
3, 7668, Note_on_c, 1, 76, 0
3, 7680, Note_on_c, 1, 74, 100
3, 7908, Note_on_c, 1, 74, 0
3, 7920, Note_on_c, 1, 72, 100
3, 8148, Note_on_c, 1, 72, 0
3, 8160, Note_on_c, 1, 71, 100
3, 8388, Note_on_c, 1, 71, 0
3, 8400, Note_on_c, 1, 72, 100
3, 8628, Note_on_c, 1, 72, 0
3, 8640, Note_on_c, 1, 69, 100
3, 9096, Note_on_c, 1, 69, 0
3, 9120, Note_on_c, 1, 71, 100
3, 9576, Note_on_c, 1, 71, 0
3, 9600, Note_on_c, 1, 64, 100
3, 9752, Note_on_c, 1, 64, 0
3, 9759, Note_on_c, 1, 65, 100
3, 9911, Note_on_c, 1, 65, 0
3, 9919, Note_on_c, 1, 64, 100
3, 10070, Note_on_c, 1, 64, 0
3, 10080, Note_on_c, 1, 68, 100
3, 10536, Note_on_c, 1, 68, 0
3, 10560, Note_on_c, 1, 69, 100
3, 10610, Control_c, 1, 7, 105
3, 10660, Control_c, 1, 7, 104
3, 10736, Control_c, 1, 7, 103
3, 10812, Control_c, 1, 7, 102
3, 10862, Control_c, 1, 7, 101
3, 10938, Control_c, 1, 7, 100
3, 10988, Control_c, 1, 7, 99
3, 11016, Note_on_c, 1, 69, 0
3, 11040, Note_on_c, 1, 72, 100
3, 11064, Control_c, 1, 7, 98
3, 11139, Control_c, 1, 7, 97
3, 11190, Control_c, 1, 7, 96
3, 11265, Control_c, 1, 7, 95
3, 11268, Note_on_c, 1, 72, 0
3, 11520, Control_c, 1, 7, 100
3, 11520, Note_on_c, 1, 72, 100
3, 11570, Control_c, 1, 7, 101
3, 11646, Control_c, 1, 7, 102
3, 11721, Control_c, 1, 7, 103
3, 11797, Control_c, 1, 7, 104
3, 11872, Control_c, 1, 7, 105
3, 11948, Control_c, 1, 7, 106
3, 11976, Note_on_c, 1, 72, 0
3, 12000, Note_on_c, 1, 74, 100
3, 12024, Control_c, 1, 7, 107
3, 12099, Control_c, 1, 7, 108
3, 12175, Control_c, 1, 7, 109
3, 12228, Note_on_c, 1, 74, 0
3, 12240, Note_on_c, 1, 76, 100
3, 12251, Control_c, 1, 7, 110
3, 12326, Control_c, 1, 7, 111
3, 12468, Note_on_c, 1, 76, 0
3, 12480, Note_on_c, 1, 67, 100
3, 12936, Note_on_c, 1, 67, 0
3, 12960, Note_on_c, 1, 69, 100
3, 13416, Note_on_c, 1, 69, 0
3, 13440, Note_on_c, 1, 71, 100
3, 13896, Note_on_c, 1, 71, 0
3, 13920, Note_on_c, 1, 72, 100
3, 13970, Control_c, 1, 7, 110
3, 14020, Control_c, 1, 7, 109
3, 14071, Control_c, 1, 7, 108
3, 14121, Control_c, 1, 7, 107
3, 14148, Note_on_c, 1, 72, 0
3, 14160, Note_on_c, 1, 71, 100
3, 14172, Control_c, 1, 7, 106
3, 14222, Control_c, 1, 7, 105
3, 14272, Control_c, 1, 7, 104
3, 14323, Control_c, 1, 7, 103
3, 14373, Control_c, 1, 7, 102
3, 14388, Note_on_c, 1, 71, 0
3, 14400, Note_on_c, 1, 69, 100
3, 14856, Note_on_c, 1, 69, 0
3, 14880, Note_on_c, 1, 71, 100
3, 15108, Note_on_c, 1, 71, 0
3, 15360, Note_on_c, 1, 68, 100
3, 15816, Note_on_c, 1, 68, 0
3, 15840, Note_on_c, 1, 64, 100
3, 16068, Note_on_c, 1, 64, 0
3, 16080, Note_on_c, 1, 64, 100
3, 16308, Note_on_c, 1, 64, 0
3, 16320, Note_on_c, 1, 69, 100
3, 16776, Note_on_c, 1, 69, 0
3, 16800, Note_on_c, 1, 74, 100
3, 17142, Note_on_c, 1, 74, 0
3, 17160, Note_on_c, 1, 69, 100
3, 17274, Note_on_c, 1, 69, 0
3, 17280, Note_on_c, 1, 72, 100
3, 17736, Note_on_c, 1, 72, 0
3, 17760, Note_on_c, 1, 71, 100
3, 18102, Note_on_c, 1, 71, 0
3, 18120, Note_on_c, 1, 72, 100
3, 18234, Note_on_c, 1, 72, 0
3, 18240, Note_on_c, 1, 69, 100
3, 18696, Note_on_c, 1, 69, 0
3, 18720, Note_on_c, 1, 67, 100
3, 19176, Note_on_c, 1, 67, 0
3, 19200, Note_on_c, 1, 72, 100
3, 19250, Control_c, 1, 7, 103
3, 19351, Control_c, 1, 7, 104
3, 19452, Control_c, 1, 7, 105
3, 19527, Control_c, 1, 7, 106
3, 19628, Control_c, 1, 7, 107
3, 19656, Note_on_c, 1, 72, 0
3, 19680, Note_on_c, 1, 74, 100
3, 19729, Control_c, 1, 7, 108
3, 19830, Control_c, 1, 7, 109
3, 19906, Control_c, 1, 7, 110
3, 19908, Note_on_c, 1, 74, 0
3, 19920, Note_on_c, 1, 76, 100
3, 20006, Control_c, 1, 7, 111
3, 20148, Note_on_c, 1, 76, 0
3, 20160, Note_on_c, 1, 67, 100
3, 20616, Note_on_c, 1, 67, 0
3, 20640, Note_on_c, 1, 69, 100
3, 21096, Note_on_c, 1, 69, 0
3, 21120, Note_on_c, 1, 71, 100
3, 21576, Note_on_c, 1, 71, 0
3, 21600, Note_on_c, 1, 72, 100
3, 21625, Control_c, 1, 7, 110
3, 21675, Control_c, 1, 7, 109
3, 21701, Control_c, 1, 7, 108
3, 21751, Control_c, 1, 7, 107
3, 21802, Control_c, 1, 7, 106
3, 21827, Control_c, 1, 7, 105
3, 21828, Note_on_c, 1, 72, 0
3, 21840, Note_on_c, 1, 71, 100
3, 21877, Control_c, 1, 7, 104
3, 21902, Control_c, 1, 7, 103
3, 21953, Control_c, 1, 7, 102
3, 22068, Note_on_c, 1, 71, 0
3, 22080, Note_on_c, 1, 69, 100
3, 22536, Note_on_c, 1, 69, 0
3, 22560, Note_on_c, 1, 71, 100
3, 22788, Note_on_c, 1, 71, 0
3, 23040, Note_on_c, 1, 68, 100
3, 23496, Note_on_c, 1, 68, 0
3, 23520, Note_on_c, 1, 64, 100
3, 23748, Note_on_c, 1, 64, 0
3, 23760, Note_on_c, 1, 64, 100
3, 23988, Note_on_c, 1, 64, 0
3, 24000, Note_on_c, 1, 69, 100
3, 24456, Note_on_c, 1, 69, 0
3, 24480, Note_on_c, 1, 74, 100
3, 24708, Note_on_c, 1, 74, 0
3, 24720, Note_on_c, 1, 69, 100
3, 24948, Note_on_c, 1, 69, 0
3, 24960, Note_on_c, 1, 72, 100
3, 25010, Control_c, 1, 7, 103
3, 25061, Control_c, 1, 7, 104
3, 25136, Control_c, 1, 7, 105
3, 25187, Control_c, 1, 7, 106
3, 25262, Control_c, 1, 7, 107
3, 25338, Control_c, 1, 7, 108
3, 25388, Control_c, 1, 7, 109
3, 25416, Note_on_c, 1, 72, 0
3, 25440, Note_on_c, 1, 71, 100
3, 25464, Control_c, 1, 7, 110
3, 25514, Control_c, 1, 7, 111
3, 25590, Control_c, 1, 7, 112
3, 25640, Control_c, 1, 7, 113
3, 25668, Note_on_c, 1, 71, 0
3, 25680, Note_on_c, 1, 69, 100
3, 25716, Control_c, 1, 7, 114
3, 25791, Control_c, 1, 7, 115
3, 25908, Note_on_c, 1, 69, 0
3, 25920, Note_on_c, 1, 76, 100
3, 27108, Note_on_c, 1, 76, 0
3, 27120, Control_c, 1, 7, 110
3, 27120, Note_on_c, 1, 77, 100
3, 27145, Control_c, 1, 7, 109
3, 27195, Control_c, 1, 7, 108
3, 27246, Control_c, 1, 7, 107
3, 27296, Control_c, 1, 7, 106
3, 27347, Control_c, 1, 7, 105
3, 27348, Note_on_c, 1, 77, 0
3, 27360, Note_on_c, 1, 76, 100
3, 27397, Control_c, 1, 7, 104
3, 27447, Control_c, 1, 7, 103
3, 27498, Control_c, 1, 7, 102
3, 27548, Control_c, 1, 7, 101
3, 27588, Note_on_c, 1, 76, 0
3, 27599, Control_c, 1, 7, 100
3, 27600, Note_on_c, 1, 75, 100
3, 27649, Control_c, 1, 7, 99
3, 27699, Control_c, 1, 7, 98
3, 27828, Note_on_c, 1, 75, 0
3, 27840, Note_on_c, 1, 76, 100
3, 27865, Control_c, 1, 7, 99
3, 27915, Control_c, 1, 7, 100
3, 27966, Control_c, 1, 7, 101
3, 28016, Control_c, 1, 7, 102
3, 28067, Control_c, 1, 7, 103
3, 28068, Note_on_c, 1, 76, 0
3, 28080, Note_on_c, 1, 71, 100
3, 28092, Control_c, 1, 7, 104
3, 28142, Control_c, 1, 7, 105
3, 28193, Control_c, 1, 7, 106
3, 28308, Note_on_c, 1, 71, 0
3, 28320, Note_on_c, 1, 74, 100
3, 28345, Control_c, 1, 7, 105
3, 28395, Control_c, 1, 7, 104
3, 28446, Control_c, 1, 7, 103
3, 28496, Control_c, 1, 7, 102
3, 28547, Control_c, 1, 7, 101
3, 28548, Note_on_c, 1, 74, 0
3, 28560, Note_on_c, 1, 72, 100
3, 28572, Control_c, 1, 7, 100
3, 28622, Control_c, 1, 7, 99
3, 28673, Control_c, 1, 7, 98
3, 28788, Note_on_c, 1, 72, 0
3, 28800, Note_on_c, 1, 69, 100
3, 29256, Note_on_c, 1, 69, 0
3, 32640, Control_c, 1, 7, 90
3, 32640, Note_on_c, 1, 64, 100
3, 32690, Control_c, 1, 7, 91
3, 32791, Control_c, 1, 7, 92
3, 32867, Control_c, 1, 7, 93
3, 32942, Control_c, 1, 7, 94
3, 33043, Control_c, 1, 7, 95
3, 33096, Note_on_c, 1, 64, 0
3, 33119, Control_c, 1, 7, 96
3, 33120, Note_on_c, 1, 71, 100
3, 33194, Control_c, 1, 7, 97
3, 33295, Control_c, 1, 7, 98
3, 33371, Control_c, 1, 7, 99
3, 33446, Control_c, 1, 7, 100
3, 33462, Note_on_c, 1, 71, 0
3, 33480, Note_on_c, 1, 72, 100
3, 33594, Note_on_c, 1, 72, 0
3, 33600, Note_on_c, 1, 69, 100
3, 33999, Note_on_c, 1, 69, 0
3, 34020, Note_on_c, 1, 71, 100
3, 34077, Note_on_c, 1, 71, 0
3, 34080, Note_on_c, 1, 69, 100
3, 34308, Note_on_c, 1, 69, 0
3, 34320, Note_on_c, 1, 67, 100
3, 34548, Note_on_c, 1, 67, 0
3, 34560, Note_on_c, 1, 65, 100
3, 35016, Note_on_c, 1, 65, 0
3, 35040, Note_on_c, 1, 67, 100
3, 35268, Note_on_c, 1, 67, 0
3, 35280, Note_on_c, 1, 65, 100
3, 35508, Note_on_c, 1, 65, 0
3, 35520, Note_on_c, 1, 64, 100
3, 35595, Control_c, 1, 7, 101
3, 35747, Control_c, 1, 7, 102
3, 35873, Control_c, 1, 7, 103
3, 36024, Control_c, 1, 7, 104
3, 36175, Control_c, 1, 7, 105
3, 36228, Note_on_c, 1, 64, 0
3, 36240, Note_on_c, 1, 76, 100
3, 36301, Control_c, 1, 7, 106
3, 36468, Note_on_c, 1, 76, 0
3, 36480, Note_on_c, 1, 74, 100
3, 36708, Note_on_c, 1, 74, 0
3, 36720, Note_on_c, 1, 72, 100
3, 36948, Note_on_c, 1, 72, 0
3, 36960, Note_on_c, 1, 71, 100
3, 37188, Note_on_c, 1, 71, 0
3, 37200, Note_on_c, 1, 72, 100
3, 37428, Note_on_c, 1, 72, 0
3, 37440, Note_on_c, 1, 69, 100
3, 37896, Note_on_c, 1, 69, 0
3, 37920, Note_on_c, 1, 71, 100
3, 38376, Note_on_c, 1, 71, 0
3, 38400, Note_on_c, 1, 64, 100
3, 38552, Note_on_c, 1, 64, 0
3, 38559, Note_on_c, 1, 65, 100
3, 38711, Note_on_c, 1, 65, 0
3, 38719, Note_on_c, 1, 64, 100
3, 38870, Note_on_c, 1, 64, 0
3, 38880, Note_on_c, 1, 68, 100
3, 39336, Note_on_c, 1, 68, 0
3, 39360, Note_on_c, 1, 69, 100
3, 39410, Control_c, 1, 7, 105
3, 39460, Control_c, 1, 7, 104
3, 39536, Control_c, 1, 7, 103
3, 39612, Control_c, 1, 7, 102
3, 39662, Control_c, 1, 7, 101
3, 39738, Control_c, 1, 7, 100
3, 39788, Control_c, 1, 7, 99
3, 39816, Note_on_c, 1, 69, 0
3, 39840, Note_on_c, 1, 72, 100
3, 39864, Control_c, 1, 7, 98
3, 39939, Control_c, 1, 7, 97
3, 39990, Control_c, 1, 7, 96
3, 40065, Control_c, 1, 7, 95
3, 40068, Note_on_c, 1, 72, 0
3, 40320, Control_c, 1, 7, 100
3, 40320, Note_on_c, 1, 72, 100
3, 40370, Control_c, 1, 7, 101
3, 40446, Control_c, 1, 7, 102
3, 40521, Control_c, 1, 7, 103
3, 40597, Control_c, 1, 7, 104
3, 40673, Control_c, 1, 7, 105
3, 40748, Control_c, 1, 7, 106
3, 40776, Note_on_c, 1, 72, 0
3, 40800, Note_on_c, 1, 74, 100
3, 40824, Control_c, 1, 7, 107
3, 40899, Control_c, 1, 7, 108
3, 40975, Control_c, 1, 7, 109
3, 41028, Note_on_c, 1, 74, 0
3, 41040, Note_on_c, 1, 76, 100
3, 41051, Control_c, 1, 7, 110
3, 41126, Control_c, 1, 7, 111
3, 41268, Note_on_c, 1, 76, 0
3, 41280, Note_on_c, 1, 67, 100
3, 41736, Note_on_c, 1, 67, 0
3, 41760, Note_on_c, 1, 69, 100
3, 42216, Note_on_c, 1, 69, 0
3, 42240, Note_on_c, 1, 71, 100
3, 42696, Note_on_c, 1, 71, 0
3, 42720, Note_on_c, 1, 72, 100
3, 42770, Control_c, 1, 7, 110
3, 42820, Control_c, 1, 7, 109
3, 42871, Control_c, 1, 7, 108
3, 42921, Control_c, 1, 7, 107
3, 42948, Note_on_c, 1, 72, 0
3, 42960, Note_on_c, 1, 71, 100
3, 42972, Control_c, 1, 7, 106
3, 43022, Control_c, 1, 7, 105
3, 43073, Control_c, 1, 7, 104
3, 43123, Control_c, 1, 7, 103
3, 43173, Control_c, 1, 7, 102
3, 43188, Note_on_c, 1, 71, 0
3, 43200, Note_on_c, 1, 69, 100
3, 43656, Note_on_c, 1, 69, 0
3, 43680, Note_on_c, 1, 71, 100
3, 43908, Note_on_c, 1, 71, 0
3, 44160, Note_on_c, 1, 68, 100
3, 44616, Note_on_c, 1, 68, 0
3, 44640, Note_on_c, 1, 64, 100
3, 44868, Note_on_c, 1, 64, 0
3, 44880, Note_on_c, 1, 64, 100
3, 45108, Note_on_c, 1, 64, 0
3, 45120, Note_on_c, 1, 69, 100
3, 45576, Note_on_c, 1, 69, 0
3, 45600, Note_on_c, 1, 74, 100
3, 45942, Note_on_c, 1, 74, 0
3, 45960, Note_on_c, 1, 69, 100
3, 46074, Note_on_c, 1, 69, 0
3, 46080, Note_on_c, 1, 72, 100
3, 46536, Note_on_c, 1, 72, 0
3, 46560, Note_on_c, 1, 71, 100
3, 46902, Note_on_c, 1, 71, 0
3, 46920, Note_on_c, 1, 72, 100
3, 47034, Note_on_c, 1, 72, 0
3, 47040, Note_on_c, 1, 69, 100
3, 47496, Note_on_c, 1, 69, 0
3, 47520, Note_on_c, 1, 67, 100
3, 47976, Note_on_c, 1, 67, 0
3, 48000, Note_on_c, 1, 72, 100
3, 48050, Control_c, 1, 7, 103
3, 48151, Control_c, 1, 7, 104
3, 48252, Control_c, 1, 7, 105
3, 48327, Control_c, 1, 7, 106
3, 48428, Control_c, 1, 7, 107
3, 48456, Note_on_c, 1, 72, 0
3, 48480, Note_on_c, 1, 74, 100
3, 48529, Control_c, 1, 7, 108
3, 48630, Control_c, 1, 7, 109
3, 48706, Control_c, 1, 7, 110
3, 48708, Note_on_c, 1, 74, 0
3, 48720, Note_on_c, 1, 76, 100
3, 48806, Control_c, 1, 7, 111
3, 48948, Note_on_c, 1, 76, 0
3, 48960, Note_on_c, 1, 67, 100
3, 49416, Note_on_c, 1, 67, 0
3, 49440, Note_on_c, 1, 69, 100
3, 49896, Note_on_c, 1, 69, 0
3, 49920, Note_on_c, 1, 71, 100
3, 50376, Note_on_c, 1, 71, 0
3, 50400, Note_on_c, 1, 72, 100
3, 50425, Control_c, 1, 7, 110
3, 50475, Control_c, 1, 7, 109
3, 50501, Control_c, 1, 7, 108
3, 50551, Control_c, 1, 7, 107
3, 50602, Control_c, 1, 7, 106
3, 50627, Control_c, 1, 7, 105
3, 50628, Note_on_c, 1, 72, 0
3, 50640, Note_on_c, 1, 71, 100
3, 50677, Control_c, 1, 7, 104
3, 50702, Control_c, 1, 7, 103
3, 50753, Control_c, 1, 7, 102
3, 50868, Note_on_c, 1, 71, 0
3, 50880, Note_on_c, 1, 69, 100
3, 51336, Note_on_c, 1, 69, 0
3, 51360, Note_on_c, 1, 71, 100
3, 51588, Note_on_c, 1, 71, 0
3, 51840, Note_on_c, 1, 68, 100
3, 52296, Note_on_c, 1, 68, 0
3, 52320, Note_on_c, 1, 64, 100
3, 52548, Note_on_c, 1, 64, 0
3, 52560, Note_on_c, 1, 64, 100
3, 52788, Note_on_c, 1, 64, 0
3, 52800, Note_on_c, 1, 69, 100
3, 53256, Note_on_c, 1, 69, 0
3, 53280, Note_on_c, 1, 74, 100
3, 53508, Note_on_c, 1, 74, 0
3, 53520, Note_on_c, 1, 69, 100
3, 53748, Note_on_c, 1, 69, 0
3, 53760, Note_on_c, 1, 72, 100
3, 53810, Control_c, 1, 7, 103
3, 53861, Control_c, 1, 7, 104
3, 53936, Control_c, 1, 7, 105
3, 53987, Control_c, 1, 7, 106
3, 54062, Control_c, 1, 7, 107
3, 54138, Control_c, 1, 7, 108
3, 54188, Control_c, 1, 7, 109
3, 54216, Note_on_c, 1, 72, 0
3, 54240, Note_on_c, 1, 71, 100
3, 54264, Control_c, 1, 7, 110
3, 54314, Control_c, 1, 7, 111
3, 54390, Control_c, 1, 7, 112
3, 54440, Control_c, 1, 7, 113
3, 54468, Note_on_c, 1, 71, 0
3, 54480, Note_on_c, 1, 69, 100
3, 54516, Control_c, 1, 7, 114
3, 54591, Control_c, 1, 7, 115
3, 54708, Note_on_c, 1, 69, 0
3, 54720, Note_on_c, 1, 76, 100
3, 55908, Note_on_c, 1, 76, 0
3, 55920, Control_c, 1, 7, 110
3, 55920, Note_on_c, 1, 77, 100
3, 55945, Control_c, 1, 7, 109
3, 55995, Control_c, 1, 7, 108
3, 56046, Control_c, 1, 7, 107
3, 56096, Control_c, 1, 7, 106
3, 56147, Control_c, 1, 7, 105
3, 56148, Note_on_c, 1, 77, 0
3, 56160, Note_on_c, 1, 76, 100
3, 56197, Control_c, 1, 7, 104
3, 56247, Control_c, 1, 7, 103
3, 56298, Control_c, 1, 7, 102
3, 56348, Control_c, 1, 7, 101
3, 56388, Note_on_c, 1, 76, 0
3, 56399, Control_c, 1, 7, 100
3, 56400, Note_on_c, 1, 75, 100
3, 56449, Control_c, 1, 7, 99
3, 56499, Control_c, 1, 7, 98
3, 56628, Note_on_c, 1, 75, 0
3, 56640, Note_on_c, 1, 76, 100
3, 56665, Control_c, 1, 7, 99
3, 56715, Control_c, 1, 7, 100
3, 56766, Control_c, 1, 7, 101
3, 56816, Control_c, 1, 7, 102
3, 56867, Control_c, 1, 7, 103
3, 56868, Note_on_c, 1, 76, 0
3, 56880, Note_on_c, 1, 71, 100
3, 56892, Control_c, 1, 7, 104
3, 56942, Control_c, 1, 7, 105
3, 56993, Control_c, 1, 7, 106
3, 57108, Note_on_c, 1, 71, 0
3, 57120, Note_on_c, 1, 74, 100
3, 57145, Control_c, 1, 7, 105
3, 57195, Control_c, 1, 7, 104
3, 57246, Control_c, 1, 7, 103
3, 57296, Control_c, 1, 7, 102
3, 57347, Control_c, 1, 7, 101
3, 57348, Note_on_c, 1, 74, 0
3, 57360, Note_on_c, 1, 72, 100
3, 57372, Control_c, 1, 7, 100
3, 57422, Control_c, 1, 7, 99
3, 57473, Control_c, 1, 7, 98
3, 57588, Note_on_c, 1, 72, 0
3, 57600, Note_on_c, 1, 69, 100
3, 58056, Note_on_c, 1, 69, 0
3, 61440, Control_c, 1, 7, 90
3, 61440, Note_on_c, 1, 64, 100
3, 61490, Control_c, 1, 7, 91
3, 61591, Control_c, 1, 7, 92
3, 61667, Control_c, 1, 7, 93
3, 61742, Control_c, 1, 7, 94
3, 61843, Control_c, 1, 7, 95
3, 61896, Note_on_c, 1, 64, 0
3, 61919, Control_c, 1, 7, 96
3, 61920, Note_on_c, 1, 71, 100
3, 61994, Control_c, 1, 7, 97
3, 62095, Control_c, 1, 7, 98
3, 62171, Control_c, 1, 7, 99
3, 62246, Control_c, 1, 7, 100
3, 62262, Note_on_c, 1, 71, 0
3, 62280, Note_on_c, 1, 72, 100
3, 62394, Note_on_c, 1, 72, 0
3, 62400, Note_on_c, 1, 69, 100
3, 62799, Note_on_c, 1, 69, 0
3, 62820, Note_on_c, 1, 71, 100
3, 62877, Note_on_c, 1, 71, 0
3, 62880, Note_on_c, 1, 69, 100
3, 63108, Note_on_c, 1, 69, 0
3, 63120, Note_on_c, 1, 67, 100
3, 63348, Note_on_c, 1, 67, 0
3, 63360, Note_on_c, 1, 65, 100
3, 63816, Note_on_c, 1, 65, 0
3, 63840, Note_on_c, 1, 67, 100
3, 64068, Note_on_c, 1, 67, 0
3, 64080, Note_on_c, 1, 65, 100
3, 64308, Note_on_c, 1, 65, 0
3, 64320, Note_on_c, 1, 64, 100
3, 64395, Control_c, 1, 7, 101
3, 64547, Control_c, 1, 7, 102
3, 64672, Control_c, 1, 7, 103
3, 64824, Control_c, 1, 7, 104
3, 64975, Control_c, 1, 7, 105
3, 65028, Note_on_c, 1, 64, 0
3, 65040, Note_on_c, 1, 76, 100
3, 65101, Control_c, 1, 7, 106
3, 65268, Note_on_c, 1, 76, 0
3, 65280, Note_on_c, 1, 74, 100
3, 65508, Note_on_c, 1, 74, 0
3, 65520, Note_on_c, 1, 72, 100
3, 65748, Note_on_c, 1, 72, 0
3, 65760, Note_on_c, 1, 71, 100
3, 65988, Note_on_c, 1, 71, 0
3, 66000, Note_on_c, 1, 72, 100
3, 66228, Note_on_c, 1, 72, 0
3, 66240, Note_on_c, 1, 69, 100
3, 66696, Note_on_c, 1, 69, 0
3, 66720, Note_on_c, 1, 71, 100
3, 67176, Note_on_c, 1, 71, 0
3, 67200, Note_on_c, 1, 64, 100
3, 67352, Note_on_c, 1, 64, 0
3, 67359, Note_on_c, 1, 65, 100
3, 67511, Note_on_c, 1, 65, 0
3, 67519, Note_on_c, 1, 64, 100
3, 67670, Note_on_c, 1, 64, 0
3, 67680, Note_on_c, 1, 68, 100
3, 68136, Note_on_c, 1, 68, 0
3, 68160, Note_on_c, 1, 69, 100
3, 68210, Control_c, 1, 7, 105
3, 68260, Control_c, 1, 7, 104
3, 68336, Control_c, 1, 7, 103
3, 68412, Control_c, 1, 7, 102
3, 68462, Control_c, 1, 7, 101
3, 68538, Control_c, 1, 7, 100
3, 68588, Control_c, 1, 7, 99
3, 68616, Note_on_c, 1, 69, 0
3, 68640, Note_on_c, 1, 72, 100
3, 68664, Control_c, 1, 7, 98
3, 68739, Control_c, 1, 7, 97
3, 68790, Control_c, 1, 7, 96
3, 68865, Control_c, 1, 7, 95
3, 68868, Note_on_c, 1, 72, 0
3, 69120, Control_c, 1, 7, 100
3, 69120, Note_on_c, 1, 72, 100
3, 69170, Control_c, 1, 7, 101
3, 69246, Control_c, 1, 7, 102
3, 69321, Control_c, 1, 7, 103
3, 69397, Control_c, 1, 7, 104
3, 69472, Control_c, 1, 7, 105
3, 69548, Control_c, 1, 7, 106
3, 69576, Note_on_c, 1, 72, 0
3, 69600, Note_on_c, 1, 74, 100
3, 69624, Control_c, 1, 7, 107
3, 69699, Control_c, 1, 7, 108
3, 69775, Control_c, 1, 7, 109
3, 69828, Note_on_c, 1, 74, 0
3, 69840, Note_on_c, 1, 76, 100
3, 69851, Control_c, 1, 7, 110
3, 69926, Control_c, 1, 7, 111
3, 70068, Note_on_c, 1, 76, 0
3, 70080, Note_on_c, 1, 67, 100
3, 70536, Note_on_c, 1, 67, 0
3, 70560, Note_on_c, 1, 69, 100
3, 71016, Note_on_c, 1, 69, 0
3, 71040, Note_on_c, 1, 71, 100
3, 71496, Note_on_c, 1, 71, 0
3, 71520, Note_on_c, 1, 72, 100
3, 71570, Control_c, 1, 7, 110
3, 71620, Control_c, 1, 7, 109
3, 71671, Control_c, 1, 7, 108
3, 71721, Control_c, 1, 7, 107
3, 71748, Note_on_c, 1, 72, 0
3, 71760, Note_on_c, 1, 71, 100
3, 71772, Control_c, 1, 7, 106
3, 71822, Control_c, 1, 7, 105
3, 71872, Control_c, 1, 7, 104
3, 71923, Control_c, 1, 7, 103
3, 71973, Control_c, 1, 7, 102
3, 71988, Note_on_c, 1, 71, 0
3, 72000, Note_on_c, 1, 69, 100
3, 72456, Note_on_c, 1, 69, 0
3, 72480, Note_on_c, 1, 71, 100
3, 72708, Note_on_c, 1, 71, 0
3, 72960, Note_on_c, 1, 68, 100
3, 73416, Note_on_c, 1, 68, 0
3, 73440, Note_on_c, 1, 64, 100
3, 73668, Note_on_c, 1, 64, 0
3, 73680, Note_on_c, 1, 64, 100
3, 73908, Note_on_c, 1, 64, 0
3, 73920, Note_on_c, 1, 69, 100
3, 74376, Note_on_c, 1, 69, 0
3, 74400, Note_on_c, 1, 74, 100
3, 74742, Note_on_c, 1, 74, 0
3, 74760, Note_on_c, 1, 69, 100
3, 74874, Note_on_c, 1, 69, 0
3, 74880, Note_on_c, 1, 72, 100
3, 75336, Note_on_c, 1, 72, 0
3, 75360, Note_on_c, 1, 71, 100
3, 75702, Note_on_c, 1, 71, 0
3, 75720, Note_on_c, 1, 72, 100
3, 75834, Note_on_c, 1, 72, 0
3, 75840, Note_on_c, 1, 69, 100
3, 76296, Note_on_c, 1, 69, 0
3, 76320, Note_on_c, 1, 67, 100
3, 76776, Note_on_c, 1, 67, 0
3, 76800, Note_on_c, 1, 72, 100
3, 76850, Control_c, 1, 7, 103
3, 76951, Control_c, 1, 7, 104
3, 77052, Control_c, 1, 7, 105
3, 77127, Control_c, 1, 7, 106
3, 77228, Control_c, 1, 7, 107
3, 77256, Note_on_c, 1, 72, 0
3, 77280, Note_on_c, 1, 74, 100
3, 77329, Control_c, 1, 7, 108
3, 77430, Control_c, 1, 7, 109
3, 77506, Control_c, 1, 7, 110
3, 77508, Note_on_c, 1, 74, 0
3, 77520, Note_on_c, 1, 76, 100
3, 77606, Control_c, 1, 7, 111
3, 77748, Note_on_c, 1, 76, 0
3, 77760, Note_on_c, 1, 67, 100
3, 78216, Note_on_c, 1, 67, 0
3, 78240, Note_on_c, 1, 69, 100
3, 78696, Note_on_c, 1, 69, 0
3, 78720, Note_on_c, 1, 71, 100
3, 79176, Note_on_c, 1, 71, 0
3, 79200, Note_on_c, 1, 72, 100
3, 79225, Control_c, 1, 7, 110
3, 79275, Control_c, 1, 7, 109
3, 79301, Control_c, 1, 7, 108
3, 79351, Control_c, 1, 7, 107
3, 79402, Control_c, 1, 7, 106
3, 79427, Control_c, 1, 7, 105
3, 79428, Note_on_c, 1, 72, 0
3, 79440, Note_on_c, 1, 71, 100
3, 79477, Control_c, 1, 7, 104
3, 79502, Control_c, 1, 7, 103
3, 79553, Control_c, 1, 7, 102
3, 79668, Note_on_c, 1, 71, 0
3, 79680, Note_on_c, 1, 69, 100
3, 80136, Note_on_c, 1, 69, 0
3, 80160, Note_on_c, 1, 71, 100
3, 80388, Note_on_c, 1, 71, 0
3, 80640, Note_on_c, 1, 68, 100
3, 81096, Note_on_c, 1, 68, 0
3, 81120, Note_on_c, 1, 64, 100
3, 81348, Note_on_c, 1, 64, 0
3, 81360, Note_on_c, 1, 64, 100
3, 81588, Note_on_c, 1, 64, 0
3, 81600, Note_on_c, 1, 69, 100
3, 82056, Note_on_c, 1, 69, 0
3, 82080, Note_on_c, 1, 74, 100
3, 82308, Note_on_c, 1, 74, 0
3, 82320, Note_on_c, 1, 69, 100
3, 82548, Note_on_c, 1, 69, 0
3, 82560, Note_on_c, 1, 72, 100
3, 82610, Control_c, 1, 7, 103
3, 82661, Control_c, 1, 7, 104
3, 82736, Control_c, 1, 7, 105
3, 82787, Control_c, 1, 7, 106
3, 82862, Control_c, 1, 7, 107
3, 82938, Control_c, 1, 7, 108
3, 82988, Control_c, 1, 7, 109
3, 83016, Note_on_c, 1, 72, 0
3, 83040, Note_on_c, 1, 71, 100
3, 83064, Control_c, 1, 7, 110
3, 83114, Control_c, 1, 7, 111
3, 83190, Control_c, 1, 7, 112
3, 83240, Control_c, 1, 7, 113
3, 83268, Note_on_c, 1, 71, 0
3, 83280, Note_on_c, 1, 69, 100
3, 83316, Control_c, 1, 7, 114
3, 83391, Control_c, 1, 7, 115
3, 83508, Note_on_c, 1, 69, 0
3, 83520, Note_on_c, 1, 76, 100
3, 84708, Note_on_c, 1, 76, 0
3, 84720, Control_c, 1, 7, 110
3, 84720, Note_on_c, 1, 77, 100
3, 84745, Control_c, 1, 7, 109
3, 84795, Control_c, 1, 7, 108
3, 84846, Control_c, 1, 7, 107
3, 84896, Control_c, 1, 7, 106
3, 84947, Control_c, 1, 7, 105
3, 84948, Note_on_c, 1, 77, 0
3, 84960, Note_on_c, 1, 76, 100
3, 84997, Control_c, 1, 7, 104
3, 85047, Control_c, 1, 7, 103
3, 85098, Control_c, 1, 7, 102
3, 85148, Control_c, 1, 7, 101
3, 85188, Note_on_c, 1, 76, 0
3, 85199, Control_c, 1, 7, 100
3, 85200, Note_on_c, 1, 75, 100
3, 85249, Control_c, 1, 7, 99
3, 85299, Control_c, 1, 7, 98
3, 85428, Note_on_c, 1, 75, 0
3, 85440, Note_on_c, 1, 76, 100
3, 85465, Control_c, 1, 7, 99
3, 85515, Control_c, 1, 7, 100
3, 85566, Control_c, 1, 7, 101
3, 85616, Control_c, 1, 7, 102
3, 85667, Control_c, 1, 7, 103
3, 85668, Note_on_c, 1, 76, 0
3, 85680, Note_on_c, 1, 71, 100
3, 85692, Control_c, 1, 7, 104
3, 85742, Control_c, 1, 7, 105
3, 85793, Control_c, 1, 7, 106
3, 85908, Note_on_c, 1, 71, 0
3, 85920, Note_on_c, 1, 74, 100
3, 85945, Control_c, 1, 7, 105
3, 85995, Control_c, 1, 7, 104
3, 86046, Control_c, 1, 7, 103
3, 86096, Control_c, 1, 7, 102
3, 86147, Control_c, 1, 7, 101
3, 86148, Note_on_c, 1, 74, 0
3, 86160, Note_on_c, 1, 72, 100
3, 86172, Control_c, 1, 7, 100
3, 86222, Control_c, 1, 7, 99
3, 86273, Control_c, 1, 7, 98
3, 86388, Note_on_c, 1, 72, 0
3, 86400, Note_on_c, 1, 69, 100
3, 86856, Note_on_c, 1, 69, 0
3, 90240, Control_c, 1, 7, 90
3, 90240, Note_on_c, 1, 64, 100
3, 90290, Control_c, 1, 7, 91
3, 90391, Control_c, 1, 7, 92
3, 90467, Control_c, 1, 7, 93
3, 90542, Control_c, 1, 7, 94
3, 90643, Control_c, 1, 7, 95
3, 90696, Note_on_c, 1, 64, 0
3, 90719, Control_c, 1, 7, 96
3, 90720, Note_on_c, 1, 71, 100
3, 90794, Control_c, 1, 7, 97
3, 90895, Control_c, 1, 7, 98
3, 90971, Control_c, 1, 7, 99
3, 91046, Control_c, 1, 7, 100
3, 91062, Note_on_c, 1, 71, 0
3, 91080, Note_on_c, 1, 72, 100
3, 91194, Note_on_c, 1, 72, 0
3, 91200, Note_on_c, 1, 69, 100
3, 91599, Note_on_c, 1, 69, 0
3, 91620, Note_on_c, 1, 71, 100
3, 91677, Note_on_c, 1, 71, 0
3, 91680, Note_on_c, 1, 69, 100
3, 91908, Note_on_c, 1, 69, 0
3, 91920, Note_on_c, 1, 67, 100
3, 92148, Note_on_c, 1, 67, 0
3, 92160, Note_on_c, 1, 65, 100
3, 92616, Note_on_c, 1, 65, 0
3, 92640, Note_on_c, 1, 67, 100
3, 92868, Note_on_c, 1, 67, 0
3, 92880, Note_on_c, 1, 65, 100
3, 93108, Note_on_c, 1, 65, 0
3, 93120, Note_on_c, 1, 64, 100
3, 93195, Control_c, 1, 7, 101
3, 93347, Control_c, 1, 7, 102
3, 93473, Control_c, 1, 7, 103
3, 93624, Control_c, 1, 7, 104
3, 93775, Control_c, 1, 7, 105
3, 93828, Note_on_c, 1, 64, 0
3, 93840, Note_on_c, 1, 76, 100
3, 93901, Control_c, 1, 7, 106
3, 94068, Note_on_c, 1, 76, 0
3, 94080, Note_on_c, 1, 74, 100
3, 94308, Note_on_c, 1, 74, 0
3, 94320, Note_on_c, 1, 72, 100
3, 94548, Note_on_c, 1, 72, 0
3, 94560, Note_on_c, 1, 71, 100
3, 94788, Note_on_c, 1, 71, 0
3, 94800, Note_on_c, 1, 72, 100
3, 95028, Note_on_c, 1, 72, 0
3, 95040, Note_on_c, 1, 69, 100
3, 95496, Note_on_c, 1, 69, 0
3, 95520, Note_on_c, 1, 71, 100
3, 95976, Note_on_c, 1, 71, 0
3, 96000, Note_on_c, 1, 64, 100
3, 96152, Note_on_c, 1, 64, 0
3, 96159, Note_on_c, 1, 65, 100
3, 96311, Note_on_c, 1, 65, 0
3, 96319, Note_on_c, 1, 64, 100
3, 96470, Note_on_c, 1, 64, 0
3, 96480, Note_on_c, 1, 68, 100
3, 96936, Note_on_c, 1, 68, 0
3, 96960, Note_on_c, 1, 69, 100
3, 97010, Control_c, 1, 7, 105
3, 97060, Control_c, 1, 7, 104
3, 97136, Control_c, 1, 7, 103
3, 97212, Control_c, 1, 7, 102
3, 97262, Control_c, 1, 7, 101
3, 97338, Control_c, 1, 7, 100
3, 97388, Control_c, 1, 7, 99
3, 97416, Note_on_c, 1, 69, 0
3, 97440, Note_on_c, 1, 72, 100
3, 97464, Control_c, 1, 7, 98
3, 97539, Control_c, 1, 7, 97
3, 97590, Control_c, 1, 7, 96
3, 97665, Control_c, 1, 7, 95
3, 97668, Note_on_c, 1, 72, 0
3, 97920, Control_c, 1, 7, 100
3, 97920, Note_on_c, 1, 72, 100
3, 97970, Control_c, 1, 7, 101
3, 98046, Control_c, 1, 7, 102
3, 98121, Control_c, 1, 7, 103
3, 98197, Control_c, 1, 7, 104
3, 98273, Control_c, 1, 7, 105
3, 98348, Control_c, 1, 7, 106
3, 98376, Note_on_c, 1, 72, 0
3, 98400, Note_on_c, 1, 74, 100
3, 98424, Control_c, 1, 7, 107
3, 98499, Control_c, 1, 7, 108
3, 98575, Control_c, 1, 7, 109
3, 98628, Note_on_c, 1, 74, 0
3, 98640, Note_on_c, 1, 76, 100
3, 98651, Control_c, 1, 7, 110
3, 98726, Control_c, 1, 7, 111
3, 98868, Note_on_c, 1, 76, 0
3, 98880, Note_on_c, 1, 67, 100
3, 99336, Note_on_c, 1, 67, 0
3, 99360, Note_on_c, 1, 69, 100
3, 99816, Note_on_c, 1, 69, 0
3, 99840, Note_on_c, 1, 71, 100
3, 100296, Note_on_c, 1, 71, 0
3, 100320, Note_on_c, 1, 72, 100
3, 100370, Control_c, 1, 7, 110
3, 100420, Control_c, 1, 7, 109
3, 100471, Control_c, 1, 7, 108
3, 100521, Control_c, 1, 7, 107
3, 100548, Note_on_c, 1, 72, 0
3, 100560, Note_on_c, 1, 71, 100
3, 100572, Control_c, 1, 7, 106
3, 100622, Control_c, 1, 7, 105
3, 100673, Control_c, 1, 7, 104
3, 100723, Control_c, 1, 7, 103
3, 100773, Control_c, 1, 7, 102
3, 100788, Note_on_c, 1, 71, 0
3, 100800, Note_on_c, 1, 69, 100
3, 101256, Note_on_c, 1, 69, 0
3, 101280, Note_on_c, 1, 71, 100
3, 101508, Note_on_c, 1, 71, 0
3, 101760, Note_on_c, 1, 68, 100
3, 102216, Note_on_c, 1, 68, 0
3, 102240, Note_on_c, 1, 64, 100
3, 102468, Note_on_c, 1, 64, 0
3, 102480, Note_on_c, 1, 64, 100
3, 102708, Note_on_c, 1, 64, 0
3, 102720, Note_on_c, 1, 69, 100
3, 103176, Note_on_c, 1, 69, 0
3, 103200, Note_on_c, 1, 74, 100
3, 103542, Note_on_c, 1, 74, 0
3, 103560, Note_on_c, 1, 69, 100
3, 103674, Note_on_c, 1, 69, 0
3, 103680, Note_on_c, 1, 72, 100
3, 104136, Note_on_c, 1, 72, 0
3, 104160, Note_on_c, 1, 71, 100
3, 104502, Note_on_c, 1, 71, 0
3, 104520, Note_on_c, 1, 72, 100
3, 104634, Note_on_c, 1, 72, 0
3, 104640, Note_on_c, 1, 69, 100
3, 105096, Note_on_c, 1, 69, 0
3, 105120, Note_on_c, 1, 67, 100
3, 105576, Note_on_c, 1, 67, 0
3, 105600, Note_on_c, 1, 72, 100
3, 105650, Control_c, 1, 7, 103
3, 105751, Control_c, 1, 7, 104
3, 105852, Control_c, 1, 7, 105
3, 105927, Control_c, 1, 7, 106
3, 106028, Control_c, 1, 7, 107
3, 106056, Note_on_c, 1, 72, 0
3, 106080, Note_on_c, 1, 74, 100
3, 106129, Control_c, 1, 7, 108
3, 106230, Control_c, 1, 7, 109
3, 106306, Control_c, 1, 7, 110
3, 106308, Note_on_c, 1, 74, 0
3, 106320, Note_on_c, 1, 76, 100
3, 106406, Control_c, 1, 7, 111
3, 106548, Note_on_c, 1, 76, 0
3, 106560, Note_on_c, 1, 67, 100
3, 107016, Note_on_c, 1, 67, 0
3, 107040, Note_on_c, 1, 69, 100
3, 107496, Note_on_c, 1, 69, 0
3, 107520, Note_on_c, 1, 71, 100
3, 107976, Note_on_c, 1, 71, 0
3, 108000, Note_on_c, 1, 72, 100
3, 108025, Control_c, 1, 7, 110
3, 108075, Control_c, 1, 7, 109
3, 108101, Control_c, 1, 7, 108
3, 108151, Control_c, 1, 7, 107
3, 108202, Control_c, 1, 7, 106
3, 108227, Control_c, 1, 7, 105
3, 108228, Note_on_c, 1, 72, 0
3, 108240, Note_on_c, 1, 71, 100
3, 108277, Control_c, 1, 7, 104
3, 108302, Control_c, 1, 7, 103
3, 108353, Control_c, 1, 7, 102
3, 108468, Note_on_c, 1, 71, 0
3, 108480, Note_on_c, 1, 69, 100
3, 108936, Note_on_c, 1, 69, 0
3, 108960, Note_on_c, 1, 71, 100
3, 109188, Note_on_c, 1, 71, 0
3, 109440, Note_on_c, 1, 68, 100
3, 109896, Note_on_c, 1, 68, 0
3, 109920, Note_on_c, 1, 64, 100
3, 110148, Note_on_c, 1, 64, 0
3, 110160, Note_on_c, 1, 64, 100
3, 110388, Note_on_c, 1, 64, 0
3, 110400, Note_on_c, 1, 69, 100
3, 110856, Note_on_c, 1, 69, 0
3, 110880, Note_on_c, 1, 74, 100
3, 111108, Note_on_c, 1, 74, 0
3, 111120, Note_on_c, 1, 69, 100
3, 111348, Note_on_c, 1, 69, 0
3, 111360, Note_on_c, 1, 72, 100
3, 111410, Control_c, 1, 7, 103
3, 111461, Control_c, 1, 7, 104
3, 111536, Control_c, 1, 7, 105
3, 111587, Control_c, 1, 7, 106
3, 111662, Control_c, 1, 7, 107
3, 111738, Control_c, 1, 7, 108
3, 111788, Control_c, 1, 7, 109
3, 111816, Note_on_c, 1, 72, 0
3, 111840, Note_on_c, 1, 71, 100
3, 111864, Control_c, 1, 7, 110
3, 111914, Control_c, 1, 7, 111
3, 111990, Control_c, 1, 7, 112
3, 112040, Control_c, 1, 7, 113
3, 112068, Note_on_c, 1, 71, 0
3, 112080, Note_on_c, 1, 69, 100
3, 112116, Control_c, 1, 7, 114
3, 112191, Control_c, 1, 7, 115
3, 112308, Note_on_c, 1, 69, 0
3, 112320, Note_on_c, 1, 76, 100
3, 113508, Note_on_c, 1, 76, 0
3, 113520, Control_c, 1, 7, 110
3, 113520, Note_on_c, 1, 77, 100
3, 113545, Control_c, 1, 7, 109
3, 113595, Control_c, 1, 7, 108
3, 113646, Control_c, 1, 7, 107
3, 113696, Control_c, 1, 7, 106
3, 113747, Control_c, 1, 7, 105
3, 113748, Note_on_c, 1, 77, 0
3, 113760, Note_on_c, 1, 76, 100
3, 113797, Control_c, 1, 7, 104
3, 113847, Control_c, 1, 7, 103
3, 113898, Control_c, 1, 7, 102
3, 113948, Control_c, 1, 7, 101
3, 113988, Note_on_c, 1, 76, 0
3, 113999, Control_c, 1, 7, 100
3, 114000, Note_on_c, 1, 75, 100
3, 114049, Control_c, 1, 7, 99
3, 114099, Control_c, 1, 7, 98
3, 114228, Note_on_c, 1, 75, 0
3, 114240, Note_on_c, 1, 76, 100
3, 114265, Control_c, 1, 7, 99
3, 114315, Control_c, 1, 7, 100
3, 114366, Control_c, 1, 7, 101
3, 114416, Control_c, 1, 7, 102
3, 114467, Control_c, 1, 7, 103
3, 114468, Note_on_c, 1, 76, 0
3, 114480, Note_on_c, 1, 71, 100
3, 114492, Control_c, 1, 7, 104
3, 114542, Control_c, 1, 7, 105
3, 114593, Control_c, 1, 7, 106
3, 114708, Note_on_c, 1, 71, 0
3, 114720, Note_on_c, 1, 74, 100
3, 114745, Control_c, 1, 7, 105
3, 114795, Control_c, 1, 7, 104
3, 114846, Control_c, 1, 7, 103
3, 114896, Control_c, 1, 7, 102
3, 114947, Control_c, 1, 7, 101
3, 114948, Note_on_c, 1, 74, 0
3, 114960, Note_on_c, 1, 72, 100
3, 114972, Control_c, 1, 7, 100
3, 115022, Control_c, 1, 7, 99
3, 115073, Control_c, 1, 7, 98
3, 115188, Note_on_c, 1, 72, 0
3, 115200, Note_on_c, 1, 69, 100
3, 115656, Note_on_c, 1, 69, 0
3, 121920, End_track
0, 0, End_of_file