0, 0, Header, 1, 10, 480
1, 0, Start_track
1, 0, Title_t, "Chopin Prelude  No. 14, Opus 28"
1, 0, Copyright_t, "Copyright \251 2002 by Bernd Krueger "
1, 0, Text_t, "Frederic Chopin"
1, 0, Text_t, "Lento"
1, 0, Text_t, "Fertiggestellt am  25.09.2002\012"
1, 0, Text_t, "Normierung: 23.12.2002\012"
1, 0, Text_t, "Dauer: 0:30 Minuten\012"
1, 0, SMPTE_offset, 96, 0, 3, 0, 0
1, 0, Time_signature, 4, 2, 24, 8
1, 0, Key_signature, -6, "major"
1, 0, Tempo, 383387
1, 80, Tempo, 382166
1, 160, Tempo, 380952
1, 240, Tempo, 379747
1, 320, Tempo, 378549
1, 400, Tempo, 377358
1, 440, Tempo, 380952
1, 520, Tempo, 373832
1, 600, Tempo, 375000
1, 640, Tempo, 376176
1, 680, Tempo, 377358
1, 760, Tempo, 379747
1, 800, Tempo, 382166
1, 840, Tempo, 385852
1, 880, Tempo, 389610
1, 920, Tempo, 393443
1, 1000, Tempo, 379747
1, 1080, Tempo, 378549
1, 1160, Tempo, 377358
1, 1240, Tempo, 376176
1, 1320, Tempo, 375000
1, 1400, Tempo, 373832
1, 1480, Tempo, 373832
1, 1560, Tempo, 375000
1, 1640, Tempo, 376176
1, 1720, Tempo, 376176
1, 1760, Tempo, 378549
1, 1800, Tempo, 380952
1, 1840, Tempo, 383387
1, 1880, Tempo, 387097
1, 1920, Tempo, 378549
1, 2000, Tempo, 377358
1, 2080, Tempo, 376176
1, 2120, Tempo, 375000
1, 2200, Tempo, 373832
1, 2240, Tempo, 372671
1, 2320, Tempo, 371517
1, 2360, Tempo, 370370
1, 2480, Tempo, 371517
1, 2560, Tempo, 372671
1, 2680, Tempo, 372671
1, 2720, Tempo, 375000
1, 2760, Tempo, 377358
1, 2800, Tempo, 379747
1, 2840, Tempo, 383387
1, 2880, Tempo, 377358
1, 3000, Tempo, 376176
1, 3080, Tempo, 375000
1, 3200, Tempo, 373832
1, 3280, Tempo, 372671
1, 3360, Tempo, 371517
1, 3400, Tempo, 372671
1, 3440, Tempo, 373832
1, 3480, Tempo, 375000
1, 3520, Tempo, 376176
1, 3560, Tempo, 377358
1, 3600, Tempo, 378549
1, 3640, Tempo, 379747
1, 3680, Tempo, 380952
1, 3720, Tempo, 382166
1, 3760, Tempo, 384615
1, 3840, Tempo, 382166
1, 3960, Tempo, 380952
1, 4040, Tempo, 379747
1, 4120, Tempo, 378549
1, 4200, Tempo, 377358
1, 4280, Tempo, 376176
1, 4320, Tempo, 370370
1, 4520, Tempo, 369231
1, 4720, Tempo, 368098
1, 4800, Tempo, 369231
1, 4880, Tempo, 370370
1, 4920, Tempo, 371517
1, 4960, Tempo, 372671
1, 5040, Tempo, 373832
1, 5080, Tempo, 375000
1, 5120, Tempo, 376176
1, 5160, Tempo, 380952
1, 5200, Tempo, 385852
1, 5280, Tempo, 377358
1, 5400, Tempo, 376176
1, 5480, Tempo, 375000
1, 5560, Tempo, 373832
1, 5600, Tempo, 376176
1, 5640, Tempo, 378549
1, 5680, Tempo, 380952
1, 5720, Tempo, 383387
1, 5760, Tempo, 387097
1, 5800, Tempo, 378549
1, 5840, Tempo, 378549
1, 5960, Tempo, 377358
1, 6040, Tempo, 376176
1, 6120, Tempo, 375000
1, 6200, Tempo, 373832
1, 6240, Tempo, 368098
1, 6640, Tempo, 366972
1, 6680, Tempo, 366972
1, 6760, Tempo, 368098
1, 6800, Tempo, 369231
1, 6880, Tempo, 370370
1, 6920, Tempo, 371517
1, 7000, Tempo, 372671
1, 7040, Tempo, 373832
1, 7080, Tempo, 375000
1, 7120, Tempo, 384615
1, 7240, Tempo, 376176
1, 7320, Tempo, 375000
1, 7400, Tempo, 373832
1, 7480, Tempo, 372671
1, 7560, Tempo, 371517
1, 7640, Tempo, 370370
1, 7680, Tempo, 373832
1, 7760, Tempo, 372671
1, 7840, Tempo, 371517
1, 7920, Tempo, 370370
1, 8000, Tempo, 369231
1, 8080, Tempo, 368098
1, 8120, Tempo, 366972
1, 8200, Tempo, 368098
1, 8240, Tempo, 369231
1, 8280, Tempo, 370370
1, 8320, Tempo, 371517
1, 8360, Tempo, 372671
1, 8400, Tempo, 373832
1, 8440, Tempo, 375000
1, 8480, Tempo, 376176
1, 8520, Tempo, 377358
1, 8600, Tempo, 372671
1, 8720, Tempo, 371517
1, 8840, Tempo, 370370
1, 8960, Tempo, 369231
1, 9080, Tempo, 368098
1, 9160, Tempo, 369231
1, 9240, Tempo, 370370
1, 9280, Tempo, 371517
1, 9360, Tempo, 372671
1, 9400, Tempo, 373832
1, 9480, Tempo, 375000
1, 9520, Tempo, 376176
1, 9600, Tempo, 375000
1, 9640, Tempo, 376176
1, 9720, Tempo, 375000
1, 9800, Tempo, 373832
1, 9840, Tempo, 372671
1, 9920, Tempo, 371517
1, 9960, Tempo, 370370
1, 10040, Tempo, 369231
1, 10080, Tempo, 368098
1, 10160, Tempo, 369231
1, 10200, Tempo, 370370
1, 10240, Tempo, 371517
1, 10280, Tempo, 372671
1, 10320, Tempo, 373832
1, 10360, Tempo, 375000
1, 10400, Tempo, 376176
1, 10440, Tempo, 377358
1, 10480, Tempo, 378549
1, 10520, Tempo, 379747
1, 10560, Tempo, 377358
1, 10640, Tempo, 376176
1, 10680, Tempo, 375000
1, 10760, Tempo, 373832
1, 10800, Tempo, 372671
1, 10880, Tempo, 371517
1, 10920, Tempo, 370370
1, 11000, Tempo, 369231
1, 11040, Tempo, 368098
1, 11120, Tempo, 369231
1, 11160, Tempo, 370370
1, 11240, Tempo, 371517
1, 11280, Tempo, 372671
1, 11360, Tempo, 373832
1, 11400, Tempo, 375000
1, 11480, Tempo, 371517
1, 11600, Tempo, 370370
1, 11720, Tempo, 369231
1, 11800, Tempo, 368098
1, 11920, Tempo, 366972
1, 12000, Tempo, 365854
1, 12080, Tempo, 363636
1, 12160, Tempo, 364742
1, 12240, Tempo, 365854
1, 12320, Tempo, 366972
1, 12400, Tempo, 368098
1, 12480, Tempo, 369231
1, 12560, Tempo, 370370
1, 12640, Tempo, 371517
1, 12720, Tempo, 372671
1, 13440, Tempo, 371517
1, 13560, Tempo, 370370
1, 13640, Tempo, 369231
1, 13760, Tempo, 368098
1, 13840, Tempo, 366972
1, 13920, Tempo, 365854
1, 14080, Tempo, 366972
1, 14200, Tempo, 368098
1, 14320, Tempo, 369231
1, 14480, Tempo, 370370
1, 14600, Tempo, 371517
1, 14720, Tempo, 372671
1, 14840, Tempo, 373832
1, 15080, Tempo, 373832
1, 15120, Tempo, 376176
1, 15160, Tempo, 378549
1, 15200, Tempo, 380952
1, 15240, Tempo, 383387
1, 15280, Tempo, 385852
1, 15320, Tempo, 388350
1, 15360, Tempo, 369231
1, 15440, Tempo, 368098
1, 15480, Tempo, 366972
1, 15560, Tempo, 365854
1, 15600, Tempo, 364742
1, 15680, Tempo, 363636
1, 15720, Tempo, 362538
1, 15800, Tempo, 361446
1, 15840, Tempo, 360360
1, 15880, Tempo, 361446
1, 16000, Tempo, 362538
1, 16120, Tempo, 363636
1, 16240, Tempo, 364742
1, 16360, Tempo, 365854
1, 16480, Tempo, 366972
1, 16600, Tempo, 368098
1, 16720, Tempo, 369231
1, 16800, Tempo, 370370
1, 17000, Tempo, 369231
1, 17040, Tempo, 371517
1, 17080, Tempo, 373832
1, 17120, Tempo, 376176
1, 17160, Tempo, 378549
1, 17200, Tempo, 380952
1, 17240, Tempo, 384615
1, 17280, Tempo, 369231
1, 17360, Tempo, 368098
1, 17440, Tempo, 366972
1, 17520, Tempo, 365854
1, 17600, Tempo, 364742
1, 17680, Tempo, 363636
1, 17760, Tempo, 362538
1, 17920, Tempo, 363636
1, 18080, Tempo, 364742
1, 18240, Tempo, 365854
1, 18400, Tempo, 366972
1, 18560, Tempo, 368098
1, 18680, Tempo, 369231
1, 19160, Tempo, 364742
1, 19240, Tempo, 362538
1, 19400, Tempo, 361446
1, 19560, Tempo, 360360
1, 19680, Tempo, 359281
1, 19840, Tempo, 358209
1, 20000, Tempo, 357143
1, 20120, Tempo, 356083
1, 20240, Tempo, 357143
1, 20320, Tempo, 358209
1, 20440, Tempo, 359281
1, 20520, Tempo, 360360
1, 20640, Tempo, 361446
1, 20720, Tempo, 362538
1, 20800, Tempo, 363636
1, 20880, Tempo, 363636
1, 20920, Tempo, 364742
1, 21040, Tempo, 368098
1, 21120, Tempo, 359475
1, 21200, Tempo, 358337
1, 21280, Tempo, 357228
1, 21320, Tempo, 356104
1, 21400, Tempo, 354967
1, 21440, Tempo, 353878
1, 21520, Tempo, 352775
1, 21560, Tempo, 351700
1, 21680, Tempo, 352775
1, 21760, Tempo, 353878
1, 21880, Tempo, 353878
1, 21920, Tempo, 356104
1, 21960, Tempo, 358337
1, 22000, Tempo, 360620
1, 22040, Tempo, 364056
1, 22080, Tempo, 358337
1, 22200, Tempo, 357228
1, 22280, Tempo, 356104
1, 22400, Tempo, 354967
1, 22480, Tempo, 353878
1, 22560, Tempo, 352775
1, 22600, Tempo, 353878
1, 22640, Tempo, 354967
1, 22680, Tempo, 356104
1, 22720, Tempo, 357228
1, 22760, Tempo, 358337
1, 22800, Tempo, 359475
1, 22840, Tempo, 360620
1, 22880, Tempo, 361751
1, 22920, Tempo, 362911
1, 22960, Tempo, 365230
1, 23040, Tempo, 362911
1, 23160, Tempo, 361751
1, 23240, Tempo, 360620
1, 23320, Tempo, 359475
1, 23400, Tempo, 358337
1, 23480, Tempo, 357228
1, 23520, Tempo, 351700
1, 23720, Tempo, 350611
1, 23920, Tempo, 349528
1, 24000, Tempo, 350611
1, 24080, Tempo, 351700
1, 24120, Tempo, 352775
1, 24160, Tempo, 353878
1, 24240, Tempo, 354967
1, 24280, Tempo, 356104
1, 24320, Tempo, 357228
1, 24360, Tempo, 361751
1, 24400, Tempo, 366412
1, 24480, Tempo, 358337
1, 24600, Tempo, 357228
1, 24680, Tempo, 356104
1, 24760, Tempo, 354967
1, 24800, Tempo, 357228
1, 24960, Tempo, 362911
1, 25080, Tempo, 361751
1, 25160, Tempo, 360620
1, 25240, Tempo, 359475
1, 25320, Tempo, 358337
1, 25400, Tempo, 357228
1, 25440, Tempo, 351700
1, 25640, Tempo, 350611
1, 25840, Tempo, 349528
1, 25920, Tempo, 350611
1, 26000, Tempo, 351700
1, 26040, Tempo, 352775
1, 26080, Tempo, 353878
1, 26160, Tempo, 354967
1, 26200, Tempo, 356104
1, 26240, Tempo, 357228
1, 26280, Tempo, 361751
1, 26320, Tempo, 366412
1, 26400, Tempo, 358337
1, 26520, Tempo, 357228
1, 26600, Tempo, 356104
1, 26680, Tempo, 354967
1, 26720, Tempo, 357228
1, 26721, Tempo, 376176
1, 26880, Tempo, 362538
1, 26960, Tempo, 361446
1, 27040, Tempo, 360360
1, 27080, Tempo, 359281
1, 27160, Tempo, 358209
1, 27200, Tempo, 357143
1, 27280, Tempo, 356083
1, 27320, Tempo, 355030
1, 27400, Tempo, 356083
1, 27480, Tempo, 357143
1, 27560, Tempo, 358209
1, 27640, Tempo, 359281
1, 27680, Tempo, 360360
1, 27720, Tempo, 365854
1, 27760, Tempo, 372671
1, 27800, Tempo, 361446
1, 27920, Tempo, 360360
1, 28000, Tempo, 359281
1, 28120, Tempo, 358209
1, 28200, Tempo, 357143
1, 28280, Tempo, 356083
1, 28320, Tempo, 357143
1, 28360, Tempo, 358209
1, 28400, Tempo, 359281
1, 28440, Tempo, 360360
1, 28480, Tempo, 361446
1, 28520, Tempo, 362538
1, 28560, Tempo, 363636
1, 28600, Tempo, 364742
1, 28640, Tempo, 365854
1, 28680, Tempo, 368098
1, 28800, Tempo, 365854
1, 28880, Tempo, 364742
1, 28960, Tempo, 363636
1, 29040, Tempo, 362538
1, 29120, Tempo, 361446
1, 29200, Tempo, 360360
1, 29280, Tempo, 359281
1, 29360, Tempo, 360360
1, 29400, Tempo, 361446
1, 29440, Tempo, 362538
1, 29480, Tempo, 363636
1, 29520, Tempo, 364742
1, 29560, Tempo, 365854
1, 29600, Tempo, 366972
1, 29640, Tempo, 368098
1, 29680, Tempo, 369231
1, 29720, Tempo, 370370
1, 29760, Tempo, 369231
1, 29880, Tempo, 368098
1, 29960, Tempo, 366972
1, 30080, Tempo, 365854
1, 30160, Tempo, 364742
1, 30240, Tempo, 363636
1, 30320, Tempo, 364742
1, 30400, Tempo, 365854
1, 30480, Tempo, 366972
1, 30560, Tempo, 368098
1, 30640, Tempo, 369231
1, 30680, Tempo, 370370
1, 30720, Tempo, 373832
1, 30840, Tempo, 372671
1, 30920, Tempo, 371517
1, 31000, Tempo, 370370
1, 31080, Tempo, 369231
1, 31160, Tempo, 368098
1, 31280, Tempo, 369231
1, 31360, Tempo, 370370
1, 31480, Tempo, 371517
1, 31560, Tempo, 372671
1, 31640, Tempo, 373832
1, 31680, Tempo, 377358
1, 31760, Tempo, 376176
1, 31840, Tempo, 375000
1, 31920, Tempo, 373832
1, 31960, Tempo, 372671
1, 32040, Tempo, 371517
1, 32120, Tempo, 370370
1, 32160, Tempo, 369231
1, 32240, Tempo, 370370
1, 32320, Tempo, 371517
1, 32360, Tempo, 372671
1, 32440, Tempo, 373832
1, 32520, Tempo, 375000
1, 32560, Tempo, 376176
1, 32680, Tempo, 378549
1, 32760, Tempo, 377358
1, 32840, Tempo, 376176
1, 32920, Tempo, 375000
1, 33000, Tempo, 373832
1, 33080, Tempo, 372671
1, 33200, Tempo, 373832
1, 33280, Tempo, 375000
1, 33360, Tempo, 376176
1, 33440, Tempo, 377358
1, 33520, Tempo, 378549
1, 33600, Tempo, 382166
1, 33602, Tempo, 389610
1, 33654, Tempo, 388350
1, 33710, Tempo, 387097
1, 33750, Tempo, 385852
1, 33802, Tempo, 384615
1, 33842, Tempo, 383387
1, 33894, Tempo, 382166
1, 33950, Tempo, 380952
1, 33990, Tempo, 379747
1, 34042, Tempo, 378549
1, 34082, Tempo, 377358
1, 34092, Tempo, 380952
1, 34120, Tempo, 382166
1, 34132, Tempo, 383387
1, 34144, Tempo, 384615
1, 34172, Tempo, 385852
1, 34184, Tempo, 387097
1, 34200, Tempo, 388350
1, 34212, Tempo, 389610
1, 34240, Tempo, 390879
1, 34252, Tempo, 392157
1, 34264, Tempo, 393443
1, 34292, Tempo, 394737
1, 34304, Tempo, 396040
1, 34320, Tempo, 397351
1, 34332, Tempo, 398671
1, 34360, Tempo, 400000
1, 34372, Tempo, 401338
1, 34384, Tempo, 402685
1, 34400, Tempo, 404040
1, 34412, Tempo, 409556
1, 34424, Tempo, 419580
1, 34440, Tempo, 430108
1, 34452, Tempo, 441176
1, 34464, Tempo, 454545
1, 34480, Tempo, 466926
1, 34492, Tempo, 480000
1, 34504, Tempo, 493827
1, 34520, Tempo, 508475
1, 34532, Tempo, 524017
1, 34544, Tempo, 542986
1, 34560, Tempo, 442804
1, 36480, Tempo, 461538
1, 36480, End_track
2, 0, Start_track
2, 0, MIDI_port, 0
2, 0, Title_t, "Piano right"
2, 0, Program_c, 0, 0
2, 0, Control_c, 0, 7, 100
2, 0, Control_c, 0, 10, 64
2, 0, Note_on_c, 0, 51, 50
2, 0, Control_c, 0, 64, 0
2, 0, Text_t, "bdca426d104a26ac9dcb070447587523"
2, 0, Control_c, 0, 91, 127
2, 160, Note_on_c, 0, 51, 0
2, 160, Note_on_c, 0, 58, 45
2, 320, Note_on_c, 0, 58, 0
2, 320, Note_on_c, 0, 54, 45
2, 480, Note_on_c, 0, 54, 0
2, 480, Note_on_c, 0, 59, 56
2, 640, Note_on_c, 0, 59, 0
2, 640, Note_on_c, 0, 51, 50
2, 800, Note_on_c, 0, 51, 0
2, 800, Note_on_c, 0, 59, 52
2, 960, Note_on_c, 0, 59, 0
2, 960, Note_on_c, 0, 50, 59
2, 1120, Note_on_c, 0, 50, 0
2, 1120, Note_on_c, 0, 59, 48
2, 1280, Note_on_c, 0, 59, 0
2, 1280, Note_on_c, 0, 53, 48
2, 1440, Note_on_c, 0, 53, 0
2, 1440, Note_on_c, 0, 58, 51
2, 1600, Note_on_c, 0, 58, 0
2, 1600, Note_on_c, 0, 50, 45
2, 1760, Note_on_c, 0, 50, 0
2, 1760, Note_on_c, 0, 58, 44
2, 1920, Note_on_c, 0, 58, 0
2, 1920, Note_on_c, 0, 51, 52
2, 2080, Note_on_c, 0, 51, 0
2, 2080, Note_on_c, 0, 58, 47
2, 2240, Note_on_c, 0, 58, 0
2, 2240, Note_on_c, 0, 54, 47
2, 2400, Note_on_c, 0, 54, 0
2, 2400, Note_on_c, 0, 59, 58
2, 2560, Note_on_c, 0, 59, 0
2, 2560, Note_on_c, 0, 51, 52
2, 2720, Note_on_c, 0, 51, 0
2, 2720, Note_on_c, 0, 59, 55
2, 2880, Note_on_c, 0, 59, 0
2, 2880, Note_on_c, 0, 50, 63
2, 3040, Note_on_c, 0, 50, 0
2, 3040, Note_on_c, 0, 59, 55
2, 3200, Note_on_c, 0, 59, 0
2, 3200, Note_on_c, 0, 53, 50
2, 3360, Note_on_c, 0, 53, 0
2, 3360, Note_on_c, 0, 58, 57
2, 3520, Note_on_c, 0, 58, 0
2, 3520, Note_on_c, 0, 50, 50
2, 3680, Note_on_c, 0, 50, 0
2, 3680, Note_on_c, 0, 58, 47
2, 3840, Note_on_c, 0, 58, 0
2, 3840, Note_on_c, 0, 51, 55
2, 4000, Note_on_c, 0, 51, 0
2, 4000, Note_on_c, 0, 58, 49
2, 4160, Note_on_c, 0, 58, 0
2, 4160, Note_on_c, 0, 54, 49
2, 4320, Note_on_c, 0, 54, 0
2, 4320, Note_on_c, 0, 59, 60
2, 4480, Note_on_c, 0, 59, 0
2, 4480, Note_on_c, 0, 51, 55
2, 4640, Note_on_c, 0, 51, 0
2, 4640, Note_on_c, 0, 60, 57
2, 4800, Note_on_c, 0, 60, 0
2, 4800, Note_on_c, 0, 53, 61
2, 4960, Note_on_c, 0, 53, 0
2, 4960, Note_on_c, 0, 60, 57
2, 5120, Note_on_c, 0, 60, 0
2, 5120, Note_on_c, 0, 56, 53
2, 5280, Note_on_c, 0, 56, 0
2, 5286, Note_on_c, 0, 63, 68
2, 5446, Note_on_c, 0, 63, 0
2, 5451, Note_on_c, 0, 57, 60
2, 5600, Note_on_c, 0, 61, 53
2, 5611, Note_on_c, 0, 57, 0
2, 5760, Note_on_c, 0, 61, 0
2, 5760, Note_on_c, 0, 54, 57
2, 5920, Note_on_c, 0, 54, 0
2, 5920, Note_on_c, 0, 61, 51
2, 6080, Note_on_c, 0, 61, 0
2, 6080, Note_on_c, 0, 58, 51
2, 6240, Note_on_c, 0, 58, 0
2, 6240, Note_on_c, 0, 63, 62
2, 6400, Note_on_c, 0, 63, 0
2, 6400, Note_on_c, 0, 54, 57
2, 6560, Note_on_c, 0, 54, 0
2, 6560, Note_on_c, 0, 64, 59
2, 6720, Note_on_c, 0, 64, 0
2, 6720, Note_on_c, 0, 57, 64
2, 6880, Note_on_c, 0, 57, 0
2, 6880, Note_on_c, 0, 64, 57
2, 7040, Note_on_c, 0, 64, 0
2, 7040, Note_on_c, 0, 60, 57
2, 7200, Note_on_c, 0, 60, 0
2, 7200, Note_on_c, 0, 66, 70
2, 7360, Note_on_c, 0, 66, 0
2, 7360, Note_on_c, 0, 61, 56
2, 7520, Note_on_c, 0, 61, 0
2, 7520, Note_on_c, 0, 65, 52
2, 7680, Note_on_c, 0, 65, 0
2, 7680, Note_on_c, 0, 58, 59
2, 7840, Note_on_c, 0, 58, 0
2, 7840, Note_on_c, 0, 65, 53
2, 8000, Note_on_c, 0, 65, 0
2, 8000, Note_on_c, 0, 61, 53
2, 8160, Note_on_c, 0, 61, 0
2, 8160, Note_on_c, 0, 66, 64
2, 8320, Note_on_c, 0, 66, 0
2, 8320, Note_on_c, 0, 58, 59
2, 8480, Note_on_c, 0, 58, 0
2, 8480, Note_on_c, 0, 66, 61
2, 8640, Note_on_c, 0, 66, 0
2, 8640, Note_on_c, 0, 57, 71
2, 8800, Note_on_c, 0, 57, 0
2, 8800, Note_on_c, 0, 66, 63
2, 8960, Note_on_c, 0, 66, 0
2, 8960, Note_on_c, 0, 60, 59
2, 9120, Note_on_c, 0, 60, 0
2, 9120, Note_on_c, 0, 65, 61
2, 9280, Note_on_c, 0, 65, 0
2, 9280, Note_on_c, 0, 57, 57
2, 9440, Note_on_c, 0, 57, 0
2, 9440, Note_on_c, 0, 65, 56
2, 9600, Note_on_c, 0, 65, 0
2, 9600, Note_on_c, 0, 58, 61
2, 9760, Note_on_c, 0, 58, 0
2, 9760, Note_on_c, 0, 65, 56
2, 9920, Note_on_c, 0, 65, 0
2, 9920, Note_on_c, 0, 61, 56
2, 10080, Note_on_c, 0, 61, 0
2, 10080, Note_on_c, 0, 66, 67
2, 10240, Note_on_c, 0, 66, 0
2, 10240, Note_on_c, 0, 57, 61
2, 10400, Note_on_c, 0, 57, 0
2, 10400, Note_on_c, 0, 66, 63
2, 10560, Note_on_c, 0, 66, 0
2, 10560, Note_on_c, 0, 56, 72
2, 10720, Note_on_c, 0, 56, 0
2, 10720, Note_on_c, 0, 66, 67
2, 10880, Note_on_c, 0, 66, 0
2, 10880, Note_on_c, 0, 62, 59
2, 11040, Note_on_c, 0, 62, 0
2, 11040, Note_on_c, 0, 65, 64
2, 11200, Note_on_c, 0, 65, 0
2, 11200, Note_on_c, 0, 59, 61
2, 11360, Note_on_c, 0, 59, 0
2, 11360, Note_on_c, 0, 65, 58
2, 11520, Note_on_c, 0, 65, 0
2, 11520, Note_on_c, 0, 56, 78
2, 11680, Note_on_c, 0, 56, 0
2, 11680, Note_on_c, 0, 64, 67
2, 11840, Note_on_c, 0, 64, 0
2, 11840, Note_on_c, 0, 59, 67
2, 12000, Note_on_c, 0, 59, 0
2, 12000, Note_on_c, 0, 62, 73
2, 12160, Note_on_c, 0, 62, 0
2, 12160, Note_on_c, 0, 56, 61
2, 12320, Note_on_c, 0, 56, 0
2, 12320, Note_on_c, 0, 62, 63
2, 12480, Note_on_c, 0, 62, 0
2, 12480, Note_on_c, 0, 55, 67
2, 12640, Note_on_c, 0, 55, 0
2, 12640, Note_on_c, 0, 62, 61
2, 12800, Note_on_c, 0, 62, 0
2, 12800, Note_on_c, 0, 58, 61
2, 12960, Note_on_c, 0, 58, 0
2, 12960, Note_on_c, 0, 65, 63
2, 13120, Note_on_c, 0, 65, 0
2, 13120, Note_on_c, 0, 55, 70
2, 13280, Note_on_c, 0, 55, 0
2, 13280, Note_on_c, 0, 63, 69
2, 13440, Note_on_c, 0, 63, 0
2, 13440, Note_on_c, 0, 53, 77
2, 13600, Note_on_c, 0, 53, 0
2, 13600, Note_on_c, 0, 61, 68
2, 13760, Note_on_c, 0, 61, 0
2, 13760, Note_on_c, 0, 55, 68
2, 13920, Note_on_c, 0, 55, 0
2, 13920, Note_on_c, 0, 59, 74
2, 14080, Note_on_c, 0, 59, 0
2, 14080, Note_on_c, 0, 53, 62
2, 14240, Note_on_c, 0, 53, 0
2, 14240, Note_on_c, 0, 59, 64
2, 14400, Note_on_c, 0, 59, 0
2, 14400, Note_on_c, 0, 52, 68
2, 14560, Note_on_c, 0, 52, 0
2, 14560, Note_on_c, 0, 59, 62
2, 14720, Note_on_c, 0, 59, 0
2, 14720, Note_on_c, 0, 55, 62
2, 14880, Note_on_c, 0, 55, 0
2, 14880, Note_on_c, 0, 61, 64
2, 15040, Note_on_c, 0, 61, 0
2, 15040, Note_on_c, 0, 52, 71
2, 15200, Note_on_c, 0, 52, 0
2, 15200, Note_on_c, 0, 60, 73
2, 15360, Note_on_c, 0, 60, 0
2, 15360, Note_on_c, 0, 54, 79
2, 15520, Note_on_c, 0, 54, 0
2, 15520, Note_on_c, 0, 62, 68
2, 15680, Note_on_c, 0, 62, 0
2, 15680, Note_on_c, 0, 57, 69
2, 15840, Note_on_c, 0, 57, 0
2, 15840, Note_on_c, 0, 60, 75
2, 16000, Note_on_c, 0, 60, 0
2, 16000, Note_on_c, 0, 54, 63
2, 16160, Note_on_c, 0, 54, 0
2, 16160, Note_on_c, 0, 60, 66
2, 16320, Note_on_c, 0, 60, 0
2, 16320, Note_on_c, 0, 53, 69
2, 16480, Note_on_c, 0, 53, 0
2, 16480, Note_on_c, 0, 60, 63
2, 16640, Note_on_c, 0, 60, 0
2, 16640, Note_on_c, 0, 56, 63
2, 16800, Note_on_c, 0, 56, 0
2, 16800, Note_on_c, 0, 63, 66
2, 16960, Note_on_c, 0, 63, 0
2, 16960, Note_on_c, 0, 53, 73
2, 17120, Note_on_c, 0, 53, 0
2, 17120, Note_on_c, 0, 61, 74
2, 17280, Note_on_c, 0, 61, 0
2, 17280, Note_on_c, 0, 51, 81
2, 17440, Note_on_c, 0, 51, 0
2, 17440, Note_on_c, 0, 59, 70
2, 17600, Note_on_c, 0, 59, 0
2, 17600, Note_on_c, 0, 53, 70
2, 17760, Note_on_c, 0, 53, 0
2, 17760, Note_on_c, 0, 57, 73
2, 17920, Note_on_c, 0, 57, 0
2, 17920, Note_on_c, 0, 51, 64
2, 18080, Note_on_c, 0, 51, 0
2, 18080, Note_on_c, 0, 57, 67
2, 18240, Note_on_c, 0, 57, 0
2, 18240, Note_on_c, 0, 50, 70
2, 18400, Note_on_c, 0, 50, 0
2, 18400, Note_on_c, 0, 57, 64
2, 18560, Note_on_c, 0, 57, 0
2, 18560, Note_on_c, 0, 53, 64
2, 18720, Note_on_c, 0, 53, 0
2, 18720, Note_on_c, 0, 58, 80
2, 18880, Note_on_c, 0, 58, 0
2, 18880, Note_on_c, 0, 54, 71
2, 19040, Note_on_c, 0, 54, 0
2, 19040, Note_on_c, 0, 58, 70
2, 19200, Note_on_c, 0, 58, 0
2, 19200, Note_on_c, 0, 51, 86
2, 19360, Note_on_c, 0, 51, 0
2, 19360, Note_on_c, 0, 58, 78
2, 19520, Note_on_c, 0, 58, 0
2, 19520, Note_on_c, 0, 54, 78
2, 19680, Note_on_c, 0, 54, 0
2, 19680, Note_on_c, 0, 59, 86
2, 19840, Note_on_c, 0, 59, 0
2, 19840, Note_on_c, 0, 54, 82
2, 20000, Note_on_c, 0, 54, 0
2, 20000, Note_on_c, 0, 59, 82
2, 20160, Note_on_c, 0, 59, 0
2, 20160, Note_on_c, 0, 50, 91
2, 20320, Note_on_c, 0, 50, 0
2, 20320, Note_on_c, 0, 59, 77
2, 20480, Note_on_c, 0, 59, 0
2, 20480, Note_on_c, 0, 53, 77
2, 20640, Note_on_c, 0, 53, 0
2, 20640, Note_on_c, 0, 58, 81
2, 20800, Note_on_c, 0, 58, 0
2, 20800, Note_on_c, 0, 50, 72
2, 20960, Note_on_c, 0, 50, 0
2, 20960, Note_on_c, 0, 58, 72
2, 21120, Note_on_c, 0, 58, 0
2, 21120, Note_on_c, 0, 51, 84
2, 21280, Note_on_c, 0, 51, 0
2, 21280, Note_on_c, 0, 58, 74
2, 21440, Note_on_c, 0, 58, 0
2, 21440, Note_on_c, 0, 54, 74
2, 21600, Note_on_c, 0, 54, 0
2, 21600, Note_on_c, 0, 59, 92
2, 21760, Note_on_c, 0, 59, 0
2, 21760, Note_on_c, 0, 55, 82
2, 21920, Note_on_c, 0, 55, 0
2, 21920, Note_on_c, 0, 59, 82
2, 22080, Note_on_c, 0, 59, 0
2, 22080, Note_on_c, 0, 50, 95
2, 22240, Note_on_c, 0, 50, 0
2, 22240, Note_on_c, 0, 59, 85
2, 22400, Note_on_c, 0, 59, 0
2, 22400, Note_on_c, 0, 54, 85
2, 22560, Note_on_c, 0, 54, 0
2, 22560, Note_on_c, 0, 58, 91
2, 22720, Note_on_c, 0, 58, 0
2, 22720, Note_on_c, 0, 53, 83
2, 22880, Note_on_c, 0, 53, 0
2, 22880, Note_on_c, 0, 58, 79
2, 23040, Note_on_c, 0, 58, 0
2, 23040, Note_on_c, 0, 51, 88
2, 23200, Note_on_c, 0, 51, 0
2, 23200, Note_on_c, 0, 58, 79
2, 23360, Note_on_c, 0, 58, 0
2, 23360, Note_on_c, 0, 54, 79
2, 23520, Note_on_c, 0, 54, 0
2, 23520, Note_on_c, 0, 59, 96
2, 23680, Note_on_c, 0, 59, 0
2, 23680, Note_on_c, 0, 51, 88
2, 23840, Note_on_c, 0, 51, 0
2, 23840, Note_on_c, 0, 59, 88
2, 24000, Note_on_c, 0, 59, 0
2, 24000, Note_on_c, 0, 53, 100
2, 24160, Note_on_c, 0, 53, 0
2, 24160, Note_on_c, 0, 61, 92
2, 24320, Note_on_c, 0, 61, 0
2, 24320, Note_on_c, 0, 57, 89
2, 24480, Note_on_c, 0, 57, 0
2, 24480, Note_on_c, 0, 61, 100
2, 24640, Note_on_c, 0, 61, 0
2, 24640, Note_on_c, 0, 53, 95
2, 24800, Note_on_c, 0, 53, 0
2, 24800, Note_on_c, 0, 61, 91
2, 24960, Note_on_c, 0, 61, 0
2, 24960, Note_on_c, 0, 54, 97
2, 25120, Note_on_c, 0, 54, 0
2, 25120, Note_on_c, 0, 61, 88
2, 25280, Note_on_c, 0, 61, 0
2, 25280, Note_on_c, 0, 57, 88
2, 25440, Note_on_c, 0, 57, 0
2, 25440, Note_on_c, 0, 62, 100
2, 25600, Note_on_c, 0, 62, 0
2, 25600, Note_on_c, 0, 54, 91
2, 25760, Note_on_c, 0, 54, 0
2, 25760, Note_on_c, 0, 62, 91
2, 25920, Note_on_c, 0, 62, 0
2, 25920, Note_on_c, 0, 58, 102
2, 26080, Note_on_c, 0, 58, 0
2, 26080, Note_on_c, 0, 63, 92
2, 26240, Note_on_c, 0, 63, 0
2, 26240, Note_on_c, 0, 54, 89
2, 26400, Note_on_c, 0, 54, 0
2, 26400, Note_on_c, 0, 64, 103
2, 26560, Note_on_c, 0, 64, 0
2, 26560, Note_on_c, 0, 55, 95
2, 26720, Note_on_c, 0, 55, 0
2, 26720, Note_on_c, 0, 65, 91
2, 26880, Note_on_c, 0, 65, 0
2, 26880, Note_on_c, 0, 56, 100
2, 27040, Note_on_c, 0, 56, 0
2, 27040, Note_on_c, 0, 59, 85
2, 27200, Note_on_c, 0, 59, 0
2, 27200, Note_on_c, 0, 54, 84
2, 27360, Note_on_c, 0, 54, 0
2, 27360, Note_on_c, 0, 59, 92
2, 27520, Note_on_c, 0, 59, 0
2, 27520, Note_on_c, 0, 53, 82
2, 27680, Note_on_c, 0, 53, 0
2, 27680, Note_on_c, 0, 59, 82
2, 27840, Note_on_c, 0, 59, 0
2, 27840, Note_on_c, 0, 51, 92
2, 28000, Note_on_c, 0, 51, 0
2, 28000, Note_on_c, 0, 56, 82
2, 28160, Note_on_c, 0, 56, 0
2, 28160, Note_on_c, 0, 50, 82
2, 28320, Note_on_c, 0, 50, 0
2, 28320, Note_on_c, 0, 54, 86
2, 28480, Note_on_c, 0, 54, 0
2, 28480, Note_on_c, 0, 51, 79
2, 28640, Note_on_c, 0, 51, 0
2, 28640, Note_on_c, 0, 54, 78
2, 28800, Note_on_c, 0, 54, 0
2, 28800, Note_on_c, 0, 44, 89
2, 28960, Note_on_c, 0, 44, 0
2, 28960, Note_on_c, 0, 54, 77
2, 29120, Note_on_c, 0, 54, 0
2, 29120, Note_on_c, 0, 51, 74
2, 29280, Note_on_c, 0, 51, 0
2, 29280, Note_on_c, 0, 54, 79
2, 29440, Note_on_c, 0, 54, 0
2, 29440, Note_on_c, 0, 44, 70
2, 29600, Note_on_c, 0, 44, 0
2, 29600, Note_on_c, 0, 54, 70
2, 29760, Note_on_c, 0, 54, 0
2, 29760, Note_on_c, 0, 46, 78
2, 29920, Note_on_c, 0, 46, 0
2, 29920, Note_on_c, 0, 54, 69
2, 30080, Note_on_c, 0, 54, 0
2, 30080, Note_on_c, 0, 51, 68
2, 30240, Note_on_c, 0, 51, 0
2, 30240, Note_on_c, 0, 54, 72
2, 30400, Note_on_c, 0, 54, 0
2, 30400, Note_on_c, 0, 46, 63
2, 30560, Note_on_c, 0, 46, 0
2, 30560, Note_on_c, 0, 54, 62
2, 30720, Note_on_c, 0, 54, 0
2, 30720, Note_on_c, 0, 51, 79
2, 30880, Note_on_c, 0, 51, 0
2, 30880, Note_on_c, 0, 58, 69
2, 31040, Note_on_c, 0, 58, 0
2, 31040, Note_on_c, 0, 51, 68
2, 31200, Note_on_c, 0, 51, 0
2, 31200, Note_on_c, 0, 59, 72
2, 31360, Note_on_c, 0, 59, 0
2, 31360, Note_on_c, 0, 51, 64
2, 31520, Note_on_c, 0, 51, 0
2, 31520, Note_on_c, 0, 61, 63
2, 31680, Note_on_c, 0, 61, 0
2, 31680, Note_on_c, 0, 51, 71
2, 31840, Note_on_c, 0, 51, 0
2, 31840, Note_on_c, 0, 58, 63
2, 32000, Note_on_c, 0, 58, 0
2, 32000, Note_on_c, 0, 51, 63
2, 32160, Note_on_c, 0, 51, 0
2, 32160, Note_on_c, 0, 59, 67
2, 32320, Note_on_c, 0, 59, 0
2, 32320, Note_on_c, 0, 51, 59
2, 32480, Note_on_c, 0, 51, 0
2, 32480, Note_on_c, 0, 61, 58
2, 32640, Note_on_c, 0, 61, 0
2, 32640, Note_on_c, 0, 51, 66
2, 32800, Note_on_c, 0, 51, 0
2, 32800, Note_on_c, 0, 61, 58
2, 32960, Note_on_c, 0, 61, 0
2, 32960, Note_on_c, 0, 51, 57
2, 33120, Note_on_c, 0, 51, 0
2, 33120, Note_on_c, 0, 59, 61
2, 33280, Note_on_c, 0, 59, 0
2, 33280, Note_on_c, 0, 51, 55
2, 33440, Note_on_c, 0, 51, 0
2, 33440, Note_on_c, 0, 58, 55
2, 33600, Note_on_c, 0, 58, 0
2, 33600, Note_on_c, 0, 51, 60
2, 33760, Note_on_c, 0, 51, 0
2, 33760, Note_on_c, 0, 56, 55
2, 33920, Note_on_c, 0, 56, 0
2, 33920, Note_on_c, 0, 51, 53
2, 34080, Note_on_c, 0, 51, 0
2, 34080, Note_on_c, 0, 58, 56
2, 34240, Note_on_c, 0, 58, 0
2, 34240, Note_on_c, 0, 51, 50
2, 34400, Note_on_c, 0, 51, 0
2, 34400, Note_on_c, 0, 58, 49
2, 34560, Note_on_c, 0, 58, 0
2, 34560, Note_on_c, 0, 51, 38
2, 35040, Note_on_c, 0, 51, 0
2, 35040, End_track
3, 0, Start_track
3, 0, MIDI_port, 0
3, 0, Title_t, "Piano left"
3, 0, Program_c, 0, 0
3, 0, Control_c, 0, 7, 100
3, 0, Control_c, 0, 10, 64
3, 0, Note_on_c, 0, 39, 42
3, 74, Control_c, 0, 64, 127
3, 160, Note_on_c, 0, 39, 0
3, 160, Note_on_c, 0, 46, 37
3, 320, Note_on_c, 0, 46, 0
3, 320, Note_on_c, 0, 42, 37
3, 480, Note_on_c, 0, 42, 0
3, 480, Note_on_c, 0, 47, 47
3, 640, Note_on_c, 0, 47, 0
3, 640, Note_on_c, 0, 39, 42
3, 800, Note_on_c, 0, 39, 0
3, 800, Note_on_c, 0, 47, 44
3, 926, Control_c, 0, 64, 0
3, 960, Note_on_c, 0, 47, 0
3, 960, Note_on_c, 0, 38, 49
3, 1006, Control_c, 0, 64, 127
3, 1120, Note_on_c, 0, 38, 0
3, 1120, Note_on_c, 0, 47, 39
3, 1280, Note_on_c, 0, 47, 0
3, 1280, Note_on_c, 0, 41, 39
3, 1440, Note_on_c, 0, 41, 0
3, 1440, Note_on_c, 0, 46, 42
3, 1600, Note_on_c, 0, 46, 0
3, 1600, Note_on_c, 0, 38, 37
3, 1760, Note_on_c, 0, 38, 0
3, 1760, Note_on_c, 0, 46, 37
3, 1869, Control_c, 0, 64, 0
3, 1920, Note_on_c, 0, 46, 0
3, 1920, Note_on_c, 0, 39, 44
3, 2006, Control_c, 0, 64, 127
3, 2080, Note_on_c, 0, 39, 0
3, 2080, Note_on_c, 0, 46, 39
3, 2240, Note_on_c, 0, 46, 0
3, 2240, Note_on_c, 0, 42, 39
3, 2400, Note_on_c, 0, 42, 0
3, 2400, Note_on_c, 0, 47, 49
3, 2560, Note_on_c, 0, 47, 0
3, 2560, Note_on_c, 0, 39, 44
3, 2720, Note_on_c, 0, 39, 0
3, 2720, Note_on_c, 0, 47, 46
3, 2829, Control_c, 0, 64, 0
3, 2880, Note_on_c, 0, 47, 0
3, 2880, Note_on_c, 0, 38, 53
3, 2926, Control_c, 0, 64, 127
3, 3040, Note_on_c, 0, 38, 0
3, 3040, Note_on_c, 0, 47, 44
3, 3200, Note_on_c, 0, 47, 0
3, 3200, Note_on_c, 0, 41, 39
3, 3360, Note_on_c, 0, 41, 0
3, 3360, Note_on_c, 0, 46, 48
3, 3520, Note_on_c, 0, 46, 0
3, 3520, Note_on_c, 0, 38, 42
3, 3680, Note_on_c, 0, 38, 0
3, 3680, Note_on_c, 0, 46, 37
3, 3749, Control_c, 0, 64, 0
3, 3840, Note_on_c, 0, 46, 0
3, 3840, Note_on_c, 0, 39, 46
3, 3895, Control_c, 0, 64, 127
3, 4000, Note_on_c, 0, 39, 0
3, 4000, Note_on_c, 0, 46, 41
3, 4160, Note_on_c, 0, 46, 0
3, 4160, Note_on_c, 0, 42, 41
3, 4320, Note_on_c, 0, 42, 0
3, 4320, Note_on_c, 0, 47, 50
3, 4480, Note_on_c, 0, 47, 0
3, 4480, Note_on_c, 0, 39, 46
3, 4640, Note_on_c, 0, 39, 0
3, 4640, Note_on_c, 0, 48, 48
3, 4800, Note_on_c, 0, 48, 0
3, 4800, Note_on_c, 0, 41, 50
3, 4815, Control_c, 0, 64, 0
3, 4870, Control_c, 0, 64, 127
3, 4960, Note_on_c, 0, 41, 0
3, 4960, Note_on_c, 0, 48, 46
3, 5120, Note_on_c, 0, 48, 0
3, 5120, Note_on_c, 0, 44, 40
3, 5280, Note_on_c, 0, 44, 0
3, 5286, Note_on_c, 0, 51, 55
3, 5446, Note_on_c, 0, 51, 0
3, 5451, Note_on_c, 0, 45, 46
3, 5600, Note_on_c, 0, 49, 40
3, 5611, Note_on_c, 0, 45, 0
3, 5670, Control_c, 0, 64, 0
3, 5760, Note_on_c, 0, 49, 0
3, 5760, Note_on_c, 0, 42, 48
3, 5815, Control_c, 0, 64, 127
3, 5920, Note_on_c, 0, 42, 0
3, 5920, Note_on_c, 0, 49, 42
3, 6080, Note_on_c, 0, 49, 0
3, 6080, Note_on_c, 0, 46, 42
3, 6240, Note_on_c, 0, 46, 0
3, 6240, Note_on_c, 0, 51, 52
3, 6400, Note_on_c, 0, 51, 0
3, 6400, Note_on_c, 0, 42, 48
3, 6560, Note_on_c, 0, 42, 0
3, 6560, Note_on_c, 0, 52, 49
3, 6720, Note_on_c, 0, 52, 0
3, 6720, Note_on_c, 0, 45, 55
3, 6745, Control_c, 0, 64, 0
3, 6790, Control_c, 0, 64, 127
3, 6880, Note_on_c, 0, 45, 0
3, 6880, Note_on_c, 0, 52, 45
3, 7040, Note_on_c, 0, 52, 0
3, 7040, Note_on_c, 0, 48, 45
3, 7200, Note_on_c, 0, 48, 0
3, 7200, Note_on_c, 0, 54, 56
3, 7360, Note_on_c, 0, 54, 0
3, 7360, Note_on_c, 0, 49, 46
3, 7520, Note_on_c, 0, 49, 0
3, 7520, Note_on_c, 0, 53, 41
3, 7590, Control_c, 0, 64, 0
3, 7680, Note_on_c, 0, 53, 0
3, 7680, Note_on_c, 0, 46, 49
3, 7735, Control_c, 0, 64, 127
3, 7840, Note_on_c, 0, 46, 0
3, 7840, Note_on_c, 0, 53, 45
3, 8000, Note_on_c, 0, 53, 0
3, 8000, Note_on_c, 0, 49, 45
3, 8160, Note_on_c, 0, 49, 0
3, 8160, Note_on_c, 0, 54, 55
3, 8320, Note_on_c, 0, 54, 0
3, 8320, Note_on_c, 0, 46, 49
3, 8480, Note_on_c, 0, 46, 0
3, 8480, Note_on_c, 0, 54, 51
3, 8625, Control_c, 0, 64, 0
3, 8640, Note_on_c, 0, 54, 0
3, 8640, Note_on_c, 0, 45, 55
3, 8710, Control_c, 0, 64, 127
3, 8800, Note_on_c, 0, 45, 0
3, 8800, Note_on_c, 0, 54, 50
3, 8960, Note_on_c, 0, 54, 0
3, 8960, Note_on_c, 0, 48, 50
3, 9120, Note_on_c, 0, 48, 0
3, 9120, Note_on_c, 0, 53, 53
3, 9280, Note_on_c, 0, 53, 0
3, 9280, Note_on_c, 0, 45, 47
3, 9440, Note_on_c, 0, 45, 0
3, 9440, Note_on_c, 0, 53, 45
3, 9510, Control_c, 0, 64, 0
3, 9600, Note_on_c, 0, 53, 0
3, 9600, Note_on_c, 0, 46, 51
3, 9655, Control_c, 0, 64, 127
3, 9760, Note_on_c, 0, 46, 0
3, 9760, Note_on_c, 0, 53, 47
3, 9920, Note_on_c, 0, 53, 0
3, 9920, Note_on_c, 0, 49, 47
3, 10080, Note_on_c, 0, 49, 0
3, 10080, Note_on_c, 0, 54, 56
3, 10240, Note_on_c, 0, 54, 0
3, 10240, Note_on_c, 0, 45, 51
3, 10400, Note_on_c, 0, 45, 0
3, 10400, Note_on_c, 0, 54, 53
3, 10560, Note_on_c, 0, 54, 0
3, 10560, Note_on_c, 0, 44, 61
3, 10580, Control_c, 0, 64, 0
3, 10630, Control_c, 0, 64, 127
3, 10720, Note_on_c, 0, 44, 0
3, 10720, Note_on_c, 0, 54, 56
3, 10880, Note_on_c, 0, 54, 0
3, 10880, Note_on_c, 0, 50, 49
3, 11040, Note_on_c, 0, 50, 0
3, 11040, Note_on_c, 0, 53, 55
3, 11200, Note_on_c, 0, 53, 0
3, 11200, Note_on_c, 0, 47, 51
3, 11360, Note_on_c, 0, 47, 0
3, 11360, Note_on_c, 0, 53, 49
3, 11430, Control_c, 0, 64, 0
3, 11520, Note_on_c, 0, 53, 0
3, 11520, Note_on_c, 0, 44, 66
3, 11575, Control_c, 0, 64, 127
3, 11680, Note_on_c, 0, 44, 0
3, 11680, Note_on_c, 0, 52, 56
3, 11840, Note_on_c, 0, 52, 0
3, 11840, Note_on_c, 0, 47, 56
3, 12000, Note_on_c, 0, 47, 0
3, 12000, Note_on_c, 0, 50, 61
3, 12160, Note_on_c, 0, 50, 0
3, 12160, Note_on_c, 0, 44, 51
3, 12320, Note_on_c, 0, 44, 0
3, 12320, Note_on_c, 0, 50, 53
3, 12480, Note_on_c, 0, 50, 0
3, 12480, Note_on_c, 0, 43, 56
3, 12520, Control_c, 0, 64, 0
3, 12550, Control_c, 0, 64, 127
3, 12640, Note_on_c, 0, 43, 0
3, 12640, Note_on_c, 0, 50, 51
3, 12800, Note_on_c, 0, 50, 0
3, 12800, Note_on_c, 0, 46, 51
3, 12960, Note_on_c, 0, 46, 0
3, 12960, Note_on_c, 0, 53, 53
3, 13120, Note_on_c, 0, 53, 0
3, 13120, Note_on_c, 0, 43, 59
3, 13280, Note_on_c, 0, 43, 0
3, 13280, Note_on_c, 0, 51, 59
3, 13440, Note_on_c, 0, 51, 0
3, 13440, Control_c, 0, 64, 0
3, 13440, Note_on_c, 0, 41, 64
3, 13495, Control_c, 0, 64, 127
3, 13600, Note_on_c, 0, 41, 0
3, 13600, Note_on_c, 0, 49, 57
3, 13760, Note_on_c, 0, 49, 0
3, 13760, Note_on_c, 0, 43, 57
3, 13920, Note_on_c, 0, 43, 0
3, 13920, Note_on_c, 0, 47, 62
3, 14080, Note_on_c, 0, 47, 0
3, 14080, Note_on_c, 0, 41, 52
3, 14240, Note_on_c, 0, 41, 0
3, 14240, Note_on_c, 0, 47, 55
3, 14400, Note_on_c, 0, 47, 0
3, 14400, Note_on_c, 0, 40, 57
3, 14425, Control_c, 0, 64, 0
3, 14470, Control_c, 0, 64, 127
3, 14560, Note_on_c, 0, 40, 0
3, 14560, Note_on_c, 0, 47, 52
3, 14720, Note_on_c, 0, 47, 0
3, 14720, Note_on_c, 0, 43, 52
3, 14880, Note_on_c, 0, 43, 0
3, 14880, Note_on_c, 0, 49, 55
3, 15040, Note_on_c, 0, 49, 0
3, 15040, Note_on_c, 0, 40, 60
3, 15200, Note_on_c, 0, 40, 0
3, 15200, Note_on_c, 0, 48, 61
3, 15270, Control_c, 0, 64, 0
3, 15360, Note_on_c, 0, 48, 0
3, 15360, Note_on_c, 0, 42, 63
3, 15405, Control_c, 0, 64, 127
3, 15520, Note_on_c, 0, 42, 0
3, 15520, Note_on_c, 0, 50, 57
3, 15680, Note_on_c, 0, 50, 0
3, 15680, Note_on_c, 0, 45, 58
3, 15840, Note_on_c, 0, 45, 0
3, 15840, Note_on_c, 0, 48, 63
3, 16000, Note_on_c, 0, 48, 0
3, 16000, Note_on_c, 0, 42, 53
3, 16160, Note_on_c, 0, 42, 0
3, 16160, Note_on_c, 0, 48, 56
3, 16320, Note_on_c, 0, 48, 0
3, 16320, Note_on_c, 0, 41, 58
3, 16335, Control_c, 0, 64, 0
3, 16395, Control_c, 0, 64, 127
3, 16480, Note_on_c, 0, 41, 0
3, 16480, Note_on_c, 0, 48, 53
3, 16640, Note_on_c, 0, 48, 0
3, 16640, Note_on_c, 0, 44, 53
3, 16800, Note_on_c, 0, 44, 0
3, 16800, Note_on_c, 0, 51, 56
3, 16960, Note_on_c, 0, 51, 0
3, 16960, Note_on_c, 0, 41, 61
3, 17120, Note_on_c, 0, 41, 0
3, 17120, Note_on_c, 0, 49, 60
3, 17220, Control_c, 0, 64, 0
3, 17280, Note_on_c, 0, 49, 0
3, 17280, Note_on_c, 0, 39, 69
3, 17315, Control_c, 0, 64, 127
3, 17440, Note_on_c, 0, 39, 0
3, 17440, Note_on_c, 0, 47, 59
3, 17600, Note_on_c, 0, 47, 0
3, 17600, Note_on_c, 0, 41, 59
3, 17760, Note_on_c, 0, 41, 0
3, 17760, Note_on_c, 0, 45, 61
3, 17920, Note_on_c, 0, 45, 0
3, 17920, Note_on_c, 0, 39, 55
3, 18080, Note_on_c, 0, 39, 0
3, 18080, Note_on_c, 0, 45, 56
3, 18180, Control_c, 0, 64, 0
3, 18240, Note_on_c, 0, 45, 0
3, 18240, Note_on_c, 0, 38, 59
3, 18275, Control_c, 0, 64, 127
3, 18400, Note_on_c, 0, 38, 0
3, 18400, Note_on_c, 0, 45, 55
3, 18560, Note_on_c, 0, 45, 0
3, 18560, Note_on_c, 0, 41, 55
3, 18720, Note_on_c, 0, 41, 0
3, 18720, Note_on_c, 0, 46, 68
3, 18880, Note_on_c, 0, 46, 0
3, 18880, Note_on_c, 0, 42, 60
3, 19040, Note_on_c, 0, 42, 0
3, 19040, Note_on_c, 0, 46, 59
3, 19090, Control_c, 0, 64, 0
3, 19200, Note_on_c, 0, 46, 0
3, 19200, Note_on_c, 0, 39, 73
3, 19223, Control_c, 0, 64, 127
3, 19360, Note_on_c, 0, 39, 0
3, 19360, Note_on_c, 0, 46, 66
3, 19520, Note_on_c, 0, 46, 0
3, 19520, Note_on_c, 0, 42, 66
3, 19680, Note_on_c, 0, 42, 0
3, 19680, Note_on_c, 0, 47, 73
3, 19840, Note_on_c, 0, 47, 0
3, 19840, Note_on_c, 0, 42, 69
3, 20000, Note_on_c, 0, 42, 0
3, 20000, Note_on_c, 0, 47, 69
3, 20131, Control_c, 0, 64, 0
3, 20160, Note_on_c, 0, 47, 0
3, 20160, Note_on_c, 0, 38, 77
3, 20183, Control_c, 0, 64, 127
3, 20320, Note_on_c, 0, 38, 0
3, 20320, Note_on_c, 0, 47, 63
3, 20480, Note_on_c, 0, 47, 0
3, 20480, Note_on_c, 0, 41, 63
3, 20640, Note_on_c, 0, 41, 0
3, 20640, Note_on_c, 0, 46, 68
3, 20800, Note_on_c, 0, 46, 0
3, 20800, Note_on_c, 0, 38, 61
3, 20960, Note_on_c, 0, 38, 0
3, 20960, Note_on_c, 0, 46, 61
3, 21069, Control_c, 0, 64, 0
3, 21120, Note_on_c, 0, 46, 0
3, 21120, Note_on_c, 0, 39, 70
3, 21150, Control_c, 0, 64, 127
3, 21280, Note_on_c, 0, 39, 0
3, 21280, Note_on_c, 0, 46, 62
3, 21440, Note_on_c, 0, 46, 0
3, 21440, Note_on_c, 0, 42, 62
3, 21600, Note_on_c, 0, 42, 0
3, 21600, Note_on_c, 0, 47, 74
3, 21760, Note_on_c, 0, 47, 0
3, 21760, Note_on_c, 0, 43, 64
3, 21920, Note_on_c, 0, 43, 0
3, 21920, Note_on_c, 0, 47, 64
3, 22080, Note_on_c, 0, 47, 0
3, 22080, Note_on_c, 0, 38, 80
3, 22110, Control_c, 0, 64, 0
3, 22165, Control_c, 0, 64, 127
3, 22240, Note_on_c, 0, 38, 0
3, 22240, Note_on_c, 0, 47, 72
3, 22400, Note_on_c, 0, 47, 0
3, 22400, Note_on_c, 0, 42, 72
3, 22560, Note_on_c, 0, 42, 0
3, 22560, Note_on_c, 0, 46, 77
3, 22720, Note_on_c, 0, 46, 0
3, 22720, Note_on_c, 0, 41, 70
3, 22880, Note_on_c, 0, 41, 0
3, 22880, Note_on_c, 0, 46, 67
3, 23000, Control_c, 0, 64, 0
3, 23040, Note_on_c, 0, 46, 0
3, 23040, Note_on_c, 0, 39, 74
3, 23075, Control_c, 0, 64, 127
3, 23200, Note_on_c, 0, 39, 0
3, 23200, Note_on_c, 0, 46, 67
3, 23360, Note_on_c, 0, 46, 0
3, 23360, Note_on_c, 0, 42, 67
3, 23520, Note_on_c, 0, 42, 0
3, 23520, Note_on_c, 0, 47, 81
3, 23680, Note_on_c, 0, 47, 0
3, 23680, Note_on_c, 0, 39, 74
3, 23840, Note_on_c, 0, 39, 0
3, 23840, Note_on_c, 0, 47, 74
3, 24000, Note_on_c, 0, 47, 0
3, 24000, Note_on_c, 0, 41, 84
3, 24035, Control_c, 0, 64, 0
3, 24080, Control_c, 0, 64, 127
3, 24160, Note_on_c, 0, 41, 0
3, 24160, Note_on_c, 0, 49, 78
3, 24320, Note_on_c, 0, 49, 0
3, 24320, Note_on_c, 0, 45, 74
3, 24480, Note_on_c, 0, 45, 0
3, 24480, Note_on_c, 0, 49, 84
3, 24640, Note_on_c, 0, 49, 0
3, 24640, Note_on_c, 0, 41, 80
3, 24800, Note_on_c, 0, 41, 0
3, 24800, Note_on_c, 0, 49, 77
3, 24900, Control_c, 0, 64, 0
3, 24960, Note_on_c, 0, 49, 0
3, 24960, Note_on_c, 0, 42, 82
3, 24995, Control_c, 0, 64, 127
3, 25120, Note_on_c, 0, 42, 0
3, 25120, Note_on_c, 0, 49, 74
3, 25280, Note_on_c, 0, 49, 0
3, 25280, Note_on_c, 0, 45, 74
3, 25440, Note_on_c, 0, 45, 0
3, 25440, Note_on_c, 0, 50, 84
3, 25600, Note_on_c, 0, 50, 0
3, 25600, Note_on_c, 0, 42, 77
3, 25760, Note_on_c, 0, 42, 0
3, 25760, Note_on_c, 0, 50, 77
3, 25920, Note_on_c, 0, 50, 0
3, 25920, Control_c, 0, 64, 0
3, 25920, Note_on_c, 0, 46, 86
3, 25960, Control_c, 0, 64, 127
3, 26080, Note_on_c, 0, 46, 0
3, 26080, Note_on_c, 0, 51, 78
3, 26240, Note_on_c, 0, 51, 0
3, 26240, Note_on_c, 0, 42, 74
3, 26400, Note_on_c, 0, 42, 0
3, 26400, Note_on_c, 0, 52, 86
3, 26560, Note_on_c, 0, 52, 0
3, 26560, Note_on_c, 0, 43, 80
3, 26720, Note_on_c, 0, 43, 0
3, 26720, Note_on_c, 0, 53, 77
3, 26805, Control_c, 0, 64, 0
3, 26880, Note_on_c, 0, 53, 0
3, 26880, Note_on_c, 0, 44, 84
3, 26926, Control_c, 0, 64, 127
3, 27040, Note_on_c, 0, 44, 0
3, 27040, Note_on_c, 0, 47, 72
3, 27200, Note_on_c, 0, 47, 0
3, 27200, Note_on_c, 0, 42, 71
3, 27360, Note_on_c, 0, 42, 0
3, 27360, Note_on_c, 0, 47, 78
3, 27520, Note_on_c, 0, 47, 0
3, 27520, Note_on_c, 0, 41, 69
3, 27680, Note_on_c, 0, 41, 0
3, 27680, Note_on_c, 0, 47, 69
3, 27840, Note_on_c, 0, 47, 0
3, 27840, Note_on_c, 0, 39, 78
3, 27886, Control_c, 0, 64, 0
3, 27926, Control_c, 0, 64, 127
3, 28000, Note_on_c, 0, 39, 0
3, 28000, Note_on_c, 0, 44, 69
3, 28160, Note_on_c, 0, 44, 0
3, 28160, Note_on_c, 0, 38, 69
3, 28320, Note_on_c, 0, 38, 0
3, 28320, Note_on_c, 0, 42, 73
3, 28480, Note_on_c, 0, 42, 0
3, 28480, Note_on_c, 0, 39, 67
3, 28640, Note_on_c, 0, 39, 0
3, 28640, Note_on_c, 0, 42, 66
3, 28800, Note_on_c, 0, 42, 0
3, 28800, Control_c, 0, 64, 0
3, 28800, Note_on_c, 0, 32, 74
3, 28871, Control_c, 0, 64, 127
3, 28960, Note_on_c, 0, 32, 0
3, 28960, Note_on_c, 0, 42, 64
3, 29120, Note_on_c, 0, 42, 0
3, 29120, Note_on_c, 0, 39, 62
3, 29280, Note_on_c, 0, 39, 0
3, 29280, Note_on_c, 0, 42, 68
3, 29440, Note_on_c, 0, 42, 0
3, 29440, Note_on_c, 0, 32, 59
3, 29600, Note_on_c, 0, 32, 0
3, 29600, Note_on_c, 0, 42, 59
3, 29760, Note_on_c, 0, 42, 0
3, 29760, Note_on_c, 0, 34, 66
3, 29831, Control_c, 0, 64, 0
3, 29887, Control_c, 0, 64, 127
3, 29920, Note_on_c, 0, 34, 0
3, 29920, Note_on_c, 0, 42, 58
3, 30080, Note_on_c, 0, 42, 0
3, 30080, Note_on_c, 0, 39, 57
3, 30240, Note_on_c, 0, 39, 0
3, 30240, Note_on_c, 0, 42, 61
3, 30400, Note_on_c, 0, 42, 0
3, 30400, Note_on_c, 0, 34, 53
3, 30560, Note_on_c, 0, 34, 0
3, 30560, Note_on_c, 0, 42, 52
3, 30720, Note_on_c, 0, 42, 0
3, 30720, Note_on_c, 0, 39, 67
3, 30847, Control_c, 0, 64, 0
3, 30880, Note_on_c, 0, 39, 0
3, 30880, Note_on_c, 0, 46, 58
3, 30896, Control_c, 0, 64, 127
3, 31040, Note_on_c, 0, 46, 0
3, 31040, Note_on_c, 0, 39, 57
3, 31200, Note_on_c, 0, 39, 0
3, 31200, Note_on_c, 0, 47, 61
3, 31360, Note_on_c, 0, 47, 0
3, 31360, Note_on_c, 0, 39, 55
3, 31520, Note_on_c, 0, 39, 0
3, 31520, Note_on_c, 0, 49, 53
3, 31680, Note_on_c, 0, 49, 0
3, 31680, Note_on_c, 0, 39, 60
3, 31694, Control_c, 0, 64, 0
3, 31765, Control_c, 0, 64, 127
3, 31840, Note_on_c, 0, 39, 0
3, 31840, Note_on_c, 0, 46, 53
3, 32000, Note_on_c, 0, 46, 0
3, 32000, Note_on_c, 0, 39, 53
3, 32160, Note_on_c, 0, 39, 0
3, 32160, Note_on_c, 0, 47, 56
3, 32320, Note_on_c, 0, 47, 0
3, 32320, Note_on_c, 0, 39, 49
3, 32480, Note_on_c, 0, 39, 0
3, 32480, Note_on_c, 0, 49, 49
3, 32640, Note_on_c, 0, 49, 0
3, 32640, Note_on_c, 0, 39, 56
3, 32675, Control_c, 0, 64, 0
3, 32746, Control_c, 0, 64, 127
3, 32800, Note_on_c, 0, 39, 0
3, 32800, Note_on_c, 0, 49, 49
3, 32960, Note_on_c, 0, 49, 0
3, 32960, Note_on_c, 0, 39, 48
3, 33120, Note_on_c, 0, 39, 0
3, 33120, Note_on_c, 0, 47, 51
3, 33280, Note_on_c, 0, 47, 0
3, 33280, Note_on_c, 0, 39, 46
3, 33440, Note_on_c, 0, 39, 0
3, 33440, Note_on_c, 0, 46, 46
3, 33600, Note_on_c, 0, 46, 0
3, 33600, Note_on_c, 0, 39, 50
3, 33628, Control_c, 0, 64, 0
3, 33678, Control_c, 0, 64, 127
3, 33760, Note_on_c, 0, 39, 0
3, 33760, Note_on_c, 0, 44, 46
3, 33920, Note_on_c, 0, 44, 0
3, 33920, Note_on_c, 0, 39, 45
3, 34080, Note_on_c, 0, 39, 0
3, 34080, Note_on_c, 0, 46, 47
3, 34240, Note_on_c, 0, 46, 0
3, 34240, Note_on_c, 0, 39, 42
3, 34400, Note_on_c, 0, 39, 0
3, 34400, Note_on_c, 0, 46, 41
3, 34560, Note_on_c, 0, 46, 0
3, 34560, Control_c, 0, 64, 0
3, 34560, Note_on_c, 0, 27, 23
3, 34747, Control_c, 0, 64, 127
3, 35040, Note_on_c, 0, 27, 0
3, 35227, Control_c, 0, 64, 0
3, 35227, End_track
4, 0, Start_track
4, 0, MIDI_port, 0
4, 0, Title_t, "Chopin: Prelude No.14 in Eb Minor, Op. 28"
4, 0, End_track
5, 0, Start_track
5, 0, MIDI_port, 0
5, 0, Title_t, "Copyright \251 2002 by Bernd Krueger"
5, 0, End_track
6, 0, Start_track
6, 0, MIDI_port, 0
6, 0, Title_t, "email: bernd.krueger@piano-midi.de"
6, 0, End_track
7, 0, Start_track
7, 0, MIDI_port, 0
7, 0, Title_t, "http://www.piano-midi.de"
7, 0, End_track
8, 0, Start_track
8, 0, MIDI_port, 0
8, 0, Title_t, "Edition: 25.09.02"
8, 0, End_track
9, 0, Start_track
9, 0, MIDI_port, 0
9, 0, End_track
10, 0, Start_track
10, 0, MIDI_port, 0
10, 0, End_track
0, 0, End_of_file