0, 0, Header, 1, 8, 120
1, 0, Start_track
1, 0, Title_t, "Prelude No. 11"
1, 0, Copyright_t, "Copyright \251 1997 by Bernd Krueger http://www.piano-midi.de"
1, 0, Text_t, "Frederic Chopin"
1, 0, Text_t, "Vivace"
1, 0, Text_t, "Fertiggestellt am 6.5.97\012"
1, 0, Text_t, "Korrekturen am 27.8.98\012"
1, 0, Text_t, "Anpassungen an Digitalpiano am 26.12.98\012"
1, 0, Text_t, "Update am 14.4.99\012"
1, 0, Text_t, "Normierung: 23.12.2002\012"
1, 0, Text_t, "Dauer: 0:33 Minuten\012"
1, 0, SMPTE_offset, 96, 0, 3, 0, 0
1, 0, Time_signature, 6, 3, 12, 8
1, 0, Key_signature, 5, "major"
1, 0, Tempo, 542986
1, 360, Tempo, 375000
1, 480, Tempo, 344828
1, 490, Tempo, 343840
1, 495, Tempo, 342857
1, 500, Tempo, 341880
1, 505, Tempo, 340909
1, 510, Tempo, 339943
1, 520, Tempo, 338983
1, 525, Tempo, 338028
1, 530, Tempo, 337079
1, 535, Tempo, 336134
1, 540, Tempo, 335196
1, 550, Tempo, 334262
1, 555, Tempo, 333333
1, 560, Tempo, 332410
1, 565, Tempo, 331492
1, 570, Tempo, 330579
1, 580, Tempo, 329670
1, 585, Tempo, 328767
1, 590, Tempo, 327869
1, 595, Tempo, 326975
1, 600, Tempo, 326087
1, 690, Tempo, 413793
1, 720, Tempo, 375000
1, 835, Tempo, 361446
1, 840, Tempo, 346821
1, 850, Tempo, 347826
1, 855, Tempo, 348837
1, 865, Tempo, 349854
1, 870, Tempo, 350877
1, 875, Tempo, 351906
1, 885, Tempo, 352941
1, 890, Tempo, 353982
1, 895, Tempo, 355030
1, 905, Tempo, 356083
1, 910, Tempo, 357143
1, 915, Tempo, 358209
1, 925, Tempo, 359281
1, 930, Tempo, 360360
1, 935, Tempo, 361446
1, 945, Tempo, 362538
1, 950, Tempo, 363636
1, 955, Tempo, 364742
1, 960, Tempo, 326975
1, 1080, Tempo, 345821
1, 1200, Tempo, 325203
1, 1205, Tempo, 326087
1, 1210, Tempo, 326975
1, 1215, Tempo, 327869
1, 1220, Tempo, 328767
1, 1225, Tempo, 329670
1, 1230, Tempo, 330579
1, 1235, Tempo, 331492
1, 1240, Tempo, 333333
1, 1245, Tempo, 334262
1, 1250, Tempo, 335196
1, 1255, Tempo, 336134
1, 1260, Tempo, 337079
1, 1265, Tempo, 338028
1, 1270, Tempo, 338983
1, 1275, Tempo, 340909
1, 1280, Tempo, 341880
1, 1285, Tempo, 342857
1, 1290, Tempo, 343840
1, 1295, Tempo, 344828
1, 1300, Tempo, 345821
1, 1305, Tempo, 346821
1, 1310, Tempo, 348837
1, 1315, Tempo, 360360
1, 1320, Tempo, 324324
1, 1440, Tempo, 322581
1, 1445, Tempo, 321716
1, 1475, Tempo, 320856
1, 1500, Tempo, 320000
1, 1525, Tempo, 319149
1, 1550, Tempo, 318302
1, 1580, Tempo, 317460
1, 1605, Tempo, 316623
1, 1630, Tempo, 315789
1, 1655, Tempo, 314961
1, 1685, Tempo, 314136
1, 1710, Tempo, 313316
1, 1735, Tempo, 312500
1, 1760, Tempo, 311688
1, 1765, Tempo, 307692
1, 1770, Tempo, 320000
1, 1800, Tempo, 306122
1, 1820, Tempo, 306905
1, 1840, Tempo, 307692
1, 1860, Tempo, 308483
1, 1880, Tempo, 309278
1, 1900, Tempo, 310078
1, 1920, Tempo, 310881
1, 1940, Tempo, 311688
1, 1960, Tempo, 312500
1, 1975, Tempo, 313316
1, 1995, Tempo, 314136
1, 2015, Tempo, 314961
1, 2035, Tempo, 315789
1, 2055, Tempo, 316623
1, 2075, Tempo, 317460
1, 2095, Tempo, 318302
1, 2115, Tempo, 319149
1, 2135, Tempo, 320000
1, 2150, Tempo, 320856
1, 2155, Tempo, 297767
1, 2160, Tempo, 338028
1, 2280, Tempo, 324324
1, 2880, Tempo, 323450
1, 2940, Tempo, 322581
1, 3000, Tempo, 321716
1, 3060, Tempo, 320856
1, 3115, Tempo, 320000
1, 3175, Tempo, 319149
1, 3235, Tempo, 318302
1, 3295, Tempo, 317460
1, 3350, Tempo, 316623
1, 3360, Tempo, 319149
1, 3480, Tempo, 324324
1, 3600, Tempo, 310078
1, 3720, Tempo, 296296
1, 3900, Tempo, 297767
1, 3915, Tempo, 298507
1, 3930, Tempo, 305344
1, 4005, Tempo, 303797
1, 4015, Tempo, 304569
1, 4020, Tempo, 296296
1, 4200, Tempo, 304569
1, 4380, Tempo, 343840
1, 4615, Tempo, 307692
1, 4620, Tempo, 320000
1, 4680, Tempo, 321716
1, 4685, Tempo, 322581
1, 4690, Tempo, 323450
1, 4695, Tempo, 324324
1, 4700, Tempo, 325203
1, 4705, Tempo, 326975
1, 4710, Tempo, 327869
1, 4715, Tempo, 328767
1, 4720, Tempo, 329670
1, 4725, Tempo, 331492
1, 4730, Tempo, 332410
1, 4735, Tempo, 333333
1, 4740, Tempo, 334262
1, 4745, Tempo, 335196
1, 4750, Tempo, 337079
1, 4755, Tempo, 338028
1, 4760, Tempo, 338983
1, 4765, Tempo, 339943
1, 4770, Tempo, 341880
1, 4775, Tempo, 342857
1, 4780, Tempo, 343840
1, 4785, Tempo, 344828
1, 4790, Tempo, 345821
1, 4795, Tempo, 347826
1, 4800, Tempo, 348837
1, 4805, Tempo, 349854
1, 4810, Tempo, 350877
1, 4815, Tempo, 352941
1, 4820, Tempo, 353982
1, 4825, Tempo, 355030
1, 4830, Tempo, 356083
1, 4835, Tempo, 357143
1, 4840, Tempo, 359281
1, 4845, Tempo, 360360
1, 4850, Tempo, 361446
1, 4855, Tempo, 362538
1, 4860, Tempo, 364742
1, 5040, Tempo, 352941
1, 5755, Tempo, 352941
1, 5795, Tempo, 351906
1, 5830, Tempo, 350877
1, 5870, Tempo, 349854
1, 5905, Tempo, 348837
1, 5940, Tempo, 347826
1, 5980, Tempo, 346821
1, 6015, Tempo, 345821
1, 6050, Tempo, 344828
1, 6060, Tempo, 365854
1, 6120, Tempo, 344828
1, 6130, Tempo, 345821
1, 6135, Tempo, 346821
1, 6140, Tempo, 347826
1, 6150, Tempo, 348837
1, 6155, Tempo, 349854
1, 6160, Tempo, 350877
1, 6170, Tempo, 351906
1, 6175, Tempo, 352941
1, 6180, Tempo, 353982
1, 6190, Tempo, 355030
1, 6195, Tempo, 356083
1, 6200, Tempo, 357143
1, 6210, Tempo, 358209
1, 6215, Tempo, 359281
1, 6220, Tempo, 360360
1, 6225, Tempo, 361446
1, 6235, Tempo, 362538
1, 6240, Tempo, 363636
1, 6245, Tempo, 364742
1, 6255, Tempo, 365854
1, 6260, Tempo, 366972
1, 6265, Tempo, 368098
1, 6275, Tempo, 369231
1, 6280, Tempo, 370370
1, 6285, Tempo, 371517
1, 6295, Tempo, 372671
1, 6300, Tempo, 373832
1, 6305, Tempo, 375000
1, 6315, Tempo, 376176
1, 6320, Tempo, 377358
1, 6325, Tempo, 378549
1, 6330, Tempo, 379747
1, 6335, Tempo, 380952
1, 6360, Tempo, 387097
1, 6480, Tempo, 379435
1, 6720, Tempo, 372671
1, 6840, Tempo, 379747
1, 7020, Tempo, 379747
1, 7030, Tempo, 380952
1, 7035, Tempo, 382166
1, 7045, Tempo, 383387
1, 7050, Tempo, 384615
1, 7055, Tempo, 385852
1, 7065, Tempo, 387097
1, 7070, Tempo, 388350
1, 7075, Tempo, 389610
1, 7085, Tempo, 390879
1, 7090, Tempo, 392157
1, 7095, Tempo, 393443
1, 7105, Tempo, 394737
1, 7110, Tempo, 396040
1, 7115, Tempo, 397351
1, 7125, Tempo, 398671
1, 7130, Tempo, 400000
1, 7135, Tempo, 401338
1, 7140, Tempo, 500000
1, 7200, Tempo, 431655
1, 7560, Tempo, 409556
1, 7600, Tempo, 410959
1, 7635, Tempo, 412371
1, 7675, Tempo, 413793
1, 7710, Tempo, 415225
1, 7745, Tempo, 416667
1, 7785, Tempo, 418118
1, 7800, Tempo, 382166
1, 7920, Tempo, 418118
1, 8100, Tempo, 380952
1, 8400, Tempo, 422535
1, 8460, Tempo, 418118
1, 9000, Tempo, 418118
1, 9180, Tempo, 545455
1, 9180, End_track
2, 0, Start_track
2, 0, MIDI_port, 0
2, 0, Title_t, "Piano right"
2, 0, Program_c, 0, 0
2, 0, Control_c, 0, 7, 100
2, 0, Control_c, 0, 10, 64
2, 0, Control_c, 0, 91, 127
2, 1, Note_on_c, 0, 78, 55
2, 360, Note_on_c, 0, 77, 48
2, 361, Note_on_c, 0, 78, 0
2, 420, Note_on_c, 0, 77, 0
2, 420, Note_on_c, 0, 78, 53
2, 480, Note_on_c, 0, 78, 0
2, 480, Note_on_c, 0, 80, 57
2, 540, Note_on_c, 0, 80, 0
2, 540, Note_on_c, 0, 78, 55
2, 600, Note_on_c, 0, 78, 0
2, 600, Note_on_c, 0, 76, 52
2, 660, Note_on_c, 0, 76, 0
2, 660, Note_on_c, 0, 75, 49
2, 720, Note_on_c, 0, 75, 0
2, 720, Note_on_c, 0, 64, 39
2, 720, Note_on_c, 0, 73, 47
2, 780, Note_on_c, 0, 73, 0
2, 780, Note_on_c, 0, 64, 0
2, 780, Note_on_c, 0, 66, 40
2, 810, Note_on_c, 0, 66, 0
2, 810, Note_on_c, 0, 70, 36
2, 840, Note_on_c, 0, 70, 0
2, 840, Note_on_c, 0, 68, 46
2, 900, Note_on_c, 0, 68, 0
2, 900, Note_on_c, 0, 66, 42
2, 960, Note_on_c, 0, 66, 0
2, 960, Note_on_c, 0, 66, 41
2, 1020, Note_on_c, 0, 66, 0
2, 1020, Note_on_c, 0, 75, 41
2, 1080, Note_on_c, 0, 75, 0
2, 1080, Note_on_c, 0, 64, 39
2, 1080, Note_on_c, 0, 73, 47
2, 1140, Note_on_c, 0, 73, 0
2, 1140, Note_on_c, 0, 64, 0
2, 1140, Note_on_c, 0, 66, 44
2, 1170, Note_on_c, 0, 66, 0
2, 1170, Note_on_c, 0, 70, 33
2, 1200, Note_on_c, 0, 70, 0
2, 1200, Note_on_c, 0, 68, 45
2, 1260, Note_on_c, 0, 68, 0
2, 1260, Note_on_c, 0, 66, 43
2, 1320, Note_on_c, 0, 66, 0
2, 1320, Note_on_c, 0, 66, 43
2, 1380, Note_on_c, 0, 66, 0
2, 1380, Note_on_c, 0, 75, 43
2, 1440, Note_on_c, 0, 75, 0
2, 1440, Note_on_c, 0, 64, 40
2, 1440, Note_on_c, 0, 73, 48
2, 1500, Note_on_c, 0, 73, 0
2, 1500, Note_on_c, 0, 64, 0
2, 1500, Note_on_c, 0, 66, 52
2, 1560, Note_on_c, 0, 66, 0
2, 1560, Note_on_c, 0, 63, 59
2, 1560, Note_on_c, 0, 71, 59
2, 1620, Note_on_c, 0, 71, 0
2, 1620, Note_on_c, 0, 63, 0
2, 1620, Note_on_c, 0, 66, 56
2, 1680, Note_on_c, 0, 66, 0
2, 1680, Note_on_c, 0, 71, 51
2, 1680, Note_on_c, 0, 75, 60
2, 1740, Note_on_c, 0, 75, 0
2, 1740, Note_on_c, 0, 71, 0
2, 1740, Note_on_c, 0, 66, 56
2, 1800, Note_on_c, 0, 66, 0
2, 1800, Note_on_c, 0, 71, 45
2, 1800, Note_on_c, 0, 77, 53
2, 1860, Note_on_c, 0, 77, 0
2, 1860, Note_on_c, 0, 71, 0
2, 1860, Note_on_c, 0, 66, 47
2, 1860, Note_on_c, 0, 78, 56
2, 1920, Note_on_c, 0, 78, 0
2, 1920, Note_on_c, 0, 66, 0
2, 1920, Note_on_c, 0, 80, 62
2, 1920, Note_on_c, 0, 71, 52
2, 1980, Note_on_c, 0, 71, 0
2, 1980, Note_on_c, 0, 80, 0
2, 1980, Note_on_c, 0, 66, 48
2, 1980, Note_on_c, 0, 78, 57
2, 2040, Note_on_c, 0, 78, 0
2, 2040, Note_on_c, 0, 66, 0
2, 2040, Note_on_c, 0, 71, 46
2, 2040, Note_on_c, 0, 76, 55
2, 2100, Note_on_c, 0, 76, 0
2, 2100, Note_on_c, 0, 71, 0
2, 2100, Note_on_c, 0, 66, 45
2, 2100, Note_on_c, 0, 75, 53
2, 2160, Note_on_c, 0, 75, 0
2, 2160, Note_on_c, 0, 66, 0
2, 2160, Note_on_c, 0, 64, 48
2, 2160, Note_on_c, 0, 73, 57
2, 2220, Note_on_c, 0, 73, 0
2, 2220, Note_on_c, 0, 64, 0
2, 2220, Note_on_c, 0, 66, 56
2, 2250, Note_on_c, 0, 66, 0
2, 2250, Note_on_c, 0, 70, 43
2, 2280, Note_on_c, 0, 70, 0
2, 2280, Note_on_c, 0, 68, 55
2, 2340, Note_on_c, 0, 68, 0
2, 2340, Note_on_c, 0, 66, 52
2, 2400, Note_on_c, 0, 66, 0
2, 2400, Note_on_c, 0, 66, 52
2, 2460, Note_on_c, 0, 66, 0
2, 2460, Note_on_c, 0, 75, 52
2, 2520, Note_on_c, 0, 75, 0
2, 2520, Note_on_c, 0, 64, 49
2, 2520, Note_on_c, 0, 73, 58
2, 2580, Note_on_c, 0, 73, 0
2, 2580, Note_on_c, 0, 64, 0
2, 2580, Note_on_c, 0, 66, 55
2, 2610, Note_on_c, 0, 66, 0
2, 2610, Note_on_c, 0, 70, 41
2, 2640, Note_on_c, 0, 70, 0
2, 2640, Note_on_c, 0, 68, 52
2, 2700, Note_on_c, 0, 68, 0
2, 2700, Note_on_c, 0, 66, 51
2, 2760, Note_on_c, 0, 66, 0
2, 2760, Note_on_c, 0, 66, 51
2, 2820, Note_on_c, 0, 66, 0
2, 2820, Note_on_c, 0, 75, 51
2, 2880, Note_on_c, 0, 75, 0
2, 2880, Note_on_c, 0, 64, 51
2, 2880, Note_on_c, 0, 73, 61
2, 2940, Note_on_c, 0, 73, 0
2, 2940, Note_on_c, 0, 64, 0
2, 2940, Note_on_c, 0, 66, 56
2, 3000, Note_on_c, 0, 66, 0
2, 3000, Note_on_c, 0, 63, 54
2, 3000, Note_on_c, 0, 71, 64
2, 3060, Note_on_c, 0, 71, 0
2, 3060, Note_on_c, 0, 63, 0
2, 3060, Note_on_c, 0, 66, 59
2, 3120, Note_on_c, 0, 66, 0
2, 3120, Note_on_c, 0, 71, 56
2, 3120, Note_on_c, 0, 75, 67
2, 3180, Note_on_c, 0, 75, 0
2, 3180, Note_on_c, 0, 71, 0
2, 3180, Note_on_c, 0, 66, 62
2, 3240, Note_on_c, 0, 66, 0
2, 3240, Note_on_c, 0, 71, 59
2, 3240, Note_on_c, 0, 78, 70
2, 3300, Note_on_c, 0, 78, 0
2, 3300, Note_on_c, 0, 71, 0
2, 3300, Note_on_c, 0, 66, 66
2, 3360, Note_on_c, 0, 66, 0
2, 3360, Note_on_c, 0, 79, 74
2, 3360, Note_on_c, 0, 71, 62
2, 3420, Note_on_c, 0, 71, 0
2, 3420, Note_on_c, 0, 79, 0
2, 3420, Note_on_c, 0, 67, 69
2, 3480, Note_on_c, 0, 67, 0
2, 3480, Note_on_c, 0, 80, 76
2, 3480, Note_on_c, 0, 71, 64
2, 3540, Note_on_c, 0, 71, 0
2, 3540, Note_on_c, 0, 80, 0
2, 3540, Note_on_c, 0, 68, 70
2, 3600, Note_on_c, 0, 68, 0
2, 3600, Note_on_c, 0, 75, 64
2, 3600, Note_on_c, 0, 83, 76
2, 3660, Note_on_c, 0, 83, 0
2, 3660, Note_on_c, 0, 75, 0
2, 3660, Note_on_c, 0, 75, 66
2, 3690, Note_on_c, 0, 75, 0
2, 3690, Note_on_c, 0, 78, 46
2, 3720, Note_on_c, 0, 78, 0
2, 3720, Note_on_c, 0, 76, 70
2, 3780, Note_on_c, 0, 76, 0
2, 3780, Note_on_c, 0, 75, 66
2, 3840, Note_on_c, 0, 75, 0
2, 3840, Note_on_c, 0, 71, 69
2, 3900, Note_on_c, 0, 71, 0
2, 3900, Note_on_c, 0, 83, 57
2, 3900, Note_on_c, 0, 80, 48
2, 3960, Note_on_c, 0, 80, 0
2, 3960, Note_on_c, 0, 83, 0
2, 3960, Note_on_c, 0, 78, 54
2, 3960, Note_on_c, 0, 82, 64
2, 4020, Note_on_c, 0, 82, 0
2, 4020, Note_on_c, 0, 78, 0
2, 4020, Note_on_c, 0, 75, 65
2, 4080, Note_on_c, 0, 75, 0
2, 4080, Note_on_c, 0, 70, 65
2, 4110, Note_on_c, 0, 70, 0
2, 4110, Note_on_c, 0, 73, 47
2, 4140, Note_on_c, 0, 73, 0
2, 4140, Note_on_c, 0, 71, 65
2, 4200, Note_on_c, 0, 71, 0
2, 4200, Note_on_c, 0, 70, 63
2, 4260, Note_on_c, 0, 70, 0
2, 4260, Note_on_c, 0, 78, 57
2, 4260, Note_on_c, 0, 75, 48
2, 4320, Note_on_c, 0, 75, 0
2, 4320, Note_on_c, 0, 78, 0
2, 4320, Note_on_c, 0, 71, 60
2, 4320, Note_on_c, 0, 68, 60
2, 4380, Note_on_c, 0, 68, 0
2, 4380, Note_on_c, 0, 64, 58
2, 4410, Note_on_c, 0, 64, 0
2, 4410, Note_on_c, 0, 68, 48
2, 4440, Note_on_c, 0, 68, 0
2, 4440, Note_on_c, 0, 66, 63
2, 4500, Note_on_c, 0, 66, 0
2, 4500, Note_on_c, 0, 64, 54
2, 4560, Note_on_c, 0, 64, 0
2, 4560, Note_on_c, 0, 68, 57
2, 4620, Note_on_c, 0, 71, 0
2, 4620, Note_on_c, 0, 73, 59
2, 4680, Note_on_c, 0, 73, 0
2, 4680, Note_on_c, 0, 68, 0
2, 4680, Note_on_c, 0, 71, 61
2, 4680, Note_on_c, 0, 75, 61
2, 4740, Note_on_c, 0, 71, 0
2, 4740, Note_on_c, 0, 63, 57
2, 4800, Note_on_c, 0, 63, 0
2, 4800, Note_on_c, 0, 66, 57
2, 4860, Note_on_c, 0, 66, 0
2, 4860, Note_on_c, 0, 63, 57
2, 4920, Note_on_c, 0, 63, 0
2, 4920, Note_on_c, 0, 66, 54
2, 4980, Note_on_c, 0, 66, 0
2, 4980, Note_on_c, 0, 68, 53
2, 5040, Note_on_c, 0, 68, 0
2, 5040, Note_on_c, 0, 75, 0
2, 5040, Note_on_c, 0, 64, 48
2, 5040, Note_on_c, 0, 73, 57
2, 5100, Note_on_c, 0, 73, 0
2, 5100, Note_on_c, 0, 64, 0
2, 5100, Note_on_c, 0, 66, 52
2, 5130, Note_on_c, 0, 66, 0
2, 5130, Note_on_c, 0, 68, 40
2, 5145, Note_on_c, 0, 68, 0
2, 5145, Note_on_c, 0, 70, 40
2, 5160, Note_on_c, 0, 70, 0
2, 5160, Note_on_c, 0, 68, 50
2, 5220, Note_on_c, 0, 68, 0
2, 5220, Note_on_c, 0, 66, 49
2, 5280, Note_on_c, 0, 66, 0
2, 5280, Note_on_c, 0, 66, 49
2, 5340, Note_on_c, 0, 66, 0
2, 5340, Note_on_c, 0, 75, 49
2, 5400, Note_on_c, 0, 75, 0
2, 5400, Note_on_c, 0, 64, 45
2, 5400, Note_on_c, 0, 73, 54
2, 5460, Note_on_c, 0, 73, 0
2, 5460, Note_on_c, 0, 64, 0
2, 5460, Note_on_c, 0, 66, 51
2, 5490, Note_on_c, 0, 66, 0
2, 5490, Note_on_c, 0, 68, 40
2, 5505, Note_on_c, 0, 68, 0
2, 5505, Note_on_c, 0, 70, 40
2, 5520, Note_on_c, 0, 70, 0
2, 5520, Note_on_c, 0, 68, 48
2, 5580, Note_on_c, 0, 68, 0
2, 5580, Note_on_c, 0, 66, 47
2, 5640, Note_on_c, 0, 66, 0
2, 5640, Note_on_c, 0, 66, 47
2, 5700, Note_on_c, 0, 66, 0
2, 5700, Note_on_c, 0, 75, 47
2, 5760, Note_on_c, 0, 75, 0
2, 5760, Note_on_c, 0, 64, 43
2, 5760, Note_on_c, 0, 73, 51
2, 5820, Note_on_c, 0, 73, 0
2, 5820, Note_on_c, 0, 64, 0
2, 5820, Note_on_c, 0, 66, 45
2, 5880, Note_on_c, 0, 66, 0
2, 5880, Note_on_c, 0, 63, 44
2, 5880, Note_on_c, 0, 71, 52
2, 5940, Note_on_c, 0, 71, 0
2, 5940, Note_on_c, 0, 63, 0
2, 5940, Note_on_c, 0, 66, 47
2, 6000, Note_on_c, 0, 66, 0
2, 6000, Note_on_c, 0, 71, 44
2, 6000, Note_on_c, 0, 75, 52
2, 6060, Note_on_c, 0, 75, 0
2, 6060, Note_on_c, 0, 71, 0
2, 6060, Note_on_c, 0, 66, 48
2, 6120, Note_on_c, 0, 66, 0
2, 6120, Note_on_c, 0, 71, 44
2, 6120, Note_on_c, 0, 77, 44
2, 6180, Note_on_c, 0, 77, 0
2, 6180, Note_on_c, 0, 71, 0
2, 6180, Note_on_c, 0, 66, 34
2, 6180, Note_on_c, 0, 78, 40
2, 6240, Note_on_c, 0, 78, 0
2, 6240, Note_on_c, 0, 66, 0
2, 6240, Note_on_c, 0, 71, 37
2, 6240, Note_on_c, 0, 80, 44
2, 6300, Note_on_c, 0, 80, 0
2, 6300, Note_on_c, 0, 71, 0
2, 6300, Note_on_c, 0, 66, 34
2, 6300, Note_on_c, 0, 78, 40
2, 6360, Note_on_c, 0, 78, 0
2, 6360, Note_on_c, 0, 66, 0
2, 6360, Note_on_c, 0, 71, 32
2, 6360, Note_on_c, 0, 76, 38
2, 6420, Note_on_c, 0, 76, 0
2, 6420, Note_on_c, 0, 71, 0
2, 6420, Note_on_c, 0, 66, 32
2, 6420, Note_on_c, 0, 75, 38
2, 6480, Note_on_c, 0, 75, 0
2, 6480, Note_on_c, 0, 66, 0
2, 6480, Note_on_c, 0, 64, 39
2, 6480, Note_on_c, 0, 73, 46
2, 6540, Note_on_c, 0, 73, 0
2, 6540, Note_on_c, 0, 64, 0
2, 6540, Note_on_c, 0, 66, 47
2, 6570, Note_on_c, 0, 66, 0
2, 6570, Note_on_c, 0, 68, 32
2, 6585, Note_on_c, 0, 68, 0
2, 6585, Note_on_c, 0, 70, 32
2, 6600, Note_on_c, 0, 70, 0
2, 6600, Note_on_c, 0, 68, 44
2, 6660, Note_on_c, 0, 68, 0
2, 6660, Note_on_c, 0, 66, 44
2, 6720, Note_on_c, 0, 66, 0
2, 6720, Note_on_c, 0, 66, 44
2, 6780, Note_on_c, 0, 66, 0
2, 6780, Note_on_c, 0, 75, 44
2, 6840, Note_on_c, 0, 75, 0
2, 6840, Note_on_c, 0, 64, 42
2, 6840, Note_on_c, 0, 73, 50
2, 6900, Note_on_c, 0, 73, 0
2, 6900, Note_on_c, 0, 64, 0
2, 6900, Note_on_c, 0, 66, 47
2, 6930, Note_on_c, 0, 66, 0
2, 6930, Note_on_c, 0, 68, 31
2, 6945, Note_on_c, 0, 68, 0
2, 6945, Note_on_c, 0, 70, 31
2, 6960, Note_on_c, 0, 70, 0
2, 6960, Note_on_c, 0, 68, 43
2, 7020, Note_on_c, 0, 68, 0
2, 7020, Note_on_c, 0, 66, 43
2, 7080, Note_on_c, 0, 66, 0
2, 7080, Note_on_c, 0, 66, 43
2, 7140, Note_on_c, 0, 66, 0
2, 7140, Note_on_c, 0, 78, 43
2, 7185, Note_on_c, 0, 63, 50
2, 7200, Note_on_c, 0, 63, 0
2, 7200, Note_on_c, 0, 78, 0
2, 7200, Note_on_c, 0, 78, 53
2, 7560, Note_on_c, 0, 78, 0
2, 7560, Note_on_c, 0, 77, 58
2, 7620, Note_on_c, 0, 77, 0
2, 7620, Note_on_c, 0, 78, 60
2, 7680, Note_on_c, 0, 78, 0
2, 7680, Note_on_c, 0, 80, 63
2, 7740, Note_on_c, 0, 80, 0
2, 7740, Note_on_c, 0, 78, 60
2, 7800, Note_on_c, 0, 78, 0
2, 7800, Note_on_c, 0, 76, 58
2, 7860, Note_on_c, 0, 76, 0
2, 7860, Note_on_c, 0, 75, 54
2, 7920, Note_on_c, 0, 75, 0
2, 7920, Note_on_c, 0, 75, 51
2, 8100, Note_on_c, 0, 75, 0
2, 8100, Note_on_c, 0, 67, 38
2, 8100, Note_on_c, 0, 74, 45
2, 8160, Note_on_c, 0, 74, 0
2, 8160, Note_on_c, 0, 67, 0
2, 8160, Note_on_c, 0, 75, 50
2, 8220, Note_on_c, 0, 75, 0
2, 8220, Note_on_c, 0, 76, 50
2, 8280, Note_on_c, 0, 76, 0
2, 8280, Note_on_c, 0, 68, 37
2, 8280, Note_on_c, 0, 75, 44
2, 8340, Note_on_c, 0, 75, 0
2, 8340, Note_on_c, 0, 73, 51
2, 8400, Note_on_c, 0, 73, 0
2, 8400, Note_on_c, 0, 71, 49
2, 8460, Note_on_c, 0, 71, 0
2, 8460, Note_on_c, 0, 68, 0
2, 8460, Note_on_c, 0, 75, 46
2, 8460, Note_on_c, 0, 64, 39
2, 8520, Note_on_c, 0, 75, 0
2, 8520, Note_on_c, 0, 73, 52
2, 8580, Note_on_c, 0, 73, 0
2, 8580, Note_on_c, 0, 71, 49
2, 8640, Note_on_c, 0, 71, 0
2, 8640, Note_on_c, 0, 64, 0
2, 8640, Note_on_c, 0, 63, 39
2, 8640, Note_on_c, 0, 71, 46
2, 9000, Note_on_c, 0, 71, 0
2, 9000, Note_on_c, 0, 63, 0
2, 9000, Note_on_c, 0, 63, 38
2, 9000, Note_on_c, 0, 66, 45
2, 9360, Note_on_c, 0, 66, 0
2, 9360, Note_on_c, 0, 63, 0
2, 9360, Note_on_c, 0, 63, 45
2, 9720, Note_on_c, 0, 63, 0
2, 9720, End_track
3, 0, Start_track
3, 0, MIDI_port, 0
3, 0, Title_t, "Piano left"
3, 0, Program_c, 0, 0
3, 0, Control_c, 0, 7, 100
3, 0, Control_c, 0, 10, 64
3, 0, Control_c, 0, 91, 127
3, 0, Control_c, 0, 64, 0
3, 0, Control_c, 0, 91, 127
3, 0, Text_t, "bdca426d104a26ac9dcb070447587523"
3, 720, Note_on_c, 0, 58, 33
3, 720, Control_c, 0, 64, 127
3, 780, Note_on_c, 0, 58, 0
3, 780, Note_on_c, 0, 54, 31
3, 840, Note_on_c, 0, 54, 0
3, 840, Note_on_c, 0, 49, 34
3, 900, Note_on_c, 0, 49, 0
3, 900, Note_on_c, 0, 42, 31
3, 960, Note_on_c, 0, 42, 0
3, 960, Note_on_c, 0, 49, 33
3, 1020, Note_on_c, 0, 49, 0
3, 1020, Note_on_c, 0, 54, 33
3, 1031, Control_c, 0, 64, 0
3, 1080, Note_on_c, 0, 54, 0
3, 1080, Control_c, 0, 64, 127
3, 1080, Note_on_c, 0, 58, 36
3, 1140, Note_on_c, 0, 58, 0
3, 1140, Note_on_c, 0, 54, 33
3, 1200, Note_on_c, 0, 54, 0
3, 1200, Note_on_c, 0, 49, 33
3, 1260, Note_on_c, 0, 49, 0
3, 1260, Note_on_c, 0, 42, 33
3, 1320, Note_on_c, 0, 42, 0
3, 1320, Note_on_c, 0, 49, 33
3, 1380, Note_on_c, 0, 49, 0
3, 1380, Note_on_c, 0, 54, 33
3, 1403, Control_c, 0, 64, 0
3, 1440, Note_on_c, 0, 54, 0
3, 1440, Note_on_c, 0, 47, 39
3, 1447, Control_c, 0, 64, 127
3, 1500, Note_on_c, 0, 47, 0
3, 1500, Note_on_c, 0, 54, 35
3, 1560, Note_on_c, 0, 54, 0
3, 1560, Note_on_c, 0, 47, 43
3, 1620, Note_on_c, 0, 47, 0
3, 1620, Note_on_c, 0, 54, 38
3, 1680, Note_on_c, 0, 54, 0
3, 1680, Note_on_c, 0, 51, 44
3, 1740, Note_on_c, 0, 51, 0
3, 1740, Note_on_c, 0, 59, 40
3, 1800, Note_on_c, 0, 59, 0
3, 1800, Note_on_c, 0, 63, 32
3, 1860, Note_on_c, 0, 63, 0
3, 1860, Note_on_c, 0, 54, 33
3, 1920, Note_on_c, 0, 54, 0
3, 1920, Note_on_c, 0, 59, 39
3, 1980, Note_on_c, 0, 59, 0
3, 1980, Note_on_c, 0, 51, 33
3, 2040, Note_on_c, 0, 51, 0
3, 2040, Note_on_c, 0, 54, 36
3, 2100, Note_on_c, 0, 54, 0
3, 2100, Note_on_c, 0, 47, 33
3, 2114, Control_c, 0, 64, 0
3, 2160, Note_on_c, 0, 47, 0
3, 2160, Control_c, 0, 64, 127
3, 2160, Note_on_c, 0, 58, 40
3, 2220, Note_on_c, 0, 58, 0
3, 2220, Note_on_c, 0, 54, 37
3, 2280, Note_on_c, 0, 54, 0
3, 2280, Note_on_c, 0, 49, 40
3, 2340, Note_on_c, 0, 49, 0
3, 2340, Note_on_c, 0, 42, 36
3, 2400, Note_on_c, 0, 42, 0
3, 2400, Note_on_c, 0, 49, 36
3, 2460, Note_on_c, 0, 49, 0
3, 2460, Note_on_c, 0, 54, 36
3, 2469, Control_c, 0, 64, 0
3, 2520, Note_on_c, 0, 54, 0
3, 2520, Control_c, 0, 64, 127
3, 2520, Note_on_c, 0, 58, 40
3, 2580, Note_on_c, 0, 58, 0
3, 2580, Note_on_c, 0, 54, 34
3, 2640, Note_on_c, 0, 54, 0
3, 2640, Note_on_c, 0, 49, 38
3, 2700, Note_on_c, 0, 49, 0
3, 2700, Note_on_c, 0, 42, 35
3, 2760, Note_on_c, 0, 42, 0
3, 2760, Note_on_c, 0, 49, 38
3, 2820, Note_on_c, 0, 49, 0
3, 2820, Note_on_c, 0, 54, 32
3, 2843, Control_c, 0, 64, 0
3, 2880, Note_on_c, 0, 54, 0
3, 2880, Control_c, 0, 64, 127
3, 2880, Note_on_c, 0, 47, 41
3, 2940, Note_on_c, 0, 47, 0
3, 2940, Note_on_c, 0, 54, 37
3, 3000, Note_on_c, 0, 54, 0
3, 3000, Note_on_c, 0, 47, 45
3, 3060, Note_on_c, 0, 47, 0
3, 3060, Note_on_c, 0, 54, 36
3, 3120, Note_on_c, 0, 54, 0
3, 3120, Note_on_c, 0, 51, 48
3, 3180, Note_on_c, 0, 51, 0
3, 3180, Note_on_c, 0, 59, 39
3, 3197, Control_c, 0, 64, 0
3, 3240, Note_on_c, 0, 59, 0
3, 3240, Note_on_c, 0, 63, 48
3, 3300, Note_on_c, 0, 63, 0
3, 3300, Note_on_c, 0, 54, 39
3, 3360, Note_on_c, 0, 54, 0
3, 3360, Note_on_c, 0, 61, 52
3, 3420, Note_on_c, 0, 61, 0
3, 3420, Note_on_c, 0, 52, 48
3, 3480, Note_on_c, 0, 52, 0
3, 3480, Note_on_c, 0, 59, 53
3, 3540, Note_on_c, 0, 59, 0
3, 3540, Note_on_c, 0, 51, 49
3, 3600, Note_on_c, 0, 51, 0
3, 3600, Control_c, 0, 64, 127
3, 3600, Note_on_c, 0, 44, 54
3, 3660, Note_on_c, 0, 44, 0
3, 3660, Note_on_c, 0, 51, 47
3, 3720, Note_on_c, 0, 51, 0
3, 3720, Note_on_c, 0, 63, 54
3, 3780, Note_on_c, 0, 63, 0
3, 3780, Note_on_c, 0, 56, 47
3, 3840, Note_on_c, 0, 56, 0
3, 3840, Note_on_c, 0, 63, 52
3, 3900, Note_on_c, 0, 63, 0
3, 3900, Note_on_c, 0, 59, 35
3, 3928, Control_c, 0, 64, 0
3, 3960, Note_on_c, 0, 59, 0
3, 3960, Note_on_c, 0, 51, 39
3, 3960, Control_c, 0, 64, 127
3, 4020, Note_on_c, 0, 51, 0
3, 4020, Note_on_c, 0, 66, 44
3, 4080, Note_on_c, 0, 66, 0
3, 4080, Note_on_c, 0, 58, 49
3, 4140, Note_on_c, 0, 58, 0
3, 4140, Note_on_c, 0, 54, 40
3, 4200, Note_on_c, 0, 54, 0
3, 4200, Note_on_c, 0, 63, 47
3, 4260, Note_on_c, 0, 63, 0
3, 4260, Note_on_c, 0, 58, 49
3, 4278, Control_c, 0, 64, 0
3, 4320, Note_on_c, 0, 58, 0
3, 4320, Control_c, 0, 64, 127
3, 4320, Note_on_c, 0, 40, 53
3, 4380, Note_on_c, 0, 40, 0
3, 4380, Note_on_c, 0, 59, 38
3, 4440, Note_on_c, 0, 59, 0
3, 4440, Note_on_c, 0, 47, 36
3, 4500, Note_on_c, 0, 47, 0
3, 4500, Note_on_c, 0, 56, 35
3, 4560, Note_on_c, 0, 56, 0
3, 4560, Note_on_c, 0, 59, 37
3, 4620, Note_on_c, 0, 59, 0
3, 4620, Note_on_c, 0, 52, 42
3, 4652, Control_c, 0, 64, 0
3, 4680, Note_on_c, 0, 52, 0
3, 4680, Note_on_c, 0, 47, 40
3, 4691, Control_c, 0, 64, 127
3, 4740, Note_on_c, 0, 47, 0
3, 4740, Note_on_c, 0, 53, 44
3, 4800, Note_on_c, 0, 53, 0
3, 4800, Note_on_c, 0, 54, 47
3, 4860, Note_on_c, 0, 54, 0
3, 4860, Note_on_c, 0, 61, 51
3, 4920, Note_on_c, 0, 61, 0
3, 4920, Note_on_c, 0, 59, 48
3, 4980, Note_on_c, 0, 59, 0
3, 4980, Note_on_c, 0, 56, 45
3, 4983, Control_c, 0, 64, 0
3, 5040, Note_on_c, 0, 56, 0
3, 5040, Control_c, 0, 64, 127
3, 5040, Note_on_c, 0, 58, 38
3, 5100, Note_on_c, 0, 58, 0
3, 5100, Note_on_c, 0, 54, 31
3, 5160, Note_on_c, 0, 54, 0
3, 5160, Note_on_c, 0, 49, 36
3, 5220, Note_on_c, 0, 49, 0
3, 5220, Note_on_c, 0, 42, 30
3, 5280, Note_on_c, 0, 42, 0
3, 5280, Note_on_c, 0, 49, 34
3, 5340, Note_on_c, 0, 49, 0
3, 5340, Note_on_c, 0, 54, 34
3, 5376, Control_c, 0, 64, 0
3, 5400, Note_on_c, 0, 54, 0
3, 5400, Note_on_c, 0, 58, 36
3, 5400, Control_c, 0, 64, 127
3, 5460, Note_on_c, 0, 58, 0
3, 5460, Note_on_c, 0, 54, 33
3, 5520, Note_on_c, 0, 54, 0
3, 5520, Note_on_c, 0, 49, 35
3, 5580, Note_on_c, 0, 49, 0
3, 5580, Note_on_c, 0, 42, 31
3, 5640, Note_on_c, 0, 42, 0
3, 5640, Note_on_c, 0, 49, 32
3, 5700, Note_on_c, 0, 49, 0
3, 5700, Note_on_c, 0, 54, 30
3, 5740, Control_c, 0, 64, 0
3, 5760, Note_on_c, 0, 54, 0
3, 5760, Note_on_c, 0, 35, 35
3, 5763, Control_c, 0, 64, 127
3, 5820, Note_on_c, 0, 35, 0
3, 5820, Note_on_c, 0, 42, 32
3, 5880, Note_on_c, 0, 42, 0
3, 5880, Note_on_c, 0, 47, 36
3, 5940, Note_on_c, 0, 47, 0
3, 5940, Note_on_c, 0, 54, 31
3, 6000, Note_on_c, 0, 54, 0
3, 6000, Note_on_c, 0, 51, 37
3, 6060, Note_on_c, 0, 51, 0
3, 6060, Note_on_c, 0, 59, 33
3, 6080, Control_c, 0, 64, 0
3, 6120, Note_on_c, 0, 59, 0
3, 6120, Note_on_c, 0, 62, 27
3, 6180, Note_on_c, 0, 62, 0
3, 6180, Note_on_c, 0, 63, 27
3, 6240, Note_on_c, 0, 63, 0
3, 6240, Note_on_c, 0, 64, 29
3, 6300, Note_on_c, 0, 64, 0
3, 6300, Note_on_c, 0, 63, 27
3, 6360, Note_on_c, 0, 63, 0
3, 6360, Note_on_c, 0, 61, 30
3, 6420, Note_on_c, 0, 61, 0
3, 6420, Note_on_c, 0, 59, 29
3, 6480, Note_on_c, 0, 59, 0
3, 6480, Note_on_c, 0, 58, 36
3, 6480, Control_c, 0, 64, 127
3, 6540, Note_on_c, 0, 58, 0
3, 6600, Note_on_c, 0, 49, 30
3, 6660, Note_on_c, 0, 49, 0
3, 6660, Note_on_c, 0, 42, 30
3, 6720, Note_on_c, 0, 42, 0
3, 6720, Note_on_c, 0, 49, 30
3, 6780, Note_on_c, 0, 49, 0
3, 6780, Note_on_c, 0, 54, 30
3, 6840, Note_on_c, 0, 54, 0
3, 6840, Note_on_c, 0, 58, 35
3, 6900, Note_on_c, 0, 58, 0
3, 6900, Note_on_c, 0, 54, 29
3, 6960, Note_on_c, 0, 54, 0
3, 6960, Note_on_c, 0, 49, 34
3, 7020, Note_on_c, 0, 49, 0
3, 7020, Note_on_c, 0, 42, 31
3, 7080, Note_on_c, 0, 42, 0
3, 7080, Note_on_c, 0, 49, 31
3, 7136, Control_c, 0, 64, 0
3, 7140, Note_on_c, 0, 49, 0
3, 7140, Note_on_c, 0, 58, 34
3, 7200, Note_on_c, 0, 58, 0
3, 7200, Note_on_c, 0, 47, 33
3, 7200, Note_on_c, 0, 54, 33
3, 7200, Control_c, 0, 64, 127
3, 7200, Note_on_c, 0, 63, 39
3, 7560, Note_on_c, 0, 63, 0
3, 7560, Note_on_c, 0, 54, 0
3, 7560, Note_on_c, 0, 47, 0
3, 7823, Control_c, 0, 64, 0
3, 8100, Note_on_c, 0, 58, 32
3, 8100, Note_on_c, 0, 51, 27
3, 8280, Note_on_c, 0, 51, 0
3, 8280, Note_on_c, 0, 58, 0
3, 8280, Note_on_c, 0, 56, 29
3, 8280, Note_on_c, 0, 59, 35
3, 8289, Control_c, 0, 64, 127
3, 8410, Control_c, 0, 64, 0
3, 8460, Note_on_c, 0, 59, 0
3, 8460, Note_on_c, 0, 56, 0
3, 8460, Note_on_c, 0, 54, 29
3, 8460, Control_c, 0, 64, 127
3, 8460, Note_on_c, 0, 58, 35
3, 8597, Control_c, 0, 64, 0
3, 8640, Note_on_c, 0, 58, 0
3, 8640, Note_on_c, 0, 54, 0
3, 8640, Note_on_c, 0, 54, 32
3, 8640, Note_on_c, 0, 47, 27
3, 8660, Control_c, 0, 64, 127
3, 9000, Note_on_c, 0, 47, 0
3, 9000, Note_on_c, 0, 54, 0
3, 9000, Note_on_c, 0, 35, 26
3, 9000, Note_on_c, 0, 47, 31
3, 9000, Note_on_c, 0, 54, 31
3, 9180, Note_on_c, 0, 47, 0
3, 9180, Note_on_c, 0, 35, 0
3, 9180, Note_on_c, 0, 42, 31
3, 9180, Note_on_c, 0, 30, 26
3, 9360, Note_on_c, 0, 30, 0
3, 9360, Note_on_c, 0, 42, 0
3, 9360, Note_on_c, 0, 54, 0
3, 9360, Note_on_c, 0, 59, 31
3, 9360, Note_on_c, 0, 47, 26
3, 9360, Note_on_c, 0, 35, 26
3, 9360, Note_on_c, 0, 54, 31
3, 9647, Control_c, 0, 64, 0
3, 9720, Note_on_c, 0, 54, 0
3, 9720, Note_on_c, 0, 59, 0
3, 9720, Note_on_c, 0, 47, 0
3, 9720, Note_on_c, 0, 35, 0
3, 9720, End_track
4, 0, Start_track
4, 0, MIDI_port, 0
4, 0, Title_t, "Chopin: Prelude No.11 in B, Op. 28"
4, 0, End_track
5, 0, Start_track
5, 0, MIDI_port, 0
5, 0, Title_t, "Copyright \251 1997 by Bernd Krueger"
5, 0, End_track
6, 0, Start_track
6, 0, MIDI_port, 0
6, 0, Title_t, "email: bernd.krueger@piano-midi.de"
6, 0, End_track
7, 0, Start_track
7, 0, MIDI_port, 0
7, 0, Title_t, "http://www.piano-midi.de"
7, 0, End_track
8, 0, Start_track
8, 0, MIDI_port, 0
8, 0, Title_t, "Edition: 14.4.99"
8, 0, End_track
0, 0, End_of_file