0, 0, Header, 1, 7, 120
1, 0, Start_track
1, 0, Title_t, "Etude Op.10 n.11 in Gb maj"
1, 0, Copyright_t, "Copyright \251 1996 by Gabriele Giulimondi - giulim@mclink.it"
1, 0, Text_t, "Chopin F.\012"
1, 0, SMPTE_offset, 96, 0, 3, 0, 0
1, 0, Time_signature, 4, 2, 24, 8
1, 0, Key_signature, 0, "major"
1, 0, Tempo, 600000
1, 0, End_track
2, 0, Start_track
2, 0, MIDI_port, 0
2, 0, Title_t, "Chopin F."
2, 0, Program_c, 0, 0
2, 0, Control_c, 0, 7, 127
2, 0, Control_c, 0, 121, 0
2, 0, Control_c, 0, 93, 0
2, 0, Control_c, 0, 7, 127
2, 0, Note_on_c, 0, 82, 84
2, 22, Control_c, 0, 64, 127
2, 60, Note_on_c, 0, 70, 34
2, 78, Note_on_c, 0, 70, 0
2, 84, Note_on_c, 0, 79, 57
2, 96, Control_c, 0, 64, 0
2, 106, Note_on_c, 0, 82, 0
2, 111, Note_on_c, 0, 39, 51
2, 122, Note_on_c, 0, 39, 0
2, 135, Note_on_c, 0, 79, 0
2, 140, Note_on_c, 0, 87, 83
2, 182, Note_on_c, 0, 87, 0
2, 197, Note_on_c, 0, 51, 46
2, 218, Note_on_c, 0, 58, 63
2, 222, Note_on_c, 0, 51, 0
2, 232, Note_on_c, 0, 70, 34
2, 248, Note_on_c, 0, 67, 45
2, 254, Note_on_c, 0, 70, 0
2, 255, Note_on_c, 0, 79, 49
2, 260, Note_on_c, 0, 67, 0
2, 264, Note_on_c, 0, 82, 91
2, 277, Note_on_c, 0, 58, 0
2, 284, Note_on_c, 0, 79, 0
2, 302, Note_on_c, 0, 51, 46
2, 314, Note_on_c, 0, 70, 71
2, 317, Control_c, 0, 64, 0
2, 324, Note_on_c, 0, 58, 62
2, 332, Note_on_c, 0, 51, 0
2, 333, Note_on_c, 0, 70, 0
2, 336, Note_on_c, 0, 79, 71
2, 342, Note_on_c, 0, 82, 0
2, 342, Control_c, 0, 64, 127
2, 346, Note_on_c, 0, 67, 71
2, 348, Note_on_c, 0, 81, 98
2, 354, Note_on_c, 0, 67, 0
2, 364, Note_on_c, 0, 79, 0
2, 369, Note_on_c, 0, 58, 0
2, 386, Note_on_c, 0, 51, 64
2, 388, Note_on_c, 0, 81, 0
2, 392, Note_on_c, 0, 70, 70
2, 398, Note_on_c, 0, 51, 0
2, 399, Note_on_c, 0, 58, 15
2, 413, Note_on_c, 0, 70, 0
2, 413, Note_on_c, 0, 79, 69
2, 420, Note_on_c, 0, 67, 68
2, 423, Note_on_c, 0, 82, 101
2, 428, Note_on_c, 0, 67, 0
2, 439, Note_on_c, 0, 79, 0
2, 443, Note_on_c, 0, 58, 0
2, 460, Note_on_c, 0, 51, 62
2, 462, Note_on_c, 0, 70, 68
2, 466, Note_on_c, 0, 82, 0
2, 472, Note_on_c, 0, 51, 0
2, 473, Note_on_c, 0, 58, 38
2, 474, Note_on_c, 0, 70, 0
2, 484, Note_on_c, 0, 79, 79
2, 496, Note_on_c, 0, 67, 73
2, 498, Note_on_c, 0, 84, 105
2, 504, Note_on_c, 0, 67, 0
2, 508, Note_on_c, 0, 79, 0
2, 514, Note_on_c, 0, 58, 0
2, 522, Note_on_c, 0, 84, 0
2, 534, Note_on_c, 0, 51, 60
2, 546, Note_on_c, 0, 70, 73
2, 548, Note_on_c, 0, 51, 0
2, 548, Note_on_c, 0, 58, 74
2, 560, Note_on_c, 0, 58, 0
2, 560, Note_on_c, 0, 70, 0
2, 569, Note_on_c, 0, 79, 80
2, 570, Note_on_c, 0, 67, 75
2, 579, Note_on_c, 0, 67, 0
2, 582, Note_on_c, 0, 82, 100
2, 591, Note_on_c, 0, 79, 0
2, 604, Note_on_c, 0, 50, 80
2, 610, Control_c, 0, 64, 0
2, 620, Note_on_c, 0, 70, 87
2, 633, Note_on_c, 0, 70, 0
2, 638, Note_on_c, 0, 50, 0
2, 640, Note_on_c, 0, 58, 71
2, 644, Note_on_c, 0, 80, 84
2, 646, Control_c, 0, 64, 127
2, 650, Note_on_c, 0, 82, 0
2, 654, Note_on_c, 0, 80, 0
2, 656, Note_on_c, 0, 58, 0
2, 675, Note_on_c, 0, 68, 67
2, 687, Note_on_c, 0, 89, 95
2, 689, Note_on_c, 0, 68, 0
2, 694, Note_on_c, 0, 89, 0
2, 732, Note_on_c, 0, 50, 66
2, 741, Note_on_c, 0, 50, 0
2, 750, Note_on_c, 0, 70, 66
2, 754, Note_on_c, 0, 58, 51
2, 768, Note_on_c, 0, 70, 0
2, 769, Note_on_c, 0, 58, 0
2, 772, Note_on_c, 0, 80, 65
2, 778, Note_on_c, 0, 68, 65
2, 786, Note_on_c, 0, 82, 95
2, 791, Note_on_c, 0, 68, 0
2, 798, Note_on_c, 0, 80, 0
2, 820, Note_on_c, 0, 82, 0
2, 821, Note_on_c, 0, 50, 51
2, 831, Note_on_c, 0, 50, 0
2, 831, Note_on_c, 0, 70, 76
2, 842, Note_on_c, 0, 58, 84
2, 843, Note_on_c, 0, 70, 0
2, 847, Note_on_c, 0, 80, 65
2, 850, Note_on_c, 0, 58, 0
2, 863, Note_on_c, 0, 81, 91
2, 866, Note_on_c, 0, 68, 67
2, 872, Note_on_c, 0, 80, 0
2, 876, Note_on_c, 0, 68, 0
2, 898, Note_on_c, 0, 50, 79
2, 900, Note_on_c, 0, 70, 67
2, 909, Note_on_c, 0, 50, 0
2, 918, Note_on_c, 0, 70, 0
2, 919, Note_on_c, 0, 81, 0
2, 927, Note_on_c, 0, 80, 66
2, 927, Note_on_c, 0, 58, 29
2, 940, Note_on_c, 0, 58, 0
2, 944, Note_on_c, 0, 68, 88
2, 945, Note_on_c, 0, 82, 106
2, 952, Note_on_c, 0, 68, 0
2, 954, Note_on_c, 0, 80, 0
2, 974, Note_on_c, 0, 50, 82
2, 975, Note_on_c, 0, 70, 87
2, 983, Note_on_c, 0, 50, 0
2, 989, Note_on_c, 0, 70, 0
2, 989, Note_on_c, 0, 82, 0
2, 990, Note_on_c, 0, 58, 67
2, 996, Note_on_c, 0, 80, 72
2, 1004, Note_on_c, 0, 58, 0
2, 1012, Note_on_c, 0, 68, 86
2, 1013, Note_on_c, 0, 84, 108
2, 1020, Note_on_c, 0, 68, 0
2, 1026, Note_on_c, 0, 80, 0
2, 1036, Note_on_c, 0, 84, 0
2, 1050, Note_on_c, 0, 50, 49
2, 1056, Note_on_c, 0, 70, 87
2, 1062, Note_on_c, 0, 50, 0
2, 1064, Note_on_c, 0, 58, 53
2, 1070, Note_on_c, 0, 70, 0
2, 1071, Note_on_c, 0, 80, 75
2, 1076, Note_on_c, 0, 58, 0
2, 1082, Note_on_c, 0, 82, 107
2, 1083, Note_on_c, 0, 68, 83
2, 1090, Note_on_c, 0, 68, 0
2, 1094, Note_on_c, 0, 80, 0
2, 1106, Control_c, 0, 64, 0
2, 1114, Note_on_c, 0, 51, 83
2, 1115, Note_on_c, 0, 70, 86
2, 1128, Note_on_c, 0, 70, 0
2, 1132, Note_on_c, 0, 51, 0
2, 1134, Note_on_c, 0, 79, 76
2, 1136, Note_on_c, 0, 82, 0
2, 1138, Note_on_c, 0, 58, 72
2, 1142, Control_c, 0, 64, 127
2, 1144, Note_on_c, 0, 79, 0
2, 1160, Note_on_c, 0, 58, 0
2, 1164, Note_on_c, 0, 67, 62
2, 1176, Note_on_c, 0, 67, 0
2, 1177, Note_on_c, 0, 91, 101
2, 1184, Note_on_c, 0, 91, 0
2, 1214, Note_on_c, 0, 53, 34
2, 1228, Note_on_c, 0, 74, 75
2, 1230, Note_on_c, 0, 58, 74
2, 1234, Note_on_c, 0, 53, 0
2, 1240, Note_on_c, 0, 74, 0
2, 1248, Note_on_c, 0, 82, 75
2, 1252, Note_on_c, 0, 58, 0
2, 1259, Note_on_c, 0, 86, 95
2, 1260, Note_on_c, 0, 62, 19
2, 1263, Note_on_c, 0, 68, 69
2, 1266, Note_on_c, 0, 86, 0
2, 1270, Note_on_c, 0, 82, 0
2, 1274, Note_on_c, 0, 62, 0
2, 1278, Note_on_c, 0, 68, 0
2, 1298, Note_on_c, 0, 70, 85
2, 1299, Note_on_c, 0, 55, 74
2, 1306, Note_on_c, 0, 70, 0
2, 1315, Control_c, 0, 64, 0
2, 1315, Note_on_c, 0, 58, 63
2, 1326, Note_on_c, 0, 63, 68
2, 1330, Note_on_c, 0, 82, 83
2, 1342, Note_on_c, 0, 82, 0
2, 1344, Note_on_c, 0, 67, 72
2, 1347, Note_on_c, 0, 63, 0
2, 1347, Control_c, 0, 64, 127
2, 1350, Note_on_c, 0, 87, 92
2, 1354, Note_on_c, 0, 67, 0
2, 1358, Note_on_c, 0, 87, 0
2, 1363, Note_on_c, 0, 58, 0
2, 1364, Note_on_c, 0, 55, 0
2, 1390, Note_on_c, 0, 43, 87
2, 1398, Note_on_c, 0, 71, 52
2, 1402, Note_on_c, 0, 43, 0
2, 1408, Note_on_c, 0, 71, 0
2, 1410, Note_on_c, 0, 51, 80
2, 1412, Note_on_c, 0, 75, 62
2, 1420, Note_on_c, 0, 75, 0
2, 1422, Note_on_c, 0, 51, 0
2, 1424, Note_on_c, 0, 59, 72
2, 1430, Note_on_c, 0, 86, 91
2, 1434, Note_on_c, 0, 59, 0
2, 1444, Note_on_c, 0, 86, 0
2, 1458, Note_on_c, 0, 44, 87
2, 1470, Control_c, 0, 64, 0
2, 1471, Note_on_c, 0, 72, 85
2, 1486, Note_on_c, 0, 51, 81
2, 1488, Note_on_c, 0, 72, 0
2, 1489, Note_on_c, 0, 75, 75
2, 1494, Note_on_c, 0, 44, 0
2, 1499, Control_c, 0, 64, 127
2, 1500, Note_on_c, 0, 75, 0
2, 1502, Note_on_c, 0, 84, 100
2, 1504, Note_on_c, 0, 60, 81
2, 1512, Note_on_c, 0, 60, 0
2, 1514, Note_on_c, 0, 51, 0
2, 1530, Control_c, 0, 64, 0
2, 1530, Note_on_c, 0, 72, 89
2, 1536, Note_on_c, 0, 45, 94
2, 1537, Note_on_c, 0, 84, 0
2, 1548, Note_on_c, 0, 72, 0
2, 1549, Note_on_c, 0, 45, 0
2, 1550, Note_on_c, 0, 77, 80
2, 1552, Note_on_c, 0, 53, 73
2, 1558, Note_on_c, 0, 77, 0
2, 1559, Control_c, 0, 64, 127
2, 1563, Note_on_c, 0, 53, 0
2, 1576, Note_on_c, 0, 63, 87
2, 1578, Note_on_c, 0, 89, 85
2, 1586, Note_on_c, 0, 89, 0
2, 1587, Note_on_c, 0, 63, 0
2, 1610, Note_on_c, 0, 46, 98
2, 1616, Note_on_c, 0, 70, 60
2, 1628, Note_on_c, 0, 70, 0
2, 1630, Note_on_c, 0, 46, 0
2, 1637, Note_on_c, 0, 55, 61
2, 1638, Note_on_c, 0, 79, 76
2, 1650, Note_on_c, 0, 63, 86
2, 1651, Note_on_c, 0, 87, 103
2, 1666, Note_on_c, 0, 63, 0
2, 1679, Note_on_c, 0, 87, 0
2, 1680, Control_c, 0, 64, 127
2, 1681, Note_on_c, 0, 55, 0
2, 1684, Note_on_c, 0, 79, 0
2, 1687, Note_on_c, 0, 46, 97
2, 1694, Note_on_c, 0, 72, 82
2, 1695, Note_on_c, 0, 46, 0
2, 1702, Note_on_c, 0, 72, 0
2, 1702, Note_on_c, 0, 54, 59
2, 1711, Note_on_c, 0, 78, 63
2, 1721, Note_on_c, 0, 78, 0
2, 1723, Note_on_c, 0, 57, 50
2, 1723, Note_on_c, 0, 81, 80
2, 1728, Note_on_c, 0, 54, 0
2, 1728, Note_on_c, 0, 87, 101
2, 1732, Note_on_c, 0, 63, 70
2, 1735, Note_on_c, 0, 57, 0
2, 1740, Note_on_c, 0, 63, 0
2, 1743, Note_on_c, 0, 87, 0
2, 1754, Note_on_c, 0, 81, 0
2, 1760, Note_on_c, 0, 46, 83
2, 1767, Note_on_c, 0, 70, 93
2, 1771, Note_on_c, 0, 46, 0
2, 1775, Note_on_c, 0, 53, 68
2, 1776, Control_c, 0, 64, 0
2, 1779, Note_on_c, 0, 70, 0
2, 1785, Note_on_c, 0, 77, 76
2, 1791, Note_on_c, 0, 53, 0
2, 1793, Note_on_c, 0, 77, 0
2, 1796, Note_on_c, 0, 82, 89
2, 1799, Note_on_c, 0, 58, 71
2, 1799, Note_on_c, 0, 86, 110
2, 1802, Control_c, 0, 64, 127
2, 1802, Note_on_c, 0, 62, 80
2, 1813, Note_on_c, 0, 62, 0
2, 1813, Note_on_c, 0, 86, 0
2, 1825, Note_on_c, 0, 58, 0
2, 1826, Note_on_c, 0, 82, 0
2, 1839, Note_on_c, 0, 48, 78
2, 1841, Note_on_c, 0, 70, 85
2, 1849, Note_on_c, 0, 48, 0
2, 1851, Note_on_c, 0, 70, 0
2, 1852, Note_on_c, 0, 55, 70
2, 1858, Note_on_c, 0, 76, 69
2, 1863, Control_c, 0, 64, 0
2, 1867, Note_on_c, 0, 76, 0
2, 1868, Note_on_c, 0, 85, 97
2, 1868, Note_on_c, 0, 79, 52
2, 1870, Note_on_c, 0, 58, 71
2, 1875, Note_on_c, 0, 64, 83
2, 1877, Note_on_c, 0, 55, 0
2, 1884, Note_on_c, 0, 64, 0
2, 1884, Control_c, 0, 64, 127
2, 1887, Note_on_c, 0, 85, 0
2, 1899, Note_on_c, 0, 79, 0
2, 1900, Note_on_c, 0, 58, 0
2, 1904, Note_on_c, 0, 48, 88
2, 1906, Note_on_c, 0, 68, 76
2, 1916, Note_on_c, 0, 68, 0
2, 1918, Note_on_c, 0, 48, 0
2, 1926, Note_on_c, 0, 56, 79
2, 1929, Note_on_c, 0, 77, 62
2, 1935, Note_on_c, 0, 80, 66
2, 1938, Note_on_c, 0, 77, 0
2, 1938, Control_c, 0, 64, 0
2, 1946, Note_on_c, 0, 84, 92
2, 1946, Note_on_c, 0, 65, 91
2, 1956, Note_on_c, 0, 80, 0
2, 1962, Note_on_c, 0, 65, 0
2, 1971, Control_c, 0, 64, 127
2, 1975, Note_on_c, 0, 56, 0
2, 1980, Note_on_c, 0, 72, 85
2, 1986, Note_on_c, 0, 84, 0
2, 1990, Note_on_c, 0, 72, 0
2, 1990, Note_on_c, 0, 48, 70
2, 1998, Note_on_c, 0, 79, 48
2, 2004, Note_on_c, 0, 48, 0
2, 2007, Control_c, 0, 64, 0
2, 2012, Note_on_c, 0, 82, 70
2, 2024, Note_on_c, 0, 60, 63
2, 2027, Note_on_c, 0, 79, 0
2, 2028, Note_on_c, 0, 88, 88
2, 2036, Note_on_c, 0, 60, 0
2, 2038, Control_c, 0, 64, 127
2, 2046, Note_on_c, 0, 88, 0
2, 2046, Note_on_c, 0, 67, 77
2, 2055, Note_on_c, 0, 67, 0
2, 2068, Note_on_c, 0, 72, 61
2, 2086, Note_on_c, 0, 82, 0
2, 2089, Note_on_c, 0, 72, 0
2, 2092, Note_on_c, 0, 80, 69
2, 2118, Note_on_c, 0, 41, 54
2, 2124, Control_c, 0, 64, 0
2, 2141, Note_on_c, 0, 89, 79
2, 2154, Note_on_c, 0, 41, 0
2, 2159, Control_c, 0, 64, 127
2, 2166, Note_on_c, 0, 89, 0
2, 2176, Note_on_c, 0, 80, 0
2, 2202, Note_on_c, 0, 53, 40
2, 2211, Note_on_c, 0, 72, 64
2, 2216, Note_on_c, 0, 53, 0
2, 2221, Note_on_c, 0, 60, 44
2, 2223, Note_on_c, 0, 72, 0
2, 2234, Note_on_c, 0, 60, 0
2, 2234, Note_on_c, 0, 80, 61
2, 2251, Note_on_c, 0, 84, 88
2, 2251, Note_on_c, 0, 68, 52
2, 2262, Note_on_c, 0, 68, 0
2, 2283, Note_on_c, 0, 84, 0
2, 2292, Note_on_c, 0, 80, 0
2, 2303, Note_on_c, 0, 71, 46
2, 2313, Note_on_c, 0, 71, 0
2, 2314, Note_on_c, 0, 60, 40
2, 2316, Note_on_c, 0, 80, 41
2, 2326, Note_on_c, 0, 83, 80
2, 2328, Note_on_c, 0, 68, 56
2, 2331, Note_on_c, 0, 60, 0
2, 2343, Note_on_c, 0, 80, 0
2, 2343, Note_on_c, 0, 68, 0
2, 2364, Note_on_c, 0, 53, 39
2, 2366, Note_on_c, 0, 83, 0
2, 2374, Note_on_c, 0, 72, 61
2, 2378, Note_on_c, 0, 53, 0
2, 2383, Note_on_c, 0, 60, 51
2, 2384, Note_on_c, 0, 72, 0
2, 2390, Note_on_c, 0, 80, 73
2, 2400, Note_on_c, 0, 84, 100
2, 2401, Note_on_c, 0, 68, 65
2, 2412, Note_on_c, 0, 60, 0
2, 2413, Note_on_c, 0, 68, 0
2, 2417, Note_on_c, 0, 80, 0
2, 2435, Note_on_c, 0, 53, 58
2, 2442, Note_on_c, 0, 73, 78
2, 2445, Note_on_c, 0, 53, 0
2, 2448, Note_on_c, 0, 84, 0
2, 2452, Note_on_c, 0, 60, 51
2, 2454, Note_on_c, 0, 73, 0
2, 2457, Note_on_c, 0, 80, 64
2, 2470, Note_on_c, 0, 85, 97
2, 2472, Note_on_c, 0, 68, 61
2, 2476, Note_on_c, 0, 60, 0
2, 2482, Note_on_c, 0, 80, 0
2, 2485, Note_on_c, 0, 68, 0
2, 2507, Note_on_c, 0, 53, 45
2, 2513, Note_on_c, 0, 85, 0
2, 2521, Note_on_c, 0, 53, 0
2, 2521, Note_on_c, 0, 72, 64
2, 2528, Note_on_c, 0, 60, 27
2, 2530, Note_on_c, 0, 72, 0
2, 2537, Note_on_c, 0, 80, 65
2, 2540, Note_on_c, 0, 68, 68
2, 2546, Note_on_c, 0, 60, 0
2, 2547, Note_on_c, 0, 84, 98
2, 2549, Note_on_c, 0, 68, 0
2, 2555, Note_on_c, 0, 80, 0
2, 2573, Note_on_c, 0, 52, 70
2, 2577, Control_c, 0, 64, 0
2, 2580, Note_on_c, 0, 72, 67
2, 2596, Note_on_c, 0, 72, 0
2, 2599, Note_on_c, 0, 52, 0
2, 2599, Note_on_c, 0, 58, 68
2, 2602, Note_on_c, 0, 79, 53
2, 2613, Control_c, 0, 64, 127
2, 2615, Note_on_c, 0, 79, 0
2, 2615, Note_on_c, 0, 82, 75
2, 2616, Note_on_c, 0, 84, 0
2, 2621, Note_on_c, 0, 58, 0
2, 2621, Note_on_c, 0, 60, 27
2, 2625, Note_on_c, 0, 82, 0
2, 2632, Note_on_c, 0, 60, 0
2, 2649, Note_on_c, 0, 67, 49
2, 2650, Note_on_c, 0, 91, 81
2, 2661, Note_on_c, 0, 91, 0
2, 2661, Note_on_c, 0, 67, 0
2, 2687, Note_on_c, 0, 52, 50
2, 2703, Note_on_c, 0, 58, 60
2, 2705, Note_on_c, 0, 52, 0
2, 2717, Note_on_c, 0, 72, 58
2, 2719, Note_on_c, 0, 58, 0
2, 2725, Note_on_c, 0, 60, 36
2, 2728, Note_on_c, 0, 72, 0
2, 2730, Note_on_c, 0, 79, 36
2, 2736, Note_on_c, 0, 82, 57
2, 2739, Note_on_c, 0, 60, 0
2, 2742, Note_on_c, 0, 67, 54
2, 2743, Note_on_c, 0, 79, 0
2, 2745, Note_on_c, 0, 84, 93
2, 2753, Note_on_c, 0, 67, 0
2, 2753, Note_on_c, 0, 82, 0
2, 2767, Note_on_c, 0, 84, 0
2, 2776, Note_on_c, 0, 52, 57
2, 2789, Note_on_c, 0, 52, 0
2, 2789, Note_on_c, 0, 58, 76
2, 2791, Note_on_c, 0, 71, 30
2, 2801, Note_on_c, 0, 58, 0
2, 2803, Note_on_c, 0, 71, 0
2, 2809, Note_on_c, 0, 82, 70
2, 2813, Note_on_c, 0, 60, 36
2, 2813, Note_on_c, 0, 79, 55
2, 2819, Note_on_c, 0, 83, 84
2, 2822, Note_on_c, 0, 67, 63
2, 2825, Note_on_c, 0, 79, 0
2, 2827, Note_on_c, 0, 82, 0
2, 2827, Note_on_c, 0, 60, 0
2, 2833, Note_on_c, 0, 67, 0
2, 2856, Note_on_c, 0, 52, 63
2, 2859, Note_on_c, 0, 83, 0
2, 2867, Note_on_c, 0, 52, 0
2, 2867, Note_on_c, 0, 72, 59
2, 2871, Note_on_c, 0, 58, 71
2, 2879, Note_on_c, 0, 72, 0
2, 2883, Note_on_c, 0, 58, 0
2, 2883, Note_on_c, 0, 79, 51
2, 2886, Note_on_c, 0, 60, 43
2, 2889, Note_on_c, 0, 82, 69
2, 2891, Note_on_c, 0, 84, 106
2, 2894, Note_on_c, 0, 79, 0
2, 2897, Note_on_c, 0, 67, 79
2, 2900, Note_on_c, 0, 60, 0
2, 2905, Note_on_c, 0, 67, 0
2, 2907, Note_on_c, 0, 82, 0
2, 2934, Note_on_c, 0, 84, 0
2, 2934, Note_on_c, 0, 73, 62
2, 2935, Note_on_c, 0, 52, 61
2, 2943, Note_on_c, 0, 52, 0
2, 2943, Note_on_c, 0, 58, 68
2, 2943, Note_on_c, 0, 79, 72
2, 2947, Note_on_c, 0, 73, 0
2, 2954, Note_on_c, 0, 58, 0
2, 2955, Note_on_c, 0, 82, 76
2, 2957, Note_on_c, 0, 79, 0
2, 2961, Note_on_c, 0, 85, 103
2, 2969, Note_on_c, 0, 67, 70
2, 2977, Note_on_c, 0, 67, 0
2, 2978, Note_on_c, 0, 82, 0
2, 3005, Note_on_c, 0, 85, 0
2, 3005, Note_on_c, 0, 52, 61
2, 3009, Note_on_c, 0, 58, 68
2, 3011, Note_on_c, 0, 72, 55
2, 3015, Note_on_c, 0, 52, 0
2, 3024, Note_on_c, 0, 72, 0
2, 3029, Note_on_c, 0, 58, 0
2, 3029, Note_on_c, 0, 79, 50
2, 3037, Note_on_c, 0, 82, 63
2, 3039, Note_on_c, 0, 84, 105
2, 3041, Note_on_c, 0, 79, 0
2, 3043, Note_on_c, 0, 67, 41
2, 3049, Note_on_c, 0, 82, 0
2, 3057, Note_on_c, 0, 67, 0
2, 3060, Control_c, 0, 64, 0
2, 3069, Note_on_c, 0, 53, 52
2, 3070, Note_on_c, 0, 72, 91
2, 3082, Note_on_c, 0, 72, 0
2, 3086, Note_on_c, 0, 56, 56
2, 3093, Note_on_c, 0, 53, 0
2, 3093, Note_on_c, 0, 84, 0
2, 3095, Note_on_c, 0, 80, 62
2, 3103, Control_c, 0, 64, 127
2, 3107, Note_on_c, 0, 80, 0
2, 3107, Note_on_c, 0, 84, 88
2, 3113, Note_on_c, 0, 56, 0
2, 3116, Note_on_c, 0, 60, 46
2, 3117, Note_on_c, 0, 84, 0
2, 3129, Note_on_c, 0, 60, 0
2, 3143, Note_on_c, 0, 68, 59
2, 3145, Note_on_c, 0, 92, 100
2, 3151, Note_on_c, 0, 92, 0
2, 3157, Note_on_c, 0, 68, 0
2, 3184, Note_on_c, 0, 55, 30
2, 3193, Note_on_c, 0, 75, 62
2, 3199, Note_on_c, 0, 58, 56
2, 3203, Note_on_c, 0, 75, 0
2, 3213, Note_on_c, 0, 82, 73
2, 3223, Control_c, 0, 64, 0
2, 3224, Note_on_c, 0, 63, 35
2, 3227, Note_on_c, 0, 55, 0
2, 3227, Note_on_c, 0, 87, 52
2, 3236, Note_on_c, 0, 82, 0
2, 3241, Note_on_c, 0, 91, 95
2, 3247, Note_on_c, 0, 70, 75
2, 3249, Control_c, 0, 64, 127
2, 3259, Note_on_c, 0, 91, 0
2, 3259, Note_on_c, 0, 63, 0
2, 3265, Note_on_c, 0, 70, 0
2, 3269, Note_on_c, 0, 87, 0
2, 3282, Note_on_c, 0, 58, 0
2, 3285, Note_on_c, 0, 56, 54
2, 3291, Note_on_c, 0, 75, 35
2, 3294, Control_c, 0, 64, 0
2, 3302, Note_on_c, 0, 63, 39
2, 3304, Note_on_c, 0, 75, 0
2, 3310, Note_on_c, 0, 84, 44
2, 3311, Note_on_c, 0, 56, 0
2, 3313, Note_on_c, 0, 87, 72
2, 3320, Note_on_c, 0, 63, 0
2, 3321, Note_on_c, 0, 84, 0
2, 3323, Note_on_c, 0, 89, 89
2, 3326, Control_c, 0, 64, 127
2, 3331, Note_on_c, 0, 72, 80
2, 3338, Note_on_c, 0, 72, 0
2, 3346, Note_on_c, 0, 89, 0
2, 3355, Note_on_c, 0, 87, 0
2, 3369, Note_on_c, 0, 75, 50
2, 3379, Note_on_c, 0, 75, 0
2, 3380, Note_on_c, 0, 56, 57
2, 3389, Note_on_c, 0, 83, 38
2, 3392, Note_on_c, 0, 87, 62
2, 3396, Note_on_c, 0, 56, 0
2, 3397, Note_on_c, 0, 65, 51
2, 3402, Note_on_c, 0, 83, 0
2, 3406, Note_on_c, 0, 89, 94
2, 3411, Note_on_c, 0, 65, 0
2, 3412, Note_on_c, 0, 71, 56
2, 3423, Note_on_c, 0, 87, 0
2, 3426, Note_on_c, 0, 71, 0
2, 3430, Note_on_c, 0, 89, 0
2, 3446, Note_on_c, 0, 58, 69
2, 3452, Note_on_c, 0, 74, 54
2, 3466, Note_on_c, 0, 74, 0
2, 3467, Control_c, 0, 64, 0
2, 3470, Note_on_c, 0, 82, 65
2, 3471, Note_on_c, 0, 65, 46
2, 3480, Note_on_c, 0, 70, 81
2, 3488, Note_on_c, 0, 89, 88
2, 3492, Note_on_c, 0, 58, 0
2, 3493, Note_on_c, 0, 65, 0
2, 3493, Control_c, 0, 64, 127
2, 3497, Note_on_c, 0, 89, 0
2, 3504, Note_on_c, 0, 70, 0
2, 3511, Note_on_c, 0, 82, 0
2, 3516, Note_on_c, 0, 58, 49
2, 3522, Note_on_c, 0, 74, 70
2, 3532, Note_on_c, 0, 74, 0
2, 3534, Note_on_c, 0, 80, 68
2, 3540, Note_on_c, 0, 65, 39
2, 3544, Note_on_c, 0, 80, 0
2, 3552, Note_on_c, 0, 65, 0
2, 3557, Note_on_c, 0, 68, 65
2, 3560, Note_on_c, 0, 91, 87
2, 3566, Note_on_c, 0, 91, 0
2, 3586, Note_on_c, 0, 68, 0
2, 3592, Note_on_c, 0, 58, 0
2, 3596, Note_on_c, 0, 63, 49
2, 3605, Note_on_c, 0, 75, 54
2, 3612, Note_on_c, 0, 63, 0
2, 3622, Note_on_c, 0, 79, 63
2, 3624, Note_on_c, 0, 67, 43
2, 3638, Note_on_c, 0, 87, 76
2, 3640, Note_on_c, 0, 67, 0
2, 3650, Note_on_c, 0, 57, 35
2, 3668, Note_on_c, 0, 75, 0
2, 3671, Control_c, 0, 64, 0
2, 3672, Note_on_c, 0, 66, 55
2, 3676, Note_on_c, 0, 79, 0
2, 3681, Note_on_c, 0, 87, 0
2, 3693, Note_on_c, 0, 75, 48
2, 3698, Note_on_c, 0, 72, 61
2, 3708, Note_on_c, 0, 78, 58
2, 3716, Note_on_c, 0, 57, 0
2, 3717, Control_c, 0, 64, 127
2, 3720, Note_on_c, 0, 72, 0
2, 3721, Note_on_c, 0, 87, 81
2, 3740, Note_on_c, 0, 75, 0
2, 3741, Note_on_c, 0, 78, 0
2, 3741, Note_on_c, 0, 66, 0
2, 3742, Note_on_c, 0, 87, 0
2, 3756, Note_on_c, 0, 58, 54
2, 3772, Note_on_c, 0, 74, 55
2, 3772, Control_c, 0, 64, 0
2, 3773, Note_on_c, 0, 65, 42
2, 3778, Note_on_c, 0, 58, 0
2, 3779, Note_on_c, 0, 70, 70
2, 3781, Note_on_c, 0, 77, 68
2, 3783, Note_on_c, 0, 74, 0
2, 3788, Note_on_c, 0, 65, 0
2, 3790, Note_on_c, 0, 70, 0
2, 3792, Note_on_c, 0, 86, 88
2, 3796, Control_c, 0, 64, 127
2, 3800, Note_on_c, 0, 86, 0
2, 3823, Note_on_c, 0, 52, 65
2, 3825, Note_on_c, 0, 77, 0
2, 3834, Note_on_c, 0, 52, 0
2, 3843, Note_on_c, 0, 70, 58
2, 3850, Note_on_c, 0, 61, 40
2, 3854, Note_on_c, 0, 70, 0
2, 3856, Note_on_c, 0, 79, 76
2, 3858, Note_on_c, 0, 67, 66
2, 3869, Note_on_c, 0, 85, 81
2, 3876, Note_on_c, 0, 67, 0
2, 3882, Note_on_c, 0, 61, 0
2, 3885, Note_on_c, 0, 85, 0
2, 3896, Note_on_c, 0, 79, 0
2, 3903, Note_on_c, 0, 53, 62
2, 3913, Note_on_c, 0, 68, 75
2, 3920, Control_c, 0, 64, 0
2, 3924, Note_on_c, 0, 68, 0
2, 3926, Note_on_c, 0, 60, 46
2, 3930, Note_on_c, 0, 80, 62
2, 3944, Note_on_c, 0, 53, 0
2, 3946, Note_on_c, 0, 65, 65
2, 3952, Control_c, 0, 64, 127
2, 3954, Note_on_c, 0, 84, 95
2, 3955, Note_on_c, 0, 65, 0
2, 3957, Note_on_c, 0, 60, 0
2, 3968, Note_on_c, 0, 80, 0
2, 3972, Note_on_c, 0, 84, 0
2, 3990, Note_on_c, 0, 46, 73
2, 4008, Control_c, 0, 64, 0
2, 4009, Note_on_c, 0, 68, 56
2, 4014, Note_on_c, 0, 53, 62
2, 4018, Note_on_c, 0, 68, 0
2, 4026, Note_on_c, 0, 77, 67
2, 4034, Note_on_c, 0, 46, 0
2, 4035, Note_on_c, 0, 77, 0
2, 4038, Note_on_c, 0, 56, 35
2, 4040, Control_c, 0, 64, 127
2, 4054, Note_on_c, 0, 86, 95
2, 4060, Note_on_c, 0, 53, 0
2, 4068, Note_on_c, 0, 86, 0
2, 4069, Note_on_c, 0, 62, 32
2, 4082, Note_on_c, 0, 62, 0
2, 4094, Note_on_c, 0, 56, 0
2, 4112, Note_on_c, 0, 67, 50
2, 4126, Control_c, 0, 64, 0
2, 4138, Note_on_c, 0, 39, 57
2, 4144, Note_on_c, 0, 67, 0
2, 4145, Note_on_c, 0, 75, 58
2, 4168, Control_c, 0, 64, 127
2, 4170, Note_on_c, 0, 75, 0
2, 4179, Note_on_c, 0, 39, 0
2, 4201, Note_on_c, 0, 87, 68
2, 4232, Note_on_c, 0, 87, 0
2, 4256, Note_on_c, 0, 51, 41
2, 4285, Note_on_c, 0, 58, 44
2, 4287, Note_on_c, 0, 51, 0
2, 4290, Note_on_c, 0, 70, 57
2, 4317, Note_on_c, 0, 75, 40
2, 4322, Note_on_c, 0, 70, 0
2, 4329, Note_on_c, 0, 58, 0
2, 4331, Note_on_c, 0, 67, 57
2, 4333, Note_on_c, 0, 75, 0
2, 4337, Note_on_c, 0, 82, 85
2, 4341, Note_on_c, 0, 67, 0
2, 4377, Note_on_c, 0, 51, 51
2, 4381, Note_on_c, 0, 82, 0
2, 4381, Note_on_c, 0, 70, 65
2, 4389, Note_on_c, 0, 51, 0
2, 4393, Note_on_c, 0, 58, 67
2, 4395, Note_on_c, 0, 70, 0
2, 4401, Note_on_c, 0, 75, 47
2, 4405, Note_on_c, 0, 58, 0
2, 4413, Note_on_c, 0, 81, 97
2, 4415, Note_on_c, 0, 75, 0
2, 4417, Note_on_c, 0, 67, 54
2, 4427, Note_on_c, 0, 67, 0
2, 4451, Note_on_c, 0, 70, 61
2, 4452, Note_on_c, 0, 51, 73
2, 4463, Note_on_c, 0, 51, 0
2, 4463, Note_on_c, 0, 70, 0
2, 4467, Note_on_c, 0, 58, 57
2, 4467, Note_on_c, 0, 75, 63
2, 4471, Note_on_c, 0, 81, 0
2, 4483, Note_on_c, 0, 75, 0
2, 4485, Note_on_c, 0, 58, 0
2, 4485, Note_on_c, 0, 82, 99
2, 4487, Note_on_c, 0, 67, 80
2, 4497, Note_on_c, 0, 67, 0
2, 4517, Note_on_c, 0, 70, 79
2, 4527, Note_on_c, 0, 70, 0
2, 4529, Note_on_c, 0, 51, 53
2, 4539, Note_on_c, 0, 75, 56
2, 4539, Note_on_c, 0, 58, 73
2, 4541, Note_on_c, 0, 51, 0
2, 4541, Note_on_c, 0, 82, 0
2, 4549, Note_on_c, 0, 75, 0
2, 4550, Note_on_c, 0, 58, 0
2, 4555, Note_on_c, 0, 84, 104
2, 4561, Note_on_c, 0, 67, 75
2, 4571, Note_on_c, 0, 67, 0
2, 4579, Note_on_c, 0, 84, 0
2, 4593, Note_on_c, 0, 51, 53
2, 4604, Note_on_c, 0, 70, 62
2, 4605, Note_on_c, 0, 51, 0
2, 4613, Note_on_c, 0, 58, 65
2, 4617, Note_on_c, 0, 70, 0
2, 4621, Note_on_c, 0, 75, 60
2, 4625, Note_on_c, 0, 58, 0
2, 4633, Note_on_c, 0, 75, 0
2, 4635, Note_on_c, 0, 67, 51
2, 4637, Note_on_c, 0, 82, 103
2, 4647, Note_on_c, 0, 67, 0
2, 4661, Control_c, 0, 64, 0
2, 4667, Note_on_c, 0, 50, 81
2, 4685, Note_on_c, 0, 70, 66
2, 4693, Note_on_c, 0, 50, 0
2, 4697, Note_on_c, 0, 70, 0
2, 4699, Note_on_c, 0, 58, 74
2, 4707, Control_c, 0, 64, 127
2, 4709, Note_on_c, 0, 80, 73
2, 4711, Note_on_c, 0, 58, 0
2, 4717, Note_on_c, 0, 80, 0
2, 4717, Note_on_c, 0, 82, 0
2, 4733, Note_on_c, 0, 68, 61
2, 4745, Note_on_c, 0, 68, 0
2, 4747, Note_on_c, 0, 89, 97
2, 4763, Note_on_c, 0, 89, 0
2, 4785, Note_on_c, 0, 50, 66
2, 4797, Note_on_c, 0, 50, 0
2, 4803, Note_on_c, 0, 70, 52
2, 4815, Note_on_c, 0, 58, 28
2, 4823, Note_on_c, 0, 58, 0
2, 4827, Note_on_c, 0, 70, 0
2, 4829, Note_on_c, 0, 80, 65
2, 4835, Note_on_c, 0, 68, 59
2, 4845, Note_on_c, 0, 82, 95
2, 4847, Note_on_c, 0, 68, 0
2, 4851, Note_on_c, 0, 80, 0
2, 4877, Note_on_c, 0, 50, 42
2, 4883, Note_on_c, 0, 82, 0
2, 4887, Note_on_c, 0, 70, 69
2, 4891, Note_on_c, 0, 50, 0
2, 4892, Note_on_c, 0, 58, 80
2, 4901, Note_on_c, 0, 58, 0
2, 4906, Note_on_c, 0, 70, 0
2, 4906, Note_on_c, 0, 80, 64
2, 4919, Note_on_c, 0, 68, 62
2, 4922, Note_on_c, 0, 81, 99
2, 4931, Note_on_c, 0, 68, 0
2, 4931, Note_on_c, 0, 80, 0
2, 4961, Note_on_c, 0, 70, 58
2, 4962, Note_on_c, 0, 50, 22
2, 4971, Note_on_c, 0, 58, 80
2, 4973, Note_on_c, 0, 81, 0
2, 4974, Note_on_c, 0, 50, 0
2, 4979, Note_on_c, 0, 80, 75
2, 4981, Note_on_c, 0, 58, 0
2, 4983, Note_on_c, 0, 70, 0
2, 4997, Note_on_c, 0, 82, 106
2, 4998, Note_on_c, 0, 68, 66
2, 5007, Note_on_c, 0, 68, 0
2, 5011, Note_on_c, 0, 80, 0
2, 5031, Note_on_c, 0, 70, 84
2, 5033, Note_on_c, 0, 50, 53
2, 5043, Note_on_c, 0, 70, 0
2, 5045, Note_on_c, 0, 50, 0
2, 5046, Note_on_c, 0, 58, 68
2, 5047, Note_on_c, 0, 82, 0
2, 5055, Note_on_c, 0, 58, 0
2, 5055, Note_on_c, 0, 80, 76
2, 5069, Note_on_c, 0, 68, 83
2, 5071, Note_on_c, 0, 84, 107
2, 5081, Note_on_c, 0, 68, 0
2, 5081, Note_on_c, 0, 80, 0
2, 5097, Note_on_c, 0, 84, 0
2, 5106, Note_on_c, 0, 50, 53
2, 5117, Note_on_c, 0, 50, 0
2, 5121, Note_on_c, 0, 70, 73
2, 5123, Note_on_c, 0, 58, 58
2, 5135, Note_on_c, 0, 70, 0
2, 5137, Note_on_c, 0, 58, 0
2, 5139, Note_on_c, 0, 80, 70
2, 5149, Note_on_c, 0, 68, 48
2, 5153, Note_on_c, 0, 82, 100
2, 5155, Note_on_c, 0, 80, 0
2, 5163, Note_on_c, 0, 68, 0
2, 5177, Control_c, 0, 64, 0
2, 5183, Note_on_c, 0, 51, 63
2, 5187, Note_on_c, 0, 70, 73
2, 5199, Note_on_c, 0, 51, 0
2, 5207, Note_on_c, 0, 70, 0
2, 5209, Note_on_c, 0, 82, 0
2, 5209, Note_on_c, 0, 58, 63
2, 5209, Note_on_c, 0, 79, 76
2, 5211, Control_c, 0, 64, 127
2, 5221, Note_on_c, 0, 58, 0
2, 5225, Note_on_c, 0, 79, 0
2, 5227, Note_on_c, 0, 82, 61
2, 5237, Note_on_c, 0, 82, 0
2, 5239, Note_on_c, 0, 67, 62
2, 5251, Note_on_c, 0, 67, 0
2, 5261, Note_on_c, 0, 91, 94
2, 5269, Note_on_c, 0, 91, 0
2, 5291, Note_on_c, 0, 53, 50
2, 5303, Note_on_c, 0, 53, 0
2, 5309, Note_on_c, 0, 58, 59
2, 5313, Note_on_c, 0, 74, 61
2, 5323, Note_on_c, 0, 58, 0
2, 5331, Note_on_c, 0, 82, 69
2, 5333, Note_on_c, 0, 74, 0
2, 5334, Note_on_c, 0, 62, 57
2, 5343, Note_on_c, 0, 86, 92
2, 5345, Note_on_c, 0, 62, 0
2, 5345, Note_on_c, 0, 68, 55
2, 5355, Note_on_c, 0, 68, 0
2, 5355, Note_on_c, 0, 82, 0
2, 5375, Note_on_c, 0, 55, 75
2, 5379, Control_c, 0, 64, 0
2, 5383, Note_on_c, 0, 75, 60
2, 5393, Note_on_c, 0, 58, 63
2, 5395, Note_on_c, 0, 55, 0
2, 5401, Note_on_c, 0, 63, 75
2, 5405, Note_on_c, 0, 58, 0
2, 5406, Note_on_c, 0, 75, 0
2, 5406, Note_on_c, 0, 82, 83
2, 5407, Note_on_c, 0, 86, 0
2, 5411, Control_c, 0, 64, 127
2, 5412, Note_on_c, 0, 63, 0
2, 5415, Note_on_c, 0, 82, 0
2, 5427, Note_on_c, 0, 70, 89
2, 5427, Note_on_c, 0, 87, 95
2, 5435, Note_on_c, 0, 87, 0
2, 5436, Note_on_c, 0, 70, 0
2, 5467, Note_on_c, 0, 71, 72
2, 5477, Note_on_c, 0, 43, 44
2, 5478, Note_on_c, 0, 71, 0
2, 5485, Note_on_c, 0, 75, 64
2, 5489, Note_on_c, 0, 43, 0
2, 5495, Note_on_c, 0, 75, 0
2, 5495, Note_on_c, 0, 51, 29
2, 5507, Note_on_c, 0, 51, 0
2, 5507, Note_on_c, 0, 59, 65
2, 5507, Note_on_c, 0, 86, 103
2, 5515, Note_on_c, 0, 59, 0
2, 5517, Note_on_c, 0, 86, 0
2, 5537, Note_on_c, 0, 44, 77
2, 5555, Note_on_c, 0, 72, 43
2, 5561, Control_c, 0, 64, 0
2, 5563, Note_on_c, 0, 51, 80
2, 5565, Note_on_c, 0, 75, 73
2, 5567, Note_on_c, 0, 44, 0
2, 5569, Note_on_c, 0, 72, 0
2, 5579, Note_on_c, 0, 60, 82
2, 5581, Note_on_c, 0, 75, 0
2, 5581, Note_on_c, 0, 84, 97
2, 5591, Note_on_c, 0, 60, 0
2, 5593, Note_on_c, 0, 51, 0
2, 5597, Control_c, 0, 64, 127
2, 5607, Note_on_c, 0, 84, 0
2, 5611, Note_on_c, 0, 72, 92
2, 5611, Note_on_c, 0, 45, 89
2, 5625, Note_on_c, 0, 45, 0
2, 5629, Note_on_c, 0, 77, 85
2, 5630, Note_on_c, 0, 72, 0
2, 5635, Note_on_c, 0, 77, 0
2, 5636, Note_on_c, 0, 53, 32
2, 5649, Note_on_c, 0, 53, 0
2, 5652, Note_on_c, 0, 89, 108
2, 5653, Note_on_c, 0, 63, 83
2, 5659, Note_on_c, 0, 89, 0
2, 5665, Note_on_c, 0, 63, 0
2, 5689, Note_on_c, 0, 46, 91
2, 5693, Note_on_c, 0, 70, 50
2, 5707, Note_on_c, 0, 70, 0
2, 5709, Note_on_c, 0, 55, 59
2, 5711, Note_on_c, 0, 46, 0
2, 5713, Note_on_c, 0, 79, 77
2, 5725, Note_on_c, 0, 55, 0
2, 5725, Note_on_c, 0, 63, 72
2, 5729, Note_on_c, 0, 87, 101
2, 5733, Note_on_c, 0, 63, 0
2, 5741, Control_c, 0, 64, 0
2, 5757, Note_on_c, 0, 46, 92
2, 5761, Note_on_c, 0, 87, 0
2, 5765, Note_on_c, 0, 79, 0
2, 5767, Note_on_c, 0, 46, 0
2, 5773, Note_on_c, 0, 72, 55
2, 5774, Note_on_c, 0, 54, 62
2, 5775, Control_c, 0, 64, 127
2, 5787, Note_on_c, 0, 72, 0
2, 5789, Note_on_c, 0, 78, 68
2, 5799, Note_on_c, 0, 78, 0
2, 5799, Note_on_c, 0, 81, 84
2, 5800, Note_on_c, 0, 57, 50
2, 5805, Note_on_c, 0, 54, 0
2, 5806, Note_on_c, 0, 87, 101
2, 5807, Note_on_c, 0, 63, 49
2, 5809, Note_on_c, 0, 57, 0
2, 5819, Note_on_c, 0, 63, 0
2, 5823, Note_on_c, 0, 87, 0
2, 5833, Note_on_c, 0, 81, 0
2, 5837, Note_on_c, 0, 46, 65
2, 5845, Note_on_c, 0, 70, 89
2, 5849, Note_on_c, 0, 53, 70
2, 5850, Note_on_c, 0, 46, 0
2, 5853, Note_on_c, 0, 70, 0
2, 5862, Note_on_c, 0, 77, 65
2, 5867, Note_on_c, 0, 53, 0
2, 5869, Note_on_c, 0, 77, 0
2, 5871, Note_on_c, 0, 58, 62
2, 5875, Note_on_c, 0, 82, 85
2, 5875, Note_on_c, 0, 62, 60
2, 5879, Note_on_c, 0, 86, 104
2, 5887, Note_on_c, 0, 86, 0
2, 5887, Note_on_c, 0, 62, 0
2, 5895, Note_on_c, 0, 58, 0
2, 5909, Note_on_c, 0, 82, 0
2, 5915, Note_on_c, 0, 48, 69
2, 5917, Note_on_c, 0, 70, 88
2, 5923, Note_on_c, 0, 55, 63
2, 5927, Note_on_c, 0, 48, 0
2, 5929, Note_on_c, 0, 70, 0
2, 5930, Control_c, 0, 64, 0
2, 5935, Note_on_c, 0, 76, 69
2, 5943, Note_on_c, 0, 79, 65
2, 5945, Note_on_c, 0, 76, 0
2, 5945, Note_on_c, 0, 58, 79
2, 5947, Note_on_c, 0, 85, 100
2, 5951, Note_on_c, 0, 64, 75
2, 5957, Note_on_c, 0, 55, 0
2, 5961, Note_on_c, 0, 64, 0
2, 5962, Control_c, 0, 64, 127
2, 5971, Note_on_c, 0, 85, 0
2, 5981, Note_on_c, 0, 58, 0
2, 5981, Note_on_c, 0, 79, 0
2, 5983, Note_on_c, 0, 48, 82
2, 5987, Note_on_c, 0, 68, 75
2, 5991, Note_on_c, 0, 48, 0
2, 5997, Note_on_c, 0, 68, 0
2, 6003, Note_on_c, 0, 56, 83
2, 6009, Note_on_c, 0, 77, 46
2, 6013, Note_on_c, 0, 80, 73
2, 6021, Note_on_c, 0, 77, 0
2, 6023, Note_on_c, 0, 65, 87
2, 6025, Note_on_c, 0, 84, 102
2, 6030, Note_on_c, 0, 80, 0
2, 6033, Note_on_c, 0, 65, 0
2, 6037, Note_on_c, 0, 56, 0
2, 6063, Control_c, 0, 64, 0
2, 6068, Note_on_c, 0, 72, 37
2, 6068, Note_on_c, 0, 48, 76
2, 6075, Note_on_c, 0, 84, 0
2, 6079, Note_on_c, 0, 72, 0
2, 6085, Note_on_c, 0, 79, 55
2, 6086, Note_on_c, 0, 48, 0
2, 6086, Note_on_c, 0, 55, 65
2, 6097, Note_on_c, 0, 55, 0
2, 6101, Note_on_c, 0, 82, 83
2, 6103, Note_on_c, 0, 79, 0
2, 6105, Control_c, 0, 64, 127
2, 6111, Note_on_c, 0, 60, 26
2, 6119, Note_on_c, 0, 88, 92
2, 6123, Note_on_c, 0, 60, 0
2, 6127, Note_on_c, 0, 88, 0
2, 6131, Note_on_c, 0, 67, 69
2, 6139, Note_on_c, 0, 67, 0
2, 6155, Note_on_c, 0, 72, 81
2, 6175, Note_on_c, 0, 82, 0
2, 6177, Note_on_c, 0, 72, 0
2, 6181, Note_on_c, 0, 80, 72
2, 6199, Control_c, 0, 64, 0
2, 6201, Note_on_c, 0, 41, 56
2, 6231, Note_on_c, 0, 41, 0
2, 6232, Note_on_c, 0, 89, 82
2, 6233, Control_c, 0, 64, 127
2, 6243, Note_on_c, 0, 80, 0
2, 6249, Note_on_c, 0, 89, 0
2, 6279, Note_on_c, 0, 53, 27
2, 6291, Note_on_c, 0, 53, 0
2, 6295, Note_on_c, 0, 72, 51
2, 6301, Note_on_c, 0, 60, 40
2, 6315, Note_on_c, 0, 72, 0
2, 6318, Note_on_c, 0, 60, 0
2, 6318, Note_on_c, 0, 80, 62
2, 6327, Note_on_c, 0, 68, 44
2, 6331, Note_on_c, 0, 84, 87
2, 6339, Note_on_c, 0, 68, 0
2, 6349, Note_on_c, 0, 84, 0
2, 6355, Note_on_c, 0, 80, 0
2, 6367, Note_on_c, 0, 53, 46
2, 6377, Note_on_c, 0, 71, 52
2, 6379, Note_on_c, 0, 53, 0
2, 6389, Note_on_c, 0, 71, 0
2, 6390, Note_on_c, 0, 60, 47
2, 6393, Note_on_c, 0, 80, 50
2, 6403, Note_on_c, 0, 60, 0
2, 6406, Note_on_c, 0, 68, 60
2, 6409, Note_on_c, 0, 83, 72
2, 6417, Note_on_c, 0, 68, 0
2, 6421, Note_on_c, 0, 80, 0
2, 6443, Note_on_c, 0, 53, 58
2, 6445, Note_on_c, 0, 83, 0
2, 6449, Note_on_c, 0, 72, 72
2, 6453, Note_on_c, 0, 53, 0
2, 6463, Note_on_c, 0, 72, 0
2, 6465, Note_on_c, 0, 80, 76
2, 6467, Note_on_c, 0, 60, 26
2, 6480, Note_on_c, 0, 68, 69
2, 6481, Note_on_c, 0, 84, 102
2, 6487, Note_on_c, 0, 60, 0
2, 6491, Note_on_c, 0, 68, 0
2, 6493, Note_on_c, 0, 80, 0
2, 6514, Note_on_c, 0, 84, 0
2, 6515, Note_on_c, 0, 53, 50
2, 6521, Note_on_c, 0, 73, 78
2, 6527, Note_on_c, 0, 53, 0
2, 6535, Note_on_c, 0, 60, 41
2, 6539, Note_on_c, 0, 80, 61
2, 6541, Note_on_c, 0, 73, 0
2, 6549, Note_on_c, 0, 85, 101
2, 6550, Note_on_c, 0, 68, 71
2, 6557, Note_on_c, 0, 60, 0
2, 6561, Note_on_c, 0, 68, 0
2, 6563, Note_on_c, 0, 80, 0
2, 6583, Note_on_c, 0, 53, 63
2, 6587, Note_on_c, 0, 85, 0
2, 6593, Note_on_c, 0, 53, 0
2, 6599, Note_on_c, 0, 60, 44
2, 6601, Note_on_c, 0, 72, 59
2, 6613, Note_on_c, 0, 72, 0
2, 6619, Note_on_c, 0, 68, 62
2, 6621, Note_on_c, 0, 80, 76
2, 6629, Note_on_c, 0, 68, 0
2, 6631, Note_on_c, 0, 60, 0
2, 6631, Note_on_c, 0, 84, 89
2, 6639, Note_on_c, 0, 80, 0
2, 6658, Note_on_c, 0, 52, 67
2, 6658, Note_on_c, 0, 72, 88
2, 6659, Control_c, 0, 64, 0
2, 6679, Note_on_c, 0, 72, 0
2, 6683, Note_on_c, 0, 79, 59
2, 6686, Note_on_c, 0, 58, 63
2, 6692, Note_on_c, 0, 82, 91
2, 6694, Note_on_c, 0, 52, 0
2, 6696, Note_on_c, 0, 84, 0
2, 6696, Note_on_c, 0, 79, 0
2, 6697, Control_c, 0, 64, 127
2, 6701, Note_on_c, 0, 82, 0
2, 6703, Note_on_c, 0, 60, 50
2, 6716, Note_on_c, 0, 58, 0
2, 6721, Note_on_c, 0, 60, 0
2, 6726, Note_on_c, 0, 91, 92
2, 6729, Note_on_c, 0, 67, 69
2, 6733, Note_on_c, 0, 91, 0
2, 6738, Note_on_c, 0, 67, 0
2, 6765, Note_on_c, 0, 52, 66
2, 6775, Note_on_c, 0, 72, 53
2, 6778, Note_on_c, 0, 52, 0
2, 6781, Note_on_c, 0, 58, 73
2, 6793, Note_on_c, 0, 58, 0
2, 6794, Note_on_c, 0, 79, 64
2, 6797, Note_on_c, 0, 72, 0
2, 6797, Note_on_c, 0, 60, 37
2, 6804, Note_on_c, 0, 82, 74
2, 6805, Note_on_c, 0, 79, 0
2, 6810, Note_on_c, 0, 67, 66
2, 6810, Note_on_c, 0, 84, 103
2, 6818, Note_on_c, 0, 67, 0
2, 6818, Note_on_c, 0, 60, 0
2, 6826, Note_on_c, 0, 82, 0
2, 6833, Note_on_c, 0, 84, 0
2, 6842, Note_on_c, 0, 52, 62
2, 6851, Note_on_c, 0, 52, 0
2, 6851, Note_on_c, 0, 71, 44
2, 6853, Note_on_c, 0, 58, 72
2, 6867, Note_on_c, 0, 58, 0
2, 6870, Note_on_c, 0, 79, 79
2, 6872, Note_on_c, 0, 71, 0
2, 6878, Note_on_c, 0, 82, 71
2, 6882, Note_on_c, 0, 67, 68
2, 6883, Note_on_c, 0, 83, 92
2, 6890, Note_on_c, 0, 67, 0
2, 6902, Note_on_c, 0, 79, 0
2, 6909, Note_on_c, 0, 82, 0
2, 6915, Note_on_c, 0, 52, 72
2, 6924, Note_on_c, 0, 83, 0
2, 6925, Note_on_c, 0, 52, 0
2, 6926, Note_on_c, 0, 72, 84
2, 6928, Note_on_c, 0, 58, 77
2, 6937, Note_on_c, 0, 72, 0
2, 6943, Note_on_c, 0, 58, 0
2, 6943, Note_on_c, 0, 79, 52
2, 6948, Note_on_c, 0, 60, 34
2, 6948, Note_on_c, 0, 82, 76
2, 6952, Note_on_c, 0, 84, 110
2, 6953, Note_on_c, 0, 67, 59
2, 6963, Note_on_c, 0, 67, 0
2, 6963, Note_on_c, 0, 79, 0
2, 6973, Note_on_c, 0, 82, 0
2, 6977, Note_on_c, 0, 60, 0
2, 6982, Note_on_c, 0, 84, 0
2, 6989, Note_on_c, 0, 73, 85
2, 6989, Note_on_c, 0, 52, 58
2, 7000, Note_on_c, 0, 52, 0
2, 7000, Note_on_c, 0, 58, 83
2, 7008, Note_on_c, 0, 79, 67
2, 7011, Note_on_c, 0, 58, 0
2, 7015, Note_on_c, 0, 73, 0
2, 7015, Note_on_c, 0, 82, 96
2, 7019, Note_on_c, 0, 79, 0
2, 7022, Note_on_c, 0, 85, 102
2, 7023, Note_on_c, 0, 67, 70
2, 7031, Note_on_c, 0, 67, 0
2, 7043, Note_on_c, 0, 82, 0
2, 7060, Note_on_c, 0, 52, 64
2, 7063, Note_on_c, 0, 85, 0
2, 7066, Note_on_c, 0, 72, 73
2, 7067, Note_on_c, 0, 58, 81
2, 7069, Note_on_c, 0, 52, 0
2, 7080, Note_on_c, 0, 72, 0
2, 7083, Note_on_c, 0, 79, 57
2, 7085, Note_on_c, 0, 58, 0
2, 7095, Note_on_c, 0, 67, 59
2, 7095, Note_on_c, 0, 84, 103
2, 7097, Note_on_c, 0, 82, 41
2, 7099, Note_on_c, 0, 79, 0
2, 7105, Note_on_c, 0, 67, 0
2, 7109, Note_on_c, 0, 82, 0
2, 7121, Control_c, 0, 64, 0
2, 7121, Note_on_c, 0, 53, 79
2, 7125, Note_on_c, 0, 72, 100
2, 7141, Note_on_c, 0, 56, 76
2, 7143, Note_on_c, 0, 80, 80
2, 7145, Note_on_c, 0, 72, 0
2, 7149, Note_on_c, 0, 84, 0
2, 7155, Note_on_c, 0, 53, 0
2, 7159, Control_c, 0, 64, 127
2, 7164, Note_on_c, 0, 80, 0
2, 7165, Note_on_c, 0, 84, 69
2, 7169, Note_on_c, 0, 60, 71
2, 7173, Note_on_c, 0, 56, 0
2, 7175, Note_on_c, 0, 84, 0
2, 7180, Note_on_c, 0, 60, 0
2, 7192, Note_on_c, 0, 92, 103
2, 7195, Note_on_c, 0, 68, 79
2, 7207, Note_on_c, 0, 92, 0
2, 7211, Note_on_c, 0, 68, 0
2, 7232, Note_on_c, 0, 55, 73
2, 7250, Note_on_c, 0, 58, 46
2, 7251, Note_on_c, 0, 82, 80
2, 7257, Control_c, 0, 64, 0
2, 7263, Note_on_c, 0, 82, 0
2, 7263, Note_on_c, 0, 87, 59
2, 7267, Note_on_c, 0, 55, 0
2, 7269, Note_on_c, 0, 63, 55
2, 7271, Note_on_c, 0, 91, 104
2, 7285, Note_on_c, 0, 70, 79
2, 7287, Note_on_c, 0, 91, 0
2, 7297, Control_c, 0, 64, 127
2, 7301, Note_on_c, 0, 63, 0
2, 7302, Note_on_c, 0, 87, 0
2, 7305, Note_on_c, 0, 70, 0
2, 7315, Note_on_c, 0, 75, 56
2, 7324, Note_on_c, 0, 56, 71
2, 7326, Note_on_c, 0, 75, 0
2, 7330, Note_on_c, 0, 58, 0
2, 7336, Note_on_c, 0, 84, 47
2, 7337, Note_on_c, 0, 56, 0
2, 7338, Note_on_c, 0, 87, 62
2, 7338, Note_on_c, 0, 63, 61
2, 7348, Note_on_c, 0, 84, 0
2, 7349, Note_on_c, 0, 63, 0
2, 7353, Note_on_c, 0, 89, 97
2, 7359, Note_on_c, 0, 72, 95
2, 7367, Note_on_c, 0, 72, 0
2, 7375, Note_on_c, 0, 89, 0
2, 7385, Note_on_c, 0, 87, 0
2, 7393, Note_on_c, 0, 75, 70
2, 7397, Note_on_c, 0, 56, 64
2, 7403, Note_on_c, 0, 75, 0
2, 7408, Note_on_c, 0, 56, 0
2, 7411, Note_on_c, 0, 87, 23
2, 7416, Note_on_c, 0, 83, 47
2, 7416, Note_on_c, 0, 65, 51
2, 7426, Note_on_c, 0, 71, 64
2, 7426, Note_on_c, 0, 89, 105
2, 7428, Note_on_c, 0, 65, 0
2, 7435, Note_on_c, 0, 83, 0
2, 7439, Note_on_c, 0, 71, 0
2, 7447, Note_on_c, 0, 89, 0
2, 7451, Note_on_c, 0, 87, 0
2, 7458, Note_on_c, 0, 58, 74
2, 7478, Note_on_c, 0, 74, 10
2, 7483, Note_on_c, 0, 65, 39
2, 7486, Control_c, 0, 64, 0
2, 7487, Note_on_c, 0, 82, 78
2, 7490, Note_on_c, 0, 74, 0
2, 7499, Note_on_c, 0, 70, 79
2, 7503, Note_on_c, 0, 89, 100
2, 7505, Note_on_c, 0, 58, 0
2, 7517, Note_on_c, 0, 82, 0
2, 7521, Control_c, 0, 64, 127
2, 7523, Note_on_c, 0, 89, 0
2, 7524, Note_on_c, 0, 65, 0
2, 7526, Note_on_c, 0, 70, 0
2, 7539, Note_on_c, 0, 74, 71
2, 7542, Note_on_c, 0, 58, 57
2, 7549, Note_on_c, 0, 74, 0
2, 7555, Note_on_c, 0, 80, 67
2, 7564, Note_on_c, 0, 80, 0
2, 7581, Note_on_c, 0, 91, 93
2, 7583, Note_on_c, 0, 68, 57
2, 7589, Note_on_c, 0, 91, 0
2, 7613, Note_on_c, 0, 68, 0
2, 7631, Note_on_c, 0, 75, 34
2, 7640, Note_on_c, 0, 63, 46
2, 7652, Note_on_c, 0, 79, 47
2, 7652, Control_c, 0, 64, 0
2, 7659, Note_on_c, 0, 63, 0
2, 7671, Note_on_c, 0, 67, 58
2, 7681, Note_on_c, 0, 87, 65
2, 7683, Note_on_c, 0, 58, 0
2, 7688, Note_on_c, 0, 67, 0
2, 7688, Control_c, 0, 64, 127
2, 7700, Note_on_c, 0, 75, 0
2, 7711, Note_on_c, 0, 79, 0
2, 7715, Note_on_c, 0, 87, 0
2, 7721, Note_on_c, 0, 51, 45
2, 7749, Note_on_c, 0, 58, 48
2, 7750, Note_on_c, 0, 75, 43
2, 7766, Note_on_c, 0, 78, 46
2, 7773, Note_on_c, 0, 66, 32
2, 7775, Note_on_c, 0, 51, 0
2, 7781, Note_on_c, 0, 75, 0
2, 7787, Note_on_c, 0, 66, 0
2, 7788, Note_on_c, 0, 87, 65
2, 7791, Note_on_c, 0, 58, 0
2, 7798, Note_on_c, 0, 87, 0
2, 7798, Note_on_c, 0, 78, 0
2, 7813, Note_on_c, 0, 51, 47
2, 7832, Control_c, 0, 64, 0
2, 7835, Note_on_c, 0, 71, 46
2, 7841, Note_on_c, 0, 59, 36
2, 7855, Note_on_c, 0, 71, 0
2, 7858, Note_on_c, 0, 78, 68
2, 7864, Control_c, 0, 64, 127
2, 7865, Note_on_c, 0, 78, 0
2, 7872, Note_on_c, 0, 66, 46
2, 7879, Note_on_c, 0, 51, 0
2, 7884, Note_on_c, 0, 66, 0
2, 7885, Note_on_c, 0, 87, 91
2, 7889, Note_on_c, 0, 59, 0
2, 7893, Note_on_c, 0, 87, 0
2, 7923, Note_on_c, 0, 52, 30
2, 7935, Note_on_c, 0, 61, 61
2, 7949, Note_on_c, 0, 76, 65
2, 7958, Note_on_c, 0, 76, 0
2, 7958, Note_on_c, 0, 64, 55
2, 7959, Note_on_c, 0, 61, 0
2, 7970, Note_on_c, 0, 85, 92
2, 7971, Note_on_c, 0, 64, 0
2, 7978, Note_on_c, 0, 85, 0
2, 7989, Note_on_c, 0, 52, 0
2, 7992, Note_on_c, 0, 54, 50
2, 8016, Note_on_c, 0, 66, 70
2, 8017, Note_on_c, 0, 59, 33
2, 8033, Note_on_c, 0, 75, 65
2, 8034, Control_c, 0, 64, 0
2, 8035, Note_on_c, 0, 63, 45
2, 8047, Note_on_c, 0, 66, 0
2, 8048, Note_on_c, 0, 78, 92
2, 8051, Note_on_c, 0, 54, 0
2, 8056, Note_on_c, 0, 59, 0
2, 8062, Note_on_c, 0, 75, 0
2, 8062, Control_c, 0, 64, 127
2, 8067, Note_on_c, 0, 54, 43
2, 8078, Note_on_c, 0, 63, 0
2, 8081, Note_on_c, 0, 66, 54
2, 8097, Control_c, 0, 64, 0
2, 8098, Note_on_c, 0, 61, 50
2, 8099, Note_on_c, 0, 66, 0
2, 8109, Note_on_c, 0, 73, 54
2, 8118, Note_on_c, 0, 61, 0
2, 8118, Note_on_c, 0, 78, 0
2, 8121, Note_on_c, 0, 64, 61
2, 8130, Control_c, 0, 64, 127
2, 8133, Note_on_c, 0, 64, 0
2, 8142, Note_on_c, 0, 54, 0
2, 8145, Note_on_c, 0, 82, 81
2, 8155, Note_on_c, 0, 73, 0
2, 8167, Note_on_c, 0, 82, 0
2, 8192, Note_on_c, 0, 66, 58
2, 8193, Note_on_c, 0, 47, 48
2, 8206, Note_on_c, 0, 66, 0
2, 8210, Control_c, 0, 64, 0
2, 8226, Note_on_c, 0, 75, 50
2, 8229, Note_on_c, 0, 54, 44
2, 8234, Note_on_c, 0, 47, 0
2, 8241, Control_c, 0, 64, 127
2, 8272, Note_on_c, 0, 83, 52
2, 8276, Note_on_c, 0, 75, 0
2, 8278, Note_on_c, 0, 54, 0
2, 8280, Note_on_c, 0, 63, 43
2, 8292, Note_on_c, 0, 63, 0
2, 8293, Note_on_c, 0, 83, 0
2, 8346, Note_on_c, 0, 47, 41
2, 8353, Note_on_c, 0, 66, 34
2, 8358, Note_on_c, 0, 47, 0
2, 8379, Note_on_c, 0, 75, 36
2, 8382, Note_on_c, 0, 54, 18
2, 8389, Note_on_c, 0, 66, 0
2, 8395, Note_on_c, 0, 75, 0
2, 8400, Note_on_c, 0, 54, 0
2, 8405, Note_on_c, 0, 63, 55
2, 8407, Note_on_c, 0, 78, 60
2, 8417, Note_on_c, 0, 63, 0
2, 8452, Note_on_c, 0, 78, 0
2, 8456, Note_on_c, 0, 47, 37
2, 8462, Note_on_c, 0, 65, 45
2, 8466, Note_on_c, 0, 47, 0
2, 8474, Note_on_c, 0, 65, 0
2, 8481, Note_on_c, 0, 54, 32
2, 8485, Note_on_c, 0, 75, 44
2, 8498, Note_on_c, 0, 54, 0
2, 8505, Note_on_c, 0, 77, 63
2, 8508, Note_on_c, 0, 63, 52
2, 8518, Note_on_c, 0, 63, 0
2, 8519, Note_on_c, 0, 75, 0
2, 8548, Note_on_c, 0, 66, 41
2, 8556, Note_on_c, 0, 77, 0
2, 8556, Note_on_c, 0, 47, 38
2, 8565, Note_on_c, 0, 47, 0
2, 8567, Note_on_c, 0, 75, 38
2, 8568, Note_on_c, 0, 66, 0
2, 8583, Note_on_c, 0, 54, 28
2, 8584, Note_on_c, 0, 75, 0
2, 8584, Note_on_c, 0, 78, 77
2, 8594, Note_on_c, 0, 63, 64
2, 8599, Note_on_c, 0, 54, 0
2, 8601, Note_on_c, 0, 63, 0
2, 8619, Note_on_c, 0, 66, 48
2, 8651, Note_on_c, 0, 45, 82
2, 8653, Note_on_c, 0, 75, 41
2, 8661, Control_c, 0, 64, 0
2, 8681, Note_on_c, 0, 45, 0
2, 8682, Note_on_c, 0, 78, 0
2, 8682, Note_on_c, 0, 54, 70
2, 8693, Control_c, 0, 64, 127
2, 8694, Note_on_c, 0, 66, 0
2, 8714, Note_on_c, 0, 54, 0
2, 8729, Note_on_c, 0, 80, 70
2, 8731, Note_on_c, 0, 63, 95
2, 8755, Note_on_c, 0, 63, 0
2, 8760, Note_on_c, 0, 80, 0
2, 8781, Note_on_c, 0, 66, 47
2, 8788, Note_on_c, 0, 45, 41
2, 8797, Note_on_c, 0, 66, 0
2, 8801, Note_on_c, 0, 45, 0
2, 8811, Note_on_c, 0, 73, 43
2, 8815, Note_on_c, 0, 54, 38
2, 8829, Note_on_c, 0, 54, 0
2, 8833, Note_on_c, 0, 75, 0
2, 8835, Note_on_c, 0, 61, 91
2, 8837, Note_on_c, 0, 81, 83
2, 8848, Note_on_c, 0, 81, 0
2, 8855, Note_on_c, 0, 61, 0
2, 8877, Note_on_c, 0, 73, 0
2, 8881, Note_on_c, 0, 44, 56
2, 8886, Note_on_c, 0, 66, 57
2, 8901, Control_c, 0, 64, 0
2, 8908, Note_on_c, 0, 54, 58
2, 8913, Note_on_c, 0, 66, 0
2, 8914, Note_on_c, 0, 72, 74
2, 8925, Note_on_c, 0, 44, 0
2, 8939, Control_c, 0, 64, 127
2, 8945, Note_on_c, 0, 72, 0
2, 8949, Note_on_c, 0, 81, 81
2, 8959, Note_on_c, 0, 60, 85
2, 8969, Note_on_c, 0, 54, 0
2, 8989, Note_on_c, 0, 81, 0
2, 8994, Note_on_c, 0, 60, 0
2, 9026, Note_on_c, 0, 44, 53
2, 9027, Note_on_c, 0, 66, 36
2, 9035, Note_on_c, 0, 44, 0
2, 9041, Note_on_c, 0, 66, 0
2, 9045, Note_on_c, 0, 72, 59
2, 9047, Note_on_c, 0, 54, 36
2, 9059, Note_on_c, 0, 72, 0
2, 9060, Note_on_c, 0, 80, 89
2, 9065, Note_on_c, 0, 60, 74
2, 9069, Note_on_c, 0, 54, 0
2, 9075, Note_on_c, 0, 60, 0
2, 9090, Note_on_c, 0, 80, 0
2, 9103, Note_on_c, 0, 44, 58
2, 9104, Note_on_c, 0, 66, 48
2, 9111, Note_on_c, 0, 44, 0
2, 9114, Note_on_c, 0, 66, 0
2, 9121, Note_on_c, 0, 72, 66
2, 9127, Note_on_c, 0, 54, 48
2, 9135, Note_on_c, 0, 79, 98
2, 9141, Note_on_c, 0, 60, 69
2, 9143, Note_on_c, 0, 54, 0
2, 9147, Note_on_c, 0, 72, 0
2, 9149, Note_on_c, 0, 60, 0
2, 9165, Note_on_c, 0, 79, 0
2, 9173, Note_on_c, 0, 66, 54
2, 9176, Note_on_c, 0, 44, 61
2, 9183, Note_on_c, 0, 66, 0
2, 9185, Note_on_c, 0, 44, 0
2, 9188, Note_on_c, 0, 72, 72
2, 9195, Note_on_c, 0, 54, 38
2, 9197, Note_on_c, 0, 72, 0
2, 9206, Note_on_c, 0, 80, 101
2, 9211, Note_on_c, 0, 54, 0
2, 9213, Note_on_c, 0, 60, 66
2, 9225, Note_on_c, 0, 60, 0
2, 9233, Note_on_c, 0, 48, 64
2, 9237, Control_c, 0, 64, 0
2, 9240, Note_on_c, 0, 68, 72
2, 9250, Note_on_c, 0, 68, 0
2, 9253, Note_on_c, 0, 56, 76
2, 9256, Note_on_c, 0, 48, 0
2, 9260, Note_on_c, 0, 78, 60
2, 9263, Control_c, 0, 64, 127
2, 9264, Note_on_c, 0, 56, 0
2, 9264, Note_on_c, 0, 80, 0
2, 9269, Note_on_c, 0, 78, 0
2, 9280, Note_on_c, 0, 85, 103
2, 9283, Note_on_c, 0, 66, 76
2, 9296, Note_on_c, 0, 66, 0
2, 9297, Note_on_c, 0, 85, 0
2, 9314, Note_on_c, 0, 68, 76
2, 9322, Note_on_c, 0, 48, 51
2, 9323, Note_on_c, 0, 68, 0
2, 9333, Note_on_c, 0, 48, 0
2, 9335, Note_on_c, 0, 56, 70
2, 9338, Note_on_c, 0, 78, 59
2, 9345, Note_on_c, 0, 56, 0
2, 9348, Note_on_c, 0, 78, 0
2, 9360, Note_on_c, 0, 87, 97
2, 9362, Note_on_c, 0, 66, 67
2, 9366, Note_on_c, 0, 87, 0
2, 9372, Note_on_c, 0, 66, 0
2, 9397, Note_on_c, 0, 68, 50
2, 9406, Note_on_c, 0, 49, 36
2, 9412, Note_on_c, 0, 68, 0
2, 9418, Note_on_c, 0, 76, 71
2, 9426, Note_on_c, 0, 76, 0
2, 9428, Note_on_c, 0, 56, 31
2, 9458, Control_c, 0, 64, 0
2, 9462, Note_on_c, 0, 88, 82
2, 9466, Note_on_c, 0, 64, 41
2, 9496, Note_on_c, 0, 88, 0
2, 9496, Control_c, 0, 64, 127
2, 9498, Note_on_c, 0, 64, 0
2, 9498, Note_on_c, 0, 49, 0
2, 9508, Note_on_c, 0, 56, 0
2, 9520, Note_on_c, 0, 49, 15
2, 9532, Note_on_c, 0, 68, 50
2, 9542, Note_on_c, 0, 49, 0
2, 9550, Note_on_c, 0, 56, 24
2, 9560, Note_on_c, 0, 76, 49
2, 9562, Note_on_c, 0, 68, 0
2, 9564, Note_on_c, 0, 56, 0
2, 9572, Note_on_c, 0, 64, 55
2, 9574, Note_on_c, 0, 76, 0
2, 9580, Note_on_c, 0, 80, 64
2, 9582, Note_on_c, 0, 64, 0
2, 9614, Note_on_c, 0, 80, 0
2, 9616, Note_on_c, 0, 49, 10
2, 9628, Note_on_c, 0, 49, 0
2, 9630, Note_on_c, 0, 67, 35
2, 9632, Note_on_c, 0, 56, 42
2, 9642, Note_on_c, 0, 67, 0
2, 9644, Note_on_c, 0, 56, 0
2, 9648, Note_on_c, 0, 76, 68
2, 9652, Note_on_c, 0, 64, 64
2, 9660, Note_on_c, 0, 64, 0
2, 9660, Note_on_c, 0, 76, 0
2, 9664, Note_on_c, 0, 79, 78
2, 9690, Note_on_c, 0, 49, 38
2, 9702, Note_on_c, 0, 68, 50
2, 9706, Note_on_c, 0, 49, 0
2, 9708, Note_on_c, 0, 79, 0
2, 9708, Note_on_c, 0, 56, 55
2, 9718, Note_on_c, 0, 56, 0
2, 9718, Note_on_c, 0, 76, 63
2, 9720, Note_on_c, 0, 68, 0
2, 9732, Note_on_c, 0, 64, 63
2, 9734, Note_on_c, 0, 76, 0
2, 9734, Note_on_c, 0, 80, 86
2, 9740, Note_on_c, 0, 64, 0
2, 9762, Note_on_c, 0, 68, 79
2, 9770, Note_on_c, 0, 47, 52
2, 9772, Control_c, 0, 64, 0
2, 9786, Note_on_c, 0, 47, 0
2, 9790, Note_on_c, 0, 56, 63
2, 9792, Note_on_c, 0, 68, 0
2, 9794, Note_on_c, 0, 76, 72
2, 9798, Note_on_c, 0, 80, 0
2, 9800, Control_c, 0, 64, 127
2, 9806, Note_on_c, 0, 56, 0
2, 9818, Note_on_c, 0, 82, 94
2, 9832, Note_on_c, 0, 64, 107
2, 9858, Note_on_c, 0, 82, 0
2, 9859, Note_on_c, 0, 64, 0
2, 9882, Note_on_c, 0, 68, 54
2, 9896, Note_on_c, 0, 68, 0
2, 9910, Note_on_c, 0, 75, 46
2, 9911, Note_on_c, 0, 76, 0
2, 9920, Note_on_c, 0, 56, 52
2, 9936, Note_on_c, 0, 83, 78
2, 9948, Note_on_c, 0, 56, 0
2, 9950, Note_on_c, 0, 63, 98
2, 9958, Note_on_c, 0, 83, 0
2, 9972, Note_on_c, 0, 63, 0
2, 9992, Note_on_c, 0, 68, 66
2, 9994, Note_on_c, 0, 75, 0
2, 10004, Note_on_c, 0, 46, 71
2, 10012, Control_c, 0, 64, 0
2, 10022, Note_on_c, 0, 74, 80
2, 10024, Note_on_c, 0, 56, 67
2, 10039, Note_on_c, 0, 68, 0
2, 10044, Note_on_c, 0, 46, 0
2, 10048, Control_c, 0, 64, 127
2, 10062, Note_on_c, 0, 83, 72
2, 10068, Note_on_c, 0, 62, 92
2, 10069, Note_on_c, 0, 74, 0
2, 10074, Note_on_c, 0, 56, 0
2, 10096, Note_on_c, 0, 62, 0
2, 10098, Note_on_c, 0, 83, 0
2, 10126, Note_on_c, 0, 68, 61
2, 10132, Note_on_c, 0, 46, 58
2, 10144, Note_on_c, 0, 68, 0
2, 10146, Note_on_c, 0, 74, 64
2, 10148, Note_on_c, 0, 46, 0
2, 10154, Note_on_c, 0, 56, 49
2, 10162, Note_on_c, 0, 82, 106
2, 10164, Note_on_c, 0, 74, 0
2, 10176, Note_on_c, 0, 62, 57
2, 10186, Note_on_c, 0, 62, 0
2, 10192, Note_on_c, 0, 82, 0
2, 10202, Note_on_c, 0, 56, 0
2, 10203, Note_on_c, 0, 68, 60
2, 10212, Note_on_c, 0, 46, 65
2, 10216, Note_on_c, 0, 68, 0
2, 10220, Note_on_c, 0, 74, 74
2, 10228, Note_on_c, 0, 46, 0
2, 10236, Note_on_c, 0, 81, 106
2, 10238, Note_on_c, 0, 56, 60
2, 10242, Note_on_c, 0, 74, 0
2, 10251, Note_on_c, 0, 62, 40
2, 10266, Note_on_c, 0, 62, 0
2, 10268, Note_on_c, 0, 81, 0
2, 10270, Note_on_c, 0, 56, 0
2, 10270, Note_on_c, 0, 68, 68
2, 10278, Note_on_c, 0, 46, 90
2, 10286, Note_on_c, 0, 68, 0
2, 10290, Note_on_c, 0, 46, 0
2, 10292, Note_on_c, 0, 74, 79
2, 10302, Note_on_c, 0, 74, 0
2, 10306, Note_on_c, 0, 82, 112
2, 10324, Note_on_c, 0, 62, 45
2, 10336, Note_on_c, 0, 62, 0
2, 10342, Note_on_c, 0, 70, 85
2, 10343, Note_on_c, 0, 50, 84
2, 10346, Control_c, 0, 64, 0
2, 10354, Note_on_c, 0, 70, 0
2, 10360, Note_on_c, 0, 80, 88
2, 10364, Note_on_c, 0, 58, 89
2, 10366, Note_on_c, 0, 50, 0
2, 10366, Note_on_c, 0, 82, 0
2, 10370, Control_c, 0, 64, 127
2, 10374, Note_on_c, 0, 58, 0
2, 10378, Note_on_c, 0, 80, 0
2, 10388, Note_on_c, 0, 87, 103
2, 10394, Note_on_c, 0, 87, 0
2, 10402, Note_on_c, 0, 68, 61
2, 10412, Note_on_c, 0, 68, 0
2, 10422, Note_on_c, 0, 70, 92
2, 10430, Note_on_c, 0, 70, 0
2, 10440, Note_on_c, 0, 50, 78
2, 10442, Note_on_c, 0, 80, 69
2, 10448, Note_on_c, 0, 50, 0
2, 10450, Note_on_c, 0, 80, 0
2, 10454, Note_on_c, 0, 58, 79
2, 10464, Note_on_c, 0, 58, 0
2, 10466, Note_on_c, 0, 89, 111
2, 10472, Note_on_c, 0, 89, 0
2, 10480, Note_on_c, 0, 68, 75
2, 10490, Note_on_c, 0, 68, 0
2, 10500, Note_on_c, 0, 70, 92
2, 10510, Note_on_c, 0, 70, 0
2, 10516, Note_on_c, 0, 51, 59
2, 10526, Note_on_c, 0, 78, 79
2, 10536, Note_on_c, 0, 58, 70
2, 10537, Note_on_c, 0, 78, 0
2, 10560, Control_c, 0, 64, 0
2, 10564, Note_on_c, 0, 90, 91
2, 10570, Note_on_c, 0, 66, 62
2, 10590, Note_on_c, 0, 51, 0
2, 10596, Note_on_c, 0, 58, 0
2, 10598, Note_on_c, 0, 66, 0
2, 10598, Control_c, 0, 64, 127
2, 10602, Note_on_c, 0, 90, 0
2, 10612, Note_on_c, 0, 51, 41
2, 10628, Note_on_c, 0, 51, 0
2, 10630, Note_on_c, 0, 70, 71
2, 10634, Note_on_c, 0, 58, 50
2, 10644, Note_on_c, 0, 70, 0
2, 10646, Note_on_c, 0, 78, 56
2, 10660, Note_on_c, 0, 66, 41
2, 10666, Note_on_c, 0, 82, 99
2, 10668, Note_on_c, 0, 58, 0
2, 10672, Note_on_c, 0, 66, 0
2, 10678, Note_on_c, 0, 78, 0
2, 10702, Note_on_c, 0, 51, 41
2, 10706, Note_on_c, 0, 82, 0
2, 10710, Note_on_c, 0, 70, 64
2, 10716, Note_on_c, 0, 51, 0
2, 10718, Note_on_c, 0, 58, 57
2, 10728, Note_on_c, 0, 70, 0
2, 10730, Note_on_c, 0, 78, 66
2, 10740, Note_on_c, 0, 66, 62
2, 10744, Note_on_c, 0, 58, 0
2, 10745, Note_on_c, 0, 81, 101
2, 10754, Note_on_c, 0, 66, 0
2, 10758, Note_on_c, 0, 78, 0
2, 10778, Note_on_c, 0, 51, 55
2, 10780, Note_on_c, 0, 70, 77
2, 10792, Note_on_c, 0, 51, 0
2, 10793, Note_on_c, 0, 70, 0
2, 10794, Note_on_c, 0, 81, 0
2, 10795, Note_on_c, 0, 58, 54
2, 10796, Note_on_c, 0, 78, 69
2, 10812, Note_on_c, 0, 82, 113
2, 10813, Note_on_c, 0, 66, 67
2, 10822, Note_on_c, 0, 66, 0
2, 10824, Note_on_c, 0, 78, 0
2, 10830, Note_on_c, 0, 58, 0
2, 10840, Note_on_c, 0, 70, 95
2, 10844, Control_c, 0, 64, 0
2, 10846, Note_on_c, 0, 49, 67
2, 10862, Note_on_c, 0, 76, 91
2, 10864, Note_on_c, 0, 58, 74
2, 10866, Note_on_c, 0, 82, 0
2, 10870, Note_on_c, 0, 70, 0
2, 10872, Note_on_c, 0, 49, 0
2, 10877, Control_c, 0, 64, 127
2, 10880, Note_on_c, 0, 83, 97
2, 10882, Note_on_c, 0, 64, 88
2, 10888, Note_on_c, 0, 76, 0
2, 10896, Note_on_c, 0, 64, 0
2, 10904, Note_on_c, 0, 58, 0
2, 10914, Note_on_c, 0, 70, 93
2, 10922, Note_on_c, 0, 49, 72
2, 10928, Note_on_c, 0, 70, 0
2, 10934, Note_on_c, 0, 76, 82
2, 10936, Note_on_c, 0, 83, 0
2, 10938, Note_on_c, 0, 49, 0
2, 10940, Note_on_c, 0, 58, 73
2, 10942, Note_on_c, 0, 76, 0
2, 10956, Note_on_c, 0, 85, 106
2, 10958, Note_on_c, 0, 58, 0
2, 10962, Note_on_c, 0, 64, 78
2, 10970, Note_on_c, 0, 64, 0
2, 10976, Note_on_c, 0, 85, 0
2, 10998, Note_on_c, 0, 47, 67
2, 10998, Note_on_c, 0, 66, 68
2, 11002, Control_c, 0, 64, 0
2, 11016, Note_on_c, 0, 66, 0
2, 11020, Note_on_c, 0, 75, 79
2, 11022, Note_on_c, 0, 54, 69
2, 11024, Note_on_c, 0, 47, 0
2, 11031, Note_on_c, 0, 75, 0
2, 11036, Control_c, 0, 64, 127
2, 11054, Note_on_c, 0, 87, 95
2, 11058, Note_on_c, 0, 63, 65
2, 11064, Note_on_c, 0, 87, 0
2, 11068, Note_on_c, 0, 54, 0
2, 11076, Note_on_c, 0, 63, 0
2, 11100, Note_on_c, 0, 47, 55
2, 11108, Note_on_c, 0, 66, 62
2, 11110, Note_on_c, 0, 47, 0
2, 11124, Note_on_c, 0, 54, 51
2, 11130, Note_on_c, 0, 66, 0
2, 11132, Note_on_c, 0, 75, 59
2, 11139, Note_on_c, 0, 54, 0
2, 11144, Note_on_c, 0, 78, 90
2, 11145, Note_on_c, 0, 63, 65
2, 11156, Note_on_c, 0, 63, 0
2, 11158, Note_on_c, 0, 75, 0
2, 11180, Note_on_c, 0, 47, 56
2, 11182, Note_on_c, 0, 78, 0
2, 11184, Note_on_c, 0, 65, 73
2, 11188, Note_on_c, 0, 47, 0
2, 11196, Note_on_c, 0, 75, 62
2, 11198, Note_on_c, 0, 65, 0
2, 11200, Note_on_c, 0, 54, 42
2, 11214, Note_on_c, 0, 77, 97
2, 11216, Note_on_c, 0, 54, 0
2, 11222, Note_on_c, 0, 63, 68
2, 11230, Note_on_c, 0, 63, 0
2, 11232, Note_on_c, 0, 75, 0
2, 11250, Note_on_c, 0, 66, 71
2, 11260, Note_on_c, 0, 77, 0
2, 11262, Note_on_c, 0, 47, 54
2, 11268, Note_on_c, 0, 75, 56
2, 11270, Note_on_c, 0, 47, 0
2, 11276, Note_on_c, 0, 66, 0
2, 11284, Note_on_c, 0, 54, 38
2, 11285, Note_on_c, 0, 78, 97
2, 11294, Note_on_c, 0, 75, 0
2, 11298, Note_on_c, 0, 63, 59
2, 11300, Note_on_c, 0, 54, 0
2, 11308, Note_on_c, 0, 63, 0
2, 11316, Note_on_c, 0, 66, 67
2, 11324, Control_c, 0, 64, 0
2, 11328, Note_on_c, 0, 46, 74
2, 11338, Note_on_c, 0, 46, 0
2, 11340, Note_on_c, 0, 75, 58
2, 11344, Note_on_c, 0, 66, 0
2, 11345, Note_on_c, 0, 54, 49
2, 11346, Note_on_c, 0, 78, 0
2, 11356, Note_on_c, 0, 80, 94
2, 11358, Control_c, 0, 64, 127
2, 11364, Note_on_c, 0, 63, 76
2, 11376, Note_on_c, 0, 63, 0
2, 11380, Note_on_c, 0, 54, 0
2, 11386, Note_on_c, 0, 80, 0
2, 11394, Note_on_c, 0, 66, 70
2, 11404, Note_on_c, 0, 46, 59
2, 11408, Note_on_c, 0, 66, 0
2, 11416, Note_on_c, 0, 73, 73
2, 11418, Note_on_c, 0, 46, 0
2, 11420, Note_on_c, 0, 54, 50
2, 11424, Note_on_c, 0, 73, 0
2, 11426, Note_on_c, 0, 75, 0
2, 11434, Note_on_c, 0, 54, 0
2, 11436, Note_on_c, 0, 82, 106
2, 11442, Note_on_c, 0, 61, 63
2, 11444, Note_on_c, 0, 82, 0
2, 11456, Note_on_c, 0, 61, 0
2, 11484, Note_on_c, 0, 63, 57
2, 11488, Note_on_c, 0, 44, 42
2, 11498, Note_on_c, 0, 63, 0
2, 11503, Note_on_c, 0, 71, 62
2, 11510, Note_on_c, 0, 71, 0
2, 11518, Note_on_c, 0, 51, 23
2, 11536, Control_c, 0, 64, 0
2, 11542, Note_on_c, 0, 59, 45
2, 11544, Note_on_c, 0, 83, 76
2, 11566, Note_on_c, 0, 83, 0
2, 11570, Note_on_c, 0, 59, 0
2, 11572, Note_on_c, 0, 44, 0
2, 11574, Control_c, 0, 64, 127
2, 11576, Note_on_c, 0, 51, 0
2, 11588, Note_on_c, 0, 44, 57
2, 11606, Note_on_c, 0, 63, 33
2, 11608, Note_on_c, 0, 44, 0
2, 11616, Note_on_c, 0, 51, 44
2, 11626, Note_on_c, 0, 71, 52
2, 11630, Note_on_c, 0, 63, 0
2, 11636, Note_on_c, 0, 59, 43
2, 11638, Note_on_c, 0, 71, 0
2, 11640, Note_on_c, 0, 75, 67
2, 11644, Note_on_c, 0, 59, 0
2, 11654, Note_on_c, 0, 51, 0
2, 11668, Note_on_c, 0, 75, 0
2, 11680, Note_on_c, 0, 62, 51
2, 11680, Note_on_c, 0, 44, 22
2, 11692, Note_on_c, 0, 62, 0
2, 11694, Note_on_c, 0, 44, 0
2, 11696, Note_on_c, 0, 50, 56
2, 11701, Note_on_c, 0, 71, 39
2, 11711, Note_on_c, 0, 50, 0
2, 11718, Note_on_c, 0, 74, 77
2, 11722, Note_on_c, 0, 71, 0
2, 11754, Note_on_c, 0, 44, 46
2, 11754, Note_on_c, 0, 63, 52
2, 11762, Note_on_c, 0, 74, 0
2, 11771, Note_on_c, 0, 44, 0
2, 11771, Note_on_c, 0, 51, 64
2, 11774, Note_on_c, 0, 71, 41
2, 11784, Note_on_c, 0, 63, 0
2, 11790, Note_on_c, 0, 71, 0
2, 11791, Note_on_c, 0, 75, 79
2, 11792, Note_on_c, 0, 59, 62
2, 11805, Note_on_c, 0, 59, 0
2, 11822, Note_on_c, 0, 51, 0
2, 11826, Note_on_c, 0, 75, 0
2, 11829, Note_on_c, 0, 64, 57
2, 11830, Note_on_c, 0, 44, 60
2, 11840, Control_c, 0, 64, 0
2, 11842, Note_on_c, 0, 64, 0
2, 11847, Note_on_c, 0, 52, 73
2, 11849, Note_on_c, 0, 44, 0
2, 11849, Note_on_c, 0, 71, 57
2, 11860, Note_on_c, 0, 71, 0
2, 11860, Note_on_c, 0, 76, 85
2, 11865, Note_on_c, 0, 59, 66
2, 11866, Control_c, 0, 64, 127
2, 11876, Note_on_c, 0, 59, 0
2, 11879, Note_on_c, 0, 76, 0
2, 11896, Note_on_c, 0, 63, 77
2, 11903, Note_on_c, 0, 44, 66
2, 11909, Note_on_c, 0, 52, 0
2, 11915, Note_on_c, 0, 44, 0
2, 11916, Note_on_c, 0, 71, 62
2, 11921, Note_on_c, 0, 63, 0
2, 11922, Note_on_c, 0, 51, 67
2, 11928, Note_on_c, 0, 75, 82
2, 11935, Note_on_c, 0, 71, 0
2, 11939, Note_on_c, 0, 59, 71
2, 11948, Note_on_c, 0, 59, 0
2, 11961, Note_on_c, 0, 51, 0
2, 11965, Note_on_c, 0, 75, 0
2, 11968, Note_on_c, 0, 44, 82
2, 11973, Note_on_c, 0, 64, 82
2, 11984, Note_on_c, 0, 64, 0
2, 11984, Note_on_c, 0, 71, 68
2, 11991, Note_on_c, 0, 44, 0
2, 11991, Note_on_c, 0, 52, 87
2, 12000, Note_on_c, 0, 76, 109
2, 12004, Note_on_c, 0, 71, 0
2, 12006, Note_on_c, 0, 59, 81
2, 12019, Note_on_c, 0, 59, 0
2, 12033, Note_on_c, 0, 52, 0
2, 12037, Note_on_c, 0, 65, 84
2, 12040, Note_on_c, 0, 44, 81
2, 12051, Note_on_c, 0, 76, 0
2, 12052, Note_on_c, 0, 71, 57
2, 12054, Control_c, 0, 64, 0
2, 12068, Note_on_c, 0, 65, 0
2, 12069, Note_on_c, 0, 53, 66
2, 12070, Note_on_c, 0, 44, 0
2, 12072, Note_on_c, 0, 77, 108
2, 12077, Note_on_c, 0, 59, 76
2, 12082, Note_on_c, 0, 71, 0
2, 12086, Control_c, 0, 64, 127
2, 12088, Note_on_c, 0, 59, 0
2, 12092, Note_on_c, 0, 77, 0
2, 12104, Note_on_c, 0, 53, 0
2, 12110, Note_on_c, 0, 44, 86
2, 12113, Note_on_c, 0, 64, 93
2, 12122, Note_on_c, 0, 71, 73
2, 12133, Note_on_c, 0, 64, 0
2, 12133, Note_on_c, 0, 44, 0
2, 12133, Note_on_c, 0, 52, 95
2, 12139, Note_on_c, 0, 76, 112
2, 12144, Note_on_c, 0, 59, 81
2, 12148, Note_on_c, 0, 71, 0
2, 12152, Note_on_c, 0, 59, 0
2, 12170, Note_on_c, 0, 52, 0
2, 12176, Note_on_c, 0, 65, 89
2, 12178, Note_on_c, 0, 44, 85
2, 12182, Note_on_c, 0, 76, 0
2, 12188, Note_on_c, 0, 71, 58
2, 12196, Note_on_c, 0, 53, 86
2, 12198, Note_on_c, 0, 44, 0
2, 12202, Note_on_c, 0, 65, 0
2, 12208, Note_on_c, 0, 77, 112
2, 12212, Note_on_c, 0, 59, 83
2, 12216, Note_on_c, 0, 71, 0
2, 12228, Note_on_c, 0, 59, 0
2, 12234, Note_on_c, 0, 53, 0
2, 12246, Note_on_c, 0, 66, 66
2, 12246, Note_on_c, 0, 45, 94
2, 12254, Control_c, 0, 64, 0
2, 12255, Note_on_c, 0, 77, 0
2, 12262, Note_on_c, 0, 71, 80
2, 12272, Note_on_c, 0, 54, 79
2, 12274, Note_on_c, 0, 45, 0
2, 12282, Note_on_c, 0, 78, 108
2, 12286, Note_on_c, 0, 66, 0
2, 12292, Note_on_c, 0, 59, 69
2, 12294, Note_on_c, 0, 71, 0
2, 12296, Control_c, 0, 64, 127
2, 12308, Note_on_c, 0, 59, 0
2, 12314, Note_on_c, 0, 78, 0
2, 12326, Note_on_c, 0, 54, 0
2, 12332, Note_on_c, 0, 45, 59
2, 12338, Note_on_c, 0, 63, 74
2, 12342, Note_on_c, 0, 45, 0
2, 12348, Note_on_c, 0, 51, 75
2, 12356, Note_on_c, 0, 71, 65
2, 12358, Note_on_c, 0, 63, 0
2, 12363, Note_on_c, 0, 51, 0
2, 12368, Note_on_c, 0, 75, 91
2, 12376, Note_on_c, 0, 59, 69
2, 12380, Note_on_c, 0, 71, 0
2, 12386, Note_on_c, 0, 59, 0
2, 12402, Note_on_c, 0, 75, 0
2, 12448, Control_c, 0, 64, 0
2, 12457, Note_on_c, 0, 74, 88
2, 12457, Note_on_c, 0, 70, 64
2, 12458, Note_on_c, 0, 62, 37
2, 12460, Note_on_c, 0, 34, 79
2, 12490, Note_on_c, 0, 34, 0
2, 12490, Note_on_c, 0, 62, 0
2, 12495, Control_c, 0, 64, 127
2, 12498, Note_on_c, 0, 74, 0
2, 12520, Note_on_c, 0, 70, 0
2, 12539, Note_on_c, 0, 46, 49
2, 12560, Note_on_c, 0, 46, 0
2, 12594, Note_on_c, 0, 68, 59
2, 12606, Note_on_c, 0, 62, 42
2, 12610, Note_on_c, 0, 68, 0
2, 12618, Note_on_c, 0, 62, 0
2, 12621, Note_on_c, 0, 77, 88
2, 12646, Note_on_c, 0, 82, 69
2, 12661, Note_on_c, 0, 46, 47
2, 12663, Note_on_c, 0, 82, 0
2, 12668, Note_on_c, 0, 77, 0
2, 12685, Note_on_c, 0, 46, 0
2, 12685, Note_on_c, 0, 53, 52
2, 12688, Note_on_c, 0, 68, 61
2, 12700, Note_on_c, 0, 53, 0
2, 12707, Note_on_c, 0, 68, 0
2, 12707, Note_on_c, 0, 62, 63
2, 12710, Note_on_c, 0, 76, 90
2, 12714, Note_on_c, 0, 62, 0
2, 12731, Note_on_c, 0, 82, 76
2, 12742, Note_on_c, 0, 82, 0
2, 12744, Note_on_c, 0, 46, 73
2, 12754, Note_on_c, 0, 46, 0
2, 12765, Note_on_c, 0, 76, 0
2, 12765, Note_on_c, 0, 68, 72
2, 12765, Note_on_c, 0, 53, 48
2, 12774, Note_on_c, 0, 68, 0
2, 12777, Note_on_c, 0, 53, 0
2, 12778, Note_on_c, 0, 62, 67
2, 12780, Note_on_c, 0, 77, 92
2, 12786, Note_on_c, 0, 62, 0
2, 12799, Note_on_c, 0, 82, 86
2, 12813, Note_on_c, 0, 46, 85
2, 12817, Note_on_c, 0, 77, 0
2, 12822, Note_on_c, 0, 46, 0
2, 12824, Note_on_c, 0, 82, 0
2, 12833, Note_on_c, 0, 68, 71
2, 12833, Note_on_c, 0, 53, 49
2, 12842, Note_on_c, 0, 68, 0
2, 12845, Note_on_c, 0, 53, 0
2, 12848, Note_on_c, 0, 79, 92
2, 12851, Note_on_c, 0, 63, 71
2, 12859, Note_on_c, 0, 63, 0
2, 12870, Note_on_c, 0, 82, 79
2, 12882, Note_on_c, 0, 46, 78
2, 12885, Note_on_c, 0, 82, 0
2, 12891, Note_on_c, 0, 79, 0
2, 12894, Note_on_c, 0, 46, 0
2, 12900, Note_on_c, 0, 68, 64
2, 12902, Note_on_c, 0, 53, 34
2, 12916, Note_on_c, 0, 53, 0
2, 12918, Note_on_c, 0, 74, 86
2, 12920, Note_on_c, 0, 68, 0
2, 12925, Note_on_c, 0, 65, 81
2, 12932, Note_on_c, 0, 65, 0
2, 12940, Note_on_c, 0, 82, 53
2, 12954, Note_on_c, 0, 82, 0
2, 12965, Note_on_c, 0, 46, 56
2, 12972, Note_on_c, 0, 67, 62
2, 12980, Control_c, 0, 64, 0
2, 12996, Note_on_c, 0, 67, 0
2, 12998, Note_on_c, 0, 75, 68
2, 13000, Note_on_c, 0, 55, 50
2, 13005, Note_on_c, 0, 46, 0
2, 13005, Note_on_c, 0, 74, 0
2, 13014, Note_on_c, 0, 55, 0
2, 13017, Control_c, 0, 64, 127
2, 13036, Note_on_c, 0, 82, 73
2, 13038, Note_on_c, 0, 63, 43
2, 13052, Note_on_c, 0, 63, 0
2, 13064, Note_on_c, 0, 82, 0
2, 13080, Note_on_c, 0, 46, 54
2, 13080, Note_on_c, 0, 69, 56
2, 13082, Control_c, 0, 64, 0
2, 13086, Note_on_c, 0, 75, 0
2, 13096, Note_on_c, 0, 69, 0
2, 13100, Note_on_c, 0, 75, 64
2, 13103, Note_on_c, 0, 46, 0
2, 13112, Control_c, 0, 64, 127
2, 13115, Note_on_c, 0, 54, 31
2, 13128, Note_on_c, 0, 75, 0
2, 13130, Note_on_c, 0, 54, 0
2, 13136, Note_on_c, 0, 84, 87
2, 13146, Note_on_c, 0, 63, 38
2, 13158, Note_on_c, 0, 84, 0
2, 13160, Note_on_c, 0, 63, 0
2, 13190, Note_on_c, 0, 46, 32
2, 13202, Note_on_c, 0, 46, 0
2, 13208, Note_on_c, 0, 75, 46
2, 13210, Note_on_c, 0, 54, 26
2, 13222, Note_on_c, 0, 75, 0
2, 13226, Note_on_c, 0, 83, 60
2, 13233, Note_on_c, 0, 63, 18
2, 13239, Note_on_c, 0, 54, 0
2, 13242, Note_on_c, 0, 63, 0
2, 13246, Note_on_c, 0, 83, 0
2, 13260, Note_on_c, 0, 69, 57
2, 13269, Note_on_c, 0, 46, 32
2, 13275, Note_on_c, 0, 69, 0
2, 13282, Note_on_c, 0, 46, 0
2, 13284, Note_on_c, 0, 75, 43
2, 13290, Note_on_c, 0, 54, 18
2, 13296, Note_on_c, 0, 75, 0
2, 13300, Note_on_c, 0, 84, 78
2, 13304, Note_on_c, 0, 63, 51
2, 13308, Note_on_c, 0, 84, 0
2, 13311, Note_on_c, 0, 54, 0
2, 13317, Note_on_c, 0, 63, 0
2, 13332, Note_on_c, 0, 69, 63
2, 13340, Note_on_c, 0, 46, 58
2, 13342, Note_on_c, 0, 69, 0
2, 13348, Note_on_c, 0, 75, 62
2, 13354, Note_on_c, 0, 46, 0
2, 13356, Note_on_c, 0, 53, 48
2, 13359, Note_on_c, 0, 75, 0
2, 13374, Note_on_c, 0, 86, 88
2, 13377, Note_on_c, 0, 63, 66
2, 13378, Control_c, 0, 64, 0
2, 13390, Note_on_c, 0, 63, 0
2, 13394, Note_on_c, 0, 86, 0
2, 13400, Control_c, 0, 64, 127
2, 13409, Note_on_c, 0, 53, 0
2, 13428, Note_on_c, 0, 46, 58
2, 13443, Note_on_c, 0, 46, 0
2, 13443, Note_on_c, 0, 75, 58
2, 13451, Note_on_c, 0, 53, 31
2, 13453, Note_on_c, 0, 75, 0
2, 13466, Note_on_c, 0, 53, 0
2, 13468, Note_on_c, 0, 84, 70
2, 13483, Note_on_c, 0, 63, 42
2, 13495, Note_on_c, 0, 63, 0
2, 13512, Note_on_c, 0, 74, 48
2, 13522, Note_on_c, 0, 84, 0
2, 13523, Note_on_c, 0, 74, 0
2, 13541, Note_on_c, 0, 82, 52
2, 13560, Control_c, 0, 64, 0
2, 13563, Note_on_c, 0, 34, 42
2, 13590, Note_on_c, 0, 89, 60
2, 13593, Note_on_c, 0, 82, 0
2, 13598, Note_on_c, 0, 34, 0
2, 13604, Control_c, 0, 64, 127
2, 13609, Note_on_c, 0, 89, 0
2, 13638, Note_on_c, 0, 46, 63
2, 13672, Note_on_c, 0, 46, 0
2, 13673, Note_on_c, 0, 53, 22
2, 13684, Note_on_c, 0, 53, 0
2, 13692, Note_on_c, 0, 68, 67
2, 13698, Note_on_c, 0, 62, 51
2, 13710, Note_on_c, 0, 62, 0
2, 13715, Note_on_c, 0, 68, 0
2, 13716, Note_on_c, 0, 77, 92
2, 13738, Note_on_c, 0, 82, 79
2, 13746, Note_on_c, 0, 46, 71
2, 13750, Note_on_c, 0, 82, 0
2, 13772, Note_on_c, 0, 68, 72
2, 13773, Note_on_c, 0, 46, 0
2, 13786, Note_on_c, 0, 61, 62
2, 13787, Note_on_c, 0, 68, 0
2, 13792, Note_on_c, 0, 76, 95
2, 13794, Note_on_c, 0, 77, 0
2, 13796, Note_on_c, 0, 61, 0
2, 13812, Note_on_c, 0, 82, 83
2, 13818, Note_on_c, 0, 46, 72
2, 13828, Note_on_c, 0, 46, 0
2, 13830, Note_on_c, 0, 82, 0
2, 13840, Note_on_c, 0, 53, 55
2, 13846, Note_on_c, 0, 68, 78
2, 13854, Note_on_c, 0, 62, 66
2, 13855, Note_on_c, 0, 53, 0
2, 13858, Note_on_c, 0, 68, 0
2, 13862, Note_on_c, 0, 77, 98
2, 13864, Note_on_c, 0, 62, 0
2, 13866, Note_on_c, 0, 76, 0
2, 13886, Note_on_c, 0, 82, 85
2, 13894, Note_on_c, 0, 46, 71
2, 13902, Note_on_c, 0, 77, 0
2, 13912, Note_on_c, 0, 82, 0
2, 13916, Control_c, 0, 64, 0
2, 13918, Note_on_c, 0, 68, 69
2, 13920, Note_on_c, 0, 53, 53
2, 13929, Note_on_c, 0, 46, 0
2, 13932, Note_on_c, 0, 68, 0
2, 13934, Note_on_c, 0, 79, 94
2, 13952, Note_on_c, 0, 53, 0
2, 13954, Control_c, 0, 64, 127
2, 13958, Note_on_c, 0, 63, 68
2, 13962, Note_on_c, 0, 82, 93
2, 13968, Note_on_c, 0, 63, 0
2, 13973, Note_on_c, 0, 79, 0
2, 13986, Note_on_c, 0, 82, 0
2, 13996, Note_on_c, 0, 68, 38
2, 14000, Note_on_c, 0, 46, 44
2, 14004, Note_on_c, 0, 80, 81
2, 14011, Note_on_c, 0, 68, 0
2, 14016, Note_on_c, 0, 46, 0
2, 14018, Note_on_c, 0, 53, 54
2, 14024, Note_on_c, 0, 82, 78
2, 14030, Note_on_c, 0, 53, 0
2, 14036, Note_on_c, 0, 82, 0
2, 14048, Note_on_c, 0, 68, 67
2, 14052, Note_on_c, 0, 65, 72
2, 14062, Note_on_c, 0, 68, 0
2, 14063, Note_on_c, 0, 65, 0
2, 14072, Note_on_c, 0, 74, 66
2, 14074, Note_on_c, 0, 80, 0
2, 14086, Note_on_c, 0, 82, 54
2, 14100, Note_on_c, 0, 82, 0
2, 14110, Note_on_c, 0, 46, 67
2, 14112, Note_on_c, 0, 74, 0
2, 14114, Note_on_c, 0, 67, 67
2, 14124, Control_c, 0, 64, 0
2, 14127, Note_on_c, 0, 67, 0
2, 14144, Note_on_c, 0, 75, 57
2, 14154, Note_on_c, 0, 46, 0
2, 14154, Note_on_c, 0, 55, 50
2, 14164, Control_c, 0, 64, 127
2, 14178, Note_on_c, 0, 55, 0
2, 14180, Note_on_c, 0, 82, 59
2, 14190, Note_on_c, 0, 63, 61
2, 14200, Note_on_c, 0, 82, 0
2, 14202, Note_on_c, 0, 63, 0
2, 14204, Note_on_c, 0, 75, 0
2, 14226, Note_on_c, 0, 69, 61
2, 14240, Note_on_c, 0, 46, 51
2, 14242, Control_c, 0, 64, 0
2, 14246, Note_on_c, 0, 69, 0
2, 14252, Note_on_c, 0, 75, 58
2, 14267, Note_on_c, 0, 46, 0
2, 14270, Control_c, 0, 64, 127
2, 14272, Note_on_c, 0, 54, 24
2, 14288, Note_on_c, 0, 75, 0
2, 14289, Note_on_c, 0, 54, 0
2, 14291, Note_on_c, 0, 84, 90
2, 14297, Note_on_c, 0, 63, 57
2, 14304, Note_on_c, 0, 84, 0
2, 14307, Note_on_c, 0, 63, 0
2, 14332, Note_on_c, 0, 69, 59
2, 14338, Note_on_c, 0, 46, 55
2, 14350, Note_on_c, 0, 46, 0
2, 14354, Note_on_c, 0, 75, 43
2, 14355, Note_on_c, 0, 69, 0
2, 14359, Note_on_c, 0, 54, 49
2, 14371, Note_on_c, 0, 75, 0
2, 14371, Note_on_c, 0, 83, 81
2, 14381, Note_on_c, 0, 63, 60
2, 14384, Note_on_c, 0, 54, 0
2, 14389, Note_on_c, 0, 63, 0
2, 14393, Note_on_c, 0, 83, 0
2, 14407, Note_on_c, 0, 69, 40
2, 14415, Note_on_c, 0, 46, 64
2, 14423, Note_on_c, 0, 69, 0
2, 14424, Note_on_c, 0, 75, 64
2, 14427, Note_on_c, 0, 46, 0
2, 14429, Note_on_c, 0, 54, 44
2, 14435, Note_on_c, 0, 75, 0
2, 14445, Note_on_c, 0, 84, 90
2, 14448, Note_on_c, 0, 63, 62
2, 14450, Note_on_c, 0, 84, 0
2, 14459, Note_on_c, 0, 63, 0
2, 14465, Note_on_c, 0, 54, 0
2, 14478, Note_on_c, 0, 69, 73
2, 14487, Control_c, 0, 64, 0
2, 14490, Note_on_c, 0, 46, 52
2, 14494, Note_on_c, 0, 69, 0
2, 14496, Note_on_c, 0, 75, 58
2, 14505, Note_on_c, 0, 46, 0
2, 14505, Note_on_c, 0, 53, 66
2, 14506, Note_on_c, 0, 75, 0
2, 14514, Control_c, 0, 64, 127
2, 14522, Note_on_c, 0, 86, 94
2, 14527, Note_on_c, 0, 53, 0
2, 14530, Note_on_c, 0, 63, 61
2, 14533, Note_on_c, 0, 86, 0
2, 14540, Note_on_c, 0, 63, 0
2, 14567, Note_on_c, 0, 69, 73
2, 14577, Note_on_c, 0, 69, 0
2, 14577, Note_on_c, 0, 46, 34
2, 14586, Note_on_c, 0, 75, 64
2, 14591, Note_on_c, 0, 46, 0
2, 14595, Note_on_c, 0, 75, 0
2, 14595, Note_on_c, 0, 53, 43
2, 14608, Note_on_c, 0, 53, 0
2, 14610, Note_on_c, 0, 84, 90
2, 14620, Note_on_c, 0, 63, 49
2, 14630, Note_on_c, 0, 63, 0
2, 14644, Note_on_c, 0, 84, 0
2, 14650, Note_on_c, 0, 74, 64
2, 14660, Note_on_c, 0, 74, 0
2, 14681, Note_on_c, 0, 82, 74
2, 14706, Control_c, 0, 64, 0
2, 14709, Note_on_c, 0, 34, 48
2, 14736, Note_on_c, 0, 82, 0
2, 14737, Note_on_c, 0, 89, 73
2, 14742, Note_on_c, 0, 34, 0
2, 14744, Control_c, 0, 64, 127
2, 14756, Note_on_c, 0, 89, 0
2, 14786, Note_on_c, 0, 46, 55
2, 14816, Note_on_c, 0, 53, 42
2, 14820, Note_on_c, 0, 46, 0
2, 14829, Note_on_c, 0, 53, 0
2, 14842, Note_on_c, 0, 68, 50
2, 14854, Note_on_c, 0, 62, 48
2, 14856, Note_on_c, 0, 68, 0
2, 14865, Note_on_c, 0, 62, 0
2, 14875, Note_on_c, 0, 77, 65
2, 14896, Note_on_c, 0, 82, 56
2, 14902, Note_on_c, 0, 46, 60
2, 14909, Note_on_c, 0, 77, 0
2, 14915, Note_on_c, 0, 82, 0
2, 14924, Note_on_c, 0, 53, 51
2, 14930, Note_on_c, 0, 46, 0
2, 14936, Note_on_c, 0, 53, 0
2, 14939, Note_on_c, 0, 68, 54
2, 14948, Note_on_c, 0, 61, 48
2, 14950, Note_on_c, 0, 68, 0
2, 14961, Note_on_c, 0, 61, 0
2, 14961, Note_on_c, 0, 76, 69
2, 14976, Note_on_c, 0, 82, 70
2, 14985, Note_on_c, 0, 46, 76
2, 14991, Note_on_c, 0, 82, 0
2, 14997, Note_on_c, 0, 46, 0
2, 14997, Note_on_c, 0, 76, 0
2, 15007, Note_on_c, 0, 53, 51
2, 15014, Note_on_c, 0, 68, 55
2, 15019, Note_on_c, 0, 53, 0
2, 15020, Note_on_c, 0, 62, 74
2, 15025, Note_on_c, 0, 68, 0
2, 15028, Note_on_c, 0, 62, 0
2, 15032, Note_on_c, 0, 77, 79
2, 15044, Note_on_c, 0, 82, 85
2, 15060, Note_on_c, 0, 46, 74
2, 15066, Note_on_c, 0, 77, 0
2, 15072, Note_on_c, 0, 46, 0
2, 15074, Note_on_c, 0, 82, 0
2, 15077, Note_on_c, 0, 53, 65
2, 15080, Note_on_c, 0, 68, 70
2, 15095, Note_on_c, 0, 68, 0
2, 15096, Note_on_c, 0, 53, 0
2, 15099, Note_on_c, 0, 63, 67
2, 15099, Note_on_c, 0, 79, 85
2, 15111, Note_on_c, 0, 63, 0
2, 15117, Note_on_c, 0, 82, 81
2, 15130, Note_on_c, 0, 82, 0
2, 15136, Note_on_c, 0, 46, 85
2, 15142, Note_on_c, 0, 79, 0
2, 15147, Note_on_c, 0, 46, 0
2, 15147, Note_on_c, 0, 68, 71
2, 15157, Note_on_c, 0, 53, 46
2, 15160, Note_on_c, 0, 68, 0
2, 15166, Note_on_c, 0, 77, 89
2, 15167, Note_on_c, 0, 62, 72
2, 15175, Note_on_c, 0, 62, 0
2, 15185, Note_on_c, 0, 82, 82
2, 15193, Note_on_c, 0, 53, 0
2, 15198, Note_on_c, 0, 77, 0
2, 15200, Note_on_c, 0, 46, 87
2, 15209, Control_c, 0, 64, 0
2, 15212, Note_on_c, 0, 82, 0
2, 15218, Note_on_c, 0, 69, 80
2, 15224, Note_on_c, 0, 54, 50
2, 15233, Note_on_c, 0, 46, 0
2, 15240, Note_on_c, 0, 78, 77
2, 15244, Note_on_c, 0, 69, 0
2, 15250, Control_c, 0, 64, 127
2, 15255, Note_on_c, 0, 63, 74
2, 15262, Note_on_c, 0, 83, 75
2, 15269, Note_on_c, 0, 63, 0
2, 15280, Note_on_c, 0, 54, 0
2, 15286, Note_on_c, 0, 78, 0
2, 15292, Note_on_c, 0, 83, 0
2, 15295, Note_on_c, 0, 46, 85
2, 15307, Note_on_c, 0, 46, 0
2, 15310, Note_on_c, 0, 69, 78
2, 15314, Note_on_c, 0, 54, 54
2, 15323, Note_on_c, 0, 69, 0
2, 15330, Note_on_c, 0, 78, 77
2, 15338, Note_on_c, 0, 63, 72
2, 15347, Note_on_c, 0, 83, 78
2, 15350, Note_on_c, 0, 63, 0
2, 15359, Note_on_c, 0, 54, 0
2, 15369, Note_on_c, 0, 83, 0
2, 15375, Note_on_c, 0, 46, 79
2, 15381, Note_on_c, 0, 69, 78
2, 15383, Note_on_c, 0, 78, 0
2, 15387, Note_on_c, 0, 46, 0
2, 15389, Note_on_c, 0, 54, 35
2, 15401, Note_on_c, 0, 69, 0
2, 15401, Note_on_c, 0, 77, 91
2, 15401, Note_on_c, 0, 62, 87
2, 15411, Note_on_c, 0, 62, 0
2, 15419, Note_on_c, 0, 83, 76
2, 15423, Note_on_c, 0, 54, 0
2, 15437, Note_on_c, 0, 83, 0
2, 15437, Note_on_c, 0, 46, 87
2, 15448, Note_on_c, 0, 46, 0
2, 15451, Note_on_c, 0, 69, 88
2, 15455, Note_on_c, 0, 54, 53
2, 15467, Note_on_c, 0, 78, 82
2, 15470, Note_on_c, 0, 69, 0
2, 15473, Note_on_c, 0, 63, 75
2, 15477, Note_on_c, 0, 77, 0
2, 15481, Note_on_c, 0, 63, 0
2, 15481, Note_on_c, 0, 83, 80
2, 15483, Note_on_c, 0, 54, 0
2, 15500, Note_on_c, 0, 46, 88
2, 15503, Note_on_c, 0, 83, 0
2, 15513, Note_on_c, 0, 46, 0
2, 15513, Note_on_c, 0, 69, 87
2, 15516, Control_c, 0, 64, 0
2, 15520, Note_on_c, 0, 54, 75
2, 15528, Note_on_c, 0, 54, 0
2, 15533, Note_on_c, 0, 78, 0
2, 15534, Note_on_c, 0, 80, 86
2, 15537, Note_on_c, 0, 69, 0
2, 15547, Note_on_c, 0, 65, 99
2, 15549, Control_c, 0, 64, 127
2, 15555, Note_on_c, 0, 83, 78
2, 15565, Note_on_c, 0, 65, 0
2, 15579, Note_on_c, 0, 83, 0
2, 15591, Note_on_c, 0, 46, 97
2, 15595, Note_on_c, 0, 69, 84
2, 15596, Note_on_c, 0, 46, 0
2, 15605, Note_on_c, 0, 80, 0
2, 15607, Note_on_c, 0, 54, 71
2, 15613, Note_on_c, 0, 69, 0
2, 15617, Note_on_c, 0, 78, 80
2, 15626, Note_on_c, 0, 63, 86
2, 15632, Note_on_c, 0, 83, 79
2, 15637, Note_on_c, 0, 54, 0
2, 15638, Note_on_c, 0, 63, 0
2, 15647, Note_on_c, 0, 78, 0
2, 15660, Note_on_c, 0, 46, 94
2, 15663, Note_on_c, 0, 70, 94
2, 15665, Control_c, 0, 64, 0
2, 15681, Note_on_c, 0, 83, 0
2, 15681, Note_on_c, 0, 55, 75
2, 15683, Note_on_c, 0, 46, 0
2, 15685, Note_on_c, 0, 70, 0
2, 15685, Note_on_c, 0, 79, 84
2, 15690, Note_on_c, 0, 55, 0
2, 15700, Note_on_c, 0, 64, 95
2, 15703, Control_c, 0, 64, 127
2, 15703, Note_on_c, 0, 84, 97
2, 15709, Note_on_c, 0, 64, 0
2, 15718, Note_on_c, 0, 79, 0
2, 15727, Note_on_c, 0, 84, 0
2, 15739, Note_on_c, 0, 46, 91
2, 15746, Note_on_c, 0, 70, 81
2, 15750, Note_on_c, 0, 46, 0
2, 15757, Note_on_c, 0, 70, 0
2, 15758, Note_on_c, 0, 55, 55
2, 15767, Note_on_c, 0, 79, 84
2, 15769, Note_on_c, 0, 55, 0
2, 15773, Note_on_c, 0, 64, 79
2, 15781, Note_on_c, 0, 64, 0
2, 15781, Note_on_c, 0, 84, 98
2, 15798, Note_on_c, 0, 79, 0
2, 15803, Note_on_c, 0, 84, 0
2, 15809, Note_on_c, 0, 46, 89
2, 15815, Note_on_c, 0, 70, 91
2, 15819, Note_on_c, 0, 46, 0
2, 15826, Note_on_c, 0, 55, 34
2, 15831, Note_on_c, 0, 70, 0
2, 15835, Note_on_c, 0, 78, 87
2, 15838, Note_on_c, 0, 63, 84
2, 15850, Note_on_c, 0, 63, 0
2, 15851, Note_on_c, 0, 84, 101
2, 15859, Note_on_c, 0, 55, 0
2, 15865, Note_on_c, 0, 78, 0
2, 15871, Note_on_c, 0, 84, 0
2, 15872, Note_on_c, 0, 46, 87
2, 15885, Note_on_c, 0, 46, 0
2, 15885, Note_on_c, 0, 70, 94
2, 15903, Note_on_c, 0, 70, 0
2, 15903, Note_on_c, 0, 79, 97
2, 15905, Note_on_c, 0, 55, 10
2, 15905, Note_on_c, 0, 64, 77
2, 15912, Note_on_c, 0, 64, 0
2, 15917, Note_on_c, 0, 84, 95
2, 15924, Note_on_c, 0, 55, 0
2, 15936, Note_on_c, 0, 84, 0
2, 15937, Note_on_c, 0, 46, 100
2, 15939, Control_c, 0, 64, 0
2, 15948, Note_on_c, 0, 70, 96
2, 15957, Note_on_c, 0, 55, 60
2, 15960, Note_on_c, 0, 46, 0
2, 15964, Control_c, 0, 64, 127
2, 15965, Note_on_c, 0, 55, 0
2, 15969, Note_on_c, 0, 70, 0
2, 15970, Note_on_c, 0, 81, 93
2, 15971, Note_on_c, 0, 79, 0
2, 15985, Note_on_c, 0, 65, 97
2, 15989, Note_on_c, 0, 84, 94
2, 15999, Note_on_c, 0, 65, 0
2, 16011, Note_on_c, 0, 84, 0
2, 16025, Note_on_c, 0, 70, 84
2, 16025, Note_on_c, 0, 46, 97
2, 16037, Note_on_c, 0, 46, 0
2, 16039, Note_on_c, 0, 81, 0
2, 16043, Note_on_c, 0, 70, 0
2, 16047, Note_on_c, 0, 79, 82
2, 16054, Note_on_c, 0, 55, 61
2, 16065, Note_on_c, 0, 55, 0
2, 16071, Note_on_c, 0, 84, 103
2, 16074, Note_on_c, 0, 64, 94
2, 16076, Note_on_c, 0, 79, 0
2, 16085, Note_on_c, 0, 64, 0
2, 16094, Note_on_c, 0, 84, 0
2, 16114, Note_on_c, 0, 46, 79
2, 16119, Note_on_c, 0, 72, 45
2, 16134, Control_c, 0, 64, 0
2, 16135, Note_on_c, 0, 77, 76
2, 16139, Note_on_c, 0, 46, 0
2, 16140, Note_on_c, 0, 53, 75
2, 16152, Note_on_c, 0, 53, 0
2, 16153, Note_on_c, 0, 81, 87
2, 16157, Note_on_c, 0, 57, 63
2, 16169, Note_on_c, 0, 57, 0
2, 16169, Note_on_c, 0, 77, 0
2, 16169, Note_on_c, 0, 84, 98
2, 16170, Control_c, 0, 64, 127
2, 16172, Note_on_c, 0, 63, 87
2, 16173, Note_on_c, 0, 72, 0
2, 16181, Note_on_c, 0, 81, 0
2, 16185, Note_on_c, 0, 63, 0
2, 16204, Note_on_c, 0, 74, 89
2, 16211, Note_on_c, 0, 46, 79
2, 16225, Note_on_c, 0, 46, 0
2, 16225, Note_on_c, 0, 84, 0
2, 16226, Note_on_c, 0, 74, 0
2, 16226, Note_on_c, 0, 80, 88
2, 16230, Note_on_c, 0, 53, 56
2, 16238, Note_on_c, 0, 80, 0
2, 16244, Note_on_c, 0, 53, 0
2, 16247, Note_on_c, 0, 56, 52
2, 16247, Note_on_c, 0, 89, 112
2, 16255, Note_on_c, 0, 62, 53
2, 16262, Note_on_c, 0, 89, 0
2, 16266, Note_on_c, 0, 62, 0
2, 16272, Note_on_c, 0, 56, 0
2, 16280, Note_on_c, 0, 73, 91
2, 16288, Note_on_c, 0, 46, 87
2, 16295, Control_c, 0, 64, 0
2, 16302, Note_on_c, 0, 53, 66
2, 16303, Note_on_c, 0, 73, 0
2, 16303, Note_on_c, 0, 80, 85
2, 16314, Note_on_c, 0, 46, 0
2, 16318, Note_on_c, 0, 56, 65
2, 16320, Note_on_c, 0, 88, 105
2, 16322, Control_c, 0, 64, 127
2, 16326, Note_on_c, 0, 62, 72
2, 16328, Note_on_c, 0, 53, 0
2, 16329, Note_on_c, 0, 80, 0
2, 16334, Note_on_c, 0, 62, 0
2, 16342, Note_on_c, 0, 88, 0
2, 16350, Note_on_c, 0, 56, 0
2, 16356, Note_on_c, 0, 74, 89
2, 16365, Note_on_c, 0, 46, 70
2, 16372, Note_on_c, 0, 74, 0
2, 16374, Note_on_c, 0, 46, 0
2, 16376, Note_on_c, 0, 80, 85
2, 16379, Note_on_c, 0, 53, 44
2, 16392, Note_on_c, 0, 53, 0
2, 16394, Note_on_c, 0, 89, 110
2, 16395, Note_on_c, 0, 56, 50
2, 16396, Note_on_c, 0, 80, 0
2, 16402, Note_on_c, 0, 62, 50
2, 16410, Note_on_c, 0, 89, 0
2, 16416, Note_on_c, 0, 56, 0
2, 16417, Note_on_c, 0, 62, 0
2, 16440, Note_on_c, 0, 74, 83
2, 16446, Note_on_c, 0, 46, 49
2, 16450, Control_c, 0, 64, 0
2, 16462, Note_on_c, 0, 74, 0
2, 16466, Note_on_c, 0, 53, 64
2, 16467, Note_on_c, 0, 84, 95
2, 16480, Note_on_c, 0, 46, 0
2, 16481, Control_c, 0, 64, 127
2, 16492, Note_on_c, 0, 84, 0
2, 16493, Note_on_c, 0, 53, 0
2, 16497, Note_on_c, 0, 56, 35
2, 16514, Note_on_c, 0, 56, 0
2, 16515, Note_on_c, 0, 92, 92
2, 16532, Note_on_c, 0, 92, 0
2, 16580, Note_on_c, 0, 74, 41
2, 16586, Note_on_c, 0, 46, 49
2, 16592, Note_on_c, 0, 74, 0
2, 16598, Note_on_c, 0, 82, 83
2, 16604, Note_on_c, 0, 46, 0
2, 16608, Note_on_c, 0, 82, 0
2, 16632, Note_on_c, 0, 91, 84
2, 16638, Note_on_c, 0, 91, 0
2, 16642, Note_on_c, 0, 56, 28
2, 16658, Note_on_c, 0, 56, 0
2, 16671, Note_on_c, 0, 62, 34
2, 16684, Note_on_c, 0, 62, 0
2, 16689, Note_on_c, 0, 70, 59
2, 16730, Note_on_c, 0, 79, 65
2, 16748, Control_c, 0, 64, 0
2, 16751, Note_on_c, 0, 39, 23
2, 16770, Note_on_c, 0, 70, 0
2, 16780, Control_c, 0, 64, 127
2, 16783, Note_on_c, 0, 79, 0
2, 16800, Note_on_c, 0, 39, 0
2, 16814, Note_on_c, 0, 87, 47
2, 16859, Note_on_c, 0, 87, 0
2, 16868, Note_on_c, 0, 51, 21
2, 16908, Note_on_c, 0, 58, 42
2, 16911, Note_on_c, 0, 51, 0
2, 16925, Note_on_c, 0, 70, 36
2, 16929, Note_on_c, 0, 58, 0
2, 16965, Note_on_c, 0, 79, 45
2, 16966, Note_on_c, 0, 70, 0
2, 16971, Note_on_c, 0, 67, 41
2, 16989, Note_on_c, 0, 67, 0
2, 16999, Note_on_c, 0, 82, 62
2, 17001, Note_on_c, 0, 79, 0
2, 17033, Note_on_c, 0, 51, 41
2, 17047, Note_on_c, 0, 70, 52
2, 17049, Note_on_c, 0, 82, 0
2, 17051, Note_on_c, 0, 51, 0
2, 17059, Note_on_c, 0, 58, 24
2, 17061, Note_on_c, 0, 70, 0
2, 17071, Note_on_c, 0, 58, 0
2, 17073, Note_on_c, 0, 79, 42
2, 17083, Note_on_c, 0, 67, 52
2, 17087, Note_on_c, 0, 79, 0
2, 17095, Note_on_c, 0, 67, 0
2, 17095, Note_on_c, 0, 81, 63
2, 17121, Note_on_c, 0, 81, 0
2, 17129, Note_on_c, 0, 51, 47
2, 17131, Note_on_c, 0, 70, 55
2, 17135, Note_on_c, 0, 58, 24
2, 17143, Note_on_c, 0, 51, 0
2, 17146, Note_on_c, 0, 70, 0
2, 17147, Note_on_c, 0, 58, 0
2, 17161, Note_on_c, 0, 79, 29
2, 17171, Note_on_c, 0, 82, 78
2, 17173, Note_on_c, 0, 79, 0
2, 17175, Note_on_c, 0, 67, 52
2, 17181, Note_on_c, 0, 82, 0
2, 17187, Note_on_c, 0, 67, 0
2, 17217, Note_on_c, 0, 70, 61
2, 17221, Note_on_c, 0, 51, 30
2, 17229, Note_on_c, 0, 70, 0
2, 17239, Note_on_c, 0, 51, 0
2, 17245, Note_on_c, 0, 79, 55
2, 17251, Note_on_c, 0, 58, 41
2, 17265, Note_on_c, 0, 58, 0
2, 17271, Note_on_c, 0, 86, 59
2, 17273, Note_on_c, 0, 79, 0
2, 17287, Note_on_c, 0, 86, 0
2, 17287, Note_on_c, 0, 67, 56
2, 17297, Note_on_c, 0, 67, 0
2, 17305, Note_on_c, 0, 84, 71
2, 17337, Note_on_c, 0, 84, 0
2, 17343, Note_on_c, 0, 51, 35
2, 17360, Note_on_c, 0, 51, 0
2, 17365, Note_on_c, 0, 58, 38
2, 17375, Note_on_c, 0, 70, 44
2, 17377, Note_on_c, 0, 58, 0
2, 17387, Note_on_c, 0, 67, 42
2, 17389, Note_on_c, 0, 70, 0
2, 17393, Note_on_c, 0, 79, 55
2, 17401, Note_on_c, 0, 67, 0
2, 17403, Note_on_c, 0, 79, 0
2, 17407, Note_on_c, 0, 82, 62
2, 17435, Control_c, 0, 64, 0
2, 17437, Note_on_c, 0, 50, 43
2, 17443, Note_on_c, 0, 70, 61
2, 17455, Note_on_c, 0, 70, 0
2, 17455, Note_on_c, 0, 50, 0
2, 17461, Note_on_c, 0, 58, 48
2, 17463, Control_c, 0, 64, 127
2, 17467, Note_on_c, 0, 80, 57
2, 17469, Note_on_c, 0, 82, 0
2, 17475, Note_on_c, 0, 58, 0
2, 17479, Note_on_c, 0, 80, 0
2, 17497, Note_on_c, 0, 68, 50
2, 17511, Note_on_c, 0, 68, 0
2, 17515, Note_on_c, 0, 89, 68
2, 17527, Note_on_c, 0, 89, 0
2, 17557, Note_on_c, 0, 50, 40
2, 17571, Note_on_c, 0, 50, 0
2, 17577, Note_on_c, 0, 70, 43
2, 17579, Note_on_c, 0, 58, 59
2, 17591, Note_on_c, 0, 58, 0
2, 17593, Note_on_c, 0, 70, 0
2, 17599, Note_on_c, 0, 80, 53
2, 17611, Note_on_c, 0, 68, 46
2, 17619, Note_on_c, 0, 82, 81
2, 17620, Note_on_c, 0, 80, 0
2, 17623, Note_on_c, 0, 68, 0
2, 17651, Note_on_c, 0, 50, 40
2, 17657, Note_on_c, 0, 82, 0
2, 17658, Note_on_c, 0, 70, 51
2, 17663, Note_on_c, 0, 50, 0
2, 17675, Note_on_c, 0, 70, 0
2, 17675, Note_on_c, 0, 58, 33
2, 17679, Note_on_c, 0, 80, 57
2, 17686, Note_on_c, 0, 58, 0
2, 17697, Note_on_c, 0, 81, 80
2, 17698, Note_on_c, 0, 68, 57
2, 17708, Note_on_c, 0, 68, 0
2, 17711, Note_on_c, 0, 80, 0
2, 17735, Note_on_c, 0, 50, 52
2, 17736, Note_on_c, 0, 70, 56
2, 17737, Note_on_c, 0, 81, 0
2, 17745, Note_on_c, 0, 50, 0
2, 17753, Note_on_c, 0, 70, 0
2, 17753, Note_on_c, 0, 58, 64
2, 17755, Note_on_c, 0, 80, 62
2, 17765, Note_on_c, 0, 58, 0
2, 17771, Note_on_c, 0, 82, 92
2, 17777, Note_on_c, 0, 68, 66
2, 17778, Note_on_c, 0, 80, 0
2, 17787, Note_on_c, 0, 68, 0
2, 17803, Note_on_c, 0, 70, 78
2, 17809, Note_on_c, 0, 50, 52
2, 17817, Note_on_c, 0, 82, 0
2, 17819, Note_on_c, 0, 50, 0
2, 17819, Note_on_c, 0, 70, 0
2, 17825, Note_on_c, 0, 80, 66
2, 17835, Note_on_c, 0, 58, 64
2, 17847, Note_on_c, 0, 58, 0
2, 17855, Note_on_c, 0, 86, 65
2, 17863, Note_on_c, 0, 80, 0
2, 17865, Note_on_c, 0, 68, 69
2, 17875, Note_on_c, 0, 68, 0
2, 17885, Note_on_c, 0, 84, 84
2, 17897, Note_on_c, 0, 86, 0
2, 17911, Note_on_c, 0, 84, 0
2, 17913, Note_on_c, 0, 50, 46
2, 17927, Note_on_c, 0, 50, 0
2, 17929, Note_on_c, 0, 58, 64
2, 17941, Note_on_c, 0, 58, 0
2, 17949, Note_on_c, 0, 70, 69
2, 17961, Note_on_c, 0, 68, 51
2, 17969, Note_on_c, 0, 80, 54
2, 17971, Note_on_c, 0, 70, 0
2, 17973, Note_on_c, 0, 68, 0
2, 17982, Note_on_c, 0, 80, 0
2, 17984, Note_on_c, 0, 82, 85
2, 18009, Note_on_c, 0, 51, 34
2, 18015, Control_c, 0, 64, 0
2, 18021, Note_on_c, 0, 70, 65
2, 18031, Note_on_c, 0, 58, 69
2, 18035, Note_on_c, 0, 51, 0
2, 18041, Note_on_c, 0, 82, 0
2, 18043, Note_on_c, 0, 70, 0
2, 18044, Control_c, 0, 64, 127
2, 18047, Note_on_c, 0, 79, 59
2, 18057, Note_on_c, 0, 58, 0
2, 18063, Note_on_c, 0, 63, 36
2, 18065, Note_on_c, 0, 79, 0
2, 18071, Note_on_c, 0, 82, 61
2, 18079, Note_on_c, 0, 63, 0
2, 18081, Note_on_c, 0, 67, 56
2, 18083, Note_on_c, 0, 82, 0
2, 18091, Note_on_c, 0, 67, 0
2, 18105, Note_on_c, 0, 91, 97
2, 18111, Note_on_c, 0, 91, 0
2, 18133, Note_on_c, 0, 53, 45
2, 18157, Note_on_c, 0, 58, 57
2, 18159, Note_on_c, 0, 74, 58
2, 18161, Control_c, 0, 64, 0
2, 18179, Note_on_c, 0, 53, 0
2, 18179, Note_on_c, 0, 82, 76
2, 18179, Note_on_c, 0, 62, 50
2, 18185, Note_on_c, 0, 74, 0
2, 18189, Note_on_c, 0, 86, 89
2, 18191, Control_c, 0, 64, 127
2, 18197, Note_on_c, 0, 82, 0
2, 18201, Note_on_c, 0, 86, 0
2, 18203, Note_on_c, 0, 68, 72
2, 18209, Note_on_c, 0, 58, 0
2, 18211, Note_on_c, 0, 68, 0
2, 18217, Note_on_c, 0, 62, 0
2, 18229, Note_on_c, 0, 70, 84
2, 18237, Note_on_c, 0, 55, 70
2, 18239, Note_on_c, 0, 70, 0
2, 18245, Note_on_c, 0, 75, 69
2, 18247, Control_c, 0, 64, 0
2, 18251, Note_on_c, 0, 58, 60
2, 18255, Note_on_c, 0, 75, 0
2, 18263, Note_on_c, 0, 82, 82
2, 18267, Note_on_c, 0, 63, 43
2, 18273, Note_on_c, 0, 55, 0
2, 18274, Control_c, 0, 64, 127
2, 18279, Note_on_c, 0, 67, 70
2, 18283, Note_on_c, 0, 63, 0
2, 18284, Note_on_c, 0, 87, 89
2, 18287, Note_on_c, 0, 67, 0
2, 18291, Note_on_c, 0, 87, 0
2, 18293, Note_on_c, 0, 58, 0
2, 18307, Note_on_c, 0, 82, 0
2, 18321, Note_on_c, 0, 43, 79
2, 18323, Note_on_c, 0, 71, 55
2, 18331, Note_on_c, 0, 71, 0
2, 18335, Note_on_c, 0, 43, 0
2, 18339, Note_on_c, 0, 75, 69
2, 18345, Note_on_c, 0, 51, 70
2, 18349, Note_on_c, 0, 75, 0
2, 18357, Note_on_c, 0, 51, 0
2, 18361, Note_on_c, 0, 59, 54
2, 18361, Note_on_c, 0, 86, 101
2, 18369, Note_on_c, 0, 59, 0
2, 18377, Note_on_c, 0, 86, 0
2, 18395, Note_on_c, 0, 44, 73
2, 18409, Note_on_c, 0, 72, 81
2, 18415, Control_c, 0, 64, 0
2, 18421, Note_on_c, 0, 51, 79
2, 18425, Note_on_c, 0, 75, 75
2, 18429, Note_on_c, 0, 72, 0
2, 18431, Note_on_c, 0, 44, 0
2, 18437, Note_on_c, 0, 75, 0
2, 18443, Note_on_c, 0, 84, 101
2, 18447, Note_on_c, 0, 60, 73
2, 18449, Control_c, 0, 64, 127
2, 18453, Note_on_c, 0, 51, 0
2, 18455, Note_on_c, 0, 60, 0
2, 18467, Note_on_c, 0, 84, 0
2, 18468, Note_on_c, 0, 72, 83
2, 18475, Note_on_c, 0, 45, 96
2, 18479, Note_on_c, 0, 72, 0
2, 18485, Note_on_c, 0, 77, 89
2, 18487, Note_on_c, 0, 45, 0
2, 18491, Note_on_c, 0, 77, 0
2, 18495, Note_on_c, 0, 53, 37
2, 18507, Note_on_c, 0, 53, 0
2, 18511, Note_on_c, 0, 89, 108
2, 18517, Note_on_c, 0, 89, 0
2, 18521, Note_on_c, 0, 63, 73
2, 18529, Note_on_c, 0, 63, 0
2, 18551, Note_on_c, 0, 70, 58
2, 18553, Note_on_c, 0, 46, 92
2, 18565, Note_on_c, 0, 70, 0
2, 18571, Note_on_c, 0, 55, 72
2, 18572, Note_on_c, 0, 79, 72
2, 18577, Note_on_c, 0, 46, 0
2, 18597, Note_on_c, 0, 63, 70
2, 18598, Note_on_c, 0, 87, 100
2, 18599, Note_on_c, 0, 79, 0
2, 18605, Note_on_c, 0, 63, 0
2, 18614, Note_on_c, 0, 79, 10
2, 18621, Note_on_c, 0, 55, 0
2, 18625, Note_on_c, 0, 87, 0
2, 18627, Note_on_c, 0, 79, 0
2, 18631, Note_on_c, 0, 46, 91
2, 18635, Note_on_c, 0, 72, 79
2, 18645, Note_on_c, 0, 54, 72
2, 18651, Note_on_c, 0, 72, 0
2, 18652, Note_on_c, 0, 78, 74
2, 18655, Control_c, 0, 64, 0
2, 18657, Note_on_c, 0, 46, 0
2, 18667, Note_on_c, 0, 57, 66
2, 18668, Note_on_c, 0, 81, 84
2, 18669, Note_on_c, 0, 78, 0
2, 18677, Note_on_c, 0, 87, 101
2, 18681, Note_on_c, 0, 63, 75
2, 18683, Control_c, 0, 64, 127
2, 18691, Note_on_c, 0, 63, 0
2, 18692, Note_on_c, 0, 54, 0
2, 18693, Note_on_c, 0, 87, 0
2, 18697, Note_on_c, 0, 57, 0
2, 18705, Note_on_c, 0, 81, 0
2, 18713, Note_on_c, 0, 70, 93
2, 18717, Note_on_c, 0, 46, 88
2, 18721, Note_on_c, 0, 70, 0
2, 18725, Note_on_c, 0, 53, 74
2, 18726, Note_on_c, 0, 46, 0
2, 18729, Note_on_c, 0, 77, 79
2, 18739, Note_on_c, 0, 77, 0
2, 18745, Note_on_c, 0, 53, 0
2, 18745, Note_on_c, 0, 82, 92
2, 18751, Note_on_c, 0, 86, 103
2, 18753, Note_on_c, 0, 62, 79
2, 18755, Note_on_c, 0, 58, 69
2, 18761, Note_on_c, 0, 86, 0
2, 18765, Note_on_c, 0, 62, 0
2, 18769, Note_on_c, 0, 58, 0
2, 18781, Note_on_c, 0, 82, 0
2, 18791, Note_on_c, 0, 48, 82
2, 18793, Note_on_c, 0, 70, 76
2, 18801, Note_on_c, 0, 55, 70
2, 18802, Control_c, 0, 64, 0
2, 18804, Note_on_c, 0, 70, 0
2, 18805, Note_on_c, 0, 76, 80
2, 18813, Note_on_c, 0, 48, 0
2, 18815, Note_on_c, 0, 76, 0
2, 18817, Note_on_c, 0, 79, 67
2, 18823, Note_on_c, 0, 85, 97
2, 18824, Note_on_c, 0, 58, 80
2, 18833, Note_on_c, 0, 64, 78
2, 18835, Note_on_c, 0, 55, 0
2, 18837, Control_c, 0, 64, 127
2, 18841, Note_on_c, 0, 64, 0
2, 18845, Note_on_c, 0, 85, 0
2, 18853, Note_on_c, 0, 58, 0
2, 18855, Note_on_c, 0, 79, 0
2, 18865, Note_on_c, 0, 48, 84
2, 18866, Note_on_c, 0, 68, 76
2, 18873, Note_on_c, 0, 48, 0
2, 18874, Note_on_c, 0, 68, 0
2, 18885, Note_on_c, 0, 56, 83
2, 18887, Note_on_c, 0, 77, 34
2, 18891, Note_on_c, 0, 80, 62
2, 18899, Note_on_c, 0, 77, 0
2, 18901, Note_on_c, 0, 84, 98
2, 18905, Note_on_c, 0, 80, 0
2, 18909, Note_on_c, 0, 65, 78
2, 18919, Note_on_c, 0, 65, 0
2, 18933, Note_on_c, 0, 72, 88
2, 18937, Note_on_c, 0, 56, 0
2, 18939, Control_c, 0, 64, 0
2, 18951, Note_on_c, 0, 48, 68
2, 18952, Note_on_c, 0, 79, 59
2, 18955, Note_on_c, 0, 72, 0
2, 18959, Note_on_c, 0, 84, 0
2, 18961, Note_on_c, 0, 48, 0
2, 18967, Note_on_c, 0, 55, 59
2, 18969, Control_c, 0, 64, 127
2, 18970, Note_on_c, 0, 82, 87
2, 18977, Note_on_c, 0, 79, 0
2, 18978, Note_on_c, 0, 55, 0
2, 18987, Note_on_c, 0, 88, 96
2, 19003, Note_on_c, 0, 88, 0
2, 19011, Note_on_c, 0, 67, 52
2, 19023, Note_on_c, 0, 67, 0
2, 19025, Note_on_c, 0, 72, 81
2, 19035, Note_on_c, 0, 72, 0
2, 19053, Note_on_c, 0, 80, 68
2, 19061, Note_on_c, 0, 82, 0
2, 19081, Note_on_c, 0, 41, 68
2, 19087, Control_c, 0, 64, 0
2, 19105, Note_on_c, 0, 89, 79
2, 19109, Note_on_c, 0, 80, 0
2, 19119, Note_on_c, 0, 41, 0
2, 19123, Control_c, 0, 64, 127
2, 19127, Note_on_c, 0, 89, 0
2, 19155, Note_on_c, 0, 53, 46
2, 19171, Note_on_c, 0, 72, 44
2, 19179, Note_on_c, 0, 53, 0
2, 19185, Note_on_c, 0, 60, 57
2, 19186, Note_on_c, 0, 72, 0
2, 19189, Note_on_c, 0, 80, 46
2, 19201, Note_on_c, 0, 60, 0
2, 19205, Note_on_c, 0, 84, 79
2, 19209, Note_on_c, 0, 68, 61
2, 19223, Note_on_c, 0, 68, 0
2, 19232, Note_on_c, 0, 84, 0
2, 19232, Note_on_c, 0, 80, 0
2, 19245, Note_on_c, 0, 53, 64
2, 19249, Note_on_c, 0, 71, 53
2, 19261, Note_on_c, 0, 53, 0
2, 19262, Note_on_c, 0, 71, 0
2, 19267, Note_on_c, 0, 80, 56
2, 19269, Note_on_c, 0, 60, 58
2, 19283, Note_on_c, 0, 83, 86
2, 19285, Note_on_c, 0, 68, 65
2, 19295, Note_on_c, 0, 80, 0
2, 19296, Note_on_c, 0, 60, 0
2, 19299, Note_on_c, 0, 68, 0
2, 19319, Note_on_c, 0, 72, 63
2, 19323, Note_on_c, 0, 53, 40
2, 19325, Note_on_c, 0, 83, 0
2, 19331, Note_on_c, 0, 72, 0
2, 19337, Note_on_c, 0, 53, 0
2, 19340, Note_on_c, 0, 80, 74
2, 19340, Note_on_c, 0, 60, 54
2, 19353, Note_on_c, 0, 84, 89
2, 19355, Note_on_c, 0, 68, 76
2, 19359, Note_on_c, 0, 60, 0
2, 19363, Note_on_c, 0, 68, 0
2, 19364, Note_on_c, 0, 80, 0
2, 19371, Note_on_c, 0, 84, 0
2, 19388, Note_on_c, 0, 73, 48
2, 19391, Note_on_c, 0, 53, 49
2, 19401, Note_on_c, 0, 73, 0
2, 19401, Note_on_c, 0, 80, 72
2, 19404, Note_on_c, 0, 53, 0
2, 19411, Note_on_c, 0, 60, 39
2, 19422, Note_on_c, 0, 87, 73
2, 19425, Note_on_c, 0, 68, 67
2, 19427, Note_on_c, 0, 60, 0
2, 19437, Note_on_c, 0, 68, 0
2, 19456, Note_on_c, 0, 85, 83
2, 19470, Note_on_c, 0, 87, 0
2, 19472, Note_on_c, 0, 53, 40
2, 19484, Note_on_c, 0, 80, 0
2, 19487, Note_on_c, 0, 53, 0
2, 19494, Note_on_c, 0, 85, 0
2, 19505, Note_on_c, 0, 60, 34
2, 19520, Note_on_c, 0, 72, 40
2, 19526, Note_on_c, 0, 68, 47
2, 19530, Note_on_c, 0, 60, 0
2, 19533, Note_on_c, 0, 72, 0
2, 19536, Note_on_c, 0, 68, 0
2, 19536, Note_on_c, 0, 80, 58
2, 19550, Note_on_c, 0, 84, 72
2, 19554, Note_on_c, 0, 80, 0
2, 19572, Control_c, 0, 64, 0
2, 19572, Note_on_c, 0, 52, 42
2, 19580, Note_on_c, 0, 72, 74
2, 19594, Note_on_c, 0, 72, 0
2, 19594, Note_on_c, 0, 58, 66
2, 19600, Note_on_c, 0, 52, 0
2, 19601, Note_on_c, 0, 84, 0
2, 19601, Note_on_c, 0, 79, 48
2, 19606, Control_c, 0, 64, 127
2, 19614, Note_on_c, 0, 82, 85
2, 19614, Note_on_c, 0, 60, 52
2, 19615, Note_on_c, 0, 79, 0
2, 19622, Note_on_c, 0, 82, 0
2, 19625, Note_on_c, 0, 60, 0
2, 19630, Note_on_c, 0, 58, 0
2, 19639, Note_on_c, 0, 67, 69
2, 19647, Note_on_c, 0, 67, 0
2, 19647, Note_on_c, 0, 91, 94
2, 19654, Note_on_c, 0, 91, 0
2, 19679, Note_on_c, 0, 52, 61
2, 19694, Note_on_c, 0, 52, 0
2, 19694, Note_on_c, 0, 72, 44
2, 19698, Note_on_c, 0, 58, 65
2, 19709, Note_on_c, 0, 58, 0
2, 19711, Note_on_c, 0, 60, 58
2, 19713, Note_on_c, 0, 72, 0
2, 19714, Note_on_c, 0, 79, 44
2, 19719, Note_on_c, 0, 82, 84
2, 19723, Note_on_c, 0, 67, 59
2, 19725, Note_on_c, 0, 79, 0
2, 19727, Note_on_c, 0, 84, 101
2, 19733, Note_on_c, 0, 60, 0
2, 19733, Note_on_c, 0, 67, 0
2, 19747, Note_on_c, 0, 82, 0
2, 19751, Note_on_c, 0, 84, 0
2, 19759, Note_on_c, 0, 52, 63
2, 19767, Note_on_c, 0, 71, 35
2, 19769, Note_on_c, 0, 52, 0
2, 19769, Note_on_c, 0, 58, 79
2, 19777, Note_on_c, 0, 71, 0
2, 19783, Note_on_c, 0, 79, 48
2, 19787, Note_on_c, 0, 58, 0
2, 19789, Note_on_c, 0, 60, 40
2, 19791, Note_on_c, 0, 82, 67
2, 19799, Note_on_c, 0, 67, 70
2, 19801, Note_on_c, 0, 83, 92
2, 19807, Note_on_c, 0, 67, 0
2, 19811, Note_on_c, 0, 79, 0
2, 19815, Note_on_c, 0, 60, 0
2, 19817, Note_on_c, 0, 82, 0
2, 19835, Note_on_c, 0, 52, 63
2, 19839, Note_on_c, 0, 83, 0
2, 19839, Note_on_c, 0, 72, 82
2, 19843, Note_on_c, 0, 58, 83
2, 19846, Note_on_c, 0, 52, 0
2, 19849, Note_on_c, 0, 72, 0
2, 19859, Note_on_c, 0, 79, 72
2, 19861, Note_on_c, 0, 60, 65
2, 19861, Note_on_c, 0, 82, 91
2, 19864, Note_on_c, 0, 58, 0
2, 19870, Note_on_c, 0, 84, 101
2, 19871, Note_on_c, 0, 79, 0
2, 19873, Note_on_c, 0, 67, 70
2, 19877, Note_on_c, 0, 60, 0
2, 19881, Note_on_c, 0, 67, 0
2, 19885, Note_on_c, 0, 82, 0
2, 19895, Note_on_c, 0, 73, 85
2, 19905, Note_on_c, 0, 84, 0
2, 19910, Note_on_c, 0, 52, 62
2, 19910, Note_on_c, 0, 79, 69
2, 19913, Note_on_c, 0, 73, 0
2, 19913, Note_on_c, 0, 58, 83
2, 19917, Note_on_c, 0, 52, 0
2, 19927, Note_on_c, 0, 82, 98
2, 19931, Note_on_c, 0, 79, 0
2, 19935, Note_on_c, 0, 60, 35
2, 19939, Note_on_c, 0, 58, 0
2, 19939, Note_on_c, 0, 87, 93
2, 19944, Note_on_c, 0, 67, 60
2, 19953, Note_on_c, 0, 82, 0
2, 19955, Note_on_c, 0, 67, 0
2, 19959, Note_on_c, 0, 85, 95
2, 19963, Note_on_c, 0, 60, 0
2, 19975, Note_on_c, 0, 52, 80
2, 19981, Note_on_c, 0, 87, 0
2, 19985, Note_on_c, 0, 58, 83
2, 19986, Note_on_c, 0, 52, 0
2, 19989, Note_on_c, 0, 85, 0
2, 19999, Note_on_c, 0, 72, 82
2, 20005, Note_on_c, 0, 60, 37
2, 20012, Note_on_c, 0, 79, 76
2, 20013, Note_on_c, 0, 72, 0
2, 20015, Note_on_c, 0, 58, 0
2, 20016, Note_on_c, 0, 67, 75
2, 20023, Note_on_c, 0, 67, 0
2, 20025, Note_on_c, 0, 82, 96
2, 20033, Note_on_c, 0, 60, 0
2, 20034, Note_on_c, 0, 79, 0
2, 20037, Note_on_c, 0, 84, 97
2, 20043, Note_on_c, 0, 53, 89
2, 20045, Control_c, 0, 64, 0
2, 20046, Note_on_c, 0, 82, 0
2, 20057, Note_on_c, 0, 72, 95
2, 20064, Note_on_c, 0, 56, 76
2, 20070, Note_on_c, 0, 72, 0
2, 20075, Note_on_c, 0, 84, 0
2, 20075, Note_on_c, 0, 53, 0
2, 20075, Note_on_c, 0, 80, 86
2, 20083, Control_c, 0, 64, 127
2, 20091, Note_on_c, 0, 84, 93
2, 20092, Note_on_c, 0, 60, 71
2, 20097, Note_on_c, 0, 56, 0
2, 20099, Note_on_c, 0, 80, 0
2, 20101, Note_on_c, 0, 84, 0
2, 20104, Note_on_c, 0, 60, 0
2, 20116, Note_on_c, 0, 68, 84
2, 20122, Note_on_c, 0, 92, 106
2, 20135, Note_on_c, 0, 68, 0
2, 20139, Note_on_c, 0, 92, 0
2, 20150, Note_on_c, 0, 55, 85
2, 20168, Note_on_c, 0, 58, 74
2, 20174, Note_on_c, 0, 82, 91
2, 20180, Control_c, 0, 64, 0
2, 20183, Note_on_c, 0, 63, 73
2, 20187, Note_on_c, 0, 82, 0
2, 20188, Note_on_c, 0, 55, 0
2, 20191, Note_on_c, 0, 87, 63
2, 20199, Note_on_c, 0, 91, 104
2, 20207, Note_on_c, 0, 70, 94
2, 20211, Control_c, 0, 64, 127
2, 20215, Note_on_c, 0, 91, 0
2, 20221, Note_on_c, 0, 63, 0
2, 20226, Note_on_c, 0, 70, 0
2, 20227, Note_on_c, 0, 87, 0
2, 20236, Note_on_c, 0, 56, 73
2, 20236, Note_on_c, 0, 75, 73
2, 20239, Note_on_c, 0, 58, 0
2, 20245, Note_on_c, 0, 75, 0
2, 20252, Note_on_c, 0, 63, 58
2, 20252, Note_on_c, 0, 84, 84
2, 20260, Note_on_c, 0, 56, 0
2, 20261, Note_on_c, 0, 87, 73
2, 20263, Note_on_c, 0, 63, 0
2, 20266, Note_on_c, 0, 84, 0
2, 20272, Note_on_c, 0, 89, 105
2, 20276, Note_on_c, 0, 72, 103
2, 20287, Note_on_c, 0, 72, 0
2, 20295, Note_on_c, 0, 89, 0
2, 20306, Note_on_c, 0, 75, 92
2, 20312, Note_on_c, 0, 87, 0
2, 20313, Note_on_c, 0, 56, 86
2, 20323, Note_on_c, 0, 83, 71
2, 20328, Note_on_c, 0, 75, 0
2, 20335, Note_on_c, 0, 65, 76
2, 20337, Note_on_c, 0, 87, 83
2, 20340, Note_on_c, 0, 56, 0
2, 20343, Note_on_c, 0, 89, 110
2, 20350, Note_on_c, 0, 83, 0
2, 20350, Note_on_c, 0, 71, 83
2, 20353, Note_on_c, 0, 65, 0
2, 20359, Note_on_c, 0, 87, 0
2, 20360, Note_on_c, 0, 89, 0
2, 20365, Note_on_c, 0, 71, 0
2, 20378, Note_on_c, 0, 74, 97
2, 20378, Note_on_c, 0, 58, 100
2, 20397, Note_on_c, 0, 82, 101
2, 20398, Note_on_c, 0, 65, 81
2, 20400, Control_c, 0, 64, 0
2, 20401, Note_on_c, 0, 74, 0
2, 20411, Note_on_c, 0, 58, 0
2, 20416, Note_on_c, 0, 70, 99
2, 20417, Note_on_c, 0, 89, 112
2, 20421, Note_on_c, 0, 65, 0
2, 20429, Note_on_c, 0, 82, 0
2, 20432, Control_c, 0, 64, 127
2, 20437, Note_on_c, 0, 70, 0
2, 20443, Note_on_c, 0, 58, 101
2, 20449, Note_on_c, 0, 77, 91
2, 20458, Note_on_c, 0, 89, 0
2, 20458, Note_on_c, 0, 65, 72
2, 20467, Note_on_c, 0, 58, 0
2, 20471, Note_on_c, 0, 77, 0
2, 20473, Note_on_c, 0, 86, 94
2, 20475, Note_on_c, 0, 68, 81
2, 20487, Note_on_c, 0, 65, 0
2, 20494, Note_on_c, 0, 74, 81
2, 20499, Note_on_c, 0, 91, 110
2, 20501, Note_on_c, 0, 74, 0
2, 20524, Note_on_c, 0, 68, 0
2, 20528, Note_on_c, 0, 58, 106
2, 20534, Control_c, 0, 64, 0
2, 20547, Note_on_c, 0, 64, 90
2, 20549, Note_on_c, 0, 91, 0
2, 20565, Control_c, 0, 64, 127
2, 20567, Note_on_c, 0, 58, 0
2, 20569, Note_on_c, 0, 86, 0
2, 20573, Note_on_c, 0, 76, 81
2, 20578, Note_on_c, 0, 67, 88
2, 20591, Note_on_c, 0, 64, 0
2, 20593, Note_on_c, 0, 76, 0
2, 20594, Note_on_c, 0, 86, 92
2, 20612, Note_on_c, 0, 74, 103
2, 20619, Note_on_c, 0, 67, 0
2, 20627, Note_on_c, 0, 91, 105
2, 20631, Note_on_c, 0, 74, 0
2, 20655, Note_on_c, 0, 91, 0
2, 20661, Note_on_c, 0, 58, 91
2, 20666, Note_on_c, 0, 86, 0
2, 20683, Note_on_c, 0, 76, 87
2, 20686, Note_on_c, 0, 64, 76
2, 20704, Note_on_c, 0, 76, 0
2, 20705, Note_on_c, 0, 85, 87
2, 20712, Note_on_c, 0, 67, 71
2, 20713, Note_on_c, 0, 58, 0
2, 20732, Note_on_c, 0, 91, 105
2, 20739, Note_on_c, 0, 73, 89
2, 20747, Note_on_c, 0, 64, 0
2, 20752, Note_on_c, 0, 67, 0
2, 20757, Note_on_c, 0, 73, 0
2, 20758, Note_on_c, 0, 91, 0
2, 20778, Note_on_c, 0, 85, 0
2, 20781, Note_on_c, 0, 57, 80
2, 20785, Note_on_c, 0, 76, 88
2, 20793, Control_c, 0, 64, 0
2, 20802, Note_on_c, 0, 76, 0
2, 20803, Note_on_c, 0, 64, 90
2, 20804, Note_on_c, 0, 57, 0
2, 20812, Note_on_c, 0, 85, 90
2, 20824, Control_c, 0, 64, 127
2, 20825, Note_on_c, 0, 67, 61
2, 20833, Note_on_c, 0, 64, 0
2, 20834, Note_on_c, 0, 91, 98
2, 20843, Note_on_c, 0, 73, 76
2, 20848, Note_on_c, 0, 67, 0
2, 20849, Note_on_c, 0, 91, 0
2, 20853, Note_on_c, 0, 73, 0
2, 20867, Note_on_c, 0, 85, 0
2, 20882, Note_on_c, 0, 57, 36
2, 20884, Note_on_c, 0, 75, 42
2, 20895, Note_on_c, 0, 57, 0
2, 20896, Note_on_c, 0, 75, 0
2, 20898, Note_on_c, 0, 63, 78
2, 20899, Note_on_c, 0, 85, 81
2, 20906, Note_on_c, 0, 63, 0
2, 20912, Note_on_c, 0, 66, 56
2, 20923, Note_on_c, 0, 90, 86
2, 20924, Note_on_c, 0, 66, 0
2, 20925, Note_on_c, 0, 73, 90
2, 20938, Note_on_c, 0, 73, 0
2, 20940, Note_on_c, 0, 85, 0
2, 20951, Note_on_c, 0, 90, 0
2, 20959, Note_on_c, 0, 57, 84
2, 20968, Note_on_c, 0, 75, 57
2, 20969, Note_on_c, 0, 57, 0
2, 20974, Note_on_c, 0, 63, 77
2, 20978, Note_on_c, 0, 75, 0
2, 20986, Note_on_c, 0, 63, 0
2, 20990, Note_on_c, 0, 85, 78
2, 20993, Note_on_c, 0, 66, 52
2, 21003, Note_on_c, 0, 73, 89
2, 21006, Note_on_c, 0, 90, 92
2, 21015, Note_on_c, 0, 73, 0
2, 21019, Note_on_c, 0, 66, 0
2, 21021, Note_on_c, 0, 85, 0
2, 21032, Note_on_c, 0, 90, 0
2, 21039, Note_on_c, 0, 56, 86
2, 21047, Note_on_c, 0, 75, 77
2, 21050, Control_c, 0, 64, 0
2, 21055, Note_on_c, 0, 75, 0
2, 21058, Note_on_c, 0, 63, 67
2, 21062, Note_on_c, 0, 56, 0
2, 21064, Note_on_c, 0, 84, 84
2, 21072, Note_on_c, 0, 66, 73
2, 21079, Control_c, 0, 64, 127
2, 21082, Note_on_c, 0, 72, 90
2, 21082, Note_on_c, 0, 90, 96
2, 21084, Note_on_c, 0, 63, 0
2, 21096, Note_on_c, 0, 72, 0
2, 21096, Note_on_c, 0, 84, 0
2, 21104, Note_on_c, 0, 90, 0
2, 21106, Note_on_c, 0, 66, 0
2, 21118, Note_on_c, 0, 75, 72
2, 21122, Note_on_c, 0, 56, 75
2, 21129, Note_on_c, 0, 75, 0
2, 21130, Note_on_c, 0, 56, 0
2, 21131, Note_on_c, 0, 63, 77
2, 21139, Note_on_c, 0, 84, 86
2, 21150, Note_on_c, 0, 66, 65
2, 21151, Note_on_c, 0, 63, 0
2, 21153, Note_on_c, 0, 90, 98
2, 21159, Note_on_c, 0, 72, 85
2, 21165, Note_on_c, 0, 84, 0
2, 21168, Note_on_c, 0, 72, 0
2, 21173, Note_on_c, 0, 90, 0
2, 21177, Note_on_c, 0, 66, 0
2, 21189, Note_on_c, 0, 56, 81
2, 21197, Note_on_c, 0, 74, 90
2, 21202, Note_on_c, 0, 62, 69
2, 21204, Note_on_c, 0, 56, 0
2, 21204, Control_c, 0, 64, 0
2, 21205, Note_on_c, 0, 74, 0
2, 21218, Note_on_c, 0, 65, 84
2, 21219, Note_on_c, 0, 84, 91
2, 21225, Note_on_c, 0, 62, 0
2, 21231, Note_on_c, 0, 72, 84
2, 21233, Control_c, 0, 64, 127
2, 21236, Note_on_c, 0, 89, 98
2, 21244, Note_on_c, 0, 72, 0
2, 21249, Note_on_c, 0, 84, 0
2, 21253, Note_on_c, 0, 65, 0
2, 21258, Note_on_c, 0, 89, 0
2, 21267, Note_on_c, 0, 56, 80
2, 21273, Note_on_c, 0, 74, 69
2, 21277, Note_on_c, 0, 62, 75
2, 21279, Note_on_c, 0, 56, 0
2, 21285, Note_on_c, 0, 74, 0
2, 21290, Note_on_c, 0, 62, 0
2, 21295, Note_on_c, 0, 65, 45
2, 21296, Note_on_c, 0, 84, 97
2, 21303, Note_on_c, 0, 72, 82
2, 21312, Note_on_c, 0, 89, 91
2, 21313, Note_on_c, 0, 72, 0
2, 21322, Note_on_c, 0, 89, 0
2, 21323, Note_on_c, 0, 65, 0
2, 21324, Note_on_c, 0, 84, 0
2, 21339, Note_on_c, 0, 55, 76
2, 21343, Note_on_c, 0, 74, 88
2, 21351, Control_c, 0, 64, 0
2, 21356, Note_on_c, 0, 74, 0
2, 21357, Note_on_c, 0, 62, 80
2, 21359, Note_on_c, 0, 55, 0
2, 21365, Note_on_c, 0, 83, 72
2, 21371, Note_on_c, 0, 65, 55
2, 21379, Control_c, 0, 64, 127
2, 21385, Note_on_c, 0, 62, 0
2, 21386, Note_on_c, 0, 71, 49
2, 21387, Note_on_c, 0, 83, 0
2, 21389, Note_on_c, 0, 89, 71
2, 21393, Note_on_c, 0, 71, 0
2, 21397, Note_on_c, 0, 89, 0
2, 21403, Note_on_c, 0, 65, 0
2, 21417, Note_on_c, 0, 55, 74
2, 21423, Note_on_c, 0, 74, 73
2, 21429, Note_on_c, 0, 55, 0
2, 21433, Note_on_c, 0, 62, 63
2, 21439, Note_on_c, 0, 74, 0
2, 21448, Note_on_c, 0, 83, 62
2, 21451, Note_on_c, 0, 65, 42
2, 21461, Note_on_c, 0, 62, 0
2, 21463, Note_on_c, 0, 89, 89
2, 21466, Note_on_c, 0, 83, 0
2, 21467, Note_on_c, 0, 71, 33
2, 21469, Note_on_c, 0, 65, 0
2, 21471, Note_on_c, 0, 89, 0
2, 21477, Note_on_c, 0, 71, 0
2, 21497, Note_on_c, 0, 55, 71
2, 21503, Note_on_c, 0, 73, 76
2, 21505, Control_c, 0, 64, 0
2, 21509, Note_on_c, 0, 61, 73
2, 21511, Note_on_c, 0, 55, 0
2, 21515, Note_on_c, 0, 73, 0
2, 21523, Note_on_c, 0, 83, 70
2, 21528, Note_on_c, 0, 64, 63
2, 21533, Control_c, 0, 64, 127
2, 21538, Note_on_c, 0, 61, 0
2, 21540, Note_on_c, 0, 71, 77
2, 21541, Note_on_c, 0, 88, 97
2, 21547, Note_on_c, 0, 83, 0
2, 21551, Note_on_c, 0, 71, 0
2, 21555, Note_on_c, 0, 88, 0
2, 21557, Note_on_c, 0, 64, 0
2, 21573, Note_on_c, 0, 73, 84
2, 21574, Note_on_c, 0, 55, 82
2, 21583, Note_on_c, 0, 73, 0
2, 21585, Note_on_c, 0, 55, 0
2, 21589, Note_on_c, 0, 61, 74
2, 21593, Note_on_c, 0, 83, 60
2, 21607, Note_on_c, 0, 64, 34
2, 21612, Note_on_c, 0, 88, 92
2, 21613, Note_on_c, 0, 61, 0
2, 21614, Note_on_c, 0, 71, 70
2, 21621, Note_on_c, 0, 71, 0
2, 21624, Note_on_c, 0, 83, 0
2, 21631, Note_on_c, 0, 88, 0
2, 21634, Note_on_c, 0, 64, 0
2, 21645, Note_on_c, 0, 73, 79
2, 21646, Note_on_c, 0, 54, 80
2, 21659, Note_on_c, 0, 73, 0
2, 21661, Control_c, 0, 64, 0
2, 21663, Note_on_c, 0, 82, 88
2, 21665, Note_on_c, 0, 61, 76
2, 21671, Note_on_c, 0, 54, 0
2, 21681, Note_on_c, 0, 88, 98
2, 21683, Note_on_c, 0, 64, 13
2, 21691, Note_on_c, 0, 70, 83
2, 21692, Note_on_c, 0, 82, 0
2, 21695, Note_on_c, 0, 61, 0
2, 21697, Control_c, 0, 64, 127
2, 21701, Note_on_c, 0, 70, 0
2, 21702, Note_on_c, 0, 88, 0
2, 21705, Note_on_c, 0, 64, 0
2, 21715, Note_on_c, 0, 73, 75
2, 21723, Note_on_c, 0, 54, 72
2, 21725, Note_on_c, 0, 73, 0
2, 21733, Note_on_c, 0, 54, 0
2, 21734, Note_on_c, 0, 82, 76
2, 21737, Note_on_c, 0, 61, 55
2, 21755, Note_on_c, 0, 88, 90
2, 21758, Note_on_c, 0, 64, 48
2, 21761, Note_on_c, 0, 70, 78
2, 21763, Note_on_c, 0, 88, 0
2, 21769, Note_on_c, 0, 64, 0
2, 21770, Note_on_c, 0, 82, 0
2, 21774, Note_on_c, 0, 70, 0
2, 21775, Note_on_c, 0, 61, 0
2, 21789, Note_on_c, 0, 72, 76
2, 21793, Note_on_c, 0, 54, 72
2, 21799, Note_on_c, 0, 72, 0
2, 21805, Note_on_c, 0, 54, 0
2, 21806, Control_c, 0, 64, 0
2, 21808, Note_on_c, 0, 82, 63
2, 21811, Note_on_c, 0, 60, 37
2, 21829, Note_on_c, 0, 63, 52
2, 21831, Note_on_c, 0, 60, 0
2, 21832, Note_on_c, 0, 87, 74
2, 21833, Note_on_c, 0, 70, 82
2, 21837, Control_c, 0, 64, 127
2, 21839, Note_on_c, 0, 82, 0
2, 21842, Note_on_c, 0, 70, 0
2, 21844, Note_on_c, 0, 87, 0
2, 21845, Note_on_c, 0, 63, 0
2, 21859, Note_on_c, 0, 72, 83
2, 21865, Note_on_c, 0, 54, 66
2, 21867, Note_on_c, 0, 72, 0
2, 21877, Note_on_c, 0, 54, 0
2, 21879, Note_on_c, 0, 60, 64
2, 21883, Note_on_c, 0, 82, 74
2, 21900, Note_on_c, 0, 63, 48
2, 21903, Note_on_c, 0, 70, 84
2, 21906, Note_on_c, 0, 60, 0
2, 21906, Note_on_c, 0, 87, 83
2, 21913, Note_on_c, 0, 82, 0
2, 21915, Note_on_c, 0, 63, 0
2, 21916, Note_on_c, 0, 70, 0
2, 21920, Note_on_c, 0, 87, 0
2, 21942, Note_on_c, 0, 72, 63
2, 21946, Note_on_c, 0, 53, 63
2, 21949, Note_on_c, 0, 74, 38
2, 21956, Control_c, 0, 64, 0
2, 21958, Note_on_c, 0, 72, 0
2, 21960, Note_on_c, 0, 81, 81
2, 21962, Note_on_c, 0, 74, 0
2, 21962, Note_on_c, 0, 60, 69
2, 21968, Note_on_c, 0, 53, 0
2, 21977, Note_on_c, 0, 63, 58
2, 21980, Note_on_c, 0, 87, 92
2, 21988, Control_c, 0, 64, 127
2, 21989, Note_on_c, 0, 81, 0
2, 21992, Note_on_c, 0, 60, 0
2, 21993, Note_on_c, 0, 69, 46
2, 22002, Note_on_c, 0, 69, 0
2, 22004, Note_on_c, 0, 87, 0
2, 22014, Note_on_c, 0, 63, 0
2, 22015, Note_on_c, 0, 72, 78
2, 22023, Note_on_c, 0, 72, 0
2, 22026, Note_on_c, 0, 53, 67
2, 22036, Note_on_c, 0, 53, 0
2, 22036, Note_on_c, 0, 81, 80
2, 22040, Note_on_c, 0, 60, 63
2, 22050, Note_on_c, 0, 63, 49
2, 22056, Note_on_c, 0, 87, 94
2, 22058, Note_on_c, 0, 81, 0
2, 22062, Note_on_c, 0, 69, 65
2, 22063, Note_on_c, 0, 60, 0
2, 22066, Note_on_c, 0, 87, 0
2, 22068, Note_on_c, 0, 63, 0
2, 22070, Note_on_c, 0, 69, 0
2, 22097, Note_on_c, 0, 69, 59
2, 22100, Note_on_c, 0, 53, 57
2, 22108, Note_on_c, 0, 69, 0
2, 22114, Note_on_c, 0, 75, 71
2, 22122, Note_on_c, 0, 53, 0
2, 22124, Note_on_c, 0, 75, 0
2, 22124, Note_on_c, 0, 60, 10
2, 22136, Note_on_c, 0, 60, 0
2, 22140, Note_on_c, 0, 65, 66
2, 22142, Note_on_c, 0, 84, 101
2, 22150, Note_on_c, 0, 65, 0
2, 22151, Note_on_c, 0, 84, 0
2, 22184, Note_on_c, 0, 46, 86
2, 22188, Note_on_c, 0, 68, 68
2, 22196, Control_c, 0, 64, 0
2, 22206, Note_on_c, 0, 53, 67
2, 22214, Note_on_c, 0, 68, 0
2, 22214, Note_on_c, 0, 74, 80
2, 22220, Note_on_c, 0, 46, 0
2, 22222, Note_on_c, 0, 74, 0
2, 22224, Note_on_c, 0, 56, 67
2, 22228, Control_c, 0, 64, 127
2, 22246, Note_on_c, 0, 53, 0
2, 22250, Note_on_c, 0, 84, 103
2, 22252, Note_on_c, 0, 62, 69
2, 22260, Note_on_c, 0, 62, 0
2, 22262, Note_on_c, 0, 84, 0
2, 22268, Note_on_c, 0, 56, 0
2, 22294, Note_on_c, 0, 46, 80
2, 22298, Note_on_c, 0, 68, 67
2, 22312, Note_on_c, 0, 46, 0
2, 22314, Note_on_c, 0, 53, 51
2, 22322, Note_on_c, 0, 68, 0
2, 22322, Note_on_c, 0, 74, 67
2, 22330, Note_on_c, 0, 53, 0
2, 22334, Note_on_c, 0, 74, 0
2, 22335, Note_on_c, 0, 56, 45
2, 22342, Note_on_c, 0, 82, 106
2, 22344, Note_on_c, 0, 62, 61
2, 22354, Note_on_c, 0, 62, 0
2, 22356, Note_on_c, 0, 56, 0
2, 22370, Note_on_c, 0, 82, 0
2, 22380, Note_on_c, 0, 68, 60
2, 22382, Note_on_c, 0, 46, 75
2, 22394, Note_on_c, 0, 46, 0
2, 22402, Note_on_c, 0, 74, 49
2, 22404, Note_on_c, 0, 68, 0
2, 22408, Note_on_c, 0, 53, 22
2, 22414, Note_on_c, 0, 80, 88
2, 22416, Note_on_c, 0, 74, 0
2, 22416, Note_on_c, 0, 56, 43
2, 22422, Note_on_c, 0, 53, 0
2, 22424, Note_on_c, 0, 62, 54
2, 22430, Note_on_c, 0, 56, 0
2, 22436, Note_on_c, 0, 62, 0
2, 22450, Note_on_c, 0, 68, 53
2, 22462, Note_on_c, 0, 46, 76
2, 22474, Note_on_c, 0, 46, 0
2, 22478, Note_on_c, 0, 68, 0
2, 22484, Note_on_c, 0, 53, 36
2, 22484, Note_on_c, 0, 74, 32
2, 22496, Note_on_c, 0, 53, 0
2, 22500, Note_on_c, 0, 56, 41
2, 22504, Note_on_c, 0, 74, 0
2, 22508, Note_on_c, 0, 77, 81
2, 22512, Note_on_c, 0, 56, 0
2, 22512, Note_on_c, 0, 80, 0
2, 22520, Note_on_c, 0, 62, 60
2, 22532, Note_on_c, 0, 62, 0
2, 22568, Note_on_c, 0, 77, 0
2, 22600, Note_on_c, 0, 39, 60
2, 22612, Note_on_c, 0, 67, 27
2, 22612, Control_c, 0, 64, 0
2, 22620, Note_on_c, 0, 75, 67
2, 22628, Note_on_c, 0, 67, 0
2, 22648, Note_on_c, 0, 39, 0
2, 22654, Control_c, 0, 64, 127
2, 22680, Note_on_c, 0, 75, 0
2, 22690, Note_on_c, 0, 51, 33
2, 22702, Note_on_c, 0, 58, 69
2, 22704, Note_on_c, 0, 51, 0
2, 22734, Note_on_c, 0, 61, 35
2, 22746, Note_on_c, 0, 67, 55
2, 22752, Note_on_c, 0, 73, 68
2, 22756, Note_on_c, 0, 67, 0
2, 22766, Note_on_c, 0, 73, 0
2, 22770, Note_on_c, 0, 61, 0
2, 22771, Note_on_c, 0, 82, 96
2, 22798, Note_on_c, 0, 51, 56
2, 22798, Note_on_c, 0, 87, 52
2, 22808, Note_on_c, 0, 51, 0
2, 22812, Note_on_c, 0, 87, 0
2, 22830, Note_on_c, 0, 73, 69
2, 22834, Note_on_c, 0, 61, 54
2, 22836, Note_on_c, 0, 67, 59
2, 22844, Note_on_c, 0, 67, 0
2, 22850, Note_on_c, 0, 73, 0
2, 22850, Note_on_c, 0, 61, 0
2, 22850, Note_on_c, 0, 81, 89
2, 22862, Note_on_c, 0, 82, 0
2, 22872, Note_on_c, 0, 87, 65
2, 22876, Note_on_c, 0, 51, 54
2, 22884, Note_on_c, 0, 87, 0
2, 22886, Note_on_c, 0, 51, 0
2, 22896, Note_on_c, 0, 81, 0
2, 22904, Note_on_c, 0, 73, 64
2, 22906, Note_on_c, 0, 67, 58
2, 22914, Note_on_c, 0, 61, 48
2, 22916, Note_on_c, 0, 67, 0
2, 22916, Note_on_c, 0, 73, 0
2, 22916, Note_on_c, 0, 82, 96
2, 22926, Note_on_c, 0, 61, 0
2, 22938, Note_on_c, 0, 87, 70
2, 22948, Note_on_c, 0, 51, 38
2, 22960, Note_on_c, 0, 87, 0
2, 22964, Note_on_c, 0, 51, 0
2, 22972, Note_on_c, 0, 73, 71
2, 22982, Note_on_c, 0, 67, 38
2, 22983, Note_on_c, 0, 73, 0
2, 22986, Note_on_c, 0, 61, 47
2, 22988, Note_on_c, 0, 84, 78
2, 22994, Note_on_c, 0, 67, 0
2, 22998, Note_on_c, 0, 61, 0
2, 23014, Note_on_c, 0, 87, 61
2, 23016, Note_on_c, 0, 82, 0
2, 23020, Note_on_c, 0, 51, 43
2, 23026, Note_on_c, 0, 87, 0
2, 23034, Note_on_c, 0, 51, 0
2, 23050, Note_on_c, 0, 58, 0
2, 23050, Note_on_c, 0, 84, 0
2, 23052, Note_on_c, 0, 73, 62
2, 23056, Note_on_c, 0, 61, 39
2, 23060, Note_on_c, 0, 67, 40
2, 23066, Note_on_c, 0, 73, 0
2, 23070, Note_on_c, 0, 79, 61
2, 23072, Note_on_c, 0, 61, 0
2, 23074, Note_on_c, 0, 67, 0
2, 23092, Note_on_c, 0, 87, 51
2, 23102, Note_on_c, 0, 87, 0
2, 23106, Note_on_c, 0, 51, 33
2, 23122, Control_c, 0, 64, 0
2, 23130, Note_on_c, 0, 79, 0
2, 23130, Note_on_c, 0, 72, 66
2, 23137, Note_on_c, 0, 60, 55
2, 23144, Note_on_c, 0, 51, 0
2, 23146, Note_on_c, 0, 72, 0
2, 23154, Control_c, 0, 64, 127
2, 23154, Note_on_c, 0, 80, 55
2, 23172, Note_on_c, 0, 68, 57
2, 23184, Note_on_c, 0, 87, 47
2, 23186, Note_on_c, 0, 68, 0
2, 23192, Note_on_c, 0, 60, 0
2, 23202, Note_on_c, 0, 87, 0
2, 23204, Note_on_c, 0, 80, 0
2, 23216, Note_on_c, 0, 74, 69
2, 23220, Note_on_c, 0, 51, 48
2, 23228, Note_on_c, 0, 74, 0
2, 23230, Control_c, 0, 64, 0
2, 23240, Note_on_c, 0, 80, 67
2, 23242, Note_on_c, 0, 51, 0
2, 23246, Note_on_c, 0, 59, 41
2, 23254, Note_on_c, 0, 80, 0
2, 23256, Control_c, 0, 64, 127
2, 23266, Note_on_c, 0, 68, 60
2, 23267, Note_on_c, 0, 89, 99
2, 23276, Note_on_c, 0, 68, 0
2, 23284, Note_on_c, 0, 89, 0
2, 23290, Note_on_c, 0, 59, 0
2, 23302, Note_on_c, 0, 51, 69
2, 23304, Note_on_c, 0, 74, 69
2, 23314, Note_on_c, 0, 51, 0
2, 23318, Note_on_c, 0, 74, 0
2, 23322, Note_on_c, 0, 80, 66
2, 23324, Note_on_c, 0, 59, 31
2, 23334, Note_on_c, 0, 80, 0
2, 23338, Note_on_c, 0, 88, 103
2, 23340, Note_on_c, 0, 68, 38
2, 23354, Note_on_c, 0, 68, 0
2, 23356, Note_on_c, 0, 88, 0
2, 23358, Note_on_c, 0, 59, 0
2, 23370, Note_on_c, 0, 51, 69
2, 23371, Note_on_c, 0, 74, 70
2, 23382, Note_on_c, 0, 51, 0
2, 23384, Note_on_c, 0, 74, 0
2, 23388, Note_on_c, 0, 80, 72
2, 23392, Note_on_c, 0, 59, 35
2, 23398, Note_on_c, 0, 80, 0
2, 23406, Note_on_c, 0, 68, 43
2, 23407, Note_on_c, 0, 89, 107
2, 23419, Note_on_c, 0, 68, 0
2, 23426, Note_on_c, 0, 89, 0
2, 23434, Note_on_c, 0, 59, 0
2, 23438, Note_on_c, 0, 74, 83
2, 23440, Note_on_c, 0, 51, 74
2, 23452, Note_on_c, 0, 74, 0
2, 23452, Control_c, 0, 64, 0
2, 23458, Note_on_c, 0, 80, 76
2, 23464, Note_on_c, 0, 51, 0
2, 23466, Note_on_c, 0, 80, 0
2, 23466, Note_on_c, 0, 58, 70
2, 23470, Control_c, 0, 64, 127
2, 23482, Note_on_c, 0, 91, 102
2, 23484, Note_on_c, 0, 68, 75
2, 23490, Note_on_c, 0, 91, 0
2, 23500, Note_on_c, 0, 68, 0
2, 23514, Note_on_c, 0, 58, 0
2, 23520, Note_on_c, 0, 74, 78
2, 23530, Note_on_c, 0, 51, 70
2, 23532, Note_on_c, 0, 74, 0
2, 23538, Note_on_c, 0, 80, 72
2, 23542, Note_on_c, 0, 51, 0
2, 23546, Note_on_c, 0, 80, 0
2, 23552, Note_on_c, 0, 58, 59
2, 23566, Note_on_c, 0, 89, 97
2, 23578, Note_on_c, 0, 68, 56
2, 23582, Note_on_c, 0, 58, 0
2, 23588, Note_on_c, 0, 68, 0
2, 23598, Note_on_c, 0, 79, 48
2, 23602, Note_on_c, 0, 58, 38
2, 23609, Note_on_c, 0, 89, 0
2, 23615, Note_on_c, 0, 58, 0
2, 23615, Note_on_c, 0, 79, 0
2, 23630, Note_on_c, 0, 87, 60
2, 23654, Note_on_c, 0, 39, 53
2, 23656, Control_c, 0, 64, 0
2, 23678, Note_on_c, 0, 87, 0
2, 23682, Note_on_c, 0, 94, 70
2, 23694, Note_on_c, 0, 39, 0
2, 23698, Control_c, 0, 64, 127
2, 23712, Note_on_c, 0, 94, 0
2, 23734, Note_on_c, 0, 51, 23
2, 23756, Note_on_c, 0, 51, 0
2, 23757, Note_on_c, 0, 58, 58
2, 23786, Note_on_c, 0, 61, 41
2, 23798, Note_on_c, 0, 67, 47
2, 23800, Note_on_c, 0, 61, 0
2, 23806, Note_on_c, 0, 73, 44
2, 23810, Note_on_c, 0, 67, 0
2, 23818, Note_on_c, 0, 73, 0
2, 23822, Note_on_c, 0, 82, 80
2, 23848, Note_on_c, 0, 87, 44
2, 23850, Note_on_c, 0, 51, 56
2, 23860, Note_on_c, 0, 87, 0
2, 23862, Note_on_c, 0, 51, 0
2, 23878, Note_on_c, 0, 73, 64
2, 23888, Note_on_c, 0, 61, 49
2, 23890, Note_on_c, 0, 67, 37
2, 23891, Note_on_c, 0, 82, 0
2, 23896, Note_on_c, 0, 81, 85
2, 23898, Note_on_c, 0, 73, 0
2, 23902, Note_on_c, 0, 67, 0
2, 23908, Note_on_c, 0, 61, 0
2, 23920, Note_on_c, 0, 87, 37
2, 23928, Note_on_c, 0, 51, 62
2, 23934, Note_on_c, 0, 87, 0
2, 23938, Note_on_c, 0, 51, 0
2, 23946, Note_on_c, 0, 81, 0
2, 23947, Note_on_c, 0, 73, 68
2, 23960, Note_on_c, 0, 73, 0
2, 23962, Note_on_c, 0, 67, 38
2, 23963, Note_on_c, 0, 82, 90
2, 23968, Note_on_c, 0, 61, 50
2, 23974, Note_on_c, 0, 67, 0
2, 23980, Note_on_c, 0, 61, 0
2, 23982, Note_on_c, 0, 87, 65
2, 23994, Note_on_c, 0, 87, 0
2, 23998, Note_on_c, 0, 51, 53
2, 24002, Note_on_c, 0, 82, 0
2, 24010, Note_on_c, 0, 51, 0
2, 24014, Note_on_c, 0, 73, 65
2, 24026, Note_on_c, 0, 73, 0
2, 24032, Note_on_c, 0, 84, 84
2, 24036, Note_on_c, 0, 61, 56
2, 24040, Note_on_c, 0, 67, 36
2, 24052, Note_on_c, 0, 67, 0
2, 24054, Note_on_c, 0, 84, 0
2, 24054, Note_on_c, 0, 87, 66
2, 24062, Note_on_c, 0, 61, 0
2, 24068, Note_on_c, 0, 87, 0
2, 24068, Note_on_c, 0, 58, 0
2, 24088, Note_on_c, 0, 51, 28
2, 24092, Note_on_c, 0, 73, 19
2, 24093, Note_on_c, 0, 58, 55
2, 24096, Note_on_c, 0, 85, 69
2, 24102, Note_on_c, 0, 73, 0
2, 24102, Note_on_c, 0, 51, 0
2, 24116, Note_on_c, 0, 87, 57
2, 24124, Note_on_c, 0, 61, 41
2, 24126, Note_on_c, 0, 87, 0
2, 24130, Note_on_c, 0, 67, 52
2, 24138, Note_on_c, 0, 73, 58
2, 24140, Note_on_c, 0, 67, 0
2, 24141, Note_on_c, 0, 61, 0
2, 24148, Note_on_c, 0, 58, 0
2, 24150, Note_on_c, 0, 73, 0
2, 24156, Note_on_c, 0, 79, 67
2, 24162, Note_on_c, 0, 85, 0
2, 24180, Note_on_c, 0, 51, 52
2, 24198, Note_on_c, 0, 79, 0
2, 24200, Note_on_c, 0, 72, 59
2, 24204, Control_c, 0, 64, 0
2, 24210, Note_on_c, 0, 60, 49
2, 24214, Note_on_c, 0, 72, 0
2, 24226, Note_on_c, 0, 80, 66
2, 24230, Note_on_c, 0, 51, 0
2, 24240, Control_c, 0, 64, 127
2, 24256, Note_on_c, 0, 68, 47
2, 24266, Note_on_c, 0, 87, 42
2, 24270, Note_on_c, 0, 68, 0
2, 24278, Note_on_c, 0, 87, 0
2, 24282, Note_on_c, 0, 60, 0
2, 24306, Note_on_c, 0, 51, 52
2, 24308, Note_on_c, 0, 74, 52
2, 24312, Control_c, 0, 64, 0
2, 24318, Note_on_c, 0, 80, 0
2, 24330, Note_on_c, 0, 74, 0
2, 24334, Note_on_c, 0, 80, 67
2, 24335, Note_on_c, 0, 51, 0
2, 24338, Note_on_c, 0, 59, 37
2, 24338, Control_c, 0, 64, 127
2, 24356, Note_on_c, 0, 80, 0
2, 24360, Note_on_c, 0, 59, 0
2, 24364, Note_on_c, 0, 68, 54
2, 24367, Note_on_c, 0, 89, 85
2, 24376, Note_on_c, 0, 89, 0
2, 24376, Note_on_c, 0, 68, 0
2, 24400, Note_on_c, 0, 74, 71
2, 24404, Note_on_c, 0, 51, 62
2, 24414, Note_on_c, 0, 74, 0
2, 24418, Note_on_c, 0, 51, 0
2, 24423, Note_on_c, 0, 80, 66
2, 24430, Note_on_c, 0, 59, 41
2, 24440, Note_on_c, 0, 80, 0
2, 24442, Note_on_c, 0, 88, 92
2, 24443, Note_on_c, 0, 68, 57
2, 24454, Note_on_c, 0, 68, 0
2, 24461, Note_on_c, 0, 88, 0
2, 24468, Note_on_c, 0, 59, 0
2, 24476, Note_on_c, 0, 74, 48
2, 24480, Note_on_c, 0, 51, 59
2, 24489, Note_on_c, 0, 80, 79
2, 24490, Note_on_c, 0, 74, 0
2, 24492, Note_on_c, 0, 51, 0
2, 24494, Note_on_c, 0, 59, 41
2, 24505, Note_on_c, 0, 80, 0
2, 24510, Note_on_c, 0, 89, 98
2, 24516, Note_on_c, 0, 68, 35
2, 24518, Note_on_c, 0, 89, 0
2, 24530, Note_on_c, 0, 68, 0
2, 24541, Note_on_c, 0, 59, 0
2, 24542, Note_on_c, 0, 74, 81
2, 24549, Note_on_c, 0, 51, 70
2, 24557, Control_c, 0, 64, 0
2, 24560, Note_on_c, 0, 51, 0
2, 24563, Note_on_c, 0, 74, 0
2, 24563, Note_on_c, 0, 80, 75
2, 24566, Note_on_c, 0, 58, 83
2, 24568, Note_on_c, 0, 80, 0
2, 24578, Control_c, 0, 64, 127
2, 24587, Note_on_c, 0, 68, 73
2, 24588, Note_on_c, 0, 91, 97
2, 24597, Note_on_c, 0, 91, 0
2, 24599, Note_on_c, 0, 68, 0
2, 24609, Note_on_c, 0, 58, 0
2, 24629, Note_on_c, 0, 51, 60
2, 24630, Note_on_c, 0, 74, 74
2, 24640, Note_on_c, 0, 74, 0
2, 24643, Note_on_c, 0, 51, 0
2, 24645, Note_on_c, 0, 80, 72
2, 24648, Note_on_c, 0, 58, 58
2, 24652, Note_on_c, 0, 80, 0
2, 24669, Note_on_c, 0, 68, 68
2, 24669, Note_on_c, 0, 89, 97
2, 24679, Note_on_c, 0, 68, 0
2, 24687, Note_on_c, 0, 58, 0
2, 24703, Note_on_c, 0, 79, 60
2, 24709, Note_on_c, 0, 51, 57
2, 24712, Note_on_c, 0, 89, 0
2, 24716, Note_on_c, 0, 79, 0
2, 24720, Note_on_c, 0, 51, 0
2, 24724, Note_on_c, 0, 87, 57
2, 24727, Note_on_c, 0, 58, 71
2, 24748, Note_on_c, 0, 87, 0
2, 24752, Note_on_c, 0, 67, 47
2, 24753, Note_on_c, 0, 94, 95
2, 24764, Note_on_c, 0, 58, 0
2, 24779, Note_on_c, 0, 67, 0
2, 24784, Control_c, 0, 64, 0
2, 24784, Note_on_c, 0, 56, 75
2, 24786, Note_on_c, 0, 94, 0
2, 24795, Note_on_c, 0, 80, 76
2, 24807, Note_on_c, 0, 63, 55
2, 24808, Note_on_c, 0, 80, 0
2, 24810, Note_on_c, 0, 87, 76
2, 24812, Note_on_c, 0, 56, 0
2, 24812, Control_c, 0, 64, 127
2, 24826, Note_on_c, 0, 71, 69
2, 24828, Note_on_c, 0, 95, 96
2, 24832, Note_on_c, 0, 87, 0
2, 24834, Note_on_c, 0, 71, 0
2, 24838, Note_on_c, 0, 63, 0
2, 24846, Note_on_c, 0, 95, 0
2, 24864, Note_on_c, 0, 55, 76
2, 24866, Note_on_c, 0, 79, 75
2, 24874, Note_on_c, 0, 55, 0
2, 24878, Note_on_c, 0, 62, 75
2, 24880, Note_on_c, 0, 79, 0
2, 24883, Note_on_c, 0, 86, 85
2, 24898, Note_on_c, 0, 65, 28
2, 24898, Note_on_c, 0, 95, 95
2, 24906, Note_on_c, 0, 95, 0
2, 24906, Note_on_c, 0, 71, 48
2, 24910, Note_on_c, 0, 86, 0
2, 24914, Note_on_c, 0, 71, 0
2, 24916, Note_on_c, 0, 65, 0
2, 24924, Note_on_c, 0, 62, 0
2, 24925, Control_c, 0, 64, 0
2, 24930, Note_on_c, 0, 79, 88
2, 24932, Note_on_c, 0, 60, 87
2, 24944, Note_on_c, 0, 79, 0
2, 24948, Note_on_c, 0, 64, 70
2, 24948, Note_on_c, 0, 88, 88
2, 24950, Control_c, 0, 64, 127
2, 24954, Note_on_c, 0, 88, 0
2, 24966, Note_on_c, 0, 70, 89
2, 24968, Note_on_c, 0, 96, 106
2, 24970, Note_on_c, 0, 60, 0
2, 24974, Note_on_c, 0, 70, 0
2, 24976, Note_on_c, 0, 64, 0
2, 24980, Note_on_c, 0, 96, 0
2, 24998, Note_on_c, 0, 53, 76
2, 25004, Note_on_c, 0, 81, 75
2, 25008, Note_on_c, 0, 53, 0
2, 25014, Note_on_c, 0, 81, 0
2, 25018, Note_on_c, 0, 87, 88
2, 25024, Note_on_c, 0, 60, 23
2, 25026, Note_on_c, 0, 87, 0
2, 25026, Note_on_c, 0, 63, 67
2, 25034, Note_on_c, 0, 60, 0
2, 25036, Note_on_c, 0, 69, 74
2, 25040, Note_on_c, 0, 63, 0
2, 25042, Note_on_c, 0, 96, 105
2, 25050, Note_on_c, 0, 96, 0
2, 25054, Note_on_c, 0, 69, 0
2, 25070, Note_on_c, 0, 58, 84
2, 25076, Note_on_c, 0, 82, 69
2, 25078, Control_c, 0, 64, 0
2, 25090, Note_on_c, 0, 65, 49
2, 25094, Note_on_c, 0, 58, 0
2, 25094, Note_on_c, 0, 86, 79
2, 25104, Note_on_c, 0, 65, 0
2, 25105, Control_c, 0, 64, 127
2, 25105, Note_on_c, 0, 68, 68
2, 25106, Note_on_c, 0, 82, 0
2, 25110, Note_on_c, 0, 94, 103
2, 25116, Note_on_c, 0, 68, 0
2, 25117, Note_on_c, 0, 74, 69
2, 25126, Note_on_c, 0, 74, 0
2, 25132, Note_on_c, 0, 94, 0
2, 25140, Note_on_c, 0, 63, 72
2, 25144, Note_on_c, 0, 86, 0
2, 25155, Note_on_c, 0, 79, 73
2, 25160, Note_on_c, 0, 67, 64
2, 25164, Note_on_c, 0, 79, 0
2, 25168, Note_on_c, 0, 87, 71
2, 25178, Note_on_c, 0, 75, 72
2, 25178, Note_on_c, 0, 91, 100
2, 25186, Note_on_c, 0, 75, 0
2, 25189, Note_on_c, 0, 67, 0
2, 25194, Note_on_c, 0, 87, 0
2, 25196, Note_on_c, 0, 63, 0
2, 25216, Note_on_c, 0, 80, 75
2, 25218, Note_on_c, 0, 56, 83
2, 25223, Control_c, 0, 64, 0
2, 25226, Note_on_c, 0, 91, 0
2, 25229, Note_on_c, 0, 87, 75
2, 25232, Note_on_c, 0, 80, 0
2, 25233, Note_on_c, 0, 63, 64
2, 25241, Note_on_c, 0, 56, 0
2, 25248, Note_on_c, 0, 95, 99
2, 25250, Note_on_c, 0, 71, 72
2, 25253, Control_c, 0, 64, 127
2, 25256, Note_on_c, 0, 87, 0
2, 25260, Note_on_c, 0, 63, 0
2, 25265, Note_on_c, 0, 95, 0
2, 25265, Note_on_c, 0, 71, 0
2, 25284, Note_on_c, 0, 79, 87
2, 25290, Note_on_c, 0, 55, 79
2, 25299, Note_on_c, 0, 55, 0
2, 25301, Note_on_c, 0, 62, 70
2, 25301, Note_on_c, 0, 86, 83
2, 25306, Note_on_c, 0, 79, 0
2, 25316, Note_on_c, 0, 65, 58
2, 25320, Note_on_c, 0, 95, 98
2, 25322, Note_on_c, 0, 86, 0
2, 25327, Note_on_c, 0, 71, 69
2, 25330, Note_on_c, 0, 95, 0
2, 25333, Note_on_c, 0, 71, 0
2, 25344, Note_on_c, 0, 65, 0
2, 25352, Note_on_c, 0, 79, 94
2, 25353, Note_on_c, 0, 62, 0
2, 25356, Note_on_c, 0, 60, 88
2, 25364, Control_c, 0, 64, 0
2, 25368, Note_on_c, 0, 79, 0
2, 25370, Note_on_c, 0, 64, 75
2, 25373, Note_on_c, 0, 88, 79
2, 25379, Note_on_c, 0, 88, 0
2, 25386, Note_on_c, 0, 70, 105
2, 25391, Note_on_c, 0, 96, 111
2, 25392, Control_c, 0, 64, 127
2, 25401, Note_on_c, 0, 60, 0
2, 25404, Note_on_c, 0, 64, 0
2, 25407, Note_on_c, 0, 96, 0
2, 25408, Note_on_c, 0, 70, 0
2, 25426, Note_on_c, 0, 81, 83
2, 25428, Note_on_c, 0, 53, 64
2, 25438, Note_on_c, 0, 53, 0
2, 25441, Note_on_c, 0, 81, 0
2, 25442, Note_on_c, 0, 60, 60
2, 25443, Note_on_c, 0, 87, 86
2, 25450, Note_on_c, 0, 87, 0
2, 25454, Note_on_c, 0, 63, 76
2, 25456, Note_on_c, 0, 60, 0
2, 25466, Note_on_c, 0, 69, 78
2, 25466, Note_on_c, 0, 96, 109
2, 25478, Note_on_c, 0, 63, 0
2, 25482, Control_c, 0, 64, 0
2, 25488, Note_on_c, 0, 96, 0
2, 25494, Note_on_c, 0, 69, 0
2, 25494, Note_on_c, 0, 58, 90
2, 25505, Note_on_c, 0, 82, 84
2, 25506, Control_c, 0, 64, 127
2, 25518, Note_on_c, 0, 65, 75
2, 25522, Note_on_c, 0, 86, 74
2, 25524, Note_on_c, 0, 58, 0
2, 25527, Note_on_c, 0, 82, 0
2, 25532, Note_on_c, 0, 65, 0
2, 25534, Note_on_c, 0, 68, 76
2, 25542, Note_on_c, 0, 94, 105
2, 25548, Note_on_c, 0, 74, 80
2, 25551, Note_on_c, 0, 68, 0
2, 25551, Note_on_c, 0, 86, 0
2, 25568, Note_on_c, 0, 94, 0
2, 25569, Note_on_c, 0, 74, 0
2, 25579, Note_on_c, 0, 63, 71
2, 25602, Note_on_c, 0, 67, 75
2, 25606, Control_c, 0, 64, 0
2, 25625, Note_on_c, 0, 91, 105
2, 25626, Note_on_c, 0, 79, 94
2, 25627, Note_on_c, 0, 87, 81
2, 25631, Note_on_c, 0, 75, 78
2, 25649, Note_on_c, 0, 75, 0
2, 25653, Control_c, 0, 64, 127
2, 25654, Note_on_c, 0, 67, 0
2, 25662, Note_on_c, 0, 63, 0
2, 25688, Note_on_c, 0, 58, 76
2, 25717, Note_on_c, 0, 58, 0
2, 25719, Note_on_c, 0, 67, 58
2, 25732, Note_on_c, 0, 67, 0
2, 25733, Note_on_c, 0, 75, 67
2, 25740, Note_on_c, 0, 75, 0
2, 25770, Note_on_c, 0, 57, 94
2, 25780, Note_on_c, 0, 57, 0
2, 25796, Note_on_c, 0, 66, 58
2, 25812, Note_on_c, 0, 66, 0
2, 25820, Note_on_c, 0, 75, 58
2, 25830, Note_on_c, 0, 75, 0
2, 25847, Note_on_c, 0, 58, 101
2, 25850, Control_c, 0, 64, 0
2, 25874, Note_on_c, 0, 58, 0
2, 25876, Note_on_c, 0, 67, 59
2, 25883, Control_c, 0, 64, 127
2, 25894, Note_on_c, 0, 75, 72
2, 25905, Note_on_c, 0, 75, 0
2, 25908, Note_on_c, 0, 91, 0
2, 25910, Note_on_c, 0, 67, 0
2, 25912, Note_on_c, 0, 79, 0
2, 25922, Note_on_c, 0, 87, 0
2, 25928, Note_on_c, 0, 59, 70
2, 25936, Control_c, 0, 64, 0
2, 25946, Note_on_c, 0, 91, 96
2, 25952, Note_on_c, 0, 80, 49
2, 25960, Note_on_c, 0, 59, 0
2, 25964, Note_on_c, 0, 68, 62
2, 25973, Control_c, 0, 64, 127
2, 25982, Note_on_c, 0, 68, 0
2, 25997, Note_on_c, 0, 75, 65
2, 26006, Note_on_c, 0, 75, 0
2, 26042, Note_on_c, 0, 58, 59
2, 26057, Note_on_c, 0, 58, 0
2, 26071, Note_on_c, 0, 68, 52
2, 26082, Note_on_c, 0, 68, 0
2, 26093, Note_on_c, 0, 74, 57
2, 26106, Note_on_c, 0, 74, 0
2, 26112, Note_on_c, 0, 89, 73
2, 26119, Note_on_c, 0, 80, 0
2, 26121, Note_on_c, 0, 91, 0
2, 26129, Note_on_c, 0, 63, 50
2, 26138, Control_c, 0, 64, 0
2, 26149, Note_on_c, 0, 89, 0
2, 26151, Note_on_c, 0, 67, 36
2, 26151, Note_on_c, 0, 87, 79
2, 26157, Note_on_c, 0, 79, 46
2, 26170, Note_on_c, 0, 75, 41
2, 26185, Note_on_c, 0, 75, 0
2, 26191, Control_c, 0, 64, 127
2, 26195, Note_on_c, 0, 67, 0
2, 26204, Note_on_c, 0, 63, 0
2, 26263, Note_on_c, 0, 46, 69
2, 26275, Note_on_c, 0, 46, 0
2, 26287, Note_on_c, 0, 55, 41
2, 26308, Note_on_c, 0, 63, 53
2, 26314, Note_on_c, 0, 55, 0
2, 26316, Note_on_c, 0, 79, 0
2, 26319, Note_on_c, 0, 63, 0
2, 26343, Note_on_c, 0, 45, 85
2, 26352, Note_on_c, 0, 45, 0
2, 26370, Note_on_c, 0, 54, 37
2, 26389, Note_on_c, 0, 79, 10
2, 26392, Note_on_c, 0, 63, 64
2, 26394, Note_on_c, 0, 87, 0
2, 26400, Note_on_c, 0, 63, 0
2, 26404, Note_on_c, 0, 54, 0
2, 26406, Note_on_c, 0, 79, 0
2, 26422, Note_on_c, 0, 46, 92
2, 26452, Note_on_c, 0, 46, 0
2, 26458, Note_on_c, 0, 55, 41
2, 26482, Note_on_c, 0, 63, 55
2, 26486, Note_on_c, 0, 55, 0
2, 26492, Note_on_c, 0, 63, 0
2, 26522, Control_c, 0, 64, 0
2, 26524, Note_on_c, 0, 79, 87
2, 26525, Note_on_c, 0, 68, 60
2, 26526, Note_on_c, 0, 47, 48
2, 26557, Note_on_c, 0, 47, 0
2, 26564, Control_c, 0, 64, 127
2, 26566, Note_on_c, 0, 56, 45
2, 26583, Note_on_c, 0, 56, 0
2, 26596, Note_on_c, 0, 63, 59
2, 26606, Note_on_c, 0, 63, 0
2, 26642, Note_on_c, 0, 46, 67
2, 26656, Control_c, 0, 64, 0
2, 26684, Note_on_c, 0, 56, 59
2, 26694, Control_c, 0, 64, 127
2, 26696, Note_on_c, 0, 46, 0
2, 26724, Note_on_c, 0, 77, 80
2, 26726, Note_on_c, 0, 56, 0
2, 26738, Note_on_c, 0, 79, 0
2, 26750, Note_on_c, 0, 62, 52
2, 26766, Note_on_c, 0, 62, 0
2, 26788, Note_on_c, 0, 75, 71
2, 26792, Note_on_c, 0, 77, 0
2, 26810, Note_on_c, 0, 68, 0
2, 26818, Note_on_c, 0, 75, 0
2, 26853, Control_c, 0, 64, 0
2, 26853, Note_on_c, 0, 75, 61
2, 26858, Note_on_c, 0, 67, 47
2, 26860, Note_on_c, 0, 39, 47
2, 26896, Control_c, 0, 64, 127
2, 26902, Note_on_c, 0, 67, 0
2, 26903, Note_on_c, 0, 39, 0
2, 26957, Note_on_c, 0, 63, 41
2, 26961, Note_on_c, 0, 43, 38
2, 26968, Note_on_c, 0, 63, 0
2, 26971, Note_on_c, 0, 43, 0
2, 26972, Note_on_c, 0, 70, 65
2, 26979, Note_on_c, 0, 51, 58
2, 26988, Note_on_c, 0, 70, 0
2, 26992, Note_on_c, 0, 51, 0
2, 27003, Note_on_c, 0, 79, 74
2, 27004, Note_on_c, 0, 58, 67
2, 27005, Note_on_c, 0, 75, 0
2, 27015, Note_on_c, 0, 58, 0
2, 27038, Note_on_c, 0, 46, 79
2, 27043, Note_on_c, 0, 67, 79
2, 27047, Note_on_c, 0, 79, 0
2, 27053, Note_on_c, 0, 67, 0
2, 27058, Note_on_c, 0, 46, 0
2, 27063, Note_on_c, 0, 55, 50
2, 27063, Note_on_c, 0, 75, 78
2, 27072, Note_on_c, 0, 75, 0
2, 27077, Note_on_c, 0, 55, 0
2, 27085, Note_on_c, 0, 82, 105
2, 27087, Note_on_c, 0, 63, 78
2, 27105, Note_on_c, 0, 63, 0
2, 27111, Note_on_c, 0, 70, 83
2, 27117, Note_on_c, 0, 51, 67
2, 27126, Note_on_c, 0, 70, 0
2, 27129, Note_on_c, 0, 82, 0
2, 27130, Note_on_c, 0, 51, 0
2, 27134, Note_on_c, 0, 79, 81
2, 27137, Note_on_c, 0, 58, 50
2, 27145, Note_on_c, 0, 79, 0
2, 27150, Note_on_c, 0, 58, 0
2, 27150, Note_on_c, 0, 87, 102
2, 27156, Note_on_c, 0, 67, 76
2, 27166, Note_on_c, 0, 67, 0
2, 27180, Note_on_c, 0, 75, 79
2, 27189, Note_on_c, 0, 75, 0
2, 27193, Note_on_c, 0, 87, 0
2, 27197, Note_on_c, 0, 82, 84
2, 27201, Note_on_c, 0, 63, 70
2, 27204, Note_on_c, 0, 82, 0
2, 27208, Note_on_c, 0, 63, 0
2, 27218, Note_on_c, 0, 91, 103
2, 27222, Note_on_c, 0, 70, 85
2, 27237, Note_on_c, 0, 70, 0
2, 27242, Note_on_c, 0, 91, 0
2, 27244, Note_on_c, 0, 79, 80
2, 27254, Note_on_c, 0, 79, 0
2, 27255, Note_on_c, 0, 58, 61
2, 27262, Note_on_c, 0, 87, 77
2, 27266, Note_on_c, 0, 58, 0
2, 27270, Note_on_c, 0, 87, 0
2, 27284, Note_on_c, 0, 94, 109
2, 27291, Note_on_c, 0, 75, 72
2, 27306, Note_on_c, 0, 75, 0
2, 27306, Note_on_c, 0, 82, 92
2, 27320, Note_on_c, 0, 82, 0
2, 27323, Note_on_c, 0, 94, 0
2, 27323, Note_on_c, 0, 63, 44
2, 27335, Note_on_c, 0, 91, 73
2, 27341, Note_on_c, 0, 63, 0
2, 27342, Note_on_c, 0, 91, 0
2, 27344, Note_on_c, 0, 70, 65
2, 27356, Note_on_c, 0, 70, 0
2, 27372, Note_on_c, 0, 99, 100
2, 27377, Note_on_c, 0, 79, 79
2, 27387, Note_on_c, 0, 79, 0
2, 27394, Note_on_c, 0, 99, 0
2, 27571, Control_c, 0, 64, 0
2, 27598, Note_on_c, 0, 68, 61
2, 27598, Note_on_c, 0, 82, 106
2, 27602, Note_on_c, 0, 65, 71
2, 27602, Note_on_c, 0, 74, 65
2, 27603, Note_on_c, 0, 58, 50
2, 27608, Control_c, 0, 64, 127
2, 27609, Note_on_c, 0, 68, 0
2, 27610, Note_on_c, 0, 74, 0
2, 27611, Note_on_c, 0, 65, 0
2, 27623, Note_on_c, 0, 82, 0
2, 27625, Note_on_c, 0, 58, 0
2, 27649, Note_on_c, 0, 94, 115
2, 27657, Note_on_c, 0, 46, 75
2, 27692, Note_on_c, 0, 46, 0
2, 27734, Note_on_c, 0, 94, 0
2, 27781, Control_c, 0, 64, 0
2, 27781, Note_on_c, 0, 51, 59
2, 27795, Note_on_c, 0, 58, 72
2, 27805, Note_on_c, 0, 51, 0
2, 27808, Note_on_c, 0, 87, 100
2, 27812, Note_on_c, 0, 79, 78
2, 27813, Note_on_c, 0, 58, 0
2, 27817, Control_c, 0, 64, 127
2, 27820, Note_on_c, 0, 79, 0
2, 27824, Note_on_c, 0, 67, 75
2, 27832, Note_on_c, 0, 67, 0
2, 27836, Note_on_c, 0, 87, 0
2, 27894, Note_on_c, 0, 99, 97
2, 27902, Note_on_c, 0, 39, 53
2, 27915, Note_on_c, 0, 99, 0
2, 27916, Note_on_c, 0, 39, 0
2, 28319, Control_c, 0, 64, 0
2, 28352, Control_c, 0, 121, 0
2, 28352, End_track
3, 0, Start_track
3, 0, MIDI_port, 0
3, 0, Title_t, "Etude Op.10 n.11"
3, 0, End_track
4, 0, Start_track
4, 0, MIDI_port, 0
4, 0, Title_t, "Sequence by"
4, 0, End_track
5, 0, Start_track
5, 0, MIDI_port, 0
5, 0, Title_t, "Gabriele Giulimondi"
5, 0, End_track
6, 0, Start_track
6, 0, MIDI_port, 0
6, 0, Title_t, "giulim@mclink.it"
6, 0, End_track
7, 0, Start_track
7, 0, MIDI_port, 0
7, 0, Title_t, "October 1996"
7, 0, End_track
0, 0, End_of_file