0, 0, Header, 1, 17, 240
1, 0, Start_track
1, 0, Tempo, 480000
1, 0, Time_signature, 2, 2, 24, 8
1, 0, Key_signature, 4, "major"
1, 0, Title_t, "Chopin : Piano Concerto No.1 Op.11 Mov.3 Play by K.Oguri"
1, 0, Text_t, "CVS Ver5.05 Created"
1, 0, End_track
2, 0, Start_track
2, 0, Title_t, "PIANO SOLO"
2, 0, MIDI_port, 0
2, 0, Control_c, 0, 121, 0
2, 165, System_exclusive, 0A, 41, 10, 42, 12, 40, 10, 14, 01, 1B, F7
2, 185, Control_c, 0, 10, 64
2, 205, Control_c, 0, 7, 120
2, 225, Control_c, 0, 0, 0
2, 245, Control_c, 0, 32, 1
2, 265, Program_c, 0, 0
2, 285, Control_c, 0, 7, 120
2, 325, Control_c, 0, 11, 100
2, 385, Control_c, 0, 10, 64
2, 405, Control_c, 0, 1, 0
2, 405, Control_c, 0, 91, 80
2, 425, Control_c, 0, 99, 1
2, 445, Control_c, 0, 98, 32
2, 465, Control_c, 0, 6, 62
2, 485, Control_c, 0, 99, 1
2, 505, Control_c, 0, 98, 33
2, 525, Control_c, 0, 6, 54
2, 545, Control_c, 0, 99, 1
2, 565, Control_c, 0, 98, 99
2, 585, Control_c, 0, 6, 62
2, 605, Control_c, 0, 99, 1
2, 625, Control_c, 0, 98, 100
2, 645, Control_c, 0, 6, 60
2, 665, Control_c, 0, 99, 1
2, 685, Control_c, 0, 98, 102
2, 705, Control_c, 0, 6, 70
2, 11039, Note_on_c, 0, 71, 109
2, 11055, Control_c, 0, 64, 127
2, 11084, Note_on_c, 0, 71, 0
2, 11257, Note_on_c, 0, 56, 106
2, 11258, Note_on_c, 0, 52, 99
2, 11258, Note_on_c, 0, 64, 106
2, 11263, Note_on_c, 0, 83, 116
2, 11271, Control_c, 0, 64, 63
2, 11275, Control_c, 0, 64, 0
2, 11290, Note_on_c, 0, 64, 0
2, 11291, Note_on_c, 0, 52, 0
2, 11292, Note_on_c, 0, 56, 0
2, 11303, Note_on_c, 0, 83, 0
2, 11469, Note_on_c, 0, 76, 112
2, 11472, Note_on_c, 0, 59, 84
2, 11473, Note_on_c, 0, 68, 91
2, 11496, Note_on_c, 0, 68, 0
2, 11497, Note_on_c, 0, 76, 0
2, 11505, Note_on_c, 0, 59, 0
2, 11639, Note_on_c, 0, 56, 80
2, 11640, Note_on_c, 0, 52, 57
2, 11646, Note_on_c, 0, 64, 58
2, 11648, Note_on_c, 0, 80, 116
2, 11654, Control_c, 0, 64, 127
2, 11669, Note_on_c, 0, 52, 0
2, 11682, Note_on_c, 0, 80, 0
2, 11685, Note_on_c, 0, 64, 0
2, 11710, Note_on_c, 0, 56, 0
2, 11809, Note_on_c, 0, 59, 80
2, 11810, Note_on_c, 0, 68, 94
2, 11831, Note_on_c, 0, 68, 0
2, 11882, Note_on_c, 0, 59, 0
2, 11942, Note_on_c, 0, 57, 84
2, 11944, Note_on_c, 0, 52, 49
2, 11948, Note_on_c, 0, 63, 88
2, 11953, Control_c, 0, 64, 63
2, 11958, Control_c, 0, 64, 0
2, 11968, Note_on_c, 0, 63, 0
2, 11972, Note_on_c, 0, 52, 0
2, 11988, Note_on_c, 0, 57, 0
2, 11999, Note_on_c, 0, 78, 92
2, 12027, Note_on_c, 0, 78, 0
2, 12030, Note_on_c, 0, 80, 88
2, 12056, Note_on_c, 0, 78, 93
2, 12070, Note_on_c, 0, 80, 0
2, 12098, Note_on_c, 0, 66, 93
2, 12099, Note_on_c, 0, 75, 93
2, 12110, Note_on_c, 0, 78, 0
2, 12114, Note_on_c, 0, 59, 54
2, 12130, Note_on_c, 0, 75, 0
2, 12135, Note_on_c, 0, 66, 0
2, 12144, Note_on_c, 0, 59, 0
2, 12152, Note_on_c, 0, 71, 90
2, 12193, Note_on_c, 0, 71, 0
2, 12222, Control_c, 0, 64, 127
2, 12231, Note_on_c, 0, 56, 92
2, 12232, Note_on_c, 0, 52, 45
2, 12234, Note_on_c, 0, 76, 108
2, 12238, Note_on_c, 0, 64, 84
2, 12260, Note_on_c, 0, 52, 0
2, 12265, Note_on_c, 0, 76, 0
2, 12267, Note_on_c, 0, 64, 0
2, 12283, Note_on_c, 0, 56, 0
2, 12354, Control_c, 0, 64, 63
2, 12357, Control_c, 0, 64, 0
2, 12388, Note_on_c, 0, 80, 101
2, 12391, Note_on_c, 0, 68, 90
2, 12393, Note_on_c, 0, 59, 66
2, 12414, Note_on_c, 0, 68, 0
2, 12426, Note_on_c, 0, 80, 0
2, 12427, Note_on_c, 0, 59, 0
2, 12439, Note_on_c, 0, 81, 76
2, 12499, Note_on_c, 0, 81, 0
2, 12521, Note_on_c, 0, 56, 94
2, 12525, Note_on_c, 0, 52, 57
2, 12525, Note_on_c, 0, 82, 100
2, 12527, Note_on_c, 0, 64, 66
2, 12549, Note_on_c, 0, 64, 0
2, 12549, Note_on_c, 0, 52, 0
2, 12561, Note_on_c, 0, 56, 0
2, 12569, Note_on_c, 0, 82, 0
2, 12584, Note_on_c, 0, 83, 81
2, 12642, Note_on_c, 0, 83, 0
2, 12663, Note_on_c, 0, 59, 79
2, 12664, Note_on_c, 0, 68, 92
2, 12665, Note_on_c, 0, 85, 103
2, 12683, Note_on_c, 0, 68, 0
2, 12692, Note_on_c, 0, 59, 0
2, 12724, Note_on_c, 0, 87, 100
2, 12735, Note_on_c, 0, 85, 0
2, 12779, Note_on_c, 0, 87, 0
2, 12793, Note_on_c, 0, 56, 93
2, 12795, Note_on_c, 0, 52, 61
2, 12807, Note_on_c, 0, 88, 96
2, 12809, Note_on_c, 0, 64, 30
2, 12818, Note_on_c, 0, 52, 0
2, 12826, Note_on_c, 0, 64, 0
2, 12840, Note_on_c, 0, 56, 0
2, 12857, Note_on_c, 0, 88, 0
2, 12864, Note_on_c, 0, 90, 97
2, 12905, Note_on_c, 0, 90, 0
2, 12933, Note_on_c, 0, 68, 96
2, 12935, Note_on_c, 0, 93, 108
2, 12937, Note_on_c, 0, 59, 76
2, 12953, Note_on_c, 0, 68, 0
2, 12959, Control_c, 0, 64, 127
2, 12960, Note_on_c, 0, 59, 0
2, 12992, Note_on_c, 0, 93, 0
2, 13053, Note_on_c, 0, 92, 94
2, 13080, Note_on_c, 0, 92, 0
2, 13082, Note_on_c, 0, 92, 115
2, 13095, Control_c, 0, 64, 127
2, 13100, Note_on_c, 0, 54, 99
2, 13101, Note_on_c, 0, 59, 93
2, 13102, Note_on_c, 0, 47, 76
2, 13108, Note_on_c, 0, 90, 93
2, 13127, Note_on_c, 0, 47, 0
2, 13134, Note_on_c, 0, 92, 0
2, 13138, Note_on_c, 0, 54, 0
2, 13139, Note_on_c, 0, 59, 0
2, 13178, Note_on_c, 0, 90, 0
2, 13188, Note_on_c, 0, 89, 103
2, 13238, Note_on_c, 0, 89, 0
2, 13257, Note_on_c, 0, 90, 113
2, 13260, Note_on_c, 0, 63, 94
2, 13264, Note_on_c, 0, 54, 86
2, 13282, Note_on_c, 0, 63, 0
2, 13285, Note_on_c, 0, 54, 0
2, 13309, Note_on_c, 0, 92, 104
2, 13315, Note_on_c, 0, 90, 0
2, 13369, Note_on_c, 0, 92, 0
2, 13376, Note_on_c, 0, 90, 104
2, 13387, Note_on_c, 0, 47, 86
2, 13387, Note_on_c, 0, 54, 109
2, 13395, Note_on_c, 0, 95, 107
2, 13395, Note_on_c, 0, 59, 75
2, 13409, Note_on_c, 0, 47, 0
2, 13414, Note_on_c, 0, 90, 0
2, 13418, Note_on_c, 0, 54, 0
2, 13420, Note_on_c, 0, 59, 0
2, 13424, Note_on_c, 0, 95, 0
2, 13555, Note_on_c, 0, 71, 109
2, 13557, Note_on_c, 0, 63, 107
2, 13560, Note_on_c, 0, 54, 91
2, 13579, Note_on_c, 0, 54, 0
2, 13580, Note_on_c, 0, 63, 0
2, 13583, Note_on_c, 0, 71, 0
2, 13717, Note_on_c, 0, 56, 107
2, 13717, Note_on_c, 0, 52, 94
2, 13717, Note_on_c, 0, 64, 104
2, 13720, Note_on_c, 0, 59, 97
2, 13720, Note_on_c, 0, 83, 116
2, 13731, Control_c, 0, 64, 63
2, 13736, Control_c, 0, 64, 0
2, 13739, Note_on_c, 0, 59, 0
2, 13742, Note_on_c, 0, 52, 0
2, 13747, Note_on_c, 0, 64, 0
2, 13749, Note_on_c, 0, 56, 0
2, 13750, Note_on_c, 0, 83, 0
2, 13914, Note_on_c, 0, 76, 112
2, 13919, Note_on_c, 0, 59, 86
2, 13920, Note_on_c, 0, 68, 97
2, 13937, Note_on_c, 0, 68, 0
2, 13946, Note_on_c, 0, 59, 0
2, 13946, Note_on_c, 0, 76, 0
2, 14071, Note_on_c, 0, 56, 88
2, 14071, Note_on_c, 0, 52, 79
2, 14074, Note_on_c, 0, 64, 76
2, 14076, Control_c, 0, 64, 127
2, 14079, Note_on_c, 0, 80, 121
2, 14097, Note_on_c, 0, 52, 0
2, 14120, Note_on_c, 0, 80, 0
2, 14127, Note_on_c, 0, 64, 0
2, 14135, Note_on_c, 0, 56, 0
2, 14218, Note_on_c, 0, 59, 81
2, 14218, Note_on_c, 0, 68, 105
2, 14246, Note_on_c, 0, 68, 0
2, 14261, Note_on_c, 0, 59, 0
2, 14346, Note_on_c, 0, 57, 84
2, 14350, Note_on_c, 0, 63, 99
2, 14353, Control_c, 0, 64, 63
2, 14355, Note_on_c, 0, 52, 45
2, 14360, Control_c, 0, 64, 0
2, 14370, Note_on_c, 0, 63, 0
2, 14379, Note_on_c, 0, 52, 0
2, 14388, Note_on_c, 0, 57, 0
2, 14421, Note_on_c, 0, 78, 97
2, 14473, Note_on_c, 0, 78, 0
2, 14496, Note_on_c, 0, 75, 104
2, 14500, Note_on_c, 0, 66, 92
2, 14507, Note_on_c, 0, 59, 60
2, 14535, Note_on_c, 0, 59, 0
2, 14535, Note_on_c, 0, 66, 0
2, 14538, Note_on_c, 0, 75, 0
2, 14559, Note_on_c, 0, 71, 93
2, 14598, Note_on_c, 0, 71, 0
2, 14617, Control_c, 0, 64, 127
2, 14619, Note_on_c, 0, 52, 47
2, 14621, Note_on_c, 0, 56, 99
2, 14626, Note_on_c, 0, 76, 104
2, 14629, Note_on_c, 0, 64, 75
2, 14645, Note_on_c, 0, 52, 0
2, 14661, Note_on_c, 0, 76, 0
2, 14664, Note_on_c, 0, 64, 0
2, 14678, Note_on_c, 0, 56, 0
2, 14771, Note_on_c, 0, 68, 89
2, 14773, Note_on_c, 0, 59, 71
2, 14774, Note_on_c, 0, 80, 105
2, 14805, Note_on_c, 0, 68, 0
2, 14819, Note_on_c, 0, 80, 0
2, 14829, Note_on_c, 0, 81, 88
2, 14835, Control_c, 0, 64, 63
2, 14841, Control_c, 0, 64, 0
2, 14842, Note_on_c, 0, 59, 0
2, 14898, Note_on_c, 0, 81, 0
2, 14904, Note_on_c, 0, 59, 88
2, 14905, Note_on_c, 0, 53, 71
2, 14905, Note_on_c, 0, 82, 114
2, 14924, Control_c, 0, 64, 127
2, 14928, Note_on_c, 0, 53, 0
2, 14950, Note_on_c, 0, 59, 0
2, 14970, Note_on_c, 0, 85, 98
2, 14985, Note_on_c, 0, 82, 0
2, 15037, Control_c, 0, 64, 63
2, 15040, Control_c, 0, 64, 0
2, 15044, Note_on_c, 0, 68, 95
2, 15046, Note_on_c, 0, 62, 77
2, 15048, Note_on_c, 0, 83, 85
2, 15060, Note_on_c, 0, 85, 0
2, 15072, Note_on_c, 0, 68, 0
2, 15093, Note_on_c, 0, 62, 0
2, 15104, Note_on_c, 0, 80, 106
2, 15116, Note_on_c, 0, 83, 0
2, 15157, Note_on_c, 0, 80, 0
2, 15178, Note_on_c, 0, 54, 85
2, 15186, Note_on_c, 0, 78, 103
2, 15189, Control_c, 0, 64, 127
2, 15191, Note_on_c, 0, 59, 78
2, 15201, Note_on_c, 0, 54, 0
2, 15213, Note_on_c, 0, 59, 0
2, 15227, Note_on_c, 0, 78, 0
2, 15256, Note_on_c, 0, 83, 81
2, 15301, Note_on_c, 0, 83, 0
2, 15316, Control_c, 0, 64, 63
2, 15319, Control_c, 0, 64, 0
2, 15322, Note_on_c, 0, 63, 93
2, 15323, Note_on_c, 0, 71, 78
2, 15324, Note_on_c, 0, 87, 100
2, 15345, Note_on_c, 0, 71, 0
2, 15360, Note_on_c, 0, 87, 0
2, 15387, Note_on_c, 0, 90, 103
2, 15416, Note_on_c, 0, 63, 0
2, 15421, Note_on_c, 0, 90, 0
2, 15456, Note_on_c, 0, 54, 93
2, 15459, Note_on_c, 0, 94, 107
2, 15461, Note_on_c, 0, 61, 93
2, 15474, Control_c, 0, 64, 127
2, 15487, Note_on_c, 0, 54, 0
2, 15493, Note_on_c, 0, 61, 0
2, 15526, Note_on_c, 0, 94, 0
2, 15554, Note_on_c, 0, 92, 90
2, 15577, Note_on_c, 0, 94, 98
2, 15582, Note_on_c, 0, 92, 0
2, 15607, Note_on_c, 0, 92, 90
2, 15620, Note_on_c, 0, 70, 69
2, 15621, Note_on_c, 0, 64, 73
2, 15622, Note_on_c, 0, 94, 0
2, 15645, Note_on_c, 0, 70, 0
2, 15654, Note_on_c, 0, 88, 90
2, 15657, Note_on_c, 0, 92, 0
2, 15665, Note_on_c, 0, 64, 0
2, 15691, Note_on_c, 0, 88, 0
2, 15723, Note_on_c, 0, 85, 101
2, 15757, Note_on_c, 0, 85, 0
2, 15811, Note_on_c, 0, 83, 102
2, 15815, Control_c, 0, 64, 63
2, 15824, Note_on_c, 0, 63, 99
2, 15824, Note_on_c, 0, 59, 89
2, 15825, Note_on_c, 0, 71, 94
2, 15846, Note_on_c, 0, 83, 0
2, 15847, Control_c, 0, 64, 127
2, 15872, Note_on_c, 0, 71, 0
2, 15888, Note_on_c, 0, 59, 0
2, 15910, Note_on_c, 0, 63, 0
2, 15957, Control_c, 0, 64, 63
2, 15963, Control_c, 0, 64, 0
2, 16010, Control_c, 0, 64, 63
2, 16014, Control_c, 0, 64, 127
2, 16020, Note_on_c, 0, 66, 95
2, 16023, Note_on_c, 0, 69, 76
2, 16026, Note_on_c, 0, 71, 114
2, 16047, Note_on_c, 0, 69, 0
2, 16053, Note_on_c, 0, 66, 0
2, 16055, Note_on_c, 0, 71, 0
2, 16241, Control_c, 0, 64, 127
2, 16250, Note_on_c, 0, 56, 107
2, 16251, Note_on_c, 0, 52, 94
2, 16251, Note_on_c, 0, 64, 104
2, 16254, Note_on_c, 0, 83, 97
2, 16269, Control_c, 0, 64, 63
2, 16274, Control_c, 0, 64, 0
2, 16278, Note_on_c, 0, 52, 0
2, 16280, Note_on_c, 0, 56, 0
2, 16283, Note_on_c, 0, 83, 0
2, 16284, Note_on_c, 0, 64, 0
2, 16457, Note_on_c, 0, 68, 110
2, 16460, Note_on_c, 0, 76, 113
2, 16464, Note_on_c, 0, 59, 87
2, 16486, Note_on_c, 0, 59, 0
2, 16486, Note_on_c, 0, 68, 0
2, 16492, Note_on_c, 0, 76, 0
2, 16632, Note_on_c, 0, 56, 100
2, 16637, Note_on_c, 0, 52, 83
2, 16644, Note_on_c, 0, 80, 120
2, 16646, Note_on_c, 0, 64, 45
2, 16654, Control_c, 0, 64, 127
2, 16657, Note_on_c, 0, 52, 0
2, 16666, Note_on_c, 0, 56, 0
2, 16670, Note_on_c, 0, 64, 0
2, 16800, Note_on_c, 0, 68, 105
2, 16803, Note_on_c, 0, 59, 85
2, 16824, Note_on_c, 0, 59, 0
2, 16828, Note_on_c, 0, 68, 0
2, 16892, Note_on_c, 0, 80, 0
2, 16939, Note_on_c, 0, 52, 83
2, 16940, Note_on_c, 0, 57, 94
2, 16944, Note_on_c, 0, 63, 109
2, 16947, Control_c, 0, 64, 63
2, 16951, Control_c, 0, 64, 0
2, 16968, Note_on_c, 0, 52, 0
2, 16972, Note_on_c, 0, 63, 0
2, 16974, Note_on_c, 0, 57, 0
2, 17006, Note_on_c, 0, 78, 99
2, 17032, Note_on_c, 0, 80, 93
2, 17038, Note_on_c, 0, 78, 0
2, 17059, Note_on_c, 0, 78, 103
2, 17080, Note_on_c, 0, 80, 0
2, 17087, Note_on_c, 0, 66, 90
2, 17093, Note_on_c, 0, 59, 71
2, 17095, Note_on_c, 0, 75, 107
2, 17107, Note_on_c, 0, 66, 0
2, 17111, Note_on_c, 0, 78, 0
2, 17131, Note_on_c, 0, 59, 0
2, 17146, Note_on_c, 0, 71, 90
2, 17147, Note_on_c, 0, 75, 0
2, 17186, Note_on_c, 0, 71, 0
2, 17219, Note_on_c, 0, 76, 109
2, 17222, Note_on_c, 0, 56, 95
2, 17224, Note_on_c, 0, 52, 68
2, 17226, Control_c, 0, 64, 127
2, 17228, Note_on_c, 0, 64, 80
2, 17244, Note_on_c, 0, 52, 0
2, 17251, Note_on_c, 0, 76, 0
2, 17255, Note_on_c, 0, 64, 0
2, 17276, Note_on_c, 0, 56, 0
2, 17340, Control_c, 0, 64, 63
2, 17343, Control_c, 0, 64, 0
2, 17375, Note_on_c, 0, 68, 95
2, 17381, Note_on_c, 0, 59, 61
2, 17385, Note_on_c, 0, 80, 101
2, 17402, Note_on_c, 0, 68, 0
2, 17407, Note_on_c, 0, 59, 0
2, 17421, Note_on_c, 0, 80, 0
2, 17438, Note_on_c, 0, 81, 88
2, 17494, Note_on_c, 0, 81, 0
2, 17518, Note_on_c, 0, 52, 71
2, 17520, Note_on_c, 0, 56, 98
2, 17525, Note_on_c, 0, 64, 84
2, 17530, Note_on_c, 0, 82, 108
2, 17552, Note_on_c, 0, 64, 0
2, 17554, Note_on_c, 0, 52, 0
2, 17573, Note_on_c, 0, 82, 0
2, 17577, Note_on_c, 0, 56, 0
2, 17583, Note_on_c, 0, 83, 88
2, 17641, Note_on_c, 0, 83, 0
2, 17664, Note_on_c, 0, 85, 107
2, 17668, Note_on_c, 0, 59, 78
2, 17668, Note_on_c, 0, 68, 94
2, 17688, Note_on_c, 0, 68, 0
2, 17699, Note_on_c, 0, 59, 0
2, 17722, Note_on_c, 0, 87, 104
2, 17731, Note_on_c, 0, 85, 0
2, 17773, Note_on_c, 0, 87, 0
2, 17794, Note_on_c, 0, 52, 76
2, 17796, Note_on_c, 0, 56, 97
2, 17803, Note_on_c, 0, 64, 74
2, 17811, Note_on_c, 0, 88, 106
2, 17817, Note_on_c, 0, 52, 0
2, 17825, Note_on_c, 0, 64, 0
2, 17835, Note_on_c, 0, 56, 0
2, 17846, Note_on_c, 0, 88, 0
2, 17866, Note_on_c, 0, 90, 106
2, 17903, Note_on_c, 0, 90, 0
2, 17950, Note_on_c, 0, 68, 100
2, 17951, Note_on_c, 0, 59, 83
2, 17956, Note_on_c, 0, 93, 116
2, 17960, Control_c, 0, 64, 127
2, 17963, Note_on_c, 0, 68, 0
2, 17976, Note_on_c, 0, 59, 0
2, 18000, Note_on_c, 0, 93, 0
2, 18080, Note_on_c, 0, 92, 107
2, 18099, Control_c, 0, 64, 63
2, 18101, Control_c, 0, 64, 0
2, 18104, Note_on_c, 0, 54, 88
2, 18105, Note_on_c, 0, 47, 78
2, 18111, Note_on_c, 0, 92, 0
2, 18114, Note_on_c, 0, 59, 71
2, 18125, Note_on_c, 0, 47, 0
2, 18136, Note_on_c, 0, 92, 110
2, 18140, Note_on_c, 0, 54, 0
2, 18145, Note_on_c, 0, 90, 110
2, 18150, Note_on_c, 0, 59, 0
2, 18185, Note_on_c, 0, 92, 0
2, 18209, Note_on_c, 0, 89, 100
2, 18232, Note_on_c, 0, 90, 0
2, 18280, Note_on_c, 0, 90, 115
2, 18285, Note_on_c, 0, 63, 98
2, 18292, Note_on_c, 0, 54, 86
2, 18295, Note_on_c, 0, 89, 0
2, 18309, Note_on_c, 0, 63, 0
2, 18310, Note_on_c, 0, 54, 0
2, 18324, Note_on_c, 0, 92, 110
2, 18341, Note_on_c, 0, 90, 0
2, 18386, Note_on_c, 0, 90, 99
2, 18400, Note_on_c, 0, 92, 0
2, 18416, Note_on_c, 0, 54, 105
2, 18417, Note_on_c, 0, 47, 93
2, 18422, Note_on_c, 0, 95, 112
2, 18422, Note_on_c, 0, 59, 94
2, 18429, Control_c, 0, 64, 127
2, 18435, Note_on_c, 0, 47, 0
2, 18436, Note_on_c, 0, 90, 0
2, 18447, Note_on_c, 0, 54, 0
2, 18451, Note_on_c, 0, 95, 0
2, 18456, Note_on_c, 0, 59, 0
2, 18579, Note_on_c, 0, 63, 93
2, 18582, Note_on_c, 0, 71, 114
2, 18585, Note_on_c, 0, 54, 82
2, 18604, Note_on_c, 0, 63, 0
2, 18608, Note_on_c, 0, 54, 0
2, 18611, Note_on_c, 0, 71, 0
2, 18739, Note_on_c, 0, 52, 88
2, 18742, Note_on_c, 0, 56, 101
2, 18744, Note_on_c, 0, 83, 117
2, 18745, Control_c, 0, 64, 63
2, 18746, Note_on_c, 0, 64, 87
2, 18749, Note_on_c, 0, 59, 77
2, 18753, Control_c, 0, 64, 0
2, 18762, Note_on_c, 0, 52, 0
2, 18767, Note_on_c, 0, 59, 0
2, 18775, Note_on_c, 0, 56, 0
2, 18777, Note_on_c, 0, 64, 0
2, 18777, Note_on_c, 0, 83, 0
2, 18923, Note_on_c, 0, 68, 108
2, 18925, Note_on_c, 0, 59, 87
2, 18926, Note_on_c, 0, 76, 117
2, 18952, Note_on_c, 0, 59, 0
2, 18952, Note_on_c, 0, 68, 0
2, 18957, Note_on_c, 0, 76, 0
2, 19074, Note_on_c, 0, 52, 76
2, 19074, Note_on_c, 0, 56, 88
2, 19083, Control_c, 0, 64, 127
2, 19084, Note_on_c, 0, 64, 75
2, 19089, Note_on_c, 0, 80, 118
2, 19108, Note_on_c, 0, 52, 0
2, 19125, Note_on_c, 0, 64, 0
2, 19139, Note_on_c, 0, 56, 0
2, 19232, Note_on_c, 0, 68, 99
2, 19240, Note_on_c, 0, 59, 81
2, 19255, Note_on_c, 0, 68, 0
2, 19265, Note_on_c, 0, 59, 0
2, 19378, Control_c, 0, 64, 63
2, 19379, Note_on_c, 0, 54, 112
2, 19380, Note_on_c, 0, 59, 96
2, 19383, Control_c, 0, 64, 0
2, 19384, Note_on_c, 0, 47, 84
2, 19402, Note_on_c, 0, 47, 0
2, 19403, Note_on_c, 0, 59, 0
2, 19405, Note_on_c, 0, 54, 0
2, 19458, Note_on_c, 0, 78, 97
2, 19465, Note_on_c, 0, 80, 0
2, 19534, Note_on_c, 0, 63, 101
2, 19534, Note_on_c, 0, 75, 106
2, 19539, Note_on_c, 0, 57, 76
2, 19561, Note_on_c, 0, 78, 0
2, 19562, Note_on_c, 0, 57, 0
2, 19570, Note_on_c, 0, 63, 0
2, 19592, Note_on_c, 0, 75, 0
2, 19592, Note_on_c, 0, 71, 99
2, 19638, Note_on_c, 0, 71, 0
2, 19659, Note_on_c, 0, 56, 98
2, 19660, Note_on_c, 0, 52, 82
2, 19663, Note_on_c, 0, 76, 107
2, 19665, Note_on_c, 0, 64, 83
2, 19673, Control_c, 0, 64, 63
2, 19674, Control_c, 0, 64, 127
2, 19684, Note_on_c, 0, 52, 0
2, 19695, Note_on_c, 0, 76, 0
2, 19700, Note_on_c, 0, 64, 0
2, 19700, Note_on_c, 0, 56, 0
2, 19799, Control_c, 0, 64, 63
2, 19802, Control_c, 0, 64, 0
2, 19806, Note_on_c, 0, 59, 84
2, 19807, Note_on_c, 0, 68, 98
2, 19808, Note_on_c, 0, 80, 107
2, 19829, Note_on_c, 0, 59, 0
2, 19838, Note_on_c, 0, 68, 0
2, 19853, Note_on_c, 0, 80, 0
2, 19864, Note_on_c, 0, 81, 93
2, 19927, Note_on_c, 0, 81, 0
2, 19947, Note_on_c, 0, 53, 85
2, 19950, Note_on_c, 0, 59, 87
2, 19952, Note_on_c, 0, 82, 113
2, 19967, Control_c, 0, 64, 127
2, 19981, Note_on_c, 0, 53, 0
2, 19989, Note_on_c, 0, 59, 0
2, 20006, Note_on_c, 0, 82, 0
2, 20028, Note_on_c, 0, 85, 101
2, 20064, Note_on_c, 0, 85, 0
2, 20093, Note_on_c, 0, 83, 59
2, 20108, Note_on_c, 0, 68, 79
2, 20109, Note_on_c, 0, 62, 65
2, 20110, Note_on_c, 0, 85, 97
2, 20118, Note_on_c, 0, 83, 0
2, 20133, Note_on_c, 0, 68, 0
2, 20135, Control_c, 0, 64, 63
2, 20138, Control_c, 0, 64, 0
2, 20145, Note_on_c, 0, 83, 84
2, 20147, Note_on_c, 0, 85, 0
2, 20148, Note_on_c, 0, 62, 0
2, 20189, Note_on_c, 0, 80, 110
2, 20195, Note_on_c, 0, 83, 0
2, 20228, Note_on_c, 0, 80, 0
2, 20252, Note_on_c, 0, 54, 83
2, 20256, Control_c, 0, 64, 127
2, 20257, Note_on_c, 0, 59, 82
2, 20259, Note_on_c, 0, 78, 109
2, 20272, Note_on_c, 0, 54, 0
2, 20289, Note_on_c, 0, 59, 0
2, 20309, Note_on_c, 0, 78, 0
2, 20324, Note_on_c, 0, 83, 98
2, 20386, Note_on_c, 0, 83, 0
2, 20392, Control_c, 0, 64, 63
2, 20395, Control_c, 0, 64, 0
2, 20405, Note_on_c, 0, 87, 104
2, 20407, Note_on_c, 0, 63, 88
2, 20408, Note_on_c, 0, 71, 84
2, 20433, Note_on_c, 0, 71, 0
2, 20447, Note_on_c, 0, 87, 0
2, 20460, Note_on_c, 0, 63, 0
2, 20467, Note_on_c, 0, 90, 108
2, 20514, Note_on_c, 0, 90, 0
2, 20547, Note_on_c, 0, 61, 99
2, 20551, Note_on_c, 0, 54, 91
2, 20553, Note_on_c, 0, 94, 112
2, 20559, Control_c, 0, 64, 127
2, 20581, Note_on_c, 0, 54, 0
2, 20591, Note_on_c, 0, 61, 0
2, 20601, Note_on_c, 0, 94, 0
2, 20631, Note_on_c, 0, 92, 95
2, 20650, Note_on_c, 0, 94, 99
2, 20659, Note_on_c, 0, 92, 0
2, 20686, Note_on_c, 0, 92, 100
2, 20708, Note_on_c, 0, 94, 0
2, 20725, Note_on_c, 0, 70, 88
2, 20728, Note_on_c, 0, 64, 68
2, 20730, Note_on_c, 0, 88, 98
2, 20738, Note_on_c, 0, 92, 0
2, 20738, Note_on_c, 0, 61, 23
2, 20741, Note_on_c, 0, 70, 0
2, 20750, Note_on_c, 0, 64, 0
2, 20757, Note_on_c, 0, 61, 0
2, 20781, Note_on_c, 0, 88, 0
2, 20815, Note_on_c, 0, 85, 113
2, 20861, Note_on_c, 0, 85, 0
2, 20906, Note_on_c, 0, 63, 97
2, 20907, Note_on_c, 0, 83, 113
2, 20911, Note_on_c, 0, 71, 86
2, 20912, Note_on_c, 0, 66, 92
2, 20918, Note_on_c, 0, 59, 58
2, 20936, Control_c, 0, 64, 63
2, 20940, Note_on_c, 0, 83, 0
2, 20941, Note_on_c, 0, 66, 0
2, 20941, Control_c, 0, 64, 0
2, 20943, Note_on_c, 0, 71, 0
2, 20949, Note_on_c, 0, 59, 0
2, 20950, Note_on_c, 0, 63, 0
2, 21129, Control_c, 0, 64, 63
2, 21130, Control_c, 0, 64, 127
2, 21130, Note_on_c, 0, 66, 82
2, 21134, Note_on_c, 0, 71, 107
2, 21198, Note_on_c, 0, 66, 0
2, 21206, Note_on_c, 0, 71, 0
2, 21388, Note_on_c, 0, 53, 76
2, 21395, Note_on_c, 0, 85, 104
2, 21395, Note_on_c, 0, 59, 78
2, 21399, Control_c, 0, 64, 63
2, 21402, Control_c, 0, 64, 0
2, 21427, Note_on_c, 0, 85, 0
2, 21428, Note_on_c, 0, 53, 0
2, 21441, Note_on_c, 0, 59, 0
2, 21628, Note_on_c, 0, 80, 100
2, 21629, Note_on_c, 0, 68, 72
2, 21636, Note_on_c, 0, 61, 68
2, 21659, Note_on_c, 0, 68, 0
2, 21662, Note_on_c, 0, 80, 0
2, 21676, Note_on_c, 0, 61, 0
2, 21837, Note_on_c, 0, 85, 105
2, 21838, Control_c, 0, 64, 127
2, 21841, Note_on_c, 0, 53, 57
2, 21846, Note_on_c, 0, 59, 67
2, 21889, Note_on_c, 0, 85, 0
2, 21891, Note_on_c, 0, 53, 0
2, 21927, Note_on_c, 0, 59, 0
2, 22038, Note_on_c, 0, 68, 72
2, 22042, Note_on_c, 0, 61, 65
2, 22080, Note_on_c, 0, 68, 0
2, 22103, Note_on_c, 0, 61, 0
2, 22188, Note_on_c, 0, 59, 70
2, 22191, Note_on_c, 0, 53, 68
2, 22234, Note_on_c, 0, 53, 0
2, 22237, Note_on_c, 0, 59, 0
2, 22260, Note_on_c, 0, 83, 78
2, 22282, Note_on_c, 0, 83, 0
2, 22292, Note_on_c, 0, 81, 61
2, 22323, Note_on_c, 0, 81, 0
2, 22325, Note_on_c, 0, 83, 84
2, 22340, Control_c, 0, 64, 63
2, 22344, Control_c, 0, 64, 0
2, 22364, Note_on_c, 0, 81, 90
2, 22369, Note_on_c, 0, 68, 72
2, 22370, Note_on_c, 0, 83, 0
2, 22373, Note_on_c, 0, 61, 63
2, 22395, Note_on_c, 0, 68, 0
2, 22410, Note_on_c, 0, 61, 0
2, 22419, Note_on_c, 0, 81, 0
2, 22440, Note_on_c, 0, 80, 88
2, 22484, Note_on_c, 0, 80, 0
2, 22507, Note_on_c, 0, 81, 88
2, 22510, Note_on_c, 0, 54, 54
2, 22513, Note_on_c, 0, 57, 68
2, 22515, Control_c, 0, 64, 63
2, 22515, Control_c, 0, 64, 127
2, 22532, Note_on_c, 0, 54, 0
2, 22544, Note_on_c, 0, 57, 0
2, 22555, Note_on_c, 0, 81, 0
2, 22685, Note_on_c, 0, 69, 73
2, 22687, Note_on_c, 0, 61, 88
2, 22692, Note_on_c, 0, 78, 91
2, 22707, Note_on_c, 0, 69, 0
2, 22714, Note_on_c, 0, 78, 0
2, 22722, Note_on_c, 0, 61, 0
2, 22756, Control_c, 0, 64, 63
2, 22760, Control_c, 0, 64, 0
2, 22861, Control_c, 0, 64, 63
2, 22861, Note_on_c, 0, 80, 96
2, 22862, Control_c, 0, 64, 127
2, 22864, Note_on_c, 0, 49, 76
2, 22866, Note_on_c, 0, 56, 76
2, 22867, Note_on_c, 0, 61, 73
2, 22884, Note_on_c, 0, 49, 0
2, 22894, Note_on_c, 0, 80, 0
2, 22903, Note_on_c, 0, 61, 0
2, 22905, Note_on_c, 0, 56, 0
2, 23015, Note_on_c, 0, 59, 60
2, 23027, Note_on_c, 0, 65, 46
2, 23028, Note_on_c, 0, 73, 104
2, 23037, Control_c, 0, 64, 63
2, 23040, Control_c, 0, 64, 0
2, 23045, Note_on_c, 0, 59, 0
2, 23051, Note_on_c, 0, 65, 0
2, 23058, Note_on_c, 0, 73, 0
2, 23178, Note_on_c, 0, 49, 85
2, 23178, Control_c, 0, 64, 63
2, 23179, Control_c, 0, 64, 127
2, 23180, Note_on_c, 0, 73, 92
2, 23183, Note_on_c, 0, 56, 72
2, 23186, Note_on_c, 0, 61, 68
2, 23212, Note_on_c, 0, 56, 0
2, 23216, Note_on_c, 0, 73, 0
2, 23218, Note_on_c, 0, 61, 0
2, 23218, Note_on_c, 0, 49, 0
2, 23289, Note_on_c, 0, 74, 76
2, 23301, Note_on_c, 0, 59, 88
2, 23303, Note_on_c, 0, 76, 98
2, 23308, Note_on_c, 0, 74, 0
2, 23310, Note_on_c, 0, 65, 62
2, 23321, Note_on_c, 0, 76, 0
2, 23336, Note_on_c, 0, 74, 88
2, 23337, Note_on_c, 0, 65, 0
2, 23343, Note_on_c, 0, 59, 0
2, 23345, Control_c, 0, 64, 63
2, 23350, Control_c, 0, 64, 0
2, 23390, Note_on_c, 0, 74, 0
2, 23390, Note_on_c, 0, 73, 94
2, 23443, Note_on_c, 0, 73, 0
2, 23477, Note_on_c, 0, 49, 75
2, 23479, Note_on_c, 0, 72, 92
2, 23481, Note_on_c, 0, 56, 70
2, 23482, Note_on_c, 0, 61, 75
2, 23489, Control_c, 0, 64, 127
2, 23505, Note_on_c, 0, 49, 0
2, 23507, Note_on_c, 0, 56, 0
2, 23514, Note_on_c, 0, 61, 0
2, 23542, Note_on_c, 0, 73, 95
2, 23544, Note_on_c, 0, 72, 0
2, 23601, Control_c, 0, 64, 63
2, 23605, Control_c, 0, 64, 0
2, 23614, Note_on_c, 0, 59, 80
2, 23615, Note_on_c, 0, 75, 97
2, 23623, Note_on_c, 0, 73, 0
2, 23623, Note_on_c, 0, 65, 65
2, 23651, Note_on_c, 0, 65, 0
2, 23654, Note_on_c, 0, 75, 0
2, 23659, Note_on_c, 0, 59, 0
2, 23680, Note_on_c, 0, 77, 76
2, 23742, Note_on_c, 0, 77, 0
2, 23765, Note_on_c, 0, 78, 91
2, 23766, Control_c, 0, 64, 127
2, 23766, Note_on_c, 0, 57, 69
2, 23769, Note_on_c, 0, 54, 77
2, 23785, Note_on_c, 0, 78, 0
2, 23796, Note_on_c, 0, 54, 0
2, 23812, Note_on_c, 0, 57, 0
2, 23883, Note_on_c, 0, 89, 85
2, 23913, Note_on_c, 0, 92, 95
2, 23922, Note_on_c, 0, 89, 0
2, 23947, Note_on_c, 0, 90, 109
2, 23961, Note_on_c, 0, 69, 62
2, 23961, Note_on_c, 0, 61, 76
2, 23969, Note_on_c, 0, 92, 0
2, 23986, Note_on_c, 0, 69, 0
2, 23999, Note_on_c, 0, 61, 0
2, 24089, Note_on_c, 0, 90, 0
2, 24144, Note_on_c, 0, 85, 107
2, 24148, Note_on_c, 0, 53, 76
2, 24149, Control_c, 0, 64, 63
2, 24152, Note_on_c, 0, 59, 74
2, 24154, Control_c, 0, 64, 0
2, 24174, Note_on_c, 0, 59, 0
2, 24174, Note_on_c, 0, 85, 0
2, 24179, Note_on_c, 0, 53, 0
2, 24346, Note_on_c, 0, 80, 108
2, 24355, Note_on_c, 0, 68, 83
2, 24362, Note_on_c, 0, 61, 78
2, 24378, Note_on_c, 0, 80, 0
2, 24382, Note_on_c, 0, 68, 0
2, 24393, Note_on_c, 0, 61, 0
2, 24542, Note_on_c, 0, 53, 72
2, 24542, Control_c, 0, 64, 127
2, 24544, Note_on_c, 0, 85, 108
2, 24548, Note_on_c, 0, 59, 75
2, 24587, Note_on_c, 0, 53, 0
2, 24591, Note_on_c, 0, 85, 0
2, 24602, Note_on_c, 0, 59, 0
2, 24738, Note_on_c, 0, 68, 69
2, 24749, Note_on_c, 0, 61, 49
2, 24774, Note_on_c, 0, 61, 0
2, 24776, Note_on_c, 0, 68, 0
2, 24883, Note_on_c, 0, 59, 79
2, 24886, Note_on_c, 0, 53, 70
2, 24933, Note_on_c, 0, 53, 0
2, 24933, Note_on_c, 0, 59, 0
2, 24956, Note_on_c, 0, 83, 85
2, 24981, Note_on_c, 0, 83, 0
2, 24981, Note_on_c, 0, 81, 60
2, 25019, Note_on_c, 0, 83, 70
2, 25023, Note_on_c, 0, 81, 0
2, 25044, Control_c, 0, 64, 63
2, 25048, Control_c, 0, 64, 0
2, 25054, Note_on_c, 0, 81, 82
2, 25056, Note_on_c, 0, 61, 77
2, 25059, Note_on_c, 0, 68, 65
2, 25061, Note_on_c, 0, 83, 0
2, 25080, Note_on_c, 0, 68, 0
2, 25108, Note_on_c, 0, 81, 0
2, 25112, Note_on_c, 0, 61, 0
2, 25123, Note_on_c, 0, 80, 97
2, 25177, Note_on_c, 0, 80, 0
2, 25184, Note_on_c, 0, 81, 100
2, 25184, Note_on_c, 0, 54, 76
2, 25188, Control_c, 0, 64, 127
2, 25189, Note_on_c, 0, 57, 65
2, 25211, Note_on_c, 0, 54, 0
2, 25237, Note_on_c, 0, 57, 0
2, 25336, Control_c, 0, 64, 63
2, 25341, Control_c, 0, 64, 0
2, 25343, Note_on_c, 0, 66, 85
2, 25344, Note_on_c, 0, 81, 0
2, 25351, Note_on_c, 0, 61, 80
2, 25351, Note_on_c, 0, 78, 94
2, 25361, Note_on_c, 0, 66, 0
2, 25369, Note_on_c, 0, 61, 0
2, 25384, Note_on_c, 0, 78, 0
2, 25504, Note_on_c, 0, 54, 66
2, 25509, Note_on_c, 0, 80, 86
2, 25509, Note_on_c, 0, 47, 66
2, 25530, Control_c, 0, 64, 63
2, 25531, Control_c, 0, 64, 127
2, 25546, Note_on_c, 0, 47, 0
2, 25558, Note_on_c, 0, 54, 0
2, 25586, Note_on_c, 0, 78, 86
2, 25622, Note_on_c, 0, 80, 0
2, 25665, Note_on_c, 0, 76, 86
2, 25666, Note_on_c, 0, 57, 72
2, 25669, Control_c, 0, 64, 63
2, 25672, Note_on_c, 0, 78, 0
2, 25674, Control_c, 0, 64, 0
2, 25675, Note_on_c, 0, 63, 84
2, 25693, Note_on_c, 0, 63, 0
2, 25708, Note_on_c, 0, 57, 0
2, 25722, Note_on_c, 0, 76, 0
2, 25729, Note_on_c, 0, 75, 96
2, 25794, Note_on_c, 0, 75, 0
2, 25801, Note_on_c, 0, 76, 89
2, 25811, Note_on_c, 0, 52, 71
2, 25812, Note_on_c, 0, 47, 62
2, 25855, Note_on_c, 0, 47, 0
2, 25873, Control_c, 0, 64, 63
2, 25884, Note_on_c, 0, 52, 0
2, 25887, Control_c, 0, 64, 0
2, 25974, Note_on_c, 0, 61, 79
2, 25974, Note_on_c, 0, 73, 88
2, 25980, Note_on_c, 0, 56, 66
2, 25981, Note_on_c, 0, 76, 0
2, 25995, Note_on_c, 0, 61, 0
2, 26001, Note_on_c, 0, 56, 0
2, 26024, Note_on_c, 0, 73, 0
2, 26124, Note_on_c, 0, 51, 94
2, 26125, Note_on_c, 0, 47, 68
2, 26126, Note_on_c, 0, 75, 86
2, 26139, Control_c, 0, 64, 63
2, 26140, Control_c, 0, 64, 127
2, 26160, Note_on_c, 0, 47, 0
2, 26171, Note_on_c, 0, 73, 76
2, 26179, Note_on_c, 0, 51, 0
2, 26183, Note_on_c, 0, 75, 0
2, 26194, Note_on_c, 0, 71, 65
2, 26224, Note_on_c, 0, 73, 0
2, 26312, Note_on_c, 0, 54, 67
2, 26320, Note_on_c, 0, 59, 51
2, 26346, Note_on_c, 0, 71, 0
2, 26348, Note_on_c, 0, 59, 0
2, 26368, Note_on_c, 0, 54, 0
2, 26490, Note_on_c, 0, 68, 83
2, 26491, Note_on_c, 0, 47, 50
2, 26495, Note_on_c, 0, 52, 70
2, 26498, Control_c, 0, 64, 63
2, 26504, Control_c, 0, 64, 0
2, 26518, Note_on_c, 0, 47, 0
2, 26529, Note_on_c, 0, 52, 0
2, 26559, Note_on_c, 0, 70, 89
2, 26568, Note_on_c, 0, 68, 0
2, 26628, Note_on_c, 0, 70, 0
2, 26633, Note_on_c, 0, 71, 84
2, 26639, Note_on_c, 0, 56, 78
2, 26642, Note_on_c, 0, 59, 68
2, 26670, Note_on_c, 0, 56, 0
2, 26683, Note_on_c, 0, 59, 0
2, 26699, Note_on_c, 0, 71, 0
2, 26701, Note_on_c, 0, 73, 91
2, 26768, Note_on_c, 0, 75, 101
2, 26769, Note_on_c, 0, 51, 83
2, 26778, Note_on_c, 0, 47, 51
2, 26784, Note_on_c, 0, 73, 0
2, 26814, Note_on_c, 0, 47, 0
2, 26819, Note_on_c, 0, 51, 0
2, 26836, Note_on_c, 0, 76, 97
2, 26841, Note_on_c, 0, 75, 0
2, 26917, Note_on_c, 0, 78, 105
2, 26919, Note_on_c, 0, 76, 0
2, 26920, Note_on_c, 0, 54, 87
2, 26927, Note_on_c, 0, 59, 62
2, 26950, Note_on_c, 0, 59, 0
2, 26963, Note_on_c, 0, 54, 0
2, 26977, Note_on_c, 0, 80, 105
2, 26996, Note_on_c, 0, 78, 0
2, 27046, Note_on_c, 0, 82, 100
2, 27047, Note_on_c, 0, 49, 91
2, 27051, Note_on_c, 0, 47, 78
2, 27066, Note_on_c, 0, 80, 0
2, 27094, Note_on_c, 0, 47, 0
2, 27102, Note_on_c, 0, 82, 0
2, 27115, Note_on_c, 0, 83, 96
2, 27117, Note_on_c, 0, 49, 0
2, 27195, Note_on_c, 0, 85, 103
2, 27199, Note_on_c, 0, 83, 0
2, 27205, Note_on_c, 0, 52, 49
2, 27206, Note_on_c, 0, 58, 50
2, 27232, Note_on_c, 0, 58, 0
2, 27236, Note_on_c, 0, 52, 0
2, 27253, Note_on_c, 0, 87, 96
2, 27266, Note_on_c, 0, 85, 0
2, 27298, Note_on_c, 0, 87, 0
2, 27328, Note_on_c, 0, 87, 85
2, 27335, Note_on_c, 0, 51, 84
2, 27337, Note_on_c, 0, 47, 73
2, 27351, Note_on_c, 0, 83, 93
2, 27359, Control_c, 0, 64, 63
2, 27360, Control_c, 0, 64, 127
2, 27366, Note_on_c, 0, 87, 0
2, 27377, Note_on_c, 0, 47, 0
2, 27384, Note_on_c, 0, 51, 0
2, 27389, Note_on_c, 0, 83, 0
2, 27497, Note_on_c, 0, 71, 92
2, 27500, Note_on_c, 0, 54, 76
2, 27507, Note_on_c, 0, 59, 52
2, 27522, Note_on_c, 0, 71, 0
2, 27533, Note_on_c, 0, 59, 0
2, 27543, Control_c, 0, 67, 127
2, 27550, Note_on_c, 0, 54, 0
2, 27623, Control_c, 0, 64, 63
2, 27628, Control_c, 0, 64, 0
2, 27640, Note_on_c, 0, 47, 75
2, 27645, Note_on_c, 0, 52, 76
2, 27656, Note_on_c, 0, 68, 67
2, 27682, Note_on_c, 0, 47, 0
2, 27687, Note_on_c, 0, 52, 0
2, 27707, Note_on_c, 0, 70, 88
2, 27720, Note_on_c, 0, 68, 0
2, 27778, Note_on_c, 0, 70, 0
2, 27785, Note_on_c, 0, 71, 85
2, 27793, Note_on_c, 0, 56, 83
2, 27798, Note_on_c, 0, 59, 64
2, 27816, Note_on_c, 0, 56, 0
2, 27823, Note_on_c, 0, 59, 0
2, 27848, Note_on_c, 0, 73, 96
2, 27851, Note_on_c, 0, 71, 0
2, 27915, Note_on_c, 0, 75, 100
2, 27920, Note_on_c, 0, 51, 98
2, 27923, Note_on_c, 0, 47, 69
2, 27932, Note_on_c, 0, 73, 0
2, 27946, Note_on_c, 0, 47, 0
2, 27959, Note_on_c, 0, 51, 0
2, 27974, Note_on_c, 0, 76, 96
2, 27980, Note_on_c, 0, 75, 0
2, 28053, Note_on_c, 0, 78, 112
2, 28059, Note_on_c, 0, 54, 88
2, 28064, Note_on_c, 0, 59, 65
2, 28070, Note_on_c, 0, 76, 0
2, 28090, Note_on_c, 0, 59, 0
2, 28100, Note_on_c, 0, 54, 0
2, 28117, Note_on_c, 0, 80, 106
2, 28143, Note_on_c, 0, 78, 0
2, 28186, Note_on_c, 0, 82, 104
2, 28188, Note_on_c, 0, 49, 94
2, 28193, Note_on_c, 0, 47, 76
2, 28214, Note_on_c, 0, 80, 0
2, 28236, Note_on_c, 0, 47, 0
2, 28251, Note_on_c, 0, 82, 0
2, 28252, Note_on_c, 0, 83, 103
2, 28255, Note_on_c, 0, 49, 0
2, 28328, Note_on_c, 0, 85, 110
2, 28338, Note_on_c, 0, 52, 69
2, 28342, Note_on_c, 0, 58, 68
2, 28343, Note_on_c, 0, 83, 0
2, 28370, Note_on_c, 0, 52, 0
2, 28375, Note_on_c, 0, 58, 0
2, 28387, Note_on_c, 0, 87, 101
2, 28399, Note_on_c, 0, 85, 0
2, 28441, Note_on_c, 0, 87, 0
2, 28481, Note_on_c, 0, 87, 48
2, 28486, Note_on_c, 0, 51, 76
2, 28493, Note_on_c, 0, 47, 54
2, 28503, Note_on_c, 0, 54, 84
2, 28507, Note_on_c, 0, 83, 78
2, 28511, Note_on_c, 0, 59, 58
2, 28520, Control_c, 0, 64, 63
2, 28522, Control_c, 0, 64, 127
2, 28531, Note_on_c, 0, 87, 0
2, 28545, Note_on_c, 0, 54, 0
2, 28552, Note_on_c, 0, 51, 0
2, 28553, Note_on_c, 0, 83, 0
2, 28554, Note_on_c, 0, 47, 0
2, 28563, Note_on_c, 0, 59, 0
2, 28699, Note_on_c, 0, 71, 68
2, 28744, Note_on_c, 0, 71, 0
2, 28854, Control_c, 0, 64, 63
2, 28858, Control_c, 0, 64, 0
2, 29208, Note_on_c, 0, 87, 65
2, 29244, Note_on_c, 0, 83, 55
2, 29290, Note_on_c, 0, 87, 0
2, 29356, Note_on_c, 0, 83, 0
2, 29426, Note_on_c, 0, 71, 49
2, 29520, Note_on_c, 0, 71, 0
2, 31600, Control_c, 0, 64, 63
2, 31601, Control_c, 0, 64, 127
2, 31613, Note_on_c, 0, 99, 68
2, 31618, Note_on_c, 0, 95, 63
2, 31621, Note_on_c, 0, 83, 47
2, 31702, Note_on_c, 0, 83, 0
2, 31703, Note_on_c, 0, 95, 0
2, 31713, Note_on_c, 0, 99, 0
2, 31725, Note_on_c, 0, 87, 58
2, 31728, Note_on_c, 0, 90, 63
2, 31780, Note_on_c, 0, 90, 0
2, 31784, Note_on_c, 0, 87, 0
2, 31806, Note_on_c, 0, 95, 71
2, 31810, Note_on_c, 0, 92, 65
2, 31811, Control_c, 0, 64, 63
2, 31814, Control_c, 0, 64, 0
2, 31815, Note_on_c, 0, 88, 54
2, 31831, Note_on_c, 0, 92, 0
2, 31841, Note_on_c, 0, 95, 0
2, 31842, Note_on_c, 0, 88, 0
2, 31963, Control_c, 0, 64, 63
2, 31963, Control_c, 0, 64, 127
2, 31969, Note_on_c, 0, 97, 81
2, 31972, Note_on_c, 0, 93, 70
2, 31983, Note_on_c, 0, 81, 46
2, 32025, Note_on_c, 0, 81, 0
2, 32026, Note_on_c, 0, 93, 0
2, 32045, Note_on_c, 0, 97, 0
2, 32047, Note_on_c, 0, 88, 53
2, 32049, Note_on_c, 0, 85, 61
2, 32083, Note_on_c, 0, 88, 0
2, 32090, Note_on_c, 0, 85, 0
2, 32101, Control_c, 0, 64, 63
2, 32105, Control_c, 0, 64, 0
2, 32116, Note_on_c, 0, 93, 79
2, 32117, Note_on_c, 0, 90, 84
2, 32120, Note_on_c, 0, 87, 80
2, 32141, Note_on_c, 0, 90, 0
2, 32145, Note_on_c, 0, 93, 0
2, 32146, Note_on_c, 0, 87, 0
2, 32273, Note_on_c, 0, 95, 85
2, 32274, Control_c, 0, 64, 63
2, 32275, Note_on_c, 0, 80, 80
2, 32276, Control_c, 0, 64, 127
2, 32278, Note_on_c, 0, 92, 78
2, 32339, Note_on_c, 0, 92, 0
2, 32342, Note_on_c, 0, 87, 76
2, 32343, Note_on_c, 0, 80, 0
2, 32345, Note_on_c, 0, 95, 0
2, 32347, Note_on_c, 0, 83, 63
2, 32393, Note_on_c, 0, 87, 0
2, 32408, Note_on_c, 0, 83, 0
2, 32414, Control_c, 0, 64, 63
2, 32416, Note_on_c, 0, 92, 89
2, 32418, Control_c, 0, 64, 0
2, 32419, Note_on_c, 0, 85, 92
2, 32419, Note_on_c, 0, 88, 81
2, 32443, Note_on_c, 0, 88, 0
2, 32450, Note_on_c, 0, 85, 0
2, 32463, Note_on_c, 0, 92, 0
2, 32567, Note_on_c, 0, 93, 84
2, 32568, Note_on_c, 0, 78, 95
2, 32570, Note_on_c, 0, 90, 86
2, 32577, Control_c, 0, 64, 63
2, 32577, Control_c, 0, 64, 127
2, 32625, Note_on_c, 0, 85, 86
2, 32631, Note_on_c, 0, 81, 77
2, 32646, Note_on_c, 0, 90, 0
2, 32655, Note_on_c, 0, 93, 0
2, 32657, Note_on_c, 0, 78, 0
2, 32675, Note_on_c, 0, 85, 0
2, 32700, Control_c, 0, 64, 63
2, 32704, Control_c, 0, 64, 0
2, 32704, Note_on_c, 0, 83, 88
2, 32705, Note_on_c, 0, 90, 96
2, 32705, Note_on_c, 0, 87, 101
2, 32710, Note_on_c, 0, 81, 0
2, 32739, Note_on_c, 0, 87, 0
2, 32742, Note_on_c, 0, 83, 0
2, 32748, Note_on_c, 0, 90, 0
2, 32856, Note_on_c, 0, 76, 106
2, 32861, Note_on_c, 0, 92, 101
2, 32861, Note_on_c, 0, 88, 94
2, 32865, Control_c, 0, 64, 63
2, 32866, Control_c, 0, 64, 127
2, 32921, Note_on_c, 0, 83, 87
2, 32923, Note_on_c, 0, 80, 89
2, 32927, Note_on_c, 0, 88, 0
2, 32943, Note_on_c, 0, 92, 0
2, 32955, Note_on_c, 0, 76, 0
2, 32972, Note_on_c, 0, 83, 0
2, 32997, Note_on_c, 0, 81, 104
2, 32998, Note_on_c, 0, 88, 103
2, 32999, Note_on_c, 0, 85, 106
2, 33001, Note_on_c, 0, 80, 0
2, 33009, Control_c, 0, 64, 63
2, 33022, Control_c, 0, 64, 0
2, 33031, Note_on_c, 0, 85, 0
2, 33040, Note_on_c, 0, 88, 0
2, 33044, Note_on_c, 0, 81, 0
2, 33144, Control_c, 0, 64, 63
2, 33150, Control_c, 0, 64, 127
2, 33154, Note_on_c, 0, 75, 109
2, 33156, Note_on_c, 0, 90, 105
2, 33159, Note_on_c, 0, 87, 100
2, 33208, Note_on_c, 0, 78, 93
2, 33219, Note_on_c, 0, 81, 90
2, 33230, Note_on_c, 0, 87, 0
2, 33231, Note_on_c, 0, 90, 0
2, 33237, Note_on_c, 0, 75, 0
2, 33279, Note_on_c, 0, 81, 0
2, 33294, Control_c, 0, 64, 63
2, 33297, Note_on_c, 0, 80, 112
2, 33298, Control_c, 0, 64, 0
2, 33301, Note_on_c, 0, 87, 109
2, 33302, Note_on_c, 0, 83, 101
2, 33306, Note_on_c, 0, 78, 0
2, 33334, Note_on_c, 0, 83, 0
2, 33340, Note_on_c, 0, 80, 0
2, 33347, Note_on_c, 0, 87, 0
2, 33471, Note_on_c, 0, 73, 113
2, 33472, Note_on_c, 0, 85, 110
2, 33473, Note_on_c, 0, 88, 108
2, 33479, Control_c, 0, 64, 63
2, 33480, Control_c, 0, 64, 127
2, 33536, Note_on_c, 0, 88, 0
2, 33542, Note_on_c, 0, 76, 103
2, 33548, Note_on_c, 0, 80, 104
2, 33550, Note_on_c, 0, 85, 0
2, 33569, Note_on_c, 0, 73, 0
2, 33589, Note_on_c, 0, 80, 0
2, 33625, Note_on_c, 0, 85, 101
2, 33625, Note_on_c, 0, 81, 99
2, 33628, Note_on_c, 0, 78, 120
2, 33640, Control_c, 0, 64, 63
2, 33644, Control_c, 0, 64, 0
2, 33654, Note_on_c, 0, 76, 0
2, 33664, Note_on_c, 0, 81, 0
2, 33670, Note_on_c, 0, 78, 0
2, 33684, Note_on_c, 0, 85, 0
2, 33821, Note_on_c, 0, 87, 110
2, 33823, Note_on_c, 0, 83, 102
2, 33826, Note_on_c, 0, 71, 117
2, 33827, Control_c, 0, 64, 127
2, 33859, Note_on_c, 0, 83, 0
2, 33860, Note_on_c, 0, 87, 0
2, 33864, Note_on_c, 0, 71, 0
2, 33921, Control_c, 0, 67, 0
2, 34076, Control_c, 0, 64, 63
2, 34080, Control_c, 0, 64, 0
2, 34087, Note_on_c, 0, 71, 111
2, 34333, Note_on_c, 0, 71, 0
2, 34333, Note_on_c, 0, 52, 94
2, 34336, Note_on_c, 0, 64, 90
2, 34336, Note_on_c, 0, 56, 101
2, 34339, Note_on_c, 0, 83, 101
2, 34364, Note_on_c, 0, 52, 0
2, 34369, Note_on_c, 0, 56, 0
2, 34371, Note_on_c, 0, 64, 0
2, 34373, Note_on_c, 0, 83, 0
2, 34533, Note_on_c, 0, 68, 104
2, 34533, Note_on_c, 0, 76, 111
2, 34536, Note_on_c, 0, 59, 89
2, 34557, Note_on_c, 0, 59, 0
2, 34559, Note_on_c, 0, 68, 0
2, 34561, Note_on_c, 0, 76, 0
2, 34711, Note_on_c, 0, 56, 85
2, 34711, Note_on_c, 0, 52, 82
2, 34712, Note_on_c, 0, 64, 84
2, 34719, Note_on_c, 0, 80, 110
2, 34736, Control_c, 0, 64, 63
2, 34736, Control_c, 0, 64, 127
2, 34749, Note_on_c, 0, 52, 0
2, 34752, Note_on_c, 0, 56, 0
2, 34763, Note_on_c, 0, 64, 0
2, 34886, Note_on_c, 0, 68, 104
2, 34889, Note_on_c, 0, 59, 90
2, 34910, Note_on_c, 0, 59, 0
2, 34912, Note_on_c, 0, 68, 0
2, 35037, Note_on_c, 0, 80, 0
2, 35038, Note_on_c, 0, 52, 97
2, 35041, Note_on_c, 0, 57, 92
2, 35043, Control_c, 0, 64, 63
2, 35046, Control_c, 0, 64, 0
2, 35046, Note_on_c, 0, 63, 103
2, 35073, Note_on_c, 0, 52, 0
2, 35074, Note_on_c, 0, 63, 0
2, 35074, Note_on_c, 0, 57, 0
2, 35109, Note_on_c, 0, 78, 84
2, 35128, Note_on_c, 0, 80, 95
2, 35141, Note_on_c, 0, 78, 0
2, 35164, Note_on_c, 0, 78, 97
2, 35186, Note_on_c, 0, 80, 0
2, 35192, Note_on_c, 0, 66, 94
2, 35200, Note_on_c, 0, 59, 72
2, 35211, Note_on_c, 0, 75, 109
2, 35225, Note_on_c, 0, 59, 0
2, 35231, Note_on_c, 0, 66, 0
2, 35236, Note_on_c, 0, 78, 0
2, 35276, Note_on_c, 0, 75, 0
2, 35282, Note_on_c, 0, 71, 99
2, 35326, Note_on_c, 0, 71, 0
2, 35347, Note_on_c, 0, 56, 88
2, 35349, Note_on_c, 0, 52, 75
2, 35353, Control_c, 0, 64, 127
2, 35354, Note_on_c, 0, 64, 92
2, 35356, Note_on_c, 0, 76, 108
2, 35387, Note_on_c, 0, 52, 0
2, 35389, Note_on_c, 0, 76, 0
2, 35406, Note_on_c, 0, 64, 0
2, 35408, Note_on_c, 0, 56, 0
2, 35499, Control_c, 0, 64, 63
2, 35502, Control_c, 0, 64, 0
2, 35515, Note_on_c, 0, 68, 87
2, 35516, Note_on_c, 0, 59, 70
2, 35517, Note_on_c, 0, 80, 106
2, 35533, Note_on_c, 0, 68, 0
2, 35545, Note_on_c, 0, 59, 0
2, 35551, Note_on_c, 0, 80, 0
2, 35575, Note_on_c, 0, 81, 97
2, 35631, Note_on_c, 0, 81, 0
2, 35660, Note_on_c, 0, 52, 71
2, 35660, Note_on_c, 0, 56, 91
2, 35668, Note_on_c, 0, 64, 79
2, 35671, Note_on_c, 0, 82, 107
2, 35691, Note_on_c, 0, 52, 0
2, 35708, Note_on_c, 0, 56, 0
2, 35710, Note_on_c, 0, 64, 0
2, 35714, Note_on_c, 0, 82, 0
2, 35726, Note_on_c, 0, 83, 82
2, 35797, Note_on_c, 0, 83, 0
2, 35813, Note_on_c, 0, 59, 80
2, 35814, Note_on_c, 0, 85, 109
2, 35814, Note_on_c, 0, 68, 96
2, 35836, Note_on_c, 0, 68, 0
2, 35840, Note_on_c, 0, 59, 0
2, 35876, Note_on_c, 0, 87, 107
2, 35889, Note_on_c, 0, 85, 0
2, 35927, Note_on_c, 0, 87, 0
2, 35950, Note_on_c, 0, 52, 63
2, 35950, Note_on_c, 0, 56, 91
2, 35955, Note_on_c, 0, 88, 108
2, 35960, Note_on_c, 0, 64, 81
2, 35979, Control_c, 0, 64, 63
2, 35979, Control_c, 0, 64, 127
2, 35983, Note_on_c, 0, 64, 0
2, 35984, Note_on_c, 0, 52, 0
2, 35996, Note_on_c, 0, 56, 0
2, 36002, Note_on_c, 0, 88, 0
2, 36023, Note_on_c, 0, 90, 109
2, 36060, Note_on_c, 0, 90, 0
2, 36103, Note_on_c, 0, 68, 106
2, 36104, Note_on_c, 0, 93, 116
2, 36107, Note_on_c, 0, 59, 76
2, 36127, Note_on_c, 0, 68, 0
2, 36129, Note_on_c, 0, 59, 0
2, 36141, Note_on_c, 0, 93, 0
2, 36232, Note_on_c, 0, 92, 103
2, 36252, Note_on_c, 0, 92, 0
2, 36257, Control_c, 0, 64, 63
2, 36263, Control_c, 0, 64, 0
2, 36271, Note_on_c, 0, 54, 103
2, 36275, Note_on_c, 0, 47, 74
2, 36278, Note_on_c, 0, 59, 80
2, 36282, Note_on_c, 0, 92, 106
2, 36289, Note_on_c, 0, 90, 104
2, 36295, Note_on_c, 0, 47, 0
2, 36302, Note_on_c, 0, 54, 0
2, 36307, Note_on_c, 0, 59, 0
2, 36329, Note_on_c, 0, 92, 0
2, 36358, Note_on_c, 0, 89, 101
2, 36371, Note_on_c, 0, 90, 0
2, 36435, Note_on_c, 0, 90, 113
2, 36438, Note_on_c, 0, 63, 97
2, 36445, Note_on_c, 0, 54, 88
2, 36449, Note_on_c, 0, 89, 0
2, 36462, Note_on_c, 0, 54, 0
2, 36465, Note_on_c, 0, 63, 0
2, 36481, Note_on_c, 0, 92, 110
2, 36494, Note_on_c, 0, 90, 0
2, 36552, Note_on_c, 0, 90, 99
2, 36564, Note_on_c, 0, 92, 0
2, 36579, Note_on_c, 0, 54, 107
2, 36581, Note_on_c, 0, 47, 81
2, 36585, Note_on_c, 0, 59, 93
2, 36586, Note_on_c, 0, 95, 113
2, 36593, Control_c, 0, 64, 127
2, 36597, Note_on_c, 0, 90, 0
2, 36599, Note_on_c, 0, 47, 0
2, 36607, Note_on_c, 0, 54, 0
2, 36613, Note_on_c, 0, 59, 0
2, 36616, Note_on_c, 0, 95, 0
2, 36776, Note_on_c, 0, 71, 116
2, 36782, Note_on_c, 0, 63, 94
2, 36784, Note_on_c, 0, 54, 89
2, 36804, Note_on_c, 0, 63, 0
2, 36808, Note_on_c, 0, 71, 0
2, 36817, Note_on_c, 0, 54, 0
2, 36926, Note_on_c, 0, 52, 90
2, 36929, Note_on_c, 0, 56, 96
2, 36932, Note_on_c, 0, 64, 86
2, 36932, Note_on_c, 0, 83, 109
2, 36933, Note_on_c, 0, 59, 82
2, 36934, Control_c, 0, 64, 63
2, 36939, Control_c, 0, 64, 0
2, 36953, Note_on_c, 0, 59, 0
2, 36959, Note_on_c, 0, 52, 0
2, 36962, Note_on_c, 0, 56, 0
2, 36963, Note_on_c, 0, 64, 0
2, 36964, Note_on_c, 0, 83, 0
2, 37100, Note_on_c, 0, 68, 97
2, 37102, Note_on_c, 0, 76, 109
2, 37104, Note_on_c, 0, 59, 66
2, 37118, Note_on_c, 0, 68, 0
2, 37126, Note_on_c, 0, 59, 0
2, 37133, Note_on_c, 0, 76, 0
2, 37228, Note_on_c, 0, 50, 100
2, 37238, Note_on_c, 0, 56, 106
2, 37249, Control_c, 0, 64, 127
2, 37256, Note_on_c, 0, 80, 118
2, 37262, Note_on_c, 0, 50, 0
2, 37270, Note_on_c, 0, 64, 99
2, 37277, Note_on_c, 0, 56, 0
2, 37292, Note_on_c, 0, 64, 0
2, 37416, Note_on_c, 0, 68, 101
2, 37421, Note_on_c, 0, 59, 73
2, 37425, Control_c, 0, 64, 63
2, 37427, Control_c, 0, 64, 0
2, 37435, Note_on_c, 0, 68, 0
2, 37440, Note_on_c, 0, 59, 0
2, 37575, Control_c, 0, 64, 127
2, 37576, Note_on_c, 0, 49, 109
2, 37580, Note_on_c, 0, 56, 99
2, 37580, Note_on_c, 0, 61, 109
2, 37598, Note_on_c, 0, 56, 0
2, 37605, Note_on_c, 0, 61, 0
2, 37605, Note_on_c, 0, 49, 0
2, 37667, Note_on_c, 0, 80, 0
2, 37732, Note_on_c, 0, 59, 86
2, 37737, Note_on_c, 0, 65, 84
2, 37741, Note_on_c, 0, 75, 103
2, 37766, Note_on_c, 0, 65, 0
2, 37773, Note_on_c, 0, 59, 0
2, 37779, Control_c, 0, 64, 63
2, 37794, Control_c, 0, 64, 0
2, 37794, Note_on_c, 0, 77, 94
2, 37802, Note_on_c, 0, 75, 0
2, 37869, Control_c, 0, 64, 63
2, 37871, Note_on_c, 0, 57, 46
2, 37876, Control_c, 0, 64, 127
2, 37877, Note_on_c, 0, 54, 83
2, 37881, Note_on_c, 0, 66, 87
2, 37884, Note_on_c, 0, 78, 109
2, 37900, Note_on_c, 0, 77, 0
2, 37919, Note_on_c, 0, 54, 0
2, 37920, Note_on_c, 0, 66, 0
2, 37922, Note_on_c, 0, 78, 0
2, 37925, Note_on_c, 0, 57, 0
2, 38033, Note_on_c, 0, 69, 68
2, 38035, Note_on_c, 0, 61, 81
2, 38038, Note_on_c, 0, 73, 97
2, 38055, Note_on_c, 0, 69, 0
2, 38061, Note_on_c, 0, 61, 0
2, 38078, Control_c, 0, 64, 63
2, 38082, Note_on_c, 0, 73, 0
2, 38098, Control_c, 0, 64, 0
2, 38099, Note_on_c, 0, 81, 94
2, 38171, Control_c, 0, 64, 63
2, 38181, Control_c, 0, 64, 127
2, 38187, Note_on_c, 0, 49, 86
2, 38192, Note_on_c, 0, 56, 78
2, 38192, Note_on_c, 0, 61, 82
2, 38215, Note_on_c, 0, 49, 0
2, 38221, Note_on_c, 0, 56, 0
2, 38226, Note_on_c, 0, 61, 0
2, 38266, Note_on_c, 0, 81, 0
2, 38269, Note_on_c, 0, 80, 86
2, 38336, Note_on_c, 0, 59, 84
2, 38346, Note_on_c, 0, 65, 65
2, 38350, Note_on_c, 0, 75, 108
2, 38357, Note_on_c, 0, 80, 0
2, 38384, Note_on_c, 0, 65, 0
2, 38392, Note_on_c, 0, 59, 0
2, 38403, Control_c, 0, 64, 63
2, 38406, Note_on_c, 0, 75, 0
2, 38407, Note_on_c, 0, 77, 94
2, 38422, Control_c, 0, 64, 0
2, 38472, Note_on_c, 0, 78, 109
2, 38474, Note_on_c, 0, 57, 84
2, 38475, Note_on_c, 0, 54, 90
2, 38482, Note_on_c, 0, 66, 95
2, 38484, Control_c, 0, 64, 63
2, 38491, Note_on_c, 0, 77, 0
2, 38493, Control_c, 0, 64, 127
2, 38512, Note_on_c, 0, 66, 0
2, 38514, Note_on_c, 0, 54, 0
2, 38518, Note_on_c, 0, 57, 0
2, 38520, Note_on_c, 0, 78, 0
2, 38636, Note_on_c, 0, 80, 105
2, 38638, Note_on_c, 0, 69, 78
2, 38640, Note_on_c, 0, 61, 92
2, 38661, Note_on_c, 0, 69, 0
2, 38665, Note_on_c, 0, 61, 0
2, 38685, Note_on_c, 0, 80, 0
2, 38686, Control_c, 0, 64, 63
2, 38693, Note_on_c, 0, 81, 103
2, 38703, Control_c, 0, 64, 0
2, 38759, Note_on_c, 0, 81, 0
2, 38780, Note_on_c, 0, 52, 88
2, 38789, Control_c, 0, 64, 63
2, 38790, Note_on_c, 0, 59, 94
2, 38796, Control_c, 0, 64, 127
2, 38801, Note_on_c, 0, 64, 65
2, 38803, Note_on_c, 0, 82, 109
2, 38816, Note_on_c, 0, 52, 0
2, 38821, Note_on_c, 0, 59, 0
2, 38829, Note_on_c, 0, 64, 0
2, 38835, Note_on_c, 0, 85, 99
2, 38844, Note_on_c, 0, 82, 0
2, 38859, Note_on_c, 0, 83, 87
2, 38886, Note_on_c, 0, 85, 0
2, 38910, Note_on_c, 0, 83, 0
2, 38961, Note_on_c, 0, 68, 100
2, 38961, Note_on_c, 0, 78, 101
2, 38996, Note_on_c, 0, 68, 0
2, 39003, Note_on_c, 0, 78, 0
2, 39017, Note_on_c, 0, 80, 101
2, 39065, Note_on_c, 0, 80, 0
2, 39069, Control_c, 0, 64, 63
2, 39074, Control_c, 0, 64, 0
2, 39097, Note_on_c, 0, 81, 111
2, 39098, Note_on_c, 0, 61, 104
2, 39101, Note_on_c, 0, 57, 76
2, 39104, Note_on_c, 0, 69, 93
2, 39107, Note_on_c, 0, 64, 91
2, 39125, Note_on_c, 0, 57, 0
2, 39132, Note_on_c, 0, 64, 0
2, 39132, Control_c, 0, 64, 63
2, 39139, Control_c, 0, 64, 127
2, 39140, Note_on_c, 0, 69, 0
2, 39140, Note_on_c, 0, 61, 0
2, 39142, Note_on_c, 0, 81, 0
2, 39259, Note_on_c, 0, 73, 91
2, 39264, Note_on_c, 0, 85, 113
2, 39264, Note_on_c, 0, 64, 65
2, 39280, Note_on_c, 0, 73, 0
2, 39289, Note_on_c, 0, 64, 0
2, 39310, Note_on_c, 0, 87, 109
2, 39312, Control_c, 0, 64, 63
2, 39320, Control_c, 0, 64, 0
2, 39324, Note_on_c, 0, 85, 0
2, 39359, Note_on_c, 0, 87, 0
2, 39385, Note_on_c, 0, 88, 104
2, 39390, Note_on_c, 0, 58, 96
2, 39393, Control_c, 0, 64, 63
2, 39398, Note_on_c, 0, 64, 90
2, 39400, Control_c, 0, 64, 127
2, 39433, Note_on_c, 0, 58, 0
2, 39436, Note_on_c, 0, 64, 0
2, 39441, Note_on_c, 0, 90, 104
2, 39452, Note_on_c, 0, 88, 0
2, 39480, Note_on_c, 0, 88, 85
2, 39505, Note_on_c, 0, 90, 0
2, 39539, Note_on_c, 0, 87, 115
2, 39552, Control_c, 0, 64, 63
2, 39556, Note_on_c, 0, 73, 97
2, 39557, Control_c, 0, 64, 0
2, 39558, Note_on_c, 0, 88, 0
2, 39562, Note_on_c, 0, 66, 80
2, 39576, Note_on_c, 0, 87, 0
2, 39581, Note_on_c, 0, 66, 0
2, 39585, Note_on_c, 0, 73, 0
2, 39673, Note_on_c, 0, 85, 110
2, 39712, Note_on_c, 0, 83, 104
2, 39714, Note_on_c, 0, 63, 95
2, 39715, Note_on_c, 0, 59, 79
2, 39717, Note_on_c, 0, 85, 0
2, 39734, Control_c, 0, 64, 127
2, 39745, Note_on_c, 0, 59, 0
2, 39760, Note_on_c, 0, 63, 0
2, 39799, Note_on_c, 0, 83, 0
2, 39864, Note_on_c, 0, 66, 82
2, 39867, Note_on_c, 0, 85, 109
2, 39867, Note_on_c, 0, 71, 68
2, 39893, Note_on_c, 0, 71, 0
2, 39911, Note_on_c, 0, 85, 0
2, 39912, Control_c, 0, 64, 63
2, 39929, Note_on_c, 0, 87, 99
2, 39947, Note_on_c, 0, 66, 0
2, 39949, Control_c, 0, 64, 0
2, 39962, Note_on_c, 0, 87, 0
2, 39990, Note_on_c, 0, 58, 87
2, 40004, Control_c, 0, 64, 63
2, 40005, Note_on_c, 0, 64, 73
2, 40012, Control_c, 0, 64, 127
2, 40014, Note_on_c, 0, 88, 100
2, 40033, Note_on_c, 0, 58, 0
2, 40056, Note_on_c, 0, 64, 0
2, 40059, Note_on_c, 0, 90, 98
2, 40061, Note_on_c, 0, 88, 0
2, 40098, Note_on_c, 0, 88, 66
2, 40112, Note_on_c, 0, 90, 0
2, 40145, Note_on_c, 0, 87, 110
2, 40157, Note_on_c, 0, 73, 87
2, 40162, Note_on_c, 0, 66, 74
2, 40163, Note_on_c, 0, 88, 0
2, 40163, Control_c, 0, 64, 63
2, 40168, Control_c, 0, 64, 0
2, 40182, Note_on_c, 0, 66, 0
2, 40184, Note_on_c, 0, 87, 0
2, 40185, Note_on_c, 0, 73, 0
2, 40267, Note_on_c, 0, 85, 108
2, 40307, Note_on_c, 0, 63, 93
2, 40307, Note_on_c, 0, 59, 76
2, 40308, Note_on_c, 0, 83, 92
2, 40309, Note_on_c, 0, 85, 0
2, 40330, Control_c, 0, 64, 63
2, 40330, Control_c, 0, 64, 127
2, 40340, Note_on_c, 0, 59, 0
2, 40358, Note_on_c, 0, 63, 0
2, 40407, Note_on_c, 0, 83, 0
2, 40467, Note_on_c, 0, 68, 77
2, 40472, Note_on_c, 0, 85, 107
2, 40473, Note_on_c, 0, 71, 65
2, 40504, Note_on_c, 0, 71, 0
2, 40518, Note_on_c, 0, 85, 0
2, 40525, Note_on_c, 0, 68, 0
2, 40531, Note_on_c, 0, 87, 100
2, 40544, Control_c, 0, 64, 63
2, 40553, Control_c, 0, 64, 0
2, 40563, Note_on_c, 0, 87, 0
2, 40601, Note_on_c, 0, 61, 78
2, 40612, Note_on_c, 0, 64, 73
2, 40618, Control_c, 0, 64, 63
2, 40625, Note_on_c, 0, 85, 103
2, 40626, Control_c, 0, 64, 127
2, 40651, Note_on_c, 0, 61, 0
2, 40655, Note_on_c, 0, 64, 0
2, 40656, Note_on_c, 0, 87, 98
2, 40664, Note_on_c, 0, 85, 0
2, 40703, Note_on_c, 0, 87, 0
2, 40706, Note_on_c, 0, 85, 76
2, 40766, Note_on_c, 0, 85, 0
2, 40773, Note_on_c, 0, 83, 83
2, 40775, Note_on_c, 0, 70, 76
2, 40778, Note_on_c, 0, 73, 59
2, 40814, Note_on_c, 0, 73, 0
2, 40821, Note_on_c, 0, 70, 0
2, 40832, Note_on_c, 0, 83, 0
2, 40849, Note_on_c, 0, 82, 98
2, 40919, Note_on_c, 0, 68, 65
2, 40921, Note_on_c, 0, 63, 62
2, 40934, Note_on_c, 0, 80, 97
2, 40943, Note_on_c, 0, 82, 0
2, 40945, Control_c, 0, 64, 63
2, 40958, Control_c, 0, 64, 0
2, 41009, Control_c, 0, 64, 63
2, 41022, Control_c, 0, 64, 127
2, 41086, Note_on_c, 0, 80, 0
2, 41089, Note_on_c, 0, 82, 95
2, 41095, Note_on_c, 0, 75, 81
2, 41101, Note_on_c, 0, 71, 55
2, 41102, Note_on_c, 0, 63, 0
2, 41130, Note_on_c, 0, 68, 0
2, 41133, Note_on_c, 0, 71, 0
2, 41145, Note_on_c, 0, 75, 0
2, 41158, Note_on_c, 0, 83, 91
2, 41183, Note_on_c, 0, 82, 0
2, 41188, Note_on_c, 0, 68, 7
2, 41224, Note_on_c, 0, 68, 0
2, 41234, Control_c, 0, 64, 63
2, 41242, Note_on_c, 0, 63, 78
2, 41245, Note_on_c, 0, 83, 0
2, 41246, Note_on_c, 0, 70, 86
2, 41246, Control_c, 0, 64, 0
2, 41253, Note_on_c, 0, 82, 100
2, 41291, Control_c, 0, 64, 63
2, 41300, Note_on_c, 0, 83, 92
2, 41302, Control_c, 0, 64, 127
2, 41312, Note_on_c, 0, 82, 0
2, 41346, Note_on_c, 0, 82, 91
2, 41379, Note_on_c, 0, 83, 0
2, 41389, Note_on_c, 0, 80, 106
2, 41414, Note_on_c, 0, 73, 77
2, 41428, Note_on_c, 0, 82, 0
2, 41463, Note_on_c, 0, 79, 99
2, 41466, Note_on_c, 0, 70, 0
2, 41467, Control_c, 0, 64, 63
2, 41476, Note_on_c, 0, 80, 0
2, 41514, Control_c, 0, 64, 127
2, 41569, Note_on_c, 0, 69, 61
2, 41572, Note_on_c, 0, 78, 108
2, 41582, Note_on_c, 0, 63, 0
2, 41598, Note_on_c, 0, 79, 0
2, 41609, Control_c, 0, 64, 63
2, 41618, Control_c, 0, 64, 0
2, 41648, Control_c, 0, 64, 63
2, 41659, Control_c, 0, 64, 127
2, 41682, Note_on_c, 0, 73, 0
2, 41708, Note_on_c, 0, 78, 0
2, 41768, Note_on_c, 0, 71, 92
2, 41771, Note_on_c, 0, 80, 110
2, 41831, Note_on_c, 0, 80, 0
2, 41867, Note_on_c, 0, 81, 118
2, 41871, Note_on_c, 0, 69, 0
2, 41948, Control_c, 0, 64, 63
2, 41954, Control_c, 0, 64, 0
2, 41964, Note_on_c, 0, 81, 0
2, 41977, Note_on_c, 0, 80, 123
2, 41981, Note_on_c, 0, 64, 116
2, 41993, Control_c, 0, 64, 63
2, 42004, Control_c, 0, 64, 127
2, 42010, Note_on_c, 0, 71, 0
2, 42017, Note_on_c, 0, 80, 0
2, 42024, Note_on_c, 0, 64, 0
2, 42039, Control_c, 0, 64, 63
2, 42049, Control_c, 0, 64, 0
2, 42227, Note_on_c, 0, 76, 96
2, 42227, Note_on_c, 0, 90, 104
2, 42228, Note_on_c, 0, 66, 97
2, 42228, Note_on_c, 0, 73, 94
2, 42232, Note_on_c, 0, 82, 100
2, 42238, Control_c, 0, 64, 127
2, 42281, Note_on_c, 0, 76, 0
2, 42285, Note_on_c, 0, 66, 0
2, 42324, Note_on_c, 0, 73, 0
2, 42324, Note_on_c, 0, 90, 0
2, 42332, Note_on_c, 0, 88, 93
2, 42391, Note_on_c, 0, 82, 0
2, 42392, Note_on_c, 0, 88, 0
2, 42427, Note_on_c, 0, 75, 98
2, 42429, Note_on_c, 0, 87, 105
2, 42434, Note_on_c, 0, 71, 88
2, 42437, Note_on_c, 0, 83, 87
2, 42443, Control_c, 0, 64, 63
2, 42447, Control_c, 0, 64, 0
2, 42501, Note_on_c, 0, 71, 0
2, 42506, Note_on_c, 0, 78, 88
2, 42550, Note_on_c, 0, 78, 0
2, 42573, Note_on_c, 0, 83, 0
2, 42579, Note_on_c, 0, 87, 0
2, 42596, Note_on_c, 0, 88, 101
2, 42605, Note_on_c, 0, 80, 101
2, 42611, Control_c, 0, 64, 127
2, 42613, Note_on_c, 0, 64, 68
2, 42646, Note_on_c, 0, 88, 0
2, 42669, Note_on_c, 0, 75, 0
2, 42670, Note_on_c, 0, 87, 96
2, 42707, Note_on_c, 0, 80, 0
2, 42716, Note_on_c, 0, 87, 0
2, 42730, Note_on_c, 0, 64, 0
2, 42757, Note_on_c, 0, 81, 97
2, 42758, Note_on_c, 0, 73, 103
2, 42760, Control_c, 0, 64, 63
2, 42760, Note_on_c, 0, 85, 97
2, 42764, Note_on_c, 0, 69, 84
2, 42766, Control_c, 0, 64, 0
2, 42823, Note_on_c, 0, 76, 98
2, 42871, Note_on_c, 0, 76, 0
2, 42893, Note_on_c, 0, 81, 0
2, 42897, Note_on_c, 0, 85, 0
2, 42911, Note_on_c, 0, 87, 108
2, 42915, Control_c, 0, 64, 127
2, 42918, Note_on_c, 0, 78, 106
2, 42919, Note_on_c, 0, 63, 90
2, 42956, Note_on_c, 0, 78, 0
2, 42967, Note_on_c, 0, 69, 0
2, 42969, Note_on_c, 0, 87, 0
2, 42970, Note_on_c, 0, 73, 0
2, 42983, Note_on_c, 0, 78, 80
2, 42985, Note_on_c, 0, 85, 100
2, 42995, Note_on_c, 0, 63, 0
2, 43022, Note_on_c, 0, 78, 0
2, 43028, Note_on_c, 0, 85, 0
2, 43064, Note_on_c, 0, 83, 108
2, 43066, Note_on_c, 0, 80, 108
2, 43068, Note_on_c, 0, 71, 106
2, 43084, Control_c, 0, 64, 63
2, 43088, Control_c, 0, 64, 0
2, 43132, Note_on_c, 0, 75, 105
2, 43140, Note_on_c, 0, 68, 94
2, 43165, Note_on_c, 0, 80, 0
2, 43180, Note_on_c, 0, 75, 0
2, 43210, Note_on_c, 0, 83, 0
2, 43223, Note_on_c, 0, 85, 115
2, 43225, Note_on_c, 0, 82, 65
2, 43225, Note_on_c, 0, 61, 112
2, 43226, Control_c, 0, 64, 127
2, 43227, Note_on_c, 0, 76, 104
2, 43248, Note_on_c, 0, 82, 0
2, 43265, Note_on_c, 0, 85, 0
2, 43266, Note_on_c, 0, 76, 0
2, 43285, Note_on_c, 0, 71, 0
2, 43298, Note_on_c, 0, 83, 98
2, 43308, Note_on_c, 0, 68, 0
2, 43337, Note_on_c, 0, 83, 0
2, 43356, Note_on_c, 0, 61, 0
2, 43376, Note_on_c, 0, 81, 108
2, 43377, Note_on_c, 0, 69, 108
2, 43377, Note_on_c, 0, 78, 116
2, 43381, Note_on_c, 0, 66, 109
2, 43399, Control_c, 0, 64, 63
2, 43403, Control_c, 0, 64, 0
2, 43446, Note_on_c, 0, 73, 103
2, 43478, Note_on_c, 0, 78, 0
2, 43485, Note_on_c, 0, 73, 0
2, 43509, Note_on_c, 0, 66, 0
2, 43526, Note_on_c, 0, 81, 0
2, 43530, Note_on_c, 0, 83, 106
2, 43532, Note_on_c, 0, 75, 110
2, 43535, Note_on_c, 0, 60, 107
2, 43539, Control_c, 0, 64, 127
2, 43581, Note_on_c, 0, 75, 0
2, 43586, Note_on_c, 0, 83, 0
2, 43594, Note_on_c, 0, 69, 0
2, 43601, Note_on_c, 0, 81, 98
2, 43619, Note_on_c, 0, 60, 0
2, 43642, Note_on_c, 0, 81, 0
2, 43675, Note_on_c, 0, 80, 113
2, 43680, Note_on_c, 0, 76, 113
2, 43680, Note_on_c, 0, 68, 114
2, 43681, Note_on_c, 0, 61, 108
2, 43692, Control_c, 0, 64, 63
2, 43695, Control_c, 0, 64, 0
2, 43743, Note_on_c, 0, 73, 83
2, 43749, Note_on_c, 0, 68, 0
2, 43753, Note_on_c, 0, 64, 91
2, 43800, Note_on_c, 0, 76, 0
2, 43800, Note_on_c, 0, 80, 0
2, 43822, Note_on_c, 0, 73, 0
2, 43834, Note_on_c, 0, 81, 104
2, 43836, Note_on_c, 0, 71, 98
2, 43843, Note_on_c, 0, 56, 101
2, 43844, Control_c, 0, 64, 127
2, 43860, Note_on_c, 0, 61, 0
2, 43880, Note_on_c, 0, 81, 0
2, 43901, Note_on_c, 0, 80, 100
2, 43922, Note_on_c, 0, 56, 0
2, 43923, Control_c, 0, 64, 63
2, 43926, Control_c, 0, 64, 0
2, 43956, Note_on_c, 0, 80, 0
2, 43987, Note_on_c, 0, 57, 106
2, 43993, Note_on_c, 0, 78, 113
2, 44026, Note_on_c, 0, 71, 0
2, 44055, Note_on_c, 0, 73, 104
2, 44062, Note_on_c, 0, 57, 0
2, 44093, Note_on_c, 0, 78, 0
2, 44115, Note_on_c, 0, 73, 0
2, 44131, Note_on_c, 0, 80, 110
2, 44135, Note_on_c, 0, 71, 101
2, 44136, Note_on_c, 0, 59, 98
2, 44139, Note_on_c, 0, 63, 95
2, 44146, Note_on_c, 0, 64, 0
2, 44160, Note_on_c, 0, 63, 0
2, 44166, Note_on_c, 0, 71, 0
2, 44175, Note_on_c, 0, 59, 0
2, 44177, Note_on_c, 0, 80, 0
2, 44200, Note_on_c, 0, 78, 105
2, 44203, Note_on_c, 0, 69, 90
2, 44236, Note_on_c, 0, 69, 0
2, 44237, Note_on_c, 0, 78, 0
2, 44288, Note_on_c, 0, 76, 108
2, 44289, Note_on_c, 0, 68, 115
2, 44293, Note_on_c, 0, 64, 112
2, 44295, Note_on_c, 0, 52, 107
2, 44296, Control_c, 0, 64, 127
2, 44312, Note_on_c, 0, 64, 0
2, 44318, Note_on_c, 0, 68, 0
2, 44325, Note_on_c, 0, 76, 0
2, 44326, Note_on_c, 0, 52, 0
2, 44651, Control_c, 0, 64, 63
2, 44659, Control_c, 0, 64, 0
2, 57982, Control_c, 0, 64, 63
2, 57982, Control_c, 0, 64, 127
2, 57997, Note_on_c, 0, 99, 74
2, 57999, Note_on_c, 0, 83, 60
2, 58003, Note_on_c, 0, 95, 59
2, 58072, Note_on_c, 0, 95, 0
2, 58089, Note_on_c, 0, 83, 0
2, 58091, Note_on_c, 0, 87, 70
2, 58093, Note_on_c, 0, 90, 74
2, 58094, Note_on_c, 0, 99, 0
2, 58134, Note_on_c, 0, 90, 0
2, 58158, Note_on_c, 0, 92, 85
2, 58159, Note_on_c, 0, 95, 83
2, 58163, Note_on_c, 0, 87, 0
2, 58167, Note_on_c, 0, 88, 76
2, 58199, Note_on_c, 0, 95, 0
2, 58199, Note_on_c, 0, 92, 0
2, 58203, Note_on_c, 0, 88, 0
2, 58322, Note_on_c, 0, 97, 87
2, 58322, Note_on_c, 0, 93, 76
2, 58324, Note_on_c, 0, 81, 78
2, 58390, Note_on_c, 0, 93, 0
2, 58394, Note_on_c, 0, 97, 0
2, 58394, Note_on_c, 0, 85, 84
2, 58399, Note_on_c, 0, 88, 71
2, 58407, Note_on_c, 0, 81, 0
2, 58449, Note_on_c, 0, 88, 0
2, 58473, Note_on_c, 0, 85, 0
2, 58474, Note_on_c, 0, 93, 87
2, 58474, Note_on_c, 0, 87, 97
2, 58475, Note_on_c, 0, 90, 94
2, 58501, Note_on_c, 0, 90, 0
2, 58512, Note_on_c, 0, 87, 0
2, 58512, Note_on_c, 0, 93, 0
2, 58627, Note_on_c, 0, 80, 87
2, 58631, Note_on_c, 0, 95, 88
2, 58632, Note_on_c, 0, 92, 84
2, 58687, Note_on_c, 0, 92, 0
2, 58699, Note_on_c, 0, 87, 82
2, 58706, Note_on_c, 0, 83, 81
2, 58724, Note_on_c, 0, 95, 0
2, 58738, Note_on_c, 0, 87, 0
2, 58776, Note_on_c, 0, 88, 93
2, 58776, Note_on_c, 0, 92, 90
2, 58785, Note_on_c, 0, 85, 103
2, 58798, Note_on_c, 0, 83, 0
2, 58811, Note_on_c, 0, 88, 0
2, 58819, Note_on_c, 0, 80, 0
2, 58824, Note_on_c, 0, 92, 0
2, 58826, Note_on_c, 0, 85, 0
2, 58932, Note_on_c, 0, 78, 97
2, 58933, Note_on_c, 0, 93, 90
2, 58935, Note_on_c, 0, 90, 88
2, 59000, Note_on_c, 0, 85, 85
2, 59002, Note_on_c, 0, 90, 0
2, 59006, Note_on_c, 0, 81, 92
2, 59029, Note_on_c, 0, 93, 0
2, 59051, Note_on_c, 0, 85, 0
2, 59076, Note_on_c, 0, 87, 103
2, 59077, Note_on_c, 0, 90, 100
2, 59080, Note_on_c, 0, 83, 98
2, 59098, Note_on_c, 0, 81, 0
2, 59111, Note_on_c, 0, 87, 0
2, 59124, Note_on_c, 0, 78, 0
2, 59127, Note_on_c, 0, 90, 0
2, 59132, Note_on_c, 0, 83, 0
2, 59234, Note_on_c, 0, 76, 104
2, 59238, Note_on_c, 0, 92, 99
2, 59239, Control_c, 0, 64, 63
2, 59240, Note_on_c, 0, 88, 91
2, 59246, Control_c, 0, 64, 127
2, 59299, Note_on_c, 0, 80, 86
2, 59304, Note_on_c, 0, 88, 0
2, 59307, Note_on_c, 0, 92, 0
2, 59310, Note_on_c, 0, 83, 85
2, 59361, Note_on_c, 0, 83, 0
2, 59384, Note_on_c, 0, 85, 104
2, 59386, Note_on_c, 0, 88, 97
2, 59389, Note_on_c, 0, 81, 98
2, 59395, Note_on_c, 0, 76, 0
2, 59406, Note_on_c, 0, 80, 0
2, 59420, Note_on_c, 0, 85, 0
2, 59421, Note_on_c, 0, 88, 0
2, 59430, Note_on_c, 0, 81, 0
2, 59538, Note_on_c, 0, 75, 106
2, 59544, Note_on_c, 0, 90, 104
2, 59548, Note_on_c, 0, 87, 100
2, 59605, Note_on_c, 0, 78, 95
2, 59607, Note_on_c, 0, 81, 91
2, 59608, Note_on_c, 0, 87, 0
2, 59610, Note_on_c, 0, 90, 0
2, 59656, Note_on_c, 0, 81, 0
2, 59687, Note_on_c, 0, 83, 106
2, 59688, Note_on_c, 0, 87, 108
2, 59692, Note_on_c, 0, 80, 106
2, 59713, Note_on_c, 0, 78, 0
2, 59714, Note_on_c, 0, 75, 0
2, 59718, Note_on_c, 0, 83, 0
2, 59733, Note_on_c, 0, 80, 0
2, 59733, Note_on_c, 0, 87, 0
2, 59846, Control_c, 0, 64, 63
2, 59849, Note_on_c, 0, 85, 101
2, 59850, Note_on_c, 0, 73, 107
2, 59850, Note_on_c, 0, 88, 100
2, 59881, Control_c, 0, 64, 127
2, 59908, Note_on_c, 0, 76, 98
2, 59918, Note_on_c, 0, 85, 0
2, 59921, Note_on_c, 0, 80, 94
2, 59925, Note_on_c, 0, 88, 0
2, 59960, Note_on_c, 0, 80, 0
2, 60001, Note_on_c, 0, 85, 97
2, 60002, Note_on_c, 0, 81, 97
2, 60005, Note_on_c, 0, 78, 115
2, 60030, Note_on_c, 0, 76, 0
2, 60032, Note_on_c, 0, 73, 0
2, 60043, Note_on_c, 0, 81, 0
2, 60046, Note_on_c, 0, 78, 0
2, 60062, Note_on_c, 0, 85, 0
2, 60135, Control_c, 0, 64, 63
2, 60139, Control_c, 0, 64, 0
2, 60164, Note_on_c, 0, 83, 85
2, 60177, Note_on_c, 0, 87, 114
2, 60180, Note_on_c, 0, 71, 106
2, 60191, Control_c, 0, 64, 63
2, 60191, Control_c, 0, 64, 127
2, 60211, Note_on_c, 0, 83, 0
2, 60216, Note_on_c, 0, 87, 0
2, 60222, Note_on_c, 0, 71, 0
2, 60403, Note_on_c, 0, 71, 116
2, 60419, Control_c, 0, 64, 63
2, 60421, Control_c, 0, 64, 0
2, 60620, Note_on_c, 0, 71, 0
2, 60630, Note_on_c, 0, 52, 93
2, 60632, Note_on_c, 0, 56, 107
2, 60634, Control_c, 0, 64, 127
2, 60636, Note_on_c, 0, 64, 98
2, 60639, Note_on_c, 0, 83, 102
2, 60663, Note_on_c, 0, 83, 0
2, 60665, Note_on_c, 0, 52, 0
2, 60666, Note_on_c, 0, 56, 0
2, 60668, Note_on_c, 0, 64, 0
2, 60695, Control_c, 0, 64, 63
2, 60700, Control_c, 0, 64, 0
2, 60843, Note_on_c, 0, 76, 111
2, 60844, Note_on_c, 0, 68, 104
2, 60848, Note_on_c, 0, 59, 84
2, 60869, Note_on_c, 0, 59, 0
2, 60871, Note_on_c, 0, 68, 0
2, 60877, Note_on_c, 0, 76, 0
2, 61031, Note_on_c, 0, 56, 93
2, 61033, Control_c, 0, 64, 127
2, 61035, Note_on_c, 0, 52, 82
2, 61037, Note_on_c, 0, 64, 81
2, 61040, Note_on_c, 0, 80, 118
2, 61066, Note_on_c, 0, 52, 0
2, 61067, Note_on_c, 0, 56, 0
2, 61072, Note_on_c, 0, 64, 0
2, 61085, Note_on_c, 0, 80, 0
2, 61215, Note_on_c, 0, 68, 97
2, 61216, Note_on_c, 0, 59, 82
2, 61237, Note_on_c, 0, 59, 0
2, 61238, Note_on_c, 0, 68, 0
2, 61357, Note_on_c, 0, 52, 92
2, 61359, Note_on_c, 0, 57, 94
2, 61369, Note_on_c, 0, 63, 87
2, 61374, Control_c, 0, 64, 63
2, 61379, Control_c, 0, 64, 0
2, 61384, Note_on_c, 0, 63, 0
2, 61387, Note_on_c, 0, 52, 0
2, 61388, Note_on_c, 0, 57, 0
2, 61402, Note_on_c, 0, 78, 98
2, 61432, Note_on_c, 0, 80, 87
2, 61440, Note_on_c, 0, 78, 0
2, 61467, Note_on_c, 0, 78, 88
2, 61497, Note_on_c, 0, 80, 0
2, 61512, Note_on_c, 0, 75, 94
2, 61532, Note_on_c, 0, 59, 71
2, 61532, Note_on_c, 0, 66, 89
2, 61538, Note_on_c, 0, 78, 0
2, 61557, Note_on_c, 0, 59, 0
2, 61568, Note_on_c, 0, 66, 0
2, 61571, Note_on_c, 0, 71, 92
2, 61581, Note_on_c, 0, 75, 0
2, 61623, Note_on_c, 0, 71, 0
2, 61652, Note_on_c, 0, 52, 74
2, 61655, Note_on_c, 0, 56, 97
2, 61658, Note_on_c, 0, 76, 107
2, 61665, Note_on_c, 0, 64, 57
2, 61667, Control_c, 0, 64, 127
2, 61674, Note_on_c, 0, 52, 0
2, 61689, Note_on_c, 0, 64, 0
2, 61690, Note_on_c, 0, 76, 0
2, 61695, Note_on_c, 0, 56, 0
2, 61809, Control_c, 0, 64, 63
2, 61811, Note_on_c, 0, 59, 87
2, 61813, Control_c, 0, 64, 0
2, 61815, Note_on_c, 0, 68, 92
2, 61819, Note_on_c, 0, 80, 106
2, 61836, Note_on_c, 0, 68, 0
2, 61848, Note_on_c, 0, 59, 0
2, 61861, Note_on_c, 0, 80, 0
2, 61885, Note_on_c, 0, 81, 78
2, 61934, Note_on_c, 0, 81, 0
2, 61947, Note_on_c, 0, 52, 69
2, 61953, Note_on_c, 0, 56, 83
2, 61955, Control_c, 0, 64, 63
2, 61957, Control_c, 0, 64, 127
2, 61967, Note_on_c, 0, 64, 29
2, 61971, Note_on_c, 0, 82, 96
2, 61982, Note_on_c, 0, 52, 0
2, 61998, Note_on_c, 0, 64, 0
2, 62011, Note_on_c, 0, 56, 0
2, 62017, Note_on_c, 0, 82, 0
2, 62025, Note_on_c, 0, 83, 84
2, 62090, Control_c, 0, 64, 63
2, 62093, Control_c, 0, 64, 0
2, 62096, Note_on_c, 0, 83, 0
2, 62108, Note_on_c, 0, 68, 97
2, 62109, Note_on_c, 0, 59, 81
2, 62111, Note_on_c, 0, 85, 100
2, 62132, Note_on_c, 0, 68, 0
2, 62141, Note_on_c, 0, 59, 0
2, 62175, Note_on_c, 0, 87, 104
2, 62190, Note_on_c, 0, 85, 0
2, 62227, Note_on_c, 0, 87, 0
2, 62241, Note_on_c, 0, 52, 61
2, 62242, Note_on_c, 0, 56, 97
2, 62246, Note_on_c, 0, 88, 106
2, 62249, Note_on_c, 0, 64, 83
2, 62262, Control_c, 0, 64, 63
2, 62263, Note_on_c, 0, 52, 0
2, 62263, Control_c, 0, 64, 127
2, 62276, Note_on_c, 0, 64, 0
2, 62287, Note_on_c, 0, 56, 0
2, 62294, Note_on_c, 0, 88, 0
2, 62306, Note_on_c, 0, 90, 113
2, 62347, Note_on_c, 0, 90, 0
2, 62380, Note_on_c, 0, 68, 99
2, 62380, Note_on_c, 0, 59, 82
2, 62384, Note_on_c, 0, 93, 112
2, 62403, Note_on_c, 0, 68, 0
2, 62412, Note_on_c, 0, 59, 0
2, 62423, Note_on_c, 0, 93, 0
2, 62428, Control_c, 0, 64, 63
2, 62436, Control_c, 0, 64, 0
2, 62516, Note_on_c, 0, 92, 90
2, 62533, Note_on_c, 0, 92, 0
2, 62548, Note_on_c, 0, 47, 72
2, 62551, Note_on_c, 0, 54, 100
2, 62555, Control_c, 0, 64, 127
2, 62563, Note_on_c, 0, 59, 75
2, 62565, Note_on_c, 0, 92, 101
2, 62575, Note_on_c, 0, 47, 0
2, 62575, Note_on_c, 0, 90, 105
2, 62582, Note_on_c, 0, 54, 0
2, 62591, Note_on_c, 0, 59, 0
2, 62599, Note_on_c, 0, 92, 0
2, 62641, Note_on_c, 0, 89, 98
2, 62651, Note_on_c, 0, 90, 0
2, 62664, Control_c, 0, 64, 63
2, 62668, Control_c, 0, 64, 0
2, 62716, Note_on_c, 0, 90, 115
2, 62719, Note_on_c, 0, 63, 99
2, 62726, Note_on_c, 0, 54, 86
2, 62737, Note_on_c, 0, 89, 0
2, 62744, Note_on_c, 0, 54, 0
2, 62744, Note_on_c, 0, 63, 0
2, 62762, Note_on_c, 0, 92, 114
2, 62784, Note_on_c, 0, 90, 0
2, 62831, Note_on_c, 0, 90, 104
2, 62842, Note_on_c, 0, 47, 79
2, 62844, Note_on_c, 0, 92, 0
2, 62849, Control_c, 0, 64, 127
2, 62853, Note_on_c, 0, 54, 106
2, 62861, Note_on_c, 0, 95, 116
2, 62862, Note_on_c, 0, 59, 97
2, 62877, Note_on_c, 0, 90, 0
2, 62880, Note_on_c, 0, 47, 0
2, 62884, Note_on_c, 0, 54, 0
2, 62891, Note_on_c, 0, 95, 0
2, 62892, Note_on_c, 0, 59, 0
2, 63039, Note_on_c, 0, 71, 112
2, 63044, Note_on_c, 0, 54, 63
2, 63044, Note_on_c, 0, 63, 70
2, 63066, Note_on_c, 0, 71, 0
2, 63067, Note_on_c, 0, 63, 0
2, 63068, Note_on_c, 0, 54, 0
2, 63119, Control_c, 0, 64, 63
2, 63132, Control_c, 0, 64, 0
2, 63174, Note_on_c, 0, 52, 96
2, 63178, Note_on_c, 0, 56, 90
2, 63189, Note_on_c, 0, 95, 100
2, 63204, Note_on_c, 0, 64, 113
2, 63208, Control_c, 0, 64, 127
2, 63209, Note_on_c, 0, 83, 108
2, 63223, Note_on_c, 0, 95, 0
2, 63223, Note_on_c, 0, 52, 0
2, 63231, Note_on_c, 0, 56, 0
2, 63238, Note_on_c, 0, 64, 0
2, 63239, Note_on_c, 0, 83, 0
2, 63272, Control_c, 0, 64, 63
2, 63283, Control_c, 0, 64, 0
2, 63379, Note_on_c, 0, 76, 120
2, 63380, Note_on_c, 0, 68, 107
2, 63386, Note_on_c, 0, 59, 81
2, 63405, Note_on_c, 0, 59, 0
2, 63408, Note_on_c, 0, 76, 0
2, 63409, Note_on_c, 0, 68, 0
2, 63508, Control_c, 0, 64, 127
2, 63531, Note_on_c, 0, 95, 100
2, 63536, Note_on_c, 0, 52, 87
2, 63538, Note_on_c, 0, 56, 103
2, 63551, Note_on_c, 0, 64, 102
2, 63560, Note_on_c, 0, 95, 0
2, 63566, Note_on_c, 0, 80, 118
2, 63567, Note_on_c, 0, 52, 0
2, 63575, Note_on_c, 0, 56, 0
2, 63585, Note_on_c, 0, 64, 0
2, 63601, Note_on_c, 0, 80, 0
2, 63712, Note_on_c, 0, 68, 110
2, 63717, Note_on_c, 0, 59, 81
2, 63736, Note_on_c, 0, 59, 0
2, 63741, Note_on_c, 0, 68, 0
2, 63804, Control_c, 0, 64, 63
2, 63816, Control_c, 0, 64, 0
2, 63827, Note_on_c, 0, 95, 78
2, 63829, Control_c, 0, 64, 63
2, 63837, Note_on_c, 0, 52, 99
2, 63840, Control_c, 0, 64, 127
2, 63844, Note_on_c, 0, 95, 0
2, 63848, Note_on_c, 0, 57, 97
2, 63856, Note_on_c, 0, 80, 119
2, 63859, Note_on_c, 0, 63, 105
2, 63876, Note_on_c, 0, 52, 0
2, 63884, Note_on_c, 0, 57, 0
2, 63889, Note_on_c, 0, 80, 0
2, 63893, Note_on_c, 0, 63, 0
2, 63948, Note_on_c, 0, 78, 108
2, 63983, Control_c, 0, 64, 63
2, 63987, Control_c, 0, 64, 0
2, 64006, Note_on_c, 0, 66, 104
2, 64012, Note_on_c, 0, 75, 107
2, 64013, Note_on_c, 0, 59, 75
2, 64025, Note_on_c, 0, 78, 0
2, 64034, Note_on_c, 0, 59, 0
2, 64042, Note_on_c, 0, 66, 0
2, 64077, Note_on_c, 0, 71, 108
2, 64103, Note_on_c, 0, 75, 0
2, 64116, Note_on_c, 0, 71, 0
2, 64140, Note_on_c, 0, 56, 103
2, 64147, Note_on_c, 0, 52, 76
2, 64149, Note_on_c, 0, 64, 97
2, 64151, Note_on_c, 0, 83, 114
2, 64155, Note_on_c, 0, 76, 114
2, 64161, Control_c, 0, 64, 127
2, 64167, Note_on_c, 0, 52, 0
2, 64171, Note_on_c, 0, 64, 0
2, 64173, Note_on_c, 0, 56, 0
2, 64174, Note_on_c, 0, 76, 0
2, 64189, Note_on_c, 0, 83, 0
2, 64301, Note_on_c, 0, 80, 106
2, 64304, Note_on_c, 0, 68, 95
2, 64311, Note_on_c, 0, 59, 74
2, 64330, Note_on_c, 0, 68, 0
2, 64331, Note_on_c, 0, 59, 0
2, 64335, Control_c, 0, 64, 63
2, 64339, Control_c, 0, 64, 0
2, 64348, Note_on_c, 0, 80, 0
2, 64358, Note_on_c, 0, 81, 98
2, 64393, Note_on_c, 0, 81, 0
2, 64441, Note_on_c, 0, 83, 112
2, 64441, Note_on_c, 0, 95, 109
2, 64443, Note_on_c, 0, 56, 105
2, 64444, Note_on_c, 0, 52, 94
2, 64445, Note_on_c, 0, 64, 101
2, 64458, Control_c, 0, 64, 127
2, 64472, Note_on_c, 0, 52, 0
2, 64472, Note_on_c, 0, 83, 0
2, 64475, Note_on_c, 0, 95, 0
2, 64476, Note_on_c, 0, 56, 0
2, 64478, Note_on_c, 0, 64, 0
2, 64608, Note_on_c, 0, 85, 109
2, 64611, Note_on_c, 0, 68, 99
2, 64615, Note_on_c, 0, 59, 76
2, 64632, Control_c, 0, 64, 63
2, 64636, Note_on_c, 0, 59, 0
2, 64637, Control_c, 0, 64, 0
2, 64641, Note_on_c, 0, 68, 0
2, 64648, Note_on_c, 0, 85, 0
2, 64676, Note_on_c, 0, 87, 100
2, 64713, Note_on_c, 0, 87, 0
2, 64752, Note_on_c, 0, 56, 105
2, 64756, Note_on_c, 0, 52, 94
2, 64758, Note_on_c, 0, 64, 89
2, 64764, Note_on_c, 0, 88, 112
2, 64769, Note_on_c, 0, 95, 106
2, 64772, Control_c, 0, 64, 127
2, 64774, Note_on_c, 0, 52, 0
2, 64784, Note_on_c, 0, 64, 0
2, 64784, Note_on_c, 0, 56, 0
2, 64794, Note_on_c, 0, 88, 0
2, 64820, Note_on_c, 0, 90, 110
2, 64869, Note_on_c, 0, 90, 0
2, 64870, Note_on_c, 0, 95, 0
2, 64891, Control_c, 0, 64, 63
2, 64895, Control_c, 0, 64, 0
2, 64897, Note_on_c, 0, 95, 93
2, 64902, Note_on_c, 0, 68, 104
2, 64904, Note_on_c, 0, 59, 91
2, 64904, Note_on_c, 0, 93, 107
2, 64929, Note_on_c, 0, 59, 0
2, 64929, Note_on_c, 0, 68, 0
2, 64965, Note_on_c, 0, 92, 105
2, 64999, Note_on_c, 0, 93, 0
2, 65003, Note_on_c, 0, 95, 0
2, 65011, Note_on_c, 0, 92, 0
2, 65042, Note_on_c, 0, 54, 108
2, 65044, Note_on_c, 0, 47, 97
2, 65048, Note_on_c, 0, 95, 114
2, 65050, Note_on_c, 0, 59, 82
2, 65051, Control_c, 0, 64, 127
2, 65052, Note_on_c, 0, 90, 121
2, 65054, Note_on_c, 0, 92, 101
2, 65060, Note_on_c, 0, 47, 0
2, 65073, Note_on_c, 0, 92, 0
2, 65074, Note_on_c, 0, 54, 0
2, 65081, Note_on_c, 0, 59, 0
2, 65107, Note_on_c, 0, 90, 0
2, 65109, Note_on_c, 0, 89, 102
2, 65149, Control_c, 0, 64, 63
2, 65153, Control_c, 0, 64, 0
2, 65154, Note_on_c, 0, 95, 0
2, 65156, Note_on_c, 0, 89, 0
2, 65199, Note_on_c, 0, 90, 123
2, 65200, Note_on_c, 0, 95, 116
2, 65200, Note_on_c, 0, 63, 109
2, 65201, Note_on_c, 0, 57, 87
2, 65228, Note_on_c, 0, 57, 0
2, 65235, Note_on_c, 0, 63, 0
2, 65239, Note_on_c, 0, 90, 0
2, 65260, Note_on_c, 0, 92, 115
2, 65285, Note_on_c, 0, 95, 0
2, 65307, Note_on_c, 0, 92, 0
2, 65356, Note_on_c, 0, 56, 112
2, 65358, Note_on_c, 0, 100, 120
2, 65358, Note_on_c, 0, 64, 121
2, 65359, Note_on_c, 0, 52, 106
2, 65359, Note_on_c, 0, 59, 113
2, 65361, Note_on_c, 0, 88, 104
2, 65362, Control_c, 0, 64, 127
2, 65376, Note_on_c, 0, 88, 0
2, 65384, Note_on_c, 0, 100, 0
2, 65396, Note_on_c, 0, 56, 0
2, 65399, Note_on_c, 0, 64, 0
2, 65411, Note_on_c, 0, 59, 0
2, 65413, Note_on_c, 0, 52, 0
2, 65680, Control_c, 0, 64, 63
2, 65689, Control_c, 0, 64, 0
2, 77876, Control_c, 0, 64, 127
2, 77883, Note_on_c, 0, 68, 123
2, 77885, Note_on_c, 0, 64, 116
2, 77885, Note_on_c, 0, 56, 115
2, 77886, Note_on_c, 0, 80, 116
2, 77889, Note_on_c, 0, 52, 108
2, 77911, Note_on_c, 0, 64, 0
2, 77912, Note_on_c, 0, 52, 0
2, 77912, Note_on_c, 0, 68, 0
2, 77914, Note_on_c, 0, 56, 0
2, 77920, Note_on_c, 0, 80, 0
2, 78049, Note_on_c, 0, 78, 112
2, 78051, Note_on_c, 0, 72, 112
2, 78051, Note_on_c, 0, 80, 101
2, 78052, Note_on_c, 0, 84, 92
2, 78053, Note_on_c, 0, 63, 114
2, 78053, Note_on_c, 0, 56, 113
2, 78059, Note_on_c, 0, 51, 93
2, 78064, Note_on_c, 0, 72, 0
2, 78067, Note_on_c, 0, 63, 0
2, 78071, Note_on_c, 0, 84, 0
2, 78072, Control_c, 0, 64, 63
2, 78075, Control_c, 0, 64, 0
2, 78076, Note_on_c, 0, 80, 0
2, 78078, Note_on_c, 0, 78, 0
2, 78079, Note_on_c, 0, 51, 0
2, 78081, Note_on_c, 0, 56, 0
2, 78210, Note_on_c, 0, 85, 106
2, 78210, Note_on_c, 0, 76, 111
2, 78212, Note_on_c, 0, 61, 121
2, 78213, Note_on_c, 0, 49, 116
2, 78213, Note_on_c, 0, 56, 113
2, 78214, Note_on_c, 0, 80, 95
2, 78214, Note_on_c, 0, 73, 113
2, 78217, Control_c, 0, 64, 127
2, 78234, Note_on_c, 0, 80, 0
2, 78236, Note_on_c, 0, 61, 0
2, 78237, Note_on_c, 0, 85, 0
2, 78238, Note_on_c, 0, 56, 0
2, 78241, Note_on_c, 0, 73, 0
2, 78243, Note_on_c, 0, 76, 0
2, 78252, Note_on_c, 0, 49, 0
2, 78378, Note_on_c, 0, 61, 120
2, 78381, Note_on_c, 0, 49, 125
2, 78381, Note_on_c, 0, 37, 120
2, 78406, Note_on_c, 0, 37, 0
2, 78410, Note_on_c, 0, 61, 0
2, 78411, Note_on_c, 0, 49, 0
2, 78542, Note_on_c, 0, 52, 120
2, 78571, Control_c, 0, 64, 63
2, 78572, Control_c, 0, 64, 127
2, 78639, Note_on_c, 0, 56, 93
2, 78640, Note_on_c, 0, 64, 85
2, 78661, Note_on_c, 0, 52, 0
2, 78698, Note_on_c, 0, 64, 0
2, 78712, Note_on_c, 0, 56, 0
2, 78716, Note_on_c, 0, 68, 98
2, 78724, Note_on_c, 0, 61, 104
2, 78783, Note_on_c, 0, 68, 0
2, 78784, Note_on_c, 0, 72, 87
2, 78803, Note_on_c, 0, 63, 105
2, 78814, Note_on_c, 0, 61, 0
2, 78842, Note_on_c, 0, 63, 0
2, 78853, Note_on_c, 0, 73, 105
2, 78865, Note_on_c, 0, 72, 0
2, 78869, Note_on_c, 0, 64, 102
2, 78891, Note_on_c, 0, 73, 0
2, 78912, Note_on_c, 0, 64, 0
2, 78934, Note_on_c, 0, 68, 106
2, 78935, Note_on_c, 0, 76, 103
2, 78973, Note_on_c, 0, 68, 0
2, 78978, Note_on_c, 0, 76, 0
2, 79005, Note_on_c, 0, 73, 108
2, 79006, Note_on_c, 0, 80, 106
2, 79036, Note_on_c, 0, 73, 0
2, 79050, Note_on_c, 0, 80, 0
2, 79072, Note_on_c, 0, 84, 98
2, 79074, Note_on_c, 0, 75, 104
2, 79125, Note_on_c, 0, 75, 0
2, 79141, Note_on_c, 0, 84, 0
2, 79147, Note_on_c, 0, 85, 98
2, 79149, Note_on_c, 0, 76, 99
2, 79189, Note_on_c, 0, 85, 0
2, 79196, Note_on_c, 0, 76, 0
2, 79213, Note_on_c, 0, 80, 104
2, 79227, Note_on_c, 0, 88, 100
2, 79253, Note_on_c, 0, 80, 0
2, 79267, Note_on_c, 0, 88, 0
2, 79297, Note_on_c, 0, 85, 106
2, 79299, Note_on_c, 0, 92, 105
2, 79329, Note_on_c, 0, 85, 0
2, 79336, Note_on_c, 0, 92, 0
2, 79364, Note_on_c, 0, 87, 110
2, 79365, Note_on_c, 0, 96, 103
2, 79400, Note_on_c, 0, 87, 0
2, 79407, Note_on_c, 0, 96, 0
2, 79454, Note_on_c, 0, 88, 124
2, 79457, Note_on_c, 0, 97, 116
2, 79484, Note_on_c, 0, 88, 0
2, 79486, Note_on_c, 0, 97, 0
2, 79800, Control_c, 0, 64, 63
2, 79814, Control_c, 0, 64, 0
2, 80692, Note_on_c, 0, 80, 114
2, 80693, Note_on_c, 0, 85, 113
2, 80694, Note_on_c, 0, 76, 116
2, 80695, Note_on_c, 0, 61, 125
2, 80695, Note_on_c, 0, 49, 99
2, 80697, Note_on_c, 0, 56, 113
2, 80697, Note_on_c, 0, 88, 106
2, 80699, Note_on_c, 0, 52, 102
2, 80793, Control_c, 0, 64, 127
2, 80827, Note_on_c, 0, 88, 0
2, 80831, Note_on_c, 0, 76, 0
2, 80841, Note_on_c, 0, 85, 0
2, 80842, Note_on_c, 0, 49, 0
2, 80844, Note_on_c, 0, 80, 0
2, 80854, Note_on_c, 0, 52, 0
2, 80855, Note_on_c, 0, 56, 0
2, 80858, Note_on_c, 0, 61, 0
2, 81027, Note_on_c, 0, 49, 108
2, 81032, Note_on_c, 0, 64, 92
2, 81103, Note_on_c, 0, 68, 100
2, 81113, Control_c, 0, 64, 63
2, 81115, Note_on_c, 0, 52, 89
2, 81118, Control_c, 0, 64, 0
2, 81148, Note_on_c, 0, 64, 0
2, 81163, Control_c, 0, 64, 63
2, 81167, Control_c, 0, 64, 127
2, 81185, Note_on_c, 0, 73, 95
2, 81186, Note_on_c, 0, 56, 98
2, 81206, Note_on_c, 0, 49, 0
2, 81209, Note_on_c, 0, 68, 0
2, 81227, Note_on_c, 0, 52, 0
2, 81256, Note_on_c, 0, 60, 92
2, 81262, Note_on_c, 0, 75, 95
2, 81267, Note_on_c, 0, 56, 0
2, 81269, Note_on_c, 0, 73, 0
2, 81291, Note_on_c, 0, 60, 0
2, 81296, Note_on_c, 0, 75, 0
2, 81340, Note_on_c, 0, 76, 103
2, 81343, Note_on_c, 0, 61, 94
2, 81404, Note_on_c, 0, 76, 0
2, 81412, Note_on_c, 0, 80, 103
2, 81424, Note_on_c, 0, 64, 78
2, 81431, Note_on_c, 0, 61, 0
2, 81485, Note_on_c, 0, 85, 96
2, 81489, Note_on_c, 0, 68, 92
2, 81494, Note_on_c, 0, 80, 0
2, 81505, Note_on_c, 0, 64, 0
2, 81546, Note_on_c, 0, 68, 0
2, 81550, Note_on_c, 0, 72, 83
2, 81552, Note_on_c, 0, 87, 104
2, 81559, Note_on_c, 0, 85, 0
2, 81584, Note_on_c, 0, 72, 0
2, 81593, Note_on_c, 0, 87, 0
2, 81630, Note_on_c, 0, 73, 88
2, 81637, Note_on_c, 0, 88, 94
2, 81685, Note_on_c, 0, 88, 0
2, 81703, Note_on_c, 0, 92, 104
2, 81705, Note_on_c, 0, 76, 82
2, 81713, Note_on_c, 0, 73, 0
2, 81762, Note_on_c, 0, 92, 0
2, 81770, Note_on_c, 0, 80, 92
2, 81778, Note_on_c, 0, 97, 91
2, 81779, Note_on_c, 0, 76, 0
2, 81830, Note_on_c, 0, 80, 0
2, 81841, Note_on_c, 0, 84, 87
2, 81841, Note_on_c, 0, 99, 106
2, 81853, Note_on_c, 0, 97, 0
2, 81891, Note_on_c, 0, 99, 0
2, 81904, Note_on_c, 0, 84, 0
2, 81929, Note_on_c, 0, 85, 118
2, 81936, Note_on_c, 0, 100, 121
2, 81956, Note_on_c, 0, 85, 0
2, 81969, Note_on_c, 0, 100, 0
2, 82334, Control_c, 0, 64, 63
2, 82342, Control_c, 0, 64, 0
2, 83301, Note_on_c, 0, 60, 99
2, 83303, Note_on_c, 0, 44, 92
2, 83312, Control_c, 0, 64, 127
2, 83366, Note_on_c, 0, 60, 0
2, 83376, Note_on_c, 0, 68, 92
2, 83410, Note_on_c, 0, 44, 0
2, 83414, Note_on_c, 0, 68, 0
2, 83434, Note_on_c, 0, 66, 98
2, 83466, Note_on_c, 0, 66, 0
2, 83482, Note_on_c, 0, 75, 101
2, 83495, Note_on_c, 0, 75, 0
2, 83533, Note_on_c, 0, 72, 103
2, 83568, Note_on_c, 0, 72, 0
2, 83581, Note_on_c, 0, 80, 97
2, 83625, Note_on_c, 0, 78, 105
2, 83626, Note_on_c, 0, 51, 82
2, 83635, Note_on_c, 0, 80, 0
2, 83660, Note_on_c, 0, 78, 0
2, 83661, Note_on_c, 0, 51, 0
2, 83675, Note_on_c, 0, 87, 105
2, 83690, Note_on_c, 0, 87, 0
2, 83730, Note_on_c, 0, 84, 96
2, 83766, Note_on_c, 0, 84, 0
2, 83783, Note_on_c, 0, 92, 104
2, 83786, Note_on_c, 0, 66, 63
2, 83809, Note_on_c, 0, 66, 0
2, 83829, Note_on_c, 0, 90, 103
2, 83834, Note_on_c, 0, 92, 0
2, 83862, Note_on_c, 0, 90, 0
2, 83881, Note_on_c, 0, 99, 109
2, 83918, Note_on_c, 0, 99, 0
2, 83938, Note_on_c, 0, 56, 86
2, 83942, Note_on_c, 0, 84, 104
2, 83967, Note_on_c, 0, 84, 0
2, 84026, Control_c, 0, 64, 63
2, 84031, Control_c, 0, 64, 0
2, 84115, Note_on_c, 0, 68, 97
2, 84115, Note_on_c, 0, 66, 93
2, 84118, Control_c, 0, 64, 63
2, 84119, Control_c, 0, 64, 127
2, 84130, Note_on_c, 0, 60, 40
2, 84131, Note_on_c, 0, 66, 0
2, 84146, Note_on_c, 0, 56, 0
2, 84147, Note_on_c, 0, 60, 0
2, 84165, Note_on_c, 0, 72, 79
2, 84169, Note_on_c, 0, 68, 0
2, 84216, Note_on_c, 0, 72, 0
2, 84216, Note_on_c, 0, 80, 90
2, 84250, Note_on_c, 0, 80, 0
2, 84275, Note_on_c, 0, 44, 77
2, 84284, Note_on_c, 0, 78, 101
2, 84293, Note_on_c, 0, 44, 0
2, 84322, Note_on_c, 0, 78, 0
2, 84332, Note_on_c, 0, 87, 101
2, 84363, Note_on_c, 0, 87, 0
2, 84392, Note_on_c, 0, 84, 99
2, 84425, Note_on_c, 0, 84, 0
2, 84436, Note_on_c, 0, 66, 77
2, 84440, Note_on_c, 0, 60, 60
2, 84443, Note_on_c, 0, 92, 106
2, 84454, Note_on_c, 0, 66, 0
2, 84457, Note_on_c, 0, 60, 0
2, 84482, Note_on_c, 0, 90, 104
2, 84492, Note_on_c, 0, 92, 0
2, 84521, Note_on_c, 0, 90, 0
2, 84547, Note_on_c, 0, 99, 109
2, 84558, Control_c, 0, 64, 63
2, 84563, Control_c, 0, 64, 0
2, 84597, Note_on_c, 0, 99, 0
2, 84604, Control_c, 0, 64, 63
2, 84606, Control_c, 0, 64, 127
2, 84607, Note_on_c, 0, 49, 97
2, 84611, Note_on_c, 0, 97, 106
2, 84614, Note_on_c, 0, 88, 89
2, 84635, Note_on_c, 0, 49, 0
2, 84640, Note_on_c, 0, 88, 0
2, 84653, Note_on_c, 0, 97, 0
2, 84773, Note_on_c, 0, 64, 86
2, 84773, Note_on_c, 0, 61, 82
2, 84793, Note_on_c, 0, 61, 0
2, 84793, Note_on_c, 0, 64, 0
2, 84924, Note_on_c, 0, 52, 97
2, 84935, Note_on_c, 0, 75, 86
2, 84959, Control_c, 0, 64, 63
2, 84962, Control_c, 0, 64, 0
2, 84991, Note_on_c, 0, 76, 84
2, 84995, Note_on_c, 0, 75, 0
2, 85049, Note_on_c, 0, 75, 93
2, 85066, Note_on_c, 0, 76, 0
2, 85082, Control_c, 0, 64, 63
2, 85085, Control_c, 0, 64, 127
2, 85088, Note_on_c, 0, 61, 62
2, 85096, Note_on_c, 0, 64, 57
2, 85097, Note_on_c, 0, 73, 94
2, 85119, Note_on_c, 0, 75, 0
2, 85145, Note_on_c, 0, 68, 80
2, 85159, Note_on_c, 0, 73, 0
2, 85160, Note_on_c, 0, 61, 0
2, 85160, Note_on_c, 0, 52, 0
2, 85176, Note_on_c, 0, 64, 0
2, 85193, Note_on_c, 0, 76, 75
2, 85199, Note_on_c, 0, 68, 0
2, 85248, Note_on_c, 0, 56, 107
2, 85248, Note_on_c, 0, 75, 103
2, 85255, Note_on_c, 0, 76, 0
2, 85268, Control_c, 0, 64, 63
2, 85278, Control_c, 0, 64, 0
2, 85290, Control_c, 0, 64, 63
2, 85306, Note_on_c, 0, 76, 90
2, 85310, Control_c, 0, 64, 127
2, 85319, Note_on_c, 0, 75, 0
2, 85361, Note_on_c, 0, 75, 97
2, 85376, Note_on_c, 0, 76, 0
2, 85408, Note_on_c, 0, 61, 72
2, 85409, Note_on_c, 0, 64, 55
2, 85411, Note_on_c, 0, 73, 89
2, 85430, Note_on_c, 0, 75, 0
2, 85432, Note_on_c, 0, 64, 0
2, 85432, Note_on_c, 0, 61, 0
2, 85438, Note_on_c, 0, 56, 0
2, 85465, Note_on_c, 0, 68, 82
2, 85473, Note_on_c, 0, 73, 0
2, 85514, Note_on_c, 0, 76, 68
2, 85516, Note_on_c, 0, 68, 0
2, 85539, Control_c, 0, 64, 63
2, 85567, Note_on_c, 0, 75, 93
2, 85568, Note_on_c, 0, 49, 98
2, 85570, Control_c, 0, 64, 127
2, 85578, Note_on_c, 0, 76, 0
2, 85596, Note_on_c, 0, 49, 0
2, 85617, Note_on_c, 0, 76, 87
2, 85619, Note_on_c, 0, 75, 0
2, 85666, Note_on_c, 0, 75, 89
2, 85684, Note_on_c, 0, 76, 0
2, 85716, Note_on_c, 0, 73, 97
2, 85722, Note_on_c, 0, 61, 80
2, 85724, Note_on_c, 0, 64, 65
2, 85734, Note_on_c, 0, 75, 0
2, 85746, Note_on_c, 0, 64, 0
2, 85750, Note_on_c, 0, 61, 0
2, 85766, Note_on_c, 0, 68, 89
2, 85771, Note_on_c, 0, 73, 0
2, 85808, Note_on_c, 0, 68, 0
2, 85827, Note_on_c, 0, 80, 87
2, 85840, Control_c, 0, 64, 63
2, 85844, Control_c, 0, 64, 0
2, 85859, Note_on_c, 0, 80, 0
2, 85903, Control_c, 0, 64, 63
2, 85904, Control_c, 0, 64, 127
2, 85908, Note_on_c, 0, 44, 70
2, 85910, Note_on_c, 0, 60, 82
2, 85955, Note_on_c, 0, 60, 0
2, 85955, Note_on_c, 0, 44, 0
2, 85971, Note_on_c, 0, 68, 63
2, 86021, Note_on_c, 0, 66, 80
2, 86027, Note_on_c, 0, 68, 0
2, 86062, Note_on_c, 0, 66, 0
2, 86080, Note_on_c, 0, 75, 79
2, 86094, Note_on_c, 0, 75, 0
2, 86128, Note_on_c, 0, 72, 76
2, 86167, Note_on_c, 0, 72, 0
2, 86179, Note_on_c, 0, 80, 78
2, 86228, Note_on_c, 0, 78, 84
2, 86229, Note_on_c, 0, 51, 56
2, 86246, Note_on_c, 0, 80, 0
2, 86268, Note_on_c, 0, 78, 0
2, 86271, Note_on_c, 0, 51, 0
2, 86284, Note_on_c, 0, 87, 86
2, 86308, Note_on_c, 0, 87, 0
2, 86340, Note_on_c, 0, 84, 78
2, 86377, Note_on_c, 0, 84, 0
2, 86394, Note_on_c, 0, 92, 85
2, 86394, Control_c, 0, 64, 63
2, 86400, Control_c, 0, 64, 0
2, 86401, Note_on_c, 0, 66, 52
2, 86409, Note_on_c, 0, 60, 25
2, 86430, Note_on_c, 0, 60, 0
2, 86433, Note_on_c, 0, 66, 0
2, 86442, Note_on_c, 0, 90, 80
2, 86447, Note_on_c, 0, 92, 0
2, 86475, Note_on_c, 0, 90, 0
2, 86493, Note_on_c, 0, 99, 89
2, 86531, Note_on_c, 0, 99, 0
2, 86537, Control_c, 0, 64, 127
2, 86554, Note_on_c, 0, 84, 92
2, 86556, Note_on_c, 0, 56, 68
2, 86582, Note_on_c, 0, 84, 0
2, 86707, Note_on_c, 0, 66, 65
2, 86708, Note_on_c, 0, 68, 68
2, 86728, Note_on_c, 0, 66, 0
2, 86736, Note_on_c, 0, 56, 0
2, 86759, Note_on_c, 0, 72, 53
2, 86766, Note_on_c, 0, 68, 0
2, 86806, Note_on_c, 0, 80, 75
2, 86808, Note_on_c, 0, 72, 0
2, 86838, Note_on_c, 0, 80, 0
2, 86856, Note_on_c, 0, 44, 69
2, 86873, Note_on_c, 0, 78, 80
2, 86890, Note_on_c, 0, 44, 0
2, 86908, Note_on_c, 0, 78, 0
2, 86920, Note_on_c, 0, 87, 77
2, 86949, Note_on_c, 0, 87, 0
2, 86975, Note_on_c, 0, 84, 79
2, 87004, Note_on_c, 0, 84, 0
2, 87023, Note_on_c, 0, 92, 87
2, 87027, Note_on_c, 0, 66, 68
2, 87032, Note_on_c, 0, 60, 49
2, 87046, Note_on_c, 0, 66, 0
2, 87049, Note_on_c, 0, 60, 0
2, 87069, Note_on_c, 0, 90, 85
2, 87076, Note_on_c, 0, 92, 0
2, 87102, Control_c, 0, 64, 63
2, 87103, Note_on_c, 0, 90, 0
2, 87108, Control_c, 0, 64, 0
2, 87122, Note_on_c, 0, 99, 79
2, 87180, Control_c, 0, 64, 63
2, 87180, Control_c, 0, 64, 127
2, 87181, Note_on_c, 0, 97, 83
2, 87185, Note_on_c, 0, 99, 0
2, 87185, Note_on_c, 0, 49, 78
2, 87190, Note_on_c, 0, 88, 71
2, 87210, Note_on_c, 0, 49, 0
2, 87220, Note_on_c, 0, 88, 0
2, 87222, Note_on_c, 0, 97, 0
2, 87357, Note_on_c, 0, 61, 57
2, 87362, Note_on_c, 0, 64, 31
2, 87380, Note_on_c, 0, 61, 0
2, 87387, Note_on_c, 0, 64, 0
2, 87515, Note_on_c, 0, 75, 60
2, 87528, Note_on_c, 0, 52, 47
2, 87551, Control_c, 0, 64, 63
2, 87558, Control_c, 0, 64, 0
2, 87578, Note_on_c, 0, 76, 56
2, 87583, Note_on_c, 0, 75, 0
2, 87625, Control_c, 0, 64, 63
2, 87630, Note_on_c, 0, 75, 73
2, 87634, Control_c, 0, 64, 127
2, 87651, Note_on_c, 0, 76, 0
2, 87676, Note_on_c, 0, 73, 71
2, 87681, Note_on_c, 0, 61, 43
2, 87689, Note_on_c, 0, 64, 32
2, 87695, Note_on_c, 0, 52, 0
2, 87701, Note_on_c, 0, 75, 0
2, 87732, Note_on_c, 0, 61, 0
2, 87734, Note_on_c, 0, 68, 67
2, 87737, Note_on_c, 0, 64, 0
2, 87751, Note_on_c, 0, 73, 0
2, 87779, Note_on_c, 0, 76, 70
2, 87791, Note_on_c, 0, 68, 0
2, 87833, Note_on_c, 0, 75, 85
2, 87835, Note_on_c, 0, 56, 90
2, 87856, Note_on_c, 0, 76, 0
2, 87890, Control_c, 0, 64, 63
2, 87892, Note_on_c, 0, 76, 71
2, 87897, Control_c, 0, 64, 0
2, 87909, Note_on_c, 0, 75, 0
2, 87944, Note_on_c, 0, 75, 67
2, 87969, Note_on_c, 0, 76, 0
2, 87988, Note_on_c, 0, 61, 65
2, 87994, Note_on_c, 0, 73, 79
2, 87995, Note_on_c, 0, 64, 39
2, 88012, Control_c, 0, 64, 63
2, 88018, Control_c, 0, 64, 127
2, 88023, Note_on_c, 0, 75, 0
2, 88046, Note_on_c, 0, 64, 0
2, 88046, Note_on_c, 0, 68, 66
2, 88052, Note_on_c, 0, 61, 0
2, 88068, Note_on_c, 0, 73, 0
2, 88099, Note_on_c, 0, 76, 49
2, 88100, Note_on_c, 0, 68, 0
2, 88152, Note_on_c, 0, 75, 74
2, 88165, Note_on_c, 0, 76, 0
2, 88165, Note_on_c, 0, 56, 0
2, 88165, Note_on_c, 0, 55, 63
2, 88174, Control_c, 0, 64, 63
2, 88209, Note_on_c, 0, 76, 63
2, 88214, Note_on_c, 0, 75, 0
2, 88241, Control_c, 0, 64, 127
2, 88262, Note_on_c, 0, 75, 67
2, 88281, Note_on_c, 0, 76, 0
2, 88309, Note_on_c, 0, 73, 74
2, 88318, Note_on_c, 0, 61, 44
2, 88331, Note_on_c, 0, 75, 0
2, 88339, Note_on_c, 0, 61, 0
2, 88357, Note_on_c, 0, 71, 60
2, 88361, Note_on_c, 0, 55, 0
2, 88372, Note_on_c, 0, 73, 0
2, 88410, Note_on_c, 0, 76, 62
2, 88413, Note_on_c, 0, 71, 0
2, 88428, Control_c, 0, 64, 63
2, 88432, Control_c, 0, 64, 0
2, 88444, Note_on_c, 0, 76, 0
2, 88496, Control_c, 0, 64, 63
2, 88499, Control_c, 0, 64, 127
2, 88516, Note_on_c, 0, 42, 93
2, 88519, Note_on_c, 0, 58, 103
2, 88549, Note_on_c, 0, 42, 0
2, 88583, Note_on_c, 0, 66, 71
2, 88584, Note_on_c, 0, 58, 0
2, 88631, Note_on_c, 0, 66, 0
2, 88637, Note_on_c, 0, 64, 78
2, 88672, Note_on_c, 0, 64, 0
2, 88681, Note_on_c, 0, 73, 103
2, 88709, Note_on_c, 0, 73, 0
2, 88742, Note_on_c, 0, 70, 97
2, 88794, Note_on_c, 0, 78, 92
2, 88806, Note_on_c, 0, 70, 0
2, 88835, Note_on_c, 0, 49, 83
2, 88843, Note_on_c, 0, 76, 84
2, 88855, Note_on_c, 0, 78, 0
2, 88869, Note_on_c, 0, 49, 0
2, 88885, Note_on_c, 0, 76, 0
2, 88903, Note_on_c, 0, 85, 93
2, 88923, Note_on_c, 0, 85, 0
2, 88957, Note_on_c, 0, 82, 98
2, 89000, Note_on_c, 0, 58, 77
2, 89001, Note_on_c, 0, 64, 65
2, 89006, Note_on_c, 0, 90, 93
2, 89011, Control_c, 0, 64, 63
2, 89015, Control_c, 0, 64, 0
2, 89022, Note_on_c, 0, 82, 0
2, 89032, Note_on_c, 0, 64, 0
2, 89039, Note_on_c, 0, 58, 0
2, 89058, Note_on_c, 0, 88, 82
2, 89059, Note_on_c, 0, 90, 0
2, 89092, Note_on_c, 0, 88, 0
2, 89100, Note_on_c, 0, 97, 101
2, 89143, Note_on_c, 0, 97, 0
2, 89155, Control_c, 0, 64, 127
2, 89159, Note_on_c, 0, 82, 109
2, 89165, Note_on_c, 0, 54, 91
2, 89184, Note_on_c, 0, 82, 0
2, 89314, Note_on_c, 0, 66, 89
2, 89316, Note_on_c, 0, 64, 72
2, 89318, Note_on_c, 0, 58, 76
2, 89338, Note_on_c, 0, 64, 0
2, 89346, Note_on_c, 0, 58, 0
2, 89346, Note_on_c, 0, 54, 0
2, 89372, Note_on_c, 0, 70, 88
2, 89374, Note_on_c, 0, 66, 0
2, 89408, Note_on_c, 0, 78, 94
2, 89413, Note_on_c, 0, 70, 0
2, 89423, Note_on_c, 0, 78, 0
2, 89464, Note_on_c, 0, 42, 87
2, 89480, Note_on_c, 0, 76, 84
2, 89502, Note_on_c, 0, 42, 0
2, 89509, Note_on_c, 0, 76, 0
2, 89522, Note_on_c, 0, 85, 100
2, 89545, Note_on_c, 0, 85, 0
2, 89579, Note_on_c, 0, 82, 99
2, 89620, Note_on_c, 0, 82, 0
2, 89628, Note_on_c, 0, 90, 95
2, 89633, Note_on_c, 0, 58, 88
2, 89635, Note_on_c, 0, 64, 76
2, 89652, Control_c, 0, 64, 63
2, 89656, Note_on_c, 0, 64, 0
2, 89656, Control_c, 0, 64, 0
2, 89666, Note_on_c, 0, 58, 0
2, 89675, Note_on_c, 0, 90, 0
2, 89675, Note_on_c, 0, 88, 90
2, 89709, Note_on_c, 0, 88, 0
2, 89731, Note_on_c, 0, 97, 97
2, 89781, Note_on_c, 0, 97, 0
2, 89797, Note_on_c, 0, 87, 103
2, 89798, Note_on_c, 0, 95, 92
2, 89799, Note_on_c, 0, 47, 109
2, 89799, Control_c, 0, 64, 63
2, 89800, Control_c, 0, 64, 127
2, 89825, Note_on_c, 0, 87, 0
2, 89835, Note_on_c, 0, 47, 0
2, 89837, Note_on_c, 0, 95, 0
2, 89985, Note_on_c, 0, 63, 74
2, 89988, Note_on_c, 0, 59, 54
2, 90021, Note_on_c, 0, 59, 0
2, 90036, Note_on_c, 0, 63, 0
2, 90125, Note_on_c, 0, 51, 99
2, 90131, Note_on_c, 0, 73, 93
2, 90171, Control_c, 0, 64, 63
2, 90178, Control_c, 0, 64, 0
2, 90182, Note_on_c, 0, 75, 92
2, 90190, Note_on_c, 0, 73, 0
2, 90226, Note_on_c, 0, 73, 78
2, 90248, Note_on_c, 0, 75, 0
2, 90276, Note_on_c, 0, 71, 79
2, 90286, Note_on_c, 0, 63, 72
2, 90288, Note_on_c, 0, 59, 68
2, 90306, Note_on_c, 0, 73, 0
2, 90315, Control_c, 0, 64, 63
2, 90318, Control_c, 0, 64, 127
2, 90334, Note_on_c, 0, 66, 84
2, 90337, Note_on_c, 0, 51, 0
2, 90342, Note_on_c, 0, 71, 0
2, 90382, Note_on_c, 0, 75, 91
2, 90384, Note_on_c, 0, 59, 0
2, 90386, Note_on_c, 0, 66, 0
2, 90393, Note_on_c, 0, 63, 0
2, 90438, Note_on_c, 0, 73, 101
2, 90448, Note_on_c, 0, 75, 0
2, 90448, Note_on_c, 0, 55, 80
2, 90488, Note_on_c, 0, 75, 98
2, 90491, Control_c, 0, 64, 63
2, 90498, Control_c, 0, 64, 0
2, 90504, Note_on_c, 0, 73, 0
2, 90537, Note_on_c, 0, 73, 70
2, 90563, Note_on_c, 0, 75, 0
2, 90568, Control_c, 0, 64, 63
2, 90577, Control_c, 0, 64, 127
2, 90601, Note_on_c, 0, 71, 68
2, 90602, Note_on_c, 0, 63, 61
2, 90611, Note_on_c, 0, 59, 52
2, 90622, Note_on_c, 0, 73, 0
2, 90655, Note_on_c, 0, 66, 70
2, 90674, Note_on_c, 0, 71, 0
2, 90675, Note_on_c, 0, 59, 0
2, 90675, Note_on_c, 0, 63, 0
2, 90691, Note_on_c, 0, 75, 87
2, 90698, Note_on_c, 0, 66, 0
2, 90731, Control_c, 0, 64, 63
2, 90740, Control_c, 0, 64, 0
2, 90750, Note_on_c, 0, 73, 93
2, 90751, Note_on_c, 0, 54, 90
2, 90755, Note_on_c, 0, 75, 0
2, 90771, Note_on_c, 0, 55, 0
2, 90776, Control_c, 0, 64, 63
2, 90791, Control_c, 0, 64, 127
2, 90798, Note_on_c, 0, 75, 99
2, 90801, Note_on_c, 0, 73, 0
2, 90840, Note_on_c, 0, 73, 81
2, 90862, Note_on_c, 0, 75, 0
2, 90893, Note_on_c, 0, 71, 88
2, 90896, Note_on_c, 0, 63, 89
2, 90910, Note_on_c, 0, 59, 83
2, 90919, Note_on_c, 0, 63, 0
2, 90919, Note_on_c, 0, 73, 0
2, 90925, Control_c, 0, 64, 63
2, 90929, Note_on_c, 0, 59, 0
2, 90934, Control_c, 0, 64, 0
2, 90942, Note_on_c, 0, 54, 0
2, 90949, Note_on_c, 0, 66, 89
2, 90954, Note_on_c, 0, 71, 0
2, 90969, Note_on_c, 0, 66, 0
2, 91012, Note_on_c, 0, 78, 69
2, 91030, Note_on_c, 0, 78, 0
2, 91058, Control_c, 0, 64, 63
2, 91059, Control_c, 0, 64, 127
2, 91064, Note_on_c, 0, 58, 69
2, 91064, Note_on_c, 0, 42, 84
2, 91091, Note_on_c, 0, 42, 0
2, 91124, Note_on_c, 0, 58, 0
2, 91131, Note_on_c, 0, 66, 68
2, 91184, Note_on_c, 0, 64, 65
2, 91193, Note_on_c, 0, 66, 0
2, 91225, Note_on_c, 0, 64, 0
2, 91225, Note_on_c, 0, 73, 84
2, 91254, Note_on_c, 0, 73, 0
2, 91289, Note_on_c, 0, 70, 86
2, 91324, Note_on_c, 0, 70, 0
2, 91342, Note_on_c, 0, 78, 65
2, 91372, Control_c, 0, 64, 63
2, 91376, Note_on_c, 0, 78, 0
2, 91377, Control_c, 0, 64, 0
2, 91380, Note_on_c, 0, 49, 86
2, 91393, Note_on_c, 0, 76, 57
2, 91416, Note_on_c, 0, 49, 0
2, 91426, Note_on_c, 0, 76, 0
2, 91434, Note_on_c, 0, 85, 79
2, 91452, Note_on_c, 0, 85, 0
2, 91484, Note_on_c, 0, 82, 85
2, 91536, Note_on_c, 0, 90, 77
2, 91542, Note_on_c, 0, 82, 0
2, 91542, Note_on_c, 0, 58, 63
2, 91546, Note_on_c, 0, 64, 39
2, 91572, Note_on_c, 0, 64, 0
2, 91579, Note_on_c, 0, 58, 0
2, 91587, Note_on_c, 0, 90, 0
2, 91591, Note_on_c, 0, 88, 49
2, 91621, Note_on_c, 0, 88, 0
2, 91644, Note_on_c, 0, 97, 74
2, 91677, Note_on_c, 0, 97, 0
2, 91698, Note_on_c, 0, 82, 79
2, 91701, Control_c, 0, 64, 63
2, 91703, Control_c, 0, 64, 127
2, 91703, Note_on_c, 0, 54, 70
2, 91723, Note_on_c, 0, 82, 0
2, 91748, Note_on_c, 0, 54, 0
2, 91859, Note_on_c, 0, 58, 63
2, 91859, Note_on_c, 0, 64, 57
2, 91862, Note_on_c, 0, 66, 69
2, 91881, Note_on_c, 0, 64, 0
2, 91890, Note_on_c, 0, 58, 0
2, 91916, Note_on_c, 0, 70, 68
2, 91920, Note_on_c, 0, 66, 0
2, 91953, Note_on_c, 0, 70, 0
2, 91961, Note_on_c, 0, 78, 65
2, 91975, Note_on_c, 0, 78, 0
2, 92010, Note_on_c, 0, 42, 63
2, 92023, Note_on_c, 0, 76, 74
2, 92047, Note_on_c, 0, 42, 0
2, 92055, Note_on_c, 0, 76, 0
2, 92069, Note_on_c, 0, 85, 84
2, 92096, Note_on_c, 0, 85, 0
2, 92123, Note_on_c, 0, 82, 80
2, 92165, Note_on_c, 0, 82, 0
2, 92172, Note_on_c, 0, 90, 83
2, 92173, Note_on_c, 0, 58, 71
2, 92175, Note_on_c, 0, 64, 59
2, 92196, Control_c, 0, 64, 63
2, 92203, Control_c, 0, 64, 0
2, 92204, Note_on_c, 0, 64, 0
2, 92211, Note_on_c, 0, 58, 0
2, 92223, Note_on_c, 0, 90, 0
2, 92226, Note_on_c, 0, 88, 65
2, 92254, Note_on_c, 0, 88, 0
2, 92274, Note_on_c, 0, 97, 80
2, 92321, Note_on_c, 0, 97, 0
2, 92338, Note_on_c, 0, 95, 82
2, 92339, Note_on_c, 0, 47, 89
2, 92342, Note_on_c, 0, 87, 75
2, 92343, Control_c, 0, 64, 63
2, 92343, Control_c, 0, 64, 127
2, 92373, Note_on_c, 0, 87, 0
2, 92378, Note_on_c, 0, 47, 0
2, 92379, Note_on_c, 0, 95, 0
2, 92510, Note_on_c, 0, 63, 45
2, 92512, Note_on_c, 0, 59, 45
2, 92541, Note_on_c, 0, 63, 0
2, 92542, Note_on_c, 0, 59, 0
2, 92659, Note_on_c, 0, 51, 78
2, 92664, Note_on_c, 0, 73, 81
2, 92682, Control_c, 0, 64, 63
2, 92689, Control_c, 0, 64, 0
2, 92708, Note_on_c, 0, 75, 75
2, 92714, Note_on_c, 0, 73, 0
2, 92770, Note_on_c, 0, 73, 63
2, 92781, Note_on_c, 0, 75, 0
2, 92807, Note_on_c, 0, 63, 38
2, 92811, Note_on_c, 0, 59, 27
2, 92821, Note_on_c, 0, 71, 43
2, 92830, Note_on_c, 0, 73, 0
2, 92871, Note_on_c, 0, 66, 58
2, 92883, Note_on_c, 0, 71, 0
2, 92914, Note_on_c, 0, 75, 68
2, 92921, Note_on_c, 0, 66, 0
2, 92960, Note_on_c, 0, 51, 0
2, 92969, Note_on_c, 0, 54, 70
2, 92973, Note_on_c, 0, 73, 65
2, 92979, Note_on_c, 0, 63, 0
2, 92982, Note_on_c, 0, 75, 0
2, 92985, Note_on_c, 0, 59, 0
2, 92997, Control_c, 0, 64, 63
2, 93002, Control_c, 0, 64, 127
2, 93018, Note_on_c, 0, 75, 59
2, 93024, Note_on_c, 0, 73, 0
2, 93065, Note_on_c, 0, 73, 47
2, 93085, Note_on_c, 0, 75, 0
2, 93126, Note_on_c, 0, 63, 38
2, 93129, Note_on_c, 0, 71, 35
2, 93133, Note_on_c, 0, 59, 33
2, 93141, Note_on_c, 0, 73, 0
2, 93144, Note_on_c, 0, 63, 0
2, 93152, Note_on_c, 0, 59, 0
2, 93166, Note_on_c, 0, 54, 0
2, 93177, Note_on_c, 0, 66, 39
2, 93187, Note_on_c, 0, 71, 0
2, 93222, Note_on_c, 0, 75, 57
2, 93227, Note_on_c, 0, 66, 0
2, 93268, Control_c, 0, 64, 63
2, 93284, Note_on_c, 0, 46, 84
2, 93288, Note_on_c, 0, 73, 60
2, 93289, Note_on_c, 0, 75, 0
2, 93305, Control_c, 0, 64, 127
2, 93322, Note_on_c, 0, 46, 0
2, 93334, Note_on_c, 0, 75, 72
2, 93338, Note_on_c, 0, 73, 0
2, 93375, Note_on_c, 0, 73, 45
2, 93396, Note_on_c, 0, 75, 0
2, 93434, Note_on_c, 0, 63, 62
2, 93435, Note_on_c, 0, 71, 40
2, 93438, Note_on_c, 0, 59, 55
2, 93452, Note_on_c, 0, 73, 0
2, 93458, Note_on_c, 0, 63, 0
2, 93463, Note_on_c, 0, 59, 0
2, 93482, Note_on_c, 0, 66, 47
2, 93494, Note_on_c, 0, 71, 0
2, 93533, Note_on_c, 0, 75, 55
2, 93549, Note_on_c, 0, 66, 0
2, 93560, Control_c, 0, 64, 63
2, 93565, Control_c, 0, 64, 0
2, 93584, Note_on_c, 0, 44, 86
2, 93601, Note_on_c, 0, 75, 0
2, 93626, Note_on_c, 0, 65, 90
2, 93626, Control_c, 0, 64, 63
2, 93628, Control_c, 0, 64, 127
2, 93672, Note_on_c, 0, 44, 0
2, 93704, Note_on_c, 0, 65, 0
2, 93713, Note_on_c, 0, 71, 69
2, 93784, Note_on_c, 0, 75, 95
2, 93786, Note_on_c, 0, 71, 0
2, 93816, Note_on_c, 0, 75, 0
2, 93853, Note_on_c, 0, 63, 52
2, 93858, Note_on_c, 0, 59, 50
2, 93863, Note_on_c, 0, 77, 80
2, 93887, Note_on_c, 0, 63, 0
2, 93889, Note_on_c, 0, 59, 0
2, 93898, Note_on_c, 0, 77, 0
2, 93912, Note_on_c, 0, 83, 87
2, 93947, Note_on_c, 0, 83, 0
2, 93968, Note_on_c, 0, 87, 101
2, 94007, Note_on_c, 0, 87, 0
2, 94009, Note_on_c, 0, 89, 96
2, 94040, Note_on_c, 0, 56, 86
2, 94067, Note_on_c, 0, 90, 99
2, 94075, Note_on_c, 0, 89, 0
2, 94081, Note_on_c, 0, 56, 0
2, 94116, Note_on_c, 0, 89, 91
2, 94128, Note_on_c, 0, 90, 0
2, 94167, Note_on_c, 0, 87, 109
2, 94181, Note_on_c, 0, 63, 80
2, 94185, Note_on_c, 0, 59, 76
2, 94187, Note_on_c, 0, 89, 0
2, 94204, Note_on_c, 0, 59, 0
2, 94204, Note_on_c, 0, 63, 0
2, 94224, Note_on_c, 0, 89, 103
2, 94233, Note_on_c, 0, 87, 0
2, 94271, Note_on_c, 0, 87, 109
2, 94298, Note_on_c, 0, 89, 0
2, 94322, Note_on_c, 0, 46, 109
2, 94324, Control_c, 0, 64, 63
2, 94326, Note_on_c, 0, 86, 103
2, 94329, Control_c, 0, 64, 0
2, 94345, Note_on_c, 0, 87, 0
2, 94353, Note_on_c, 0, 46, 0
2, 94353, Control_c, 0, 64, 63
2, 94369, Control_c, 0, 64, 127
2, 94380, Note_on_c, 0, 89, 102
2, 94392, Note_on_c, 0, 86, 0
2, 94432, Note_on_c, 0, 86, 92
2, 94461, Note_on_c, 0, 89, 0
2, 94472, Note_on_c, 0, 83, 86
2, 94473, Note_on_c, 0, 62, 92
2, 94474, Note_on_c, 0, 56, 91
2, 94485, Note_on_c, 0, 86, 0
2, 94498, Note_on_c, 0, 62, 0
2, 94503, Note_on_c, 0, 56, 0
2, 94521, Note_on_c, 0, 83, 0
2, 94526, Note_on_c, 0, 89, 103
2, 94566, Note_on_c, 0, 83, 83
2, 94575, Note_on_c, 0, 89, 0
2, 94613, Note_on_c, 0, 82, 112
2, 94616, Note_on_c, 0, 53, 96
2, 94622, Note_on_c, 0, 83, 0
2, 94652, Note_on_c, 0, 53, 0
2, 94660, Note_on_c, 0, 82, 0
2, 94664, Note_on_c, 0, 90, 104
2, 94709, Note_on_c, 0, 82, 99
2, 94742, Note_on_c, 0, 90, 0
2, 94763, Note_on_c, 0, 80, 107
2, 94766, Note_on_c, 0, 82, 0
2, 94770, Note_on_c, 0, 62, 84
2, 94772, Note_on_c, 0, 56, 88
2, 94790, Note_on_c, 0, 62, 0
2, 94796, Note_on_c, 0, 56, 0
2, 94810, Note_on_c, 0, 80, 0
2, 94814, Note_on_c, 0, 89, 94
2, 94854, Note_on_c, 0, 80, 97
2, 94861, Note_on_c, 0, 89, 0
2, 94884, Note_on_c, 0, 80, 0
2, 94897, Control_c, 0, 64, 63
2, 94902, Control_c, 0, 64, 0
2, 94915, Note_on_c, 0, 79, 99
2, 94917, Note_on_c, 0, 39, 112
2, 94940, Note_on_c, 0, 39, 0
2, 94945, Control_c, 0, 64, 63
2, 94954, Control_c, 0, 64, 127
2, 94968, Note_on_c, 0, 79, 0
2, 94968, Note_on_c, 0, 87, 105
2, 95018, Note_on_c, 0, 79, 86
2, 95035, Note_on_c, 0, 87, 0
2, 95071, Note_on_c, 0, 79, 0
2, 95073, Note_on_c, 0, 76, 94
2, 95083, Note_on_c, 0, 61, 105
2, 95084, Note_on_c, 0, 55, 88
2, 95105, Note_on_c, 0, 55, 0
2, 95105, Note_on_c, 0, 61, 0
2, 95121, Note_on_c, 0, 76, 0
2, 95128, Note_on_c, 0, 82, 97
2, 95167, Note_on_c, 0, 76, 81
2, 95178, Note_on_c, 0, 82, 0
2, 95219, Note_on_c, 0, 76, 0
2, 95219, Note_on_c, 0, 75, 108
2, 95222, Note_on_c, 0, 51, 86
2, 95228, Control_c, 0, 64, 63
2, 95231, Control_c, 0, 64, 0
2, 95249, Note_on_c, 0, 51, 0
2, 95265, Note_on_c, 0, 82, 104
2, 95268, Note_on_c, 0, 75, 0
2, 95305, Note_on_c, 0, 75, 73
2, 95343, Note_on_c, 0, 82, 0
2, 95361, Note_on_c, 0, 73, 106
2, 95368, Note_on_c, 0, 75, 0
2, 95372, Note_on_c, 0, 61, 87
2, 95373, Note_on_c, 0, 55, 71
2, 95388, Note_on_c, 0, 61, 0
2, 95392, Note_on_c, 0, 55, 0
2, 95409, Note_on_c, 0, 73, 0
2, 95416, Note_on_c, 0, 82, 96
2, 95461, Note_on_c, 0, 73, 85
2, 95486, Note_on_c, 0, 82, 0
2, 95498, Control_c, 0, 64, 63
2, 95499, Control_c, 0, 64, 127
2, 95501, Note_on_c, 0, 72, 92
2, 95503, Note_on_c, 0, 73, 0
2, 95505, Note_on_c, 0, 44, 98
2, 95533, Note_on_c, 0, 44, 0
2, 95552, Note_on_c, 0, 75, 100
2, 95562, Note_on_c, 0, 72, 0
2, 95603, Note_on_c, 0, 72, 89
2, 95604, Note_on_c, 0, 75, 0
2, 95644, Note_on_c, 0, 72, 0
2, 95647, Note_on_c, 0, 60, 101
2, 95649, Note_on_c, 0, 54, 105
2, 95656, Note_on_c, 0, 69, 86
2, 95670, Note_on_c, 0, 60, 0
2, 95680, Note_on_c, 0, 54, 0
2, 95708, Note_on_c, 0, 69, 0
2, 95711, Note_on_c, 0, 75, 86
2, 95759, Note_on_c, 0, 69, 78
2, 95762, Note_on_c, 0, 75, 0
2, 95804, Note_on_c, 0, 68, 108
2, 95805, Note_on_c, 0, 69, 0
2, 95814, Control_c, 0, 64, 63
2, 95817, Control_c, 0, 64, 0
2, 95842, Note_on_c, 0, 68, 0
2, 95848, Note_on_c, 0, 76, 84
2, 95896, Note_on_c, 0, 68, 94
2, 95901, Note_on_c, 0, 76, 0
2, 95931, Note_on_c, 0, 68, 0
2, 95939, Control_c, 0, 64, 63
2, 95939, Control_c, 0, 64, 127
2, 95951, Note_on_c, 0, 60, 103
2, 95957, Note_on_c, 0, 66, 96
2, 95984, Note_on_c, 0, 60, 0
2, 96003, Note_on_c, 0, 75, 98
2, 96004, Note_on_c, 0, 66, 0
2, 96049, Note_on_c, 0, 66, 90
2, 96059, Note_on_c, 0, 75, 0
2, 96083, Note_on_c, 0, 66, 0
2, 96096, Control_c, 0, 64, 63
2, 96098, Control_c, 0, 64, 0
2, 96114, Note_on_c, 0, 73, 110
2, 96115, Note_on_c, 0, 45, 112
2, 96127, Control_c, 0, 64, 63
2, 96132, Control_c, 0, 64, 127
2, 96147, Note_on_c, 0, 45, 0
2, 96149, Note_on_c, 0, 73, 0
2, 96271, Control_c, 0, 64, 63
2, 96273, Control_c, 0, 64, 0
2, 96294, Note_on_c, 0, 64, 94
2, 96302, Note_on_c, 0, 61, 87
2, 96315, Control_c, 0, 64, 63
2, 96319, Control_c, 0, 64, 127
2, 96333, Note_on_c, 0, 61, 0
2, 96334, Note_on_c, 0, 64, 0
2, 96349, Note_on_c, 0, 71, 78
2, 96386, Control_c, 0, 64, 63
2, 96387, Control_c, 0, 64, 0
2, 96388, Note_on_c, 0, 69, 80
2, 96404, Note_on_c, 0, 71, 0
2, 96418, Note_on_c, 0, 69, 0
2, 96420, Control_c, 0, 64, 63
2, 96424, Control_c, 0, 64, 127
2, 96439, Note_on_c, 0, 62, 92
2, 96450, Note_on_c, 0, 76, 97
2, 96450, Note_on_c, 0, 68, 109
2, 96474, Note_on_c, 0, 62, 0
2, 96479, Note_on_c, 0, 68, 0
2, 96490, Note_on_c, 0, 71, 94
2, 96513, Note_on_c, 0, 71, 0
2, 96515, Note_on_c, 0, 76, 0
2, 96549, Note_on_c, 0, 76, 103
2, 96576, Note_on_c, 0, 76, 0
2, 96593, Control_c, 0, 64, 63
2, 96594, Note_on_c, 0, 80, 101
2, 96596, Note_on_c, 0, 52, 93
2, 96596, Note_on_c, 0, 88, 76
2, 96598, Control_c, 0, 64, 0
2, 96606, Note_on_c, 0, 80, 0
2, 96612, Note_on_c, 0, 88, 0
2, 96625, Note_on_c, 0, 52, 0
2, 96750, Note_on_c, 0, 45, 83
2, 96751, Control_c, 0, 64, 63
2, 96752, Control_c, 0, 64, 127
2, 96752, Note_on_c, 0, 81, 104
2, 96753, Note_on_c, 0, 88, 99
2, 96770, Note_on_c, 0, 88, 0
2, 96774, Note_on_c, 0, 81, 0
2, 96774, Note_on_c, 0, 45, 0
2, 96902, Note_on_c, 0, 64, 81
2, 96906, Note_on_c, 0, 61, 86
2, 96911, Note_on_c, 0, 76, 60
2, 96934, Note_on_c, 0, 64, 0
2, 96938, Note_on_c, 0, 61, 0
2, 96957, Note_on_c, 0, 71, 88
2, 96972, Note_on_c, 0, 76, 0
2, 96995, Note_on_c, 0, 69, 87
2, 97003, Note_on_c, 0, 71, 0
2, 97017, Note_on_c, 0, 69, 0
2, 97019, Control_c, 0, 64, 63
2, 97023, Control_c, 0, 64, 0
2, 97040, Note_on_c, 0, 62, 96
2, 97044, Note_on_c, 0, 76, 90
2, 97049, Note_on_c, 0, 68, 104
2, 97052, Control_c, 0, 64, 63
2, 97059, Control_c, 0, 64, 127
2, 97078, Note_on_c, 0, 62, 0
2, 97079, Note_on_c, 0, 68, 0
2, 97081, Note_on_c, 0, 71, 93
2, 97111, Note_on_c, 0, 76, 0
2, 97112, Note_on_c, 0, 71, 0
2, 97144, Note_on_c, 0, 76, 103
2, 97174, Note_on_c, 0, 76, 0
2, 97186, Control_c, 0, 64, 63
2, 97189, Control_c, 0, 64, 0
2, 97191, Note_on_c, 0, 52, 98
2, 97192, Note_on_c, 0, 88, 99
2, 97192, Note_on_c, 0, 80, 105
2, 97205, Note_on_c, 0, 80, 0
2, 97215, Note_on_c, 0, 88, 0
2, 97219, Note_on_c, 0, 52, 0
2, 97342, Control_c, 0, 64, 63
2, 97344, Note_on_c, 0, 45, 107
2, 97344, Control_c, 0, 64, 127
2, 97347, Note_on_c, 0, 81, 111
2, 97348, Note_on_c, 0, 88, 102
2, 97369, Note_on_c, 0, 45, 0
2, 97371, Note_on_c, 0, 81, 0
2, 97376, Note_on_c, 0, 88, 0
2, 97501, Note_on_c, 0, 73, 99
2, 97504, Note_on_c, 0, 76, 86
2, 97520, Control_c, 0, 64, 63
2, 97524, Control_c, 0, 64, 0
2, 97524, Note_on_c, 0, 88, 90
2, 97534, Note_on_c, 0, 76, 0
2, 97542, Control_c, 0, 64, 63
2, 97550, Control_c, 0, 64, 127
2, 97562, Note_on_c, 0, 83, 74
2, 97583, Note_on_c, 0, 73, 0
2, 97603, Note_on_c, 0, 81, 71
2, 97614, Note_on_c, 0, 83, 0
2, 97618, Note_on_c, 0, 88, 0
2, 97623, Note_on_c, 0, 81, 0
2, 97650, Note_on_c, 0, 74, 102
2, 97660, Note_on_c, 0, 88, 68
2, 97662, Note_on_c, 0, 80, 104
2, 97695, Note_on_c, 0, 74, 0
2, 97695, Note_on_c, 0, 83, 88
2, 97698, Note_on_c, 0, 80, 0
2, 97721, Note_on_c, 0, 88, 0
2, 97723, Note_on_c, 0, 83, 0
2, 97757, Note_on_c, 0, 88, 104
2, 97788, Note_on_c, 0, 88, 0
2, 97812, Note_on_c, 0, 64, 92
2, 97814, Note_on_c, 0, 92, 106
2, 97816, Note_on_c, 0, 100, 92
2, 97844, Note_on_c, 0, 64, 0
2, 97861, Note_on_c, 0, 92, 0
2, 97870, Note_on_c, 0, 97, 98
2, 97904, Note_on_c, 0, 100, 0
2, 97914, Note_on_c, 0, 95, 87
2, 97944, Control_c, 0, 64, 63
2, 97946, Note_on_c, 0, 97, 0
2, 97949, Control_c, 0, 64, 0
2, 97950, Note_on_c, 0, 95, 0
2, 97964, Note_on_c, 0, 57, 107
2, 97969, Note_on_c, 0, 100, 106
2, 97975, Control_c, 0, 64, 63
2, 97976, Note_on_c, 0, 93, 109
2, 97983, Control_c, 0, 64, 127
2, 98002, Note_on_c, 0, 57, 0
2, 98030, Note_on_c, 0, 95, 103
2, 98040, Note_on_c, 0, 93, 0
2, 98048, Note_on_c, 0, 100, 0
2, 98077, Note_on_c, 0, 93, 94
2, 98093, Note_on_c, 0, 95, 0
2, 98116, Note_on_c, 0, 93, 0
2, 98118, Note_on_c, 0, 88, 91
2, 98124, Note_on_c, 0, 73, 106
2, 98149, Note_on_c, 0, 88, 0
2, 98161, Note_on_c, 0, 73, 0
2, 98175, Note_on_c, 0, 83, 92
2, 98213, Note_on_c, 0, 81, 99
2, 98216, Note_on_c, 0, 83, 0
2, 98241, Note_on_c, 0, 81, 0
2, 98260, Control_c, 0, 64, 63
2, 98261, Note_on_c, 0, 74, 112
2, 98268, Note_on_c, 0, 88, 91
2, 98271, Control_c, 0, 64, 127
2, 98273, Note_on_c, 0, 80, 110
2, 98307, Note_on_c, 0, 74, 0
2, 98311, Note_on_c, 0, 80, 0
2, 98314, Note_on_c, 0, 83, 100
2, 98338, Note_on_c, 0, 88, 0
2, 98340, Note_on_c, 0, 83, 0
2, 98374, Note_on_c, 0, 88, 100
2, 98399, Note_on_c, 0, 88, 0
2, 98417, Note_on_c, 0, 100, 113
2, 98419, Note_on_c, 0, 92, 115
2, 98422, Note_on_c, 0, 64, 116
2, 98437, Control_c, 0, 64, 63
2, 98440, Control_c, 0, 64, 0
2, 98442, Note_on_c, 0, 92, 0
2, 98447, Note_on_c, 0, 100, 0
2, 98451, Note_on_c, 0, 64, 0
2, 98572, Note_on_c, 0, 57, 122
2, 98573, Control_c, 0, 64, 63
2, 98574, Note_on_c, 0, 93, 114
2, 98574, Control_c, 0, 64, 127
2, 98599, Note_on_c, 0, 93, 0
2, 98618, Note_on_c, 0, 57, 0
2, 98798, Note_on_c, 0, 73, 116
2, 98799, Note_on_c, 0, 96, 121
2, 98804, Note_on_c, 0, 64, 91
2, 98895, Note_on_c, 0, 98, 88
2, 98904, Note_on_c, 0, 96, 0
2, 98930, Note_on_c, 0, 73, 0
2, 98943, Note_on_c, 0, 64, 0
2, 98960, Note_on_c, 0, 97, 96
2, 98980, Note_on_c, 0, 98, 0
2, 99009, Note_on_c, 0, 97, 0
2, 99010, Note_on_c, 0, 93, 86
2, 99057, Note_on_c, 0, 93, 0
2, 99061, Note_on_c, 0, 92, 108
2, 99111, Note_on_c, 0, 95, 99
2, 99113, Note_on_c, 0, 92, 0
2, 99144, Note_on_c, 0, 69, 100
2, 99147, Note_on_c, 0, 61, 100
2, 99160, Note_on_c, 0, 93, 96
2, 99183, Note_on_c, 0, 95, 0
2, 99204, Note_on_c, 0, 88, 92
2, 99209, Note_on_c, 0, 69, 0
2, 99215, Note_on_c, 0, 93, 0
2, 99252, Note_on_c, 0, 87, 109
2, 99257, Note_on_c, 0, 88, 0
2, 99263, Note_on_c, 0, 61, 0
2, 99296, Note_on_c, 0, 64, 87
2, 99299, Note_on_c, 0, 57, 82
2, 99305, Note_on_c, 0, 90, 90
2, 99319, Note_on_c, 0, 64, 0
2, 99321, Note_on_c, 0, 87, 0
2, 99337, Note_on_c, 0, 57, 0
2, 99353, Note_on_c, 0, 88, 78
2, 99385, Note_on_c, 0, 90, 0
2, 99403, Note_on_c, 0, 85, 83
2, 99414, Note_on_c, 0, 88, 0
2, 99448, Note_on_c, 0, 61, 96
2, 99451, Note_on_c, 0, 52, 82
2, 99454, Note_on_c, 0, 84, 92
2, 99460, Note_on_c, 0, 85, 0
2, 99472, Note_on_c, 0, 61, 0
2, 99481, Note_on_c, 0, 52, 0
2, 99501, Note_on_c, 0, 86, 100
2, 99503, Note_on_c, 0, 84, 0
2, 99549, Note_on_c, 0, 85, 103
2, 99566, Note_on_c, 0, 86, 0
2, 99596, Note_on_c, 0, 85, 0
2, 99596, Note_on_c, 0, 81, 89
2, 99596, Note_on_c, 0, 57, 104
2, 99601, Note_on_c, 0, 45, 101
2, 99643, Note_on_c, 0, 81, 0
2, 99644, Note_on_c, 0, 80, 104
2, 99688, Control_c, 0, 64, 63
2, 99694, Note_on_c, 0, 83, 90
2, 99694, Control_c, 0, 64, 0
2, 99703, Note_on_c, 0, 80, 0
2, 99740, Note_on_c, 0, 81, 94
2, 99743, Control_c, 0, 64, 63
2, 99750, Note_on_c, 0, 45, 0
2, 99751, Control_c, 0, 64, 127
2, 99764, Note_on_c, 0, 83, 0
2, 99779, Note_on_c, 0, 57, 0
2, 99791, Note_on_c, 0, 78, 103
2, 99804, Note_on_c, 0, 81, 0
2, 99837, Note_on_c, 0, 76, 93
2, 99842, Note_on_c, 0, 78, 0
2, 99873, Control_c, 0, 64, 63
2, 99878, Control_c, 0, 64, 0
2, 99887, Note_on_c, 0, 75, 108
2, 99889, Note_on_c, 0, 76, 0
2, 99895, Note_on_c, 0, 47, 96
2, 99902, Note_on_c, 0, 59, 108
2, 99905, Control_c, 0, 64, 63
2, 99917, Control_c, 0, 64, 127
2, 99926, Note_on_c, 0, 47, 0
2, 99932, Note_on_c, 0, 75, 0
2, 99934, Note_on_c, 0, 59, 0
2, 99936, Note_on_c, 0, 76, 96
2, 99995, Note_on_c, 0, 78, 95
2, 99998, Note_on_c, 0, 76, 0
2, 100045, Note_on_c, 0, 80, 96
2, 100051, Note_on_c, 0, 69, 111
2, 100053, Note_on_c, 0, 59, 109
2, 100057, Note_on_c, 0, 78, 0
2, 100073, Control_c, 0, 64, 63
2, 100091, Note_on_c, 0, 80, 0
2, 100098, Note_on_c, 0, 81, 88
2, 100117, Control_c, 0, 64, 127
2, 100148, Note_on_c, 0, 81, 0
2, 100150, Note_on_c, 0, 83, 90
2, 100197, Note_on_c, 0, 85, 104
2, 100201, Note_on_c, 0, 83, 0
2, 100207, Note_on_c, 0, 69, 0
2, 100226, Note_on_c, 0, 59, 0
2, 100240, Note_on_c, 0, 87, 99
2, 100249, Note_on_c, 0, 85, 0
2, 100275, Note_on_c, 0, 87, 0
2, 100284, Note_on_c, 0, 88, 93
2, 100339, Note_on_c, 0, 90, 103
2, 100342, Note_on_c, 0, 88, 0
2, 100345, Note_on_c, 0, 66, 108
2, 100346, Note_on_c, 0, 57, 91
2, 100372, Note_on_c, 0, 66, 0
2, 100375, Note_on_c, 0, 57, 0
2, 100389, Note_on_c, 0, 92, 105
2, 100407, Note_on_c, 0, 90, 0
2, 100440, Note_on_c, 0, 95, 97
2, 100454, Note_on_c, 0, 92, 0
2, 100491, Note_on_c, 0, 93, 98
2, 100493, Note_on_c, 0, 63, 90
2, 100496, Note_on_c, 0, 54, 90
2, 100507, Note_on_c, 0, 63, 0
2, 100511, Note_on_c, 0, 54, 0
2, 100511, Note_on_c, 0, 95, 0
2, 100541, Note_on_c, 0, 90, 107
2, 100549, Note_on_c, 0, 93, 0
2, 100587, Note_on_c, 0, 90, 0
2, 100590, Note_on_c, 0, 87, 105
2, 100631, Note_on_c, 0, 87, 0
2, 100631, Note_on_c, 0, 47, 111
2, 100633, Note_on_c, 0, 59, 106
2, 100638, Note_on_c, 0, 83, 87
2, 100649, Note_on_c, 0, 59, 0
2, 100661, Note_on_c, 0, 47, 0
2, 100664, Note_on_c, 0, 83, 0
2, 100694, Note_on_c, 0, 81, 84
2, 100735, Note_on_c, 0, 78, 106
2, 100737, Note_on_c, 0, 81, 0
2, 100783, Note_on_c, 0, 35, 92
2, 100787, Note_on_c, 0, 75, 110
2, 100788, Note_on_c, 0, 47, 103
2, 100795, Note_on_c, 0, 78, 0
2, 100832, Note_on_c, 0, 75, 0
2, 100835, Note_on_c, 0, 71, 85
2, 100862, Note_on_c, 0, 71, 0
2, 100889, Note_on_c, 0, 69, 98
2, 100891, Note_on_c, 0, 35, 0
2, 100921, Note_on_c, 0, 47, 0
2, 100932, Note_on_c, 0, 66, 110
2, 100934, Note_on_c, 0, 69, 0
2, 100967, Control_c, 0, 64, 63
2, 100973, Control_c, 0, 64, 0
2, 100977, Note_on_c, 0, 66, 0
2, 100986, Note_on_c, 0, 63, 109
2, 101023, Note_on_c, 0, 63, 0
2, 101029, Note_on_c, 0, 59, 81
2, 101056, Note_on_c, 0, 59, 0
2, 101075, Note_on_c, 0, 64, 117
2, 101082, Note_on_c, 0, 52, 122
2, 101082, Note_on_c, 0, 40, 113
2, 101096, Control_c, 0, 64, 63
2, 101096, Control_c, 0, 64, 127
2, 101106, Note_on_c, 0, 64, 0
2, 101110, Note_on_c, 0, 40, 0
2, 101113, Note_on_c, 0, 52, 0
2, 101231, Control_c, 0, 64, 63
2, 101246, Control_c, 0, 64, 0
2, 101255, Note_on_c, 0, 63, 87
2, 101258, Note_on_c, 0, 56, 80
2, 101259, Note_on_c, 0, 59, 64
2, 101279, Note_on_c, 0, 56, 0
2, 101280, Note_on_c, 0, 59, 0
2, 101291, Note_on_c, 0, 63, 0
2, 101292, Control_c, 0, 64, 63
2, 101294, Note_on_c, 0, 64, 85
2, 101325, Control_c, 0, 64, 0
2, 101338, Note_on_c, 0, 64, 0
2, 101350, Note_on_c, 0, 76, 99
2, 101374, Control_c, 0, 64, 63
2, 101381, Control_c, 0, 64, 127
2, 101390, Note_on_c, 0, 40, 102
2, 101391, Note_on_c, 0, 52, 92
2, 101393, Note_on_c, 0, 76, 0
2, 101398, Note_on_c, 0, 65, 102
2, 101401, Note_on_c, 0, 40, 0
2, 101416, Note_on_c, 0, 52, 0
2, 101431, Note_on_c, 0, 65, 0
2, 101540, Note_on_c, 0, 64, 78
2, 101546, Note_on_c, 0, 57, 84
2, 101548, Note_on_c, 0, 59, 84
2, 101554, Control_c, 0, 64, 63
2, 101565, Control_c, 0, 64, 0
2, 101578, Note_on_c, 0, 57, 0
2, 101579, Note_on_c, 0, 65, 68
2, 101580, Note_on_c, 0, 59, 0
2, 101582, Note_on_c, 0, 64, 0
2, 101594, Control_c, 0, 64, 63
2, 101616, Note_on_c, 0, 65, 0
2, 101624, Control_c, 0, 64, 127
2, 101627, Note_on_c, 0, 77, 96
2, 101658, Note_on_c, 0, 77, 0
2, 101696, Note_on_c, 0, 57, 94
2, 101696, Note_on_c, 0, 66, 108
2, 101696, Note_on_c, 0, 60, 109
2, 101723, Note_on_c, 0, 57, 0
2, 101728, Note_on_c, 0, 60, 0
2, 101731, Note_on_c, 0, 66, 0
2, 101841, Note_on_c, 0, 61, 106
2, 101842, Note_on_c, 0, 57, 93
2, 101845, Note_on_c, 0, 65, 82
2, 101863, Note_on_c, 0, 61, 0
2, 101869, Note_on_c, 0, 57, 0
2, 101883, Note_on_c, 0, 65, 0
2, 101888, Note_on_c, 0, 66, 92
2, 101902, Note_on_c, 0, 66, 0
2, 101936, Note_on_c, 0, 78, 92
2, 101956, Control_c, 0, 64, 63
2, 101959, Control_c, 0, 64, 0
2, 101969, Note_on_c, 0, 78, 0
2, 101984, Note_on_c, 0, 40, 78
2, 101989, Note_on_c, 0, 71, 112
2, 101990, Note_on_c, 0, 52, 92
2, 101997, Control_c, 0, 64, 63
2, 102003, Note_on_c, 0, 40, 0
2, 102005, Control_c, 0, 64, 127
2, 102012, Note_on_c, 0, 52, 0
2, 102022, Note_on_c, 0, 71, 0
2, 102135, Note_on_c, 0, 63, 108
2, 102138, Note_on_c, 0, 57, 86
2, 102143, Note_on_c, 0, 70, 112
2, 102160, Note_on_c, 0, 57, 0
2, 102162, Note_on_c, 0, 63, 0
2, 102181, Note_on_c, 0, 70, 0
2, 102183, Note_on_c, 0, 71, 98
2, 102226, Note_on_c, 0, 71, 0
2, 102228, Control_c, 0, 64, 63
2, 102233, Note_on_c, 0, 83, 98
2, 102236, Control_c, 0, 64, 0
2, 102269, Note_on_c, 0, 83, 0
2, 102277, Control_c, 0, 64, 63
2, 102278, Note_on_c, 0, 52, 90
2, 102280, Note_on_c, 0, 64, 102
2, 102284, Note_on_c, 0, 76, 116
2, 102285, Control_c, 0, 64, 127
2, 102291, Note_on_c, 0, 52, 0
2, 102304, Note_on_c, 0, 64, 0
2, 102315, Note_on_c, 0, 76, 0
2, 102426, Note_on_c, 0, 75, 103
2, 102431, Note_on_c, 0, 71, 90
2, 102432, Note_on_c, 0, 68, 88
2, 102450, Note_on_c, 0, 68, 0
2, 102452, Note_on_c, 0, 71, 0
2, 102463, Note_on_c, 0, 76, 98
2, 102465, Note_on_c, 0, 75, 0
2, 102494, Control_c, 0, 64, 63
2, 102502, Control_c, 0, 64, 0
2, 102506, Note_on_c, 0, 76, 0
2, 102519, Note_on_c, 0, 88, 98
2, 102565, Control_c, 0, 64, 63
2, 102566, Note_on_c, 0, 52, 102
2, 102567, Note_on_c, 0, 64, 106
2, 102569, Note_on_c, 0, 88, 0
2, 102570, Control_c, 0, 64, 127
2, 102575, Note_on_c, 0, 77, 111
2, 102579, Note_on_c, 0, 52, 0
2, 102591, Note_on_c, 0, 64, 0
2, 102613, Note_on_c, 0, 77, 0
2, 102715, Note_on_c, 0, 76, 91
2, 102720, Note_on_c, 0, 69, 100
2, 102722, Note_on_c, 0, 71, 96
2, 102750, Note_on_c, 0, 69, 0
2, 102754, Note_on_c, 0, 77, 96
2, 102756, Note_on_c, 0, 76, 0
2, 102757, Note_on_c, 0, 71, 0
2, 102793, Note_on_c, 0, 77, 0
2, 102803, Note_on_c, 0, 89, 82
2, 102834, Note_on_c, 0, 89, 0
2, 102838, Control_c, 0, 64, 63
2, 102854, Control_c, 0, 64, 127
2, 102864, Note_on_c, 0, 72, 107
2, 102866, Note_on_c, 0, 69, 98
2, 102868, Note_on_c, 0, 78, 109
2, 102886, Note_on_c, 0, 69, 0
2, 102889, Note_on_c, 0, 78, 0
2, 102897, Note_on_c, 0, 72, 0
2, 103014, Note_on_c, 0, 69, 100
2, 103015, Note_on_c, 0, 73, 108
2, 103018, Note_on_c, 0, 77, 92
2, 103039, Note_on_c, 0, 73, 0
2, 103042, Note_on_c, 0, 69, 0
2, 103058, Note_on_c, 0, 77, 0
2, 103061, Note_on_c, 0, 78, 107
2, 103086, Note_on_c, 0, 78, 0
2, 103112, Note_on_c, 0, 90, 99
2, 103145, Note_on_c, 0, 90, 0
2, 103145, Control_c, 0, 64, 63
2, 103153, Control_c, 0, 64, 0
2, 103163, Note_on_c, 0, 52, 92
2, 103166, Control_c, 0, 64, 63
2, 103172, Note_on_c, 0, 64, 118
2, 103173, Note_on_c, 0, 83, 97
2, 103184, Control_c, 0, 64, 127
2, 103209, Note_on_c, 0, 64, 0
2, 103225, Note_on_c, 0, 83, 0
2, 103303, Note_on_c, 0, 52, 0
2, 103327, Note_on_c, 0, 75, 106
2, 103328, Note_on_c, 0, 82, 100
2, 103330, Note_on_c, 0, 69, 79
2, 103357, Note_on_c, 0, 69, 0
2, 103360, Note_on_c, 0, 75, 0
2, 103371, Note_on_c, 0, 82, 0
2, 103372, Note_on_c, 0, 83, 91
2, 103410, Note_on_c, 0, 83, 0
2, 103420, Note_on_c, 0, 95, 96
2, 103447, Control_c, 0, 64, 63
2, 103451, Control_c, 0, 64, 0
2, 103468, Note_on_c, 0, 95, 0
2, 103476, Note_on_c, 0, 64, 73
2, 103482, Note_on_c, 0, 68, 98
2, 103484, Note_on_c, 0, 76, 108
2, 103488, Control_c, 0, 64, 63
2, 103489, Note_on_c, 0, 88, 94
2, 103494, Control_c, 0, 64, 127
2, 103500, Note_on_c, 0, 68, 0
2, 103502, Note_on_c, 0, 76, 0
2, 103517, Note_on_c, 0, 88, 0
2, 103652, Note_on_c, 0, 64, 0
2, 103667, Note_on_c, 0, 90, 84
2, 103668, Note_on_c, 0, 86, 67
2, 103708, Note_on_c, 0, 86, 0
2, 103711, Note_on_c, 0, 83, 74
2, 103713, Note_on_c, 0, 95, 78
2, 103714, Note_on_c, 0, 90, 0
2, 103749, Note_on_c, 0, 80, 72
2, 103754, Note_on_c, 0, 83, 0
2, 103757, Note_on_c, 0, 92, 84
2, 103774, Note_on_c, 0, 95, 0
2, 103778, Note_on_c, 0, 80, 0
2, 103805, Note_on_c, 0, 97, 95
2, 103807, Note_on_c, 0, 76, 76
2, 103816, Note_on_c, 0, 92, 0
2, 103822, Control_c, 0, 64, 63
2, 103832, Control_c, 0, 64, 0
2, 103866, Note_on_c, 0, 97, 0
2, 103894, Control_c, 0, 64, 63
2, 103906, Control_c, 0, 64, 127
2, 103945, Note_on_c, 0, 76, 0
2, 103963, Note_on_c, 0, 85, 80
2, 103964, Note_on_c, 0, 88, 84
2, 104002, Note_on_c, 0, 85, 0
2, 104008, Note_on_c, 0, 93, 89
2, 104016, Note_on_c, 0, 81, 53
2, 104017, Note_on_c, 0, 88, 0
2, 104035, Note_on_c, 0, 78, 63
2, 104043, Note_on_c, 0, 81, 0
2, 104054, Note_on_c, 0, 90, 91
2, 104062, Note_on_c, 0, 93, 0
2, 104073, Control_c, 0, 64, 63
2, 104095, Note_on_c, 0, 78, 0
2, 104103, Note_on_c, 0, 95, 82
2, 104105, Note_on_c, 0, 74, 53
2, 104105, Control_c, 0, 64, 127
2, 104106, Note_on_c, 0, 90, 0
2, 104189, Note_on_c, 0, 74, 0
2, 104191, Note_on_c, 0, 95, 0
2, 104254, Note_on_c, 0, 83, 68
2, 104255, Note_on_c, 0, 86, 84
2, 104285, Note_on_c, 0, 80, 72
2, 104293, Note_on_c, 0, 92, 99
2, 104300, Note_on_c, 0, 83, 0
2, 104303, Control_c, 0, 64, 63
2, 104304, Note_on_c, 0, 86, 0
2, 104311, Control_c, 0, 64, 0
2, 104332, Note_on_c, 0, 76, 68
2, 104339, Note_on_c, 0, 80, 0
2, 104345, Note_on_c, 0, 88, 84
2, 104346, Note_on_c, 0, 92, 0
2, 104389, Control_c, 0, 64, 63
2, 104392, Control_c, 0, 64, 127
2, 104394, Note_on_c, 0, 88, 0
2, 104394, Note_on_c, 0, 76, 0
2, 104398, Note_on_c, 0, 73, 85
2, 104403, Note_on_c, 0, 93, 76
2, 104455, Note_on_c, 0, 93, 0
2, 104457, Note_on_c, 0, 73, 0
2, 104544, Note_on_c, 0, 85, 84
2, 104547, Note_on_c, 0, 81, 51
2, 104582, Note_on_c, 0, 78, 68
2, 104588, Note_on_c, 0, 90, 82
2, 104591, Note_on_c, 0, 81, 0
2, 104591, Note_on_c, 0, 85, 0
2, 104635, Note_on_c, 0, 86, 72
2, 104640, Note_on_c, 0, 78, 0
2, 104645, Note_on_c, 0, 90, 0
2, 104645, Note_on_c, 0, 74, 34
2, 104672, Control_c, 0, 64, 63
2, 104678, Control_c, 0, 64, 0
2, 104691, Note_on_c, 0, 74, 0
2, 104691, Note_on_c, 0, 92, 94
2, 104697, Note_on_c, 0, 86, 0
2, 104699, Note_on_c, 0, 71, 56
2, 104705, Control_c, 0, 64, 63
2, 104718, Control_c, 0, 64, 127
2, 104765, Note_on_c, 0, 92, 0
2, 104767, Note_on_c, 0, 71, 0
2, 104838, Note_on_c, 0, 80, 76
2, 104839, Note_on_c, 0, 83, 77
2, 104884, Note_on_c, 0, 80, 0
2, 104888, Note_on_c, 0, 88, 74
2, 104894, Note_on_c, 0, 83, 0
2, 104900, Note_on_c, 0, 76, 46
2, 104922, Note_on_c, 0, 73, 65
2, 104927, Note_on_c, 0, 85, 78
2, 104929, Note_on_c, 0, 76, 0
2, 104933, Note_on_c, 0, 88, 0
2, 104977, Control_c, 0, 64, 63
2, 104985, Control_c, 0, 64, 0
2, 104987, Note_on_c, 0, 90, 88
2, 104988, Note_on_c, 0, 73, 0
2, 104990, Note_on_c, 0, 69, 54
2, 104994, Note_on_c, 0, 85, 0
2, 105004, Control_c, 0, 64, 63
2, 105023, Control_c, 0, 64, 127
2, 105056, Note_on_c, 0, 69, 0
2, 105070, Note_on_c, 0, 90, 0
2, 105139, Note_on_c, 0, 78, 70
2, 105139, Note_on_c, 0, 81, 77
2, 105180, Note_on_c, 0, 78, 0
2, 105183, Note_on_c, 0, 86, 82
2, 105191, Note_on_c, 0, 81, 0
2, 105201, Note_on_c, 0, 74, 24
2, 105221, Note_on_c, 0, 71, 60
2, 105229, Note_on_c, 0, 83, 68
2, 105231, Note_on_c, 0, 74, 0
2, 105242, Note_on_c, 0, 86, 0
2, 105266, Note_on_c, 0, 68, 81
2, 105266, Control_c, 0, 64, 63
2, 105275, Control_c, 0, 64, 0
2, 105281, Note_on_c, 0, 88, 67
2, 105283, Note_on_c, 0, 71, 0
2, 105290, Note_on_c, 0, 83, 0
2, 105297, Control_c, 0, 64, 63
2, 105314, Control_c, 0, 64, 127
2, 105351, Note_on_c, 0, 88, 0
2, 105358, Note_on_c, 0, 68, 0
2, 105428, Note_on_c, 0, 80, 79
2, 105430, Note_on_c, 0, 76, 59
2, 105471, Note_on_c, 0, 85, 75
2, 105479, Note_on_c, 0, 73, 60
2, 105481, Note_on_c, 0, 80, 0
2, 105484, Note_on_c, 0, 76, 0
2, 105520, Note_on_c, 0, 81, 52
2, 105522, Note_on_c, 0, 69, 25
2, 105524, Note_on_c, 0, 73, 0
2, 105532, Note_on_c, 0, 85, 0
2, 105552, Control_c, 0, 64, 63
2, 105562, Control_c, 0, 64, 0
2, 105563, Note_on_c, 0, 66, 78
2, 105575, Note_on_c, 0, 69, 0
2, 105577, Note_on_c, 0, 86, 75
2, 105583, Control_c, 0, 64, 63
2, 105591, Note_on_c, 0, 81, 0
2, 105601, Control_c, 0, 64, 127
2, 105644, Note_on_c, 0, 86, 0
2, 105647, Note_on_c, 0, 66, 0
2, 105716, Note_on_c, 0, 78, 75
2, 105720, Note_on_c, 0, 74, 53
2, 105766, Note_on_c, 0, 71, 47
2, 105768, Note_on_c, 0, 74, 0
2, 105768, Note_on_c, 0, 83, 61
2, 105775, Note_on_c, 0, 78, 0
2, 105804, Note_on_c, 0, 68, 50
2, 105805, Note_on_c, 0, 80, 76
2, 105822, Note_on_c, 0, 71, 0
2, 105830, Note_on_c, 0, 83, 0
2, 105842, Control_c, 0, 64, 63
2, 105852, Control_c, 0, 64, 0
2, 105861, Note_on_c, 0, 85, 84
2, 105869, Note_on_c, 0, 68, 0
2, 105872, Note_on_c, 0, 64, 47
2, 105878, Note_on_c, 0, 80, 0
2, 105883, Control_c, 0, 64, 63
2, 105898, Control_c, 0, 64, 127
2, 105911, Note_on_c, 0, 64, 0
2, 105922, Note_on_c, 0, 85, 0
2, 106013, Note_on_c, 0, 76, 65
2, 106017, Note_on_c, 0, 73, 63
2, 106056, Note_on_c, 0, 81, 67
2, 106060, Note_on_c, 0, 73, 0
2, 106062, Note_on_c, 0, 76, 0
2, 106079, Note_on_c, 0, 69, 23
2, 106099, Note_on_c, 0, 66, 53
2, 106100, Note_on_c, 0, 78, 72
2, 106112, Note_on_c, 0, 69, 0
2, 106116, Note_on_c, 0, 81, 0
2, 106148, Control_c, 0, 64, 63
2, 106158, Control_c, 0, 64, 0
2, 106158, Note_on_c, 0, 83, 71
2, 106163, Note_on_c, 0, 78, 0
2, 106165, Note_on_c, 0, 62, 43
2, 106167, Note_on_c, 0, 66, 0
2, 106197, Control_c, 0, 64, 63
2, 106208, Control_c, 0, 64, 127
2, 106221, Note_on_c, 0, 62, 0
2, 106226, Note_on_c, 0, 83, 0
2, 106312, Note_on_c, 0, 74, 67
2, 106312, Note_on_c, 0, 71, 52
2, 106341, Note_on_c, 0, 68, 61
2, 106343, Note_on_c, 0, 80, 80
2, 106351, Note_on_c, 0, 71, 0
2, 106357, Note_on_c, 0, 74, 0
2, 106395, Note_on_c, 0, 68, 0
2, 106398, Note_on_c, 0, 76, 59
2, 106400, Note_on_c, 0, 64, 42
2, 106403, Note_on_c, 0, 80, 0
2, 106426, Control_c, 0, 64, 63
2, 106438, Control_c, 0, 64, 0
2, 106452, Note_on_c, 0, 61, 71
2, 106455, Note_on_c, 0, 64, 0
2, 106462, Note_on_c, 0, 81, 65
2, 106466, Note_on_c, 0, 76, 0
2, 106472, Control_c, 0, 64, 63
2, 106485, Control_c, 0, 64, 127
2, 106514, Note_on_c, 0, 81, 0
2, 106518, Note_on_c, 0, 61, 0
2, 106604, Note_on_c, 0, 73, 78
2, 106623, Note_on_c, 0, 69, 28
2, 106646, Note_on_c, 0, 66, 63
2, 106647, Note_on_c, 0, 78, 79
2, 106660, Note_on_c, 0, 73, 0
2, 106668, Note_on_c, 0, 69, 0
2, 106698, Note_on_c, 0, 74, 59
2, 106701, Note_on_c, 0, 66, 0
2, 106701, Note_on_c, 0, 62, 35
2, 106711, Note_on_c, 0, 78, 0
2, 106718, Control_c, 0, 64, 63
2, 106727, Control_c, 0, 64, 0
2, 106745, Note_on_c, 0, 62, 0
2, 106751, Note_on_c, 0, 80, 82
2, 106754, Note_on_c, 0, 59, 67
2, 106767, Control_c, 0, 64, 63
2, 106774, Note_on_c, 0, 74, 0
2, 106778, Control_c, 0, 64, 127
2, 106801, Note_on_c, 0, 59, 0
2, 106811, Note_on_c, 0, 80, 0
2, 106904, Note_on_c, 0, 68, 53
2, 106907, Note_on_c, 0, 71, 57
2, 106942, Note_on_c, 0, 68, 0
2, 106951, Note_on_c, 0, 76, 59
2, 106955, Note_on_c, 0, 71, 0
2, 106987, Note_on_c, 0, 61, 47
2, 106999, Note_on_c, 0, 73, 62
2, 107006, Note_on_c, 0, 76, 0
2, 107023, Control_c, 0, 64, 63
2, 107034, Control_c, 0, 64, 0
2, 107055, Note_on_c, 0, 57, 49
2, 107057, Note_on_c, 0, 78, 79
2, 107058, Note_on_c, 0, 61, 0
2, 107066, Note_on_c, 0, 73, 0
2, 107070, Control_c, 0, 64, 63
2, 107083, Control_c, 0, 64, 127
2, 107106, Note_on_c, 0, 57, 0
2, 107112, Note_on_c, 0, 78, 0
2, 107200, Note_on_c, 0, 69, 60
2, 107201, Note_on_c, 0, 66, 49
2, 107234, Note_on_c, 0, 66, 0
2, 107247, Note_on_c, 0, 74, 65
2, 107254, Note_on_c, 0, 69, 0
2, 107263, Note_on_c, 0, 62, 13
2, 107284, Note_on_c, 0, 59, 41
2, 107291, Note_on_c, 0, 62, 0
2, 107300, Note_on_c, 0, 71, 57
2, 107311, Control_c, 0, 64, 63
2, 107312, Note_on_c, 0, 74, 0
2, 107321, Control_c, 0, 64, 0
2, 107336, Note_on_c, 0, 56, 63
2, 107352, Note_on_c, 0, 59, 0
2, 107353, Control_c, 0, 64, 63
2, 107358, Note_on_c, 0, 76, 65
2, 107367, Note_on_c, 0, 71, 0
2, 107368, Control_c, 0, 64, 127
2, 107395, Note_on_c, 0, 76, 0
2, 107401, Note_on_c, 0, 56, 0
2, 107495, Note_on_c, 0, 68, 72
2, 107512, Note_on_c, 0, 64, 33
2, 107544, Note_on_c, 0, 73, 69
2, 107549, Note_on_c, 0, 61, 54
2, 107554, Note_on_c, 0, 68, 0
2, 107560, Note_on_c, 0, 64, 0
2, 107581, Note_on_c, 0, 61, 0
2, 107593, Note_on_c, 0, 69, 42
2, 107595, Note_on_c, 0, 57, 19
2, 107616, Note_on_c, 0, 73, 0
2, 107638, Control_c, 0, 64, 63
2, 107648, Control_c, 0, 64, 0
2, 107658, Note_on_c, 0, 54, 62
2, 107660, Note_on_c, 0, 74, 71
2, 107677, Note_on_c, 0, 57, 0
2, 107681, Note_on_c, 0, 69, 0
2, 107693, Control_c, 0, 64, 63
2, 107705, Control_c, 0, 64, 127
2, 107710, Note_on_c, 0, 74, 0
2, 107717, Note_on_c, 0, 54, 0
2, 107828, Note_on_c, 0, 62, 63
2, 107833, Note_on_c, 0, 65, 54
2, 107877, Note_on_c, 0, 59, 58
2, 107898, Note_on_c, 0, 71, 64
2, 107936, Note_on_c, 0, 57, 28
2, 107942, Note_on_c, 0, 69, 60
2, 107952, Note_on_c, 0, 71, 0
2, 108009, Note_on_c, 0, 73, 76
2, 108018, Note_on_c, 0, 53, 33
2, 108028, Control_c, 0, 64, 63
2, 108029, Control_c, 0, 64, 127
2, 108046, Note_on_c, 0, 65, 0
2, 108056, Note_on_c, 0, 73, 0
2, 108056, Note_on_c, 0, 59, 0
2, 108056, Note_on_c, 0, 62, 0
2, 108057, Note_on_c, 0, 69, 0
2, 108061, Note_on_c, 0, 57, 0
2, 108069, Note_on_c, 0, 53, 0
2, 108088, Control_c, 0, 64, 63
2, 108093, Control_c, 0, 64, 0
2, 108230, Note_on_c, 0, 68, 62
2, 108234, Note_on_c, 0, 59, 44
2, 108235, Note_on_c, 0, 71, 59
2, 108237, Note_on_c, 0, 62, 41
2, 108239, Note_on_c, 0, 52, 42
2, 108247, Note_on_c, 0, 64, 27
2, 108270, Note_on_c, 0, 59, 0
2, 108276, Note_on_c, 0, 62, 0
2, 108277, Note_on_c, 0, 68, 0
2, 108278, Note_on_c, 0, 71, 0
2, 108285, Note_on_c, 0, 64, 0
2, 108292, Note_on_c, 0, 52, 0
2, 108503, Note_on_c, 0, 61, 41
2, 108505, Control_c, 0, 64, 63
2, 108505, Note_on_c, 0, 45, 38
2, 108506, Note_on_c, 0, 57, 21
2, 108507, Note_on_c, 0, 52, 40
2, 108507, Note_on_c, 0, 69, 50
2, 108508, Control_c, 0, 64, 127
2, 108541, Note_on_c, 0, 52, 0
2, 108545, Note_on_c, 0, 45, 0
2, 108547, Note_on_c, 0, 57, 0
2, 108554, Note_on_c, 0, 69, 0
2, 108555, Note_on_c, 0, 61, 0
2, 108749, Control_c, 0, 64, 63
2, 108753, Control_c, 0, 64, 0
2, 110841, Note_on_c, 0, 81, 90
2, 110858, Note_on_c, 0, 69, 39
2, 111041, Note_on_c, 0, 85, 95
2, 111048, Note_on_c, 0, 73, 81
2, 111082, Note_on_c, 0, 81, 0
2, 111120, Note_on_c, 0, 69, 0
2, 111223, Note_on_c, 0, 78, 86
2, 111224, Note_on_c, 0, 90, 96
2, 111262, Note_on_c, 0, 73, 0
2, 111263, Note_on_c, 0, 85, 0
2, 111491, Note_on_c, 0, 90, 0
2, 111505, Note_on_c, 0, 88, 89
2, 111523, Note_on_c, 0, 76, 56
2, 111529, Note_on_c, 0, 78, 0
2, 111591, Note_on_c, 0, 90, 96
2, 111604, Note_on_c, 0, 78, 80
2, 111620, Note_on_c, 0, 76, 0
2, 111626, Note_on_c, 0, 88, 0
2, 111666, Note_on_c, 0, 88, 89
2, 111676, Note_on_c, 0, 78, 0
2, 111684, Note_on_c, 0, 76, 74
2, 111694, Note_on_c, 0, 90, 0
2, 111762, Note_on_c, 0, 81, 84
2, 111776, Note_on_c, 0, 69, 73
2, 111786, Note_on_c, 0, 88, 0
2, 111824, Note_on_c, 0, 76, 0
2, 111920, Note_on_c, 0, 83, 71
2, 111922, Note_on_c, 0, 71, 81
2, 111940, Note_on_c, 0, 69, 0
2, 111965, Note_on_c, 0, 81, 0
2, 112028, Note_on_c, 0, 69, 49
2, 112044, Note_on_c, 0, 83, 0
2, 112053, Note_on_c, 0, 81, 67
2, 112057, Note_on_c, 0, 71, 0
2, 112085, Note_on_c, 0, 71, 49
2, 112089, Note_on_c, 0, 83, 53
2, 112113, Note_on_c, 0, 81, 0
2, 112116, Note_on_c, 0, 69, 0
2, 112123, Note_on_c, 0, 85, 88
2, 112131, Note_on_c, 0, 73, 72
2, 112165, Note_on_c, 0, 83, 0
2, 112165, Note_on_c, 0, 71, 0
2, 113000, Note_on_c, 0, 83, 72
2, 113019, Note_on_c, 0, 73, 0
2, 113023, Note_on_c, 0, 71, 61
2, 113034, Note_on_c, 0, 85, 0
2, 113092, Note_on_c, 0, 81, 88
2, 113103, Note_on_c, 0, 69, 73
2, 113126, Note_on_c, 0, 71, 0
2, 113131, Note_on_c, 0, 83, 0
2, 113185, Note_on_c, 0, 76, 90
2, 113200, Note_on_c, 0, 64, 71
2, 113221, Note_on_c, 0, 81, 0
2, 113227, Note_on_c, 0, 69, 0
2, 113348, Note_on_c, 0, 76, 0
2, 113377, Note_on_c, 0, 78, 90
2, 113380, Note_on_c, 0, 66, 77
2, 113388, Note_on_c, 0, 64, 0
2, 113416, Note_on_c, 0, 80, 86
2, 113421, Note_on_c, 0, 78, 0
2, 113431, Note_on_c, 0, 68, 65
2, 113447, Note_on_c, 0, 66, 0
2, 113459, Note_on_c, 0, 78, 66
2, 113471, Note_on_c, 0, 80, 0
2, 113511, Note_on_c, 0, 66, 22
2, 113523, Note_on_c, 0, 68, 0
2, 113623, Note_on_c, 0, 76, 72
2, 113643, Note_on_c, 0, 64, 52
2, 113648, Note_on_c, 0, 66, 0
2, 113655, Note_on_c, 0, 78, 0
2, 113791, Note_on_c, 0, 76, 0
2, 113838, Note_on_c, 0, 61, 72
2, 113838, Note_on_c, 0, 73, 64
2, 113849, Note_on_c, 0, 64, 0
2, 113912, Note_on_c, 0, 74, 82
2, 113919, Note_on_c, 0, 62, 74
2, 113927, Note_on_c, 0, 73, 0
2, 113949, Note_on_c, 0, 61, 0
2, 114016, Note_on_c, 0, 76, 97
2, 114039, Note_on_c, 0, 64, 84
2, 114046, Note_on_c, 0, 74, 0
2, 114055, Note_on_c, 0, 62, 0
2, 114235, Note_on_c, 0, 66, 81
2, 114235, Note_on_c, 0, 78, 93
2, 114246, Note_on_c, 0, 76, 0
2, 114265, Note_on_c, 0, 64, 0
2, 114319, Note_on_c, 0, 68, 87
2, 114320, Note_on_c, 0, 80, 101
2, 114343, Note_on_c, 0, 66, 0
2, 114371, Note_on_c, 0, 78, 0
2, 114403, Note_on_c, 0, 80, 0
2, 114427, Note_on_c, 0, 69, 77
2, 114437, Note_on_c, 0, 81, 75
2, 114451, Note_on_c, 0, 68, 0
2, 114468, Note_on_c, 0, 83, 86
2, 114477, Note_on_c, 0, 81, 0
2, 114481, Note_on_c, 0, 69, 0
2, 114484, Note_on_c, 0, 71, 68
2, 114507, Note_on_c, 0, 81, 78
2, 114522, Note_on_c, 0, 69, 41
2, 114524, Note_on_c, 0, 71, 0
2, 114531, Note_on_c, 0, 83, 0
2, 114707, Note_on_c, 0, 68, 63
2, 114708, Note_on_c, 0, 80, 82
2, 114726, Note_on_c, 0, 69, 0
2, 114741, Note_on_c, 0, 81, 0
2, 114791, Note_on_c, 0, 66, 57
2, 114796, Note_on_c, 0, 78, 91
2, 114831, Note_on_c, 0, 68, 0
2, 114852, Note_on_c, 0, 80, 0
2, 114915, Note_on_c, 0, 71, 53
2, 114918, Note_on_c, 0, 83, 68
2, 114925, Note_on_c, 0, 66, 0
2, 114947, Note_on_c, 0, 78, 0
2, 115067, Note_on_c, 0, 71, 0
2, 115072, Note_on_c, 0, 83, 0
2, 115150, Note_on_c, 0, 59, 50
2, 115154, Note_on_c, 0, 71, 66
2, 115200, Note_on_c, 0, 71, 0
2, 115210, Note_on_c, 0, 59, 0
2, 115348, Note_on_c, 0, 76, 71
2, 115351, Note_on_c, 0, 64, 53
2, 115389, Note_on_c, 0, 64, 0
2, 115394, Note_on_c, 0, 76, 0
2, 115526, Note_on_c, 0, 52, 58
2, 115537, Note_on_c, 0, 64, 38
2, 115566, Note_on_c, 0, 52, 0
2, 115583, Note_on_c, 0, 64, 0
2, 116982, Note_on_c, 0, 71, 37
2, 116991, Note_on_c, 0, 83, 75
2, 117189, Note_on_c, 0, 86, 97
2, 117194, Note_on_c, 0, 74, 78
2, 117232, Note_on_c, 0, 83, 0
2, 117253, Note_on_c, 0, 71, 0
2, 117396, Note_on_c, 0, 91, 103
2, 117402, Note_on_c, 0, 79, 72
2, 117422, Note_on_c, 0, 86, 0
2, 117430, Note_on_c, 0, 74, 0
2, 117691, Note_on_c, 0, 90, 99
2, 117694, Note_on_c, 0, 78, 73
2, 117708, Note_on_c, 0, 91, 0
2, 117718, Note_on_c, 0, 79, 0
2, 117773, Note_on_c, 0, 79, 77
2, 117773, Note_on_c, 0, 91, 97
2, 117785, Note_on_c, 0, 78, 0
2, 117806, Note_on_c, 0, 90, 0
2, 117838, Note_on_c, 0, 90, 86
2, 117849, Note_on_c, 0, 78, 96
2, 117872, Note_on_c, 0, 91, 0
2, 117880, Note_on_c, 0, 79, 0
2, 117938, Note_on_c, 0, 83, 92
2, 117946, Note_on_c, 0, 71, 86
2, 117953, Note_on_c, 0, 78, 0
2, 117957, Note_on_c, 0, 90, 0
2, 118117, Note_on_c, 0, 73, 91
2, 118125, Note_on_c, 0, 85, 106
2, 118144, Note_on_c, 0, 71, 0
2, 118166, Note_on_c, 0, 83, 0
2, 118215, Note_on_c, 0, 71, 69
2, 118240, Note_on_c, 0, 73, 0
2, 118249, Note_on_c, 0, 85, 0
2, 118262, Note_on_c, 0, 83, 72
2, 118275, Note_on_c, 0, 73, 74
2, 118289, Note_on_c, 0, 85, 61
2, 118311, Note_on_c, 0, 71, 0
2, 118316, Note_on_c, 0, 83, 0
2, 118317, Note_on_c, 0, 86, 96
2, 118320, Note_on_c, 0, 74, 65
2, 118335, Note_on_c, 0, 73, 0
2, 118347, Note_on_c, 0, 85, 0
2, 119241, Note_on_c, 0, 73, 56
2, 119252, Note_on_c, 0, 85, 66
2, 119272, Note_on_c, 0, 86, 0
2, 119281, Note_on_c, 0, 74, 0
2, 119328, Note_on_c, 0, 83, 81
2, 119332, Note_on_c, 0, 71, 63
2, 119339, Note_on_c, 0, 73, 0
2, 119350, Note_on_c, 0, 85, 0
2, 119417, Note_on_c, 0, 83, 0
2, 119419, Note_on_c, 0, 78, 83
2, 119420, Note_on_c, 0, 66, 74
2, 119447, Note_on_c, 0, 71, 0
2, 119554, Note_on_c, 0, 78, 0
2, 119593, Note_on_c, 0, 66, 0
2, 119616, Note_on_c, 0, 79, 81
2, 119620, Note_on_c, 0, 67, 53
2, 119646, Note_on_c, 0, 69, 60
2, 119657, Note_on_c, 0, 81, 70
2, 119664, Note_on_c, 0, 67, 0
2, 119665, Note_on_c, 0, 79, 0
2, 119700, Note_on_c, 0, 79, 71
2, 119703, Note_on_c, 0, 69, 0
2, 119709, Note_on_c, 0, 81, 0
2, 119709, Note_on_c, 0, 67, 12
2, 119769, Note_on_c, 0, 79, 0
2, 119806, Note_on_c, 0, 66, 74
2, 119810, Note_on_c, 0, 78, 62
2, 119836, Note_on_c, 0, 67, 0
2, 119920, Note_on_c, 0, 66, 0
2, 119966, Note_on_c, 0, 78, 0
2, 120019, Note_on_c, 0, 62, 59
2, 120025, Note_on_c, 0, 74, 73
2, 120085, Note_on_c, 0, 64, 78
2, 120093, Note_on_c, 0, 76, 86
2, 120097, Note_on_c, 0, 62, 0
2, 120107, Note_on_c, 0, 74, 0
2, 120188, Note_on_c, 0, 66, 90
2, 120189, Note_on_c, 0, 78, 88
2, 120240, Note_on_c, 0, 64, 0
2, 120253, Note_on_c, 0, 76, 0
2, 120312, Note_on_c, 0, 78, 0
2, 120368, Note_on_c, 0, 83, 93
2, 120370, Note_on_c, 0, 71, 84
2, 120384, Note_on_c, 0, 66, 0
2, 120453, Note_on_c, 0, 85, 94
2, 120464, Note_on_c, 0, 73, 92
2, 120475, Note_on_c, 0, 83, 0
2, 120484, Note_on_c, 0, 71, 0
2, 120561, Note_on_c, 0, 74, 80
2, 120567, Note_on_c, 0, 85, 0
2, 120572, Note_on_c, 0, 86, 82
2, 120579, Note_on_c, 0, 73, 0
2, 120620, Note_on_c, 0, 74, 0
2, 120620, Note_on_c, 0, 88, 82
2, 120623, Note_on_c, 0, 76, 69
2, 120624, Note_on_c, 0, 86, 0
2, 120653, Note_on_c, 0, 86, 92
2, 120660, Note_on_c, 0, 74, 48
2, 120676, Note_on_c, 0, 76, 0
2, 120679, Note_on_c, 0, 88, 0
2, 120791, Note_on_c, 0, 85, 94
2, 120802, Note_on_c, 0, 73, 76
2, 120819, Note_on_c, 0, 74, 0
2, 120842, Note_on_c, 0, 86, 0
2, 120875, Note_on_c, 0, 83, 86
2, 120905, Note_on_c, 0, 71, 65
2, 120909, Note_on_c, 0, 85, 0
2, 120923, Note_on_c, 0, 73, 0
2, 120993, Note_on_c, 0, 85, 76
2, 121008, Note_on_c, 0, 83, 0
2, 121011, Note_on_c, 0, 73, 68
2, 121018, Note_on_c, 0, 71, 0
2, 121148, Note_on_c, 0, 73, 0
2, 121234, Note_on_c, 0, 85, 0
2, 121234, Note_on_c, 0, 76, 67
2, 121236, Note_on_c, 0, 64, 47
2, 121475, Note_on_c, 0, 76, 0
2, 121481, Note_on_c, 0, 64, 0
2, 121481, Note_on_c, 0, 81, 59
2, 121491, Note_on_c, 0, 69, 36
2, 121524, Note_on_c, 0, 81, 0
2, 121544, Note_on_c, 0, 69, 0
2, 121705, Note_on_c, 0, 69, 58
2, 121707, Note_on_c, 0, 57, 36
2, 121750, Note_on_c, 0, 69, 0
2, 121757, Note_on_c, 0, 57, 0
2, 123242, Note_on_c, 0, 77, 88
2, 123243, Note_on_c, 0, 65, 57
2, 123441, Note_on_c, 0, 81, 91
2, 123450, Note_on_c, 0, 69, 71
2, 123483, Note_on_c, 0, 77, 0
2, 123498, Note_on_c, 0, 65, 0
2, 123635, Note_on_c, 0, 86, 100
2, 123638, Note_on_c, 0, 74, 65
2, 123655, Note_on_c, 0, 69, 0
2, 123691, Note_on_c, 0, 81, 0
2, 123932, Note_on_c, 0, 84, 91
2, 123941, Note_on_c, 0, 72, 74
2, 123961, Note_on_c, 0, 74, 0
2, 123961, Note_on_c, 0, 86, 0
2, 124019, Note_on_c, 0, 86, 99
2, 124025, Note_on_c, 0, 74, 65
2, 124041, Note_on_c, 0, 72, 0
2, 124058, Note_on_c, 0, 84, 0
2, 124089, Note_on_c, 0, 84, 90
2, 124107, Note_on_c, 0, 72, 76
2, 124126, Note_on_c, 0, 74, 0
2, 124132, Note_on_c, 0, 86, 0
2, 124187, Note_on_c, 0, 77, 94
2, 124195, Note_on_c, 0, 65, 77
2, 124220, Note_on_c, 0, 84, 0
2, 124229, Note_on_c, 0, 72, 0
2, 124383, Note_on_c, 0, 67, 83
2, 124388, Note_on_c, 0, 79, 94
2, 124399, Note_on_c, 0, 65, 0
2, 124420, Note_on_c, 0, 77, 0
2, 124504, Note_on_c, 0, 65, 63
2, 124523, Note_on_c, 0, 67, 0
2, 124527, Note_on_c, 0, 77, 78
2, 124531, Note_on_c, 0, 79, 0
2, 124554, Note_on_c, 0, 67, 57
2, 124564, Note_on_c, 0, 79, 76
2, 124583, Note_on_c, 0, 77, 0
2, 124589, Note_on_c, 0, 65, 0
2, 124595, Note_on_c, 0, 69, 68
2, 124597, Note_on_c, 0, 81, 90
2, 124622, Note_on_c, 0, 67, 0
2, 124632, Note_on_c, 0, 79, 0
2, 125585, Note_on_c, 0, 67, 72
2, 125595, Note_on_c, 0, 79, 75
2, 125603, Note_on_c, 0, 69, 0
2, 125634, Note_on_c, 0, 81, 0
2, 125673, Note_on_c, 0, 77, 88
2, 125684, Note_on_c, 0, 65, 70
2, 125699, Note_on_c, 0, 67, 0
2, 125704, Note_on_c, 0, 79, 0
2, 125784, Note_on_c, 0, 72, 88
2, 125789, Note_on_c, 0, 60, 75
2, 125813, Note_on_c, 0, 77, 0
2, 125818, Note_on_c, 0, 65, 0
2, 125941, Note_on_c, 0, 72, 0
2, 125973, Note_on_c, 0, 62, 80
2, 125975, Note_on_c, 0, 60, 0
2, 125977, Note_on_c, 0, 74, 93
2, 126004, Note_on_c, 0, 64, 59
2, 126009, Note_on_c, 0, 76, 96
2, 126020, Note_on_c, 0, 74, 0
2, 126025, Note_on_c, 0, 62, 0
2, 126049, Note_on_c, 0, 74, 82
2, 126054, Note_on_c, 0, 62, 33
2, 126064, Note_on_c, 0, 64, 0
2, 126065, Note_on_c, 0, 76, 0
2, 126157, Note_on_c, 0, 60, 68
2, 126166, Note_on_c, 0, 72, 84
2, 126190, Note_on_c, 0, 62, 0
2, 126191, Note_on_c, 0, 74, 0
2, 126336, Note_on_c, 0, 72, 0
2, 126353, Note_on_c, 0, 57, 67
2, 126354, Note_on_c, 0, 60, 0
2, 126369, Note_on_c, 0, 69, 74
2, 126438, Note_on_c, 0, 58, 80
2, 126445, Note_on_c, 0, 70, 85
2, 126450, Note_on_c, 0, 69, 0
2, 126480, Note_on_c, 0, 57, 0
2, 126525, Note_on_c, 0, 70, 0
2, 126544, Note_on_c, 0, 72, 86
2, 126551, Note_on_c, 0, 60, 76
2, 126570, Note_on_c, 0, 58, 0
2, 126720, Note_on_c, 0, 72, 0
2, 126723, Note_on_c, 0, 60, 0
2, 126740, Note_on_c, 0, 77, 86
2, 126742, Note_on_c, 0, 65, 63
2, 126827, Note_on_c, 0, 79, 99
2, 126833, Note_on_c, 0, 67, 80
2, 126860, Note_on_c, 0, 77, 0
2, 126872, Note_on_c, 0, 65, 0
2, 126953, Note_on_c, 0, 81, 93
2, 126963, Note_on_c, 0, 69, 70
2, 127000, Note_on_c, 0, 67, 0
2, 127002, Note_on_c, 0, 79, 0
2, 127182, Note_on_c, 0, 80, 86
2, 127185, Note_on_c, 0, 68, 74
2, 127188, Note_on_c, 0, 81, 0
2, 127208, Note_on_c, 0, 69, 0
2, 127277, Note_on_c, 0, 81, 104
2, 127279, Note_on_c, 0, 69, 79
2, 127291, Note_on_c, 0, 80, 0
2, 127315, Note_on_c, 0, 68, 0
2, 127390, Note_on_c, 0, 83, 101
2, 127398, Note_on_c, 0, 81, 0
2, 127399, Note_on_c, 0, 71, 94
2, 127429, Note_on_c, 0, 69, 0
2, 127552, Note_on_c, 0, 83, 0
2, 127555, Note_on_c, 0, 71, 0
2, 127603, Note_on_c, 0, 83, 92
2, 127605, Note_on_c, 0, 71, 96
2, 127802, Note_on_c, 0, 71, 0
2, 127811, Note_on_c, 0, 83, 0
2, 127859, Note_on_c, 0, 71, 77
2, 127862, Note_on_c, 0, 83, 80
2, 128290, Note_on_c, 0, 71, 0
2, 128309, Note_on_c, 0, 88, 68
2, 128318, Note_on_c, 0, 76, 56
2, 128345, Note_on_c, 0, 83, 0
2, 128870, Note_on_c, 0, 88, 0
2, 128904, Note_on_c, 0, 81, 69
2, 128906, Note_on_c, 0, 69, 51
2, 128912, Note_on_c, 0, 76, 0
2, 129043, Note_on_c, 0, 80, 75
2, 129044, Note_on_c, 0, 68, 63
2, 129061, Note_on_c, 0, 81, 0
2, 129062, Note_on_c, 0, 69, 0
2, 129146, Note_on_c, 0, 69, 72
2, 129146, Note_on_c, 0, 81, 82
2, 129153, Note_on_c, 0, 80, 0
2, 129187, Note_on_c, 0, 68, 0
2, 129245, Note_on_c, 0, 83, 84
2, 129251, Note_on_c, 0, 71, 84
2, 129259, Note_on_c, 0, 69, 0
2, 129262, Note_on_c, 0, 81, 0
2, 129341, Note_on_c, 0, 84, 94
2, 129349, Note_on_c, 0, 71, 0
2, 129350, Note_on_c, 0, 72, 52
2, 129374, Note_on_c, 0, 83, 0
2, 129434, Note_on_c, 0, 72, 0
2, 129436, Note_on_c, 0, 71, 82
2, 129439, Note_on_c, 0, 83, 99
2, 129487, Note_on_c, 0, 84, 0
2, 129529, Note_on_c, 0, 71, 0
2, 129530, Note_on_c, 0, 69, 84
2, 129531, Note_on_c, 0, 81, 100
2, 129573, Note_on_c, 0, 83, 0
2, 129654, Note_on_c, 0, 71, 88
2, 129664, Note_on_c, 0, 83, 82
2, 129665, Note_on_c, 0, 69, 0
2, 129674, Note_on_c, 0, 81, 0
2, 130095, Note_on_c, 0, 71, 0
2, 130096, Note_on_c, 0, 88, 61
2, 130096, Note_on_c, 0, 76, 56
2, 130150, Note_on_c, 0, 83, 0
2, 130565, Note_on_c, 0, 76, 0
2, 130595, Note_on_c, 0, 71, 57
2, 130600, Note_on_c, 0, 83, 57
2, 130623, Note_on_c, 0, 88, 0
2, 131074, Note_on_c, 0, 76, 48
2, 131084, Note_on_c, 0, 88, 54
2, 131117, Note_on_c, 0, 71, 0
2, 131124, Note_on_c, 0, 83, 0
2, 131491, Note_on_c, 0, 88, 0
2, 131654, Note_on_c, 0, 83, 60
2, 131658, Note_on_c, 0, 71, 41
2, 131759, Note_on_c, 0, 76, 0
2, 131849, Note_on_c, 0, 85, 64
2, 131862, Note_on_c, 0, 73, 70
2, 131876, Note_on_c, 0, 83, 0
2, 131889, Note_on_c, 0, 71, 0
2, 131996, Note_on_c, 0, 71, 64
2, 131999, Note_on_c, 0, 73, 0
2, 132002, Note_on_c, 0, 83, 62
2, 132041, Note_on_c, 0, 85, 0
2, 132118, Note_on_c, 0, 78, 80
2, 132120, Note_on_c, 0, 83, 0
2, 132125, Note_on_c, 0, 66, 54
2, 132165, Note_on_c, 0, 71, 0
2, 132251, Note_on_c, 0, 66, 0
2, 132251, Note_on_c, 0, 68, 65
2, 132258, Note_on_c, 0, 80, 66
2, 132261, Note_on_c, 0, 78, 0
2, 132294, Control_c, 0, 64, 63
2, 132305, Control_c, 0, 64, 127
2, 132355, Note_on_c, 0, 68, 0
2, 132403, Note_on_c, 0, 59, 59
2, 132407, Note_on_c, 0, 71, 75
2, 132485, Note_on_c, 0, 80, 0
2, 132583, Note_on_c, 0, 76, 59
2, 132584, Note_on_c, 0, 59, 0
2, 132588, Note_on_c, 0, 64, 46
2, 132599, Note_on_c, 0, 71, 0
2, 132769, Note_on_c, 0, 64, 0
2, 132781, Note_on_c, 0, 76, 0
2, 132783, Note_on_c, 0, 83, 61
2, 132786, Note_on_c, 0, 59, 42
2, 132893, Note_on_c, 0, 83, 0
2, 132927, Note_on_c, 0, 59, 0
2, 133080, Note_on_c, 0, 52, 30
2, 133096, Note_on_c, 0, 88, 63
2, 134355, Note_on_c, 0, 52, 0
2, 134357, Note_on_c, 0, 88, 0
2, 134368, Control_c, 0, 64, 63
2, 134385, Control_c, 0, 64, 0
2, 136570, Note_on_c, 0, 81, 82
2, 136583, Note_on_c, 0, 69, 45
2, 136778, Note_on_c, 0, 85, 99
2, 136785, Note_on_c, 0, 73, 91
2, 136813, Note_on_c, 0, 81, 0
2, 136873, Note_on_c, 0, 69, 0
2, 136975, Note_on_c, 0, 90, 99
2, 136976, Note_on_c, 0, 78, 95
2, 137021, Note_on_c, 0, 73, 0
2, 137048, Note_on_c, 0, 85, 0
2, 137283, Note_on_c, 0, 88, 99
2, 137293, Note_on_c, 0, 90, 0
2, 137297, Note_on_c, 0, 76, 81
2, 137307, Note_on_c, 0, 78, 0
2, 137355, Note_on_c, 0, 90, 100
2, 137371, Note_on_c, 0, 78, 88
2, 137390, Note_on_c, 0, 76, 0
2, 137390, Note_on_c, 0, 88, 0
2, 137434, Note_on_c, 0, 88, 103
2, 137441, Note_on_c, 0, 76, 86
2, 137445, Note_on_c, 0, 78, 0
2, 137446, Note_on_c, 0, 90, 0
2, 137540, Note_on_c, 0, 81, 97
2, 137546, Note_on_c, 0, 69, 84
2, 137566, Note_on_c, 0, 88, 0
2, 137574, Note_on_c, 0, 76, 0
2, 137729, Note_on_c, 0, 83, 91
2, 137731, Note_on_c, 0, 71, 89
2, 137753, Note_on_c, 0, 69, 0
2, 137781, Note_on_c, 0, 81, 0
2, 137856, Note_on_c, 0, 69, 63
2, 137862, Note_on_c, 0, 83, 0
2, 137864, Note_on_c, 0, 71, 0
2, 137888, Note_on_c, 0, 81, 79
2, 137912, Note_on_c, 0, 83, 71
2, 137913, Note_on_c, 0, 71, 65
2, 137937, Note_on_c, 0, 81, 0
2, 137948, Note_on_c, 0, 69, 0
2, 137954, Note_on_c, 0, 73, 76
2, 137958, Note_on_c, 0, 85, 83
2, 137990, Note_on_c, 0, 83, 0
2, 137999, Note_on_c, 0, 71, 0
2, 138963, Note_on_c, 0, 85, 0
2, 138972, Note_on_c, 0, 73, 0
2, 138975, Note_on_c, 0, 83, 84
2, 138981, Note_on_c, 0, 71, 69
2, 139062, Note_on_c, 0, 81, 79
2, 139063, Note_on_c, 0, 69, 87
2, 139089, Note_on_c, 0, 71, 0
2, 139124, Note_on_c, 0, 83, 0
2, 139155, Note_on_c, 0, 76, 97
2, 139159, Note_on_c, 0, 64, 76
2, 139197, Note_on_c, 0, 81, 0
2, 139203, Note_on_c, 0, 69, 0
2, 139311, Note_on_c, 0, 76, 0
2, 139334, Note_on_c, 0, 78, 95
2, 139344, Note_on_c, 0, 66, 70
2, 139354, Note_on_c, 0, 64, 0
2, 139366, Note_on_c, 0, 68, 83
2, 139368, Note_on_c, 0, 80, 96
2, 139371, Note_on_c, 0, 66, 0
2, 139378, Note_on_c, 0, 78, 0
2, 139409, Note_on_c, 0, 78, 78
2, 139427, Note_on_c, 0, 66, 84
2, 139441, Note_on_c, 0, 80, 0
2, 139447, Note_on_c, 0, 68, 0
2, 139541, Note_on_c, 0, 76, 90
2, 139545, Note_on_c, 0, 64, 94
2, 139562, Note_on_c, 0, 66, 0
2, 139570, Note_on_c, 0, 78, 0
2, 139622, Control_c, 0, 64, 63
2, 139637, Control_c, 0, 64, 127
2, 139674, Note_on_c, 0, 76, 0
2, 139695, Note_on_c, 0, 64, 0
2, 139742, Note_on_c, 0, 61, 94
2, 139745, Note_on_c, 0, 73, 106
2, 139767, Control_c, 0, 64, 63
2, 139783, Control_c, 0, 64, 0
2, 139814, Note_on_c, 0, 62, 98
2, 139816, Note_on_c, 0, 74, 98
2, 139825, Note_on_c, 0, 61, 0
2, 139833, Note_on_c, 0, 73, 0
2, 139916, Note_on_c, 0, 64, 96
2, 139919, Note_on_c, 0, 76, 106
2, 139936, Note_on_c, 0, 62, 0
2, 139940, Control_c, 0, 64, 63
2, 139943, Control_c, 0, 64, 127
2, 139952, Note_on_c, 0, 74, 0
2, 140055, Note_on_c, 0, 76, 0
2, 140094, Note_on_c, 0, 64, 0
2, 140102, Control_c, 0, 64, 63
2, 140104, Note_on_c, 0, 78, 112
2, 140110, Control_c, 0, 64, 0
2, 140111, Note_on_c, 0, 66, 106
2, 140171, Note_on_c, 0, 80, 106
2, 140183, Note_on_c, 0, 68, 108
2, 140196, Note_on_c, 0, 78, 0
2, 140213, Note_on_c, 0, 66, 0
2, 140246, Note_on_c, 0, 80, 0
2, 140266, Note_on_c, 0, 81, 111
2, 140270, Control_c, 0, 64, 63
2, 140271, Control_c, 0, 64, 127
2, 140277, Note_on_c, 0, 69, 107
2, 140297, Note_on_c, 0, 68, 0
2, 140366, Control_c, 0, 64, 63
2, 140371, Control_c, 0, 64, 0
2, 140384, Note_on_c, 0, 69, 0
2, 140387, Note_on_c, 0, 81, 0
2, 140446, Note_on_c, 0, 93, 113
2, 140447, Note_on_c, 0, 57, 116
2, 140478, Control_c, 0, 64, 127
2, 140543, Note_on_c, 0, 57, 0
2, 140549, Note_on_c, 0, 93, 0
2, 140607, Control_c, 0, 64, 63
2, 140611, Control_c, 0, 64, 0
2, 140627, Note_on_c, 0, 69, 109
2, 140628, Note_on_c, 0, 81, 104
2, 140669, Note_on_c, 0, 81, 0
2, 140676, Note_on_c, 0, 69, 0
2, 140791, Control_c, 0, 64, 127
2, 140802, Note_on_c, 0, 93, 112
2, 140804, Note_on_c, 0, 55, 122
2, 140856, Note_on_c, 0, 55, 0
2, 140880, Note_on_c, 0, 93, 0
2, 140962, Note_on_c, 0, 69, 104
2, 140966, Note_on_c, 0, 81, 98
2, 140967, Control_c, 0, 64, 63
2, 140971, Control_c, 0, 64, 0
2, 141004, Note_on_c, 0, 81, 0
2, 141004, Note_on_c, 0, 69, 0
2, 141124, Control_c, 0, 64, 127
2, 141129, Note_on_c, 0, 95, 116
2, 141141, Note_on_c, 0, 54, 112
2, 141167, Note_on_c, 0, 54, 0
2, 141171, Note_on_c, 0, 95, 0
2, 141309, Note_on_c, 0, 69, 101
2, 141316, Note_on_c, 0, 81, 82
2, 141325, Control_c, 0, 64, 63
2, 141330, Control_c, 0, 64, 0
2, 141341, Note_on_c, 0, 81, 0
2, 141343, Note_on_c, 0, 69, 0
2, 141468, Note_on_c, 0, 96, 116
2, 141475, Note_on_c, 0, 53, 112
2, 141503, Note_on_c, 0, 96, 0
2, 141509, Note_on_c, 0, 53, 0
2, 141639, Note_on_c, 0, 52, 125
2, 141641, Note_on_c, 0, 97, 115
2, 141648, Control_c, 0, 64, 127
2, 141677, Note_on_c, 0, 52, 0
2, 141681, Note_on_c, 0, 97, 0
2, 141825, Note_on_c, 0, 93, 100
2, 141827, Note_on_c, 0, 85, 90
2, 141829, Note_on_c, 0, 88, 99
2, 141871, Note_on_c, 0, 85, 0
2, 141879, Note_on_c, 0, 93, 0
2, 141884, Note_on_c, 0, 88, 0
2, 141897, Note_on_c, 0, 83, 91
2, 141904, Note_on_c, 0, 86, 80
2, 141953, Note_on_c, 0, 83, 0
2, 141954, Note_on_c, 0, 86, 0
2, 141992, Note_on_c, 0, 81, 108
2, 141999, Note_on_c, 0, 90, 104
2, 142001, Note_on_c, 0, 85, 99
2, 142059, Note_on_c, 0, 85, 0
2, 142059, Note_on_c, 0, 90, 0
2, 142066, Note_on_c, 0, 81, 0
2, 142071, Note_on_c, 0, 80, 99
2, 142075, Note_on_c, 0, 83, 76
2, 142112, Note_on_c, 0, 83, 0
2, 142148, Note_on_c, 0, 80, 0
2, 142158, Note_on_c, 0, 81, 99
2, 142159, Note_on_c, 0, 86, 100
2, 142162, Note_on_c, 0, 78, 97
2, 142189, Note_on_c, 0, 81, 0
2, 142201, Note_on_c, 0, 86, 0
2, 142219, Note_on_c, 0, 78, 0
2, 142231, Note_on_c, 0, 80, 98
2, 142237, Note_on_c, 0, 76, 91
2, 142265, Note_on_c, 0, 80, 0
2, 142304, Note_on_c, 0, 76, 0
2, 142328, Note_on_c, 0, 83, 103
2, 142329, Note_on_c, 0, 74, 111
2, 142333, Note_on_c, 0, 78, 106
2, 142380, Note_on_c, 0, 83, 0
2, 142393, Note_on_c, 0, 78, 0
2, 142398, Note_on_c, 0, 76, 76
2, 142413, Note_on_c, 0, 73, 106
2, 142417, Note_on_c, 0, 74, 0
2, 142438, Note_on_c, 0, 76, 0
2, 142499, Note_on_c, 0, 80, 110
2, 142500, Note_on_c, 0, 71, 108
2, 142505, Note_on_c, 0, 74, 102
2, 142507, Note_on_c, 0, 73, 0
2, 142546, Note_on_c, 0, 80, 0
2, 142572, Note_on_c, 0, 73, 105
2, 142573, Note_on_c, 0, 74, 0
2, 142582, Note_on_c, 0, 69, 100
2, 142597, Note_on_c, 0, 71, 0
2, 142619, Note_on_c, 0, 73, 0
2, 142658, Note_on_c, 0, 69, 0
2, 142669, Note_on_c, 0, 68, 107
2, 142670, Note_on_c, 0, 76, 113
2, 142671, Note_on_c, 0, 71, 106
2, 142718, Note_on_c, 0, 71, 0
2, 142734, Note_on_c, 0, 76, 0
2, 142743, Note_on_c, 0, 66, 105
2, 142757, Note_on_c, 0, 69, 59
2, 142770, Note_on_c, 0, 68, 0
2, 142805, Note_on_c, 0, 69, 0
2, 142834, Note_on_c, 0, 66, 0
2, 142838, Note_on_c, 0, 64, 103
2, 142843, Note_on_c, 0, 73, 114
2, 142847, Note_on_c, 0, 68, 106
2, 142882, Note_on_c, 0, 68, 0
2, 142894, Note_on_c, 0, 73, 0
2, 142915, Note_on_c, 0, 66, 106
2, 142915, Note_on_c, 0, 62, 111
2, 142932, Note_on_c, 0, 64, 0
2, 142975, Note_on_c, 0, 66, 0
2, 143001, Control_c, 0, 64, 63
2, 143008, Control_c, 0, 64, 0
2, 143011, Note_on_c, 0, 61, 119
2, 143012, Note_on_c, 0, 69, 120
2, 143014, Note_on_c, 0, 64, 118
2, 143042, Control_c, 0, 64, 63
2, 143046, Note_on_c, 0, 62, 0
2, 143049, Control_c, 0, 64, 127
2, 143075, Note_on_c, 0, 69, 0
2, 143077, Note_on_c, 0, 64, 0
2, 143077, Note_on_c, 0, 61, 0
2, 143137, Control_c, 0, 64, 63
2, 143140, Control_c, 0, 64, 0
2, 144464, Note_on_c, 0, 81, 111
2, 144465, Note_on_c, 0, 33, 100
2, 144467, Note_on_c, 0, 73, 113
2, 144467, Note_on_c, 0, 69, 109
2, 144470, Note_on_c, 0, 45, 117
2, 144498, Control_c, 0, 64, 127
2, 144503, Note_on_c, 0, 33, 0
2, 144513, Note_on_c, 0, 45, 0
2, 144677, Note_on_c, 0, 69, 0
2, 144684, Note_on_c, 0, 73, 0
2, 144690, Note_on_c, 0, 64, 103
2, 144708, Note_on_c, 0, 81, 0
2, 144750, Control_c, 0, 64, 63
2, 144756, Note_on_c, 0, 66, 109
2, 144757, Control_c, 0, 64, 0
2, 144766, Note_on_c, 0, 64, 0
2, 144807, Note_on_c, 0, 66, 0
2, 144823, Note_on_c, 0, 64, 93
2, 144858, Control_c, 0, 64, 63
2, 144864, Control_c, 0, 64, 127
2, 144874, Note_on_c, 0, 62, 96
2, 144882, Note_on_c, 0, 64, 0
2, 144923, Note_on_c, 0, 61, 104
2, 144934, Note_on_c, 0, 62, 0
2, 144957, Note_on_c, 0, 61, 0
2, 144975, Note_on_c, 0, 59, 89
2, 144989, Control_c, 0, 64, 63
2, 144997, Control_c, 0, 64, 0
2, 145020, Note_on_c, 0, 57, 96
2, 145023, Note_on_c, 0, 59, 0
2, 145027, Note_on_c, 0, 78, 103
2, 145030, Note_on_c, 0, 66, 96
2, 145032, Note_on_c, 0, 69, 80
2, 145054, Control_c, 0, 64, 63
2, 145064, Control_c, 0, 64, 127
2, 145068, Note_on_c, 0, 57, 0
2, 145075, Note_on_c, 0, 50, 72
2, 145078, Note_on_c, 0, 78, 0
2, 145092, Note_on_c, 0, 66, 0
2, 145111, Note_on_c, 0, 69, 0
2, 145129, Note_on_c, 0, 50, 0
2, 145129, Note_on_c, 0, 57, 82
2, 145194, Control_c, 0, 64, 63
2, 145196, Note_on_c, 0, 49, 94
2, 145199, Note_on_c, 0, 76, 100
2, 145200, Note_on_c, 0, 64, 91
2, 145202, Control_c, 0, 64, 0
2, 145205, Note_on_c, 0, 69, 82
2, 145218, Note_on_c, 0, 57, 0
2, 145264, Note_on_c, 0, 49, 0
2, 145265, Control_c, 0, 64, 63
2, 145278, Control_c, 0, 64, 127
2, 145304, Note_on_c, 0, 64, 0
2, 145375, Note_on_c, 0, 64, 101
2, 145379, Note_on_c, 0, 69, 0
2, 145429, Note_on_c, 0, 66, 110
2, 145433, Note_on_c, 0, 64, 0
2, 145439, Note_on_c, 0, 76, 0
2, 145474, Note_on_c, 0, 66, 0
2, 145484, Note_on_c, 0, 64, 88
2, 145525, Note_on_c, 0, 62, 93
2, 145535, Note_on_c, 0, 64, 0
2, 145553, Control_c, 0, 64, 63
2, 145564, Control_c, 0, 64, 0
2, 145574, Note_on_c, 0, 61, 107
2, 145583, Note_on_c, 0, 62, 0
2, 145611, Note_on_c, 0, 61, 0
2, 145628, Note_on_c, 0, 59, 86
2, 145675, Note_on_c, 0, 57, 91
2, 145677, Note_on_c, 0, 59, 0
2, 145682, Note_on_c, 0, 78, 101
2, 145683, Note_on_c, 0, 66, 94
2, 145687, Note_on_c, 0, 69, 87
2, 145703, Control_c, 0, 64, 63
2, 145714, Control_c, 0, 64, 127
2, 145721, Note_on_c, 0, 57, 0
2, 145729, Note_on_c, 0, 50, 83
2, 145738, Note_on_c, 0, 78, 0
2, 145740, Note_on_c, 0, 66, 0
2, 145755, Note_on_c, 0, 69, 0
2, 145788, Note_on_c, 0, 57, 68
2, 145790, Note_on_c, 0, 50, 0
2, 145842, Note_on_c, 0, 57, 0
2, 145854, Note_on_c, 0, 51, 88
2, 145854, Note_on_c, 0, 69, 81
2, 145854, Note_on_c, 0, 71, 94
2, 145860, Note_on_c, 0, 66, 78
2, 145860, Control_c, 0, 64, 63
2, 145869, Control_c, 0, 64, 0
2, 145924, Control_c, 0, 64, 63
2, 145936, Control_c, 0, 64, 127
2, 145941, Note_on_c, 0, 51, 0
2, 146026, Note_on_c, 0, 66, 0
2, 146026, Note_on_c, 0, 59, 85
2, 146040, Note_on_c, 0, 69, 0
2, 146077, Note_on_c, 0, 61, 91
2, 146078, Note_on_c, 0, 59, 0
2, 146085, Note_on_c, 0, 71, 0
2, 146097, Note_on_c, 0, 61, 0
2, 146124, Note_on_c, 0, 59, 91
2, 146178, Note_on_c, 0, 59, 0
2, 146183, Note_on_c, 0, 71, 101
2, 146184, Note_on_c, 0, 69, 94
2, 146186, Note_on_c, 0, 52, 103
2, 146188, Note_on_c, 0, 64, 93
2, 146193, Control_c, 0, 64, 63
2, 146204, Control_c, 0, 64, 0
2, 146261, Control_c, 0, 64, 63
2, 146274, Control_c, 0, 64, 127
2, 146298, Note_on_c, 0, 52, 0
2, 146344, Note_on_c, 0, 59, 96
2, 146357, Note_on_c, 0, 64, 0
2, 146364, Note_on_c, 0, 71, 0
2, 146374, Note_on_c, 0, 69, 0
2, 146390, Note_on_c, 0, 61, 104
2, 146401, Note_on_c, 0, 59, 0
2, 146424, Note_on_c, 0, 61, 0
2, 146446, Note_on_c, 0, 59, 90
2, 146500, Note_on_c, 0, 71, 103
2, 146502, Note_on_c, 0, 63, 104
2, 146504, Note_on_c, 0, 69, 94
2, 146507, Note_on_c, 0, 54, 112
2, 146514, Note_on_c, 0, 59, 0
2, 146515, Control_c, 0, 64, 63
2, 146523, Control_c, 0, 64, 0
2, 146575, Control_c, 0, 64, 63
2, 146586, Control_c, 0, 64, 127
2, 146634, Note_on_c, 0, 54, 0
2, 146644, Note_on_c, 0, 69, 0
2, 146661, Note_on_c, 0, 59, 86
2, 146670, Note_on_c, 0, 63, 0
2, 146677, Note_on_c, 0, 71, 0
2, 146706, Note_on_c, 0, 61, 103
2, 146716, Note_on_c, 0, 59, 0
2, 146739, Note_on_c, 0, 61, 0
2, 146751, Note_on_c, 0, 59, 80
2, 146803, Note_on_c, 0, 73, 107
2, 146806, Note_on_c, 0, 68, 98
2, 146808, Control_c, 0, 64, 63
2, 146811, Note_on_c, 0, 59, 0
2, 146811, Note_on_c, 0, 62, 84
2, 146811, Note_on_c, 0, 64, 80
2, 146815, Control_c, 0, 64, 0
2, 146820, Note_on_c, 0, 52, 88
2, 146871, Control_c, 0, 64, 63
2, 146882, Control_c, 0, 64, 127
2, 146920, Note_on_c, 0, 52, 0
2, 146958, Note_on_c, 0, 73, 0
2, 146964, Note_on_c, 0, 68, 0
2, 146965, Note_on_c, 0, 64, 0
2, 146967, Note_on_c, 0, 62, 0
2, 146970, Note_on_c, 0, 59, 90
2, 147024, Note_on_c, 0, 61, 82
2, 147032, Note_on_c, 0, 59, 0
2, 147041, Note_on_c, 0, 71, 94
2, 147045, Note_on_c, 0, 61, 0
2, 147064, Note_on_c, 0, 59, 79
2, 147105, Note_on_c, 0, 59, 0
2, 147106, Note_on_c, 0, 71, 0
2, 147123, Control_c, 0, 64, 63
2, 147128, Control_c, 0, 64, 0
2, 147134, Note_on_c, 0, 45, 90
2, 147135, Note_on_c, 0, 61, 76
2, 147139, Note_on_c, 0, 69, 81
2, 147143, Note_on_c, 0, 64, 80
2, 147190, Control_c, 0, 64, 63
2, 147193, Note_on_c, 0, 45, 0
2, 147199, Control_c, 0, 64, 127
2, 147227, Note_on_c, 0, 61, 0
2, 147233, Note_on_c, 0, 64, 0
2, 147266, Note_on_c, 0, 69, 0
2, 147310, Note_on_c, 0, 64, 67
2, 147321, Control_c, 0, 64, 63
2, 147331, Control_c, 0, 64, 127
2, 147374, Note_on_c, 0, 64, 0
2, 147374, Note_on_c, 0, 66, 71
2, 147417, Note_on_c, 0, 66, 0
2, 147428, Note_on_c, 0, 64, 64
2, 147468, Note_on_c, 0, 62, 76
2, 147476, Note_on_c, 0, 64, 0
2, 147512, Note_on_c, 0, 61, 86
2, 147520, Note_on_c, 0, 62, 0
2, 147549, Note_on_c, 0, 61, 0
2, 147550, Control_c, 0, 64, 63
2, 147562, Control_c, 0, 64, 0
2, 147563, Note_on_c, 0, 59, 74
2, 147598, Note_on_c, 0, 78, 76
2, 147599, Note_on_c, 0, 66, 68
2, 147600, Note_on_c, 0, 59, 0
2, 147603, Note_on_c, 0, 69, 56
2, 147608, Note_on_c, 0, 57, 65
2, 147613, Control_c, 0, 64, 63
2, 147625, Control_c, 0, 64, 127
2, 147640, Note_on_c, 0, 66, 0
2, 147642, Note_on_c, 0, 78, 0
2, 147656, Note_on_c, 0, 57, 0
2, 147656, Note_on_c, 0, 69, 0
2, 147666, Note_on_c, 0, 50, 61
2, 147709, Note_on_c, 0, 50, 0
2, 147710, Note_on_c, 0, 57, 58
2, 147746, Control_c, 0, 64, 63
2, 147756, Control_c, 0, 64, 0
2, 147772, Note_on_c, 0, 76, 77
2, 147774, Note_on_c, 0, 64, 51
2, 147777, Note_on_c, 0, 69, 47
2, 147780, Note_on_c, 0, 49, 69
2, 147795, Note_on_c, 0, 57, 0
2, 147808, Control_c, 0, 64, 63
2, 147821, Control_c, 0, 64, 127
2, 147835, Note_on_c, 0, 49, 0
2, 147888, Note_on_c, 0, 64, 0
2, 147930, Note_on_c, 0, 69, 0
2, 147944, Note_on_c, 0, 64, 73
2, 147983, Note_on_c, 0, 76, 0
2, 147994, Control_c, 0, 64, 63
2, 147996, Note_on_c, 0, 64, 0
2, 147998, Note_on_c, 0, 66, 81
2, 148007, Control_c, 0, 64, 0
2, 148034, Note_on_c, 0, 66, 0
2, 148042, Note_on_c, 0, 64, 69
2, 148043, Control_c, 0, 64, 63
2, 148062, Control_c, 0, 64, 127
2, 148087, Note_on_c, 0, 62, 73
2, 148095, Note_on_c, 0, 64, 0
2, 148128, Control_c, 0, 64, 63
2, 148130, Note_on_c, 0, 61, 84
2, 148140, Note_on_c, 0, 62, 0
2, 148149, Control_c, 0, 64, 0
2, 148169, Note_on_c, 0, 61, 0
2, 148179, Control_c, 0, 64, 63
2, 148181, Note_on_c, 0, 59, 70
2, 148205, Control_c, 0, 64, 127
2, 148233, Note_on_c, 0, 59, 0
2, 148234, Note_on_c, 0, 80, 87
2, 148239, Note_on_c, 0, 57, 65
2, 148241, Note_on_c, 0, 69, 53
2, 148242, Note_on_c, 0, 71, 55
2, 148292, Note_on_c, 0, 57, 0
2, 148293, Note_on_c, 0, 50, 68
2, 148321, Note_on_c, 0, 78, 80
2, 148333, Note_on_c, 0, 80, 0
2, 148347, Note_on_c, 0, 57, 64
2, 148350, Note_on_c, 0, 71, 0
2, 148356, Note_on_c, 0, 69, 0
2, 148357, Note_on_c, 0, 50, 0
2, 148360, Note_on_c, 0, 78, 0
2, 148399, Note_on_c, 0, 57, 0
2, 148407, Note_on_c, 0, 51, 72
2, 148412, Note_on_c, 0, 66, 65
2, 148413, Note_on_c, 0, 69, 60
2, 148415, Note_on_c, 0, 71, 64
2, 148445, Control_c, 0, 64, 63
2, 148460, Control_c, 0, 64, 127
2, 148463, Note_on_c, 0, 51, 0
2, 148475, Note_on_c, 0, 50, 53
2, 148518, Note_on_c, 0, 51, 83
2, 148533, Note_on_c, 0, 50, 0
2, 148565, Note_on_c, 0, 51, 0
2, 148568, Note_on_c, 0, 66, 0
2, 148577, Note_on_c, 0, 59, 63
2, 148581, Note_on_c, 0, 71, 0
2, 148585, Note_on_c, 0, 69, 0
2, 148626, Note_on_c, 0, 59, 0
2, 148630, Note_on_c, 0, 61, 91
2, 148664, Note_on_c, 0, 61, 0
2, 148683, Note_on_c, 0, 59, 70
2, 148728, Control_c, 0, 64, 63
2, 148734, Note_on_c, 0, 64, 84
2, 148734, Control_c, 0, 64, 0
2, 148735, Note_on_c, 0, 71, 79
2, 148736, Note_on_c, 0, 59, 0
2, 148736, Note_on_c, 0, 69, 82
2, 148739, Note_on_c, 0, 52, 83
2, 148782, Note_on_c, 0, 52, 0
2, 148784, Control_c, 0, 64, 63
2, 148794, Control_c, 0, 64, 127
2, 148795, Note_on_c, 0, 51, 80
2, 148831, Note_on_c, 0, 52, 86
2, 148846, Note_on_c, 0, 51, 0
2, 148874, Note_on_c, 0, 52, 0
2, 148883, Note_on_c, 0, 71, 0
2, 148888, Note_on_c, 0, 64, 0
2, 148889, Note_on_c, 0, 59, 83
2, 148911, Note_on_c, 0, 69, 0
2, 148942, Note_on_c, 0, 59, 0
2, 148946, Note_on_c, 0, 61, 94
2, 148964, Note_on_c, 0, 61, 0
2, 148992, Note_on_c, 0, 59, 81
2, 149029, Control_c, 0, 64, 63
2, 149037, Control_c, 0, 64, 0
2, 149042, Note_on_c, 0, 54, 96
2, 149044, Note_on_c, 0, 59, 0
2, 149046, Note_on_c, 0, 63, 101
2, 149046, Note_on_c, 0, 71, 94
2, 149049, Note_on_c, 0, 69, 88
2, 149076, Control_c, 0, 64, 63
2, 149086, Control_c, 0, 64, 127
2, 149095, Note_on_c, 0, 54, 0
2, 149104, Note_on_c, 0, 53, 82
2, 149120, Note_on_c, 0, 71, 0
2, 149120, Note_on_c, 0, 63, 0
2, 149121, Note_on_c, 0, 69, 0
2, 149149, Note_on_c, 0, 54, 104
2, 149166, Note_on_c, 0, 53, 0
2, 149191, Note_on_c, 0, 54, 0
2, 149205, Note_on_c, 0, 59, 90
2, 149256, Note_on_c, 0, 61, 105
2, 149261, Note_on_c, 0, 59, 0
2, 149284, Note_on_c, 0, 61, 0
2, 149308, Note_on_c, 0, 59, 81
2, 149338, Control_c, 0, 64, 63
2, 149344, Control_c, 0, 64, 0
2, 149350, Note_on_c, 0, 76, 101
2, 149354, Note_on_c, 0, 59, 0
2, 149354, Note_on_c, 0, 68, 94
2, 149355, Note_on_c, 0, 64, 83
2, 149355, Note_on_c, 0, 62, 86
2, 149363, Note_on_c, 0, 52, 91
2, 149394, Control_c, 0, 64, 63
2, 149405, Control_c, 0, 64, 127
2, 149408, Note_on_c, 0, 52, 0
2, 149419, Note_on_c, 0, 51, 88
2, 149455, Note_on_c, 0, 52, 96
2, 149458, Note_on_c, 0, 76, 0
2, 149468, Note_on_c, 0, 62, 0
2, 149474, Note_on_c, 0, 64, 0
2, 149478, Note_on_c, 0, 51, 0
2, 149489, Note_on_c, 0, 68, 0
2, 149503, Note_on_c, 0, 52, 0
2, 149510, Note_on_c, 0, 59, 94
2, 149560, Note_on_c, 0, 59, 0
2, 149566, Note_on_c, 0, 61, 105
2, 149593, Note_on_c, 0, 61, 0
2, 149608, Note_on_c, 0, 59, 92
2, 149647, Control_c, 0, 64, 63
2, 149649, Note_on_c, 0, 59, 0
2, 149651, Control_c, 0, 64, 0
2, 149670, Note_on_c, 0, 61, 106
2, 149671, Note_on_c, 0, 73, 104
2, 149673, Note_on_c, 0, 45, 106
2, 149676, Note_on_c, 0, 69, 76
2, 149704, Note_on_c, 0, 69, 0
2, 149709, Control_c, 0, 64, 63
2, 149715, Control_c, 0, 64, 127
2, 149717, Note_on_c, 0, 73, 0
2, 149723, Note_on_c, 0, 61, 0
2, 149743, Note_on_c, 0, 45, 0
2, 149764, Control_c, 0, 64, 63
2, 149770, Control_c, 0, 64, 0
2, 149824, Note_on_c, 0, 57, 60
2, 149835, Note_on_c, 0, 61, 87
2, 149874, Note_on_c, 0, 61, 0
2, 149877, Note_on_c, 0, 63, 89
2, 149913, Note_on_c, 0, 63, 0
2, 149925, Note_on_c, 0, 64, 78
2, 149966, Note_on_c, 0, 64, 0
2, 149973, Note_on_c, 0, 66, 94
2, 149989, Note_on_c, 0, 61, 66
2, 150018, Note_on_c, 0, 66, 0
2, 150022, Note_on_c, 0, 73, 90
2, 150047, Control_c, 0, 64, 63
2, 150048, Control_c, 0, 64, 127
2, 150079, Note_on_c, 0, 66, 87
2, 150083, Note_on_c, 0, 73, 0
2, 150111, Control_c, 0, 64, 63
2, 150114, Note_on_c, 0, 66, 0
2, 150115, Control_c, 0, 64, 0
2, 150132, Note_on_c, 0, 67, 57
2, 150136, Note_on_c, 0, 63, 85
2, 150165, Note_on_c, 0, 67, 0
2, 150171, Note_on_c, 0, 61, 0
2, 150176, Note_on_c, 0, 75, 93
2, 150183, Note_on_c, 0, 57, 0
2, 150219, Note_on_c, 0, 75, 0
2, 150225, Note_on_c, 0, 73, 92
2, 150270, Note_on_c, 0, 73, 0
2, 150274, Note_on_c, 0, 72, 91
2, 150286, Control_c, 0, 64, 63
2, 150287, Control_c, 0, 64, 127
2, 150293, Note_on_c, 0, 56, 86
2, 150307, Note_on_c, 0, 63, 0
2, 150325, Note_on_c, 0, 56, 0
2, 150325, Note_on_c, 0, 72, 0
2, 150329, Note_on_c, 0, 68, 95
2, 150379, Note_on_c, 0, 68, 0
2, 150380, Note_on_c, 0, 72, 76
2, 150428, Note_on_c, 0, 72, 0
2, 150433, Note_on_c, 0, 75, 88
2, 150437, Note_on_c, 0, 44, 87
2, 150447, Note_on_c, 0, 75, 0
2, 150462, Note_on_c, 0, 44, 0
2, 150482, Note_on_c, 0, 80, 98
2, 150519, Note_on_c, 0, 80, 0
2, 150537, Note_on_c, 0, 92, 106
2, 150591, Note_on_c, 0, 90, 90
2, 150592, Note_on_c, 0, 66, 95
2, 150593, Note_on_c, 0, 56, 87
2, 150594, Note_on_c, 0, 63, 88
2, 150595, Note_on_c, 0, 92, 0
2, 150639, Note_on_c, 0, 87, 99
2, 150642, Note_on_c, 0, 90, 0
2, 150685, Note_on_c, 0, 87, 0
2, 150696, Note_on_c, 0, 84, 89
2, 150732, Note_on_c, 0, 84, 0
2, 150738, Note_on_c, 0, 80, 96
2, 150766, Note_on_c, 0, 80, 0
2, 150799, Note_on_c, 0, 78, 97
2, 150838, Note_on_c, 0, 78, 0
2, 150848, Note_on_c, 0, 56, 0
2, 150856, Note_on_c, 0, 75, 94
2, 150873, Note_on_c, 0, 75, 0
2, 150882, Control_c, 0, 64, 63
2, 150886, Control_c, 0, 64, 0
2, 150903, Note_on_c, 0, 69, 76
2, 150907, Note_on_c, 0, 61, 77
2, 150948, Control_c, 0, 64, 63
2, 150953, Note_on_c, 0, 69, 0
2, 150954, Control_c, 0, 64, 127
2, 150970, Note_on_c, 0, 81, 81
2, 150992, Note_on_c, 0, 81, 0
2, 151010, Note_on_c, 0, 69, 80
2, 151073, Note_on_c, 0, 68, 96
2, 151074, Note_on_c, 0, 60, 71
2, 151078, Note_on_c, 0, 69, 0
2, 151090, Note_on_c, 0, 61, 0
2, 151116, Note_on_c, 0, 68, 0
2, 151127, Note_on_c, 0, 72, 70
2, 151167, Note_on_c, 0, 75, 98
2, 151169, Note_on_c, 0, 72, 0
2, 151183, Note_on_c, 0, 66, 0
2, 151213, Note_on_c, 0, 75, 0
2, 151215, Note_on_c, 0, 60, 0
2, 151215, Note_on_c, 0, 66, 88
2, 151217, Note_on_c, 0, 61, 97
2, 151221, Note_on_c, 0, 69, 92
2, 151224, Control_c, 0, 64, 63
2, 151229, Control_c, 0, 64, 0
2, 151261, Note_on_c, 0, 69, 0
2, 151269, Control_c, 0, 64, 63
2, 151272, Note_on_c, 0, 81, 106
2, 151279, Control_c, 0, 64, 127
2, 151307, Note_on_c, 0, 81, 0
2, 151317, Note_on_c, 0, 69, 84
2, 151362, Note_on_c, 0, 60, 90
2, 151372, Note_on_c, 0, 68, 107
2, 151388, Note_on_c, 0, 61, 0
2, 151389, Note_on_c, 0, 69, 0
2, 151414, Note_on_c, 0, 68, 0
2, 151426, Note_on_c, 0, 72, 57
2, 151459, Note_on_c, 0, 75, 95
2, 151466, Note_on_c, 0, 72, 0
2, 151491, Note_on_c, 0, 75, 0
2, 151497, Note_on_c, 0, 66, 0
2, 151515, Control_c, 0, 64, 63
2, 151521, Control_c, 0, 64, 0
2, 151525, Note_on_c, 0, 56, 86
2, 151525, Note_on_c, 0, 80, 107
2, 151526, Note_on_c, 0, 60, 0
2, 151535, Control_c, 0, 64, 63
2, 151537, Note_on_c, 0, 63, 0
2, 151546, Control_c, 0, 64, 127
2, 151556, Note_on_c, 0, 56, 0
2, 151563, Note_on_c, 0, 80, 0
2, 151686, Note_on_c, 0, 44, 80
2, 151697, Note_on_c, 0, 78, 86
2, 151697, Note_on_c, 0, 66, 77
2, 151698, Note_on_c, 0, 68, 70
2, 151706, Control_c, 0, 64, 63
2, 151748, Note_on_c, 0, 44, 0
2, 151749, Note_on_c, 0, 56, 73
2, 151755, Control_c, 0, 64, 127
2, 151796, Note_on_c, 0, 44, 88
2, 151803, Note_on_c, 0, 78, 0
2, 151806, Note_on_c, 0, 56, 0
2, 151856, Note_on_c, 0, 46, 94
2, 151856, Note_on_c, 0, 76, 97
2, 151861, Control_c, 0, 64, 63
2, 151863, Note_on_c, 0, 44, 0
2, 151904, Note_on_c, 0, 44, 105
2, 151907, Control_c, 0, 64, 127
2, 151916, Note_on_c, 0, 46, 0
2, 151939, Note_on_c, 0, 76, 0
2, 151961, Note_on_c, 0, 46, 103
2, 151972, Note_on_c, 0, 68, 0
2, 151984, Note_on_c, 0, 66, 0
2, 151993, Note_on_c, 0, 44, 0
2, 152001, Note_on_c, 0, 68, 91
2, 152002, Note_on_c, 0, 75, 107
2, 152004, Note_on_c, 0, 66, 103
2, 152016, Note_on_c, 0, 48, 102
2, 152017, Control_c, 0, 64, 63
2, 152021, Note_on_c, 0, 46, 0
2, 152034, Control_c, 0, 64, 127
2, 152066, Note_on_c, 0, 68, 0
2, 152066, Note_on_c, 0, 46, 113
2, 152069, Note_on_c, 0, 66, 0
2, 152074, Note_on_c, 0, 75, 0
2, 152080, Note_on_c, 0, 48, 0
2, 152106, Control_c, 0, 64, 63
2, 152107, Note_on_c, 0, 48, 92
2, 152114, Control_c, 0, 64, 0
2, 152127, Note_on_c, 0, 46, 0
2, 152158, Note_on_c, 0, 76, 107
2, 152160, Note_on_c, 0, 68, 103
2, 152163, Note_on_c, 0, 49, 116
2, 152163, Note_on_c, 0, 64, 76
2, 152180, Control_c, 0, 64, 63
2, 152183, Control_c, 0, 64, 127
2, 152184, Note_on_c, 0, 48, 0
2, 152193, Note_on_c, 0, 76, 0
2, 152195, Note_on_c, 0, 64, 0
2, 152195, Note_on_c, 0, 68, 0
2, 152197, Note_on_c, 0, 49, 0
2, 152270, Control_c, 0, 64, 63
2, 152273, Control_c, 0, 64, 0
2, 152317, Note_on_c, 0, 37, 80
2, 152328, Note_on_c, 0, 64, 81
2, 152355, Control_c, 0, 64, 63
2, 152356, Note_on_c, 0, 37, 0
2, 152356, Control_c, 0, 64, 127
2, 152363, Note_on_c, 0, 66, 93
2, 152373, Note_on_c, 0, 64, 0
2, 152418, Note_on_c, 0, 68, 89
2, 152426, Note_on_c, 0, 66, 0
2, 152454, Note_on_c, 0, 68, 0
2, 152464, Note_on_c, 0, 61, 64
2, 152468, Note_on_c, 0, 69, 76
2, 152473, Note_on_c, 0, 64, 65
2, 152513, Note_on_c, 0, 69, 0
2, 152521, Note_on_c, 0, 76, 87
2, 152561, Note_on_c, 0, 64, 0
2, 152564, Note_on_c, 0, 69, 78
2, 152577, Note_on_c, 0, 76, 0
2, 152612, Note_on_c, 0, 61, 0
2, 152616, Note_on_c, 0, 66, 105
2, 152618, Control_c, 0, 64, 63
2, 152621, Note_on_c, 0, 70, 108
2, 152622, Control_c, 0, 64, 0
2, 152623, Note_on_c, 0, 60, 88
2, 152625, Note_on_c, 0, 69, 0
2, 152665, Note_on_c, 0, 78, 96
2, 152674, Note_on_c, 0, 70, 0
2, 152678, Control_c, 0, 64, 63
2, 152685, Control_c, 0, 64, 127
2, 152702, Control_c, 0, 64, 63
2, 152708, Control_c, 0, 64, 0
2, 152713, Note_on_c, 0, 78, 0
2, 152726, Note_on_c, 0, 76, 82
2, 152760, Note_on_c, 0, 75, 105
2, 152766, Note_on_c, 0, 76, 0
2, 152769, Note_on_c, 0, 60, 0
2, 152782, Note_on_c, 0, 59, 98
2, 152784, Note_on_c, 0, 66, 0
2, 152785, Control_c, 0, 64, 63
2, 152786, Control_c, 0, 64, 127
2, 152797, Note_on_c, 0, 75, 0
2, 152809, Note_on_c, 0, 71, 88
2, 152813, Note_on_c, 0, 59, 0
2, 152854, Note_on_c, 0, 71, 0
2, 152860, Note_on_c, 0, 75, 101
2, 152903, Note_on_c, 0, 78, 103
2, 152911, Note_on_c, 0, 75, 0
2, 152917, Note_on_c, 0, 47, 109
2, 152930, Note_on_c, 0, 78, 0
2, 152955, Note_on_c, 0, 47, 0
2, 152958, Note_on_c, 0, 83, 92
2, 152990, Note_on_c, 0, 83, 0
2, 153008, Note_on_c, 0, 95, 102
2, 153061, Note_on_c, 0, 93, 89
2, 153063, Note_on_c, 0, 63, 90
2, 153070, Note_on_c, 0, 69, 106
2, 153074, Note_on_c, 0, 59, 97
2, 153075, Note_on_c, 0, 95, 0
2, 153111, Note_on_c, 0, 90, 107
2, 153119, Note_on_c, 0, 93, 0
2, 153164, Note_on_c, 0, 87, 109
2, 153182, Note_on_c, 0, 90, 0
2, 153204, Note_on_c, 0, 87, 0
2, 153205, Note_on_c, 0, 83, 96
2, 153238, Note_on_c, 0, 83, 0
2, 153258, Note_on_c, 0, 81, 97
2, 153278, Note_on_c, 0, 69, 0
2, 153307, Note_on_c, 0, 81, 0
2, 153313, Note_on_c, 0, 78, 89
2, 153326, Note_on_c, 0, 59, 0
2, 153353, Note_on_c, 0, 78, 0
2, 153355, Note_on_c, 0, 63, 0
2, 153360, Note_on_c, 0, 69, 75
2, 153365, Note_on_c, 0, 64, 81
2, 153366, Control_c, 0, 64, 63
2, 153369, Note_on_c, 0, 72, 89
2, 153372, Control_c, 0, 64, 0
2, 153411, Note_on_c, 0, 72, 0
2, 153424, Note_on_c, 0, 84, 102
2, 153459, Note_on_c, 0, 84, 0
2, 153469, Note_on_c, 0, 72, 89
2, 153492, Control_c, 0, 64, 63
2, 153519, Note_on_c, 0, 63, 98
2, 153529, Control_c, 0, 64, 127
2, 153531, Note_on_c, 0, 71, 90
2, 153539, Control_c, 0, 64, 63
2, 153556, Note_on_c, 0, 64, 0
2, 153567, Note_on_c, 0, 71, 0
2, 153570, Note_on_c, 0, 75, 90
2, 153577, Note_on_c, 0, 72, 0
2, 153624, Note_on_c, 0, 78, 86
2, 153625, Note_on_c, 0, 75, 0
2, 153628, Control_c, 0, 64, 127
2, 153629, Note_on_c, 0, 69, 0
2, 153664, Note_on_c, 0, 72, 92
2, 153666, Note_on_c, 0, 78, 0
2, 153667, Note_on_c, 0, 69, 84
2, 153668, Note_on_c, 0, 64, 90
2, 153690, Note_on_c, 0, 63, 0
2, 153705, Control_c, 0, 64, 63
2, 153707, Note_on_c, 0, 72, 0
2, 153723, Note_on_c, 0, 84, 101
2, 153725, Control_c, 0, 64, 0
2, 153744, Control_c, 0, 64, 63
2, 153757, Note_on_c, 0, 84, 0
2, 153769, Note_on_c, 0, 72, 84
2, 153769, Control_c, 0, 64, 127
2, 153807, Control_c, 0, 64, 63
2, 153814, Note_on_c, 0, 63, 97
2, 153825, Note_on_c, 0, 71, 87
2, 153826, Control_c, 0, 64, 0
2, 153835, Note_on_c, 0, 72, 0
2, 153859, Note_on_c, 0, 64, 0
2, 153860, Note_on_c, 0, 71, 0
2, 153861, Note_on_c, 0, 75, 72
2, 153904, Note_on_c, 0, 75, 0
2, 153929, Note_on_c, 0, 78, 68
2, 153949, Note_on_c, 0, 78, 0
2, 153967, Note_on_c, 0, 69, 0
2, 153968, Note_on_c, 0, 59, 97
2, 153970, Note_on_c, 0, 83, 93
2, 153973, Control_c, 0, 64, 63
2, 153974, Note_on_c, 0, 63, 0
2, 153978, Control_c, 0, 64, 127
2, 154005, Note_on_c, 0, 83, 0
2, 154007, Note_on_c, 0, 59, 0
2, 154119, Control_c, 0, 64, 63
2, 154131, Control_c, 0, 64, 0
2, 154133, Note_on_c, 0, 81, 98
2, 154134, Note_on_c, 0, 71, 84
2, 154135, Note_on_c, 0, 69, 88
2, 154136, Note_on_c, 0, 47, 87
2, 154186, Note_on_c, 0, 59, 80
2, 154193, Note_on_c, 0, 47, 0
2, 154234, Note_on_c, 0, 47, 88
2, 154239, Note_on_c, 0, 59, 0
2, 154268, Note_on_c, 0, 81, 0
2, 154286, Note_on_c, 0, 49, 90
2, 154295, Note_on_c, 0, 80, 101
2, 154303, Note_on_c, 0, 47, 0
2, 154345, Note_on_c, 0, 48, 80
2, 154351, Note_on_c, 0, 49, 0
2, 154390, Note_on_c, 0, 49, 103
2, 154409, Note_on_c, 0, 80, 0
2, 154417, Note_on_c, 0, 48, 0
2, 154417, Note_on_c, 0, 71, 0
2, 154418, Note_on_c, 0, 69, 0
2, 154441, Note_on_c, 0, 71, 85
2, 154441, Note_on_c, 0, 69, 91
2, 154443, Note_on_c, 0, 79, 106
2, 154451, Note_on_c, 0, 51, 100
2, 154462, Control_c, 0, 64, 63
2, 154465, Note_on_c, 0, 49, 0
2, 154466, Control_c, 0, 64, 127
2, 154499, Note_on_c, 0, 79, 0
2, 154499, Note_on_c, 0, 50, 102
2, 154501, Note_on_c, 0, 51, 0
2, 154520, Note_on_c, 0, 69, 0
2, 154520, Note_on_c, 0, 71, 0
2, 154539, Note_on_c, 0, 51, 107
2, 154546, Control_c, 0, 64, 63
2, 154551, Control_c, 0, 64, 0
2, 154564, Note_on_c, 0, 50, 0
2, 154602, Note_on_c, 0, 71, 87
2, 154602, Note_on_c, 0, 52, 106
2, 154604, Note_on_c, 0, 80, 84
2, 154605, Note_on_c, 0, 68, 98
2, 154621, Control_c, 0, 64, 63
2, 154623, Note_on_c, 0, 51, 0
2, 154625, Control_c, 0, 64, 127
2, 154633, Note_on_c, 0, 68, 0
2, 154636, Note_on_c, 0, 52, 0
2, 154638, Note_on_c, 0, 71, 0
2, 154653, Note_on_c, 0, 80, 0
2, 154749, Control_c, 0, 64, 63
2, 154756, Control_c, 0, 64, 0
2, 154783, Note_on_c, 0, 70, 79
2, 154789, Note_on_c, 0, 74, 76
2, 154792, Note_on_c, 0, 64, 60
2, 154836, Note_on_c, 0, 82, 93
2, 154844, Note_on_c, 0, 74, 0
2, 154888, Note_on_c, 0, 80, 93
2, 154900, Note_on_c, 0, 82, 0
2, 154933, Note_on_c, 0, 63, 101
2, 154936, Note_on_c, 0, 79, 90
2, 154956, Note_on_c, 0, 70, 0
2, 154956, Control_c, 0, 64, 63
2, 154957, Note_on_c, 0, 64, 0
2, 154958, Control_c, 0, 64, 127
2, 154960, Note_on_c, 0, 80, 0
2, 154971, Note_on_c, 0, 63, 0
2, 154976, Note_on_c, 0, 75, 97
2, 154980, Note_on_c, 0, 79, 0
2, 155026, Note_on_c, 0, 75, 0
2, 155026, Note_on_c, 0, 79, 84
2, 155073, Note_on_c, 0, 79, 0
2, 155075, Note_on_c, 0, 82, 92
2, 155083, Note_on_c, 0, 51, 106
2, 155091, Note_on_c, 0, 82, 0
2, 155106, Note_on_c, 0, 51, 0
2, 155123, Note_on_c, 0, 87, 106
2, 155161, Note_on_c, 0, 87, 0
2, 155177, Note_on_c, 0, 99, 105
2, 155230, Note_on_c, 0, 99, 0
2, 155233, Note_on_c, 0, 87, 101
2, 155238, Note_on_c, 0, 67, 77
2, 155239, Note_on_c, 0, 63, 76
2, 155259, Note_on_c, 0, 87, 0
2, 155282, Note_on_c, 0, 63, 0
2, 155285, Note_on_c, 0, 67, 0
2, 155396, Control_c, 0, 64, 63
2, 155401, Control_c, 0, 64, 0
2, 155411, Note_on_c, 0, 68, 96
2, 155414, Note_on_c, 0, 62, 90
2, 155419, Note_on_c, 0, 72, 68
2, 155467, Note_on_c, 0, 72, 0
2, 155469, Note_on_c, 0, 80, 98
2, 155499, Control_c, 0, 64, 63
2, 155501, Control_c, 0, 64, 127
2, 155522, Note_on_c, 0, 78, 98
2, 155536, Note_on_c, 0, 80, 0
2, 155555, Note_on_c, 0, 61, 99
2, 155568, Note_on_c, 0, 68, 0
2, 155571, Note_on_c, 0, 77, 96
2, 155575, Note_on_c, 0, 62, 0
2, 155588, Note_on_c, 0, 61, 0
2, 155594, Note_on_c, 0, 78, 0
2, 155615, Note_on_c, 0, 73, 103
2, 155627, Note_on_c, 0, 77, 0
2, 155667, Note_on_c, 0, 73, 0
2, 155667, Note_on_c, 0, 77, 93
2, 155698, Note_on_c, 0, 49, 96
2, 155716, Note_on_c, 0, 80, 98
2, 155721, Note_on_c, 0, 77, 0
2, 155728, Note_on_c, 0, 49, 0
2, 155737, Note_on_c, 0, 80, 0
2, 155764, Note_on_c, 0, 85, 104
2, 155804, Note_on_c, 0, 85, 0
2, 155820, Note_on_c, 0, 97, 97
2, 155867, Note_on_c, 0, 97, 0
2, 155873, Note_on_c, 0, 61, 73
2, 155875, Note_on_c, 0, 85, 88
2, 155880, Note_on_c, 0, 65, 89
2, 155902, Note_on_c, 0, 85, 0
2, 155935, Control_c, 0, 64, 63
2, 155939, Control_c, 0, 64, 0
2, 155954, Note_on_c, 0, 65, 0
2, 156055, Note_on_c, 0, 60, 87
2, 156055, Note_on_c, 0, 66, 99
2, 156056, Note_on_c, 0, 61, 0
2, 156057, Note_on_c, 0, 70, 96
2, 156078, Control_c, 0, 64, 63
2, 156080, Control_c, 0, 64, 127
2, 156093, Note_on_c, 0, 70, 0
2, 156101, Note_on_c, 0, 78, 97
2, 156156, Note_on_c, 0, 76, 91
2, 156169, Control_c, 0, 64, 63
2, 156171, Control_c, 0, 64, 0
2, 156173, Note_on_c, 0, 78, 0
2, 156192, Note_on_c, 0, 66, 0
2, 156199, Note_on_c, 0, 59, 81
2, 156211, Note_on_c, 0, 60, 0
2, 156213, Control_c, 0, 64, 63
2, 156215, Note_on_c, 0, 75, 90
2, 156219, Control_c, 0, 64, 127
2, 156227, Note_on_c, 0, 76, 0
2, 156238, Note_on_c, 0, 59, 0
2, 156249, Note_on_c, 0, 71, 77
2, 156255, Note_on_c, 0, 75, 0
2, 156298, Note_on_c, 0, 75, 84
2, 156305, Note_on_c, 0, 71, 0
2, 156349, Note_on_c, 0, 47, 87
2, 156352, Note_on_c, 0, 78, 90
2, 156356, Note_on_c, 0, 75, 0
2, 156380, Note_on_c, 0, 78, 0
2, 156391, Note_on_c, 0, 47, 0
2, 156408, Note_on_c, 0, 83, 87
2, 156438, Note_on_c, 0, 83, 0
2, 156453, Note_on_c, 0, 95, 94
2, 156512, Note_on_c, 0, 46, 87
2, 156514, Note_on_c, 0, 95, 0
2, 156514, Note_on_c, 0, 93, 73
2, 156517, Control_c, 0, 64, 63
2, 156521, Control_c, 0, 64, 0
2, 156564, Note_on_c, 0, 90, 97
2, 156565, Note_on_c, 0, 93, 0
2, 156566, Note_on_c, 0, 47, 85
2, 156568, Note_on_c, 0, 46, 0
2, 156612, Note_on_c, 0, 49, 97
2, 156617, Note_on_c, 0, 47, 0
2, 156617, Note_on_c, 0, 87, 97
2, 156632, Note_on_c, 0, 90, 0
2, 156656, Note_on_c, 0, 87, 0
2, 156662, Note_on_c, 0, 83, 82
2, 156667, Note_on_c, 0, 51, 105
2, 156688, Note_on_c, 0, 49, 0
2, 156694, Note_on_c, 0, 83, 0
2, 156711, Note_on_c, 0, 52, 99
2, 156717, Note_on_c, 0, 81, 92
2, 156720, Control_c, 0, 64, 63
2, 156727, Note_on_c, 0, 51, 0
2, 156730, Control_c, 0, 64, 127
2, 156756, Note_on_c, 0, 81, 0
2, 156757, Note_on_c, 0, 54, 103
2, 156760, Note_on_c, 0, 78, 99
2, 156769, Note_on_c, 0, 52, 0
2, 156769, Control_c, 0, 64, 63
2, 156779, Control_c, 0, 64, 0
2, 156797, Note_on_c, 0, 78, 0
2, 156808, Note_on_c, 0, 56, 101
2, 156809, Note_on_c, 0, 75, 104
2, 156829, Note_on_c, 0, 54, 0
2, 156848, Note_on_c, 0, 75, 0
2, 156854, Note_on_c, 0, 57, 76
2, 156857, Note_on_c, 0, 71, 64
2, 156864, Note_on_c, 0, 56, 0
2, 156887, Note_on_c, 0, 71, 0
2, 156902, Note_on_c, 0, 70, 95
2, 156906, Note_on_c, 0, 58, 75
2, 156909, Note_on_c, 0, 57, 0
2, 156955, Note_on_c, 0, 58, 0
2, 156958, Note_on_c, 0, 70, 0
2, 156961, Note_on_c, 0, 69, 90
2, 156965, Note_on_c, 0, 59, 74
2, 157030, Note_on_c, 0, 61, 78
2, 157066, Note_on_c, 0, 59, 0
2, 157096, Note_on_c, 0, 63, 78
2, 157116, Note_on_c, 0, 61, 0
2, 157170, Note_on_c, 0, 68, 80
2, 157178, Note_on_c, 0, 69, 0
2, 157179, Note_on_c, 0, 63, 0
2, 157180, Note_on_c, 0, 64, 69
2, 157240, Note_on_c, 0, 64, 0
2, 157264, Note_on_c, 0, 68, 0
2, 157273, Note_on_c, 0, 69, 65
2, 157336, Note_on_c, 0, 69, 0
2, 157341, Note_on_c, 0, 70, 61
2, 157376, Note_on_c, 0, 70, 0
2, 157391, Note_on_c, 0, 71, 69
2, 157439, Note_on_c, 0, 71, 0
2, 157453, Note_on_c, 0, 73, 70
2, 157501, Note_on_c, 0, 73, 0
2, 157501, Note_on_c, 0, 75, 73
2, 157537, Note_on_c, 0, 75, 0
2, 157541, Note_on_c, 0, 44, 77
2, 157550, Note_on_c, 0, 76, 66
2, 157567, Note_on_c, 0, 44, 0
2, 157589, Note_on_c, 0, 76, 0
2, 157597, Note_on_c, 0, 78, 69
2, 157640, Note_on_c, 0, 78, 0
2, 157658, Note_on_c, 0, 79, 66
2, 157704, Note_on_c, 0, 79, 0
2, 157706, Note_on_c, 0, 80, 69
2, 157713, Note_on_c, 0, 56, 66
2, 157715, Note_on_c, 0, 64, 39
2, 157715, Note_on_c, 0, 59, 54
2, 157733, Note_on_c, 0, 59, 0
2, 157736, Note_on_c, 0, 64, 0
2, 157746, Note_on_c, 0, 56, 0
2, 157763, Note_on_c, 0, 80, 0
2, 157767, Note_on_c, 0, 81, 75
2, 157815, Note_on_c, 0, 80, 71
2, 157818, Note_on_c, 0, 81, 0
2, 157855, Note_on_c, 0, 80, 0
2, 157870, Note_on_c, 0, 78, 59
2, 157873, Note_on_c, 0, 47, 74
2, 157897, Note_on_c, 0, 47, 0
2, 157912, Note_on_c, 0, 78, 0
2, 157928, Note_on_c, 0, 80, 71
2, 157986, Note_on_c, 0, 78, 68
2, 157990, Note_on_c, 0, 80, 0
2, 158017, Note_on_c, 0, 78, 0
2, 158026, Note_on_c, 0, 57, 41
2, 158026, Note_on_c, 0, 63, 65
2, 158028, Note_on_c, 0, 59, 45
2, 158036, Note_on_c, 0, 76, 81
2, 158039, Note_on_c, 0, 84, 81
2, 158049, Note_on_c, 0, 59, 0
2, 158054, Note_on_c, 0, 63, 0
2, 158056, Note_on_c, 0, 57, 0
2, 158072, Note_on_c, 0, 76, 0
2, 158095, Note_on_c, 0, 84, 0
2, 158101, Note_on_c, 0, 78, 75
2, 158139, Note_on_c, 0, 78, 0
2, 158144, Note_on_c, 0, 76, 65
2, 158178, Note_on_c, 0, 76, 0
2, 158195, Note_on_c, 0, 54, 75
2, 158200, Note_on_c, 0, 75, 83
2, 158200, Note_on_c, 0, 83, 78
2, 158235, Note_on_c, 0, 54, 0
2, 158248, Note_on_c, 0, 75, 0
2, 158266, Note_on_c, 0, 83, 0
2, 158268, Note_on_c, 0, 78, 65
2, 158301, Note_on_c, 0, 75, 74
2, 158304, Note_on_c, 0, 78, 0
2, 158330, Note_on_c, 0, 75, 0
2, 158356, Note_on_c, 0, 72, 85
2, 158356, Note_on_c, 0, 78, 78
2, 158361, Note_on_c, 0, 63, 71
2, 158365, Note_on_c, 0, 57, 52
2, 158366, Note_on_c, 0, 59, 59
2, 158377, Note_on_c, 0, 63, 0
2, 158385, Note_on_c, 0, 59, 0
2, 158390, Note_on_c, 0, 57, 0
2, 158410, Note_on_c, 0, 72, 0
2, 158410, Note_on_c, 0, 71, 75
2, 158439, Note_on_c, 0, 78, 0
2, 158456, Note_on_c, 0, 71, 0
2, 158468, Note_on_c, 0, 69, 74
2, 158504, Note_on_c, 0, 69, 0
2, 158518, Note_on_c, 0, 80, 94
2, 158526, Note_on_c, 0, 52, 86
2, 158553, Note_on_c, 0, 80, 0
2, 158560, Note_on_c, 0, 52, 0
2, 158586, Note_on_c, 0, 68, 88
2, 158612, Note_on_c, 0, 68, 0
2, 158634, Note_on_c, 0, 69, 76
2, 158682, Note_on_c, 0, 69, 0
2, 158684, Note_on_c, 0, 71, 79
2, 158686, Note_on_c, 0, 56, 74
2, 158688, Note_on_c, 0, 64, 49
2, 158693, Note_on_c, 0, 59, 50
2, 158712, Note_on_c, 0, 59, 0
2, 158712, Note_on_c, 0, 64, 0
2, 158718, Note_on_c, 0, 56, 0
2, 158735, Note_on_c, 0, 71, 0
2, 158740, Note_on_c, 0, 73, 75
2, 158791, Note_on_c, 0, 75, 78
2, 158793, Note_on_c, 0, 73, 0
2, 158825, Note_on_c, 0, 75, 0
2, 158837, Note_on_c, 0, 76, 63
2, 158840, Note_on_c, 0, 44, 91
2, 158868, Note_on_c, 0, 44, 0
2, 158882, Note_on_c, 0, 76, 0
2, 158888, Note_on_c, 0, 78, 90
2, 158928, Note_on_c, 0, 78, 0
2, 158945, Note_on_c, 0, 79, 84
2, 158991, Note_on_c, 0, 79, 0
2, 158993, Note_on_c, 0, 80, 93
2, 158996, Note_on_c, 0, 64, 82
2, 158999, Note_on_c, 0, 56, 82
2, 159001, Note_on_c, 0, 59, 75
2, 159019, Note_on_c, 0, 59, 0
2, 159020, Note_on_c, 0, 64, 0
2, 159027, Note_on_c, 0, 56, 0
2, 159044, Note_on_c, 0, 80, 0
2, 159050, Note_on_c, 0, 81, 80
2, 159091, Note_on_c, 0, 80, 78
2, 159098, Note_on_c, 0, 81, 0
2, 159135, Note_on_c, 0, 80, 0
2, 159153, Note_on_c, 0, 47, 84
2, 159158, Note_on_c, 0, 78, 94
2, 159182, Note_on_c, 0, 47, 0
2, 159203, Note_on_c, 0, 78, 0
2, 159209, Note_on_c, 0, 80, 85
2, 159265, Note_on_c, 0, 78, 79
2, 159272, Note_on_c, 0, 80, 0
2, 159298, Note_on_c, 0, 78, 0
2, 159322, Note_on_c, 0, 63, 71
2, 159325, Note_on_c, 0, 59, 56
2, 159325, Note_on_c, 0, 84, 84
2, 159326, Note_on_c, 0, 57, 50
2, 159326, Note_on_c, 0, 76, 80
2, 159339, Note_on_c, 0, 63, 0
2, 159345, Note_on_c, 0, 59, 0
2, 159349, Note_on_c, 0, 57, 0
2, 159364, Note_on_c, 0, 76, 0
2, 159371, Note_on_c, 0, 84, 0
2, 159387, Note_on_c, 0, 78, 88
2, 159423, Note_on_c, 0, 78, 0
2, 159434, Note_on_c, 0, 76, 74
2, 159461, Note_on_c, 0, 76, 0
2, 159493, Note_on_c, 0, 54, 88
2, 159493, Note_on_c, 0, 75, 85
2, 159499, Note_on_c, 0, 83, 84
2, 159526, Note_on_c, 0, 54, 0
2, 159527, Note_on_c, 0, 75, 0
2, 159559, Note_on_c, 0, 83, 0
2, 159559, Note_on_c, 0, 78, 88
2, 159600, Note_on_c, 0, 78, 0
2, 159604, Note_on_c, 0, 75, 82
2, 159630, Note_on_c, 0, 75, 0
2, 159647, Note_on_c, 0, 63, 76
2, 159650, Note_on_c, 0, 72, 86
2, 159650, Note_on_c, 0, 57, 62
2, 159654, Note_on_c, 0, 59, 64
2, 159654, Note_on_c, 0, 78, 80
2, 159680, Note_on_c, 0, 59, 0
2, 159685, Note_on_c, 0, 63, 0
2, 159696, Note_on_c, 0, 57, 0
2, 159709, Note_on_c, 0, 71, 81
2, 159720, Note_on_c, 0, 72, 0
2, 159737, Note_on_c, 0, 78, 0
2, 159757, Note_on_c, 0, 71, 0
2, 159759, Note_on_c, 0, 69, 71
2, 159797, Note_on_c, 0, 69, 0
2, 159810, Note_on_c, 0, 80, 89
2, 159819, Note_on_c, 0, 52, 91
2, 159840, Note_on_c, 0, 80, 0
2, 159853, Note_on_c, 0, 52, 0
2, 159874, Note_on_c, 0, 68, 82
2, 159915, Note_on_c, 0, 68, 0
2, 159929, Note_on_c, 0, 69, 73
2, 159975, Note_on_c, 0, 69, 0
2, 159979, Note_on_c, 0, 71, 66
2, 159980, Note_on_c, 0, 56, 69
2, 159980, Note_on_c, 0, 64, 52
2, 159988, Note_on_c, 0, 59, 39
2, 160001, Note_on_c, 0, 64, 0
2, 160006, Note_on_c, 0, 56, 0
2, 160008, Note_on_c, 0, 59, 0
2, 160029, Note_on_c, 0, 71, 0
2, 160036, Note_on_c, 0, 73, 87
2, 160088, Note_on_c, 0, 75, 72
2, 160092, Note_on_c, 0, 73, 0
2, 160116, Note_on_c, 0, 75, 0
2, 160128, Note_on_c, 0, 50, 100
2, 160129, Note_on_c, 0, 76, 81
2, 160165, Note_on_c, 0, 50, 0
2, 160175, Note_on_c, 0, 76, 0
2, 160185, Note_on_c, 0, 78, 89
2, 160231, Note_on_c, 0, 78, 0
2, 160237, Note_on_c, 0, 79, 89
2, 160280, Note_on_c, 0, 64, 65
2, 160280, Note_on_c, 0, 56, 81
2, 160281, Note_on_c, 0, 80, 101
2, 160282, Note_on_c, 0, 59, 67
2, 160290, Note_on_c, 0, 79, 0
2, 160300, Note_on_c, 0, 64, 0
2, 160301, Note_on_c, 0, 59, 0
2, 160314, Note_on_c, 0, 56, 0
2, 160338, Note_on_c, 0, 83, 80
2, 160346, Note_on_c, 0, 80, 0
2, 160393, Note_on_c, 0, 81, 83
2, 160406, Note_on_c, 0, 83, 0
2, 160434, Note_on_c, 0, 49, 95
2, 160442, Note_on_c, 0, 80, 87
2, 160457, Note_on_c, 0, 81, 0
2, 160463, Note_on_c, 0, 49, 0
2, 160497, Note_on_c, 0, 80, 0
2, 160499, Note_on_c, 0, 81, 70
2, 160538, Note_on_c, 0, 80, 87
2, 160548, Note_on_c, 0, 81, 0
2, 160576, Note_on_c, 0, 80, 0
2, 160601, Note_on_c, 0, 65, 70
2, 160602, Note_on_c, 0, 61, 76
2, 160608, Note_on_c, 0, 86, 88
2, 160611, Note_on_c, 0, 59, 38
2, 160612, Note_on_c, 0, 78, 109
2, 160625, Note_on_c, 0, 61, 0
2, 160625, Note_on_c, 0, 65, 0
2, 160634, Note_on_c, 0, 59, 0
2, 160639, Note_on_c, 0, 86, 0
2, 160665, Note_on_c, 0, 80, 101
2, 160672, Note_on_c, 0, 78, 0
2, 160700, Note_on_c, 0, 78, 68
2, 160709, Note_on_c, 0, 80, 0
2, 160744, Note_on_c, 0, 78, 0
2, 160754, Note_on_c, 0, 56, 85
2, 160765, Note_on_c, 0, 77, 102
2, 160766, Note_on_c, 0, 85, 103
2, 160801, Note_on_c, 0, 77, 0
2, 160802, Note_on_c, 0, 56, 0
2, 160827, Note_on_c, 0, 80, 81
2, 160855, Note_on_c, 0, 85, 0
2, 160871, Note_on_c, 0, 80, 0
2, 160874, Note_on_c, 0, 77, 68
2, 160893, Note_on_c, 0, 77, 0
2, 160921, Note_on_c, 0, 65, 71
2, 160923, Note_on_c, 0, 59, 77
2, 160923, Note_on_c, 0, 61, 75
2, 160933, Note_on_c, 0, 80, 99
2, 160933, Note_on_c, 0, 74, 103
2, 160941, Note_on_c, 0, 61, 0
2, 160942, Note_on_c, 0, 65, 0
2, 160949, Note_on_c, 0, 59, 0
2, 160989, Note_on_c, 0, 73, 88
2, 160992, Note_on_c, 0, 74, 0
2, 161000, Note_on_c, 0, 80, 0
2, 161033, Note_on_c, 0, 71, 77
2, 161050, Note_on_c, 0, 73, 0
2, 161072, Note_on_c, 0, 71, 0
2, 161087, Note_on_c, 0, 54, 108
2, 161089, Note_on_c, 0, 81, 98
2, 161117, Note_on_c, 0, 81, 0
2, 161126, Note_on_c, 0, 54, 0
2, 161135, Note_on_c, 0, 69, 75
2, 161185, Note_on_c, 0, 69, 0
2, 161188, Note_on_c, 0, 71, 73
2, 161198, Note_on_c, 0, 69, 44
2, 161220, Note_on_c, 0, 69, 0
2, 161228, Note_on_c, 0, 71, 0
2, 161247, Note_on_c, 0, 72, 84
2, 161253, Note_on_c, 0, 57, 77
2, 161253, Note_on_c, 0, 66, 88
2, 161255, Note_on_c, 0, 61, 74
2, 161268, Note_on_c, 0, 66, 0
2, 161270, Note_on_c, 0, 61, 0
2, 161286, Note_on_c, 0, 57, 0
2, 161293, Note_on_c, 0, 72, 0
2, 161293, Note_on_c, 0, 73, 92
2, 161346, Note_on_c, 0, 75, 94
2, 161352, Note_on_c, 0, 73, 0
2, 161385, Note_on_c, 0, 75, 0
2, 161401, Note_on_c, 0, 45, 91
2, 161401, Note_on_c, 0, 77, 86
2, 161410, Control_c, 0, 64, 63
2, 161411, Control_c, 0, 64, 127
2, 161423, Note_on_c, 0, 45, 0
2, 161449, Note_on_c, 0, 78, 83
2, 161451, Note_on_c, 0, 77, 0
2, 161491, Note_on_c, 0, 78, 0
2, 161500, Note_on_c, 0, 79, 82
2, 161549, Note_on_c, 0, 80, 100
2, 161551, Note_on_c, 0, 66, 96
2, 161552, Note_on_c, 0, 79, 0
2, 161552, Note_on_c, 0, 57, 81
2, 161552, Note_on_c, 0, 61, 89
2, 161563, Control_c, 0, 64, 63
2, 161566, Control_c, 0, 64, 0
2, 161567, Note_on_c, 0, 61, 0
2, 161569, Note_on_c, 0, 66, 0
2, 161580, Note_on_c, 0, 57, 0
2, 161608, Note_on_c, 0, 83, 87
2, 161615, Note_on_c, 0, 80, 0
2, 161665, Note_on_c, 0, 81, 84
2, 161675, Note_on_c, 0, 83, 0
2, 161709, Note_on_c, 0, 81, 0
2, 161712, Control_c, 0, 64, 63
2, 161713, Control_c, 0, 64, 127
2, 161716, Note_on_c, 0, 49, 97
2, 161718, Note_on_c, 0, 80, 88
2, 161740, Note_on_c, 0, 49, 0
2, 161759, Note_on_c, 0, 80, 0
2, 161762, Note_on_c, 0, 81, 87
2, 161806, Note_on_c, 0, 81, 0
2, 161806, Note_on_c, 0, 80, 88
2, 161841, Note_on_c, 0, 80, 0
2, 161875, Note_on_c, 0, 65, 85
2, 161876, Control_c, 0, 64, 63
2, 161877, Note_on_c, 0, 61, 86
2, 161879, Note_on_c, 0, 59, 78
2, 161880, Control_c, 0, 64, 0
2, 161883, Note_on_c, 0, 86, 104
2, 161886, Note_on_c, 0, 78, 114
2, 161898, Note_on_c, 0, 61, 0
2, 161899, Note_on_c, 0, 59, 0
2, 161899, Note_on_c, 0, 65, 0
2, 161919, Note_on_c, 0, 86, 0
2, 161943, Note_on_c, 0, 80, 103
2, 161949, Note_on_c, 0, 78, 0
2, 161986, Note_on_c, 0, 78, 90
2, 161999, Note_on_c, 0, 80, 0
2, 162027, Note_on_c, 0, 78, 0
2, 162037, Note_on_c, 0, 56, 100
2, 162038, Control_c, 0, 64, 63
2, 162038, Control_c, 0, 64, 127
2, 162042, Note_on_c, 0, 77, 107
2, 162046, Note_on_c, 0, 85, 107
2, 162075, Note_on_c, 0, 77, 0
2, 162079, Note_on_c, 0, 56, 0
2, 162106, Note_on_c, 0, 80, 97
2, 162118, Note_on_c, 0, 85, 0
2, 162145, Note_on_c, 0, 80, 0
2, 162148, Note_on_c, 0, 77, 83
2, 162167, Note_on_c, 0, 77, 0
2, 162191, Note_on_c, 0, 65, 99
2, 162193, Note_on_c, 0, 59, 92
2, 162194, Note_on_c, 0, 61, 96
2, 162201, Note_on_c, 0, 80, 105
2, 162205, Control_c, 0, 64, 63
2, 162206, Note_on_c, 0, 74, 107
2, 162208, Control_c, 0, 64, 0
2, 162211, Note_on_c, 0, 61, 0
2, 162217, Note_on_c, 0, 65, 0
2, 162220, Note_on_c, 0, 59, 0
2, 162260, Note_on_c, 0, 73, 106
2, 162268, Note_on_c, 0, 74, 0
2, 162268, Note_on_c, 0, 80, 0
2, 162306, Note_on_c, 0, 71, 91
2, 162319, Note_on_c, 0, 73, 0
2, 162341, Note_on_c, 0, 71, 0
2, 162353, Control_c, 0, 64, 127
2, 162360, Note_on_c, 0, 81, 114
2, 162361, Note_on_c, 0, 54, 120
2, 162392, Note_on_c, 0, 81, 0
2, 162401, Note_on_c, 0, 54, 0
2, 162411, Note_on_c, 0, 69, 85
2, 162459, Note_on_c, 0, 69, 0
2, 162468, Note_on_c, 0, 73, 96
2, 162511, Note_on_c, 0, 66, 105
2, 162515, Note_on_c, 0, 61, 85
2, 162517, Note_on_c, 0, 57, 71
2, 162521, Note_on_c, 0, 78, 103
2, 162526, Note_on_c, 0, 73, 0
2, 162533, Note_on_c, 0, 61, 0
2, 162538, Note_on_c, 0, 66, 0
2, 162544, Note_on_c, 0, 78, 0
2, 162560, Note_on_c, 0, 57, 0
2, 162571, Note_on_c, 0, 81, 100
2, 162610, Note_on_c, 0, 81, 0
2, 162628, Note_on_c, 0, 93, 100
2, 162679, Note_on_c, 0, 90, 101
2, 162687, Note_on_c, 0, 93, 0
2, 162735, Note_on_c, 0, 85, 103
2, 162741, Note_on_c, 0, 90, 0
2, 162774, Note_on_c, 0, 85, 0
2, 162774, Note_on_c, 0, 81, 94
2, 162807, Note_on_c, 0, 81, 0
2, 162831, Note_on_c, 0, 42, 114
2, 162840, Note_on_c, 0, 78, 108
2, 162863, Note_on_c, 0, 42, 0
2, 162889, Note_on_c, 0, 73, 107
2, 162895, Note_on_c, 0, 78, 0
2, 162928, Note_on_c, 0, 73, 0
2, 162931, Control_c, 0, 64, 63
2, 162937, Control_c, 0, 64, 0
2, 162940, Note_on_c, 0, 69, 82
2, 162973, Note_on_c, 0, 69, 0
2, 162986, Note_on_c, 0, 44, 116
2, 162990, Note_on_c, 0, 80, 105
2, 162996, Control_c, 0, 64, 127
2, 163011, Note_on_c, 0, 44, 0
2, 163040, Note_on_c, 0, 68, 97
2, 163052, Note_on_c, 0, 80, 0
2, 163093, Note_on_c, 0, 73, 99
2, 163106, Note_on_c, 0, 68, 0
2, 163133, Note_on_c, 0, 61, 103
2, 163135, Note_on_c, 0, 64, 101
2, 163136, Note_on_c, 0, 56, 92
2, 163145, Note_on_c, 0, 76, 93
2, 163153, Note_on_c, 0, 73, 0
2, 163173, Note_on_c, 0, 76, 0
2, 163195, Note_on_c, 0, 80, 108
2, 163237, Note_on_c, 0, 80, 0
2, 163252, Note_on_c, 0, 61, 0
2, 163253, Note_on_c, 0, 92, 112
2, 163254, Note_on_c, 0, 64, 0
2, 163276, Note_on_c, 0, 56, 0
2, 163312, Note_on_c, 0, 88, 91
2, 163316, Note_on_c, 0, 92, 0
2, 163358, Note_on_c, 0, 85, 105
2, 163381, Note_on_c, 0, 88, 0
2, 163391, Note_on_c, 0, 80, 107
2, 163417, Note_on_c, 0, 80, 0
2, 163418, Note_on_c, 0, 85, 0
2, 163451, Note_on_c, 0, 97, 120
2, 163455, Note_on_c, 0, 44, 118
2, 163473, Note_on_c, 0, 97, 0
2, 163485, Note_on_c, 0, 44, 0
2, 163559, Control_c, 0, 64, 63
2, 163564, Control_c, 0, 64, 0
2, 163632, Note_on_c, 0, 45, 124
2, 163634, Note_on_c, 0, 78, 116
2, 163654, Control_c, 0, 64, 127
2, 163665, Note_on_c, 0, 45, 0
2, 163679, Note_on_c, 0, 78, 0
2, 163689, Note_on_c, 0, 66, 104
2, 163739, Note_on_c, 0, 69, 84
2, 163740, Note_on_c, 0, 66, 0
2, 163784, Note_on_c, 0, 69, 0
2, 163785, Note_on_c, 0, 73, 100
2, 163793, Note_on_c, 0, 61, 94
2, 163793, Note_on_c, 0, 57, 74
2, 163794, Note_on_c, 0, 66, 100
2, 163807, Note_on_c, 0, 73, 0
2, 163831, Note_on_c, 0, 78, 114
2, 163841, Note_on_c, 0, 66, 0
2, 163848, Note_on_c, 0, 61, 0
2, 163868, Note_on_c, 0, 78, 0
2, 163868, Note_on_c, 0, 57, 0
2, 163887, Note_on_c, 0, 90, 103
2, 163946, Note_on_c, 0, 85, 103
2, 163953, Note_on_c, 0, 90, 0
2, 163999, Note_on_c, 0, 81, 91
2, 164008, Note_on_c, 0, 85, 0
2, 164047, Note_on_c, 0, 78, 112
2, 164050, Note_on_c, 0, 81, 0
2, 164075, Note_on_c, 0, 78, 0
2, 164104, Note_on_c, 0, 45, 114
2, 164108, Note_on_c, 0, 73, 112
2, 164153, Note_on_c, 0, 73, 0
2, 164156, Note_on_c, 0, 69, 94
2, 164176, Note_on_c, 0, 45, 0
2, 164198, Note_on_c, 0, 66, 103
2, 164199, Note_on_c, 0, 69, 0
2, 164223, Control_c, 0, 64, 63
2, 164228, Control_c, 0, 64, 0
2, 164233, Note_on_c, 0, 66, 0
2, 164256, Note_on_c, 0, 46, 126
2, 164261, Note_on_c, 0, 76, 117
2, 164281, Control_c, 0, 64, 127
2, 164285, Note_on_c, 0, 46, 0
2, 164295, Note_on_c, 0, 76, 0
2, 164313, Note_on_c, 0, 64, 90
2, 164358, Note_on_c, 0, 66, 105
2, 164364, Note_on_c, 0, 64, 0
2, 164396, Note_on_c, 0, 66, 0
2, 164409, Note_on_c, 0, 61, 109
2, 164411, Note_on_c, 0, 73, 103
2, 164412, Note_on_c, 0, 64, 98
2, 164414, Note_on_c, 0, 54, 99
2, 164436, Note_on_c, 0, 73, 0
2, 164461, Note_on_c, 0, 76, 102
2, 164490, Note_on_c, 0, 76, 0
2, 164500, Note_on_c, 0, 64, 0
2, 164500, Note_on_c, 0, 61, 0
2, 164517, Note_on_c, 0, 54, 0
2, 164524, Note_on_c, 0, 88, 87
2, 164571, Note_on_c, 0, 85, 97
2, 164576, Note_on_c, 0, 88, 0
2, 164629, Note_on_c, 0, 78, 114
2, 164647, Note_on_c, 0, 85, 0
2, 164674, Note_on_c, 0, 76, 80
2, 164680, Note_on_c, 0, 78, 0
2, 164699, Note_on_c, 0, 76, 0
2, 164733, Note_on_c, 0, 46, 121
2, 164736, Note_on_c, 0, 97, 118
2, 164761, Note_on_c, 0, 97, 0
2, 164767, Note_on_c, 0, 46, 0
2, 164807, Control_c, 0, 64, 63
2, 164812, Control_c, 0, 64, 0
2, 164907, Note_on_c, 0, 95, 121
2, 164907, Note_on_c, 0, 47, 127
2, 164915, Control_c, 0, 64, 127
2, 164937, Note_on_c, 0, 95, 0
2, 164943, Note_on_c, 0, 47, 0
2, 165119, Note_on_c, 0, 85, 103
2, 165120, Note_on_c, 0, 81, 93
2, 165125, Note_on_c, 0, 71, 86
2, 165171, Note_on_c, 0, 88, 102
2, 165181, Note_on_c, 0, 85, 0
2, 165199, Note_on_c, 0, 81, 0
2, 165219, Note_on_c, 0, 87, 110
2, 165240, Note_on_c, 0, 88, 0
2, 165267, Note_on_c, 0, 88, 119
2, 165273, Note_on_c, 0, 80, 118
2, 165278, Note_on_c, 0, 76, 74
2, 165301, Note_on_c, 0, 87, 0
2, 165327, Note_on_c, 0, 90, 104
2, 165339, Note_on_c, 0, 88, 0
2, 165370, Note_on_c, 0, 88, 84
2, 165389, Note_on_c, 0, 90, 0
2, 165391, Note_on_c, 0, 80, 0
2, 165411, Note_on_c, 0, 71, 0
2, 165427, Note_on_c, 0, 79, 106
2, 165428, Note_on_c, 0, 83, 91
2, 165443, Note_on_c, 0, 88, 0
2, 165480, Note_on_c, 0, 85, 103
2, 165485, Note_on_c, 0, 83, 0
2, 165523, Note_on_c, 0, 83, 88
2, 165534, Note_on_c, 0, 85, 0
2, 165549, Note_on_c, 0, 79, 0
2, 165568, Note_on_c, 0, 83, 0
2, 165577, Note_on_c, 0, 67, 112
2, 165580, Note_on_c, 0, 88, 106
2, 165598, Note_on_c, 0, 76, 0
2, 165611, Control_c, 0, 64, 63
2, 165617, Control_c, 0, 64, 0
2, 165633, Note_on_c, 0, 90, 106
2, 165647, Note_on_c, 0, 88, 0
2, 165682, Note_on_c, 0, 88, 98
2, 165711, Note_on_c, 0, 90, 0
2, 165711, Note_on_c, 0, 67, 0
2, 165733, Note_on_c, 0, 66, 118
2, 165739, Note_on_c, 0, 87, 115
2, 165755, Note_on_c, 0, 88, 0
2, 165787, Note_on_c, 0, 87, 0
2, 165793, Note_on_c, 0, 95, 107
2, 165850, Note_on_c, 0, 87, 105
2, 165883, Note_on_c, 0, 95, 0
2, 165899, Control_c, 0, 64, 63
2, 165902, Control_c, 0, 64, 127
2, 165905, Note_on_c, 0, 77, 89
2, 165915, Note_on_c, 0, 86, 91
2, 165921, Note_on_c, 0, 87, 0
2, 165962, Note_on_c, 0, 86, 0
2, 165967, Note_on_c, 0, 77, 0
2, 165972, Note_on_c, 0, 95, 111
2, 166019, Note_on_c, 0, 86, 97
2, 166029, Note_on_c, 0, 95, 0
2, 166061, Note_on_c, 0, 76, 100
2, 166070, Note_on_c, 0, 85, 113
2, 166088, Note_on_c, 0, 86, 0
2, 166110, Note_on_c, 0, 94, 106
2, 166121, Note_on_c, 0, 85, 0
2, 166140, Note_on_c, 0, 66, 0
2, 166168, Note_on_c, 0, 76, 0
2, 166170, Note_on_c, 0, 85, 101
2, 166194, Note_on_c, 0, 94, 0
2, 166206, Note_on_c, 0, 85, 0
2, 166208, Control_c, 0, 64, 63
2, 166213, Control_c, 0, 64, 0
2, 166222, Note_on_c, 0, 75, 112
2, 166225, Note_on_c, 0, 71, 98
2, 166231, Note_on_c, 0, 83, 99
2, 166231, Note_on_c, 0, 95, 89
2, 166233, Control_c, 0, 64, 63
2, 166243, Note_on_c, 0, 95, 0
2, 166245, Control_c, 0, 64, 127
2, 166250, Note_on_c, 0, 75, 0
2, 166253, Note_on_c, 0, 83, 0
2, 166257, Note_on_c, 0, 71, 0
2, 166406, Note_on_c, 0, 69, 107
2, 166407, Note_on_c, 0, 59, 101
2, 166409, Note_on_c, 0, 73, 105
2, 166428, Control_c, 0, 64, 63
2, 166436, Control_c, 0, 64, 0
2, 166462, Note_on_c, 0, 76, 100
2, 166468, Note_on_c, 0, 73, 0
2, 166505, Note_on_c, 0, 69, 0
2, 166507, Control_c, 0, 64, 63
2, 166514, Note_on_c, 0, 75, 103
2, 166514, Control_c, 0, 64, 127
2, 166533, Note_on_c, 0, 76, 0
2, 166563, Note_on_c, 0, 68, 112
2, 166564, Note_on_c, 0, 76, 90
2, 166564, Note_on_c, 0, 64, 94
2, 166569, Note_on_c, 0, 75, 0
2, 166573, Note_on_c, 0, 59, 0
2, 166616, Note_on_c, 0, 78, 99
2, 166625, Note_on_c, 0, 76, 0
2, 166660, Note_on_c, 0, 76, 85
2, 166672, Note_on_c, 0, 78, 0
2, 166685, Note_on_c, 0, 68, 0
2, 166712, Note_on_c, 0, 71, 78
2, 166717, Note_on_c, 0, 67, 90
2, 166721, Note_on_c, 0, 76, 0
2, 166742, Control_c, 0, 64, 63
2, 166752, Control_c, 0, 64, 0
2, 166763, Note_on_c, 0, 73, 98
2, 166767, Note_on_c, 0, 71, 0
2, 166777, Control_c, 0, 64, 63
2, 166793, Control_c, 0, 64, 127
2, 166808, Note_on_c, 0, 71, 89
2, 166810, Note_on_c, 0, 73, 0
2, 166827, Note_on_c, 0, 64, 0
2, 166832, Note_on_c, 0, 67, 0
2, 166862, Note_on_c, 0, 71, 0
2, 166864, Note_on_c, 0, 55, 100
2, 166869, Note_on_c, 0, 76, 101
2, 166879, Control_c, 0, 64, 63
2, 166889, Control_c, 0, 64, 0
2, 166918, Note_on_c, 0, 55, 0
2, 166918, Control_c, 0, 64, 63
2, 166922, Note_on_c, 0, 78, 99
2, 166934, Control_c, 0, 64, 127
2, 166937, Note_on_c, 0, 76, 0
2, 166976, Note_on_c, 0, 76, 97
2, 167003, Note_on_c, 0, 78, 0
2, 167017, Note_on_c, 0, 54, 116
2, 167018, Control_c, 0, 64, 63
2, 167026, Control_c, 0, 64, 0
2, 167028, Note_on_c, 0, 75, 113
2, 167043, Note_on_c, 0, 76, 0
2, 167080, Note_on_c, 0, 75, 0
2, 167083, Note_on_c, 0, 83, 103
2, 167132, Note_on_c, 0, 75, 110
2, 167157, Note_on_c, 0, 83, 0
2, 167180, Note_on_c, 0, 65, 111
2, 167180, Note_on_c, 0, 74, 94
2, 167191, Note_on_c, 0, 75, 0
2, 167226, Note_on_c, 0, 74, 0
2, 167233, Note_on_c, 0, 83, 100
2, 167261, Control_c, 0, 64, 63
2, 167263, Control_c, 0, 64, 127
2, 167274, Note_on_c, 0, 65, 0
2, 167280, Note_on_c, 0, 74, 94
2, 167288, Note_on_c, 0, 83, 0
2, 167338, Note_on_c, 0, 64, 100
2, 167342, Note_on_c, 0, 73, 103
2, 167352, Note_on_c, 0, 74, 0
2, 167380, Note_on_c, 0, 73, 0
2, 167384, Note_on_c, 0, 82, 93
2, 167385, Note_on_c, 0, 54, 0
2, 167409, Note_on_c, 0, 64, 0
2, 167444, Note_on_c, 0, 73, 104
2, 167462, Note_on_c, 0, 82, 0
2, 167464, Control_c, 0, 64, 63
2, 167470, Control_c, 0, 64, 0
2, 167475, Note_on_c, 0, 73, 0
2, 167488, Control_c, 0, 64, 63
2, 167490, Note_on_c, 0, 63, 113
2, 167493, Note_on_c, 0, 59, 98
2, 167496, Note_on_c, 0, 83, 90
2, 167498, Control_c, 0, 64, 127
2, 167500, Note_on_c, 0, 71, 89
2, 167508, Note_on_c, 0, 83, 0
2, 167514, Note_on_c, 0, 71, 0
2, 167516, Note_on_c, 0, 63, 0
2, 167522, Note_on_c, 0, 59, 0
2, 167682, Note_on_c, 0, 51, 78
2, 167684, Note_on_c, 0, 59, 75
2, 167726, Control_c, 0, 64, 63
2, 167730, Note_on_c, 0, 51, 0
2, 167734, Note_on_c, 0, 61, 83
2, 167735, Note_on_c, 0, 59, 0
2, 167744, Note_on_c, 0, 52, 71
2, 167757, Control_c, 0, 64, 0
2, 167784, Note_on_c, 0, 63, 86
2, 167789, Note_on_c, 0, 61, 0
2, 167792, Note_on_c, 0, 54, 81
2, 167799, Note_on_c, 0, 52, 0
2, 167825, Note_on_c, 0, 63, 0
2, 167833, Note_on_c, 0, 64, 78
2, 167840, Note_on_c, 0, 56, 84
2, 167846, Note_on_c, 0, 54, 0
2, 167879, Note_on_c, 0, 64, 0
2, 167879, Note_on_c, 0, 58, 92
2, 167883, Note_on_c, 0, 66, 96
2, 167888, Note_on_c, 0, 56, 0
2, 167929, Note_on_c, 0, 68, 103
2, 167933, Note_on_c, 0, 58, 0
2, 167937, Note_on_c, 0, 59, 77
2, 167941, Note_on_c, 0, 66, 0
2, 167976, Note_on_c, 0, 70, 100
2, 167981, Note_on_c, 0, 61, 91
2, 167987, Note_on_c, 0, 59, 0
2, 167989, Note_on_c, 0, 68, 0
2, 168018, Note_on_c, 0, 70, 0
2, 168028, Note_on_c, 0, 71, 89
2, 168029, Note_on_c, 0, 63, 100
2, 168042, Note_on_c, 0, 61, 0
2, 168077, Note_on_c, 0, 63, 0
2, 168078, Note_on_c, 0, 64, 90
2, 168079, Note_on_c, 0, 71, 0
2, 168084, Note_on_c, 0, 73, 104
2, 168127, Note_on_c, 0, 75, 105
2, 168132, Note_on_c, 0, 66, 93
2, 168138, Note_on_c, 0, 73, 0
2, 168141, Note_on_c, 0, 64, 0
2, 168174, Note_on_c, 0, 76, 100
2, 168175, Note_on_c, 0, 68, 95
2, 168176, Note_on_c, 0, 75, 0
2, 168188, Note_on_c, 0, 66, 0
2, 168222, Note_on_c, 0, 78, 107
2, 168226, Note_on_c, 0, 70, 103
2, 168231, Note_on_c, 0, 76, 0
2, 168235, Note_on_c, 0, 68, 0
2, 168270, Note_on_c, 0, 80, 106
2, 168278, Note_on_c, 0, 71, 90
2, 168279, Note_on_c, 0, 70, 0
2, 168288, Note_on_c, 0, 78, 0
2, 168322, Note_on_c, 0, 73, 101
2, 168323, Note_on_c, 0, 82, 100
2, 168331, Note_on_c, 0, 71, 0
2, 168343, Note_on_c, 0, 80, 0
2, 168369, Note_on_c, 0, 82, 0
2, 168372, Note_on_c, 0, 75, 104
2, 168375, Note_on_c, 0, 83, 90
2, 168390, Note_on_c, 0, 73, 0
2, 168420, Note_on_c, 0, 76, 96
2, 168422, Note_on_c, 0, 75, 0
2, 168426, Note_on_c, 0, 85, 107
2, 168430, Note_on_c, 0, 83, 0
2, 168472, Note_on_c, 0, 87, 108
2, 168475, Note_on_c, 0, 78, 98
2, 168483, Note_on_c, 0, 85, 0
2, 168487, Note_on_c, 0, 76, 0
2, 168509, Note_on_c, 0, 87, 0
2, 168520, Note_on_c, 0, 88, 98
2, 168523, Note_on_c, 0, 80, 93
2, 168537, Note_on_c, 0, 78, 0
2, 168568, Note_on_c, 0, 90, 107
2, 168574, Note_on_c, 0, 88, 0
2, 168575, Note_on_c, 0, 82, 99
2, 168580, Note_on_c, 0, 80, 0
2, 168621, Note_on_c, 0, 92, 107
2, 168627, Note_on_c, 0, 82, 0
2, 168632, Note_on_c, 0, 90, 0
2, 168637, Note_on_c, 0, 83, 63
2, 168672, Note_on_c, 0, 94, 106
2, 168672, Note_on_c, 0, 85, 101
2, 168676, Note_on_c, 0, 83, 0
2, 168680, Note_on_c, 0, 92, 0
2, 168711, Note_on_c, 0, 94, 0
2, 168716, Note_on_c, 0, 85, 0
2, 168726, Note_on_c, 0, 87, 120
2, 168728, Note_on_c, 0, 95, 121
2, 168728, Control_c, 0, 64, 63
2, 168736, Control_c, 0, 64, 127
2, 168762, Note_on_c, 0, 87, 0
2, 168768, Note_on_c, 0, 95, 0
2, 168897, Note_on_c, 0, 88, 86
2, 168899, Note_on_c, 0, 78, 82
2, 168938, Note_on_c, 0, 82, 91
2, 168944, Note_on_c, 0, 88, 0
2, 168968, Note_on_c, 0, 82, 0
2, 169000, Note_on_c, 0, 97, 103
2, 169006, Note_on_c, 0, 66, 80
2, 169010, Note_on_c, 0, 78, 0
2, 169025, Note_on_c, 0, 66, 0
2, 169058, Note_on_c, 0, 87, 78
2, 169060, Note_on_c, 0, 97, 0
2, 169060, Note_on_c, 0, 95, 88
2, 169081, Note_on_c, 0, 71, 72
2, 169098, Note_on_c, 0, 71, 0
2, 169098, Note_on_c, 0, 87, 0
2, 169101, Note_on_c, 0, 95, 0
2, 169227, Control_c, 0, 64, 63
2, 169230, Note_on_c, 0, 88, 81
2, 169233, Note_on_c, 0, 80, 67
2, 169270, Control_c, 0, 64, 127
2, 169272, Note_on_c, 0, 82, 83
2, 169274, Note_on_c, 0, 78, 69
2, 169276, Note_on_c, 0, 80, 0
2, 169286, Note_on_c, 0, 88, 0
2, 169294, Note_on_c, 0, 78, 0
2, 169297, Note_on_c, 0, 82, 0
2, 169328, Note_on_c, 0, 66, 89
2, 169333, Note_on_c, 0, 97, 95
2, 169381, Note_on_c, 0, 66, 0
2, 169386, Control_c, 0, 64, 63
2, 169390, Note_on_c, 0, 71, 72
2, 169393, Note_on_c, 0, 87, 61
2, 169394, Note_on_c, 0, 95, 84
2, 169401, Note_on_c, 0, 97, 0
2, 169422, Control_c, 0, 64, 127
2, 169433, Note_on_c, 0, 87, 0
2, 169434, Note_on_c, 0, 71, 0
2, 169435, Note_on_c, 0, 95, 0
2, 169518, Control_c, 0, 64, 63
2, 169529, Control_c, 0, 64, 0
2, 169554, Control_c, 0, 64, 63
2, 169560, Note_on_c, 0, 88, 76
2, 169561, Note_on_c, 0, 80, 71
2, 169571, Control_c, 0, 64, 127
2, 169600, Note_on_c, 0, 80, 0
2, 169601, Note_on_c, 0, 78, 53
2, 169607, Note_on_c, 0, 82, 72
2, 169616, Note_on_c, 0, 88, 0
2, 169620, Note_on_c, 0, 78, 0
2, 169629, Note_on_c, 0, 82, 0
2, 169661, Note_on_c, 0, 66, 76
2, 169665, Note_on_c, 0, 97, 91
2, 169691, Control_c, 0, 64, 63
2, 169728, Note_on_c, 0, 87, 66
2, 169730, Note_on_c, 0, 71, 63
2, 169732, Note_on_c, 0, 66, 0
2, 169734, Note_on_c, 0, 95, 73
2, 169738, Control_c, 0, 64, 127
2, 169743, Note_on_c, 0, 97, 0
2, 169763, Note_on_c, 0, 87, 0
2, 169764, Note_on_c, 0, 71, 0
2, 169767, Note_on_c, 0, 95, 0
2, 169810, Control_c, 0, 64, 63
2, 169836, Control_c, 0, 64, 0
2, 169893, Note_on_c, 0, 80, 57
2, 169894, Note_on_c, 0, 88, 65
2, 169902, Control_c, 0, 64, 63
2, 169913, Control_c, 0, 64, 127
2, 169932, Note_on_c, 0, 80, 0
2, 169936, Note_on_c, 0, 78, 55
2, 169941, Note_on_c, 0, 82, 60
2, 169949, Note_on_c, 0, 88, 0
2, 169964, Note_on_c, 0, 82, 0
2, 169965, Note_on_c, 0, 78, 0
2, 170015, Note_on_c, 0, 97, 69
2, 170025, Note_on_c, 0, 66, 58
2, 170094, Note_on_c, 0, 97, 0
2, 170095, Note_on_c, 0, 66, 0
2, 170112, Note_on_c, 0, 95, 57
2, 170116, Note_on_c, 0, 87, 50
2, 170118, Note_on_c, 0, 71, 54
2, 170139, Note_on_c, 0, 71, 0
2, 170149, Note_on_c, 0, 87, 0
2, 170152, Note_on_c, 0, 95, 0
2, 170516, Control_c, 0, 64, 63
2, 170538, Control_c, 0, 64, 0
2, 171702, Note_on_c, 0, 88, 118
2, 171704, Note_on_c, 0, 100, 120
2, 171706, Control_c, 0, 64, 63
2, 171706, Control_c, 0, 64, 127
2, 171792, Note_on_c, 0, 96, 93
2, 171794, Note_on_c, 0, 100, 0
2, 171795, Note_on_c, 0, 84, 96
2, 171804, Note_on_c, 0, 88, 0
2, 171853, Note_on_c, 0, 93, 100
2, 171858, Note_on_c, 0, 81, 86
2, 171860, Note_on_c, 0, 96, 0
2, 171869, Note_on_c, 0, 84, 0
2, 171909, Note_on_c, 0, 90, 108
2, 171910, Note_on_c, 0, 93, 0
2, 171913, Note_on_c, 0, 78, 95
2, 171928, Note_on_c, 0, 81, 0
2, 171949, Note_on_c, 0, 78, 0
2, 171957, Note_on_c, 0, 90, 0
2, 171964, Note_on_c, 0, 88, 99
2, 171970, Note_on_c, 0, 76, 94
2, 172000, Note_on_c, 0, 88, 0
2, 172022, Note_on_c, 0, 72, 101
2, 172026, Note_on_c, 0, 76, 0
2, 172029, Note_on_c, 0, 84, 106
2, 172072, Note_on_c, 0, 69, 97
2, 172075, Note_on_c, 0, 81, 92
2, 172076, Note_on_c, 0, 72, 0
2, 172077, Note_on_c, 0, 84, 0
2, 172121, Note_on_c, 0, 66, 92
2, 172126, Note_on_c, 0, 78, 104
2, 172127, Note_on_c, 0, 81, 0
2, 172127, Note_on_c, 0, 69, 0
2, 172152, Note_on_c, 0, 66, 0
2, 172169, Note_on_c, 0, 78, 0
2, 172171, Note_on_c, 0, 76, 99
2, 172174, Note_on_c, 0, 64, 99
2, 172206, Note_on_c, 0, 76, 0
2, 172226, Note_on_c, 0, 60, 108
2, 172231, Note_on_c, 0, 64, 0
2, 172237, Note_on_c, 0, 72, 99
2, 172282, Note_on_c, 0, 57, 91
2, 172283, Note_on_c, 0, 60, 0
2, 172283, Note_on_c, 0, 69, 77
2, 172285, Note_on_c, 0, 72, 0
2, 172331, Note_on_c, 0, 66, 109
2, 172334, Note_on_c, 0, 69, 0
2, 172335, Note_on_c, 0, 57, 0
2, 172335, Note_on_c, 0, 54, 93
2, 172369, Note_on_c, 0, 54, 0
2, 172371, Note_on_c, 0, 66, 0
2, 172381, Note_on_c, 0, 64, 97
2, 172387, Note_on_c, 0, 52, 103
2, 172412, Note_on_c, 0, 64, 0
2, 172435, Note_on_c, 0, 52, 0
2, 172437, Note_on_c, 0, 48, 101
2, 172441, Note_on_c, 0, 60, 98
2, 172484, Note_on_c, 0, 60, 0
2, 172485, Note_on_c, 0, 57, 91
2, 172489, Note_on_c, 0, 48, 0
2, 172492, Note_on_c, 0, 45, 84
2, 172532, Note_on_c, 0, 42, 101
2, 172537, Note_on_c, 0, 54, 109
2, 172539, Note_on_c, 0, 45, 0
2, 172540, Note_on_c, 0, 57, 0
2, 172569, Note_on_c, 0, 42, 0
2, 172574, Note_on_c, 0, 54, 0
2, 172584, Note_on_c, 0, 52, 99
2, 172592, Note_on_c, 0, 40, 101
2, 172618, Note_on_c, 0, 52, 0
2, 172639, Note_on_c, 0, 48, 102
2, 172639, Note_on_c, 0, 36, 103
2, 172644, Note_on_c, 0, 40, 0
2, 172676, Note_on_c, 0, 48, 0
2, 172677, Note_on_c, 0, 36, 0
2, 172689, Note_on_c, 0, 33, 116
2, 172690, Note_on_c, 0, 45, 112
2, 172740, Control_c, 0, 64, 63
2, 172747, Control_c, 0, 64, 0
2, 172835, Note_on_c, 0, 45, 0
2, 172855, Note_on_c, 0, 33, 0
2, 173009, Note_on_c, 0, 35, 97
2, 173010, Note_on_c, 0, 47, 96
2, 173028, Control_c, 0, 64, 63
2, 173030, Control_c, 0, 64, 127
2, 173036, Note_on_c, 0, 35, 0
2, 173037, Note_on_c, 0, 47, 0
2, 173178, Note_on_c, 0, 66, 89
2, 173178, Note_on_c, 0, 76, 86
2, 173226, Note_on_c, 0, 70, 80
2, 173229, Note_on_c, 0, 76, 0
2, 173245, Note_on_c, 0, 70, 0
2, 173253, Note_on_c, 0, 54, 70
2, 173276, Note_on_c, 0, 85, 94
2, 173325, Note_on_c, 0, 54, 0
2, 173327, Note_on_c, 0, 85, 0
2, 173328, Note_on_c, 0, 59, 84
2, 173334, Note_on_c, 0, 75, 81
2, 173335, Control_c, 0, 64, 63
2, 173338, Control_c, 0, 64, 0
2, 173342, Note_on_c, 0, 83, 76
2, 173347, Note_on_c, 0, 66, 0
2, 173355, Note_on_c, 0, 75, 0
2, 173361, Note_on_c, 0, 59, 0
2, 173373, Note_on_c, 0, 83, 0
2, 173493, Note_on_c, 0, 66, 93
2, 173496, Control_c, 0, 64, 63
2, 173497, Note_on_c, 0, 76, 89
2, 173498, Control_c, 0, 64, 127
2, 173536, Note_on_c, 0, 70, 87
2, 173544, Note_on_c, 0, 76, 0
2, 173562, Note_on_c, 0, 70, 0
2, 173576, Note_on_c, 0, 66, 0
2, 173598, Note_on_c, 0, 85, 96
2, 173598, Note_on_c, 0, 54, 75
2, 173649, Note_on_c, 0, 83, 90
2, 173651, Note_on_c, 0, 54, 0
2, 173651, Note_on_c, 0, 75, 84
2, 173654, Note_on_c, 0, 85, 0
2, 173654, Note_on_c, 0, 59, 88
2, 173680, Note_on_c, 0, 75, 0
2, 173687, Note_on_c, 0, 59, 0
2, 173691, Note_on_c, 0, 83, 0
2, 173698, Control_c, 0, 64, 63
2, 173702, Control_c, 0, 64, 0
2, 174310, Note_on_c, 0, 100, 117
2, 174311, Note_on_c, 0, 88, 102
2, 174324, Control_c, 0, 64, 63
2, 174327, Control_c, 0, 64, 127
2, 174370, Note_on_c, 0, 100, 0
2, 174374, Note_on_c, 0, 96, 98
2, 174381, Note_on_c, 0, 88, 0
2, 174382, Note_on_c, 0, 84, 98
2, 174426, Note_on_c, 0, 96, 0
2, 174428, Note_on_c, 0, 93, 96
2, 174436, Note_on_c, 0, 84, 0
2, 174438, Note_on_c, 0, 81, 71
2, 174484, Note_on_c, 0, 78, 88
2, 174484, Note_on_c, 0, 90, 109
2, 174494, Note_on_c, 0, 93, 0
2, 174495, Note_on_c, 0, 81, 0
2, 174517, Note_on_c, 0, 78, 0
2, 174535, Note_on_c, 0, 90, 0
2, 174535, Note_on_c, 0, 88, 101
2, 174542, Note_on_c, 0, 76, 111
2, 174570, Note_on_c, 0, 88, 0
2, 174591, Note_on_c, 0, 76, 0
2, 174594, Note_on_c, 0, 84, 97
2, 174596, Note_on_c, 0, 72, 106
2, 174640, Note_on_c, 0, 69, 85
2, 174641, Note_on_c, 0, 72, 0
2, 174644, Note_on_c, 0, 81, 97
2, 174648, Note_on_c, 0, 84, 0
2, 174690, Note_on_c, 0, 66, 97
2, 174694, Note_on_c, 0, 78, 110
2, 174698, Note_on_c, 0, 69, 0
2, 174700, Note_on_c, 0, 81, 0
2, 174723, Note_on_c, 0, 66, 0
2, 174738, Note_on_c, 0, 78, 0
2, 174741, Note_on_c, 0, 76, 94
2, 174746, Note_on_c, 0, 64, 101
2, 174772, Note_on_c, 0, 76, 0
2, 174795, Note_on_c, 0, 60, 104
2, 174798, Note_on_c, 0, 64, 0
2, 174804, Note_on_c, 0, 72, 83
2, 174850, Note_on_c, 0, 69, 93
2, 174851, Note_on_c, 0, 60, 0
2, 174851, Note_on_c, 0, 57, 93
2, 174859, Note_on_c, 0, 72, 0
2, 174903, Note_on_c, 0, 66, 110
2, 174905, Note_on_c, 0, 54, 94
2, 174909, Note_on_c, 0, 69, 0
2, 174914, Note_on_c, 0, 57, 0
2, 174944, Note_on_c, 0, 54, 0
2, 174944, Note_on_c, 0, 66, 0
2, 174959, Note_on_c, 0, 64, 93
2, 174966, Note_on_c, 0, 52, 102
2, 174988, Note_on_c, 0, 64, 0
2, 175025, Note_on_c, 0, 60, 94
2, 175025, Note_on_c, 0, 48, 100
2, 175028, Note_on_c, 0, 52, 0
2, 175070, Note_on_c, 0, 60, 0
2, 175081, Note_on_c, 0, 48, 0
2, 175082, Note_on_c, 0, 45, 85
2, 175083, Note_on_c, 0, 57, 60
2, 175140, Note_on_c, 0, 42, 91
2, 175144, Note_on_c, 0, 54, 94
2, 175145, Note_on_c, 0, 57, 0
2, 175151, Note_on_c, 0, 45, 0
2, 175178, Note_on_c, 0, 42, 0
2, 175190, Note_on_c, 0, 54, 0
2, 175204, Note_on_c, 0, 52, 80
2, 175206, Note_on_c, 0, 40, 89
2, 175237, Note_on_c, 0, 52, 0
2, 175264, Note_on_c, 0, 40, 0
2, 175264, Note_on_c, 0, 48, 80
2, 175265, Note_on_c, 0, 36, 86
2, 175325, Control_c, 0, 64, 63
2, 175336, Note_on_c, 0, 48, 0
2, 175340, Control_c, 0, 64, 0
2, 175350, Note_on_c, 0, 36, 0
2, 175359, Note_on_c, 0, 45, 51
2, 175360, Note_on_c, 0, 33, 78
2, 175412, Control_c, 0, 64, 63
2, 175420, Control_c, 0, 64, 127
2, 175497, Note_on_c, 0, 33, 0
2, 175501, Note_on_c, 0, 45, 0
2, 175571, Control_c, 0, 64, 63
2, 175589, Control_c, 0, 64, 0
2, 175725, Note_on_c, 0, 48, 62
2, 175734, Note_on_c, 0, 36, 81
2, 175926, Note_on_c, 0, 61, 88
2, 175940, Control_c, 0, 64, 63
2, 175942, Control_c, 0, 64, 127
2, 175952, Note_on_c, 0, 36, 0
2, 175978, Note_on_c, 0, 61, 0
2, 175983, Note_on_c, 0, 62, 75
2, 176017, Note_on_c, 0, 48, 0
2, 176027, Note_on_c, 0, 62, 0
2, 176043, Note_on_c, 0, 71, 78
2, 176119, Note_on_c, 0, 69, 79
2, 176121, Note_on_c, 0, 71, 0
2, 176176, Note_on_c, 0, 68, 84
2, 176182, Note_on_c, 0, 69, 0
2, 176219, Note_on_c, 0, 68, 0
2, 176219, Note_on_c, 0, 69, 84
2, 176263, Note_on_c, 0, 71, 88
2, 176270, Note_on_c, 0, 69, 0
2, 176309, Note_on_c, 0, 48, 70
2, 176323, Note_on_c, 0, 72, 88
2, 176330, Note_on_c, 0, 71, 0
2, 176356, Note_on_c, 0, 54, 62
2, 176364, Note_on_c, 0, 73, 95
2, 176383, Note_on_c, 0, 72, 0
2, 176387, Note_on_c, 0, 57, 66
2, 176399, Note_on_c, 0, 73, 0
2, 176423, Note_on_c, 0, 62, 70
2, 176432, Note_on_c, 0, 74, 96
2, 176465, Control_c, 0, 64, 63
2, 176476, Control_c, 0, 64, 0
2, 176497, Note_on_c, 0, 76, 90
2, 176498, Note_on_c, 0, 74, 0
2, 176530, Control_c, 0, 64, 63
2, 176540, Control_c, 0, 64, 127
2, 176546, Note_on_c, 0, 74, 91
2, 176558, Note_on_c, 0, 76, 0
2, 176590, Note_on_c, 0, 73, 104
2, 176599, Note_on_c, 0, 74, 0
2, 176637, Note_on_c, 0, 73, 0
2, 176640, Note_on_c, 0, 74, 93
2, 176688, Note_on_c, 0, 83, 98
2, 176690, Note_on_c, 0, 74, 0
2, 176717, Control_c, 0, 64, 63
2, 176750, Note_on_c, 0, 81, 94
2, 176759, Control_c, 0, 64, 127
2, 176770, Note_on_c, 0, 83, 0
2, 176805, Note_on_c, 0, 80, 104
2, 176821, Note_on_c, 0, 81, 0
2, 176855, Note_on_c, 0, 81, 106
2, 176857, Note_on_c, 0, 80, 0
2, 176881, Note_on_c, 0, 62, 0
2, 176896, Note_on_c, 0, 57, 0
2, 176896, Note_on_c, 0, 48, 0
2, 176907, Note_on_c, 0, 54, 0
2, 176913, Note_on_c, 0, 83, 98
2, 176915, Note_on_c, 0, 81, 0
2, 176970, Note_on_c, 0, 84, 101
2, 176985, Control_c, 0, 64, 63
2, 176986, Note_on_c, 0, 83, 0
2, 176990, Control_c, 0, 64, 0
2, 177005, Note_on_c, 0, 47, 78
2, 177030, Note_on_c, 0, 85, 100
2, 177046, Note_on_c, 0, 84, 0
2, 177047, Control_c, 0, 64, 63
2, 177053, Control_c, 0, 64, 127
2, 177058, Note_on_c, 0, 55, 71
2, 177068, Note_on_c, 0, 47, 0
2, 177091, Note_on_c, 0, 85, 0
2, 177127, Note_on_c, 0, 86, 83
2, 177133, Note_on_c, 0, 62, 62
2, 177178, Note_on_c, 0, 86, 0
2, 177229, Note_on_c, 0, 98, 59
2, 177296, Note_on_c, 0, 98, 0
2, 177395, Note_on_c, 0, 97, 70
2, 177438, Note_on_c, 0, 97, 0
2, 177450, Note_on_c, 0, 96, 74
2, 177525, Note_on_c, 0, 95, 70
2, 177541, Note_on_c, 0, 96, 0
2, 177586, Note_on_c, 0, 93, 75
2, 177593, Note_on_c, 0, 95, 0
2, 177626, Note_on_c, 0, 62, 0
2, 177635, Note_on_c, 0, 93, 0
2, 177636, Note_on_c, 0, 91, 85
2, 177685, Note_on_c, 0, 90, 94
2, 177689, Note_on_c, 0, 91, 0
2, 177701, Note_on_c, 0, 55, 0
2, 177739, Note_on_c, 0, 88, 84
2, 177760, Note_on_c, 0, 90, 0
2, 177786, Note_on_c, 0, 86, 75
2, 177790, Note_on_c, 0, 88, 0
2, 177791, Note_on_c, 0, 48, 64
2, 177828, Note_on_c, 0, 86, 0
2, 177842, Note_on_c, 0, 84, 73
2, 177853, Note_on_c, 0, 55, 64
2, 177884, Control_c, 0, 64, 63
2, 177889, Control_c, 0, 64, 0
2, 177893, Note_on_c, 0, 83, 77
2, 177898, Note_on_c, 0, 48, 0
2, 177917, Note_on_c, 0, 84, 0
2, 177922, Control_c, 0, 64, 63
2, 177931, Note_on_c, 0, 64, 80
2, 177935, Control_c, 0, 64, 127
2, 177942, Note_on_c, 0, 81, 80
2, 177955, Note_on_c, 0, 83, 0
2, 177988, Note_on_c, 0, 81, 0
2, 177990, Note_on_c, 0, 79, 73
2, 178036, Note_on_c, 0, 78, 94
2, 178038, Note_on_c, 0, 79, 0
2, 178045, Note_on_c, 0, 64, 0
2, 178085, Note_on_c, 0, 76, 89
2, 178087, Note_on_c, 0, 55, 0
2, 178104, Note_on_c, 0, 78, 0
2, 178129, Note_on_c, 0, 74, 79
2, 178136, Note_on_c, 0, 76, 0
2, 178143, Note_on_c, 0, 48, 74
2, 178184, Note_on_c, 0, 74, 0
2, 178184, Note_on_c, 0, 72, 83
2, 178187, Note_on_c, 0, 57, 70
2, 178201, Note_on_c, 0, 48, 0
2, 178237, Control_c, 0, 64, 63
2, 178238, Note_on_c, 0, 71, 81
2, 178248, Note_on_c, 0, 64, 87
2, 178248, Control_c, 0, 64, 0
2, 178252, Note_on_c, 0, 72, 0
2, 178270, Control_c, 0, 64, 63
2, 178287, Note_on_c, 0, 71, 0
2, 178287, Note_on_c, 0, 69, 74
2, 178293, Control_c, 0, 64, 127
2, 178340, Note_on_c, 0, 57, 0
2, 178342, Note_on_c, 0, 67, 80
2, 178345, Note_on_c, 0, 69, 0
2, 178388, Note_on_c, 0, 64, 0
2, 178394, Control_c, 0, 64, 63
2, 178401, Note_on_c, 0, 66, 85
2, 178401, Note_on_c, 0, 58, 84
2, 178403, Control_c, 0, 64, 0
2, 178408, Note_on_c, 0, 67, 0
2, 178440, Note_on_c, 0, 58, 0
2, 178441, Control_c, 0, 64, 63
2, 178456, Control_c, 0, 64, 127
2, 178457, Note_on_c, 0, 66, 0
2, 178458, Note_on_c, 0, 67, 74
2, 178500, Note_on_c, 0, 67, 0
2, 178508, Note_on_c, 0, 64, 68
2, 178548, Control_c, 0, 64, 63
2, 178549, Note_on_c, 0, 54, 56
2, 178555, Note_on_c, 0, 47, 38
2, 178561, Control_c, 0, 64, 0
2, 178564, Note_on_c, 0, 63, 91
2, 178564, Note_on_c, 0, 59, 50
2, 178566, Note_on_c, 0, 64, 0
2, 178596, Control_c, 0, 64, 63
2, 178611, Note_on_c, 0, 63, 0
2, 178611, Control_c, 0, 64, 127
2, 178623, Note_on_c, 0, 64, 64
2, 178670, Note_on_c, 0, 64, 0
2, 178671, Note_on_c, 0, 62, 69
2, 178687, Note_on_c, 0, 59, 0
2, 178703, Note_on_c, 0, 47, 0
2, 178706, Note_on_c, 0, 54, 0
2, 178715, Note_on_c, 0, 62, 0
2, 178724, Note_on_c, 0, 63, 67
2, 178760, Note_on_c, 0, 63, 0
2, 178779, Note_on_c, 0, 70, 68
2, 178804, Note_on_c, 0, 70, 0
2, 178828, Note_on_c, 0, 71, 77
2, 178837, Note_on_c, 0, 45, 61
2, 178842, Control_c, 0, 64, 63
2, 178850, Control_c, 0, 64, 0
2, 178872, Note_on_c, 0, 54, 66
2, 178873, Control_c, 0, 64, 63
2, 178879, Note_on_c, 0, 45, 0
2, 178881, Note_on_c, 0, 72, 81
2, 178882, Note_on_c, 0, 71, 0
2, 178891, Control_c, 0, 64, 127
2, 178937, Note_on_c, 0, 60, 61
2, 178947, Note_on_c, 0, 69, 81
2, 178958, Note_on_c, 0, 72, 0
2, 178999, Note_on_c, 0, 69, 0
2, 178999, Note_on_c, 0, 68, 88
2, 179023, Note_on_c, 0, 60, 0
2, 179043, Note_on_c, 0, 68, 0
2, 179048, Note_on_c, 0, 69, 82
2, 179071, Note_on_c, 0, 54, 0
2, 179091, Note_on_c, 0, 78, 78
2, 179098, Note_on_c, 0, 69, 0
2, 179143, Note_on_c, 0, 78, 0
2, 179157, Note_on_c, 0, 76, 72
2, 179172, Note_on_c, 0, 47, 61
2, 179207, Control_c, 0, 64, 63
2, 179208, Note_on_c, 0, 54, 44
2, 179214, Control_c, 0, 64, 0
2, 179217, Note_on_c, 0, 75, 80
2, 179220, Note_on_c, 0, 76, 0
2, 179229, Note_on_c, 0, 59, 60
2, 179262, Control_c, 0, 64, 63
2, 179269, Note_on_c, 0, 75, 0
2, 179272, Control_c, 0, 64, 127
2, 179279, Note_on_c, 0, 71, 66
2, 179328, Note_on_c, 0, 70, 85
2, 179330, Note_on_c, 0, 71, 0
2, 179348, Note_on_c, 0, 47, 0
2, 179364, Note_on_c, 0, 70, 0
2, 179365, Note_on_c, 0, 59, 0
2, 179383, Note_on_c, 0, 71, 79
2, 179417, Note_on_c, 0, 54, 0
2, 179437, Note_on_c, 0, 71, 0
2, 179439, Note_on_c, 0, 72, 88
2, 179490, Note_on_c, 0, 71, 86
2, 179510, Note_on_c, 0, 72, 0
2, 179533, Control_c, 0, 64, 63
2, 179535, Note_on_c, 0, 57, 49
2, 179538, Control_c, 0, 64, 0
2, 179539, Note_on_c, 0, 48, 44
2, 179540, Note_on_c, 0, 52, 54
2, 179540, Note_on_c, 0, 69, 72
2, 179548, Note_on_c, 0, 71, 0
2, 179592, Note_on_c, 0, 66, 85
2, 179606, Note_on_c, 0, 69, 0
2, 179606, Note_on_c, 0, 57, 0
2, 179630, Control_c, 0, 67, 127
2, 179643, Note_on_c, 0, 65, 68
2, 179644, Note_on_c, 0, 66, 0
2, 179692, Note_on_c, 0, 65, 0
2, 179692, Note_on_c, 0, 58, 62
2, 179697, Note_on_c, 0, 66, 93
2, 179698, Control_c, 0, 64, 63
2, 179704, Control_c, 0, 64, 127
2, 179731, Note_on_c, 0, 48, 0
2, 179748, Note_on_c, 0, 66, 0
2, 179749, Note_on_c, 0, 58, 0
2, 179749, Note_on_c, 0, 67, 72
2, 179756, Note_on_c, 0, 52, 0
2, 179801, Control_c, 0, 64, 63
2, 179802, Note_on_c, 0, 67, 0
2, 179804, Note_on_c, 0, 64, 67
2, 179805, Control_c, 0, 64, 0
2, 179838, Note_on_c, 0, 47, 44
2, 179839, Note_on_c, 0, 54, 62
2, 179847, Note_on_c, 0, 59, 58
2, 179860, Note_on_c, 0, 63, 90
2, 179866, Note_on_c, 0, 64, 0
2, 179889, Control_c, 0, 64, 63
2, 179894, Control_c, 0, 64, 127
2, 179909, Note_on_c, 0, 64, 68
2, 179910, Note_on_c, 0, 63, 0
2, 179941, Control_c, 0, 64, 63
2, 179946, Control_c, 0, 64, 0
2, 179958, Note_on_c, 0, 64, 0
2, 179967, Note_on_c, 0, 62, 67
2, 179976, Control_c, 0, 64, 63
2, 179983, Control_c, 0, 64, 127
2, 179987, Note_on_c, 0, 59, 0
2, 179997, Note_on_c, 0, 47, 0
2, 180003, Note_on_c, 0, 54, 0
2, 180009, Note_on_c, 0, 62, 0
2, 180011, Note_on_c, 0, 63, 86
2, 180040, Note_on_c, 0, 63, 0
2, 180067, Note_on_c, 0, 70, 70
2, 180098, Control_c, 0, 64, 63
2, 180103, Control_c, 0, 64, 0
2, 180108, Note_on_c, 0, 71, 77
2, 180109, Note_on_c, 0, 70, 0
2, 180114, Note_on_c, 0, 45, 50
2, 180134, Control_c, 0, 64, 63
2, 180144, Control_c, 0, 64, 127
2, 180153, Note_on_c, 0, 54, 78
2, 180159, Note_on_c, 0, 45, 0
2, 180168, Note_on_c, 0, 72, 81
2, 180172, Note_on_c, 0, 71, 0
2, 180216, Note_on_c, 0, 60, 61
2, 180231, Note_on_c, 0, 69, 80
2, 180241, Note_on_c, 0, 72, 0
2, 180278, Note_on_c, 0, 68, 79
2, 180283, Note_on_c, 0, 69, 0
2, 180328, Note_on_c, 0, 68, 0
2, 180329, Note_on_c, 0, 69, 73
2, 180345, Note_on_c, 0, 60, 0
2, 180376, Note_on_c, 0, 78, 79
2, 180380, Note_on_c, 0, 69, 0
2, 180383, Note_on_c, 0, 54, 0
2, 180423, Note_on_c, 0, 78, 0
2, 180452, Note_on_c, 0, 76, 70
2, 180468, Note_on_c, 0, 47, 57
2, 180495, Note_on_c, 0, 76, 0
2, 180503, Note_on_c, 0, 75, 83
2, 180508, Note_on_c, 0, 54, 45
2, 180529, Note_on_c, 0, 59, 53
2, 180550, Control_c, 0, 64, 63
2, 180556, Note_on_c, 0, 75, 0
2, 180562, Control_c, 0, 64, 0
2, 180566, Note_on_c, 0, 71, 64
2, 180602, Control_c, 0, 64, 63
2, 180614, Control_c, 0, 64, 127
2, 180617, Note_on_c, 0, 71, 0
2, 180617, Note_on_c, 0, 70, 88
2, 180654, Note_on_c, 0, 70, 0
2, 180666, Note_on_c, 0, 71, 83
2, 180672, Note_on_c, 0, 47, 0
2, 180692, Note_on_c, 0, 59, 0
2, 180725, Note_on_c, 0, 72, 90
2, 180734, Note_on_c, 0, 71, 0
2, 180740, Note_on_c, 0, 54, 0
2, 180777, Note_on_c, 0, 71, 71
2, 180801, Note_on_c, 0, 72, 0
2, 180814, Control_c, 0, 64, 63
2, 180824, Control_c, 0, 64, 0
2, 180825, Note_on_c, 0, 69, 69
2, 180829, Note_on_c, 0, 57, 50
2, 180833, Note_on_c, 0, 52, 52
2, 180834, Note_on_c, 0, 71, 0
2, 180834, Note_on_c, 0, 48, 42
2, 180879, Note_on_c, 0, 66, 87
2, 180893, Note_on_c, 0, 57, 0
2, 180893, Control_c, 0, 64, 63
2, 180894, Note_on_c, 0, 69, 0
2, 180903, Control_c, 0, 64, 127
2, 180927, Note_on_c, 0, 66, 0
2, 180931, Note_on_c, 0, 65, 66
2, 180972, Control_c, 0, 64, 63
2, 180982, Note_on_c, 0, 65, 0
2, 180983, Note_on_c, 0, 66, 85
2, 180983, Control_c, 0, 64, 0
2, 180985, Note_on_c, 0, 58, 60
2, 181030, Control_c, 0, 64, 63
2, 181038, Note_on_c, 0, 58, 0
2, 181042, Control_c, 0, 64, 127
2, 181043, Note_on_c, 0, 66, 0
2, 181043, Note_on_c, 0, 67, 67
2, 181044, Note_on_c, 0, 48, 0
2, 181056, Note_on_c, 0, 52, 0
2, 181098, Note_on_c, 0, 67, 0
2, 181103, Note_on_c, 0, 64, 61
2, 181140, Control_c, 0, 64, 63
2, 181141, Note_on_c, 0, 47, 29
2, 181147, Note_on_c, 0, 54, 53
2, 181150, Control_c, 0, 64, 0
2, 181159, Note_on_c, 0, 59, 59
2, 181169, Note_on_c, 0, 63, 82
2, 181176, Note_on_c, 0, 64, 0
2, 181199, Control_c, 0, 64, 63
2, 181210, Control_c, 0, 64, 127
2, 181245, Note_on_c, 0, 64, 75
2, 181255, Note_on_c, 0, 63, 0
2, 181293, Control_c, 0, 64, 63
2, 181297, Control_c, 0, 64, 0
2, 181305, Note_on_c, 0, 64, 0
2, 181313, Note_on_c, 0, 62, 67
2, 181344, Control_c, 0, 64, 63
2, 181351, Control_c, 0, 64, 127
2, 181369, Note_on_c, 0, 62, 0
2, 181375, Note_on_c, 0, 63, 77
2, 181423, Note_on_c, 0, 63, 0
2, 181432, Note_on_c, 0, 71, 49
2, 181491, Note_on_c, 0, 70, 76
2, 181502, Note_on_c, 0, 71, 0
2, 181541, Note_on_c, 0, 70, 0
2, 181564, Note_on_c, 0, 69, 78
2, 181568, Note_on_c, 0, 59, 0
2, 181593, Note_on_c, 0, 54, 0
2, 181594, Note_on_c, 0, 47, 0
2, 181615, Note_on_c, 0, 78, 88
2, 181626, Note_on_c, 0, 69, 0
2, 181676, Note_on_c, 0, 76, 78
2, 181685, Control_c, 0, 64, 63
2, 181702, Control_c, 0, 64, 127
2, 181705, Note_on_c, 0, 78, 0
2, 181729, Note_on_c, 0, 75, 89
2, 181740, Note_on_c, 0, 76, 0
2, 181777, Note_on_c, 0, 75, 0
2, 181783, Control_c, 0, 64, 63
2, 181786, Control_c, 0, 64, 0
2, 181791, Note_on_c, 0, 83, 74
2, 181826, Control_c, 0, 64, 63
2, 181831, Control_c, 0, 64, 127
2, 181832, Note_on_c, 0, 47, 66
2, 181845, Note_on_c, 0, 82, 79
2, 181855, Note_on_c, 0, 54, 68
2, 181861, Note_on_c, 0, 83, 0
2, 181868, Note_on_c, 0, 47, 0
2, 181883, Note_on_c, 0, 57, 71
2, 181887, Note_on_c, 0, 54, 0
2, 181912, Note_on_c, 0, 82, 0
2, 181913, Note_on_c, 0, 57, 0
2, 181935, Note_on_c, 0, 63, 88
2, 181952, Note_on_c, 0, 81, 77
2, 181955, Note_on_c, 0, 63, 0
2, 182030, Note_on_c, 0, 81, 0
2, 182048, Note_on_c, 0, 90, 70
2, 182112, Note_on_c, 0, 88, 62
2, 182145, Note_on_c, 0, 90, 0
2, 182169, Note_on_c, 0, 87, 86
2, 182181, Note_on_c, 0, 88, 0
2, 182212, Note_on_c, 0, 87, 0
2, 182231, Note_on_c, 0, 95, 80
2, 182292, Note_on_c, 0, 94, 83
2, 182301, Note_on_c, 0, 95, 0
2, 182337, Note_on_c, 0, 94, 0
2, 182352, Note_on_c, 0, 93, 66
2, 182406, Note_on_c, 0, 90, 89
2, 182414, Note_on_c, 0, 93, 0
2, 182460, Note_on_c, 0, 87, 84
2, 182478, Note_on_c, 0, 90, 0
2, 182511, Note_on_c, 0, 83, 74
2, 182513, Note_on_c, 0, 87, 0
2, 182548, Note_on_c, 0, 83, 0
2, 182570, Note_on_c, 0, 81, 74
2, 182617, Note_on_c, 0, 78, 87
2, 182619, Note_on_c, 0, 81, 0
2, 182672, Note_on_c, 0, 78, 0
2, 182675, Note_on_c, 0, 75, 89
2, 182720, Note_on_c, 0, 75, 0
2, 182729, Note_on_c, 0, 71, 73
2, 182762, Note_on_c, 0, 71, 0
2, 182788, Note_on_c, 0, 69, 65
2, 182840, Note_on_c, 0, 66, 74
2, 182844, Note_on_c, 0, 69, 0
2, 182877, Note_on_c, 0, 66, 0
2, 182898, Note_on_c, 0, 63, 80
2, 182951, Note_on_c, 0, 63, 0
2, 182954, Note_on_c, 0, 59, 64
2, 183012, Note_on_c, 0, 61, 84
2, 183016, Note_on_c, 0, 59, 0
2, 183064, Note_on_c, 0, 63, 80
2, 183072, Note_on_c, 0, 61, 0
2, 183120, Note_on_c, 0, 63, 0
2, 183129, Note_on_c, 0, 64, 73
2, 183188, Note_on_c, 0, 64, 0
2, 183190, Note_on_c, 0, 66, 74
2, 183206, Control_c, 0, 64, 63
2, 183233, Control_c, 0, 64, 0
2, 183239, Note_on_c, 0, 68, 69
2, 183249, Note_on_c, 0, 66, 0
2, 183302, Note_on_c, 0, 69, 61
2, 183316, Note_on_c, 0, 68, 0
2, 183371, Note_on_c, 0, 70, 70
2, 183373, Note_on_c, 0, 69, 0
2, 183427, Note_on_c, 0, 70, 0
2, 183435, Note_on_c, 0, 71, 53
2, 183500, Note_on_c, 0, 71, 0
2, 183501, Note_on_c, 0, 72, 65
2, 183555, Note_on_c, 0, 72, 0
2, 183563, Note_on_c, 0, 73, 60
2, 183621, Note_on_c, 0, 73, 0
2, 183630, Note_on_c, 0, 74, 52
2, 183689, Note_on_c, 0, 74, 0
2, 183695, Note_on_c, 0, 75, 64
2, 183757, Note_on_c, 0, 75, 0
2, 183765, Note_on_c, 0, 76, 59
2, 183839, Note_on_c, 0, 76, 0
2, 183844, Note_on_c, 0, 77, 55
2, 183899, Control_c, 0, 67, 0
2, 183916, Note_on_c, 0, 77, 0
2, 183927, Note_on_c, 0, 78, 53
2, 184015, Note_on_c, 0, 78, 0
2, 184022, Note_on_c, 0, 79, 48
2, 184123, Note_on_c, 0, 80, 42
2, 184129, Note_on_c, 0, 79, 0
2, 184256, Note_on_c, 0, 81, 38
2, 184263, Note_on_c, 0, 80, 0
2, 184451, Note_on_c, 0, 34, 40
2, 184488, Note_on_c, 0, 81, 0
2, 184497, Note_on_c, 0, 82, 59
2, 184498, Control_c, 0, 64, 63
2, 184507, Note_on_c, 0, 46, 48
2, 184513, Control_c, 0, 64, 127
2, 184544, Note_on_c, 0, 34, 0
2, 184583, Note_on_c, 0, 46, 0
2, 184584, Note_on_c, 0, 82, 0
2, 184820, Note_on_c, 0, 58, 39
2, 184827, Note_on_c, 0, 75, 61
2, 184833, Note_on_c, 0, 67, 46
2, 184935, Note_on_c, 0, 75, 0
2, 185000, Note_on_c, 0, 67, 0
2, 185016, Note_on_c, 0, 63, 55
2, 185027, Note_on_c, 0, 55, 47
2, 185050, Note_on_c, 0, 79, 65
2, 185079, Note_on_c, 0, 58, 0
2, 185124, Note_on_c, 0, 79, 0
2, 185165, Note_on_c, 0, 55, 0
2, 185202, Note_on_c, 0, 67, 59
2, 185225, Note_on_c, 0, 63, 0
2, 185263, Note_on_c, 0, 67, 0
2, 185326, Note_on_c, 0, 62, 57
2, 185333, Note_on_c, 0, 58, 40
2, 185335, Note_on_c, 0, 56, 51
2, 185364, Note_on_c, 0, 77, 79
2, 185388, Control_c, 0, 64, 63
2, 185391, Note_on_c, 0, 79, 78
2, 185396, Note_on_c, 0, 77, 0
2, 185404, Control_c, 0, 64, 0
2, 185412, Note_on_c, 0, 58, 0
2, 185424, Note_on_c, 0, 77, 81
2, 185446, Note_on_c, 0, 79, 0
2, 185503, Note_on_c, 0, 77, 0
2, 185503, Note_on_c, 0, 74, 77
2, 185508, Note_on_c, 0, 68, 58
2, 185512, Note_on_c, 0, 58, 33
2, 185523, Note_on_c, 0, 56, 0
2, 185543, Note_on_c, 0, 62, 0
2, 185566, Note_on_c, 0, 68, 0
2, 185593, Note_on_c, 0, 70, 65
2, 185596, Note_on_c, 0, 58, 0
2, 185604, Note_on_c, 0, 74, 0
2, 185644, Note_on_c, 0, 70, 0
2, 185673, Note_on_c, 0, 75, 75
2, 185683, Note_on_c, 0, 51, 66
2, 185720, Control_c, 0, 64, 63
2, 185724, Control_c, 0, 64, 127
2, 185767, Note_on_c, 0, 51, 0
2, 185836, Note_on_c, 0, 75, 0
2, 185918, Note_on_c, 0, 67, 44
2, 185918, Note_on_c, 0, 79, 61
2, 185923, Note_on_c, 0, 58, 42
2, 186006, Note_on_c, 0, 80, 67
2, 186022, Note_on_c, 0, 79, 0
2, 186058, Note_on_c, 0, 67, 0
2, 186096, Note_on_c, 0, 63, 46
2, 186099, Note_on_c, 0, 80, 0
2, 186100, Note_on_c, 0, 81, 63
2, 186101, Note_on_c, 0, 55, 48
2, 186138, Note_on_c, 0, 58, 0
2, 186168, Note_on_c, 0, 82, 68
2, 186170, Note_on_c, 0, 81, 0
2, 186229, Note_on_c, 0, 55, 0
2, 186233, Note_on_c, 0, 82, 0
2, 186244, Note_on_c, 0, 67, 48
2, 186244, Note_on_c, 0, 84, 66
2, 186249, Note_on_c, 0, 58, 50
2, 186276, Note_on_c, 0, 63, 0
2, 186316, Note_on_c, 0, 86, 74
2, 186328, Note_on_c, 0, 84, 0
2, 186341, Note_on_c, 0, 67, 0
2, 186381, Note_on_c, 0, 63, 71
2, 186385, Note_on_c, 0, 55, 47
2, 186387, Note_on_c, 0, 87, 84
2, 186401, Note_on_c, 0, 86, 0
2, 186419, Note_on_c, 0, 58, 0
2, 186442, Note_on_c, 0, 87, 0
2, 186450, Note_on_c, 0, 89, 78
2, 186478, Note_on_c, 0, 55, 0
2, 186541, Note_on_c, 0, 58, 42
2, 186544, Note_on_c, 0, 92, 73
2, 186548, Note_on_c, 0, 67, 32
2, 186550, Note_on_c, 0, 89, 0
2, 186575, Note_on_c, 0, 63, 0
2, 186614, Note_on_c, 0, 67, 0
2, 186635, Note_on_c, 0, 92, 0
2, 186674, Note_on_c, 0, 91, 68
2, 186705, Note_on_c, 0, 91, 0
2, 186714, Note_on_c, 0, 58, 0
2, 186737, Note_on_c, 0, 91, 73
2, 186738, Note_on_c, 0, 56, 48
2, 186743, Note_on_c, 0, 62, 45
2, 186758, Note_on_c, 0, 89, 60
2, 186777, Control_c, 0, 64, 63
2, 186783, Control_c, 0, 64, 0
2, 186797, Note_on_c, 0, 91, 0
2, 186847, Note_on_c, 0, 88, 83
2, 186855, Control_c, 0, 64, 63
2, 186861, Control_c, 0, 64, 127
2, 186881, Note_on_c, 0, 89, 0
2, 186931, Note_on_c, 0, 56, 0
2, 186940, Note_on_c, 0, 65, 49
2, 186942, Note_on_c, 0, 58, 39
2, 186943, Note_on_c, 0, 89, 83
2, 186964, Note_on_c, 0, 62, 0
2, 186973, Note_on_c, 0, 88, 0
2, 187002, Note_on_c, 0, 91, 72
2, 187022, Note_on_c, 0, 89, 0
2, 187037, Note_on_c, 0, 65, 0
2, 187119, Note_on_c, 0, 58, 0
2, 187122, Note_on_c, 0, 56, 31
2, 187140, Note_on_c, 0, 62, 31
2, 187144, Note_on_c, 0, 91, 0
2, 187169, Note_on_c, 0, 94, 73
2, 187208, Note_on_c, 0, 94, 0
2, 187398, Note_on_c, 0, 58, 30
2, 187419, Note_on_c, 0, 56, 0
2, 187441, Note_on_c, 0, 62, 0
2, 187444, Note_on_c, 0, 65, 22
2, 187452, Note_on_c, 0, 70, 59
2, 187544, Control_c, 0, 64, 63
2, 187549, Control_c, 0, 64, 0
2, 187588, Control_c, 0, 64, 63
2, 187599, Control_c, 0, 64, 127
2, 187605, Note_on_c, 0, 65, 0
2, 187635, Note_on_c, 0, 58, 0
2, 187674, Note_on_c, 0, 70, 0
2, 187677, Note_on_c, 0, 39, 48
2, 187702, Control_c, 0, 64, 63
2, 187713, Control_c, 0, 64, 127
2, 187716, Note_on_c, 0, 51, 49
2, 187718, Note_on_c, 0, 82, 76
2, 187781, Note_on_c, 0, 39, 0
2, 187823, Note_on_c, 0, 51, 0
2, 187846, Note_on_c, 0, 82, 0
2, 188017, Note_on_c, 0, 75, 82
2, 188020, Note_on_c, 0, 67, 52
2, 188021, Note_on_c, 0, 58, 54
2, 188055, Note_on_c, 0, 75, 0
2, 188088, Note_on_c, 0, 67, 0
2, 188237, Note_on_c, 0, 63, 60
2, 188252, Note_on_c, 0, 55, 31
2, 188266, Note_on_c, 0, 79, 86
2, 188297, Note_on_c, 0, 58, 0
2, 188343, Control_c, 0, 64, 63
2, 188401, Control_c, 0, 64, 127
2, 188456, Note_on_c, 0, 67, 59
2, 188459, Note_on_c, 0, 58, 57
2, 188466, Note_on_c, 0, 55, 0
2, 188495, Note_on_c, 0, 63, 0
2, 188514, Note_on_c, 0, 67, 0
2, 188583, Note_on_c, 0, 58, 0
2, 188603, Note_on_c, 0, 79, 0
2, 188640, Note_on_c, 0, 56, 61
2, 188645, Note_on_c, 0, 62, 58
2, 188665, Control_c, 0, 64, 63
2, 188705, Control_c, 0, 64, 127
2, 188719, Note_on_c, 0, 77, 73
2, 188753, Note_on_c, 0, 79, 74
2, 188755, Note_on_c, 0, 77, 0
2, 188803, Note_on_c, 0, 77, 69
2, 188806, Note_on_c, 0, 79, 0
2, 188821, Note_on_c, 0, 62, 0
2, 188823, Note_on_c, 0, 56, 0
2, 188844, Note_on_c, 0, 65, 59
2, 188848, Note_on_c, 0, 58, 46
2, 188853, Note_on_c, 0, 74, 84
2, 188869, Note_on_c, 0, 77, 0
2, 188900, Note_on_c, 0, 65, 0
2, 188910, Note_on_c, 0, 58, 0
2, 188938, Note_on_c, 0, 74, 0
2, 188981, Note_on_c, 0, 70, 89
2, 189048, Note_on_c, 0, 70, 0
2, 189117, Note_on_c, 0, 51, 60
2, 189119, Note_on_c, 0, 75, 89
2, 189150, Control_c, 0, 64, 63
2, 189171, Control_c, 0, 64, 127
2, 189242, Note_on_c, 0, 51, 0
2, 189263, Note_on_c, 0, 75, 0
2, 189327, Note_on_c, 0, 78, 91
2, 189328, Note_on_c, 0, 66, 62
2, 189329, Note_on_c, 0, 58, 55
2, 189368, Note_on_c, 0, 66, 0
2, 189396, Note_on_c, 0, 58, 0
2, 189401, Note_on_c, 0, 80, 93
2, 189420, Note_on_c, 0, 78, 0
2, 189492, Control_c, 0, 64, 63
2, 189496, Note_on_c, 0, 51, 71
2, 189506, Note_on_c, 0, 82, 91
2, 189533, Control_c, 0, 64, 127
2, 189558, Note_on_c, 0, 80, 0
2, 189605, Note_on_c, 0, 51, 0
2, 189646, Note_on_c, 0, 82, 0
2, 189687, Note_on_c, 0, 75, 104
2, 189694, Note_on_c, 0, 66, 77
2, 189694, Note_on_c, 0, 58, 61
2, 189739, Note_on_c, 0, 75, 0
2, 189751, Note_on_c, 0, 66, 0
2, 189756, Note_on_c, 0, 58, 0
2, 189863, Note_on_c, 0, 63, 84
2, 189867, Note_on_c, 0, 54, 85
2, 189883, Note_on_c, 0, 78, 103
2, 190002, Note_on_c, 0, 54, 0
2, 190058, Note_on_c, 0, 63, 0
2, 190066, Note_on_c, 0, 78, 0
2, 190067, Note_on_c, 0, 66, 96
2, 190073, Note_on_c, 0, 58, 72
2, 190109, Note_on_c, 0, 66, 0
2, 190118, Note_on_c, 0, 58, 0
2, 190254, Note_on_c, 0, 51, 79
2, 190268, Note_on_c, 0, 59, 68
2, 190290, Control_c, 0, 64, 63
2, 190309, Note_on_c, 0, 83, 91
2, 190342, Control_c, 0, 64, 127
2, 190393, Note_on_c, 0, 51, 0
2, 190406, Note_on_c, 0, 83, 0
2, 190469, Note_on_c, 0, 59, 0
2, 190475, Note_on_c, 0, 71, 90
2, 190523, Note_on_c, 0, 71, 0
2, 190562, Note_on_c, 0, 66, 94
2, 190573, Note_on_c, 0, 57, 58
2, 190614, Note_on_c, 0, 66, 0
2, 190641, Note_on_c, 0, 78, 104
2, 190649, Note_on_c, 0, 57, 0
2, 190744, Note_on_c, 0, 51, 84
2, 190754, Note_on_c, 0, 59, 85
2, 190761, Control_c, 0, 64, 63
2, 190774, Control_c, 0, 64, 127
2, 190812, Note_on_c, 0, 83, 92
2, 190843, Note_on_c, 0, 78, 0
2, 190865, Note_on_c, 0, 51, 0
2, 190876, Note_on_c, 0, 83, 0
2, 190919, Note_on_c, 0, 69, 88
2, 190924, Note_on_c, 0, 59, 0
2, 190962, Note_on_c, 0, 69, 0
2, 190989, Note_on_c, 0, 79, 101
2, 191040, Note_on_c, 0, 79, 0
2, 191066, Note_on_c, 0, 66, 96
2, 191066, Note_on_c, 0, 83, 102
2, 191077, Note_on_c, 0, 57, 57
2, 191087, Control_c, 0, 64, 63
2, 191089, Note_on_c, 0, 66, 0
2, 191092, Control_c, 0, 64, 0
2, 191099, Note_on_c, 0, 83, 0
2, 191101, Note_on_c, 0, 57, 0
2, 191137, Note_on_c, 0, 68, 98
2, 191184, Note_on_c, 0, 68, 0
2, 191206, Note_on_c, 0, 80, 107
2, 191261, Note_on_c, 0, 80, 0
2, 191300, Note_on_c, 0, 56, 107
2, 191301, Note_on_c, 0, 83, 113
2, 191302, Control_c, 0, 64, 63
2, 191304, Control_c, 0, 64, 127
2, 191310, Note_on_c, 0, 52, 86
2, 191311, Note_on_c, 0, 64, 91
2, 191328, Note_on_c, 0, 52, 0
2, 191332, Note_on_c, 0, 64, 0
2, 191332, Note_on_c, 0, 56, 0
2, 191340, Note_on_c, 0, 83, 0
2, 191479, Control_c, 0, 64, 63
2, 191484, Control_c, 0, 64, 0
2, 191488, Note_on_c, 0, 76, 118
2, 191489, Note_on_c, 0, 68, 111
2, 191495, Note_on_c, 0, 59, 80
2, 191508, Note_on_c, 0, 68, 0
2, 191514, Note_on_c, 0, 59, 0
2, 191517, Note_on_c, 0, 76, 0
2, 191671, Note_on_c, 0, 56, 85
2, 191671, Note_on_c, 0, 52, 82
2, 191672, Note_on_c, 0, 64, 84
2, 191679, Note_on_c, 0, 80, 110
2, 191696, Control_c, 0, 64, 63
2, 191696, Control_c, 0, 64, 127
2, 191709, Note_on_c, 0, 52, 0
2, 191712, Note_on_c, 0, 56, 0
2, 191723, Note_on_c, 0, 64, 0
2, 191846, Note_on_c, 0, 68, 104
2, 191849, Note_on_c, 0, 59, 90
2, 191870, Note_on_c, 0, 59, 0
2, 191872, Note_on_c, 0, 68, 0
2, 191997, Note_on_c, 0, 80, 0
2, 191998, Note_on_c, 0, 52, 97
2, 192001, Note_on_c, 0, 57, 92
2, 192003, Control_c, 0, 64, 63
2, 192006, Control_c, 0, 64, 0
2, 192006, Note_on_c, 0, 63, 103
2, 192033, Note_on_c, 0, 52, 0
2, 192034, Note_on_c, 0, 63, 0
2, 192034, Note_on_c, 0, 57, 0
2, 192069, Note_on_c, 0, 78, 84
2, 192088, Note_on_c, 0, 80, 95
2, 192101, Note_on_c, 0, 78, 0
2, 192124, Note_on_c, 0, 78, 97
2, 192146, Note_on_c, 0, 80, 0
2, 192152, Note_on_c, 0, 66, 94
2, 192160, Note_on_c, 0, 59, 72
2, 192171, Note_on_c, 0, 75, 109
2, 192185, Note_on_c, 0, 59, 0
2, 192191, Note_on_c, 0, 66, 0
2, 192196, Note_on_c, 0, 78, 0
2, 192236, Note_on_c, 0, 75, 0
2, 192242, Note_on_c, 0, 71, 99
2, 192286, Note_on_c, 0, 71, 0
2, 192307, Note_on_c, 0, 56, 88
2, 192309, Note_on_c, 0, 52, 75
2, 192313, Control_c, 0, 64, 127
2, 192314, Note_on_c, 0, 64, 92
2, 192316, Note_on_c, 0, 76, 108
2, 192347, Note_on_c, 0, 52, 0
2, 192349, Note_on_c, 0, 76, 0
2, 192366, Note_on_c, 0, 64, 0
2, 192368, Note_on_c, 0, 56, 0
2, 192459, Control_c, 0, 64, 63
2, 192462, Control_c, 0, 64, 0
2, 192475, Note_on_c, 0, 68, 87
2, 192476, Note_on_c, 0, 59, 70
2, 192477, Note_on_c, 0, 80, 106
2, 192493, Note_on_c, 0, 68, 0
2, 192505, Note_on_c, 0, 59, 0
2, 192511, Note_on_c, 0, 80, 0
2, 192535, Note_on_c, 0, 81, 97
2, 192591, Note_on_c, 0, 81, 0
2, 192620, Note_on_c, 0, 52, 71
2, 192620, Note_on_c, 0, 56, 91
2, 192628, Note_on_c, 0, 64, 79
2, 192631, Note_on_c, 0, 82, 107
2, 192651, Note_on_c, 0, 52, 0
2, 192668, Note_on_c, 0, 56, 0
2, 192670, Note_on_c, 0, 64, 0
2, 192674, Note_on_c, 0, 82, 0
2, 192686, Note_on_c, 0, 83, 82
2, 192757, Note_on_c, 0, 83, 0
2, 192773, Note_on_c, 0, 59, 80
2, 192774, Note_on_c, 0, 85, 109
2, 192774, Note_on_c, 0, 68, 96
2, 192796, Note_on_c, 0, 68, 0
2, 192800, Note_on_c, 0, 59, 0
2, 192836, Note_on_c, 0, 87, 107
2, 192849, Note_on_c, 0, 85, 0
2, 192887, Note_on_c, 0, 87, 0
2, 192910, Note_on_c, 0, 52, 63
2, 192910, Note_on_c, 0, 56, 91
2, 192915, Note_on_c, 0, 88, 108
2, 192920, Note_on_c, 0, 64, 81
2, 192939, Control_c, 0, 64, 63
2, 192939, Control_c, 0, 64, 127
2, 192943, Note_on_c, 0, 64, 0
2, 192944, Note_on_c, 0, 52, 0
2, 192956, Note_on_c, 0, 56, 0
2, 192962, Note_on_c, 0, 88, 0
2, 192983, Note_on_c, 0, 90, 109
2, 193020, Note_on_c, 0, 90, 0
2, 193063, Note_on_c, 0, 68, 106
2, 193064, Note_on_c, 0, 93, 116
2, 193067, Note_on_c, 0, 59, 76
2, 193087, Note_on_c, 0, 68, 0
2, 193089, Note_on_c, 0, 59, 0
2, 193101, Note_on_c, 0, 93, 0
2, 193192, Note_on_c, 0, 92, 103
2, 193212, Note_on_c, 0, 92, 0
2, 193217, Control_c, 0, 64, 63
2, 193223, Control_c, 0, 64, 0
2, 193231, Note_on_c, 0, 54, 103
2, 193235, Note_on_c, 0, 47, 74
2, 193238, Note_on_c, 0, 59, 80
2, 193242, Note_on_c, 0, 92, 106
2, 193249, Note_on_c, 0, 90, 104
2, 193255, Note_on_c, 0, 47, 0
2, 193262, Note_on_c, 0, 54, 0
2, 193267, Note_on_c, 0, 59, 0
2, 193289, Note_on_c, 0, 92, 0
2, 193318, Note_on_c, 0, 89, 101
2, 193331, Note_on_c, 0, 90, 0
2, 193395, Note_on_c, 0, 90, 113
2, 193398, Note_on_c, 0, 63, 97
2, 193405, Note_on_c, 0, 54, 88
2, 193409, Note_on_c, 0, 89, 0
2, 193422, Note_on_c, 0, 54, 0
2, 193425, Note_on_c, 0, 63, 0
2, 193441, Note_on_c, 0, 92, 110
2, 193454, Note_on_c, 0, 90, 0
2, 193512, Note_on_c, 0, 90, 99
2, 193524, Note_on_c, 0, 92, 0
2, 193539, Note_on_c, 0, 54, 107
2, 193541, Note_on_c, 0, 47, 81
2, 193545, Note_on_c, 0, 59, 93
2, 193546, Note_on_c, 0, 95, 113
2, 193553, Control_c, 0, 64, 127
2, 193557, Note_on_c, 0, 90, 0
2, 193559, Note_on_c, 0, 47, 0
2, 193567, Note_on_c, 0, 54, 0
2, 193573, Note_on_c, 0, 59, 0
2, 193576, Note_on_c, 0, 95, 0
2, 193736, Note_on_c, 0, 71, 116
2, 193742, Note_on_c, 0, 63, 94
2, 193744, Note_on_c, 0, 54, 89
2, 193764, Note_on_c, 0, 63, 0
2, 193768, Note_on_c, 0, 71, 0
2, 193777, Note_on_c, 0, 54, 0
2, 193886, Note_on_c, 0, 52, 90
2, 193889, Note_on_c, 0, 56, 96
2, 193892, Note_on_c, 0, 64, 86
2, 193892, Note_on_c, 0, 83, 109
2, 193893, Note_on_c, 0, 59, 82
2, 193894, Control_c, 0, 64, 63
2, 193899, Control_c, 0, 64, 0
2, 193913, Note_on_c, 0, 59, 0
2, 193919, Note_on_c, 0, 52, 0
2, 193922, Note_on_c, 0, 56, 0
2, 193923, Note_on_c, 0, 64, 0
2, 193924, Note_on_c, 0, 83, 0
2, 194060, Note_on_c, 0, 68, 97
2, 194062, Note_on_c, 0, 76, 109
2, 194064, Note_on_c, 0, 59, 66
2, 194078, Note_on_c, 0, 68, 0
2, 194086, Note_on_c, 0, 59, 0
2, 194093, Note_on_c, 0, 76, 0
2, 194188, Note_on_c, 0, 50, 100
2, 194198, Note_on_c, 0, 56, 106
2, 194209, Control_c, 0, 64, 127
2, 194216, Note_on_c, 0, 80, 118
2, 194222, Note_on_c, 0, 50, 0
2, 194230, Note_on_c, 0, 64, 99
2, 194237, Note_on_c, 0, 56, 0
2, 194252, Note_on_c, 0, 64, 0
2, 194376, Note_on_c, 0, 68, 101
2, 194381, Note_on_c, 0, 59, 73
2, 194385, Control_c, 0, 64, 63
2, 194387, Control_c, 0, 64, 0
2, 194395, Note_on_c, 0, 68, 0
2, 194400, Note_on_c, 0, 59, 0
2, 194535, Control_c, 0, 64, 127
2, 194536, Note_on_c, 0, 49, 109
2, 194540, Note_on_c, 0, 56, 99
2, 194540, Note_on_c, 0, 61, 109
2, 194558, Note_on_c, 0, 56, 0
2, 194565, Note_on_c, 0, 61, 0
2, 194565, Note_on_c, 0, 49, 0
2, 194627, Note_on_c, 0, 80, 0
2, 194692, Note_on_c, 0, 59, 86
2, 194697, Note_on_c, 0, 65, 84
2, 194701, Note_on_c, 0, 75, 103
2, 194726, Note_on_c, 0, 65, 0
2, 194733, Note_on_c, 0, 59, 0
2, 194739, Control_c, 0, 64, 63
2, 194754, Control_c, 0, 64, 0
2, 194754, Note_on_c, 0, 77, 94
2, 194762, Note_on_c, 0, 75, 0
2, 194829, Control_c, 0, 64, 63
2, 194831, Note_on_c, 0, 57, 46
2, 194836, Control_c, 0, 64, 127
2, 194837, Note_on_c, 0, 54, 83
2, 194841, Note_on_c, 0, 66, 87
2, 194844, Note_on_c, 0, 78, 109
2, 194860, Note_on_c, 0, 77, 0
2, 194879, Note_on_c, 0, 54, 0
2, 194880, Note_on_c, 0, 66, 0
2, 194882, Note_on_c, 0, 78, 0
2, 194885, Note_on_c, 0, 57, 0
2, 194993, Note_on_c, 0, 69, 68
2, 194995, Note_on_c, 0, 61, 81
2, 194998, Note_on_c, 0, 73, 97
2, 195015, Note_on_c, 0, 69, 0
2, 195021, Note_on_c, 0, 61, 0
2, 195038, Control_c, 0, 64, 63
2, 195042, Note_on_c, 0, 73, 0
2, 195058, Control_c, 0, 64, 0
2, 195059, Note_on_c, 0, 81, 94
2, 195131, Control_c, 0, 64, 63
2, 195141, Control_c, 0, 64, 127
2, 195147, Note_on_c, 0, 49, 86
2, 195152, Note_on_c, 0, 56, 78
2, 195152, Note_on_c, 0, 61, 82
2, 195175, Note_on_c, 0, 49, 0
2, 195181, Note_on_c, 0, 56, 0
2, 195186, Note_on_c, 0, 61, 0
2, 195226, Note_on_c, 0, 81, 0
2, 195229, Note_on_c, 0, 80, 86
2, 195296, Note_on_c, 0, 59, 84
2, 195306, Note_on_c, 0, 65, 65
2, 195310, Note_on_c, 0, 75, 108
2, 195317, Note_on_c, 0, 80, 0
2, 195344, Note_on_c, 0, 65, 0
2, 195352, Note_on_c, 0, 59, 0
2, 195363, Control_c, 0, 64, 63
2, 195366, Note_on_c, 0, 75, 0
2, 195367, Note_on_c, 0, 77, 94
2, 195382, Control_c, 0, 64, 0
2, 195432, Note_on_c, 0, 78, 109
2, 195434, Note_on_c, 0, 57, 84
2, 195435, Note_on_c, 0, 54, 90
2, 195442, Note_on_c, 0, 66, 95
2, 195444, Control_c, 0, 64, 63
2, 195451, Note_on_c, 0, 77, 0
2, 195453, Control_c, 0, 64, 127
2, 195472, Note_on_c, 0, 66, 0
2, 195474, Note_on_c, 0, 54, 0
2, 195478, Note_on_c, 0, 57, 0
2, 195480, Note_on_c, 0, 78, 0
2, 195596, Note_on_c, 0, 80, 105
2, 195598, Note_on_c, 0, 69, 78
2, 195600, Note_on_c, 0, 61, 92
2, 195621, Note_on_c, 0, 69, 0
2, 195625, Note_on_c, 0, 61, 0
2, 195645, Note_on_c, 0, 80, 0
2, 195646, Control_c, 0, 64, 63
2, 195653, Note_on_c, 0, 81, 103
2, 195663, Control_c, 0, 64, 0
2, 195719, Note_on_c, 0, 81, 0
2, 195740, Note_on_c, 0, 52, 88
2, 195749, Control_c, 0, 64, 63
2, 195750, Note_on_c, 0, 59, 94
2, 195756, Control_c, 0, 64, 127
2, 195761, Note_on_c, 0, 64, 65
2, 195763, Note_on_c, 0, 82, 109
2, 195776, Note_on_c, 0, 52, 0
2, 195781, Note_on_c, 0, 59, 0
2, 195789, Note_on_c, 0, 64, 0
2, 195795, Note_on_c, 0, 85, 99
2, 195804, Note_on_c, 0, 82, 0
2, 195819, Note_on_c, 0, 83, 87
2, 195846, Note_on_c, 0, 85, 0
2, 195870, Note_on_c, 0, 83, 0
2, 195921, Note_on_c, 0, 68, 100
2, 195921, Note_on_c, 0, 78, 101
2, 195956, Note_on_c, 0, 68, 0
2, 195963, Note_on_c, 0, 78, 0
2, 195977, Note_on_c, 0, 80, 101
2, 196025, Note_on_c, 0, 80, 0
2, 196029, Control_c, 0, 64, 63
2, 196034, Control_c, 0, 64, 0
2, 196057, Note_on_c, 0, 81, 111
2, 196058, Note_on_c, 0, 61, 104
2, 196061, Note_on_c, 0, 57, 76
2, 196064, Note_on_c, 0, 69, 93
2, 196067, Note_on_c, 0, 64, 91
2, 196085, Note_on_c, 0, 57, 0
2, 196092, Note_on_c, 0, 64, 0
2, 196092, Control_c, 0, 64, 63
2, 196099, Control_c, 0, 64, 127
2, 196100, Note_on_c, 0, 69, 0
2, 196100, Note_on_c, 0, 61, 0
2, 196102, Note_on_c, 0, 81, 0
2, 196219, Note_on_c, 0, 73, 91
2, 196224, Note_on_c, 0, 85, 113
2, 196224, Note_on_c, 0, 64, 65
2, 196240, Note_on_c, 0, 73, 0
2, 196249, Note_on_c, 0, 64, 0
2, 196270, Note_on_c, 0, 87, 109
2, 196272, Control_c, 0, 64, 63
2, 196280, Control_c, 0, 64, 0
2, 196284, Note_on_c, 0, 85, 0
2, 196319, Note_on_c, 0, 87, 0
2, 196345, Note_on_c, 0, 88, 104
2, 196350, Note_on_c, 0, 58, 96
2, 196353, Control_c, 0, 64, 63
2, 196358, Note_on_c, 0, 64, 90
2, 196360, Control_c, 0, 64, 127
2, 196393, Note_on_c, 0, 58, 0
2, 196396, Note_on_c, 0, 64, 0
2, 196401, Note_on_c, 0, 90, 104
2, 196412, Note_on_c, 0, 88, 0
2, 196440, Note_on_c, 0, 88, 85
2, 196465, Note_on_c, 0, 90, 0
2, 196499, Note_on_c, 0, 87, 115
2, 196512, Control_c, 0, 64, 63
2, 196516, Note_on_c, 0, 73, 97
2, 196517, Control_c, 0, 64, 0
2, 196518, Note_on_c, 0, 88, 0
2, 196522, Note_on_c, 0, 66, 80
2, 196536, Note_on_c, 0, 87, 0
2, 196541, Note_on_c, 0, 66, 0
2, 196545, Note_on_c, 0, 73, 0
2, 196633, Note_on_c, 0, 85, 110
2, 196672, Note_on_c, 0, 83, 104
2, 196674, Note_on_c, 0, 63, 95
2, 196675, Note_on_c, 0, 59, 79
2, 196677, Note_on_c, 0, 85, 0
2, 196694, Control_c, 0, 64, 127
2, 196705, Note_on_c, 0, 59, 0
2, 196720, Note_on_c, 0, 63, 0
2, 196759, Note_on_c, 0, 83, 0
2, 196824, Note_on_c, 0, 66, 82
2, 196827, Note_on_c, 0, 85, 109
2, 196827, Note_on_c, 0, 71, 68
2, 196853, Note_on_c, 0, 71, 0
2, 196871, Note_on_c, 0, 85, 0
2, 196872, Control_c, 0, 64, 63
2, 196889, Note_on_c, 0, 87, 99
2, 196907, Note_on_c, 0, 66, 0
2, 196909, Control_c, 0, 64, 0
2, 196922, Note_on_c, 0, 87, 0
2, 196950, Note_on_c, 0, 58, 87
2, 196964, Control_c, 0, 64, 63
2, 196965, Note_on_c, 0, 64, 73
2, 196972, Control_c, 0, 64, 127
2, 196974, Note_on_c, 0, 88, 100
2, 196993, Note_on_c, 0, 58, 0
2, 197016, Note_on_c, 0, 64, 0
2, 197019, Note_on_c, 0, 90, 98
2, 197021, Note_on_c, 0, 88, 0
2, 197058, Note_on_c, 0, 88, 66
2, 197072, Note_on_c, 0, 90, 0
2, 197105, Note_on_c, 0, 87, 110
2, 197117, Note_on_c, 0, 73, 87
2, 197122, Note_on_c, 0, 66, 74
2, 197123, Note_on_c, 0, 88, 0
2, 197123, Control_c, 0, 64, 63
2, 197128, Control_c, 0, 64, 0
2, 197142, Note_on_c, 0, 66, 0
2, 197144, Note_on_c, 0, 87, 0
2, 197145, Note_on_c, 0, 73, 0
2, 197227, Note_on_c, 0, 85, 108
2, 197267, Note_on_c, 0, 63, 93
2, 197267, Note_on_c, 0, 59, 76
2, 197268, Note_on_c, 0, 83, 92
2, 197269, Note_on_c, 0, 85, 0
2, 197290, Control_c, 0, 64, 63
2, 197290, Control_c, 0, 64, 127
2, 197300, Note_on_c, 0, 59, 0
2, 197318, Note_on_c, 0, 63, 0
2, 197367, Note_on_c, 0, 83, 0
2, 197427, Note_on_c, 0, 68, 77
2, 197432, Note_on_c, 0, 85, 107
2, 197433, Note_on_c, 0, 71, 65
2, 197464, Note_on_c, 0, 71, 0
2, 197478, Note_on_c, 0, 85, 0
2, 197485, Note_on_c, 0, 68, 0
2, 197491, Note_on_c, 0, 87, 100
2, 197504, Control_c, 0, 64, 63
2, 197513, Control_c, 0, 64, 0
2, 197523, Note_on_c, 0, 87, 0
2, 197561, Note_on_c, 0, 61, 78
2, 197572, Note_on_c, 0, 64, 73
2, 197578, Control_c, 0, 64, 63
2, 197585, Note_on_c, 0, 85, 103
2, 197586, Control_c, 0, 64, 127
2, 197611, Note_on_c, 0, 61, 0
2, 197615, Note_on_c, 0, 64, 0
2, 197616, Note_on_c, 0, 87, 98
2, 197624, Note_on_c, 0, 85, 0
2, 197663, Note_on_c, 0, 87, 0
2, 197666, Note_on_c, 0, 85, 76
2, 197726, Note_on_c, 0, 85, 0
2, 197733, Note_on_c, 0, 83, 83
2, 197735, Note_on_c, 0, 70, 76
2, 197738, Note_on_c, 0, 73, 59
2, 197774, Note_on_c, 0, 73, 0
2, 197781, Note_on_c, 0, 70, 0
2, 197792, Note_on_c, 0, 83, 0
2, 197809, Note_on_c, 0, 82, 98
2, 197879, Note_on_c, 0, 68, 65
2, 197881, Note_on_c, 0, 63, 62
2, 197894, Note_on_c, 0, 80, 97
2, 197903, Note_on_c, 0, 82, 0
2, 197905, Control_c, 0, 64, 63
2, 197918, Control_c, 0, 64, 0
2, 197969, Control_c, 0, 64, 63
2, 197982, Control_c, 0, 64, 127
2, 198046, Note_on_c, 0, 80, 0
2, 198049, Note_on_c, 0, 82, 95
2, 198055, Note_on_c, 0, 75, 81
2, 198061, Note_on_c, 0, 71, 55
2, 198062, Note_on_c, 0, 63, 0
2, 198090, Note_on_c, 0, 68, 0
2, 198093, Note_on_c, 0, 71, 0
2, 198105, Note_on_c, 0, 75, 0
2, 198118, Note_on_c, 0, 83, 91
2, 198143, Note_on_c, 0, 82, 0
2, 198148, Note_on_c, 0, 68, 7
2, 198184, Note_on_c, 0, 68, 0
2, 198194, Control_c, 0, 64, 63
2, 198202, Note_on_c, 0, 63, 78
2, 198205, Note_on_c, 0, 83, 0
2, 198206, Note_on_c, 0, 70, 86
2, 198206, Control_c, 0, 64, 0
2, 198213, Note_on_c, 0, 82, 100
2, 198251, Control_c, 0, 64, 63
2, 198260, Note_on_c, 0, 83, 92
2, 198262, Control_c, 0, 64, 127
2, 198272, Note_on_c, 0, 82, 0
2, 198306, Note_on_c, 0, 82, 91
2, 198339, Note_on_c, 0, 83, 0
2, 198349, Note_on_c, 0, 80, 106
2, 198374, Note_on_c, 0, 73, 77
2, 198388, Note_on_c, 0, 82, 0
2, 198423, Note_on_c, 0, 79, 99
2, 198426, Note_on_c, 0, 70, 0
2, 198427, Control_c, 0, 64, 63
2, 198436, Note_on_c, 0, 80, 0
2, 198474, Control_c, 0, 64, 127
2, 198529, Note_on_c, 0, 69, 61
2, 198532, Note_on_c, 0, 78, 108
2, 198542, Note_on_c, 0, 63, 0
2, 198558, Note_on_c, 0, 79, 0
2, 198569, Control_c, 0, 64, 63
2, 198578, Control_c, 0, 64, 0
2, 198608, Control_c, 0, 64, 63
2, 198619, Control_c, 0, 64, 127
2, 198642, Note_on_c, 0, 73, 0
2, 198668, Note_on_c, 0, 78, 0
2, 198728, Note_on_c, 0, 71, 92
2, 198731, Note_on_c, 0, 80, 110
2, 198791, Note_on_c, 0, 80, 0
2, 198827, Note_on_c, 0, 81, 118
2, 198831, Note_on_c, 0, 69, 0
2, 198908, Control_c, 0, 64, 63
2, 198914, Control_c, 0, 64, 0
2, 198924, Note_on_c, 0, 81, 0
2, 198937, Note_on_c, 0, 80, 123
2, 198941, Note_on_c, 0, 64, 116
2, 198953, Control_c, 0, 64, 63
2, 198964, Control_c, 0, 64, 127
2, 198970, Note_on_c, 0, 71, 0
2, 198977, Note_on_c, 0, 80, 0
2, 198984, Note_on_c, 0, 64, 0
2, 198999, Control_c, 0, 64, 63
2, 199009, Control_c, 0, 64, 0
2, 199187, Note_on_c, 0, 76, 96
2, 199187, Note_on_c, 0, 90, 104
2, 199188, Note_on_c, 0, 66, 97
2, 199188, Note_on_c, 0, 73, 94
2, 199192, Note_on_c, 0, 82, 100
2, 199198, Control_c, 0, 64, 127
2, 199241, Note_on_c, 0, 76, 0
2, 199245, Note_on_c, 0, 66, 0
2, 199284, Note_on_c, 0, 73, 0
2, 199284, Note_on_c, 0, 90, 0
2, 199292, Note_on_c, 0, 88, 93
2, 199351, Note_on_c, 0, 82, 0
2, 199352, Note_on_c, 0, 88, 0
2, 199387, Note_on_c, 0, 75, 98
2, 199389, Note_on_c, 0, 87, 105
2, 199394, Note_on_c, 0, 71, 88
2, 199397, Note_on_c, 0, 83, 87
2, 199403, Control_c, 0, 64, 63
2, 199407, Control_c, 0, 64, 0
2, 199461, Note_on_c, 0, 71, 0
2, 199466, Note_on_c, 0, 78, 88
2, 199510, Note_on_c, 0, 78, 0
2, 199533, Note_on_c, 0, 83, 0
2, 199539, Note_on_c, 0, 87, 0
2, 199556, Note_on_c, 0, 88, 101
2, 199565, Note_on_c, 0, 80, 101
2, 199571, Control_c, 0, 64, 127
2, 199573, Note_on_c, 0, 64, 68
2, 199606, Note_on_c, 0, 88, 0
2, 199629, Note_on_c, 0, 75, 0
2, 199630, Note_on_c, 0, 87, 96
2, 199667, Note_on_c, 0, 80, 0
2, 199676, Note_on_c, 0, 87, 0
2, 199690, Note_on_c, 0, 64, 0
2, 199717, Note_on_c, 0, 81, 97
2, 199718, Note_on_c, 0, 73, 103
2, 199720, Control_c, 0, 64, 63
2, 199720, Note_on_c, 0, 85, 97
2, 199724, Note_on_c, 0, 69, 84
2, 199726, Control_c, 0, 64, 0
2, 199783, Note_on_c, 0, 76, 98
2, 199831, Note_on_c, 0, 76, 0
2, 199853, Note_on_c, 0, 81, 0
2, 199857, Note_on_c, 0, 85, 0
2, 199871, Note_on_c, 0, 87, 108
2, 199875, Control_c, 0, 64, 127
2, 199878, Note_on_c, 0, 78, 106
2, 199879, Note_on_c, 0, 63, 90
2, 199916, Note_on_c, 0, 78, 0
2, 199927, Note_on_c, 0, 69, 0
2, 199929, Note_on_c, 0, 87, 0
2, 199930, Note_on_c, 0, 73, 0
2, 199943, Note_on_c, 0, 78, 80
2, 199945, Note_on_c, 0, 85, 100
2, 199955, Note_on_c, 0, 63, 0
2, 199982, Note_on_c, 0, 78, 0
2, 199988, Note_on_c, 0, 85, 0
2, 200024, Note_on_c, 0, 83, 108
2, 200026, Note_on_c, 0, 80, 108
2, 200028, Note_on_c, 0, 71, 106
2, 200044, Control_c, 0, 64, 63
2, 200048, Control_c, 0, 64, 0
2, 200092, Note_on_c, 0, 75, 105
2, 200100, Note_on_c, 0, 68, 94
2, 200125, Note_on_c, 0, 80, 0
2, 200140, Note_on_c, 0, 75, 0
2, 200170, Note_on_c, 0, 83, 0
2, 200183, Note_on_c, 0, 85, 115
2, 200185, Note_on_c, 0, 82, 65
2, 200185, Note_on_c, 0, 61, 112
2, 200186, Control_c, 0, 64, 127
2, 200187, Note_on_c, 0, 76, 104
2, 200208, Note_on_c, 0, 82, 0
2, 200225, Note_on_c, 0, 85, 0
2, 200226, Note_on_c, 0, 76, 0
2, 200245, Note_on_c, 0, 71, 0
2, 200258, Note_on_c, 0, 83, 98
2, 200268, Note_on_c, 0, 68, 0
2, 200297, Note_on_c, 0, 83, 0
2, 200316, Note_on_c, 0, 61, 0
2, 200336, Note_on_c, 0, 81, 108
2, 200337, Note_on_c, 0, 69, 108
2, 200337, Note_on_c, 0, 78, 116
2, 200341, Note_on_c, 0, 66, 109
2, 200359, Control_c, 0, 64, 63
2, 200363, Control_c, 0, 64, 0
2, 200406, Note_on_c, 0, 73, 103
2, 200438, Note_on_c, 0, 78, 0
2, 200445, Note_on_c, 0, 73, 0
2, 200469, Note_on_c, 0, 66, 0
2, 200486, Note_on_c, 0, 81, 0
2, 200490, Note_on_c, 0, 83, 106
2, 200492, Note_on_c, 0, 75, 110
2, 200495, Note_on_c, 0, 60, 107
2, 200499, Control_c, 0, 64, 127
2, 200541, Note_on_c, 0, 75, 0
2, 200546, Note_on_c, 0, 83, 0
2, 200554, Note_on_c, 0, 69, 0
2, 200561, Note_on_c, 0, 81, 98
2, 200579, Note_on_c, 0, 60, 0
2, 200602, Note_on_c, 0, 81, 0
2, 200635, Note_on_c, 0, 80, 113
2, 200640, Note_on_c, 0, 76, 113
2, 200640, Note_on_c, 0, 68, 114
2, 200641, Note_on_c, 0, 61, 108
2, 200652, Control_c, 0, 64, 63
2, 200655, Control_c, 0, 64, 0
2, 200703, Note_on_c, 0, 73, 83
2, 200709, Note_on_c, 0, 68, 0
2, 200713, Note_on_c, 0, 64, 91
2, 200760, Note_on_c, 0, 76, 0
2, 200760, Note_on_c, 0, 80, 0
2, 200782, Note_on_c, 0, 73, 0
2, 200794, Note_on_c, 0, 81, 104
2, 200796, Note_on_c, 0, 71, 98
2, 200803, Note_on_c, 0, 56, 101
2, 200804, Control_c, 0, 64, 127
2, 200820, Note_on_c, 0, 61, 0
2, 200840, Note_on_c, 0, 81, 0
2, 200861, Note_on_c, 0, 80, 100
2, 200882, Note_on_c, 0, 56, 0
2, 200883, Control_c, 0, 64, 63
2, 200886, Control_c, 0, 64, 0
2, 200916, Note_on_c, 0, 80, 0
2, 200947, Note_on_c, 0, 57, 106
2, 200953, Note_on_c, 0, 78, 113
2, 200986, Note_on_c, 0, 71, 0
2, 201015, Note_on_c, 0, 73, 104
2, 201022, Note_on_c, 0, 57, 0
2, 201053, Note_on_c, 0, 78, 0
2, 201075, Note_on_c, 0, 73, 0
2, 201091, Note_on_c, 0, 80, 110
2, 201095, Note_on_c, 0, 71, 101
2, 201096, Note_on_c, 0, 59, 98
2, 201099, Note_on_c, 0, 63, 95
2, 201106, Note_on_c, 0, 64, 0
2, 201120, Note_on_c, 0, 63, 0
2, 201126, Note_on_c, 0, 71, 0
2, 201135, Note_on_c, 0, 59, 0
2, 201137, Note_on_c, 0, 80, 0
2, 201160, Note_on_c, 0, 78, 105
2, 201163, Note_on_c, 0, 69, 90
2, 201196, Note_on_c, 0, 69, 0
2, 201197, Note_on_c, 0, 78, 0
2, 201248, Note_on_c, 0, 76, 108
2, 201249, Note_on_c, 0, 68, 115
2, 201253, Note_on_c, 0, 64, 112
2, 201255, Note_on_c, 0, 52, 107
2, 201256, Control_c, 0, 64, 127
2, 201272, Note_on_c, 0, 64, 0
2, 201278, Note_on_c, 0, 68, 0
2, 201285, Note_on_c, 0, 76, 0
2, 201286, Note_on_c, 0, 52, 0
2, 201611, Control_c, 0, 64, 63
2, 201619, Control_c, 0, 64, 0
2, 214942, Control_c, 0, 64, 63
2, 214942, Control_c, 0, 64, 127
2, 214957, Note_on_c, 0, 99, 74
2, 214959, Note_on_c, 0, 83, 60
2, 214963, Note_on_c, 0, 95, 59
2, 215032, Note_on_c, 0, 95, 0
2, 215049, Note_on_c, 0, 83, 0
2, 215051, Note_on_c, 0, 87, 70
2, 215053, Note_on_c, 0, 90, 74
2, 215054, Note_on_c, 0, 99, 0
2, 215094, Note_on_c, 0, 90, 0
2, 215118, Note_on_c, 0, 92, 85
2, 215119, Note_on_c, 0, 95, 83
2, 215123, Note_on_c, 0, 87, 0
2, 215127, Note_on_c, 0, 88, 76
2, 215159, Note_on_c, 0, 95, 0
2, 215159, Note_on_c, 0, 92, 0
2, 215163, Note_on_c, 0, 88, 0
2, 215282, Note_on_c, 0, 97, 87
2, 215282, Note_on_c, 0, 93, 76
2, 215284, Note_on_c, 0, 81, 78
2, 215350, Note_on_c, 0, 93, 0
2, 215354, Note_on_c, 0, 97, 0
2, 215354, Note_on_c, 0, 85, 84
2, 215359, Note_on_c, 0, 88, 71
2, 215367, Note_on_c, 0, 81, 0
2, 215409, Note_on_c, 0, 88, 0
2, 215433, Note_on_c, 0, 85, 0
2, 215434, Note_on_c, 0, 93, 87
2, 215434, Note_on_c, 0, 87, 97
2, 215435, Note_on_c, 0, 90, 94
2, 215461, Note_on_c, 0, 90, 0
2, 215472, Note_on_c, 0, 87, 0
2, 215472, Note_on_c, 0, 93, 0
2, 215587, Note_on_c, 0, 80, 87
2, 215591, Note_on_c, 0, 95, 88
2, 215592, Note_on_c, 0, 92, 84
2, 215647, Note_on_c, 0, 92, 0
2, 215659, Note_on_c, 0, 87, 82
2, 215666, Note_on_c, 0, 83, 81
2, 215684, Note_on_c, 0, 95, 0
2, 215698, Note_on_c, 0, 87, 0
2, 215736, Note_on_c, 0, 88, 93
2, 215736, Note_on_c, 0, 92, 90
2, 215745, Note_on_c, 0, 85, 103
2, 215758, Note_on_c, 0, 83, 0
2, 215771, Note_on_c, 0, 88, 0
2, 215779, Note_on_c, 0, 80, 0
2, 215784, Note_on_c, 0, 92, 0
2, 215786, Note_on_c, 0, 85, 0
2, 215892, Note_on_c, 0, 78, 97
2, 215893, Note_on_c, 0, 93, 90
2, 215895, Note_on_c, 0, 90, 88
2, 215960, Note_on_c, 0, 85, 85
2, 215962, Note_on_c, 0, 90, 0
2, 215966, Note_on_c, 0, 81, 92
2, 215989, Note_on_c, 0, 93, 0
2, 216011, Note_on_c, 0, 85, 0
2, 216036, Note_on_c, 0, 87, 103
2, 216037, Note_on_c, 0, 90, 100
2, 216040, Note_on_c, 0, 83, 98
2, 216058, Note_on_c, 0, 81, 0
2, 216071, Note_on_c, 0, 87, 0
2, 216084, Note_on_c, 0, 78, 0
2, 216087, Note_on_c, 0, 90, 0
2, 216092, Note_on_c, 0, 83, 0
2, 216194, Note_on_c, 0, 76, 104
2, 216198, Note_on_c, 0, 92, 99
2, 216199, Control_c, 0, 64, 63
2, 216200, Note_on_c, 0, 88, 91
2, 216206, Control_c, 0, 64, 127
2, 216259, Note_on_c, 0, 80, 86
2, 216264, Note_on_c, 0, 88, 0
2, 216267, Note_on_c, 0, 92, 0
2, 216270, Note_on_c, 0, 83, 85
2, 216321, Note_on_c, 0, 83, 0
2, 216344, Note_on_c, 0, 85, 104
2, 216346, Note_on_c, 0, 88, 97
2, 216349, Note_on_c, 0, 81, 98
2, 216355, Note_on_c, 0, 76, 0
2, 216366, Note_on_c, 0, 80, 0
2, 216380, Note_on_c, 0, 85, 0
2, 216381, Note_on_c, 0, 88, 0
2, 216390, Note_on_c, 0, 81, 0
2, 216498, Note_on_c, 0, 75, 106
2, 216504, Note_on_c, 0, 90, 104
2, 216508, Note_on_c, 0, 87, 100
2, 216565, Note_on_c, 0, 78, 95
2, 216567, Note_on_c, 0, 81, 91
2, 216568, Note_on_c, 0, 87, 0
2, 216570, Note_on_c, 0, 90, 0
2, 216616, Note_on_c, 0, 81, 0
2, 216647, Note_on_c, 0, 83, 106
2, 216648, Note_on_c, 0, 87, 108
2, 216652, Note_on_c, 0, 80, 106
2, 216673, Note_on_c, 0, 78, 0
2, 216674, Note_on_c, 0, 75, 0
2, 216678, Note_on_c, 0, 83, 0
2, 216693, Note_on_c, 0, 80, 0
2, 216693, Note_on_c, 0, 87, 0
2, 216806, Control_c, 0, 64, 63
2, 216809, Note_on_c, 0, 85, 101
2, 216810, Note_on_c, 0, 73, 107
2, 216810, Note_on_c, 0, 88, 100
2, 216841, Control_c, 0, 64, 127
2, 216868, Note_on_c, 0, 76, 98
2, 216878, Note_on_c, 0, 85, 0
2, 216881, Note_on_c, 0, 80, 94
2, 216885, Note_on_c, 0, 88, 0
2, 216920, Note_on_c, 0, 80, 0
2, 216961, Note_on_c, 0, 85, 97
2, 216962, Note_on_c, 0, 81, 97
2, 216965, Note_on_c, 0, 78, 115
2, 216990, Note_on_c, 0, 76, 0
2, 216992, Note_on_c, 0, 73, 0
2, 217003, Note_on_c, 0, 81, 0
2, 217006, Note_on_c, 0, 78, 0
2, 217022, Note_on_c, 0, 85, 0
2, 217095, Control_c, 0, 64, 63
2, 217099, Control_c, 0, 64, 0
2, 217124, Note_on_c, 0, 83, 85
2, 217137, Note_on_c, 0, 87, 114
2, 217140, Note_on_c, 0, 71, 106
2, 217151, Control_c, 0, 64, 63
2, 217151, Control_c, 0, 64, 127
2, 217171, Note_on_c, 0, 83, 0
2, 217176, Note_on_c, 0, 87, 0
2, 217182, Note_on_c, 0, 71, 0
2, 217363, Note_on_c, 0, 71, 116
2, 217379, Control_c, 0, 64, 63
2, 217381, Control_c, 0, 64, 0
2, 217441, Note_on_c, 0, 71, 0
2, 217585, Note_on_c, 0, 52, 103
2, 217586, Note_on_c, 0, 64, 112
2, 217588, Note_on_c, 0, 83, 108
2, 217588, Note_on_c, 0, 56, 104
2, 217626, Note_on_c, 0, 64, 0
2, 217627, Note_on_c, 0, 52, 0
2, 217629, Note_on_c, 0, 56, 0
2, 217638, Note_on_c, 0, 83, 0
2, 217817, Note_on_c, 0, 76, 108
2, 217820, Note_on_c, 0, 59, 87
2, 217821, Note_on_c, 0, 68, 96
2, 217842, Note_on_c, 0, 68, 0
2, 217845, Note_on_c, 0, 59, 0
2, 217885, Note_on_c, 0, 76, 0
2, 217887, Note_on_c, 0, 78, 106
2, 217931, Note_on_c, 0, 78, 0
2, 217976, Note_on_c, 0, 56, 101
2, 217980, Note_on_c, 0, 64, 89
2, 217982, Note_on_c, 0, 52, 86
2, 217985, Note_on_c, 0, 79, 117
2, 217986, Note_on_c, 0, 83, 114
2, 218008, Note_on_c, 0, 52, 0
2, 218011, Note_on_c, 0, 56, 0
2, 218017, Note_on_c, 0, 64, 0
2, 218052, Note_on_c, 0, 79, 0
2, 218058, Note_on_c, 0, 80, 103
2, 218136, Note_on_c, 0, 68, 105
2, 218142, Note_on_c, 0, 59, 80
2, 218143, Note_on_c, 0, 81, 101
2, 218163, Note_on_c, 0, 59, 0
2, 218163, Note_on_c, 0, 80, 0
2, 218170, Note_on_c, 0, 68, 0
2, 218207, Note_on_c, 0, 80, 105
2, 218242, Note_on_c, 0, 81, 0
2, 218255, Note_on_c, 0, 83, 0
2, 218264, Note_on_c, 0, 80, 0
2, 218292, Note_on_c, 0, 52, 90
2, 218293, Note_on_c, 0, 83, 103
2, 218295, Note_on_c, 0, 77, 116
2, 218296, Note_on_c, 0, 57, 90
2, 218297, Note_on_c, 0, 63, 103
2, 218325, Note_on_c, 0, 57, 0
2, 218328, Note_on_c, 0, 63, 0
2, 218330, Note_on_c, 0, 77, 0
2, 218330, Note_on_c, 0, 52, 0
2, 218347, Note_on_c, 0, 83, 0
2, 218366, Note_on_c, 0, 83, 57
2, 218370, Note_on_c, 0, 78, 108
2, 218390, Note_on_c, 0, 83, 0
2, 218409, Note_on_c, 0, 78, 0
2, 218461, Note_on_c, 0, 83, 102
2, 218462, Note_on_c, 0, 66, 95
2, 218463, Note_on_c, 0, 73, 116
2, 218464, Note_on_c, 0, 59, 78
2, 218483, Note_on_c, 0, 66, 0
2, 218484, Note_on_c, 0, 73, 0
2, 218487, Note_on_c, 0, 59, 0
2, 218493, Note_on_c, 0, 83, 0
2, 218523, Note_on_c, 0, 83, 104
2, 218526, Note_on_c, 0, 75, 113
2, 218556, Note_on_c, 0, 75, 0
2, 218557, Note_on_c, 0, 83, 0
2, 218607, Note_on_c, 0, 56, 100
2, 218612, Note_on_c, 0, 64, 97
2, 218613, Note_on_c, 0, 52, 78
2, 218615, Note_on_c, 0, 83, 113
2, 218617, Note_on_c, 0, 76, 113
2, 218639, Note_on_c, 0, 52, 0
2, 218647, Note_on_c, 0, 64, 0
2, 218652, Note_on_c, 0, 76, 0
2, 218654, Note_on_c, 0, 56, 0
2, 218681, Note_on_c, 0, 78, 103
2, 218756, Note_on_c, 0, 80, 100
2, 218769, Note_on_c, 0, 68, 98
2, 218771, Note_on_c, 0, 59, 77
2, 218784, Note_on_c, 0, 83, 0
2, 218788, Note_on_c, 0, 78, 0
2, 218802, Note_on_c, 0, 68, 0
2, 218803, Note_on_c, 0, 59, 0
2, 218825, Note_on_c, 0, 81, 99
2, 218849, Note_on_c, 0, 80, 0
2, 218867, Note_on_c, 0, 81, 0
2, 218906, Note_on_c, 0, 56, 88
2, 218909, Note_on_c, 0, 82, 113
2, 218909, Note_on_c, 0, 52, 64
2, 218911, Note_on_c, 0, 64, 85
2, 218943, Note_on_c, 0, 52, 0
2, 218943, Note_on_c, 0, 82, 0
2, 218947, Note_on_c, 0, 64, 0
2, 218951, Note_on_c, 0, 56, 0
2, 218977, Note_on_c, 0, 83, 97
2, 219008, Note_on_c, 0, 83, 0
2, 219058, Note_on_c, 0, 85, 123
2, 219059, Note_on_c, 0, 68, 103
2, 219061, Note_on_c, 0, 95, 107
2, 219063, Note_on_c, 0, 59, 73
2, 219087, Note_on_c, 0, 59, 0
2, 219087, Note_on_c, 0, 68, 0
2, 219087, Note_on_c, 0, 85, 0
2, 219093, Note_on_c, 0, 95, 0
2, 219126, Note_on_c, 0, 95, 91
2, 219132, Note_on_c, 0, 87, 106
2, 219161, Note_on_c, 0, 87, 0
2, 219161, Note_on_c, 0, 95, 0
2, 219201, Note_on_c, 0, 56, 90
2, 219203, Note_on_c, 0, 52, 74
2, 219204, Note_on_c, 0, 95, 109
2, 219206, Note_on_c, 0, 64, 92
2, 219208, Note_on_c, 0, 88, 107
2, 219232, Note_on_c, 0, 52, 0
2, 219243, Note_on_c, 0, 64, 0
2, 219245, Note_on_c, 0, 56, 0
2, 219249, Note_on_c, 0, 88, 0
2, 219273, Note_on_c, 0, 90, 108
2, 219317, Note_on_c, 0, 95, 0
2, 219322, Note_on_c, 0, 90, 0
2, 219354, Note_on_c, 0, 68, 99
2, 219355, Note_on_c, 0, 59, 81
2, 219357, Note_on_c, 0, 93, 107
2, 219357, Note_on_c, 0, 95, 99
2, 219372, Note_on_c, 0, 68, 0
2, 219384, Note_on_c, 0, 59, 0
2, 219410, Note_on_c, 0, 95, 0
2, 219418, Note_on_c, 0, 95, 99
2, 219418, Note_on_c, 0, 92, 110
2, 219445, Note_on_c, 0, 93, 0
2, 219466, Note_on_c, 0, 92, 0
2, 219466, Note_on_c, 0, 95, 0
2, 219509, Note_on_c, 0, 91, 116
2, 219512, Note_on_c, 0, 52, 94
2, 219512, Note_on_c, 0, 95, 111
2, 219522, Note_on_c, 0, 63, 114
2, 219524, Note_on_c, 0, 56, 42
2, 219525, Note_on_c, 0, 57, 97
2, 219541, Note_on_c, 0, 52, 0
2, 219546, Note_on_c, 0, 56, 0
2, 219569, Note_on_c, 0, 63, 0
2, 219583, Note_on_c, 0, 91, 0
2, 219586, Note_on_c, 0, 57, 0
2, 219587, Note_on_c, 0, 89, 84
2, 219611, Note_on_c, 0, 95, 0
2, 219619, Note_on_c, 0, 89, 0
2, 219667, Note_on_c, 0, 66, 112
2, 219670, Note_on_c, 0, 59, 94
2, 219674, Note_on_c, 0, 90, 115
2, 219674, Note_on_c, 0, 95, 112
2, 219700, Note_on_c, 0, 66, 0
2, 219709, Note_on_c, 0, 59, 0
2, 219726, Note_on_c, 0, 90, 0
2, 219738, Note_on_c, 0, 88, 94
2, 219771, Note_on_c, 0, 95, 0
2, 219778, Note_on_c, 0, 88, 0
2, 219816, Note_on_c, 0, 52, 80
2, 219820, Note_on_c, 0, 89, 113
2, 219821, Note_on_c, 0, 57, 88
2, 219823, Note_on_c, 0, 95, 102
2, 219824, Note_on_c, 0, 63, 100
2, 219850, Note_on_c, 0, 52, 0
2, 219852, Note_on_c, 0, 63, 0
2, 219875, Note_on_c, 0, 57, 0
2, 219890, Note_on_c, 0, 87, 100
2, 219893, Note_on_c, 0, 89, 0
2, 219919, Note_on_c, 0, 95, 0
2, 219929, Note_on_c, 0, 87, 0
2, 219971, Note_on_c, 0, 66, 106
2, 219972, Note_on_c, 0, 88, 103
2, 219976, Note_on_c, 0, 95, 90
2, 219976, Note_on_c, 0, 59, 81
2, 220001, Note_on_c, 0, 66, 0
2, 220024, Note_on_c, 0, 59, 0
2, 220034, Note_on_c, 0, 88, 0
2, 220039, Note_on_c, 0, 85, 99
2, 220074, Note_on_c, 0, 95, 0
2, 220083, Note_on_c, 0, 85, 0
2, 220131, Note_on_c, 0, 56, 107
2, 220132, Note_on_c, 0, 95, 104
2, 220134, Note_on_c, 0, 52, 98
2, 220135, Note_on_c, 0, 64, 108
2, 220140, Note_on_c, 0, 83, 101
2, 220159, Note_on_c, 0, 83, 0
2, 220162, Note_on_c, 0, 95, 0
2, 220168, Note_on_c, 0, 64, 0
2, 220169, Note_on_c, 0, 52, 0
2, 220175, Note_on_c, 0, 56, 0
2, 220318, Note_on_c, 0, 76, 107
2, 220320, Note_on_c, 0, 68, 98
2, 220321, Note_on_c, 0, 59, 83
2, 220347, Note_on_c, 0, 68, 0
2, 220356, Note_on_c, 0, 59, 0
2, 220363, Note_on_c, 0, 76, 0
2, 220386, Note_on_c, 0, 78, 108
2, 220424, Note_on_c, 0, 78, 0
2, 220475, Note_on_c, 0, 56, 96
2, 220476, Note_on_c, 0, 52, 65
2, 220481, Note_on_c, 0, 64, 93
2, 220486, Note_on_c, 0, 83, 118
2, 220488, Note_on_c, 0, 79, 117
2, 220514, Note_on_c, 0, 52, 0
2, 220518, Note_on_c, 0, 64, 0
2, 220527, Note_on_c, 0, 56, 0
2, 220548, Note_on_c, 0, 79, 0
2, 220562, Note_on_c, 0, 80, 100
2, 220635, Note_on_c, 0, 81, 101
2, 220636, Note_on_c, 0, 68, 87
2, 220637, Note_on_c, 0, 59, 76
2, 220656, Note_on_c, 0, 80, 0
2, 220657, Note_on_c, 0, 68, 0
2, 220699, Note_on_c, 0, 80, 106
2, 220705, Note_on_c, 0, 59, 0
2, 220736, Note_on_c, 0, 81, 0
2, 220767, Note_on_c, 0, 80, 0
2, 220782, Note_on_c, 0, 52, 69
2, 220784, Note_on_c, 0, 57, 81
2, 220787, Note_on_c, 0, 63, 95
2, 220788, Note_on_c, 0, 77, 99
2, 220799, Note_on_c, 0, 83, 0
2, 220800, Note_on_c, 0, 83, 118
2, 220823, Note_on_c, 0, 52, 0
2, 220831, Note_on_c, 0, 77, 0
2, 220832, Note_on_c, 0, 63, 0
2, 220849, Note_on_c, 0, 57, 0
2, 220854, Note_on_c, 0, 78, 96
2, 220867, Note_on_c, 0, 83, 0
2, 220891, Note_on_c, 0, 78, 0
2, 220949, Note_on_c, 0, 66, 94
2, 220952, Note_on_c, 0, 73, 120
2, 220952, Note_on_c, 0, 83, 103
2, 220961, Note_on_c, 0, 59, 60
2, 220976, Note_on_c, 0, 66, 0
2, 220979, Note_on_c, 0, 73, 0
2, 220981, Note_on_c, 0, 83, 0
2, 220985, Note_on_c, 0, 59, 0
2, 221015, Note_on_c, 0, 83, 109
2, 221019, Note_on_c, 0, 75, 107
2, 221051, Note_on_c, 0, 83, 0
2, 221052, Note_on_c, 0, 75, 0
2, 221089, Note_on_c, 0, 52, 69
2, 221090, Note_on_c, 0, 56, 95
2, 221097, Note_on_c, 0, 64, 86
2, 221098, Note_on_c, 0, 83, 109
2, 221103, Note_on_c, 0, 76, 108
2, 221126, Note_on_c, 0, 64, 0
2, 221127, Note_on_c, 0, 52, 0
2, 221142, Note_on_c, 0, 76, 0
2, 221152, Note_on_c, 0, 56, 0
2, 221162, Note_on_c, 0, 78, 99
2, 221239, Note_on_c, 0, 80, 99
2, 221242, Note_on_c, 0, 68, 94
2, 221246, Note_on_c, 0, 59, 67
2, 221271, Note_on_c, 0, 83, 0
2, 221272, Note_on_c, 0, 78, 0
2, 221273, Note_on_c, 0, 68, 0
2, 221306, Note_on_c, 0, 59, 0
2, 221314, Note_on_c, 0, 81, 92
2, 221332, Note_on_c, 0, 80, 0
2, 221352, Note_on_c, 0, 81, 0
2, 221382, Note_on_c, 0, 52, 65
2, 221387, Note_on_c, 0, 56, 93
2, 221393, Note_on_c, 0, 64, 84
2, 221393, Note_on_c, 0, 82, 109
2, 221423, Note_on_c, 0, 52, 0
2, 221430, Note_on_c, 0, 82, 0
2, 221430, Note_on_c, 0, 64, 0
2, 221446, Note_on_c, 0, 56, 0
2, 221464, Note_on_c, 0, 83, 98
2, 221497, Note_on_c, 0, 83, 0
2, 221544, Note_on_c, 0, 68, 97
2, 221547, Note_on_c, 0, 85, 120
2, 221547, Note_on_c, 0, 59, 74
2, 221548, Note_on_c, 0, 95, 108
2, 221575, Note_on_c, 0, 85, 0
2, 221575, Note_on_c, 0, 68, 0
2, 221584, Note_on_c, 0, 95, 0
2, 221594, Note_on_c, 0, 59, 0
2, 221615, Note_on_c, 0, 95, 78
2, 221620, Note_on_c, 0, 87, 109
2, 221646, Note_on_c, 0, 95, 0
2, 221651, Note_on_c, 0, 87, 0
2, 221686, Note_on_c, 0, 52, 67
2, 221688, Note_on_c, 0, 56, 94
2, 221692, Note_on_c, 0, 95, 107
2, 221695, Note_on_c, 0, 88, 109
2, 221697, Note_on_c, 0, 64, 89
2, 221719, Note_on_c, 0, 52, 0
2, 221736, Note_on_c, 0, 64, 0
2, 221750, Note_on_c, 0, 88, 0
2, 221755, Note_on_c, 0, 56, 0
2, 221760, Note_on_c, 0, 90, 104
2, 221792, Note_on_c, 0, 95, 0
2, 221805, Note_on_c, 0, 90, 0
2, 221837, Note_on_c, 0, 68, 97
2, 221838, Note_on_c, 0, 59, 75
2, 221843, Note_on_c, 0, 93, 104
2, 221844, Note_on_c, 0, 95, 97
2, 221853, Note_on_c, 0, 68, 0
2, 221866, Note_on_c, 0, 59, 0
2, 221897, Note_on_c, 0, 92, 98
2, 221922, Note_on_c, 0, 93, 0
2, 221937, Note_on_c, 0, 95, 0
2, 221943, Note_on_c, 0, 92, 0
2, 221984, Note_on_c, 0, 54, 108
2, 221985, Note_on_c, 0, 95, 113
2, 221985, Note_on_c, 0, 59, 94
2, 221986, Note_on_c, 0, 47, 81
2, 221987, Note_on_c, 0, 92, 113
2, 221990, Note_on_c, 0, 90, 120
2, 222006, Note_on_c, 0, 47, 0
2, 222019, Note_on_c, 0, 54, 0
2, 222026, Note_on_c, 0, 92, 0
2, 222029, Note_on_c, 0, 59, 0
2, 222045, Note_on_c, 0, 89, 87
2, 222053, Note_on_c, 0, 91, 80
2, 222062, Note_on_c, 0, 90, 0
2, 222073, Note_on_c, 0, 91, 0
2, 222101, Note_on_c, 0, 89, 0
2, 222104, Note_on_c, 0, 95, 0
2, 222137, Note_on_c, 0, 90, 120
2, 222138, Note_on_c, 0, 95, 101
2, 222138, Note_on_c, 0, 63, 103
2, 222140, Note_on_c, 0, 54, 100
2, 222176, Note_on_c, 0, 63, 0
2, 222176, Note_on_c, 0, 95, 0
2, 222180, Note_on_c, 0, 90, 0
2, 222195, Note_on_c, 0, 54, 0
2, 222197, Note_on_c, 0, 95, 106
2, 222198, Note_on_c, 0, 92, 118
2, 222236, Note_on_c, 0, 95, 0
2, 222246, Note_on_c, 0, 92, 0
2, 222291, Note_on_c, 0, 52, 89
2, 222298, Note_on_c, 0, 56, 109
2, 222300, Note_on_c, 0, 64, 121
2, 222300, Note_on_c, 0, 100, 108
2, 222305, Note_on_c, 0, 88, 92
2, 222321, Note_on_c, 0, 88, 0
2, 222328, Note_on_c, 0, 100, 0
2, 222518, Note_on_c, 0, 64, 0
2, 222523, Note_on_c, 0, 56, 0
2, 222546, Note_on_c, 0, 52, 0
2, 230602, Note_on_c, 0, 44, 63
2, 230608, Note_on_c, 0, 56, 76
2, 230651, Note_on_c, 0, 56, 0
2, 230661, Note_on_c, 0, 44, 0
2, 230661, Note_on_c, 0, 60, 63
2, 230667, Note_on_c, 0, 48, 67
2, 230713, Note_on_c, 0, 61, 72
2, 230717, Note_on_c, 0, 60, 0
2, 230723, Note_on_c, 0, 49, 63
2, 230731, Note_on_c, 0, 48, 0
2, 230771, Note_on_c, 0, 63, 69
2, 230775, Note_on_c, 0, 61, 0
2, 230780, Note_on_c, 0, 51, 65
2, 230782, Note_on_c, 0, 49, 0
2, 230816, Note_on_c, 0, 63, 0
2, 230823, Note_on_c, 0, 51, 0
2, 230826, Note_on_c, 0, 64, 63
2, 230828, Note_on_c, 0, 52, 56
2, 230876, Note_on_c, 0, 52, 0
2, 230876, Note_on_c, 0, 64, 0
2, 230878, Note_on_c, 0, 54, 66
2, 230884, Note_on_c, 0, 66, 71
2, 230926, Note_on_c, 0, 68, 65
2, 230929, Note_on_c, 0, 56, 61
2, 230934, Note_on_c, 0, 54, 0
2, 230940, Note_on_c, 0, 66, 0
2, 230980, Note_on_c, 0, 57, 66
2, 230983, Note_on_c, 0, 69, 64
2, 230984, Note_on_c, 0, 56, 0
2, 230985, Note_on_c, 0, 68, 0
2, 231026, Note_on_c, 0, 69, 0
2, 231029, Note_on_c, 0, 57, 0
2, 231036, Note_on_c, 0, 54, 63
2, 231037, Note_on_c, 0, 66, 69
2, 231079, Note_on_c, 0, 54, 0
2, 231084, Note_on_c, 0, 66, 0
2, 231098, Note_on_c, 0, 64, 64
2, 231101, Note_on_c, 0, 52, 65
2, 231146, Note_on_c, 0, 52, 0
2, 231154, Note_on_c, 0, 61, 77
2, 231158, Note_on_c, 0, 49, 73
2, 231161, Note_on_c, 0, 64, 0
2, 231213, Note_on_c, 0, 63, 79
2, 231214, Note_on_c, 0, 51, 65
2, 231218, Note_on_c, 0, 61, 0
2, 231221, Note_on_c, 0, 49, 0
2, 231257, Note_on_c, 0, 63, 0
2, 231263, Note_on_c, 0, 64, 69
2, 231267, Note_on_c, 0, 51, 0
2, 231271, Note_on_c, 0, 52, 67
2, 231310, Note_on_c, 0, 64, 0
2, 231314, Note_on_c, 0, 66, 77
2, 231324, Note_on_c, 0, 54, 68
2, 231329, Note_on_c, 0, 52, 0
2, 231365, Note_on_c, 0, 68, 82
2, 231368, Note_on_c, 0, 56, 67
2, 231374, Note_on_c, 0, 66, 0
2, 231380, Note_on_c, 0, 54, 0
2, 231418, Note_on_c, 0, 70, 76
2, 231422, Note_on_c, 0, 58, 69
2, 231433, Note_on_c, 0, 68, 0
2, 231436, Note_on_c, 0, 56, 0
2, 231463, Note_on_c, 0, 70, 0
2, 231468, Note_on_c, 0, 60, 66
2, 231471, Note_on_c, 0, 72, 67
2, 231474, Note_on_c, 0, 58, 0
2, 231522, Note_on_c, 0, 72, 0
2, 231522, Note_on_c, 0, 61, 79
2, 231526, Note_on_c, 0, 60, 0
2, 231530, Note_on_c, 0, 73, 75
2, 231572, Note_on_c, 0, 75, 74
2, 231575, Note_on_c, 0, 63, 67
2, 231582, Note_on_c, 0, 61, 0
2, 231589, Note_on_c, 0, 73, 0
2, 231620, Note_on_c, 0, 64, 61
2, 231620, Note_on_c, 0, 76, 75
2, 231630, Note_on_c, 0, 63, 0
2, 231637, Note_on_c, 0, 75, 0
2, 231668, Note_on_c, 0, 61, 81
2, 231670, Note_on_c, 0, 64, 0
2, 231679, Note_on_c, 0, 73, 85
2, 231688, Note_on_c, 0, 76, 0
2, 231711, Note_on_c, 0, 61, 0
2, 231724, Note_on_c, 0, 60, 81
2, 231726, Note_on_c, 0, 73, 0
2, 231726, Note_on_c, 0, 72, 76
2, 231753, Note_on_c, 0, 72, 0
2, 231770, Note_on_c, 0, 60, 0
2, 231784, Note_on_c, 0, 55, 71
2, 231785, Note_on_c, 0, 67, 74
2, 231828, Note_on_c, 0, 67, 0
2, 231836, Note_on_c, 0, 68, 78
2, 231838, Note_on_c, 0, 56, 74
2, 231848, Note_on_c, 0, 55, 0
2, 231885, Note_on_c, 0, 70, 80
2, 231887, Note_on_c, 0, 58, 69
2, 231897, Note_on_c, 0, 68, 0
2, 231907, Note_on_c, 0, 56, 0
2, 231928, Note_on_c, 0, 70, 0
2, 231933, Note_on_c, 0, 60, 70
2, 231936, Note_on_c, 0, 58, 0
2, 231937, Note_on_c, 0, 72, 79
2, 231984, Note_on_c, 0, 61, 83
2, 231985, Note_on_c, 0, 72, 0
2, 231988, Note_on_c, 0, 73, 80
2, 231994, Note_on_c, 0, 60, 0
2, 232036, Note_on_c, 0, 75, 81
2, 232041, Note_on_c, 0, 63, 78
2, 232047, Note_on_c, 0, 73, 0
2, 232054, Note_on_c, 0, 61, 0
2, 232080, Note_on_c, 0, 75, 0
2, 232086, Note_on_c, 0, 76, 77
2, 232089, Note_on_c, 0, 64, 64
2, 232091, Note_on_c, 0, 63, 0
2, 232133, Note_on_c, 0, 66, 81
2, 232135, Note_on_c, 0, 76, 0
2, 232136, Note_on_c, 0, 64, 0
2, 232138, Note_on_c, 0, 78, 82
2, 232182, Note_on_c, 0, 80, 81
2, 232185, Note_on_c, 0, 68, 70
2, 232192, Note_on_c, 0, 78, 0
2, 232192, Note_on_c, 0, 66, 0
2, 232230, Note_on_c, 0, 69, 77
2, 232235, Note_on_c, 0, 81, 77
2, 232238, Note_on_c, 0, 68, 0
2, 232244, Note_on_c, 0, 80, 0
2, 232282, Note_on_c, 0, 69, 0
2, 232284, Note_on_c, 0, 66, 81
2, 232290, Note_on_c, 0, 81, 0
2, 232290, Note_on_c, 0, 78, 78
2, 232329, Note_on_c, 0, 66, 0
2, 232332, Note_on_c, 0, 78, 0
2, 232340, Note_on_c, 0, 64, 71
2, 232341, Note_on_c, 0, 76, 65
2, 232384, Note_on_c, 0, 64, 0
2, 232392, Note_on_c, 0, 73, 61
2, 232397, Note_on_c, 0, 76, 0
2, 232397, Note_on_c, 0, 61, 68
2, 232443, Note_on_c, 0, 75, 61
2, 232447, Note_on_c, 0, 63, 73
2, 232454, Note_on_c, 0, 61, 0
2, 232455, Note_on_c, 0, 73, 0
2, 232494, Note_on_c, 0, 75, 0
2, 232494, Note_on_c, 0, 76, 75
2, 232497, Note_on_c, 0, 63, 0
2, 232499, Note_on_c, 0, 64, 61
2, 232542, Note_on_c, 0, 78, 63
2, 232545, Note_on_c, 0, 76, 0
2, 232555, Note_on_c, 0, 66, 66
2, 232564, Note_on_c, 0, 64, 0
2, 232593, Note_on_c, 0, 80, 68
2, 232596, Note_on_c, 0, 68, 69
2, 232604, Note_on_c, 0, 78, 0
2, 232610, Note_on_c, 0, 66, 0
2, 232643, Note_on_c, 0, 70, 62
2, 232647, Note_on_c, 0, 82, 64
2, 232660, Note_on_c, 0, 68, 0
2, 232664, Note_on_c, 0, 80, 0
2, 232686, Note_on_c, 0, 82, 0
2, 232692, Note_on_c, 0, 72, 70
2, 232697, Note_on_c, 0, 70, 0
2, 232701, Note_on_c, 0, 84, 68
2, 232747, Note_on_c, 0, 84, 0
2, 232747, Note_on_c, 0, 72, 0
2, 232748, Note_on_c, 0, 73, 60
2, 232749, Note_on_c, 0, 85, 65
2, 232795, Note_on_c, 0, 87, 65
2, 232796, Note_on_c, 0, 75, 55
2, 232803, Note_on_c, 0, 85, 0
2, 232811, Note_on_c, 0, 73, 0
2, 232846, Note_on_c, 0, 75, 0
2, 232847, Note_on_c, 0, 76, 49
2, 232851, Note_on_c, 0, 88, 59
2, 232856, Note_on_c, 0, 87, 0
2, 232892, Note_on_c, 0, 76, 0
2, 232893, Note_on_c, 0, 73, 53
2, 232904, Note_on_c, 0, 88, 0
2, 232911, Note_on_c, 0, 85, 47
2, 232939, Note_on_c, 0, 73, 0
2, 232945, Control_c, 0, 64, 63
2, 232946, Control_c, 0, 64, 127
2, 232950, Note_on_c, 0, 85, 0
2, 232960, Note_on_c, 0, 84, 46
2, 232964, Note_on_c, 0, 68, 44
2, 233003, Note_on_c, 0, 68, 0
2, 233009, Note_on_c, 0, 84, 0
2, 233021, Note_on_c, 0, 92, 62
2, 233075, Note_on_c, 0, 92, 0
2, 233082, Note_on_c, 0, 93, 68
2, 233128, Note_on_c, 0, 92, 75
2, 233136, Note_on_c, 0, 93, 0
2, 233186, Note_on_c, 0, 92, 0
2, 233187, Note_on_c, 0, 87, 77
2, 233228, Note_on_c, 0, 87, 0
2, 233230, Note_on_c, 0, 84, 66
2, 233273, Note_on_c, 0, 84, 0
2, 233278, Note_on_c, 0, 81, 73
2, 233287, Control_c, 0, 64, 63
2, 233294, Control_c, 0, 64, 127
2, 233334, Note_on_c, 0, 90, 80
2, 233373, Note_on_c, 0, 81, 0
2, 233381, Note_on_c, 0, 90, 0
2, 233386, Note_on_c, 0, 92, 78
2, 233441, Note_on_c, 0, 90, 88
2, 233443, Note_on_c, 0, 92, 0
2, 233455, Note_on_c, 0, 68, 66
2, 233494, Note_on_c, 0, 85, 85
2, 233499, Note_on_c, 0, 90, 0
2, 233540, Note_on_c, 0, 81, 71
2, 233545, Note_on_c, 0, 85, 0
2, 233592, Note_on_c, 0, 68, 0
2, 233597, Note_on_c, 0, 80, 84
2, 233599, Note_on_c, 0, 81, 0
2, 233645, Note_on_c, 0, 88, 78
2, 233684, Note_on_c, 0, 80, 0
2, 233694, Note_on_c, 0, 90, 72
2, 233701, Note_on_c, 0, 88, 0
2, 233743, Note_on_c, 0, 88, 78
2, 233753, Note_on_c, 0, 90, 0
2, 233768, Note_on_c, 0, 68, 69
2, 233795, Note_on_c, 0, 83, 75
2, 233804, Note_on_c, 0, 88, 0
2, 233851, Note_on_c, 0, 80, 71
2, 233858, Note_on_c, 0, 83, 0
2, 233894, Control_c, 0, 64, 63
2, 233903, Note_on_c, 0, 80, 0
2, 233903, Note_on_c, 0, 78, 74
2, 233924, Note_on_c, 0, 68, 0
2, 233924, Control_c, 0, 64, 127
2, 233954, Note_on_c, 0, 87, 75
2, 233994, Note_on_c, 0, 78, 0
2, 234000, Note_on_c, 0, 87, 0
2, 234008, Note_on_c, 0, 88, 67
2, 234051, Note_on_c, 0, 87, 78
2, 234061, Note_on_c, 0, 88, 0
2, 234077, Note_on_c, 0, 68, 71
2, 234110, Note_on_c, 0, 81, 73
2, 234116, Note_on_c, 0, 87, 0
2, 234136, Note_on_c, 0, 68, 0
2, 234158, Note_on_c, 0, 81, 0
2, 234159, Note_on_c, 0, 78, 77
2, 234203, Note_on_c, 0, 78, 0
2, 234207, Note_on_c, 0, 76, 91
2, 234213, Control_c, 0, 64, 63
2, 234235, Control_c, 0, 64, 127
2, 234264, Note_on_c, 0, 85, 83
2, 234277, Note_on_c, 0, 76, 0
2, 234308, Note_on_c, 0, 85, 0
2, 234308, Note_on_c, 0, 87, 81
2, 234361, Note_on_c, 0, 85, 84
2, 234364, Note_on_c, 0, 87, 0
2, 234377, Note_on_c, 0, 68, 64
2, 234408, Note_on_c, 0, 68, 0
2, 234415, Note_on_c, 0, 80, 84
2, 234423, Note_on_c, 0, 85, 0
2, 234462, Note_on_c, 0, 76, 71
2, 234466, Note_on_c, 0, 80, 0
2, 234503, Control_c, 0, 64, 63
2, 234513, Note_on_c, 0, 75, 83
2, 234529, Control_c, 0, 64, 127
2, 234533, Note_on_c, 0, 76, 0
2, 234559, Note_on_c, 0, 83, 83
2, 234565, Note_on_c, 0, 75, 0
2, 234619, Note_on_c, 0, 85, 78
2, 234620, Note_on_c, 0, 83, 0
2, 234669, Note_on_c, 0, 83, 76
2, 234674, Note_on_c, 0, 85, 0
2, 234677, Note_on_c, 0, 68, 73
2, 234713, Note_on_c, 0, 68, 0
2, 234720, Note_on_c, 0, 78, 75
2, 234731, Note_on_c, 0, 83, 0
2, 234749, Control_c, 0, 64, 63
2, 234756, Note_on_c, 0, 75, 76
2, 234757, Control_c, 0, 64, 0
2, 234761, Note_on_c, 0, 78, 0
2, 234814, Note_on_c, 0, 75, 0
2, 234836, Note_on_c, 0, 73, 70
2, 234864, Control_c, 0, 64, 63
2, 234866, Control_c, 0, 64, 127
2, 234888, Note_on_c, 0, 76, 54
2, 234901, Note_on_c, 0, 73, 0
2, 234948, Note_on_c, 0, 76, 0
2, 234953, Note_on_c, 0, 81, 64
2, 235008, Note_on_c, 0, 81, 0
2, 235010, Note_on_c, 0, 85, 71
2, 235014, Note_on_c, 0, 56, 65
2, 235035, Note_on_c, 0, 85, 0
2, 235070, Note_on_c, 0, 88, 71
2, 235105, Note_on_c, 0, 88, 0
2, 235113, Note_on_c, 0, 93, 87
2, 235147, Note_on_c, 0, 56, 0
2, 235159, Note_on_c, 0, 93, 0
2, 235169, Note_on_c, 0, 97, 97
2, 235217, Note_on_c, 0, 97, 0
2, 235224, Note_on_c, 0, 93, 91
2, 235256, Note_on_c, 0, 93, 0
2, 235272, Note_on_c, 0, 88, 76
2, 235299, Note_on_c, 0, 88, 0
2, 235318, Note_on_c, 0, 73, 72
2, 235332, Note_on_c, 0, 85, 68
2, 235354, Note_on_c, 0, 73, 0
2, 235371, Note_on_c, 0, 85, 0
2, 235376, Note_on_c, 0, 81, 64
2, 235409, Note_on_c, 0, 81, 0
2, 235422, Note_on_c, 0, 76, 71
2, 235457, Note_on_c, 0, 76, 0
2, 235475, Control_c, 0, 64, 63
2, 235479, Control_c, 0, 64, 0
2, 235482, Note_on_c, 0, 75, 66
2, 235484, Note_on_c, 0, 72, 70
2, 235516, Control_c, 0, 64, 63
2, 235527, Control_c, 0, 64, 127
2, 235533, Note_on_c, 0, 72, 0
2, 235615, Note_on_c, 0, 75, 0
2, 235639, Note_on_c, 0, 56, 66
2, 235686, Note_on_c, 0, 56, 0
2, 235783, Control_c, 0, 64, 63
2, 235792, Note_on_c, 0, 69, 57
2, 235801, Note_on_c, 0, 73, 85
2, 235802, Control_c, 0, 64, 127
2, 235848, Note_on_c, 0, 73, 0
2, 235852, Note_on_c, 0, 78, 87
2, 235888, Note_on_c, 0, 69, 0
2, 235898, Note_on_c, 0, 78, 0
2, 235900, Note_on_c, 0, 80, 75
2, 235951, Note_on_c, 0, 78, 74
2, 235951, Note_on_c, 0, 56, 58
2, 235955, Note_on_c, 0, 80, 0
2, 236004, Note_on_c, 0, 78, 0
2, 236005, Note_on_c, 0, 73, 60
2, 236019, Note_on_c, 0, 56, 0
2, 236047, Note_on_c, 0, 73, 0
2, 236055, Note_on_c, 0, 69, 57
2, 236100, Control_c, 0, 64, 63
2, 236105, Note_on_c, 0, 69, 0
2, 236106, Note_on_c, 0, 71, 82
2, 236113, Note_on_c, 0, 68, 72
2, 236121, Control_c, 0, 64, 127
2, 236152, Note_on_c, 0, 68, 0
2, 236153, Note_on_c, 0, 71, 0
2, 236157, Note_on_c, 0, 76, 75
2, 236206, Note_on_c, 0, 78, 85
2, 236211, Note_on_c, 0, 76, 0
2, 236257, Note_on_c, 0, 76, 68
2, 236260, Note_on_c, 0, 56, 59
2, 236263, Note_on_c, 0, 78, 0
2, 236304, Note_on_c, 0, 56, 0
2, 236305, Note_on_c, 0, 76, 0
2, 236306, Note_on_c, 0, 71, 78
2, 236340, Note_on_c, 0, 71, 0
2, 236348, Note_on_c, 0, 68, 68
2, 236390, Note_on_c, 0, 68, 0
2, 236395, Control_c, 0, 64, 63
2, 236406, Note_on_c, 0, 66, 75
2, 236406, Note_on_c, 0, 69, 80
2, 236446, Note_on_c, 0, 66, 0
2, 236447, Control_c, 0, 64, 127
2, 236457, Note_on_c, 0, 69, 0
2, 236462, Note_on_c, 0, 75, 72
2, 236510, Note_on_c, 0, 75, 0
2, 236517, Note_on_c, 0, 76, 59
2, 236562, Note_on_c, 0, 75, 73
2, 236569, Note_on_c, 0, 56, 56
2, 236576, Note_on_c, 0, 76, 0
2, 236615, Note_on_c, 0, 75, 0
2, 236618, Note_on_c, 0, 69, 71
2, 236620, Note_on_c, 0, 56, 0
2, 236655, Note_on_c, 0, 69, 0
2, 236660, Note_on_c, 0, 66, 81
2, 236697, Control_c, 0, 64, 63
2, 236704, Note_on_c, 0, 66, 0
2, 236716, Note_on_c, 0, 68, 87
2, 236725, Note_on_c, 0, 64, 57
2, 236749, Control_c, 0, 64, 127
2, 236774, Note_on_c, 0, 64, 0
2, 236774, Note_on_c, 0, 68, 0
2, 236775, Note_on_c, 0, 73, 67
2, 236817, Note_on_c, 0, 75, 78
2, 236820, Note_on_c, 0, 73, 0
2, 236873, Note_on_c, 0, 75, 0
2, 236876, Note_on_c, 0, 73, 64
2, 236880, Note_on_c, 0, 56, 63
2, 236902, Note_on_c, 0, 56, 0
2, 236920, Note_on_c, 0, 68, 63
2, 236923, Note_on_c, 0, 73, 0
2, 236962, Note_on_c, 0, 68, 0
2, 236970, Note_on_c, 0, 64, 57
2, 237001, Control_c, 0, 64, 63
2, 237016, Note_on_c, 0, 64, 0
2, 237019, Note_on_c, 0, 66, 90
2, 237025, Note_on_c, 0, 63, 75
2, 237053, Control_c, 0, 64, 127
2, 237060, Note_on_c, 0, 63, 0
2, 237068, Note_on_c, 0, 66, 0
2, 237073, Note_on_c, 0, 71, 76
2, 237127, Note_on_c, 0, 73, 81
2, 237128, Note_on_c, 0, 71, 0
2, 237163, Note_on_c, 0, 56, 61
2, 237175, Note_on_c, 0, 73, 0
2, 237178, Note_on_c, 0, 71, 74
2, 237202, Note_on_c, 0, 56, 0
2, 237234, Note_on_c, 0, 66, 68
2, 237235, Note_on_c, 0, 71, 0
2, 237255, Control_c, 0, 64, 63
2, 237261, Control_c, 0, 64, 0
2, 237273, Note_on_c, 0, 66, 0
2, 237279, Note_on_c, 0, 63, 68
2, 237324, Note_on_c, 0, 61, 63
2, 237334, Control_c, 0, 64, 63
2, 237339, Control_c, 0, 64, 127
2, 237340, Note_on_c, 0, 63, 0
2, 237365, Note_on_c, 0, 61, 0
2, 237384, Note_on_c, 0, 64, 64
2, 237436, Note_on_c, 0, 64, 0
2, 237438, Note_on_c, 0, 69, 54
2, 237486, Note_on_c, 0, 69, 0
2, 237486, Note_on_c, 0, 73, 70
2, 237495, Note_on_c, 0, 44, 83
2, 237519, Note_on_c, 0, 73, 0
2, 237551, Note_on_c, 0, 76, 73
2, 237590, Note_on_c, 0, 76, 0
2, 237596, Note_on_c, 0, 81, 88
2, 237645, Note_on_c, 0, 81, 0
2, 237645, Note_on_c, 0, 85, 96
2, 237661, Note_on_c, 0, 44, 0
2, 237698, Note_on_c, 0, 81, 87
2, 237700, Note_on_c, 0, 85, 0
2, 237730, Note_on_c, 0, 81, 0
2, 237747, Note_on_c, 0, 76, 77
2, 237770, Note_on_c, 0, 76, 0
2, 237789, Note_on_c, 0, 61, 67
2, 237808, Note_on_c, 0, 73, 64
2, 237821, Note_on_c, 0, 61, 0
2, 237848, Note_on_c, 0, 73, 0
2, 237850, Note_on_c, 0, 69, 57
2, 237883, Note_on_c, 0, 69, 0
2, 237898, Note_on_c, 0, 64, 55
2, 237929, Control_c, 0, 64, 63
2, 237930, Note_on_c, 0, 64, 0
2, 237935, Control_c, 0, 64, 0
2, 237958, Note_on_c, 0, 60, 74
2, 237959, Note_on_c, 0, 69, 72
2, 237967, Control_c, 0, 64, 63
2, 237978, Control_c, 0, 64, 127
2, 238030, Note_on_c, 0, 63, 82
2, 238037, Note_on_c, 0, 60, 0
2, 238058, Note_on_c, 0, 69, 0
2, 238068, Note_on_c, 0, 63, 0
2, 238071, Note_on_c, 0, 68, 80
2, 238093, Control_c, 0, 64, 63
2, 238095, Control_c, 0, 64, 0
2, 238116, Note_on_c, 0, 68, 0
2, 238133, Note_on_c, 0, 64, 71
2, 238134, Note_on_c, 0, 61, 94
2, 238137, Control_c, 0, 64, 63
2, 238142, Control_c, 0, 64, 127
2, 238163, Note_on_c, 0, 61, 0
2, 238185, Note_on_c, 0, 69, 76
2, 238187, Note_on_c, 0, 64, 0
2, 238239, Note_on_c, 0, 73, 92
2, 238240, Note_on_c, 0, 69, 0
2, 238271, Note_on_c, 0, 73, 0
2, 238288, Note_on_c, 0, 44, 94
2, 238301, Note_on_c, 0, 76, 85
2, 238328, Note_on_c, 0, 44, 0
2, 238344, Note_on_c, 0, 76, 0
2, 238344, Note_on_c, 0, 81, 97
2, 238391, Note_on_c, 0, 85, 99
2, 238394, Note_on_c, 0, 81, 0
2, 238446, Note_on_c, 0, 81, 89
2, 238449, Note_on_c, 0, 85, 0
2, 238450, Note_on_c, 0, 61, 101
2, 238480, Note_on_c, 0, 81, 0
2, 238482, Note_on_c, 0, 61, 0
2, 238492, Note_on_c, 0, 76, 79
2, 238525, Note_on_c, 0, 76, 0
2, 238558, Note_on_c, 0, 73, 92
2, 238579, Note_on_c, 0, 73, 0
2, 238599, Control_c, 0, 64, 63
2, 238604, Control_c, 0, 64, 0
2, 238612, Note_on_c, 0, 60, 111
2, 238613, Note_on_c, 0, 69, 102
2, 238624, Control_c, 0, 64, 63
2, 238632, Control_c, 0, 64, 127
2, 238643, Note_on_c, 0, 69, 0
2, 238653, Note_on_c, 0, 60, 0
2, 238671, Note_on_c, 0, 63, 95
2, 238718, Note_on_c, 0, 63, 0
2, 238719, Note_on_c, 0, 68, 69
2, 238719, Control_c, 0, 64, 63
2, 238722, Control_c, 0, 64, 0
2, 238742, Control_c, 0, 64, 63
2, 238749, Control_c, 0, 64, 127
2, 238766, Note_on_c, 0, 68, 0
2, 238771, Note_on_c, 0, 61, 106
2, 238775, Note_on_c, 0, 64, 82
2, 238802, Note_on_c, 0, 61, 0
2, 238826, Note_on_c, 0, 64, 0
2, 238826, Note_on_c, 0, 69, 88
2, 238875, Note_on_c, 0, 73, 103
2, 238880, Note_on_c, 0, 69, 0
2, 238907, Note_on_c, 0, 73, 0
2, 238918, Note_on_c, 0, 44, 107
2, 238938, Note_on_c, 0, 76, 79
2, 238966, Note_on_c, 0, 44, 0
2, 238979, Note_on_c, 0, 76, 0
2, 238980, Note_on_c, 0, 81, 99
2, 239024, Note_on_c, 0, 85, 105
2, 239032, Note_on_c, 0, 81, 0
2, 239074, Note_on_c, 0, 81, 99
2, 239078, Note_on_c, 0, 85, 0
2, 239091, Note_on_c, 0, 61, 109
2, 239110, Note_on_c, 0, 81, 0
2, 239124, Note_on_c, 0, 76, 77
2, 239130, Note_on_c, 0, 61, 0
2, 239150, Note_on_c, 0, 76, 0
2, 239178, Note_on_c, 0, 73, 105
2, 239210, Note_on_c, 0, 73, 0
2, 239233, Note_on_c, 0, 60, 112
2, 239236, Note_on_c, 0, 69, 96
2, 239241, Control_c, 0, 64, 63
2, 239249, Control_c, 0, 64, 127
2, 239267, Note_on_c, 0, 69, 0
2, 239276, Note_on_c, 0, 60, 0
2, 239291, Note_on_c, 0, 63, 100
2, 239327, Note_on_c, 0, 63, 0
2, 239333, Note_on_c, 0, 68, 99
2, 239336, Control_c, 0, 64, 63
2, 239339, Control_c, 0, 64, 0
2, 239376, Note_on_c, 0, 68, 0
2, 239396, Note_on_c, 0, 64, 100
2, 239396, Note_on_c, 0, 61, 120
2, 239399, Control_c, 0, 64, 63
2, 239400, Control_c, 0, 64, 127
2, 239423, Note_on_c, 0, 61, 0
2, 239443, Note_on_c, 0, 64, 0
2, 239452, Note_on_c, 0, 69, 94
2, 239503, Note_on_c, 0, 69, 0
2, 239507, Note_on_c, 0, 73, 103
2, 239536, Note_on_c, 0, 73, 0
2, 239552, Note_on_c, 0, 44, 112
2, 239567, Note_on_c, 0, 76, 104
2, 239580, Note_on_c, 0, 44, 0
2, 239602, Note_on_c, 0, 76, 0
2, 239615, Note_on_c, 0, 81, 106
2, 239664, Note_on_c, 0, 85, 109
2, 239668, Note_on_c, 0, 81, 0
2, 239693, Note_on_c, 0, 85, 0
2, 239702, Note_on_c, 0, 32, 118
2, 239721, Note_on_c, 0, 88, 106
2, 239765, Note_on_c, 0, 88, 0
2, 239768, Note_on_c, 0, 93, 113
2, 239823, Note_on_c, 0, 100, 118
2, 239832, Note_on_c, 0, 93, 0
2, 239888, Note_on_c, 0, 44, 125
2, 239893, Note_on_c, 0, 97, 106
2, 239907, Note_on_c, 0, 100, 0
2, 239968, Note_on_c, 0, 93, 103
2, 239972, Note_on_c, 0, 97, 0
2, 240011, Note_on_c, 0, 93, 0
2, 240014, Note_on_c, 0, 88, 100
2, 240040, Note_on_c, 0, 88, 0
2, 240075, Note_on_c, 0, 85, 110
2, 240120, Note_on_c, 0, 85, 0
2, 240124, Note_on_c, 0, 81, 102
2, 240156, Note_on_c, 0, 81, 0
2, 240175, Note_on_c, 0, 76, 89
2, 240201, Note_on_c, 0, 76, 0
2, 240230, Note_on_c, 0, 73, 112
2, 240279, Note_on_c, 0, 69, 104
2, 240282, Note_on_c, 0, 73, 0
2, 240315, Note_on_c, 0, 69, 0
2, 240333, Note_on_c, 0, 64, 90
2, 240361, Note_on_c, 0, 64, 0
2, 240391, Note_on_c, 0, 61, 116
2, 240441, Note_on_c, 0, 61, 0
2, 240443, Note_on_c, 0, 57, 102
2, 240444, Note_on_c, 0, 44, 0
2, 240449, Note_on_c, 0, 32, 0
2, 240477, Note_on_c, 0, 57, 0
2, 240504, Note_on_c, 0, 52, 100
2, 240530, Note_on_c, 0, 52, 0
2, 240585, Note_on_c, 0, 44, 113
2, 240586, Note_on_c, 0, 32, 98
2, 240589, Note_on_c, 0, 51, 125
2, 240594, Control_c, 0, 64, 127
2, 240675, Control_c, 0, 64, 63
2, 240676, Control_c, 0, 64, 0
2, 240690, Note_on_c, 0, 60, 96
2, 240698, Note_on_c, 0, 51, 0
2, 240751, Control_c, 0, 64, 63
2, 240752, Control_c, 0, 64, 127
2, 240759, Note_on_c, 0, 56, 98
2, 240770, Note_on_c, 0, 60, 0
2, 240819, Note_on_c, 0, 60, 97
2, 240824, Note_on_c, 0, 56, 0
2, 240843, Note_on_c, 0, 60, 0
2, 240879, Note_on_c, 0, 63, 100
2, 240910, Note_on_c, 0, 63, 0
2, 240928, Note_on_c, 0, 72, 86
2, 240982, Note_on_c, 0, 68, 104
2, 240986, Note_on_c, 0, 72, 0
2, 241008, Note_on_c, 0, 68, 0
2, 241039, Note_on_c, 0, 72, 108
2, 241079, Note_on_c, 0, 72, 0
2, 241088, Note_on_c, 0, 75, 115
2, 241118, Note_on_c, 0, 75, 0
2, 241143, Note_on_c, 0, 84, 101
2, 241195, Note_on_c, 0, 80, 101
2, 241204, Note_on_c, 0, 84, 0
2, 241216, Note_on_c, 0, 80, 0
2, 241250, Note_on_c, 0, 84, 106
2, 241286, Note_on_c, 0, 84, 0
2, 241308, Note_on_c, 0, 96, 114
2, 241358, Note_on_c, 0, 92, 108
2, 241365, Note_on_c, 0, 96, 0
2, 241407, Note_on_c, 0, 32, 0
2, 241413, Note_on_c, 0, 87, 110
2, 241419, Note_on_c, 0, 92, 0
2, 241425, Note_on_c, 0, 44, 0
2, 241448, Note_on_c, 0, 87, 0
2, 241459, Note_on_c, 0, 84, 88
2, 241484, Note_on_c, 0, 84, 0
2, 241515, Note_on_c, 0, 80, 99
2, 241560, Note_on_c, 0, 80, 0
2, 241567, Note_on_c, 0, 75, 104
2, 241603, Note_on_c, 0, 75, 0
2, 241614, Note_on_c, 0, 72, 84
2, 241646, Note_on_c, 0, 72, 0
2, 241674, Note_on_c, 0, 68, 99
2, 241715, Note_on_c, 0, 68, 0
2, 241727, Note_on_c, 0, 63, 103
2, 241756, Note_on_c, 0, 63, 0
2, 241769, Note_on_c, 0, 60, 90
2, 241798, Note_on_c, 0, 60, 0
2, 241825, Note_on_c, 0, 56, 99
2, 241867, Note_on_c, 0, 56, 0
2, 241875, Note_on_c, 0, 51, 107
2, 241918, Note_on_c, 0, 51, 0
2, 241926, Note_on_c, 0, 50, 108
2, 241927, Note_on_c, 0, 45, 117
2, 241929, Note_on_c, 0, 33, 112
2, 241953, Control_c, 0, 64, 63
2, 241958, Control_c, 0, 64, 0
2, 241982, Note_on_c, 0, 60, 100
2, 241989, Note_on_c, 0, 50, 0
2, 242011, Control_c, 0, 64, 63
2, 242016, Control_c, 0, 64, 127
2, 242036, Note_on_c, 0, 54, 104
2, 242050, Note_on_c, 0, 60, 0
2, 242091, Note_on_c, 0, 60, 98
2, 242094, Note_on_c, 0, 54, 0
2, 242123, Note_on_c, 0, 60, 0
2, 242150, Note_on_c, 0, 62, 97
2, 242190, Note_on_c, 0, 62, 0
2, 242201, Note_on_c, 0, 72, 94
2, 242249, Note_on_c, 0, 66, 104
2, 242255, Note_on_c, 0, 72, 0
2, 242289, Note_on_c, 0, 66, 0
2, 242304, Note_on_c, 0, 72, 101
2, 242332, Note_on_c, 0, 72, 0
2, 242360, Note_on_c, 0, 74, 99
2, 242393, Note_on_c, 0, 74, 0
2, 242406, Note_on_c, 0, 78, 107
2, 242438, Note_on_c, 0, 78, 0
2, 242454, Note_on_c, 0, 84, 98
2, 242479, Note_on_c, 0, 84, 0
2, 242502, Note_on_c, 0, 45, 0
2, 242502, Note_on_c, 0, 86, 91
2, 242539, Note_on_c, 0, 86, 0
2, 242547, Note_on_c, 0, 33, 0
2, 242550, Note_on_c, 0, 38, 124
2, 242555, Control_c, 0, 64, 63
2, 242559, Note_on_c, 0, 98, 114
2, 242560, Control_c, 0, 64, 0
2, 242593, Control_c, 0, 64, 63
2, 242599, Control_c, 0, 64, 127
2, 242607, Note_on_c, 0, 96, 100
2, 242626, Note_on_c, 0, 98, 0
2, 242661, Note_on_c, 0, 90, 110
2, 242670, Note_on_c, 0, 96, 0
2, 242703, Note_on_c, 0, 90, 0
2, 242711, Note_on_c, 0, 86, 90
2, 242739, Note_on_c, 0, 86, 0
2, 242766, Note_on_c, 0, 84, 91
2, 242814, Note_on_c, 0, 78, 112
2, 242815, Note_on_c, 0, 84, 0
2, 242853, Note_on_c, 0, 78, 0
2, 242862, Note_on_c, 0, 74, 94
2, 242893, Note_on_c, 0, 74, 0
2, 242915, Note_on_c, 0, 72, 98
2, 242962, Note_on_c, 0, 72, 0
2, 242968, Note_on_c, 0, 66, 115
2, 243004, Note_on_c, 0, 66, 0
2, 243016, Note_on_c, 0, 62, 92
2, 243043, Note_on_c, 0, 62, 0
2, 243071, Note_on_c, 0, 60, 88
2, 243125, Note_on_c, 0, 60, 0
2, 243132, Note_on_c, 0, 50, 104
2, 243162, Note_on_c, 0, 38, 0
2, 243172, Note_on_c, 0, 50, 0
2, 243181, Note_on_c, 0, 43, 111
2, 243183, Note_on_c, 0, 31, 106
2, 243184, Note_on_c, 0, 62, 99
2, 243184, Note_on_c, 0, 59, 97
2, 243200, Control_c, 0, 64, 127
2, 243216, Note_on_c, 0, 59, 0
2, 243224, Note_on_c, 0, 62, 0
2, 243263, Control_c, 0, 64, 63
2, 243266, Control_c, 0, 64, 0
2, 243368, Note_on_c, 0, 74, 104
2, 243374, Note_on_c, 0, 71, 91
2, 243432, Note_on_c, 0, 69, 89
2, 243456, Note_on_c, 0, 74, 0
2, 243458, Control_c, 0, 64, 127
2, 243474, Note_on_c, 0, 71, 0
2, 243483, Note_on_c, 0, 67, 85
2, 243501, Note_on_c, 0, 69, 0
2, 243528, Note_on_c, 0, 62, 86
2, 243538, Note_on_c, 0, 67, 0
2, 243569, Note_on_c, 0, 62, 0
2, 243581, Note_on_c, 0, 71, 96
2, 243611, Note_on_c, 0, 71, 0
2, 243631, Note_on_c, 0, 74, 101
2, 243664, Note_on_c, 0, 74, 0
2, 243672, Note_on_c, 0, 31, 0
2, 243692, Note_on_c, 0, 86, 104
2, 243693, Note_on_c, 0, 83, 97
2, 243748, Note_on_c, 0, 81, 93
2, 243771, Note_on_c, 0, 86, 0
2, 243797, Note_on_c, 0, 83, 0
2, 243797, Note_on_c, 0, 79, 99
2, 243819, Note_on_c, 0, 81, 0
2, 243831, Control_c, 0, 64, 63
2, 243836, Control_c, 0, 64, 0
2, 243853, Note_on_c, 0, 76, 117
2, 243858, Note_on_c, 0, 55, 109
2, 243871, Note_on_c, 0, 79, 0
2, 243880, Control_c, 0, 64, 63
2, 243882, Control_c, 0, 64, 127
2, 243925, Note_on_c, 0, 76, 0
2, 243998, Note_on_c, 0, 55, 0
2, 244028, Note_on_c, 0, 88, 111
2, 244031, Note_on_c, 0, 83, 106
2, 244074, Note_on_c, 0, 88, 0
2, 244090, Note_on_c, 0, 79, 101
2, 244102, Note_on_c, 0, 83, 0
2, 244130, Note_on_c, 0, 79, 0
2, 244132, Note_on_c, 0, 76, 97
2, 244161, Note_on_c, 0, 76, 0
2, 244198, Note_on_c, 0, 76, 108
2, 244203, Note_on_c, 0, 71, 108
2, 244233, Note_on_c, 0, 76, 0
2, 244261, Note_on_c, 0, 67, 104
2, 244271, Note_on_c, 0, 71, 0
2, 244300, Note_on_c, 0, 67, 0
2, 244300, Note_on_c, 0, 64, 100
2, 244330, Note_on_c, 0, 64, 0
2, 244362, Note_on_c, 0, 31, 116
2, 244365, Note_on_c, 0, 64, 111
2, 244368, Note_on_c, 0, 59, 109
2, 244413, Note_on_c, 0, 64, 0
2, 244424, Note_on_c, 0, 55, 106
2, 244442, Note_on_c, 0, 59, 0
2, 244466, Note_on_c, 0, 52, 109
2, 244479, Note_on_c, 0, 55, 0
2, 244503, Note_on_c, 0, 43, 0
2, 244507, Note_on_c, 0, 52, 0
2, 244524, Note_on_c, 0, 43, 116
2, 244525, Control_c, 0, 64, 63
2, 244525, Control_c, 0, 64, 127
2, 244526, Note_on_c, 0, 50, 118
2, 244531, Control_c, 0, 64, 63
2, 244539, Control_c, 0, 64, 0
2, 244554, Note_on_c, 0, 50, 0
2, 244568, Note_on_c, 0, 53, 90
2, 244608, Note_on_c, 0, 53, 0
2, 244619, Note_on_c, 0, 59, 104
2, 244639, Control_c, 0, 64, 63
2, 244641, Control_c, 0, 64, 0
2, 244655, Note_on_c, 0, 59, 0
2, 244683, Note_on_c, 0, 65, 100
2, 244685, Note_on_c, 0, 62, 98
2, 244703, Control_c, 0, 64, 63
2, 244704, Control_c, 0, 64, 127
2, 244730, Note_on_c, 0, 61, 107
2, 244745, Control_c, 0, 64, 63
2, 244749, Control_c, 0, 64, 0
2, 244750, Note_on_c, 0, 62, 0
2, 244777, Control_c, 0, 64, 63
2, 244779, Control_c, 0, 64, 127
2, 244785, Note_on_c, 0, 59, 91
2, 244786, Note_on_c, 0, 61, 0
2, 244788, Note_on_c, 0, 31, 0
2, 244810, Note_on_c, 0, 65, 0
2, 244835, Note_on_c, 0, 59, 0
2, 244847, Note_on_c, 0, 62, 103
2, 244874, Note_on_c, 0, 62, 0
2, 244904, Note_on_c, 0, 65, 94
2, 244943, Note_on_c, 0, 65, 0
2, 244954, Note_on_c, 0, 71, 92
2, 244981, Note_on_c, 0, 71, 0
2, 245009, Note_on_c, 0, 77, 112
2, 245009, Note_on_c, 0, 74, 111
2, 245056, Note_on_c, 0, 73, 109
2, 245073, Note_on_c, 0, 74, 0
2, 245104, Note_on_c, 0, 71, 98
2, 245120, Note_on_c, 0, 73, 0
2, 245135, Note_on_c, 0, 77, 0
2, 245150, Note_on_c, 0, 71, 0
2, 245171, Note_on_c, 0, 77, 116
2, 245172, Note_on_c, 0, 74, 116
2, 245175, Note_on_c, 0, 55, 126
2, 245197, Note_on_c, 0, 74, 0
2, 245204, Note_on_c, 0, 77, 0
2, 245328, Note_on_c, 0, 55, 0
2, 245334, Note_on_c, 0, 89, 117
2, 245335, Note_on_c, 0, 86, 121
2, 245389, Note_on_c, 0, 83, 103
2, 245397, Note_on_c, 0, 89, 0
2, 245409, Note_on_c, 0, 86, 0
2, 245431, Note_on_c, 0, 83, 0
2, 245432, Note_on_c, 0, 77, 97
2, 245462, Note_on_c, 0, 77, 0
2, 245501, Note_on_c, 0, 74, 109
2, 245501, Note_on_c, 0, 77, 113
2, 245555, Note_on_c, 0, 71, 107
2, 245564, Note_on_c, 0, 77, 0
2, 245573, Note_on_c, 0, 74, 0
2, 245599, Note_on_c, 0, 71, 0
2, 245599, Note_on_c, 0, 65, 94
2, 245631, Note_on_c, 0, 65, 0
2, 245667, Note_on_c, 0, 31, 124
2, 245669, Note_on_c, 0, 62, 122
2, 245670, Note_on_c, 0, 65, 113
2, 245698, Note_on_c, 0, 43, 0
2, 245722, Note_on_c, 0, 59, 111
2, 245728, Note_on_c, 0, 31, 0
2, 245745, Note_on_c, 0, 62, 0
2, 245755, Note_on_c, 0, 65, 0
2, 245768, Note_on_c, 0, 59, 0
2, 245775, Note_on_c, 0, 53, 88
2, 245805, Note_on_c, 0, 53, 0
2, 245848, Control_c, 0, 64, 63
2, 245854, Control_c, 0, 64, 0
2, 245867, Note_on_c, 0, 42, 127
2, 245868, Note_on_c, 0, 30, 121
2, 245870, Note_on_c, 0, 58, 118
2, 245871, Note_on_c, 0, 66, 120
2, 245905, Control_c, 0, 64, 127
2, 245944, Note_on_c, 0, 58, 0
2, 245955, Note_on_c, 0, 66, 0
2, 246020, Control_c, 0, 64, 63
2, 246022, Control_c, 0, 64, 0
2, 246087, Note_on_c, 0, 70, 119
2, 246096, Control_c, 0, 64, 127
2, 246175, Note_on_c, 0, 70, 0
2, 246177, Note_on_c, 0, 61, 107
2, 246236, Note_on_c, 0, 66, 108
2, 246237, Note_on_c, 0, 61, 0
2, 246288, Note_on_c, 0, 66, 0
2, 246288, Note_on_c, 0, 70, 105
2, 246309, Note_on_c, 0, 70, 0
2, 246347, Note_on_c, 0, 82, 109
2, 246402, Note_on_c, 0, 82, 0
2, 246402, Note_on_c, 0, 73, 101
2, 246450, Note_on_c, 0, 78, 106
2, 246459, Note_on_c, 0, 73, 0
2, 246498, Note_on_c, 0, 82, 106
2, 246502, Note_on_c, 0, 78, 0
2, 246525, Note_on_c, 0, 82, 0
2, 246526, Note_on_c, 0, 30, 0
2, 246549, Note_on_c, 0, 85, 103
2, 246563, Note_on_c, 0, 42, 0
2, 246606, Note_on_c, 0, 85, 0
2, 246638, Note_on_c, 0, 94, 121
2, 246697, Note_on_c, 0, 90, 98
2, 246704, Note_on_c, 0, 94, 0
2, 246744, Note_on_c, 0, 90, 0
2, 246745, Note_on_c, 0, 85, 98
2, 246769, Note_on_c, 0, 85, 0
2, 246804, Note_on_c, 0, 82, 112
2, 246856, Note_on_c, 0, 82, 0
2, 246856, Note_on_c, 0, 78, 101
2, 246902, Note_on_c, 0, 78, 0
2, 246905, Note_on_c, 0, 73, 97
2, 246930, Note_on_c, 0, 73, 0
2, 246964, Note_on_c, 0, 70, 105
2, 247013, Note_on_c, 0, 70, 0
2, 247018, Note_on_c, 0, 66, 108
2, 247060, Note_on_c, 0, 66, 0
2, 247066, Note_on_c, 0, 61, 99
2, 247090, Note_on_c, 0, 61, 0
2, 247128, Note_on_c, 0, 58, 113
2, 247167, Note_on_c, 0, 58, 0
2, 247178, Note_on_c, 0, 54, 108
2, 247215, Note_on_c, 0, 54, 0
2, 247229, Note_on_c, 0, 49, 108
2, 247257, Note_on_c, 0, 49, 0
2, 247280, Note_on_c, 0, 43, 122
2, 247282, Note_on_c, 0, 31, 120
2, 247285, Note_on_c, 0, 48, 111
2, 247309, Control_c, 0, 64, 63
2, 247314, Control_c, 0, 64, 0
2, 247332, Note_on_c, 0, 48, 0
2, 247340, Note_on_c, 0, 60, 107
2, 247393, Note_on_c, 0, 60, 0
2, 247395, Note_on_c, 0, 52, 107
2, 247400, Control_c, 0, 64, 63
2, 247401, Control_c, 0, 64, 127
2, 247434, Note_on_c, 0, 52, 0
2, 247455, Note_on_c, 0, 58, 108
2, 247481, Note_on_c, 0, 58, 0
2, 247515, Note_on_c, 0, 60, 93
2, 247543, Note_on_c, 0, 60, 0
2, 247569, Note_on_c, 0, 72, 97
2, 247618, Note_on_c, 0, 72, 0
2, 247622, Note_on_c, 0, 64, 103
2, 247659, Note_on_c, 0, 64, 0
2, 247686, Note_on_c, 0, 70, 91
2, 247700, Note_on_c, 0, 70, 0
2, 247737, Note_on_c, 0, 72, 79
2, 247769, Note_on_c, 0, 72, 0
2, 247790, Note_on_c, 0, 76, 100
2, 247834, Note_on_c, 0, 76, 0
2, 247839, Note_on_c, 0, 82, 113
2, 247858, Note_on_c, 0, 31, 0
2, 247868, Note_on_c, 0, 82, 0
2, 247890, Note_on_c, 0, 84, 109
2, 247928, Note_on_c, 0, 84, 0
2, 247934, Control_c, 0, 64, 63
2, 247938, Control_c, 0, 64, 0
2, 247944, Note_on_c, 0, 43, 0
2, 247945, Note_on_c, 0, 36, 125
2, 247949, Note_on_c, 0, 96, 120
2, 247982, Control_c, 0, 64, 63
2, 247984, Control_c, 0, 64, 127
2, 248007, Note_on_c, 0, 94, 107
2, 248016, Note_on_c, 0, 96, 0
2, 248060, Note_on_c, 0, 94, 0
2, 248061, Note_on_c, 0, 88, 102
2, 248097, Note_on_c, 0, 88, 0
2, 248114, Note_on_c, 0, 84, 115
2, 248137, Note_on_c, 0, 84, 0
2, 248168, Note_on_c, 0, 82, 105
2, 248224, Note_on_c, 0, 82, 0
2, 248224, Note_on_c, 0, 76, 98
2, 248255, Note_on_c, 0, 76, 0
2, 248274, Note_on_c, 0, 72, 107
2, 248302, Note_on_c, 0, 72, 0
2, 248336, Note_on_c, 0, 70, 101
2, 248384, Note_on_c, 0, 70, 0
2, 248386, Note_on_c, 0, 64, 96
2, 248421, Note_on_c, 0, 64, 0
2, 248432, Note_on_c, 0, 60, 97
2, 248459, Note_on_c, 0, 60, 0
2, 248494, Note_on_c, 0, 58, 88
2, 248526, Note_on_c, 0, 58, 0
2, 248547, Note_on_c, 0, 48, 92
2, 248584, Note_on_c, 0, 48, 0
2, 248585, Note_on_c, 0, 36, 0
2, 248607, Note_on_c, 0, 41, 114
2, 248610, Note_on_c, 0, 29, 106
2, 248611, Note_on_c, 0, 57, 99
2, 248612, Note_on_c, 0, 60, 103
2, 248614, Control_c, 0, 64, 127
2, 248662, Note_on_c, 0, 57, 0
2, 248663, Control_c, 0, 64, 63
2, 248667, Control_c, 0, 64, 0
2, 248670, Note_on_c, 0, 60, 0
2, 248708, Control_c, 0, 64, 63
2, 248710, Control_c, 0, 64, 0
2, 248795, Note_on_c, 0, 72, 108
2, 248800, Note_on_c, 0, 69, 104
2, 248857, Note_on_c, 0, 67, 107
2, 248866, Note_on_c, 0, 72, 0
2, 248903, Note_on_c, 0, 69, 0
2, 248909, Note_on_c, 0, 65, 106
2, 248925, Note_on_c, 0, 67, 0
2, 248953, Note_on_c, 0, 60, 93
2, 248965, Note_on_c, 0, 65, 0
2, 248989, Control_c, 0, 64, 127
2, 248992, Note_on_c, 0, 60, 0
2, 249009, Note_on_c, 0, 69, 98
2, 249039, Note_on_c, 0, 69, 0
2, 249065, Note_on_c, 0, 72, 107
2, 249101, Note_on_c, 0, 72, 0
2, 249124, Note_on_c, 0, 84, 102
2, 249129, Note_on_c, 0, 81, 96
2, 249186, Note_on_c, 0, 79, 100
2, 249214, Note_on_c, 0, 84, 0
2, 249226, Note_on_c, 0, 77, 111
2, 249235, Note_on_c, 0, 81, 0
2, 249250, Note_on_c, 0, 41, 0
2, 249255, Note_on_c, 0, 79, 0
2, 249267, Control_c, 0, 64, 63
2, 249270, Control_c, 0, 64, 0
2, 249284, Note_on_c, 0, 74, 107
2, 249285, Note_on_c, 0, 53, 120
2, 249293, Control_c, 0, 64, 63
2, 249298, Control_c, 0, 64, 127
2, 249302, Note_on_c, 0, 77, 0
2, 249328, Note_on_c, 0, 74, 0
2, 249343, Note_on_c, 0, 29, 0
2, 249452, Note_on_c, 0, 86, 109
2, 249456, Note_on_c, 0, 81, 101
2, 249504, Note_on_c, 0, 86, 0
2, 249519, Note_on_c, 0, 77, 100
2, 249537, Note_on_c, 0, 81, 0
2, 249563, Note_on_c, 0, 77, 0
2, 249564, Note_on_c, 0, 74, 98
2, 249595, Note_on_c, 0, 74, 0
2, 249634, Note_on_c, 0, 74, 100
2, 249635, Note_on_c, 0, 69, 107
2, 249675, Note_on_c, 0, 74, 0
2, 249695, Note_on_c, 0, 65, 101
2, 249712, Note_on_c, 0, 69, 0
2, 249740, Note_on_c, 0, 65, 0
2, 249741, Note_on_c, 0, 62, 103
2, 249771, Note_on_c, 0, 62, 0
2, 249810, Note_on_c, 0, 29, 114
2, 249811, Note_on_c, 0, 62, 100
2, 249814, Note_on_c, 0, 57, 99
2, 249841, Note_on_c, 0, 53, 0
2, 249847, Note_on_c, 0, 62, 0
2, 249872, Note_on_c, 0, 53, 108
2, 249887, Note_on_c, 0, 57, 0
2, 249915, Note_on_c, 0, 50, 97
2, 249916, Note_on_c, 0, 53, 0
2, 249959, Note_on_c, 0, 50, 0
2, 249982, Note_on_c, 0, 41, 122
2, 249984, Note_on_c, 0, 51, 118
2, 249996, Control_c, 0, 64, 127
2, 250013, Note_on_c, 0, 51, 0
2, 250043, Note_on_c, 0, 57, 99
2, 250082, Note_on_c, 0, 57, 0
2, 250098, Note_on_c, 0, 60, 106
2, 250115, Control_c, 0, 64, 63
2, 250118, Control_c, 0, 64, 0
2, 250131, Note_on_c, 0, 60, 0
2, 250155, Note_on_c, 0, 63, 116
2, 250158, Note_on_c, 0, 69, 103
2, 250166, Control_c, 0, 64, 63
2, 250168, Control_c, 0, 64, 127
2, 250215, Note_on_c, 0, 60, 108
2, 250229, Control_c, 0, 64, 63
2, 250230, Note_on_c, 0, 69, 0
2, 250230, Control_c, 0, 64, 0
2, 250236, Note_on_c, 0, 63, 0
2, 250260, Note_on_c, 0, 60, 0
2, 250268, Control_c, 0, 64, 63
2, 250269, Control_c, 0, 64, 127
2, 250271, Note_on_c, 0, 57, 85
2, 250282, Note_on_c, 0, 29, 0
2, 250311, Note_on_c, 0, 57, 0
2, 250329, Note_on_c, 0, 60, 114
2, 250385, Note_on_c, 0, 63, 114
2, 250392, Note_on_c, 0, 60, 0
2, 250419, Note_on_c, 0, 63, 0
2, 250448, Note_on_c, 0, 69, 102
2, 250479, Note_on_c, 0, 69, 0
2, 250510, Note_on_c, 0, 75, 116
2, 250511, Note_on_c, 0, 81, 106
2, 250560, Note_on_c, 0, 81, 0
2, 250575, Note_on_c, 0, 72, 111
2, 250593, Note_on_c, 0, 75, 0
2, 250626, Note_on_c, 0, 69, 98
2, 250632, Note_on_c, 0, 72, 0
2, 250649, Control_c, 0, 64, 63
2, 250653, Control_c, 0, 64, 0
2, 250671, Note_on_c, 0, 69, 0
2, 250685, Note_on_c, 0, 53, 127
2, 250687, Note_on_c, 0, 75, 116
2, 250688, Note_on_c, 0, 81, 111
2, 250712, Control_c, 0, 64, 127
2, 250715, Note_on_c, 0, 75, 0
2, 250726, Note_on_c, 0, 81, 0
2, 250860, Note_on_c, 0, 93, 112
2, 250860, Note_on_c, 0, 87, 119
2, 250921, Note_on_c, 0, 84, 106
2, 250929, Note_on_c, 0, 93, 0
2, 250940, Note_on_c, 0, 87, 0
2, 250966, Note_on_c, 0, 84, 0
2, 250973, Note_on_c, 0, 81, 78
2, 250989, Note_on_c, 0, 81, 0
2, 251029, Note_on_c, 0, 81, 100
2, 251030, Note_on_c, 0, 41, 0
2, 251044, Note_on_c, 0, 75, 99
2, 251076, Note_on_c, 0, 81, 0
2, 251086, Note_on_c, 0, 75, 0
2, 251093, Note_on_c, 0, 72, 103
2, 251137, Note_on_c, 0, 69, 90
2, 251138, Note_on_c, 0, 72, 0
2, 251159, Note_on_c, 0, 69, 0
2, 251192, Note_on_c, 0, 53, 0
2, 251199, Note_on_c, 0, 69, 104
2, 251202, Note_on_c, 0, 63, 116
2, 251239, Note_on_c, 0, 69, 0
2, 251256, Note_on_c, 0, 60, 108
2, 251279, Note_on_c, 0, 63, 0
2, 251299, Note_on_c, 0, 57, 98
2, 251303, Note_on_c, 0, 60, 0
2, 251336, Note_on_c, 0, 57, 0
2, 251370, Note_on_c, 0, 52, 124
2, 251373, Note_on_c, 0, 40, 121
2, 251375, Note_on_c, 0, 56, 125
2, 251376, Note_on_c, 0, 64, 118
2, 251391, Control_c, 0, 64, 63
2, 251395, Control_c, 0, 64, 0
2, 251485, Note_on_c, 0, 64, 0
2, 251486, Note_on_c, 0, 56, 0
2, 251496, Note_on_c, 0, 52, 0
2, 251499, Note_on_c, 0, 40, 0
2, 251562, Note_on_c, 0, 76, 66
2, 251563, Control_c, 0, 64, 63
2, 251563, Control_c, 0, 64, 127
2, 251565, Note_on_c, 0, 88, 64
2, 251575, Note_on_c, 0, 80, 50
2, 251616, Note_on_c, 0, 76, 0
2, 251635, Note_on_c, 0, 81, 40
2, 251636, Note_on_c, 0, 80, 0
2, 251691, Note_on_c, 0, 80, 42
2, 251711, Note_on_c, 0, 81, 0
2, 251714, Note_on_c, 0, 88, 0
2, 251730, Note_on_c, 0, 80, 0
2, 251740, Control_c, 0, 64, 63
2, 251750, Control_c, 0, 64, 127
2, 251758, Note_on_c, 0, 88, 55
2, 251759, Note_on_c, 0, 70, 40
2, 251762, Note_on_c, 0, 79, 54
2, 251816, Note_on_c, 0, 79, 0
2, 251822, Note_on_c, 0, 70, 0
2, 251825, Note_on_c, 0, 81, 40
2, 251868, Note_on_c, 0, 88, 0
2, 251875, Note_on_c, 0, 79, 41
2, 251876, Note_on_c, 0, 81, 0
2, 251911, Control_c, 0, 64, 63
2, 251912, Note_on_c, 0, 79, 0
2, 251912, Control_c, 0, 64, 127
2, 251941, Note_on_c, 0, 71, 42
2, 251941, Note_on_c, 0, 87, 67
2, 251948, Note_on_c, 0, 78, 59
2, 251974, Note_on_c, 0, 71, 0
2, 252004, Note_on_c, 0, 78, 0
2, 252013, Note_on_c, 0, 80, 53
2, 252064, Note_on_c, 0, 87, 0
2, 252065, Note_on_c, 0, 78, 52
2, 252080, Note_on_c, 0, 80, 0
2, 252105, Note_on_c, 0, 78, 0
2, 252127, Control_c, 0, 64, 63
2, 252127, Note_on_c, 0, 68, 58
2, 252128, Note_on_c, 0, 77, 72
2, 252130, Note_on_c, 0, 86, 71
2, 252141, Control_c, 0, 64, 127
2, 252188, Note_on_c, 0, 68, 0
2, 252191, Note_on_c, 0, 77, 0
2, 252193, Note_on_c, 0, 79, 37
2, 252247, Note_on_c, 0, 77, 51
2, 252249, Note_on_c, 0, 86, 0
2, 252254, Note_on_c, 0, 79, 0
2, 252271, Note_on_c, 0, 77, 0
2, 252302, Note_on_c, 0, 84, 72
2, 252306, Note_on_c, 0, 76, 64
2, 252314, Note_on_c, 0, 69, 38
2, 252357, Note_on_c, 0, 76, 0
2, 252362, Note_on_c, 0, 77, 49
2, 252363, Note_on_c, 0, 69, 0
2, 252411, Note_on_c, 0, 76, 59
2, 252421, Note_on_c, 0, 77, 0
2, 252433, Control_c, 0, 64, 63
2, 252435, Note_on_c, 0, 71, 59
2, 252437, Control_c, 0, 64, 127
2, 252446, Note_on_c, 0, 76, 0
2, 252478, Note_on_c, 0, 72, 70
2, 252479, Note_on_c, 0, 71, 0
2, 252483, Note_on_c, 0, 75, 75
2, 252523, Note_on_c, 0, 72, 0
2, 252536, Note_on_c, 0, 75, 0
2, 252539, Note_on_c, 0, 77, 48
2, 252595, Note_on_c, 0, 75, 59
2, 252605, Note_on_c, 0, 84, 0
2, 252616, Note_on_c, 0, 77, 0
2, 252639, Note_on_c, 0, 75, 0
2, 252651, Note_on_c, 0, 66, 75
2, 252657, Note_on_c, 0, 74, 66
2, 252671, Control_c, 0, 64, 63
2, 252681, Control_c, 0, 64, 127
2, 252709, Note_on_c, 0, 75, 67
2, 252728, Note_on_c, 0, 74, 0
2, 252762, Note_on_c, 0, 66, 0
2, 252768, Note_on_c, 0, 74, 59
2, 252785, Note_on_c, 0, 75, 0
2, 252824, Control_c, 0, 64, 63
2, 252825, Note_on_c, 0, 67, 59
2, 252837, Note_on_c, 0, 83, 78
2, 252847, Control_c, 0, 64, 127
2, 252881, Note_on_c, 0, 74, 0
2, 252903, Note_on_c, 0, 83, 0
2, 252908, Control_c, 0, 64, 63
2, 252912, Control_c, 0, 64, 0
2, 252917, Note_on_c, 0, 67, 0
2, 253020, Note_on_c, 0, 67, 108
2, 253022, Note_on_c, 0, 91, 113
2, 253023, Note_on_c, 0, 83, 108
2, 253024, Control_c, 0, 64, 63
2, 253024, Control_c, 0, 64, 127
2, 253025, Note_on_c, 0, 55, 96
2, 253049, Note_on_c, 0, 67, 0
2, 253055, Note_on_c, 0, 55, 0
2, 253075, Note_on_c, 0, 83, 0
2, 253091, Note_on_c, 0, 84, 92
2, 253147, Note_on_c, 0, 83, 89
2, 253150, Note_on_c, 0, 84, 0
2, 253166, Note_on_c, 0, 91, 0
2, 253183, Note_on_c, 0, 83, 0
2, 253208, Note_on_c, 0, 91, 102
2, 253208, Note_on_c, 0, 61, 123
2, 253210, Note_on_c, 0, 49, 119
2, 253212, Control_c, 0, 64, 63
2, 253214, Note_on_c, 0, 82, 114
2, 253230, Control_c, 0, 64, 127
2, 253247, Note_on_c, 0, 61, 0
2, 253259, Note_on_c, 0, 49, 0
2, 253268, Note_on_c, 0, 82, 0
2, 253277, Note_on_c, 0, 84, 82
2, 253317, Note_on_c, 0, 82, 89
2, 253325, Note_on_c, 0, 91, 0
2, 253342, Note_on_c, 0, 84, 0
2, 253358, Note_on_c, 0, 82, 0
2, 253384, Note_on_c, 0, 62, 120
2, 253385, Note_on_c, 0, 90, 114
2, 253388, Note_on_c, 0, 50, 114
2, 253389, Note_on_c, 0, 81, 106
2, 253391, Control_c, 0, 64, 63
2, 253420, Control_c, 0, 64, 127
2, 253442, Note_on_c, 0, 62, 0
2, 253442, Note_on_c, 0, 83, 77
2, 253444, Note_on_c, 0, 81, 0
2, 253446, Note_on_c, 0, 50, 0
2, 253496, Note_on_c, 0, 81, 72
2, 253509, Note_on_c, 0, 83, 0
2, 253510, Note_on_c, 0, 90, 0
2, 253527, Note_on_c, 0, 81, 0
2, 253561, Note_on_c, 0, 89, 103
2, 253562, Note_on_c, 0, 80, 114
2, 253565, Note_on_c, 0, 59, 117
2, 253567, Note_on_c, 0, 47, 114
2, 253571, Control_c, 0, 64, 63
2, 253588, Control_c, 0, 64, 127
2, 253619, Note_on_c, 0, 81, 84
2, 253632, Note_on_c, 0, 80, 0
2, 253637, Note_on_c, 0, 47, 0
2, 253642, Note_on_c, 0, 59, 0
2, 253661, Note_on_c, 0, 80, 88
2, 253679, Note_on_c, 0, 81, 0
2, 253680, Note_on_c, 0, 89, 0
2, 253701, Note_on_c, 0, 80, 0
2, 253733, Note_on_c, 0, 90, 112
2, 253736, Note_on_c, 0, 57, 116
2, 253736, Note_on_c, 0, 81, 109
2, 253739, Note_on_c, 0, 45, 112
2, 253750, Control_c, 0, 64, 63
2, 253771, Control_c, 0, 64, 127
2, 253789, Note_on_c, 0, 83, 87
2, 253795, Note_on_c, 0, 57, 0
2, 253797, Note_on_c, 0, 81, 0
2, 253800, Note_on_c, 0, 45, 0
2, 253844, Note_on_c, 0, 81, 87
2, 253858, Note_on_c, 0, 83, 0
2, 253877, Note_on_c, 0, 81, 0
2, 253879, Note_on_c, 0, 90, 0
2, 253905, Note_on_c, 0, 56, 116
2, 253908, Note_on_c, 0, 44, 115
2, 253911, Note_on_c, 0, 92, 119
2, 253911, Note_on_c, 0, 83, 109
2, 253917, Control_c, 0, 64, 63
2, 253929, Control_c, 0, 64, 127
2, 253937, Note_on_c, 0, 56, 0
2, 253957, Note_on_c, 0, 44, 0
2, 253961, Note_on_c, 0, 83, 0
2, 253968, Note_on_c, 0, 85, 88
2, 254010, Note_on_c, 0, 83, 78
2, 254034, Note_on_c, 0, 85, 0
2, 254043, Note_on_c, 0, 83, 0
2, 254049, Note_on_c, 0, 92, 0
2, 254069, Control_c, 0, 64, 63
2, 254081, Note_on_c, 0, 93, 107
2, 254083, Note_on_c, 0, 49, 123
2, 254084, Note_on_c, 0, 37, 118
2, 254084, Note_on_c, 0, 85, 109
2, 254092, Control_c, 0, 64, 127
2, 254112, Note_on_c, 0, 37, 0
2, 254113, Note_on_c, 0, 49, 0
2, 254142, Note_on_c, 0, 86, 84
2, 254152, Note_on_c, 0, 85, 0
2, 254185, Note_on_c, 0, 93, 0
2, 254185, Note_on_c, 0, 85, 103
2, 254204, Note_on_c, 0, 86, 0
2, 254210, Control_c, 0, 64, 63
2, 254213, Control_c, 0, 64, 0
2, 254216, Note_on_c, 0, 85, 0
2, 254258, Control_c, 0, 64, 63
2, 254260, Control_c, 0, 64, 127
2, 254261, Note_on_c, 0, 90, 120
2, 254261, Note_on_c, 0, 81, 117
2, 254261, Note_on_c, 0, 54, 120
2, 254262, Note_on_c, 0, 42, 123
2, 254283, Note_on_c, 0, 81, 0
2, 254284, Note_on_c, 0, 54, 0
2, 254287, Note_on_c, 0, 42, 0
2, 254287, Note_on_c, 0, 90, 0
2, 254439, Control_c, 0, 64, 63
2, 254444, Control_c, 0, 64, 0
2, 254460, Control_c, 0, 64, 63
2, 254460, Control_c, 0, 64, 127
2, 254475, Note_on_c, 0, 73, 57
2, 254478, Note_on_c, 0, 66, 45
2, 254486, Note_on_c, 0, 81, 45
2, 254526, Note_on_c, 0, 66, 0
2, 254533, Note_on_c, 0, 73, 0
2, 254543, Note_on_c, 0, 74, 28
2, 254595, Note_on_c, 0, 81, 0
2, 254601, Note_on_c, 0, 73, 53
2, 254611, Note_on_c, 0, 74, 0
2, 254634, Control_c, 0, 64, 63
2, 254638, Note_on_c, 0, 73, 0
2, 254648, Control_c, 0, 64, 127
2, 254655, Note_on_c, 0, 63, 54
2, 254661, Note_on_c, 0, 72, 69
2, 254665, Note_on_c, 0, 81, 66
2, 254715, Note_on_c, 0, 63, 0
2, 254721, Note_on_c, 0, 72, 0
2, 254726, Note_on_c, 0, 74, 39
2, 254767, Note_on_c, 0, 81, 0
2, 254776, Note_on_c, 0, 72, 46
2, 254778, Note_on_c, 0, 74, 0
2, 254806, Note_on_c, 0, 72, 0
2, 254844, Note_on_c, 0, 64, 54
2, 254848, Note_on_c, 0, 80, 67
2, 254849, Note_on_c, 0, 71, 53
2, 254899, Note_on_c, 0, 71, 0
2, 254902, Note_on_c, 0, 64, 0
2, 254909, Note_on_c, 0, 72, 39
2, 254959, Note_on_c, 0, 80, 0
2, 254959, Note_on_c, 0, 71, 42
2, 254976, Note_on_c, 0, 72, 0
2, 254981, Note_on_c, 0, 71, 0
2, 255002, Control_c, 0, 64, 63
2, 255006, Control_c, 0, 64, 127
2, 255017, Note_on_c, 0, 61, 66
2, 255020, Note_on_c, 0, 70, 74
2, 255026, Note_on_c, 0, 79, 43
2, 255073, Note_on_c, 0, 70, 0
2, 255076, Note_on_c, 0, 61, 0
2, 255077, Note_on_c, 0, 72, 49
2, 255099, Note_on_c, 0, 79, 0
2, 255132, Note_on_c, 0, 70, 24
2, 255145, Note_on_c, 0, 72, 0
2, 255154, Note_on_c, 0, 70, 0
2, 255188, Note_on_c, 0, 69, 63
2, 255188, Note_on_c, 0, 77, 69
2, 255192, Note_on_c, 0, 62, 72
2, 255204, Control_c, 0, 64, 63
2, 255210, Control_c, 0, 64, 127
2, 255243, Note_on_c, 0, 69, 0
2, 255251, Note_on_c, 0, 70, 69
2, 255257, Note_on_c, 0, 77, 0
2, 255259, Note_on_c, 0, 62, 0
2, 255291, Note_on_c, 0, 70, 0
2, 255301, Note_on_c, 0, 69, 46
2, 255312, Note_on_c, 0, 64, 49
2, 255337, Note_on_c, 0, 69, 0
2, 255346, Note_on_c, 0, 64, 0
2, 255350, Note_on_c, 0, 68, 72
2, 255361, Note_on_c, 0, 65, 80
2, 255409, Note_on_c, 0, 65, 0
2, 255414, Note_on_c, 0, 68, 0
2, 255417, Note_on_c, 0, 70, 55
2, 255465, Note_on_c, 0, 68, 49
2, 255477, Note_on_c, 0, 70, 0
2, 255524, Note_on_c, 0, 68, 0
2, 255524, Note_on_c, 0, 67, 51
2, 255535, Note_on_c, 0, 59, 80
2, 255575, Note_on_c, 0, 68, 66
2, 255578, Control_c, 0, 64, 63
2, 255585, Control_c, 0, 64, 0
2, 255591, Note_on_c, 0, 67, 0
2, 255635, Note_on_c, 0, 68, 0
2, 255637, Note_on_c, 0, 67, 40
2, 255716, Note_on_c, 0, 60, 59
2, 255717, Control_c, 0, 64, 63
2, 255718, Note_on_c, 0, 76, 64
2, 255718, Control_c, 0, 64, 127
2, 255721, Note_on_c, 0, 59, 0
2, 255751, Note_on_c, 0, 67, 0
2, 255757, Note_on_c, 0, 60, 0
2, 255775, Note_on_c, 0, 76, 0
2, 255848, Control_c, 0, 64, 63
2, 255852, Control_c, 0, 64, 0
2, 255931, Control_c, 0, 64, 63
2, 255931, Control_c, 0, 64, 127
2, 255932, Note_on_c, 0, 60, 125
2, 255933, Note_on_c, 0, 48, 124
2, 255935, Note_on_c, 0, 84, 126
2, 255936, Note_on_c, 0, 76, 126
2, 255958, Note_on_c, 0, 60, 0
2, 255967, Note_on_c, 0, 48, 0
2, 256003, Note_on_c, 0, 76, 0
2, 256005, Note_on_c, 0, 77, 97
2, 256062, Note_on_c, 0, 84, 0
2, 256063, Note_on_c, 0, 76, 93
2, 256070, Note_on_c, 0, 77, 0
2, 256090, Note_on_c, 0, 76, 0
2, 256109, Control_c, 0, 64, 63
2, 256114, Control_c, 0, 64, 0
2, 256117, Note_on_c, 0, 54, 126
2, 256118, Note_on_c, 0, 84, 106
2, 256119, Note_on_c, 0, 42, 125
2, 256122, Note_on_c, 0, 75, 116
2, 256128, Control_c, 0, 64, 63
2, 256136, Control_c, 0, 64, 127
2, 256153, Note_on_c, 0, 54, 0
2, 256164, Note_on_c, 0, 42, 0
2, 256167, Note_on_c, 0, 75, 0
2, 256184, Note_on_c, 0, 77, 60
2, 256217, Note_on_c, 0, 75, 87
2, 256229, Note_on_c, 0, 84, 0
2, 256243, Note_on_c, 0, 77, 0
2, 256254, Note_on_c, 0, 75, 0
2, 256286, Control_c, 0, 64, 63
2, 256287, Note_on_c, 0, 55, 117
2, 256289, Note_on_c, 0, 43, 118
2, 256290, Note_on_c, 0, 83, 111
2, 256291, Note_on_c, 0, 74, 117
2, 256310, Control_c, 0, 64, 127
2, 256324, Note_on_c, 0, 55, 0
2, 256341, Note_on_c, 0, 43, 0
2, 256347, Note_on_c, 0, 76, 99
2, 256351, Note_on_c, 0, 74, 0
2, 256392, Note_on_c, 0, 83, 0
2, 256399, Note_on_c, 0, 74, 87
2, 256400, Note_on_c, 0, 76, 0
2, 256422, Note_on_c, 0, 74, 0
2, 256451, Control_c, 0, 64, 63
2, 256464, Note_on_c, 0, 52, 117
2, 256466, Note_on_c, 0, 40, 118
2, 256466, Note_on_c, 0, 82, 113
2, 256467, Note_on_c, 0, 73, 123
2, 256469, Control_c, 0, 64, 127
2, 256499, Note_on_c, 0, 52, 0
2, 256512, Note_on_c, 0, 73, 0
2, 256512, Note_on_c, 0, 40, 0
2, 256516, Note_on_c, 0, 74, 61
2, 256566, Note_on_c, 0, 73, 93
2, 256576, Note_on_c, 0, 74, 0
2, 256597, Note_on_c, 0, 82, 0
2, 256600, Note_on_c, 0, 73, 0
2, 256630, Note_on_c, 0, 38, 118
2, 256630, Note_on_c, 0, 50, 122
2, 256631, Control_c, 0, 64, 63
2, 256631, Note_on_c, 0, 83, 108
2, 256634, Note_on_c, 0, 74, 112
2, 256649, Control_c, 0, 64, 127
2, 256665, Note_on_c, 0, 50, 0
2, 256678, Note_on_c, 0, 38, 0
2, 256691, Note_on_c, 0, 76, 94
2, 256696, Note_on_c, 0, 74, 0
2, 256747, Note_on_c, 0, 74, 87
2, 256749, Note_on_c, 0, 76, 0
2, 256757, Note_on_c, 0, 83, 0
2, 256778, Note_on_c, 0, 74, 0
2, 256808, Note_on_c, 0, 49, 124
2, 256810, Note_on_c, 0, 37, 121
2, 256812, Note_on_c, 0, 85, 110
2, 256812, Note_on_c, 0, 76, 108
2, 256822, Control_c, 0, 64, 63
2, 256836, Control_c, 0, 64, 127
2, 256839, Note_on_c, 0, 49, 0
2, 256863, Note_on_c, 0, 76, 0
2, 256865, Note_on_c, 0, 78, 96
2, 256867, Note_on_c, 0, 37, 0
2, 256914, Note_on_c, 0, 76, 80
2, 256920, Note_on_c, 0, 78, 0
2, 256945, Note_on_c, 0, 76, 0
2, 256959, Note_on_c, 0, 85, 0
2, 256979, Control_c, 0, 64, 63
2, 256982, Control_c, 0, 64, 0
2, 256987, Note_on_c, 0, 86, 113
2, 256989, Note_on_c, 0, 78, 110
2, 256989, Note_on_c, 0, 42, 126
2, 256990, Note_on_c, 0, 30, 124
2, 257015, Control_c, 0, 64, 63
2, 257019, Control_c, 0, 64, 127
2, 257051, Note_on_c, 0, 78, 0
2, 257052, Note_on_c, 0, 79, 74
2, 257074, Note_on_c, 0, 42, 0
2, 257086, Note_on_c, 0, 30, 0
2, 257111, Note_on_c, 0, 78, 106
2, 257113, Note_on_c, 0, 86, 0
2, 257134, Note_on_c, 0, 79, 0
2, 257148, Note_on_c, 0, 78, 0
2, 257207, Control_c, 0, 64, 63
2, 257209, Control_c, 0, 64, 0
2, 257214, Note_on_c, 0, 29, 98
2, 257217, Note_on_c, 0, 41, 122
2, 257222, Note_on_c, 0, 83, 116
2, 257223, Note_on_c, 0, 74, 111
2, 257258, Control_c, 0, 64, 127
2, 257300, Note_on_c, 0, 29, 0
2, 257305, Note_on_c, 0, 74, 0
2, 257315, Note_on_c, 0, 41, 0
2, 257329, Note_on_c, 0, 83, 0
2, 257447, Note_on_c, 0, 98, 113
2, 257448, Note_on_c, 0, 53, 125
2, 257449, Note_on_c, 0, 41, 122
2, 257466, Control_c, 0, 64, 127
2, 257471, Control_c, 0, 64, 63
2, 257473, Control_c, 0, 64, 0
2, 257538, Note_on_c, 0, 41, 0
2, 257556, Note_on_c, 0, 95, 104
2, 257557, Note_on_c, 0, 53, 0
2, 257569, Note_on_c, 0, 98, 0
2, 257625, Note_on_c, 0, 92, 112
2, 257641, Note_on_c, 0, 95, 0
2, 257695, Control_c, 0, 64, 63
2, 257695, Note_on_c, 0, 62, 126
2, 257696, Note_on_c, 0, 89, 89
2, 257697, Note_on_c, 0, 50, 118
2, 257706, Control_c, 0, 64, 127
2, 257711, Note_on_c, 0, 92, 0
2, 257767, Note_on_c, 0, 86, 86
2, 257773, Note_on_c, 0, 89, 0
2, 257797, Note_on_c, 0, 86, 0
2, 257836, Note_on_c, 0, 83, 94
2, 257896, Note_on_c, 0, 83, 0
2, 257897, Note_on_c, 0, 80, 104
2, 257955, Note_on_c, 0, 77, 104
2, 257963, Note_on_c, 0, 80, 0
2, 258007, Note_on_c, 0, 74, 96
2, 258008, Note_on_c, 0, 77, 0
2, 258015, Note_on_c, 0, 62, 0
2, 258020, Note_on_c, 0, 50, 0
2, 258036, Note_on_c, 0, 74, 0
2, 258070, Note_on_c, 0, 71, 101
2, 258124, Note_on_c, 0, 71, 0
2, 258125, Note_on_c, 0, 68, 107
2, 258174, Note_on_c, 0, 68, 0
2, 258183, Note_on_c, 0, 65, 85
2, 258233, Control_c, 0, 64, 63
2, 258237, Control_c, 0, 64, 0
2, 258243, Note_on_c, 0, 68, 107
2, 258244, Note_on_c, 0, 65, 0
2, 258252, Note_on_c, 0, 61, 120
2, 258255, Note_on_c, 0, 49, 115
2, 258260, Control_c, 0, 64, 63
2, 258270, Control_c, 0, 64, 127
2, 258295, Note_on_c, 0, 61, 0
2, 258296, Note_on_c, 0, 49, 0
2, 258311, Note_on_c, 0, 71, 91
2, 258319, Note_on_c, 0, 68, 0
2, 258370, Note_on_c, 0, 48, 94
2, 258371, Note_on_c, 0, 60, 103
2, 258371, Note_on_c, 0, 73, 99
2, 258377, Note_on_c, 0, 71, 0
2, 258395, Note_on_c, 0, 60, 0
2, 258398, Note_on_c, 0, 48, 0
2, 258399, Note_on_c, 0, 73, 0
2, 258426, Note_on_c, 0, 77, 107
2, 258427, Note_on_c, 0, 49, 119
2, 258427, Note_on_c, 0, 61, 120
2, 258449, Note_on_c, 0, 61, 0
2, 258462, Note_on_c, 0, 49, 0
2, 258480, Note_on_c, 0, 77, 0
2, 258483, Note_on_c, 0, 80, 105
2, 258533, Note_on_c, 0, 83, 99
2, 258535, Note_on_c, 0, 80, 0
2, 258564, Note_on_c, 0, 83, 0
2, 258590, Note_on_c, 0, 49, 126
2, 258591, Note_on_c, 0, 37, 114
2, 258600, Note_on_c, 0, 85, 110
2, 258614, Note_on_c, 0, 37, 0
2, 258620, Note_on_c, 0, 49, 0
2, 258668, Note_on_c, 0, 89, 112
2, 258685, Note_on_c, 0, 85, 0
2, 258710, Note_on_c, 0, 89, 0
2, 258739, Note_on_c, 0, 92, 116
2, 258774, Note_on_c, 0, 92, 0
2, 258838, Note_on_c, 0, 88, 117
2, 258840, Note_on_c, 0, 55, 116
2, 258843, Note_on_c, 0, 43, 109
2, 258859, Control_c, 0, 64, 127
2, 258885, Note_on_c, 0, 55, 0
2, 258893, Note_on_c, 0, 43, 0
2, 258946, Control_c, 0, 64, 63
2, 258948, Control_c, 0, 64, 0
2, 258949, Note_on_c, 0, 88, 0
2, 258949, Note_on_c, 0, 95, 113
2, 258970, Control_c, 0, 64, 63
2, 258979, Control_c, 0, 64, 0
2, 259007, Note_on_c, 0, 91, 106
2, 259011, Note_on_c, 0, 95, 0
2, 259068, Note_on_c, 0, 88, 107
2, 259069, Control_c, 0, 64, 127
2, 259074, Note_on_c, 0, 49, 124
2, 259076, Note_on_c, 0, 37, 121
2, 259077, Note_on_c, 0, 91, 0
2, 259101, Note_on_c, 0, 49, 0
2, 259102, Note_on_c, 0, 37, 0
2, 259130, Note_on_c, 0, 85, 107
2, 259143, Note_on_c, 0, 88, 0
2, 259185, Note_on_c, 0, 83, 98
2, 259191, Note_on_c, 0, 85, 0
2, 259222, Note_on_c, 0, 83, 0
2, 259248, Note_on_c, 0, 55, 121
2, 259249, Note_on_c, 0, 43, 120
2, 259258, Note_on_c, 0, 79, 100
2, 259310, Note_on_c, 0, 76, 101
2, 259315, Note_on_c, 0, 79, 0
2, 259373, Note_on_c, 0, 73, 109
2, 259377, Note_on_c, 0, 76, 0
2, 259420, Note_on_c, 0, 73, 0
2, 259427, Note_on_c, 0, 71, 92
2, 259451, Control_c, 0, 64, 63
2, 259454, Control_c, 0, 64, 0
2, 259457, Note_on_c, 0, 71, 0
2, 259479, Control_c, 0, 64, 63
2, 259483, Control_c, 0, 64, 127
2, 259487, Note_on_c, 0, 67, 92
2, 259541, Note_on_c, 0, 67, 0
2, 259542, Note_on_c, 0, 64, 94
2, 259587, Note_on_c, 0, 55, 0
2, 259599, Note_on_c, 0, 64, 0
2, 259599, Note_on_c, 0, 61, 105
2, 259605, Note_on_c, 0, 43, 0
2, 259649, Note_on_c, 0, 61, 0
2, 259652, Note_on_c, 0, 59, 94
2, 259703, Note_on_c, 0, 59, 0
2, 259710, Note_on_c, 0, 58, 106
2, 259782, Note_on_c, 0, 61, 108
2, 259787, Note_on_c, 0, 54, 115
2, 259788, Note_on_c, 0, 42, 112
2, 259794, Note_on_c, 0, 58, 0
2, 259818, Note_on_c, 0, 54, 0
2, 259818, Note_on_c, 0, 61, 0
2, 259821, Note_on_c, 0, 42, 0
2, 259846, Note_on_c, 0, 64, 92
2, 259892, Note_on_c, 0, 64, 0
2, 259909, Note_on_c, 0, 66, 113
2, 259911, Note_on_c, 0, 41, 92
2, 259913, Note_on_c, 0, 53, 107
2, 259935, Note_on_c, 0, 53, 0
2, 259937, Note_on_c, 0, 41, 0
2, 259967, Note_on_c, 0, 70, 113
2, 259971, Note_on_c, 0, 54, 118
2, 259972, Note_on_c, 0, 42, 113
2, 259976, Note_on_c, 0, 66, 0
2, 259994, Note_on_c, 0, 54, 0
2, 260004, Note_on_c, 0, 42, 0
2, 260029, Note_on_c, 0, 73, 109
2, 260037, Note_on_c, 0, 70, 0
2, 260068, Note_on_c, 0, 73, 0
2, 260092, Note_on_c, 0, 76, 108
2, 260143, Note_on_c, 0, 76, 0
2, 260159, Note_on_c, 0, 78, 115
2, 260164, Note_on_c, 0, 42, 127
2, 260164, Note_on_c, 0, 30, 118
2, 260190, Note_on_c, 0, 42, 0
2, 260191, Note_on_c, 0, 30, 0
2, 260204, Note_on_c, 0, 78, 0
2, 260233, Note_on_c, 0, 82, 104
2, 260272, Note_on_c, 0, 82, 0
2, 260299, Note_on_c, 0, 85, 114
2, 260341, Note_on_c, 0, 85, 0
2, 260418, Control_c, 0, 64, 63
2, 260419, Note_on_c, 0, 76, 117
2, 260420, Note_on_c, 0, 36, 127
2, 260420, Note_on_c, 0, 88, 116
2, 260427, Control_c, 0, 64, 0
2, 260460, Control_c, 0, 64, 63
2, 260461, Control_c, 0, 64, 127
2, 260511, Note_on_c, 0, 88, 0
2, 260524, Note_on_c, 0, 40, 106
2, 260526, Note_on_c, 0, 76, 0
2, 260605, Note_on_c, 0, 42, 112
2, 260637, Note_on_c, 0, 40, 0
2, 260646, Note_on_c, 0, 36, 0
2, 260669, Note_on_c, 0, 45, 101
2, 260672, Note_on_c, 0, 81, 108
2, 260672, Note_on_c, 0, 69, 106
2, 260682, Note_on_c, 0, 42, 0
2, 260702, Note_on_c, 0, 45, 0
2, 260704, Note_on_c, 0, 69, 0
2, 260715, Note_on_c, 0, 81, 0
2, 260745, Note_on_c, 0, 48, 112
2, 260807, Note_on_c, 0, 52, 101
2, 260861, Note_on_c, 0, 88, 112
2, 260862, Note_on_c, 0, 76, 111
2, 260872, Note_on_c, 0, 54, 118
2, 260874, Note_on_c, 0, 48, 0
2, 260896, Note_on_c, 0, 52, 0
2, 260915, Note_on_c, 0, 54, 0
2, 260923, Note_on_c, 0, 57, 96
2, 260952, Note_on_c, 0, 57, 0
2, 260990, Note_on_c, 0, 60, 94
2, 261044, Note_on_c, 0, 64, 90
2, 261065, Note_on_c, 0, 60, 0
2, 261102, Note_on_c, 0, 66, 108
2, 261112, Note_on_c, 0, 64, 0
2, 261158, Note_on_c, 0, 66, 0
2, 261166, Note_on_c, 0, 69, 93
2, 261209, Note_on_c, 0, 69, 0
2, 261231, Note_on_c, 0, 72, 97
2, 261239, Note_on_c, 0, 88, 0
2, 261243, Note_on_c, 0, 76, 0
2, 261268, Note_on_c, 0, 72, 0
2, 261282, Note_on_c, 0, 69, 84
2, 261341, Note_on_c, 0, 66, 93
2, 261349, Note_on_c, 0, 69, 0
2, 261400, Note_on_c, 0, 87, 112
2, 261400, Note_on_c, 0, 75, 116
2, 261409, Note_on_c, 0, 63, 113
2, 261417, Note_on_c, 0, 66, 0
2, 261430, Note_on_c, 0, 75, 0
2, 261442, Note_on_c, 0, 87, 0
2, 261448, Note_on_c, 0, 63, 0
2, 261468, Note_on_c, 0, 60, 108
2, 261510, Note_on_c, 0, 60, 0
2, 261523, Note_on_c, 0, 57, 107
2, 261532, Control_c, 0, 64, 63
2, 261535, Note_on_c, 0, 88, 99
2, 261538, Note_on_c, 0, 76, 101
2, 261540, Control_c, 0, 64, 0
2, 261549, Note_on_c, 0, 85, 49
2, 261551, Note_on_c, 0, 76, 0
2, 261562, Note_on_c, 0, 88, 0
2, 261564, Control_c, 0, 64, 63
2, 261566, Note_on_c, 0, 85, 0
2, 261569, Control_c, 0, 64, 127
2, 261573, Note_on_c, 0, 57, 0
2, 261584, Note_on_c, 0, 78, 121
2, 261584, Note_on_c, 0, 90, 121
2, 261585, Note_on_c, 0, 60, 116
2, 261608, Note_on_c, 0, 78, 0
2, 261610, Note_on_c, 0, 90, 0
2, 261644, Note_on_c, 0, 57, 98
2, 261648, Note_on_c, 0, 60, 0
2, 261681, Note_on_c, 0, 54, 104
2, 261700, Note_on_c, 0, 57, 0
2, 261751, Note_on_c, 0, 51, 116
2, 261753, Note_on_c, 0, 83, 98
2, 261755, Note_on_c, 0, 71, 101
2, 261769, Note_on_c, 0, 54, 0
2, 261774, Note_on_c, 0, 71, 0
2, 261786, Note_on_c, 0, 51, 0
2, 261789, Note_on_c, 0, 83, 0
2, 261813, Note_on_c, 0, 47, 112
2, 261840, Control_c, 0, 64, 63
2, 261843, Control_c, 0, 64, 0
2, 261854, Note_on_c, 0, 47, 0
2, 261871, Note_on_c, 0, 45, 114
2, 261947, Note_on_c, 0, 45, 0
2, 261949, Note_on_c, 0, 43, 126
2, 261950, Note_on_c, 0, 95, 109
2, 261951, Note_on_c, 0, 88, 113
2, 261952, Note_on_c, 0, 83, 109
2, 261988, Control_c, 0, 64, 127
2, 262027, Note_on_c, 0, 95, 0
2, 262040, Note_on_c, 0, 43, 0
2, 262041, Note_on_c, 0, 88, 0
2, 262044, Note_on_c, 0, 83, 0
2, 262126, Note_on_c, 0, 76, 109
2, 262126, Note_on_c, 0, 88, 107
2, 262126, Note_on_c, 0, 83, 100
2, 262131, Note_on_c, 0, 55, 118
2, 262142, Control_c, 0, 64, 127
2, 262152, Note_on_c, 0, 83, 0
2, 262154, Note_on_c, 0, 76, 0
2, 262157, Note_on_c, 0, 88, 0
2, 262181, Note_on_c, 0, 59, 94
2, 262185, Note_on_c, 0, 55, 0
2, 262253, Note_on_c, 0, 64, 84
2, 262257, Note_on_c, 0, 59, 0
2, 262295, Note_on_c, 0, 64, 0
2, 262299, Note_on_c, 0, 83, 108
2, 262300, Note_on_c, 0, 71, 108
2, 262300, Note_on_c, 0, 76, 109
2, 262310, Note_on_c, 0, 67, 93
2, 262325, Note_on_c, 0, 71, 0
2, 262327, Note_on_c, 0, 76, 0
2, 262340, Note_on_c, 0, 83, 0
2, 262364, Note_on_c, 0, 67, 0
2, 262365, Note_on_c, 0, 66, 95
2, 262402, Note_on_c, 0, 66, 0
2, 262432, Note_on_c, 0, 67, 94
2, 262483, Note_on_c, 0, 67, 0
2, 262486, Note_on_c, 0, 64, 106
2, 262543, Note_on_c, 0, 59, 99
2, 262560, Note_on_c, 0, 64, 0
2, 262595, Note_on_c, 0, 55, 99
2, 262604, Note_on_c, 0, 59, 0
2, 262606, Control_c, 0, 64, 63
2, 262610, Control_c, 0, 64, 0
2, 262624, Note_on_c, 0, 55, 0
2, 262640, Control_c, 0, 64, 63
2, 262644, Note_on_c, 0, 95, 111
2, 262645, Control_c, 0, 64, 127
2, 262646, Note_on_c, 0, 83, 104
2, 262646, Note_on_c, 0, 86, 108
2, 262660, Note_on_c, 0, 42, 123
2, 262674, Note_on_c, 0, 95, 0
2, 262681, Note_on_c, 0, 42, 0
2, 262681, Note_on_c, 0, 86, 0
2, 262685, Note_on_c, 0, 83, 0
2, 262820, Note_on_c, 0, 74, 104
2, 262821, Note_on_c, 0, 86, 101
2, 262822, Note_on_c, 0, 83, 97
2, 262829, Note_on_c, 0, 54, 97
2, 262850, Note_on_c, 0, 74, 0
2, 262855, Note_on_c, 0, 83, 0
2, 262855, Note_on_c, 0, 86, 0
2, 262884, Note_on_c, 0, 59, 80
2, 262885, Note_on_c, 0, 54, 0
2, 262938, Note_on_c, 0, 62, 98
2, 262959, Note_on_c, 0, 59, 0
2, 262990, Note_on_c, 0, 83, 101
2, 262991, Note_on_c, 0, 74, 103
2, 262991, Note_on_c, 0, 71, 104
2, 262992, Note_on_c, 0, 66, 114
2, 262996, Note_on_c, 0, 62, 0
2, 263051, Note_on_c, 0, 66, 0
2, 263052, Note_on_c, 0, 65, 96
2, 263104, Note_on_c, 0, 65, 0
2, 263114, Note_on_c, 0, 66, 109
2, 263159, Note_on_c, 0, 66, 0
2, 263162, Note_on_c, 0, 62, 94
2, 263164, Note_on_c, 0, 71, 0
2, 263178, Note_on_c, 0, 74, 0
2, 263183, Note_on_c, 0, 83, 0
2, 263220, Note_on_c, 0, 59, 80
2, 263239, Note_on_c, 0, 62, 0
2, 263266, Note_on_c, 0, 54, 104
2, 263280, Note_on_c, 0, 59, 0
2, 263297, Note_on_c, 0, 54, 0
2, 263335, Note_on_c, 0, 74, 103
2, 263336, Note_on_c, 0, 86, 100
2, 263336, Note_on_c, 0, 80, 101
2, 263338, Note_on_c, 0, 83, 98
2, 263341, Note_on_c, 0, 41, 126
2, 263356, Control_c, 0, 64, 63
2, 263359, Control_c, 0, 64, 0
2, 263440, Control_c, 0, 64, 63
2, 263442, Control_c, 0, 64, 127
2, 263470, Note_on_c, 0, 41, 0
2, 263511, Note_on_c, 0, 44, 88
2, 263561, Note_on_c, 0, 47, 78
2, 263580, Note_on_c, 0, 44, 0
2, 263605, Note_on_c, 0, 47, 0
2, 263615, Note_on_c, 0, 50, 88
2, 263649, Note_on_c, 0, 50, 0
2, 263670, Note_on_c, 0, 53, 85
2, 263726, Note_on_c, 0, 56, 99
2, 263737, Note_on_c, 0, 86, 0
2, 263755, Note_on_c, 0, 53, 0
2, 263780, Note_on_c, 0, 59, 102
2, 263804, Note_on_c, 0, 56, 0
2, 263827, Note_on_c, 0, 83, 0
2, 263828, Note_on_c, 0, 80, 0
2, 263829, Note_on_c, 0, 59, 0
2, 263829, Note_on_c, 0, 62, 98
2, 263832, Note_on_c, 0, 74, 0
2, 263870, Note_on_c, 0, 62, 0
2, 263887, Note_on_c, 0, 65, 104
2, 263932, Note_on_c, 0, 68, 109
2, 263965, Note_on_c, 0, 65, 0
2, 263998, Note_on_c, 0, 71, 117
2, 263999, Note_on_c, 0, 74, 92
2, 264001, Note_on_c, 0, 68, 0
2, 264019, Control_c, 0, 64, 127
2, 264052, Note_on_c, 0, 77, 98
2, 264064, Note_on_c, 0, 74, 0
2, 264075, Note_on_c, 0, 71, 0
2, 264101, Note_on_c, 0, 82, 89
2, 264120, Note_on_c, 0, 77, 0
2, 264148, Note_on_c, 0, 80, 112
2, 264167, Note_on_c, 0, 82, 0
2, 264182, Note_on_c, 0, 80, 0
2, 264208, Note_on_c, 0, 86, 106
2, 264230, Note_on_c, 0, 53, 76
2, 264249, Note_on_c, 0, 86, 0
2, 264257, Note_on_c, 0, 89, 103
2, 264258, Note_on_c, 0, 59, 94
2, 264265, Note_on_c, 0, 53, 0
2, 264272, Note_on_c, 0, 62, 96
2, 264308, Note_on_c, 0, 94, 106
2, 264312, Note_on_c, 0, 68, 118
2, 264320, Control_c, 0, 64, 63
2, 264327, Note_on_c, 0, 89, 0
2, 264335, Control_c, 0, 64, 127
2, 264346, Note_on_c, 0, 68, 0
2, 264347, Note_on_c, 0, 62, 0
2, 264360, Note_on_c, 0, 92, 108
2, 264375, Note_on_c, 0, 94, 0
2, 264388, Note_on_c, 0, 59, 0
2, 264409, Note_on_c, 0, 89, 101
2, 264413, Note_on_c, 0, 92, 0
2, 264415, Note_on_c, 0, 53, 84
2, 264436, Note_on_c, 0, 59, 83
2, 264444, Note_on_c, 0, 62, 92
2, 264445, Note_on_c, 0, 53, 0
2, 264453, Note_on_c, 0, 89, 0
2, 264459, Note_on_c, 0, 86, 91
2, 264471, Note_on_c, 0, 68, 115
2, 264493, Note_on_c, 0, 86, 0
2, 264506, Note_on_c, 0, 68, 0
2, 264506, Note_on_c, 0, 62, 0
2, 264523, Note_on_c, 0, 82, 107
2, 264546, Note_on_c, 0, 59, 0
2, 264564, Note_on_c, 0, 53, 83
2, 264569, Note_on_c, 0, 80, 105
2, 264570, Note_on_c, 0, 82, 0
2, 264591, Note_on_c, 0, 59, 85
2, 264597, Note_on_c, 0, 53, 0
2, 264601, Control_c, 0, 64, 63
2, 264602, Note_on_c, 0, 62, 92
2, 264608, Control_c, 0, 64, 127
2, 264617, Note_on_c, 0, 80, 0
2, 264626, Note_on_c, 0, 68, 118
2, 264627, Note_on_c, 0, 74, 97
2, 264673, Note_on_c, 0, 74, 0
2, 264680, Note_on_c, 0, 77, 108
2, 264682, Note_on_c, 0, 68, 0
2, 264719, Note_on_c, 0, 62, 0
2, 264724, Note_on_c, 0, 59, 0
2, 264732, Note_on_c, 0, 82, 101
2, 264742, Note_on_c, 0, 77, 0
2, 264775, Note_on_c, 0, 80, 104
2, 264788, Note_on_c, 0, 82, 0
2, 264803, Note_on_c, 0, 80, 0
2, 264823, Note_on_c, 0, 53, 78
2, 264830, Note_on_c, 0, 86, 98
2, 264848, Note_on_c, 0, 59, 85
2, 264856, Note_on_c, 0, 53, 0
2, 264869, Note_on_c, 0, 86, 0
2, 264874, Note_on_c, 0, 62, 71
2, 264876, Note_on_c, 0, 89, 108
2, 264914, Note_on_c, 0, 68, 114
2, 264923, Note_on_c, 0, 94, 107
2, 264935, Note_on_c, 0, 89, 0
2, 264953, Note_on_c, 0, 68, 0
2, 264973, Note_on_c, 0, 92, 109
2, 264987, Note_on_c, 0, 94, 0
2, 264987, Note_on_c, 0, 62, 0
2, 264993, Note_on_c, 0, 59, 0
2, 265017, Note_on_c, 0, 89, 103
2, 265017, Note_on_c, 0, 53, 83
2, 265021, Note_on_c, 0, 92, 0
2, 265040, Note_on_c, 0, 59, 78
2, 265046, Note_on_c, 0, 53, 0
2, 265058, Note_on_c, 0, 62, 55
2, 265062, Note_on_c, 0, 89, 0
2, 265071, Note_on_c, 0, 86, 87
2, 265079, Note_on_c, 0, 68, 114
2, 265101, Note_on_c, 0, 86, 0
2, 265119, Note_on_c, 0, 68, 0
2, 265121, Note_on_c, 0, 62, 0
2, 265138, Note_on_c, 0, 82, 106
2, 265164, Note_on_c, 0, 59, 0
2, 265178, Note_on_c, 0, 80, 106
2, 265185, Note_on_c, 0, 82, 0
2, 265187, Note_on_c, 0, 53, 71
2, 265198, Control_c, 0, 64, 63
2, 265206, Control_c, 0, 64, 0
2, 265209, Note_on_c, 0, 80, 0
2, 265212, Control_c, 0, 64, 63
2, 265213, Note_on_c, 0, 59, 90
2, 265218, Note_on_c, 0, 53, 0
2, 265225, Note_on_c, 0, 61, 90
2, 265230, Control_c, 0, 64, 127
2, 265244, Note_on_c, 0, 59, 0
2, 265260, Note_on_c, 0, 71, 89
2, 265265, Note_on_c, 0, 68, 81
2, 265304, Note_on_c, 0, 71, 0
2, 265324, Note_on_c, 0, 77, 72
2, 265351, Note_on_c, 0, 68, 0
2, 265373, Note_on_c, 0, 77, 0
2, 265382, Note_on_c, 0, 82, 77
2, 265393, Note_on_c, 0, 61, 0
2, 265424, Note_on_c, 0, 80, 85
2, 265429, Note_on_c, 0, 82, 0
2, 265452, Note_on_c, 0, 80, 0
2, 265481, Note_on_c, 0, 83, 70
2, 265514, Note_on_c, 0, 83, 0
2, 265517, Note_on_c, 0, 53, 60
2, 265533, Note_on_c, 0, 89, 85
2, 265545, Note_on_c, 0, 61, 77
2, 265549, Note_on_c, 0, 53, 0
2, 265579, Note_on_c, 0, 89, 0
2, 265587, Note_on_c, 0, 94, 85
2, 265591, Note_on_c, 0, 68, 70
2, 265622, Note_on_c, 0, 61, 0
2, 265630, Note_on_c, 0, 68, 0
2, 265636, Note_on_c, 0, 92, 88
2, 265641, Note_on_c, 0, 94, 0
2, 265686, Note_on_c, 0, 92, 0
2, 265686, Note_on_c, 0, 89, 76
2, 265699, Note_on_c, 0, 53, 59
2, 265723, Note_on_c, 0, 89, 0
2, 265732, Note_on_c, 0, 53, 0
2, 265732, Note_on_c, 0, 61, 61
2, 265744, Note_on_c, 0, 83, 60
2, 265761, Note_on_c, 0, 68, 80
2, 265781, Note_on_c, 0, 83, 0
2, 265791, Note_on_c, 0, 61, 0
2, 265794, Note_on_c, 0, 68, 0
2, 265818, Note_on_c, 0, 82, 80
2, 265868, Note_on_c, 0, 82, 0
2, 265877, Note_on_c, 0, 80, 81
2, 265908, Note_on_c, 0, 80, 0
2, 265960, Note_on_c, 0, 54, 44
2, 265969, Note_on_c, 0, 61, 57
2, 265992, Note_on_c, 0, 66, 61
2, 266019, Note_on_c, 0, 70, 74
2, 266024, Control_c, 0, 64, 63
2, 266025, Control_c, 0, 64, 127
2, 266104, Note_on_c, 0, 66, 0
2, 266119, Note_on_c, 0, 61, 0
2, 266136, Note_on_c, 0, 80, 66
2, 266141, Note_on_c, 0, 54, 0
2, 266171, Note_on_c, 0, 70, 0
2, 266214, Note_on_c, 0, 78, 60
2, 266215, Note_on_c, 0, 80, 0
2, 266264, Note_on_c, 0, 42, 67
2, 266279, Note_on_c, 0, 78, 0
2, 266286, Note_on_c, 0, 85, 81
2, 266307, Note_on_c, 0, 42, 0
2, 266347, Note_on_c, 0, 85, 0
2, 266360, Note_on_c, 0, 80, 72
2, 266420, Note_on_c, 0, 80, 0
2, 266422, Note_on_c, 0, 78, 52
2, 266476, Note_on_c, 0, 66, 78
2, 266477, Note_on_c, 0, 61, 74
2, 266490, Note_on_c, 0, 70, 57
2, 266491, Note_on_c, 0, 78, 0
2, 266562, Note_on_c, 0, 80, 53
2, 266570, Note_on_c, 0, 70, 0
2, 266609, Note_on_c, 0, 78, 69
2, 266612, Note_on_c, 0, 80, 0
2, 266656, Note_on_c, 0, 61, 0
2, 266665, Note_on_c, 0, 78, 0
2, 266668, Note_on_c, 0, 85, 81
2, 266709, Note_on_c, 0, 85, 0
2, 266736, Note_on_c, 0, 80, 67
2, 266792, Note_on_c, 0, 78, 53
2, 266800, Note_on_c, 0, 80, 0
2, 266838, Note_on_c, 0, 64, 72
2, 266844, Control_c, 0, 64, 63
2, 266848, Note_on_c, 0, 70, 68
2, 266852, Control_c, 0, 64, 0
2, 266854, Note_on_c, 0, 78, 0
2, 266870, Note_on_c, 0, 64, 0
2, 266915, Note_on_c, 0, 80, 63
2, 266924, Note_on_c, 0, 70, 0
2, 266972, Note_on_c, 0, 78, 72
2, 266986, Note_on_c, 0, 80, 0
2, 267001, Note_on_c, 0, 54, 81
2, 267006, Control_c, 0, 64, 63
2, 267008, Control_c, 0, 64, 127
2, 267027, Note_on_c, 0, 85, 84
2, 267030, Note_on_c, 0, 78, 0
2, 267042, Note_on_c, 0, 54, 0
2, 267082, Note_on_c, 0, 85, 0
2, 267085, Note_on_c, 0, 80, 68
2, 267096, Note_on_c, 0, 66, 0
2, 267118, Note_on_c, 0, 78, 64
2, 267144, Note_on_c, 0, 80, 0
2, 267171, Note_on_c, 0, 78, 0
2, 267177, Note_on_c, 0, 72, 72
2, 267181, Note_on_c, 0, 66, 80
2, 267184, Note_on_c, 0, 63, 85
2, 267184, Control_c, 0, 64, 63
2, 267197, Control_c, 0, 64, 127
2, 267239, Note_on_c, 0, 72, 0
2, 267239, Note_on_c, 0, 80, 74
2, 267291, Note_on_c, 0, 78, 77
2, 267302, Note_on_c, 0, 80, 0
2, 267338, Note_on_c, 0, 78, 0
2, 267348, Note_on_c, 0, 87, 97
2, 267399, Note_on_c, 0, 63, 0
2, 267400, Note_on_c, 0, 87, 0
2, 267403, Note_on_c, 0, 80, 77
2, 267460, Note_on_c, 0, 78, 58
2, 267477, Note_on_c, 0, 80, 0
2, 267493, Control_c, 0, 64, 63
2, 267506, Note_on_c, 0, 64, 76
2, 267515, Control_c, 0, 64, 127
2, 267520, Note_on_c, 0, 73, 81
2, 267522, Note_on_c, 0, 78, 0
2, 267528, Note_on_c, 0, 64, 0
2, 267575, Note_on_c, 0, 73, 0
2, 267576, Note_on_c, 0, 80, 76
2, 267612, Note_on_c, 0, 78, 84
2, 267627, Note_on_c, 0, 80, 0
2, 267645, Note_on_c, 0, 78, 0
2, 267659, Note_on_c, 0, 54, 84
2, 267666, Note_on_c, 0, 88, 94
2, 267693, Note_on_c, 0, 54, 0
2, 267703, Note_on_c, 0, 88, 0
2, 267703, Note_on_c, 0, 66, 0
2, 267723, Note_on_c, 0, 80, 98
2, 267770, Note_on_c, 0, 80, 0
2, 267773, Note_on_c, 0, 78, 76
2, 267825, Note_on_c, 0, 78, 0
2, 267828, Note_on_c, 0, 69, 84
2, 267828, Note_on_c, 0, 72, 72
2, 267829, Note_on_c, 0, 63, 89
2, 267853, Control_c, 0, 64, 63
2, 267881, Note_on_c, 0, 80, 88
2, 267893, Control_c, 0, 64, 127
2, 267899, Note_on_c, 0, 72, 0
2, 267933, Note_on_c, 0, 78, 85
2, 267943, Note_on_c, 0, 80, 0
2, 267985, Note_on_c, 0, 84, 85
2, 267990, Note_on_c, 0, 78, 0
2, 268009, Note_on_c, 0, 69, 0
2, 268040, Note_on_c, 0, 84, 0
2, 268042, Note_on_c, 0, 80, 79
2, 268092, Note_on_c, 0, 78, 75
2, 268107, Note_on_c, 0, 80, 0
2, 268112, Note_on_c, 0, 63, 0
2, 268134, Control_c, 0, 64, 63
2, 268147, Note_on_c, 0, 70, 86
2, 268152, Note_on_c, 0, 78, 0
2, 268156, Note_on_c, 0, 64, 69
2, 268160, Note_on_c, 0, 73, 79
2, 268169, Control_c, 0, 64, 127
2, 268177, Note_on_c, 0, 64, 0
2, 268178, Note_on_c, 0, 70, 0
2, 268218, Note_on_c, 0, 73, 0
2, 268220, Note_on_c, 0, 80, 69
2, 268265, Note_on_c, 0, 78, 72
2, 268267, Note_on_c, 0, 80, 0
2, 268307, Note_on_c, 0, 78, 0
2, 268309, Note_on_c, 0, 54, 67
2, 268312, Note_on_c, 0, 85, 81
2, 268362, Note_on_c, 0, 85, 0
2, 268364, Note_on_c, 0, 54, 0
2, 268368, Note_on_c, 0, 80, 65
2, 268420, Control_c, 0, 64, 63
2, 268421, Note_on_c, 0, 78, 72
2, 268423, Note_on_c, 0, 80, 0
2, 268431, Note_on_c, 0, 61, 57
2, 268456, Control_c, 0, 64, 127
2, 268462, Note_on_c, 0, 78, 0
2, 268491, Note_on_c, 0, 65, 45
2, 268504, Note_on_c, 0, 71, 76
2, 268558, Note_on_c, 0, 71, 0
2, 268588, Note_on_c, 0, 82, 71
2, 268638, Note_on_c, 0, 80, 75
2, 268651, Note_on_c, 0, 82, 0
2, 268651, Note_on_c, 0, 65, 0
2, 268697, Note_on_c, 0, 85, 87
2, 268699, Note_on_c, 0, 80, 0
2, 268765, Note_on_c, 0, 85, 0
2, 268771, Note_on_c, 0, 82, 69
2, 268831, Note_on_c, 0, 80, 76
2, 268846, Note_on_c, 0, 82, 0
2, 268851, Control_c, 0, 64, 63
2, 268857, Control_c, 0, 64, 0
2, 268897, Note_on_c, 0, 66, 65
2, 268898, Note_on_c, 0, 80, 0
2, 268909, Note_on_c, 0, 70, 65
2, 268927, Control_c, 0, 64, 63
2, 268932, Control_c, 0, 64, 127
2, 268940, Note_on_c, 0, 66, 0
2, 268941, Note_on_c, 0, 61, 0
2, 268974, Note_on_c, 0, 70, 0
2, 268977, Note_on_c, 0, 80, 57
2, 269038, Note_on_c, 0, 78, 64
2, 269043, Note_on_c, 0, 80, 0
2, 269072, Note_on_c, 0, 42, 66
2, 269101, Note_on_c, 0, 78, 0
2, 269107, Note_on_c, 0, 85, 67
2, 269114, Note_on_c, 0, 42, 0
2, 269165, Note_on_c, 0, 85, 0
2, 269165, Note_on_c, 0, 80, 69
2, 269208, Note_on_c, 0, 78, 62
2, 269224, Note_on_c, 0, 80, 0
2, 269258, Note_on_c, 0, 66, 65
2, 269258, Note_on_c, 0, 61, 76
2, 269262, Note_on_c, 0, 78, 0
2, 269266, Note_on_c, 0, 70, 77
2, 269279, Control_c, 0, 64, 63
2, 269285, Control_c, 0, 64, 0
2, 269321, Control_c, 0, 64, 63
2, 269326, Note_on_c, 0, 80, 64
2, 269333, Control_c, 0, 64, 127
2, 269334, Note_on_c, 0, 70, 0
2, 269370, Note_on_c, 0, 78, 74
2, 269391, Note_on_c, 0, 80, 0
2, 269427, Note_on_c, 0, 85, 88
2, 269433, Note_on_c, 0, 78, 0
2, 269451, Note_on_c, 0, 61, 0
2, 269484, Note_on_c, 0, 80, 66
2, 269489, Note_on_c, 0, 85, 0
2, 269536, Note_on_c, 0, 78, 63
2, 269546, Note_on_c, 0, 80, 0
2, 269582, Control_c, 0, 64, 63
2, 269585, Control_c, 0, 64, 0
2, 269586, Note_on_c, 0, 64, 71
2, 269593, Note_on_c, 0, 70, 76
2, 269594, Note_on_c, 0, 78, 0
2, 269626, Note_on_c, 0, 64, 0
2, 269651, Note_on_c, 0, 80, 65
2, 269656, Note_on_c, 0, 70, 0
2, 269697, Note_on_c, 0, 78, 70
2, 269721, Note_on_c, 0, 80, 0
2, 269747, Control_c, 0, 64, 63
2, 269749, Note_on_c, 0, 54, 51
2, 269750, Control_c, 0, 64, 127
2, 269753, Note_on_c, 0, 85, 84
2, 269762, Note_on_c, 0, 78, 0
2, 269791, Note_on_c, 0, 54, 0
2, 269809, Note_on_c, 0, 80, 65
2, 269827, Note_on_c, 0, 85, 0
2, 269837, Note_on_c, 0, 66, 0
2, 269858, Note_on_c, 0, 78, 62
2, 269881, Note_on_c, 0, 80, 0
2, 269917, Note_on_c, 0, 72, 65
2, 269917, Note_on_c, 0, 66, 72
2, 269918, Note_on_c, 0, 63, 75
2, 269925, Note_on_c, 0, 78, 0
2, 269975, Note_on_c, 0, 72, 0
2, 269981, Note_on_c, 0, 80, 65
2, 270025, Note_on_c, 0, 78, 72
2, 270040, Note_on_c, 0, 80, 0
2, 270066, Note_on_c, 0, 78, 0
2, 270078, Note_on_c, 0, 87, 91
2, 270130, Note_on_c, 0, 87, 0
2, 270139, Note_on_c, 0, 80, 76
2, 270188, Note_on_c, 0, 78, 67
2, 270197, Note_on_c, 0, 80, 0
2, 270205, Note_on_c, 0, 63, 0
2, 270208, Control_c, 0, 64, 63
2, 270232, Note_on_c, 0, 64, 82
2, 270238, Note_on_c, 0, 78, 0
2, 270241, Note_on_c, 0, 73, 76
2, 270244, Control_c, 0, 64, 127
2, 270261, Note_on_c, 0, 64, 0
2, 270299, Note_on_c, 0, 80, 65
2, 270300, Note_on_c, 0, 73, 0
2, 270349, Note_on_c, 0, 78, 76
2, 270355, Note_on_c, 0, 80, 0
2, 270382, Note_on_c, 0, 78, 0
2, 270390, Note_on_c, 0, 54, 85
2, 270402, Note_on_c, 0, 88, 91
2, 270426, Note_on_c, 0, 54, 0
2, 270435, Note_on_c, 0, 66, 0
2, 270440, Note_on_c, 0, 88, 0
2, 270462, Note_on_c, 0, 80, 88
2, 270509, Note_on_c, 0, 78, 74
2, 270512, Note_on_c, 0, 80, 0
2, 270558, Note_on_c, 0, 78, 0
2, 270558, Note_on_c, 0, 72, 62
2, 270562, Note_on_c, 0, 69, 76
2, 270564, Note_on_c, 0, 63, 81
2, 270589, Control_c, 0, 64, 63
2, 270598, Control_c, 0, 64, 0
2, 270614, Note_on_c, 0, 80, 77
2, 270618, Control_c, 0, 64, 63
2, 270641, Control_c, 0, 64, 127
2, 270645, Note_on_c, 0, 72, 0
2, 270666, Note_on_c, 0, 78, 75
2, 270679, Note_on_c, 0, 80, 0
2, 270723, Note_on_c, 0, 84, 77
2, 270725, Note_on_c, 0, 78, 0
2, 270781, Note_on_c, 0, 69, 0
2, 270790, Note_on_c, 0, 80, 64
2, 270800, Note_on_c, 0, 84, 0
2, 270825, Note_on_c, 0, 78, 74
2, 270853, Note_on_c, 0, 80, 0
2, 270876, Control_c, 0, 64, 63
2, 270884, Note_on_c, 0, 70, 83
2, 270888, Note_on_c, 0, 78, 0
2, 270890, Note_on_c, 0, 63, 0
2, 270891, Note_on_c, 0, 73, 70
2, 270893, Note_on_c, 0, 64, 68
2, 270903, Control_c, 0, 64, 127
2, 270946, Note_on_c, 0, 80, 67
2, 270947, Note_on_c, 0, 64, 0
2, 270954, Note_on_c, 0, 70, 0
2, 270961, Note_on_c, 0, 73, 0
2, 270995, Note_on_c, 0, 78, 74
2, 271000, Note_on_c, 0, 80, 0
2, 271034, Note_on_c, 0, 54, 80
2, 271037, Note_on_c, 0, 85, 88
2, 271046, Note_on_c, 0, 78, 0
2, 271099, Note_on_c, 0, 80, 71
2, 271100, Note_on_c, 0, 85, 0
2, 271121, Note_on_c, 0, 54, 0
2, 271156, Note_on_c, 0, 78, 70
2, 271163, Note_on_c, 0, 61, 63
2, 271164, Note_on_c, 0, 80, 0
2, 271194, Control_c, 0, 64, 63
2, 271206, Note_on_c, 0, 65, 51
2, 271216, Note_on_c, 0, 78, 0
2, 271217, Note_on_c, 0, 71, 70
2, 271219, Control_c, 0, 64, 127
2, 271265, Note_on_c, 0, 71, 0
2, 271284, Note_on_c, 0, 82, 77
2, 271336, Note_on_c, 0, 80, 72
2, 271344, Note_on_c, 0, 82, 0
2, 271344, Note_on_c, 0, 65, 0
2, 271392, Note_on_c, 0, 85, 78
2, 271395, Note_on_c, 0, 80, 0
2, 271461, Note_on_c, 0, 82, 66
2, 271465, Note_on_c, 0, 85, 0
2, 271540, Note_on_c, 0, 80, 63
2, 271561, Note_on_c, 0, 82, 0
2, 271592, Control_c, 0, 64, 63
2, 271598, Control_c, 0, 64, 0
2, 271610, Note_on_c, 0, 66, 57
2, 271621, Note_on_c, 0, 80, 0
2, 271626, Note_on_c, 0, 70, 61
2, 271629, Control_c, 0, 64, 63
2, 271641, Control_c, 0, 64, 127
2, 271669, Note_on_c, 0, 61, 0
2, 271671, Note_on_c, 0, 66, 0
2, 271704, Note_on_c, 0, 80, 54
2, 271714, Note_on_c, 0, 70, 0
2, 271763, Note_on_c, 0, 78, 70
2, 271773, Note_on_c, 0, 80, 0
2, 271802, Note_on_c, 0, 42, 60
2, 271822, Note_on_c, 0, 78, 0
2, 271824, Note_on_c, 0, 85, 72
2, 271850, Note_on_c, 0, 42, 0
2, 271886, Note_on_c, 0, 85, 0
2, 271889, Note_on_c, 0, 80, 54
2, 271940, Note_on_c, 0, 78, 55
2, 271946, Note_on_c, 0, 80, 0
2, 271990, Note_on_c, 0, 66, 57
2, 271992, Note_on_c, 0, 61, 60
2, 271998, Note_on_c, 0, 78, 0
2, 271998, Note_on_c, 0, 70, 66
2, 272057, Note_on_c, 0, 70, 0
2, 272057, Note_on_c, 0, 80, 59
2, 272099, Note_on_c, 0, 78, 75
2, 272109, Note_on_c, 0, 80, 0
2, 272122, Note_on_c, 0, 61, 0
2, 272146, Note_on_c, 0, 78, 0
2, 272149, Note_on_c, 0, 85, 87
2, 272206, Note_on_c, 0, 85, 0
2, 272211, Note_on_c, 0, 80, 53
2, 272268, Note_on_c, 0, 78, 69
2, 272270, Note_on_c, 0, 80, 0
2, 272308, Note_on_c, 0, 64, 75
2, 272324, Note_on_c, 0, 70, 70
2, 272327, Note_on_c, 0, 78, 0
2, 272347, Note_on_c, 0, 64, 0
2, 272383, Note_on_c, 0, 70, 0
2, 272384, Note_on_c, 0, 80, 65
2, 272423, Note_on_c, 0, 78, 80
2, 272436, Note_on_c, 0, 80, 0
2, 272469, Note_on_c, 0, 54, 80
2, 272483, Note_on_c, 0, 85, 89
2, 272485, Note_on_c, 0, 78, 0
2, 272509, Note_on_c, 0, 54, 0
2, 272539, Note_on_c, 0, 80, 68
2, 272542, Note_on_c, 0, 66, 0
2, 272543, Note_on_c, 0, 85, 0
2, 272580, Note_on_c, 0, 78, 74
2, 272604, Note_on_c, 0, 80, 0
2, 272635, Note_on_c, 0, 69, 71
2, 272635, Note_on_c, 0, 63, 81
2, 272640, Note_on_c, 0, 72, 65
2, 272648, Note_on_c, 0, 78, 0
2, 272689, Note_on_c, 0, 72, 0
2, 272698, Note_on_c, 0, 80, 75
2, 272738, Note_on_c, 0, 78, 82
2, 272749, Note_on_c, 0, 80, 0
2, 272776, Note_on_c, 0, 78, 0
2, 272777, Note_on_c, 0, 69, 0
2, 272786, Note_on_c, 0, 87, 97
2, 272833, Note_on_c, 0, 87, 0
2, 272845, Note_on_c, 0, 80, 76
2, 272896, Note_on_c, 0, 78, 57
2, 272903, Note_on_c, 0, 80, 0
2, 272943, Note_on_c, 0, 70, 84
2, 272944, Note_on_c, 0, 78, 0
2, 272946, Note_on_c, 0, 73, 73
2, 272957, Note_on_c, 0, 64, 67
2, 272963, Note_on_c, 0, 63, 0
2, 272976, Note_on_c, 0, 70, 0
2, 272979, Note_on_c, 0, 64, 0
2, 273007, Note_on_c, 0, 73, 0
2, 273012, Note_on_c, 0, 80, 74
2, 273057, Note_on_c, 0, 78, 69
2, 273067, Note_on_c, 0, 80, 0
2, 273078, Note_on_c, 0, 78, 0
2, 273097, Note_on_c, 0, 54, 85
2, 273112, Note_on_c, 0, 88, 93
2, 273141, Note_on_c, 0, 54, 0
2, 273149, Note_on_c, 0, 88, 0
2, 273168, Note_on_c, 0, 80, 92
2, 273224, Note_on_c, 0, 78, 70
2, 273228, Note_on_c, 0, 80, 0
2, 273267, Note_on_c, 0, 71, 81
2, 273269, Note_on_c, 0, 65, 80
2, 273271, Note_on_c, 0, 74, 60
2, 273274, Note_on_c, 0, 78, 0
2, 273297, Note_on_c, 0, 71, 0
2, 273305, Note_on_c, 0, 65, 0
2, 273324, Note_on_c, 0, 74, 0
2, 273330, Note_on_c, 0, 81, 70
2, 273365, Note_on_c, 0, 81, 0
2, 273370, Note_on_c, 0, 80, 82
2, 273405, Note_on_c, 0, 80, 0
2, 273420, Note_on_c, 0, 54, 96
2, 273429, Note_on_c, 0, 89, 86
2, 273458, Note_on_c, 0, 54, 0
2, 273463, Note_on_c, 0, 89, 0
2, 273491, Note_on_c, 0, 81, 70
2, 273529, Note_on_c, 0, 81, 0
2, 273532, Note_on_c, 0, 80, 88
2, 273576, Note_on_c, 0, 80, 0
2, 273586, Note_on_c, 0, 72, 87
2, 273589, Note_on_c, 0, 75, 82
2, 273590, Note_on_c, 0, 66, 88
2, 273616, Note_on_c, 0, 72, 0
2, 273624, Note_on_c, 0, 66, 0
2, 273637, Note_on_c, 0, 82, 80
2, 273643, Note_on_c, 0, 75, 0
2, 273687, Note_on_c, 0, 81, 75
2, 273729, Note_on_c, 0, 81, 0
2, 273738, Note_on_c, 0, 82, 0
2, 273738, Note_on_c, 0, 90, 96
2, 273740, Note_on_c, 0, 54, 92
2, 273783, Note_on_c, 0, 54, 0
2, 273793, Note_on_c, 0, 82, 88
2, 273796, Note_on_c, 0, 90, 0
2, 273849, Note_on_c, 0, 81, 71
2, 273865, Note_on_c, 0, 82, 0
2, 273901, Note_on_c, 0, 73, 100
2, 273902, Note_on_c, 0, 81, 0
2, 273906, Note_on_c, 0, 67, 82
2, 273906, Note_on_c, 0, 76, 83
2, 273929, Note_on_c, 0, 73, 0
2, 273934, Note_on_c, 0, 67, 0
2, 273954, Note_on_c, 0, 76, 0
2, 273967, Note_on_c, 0, 83, 84
2, 274001, Note_on_c, 0, 82, 93
2, 274012, Note_on_c, 0, 83, 0
2, 274029, Note_on_c, 0, 82, 0
2, 274052, Note_on_c, 0, 54, 108
2, 274055, Note_on_c, 0, 91, 99
2, 274084, Note_on_c, 0, 54, 0
2, 274095, Note_on_c, 0, 91, 0
2, 274115, Note_on_c, 0, 83, 84
2, 274165, Note_on_c, 0, 82, 83
2, 274166, Note_on_c, 0, 83, 0
2, 274201, Control_c, 0, 64, 63
2, 274209, Note_on_c, 0, 74, 97
2, 274212, Note_on_c, 0, 68, 101
2, 274215, Note_on_c, 0, 77, 73
2, 274217, Note_on_c, 0, 82, 0
2, 274217, Control_c, 0, 64, 127
2, 274239, Note_on_c, 0, 74, 0
2, 274248, Note_on_c, 0, 68, 0
2, 274259, Note_on_c, 0, 77, 0
2, 274262, Note_on_c, 0, 85, 89
2, 274309, Note_on_c, 0, 83, 80
2, 274319, Note_on_c, 0, 85, 0
2, 274354, Note_on_c, 0, 83, 0
2, 274362, Note_on_c, 0, 92, 105
2, 274367, Note_on_c, 0, 54, 107
2, 274395, Note_on_c, 0, 54, 0
2, 274409, Note_on_c, 0, 85, 92
2, 274415, Note_on_c, 0, 92, 0
2, 274464, Note_on_c, 0, 83, 69
2, 274474, Note_on_c, 0, 85, 0
2, 274507, Control_c, 0, 64, 63
2, 274510, Note_on_c, 0, 75, 110
2, 274513, Note_on_c, 0, 69, 87
2, 274518, Note_on_c, 0, 78, 89
2, 274526, Note_on_c, 0, 83, 0
2, 274526, Control_c, 0, 64, 127
2, 274535, Note_on_c, 0, 75, 0
2, 274546, Note_on_c, 0, 69, 0
2, 274560, Note_on_c, 0, 78, 0
2, 274574, Note_on_c, 0, 86, 73
2, 274618, Note_on_c, 0, 84, 87
2, 274640, Note_on_c, 0, 86, 0
2, 274657, Note_on_c, 0, 84, 0
2, 274665, Note_on_c, 0, 93, 99
2, 274666, Note_on_c, 0, 54, 113
2, 274693, Note_on_c, 0, 54, 0
2, 274716, Note_on_c, 0, 86, 99
2, 274723, Note_on_c, 0, 93, 0
2, 274773, Note_on_c, 0, 84, 90
2, 274784, Note_on_c, 0, 86, 0
2, 274812, Control_c, 0, 64, 63
2, 274815, Control_c, 0, 64, 127
2, 274817, Note_on_c, 0, 84, 0
2, 274821, Note_on_c, 0, 76, 101
2, 274824, Note_on_c, 0, 70, 109
2, 274826, Note_on_c, 0, 79, 88
2, 274849, Note_on_c, 0, 76, 0
2, 274858, Note_on_c, 0, 70, 0
2, 274870, Note_on_c, 0, 79, 0
2, 274884, Note_on_c, 0, 87, 95
2, 274926, Note_on_c, 0, 85, 99
2, 274936, Note_on_c, 0, 87, 0
2, 274965, Note_on_c, 0, 85, 0
2, 274974, Note_on_c, 0, 94, 105
2, 274979, Note_on_c, 0, 54, 114
2, 275002, Note_on_c, 0, 54, 0
2, 275024, Note_on_c, 0, 87, 100
2, 275033, Note_on_c, 0, 94, 0
2, 275076, Note_on_c, 0, 85, 96
2, 275095, Note_on_c, 0, 87, 0
2, 275095, Control_c, 0, 64, 63
2, 275099, Control_c, 0, 64, 127
2, 275125, Note_on_c, 0, 77, 108
2, 275125, Note_on_c, 0, 71, 102
2, 275128, Note_on_c, 0, 80, 107
2, 275146, Note_on_c, 0, 85, 0
2, 275153, Note_on_c, 0, 77, 0
2, 275163, Note_on_c, 0, 71, 0
2, 275178, Note_on_c, 0, 80, 0
2, 275180, Note_on_c, 0, 88, 87
2, 275223, Note_on_c, 0, 86, 101
2, 275250, Note_on_c, 0, 88, 0
2, 275267, Note_on_c, 0, 86, 0
2, 275274, Note_on_c, 0, 54, 114
2, 275280, Note_on_c, 0, 95, 100
2, 275303, Note_on_c, 0, 54, 0
2, 275331, Note_on_c, 0, 88, 107
2, 275338, Note_on_c, 0, 95, 0
2, 275384, Note_on_c, 0, 86, 102
2, 275395, Note_on_c, 0, 88, 0
2, 275408, Control_c, 0, 64, 63
2, 275419, Control_c, 0, 64, 127
2, 275422, Note_on_c, 0, 78, 113
2, 275424, Note_on_c, 0, 72, 99
2, 275430, Note_on_c, 0, 81, 93
2, 275431, Note_on_c, 0, 86, 0
2, 275446, Note_on_c, 0, 78, 0
2, 275453, Note_on_c, 0, 72, 0
2, 275470, Note_on_c, 0, 81, 0
2, 275482, Note_on_c, 0, 88, 98
2, 275523, Note_on_c, 0, 87, 110
2, 275542, Note_on_c, 0, 88, 0
2, 275558, Note_on_c, 0, 87, 0
2, 275572, Note_on_c, 0, 54, 115
2, 275582, Note_on_c, 0, 96, 91
2, 275596, Note_on_c, 0, 54, 0
2, 275612, Note_on_c, 0, 96, 0
2, 275635, Note_on_c, 0, 88, 94
2, 275674, Note_on_c, 0, 88, 0
2, 275676, Note_on_c, 0, 87, 107
2, 275718, Note_on_c, 0, 87, 0
2, 275718, Control_c, 0, 64, 63
2, 275725, Note_on_c, 0, 78, 118
2, 275728, Note_on_c, 0, 73, 115
2, 275729, Note_on_c, 0, 82, 106
2, 275736, Control_c, 0, 64, 127
2, 275754, Note_on_c, 0, 78, 0
2, 275757, Note_on_c, 0, 73, 0
2, 275779, Note_on_c, 0, 90, 103
2, 275786, Note_on_c, 0, 82, 0
2, 275822, Note_on_c, 0, 88, 92
2, 275845, Note_on_c, 0, 90, 0
2, 275869, Note_on_c, 0, 54, 115
2, 275872, Note_on_c, 0, 88, 0
2, 275874, Note_on_c, 0, 97, 113
2, 275896, Note_on_c, 0, 54, 0
2, 275922, Note_on_c, 0, 90, 100
2, 275933, Note_on_c, 0, 97, 0
2, 275969, Note_on_c, 0, 88, 96
2, 275992, Note_on_c, 0, 90, 0
2, 276019, Note_on_c, 0, 78, 123
2, 276021, Note_on_c, 0, 73, 118
2, 276022, Note_on_c, 0, 82, 109
2, 276043, Note_on_c, 0, 88, 0
2, 276047, Note_on_c, 0, 78, 0
2, 276050, Note_on_c, 0, 73, 0
2, 276073, Note_on_c, 0, 90, 104
2, 276079, Note_on_c, 0, 82, 0
2, 276119, Note_on_c, 0, 88, 91
2, 276144, Note_on_c, 0, 90, 0
2, 276160, Note_on_c, 0, 54, 124
2, 276164, Note_on_c, 0, 88, 0
2, 276166, Note_on_c, 0, 97, 113
2, 276186, Note_on_c, 0, 54, 0
2, 276213, Note_on_c, 0, 90, 96
2, 276231, Note_on_c, 0, 97, 0
2, 276259, Note_on_c, 0, 88, 84
2, 276288, Note_on_c, 0, 90, 0
2, 276312, Note_on_c, 0, 75, 125
2, 276313, Note_on_c, 0, 78, 121
2, 276315, Note_on_c, 0, 84, 98
2, 276322, Note_on_c, 0, 88, 0
2, 276338, Note_on_c, 0, 78, 0
2, 276339, Note_on_c, 0, 75, 0
2, 276353, Note_on_c, 0, 84, 0
2, 276366, Note_on_c, 0, 92, 110
2, 276408, Note_on_c, 0, 90, 106
2, 276433, Note_on_c, 0, 92, 0
2, 276455, Note_on_c, 0, 90, 0
2, 276457, Note_on_c, 0, 54, 123
2, 276460, Note_on_c, 0, 99, 115
2, 276478, Note_on_c, 0, 54, 0
2, 276506, Note_on_c, 0, 92, 108
2, 276517, Note_on_c, 0, 99, 0
2, 276551, Note_on_c, 0, 90, 103
2, 276564, Note_on_c, 0, 92, 0
2, 276577, Control_c, 0, 64, 63
2, 276580, Note_on_c, 0, 73, 87
2, 276583, Control_c, 0, 64, 127
2, 276604, Note_on_c, 0, 76, 86
2, 276622, Note_on_c, 0, 78, 112
2, 276628, Note_on_c, 0, 90, 0
2, 276629, Note_on_c, 0, 85, 120
2, 276635, Control_c, 0, 64, 127
2, 276700, Note_on_c, 0, 76, 0
2, 276704, Note_on_c, 0, 78, 0
2, 276706, Note_on_c, 0, 92, 103
2, 276716, Note_on_c, 0, 73, 0
2, 276729, Note_on_c, 0, 85, 0
2, 276761, Note_on_c, 0, 90, 101
2, 276786, Note_on_c, 0, 92, 0
2, 276808, Note_on_c, 0, 90, 0
2, 276838, Note_on_c, 0, 66, 113
2, 276840, Note_on_c, 0, 100, 106
2, 276870, Note_on_c, 0, 66, 0
2, 276925, Note_on_c, 0, 100, 0
2, 276932, Note_on_c, 0, 97, 110
2, 277003, Note_on_c, 0, 94, 107
2, 277022, Note_on_c, 0, 97, 0
2, 277073, Note_on_c, 0, 90, 112
2, 277079, Note_on_c, 0, 82, 120
2, 277093, Note_on_c, 0, 94, 0
2, 277108, Note_on_c, 0, 82, 0
2, 277154, Note_on_c, 0, 90, 0
2, 277157, Note_on_c, 0, 88, 104
2, 277201, Note_on_c, 0, 88, 0
2, 277223, Note_on_c, 0, 85, 106
2, 277269, Note_on_c, 0, 85, 0
2, 277275, Note_on_c, 0, 82, 105
2, 277320, Note_on_c, 0, 82, 0
2, 277327, Note_on_c, 0, 78, 108
2, 277364, Note_on_c, 0, 78, 0
2, 277374, Note_on_c, 0, 76, 96
2, 277415, Note_on_c, 0, 76, 0
2, 277429, Note_on_c, 0, 64, 99
2, 277431, Note_on_c, 0, 54, 97
2, 277444, Note_on_c, 0, 73, 107
2, 277458, Note_on_c, 0, 64, 0
2, 277463, Note_on_c, 0, 54, 0
2, 277499, Note_on_c, 0, 70, 109
2, 277510, Note_on_c, 0, 73, 0
2, 277555, Note_on_c, 0, 73, 106
2, 277559, Note_on_c, 0, 70, 0
2, 277608, Note_on_c, 0, 70, 105
2, 277615, Note_on_c, 0, 73, 0
2, 277659, Note_on_c, 0, 70, 0
2, 277664, Note_on_c, 0, 66, 110
2, 277708, Note_on_c, 0, 66, 0
2, 277721, Note_on_c, 0, 64, 107
2, 277754, Note_on_c, 0, 64, 0
2, 277779, Note_on_c, 0, 61, 105
2, 277823, Note_on_c, 0, 61, 0
2, 277829, Note_on_c, 0, 58, 106
2, 277865, Note_on_c, 0, 58, 0
2, 277878, Note_on_c, 0, 54, 101
2, 277910, Note_on_c, 0, 54, 0
2, 277932, Note_on_c, 0, 52, 96
2, 277970, Note_on_c, 0, 52, 0
2, 277989, Note_on_c, 0, 49, 92
2, 278042, Note_on_c, 0, 49, 0
2, 278051, Note_on_c, 0, 46, 86
2, 278089, Note_on_c, 0, 46, 0
2, 278154, Note_on_c, 0, 42, 86
2, 278157, Note_on_c, 0, 30, 85
2, 278206, Control_c, 0, 64, 63
2, 278214, Control_c, 0, 64, 0
2, 278286, Control_c, 0, 64, 63
2, 278295, Note_on_c, 0, 44, 76
2, 278296, Note_on_c, 0, 42, 0
2, 278297, Control_c, 0, 64, 127
2, 278303, Note_on_c, 0, 32, 64
2, 278317, Note_on_c, 0, 30, 0
2, 278373, Note_on_c, 0, 46, 85
2, 278380, Note_on_c, 0, 44, 0
2, 278393, Note_on_c, 0, 34, 55
2, 278401, Note_on_c, 0, 32, 0
2, 278427, Note_on_c, 0, 46, 0
2, 278446, Note_on_c, 0, 47, 76
2, 278450, Note_on_c, 0, 34, 0
2, 278458, Note_on_c, 0, 35, 68
2, 278504, Note_on_c, 0, 47, 0
2, 278514, Note_on_c, 0, 35, 0
2, 278517, Note_on_c, 0, 37, 73
2, 278518, Note_on_c, 0, 49, 85
2, 278571, Note_on_c, 0, 51, 89
2, 278572, Note_on_c, 0, 49, 0
2, 278576, Control_c, 0, 64, 63
2, 278582, Note_on_c, 0, 37, 0
2, 278583, Note_on_c, 0, 39, 67
2, 278611, Control_c, 0, 64, 0
2, 278617, Note_on_c, 0, 51, 0
2, 278626, Note_on_c, 0, 39, 0
2, 278627, Note_on_c, 0, 52, 72
2, 278637, Note_on_c, 0, 40, 78
2, 278672, Note_on_c, 0, 52, 0
2, 278686, Note_on_c, 0, 40, 0
2, 278686, Note_on_c, 0, 54, 80
2, 278690, Note_on_c, 0, 42, 76
2, 278740, Note_on_c, 0, 56, 87
2, 278744, Note_on_c, 0, 54, 0
2, 278746, Note_on_c, 0, 42, 0
2, 278747, Note_on_c, 0, 44, 71
2, 278791, Note_on_c, 0, 58, 82
2, 278797, Note_on_c, 0, 56, 0
2, 278802, Note_on_c, 0, 44, 0
2, 278804, Note_on_c, 0, 46, 57
2, 278843, Note_on_c, 0, 58, 0
2, 278850, Note_on_c, 0, 46, 0
2, 278850, Note_on_c, 0, 59, 65
2, 278851, Note_on_c, 0, 47, 71
2, 278901, Note_on_c, 0, 59, 0
2, 278904, Note_on_c, 0, 49, 84
2, 278911, Note_on_c, 0, 47, 0
2, 278912, Note_on_c, 0, 61, 78
2, 278959, Note_on_c, 0, 63, 91
2, 278963, Note_on_c, 0, 61, 0
2, 278965, Note_on_c, 0, 49, 0
2, 278969, Note_on_c, 0, 51, 63
2, 278999, Note_on_c, 0, 63, 0
2, 279010, Note_on_c, 0, 51, 0
2, 279011, Note_on_c, 0, 64, 71
2, 279017, Note_on_c, 0, 52, 68
2, 279060, Note_on_c, 0, 64, 0
2, 279070, Note_on_c, 0, 66, 76
2, 279079, Note_on_c, 0, 52, 0
2, 279087, Note_on_c, 0, 54, 51
2, 279130, Note_on_c, 0, 66, 0
2, 279131, Note_on_c, 0, 56, 62
2, 279132, Note_on_c, 0, 68, 79
2, 279134, Note_on_c, 0, 54, 0
2, 279184, Note_on_c, 0, 70, 85
2, 279188, Note_on_c, 0, 68, 0
2, 279192, Note_on_c, 0, 56, 0
2, 279193, Note_on_c, 0, 58, 52
2, 279228, Note_on_c, 0, 70, 0
2, 279243, Note_on_c, 0, 58, 0
2, 279247, Note_on_c, 0, 71, 66
2, 279250, Note_on_c, 0, 59, 60
2, 279296, Note_on_c, 0, 71, 0
2, 279312, Note_on_c, 0, 59, 0
2, 279312, Note_on_c, 0, 61, 54
2, 279318, Note_on_c, 0, 73, 70
2, 279340, Control_c, 0, 67, 127
2, 279370, Note_on_c, 0, 61, 0
2, 279371, Note_on_c, 0, 73, 0
2, 279372, Note_on_c, 0, 75, 81
2, 279378, Note_on_c, 0, 63, 52
2, 279422, Note_on_c, 0, 75, 0
2, 279434, Note_on_c, 0, 63, 0
2, 279435, Note_on_c, 0, 76, 65
2, 279449, Note_on_c, 0, 64, 57
2, 279504, Note_on_c, 0, 76, 0
2, 279506, Note_on_c, 0, 78, 60
2, 279516, Note_on_c, 0, 64, 0
2, 279525, Note_on_c, 0, 66, 47
2, 279580, Note_on_c, 0, 78, 0
2, 279585, Note_on_c, 0, 66, 0
2, 279592, Note_on_c, 0, 80, 55
2, 279594, Note_on_c, 0, 68, 47
2, 279672, Note_on_c, 0, 68, 0
2, 279672, Note_on_c, 0, 80, 0
2, 279682, Note_on_c, 0, 82, 52
2, 279682, Note_on_c, 0, 70, 39
2, 279775, Note_on_c, 0, 82, 0
2, 279804, Note_on_c, 0, 70, 0
2, 279850, Note_on_c, 0, 71, 40
2, 279850, Note_on_c, 0, 83, 47
2, 280005, Control_c, 0, 64, 63
2, 280011, Control_c, 0, 64, 127
2, 280039, Note_on_c, 0, 71, 0
2, 280064, Note_on_c, 0, 83, 0
2, 280142, Control_c, 0, 67, 0
2, 280211, Control_c, 0, 64, 63
2, 280227, Control_c, 0, 64, 0
2, 282201, Note_on_c, 0, 83, 90
2, 282218, Note_on_c, 0, 71, 39
2, 282401, Note_on_c, 0, 87, 95
2, 282408, Note_on_c, 0, 75, 81
2, 282442, Note_on_c, 0, 83, 0
2, 282480, Note_on_c, 0, 71, 0
2, 282583, Note_on_c, 0, 80, 86
2, 282584, Note_on_c, 0, 92, 96
2, 282622, Note_on_c, 0, 75, 0
2, 282623, Note_on_c, 0, 87, 0
2, 282851, Note_on_c, 0, 92, 0
2, 282865, Note_on_c, 0, 90, 89
2, 282883, Note_on_c, 0, 78, 56
2, 282889, Note_on_c, 0, 80, 0
2, 282951, Note_on_c, 0, 92, 96
2, 282964, Note_on_c, 0, 80, 80
2, 282980, Note_on_c, 0, 78, 0
2, 282986, Note_on_c, 0, 90, 0
2, 283026, Note_on_c, 0, 90, 89
2, 283036, Note_on_c, 0, 80, 0
2, 283044, Note_on_c, 0, 78, 74
2, 283054, Note_on_c, 0, 92, 0
2, 283122, Note_on_c, 0, 83, 84
2, 283136, Note_on_c, 0, 71, 73
2, 283146, Note_on_c, 0, 90, 0
2, 283184, Note_on_c, 0, 78, 0
2, 283280, Note_on_c, 0, 85, 71
2, 283282, Note_on_c, 0, 73, 81
2, 283300, Note_on_c, 0, 71, 0
2, 283325, Note_on_c, 0, 83, 0
2, 283388, Note_on_c, 0, 71, 49
2, 283404, Note_on_c, 0, 85, 0
2, 283413, Note_on_c, 0, 83, 67
2, 283417, Note_on_c, 0, 73, 0
2, 283445, Note_on_c, 0, 73, 49
2, 283449, Note_on_c, 0, 85, 53
2, 283473, Note_on_c, 0, 83, 0
2, 283476, Note_on_c, 0, 71, 0
2, 283483, Note_on_c, 0, 87, 88
2, 283491, Note_on_c, 0, 75, 72
2, 283525, Note_on_c, 0, 85, 0
2, 283525, Note_on_c, 0, 73, 0
2, 284360, Note_on_c, 0, 85, 72
2, 284379, Note_on_c, 0, 75, 0
2, 284383, Note_on_c, 0, 73, 61
2, 284394, Note_on_c, 0, 87, 0
2, 284452, Note_on_c, 0, 83, 88
2, 284463, Note_on_c, 0, 71, 73
2, 284486, Note_on_c, 0, 73, 0
2, 284491, Note_on_c, 0, 85, 0
2, 284545, Note_on_c, 0, 78, 90
2, 284560, Note_on_c, 0, 66, 71
2, 284581, Note_on_c, 0, 83, 0
2, 284587, Note_on_c, 0, 71, 0
2, 284708, Note_on_c, 0, 78, 0
2, 284737, Note_on_c, 0, 80, 90
2, 284740, Note_on_c, 0, 68, 77
2, 284748, Note_on_c, 0, 66, 0
2, 284776, Note_on_c, 0, 82, 86
2, 284781, Note_on_c, 0, 80, 0
2, 284791, Note_on_c, 0, 70, 65
2, 284807, Note_on_c, 0, 68, 0
2, 284819, Note_on_c, 0, 80, 66
2, 284831, Note_on_c, 0, 82, 0
2, 284871, Note_on_c, 0, 68, 22
2, 284883, Note_on_c, 0, 70, 0
2, 284983, Note_on_c, 0, 78, 72
2, 285003, Note_on_c, 0, 66, 52
2, 285008, Note_on_c, 0, 68, 0
2, 285015, Note_on_c, 0, 80, 0
2, 285151, Note_on_c, 0, 78, 0
2, 285198, Note_on_c, 0, 63, 72
2, 285198, Note_on_c, 0, 75, 64
2, 285209, Note_on_c, 0, 66, 0
2, 285272, Note_on_c, 0, 76, 82
2, 285279, Note_on_c, 0, 64, 74
2, 285287, Note_on_c, 0, 75, 0
2, 285309, Note_on_c, 0, 63, 0
2, 285376, Note_on_c, 0, 78, 97
2, 285399, Note_on_c, 0, 66, 84
2, 285406, Note_on_c, 0, 76, 0
2, 285415, Note_on_c, 0, 64, 0
2, 285595, Note_on_c, 0, 68, 81
2, 285595, Note_on_c, 0, 80, 93
2, 285606, Note_on_c, 0, 78, 0
2, 285625, Note_on_c, 0, 66, 0
2, 285679, Note_on_c, 0, 70, 87
2, 285680, Note_on_c, 0, 82, 101
2, 285703, Note_on_c, 0, 68, 0
2, 285731, Note_on_c, 0, 80, 0
2, 285763, Note_on_c, 0, 82, 0
2, 285787, Note_on_c, 0, 71, 77
2, 285797, Note_on_c, 0, 83, 75
2, 285811, Note_on_c, 0, 70, 0
2, 285828, Note_on_c, 0, 85, 86
2, 285837, Note_on_c, 0, 83, 0
2, 285841, Note_on_c, 0, 71, 0
2, 285844, Note_on_c, 0, 73, 68
2, 285867, Note_on_c, 0, 83, 78
2, 285882, Note_on_c, 0, 71, 41
2, 285884, Note_on_c, 0, 73, 0
2, 285891, Note_on_c, 0, 85, 0
2, 286067, Note_on_c, 0, 70, 63
2, 286068, Note_on_c, 0, 82, 82
2, 286086, Note_on_c, 0, 71, 0
2, 286101, Note_on_c, 0, 83, 0
2, 286151, Note_on_c, 0, 68, 57
2, 286156, Note_on_c, 0, 80, 91
2, 286191, Note_on_c, 0, 70, 0
2, 286212, Note_on_c, 0, 82, 0
2, 286275, Note_on_c, 0, 73, 53
2, 286278, Note_on_c, 0, 85, 68
2, 286285, Note_on_c, 0, 68, 0
2, 286307, Note_on_c, 0, 80, 0
2, 286427, Note_on_c, 0, 73, 0
2, 286432, Note_on_c, 0, 85, 0
2, 286510, Note_on_c, 0, 61, 50
2, 286514, Note_on_c, 0, 73, 66
2, 286560, Note_on_c, 0, 73, 0
2, 286570, Note_on_c, 0, 61, 0
2, 286708, Note_on_c, 0, 78, 71
2, 286711, Note_on_c, 0, 66, 53
2, 286749, Note_on_c, 0, 66, 0
2, 286754, Note_on_c, 0, 78, 0
2, 286886, Note_on_c, 0, 54, 58
2, 286897, Note_on_c, 0, 66, 38
2, 286926, Note_on_c, 0, 54, 0
2, 286943, Note_on_c, 0, 66, 0
2, 288342, Note_on_c, 0, 73, 37
2, 288351, Note_on_c, 0, 85, 75
2, 288549, Note_on_c, 0, 88, 97
2, 288554, Note_on_c, 0, 76, 78
2, 288592, Note_on_c, 0, 85, 0
2, 288613, Note_on_c, 0, 73, 0
2, 288756, Note_on_c, 0, 93, 103
2, 288762, Note_on_c, 0, 81, 72
2, 288782, Note_on_c, 0, 88, 0
2, 288790, Note_on_c, 0, 76, 0
2, 289051, Note_on_c, 0, 92, 99
2, 289054, Note_on_c, 0, 80, 73
2, 289068, Note_on_c, 0, 93, 0
2, 289078, Note_on_c, 0, 81, 0
2, 289133, Note_on_c, 0, 81, 77
2, 289133, Note_on_c, 0, 93, 97
2, 289145, Note_on_c, 0, 80, 0
2, 289166, Note_on_c, 0, 92, 0
2, 289198, Note_on_c, 0, 92, 86
2, 289209, Note_on_c, 0, 80, 96
2, 289232, Note_on_c, 0, 93, 0
2, 289240, Note_on_c, 0, 81, 0
2, 289298, Note_on_c, 0, 85, 92
2, 289306, Note_on_c, 0, 73, 86
2, 289313, Note_on_c, 0, 80, 0
2, 289317, Note_on_c, 0, 92, 0
2, 289477, Note_on_c, 0, 75, 91
2, 289485, Note_on_c, 0, 87, 106
2, 289504, Note_on_c, 0, 73, 0
2, 289526, Note_on_c, 0, 85, 0
2, 289575, Note_on_c, 0, 73, 69
2, 289600, Note_on_c, 0, 75, 0
2, 289609, Note_on_c, 0, 87, 0
2, 289622, Note_on_c, 0, 85, 72
2, 289635, Note_on_c, 0, 75, 74
2, 289649, Note_on_c, 0, 87, 61
2, 289671, Note_on_c, 0, 73, 0
2, 289676, Note_on_c, 0, 85, 0
2, 289677, Note_on_c, 0, 88, 96
2, 289680, Note_on_c, 0, 76, 65
2, 289695, Note_on_c, 0, 75, 0
2, 289707, Note_on_c, 0, 87, 0
2, 290601, Note_on_c, 0, 75, 56
2, 290612, Note_on_c, 0, 87, 66
2, 290632, Note_on_c, 0, 88, 0
2, 290641, Note_on_c, 0, 76, 0
2, 290688, Note_on_c, 0, 85, 81
2, 290692, Note_on_c, 0, 73, 63
2, 290699, Note_on_c, 0, 75, 0
2, 290710, Note_on_c, 0, 87, 0
2, 290777, Note_on_c, 0, 85, 0
2, 290779, Note_on_c, 0, 80, 83
2, 290780, Note_on_c, 0, 68, 74
2, 290807, Note_on_c, 0, 73, 0
2, 290914, Note_on_c, 0, 80, 0
2, 290953, Note_on_c, 0, 68, 0
2, 290976, Note_on_c, 0, 81, 81
2, 290980, Note_on_c, 0, 69, 53
2, 291006, Note_on_c, 0, 71, 60
2, 291017, Note_on_c, 0, 83, 70
2, 291024, Note_on_c, 0, 69, 0
2, 291025, Note_on_c, 0, 81, 0
2, 291060, Note_on_c, 0, 81, 71
2, 291063, Note_on_c, 0, 71, 0
2, 291069, Note_on_c, 0, 83, 0
2, 291069, Note_on_c, 0, 69, 12
2, 291129, Note_on_c, 0, 81, 0
2, 291166, Note_on_c, 0, 68, 74
2, 291170, Note_on_c, 0, 80, 62
2, 291196, Note_on_c, 0, 69, 0
2, 291280, Note_on_c, 0, 68, 0
2, 291326, Note_on_c, 0, 80, 0
2, 291379, Note_on_c, 0, 64, 59
2, 291385, Note_on_c, 0, 76, 73
2, 291445, Note_on_c, 0, 66, 78
2, 291453, Note_on_c, 0, 78, 86
2, 291457, Note_on_c, 0, 64, 0
2, 291467, Note_on_c, 0, 76, 0
2, 291548, Note_on_c, 0, 68, 90
2, 291549, Note_on_c, 0, 80, 88
2, 291600, Note_on_c, 0, 66, 0
2, 291613, Note_on_c, 0, 78, 0
2, 291672, Note_on_c, 0, 80, 0
2, 291728, Note_on_c, 0, 85, 93
2, 291730, Note_on_c, 0, 73, 84
2, 291744, Note_on_c, 0, 68, 0
2, 291813, Note_on_c, 0, 87, 94
2, 291824, Note_on_c, 0, 75, 92
2, 291835, Note_on_c, 0, 85, 0
2, 291844, Note_on_c, 0, 73, 0
2, 291921, Note_on_c, 0, 76, 80
2, 291927, Note_on_c, 0, 87, 0
2, 291932, Note_on_c, 0, 88, 82
2, 291939, Note_on_c, 0, 75, 0
2, 291980, Note_on_c, 0, 76, 0
2, 291980, Note_on_c, 0, 90, 82
2, 291983, Note_on_c, 0, 78, 69
2, 291984, Note_on_c, 0, 88, 0
2, 292013, Note_on_c, 0, 88, 92
2, 292020, Note_on_c, 0, 76, 48
2, 292036, Note_on_c, 0, 78, 0
2, 292039, Note_on_c, 0, 90, 0
2, 292151, Note_on_c, 0, 87, 94
2, 292162, Note_on_c, 0, 75, 76
2, 292179, Note_on_c, 0, 76, 0
2, 292202, Note_on_c, 0, 88, 0
2, 292235, Note_on_c, 0, 85, 86
2, 292265, Note_on_c, 0, 73, 65
2, 292269, Note_on_c, 0, 87, 0
2, 292283, Note_on_c, 0, 75, 0
2, 292353, Note_on_c, 0, 87, 76
2, 292368, Note_on_c, 0, 85, 0
2, 292371, Note_on_c, 0, 75, 68
2, 292378, Note_on_c, 0, 73, 0
2, 292508, Note_on_c, 0, 75, 0
2, 292594, Note_on_c, 0, 87, 0
2, 292594, Note_on_c, 0, 78, 67
2, 292596, Note_on_c, 0, 66, 47
2, 292835, Note_on_c, 0, 78, 0
2, 292841, Note_on_c, 0, 66, 0
2, 292841, Note_on_c, 0, 83, 59
2, 292851, Note_on_c, 0, 71, 36
2, 292884, Note_on_c, 0, 83, 0
2, 292904, Note_on_c, 0, 71, 0
2, 293065, Note_on_c, 0, 71, 58
2, 293067, Note_on_c, 0, 59, 36
2, 293110, Note_on_c, 0, 71, 0
2, 293117, Note_on_c, 0, 59, 0
2, 294602, Note_on_c, 0, 79, 88
2, 294603, Note_on_c, 0, 67, 57
2, 294801, Note_on_c, 0, 83, 91
2, 294810, Note_on_c, 0, 71, 71
2, 294843, Note_on_c, 0, 79, 0
2, 294858, Note_on_c, 0, 67, 0
2, 294995, Note_on_c, 0, 88, 100
2, 294998, Note_on_c, 0, 76, 65
2, 295015, Note_on_c, 0, 71, 0
2, 295051, Note_on_c, 0, 83, 0
2, 295292, Note_on_c, 0, 86, 91
2, 295301, Note_on_c, 0, 74, 74
2, 295321, Note_on_c, 0, 76, 0
2, 295321, Note_on_c, 0, 88, 0
2, 295379, Note_on_c, 0, 88, 99
2, 295385, Note_on_c, 0, 76, 65
2, 295401, Note_on_c, 0, 74, 0
2, 295418, Note_on_c, 0, 86, 0
2, 295449, Note_on_c, 0, 86, 90
2, 295467, Note_on_c, 0, 74, 76
2, 295486, Note_on_c, 0, 76, 0
2, 295492, Note_on_c, 0, 88, 0
2, 295547, Note_on_c, 0, 79, 94
2, 295555, Note_on_c, 0, 67, 77
2, 295580, Note_on_c, 0, 86, 0
2, 295589, Note_on_c, 0, 74, 0
2, 295743, Note_on_c, 0, 69, 83
2, 295748, Note_on_c, 0, 81, 94
2, 295759, Note_on_c, 0, 67, 0
2, 295780, Note_on_c, 0, 79, 0
2, 295864, Note_on_c, 0, 67, 63
2, 295883, Note_on_c, 0, 69, 0
2, 295887, Note_on_c, 0, 79, 78
2, 295891, Note_on_c, 0, 81, 0
2, 295914, Note_on_c, 0, 69, 57
2, 295924, Note_on_c, 0, 81, 76
2, 295943, Note_on_c, 0, 79, 0
2, 295949, Note_on_c, 0, 67, 0
2, 295955, Note_on_c, 0, 71, 68
2, 295957, Note_on_c, 0, 83, 90
2, 295982, Note_on_c, 0, 69, 0
2, 295992, Note_on_c, 0, 81, 0
2, 296945, Note_on_c, 0, 69, 72
2, 296955, Note_on_c, 0, 81, 75
2, 296963, Note_on_c, 0, 71, 0
2, 296994, Note_on_c, 0, 83, 0
2, 297033, Note_on_c, 0, 79, 78
2, 297044, Note_on_c, 0, 67, 70
2, 297059, Note_on_c, 0, 69, 0
2, 297064, Note_on_c, 0, 81, 0
2, 297121, Note_on_c, 0, 67, 0
2, 297121, Note_on_c, 0, 79, 0
2, 297141, Note_on_c, 0, 78, 68
2, 297148, Note_on_c, 0, 66, 55
2, 297350, Note_on_c, 0, 71, 49
2, 297355, Note_on_c, 0, 83, 65
2, 297401, Note_on_c, 0, 78, 0
2, 297435, Note_on_c, 0, 66, 0
2, 297512, Note_on_c, 0, 83, 0
2, 297512, Note_on_c, 0, 71, 0
2, 297552, Note_on_c, 0, 83, 55
2, 297556, Note_on_c, 0, 71, 41
2, 297625, Note_on_c, 0, 76, 55
2, 297644, Note_on_c, 0, 64, 50
2, 297652, Note_on_c, 0, 71, 0
2, 297660, Note_on_c, 0, 83, 0
2, 298573, Note_on_c, 0, 64, 0
2, 298574, Note_on_c, 0, 76, 0
2, 298664, Note_on_c, 0, 63, 41
2, 298668, Note_on_c, 0, 75, 52
2, 298791, Note_on_c, 0, 76, 66
2, 298805, Note_on_c, 0, 64, 54
2, 298811, Note_on_c, 0, 75, 0
2, 298830, Note_on_c, 0, 63, 0
2, 298937, Note_on_c, 0, 78, 53
2, 298949, Note_on_c, 0, 66, 58
2, 298957, Note_on_c, 0, 76, 0
2, 298977, Note_on_c, 0, 64, 0
2, 299109, Note_on_c, 0, 78, 0
2, 299114, Note_on_c, 0, 66, 0
2, 299175, Note_on_c, 0, 78, 67
2, 299187, Note_on_c, 0, 66, 73
2, 299424, Note_on_c, 0, 66, 0
2, 299426, Note_on_c, 0, 78, 0
2, 299500, Note_on_c, 0, 78, 60
2, 299507, Note_on_c, 0, 66, 63
2, 299843, Note_on_c, 0, 71, 45
2, 299851, Note_on_c, 0, 83, 57
2, 299855, Note_on_c, 0, 66, 0
2, 299859, Note_on_c, 0, 78, 0
2, 300812, Note_on_c, 0, 83, 0
2, 300813, Note_on_c, 0, 76, 54
2, 300824, Note_on_c, 0, 64, 60
2, 300827, Note_on_c, 0, 71, 0
2, 300944, Note_on_c, 0, 75, 80
2, 300955, Note_on_c, 0, 63, 72
2, 300966, Note_on_c, 0, 76, 0
2, 300979, Note_on_c, 0, 64, 0
2, 301061, Note_on_c, 0, 76, 73
2, 301068, Note_on_c, 0, 64, 76
2, 301081, Note_on_c, 0, 75, 0
2, 301089, Note_on_c, 0, 63, 0
2, 301172, Note_on_c, 0, 78, 80
2, 301182, Note_on_c, 0, 66, 80
2, 301196, Note_on_c, 0, 76, 0
2, 301211, Note_on_c, 0, 64, 0
2, 301300, Note_on_c, 0, 79, 79
2, 301303, Note_on_c, 0, 67, 63
2, 301324, Note_on_c, 0, 66, 0
2, 301332, Note_on_c, 0, 78, 0
2, 301438, Note_on_c, 0, 78, 69
2, 301446, Note_on_c, 0, 66, 58
2, 301481, Note_on_c, 0, 79, 0
2, 301485, Note_on_c, 0, 67, 0
2, 301559, Note_on_c, 0, 64, 54
2, 301564, Note_on_c, 0, 76, 64
2, 301591, Note_on_c, 0, 66, 0
2, 301593, Note_on_c, 0, 78, 0
2, 301741, Note_on_c, 0, 78, 61
2, 301749, Note_on_c, 0, 66, 43
2, 301789, Note_on_c, 0, 76, 0
2, 301792, Note_on_c, 0, 64, 0
2, 302197, Note_on_c, 0, 83, 42
2, 302199, Note_on_c, 0, 71, 39
2, 302210, Note_on_c, 0, 78, 0
2, 302215, Note_on_c, 0, 66, 0
2, 302627, Note_on_c, 0, 66, 45
2, 302628, Note_on_c, 0, 78, 49
2, 302632, Note_on_c, 0, 83, 0
2, 302671, Note_on_c, 0, 71, 0
2, 303146, Note_on_c, 0, 66, 0
2, 303169, Note_on_c, 0, 83, 37
2, 303176, Note_on_c, 0, 71, 21
2, 303189, Note_on_c, 0, 78, 0
2, 303865, Note_on_c, 0, 83, 0
2, 304073, Note_on_c, 0, 66, 24
2, 304080, Note_on_c, 0, 78, 40
2, 304143, Note_on_c, 0, 71, 0
2, 304389, Note_on_c, 0, 80, 63
2, 304398, Note_on_c, 0, 68, 46
2, 304407, Note_on_c, 0, 78, 0
2, 304446, Note_on_c, 0, 66, 0
2, 304583, Note_on_c, 0, 78, 65
2, 304584, Note_on_c, 0, 66, 55
2, 304606, Note_on_c, 0, 68, 0
2, 304628, Note_on_c, 0, 80, 0
2, 304734, Note_on_c, 0, 73, 67
2, 304740, Note_on_c, 0, 78, 0
2, 304750, Note_on_c, 0, 61, 51
2, 304752, Note_on_c, 0, 66, 0
2, 304864, Note_on_c, 0, 75, 67
2, 304880, Note_on_c, 0, 63, 59
2, 304882, Note_on_c, 0, 61, 0
2, 304884, Note_on_c, 0, 73, 0
2, 305011, Note_on_c, 0, 66, 73
2, 305016, Note_on_c, 0, 54, 62
2, 305033, Note_on_c, 0, 63, 0
2, 305042, Note_on_c, 0, 75, 0
2, 305183, Note_on_c, 0, 59, 57
2, 305184, Note_on_c, 0, 71, 63
2, 305202, Note_on_c, 0, 54, 0
2, 305215, Note_on_c, 0, 66, 0
2, 305408, Note_on_c, 0, 54, 39
2, 305421, Note_on_c, 0, 71, 0
2, 305421, Note_on_c, 0, 78, 55
2, 305429, Control_c, 0, 64, 63
2, 305436, Control_c, 0, 64, 127
2, 305530, Note_on_c, 0, 54, 0
2, 305549, Note_on_c, 0, 59, 0
2, 305570, Note_on_c, 0, 78, 0
2, 305769, Note_on_c, 0, 83, 34
2, 305774, Note_on_c, 0, 47, 37
2, 305858, Note_on_c, 0, 47, 0
2, 305896, Note_on_c, 0, 83, 0
2, 307157, Control_c, 0, 64, 63
2, 307170, Control_c, 0, 64, 0
2, 309242, Note_on_c, 0, 76, 73
2, 309266, Note_on_c, 0, 64, 47
2, 309478, Note_on_c, 0, 68, 80
2, 309478, Note_on_c, 0, 80, 82
2, 309510, Note_on_c, 0, 76, 0
2, 309532, Note_on_c, 0, 64, 0
2, 309678, Note_on_c, 0, 85, 96
2, 309688, Note_on_c, 0, 73, 80
2, 309727, Note_on_c, 0, 68, 0
2, 309732, Note_on_c, 0, 80, 0
2, 310005, Note_on_c, 0, 83, 86
2, 310016, Note_on_c, 0, 71, 74
2, 310033, Note_on_c, 0, 85, 0
2, 310036, Note_on_c, 0, 73, 0
2, 310108, Note_on_c, 0, 85, 98
2, 310117, Note_on_c, 0, 73, 82
2, 310133, Note_on_c, 0, 71, 0
2, 310149, Note_on_c, 0, 83, 0
2, 310178, Note_on_c, 0, 83, 82
2, 310193, Note_on_c, 0, 71, 79
2, 310198, Note_on_c, 0, 73, 0
2, 310208, Note_on_c, 0, 85, 0
2, 310283, Note_on_c, 0, 76, 93
2, 310290, Note_on_c, 0, 64, 83
2, 310298, Note_on_c, 0, 83, 0
2, 310312, Note_on_c, 0, 71, 0
2, 310457, Note_on_c, 0, 78, 93
2, 310460, Note_on_c, 0, 66, 89
2, 310486, Note_on_c, 0, 64, 0
2, 310510, Note_on_c, 0, 76, 0
2, 310577, Note_on_c, 0, 64, 63
2, 310587, Note_on_c, 0, 66, 0
2, 310593, Note_on_c, 0, 78, 0
2, 310602, Note_on_c, 0, 76, 75
2, 310628, Note_on_c, 0, 66, 72
2, 310632, Note_on_c, 0, 78, 61
2, 310656, Note_on_c, 0, 76, 0
2, 310656, Note_on_c, 0, 64, 0
2, 310675, Note_on_c, 0, 80, 96
2, 310679, Note_on_c, 0, 68, 65
2, 310710, Note_on_c, 0, 78, 0
2, 310721, Note_on_c, 0, 66, 0
2, 311654, Note_on_c, 0, 78, 77
2, 311665, Note_on_c, 0, 68, 0
2, 311667, Note_on_c, 0, 66, 68
2, 311682, Note_on_c, 0, 80, 0
2, 311735, Note_on_c, 0, 78, 0
2, 311736, Note_on_c, 0, 76, 78
2, 311743, Note_on_c, 0, 66, 0
2, 311748, Note_on_c, 0, 64, 64
2, 311836, Note_on_c, 0, 71, 78
2, 311841, Note_on_c, 0, 59, 76
2, 311844, Note_on_c, 0, 64, 0
2, 311852, Note_on_c, 0, 76, 0
2, 311977, Note_on_c, 0, 71, 0
2, 311996, Note_on_c, 0, 59, 0
2, 312004, Note_on_c, 0, 61, 83
2, 312016, Note_on_c, 0, 73, 79
2, 312036, Note_on_c, 0, 75, 85
2, 312042, Note_on_c, 0, 61, 0
2, 312046, Note_on_c, 0, 63, 76
2, 312047, Note_on_c, 0, 73, 0
2, 312081, Note_on_c, 0, 73, 75
2, 312088, Note_on_c, 0, 61, 60
2, 312096, Note_on_c, 0, 75, 0
2, 312098, Note_on_c, 0, 63, 0
2, 312217, Note_on_c, 0, 59, 77
2, 312223, Note_on_c, 0, 71, 87
2, 312228, Note_on_c, 0, 61, 0
2, 312240, Note_on_c, 0, 73, 0
2, 312406, Note_on_c, 0, 71, 0
2, 312413, Note_on_c, 0, 68, 76
2, 312422, Note_on_c, 0, 56, 73
2, 312443, Note_on_c, 0, 59, 0
2, 312483, Note_on_c, 0, 56, 0
2, 312489, Note_on_c, 0, 57, 57
2, 312491, Note_on_c, 0, 69, 84
2, 312507, Note_on_c, 0, 68, 0
2, 312580, Note_on_c, 0, 71, 98
2, 312584, Note_on_c, 0, 59, 89
2, 312595, Note_on_c, 0, 69, 0
2, 312608, Note_on_c, 0, 57, 0
2, 312721, Note_on_c, 0, 71, 0
2, 312766, Note_on_c, 0, 73, 105
2, 312773, Note_on_c, 0, 61, 101
2, 312780, Note_on_c, 0, 59, 0
2, 312837, Note_on_c, 0, 75, 95
2, 312841, Note_on_c, 0, 73, 0
2, 312845, Note_on_c, 0, 63, 98
2, 312862, Note_on_c, 0, 61, 0
2, 312897, Note_on_c, 0, 75, 0
2, 312923, Note_on_c, 0, 76, 103
2, 312924, Note_on_c, 0, 64, 100
2, 312933, Note_on_c, 0, 63, 0
2, 313038, Note_on_c, 0, 76, 0
2, 313045, Note_on_c, 0, 64, 0
2, 313108, Note_on_c, 0, 52, 116
2, 313111, Note_on_c, 0, 88, 107
2, 313228, Note_on_c, 0, 88, 0
2, 313237, Note_on_c, 0, 52, 0
2, 313296, Note_on_c, 0, 76, 85
2, 313298, Note_on_c, 0, 64, 92
2, 313303, Control_c, 0, 64, 63
2, 313308, Control_c, 0, 64, 127
2, 313345, Note_on_c, 0, 64, 0
2, 313362, Note_on_c, 0, 76, 0
2, 313399, Control_c, 0, 64, 63
2, 313402, Control_c, 0, 64, 0
2, 313457, Note_on_c, 0, 88, 112
2, 313462, Note_on_c, 0, 50, 124
2, 313473, Control_c, 0, 64, 63
2, 313474, Control_c, 0, 64, 127
2, 313515, Note_on_c, 0, 50, 0
2, 313543, Note_on_c, 0, 88, 0
2, 313621, Note_on_c, 0, 64, 97
2, 313623, Note_on_c, 0, 76, 97
2, 313658, Note_on_c, 0, 64, 0
2, 313663, Note_on_c, 0, 76, 0
2, 313698, Control_c, 0, 64, 63
2, 313701, Control_c, 0, 64, 0
2, 313793, Note_on_c, 0, 90, 118
2, 313795, Control_c, 0, 64, 127
2, 313795, Note_on_c, 0, 49, 114
2, 313828, Note_on_c, 0, 49, 0
2, 313845, Note_on_c, 0, 90, 0
2, 313965, Note_on_c, 0, 64, 98
2, 313966, Note_on_c, 0, 76, 100
2, 314001, Note_on_c, 0, 64, 0
2, 314003, Note_on_c, 0, 76, 0
2, 314043, Control_c, 0, 64, 63
2, 314046, Control_c, 0, 64, 0
2, 314119, Control_c, 0, 64, 63
2, 314121, Control_c, 0, 64, 127
2, 314134, Note_on_c, 0, 91, 117
2, 314137, Note_on_c, 0, 48, 122
2, 314175, Note_on_c, 0, 91, 0
2, 314185, Note_on_c, 0, 48, 0
2, 314247, Control_c, 0, 64, 63
2, 314251, Control_c, 0, 64, 0
2, 314297, Note_on_c, 0, 47, 124
2, 314302, Note_on_c, 0, 92, 106
2, 314305, Control_c, 0, 64, 63
2, 314307, Control_c, 0, 64, 127
2, 314335, Note_on_c, 0, 47, 0
2, 314337, Note_on_c, 0, 92, 0
2, 314467, Note_on_c, 0, 80, 105
2, 314468, Note_on_c, 0, 88, 118
2, 314470, Note_on_c, 0, 83, 114
2, 314494, Control_c, 0, 64, 63
2, 314495, Control_c, 0, 64, 127
2, 314544, Note_on_c, 0, 83, 0
2, 314546, Note_on_c, 0, 80, 0
2, 314552, Note_on_c, 0, 78, 95
2, 314554, Note_on_c, 0, 81, 96
2, 314565, Note_on_c, 0, 88, 0
2, 314590, Note_on_c, 0, 81, 0
2, 314612, Note_on_c, 0, 78, 0
2, 314631, Note_on_c, 0, 76, 99
2, 314645, Note_on_c, 0, 85, 91
2, 314647, Note_on_c, 0, 80, 94
2, 314685, Note_on_c, 0, 80, 0
2, 314697, Note_on_c, 0, 85, 0
2, 314704, Note_on_c, 0, 78, 96
2, 314706, Note_on_c, 0, 76, 0
2, 314712, Note_on_c, 0, 75, 94
2, 314740, Note_on_c, 0, 78, 0
2, 314768, Note_on_c, 0, 75, 0
2, 314794, Note_on_c, 0, 76, 100
2, 314799, Note_on_c, 0, 81, 79
2, 314803, Note_on_c, 0, 73, 96
2, 314830, Note_on_c, 0, 81, 0
2, 314832, Note_on_c, 0, 76, 0
2, 314858, Note_on_c, 0, 73, 0
2, 314871, Note_on_c, 0, 71, 90
2, 314873, Note_on_c, 0, 75, 100
2, 314904, Note_on_c, 0, 75, 0
2, 314942, Note_on_c, 0, 71, 0
2, 314960, Note_on_c, 0, 69, 93
2, 314963, Note_on_c, 0, 78, 103
2, 314966, Note_on_c, 0, 73, 102
2, 315031, Note_on_c, 0, 73, 0
2, 315031, Note_on_c, 0, 68, 101
2, 315036, Note_on_c, 0, 69, 0
2, 315036, Note_on_c, 0, 71, 83
2, 315041, Note_on_c, 0, 78, 0
2, 315079, Note_on_c, 0, 71, 0
2, 315107, Note_on_c, 0, 68, 0
2, 315126, Control_c, 0, 64, 63
2, 315126, Control_c, 0, 64, 127
2, 315127, Note_on_c, 0, 66, 108
2, 315129, Note_on_c, 0, 69, 79
2, 315130, Note_on_c, 0, 75, 91
2, 315165, Note_on_c, 0, 75, 0
2, 315194, Note_on_c, 0, 68, 105
2, 315199, Note_on_c, 0, 69, 0
2, 315203, Note_on_c, 0, 64, 92
2, 315206, Note_on_c, 0, 66, 0
2, 315230, Control_c, 0, 64, 63
2, 315235, Note_on_c, 0, 68, 0
2, 315235, Control_c, 0, 64, 0
2, 315279, Note_on_c, 0, 64, 0
2, 315289, Note_on_c, 0, 63, 106
2, 315292, Note_on_c, 0, 71, 106
2, 315293, Note_on_c, 0, 66, 113
2, 315340, Control_c, 0, 64, 63
2, 315349, Control_c, 0, 64, 127
2, 315352, Note_on_c, 0, 61, 95
2, 315361, Note_on_c, 0, 64, 86
2, 315362, Note_on_c, 0, 71, 0
2, 315365, Note_on_c, 0, 66, 0
2, 315367, Note_on_c, 0, 63, 0
2, 315399, Control_c, 0, 64, 63
2, 315404, Note_on_c, 0, 64, 0
2, 315409, Control_c, 0, 64, 0
2, 315419, Note_on_c, 0, 61, 0
2, 315440, Note_on_c, 0, 59, 103
2, 315448, Note_on_c, 0, 68, 100
2, 315451, Note_on_c, 0, 63, 106
2, 315464, Control_c, 0, 64, 63
2, 315477, Control_c, 0, 64, 0
2, 315489, Note_on_c, 0, 68, 0
2, 315508, Note_on_c, 0, 63, 0
2, 315514, Note_on_c, 0, 57, 103
2, 315519, Note_on_c, 0, 61, 97
2, 315530, Note_on_c, 0, 59, 0
2, 315561, Note_on_c, 0, 61, 0
2, 315596, Note_on_c, 0, 57, 0
2, 315607, Note_on_c, 0, 56, 116
2, 315608, Note_on_c, 0, 59, 114
2, 315611, Note_on_c, 0, 64, 108
2, 315625, Control_c, 0, 64, 127
2, 315641, Note_on_c, 0, 64, 0
2, 315657, Note_on_c, 0, 56, 0
2, 315660, Note_on_c, 0, 59, 0
2, 315715, Control_c, 0, 64, 63
2, 315718, Control_c, 0, 64, 0
2, 317216, Note_on_c, 0, 88, 109
2, 317217, Note_on_c, 0, 80, 107
2, 317218, Note_on_c, 0, 76, 106
2, 317219, Note_on_c, 0, 52, 121
2, 317222, Note_on_c, 0, 40, 114
2, 317255, Control_c, 0, 64, 127
2, 317289, Note_on_c, 0, 88, 0
2, 317305, Note_on_c, 0, 40, 0
2, 317306, Note_on_c, 0, 80, 0
2, 317308, Note_on_c, 0, 76, 0
2, 317318, Note_on_c, 0, 52, 0
2, 317467, Note_on_c, 0, 73, 87
2, 317467, Note_on_c, 0, 59, 101
2, 317469, Note_on_c, 0, 68, 92
2, 317519, Note_on_c, 0, 71, 96
2, 317527, Note_on_c, 0, 68, 0
2, 317547, Note_on_c, 0, 71, 0
2, 317551, Note_on_c, 0, 73, 0
2, 317586, Note_on_c, 0, 76, 99
2, 317665, Note_on_c, 0, 47, 113
2, 317668, Note_on_c, 0, 85, 113
2, 317670, Note_on_c, 0, 80, 108
2, 317795, Note_on_c, 0, 76, 0
2, 317796, Note_on_c, 0, 59, 0
2, 317831, Note_on_c, 0, 47, 0
2, 317848, Note_on_c, 0, 80, 0
2, 317886, Note_on_c, 0, 85, 0
2, 317908, Note_on_c, 0, 83, 100
2, 317953, Note_on_c, 0, 83, 0
2, 317994, Control_c, 0, 64, 63
2, 318000, Control_c, 0, 64, 0
2, 318002, Note_on_c, 0, 40, 122
2, 318029, Control_c, 0, 64, 127
2, 318044, Note_on_c, 0, 40, 0
2, 318164, Note_on_c, 0, 73, 92
2, 318165, Note_on_c, 0, 59, 102
2, 318168, Note_on_c, 0, 68, 88
2, 318212, Note_on_c, 0, 71, 98
2, 318220, Note_on_c, 0, 68, 0
2, 318238, Note_on_c, 0, 71, 0
2, 318240, Note_on_c, 0, 73, 0
2, 318273, Note_on_c, 0, 76, 104
2, 318323, Note_on_c, 0, 47, 113
2, 318327, Note_on_c, 0, 85, 113
2, 318328, Note_on_c, 0, 80, 113
2, 318383, Control_c, 0, 64, 63
2, 318402, Control_c, 0, 64, 127
2, 318427, Note_on_c, 0, 76, 0
2, 318444, Note_on_c, 0, 59, 0
2, 318464, Note_on_c, 0, 80, 0
2, 318486, Note_on_c, 0, 47, 0
2, 318540, Note_on_c, 0, 85, 0
2, 318567, Note_on_c, 0, 83, 103
2, 318603, Note_on_c, 0, 83, 0
2, 318621, Control_c, 0, 64, 63
2, 318624, Control_c, 0, 64, 0
2, 318642, Note_on_c, 0, 40, 124
2, 318651, Control_c, 0, 64, 63
2, 318652, Control_c, 0, 64, 127
2, 318678, Control_c, 0, 64, 63
2, 318681, Note_on_c, 0, 40, 0
2, 318682, Control_c, 0, 64, 127
2, 318799, Note_on_c, 0, 59, 91
2, 318799, Note_on_c, 0, 73, 87
2, 318803, Note_on_c, 0, 68, 89
2, 318844, Note_on_c, 0, 71, 93
2, 318850, Note_on_c, 0, 68, 0
2, 318873, Note_on_c, 0, 71, 0
2, 318873, Note_on_c, 0, 73, 0
2, 318903, Note_on_c, 0, 76, 106
2, 318948, Note_on_c, 0, 85, 116
2, 318950, Note_on_c, 0, 80, 110
2, 318952, Note_on_c, 0, 47, 104
2, 318956, Note_on_c, 0, 76, 0
2, 318976, Note_on_c, 0, 80, 0
2, 318986, Note_on_c, 0, 85, 0
2, 319026, Note_on_c, 0, 59, 0
2, 319072, Note_on_c, 0, 47, 0
2, 319111, Note_on_c, 0, 85, 99
2, 319113, Note_on_c, 0, 80, 105
2, 319155, Note_on_c, 0, 83, 93
2, 319164, Note_on_c, 0, 80, 0
2, 319183, Note_on_c, 0, 83, 0
2, 319188, Note_on_c, 0, 85, 0
2, 319215, Note_on_c, 0, 88, 103
2, 319263, Note_on_c, 0, 92, 118
2, 319265, Note_on_c, 0, 97, 114
2, 319266, Note_on_c, 0, 88, 0
2, 319267, Note_on_c, 0, 40, 117
2, 319290, Note_on_c, 0, 92, 0
2, 319297, Note_on_c, 0, 40, 0
2, 319306, Note_on_c, 0, 97, 0
2, 319416, Note_on_c, 0, 59, 98
2, 319419, Note_on_c, 0, 97, 104
2, 319421, Note_on_c, 0, 92, 106
2, 319473, Note_on_c, 0, 95, 90
2, 319492, Note_on_c, 0, 92, 0
2, 319493, Note_on_c, 0, 97, 0
2, 319507, Note_on_c, 0, 88, 78
2, 319509, Note_on_c, 0, 95, 0
2, 319524, Note_on_c, 0, 88, 0
2, 319561, Note_on_c, 0, 47, 100
2, 319566, Note_on_c, 0, 80, 116
2, 319568, Note_on_c, 0, 85, 108
2, 319616, Note_on_c, 0, 83, 77
2, 319634, Note_on_c, 0, 80, 0
2, 319635, Note_on_c, 0, 85, 0
2, 319654, Note_on_c, 0, 76, 94
2, 319656, Note_on_c, 0, 83, 0
2, 319683, Note_on_c, 0, 76, 0
2, 319703, Note_on_c, 0, 47, 0
2, 319707, Note_on_c, 0, 68, 92
2, 319708, Note_on_c, 0, 73, 88
2, 319728, Note_on_c, 0, 59, 0
2, 319763, Note_on_c, 0, 71, 89
2, 319770, Note_on_c, 0, 73, 0
2, 319781, Note_on_c, 0, 68, 0
2, 319796, Note_on_c, 0, 64, 79
2, 319801, Note_on_c, 0, 71, 0
2, 319828, Control_c, 0, 64, 63
2, 319830, Control_c, 0, 64, 0
2, 319838, Note_on_c, 0, 64, 0
2, 319865, Note_on_c, 0, 63, 104
2, 319868, Note_on_c, 0, 66, 94
2, 319871, Note_on_c, 0, 47, 82
2, 319901, Control_c, 0, 64, 63
2, 319902, Control_c, 0, 64, 127
2, 319904, Note_on_c, 0, 63, 0
2, 319910, Note_on_c, 0, 47, 0
2, 319916, Note_on_c, 0, 66, 0
2, 320041, Note_on_c, 0, 66, 53
2, 320044, Note_on_c, 0, 80, 61
2, 320047, Note_on_c, 0, 75, 60
2, 320082, Note_on_c, 0, 78, 81
2, 320090, Note_on_c, 0, 75, 0
2, 320096, Note_on_c, 0, 80, 0
2, 320106, Note_on_c, 0, 78, 0
2, 320143, Note_on_c, 0, 83, 69
2, 320198, Note_on_c, 0, 92, 84
2, 320204, Note_on_c, 0, 87, 85
2, 320207, Note_on_c, 0, 54, 40
2, 320217, Note_on_c, 0, 83, 0
2, 320254, Note_on_c, 0, 66, 0
2, 320259, Note_on_c, 0, 54, 0
2, 320397, Note_on_c, 0, 87, 0
2, 320420, Note_on_c, 0, 92, 0
2, 320432, Note_on_c, 0, 90, 67
2, 320464, Note_on_c, 0, 90, 0
2, 320504, Control_c, 0, 64, 63
2, 320509, Control_c, 0, 64, 0
2, 320510, Note_on_c, 0, 47, 73
2, 320535, Control_c, 0, 64, 63
2, 320544, Control_c, 0, 64, 127
2, 320552, Note_on_c, 0, 47, 0
2, 320672, Note_on_c, 0, 75, 58
2, 320675, Note_on_c, 0, 80, 55
2, 320679, Note_on_c, 0, 66, 50
2, 320709, Note_on_c, 0, 66, 0
2, 320714, Note_on_c, 0, 75, 0
2, 320715, Note_on_c, 0, 78, 60
2, 320728, Note_on_c, 0, 80, 0
2, 320731, Note_on_c, 0, 78, 0
2, 320766, Note_on_c, 0, 83, 59
2, 320807, Note_on_c, 0, 83, 0
2, 320824, Note_on_c, 0, 92, 84
2, 320830, Note_on_c, 0, 87, 75
2, 320832, Note_on_c, 0, 54, 70
2, 320850, Note_on_c, 0, 87, 0
2, 320858, Note_on_c, 0, 54, 0
2, 320862, Note_on_c, 0, 92, 0
2, 321056, Note_on_c, 0, 90, 61
2, 321086, Note_on_c, 0, 90, 0
2, 321137, Note_on_c, 0, 47, 67
2, 321147, Control_c, 0, 64, 63
2, 321152, Control_c, 0, 64, 0
2, 321294, Note_on_c, 0, 59, 52
2, 321300, Note_on_c, 0, 47, 0
2, 321301, Control_c, 0, 64, 63
2, 321302, Control_c, 0, 64, 127
2, 321310, Note_on_c, 0, 63, 64
2, 321312, Note_on_c, 0, 68, 47
2, 321351, Note_on_c, 0, 66, 76
2, 321352, Note_on_c, 0, 63, 0
2, 321371, Note_on_c, 0, 68, 0
2, 321380, Note_on_c, 0, 66, 0
2, 321410, Note_on_c, 0, 71, 73
2, 321443, Note_on_c, 0, 71, 0
2, 321450, Note_on_c, 0, 54, 40
2, 321453, Note_on_c, 0, 80, 86
2, 321458, Note_on_c, 0, 75, 71
2, 321470, Note_on_c, 0, 75, 0
2, 321484, Note_on_c, 0, 80, 0
2, 321601, Note_on_c, 0, 59, 0
2, 321620, Note_on_c, 0, 80, 70
2, 321621, Note_on_c, 0, 75, 83
2, 321622, Note_on_c, 0, 54, 0
2, 321663, Note_on_c, 0, 75, 0
2, 321666, Note_on_c, 0, 78, 77
2, 321683, Note_on_c, 0, 80, 0
2, 321690, Note_on_c, 0, 78, 0
2, 321719, Note_on_c, 0, 83, 77
2, 321752, Note_on_c, 0, 83, 0
2, 321753, Control_c, 0, 64, 63
2, 321754, Control_c, 0, 64, 0
2, 321774, Note_on_c, 0, 92, 87
2, 321777, Note_on_c, 0, 87, 79
2, 321779, Note_on_c, 0, 47, 59
2, 321802, Control_c, 0, 64, 63
2, 321805, Control_c, 0, 64, 127
2, 321806, Note_on_c, 0, 87, 0
2, 321809, Note_on_c, 0, 92, 0
2, 321824, Note_on_c, 0, 47, 0
2, 321924, Note_on_c, 0, 66, 52
2, 321944, Note_on_c, 0, 92, 72
2, 321946, Note_on_c, 0, 87, 76
2, 321994, Note_on_c, 0, 90, 76
2, 321997, Note_on_c, 0, 92, 0
2, 322007, Note_on_c, 0, 87, 0
2, 322028, Note_on_c, 0, 83, 46
2, 322032, Note_on_c, 0, 90, 0
2, 322055, Note_on_c, 0, 83, 0
2, 322082, Note_on_c, 0, 59, 51
2, 322086, Note_on_c, 0, 66, 0
2, 322098, Note_on_c, 0, 75, 80
2, 322101, Note_on_c, 0, 80, 76
2, 322153, Note_on_c, 0, 78, 79
2, 322154, Note_on_c, 0, 80, 0
2, 322171, Note_on_c, 0, 75, 0
2, 322192, Note_on_c, 0, 78, 0
2, 322200, Note_on_c, 0, 71, 48
2, 322220, Note_on_c, 0, 71, 0
2, 322230, Note_on_c, 0, 59, 0
2, 322261, Note_on_c, 0, 68, 78
2, 322269, Note_on_c, 0, 63, 50
2, 322295, Note_on_c, 0, 63, 0
2, 322309, Note_on_c, 0, 66, 79
2, 322321, Note_on_c, 0, 68, 0
2, 322360, Note_on_c, 0, 59, 70
2, 322391, Note_on_c, 0, 66, 0
2, 322408, Note_on_c, 0, 59, 0
2, 322421, Note_on_c, 0, 52, 124
2, 322423, Note_on_c, 0, 68, 113
2, 322424, Note_on_c, 0, 64, 111
2, 322443, Control_c, 0, 64, 127
2, 322470, Note_on_c, 0, 64, 0
2, 322488, Note_on_c, 0, 68, 0
2, 322587, Note_on_c, 0, 52, 0
2, 322598, Note_on_c, 0, 59, 112
2, 322599, Note_on_c, 0, 68, 92
2, 322604, Note_on_c, 0, 73, 83
2, 322646, Note_on_c, 0, 71, 88
2, 322650, Note_on_c, 0, 68, 0
2, 322661, Note_on_c, 0, 71, 0
2, 322674, Note_on_c, 0, 73, 0
2, 322700, Note_on_c, 0, 76, 108
2, 322751, Note_on_c, 0, 59, 0
2, 322751, Note_on_c, 0, 47, 120
2, 322752, Note_on_c, 0, 85, 113
2, 322754, Note_on_c, 0, 80, 110
2, 322763, Note_on_c, 0, 76, 0
2, 322798, Note_on_c, 0, 47, 0
2, 322801, Note_on_c, 0, 80, 0
2, 322818, Note_on_c, 0, 85, 0
2, 322985, Note_on_c, 0, 83, 106
2, 323022, Note_on_c, 0, 83, 0
2, 323033, Control_c, 0, 64, 63
2, 323037, Control_c, 0, 64, 0
2, 323049, Note_on_c, 0, 40, 127
2, 323079, Control_c, 0, 64, 63
2, 323083, Control_c, 0, 64, 127
2, 323101, Note_on_c, 0, 40, 0
2, 323218, Note_on_c, 0, 59, 99
2, 323219, Note_on_c, 0, 68, 97
2, 323222, Note_on_c, 0, 73, 85
2, 323259, Note_on_c, 0, 71, 91
2, 323263, Note_on_c, 0, 68, 0
2, 323276, Note_on_c, 0, 71, 0
2, 323282, Note_on_c, 0, 73, 0
2, 323320, Note_on_c, 0, 76, 98
2, 323341, Note_on_c, 0, 59, 0
2, 323357, Note_on_c, 0, 47, 117
2, 323358, Note_on_c, 0, 76, 0
2, 323360, Note_on_c, 0, 85, 113
2, 323362, Note_on_c, 0, 80, 108
2, 323387, Note_on_c, 0, 47, 0
2, 323388, Note_on_c, 0, 80, 0
2, 323399, Note_on_c, 0, 85, 0
2, 323597, Note_on_c, 0, 83, 98
2, 323629, Note_on_c, 0, 83, 0
2, 323655, Control_c, 0, 64, 63
2, 323659, Control_c, 0, 64, 0
2, 323666, Note_on_c, 0, 40, 126
2, 323690, Control_c, 0, 64, 63
2, 323697, Control_c, 0, 64, 127
2, 323706, Note_on_c, 0, 40, 0
2, 323825, Note_on_c, 0, 59, 98
2, 323825, Note_on_c, 0, 68, 88
2, 323830, Note_on_c, 0, 73, 79
2, 323869, Note_on_c, 0, 71, 86
2, 323872, Note_on_c, 0, 68, 0
2, 323886, Note_on_c, 0, 71, 0
2, 323895, Note_on_c, 0, 73, 0
2, 323927, Note_on_c, 0, 76, 93
2, 323968, Note_on_c, 0, 76, 0
2, 323974, Note_on_c, 0, 47, 116
2, 323976, Note_on_c, 0, 85, 109
2, 323977, Note_on_c, 0, 80, 107
2, 324004, Note_on_c, 0, 80, 0
2, 324007, Note_on_c, 0, 59, 0
2, 324015, Note_on_c, 0, 85, 0
2, 324051, Note_on_c, 0, 47, 0
2, 324122, Note_on_c, 0, 85, 80
2, 324124, Note_on_c, 0, 80, 79
2, 324168, Note_on_c, 0, 83, 87
2, 324172, Note_on_c, 0, 80, 0
2, 324192, Note_on_c, 0, 85, 0
2, 324194, Note_on_c, 0, 83, 0
2, 324229, Note_on_c, 0, 88, 97
2, 324272, Control_c, 0, 64, 63
2, 324276, Note_on_c, 0, 92, 115
2, 324276, Note_on_c, 0, 97, 114
2, 324277, Note_on_c, 0, 40, 122
2, 324278, Control_c, 0, 64, 0
2, 324280, Note_on_c, 0, 88, 0
2, 324288, Control_c, 0, 64, 63
2, 324301, Control_c, 0, 64, 127
2, 324313, Note_on_c, 0, 92, 0
2, 324318, Note_on_c, 0, 40, 0
2, 324326, Note_on_c, 0, 97, 0
2, 324446, Note_on_c, 0, 59, 103
2, 324447, Note_on_c, 0, 97, 108
2, 324449, Note_on_c, 0, 92, 112
2, 324500, Note_on_c, 0, 95, 96
2, 324526, Note_on_c, 0, 92, 0
2, 324526, Note_on_c, 0, 97, 0
2, 324543, Note_on_c, 0, 88, 84
2, 324545, Note_on_c, 0, 95, 0
2, 324565, Note_on_c, 0, 88, 0
2, 324590, Note_on_c, 0, 47, 111
2, 324603, Note_on_c, 0, 80, 115
2, 324606, Note_on_c, 0, 85, 109
2, 324656, Note_on_c, 0, 83, 93
2, 324672, Note_on_c, 0, 85, 0
2, 324673, Note_on_c, 0, 80, 0
2, 324697, Note_on_c, 0, 76, 90
2, 324700, Note_on_c, 0, 83, 0
2, 324728, Note_on_c, 0, 76, 0
2, 324759, Note_on_c, 0, 59, 0
2, 324764, Note_on_c, 0, 68, 109
2, 324766, Note_on_c, 0, 73, 103
2, 324771, Note_on_c, 0, 47, 0
2, 324817, Note_on_c, 0, 71, 89
2, 324820, Note_on_c, 0, 73, 0
2, 324824, Note_on_c, 0, 68, 0
2, 324862, Note_on_c, 0, 71, 0
2, 324868, Note_on_c, 0, 64, 80
2, 324900, Control_c, 0, 64, 63
2, 324905, Control_c, 0, 64, 0
2, 324908, Note_on_c, 0, 64, 0
2, 324950, Note_on_c, 0, 47, 68
2, 324964, Note_on_c, 0, 63, 75
2, 324965, Note_on_c, 0, 66, 79
2, 324984, Control_c, 0, 64, 63
2, 324986, Control_c, 0, 64, 127
2, 325003, Note_on_c, 0, 47, 0
2, 325014, Note_on_c, 0, 63, 0
2, 325017, Note_on_c, 0, 66, 0
2, 325152, Note_on_c, 0, 80, 60
2, 325155, Note_on_c, 0, 75, 63
2, 325157, Note_on_c, 0, 66, 43
2, 325189, Note_on_c, 0, 75, 0
2, 325189, Note_on_c, 0, 78, 87
2, 325201, Note_on_c, 0, 80, 0
2, 325210, Note_on_c, 0, 78, 0
2, 325247, Note_on_c, 0, 83, 61
2, 325278, Note_on_c, 0, 66, 0
2, 325282, Note_on_c, 0, 83, 0
2, 325294, Note_on_c, 0, 92, 89
2, 325302, Note_on_c, 0, 87, 81
2, 325303, Note_on_c, 0, 54, 51
2, 325318, Note_on_c, 0, 87, 0
2, 325330, Note_on_c, 0, 92, 0
2, 325355, Note_on_c, 0, 54, 0
2, 325543, Note_on_c, 0, 90, 78
2, 325575, Note_on_c, 0, 90, 0
2, 325626, Note_on_c, 0, 47, 74
2, 325674, Note_on_c, 0, 47, 0
2, 325787, Note_on_c, 0, 75, 65
2, 325791, Note_on_c, 0, 80, 55
2, 325795, Note_on_c, 0, 66, 66
2, 325824, Note_on_c, 0, 78, 82
2, 325825, Note_on_c, 0, 66, 0
2, 325829, Note_on_c, 0, 75, 0
2, 325841, Note_on_c, 0, 80, 0
2, 325849, Note_on_c, 0, 78, 0
2, 325882, Note_on_c, 0, 83, 74
2, 325916, Note_on_c, 0, 83, 0
2, 325934, Note_on_c, 0, 92, 90
2, 325938, Note_on_c, 0, 87, 88
2, 325951, Note_on_c, 0, 54, 66
2, 325954, Note_on_c, 0, 87, 0
2, 325965, Note_on_c, 0, 92, 0
2, 325966, Note_on_c, 0, 54, 0
2, 326177, Note_on_c, 0, 90, 71
2, 326211, Note_on_c, 0, 90, 0
2, 326258, Note_on_c, 0, 47, 71
2, 326288, Control_c, 0, 64, 63
2, 326293, Control_c, 0, 64, 0
2, 326411, Control_c, 0, 64, 63
2, 326414, Control_c, 0, 64, 127
2, 326417, Note_on_c, 0, 59, 49
2, 326420, Note_on_c, 0, 63, 71
2, 326425, Note_on_c, 0, 68, 51
2, 326452, Note_on_c, 0, 47, 0
2, 326460, Note_on_c, 0, 66, 85
2, 326462, Note_on_c, 0, 63, 0
2, 326479, Note_on_c, 0, 68, 0
2, 326486, Note_on_c, 0, 66, 0
2, 326520, Note_on_c, 0, 71, 78
2, 326554, Note_on_c, 0, 71, 0
2, 326561, Note_on_c, 0, 54, 56
2, 326566, Note_on_c, 0, 80, 93
2, 326568, Note_on_c, 0, 75, 88
2, 326584, Note_on_c, 0, 75, 0
2, 326599, Note_on_c, 0, 80, 0
2, 326725, Note_on_c, 0, 54, 0
2, 326732, Note_on_c, 0, 59, 0
2, 326736, Note_on_c, 0, 80, 78
2, 326739, Note_on_c, 0, 75, 85
2, 326771, Note_on_c, 0, 75, 0
2, 326780, Note_on_c, 0, 78, 83
2, 326795, Note_on_c, 0, 80, 0
2, 326807, Note_on_c, 0, 78, 0
2, 326841, Note_on_c, 0, 83, 74
2, 326875, Note_on_c, 0, 83, 0
2, 326884, Note_on_c, 0, 47, 83
2, 326887, Note_on_c, 0, 92, 86
2, 326892, Note_on_c, 0, 87, 78
2, 326904, Note_on_c, 0, 87, 0
2, 326911, Note_on_c, 0, 47, 0
2, 326918, Note_on_c, 0, 92, 0
2, 327046, Note_on_c, 0, 87, 84
2, 327047, Note_on_c, 0, 92, 69
2, 327048, Note_on_c, 0, 66, 80
2, 327081, Note_on_c, 0, 66, 0
2, 327097, Note_on_c, 0, 90, 71
2, 327105, Note_on_c, 0, 92, 0
2, 327113, Note_on_c, 0, 87, 0
2, 327130, Note_on_c, 0, 83, 61
2, 327137, Note_on_c, 0, 90, 0
2, 327155, Note_on_c, 0, 83, 0
2, 327198, Note_on_c, 0, 59, 67
2, 327201, Note_on_c, 0, 75, 93
2, 327201, Note_on_c, 0, 80, 80
2, 327229, Control_c, 0, 64, 63
2, 327231, Control_c, 0, 64, 127
2, 327255, Note_on_c, 0, 78, 89
2, 327276, Note_on_c, 0, 80, 0
2, 327277, Note_on_c, 0, 75, 0
2, 327298, Note_on_c, 0, 71, 77
2, 327306, Note_on_c, 0, 78, 0
2, 327323, Note_on_c, 0, 59, 0
2, 327328, Note_on_c, 0, 71, 0
2, 327375, Note_on_c, 0, 68, 77
2, 327387, Note_on_c, 0, 63, 62
2, 327422, Note_on_c, 0, 63, 0
2, 327429, Note_on_c, 0, 66, 73
2, 327441, Note_on_c, 0, 68, 0
2, 327486, Note_on_c, 0, 59, 64
2, 327501, Note_on_c, 0, 66, 0
2, 327538, Note_on_c, 0, 68, 67
2, 327543, Note_on_c, 0, 64, 60
2, 327545, Note_on_c, 0, 52, 55
2, 327561, Note_on_c, 0, 59, 0
2, 327572, Control_c, 0, 64, 63
2, 327573, Control_c, 0, 64, 127
2, 327599, Control_c, 0, 64, 63
2, 327607, Note_on_c, 0, 52, 0
2, 327612, Note_on_c, 0, 64, 0
2, 327624, Note_on_c, 0, 68, 0
2, 327714, Control_c, 0, 64, 63
2, 327717, Control_c, 0, 64, 0
2, 327726, Note_on_c, 0, 40, 70
2, 327727, Note_on_c, 0, 80, 68
2, 327727, Note_on_c, 0, 68, 34
2, 327730, Note_on_c, 0, 71, 72
2, 327771, Control_c, 0, 64, 63
2, 327773, Control_c, 0, 64, 127
2, 327779, Note_on_c, 0, 42, 70
2, 327805, Note_on_c, 0, 40, 0
2, 327830, Note_on_c, 0, 44, 75
2, 327862, Note_on_c, 0, 42, 0
2, 327893, Note_on_c, 0, 76, 90
2, 327900, Note_on_c, 0, 80, 0
2, 327900, Note_on_c, 0, 45, 71
2, 327917, Note_on_c, 0, 44, 0
2, 327951, Note_on_c, 0, 45, 0
2, 327964, Note_on_c, 0, 47, 65
2, 328009, Note_on_c, 0, 76, 0
2, 328017, Note_on_c, 0, 49, 95
2, 328029, Note_on_c, 0, 47, 0
2, 328067, Note_on_c, 0, 75, 97
2, 328080, Note_on_c, 0, 49, 0
2, 328081, Note_on_c, 0, 51, 97
2, 328123, Note_on_c, 0, 68, 0
2, 328124, Note_on_c, 0, 51, 0
2, 328128, Note_on_c, 0, 52, 88
2, 328130, Note_on_c, 0, 71, 0
2, 328131, Note_on_c, 0, 75, 0
2, 328175, Note_on_c, 0, 54, 105
2, 328194, Note_on_c, 0, 52, 0
2, 328232, Note_on_c, 0, 75, 112
2, 328232, Note_on_c, 0, 56, 92
2, 328238, Note_on_c, 0, 69, 84
2, 328248, Control_c, 0, 64, 63
2, 328252, Control_c, 0, 64, 0
2, 328254, Note_on_c, 0, 54, 0
2, 328289, Note_on_c, 0, 57, 86
2, 328290, Control_c, 0, 64, 63
2, 328299, Control_c, 0, 64, 127
2, 328314, Note_on_c, 0, 56, 0
2, 328339, Note_on_c, 0, 59, 93
2, 328340, Note_on_c, 0, 57, 0
2, 328391, Note_on_c, 0, 75, 0
2, 328393, Note_on_c, 0, 69, 0
2, 328393, Note_on_c, 0, 61, 108
2, 328406, Note_on_c, 0, 59, 0
2, 328447, Note_on_c, 0, 63, 105
2, 328449, Note_on_c, 0, 61, 0
2, 328496, Note_on_c, 0, 63, 0
2, 328498, Note_on_c, 0, 64, 90
2, 328534, Control_c, 0, 64, 63
2, 328537, Control_c, 0, 64, 0
2, 328546, Note_on_c, 0, 66, 112
2, 328552, Note_on_c, 0, 73, 110
2, 328559, Note_on_c, 0, 64, 0
2, 328565, Control_c, 0, 64, 63
2, 328575, Note_on_c, 0, 66, 0
2, 328576, Control_c, 0, 64, 127
2, 328600, Note_on_c, 0, 73, 0
2, 328605, Note_on_c, 0, 69, 79
2, 328656, Note_on_c, 0, 69, 0
2, 328663, Note_on_c, 0, 73, 95
2, 328702, Note_on_c, 0, 54, 85
2, 328710, Note_on_c, 0, 78, 98
2, 328716, Note_on_c, 0, 73, 0
2, 328734, Note_on_c, 0, 54, 0
2, 328740, Note_on_c, 0, 78, 0
2, 328768, Note_on_c, 0, 81, 94
2, 328808, Note_on_c, 0, 81, 0
2, 328817, Note_on_c, 0, 85, 100
2, 328851, Note_on_c, 0, 85, 0
2, 328882, Note_on_c, 0, 42, 108
2, 328884, Note_on_c, 0, 93, 94
2, 328910, Note_on_c, 0, 93, 0
2, 328912, Note_on_c, 0, 42, 0
2, 329053, Note_on_c, 0, 42, 73
2, 329064, Note_on_c, 0, 81, 88
2, 329065, Note_on_c, 0, 73, 72
2, 329071, Note_on_c, 0, 69, 47
2, 329098, Control_c, 0, 64, 63
2, 329104, Control_c, 0, 64, 0
2, 329105, Note_on_c, 0, 69, 0
2, 329107, Note_on_c, 0, 44, 81
2, 329133, Note_on_c, 0, 42, 0
2, 329169, Note_on_c, 0, 45, 78
2, 329186, Control_c, 0, 64, 63
2, 329190, Control_c, 0, 64, 127
2, 329196, Note_on_c, 0, 44, 0
2, 329220, Note_on_c, 0, 45, 0
2, 329225, Note_on_c, 0, 47, 77
2, 329233, Note_on_c, 0, 78, 97
2, 329282, Note_on_c, 0, 81, 0
2, 329283, Note_on_c, 0, 49, 94
2, 329296, Note_on_c, 0, 47, 0
2, 329334, Note_on_c, 0, 51, 97
2, 329348, Note_on_c, 0, 49, 0
2, 329371, Note_on_c, 0, 78, 0
2, 329383, Note_on_c, 0, 52, 85
2, 329388, Note_on_c, 0, 51, 0
2, 329396, Note_on_c, 0, 76, 106
2, 329450, Note_on_c, 0, 54, 105
2, 329471, Note_on_c, 0, 52, 0
2, 329497, Note_on_c, 0, 56, 101
2, 329521, Note_on_c, 0, 73, 0
2, 329530, Note_on_c, 0, 54, 0
2, 329530, Note_on_c, 0, 76, 0
2, 329554, Note_on_c, 0, 57, 97
2, 329555, Note_on_c, 0, 76, 111
2, 329560, Note_on_c, 0, 71, 98
2, 329576, Control_c, 0, 64, 63
2, 329580, Control_c, 0, 64, 0
2, 329584, Note_on_c, 0, 56, 0
2, 329609, Note_on_c, 0, 59, 94
2, 329612, Note_on_c, 0, 57, 0
2, 329632, Control_c, 0, 64, 63
2, 329638, Control_c, 0, 64, 127
2, 329665, Note_on_c, 0, 61, 109
2, 329681, Note_on_c, 0, 59, 0
2, 329718, Note_on_c, 0, 63, 106
2, 329720, Note_on_c, 0, 71, 0
2, 329736, Note_on_c, 0, 76, 0
2, 329738, Note_on_c, 0, 61, 0
2, 329766, Note_on_c, 0, 64, 92
2, 329775, Note_on_c, 0, 63, 0
2, 329811, Note_on_c, 0, 66, 108
2, 329826, Note_on_c, 0, 64, 0
2, 329856, Control_c, 0, 64, 63
2, 329862, Control_c, 0, 64, 0
2, 329872, Note_on_c, 0, 68, 109
2, 329875, Note_on_c, 0, 75, 115
2, 329879, Control_c, 0, 64, 63
2, 329884, Note_on_c, 0, 66, 0
2, 329893, Control_c, 0, 64, 127
2, 329904, Note_on_c, 0, 68, 0
2, 329921, Note_on_c, 0, 71, 84
2, 329925, Note_on_c, 0, 75, 0
2, 329980, Note_on_c, 0, 71, 0
2, 329981, Note_on_c, 0, 75, 103
2, 330023, Note_on_c, 0, 56, 101
2, 330029, Note_on_c, 0, 80, 107
2, 330035, Note_on_c, 0, 75, 0
2, 330053, Note_on_c, 0, 56, 0
2, 330062, Note_on_c, 0, 80, 0
2, 330091, Note_on_c, 0, 83, 101
2, 330127, Note_on_c, 0, 83, 0
2, 330140, Note_on_c, 0, 87, 109
2, 330176, Note_on_c, 0, 87, 0
2, 330194, Note_on_c, 0, 44, 112
2, 330195, Note_on_c, 0, 95, 117
2, 330222, Note_on_c, 0, 95, 0
2, 330227, Note_on_c, 0, 44, 0
2, 330372, Note_on_c, 0, 44, 77
2, 330376, Note_on_c, 0, 83, 87
2, 330377, Note_on_c, 0, 71, 79
2, 330378, Note_on_c, 0, 75, 72
2, 330407, Control_c, 0, 64, 63
2, 330416, Control_c, 0, 64, 0
2, 330437, Control_c, 0, 64, 63
2, 330439, Note_on_c, 0, 45, 84
2, 330461, Control_c, 0, 64, 127
2, 330473, Note_on_c, 0, 44, 0
2, 330511, Note_on_c, 0, 45, 0
2, 330511, Note_on_c, 0, 47, 75
2, 330555, Note_on_c, 0, 80, 92
2, 330556, Note_on_c, 0, 83, 0
2, 330564, Note_on_c, 0, 49, 96
2, 330575, Note_on_c, 0, 47, 0
2, 330619, Note_on_c, 0, 51, 96
2, 330629, Note_on_c, 0, 49, 0
2, 330666, Note_on_c, 0, 52, 97
2, 330672, Note_on_c, 0, 51, 0
2, 330714, Control_c, 0, 64, 63
2, 330720, Note_on_c, 0, 54, 109
2, 330722, Note_on_c, 0, 78, 103
2, 330736, Control_c, 0, 64, 0
2, 330743, Note_on_c, 0, 52, 0
2, 330749, Control_c, 0, 64, 63
2, 330754, Note_on_c, 0, 80, 0
2, 330770, Control_c, 0, 64, 127
2, 330773, Note_on_c, 0, 56, 99
2, 330789, Note_on_c, 0, 75, 0
2, 330796, Note_on_c, 0, 78, 0
2, 330797, Note_on_c, 0, 54, 0
2, 330809, Note_on_c, 0, 71, 0
2, 330823, Note_on_c, 0, 57, 102
2, 330856, Note_on_c, 0, 56, 0
2, 330881, Note_on_c, 0, 78, 101
2, 330882, Note_on_c, 0, 73, 100
2, 330886, Control_c, 0, 64, 63
2, 330887, Note_on_c, 0, 59, 99
2, 330892, Control_c, 0, 64, 0
2, 330895, Note_on_c, 0, 57, 0
2, 330936, Control_c, 0, 64, 63
2, 330944, Note_on_c, 0, 61, 110
2, 330945, Control_c, 0, 64, 127
2, 330959, Note_on_c, 0, 59, 0
2, 331000, Note_on_c, 0, 63, 112
2, 331016, Note_on_c, 0, 61, 0
2, 331040, Note_on_c, 0, 73, 0
2, 331050, Note_on_c, 0, 64, 94
2, 331053, Note_on_c, 0, 63, 0
2, 331065, Note_on_c, 0, 78, 0
2, 331090, Note_on_c, 0, 66, 112
2, 331108, Note_on_c, 0, 64, 0
2, 331132, Note_on_c, 0, 68, 110
2, 331155, Control_c, 0, 64, 63
2, 331156, Note_on_c, 0, 66, 0
2, 331159, Control_c, 0, 64, 0
2, 331194, Note_on_c, 0, 69, 117
2, 331201, Note_on_c, 0, 76, 106
2, 331214, Note_on_c, 0, 68, 0
2, 331228, Control_c, 0, 64, 63
2, 331234, Control_c, 0, 64, 127
2, 331243, Note_on_c, 0, 76, 0
2, 331254, Note_on_c, 0, 73, 106
2, 331265, Note_on_c, 0, 69, 0
2, 331301, Note_on_c, 0, 73, 0
2, 331309, Note_on_c, 0, 76, 83
2, 331362, Note_on_c, 0, 57, 114
2, 331367, Note_on_c, 0, 81, 102
2, 331373, Note_on_c, 0, 76, 0
2, 331396, Note_on_c, 0, 81, 0
2, 331409, Note_on_c, 0, 57, 0
2, 331429, Note_on_c, 0, 85, 103
2, 331464, Note_on_c, 0, 85, 0
2, 331476, Note_on_c, 0, 88, 84
2, 331528, Note_on_c, 0, 88, 0
2, 331533, Control_c, 0, 64, 63
2, 331536, Control_c, 0, 64, 0
2, 331562, Note_on_c, 0, 58, 96
2, 331566, Control_c, 0, 64, 63
2, 331571, Note_on_c, 0, 64, 102
2, 331571, Note_on_c, 0, 67, 108
2, 331571, Note_on_c, 0, 61, 105
2, 331572, Control_c, 0, 64, 127
2, 331576, Note_on_c, 0, 100, 117
2, 331596, Note_on_c, 0, 64, 0
2, 331597, Note_on_c, 0, 61, 0
2, 331598, Note_on_c, 0, 67, 0
2, 331599, Note_on_c, 0, 58, 0
2, 331604, Note_on_c, 0, 100, 0
2, 331806, Note_on_c, 0, 97, 99
2, 331871, Note_on_c, 0, 94, 91
2, 331891, Note_on_c, 0, 97, 0
2, 331931, Note_on_c, 0, 91, 83
2, 331943, Note_on_c, 0, 94, 0
2, 331971, Note_on_c, 0, 91, 0
2, 331973, Note_on_c, 0, 88, 71
2, 332000, Note_on_c, 0, 88, 0
2, 332032, Note_on_c, 0, 85, 80
2, 332078, Note_on_c, 0, 85, 0
2, 332079, Note_on_c, 0, 82, 81
2, 332120, Note_on_c, 0, 82, 0
2, 332134, Note_on_c, 0, 79, 62
2, 332166, Note_on_c, 0, 79, 0
2, 332172, Note_on_c, 0, 76, 76
2, 332205, Note_on_c, 0, 76, 0
2, 332225, Note_on_c, 0, 73, 67
2, 332266, Note_on_c, 0, 73, 0
2, 332293, Note_on_c, 0, 71, 82
2, 332294, Note_on_c, 0, 59, 51
2, 332295, Note_on_c, 0, 68, 63
2, 332303, Note_on_c, 0, 64, 59
2, 332326, Control_c, 0, 64, 63
2, 332332, Control_c, 0, 64, 0
2, 332344, Note_on_c, 0, 71, 0
2, 332346, Note_on_c, 0, 73, 92
2, 332383, Control_c, 0, 64, 63
2, 332393, Control_c, 0, 64, 127
2, 332401, Note_on_c, 0, 75, 96
2, 332402, Note_on_c, 0, 73, 0
2, 332442, Note_on_c, 0, 75, 0
2, 332452, Note_on_c, 0, 76, 85
2, 332491, Note_on_c, 0, 59, 0
2, 332493, Note_on_c, 0, 76, 0
2, 332503, Note_on_c, 0, 68, 0
2, 332503, Note_on_c, 0, 78, 88
2, 332538, Note_on_c, 0, 64, 0
2, 332557, Note_on_c, 0, 80, 77
2, 332561, Note_on_c, 0, 78, 0
2, 332588, Note_on_c, 0, 63, 42
2, 332592, Note_on_c, 0, 59, 43
2, 332597, Control_c, 0, 64, 63
2, 332611, Control_c, 0, 64, 0
2, 332630, Note_on_c, 0, 80, 0
2, 332635, Note_on_c, 0, 78, 64
2, 332647, Control_c, 0, 64, 63
2, 332668, Note_on_c, 0, 69, 55
2, 332669, Control_c, 0, 64, 127
2, 332711, Note_on_c, 0, 85, 72
2, 332714, Note_on_c, 0, 78, 0
2, 332745, Note_on_c, 0, 85, 0
2, 332804, Note_on_c, 0, 69, 0
2, 332814, Note_on_c, 0, 59, 0
2, 332835, Note_on_c, 0, 63, 0
2, 332853, Note_on_c, 0, 83, 75
2, 332903, Note_on_c, 0, 83, 0
2, 332903, Note_on_c, 0, 81, 65
2, 332978, Control_c, 0, 64, 63
2, 332980, Note_on_c, 0, 81, 0
2, 332986, Note_on_c, 0, 80, 61
2, 332995, Control_c, 0, 64, 0
2, 333037, Note_on_c, 0, 80, 0
2, 333046, Note_on_c, 0, 78, 51
2, 333126, Note_on_c, 0, 64, 36
2, 333131, Control_c, 0, 64, 63
2, 333135, Control_c, 0, 64, 127
2, 333139, Note_on_c, 0, 68, 52
2, 333144, Note_on_c, 0, 76, 50
2, 333149, Note_on_c, 0, 78, 0
2, 333170, Note_on_c, 0, 76, 0
2, 333174, Note_on_c, 0, 68, 0
2, 333179, Note_on_c, 0, 64, 0
2, 333350, Control_c, 0, 64, 63
2, 333353, Note_on_c, 0, 88, 90
2, 333356, Control_c, 0, 64, 0
2, 333392, Note_on_c, 0, 88, 0
2, 333412, Note_on_c, 0, 92, 89
2, 333449, Note_on_c, 0, 92, 0
2, 333472, Note_on_c, 0, 95, 65
2, 333507, Note_on_c, 0, 95, 0
2, 333528, Control_c, 0, 64, 63
2, 333529, Note_on_c, 0, 47, 63
2, 333529, Control_c, 0, 64, 127
2, 333533, Note_on_c, 0, 87, 92
2, 333558, Note_on_c, 0, 47, 0
2, 333562, Note_on_c, 0, 87, 0
2, 333589, Note_on_c, 0, 90, 73
2, 333633, Note_on_c, 0, 90, 0
2, 333643, Note_on_c, 0, 78, 84
2, 333684, Control_c, 0, 64, 63
2, 333691, Control_c, 0, 64, 0
2, 333693, Note_on_c, 0, 78, 0
2, 333698, Note_on_c, 0, 71, 70
2, 333706, Note_on_c, 0, 59, 38
2, 333708, Note_on_c, 0, 87, 87
2, 333726, Note_on_c, 0, 71, 0
2, 333743, Note_on_c, 0, 59, 0
2, 333752, Note_on_c, 0, 90, 96
2, 333758, Note_on_c, 0, 87, 0
2, 333800, Note_on_c, 0, 90, 0
2, 333806, Note_on_c, 0, 95, 82
2, 333842, Note_on_c, 0, 95, 0
2, 333864, Control_c, 0, 64, 63
2, 333865, Note_on_c, 0, 50, 86
2, 333867, Control_c, 0, 64, 127
2, 333870, Note_on_c, 0, 86, 78
2, 333892, Note_on_c, 0, 50, 0
2, 333908, Note_on_c, 0, 86, 0
2, 333928, Note_on_c, 0, 90, 63
2, 333979, Note_on_c, 0, 90, 0
2, 333991, Note_on_c, 0, 78, 63
2, 334021, Control_c, 0, 64, 63
2, 334022, Note_on_c, 0, 69, 77
2, 334024, Control_c, 0, 64, 0
2, 334024, Note_on_c, 0, 62, 80
2, 334040, Note_on_c, 0, 78, 0
2, 334045, Note_on_c, 0, 86, 79
2, 334046, Note_on_c, 0, 69, 0
2, 334052, Note_on_c, 0, 62, 0
2, 334092, Note_on_c, 0, 90, 93
2, 334104, Note_on_c, 0, 86, 0
2, 334144, Note_on_c, 0, 93, 65
2, 334151, Note_on_c, 0, 90, 0
2, 334180, Note_on_c, 0, 93, 0
2, 334190, Note_on_c, 0, 45, 76
2, 334195, Note_on_c, 0, 85, 96
2, 334197, Control_c, 0, 64, 63
2, 334201, Control_c, 0, 64, 127
2, 334217, Note_on_c, 0, 45, 0
2, 334236, Note_on_c, 0, 85, 0
2, 334255, Note_on_c, 0, 88, 70
2, 334278, Note_on_c, 0, 88, 0
2, 334296, Note_on_c, 0, 76, 79
2, 334335, Note_on_c, 0, 76, 0
2, 334351, Note_on_c, 0, 69, 72
2, 334353, Control_c, 0, 64, 63
2, 334354, Note_on_c, 0, 57, 75
2, 334357, Control_c, 0, 64, 0
2, 334361, Note_on_c, 0, 85, 84
2, 334370, Note_on_c, 0, 69, 0
2, 334395, Note_on_c, 0, 57, 0
2, 334399, Note_on_c, 0, 85, 0
2, 334405, Note_on_c, 0, 88, 81
2, 334442, Note_on_c, 0, 88, 0
2, 334459, Note_on_c, 0, 93, 76
2, 334496, Note_on_c, 0, 93, 0
2, 334512, Note_on_c, 0, 48, 90
2, 334513, Note_on_c, 0, 84, 88
2, 334521, Control_c, 0, 64, 63
2, 334524, Control_c, 0, 64, 127
2, 334546, Note_on_c, 0, 48, 0
2, 334552, Note_on_c, 0, 84, 0
2, 334565, Note_on_c, 0, 88, 82
2, 334598, Note_on_c, 0, 88, 0
2, 334621, Note_on_c, 0, 76, 76
2, 334650, Control_c, 0, 64, 63
2, 334653, Control_c, 0, 64, 0
2, 334664, Note_on_c, 0, 60, 78
2, 334665, Note_on_c, 0, 67, 65
2, 334667, Note_on_c, 0, 76, 0
2, 334681, Note_on_c, 0, 84, 84
2, 334684, Note_on_c, 0, 67, 0
2, 334688, Note_on_c, 0, 60, 0
2, 334733, Note_on_c, 0, 88, 91
2, 334735, Note_on_c, 0, 84, 0
2, 334783, Note_on_c, 0, 91, 74
2, 334785, Note_on_c, 0, 88, 0
2, 334826, Note_on_c, 0, 48, 89
2, 334827, Note_on_c, 0, 91, 0
2, 334830, Control_c, 0, 64, 63
2, 334833, Control_c, 0, 64, 127
2, 334839, Note_on_c, 0, 82, 83
2, 334854, Note_on_c, 0, 48, 0
2, 334862, Note_on_c, 0, 82, 0
2, 334881, Note_on_c, 0, 88, 86
2, 334930, Note_on_c, 0, 88, 0
2, 334934, Note_on_c, 0, 79, 69
2, 334964, Control_c, 0, 64, 63
2, 334967, Control_c, 0, 64, 0
2, 334979, Note_on_c, 0, 58, 89
2, 334979, Note_on_c, 0, 64, 84
2, 334983, Note_on_c, 0, 82, 98
2, 334986, Note_on_c, 0, 79, 0
2, 335002, Note_on_c, 0, 64, 0
2, 335010, Note_on_c, 0, 58, 0
2, 335027, Note_on_c, 0, 82, 0
2, 335028, Note_on_c, 0, 88, 82
2, 335081, Note_on_c, 0, 91, 79
2, 335085, Note_on_c, 0, 88, 0
2, 335119, Note_on_c, 0, 91, 0
2, 335137, Note_on_c, 0, 47, 90
2, 335140, Control_c, 0, 64, 63
2, 335144, Control_c, 0, 64, 127
2, 335148, Note_on_c, 0, 83, 73
2, 335161, Note_on_c, 0, 47, 0
2, 335177, Note_on_c, 0, 83, 0
2, 335199, Note_on_c, 0, 95, 88
2, 335207, Note_on_c, 0, 92, 82
2, 335246, Note_on_c, 0, 95, 0
2, 335248, Note_on_c, 0, 90, 90
2, 335255, Control_c, 0, 64, 63
2, 335259, Control_c, 0, 64, 0
2, 335271, Note_on_c, 0, 92, 0
2, 335295, Note_on_c, 0, 90, 0
2, 335297, Note_on_c, 0, 88, 84
2, 335305, Note_on_c, 0, 64, 71
2, 335308, Note_on_c, 0, 56, 72
2, 335308, Note_on_c, 0, 59, 65
2, 335325, Note_on_c, 0, 64, 0
2, 335326, Note_on_c, 0, 59, 0
2, 335333, Note_on_c, 0, 88, 0
2, 335335, Note_on_c, 0, 56, 0
2, 335350, Note_on_c, 0, 87, 92
2, 335401, Note_on_c, 0, 87, 0
2, 335403, Note_on_c, 0, 85, 96
2, 335446, Note_on_c, 0, 85, 0
2, 335448, Note_on_c, 0, 47, 92
2, 335453, Control_c, 0, 64, 63
2, 335454, Control_c, 0, 64, 127
2, 335457, Note_on_c, 0, 83, 81
2, 335479, Note_on_c, 0, 47, 0
2, 335509, Note_on_c, 0, 90, 87
2, 335512, Note_on_c, 0, 87, 93
2, 335522, Note_on_c, 0, 83, 0
2, 335557, Note_on_c, 0, 85, 98
2, 335574, Note_on_c, 0, 90, 0
2, 335580, Note_on_c, 0, 87, 0
2, 335593, Note_on_c, 0, 83, 83
2, 335602, Note_on_c, 0, 85, 0
2, 335604, Control_c, 0, 64, 63
2, 335607, Control_c, 0, 64, 0
2, 335617, Note_on_c, 0, 57, 71
2, 335618, Note_on_c, 0, 63, 85
2, 335620, Note_on_c, 0, 59, 63
2, 335625, Note_on_c, 0, 83, 0
2, 335639, Note_on_c, 0, 59, 0
2, 335641, Note_on_c, 0, 63, 0
2, 335649, Note_on_c, 0, 57, 0
2, 335654, Note_on_c, 0, 81, 93
2, 335708, Note_on_c, 0, 78, 91
2, 335712, Note_on_c, 0, 81, 0
2, 335734, Control_c, 0, 64, 63
2, 335739, Control_c, 0, 64, 127
2, 335743, Note_on_c, 0, 78, 0
2, 335757, Note_on_c, 0, 52, 91
2, 335775, Note_on_c, 0, 76, 64
2, 335797, Note_on_c, 0, 52, 0
2, 335822, Note_on_c, 0, 80, 72
2, 335842, Note_on_c, 0, 76, 0
2, 335875, Control_c, 0, 64, 63
2, 335880, Control_c, 0, 64, 0
2, 335881, Note_on_c, 0, 80, 0
2, 335883, Note_on_c, 0, 68, 78
2, 335920, Note_on_c, 0, 68, 0
2, 335923, Note_on_c, 0, 56, 69
2, 335926, Note_on_c, 0, 59, 60
2, 335926, Note_on_c, 0, 64, 42
2, 335934, Note_on_c, 0, 76, 85
2, 335944, Note_on_c, 0, 59, 0
2, 335947, Note_on_c, 0, 64, 0
2, 335956, Note_on_c, 0, 56, 0
2, 335983, Note_on_c, 0, 80, 89
2, 336010, Note_on_c, 0, 76, 0
2, 336038, Note_on_c, 0, 83, 65
2, 336051, Note_on_c, 0, 80, 0
2, 336070, Note_on_c, 0, 47, 77
2, 336070, Control_c, 0, 64, 63
2, 336073, Note_on_c, 0, 83, 0
2, 336074, Control_c, 0, 64, 127
2, 336077, Note_on_c, 0, 75, 98
2, 336106, Note_on_c, 0, 47, 0
2, 336126, Note_on_c, 0, 75, 0
2, 336130, Note_on_c, 0, 78, 86
2, 336178, Note_on_c, 0, 78, 0
2, 336180, Note_on_c, 0, 66, 97
2, 336213, Control_c, 0, 64, 63
2, 336218, Control_c, 0, 64, 0
2, 336222, Note_on_c, 0, 66, 0
2, 336233, Note_on_c, 0, 59, 82
2, 336236, Note_on_c, 0, 75, 94
2, 336268, Note_on_c, 0, 59, 0
2, 336278, Note_on_c, 0, 78, 99
2, 336294, Note_on_c, 0, 75, 0
2, 336333, Note_on_c, 0, 83, 60
2, 336339, Note_on_c, 0, 78, 0
2, 336350, Note_on_c, 0, 81, 29
2, 336373, Note_on_c, 0, 83, 0
2, 336378, Note_on_c, 0, 81, 0
2, 336381, Note_on_c, 0, 74, 92
2, 336384, Note_on_c, 0, 50, 76
2, 336391, Control_c, 0, 64, 63
2, 336395, Control_c, 0, 64, 127
2, 336427, Note_on_c, 0, 78, 96
2, 336442, Note_on_c, 0, 74, 0
2, 336443, Note_on_c, 0, 50, 0
2, 336485, Note_on_c, 0, 78, 0
2, 336488, Note_on_c, 0, 66, 97
2, 336527, Control_c, 0, 64, 63
2, 336531, Control_c, 0, 64, 0
2, 336532, Note_on_c, 0, 66, 0
2, 336538, Note_on_c, 0, 62, 74
2, 336539, Note_on_c, 0, 57, 70
2, 336542, Note_on_c, 0, 74, 90
2, 336554, Note_on_c, 0, 62, 0
2, 336565, Note_on_c, 0, 57, 0
2, 336596, Note_on_c, 0, 78, 98
2, 336618, Note_on_c, 0, 74, 0
2, 336649, Note_on_c, 0, 81, 71
2, 336667, Note_on_c, 0, 78, 0
2, 336682, Note_on_c, 0, 81, 0
2, 336688, Note_on_c, 0, 45, 87
2, 336688, Control_c, 0, 64, 63
2, 336691, Note_on_c, 0, 73, 107
2, 336692, Control_c, 0, 64, 127
2, 336734, Note_on_c, 0, 45, 0
2, 336743, Note_on_c, 0, 73, 0
2, 336743, Note_on_c, 0, 76, 75
2, 336782, Note_on_c, 0, 76, 0
2, 336794, Note_on_c, 0, 64, 63
2, 336830, Control_c, 0, 64, 63
2, 336831, Note_on_c, 0, 64, 0
2, 336834, Control_c, 0, 64, 0
2, 336845, Note_on_c, 0, 73, 104
2, 336847, Note_on_c, 0, 57, 84
2, 336888, Note_on_c, 0, 57, 0
2, 336900, Note_on_c, 0, 76, 89
2, 336902, Note_on_c, 0, 73, 0
2, 336952, Note_on_c, 0, 76, 0
2, 336954, Note_on_c, 0, 81, 66
2, 336983, Note_on_c, 0, 81, 0
2, 336991, Note_on_c, 0, 48, 86
2, 336994, Note_on_c, 0, 72, 109
2, 336996, Control_c, 0, 64, 63
2, 337000, Control_c, 0, 64, 127
2, 337036, Note_on_c, 0, 48, 0
2, 337038, Note_on_c, 0, 72, 0
2, 337043, Note_on_c, 0, 76, 90
2, 337088, Note_on_c, 0, 76, 0
2, 337099, Note_on_c, 0, 64, 82
2, 337134, Control_c, 0, 64, 63
2, 337137, Control_c, 0, 64, 0
2, 337139, Note_on_c, 0, 60, 84
2, 337142, Note_on_c, 0, 55, 81
2, 337149, Note_on_c, 0, 64, 0
2, 337153, Note_on_c, 0, 72, 92
2, 337156, Note_on_c, 0, 60, 0
2, 337167, Note_on_c, 0, 55, 0
2, 337203, Note_on_c, 0, 76, 86
2, 337213, Note_on_c, 0, 72, 0
2, 337251, Note_on_c, 0, 79, 67
2, 337256, Note_on_c, 0, 76, 0
2, 337291, Control_c, 0, 64, 63
2, 337292, Note_on_c, 0, 79, 0
2, 337293, Note_on_c, 0, 36, 113
2, 337294, Control_c, 0, 64, 127
2, 337294, Note_on_c, 0, 70, 112
2, 337326, Note_on_c, 0, 36, 0
2, 337342, Note_on_c, 0, 70, 0
2, 337345, Note_on_c, 0, 76, 89
2, 337399, Note_on_c, 0, 76, 0
2, 337399, Note_on_c, 0, 67, 49
2, 337442, Note_on_c, 0, 70, 101
2, 337445, Control_c, 0, 64, 63
2, 337446, Note_on_c, 0, 60, 102
2, 337447, Note_on_c, 0, 55, 90
2, 337449, Control_c, 0, 64, 0
2, 337451, Note_on_c, 0, 67, 0
2, 337473, Note_on_c, 0, 60, 0
2, 337477, Note_on_c, 0, 55, 0
2, 337491, Note_on_c, 0, 76, 86
2, 337495, Note_on_c, 0, 70, 0
2, 337545, Note_on_c, 0, 79, 62
2, 337551, Note_on_c, 0, 76, 0
2, 337580, Note_on_c, 0, 79, 0
2, 337591, Control_c, 0, 64, 63
2, 337593, Control_c, 0, 64, 127
2, 337594, Note_on_c, 0, 47, 116
2, 337604, Note_on_c, 0, 71, 87
2, 337632, Note_on_c, 0, 47, 0
2, 337638, Note_on_c, 0, 71, 0
2, 337655, Note_on_c, 0, 83, 91
2, 337656, Note_on_c, 0, 80, 95
2, 337699, Note_on_c, 0, 78, 103
2, 337703, Note_on_c, 0, 83, 0
2, 337724, Note_on_c, 0, 80, 0
2, 337741, Control_c, 0, 64, 63
2, 337745, Control_c, 0, 64, 0
2, 337750, Note_on_c, 0, 78, 0
2, 337751, Note_on_c, 0, 76, 90
2, 337755, Note_on_c, 0, 64, 85
2, 337757, Note_on_c, 0, 56, 94
2, 337757, Note_on_c, 0, 59, 84
2, 337775, Note_on_c, 0, 59, 0
2, 337776, Note_on_c, 0, 64, 0
2, 337789, Note_on_c, 0, 56, 0
2, 337790, Note_on_c, 0, 76, 0
2, 337799, Note_on_c, 0, 75, 101
2, 337847, Note_on_c, 0, 73, 103
2, 337859, Note_on_c, 0, 75, 0
2, 337895, Note_on_c, 0, 47, 111
2, 337898, Control_c, 0, 64, 63
2, 337900, Note_on_c, 0, 71, 87
2, 337900, Control_c, 0, 64, 127
2, 337904, Note_on_c, 0, 73, 0
2, 337935, Note_on_c, 0, 47, 0
2, 337953, Note_on_c, 0, 78, 89
2, 337959, Note_on_c, 0, 75, 93
2, 337972, Note_on_c, 0, 71, 0
2, 338002, Note_on_c, 0, 73, 94
2, 338020, Note_on_c, 0, 78, 0
2, 338023, Note_on_c, 0, 75, 0
2, 338036, Note_on_c, 0, 71, 87
2, 338046, Note_on_c, 0, 73, 0
2, 338046, Control_c, 0, 64, 63
2, 338047, Note_on_c, 0, 57, 89
2, 338047, Note_on_c, 0, 63, 112
2, 338050, Control_c, 0, 64, 0
2, 338065, Note_on_c, 0, 71, 0
2, 338080, Note_on_c, 0, 63, 0
2, 338080, Note_on_c, 0, 57, 0
2, 338094, Note_on_c, 0, 69, 91
2, 338139, Note_on_c, 0, 66, 93
2, 338143, Note_on_c, 0, 69, 0
2, 338187, Note_on_c, 0, 56, 98
2, 338192, Note_on_c, 0, 66, 0
2, 338197, Control_c, 0, 64, 63
2, 338199, Note_on_c, 0, 64, 78
2, 338200, Control_c, 0, 64, 127
2, 338207, Note_on_c, 0, 52, 46
2, 338246, Note_on_c, 0, 56, 0
2, 338246, Note_on_c, 0, 66, 93
2, 338254, Note_on_c, 0, 64, 0
2, 338255, Note_on_c, 0, 52, 0
2, 338285, Note_on_c, 0, 68, 100
2, 338299, Note_on_c, 0, 66, 0
2, 338311, Control_c, 0, 64, 63
2, 338314, Control_c, 0, 64, 0
2, 338329, Note_on_c, 0, 68, 0
2, 338339, Note_on_c, 0, 69, 89
2, 338386, Note_on_c, 0, 69, 0
2, 338386, Note_on_c, 0, 71, 93
2, 338405, Note_on_c, 0, 52, 89
2, 338407, Control_c, 0, 64, 63
2, 338409, Control_c, 0, 64, 127
2, 338443, Note_on_c, 0, 73, 99
2, 338446, Note_on_c, 0, 71, 0
2, 338451, Note_on_c, 0, 58, 87
2, 338455, Note_on_c, 0, 52, 0
2, 338499, Note_on_c, 0, 73, 0
2, 338503, Note_on_c, 0, 61, 94
2, 338512, Note_on_c, 0, 75, 94
2, 338527, Note_on_c, 0, 66, 110
2, 338552, Note_on_c, 0, 75, 0
2, 338578, Note_on_c, 0, 76, 77
2, 338626, Note_on_c, 0, 76, 0
2, 338626, Note_on_c, 0, 78, 106
2, 338680, Note_on_c, 0, 80, 105
2, 338699, Note_on_c, 0, 78, 0
2, 338730, Note_on_c, 0, 82, 97
2, 338751, Note_on_c, 0, 80, 0
2, 338771, Note_on_c, 0, 82, 0
2, 338786, Note_on_c, 0, 83, 75
2, 338832, Note_on_c, 0, 83, 0
2, 338834, Note_on_c, 0, 85, 103
2, 338884, Note_on_c, 0, 87, 103
2, 338895, Note_on_c, 0, 85, 0
2, 338926, Note_on_c, 0, 87, 0
2, 338931, Note_on_c, 0, 88, 90
2, 338980, Note_on_c, 0, 90, 108
2, 338993, Note_on_c, 0, 88, 0
2, 339031, Note_on_c, 0, 92, 105
2, 339049, Note_on_c, 0, 90, 0
2, 339074, Note_on_c, 0, 94, 98
2, 339091, Note_on_c, 0, 92, 0
2, 339115, Note_on_c, 0, 94, 0
2, 339130, Note_on_c, 0, 95, 93
2, 339179, Note_on_c, 0, 97, 95
2, 339186, Note_on_c, 0, 95, 0
2, 339219, Note_on_c, 0, 99, 98
2, 339238, Note_on_c, 0, 97, 0
2, 339268, Note_on_c, 0, 100, 99
2, 339277, Note_on_c, 0, 99, 0
2, 339319, Note_on_c, 0, 99, 105
2, 339333, Note_on_c, 0, 100, 0
2, 339358, Note_on_c, 0, 97, 96
2, 339383, Note_on_c, 0, 99, 0
2, 339411, Note_on_c, 0, 97, 0
2, 339412, Note_on_c, 0, 95, 83
2, 339455, Note_on_c, 0, 95, 0
2, 339463, Note_on_c, 0, 94, 92
2, 339508, Note_on_c, 0, 92, 95
2, 339517, Note_on_c, 0, 94, 0
2, 339555, Note_on_c, 0, 90, 97
2, 339580, Note_on_c, 0, 92, 0
2, 339585, Note_on_c, 0, 66, 0
2, 339588, Note_on_c, 0, 61, 0
2, 339596, Note_on_c, 0, 89, 82
2, 339606, Note_on_c, 0, 90, 0
2, 339616, Note_on_c, 0, 58, 0
2, 339630, Note_on_c, 0, 89, 0
2, 339647, Note_on_c, 0, 88, 93
2, 339697, Note_on_c, 0, 87, 104
2, 339706, Note_on_c, 0, 88, 0
2, 339742, Note_on_c, 0, 85, 104
2, 339763, Note_on_c, 0, 87, 0
2, 339787, Note_on_c, 0, 83, 85
2, 339792, Note_on_c, 0, 85, 0
2, 339828, Note_on_c, 0, 83, 0
2, 339842, Note_on_c, 0, 82, 97
2, 339890, Note_on_c, 0, 80, 105
2, 339903, Note_on_c, 0, 82, 0
2, 339911, Note_on_c, 0, 52, 84
2, 339934, Note_on_c, 0, 80, 0
2, 339936, Note_on_c, 0, 76, 89
2, 339940, Note_on_c, 0, 57, 81
2, 339954, Note_on_c, 0, 59, 84
2, 339955, Note_on_c, 0, 52, 0
2, 339962, Control_c, 0, 64, 63
2, 339969, Control_c, 0, 64, 0
2, 339987, Note_on_c, 0, 66, 113
2, 339996, Note_on_c, 0, 75, 105
2, 340003, Note_on_c, 0, 76, 0
2, 340019, Control_c, 0, 64, 63
2, 340025, Control_c, 0, 64, 127
2, 340041, Note_on_c, 0, 80, 88
2, 340055, Note_on_c, 0, 75, 0
2, 340090, Note_on_c, 0, 78, 79
2, 340111, Note_on_c, 0, 80, 0
2, 340137, Note_on_c, 0, 78, 0
2, 340140, Note_on_c, 0, 73, 112
2, 340185, Note_on_c, 0, 78, 86
2, 340191, Note_on_c, 0, 73, 0
2, 340227, Note_on_c, 0, 76, 89
2, 340256, Note_on_c, 0, 78, 0
2, 340278, Note_on_c, 0, 76, 0
2, 340283, Note_on_c, 0, 71, 108
2, 340330, Note_on_c, 0, 76, 97
2, 340356, Note_on_c, 0, 66, 0
2, 340380, Note_on_c, 0, 71, 0
2, 340381, Note_on_c, 0, 75, 96
2, 340391, Note_on_c, 0, 57, 0
2, 340401, Note_on_c, 0, 76, 0
2, 340418, Note_on_c, 0, 59, 0
2, 340428, Note_on_c, 0, 75, 0
2, 340432, Note_on_c, 0, 69, 99
2, 340477, Note_on_c, 0, 75, 96
2, 340521, Note_on_c, 0, 69, 0
2, 340526, Note_on_c, 0, 73, 87
2, 340533, Note_on_c, 0, 75, 0
2, 340559, Note_on_c, 0, 52, 29
2, 340561, Note_on_c, 0, 56, 61
2, 340573, Note_on_c, 0, 59, 63
2, 340578, Note_on_c, 0, 73, 0
2, 340578, Note_on_c, 0, 68, 89
2, 340582, Control_c, 0, 64, 63
2, 340586, Control_c, 0, 64, 0
2, 340594, Note_on_c, 0, 64, 39
2, 340632, Note_on_c, 0, 67, 68
2, 340634, Note_on_c, 0, 68, 0
2, 340664, Note_on_c, 0, 64, 0
2, 340671, Note_on_c, 0, 52, 0
2, 340676, Note_on_c, 0, 68, 73
2, 340677, Note_on_c, 0, 56, 0
2, 340679, Note_on_c, 0, 67, 0
2, 340688, Note_on_c, 0, 59, 0
2, 340720, Note_on_c, 0, 68, 0
2, 340728, Note_on_c, 0, 69, 68
2, 340775, Note_on_c, 0, 71, 55
2, 340776, Note_on_c, 0, 52, 56
2, 340782, Note_on_c, 0, 69, 0
2, 340800, Control_c, 0, 64, 63
2, 340802, Control_c, 0, 64, 127
2, 340826, Note_on_c, 0, 52, 0
2, 340828, Note_on_c, 0, 71, 0
2, 340828, Note_on_c, 0, 73, 59
2, 340836, Note_on_c, 0, 58, 52
2, 340876, Note_on_c, 0, 61, 69
2, 340896, Note_on_c, 0, 75, 71
2, 340904, Note_on_c, 0, 73, 0
2, 340909, Note_on_c, 0, 66, 77
2, 340947, Note_on_c, 0, 75, 0
2, 340959, Note_on_c, 0, 76, 51
2, 341019, Note_on_c, 0, 76, 0
2, 341024, Note_on_c, 0, 78, 72
2, 341067, Note_on_c, 0, 80, 75
2, 341077, Note_on_c, 0, 78, 0
2, 341118, Note_on_c, 0, 82, 67
2, 341133, Note_on_c, 0, 80, 0
2, 341161, Note_on_c, 0, 82, 0
2, 341171, Note_on_c, 0, 83, 50
2, 341212, Note_on_c, 0, 83, 0
2, 341222, Note_on_c, 0, 85, 69
2, 341262, Note_on_c, 0, 87, 81
2, 341269, Note_on_c, 0, 85, 0
2, 341303, Note_on_c, 0, 87, 0
2, 341314, Note_on_c, 0, 88, 69
2, 341363, Note_on_c, 0, 90, 78
2, 341367, Note_on_c, 0, 88, 0
2, 341412, Note_on_c, 0, 92, 78
2, 341424, Note_on_c, 0, 90, 0
2, 341461, Note_on_c, 0, 94, 68
2, 341476, Note_on_c, 0, 92, 0
2, 341501, Note_on_c, 0, 94, 0
2, 341518, Note_on_c, 0, 95, 48
2, 341568, Note_on_c, 0, 95, 0
2, 341572, Note_on_c, 0, 97, 53
2, 341607, Note_on_c, 0, 99, 69
2, 341620, Note_on_c, 0, 97, 0
2, 341656, Note_on_c, 0, 99, 0
2, 341658, Note_on_c, 0, 100, 62
2, 341711, Note_on_c, 0, 99, 73
2, 341720, Note_on_c, 0, 100, 0
2, 341757, Note_on_c, 0, 97, 69
2, 341766, Note_on_c, 0, 99, 0
2, 341798, Note_on_c, 0, 97, 0
2, 341804, Note_on_c, 0, 95, 58
2, 341839, Note_on_c, 0, 95, 0
2, 341856, Note_on_c, 0, 94, 66
2, 341904, Note_on_c, 0, 92, 65
2, 341906, Note_on_c, 0, 94, 0
2, 341916, Note_on_c, 0, 58, 0
2, 341921, Note_on_c, 0, 66, 0
2, 341923, Note_on_c, 0, 61, 0
2, 341951, Note_on_c, 0, 90, 72
2, 341958, Note_on_c, 0, 92, 0
2, 341994, Note_on_c, 0, 90, 0
2, 341997, Note_on_c, 0, 88, 48
2, 342043, Note_on_c, 0, 87, 77
2, 342044, Note_on_c, 0, 88, 0
2, 342092, Note_on_c, 0, 85, 77
2, 342102, Note_on_c, 0, 87, 0
2, 342134, Note_on_c, 0, 85, 0
2, 342137, Note_on_c, 0, 83, 56
2, 342188, Note_on_c, 0, 82, 77
2, 342190, Note_on_c, 0, 83, 0
2, 342242, Note_on_c, 0, 80, 73
2, 342247, Note_on_c, 0, 82, 0
2, 342283, Note_on_c, 0, 78, 75
2, 342297, Note_on_c, 0, 80, 0
2, 342329, Note_on_c, 0, 76, 62
2, 342330, Note_on_c, 0, 78, 0
2, 342363, Control_c, 0, 64, 63
2, 342368, Note_on_c, 0, 57, 44
2, 342371, Control_c, 0, 64, 0
2, 342375, Note_on_c, 0, 76, 0
2, 342377, Note_on_c, 0, 59, 55
2, 342378, Control_c, 0, 64, 63
2, 342385, Note_on_c, 0, 75, 75
2, 342391, Note_on_c, 0, 66, 70
2, 342397, Control_c, 0, 64, 127
2, 342416, Note_on_c, 0, 59, 0
2, 342417, Note_on_c, 0, 57, 0
2, 342425, Note_on_c, 0, 75, 0
2, 342428, Note_on_c, 0, 66, 0
2, 342438, Note_on_c, 0, 73, 77
2, 342479, Note_on_c, 0, 71, 79
2, 342481, Note_on_c, 0, 73, 0
2, 342510, Note_on_c, 0, 71, 0
2, 342527, Note_on_c, 0, 69, 82
2, 342578, Note_on_c, 0, 69, 0
2, 342578, Note_on_c, 0, 68, 85
2, 342627, Note_on_c, 0, 66, 86
2, 342633, Note_on_c, 0, 68, 0
2, 342670, Note_on_c, 0, 66, 0
2, 342676, Note_on_c, 0, 64, 87
2, 342722, Note_on_c, 0, 63, 91
2, 342725, Note_on_c, 0, 64, 0
2, 342769, Note_on_c, 0, 61, 93
2, 342773, Note_on_c, 0, 63, 0
2, 342805, Note_on_c, 0, 61, 0
2, 342806, Note_on_c, 0, 59, 95
2, 342842, Note_on_c, 0, 59, 0
2, 342854, Note_on_c, 0, 57, 98
2, 342905, Note_on_c, 0, 57, 0
2, 342908, Note_on_c, 0, 54, 101
2, 342953, Control_c, 0, 64, 63
2, 342958, Control_c, 0, 64, 0
2, 342959, Note_on_c, 0, 54, 0
2, 342960, Note_on_c, 0, 52, 102
2, 342961, Note_on_c, 0, 40, 114
2, 342988, Control_c, 0, 64, 63
2, 343005, Control_c, 0, 64, 127
2, 343007, Note_on_c, 0, 52, 0
2, 343012, Note_on_c, 0, 40, 0
2, 343070, Control_c, 0, 64, 63
2, 343083, Control_c, 0, 64, 0
2, 343152, Note_on_c, 0, 44, 86
2, 343162, Note_on_c, 0, 56, 83
2, 343200, Note_on_c, 0, 56, 0
2, 343209, Note_on_c, 0, 57, 68
2, 343210, Note_on_c, 0, 44, 0
2, 343214, Note_on_c, 0, 45, 69
2, 343257, Note_on_c, 0, 57, 0
2, 343261, Note_on_c, 0, 58, 73
2, 343269, Note_on_c, 0, 46, 70
2, 343273, Note_on_c, 0, 45, 0
2, 343308, Note_on_c, 0, 59, 65
2, 343318, Note_on_c, 0, 46, 0
2, 343318, Note_on_c, 0, 47, 74
2, 343322, Note_on_c, 0, 58, 0
2, 343356, Note_on_c, 0, 61, 91
2, 343361, Note_on_c, 0, 59, 0
2, 343366, Note_on_c, 0, 49, 83
2, 343374, Note_on_c, 0, 47, 0
2, 343396, Note_on_c, 0, 49, 0
2, 343410, Note_on_c, 0, 61, 0
2, 343413, Note_on_c, 0, 59, 72
2, 343419, Note_on_c, 0, 47, 79
2, 343466, Note_on_c, 0, 57, 68
2, 343467, Note_on_c, 0, 45, 87
2, 343474, Note_on_c, 0, 47, 0
2, 343477, Note_on_c, 0, 59, 0
2, 343514, Note_on_c, 0, 47, 78
2, 343515, Note_on_c, 0, 59, 76
2, 343516, Note_on_c, 0, 45, 0
2, 343518, Note_on_c, 0, 57, 0
2, 343566, Note_on_c, 0, 59, 0
2, 343566, Note_on_c, 0, 56, 94
2, 343567, Note_on_c, 0, 47, 0
2, 343569, Note_on_c, 0, 44, 87
2, 343610, Note_on_c, 0, 40, 87
2, 343612, Note_on_c, 0, 44, 0
2, 343614, Note_on_c, 0, 56, 0
2, 343620, Note_on_c, 0, 52, 78
2, 343661, Note_on_c, 0, 52, 0
2, 343663, Note_on_c, 0, 44, 90
2, 343671, Note_on_c, 0, 56, 82
2, 343677, Note_on_c, 0, 40, 0
2, 343713, Note_on_c, 0, 56, 0
2, 343720, Note_on_c, 0, 45, 85
2, 343725, Note_on_c, 0, 57, 54
2, 343740, Note_on_c, 0, 44, 0
2, 343762, Note_on_c, 0, 47, 85
2, 343766, Note_on_c, 0, 45, 0
2, 343776, Note_on_c, 0, 59, 5
2, 343781, Note_on_c, 0, 57, 0
2, 343817, Note_on_c, 0, 49, 97
2, 343826, Note_on_c, 0, 61, 92
2, 343827, Note_on_c, 0, 59, 0
2, 343828, Note_on_c, 0, 47, 0
2, 343866, Note_on_c, 0, 61, 0
2, 343867, Note_on_c, 0, 50, 87
2, 343868, Note_on_c, 0, 62, 75
2, 343881, Note_on_c, 0, 49, 0
2, 343906, Note_on_c, 0, 50, 0
2, 343907, Note_on_c, 0, 52, 93
2, 343910, Note_on_c, 0, 62, 0
2, 343917, Note_on_c, 0, 64, 87
2, 343962, Note_on_c, 0, 54, 96
2, 343968, Note_on_c, 0, 66, 96
2, 343970, Note_on_c, 0, 52, 0
2, 343976, Note_on_c, 0, 64, 0
2, 343999, Note_on_c, 0, 54, 0
2, 344016, Note_on_c, 0, 64, 70
2, 344017, Note_on_c, 0, 52, 85
2, 344020, Note_on_c, 0, 66, 0
2, 344064, Note_on_c, 0, 50, 88
2, 344065, Note_on_c, 0, 52, 0
2, 344067, Note_on_c, 0, 62, 89
2, 344078, Note_on_c, 0, 64, 0
2, 344109, Note_on_c, 0, 49, 88
2, 344112, Note_on_c, 0, 61, 98
2, 344117, Note_on_c, 0, 50, 0
2, 344122, Note_on_c, 0, 62, 0
2, 344159, Note_on_c, 0, 61, 0
2, 344160, Note_on_c, 0, 47, 57
2, 344166, Note_on_c, 0, 59, 54
2, 344170, Note_on_c, 0, 49, 0
2, 344210, Note_on_c, 0, 57, 91
2, 344211, Note_on_c, 0, 59, 0
2, 344211, Note_on_c, 0, 45, 82
2, 344225, Note_on_c, 0, 47, 0
2, 344246, Note_on_c, 0, 57, 0
2, 344261, Note_on_c, 0, 49, 93
2, 344266, Note_on_c, 0, 61, 100
2, 344277, Note_on_c, 0, 45, 0
2, 344306, Note_on_c, 0, 61, 0
2, 344310, Note_on_c, 0, 49, 0
2, 344313, Note_on_c, 0, 50, 76
2, 344318, Note_on_c, 0, 62, 90
2, 344360, Note_on_c, 0, 62, 0
2, 344363, Note_on_c, 0, 51, 90
2, 344365, Note_on_c, 0, 63, 98
2, 344367, Note_on_c, 0, 50, 0
2, 344410, Note_on_c, 0, 63, 0
2, 344412, Note_on_c, 0, 51, 0
2, 344415, Note_on_c, 0, 52, 83
2, 344415, Note_on_c, 0, 64, 87
2, 344464, Note_on_c, 0, 64, 0
2, 344466, Note_on_c, 0, 65, 93
2, 344467, Note_on_c, 0, 53, 83
2, 344469, Note_on_c, 0, 52, 0
2, 344518, Note_on_c, 0, 66, 103
2, 344520, Note_on_c, 0, 54, 90
2, 344523, Note_on_c, 0, 65, 0
2, 344529, Note_on_c, 0, 53, 0
2, 344564, Note_on_c, 0, 68, 91
2, 344568, Note_on_c, 0, 54, 0
2, 344569, Note_on_c, 0, 66, 0
2, 344570, Note_on_c, 0, 56, 77
2, 344607, Note_on_c, 0, 54, 61
2, 344608, Note_on_c, 0, 56, 0
2, 344614, Note_on_c, 0, 66, 95
2, 344632, Note_on_c, 0, 68, 0
2, 344651, Note_on_c, 0, 53, 75
2, 344658, Note_on_c, 0, 54, 0
2, 344666, Note_on_c, 0, 65, 81
2, 344674, Note_on_c, 0, 66, 0
2, 344708, Note_on_c, 0, 54, 90
2, 344710, Note_on_c, 0, 53, 0
2, 344716, Note_on_c, 0, 66, 103
2, 344719, Note_on_c, 0, 65, 0
2, 344757, Note_on_c, 0, 66, 0
2, 344762, Note_on_c, 0, 48, 63
2, 344766, Note_on_c, 0, 60, 81
2, 344768, Note_on_c, 0, 54, 0
2, 344794, Note_on_c, 0, 48, 0
2, 344819, Note_on_c, 0, 47, 81
2, 344821, Note_on_c, 0, 60, 0
2, 344824, Note_on_c, 0, 59, 75
2, 344856, Note_on_c, 0, 59, 0
2, 344867, Note_on_c, 0, 47, 0
2, 344867, Note_on_c, 0, 51, 88
2, 344876, Note_on_c, 0, 63, 69
2, 344913, Note_on_c, 0, 51, 0
2, 344921, Note_on_c, 0, 63, 0
2, 344921, Note_on_c, 0, 52, 83
2, 344927, Note_on_c, 0, 64, 76
2, 344971, Note_on_c, 0, 54, 96
2, 344974, Note_on_c, 0, 64, 0
2, 344976, Note_on_c, 0, 52, 0
2, 344982, Note_on_c, 0, 66, 99
2, 345019, Note_on_c, 0, 56, 92
2, 345022, Note_on_c, 0, 68, 96
2, 345032, Note_on_c, 0, 66, 0
2, 345034, Note_on_c, 0, 54, 0
2, 345068, Note_on_c, 0, 57, 89
2, 345069, Note_on_c, 0, 69, 79
2, 345071, Note_on_c, 0, 68, 0
2, 345092, Note_on_c, 0, 56, 0
2, 345114, Note_on_c, 0, 57, 0
2, 345116, Note_on_c, 0, 59, 94
2, 345117, Note_on_c, 0, 69, 0
2, 345121, Note_on_c, 0, 71, 89
2, 345169, Note_on_c, 0, 61, 105
2, 345175, Note_on_c, 0, 73, 93
2, 345178, Note_on_c, 0, 59, 0
2, 345179, Note_on_c, 0, 71, 0
2, 345206, Note_on_c, 0, 61, 0
2, 345221, Note_on_c, 0, 71, 65
2, 345225, Note_on_c, 0, 59, 91
2, 345230, Note_on_c, 0, 73, 0
2, 345278, Note_on_c, 0, 57, 85
2, 345279, Note_on_c, 0, 59, 0
2, 345280, Note_on_c, 0, 69, 76
2, 345284, Note_on_c, 0, 71, 0
2, 345322, Note_on_c, 0, 56, 84
2, 345324, Note_on_c, 0, 69, 0
2, 345325, Note_on_c, 0, 68, 94
2, 345331, Note_on_c, 0, 57, 0
2, 345361, Note_on_c, 0, 54, 87
2, 345370, Note_on_c, 0, 68, 0
2, 345380, Note_on_c, 0, 56, 0
2, 345380, Note_on_c, 0, 66, 84
2, 345394, Note_on_c, 0, 66, 0
2, 345419, Note_on_c, 0, 52, 82
2, 345420, Note_on_c, 0, 54, 0
2, 345433, Note_on_c, 0, 64, 81
2, 345468, Note_on_c, 0, 54, 80
2, 345476, Note_on_c, 0, 64, 0
2, 345487, Note_on_c, 0, 66, 81
2, 345496, Note_on_c, 0, 52, 0
2, 345519, Note_on_c, 0, 54, 0
2, 345520, Note_on_c, 0, 55, 69
2, 345527, Note_on_c, 0, 66, 0
2, 345531, Note_on_c, 0, 67, 68
2, 345573, Note_on_c, 0, 67, 0
2, 345574, Note_on_c, 0, 56, 87
2, 345578, Note_on_c, 0, 55, 0
2, 345580, Note_on_c, 0, 68, 81
2, 345625, Note_on_c, 0, 56, 0
2, 345631, Note_on_c, 0, 57, 69
2, 345638, Note_on_c, 0, 68, 0
2, 345640, Note_on_c, 0, 69, 66
2, 345681, Note_on_c, 0, 69, 0
2, 345685, Note_on_c, 0, 58, 87
2, 345686, Note_on_c, 0, 70, 80
2, 345691, Note_on_c, 0, 57, 0
2, 345705, Note_on_c, 0, 70, 0
2, 345732, Note_on_c, 0, 71, 73
2, 345733, Note_on_c, 0, 58, 0
2, 345739, Note_on_c, 0, 59, 79
2, 345781, Note_on_c, 0, 73, 89
2, 345784, Note_on_c, 0, 61, 89
2, 345785, Note_on_c, 0, 71, 0
2, 345786, Note_on_c, 0, 59, 0
2, 345813, Note_on_c, 0, 61, 0
2, 345833, Note_on_c, 0, 73, 0
2, 345835, Note_on_c, 0, 71, 57
2, 345837, Note_on_c, 0, 59, 84
2, 345883, Note_on_c, 0, 69, 76
2, 345886, Note_on_c, 0, 57, 86
2, 345888, Note_on_c, 0, 59, 0
2, 345892, Note_on_c, 0, 71, 0
2, 345930, Note_on_c, 0, 57, 0
2, 345933, Note_on_c, 0, 69, 0
2, 345934, Note_on_c, 0, 71, 87
2, 345935, Note_on_c, 0, 59, 72
2, 345982, Note_on_c, 0, 56, 80
2, 345983, Note_on_c, 0, 59, 0
2, 345989, Note_on_c, 0, 68, 91
2, 345990, Note_on_c, 0, 71, 0
2, 346026, Note_on_c, 0, 52, 82
2, 346027, Note_on_c, 0, 56, 0
2, 346038, Note_on_c, 0, 68, 0
2, 346041, Note_on_c, 0, 64, 76
2, 346081, Note_on_c, 0, 64, 0
2, 346081, Note_on_c, 0, 56, 89
2, 346090, Note_on_c, 0, 68, 86
2, 346104, Note_on_c, 0, 52, 0
2, 346129, Note_on_c, 0, 68, 0
2, 346136, Note_on_c, 0, 57, 84
2, 346136, Note_on_c, 0, 69, 77
2, 346155, Note_on_c, 0, 56, 0
2, 346181, Note_on_c, 0, 71, 79
2, 346181, Note_on_c, 0, 59, 86
2, 346185, Note_on_c, 0, 57, 0
2, 346189, Note_on_c, 0, 69, 0
2, 346235, Note_on_c, 0, 61, 88
2, 346239, Note_on_c, 0, 73, 89
2, 346247, Note_on_c, 0, 59, 0
2, 346271, Note_on_c, 0, 71, 0
2, 346285, Note_on_c, 0, 73, 0
2, 346286, Note_on_c, 0, 74, 84
2, 346286, Note_on_c, 0, 62, 92
2, 346300, Note_on_c, 0, 61, 0
2, 346325, Note_on_c, 0, 64, 92
2, 346328, Note_on_c, 0, 62, 0
2, 346331, Note_on_c, 0, 74, 0
2, 346337, Note_on_c, 0, 76, 99
2, 346376, Note_on_c, 0, 66, 107
2, 346387, Note_on_c, 0, 64, 0
2, 346388, Note_on_c, 0, 78, 97
2, 346396, Note_on_c, 0, 76, 0
2, 346415, Note_on_c, 0, 66, 0
2, 346428, Note_on_c, 0, 76, 86
2, 346436, Note_on_c, 0, 64, 86
2, 346452, Note_on_c, 0, 78, 0
2, 346481, Note_on_c, 0, 74, 97
2, 346483, Note_on_c, 0, 62, 93
2, 346487, Note_on_c, 0, 64, 0
2, 346502, Note_on_c, 0, 76, 0
2, 346523, Note_on_c, 0, 61, 99
2, 346525, Note_on_c, 0, 73, 103
2, 346539, Note_on_c, 0, 62, 0
2, 346540, Note_on_c, 0, 74, 0
2, 346575, Note_on_c, 0, 73, 0
2, 346577, Note_on_c, 0, 71, 86
2, 346581, Note_on_c, 0, 59, 77
2, 346588, Note_on_c, 0, 61, 0
2, 346616, Note_on_c, 0, 71, 0
2, 346630, Note_on_c, 0, 57, 90
2, 346631, Note_on_c, 0, 69, 88
2, 346644, Note_on_c, 0, 59, 0
2, 346669, Note_on_c, 0, 69, 0
2, 346679, Note_on_c, 0, 73, 105
2, 346682, Note_on_c, 0, 61, 107
2, 346699, Note_on_c, 0, 57, 0
2, 346729, Note_on_c, 0, 73, 0
2, 346730, Note_on_c, 0, 74, 102
2, 346733, Note_on_c, 0, 61, 0
2, 346733, Note_on_c, 0, 62, 96
2, 346779, Note_on_c, 0, 74, 0
2, 346783, Note_on_c, 0, 63, 110
2, 346785, Note_on_c, 0, 75, 108
2, 346797, Note_on_c, 0, 62, 0
2, 346832, Note_on_c, 0, 75, 0
2, 346836, Note_on_c, 0, 76, 103
2, 346836, Note_on_c, 0, 64, 92
2, 346838, Note_on_c, 0, 63, 0
2, 346887, Note_on_c, 0, 65, 99
2, 346889, Note_on_c, 0, 77, 106
2, 346890, Note_on_c, 0, 76, 0
2, 346895, Note_on_c, 0, 64, 0
2, 346937, Note_on_c, 0, 78, 106
2, 346939, Note_on_c, 0, 66, 103
2, 346954, Note_on_c, 0, 65, 0
2, 346955, Note_on_c, 0, 77, 0
2, 346986, Note_on_c, 0, 68, 95
2, 346987, Note_on_c, 0, 80, 103
2, 346989, Note_on_c, 0, 66, 0
2, 347000, Note_on_c, 0, 78, 0
2, 347035, Note_on_c, 0, 66, 83
2, 347039, Note_on_c, 0, 68, 0
2, 347042, Note_on_c, 0, 78, 105
2, 347062, Note_on_c, 0, 80, 0
2, 347070, Note_on_c, 0, 65, 84
2, 347086, Note_on_c, 0, 66, 0
2, 347089, Note_on_c, 0, 77, 103
2, 347102, Note_on_c, 0, 78, 0
2, 347130, Note_on_c, 0, 66, 97
2, 347137, Note_on_c, 0, 65, 0
2, 347144, Note_on_c, 0, 78, 104
2, 347149, Note_on_c, 0, 77, 0
2, 347175, Note_on_c, 0, 60, 71
2, 347187, Note_on_c, 0, 66, 0
2, 347188, Note_on_c, 0, 78, 0
2, 347193, Note_on_c, 0, 72, 78
2, 347210, Note_on_c, 0, 60, 0
2, 347236, Note_on_c, 0, 59, 97
2, 347240, Note_on_c, 0, 71, 97
2, 347251, Note_on_c, 0, 72, 0
2, 347281, Note_on_c, 0, 71, 0
2, 347294, Note_on_c, 0, 75, 93
2, 347294, Note_on_c, 0, 63, 93
2, 347297, Note_on_c, 0, 59, 0
2, 347329, Note_on_c, 0, 75, 0
2, 347340, Note_on_c, 0, 63, 0
2, 347347, Note_on_c, 0, 76, 89
2, 347349, Note_on_c, 0, 64, 78
2, 347393, Note_on_c, 0, 76, 0
2, 347396, Note_on_c, 0, 66, 96
2, 347400, Note_on_c, 0, 78, 97
2, 347402, Note_on_c, 0, 64, 0
2, 347443, Note_on_c, 0, 80, 95
2, 347446, Note_on_c, 0, 68, 85
2, 347453, Note_on_c, 0, 78, 0
2, 347460, Note_on_c, 0, 66, 0
2, 347491, Note_on_c, 0, 81, 76
2, 347492, Note_on_c, 0, 80, 0
2, 347494, Note_on_c, 0, 69, 80
2, 347517, Note_on_c, 0, 68, 0
2, 347539, Note_on_c, 0, 69, 0
2, 347541, Note_on_c, 0, 81, 0
2, 347545, Note_on_c, 0, 83, 81
2, 347547, Note_on_c, 0, 71, 78
2, 347594, Note_on_c, 0, 83, 0
2, 347595, Note_on_c, 0, 85, 90
2, 347596, Note_on_c, 0, 73, 88
2, 347603, Note_on_c, 0, 71, 0
2, 347632, Note_on_c, 0, 73, 0
2, 347640, Note_on_c, 0, 85, 0
2, 347644, Note_on_c, 0, 83, 65
2, 347650, Note_on_c, 0, 71, 77
2, 347695, Note_on_c, 0, 71, 0
2, 347699, Note_on_c, 0, 69, 73
2, 347701, Note_on_c, 0, 83, 0
2, 347703, Note_on_c, 0, 81, 65
2, 347746, Note_on_c, 0, 81, 0
2, 347747, Note_on_c, 0, 68, 55
2, 347751, Note_on_c, 0, 69, 0
2, 347755, Note_on_c, 0, 80, 71
2, 347789, Note_on_c, 0, 66, 67
2, 347807, Note_on_c, 0, 80, 0
2, 347807, Note_on_c, 0, 68, 0
2, 347807, Note_on_c, 0, 78, 74
2, 347840, Note_on_c, 0, 78, 0
2, 347858, Note_on_c, 0, 66, 0
2, 347858, Note_on_c, 0, 64, 76
2, 347865, Note_on_c, 0, 76, 78
2, 347907, Note_on_c, 0, 68, 71
2, 347913, Note_on_c, 0, 76, 0
2, 347914, Note_on_c, 0, 64, 0
2, 347915, Note_on_c, 0, 80, 73
2, 347952, Note_on_c, 0, 80, 0
2, 347960, Note_on_c, 0, 83, 71
2, 347964, Note_on_c, 0, 71, 75
2, 347978, Note_on_c, 0, 68, 0
2, 347979, Note_on_c, 0, 83, 0
2, 347998, Note_on_c, 0, 71, 0
2, 348011, Note_on_c, 0, 76, 103
2, 348014, Note_on_c, 0, 88, 104
2, 348046, Note_on_c, 0, 73, 93
2, 348054, Note_on_c, 0, 76, 0
2, 348055, Note_on_c, 0, 88, 0
2, 348060, Note_on_c, 0, 85, 92
2, 348105, Note_on_c, 0, 70, 88
2, 348112, Note_on_c, 0, 82, 92
2, 348114, Note_on_c, 0, 85, 0
2, 348119, Note_on_c, 0, 73, 0
2, 348140, Note_on_c, 0, 82, 0
2, 348146, Note_on_c, 0, 70, 0
2, 348154, Note_on_c, 0, 71, 97
2, 348159, Note_on_c, 0, 83, 97
2, 348201, Note_on_c, 0, 71, 0
2, 348213, Note_on_c, 0, 66, 91
2, 348215, Note_on_c, 0, 78, 96
2, 348217, Note_on_c, 0, 83, 0
2, 348260, Note_on_c, 0, 78, 0
2, 348263, Note_on_c, 0, 80, 75
2, 348266, Note_on_c, 0, 66, 0
2, 348268, Note_on_c, 0, 68, 71
2, 348283, Note_on_c, 0, 80, 0
2, 348311, Note_on_c, 0, 68, 0
2, 348312, Note_on_c, 0, 69, 65
2, 348313, Note_on_c, 0, 81, 86
2, 348352, Note_on_c, 0, 80, 82
2, 348358, Note_on_c, 0, 81, 0
2, 348366, Note_on_c, 0, 68, 58
2, 348370, Note_on_c, 0, 69, 0
2, 348396, Note_on_c, 0, 66, 63
2, 348405, Note_on_c, 0, 78, 87
2, 348418, Note_on_c, 0, 80, 0
2, 348428, Note_on_c, 0, 68, 0
2, 348449, Note_on_c, 0, 78, 0
2, 348461, Note_on_c, 0, 76, 84
2, 348466, Note_on_c, 0, 64, 81
2, 348480, Note_on_c, 0, 66, 0
2, 348501, Note_on_c, 0, 68, 88
2, 348504, Note_on_c, 0, 76, 0
2, 348511, Note_on_c, 0, 64, 0
2, 348511, Note_on_c, 0, 80, 91
2, 348546, Note_on_c, 0, 80, 0
2, 348553, Note_on_c, 0, 71, 84
2, 348556, Note_on_c, 0, 83, 78
2, 348570, Note_on_c, 0, 68, 0
2, 348578, Note_on_c, 0, 83, 0
2, 348589, Note_on_c, 0, 71, 0
2, 348600, Note_on_c, 0, 76, 93
2, 348609, Note_on_c, 0, 88, 101
2, 348642, Note_on_c, 0, 73, 88
2, 348647, Note_on_c, 0, 76, 0
2, 348654, Note_on_c, 0, 85, 94
2, 348662, Note_on_c, 0, 88, 0
2, 348696, Note_on_c, 0, 70, 88
2, 348704, Note_on_c, 0, 82, 91
2, 348706, Note_on_c, 0, 85, 0
2, 348711, Note_on_c, 0, 73, 0
2, 348730, Note_on_c, 0, 82, 0
2, 348736, Note_on_c, 0, 70, 0
2, 348744, Note_on_c, 0, 71, 89
2, 348753, Note_on_c, 0, 83, 99
2, 348793, Note_on_c, 0, 71, 0
2, 348799, Note_on_c, 0, 66, 96
2, 348800, Note_on_c, 0, 78, 94
2, 348807, Note_on_c, 0, 83, 0
2, 348844, Note_on_c, 0, 80, 91
2, 348851, Note_on_c, 0, 78, 0
2, 348853, Note_on_c, 0, 66, 0
2, 348853, Note_on_c, 0, 68, 88
2, 348889, Note_on_c, 0, 80, 0
2, 348892, Note_on_c, 0, 81, 98
2, 348893, Note_on_c, 0, 68, 0
2, 348893, Note_on_c, 0, 69, 79
2, 348934, Note_on_c, 0, 80, 88
2, 348940, Note_on_c, 0, 68, 85
2, 348947, Note_on_c, 0, 69, 0
2, 348952, Note_on_c, 0, 81, 0
2, 348991, Note_on_c, 0, 66, 83
2, 348993, Note_on_c, 0, 78, 94
2, 349009, Note_on_c, 0, 80, 0
2, 349013, Note_on_c, 0, 68, 0
2, 349039, Note_on_c, 0, 78, 0
2, 349046, Note_on_c, 0, 76, 84
2, 349055, Note_on_c, 0, 66, 0
2, 349058, Note_on_c, 0, 64, 67
2, 349092, Note_on_c, 0, 76, 0
2, 349099, Note_on_c, 0, 66, 77
2, 349101, Note_on_c, 0, 78, 91
2, 349134, Note_on_c, 0, 64, 0
2, 349142, Note_on_c, 0, 80, 97
2, 349147, Note_on_c, 0, 68, 88
2, 349152, Note_on_c, 0, 78, 0
2, 349183, Note_on_c, 0, 66, 0
2, 349184, Note_on_c, 0, 80, 0
2, 349193, Note_on_c, 0, 81, 89
2, 349193, Note_on_c, 0, 69, 91
2, 349221, Note_on_c, 0, 68, 0
2, 349239, Note_on_c, 0, 83, 94
2, 349246, Note_on_c, 0, 81, 0
2, 349246, Note_on_c, 0, 71, 90
2, 349247, Note_on_c, 0, 69, 0
2, 349284, Note_on_c, 0, 85, 104
2, 349293, Note_on_c, 0, 73, 105
2, 349300, Note_on_c, 0, 83, 0
2, 349303, Note_on_c, 0, 71, 0
2, 349333, Note_on_c, 0, 87, 100
2, 349342, Note_on_c, 0, 75, 107
2, 349354, Note_on_c, 0, 85, 0
2, 349358, Note_on_c, 0, 73, 0
2, 349376, Note_on_c, 0, 87, 0
2, 349384, Note_on_c, 0, 88, 89
2, 349388, Note_on_c, 0, 76, 93
2, 349390, Note_on_c, 0, 75, 0
2, 349431, Note_on_c, 0, 78, 101
2, 349437, Note_on_c, 0, 88, 0
2, 349437, Note_on_c, 0, 90, 106
2, 349442, Note_on_c, 0, 76, 0
2, 349481, Note_on_c, 0, 92, 109
2, 349481, Note_on_c, 0, 80, 107
2, 349490, Note_on_c, 0, 78, 0
2, 349494, Note_on_c, 0, 90, 0
2, 349529, Note_on_c, 0, 90, 88
2, 349534, Note_on_c, 0, 78, 104
2, 349548, Note_on_c, 0, 92, 0
2, 349549, Note_on_c, 0, 80, 0
2, 349576, Note_on_c, 0, 88, 81
2, 349582, Note_on_c, 0, 90, 0
2, 349585, Note_on_c, 0, 78, 0
2, 349587, Note_on_c, 0, 76, 89
2, 349617, Note_on_c, 0, 88, 0
2, 349628, Note_on_c, 0, 87, 99
2, 349631, Note_on_c, 0, 75, 101
2, 349637, Note_on_c, 0, 76, 0
2, 349674, Note_on_c, 0, 73, 103
2, 349678, Note_on_c, 0, 85, 103
2, 349686, Note_on_c, 0, 75, 0
2, 349700, Note_on_c, 0, 87, 0
2, 349723, Note_on_c, 0, 83, 74
2, 349724, Note_on_c, 0, 71, 93
2, 349727, Note_on_c, 0, 73, 0
2, 349728, Note_on_c, 0, 85, 0
2, 349752, Note_on_c, 0, 83, 0
2, 349774, Note_on_c, 0, 81, 91
2, 349780, Note_on_c, 0, 69, 89
2, 349781, Note_on_c, 0, 71, 0
2, 349820, Note_on_c, 0, 68, 90
2, 349824, Note_on_c, 0, 80, 92
2, 349828, Note_on_c, 0, 69, 0
2, 349833, Note_on_c, 0, 81, 0
2, 349868, Note_on_c, 0, 66, 91
2, 349873, Note_on_c, 0, 78, 90
2, 349884, Note_on_c, 0, 68, 0
2, 349894, Note_on_c, 0, 80, 0
2, 349918, Note_on_c, 0, 76, 85
2, 349922, Note_on_c, 0, 66, 0
2, 349922, Note_on_c, 0, 64, 90
2, 349924, Note_on_c, 0, 78, 0
2, 349962, Note_on_c, 0, 76, 0
2, 349971, Note_on_c, 0, 75, 93
2, 349975, Note_on_c, 0, 63, 96
2, 349977, Note_on_c, 0, 64, 0
2, 350017, Note_on_c, 0, 61, 90
2, 350020, Note_on_c, 0, 73, 93
2, 350030, Note_on_c, 0, 63, 0
2, 350039, Note_on_c, 0, 75, 0
2, 350063, Note_on_c, 0, 71, 82
2, 350064, Note_on_c, 0, 61, 0
2, 350067, Note_on_c, 0, 73, 0
2, 350069, Note_on_c, 0, 59, 87
2, 350096, Note_on_c, 0, 71, 0
2, 350113, Note_on_c, 0, 57, 88
2, 350114, Note_on_c, 0, 69, 96
2, 350120, Note_on_c, 0, 59, 0
2, 350161, Note_on_c, 0, 54, 87
2, 350165, Note_on_c, 0, 69, 0
2, 350166, Note_on_c, 0, 66, 91
2, 350169, Note_on_c, 0, 57, 0
2, 350206, Note_on_c, 0, 66, 0
2, 350214, Note_on_c, 0, 52, 84
2, 350217, Note_on_c, 0, 54, 0
2, 350217, Note_on_c, 0, 64, 81
2, 350225, Control_c, 0, 64, 63
2, 350228, Control_c, 0, 64, 127
2, 350255, Note_on_c, 0, 64, 0
2, 350260, Note_on_c, 0, 52, 0
2, 350261, Note_on_c, 0, 56, 76
2, 350266, Note_on_c, 0, 68, 83
2, 350303, Note_on_c, 0, 68, 0
2, 350311, Note_on_c, 0, 71, 84
2, 350312, Note_on_c, 0, 59, 75
2, 350327, Note_on_c, 0, 56, 0
2, 350328, Control_c, 0, 64, 63
2, 350344, Note_on_c, 0, 71, 0
2, 350352, Note_on_c, 0, 59, 0
2, 350358, Control_c, 0, 64, 127
2, 350366, Note_on_c, 0, 64, 94
2, 350366, Note_on_c, 0, 76, 105
2, 350402, Note_on_c, 0, 61, 79
2, 350411, Note_on_c, 0, 64, 0
2, 350413, Note_on_c, 0, 73, 94
2, 350414, Control_c, 0, 64, 63
2, 350417, Control_c, 0, 64, 0
2, 350421, Note_on_c, 0, 76, 0
2, 350457, Note_on_c, 0, 58, 80
2, 350465, Note_on_c, 0, 70, 97
2, 350466, Note_on_c, 0, 73, 0
2, 350467, Control_c, 0, 64, 63
2, 350470, Note_on_c, 0, 61, 0
2, 350472, Control_c, 0, 64, 127
2, 350492, Note_on_c, 0, 70, 0
2, 350500, Note_on_c, 0, 58, 0
2, 350510, Note_on_c, 0, 59, 78
2, 350514, Note_on_c, 0, 71, 89
2, 350539, Control_c, 0, 64, 63
2, 350542, Control_c, 0, 64, 0
2, 350553, Note_on_c, 0, 59, 0
2, 350563, Note_on_c, 0, 66, 104
2, 350564, Note_on_c, 0, 54, 95
2, 350565, Note_on_c, 0, 71, 0
2, 350609, Note_on_c, 0, 68, 89
2, 350616, Note_on_c, 0, 66, 0
2, 350617, Note_on_c, 0, 54, 0
2, 350617, Note_on_c, 0, 56, 89
2, 350657, Note_on_c, 0, 69, 93
2, 350658, Note_on_c, 0, 56, 0
2, 350660, Note_on_c, 0, 57, 71
2, 350662, Note_on_c, 0, 68, 0
2, 350701, Note_on_c, 0, 68, 92
2, 350715, Note_on_c, 0, 56, 77
2, 350716, Note_on_c, 0, 69, 0
2, 350718, Note_on_c, 0, 57, 0
2, 350744, Note_on_c, 0, 54, 75
2, 350751, Note_on_c, 0, 66, 95
2, 350768, Note_on_c, 0, 56, 0
2, 350771, Note_on_c, 0, 68, 0
2, 350796, Note_on_c, 0, 66, 0
2, 350803, Note_on_c, 0, 64, 86
2, 350806, Note_on_c, 0, 52, 88
2, 350822, Control_c, 0, 64, 63
2, 350825, Note_on_c, 0, 54, 0
2, 350826, Control_c, 0, 64, 127
2, 350850, Note_on_c, 0, 64, 0
2, 350850, Note_on_c, 0, 68, 98
2, 350851, Note_on_c, 0, 56, 89
2, 350860, Note_on_c, 0, 52, 0
2, 350893, Note_on_c, 0, 68, 0
2, 350902, Note_on_c, 0, 59, 85
2, 350903, Note_on_c, 0, 71, 84
2, 350914, Note_on_c, 0, 56, 0
2, 350936, Note_on_c, 0, 71, 0
2, 350940, Note_on_c, 0, 59, 0
2, 350946, Note_on_c, 0, 76, 97
2, 350949, Note_on_c, 0, 64, 100
2, 350955, Control_c, 0, 64, 63
2, 350958, Control_c, 0, 64, 0
2, 350992, Note_on_c, 0, 61, 88
2, 350995, Note_on_c, 0, 76, 0
2, 350997, Note_on_c, 0, 64, 0
2, 350998, Note_on_c, 0, 73, 92
2, 350999, Control_c, 0, 64, 63
2, 351009, Control_c, 0, 64, 127
2, 351027, Control_c, 0, 64, 63
2, 351034, Control_c, 0, 64, 0
2, 351042, Note_on_c, 0, 58, 90
2, 351043, Note_on_c, 0, 70, 92
2, 351044, Note_on_c, 0, 73, 0
2, 351055, Note_on_c, 0, 61, 0
2, 351073, Note_on_c, 0, 70, 0
2, 351085, Note_on_c, 0, 58, 0
2, 351095, Note_on_c, 0, 59, 92
2, 351098, Note_on_c, 0, 71, 90
2, 351142, Note_on_c, 0, 59, 0
2, 351145, Note_on_c, 0, 71, 0
2, 351146, Note_on_c, 0, 66, 101
2, 351147, Note_on_c, 0, 54, 98
2, 351193, Note_on_c, 0, 68, 93
2, 351198, Note_on_c, 0, 56, 93
2, 351206, Note_on_c, 0, 54, 0
2, 351207, Note_on_c, 0, 66, 0
2, 351241, Note_on_c, 0, 69, 87
2, 351245, Note_on_c, 0, 57, 84
2, 351248, Note_on_c, 0, 56, 0
2, 351249, Note_on_c, 0, 68, 0
2, 351291, Note_on_c, 0, 68, 94
2, 351298, Note_on_c, 0, 56, 88
2, 351304, Note_on_c, 0, 57, 0
2, 351312, Note_on_c, 0, 69, 0
2, 351330, Note_on_c, 0, 54, 76
2, 351341, Note_on_c, 0, 66, 91
2, 351344, Note_on_c, 0, 56, 0
2, 351358, Note_on_c, 0, 68, 0
2, 351389, Note_on_c, 0, 66, 0
2, 351394, Note_on_c, 0, 54, 0
2, 351397, Note_on_c, 0, 52, 70
2, 351400, Note_on_c, 0, 64, 75
2, 351444, Note_on_c, 0, 66, 85
2, 351446, Note_on_c, 0, 54, 57
2, 351448, Note_on_c, 0, 64, 0
2, 351474, Note_on_c, 0, 52, 0
2, 351486, Note_on_c, 0, 68, 91
2, 351492, Note_on_c, 0, 56, 86
2, 351498, Note_on_c, 0, 66, 0
2, 351523, Note_on_c, 0, 54, 0
2, 351531, Note_on_c, 0, 68, 0
2, 351538, Note_on_c, 0, 69, 84
2, 351538, Note_on_c, 0, 57, 80
2, 351562, Note_on_c, 0, 56, 0
2, 351588, Note_on_c, 0, 71, 91
2, 351591, Note_on_c, 0, 69, 0
2, 351592, Note_on_c, 0, 57, 0
2, 351594, Note_on_c, 0, 59, 79
2, 351636, Note_on_c, 0, 73, 100
2, 351638, Note_on_c, 0, 61, 99
2, 351644, Note_on_c, 0, 71, 0
2, 351648, Note_on_c, 0, 59, 0
2, 351681, Note_on_c, 0, 75, 96
2, 351690, Note_on_c, 0, 63, 107
2, 351699, Note_on_c, 0, 73, 0
2, 351706, Note_on_c, 0, 61, 0
2, 351727, Note_on_c, 0, 75, 0
2, 351730, Note_on_c, 0, 76, 87
2, 351733, Note_on_c, 0, 64, 91
2, 351741, Note_on_c, 0, 63, 0
2, 351780, Note_on_c, 0, 66, 109
2, 351781, Note_on_c, 0, 78, 105
2, 351784, Note_on_c, 0, 76, 0
2, 351789, Note_on_c, 0, 64, 0
2, 351827, Note_on_c, 0, 68, 105
2, 351831, Note_on_c, 0, 80, 103
2, 351832, Note_on_c, 0, 66, 0
2, 351846, Note_on_c, 0, 78, 0
2, 351874, Note_on_c, 0, 78, 72
2, 351878, Note_on_c, 0, 66, 106
2, 351894, Note_on_c, 0, 68, 0
2, 351904, Note_on_c, 0, 80, 0
2, 351927, Note_on_c, 0, 76, 80
2, 351929, Note_on_c, 0, 66, 0
2, 351932, Note_on_c, 0, 64, 90
2, 351934, Note_on_c, 0, 78, 0
2, 351968, Note_on_c, 0, 76, 0
2, 351980, Note_on_c, 0, 63, 100
2, 351981, Note_on_c, 0, 75, 101
2, 351988, Note_on_c, 0, 64, 0
2, 352025, Note_on_c, 0, 61, 101
2, 352029, Note_on_c, 0, 73, 104
2, 352037, Note_on_c, 0, 63, 0
2, 352051, Note_on_c, 0, 75, 0
2, 352073, Note_on_c, 0, 61, 0
2, 352076, Note_on_c, 0, 59, 102
2, 352078, Note_on_c, 0, 71, 76
2, 352081, Note_on_c, 0, 73, 0
2, 352099, Note_on_c, 0, 71, 0
2, 352125, Note_on_c, 0, 69, 93
2, 352126, Note_on_c, 0, 57, 90
2, 352135, Note_on_c, 0, 59, 0
2, 352174, Note_on_c, 0, 56, 101
2, 352175, Note_on_c, 0, 68, 99
2, 352183, Note_on_c, 0, 57, 0
2, 352192, Note_on_c, 0, 69, 0
2, 352218, Note_on_c, 0, 54, 96
2, 352222, Note_on_c, 0, 66, 104
2, 352236, Note_on_c, 0, 56, 0
2, 352239, Note_on_c, 0, 68, 0
2, 352260, Note_on_c, 0, 54, 0
2, 352265, Note_on_c, 0, 52, 100
2, 352267, Note_on_c, 0, 64, 90
2, 352274, Note_on_c, 0, 66, 0
2, 352313, Note_on_c, 0, 64, 0
2, 352319, Note_on_c, 0, 51, 107
2, 352319, Note_on_c, 0, 63, 108
2, 352325, Note_on_c, 0, 52, 0
2, 352364, Note_on_c, 0, 49, 108
2, 352365, Note_on_c, 0, 61, 112
2, 352379, Note_on_c, 0, 51, 0
2, 352386, Note_on_c, 0, 63, 0
2, 352411, Note_on_c, 0, 49, 0
2, 352411, Note_on_c, 0, 59, 97
2, 352414, Note_on_c, 0, 47, 104
2, 352419, Note_on_c, 0, 61, 0
2, 352443, Note_on_c, 0, 59, 0
2, 352459, Note_on_c, 0, 45, 101
2, 352471, Note_on_c, 0, 47, 0
2, 352471, Note_on_c, 0, 57, 103
2, 352507, Note_on_c, 0, 42, 109
2, 352516, Note_on_c, 0, 54, 110
2, 352522, Note_on_c, 0, 45, 0
2, 352528, Note_on_c, 0, 57, 0
2, 352556, Note_on_c, 0, 42, 0
2, 352561, Note_on_c, 0, 54, 0
2, 352566, Note_on_c, 0, 52, 113
2, 352570, Note_on_c, 0, 40, 125
2, 352576, Note_on_c, 0, 54, 85
2, 352594, Note_on_c, 0, 54, 0
2, 352596, Control_c, 0, 64, 127
2, 352689, Control_c, 0, 64, 63
2, 352691, Control_c, 0, 64, 0
2, 352737, Control_c, 0, 64, 63
2, 352738, Control_c, 0, 64, 127
2, 352800, Note_on_c, 0, 52, 0
2, 352815, Note_on_c, 0, 56, 90
2, 352830, Note_on_c, 0, 44, 83
2, 352845, Note_on_c, 0, 40, 0
2, 352862, Note_on_c, 0, 56, 0
2, 352866, Note_on_c, 0, 47, 89
2, 352869, Note_on_c, 0, 59, 86
2, 352892, Note_on_c, 0, 59, 0
2, 352893, Note_on_c, 0, 44, 0
2, 352912, Note_on_c, 0, 47, 0
2, 352920, Note_on_c, 0, 52, 91
2, 352932, Note_on_c, 0, 64, 94
2, 352969, Note_on_c, 0, 52, 0
2, 352972, Note_on_c, 0, 56, 93
2, 352980, Note_on_c, 0, 68, 103
2, 352982, Note_on_c, 0, 64, 0
2, 353017, Note_on_c, 0, 68, 0
2, 353022, Note_on_c, 0, 71, 87
2, 353026, Note_on_c, 0, 59, 92
2, 353037, Note_on_c, 0, 71, 0
2, 353052, Note_on_c, 0, 56, 0
2, 353071, Note_on_c, 0, 59, 0
2, 353076, Note_on_c, 0, 64, 99
2, 353081, Note_on_c, 0, 76, 102
2, 353115, Note_on_c, 0, 64, 0
2, 353118, Note_on_c, 0, 76, 0
2, 353127, Note_on_c, 0, 80, 105
2, 353129, Note_on_c, 0, 68, 98
2, 353170, Note_on_c, 0, 83, 93
2, 353177, Note_on_c, 0, 80, 0
2, 353177, Note_on_c, 0, 71, 100
2, 353203, Note_on_c, 0, 68, 0
2, 353214, Note_on_c, 0, 83, 0
2, 353224, Note_on_c, 0, 88, 103
2, 353226, Note_on_c, 0, 76, 111
2, 353241, Note_on_c, 0, 71, 0
2, 353271, Note_on_c, 0, 71, 84
2, 353276, Note_on_c, 0, 83, 99
2, 353279, Note_on_c, 0, 76, 0
2, 353289, Note_on_c, 0, 88, 0
2, 353325, Note_on_c, 0, 80, 109
2, 353326, Note_on_c, 0, 68, 105
2, 353335, Note_on_c, 0, 83, 0
2, 353337, Note_on_c, 0, 71, 0
2, 353352, Note_on_c, 0, 80, 0
2, 353353, Note_on_c, 0, 68, 0
2, 353384, Note_on_c, 0, 64, 112
2, 353395, Note_on_c, 0, 76, 88
2, 353418, Note_on_c, 0, 76, 0
2, 353440, Note_on_c, 0, 59, 93
2, 353445, Note_on_c, 0, 64, 0
2, 353448, Note_on_c, 0, 71, 90
2, 353486, Note_on_c, 0, 56, 100
2, 353490, Note_on_c, 0, 68, 100
2, 353493, Note_on_c, 0, 71, 0
2, 353510, Note_on_c, 0, 59, 0
2, 353521, Note_on_c, 0, 68, 0
2, 353540, Note_on_c, 0, 76, 111
2, 353541, Note_on_c, 0, 64, 112
2, 353549, Note_on_c, 0, 56, 0
2, 353594, Note_on_c, 0, 71, 100
2, 353600, Note_on_c, 0, 59, 92
2, 353601, Note_on_c, 0, 76, 0
2, 353607, Note_on_c, 0, 64, 0
2, 353635, Note_on_c, 0, 68, 97
2, 353643, Note_on_c, 0, 71, 0
2, 353647, Note_on_c, 0, 56, 100
2, 353651, Note_on_c, 0, 68, 0
2, 353654, Note_on_c, 0, 59, 0
2, 353668, Note_on_c, 0, 56, 0
2, 353699, Note_on_c, 0, 52, 113
2, 353702, Note_on_c, 0, 64, 113
2, 353747, Note_on_c, 0, 52, 0
2, 353757, Note_on_c, 0, 59, 93
2, 353761, Note_on_c, 0, 47, 89
2, 353764, Note_on_c, 0, 64, 0
2, 353802, Note_on_c, 0, 44, 104
2, 353805, Note_on_c, 0, 56, 109
2, 353815, Note_on_c, 0, 47, 0
2, 353819, Note_on_c, 0, 59, 0
2, 353840, Note_on_c, 0, 56, 0
2, 353843, Note_on_c, 0, 44, 0
2, 353874, Note_on_c, 0, 40, 127
2, 353876, Note_on_c, 0, 52, 120
2, 353880, Control_c, 0, 64, 63
2, 353885, Control_c, 0, 64, 0
2, 353917, Control_c, 0, 64, 63
2, 353923, Control_c, 0, 64, 127
2, 353940, Note_on_c, 0, 52, 0
2, 353977, Note_on_c, 0, 40, 0
2, 354058, Note_on_c, 0, 56, 110
2, 354094, Note_on_c, 0, 56, 0
2, 354105, Note_on_c, 0, 59, 66
2, 354105, Note_on_c, 0, 44, 83
2, 354142, Note_on_c, 0, 47, 82
2, 354145, Note_on_c, 0, 59, 0
2, 354152, Note_on_c, 0, 64, 87
2, 354165, Note_on_c, 0, 44, 0
2, 354184, Note_on_c, 0, 47, 0
2, 354193, Note_on_c, 0, 64, 0
2, 354193, Note_on_c, 0, 52, 85
2, 354208, Note_on_c, 0, 68, 103
2, 354231, Note_on_c, 0, 52, 0
2, 354235, Note_on_c, 0, 68, 0
2, 354251, Note_on_c, 0, 56, 89
2, 354260, Note_on_c, 0, 71, 102
2, 354300, Note_on_c, 0, 71, 0
2, 354303, Note_on_c, 0, 59, 85
2, 354312, Note_on_c, 0, 76, 94
2, 354315, Note_on_c, 0, 56, 0
2, 354343, Note_on_c, 0, 59, 0
2, 354347, Note_on_c, 0, 64, 94
2, 354359, Note_on_c, 0, 76, 0
2, 354359, Note_on_c, 0, 80, 105
2, 354385, Note_on_c, 0, 80, 0
2, 354386, Note_on_c, 0, 64, 0
2, 354403, Note_on_c, 0, 68, 97
2, 354414, Note_on_c, 0, 83, 100
2, 354451, Note_on_c, 0, 83, 0
2, 354453, Note_on_c, 0, 71, 89
2, 354462, Note_on_c, 0, 88, 104
2, 354470, Note_on_c, 0, 68, 0
2, 354501, Note_on_c, 0, 88, 0
2, 354512, Note_on_c, 0, 71, 0
2, 354513, Note_on_c, 0, 92, 114
2, 354516, Note_on_c, 0, 76, 114
2, 354566, Note_on_c, 0, 71, 93
2, 354567, Note_on_c, 0, 88, 99
2, 354578, Note_on_c, 0, 76, 0
2, 354579, Note_on_c, 0, 92, 0
2, 354609, Note_on_c, 0, 88, 0
2, 354612, Note_on_c, 0, 83, 72
2, 354616, Note_on_c, 0, 68, 96
2, 354631, Note_on_c, 0, 71, 0
2, 354634, Note_on_c, 0, 83, 0
2, 354647, Note_on_c, 0, 68, 0
2, 354670, Note_on_c, 0, 64, 106
2, 354676, Note_on_c, 0, 80, 112
2, 354720, Note_on_c, 0, 76, 92
2, 354722, Note_on_c, 0, 59, 96
2, 354727, Note_on_c, 0, 64, 0
2, 354735, Note_on_c, 0, 80, 0
2, 354760, Note_on_c, 0, 56, 83
2, 354772, Note_on_c, 0, 71, 96
2, 354782, Note_on_c, 0, 59, 0
2, 354796, Note_on_c, 0, 76, 0
2, 354810, Note_on_c, 0, 71, 0
2, 354816, Note_on_c, 0, 56, 0
2, 354822, Note_on_c, 0, 64, 116
2, 354826, Note_on_c, 0, 80, 113
2, 354872, Note_on_c, 0, 76, 99
2, 354874, Note_on_c, 0, 59, 101
2, 354888, Note_on_c, 0, 64, 0
2, 354894, Note_on_c, 0, 80, 0
2, 354919, Note_on_c, 0, 71, 89
2, 354920, Note_on_c, 0, 76, 0
2, 354924, Note_on_c, 0, 56, 100
2, 354936, Note_on_c, 0, 59, 0
2, 354943, Note_on_c, 0, 71, 0
2, 354954, Note_on_c, 0, 56, 0
2, 354978, Note_on_c, 0, 52, 108
2, 354983, Note_on_c, 0, 68, 113
2, 355025, Note_on_c, 0, 64, 96
2, 355031, Note_on_c, 0, 47, 96
2, 355035, Note_on_c, 0, 68, 0
2, 355037, Note_on_c, 0, 52, 0
2, 355082, Note_on_c, 0, 59, 100
2, 355084, Note_on_c, 0, 64, 0
2, 355086, Note_on_c, 0, 44, 112
2, 355101, Note_on_c, 0, 47, 0
2, 355114, Note_on_c, 0, 59, 0
2, 355143, Note_on_c, 0, 44, 0
2, 355183, Note_on_c, 0, 52, 126
2, 355184, Control_c, 0, 64, 63
2, 355185, Note_on_c, 0, 40, 127
2, 355190, Control_c, 0, 64, 0
2, 355237, Control_c, 0, 64, 63
2, 355239, Control_c, 0, 64, 127
2, 355338, Note_on_c, 0, 52, 0
2, 355354, Note_on_c, 0, 40, 0
2, 355493, Note_on_c, 0, 54, 125
2, 355495, Note_on_c, 0, 42, 120
2, 355568, Note_on_c, 0, 54, 0
2, 355574, Note_on_c, 0, 42, 0
2, 355574, Note_on_c, 0, 56, 83
2, 355585, Note_on_c, 0, 44, 90
2, 355617, Note_on_c, 0, 57, 89
2, 355619, Note_on_c, 0, 56, 0
2, 355619, Note_on_c, 0, 45, 76
2, 355632, Note_on_c, 0, 44, 0
2, 355656, Note_on_c, 0, 45, 0
2, 355656, Note_on_c, 0, 47, 86
2, 355660, Note_on_c, 0, 57, 0
2, 355661, Note_on_c, 0, 59, 84
2, 355695, Note_on_c, 0, 49, 95
2, 355698, Note_on_c, 0, 61, 88
2, 355700, Note_on_c, 0, 47, 0
2, 355701, Note_on_c, 0, 59, 0
2, 355725, Note_on_c, 0, 63, 88
2, 355729, Note_on_c, 0, 61, 0
2, 355729, Note_on_c, 0, 51, 104
2, 355739, Note_on_c, 0, 49, 0
2, 355753, Note_on_c, 0, 63, 0
2, 355763, Note_on_c, 0, 51, 0
2, 355764, Note_on_c, 0, 64, 81
2, 355765, Note_on_c, 0, 52, 89
2, 355796, Note_on_c, 0, 64, 0
2, 355799, Note_on_c, 0, 54, 109
2, 355804, Note_on_c, 0, 66, 94
2, 355816, Note_on_c, 0, 52, 0
2, 355831, Note_on_c, 0, 68, 94
2, 355831, Note_on_c, 0, 56, 95
2, 355839, Note_on_c, 0, 66, 0
2, 355845, Note_on_c, 0, 54, 0
2, 355858, Note_on_c, 0, 68, 0
2, 355862, Note_on_c, 0, 57, 87
2, 355870, Note_on_c, 0, 69, 79
2, 355877, Note_on_c, 0, 56, 0
2, 355894, Note_on_c, 0, 59, 92
2, 355896, Note_on_c, 0, 57, 0
2, 355901, Note_on_c, 0, 71, 82
2, 355907, Note_on_c, 0, 69, 0
2, 355930, Note_on_c, 0, 61, 105
2, 355934, Note_on_c, 0, 73, 85
2, 355937, Note_on_c, 0, 71, 0
2, 355937, Note_on_c, 0, 59, 0
2, 355953, Note_on_c, 0, 75, 83
2, 355962, Note_on_c, 0, 73, 0
2, 355964, Note_on_c, 0, 63, 101
2, 355968, Note_on_c, 0, 61, 0
2, 355980, Note_on_c, 0, 75, 0
2, 355991, Note_on_c, 0, 76, 84
2, 355994, Note_on_c, 0, 63, 0
2, 355994, Note_on_c, 0, 64, 90
2, 356024, Note_on_c, 0, 76, 0
2, 356028, Note_on_c, 0, 78, 97
2, 356029, Note_on_c, 0, 66, 108
2, 356044, Note_on_c, 0, 64, 0
2, 356050, Note_on_c, 0, 80, 97
2, 356059, Note_on_c, 0, 78, 0
2, 356059, Note_on_c, 0, 68, 97
2, 356073, Note_on_c, 0, 66, 0
2, 356080, Note_on_c, 0, 80, 0
2, 356085, Note_on_c, 0, 69, 99
2, 356090, Note_on_c, 0, 81, 91
2, 356102, Note_on_c, 0, 68, 0
2, 356120, Note_on_c, 0, 71, 103
2, 356122, Note_on_c, 0, 81, 0
2, 356123, Note_on_c, 0, 69, 0
2, 356123, Note_on_c, 0, 83, 83
2, 356153, Note_on_c, 0, 73, 108
2, 356154, Note_on_c, 0, 85, 97
2, 356160, Note_on_c, 0, 83, 0
2, 356161, Note_on_c, 0, 71, 0
2, 356175, Note_on_c, 0, 87, 85
2, 356184, Note_on_c, 0, 85, 0
2, 356192, Note_on_c, 0, 75, 105
2, 356197, Note_on_c, 0, 73, 0
2, 356202, Note_on_c, 0, 87, 0
2, 356210, Note_on_c, 0, 88, 88
2, 356219, Note_on_c, 0, 76, 94
2, 356220, Note_on_c, 0, 75, 0
2, 356242, Note_on_c, 0, 88, 0
2, 356250, Note_on_c, 0, 90, 96
2, 356256, Note_on_c, 0, 78, 105
2, 356269, Note_on_c, 0, 92, 97
2, 356273, Note_on_c, 0, 76, 0
2, 356277, Note_on_c, 0, 90, 0
2, 356284, Note_on_c, 0, 80, 96
2, 356296, Note_on_c, 0, 92, 0
2, 356297, Note_on_c, 0, 78, 0
2, 356311, Note_on_c, 0, 93, 83
2, 356312, Note_on_c, 0, 81, 92
2, 356330, Note_on_c, 0, 80, 0
2, 356344, Note_on_c, 0, 81, 0
2, 356344, Note_on_c, 0, 83, 93
2, 356346, Note_on_c, 0, 93, 0
2, 356347, Note_on_c, 0, 95, 80
2, 356370, Note_on_c, 0, 97, 87
2, 356377, Note_on_c, 0, 85, 104
2, 356383, Note_on_c, 0, 95, 0
2, 356388, Note_on_c, 0, 83, 0
2, 356397, Note_on_c, 0, 99, 92
2, 356412, Note_on_c, 0, 97, 0
2, 356415, Note_on_c, 0, 87, 100
2, 356425, Note_on_c, 0, 99, 0
2, 356425, Note_on_c, 0, 85, 0
2, 356439, Note_on_c, 0, 100, 121
2, 356439, Note_on_c, 0, 88, 124
2, 356454, Note_on_c, 0, 87, 0
2, 356593, Note_on_c, 0, 88, 0
2, 356626, Note_on_c, 0, 100, 0
2, 356762, Control_c, 0, 64, 63
2, 356770, Control_c, 0, 64, 0
2, 361440, End_track
3, 0, Start_track
3, 0, Title_t, "Timpani"
3, 0, MIDI_port, 0
3, 0, Control_c, 1, 121, 0
3, 80, Control_c, 1, 101, 0
3, 100, Control_c, 1, 100, 0
3, 120, Control_c, 1, 6, 12
3, 140, Control_c, 1, 10, 64
3, 160, Control_c, 1, 7, 100
3, 180, Control_c, 1, 0, 0
3, 200, Program_c, 1, 47
3, 220, Control_c, 1, 91, 120
3, 240, Control_c, 1, 93, 0
3, 260, Control_c, 1, 1, 12
3, 280, Control_c, 1, 11, 100
3, 300, Pitch_bend_c, 1, 8192
3, 320, Control_c, 1, 99, 1
3, 340, Control_c, 1, 98, 32
3, 360, Control_c, 1, 6, 64
3, 380, Control_c, 1, 98, 33
3, 400, Control_c, 1, 6, 54
3, 420, Control_c, 1, 98, 99
3, 440, Control_c, 1, 6, 64
3, 460, Control_c, 1, 98, 100
3, 480, Control_c, 1, 6, 64
3, 500, Control_c, 1, 98, 102
3, 705, Control_c, 1, 6, 66
3, 45610, Note_on_c, 1, 47, 107
3, 45643, Note_on_c, 1, 47, 0
3, 45784, Note_on_c, 1, 47, 111
3, 45827, Note_on_c, 1, 47, 0
3, 46941, Note_on_c, 1, 40, 106
3, 46978, Note_on_c, 1, 40, 0
3, 47110, Note_on_c, 1, 40, 110
3, 47154, Note_on_c, 1, 40, 0
3, 47629, Note_on_c, 1, 40, 103
3, 47670, Note_on_c, 1, 40, 0
3, 47798, Note_on_c, 1, 40, 106
3, 47837, Note_on_c, 1, 40, 0
3, 48271, Note_on_c, 1, 40, 105
3, 48315, Note_on_c, 1, 40, 0
3, 48453, Note_on_c, 1, 40, 107
3, 48495, Note_on_c, 1, 40, 0
3, 52773, Note_on_c, 1, 47, 110
3, 52802, Note_on_c, 1, 47, 0
3, 52947, Note_on_c, 1, 47, 110
3, 52980, Note_on_c, 1, 47, 0
3, 53123, Note_on_c, 1, 47, 112
3, 53430, Note_on_c, 1, 47, 0
3, 53464, Note_on_c, 1, 47, 70
3, 53545, Note_on_c, 1, 49, 70
3, 53551, Note_on_c, 1, 47, 0
3, 53576, Note_on_c, 1, 49, 0
3, 53581, Note_on_c, 1, 47, 67
3, 53618, Note_on_c, 1, 49, 84
3, 53626, Note_on_c, 1, 47, 0
3, 53652, Note_on_c, 1, 47, 65
3, 53653, Note_on_c, 1, 49, 0
3, 53677, Note_on_c, 1, 49, 99
3, 53687, Note_on_c, 1, 47, 0
3, 53706, Note_on_c, 1, 47, 89
3, 53772, Note_on_c, 1, 49, 0
3, 53806, Note_on_c, 1, 47, 0
3, 53836, Note_on_c, 1, 40, 42
3, 53868, Note_on_c, 1, 40, 0
3, 53944, Note_on_c, 1, 47, 102
3, 53977, Note_on_c, 1, 47, 0
3, 54104, Note_on_c, 1, 47, 84
3, 54136, Note_on_c, 1, 49, 80
3, 54146, Note_on_c, 1, 47, 0
3, 54173, Note_on_c, 1, 49, 0
3, 54179, Note_on_c, 1, 47, 65
3, 54217, Note_on_c, 1, 49, 76
3, 54221, Note_on_c, 1, 47, 0
3, 54243, Note_on_c, 1, 49, 0
3, 54243, Note_on_c, 1, 47, 61
3, 54273, Note_on_c, 1, 49, 82
3, 54289, Note_on_c, 1, 47, 0
3, 54306, Note_on_c, 1, 47, 65
3, 54309, Note_on_c, 1, 49, 0
3, 54332, Note_on_c, 1, 49, 96
3, 54346, Note_on_c, 1, 47, 0
3, 54365, Note_on_c, 1, 49, 0
3, 54372, Note_on_c, 1, 47, 85
3, 54386, Note_on_c, 1, 49, 100
3, 54429, Note_on_c, 1, 49, 0
3, 54447, Note_on_c, 1, 47, 0
3, 54454, Note_on_c, 1, 40, 122
3, 54486, Note_on_c, 1, 40, 0
3, 54614, Note_on_c, 1, 47, 107
3, 54648, Note_on_c, 1, 47, 0
3, 54776, Note_on_c, 1, 47, 108
3, 54813, Note_on_c, 1, 49, 98
3, 54817, Note_on_c, 1, 47, 0
3, 54844, Note_on_c, 1, 47, 83
3, 54847, Note_on_c, 1, 49, 0
3, 54875, Note_on_c, 1, 49, 100
3, 54880, Note_on_c, 1, 47, 0
3, 54905, Note_on_c, 1, 47, 92
3, 54911, Note_on_c, 1, 49, 0
3, 54935, Note_on_c, 1, 49, 94
3, 54947, Note_on_c, 1, 47, 0
3, 54969, Note_on_c, 1, 49, 0
3, 54972, Note_on_c, 1, 47, 87
3, 54992, Note_on_c, 1, 49, 96
3, 55010, Note_on_c, 1, 47, 0
3, 55030, Note_on_c, 1, 47, 108
3, 55039, Note_on_c, 1, 49, 0
3, 55073, Note_on_c, 1, 47, 0
3, 55092, Note_on_c, 1, 40, 127
3, 55123, Note_on_c, 1, 40, 0
3, 55233, Note_on_c, 1, 47, 125
3, 55265, Note_on_c, 1, 47, 0
3, 55407, Note_on_c, 1, 47, 89
3, 55457, Note_on_c, 1, 47, 0
3, 55471, Note_on_c, 1, 49, 57
3, 55496, Note_on_c, 1, 49, 0
3, 55503, Note_on_c, 1, 47, 52
3, 55549, Note_on_c, 1, 49, 70
3, 55550, Note_on_c, 1, 47, 0
3, 55573, Note_on_c, 1, 49, 0
3, 55582, Note_on_c, 1, 47, 58
3, 55627, Note_on_c, 1, 49, 84
3, 55628, Note_on_c, 1, 47, 0
3, 55650, Note_on_c, 1, 49, 0
3, 55663, Note_on_c, 1, 47, 55
3, 55700, Note_on_c, 1, 49, 81
3, 55705, Note_on_c, 1, 47, 0
3, 55726, Note_on_c, 1, 49, 0
3, 55732, Note_on_c, 1, 47, 64
3, 55769, Note_on_c, 1, 49, 83
3, 55777, Note_on_c, 1, 47, 0
3, 55804, Note_on_c, 1, 49, 0
3, 55809, Note_on_c, 1, 47, 65
3, 55838, Note_on_c, 1, 49, 78
3, 55850, Note_on_c, 1, 47, 0
3, 55876, Note_on_c, 1, 47, 60
3, 55878, Note_on_c, 1, 49, 0
3, 55911, Note_on_c, 1, 49, 76
3, 55921, Note_on_c, 1, 47, 0
3, 55948, Note_on_c, 1, 49, 0
3, 55952, Note_on_c, 1, 47, 52
3, 55982, Note_on_c, 1, 49, 74
3, 55992, Note_on_c, 1, 47, 0
3, 56017, Note_on_c, 1, 47, 49
3, 56018, Note_on_c, 1, 49, 0
3, 56057, Note_on_c, 1, 49, 80
3, 56062, Note_on_c, 1, 47, 0
3, 56087, Note_on_c, 1, 49, 0
3, 56087, Note_on_c, 1, 47, 61
3, 56121, Note_on_c, 1, 49, 89
3, 56133, Note_on_c, 1, 47, 0
3, 56159, Note_on_c, 1, 49, 0
3, 56161, Note_on_c, 1, 47, 79
3, 56191, Note_on_c, 1, 49, 88
3, 56206, Note_on_c, 1, 47, 0
3, 56227, Note_on_c, 1, 47, 83
3, 56228, Note_on_c, 1, 49, 0
3, 56260, Note_on_c, 1, 49, 100
3, 56272, Note_on_c, 1, 47, 0
3, 56299, Note_on_c, 1, 47, 93
3, 56301, Note_on_c, 1, 49, 0
3, 56332, Note_on_c, 1, 49, 100
3, 56343, Note_on_c, 1, 47, 0
3, 56365, Note_on_c, 1, 47, 86
3, 56375, Note_on_c, 1, 49, 0
3, 56398, Note_on_c, 1, 49, 108
3, 56405, Note_on_c, 1, 47, 0
3, 56436, Note_on_c, 1, 47, 97
3, 56446, Note_on_c, 1, 49, 0
3, 56470, Note_on_c, 1, 49, 106
3, 56517, Note_on_c, 1, 49, 0
3, 56541, Note_on_c, 1, 49, 106
3, 56566, Note_on_c, 1, 47, 0
3, 56602, Note_on_c, 1, 47, 111
3, 56624, Note_on_c, 1, 49, 0
3, 56650, Note_on_c, 1, 47, 0
3, 56784, Note_on_c, 1, 47, 127
3, 56816, Note_on_c, 1, 47, 0
3, 57099, Note_on_c, 1, 47, 127
3, 57130, Note_on_c, 1, 47, 0
3, 57428, Note_on_c, 1, 47, 125
3, 57531, Note_on_c, 1, 49, 77
3, 57538, Note_on_c, 1, 47, 0
3, 57577, Note_on_c, 1, 47, 65
3, 57584, Note_on_c, 1, 49, 0
3, 57620, Note_on_c, 1, 49, 76
3, 57633, Note_on_c, 1, 47, 0
3, 57662, Note_on_c, 1, 47, 78
3, 57671, Note_on_c, 1, 49, 0
3, 57701, Note_on_c, 1, 49, 73
3, 57716, Note_on_c, 1, 47, 0
3, 57745, Note_on_c, 1, 49, 0
3, 57747, Note_on_c, 1, 47, 54
3, 57778, Note_on_c, 1, 49, 67
3, 57795, Note_on_c, 1, 47, 0
3, 57817, Note_on_c, 1, 47, 44
3, 57824, Note_on_c, 1, 49, 0
3, 57855, Note_on_c, 1, 49, 76
3, 57863, Note_on_c, 1, 47, 0
3, 57891, Note_on_c, 1, 47, 48
3, 57895, Note_on_c, 1, 49, 0
3, 57929, Note_on_c, 1, 49, 67
3, 57939, Note_on_c, 1, 47, 0
3, 57962, Note_on_c, 1, 47, 53
3, 57981, Note_on_c, 1, 49, 0
3, 58017, Note_on_c, 1, 49, 48
3, 58060, Note_on_c, 1, 49, 0
3, 58116, Note_on_c, 1, 47, 0
3, 65498, Note_on_c, 1, 40, 102
3, 65529, Note_on_c, 1, 40, 0
3, 65661, Note_on_c, 1, 40, 103
3, 65683, Note_on_c, 1, 40, 0
3, 65829, Note_on_c, 1, 40, 116
3, 65855, Note_on_c, 1, 40, 0
3, 65994, Note_on_c, 1, 40, 120
3, 66022, Note_on_c, 1, 40, 0
3, 66277, Note_on_c, 1, 40, 85
3, 66308, Note_on_c, 1, 40, 0
3, 66462, Note_on_c, 1, 40, 83
3, 66480, Note_on_c, 1, 40, 0
3, 66616, Note_on_c, 1, 40, 122
3, 66647, Note_on_c, 1, 40, 0
3, 66916, Note_on_c, 1, 40, 84
3, 66948, Note_on_c, 1, 40, 0
3, 67091, Note_on_c, 1, 40, 97
3, 67117, Note_on_c, 1, 40, 0
3, 67231, Note_on_c, 1, 40, 121
3, 67261, Note_on_c, 1, 40, 0
3, 67522, Note_on_c, 1, 40, 85
3, 67557, Note_on_c, 1, 40, 0
3, 67677, Note_on_c, 1, 40, 113
3, 67709, Note_on_c, 1, 40, 0
3, 70605, Note_on_c, 1, 47, 107
3, 70646, Note_on_c, 1, 47, 0
3, 70758, Note_on_c, 1, 40, 121
3, 70804, Note_on_c, 1, 40, 0
3, 71533, Note_on_c, 1, 47, 97
3, 71596, Note_on_c, 1, 47, 0
3, 71703, Note_on_c, 1, 40, 109
3, 71744, Note_on_c, 1, 40, 0
3, 72325, Note_on_c, 1, 47, 93
3, 72366, Note_on_c, 1, 47, 0
3, 72482, Note_on_c, 1, 47, 107
3, 72521, Note_on_c, 1, 47, 0
3, 72638, Note_on_c, 1, 40, 113
3, 72668, Note_on_c, 1, 40, 0
3, 72789, Note_on_c, 1, 47, 102
3, 72830, Note_on_c, 1, 47, 0
3, 73090, Note_on_c, 1, 47, 92
3, 73128, Note_on_c, 1, 47, 0
3, 73255, Note_on_c, 1, 40, 120
3, 73289, Note_on_c, 1, 40, 0
3, 74052, Note_on_c, 1, 47, 91
3, 74090, Note_on_c, 1, 47, 0
3, 74215, Note_on_c, 1, 40, 114
3, 74251, Note_on_c, 1, 40, 0
3, 75267, Note_on_c, 1, 47, 122
3, 75482, Note_on_c, 1, 47, 0
3, 75572, Note_on_c, 1, 47, 92
3, 75610, Note_on_c, 1, 47, 0
3, 75727, Note_on_c, 1, 40, 106
3, 75757, Note_on_c, 1, 40, 0
3, 75886, Note_on_c, 1, 47, 106
3, 76124, Note_on_c, 1, 47, 0
3, 76177, Note_on_c, 1, 47, 106
3, 76219, Note_on_c, 1, 47, 0
3, 76332, Note_on_c, 1, 40, 92
3, 76353, Note_on_c, 1, 40, 0
3, 76491, Note_on_c, 1, 47, 117
3, 76720, Note_on_c, 1, 47, 0
3, 76786, Note_on_c, 1, 47, 101
3, 76829, Note_on_c, 1, 47, 0
3, 76942, Note_on_c, 1, 40, 92
3, 76968, Note_on_c, 1, 40, 0
3, 77106, Note_on_c, 1, 40, 113
3, 77137, Note_on_c, 1, 40, 0
3, 77406, Note_on_c, 1, 40, 99
3, 77436, Note_on_c, 1, 40, 0
3, 77562, Note_on_c, 1, 40, 118
3, 77595, Note_on_c, 1, 40, 0
3, 77725, Note_on_c, 1, 40, 121
3, 77770, Note_on_c, 1, 40, 0
3, 202570, Note_on_c, 1, 47, 107
3, 202603, Note_on_c, 1, 47, 0
3, 202744, Note_on_c, 1, 47, 111
3, 202787, Note_on_c, 1, 47, 0
3, 203901, Note_on_c, 1, 40, 106
3, 203938, Note_on_c, 1, 40, 0
3, 204070, Note_on_c, 1, 40, 110
3, 204114, Note_on_c, 1, 40, 0
3, 204589, Note_on_c, 1, 40, 103
3, 204630, Note_on_c, 1, 40, 0
3, 204758, Note_on_c, 1, 40, 106
3, 204797, Note_on_c, 1, 40, 0
3, 205231, Note_on_c, 1, 40, 105
3, 205275, Note_on_c, 1, 40, 0
3, 205413, Note_on_c, 1, 40, 107
3, 205455, Note_on_c, 1, 40, 0
3, 209733, Note_on_c, 1, 47, 110
3, 209762, Note_on_c, 1, 47, 0
3, 209907, Note_on_c, 1, 47, 110
3, 209940, Note_on_c, 1, 47, 0
3, 210083, Note_on_c, 1, 47, 112
3, 210390, Note_on_c, 1, 47, 0
3, 210424, Note_on_c, 1, 47, 70
3, 210505, Note_on_c, 1, 49, 70
3, 210511, Note_on_c, 1, 47, 0
3, 210536, Note_on_c, 1, 49, 0
3, 210541, Note_on_c, 1, 47, 67
3, 210578, Note_on_c, 1, 49, 84
3, 210586, Note_on_c, 1, 47, 0
3, 210612, Note_on_c, 1, 47, 65
3, 210613, Note_on_c, 1, 49, 0
3, 210637, Note_on_c, 1, 49, 99
3, 210647, Note_on_c, 1, 47, 0
3, 210666, Note_on_c, 1, 47, 89
3, 210732, Note_on_c, 1, 49, 0
3, 210766, Note_on_c, 1, 47, 0
3, 210796, Note_on_c, 1, 40, 42
3, 210828, Note_on_c, 1, 40, 0
3, 210904, Note_on_c, 1, 47, 102
3, 210937, Note_on_c, 1, 47, 0
3, 211064, Note_on_c, 1, 47, 84
3, 211096, Note_on_c, 1, 49, 80
3, 211106, Note_on_c, 1, 47, 0
3, 211133, Note_on_c, 1, 49, 0
3, 211139, Note_on_c, 1, 47, 65
3, 211177, Note_on_c, 1, 49, 76
3, 211181, Note_on_c, 1, 47, 0
3, 211203, Note_on_c, 1, 49, 0
3, 211203, Note_on_c, 1, 47, 61
3, 211233, Note_on_c, 1, 49, 82
3, 211249, Note_on_c, 1, 47, 0
3, 211266, Note_on_c, 1, 47, 65
3, 211269, Note_on_c, 1, 49, 0
3, 211292, Note_on_c, 1, 49, 96
3, 211306, Note_on_c, 1, 47, 0
3, 211325, Note_on_c, 1, 49, 0
3, 211332, Note_on_c, 1, 47, 85
3, 211346, Note_on_c, 1, 49, 100
3, 211389, Note_on_c, 1, 49, 0
3, 211407, Note_on_c, 1, 47, 0
3, 211414, Note_on_c, 1, 40, 122
3, 211446, Note_on_c, 1, 40, 0
3, 211574, Note_on_c, 1, 47, 107
3, 211608, Note_on_c, 1, 47, 0
3, 211736, Note_on_c, 1, 47, 108
3, 211773, Note_on_c, 1, 49, 98
3, 211777, Note_on_c, 1, 47, 0
3, 211804, Note_on_c, 1, 47, 83
3, 211807, Note_on_c, 1, 49, 0
3, 211835, Note_on_c, 1, 49, 100
3, 211840, Note_on_c, 1, 47, 0
3, 211865, Note_on_c, 1, 47, 92
3, 211871, Note_on_c, 1, 49, 0
3, 211895, Note_on_c, 1, 49, 94
3, 211907, Note_on_c, 1, 47, 0
3, 211929, Note_on_c, 1, 49, 0
3, 211932, Note_on_c, 1, 47, 87
3, 211952, Note_on_c, 1, 49, 96
3, 211970, Note_on_c, 1, 47, 0
3, 211990, Note_on_c, 1, 47, 108
3, 211999, Note_on_c, 1, 49, 0
3, 212033, Note_on_c, 1, 47, 0
3, 212052, Note_on_c, 1, 40, 127
3, 212083, Note_on_c, 1, 40, 0
3, 212193, Note_on_c, 1, 47, 125
3, 212225, Note_on_c, 1, 47, 0
3, 212367, Note_on_c, 1, 47, 89
3, 212417, Note_on_c, 1, 47, 0
3, 212431, Note_on_c, 1, 49, 57
3, 212456, Note_on_c, 1, 49, 0
3, 212463, Note_on_c, 1, 47, 52
3, 212509, Note_on_c, 1, 49, 70
3, 212510, Note_on_c, 1, 47, 0
3, 212533, Note_on_c, 1, 49, 0
3, 212542, Note_on_c, 1, 47, 58
3, 212587, Note_on_c, 1, 49, 84
3, 212588, Note_on_c, 1, 47, 0
3, 212610, Note_on_c, 1, 49, 0
3, 212623, Note_on_c, 1, 47, 55
3, 212660, Note_on_c, 1, 49, 81
3, 212665, Note_on_c, 1, 47, 0
3, 212686, Note_on_c, 1, 49, 0
3, 212692, Note_on_c, 1, 47, 64
3, 212729, Note_on_c, 1, 49, 83
3, 212737, Note_on_c, 1, 47, 0
3, 212764, Note_on_c, 1, 49, 0
3, 212769, Note_on_c, 1, 47, 65
3, 212798, Note_on_c, 1, 49, 78
3, 212810, Note_on_c, 1, 47, 0
3, 212836, Note_on_c, 1, 47, 60
3, 212838, Note_on_c, 1, 49, 0
3, 212871, Note_on_c, 1, 49, 76
3, 212881, Note_on_c, 1, 47, 0
3, 212908, Note_on_c, 1, 49, 0
3, 212912, Note_on_c, 1, 47, 52
3, 212942, Note_on_c, 1, 49, 74
3, 212952, Note_on_c, 1, 47, 0
3, 212977, Note_on_c, 1, 47, 49
3, 212978, Note_on_c, 1, 49, 0
3, 213017, Note_on_c, 1, 49, 80
3, 213022, Note_on_c, 1, 47, 0
3, 213047, Note_on_c, 1, 49, 0
3, 213047, Note_on_c, 1, 47, 61
3, 213081, Note_on_c, 1, 49, 89
3, 213093, Note_on_c, 1, 47, 0
3, 213119, Note_on_c, 1, 49, 0
3, 213121, Note_on_c, 1, 47, 79
3, 213151, Note_on_c, 1, 49, 88
3, 213166, Note_on_c, 1, 47, 0
3, 213187, Note_on_c, 1, 47, 83
3, 213188, Note_on_c, 1, 49, 0
3, 213220, Note_on_c, 1, 49, 100
3, 213232, Note_on_c, 1, 47, 0
3, 213259, Note_on_c, 1, 47, 93
3, 213261, Note_on_c, 1, 49, 0
3, 213292, Note_on_c, 1, 49, 100
3, 213303, Note_on_c, 1, 47, 0
3, 213325, Note_on_c, 1, 47, 86
3, 213335, Note_on_c, 1, 49, 0
3, 213358, Note_on_c, 1, 49, 108
3, 213365, Note_on_c, 1, 47, 0
3, 213396, Note_on_c, 1, 47, 97
3, 213406, Note_on_c, 1, 49, 0
3, 213430, Note_on_c, 1, 49, 106
3, 213477, Note_on_c, 1, 49, 0
3, 213501, Note_on_c, 1, 49, 106
3, 213526, Note_on_c, 1, 47, 0
3, 213562, Note_on_c, 1, 47, 111
3, 213584, Note_on_c, 1, 49, 0
3, 213610, Note_on_c, 1, 47, 0
3, 213744, Note_on_c, 1, 47, 127
3, 213776, Note_on_c, 1, 47, 0
3, 214059, Note_on_c, 1, 47, 127
3, 214090, Note_on_c, 1, 47, 0
3, 214388, Note_on_c, 1, 47, 125
3, 214491, Note_on_c, 1, 49, 77
3, 214498, Note_on_c, 1, 47, 0
3, 214537, Note_on_c, 1, 47, 65
3, 214544, Note_on_c, 1, 49, 0
3, 214580, Note_on_c, 1, 49, 76
3, 214593, Note_on_c, 1, 47, 0
3, 214622, Note_on_c, 1, 47, 78
3, 214631, Note_on_c, 1, 49, 0
3, 214661, Note_on_c, 1, 49, 73
3, 214676, Note_on_c, 1, 47, 0
3, 214705, Note_on_c, 1, 49, 0
3, 214707, Note_on_c, 1, 47, 54
3, 214738, Note_on_c, 1, 49, 67
3, 214755, Note_on_c, 1, 47, 0
3, 214777, Note_on_c, 1, 47, 44
3, 214784, Note_on_c, 1, 49, 0
3, 214815, Note_on_c, 1, 49, 76
3, 214823, Note_on_c, 1, 47, 0
3, 214851, Note_on_c, 1, 47, 48
3, 214855, Note_on_c, 1, 49, 0
3, 214889, Note_on_c, 1, 49, 67
3, 214899, Note_on_c, 1, 47, 0
3, 214922, Note_on_c, 1, 47, 53
3, 214941, Note_on_c, 1, 49, 0
3, 214977, Note_on_c, 1, 49, 48
3, 215020, Note_on_c, 1, 49, 0
3, 215076, Note_on_c, 1, 47, 0
3, 222458, Note_on_c, 1, 40, 102
3, 222489, Note_on_c, 1, 40, 0
3, 222621, Note_on_c, 1, 40, 103
3, 222643, Note_on_c, 1, 40, 0
3, 222789, Note_on_c, 1, 40, 116
3, 222815, Note_on_c, 1, 40, 0
3, 222954, Note_on_c, 1, 40, 120
3, 222982, Note_on_c, 1, 40, 0
3, 223237, Note_on_c, 1, 40, 85
3, 223268, Note_on_c, 1, 40, 0
3, 223422, Note_on_c, 1, 40, 83
3, 223440, Note_on_c, 1, 40, 0
3, 223576, Note_on_c, 1, 40, 122
3, 223607, Note_on_c, 1, 40, 0
3, 223876, Note_on_c, 1, 40, 84
3, 223908, Note_on_c, 1, 40, 0
3, 224051, Note_on_c, 1, 40, 97
3, 224077, Note_on_c, 1, 40, 0
3, 224191, Note_on_c, 1, 40, 121
3, 224221, Note_on_c, 1, 40, 0
3, 224482, Note_on_c, 1, 40, 85
3, 224517, Note_on_c, 1, 40, 0
3, 224637, Note_on_c, 1, 40, 113
3, 224669, Note_on_c, 1, 40, 0
3, 316153, Note_on_c, 1, 40, 125
3, 316192, Note_on_c, 1, 40, 0
3, 316334, Note_on_c, 1, 47, 118
3, 316376, Note_on_c, 1, 47, 0
3, 316724, Note_on_c, 1, 47, 117
3, 316778, Note_on_c, 1, 47, 0
3, 316782, Note_on_c, 1, 49, 60
3, 316802, Note_on_c, 1, 49, 0
3, 316812, Note_on_c, 1, 47, 57
3, 316856, Note_on_c, 1, 49, 67
3, 316888, Note_on_c, 1, 49, 0
3, 316911, Note_on_c, 1, 49, 72
3, 316919, Note_on_c, 1, 47, 0
3, 316929, Note_on_c, 1, 49, 0
3, 316933, Note_on_c, 1, 47, 79
3, 316962, Note_on_c, 1, 49, 88
3, 316977, Note_on_c, 1, 47, 0
3, 316998, Note_on_c, 1, 47, 87
3, 317000, Note_on_c, 1, 49, 0
3, 317023, Note_on_c, 1, 49, 98
3, 317063, Note_on_c, 1, 49, 0
3, 317084, Note_on_c, 1, 49, 107
3, 317094, Note_on_c, 1, 47, 0
3, 317114, Note_on_c, 1, 47, 102
3, 317116, Note_on_c, 1, 49, 0
3, 317132, Note_on_c, 1, 49, 101
3, 317157, Note_on_c, 1, 47, 0
3, 317171, Note_on_c, 1, 49, 0
3, 317176, Note_on_c, 1, 47, 98
3, 317211, Note_on_c, 1, 47, 0
3, 317224, Note_on_c, 1, 40, 127
3, 317302, Note_on_c, 1, 40, 0
3, 322423, Note_on_c, 1, 40, 127
3, 322536, Note_on_c, 1, 40, 0
3, 343971, Control_c, 1, 64, 63
3, 343998, Control_c, 1, 64, 127
3, 344177, Note_on_c, 1, 40, 29
3, 344237, Note_on_c, 1, 40, 0
3, 344251, Note_on_c, 1, 42, 27
3, 344288, Note_on_c, 1, 42, 0
3, 344300, Note_on_c, 1, 40, 29
3, 344350, Note_on_c, 1, 40, 0
3, 344387, Note_on_c, 1, 40, 28
3, 344400, Note_on_c, 1, 40, 0
3, 344400, Note_on_c, 1, 40, 28
3, 344435, Note_on_c, 1, 40, 0
3, 344438, Note_on_c, 1, 42, 26
3, 344466, Note_on_c, 1, 42, 0
3, 344531, Note_on_c, 1, 42, 26
3, 344547, Note_on_c, 1, 40, 28
3, 344553, Note_on_c, 1, 42, 0
3, 344597, Note_on_c, 1, 40, 0
3, 344604, Note_on_c, 1, 42, 25
3, 344630, Note_on_c, 1, 42, 0
3, 344641, Note_on_c, 1, 40, 24
3, 344678, Note_on_c, 1, 40, 0
3, 344679, Note_on_c, 1, 42, 22
3, 344708, Note_on_c, 1, 42, 0
3, 344724, Note_on_c, 1, 40, 21
3, 344764, Note_on_c, 1, 40, 0
3, 344768, Note_on_c, 1, 42, 21
3, 344793, Note_on_c, 1, 42, 0
3, 344795, Note_on_c, 1, 40, 28
3, 344848, Note_on_c, 1, 40, 0
3, 344849, Note_on_c, 1, 42, 26
3, 344876, Note_on_c, 1, 42, 0
3, 344890, Note_on_c, 1, 40, 22
3, 344929, Note_on_c, 1, 40, 0
3, 344935, Note_on_c, 1, 42, 23
3, 344961, Note_on_c, 1, 42, 0
3, 344974, Note_on_c, 1, 40, 25
3, 345015, Note_on_c, 1, 40, 0
3, 345022, Note_on_c, 1, 42, 22
3, 345048, Note_on_c, 1, 42, 0
3, 345063, Note_on_c, 1, 40, 26
3, 345102, Note_on_c, 1, 40, 0
3, 345107, Note_on_c, 1, 42, 22
3, 345134, Note_on_c, 1, 42, 0
3, 345138, Note_on_c, 1, 40, 25
3, 345184, Note_on_c, 1, 40, 0
3, 345195, Note_on_c, 1, 42, 22
3, 345221, Note_on_c, 1, 42, 0
3, 345228, Note_on_c, 1, 40, 34
3, 345269, Note_on_c, 1, 40, 0
3, 345272, Note_on_c, 1, 42, 23
3, 345305, Note_on_c, 1, 42, 0
3, 345307, Note_on_c, 1, 40, 28
3, 345349, Note_on_c, 1, 42, 22
3, 345351, Note_on_c, 1, 40, 0
3, 345388, Note_on_c, 1, 42, 0
3, 345394, Note_on_c, 1, 40, 20
3, 345431, Note_on_c, 1, 40, 0
3, 345436, Note_on_c, 1, 42, 23
3, 345463, Note_on_c, 1, 42, 0
3, 345475, Note_on_c, 1, 40, 22
3, 345522, Note_on_c, 1, 42, 22
3, 345526, Note_on_c, 1, 40, 0
3, 345554, Note_on_c, 1, 42, 0
3, 345565, Note_on_c, 1, 40, 15
3, 345600, Note_on_c, 1, 40, 0
3, 345604, Note_on_c, 1, 42, 22
3, 345635, Note_on_c, 1, 42, 0
3, 345655, Note_on_c, 1, 40, 23
3, 345706, Note_on_c, 1, 42, 23
3, 345731, Note_on_c, 1, 42, 0
3, 345777, Note_on_c, 1, 40, 0
3, 345785, Note_on_c, 1, 42, 24
3, 345814, Note_on_c, 1, 42, 0
3, 345818, Note_on_c, 1, 40, 25
3, 345870, Note_on_c, 1, 40, 0
3, 345870, Note_on_c, 1, 42, 22
3, 345909, Note_on_c, 1, 42, 0
3, 345913, Note_on_c, 1, 40, 25
3, 345960, Note_on_c, 1, 40, 0
3, 345961, Note_on_c, 1, 42, 23
3, 345995, Note_on_c, 1, 42, 0
3, 346002, Note_on_c, 1, 40, 21
3, 346054, Note_on_c, 1, 40, 0
3, 346056, Note_on_c, 1, 42, 21
3, 346084, Note_on_c, 1, 42, 0
3, 346086, Note_on_c, 1, 40, 24
3, 346153, Note_on_c, 1, 40, 0
3, 346156, Note_on_c, 1, 42, 22
3, 346183, Note_on_c, 1, 40, 23
3, 346185, Note_on_c, 1, 42, 0
3, 346238, Note_on_c, 1, 40, 0
3, 346245, Note_on_c, 1, 42, 23
3, 346275, Note_on_c, 1, 42, 0
3, 346285, Note_on_c, 1, 40, 25
3, 346328, Note_on_c, 1, 42, 22
3, 346332, Note_on_c, 1, 40, 0
3, 346372, Note_on_c, 1, 40, 19
3, 346375, Note_on_c, 1, 42, 0
3, 346418, Note_on_c, 1, 40, 0
3, 346422, Note_on_c, 1, 42, 22
3, 346456, Note_on_c, 1, 42, 0
3, 346457, Note_on_c, 1, 40, 24
3, 346512, Note_on_c, 1, 40, 0
3, 346513, Note_on_c, 1, 42, 21
3, 346546, Note_on_c, 1, 42, 0
3, 346548, Note_on_c, 1, 40, 24
3, 346605, Note_on_c, 1, 40, 0
3, 346609, Note_on_c, 1, 42, 21
3, 346642, Note_on_c, 1, 42, 0
3, 346647, Note_on_c, 1, 40, 25
3, 346692, Note_on_c, 1, 40, 0
3, 346695, Note_on_c, 1, 42, 21
3, 346734, Note_on_c, 1, 42, 0
3, 346746, Note_on_c, 1, 40, 25
3, 346790, Note_on_c, 1, 40, 0
3, 346791, Note_on_c, 1, 42, 23
3, 346821, Note_on_c, 1, 42, 0
3, 346823, Note_on_c, 1, 40, 25
3, 346879, Note_on_c, 1, 40, 0
3, 346883, Note_on_c, 1, 42, 22
3, 346914, Note_on_c, 1, 42, 0
3, 346922, Note_on_c, 1, 40, 28
3, 346974, Note_on_c, 1, 40, 0
3, 346977, Note_on_c, 1, 42, 24
3, 347006, Note_on_c, 1, 42, 0
3, 347012, Note_on_c, 1, 40, 26
3, 347066, Note_on_c, 1, 40, 0
3, 347067, Note_on_c, 1, 42, 21
3, 347094, Note_on_c, 1, 42, 0
3, 347101, Note_on_c, 1, 40, 29
3, 347154, Note_on_c, 1, 40, 0
3, 347155, Note_on_c, 1, 42, 22
3, 347185, Note_on_c, 1, 42, 0
3, 347194, Note_on_c, 1, 40, 29
3, 347242, Note_on_c, 1, 42, 22
3, 347244, Note_on_c, 1, 40, 0
3, 347276, Note_on_c, 1, 42, 0
3, 347280, Note_on_c, 1, 40, 24
3, 347331, Note_on_c, 1, 40, 0
3, 347334, Note_on_c, 1, 42, 23
3, 347367, Note_on_c, 1, 42, 0
3, 347371, Note_on_c, 1, 40, 30
3, 347416, Note_on_c, 1, 40, 0
3, 347419, Note_on_c, 1, 42, 24
3, 347449, Note_on_c, 1, 42, 0
3, 347461, Note_on_c, 1, 40, 29
3, 347510, Note_on_c, 1, 42, 22
3, 347513, Note_on_c, 1, 40, 0
3, 347538, Note_on_c, 1, 42, 0
3, 347541, Note_on_c, 1, 40, 26
3, 347596, Note_on_c, 1, 42, 21
3, 347597, Note_on_c, 1, 40, 0
3, 347631, Note_on_c, 1, 42, 0
3, 347644, Note_on_c, 1, 40, 24
3, 347683, Note_on_c, 1, 42, 21
3, 347691, Note_on_c, 1, 40, 0
3, 347719, Note_on_c, 1, 40, 18
3, 347724, Note_on_c, 1, 42, 0
3, 347781, Note_on_c, 1, 42, 21
3, 347810, Note_on_c, 1, 42, 0
3, 347856, Note_on_c, 1, 40, 0
3, 347863, Note_on_c, 1, 42, 23
3, 347879, Note_on_c, 1, 40, 21
3, 347885, Note_on_c, 1, 42, 0
3, 347928, Control_c, 1, 64, 63
3, 347960, Control_c, 1, 64, 0
3, 347976, Note_on_c, 1, 40, 0
3, 354874, Control_c, 1, 64, 63
3, 354901, Control_c, 1, 64, 127
3, 355174, Note_on_c, 1, 40, 79
3, 355229, Note_on_c, 1, 40, 0
3, 355250, Note_on_c, 1, 42, 53
3, 355277, Note_on_c, 1, 42, 0
3, 355295, Note_on_c, 1, 40, 44
3, 355369, Note_on_c, 1, 42, 21
3, 355390, Note_on_c, 1, 42, 0
3, 355440, Note_on_c, 1, 40, 0
3, 355449, Note_on_c, 1, 42, 49
3, 355473, Note_on_c, 1, 42, 0
3, 355490, Note_on_c, 1, 40, 28
3, 355528, Note_on_c, 1, 40, 0
3, 355536, Note_on_c, 1, 42, 61
3, 355559, Note_on_c, 1, 42, 0
3, 355572, Note_on_c, 1, 40, 48
3, 355624, Note_on_c, 1, 40, 0
3, 355635, Note_on_c, 1, 42, 30
3, 355651, Note_on_c, 1, 40, 25
3, 355659, Note_on_c, 1, 42, 0
3, 355702, Note_on_c, 1, 40, 0
3, 355706, Note_on_c, 1, 42, 40
3, 355731, Note_on_c, 1, 42, 0
3, 355742, Note_on_c, 1, 40, 36
3, 355786, Note_on_c, 1, 40, 0
3, 355791, Note_on_c, 1, 42, 67
3, 355812, Note_on_c, 1, 42, 0
3, 355822, Note_on_c, 1, 40, 42
3, 355865, Note_on_c, 1, 40, 0
3, 355869, Note_on_c, 1, 42, 67
3, 355888, Note_on_c, 1, 42, 0
3, 355895, Note_on_c, 1, 40, 56
3, 355943, Note_on_c, 1, 42, 60
3, 355945, Note_on_c, 1, 40, 0
3, 355963, Note_on_c, 1, 42, 0
3, 355965, Note_on_c, 1, 40, 47
3, 356006, Note_on_c, 1, 42, 74
3, 356013, Note_on_c, 1, 40, 0
3, 356036, Note_on_c, 1, 42, 0
3, 356043, Note_on_c, 1, 40, 56
3, 356068, Note_on_c, 1, 42, 86
3, 356081, Note_on_c, 1, 40, 0
3, 356106, Note_on_c, 1, 42, 0
3, 356113, Note_on_c, 1, 40, 71
3, 356140, Note_on_c, 1, 42, 88
3, 356153, Note_on_c, 1, 40, 0
3, 356170, Note_on_c, 1, 40, 64
3, 356173, Note_on_c, 1, 42, 0
3, 356203, Note_on_c, 1, 42, 97
3, 356214, Note_on_c, 1, 40, 0
3, 356238, Note_on_c, 1, 42, 0
3, 356242, Note_on_c, 1, 40, 93
3, 356267, Note_on_c, 1, 42, 94
3, 356306, Note_on_c, 1, 42, 0
3, 356332, Note_on_c, 1, 42, 100
3, 356346, Note_on_c, 1, 40, 0
3, 356371, Note_on_c, 1, 40, 98
3, 356375, Note_on_c, 1, 42, 0
3, 356400, Note_on_c, 1, 42, 103
3, 356422, Note_on_c, 1, 40, 0
3, 356449, Note_on_c, 1, 42, 0
3, 356450, Note_on_c, 1, 40, 120
3, 356493, Control_c, 1, 64, 63
3, 356499, Control_c, 1, 64, 0
3, 356578, Note_on_c, 1, 40, 0
3, 357176, Note_on_c, 1, 40, 127
3, 357252, Note_on_c, 1, 40, 0
3, 357286, Note_on_c, 1, 40, 127
3, 357718, Note_on_c, 1, 40, 0
3, 357794, Note_on_c, 1, 40, 127
3, 357994, Control_c, 1, 64, 63
3, 358052, Control_c, 1, 64, 127
3, 358162, Note_on_c, 1, 40, 0
3, 358344, Note_on_c, 1, 40, 127
3, 358421, Control_c, 1, 64, 63
3, 358422, Control_c, 1, 64, 127
3, 358441, Note_on_c, 1, 40, 0
3, 358499, Note_on_c, 1, 40, 122
3, 358602, Note_on_c, 1, 40, 0
3, 358604, Note_on_c, 1, 42, 70
3, 358654, Note_on_c, 1, 42, 0
3, 358659, Note_on_c, 1, 40, 59
3, 358709, Note_on_c, 1, 40, 0
3, 358715, Note_on_c, 1, 42, 56
3, 358741, Note_on_c, 1, 42, 0
3, 358748, Note_on_c, 1, 40, 48
3, 358797, Note_on_c, 1, 40, 0
3, 358804, Note_on_c, 1, 42, 53
3, 358828, Note_on_c, 1, 42, 0
3, 358828, Note_on_c, 1, 40, 39
3, 358884, Note_on_c, 1, 42, 56
3, 358885, Note_on_c, 1, 40, 0
3, 358911, Note_on_c, 1, 42, 0
3, 358913, Note_on_c, 1, 40, 28
3, 358966, Note_on_c, 1, 40, 0
3, 358971, Note_on_c, 1, 42, 61
3, 358994, Note_on_c, 1, 42, 0
3, 358996, Note_on_c, 1, 40, 38
3, 359042, Note_on_c, 1, 42, 65
3, 359046, Note_on_c, 1, 40, 0
3, 359073, Note_on_c, 1, 42, 0
3, 359078, Note_on_c, 1, 40, 35
3, 359121, Note_on_c, 1, 42, 70
3, 359125, Note_on_c, 1, 40, 0
3, 359146, Note_on_c, 1, 42, 0
3, 359154, Note_on_c, 1, 40, 40
3, 359198, Note_on_c, 1, 42, 86
3, 359202, Note_on_c, 1, 40, 0
3, 359225, Note_on_c, 1, 42, 0
3, 359244, Note_on_c, 1, 40, 50
3, 359276, Note_on_c, 1, 42, 93
3, 359278, Note_on_c, 1, 40, 0
3, 359302, Note_on_c, 1, 42, 0
3, 359315, Note_on_c, 1, 40, 71
3, 359350, Note_on_c, 1, 42, 96
3, 359358, Note_on_c, 1, 40, 0
3, 359385, Note_on_c, 1, 42, 0
3, 359391, Note_on_c, 1, 40, 80
3, 359424, Note_on_c, 1, 42, 88
3, 359434, Note_on_c, 1, 40, 0
3, 359458, Note_on_c, 1, 42, 0
3, 359464, Note_on_c, 1, 40, 71
3, 359494, Note_on_c, 1, 42, 95
3, 359502, Note_on_c, 1, 40, 0
3, 359531, Note_on_c, 1, 42, 0
3, 359534, Note_on_c, 1, 40, 88
3, 359566, Note_on_c, 1, 42, 105
3, 359571, Note_on_c, 1, 40, 0
3, 359603, Note_on_c, 1, 40, 86
3, 359606, Note_on_c, 1, 42, 0
3, 359638, Note_on_c, 1, 42, 101
3, 359641, Note_on_c, 1, 40, 0
3, 359668, Note_on_c, 1, 40, 81
3, 359675, Note_on_c, 1, 42, 0
3, 359705, Note_on_c, 1, 42, 107
3, 359709, Note_on_c, 1, 40, 0
3, 359743, Note_on_c, 1, 40, 106
3, 359750, Note_on_c, 1, 42, 0
3, 359779, Note_on_c, 1, 42, 107
3, 359787, Note_on_c, 1, 40, 0
3, 359813, Note_on_c, 1, 40, 91
3, 359823, Note_on_c, 1, 42, 0
3, 359848, Note_on_c, 1, 42, 105
3, 359862, Note_on_c, 1, 40, 0
3, 359887, Note_on_c, 1, 40, 74
3, 359893, Note_on_c, 1, 42, 0
3, 359922, Note_on_c, 1, 42, 107
3, 359941, Note_on_c, 1, 40, 0
3, 359967, Note_on_c, 1, 40, 97
3, 359969, Note_on_c, 1, 42, 0
3, 359996, Note_on_c, 1, 42, 107
3, 360016, Note_on_c, 1, 40, 0
3, 360036, Note_on_c, 1, 40, 77
3, 360043, Note_on_c, 1, 42, 0
3, 360069, Note_on_c, 1, 42, 107
3, 360090, Note_on_c, 1, 40, 0
3, 360112, Note_on_c, 1, 40, 94
3, 360117, Note_on_c, 1, 42, 0
3, 360142, Note_on_c, 1, 42, 108
3, 360163, Note_on_c, 1, 40, 0
3, 360180, Note_on_c, 1, 40, 76
3, 360190, Note_on_c, 1, 42, 0
3, 360215, Note_on_c, 1, 42, 106
3, 360236, Note_on_c, 1, 40, 0
3, 360262, Note_on_c, 1, 40, 96
3, 360267, Note_on_c, 1, 42, 0
3, 360290, Note_on_c, 1, 42, 108
3, 360316, Note_on_c, 1, 40, 0
3, 360334, Note_on_c, 1, 40, 91
3, 360339, Note_on_c, 1, 42, 0
3, 360360, Note_on_c, 1, 42, 103
3, 360378, Note_on_c, 1, 40, 0
3, 360399, Note_on_c, 1, 40, 117
3, 360416, Note_on_c, 1, 42, 0
3, 360483, Note_on_c, 1, 40, 0
3, 360776, Control_c, 1, 64, 63
3, 360809, Control_c, 1, 64, 0
3, 361440, End_track
4, 0, Start_track
4, 0, Title_t, "Violini I"
4, 0, MIDI_port, 0
4, 100, Control_c, 2, 0, 0
4, 120, Control_c, 2, 32, 0
4, 140, Program_c, 2, 49
4, 160, Control_c, 2, 10, 19
4, 180, Control_c, 2, 7, 120
4, 200, Control_c, 2, 11, 100
4, 220, Control_c, 2, 1, 19
4, 240, Control_c, 2, 91, 60
4, 260, Control_c, 2, 93, 38
4, 280, Control_c, 2, 101, 0
4, 300, Control_c, 2, 100, 0
4, 320, Control_c, 2, 6, 12
4, 340, Pitch_bend_c, 2, 8208
4, 360, Control_c, 2, 99, 1
4, 380, Control_c, 2, 98, 32
4, 400, Control_c, 2, 6, 62
4, 420, Control_c, 2, 98, 33
4, 440, Control_c, 2, 6, 60
4, 460, Control_c, 2, 98, 99
4, 480, Control_c, 2, 6, 57
4, 500, Control_c, 2, 98, 100
4, 520, Control_c, 2, 6, 64
4, 540, Control_c, 2, 98, 102
4, 560, Control_c, 2, 6, 66
4, 580, Control_c, 2, 99, 1
4, 600, Control_c, 2, 98, 8
4, 620, Control_c, 2, 6, 90
4, 640, Control_c, 2, 98, 9
4, 660, Control_c, 2, 6, 50
4, 680, Control_c, 2, 98, 10
4, 705, Control_c, 2, 6, 70
4, 1513, Note_on_c, 2, 61, 125
4, 1559, Note_on_c, 2, 61, 0
4, 1646, Note_on_c, 2, 63, 119
4, 1699, Note_on_c, 2, 63, 0
4, 1805, Note_on_c, 2, 56, 121
4, 1870, Note_on_c, 2, 56, 0
4, 3913, Note_on_c, 2, 61, 125
4, 3957, Note_on_c, 2, 61, 0
4, 4053, Note_on_c, 2, 63, 126
4, 4095, Note_on_c, 2, 63, 0
4, 4216, Note_on_c, 2, 56, 127
4, 4272, Note_on_c, 2, 56, 0
4, 6269, Note_on_c, 2, 61, 124
4, 6304, Note_on_c, 2, 61, 0
4, 6413, Note_on_c, 2, 63, 127
4, 6453, Note_on_c, 2, 63, 0
4, 6571, Note_on_c, 2, 56, 121
4, 7135, Note_on_c, 2, 68, 118
4, 7155, Note_on_c, 2, 56, 0
4, 7219, Note_on_c, 2, 68, 0
4, 7436, Note_on_c, 2, 61, 124
4, 7472, Note_on_c, 2, 61, 0
4, 7570, Note_on_c, 2, 63, 120
4, 7608, Note_on_c, 2, 63, 0
4, 7726, Note_on_c, 2, 56, 118
4, 8280, Note_on_c, 2, 61, 112
4, 8284, Note_on_c, 2, 56, 0
4, 8370, Note_on_c, 2, 61, 0
4, 8573, Note_on_c, 2, 57, 107
4, 8607, Note_on_c, 2, 57, 0
4, 8721, Note_on_c, 2, 59, 109
4, 8765, Note_on_c, 2, 59, 0
4, 15840, Control_c, 2, 11, 80
4, 16227, Note_on_c, 2, 68, 62
4, 16946, Note_on_c, 2, 69, 52
4, 16999, Note_on_c, 2, 68, 0
4, 17233, Note_on_c, 2, 68, 63
4, 17342, Note_on_c, 2, 69, 0
4, 17548, Note_on_c, 2, 64, 57
4, 17566, Note_on_c, 2, 68, 0
4, 17827, Note_on_c, 2, 64, 0
4, 18417, Program_c, 2, 45
4, 18417, Note_on_c, 2, 69, 45
4, 18457, Note_on_c, 2, 69, 0
4, 18591, Note_on_c, 2, 69, 54
4, 18636, Note_on_c, 2, 69, 0
4, 18754, Note_on_c, 2, 68, 74
4, 18804, Note_on_c, 2, 68, 0
4, 19200, Program_c, 2, 49
4, 19381, Note_on_c, 2, 69, 59
4, 19675, Note_on_c, 2, 68, 67
4, 19738, Note_on_c, 2, 69, 0
4, 20249, Note_on_c, 2, 66, 65
4, 20315, Note_on_c, 2, 68, 0
4, 20545, Note_on_c, 2, 70, 68
4, 20625, Note_on_c, 2, 66, 0
4, 20866, Note_on_c, 2, 71, 73
4, 20916, Note_on_c, 2, 70, 0
4, 21352, Note_on_c, 2, 68, 48
4, 21467, Note_on_c, 2, 71, 0
4, 22506, Note_on_c, 2, 66, 54
4, 22536, Note_on_c, 2, 68, 0
4, 22833, Note_on_c, 2, 65, 44
4, 22889, Note_on_c, 2, 66, 0
4, 23138, Note_on_c, 2, 65, 0
4, 23520, Program_c, 2, 45
4, 23612, Note_on_c, 2, 68, 57
4, 23639, Note_on_c, 2, 68, 0
4, 23784, Note_on_c, 2, 69, 55
4, 23821, Note_on_c, 2, 69, 0
4, 23946, Note_on_c, 2, 66, 57
4, 23981, Note_on_c, 2, 66, 0
4, 24157, Note_on_c, 2, 65, 41
4, 24190, Note_on_c, 2, 65, 0
4, 24480, Program_c, 2, 49
4, 24886, Note_on_c, 2, 68, 56
4, 25187, Note_on_c, 2, 66, 68
4, 25249, Note_on_c, 2, 68, 0
4, 25477, Note_on_c, 2, 63, 61
4, 25488, Note_on_c, 2, 66, 0
4, 25804, Note_on_c, 2, 64, 71
4, 25816, Note_on_c, 2, 63, 0
4, 25955, Note_on_c, 2, 68, 61
4, 26037, Note_on_c, 2, 64, 0
4, 26109, Note_on_c, 2, 71, 62
4, 26153, Note_on_c, 2, 68, 0
4, 26313, Note_on_c, 2, 71, 0
4, 26440, Note_on_c, 2, 71, 58
4, 27061, Note_on_c, 2, 70, 63
4, 27123, Note_on_c, 2, 71, 0
4, 27213, Note_on_c, 2, 68, 73
4, 27374, Note_on_c, 2, 66, 63
4, 27402, Note_on_c, 2, 70, 0
4, 27421, Note_on_c, 2, 68, 0
4, 27519, Note_on_c, 2, 71, 84
4, 27552, Note_on_c, 2, 66, 0
4, 27629, Note_on_c, 2, 71, 0
4, 27681, Note_on_c, 2, 71, 57
4, 28216, Note_on_c, 2, 70, 61
4, 28256, Note_on_c, 2, 71, 0
4, 28349, Note_on_c, 2, 68, 63
4, 28406, Note_on_c, 2, 70, 0
4, 28501, Note_on_c, 2, 66, 63
4, 28523, Note_on_c, 2, 68, 0
4, 28669, Note_on_c, 2, 66, 0
4, 34373, Note_on_c, 2, 68, 53
4, 35018, Note_on_c, 2, 69, 60
4, 35073, Note_on_c, 2, 68, 0
4, 35313, Note_on_c, 2, 68, 71
4, 35357, Note_on_c, 2, 69, 0
4, 35656, Note_on_c, 2, 64, 66
4, 35676, Note_on_c, 2, 68, 0
4, 36008, Note_on_c, 2, 64, 0
4, 36480, Program_c, 2, 45
4, 36576, Note_on_c, 2, 75, 66
4, 36602, Note_on_c, 2, 75, 0
4, 36740, Note_on_c, 2, 75, 60
4, 36778, Note_on_c, 2, 75, 0
4, 36942, Note_on_c, 2, 76, 64
4, 36972, Note_on_c, 2, 76, 0
4, 37200, Program_c, 2, 49
4, 37270, Note_on_c, 2, 68, 64
4, 37538, Note_on_c, 2, 71, 76
4, 37560, Note_on_c, 2, 68, 0
4, 37886, Note_on_c, 2, 69, 57
4, 37923, Note_on_c, 2, 71, 0
4, 38162, Note_on_c, 2, 69, 0
4, 38184, Note_on_c, 2, 65, 65
4, 38510, Note_on_c, 2, 66, 56
4, 38580, Note_on_c, 2, 65, 0
4, 38732, Note_on_c, 2, 66, 0
4, 38793, Note_on_c, 2, 68, 65
4, 38940, Note_on_c, 2, 66, 74
4, 38973, Note_on_c, 2, 68, 0
4, 39114, Note_on_c, 2, 64, 68
4, 39145, Note_on_c, 2, 66, 0
4, 39326, Note_on_c, 2, 64, 0
4, 39407, Note_on_c, 2, 73, 83
4, 39685, Note_on_c, 2, 66, 72
4, 39698, Note_on_c, 2, 73, 0
4, 39904, Note_on_c, 2, 66, 0
4, 40010, Note_on_c, 2, 73, 65
4, 40306, Note_on_c, 2, 66, 76
4, 40327, Note_on_c, 2, 73, 0
4, 40463, Note_on_c, 2, 68, 80
4, 40506, Note_on_c, 2, 66, 0
4, 40633, Note_on_c, 2, 70, 67
4, 40645, Note_on_c, 2, 68, 0
4, 40918, Note_on_c, 2, 63, 71
4, 40970, Note_on_c, 2, 70, 0
4, 41207, Note_on_c, 2, 63, 0
4, 41243, Note_on_c, 2, 67, 79
4, 41584, Note_on_c, 2, 66, 84
4, 41603, Note_on_c, 2, 67, 0
4, 41984, Note_on_c, 2, 68, 67
4, 42012, Note_on_c, 2, 66, 0
4, 42162, Note_on_c, 2, 68, 0
4, 42178, Note_on_c, 2, 70, 93
4, 42335, Note_on_c, 2, 70, 0
4, 42389, Note_on_c, 2, 71, 71
4, 42515, Note_on_c, 2, 71, 0
4, 42632, Note_on_c, 2, 59, 69
4, 42814, Note_on_c, 2, 59, 0
4, 43839, Note_on_c, 2, 71, 100
4, 43947, Note_on_c, 2, 71, 0
4, 43999, Note_on_c, 2, 73, 113
4, 44042, Note_on_c, 2, 73, 0
4, 44151, Note_on_c, 2, 71, 120
4, 44186, Note_on_c, 2, 71, 0
4, 44312, Note_on_c, 2, 64, 124
4, 44346, Note_on_c, 2, 64, 0
4, 44448, Control_c, 2, 11, 100
4, 44448, Note_on_c, 2, 64, 121
4, 44487, Note_on_c, 2, 64, 0
4, 44639, Note_on_c, 2, 76, 127
4, 44918, Note_on_c, 2, 76, 0
4, 44954, Note_on_c, 2, 75, 127
4, 44990, Note_on_c, 2, 75, 0
4, 45118, Note_on_c, 2, 80, 125
4, 45155, Note_on_c, 2, 80, 0
4, 45295, Note_on_c, 2, 71, 88
4, 45358, Note_on_c, 2, 73, 97
4, 45379, Note_on_c, 2, 71, 0
4, 45455, Note_on_c, 2, 71, 106
4, 45460, Note_on_c, 2, 73, 0
4, 45515, Note_on_c, 2, 71, 0
4, 45516, Note_on_c, 2, 73, 110
4, 45567, Note_on_c, 2, 73, 0
4, 45597, Note_on_c, 2, 75, 107
4, 45637, Note_on_c, 2, 75, 0
4, 45778, Note_on_c, 2, 71, 101
4, 45811, Note_on_c, 2, 71, 0
4, 45957, Note_on_c, 2, 81, 125
4, 46272, Note_on_c, 2, 81, 0
4, 46279, Note_on_c, 2, 80, 120
4, 46329, Note_on_c, 2, 80, 0
4, 46463, Note_on_c, 2, 85, 123
4, 46509, Note_on_c, 2, 85, 0
4, 46637, Note_on_c, 2, 76, 118
4, 46701, Note_on_c, 2, 78, 113
4, 46727, Note_on_c, 2, 76, 0
4, 46799, Note_on_c, 2, 76, 94
4, 46806, Note_on_c, 2, 78, 0
4, 46858, Note_on_c, 2, 78, 107
4, 46862, Note_on_c, 2, 76, 0
4, 46911, Note_on_c, 2, 78, 0
4, 46952, Note_on_c, 2, 80, 116
4, 46994, Note_on_c, 2, 80, 0
4, 47109, Note_on_c, 2, 76, 121
4, 47149, Note_on_c, 2, 76, 0
4, 47286, Note_on_c, 2, 85, 123
4, 47363, Note_on_c, 2, 87, 115
4, 47384, Note_on_c, 2, 85, 0
4, 47445, Note_on_c, 2, 87, 0
4, 47446, Note_on_c, 2, 85, 116
4, 47509, Note_on_c, 2, 87, 114
4, 47521, Note_on_c, 2, 85, 0
4, 47556, Note_on_c, 2, 87, 0
4, 47606, Note_on_c, 2, 88, 125
4, 47659, Note_on_c, 2, 88, 0
4, 47782, Note_on_c, 2, 76, 120
4, 47819, Note_on_c, 2, 76, 0
4, 47951, Note_on_c, 2, 85, 120
4, 48032, Note_on_c, 2, 87, 113
4, 48049, Note_on_c, 2, 85, 0
4, 48102, Note_on_c, 2, 87, 0
4, 48131, Note_on_c, 2, 85, 106
4, 48186, Note_on_c, 2, 87, 110
4, 48195, Note_on_c, 2, 85, 0
4, 48231, Note_on_c, 2, 87, 0
4, 48294, Note_on_c, 2, 88, 125
4, 48344, Note_on_c, 2, 88, 0
4, 48469, Note_on_c, 2, 76, 120
4, 48500, Note_on_c, 2, 76, 0
4, 48656, Note_on_c, 2, 80, 121
4, 48699, Note_on_c, 2, 80, 0
4, 48825, Note_on_c, 2, 64, 127
4, 48921, Note_on_c, 2, 64, 0
4, 48985, Note_on_c, 2, 83, 126
4, 49052, Note_on_c, 2, 83, 0
4, 49159, Note_on_c, 2, 63, 125
4, 49197, Note_on_c, 2, 63, 0
4, 49323, Note_on_c, 2, 87, 124
4, 49365, Note_on_c, 2, 87, 0
4, 49494, Note_on_c, 2, 79, 124
4, 49529, Note_on_c, 2, 79, 0
4, 49663, Note_on_c, 2, 80, 121
4, 49697, Note_on_c, 2, 80, 0
4, 49849, Note_on_c, 2, 68, 126
4, 49880, Note_on_c, 2, 68, 0
4, 50013, Note_on_c, 2, 80, 125
4, 50054, Note_on_c, 2, 80, 0
4, 50173, Note_on_c, 2, 80, 120
4, 50214, Note_on_c, 2, 80, 0
4, 50351, Note_on_c, 2, 80, 124
4, 50744, Note_on_c, 2, 80, 0
4, 50763, Note_on_c, 2, 68, 108
4, 50832, Note_on_c, 2, 70, 97
4, 50842, Note_on_c, 2, 68, 0
4, 50903, Note_on_c, 2, 70, 0
4, 50904, Note_on_c, 2, 68, 92
4, 50969, Note_on_c, 2, 72, 90
4, 50975, Note_on_c, 2, 68, 0
4, 51038, Note_on_c, 2, 72, 0
4, 51059, Note_on_c, 2, 73, 104
4, 51134, Note_on_c, 2, 75, 97
4, 51143, Note_on_c, 2, 73, 0
4, 51183, Note_on_c, 2, 75, 0
4, 51223, Note_on_c, 2, 76, 104
4, 51261, Note_on_c, 2, 76, 0
4, 51390, Note_on_c, 2, 80, 125
4, 51439, Note_on_c, 2, 80, 0
4, 51565, Note_on_c, 2, 80, 124
4, 51614, Note_on_c, 2, 80, 0
4, 51742, Note_on_c, 2, 80, 124
4, 52093, Note_on_c, 2, 80, 0
4, 52101, Note_on_c, 2, 68, 109
4, 52173, Note_on_c, 2, 69, 100
4, 52186, Note_on_c, 2, 68, 0
4, 52251, Note_on_c, 2, 68, 106
4, 52270, Note_on_c, 2, 69, 0
4, 52333, Note_on_c, 2, 72, 99
4, 52342, Note_on_c, 2, 68, 0
4, 52411, Note_on_c, 2, 72, 0
4, 52434, Note_on_c, 2, 73, 96
4, 52503, Note_on_c, 2, 75, 88
4, 52510, Note_on_c, 2, 73, 0
4, 52564, Note_on_c, 2, 75, 0
4, 52606, Note_on_c, 2, 76, 84
4, 52637, Note_on_c, 2, 76, 0
4, 52787, Note_on_c, 2, 83, 127
4, 52825, Note_on_c, 2, 83, 0
4, 52959, Note_on_c, 2, 83, 126
4, 52995, Note_on_c, 2, 83, 0
4, 53136, Note_on_c, 2, 83, 127
4, 53499, Note_on_c, 2, 71, 84
4, 53567, Note_on_c, 2, 83, 0
4, 53579, Note_on_c, 2, 73, 82
4, 53580, Note_on_c, 2, 71, 0
4, 53651, Note_on_c, 2, 71, 76
4, 53654, Note_on_c, 2, 73, 0
4, 53711, Note_on_c, 2, 71, 0
4, 53721, Note_on_c, 2, 75, 94
4, 53788, Note_on_c, 2, 75, 0
4, 53799, Note_on_c, 2, 76, 85
4, 53857, Note_on_c, 2, 76, 0
4, 53867, Note_on_c, 2, 78, 98
4, 53918, Note_on_c, 2, 78, 0
4, 53943, Note_on_c, 2, 80, 108
4, 53981, Note_on_c, 2, 80, 0
4, 54108, Note_on_c, 2, 71, 99
4, 54177, Note_on_c, 2, 73, 106
4, 54183, Note_on_c, 2, 71, 0
4, 54246, Note_on_c, 2, 71, 98
4, 54255, Note_on_c, 2, 73, 0
4, 54304, Note_on_c, 2, 71, 0
4, 54312, Note_on_c, 2, 75, 109
4, 54378, Note_on_c, 2, 75, 0
4, 54393, Note_on_c, 2, 76, 102
4, 54455, Note_on_c, 2, 76, 0
4, 54462, Note_on_c, 2, 78, 112
4, 54520, Note_on_c, 2, 78, 0
4, 54547, Note_on_c, 2, 80, 116
4, 54585, Note_on_c, 2, 80, 0
4, 54716, Note_on_c, 2, 71, 112
4, 54776, Note_on_c, 2, 73, 113
4, 54799, Note_on_c, 2, 71, 0
4, 54849, Note_on_c, 2, 71, 99
4, 54870, Note_on_c, 2, 73, 0
4, 54917, Note_on_c, 2, 71, 0
4, 54923, Note_on_c, 2, 75, 110
4, 54981, Note_on_c, 2, 75, 0
4, 55000, Note_on_c, 2, 76, 100
4, 55059, Note_on_c, 2, 76, 0
4, 55072, Note_on_c, 2, 78, 115
4, 55140, Note_on_c, 2, 78, 0
4, 55152, Note_on_c, 2, 80, 116
4, 55197, Note_on_c, 2, 80, 0
4, 55325, Note_on_c, 2, 78, 104
4, 55361, Note_on_c, 2, 78, 0
4, 55399, Note_on_c, 2, 85, 106
4, 55465, Note_on_c, 2, 83, 101
4, 55493, Note_on_c, 2, 85, 0
4, 55531, Note_on_c, 2, 85, 106
4, 55569, Note_on_c, 2, 83, 0
4, 55611, Note_on_c, 2, 83, 100
4, 55634, Note_on_c, 2, 85, 0
4, 56030, Note_on_c, 2, 85, 110
4, 56054, Note_on_c, 2, 83, 0
4, 56104, Note_on_c, 2, 83, 106
4, 56123, Note_on_c, 2, 85, 0
4, 56170, Note_on_c, 2, 85, 119
4, 56194, Note_on_c, 2, 83, 0
4, 56251, Note_on_c, 2, 83, 111
4, 56267, Note_on_c, 2, 85, 0
4, 56292, Note_on_c, 2, 83, 0
4, 56326, Note_on_c, 2, 83, 97
4, 56370, Note_on_c, 2, 83, 0
4, 56396, Note_on_c, 2, 85, 113
4, 56432, Note_on_c, 2, 85, 0
4, 56459, Note_on_c, 2, 85, 94
4, 56500, Note_on_c, 2, 85, 0
4, 56566, Note_on_c, 2, 87, 116
4, 56611, Note_on_c, 2, 87, 0
4, 56894, Note_on_c, 2, 78, 125
4, 56900, Note_on_c, 2, 87, 125
4, 56928, Note_on_c, 2, 78, 0
4, 56933, Note_on_c, 2, 87, 0
4, 57205, Note_on_c, 2, 78, 123
4, 57228, Note_on_c, 2, 90, 118
4, 57364, Note_on_c, 2, 78, 0
4, 57421, Note_on_c, 2, 90, 0
4, 58319, Note_on_c, 2, 59, 36
4, 59164, Note_on_c, 2, 59, 0
4, 62864, Program_c, 2, 45
4, 62864, Note_on_c, 2, 69, 57
4, 62887, Note_on_c, 2, 69, 0
4, 63028, Note_on_c, 2, 69, 68
4, 63055, Note_on_c, 2, 69, 0
4, 63204, Note_on_c, 2, 68, 81
4, 63223, Note_on_c, 2, 68, 0
4, 63840, Program_c, 2, 49
4, 63842, Note_on_c, 2, 69, 64
4, 64135, Note_on_c, 2, 68, 75
4, 64188, Note_on_c, 2, 69, 0
4, 64429, Note_on_c, 2, 68, 0
4, 64429, Note_on_c, 2, 64, 63
4, 64691, Note_on_c, 2, 64, 0
4, 65063, Note_on_c, 2, 75, 80
4, 65349, Note_on_c, 2, 76, 86
4, 65380, Note_on_c, 2, 75, 0
4, 65407, Note_on_c, 2, 76, 0
4, 65526, Note_on_c, 2, 76, 124
4, 65569, Note_on_c, 2, 76, 0
4, 65680, Note_on_c, 2, 81, 125
4, 65733, Note_on_c, 2, 81, 0
4, 65841, Note_on_c, 2, 80, 124
4, 65904, Note_on_c, 2, 80, 0
4, 66296, Note_on_c, 2, 85, 127
4, 66335, Note_on_c, 2, 85, 0
4, 66468, Note_on_c, 2, 83, 125
4, 66533, Note_on_c, 2, 83, 0
4, 66901, Note_on_c, 2, 81, 127
4, 66933, Note_on_c, 2, 81, 0
4, 67074, Note_on_c, 2, 80, 126
4, 67129, Note_on_c, 2, 80, 0
4, 67502, Note_on_c, 2, 85, 127
4, 67547, Note_on_c, 2, 85, 0
4, 67665, Note_on_c, 2, 83, 117
4, 67735, Note_on_c, 2, 83, 0
4, 69263, Note_on_c, 2, 69, 54
4, 69434, Note_on_c, 2, 68, 60
4, 69485, Note_on_c, 2, 69, 0
4, 69785, Note_on_c, 2, 70, 62
4, 69822, Note_on_c, 2, 68, 0
4, 70121, Note_on_c, 2, 71, 67
4, 70137, Note_on_c, 2, 70, 0
4, 70446, Note_on_c, 2, 71, 0
4, 70605, Note_on_c, 2, 83, 125
4, 70860, Note_on_c, 2, 83, 0
4, 70918, Note_on_c, 2, 76, 125
4, 70954, Note_on_c, 2, 76, 0
4, 71078, Note_on_c, 2, 81, 126
4, 71441, Note_on_c, 2, 81, 0
4, 71525, Note_on_c, 2, 75, 121
4, 71557, Note_on_c, 2, 75, 0
4, 71682, Note_on_c, 2, 80, 120
4, 71990, Note_on_c, 2, 80, 0
4, 72130, Note_on_c, 2, 78, 118
4, 72192, Note_on_c, 2, 78, 0
4, 72195, Note_on_c, 2, 76, 106
4, 72236, Note_on_c, 2, 76, 0
4, 72289, Note_on_c, 2, 76, 112
4, 72359, Note_on_c, 2, 75, 105
4, 72373, Note_on_c, 2, 76, 0
4, 72419, Note_on_c, 2, 75, 0
4, 72431, Note_on_c, 2, 73, 100
4, 72500, Note_on_c, 2, 75, 101
4, 72509, Note_on_c, 2, 73, 0
4, 72552, Note_on_c, 2, 75, 0
4, 72594, Note_on_c, 2, 76, 114
4, 72633, Note_on_c, 2, 76, 0
4, 72744, Note_on_c, 2, 63, 67
4, 72789, Note_on_c, 2, 71, 116
4, 72795, Note_on_c, 2, 78, 124
4, 72842, Note_on_c, 2, 63, 0
4, 72844, Note_on_c, 2, 71, 0
4, 72850, Note_on_c, 2, 78, 0
4, 73103, Note_on_c, 2, 83, 121
4, 73146, Note_on_c, 2, 83, 0
4, 73260, Note_on_c, 2, 83, 114
4, 73297, Note_on_c, 2, 83, 0
4, 73428, Note_on_c, 2, 76, 118
4, 73461, Note_on_c, 2, 76, 0
4, 73582, Note_on_c, 2, 81, 124
4, 73935, Note_on_c, 2, 81, 0
4, 74042, Note_on_c, 2, 75, 118
4, 74077, Note_on_c, 2, 75, 0
4, 74199, Note_on_c, 2, 80, 120
4, 74486, Note_on_c, 2, 80, 0
4, 74650, Note_on_c, 2, 78, 124
4, 74889, Note_on_c, 2, 78, 0
4, 74948, Note_on_c, 2, 76, 124
4, 75128, Note_on_c, 2, 76, 0
4, 75264, Note_on_c, 2, 75, 103
4, 75313, Note_on_c, 2, 73, 108
4, 75319, Note_on_c, 2, 75, 0
4, 75379, Note_on_c, 2, 73, 0
4, 75381, Note_on_c, 2, 71, 103
4, 75424, Note_on_c, 2, 71, 0
4, 75546, Note_on_c, 2, 80, 100
4, 75612, Note_on_c, 2, 78, 99
4, 75633, Note_on_c, 2, 80, 0
4, 75667, Note_on_c, 2, 78, 0
4, 75682, Note_on_c, 2, 76, 108
4, 75722, Note_on_c, 2, 76, 0
4, 75854, Note_on_c, 2, 75, 115
4, 75903, Note_on_c, 2, 73, 115
4, 75936, Note_on_c, 2, 75, 0
4, 75995, Note_on_c, 2, 71, 114
4, 76016, Note_on_c, 2, 73, 0
4, 76040, Note_on_c, 2, 71, 0
4, 76170, Note_on_c, 2, 80, 114
4, 76230, Note_on_c, 2, 78, 108
4, 76257, Note_on_c, 2, 80, 0
4, 76291, Note_on_c, 2, 78, 0
4, 76309, Note_on_c, 2, 76, 121
4, 76349, Note_on_c, 2, 76, 0
4, 76487, Note_on_c, 2, 75, 116
4, 76539, Note_on_c, 2, 73, 113
4, 76564, Note_on_c, 2, 75, 0
4, 76618, Note_on_c, 2, 73, 0
4, 76627, Note_on_c, 2, 71, 107
4, 76670, Note_on_c, 2, 71, 0
4, 76793, Note_on_c, 2, 80, 113
4, 76857, Note_on_c, 2, 78, 109
4, 76880, Note_on_c, 2, 80, 0
4, 76925, Note_on_c, 2, 78, 0
4, 76935, Note_on_c, 2, 76, 118
4, 76971, Note_on_c, 2, 76, 0
4, 77110, Note_on_c, 2, 64, 127
4, 77294, Note_on_c, 2, 64, 0
4, 77404, Note_on_c, 2, 64, 117
4, 77437, Note_on_c, 2, 64, 0
4, 77570, Note_on_c, 2, 64, 124
4, 77603, Note_on_c, 2, 64, 0
4, 77741, Note_on_c, 2, 64, 127
4, 77779, Note_on_c, 2, 64, 0
4, 77910, Note_on_c, 2, 68, 69
4, 78240, Note_on_c, 2, 73, 74
4, 78241, Note_on_c, 2, 68, 0
4, 78432, Note_on_c, 2, 73, 0
4, 79921, Note_on_c, 2, 61, 120
4, 79951, Note_on_c, 2, 63, 86
4, 79959, Note_on_c, 2, 61, 0
4, 79995, Note_on_c, 2, 61, 101
4, 80018, Note_on_c, 2, 63, 0
4, 80042, Note_on_c, 2, 61, 0
4, 80073, Note_on_c, 2, 59, 120
4, 80117, Note_on_c, 2, 59, 0
4, 80230, Note_on_c, 2, 57, 116
4, 80266, Note_on_c, 2, 57, 0
4, 80381, Note_on_c, 2, 56, 118
4, 80427, Note_on_c, 2, 56, 0
4, 82926, Note_on_c, 2, 66, 55
4, 83086, Note_on_c, 2, 64, 48
4, 83114, Note_on_c, 2, 66, 0
4, 83273, Note_on_c, 2, 63, 49
4, 83325, Note_on_c, 2, 64, 0
4, 83911, Note_on_c, 2, 66, 56
4, 84043, Note_on_c, 2, 63, 0
4, 84586, Note_on_c, 2, 64, 59
4, 84629, Note_on_c, 2, 66, 0
4, 85858, Note_on_c, 2, 63, 36
4, 85868, Note_on_c, 2, 64, 0
4, 86511, Note_on_c, 2, 66, 27
4, 86674, Note_on_c, 2, 63, 0
4, 87190, Note_on_c, 2, 64, 21
4, 87270, Note_on_c, 2, 66, 0
4, 88395, Note_on_c, 2, 64, 0
4, 88490, Note_on_c, 2, 64, 55
4, 89806, Note_on_c, 2, 63, 52
4, 89937, Note_on_c, 2, 64, 0
4, 90937, Note_on_c, 2, 63, 0
4, 91065, Note_on_c, 2, 64, 19
4, 92319, Note_on_c, 2, 63, 20
4, 92390, Note_on_c, 2, 64, 0
4, 92947, Note_on_c, 2, 63, 0
4, 92979, Control_c, 2, 11, 50
4, 92979, Note_on_c, 2, 71, 69
4, 93009, Control_c, 2, 11, 51
4, 93034, Control_c, 2, 11, 52
4, 93064, Control_c, 2, 11, 53
4, 93089, Control_c, 2, 11, 54
4, 93114, Control_c, 2, 11, 55
4, 93144, Control_c, 2, 11, 56
4, 93169, Control_c, 2, 11, 57
4, 93194, Control_c, 2, 11, 58
4, 93224, Control_c, 2, 11, 59
4, 93249, Control_c, 2, 11, 60
4, 93274, Control_c, 2, 11, 61
4, 93304, Control_c, 2, 11, 62
4, 93329, Control_c, 2, 11, 63
4, 93354, Control_c, 2, 11, 64
4, 93384, Control_c, 2, 11, 65
4, 93409, Control_c, 2, 11, 66
4, 93434, Control_c, 2, 11, 67
4, 93464, Control_c, 2, 11, 68
4, 93489, Control_c, 2, 11, 69
4, 93519, Control_c, 2, 11, 70
4, 93544, Control_c, 2, 11, 71
4, 93569, Control_c, 2, 11, 72
4, 93599, Control_c, 2, 11, 73
4, 93624, Control_c, 2, 11, 74
4, 93649, Control_c, 2, 11, 75
4, 93679, Control_c, 2, 11, 76
4, 93704, Control_c, 2, 11, 77
4, 93729, Control_c, 2, 11, 78
4, 93759, Control_c, 2, 11, 79
4, 93784, Control_c, 2, 11, 80
4, 93809, Control_c, 2, 11, 81
4, 93839, Control_c, 2, 11, 82
4, 93864, Control_c, 2, 11, 83
4, 93889, Control_c, 2, 11, 84
4, 93919, Control_c, 2, 11, 85
4, 93944, Control_c, 2, 11, 86
4, 93974, Control_c, 2, 11, 87
4, 93999, Control_c, 2, 11, 88
4, 94024, Control_c, 2, 11, 89
4, 94054, Control_c, 2, 11, 90
4, 94079, Control_c, 2, 11, 91
4, 94104, Control_c, 2, 11, 92
4, 94134, Control_c, 2, 11, 93
4, 94159, Control_c, 2, 11, 94
4, 94184, Control_c, 2, 11, 95
4, 94214, Control_c, 2, 11, 96
4, 94239, Control_c, 2, 11, 97
4, 94264, Control_c, 2, 11, 98
4, 94294, Control_c, 2, 11, 99
4, 94318, Control_c, 2, 11, 100
4, 94318, Note_on_c, 2, 70, 61
4, 94379, Note_on_c, 2, 71, 0
4, 94621, Note_on_c, 2, 68, 58
4, 94683, Note_on_c, 2, 70, 0
4, 94921, Note_on_c, 2, 67, 61
4, 94975, Note_on_c, 2, 68, 0
4, 95476, Note_on_c, 2, 67, 0
4, 95518, Note_on_c, 2, 66, 31
4, 96128, Note_on_c, 2, 64, 34
4, 96169, Note_on_c, 2, 66, 0
4, 97028, Note_on_c, 2, 64, 0
4, 97055, Note_on_c, 2, 68, 39
4, 97341, Note_on_c, 2, 69, 53
4, 97378, Note_on_c, 2, 68, 0
4, 97629, Note_on_c, 2, 68, 55
4, 97649, Note_on_c, 2, 69, 0
4, 97935, Note_on_c, 2, 69, 51
4, 97993, Note_on_c, 2, 68, 0
4, 98204, Note_on_c, 2, 69, 0
4, 98269, Note_on_c, 2, 64, 62
4, 98559, Note_on_c, 2, 69, 59
4, 98579, Note_on_c, 2, 64, 0
4, 98896, Note_on_c, 2, 69, 0
4, 99576, Note_on_c, 2, 69, 50
4, 101092, Note_on_c, 2, 68, 56
4, 101166, Note_on_c, 2, 69, 0
4, 101398, Note_on_c, 2, 68, 0
4, 101998, Note_on_c, 2, 71, 68
4, 102266, Note_on_c, 2, 64, 54
4, 102292, Note_on_c, 2, 71, 0
4, 102545, Note_on_c, 2, 64, 0
4, 103166, Note_on_c, 2, 71, 81
4, 103466, Note_on_c, 2, 71, 0
4, 103466, Note_on_c, 2, 64, 73
4, 103689, Note_on_c, 2, 64, 0
4, 108000, Control_c, 2, 11, 80
4, 108226, Note_on_c, 2, 64, 43
4, 108680, Note_on_c, 2, 69, 66
4, 108693, Note_on_c, 2, 64, 0
4, 108714, Note_on_c, 2, 69, 0
4, 108884, Note_on_c, 2, 64, 73
4, 108919, Note_on_c, 2, 64, 0
4, 108971, Note_on_c, 2, 64, 69
4, 109003, Note_on_c, 2, 64, 0
4, 109068, Note_on_c, 2, 64, 67
4, 109094, Note_on_c, 2, 64, 0
4, 109145, Note_on_c, 2, 64, 73
4, 109176, Note_on_c, 2, 64, 0
4, 109258, Note_on_c, 2, 64, 50
4, 110138, Note_on_c, 2, 69, 56
4, 110150, Note_on_c, 2, 64, 0
4, 110171, Note_on_c, 2, 69, 0
4, 110329, Note_on_c, 2, 64, 72
4, 110360, Note_on_c, 2, 64, 0
4, 110404, Note_on_c, 2, 64, 70
4, 110448, Note_on_c, 2, 64, 0
4, 110491, Note_on_c, 2, 64, 62
4, 110527, Note_on_c, 2, 64, 0
4, 110570, Note_on_c, 2, 64, 63
4, 110617, Note_on_c, 2, 64, 0
4, 110677, Note_on_c, 2, 64, 48
4, 111574, Note_on_c, 2, 69, 74
4, 111591, Note_on_c, 2, 64, 0
4, 111602, Note_on_c, 2, 69, 0
4, 111770, Note_on_c, 2, 64, 71
4, 111804, Note_on_c, 2, 64, 0
4, 111849, Note_on_c, 2, 64, 60
4, 111884, Note_on_c, 2, 64, 0
4, 111934, Note_on_c, 2, 64, 61
4, 111970, Note_on_c, 2, 64, 0
4, 112009, Note_on_c, 2, 64, 64
4, 112058, Note_on_c, 2, 64, 0
4, 112124, Note_on_c, 2, 64, 48
4, 113018, Note_on_c, 2, 69, 52
4, 113026, Note_on_c, 2, 64, 0
4, 113174, Note_on_c, 2, 69, 0
4, 113215, Note_on_c, 2, 64, 65
4, 113395, Note_on_c, 2, 66, 69
4, 113417, Note_on_c, 2, 64, 0
4, 113591, Note_on_c, 2, 64, 57
4, 113600, Note_on_c, 2, 66, 0
4, 113797, Note_on_c, 2, 69, 52
4, 113833, Note_on_c, 2, 64, 0
4, 114000, Note_on_c, 2, 64, 50
4, 114003, Note_on_c, 2, 69, 0
4, 114677, Note_on_c, 2, 73, 43
4, 114682, Note_on_c, 2, 64, 0
4, 114881, Note_on_c, 2, 73, 0
4, 114884, Note_on_c, 2, 71, 51
4, 115125, Note_on_c, 2, 69, 53
4, 115136, Note_on_c, 2, 71, 0
4, 115292, Note_on_c, 2, 68, 53
4, 115305, Note_on_c, 2, 69, 0
4, 115492, Note_on_c, 2, 67, 73
4, 115512, Note_on_c, 2, 68, 0
4, 115680, Note_on_c, 2, 66, 82
4, 115701, Note_on_c, 2, 67, 0
4, 115866, Note_on_c, 2, 70, 76
4, 115891, Note_on_c, 2, 66, 0
4, 116053, Note_on_c, 2, 71, 71
4, 116072, Note_on_c, 2, 70, 0
4, 116234, Note_on_c, 2, 71, 0
4, 116245, Note_on_c, 2, 78, 88
4, 116279, Note_on_c, 2, 78, 0
4, 116428, Note_on_c, 2, 66, 87
4, 116471, Note_on_c, 2, 66, 0
4, 116505, Note_on_c, 2, 66, 74
4, 116544, Note_on_c, 2, 66, 0
4, 116602, Note_on_c, 2, 66, 70
4, 116629, Note_on_c, 2, 66, 0
4, 116678, Note_on_c, 2, 66, 66
4, 116708, Note_on_c, 2, 66, 0
4, 116780, Note_on_c, 2, 66, 53
4, 117777, Note_on_c, 2, 71, 76
4, 117790, Note_on_c, 2, 66, 0
4, 117813, Note_on_c, 2, 71, 0
4, 117974, Note_on_c, 2, 66, 78
4, 118005, Note_on_c, 2, 66, 0
4, 118061, Note_on_c, 2, 66, 69
4, 118091, Note_on_c, 2, 66, 0
4, 118153, Note_on_c, 2, 66, 64
4, 118185, Note_on_c, 2, 66, 0
4, 118232, Note_on_c, 2, 66, 59
4, 118273, Note_on_c, 2, 66, 0
4, 118341, Note_on_c, 2, 66, 57
4, 119237, Note_on_c, 2, 71, 59
4, 119277, Note_on_c, 2, 66, 0
4, 119437, Note_on_c, 2, 66, 70
4, 119485, Note_on_c, 2, 71, 0
4, 119606, Note_on_c, 2, 67, 66
4, 119628, Note_on_c, 2, 66, 0
4, 119787, Note_on_c, 2, 66, 79
4, 119804, Note_on_c, 2, 67, 0
4, 119970, Note_on_c, 2, 71, 62
4, 119977, Note_on_c, 2, 66, 0
4, 120189, Note_on_c, 2, 66, 61
4, 120243, Note_on_c, 2, 71, 0
4, 120385, Note_on_c, 2, 65, 68
4, 120477, Note_on_c, 2, 66, 0
4, 120567, Note_on_c, 2, 64, 66
4, 120591, Note_on_c, 2, 65, 0
4, 120793, Note_on_c, 2, 74, 48
4, 120802, Note_on_c, 2, 64, 0
4, 120989, Note_on_c, 2, 74, 0
4, 121016, Note_on_c, 2, 68, 49
4, 121428, Note_on_c, 2, 68, 0
4, 121444, Note_on_c, 2, 69, 41
4, 121778, Note_on_c, 2, 69, 0
4, 121928, Note_on_c, 2, 64, 54
4, 122321, Note_on_c, 2, 65, 61
4, 122324, Note_on_c, 2, 64, 0
4, 122523, Note_on_c, 2, 65, 0
4, 122524, Note_on_c, 2, 72, 79
4, 122557, Note_on_c, 2, 72, 0
4, 122720, Note_on_c, 2, 60, 80
4, 122754, Note_on_c, 2, 60, 0
4, 122795, Note_on_c, 2, 60, 71
4, 122831, Note_on_c, 2, 60, 0
4, 122878, Note_on_c, 2, 60, 74
4, 122910, Note_on_c, 2, 60, 0
4, 122955, Note_on_c, 2, 60, 69
4, 122990, Note_on_c, 2, 60, 0
4, 123049, Note_on_c, 2, 60, 65
4, 124011, Note_on_c, 2, 65, 62
4, 124020, Note_on_c, 2, 60, 0
4, 124056, Note_on_c, 2, 65, 0
4, 124209, Note_on_c, 2, 60, 70
4, 124249, Note_on_c, 2, 60, 0
4, 124289, Note_on_c, 2, 60, 60
4, 124330, Note_on_c, 2, 60, 0
4, 124383, Note_on_c, 2, 60, 69
4, 124421, Note_on_c, 2, 60, 0
4, 124474, Note_on_c, 2, 60, 64
4, 124514, Note_on_c, 2, 60, 0
4, 124593, Note_on_c, 2, 60, 56
4, 125589, Note_on_c, 2, 65, 61
4, 125602, Note_on_c, 2, 60, 0
4, 125780, Note_on_c, 2, 60, 54
4, 125808, Note_on_c, 2, 65, 0
4, 125991, Note_on_c, 2, 62, 70
4, 126025, Note_on_c, 2, 60, 0
4, 126207, Note_on_c, 2, 60, 68
4, 126235, Note_on_c, 2, 62, 0
4, 126392, Note_on_c, 2, 60, 0
4, 126412, Note_on_c, 2, 65, 58
4, 126632, Note_on_c, 2, 60, 45
4, 126674, Note_on_c, 2, 65, 0
4, 127175, Note_on_c, 2, 61, 68
4, 127226, Note_on_c, 2, 60, 0
4, 127390, Note_on_c, 2, 62, 73
4, 127431, Note_on_c, 2, 61, 0
4, 127629, Note_on_c, 2, 63, 76
4, 127656, Note_on_c, 2, 62, 0
4, 127873, Note_on_c, 2, 64, 70
4, 127917, Note_on_c, 2, 63, 0
4, 128467, Note_on_c, 2, 64, 0
4, 128511, Note_on_c, 2, 68, 70
4, 128741, Note_on_c, 2, 69, 61
4, 128766, Note_on_c, 2, 68, 0
4, 128987, Note_on_c, 2, 69, 0
4, 129001, Note_on_c, 2, 60, 80
4, 129243, Note_on_c, 2, 62, 81
4, 129258, Note_on_c, 2, 60, 0
4, 129452, Note_on_c, 2, 63, 80
4, 129507, Note_on_c, 2, 62, 0
4, 129664, Note_on_c, 2, 64, 64
4, 129714, Note_on_c, 2, 63, 0
4, 130042, Note_on_c, 2, 64, 0
4, 130092, Note_on_c, 2, 64, 76
4, 130134, Note_on_c, 2, 64, 0
4, 130193, Note_on_c, 2, 64, 53
4, 130231, Note_on_c, 2, 64, 0
4, 130299, Note_on_c, 2, 64, 59
4, 130337, Note_on_c, 2, 64, 0
4, 130380, Note_on_c, 2, 64, 51
4, 130492, Note_on_c, 2, 64, 0
4, 130523, Note_on_c, 2, 68, 54
4, 130755, Note_on_c, 2, 68, 0
4, 130774, Note_on_c, 2, 64, 45
4, 130982, Note_on_c, 2, 64, 0
4, 131070, Note_on_c, 2, 68, 68
4, 131113, Note_on_c, 2, 68, 0
4, 131196, Note_on_c, 2, 68, 63
4, 131243, Note_on_c, 2, 68, 0
4, 131314, Note_on_c, 2, 68, 65
4, 131364, Note_on_c, 2, 68, 0
4, 131464, Note_on_c, 2, 68, 64
4, 131541, Note_on_c, 2, 68, 0
4, 131684, Note_on_c, 2, 71, 45
4, 134808, Note_on_c, 2, 74, 52
4, 134821, Note_on_c, 2, 71, 0
4, 135048, Note_on_c, 2, 68, 69
4, 135086, Note_on_c, 2, 74, 0
4, 135227, Note_on_c, 2, 68, 0
4, 135248, Note_on_c, 2, 71, 81
4, 135485, Note_on_c, 2, 71, 0
4, 135488, Note_on_c, 2, 64, 74
4, 135702, Note_on_c, 2, 69, 73
4, 135712, Note_on_c, 2, 64, 0
4, 135751, Note_on_c, 2, 69, 0
4, 135905, Note_on_c, 2, 64, 68
4, 135950, Note_on_c, 2, 64, 0
4, 136007, Note_on_c, 2, 64, 63
4, 136050, Note_on_c, 2, 64, 0
4, 136109, Note_on_c, 2, 64, 79
4, 136149, Note_on_c, 2, 64, 0
4, 136203, Note_on_c, 2, 64, 78
4, 136246, Note_on_c, 2, 64, 0
4, 136336, Note_on_c, 2, 64, 57
4, 137333, Note_on_c, 2, 69, 72
4, 137344, Note_on_c, 2, 64, 0
4, 137400, Note_on_c, 2, 69, 0
4, 137545, Note_on_c, 2, 64, 78
4, 137592, Note_on_c, 2, 64, 0
4, 137637, Note_on_c, 2, 64, 64
4, 137684, Note_on_c, 2, 64, 0
4, 137731, Note_on_c, 2, 64, 63
4, 137772, Note_on_c, 2, 64, 0
4, 137818, Note_on_c, 2, 64, 65
4, 137863, Note_on_c, 2, 64, 0
4, 137922, Note_on_c, 2, 64, 60
4, 138914, Note_on_c, 2, 69, 46
4, 138923, Note_on_c, 2, 64, 0
4, 139142, Note_on_c, 2, 64, 63
4, 139178, Note_on_c, 2, 69, 0
4, 139343, Note_on_c, 2, 66, 72
4, 139381, Note_on_c, 2, 64, 0
4, 139504, Note_on_c, 2, 64, 68
4, 139540, Note_on_c, 2, 66, 0
4, 139715, Note_on_c, 2, 69, 81
4, 139740, Note_on_c, 2, 64, 0
4, 139891, Note_on_c, 2, 64, 91
4, 139902, Note_on_c, 2, 69, 0
4, 140077, Note_on_c, 2, 69, 102
4, 140097, Note_on_c, 2, 64, 0
4, 140268, Note_on_c, 2, 73, 104
4, 140281, Note_on_c, 2, 69, 0
4, 140373, Note_on_c, 2, 73, 0
4, 140598, Note_on_c, 2, 73, 109
4, 140919, Note_on_c, 2, 73, 0
4, 140948, Note_on_c, 2, 74, 113
4, 141084, Note_on_c, 2, 74, 0
4, 141282, Note_on_c, 2, 72, 122
4, 141609, Note_on_c, 2, 73, 123
4, 141639, Note_on_c, 2, 72, 0
4, 141778, Note_on_c, 2, 73, 0
4, 142320, Control_c, 2, 11, 100
4, 143179, Note_on_c, 2, 70, 123
4, 143275, Note_on_c, 2, 70, 0
4, 143356, Note_on_c, 2, 71, 127
4, 143408, Note_on_c, 2, 71, 0
4, 143533, Note_on_c, 2, 78, 125
4, 143582, Note_on_c, 2, 78, 0
4, 143714, Note_on_c, 2, 76, 127
4, 143714, Note_on_c, 2, 69, 125
4, 143789, Note_on_c, 2, 69, 0
4, 143790, Note_on_c, 2, 76, 0
4, 144041, Note_on_c, 2, 64, 124
4, 144089, Note_on_c, 2, 74, 111
4, 144094, Note_on_c, 2, 80, 121
4, 144115, Note_on_c, 2, 64, 0
4, 144261, Note_on_c, 2, 74, 0
4, 144287, Note_on_c, 2, 80, 0
4, 144440, Note_on_c, 2, 64, 120
4, 144497, Note_on_c, 2, 81, 120
4, 144498, Note_on_c, 2, 73, 123
4, 144578, Note_on_c, 2, 64, 0
4, 144660, Note_on_c, 2, 73, 0
4, 144690, Note_on_c, 2, 81, 0
4, 144960, Program_c, 2, 45
4, 145029, Note_on_c, 2, 69, 58
4, 145053, Note_on_c, 2, 69, 0
4, 145198, Note_on_c, 2, 69, 65
4, 145229, Note_on_c, 2, 69, 0
4, 145440, Program_c, 2, 49
4, 145664, Note_on_c, 2, 69, 59
4, 146114, Note_on_c, 2, 69, 0
4, 146182, Note_on_c, 2, 69, 68
4, 146820, Note_on_c, 2, 68, 65
4, 146884, Note_on_c, 2, 69, 0
4, 147118, Note_on_c, 2, 69, 59
4, 147162, Note_on_c, 2, 68, 0
4, 147312, Note_on_c, 2, 69, 0
4, 147360, Program_c, 2, 45
4, 147614, Note_on_c, 2, 69, 49
4, 147642, Note_on_c, 2, 69, 0
4, 147782, Note_on_c, 2, 69, 58
4, 147807, Note_on_c, 2, 69, 0
4, 148080, Program_c, 2, 49
4, 148223, Note_on_c, 2, 69, 55
4, 148706, Note_on_c, 2, 69, 0
4, 148742, Note_on_c, 2, 69, 63
4, 149328, Note_on_c, 2, 68, 60
4, 149367, Note_on_c, 2, 69, 0
4, 149667, Note_on_c, 2, 69, 55
4, 149686, Note_on_c, 2, 68, 0
4, 149872, Note_on_c, 2, 69, 0
4, 150734, Note_on_c, 2, 68, 62
4, 150914, Note_on_c, 2, 69, 64
4, 150949, Note_on_c, 2, 68, 0
4, 151075, Note_on_c, 2, 68, 71
4, 151118, Note_on_c, 2, 69, 0
4, 151236, Note_on_c, 2, 69, 68
4, 151260, Note_on_c, 2, 68, 0
4, 151371, Note_on_c, 2, 68, 74
4, 151400, Note_on_c, 2, 69, 0
4, 151537, Note_on_c, 2, 75, 73
4, 151549, Note_on_c, 2, 68, 0
4, 151672, Note_on_c, 2, 75, 0
4, 151680, Program_c, 2, 45
4, 151997, Note_on_c, 2, 66, 66
4, 152026, Note_on_c, 2, 66, 0
4, 152170, Note_on_c, 2, 64, 74
4, 152199, Note_on_c, 2, 64, 0
4, 152640, Program_c, 2, 49
4, 153222, Note_on_c, 2, 71, 68
4, 153384, Note_on_c, 2, 72, 63
4, 153388, Note_on_c, 2, 71, 0
4, 153542, Note_on_c, 2, 71, 63
4, 153575, Note_on_c, 2, 72, 0
4, 153690, Note_on_c, 2, 72, 68
4, 153700, Note_on_c, 2, 71, 0
4, 153821, Note_on_c, 2, 71, 70
4, 153827, Note_on_c, 2, 72, 0
4, 153974, Note_on_c, 2, 71, 0
4, 153985, Note_on_c, 2, 78, 80
4, 154036, Note_on_c, 2, 78, 0
4, 154417, Program_c, 2, 45
4, 154417, Note_on_c, 2, 69, 64
4, 154446, Note_on_c, 2, 69, 0
4, 154612, Note_on_c, 2, 68, 63
4, 154632, Note_on_c, 2, 68, 0
4, 156000, Program_c, 2, 49
4, 156342, Note_on_c, 2, 69, 65
4, 156520, Note_on_c, 2, 66, 69
4, 156552, Note_on_c, 2, 69, 0
4, 156679, Note_on_c, 2, 66, 0
4, 156956, Note_on_c, 2, 69, 58
4, 157120, Note_on_c, 2, 68, 53
4, 157131, Note_on_c, 2, 69, 0
4, 157520, Note_on_c, 2, 71, 58
4, 157596, Note_on_c, 2, 68, 0
4, 158020, Note_on_c, 2, 66, 61
4, 158031, Note_on_c, 2, 71, 0
4, 158189, Note_on_c, 2, 66, 0
4, 158198, Note_on_c, 2, 69, 48
4, 158499, Note_on_c, 2, 68, 54
4, 158561, Note_on_c, 2, 69, 0
4, 158815, Note_on_c, 2, 68, 0
4, 158825, Note_on_c, 2, 71, 54
4, 159299, Note_on_c, 2, 66, 58
4, 159316, Note_on_c, 2, 71, 0
4, 159489, Note_on_c, 2, 69, 51
4, 159505, Note_on_c, 2, 66, 0
4, 159812, Note_on_c, 2, 68, 51
4, 159819, Note_on_c, 2, 69, 0
4, 160423, Note_on_c, 2, 73, 59
4, 160440, Note_on_c, 2, 68, 0
4, 160599, Note_on_c, 2, 68, 63
4, 160634, Note_on_c, 2, 73, 0
4, 160762, Note_on_c, 2, 71, 66
4, 160785, Note_on_c, 2, 68, 0
4, 161060, Note_on_c, 2, 71, 0
4, 161069, Note_on_c, 2, 69, 51
4, 161319, Note_on_c, 2, 69, 0
4, 161398, Note_on_c, 2, 73, 67
4, 161838, Note_on_c, 2, 68, 63
4, 161883, Note_on_c, 2, 73, 0
4, 162033, Note_on_c, 2, 71, 63
4, 162057, Note_on_c, 2, 68, 0
4, 162360, Note_on_c, 2, 69, 62
4, 162369, Note_on_c, 2, 71, 0
4, 162995, Note_on_c, 2, 68, 63
4, 163136, Note_on_c, 2, 69, 0
4, 163620, Note_on_c, 2, 66, 73
4, 163720, Note_on_c, 2, 68, 0
4, 164263, Note_on_c, 2, 64, 78
4, 164343, Note_on_c, 2, 66, 0
4, 164892, Note_on_c, 2, 63, 77
4, 164946, Note_on_c, 2, 64, 0
4, 165069, Note_on_c, 2, 63, 0
4, 165840, Program_c, 2, 45
4, 166058, Note_on_c, 2, 70, 74
4, 166080, Note_on_c, 2, 70, 0
4, 166227, Note_on_c, 2, 71, 80
4, 166256, Note_on_c, 2, 71, 0
4, 167334, Note_on_c, 2, 70, 70
4, 167362, Note_on_c, 2, 70, 0
4, 167510, Note_on_c, 2, 71, 79
4, 167545, Note_on_c, 2, 71, 0
4, 168899, Note_on_c, 2, 70, 53
4, 168920, Note_on_c, 2, 70, 0
4, 169067, Note_on_c, 2, 71, 47
4, 169108, Note_on_c, 2, 71, 0
4, 169233, Note_on_c, 2, 70, 51
4, 169265, Note_on_c, 2, 70, 0
4, 169393, Note_on_c, 2, 71, 48
4, 169431, Note_on_c, 2, 71, 0
4, 169554, Note_on_c, 2, 70, 47
4, 169586, Note_on_c, 2, 70, 0
4, 169723, Note_on_c, 2, 71, 42
4, 169757, Note_on_c, 2, 71, 0
4, 169887, Note_on_c, 2, 70, 42
4, 169922, Note_on_c, 2, 70, 0
4, 170098, Note_on_c, 2, 71, 31
4, 170127, Note_on_c, 2, 71, 0
4, 170400, Program_c, 2, 49
4, 170539, Note_on_c, 2, 59, 68
4, 171078, Note_on_c, 2, 59, 0
4, 171115, Note_on_c, 2, 59, 69
4, 171304, Note_on_c, 2, 60, 67
4, 171351, Note_on_c, 2, 59, 0
4, 171471, Note_on_c, 2, 59, 70
4, 171516, Note_on_c, 2, 60, 0
4, 171661, Note_on_c, 2, 57, 78
4, 171692, Note_on_c, 2, 59, 0
4, 171840, Note_on_c, 2, 60, 84
4, 171882, Note_on_c, 2, 57, 0
4, 172056, Note_on_c, 2, 66, 90
4, 172106, Note_on_c, 2, 60, 0
4, 172531, Note_on_c, 2, 64, 84
4, 172562, Note_on_c, 2, 66, 0
4, 172685, Note_on_c, 2, 57, 78
4, 172705, Note_on_c, 2, 64, 0
4, 172843, Note_on_c, 2, 59, 82
4, 172865, Note_on_c, 2, 57, 0
4, 172910, Note_on_c, 2, 60, 83
4, 172923, Note_on_c, 2, 59, 0
4, 173005, Note_on_c, 2, 59, 91
4, 173014, Note_on_c, 2, 60, 0
4, 173102, Note_on_c, 2, 59, 0
4, 173783, Note_on_c, 2, 59, 98
4, 173959, Note_on_c, 2, 60, 94
4, 173988, Note_on_c, 2, 59, 0
4, 174112, Note_on_c, 2, 59, 91
4, 174146, Note_on_c, 2, 60, 0
4, 174286, Note_on_c, 2, 57, 74
4, 174318, Note_on_c, 2, 59, 0
4, 174461, Note_on_c, 2, 60, 90
4, 174493, Note_on_c, 2, 57, 0
4, 174654, Note_on_c, 2, 66, 93
4, 174691, Note_on_c, 2, 60, 0
4, 175215, Note_on_c, 2, 64, 91
4, 175234, Note_on_c, 2, 66, 0
4, 175381, Note_on_c, 2, 57, 88
4, 175384, Note_on_c, 2, 64, 0
4, 175539, Note_on_c, 2, 59, 83
4, 175560, Note_on_c, 2, 57, 0
4, 175614, Note_on_c, 2, 60, 78
4, 175627, Note_on_c, 2, 59, 0
4, 175710, Note_on_c, 2, 60, 0
4, 175760, Note_on_c, 2, 62, 56
4, 177022, Note_on_c, 2, 62, 0
4, 177108, Note_on_c, 2, 62, 59
4, 177910, Note_on_c, 2, 64, 62
4, 177924, Note_on_c, 2, 62, 0
4, 178567, Note_on_c, 2, 63, 66
4, 178603, Note_on_c, 2, 64, 0
4, 178722, Note_on_c, 2, 63, 0
4, 178894, Note_on_c, 2, 72, 45
4, 179186, Note_on_c, 2, 66, 51
4, 179204, Note_on_c, 2, 72, 0
4, 179480, Note_on_c, 2, 66, 0
4, 179492, Note_on_c, 2, 69, 47
4, 179658, Note_on_c, 2, 70, 47
4, 179667, Note_on_c, 2, 69, 0
4, 179846, Note_on_c, 2, 70, 0
4, 179866, Note_on_c, 2, 71, 37
4, 180059, Note_on_c, 2, 71, 0
4, 180181, Note_on_c, 2, 72, 32
4, 180468, Note_on_c, 2, 66, 31
4, 180506, Note_on_c, 2, 72, 0
4, 180839, Note_on_c, 2, 69, 27
4, 180859, Note_on_c, 2, 66, 0
4, 182431, Note_on_c, 2, 69, 0
4, 184472, Note_on_c, 2, 70, 25
4, 186085, Note_on_c, 2, 67, 20
4, 186162, Note_on_c, 2, 70, 0
4, 186307, Note_on_c, 2, 67, 0
4, 187108, Note_on_c, 2, 68, 28
4, 187687, Note_on_c, 2, 67, 25
4, 187755, Note_on_c, 2, 68, 0
4, 188636, Note_on_c, 2, 68, 33
4, 188658, Note_on_c, 2, 67, 0
4, 189069, Note_on_c, 2, 66, 30
4, 189151, Note_on_c, 2, 68, 0
4, 190857, Note_on_c, 2, 66, 0
4, 191316, Note_on_c, 2, 68, 54
4, 191985, Note_on_c, 2, 69, 50
4, 192029, Note_on_c, 2, 68, 0
4, 192273, Note_on_c, 2, 68, 48
4, 192316, Note_on_c, 2, 69, 0
4, 192608, Note_on_c, 2, 64, 53
4, 192625, Note_on_c, 2, 68, 0
4, 192902, Note_on_c, 2, 64, 0
4, 193440, Program_c, 2, 45
4, 193536, Note_on_c, 2, 75, 51
4, 193562, Note_on_c, 2, 75, 0
4, 193700, Note_on_c, 2, 75, 45
4, 193738, Note_on_c, 2, 75, 0
4, 193902, Note_on_c, 2, 76, 49
4, 193932, Note_on_c, 2, 76, 0
4, 194160, Program_c, 2, 49
4, 194230, Note_on_c, 2, 68, 49
4, 194498, Note_on_c, 2, 71, 61
4, 194520, Note_on_c, 2, 68, 0
4, 194846, Note_on_c, 2, 69, 42
4, 194883, Note_on_c, 2, 71, 0
4, 195122, Note_on_c, 2, 69, 0
4, 195144, Note_on_c, 2, 65, 50
4, 195470, Note_on_c, 2, 66, 41
4, 195540, Note_on_c, 2, 65, 0
4, 195692, Note_on_c, 2, 66, 0
4, 195753, Note_on_c, 2, 68, 50
4, 195900, Note_on_c, 2, 66, 59
4, 195933, Note_on_c, 2, 68, 0
4, 196074, Note_on_c, 2, 64, 53
4, 196105, Note_on_c, 2, 66, 0
4, 196286, Note_on_c, 2, 64, 0
4, 196367, Note_on_c, 2, 73, 68
4, 196645, Note_on_c, 2, 66, 57
4, 196658, Note_on_c, 2, 73, 0
4, 196864, Note_on_c, 2, 66, 0
4, 196970, Note_on_c, 2, 73, 50
4, 197266, Note_on_c, 2, 66, 61
4, 197287, Note_on_c, 2, 73, 0
4, 197423, Note_on_c, 2, 68, 65
4, 197466, Note_on_c, 2, 66, 0
4, 197593, Note_on_c, 2, 70, 52
4, 197605, Note_on_c, 2, 68, 0
4, 197878, Note_on_c, 2, 63, 56
4, 197930, Note_on_c, 2, 70, 0
4, 198167, Note_on_c, 2, 63, 0
4, 198203, Note_on_c, 2, 67, 64
4, 198544, Note_on_c, 2, 66, 69
4, 198563, Note_on_c, 2, 67, 0
4, 198944, Note_on_c, 2, 68, 52
4, 198972, Note_on_c, 2, 66, 0
4, 199122, Note_on_c, 2, 68, 0
4, 199138, Note_on_c, 2, 70, 78
4, 199295, Note_on_c, 2, 70, 0
4, 199349, Note_on_c, 2, 71, 56
4, 199475, Note_on_c, 2, 71, 0
4, 199592, Note_on_c, 2, 59, 54
4, 199774, Note_on_c, 2, 59, 0
4, 200799, Note_on_c, 2, 71, 85
4, 200907, Note_on_c, 2, 71, 0
4, 200959, Note_on_c, 2, 73, 98
4, 201002, Note_on_c, 2, 73, 0
4, 201111, Note_on_c, 2, 71, 105
4, 201146, Note_on_c, 2, 71, 0
4, 201272, Note_on_c, 2, 64, 109
4, 201306, Note_on_c, 2, 64, 0
4, 201408, Control_c, 2, 11, 100
4, 201408, Note_on_c, 2, 64, 121
4, 201447, Note_on_c, 2, 64, 0
4, 201599, Note_on_c, 2, 76, 127
4, 201878, Note_on_c, 2, 76, 0
4, 201914, Note_on_c, 2, 75, 127
4, 201950, Note_on_c, 2, 75, 0
4, 202078, Note_on_c, 2, 80, 125
4, 202115, Note_on_c, 2, 80, 0
4, 202255, Note_on_c, 2, 71, 88
4, 202318, Note_on_c, 2, 73, 97
4, 202339, Note_on_c, 2, 71, 0
4, 202415, Note_on_c, 2, 71, 106
4, 202420, Note_on_c, 2, 73, 0
4, 202475, Note_on_c, 2, 71, 0
4, 202476, Note_on_c, 2, 73, 110
4, 202527, Note_on_c, 2, 73, 0
4, 202557, Note_on_c, 2, 75, 107
4, 202597, Note_on_c, 2, 75, 0
4, 202738, Note_on_c, 2, 71, 101
4, 202771, Note_on_c, 2, 71, 0
4, 202917, Note_on_c, 2, 81, 125
4, 203232, Note_on_c, 2, 81, 0
4, 203239, Note_on_c, 2, 80, 120
4, 203289, Note_on_c, 2, 80, 0
4, 203423, Note_on_c, 2, 85, 123
4, 203469, Note_on_c, 2, 85, 0
4, 203597, Note_on_c, 2, 76, 118
4, 203661, Note_on_c, 2, 78, 113
4, 203687, Note_on_c, 2, 76, 0
4, 203759, Note_on_c, 2, 76, 94
4, 203766, Note_on_c, 2, 78, 0
4, 203818, Note_on_c, 2, 78, 107
4, 203822, Note_on_c, 2, 76, 0
4, 203871, Note_on_c, 2, 78, 0
4, 203912, Note_on_c, 2, 80, 116
4, 203954, Note_on_c, 2, 80, 0
4, 204069, Note_on_c, 2, 76, 121
4, 204109, Note_on_c, 2, 76, 0
4, 204246, Note_on_c, 2, 85, 123
4, 204323, Note_on_c, 2, 87, 115
4, 204344, Note_on_c, 2, 85, 0
4, 204405, Note_on_c, 2, 87, 0
4, 204406, Note_on_c, 2, 85, 116
4, 204469, Note_on_c, 2, 87, 114
4, 204481, Note_on_c, 2, 85, 0
4, 204516, Note_on_c, 2, 87, 0
4, 204566, Note_on_c, 2, 88, 125
4, 204619, Note_on_c, 2, 88, 0
4, 204742, Note_on_c, 2, 76, 120
4, 204779, Note_on_c, 2, 76, 0
4, 204911, Note_on_c, 2, 85, 120
4, 204992, Note_on_c, 2, 87, 113
4, 205009, Note_on_c, 2, 85, 0
4, 205062, Note_on_c, 2, 87, 0
4, 205091, Note_on_c, 2, 85, 106
4, 205146, Note_on_c, 2, 87, 110
4, 205155, Note_on_c, 2, 85, 0
4, 205191, Note_on_c, 2, 87, 0
4, 205254, Note_on_c, 2, 88, 125
4, 205304, Note_on_c, 2, 88, 0
4, 205429, Note_on_c, 2, 76, 120
4, 205460, Note_on_c, 2, 76, 0
4, 205616, Note_on_c, 2, 80, 121
4, 205659, Note_on_c, 2, 80, 0
4, 205785, Note_on_c, 2, 64, 127
4, 205881, Note_on_c, 2, 64, 0
4, 205945, Note_on_c, 2, 83, 126
4, 206012, Note_on_c, 2, 83, 0
4, 206119, Note_on_c, 2, 63, 125
4, 206157, Note_on_c, 2, 63, 0
4, 206283, Note_on_c, 2, 87, 124
4, 206325, Note_on_c, 2, 87, 0
4, 206454, Note_on_c, 2, 79, 124
4, 206489, Note_on_c, 2, 79, 0
4, 206623, Note_on_c, 2, 80, 121
4, 206657, Note_on_c, 2, 80, 0
4, 206809, Note_on_c, 2, 68, 126
4, 206840, Note_on_c, 2, 68, 0
4, 206973, Note_on_c, 2, 80, 125
4, 207014, Note_on_c, 2, 80, 0
4, 207133, Note_on_c, 2, 80, 120
4, 207174, Note_on_c, 2, 80, 0
4, 207311, Note_on_c, 2, 80, 124
4, 207704, Note_on_c, 2, 80, 0
4, 207723, Note_on_c, 2, 68, 108
4, 207792, Note_on_c, 2, 70, 97
4, 207802, Note_on_c, 2, 68, 0
4, 207863, Note_on_c, 2, 70, 0
4, 207864, Note_on_c, 2, 68, 92
4, 207929, Note_on_c, 2, 72, 90
4, 207935, Note_on_c, 2, 68, 0
4, 207998, Note_on_c, 2, 72, 0
4, 208019, Note_on_c, 2, 73, 104
4, 208094, Note_on_c, 2, 75, 97
4, 208103, Note_on_c, 2, 73, 0
4, 208143, Note_on_c, 2, 75, 0
4, 208183, Note_on_c, 2, 76, 104
4, 208221, Note_on_c, 2, 76, 0
4, 208350, Note_on_c, 2, 80, 125
4, 208399, Note_on_c, 2, 80, 0
4, 208525, Note_on_c, 2, 80, 124
4, 208574, Note_on_c, 2, 80, 0
4, 208702, Note_on_c, 2, 80, 124
4, 209053, Note_on_c, 2, 80, 0
4, 209061, Note_on_c, 2, 68, 109
4, 209133, Note_on_c, 2, 69, 100
4, 209146, Note_on_c, 2, 68, 0
4, 209211, Note_on_c, 2, 68, 106
4, 209230, Note_on_c, 2, 69, 0
4, 209293, Note_on_c, 2, 72, 99
4, 209302, Note_on_c, 2, 68, 0
4, 209371, Note_on_c, 2, 72, 0
4, 209394, Note_on_c, 2, 73, 96
4, 209463, Note_on_c, 2, 75, 88
4, 209470, Note_on_c, 2, 73, 0
4, 209524, Note_on_c, 2, 75, 0
4, 209566, Note_on_c, 2, 76, 84
4, 209597, Note_on_c, 2, 76, 0
4, 209747, Note_on_c, 2, 83, 127
4, 209785, Note_on_c, 2, 83, 0
4, 209919, Note_on_c, 2, 83, 126
4, 209955, Note_on_c, 2, 83, 0
4, 210096, Note_on_c, 2, 83, 127
4, 210459, Note_on_c, 2, 71, 84
4, 210527, Note_on_c, 2, 83, 0
4, 210539, Note_on_c, 2, 73, 82
4, 210540, Note_on_c, 2, 71, 0
4, 210611, Note_on_c, 2, 71, 76
4, 210614, Note_on_c, 2, 73, 0
4, 210671, Note_on_c, 2, 71, 0
4, 210681, Note_on_c, 2, 75, 94
4, 210748, Note_on_c, 2, 75, 0
4, 210759, Note_on_c, 2, 76, 85
4, 210817, Note_on_c, 2, 76, 0
4, 210827, Note_on_c, 2, 78, 98
4, 210878, Note_on_c, 2, 78, 0
4, 210903, Note_on_c, 2, 80, 108
4, 210941, Note_on_c, 2, 80, 0
4, 211068, Note_on_c, 2, 71, 99
4, 211137, Note_on_c, 2, 73, 106
4, 211143, Note_on_c, 2, 71, 0
4, 211206, Note_on_c, 2, 71, 98
4, 211215, Note_on_c, 2, 73, 0
4, 211264, Note_on_c, 2, 71, 0
4, 211272, Note_on_c, 2, 75, 109
4, 211338, Note_on_c, 2, 75, 0
4, 211353, Note_on_c, 2, 76, 102
4, 211415, Note_on_c, 2, 76, 0
4, 211422, Note_on_c, 2, 78, 112
4, 211480, Note_on_c, 2, 78, 0
4, 211507, Note_on_c, 2, 80, 116
4, 211545, Note_on_c, 2, 80, 0
4, 211676, Note_on_c, 2, 71, 112
4, 211736, Note_on_c, 2, 73, 113
4, 211759, Note_on_c, 2, 71, 0
4, 211809, Note_on_c, 2, 71, 99
4, 211830, Note_on_c, 2, 73, 0
4, 211877, Note_on_c, 2, 71, 0
4, 211883, Note_on_c, 2, 75, 110
4, 211941, Note_on_c, 2, 75, 0
4, 211960, Note_on_c, 2, 76, 100
4, 212019, Note_on_c, 2, 76, 0
4, 212032, Note_on_c, 2, 78, 115
4, 212100, Note_on_c, 2, 78, 0
4, 212112, Note_on_c, 2, 80, 116
4, 212157, Note_on_c, 2, 80, 0
4, 212285, Note_on_c, 2, 78, 104
4, 212321, Note_on_c, 2, 78, 0
4, 212359, Note_on_c, 2, 85, 106
4, 212425, Note_on_c, 2, 83, 101
4, 212453, Note_on_c, 2, 85, 0
4, 212491, Note_on_c, 2, 85, 106
4, 212529, Note_on_c, 2, 83, 0
4, 212571, Note_on_c, 2, 83, 100
4, 212594, Note_on_c, 2, 85, 0
4, 212990, Note_on_c, 2, 85, 110
4, 213014, Note_on_c, 2, 83, 0
4, 213064, Note_on_c, 2, 83, 106
4, 213083, Note_on_c, 2, 85, 0
4, 213130, Note_on_c, 2, 85, 119
4, 213154, Note_on_c, 2, 83, 0
4, 213211, Note_on_c, 2, 83, 111
4, 213227, Note_on_c, 2, 85, 0
4, 213252, Note_on_c, 2, 83, 0
4, 213286, Note_on_c, 2, 83, 97
4, 213330, Note_on_c, 2, 83, 0
4, 213356, Note_on_c, 2, 85, 113
4, 213392, Note_on_c, 2, 85, 0
4, 213419, Note_on_c, 2, 85, 94
4, 213460, Note_on_c, 2, 85, 0
4, 213526, Note_on_c, 2, 87, 116
4, 213571, Note_on_c, 2, 87, 0
4, 213854, Note_on_c, 2, 78, 125
4, 213860, Note_on_c, 2, 87, 125
4, 213888, Note_on_c, 2, 78, 0
4, 213893, Note_on_c, 2, 87, 0
4, 214165, Note_on_c, 2, 78, 123
4, 214188, Note_on_c, 2, 90, 118
4, 214324, Note_on_c, 2, 78, 0
4, 214381, Note_on_c, 2, 90, 0
4, 215279, Note_on_c, 2, 59, 36
4, 216124, Note_on_c, 2, 59, 0
4, 219824, Program_c, 2, 45
4, 219824, Note_on_c, 2, 69, 57
4, 219847, Note_on_c, 2, 69, 0
4, 219988, Note_on_c, 2, 69, 68
4, 220015, Note_on_c, 2, 69, 0
4, 220164, Note_on_c, 2, 68, 81
4, 220183, Note_on_c, 2, 68, 0
4, 220800, Program_c, 2, 49
4, 220802, Note_on_c, 2, 69, 64
4, 221095, Note_on_c, 2, 68, 75
4, 221148, Note_on_c, 2, 69, 0
4, 221389, Note_on_c, 2, 68, 0
4, 221389, Note_on_c, 2, 64, 63
4, 221651, Note_on_c, 2, 64, 0
4, 222023, Note_on_c, 2, 75, 80
4, 222309, Note_on_c, 2, 76, 86
4, 222340, Note_on_c, 2, 75, 0
4, 222367, Note_on_c, 2, 76, 0
4, 222486, Note_on_c, 2, 76, 124
4, 222529, Note_on_c, 2, 76, 0
4, 222640, Note_on_c, 2, 81, 125
4, 222693, Note_on_c, 2, 81, 0
4, 222801, Note_on_c, 2, 80, 124
4, 222864, Note_on_c, 2, 80, 0
4, 223256, Note_on_c, 2, 85, 127
4, 223295, Note_on_c, 2, 85, 0
4, 223428, Note_on_c, 2, 83, 125
4, 223493, Note_on_c, 2, 83, 0
4, 223861, Note_on_c, 2, 81, 127
4, 223893, Note_on_c, 2, 81, 0
4, 224034, Note_on_c, 2, 80, 126
4, 224089, Note_on_c, 2, 80, 0
4, 224462, Note_on_c, 2, 85, 127
4, 224507, Note_on_c, 2, 85, 0
4, 224625, Note_on_c, 2, 83, 117
4, 224695, Note_on_c, 2, 83, 0
4, 226286, Note_on_c, 2, 66, 48
4, 226451, Note_on_c, 2, 66, 0
4, 226466, Note_on_c, 2, 64, 40
4, 226688, Note_on_c, 2, 64, 0
4, 226953, Note_on_c, 2, 67, 57
4, 227111, Note_on_c, 2, 68, 63
4, 227126, Note_on_c, 2, 67, 0
4, 227393, Note_on_c, 2, 68, 0
4, 227598, Note_on_c, 2, 80, 112
4, 227927, Note_on_c, 2, 80, 0
4, 227928, Note_on_c, 2, 73, 114
4, 227980, Note_on_c, 2, 73, 0
4, 228100, Note_on_c, 2, 78, 113
4, 228509, Note_on_c, 2, 78, 0
4, 228575, Note_on_c, 2, 72, 117
4, 228620, Note_on_c, 2, 72, 0
4, 228742, Note_on_c, 2, 76, 111
4, 229048, Note_on_c, 2, 75, 110
4, 229071, Note_on_c, 2, 76, 0
4, 229094, Note_on_c, 2, 75, 0
4, 229228, Note_on_c, 2, 81, 103
4, 229230, Note_on_c, 2, 69, 98
4, 229380, Note_on_c, 2, 75, 109
4, 229384, Note_on_c, 2, 81, 0
4, 229407, Note_on_c, 2, 69, 0
4, 229499, Note_on_c, 2, 75, 0
4, 229557, Note_on_c, 2, 76, 100
4, 229715, Note_on_c, 2, 75, 91
4, 229743, Note_on_c, 2, 76, 0
4, 229797, Note_on_c, 2, 75, 0
4, 229898, Note_on_c, 2, 81, 101
4, 229901, Note_on_c, 2, 69, 92
4, 230041, Note_on_c, 2, 81, 0
4, 230080, Note_on_c, 2, 75, 96
4, 230115, Note_on_c, 2, 69, 0
4, 230244, Note_on_c, 2, 73, 98
4, 230270, Note_on_c, 2, 75, 0
4, 230392, Note_on_c, 2, 73, 0
4, 230419, Note_on_c, 2, 72, 104
4, 230558, Note_on_c, 2, 72, 0
4, 230880, Control_c, 2, 7, 100
4, 230911, Note_on_c, 2, 56, 61
4, 231077, Note_on_c, 2, 61, 68
4, 231180, Note_on_c, 2, 56, 0
4, 231396, Note_on_c, 2, 59, 60
4, 231446, Note_on_c, 2, 61, 0
4, 231558, Note_on_c, 2, 57, 57
4, 231604, Note_on_c, 2, 59, 0
4, 231713, Note_on_c, 2, 56, 64
4, 231779, Note_on_c, 2, 57, 0
4, 232314, Note_on_c, 2, 61, 68
4, 232374, Note_on_c, 2, 56, 0
4, 232635, Note_on_c, 2, 59, 68
4, 232681, Note_on_c, 2, 61, 0
4, 232810, Note_on_c, 2, 57, 52
4, 232838, Note_on_c, 2, 59, 0
4, 232965, Note_on_c, 2, 56, 57
4, 232997, Note_on_c, 2, 57, 0
4, 233138, Note_on_c, 2, 56, 0
4, 233287, Note_on_c, 2, 78, 43
4, 233594, Note_on_c, 2, 76, 50
4, 233605, Note_on_c, 2, 78, 0
4, 233899, Note_on_c, 2, 75, 60
4, 233974, Note_on_c, 2, 76, 0
4, 234207, Note_on_c, 2, 73, 57
4, 234272, Note_on_c, 2, 75, 0
4, 234514, Note_on_c, 2, 71, 53
4, 234579, Note_on_c, 2, 73, 0
4, 234817, Note_on_c, 2, 69, 44
4, 234840, Note_on_c, 2, 71, 0
4, 235469, Note_on_c, 2, 68, 51
4, 235516, Note_on_c, 2, 69, 0
4, 235689, Note_on_c, 2, 68, 0
4, 235776, Note_on_c, 2, 66, 56
4, 236081, Note_on_c, 2, 64, 54
4, 236118, Note_on_c, 2, 66, 0
4, 236400, Note_on_c, 2, 63, 58
4, 236550, Note_on_c, 2, 64, 0
4, 236698, Note_on_c, 2, 61, 63
4, 236786, Note_on_c, 2, 63, 0
4, 237008, Note_on_c, 2, 59, 43
4, 237061, Note_on_c, 2, 61, 0
4, 237360, Note_on_c, 2, 57, 36
4, 237394, Note_on_c, 2, 59, 0
4, 237942, Note_on_c, 2, 56, 41
4, 238021, Note_on_c, 2, 57, 0
4, 238099, Note_on_c, 2, 56, 0
4, 238112, Note_on_c, 2, 61, 72
4, 238576, Note_on_c, 2, 60, 60
4, 238621, Note_on_c, 2, 61, 0
4, 238738, Note_on_c, 2, 60, 0
4, 238770, Note_on_c, 2, 61, 85
4, 239212, Note_on_c, 2, 60, 70
4, 239252, Note_on_c, 2, 61, 0
4, 239339, Note_on_c, 2, 60, 0
4, 239385, Note_on_c, 2, 64, 87
4, 240565, Note_on_c, 2, 63, 79
4, 240737, Note_on_c, 2, 64, 0
4, 241304, Note_on_c, 2, 72, 51
4, 241369, Note_on_c, 2, 63, 0
4, 241960, Note_on_c, 2, 72, 0
4, 241997, Note_on_c, 2, 72, 73
4, 243207, Note_on_c, 2, 71, 49
4, 243301, Note_on_c, 2, 72, 0
4, 245805, Note_on_c, 2, 70, 62
4, 245857, Note_on_c, 2, 71, 0
4, 247200, Note_on_c, 2, 70, 0
4, 247290, Note_on_c, 2, 70, 67
4, 248593, Note_on_c, 2, 69, 57
4, 248665, Note_on_c, 2, 70, 0
4, 251356, Note_on_c, 2, 68, 53
4, 251396, Note_on_c, 2, 69, 0
4, 251446, Note_on_c, 2, 68, 0
4, 251548, Note_on_c, 2, 76, 45
4, 251898, Note_on_c, 2, 75, 63
4, 251918, Note_on_c, 2, 76, 0
4, 252049, Note_on_c, 2, 75, 0
4, 252073, Note_on_c, 2, 74, 52
4, 252263, Note_on_c, 2, 72, 60
4, 252285, Note_on_c, 2, 74, 0
4, 252398, Note_on_c, 2, 71, 55
4, 252407, Note_on_c, 2, 72, 0
4, 252464, Note_on_c, 2, 69, 49
4, 252482, Note_on_c, 2, 71, 0
4, 252811, Note_on_c, 2, 71, 41
4, 252856, Note_on_c, 2, 69, 0
4, 252879, Note_on_c, 2, 71, 0
4, 252996, Note_on_c, 2, 71, 68
4, 253186, Note_on_c, 2, 76, 80
4, 253253, Note_on_c, 2, 71, 0
4, 253358, Note_on_c, 2, 69, 70
4, 253429, Note_on_c, 2, 76, 0
4, 253544, Note_on_c, 2, 74, 76
4, 253552, Note_on_c, 2, 69, 0
4, 253708, Note_on_c, 2, 73, 78
4, 253741, Note_on_c, 2, 74, 0
4, 253880, Note_on_c, 2, 71, 67
4, 253916, Note_on_c, 2, 73, 0
4, 254248, Note_on_c, 2, 69, 55
4, 254289, Note_on_c, 2, 71, 0
4, 254330, Note_on_c, 2, 69, 0
4, 254440, Note_on_c, 2, 69, 46
4, 254810, Note_on_c, 2, 68, 52
4, 254856, Note_on_c, 2, 69, 0
4, 254972, Note_on_c, 2, 68, 0
4, 254999, Note_on_c, 2, 67, 51
4, 255181, Note_on_c, 2, 65, 46
4, 255205, Note_on_c, 2, 67, 0
4, 255305, Note_on_c, 2, 65, 0
4, 255310, Note_on_c, 2, 64, 52
4, 255361, Note_on_c, 2, 62, 58
4, 255375, Note_on_c, 2, 64, 0
4, 255694, Note_on_c, 2, 64, 44
4, 255700, Note_on_c, 2, 62, 0
4, 255798, Note_on_c, 2, 64, 0
4, 255888, Note_on_c, 2, 64, 75
4, 256104, Note_on_c, 2, 69, 68
4, 256196, Note_on_c, 2, 64, 0
4, 256262, Note_on_c, 2, 62, 75
4, 256280, Note_on_c, 2, 69, 0
4, 256415, Note_on_c, 2, 62, 0
4, 256443, Note_on_c, 2, 67, 79
4, 256616, Note_on_c, 2, 66, 81
4, 256656, Note_on_c, 2, 67, 0
4, 256772, Note_on_c, 2, 66, 0
4, 256787, Note_on_c, 2, 71, 79
4, 256968, Note_on_c, 2, 70, 75
4, 256997, Note_on_c, 2, 71, 0
4, 257022, Note_on_c, 2, 70, 0
4, 257158, Note_on_c, 2, 71, 72
4, 259615, Note_on_c, 2, 70, 76
4, 259664, Note_on_c, 2, 71, 0
4, 260382, Note_on_c, 2, 69, 60
4, 260431, Note_on_c, 2, 70, 0
4, 261572, Note_on_c, 2, 66, 85
4, 261625, Note_on_c, 2, 69, 0
4, 261926, Note_on_c, 2, 71, 82
4, 261965, Note_on_c, 2, 66, 0
4, 263341, Note_on_c, 2, 74, 80
4, 263461, Note_on_c, 2, 71, 0
4, 263702, Note_on_c, 2, 74, 0
4, 264308, Note_on_c, 2, 68, 65
4, 264354, Note_on_c, 2, 68, 0
4, 264468, Note_on_c, 2, 68, 73
4, 264521, Note_on_c, 2, 68, 0
4, 264633, Note_on_c, 2, 68, 49
4, 264862, Note_on_c, 2, 68, 0
4, 264925, Note_on_c, 2, 68, 80
4, 264979, Note_on_c, 2, 68, 0
4, 265086, Note_on_c, 2, 68, 72
4, 265155, Note_on_c, 2, 68, 0
4, 265238, Note_on_c, 2, 68, 67
4, 265456, Note_on_c, 2, 68, 0
4, 265573, Note_on_c, 2, 68, 74
4, 265637, Note_on_c, 2, 68, 0
4, 265788, Note_on_c, 2, 68, 61
4, 265917, Note_on_c, 2, 68, 0
4, 265980, Note_on_c, 2, 66, 54
4, 266830, Note_on_c, 2, 70, 59
4, 266916, Note_on_c, 2, 66, 0
4, 267157, Note_on_c, 2, 72, 68
4, 267319, Note_on_c, 2, 70, 0
4, 267475, Note_on_c, 2, 73, 50
4, 267534, Note_on_c, 2, 72, 0
4, 267790, Note_on_c, 2, 69, 54
4, 267849, Note_on_c, 2, 73, 0
4, 268116, Note_on_c, 2, 70, 50
4, 268198, Note_on_c, 2, 69, 0
4, 268471, Note_on_c, 2, 71, 55
4, 268516, Note_on_c, 2, 70, 0
4, 268918, Note_on_c, 2, 70, 52
4, 268966, Note_on_c, 2, 71, 0
4, 269906, Note_on_c, 2, 72, 68
4, 270115, Note_on_c, 2, 70, 0
4, 270226, Note_on_c, 2, 73, 77
4, 270269, Note_on_c, 2, 72, 0
4, 270520, Note_on_c, 2, 69, 66
4, 270548, Note_on_c, 2, 73, 0
4, 270859, Note_on_c, 2, 70, 65
4, 270920, Note_on_c, 2, 69, 0
4, 271166, Note_on_c, 2, 70, 0
4, 271189, Note_on_c, 2, 71, 51
4, 271594, Note_on_c, 2, 70, 41
4, 271686, Note_on_c, 2, 71, 0
4, 272621, Note_on_c, 2, 72, 51
4, 272675, Note_on_c, 2, 70, 0
4, 272925, Note_on_c, 2, 73, 62
4, 273003, Note_on_c, 2, 72, 0
4, 273220, Note_on_c, 2, 71, 57
4, 273281, Note_on_c, 2, 73, 0
4, 273560, Note_on_c, 2, 72, 54
4, 273629, Note_on_c, 2, 71, 0
4, 273871, Note_on_c, 2, 73, 72
4, 273935, Note_on_c, 2, 72, 0
4, 274189, Note_on_c, 2, 74, 70
4, 274243, Note_on_c, 2, 73, 0
4, 274505, Note_on_c, 2, 75, 81
4, 274539, Note_on_c, 2, 74, 0
4, 274795, Note_on_c, 2, 76, 71
4, 274835, Note_on_c, 2, 75, 0
4, 275103, Note_on_c, 2, 77, 75
4, 275156, Note_on_c, 2, 76, 0
4, 275406, Note_on_c, 2, 78, 75
4, 275460, Note_on_c, 2, 77, 0
4, 275658, Note_on_c, 2, 78, 0
4, 275713, Note_on_c, 2, 78, 78
4, 276286, Note_on_c, 2, 78, 0
4, 276319, Note_on_c, 2, 78, 74
4, 276567, Note_on_c, 2, 78, 0
4, 276599, Note_on_c, 2, 78, 69
4, 276977, Note_on_c, 2, 78, 0
4, 277920, Control_c, 2, 7, 120
4, 278111, Note_on_c, 2, 66, 32
4, 279840, Note_on_c, 2, 66, 0
4, 279840, Control_c, 2, 11, 80
4, 279855, Note_on_c, 2, 66, 54
4, 280040, Note_on_c, 2, 71, 66
4, 280068, Note_on_c, 2, 66, 0
4, 280074, Note_on_c, 2, 71, 0
4, 280244, Note_on_c, 2, 66, 73
4, 280279, Note_on_c, 2, 66, 0
4, 280331, Note_on_c, 2, 66, 69
4, 280363, Note_on_c, 2, 66, 0
4, 280428, Note_on_c, 2, 66, 67
4, 280454, Note_on_c, 2, 66, 0
4, 280505, Note_on_c, 2, 66, 73
4, 280536, Note_on_c, 2, 66, 0
4, 280618, Note_on_c, 2, 66, 50
4, 281498, Note_on_c, 2, 71, 56
4, 281510, Note_on_c, 2, 66, 0
4, 281531, Note_on_c, 2, 71, 0
4, 281689, Note_on_c, 2, 66, 72
4, 281720, Note_on_c, 2, 66, 0
4, 281764, Note_on_c, 2, 66, 70
4, 281808, Note_on_c, 2, 66, 0
4, 281851, Note_on_c, 2, 66, 62
4, 281887, Note_on_c, 2, 66, 0
4, 281930, Note_on_c, 2, 66, 63
4, 281977, Note_on_c, 2, 66, 0
4, 282037, Note_on_c, 2, 66, 48
4, 282934, Note_on_c, 2, 71, 74
4, 282951, Note_on_c, 2, 66, 0
4, 282962, Note_on_c, 2, 71, 0
4, 283130, Note_on_c, 2, 66, 71
4, 283164, Note_on_c, 2, 66, 0
4, 283209, Note_on_c, 2, 66, 60
4, 283244, Note_on_c, 2, 66, 0
4, 283294, Note_on_c, 2, 66, 61
4, 283330, Note_on_c, 2, 66, 0
4, 283369, Note_on_c, 2, 66, 64
4, 283418, Note_on_c, 2, 66, 0
4, 283484, Note_on_c, 2, 66, 48
4, 284378, Note_on_c, 2, 71, 52
4, 284386, Note_on_c, 2, 66, 0
4, 284534, Note_on_c, 2, 71, 0
4, 284575, Note_on_c, 2, 66, 65
4, 284755, Note_on_c, 2, 68, 69
4, 284777, Note_on_c, 2, 66, 0
4, 284951, Note_on_c, 2, 66, 57
4, 284960, Note_on_c, 2, 68, 0
4, 285157, Note_on_c, 2, 71, 52
4, 285193, Note_on_c, 2, 66, 0
4, 285360, Note_on_c, 2, 66, 50
4, 285363, Note_on_c, 2, 71, 0
4, 286037, Note_on_c, 2, 75, 43
4, 286042, Note_on_c, 2, 66, 0
4, 286241, Note_on_c, 2, 75, 0
4, 286244, Note_on_c, 2, 73, 51
4, 286485, Note_on_c, 2, 71, 53
4, 286496, Note_on_c, 2, 73, 0
4, 286652, Note_on_c, 2, 70, 53
4, 286665, Note_on_c, 2, 71, 0
4, 286852, Note_on_c, 2, 69, 73
4, 286872, Note_on_c, 2, 70, 0
4, 287040, Note_on_c, 2, 68, 82
4, 287061, Note_on_c, 2, 69, 0
4, 287226, Note_on_c, 2, 72, 76
4, 287251, Note_on_c, 2, 68, 0
4, 287413, Note_on_c, 2, 73, 71
4, 287432, Note_on_c, 2, 72, 0
4, 287594, Note_on_c, 2, 73, 0
4, 287605, Note_on_c, 2, 80, 88
4, 287639, Note_on_c, 2, 80, 0
4, 287788, Note_on_c, 2, 68, 87
4, 287831, Note_on_c, 2, 68, 0
4, 287865, Note_on_c, 2, 68, 74
4, 287904, Note_on_c, 2, 68, 0
4, 287962, Note_on_c, 2, 68, 70
4, 287989, Note_on_c, 2, 68, 0
4, 288038, Note_on_c, 2, 68, 66
4, 288068, Note_on_c, 2, 68, 0
4, 288140, Note_on_c, 2, 68, 53
4, 289137, Note_on_c, 2, 73, 76
4, 289150, Note_on_c, 2, 68, 0
4, 289173, Note_on_c, 2, 73, 0
4, 289334, Note_on_c, 2, 68, 78
4, 289365, Note_on_c, 2, 68, 0
4, 289421, Note_on_c, 2, 68, 69
4, 289451, Note_on_c, 2, 68, 0
4, 289513, Note_on_c, 2, 68, 64
4, 289545, Note_on_c, 2, 68, 0
4, 289592, Note_on_c, 2, 68, 59
4, 289633, Note_on_c, 2, 68, 0
4, 289701, Note_on_c, 2, 68, 57
4, 290597, Note_on_c, 2, 73, 59
4, 290637, Note_on_c, 2, 68, 0
4, 290797, Note_on_c, 2, 68, 70
4, 290845, Note_on_c, 2, 73, 0
4, 290966, Note_on_c, 2, 69, 66
4, 290988, Note_on_c, 2, 68, 0
4, 291147, Note_on_c, 2, 68, 79
4, 291164, Note_on_c, 2, 69, 0
4, 291330, Note_on_c, 2, 73, 62
4, 291337, Note_on_c, 2, 68, 0
4, 291549, Note_on_c, 2, 68, 61
4, 291603, Note_on_c, 2, 73, 0
4, 291745, Note_on_c, 2, 67, 68
4, 291837, Note_on_c, 2, 68, 0
4, 291927, Note_on_c, 2, 66, 66
4, 291951, Note_on_c, 2, 67, 0
4, 292153, Note_on_c, 2, 76, 48
4, 292162, Note_on_c, 2, 66, 0
4, 292349, Note_on_c, 2, 76, 0
4, 292376, Note_on_c, 2, 70, 49
4, 292788, Note_on_c, 2, 70, 0
4, 292804, Note_on_c, 2, 71, 41
4, 293138, Note_on_c, 2, 71, 0
4, 293288, Note_on_c, 2, 66, 54
4, 293681, Note_on_c, 2, 67, 61
4, 293684, Note_on_c, 2, 66, 0
4, 293883, Note_on_c, 2, 67, 0
4, 293884, Note_on_c, 2, 74, 79
4, 293917, Note_on_c, 2, 74, 0
4, 294080, Note_on_c, 2, 62, 80
4, 294114, Note_on_c, 2, 62, 0
4, 294155, Note_on_c, 2, 62, 71
4, 294191, Note_on_c, 2, 62, 0
4, 294238, Note_on_c, 2, 62, 74
4, 294270, Note_on_c, 2, 62, 0
4, 294315, Note_on_c, 2, 62, 69
4, 294350, Note_on_c, 2, 62, 0
4, 294409, Note_on_c, 2, 62, 65
4, 295371, Note_on_c, 2, 67, 62
4, 295380, Note_on_c, 2, 62, 0
4, 295416, Note_on_c, 2, 67, 0
4, 295569, Note_on_c, 2, 62, 70
4, 295609, Note_on_c, 2, 62, 0
4, 295649, Note_on_c, 2, 62, 68
4, 295690, Note_on_c, 2, 62, 0
4, 295743, Note_on_c, 2, 62, 66
4, 295781, Note_on_c, 2, 62, 0
4, 295834, Note_on_c, 2, 62, 64
4, 295874, Note_on_c, 2, 62, 0
4, 295953, Note_on_c, 2, 62, 56
4, 296641, Note_on_c, 2, 62, 0
4, 296647, Note_on_c, 2, 63, 57
4, 296874, Note_on_c, 2, 71, 55
4, 296921, Note_on_c, 2, 63, 0
4, 297130, Note_on_c, 2, 71, 0
4, 297142, Note_on_c, 2, 63, 71
4, 297193, Note_on_c, 2, 63, 0
4, 297241, Note_on_c, 2, 63, 69
4, 297287, Note_on_c, 2, 63, 0
4, 297334, Note_on_c, 2, 63, 69
4, 297376, Note_on_c, 2, 63, 0
4, 297434, Note_on_c, 2, 63, 65
4, 297494, Note_on_c, 2, 63, 0
4, 297555, Note_on_c, 2, 64, 49
4, 299476, Note_on_c, 2, 63, 53
4, 299520, Note_on_c, 2, 64, 0
4, 300039, Note_on_c, 2, 63, 0
4, 300108, Note_on_c, 2, 63, 71
4, 300160, Note_on_c, 2, 63, 0
4, 300232, Note_on_c, 2, 63, 66
4, 300294, Note_on_c, 2, 63, 0
4, 300366, Note_on_c, 2, 63, 60
4, 300419, Note_on_c, 2, 63, 0
4, 300493, Note_on_c, 2, 63, 50
4, 300649, Note_on_c, 2, 63, 0
4, 300686, Note_on_c, 2, 64, 39
4, 301734, Note_on_c, 2, 63, 48
4, 301785, Note_on_c, 2, 64, 0
4, 302104, Note_on_c, 2, 63, 0
4, 302213, Note_on_c, 2, 63, 47
4, 302251, Note_on_c, 2, 63, 0
4, 302311, Note_on_c, 2, 63, 52
4, 302351, Note_on_c, 2, 63, 0
4, 302410, Note_on_c, 2, 63, 54
4, 302453, Note_on_c, 2, 63, 0
4, 302509, Note_on_c, 2, 63, 56
4, 302565, Note_on_c, 2, 63, 0
4, 302638, Note_on_c, 2, 66, 58
4, 302844, Note_on_c, 2, 63, 69
4, 302863, Note_on_c, 2, 66, 0
4, 303055, Note_on_c, 2, 63, 0
4, 303089, Note_on_c, 2, 66, 67
4, 303144, Note_on_c, 2, 66, 0
4, 303261, Note_on_c, 2, 66, 63
4, 303336, Note_on_c, 2, 66, 0
4, 303467, Note_on_c, 2, 66, 59
4, 303552, Note_on_c, 2, 66, 0
4, 303712, Note_on_c, 2, 66, 42
4, 303922, Note_on_c, 2, 66, 0
4, 304103, Note_on_c, 2, 75, 34
4, 307212, Note_on_c, 2, 75, 0
4, 307236, Note_on_c, 2, 66, 43
4, 307557, Note_on_c, 2, 69, 46
4, 307586, Note_on_c, 2, 66, 0
4, 307779, Note_on_c, 2, 63, 53
4, 307786, Note_on_c, 2, 69, 0
4, 307994, Note_on_c, 2, 66, 62
4, 308032, Note_on_c, 2, 63, 0
4, 308224, Note_on_c, 2, 66, 0
4, 308224, Note_on_c, 2, 59, 75
4, 308430, Note_on_c, 2, 64, 60
4, 308435, Note_on_c, 2, 59, 0
4, 308631, Note_on_c, 2, 64, 0
4, 308639, Note_on_c, 2, 59, 71
4, 308690, Note_on_c, 2, 59, 0
4, 308729, Note_on_c, 2, 59, 67
4, 308776, Note_on_c, 2, 59, 0
4, 308825, Note_on_c, 2, 59, 61
4, 308863, Note_on_c, 2, 59, 0
4, 308904, Note_on_c, 2, 59, 54
4, 308945, Note_on_c, 2, 59, 0
4, 309047, Note_on_c, 2, 59, 58
4, 310068, Note_on_c, 2, 64, 65
4, 310091, Note_on_c, 2, 59, 0
4, 310290, Note_on_c, 2, 59, 67
4, 310297, Note_on_c, 2, 64, 0
4, 310348, Note_on_c, 2, 59, 0
4, 310383, Note_on_c, 2, 59, 61
4, 310429, Note_on_c, 2, 59, 0
4, 310470, Note_on_c, 2, 59, 58
4, 310512, Note_on_c, 2, 59, 0
4, 310554, Note_on_c, 2, 59, 56
4, 310603, Note_on_c, 2, 59, 0
4, 310658, Note_on_c, 2, 59, 55
4, 311602, Note_on_c, 2, 64, 46
4, 311607, Note_on_c, 2, 59, 0
4, 311824, Note_on_c, 2, 59, 61
4, 311863, Note_on_c, 2, 64, 0
4, 312018, Note_on_c, 2, 61, 70
4, 312068, Note_on_c, 2, 59, 0
4, 312185, Note_on_c, 2, 59, 68
4, 312230, Note_on_c, 2, 61, 0
4, 312377, Note_on_c, 2, 64, 76
4, 312419, Note_on_c, 2, 59, 0
4, 312569, Note_on_c, 2, 59, 88
4, 312589, Note_on_c, 2, 64, 0
4, 312759, Note_on_c, 2, 64, 94
4, 312788, Note_on_c, 2, 59, 0
4, 312932, Note_on_c, 2, 68, 103
4, 312957, Note_on_c, 2, 64, 0
4, 313056, Note_on_c, 2, 68, 0
4, 313261, Note_on_c, 2, 68, 80
4, 313606, Note_on_c, 2, 68, 0
4, 313611, Note_on_c, 2, 69, 86
4, 313880, Note_on_c, 2, 69, 0
4, 313942, Note_on_c, 2, 67, 98
4, 314293, Note_on_c, 2, 68, 105
4, 314321, Note_on_c, 2, 67, 0
4, 314467, Note_on_c, 2, 68, 0
4, 315360, Control_c, 2, 11, 100
4, 315785, Note_on_c, 2, 77, 107
4, 315877, Note_on_c, 2, 77, 0
4, 315961, Note_on_c, 2, 78, 100
4, 316009, Note_on_c, 2, 78, 0
4, 316132, Note_on_c, 2, 85, 114
4, 316188, Note_on_c, 2, 85, 0
4, 316320, Note_on_c, 2, 83, 125
4, 316405, Note_on_c, 2, 83, 0
4, 316747, Note_on_c, 2, 87, 120
4, 317188, Note_on_c, 2, 87, 0
4, 317205, Note_on_c, 2, 88, 122
4, 317360, Note_on_c, 2, 88, 0
4, 318000, Program_c, 2, 45
4, 318018, Note_on_c, 2, 71, 56
4, 318055, Note_on_c, 2, 71, 0
4, 318635, Note_on_c, 2, 71, 60
4, 318678, Note_on_c, 2, 71, 0
4, 318953, Note_on_c, 2, 71, 58
4, 318995, Note_on_c, 2, 71, 0
4, 319267, Note_on_c, 2, 71, 55
4, 319325, Note_on_c, 2, 71, 0
4, 322080, Program_c, 2, 49
4, 322428, Note_on_c, 2, 68, 108
4, 322461, Note_on_c, 2, 83, 109
4, 322464, Note_on_c, 2, 76, 112
4, 322520, Note_on_c, 2, 68, 0
4, 322539, Note_on_c, 2, 76, 0
4, 322555, Note_on_c, 2, 83, 0
4, 322800, Program_c, 2, 45
4, 323068, Note_on_c, 2, 71, 41
4, 323095, Note_on_c, 2, 71, 0
4, 323681, Note_on_c, 2, 71, 51
4, 323710, Note_on_c, 2, 71, 0
4, 323963, Note_on_c, 2, 71, 68
4, 324008, Note_on_c, 2, 71, 0
4, 324275, Note_on_c, 2, 71, 67
4, 324311, Note_on_c, 2, 71, 0
4, 324720, Program_c, 2, 49
4, 327550, Note_on_c, 2, 68, 43
4, 328175, Note_on_c, 2, 69, 42
4, 328221, Note_on_c, 2, 68, 0
4, 329539, Note_on_c, 2, 71, 50
4, 329560, Note_on_c, 2, 69, 0
4, 330856, Note_on_c, 2, 73, 56
4, 330888, Note_on_c, 2, 71, 0
4, 331551, Note_on_c, 2, 76, 73
4, 331649, Note_on_c, 2, 73, 0
4, 331739, Note_on_c, 2, 76, 0
4, 332296, Note_on_c, 2, 71, 47
4, 332682, Note_on_c, 2, 75, 52
4, 332758, Note_on_c, 2, 71, 0
4, 333190, Note_on_c, 2, 76, 49
4, 333256, Note_on_c, 2, 75, 0
4, 333544, Note_on_c, 2, 75, 57
4, 333583, Note_on_c, 2, 76, 0
4, 333853, Note_on_c, 2, 74, 51
4, 333877, Note_on_c, 2, 75, 0
4, 334168, Note_on_c, 2, 73, 45
4, 334221, Note_on_c, 2, 74, 0
4, 334502, Note_on_c, 2, 72, 45
4, 334541, Note_on_c, 2, 73, 0
4, 334806, Note_on_c, 2, 70, 51
4, 334828, Note_on_c, 2, 72, 0
4, 335127, Note_on_c, 2, 71, 40
4, 335157, Note_on_c, 2, 70, 0
4, 335774, Note_on_c, 2, 76, 36
4, 335784, Note_on_c, 2, 71, 0
4, 336064, Note_on_c, 2, 75, 45
4, 336118, Note_on_c, 2, 76, 0
4, 336407, Note_on_c, 2, 74, 48
4, 336443, Note_on_c, 2, 75, 0
4, 336664, Note_on_c, 2, 73, 55
4, 336708, Note_on_c, 2, 74, 0
4, 337005, Note_on_c, 2, 72, 51
4, 337041, Note_on_c, 2, 73, 0
4, 337314, Note_on_c, 2, 70, 48
4, 337347, Note_on_c, 2, 72, 0
4, 337589, Note_on_c, 2, 71, 36
4, 337609, Note_on_c, 2, 70, 0
4, 337906, Note_on_c, 2, 71, 0
4, 337917, Note_on_c, 2, 63, 58
4, 338204, Note_on_c, 2, 63, 0
4, 338220, Note_on_c, 2, 64, 48
4, 338317, Note_on_c, 2, 64, 0
4, 338513, Note_on_c, 2, 66, 55
4, 340561, Note_on_c, 2, 68, 48
4, 340599, Note_on_c, 2, 66, 0
4, 340722, Note_on_c, 2, 68, 0
4, 340906, Note_on_c, 2, 66, 32
4, 342980, Note_on_c, 2, 64, 47
4, 343048, Note_on_c, 2, 66, 0
4, 343576, Note_on_c, 2, 68, 50
4, 343667, Note_on_c, 2, 64, 0
4, 343909, Note_on_c, 2, 71, 58
4, 343975, Note_on_c, 2, 68, 0
4, 344252, Note_on_c, 2, 69, 49
4, 344314, Note_on_c, 2, 71, 0
4, 345439, Note_on_c, 2, 68, 43
4, 345494, Note_on_c, 2, 69, 0
4, 346027, Note_on_c, 2, 71, 51
4, 346173, Note_on_c, 2, 68, 0
4, 346656, Note_on_c, 2, 69, 42
4, 346697, Note_on_c, 2, 71, 0
4, 347524, Note_on_c, 2, 69, 0
4, 347867, Program_c, 2, 45
4, 347867, Note_on_c, 2, 68, 64
4, 347900, Note_on_c, 2, 68, 0
4, 348031, Note_on_c, 2, 70, 58
4, 348059, Note_on_c, 2, 70, 0
4, 348178, Note_on_c, 2, 71, 53
4, 348225, Note_on_c, 2, 71, 0
4, 348328, Note_on_c, 2, 69, 45
4, 348367, Note_on_c, 2, 69, 0
4, 348470, Note_on_c, 2, 68, 65
4, 348521, Note_on_c, 2, 68, 0
4, 348617, Note_on_c, 2, 70, 65
4, 348655, Note_on_c, 2, 70, 0
4, 348761, Note_on_c, 2, 71, 61
4, 348812, Note_on_c, 2, 71, 0
4, 348929, Note_on_c, 2, 69, 55
4, 348971, Note_on_c, 2, 69, 0
4, 349055, Note_on_c, 2, 68, 65
4, 349092, Note_on_c, 2, 68, 0
4, 349205, Note_on_c, 2, 68, 60
4, 349232, Note_on_c, 2, 68, 0
4, 349461, Note_on_c, 2, 76, 63
4, 349498, Note_on_c, 2, 76, 0
4, 349771, Note_on_c, 2, 66, 35
4, 349797, Note_on_c, 2, 66, 0
4, 350049, Note_on_c, 2, 71, 45
4, 350075, Note_on_c, 2, 71, 0
4, 350198, Note_on_c, 2, 68, 66
4, 350236, Note_on_c, 2, 68, 0
4, 350367, Note_on_c, 2, 70, 52
4, 350388, Note_on_c, 2, 70, 0
4, 350509, Note_on_c, 2, 71, 49
4, 350538, Note_on_c, 2, 71, 0
4, 350664, Note_on_c, 2, 69, 39
4, 350691, Note_on_c, 2, 69, 0
4, 350795, Note_on_c, 2, 68, 71
4, 350832, Note_on_c, 2, 68, 0
4, 350940, Note_on_c, 2, 70, 65
4, 350974, Note_on_c, 2, 70, 0
4, 351091, Note_on_c, 2, 71, 52
4, 351131, Note_on_c, 2, 71, 0
4, 351252, Note_on_c, 2, 69, 41
4, 351281, Note_on_c, 2, 69, 0
4, 351396, Note_on_c, 2, 68, 61
4, 351436, Note_on_c, 2, 68, 0
4, 351548, Note_on_c, 2, 68, 73
4, 351578, Note_on_c, 2, 68, 0
4, 351810, Note_on_c, 2, 76, 80
4, 351846, Note_on_c, 2, 76, 0
4, 352109, Note_on_c, 2, 76, 63
4, 352128, Note_on_c, 2, 76, 0
4, 352388, Note_on_c, 2, 75, 64
4, 352406, Note_on_c, 2, 75, 0
4, 352542, Note_on_c, 2, 76, 73
4, 352579, Note_on_c, 2, 76, 0
4, 352800, Program_c, 2, 49
4, 352891, Note_on_c, 2, 64, 74
4, 353221, Note_on_c, 2, 64, 0
4, 353248, Note_on_c, 2, 64, 77
4, 353518, Note_on_c, 2, 64, 0
4, 353545, Note_on_c, 2, 64, 71
4, 353582, Note_on_c, 2, 64, 0
4, 353699, Note_on_c, 2, 64, 74
4, 353739, Note_on_c, 2, 64, 0
4, 353864, Note_on_c, 2, 68, 70
4, 354459, Note_on_c, 2, 68, 0
4, 354482, Note_on_c, 2, 68, 70
4, 354779, Note_on_c, 2, 68, 0
4, 354819, Note_on_c, 2, 68, 79
4, 354864, Note_on_c, 2, 68, 0
4, 354966, Note_on_c, 2, 68, 79
4, 355012, Note_on_c, 2, 68, 0
4, 355140, Note_on_c, 2, 71, 82
4, 355200, Control_c, 2, 11, 100
4, 355205, Control_c, 2, 11, 95
4, 355210, Control_c, 2, 11, 91
4, 355215, Control_c, 2, 11, 87
4, 355220, Control_c, 2, 11, 84
4, 355225, Control_c, 2, 11, 81
4, 355230, Control_c, 2, 11, 78
4, 355235, Control_c, 2, 11, 76
4, 355240, Control_c, 2, 11, 73
4, 355245, Control_c, 2, 11, 70
4, 355250, Control_c, 2, 11, 68
4, 355255, Control_c, 2, 11, 66
4, 355260, Control_c, 2, 11, 64
4, 355265, Control_c, 2, 11, 62
4, 355270, Control_c, 2, 11, 60
4, 355275, Control_c, 2, 11, 58
4, 355280, Control_c, 2, 11, 57
4, 355285, Control_c, 2, 11, 55
4, 355290, Control_c, 2, 11, 54
4, 355295, Control_c, 2, 11, 52
4, 355300, Control_c, 2, 11, 51
4, 355305, Control_c, 2, 11, 50
4, 355310, Control_c, 2, 11, 49
4, 355315, Control_c, 2, 11, 48
4, 355320, Control_c, 2, 11, 46
4, 355330, Control_c, 2, 11, 45
4, 355335, Control_c, 2, 11, 44
4, 355340, Control_c, 2, 11, 43
4, 355345, Control_c, 2, 11, 42
4, 355355, Control_c, 2, 11, 41
4, 355360, Control_c, 2, 11, 40
4, 355370, Control_c, 2, 11, 39
4, 355380, Control_c, 2, 11, 38
4, 355385, Control_c, 2, 11, 37
4, 355400, Control_c, 2, 11, 36
4, 355415, Control_c, 2, 11, 35
4, 355425, Control_c, 2, 11, 34
4, 355445, Control_c, 2, 11, 33
4, 355475, Control_c, 2, 11, 32
4, 355500, Control_c, 2, 11, 31
4, 355560, Control_c, 2, 11, 30
4, 355575, Control_c, 2, 11, 31
4, 355590, Control_c, 2, 11, 32
4, 355600, Control_c, 2, 11, 33
4, 355615, Control_c, 2, 11, 34
4, 355630, Control_c, 2, 11, 35
4, 355640, Control_c, 2, 11, 36
4, 355655, Control_c, 2, 11, 37
4, 355665, Control_c, 2, 11, 38
4, 355680, Control_c, 2, 11, 39
4, 355695, Control_c, 2, 11, 40
4, 355705, Control_c, 2, 11, 41
4, 355720, Control_c, 2, 11, 42
4, 355735, Control_c, 2, 11, 43
4, 355745, Control_c, 2, 11, 44
4, 355760, Control_c, 2, 11, 45
4, 355770, Control_c, 2, 11, 46
4, 355785, Control_c, 2, 11, 47
4, 355800, Control_c, 2, 11, 48
4, 355810, Control_c, 2, 11, 49
4, 355825, Control_c, 2, 11, 50
4, 355840, Control_c, 2, 11, 51
4, 355850, Control_c, 2, 11, 52
4, 355865, Control_c, 2, 11, 53
4, 355875, Control_c, 2, 11, 54
4, 355890, Control_c, 2, 11, 55
4, 355905, Control_c, 2, 11, 56
4, 355915, Control_c, 2, 11, 57
4, 355930, Control_c, 2, 11, 58
4, 355945, Control_c, 2, 11, 59
4, 355955, Control_c, 2, 11, 60
4, 355970, Control_c, 2, 11, 61
4, 355980, Control_c, 2, 11, 62
4, 355995, Control_c, 2, 11, 63
4, 356010, Control_c, 2, 11, 64
4, 356020, Control_c, 2, 11, 65
4, 356035, Control_c, 2, 11, 66
4, 356050, Control_c, 2, 11, 67
4, 356060, Control_c, 2, 11, 68
4, 356075, Control_c, 2, 11, 69
4, 356085, Control_c, 2, 11, 70
4, 356100, Control_c, 2, 11, 71
4, 356115, Control_c, 2, 11, 72
4, 356125, Control_c, 2, 11, 73
4, 356140, Control_c, 2, 11, 74
4, 356155, Control_c, 2, 11, 75
4, 356165, Control_c, 2, 11, 76
4, 356180, Control_c, 2, 11, 77
4, 356190, Control_c, 2, 11, 78
4, 356205, Control_c, 2, 11, 79
4, 356220, Control_c, 2, 11, 80
4, 356230, Control_c, 2, 11, 81
4, 356245, Control_c, 2, 11, 82
4, 356260, Control_c, 2, 11, 83
4, 356270, Control_c, 2, 11, 84
4, 356285, Control_c, 2, 11, 85
4, 356295, Control_c, 2, 11, 86
4, 356310, Control_c, 2, 11, 87
4, 356325, Control_c, 2, 11, 88
4, 356335, Control_c, 2, 11, 89
4, 356350, Control_c, 2, 11, 90
4, 356360, Control_c, 2, 11, 91
4, 356375, Control_c, 2, 11, 92
4, 356390, Control_c, 2, 11, 93
4, 356400, Control_c, 2, 11, 94
4, 356415, Control_c, 2, 11, 95
4, 356430, Control_c, 2, 11, 96
4, 356440, Control_c, 2, 11, 97
4, 356455, Control_c, 2, 11, 98
4, 356465, Control_c, 2, 11, 99
4, 356479, Control_c, 2, 11, 100
4, 356479, Note_on_c, 2, 76, 100
4, 356501, Note_on_c, 2, 71, 0
4, 356804, Note_on_c, 2, 76, 0
4, 357115, Note_on_c, 2, 76, 127
4, 357273, Note_on_c, 2, 76, 0
4, 357276, Note_on_c, 2, 64, 98
4, 357300, Note_on_c, 2, 71, 122
4, 357301, Note_on_c, 2, 76, 121
4, 357612, Note_on_c, 2, 64, 0
4, 357615, Note_on_c, 2, 71, 0
4, 357619, Note_on_c, 2, 76, 0
4, 357749, Note_on_c, 2, 64, 118
4, 357832, Note_on_c, 2, 71, 124
4, 357843, Note_on_c, 2, 80, 116
4, 358177, Note_on_c, 2, 80, 0
4, 358207, Note_on_c, 2, 71, 0
4, 358212, Note_on_c, 2, 64, 0
4, 358384, Note_on_c, 2, 64, 126
4, 358504, Note_on_c, 2, 64, 0
4, 358564, Note_on_c, 2, 64, 120
4, 360593, Note_on_c, 2, 64, 0
4, 361440, End_track
5, 0, Start_track
5, 0, Title_t, "Violini II"
5, 0, MIDI_port, 0
5, 100, Control_c, 3, 0, 0
5, 120, Control_c, 3, 32, 0
5, 140, Program_c, 3, 49
5, 160, Control_c, 3, 10, 49
5, 180, Control_c, 3, 7, 100
5, 200, Control_c, 3, 11, 100
5, 220, Control_c, 3, 1, 19
5, 240, Control_c, 3, 91, 60
5, 260, Control_c, 3, 93, 38
5, 280, Control_c, 3, 101, 0
5, 300, Control_c, 3, 100, 0
5, 320, Control_c, 3, 6, 12
5, 340, Pitch_bend_c, 3, 8208
5, 360, Control_c, 3, 99, 1
5, 380, Control_c, 3, 98, 32
5, 400, Control_c, 3, 6, 62
5, 420, Control_c, 3, 98, 33
5, 440, Control_c, 3, 6, 60
5, 460, Control_c, 3, 98, 99
5, 480, Control_c, 3, 6, 57
5, 500, Control_c, 3, 98, 100
5, 520, Control_c, 3, 6, 64
5, 540, Control_c, 3, 98, 102
5, 560, Control_c, 3, 6, 66
5, 580, Control_c, 3, 99, 1
5, 600, Control_c, 3, 98, 8
5, 620, Control_c, 3, 6, 90
5, 640, Control_c, 3, 98, 9
5, 660, Control_c, 3, 6, 50
5, 680, Control_c, 3, 98, 10
5, 705, Control_c, 3, 6, 70
5, 1531, Note_on_c, 3, 61, 125
5, 1578, Note_on_c, 3, 61, 0
5, 1658, Note_on_c, 3, 63, 115
5, 1719, Note_on_c, 3, 63, 0
5, 1812, Note_on_c, 3, 56, 118
5, 1862, Note_on_c, 3, 56, 0
5, 3873, Note_on_c, 3, 61, 126
5, 3920, Note_on_c, 3, 61, 0
5, 4018, Note_on_c, 3, 63, 124
5, 4072, Note_on_c, 3, 63, 0
5, 4180, Note_on_c, 3, 56, 126
5, 4226, Note_on_c, 3, 56, 0
5, 6271, Note_on_c, 3, 61, 123
5, 6304, Note_on_c, 3, 61, 0
5, 6414, Note_on_c, 3, 63, 127
5, 6447, Note_on_c, 3, 63, 0
5, 7155, Note_on_c, 3, 68, 120
5, 7215, Note_on_c, 3, 68, 0
5, 7458, Note_on_c, 3, 61, 124
5, 7489, Note_on_c, 3, 61, 0
5, 7586, Note_on_c, 3, 63, 121
5, 7619, Note_on_c, 3, 63, 0
5, 8314, Note_on_c, 3, 61, 115
5, 8396, Note_on_c, 3, 61, 0
5, 8603, Note_on_c, 3, 57, 103
5, 8634, Note_on_c, 3, 57, 0
5, 8743, Note_on_c, 3, 59, 103
5, 8780, Note_on_c, 3, 59, 0
5, 15840, Control_c, 3, 11, 80
5, 16271, Note_on_c, 3, 59, 76
5, 17523, Note_on_c, 3, 56, 65
5, 17567, Note_on_c, 3, 59, 0
5, 17818, Note_on_c, 3, 56, 0
5, 18240, Program_c, 3, 45
5, 18413, Note_on_c, 3, 63, 71
5, 18443, Note_on_c, 3, 63, 0
5, 18576, Note_on_c, 3, 59, 59
5, 18615, Note_on_c, 3, 59, 0
5, 18742, Note_on_c, 3, 64, 63
5, 18781, Note_on_c, 3, 64, 0
5, 19440, Program_c, 3, 49
5, 19681, Note_on_c, 3, 64, 73
5, 19959, Note_on_c, 3, 62, 83
5, 20014, Note_on_c, 3, 64, 0
5, 20256, Note_on_c, 3, 63, 85
5, 20315, Note_on_c, 3, 62, 0
5, 20537, Note_on_c, 3, 64, 73
5, 20570, Note_on_c, 3, 63, 0
5, 20858, Note_on_c, 3, 63, 72
5, 20938, Note_on_c, 3, 64, 0
5, 21330, Note_on_c, 3, 63, 0
5, 21342, Note_on_c, 3, 59, 47
5, 22511, Note_on_c, 3, 57, 53
5, 22552, Note_on_c, 3, 59, 0
5, 22827, Note_on_c, 3, 56, 54
5, 22918, Note_on_c, 3, 57, 0
5, 23153, Note_on_c, 3, 56, 0
5, 23520, Program_c, 3, 45
5, 23618, Note_on_c, 3, 65, 71
5, 23647, Note_on_c, 3, 65, 0
5, 23797, Note_on_c, 3, 66, 57
5, 23823, Note_on_c, 3, 66, 0
5, 23943, Note_on_c, 3, 57, 59
5, 24000, Note_on_c, 3, 57, 0
5, 24128, Note_on_c, 3, 56, 74
5, 24177, Note_on_c, 3, 56, 0
5, 24480, Program_c, 3, 49
5, 25503, Note_on_c, 3, 59, 76
5, 26114, Note_on_c, 3, 63, 65
5, 26235, Note_on_c, 3, 59, 0
5, 26388, Note_on_c, 3, 63, 0
5, 26413, Note_on_c, 3, 64, 69
5, 26776, Note_on_c, 3, 63, 67
5, 26829, Note_on_c, 3, 64, 0
5, 27047, Note_on_c, 3, 64, 58
5, 27091, Note_on_c, 3, 63, 0
5, 27348, Note_on_c, 3, 63, 61
5, 27442, Note_on_c, 3, 64, 0
5, 27643, Note_on_c, 3, 64, 60
5, 27687, Note_on_c, 3, 63, 0
5, 27936, Note_on_c, 3, 63, 50
5, 28001, Note_on_c, 3, 64, 0
5, 28223, Note_on_c, 3, 64, 42
5, 28275, Note_on_c, 3, 63, 0
5, 28500, Note_on_c, 3, 63, 24
5, 28610, Note_on_c, 3, 64, 0
5, 28841, Note_on_c, 3, 63, 0
5, 31577, Note_on_c, 3, 59, 17
5, 35289, Note_on_c, 3, 59, 0
5, 35347, Note_on_c, 3, 59, 56
5, 35660, Note_on_c, 3, 56, 61
5, 35714, Note_on_c, 3, 59, 0
5, 35963, Note_on_c, 3, 56, 0
5, 36480, Program_c, 3, 45
5, 36583, Note_on_c, 3, 69, 68
5, 36627, Note_on_c, 3, 69, 0
5, 36758, Note_on_c, 3, 69, 58
5, 36798, Note_on_c, 3, 69, 0
5, 36975, Note_on_c, 3, 68, 68
5, 37016, Note_on_c, 3, 68, 0
5, 37440, Program_c, 3, 49
5, 37570, Note_on_c, 3, 65, 72
5, 37892, Note_on_c, 3, 66, 81
5, 37947, Note_on_c, 3, 65, 0
5, 38180, Note_on_c, 3, 59, 85
5, 38193, Note_on_c, 3, 66, 0
5, 38506, Note_on_c, 3, 57, 85
5, 38538, Note_on_c, 3, 59, 0
5, 38781, Note_on_c, 3, 64, 84
5, 38830, Note_on_c, 3, 57, 0
5, 38960, Note_on_c, 3, 62, 87
5, 38995, Note_on_c, 3, 64, 0
5, 39132, Note_on_c, 3, 61, 87
5, 39166, Note_on_c, 3, 62, 0
5, 39348, Note_on_c, 3, 61, 0
5, 39407, Note_on_c, 3, 64, 92
5, 39695, Note_on_c, 3, 63, 81
5, 39717, Note_on_c, 3, 64, 0
5, 40007, Note_on_c, 3, 63, 0
5, 40025, Note_on_c, 3, 64, 74
5, 40288, Note_on_c, 3, 63, 73
5, 40334, Note_on_c, 3, 64, 0
5, 40585, Note_on_c, 3, 63, 0
5, 40632, Note_on_c, 3, 64, 76
5, 40926, Note_on_c, 3, 59, 68
5, 40943, Note_on_c, 3, 64, 0
5, 41238, Note_on_c, 3, 59, 0
5, 41239, Note_on_c, 3, 58, 63
5, 41576, Note_on_c, 3, 59, 66
5, 41613, Note_on_c, 3, 58, 0
5, 41953, Note_on_c, 3, 64, 54
5, 41962, Note_on_c, 3, 59, 0
5, 42384, Note_on_c, 3, 64, 0
5, 42396, Note_on_c, 3, 63, 76
5, 42586, Note_on_c, 3, 63, 0
5, 42597, Note_on_c, 3, 59, 55
5, 42787, Note_on_c, 3, 59, 0
5, 43532, Note_on_c, 3, 63, 94
5, 43673, Note_on_c, 3, 63, 0
5, 43700, Note_on_c, 3, 64, 104
5, 44124, Note_on_c, 3, 64, 0
5, 44124, Note_on_c, 3, 63, 123
5, 44169, Note_on_c, 3, 63, 0
5, 44294, Note_on_c, 3, 64, 124
5, 44372, Note_on_c, 3, 64, 0
5, 44453, Control_c, 3, 11, 100
5, 44453, Note_on_c, 3, 64, 112
5, 44497, Note_on_c, 3, 64, 0
5, 44634, Note_on_c, 3, 68, 119
5, 44757, Note_on_c, 3, 68, 0
5, 44791, Note_on_c, 3, 70, 120
5, 44841, Note_on_c, 3, 70, 0
5, 44968, Note_on_c, 3, 71, 122
5, 45181, Note_on_c, 3, 71, 0
5, 45296, Note_on_c, 3, 63, 116
5, 45337, Note_on_c, 3, 63, 0
5, 45452, Note_on_c, 3, 64, 108
5, 45493, Note_on_c, 3, 64, 0
5, 45616, Note_on_c, 3, 63, 114
5, 45654, Note_on_c, 3, 63, 0
5, 45780, Note_on_c, 3, 71, 109
5, 45816, Note_on_c, 3, 71, 0
5, 45939, Note_on_c, 3, 73, 113
5, 45973, Note_on_c, 3, 73, 0
5, 46109, Note_on_c, 3, 75, 116
5, 46147, Note_on_c, 3, 75, 0
5, 46289, Note_on_c, 3, 76, 117
5, 46594, Note_on_c, 3, 76, 0
5, 46626, Note_on_c, 3, 68, 113
5, 46662, Note_on_c, 3, 68, 0
5, 46791, Note_on_c, 3, 69, 101
5, 46840, Note_on_c, 3, 69, 0
5, 46965, Note_on_c, 3, 68, 113
5, 47002, Note_on_c, 3, 68, 0
5, 47124, Note_on_c, 3, 64, 99
5, 47159, Note_on_c, 3, 64, 0
5, 47305, Note_on_c, 3, 73, 110
5, 47352, Note_on_c, 3, 73, 0
5, 47382, Note_on_c, 3, 75, 100
5, 47445, Note_on_c, 3, 75, 0
5, 47456, Note_on_c, 3, 73, 101
5, 47496, Note_on_c, 3, 73, 0
5, 47529, Note_on_c, 3, 75, 114
5, 47576, Note_on_c, 3, 75, 0
5, 47625, Note_on_c, 3, 76, 121
5, 47665, Note_on_c, 3, 76, 0
5, 47804, Note_on_c, 3, 64, 117
5, 47837, Note_on_c, 3, 64, 0
5, 47968, Note_on_c, 3, 73, 121
5, 48039, Note_on_c, 3, 75, 114
5, 48057, Note_on_c, 3, 73, 0
5, 48126, Note_on_c, 3, 73, 119
5, 48153, Note_on_c, 3, 75, 0
5, 48200, Note_on_c, 3, 75, 115
5, 48224, Note_on_c, 3, 73, 0
5, 48272, Note_on_c, 3, 75, 0
5, 48304, Note_on_c, 3, 76, 121
5, 48345, Note_on_c, 3, 76, 0
5, 48493, Note_on_c, 3, 64, 90
5, 48524, Note_on_c, 3, 64, 0
5, 48647, Note_on_c, 3, 71, 120
5, 48655, Note_on_c, 3, 76, 120
5, 48679, Note_on_c, 3, 71, 0
5, 48704, Note_on_c, 3, 76, 0
5, 48838, Note_on_c, 3, 64, 117
5, 48877, Note_on_c, 3, 64, 0
5, 49006, Note_on_c, 3, 71, 124
5, 49037, Note_on_c, 3, 71, 0
5, 49172, Note_on_c, 3, 63, 121
5, 49204, Note_on_c, 3, 63, 0
5, 49345, Note_on_c, 3, 71, 118
5, 49382, Note_on_c, 3, 71, 0
5, 49513, Note_on_c, 3, 73, 116
5, 49557, Note_on_c, 3, 73, 0
5, 49683, Note_on_c, 3, 71, 109
5, 49719, Note_on_c, 3, 71, 0
5, 49862, Note_on_c, 3, 68, 109
5, 49893, Note_on_c, 3, 68, 0
5, 50036, Note_on_c, 3, 68, 113
5, 50067, Note_on_c, 3, 68, 0
5, 50203, Note_on_c, 3, 68, 124
5, 50236, Note_on_c, 3, 68, 0
5, 50378, Note_on_c, 3, 68, 123
5, 50742, Note_on_c, 3, 68, 0
5, 50751, Note_on_c, 3, 60, 107
5, 50823, Note_on_c, 3, 61, 113
5, 50846, Note_on_c, 3, 60, 0
5, 50910, Note_on_c, 3, 60, 106
5, 50930, Note_on_c, 3, 61, 0
5, 50988, Note_on_c, 3, 63, 108
5, 50995, Note_on_c, 3, 60, 0
5, 51069, Note_on_c, 3, 63, 0
5, 51076, Note_on_c, 3, 64, 90
5, 51150, Note_on_c, 3, 64, 0
5, 51152, Note_on_c, 3, 66, 100
5, 51225, Note_on_c, 3, 66, 0
5, 51243, Note_on_c, 3, 68, 105
5, 51281, Note_on_c, 3, 68, 0
5, 51431, Note_on_c, 3, 68, 127
5, 51466, Note_on_c, 3, 68, 0
5, 51590, Note_on_c, 3, 68, 123
5, 51633, Note_on_c, 3, 68, 0
5, 51756, Note_on_c, 3, 68, 125
5, 52139, Note_on_c, 3, 68, 0
5, 52140, Note_on_c, 3, 60, 107
5, 52203, Note_on_c, 3, 61, 101
5, 52221, Note_on_c, 3, 60, 0
5, 52289, Note_on_c, 3, 60, 94
5, 52296, Note_on_c, 3, 61, 0
5, 52360, Note_on_c, 3, 60, 0
5, 52371, Note_on_c, 3, 63, 98
5, 52440, Note_on_c, 3, 63, 0
5, 52460, Note_on_c, 3, 64, 89
5, 52533, Note_on_c, 3, 64, 0
5, 52537, Note_on_c, 3, 66, 82
5, 52597, Note_on_c, 3, 66, 0
5, 52629, Note_on_c, 3, 68, 94
5, 52666, Note_on_c, 3, 68, 0
5, 52800, Note_on_c, 3, 71, 120
5, 52834, Note_on_c, 3, 71, 0
5, 52970, Note_on_c, 3, 71, 127
5, 53002, Note_on_c, 3, 71, 0
5, 53143, Note_on_c, 3, 71, 126
5, 53489, Note_on_c, 3, 63, 94
5, 53506, Note_on_c, 3, 71, 0
5, 53553, Note_on_c, 3, 64, 80
5, 53557, Note_on_c, 3, 63, 0
5, 53635, Note_on_c, 3, 63, 100
5, 53637, Note_on_c, 3, 64, 0
5, 53670, Note_on_c, 3, 63, 0
5, 53719, Note_on_c, 3, 66, 88
5, 53763, Note_on_c, 3, 66, 0
5, 53800, Note_on_c, 3, 68, 97
5, 53849, Note_on_c, 3, 68, 0
5, 53877, Note_on_c, 3, 69, 86
5, 53924, Note_on_c, 3, 69, 0
5, 53955, Note_on_c, 3, 71, 103
5, 53985, Note_on_c, 3, 71, 0
5, 54121, Note_on_c, 3, 63, 106
5, 54180, Note_on_c, 3, 63, 0
5, 54184, Note_on_c, 3, 64, 77
5, 54261, Note_on_c, 3, 63, 110
5, 54264, Note_on_c, 3, 64, 0
5, 54293, Note_on_c, 3, 63, 0
5, 54330, Note_on_c, 3, 66, 107
5, 54391, Note_on_c, 3, 66, 0
5, 54400, Note_on_c, 3, 68, 103
5, 54456, Note_on_c, 3, 68, 0
5, 54477, Note_on_c, 3, 69, 93
5, 54531, Note_on_c, 3, 69, 0
5, 54559, Note_on_c, 3, 71, 116
5, 54597, Note_on_c, 3, 71, 0
5, 54719, Note_on_c, 3, 63, 120
5, 54783, Note_on_c, 3, 64, 99
5, 54801, Note_on_c, 3, 63, 0
5, 54864, Note_on_c, 3, 63, 123
5, 54870, Note_on_c, 3, 64, 0
5, 54903, Note_on_c, 3, 63, 0
5, 54931, Note_on_c, 3, 66, 112
5, 54979, Note_on_c, 3, 66, 0
5, 55011, Note_on_c, 3, 68, 110
5, 55059, Note_on_c, 3, 68, 0
5, 55082, Note_on_c, 3, 69, 106
5, 55132, Note_on_c, 3, 69, 0
5, 55161, Note_on_c, 3, 71, 116
5, 55206, Note_on_c, 3, 71, 0
5, 55337, Note_on_c, 3, 75, 120
5, 55490, Note_on_c, 3, 75, 0
5, 55503, Note_on_c, 3, 77, 122
5, 55574, Note_on_c, 3, 77, 0
5, 55646, Note_on_c, 3, 78, 120
5, 55715, Note_on_c, 3, 78, 0
5, 55782, Note_on_c, 3, 76, 126
5, 55826, Note_on_c, 3, 76, 0
5, 55947, Note_on_c, 3, 75, 120
5, 55979, Note_on_c, 3, 75, 0
5, 56013, Note_on_c, 3, 75, 108
5, 56048, Note_on_c, 3, 75, 0
5, 56087, Note_on_c, 3, 77, 122
5, 56123, Note_on_c, 3, 77, 0
5, 56155, Note_on_c, 3, 77, 120
5, 56198, Note_on_c, 3, 77, 0
5, 56245, Note_on_c, 3, 78, 120
5, 56282, Note_on_c, 3, 78, 0
5, 56316, Note_on_c, 3, 78, 108
5, 56358, Note_on_c, 3, 78, 0
5, 56399, Note_on_c, 3, 76, 114
5, 56435, Note_on_c, 3, 76, 0
5, 56466, Note_on_c, 3, 76, 118
5, 56518, Note_on_c, 3, 76, 0
5, 56563, Note_on_c, 3, 71, 118
5, 56564, Note_on_c, 3, 78, 116
5, 56592, Note_on_c, 3, 78, 0
5, 56601, Note_on_c, 3, 71, 0
5, 56750, Note_on_c, 3, 59, 124
5, 57020, Note_on_c, 3, 59, 0
5, 57057, Note_on_c, 3, 59, 124
5, 57099, Note_on_c, 3, 59, 0
5, 57219, Note_on_c, 3, 59, 121
5, 57256, Note_on_c, 3, 59, 0
5, 57390, Note_on_c, 3, 59, 122
5, 57600, Control_c, 3, 11, 100
5, 57606, Control_c, 3, 11, 97
5, 57611, Control_c, 3, 11, 95
5, 57616, Control_c, 3, 11, 93
5, 57621, Control_c, 3, 11, 91
5, 57626, Control_c, 3, 11, 90
5, 57631, Control_c, 3, 11, 89
5, 57636, Control_c, 3, 11, 87
5, 57641, Control_c, 3, 11, 85
5, 57646, Control_c, 3, 11, 84
5, 57651, Control_c, 3, 11, 83
5, 57656, Control_c, 3, 11, 82
5, 57661, Control_c, 3, 11, 80
5, 57666, Control_c, 3, 11, 79
5, 57671, Control_c, 3, 11, 78
5, 57676, Control_c, 3, 11, 77
5, 57681, Control_c, 3, 11, 76
5, 57686, Control_c, 3, 11, 75
5, 57691, Control_c, 3, 11, 74
5, 57696, Control_c, 3, 11, 73
5, 57701, Control_c, 3, 11, 72
5, 57706, Control_c, 3, 11, 71
5, 57711, Control_c, 3, 11, 70
5, 57721, Control_c, 3, 11, 69
5, 57726, Control_c, 3, 11, 68
5, 57731, Control_c, 3, 11, 67
5, 57741, Control_c, 3, 11, 66
5, 57746, Control_c, 3, 11, 65
5, 57756, Control_c, 3, 11, 64
5, 57766, Control_c, 3, 11, 63
5, 57771, Control_c, 3, 11, 62
5, 57786, Control_c, 3, 11, 61
5, 57796, Control_c, 3, 11, 60
5, 57806, Control_c, 3, 11, 59
5, 57821, Control_c, 3, 11, 58
5, 57836, Control_c, 3, 11, 57
5, 57851, Control_c, 3, 11, 56
5, 57871, Control_c, 3, 11, 55
5, 57896, Control_c, 3, 11, 54
5, 57921, Control_c, 3, 11, 53
5, 57956, Control_c, 3, 11, 52
5, 58006, Control_c, 3, 11, 51
5, 58081, Control_c, 3, 11, 50
5, 58320, Note_on_c, 3, 59, 0
5, 58320, Note_on_c, 3, 59, 80
5, 59637, Note_on_c, 3, 59, 0
5, 60480, Control_c, 3, 11, 100
5, 62640, Program_c, 3, 45
5, 62858, Note_on_c, 3, 63, 76
5, 62886, Note_on_c, 3, 63, 0
5, 63023, Note_on_c, 3, 63, 80
5, 63064, Note_on_c, 3, 63, 0
5, 63201, Note_on_c, 3, 64, 76
5, 63240, Note_on_c, 3, 64, 0
5, 63360, Program_c, 3, 49
5, 63851, Note_on_c, 3, 63, 77
5, 64145, Note_on_c, 3, 64, 86
5, 64170, Note_on_c, 3, 63, 0
5, 64459, Note_on_c, 3, 56, 89
5, 64480, Note_on_c, 3, 64, 0
5, 64739, Note_on_c, 3, 56, 0
5, 65057, Note_on_c, 3, 69, 92
5, 65344, Note_on_c, 3, 68, 105
5, 65381, Note_on_c, 3, 69, 0
5, 65430, Note_on_c, 3, 68, 0
5, 65514, Note_on_c, 3, 64, 116
5, 65558, Note_on_c, 3, 64, 0
5, 65679, Note_on_c, 3, 69, 125
5, 65682, Note_on_c, 3, 76, 118
5, 65715, Note_on_c, 3, 69, 0
5, 65730, Note_on_c, 3, 76, 0
5, 65833, Note_on_c, 3, 71, 126
5, 65834, Note_on_c, 3, 76, 122
5, 65837, Note_on_c, 3, 68, 125
5, 65882, Note_on_c, 3, 68, 0
5, 65892, Note_on_c, 3, 71, 0
5, 65899, Note_on_c, 3, 76, 0
5, 66291, Note_on_c, 3, 73, 125
5, 66293, Note_on_c, 3, 76, 125
5, 66334, Note_on_c, 3, 76, 0
5, 66350, Note_on_c, 3, 73, 0
5, 66462, Note_on_c, 3, 71, 124
5, 66466, Note_on_c, 3, 76, 125
5, 66519, Note_on_c, 3, 76, 0
5, 66534, Note_on_c, 3, 71, 0
5, 66896, Note_on_c, 3, 69, 124
5, 66898, Note_on_c, 3, 76, 124
5, 66934, Note_on_c, 3, 76, 0
5, 66952, Note_on_c, 3, 69, 0
5, 67070, Note_on_c, 3, 71, 121
5, 67070, Note_on_c, 3, 68, 120
5, 67073, Note_on_c, 3, 76, 127
5, 67134, Note_on_c, 3, 76, 0
5, 67143, Note_on_c, 3, 71, 0
5, 67146, Note_on_c, 3, 68, 0
5, 67497, Note_on_c, 3, 76, 125
5, 67497, Note_on_c, 3, 73, 126
5, 67531, Note_on_c, 3, 76, 0
5, 67558, Note_on_c, 3, 73, 0
5, 67666, Note_on_c, 3, 71, 125
5, 67669, Note_on_c, 3, 76, 127
5, 67716, Note_on_c, 3, 76, 0
5, 67730, Note_on_c, 3, 71, 0
5, 69287, Note_on_c, 3, 63, 76
5, 69443, Note_on_c, 3, 63, 0
5, 69444, Note_on_c, 3, 64, 60
5, 70082, Note_on_c, 3, 63, 48
5, 70141, Note_on_c, 3, 64, 0
5, 70427, Note_on_c, 3, 63, 0
5, 70607, Note_on_c, 3, 71, 113
5, 70636, Note_on_c, 3, 71, 0
5, 70765, Note_on_c, 3, 76, 121
5, 70767, Note_on_c, 3, 71, 121
5, 70800, Note_on_c, 3, 76, 0
5, 70801, Note_on_c, 3, 71, 0
5, 70927, Note_on_c, 3, 71, 117
5, 70927, Note_on_c, 3, 76, 125
5, 70958, Note_on_c, 3, 71, 0
5, 70959, Note_on_c, 3, 76, 0
5, 71092, Note_on_c, 3, 69, 121
5, 71093, Note_on_c, 3, 76, 124
5, 71342, Note_on_c, 3, 76, 0
5, 71343, Note_on_c, 3, 69, 0
5, 71380, Note_on_c, 3, 76, 108
5, 71388, Note_on_c, 3, 69, 89
5, 71426, Note_on_c, 3, 76, 0
5, 71437, Note_on_c, 3, 69, 0
5, 71544, Note_on_c, 3, 75, 115
5, 71562, Note_on_c, 3, 69, 54
5, 71581, Note_on_c, 3, 75, 0
5, 71591, Note_on_c, 3, 69, 0
5, 71709, Note_on_c, 3, 75, 124
5, 71973, Note_on_c, 3, 75, 0
5, 72007, Note_on_c, 3, 73, 116
5, 72054, Note_on_c, 3, 73, 0
5, 72175, Note_on_c, 3, 69, 107
5, 72253, Note_on_c, 3, 68, 103
5, 72265, Note_on_c, 3, 69, 0
5, 72317, Note_on_c, 3, 68, 0
5, 72318, Note_on_c, 3, 66, 112
5, 72357, Note_on_c, 3, 66, 0
5, 72489, Note_on_c, 3, 64, 87
5, 72542, Note_on_c, 3, 66, 99
5, 72552, Note_on_c, 3, 64, 0
5, 72615, Note_on_c, 3, 68, 108
5, 72621, Note_on_c, 3, 66, 0
5, 72653, Note_on_c, 3, 68, 0
5, 72782, Note_on_c, 3, 71, 118
5, 72787, Note_on_c, 3, 63, 120
5, 72818, Note_on_c, 3, 63, 0
5, 72823, Note_on_c, 3, 71, 0
5, 73102, Note_on_c, 3, 71, 104
5, 73109, Note_on_c, 3, 83, 117
5, 73133, Note_on_c, 3, 71, 0
5, 73147, Note_on_c, 3, 83, 0
5, 73271, Note_on_c, 3, 83, 124
5, 73273, Note_on_c, 3, 71, 120
5, 73327, Note_on_c, 3, 71, 0
5, 73332, Note_on_c, 3, 83, 0
5, 73437, Note_on_c, 3, 76, 106
5, 73440, Note_on_c, 3, 71, 103
5, 73472, Note_on_c, 3, 76, 0
5, 73478, Note_on_c, 3, 71, 0
5, 73601, Note_on_c, 3, 69, 102
5, 73607, Note_on_c, 3, 76, 112
5, 73864, Note_on_c, 3, 69, 0
5, 73873, Note_on_c, 3, 76, 0
5, 73899, Note_on_c, 3, 76, 104
5, 73905, Note_on_c, 3, 69, 100
5, 73946, Note_on_c, 3, 76, 0
5, 73952, Note_on_c, 3, 69, 0
5, 74056, Note_on_c, 3, 75, 115
5, 74093, Note_on_c, 3, 75, 0
5, 74221, Note_on_c, 3, 75, 123
5, 74500, Note_on_c, 3, 73, 101
5, 74510, Note_on_c, 3, 75, 0
5, 74532, Note_on_c, 3, 73, 0
5, 74662, Note_on_c, 3, 73, 120
5, 74664, Note_on_c, 3, 66, 123
5, 74782, Note_on_c, 3, 66, 0
5, 74810, Note_on_c, 3, 73, 0
5, 74811, Note_on_c, 3, 66, 84
5, 74814, Note_on_c, 3, 71, 87
5, 74850, Note_on_c, 3, 66, 0
5, 74856, Note_on_c, 3, 71, 0
5, 74965, Note_on_c, 3, 64, 116
5, 74970, Note_on_c, 3, 71, 122
5, 75091, Note_on_c, 3, 64, 0
5, 75105, Note_on_c, 3, 69, 101
5, 75115, Note_on_c, 3, 71, 0
5, 75149, Note_on_c, 3, 69, 0
5, 75274, Note_on_c, 3, 66, 108
5, 75328, Note_on_c, 3, 64, 96
5, 75343, Note_on_c, 3, 66, 0
5, 75397, Note_on_c, 3, 64, 0
5, 75414, Note_on_c, 3, 63, 116
5, 75460, Note_on_c, 3, 63, 0
5, 75573, Note_on_c, 3, 71, 117
5, 75624, Note_on_c, 3, 71, 0
5, 75632, Note_on_c, 3, 69, 101
5, 75679, Note_on_c, 3, 69, 0
5, 75718, Note_on_c, 3, 68, 115
5, 75757, Note_on_c, 3, 68, 0
5, 75886, Note_on_c, 3, 66, 113
5, 75943, Note_on_c, 3, 66, 0
5, 75947, Note_on_c, 3, 64, 83
5, 75997, Note_on_c, 3, 64, 0
5, 76016, Note_on_c, 3, 63, 115
5, 76074, Note_on_c, 3, 63, 0
5, 76178, Note_on_c, 3, 71, 114
5, 76243, Note_on_c, 3, 69, 103
5, 76271, Note_on_c, 3, 71, 0
5, 76314, Note_on_c, 3, 68, 107
5, 76319, Note_on_c, 3, 69, 0
5, 76365, Note_on_c, 3, 68, 0
5, 76471, Note_on_c, 3, 66, 115
5, 76525, Note_on_c, 3, 64, 98
5, 76534, Note_on_c, 3, 66, 0
5, 76577, Note_on_c, 3, 64, 0
5, 76597, Note_on_c, 3, 63, 114
5, 76643, Note_on_c, 3, 63, 0
5, 76763, Note_on_c, 3, 71, 113
5, 76824, Note_on_c, 3, 69, 99
5, 76859, Note_on_c, 3, 71, 0
5, 76902, Note_on_c, 3, 68, 105
5, 76916, Note_on_c, 3, 69, 0
5, 76930, Note_on_c, 3, 68, 0
5, 77080, Note_on_c, 3, 64, 126
5, 77334, Note_on_c, 3, 64, 0
5, 77415, Note_on_c, 3, 64, 124
5, 77451, Note_on_c, 3, 64, 0
5, 77582, Note_on_c, 3, 64, 124
5, 77618, Note_on_c, 3, 64, 0
5, 77740, Note_on_c, 3, 64, 126
5, 77780, Note_on_c, 3, 64, 0
5, 77904, Note_on_c, 3, 59, 84
5, 78061, Note_on_c, 3, 60, 84
5, 78100, Note_on_c, 3, 59, 0
5, 78239, Note_on_c, 3, 61, 60
5, 78250, Note_on_c, 3, 60, 0
5, 78505, Note_on_c, 3, 61, 0
5, 83330, Note_on_c, 3, 60, 59
5, 83943, Note_on_c, 3, 63, 61
5, 83945, Note_on_c, 3, 60, 0
5, 84592, Note_on_c, 3, 61, 47
5, 84625, Note_on_c, 3, 63, 0
5, 85777, Note_on_c, 3, 61, 0
5, 85863, Note_on_c, 3, 60, 32
5, 86512, Note_on_c, 3, 63, 32
5, 86529, Note_on_c, 3, 60, 0
5, 87154, Note_on_c, 3, 61, 28
5, 87200, Note_on_c, 3, 63, 0
5, 88380, Note_on_c, 3, 61, 0
5, 88489, Note_on_c, 3, 61, 52
5, 89140, Note_on_c, 3, 58, 51
5, 89198, Note_on_c, 3, 61, 0
5, 89790, Note_on_c, 3, 59, 54
5, 89837, Note_on_c, 3, 58, 0
5, 91056, Note_on_c, 3, 61, 37
5, 91063, Note_on_c, 3, 59, 0
5, 91659, Note_on_c, 3, 58, 26
5, 91700, Note_on_c, 3, 61, 0
5, 92335, Note_on_c, 3, 59, 31
5, 92454, Note_on_c, 3, 58, 0
5, 92926, Note_on_c, 3, 59, 0
5, 92960, Note_on_c, 3, 63, 40
5, 94341, Note_on_c, 3, 62, 43
5, 94411, Note_on_c, 3, 63, 0
5, 94915, Note_on_c, 3, 61, 45
5, 95066, Note_on_c, 3, 62, 0
5, 95519, Note_on_c, 3, 60, 36
5, 95554, Note_on_c, 3, 61, 0
5, 96111, Note_on_c, 3, 61, 54
5, 96118, Note_on_c, 3, 60, 0
5, 96434, Note_on_c, 3, 62, 63
5, 96483, Note_on_c, 3, 61, 0
5, 96742, Note_on_c, 3, 61, 60
5, 96803, Note_on_c, 3, 62, 0
5, 97002, Note_on_c, 3, 61, 0
5, 97054, Note_on_c, 3, 62, 67
5, 97343, Note_on_c, 3, 62, 0
5, 97348, Note_on_c, 3, 61, 75
5, 97512, Note_on_c, 3, 61, 0
5, 97656, Note_on_c, 3, 62, 72
5, 97933, Note_on_c, 3, 61, 72
5, 97986, Note_on_c, 3, 62, 0
5, 98268, Note_on_c, 3, 62, 82
5, 98320, Note_on_c, 3, 61, 0
5, 98564, Note_on_c, 3, 61, 81
5, 98612, Note_on_c, 3, 62, 0
5, 98897, Note_on_c, 3, 61, 0
5, 99596, Note_on_c, 3, 61, 80
5, 99895, Note_on_c, 3, 61, 0
5, 99904, Note_on_c, 3, 63, 83
5, 101063, Note_on_c, 3, 63, 0
5, 101073, Note_on_c, 3, 64, 79
5, 101239, Note_on_c, 3, 64, 0
5, 101406, Note_on_c, 3, 59, 62
5, 101690, Note_on_c, 3, 60, 63
5, 101734, Note_on_c, 3, 59, 0
5, 101838, Note_on_c, 3, 61, 93
5, 101871, Note_on_c, 3, 60, 0
5, 101997, Note_on_c, 3, 63, 85
5, 102035, Note_on_c, 3, 61, 0
5, 102262, Note_on_c, 3, 63, 0
5, 102281, Note_on_c, 3, 64, 62
5, 102486, Note_on_c, 3, 64, 0
5, 102570, Note_on_c, 3, 59, 76
5, 102855, Note_on_c, 3, 60, 88
5, 102875, Note_on_c, 3, 59, 0
5, 103010, Note_on_c, 3, 61, 93
5, 103035, Note_on_c, 3, 60, 0
5, 103167, Note_on_c, 3, 63, 88
5, 103197, Note_on_c, 3, 61, 0
5, 103471, Note_on_c, 3, 64, 84
5, 103473, Note_on_c, 3, 63, 0
5, 103826, Note_on_c, 3, 64, 0
5, 108000, Control_c, 3, 11, 80
5, 108228, Note_on_c, 3, 62, 52
5, 108495, Note_on_c, 3, 61, 49
5, 108545, Note_on_c, 3, 62, 0
5, 108782, Note_on_c, 3, 61, 0
5, 108887, Note_on_c, 3, 61, 83
5, 108919, Note_on_c, 3, 61, 0
5, 108977, Note_on_c, 3, 61, 68
5, 109004, Note_on_c, 3, 61, 0
5, 109062, Note_on_c, 3, 61, 72
5, 109093, Note_on_c, 3, 61, 0
5, 109125, Note_on_c, 3, 61, 64
5, 109164, Note_on_c, 3, 61, 0
5, 109237, Note_on_c, 3, 61, 61
5, 109443, Note_on_c, 3, 61, 0
5, 109596, Note_on_c, 3, 61, 82
5, 109627, Note_on_c, 3, 61, 0
5, 109681, Note_on_c, 3, 61, 73
5, 109709, Note_on_c, 3, 61, 0
5, 109773, Note_on_c, 3, 61, 70
5, 109798, Note_on_c, 3, 61, 0
5, 109844, Note_on_c, 3, 61, 68
5, 109881, Note_on_c, 3, 61, 0
5, 109955, Note_on_c, 3, 61, 55
5, 110148, Note_on_c, 3, 61, 0
5, 110312, Note_on_c, 3, 61, 85
5, 110344, Note_on_c, 3, 61, 0
5, 110398, Note_on_c, 3, 61, 72
5, 110425, Note_on_c, 3, 61, 0
5, 110480, Note_on_c, 3, 61, 73
5, 110508, Note_on_c, 3, 61, 0
5, 110562, Note_on_c, 3, 61, 70
5, 110594, Note_on_c, 3, 61, 0
5, 110670, Note_on_c, 3, 61, 55
5, 110856, Note_on_c, 3, 61, 0
5, 111013, Note_on_c, 3, 61, 79
5, 111038, Note_on_c, 3, 61, 0
5, 111091, Note_on_c, 3, 61, 67
5, 111120, Note_on_c, 3, 61, 0
5, 111187, Note_on_c, 3, 61, 80
5, 111217, Note_on_c, 3, 61, 0
5, 111267, Note_on_c, 3, 61, 74
5, 111298, Note_on_c, 3, 61, 0
5, 111371, Note_on_c, 3, 61, 65
5, 111571, Note_on_c, 3, 61, 0
5, 111750, Note_on_c, 3, 61, 88
5, 111784, Note_on_c, 3, 61, 0
5, 111836, Note_on_c, 3, 61, 75
5, 111862, Note_on_c, 3, 61, 0
5, 111920, Note_on_c, 3, 61, 76
5, 111949, Note_on_c, 3, 61, 0
5, 111999, Note_on_c, 3, 61, 76
5, 112030, Note_on_c, 3, 61, 0
5, 112105, Note_on_c, 3, 61, 66
5, 112295, Note_on_c, 3, 61, 0
5, 112455, Note_on_c, 3, 61, 86
5, 112485, Note_on_c, 3, 61, 0
5, 112549, Note_on_c, 3, 61, 70
5, 112574, Note_on_c, 3, 61, 0
5, 112650, Note_on_c, 3, 61, 76
5, 112676, Note_on_c, 3, 61, 0
5, 112732, Note_on_c, 3, 61, 72
5, 112758, Note_on_c, 3, 61, 0
5, 112844, Note_on_c, 3, 61, 68
5, 113397, Note_on_c, 3, 61, 0
5, 113403, Note_on_c, 3, 62, 60
5, 113596, Note_on_c, 3, 61, 68
5, 113635, Note_on_c, 3, 62, 0
5, 113873, Note_on_c, 3, 61, 0
5, 114020, Note_on_c, 3, 61, 87
5, 114062, Note_on_c, 3, 61, 0
5, 114130, Note_on_c, 3, 61, 85
5, 114177, Note_on_c, 3, 61, 0
5, 114240, Note_on_c, 3, 59, 76
5, 114291, Note_on_c, 3, 59, 0
5, 114343, Note_on_c, 3, 59, 65
5, 114415, Note_on_c, 3, 59, 0
5, 114462, Note_on_c, 3, 61, 61
5, 114792, Note_on_c, 3, 61, 0
5, 114865, Note_on_c, 3, 63, 76
5, 114897, Note_on_c, 3, 63, 0
5, 114965, Note_on_c, 3, 63, 67
5, 114999, Note_on_c, 3, 63, 0
5, 115073, Note_on_c, 3, 63, 79
5, 115113, Note_on_c, 3, 63, 0
5, 115176, Note_on_c, 3, 63, 71
5, 115233, Note_on_c, 3, 63, 0
5, 115301, Note_on_c, 3, 64, 71
5, 115553, Note_on_c, 3, 64, 0
5, 115679, Note_on_c, 3, 62, 83
5, 115705, Note_on_c, 3, 62, 0
5, 115766, Note_on_c, 3, 62, 78
5, 115807, Note_on_c, 3, 62, 0
5, 115854, Note_on_c, 3, 64, 72
5, 115892, Note_on_c, 3, 64, 0
5, 115937, Note_on_c, 3, 64, 52
5, 115983, Note_on_c, 3, 64, 0
5, 116047, Note_on_c, 3, 62, 58
5, 116236, Note_on_c, 3, 62, 0
5, 116421, Note_on_c, 3, 62, 73
5, 116445, Note_on_c, 3, 62, 0
5, 116504, Note_on_c, 3, 62, 77
5, 116543, Note_on_c, 3, 62, 0
5, 116606, Note_on_c, 3, 62, 74
5, 116631, Note_on_c, 3, 62, 0
5, 116681, Note_on_c, 3, 62, 85
5, 116719, Note_on_c, 3, 62, 0
5, 116795, Note_on_c, 3, 62, 71
5, 116979, Note_on_c, 3, 62, 0
5, 117194, Note_on_c, 3, 62, 76
5, 117222, Note_on_c, 3, 62, 0
5, 117275, Note_on_c, 3, 62, 78
5, 117300, Note_on_c, 3, 62, 0
5, 117365, Note_on_c, 3, 62, 77
5, 117393, Note_on_c, 3, 62, 0
5, 117452, Note_on_c, 3, 62, 84
5, 117485, Note_on_c, 3, 62, 0
5, 117565, Note_on_c, 3, 62, 70
5, 117777, Note_on_c, 3, 62, 0
5, 117942, Note_on_c, 3, 62, 72
5, 117968, Note_on_c, 3, 62, 0
5, 118024, Note_on_c, 3, 62, 67
5, 118049, Note_on_c, 3, 62, 0
5, 118118, Note_on_c, 3, 62, 76
5, 118147, Note_on_c, 3, 62, 0
5, 118204, Note_on_c, 3, 62, 72
5, 118234, Note_on_c, 3, 62, 0
5, 118314, Note_on_c, 3, 62, 68
5, 118522, Note_on_c, 3, 62, 0
5, 118680, Note_on_c, 3, 62, 71
5, 118704, Note_on_c, 3, 62, 0
5, 118768, Note_on_c, 3, 62, 70
5, 118792, Note_on_c, 3, 62, 0
5, 118859, Note_on_c, 3, 62, 74
5, 118886, Note_on_c, 3, 62, 0
5, 118941, Note_on_c, 3, 62, 81
5, 118981, Note_on_c, 3, 62, 0
5, 119064, Note_on_c, 3, 62, 66
5, 119673, Note_on_c, 3, 64, 65
5, 119689, Note_on_c, 3, 62, 0
5, 119804, Note_on_c, 3, 62, 50
5, 119889, Note_on_c, 3, 64, 0
5, 120169, Note_on_c, 3, 62, 0
5, 120209, Note_on_c, 3, 62, 84
5, 120254, Note_on_c, 3, 62, 0
5, 120295, Note_on_c, 3, 62, 57
5, 120339, Note_on_c, 3, 62, 0
5, 120374, Note_on_c, 3, 62, 63
5, 120423, Note_on_c, 3, 62, 0
5, 120457, Note_on_c, 3, 62, 67
5, 120507, Note_on_c, 3, 62, 0
5, 120553, Note_on_c, 3, 62, 66
5, 120763, Note_on_c, 3, 62, 0
5, 120983, Note_on_c, 3, 62, 81
5, 121018, Note_on_c, 3, 62, 0
5, 121059, Note_on_c, 3, 62, 65
5, 121102, Note_on_c, 3, 62, 0
5, 121169, Note_on_c, 3, 62, 77
5, 121211, Note_on_c, 3, 62, 0
5, 121267, Note_on_c, 3, 62, 69
5, 121317, Note_on_c, 3, 62, 0
5, 121432, Note_on_c, 3, 61, 67
5, 121697, Note_on_c, 3, 61, 0
5, 121927, Note_on_c, 3, 60, 84
5, 121961, Note_on_c, 3, 60, 0
5, 122009, Note_on_c, 3, 60, 65
5, 122036, Note_on_c, 3, 60, 0
5, 122120, Note_on_c, 3, 58, 88
5, 122152, Note_on_c, 3, 58, 0
5, 122196, Note_on_c, 3, 58, 77
5, 122240, Note_on_c, 3, 58, 0
5, 122325, Note_on_c, 3, 57, 59
5, 122508, Note_on_c, 3, 57, 0
5, 122700, Note_on_c, 3, 57, 86
5, 122739, Note_on_c, 3, 57, 0
5, 122777, Note_on_c, 3, 57, 65
5, 122822, Note_on_c, 3, 57, 0
5, 122861, Note_on_c, 3, 57, 71
5, 122902, Note_on_c, 3, 57, 0
5, 122938, Note_on_c, 3, 57, 63
5, 122982, Note_on_c, 3, 57, 0
5, 123036, Note_on_c, 3, 57, 68
5, 123288, Note_on_c, 3, 57, 0
5, 123433, Note_on_c, 3, 57, 82
5, 123472, Note_on_c, 3, 57, 0
5, 123519, Note_on_c, 3, 57, 68
5, 123556, Note_on_c, 3, 57, 0
5, 123607, Note_on_c, 3, 57, 70
5, 123646, Note_on_c, 3, 57, 0
5, 123696, Note_on_c, 3, 57, 68
5, 123737, Note_on_c, 3, 57, 0
5, 123797, Note_on_c, 3, 57, 63
5, 124020, Note_on_c, 3, 57, 0
5, 124206, Note_on_c, 3, 57, 78
5, 124243, Note_on_c, 3, 57, 0
5, 124287, Note_on_c, 3, 57, 54
5, 124325, Note_on_c, 3, 57, 0
5, 124389, Note_on_c, 3, 57, 68
5, 124427, Note_on_c, 3, 57, 0
5, 124483, Note_on_c, 3, 57, 60
5, 124516, Note_on_c, 3, 57, 0
5, 124593, Note_on_c, 3, 57, 63
5, 124822, Note_on_c, 3, 57, 0
5, 125002, Note_on_c, 3, 57, 80
5, 125041, Note_on_c, 3, 57, 0
5, 125094, Note_on_c, 3, 57, 62
5, 125127, Note_on_c, 3, 57, 0
5, 125185, Note_on_c, 3, 57, 67
5, 125222, Note_on_c, 3, 57, 0
5, 125280, Note_on_c, 3, 57, 60
5, 125314, Note_on_c, 3, 57, 0
5, 125382, Note_on_c, 3, 57, 61
5, 126009, Note_on_c, 3, 58, 66
5, 126034, Note_on_c, 3, 57, 0
5, 126220, Note_on_c, 3, 57, 54
5, 126267, Note_on_c, 3, 58, 0
5, 126622, Note_on_c, 3, 57, 0
5, 126658, Note_on_c, 3, 57, 64
5, 126707, Note_on_c, 3, 57, 0
5, 126743, Note_on_c, 3, 57, 57
5, 126787, Note_on_c, 3, 57, 0
5, 126825, Note_on_c, 3, 57, 58
5, 126879, Note_on_c, 3, 57, 0
5, 126939, Note_on_c, 3, 57, 63
5, 127172, Note_on_c, 3, 57, 0
5, 127378, Note_on_c, 3, 57, 80
5, 127430, Note_on_c, 3, 57, 0
5, 127473, Note_on_c, 3, 57, 67
5, 127532, Note_on_c, 3, 57, 0
5, 127610, Note_on_c, 3, 57, 81
5, 127661, Note_on_c, 3, 57, 0
5, 127712, Note_on_c, 3, 57, 70
5, 127756, Note_on_c, 3, 57, 0
5, 127820, Note_on_c, 3, 56, 79
5, 128234, Note_on_c, 3, 56, 0
5, 128285, Note_on_c, 3, 56, 82
5, 128327, Note_on_c, 3, 56, 0
5, 128376, Note_on_c, 3, 56, 72
5, 128421, Note_on_c, 3, 56, 0
5, 128490, Note_on_c, 3, 56, 79
5, 128530, Note_on_c, 3, 56, 0
5, 128585, Note_on_c, 3, 56, 76
5, 128642, Note_on_c, 3, 56, 0
5, 128716, Note_on_c, 3, 57, 55
5, 129154, Note_on_c, 3, 57, 0
5, 129227, Note_on_c, 3, 57, 74
5, 129278, Note_on_c, 3, 57, 0
5, 129333, Note_on_c, 3, 57, 73
5, 129378, Note_on_c, 3, 57, 0
5, 129428, Note_on_c, 3, 57, 72
5, 129474, Note_on_c, 3, 57, 0
5, 129524, Note_on_c, 3, 57, 78
5, 129564, Note_on_c, 3, 57, 0
5, 129630, Note_on_c, 3, 56, 73
5, 129996, Note_on_c, 3, 56, 0
5, 130081, Note_on_c, 3, 56, 80
5, 130121, Note_on_c, 3, 56, 0
5, 130173, Note_on_c, 3, 56, 72
5, 130218, Note_on_c, 3, 56, 0
5, 130294, Note_on_c, 3, 56, 85
5, 130338, Note_on_c, 3, 56, 0
5, 130394, Note_on_c, 3, 56, 68
5, 130447, Note_on_c, 3, 56, 0
5, 130512, Note_on_c, 3, 59, 64
5, 130813, Note_on_c, 3, 56, 54
5, 130839, Note_on_c, 3, 59, 0
5, 131049, Note_on_c, 3, 56, 0
5, 131060, Note_on_c, 3, 59, 67
5, 131109, Note_on_c, 3, 59, 0
5, 131170, Note_on_c, 3, 59, 64
5, 131229, Note_on_c, 3, 59, 0
5, 131289, Note_on_c, 3, 59, 63
5, 131343, Note_on_c, 3, 59, 0
5, 131423, Note_on_c, 3, 59, 64
5, 131513, Note_on_c, 3, 59, 0
5, 131658, Note_on_c, 3, 59, 47
5, 133054, Note_on_c, 3, 68, 34
5, 133179, Note_on_c, 3, 59, 0
5, 134824, Note_on_c, 3, 66, 53
5, 134850, Note_on_c, 3, 68, 0
5, 135089, Note_on_c, 3, 64, 64
5, 135132, Note_on_c, 3, 66, 0
5, 135306, Note_on_c, 3, 62, 68
5, 135341, Note_on_c, 3, 64, 0
5, 135538, Note_on_c, 3, 61, 76
5, 135561, Note_on_c, 3, 62, 0
5, 135855, Note_on_c, 3, 61, 0
5, 135972, Note_on_c, 3, 61, 85
5, 136009, Note_on_c, 3, 61, 0
5, 136067, Note_on_c, 3, 61, 76
5, 136101, Note_on_c, 3, 61, 0
5, 136166, Note_on_c, 3, 61, 76
5, 136198, Note_on_c, 3, 61, 0
5, 136254, Note_on_c, 3, 61, 80
5, 136287, Note_on_c, 3, 61, 0
5, 136358, Note_on_c, 3, 61, 72
5, 136598, Note_on_c, 3, 61, 0
5, 136768, Note_on_c, 3, 61, 82
5, 136797, Note_on_c, 3, 61, 0
5, 136858, Note_on_c, 3, 61, 76
5, 136889, Note_on_c, 3, 61, 0
5, 136955, Note_on_c, 3, 61, 81
5, 136985, Note_on_c, 3, 61, 0
5, 137043, Note_on_c, 3, 61, 76
5, 137075, Note_on_c, 3, 61, 0
5, 137151, Note_on_c, 3, 61, 81
5, 137421, Note_on_c, 3, 61, 0
5, 137545, Note_on_c, 3, 61, 87
5, 137577, Note_on_c, 3, 61, 0
5, 137636, Note_on_c, 3, 61, 88
5, 137672, Note_on_c, 3, 61, 0
5, 137726, Note_on_c, 3, 61, 89
5, 137762, Note_on_c, 3, 61, 0
5, 137814, Note_on_c, 3, 61, 90
5, 137848, Note_on_c, 3, 61, 0
5, 137915, Note_on_c, 3, 61, 87
5, 138152, Note_on_c, 3, 61, 0
5, 138308, Note_on_c, 3, 61, 91
5, 138339, Note_on_c, 3, 61, 0
5, 138399, Note_on_c, 3, 61, 91
5, 138431, Note_on_c, 3, 61, 0
5, 138499, Note_on_c, 3, 61, 93
5, 138528, Note_on_c, 3, 61, 0
5, 138581, Note_on_c, 3, 61, 100
5, 138617, Note_on_c, 3, 61, 0
5, 138689, Note_on_c, 3, 61, 96
5, 139321, Note_on_c, 3, 62, 92
5, 139329, Note_on_c, 3, 61, 0
5, 139517, Note_on_c, 3, 61, 85
5, 139550, Note_on_c, 3, 62, 0
5, 139783, Note_on_c, 3, 61, 0
5, 139923, Note_on_c, 3, 61, 100
5, 139957, Note_on_c, 3, 61, 0
5, 140005, Note_on_c, 3, 61, 95
5, 140037, Note_on_c, 3, 61, 0
5, 140085, Note_on_c, 3, 61, 103
5, 140118, Note_on_c, 3, 61, 0
5, 140164, Note_on_c, 3, 61, 110
5, 140215, Note_on_c, 3, 61, 0
5, 140280, Note_on_c, 3, 64, 103
5, 140416, Note_on_c, 3, 64, 0
5, 140604, Note_on_c, 3, 64, 104
5, 140605, Note_on_c, 3, 69, 102
5, 140911, Note_on_c, 3, 64, 0
5, 140940, Note_on_c, 3, 62, 122
5, 141102, Note_on_c, 3, 69, 0
5, 141125, Note_on_c, 3, 62, 0
5, 141282, Note_on_c, 3, 63, 126
5, 141283, Note_on_c, 3, 69, 121
5, 141611, Note_on_c, 3, 69, 0
5, 141624, Note_on_c, 3, 64, 126
5, 141626, Note_on_c, 3, 69, 121
5, 141637, Note_on_c, 3, 63, 0
5, 141758, Note_on_c, 3, 69, 0
5, 141758, Note_on_c, 3, 64, 0
5, 142080, Control_c, 3, 11, 100
5, 143185, Note_on_c, 3, 67, 126
5, 143227, Note_on_c, 3, 67, 0
5, 143349, Note_on_c, 3, 66, 123
5, 143393, Note_on_c, 3, 66, 0
5, 143524, Note_on_c, 3, 69, 124
5, 143562, Note_on_c, 3, 69, 0
5, 143714, Note_on_c, 3, 64, 125
5, 143720, Note_on_c, 3, 76, 122
5, 143723, Note_on_c, 3, 69, 118
5, 143784, Note_on_c, 3, 69, 0
5, 143785, Note_on_c, 3, 64, 0
5, 143797, Note_on_c, 3, 76, 0
5, 144063, Note_on_c, 3, 64, 117
5, 144084, Note_on_c, 3, 74, 126
5, 144440, Note_on_c, 3, 64, 0
5, 144450, Note_on_c, 3, 74, 0
5, 144461, Note_on_c, 3, 73, 121
5, 144462, Note_on_c, 3, 64, 114
5, 144613, Note_on_c, 3, 73, 0
5, 144620, Note_on_c, 3, 64, 0
5, 144960, Program_c, 3, 45
5, 145024, Note_on_c, 3, 66, 76
5, 145047, Note_on_c, 3, 66, 0
5, 145197, Note_on_c, 3, 64, 74
5, 145227, Note_on_c, 3, 64, 0
5, 145440, Program_c, 3, 49
5, 145674, Note_on_c, 3, 66, 72
5, 146188, Note_on_c, 3, 64, 81
5, 146229, Note_on_c, 3, 66, 0
5, 146476, Note_on_c, 3, 63, 83
5, 146525, Note_on_c, 3, 64, 0
5, 146804, Note_on_c, 3, 62, 71
5, 146848, Note_on_c, 3, 63, 0
5, 147117, Note_on_c, 3, 61, 72
5, 147169, Note_on_c, 3, 62, 0
5, 147272, Note_on_c, 3, 61, 0
5, 147600, Program_c, 3, 45
5, 147610, Note_on_c, 3, 66, 63
5, 147631, Note_on_c, 3, 66, 0
5, 147776, Note_on_c, 3, 64, 58
5, 147804, Note_on_c, 3, 64, 0
5, 147840, Program_c, 3, 49
5, 148228, Note_on_c, 3, 66, 65
5, 148707, Note_on_c, 3, 64, 75
5, 148744, Note_on_c, 3, 66, 0
5, 149029, Note_on_c, 3, 63, 70
5, 149071, Note_on_c, 3, 64, 0
5, 149345, Note_on_c, 3, 62, 75
5, 149391, Note_on_c, 3, 63, 0
5, 149642, Note_on_c, 3, 61, 76
5, 149672, Note_on_c, 3, 62, 0
5, 149829, Note_on_c, 3, 61, 0
5, 150739, Note_on_c, 3, 63, 66
5, 151522, Note_on_c, 3, 60, 68
5, 151534, Note_on_c, 3, 63, 0
5, 151639, Note_on_c, 3, 60, 0
5, 151920, Program_c, 3, 45
5, 152006, Note_on_c, 3, 63, 78
5, 152029, Note_on_c, 3, 63, 0
5, 152180, Note_on_c, 3, 61, 74
5, 152199, Note_on_c, 3, 61, 0
5, 152880, Program_c, 3, 49
5, 153208, Note_on_c, 3, 66, 80
5, 153952, Note_on_c, 3, 63, 73
5, 153963, Note_on_c, 3, 66, 0
5, 154103, Note_on_c, 3, 63, 0
5, 154320, Program_c, 3, 45
5, 154430, Note_on_c, 3, 66, 78
5, 154455, Note_on_c, 3, 66, 0
5, 154596, Note_on_c, 3, 64, 73
5, 154636, Note_on_c, 3, 64, 0
5, 155040, Program_c, 3, 49
5, 156361, Note_on_c, 3, 63, 73
5, 156527, Note_on_c, 3, 57, 58
5, 156560, Note_on_c, 3, 63, 0
5, 156705, Note_on_c, 3, 57, 0
5, 156962, Note_on_c, 3, 59, 55
5, 158478, Note_on_c, 3, 59, 0
5, 158525, Note_on_c, 3, 59, 48
5, 159736, Note_on_c, 3, 59, 0
5, 159798, Note_on_c, 3, 59, 59
5, 160762, Note_on_c, 3, 61, 72
5, 160772, Note_on_c, 3, 59, 0
5, 164903, Note_on_c, 3, 59, 65
5, 164926, Note_on_c, 3, 61, 0
5, 165091, Note_on_c, 3, 59, 0
5, 165600, Program_c, 3, 45
5, 166058, Note_on_c, 3, 64, 59
5, 166089, Note_on_c, 3, 64, 0
5, 166237, Note_on_c, 3, 63, 68
5, 166257, Note_on_c, 3, 63, 0
5, 167331, Note_on_c, 3, 64, 68
5, 167361, Note_on_c, 3, 64, 0
5, 167517, Note_on_c, 3, 63, 87
5, 167553, Note_on_c, 3, 63, 0
5, 168901, Note_on_c, 3, 64, 59
5, 168929, Note_on_c, 3, 64, 0
5, 169064, Note_on_c, 3, 63, 67
5, 169099, Note_on_c, 3, 63, 0
5, 169242, Note_on_c, 3, 64, 53
5, 169269, Note_on_c, 3, 64, 0
5, 169398, Note_on_c, 3, 63, 69
5, 169434, Note_on_c, 3, 63, 0
5, 169563, Note_on_c, 3, 64, 56
5, 169599, Note_on_c, 3, 64, 0
5, 169713, Note_on_c, 3, 63, 66
5, 169750, Note_on_c, 3, 63, 0
5, 169879, Note_on_c, 3, 64, 55
5, 169913, Note_on_c, 3, 64, 0
5, 170105, Note_on_c, 3, 63, 68
5, 170145, Note_on_c, 3, 63, 0
5, 170160, Program_c, 3, 49
5, 175762, Note_on_c, 3, 57, 38
5, 177074, Note_on_c, 3, 55, 50
5, 177138, Note_on_c, 3, 57, 0
5, 178239, Note_on_c, 3, 57, 53
5, 178255, Note_on_c, 3, 55, 0
5, 178422, Note_on_c, 3, 58, 65
5, 178488, Note_on_c, 3, 57, 0
5, 178602, Note_on_c, 3, 59, 64
5, 178647, Note_on_c, 3, 58, 0
5, 178785, Note_on_c, 3, 59, 0
5, 178896, Note_on_c, 3, 64, 67
5, 179171, Note_on_c, 3, 63, 72
5, 179204, Note_on_c, 3, 64, 0
5, 179490, Note_on_c, 3, 64, 63
5, 179505, Note_on_c, 3, 63, 0
5, 179841, Note_on_c, 3, 63, 49
5, 179902, Note_on_c, 3, 64, 0
5, 180181, Note_on_c, 3, 64, 44
5, 180206, Note_on_c, 3, 63, 0
5, 180473, Note_on_c, 3, 63, 36
5, 180554, Note_on_c, 3, 64, 0
5, 180827, Note_on_c, 3, 64, 47
5, 180872, Note_on_c, 3, 63, 0
5, 181166, Note_on_c, 3, 63, 44
5, 181232, Note_on_c, 3, 64, 0
5, 182545, Note_on_c, 3, 63, 0
5, 184491, Note_on_c, 3, 55, 8
5, 185377, Note_on_c, 3, 56, 48
5, 185529, Note_on_c, 3, 55, 0
5, 185686, Note_on_c, 3, 55, 32
5, 185745, Note_on_c, 3, 56, 0
5, 186093, Note_on_c, 3, 58, 47
5, 186236, Note_on_c, 3, 55, 0
5, 186466, Note_on_c, 3, 58, 0
5, 187133, Note_on_c, 3, 58, 36
5, 190261, Note_on_c, 3, 57, 51
5, 190332, Note_on_c, 3, 58, 0
5, 191308, Note_on_c, 3, 59, 64
5, 191324, Note_on_c, 3, 57, 0
5, 192621, Note_on_c, 3, 56, 62
5, 192635, Note_on_c, 3, 59, 0
5, 192935, Note_on_c, 3, 56, 0
5, 193440, Program_c, 3, 45
5, 193543, Note_on_c, 3, 69, 48
5, 193587, Note_on_c, 3, 69, 0
5, 193718, Note_on_c, 3, 69, 38
5, 193758, Note_on_c, 3, 69, 0
5, 193935, Note_on_c, 3, 68, 48
5, 193976, Note_on_c, 3, 68, 0
5, 194400, Program_c, 3, 49
5, 194530, Note_on_c, 3, 65, 52
5, 194852, Note_on_c, 3, 66, 61
5, 194907, Note_on_c, 3, 65, 0
5, 195140, Note_on_c, 3, 59, 65
5, 195153, Note_on_c, 3, 66, 0
5, 195466, Note_on_c, 3, 57, 65
5, 195498, Note_on_c, 3, 59, 0
5, 195741, Note_on_c, 3, 64, 64
5, 195790, Note_on_c, 3, 57, 0
5, 195920, Note_on_c, 3, 62, 67
5, 195955, Note_on_c, 3, 64, 0
5, 196092, Note_on_c, 3, 61, 67
5, 196126, Note_on_c, 3, 62, 0
5, 196308, Note_on_c, 3, 61, 0
5, 196367, Note_on_c, 3, 64, 72
5, 196655, Note_on_c, 3, 63, 61
5, 196677, Note_on_c, 3, 64, 0
5, 196967, Note_on_c, 3, 63, 0
5, 196985, Note_on_c, 3, 64, 54
5, 197248, Note_on_c, 3, 63, 53
5, 197294, Note_on_c, 3, 64, 0
5, 197545, Note_on_c, 3, 63, 0
5, 197592, Note_on_c, 3, 64, 56
5, 197886, Note_on_c, 3, 59, 48
5, 197903, Note_on_c, 3, 64, 0
5, 198198, Note_on_c, 3, 59, 0
5, 198199, Note_on_c, 3, 58, 43
5, 198536, Note_on_c, 3, 59, 46
5, 198573, Note_on_c, 3, 58, 0
5, 198913, Note_on_c, 3, 64, 34
5, 198922, Note_on_c, 3, 59, 0
5, 199344, Note_on_c, 3, 64, 0
5, 199356, Note_on_c, 3, 63, 56
5, 199546, Note_on_c, 3, 63, 0
5, 199557, Note_on_c, 3, 59, 35
5, 199747, Note_on_c, 3, 59, 0
5, 200492, Note_on_c, 3, 63, 74
5, 200633, Note_on_c, 3, 63, 0
5, 200660, Note_on_c, 3, 64, 84
5, 201084, Note_on_c, 3, 64, 0
5, 201084, Note_on_c, 3, 63, 103
5, 201129, Note_on_c, 3, 63, 0
5, 201254, Note_on_c, 3, 64, 104
5, 201332, Note_on_c, 3, 64, 0
5, 201413, Control_c, 3, 11, 100
5, 201413, Note_on_c, 3, 64, 112
5, 201457, Note_on_c, 3, 64, 0
5, 201594, Note_on_c, 3, 68, 119
5, 201717, Note_on_c, 3, 68, 0
5, 201751, Note_on_c, 3, 70, 120
5, 201801, Note_on_c, 3, 70, 0
5, 201928, Note_on_c, 3, 71, 122
5, 202141, Note_on_c, 3, 71, 0
5, 202256, Note_on_c, 3, 63, 116
5, 202297, Note_on_c, 3, 63, 0
5, 202412, Note_on_c, 3, 64, 108
5, 202453, Note_on_c, 3, 64, 0
5, 202576, Note_on_c, 3, 63, 114
5, 202614, Note_on_c, 3, 63, 0
5, 202740, Note_on_c, 3, 71, 109
5, 202776, Note_on_c, 3, 71, 0
5, 202899, Note_on_c, 3, 73, 113
5, 202933, Note_on_c, 3, 73, 0
5, 203069, Note_on_c, 3, 75, 116
5, 203107, Note_on_c, 3, 75, 0
5, 203249, Note_on_c, 3, 76, 117
5, 203554, Note_on_c, 3, 76, 0
5, 203586, Note_on_c, 3, 68, 113
5, 203622, Note_on_c, 3, 68, 0
5, 203751, Note_on_c, 3, 69, 101
5, 203800, Note_on_c, 3, 69, 0
5, 203925, Note_on_c, 3, 68, 113
5, 203962, Note_on_c, 3, 68, 0
5, 204084, Note_on_c, 3, 64, 99
5, 204119, Note_on_c, 3, 64, 0
5, 204265, Note_on_c, 3, 73, 110
5, 204312, Note_on_c, 3, 73, 0
5, 204342, Note_on_c, 3, 75, 100
5, 204405, Note_on_c, 3, 75, 0
5, 204416, Note_on_c, 3, 73, 101
5, 204456, Note_on_c, 3, 73, 0
5, 204489, Note_on_c, 3, 75, 114
5, 204536, Note_on_c, 3, 75, 0
5, 204585, Note_on_c, 3, 76, 121
5, 204625, Note_on_c, 3, 76, 0
5, 204764, Note_on_c, 3, 64, 117
5, 204797, Note_on_c, 3, 64, 0
5, 204928, Note_on_c, 3, 73, 121
5, 204999, Note_on_c, 3, 75, 114
5, 205017, Note_on_c, 3, 73, 0
5, 205086, Note_on_c, 3, 73, 119
5, 205113, Note_on_c, 3, 75, 0
5, 205160, Note_on_c, 3, 75, 115
5, 205184, Note_on_c, 3, 73, 0
5, 205232, Note_on_c, 3, 75, 0
5, 205264, Note_on_c, 3, 76, 121
5, 205305, Note_on_c, 3, 76, 0
5, 205453, Note_on_c, 3, 64, 90
5, 205484, Note_on_c, 3, 64, 0
5, 205607, Note_on_c, 3, 71, 120
5, 205615, Note_on_c, 3, 76, 120
5, 205639, Note_on_c, 3, 71, 0
5, 205664, Note_on_c, 3, 76, 0
5, 205798, Note_on_c, 3, 64, 117
5, 205837, Note_on_c, 3, 64, 0
5, 205966, Note_on_c, 3, 71, 124
5, 205997, Note_on_c, 3, 71, 0
5, 206132, Note_on_c, 3, 63, 121
5, 206164, Note_on_c, 3, 63, 0
5, 206305, Note_on_c, 3, 71, 118
5, 206342, Note_on_c, 3, 71, 0
5, 206473, Note_on_c, 3, 73, 116
5, 206517, Note_on_c, 3, 73, 0
5, 206643, Note_on_c, 3, 71, 109
5, 206679, Note_on_c, 3, 71, 0
5, 206822, Note_on_c, 3, 68, 109
5, 206853, Note_on_c, 3, 68, 0
5, 206996, Note_on_c, 3, 68, 113
5, 207027, Note_on_c, 3, 68, 0
5, 207163, Note_on_c, 3, 68, 124
5, 207196, Note_on_c, 3, 68, 0
5, 207338, Note_on_c, 3, 68, 123
5, 207702, Note_on_c, 3, 68, 0
5, 207711, Note_on_c, 3, 60, 107
5, 207783, Note_on_c, 3, 61, 113
5, 207806, Note_on_c, 3, 60, 0
5, 207870, Note_on_c, 3, 60, 106
5, 207890, Note_on_c, 3, 61, 0
5, 207948, Note_on_c, 3, 63, 108
5, 207955, Note_on_c, 3, 60, 0
5, 208029, Note_on_c, 3, 63, 0
5, 208036, Note_on_c, 3, 64, 90
5, 208110, Note_on_c, 3, 64, 0
5, 208112, Note_on_c, 3, 66, 100
5, 208185, Note_on_c, 3, 66, 0
5, 208203, Note_on_c, 3, 68, 105
5, 208241, Note_on_c, 3, 68, 0
5, 208391, Note_on_c, 3, 68, 127
5, 208426, Note_on_c, 3, 68, 0
5, 208550, Note_on_c, 3, 68, 123
5, 208593, Note_on_c, 3, 68, 0
5, 208716, Note_on_c, 3, 68, 125
5, 209099, Note_on_c, 3, 68, 0
5, 209100, Note_on_c, 3, 60, 107
5, 209163, Note_on_c, 3, 61, 101
5, 209181, Note_on_c, 3, 60, 0
5, 209249, Note_on_c, 3, 60, 94
5, 209256, Note_on_c, 3, 61, 0
5, 209320, Note_on_c, 3, 60, 0
5, 209331, Note_on_c, 3, 63, 98
5, 209400, Note_on_c, 3, 63, 0
5, 209420, Note_on_c, 3, 64, 89
5, 209493, Note_on_c, 3, 64, 0
5, 209497, Note_on_c, 3, 66, 82
5, 209557, Note_on_c, 3, 66, 0
5, 209589, Note_on_c, 3, 68, 94
5, 209626, Note_on_c, 3, 68, 0
5, 209760, Note_on_c, 3, 71, 120
5, 209794, Note_on_c, 3, 71, 0
5, 209930, Note_on_c, 3, 71, 127
5, 209962, Note_on_c, 3, 71, 0
5, 210103, Note_on_c, 3, 71, 126
5, 210449, Note_on_c, 3, 63, 94
5, 210466, Note_on_c, 3, 71, 0
5, 210513, Note_on_c, 3, 64, 80
5, 210517, Note_on_c, 3, 63, 0
5, 210595, Note_on_c, 3, 63, 100
5, 210597, Note_on_c, 3, 64, 0
5, 210630, Note_on_c, 3, 63, 0
5, 210679, Note_on_c, 3, 66, 88
5, 210723, Note_on_c, 3, 66, 0
5, 210760, Note_on_c, 3, 68, 97
5, 210809, Note_on_c, 3, 68, 0
5, 210837, Note_on_c, 3, 69, 86
5, 210884, Note_on_c, 3, 69, 0
5, 210915, Note_on_c, 3, 71, 103
5, 210945, Note_on_c, 3, 71, 0
5, 211081, Note_on_c, 3, 63, 106
5, 211140, Note_on_c, 3, 63, 0
5, 211144, Note_on_c, 3, 64, 77
5, 211221, Note_on_c, 3, 63, 110
5, 211224, Note_on_c, 3, 64, 0
5, 211253, Note_on_c, 3, 63, 0
5, 211290, Note_on_c, 3, 66, 107
5, 211351, Note_on_c, 3, 66, 0
5, 211360, Note_on_c, 3, 68, 103
5, 211416, Note_on_c, 3, 68, 0
5, 211437, Note_on_c, 3, 69, 93
5, 211491, Note_on_c, 3, 69, 0
5, 211519, Note_on_c, 3, 71, 116
5, 211557, Note_on_c, 3, 71, 0
5, 211679, Note_on_c, 3, 63, 120
5, 211743, Note_on_c, 3, 64, 99
5, 211761, Note_on_c, 3, 63, 0
5, 211824, Note_on_c, 3, 63, 123
5, 211830, Note_on_c, 3, 64, 0
5, 211863, Note_on_c, 3, 63, 0
5, 211891, Note_on_c, 3, 66, 112
5, 211939, Note_on_c, 3, 66, 0
5, 211971, Note_on_c, 3, 68, 110
5, 212019, Note_on_c, 3, 68, 0
5, 212042, Note_on_c, 3, 69, 106
5, 212092, Note_on_c, 3, 69, 0
5, 212121, Note_on_c, 3, 71, 116
5, 212166, Note_on_c, 3, 71, 0
5, 212297, Note_on_c, 3, 75, 120
5, 212450, Note_on_c, 3, 75, 0
5, 212463, Note_on_c, 3, 77, 122
5, 212534, Note_on_c, 3, 77, 0
5, 212606, Note_on_c, 3, 78, 120
5, 212675, Note_on_c, 3, 78, 0
5, 212742, Note_on_c, 3, 76, 126
5, 212786, Note_on_c, 3, 76, 0
5, 212907, Note_on_c, 3, 75, 120
5, 212939, Note_on_c, 3, 75, 0
5, 212973, Note_on_c, 3, 75, 108
5, 213008, Note_on_c, 3, 75, 0
5, 213047, Note_on_c, 3, 77, 122
5, 213083, Note_on_c, 3, 77, 0
5, 213115, Note_on_c, 3, 77, 120
5, 213158, Note_on_c, 3, 77, 0
5, 213205, Note_on_c, 3, 78, 120
5, 213242, Note_on_c, 3, 78, 0
5, 213276, Note_on_c, 3, 78, 108
5, 213318, Note_on_c, 3, 78, 0
5, 213359, Note_on_c, 3, 76, 114
5, 213395, Note_on_c, 3, 76, 0
5, 213426, Note_on_c, 3, 76, 118
5, 213478, Note_on_c, 3, 76, 0
5, 213523, Note_on_c, 3, 71, 118
5, 213524, Note_on_c, 3, 78, 116
5, 213552, Note_on_c, 3, 78, 0
5, 213561, Note_on_c, 3, 71, 0
5, 213710, Note_on_c, 3, 59, 124
5, 213980, Note_on_c, 3, 59, 0
5, 214017, Note_on_c, 3, 59, 124
5, 214059, Note_on_c, 3, 59, 0
5, 214179, Note_on_c, 3, 59, 121
5, 214216, Note_on_c, 3, 59, 0
5, 214350, Note_on_c, 3, 59, 122
5, 214560, Control_c, 3, 11, 100
5, 214566, Control_c, 3, 11, 97
5, 214571, Control_c, 3, 11, 95
5, 214576, Control_c, 3, 11, 93
5, 214581, Control_c, 3, 11, 91
5, 214586, Control_c, 3, 11, 90
5, 214591, Control_c, 3, 11, 89
5, 214596, Control_c, 3, 11, 87
5, 214601, Control_c, 3, 11, 85
5, 214606, Control_c, 3, 11, 84
5, 214611, Control_c, 3, 11, 83
5, 214616, Control_c, 3, 11, 82
5, 214621, Control_c, 3, 11, 80
5, 214626, Control_c, 3, 11, 79
5, 214631, Control_c, 3, 11, 78
5, 214636, Control_c, 3, 11, 77
5, 214641, Control_c, 3, 11, 76
5, 214646, Control_c, 3, 11, 75
5, 214651, Control_c, 3, 11, 74
5, 214656, Control_c, 3, 11, 73
5, 214661, Control_c, 3, 11, 72
5, 214666, Control_c, 3, 11, 71
5, 214671, Control_c, 3, 11, 70
5, 214681, Control_c, 3, 11, 69
5, 214686, Control_c, 3, 11, 68
5, 214691, Control_c, 3, 11, 67
5, 214701, Control_c, 3, 11, 66
5, 214706, Control_c, 3, 11, 65
5, 214716, Control_c, 3, 11, 64
5, 214726, Control_c, 3, 11, 63
5, 214731, Control_c, 3, 11, 62
5, 214746, Control_c, 3, 11, 61
5, 214756, Control_c, 3, 11, 60
5, 214766, Control_c, 3, 11, 59
5, 214781, Control_c, 3, 11, 58
5, 214796, Control_c, 3, 11, 57
5, 214811, Control_c, 3, 11, 56
5, 214831, Control_c, 3, 11, 55
5, 214856, Control_c, 3, 11, 54
5, 214881, Control_c, 3, 11, 53
5, 214916, Control_c, 3, 11, 52
5, 214966, Control_c, 3, 11, 51
5, 215041, Control_c, 3, 11, 50
5, 215280, Note_on_c, 3, 59, 0
5, 215280, Note_on_c, 3, 59, 80
5, 216597, Note_on_c, 3, 59, 0
5, 217440, Control_c, 3, 11, 100
5, 219600, Program_c, 3, 45
5, 219818, Note_on_c, 3, 63, 76
5, 219846, Note_on_c, 3, 63, 0
5, 219983, Note_on_c, 3, 63, 80
5, 220024, Note_on_c, 3, 63, 0
5, 220161, Note_on_c, 3, 64, 76
5, 220200, Note_on_c, 3, 64, 0
5, 220320, Program_c, 3, 49
5, 220811, Note_on_c, 3, 63, 77
5, 221105, Note_on_c, 3, 64, 86
5, 221130, Note_on_c, 3, 63, 0
5, 221419, Note_on_c, 3, 56, 89
5, 221440, Note_on_c, 3, 64, 0
5, 221699, Note_on_c, 3, 56, 0
5, 222017, Note_on_c, 3, 69, 92
5, 222304, Note_on_c, 3, 68, 105
5, 222341, Note_on_c, 3, 69, 0
5, 222390, Note_on_c, 3, 68, 0
5, 222474, Note_on_c, 3, 64, 116
5, 222518, Note_on_c, 3, 64, 0
5, 222639, Note_on_c, 3, 69, 125
5, 222642, Note_on_c, 3, 76, 118
5, 222675, Note_on_c, 3, 69, 0
5, 222690, Note_on_c, 3, 76, 0
5, 222793, Note_on_c, 3, 71, 126
5, 222794, Note_on_c, 3, 76, 122
5, 222797, Note_on_c, 3, 68, 125
5, 222842, Note_on_c, 3, 68, 0
5, 222852, Note_on_c, 3, 71, 0
5, 222859, Note_on_c, 3, 76, 0
5, 223251, Note_on_c, 3, 73, 125
5, 223253, Note_on_c, 3, 76, 125
5, 223294, Note_on_c, 3, 76, 0
5, 223310, Note_on_c, 3, 73, 0
5, 223422, Note_on_c, 3, 71, 124
5, 223426, Note_on_c, 3, 76, 125
5, 223479, Note_on_c, 3, 76, 0
5, 223494, Note_on_c, 3, 71, 0
5, 223856, Note_on_c, 3, 69, 124
5, 223858, Note_on_c, 3, 76, 124
5, 223894, Note_on_c, 3, 76, 0
5, 223912, Note_on_c, 3, 69, 0
5, 224030, Note_on_c, 3, 71, 121
5, 224030, Note_on_c, 3, 68, 120
5, 224033, Note_on_c, 3, 76, 127
5, 224094, Note_on_c, 3, 76, 0
5, 224103, Note_on_c, 3, 71, 0
5, 224106, Note_on_c, 3, 68, 0
5, 224457, Note_on_c, 3, 76, 125
5, 224457, Note_on_c, 3, 73, 126
5, 224491, Note_on_c, 3, 76, 0
5, 224518, Note_on_c, 3, 73, 0
5, 224626, Note_on_c, 3, 71, 125
5, 224629, Note_on_c, 3, 76, 127
5, 224676, Note_on_c, 3, 76, 0
5, 224690, Note_on_c, 3, 71, 0
5, 226268, Note_on_c, 3, 63, 64
5, 226444, Note_on_c, 3, 61, 58
5, 226464, Note_on_c, 3, 63, 0
5, 226653, Note_on_c, 3, 61, 0
5, 226947, Note_on_c, 3, 61, 51
5, 227252, Note_on_c, 3, 61, 0
5, 227256, Note_on_c, 3, 60, 55
5, 227397, Note_on_c, 3, 60, 0
5, 227597, Note_on_c, 3, 75, 106
5, 227739, Note_on_c, 3, 73, 110
5, 227758, Note_on_c, 3, 75, 0
5, 227780, Note_on_c, 3, 73, 0
5, 227919, Note_on_c, 3, 73, 114
5, 228023, Note_on_c, 3, 73, 0
5, 228099, Note_on_c, 3, 73, 118
5, 228530, Note_on_c, 3, 73, 0
5, 228557, Note_on_c, 3, 72, 98
5, 228614, Note_on_c, 3, 72, 0
5, 228744, Note_on_c, 3, 73, 114
5, 229056, Note_on_c, 3, 69, 89
5, 229069, Note_on_c, 3, 73, 0
5, 229108, Note_on_c, 3, 69, 0
5, 229237, Note_on_c, 3, 69, 111
5, 229358, Note_on_c, 3, 69, 0
5, 229392, Note_on_c, 3, 69, 76
5, 229543, Note_on_c, 3, 69, 0
5, 229557, Note_on_c, 3, 68, 86
5, 229724, Note_on_c, 3, 66, 98
5, 229770, Note_on_c, 3, 68, 0
5, 229812, Note_on_c, 3, 66, 0
5, 229917, Note_on_c, 3, 69, 111
5, 230083, Note_on_c, 3, 66, 108
5, 230111, Note_on_c, 3, 69, 0
5, 230245, Note_on_c, 3, 66, 0
5, 230248, Note_on_c, 3, 64, 104
5, 230422, Note_on_c, 3, 63, 109
5, 230438, Note_on_c, 3, 64, 0
5, 230508, Note_on_c, 3, 63, 0
5, 230629, Note_on_c, 3, 56, 52
5, 231152, Note_on_c, 3, 56, 0
5, 233277, Note_on_c, 3, 69, 38
5, 233592, Note_on_c, 3, 68, 41
5, 233678, Note_on_c, 3, 69, 0
5, 233892, Note_on_c, 3, 66, 47
5, 233968, Note_on_c, 3, 68, 0
5, 234213, Note_on_c, 3, 64, 56
5, 234240, Note_on_c, 3, 66, 0
5, 234516, Note_on_c, 3, 63, 56
5, 234575, Note_on_c, 3, 64, 0
5, 234807, Note_on_c, 3, 61, 54
5, 234864, Note_on_c, 3, 63, 0
5, 235477, Note_on_c, 3, 60, 46
5, 235525, Note_on_c, 3, 61, 0
5, 235769, Note_on_c, 3, 61, 61
5, 235785, Note_on_c, 3, 60, 0
5, 236087, Note_on_c, 3, 59, 52
5, 236108, Note_on_c, 3, 61, 0
5, 236396, Note_on_c, 3, 57, 38
5, 236457, Note_on_c, 3, 59, 0
5, 236710, Note_on_c, 3, 56, 53
5, 236775, Note_on_c, 3, 57, 0
5, 237008, Note_on_c, 3, 59, 40
5, 237080, Note_on_c, 3, 56, 0
5, 237329, Note_on_c, 3, 57, 41
5, 237377, Note_on_c, 3, 59, 0
5, 237918, Note_on_c, 3, 56, 30
5, 237978, Note_on_c, 3, 57, 0
5, 238139, Note_on_c, 3, 56, 0
5, 239377, Note_on_c, 3, 61, 59
5, 240526, Note_on_c, 3, 61, 0
5, 240557, Note_on_c, 3, 60, 68
5, 241314, Note_on_c, 3, 60, 0
5, 241315, Note_on_c, 3, 63, 74
5, 241956, Note_on_c, 3, 62, 64
5, 242002, Note_on_c, 3, 63, 0
5, 243849, Note_on_c, 3, 64, 71
5, 243873, Note_on_c, 3, 62, 0
5, 244524, Note_on_c, 3, 64, 0
5, 244525, Note_on_c, 3, 65, 71
5, 245830, Note_on_c, 3, 66, 66
5, 245871, Note_on_c, 3, 65, 0
5, 246516, Note_on_c, 3, 66, 0
5, 246574, Note_on_c, 3, 61, 62
5, 247286, Note_on_c, 3, 60, 71
5, 247334, Note_on_c, 3, 61, 0
5, 249283, Note_on_c, 3, 60, 0
5, 249292, Note_on_c, 3, 62, 69
5, 249972, Note_on_c, 3, 63, 83
5, 250073, Note_on_c, 3, 62, 0
5, 251370, Note_on_c, 3, 64, 60
5, 251411, Note_on_c, 3, 63, 0
5, 251488, Note_on_c, 3, 64, 0
5, 251554, Note_on_c, 3, 68, 47
5, 251745, Note_on_c, 3, 67, 39
5, 251746, Note_on_c, 3, 68, 0
5, 251917, Note_on_c, 3, 66, 53
5, 251948, Note_on_c, 3, 67, 0
5, 252098, Note_on_c, 3, 66, 0
5, 252110, Note_on_c, 3, 65, 51
5, 252121, Note_on_c, 3, 71, 47
5, 252241, Note_on_c, 3, 71, 0
5, 252288, Note_on_c, 3, 64, 55
5, 252315, Note_on_c, 3, 65, 0
5, 252449, Note_on_c, 3, 63, 50
5, 252469, Note_on_c, 3, 64, 0
5, 252650, Note_on_c, 3, 62, 52
5, 252678, Note_on_c, 3, 63, 0
5, 252939, Note_on_c, 3, 62, 0
5, 253014, Note_on_c, 3, 67, 63
5, 253374, Note_on_c, 3, 66, 60
5, 253397, Note_on_c, 3, 67, 0
5, 253549, Note_on_c, 3, 65, 45
5, 253582, Note_on_c, 3, 66, 0
5, 253682, Note_on_c, 3, 65, 0
5, 253720, Note_on_c, 3, 66, 66
5, 254070, Note_on_c, 3, 65, 52
5, 254105, Note_on_c, 3, 66, 0
5, 254252, Note_on_c, 3, 66, 49
5, 254279, Note_on_c, 3, 65, 0
5, 254331, Note_on_c, 3, 66, 0
5, 254432, Note_on_c, 3, 61, 59
5, 254645, Note_on_c, 3, 60, 45
5, 254651, Note_on_c, 3, 61, 0
5, 254828, Note_on_c, 3, 59, 50
5, 254862, Note_on_c, 3, 60, 0
5, 255016, Note_on_c, 3, 58, 54
5, 255058, Note_on_c, 3, 59, 0
5, 255185, Note_on_c, 3, 57, 46
5, 255213, Note_on_c, 3, 58, 0
5, 255362, Note_on_c, 3, 56, 58
5, 255405, Note_on_c, 3, 57, 0
5, 255525, Note_on_c, 3, 55, 50
5, 255540, Note_on_c, 3, 56, 0
5, 255746, Note_on_c, 3, 55, 0
5, 255902, Note_on_c, 3, 64, 75
5, 256122, Note_on_c, 3, 63, 88
5, 256154, Note_on_c, 3, 64, 0
5, 256296, Note_on_c, 3, 62, 82
5, 256327, Note_on_c, 3, 63, 0
5, 256459, Note_on_c, 3, 62, 0
5, 256464, Note_on_c, 3, 61, 88
5, 256618, Note_on_c, 3, 61, 0
5, 256632, Note_on_c, 3, 62, 74
5, 256734, Note_on_c, 3, 62, 0
5, 256806, Note_on_c, 3, 64, 80
5, 257151, Note_on_c, 3, 62, 88
5, 257156, Note_on_c, 3, 64, 0
5, 258027, Note_on_c, 3, 62, 0
5, 258068, Note_on_c, 3, 68, 80
5, 258409, Note_on_c, 3, 65, 76
5, 258453, Note_on_c, 3, 68, 0
5, 258750, Note_on_c, 3, 65, 0
5, 258772, Note_on_c, 3, 64, 68
5, 261380, Note_on_c, 3, 63, 72
5, 261385, Note_on_c, 3, 64, 0
5, 261938, Note_on_c, 3, 64, 80
5, 261940, Note_on_c, 3, 63, 0
5, 262595, Note_on_c, 3, 64, 0
5, 262647, Note_on_c, 3, 62, 84
5, 263200, Note_on_c, 3, 62, 0
5, 263327, Note_on_c, 3, 68, 97
5, 263705, Note_on_c, 3, 68, 0
5, 264290, Note_on_c, 3, 59, 73
5, 264337, Note_on_c, 3, 59, 0
5, 264471, Note_on_c, 3, 59, 61
5, 264515, Note_on_c, 3, 59, 0
5, 264643, Note_on_c, 3, 59, 51
5, 264685, Note_on_c, 3, 59, 0
5, 264937, Note_on_c, 3, 59, 60
5, 264992, Note_on_c, 3, 59, 0
5, 265098, Note_on_c, 3, 59, 41
5, 265151, Note_on_c, 3, 59, 0
5, 265264, Note_on_c, 3, 59, 40
5, 265316, Note_on_c, 3, 59, 0
5, 265587, Note_on_c, 3, 59, 52
5, 265696, Note_on_c, 3, 59, 0
5, 265782, Note_on_c, 3, 59, 43
5, 265985, Note_on_c, 3, 58, 59
5, 266016, Note_on_c, 3, 59, 0
5, 266818, Note_on_c, 3, 61, 65
5, 266850, Note_on_c, 3, 58, 0
5, 267148, Note_on_c, 3, 63, 68
5, 267196, Note_on_c, 3, 61, 0
5, 267474, Note_on_c, 3, 64, 71
5, 267520, Note_on_c, 3, 63, 0
5, 267814, Note_on_c, 3, 63, 56
5, 267942, Note_on_c, 3, 64, 0
5, 268126, Note_on_c, 3, 61, 60
5, 268228, Note_on_c, 3, 63, 0
5, 268765, Note_on_c, 3, 61, 0
5, 268856, Note_on_c, 3, 61, 52
5, 269878, Note_on_c, 3, 63, 60
5, 269916, Note_on_c, 3, 61, 0
5, 270230, Note_on_c, 3, 64, 58
5, 270276, Note_on_c, 3, 63, 0
5, 270535, Note_on_c, 3, 63, 58
5, 270589, Note_on_c, 3, 64, 0
5, 270832, Note_on_c, 3, 61, 53
5, 270916, Note_on_c, 3, 63, 0
5, 272615, Note_on_c, 3, 63, 51
5, 272676, Note_on_c, 3, 61, 0
5, 272946, Note_on_c, 3, 64, 43
5, 272983, Note_on_c, 3, 63, 0
5, 273218, Note_on_c, 3, 62, 49
5, 273267, Note_on_c, 3, 64, 0
5, 273570, Note_on_c, 3, 63, 60
5, 273708, Note_on_c, 3, 62, 0
5, 273887, Note_on_c, 3, 64, 55
5, 273937, Note_on_c, 3, 63, 0
5, 274207, Note_on_c, 3, 65, 50
5, 274246, Note_on_c, 3, 64, 0
5, 274505, Note_on_c, 3, 66, 65
5, 274564, Note_on_c, 3, 65, 0
5, 274808, Note_on_c, 3, 67, 63
5, 274844, Note_on_c, 3, 66, 0
5, 275103, Note_on_c, 3, 68, 70
5, 275150, Note_on_c, 3, 67, 0
5, 275412, Note_on_c, 3, 69, 63
5, 275447, Note_on_c, 3, 68, 0
5, 275740, Note_on_c, 3, 70, 78
5, 275770, Note_on_c, 3, 69, 0
5, 276326, Note_on_c, 3, 72, 88
5, 276351, Note_on_c, 3, 70, 0
5, 276627, Note_on_c, 3, 73, 80
5, 276642, Note_on_c, 3, 72, 0
5, 276916, Note_on_c, 3, 73, 0
5, 278122, Note_on_c, 3, 64, 48
5, 279773, Note_on_c, 3, 64, 0
5, 279840, Control_c, 3, 11, 80
5, 279855, Note_on_c, 3, 63, 49
5, 280142, Note_on_c, 3, 63, 0
5, 280247, Note_on_c, 3, 63, 83
5, 280279, Note_on_c, 3, 63, 0
5, 280337, Note_on_c, 3, 63, 68
5, 280364, Note_on_c, 3, 63, 0
5, 280422, Note_on_c, 3, 63, 72
5, 280453, Note_on_c, 3, 63, 0
5, 280485, Note_on_c, 3, 63, 64
5, 280524, Note_on_c, 3, 63, 0
5, 280597, Note_on_c, 3, 63, 61
5, 280803, Note_on_c, 3, 63, 0
5, 280956, Note_on_c, 3, 63, 82
5, 280987, Note_on_c, 3, 63, 0
5, 281041, Note_on_c, 3, 63, 73
5, 281069, Note_on_c, 3, 63, 0
5, 281133, Note_on_c, 3, 63, 70
5, 281158, Note_on_c, 3, 63, 0
5, 281204, Note_on_c, 3, 63, 68
5, 281241, Note_on_c, 3, 63, 0
5, 281315, Note_on_c, 3, 63, 55
5, 281508, Note_on_c, 3, 63, 0
5, 281672, Note_on_c, 3, 63, 85
5, 281704, Note_on_c, 3, 63, 0
5, 281758, Note_on_c, 3, 63, 72
5, 281785, Note_on_c, 3, 63, 0
5, 281840, Note_on_c, 3, 63, 73
5, 281868, Note_on_c, 3, 63, 0
5, 281922, Note_on_c, 3, 63, 70
5, 281954, Note_on_c, 3, 63, 0
5, 282030, Note_on_c, 3, 63, 55
5, 282216, Note_on_c, 3, 63, 0
5, 282373, Note_on_c, 3, 63, 79
5, 282398, Note_on_c, 3, 63, 0
5, 282451, Note_on_c, 3, 63, 67
5, 282480, Note_on_c, 3, 63, 0
5, 282547, Note_on_c, 3, 63, 80
5, 282577, Note_on_c, 3, 63, 0
5, 282627, Note_on_c, 3, 63, 74
5, 282658, Note_on_c, 3, 63, 0
5, 282731, Note_on_c, 3, 63, 65
5, 282931, Note_on_c, 3, 63, 0
5, 283110, Note_on_c, 3, 63, 88
5, 283144, Note_on_c, 3, 63, 0
5, 283196, Note_on_c, 3, 63, 75
5, 283222, Note_on_c, 3, 63, 0
5, 283280, Note_on_c, 3, 63, 76
5, 283309, Note_on_c, 3, 63, 0
5, 283359, Note_on_c, 3, 63, 76
5, 283390, Note_on_c, 3, 63, 0
5, 283465, Note_on_c, 3, 63, 66
5, 283655, Note_on_c, 3, 63, 0
5, 283815, Note_on_c, 3, 63, 86
5, 283845, Note_on_c, 3, 63, 0
5, 283909, Note_on_c, 3, 63, 70
5, 283934, Note_on_c, 3, 63, 0
5, 284010, Note_on_c, 3, 63, 76
5, 284036, Note_on_c, 3, 63, 0
5, 284092, Note_on_c, 3, 63, 72
5, 284118, Note_on_c, 3, 63, 0
5, 284204, Note_on_c, 3, 63, 68
5, 284757, Note_on_c, 3, 63, 0
5, 284763, Note_on_c, 3, 64, 60
5, 284956, Note_on_c, 3, 63, 68
5, 284995, Note_on_c, 3, 64, 0
5, 285233, Note_on_c, 3, 63, 0
5, 285380, Note_on_c, 3, 63, 87
5, 285422, Note_on_c, 3, 63, 0
5, 285490, Note_on_c, 3, 63, 85
5, 285537, Note_on_c, 3, 63, 0
5, 285600, Note_on_c, 3, 61, 76
5, 285651, Note_on_c, 3, 61, 0
5, 285703, Note_on_c, 3, 61, 65
5, 285775, Note_on_c, 3, 61, 0
5, 285822, Note_on_c, 3, 63, 61
5, 286152, Note_on_c, 3, 63, 0
5, 286225, Note_on_c, 3, 65, 76
5, 286257, Note_on_c, 3, 65, 0
5, 286325, Note_on_c, 3, 65, 67
5, 286359, Note_on_c, 3, 65, 0
5, 286433, Note_on_c, 3, 65, 79
5, 286473, Note_on_c, 3, 65, 0
5, 286536, Note_on_c, 3, 65, 71
5, 286593, Note_on_c, 3, 65, 0
5, 286661, Note_on_c, 3, 66, 71
5, 286913, Note_on_c, 3, 66, 0
5, 287039, Note_on_c, 3, 64, 83
5, 287065, Note_on_c, 3, 64, 0
5, 287126, Note_on_c, 3, 64, 78
5, 287167, Note_on_c, 3, 64, 0
5, 287214, Note_on_c, 3, 66, 72
5, 287252, Note_on_c, 3, 66, 0
5, 287297, Note_on_c, 3, 66, 52
5, 287343, Note_on_c, 3, 66, 0
5, 287407, Note_on_c, 3, 64, 58
5, 287596, Note_on_c, 3, 64, 0
5, 287781, Note_on_c, 3, 64, 73
5, 287805, Note_on_c, 3, 64, 0
5, 287864, Note_on_c, 3, 64, 77
5, 287903, Note_on_c, 3, 64, 0
5, 287966, Note_on_c, 3, 64, 74
5, 287991, Note_on_c, 3, 64, 0
5, 288041, Note_on_c, 3, 64, 85
5, 288079, Note_on_c, 3, 64, 0
5, 288155, Note_on_c, 3, 64, 71
5, 288339, Note_on_c, 3, 64, 0
5, 288554, Note_on_c, 3, 64, 76
5, 288582, Note_on_c, 3, 64, 0
5, 288635, Note_on_c, 3, 64, 78
5, 288660, Note_on_c, 3, 64, 0
5, 288725, Note_on_c, 3, 64, 77
5, 288753, Note_on_c, 3, 64, 0
5, 288812, Note_on_c, 3, 64, 84
5, 288845, Note_on_c, 3, 64, 0
5, 288925, Note_on_c, 3, 64, 70
5, 289137, Note_on_c, 3, 64, 0
5, 289302, Note_on_c, 3, 64, 72
5, 289328, Note_on_c, 3, 64, 0
5, 289384, Note_on_c, 3, 64, 67
5, 289409, Note_on_c, 3, 64, 0
5, 289478, Note_on_c, 3, 64, 76
5, 289507, Note_on_c, 3, 64, 0
5, 289564, Note_on_c, 3, 64, 72
5, 289594, Note_on_c, 3, 64, 0
5, 289674, Note_on_c, 3, 64, 68
5, 289882, Note_on_c, 3, 64, 0
5, 290040, Note_on_c, 3, 64, 71
5, 290064, Note_on_c, 3, 64, 0
5, 290128, Note_on_c, 3, 64, 70
5, 290152, Note_on_c, 3, 64, 0
5, 290219, Note_on_c, 3, 64, 74
5, 290246, Note_on_c, 3, 64, 0
5, 290301, Note_on_c, 3, 64, 81
5, 290341, Note_on_c, 3, 64, 0
5, 290424, Note_on_c, 3, 64, 66
5, 291033, Note_on_c, 3, 66, 65
5, 291049, Note_on_c, 3, 64, 0
5, 291164, Note_on_c, 3, 64, 50
5, 291249, Note_on_c, 3, 66, 0
5, 291529, Note_on_c, 3, 64, 0
5, 291569, Note_on_c, 3, 64, 84
5, 291614, Note_on_c, 3, 64, 0
5, 291655, Note_on_c, 3, 64, 57
5, 291699, Note_on_c, 3, 64, 0
5, 291734, Note_on_c, 3, 64, 63
5, 291783, Note_on_c, 3, 64, 0
5, 291817, Note_on_c, 3, 64, 67
5, 291867, Note_on_c, 3, 64, 0
5, 291913, Note_on_c, 3, 64, 66
5, 292123, Note_on_c, 3, 64, 0
5, 292343, Note_on_c, 3, 64, 81
5, 292378, Note_on_c, 3, 64, 0
5, 292419, Note_on_c, 3, 64, 65
5, 292462, Note_on_c, 3, 64, 0
5, 292529, Note_on_c, 3, 64, 77
5, 292571, Note_on_c, 3, 64, 0
5, 292627, Note_on_c, 3, 64, 69
5, 292677, Note_on_c, 3, 64, 0
5, 292792, Note_on_c, 3, 63, 67
5, 293057, Note_on_c, 3, 63, 0
5, 293287, Note_on_c, 3, 62, 84
5, 293321, Note_on_c, 3, 62, 0
5, 293369, Note_on_c, 3, 62, 65
5, 293396, Note_on_c, 3, 62, 0
5, 293480, Note_on_c, 3, 60, 88
5, 293512, Note_on_c, 3, 60, 0
5, 293556, Note_on_c, 3, 60, 77
5, 293600, Note_on_c, 3, 60, 0
5, 293685, Note_on_c, 3, 59, 59
5, 293868, Note_on_c, 3, 59, 0
5, 294060, Note_on_c, 3, 59, 86
5, 294099, Note_on_c, 3, 59, 0
5, 294137, Note_on_c, 3, 59, 65
5, 294182, Note_on_c, 3, 59, 0
5, 294221, Note_on_c, 3, 59, 71
5, 294262, Note_on_c, 3, 59, 0
5, 294298, Note_on_c, 3, 59, 63
5, 294342, Note_on_c, 3, 59, 0
5, 294396, Note_on_c, 3, 59, 68
5, 294648, Note_on_c, 3, 59, 0
5, 294793, Note_on_c, 3, 59, 82
5, 294832, Note_on_c, 3, 59, 0
5, 294879, Note_on_c, 3, 59, 68
5, 294916, Note_on_c, 3, 59, 0
5, 294967, Note_on_c, 3, 59, 70
5, 295006, Note_on_c, 3, 59, 0
5, 295056, Note_on_c, 3, 59, 68
5, 295097, Note_on_c, 3, 59, 0
5, 295157, Note_on_c, 3, 59, 63
5, 295380, Note_on_c, 3, 59, 0
5, 295566, Note_on_c, 3, 59, 78
5, 295603, Note_on_c, 3, 59, 0
5, 295647, Note_on_c, 3, 59, 54
5, 295685, Note_on_c, 3, 59, 0
5, 295749, Note_on_c, 3, 59, 68
5, 295787, Note_on_c, 3, 59, 0
5, 295843, Note_on_c, 3, 59, 60
5, 295876, Note_on_c, 3, 59, 0
5, 295953, Note_on_c, 3, 59, 63
5, 296182, Note_on_c, 3, 59, 0
5, 296362, Note_on_c, 3, 59, 80
5, 296401, Note_on_c, 3, 59, 0
5, 296454, Note_on_c, 3, 59, 62
5, 296487, Note_on_c, 3, 59, 0
5, 296545, Note_on_c, 3, 59, 67
5, 296582, Note_on_c, 3, 59, 0
5, 296640, Note_on_c, 3, 59, 60
5, 296660, Note_on_c, 3, 57, 57
5, 296674, Note_on_c, 3, 59, 0
5, 297021, Note_on_c, 3, 57, 0
5, 297127, Note_on_c, 3, 57, 76
5, 297175, Note_on_c, 3, 57, 0
5, 297216, Note_on_c, 3, 57, 76
5, 297264, Note_on_c, 3, 57, 0
5, 297316, Note_on_c, 3, 57, 71
5, 297365, Note_on_c, 3, 57, 0
5, 297411, Note_on_c, 3, 57, 80
5, 297462, Note_on_c, 3, 57, 0
5, 297536, Note_on_c, 3, 55, 68
5, 297751, Note_on_c, 3, 60, 69
5, 297756, Note_on_c, 3, 55, 0
5, 297900, Note_on_c, 3, 60, 0
5, 297980, Note_on_c, 3, 55, 63
5, 298043, Note_on_c, 3, 55, 0
5, 298082, Note_on_c, 3, 55, 85
5, 298124, Note_on_c, 3, 55, 0
5, 298183, Note_on_c, 3, 55, 76
5, 298226, Note_on_c, 3, 55, 0
5, 298271, Note_on_c, 3, 55, 80
5, 298321, Note_on_c, 3, 55, 0
5, 298414, Note_on_c, 3, 55, 63
5, 298666, Note_on_c, 3, 55, 0
5, 298674, Note_on_c, 3, 56, 64
5, 298889, Note_on_c, 3, 57, 64
5, 298950, Note_on_c, 3, 56, 0
5, 299173, Note_on_c, 3, 58, 55
5, 299230, Note_on_c, 3, 57, 0
5, 299516, Note_on_c, 3, 59, 60
5, 299554, Note_on_c, 3, 58, 0
5, 300389, Note_on_c, 3, 57, 62
5, 300427, Note_on_c, 3, 59, 0
5, 300642, Note_on_c, 3, 55, 65
5, 300682, Note_on_c, 3, 57, 0
5, 300870, Note_on_c, 3, 56, 72
5, 300940, Note_on_c, 3, 55, 0
5, 301071, Note_on_c, 3, 57, 59
5, 301116, Note_on_c, 3, 56, 0
5, 301309, Note_on_c, 3, 58, 53
5, 301397, Note_on_c, 3, 57, 0
5, 301619, Note_on_c, 3, 59, 42
5, 301675, Note_on_c, 3, 58, 0
5, 302026, Note_on_c, 3, 59, 0
5, 302115, Note_on_c, 3, 59, 67
5, 302166, Note_on_c, 3, 59, 0
5, 302221, Note_on_c, 3, 59, 68
5, 302259, Note_on_c, 3, 59, 0
5, 302330, Note_on_c, 3, 59, 65
5, 302373, Note_on_c, 3, 59, 0
5, 302438, Note_on_c, 3, 59, 67
5, 302481, Note_on_c, 3, 59, 0
5, 302603, Note_on_c, 3, 63, 65
5, 302831, Note_on_c, 3, 59, 49
5, 302840, Note_on_c, 3, 63, 0
5, 303025, Note_on_c, 3, 59, 0
5, 303127, Note_on_c, 3, 63, 53
5, 303204, Note_on_c, 3, 63, 0
5, 303270, Note_on_c, 3, 63, 66
5, 303338, Note_on_c, 3, 63, 0
5, 303446, Note_on_c, 3, 63, 55
5, 303544, Note_on_c, 3, 63, 0
5, 303658, Note_on_c, 3, 63, 36
5, 304050, Note_on_c, 3, 66, 36
5, 304096, Note_on_c, 3, 63, 0
5, 306916, Note_on_c, 3, 66, 0
5, 307223, Note_on_c, 3, 63, 42
5, 307554, Note_on_c, 3, 61, 46
5, 307669, Note_on_c, 3, 63, 0
5, 307792, Note_on_c, 3, 59, 49
5, 307852, Note_on_c, 3, 61, 0
5, 308004, Note_on_c, 3, 57, 46
5, 308025, Note_on_c, 3, 59, 0
5, 308220, Note_on_c, 3, 56, 57
5, 308248, Note_on_c, 3, 57, 0
5, 308522, Note_on_c, 3, 56, 0
5, 308657, Note_on_c, 3, 56, 82
5, 308694, Note_on_c, 3, 56, 0
5, 308755, Note_on_c, 3, 56, 75
5, 308787, Note_on_c, 3, 56, 0
5, 308850, Note_on_c, 3, 56, 72
5, 308885, Note_on_c, 3, 56, 0
5, 308938, Note_on_c, 3, 56, 60
5, 308975, Note_on_c, 3, 56, 0
5, 309038, Note_on_c, 3, 56, 69
5, 309315, Note_on_c, 3, 56, 0
5, 309461, Note_on_c, 3, 56, 75
5, 309495, Note_on_c, 3, 56, 0
5, 309552, Note_on_c, 3, 56, 71
5, 309586, Note_on_c, 3, 56, 0
5, 309641, Note_on_c, 3, 56, 67
5, 309672, Note_on_c, 3, 56, 0
5, 309727, Note_on_c, 3, 56, 59
5, 309765, Note_on_c, 3, 56, 0
5, 309834, Note_on_c, 3, 56, 60
5, 310078, Note_on_c, 3, 56, 0
5, 310230, Note_on_c, 3, 56, 76
5, 310267, Note_on_c, 3, 56, 0
5, 310317, Note_on_c, 3, 56, 72
5, 310360, Note_on_c, 3, 56, 0
5, 310417, Note_on_c, 3, 56, 62
5, 310456, Note_on_c, 3, 56, 0
5, 310509, Note_on_c, 3, 56, 58
5, 310550, Note_on_c, 3, 56, 0
5, 310615, Note_on_c, 3, 56, 53
5, 310847, Note_on_c, 3, 56, 0
5, 311034, Note_on_c, 3, 56, 78
5, 311076, Note_on_c, 3, 56, 0
5, 311118, Note_on_c, 3, 56, 69
5, 311167, Note_on_c, 3, 56, 0
5, 311223, Note_on_c, 3, 56, 62
5, 311265, Note_on_c, 3, 56, 0
5, 311308, Note_on_c, 3, 56, 54
5, 311355, Note_on_c, 3, 56, 0
5, 311430, Note_on_c, 3, 56, 51
5, 311693, Note_on_c, 3, 56, 0
5, 311823, Note_on_c, 3, 56, 66
5, 312015, Note_on_c, 3, 57, 48
5, 312044, Note_on_c, 3, 56, 0
5, 312189, Note_on_c, 3, 56, 69
5, 312242, Note_on_c, 3, 57, 0
5, 312420, Note_on_c, 3, 56, 0
5, 312587, Note_on_c, 3, 56, 98
5, 312626, Note_on_c, 3, 56, 0
5, 312668, Note_on_c, 3, 56, 83
5, 312707, Note_on_c, 3, 56, 0
5, 312746, Note_on_c, 3, 56, 86
5, 312786, Note_on_c, 3, 56, 0
5, 312827, Note_on_c, 3, 56, 100
5, 312877, Note_on_c, 3, 56, 0
5, 312945, Note_on_c, 3, 59, 107
5, 313074, Note_on_c, 3, 59, 0
5, 313259, Note_on_c, 3, 59, 107
5, 313615, Note_on_c, 3, 59, 0
5, 313628, Note_on_c, 3, 57, 109
5, 313946, Note_on_c, 3, 58, 123
5, 313976, Note_on_c, 3, 57, 0
5, 314322, Note_on_c, 3, 59, 117
5, 314354, Note_on_c, 3, 58, 0
5, 314438, Note_on_c, 3, 59, 0
5, 315360, Control_c, 3, 11, 100
5, 315776, Note_on_c, 3, 74, 127
5, 315865, Note_on_c, 3, 74, 0
5, 315956, Note_on_c, 3, 73, 127
5, 316034, Note_on_c, 3, 73, 0
5, 316131, Note_on_c, 3, 76, 127
5, 316176, Note_on_c, 3, 76, 0
5, 316294, Note_on_c, 3, 64, 93
5, 316309, Note_on_c, 3, 71, 124
5, 316322, Note_on_c, 3, 76, 127
5, 316411, Note_on_c, 3, 64, 0
5, 316420, Note_on_c, 3, 71, 0
5, 316421, Note_on_c, 3, 76, 0
5, 316689, Note_on_c, 3, 71, 127
5, 316690, Note_on_c, 3, 81, 126
5, 317072, Note_on_c, 3, 71, 0
5, 317117, Note_on_c, 3, 80, 118
5, 317117, Note_on_c, 3, 71, 124
5, 317147, Note_on_c, 3, 81, 0
5, 317188, Note_on_c, 3, 80, 0
5, 317190, Note_on_c, 3, 71, 0
5, 317760, Program_c, 3, 45
5, 318029, Note_on_c, 3, 56, 69
5, 318068, Note_on_c, 3, 56, 0
5, 318652, Note_on_c, 3, 56, 75
5, 318689, Note_on_c, 3, 56, 0
5, 318949, Note_on_c, 3, 56, 81
5, 318988, Note_on_c, 3, 56, 0
5, 319250, Note_on_c, 3, 56, 79
5, 319291, Note_on_c, 3, 56, 0
5, 322080, Program_c, 3, 49
5, 322366, Note_on_c, 3, 68, 104
5, 322423, Note_on_c, 3, 83, 116
5, 322425, Note_on_c, 3, 76, 116
5, 322443, Note_on_c, 3, 81, 71
5, 322466, Note_on_c, 3, 68, 0
5, 322473, Note_on_c, 3, 81, 0
5, 322540, Note_on_c, 3, 76, 0
5, 322551, Note_on_c, 3, 83, 0
5, 322560, Program_c, 3, 45
5, 323046, Note_on_c, 3, 56, 57
5, 323083, Note_on_c, 3, 56, 0
5, 323662, Note_on_c, 3, 56, 54
5, 323692, Note_on_c, 3, 56, 0
5, 323967, Note_on_c, 3, 56, 68
5, 324001, Note_on_c, 3, 56, 0
5, 324270, Note_on_c, 3, 56, 69
5, 324316, Note_on_c, 3, 56, 0
5, 327120, Program_c, 3, 49
5, 327537, Note_on_c, 3, 59, 59
5, 327856, Note_on_c, 3, 61, 72
5, 327879, Note_on_c, 3, 59, 0
5, 329163, Note_on_c, 3, 61, 0
5, 329205, Note_on_c, 3, 63, 80
5, 330501, Note_on_c, 3, 63, 0
5, 330515, Note_on_c, 3, 64, 72
5, 331654, Note_on_c, 3, 64, 0
5, 332289, Note_on_c, 3, 68, 63
5, 332655, Note_on_c, 3, 69, 45
5, 332688, Note_on_c, 3, 68, 0
5, 333126, Note_on_c, 3, 68, 33
5, 333254, Note_on_c, 3, 69, 0
5, 333547, Note_on_c, 3, 66, 61
5, 333613, Note_on_c, 3, 68, 0
5, 334179, Note_on_c, 3, 64, 54
5, 334242, Note_on_c, 3, 66, 0
5, 334757, Note_on_c, 3, 64, 0
5, 334847, Note_on_c, 3, 64, 58
5, 335463, Note_on_c, 3, 63, 63
5, 335526, Note_on_c, 3, 64, 0
5, 335743, Note_on_c, 3, 64, 50
5, 335786, Note_on_c, 3, 63, 0
5, 336032, Note_on_c, 3, 64, 0
5, 336058, Note_on_c, 3, 66, 56
5, 336680, Note_on_c, 3, 64, 60
5, 336724, Note_on_c, 3, 66, 0
5, 337225, Note_on_c, 3, 64, 0
5, 337285, Note_on_c, 3, 64, 60
5, 337902, Note_on_c, 3, 64, 0
5, 337908, Note_on_c, 3, 57, 60
5, 338187, Note_on_c, 3, 56, 64
5, 338242, Note_on_c, 3, 57, 0
5, 338314, Note_on_c, 3, 56, 0
5, 338512, Note_on_c, 3, 58, 72
5, 339999, Note_on_c, 3, 63, 55
5, 340008, Note_on_c, 3, 57, 34
5, 340042, Note_on_c, 3, 58, 0
5, 340568, Note_on_c, 3, 56, 37
5, 340570, Note_on_c, 3, 64, 39
5, 340579, Note_on_c, 3, 63, 0
5, 340643, Note_on_c, 3, 57, 0
5, 340751, Note_on_c, 3, 56, 0
5, 340754, Note_on_c, 3, 64, 0
5, 340906, Note_on_c, 3, 58, 38
5, 342401, Note_on_c, 3, 57, 31
5, 342405, Note_on_c, 3, 63, 52
5, 342469, Note_on_c, 3, 58, 0
5, 342955, Note_on_c, 3, 56, 60
5, 342980, Note_on_c, 3, 63, 0
5, 343037, Note_on_c, 3, 57, 0
5, 343559, Note_on_c, 3, 59, 60
5, 343628, Note_on_c, 3, 56, 0
5, 343900, Note_on_c, 3, 62, 75
5, 344003, Note_on_c, 3, 59, 0
5, 344213, Note_on_c, 3, 61, 77
5, 344224, Note_on_c, 3, 62, 0
5, 344497, Note_on_c, 3, 60, 57
5, 344519, Note_on_c, 3, 61, 0
5, 344804, Note_on_c, 3, 59, 48
5, 344816, Note_on_c, 3, 60, 0
5, 346028, Note_on_c, 3, 62, 57
5, 346055, Note_on_c, 3, 59, 0
5, 346610, Note_on_c, 3, 61, 67
5, 346664, Note_on_c, 3, 62, 0
5, 346911, Note_on_c, 3, 60, 65
5, 346941, Note_on_c, 3, 61, 0
5, 347235, Note_on_c, 3, 59, 51
5, 347269, Note_on_c, 3, 60, 0
5, 347712, Note_on_c, 3, 59, 0
5, 347760, Program_c, 3, 45
5, 347862, Note_on_c, 3, 59, 51
5, 347897, Note_on_c, 3, 59, 0
5, 348029, Note_on_c, 3, 64, 37
5, 348059, Note_on_c, 3, 64, 0
5, 348169, Note_on_c, 3, 63, 55
5, 348214, Note_on_c, 3, 63, 0
5, 348324, Note_on_c, 3, 66, 63
5, 348353, Note_on_c, 3, 66, 0
5, 348462, Note_on_c, 3, 59, 56
5, 348505, Note_on_c, 3, 59, 0
5, 348631, Note_on_c, 3, 64, 51
5, 348665, Note_on_c, 3, 64, 0
5, 348768, Note_on_c, 3, 63, 68
5, 348824, Note_on_c, 3, 63, 0
5, 348915, Note_on_c, 3, 66, 67
5, 348968, Note_on_c, 3, 66, 0
5, 349057, Note_on_c, 3, 64, 50
5, 349093, Note_on_c, 3, 64, 0
5, 349209, Note_on_c, 3, 64, 47
5, 349242, Note_on_c, 3, 64, 0
5, 349457, Note_on_c, 3, 64, 65
5, 349488, Note_on_c, 3, 64, 0
5, 349753, Note_on_c, 3, 61, 77
5, 349786, Note_on_c, 3, 61, 0
5, 350045, Note_on_c, 3, 59, 37
5, 350078, Note_on_c, 3, 59, 0
5, 350199, Note_on_c, 3, 59, 44
5, 350231, Note_on_c, 3, 59, 0
5, 350349, Note_on_c, 3, 64, 55
5, 350376, Note_on_c, 3, 64, 0
5, 350498, Note_on_c, 3, 63, 66
5, 350528, Note_on_c, 3, 63, 0
5, 350653, Note_on_c, 3, 66, 43
5, 350681, Note_on_c, 3, 66, 0
5, 350791, Note_on_c, 3, 59, 57
5, 350831, Note_on_c, 3, 59, 0
5, 350942, Note_on_c, 3, 64, 62
5, 350976, Note_on_c, 3, 64, 0
5, 351085, Note_on_c, 3, 63, 65
5, 351124, Note_on_c, 3, 63, 0
5, 351225, Note_on_c, 3, 66, 55
5, 351267, Note_on_c, 3, 66, 0
5, 351380, Note_on_c, 3, 64, 65
5, 351420, Note_on_c, 3, 64, 0
5, 351538, Note_on_c, 3, 64, 55
5, 351562, Note_on_c, 3, 64, 0
5, 351813, Note_on_c, 3, 68, 47
5, 351836, Note_on_c, 3, 68, 0
5, 352117, Note_on_c, 3, 66, 70
5, 352140, Note_on_c, 3, 66, 0
5, 352373, Note_on_c, 3, 66, 68
5, 352399, Note_on_c, 3, 66, 0
5, 352519, Note_on_c, 3, 68, 70
5, 352551, Note_on_c, 3, 68, 0
5, 352800, Program_c, 3, 49
5, 352905, Note_on_c, 3, 56, 89
5, 353199, Note_on_c, 3, 56, 0
5, 353226, Note_on_c, 3, 56, 89
5, 353485, Note_on_c, 3, 56, 0
5, 353531, Note_on_c, 3, 56, 116
5, 353566, Note_on_c, 3, 56, 0
5, 353691, Note_on_c, 3, 56, 121
5, 353725, Note_on_c, 3, 56, 0
5, 353853, Note_on_c, 3, 59, 93
5, 354445, Note_on_c, 3, 59, 0
5, 354496, Note_on_c, 3, 59, 114
5, 354759, Note_on_c, 3, 59, 0
5, 354808, Note_on_c, 3, 59, 124
5, 354846, Note_on_c, 3, 59, 0
5, 354964, Note_on_c, 3, 59, 126
5, 355000, Note_on_c, 3, 59, 0
5, 355134, Note_on_c, 3, 56, 120
5, 355200, Control_c, 3, 11, 100
5, 355205, Control_c, 3, 11, 96
5, 355210, Control_c, 3, 11, 93
5, 355215, Control_c, 3, 11, 91
5, 355220, Control_c, 3, 11, 89
5, 355225, Control_c, 3, 11, 86
5, 355230, Control_c, 3, 11, 84
5, 355235, Control_c, 3, 11, 83
5, 355240, Control_c, 3, 11, 80
5, 355245, Control_c, 3, 11, 78
5, 355250, Control_c, 3, 11, 77
5, 355255, Control_c, 3, 11, 75
5, 355260, Control_c, 3, 11, 74
5, 355265, Control_c, 3, 11, 73
5, 355270, Control_c, 3, 11, 71
5, 355275, Control_c, 3, 11, 70
5, 355280, Control_c, 3, 11, 69
5, 355285, Control_c, 3, 11, 68
5, 355290, Control_c, 3, 11, 67
5, 355295, Control_c, 3, 11, 66
5, 355300, Control_c, 3, 11, 65
5, 355305, Control_c, 3, 11, 64
5, 355310, Control_c, 3, 11, 63
5, 355315, Control_c, 3, 11, 62
5, 355325, Control_c, 3, 11, 61
5, 355330, Control_c, 3, 11, 60
5, 355340, Control_c, 3, 11, 59
5, 355350, Control_c, 3, 11, 58
5, 355360, Control_c, 3, 11, 57
5, 355370, Control_c, 3, 11, 56
5, 355385, Control_c, 3, 11, 55
5, 355400, Control_c, 3, 11, 54
5, 355420, Control_c, 3, 11, 53
5, 355440, Control_c, 3, 11, 52
5, 355475, Control_c, 3, 11, 51
5, 355525, Control_c, 3, 11, 50
5, 355545, Control_c, 3, 11, 51
5, 355565, Control_c, 3, 11, 52
5, 355585, Control_c, 3, 11, 53
5, 355605, Control_c, 3, 11, 54
5, 355620, Control_c, 3, 11, 55
5, 355640, Control_c, 3, 11, 56
5, 355660, Control_c, 3, 11, 57
5, 355680, Control_c, 3, 11, 58
5, 355695, Control_c, 3, 11, 59
5, 355715, Control_c, 3, 11, 60
5, 355735, Control_c, 3, 11, 61
5, 355755, Control_c, 3, 11, 62
5, 355775, Control_c, 3, 11, 63
5, 355790, Control_c, 3, 11, 64
5, 355810, Control_c, 3, 11, 65
5, 355830, Control_c, 3, 11, 66
5, 355850, Control_c, 3, 11, 67
5, 355865, Control_c, 3, 11, 68
5, 355885, Control_c, 3, 11, 69
5, 355905, Control_c, 3, 11, 70
5, 355925, Control_c, 3, 11, 71
5, 355945, Control_c, 3, 11, 72
5, 355960, Control_c, 3, 11, 73
5, 355980, Control_c, 3, 11, 74
5, 356000, Control_c, 3, 11, 75
5, 356020, Control_c, 3, 11, 76
5, 356035, Control_c, 3, 11, 77
5, 356055, Control_c, 3, 11, 78
5, 356075, Control_c, 3, 11, 79
5, 356095, Control_c, 3, 11, 80
5, 356115, Control_c, 3, 11, 81
5, 356130, Control_c, 3, 11, 82
5, 356150, Control_c, 3, 11, 83
5, 356170, Control_c, 3, 11, 84
5, 356190, Control_c, 3, 11, 85
5, 356205, Control_c, 3, 11, 86
5, 356225, Control_c, 3, 11, 87
5, 356245, Control_c, 3, 11, 88
5, 356265, Control_c, 3, 11, 89
5, 356285, Control_c, 3, 11, 90
5, 356300, Control_c, 3, 11, 91
5, 356320, Control_c, 3, 11, 92
5, 356340, Control_c, 3, 11, 93
5, 356360, Control_c, 3, 11, 94
5, 356375, Control_c, 3, 11, 95
5, 356395, Control_c, 3, 11, 96
5, 356415, Control_c, 3, 11, 97
5, 356435, Control_c, 3, 11, 98
5, 356455, Control_c, 3, 11, 99
5, 356470, Control_c, 3, 11, 100
5, 356470, Note_on_c, 3, 59, 118
5, 356499, Note_on_c, 3, 56, 0
5, 356653, Note_on_c, 3, 59, 0
5, 357114, Note_on_c, 3, 76, 127
5, 357120, Note_on_c, 3, 71, 125
5, 357169, Note_on_c, 3, 71, 0
5, 357199, Note_on_c, 3, 76, 0
5, 357277, Note_on_c, 3, 64, 118
5, 357283, Note_on_c, 3, 71, 121
5, 357286, Note_on_c, 3, 76, 126
5, 357657, Note_on_c, 3, 76, 0
5, 357664, Note_on_c, 3, 64, 0
5, 357686, Note_on_c, 3, 71, 0
5, 357723, Note_on_c, 3, 64, 111
5, 357823, Note_on_c, 3, 71, 122
5, 357831, Note_on_c, 3, 80, 118
5, 358160, Note_on_c, 3, 80, 0
5, 358197, Note_on_c, 3, 71, 0
5, 358204, Note_on_c, 3, 64, 0
5, 358321, Note_on_c, 3, 64, 122
5, 358441, Note_on_c, 3, 64, 0
5, 358537, Note_on_c, 3, 64, 126
5, 360397, Note_on_c, 3, 64, 0
5, 361440, End_track
6, 0, Start_track
6, 0, Title_t, "Viole"
6, 0, MIDI_port, 0
6, 100, Control_c, 4, 0, 0
6, 120, Control_c, 4, 32, 0
6, 140, Program_c, 4, 49
6, 160, Control_c, 4, 10, 79
6, 180, Control_c, 4, 7, 100
6, 200, Control_c, 4, 11, 100
6, 220, Control_c, 4, 1, 19
6, 240, Control_c, 4, 91, 60
6, 260, Control_c, 4, 93, 38
6, 280, Control_c, 4, 101, 0
6, 300, Control_c, 4, 100, 0
6, 320, Control_c, 4, 6, 12
6, 340, Pitch_bend_c, 4, 8208
6, 360, Control_c, 4, 99, 1
6, 380, Control_c, 4, 98, 32
6, 400, Control_c, 4, 6, 62
6, 420, Control_c, 4, 98, 33
6, 440, Control_c, 4, 6, 60
6, 460, Control_c, 4, 98, 99
6, 480, Control_c, 4, 6, 57
6, 500, Control_c, 4, 98, 100
6, 520, Control_c, 4, 6, 64
6, 540, Control_c, 4, 98, 102
6, 560, Control_c, 4, 6, 66
6, 580, Control_c, 4, 99, 1
6, 600, Control_c, 4, 98, 8
6, 620, Control_c, 4, 6, 90
6, 640, Control_c, 4, 98, 9
6, 660, Control_c, 4, 6, 50
6, 680, Control_c, 4, 98, 10
6, 705, Control_c, 4, 6, 70
6, 8904, Note_on_c, 4, 52, 86
6, 9482, Note_on_c, 4, 59, 74
6, 9484, Note_on_c, 4, 52, 0
6, 9603, Note_on_c, 4, 59, 0
6, 15840, Control_c, 4, 11, 80
6, 18240, Program_c, 4, 45
6, 18439, Note_on_c, 4, 59, 53
6, 18461, Note_on_c, 4, 59, 0
6, 18576, Note_on_c, 4, 59, 64
6, 18607, Note_on_c, 4, 59, 0
6, 18745, Note_on_c, 4, 59, 74
6, 18773, Note_on_c, 4, 59, 0
6, 19200, Program_c, 4, 49
6, 19380, Note_on_c, 4, 59, 70
6, 20552, Note_on_c, 4, 61, 69
6, 20634, Note_on_c, 4, 59, 0
6, 20872, Note_on_c, 4, 59, 51
6, 20930, Note_on_c, 4, 61, 0
6, 21173, Note_on_c, 4, 59, 0
6, 23520, Program_c, 4, 45
6, 23625, Note_on_c, 4, 59, 66
6, 23655, Note_on_c, 4, 59, 0
6, 23785, Note_on_c, 4, 57, 73
6, 23810, Note_on_c, 4, 57, 0
6, 23934, Note_on_c, 4, 61, 79
6, 23956, Note_on_c, 4, 61, 0
6, 24156, Note_on_c, 4, 61, 70
6, 24180, Note_on_c, 4, 61, 0
6, 24480, Program_c, 4, 49
6, 24890, Note_on_c, 4, 59, 70
6, 25192, Note_on_c, 4, 57, 68
6, 25250, Note_on_c, 4, 59, 0
6, 25805, Note_on_c, 4, 56, 80
6, 25841, Note_on_c, 4, 57, 0
6, 25968, Note_on_c, 4, 52, 79
6, 25984, Note_on_c, 4, 56, 0
6, 26131, Note_on_c, 4, 54, 72
6, 26224, Note_on_c, 4, 52, 0
6, 26425, Note_on_c, 4, 56, 78
6, 26432, Note_on_c, 4, 54, 0
6, 26783, Note_on_c, 4, 54, 70
6, 26811, Note_on_c, 4, 56, 0
6, 27654, Note_on_c, 4, 56, 61
6, 27694, Note_on_c, 4, 54, 0
6, 27959, Note_on_c, 4, 54, 53
6, 27991, Note_on_c, 4, 56, 0
6, 28865, Note_on_c, 4, 54, 0
6, 31680, Program_c, 4, 45
6, 36594, Note_on_c, 4, 66, 67
6, 36620, Note_on_c, 4, 66, 0
6, 36761, Note_on_c, 4, 66, 70
6, 36794, Note_on_c, 4, 66, 0
6, 36949, Note_on_c, 4, 64, 65
6, 36986, Note_on_c, 4, 64, 0
6, 37200, Program_c, 4, 49
6, 37252, Note_on_c, 4, 59, 78
6, 37552, Note_on_c, 4, 56, 75
6, 37636, Note_on_c, 4, 59, 0
6, 37881, Note_on_c, 4, 54, 72
6, 37949, Note_on_c, 4, 56, 0
6, 38166, Note_on_c, 4, 56, 66
6, 38216, Note_on_c, 4, 54, 0
6, 38478, Note_on_c, 4, 57, 71
6, 38514, Note_on_c, 4, 56, 0
6, 38775, Note_on_c, 4, 59, 75
6, 38811, Note_on_c, 4, 57, 0
6, 39102, Note_on_c, 4, 59, 0
6, 39104, Note_on_c, 4, 61, 79
6, 39359, Note_on_c, 4, 61, 0
6, 39401, Note_on_c, 4, 54, 79
6, 40230, Note_on_c, 4, 54, 0
6, 40276, Note_on_c, 4, 59, 78
6, 40598, Note_on_c, 4, 61, 74
6, 40641, Note_on_c, 4, 59, 0
6, 40908, Note_on_c, 4, 59, 63
6, 40932, Note_on_c, 4, 61, 0
6, 41235, Note_on_c, 4, 58, 58
6, 41389, Note_on_c, 4, 59, 0
6, 41576, Note_on_c, 4, 57, 52
6, 41694, Note_on_c, 4, 58, 0
6, 41960, Note_on_c, 4, 56, 46
6, 42013, Note_on_c, 4, 57, 0
6, 42132, Note_on_c, 4, 56, 0
6, 42180, Note_on_c, 4, 61, 72
6, 42418, Note_on_c, 4, 63, 60
6, 42448, Note_on_c, 4, 61, 0
6, 42492, Note_on_c, 4, 63, 0
6, 42616, Note_on_c, 4, 59, 60
6, 43525, Note_on_c, 4, 57, 81
6, 43540, Note_on_c, 4, 59, 0
6, 43620, Note_on_c, 4, 57, 0
6, 43698, Note_on_c, 4, 56, 93
6, 43745, Note_on_c, 4, 56, 0
6, 43843, Note_on_c, 4, 59, 97
6, 43896, Note_on_c, 4, 59, 0
6, 44011, Note_on_c, 4, 54, 100
6, 44299, Note_on_c, 4, 54, 0
6, 44313, Note_on_c, 4, 56, 93
6, 44423, Note_on_c, 4, 56, 0
6, 44467, Control_c, 4, 11, 100
6, 44467, Note_on_c, 4, 64, 126
6, 44500, Note_on_c, 4, 64, 0
6, 44660, Note_on_c, 4, 64, 126
6, 44976, Note_on_c, 4, 64, 0
6, 44986, Note_on_c, 4, 66, 118
6, 45025, Note_on_c, 4, 66, 0
6, 45154, Note_on_c, 4, 68, 118
6, 45199, Note_on_c, 4, 68, 0
6, 45315, Note_on_c, 4, 66, 115
6, 45443, Note_on_c, 4, 66, 0
6, 45481, Note_on_c, 4, 68, 112
6, 45531, Note_on_c, 4, 68, 0
6, 45537, Note_on_c, 4, 70, 113
6, 45583, Note_on_c, 4, 70, 0
6, 45613, Note_on_c, 4, 71, 116
6, 45672, Note_on_c, 4, 71, 0
6, 45787, Note_on_c, 4, 59, 118
6, 45822, Note_on_c, 4, 59, 0
6, 45954, Note_on_c, 4, 69, 121
6, 46285, Note_on_c, 4, 69, 0
6, 46300, Note_on_c, 4, 71, 116
6, 46349, Note_on_c, 4, 71, 0
6, 46472, Note_on_c, 4, 73, 120
6, 46520, Note_on_c, 4, 73, 0
6, 46642, Note_on_c, 4, 71, 116
6, 46768, Note_on_c, 4, 71, 0
6, 46803, Note_on_c, 4, 73, 119
6, 46858, Note_on_c, 4, 75, 119
6, 46873, Note_on_c, 4, 73, 0
6, 46928, Note_on_c, 4, 75, 0
6, 46951, Note_on_c, 4, 76, 118
6, 46999, Note_on_c, 4, 76, 0
6, 47125, Note_on_c, 4, 64, 113
6, 47161, Note_on_c, 4, 64, 0
6, 47288, Note_on_c, 4, 64, 120
6, 47357, Note_on_c, 4, 66, 115
6, 47381, Note_on_c, 4, 64, 0
6, 47461, Note_on_c, 4, 64, 107
6, 47465, Note_on_c, 4, 66, 0
6, 47515, Note_on_c, 4, 64, 0
6, 47524, Note_on_c, 4, 66, 114
6, 47572, Note_on_c, 4, 66, 0
6, 47613, Note_on_c, 4, 68, 119
6, 47656, Note_on_c, 4, 68, 0
6, 47799, Note_on_c, 4, 64, 116
6, 47835, Note_on_c, 4, 64, 0
6, 47973, Note_on_c, 4, 64, 117
6, 48042, Note_on_c, 4, 66, 114
6, 48061, Note_on_c, 4, 64, 0
6, 48127, Note_on_c, 4, 66, 0
6, 48137, Note_on_c, 4, 64, 101
6, 48194, Note_on_c, 4, 64, 0
6, 48215, Note_on_c, 4, 66, 103
6, 48263, Note_on_c, 4, 66, 0
6, 48316, Note_on_c, 4, 68, 119
6, 48354, Note_on_c, 4, 68, 0
6, 48498, Note_on_c, 4, 64, 117
6, 48535, Note_on_c, 4, 64, 0
6, 48666, Note_on_c, 4, 68, 119
6, 48706, Note_on_c, 4, 68, 0
6, 48836, Note_on_c, 4, 64, 117
6, 48875, Note_on_c, 4, 64, 0
6, 49012, Note_on_c, 4, 68, 121
6, 49060, Note_on_c, 4, 68, 0
6, 49185, Note_on_c, 4, 63, 116
6, 49216, Note_on_c, 4, 63, 0
6, 49347, Note_on_c, 4, 68, 126
6, 49385, Note_on_c, 4, 68, 0
6, 49516, Note_on_c, 4, 70, 115
6, 49553, Note_on_c, 4, 70, 0
6, 49688, Note_on_c, 4, 68, 121
6, 49722, Note_on_c, 4, 68, 0
6, 49862, Note_on_c, 4, 68, 123
6, 49895, Note_on_c, 4, 68, 0
6, 50034, Note_on_c, 4, 68, 127
6, 50070, Note_on_c, 4, 68, 0
6, 50191, Note_on_c, 4, 68, 124
6, 50227, Note_on_c, 4, 68, 0
6, 50373, Note_on_c, 4, 68, 125
6, 50713, Note_on_c, 4, 66, 115
6, 50780, Note_on_c, 4, 68, 0
6, 51068, Note_on_c, 4, 66, 0
6, 51073, Note_on_c, 4, 64, 97
6, 51147, Note_on_c, 4, 63, 104
6, 51154, Note_on_c, 4, 64, 0
6, 51211, Note_on_c, 4, 61, 100
6, 51233, Note_on_c, 4, 63, 0
6, 51317, Note_on_c, 4, 61, 0
6, 51406, Note_on_c, 4, 68, 110
6, 51438, Note_on_c, 4, 68, 0
6, 51581, Note_on_c, 4, 68, 121
6, 51621, Note_on_c, 4, 68, 0
6, 51754, Note_on_c, 4, 68, 121
6, 52074, Note_on_c, 4, 68, 0
6, 52121, Note_on_c, 4, 66, 101
6, 52465, Note_on_c, 4, 66, 0
6, 52468, Note_on_c, 4, 64, 98
6, 52540, Note_on_c, 4, 63, 94
6, 52546, Note_on_c, 4, 64, 0
6, 52613, Note_on_c, 4, 61, 95
6, 52627, Note_on_c, 4, 63, 0
6, 52683, Note_on_c, 4, 61, 0
6, 52808, Note_on_c, 4, 59, 111
6, 52839, Note_on_c, 4, 59, 0
6, 52963, Note_on_c, 4, 59, 125
6, 53000, Note_on_c, 4, 59, 0
6, 53129, Note_on_c, 4, 59, 127
6, 53481, Note_on_c, 4, 69, 94
6, 53540, Note_on_c, 4, 59, 0
6, 53790, Note_on_c, 4, 68, 80
6, 53804, Note_on_c, 4, 69, 0
6, 53864, Note_on_c, 4, 66, 97
6, 53891, Note_on_c, 4, 68, 0
6, 53958, Note_on_c, 4, 64, 92
6, 53966, Note_on_c, 4, 66, 0
6, 54007, Note_on_c, 4, 64, 0
6, 54125, Note_on_c, 4, 69, 99
6, 54426, Note_on_c, 4, 68, 109
6, 54449, Note_on_c, 4, 69, 0
6, 54487, Note_on_c, 4, 66, 113
6, 54508, Note_on_c, 4, 68, 0
6, 54561, Note_on_c, 4, 66, 0
6, 54562, Note_on_c, 4, 64, 111
6, 54611, Note_on_c, 4, 64, 0
6, 54725, Note_on_c, 4, 69, 116
6, 55023, Note_on_c, 4, 69, 0
6, 55024, Note_on_c, 4, 68, 114
6, 55081, Note_on_c, 4, 66, 119
6, 55103, Note_on_c, 4, 68, 0
6, 55168, Note_on_c, 4, 66, 0
6, 55170, Note_on_c, 4, 64, 112
6, 55221, Note_on_c, 4, 64, 0
6, 55337, Note_on_c, 4, 66, 115
6, 55447, Note_on_c, 4, 66, 0
6, 55486, Note_on_c, 4, 68, 115
6, 55605, Note_on_c, 4, 68, 0
6, 55635, Note_on_c, 4, 69, 112
6, 55770, Note_on_c, 4, 69, 0
6, 55792, Note_on_c, 4, 68, 121
6, 55895, Note_on_c, 4, 68, 0
6, 55960, Note_on_c, 4, 66, 123
6, 55997, Note_on_c, 4, 66, 0
6, 56021, Note_on_c, 4, 66, 98
6, 56071, Note_on_c, 4, 66, 0
6, 56117, Note_on_c, 4, 68, 107
6, 56159, Note_on_c, 4, 68, 0
6, 56181, Note_on_c, 4, 68, 103
6, 56227, Note_on_c, 4, 68, 0
6, 56261, Note_on_c, 4, 69, 104
6, 56306, Note_on_c, 4, 69, 0
6, 56333, Note_on_c, 4, 69, 109
6, 56389, Note_on_c, 4, 69, 0
6, 56422, Note_on_c, 4, 68, 120
6, 56461, Note_on_c, 4, 68, 0
6, 56493, Note_on_c, 4, 68, 110
6, 56555, Note_on_c, 4, 68, 0
6, 56576, Note_on_c, 4, 66, 123
6, 56576, Note_on_c, 4, 59, 125
6, 56608, Note_on_c, 4, 66, 0
6, 56615, Note_on_c, 4, 59, 0
6, 56756, Note_on_c, 4, 59, 121
6, 56947, Note_on_c, 4, 59, 0
6, 57062, Note_on_c, 4, 59, 106
6, 57093, Note_on_c, 4, 59, 0
6, 58308, Note_on_c, 4, 59, 54
6, 60649, Note_on_c, 4, 52, 54
6, 60658, Note_on_c, 4, 59, 0
6, 60834, Note_on_c, 4, 52, 0
6, 62640, Program_c, 4, 45
6, 62870, Note_on_c, 4, 59, 71
6, 62903, Note_on_c, 4, 59, 0
6, 63033, Note_on_c, 4, 59, 67
6, 63061, Note_on_c, 4, 59, 0
6, 63198, Note_on_c, 4, 59, 69
6, 63233, Note_on_c, 4, 59, 0
6, 63360, Program_c, 4, 49
6, 63849, Note_on_c, 4, 59, 86
6, 64584, Note_on_c, 4, 59, 0
6, 65041, Note_on_c, 4, 59, 91
6, 65471, Note_on_c, 4, 59, 0
6, 65515, Note_on_c, 4, 64, 118
6, 65555, Note_on_c, 4, 64, 0
6, 65675, Note_on_c, 4, 64, 121
6, 65676, Note_on_c, 4, 69, 122
6, 65719, Note_on_c, 4, 69, 0
6, 65740, Note_on_c, 4, 64, 0
6, 65846, Note_on_c, 4, 64, 126
6, 65849, Note_on_c, 4, 71, 127
6, 65907, Note_on_c, 4, 71, 0
6, 65912, Note_on_c, 4, 64, 0
6, 66278, Note_on_c, 4, 64, 126
6, 66279, Note_on_c, 4, 73, 125
6, 66316, Note_on_c, 4, 73, 0
6, 66333, Note_on_c, 4, 64, 0
6, 66445, Note_on_c, 4, 64, 127
6, 66450, Note_on_c, 4, 71, 125
6, 66505, Note_on_c, 4, 71, 0
6, 66517, Note_on_c, 4, 64, 0
6, 66908, Note_on_c, 4, 64, 126
6, 66911, Note_on_c, 4, 69, 122
6, 66944, Note_on_c, 4, 69, 0
6, 66946, Note_on_c, 4, 64, 0
6, 67081, Note_on_c, 4, 71, 126
6, 67082, Note_on_c, 4, 64, 127
6, 67118, Note_on_c, 4, 71, 0
6, 67122, Note_on_c, 4, 64, 0
6, 67495, Note_on_c, 4, 73, 127
6, 67496, Note_on_c, 4, 64, 126
6, 67529, Note_on_c, 4, 73, 0
6, 67535, Note_on_c, 4, 64, 0
6, 67665, Note_on_c, 4, 64, 127
6, 67667, Note_on_c, 4, 71, 125
6, 67703, Note_on_c, 4, 71, 0
6, 67708, Note_on_c, 4, 64, 0
6, 69276, Note_on_c, 4, 59, 57
6, 69613, Note_on_c, 4, 61, 77
6, 69649, Note_on_c, 4, 59, 0
6, 70090, Note_on_c, 4, 63, 77
6, 70121, Note_on_c, 4, 61, 0
6, 70459, Note_on_c, 4, 63, 0
6, 70590, Note_on_c, 4, 59, 103
6, 70656, Note_on_c, 4, 59, 0
6, 70750, Note_on_c, 4, 64, 121
6, 70782, Note_on_c, 4, 64, 0
6, 70910, Note_on_c, 4, 71, 124
6, 70917, Note_on_c, 4, 64, 118
6, 70938, Note_on_c, 4, 71, 0
6, 70947, Note_on_c, 4, 64, 0
6, 71077, Note_on_c, 4, 69, 126
6, 71079, Note_on_c, 4, 64, 122
6, 71341, Note_on_c, 4, 64, 0
6, 71362, Note_on_c, 4, 69, 0
6, 71387, Note_on_c, 4, 69, 111
6, 71388, Note_on_c, 4, 64, 108
6, 71433, Note_on_c, 4, 69, 0
6, 71437, Note_on_c, 4, 64, 0
6, 71542, Note_on_c, 4, 69, 103
6, 71543, Note_on_c, 4, 63, 116
6, 71582, Note_on_c, 4, 63, 0
6, 71588, Note_on_c, 4, 69, 0
6, 71708, Note_on_c, 4, 68, 116
6, 71821, Note_on_c, 4, 68, 0
6, 71865, Note_on_c, 4, 69, 97
6, 71924, Note_on_c, 4, 71, 100
6, 71954, Note_on_c, 4, 69, 0
6, 72003, Note_on_c, 4, 69, 102
6, 72027, Note_on_c, 4, 71, 0
6, 72043, Note_on_c, 4, 69, 0
6, 72171, Note_on_c, 4, 73, 107
6, 72219, Note_on_c, 4, 73, 0
6, 72321, Note_on_c, 4, 69, 106
6, 72359, Note_on_c, 4, 69, 0
6, 72474, Note_on_c, 4, 69, 109
6, 72512, Note_on_c, 4, 69, 0
6, 72630, Note_on_c, 4, 68, 115
6, 72669, Note_on_c, 4, 68, 0
6, 72785, Note_on_c, 4, 71, 122
6, 72790, Note_on_c, 4, 66, 127
6, 72823, Note_on_c, 4, 71, 0
6, 72826, Note_on_c, 4, 66, 0
6, 73113, Note_on_c, 4, 59, 117
6, 73149, Note_on_c, 4, 59, 0
6, 73266, Note_on_c, 4, 64, 113
6, 73299, Note_on_c, 4, 64, 0
6, 73429, Note_on_c, 4, 71, 118
6, 73432, Note_on_c, 4, 64, 113
6, 73462, Note_on_c, 4, 71, 0
6, 73466, Note_on_c, 4, 64, 0
6, 73595, Note_on_c, 4, 69, 122
6, 73596, Note_on_c, 4, 64, 114
6, 73842, Note_on_c, 4, 64, 0
6, 73846, Note_on_c, 4, 69, 0
6, 73881, Note_on_c, 4, 69, 107
6, 73885, Note_on_c, 4, 64, 111
6, 73921, Note_on_c, 4, 69, 0
6, 73927, Note_on_c, 4, 64, 0
6, 74041, Note_on_c, 4, 69, 107
6, 74042, Note_on_c, 4, 63, 121
6, 74079, Note_on_c, 4, 63, 0
6, 74085, Note_on_c, 4, 69, 0
6, 74205, Note_on_c, 4, 68, 110
6, 74328, Note_on_c, 4, 68, 0
6, 74364, Note_on_c, 4, 69, 97
6, 74426, Note_on_c, 4, 71, 99
6, 74449, Note_on_c, 4, 69, 0
6, 74488, Note_on_c, 4, 69, 107
6, 74506, Note_on_c, 4, 71, 0
6, 74525, Note_on_c, 4, 69, 0
6, 74659, Note_on_c, 4, 69, 116
6, 74700, Note_on_c, 4, 69, 0
6, 74804, Note_on_c, 4, 68, 116
6, 74838, Note_on_c, 4, 68, 0
6, 74956, Note_on_c, 4, 68, 118
6, 74994, Note_on_c, 4, 68, 0
6, 75098, Note_on_c, 4, 66, 115
6, 75133, Note_on_c, 4, 66, 0
6, 75251, Note_on_c, 4, 63, 93
6, 75253, Note_on_c, 4, 69, 98
6, 75456, Note_on_c, 4, 69, 0
6, 75469, Note_on_c, 4, 63, 0
6, 75554, Note_on_c, 4, 69, 103
6, 75562, Note_on_c, 4, 63, 103
6, 75599, Note_on_c, 4, 69, 0
6, 75617, Note_on_c, 4, 63, 0
6, 75710, Note_on_c, 4, 64, 108
6, 75750, Note_on_c, 4, 64, 0
6, 75867, Note_on_c, 4, 63, 107
6, 75869, Note_on_c, 4, 69, 103
6, 76058, Note_on_c, 4, 69, 0
6, 76058, Note_on_c, 4, 63, 0
6, 76154, Note_on_c, 4, 69, 111
6, 76158, Note_on_c, 4, 63, 112
6, 76195, Note_on_c, 4, 69, 0
6, 76198, Note_on_c, 4, 63, 0
6, 76310, Note_on_c, 4, 64, 103
6, 76348, Note_on_c, 4, 64, 0
6, 76465, Note_on_c, 4, 63, 114
6, 76466, Note_on_c, 4, 69, 114
6, 76680, Note_on_c, 4, 69, 0
6, 76691, Note_on_c, 4, 63, 0
6, 76764, Note_on_c, 4, 69, 111
6, 76767, Note_on_c, 4, 63, 110
6, 76818, Note_on_c, 4, 63, 0
6, 76818, Note_on_c, 4, 69, 0
6, 76916, Note_on_c, 4, 64, 111
6, 76952, Note_on_c, 4, 64, 0
6, 77077, Note_on_c, 4, 64, 124
6, 77311, Note_on_c, 4, 64, 0
6, 77405, Note_on_c, 4, 64, 121
6, 77440, Note_on_c, 4, 64, 0
6, 77569, Note_on_c, 4, 64, 121
6, 77600, Note_on_c, 4, 64, 0
6, 77720, Note_on_c, 4, 64, 122
6, 77755, Note_on_c, 4, 64, 0
6, 77878, Note_on_c, 4, 64, 66
6, 78035, Note_on_c, 4, 66, 80
6, 78057, Note_on_c, 4, 64, 0
6, 78219, Note_on_c, 4, 66, 0
6, 78226, Note_on_c, 4, 64, 57
6, 78402, Note_on_c, 4, 64, 0
6, 79910, Note_on_c, 4, 61, 119
6, 79945, Note_on_c, 4, 63, 81
6, 79949, Note_on_c, 4, 61, 0
6, 79996, Note_on_c, 4, 61, 106
6, 80022, Note_on_c, 4, 63, 0
6, 80040, Note_on_c, 4, 61, 0
6, 80068, Note_on_c, 4, 59, 118
6, 80117, Note_on_c, 4, 59, 0
6, 80222, Note_on_c, 4, 57, 114
6, 80261, Note_on_c, 4, 57, 0
6, 80377, Note_on_c, 4, 56, 118
6, 80417, Note_on_c, 4, 56, 0
6, 80534, Note_on_c, 4, 54, 116
6, 80558, Note_on_c, 4, 56, 74
6, 80569, Note_on_c, 4, 54, 0
6, 80609, Note_on_c, 4, 54, 90
6, 80635, Note_on_c, 4, 56, 0
6, 80681, Note_on_c, 4, 56, 103
6, 80690, Note_on_c, 4, 54, 0
6, 80779, Note_on_c, 4, 56, 0
6, 80869, Note_on_c, 4, 49, 123
6, 80953, Note_on_c, 4, 49, 0
6, 82940, Note_on_c, 4, 54, 53
6, 83101, Note_on_c, 4, 55, 52
6, 83140, Note_on_c, 4, 54, 0
6, 83279, Note_on_c, 4, 56, 47
6, 83318, Note_on_c, 4, 55, 0
6, 85751, Note_on_c, 4, 56, 0
6, 85874, Note_on_c, 4, 56, 25
6, 87692, Note_on_c, 4, 56, 0
6, 88487, Note_on_c, 4, 54, 52
6, 90169, Note_on_c, 4, 54, 0
6, 91053, Note_on_c, 4, 54, 38
6, 92975, Note_on_c, 4, 59, 41
6, 92986, Note_on_c, 4, 54, 0
6, 94037, Note_on_c, 4, 53, 58
6, 94088, Note_on_c, 4, 59, 0
6, 94610, Note_on_c, 4, 53, 0
6, 94622, Note_on_c, 4, 58, 72
6, 95220, Control_c, 4, 11, 100
6, 95220, Note_on_c, 4, 63, 79
6, 95270, Note_on_c, 4, 58, 0
6, 95380, Control_c, 4, 11, 99
6, 95435, Control_c, 4, 11, 98
6, 95475, Control_c, 4, 11, 97
6, 95505, Control_c, 4, 11, 96
6, 95525, Control_c, 4, 11, 95
6, 95540, Control_c, 4, 11, 94
6, 95555, Control_c, 4, 11, 93
6, 95570, Control_c, 4, 11, 92
6, 95580, Control_c, 4, 11, 91
6, 95590, Control_c, 4, 11, 90
6, 95595, Control_c, 4, 11, 89
6, 95610, Control_c, 4, 11, 88
6, 95615, Control_c, 4, 11, 87
6, 95625, Control_c, 4, 11, 85
6, 95635, Control_c, 4, 11, 84
6, 95640, Control_c, 4, 11, 83
6, 95645, Control_c, 4, 11, 82
6, 95650, Control_c, 4, 11, 81
6, 95655, Control_c, 4, 11, 80
6, 95660, Control_c, 4, 11, 79
6, 95665, Control_c, 4, 11, 78
6, 95670, Control_c, 4, 11, 77
6, 95675, Control_c, 4, 11, 75
6, 95680, Control_c, 4, 11, 74
6, 95685, Control_c, 4, 11, 73
6, 95690, Control_c, 4, 11, 71
6, 95695, Control_c, 4, 11, 70
6, 95700, Control_c, 4, 11, 69
6, 95705, Control_c, 4, 11, 67
6, 95710, Control_c, 4, 11, 65
6, 95715, Control_c, 4, 11, 63
6, 95720, Control_c, 4, 11, 61
6, 95725, Control_c, 4, 11, 59
6, 95730, Control_c, 4, 11, 56
6, 95735, Control_c, 4, 11, 54
6, 95740, Control_c, 4, 11, 52
6, 95745, Control_c, 4, 11, 49
6, 95750, Control_c, 4, 11, 47
6, 95755, Control_c, 4, 11, 43
6, 95760, Control_c, 4, 11, 40
6, 96115, Note_on_c, 4, 63, 0
6, 96137, Control_c, 4, 11, 40
6, 96137, Note_on_c, 4, 61, 36
6, 96142, Control_c, 4, 11, 46
6, 96147, Control_c, 4, 11, 50
6, 96152, Control_c, 4, 11, 54
6, 96157, Control_c, 4, 11, 57
6, 96162, Control_c, 4, 11, 61
6, 96167, Control_c, 4, 11, 64
6, 96172, Control_c, 4, 11, 67
6, 96177, Control_c, 4, 11, 69
6, 96182, Control_c, 4, 11, 72
6, 96187, Control_c, 4, 11, 74
6, 96192, Control_c, 4, 11, 76
6, 96197, Control_c, 4, 11, 78
6, 96202, Control_c, 4, 11, 80
6, 96207, Control_c, 4, 11, 82
6, 96212, Control_c, 4, 11, 83
6, 96217, Control_c, 4, 11, 84
6, 96222, Control_c, 4, 11, 85
6, 96227, Control_c, 4, 11, 87
6, 96232, Control_c, 4, 11, 88
6, 96237, Control_c, 4, 11, 89
6, 96242, Control_c, 4, 11, 90
6, 96247, Control_c, 4, 11, 91
6, 96252, Control_c, 4, 11, 92
6, 96262, Control_c, 4, 11, 93
6, 96272, Control_c, 4, 11, 94
6, 96282, Control_c, 4, 11, 95
6, 96292, Control_c, 4, 11, 96
6, 96302, Control_c, 4, 11, 97
6, 96322, Control_c, 4, 11, 98
6, 96347, Control_c, 4, 11, 99
6, 96382, Control_c, 4, 11, 100
6, 96509, Note_on_c, 4, 59, 31
6, 96566, Note_on_c, 4, 61, 0
6, 96750, Note_on_c, 4, 57, 32
6, 96798, Note_on_c, 4, 59, 0
6, 97060, Note_on_c, 4, 52, 13
6, 97085, Note_on_c, 4, 57, 0
6, 97308, Note_on_c, 4, 52, 0
6, 97357, Note_on_c, 4, 52, 33
6, 98974, Note_on_c, 4, 52, 0
6, 99580, Note_on_c, 4, 57, 63
6, 99882, Note_on_c, 4, 54, 60
6, 99939, Note_on_c, 4, 57, 0
6, 100744, Note_on_c, 4, 54, 0
6, 100784, Note_on_c, 4, 59, 70
6, 101092, Note_on_c, 4, 52, 55
6, 101102, Note_on_c, 4, 59, 0
6, 101314, Note_on_c, 4, 52, 0
6, 101389, Note_on_c, 4, 57, 68
6, 101918, Note_on_c, 4, 57, 0
6, 101979, Note_on_c, 4, 57, 77
6, 102277, Note_on_c, 4, 56, 78
6, 102334, Note_on_c, 4, 57, 0
6, 102433, Note_on_c, 4, 56, 0
6, 102564, Note_on_c, 4, 57, 84
6, 103010, Note_on_c, 4, 57, 0
6, 103141, Note_on_c, 4, 57, 86
6, 103469, Note_on_c, 4, 57, 0
6, 103471, Note_on_c, 4, 56, 71
6, 103710, Note_on_c, 4, 56, 0
6, 108000, Control_c, 4, 11, 80
6, 108220, Note_on_c, 4, 52, 47
6, 108499, Note_on_c, 4, 57, 46
6, 108508, Note_on_c, 4, 52, 0
6, 108754, Note_on_c, 4, 57, 0
6, 108885, Note_on_c, 4, 57, 76
6, 108921, Note_on_c, 4, 57, 0
6, 108971, Note_on_c, 4, 57, 67
6, 109007, Note_on_c, 4, 57, 0
6, 109052, Note_on_c, 4, 57, 68
6, 109087, Note_on_c, 4, 57, 0
6, 109129, Note_on_c, 4, 57, 67
6, 109170, Note_on_c, 4, 57, 0
6, 109240, Note_on_c, 4, 57, 69
6, 109441, Note_on_c, 4, 57, 0
6, 109576, Note_on_c, 4, 57, 74
6, 109613, Note_on_c, 4, 57, 0
6, 109667, Note_on_c, 4, 57, 61
6, 109705, Note_on_c, 4, 57, 0
6, 109756, Note_on_c, 4, 57, 66
6, 109795, Note_on_c, 4, 57, 0
6, 109832, Note_on_c, 4, 57, 65
6, 109865, Note_on_c, 4, 57, 0
6, 109937, Note_on_c, 4, 57, 69
6, 110157, Note_on_c, 4, 57, 0
6, 110307, Note_on_c, 4, 57, 75
6, 110346, Note_on_c, 4, 57, 0
6, 110387, Note_on_c, 4, 57, 54
6, 110425, Note_on_c, 4, 57, 0
6, 110480, Note_on_c, 4, 57, 67
6, 110525, Note_on_c, 4, 57, 0
6, 110566, Note_on_c, 4, 57, 66
6, 110595, Note_on_c, 4, 57, 0
6, 110670, Note_on_c, 4, 57, 68
6, 110862, Note_on_c, 4, 57, 0
6, 111018, Note_on_c, 4, 57, 68
6, 111054, Note_on_c, 4, 57, 0
6, 111102, Note_on_c, 4, 57, 62
6, 111133, Note_on_c, 4, 57, 0
6, 111195, Note_on_c, 4, 57, 63
6, 111235, Note_on_c, 4, 57, 0
6, 111286, Note_on_c, 4, 57, 68
6, 111313, Note_on_c, 4, 57, 0
6, 111383, Note_on_c, 4, 57, 65
6, 111598, Note_on_c, 4, 57, 0
6, 111751, Note_on_c, 4, 57, 71
6, 111787, Note_on_c, 4, 57, 0
6, 111833, Note_on_c, 4, 57, 59
6, 111865, Note_on_c, 4, 57, 0
6, 111923, Note_on_c, 4, 57, 71
6, 111966, Note_on_c, 4, 57, 0
6, 112009, Note_on_c, 4, 57, 59
6, 112038, Note_on_c, 4, 57, 0
6, 112112, Note_on_c, 4, 57, 68
6, 112294, Note_on_c, 4, 57, 0
6, 112473, Note_on_c, 4, 57, 73
6, 112513, Note_on_c, 4, 57, 0
6, 112558, Note_on_c, 4, 57, 59
6, 112591, Note_on_c, 4, 57, 0
6, 112653, Note_on_c, 4, 57, 60
6, 112689, Note_on_c, 4, 57, 0
6, 112739, Note_on_c, 4, 57, 63
6, 112764, Note_on_c, 4, 57, 0
6, 112845, Note_on_c, 4, 57, 59
6, 113039, Note_on_c, 4, 57, 0
6, 113219, Note_on_c, 4, 57, 71
6, 113262, Note_on_c, 4, 57, 0
6, 113306, Note_on_c, 4, 57, 60
6, 113341, Note_on_c, 4, 57, 0
6, 113397, Note_on_c, 4, 57, 65
6, 113438, Note_on_c, 4, 57, 0
6, 113483, Note_on_c, 4, 57, 63
6, 113509, Note_on_c, 4, 57, 0
6, 113607, Note_on_c, 4, 57, 19
6, 113831, Note_on_c, 4, 52, 68
6, 113887, Note_on_c, 4, 57, 0
6, 114018, Note_on_c, 4, 57, 74
6, 114098, Note_on_c, 4, 52, 0
6, 114223, Note_on_c, 4, 56, 66
6, 114278, Note_on_c, 4, 57, 0
6, 114445, Note_on_c, 4, 57, 57
6, 114508, Note_on_c, 4, 56, 0
6, 114761, Note_on_c, 4, 57, 0
6, 114921, Note_on_c, 4, 59, 87
6, 114963, Note_on_c, 4, 59, 0
6, 115031, Note_on_c, 4, 59, 84
6, 115077, Note_on_c, 4, 59, 0
6, 115143, Note_on_c, 4, 59, 72
6, 115182, Note_on_c, 4, 59, 0
6, 115228, Note_on_c, 4, 59, 64
6, 115275, Note_on_c, 4, 59, 0
6, 115337, Note_on_c, 4, 59, 42
6, 115543, Note_on_c, 4, 59, 0
6, 115704, Note_on_c, 4, 59, 91
6, 115744, Note_on_c, 4, 59, 0
6, 115800, Note_on_c, 4, 59, 86
6, 115837, Note_on_c, 4, 59, 0
6, 115888, Note_on_c, 4, 61, 90
6, 115913, Note_on_c, 4, 61, 0
6, 115976, Note_on_c, 4, 61, 88
6, 116022, Note_on_c, 4, 61, 0
6, 116089, Note_on_c, 4, 59, 65
6, 116275, Note_on_c, 4, 59, 0
6, 116449, Note_on_c, 4, 59, 84
6, 116483, Note_on_c, 4, 59, 0
6, 116533, Note_on_c, 4, 59, 76
6, 116573, Note_on_c, 4, 59, 0
6, 116628, Note_on_c, 4, 59, 79
6, 116666, Note_on_c, 4, 59, 0
6, 116704, Note_on_c, 4, 59, 72
6, 116747, Note_on_c, 4, 59, 0
6, 116812, Note_on_c, 4, 59, 51
6, 116983, Note_on_c, 4, 59, 0
6, 117155, Note_on_c, 4, 59, 79
6, 117187, Note_on_c, 4, 59, 0
6, 117245, Note_on_c, 4, 59, 72
6, 117285, Note_on_c, 4, 59, 0
6, 117352, Note_on_c, 4, 59, 85
6, 117392, Note_on_c, 4, 59, 0
6, 117440, Note_on_c, 4, 59, 76
6, 117474, Note_on_c, 4, 59, 0
6, 117556, Note_on_c, 4, 59, 57
6, 117781, Note_on_c, 4, 59, 0
6, 117936, Note_on_c, 4, 59, 84
6, 117974, Note_on_c, 4, 59, 0
6, 118048, Note_on_c, 4, 59, 81
6, 118091, Note_on_c, 4, 59, 0
6, 118132, Note_on_c, 4, 59, 66
6, 118175, Note_on_c, 4, 59, 0
6, 118205, Note_on_c, 4, 59, 57
6, 118249, Note_on_c, 4, 59, 0
6, 118309, Note_on_c, 4, 59, 48
6, 118506, Note_on_c, 4, 59, 0
6, 118665, Note_on_c, 4, 59, 86
6, 118699, Note_on_c, 4, 59, 0
6, 118740, Note_on_c, 4, 59, 68
6, 118783, Note_on_c, 4, 59, 0
6, 118849, Note_on_c, 4, 59, 81
6, 118885, Note_on_c, 4, 59, 0
6, 118931, Note_on_c, 4, 59, 68
6, 118975, Note_on_c, 4, 59, 0
6, 119046, Note_on_c, 4, 59, 63
6, 119232, Note_on_c, 4, 59, 0
6, 119423, Note_on_c, 4, 59, 87
6, 119462, Note_on_c, 4, 59, 0
6, 119505, Note_on_c, 4, 59, 64
6, 119547, Note_on_c, 4, 59, 0
6, 119613, Note_on_c, 4, 59, 84
6, 119650, Note_on_c, 4, 59, 0
6, 119689, Note_on_c, 4, 59, 75
6, 119734, Note_on_c, 4, 59, 0
6, 119807, Note_on_c, 4, 59, 59
6, 119976, Note_on_c, 4, 59, 0
6, 120202, Note_on_c, 4, 59, 88
6, 120237, Note_on_c, 4, 59, 0
6, 120280, Note_on_c, 4, 59, 80
6, 120327, Note_on_c, 4, 59, 0
6, 120381, Note_on_c, 4, 57, 75
6, 120420, Note_on_c, 4, 57, 0
6, 120467, Note_on_c, 4, 57, 74
6, 120517, Note_on_c, 4, 57, 0
6, 120560, Note_on_c, 4, 56, 87
6, 120714, Note_on_c, 4, 56, 0
6, 120768, Note_on_c, 4, 59, 55
6, 120986, Note_on_c, 4, 52, 76
6, 120989, Note_on_c, 4, 59, 0
6, 121033, Note_on_c, 4, 52, 0
6, 121084, Note_on_c, 4, 52, 76
6, 121127, Note_on_c, 4, 52, 0
6, 121192, Note_on_c, 4, 52, 91
6, 121233, Note_on_c, 4, 52, 0
6, 121284, Note_on_c, 4, 52, 86
6, 121335, Note_on_c, 4, 52, 0
6, 121449, Note_on_c, 4, 52, 44
6, 121699, Note_on_c, 4, 52, 0
6, 121908, Note_on_c, 4, 57, 86
6, 121936, Note_on_c, 4, 57, 0
6, 121988, Note_on_c, 4, 57, 79
6, 122033, Note_on_c, 4, 57, 0
6, 122094, Note_on_c, 4, 60, 73
6, 122124, Note_on_c, 4, 60, 0
6, 122181, Note_on_c, 4, 60, 72
6, 122219, Note_on_c, 4, 60, 0
6, 122287, Note_on_c, 4, 60, 65
6, 122497, Note_on_c, 4, 60, 0
6, 122672, Note_on_c, 4, 53, 84
6, 122696, Note_on_c, 4, 53, 0
6, 122765, Note_on_c, 4, 53, 84
6, 122798, Note_on_c, 4, 53, 0
6, 122863, Note_on_c, 4, 53, 81
6, 122889, Note_on_c, 4, 53, 0
6, 122945, Note_on_c, 4, 53, 82
6, 122976, Note_on_c, 4, 53, 0
6, 123057, Note_on_c, 4, 53, 77
6, 123247, Note_on_c, 4, 53, 0
6, 123440, Note_on_c, 4, 53, 77
6, 123464, Note_on_c, 4, 53, 0
6, 123515, Note_on_c, 4, 53, 81
6, 123549, Note_on_c, 4, 53, 0
6, 123623, Note_on_c, 4, 53, 67
6, 123646, Note_on_c, 4, 53, 0
6, 123696, Note_on_c, 4, 53, 79
6, 123729, Note_on_c, 4, 53, 0
6, 123813, Note_on_c, 4, 53, 68
6, 124035, Note_on_c, 4, 53, 0
6, 124228, Note_on_c, 4, 53, 81
6, 124260, Note_on_c, 4, 53, 0
6, 124308, Note_on_c, 4, 53, 76
6, 124342, Note_on_c, 4, 53, 0
6, 124410, Note_on_c, 4, 53, 72
6, 124432, Note_on_c, 4, 53, 0
6, 124490, Note_on_c, 4, 53, 76
6, 124519, Note_on_c, 4, 53, 0
6, 124604, Note_on_c, 4, 53, 74
6, 124807, Note_on_c, 4, 53, 0
6, 125010, Note_on_c, 4, 53, 82
6, 125035, Note_on_c, 4, 53, 0
6, 125087, Note_on_c, 4, 53, 78
6, 125115, Note_on_c, 4, 53, 0
6, 125182, Note_on_c, 4, 53, 80
6, 125210, Note_on_c, 4, 53, 0
6, 125267, Note_on_c, 4, 53, 84
6, 125305, Note_on_c, 4, 53, 0
6, 125385, Note_on_c, 4, 53, 66
6, 125551, Note_on_c, 4, 53, 0
6, 125791, Note_on_c, 4, 53, 71
6, 125846, Note_on_c, 4, 53, 0
6, 125892, Note_on_c, 4, 53, 57
6, 125941, Note_on_c, 4, 53, 0
6, 125993, Note_on_c, 4, 53, 68
6, 126038, Note_on_c, 4, 53, 0
6, 126081, Note_on_c, 4, 53, 63
6, 126132, Note_on_c, 4, 53, 0
6, 126197, Note_on_c, 4, 53, 69
6, 126398, Note_on_c, 4, 53, 0
6, 126569, Note_on_c, 4, 53, 86
6, 126618, Note_on_c, 4, 53, 0
6, 126657, Note_on_c, 4, 53, 70
6, 126710, Note_on_c, 4, 53, 0
6, 126773, Note_on_c, 4, 53, 76
6, 126824, Note_on_c, 4, 53, 0
6, 126873, Note_on_c, 4, 53, 67
6, 126922, Note_on_c, 4, 53, 0
6, 126981, Note_on_c, 4, 53, 60
6, 127195, Note_on_c, 4, 53, 0
6, 127403, Note_on_c, 4, 53, 85
6, 127450, Note_on_c, 4, 53, 0
6, 127493, Note_on_c, 4, 53, 74
6, 127541, Note_on_c, 4, 53, 0
6, 127610, Note_on_c, 4, 53, 88
6, 127654, Note_on_c, 4, 53, 0
6, 127715, Note_on_c, 4, 53, 86
6, 127798, Note_on_c, 4, 53, 0
6, 127852, Note_on_c, 4, 52, 51
6, 128198, Note_on_c, 4, 52, 0
6, 128288, Note_on_c, 4, 59, 80
6, 128330, Note_on_c, 4, 59, 0
6, 128394, Note_on_c, 4, 59, 74
6, 128437, Note_on_c, 4, 59, 0
6, 128503, Note_on_c, 4, 59, 72
6, 128550, Note_on_c, 4, 59, 0
6, 128600, Note_on_c, 4, 59, 62
6, 128665, Note_on_c, 4, 59, 0
6, 128723, Note_on_c, 4, 57, 65
6, 128951, Note_on_c, 4, 60, 70
6, 128958, Note_on_c, 4, 57, 0
6, 129222, Note_on_c, 4, 60, 0
6, 129239, Note_on_c, 4, 59, 78
6, 129289, Note_on_c, 4, 59, 0
6, 129326, Note_on_c, 4, 59, 67
6, 129374, Note_on_c, 4, 59, 0
6, 129435, Note_on_c, 4, 59, 66
6, 129478, Note_on_c, 4, 59, 0
6, 129522, Note_on_c, 4, 59, 71
6, 129570, Note_on_c, 4, 59, 0
6, 129634, Note_on_c, 4, 59, 65
6, 129936, Note_on_c, 4, 59, 0
6, 130105, Note_on_c, 4, 59, 68
6, 130145, Note_on_c, 4, 59, 0
6, 130197, Note_on_c, 4, 59, 59
6, 130245, Note_on_c, 4, 59, 0
6, 130299, Note_on_c, 4, 59, 60
6, 130341, Note_on_c, 4, 59, 0
6, 130400, Note_on_c, 4, 59, 68
6, 130462, Note_on_c, 4, 59, 0
6, 130551, Note_on_c, 4, 64, 40
6, 130844, Note_on_c, 4, 59, 41
6, 130899, Note_on_c, 4, 64, 0
6, 131130, Note_on_c, 4, 59, 0
6, 131135, Note_on_c, 4, 64, 44
6, 131184, Note_on_c, 4, 64, 0
6, 131236, Note_on_c, 4, 64, 61
6, 131281, Note_on_c, 4, 64, 0
6, 131354, Note_on_c, 4, 64, 60
6, 131404, Note_on_c, 4, 64, 0
6, 131480, Note_on_c, 4, 64, 48
6, 131544, Note_on_c, 4, 64, 0
6, 131688, Note_on_c, 4, 64, 36
6, 133060, Note_on_c, 4, 59, 27
6, 133142, Note_on_c, 4, 64, 0
6, 134493, Note_on_c, 4, 64, 41
6, 134524, Note_on_c, 4, 59, 0
6, 134671, Note_on_c, 4, 64, 0
6, 135524, Note_on_c, 4, 57, 41
6, 135845, Note_on_c, 4, 57, 0
6, 135954, Note_on_c, 4, 57, 73
6, 135994, Note_on_c, 4, 57, 0
6, 136049, Note_on_c, 4, 57, 73
6, 136088, Note_on_c, 4, 57, 0
6, 136142, Note_on_c, 4, 57, 69
6, 136176, Note_on_c, 4, 57, 0
6, 136222, Note_on_c, 4, 57, 65
6, 136260, Note_on_c, 4, 57, 0
6, 136332, Note_on_c, 4, 57, 59
6, 136689, Note_on_c, 4, 57, 0
6, 136765, Note_on_c, 4, 57, 70
6, 136799, Note_on_c, 4, 57, 0
6, 136858, Note_on_c, 4, 57, 73
6, 136889, Note_on_c, 4, 57, 0
6, 136949, Note_on_c, 4, 57, 73
6, 136984, Note_on_c, 4, 57, 0
6, 137047, Note_on_c, 4, 57, 70
6, 137081, Note_on_c, 4, 57, 0
6, 137149, Note_on_c, 4, 57, 65
6, 137395, Note_on_c, 4, 57, 0
6, 137540, Note_on_c, 4, 57, 79
6, 137575, Note_on_c, 4, 57, 0
6, 137627, Note_on_c, 4, 57, 67
6, 137665, Note_on_c, 4, 57, 0
6, 137721, Note_on_c, 4, 57, 74
6, 137760, Note_on_c, 4, 57, 0
6, 137810, Note_on_c, 4, 57, 71
6, 137845, Note_on_c, 4, 57, 0
6, 137910, Note_on_c, 4, 57, 73
6, 138148, Note_on_c, 4, 57, 0
6, 138302, Note_on_c, 4, 57, 83
6, 138340, Note_on_c, 4, 57, 0
6, 138389, Note_on_c, 4, 57, 80
6, 138429, Note_on_c, 4, 57, 0
6, 138496, Note_on_c, 4, 57, 91
6, 138535, Note_on_c, 4, 57, 0
6, 138574, Note_on_c, 4, 57, 84
6, 138618, Note_on_c, 4, 57, 0
6, 138692, Note_on_c, 4, 57, 100
6, 139053, Note_on_c, 4, 57, 0
6, 139141, Note_on_c, 4, 57, 76
6, 139177, Note_on_c, 4, 57, 0
6, 139226, Note_on_c, 4, 57, 76
6, 139266, Note_on_c, 4, 57, 0
6, 139317, Note_on_c, 4, 57, 74
6, 139359, Note_on_c, 4, 57, 0
6, 139397, Note_on_c, 4, 57, 73
6, 139448, Note_on_c, 4, 57, 0
6, 139494, Note_on_c, 4, 57, 67
6, 139742, Note_on_c, 4, 57, 0
6, 139897, Note_on_c, 4, 57, 90
6, 140063, Note_on_c, 4, 57, 0
6, 140077, Note_on_c, 4, 64, 100
6, 140232, Note_on_c, 4, 64, 0
6, 140267, Note_on_c, 4, 69, 108
6, 140461, Note_on_c, 4, 69, 0
6, 140610, Note_on_c, 4, 57, 102
6, 141143, Note_on_c, 4, 57, 0
6, 141281, Note_on_c, 4, 57, 120
6, 141526, Note_on_c, 4, 57, 0
6, 141624, Note_on_c, 4, 64, 125
6, 141763, Note_on_c, 4, 64, 0
6, 142080, Control_c, 4, 11, 100
6, 143175, Note_on_c, 4, 64, 117
6, 143221, Note_on_c, 4, 64, 0
6, 143350, Note_on_c, 4, 62, 125
6, 143392, Note_on_c, 4, 62, 0
6, 143527, Note_on_c, 4, 60, 127
6, 143567, Note_on_c, 4, 60, 0
6, 143704, Note_on_c, 4, 61, 125
6, 143804, Note_on_c, 4, 61, 0
6, 144049, Note_on_c, 4, 64, 122
6, 144060, Note_on_c, 4, 71, 122
6, 144379, Note_on_c, 4, 64, 0
6, 144418, Note_on_c, 4, 71, 0
6, 144437, Note_on_c, 4, 57, 94
6, 144452, Note_on_c, 4, 64, 116
6, 144454, Note_on_c, 4, 69, 125
6, 144557, Note_on_c, 4, 64, 0
6, 144579, Note_on_c, 4, 69, 0
6, 144585, Note_on_c, 4, 57, 0
6, 144960, Program_c, 4, 45
6, 145000, Note_on_c, 4, 57, 61
6, 145030, Note_on_c, 4, 57, 0
6, 145205, Note_on_c, 4, 57, 53
6, 145232, Note_on_c, 4, 57, 0
6, 145680, Program_c, 4, 49
6, 145856, Note_on_c, 4, 59, 70
6, 147111, Note_on_c, 4, 61, 69
6, 147138, Note_on_c, 4, 59, 0
6, 147305, Note_on_c, 4, 61, 0
6, 147360, Program_c, 4, 45
6, 147616, Note_on_c, 4, 57, 54
6, 147644, Note_on_c, 4, 57, 0
6, 147777, Note_on_c, 4, 57, 62
6, 147815, Note_on_c, 4, 57, 0
6, 148080, Program_c, 4, 49
6, 148404, Note_on_c, 4, 59, 59
6, 149652, Note_on_c, 4, 61, 64
6, 149688, Note_on_c, 4, 59, 0
6, 149879, Note_on_c, 4, 61, 0
6, 150745, Note_on_c, 4, 66, 63
6, 151643, Note_on_c, 4, 66, 0
6, 151920, Program_c, 4, 45
6, 152005, Note_on_c, 4, 56, 75
6, 152026, Note_on_c, 4, 56, 0
6, 152181, Note_on_c, 4, 56, 77
6, 152204, Note_on_c, 4, 56, 0
6, 152640, Program_c, 4, 49
6, 153221, Note_on_c, 4, 69, 73
6, 154084, Note_on_c, 4, 69, 0
6, 154320, Program_c, 4, 45
6, 154430, Note_on_c, 4, 59, 76
6, 154470, Note_on_c, 4, 59, 0
6, 154604, Note_on_c, 4, 59, 76
6, 154630, Note_on_c, 4, 59, 0
6, 155040, Program_c, 4, 49
6, 156352, Note_on_c, 4, 54, 89
6, 156518, Note_on_c, 4, 63, 93
6, 156563, Note_on_c, 4, 54, 0
6, 156726, Note_on_c, 4, 63, 0
6, 156969, Note_on_c, 4, 63, 73
6, 157135, Note_on_c, 4, 63, 0
6, 157149, Note_on_c, 4, 64, 61
6, 157858, Note_on_c, 4, 63, 57
6, 157896, Note_on_c, 4, 64, 0
6, 158500, Note_on_c, 4, 64, 59
6, 158528, Note_on_c, 4, 63, 0
6, 159139, Note_on_c, 4, 63, 65
6, 159168, Note_on_c, 4, 64, 0
6, 159787, Note_on_c, 4, 64, 60
6, 159822, Note_on_c, 4, 63, 0
6, 160387, Note_on_c, 4, 64, 0
6, 160431, Note_on_c, 4, 65, 74
6, 161058, Note_on_c, 4, 66, 71
6, 161090, Note_on_c, 4, 65, 0
6, 161678, Note_on_c, 4, 65, 65
6, 161692, Note_on_c, 4, 66, 0
6, 162325, Note_on_c, 4, 65, 0
6, 162329, Note_on_c, 4, 66, 65
6, 162959, Note_on_c, 4, 66, 0
6, 162984, Note_on_c, 4, 64, 84
6, 163577, Note_on_c, 4, 64, 0
6, 163618, Note_on_c, 4, 66, 88
6, 163994, Note_on_c, 4, 66, 0
6, 164084, Note_on_c, 4, 54, 89
6, 164962, Note_on_c, 4, 54, 0
6, 165600, Program_c, 4, 45
6, 166051, Note_on_c, 4, 61, 72
6, 166071, Note_on_c, 4, 61, 0
6, 166236, Note_on_c, 4, 59, 76
6, 166263, Note_on_c, 4, 59, 0
6, 167320, Note_on_c, 4, 61, 79
6, 167350, Note_on_c, 4, 61, 0
6, 167521, Note_on_c, 4, 59, 62
6, 167550, Note_on_c, 4, 59, 0
6, 168892, Note_on_c, 4, 54, 78
6, 168921, Note_on_c, 4, 54, 0
6, 169068, Note_on_c, 4, 54, 65
6, 169098, Note_on_c, 4, 54, 0
6, 169244, Note_on_c, 4, 54, 66
6, 169272, Note_on_c, 4, 54, 0
6, 169398, Note_on_c, 4, 54, 63
6, 169427, Note_on_c, 4, 54, 0
6, 169556, Note_on_c, 4, 54, 70
6, 169598, Note_on_c, 4, 54, 0
6, 169721, Note_on_c, 4, 54, 76
6, 169753, Note_on_c, 4, 54, 0
6, 169901, Note_on_c, 4, 54, 65
6, 169935, Note_on_c, 4, 54, 0
6, 170121, Note_on_c, 4, 54, 75
6, 170159, Note_on_c, 4, 54, 0
6, 170160, Program_c, 4, 49
6, 170516, Note_on_c, 4, 59, 62
6, 171051, Note_on_c, 4, 59, 0
6, 171101, Note_on_c, 4, 59, 68
6, 171298, Note_on_c, 4, 60, 73
6, 171314, Note_on_c, 4, 59, 0
6, 171480, Note_on_c, 4, 59, 67
6, 171513, Note_on_c, 4, 60, 0
6, 171663, Note_on_c, 4, 57, 65
6, 171687, Note_on_c, 4, 59, 0
6, 171835, Note_on_c, 4, 60, 75
6, 171859, Note_on_c, 4, 57, 0
6, 172044, Note_on_c, 4, 66, 64
6, 172059, Note_on_c, 4, 60, 0
6, 172529, Note_on_c, 4, 64, 91
6, 172604, Note_on_c, 4, 66, 0
6, 172692, Note_on_c, 4, 57, 71
6, 172703, Note_on_c, 4, 64, 0
6, 172854, Note_on_c, 4, 59, 81
6, 172869, Note_on_c, 4, 57, 0
6, 172930, Note_on_c, 4, 60, 68
6, 172934, Note_on_c, 4, 59, 0
6, 173024, Note_on_c, 4, 59, 76
6, 173035, Note_on_c, 4, 60, 0
6, 173160, Note_on_c, 4, 59, 0
6, 173805, Note_on_c, 4, 59, 73
6, 173959, Note_on_c, 4, 60, 68
6, 173981, Note_on_c, 4, 59, 0
6, 174118, Note_on_c, 4, 59, 59
6, 174153, Note_on_c, 4, 60, 0
6, 174301, Note_on_c, 4, 57, 71
6, 174315, Note_on_c, 4, 59, 0
6, 174460, Note_on_c, 4, 60, 78
6, 174491, Note_on_c, 4, 57, 0
6, 174649, Note_on_c, 4, 66, 90
6, 174688, Note_on_c, 4, 60, 0
6, 175170, Note_on_c, 4, 64, 81
6, 175183, Note_on_c, 4, 66, 0
6, 175342, Note_on_c, 4, 57, 67
6, 175343, Note_on_c, 4, 64, 0
6, 175509, Note_on_c, 4, 59, 66
6, 175513, Note_on_c, 4, 57, 0
6, 175599, Note_on_c, 4, 60, 61
6, 175631, Note_on_c, 4, 59, 0
6, 175694, Note_on_c, 4, 60, 0
6, 175801, Note_on_c, 4, 54, 61
6, 177060, Note_on_c, 4, 55, 57
6, 177095, Note_on_c, 4, 54, 0
6, 178135, Note_on_c, 4, 54, 52
6, 178228, Note_on_c, 4, 55, 0
6, 178750, Note_on_c, 4, 54, 0
6, 178895, Note_on_c, 4, 54, 55
6, 179404, Note_on_c, 4, 54, 0
6, 179523, Note_on_c, 4, 54, 65
6, 180039, Note_on_c, 4, 54, 0
6, 180168, Note_on_c, 4, 54, 45
6, 180655, Note_on_c, 4, 54, 0
6, 180847, Note_on_c, 4, 54, 43
6, 182378, Note_on_c, 4, 54, 0
6, 184508, Note_on_c, 4, 63, 39
6, 185374, Note_on_c, 4, 62, 34
6, 185448, Note_on_c, 4, 63, 0
6, 185663, Note_on_c, 4, 63, 29
6, 185764, Note_on_c, 4, 62, 0
6, 186400, Note_on_c, 4, 63, 0
6, 187139, Note_on_c, 4, 62, 30
6, 187718, Note_on_c, 4, 63, 32
6, 187775, Note_on_c, 4, 62, 0
6, 188621, Note_on_c, 4, 62, 39
6, 188681, Note_on_c, 4, 63, 0
6, 189017, Note_on_c, 4, 63, 26
6, 189052, Note_on_c, 4, 62, 0
6, 190782, Note_on_c, 4, 63, 0
6, 190820, Note_on_c, 4, 57, 54
6, 191340, Note_on_c, 4, 56, 67
6, 191370, Note_on_c, 4, 57, 0
6, 191634, Note_on_c, 4, 56, 0
6, 191671, Note_on_c, 4, 64, 62
6, 191990, Note_on_c, 4, 63, 70
6, 192019, Note_on_c, 4, 64, 0
6, 192266, Note_on_c, 4, 64, 75
6, 192289, Note_on_c, 4, 63, 0
6, 192930, Note_on_c, 4, 64, 0
6, 193554, Note_on_c, 4, 66, 47
6, 193580, Note_on_c, 4, 66, 0
6, 193721, Note_on_c, 4, 66, 50
6, 193754, Note_on_c, 4, 66, 0
6, 193909, Note_on_c, 4, 64, 45
6, 193946, Note_on_c, 4, 64, 0
6, 194160, Program_c, 4, 49
6, 194212, Note_on_c, 4, 59, 58
6, 194512, Note_on_c, 4, 56, 55
6, 194596, Note_on_c, 4, 59, 0
6, 194841, Note_on_c, 4, 54, 52
6, 194909, Note_on_c, 4, 56, 0
6, 195126, Note_on_c, 4, 56, 46
6, 195176, Note_on_c, 4, 54, 0
6, 195438, Note_on_c, 4, 57, 51
6, 195474, Note_on_c, 4, 56, 0
6, 195735, Note_on_c, 4, 59, 55
6, 195771, Note_on_c, 4, 57, 0
6, 196062, Note_on_c, 4, 59, 0
6, 196064, Note_on_c, 4, 61, 59
6, 196319, Note_on_c, 4, 61, 0
6, 196361, Note_on_c, 4, 54, 59
6, 197190, Note_on_c, 4, 54, 0
6, 197236, Note_on_c, 4, 59, 58
6, 197558, Note_on_c, 4, 61, 54
6, 197601, Note_on_c, 4, 59, 0
6, 197868, Note_on_c, 4, 59, 43
6, 197892, Note_on_c, 4, 61, 0
6, 198195, Note_on_c, 4, 58, 38
6, 198349, Note_on_c, 4, 59, 0
6, 198536, Note_on_c, 4, 57, 32
6, 198654, Note_on_c, 4, 58, 0
6, 198920, Note_on_c, 4, 56, 26
6, 198973, Note_on_c, 4, 57, 0
6, 199092, Note_on_c, 4, 56, 0
6, 199140, Note_on_c, 4, 61, 52
6, 199378, Note_on_c, 4, 63, 40
6, 199408, Note_on_c, 4, 61, 0
6, 199452, Note_on_c, 4, 63, 0
6, 199576, Note_on_c, 4, 59, 40
6, 200485, Note_on_c, 4, 57, 61
6, 200500, Note_on_c, 4, 59, 0
6, 200580, Note_on_c, 4, 57, 0
6, 200658, Note_on_c, 4, 56, 73
6, 200705, Note_on_c, 4, 56, 0
6, 200803, Note_on_c, 4, 59, 77
6, 200856, Note_on_c, 4, 59, 0
6, 200971, Note_on_c, 4, 54, 80
6, 201259, Note_on_c, 4, 54, 0
6, 201273, Note_on_c, 4, 56, 73
6, 201383, Note_on_c, 4, 56, 0
6, 201427, Control_c, 4, 11, 100
6, 201427, Note_on_c, 4, 64, 126
6, 201460, Note_on_c, 4, 64, 0
6, 201620, Note_on_c, 4, 64, 126
6, 201936, Note_on_c, 4, 64, 0
6, 201946, Note_on_c, 4, 66, 118
6, 201985, Note_on_c, 4, 66, 0
6, 202114, Note_on_c, 4, 68, 118
6, 202159, Note_on_c, 4, 68, 0
6, 202275, Note_on_c, 4, 66, 115
6, 202403, Note_on_c, 4, 66, 0
6, 202441, Note_on_c, 4, 68, 112
6, 202491, Note_on_c, 4, 68, 0
6, 202497, Note_on_c, 4, 70, 113
6, 202543, Note_on_c, 4, 70, 0
6, 202573, Note_on_c, 4, 71, 116
6, 202632, Note_on_c, 4, 71, 0
6, 202747, Note_on_c, 4, 59, 118
6, 202782, Note_on_c, 4, 59, 0
6, 202914, Note_on_c, 4, 69, 121
6, 203245, Note_on_c, 4, 69, 0
6, 203260, Note_on_c, 4, 71, 116
6, 203309, Note_on_c, 4, 71, 0
6, 203432, Note_on_c, 4, 73, 120
6, 203480, Note_on_c, 4, 73, 0
6, 203602, Note_on_c, 4, 71, 116
6, 203728, Note_on_c, 4, 71, 0
6, 203763, Note_on_c, 4, 73, 119
6, 203818, Note_on_c, 4, 75, 119
6, 203833, Note_on_c, 4, 73, 0
6, 203888, Note_on_c, 4, 75, 0
6, 203911, Note_on_c, 4, 76, 118
6, 203959, Note_on_c, 4, 76, 0
6, 204085, Note_on_c, 4, 64, 113
6, 204121, Note_on_c, 4, 64, 0
6, 204248, Note_on_c, 4, 64, 120
6, 204317, Note_on_c, 4, 66, 115
6, 204341, Note_on_c, 4, 64, 0
6, 204421, Note_on_c, 4, 64, 107
6, 204425, Note_on_c, 4, 66, 0
6, 204475, Note_on_c, 4, 64, 0
6, 204484, Note_on_c, 4, 66, 114
6, 204532, Note_on_c, 4, 66, 0
6, 204573, Note_on_c, 4, 68, 119
6, 204616, Note_on_c, 4, 68, 0
6, 204759, Note_on_c, 4, 64, 116
6, 204795, Note_on_c, 4, 64, 0
6, 204933, Note_on_c, 4, 64, 117
6, 205002, Note_on_c, 4, 66, 114
6, 205021, Note_on_c, 4, 64, 0
6, 205087, Note_on_c, 4, 66, 0
6, 205097, Note_on_c, 4, 64, 101
6, 205154, Note_on_c, 4, 64, 0
6, 205175, Note_on_c, 4, 66, 103
6, 205223, Note_on_c, 4, 66, 0
6, 205276, Note_on_c, 4, 68, 119
6, 205314, Note_on_c, 4, 68, 0
6, 205458, Note_on_c, 4, 64, 117
6, 205495, Note_on_c, 4, 64, 0
6, 205626, Note_on_c, 4, 68, 119
6, 205666, Note_on_c, 4, 68, 0
6, 205796, Note_on_c, 4, 64, 117
6, 205835, Note_on_c, 4, 64, 0
6, 205972, Note_on_c, 4, 68, 121
6, 206020, Note_on_c, 4, 68, 0
6, 206145, Note_on_c, 4, 63, 116
6, 206176, Note_on_c, 4, 63, 0
6, 206307, Note_on_c, 4, 68, 126
6, 206345, Note_on_c, 4, 68, 0
6, 206476, Note_on_c, 4, 70, 115
6, 206513, Note_on_c, 4, 70, 0
6, 206648, Note_on_c, 4, 68, 121
6, 206682, Note_on_c, 4, 68, 0
6, 206822, Note_on_c, 4, 68, 123
6, 206855, Note_on_c, 4, 68, 0
6, 206994, Note_on_c, 4, 68, 127
6, 207030, Note_on_c, 4, 68, 0
6, 207151, Note_on_c, 4, 68, 124
6, 207187, Note_on_c, 4, 68, 0
6, 207333, Note_on_c, 4, 68, 125
6, 207673, Note_on_c, 4, 66, 115
6, 207740, Note_on_c, 4, 68, 0
6, 208028, Note_on_c, 4, 66, 0
6, 208033, Note_on_c, 4, 64, 97
6, 208107, Note_on_c, 4, 63, 104
6, 208114, Note_on_c, 4, 64, 0
6, 208171, Note_on_c, 4, 61, 100
6, 208193, Note_on_c, 4, 63, 0
6, 208277, Note_on_c, 4, 61, 0
6, 208366, Note_on_c, 4, 68, 110
6, 208398, Note_on_c, 4, 68, 0
6, 208541, Note_on_c, 4, 68, 121
6, 208581, Note_on_c, 4, 68, 0
6, 208714, Note_on_c, 4, 68, 121
6, 209034, Note_on_c, 4, 68, 0
6, 209081, Note_on_c, 4, 66, 101
6, 209425, Note_on_c, 4, 66, 0
6, 209428, Note_on_c, 4, 64, 98
6, 209500, Note_on_c, 4, 63, 94
6, 209506, Note_on_c, 4, 64, 0
6, 209573, Note_on_c, 4, 61, 95
6, 209587, Note_on_c, 4, 63, 0
6, 209643, Note_on_c, 4, 61, 0
6, 209768, Note_on_c, 4, 59, 111
6, 209799, Note_on_c, 4, 59, 0
6, 209923, Note_on_c, 4, 59, 125
6, 209960, Note_on_c, 4, 59, 0
6, 210089, Note_on_c, 4, 59, 127
6, 210441, Note_on_c, 4, 69, 94
6, 210500, Note_on_c, 4, 59, 0
6, 210750, Note_on_c, 4, 68, 80
6, 210764, Note_on_c, 4, 69, 0
6, 210824, Note_on_c, 4, 66, 97
6, 210851, Note_on_c, 4, 68, 0
6, 210918, Note_on_c, 4, 64, 92
6, 210926, Note_on_c, 4, 66, 0
6, 210967, Note_on_c, 4, 64, 0
6, 211085, Note_on_c, 4, 69, 99
6, 211386, Note_on_c, 4, 68, 109
6, 211409, Note_on_c, 4, 69, 0
6, 211447, Note_on_c, 4, 66, 113
6, 211468, Note_on_c, 4, 68, 0
6, 211521, Note_on_c, 4, 66, 0
6, 211522, Note_on_c, 4, 64, 111
6, 211571, Note_on_c, 4, 64, 0
6, 211685, Note_on_c, 4, 69, 116
6, 211983, Note_on_c, 4, 69, 0
6, 211984, Note_on_c, 4, 68, 114
6, 212041, Note_on_c, 4, 66, 119
6, 212063, Note_on_c, 4, 68, 0
6, 212128, Note_on_c, 4, 66, 0
6, 212130, Note_on_c, 4, 64, 112
6, 212181, Note_on_c, 4, 64, 0
6, 212297, Note_on_c, 4, 66, 115
6, 212407, Note_on_c, 4, 66, 0
6, 212446, Note_on_c, 4, 68, 115
6, 212565, Note_on_c, 4, 68, 0
6, 212595, Note_on_c, 4, 69, 112
6, 212730, Note_on_c, 4, 69, 0
6, 212752, Note_on_c, 4, 68, 121
6, 212855, Note_on_c, 4, 68, 0
6, 212920, Note_on_c, 4, 66, 123
6, 212957, Note_on_c, 4, 66, 0
6, 212981, Note_on_c, 4, 66, 98
6, 213031, Note_on_c, 4, 66, 0
6, 213077, Note_on_c, 4, 68, 107
6, 213119, Note_on_c, 4, 68, 0
6, 213141, Note_on_c, 4, 68, 103
6, 213187, Note_on_c, 4, 68, 0
6, 213221, Note_on_c, 4, 69, 104
6, 213266, Note_on_c, 4, 69, 0
6, 213293, Note_on_c, 4, 69, 109
6, 213349, Note_on_c, 4, 69, 0
6, 213382, Note_on_c, 4, 68, 120
6, 213421, Note_on_c, 4, 68, 0
6, 213453, Note_on_c, 4, 68, 110
6, 213515, Note_on_c, 4, 68, 0
6, 213536, Note_on_c, 4, 66, 123
6, 213536, Note_on_c, 4, 59, 125
6, 213568, Note_on_c, 4, 66, 0
6, 213575, Note_on_c, 4, 59, 0
6, 213716, Note_on_c, 4, 59, 121
6, 213907, Note_on_c, 4, 59, 0
6, 214022, Note_on_c, 4, 59, 106
6, 214053, Note_on_c, 4, 59, 0
6, 215268, Note_on_c, 4, 59, 54
6, 217609, Note_on_c, 4, 52, 54
6, 217618, Note_on_c, 4, 59, 0
6, 217794, Note_on_c, 4, 52, 0
6, 219600, Program_c, 4, 45
6, 219830, Note_on_c, 4, 59, 71
6, 219863, Note_on_c, 4, 59, 0
6, 219993, Note_on_c, 4, 59, 67
6, 220021, Note_on_c, 4, 59, 0
6, 220158, Note_on_c, 4, 59, 69
6, 220193, Note_on_c, 4, 59, 0
6, 220320, Program_c, 4, 49
6, 220809, Note_on_c, 4, 59, 86
6, 221544, Note_on_c, 4, 59, 0
6, 222001, Note_on_c, 4, 59, 91
6, 222431, Note_on_c, 4, 59, 0
6, 222475, Note_on_c, 4, 64, 118
6, 222515, Note_on_c, 4, 64, 0
6, 222635, Note_on_c, 4, 64, 121
6, 222636, Note_on_c, 4, 69, 122
6, 222679, Note_on_c, 4, 69, 0
6, 222700, Note_on_c, 4, 64, 0
6, 222806, Note_on_c, 4, 64, 126
6, 222809, Note_on_c, 4, 71, 127
6, 222867, Note_on_c, 4, 71, 0
6, 222872, Note_on_c, 4, 64, 0
6, 223238, Note_on_c, 4, 64, 126
6, 223239, Note_on_c, 4, 73, 125
6, 223276, Note_on_c, 4, 73, 0
6, 223293, Note_on_c, 4, 64, 0
6, 223405, Note_on_c, 4, 64, 127
6, 223410, Note_on_c, 4, 71, 125
6, 223465, Note_on_c, 4, 71, 0
6, 223477, Note_on_c, 4, 64, 0
6, 223868, Note_on_c, 4, 64, 126
6, 223871, Note_on_c, 4, 69, 122
6, 223904, Note_on_c, 4, 69, 0
6, 223906, Note_on_c, 4, 64, 0
6, 224041, Note_on_c, 4, 71, 126
6, 224042, Note_on_c, 4, 64, 127
6, 224078, Note_on_c, 4, 71, 0
6, 224082, Note_on_c, 4, 64, 0
6, 224455, Note_on_c, 4, 73, 127
6, 224456, Note_on_c, 4, 64, 126
6, 224489, Note_on_c, 4, 73, 0
6, 224495, Note_on_c, 4, 64, 0
6, 224625, Note_on_c, 4, 64, 127
6, 224627, Note_on_c, 4, 71, 125
6, 224663, Note_on_c, 4, 71, 0
6, 224668, Note_on_c, 4, 64, 0
6, 226278, Note_on_c, 4, 56, 50
6, 226607, Note_on_c, 4, 56, 0
6, 227574, Note_on_c, 4, 68, 115
6, 227865, Note_on_c, 4, 68, 0
6, 227924, Note_on_c, 4, 68, 115
6, 227990, Note_on_c, 4, 68, 0
6, 228103, Note_on_c, 4, 66, 119
6, 228446, Note_on_c, 4, 66, 0
6, 228566, Note_on_c, 4, 66, 123
6, 228648, Note_on_c, 4, 66, 0
6, 228744, Note_on_c, 4, 64, 109
6, 229048, Note_on_c, 4, 73, 109
6, 229060, Note_on_c, 4, 64, 0
6, 229103, Note_on_c, 4, 73, 0
6, 229232, Note_on_c, 4, 73, 116
6, 229494, Note_on_c, 4, 73, 0
6, 229565, Note_on_c, 4, 73, 106
6, 229628, Note_on_c, 4, 73, 0
6, 229743, Note_on_c, 4, 73, 87
6, 229810, Note_on_c, 4, 73, 0
6, 229924, Note_on_c, 4, 73, 119
6, 230095, Note_on_c, 4, 69, 98
6, 230105, Note_on_c, 4, 73, 0
6, 230262, Note_on_c, 4, 70, 108
6, 230279, Note_on_c, 4, 69, 0
6, 230425, Note_on_c, 4, 70, 0
6, 230435, Note_on_c, 4, 68, 103
6, 230480, Note_on_c, 4, 68, 0
6, 233274, Note_on_c, 4, 73, 53
6, 233554, Note_on_c, 4, 71, 50
6, 233599, Note_on_c, 4, 73, 0
6, 233898, Note_on_c, 4, 69, 52
6, 233911, Note_on_c, 4, 71, 0
6, 234205, Note_on_c, 4, 68, 48
6, 234255, Note_on_c, 4, 69, 0
6, 234510, Note_on_c, 4, 66, 55
6, 234576, Note_on_c, 4, 68, 0
6, 234804, Note_on_c, 4, 64, 47
6, 234816, Note_on_c, 4, 66, 0
6, 235470, Note_on_c, 4, 63, 52
6, 235491, Note_on_c, 4, 64, 0
6, 235705, Note_on_c, 4, 63, 0
6, 235771, Note_on_c, 4, 57, 59
6, 236080, Note_on_c, 4, 56, 71
6, 236213, Note_on_c, 4, 57, 0
6, 236378, Note_on_c, 4, 54, 60
6, 236433, Note_on_c, 4, 56, 0
6, 236710, Note_on_c, 4, 52, 59
6, 236746, Note_on_c, 4, 54, 0
6, 237005, Note_on_c, 4, 51, 52
6, 237049, Note_on_c, 4, 52, 0
6, 237299, Note_on_c, 4, 49, 58
6, 237338, Note_on_c, 4, 51, 0
6, 237906, Note_on_c, 4, 48, 61
6, 237956, Note_on_c, 4, 49, 0
6, 238064, Note_on_c, 4, 48, 0
6, 238117, Note_on_c, 4, 52, 81
6, 238566, Note_on_c, 4, 51, 65
6, 238623, Note_on_c, 4, 52, 0
6, 238675, Note_on_c, 4, 51, 0
6, 238770, Note_on_c, 4, 52, 73
6, 239237, Note_on_c, 4, 51, 63
6, 239296, Note_on_c, 4, 52, 0
6, 239346, Note_on_c, 4, 51, 0
6, 239396, Note_on_c, 4, 55, 84
6, 240568, Note_on_c, 4, 56, 67
6, 240652, Note_on_c, 4, 55, 0
6, 241644, Note_on_c, 4, 55, 79
6, 241677, Note_on_c, 4, 56, 0
6, 241940, Note_on_c, 4, 54, 67
6, 242059, Note_on_c, 4, 55, 0
6, 243172, Note_on_c, 4, 54, 0
6, 243208, Note_on_c, 4, 55, 62
6, 243814, Note_on_c, 4, 61, 87
6, 243859, Note_on_c, 4, 55, 0
6, 244517, Note_on_c, 4, 62, 80
6, 244553, Note_on_c, 4, 61, 0
6, 245215, Note_on_c, 4, 59, 74
6, 245265, Note_on_c, 4, 62, 0
6, 245835, Note_on_c, 4, 61, 79
6, 245857, Note_on_c, 4, 59, 0
6, 246576, Note_on_c, 4, 61, 0
6, 246579, Note_on_c, 4, 54, 80
6, 246964, Note_on_c, 4, 53, 92
6, 247010, Note_on_c, 4, 54, 0
6, 247277, Note_on_c, 4, 52, 84
6, 247322, Note_on_c, 4, 53, 0
6, 248617, Note_on_c, 4, 52, 0
6, 248620, Note_on_c, 4, 53, 65
6, 249300, Note_on_c, 4, 59, 93
6, 249326, Note_on_c, 4, 53, 0
6, 249958, Note_on_c, 4, 60, 84
6, 250000, Note_on_c, 4, 59, 0
6, 250644, Note_on_c, 4, 57, 69
6, 250655, Note_on_c, 4, 60, 0
6, 251353, Note_on_c, 4, 59, 42
6, 251397, Note_on_c, 4, 57, 0
6, 251459, Note_on_c, 4, 59, 0
6, 251544, Note_on_c, 4, 64, 51
6, 251725, Note_on_c, 4, 58, 48
6, 251727, Note_on_c, 4, 64, 0
6, 251887, Note_on_c, 4, 59, 39
6, 251909, Note_on_c, 4, 58, 0
6, 252083, Note_on_c, 4, 59, 0
6, 252090, Note_on_c, 4, 56, 40
6, 252294, Note_on_c, 4, 57, 36
6, 252300, Note_on_c, 4, 56, 0
6, 252432, Note_on_c, 4, 59, 37
6, 252471, Note_on_c, 4, 57, 0
6, 252490, Note_on_c, 4, 60, 51
6, 252502, Note_on_c, 4, 59, 0
6, 252565, Note_on_c, 4, 60, 0
6, 252652, Note_on_c, 4, 54, 50
6, 252803, Note_on_c, 4, 54, 0
6, 252845, Note_on_c, 4, 55, 52
6, 252906, Note_on_c, 4, 55, 0
6, 253015, Note_on_c, 4, 67, 76
6, 253186, Note_on_c, 4, 67, 0
6, 253197, Note_on_c, 4, 70, 81
6, 253387, Note_on_c, 4, 69, 70
6, 253420, Note_on_c, 4, 70, 0
6, 253556, Note_on_c, 4, 68, 80
6, 253570, Note_on_c, 4, 69, 0
6, 253720, Note_on_c, 4, 69, 59
6, 253737, Note_on_c, 4, 68, 0
6, 253848, Note_on_c, 4, 69, 0
6, 253874, Note_on_c, 4, 62, 69
6, 254066, Note_on_c, 4, 61, 73
6, 254111, Note_on_c, 4, 62, 0
6, 254400, Note_on_c, 4, 61, 0
6, 255875, Note_on_c, 4, 60, 78
6, 256284, Note_on_c, 4, 59, 76
6, 256308, Note_on_c, 4, 60, 0
6, 256460, Note_on_c, 4, 58, 88
6, 256477, Note_on_c, 4, 59, 0
6, 256618, Note_on_c, 4, 59, 77
6, 256620, Note_on_c, 4, 58, 0
6, 256792, Note_on_c, 4, 55, 84
6, 256799, Note_on_c, 4, 59, 0
6, 256969, Note_on_c, 4, 54, 89
6, 256995, Note_on_c, 4, 55, 0
6, 257126, Note_on_c, 4, 54, 0
6, 257164, Note_on_c, 4, 56, 98
6, 257365, Note_on_c, 4, 56, 0
6, 259262, Note_on_c, 4, 61, 85
6, 259930, Note_on_c, 4, 61, 0
6, 259965, Note_on_c, 4, 54, 81
6, 261559, Note_on_c, 4, 54, 0
6, 261588, Note_on_c, 4, 60, 85
6, 261771, Note_on_c, 4, 59, 84
6, 261828, Note_on_c, 4, 60, 0
6, 261923, Note_on_c, 4, 59, 0
6, 261950, Note_on_c, 4, 59, 83
6, 263712, Note_on_c, 4, 59, 0
6, 264301, Note_on_c, 4, 62, 80
6, 264340, Note_on_c, 4, 62, 0
6, 264466, Note_on_c, 4, 62, 65
6, 264501, Note_on_c, 4, 62, 0
6, 264635, Note_on_c, 4, 62, 55
6, 264676, Note_on_c, 4, 62, 0
6, 264935, Note_on_c, 4, 62, 65
6, 264980, Note_on_c, 4, 62, 0
6, 265095, Note_on_c, 4, 62, 63
6, 265140, Note_on_c, 4, 62, 0
6, 265235, Note_on_c, 4, 61, 73
6, 265277, Note_on_c, 4, 61, 0
6, 265601, Note_on_c, 4, 61, 60
6, 265658, Note_on_c, 4, 61, 0
6, 265772, Note_on_c, 4, 61, 51
6, 265871, Note_on_c, 4, 61, 0
6, 266009, Note_on_c, 4, 61, 53
6, 266813, Note_on_c, 4, 66, 57
6, 266945, Note_on_c, 4, 61, 0
6, 268436, Note_on_c, 4, 65, 61
6, 268477, Note_on_c, 4, 66, 0
6, 268880, Note_on_c, 4, 66, 53
6, 269034, Note_on_c, 4, 65, 0
6, 271163, Note_on_c, 4, 65, 54
6, 271205, Note_on_c, 4, 66, 0
6, 271575, Note_on_c, 4, 66, 55
6, 271645, Note_on_c, 4, 65, 0
6, 272292, Note_on_c, 4, 54, 48
6, 272309, Note_on_c, 4, 66, 0
6, 273871, Note_on_c, 4, 55, 68
6, 273898, Note_on_c, 4, 54, 0
6, 274213, Note_on_c, 4, 56, 68
6, 274287, Note_on_c, 4, 55, 0
6, 274517, Note_on_c, 4, 57, 65
6, 274589, Note_on_c, 4, 56, 0
6, 274811, Note_on_c, 4, 58, 72
6, 274881, Note_on_c, 4, 57, 0
6, 275116, Note_on_c, 4, 59, 73
6, 275164, Note_on_c, 4, 58, 0
6, 275434, Note_on_c, 4, 60, 83
6, 275470, Note_on_c, 4, 59, 0
6, 275714, Note_on_c, 4, 61, 86
6, 275811, Note_on_c, 4, 60, 0
6, 276015, Note_on_c, 4, 64, 94
6, 276085, Note_on_c, 4, 61, 0
6, 276323, Note_on_c, 4, 63, 94
6, 276362, Note_on_c, 4, 64, 0
6, 276633, Note_on_c, 4, 64, 91
6, 276682, Note_on_c, 4, 63, 0
6, 277074, Note_on_c, 4, 64, 0
6, 278115, Note_on_c, 4, 61, 54
6, 279840, Control_c, 4, 11, 80
6, 279841, Note_on_c, 4, 61, 0
6, 279859, Note_on_c, 4, 59, 46
6, 280114, Note_on_c, 4, 59, 0
6, 280245, Note_on_c, 4, 59, 76
6, 280281, Note_on_c, 4, 59, 0
6, 280331, Note_on_c, 4, 59, 67
6, 280367, Note_on_c, 4, 59, 0
6, 280412, Note_on_c, 4, 59, 68
6, 280447, Note_on_c, 4, 59, 0
6, 280489, Note_on_c, 4, 59, 67
6, 280530, Note_on_c, 4, 59, 0
6, 280600, Note_on_c, 4, 59, 69
6, 280801, Note_on_c, 4, 59, 0
6, 280936, Note_on_c, 4, 59, 74
6, 280973, Note_on_c, 4, 59, 0
6, 281027, Note_on_c, 4, 59, 61
6, 281065, Note_on_c, 4, 59, 0
6, 281116, Note_on_c, 4, 59, 66
6, 281155, Note_on_c, 4, 59, 0
6, 281192, Note_on_c, 4, 59, 65
6, 281225, Note_on_c, 4, 59, 0
6, 281297, Note_on_c, 4, 59, 69
6, 281517, Note_on_c, 4, 59, 0
6, 281667, Note_on_c, 4, 59, 75
6, 281706, Note_on_c, 4, 59, 0
6, 281747, Note_on_c, 4, 59, 54
6, 281785, Note_on_c, 4, 59, 0
6, 281840, Note_on_c, 4, 59, 67
6, 281885, Note_on_c, 4, 59, 0
6, 281926, Note_on_c, 4, 59, 66
6, 281955, Note_on_c, 4, 59, 0
6, 282030, Note_on_c, 4, 59, 68
6, 282222, Note_on_c, 4, 59, 0
6, 282378, Note_on_c, 4, 59, 68
6, 282414, Note_on_c, 4, 59, 0
6, 282462, Note_on_c, 4, 59, 62
6, 282493, Note_on_c, 4, 59, 0
6, 282555, Note_on_c, 4, 59, 63
6, 282595, Note_on_c, 4, 59, 0
6, 282646, Note_on_c, 4, 59, 68
6, 282673, Note_on_c, 4, 59, 0
6, 282743, Note_on_c, 4, 59, 65
6, 282958, Note_on_c, 4, 59, 0
6, 283111, Note_on_c, 4, 59, 71
6, 283147, Note_on_c, 4, 59, 0
6, 283193, Note_on_c, 4, 59, 59
6, 283225, Note_on_c, 4, 59, 0
6, 283283, Note_on_c, 4, 59, 71
6, 283326, Note_on_c, 4, 59, 0
6, 283369, Note_on_c, 4, 59, 59
6, 283398, Note_on_c, 4, 59, 0
6, 283472, Note_on_c, 4, 59, 68
6, 283654, Note_on_c, 4, 59, 0
6, 283833, Note_on_c, 4, 59, 73
6, 283873, Note_on_c, 4, 59, 0
6, 283918, Note_on_c, 4, 59, 59
6, 283951, Note_on_c, 4, 59, 0
6, 284013, Note_on_c, 4, 59, 60
6, 284049, Note_on_c, 4, 59, 0
6, 284099, Note_on_c, 4, 59, 63
6, 284124, Note_on_c, 4, 59, 0
6, 284205, Note_on_c, 4, 59, 59
6, 284399, Note_on_c, 4, 59, 0
6, 284579, Note_on_c, 4, 59, 71
6, 284622, Note_on_c, 4, 59, 0
6, 284666, Note_on_c, 4, 59, 60
6, 284701, Note_on_c, 4, 59, 0
6, 284757, Note_on_c, 4, 59, 65
6, 284798, Note_on_c, 4, 59, 0
6, 284843, Note_on_c, 4, 59, 63
6, 284869, Note_on_c, 4, 59, 0
6, 284967, Note_on_c, 4, 59, 19
6, 285191, Note_on_c, 4, 54, 68
6, 285247, Note_on_c, 4, 59, 0
6, 285378, Note_on_c, 4, 59, 74
6, 285458, Note_on_c, 4, 54, 0
6, 285583, Note_on_c, 4, 58, 66
6, 285638, Note_on_c, 4, 59, 0
6, 285805, Note_on_c, 4, 59, 57
6, 285868, Note_on_c, 4, 58, 0
6, 286121, Note_on_c, 4, 59, 0
6, 286281, Note_on_c, 4, 61, 87
6, 286323, Note_on_c, 4, 61, 0
6, 286391, Note_on_c, 4, 61, 84
6, 286437, Note_on_c, 4, 61, 0
6, 286503, Note_on_c, 4, 61, 72
6, 286542, Note_on_c, 4, 61, 0
6, 286588, Note_on_c, 4, 61, 64
6, 286635, Note_on_c, 4, 61, 0
6, 286697, Note_on_c, 4, 61, 42
6, 286903, Note_on_c, 4, 61, 0
6, 287064, Note_on_c, 4, 61, 91
6, 287104, Note_on_c, 4, 61, 0
6, 287160, Note_on_c, 4, 61, 86
6, 287197, Note_on_c, 4, 61, 0
6, 287248, Note_on_c, 4, 63, 90
6, 287273, Note_on_c, 4, 63, 0
6, 287336, Note_on_c, 4, 63, 88
6, 287382, Note_on_c, 4, 63, 0
6, 287449, Note_on_c, 4, 61, 65
6, 287635, Note_on_c, 4, 61, 0
6, 287809, Note_on_c, 4, 61, 84
6, 287843, Note_on_c, 4, 61, 0
6, 287893, Note_on_c, 4, 61, 76
6, 287933, Note_on_c, 4, 61, 0
6, 287988, Note_on_c, 4, 61, 79
6, 288026, Note_on_c, 4, 61, 0
6, 288064, Note_on_c, 4, 61, 72
6, 288107, Note_on_c, 4, 61, 0
6, 288172, Note_on_c, 4, 61, 51
6, 288343, Note_on_c, 4, 61, 0
6, 288515, Note_on_c, 4, 61, 79
6, 288547, Note_on_c, 4, 61, 0
6, 288605, Note_on_c, 4, 61, 72
6, 288645, Note_on_c, 4, 61, 0
6, 288712, Note_on_c, 4, 61, 85
6, 288752, Note_on_c, 4, 61, 0
6, 288800, Note_on_c, 4, 61, 76
6, 288834, Note_on_c, 4, 61, 0
6, 288916, Note_on_c, 4, 61, 57
6, 289141, Note_on_c, 4, 61, 0
6, 289296, Note_on_c, 4, 61, 84
6, 289334, Note_on_c, 4, 61, 0
6, 289408, Note_on_c, 4, 61, 81
6, 289451, Note_on_c, 4, 61, 0
6, 289492, Note_on_c, 4, 61, 66
6, 289535, Note_on_c, 4, 61, 0
6, 289565, Note_on_c, 4, 61, 57
6, 289609, Note_on_c, 4, 61, 0
6, 289669, Note_on_c, 4, 61, 48
6, 289866, Note_on_c, 4, 61, 0
6, 290025, Note_on_c, 4, 61, 86
6, 290059, Note_on_c, 4, 61, 0
6, 290100, Note_on_c, 4, 61, 68
6, 290143, Note_on_c, 4, 61, 0
6, 290209, Note_on_c, 4, 61, 81
6, 290245, Note_on_c, 4, 61, 0
6, 290291, Note_on_c, 4, 61, 68
6, 290335, Note_on_c, 4, 61, 0
6, 290406, Note_on_c, 4, 61, 63
6, 290592, Note_on_c, 4, 61, 0
6, 290783, Note_on_c, 4, 61, 87
6, 290822, Note_on_c, 4, 61, 0
6, 290865, Note_on_c, 4, 61, 64
6, 290907, Note_on_c, 4, 61, 0
6, 290973, Note_on_c, 4, 61, 84
6, 291010, Note_on_c, 4, 61, 0
6, 291049, Note_on_c, 4, 61, 75
6, 291094, Note_on_c, 4, 61, 0
6, 291167, Note_on_c, 4, 61, 59
6, 291336, Note_on_c, 4, 61, 0
6, 291562, Note_on_c, 4, 61, 88
6, 291597, Note_on_c, 4, 61, 0
6, 291640, Note_on_c, 4, 61, 80
6, 291687, Note_on_c, 4, 61, 0
6, 291741, Note_on_c, 4, 59, 75
6, 291780, Note_on_c, 4, 59, 0
6, 291827, Note_on_c, 4, 59, 74
6, 291877, Note_on_c, 4, 59, 0
6, 291920, Note_on_c, 4, 58, 87
6, 292074, Note_on_c, 4, 58, 0
6, 292128, Note_on_c, 4, 61, 55
6, 292346, Note_on_c, 4, 54, 76
6, 292349, Note_on_c, 4, 61, 0
6, 292393, Note_on_c, 4, 54, 0
6, 292444, Note_on_c, 4, 54, 76
6, 292487, Note_on_c, 4, 54, 0
6, 292552, Note_on_c, 4, 54, 91
6, 292593, Note_on_c, 4, 54, 0
6, 292644, Note_on_c, 4, 54, 86
6, 292695, Note_on_c, 4, 54, 0
6, 292809, Note_on_c, 4, 54, 44
6, 293059, Note_on_c, 4, 54, 0
6, 293268, Note_on_c, 4, 59, 86
6, 293296, Note_on_c, 4, 59, 0
6, 293348, Note_on_c, 4, 59, 79
6, 293393, Note_on_c, 4, 59, 0
6, 293454, Note_on_c, 4, 62, 73
6, 293484, Note_on_c, 4, 62, 0
6, 293541, Note_on_c, 4, 62, 72
6, 293579, Note_on_c, 4, 62, 0
6, 293647, Note_on_c, 4, 62, 65
6, 293857, Note_on_c, 4, 62, 0
6, 294032, Note_on_c, 4, 55, 84
6, 294056, Note_on_c, 4, 55, 0
6, 294125, Note_on_c, 4, 55, 84
6, 294158, Note_on_c, 4, 55, 0
6, 294223, Note_on_c, 4, 55, 81
6, 294249, Note_on_c, 4, 55, 0
6, 294305, Note_on_c, 4, 55, 82
6, 294336, Note_on_c, 4, 55, 0
6, 294417, Note_on_c, 4, 55, 77
6, 294607, Note_on_c, 4, 55, 0
6, 294800, Note_on_c, 4, 55, 77
6, 294824, Note_on_c, 4, 55, 0
6, 294875, Note_on_c, 4, 55, 81
6, 294909, Note_on_c, 4, 55, 0
6, 294983, Note_on_c, 4, 55, 67
6, 295006, Note_on_c, 4, 55, 0
6, 295056, Note_on_c, 4, 55, 79
6, 295089, Note_on_c, 4, 55, 0
6, 295173, Note_on_c, 4, 55, 68
6, 295395, Note_on_c, 4, 55, 0
6, 295588, Note_on_c, 4, 55, 81
6, 295620, Note_on_c, 4, 55, 0
6, 295668, Note_on_c, 4, 55, 76
6, 295702, Note_on_c, 4, 55, 0
6, 295770, Note_on_c, 4, 55, 72
6, 295792, Note_on_c, 4, 55, 0
6, 295850, Note_on_c, 4, 55, 76
6, 295879, Note_on_c, 4, 55, 0
6, 295964, Note_on_c, 4, 55, 74
6, 296167, Note_on_c, 4, 55, 0
6, 296370, Note_on_c, 4, 55, 82
6, 296395, Note_on_c, 4, 55, 0
6, 296447, Note_on_c, 4, 55, 78
6, 296475, Note_on_c, 4, 55, 0
6, 296542, Note_on_c, 4, 55, 80
6, 296570, Note_on_c, 4, 55, 0
6, 296627, Note_on_c, 4, 55, 84
6, 296662, Note_on_c, 4, 54, 59
6, 296665, Note_on_c, 4, 55, 0
6, 297080, Note_on_c, 4, 54, 0
6, 297150, Note_on_c, 4, 54, 72
6, 297197, Note_on_c, 4, 54, 0
6, 297245, Note_on_c, 4, 54, 67
6, 297297, Note_on_c, 4, 54, 0
6, 297354, Note_on_c, 4, 54, 69
6, 297407, Note_on_c, 4, 54, 0
6, 297462, Note_on_c, 4, 54, 71
6, 297527, Note_on_c, 4, 54, 0
6, 297591, Note_on_c, 4, 52, 63
6, 297779, Note_on_c, 4, 52, 0
6, 297995, Note_on_c, 4, 55, 52
6, 298634, Note_on_c, 4, 55, 0
6, 298896, Note_on_c, 4, 54, 58
6, 299863, Note_on_c, 4, 54, 0
6, 300079, Note_on_c, 4, 54, 65
6, 300127, Note_on_c, 4, 54, 0
6, 300177, Note_on_c, 4, 54, 64
6, 300234, Note_on_c, 4, 54, 0
6, 300301, Note_on_c, 4, 54, 61
6, 300351, Note_on_c, 4, 54, 0
6, 300399, Note_on_c, 4, 54, 56
6, 300475, Note_on_c, 4, 54, 0
6, 300561, Note_on_c, 4, 52, 44
6, 301080, Note_on_c, 4, 52, 0
6, 301180, Note_on_c, 4, 54, 48
6, 302174, Note_on_c, 4, 54, 0
6, 302223, Note_on_c, 4, 54, 65
6, 302290, Note_on_c, 4, 54, 0
6, 302317, Note_on_c, 4, 54, 30
6, 302388, Note_on_c, 4, 54, 0
6, 302411, Note_on_c, 4, 54, 30
6, 302498, Note_on_c, 4, 54, 0
6, 302606, Note_on_c, 4, 59, 49
6, 302867, Note_on_c, 4, 54, 48
6, 302889, Note_on_c, 4, 59, 0
6, 303042, Note_on_c, 4, 54, 0
6, 303135, Note_on_c, 4, 59, 63
6, 303192, Note_on_c, 4, 59, 0
6, 303293, Note_on_c, 4, 59, 48
6, 303361, Note_on_c, 4, 59, 0
6, 303453, Note_on_c, 4, 59, 48
6, 303526, Note_on_c, 4, 59, 0
6, 303659, Note_on_c, 4, 59, 44
6, 303744, Note_on_c, 4, 59, 0
6, 304048, Note_on_c, 4, 59, 27
6, 307318, Note_on_c, 4, 59, 0
6, 308235, Note_on_c, 4, 52, 51
6, 308486, Note_on_c, 4, 52, 0
6, 308655, Note_on_c, 4, 52, 76
6, 308693, Note_on_c, 4, 52, 0
6, 308748, Note_on_c, 4, 52, 70
6, 308786, Note_on_c, 4, 52, 0
6, 308849, Note_on_c, 4, 52, 71
6, 308885, Note_on_c, 4, 52, 0
6, 308937, Note_on_c, 4, 52, 65
6, 308971, Note_on_c, 4, 52, 0
6, 309042, Note_on_c, 4, 52, 57
6, 309278, Note_on_c, 4, 52, 0
6, 309419, Note_on_c, 4, 52, 72
6, 309461, Note_on_c, 4, 52, 0
6, 309517, Note_on_c, 4, 52, 65
6, 309554, Note_on_c, 4, 52, 0
6, 309621, Note_on_c, 4, 52, 63
6, 309656, Note_on_c, 4, 52, 0
6, 309713, Note_on_c, 4, 52, 60
6, 309755, Note_on_c, 4, 52, 0
6, 309844, Note_on_c, 4, 52, 60
6, 310149, Note_on_c, 4, 52, 0
6, 310282, Note_on_c, 4, 52, 76
6, 310324, Note_on_c, 4, 52, 0
6, 310365, Note_on_c, 4, 52, 71
6, 310408, Note_on_c, 4, 52, 0
6, 310465, Note_on_c, 4, 52, 65
6, 310504, Note_on_c, 4, 52, 0
6, 310552, Note_on_c, 4, 52, 59
6, 310595, Note_on_c, 4, 52, 0
6, 310653, Note_on_c, 4, 52, 59
6, 310912, Note_on_c, 4, 52, 0
6, 311045, Note_on_c, 4, 52, 80
6, 311087, Note_on_c, 4, 52, 0
6, 311130, Note_on_c, 4, 52, 72
6, 311170, Note_on_c, 4, 52, 0
6, 311226, Note_on_c, 4, 52, 72
6, 311265, Note_on_c, 4, 52, 0
6, 311317, Note_on_c, 4, 52, 64
6, 311357, Note_on_c, 4, 52, 0
6, 311427, Note_on_c, 4, 52, 62
6, 311688, Note_on_c, 4, 52, 0
6, 311830, Note_on_c, 4, 52, 86
6, 311877, Note_on_c, 4, 52, 0
6, 311920, Note_on_c, 4, 52, 74
6, 311969, Note_on_c, 4, 52, 0
6, 312024, Note_on_c, 4, 52, 72
6, 312071, Note_on_c, 4, 52, 0
6, 312113, Note_on_c, 4, 52, 65
6, 312165, Note_on_c, 4, 52, 0
6, 312218, Note_on_c, 4, 52, 69
6, 312459, Note_on_c, 4, 52, 0
6, 312590, Note_on_c, 4, 52, 82
6, 312692, Note_on_c, 4, 52, 0
6, 312759, Note_on_c, 4, 59, 88
6, 312902, Note_on_c, 4, 59, 0
6, 312936, Note_on_c, 4, 64, 96
6, 313024, Note_on_c, 4, 64, 0
6, 313261, Note_on_c, 4, 64, 111
6, 313752, Note_on_c, 4, 64, 0
6, 313944, Note_on_c, 4, 64, 126
6, 314383, Note_on_c, 4, 64, 0
6, 315360, Control_c, 4, 11, 100
6, 315777, Note_on_c, 4, 71, 122
6, 315833, Note_on_c, 4, 71, 0
6, 315957, Note_on_c, 4, 69, 125
6, 316028, Note_on_c, 4, 69, 0
6, 316133, Note_on_c, 4, 67, 125
6, 316176, Note_on_c, 4, 67, 0
6, 316323, Note_on_c, 4, 68, 124
6, 316397, Note_on_c, 4, 68, 0
6, 316720, Note_on_c, 4, 66, 119
6, 316727, Note_on_c, 4, 71, 118
6, 317156, Note_on_c, 4, 71, 0
6, 317163, Note_on_c, 4, 64, 111
6, 317173, Note_on_c, 4, 71, 118
6, 317203, Note_on_c, 4, 66, 0
6, 317305, Note_on_c, 4, 71, 0
6, 317311, Note_on_c, 4, 64, 0
6, 318000, Program_c, 4, 45
6, 318022, Note_on_c, 4, 64, 47
6, 318062, Note_on_c, 4, 64, 0
6, 318646, Note_on_c, 4, 64, 50
6, 318677, Note_on_c, 4, 64, 0
6, 318961, Note_on_c, 4, 64, 55
6, 318995, Note_on_c, 4, 64, 0
6, 319272, Note_on_c, 4, 64, 41
6, 319302, Note_on_c, 4, 64, 0
6, 322080, Program_c, 4, 49
6, 322434, Note_on_c, 4, 71, 97
6, 322436, Note_on_c, 4, 64, 91
6, 322561, Note_on_c, 4, 64, 0
6, 322565, Note_on_c, 4, 71, 0
6, 323055, Program_c, 4, 45
6, 323055, Note_on_c, 4, 64, 55
6, 323095, Note_on_c, 4, 64, 0
6, 323653, Note_on_c, 4, 64, 52
6, 323691, Note_on_c, 4, 64, 0
6, 323975, Note_on_c, 4, 64, 41
6, 324010, Note_on_c, 4, 64, 0
6, 324282, Note_on_c, 4, 64, 59
6, 324330, Note_on_c, 4, 64, 0
6, 327120, Program_c, 4, 49
6, 327519, Note_on_c, 4, 56, 59
6, 328210, Note_on_c, 4, 54, 76
6, 328285, Note_on_c, 4, 56, 0
6, 328505, Note_on_c, 4, 54, 0
6, 328536, Note_on_c, 4, 57, 69
6, 329521, Note_on_c, 4, 56, 63
6, 329556, Note_on_c, 4, 57, 0
6, 329845, Note_on_c, 4, 56, 0
6, 329862, Note_on_c, 4, 59, 76
6, 330862, Note_on_c, 4, 57, 59
6, 330870, Note_on_c, 4, 59, 0
6, 331521, Note_on_c, 4, 55, 97
6, 331581, Note_on_c, 4, 57, 0
6, 331796, Note_on_c, 4, 55, 0
6, 332281, Note_on_c, 4, 59, 50
6, 333837, Note_on_c, 4, 57, 49
6, 333917, Note_on_c, 4, 59, 0
6, 334500, Note_on_c, 4, 55, 53
6, 334561, Note_on_c, 4, 57, 0
6, 335138, Note_on_c, 4, 56, 51
6, 335170, Note_on_c, 4, 55, 0
6, 335430, Note_on_c, 4, 57, 49
6, 335492, Note_on_c, 4, 56, 0
6, 335743, Note_on_c, 4, 56, 48
6, 335812, Note_on_c, 4, 57, 0
6, 336041, Note_on_c, 4, 56, 0
6, 336058, Note_on_c, 4, 59, 58
6, 336360, Note_on_c, 4, 57, 46
6, 336394, Note_on_c, 4, 59, 0
6, 336990, Note_on_c, 4, 55, 47
6, 337060, Note_on_c, 4, 57, 0
6, 337589, Note_on_c, 4, 56, 55
6, 337650, Note_on_c, 4, 55, 0
6, 337881, Note_on_c, 4, 59, 41
6, 337884, Note_on_c, 4, 56, 0
6, 338221, Note_on_c, 4, 59, 0
6, 338515, Note_on_c, 4, 61, 60
6, 340013, Note_on_c, 4, 59, 44
6, 340020, Note_on_c, 4, 63, 70
6, 340025, Note_on_c, 4, 61, 0
6, 340554, Note_on_c, 4, 64, 72
6, 340590, Note_on_c, 4, 63, 0
6, 340716, Note_on_c, 4, 64, 0
6, 340720, Note_on_c, 4, 59, 0
6, 340908, Note_on_c, 4, 61, 49
6, 342344, Note_on_c, 4, 59, 23
6, 342350, Note_on_c, 4, 63, 46
6, 342388, Note_on_c, 4, 61, 0
6, 342882, Note_on_c, 4, 59, 0
6, 342955, Note_on_c, 4, 59, 54
6, 343033, Note_on_c, 4, 63, 0
6, 343607, Note_on_c, 4, 64, 65
6, 343672, Note_on_c, 4, 59, 0
6, 344803, Note_on_c, 4, 63, 70
6, 344845, Note_on_c, 4, 64, 0
6, 345433, Note_on_c, 4, 64, 55
6, 345477, Note_on_c, 4, 63, 0
6, 347213, Note_on_c, 4, 63, 65
6, 347260, Note_on_c, 4, 64, 0
6, 347606, Note_on_c, 4, 63, 0
6, 347835, Program_c, 4, 45
6, 347835, Note_on_c, 4, 64, 65
6, 347875, Note_on_c, 4, 64, 0
6, 348003, Note_on_c, 4, 61, 71
6, 348036, Note_on_c, 4, 61, 0
6, 348157, Note_on_c, 4, 59, 46
6, 348203, Note_on_c, 4, 59, 0
6, 348307, Note_on_c, 4, 59, 48
6, 348349, Note_on_c, 4, 59, 0
6, 348453, Note_on_c, 4, 64, 68
6, 348501, Note_on_c, 4, 64, 0
6, 348596, Note_on_c, 4, 61, 70
6, 348630, Note_on_c, 4, 61, 0
6, 348754, Note_on_c, 4, 59, 50
6, 348799, Note_on_c, 4, 59, 0
6, 348899, Note_on_c, 4, 59, 46
6, 348945, Note_on_c, 4, 59, 0
6, 349043, Note_on_c, 4, 59, 60
6, 349079, Note_on_c, 4, 59, 0
6, 349193, Note_on_c, 4, 64, 73
6, 349227, Note_on_c, 4, 64, 0
6, 349455, Note_on_c, 4, 68, 67
6, 349482, Note_on_c, 4, 68, 0
6, 349745, Note_on_c, 4, 64, 46
6, 349781, Note_on_c, 4, 64, 0
6, 350036, Note_on_c, 4, 63, 72
6, 350074, Note_on_c, 4, 63, 0
6, 350199, Note_on_c, 4, 64, 68
6, 350267, Note_on_c, 4, 64, 0
6, 350340, Note_on_c, 4, 61, 67
6, 350385, Note_on_c, 4, 61, 0
6, 350483, Note_on_c, 4, 59, 54
6, 350515, Note_on_c, 4, 59, 0
6, 350642, Note_on_c, 4, 59, 60
6, 350673, Note_on_c, 4, 59, 0
6, 350782, Note_on_c, 4, 64, 78
6, 350838, Note_on_c, 4, 64, 0
6, 350933, Note_on_c, 4, 61, 66
6, 350975, Note_on_c, 4, 61, 0
6, 351082, Note_on_c, 4, 59, 60
6, 351122, Note_on_c, 4, 59, 0
6, 351234, Note_on_c, 4, 59, 48
6, 351262, Note_on_c, 4, 59, 0
6, 351379, Note_on_c, 4, 59, 71
6, 351423, Note_on_c, 4, 59, 0
6, 351539, Note_on_c, 4, 64, 54
6, 351568, Note_on_c, 4, 64, 0
6, 351797, Note_on_c, 4, 61, 81
6, 351828, Note_on_c, 4, 61, 0
6, 352095, Note_on_c, 4, 61, 80
6, 352128, Note_on_c, 4, 61, 0
6, 352375, Note_on_c, 4, 59, 69
6, 352398, Note_on_c, 4, 59, 0
6, 352531, Note_on_c, 4, 59, 93
6, 352553, Note_on_c, 4, 59, 0
6, 352800, Program_c, 4, 49
6, 352884, Note_on_c, 4, 59, 86
6, 353186, Note_on_c, 4, 59, 0
6, 353210, Note_on_c, 4, 59, 101
6, 353489, Note_on_c, 4, 59, 0
6, 353527, Note_on_c, 4, 59, 113
6, 353566, Note_on_c, 4, 59, 0
6, 353683, Note_on_c, 4, 59, 117
6, 353722, Note_on_c, 4, 59, 0
6, 353855, Note_on_c, 4, 64, 108
6, 354182, Note_on_c, 4, 64, 0
6, 354489, Note_on_c, 4, 64, 108
6, 354753, Note_on_c, 4, 64, 0
6, 354810, Note_on_c, 4, 64, 126
6, 354848, Note_on_c, 4, 64, 0
6, 354962, Note_on_c, 4, 64, 127
6, 355003, Note_on_c, 4, 64, 0
6, 355123, Note_on_c, 4, 64, 127
6, 355200, Control_c, 4, 11, 100
6, 355205, Control_c, 4, 11, 96
6, 355210, Control_c, 4, 11, 93
6, 355215, Control_c, 4, 11, 90
6, 355220, Control_c, 4, 11, 89
6, 355225, Control_c, 4, 11, 86
6, 355230, Control_c, 4, 11, 84
6, 355235, Control_c, 4, 11, 82
6, 355240, Control_c, 4, 11, 80
6, 355245, Control_c, 4, 11, 78
6, 355250, Control_c, 4, 11, 77
6, 355255, Control_c, 4, 11, 75
6, 355260, Control_c, 4, 11, 73
6, 355265, Control_c, 4, 11, 72
6, 355270, Control_c, 4, 11, 71
6, 355275, Control_c, 4, 11, 69
6, 355280, Control_c, 4, 11, 68
6, 355285, Control_c, 4, 11, 67
6, 355290, Control_c, 4, 11, 66
6, 355295, Control_c, 4, 11, 65
6, 355300, Control_c, 4, 11, 64
6, 355305, Control_c, 4, 11, 63
6, 355315, Control_c, 4, 11, 62
6, 355320, Control_c, 4, 11, 61
6, 355325, Control_c, 4, 11, 60
6, 355335, Control_c, 4, 11, 59
6, 355340, Control_c, 4, 11, 58
6, 355350, Control_c, 4, 11, 57
6, 355360, Control_c, 4, 11, 56
6, 355370, Control_c, 4, 11, 55
6, 355385, Control_c, 4, 11, 54
6, 355400, Control_c, 4, 11, 53
6, 355420, Control_c, 4, 11, 52
6, 355440, Control_c, 4, 11, 51
6, 355475, Control_c, 4, 11, 50
6, 355525, Control_c, 4, 11, 49
6, 355550, Control_c, 4, 11, 50
6, 355570, Control_c, 4, 11, 51
6, 355595, Control_c, 4, 11, 52
6, 355615, Control_c, 4, 11, 53
6, 355635, Control_c, 4, 11, 54
6, 355660, Control_c, 4, 11, 55
6, 355680, Control_c, 4, 11, 56
6, 355700, Control_c, 4, 11, 57
6, 355725, Control_c, 4, 11, 58
6, 355745, Control_c, 4, 11, 59
6, 355770, Control_c, 4, 11, 60
6, 355790, Control_c, 4, 11, 61
6, 355810, Control_c, 4, 11, 62
6, 355835, Control_c, 4, 11, 63
6, 355855, Control_c, 4, 11, 64
6, 355875, Control_c, 4, 11, 65
6, 355900, Control_c, 4, 11, 66
6, 355920, Control_c, 4, 11, 67
6, 355945, Control_c, 4, 11, 68
6, 355965, Control_c, 4, 11, 69
6, 355985, Control_c, 4, 11, 70
6, 356010, Control_c, 4, 11, 71
6, 356030, Control_c, 4, 11, 72
6, 356050, Control_c, 4, 11, 73
6, 356075, Control_c, 4, 11, 74
6, 356095, Control_c, 4, 11, 75
6, 356115, Control_c, 4, 11, 76
6, 356140, Control_c, 4, 11, 77
6, 356160, Control_c, 4, 11, 78
6, 356185, Control_c, 4, 11, 79
6, 356205, Control_c, 4, 11, 80
6, 356225, Control_c, 4, 11, 81
6, 356250, Control_c, 4, 11, 82
6, 356270, Control_c, 4, 11, 83
6, 356290, Control_c, 4, 11, 84
6, 356315, Control_c, 4, 11, 85
6, 356335, Control_c, 4, 11, 86
6, 356360, Control_c, 4, 11, 87
6, 356380, Control_c, 4, 11, 88
6, 356400, Control_c, 4, 11, 89
6, 356425, Control_c, 4, 11, 90
6, 356445, Control_c, 4, 11, 91
6, 356465, Control_c, 4, 11, 92
6, 356490, Control_c, 4, 11, 93
6, 356510, Control_c, 4, 11, 94
6, 356530, Control_c, 4, 11, 95
6, 356555, Control_c, 4, 11, 96
6, 356575, Control_c, 4, 11, 97
6, 356600, Control_c, 4, 11, 98
6, 356620, Control_c, 4, 11, 99
6, 356640, Control_c, 4, 11, 100
6, 356704, Note_on_c, 4, 64, 0
6, 357113, Note_on_c, 4, 68, 119
6, 357125, Note_on_c, 4, 59, 125
6, 357184, Note_on_c, 4, 59, 0
6, 357195, Note_on_c, 4, 68, 0
6, 357223, Note_on_c, 4, 59, 126
6, 357228, Note_on_c, 4, 68, 120
6, 357722, Note_on_c, 4, 59, 0
6, 357725, Note_on_c, 4, 68, 0
6, 357764, Note_on_c, 4, 59, 126
6, 357764, Note_on_c, 4, 68, 124
6, 358148, Note_on_c, 4, 68, 0
6, 358232, Note_on_c, 4, 59, 0
6, 358373, Note_on_c, 4, 52, 121
6, 358495, Note_on_c, 4, 52, 0
6, 358531, Note_on_c, 4, 52, 122
6, 360563, Note_on_c, 4, 52, 0
6, 361440, End_track
7, 0, Start_track
7, 0, Title_t, "Violoncelli"
7, 0, MIDI_port, 0
7, 100, Control_c, 5, 0, 0
7, 120, Control_c, 5, 32, 0
7, 140, Program_c, 5, 49
7, 160, Control_c, 5, 10, 109
7, 180, Control_c, 5, 7, 100
7, 200, Control_c, 5, 11, 100
7, 220, Control_c, 5, 1, 19
7, 240, Control_c, 5, 91, 60
7, 260, Control_c, 5, 93, 38
7, 280, Control_c, 5, 101, 0
7, 300, Control_c, 5, 100, 0
7, 320, Control_c, 5, 6, 12
7, 340, Pitch_bend_c, 5, 8208
7, 360, Control_c, 5, 99, 1
7, 380, Control_c, 5, 98, 32
7, 400, Control_c, 5, 6, 62
7, 420, Control_c, 5, 98, 33
7, 440, Control_c, 5, 6, 60
7, 460, Control_c, 5, 98, 99
7, 480, Control_c, 5, 6, 57
7, 500, Control_c, 5, 98, 100
7, 520, Control_c, 5, 6, 64
7, 540, Control_c, 5, 98, 102
7, 560, Control_c, 5, 6, 66
7, 580, Control_c, 5, 99, 1
7, 600, Control_c, 5, 98, 8
7, 620, Control_c, 5, 6, 90
7, 640, Control_c, 5, 98, 9
7, 660, Control_c, 5, 6, 50
7, 680, Control_c, 5, 98, 10
7, 705, Control_c, 5, 6, 70
7, 1501, Note_on_c, 5, 49, 120
7, 1552, Note_on_c, 5, 49, 0
7, 1639, Note_on_c, 5, 51, 119
7, 1695, Note_on_c, 5, 51, 0
7, 1808, Note_on_c, 5, 44, 126
7, 1873, Note_on_c, 5, 44, 0
7, 3879, Note_on_c, 5, 49, 125
7, 3915, Note_on_c, 5, 49, 0
7, 4025, Note_on_c, 5, 51, 126
7, 4097, Note_on_c, 5, 51, 0
7, 4179, Note_on_c, 5, 44, 118
7, 4285, Note_on_c, 5, 44, 0
7, 6268, Note_on_c, 5, 49, 123
7, 6311, Note_on_c, 5, 49, 0
7, 6410, Note_on_c, 5, 51, 121
7, 6478, Note_on_c, 5, 51, 0
7, 6574, Note_on_c, 5, 44, 116
7, 7124, Note_on_c, 5, 44, 0
7, 7137, Note_on_c, 5, 56, 115
7, 7241, Note_on_c, 5, 56, 0
7, 7443, Note_on_c, 5, 49, 119
7, 7478, Note_on_c, 5, 49, 0
7, 7580, Note_on_c, 5, 51, 115
7, 7625, Note_on_c, 5, 51, 0
7, 7733, Note_on_c, 5, 44, 119
7, 8302, Note_on_c, 5, 44, 0
7, 8303, Note_on_c, 5, 49, 107
7, 8409, Note_on_c, 5, 49, 0
7, 8580, Note_on_c, 5, 45, 114
7, 8620, Note_on_c, 5, 45, 0
7, 8732, Note_on_c, 5, 47, 112
7, 8784, Note_on_c, 5, 47, 0
7, 8901, Note_on_c, 5, 40, 101
7, 9118, Note_on_c, 5, 40, 0
7, 9120, Program_c, 5, 45
7, 9819, Note_on_c, 5, 52, 68
7, 9875, Note_on_c, 5, 52, 0
7, 10135, Note_on_c, 5, 59, 62
7, 10165, Note_on_c, 5, 59, 0
7, 10462, Note_on_c, 5, 52, 65
7, 10497, Note_on_c, 5, 52, 0
7, 10653, Note_on_c, 5, 59, 50
7, 10678, Note_on_c, 5, 59, 0
7, 10826, Note_on_c, 5, 52, 53
7, 10852, Note_on_c, 5, 52, 0
7, 11049, Note_on_c, 5, 59, 59
7, 11071, Note_on_c, 5, 59, 0
7, 11292, Note_on_c, 5, 52, 64
7, 11336, Note_on_c, 5, 52, 0
7, 15360, Program_c, 5, 49
7, 15840, Control_c, 5, 11, 80
7, 16265, Note_on_c, 5, 52, 65
7, 17532, Note_on_c, 5, 40, 55
7, 17553, Note_on_c, 5, 52, 0
7, 17753, Note_on_c, 5, 40, 0
7, 18240, Program_c, 5, 45
7, 18421, Note_on_c, 5, 47, 66
7, 18445, Note_on_c, 5, 47, 0
7, 18584, Note_on_c, 5, 47, 65
7, 18609, Note_on_c, 5, 47, 0
7, 18744, Note_on_c, 5, 52, 89
7, 18779, Note_on_c, 5, 52, 0
7, 19200, Program_c, 5, 49
7, 19358, Note_on_c, 5, 47, 75
7, 19671, Note_on_c, 5, 52, 79
7, 19683, Note_on_c, 5, 47, 0
7, 19929, Note_on_c, 5, 53, 82
7, 19954, Note_on_c, 5, 52, 0
7, 20253, Note_on_c, 5, 54, 90
7, 20293, Note_on_c, 5, 53, 0
7, 20887, Note_on_c, 5, 47, 70
7, 20889, Note_on_c, 5, 54, 0
7, 21167, Note_on_c, 5, 47, 0
7, 21364, Note_on_c, 5, 49, 70
7, 22446, Note_on_c, 5, 49, 0
7, 22496, Note_on_c, 5, 42, 78
7, 22838, Note_on_c, 5, 49, 60
7, 22858, Note_on_c, 5, 42, 0
7, 23105, Note_on_c, 5, 49, 0
7, 23459, Program_c, 5, 45
7, 23459, Note_on_c, 5, 49, 54
7, 23490, Note_on_c, 5, 49, 0
7, 23632, Note_on_c, 5, 49, 54
7, 23652, Note_on_c, 5, 49, 0
7, 23776, Note_on_c, 5, 54, 61
7, 23804, Note_on_c, 5, 54, 0
7, 23922, Note_on_c, 5, 54, 53
7, 23945, Note_on_c, 5, 54, 0
7, 24097, Note_on_c, 5, 49, 53
7, 24279, Note_on_c, 5, 49, 0
7, 24480, Program_c, 5, 49
7, 24882, Note_on_c, 5, 49, 80
7, 25180, Note_on_c, 5, 42, 82
7, 25200, Note_on_c, 5, 49, 0
7, 25498, Note_on_c, 5, 42, 0
7, 25506, Note_on_c, 5, 47, 82
7, 26381, Note_on_c, 5, 47, 0
7, 26446, Note_on_c, 5, 47, 60
7, 27526, Note_on_c, 5, 47, 0
7, 27643, Note_on_c, 5, 47, 46
7, 28854, Note_on_c, 5, 47, 0
7, 31561, Note_on_c, 5, 47, 38
7, 34202, Note_on_c, 5, 47, 0
7, 34393, Note_on_c, 5, 52, 68
7, 35648, Note_on_c, 5, 52, 0
7, 35650, Note_on_c, 5, 40, 57
7, 35983, Note_on_c, 5, 40, 0
7, 36480, Program_c, 5, 45
7, 36587, Note_on_c, 5, 59, 74
7, 36620, Note_on_c, 5, 59, 0
7, 36748, Note_on_c, 5, 59, 80
7, 36778, Note_on_c, 5, 59, 0
7, 36948, Note_on_c, 5, 52, 74
7, 36984, Note_on_c, 5, 52, 0
7, 37200, Program_c, 5, 49
7, 37259, Note_on_c, 5, 50, 77
7, 37562, Note_on_c, 5, 49, 83
7, 37591, Note_on_c, 5, 50, 0
7, 37882, Note_on_c, 5, 42, 80
7, 37889, Note_on_c, 5, 49, 0
7, 38172, Note_on_c, 5, 49, 74
7, 38185, Note_on_c, 5, 42, 0
7, 38489, Note_on_c, 5, 54, 84
7, 38517, Note_on_c, 5, 49, 0
7, 38773, Note_on_c, 5, 54, 0
7, 38780, Note_on_c, 5, 52, 97
7, 39115, Note_on_c, 5, 57, 86
7, 39120, Note_on_c, 5, 52, 0
7, 39398, Note_on_c, 5, 58, 81
7, 39427, Note_on_c, 5, 57, 0
7, 39693, Note_on_c, 5, 58, 0
7, 39696, Note_on_c, 5, 59, 85
7, 40002, Note_on_c, 5, 58, 88
7, 40011, Note_on_c, 5, 59, 0
7, 40290, Note_on_c, 5, 59, 93
7, 40308, Note_on_c, 5, 58, 0
7, 40603, Note_on_c, 5, 61, 95
7, 40632, Note_on_c, 5, 59, 0
7, 40896, Note_on_c, 5, 61, 0
7, 40915, Note_on_c, 5, 63, 98
7, 41222, Note_on_c, 5, 63, 0
7, 41236, Note_on_c, 5, 51, 89
7, 41957, Note_on_c, 5, 51, 0
7, 41976, Note_on_c, 5, 52, 94
7, 42078, Note_on_c, 5, 52, 0
7, 42172, Note_on_c, 5, 54, 100
7, 42310, Note_on_c, 5, 54, 0
7, 42453, Note_on_c, 5, 47, 94
7, 43514, Note_on_c, 5, 47, 0
7, 43523, Note_on_c, 5, 48, 114
7, 43575, Note_on_c, 5, 48, 0
7, 43687, Note_on_c, 5, 49, 119
7, 43741, Note_on_c, 5, 49, 0
7, 43834, Note_on_c, 5, 44, 115
7, 43904, Note_on_c, 5, 44, 0
7, 43990, Note_on_c, 5, 45, 120
7, 44047, Note_on_c, 5, 45, 0
7, 44148, Note_on_c, 5, 47, 118
7, 44200, Note_on_c, 5, 47, 0
7, 44303, Note_on_c, 5, 40, 124
7, 44382, Note_on_c, 5, 40, 0
7, 44457, Control_c, 5, 11, 100
7, 44457, Note_on_c, 5, 52, 114
7, 44493, Note_on_c, 5, 52, 0
7, 44634, Note_on_c, 5, 49, 118
7, 44926, Note_on_c, 5, 49, 0
7, 44960, Note_on_c, 5, 51, 116
7, 45005, Note_on_c, 5, 51, 0
7, 45126, Note_on_c, 5, 52, 112
7, 45172, Note_on_c, 5, 52, 0
7, 45294, Note_on_c, 5, 54, 118
7, 45333, Note_on_c, 5, 54, 0
7, 45444, Note_on_c, 5, 42, 114
7, 45484, Note_on_c, 5, 42, 0
7, 45618, Note_on_c, 5, 47, 112
7, 45664, Note_on_c, 5, 47, 0
7, 45779, Note_on_c, 5, 47, 116
7, 45822, Note_on_c, 5, 47, 0
7, 45950, Note_on_c, 5, 54, 121
7, 46258, Note_on_c, 5, 54, 0
7, 46285, Note_on_c, 5, 56, 118
7, 46323, Note_on_c, 5, 56, 0
7, 46444, Note_on_c, 5, 57, 120
7, 46485, Note_on_c, 5, 57, 0
7, 46605, Note_on_c, 5, 59, 121
7, 46645, Note_on_c, 5, 59, 0
7, 46767, Note_on_c, 5, 47, 118
7, 46809, Note_on_c, 5, 47, 0
7, 46932, Note_on_c, 5, 52, 118
7, 46963, Note_on_c, 5, 52, 0
7, 47104, Note_on_c, 5, 52, 118
7, 47136, Note_on_c, 5, 52, 0
7, 47286, Note_on_c, 5, 45, 114
7, 47485, Note_on_c, 5, 45, 0
7, 47639, Note_on_c, 5, 52, 121
7, 47671, Note_on_c, 5, 52, 0
7, 47811, Note_on_c, 5, 52, 120
7, 47843, Note_on_c, 5, 52, 0
7, 47989, Note_on_c, 5, 45, 114
7, 48176, Note_on_c, 5, 45, 0
7, 48344, Note_on_c, 5, 52, 112
7, 48374, Note_on_c, 5, 52, 0
7, 48512, Note_on_c, 5, 52, 108
7, 48545, Note_on_c, 5, 52, 0
7, 48685, Note_on_c, 5, 52, 109
7, 48719, Note_on_c, 5, 52, 0
7, 48852, Note_on_c, 5, 52, 104
7, 48888, Note_on_c, 5, 52, 0
7, 49027, Note_on_c, 5, 51, 115
7, 49060, Note_on_c, 5, 51, 0
7, 49197, Note_on_c, 5, 51, 113
7, 49227, Note_on_c, 5, 51, 0
7, 49359, Note_on_c, 5, 51, 123
7, 49391, Note_on_c, 5, 51, 0
7, 49526, Note_on_c, 5, 51, 127
7, 49559, Note_on_c, 5, 51, 0
7, 49690, Note_on_c, 5, 56, 123
7, 49721, Note_on_c, 5, 56, 0
7, 49853, Note_on_c, 5, 56, 126
7, 49885, Note_on_c, 5, 56, 0
7, 50027, Note_on_c, 5, 56, 121
7, 50056, Note_on_c, 5, 56, 0
7, 50190, Note_on_c, 5, 56, 126
7, 50223, Note_on_c, 5, 56, 0
7, 50363, Note_on_c, 5, 56, 125
7, 50400, Control_c, 5, 11, 100
7, 50405, Control_c, 5, 11, 93
7, 50410, Control_c, 5, 11, 89
7, 50415, Control_c, 5, 11, 86
7, 50420, Control_c, 5, 11, 82
7, 50425, Control_c, 5, 11, 79
7, 50430, Control_c, 5, 11, 76
7, 50435, Control_c, 5, 11, 73
7, 50440, Control_c, 5, 11, 70
7, 50445, Control_c, 5, 11, 68
7, 50450, Control_c, 5, 11, 65
7, 50455, Control_c, 5, 11, 63
7, 50460, Control_c, 5, 11, 61
7, 50465, Control_c, 5, 11, 59
7, 50470, Control_c, 5, 11, 57
7, 50475, Control_c, 5, 11, 55
7, 50480, Control_c, 5, 11, 54
7, 50485, Control_c, 5, 11, 52
7, 50490, Control_c, 5, 11, 51
7, 50495, Control_c, 5, 11, 49
7, 50500, Control_c, 5, 11, 48
7, 50505, Control_c, 5, 11, 46
7, 50510, Control_c, 5, 11, 45
7, 50515, Control_c, 5, 11, 44
7, 50520, Control_c, 5, 11, 43
7, 50530, Control_c, 5, 11, 42
7, 50535, Control_c, 5, 11, 41
7, 50540, Control_c, 5, 11, 40
7, 50550, Control_c, 5, 11, 39
7, 50555, Control_c, 5, 11, 38
7, 50565, Control_c, 5, 11, 37
7, 50575, Control_c, 5, 11, 36
7, 50585, Control_c, 5, 11, 35
7, 50600, Control_c, 5, 11, 34
7, 50615, Control_c, 5, 11, 33
7, 50640, Control_c, 5, 11, 32
7, 50665, Control_c, 5, 11, 31
7, 50715, Control_c, 5, 11, 30
7, 50810, Control_c, 5, 11, 30
7, 50890, Control_c, 5, 11, 31
7, 50930, Control_c, 5, 11, 32
7, 50950, Control_c, 5, 11, 33
7, 50970, Control_c, 5, 11, 34
7, 50980, Control_c, 5, 11, 35
7, 50990, Control_c, 5, 11, 36
7, 51000, Control_c, 5, 11, 37
7, 51010, Control_c, 5, 11, 38
7, 51015, Control_c, 5, 11, 39
7, 51020, Control_c, 5, 11, 40
7, 51025, Control_c, 5, 11, 41
7, 51030, Control_c, 5, 11, 42
7, 51035, Control_c, 5, 11, 43
7, 51040, Control_c, 5, 11, 44
7, 51045, Control_c, 5, 11, 45
7, 51050, Control_c, 5, 11, 47
7, 51055, Control_c, 5, 11, 48
7, 51060, Control_c, 5, 11, 50
7, 51065, Control_c, 5, 11, 52
7, 51070, Control_c, 5, 11, 54
7, 51074, Note_on_c, 5, 49, 74
7, 51075, Control_c, 5, 11, 56
7, 51080, Control_c, 5, 11, 59
7, 51085, Control_c, 5, 11, 61
7, 51090, Control_c, 5, 11, 65
7, 51095, Control_c, 5, 11, 68
7, 51100, Note_on_c, 5, 49, 0
7, 51100, Control_c, 5, 11, 71
7, 51105, Control_c, 5, 11, 75
7, 51110, Control_c, 5, 11, 79
7, 51115, Control_c, 5, 11, 83
7, 51120, Control_c, 5, 11, 88
7, 51125, Control_c, 5, 11, 93
7, 51127, Note_on_c, 5, 56, 0
7, 51130, Control_c, 5, 11, 100
7, 51150, Note_on_c, 5, 56, 86
7, 51151, Note_on_c, 5, 49, 94
7, 51184, Note_on_c, 5, 49, 0
7, 51190, Note_on_c, 5, 56, 0
7, 51219, Note_on_c, 5, 49, 89
7, 51224, Note_on_c, 5, 56, 87
7, 51255, Note_on_c, 5, 49, 0
7, 51264, Note_on_c, 5, 56, 0
7, 51304, Note_on_c, 5, 49, 103
7, 51308, Note_on_c, 5, 56, 99
7, 51338, Note_on_c, 5, 49, 0
7, 51345, Note_on_c, 5, 56, 0
7, 51392, Note_on_c, 5, 56, 121
7, 51425, Note_on_c, 5, 56, 0
7, 51570, Note_on_c, 5, 56, 124
7, 51602, Note_on_c, 5, 56, 0
7, 51760, Control_c, 5, 11, 100
7, 51760, Note_on_c, 5, 56, 125
7, 51765, Control_c, 5, 11, 95
7, 51770, Control_c, 5, 11, 92
7, 51775, Control_c, 5, 11, 89
7, 51780, Control_c, 5, 11, 86
7, 51785, Control_c, 5, 11, 83
7, 51790, Control_c, 5, 11, 81
7, 51795, Control_c, 5, 11, 78
7, 51800, Control_c, 5, 11, 76
7, 51805, Control_c, 5, 11, 74
7, 51810, Control_c, 5, 11, 72
7, 51815, Control_c, 5, 11, 69
7, 51820, Control_c, 5, 11, 68
7, 51825, Control_c, 5, 11, 66
7, 51830, Control_c, 5, 11, 64
7, 51835, Control_c, 5, 11, 62
7, 51840, Control_c, 5, 11, 61
7, 51845, Control_c, 5, 11, 59
7, 51850, Control_c, 5, 11, 58
7, 51855, Control_c, 5, 11, 56
7, 51860, Control_c, 5, 11, 55
7, 51865, Control_c, 5, 11, 54
7, 51870, Control_c, 5, 11, 52
7, 51880, Control_c, 5, 11, 51
7, 51885, Control_c, 5, 11, 49
7, 51890, Control_c, 5, 11, 48
7, 51900, Control_c, 5, 11, 46
7, 51910, Control_c, 5, 11, 45
7, 51915, Control_c, 5, 11, 44
7, 51920, Control_c, 5, 11, 43
7, 51930, Control_c, 5, 11, 42
7, 51940, Control_c, 5, 11, 41
7, 51945, Control_c, 5, 11, 40
7, 51955, Control_c, 5, 11, 39
7, 51970, Control_c, 5, 11, 38
7, 51975, Control_c, 5, 11, 37
7, 51990, Control_c, 5, 11, 36
7, 52010, Control_c, 5, 11, 35
7, 52025, Control_c, 5, 11, 34
7, 52045, Control_c, 5, 11, 33
7, 52080, Control_c, 5, 11, 32
7, 52110, Control_c, 5, 11, 31
7, 52180, Control_c, 5, 11, 30
7, 52275, Control_c, 5, 11, 31
7, 52325, Control_c, 5, 11, 32
7, 52329, Note_on_c, 5, 56, 0
7, 52345, Control_c, 5, 11, 33
7, 52370, Control_c, 5, 11, 34
7, 52385, Control_c, 5, 11, 35
7, 52395, Control_c, 5, 11, 36
7, 52405, Control_c, 5, 11, 37
7, 52415, Control_c, 5, 11, 38
7, 52420, Control_c, 5, 11, 39
7, 52430, Control_c, 5, 11, 40
7, 52435, Control_c, 5, 11, 41
7, 52440, Control_c, 5, 11, 42
7, 52450, Control_c, 5, 11, 43
7, 52455, Control_c, 5, 11, 44
7, 52460, Control_c, 5, 11, 46
7, 52465, Control_c, 5, 11, 47
7, 52470, Control_c, 5, 11, 48
7, 52475, Control_c, 5, 11, 50
7, 52480, Control_c, 5, 11, 51
7, 52485, Control_c, 5, 11, 53
7, 52490, Control_c, 5, 11, 55
7, 52491, Note_on_c, 5, 56, 103
7, 52495, Control_c, 5, 11, 56
7, 52498, Note_on_c, 5, 49, 91
7, 52500, Control_c, 5, 11, 59
7, 52505, Control_c, 5, 11, 61
7, 52510, Control_c, 5, 11, 63
7, 52515, Control_c, 5, 11, 66
7, 52520, Control_c, 5, 11, 68
7, 52524, Note_on_c, 5, 49, 0
7, 52525, Control_c, 5, 11, 72
7, 52529, Note_on_c, 5, 56, 0
7, 52530, Control_c, 5, 11, 75
7, 52535, Control_c, 5, 11, 78
7, 52540, Control_c, 5, 11, 82
7, 52545, Control_c, 5, 11, 86
7, 52550, Control_c, 5, 11, 89
7, 52555, Control_c, 5, 11, 95
7, 52560, Control_c, 5, 11, 100
7, 52580, Note_on_c, 5, 56, 107
7, 52583, Note_on_c, 5, 49, 104
7, 52613, Note_on_c, 5, 49, 0
7, 52615, Note_on_c, 5, 56, 0
7, 52649, Note_on_c, 5, 56, 104
7, 52650, Note_on_c, 5, 49, 114
7, 52688, Note_on_c, 5, 56, 0
7, 52689, Note_on_c, 5, 49, 0
7, 52719, Note_on_c, 5, 49, 114
7, 52721, Note_on_c, 5, 56, 116
7, 52757, Note_on_c, 5, 56, 0
7, 52773, Note_on_c, 5, 49, 0
7, 52817, Note_on_c, 5, 47, 120
7, 52867, Note_on_c, 5, 47, 0
7, 52980, Note_on_c, 5, 47, 121
7, 53026, Note_on_c, 5, 47, 0
7, 53139, Control_c, 5, 11, 100
7, 53139, Note_on_c, 5, 47, 126
7, 53144, Control_c, 5, 11, 93
7, 53149, Control_c, 5, 11, 89
7, 53154, Control_c, 5, 11, 84
7, 53159, Control_c, 5, 11, 81
7, 53164, Control_c, 5, 11, 78
7, 53169, Control_c, 5, 11, 74
7, 53174, Control_c, 5, 11, 71
7, 53179, Control_c, 5, 11, 68
7, 53184, Control_c, 5, 11, 65
7, 53189, Control_c, 5, 11, 63
7, 53194, Control_c, 5, 11, 60
7, 53199, Control_c, 5, 11, 58
7, 53204, Control_c, 5, 11, 56
7, 53209, Control_c, 5, 11, 54
7, 53214, Control_c, 5, 11, 52
7, 53219, Control_c, 5, 11, 51
7, 53224, Control_c, 5, 11, 49
7, 53229, Control_c, 5, 11, 48
7, 53234, Control_c, 5, 11, 47
7, 53239, Control_c, 5, 11, 45
7, 53244, Control_c, 5, 11, 44
7, 53249, Control_c, 5, 11, 43
7, 53254, Control_c, 5, 11, 42
7, 53264, Control_c, 5, 11, 40
7, 53274, Control_c, 5, 11, 39
7, 53279, Control_c, 5, 11, 38
7, 53289, Control_c, 5, 11, 37
7, 53299, Control_c, 5, 11, 36
7, 53309, Control_c, 5, 11, 35
7, 53319, Control_c, 5, 11, 34
7, 53334, Control_c, 5, 11, 33
7, 53359, Control_c, 5, 11, 32
7, 53379, Control_c, 5, 11, 31
7, 53429, Control_c, 5, 11, 30
7, 53520, Control_c, 5, 11, 30
7, 53580, Control_c, 5, 11, 31
7, 53610, Control_c, 5, 11, 32
7, 53625, Control_c, 5, 11, 33
7, 53640, Control_c, 5, 11, 34
7, 53650, Control_c, 5, 11, 35
7, 53655, Control_c, 5, 11, 36
7, 53665, Control_c, 5, 11, 37
7, 53670, Control_c, 5, 11, 38
7, 53675, Control_c, 5, 11, 39
7, 53680, Control_c, 5, 11, 40
7, 53685, Control_c, 5, 11, 42
7, 53690, Control_c, 5, 11, 43
7, 53695, Control_c, 5, 11, 45
7, 53700, Control_c, 5, 11, 47
7, 53705, Control_c, 5, 11, 49
7, 53710, Control_c, 5, 11, 52
7, 53714, Note_on_c, 5, 47, 0
7, 53715, Control_c, 5, 11, 54
7, 53720, Control_c, 5, 11, 58
7, 53725, Control_c, 5, 11, 61
7, 53730, Control_c, 5, 11, 65
7, 53735, Control_c, 5, 11, 69
7, 53740, Control_c, 5, 11, 74
7, 53745, Control_c, 5, 11, 80
7, 53750, Control_c, 5, 11, 86
7, 53755, Control_c, 5, 11, 92
7, 53760, Control_c, 5, 11, 100
7, 53782, Note_on_c, 5, 52, 84
7, 53824, Note_on_c, 5, 52, 0
7, 53947, Note_on_c, 5, 47, 87
7, 53978, Note_on_c, 5, 47, 0
7, 54093, Note_on_c, 5, 54, 103
7, 54125, Note_on_c, 5, 54, 0
7, 54245, Note_on_c, 5, 47, 100
7, 54280, Note_on_c, 5, 47, 0
7, 54395, Note_on_c, 5, 52, 120
7, 54430, Note_on_c, 5, 52, 0
7, 54543, Note_on_c, 5, 47, 120
7, 54582, Note_on_c, 5, 47, 0
7, 54700, Note_on_c, 5, 54, 127
7, 54730, Note_on_c, 5, 54, 0
7, 54853, Note_on_c, 5, 47, 121
7, 54890, Note_on_c, 5, 47, 0
7, 55010, Note_on_c, 5, 52, 125
7, 55043, Note_on_c, 5, 52, 0
7, 55156, Note_on_c, 5, 47, 120
7, 55198, Note_on_c, 5, 47, 0
7, 55326, Note_on_c, 5, 47, 96
7, 55370, Note_on_c, 5, 47, 0
7, 55481, Note_on_c, 5, 47, 102
7, 55519, Note_on_c, 5, 47, 0
7, 55624, Note_on_c, 5, 47, 118
7, 55662, Note_on_c, 5, 47, 0
7, 55781, Note_on_c, 5, 47, 116
7, 55816, Note_on_c, 5, 47, 0
7, 55939, Note_on_c, 5, 47, 122
7, 55975, Note_on_c, 5, 47, 0
7, 56085, Note_on_c, 5, 47, 122
7, 56124, Note_on_c, 5, 47, 0
7, 56249, Note_on_c, 5, 47, 127
7, 56287, Note_on_c, 5, 47, 0
7, 56417, Note_on_c, 5, 47, 127
7, 56567, Note_on_c, 5, 47, 0
7, 56575, Note_on_c, 5, 59, 122
7, 56609, Note_on_c, 5, 59, 0
7, 56745, Note_on_c, 5, 47, 126
7, 57028, Note_on_c, 5, 47, 0
7, 57069, Note_on_c, 5, 47, 121
7, 57105, Note_on_c, 5, 47, 0
7, 57215, Note_on_c, 5, 47, 121
7, 57254, Note_on_c, 5, 47, 0
7, 57400, Control_c, 5, 11, 100
7, 57400, Note_on_c, 5, 47, 125
7, 57405, Control_c, 5, 11, 96
7, 57410, Control_c, 5, 11, 93
7, 57415, Control_c, 5, 11, 91
7, 57420, Control_c, 5, 11, 88
7, 57425, Control_c, 5, 11, 85
7, 57430, Control_c, 5, 11, 83
7, 57435, Control_c, 5, 11, 81
7, 57440, Control_c, 5, 11, 79
7, 57445, Control_c, 5, 11, 77
7, 57450, Control_c, 5, 11, 75
7, 57455, Control_c, 5, 11, 74
7, 57460, Control_c, 5, 11, 73
7, 57465, Control_c, 5, 11, 71
7, 57470, Control_c, 5, 11, 70
7, 57475, Control_c, 5, 11, 69
7, 57480, Control_c, 5, 11, 67
7, 57485, Control_c, 5, 11, 66
7, 57490, Control_c, 5, 11, 65
7, 57495, Control_c, 5, 11, 64
7, 57500, Control_c, 5, 11, 63
7, 57505, Control_c, 5, 11, 62
7, 57515, Control_c, 5, 11, 61
7, 57520, Control_c, 5, 11, 60
7, 57530, Control_c, 5, 11, 59
7, 57535, Control_c, 5, 11, 58
7, 57545, Control_c, 5, 11, 57
7, 57555, Control_c, 5, 11, 56
7, 57570, Control_c, 5, 11, 55
7, 57585, Control_c, 5, 11, 54
7, 57600, Control_c, 5, 11, 53
7, 57620, Control_c, 5, 11, 52
7, 57650, Control_c, 5, 11, 51
7, 57700, Control_c, 5, 11, 50
7, 57895, Note_on_c, 5, 47, 0
7, 57897, Note_on_c, 5, 47, 96
7, 60671, Note_on_c, 5, 40, 104
7, 60675, Note_on_c, 5, 47, 0
7, 60894, Note_on_c, 5, 40, 0
7, 61440, Control_c, 5, 11, 100
7, 62640, Program_c, 5, 45
7, 62854, Note_on_c, 5, 47, 78
7, 62892, Note_on_c, 5, 47, 0
7, 63019, Note_on_c, 5, 47, 67
7, 63055, Note_on_c, 5, 47, 0
7, 63198, Note_on_c, 5, 52, 72
7, 63226, Note_on_c, 5, 52, 0
7, 63840, Program_c, 5, 49
7, 63872, Note_on_c, 5, 52, 73
7, 65043, Note_on_c, 5, 47, 94
7, 65091, Note_on_c, 5, 52, 0
7, 65350, Note_on_c, 5, 52, 116
7, 65380, Note_on_c, 5, 47, 0
7, 65400, Note_on_c, 5, 52, 0
7, 65509, Note_on_c, 5, 52, 118
7, 65545, Note_on_c, 5, 52, 0
7, 65676, Note_on_c, 5, 61, 127
7, 65731, Note_on_c, 5, 61, 0
7, 65847, Note_on_c, 5, 59, 127
7, 65930, Note_on_c, 5, 59, 0
7, 66285, Note_on_c, 5, 57, 127
7, 66335, Note_on_c, 5, 57, 0
7, 66455, Note_on_c, 5, 56, 126
7, 66512, Note_on_c, 5, 56, 0
7, 66906, Note_on_c, 5, 61, 127
7, 66940, Note_on_c, 5, 61, 0
7, 67069, Note_on_c, 5, 59, 127
7, 67110, Note_on_c, 5, 59, 0
7, 67509, Note_on_c, 5, 57, 127
7, 67562, Note_on_c, 5, 57, 0
7, 67669, Note_on_c, 5, 56, 126
7, 67734, Note_on_c, 5, 56, 0
7, 69299, Note_on_c, 5, 47, 86
7, 69353, Note_on_c, 5, 47, 0
7, 69457, Note_on_c, 5, 52, 94
7, 69580, Note_on_c, 5, 52, 0
7, 69768, Note_on_c, 5, 54, 105
7, 69910, Note_on_c, 5, 54, 0
7, 70093, Note_on_c, 5, 47, 97
7, 70399, Note_on_c, 5, 47, 0
7, 70609, Note_on_c, 5, 59, 126
7, 70663, Note_on_c, 5, 59, 0
7, 70762, Note_on_c, 5, 56, 126
7, 70810, Note_on_c, 5, 56, 0
7, 70918, Note_on_c, 5, 61, 121
7, 70963, Note_on_c, 5, 61, 0
7, 71084, Note_on_c, 5, 54, 119
7, 71145, Note_on_c, 5, 54, 0
7, 71147, Note_on_c, 5, 56, 101
7, 71207, Note_on_c, 5, 56, 0
7, 71223, Note_on_c, 5, 54, 96
7, 71295, Note_on_c, 5, 53, 106
7, 71299, Note_on_c, 5, 54, 0
7, 71373, Note_on_c, 5, 53, 0
7, 71388, Note_on_c, 5, 54, 123
7, 71431, Note_on_c, 5, 54, 0
7, 71540, Note_on_c, 5, 59, 113
7, 71601, Note_on_c, 5, 59, 0
7, 71697, Note_on_c, 5, 52, 117
7, 71843, Note_on_c, 5, 54, 107
7, 71860, Note_on_c, 5, 52, 0
7, 71903, Note_on_c, 5, 54, 0
7, 71905, Note_on_c, 5, 56, 113
7, 71962, Note_on_c, 5, 56, 0
7, 71984, Note_on_c, 5, 57, 114
7, 72030, Note_on_c, 5, 57, 0
7, 72147, Note_on_c, 5, 57, 113
7, 72193, Note_on_c, 5, 57, 0
7, 72297, Note_on_c, 5, 59, 120
7, 72334, Note_on_c, 5, 59, 0
7, 72458, Note_on_c, 5, 47, 118
7, 72508, Note_on_c, 5, 47, 0
7, 72623, Note_on_c, 5, 52, 121
7, 72663, Note_on_c, 5, 52, 0
7, 72771, Note_on_c, 5, 47, 126
7, 72822, Note_on_c, 5, 47, 0
7, 73095, Note_on_c, 5, 47, 126
7, 73139, Note_on_c, 5, 47, 0
7, 73254, Note_on_c, 5, 49, 115
7, 73408, Note_on_c, 5, 61, 119
7, 73411, Note_on_c, 5, 49, 0
7, 73470, Note_on_c, 5, 61, 0
7, 73573, Note_on_c, 5, 54, 119
7, 73644, Note_on_c, 5, 56, 101
7, 73647, Note_on_c, 5, 54, 0
7, 73702, Note_on_c, 5, 54, 92
7, 73715, Note_on_c, 5, 56, 0
7, 73774, Note_on_c, 5, 53, 99
7, 73783, Note_on_c, 5, 54, 0
7, 73857, Note_on_c, 5, 53, 0
7, 73860, Note_on_c, 5, 54, 114
7, 73902, Note_on_c, 5, 54, 0
7, 74013, Note_on_c, 5, 59, 108
7, 74066, Note_on_c, 5, 59, 0
7, 74163, Note_on_c, 5, 52, 114
7, 74311, Note_on_c, 5, 52, 0
7, 74313, Note_on_c, 5, 54, 99
7, 74357, Note_on_c, 5, 56, 96
7, 74389, Note_on_c, 5, 54, 0
7, 74442, Note_on_c, 5, 56, 0
7, 74449, Note_on_c, 5, 57, 111
7, 74502, Note_on_c, 5, 57, 0
7, 74612, Note_on_c, 5, 51, 115
7, 74648, Note_on_c, 5, 51, 0
7, 74763, Note_on_c, 5, 56, 118
7, 74816, Note_on_c, 5, 56, 0
7, 74917, Note_on_c, 5, 49, 98
7, 74972, Note_on_c, 5, 49, 0
7, 75063, Note_on_c, 5, 54, 113
7, 75109, Note_on_c, 5, 54, 0
7, 75231, Note_on_c, 5, 47, 126
7, 75431, Note_on_c, 5, 47, 0
7, 75549, Note_on_c, 5, 47, 106
7, 75583, Note_on_c, 5, 47, 0
7, 75604, Note_on_c, 5, 47, 108
7, 75645, Note_on_c, 5, 47, 0
7, 75685, Note_on_c, 5, 52, 114
7, 75695, Note_on_c, 5, 50, 65
7, 75714, Note_on_c, 5, 50, 0
7, 75728, Note_on_c, 5, 52, 0
7, 75852, Note_on_c, 5, 47, 127
7, 76080, Note_on_c, 5, 47, 0
7, 76154, Note_on_c, 5, 47, 106
7, 76186, Note_on_c, 5, 47, 0
7, 76216, Note_on_c, 5, 47, 108
7, 76277, Note_on_c, 5, 47, 0
7, 76297, Note_on_c, 5, 52, 112
7, 76347, Note_on_c, 5, 52, 0
7, 76473, Note_on_c, 5, 47, 126
7, 76706, Note_on_c, 5, 47, 0
7, 76788, Note_on_c, 5, 47, 111
7, 76822, Note_on_c, 5, 47, 0
7, 76854, Note_on_c, 5, 47, 112
7, 76903, Note_on_c, 5, 47, 0
7, 76923, Note_on_c, 5, 52, 112
7, 76972, Note_on_c, 5, 52, 0
7, 77119, Note_on_c, 5, 52, 127
7, 77382, Note_on_c, 5, 52, 0
7, 77453, Note_on_c, 5, 52, 121
7, 77487, Note_on_c, 5, 52, 0
7, 77606, Note_on_c, 5, 52, 125
7, 77641, Note_on_c, 5, 52, 0
7, 77768, Note_on_c, 5, 52, 127
7, 78042, Note_on_c, 5, 52, 0
7, 78095, Note_on_c, 5, 51, 106
7, 78134, Note_on_c, 5, 51, 0
7, 78252, Note_on_c, 5, 49, 76
7, 78327, Note_on_c, 5, 49, 0
7, 79889, Note_on_c, 5, 61, 113
7, 79922, Note_on_c, 5, 63, 80
7, 79923, Note_on_c, 5, 61, 0
7, 79970, Note_on_c, 5, 61, 97
7, 79971, Note_on_c, 5, 63, 0
7, 80012, Note_on_c, 5, 61, 0
7, 80037, Note_on_c, 5, 59, 117
7, 80083, Note_on_c, 5, 59, 0
7, 80207, Note_on_c, 5, 57, 107
7, 80243, Note_on_c, 5, 57, 0
7, 80385, Note_on_c, 5, 56, 104
7, 80420, Note_on_c, 5, 56, 0
7, 80545, Note_on_c, 5, 54, 116
7, 80570, Note_on_c, 5, 56, 83
7, 80577, Note_on_c, 5, 54, 0
7, 80602, Note_on_c, 5, 54, 88
7, 80611, Note_on_c, 5, 56, 0
7, 80645, Note_on_c, 5, 54, 0
7, 80652, Note_on_c, 5, 56, 55
7, 80663, Note_on_c, 5, 54, 56
7, 80674, Note_on_c, 5, 56, 0
7, 80697, Note_on_c, 5, 56, 104
7, 80711, Note_on_c, 5, 54, 0
7, 80765, Note_on_c, 5, 56, 0
7, 80886, Note_on_c, 5, 49, 121
7, 80924, Note_on_c, 5, 49, 0
7, 82940, Note_on_c, 5, 42, 74
7, 83105, Note_on_c, 5, 43, 77
7, 83140, Note_on_c, 5, 42, 0
7, 83282, Note_on_c, 5, 44, 78
7, 83289, Note_on_c, 5, 43, 0
7, 83489, Note_on_c, 5, 44, 0
7, 84244, Note_on_c, 5, 44, 70
7, 84584, Note_on_c, 5, 49, 62
7, 84610, Note_on_c, 5, 44, 0
7, 84924, Note_on_c, 5, 52, 71
7, 84966, Note_on_c, 5, 49, 0
7, 85231, Note_on_c, 5, 56, 65
7, 85277, Note_on_c, 5, 52, 0
7, 85540, Note_on_c, 5, 49, 52
7, 85565, Note_on_c, 5, 56, 0
7, 85873, Note_on_c, 5, 49, 0
7, 85876, Note_on_c, 5, 44, 41
7, 86239, Note_on_c, 5, 44, 0
7, 86866, Note_on_c, 5, 44, 61
7, 87183, Note_on_c, 5, 49, 60
7, 87222, Note_on_c, 5, 44, 0
7, 87511, Note_on_c, 5, 52, 64
7, 87577, Note_on_c, 5, 49, 0
7, 87803, Note_on_c, 5, 56, 53
7, 87850, Note_on_c, 5, 52, 0
7, 88148, Note_on_c, 5, 55, 51
7, 88175, Note_on_c, 5, 56, 0
7, 88466, Note_on_c, 5, 54, 40
7, 88485, Note_on_c, 5, 55, 0
7, 88828, Note_on_c, 5, 54, 0
7, 89451, Note_on_c, 5, 42, 68
7, 89785, Note_on_c, 5, 47, 68
7, 89807, Note_on_c, 5, 42, 0
7, 90118, Note_on_c, 5, 51, 79
7, 90263, Note_on_c, 5, 47, 0
7, 90413, Note_on_c, 5, 55, 71
7, 90457, Note_on_c, 5, 51, 0
7, 90743, Note_on_c, 5, 54, 67
7, 90797, Note_on_c, 5, 55, 0
7, 90929, Note_on_c, 5, 54, 0
7, 91041, Note_on_c, 5, 42, 65
7, 91291, Note_on_c, 5, 42, 0
7, 91992, Note_on_c, 5, 42, 59
7, 92305, Note_on_c, 5, 47, 61
7, 92321, Note_on_c, 5, 42, 0
7, 92648, Note_on_c, 5, 51, 69
7, 92690, Note_on_c, 5, 47, 0
7, 92954, Note_on_c, 5, 54, 67
7, 92997, Note_on_c, 5, 51, 0
7, 93270, Note_on_c, 5, 54, 0
7, 93273, Note_on_c, 5, 46, 62
7, 93561, Note_on_c, 5, 46, 0
7, 93574, Note_on_c, 5, 44, 64
7, 94310, Note_on_c, 5, 46, 74
7, 94321, Note_on_c, 5, 44, 0
7, 94903, Note_on_c, 5, 51, 76
7, 94953, Note_on_c, 5, 46, 0
7, 95497, Note_on_c, 5, 44, 57
7, 95506, Note_on_c, 5, 51, 0
7, 96089, Note_on_c, 5, 44, 0
7, 96104, Note_on_c, 5, 45, 46
7, 98625, Note_on_c, 5, 45, 0
7, 99617, Note_on_c, 5, 45, 99
7, 99911, Note_on_c, 5, 47, 99
7, 99953, Note_on_c, 5, 45, 0
7, 100984, Note_on_c, 5, 47, 0
7, 101081, Control_c, 5, 11, 60
7, 101081, Note_on_c, 5, 52, 81
7, 101146, Control_c, 5, 11, 61
7, 101211, Control_c, 5, 11, 62
7, 101276, Control_c, 5, 11, 63
7, 101341, Control_c, 5, 11, 64
7, 101406, Control_c, 5, 11, 65
7, 101471, Control_c, 5, 11, 66
7, 101536, Control_c, 5, 11, 67
7, 101601, Control_c, 5, 11, 68
7, 101666, Control_c, 5, 11, 69
7, 101731, Control_c, 5, 11, 70
7, 101796, Control_c, 5, 11, 71
7, 101861, Control_c, 5, 11, 72
7, 101926, Control_c, 5, 11, 73
7, 101991, Control_c, 5, 11, 74
7, 102056, Control_c, 5, 11, 75
7, 102121, Control_c, 5, 11, 76
7, 102186, Control_c, 5, 11, 77
7, 102251, Control_c, 5, 11, 78
7, 102316, Control_c, 5, 11, 79
7, 102381, Control_c, 5, 11, 80
7, 102446, Control_c, 5, 11, 81
7, 102511, Control_c, 5, 11, 82
7, 102576, Control_c, 5, 11, 83
7, 102641, Control_c, 5, 11, 84
7, 102706, Control_c, 5, 11, 85
7, 102771, Control_c, 5, 11, 86
7, 102836, Control_c, 5, 11, 87
7, 102901, Control_c, 5, 11, 88
7, 102966, Control_c, 5, 11, 89
7, 103031, Control_c, 5, 11, 90
7, 103096, Control_c, 5, 11, 91
7, 103161, Control_c, 5, 11, 92
7, 103226, Control_c, 5, 11, 93
7, 103291, Control_c, 5, 11, 94
7, 103356, Control_c, 5, 11, 95
7, 103421, Control_c, 5, 11, 96
7, 103486, Control_c, 5, 11, 97
7, 103551, Control_c, 5, 11, 98
7, 103616, Control_c, 5, 11, 99
7, 103680, Control_c, 5, 11, 100
7, 103823, Note_on_c, 5, 52, 0
7, 105878, Note_on_c, 5, 52, 41
7, 108514, Note_on_c, 5, 45, 38
7, 108612, Note_on_c, 5, 52, 0
7, 108870, Note_on_c, 5, 45, 0
7, 108891, Control_c, 5, 11, 80
7, 108891, Program_c, 5, 45
7, 108891, Note_on_c, 5, 64, 64
7, 108916, Note_on_c, 5, 64, 0
7, 109087, Note_on_c, 5, 57, 56
7, 109119, Note_on_c, 5, 57, 0
7, 109263, Note_on_c, 5, 61, 70
7, 109296, Note_on_c, 5, 61, 0
7, 109445, Note_on_c, 5, 52, 55
7, 109467, Note_on_c, 5, 52, 0
7, 109607, Note_on_c, 5, 57, 53
7, 109649, Note_on_c, 5, 57, 0
7, 109776, Note_on_c, 5, 52, 61
7, 109804, Note_on_c, 5, 52, 0
7, 109952, Note_on_c, 5, 45, 50
7, 109995, Note_on_c, 5, 45, 0
7, 110296, Note_on_c, 5, 64, 44
7, 110325, Note_on_c, 5, 64, 0
7, 110484, Note_on_c, 5, 57, 49
7, 110508, Note_on_c, 5, 57, 0
7, 110664, Note_on_c, 5, 61, 57
7, 110694, Note_on_c, 5, 61, 0
7, 110837, Note_on_c, 5, 52, 56
7, 110866, Note_on_c, 5, 52, 0
7, 111017, Note_on_c, 5, 57, 38
7, 111058, Note_on_c, 5, 57, 0
7, 111184, Note_on_c, 5, 52, 45
7, 111211, Note_on_c, 5, 52, 0
7, 111395, Note_on_c, 5, 45, 35
7, 111421, Note_on_c, 5, 45, 0
7, 111756, Note_on_c, 5, 64, 53
7, 111795, Note_on_c, 5, 64, 0
7, 111942, Note_on_c, 5, 57, 53
7, 111975, Note_on_c, 5, 57, 0
7, 112119, Note_on_c, 5, 61, 66
7, 112154, Note_on_c, 5, 61, 0
7, 112296, Note_on_c, 5, 52, 51
7, 112342, Note_on_c, 5, 52, 0
7, 112471, Note_on_c, 5, 57, 44
7, 112525, Note_on_c, 5, 57, 0
7, 112644, Note_on_c, 5, 52, 53
7, 112676, Note_on_c, 5, 52, 0
7, 112844, Note_on_c, 5, 45, 46
7, 112872, Note_on_c, 5, 45, 0
7, 113216, Note_on_c, 5, 57, 56
7, 113269, Note_on_c, 5, 57, 0
7, 113399, Note_on_c, 5, 50, 50
7, 113434, Note_on_c, 5, 50, 0
7, 113627, Note_on_c, 5, 45, 45
7, 113657, Note_on_c, 5, 45, 0
7, 114020, Note_on_c, 5, 57, 61
7, 114068, Note_on_c, 5, 57, 0
7, 114220, Note_on_c, 5, 56, 62
7, 114286, Note_on_c, 5, 56, 0
7, 114458, Note_on_c, 5, 54, 56
7, 114501, Note_on_c, 5, 54, 0
7, 115710, Note_on_c, 5, 54, 80
7, 115752, Note_on_c, 5, 54, 0
7, 115894, Note_on_c, 5, 42, 75
7, 115944, Note_on_c, 5, 42, 0
7, 116084, Note_on_c, 5, 47, 68
7, 116141, Note_on_c, 5, 47, 0
7, 116435, Note_on_c, 5, 66, 75
7, 116479, Note_on_c, 5, 66, 0
7, 116625, Note_on_c, 5, 59, 73
7, 116670, Note_on_c, 5, 59, 0
7, 116808, Note_on_c, 5, 62, 68
7, 116842, Note_on_c, 5, 62, 0
7, 116987, Note_on_c, 5, 54, 58
7, 117023, Note_on_c, 5, 54, 0
7, 117156, Note_on_c, 5, 59, 64
7, 117204, Note_on_c, 5, 59, 0
7, 117348, Note_on_c, 5, 54, 61
7, 117390, Note_on_c, 5, 54, 0
7, 117554, Note_on_c, 5, 47, 68
7, 117592, Note_on_c, 5, 47, 0
7, 117931, Note_on_c, 5, 66, 83
7, 117972, Note_on_c, 5, 66, 0
7, 118124, Note_on_c, 5, 59, 72
7, 118168, Note_on_c, 5, 59, 0
7, 118297, Note_on_c, 5, 62, 71
7, 118333, Note_on_c, 5, 62, 0
7, 118482, Note_on_c, 5, 54, 54
7, 118526, Note_on_c, 5, 54, 0
7, 118663, Note_on_c, 5, 59, 68
7, 118706, Note_on_c, 5, 59, 0
7, 118844, Note_on_c, 5, 54, 63
7, 118901, Note_on_c, 5, 54, 0
7, 119049, Note_on_c, 5, 47, 45
7, 119124, Note_on_c, 5, 47, 0
7, 119419, Note_on_c, 5, 59, 71
7, 119472, Note_on_c, 5, 59, 0
7, 119595, Note_on_c, 5, 52, 78
7, 119629, Note_on_c, 5, 52, 0
7, 119792, Note_on_c, 5, 47, 68
7, 119829, Note_on_c, 5, 47, 0
7, 120191, Note_on_c, 5, 59, 61
7, 120241, Note_on_c, 5, 59, 0
7, 120370, Note_on_c, 5, 47, 70
7, 120406, Note_on_c, 5, 47, 0
7, 120580, Note_on_c, 5, 52, 55
7, 120642, Note_on_c, 5, 52, 0
7, 121930, Note_on_c, 5, 57, 71
7, 121975, Note_on_c, 5, 57, 0
7, 122124, Note_on_c, 5, 55, 81
7, 122164, Note_on_c, 5, 55, 0
7, 122315, Note_on_c, 5, 53, 59
7, 122409, Note_on_c, 5, 53, 0
7, 122721, Note_on_c, 5, 60, 88
7, 122767, Note_on_c, 5, 60, 0
7, 122911, Note_on_c, 5, 53, 87
7, 122941, Note_on_c, 5, 53, 0
7, 123088, Note_on_c, 5, 57, 67
7, 123130, Note_on_c, 5, 57, 0
7, 123272, Note_on_c, 5, 48, 72
7, 123312, Note_on_c, 5, 48, 0
7, 123450, Note_on_c, 5, 53, 64
7, 123494, Note_on_c, 5, 53, 0
7, 123618, Note_on_c, 5, 48, 66
7, 123671, Note_on_c, 5, 48, 0
7, 123811, Note_on_c, 5, 41, 77
7, 123850, Note_on_c, 5, 41, 0
7, 124202, Note_on_c, 5, 60, 76
7, 124244, Note_on_c, 5, 60, 0
7, 124388, Note_on_c, 5, 53, 79
7, 124418, Note_on_c, 5, 53, 0
7, 124558, Note_on_c, 5, 57, 68
7, 124607, Note_on_c, 5, 57, 0
7, 124752, Note_on_c, 5, 48, 69
7, 124794, Note_on_c, 5, 48, 0
7, 124928, Note_on_c, 5, 53, 83
7, 124984, Note_on_c, 5, 53, 0
7, 125112, Note_on_c, 5, 48, 74
7, 125150, Note_on_c, 5, 48, 0
7, 125331, Note_on_c, 5, 41, 75
7, 125381, Note_on_c, 5, 41, 0
7, 125778, Note_on_c, 5, 53, 72
7, 125829, Note_on_c, 5, 53, 0
7, 125961, Note_on_c, 5, 46, 87
7, 125992, Note_on_c, 5, 46, 0
7, 126181, Note_on_c, 5, 41, 80
7, 126225, Note_on_c, 5, 41, 0
7, 126556, Note_on_c, 5, 53, 81
7, 126598, Note_on_c, 5, 53, 0
7, 126757, Note_on_c, 5, 48, 80
7, 126798, Note_on_c, 5, 48, 0
7, 126972, Note_on_c, 5, 41, 73
7, 127011, Note_on_c, 5, 41, 0
7, 127440, Program_c, 5, 49
7, 127627, Note_on_c, 5, 53, 57
7, 127906, Note_on_c, 5, 52, 47
7, 127954, Note_on_c, 5, 53, 0
7, 128780, Note_on_c, 5, 53, 51
7, 128852, Note_on_c, 5, 52, 0
7, 129658, Note_on_c, 5, 52, 50
7, 129702, Note_on_c, 5, 53, 0
7, 134417, Note_on_c, 5, 52, 0
7, 134880, Program_c, 5, 45
7, 135937, Note_on_c, 5, 64, 80
7, 135983, Note_on_c, 5, 64, 0
7, 136169, Note_on_c, 5, 57, 74
7, 136207, Note_on_c, 5, 57, 0
7, 136367, Note_on_c, 5, 61, 75
7, 136407, Note_on_c, 5, 61, 0
7, 136565, Note_on_c, 5, 52, 72
7, 136599, Note_on_c, 5, 52, 0
7, 136755, Note_on_c, 5, 57, 66
7, 136787, Note_on_c, 5, 57, 0
7, 136942, Note_on_c, 5, 52, 57
7, 136973, Note_on_c, 5, 52, 0
7, 137150, Note_on_c, 5, 45, 54
7, 137205, Note_on_c, 5, 45, 0
7, 137540, Note_on_c, 5, 64, 74
7, 137585, Note_on_c, 5, 64, 0
7, 137732, Note_on_c, 5, 57, 78
7, 137759, Note_on_c, 5, 57, 0
7, 137940, Note_on_c, 5, 61, 74
7, 137979, Note_on_c, 5, 61, 0
7, 138126, Note_on_c, 5, 52, 69
7, 138161, Note_on_c, 5, 52, 0
7, 138318, Note_on_c, 5, 57, 64
7, 138358, Note_on_c, 5, 57, 0
7, 138524, Note_on_c, 5, 52, 54
7, 138566, Note_on_c, 5, 52, 0
7, 138734, Note_on_c, 5, 45, 60
7, 138762, Note_on_c, 5, 45, 0
7, 139149, Note_on_c, 5, 57, 76
7, 139180, Note_on_c, 5, 57, 0
7, 139329, Note_on_c, 5, 50, 108
7, 139365, Note_on_c, 5, 50, 0
7, 139523, Note_on_c, 5, 45, 108
7, 139562, Note_on_c, 5, 45, 0
7, 139903, Note_on_c, 5, 57, 107
7, 139946, Note_on_c, 5, 57, 0
7, 140084, Note_on_c, 5, 52, 114
7, 140122, Note_on_c, 5, 52, 0
7, 140271, Note_on_c, 5, 45, 116
7, 140308, Note_on_c, 5, 45, 0
7, 140400, Program_c, 5, 49
7, 140792, Note_on_c, 5, 43, 108
7, 140966, Note_on_c, 5, 43, 0
7, 140967, Note_on_c, 5, 42, 112
7, 141196, Note_on_c, 5, 42, 0
7, 141284, Note_on_c, 5, 41, 127
7, 141629, Note_on_c, 5, 40, 122
7, 141662, Note_on_c, 5, 41, 0
7, 141852, Note_on_c, 5, 40, 0
7, 142080, Control_c, 5, 11, 100
7, 143184, Note_on_c, 5, 49, 124
7, 143307, Note_on_c, 5, 49, 0
7, 143357, Note_on_c, 5, 50, 122
7, 143406, Note_on_c, 5, 50, 0
7, 143534, Note_on_c, 5, 51, 125
7, 143585, Note_on_c, 5, 51, 0
7, 143709, Note_on_c, 5, 52, 126
7, 143757, Note_on_c, 5, 52, 0
7, 144088, Note_on_c, 5, 52, 126
7, 144441, Note_on_c, 5, 45, 120
7, 144451, Note_on_c, 5, 52, 0
7, 144564, Note_on_c, 5, 45, 0
7, 145000, Program_c, 5, 45
7, 145033, Note_on_c, 5, 50, 70
7, 145057, Note_on_c, 5, 50, 0
7, 145193, Note_on_c, 5, 49, 77
7, 145241, Note_on_c, 5, 49, 0
7, 145675, Program_c, 5, 49
7, 145675, Note_on_c, 5, 50, 71
7, 145831, Note_on_c, 5, 51, 69
7, 145856, Note_on_c, 5, 50, 0
7, 146182, Note_on_c, 5, 52, 72
7, 146247, Note_on_c, 5, 51, 0
7, 146522, Note_on_c, 5, 54, 75
7, 146582, Note_on_c, 5, 52, 0
7, 146828, Note_on_c, 5, 52, 61
7, 146847, Note_on_c, 5, 54, 0
7, 147119, Note_on_c, 5, 45, 59
7, 147131, Note_on_c, 5, 52, 0
7, 147308, Note_on_c, 5, 45, 0
7, 147360, Program_c, 5, 45
7, 147596, Note_on_c, 5, 50, 76
7, 147628, Note_on_c, 5, 50, 0
7, 147768, Note_on_c, 5, 49, 85
7, 147805, Note_on_c, 5, 49, 0
7, 148080, Program_c, 5, 49
7, 148240, Note_on_c, 5, 50, 64
7, 148391, Note_on_c, 5, 51, 70
7, 148430, Note_on_c, 5, 50, 0
7, 148730, Note_on_c, 5, 52, 78
7, 148784, Note_on_c, 5, 51, 0
7, 149037, Note_on_c, 5, 54, 81
7, 149082, Note_on_c, 5, 52, 0
7, 149350, Note_on_c, 5, 52, 63
7, 149380, Note_on_c, 5, 54, 0
7, 149657, Note_on_c, 5, 45, 73
7, 149670, Note_on_c, 5, 52, 0
7, 149892, Note_on_c, 5, 45, 0
7, 150746, Note_on_c, 5, 48, 57
7, 150917, Note_on_c, 5, 49, 80
7, 150975, Note_on_c, 5, 48, 0
7, 151083, Note_on_c, 5, 48, 68
7, 151144, Note_on_c, 5, 49, 0
7, 151247, Note_on_c, 5, 49, 82
7, 151266, Note_on_c, 5, 48, 0
7, 151396, Note_on_c, 5, 48, 82
7, 151412, Note_on_c, 5, 49, 0
7, 151541, Note_on_c, 5, 44, 87
7, 151544, Note_on_c, 5, 48, 0
7, 151837, Note_on_c, 5, 46, 89
7, 151864, Note_on_c, 5, 44, 0
7, 151992, Note_on_c, 5, 48, 84
7, 152016, Note_on_c, 5, 46, 0
7, 152156, Note_on_c, 5, 49, 84
7, 152190, Note_on_c, 5, 48, 0
7, 152346, Note_on_c, 5, 49, 0
7, 153215, Note_on_c, 5, 51, 80
7, 153375, Note_on_c, 5, 52, 70
7, 153410, Note_on_c, 5, 51, 0
7, 153527, Note_on_c, 5, 51, 82
7, 153563, Note_on_c, 5, 52, 0
7, 153679, Note_on_c, 5, 52, 83
7, 153716, Note_on_c, 5, 51, 0
7, 153820, Note_on_c, 5, 51, 90
7, 153854, Note_on_c, 5, 52, 0
7, 153966, Note_on_c, 5, 51, 0
7, 153982, Note_on_c, 5, 47, 85
7, 154286, Note_on_c, 5, 49, 88
7, 154339, Note_on_c, 5, 47, 0
7, 154433, Note_on_c, 5, 51, 97
7, 154483, Note_on_c, 5, 49, 0
7, 154600, Note_on_c, 5, 52, 85
7, 154634, Note_on_c, 5, 51, 0
7, 154739, Note_on_c, 5, 52, 0
7, 155083, Note_on_c, 5, 51, 80
7, 155387, Note_on_c, 5, 50, 88
7, 155410, Note_on_c, 5, 51, 0
7, 155575, Note_on_c, 5, 49, 84
7, 155607, Note_on_c, 5, 50, 0
7, 156027, Note_on_c, 5, 49, 0
7, 156027, Note_on_c, 5, 48, 88
7, 156215, Note_on_c, 5, 47, 93
7, 156241, Note_on_c, 5, 48, 0
7, 156699, Note_on_c, 5, 47, 0
7, 156955, Note_on_c, 5, 59, 76
7, 157111, Note_on_c, 5, 59, 0
7, 157115, Note_on_c, 5, 52, 68
7, 157482, Note_on_c, 5, 52, 0
7, 157549, Note_on_c, 5, 44, 47
7, 157848, Note_on_c, 5, 47, 59
7, 157919, Note_on_c, 5, 44, 0
7, 158182, Note_on_c, 5, 54, 73
7, 158222, Note_on_c, 5, 47, 0
7, 158507, Note_on_c, 5, 52, 64
7, 158516, Note_on_c, 5, 54, 0
7, 158792, Note_on_c, 5, 52, 0
7, 158821, Note_on_c, 5, 44, 85
7, 159134, Note_on_c, 5, 47, 70
7, 159167, Note_on_c, 5, 44, 0
7, 159422, Note_on_c, 5, 47, 0
7, 159457, Note_on_c, 5, 54, 65
7, 159785, Note_on_c, 5, 54, 0
7, 159800, Note_on_c, 5, 52, 67
7, 160137, Note_on_c, 5, 50, 78
7, 160164, Note_on_c, 5, 52, 0
7, 160431, Note_on_c, 5, 49, 74
7, 160514, Note_on_c, 5, 50, 0
7, 160712, Note_on_c, 5, 49, 0
7, 160754, Note_on_c, 5, 56, 72
7, 161075, Note_on_c, 5, 54, 88
7, 161095, Note_on_c, 5, 56, 0
7, 161362, Note_on_c, 5, 54, 0
7, 161404, Note_on_c, 5, 45, 81
7, 161701, Note_on_c, 5, 49, 67
7, 161747, Note_on_c, 5, 45, 0
7, 161990, Note_on_c, 5, 49, 0
7, 162031, Note_on_c, 5, 56, 85
7, 162363, Note_on_c, 5, 54, 97
7, 162376, Note_on_c, 5, 56, 0
7, 162696, Note_on_c, 5, 54, 0
7, 162830, Note_on_c, 5, 42, 107
7, 163001, Note_on_c, 5, 42, 0
7, 163011, Note_on_c, 5, 44, 101
7, 163524, Note_on_c, 5, 44, 0
7, 163623, Note_on_c, 5, 45, 92
7, 164148, Note_on_c, 5, 45, 0
7, 164260, Note_on_c, 5, 46, 88
7, 164894, Note_on_c, 5, 47, 85
7, 164933, Note_on_c, 5, 46, 0
7, 165154, Note_on_c, 5, 47, 0
7, 165600, Program_c, 5, 45
7, 166052, Note_on_c, 5, 54, 70
7, 166079, Note_on_c, 5, 54, 0
7, 166227, Note_on_c, 5, 47, 68
7, 166273, Note_on_c, 5, 47, 0
7, 167314, Note_on_c, 5, 54, 78
7, 167344, Note_on_c, 5, 54, 0
7, 167504, Note_on_c, 5, 47, 79
7, 167546, Note_on_c, 5, 47, 0
7, 168879, Note_on_c, 5, 42, 74
7, 168919, Note_on_c, 5, 42, 0
7, 169062, Note_on_c, 5, 47, 66
7, 169086, Note_on_c, 5, 47, 0
7, 169231, Note_on_c, 5, 42, 71
7, 169268, Note_on_c, 5, 42, 0
7, 169389, Note_on_c, 5, 47, 71
7, 169430, Note_on_c, 5, 47, 0
7, 169547, Note_on_c, 5, 42, 71
7, 169582, Note_on_c, 5, 42, 0
7, 169710, Note_on_c, 5, 47, 68
7, 169742, Note_on_c, 5, 47, 0
7, 169881, Note_on_c, 5, 42, 72
7, 169918, Note_on_c, 5, 42, 0
7, 170119, Note_on_c, 5, 47, 49
7, 170152, Note_on_c, 5, 47, 0
7, 170160, Program_c, 5, 49
7, 170504, Note_on_c, 5, 47, 84
7, 171031, Note_on_c, 5, 47, 0
7, 171088, Note_on_c, 5, 47, 91
7, 171278, Note_on_c, 5, 48, 94
7, 171339, Note_on_c, 5, 47, 0
7, 171462, Note_on_c, 5, 47, 96
7, 171507, Note_on_c, 5, 48, 0
7, 171646, Note_on_c, 5, 45, 102
7, 171669, Note_on_c, 5, 47, 0
7, 171820, Note_on_c, 5, 48, 98
7, 171854, Note_on_c, 5, 45, 0
7, 172034, Note_on_c, 5, 54, 93
7, 172075, Note_on_c, 5, 48, 0
7, 172525, Note_on_c, 5, 52, 92
7, 172651, Note_on_c, 5, 54, 0
7, 172694, Note_on_c, 5, 45, 84
7, 172718, Note_on_c, 5, 52, 0
7, 172860, Note_on_c, 5, 47, 84
7, 172873, Note_on_c, 5, 45, 0
7, 172942, Note_on_c, 5, 48, 72
7, 172951, Note_on_c, 5, 47, 0
7, 173038, Note_on_c, 5, 47, 85
7, 173043, Note_on_c, 5, 48, 0
7, 173142, Note_on_c, 5, 47, 0
7, 173792, Note_on_c, 5, 47, 82
7, 173959, Note_on_c, 5, 48, 75
7, 173982, Note_on_c, 5, 47, 0
7, 174112, Note_on_c, 5, 47, 68
7, 174148, Note_on_c, 5, 48, 0
7, 174274, Note_on_c, 5, 45, 67
7, 174292, Note_on_c, 5, 47, 0
7, 174450, Note_on_c, 5, 48, 85
7, 174481, Note_on_c, 5, 45, 0
7, 174632, Note_on_c, 5, 54, 80
7, 174669, Note_on_c, 5, 48, 0
7, 175157, Note_on_c, 5, 52, 79
7, 175172, Note_on_c, 5, 54, 0
7, 175337, Note_on_c, 5, 45, 74
7, 175354, Note_on_c, 5, 52, 0
7, 175505, Note_on_c, 5, 47, 71
7, 175513, Note_on_c, 5, 45, 0
7, 175602, Note_on_c, 5, 48, 64
7, 175619, Note_on_c, 5, 47, 0
7, 175717, Note_on_c, 5, 48, 0
7, 175761, Note_on_c, 5, 48, 57
7, 177082, Note_on_c, 5, 47, 47
7, 177127, Note_on_c, 5, 48, 0
7, 177930, Note_on_c, 5, 48, 47
7, 177936, Note_on_c, 5, 47, 0
7, 178556, Note_on_c, 5, 47, 49
7, 178602, Note_on_c, 5, 48, 0
7, 178738, Note_on_c, 5, 47, 0
7, 178892, Note_on_c, 5, 45, 65
7, 179178, Note_on_c, 5, 47, 74
7, 179219, Note_on_c, 5, 45, 0
7, 179527, Note_on_c, 5, 48, 72
7, 179570, Note_on_c, 5, 47, 0
7, 179856, Note_on_c, 5, 47, 57
7, 179895, Note_on_c, 5, 48, 0
7, 180143, Note_on_c, 5, 47, 0
7, 180175, Note_on_c, 5, 45, 57
7, 180449, Note_on_c, 5, 47, 58
7, 180509, Note_on_c, 5, 45, 0
7, 180816, Note_on_c, 5, 48, 49
7, 180849, Note_on_c, 5, 47, 0
7, 181163, Note_on_c, 5, 47, 49
7, 181212, Note_on_c, 5, 48, 0
7, 182330, Note_on_c, 5, 47, 0
7, 184486, Note_on_c, 5, 46, 33
7, 185677, Note_on_c, 5, 51, 51
7, 185749, Note_on_c, 5, 46, 0
7, 186392, Note_on_c, 5, 51, 0
7, 187130, Note_on_c, 5, 46, 35
7, 187716, Note_on_c, 5, 51, 25
7, 187782, Note_on_c, 5, 46, 0
7, 191310, Note_on_c, 5, 52, 56
7, 191356, Note_on_c, 5, 51, 0
7, 192464, Note_on_c, 5, 52, 0
7, 192631, Note_on_c, 5, 40, 61
7, 192891, Note_on_c, 5, 40, 0
7, 193440, Program_c, 5, 45
7, 193547, Note_on_c, 5, 59, 54
7, 193580, Note_on_c, 5, 59, 0
7, 193708, Note_on_c, 5, 59, 60
7, 193738, Note_on_c, 5, 59, 0
7, 193908, Note_on_c, 5, 52, 54
7, 193944, Note_on_c, 5, 52, 0
7, 194160, Program_c, 5, 49
7, 194219, Note_on_c, 5, 50, 57
7, 194522, Note_on_c, 5, 49, 63
7, 194551, Note_on_c, 5, 50, 0
7, 194842, Note_on_c, 5, 42, 60
7, 194849, Note_on_c, 5, 49, 0
7, 195132, Note_on_c, 5, 49, 54
7, 195145, Note_on_c, 5, 42, 0
7, 195449, Note_on_c, 5, 54, 64
7, 195477, Note_on_c, 5, 49, 0
7, 195733, Note_on_c, 5, 54, 0
7, 195740, Note_on_c, 5, 52, 77
7, 196075, Note_on_c, 5, 57, 66
7, 196080, Note_on_c, 5, 52, 0
7, 196358, Note_on_c, 5, 58, 61
7, 196387, Note_on_c, 5, 57, 0
7, 196653, Note_on_c, 5, 58, 0
7, 196656, Note_on_c, 5, 59, 65
7, 196962, Note_on_c, 5, 58, 68
7, 196971, Note_on_c, 5, 59, 0
7, 197250, Note_on_c, 5, 59, 73
7, 197268, Note_on_c, 5, 58, 0
7, 197563, Note_on_c, 5, 61, 75
7, 197592, Note_on_c, 5, 59, 0
7, 197856, Note_on_c, 5, 61, 0
7, 197875, Note_on_c, 5, 63, 78
7, 198182, Note_on_c, 5, 63, 0
7, 198196, Note_on_c, 5, 51, 69
7, 198917, Note_on_c, 5, 51, 0
7, 198936, Note_on_c, 5, 52, 74
7, 199038, Note_on_c, 5, 52, 0
7, 199132, Note_on_c, 5, 54, 80
7, 199270, Note_on_c, 5, 54, 0
7, 199413, Note_on_c, 5, 47, 74
7, 200474, Note_on_c, 5, 47, 0
7, 200483, Note_on_c, 5, 48, 94
7, 200535, Note_on_c, 5, 48, 0
7, 200647, Note_on_c, 5, 49, 99
7, 200701, Note_on_c, 5, 49, 0
7, 200794, Note_on_c, 5, 44, 95
7, 200864, Note_on_c, 5, 44, 0
7, 200950, Note_on_c, 5, 45, 100
7, 201007, Note_on_c, 5, 45, 0
7, 201108, Note_on_c, 5, 47, 98
7, 201160, Note_on_c, 5, 47, 0
7, 201263, Note_on_c, 5, 40, 104
7, 201342, Note_on_c, 5, 40, 0
7, 201417, Control_c, 5, 11, 100
7, 201417, Note_on_c, 5, 52, 114
7, 201453, Note_on_c, 5, 52, 0
7, 201594, Note_on_c, 5, 49, 118
7, 201886, Note_on_c, 5, 49, 0
7, 201920, Note_on_c, 5, 51, 116
7, 201965, Note_on_c, 5, 51, 0
7, 202086, Note_on_c, 5, 52, 112
7, 202132, Note_on_c, 5, 52, 0
7, 202254, Note_on_c, 5, 54, 118
7, 202293, Note_on_c, 5, 54, 0
7, 202404, Note_on_c, 5, 42, 114
7, 202444, Note_on_c, 5, 42, 0
7, 202578, Note_on_c, 5, 47, 112
7, 202624, Note_on_c, 5, 47, 0
7, 202739, Note_on_c, 5, 47, 116
7, 202782, Note_on_c, 5, 47, 0
7, 202910, Note_on_c, 5, 54, 121
7, 203218, Note_on_c, 5, 54, 0
7, 203245, Note_on_c, 5, 56, 118
7, 203283, Note_on_c, 5, 56, 0
7, 203404, Note_on_c, 5, 57, 120
7, 203445, Note_on_c, 5, 57, 0
7, 203565, Note_on_c, 5, 59, 121
7, 203605, Note_on_c, 5, 59, 0
7, 203727, Note_on_c, 5, 47, 118
7, 203769, Note_on_c, 5, 47, 0
7, 203892, Note_on_c, 5, 52, 118
7, 203923, Note_on_c, 5, 52, 0
7, 204064, Note_on_c, 5, 52, 118
7, 204096, Note_on_c, 5, 52, 0
7, 204246, Note_on_c, 5, 45, 114
7, 204445, Note_on_c, 5, 45, 0
7, 204599, Note_on_c, 5, 52, 121
7, 204631, Note_on_c, 5, 52, 0
7, 204771, Note_on_c, 5, 52, 120
7, 204803, Note_on_c, 5, 52, 0
7, 204949, Note_on_c, 5, 45, 114
7, 205136, Note_on_c, 5, 45, 0
7, 205304, Note_on_c, 5, 52, 112
7, 205334, Note_on_c, 5, 52, 0
7, 205472, Note_on_c, 5, 52, 108
7, 205505, Note_on_c, 5, 52, 0
7, 205645, Note_on_c, 5, 52, 109
7, 205679, Note_on_c, 5, 52, 0
7, 205812, Note_on_c, 5, 52, 104
7, 205848, Note_on_c, 5, 52, 0
7, 205987, Note_on_c, 5, 51, 115
7, 206020, Note_on_c, 5, 51, 0
7, 206157, Note_on_c, 5, 51, 113
7, 206187, Note_on_c, 5, 51, 0
7, 206319, Note_on_c, 5, 51, 123
7, 206351, Note_on_c, 5, 51, 0
7, 206486, Note_on_c, 5, 51, 127
7, 206519, Note_on_c, 5, 51, 0
7, 206650, Note_on_c, 5, 56, 123
7, 206681, Note_on_c, 5, 56, 0
7, 206813, Note_on_c, 5, 56, 126
7, 206845, Note_on_c, 5, 56, 0
7, 206987, Note_on_c, 5, 56, 121
7, 207016, Note_on_c, 5, 56, 0
7, 207150, Note_on_c, 5, 56, 126
7, 207183, Note_on_c, 5, 56, 0
7, 207323, Note_on_c, 5, 56, 125
7, 207360, Control_c, 5, 11, 100
7, 207365, Control_c, 5, 11, 93
7, 207370, Control_c, 5, 11, 89
7, 207375, Control_c, 5, 11, 86
7, 207380, Control_c, 5, 11, 82
7, 207385, Control_c, 5, 11, 79
7, 207390, Control_c, 5, 11, 76
7, 207395, Control_c, 5, 11, 73
7, 207400, Control_c, 5, 11, 70
7, 207405, Control_c, 5, 11, 68
7, 207410, Control_c, 5, 11, 65
7, 207415, Control_c, 5, 11, 63
7, 207420, Control_c, 5, 11, 61
7, 207425, Control_c, 5, 11, 59
7, 207430, Control_c, 5, 11, 57
7, 207435, Control_c, 5, 11, 55
7, 207440, Control_c, 5, 11, 54
7, 207445, Control_c, 5, 11, 52
7, 207450, Control_c, 5, 11, 51
7, 207455, Control_c, 5, 11, 49
7, 207460, Control_c, 5, 11, 48
7, 207465, Control_c, 5, 11, 46
7, 207470, Control_c, 5, 11, 45
7, 207475, Control_c, 5, 11, 44
7, 207480, Control_c, 5, 11, 43
7, 207490, Control_c, 5, 11, 42
7, 207495, Control_c, 5, 11, 41
7, 207500, Control_c, 5, 11, 40
7, 207510, Control_c, 5, 11, 39
7, 207515, Control_c, 5, 11, 38
7, 207525, Control_c, 5, 11, 37
7, 207535, Control_c, 5, 11, 36
7, 207545, Control_c, 5, 11, 35
7, 207560, Control_c, 5, 11, 34
7, 207575, Control_c, 5, 11, 33
7, 207600, Control_c, 5, 11, 32
7, 207625, Control_c, 5, 11, 31
7, 207675, Control_c, 5, 11, 30
7, 207770, Control_c, 5, 11, 30
7, 207850, Control_c, 5, 11, 31
7, 207890, Control_c, 5, 11, 32
7, 207910, Control_c, 5, 11, 33
7, 207930, Control_c, 5, 11, 34
7, 207940, Control_c, 5, 11, 35
7, 207950, Control_c, 5, 11, 36
7, 207960, Control_c, 5, 11, 37
7, 207970, Control_c, 5, 11, 38
7, 207975, Control_c, 5, 11, 39
7, 207980, Control_c, 5, 11, 40
7, 207985, Control_c, 5, 11, 41
7, 207990, Control_c, 5, 11, 42
7, 207995, Control_c, 5, 11, 43
7, 208000, Control_c, 5, 11, 44
7, 208005, Control_c, 5, 11, 45
7, 208010, Control_c, 5, 11, 47
7, 208015, Control_c, 5, 11, 48
7, 208020, Control_c, 5, 11, 50
7, 208025, Control_c, 5, 11, 52
7, 208030, Control_c, 5, 11, 54
7, 208034, Note_on_c, 5, 49, 74
7, 208035, Control_c, 5, 11, 56
7, 208040, Control_c, 5, 11, 59
7, 208045, Control_c, 5, 11, 61
7, 208050, Control_c, 5, 11, 65
7, 208055, Control_c, 5, 11, 68
7, 208060, Note_on_c, 5, 49, 0
7, 208060, Control_c, 5, 11, 71
7, 208065, Control_c, 5, 11, 75
7, 208070, Control_c, 5, 11, 79
7, 208075, Control_c, 5, 11, 83
7, 208080, Control_c, 5, 11, 88
7, 208085, Control_c, 5, 11, 93
7, 208087, Note_on_c, 5, 56, 0
7, 208090, Control_c, 5, 11, 100
7, 208110, Note_on_c, 5, 56, 86
7, 208111, Note_on_c, 5, 49, 94
7, 208144, Note_on_c, 5, 49, 0
7, 208150, Note_on_c, 5, 56, 0
7, 208179, Note_on_c, 5, 49, 89
7, 208184, Note_on_c, 5, 56, 87
7, 208215, Note_on_c, 5, 49, 0
7, 208224, Note_on_c, 5, 56, 0
7, 208264, Note_on_c, 5, 49, 103
7, 208268, Note_on_c, 5, 56, 99
7, 208298, Note_on_c, 5, 49, 0
7, 208305, Note_on_c, 5, 56, 0
7, 208352, Note_on_c, 5, 56, 121
7, 208385, Note_on_c, 5, 56, 0
7, 208530, Note_on_c, 5, 56, 124
7, 208562, Note_on_c, 5, 56, 0
7, 208720, Control_c, 5, 11, 100
7, 208720, Note_on_c, 5, 56, 125
7, 208725, Control_c, 5, 11, 95
7, 208730, Control_c, 5, 11, 92
7, 208735, Control_c, 5, 11, 89
7, 208740, Control_c, 5, 11, 86
7, 208745, Control_c, 5, 11, 83
7, 208750, Control_c, 5, 11, 81
7, 208755, Control_c, 5, 11, 78
7, 208760, Control_c, 5, 11, 76
7, 208765, Control_c, 5, 11, 74
7, 208770, Control_c, 5, 11, 72
7, 208775, Control_c, 5, 11, 69
7, 208780, Control_c, 5, 11, 68
7, 208785, Control_c, 5, 11, 66
7, 208790, Control_c, 5, 11, 64
7, 208795, Control_c, 5, 11, 62
7, 208800, Control_c, 5, 11, 61
7, 208805, Control_c, 5, 11, 59
7, 208810, Control_c, 5, 11, 58
7, 208815, Control_c, 5, 11, 56
7, 208820, Control_c, 5, 11, 55
7, 208825, Control_c, 5, 11, 54
7, 208830, Control_c, 5, 11, 52
7, 208840, Control_c, 5, 11, 51
7, 208845, Control_c, 5, 11, 49
7, 208850, Control_c, 5, 11, 48
7, 208860, Control_c, 5, 11, 46
7, 208870, Control_c, 5, 11, 45
7, 208875, Control_c, 5, 11, 44
7, 208880, Control_c, 5, 11, 43
7, 208890, Control_c, 5, 11, 42
7, 208900, Control_c, 5, 11, 41
7, 208905, Control_c, 5, 11, 40
7, 208915, Control_c, 5, 11, 39
7, 208930, Control_c, 5, 11, 38
7, 208935, Control_c, 5, 11, 37
7, 208950, Control_c, 5, 11, 36
7, 208970, Control_c, 5, 11, 35
7, 208985, Control_c, 5, 11, 34
7, 209005, Control_c, 5, 11, 33
7, 209040, Control_c, 5, 11, 32
7, 209070, Control_c, 5, 11, 31
7, 209140, Control_c, 5, 11, 30
7, 209235, Control_c, 5, 11, 31
7, 209285, Control_c, 5, 11, 32
7, 209289, Note_on_c, 5, 56, 0
7, 209305, Control_c, 5, 11, 33
7, 209330, Control_c, 5, 11, 34
7, 209345, Control_c, 5, 11, 35
7, 209355, Control_c, 5, 11, 36
7, 209365, Control_c, 5, 11, 37
7, 209375, Control_c, 5, 11, 38
7, 209380, Control_c, 5, 11, 39
7, 209390, Control_c, 5, 11, 40
7, 209395, Control_c, 5, 11, 41
7, 209400, Control_c, 5, 11, 42
7, 209410, Control_c, 5, 11, 43
7, 209415, Control_c, 5, 11, 44
7, 209420, Control_c, 5, 11, 46
7, 209425, Control_c, 5, 11, 47
7, 209430, Control_c, 5, 11, 48
7, 209435, Control_c, 5, 11, 50
7, 209440, Control_c, 5, 11, 51
7, 209445, Control_c, 5, 11, 53
7, 209450, Control_c, 5, 11, 55
7, 209451, Note_on_c, 5, 56, 103
7, 209455, Control_c, 5, 11, 56
7, 209458, Note_on_c, 5, 49, 91
7, 209460, Control_c, 5, 11, 59
7, 209465, Control_c, 5, 11, 61
7, 209470, Control_c, 5, 11, 63
7, 209475, Control_c, 5, 11, 66
7, 209480, Control_c, 5, 11, 68
7, 209484, Note_on_c, 5, 49, 0
7, 209485, Control_c, 5, 11, 72
7, 209489, Note_on_c, 5, 56, 0
7, 209490, Control_c, 5, 11, 75
7, 209495, Control_c, 5, 11, 78
7, 209500, Control_c, 5, 11, 82
7, 209505, Control_c, 5, 11, 86
7, 209510, Control_c, 5, 11, 89
7, 209515, Control_c, 5, 11, 95
7, 209520, Control_c, 5, 11, 100
7, 209540, Note_on_c, 5, 56, 107
7, 209543, Note_on_c, 5, 49, 104
7, 209573, Note_on_c, 5, 49, 0
7, 209575, Note_on_c, 5, 56, 0
7, 209609, Note_on_c, 5, 56, 104
7, 209610, Note_on_c, 5, 49, 114
7, 209648, Note_on_c, 5, 56, 0
7, 209649, Note_on_c, 5, 49, 0
7, 209679, Note_on_c, 5, 49, 114
7, 209681, Note_on_c, 5, 56, 116
7, 209717, Note_on_c, 5, 56, 0
7, 209733, Note_on_c, 5, 49, 0
7, 209777, Note_on_c, 5, 47, 120
7, 209827, Note_on_c, 5, 47, 0
7, 209940, Note_on_c, 5, 47, 121
7, 209986, Note_on_c, 5, 47, 0
7, 210099, Control_c, 5, 11, 100
7, 210099, Note_on_c, 5, 47, 126
7, 210104, Control_c, 5, 11, 93
7, 210109, Control_c, 5, 11, 89
7, 210114, Control_c, 5, 11, 84
7, 210119, Control_c, 5, 11, 81
7, 210124, Control_c, 5, 11, 78
7, 210129, Control_c, 5, 11, 74
7, 210134, Control_c, 5, 11, 71
7, 210139, Control_c, 5, 11, 68
7, 210144, Control_c, 5, 11, 65
7, 210149, Control_c, 5, 11, 63
7, 210154, Control_c, 5, 11, 60
7, 210159, Control_c, 5, 11, 58
7, 210164, Control_c, 5, 11, 56
7, 210169, Control_c, 5, 11, 54
7, 210174, Control_c, 5, 11, 52
7, 210179, Control_c, 5, 11, 51
7, 210184, Control_c, 5, 11, 49
7, 210189, Control_c, 5, 11, 48
7, 210194, Control_c, 5, 11, 47
7, 210199, Control_c, 5, 11, 45
7, 210204, Control_c, 5, 11, 44
7, 210209, Control_c, 5, 11, 43
7, 210214, Control_c, 5, 11, 42
7, 210224, Control_c, 5, 11, 40
7, 210234, Control_c, 5, 11, 39
7, 210239, Control_c, 5, 11, 38
7, 210249, Control_c, 5, 11, 37
7, 210259, Control_c, 5, 11, 36
7, 210269, Control_c, 5, 11, 35
7, 210279, Control_c, 5, 11, 34
7, 210294, Control_c, 5, 11, 33
7, 210319, Control_c, 5, 11, 32
7, 210339, Control_c, 5, 11, 31
7, 210389, Control_c, 5, 11, 30
7, 210480, Control_c, 5, 11, 30
7, 210540, Control_c, 5, 11, 31
7, 210570, Control_c, 5, 11, 32
7, 210585, Control_c, 5, 11, 33
7, 210600, Control_c, 5, 11, 34
7, 210610, Control_c, 5, 11, 35
7, 210615, Control_c, 5, 11, 36
7, 210625, Control_c, 5, 11, 37
7, 210630, Control_c, 5, 11, 38
7, 210635, Control_c, 5, 11, 39
7, 210640, Control_c, 5, 11, 40
7, 210645, Control_c, 5, 11, 42
7, 210650, Control_c, 5, 11, 43
7, 210655, Control_c, 5, 11, 45
7, 210660, Control_c, 5, 11, 47
7, 210665, Control_c, 5, 11, 49
7, 210670, Control_c, 5, 11, 52
7, 210674, Note_on_c, 5, 47, 0
7, 210675, Control_c, 5, 11, 54
7, 210680, Control_c, 5, 11, 58
7, 210685, Control_c, 5, 11, 61
7, 210690, Control_c, 5, 11, 65
7, 210695, Control_c, 5, 11, 69
7, 210700, Control_c, 5, 11, 74
7, 210705, Control_c, 5, 11, 80
7, 210710, Control_c, 5, 11, 86
7, 210715, Control_c, 5, 11, 92
7, 210720, Control_c, 5, 11, 100
7, 210742, Note_on_c, 5, 52, 84
7, 210784, Note_on_c, 5, 52, 0
7, 210907, Note_on_c, 5, 47, 87
7, 210938, Note_on_c, 5, 47, 0
7, 211053, Note_on_c, 5, 54, 103
7, 211085, Note_on_c, 5, 54, 0
7, 211205, Note_on_c, 5, 47, 100
7, 211240, Note_on_c, 5, 47, 0
7, 211355, Note_on_c, 5, 52, 120
7, 211390, Note_on_c, 5, 52, 0
7, 211503, Note_on_c, 5, 47, 120
7, 211542, Note_on_c, 5, 47, 0
7, 211660, Note_on_c, 5, 54, 127
7, 211690, Note_on_c, 5, 54, 0
7, 211813, Note_on_c, 5, 47, 121
7, 211850, Note_on_c, 5, 47, 0
7, 211970, Note_on_c, 5, 52, 125
7, 212003, Note_on_c, 5, 52, 0
7, 212116, Note_on_c, 5, 47, 120
7, 212158, Note_on_c, 5, 47, 0
7, 212286, Note_on_c, 5, 47, 96
7, 212330, Note_on_c, 5, 47, 0
7, 212441, Note_on_c, 5, 47, 102
7, 212479, Note_on_c, 5, 47, 0
7, 212584, Note_on_c, 5, 47, 118
7, 212622, Note_on_c, 5, 47, 0
7, 212741, Note_on_c, 5, 47, 116
7, 212776, Note_on_c, 5, 47, 0
7, 212899, Note_on_c, 5, 47, 122
7, 212935, Note_on_c, 5, 47, 0
7, 213045, Note_on_c, 5, 47, 122
7, 213084, Note_on_c, 5, 47, 0
7, 213209, Note_on_c, 5, 47, 127
7, 213247, Note_on_c, 5, 47, 0
7, 213377, Note_on_c, 5, 47, 127
7, 213527, Note_on_c, 5, 47, 0
7, 213535, Note_on_c, 5, 59, 122
7, 213569, Note_on_c, 5, 59, 0
7, 213705, Note_on_c, 5, 47, 126
7, 213988, Note_on_c, 5, 47, 0
7, 214029, Note_on_c, 5, 47, 121
7, 214065, Note_on_c, 5, 47, 0
7, 214175, Note_on_c, 5, 47, 121
7, 214214, Note_on_c, 5, 47, 0
7, 214360, Control_c, 5, 11, 100
7, 214360, Note_on_c, 5, 47, 125
7, 214365, Control_c, 5, 11, 96
7, 214370, Control_c, 5, 11, 93
7, 214375, Control_c, 5, 11, 91
7, 214380, Control_c, 5, 11, 88
7, 214385, Control_c, 5, 11, 85
7, 214390, Control_c, 5, 11, 83
7, 214395, Control_c, 5, 11, 81
7, 214400, Control_c, 5, 11, 79
7, 214405, Control_c, 5, 11, 77
7, 214410, Control_c, 5, 11, 75
7, 214415, Control_c, 5, 11, 74
7, 214420, Control_c, 5, 11, 73
7, 214425, Control_c, 5, 11, 71
7, 214430, Control_c, 5, 11, 70
7, 214435, Control_c, 5, 11, 69
7, 214440, Control_c, 5, 11, 67
7, 214445, Control_c, 5, 11, 66
7, 214450, Control_c, 5, 11, 65
7, 214455, Control_c, 5, 11, 64
7, 214460, Control_c, 5, 11, 63
7, 214465, Control_c, 5, 11, 62
7, 214475, Control_c, 5, 11, 61
7, 214480, Control_c, 5, 11, 60
7, 214490, Control_c, 5, 11, 59
7, 214495, Control_c, 5, 11, 58
7, 214505, Control_c, 5, 11, 57
7, 214515, Control_c, 5, 11, 56
7, 214530, Control_c, 5, 11, 55
7, 214545, Control_c, 5, 11, 54
7, 214560, Control_c, 5, 11, 53
7, 214580, Control_c, 5, 11, 52
7, 214610, Control_c, 5, 11, 51
7, 214660, Control_c, 5, 11, 50
7, 214855, Note_on_c, 5, 47, 0
7, 214857, Note_on_c, 5, 47, 96
7, 217631, Note_on_c, 5, 40, 104
7, 217635, Note_on_c, 5, 47, 0
7, 217854, Note_on_c, 5, 40, 0
7, 218400, Control_c, 5, 11, 100
7, 219600, Program_c, 5, 45
7, 219814, Note_on_c, 5, 47, 78
7, 219852, Note_on_c, 5, 47, 0
7, 219979, Note_on_c, 5, 47, 67
7, 220015, Note_on_c, 5, 47, 0
7, 220158, Note_on_c, 5, 52, 72
7, 220186, Note_on_c, 5, 52, 0
7, 220800, Program_c, 5, 49
7, 220832, Note_on_c, 5, 52, 73
7, 222003, Note_on_c, 5, 47, 94
7, 222051, Note_on_c, 5, 52, 0
7, 222310, Note_on_c, 5, 52, 116
7, 222340, Note_on_c, 5, 47, 0
7, 222360, Note_on_c, 5, 52, 0
7, 222469, Note_on_c, 5, 52, 118
7, 222505, Note_on_c, 5, 52, 0
7, 222636, Note_on_c, 5, 61, 127
7, 222691, Note_on_c, 5, 61, 0
7, 222807, Note_on_c, 5, 59, 127
7, 222890, Note_on_c, 5, 59, 0
7, 223245, Note_on_c, 5, 57, 127
7, 223295, Note_on_c, 5, 57, 0
7, 223415, Note_on_c, 5, 56, 126
7, 223472, Note_on_c, 5, 56, 0
7, 223866, Note_on_c, 5, 61, 127
7, 223900, Note_on_c, 5, 61, 0
7, 224029, Note_on_c, 5, 59, 127
7, 224070, Note_on_c, 5, 59, 0
7, 224469, Note_on_c, 5, 57, 127
7, 224522, Note_on_c, 5, 57, 0
7, 224629, Note_on_c, 5, 56, 126
7, 224694, Note_on_c, 5, 56, 0
7, 226285, Note_on_c, 5, 44, 47
7, 226454, Note_on_c, 5, 49, 63
7, 226482, Note_on_c, 5, 44, 0
7, 226637, Note_on_c, 5, 49, 0
7, 226979, Note_on_c, 5, 45, 57
7, 227137, Note_on_c, 5, 44, 66
7, 227168, Note_on_c, 5, 45, 0
7, 227409, Note_on_c, 5, 44, 0
7, 227606, Note_on_c, 5, 54, 121
7, 227673, Note_on_c, 5, 54, 0
7, 227761, Note_on_c, 5, 52, 122
7, 227864, Note_on_c, 5, 52, 0
7, 227928, Note_on_c, 5, 57, 114
7, 227998, Note_on_c, 5, 57, 0
7, 228106, Note_on_c, 5, 51, 120
7, 228172, Note_on_c, 5, 52, 106
7, 228193, Note_on_c, 5, 51, 0
7, 228242, Note_on_c, 5, 51, 110
7, 228263, Note_on_c, 5, 52, 0
7, 228294, Note_on_c, 5, 51, 0
7, 228316, Note_on_c, 5, 50, 109
7, 228369, Note_on_c, 5, 50, 0
7, 228398, Note_on_c, 5, 51, 116
7, 228441, Note_on_c, 5, 51, 0
7, 228571, Note_on_c, 5, 56, 114
7, 228637, Note_on_c, 5, 56, 0
7, 228737, Note_on_c, 5, 49, 109
7, 228847, Note_on_c, 5, 49, 0
7, 228906, Note_on_c, 5, 51, 103
7, 228982, Note_on_c, 5, 51, 0
7, 228985, Note_on_c, 5, 52, 86
7, 229049, Note_on_c, 5, 52, 0
7, 229068, Note_on_c, 5, 54, 114
7, 229107, Note_on_c, 5, 54, 0
7, 229242, Note_on_c, 5, 42, 113
7, 229391, Note_on_c, 5, 54, 114
7, 229412, Note_on_c, 5, 42, 0
7, 229531, Note_on_c, 5, 54, 0
7, 229564, Note_on_c, 5, 56, 114
7, 229696, Note_on_c, 5, 56, 0
7, 229734, Note_on_c, 5, 57, 112
7, 229838, Note_on_c, 5, 57, 0
7, 229919, Note_on_c, 5, 54, 114
7, 230005, Note_on_c, 5, 54, 0
7, 230079, Note_on_c, 5, 54, 123
7, 230222, Note_on_c, 5, 54, 0
7, 230238, Note_on_c, 5, 55, 97
7, 230379, Note_on_c, 5, 55, 0
7, 230408, Note_on_c, 5, 56, 110
7, 230505, Note_on_c, 5, 56, 0
7, 230589, Note_on_c, 5, 44, 61
7, 231052, Note_on_c, 5, 49, 66
7, 231121, Note_on_c, 5, 44, 0
7, 231402, Note_on_c, 5, 47, 60
7, 231439, Note_on_c, 5, 49, 0
7, 231558, Note_on_c, 5, 45, 57
7, 231584, Note_on_c, 5, 47, 0
7, 231700, Note_on_c, 5, 44, 64
7, 231739, Note_on_c, 5, 45, 0
7, 232301, Note_on_c, 5, 44, 0
7, 232319, Note_on_c, 5, 49, 62
7, 232645, Note_on_c, 5, 47, 59
7, 232692, Note_on_c, 5, 49, 0
7, 232807, Note_on_c, 5, 45, 54
7, 232846, Note_on_c, 5, 47, 0
7, 232991, Note_on_c, 5, 44, 58
7, 233035, Note_on_c, 5, 45, 0
7, 241954, Note_on_c, 5, 45, 85
7, 241987, Note_on_c, 5, 44, 0
7, 242586, Note_on_c, 5, 38, 91
7, 242597, Note_on_c, 5, 45, 0
7, 243195, Note_on_c, 5, 43, 88
7, 243199, Note_on_c, 5, 38, 0
7, 245838, Note_on_c, 5, 42, 80
7, 245877, Note_on_c, 5, 43, 0
7, 247292, Note_on_c, 5, 43, 83
7, 247309, Note_on_c, 5, 42, 0
7, 247943, Note_on_c, 5, 36, 88
7, 247953, Note_on_c, 5, 43, 0
7, 248612, Note_on_c, 5, 36, 0
7, 248613, Note_on_c, 5, 41, 85
7, 250664, Note_on_c, 5, 53, 82
7, 250690, Note_on_c, 5, 41, 0
7, 251357, Note_on_c, 5, 53, 0
7, 251359, Note_on_c, 5, 52, 82
7, 251569, Note_on_c, 5, 52, 0
7, 253195, Note_on_c, 5, 61, 85
7, 253360, Note_on_c, 5, 61, 0
7, 253374, Note_on_c, 5, 62, 77
7, 253513, Note_on_c, 5, 62, 0
7, 253546, Note_on_c, 5, 59, 76
7, 253677, Note_on_c, 5, 59, 0
7, 253719, Note_on_c, 5, 57, 70
7, 253861, Note_on_c, 5, 57, 0
7, 253911, Note_on_c, 5, 56, 75
7, 253993, Note_on_c, 5, 56, 0
7, 254079, Note_on_c, 5, 49, 76
7, 254167, Note_on_c, 5, 49, 0
7, 254249, Note_on_c, 5, 54, 67
7, 254323, Note_on_c, 5, 54, 0
7, 254451, Note_on_c, 5, 54, 54
7, 254658, Note_on_c, 5, 51, 63
7, 254665, Note_on_c, 5, 54, 0
7, 254825, Note_on_c, 5, 52, 49
7, 254854, Note_on_c, 5, 51, 0
7, 255012, Note_on_c, 5, 49, 60
7, 255028, Note_on_c, 5, 52, 0
7, 255167, Note_on_c, 5, 49, 0
7, 255177, Note_on_c, 5, 50, 74
7, 255302, Note_on_c, 5, 50, 0
7, 255316, Note_on_c, 5, 52, 63
7, 255352, Note_on_c, 5, 52, 0
7, 255353, Note_on_c, 5, 53, 76
7, 255508, Note_on_c, 5, 53, 0
7, 255522, Note_on_c, 5, 47, 63
7, 255693, Note_on_c, 5, 47, 0
7, 255707, Note_on_c, 5, 48, 55
7, 256056, Note_on_c, 5, 48, 0
7, 256104, Note_on_c, 5, 54, 72
7, 256287, Note_on_c, 5, 55, 65
7, 256312, Note_on_c, 5, 54, 0
7, 256419, Note_on_c, 5, 55, 0
7, 256465, Note_on_c, 5, 52, 72
7, 256592, Note_on_c, 5, 52, 0
7, 256638, Note_on_c, 5, 50, 77
7, 256772, Note_on_c, 5, 50, 0
7, 256808, Note_on_c, 5, 49, 79
7, 256899, Note_on_c, 5, 49, 0
7, 256980, Note_on_c, 5, 42, 86
7, 257071, Note_on_c, 5, 42, 0
7, 257141, Note_on_c, 5, 41, 86
7, 257387, Note_on_c, 5, 41, 0
7, 258420, Note_on_c, 5, 49, 93
7, 258776, Note_on_c, 5, 55, 90
7, 258797, Note_on_c, 5, 49, 0
7, 259175, Note_on_c, 5, 55, 0
7, 259992, Note_on_c, 5, 54, 93
7, 260228, Note_on_c, 5, 54, 0
7, 260407, Note_on_c, 5, 48, 107
7, 261198, Note_on_c, 5, 47, 103
7, 261219, Note_on_c, 5, 48, 0
7, 261542, Note_on_c, 5, 47, 0
7, 261577, Note_on_c, 5, 45, 113
7, 261899, Note_on_c, 5, 45, 0
7, 261930, Note_on_c, 5, 43, 118
7, 262650, Note_on_c, 5, 42, 112
7, 262671, Note_on_c, 5, 43, 0
7, 263258, Note_on_c, 5, 42, 0
7, 263332, Note_on_c, 5, 41, 116
7, 263697, Note_on_c, 5, 41, 0
7, 264315, Note_on_c, 5, 53, 98
7, 264357, Note_on_c, 5, 53, 0
7, 264473, Note_on_c, 5, 53, 96
7, 264510, Note_on_c, 5, 53, 0
7, 264639, Note_on_c, 5, 53, 93
7, 264673, Note_on_c, 5, 53, 0
7, 264948, Note_on_c, 5, 53, 90
7, 264984, Note_on_c, 5, 53, 0
7, 265105, Note_on_c, 5, 53, 85
7, 265143, Note_on_c, 5, 53, 0
7, 265253, Note_on_c, 5, 53, 70
7, 265321, Note_on_c, 5, 53, 0
7, 265538, Note_on_c, 5, 53, 76
7, 265582, Note_on_c, 5, 53, 0
7, 265751, Note_on_c, 5, 53, 62
7, 265813, Note_on_c, 5, 53, 0
7, 265948, Note_on_c, 5, 54, 65
7, 266068, Note_on_c, 5, 54, 0
7, 266246, Note_on_c, 5, 42, 61
7, 277101, Note_on_c, 5, 42, 0
7, 278110, Note_on_c, 5, 42, 58
7, 279874, Note_on_c, 5, 47, 38
7, 279918, Note_on_c, 5, 42, 0
7, 280230, Note_on_c, 5, 47, 0
7, 280251, Control_c, 5, 11, 80
7, 280251, Program_c, 5, 45
7, 280251, Note_on_c, 5, 66, 64
7, 280276, Note_on_c, 5, 66, 0
7, 280447, Note_on_c, 5, 59, 56
7, 280479, Note_on_c, 5, 59, 0
7, 280623, Note_on_c, 5, 63, 70
7, 280656, Note_on_c, 5, 63, 0
7, 280805, Note_on_c, 5, 54, 55
7, 280827, Note_on_c, 5, 54, 0
7, 280967, Note_on_c, 5, 59, 53
7, 281009, Note_on_c, 5, 59, 0
7, 281136, Note_on_c, 5, 54, 61
7, 281164, Note_on_c, 5, 54, 0
7, 281312, Note_on_c, 5, 47, 50
7, 281355, Note_on_c, 5, 47, 0
7, 281656, Note_on_c, 5, 66, 44
7, 281685, Note_on_c, 5, 66, 0
7, 281844, Note_on_c, 5, 59, 49
7, 281868, Note_on_c, 5, 59, 0
7, 282024, Note_on_c, 5, 63, 57
7, 282054, Note_on_c, 5, 63, 0
7, 282197, Note_on_c, 5, 54, 56
7, 282226, Note_on_c, 5, 54, 0
7, 282377, Note_on_c, 5, 59, 38
7, 282418, Note_on_c, 5, 59, 0
7, 282544, Note_on_c, 5, 54, 45
7, 282571, Note_on_c, 5, 54, 0
7, 282755, Note_on_c, 5, 47, 35
7, 282781, Note_on_c, 5, 47, 0
7, 283116, Note_on_c, 5, 66, 53
7, 283155, Note_on_c, 5, 66, 0
7, 283302, Note_on_c, 5, 59, 53
7, 283335, Note_on_c, 5, 59, 0
7, 283479, Note_on_c, 5, 63, 66
7, 283514, Note_on_c, 5, 63, 0
7, 283656, Note_on_c, 5, 54, 51
7, 283702, Note_on_c, 5, 54, 0
7, 283831, Note_on_c, 5, 59, 44
7, 283885, Note_on_c, 5, 59, 0
7, 284004, Note_on_c, 5, 54, 53
7, 284036, Note_on_c, 5, 54, 0
7, 284204, Note_on_c, 5, 47, 46
7, 284232, Note_on_c, 5, 47, 0
7, 284576, Note_on_c, 5, 59, 56
7, 284629, Note_on_c, 5, 59, 0
7, 284759, Note_on_c, 5, 52, 50
7, 284794, Note_on_c, 5, 52, 0
7, 284987, Note_on_c, 5, 47, 45
7, 285017, Note_on_c, 5, 47, 0
7, 285380, Note_on_c, 5, 59, 61
7, 285428, Note_on_c, 5, 59, 0
7, 285580, Note_on_c, 5, 58, 62
7, 285646, Note_on_c, 5, 58, 0
7, 285818, Note_on_c, 5, 56, 56
7, 285861, Note_on_c, 5, 56, 0
7, 287070, Note_on_c, 5, 56, 80
7, 287112, Note_on_c, 5, 56, 0
7, 287254, Note_on_c, 5, 44, 75
7, 287304, Note_on_c, 5, 44, 0
7, 287444, Note_on_c, 5, 49, 68
7, 287501, Note_on_c, 5, 49, 0
7, 287795, Note_on_c, 5, 68, 75
7, 287839, Note_on_c, 5, 68, 0
7, 287985, Note_on_c, 5, 61, 73
7, 288030, Note_on_c, 5, 61, 0
7, 288168, Note_on_c, 5, 64, 68
7, 288202, Note_on_c, 5, 64, 0
7, 288347, Note_on_c, 5, 56, 58
7, 288383, Note_on_c, 5, 56, 0
7, 288516, Note_on_c, 5, 61, 64
7, 288564, Note_on_c, 5, 61, 0
7, 288708, Note_on_c, 5, 56, 61
7, 288750, Note_on_c, 5, 56, 0
7, 288914, Note_on_c, 5, 49, 68
7, 288952, Note_on_c, 5, 49, 0
7, 289291, Note_on_c, 5, 68, 83
7, 289332, Note_on_c, 5, 68, 0
7, 289484, Note_on_c, 5, 61, 72
7, 289528, Note_on_c, 5, 61, 0
7, 289657, Note_on_c, 5, 64, 71
7, 289693, Note_on_c, 5, 64, 0
7, 289842, Note_on_c, 5, 56, 54
7, 289886, Note_on_c, 5, 56, 0
7, 290023, Note_on_c, 5, 61, 68
7, 290066, Note_on_c, 5, 61, 0
7, 290204, Note_on_c, 5, 56, 63
7, 290261, Note_on_c, 5, 56, 0
7, 290409, Note_on_c, 5, 49, 45
7, 290484, Note_on_c, 5, 49, 0
7, 290779, Note_on_c, 5, 61, 71
7, 290832, Note_on_c, 5, 61, 0
7, 290955, Note_on_c, 5, 54, 78
7, 290989, Note_on_c, 5, 54, 0
7, 291152, Note_on_c, 5, 49, 68
7, 291189, Note_on_c, 5, 49, 0
7, 291551, Note_on_c, 5, 61, 61
7, 291601, Note_on_c, 5, 61, 0
7, 291730, Note_on_c, 5, 49, 70
7, 291766, Note_on_c, 5, 49, 0
7, 291940, Note_on_c, 5, 54, 55
7, 292002, Note_on_c, 5, 54, 0
7, 293290, Note_on_c, 5, 59, 71
7, 293335, Note_on_c, 5, 59, 0
7, 293484, Note_on_c, 5, 57, 81
7, 293524, Note_on_c, 5, 57, 0
7, 293675, Note_on_c, 5, 55, 59
7, 293769, Note_on_c, 5, 55, 0
7, 294081, Note_on_c, 5, 62, 88
7, 294127, Note_on_c, 5, 62, 0
7, 294271, Note_on_c, 5, 55, 87
7, 294301, Note_on_c, 5, 55, 0
7, 294448, Note_on_c, 5, 59, 67
7, 294490, Note_on_c, 5, 59, 0
7, 294632, Note_on_c, 5, 50, 72
7, 294672, Note_on_c, 5, 50, 0
7, 294810, Note_on_c, 5, 55, 64
7, 294854, Note_on_c, 5, 55, 0
7, 294978, Note_on_c, 5, 50, 66
7, 295031, Note_on_c, 5, 50, 0
7, 295171, Note_on_c, 5, 43, 77
7, 295210, Note_on_c, 5, 43, 0
7, 295562, Note_on_c, 5, 62, 76
7, 295604, Note_on_c, 5, 62, 0
7, 295748, Note_on_c, 5, 55, 79
7, 295778, Note_on_c, 5, 55, 0
7, 295918, Note_on_c, 5, 59, 68
7, 295967, Note_on_c, 5, 59, 0
7, 296112, Note_on_c, 5, 50, 69
7, 296154, Note_on_c, 5, 50, 0
7, 296288, Note_on_c, 5, 43, 83
7, 296344, Note_on_c, 5, 43, 0
7, 296472, Note_on_c, 5, 45, 74
7, 296510, Note_on_c, 5, 45, 0
7, 296691, Note_on_c, 5, 47, 75
7, 296741, Note_on_c, 5, 47, 0
7, 296880, Program_c, 5, 49
7, 297141, Note_on_c, 5, 47, 48
7, 297552, Note_on_c, 5, 48, 58
7, 297656, Note_on_c, 5, 47, 0
7, 298832, Note_on_c, 5, 48, 0
7, 298923, Note_on_c, 5, 48, 61
7, 298983, Note_on_c, 5, 48, 0
7, 299045, Note_on_c, 5, 48, 65
7, 299100, Note_on_c, 5, 48, 0
7, 299156, Note_on_c, 5, 48, 72
7, 299213, Note_on_c, 5, 48, 0
7, 299273, Note_on_c, 5, 48, 68
7, 299441, Note_on_c, 5, 48, 0
7, 299467, Note_on_c, 5, 47, 38
7, 300625, Note_on_c, 5, 47, 0
7, 300638, Note_on_c, 5, 48, 46
7, 301122, Note_on_c, 5, 48, 0
7, 301189, Note_on_c, 5, 48, 62
7, 301237, Note_on_c, 5, 48, 0
7, 301306, Note_on_c, 5, 48, 70
7, 301351, Note_on_c, 5, 48, 0
7, 301423, Note_on_c, 5, 48, 69
7, 301469, Note_on_c, 5, 48, 0
7, 301574, Note_on_c, 5, 48, 68
7, 301634, Note_on_c, 5, 48, 0
7, 301728, Note_on_c, 5, 47, 41
7, 307396, Note_on_c, 5, 47, 0
7, 307440, Program_c, 5, 45
7, 308693, Note_on_c, 5, 59, 85
7, 308722, Note_on_c, 5, 59, 0
7, 308896, Note_on_c, 5, 52, 71
7, 308936, Note_on_c, 5, 52, 0
7, 309069, Note_on_c, 5, 56, 75
7, 309111, Note_on_c, 5, 56, 0
7, 309273, Note_on_c, 5, 47, 69
7, 309311, Note_on_c, 5, 47, 0
7, 309459, Note_on_c, 5, 52, 55
7, 309510, Note_on_c, 5, 52, 0
7, 309648, Note_on_c, 5, 47, 53
7, 309703, Note_on_c, 5, 47, 0
7, 309870, Note_on_c, 5, 40, 71
7, 309924, Note_on_c, 5, 40, 0
7, 310286, Note_on_c, 5, 59, 88
7, 310336, Note_on_c, 5, 59, 0
7, 310480, Note_on_c, 5, 52, 88
7, 310514, Note_on_c, 5, 52, 0
7, 310666, Note_on_c, 5, 56, 88
7, 310705, Note_on_c, 5, 56, 0
7, 310852, Note_on_c, 5, 47, 73
7, 310893, Note_on_c, 5, 47, 0
7, 311034, Note_on_c, 5, 52, 63
7, 311081, Note_on_c, 5, 52, 0
7, 311214, Note_on_c, 5, 47, 68
7, 311241, Note_on_c, 5, 47, 0
7, 311424, Note_on_c, 5, 40, 72
7, 311463, Note_on_c, 5, 40, 0
7, 311839, Note_on_c, 5, 52, 76
7, 311875, Note_on_c, 5, 52, 0
7, 312028, Note_on_c, 5, 45, 94
7, 312061, Note_on_c, 5, 45, 0
7, 312214, Note_on_c, 5, 40, 101
7, 312244, Note_on_c, 5, 40, 0
7, 312581, Note_on_c, 5, 52, 99
7, 312617, Note_on_c, 5, 52, 0
7, 312755, Note_on_c, 5, 47, 111
7, 312791, Note_on_c, 5, 47, 0
7, 312937, Note_on_c, 5, 40, 120
7, 312972, Note_on_c, 5, 40, 0
7, 313200, Program_c, 5, 49
7, 313286, Note_on_c, 5, 50, 124
7, 313623, Note_on_c, 5, 49, 123
7, 313649, Note_on_c, 5, 50, 0
7, 313932, Note_on_c, 5, 48, 125
7, 313946, Note_on_c, 5, 49, 0
7, 314258, Note_on_c, 5, 48, 0
7, 314293, Note_on_c, 5, 47, 125
7, 314525, Note_on_c, 5, 47, 0
7, 315360, Control_c, 5, 11, 100
7, 315792, Note_on_c, 5, 44, 127
7, 315841, Note_on_c, 5, 44, 0
7, 315967, Note_on_c, 5, 45, 122
7, 316010, Note_on_c, 5, 45, 0
7, 316151, Note_on_c, 5, 46, 126
7, 316191, Note_on_c, 5, 46, 0
7, 316334, Note_on_c, 5, 47, 127
7, 316374, Note_on_c, 5, 47, 0
7, 316730, Note_on_c, 5, 47, 127
7, 317184, Note_on_c, 5, 40, 127
7, 317207, Note_on_c, 5, 47, 0
7, 317259, Note_on_c, 5, 40, 0
7, 318000, Program_c, 5, 45
7, 318017, Note_on_c, 5, 47, 70
7, 318019, Note_on_c, 5, 40, 72
7, 318098, Note_on_c, 5, 47, 0
7, 318101, Note_on_c, 5, 40, 0
7, 318668, Note_on_c, 5, 47, 82
7, 318669, Note_on_c, 5, 40, 86
7, 318701, Note_on_c, 5, 47, 0
7, 318702, Note_on_c, 5, 40, 0
7, 318953, Note_on_c, 5, 47, 77
7, 318954, Note_on_c, 5, 40, 76
7, 318987, Note_on_c, 5, 47, 0
7, 318990, Note_on_c, 5, 40, 0
7, 319250, Note_on_c, 5, 40, 83
7, 319252, Note_on_c, 5, 47, 78
7, 319297, Note_on_c, 5, 47, 0
7, 319303, Note_on_c, 5, 40, 0
7, 321840, Program_c, 5, 49
7, 322424, Note_on_c, 5, 52, 126
7, 322615, Note_on_c, 5, 52, 0
7, 323040, Program_c, 5, 45
7, 323073, Note_on_c, 5, 40, 82
7, 323074, Note_on_c, 5, 47, 76
7, 323132, Note_on_c, 5, 47, 0
7, 323137, Note_on_c, 5, 40, 0
7, 323651, Note_on_c, 5, 40, 67
7, 323651, Note_on_c, 5, 47, 59
7, 323696, Note_on_c, 5, 40, 0
7, 323697, Note_on_c, 5, 47, 0
7, 323959, Note_on_c, 5, 40, 68
7, 323960, Note_on_c, 5, 47, 59
7, 323998, Note_on_c, 5, 40, 0
7, 323999, Note_on_c, 5, 47, 0
7, 324270, Note_on_c, 5, 40, 81
7, 324271, Note_on_c, 5, 47, 58
7, 324319, Note_on_c, 5, 47, 0
7, 324321, Note_on_c, 5, 40, 0
7, 325200, Program_c, 5, 49
7, 326247, Note_on_c, 5, 47, 52
7, 327477, Note_on_c, 5, 47, 0
7, 327545, Note_on_c, 5, 40, 55
7, 328194, Note_on_c, 5, 40, 0
7, 328209, Note_on_c, 5, 42, 70
7, 329540, Note_on_c, 5, 44, 88
7, 329577, Note_on_c, 5, 42, 0
7, 330857, Note_on_c, 5, 44, 0
7, 330875, Note_on_c, 5, 45, 99
7, 331530, Note_on_c, 5, 46, 113
7, 331569, Note_on_c, 5, 45, 0
7, 331774, Note_on_c, 5, 46, 0
7, 332292, Note_on_c, 5, 47, 54
7, 333155, Note_on_c, 5, 52, 40
7, 333171, Note_on_c, 5, 47, 0
7, 333538, Note_on_c, 5, 52, 0
7, 333552, Note_on_c, 5, 47, 41
7, 333846, Note_on_c, 5, 50, 54
7, 333879, Note_on_c, 5, 47, 0
7, 334121, Note_on_c, 5, 50, 0
7, 334169, Note_on_c, 5, 45, 50
7, 334465, Note_on_c, 5, 45, 0
7, 334514, Note_on_c, 5, 48, 53
7, 335131, Note_on_c, 5, 47, 56
7, 335132, Note_on_c, 5, 48, 0
7, 335772, Note_on_c, 5, 47, 0
7, 335775, Note_on_c, 5, 52, 58
7, 336064, Note_on_c, 5, 47, 59
7, 336074, Note_on_c, 5, 52, 0
7, 336402, Note_on_c, 5, 50, 46
7, 336422, Note_on_c, 5, 47, 0
7, 336676, Note_on_c, 5, 50, 0
7, 336688, Note_on_c, 5, 45, 47
7, 337002, Note_on_c, 5, 48, 55
7, 337015, Note_on_c, 5, 45, 0
7, 337592, Note_on_c, 5, 47, 59
7, 337632, Note_on_c, 5, 48, 0
7, 338181, Note_on_c, 5, 52, 70
7, 338201, Note_on_c, 5, 47, 0
7, 338293, Note_on_c, 5, 52, 0
7, 338519, Note_on_c, 5, 52, 56
7, 340625, Note_on_c, 5, 52, 0
7, 340893, Note_on_c, 5, 52, 34
7, 343862, Note_on_c, 5, 52, 0
7, 343895, Note_on_c, 5, 44, 51
7, 344220, Note_on_c, 5, 45, 60
7, 344273, Note_on_c, 5, 44, 0
7, 344807, Note_on_c, 5, 47, 65
7, 344848, Note_on_c, 5, 45, 0
7, 345421, Note_on_c, 5, 52, 67
7, 345427, Note_on_c, 5, 47, 0
7, 346296, Note_on_c, 5, 52, 0
7, 346312, Note_on_c, 5, 56, 71
7, 346592, Note_on_c, 5, 57, 59
7, 346626, Note_on_c, 5, 56, 0
7, 347215, Note_on_c, 5, 59, 63
7, 347247, Note_on_c, 5, 57, 0
7, 347577, Note_on_c, 5, 59, 0
7, 347849, Program_c, 5, 45
7, 347849, Note_on_c, 5, 52, 66
7, 347886, Note_on_c, 5, 52, 0
7, 348019, Note_on_c, 5, 54, 59
7, 348050, Note_on_c, 5, 54, 0
7, 348152, Note_on_c, 5, 47, 59
7, 348210, Note_on_c, 5, 47, 0
7, 348305, Note_on_c, 5, 51, 76
7, 348343, Note_on_c, 5, 51, 0
7, 348441, Note_on_c, 5, 52, 50
7, 348478, Note_on_c, 5, 52, 0
7, 348604, Note_on_c, 5, 54, 64
7, 348641, Note_on_c, 5, 54, 0
7, 348741, Note_on_c, 5, 47, 63
7, 348795, Note_on_c, 5, 47, 0
7, 348890, Note_on_c, 5, 51, 76
7, 348933, Note_on_c, 5, 51, 0
7, 349029, Note_on_c, 5, 52, 63
7, 349075, Note_on_c, 5, 52, 0
7, 349168, Note_on_c, 5, 51, 76
7, 349215, Note_on_c, 5, 51, 0
7, 349300, Note_on_c, 5, 49, 72
7, 349356, Note_on_c, 5, 49, 0
7, 349452, Note_on_c, 5, 47, 62
7, 349507, Note_on_c, 5, 47, 0
7, 349619, Note_on_c, 5, 45, 61
7, 349673, Note_on_c, 5, 45, 0
7, 349899, Note_on_c, 5, 47, 68
7, 349947, Note_on_c, 5, 47, 0
7, 350203, Note_on_c, 5, 52, 55
7, 350232, Note_on_c, 5, 52, 0
7, 350346, Note_on_c, 5, 54, 61
7, 350380, Note_on_c, 5, 54, 0
7, 350478, Note_on_c, 5, 47, 64
7, 350530, Note_on_c, 5, 47, 0
7, 350631, Note_on_c, 5, 51, 73
7, 350675, Note_on_c, 5, 51, 0
7, 350781, Note_on_c, 5, 52, 77
7, 350822, Note_on_c, 5, 52, 0
7, 350925, Note_on_c, 5, 54, 63
7, 350976, Note_on_c, 5, 54, 0
7, 351058, Note_on_c, 5, 47, 63
7, 351105, Note_on_c, 5, 47, 0
7, 351209, Note_on_c, 5, 51, 75
7, 351249, Note_on_c, 5, 51, 0
7, 351374, Note_on_c, 5, 52, 55
7, 351410, Note_on_c, 5, 52, 0
7, 351652, Note_on_c, 5, 49, 73
7, 351692, Note_on_c, 5, 49, 0
7, 351949, Note_on_c, 5, 45, 62
7, 351999, Note_on_c, 5, 45, 0
7, 352243, Note_on_c, 5, 47, 65
7, 352281, Note_on_c, 5, 47, 0
7, 352320, Program_c, 5, 49
7, 352551, Note_on_c, 5, 52, 91
7, 355200, Control_c, 5, 11, 100
7, 355205, Control_c, 5, 11, 96
7, 355210, Control_c, 5, 11, 93
7, 355215, Control_c, 5, 11, 91
7, 355220, Control_c, 5, 11, 89
7, 355225, Control_c, 5, 11, 86
7, 355230, Control_c, 5, 11, 84
7, 355235, Control_c, 5, 11, 83
7, 355240, Control_c, 5, 11, 80
7, 355245, Control_c, 5, 11, 78
7, 355250, Control_c, 5, 11, 77
7, 355255, Control_c, 5, 11, 75
7, 355260, Control_c, 5, 11, 74
7, 355265, Control_c, 5, 11, 73
7, 355270, Control_c, 5, 11, 71
7, 355275, Control_c, 5, 11, 70
7, 355280, Control_c, 5, 11, 69
7, 355285, Control_c, 5, 11, 68
7, 355290, Control_c, 5, 11, 67
7, 355295, Control_c, 5, 11, 66
7, 355300, Control_c, 5, 11, 65
7, 355305, Control_c, 5, 11, 64
7, 355310, Control_c, 5, 11, 63
7, 355315, Control_c, 5, 11, 62
7, 355325, Control_c, 5, 11, 61
7, 355330, Control_c, 5, 11, 60
7, 355340, Control_c, 5, 11, 59
7, 355350, Control_c, 5, 11, 58
7, 355360, Control_c, 5, 11, 57
7, 355370, Control_c, 5, 11, 56
7, 355385, Control_c, 5, 11, 55
7, 355400, Control_c, 5, 11, 54
7, 355420, Control_c, 5, 11, 53
7, 355440, Control_c, 5, 11, 52
7, 355475, Control_c, 5, 11, 51
7, 355525, Control_c, 5, 11, 50
7, 355550, Control_c, 5, 11, 51
7, 355570, Control_c, 5, 11, 52
7, 355595, Control_c, 5, 11, 53
7, 355615, Control_c, 5, 11, 54
7, 355640, Control_c, 5, 11, 55
7, 355660, Control_c, 5, 11, 56
7, 355685, Control_c, 5, 11, 57
7, 355705, Control_c, 5, 11, 58
7, 355730, Control_c, 5, 11, 59
7, 355750, Control_c, 5, 11, 60
7, 355775, Control_c, 5, 11, 61
7, 355795, Control_c, 5, 11, 62
7, 355815, Control_c, 5, 11, 63
7, 355840, Control_c, 5, 11, 64
7, 355860, Control_c, 5, 11, 65
7, 355885, Control_c, 5, 11, 66
7, 355905, Control_c, 5, 11, 67
7, 355930, Control_c, 5, 11, 68
7, 355950, Control_c, 5, 11, 69
7, 355975, Control_c, 5, 11, 70
7, 355995, Control_c, 5, 11, 71
7, 356020, Control_c, 5, 11, 72
7, 356040, Control_c, 5, 11, 73
7, 356060, Control_c, 5, 11, 74
7, 356085, Control_c, 5, 11, 75
7, 356105, Control_c, 5, 11, 76
7, 356130, Control_c, 5, 11, 77
7, 356150, Control_c, 5, 11, 78
7, 356175, Control_c, 5, 11, 79
7, 356195, Control_c, 5, 11, 80
7, 356220, Control_c, 5, 11, 81
7, 356240, Control_c, 5, 11, 82
7, 356265, Control_c, 5, 11, 83
7, 356285, Control_c, 5, 11, 84
7, 356305, Control_c, 5, 11, 85
7, 356330, Control_c, 5, 11, 86
7, 356350, Control_c, 5, 11, 87
7, 356375, Control_c, 5, 11, 88
7, 356395, Control_c, 5, 11, 89
7, 356420, Control_c, 5, 11, 90
7, 356440, Control_c, 5, 11, 91
7, 356465, Control_c, 5, 11, 92
7, 356485, Control_c, 5, 11, 93
7, 356510, Control_c, 5, 11, 94
7, 356530, Control_c, 5, 11, 95
7, 356550, Control_c, 5, 11, 96
7, 356575, Control_c, 5, 11, 97
7, 356595, Control_c, 5, 11, 98
7, 356620, Control_c, 5, 11, 99
7, 356640, Control_c, 5, 11, 100
7, 356840, Note_on_c, 5, 52, 0
7, 357206, Note_on_c, 5, 52, 127
7, 357242, Note_on_c, 5, 52, 0
7, 357283, Note_on_c, 5, 52, 127
7, 357634, Note_on_c, 5, 52, 0
7, 357745, Note_on_c, 5, 52, 127
7, 358057, Note_on_c, 5, 52, 0
7, 358284, Note_on_c, 5, 52, 127
7, 358330, Note_on_c, 5, 52, 0
7, 358365, Note_on_c, 5, 52, 126
7, 360457, Note_on_c, 5, 52, 0
7, 361440, End_track
8, 0, Start_track
8, 0, Title_t, "Contrabassi"
8, 0, MIDI_port, 0
8, 100, Control_c, 6, 0, 0
8, 120, Control_c, 6, 32, 0
8, 140, Program_c, 6, 49
8, 160, Control_c, 6, 10, 94
8, 180, Control_c, 6, 7, 100
8, 200, Control_c, 6, 11, 100
8, 220, Control_c, 6, 1, 19
8, 240, Control_c, 6, 91, 60
8, 260, Control_c, 6, 93, 38
8, 280, Control_c, 6, 101, 0
8, 300, Control_c, 6, 100, 0
8, 320, Control_c, 6, 6, 12
8, 340, Pitch_bend_c, 6, 8208
8, 360, Control_c, 6, 99, 1
8, 380, Control_c, 6, 98, 32
8, 400, Control_c, 6, 6, 62
8, 420, Control_c, 6, 98, 33
8, 440, Control_c, 6, 6, 60
8, 460, Control_c, 6, 98, 99
8, 480, Control_c, 6, 6, 57
8, 500, Control_c, 6, 98, 100
8, 520, Control_c, 6, 6, 64
8, 540, Control_c, 6, 98, 102
8, 560, Control_c, 6, 6, 66
8, 580, Control_c, 6, 99, 1
8, 600, Control_c, 6, 98, 8
8, 620, Control_c, 6, 6, 90
8, 640, Control_c, 6, 98, 9
8, 660, Control_c, 6, 6, 50
8, 680, Control_c, 6, 98, 10
8, 705, Control_c, 6, 6, 70
8, 1512, Note_on_c, 6, 37, 120
8, 1557, Note_on_c, 6, 37, 0
8, 1658, Note_on_c, 6, 39, 115
8, 1714, Note_on_c, 6, 39, 0
8, 1815, Note_on_c, 6, 32, 121
8, 1897, Note_on_c, 6, 32, 0
8, 3886, Note_on_c, 6, 37, 127
8, 3922, Note_on_c, 6, 37, 0
8, 4033, Note_on_c, 6, 39, 125
8, 4098, Note_on_c, 6, 39, 0
8, 4193, Note_on_c, 6, 32, 120
8, 4301, Note_on_c, 6, 32, 0
8, 6259, Note_on_c, 6, 37, 119
8, 6291, Note_on_c, 6, 37, 0
8, 6408, Note_on_c, 6, 39, 119
8, 6472, Note_on_c, 6, 39, 0
8, 6564, Note_on_c, 6, 32, 116
8, 7150, Note_on_c, 6, 44, 118
8, 7152, Note_on_c, 6, 32, 0
8, 7291, Note_on_c, 6, 44, 0
8, 7442, Note_on_c, 6, 37, 116
8, 7476, Note_on_c, 6, 37, 0
8, 7581, Note_on_c, 6, 39, 120
8, 7635, Note_on_c, 6, 39, 0
8, 7743, Note_on_c, 6, 32, 116
8, 8293, Note_on_c, 6, 32, 0
8, 8313, Note_on_c, 6, 37, 110
8, 8436, Note_on_c, 6, 37, 0
8, 8603, Note_on_c, 6, 45, 106
8, 8641, Note_on_c, 6, 45, 0
8, 8733, Note_on_c, 6, 47, 100
8, 8779, Note_on_c, 6, 47, 0
8, 8901, Note_on_c, 6, 40, 89
8, 9365, Note_on_c, 6, 40, 0
8, 9600, Program_c, 6, 45
8, 9820, Note_on_c, 6, 40, 76
8, 9857, Note_on_c, 6, 40, 0
8, 10131, Note_on_c, 6, 47, 65
8, 10158, Note_on_c, 6, 47, 0
8, 10461, Note_on_c, 6, 40, 67
8, 10487, Note_on_c, 6, 40, 0
8, 10671, Note_on_c, 6, 47, 51
8, 10698, Note_on_c, 6, 47, 0
8, 10861, Note_on_c, 6, 40, 57
8, 10887, Note_on_c, 6, 40, 0
8, 11040, Note_on_c, 6, 47, 60
8, 11061, Note_on_c, 6, 47, 0
8, 11298, Note_on_c, 6, 40, 65
8, 11331, Note_on_c, 6, 40, 0
8, 15840, Control_c, 6, 11, 80
8, 18109, Note_on_c, 6, 35, 77
8, 18141, Note_on_c, 6, 35, 0
8, 20400, Program_c, 6, 49
8, 20551, Note_on_c, 6, 42, 76
8, 20880, Note_on_c, 6, 35, 64
8, 20885, Note_on_c, 6, 42, 0
8, 21365, Note_on_c, 6, 35, 0
8, 21379, Note_on_c, 6, 37, 54
8, 21615, Note_on_c, 6, 37, 0
8, 27342, Note_on_c, 6, 35, 65
8, 28875, Note_on_c, 6, 35, 0
8, 31617, Note_on_c, 6, 35, 40
8, 34395, Note_on_c, 6, 40, 71
8, 34454, Note_on_c, 6, 35, 0
8, 34535, Note_on_c, 6, 40, 0
8, 36240, Program_c, 6, 45
8, 36254, Note_on_c, 6, 47, 82
8, 36287, Note_on_c, 6, 47, 0
8, 36480, Program_c, 6, 49
8, 39403, Note_on_c, 6, 42, 88
8, 39700, Note_on_c, 6, 47, 74
8, 39737, Note_on_c, 6, 42, 0
8, 39973, Note_on_c, 6, 47, 0
8, 40013, Note_on_c, 6, 42, 107
8, 40300, Note_on_c, 6, 47, 89
8, 40330, Note_on_c, 6, 42, 0
8, 40549, Note_on_c, 6, 47, 0
8, 40627, Note_on_c, 6, 49, 105
8, 40924, Note_on_c, 6, 51, 92
8, 40947, Note_on_c, 6, 49, 0
8, 41231, Note_on_c, 6, 51, 0
8, 41250, Note_on_c, 6, 39, 92
8, 41962, Note_on_c, 6, 40, 93
8, 41970, Note_on_c, 6, 39, 0
8, 42055, Note_on_c, 6, 40, 0
8, 42191, Note_on_c, 6, 42, 103
8, 42241, Note_on_c, 6, 42, 0
8, 42469, Note_on_c, 6, 35, 87
8, 42616, Note_on_c, 6, 35, 0
8, 44447, Control_c, 6, 11, 100
8, 44447, Note_on_c, 6, 40, 125
8, 44485, Note_on_c, 6, 40, 0
8, 44616, Note_on_c, 6, 37, 121
8, 44937, Note_on_c, 6, 39, 113
8, 44955, Note_on_c, 6, 37, 0
8, 44991, Note_on_c, 6, 39, 0
8, 45109, Note_on_c, 6, 40, 114
8, 45157, Note_on_c, 6, 40, 0
8, 45271, Note_on_c, 6, 42, 114
8, 45314, Note_on_c, 6, 42, 0
8, 45438, Note_on_c, 6, 30, 109
8, 45506, Note_on_c, 6, 30, 0
8, 45601, Note_on_c, 6, 35, 112
8, 45649, Note_on_c, 6, 35, 0
8, 45777, Note_on_c, 6, 35, 108
8, 45826, Note_on_c, 6, 35, 0
8, 45957, Note_on_c, 6, 42, 113
8, 46264, Note_on_c, 6, 42, 0
8, 46280, Note_on_c, 6, 44, 114
8, 46319, Note_on_c, 6, 44, 0
8, 46453, Note_on_c, 6, 45, 113
8, 46507, Note_on_c, 6, 45, 0
8, 46611, Note_on_c, 6, 47, 114
8, 46671, Note_on_c, 6, 47, 0
8, 46784, Note_on_c, 6, 35, 121
8, 46834, Note_on_c, 6, 35, 0
8, 46936, Note_on_c, 6, 40, 121
8, 46969, Note_on_c, 6, 40, 0
8, 47097, Note_on_c, 6, 40, 122
8, 47133, Note_on_c, 6, 40, 0
8, 47288, Note_on_c, 6, 33, 93
8, 47476, Note_on_c, 6, 33, 0
8, 47644, Note_on_c, 6, 40, 113
8, 47681, Note_on_c, 6, 40, 0
8, 47816, Note_on_c, 6, 40, 120
8, 47849, Note_on_c, 6, 40, 0
8, 47992, Note_on_c, 6, 33, 114
8, 48170, Note_on_c, 6, 33, 0
8, 48346, Note_on_c, 6, 40, 116
8, 48381, Note_on_c, 6, 40, 0
8, 48510, Note_on_c, 6, 40, 106
8, 48547, Note_on_c, 6, 40, 0
8, 48682, Note_on_c, 6, 40, 108
8, 48721, Note_on_c, 6, 40, 0
8, 48848, Note_on_c, 6, 40, 107
8, 48887, Note_on_c, 6, 40, 0
8, 49012, Note_on_c, 6, 39, 116
8, 49047, Note_on_c, 6, 39, 0
8, 49170, Note_on_c, 6, 39, 123
8, 49205, Note_on_c, 6, 39, 0
8, 49336, Note_on_c, 6, 39, 124
8, 49373, Note_on_c, 6, 39, 0
8, 49495, Note_on_c, 6, 39, 127
8, 49527, Note_on_c, 6, 39, 0
8, 49664, Note_on_c, 6, 44, 121
8, 49685, Note_on_c, 6, 43, 38
8, 49697, Note_on_c, 6, 44, 0
8, 49705, Note_on_c, 6, 43, 0
8, 49835, Note_on_c, 6, 44, 118
8, 49864, Note_on_c, 6, 44, 0
8, 50009, Note_on_c, 6, 44, 127
8, 50041, Note_on_c, 6, 44, 0
8, 50170, Note_on_c, 6, 44, 127
8, 50202, Note_on_c, 6, 44, 0
8, 50346, Note_on_c, 6, 44, 127
8, 50744, Note_on_c, 6, 44, 0
8, 51366, Note_on_c, 6, 44, 115
8, 51399, Note_on_c, 6, 44, 0
8, 51545, Note_on_c, 6, 44, 127
8, 51588, Note_on_c, 6, 44, 0
8, 51719, Note_on_c, 6, 44, 125
8, 52139, Note_on_c, 6, 44, 0
8, 52828, Note_on_c, 6, 35, 127
8, 52861, Note_on_c, 6, 35, 0
8, 52996, Note_on_c, 6, 35, 127
8, 53033, Note_on_c, 6, 35, 0
8, 53165, Control_c, 6, 11, 100
8, 53165, Note_on_c, 6, 35, 127
8, 53285, Control_c, 6, 11, 87
8, 53290, Control_c, 6, 11, 78
8, 53295, Control_c, 6, 11, 70
8, 53300, Control_c, 6, 11, 63
8, 53305, Control_c, 6, 11, 58
8, 53310, Control_c, 6, 11, 53
8, 53315, Control_c, 6, 11, 49
8, 53320, Control_c, 6, 11, 46
8, 53325, Control_c, 6, 11, 43
8, 53330, Control_c, 6, 11, 41
8, 53335, Control_c, 6, 11, 39
8, 53340, Control_c, 6, 11, 37
8, 53345, Control_c, 6, 11, 36
8, 53350, Control_c, 6, 11, 35
8, 53355, Control_c, 6, 11, 34
8, 53360, Control_c, 6, 11, 33
8, 53370, Control_c, 6, 11, 32
8, 53380, Control_c, 6, 11, 31
8, 53400, Control_c, 6, 11, 30
8, 53535, Control_c, 6, 11, 31
8, 53580, Control_c, 6, 11, 32
8, 53605, Control_c, 6, 11, 33
8, 53625, Control_c, 6, 11, 34
8, 53640, Control_c, 6, 11, 35
8, 53650, Control_c, 6, 11, 36
8, 53660, Control_c, 6, 11, 37
8, 53675, Control_c, 6, 11, 38
8, 53680, Control_c, 6, 11, 39
8, 53685, Control_c, 6, 11, 40
8, 53695, Control_c, 6, 11, 41
8, 53700, Control_c, 6, 11, 42
8, 53705, Control_c, 6, 11, 43
8, 53710, Control_c, 6, 11, 44
8, 53715, Control_c, 6, 11, 45
8, 53720, Control_c, 6, 11, 46
8, 53725, Control_c, 6, 11, 48
8, 53730, Control_c, 6, 11, 49
8, 53735, Control_c, 6, 11, 51
8, 53740, Control_c, 6, 11, 52
8, 53745, Control_c, 6, 11, 54
8, 53750, Control_c, 6, 11, 56
8, 53752, Note_on_c, 6, 35, 0
8, 53755, Control_c, 6, 11, 58
8, 53760, Control_c, 6, 11, 60
8, 53765, Control_c, 6, 11, 62
8, 53770, Control_c, 6, 11, 65
8, 53775, Control_c, 6, 11, 68
8, 53780, Control_c, 6, 11, 70
8, 53785, Control_c, 6, 11, 74
8, 53790, Control_c, 6, 11, 77
8, 53795, Control_c, 6, 11, 80
8, 53800, Control_c, 6, 11, 84
8, 53805, Control_c, 6, 11, 88
8, 53810, Control_c, 6, 11, 92
8, 53815, Control_c, 6, 11, 99
8, 53817, Control_c, 6, 11, 100
8, 53817, Note_on_c, 6, 40, 83
8, 53851, Note_on_c, 6, 40, 0
8, 53966, Note_on_c, 6, 35, 93
8, 54000, Note_on_c, 6, 35, 0
8, 54121, Note_on_c, 6, 42, 100
8, 54158, Note_on_c, 6, 42, 0
8, 54260, Note_on_c, 6, 35, 100
8, 54297, Note_on_c, 6, 35, 0
8, 54411, Note_on_c, 6, 40, 111
8, 54451, Note_on_c, 6, 40, 0
8, 54554, Note_on_c, 6, 35, 112
8, 54591, Note_on_c, 6, 35, 0
8, 54709, Note_on_c, 6, 42, 116
8, 54747, Note_on_c, 6, 42, 0
8, 54859, Note_on_c, 6, 35, 109
8, 54892, Note_on_c, 6, 35, 0
8, 55017, Note_on_c, 6, 40, 120
8, 55057, Note_on_c, 6, 40, 0
8, 55167, Note_on_c, 6, 35, 107
8, 55202, Note_on_c, 6, 35, 0
8, 55328, Note_on_c, 6, 35, 80
8, 55367, Note_on_c, 6, 35, 0
8, 55495, Note_on_c, 6, 35, 97
8, 55528, Note_on_c, 6, 35, 0
8, 55646, Note_on_c, 6, 35, 103
8, 55684, Note_on_c, 6, 35, 0
8, 55796, Note_on_c, 6, 35, 108
8, 55834, Note_on_c, 6, 35, 0
8, 55949, Note_on_c, 6, 35, 117
8, 55988, Note_on_c, 6, 35, 0
8, 56099, Note_on_c, 6, 35, 120
8, 56144, Note_on_c, 6, 35, 0
8, 56244, Note_on_c, 6, 35, 124
8, 56319, Note_on_c, 6, 35, 0
8, 56402, Note_on_c, 6, 35, 122
8, 56560, Note_on_c, 6, 47, 127
8, 56584, Note_on_c, 6, 35, 0
8, 56592, Note_on_c, 6, 47, 0
8, 56721, Note_on_c, 6, 35, 109
8, 57032, Note_on_c, 6, 35, 0
8, 57061, Note_on_c, 6, 35, 118
8, 57106, Note_on_c, 6, 35, 0
8, 57218, Note_on_c, 6, 35, 127
8, 57265, Note_on_c, 6, 35, 0
8, 57390, Note_on_c, 6, 35, 118
8, 57600, Control_c, 6, 11, 100
8, 57605, Control_c, 6, 11, 96
8, 57610, Control_c, 6, 11, 93
8, 57615, Control_c, 6, 11, 91
8, 57620, Control_c, 6, 11, 89
8, 57625, Control_c, 6, 11, 86
8, 57630, Control_c, 6, 11, 84
8, 57635, Control_c, 6, 11, 83
8, 57640, Control_c, 6, 11, 80
8, 57645, Control_c, 6, 11, 78
8, 57650, Control_c, 6, 11, 77
8, 57655, Control_c, 6, 11, 75
8, 57660, Control_c, 6, 11, 74
8, 57665, Control_c, 6, 11, 73
8, 57670, Control_c, 6, 11, 71
8, 57675, Control_c, 6, 11, 70
8, 57680, Control_c, 6, 11, 69
8, 57685, Control_c, 6, 11, 68
8, 57690, Control_c, 6, 11, 67
8, 57695, Control_c, 6, 11, 66
8, 57700, Control_c, 6, 11, 65
8, 57705, Control_c, 6, 11, 64
8, 57710, Control_c, 6, 11, 63
8, 57715, Control_c, 6, 11, 62
8, 57725, Control_c, 6, 11, 61
8, 57730, Control_c, 6, 11, 60
8, 57740, Control_c, 6, 11, 59
8, 57750, Control_c, 6, 11, 58
8, 57760, Control_c, 6, 11, 57
8, 57770, Control_c, 6, 11, 56
8, 57785, Control_c, 6, 11, 55
8, 57800, Control_c, 6, 11, 54
8, 57820, Control_c, 6, 11, 53
8, 57840, Control_c, 6, 11, 52
8, 57875, Control_c, 6, 11, 51
8, 57925, Control_c, 6, 11, 50
8, 58338, Note_on_c, 6, 35, 0
8, 58372, Note_on_c, 6, 35, 78
8, 60652, Note_on_c, 6, 40, 77
8, 60701, Note_on_c, 6, 35, 0
8, 60810, Note_on_c, 6, 40, 0
8, 63120, Control_c, 6, 11, 100
8, 63199, Note_on_c, 6, 40, 69
8, 65040, Note_on_c, 6, 40, 0
8, 65052, Note_on_c, 6, 47, 100
8, 65364, Note_on_c, 6, 40, 90
8, 65376, Note_on_c, 6, 47, 0
8, 65404, Note_on_c, 6, 40, 0
8, 65519, Note_on_c, 6, 40, 124
8, 65564, Note_on_c, 6, 40, 0
8, 65689, Note_on_c, 6, 49, 125
8, 65725, Note_on_c, 6, 49, 0
8, 65856, Note_on_c, 6, 47, 127
8, 65898, Note_on_c, 6, 47, 0
8, 66277, Note_on_c, 6, 45, 126
8, 66333, Note_on_c, 6, 45, 0
8, 66450, Note_on_c, 6, 44, 127
8, 66488, Note_on_c, 6, 44, 0
8, 66914, Note_on_c, 6, 49, 127
8, 66957, Note_on_c, 6, 49, 0
8, 67065, Note_on_c, 6, 47, 127
8, 67122, Note_on_c, 6, 47, 0
8, 67510, Note_on_c, 6, 45, 127
8, 67549, Note_on_c, 6, 45, 0
8, 67674, Note_on_c, 6, 44, 127
8, 67707, Note_on_c, 6, 44, 0
8, 69465, Note_on_c, 6, 40, 96
8, 69613, Note_on_c, 6, 40, 0
8, 69768, Note_on_c, 6, 42, 96
8, 69936, Note_on_c, 6, 42, 0
8, 70082, Note_on_c, 6, 35, 100
8, 70377, Note_on_c, 6, 35, 0
8, 70594, Note_on_c, 6, 47, 124
8, 70633, Note_on_c, 6, 47, 0
8, 70760, Note_on_c, 6, 44, 126
8, 70822, Note_on_c, 6, 44, 0
8, 70919, Note_on_c, 6, 49, 125
8, 70959, Note_on_c, 6, 49, 0
8, 71080, Note_on_c, 6, 42, 112
8, 71142, Note_on_c, 6, 44, 110
8, 71150, Note_on_c, 6, 42, 0
8, 71214, Note_on_c, 6, 44, 0
8, 71217, Note_on_c, 6, 42, 110
8, 71268, Note_on_c, 6, 42, 0
8, 71285, Note_on_c, 6, 41, 107
8, 71335, Note_on_c, 6, 41, 0
8, 71374, Note_on_c, 6, 42, 118
8, 71416, Note_on_c, 6, 42, 0
8, 71531, Note_on_c, 6, 47, 114
8, 71581, Note_on_c, 6, 47, 0
8, 71694, Note_on_c, 6, 40, 125
8, 71851, Note_on_c, 6, 40, 0
8, 71864, Note_on_c, 6, 42, 95
8, 71917, Note_on_c, 6, 44, 98
8, 71921, Note_on_c, 6, 42, 0
8, 71970, Note_on_c, 6, 44, 0
8, 72005, Note_on_c, 6, 45, 114
8, 72046, Note_on_c, 6, 45, 0
8, 72165, Note_on_c, 6, 45, 112
8, 72211, Note_on_c, 6, 45, 0
8, 72319, Note_on_c, 6, 47, 109
8, 72359, Note_on_c, 6, 47, 0
8, 72475, Note_on_c, 6, 35, 125
8, 72522, Note_on_c, 6, 35, 0
8, 72626, Note_on_c, 6, 40, 125
8, 72661, Note_on_c, 6, 40, 0
8, 72790, Note_on_c, 6, 35, 127
8, 72842, Note_on_c, 6, 35, 0
8, 73104, Note_on_c, 6, 35, 124
8, 73149, Note_on_c, 6, 35, 0
8, 73270, Note_on_c, 6, 37, 121
8, 73347, Note_on_c, 6, 37, 0
8, 73429, Note_on_c, 6, 49, 123
8, 73478, Note_on_c, 6, 49, 0
8, 73595, Note_on_c, 6, 42, 98
8, 73655, Note_on_c, 6, 42, 0
8, 73655, Note_on_c, 6, 44, 98
8, 73714, Note_on_c, 6, 42, 90
8, 73725, Note_on_c, 6, 44, 0
8, 73779, Note_on_c, 6, 41, 98
8, 73808, Note_on_c, 6, 42, 0
8, 73849, Note_on_c, 6, 41, 0
8, 73876, Note_on_c, 6, 42, 115
8, 73917, Note_on_c, 6, 42, 0
8, 74032, Note_on_c, 6, 47, 114
8, 74088, Note_on_c, 6, 47, 0
8, 74190, Note_on_c, 6, 40, 122
8, 74345, Note_on_c, 6, 40, 0
8, 74351, Note_on_c, 6, 42, 94
8, 74406, Note_on_c, 6, 44, 98
8, 74422, Note_on_c, 6, 42, 0
8, 74466, Note_on_c, 6, 44, 0
8, 74484, Note_on_c, 6, 45, 114
8, 74536, Note_on_c, 6, 45, 0
8, 74646, Note_on_c, 6, 39, 116
8, 74685, Note_on_c, 6, 39, 0
8, 74796, Note_on_c, 6, 44, 114
8, 74847, Note_on_c, 6, 44, 0
8, 74942, Note_on_c, 6, 37, 107
8, 74983, Note_on_c, 6, 37, 0
8, 75096, Note_on_c, 6, 42, 100
8, 75132, Note_on_c, 6, 42, 0
8, 75254, Note_on_c, 6, 35, 127
8, 75490, Note_on_c, 6, 35, 0
8, 75567, Note_on_c, 6, 35, 106
8, 75586, Note_on_c, 6, 35, 0
8, 75612, Note_on_c, 6, 35, 102
8, 75682, Note_on_c, 6, 35, 0
8, 75693, Note_on_c, 6, 40, 117
8, 75740, Note_on_c, 6, 40, 0
8, 75869, Note_on_c, 6, 35, 125
8, 76089, Note_on_c, 6, 35, 0
8, 76179, Note_on_c, 6, 35, 113
8, 76214, Note_on_c, 6, 35, 0
8, 76247, Note_on_c, 6, 35, 111
8, 76298, Note_on_c, 6, 35, 0
8, 76311, Note_on_c, 6, 40, 109
8, 76348, Note_on_c, 6, 40, 0
8, 76493, Note_on_c, 6, 35, 124
8, 76713, Note_on_c, 6, 35, 0
8, 76803, Note_on_c, 6, 35, 107
8, 76835, Note_on_c, 6, 35, 0
8, 76859, Note_on_c, 6, 35, 113
8, 76917, Note_on_c, 6, 35, 0
8, 76938, Note_on_c, 6, 40, 122
8, 76977, Note_on_c, 6, 40, 0
8, 77118, Note_on_c, 6, 40, 127
8, 77404, Note_on_c, 6, 40, 0
8, 77445, Note_on_c, 6, 40, 126
8, 77595, Note_on_c, 6, 40, 0
8, 77616, Note_on_c, 6, 40, 118
8, 77677, Note_on_c, 6, 40, 0
8, 77767, Note_on_c, 6, 40, 126
8, 77808, Note_on_c, 6, 40, 0
8, 79892, Note_on_c, 6, 49, 120
8, 79907, Note_on_c, 6, 51, 99
8, 79927, Note_on_c, 6, 49, 0
8, 79961, Note_on_c, 6, 49, 81
8, 79979, Note_on_c, 6, 51, 0
8, 80036, Note_on_c, 6, 49, 0
8, 80044, Note_on_c, 6, 47, 118
8, 80097, Note_on_c, 6, 47, 0
8, 80210, Note_on_c, 6, 45, 118
8, 80248, Note_on_c, 6, 45, 0
8, 80364, Note_on_c, 6, 44, 116
8, 80405, Note_on_c, 6, 44, 0
8, 80523, Note_on_c, 6, 42, 120
8, 80548, Note_on_c, 6, 44, 98
8, 80557, Note_on_c, 6, 42, 0
8, 80586, Note_on_c, 6, 42, 90
8, 80623, Note_on_c, 6, 42, 0
8, 80652, Note_on_c, 6, 42, 90
8, 80658, Note_on_c, 6, 44, 0
8, 80700, Note_on_c, 6, 44, 109
8, 80717, Note_on_c, 6, 42, 0
8, 80794, Note_on_c, 6, 44, 0
8, 80880, Note_on_c, 6, 37, 127
8, 80966, Note_on_c, 6, 37, 0
8, 84257, Program_c, 6, 45
8, 84257, Note_on_c, 6, 44, 74
8, 84298, Note_on_c, 6, 44, 0
8, 84609, Note_on_c, 6, 37, 74
8, 84645, Note_on_c, 6, 37, 0
8, 86865, Note_on_c, 6, 44, 52
8, 86890, Note_on_c, 6, 44, 0
8, 87192, Note_on_c, 6, 37, 54
8, 87221, Note_on_c, 6, 37, 0
8, 88150, Program_c, 6, 49
8, 88150, Note_on_c, 6, 43, 69
8, 88459, Note_on_c, 6, 42, 70
8, 88505, Note_on_c, 6, 43, 0
8, 88727, Note_on_c, 6, 42, 0
8, 89040, Program_c, 6, 45
8, 89462, Note_on_c, 6, 42, 74
8, 89486, Note_on_c, 6, 42, 0
8, 89813, Note_on_c, 6, 35, 74
8, 89841, Note_on_c, 6, 35, 0
8, 91996, Program_c, 6, 49
8, 91996, Note_on_c, 6, 42, 55
8, 92333, Note_on_c, 6, 42, 0
8, 92334, Note_on_c, 6, 35, 65
8, 92646, Note_on_c, 6, 39, 76
8, 92729, Note_on_c, 6, 35, 0
8, 92951, Note_on_c, 6, 42, 68
8, 93026, Note_on_c, 6, 39, 0
8, 93282, Note_on_c, 6, 34, 85
8, 93330, Note_on_c, 6, 42, 0
8, 93602, Note_on_c, 6, 32, 90
8, 93654, Note_on_c, 6, 34, 0
8, 94320, Note_on_c, 6, 34, 85
8, 94412, Note_on_c, 6, 32, 0
8, 94924, Note_on_c, 6, 39, 77
8, 94954, Note_on_c, 6, 34, 0
8, 95226, Note_on_c, 6, 39, 0
8, 95827, Note_on_c, 6, 44, 63
8, 96154, Note_on_c, 6, 45, 84
8, 96218, Note_on_c, 6, 44, 0
8, 98635, Note_on_c, 6, 45, 0
8, 101093, Control_c, 6, 11, 60
8, 101093, Note_on_c, 6, 40, 86
8, 101158, Control_c, 6, 11, 61
8, 101223, Control_c, 6, 11, 62
8, 101288, Control_c, 6, 11, 63
8, 101353, Control_c, 6, 11, 64
8, 101418, Control_c, 6, 11, 65
8, 101483, Control_c, 6, 11, 66
8, 101548, Control_c, 6, 11, 67
8, 101613, Control_c, 6, 11, 68
8, 101678, Control_c, 6, 11, 69
8, 101743, Control_c, 6, 11, 70
8, 101808, Control_c, 6, 11, 71
8, 101873, Control_c, 6, 11, 72
8, 101938, Control_c, 6, 11, 73
8, 102003, Control_c, 6, 11, 74
8, 102063, Control_c, 6, 11, 75
8, 102128, Control_c, 6, 11, 76
8, 102193, Control_c, 6, 11, 77
8, 102258, Control_c, 6, 11, 78
8, 102323, Control_c, 6, 11, 79
8, 102388, Control_c, 6, 11, 80
8, 102453, Control_c, 6, 11, 81
8, 102518, Control_c, 6, 11, 82
8, 102583, Control_c, 6, 11, 83
8, 102648, Control_c, 6, 11, 84
8, 102713, Control_c, 6, 11, 85
8, 102778, Control_c, 6, 11, 86
8, 102843, Control_c, 6, 11, 87
8, 102908, Control_c, 6, 11, 88
8, 102968, Control_c, 6, 11, 89
8, 103033, Control_c, 6, 11, 90
8, 103098, Control_c, 6, 11, 91
8, 103163, Control_c, 6, 11, 92
8, 103228, Control_c, 6, 11, 93
8, 103293, Control_c, 6, 11, 94
8, 103358, Control_c, 6, 11, 95
8, 103423, Control_c, 6, 11, 96
8, 103488, Control_c, 6, 11, 97
8, 103553, Control_c, 6, 11, 98
8, 103618, Control_c, 6, 11, 99
8, 103680, Control_c, 6, 11, 100
8, 103853, Note_on_c, 6, 40, 0
8, 107054, Note_on_c, 6, 40, 47
8, 108513, Note_on_c, 6, 45, 28
8, 108622, Note_on_c, 6, 40, 0
8, 109018, Note_on_c, 6, 45, 0
8, 109440, Control_c, 6, 11, 80
8, 114919, Note_on_c, 6, 47, 57
8, 115364, Note_on_c, 6, 40, 44
8, 115375, Note_on_c, 6, 47, 0
8, 115724, Note_on_c, 6, 40, 0
8, 115920, Program_c, 6, 45
8, 116102, Note_on_c, 6, 47, 66
8, 116138, Note_on_c, 6, 47, 0
8, 116272, Note_on_c, 6, 35, 76
8, 116299, Note_on_c, 6, 35, 0
8, 120960, Program_c, 6, 49
8, 120999, Note_on_c, 6, 52, 59
8, 121452, Note_on_c, 6, 45, 47
8, 121482, Note_on_c, 6, 52, 0
8, 121733, Note_on_c, 6, 45, 0
8, 121911, Program_c, 6, 45
8, 121911, Note_on_c, 6, 45, 65
8, 121941, Note_on_c, 6, 45, 0
8, 122116, Note_on_c, 6, 43, 62
8, 122141, Note_on_c, 6, 43, 0
8, 122305, Note_on_c, 6, 41, 58
8, 122325, Note_on_c, 6, 41, 0
8, 122502, Note_on_c, 6, 29, 64
8, 122535, Note_on_c, 6, 29, 0
8, 127401, Note_on_c, 6, 53, 71
8, 127434, Note_on_c, 6, 53, 0
8, 127626, Note_on_c, 6, 41, 84
8, 127665, Note_on_c, 6, 41, 0
8, 127884, Note_on_c, 6, 40, 84
8, 127935, Note_on_c, 6, 40, 0
8, 129258, Note_on_c, 6, 53, 79
8, 129291, Note_on_c, 6, 53, 0
8, 129463, Note_on_c, 6, 41, 86
8, 129495, Note_on_c, 6, 41, 0
8, 129670, Note_on_c, 6, 40, 92
8, 129713, Note_on_c, 6, 40, 0
8, 130110, Note_on_c, 6, 52, 69
8, 130144, Note_on_c, 6, 52, 0
8, 130329, Note_on_c, 6, 47, 78
8, 130364, Note_on_c, 6, 47, 0
8, 130574, Note_on_c, 6, 40, 68
8, 130632, Note_on_c, 6, 40, 0
8, 131087, Note_on_c, 6, 52, 65
8, 131125, Note_on_c, 6, 52, 0
8, 131349, Note_on_c, 6, 47, 56
8, 131375, Note_on_c, 6, 47, 0
8, 131707, Note_on_c, 6, 40, 58
8, 131760, Note_on_c, 6, 40, 0
8, 133907, Note_on_c, 6, 52, 60
8, 133946, Note_on_c, 6, 52, 0
8, 134207, Note_on_c, 6, 47, 61
8, 134232, Note_on_c, 6, 47, 0
8, 134530, Note_on_c, 6, 40, 48
8, 134576, Note_on_c, 6, 40, 0
8, 135512, Note_on_c, 6, 45, 76
8, 135548, Note_on_c, 6, 45, 0
8, 142080, Control_c, 6, 11, 100
8, 143177, Program_c, 6, 49
8, 143177, Note_on_c, 6, 37, 124
8, 143331, Note_on_c, 6, 37, 0
8, 143342, Note_on_c, 6, 38, 121
8, 143388, Note_on_c, 6, 38, 0
8, 143523, Note_on_c, 6, 39, 123
8, 143583, Note_on_c, 6, 39, 0
8, 143703, Note_on_c, 6, 40, 126
8, 143769, Note_on_c, 6, 40, 0
8, 144051, Note_on_c, 6, 40, 126
8, 144452, Note_on_c, 6, 33, 126
8, 144454, Note_on_c, 6, 40, 0
8, 144628, Note_on_c, 6, 33, 0
8, 146823, Note_on_c, 6, 40, 71
8, 147146, Note_on_c, 6, 45, 61
8, 147167, Note_on_c, 6, 40, 0
8, 147326, Note_on_c, 6, 45, 0
8, 149349, Note_on_c, 6, 40, 83
8, 149678, Note_on_c, 6, 45, 73
8, 149697, Note_on_c, 6, 40, 0
8, 149853, Note_on_c, 6, 45, 0
8, 155718, Note_on_c, 6, 49, 72
8, 156022, Note_on_c, 6, 48, 76
8, 156053, Note_on_c, 6, 49, 0
8, 156206, Note_on_c, 6, 47, 67
8, 156221, Note_on_c, 6, 48, 0
8, 156433, Note_on_c, 6, 47, 0
8, 156960, Program_c, 6, 45
8, 156969, Note_on_c, 6, 47, 75
8, 156994, Note_on_c, 6, 47, 0
8, 157165, Note_on_c, 6, 40, 93
8, 157196, Note_on_c, 6, 40, 0
8, 163440, Program_c, 6, 49
8, 163445, Note_on_c, 6, 44, 80
8, 163618, Note_on_c, 6, 45, 84
8, 163646, Note_on_c, 6, 44, 0
8, 164263, Note_on_c, 6, 46, 96
8, 164274, Note_on_c, 6, 45, 0
8, 164889, Note_on_c, 6, 47, 92
8, 164909, Note_on_c, 6, 46, 0
8, 165124, Note_on_c, 6, 47, 0
8, 166800, Program_c, 6, 45
8, 167340, Note_on_c, 6, 42, 86
8, 167373, Note_on_c, 6, 42, 0
8, 167524, Note_on_c, 6, 35, 93
8, 167557, Note_on_c, 6, 35, 0
8, 168960, Program_c, 6, 49
8, 170500, Note_on_c, 6, 35, 69
8, 171107, Note_on_c, 6, 35, 0
8, 171145, Note_on_c, 6, 35, 71
8, 171295, Note_on_c, 6, 36, 76
8, 171335, Note_on_c, 6, 35, 0
8, 171485, Note_on_c, 6, 35, 81
8, 171512, Note_on_c, 6, 36, 0
8, 171665, Note_on_c, 6, 33, 85
8, 171700, Note_on_c, 6, 35, 0
8, 171852, Note_on_c, 6, 36, 89
8, 171879, Note_on_c, 6, 33, 0
8, 172043, Note_on_c, 6, 42, 83
8, 172084, Note_on_c, 6, 36, 0
8, 172514, Note_on_c, 6, 40, 93
8, 172561, Note_on_c, 6, 42, 0
8, 172702, Note_on_c, 6, 40, 0
8, 172703, Note_on_c, 6, 33, 94
8, 172849, Note_on_c, 6, 33, 0
8, 172860, Note_on_c, 6, 35, 86
8, 172930, Note_on_c, 6, 36, 74
8, 172933, Note_on_c, 6, 35, 0
8, 173043, Note_on_c, 6, 35, 72
8, 173044, Note_on_c, 6, 36, 0
8, 173129, Note_on_c, 6, 35, 0
8, 173795, Note_on_c, 6, 35, 70
8, 173941, Note_on_c, 6, 36, 84
8, 173970, Note_on_c, 6, 35, 0
8, 174107, Note_on_c, 6, 35, 79
8, 174116, Note_on_c, 6, 36, 0
8, 174275, Note_on_c, 6, 33, 60
8, 174302, Note_on_c, 6, 35, 0
8, 174458, Note_on_c, 6, 36, 84
8, 174498, Note_on_c, 6, 33, 0
8, 174630, Note_on_c, 6, 42, 78
8, 174664, Note_on_c, 6, 36, 0
8, 175159, Note_on_c, 6, 40, 79
8, 175171, Note_on_c, 6, 42, 0
8, 175340, Note_on_c, 6, 33, 71
8, 175353, Note_on_c, 6, 40, 0
8, 175524, Note_on_c, 6, 35, 66
8, 175545, Note_on_c, 6, 33, 0
8, 175616, Note_on_c, 6, 36, 59
8, 175618, Note_on_c, 6, 35, 0
8, 175698, Note_on_c, 6, 36, 0
8, 175769, Note_on_c, 6, 36, 54
8, 177106, Note_on_c, 6, 35, 58
8, 177164, Note_on_c, 6, 36, 0
8, 177958, Note_on_c, 6, 36, 63
8, 177979, Note_on_c, 6, 35, 0
8, 178564, Note_on_c, 6, 35, 54
8, 178603, Note_on_c, 6, 36, 0
8, 178754, Note_on_c, 6, 35, 0
8, 181180, Note_on_c, 6, 47, 34
8, 183779, Note_on_c, 6, 46, 39
8, 183889, Note_on_c, 6, 47, 0
8, 185689, Note_on_c, 6, 39, 50
8, 185740, Note_on_c, 6, 46, 0
8, 186544, Note_on_c, 6, 39, 0
8, 189578, Note_on_c, 6, 39, 43
8, 191299, Note_on_c, 6, 40, 54
8, 191363, Note_on_c, 6, 39, 0
8, 191635, Note_on_c, 6, 40, 0
8, 193200, Program_c, 6, 45
8, 193214, Note_on_c, 6, 47, 82
8, 193247, Note_on_c, 6, 47, 0
8, 193440, Program_c, 6, 49
8, 196363, Note_on_c, 6, 42, 68
8, 196660, Note_on_c, 6, 47, 54
8, 196697, Note_on_c, 6, 42, 0
8, 196933, Note_on_c, 6, 47, 0
8, 196973, Note_on_c, 6, 42, 87
8, 197260, Note_on_c, 6, 47, 69
8, 197290, Note_on_c, 6, 42, 0
8, 197509, Note_on_c, 6, 47, 0
8, 197587, Note_on_c, 6, 49, 85
8, 197884, Note_on_c, 6, 51, 72
8, 197907, Note_on_c, 6, 49, 0
8, 198191, Note_on_c, 6, 51, 0
8, 198210, Note_on_c, 6, 39, 72
8, 198922, Note_on_c, 6, 40, 73
8, 198930, Note_on_c, 6, 39, 0
8, 199015, Note_on_c, 6, 40, 0
8, 199151, Note_on_c, 6, 42, 83
8, 199201, Note_on_c, 6, 42, 0
8, 199429, Note_on_c, 6, 35, 67
8, 199576, Note_on_c, 6, 35, 0
8, 201407, Control_c, 6, 11, 100
8, 201407, Note_on_c, 6, 40, 125
8, 201445, Note_on_c, 6, 40, 0
8, 201576, Note_on_c, 6, 37, 121
8, 201897, Note_on_c, 6, 39, 113
8, 201915, Note_on_c, 6, 37, 0
8, 201951, Note_on_c, 6, 39, 0
8, 202069, Note_on_c, 6, 40, 114
8, 202117, Note_on_c, 6, 40, 0
8, 202231, Note_on_c, 6, 42, 114
8, 202274, Note_on_c, 6, 42, 0
8, 202398, Note_on_c, 6, 30, 109
8, 202466, Note_on_c, 6, 30, 0
8, 202561, Note_on_c, 6, 35, 112
8, 202609, Note_on_c, 6, 35, 0
8, 202737, Note_on_c, 6, 35, 108
8, 202786, Note_on_c, 6, 35, 0
8, 202917, Note_on_c, 6, 42, 113
8, 203224, Note_on_c, 6, 42, 0
8, 203240, Note_on_c, 6, 44, 114
8, 203279, Note_on_c, 6, 44, 0
8, 203413, Note_on_c, 6, 45, 113
8, 203467, Note_on_c, 6, 45, 0
8, 203571, Note_on_c, 6, 47, 114
8, 203631, Note_on_c, 6, 47, 0
8, 203744, Note_on_c, 6, 35, 121
8, 203794, Note_on_c, 6, 35, 0
8, 203896, Note_on_c, 6, 40, 121
8, 203929, Note_on_c, 6, 40, 0
8, 204057, Note_on_c, 6, 40, 122
8, 204093, Note_on_c, 6, 40, 0
8, 204248, Note_on_c, 6, 33, 93
8, 204436, Note_on_c, 6, 33, 0
8, 204604, Note_on_c, 6, 40, 113
8, 204641, Note_on_c, 6, 40, 0
8, 204776, Note_on_c, 6, 40, 120
8, 204809, Note_on_c, 6, 40, 0
8, 204952, Note_on_c, 6, 33, 114
8, 205130, Note_on_c, 6, 33, 0
8, 205306, Note_on_c, 6, 40, 116
8, 205341, Note_on_c, 6, 40, 0
8, 205470, Note_on_c, 6, 40, 106
8, 205507, Note_on_c, 6, 40, 0
8, 205642, Note_on_c, 6, 40, 108
8, 205681, Note_on_c, 6, 40, 0
8, 205808, Note_on_c, 6, 40, 107
8, 205847, Note_on_c, 6, 40, 0
8, 205972, Note_on_c, 6, 39, 116
8, 206007, Note_on_c, 6, 39, 0
8, 206130, Note_on_c, 6, 39, 123
8, 206165, Note_on_c, 6, 39, 0
8, 206296, Note_on_c, 6, 39, 124
8, 206333, Note_on_c, 6, 39, 0
8, 206455, Note_on_c, 6, 39, 127
8, 206487, Note_on_c, 6, 39, 0
8, 206624, Note_on_c, 6, 44, 121
8, 206645, Note_on_c, 6, 43, 38
8, 206657, Note_on_c, 6, 44, 0
8, 206665, Note_on_c, 6, 43, 0
8, 206795, Note_on_c, 6, 44, 118
8, 206824, Note_on_c, 6, 44, 0
8, 206969, Note_on_c, 6, 44, 127
8, 207001, Note_on_c, 6, 44, 0
8, 207130, Note_on_c, 6, 44, 127
8, 207162, Note_on_c, 6, 44, 0
8, 207306, Note_on_c, 6, 44, 127
8, 207704, Note_on_c, 6, 44, 0
8, 208326, Note_on_c, 6, 44, 115
8, 208359, Note_on_c, 6, 44, 0
8, 208505, Note_on_c, 6, 44, 127
8, 208548, Note_on_c, 6, 44, 0
8, 208679, Note_on_c, 6, 44, 125
8, 209099, Note_on_c, 6, 44, 0
8, 209788, Note_on_c, 6, 35, 127
8, 209821, Note_on_c, 6, 35, 0
8, 209956, Note_on_c, 6, 35, 127
8, 209993, Note_on_c, 6, 35, 0
8, 210125, Control_c, 6, 11, 100
8, 210125, Note_on_c, 6, 35, 127
8, 210245, Control_c, 6, 11, 87
8, 210250, Control_c, 6, 11, 78
8, 210255, Control_c, 6, 11, 70
8, 210260, Control_c, 6, 11, 63
8, 210265, Control_c, 6, 11, 58
8, 210270, Control_c, 6, 11, 53
8, 210275, Control_c, 6, 11, 49
8, 210280, Control_c, 6, 11, 46
8, 210285, Control_c, 6, 11, 43
8, 210290, Control_c, 6, 11, 41
8, 210295, Control_c, 6, 11, 39
8, 210300, Control_c, 6, 11, 37
8, 210305, Control_c, 6, 11, 36
8, 210310, Control_c, 6, 11, 35
8, 210315, Control_c, 6, 11, 34
8, 210320, Control_c, 6, 11, 33
8, 210330, Control_c, 6, 11, 32
8, 210340, Control_c, 6, 11, 31
8, 210360, Control_c, 6, 11, 30
8, 210495, Control_c, 6, 11, 31
8, 210540, Control_c, 6, 11, 32
8, 210565, Control_c, 6, 11, 33
8, 210585, Control_c, 6, 11, 34
8, 210600, Control_c, 6, 11, 35
8, 210610, Control_c, 6, 11, 36
8, 210620, Control_c, 6, 11, 37
8, 210635, Control_c, 6, 11, 38
8, 210640, Control_c, 6, 11, 39
8, 210645, Control_c, 6, 11, 40
8, 210655, Control_c, 6, 11, 41
8, 210660, Control_c, 6, 11, 42
8, 210665, Control_c, 6, 11, 43
8, 210670, Control_c, 6, 11, 44
8, 210675, Control_c, 6, 11, 45
8, 210680, Control_c, 6, 11, 46
8, 210685, Control_c, 6, 11, 48
8, 210690, Control_c, 6, 11, 49
8, 210695, Control_c, 6, 11, 51
8, 210700, Control_c, 6, 11, 52
8, 210705, Control_c, 6, 11, 54
8, 210710, Control_c, 6, 11, 56
8, 210712, Note_on_c, 6, 35, 0
8, 210715, Control_c, 6, 11, 58
8, 210720, Control_c, 6, 11, 60
8, 210725, Control_c, 6, 11, 62
8, 210730, Control_c, 6, 11, 65
8, 210735, Control_c, 6, 11, 68
8, 210740, Control_c, 6, 11, 70
8, 210745, Control_c, 6, 11, 74
8, 210750, Control_c, 6, 11, 77
8, 210755, Control_c, 6, 11, 80
8, 210760, Control_c, 6, 11, 84
8, 210765, Control_c, 6, 11, 88
8, 210770, Control_c, 6, 11, 92
8, 210775, Control_c, 6, 11, 99
8, 210777, Control_c, 6, 11, 100
8, 210777, Note_on_c, 6, 40, 83
8, 210811, Note_on_c, 6, 40, 0
8, 210926, Note_on_c, 6, 35, 93
8, 210960, Note_on_c, 6, 35, 0
8, 211081, Note_on_c, 6, 42, 100
8, 211118, Note_on_c, 6, 42, 0
8, 211220, Note_on_c, 6, 35, 100
8, 211257, Note_on_c, 6, 35, 0
8, 211371, Note_on_c, 6, 40, 111
8, 211411, Note_on_c, 6, 40, 0
8, 211514, Note_on_c, 6, 35, 112
8, 211551, Note_on_c, 6, 35, 0
8, 211669, Note_on_c, 6, 42, 116
8, 211707, Note_on_c, 6, 42, 0
8, 211819, Note_on_c, 6, 35, 109
8, 211852, Note_on_c, 6, 35, 0
8, 211977, Note_on_c, 6, 40, 120
8, 212017, Note_on_c, 6, 40, 0
8, 212127, Note_on_c, 6, 35, 107
8, 212162, Note_on_c, 6, 35, 0
8, 212288, Note_on_c, 6, 35, 80
8, 212327, Note_on_c, 6, 35, 0
8, 212455, Note_on_c, 6, 35, 97
8, 212488, Note_on_c, 6, 35, 0
8, 212606, Note_on_c, 6, 35, 103
8, 212644, Note_on_c, 6, 35, 0
8, 212756, Note_on_c, 6, 35, 108
8, 212794, Note_on_c, 6, 35, 0
8, 212909, Note_on_c, 6, 35, 117
8, 212948, Note_on_c, 6, 35, 0
8, 213059, Note_on_c, 6, 35, 120
8, 213104, Note_on_c, 6, 35, 0
8, 213204, Note_on_c, 6, 35, 124
8, 213279, Note_on_c, 6, 35, 0
8, 213362, Note_on_c, 6, 35, 122
8, 213520, Note_on_c, 6, 47, 127
8, 213544, Note_on_c, 6, 35, 0
8, 213552, Note_on_c, 6, 47, 0
8, 213681, Note_on_c, 6, 35, 109
8, 213992, Note_on_c, 6, 35, 0
8, 214021, Note_on_c, 6, 35, 118
8, 214066, Note_on_c, 6, 35, 0
8, 214178, Note_on_c, 6, 35, 127
8, 214225, Note_on_c, 6, 35, 0
8, 214350, Note_on_c, 6, 35, 118
8, 214560, Control_c, 6, 11, 100
8, 214565, Control_c, 6, 11, 96
8, 214570, Control_c, 6, 11, 93
8, 214575, Control_c, 6, 11, 91
8, 214580, Control_c, 6, 11, 89
8, 214585, Control_c, 6, 11, 86
8, 214590, Control_c, 6, 11, 84
8, 214595, Control_c, 6, 11, 83
8, 214600, Control_c, 6, 11, 80
8, 214605, Control_c, 6, 11, 78
8, 214610, Control_c, 6, 11, 77
8, 214615, Control_c, 6, 11, 75
8, 214620, Control_c, 6, 11, 74
8, 214625, Control_c, 6, 11, 73
8, 214630, Control_c, 6, 11, 71
8, 214635, Control_c, 6, 11, 70
8, 214640, Control_c, 6, 11, 69
8, 214645, Control_c, 6, 11, 68
8, 214650, Control_c, 6, 11, 67
8, 214655, Control_c, 6, 11, 66
8, 214660, Control_c, 6, 11, 65
8, 214665, Control_c, 6, 11, 64
8, 214670, Control_c, 6, 11, 63
8, 214675, Control_c, 6, 11, 62
8, 214685, Control_c, 6, 11, 61
8, 214690, Control_c, 6, 11, 60
8, 214700, Control_c, 6, 11, 59
8, 214710, Control_c, 6, 11, 58
8, 214720, Control_c, 6, 11, 57
8, 214730, Control_c, 6, 11, 56
8, 214745, Control_c, 6, 11, 55
8, 214760, Control_c, 6, 11, 54
8, 214780, Control_c, 6, 11, 53
8, 214800, Control_c, 6, 11, 52
8, 214835, Control_c, 6, 11, 51
8, 214885, Control_c, 6, 11, 50
8, 215298, Note_on_c, 6, 35, 0
8, 215332, Note_on_c, 6, 35, 78
8, 217612, Note_on_c, 6, 40, 77
8, 217661, Note_on_c, 6, 35, 0
8, 217770, Note_on_c, 6, 40, 0
8, 220080, Control_c, 6, 11, 100
8, 220159, Note_on_c, 6, 40, 69
8, 222000, Note_on_c, 6, 40, 0
8, 222012, Note_on_c, 6, 47, 100
8, 222324, Note_on_c, 6, 40, 90
8, 222336, Note_on_c, 6, 47, 0
8, 222364, Note_on_c, 6, 40, 0
8, 222479, Note_on_c, 6, 40, 124
8, 222524, Note_on_c, 6, 40, 0
8, 222649, Note_on_c, 6, 49, 125
8, 222685, Note_on_c, 6, 49, 0
8, 222816, Note_on_c, 6, 47, 127
8, 222858, Note_on_c, 6, 47, 0
8, 223237, Note_on_c, 6, 45, 126
8, 223293, Note_on_c, 6, 45, 0
8, 223410, Note_on_c, 6, 44, 127
8, 223448, Note_on_c, 6, 44, 0
8, 223874, Note_on_c, 6, 49, 127
8, 223917, Note_on_c, 6, 49, 0
8, 224025, Note_on_c, 6, 47, 127
8, 224082, Note_on_c, 6, 47, 0
8, 224470, Note_on_c, 6, 45, 127
8, 224509, Note_on_c, 6, 45, 0
8, 224634, Note_on_c, 6, 44, 127
8, 224667, Note_on_c, 6, 44, 0
8, 227588, Note_on_c, 6, 42, 116
8, 227673, Note_on_c, 6, 42, 0
8, 227744, Note_on_c, 6, 40, 116
8, 227873, Note_on_c, 6, 40, 0
8, 227909, Note_on_c, 6, 45, 109
8, 227999, Note_on_c, 6, 45, 0
8, 228089, Note_on_c, 6, 39, 118
8, 228167, Note_on_c, 6, 40, 99
8, 228178, Note_on_c, 6, 39, 0
8, 228250, Note_on_c, 6, 39, 105
8, 228263, Note_on_c, 6, 40, 0
8, 228299, Note_on_c, 6, 39, 0
8, 228327, Note_on_c, 6, 38, 106
8, 228390, Note_on_c, 6, 38, 0
8, 228403, Note_on_c, 6, 39, 108
8, 228442, Note_on_c, 6, 39, 0
8, 228564, Note_on_c, 6, 44, 112
8, 228625, Note_on_c, 6, 44, 0
8, 228725, Note_on_c, 6, 37, 115
8, 228855, Note_on_c, 6, 37, 0
8, 228906, Note_on_c, 6, 39, 81
8, 228965, Note_on_c, 6, 40, 87
8, 228980, Note_on_c, 6, 39, 0
8, 229047, Note_on_c, 6, 42, 103
8, 229057, Note_on_c, 6, 40, 0
8, 229103, Note_on_c, 6, 42, 0
8, 229230, Note_on_c, 6, 30, 112
8, 229381, Note_on_c, 6, 42, 103
8, 229396, Note_on_c, 6, 30, 0
8, 229433, Note_on_c, 6, 42, 0
8, 229555, Note_on_c, 6, 44, 109
8, 229718, Note_on_c, 6, 45, 84
8, 229728, Note_on_c, 6, 44, 0
8, 229770, Note_on_c, 6, 45, 0
8, 229891, Note_on_c, 6, 42, 120
8, 230024, Note_on_c, 6, 42, 0
8, 230062, Note_on_c, 6, 42, 87
8, 230215, Note_on_c, 6, 43, 94
8, 230223, Note_on_c, 6, 42, 0
8, 230388, Note_on_c, 6, 43, 0
8, 230397, Note_on_c, 6, 44, 107
8, 230427, Note_on_c, 6, 44, 0
8, 230594, Note_on_c, 6, 44, 114
8, 230653, Note_on_c, 6, 44, 0
8, 279873, Note_on_c, 6, 47, 28
8, 280378, Note_on_c, 6, 47, 0
8, 280800, Control_c, 6, 11, 80
8, 286279, Note_on_c, 6, 49, 57
8, 286724, Note_on_c, 6, 42, 44
8, 286735, Note_on_c, 6, 49, 0
8, 287084, Note_on_c, 6, 42, 0
8, 287280, Program_c, 6, 45
8, 287462, Note_on_c, 6, 49, 66
8, 287498, Note_on_c, 6, 49, 0
8, 287632, Note_on_c, 6, 37, 76
8, 287659, Note_on_c, 6, 37, 0
8, 292320, Program_c, 6, 49
8, 292359, Note_on_c, 6, 54, 59
8, 292812, Note_on_c, 6, 47, 47
8, 292842, Note_on_c, 6, 54, 0
8, 293093, Note_on_c, 6, 47, 0
8, 293271, Program_c, 6, 45
8, 293271, Note_on_c, 6, 47, 65
8, 293301, Note_on_c, 6, 47, 0
8, 293476, Note_on_c, 6, 45, 62
8, 293501, Note_on_c, 6, 45, 0
8, 293665, Note_on_c, 6, 43, 58
8, 293685, Note_on_c, 6, 43, 0
8, 293862, Note_on_c, 6, 31, 64
8, 293895, Note_on_c, 6, 31, 0
8, 296298, Note_on_c, 6, 43, 77
8, 296343, Note_on_c, 6, 43, 0
8, 296492, Note_on_c, 6, 45, 51
8, 296522, Note_on_c, 6, 45, 0
8, 296671, Note_on_c, 6, 47, 54
8, 296729, Note_on_c, 6, 47, 0
8, 297130, Note_on_c, 6, 47, 63
8, 297176, Note_on_c, 6, 47, 0
8, 297329, Note_on_c, 6, 35, 86
8, 297386, Note_on_c, 6, 35, 0
8, 297576, Note_on_c, 6, 36, 53
8, 297765, Note_on_c, 6, 36, 0
8, 298027, Note_on_c, 6, 48, 58
8, 298066, Note_on_c, 6, 48, 0
8, 298223, Note_on_c, 6, 43, 84
8, 298261, Note_on_c, 6, 43, 0
8, 298440, Note_on_c, 6, 36, 83
8, 298491, Note_on_c, 6, 36, 0
8, 298914, Note_on_c, 6, 48, 58
8, 298982, Note_on_c, 6, 48, 0
8, 299195, Note_on_c, 6, 36, 48
8, 299251, Note_on_c, 6, 36, 0
8, 299516, Note_on_c, 6, 35, 57
8, 299614, Note_on_c, 6, 35, 0
8, 301178, Note_on_c, 6, 48, 80
8, 301229, Note_on_c, 6, 48, 0
8, 301421, Note_on_c, 6, 36, 85
8, 301474, Note_on_c, 6, 36, 0
8, 301735, Note_on_c, 6, 35, 80
8, 302046, Note_on_c, 6, 35, 0
8, 302189, Note_on_c, 6, 47, 72
8, 302232, Note_on_c, 6, 47, 0
8, 302392, Note_on_c, 6, 42, 85
8, 302444, Note_on_c, 6, 42, 0
8, 302642, Note_on_c, 6, 35, 68
8, 302707, Note_on_c, 6, 35, 0
8, 303165, Note_on_c, 6, 47, 71
8, 303215, Note_on_c, 6, 47, 0
8, 303499, Note_on_c, 6, 42, 65
8, 303559, Note_on_c, 6, 42, 0
8, 304113, Note_on_c, 6, 35, 40
8, 304214, Note_on_c, 6, 35, 0
8, 306553, Note_on_c, 6, 47, 37
8, 306588, Note_on_c, 6, 47, 0
8, 306876, Note_on_c, 6, 42, 66
8, 306918, Note_on_c, 6, 42, 0
8, 307303, Note_on_c, 6, 35, 65
8, 307341, Note_on_c, 6, 35, 0
8, 308288, Note_on_c, 6, 40, 63
8, 308343, Note_on_c, 6, 40, 0
8, 308640, Program_c, 6, 49
8, 315360, Control_c, 6, 11, 100
8, 315773, Note_on_c, 6, 32, 123
8, 315889, Note_on_c, 6, 32, 0
8, 315951, Note_on_c, 6, 33, 121
8, 316024, Note_on_c, 6, 33, 0
8, 316124, Note_on_c, 6, 34, 121
8, 316187, Note_on_c, 6, 34, 0
8, 316312, Note_on_c, 6, 35, 125
8, 316397, Note_on_c, 6, 35, 0
8, 316703, Note_on_c, 6, 35, 127
8, 317182, Note_on_c, 6, 40, 117
8, 317200, Note_on_c, 6, 35, 0
8, 317352, Note_on_c, 6, 40, 0
8, 317870, Program_c, 6, 45
8, 318029, Note_on_c, 6, 40, 75
8, 318077, Note_on_c, 6, 40, 0
8, 318646, Note_on_c, 6, 40, 81
8, 318691, Note_on_c, 6, 40, 0
8, 318980, Note_on_c, 6, 40, 80
8, 319021, Note_on_c, 6, 40, 0
8, 319287, Note_on_c, 6, 40, 78
8, 319326, Note_on_c, 6, 40, 0
8, 322080, Program_c, 6, 49
8, 322417, Note_on_c, 6, 40, 124
8, 322596, Note_on_c, 6, 40, 0
8, 323040, Program_c, 6, 45
8, 323068, Note_on_c, 6, 40, 63
8, 323097, Note_on_c, 6, 40, 0
8, 323674, Note_on_c, 6, 40, 59
8, 323707, Note_on_c, 6, 40, 0
8, 323975, Note_on_c, 6, 40, 77
8, 324013, Note_on_c, 6, 40, 0
8, 324285, Note_on_c, 6, 40, 83
8, 324338, Note_on_c, 6, 40, 0
8, 331440, Program_c, 6, 49
8, 331538, Note_on_c, 6, 46, 108
8, 331709, Note_on_c, 6, 46, 0
8, 333087, Note_on_c, 6, 40, 60
8, 333370, Note_on_c, 6, 40, 0
8, 334846, Note_on_c, 6, 36, 77
8, 335149, Note_on_c, 6, 35, 78
8, 335234, Note_on_c, 6, 36, 0
8, 335457, Note_on_c, 6, 47, 61
8, 335473, Note_on_c, 6, 35, 0
8, 335748, Note_on_c, 6, 40, 75
8, 335754, Note_on_c, 6, 47, 0
8, 335929, Note_on_c, 6, 40, 0
8, 336088, Note_on_c, 6, 35, 81
8, 336383, Note_on_c, 6, 38, 61
8, 336407, Note_on_c, 6, 35, 0
8, 336605, Note_on_c, 6, 38, 0
8, 336694, Note_on_c, 6, 45, 63
8, 337020, Note_on_c, 6, 48, 65
8, 337049, Note_on_c, 6, 45, 0
8, 337249, Note_on_c, 6, 48, 0
8, 337295, Note_on_c, 6, 36, 86
8, 337601, Note_on_c, 6, 35, 73
8, 337649, Note_on_c, 6, 36, 0
8, 338200, Note_on_c, 6, 35, 0
8, 338201, Note_on_c, 6, 40, 62
8, 338464, Note_on_c, 6, 40, 0
8, 338507, Note_on_c, 6, 40, 52
8, 340652, Note_on_c, 6, 40, 0
8, 340917, Note_on_c, 6, 40, 37
8, 342998, Note_on_c, 6, 40, 0
8, 345456, Note_on_c, 6, 40, 55
8, 346289, Note_on_c, 6, 44, 76
8, 346410, Note_on_c, 6, 40, 0
8, 346635, Note_on_c, 6, 45, 80
8, 346743, Note_on_c, 6, 44, 0
8, 347238, Note_on_c, 6, 47, 73
8, 347282, Note_on_c, 6, 45, 0
8, 347852, Note_on_c, 6, 40, 68
8, 347872, Note_on_c, 6, 47, 0
8, 348038, Note_on_c, 6, 40, 0
8, 351365, Note_on_c, 6, 52, 86
8, 351677, Note_on_c, 6, 49, 85
8, 351728, Note_on_c, 6, 52, 0
8, 351951, Note_on_c, 6, 45, 97
8, 351970, Note_on_c, 6, 49, 0
8, 352273, Note_on_c, 6, 47, 107
8, 352307, Note_on_c, 6, 45, 0
8, 352560, Note_on_c, 6, 40, 96
8, 352596, Note_on_c, 6, 47, 0
8, 355200, Control_c, 6, 11, 100
8, 355205, Control_c, 6, 11, 96
8, 355210, Control_c, 6, 11, 93
8, 355215, Control_c, 6, 11, 91
8, 355220, Control_c, 6, 11, 89
8, 355225, Control_c, 6, 11, 86
8, 355230, Control_c, 6, 11, 84
8, 355235, Control_c, 6, 11, 83
8, 355240, Control_c, 6, 11, 80
8, 355245, Control_c, 6, 11, 78
8, 355250, Control_c, 6, 11, 77
8, 355255, Control_c, 6, 11, 75
8, 355260, Control_c, 6, 11, 74
8, 355265, Control_c, 6, 11, 73
8, 355270, Control_c, 6, 11, 71
8, 355275, Control_c, 6, 11, 70
8, 355280, Control_c, 6, 11, 69
8, 355285, Control_c, 6, 11, 68
8, 355290, Control_c, 6, 11, 67
8, 355295, Control_c, 6, 11, 66
8, 355300, Control_c, 6, 11, 65
8, 355305, Control_c, 6, 11, 64
8, 355310, Control_c, 6, 11, 63
8, 355315, Control_c, 6, 11, 62
8, 355325, Control_c, 6, 11, 61
8, 355330, Control_c, 6, 11, 60
8, 355340, Control_c, 6, 11, 59
8, 355350, Control_c, 6, 11, 58
8, 355360, Control_c, 6, 11, 57
8, 355370, Control_c, 6, 11, 56
8, 355385, Control_c, 6, 11, 55
8, 355400, Control_c, 6, 11, 54
8, 355420, Control_c, 6, 11, 53
8, 355440, Control_c, 6, 11, 52
8, 355475, Control_c, 6, 11, 51
8, 355525, Control_c, 6, 11, 50
8, 355550, Control_c, 6, 11, 51
8, 355570, Control_c, 6, 11, 52
8, 355595, Control_c, 6, 11, 53
8, 355615, Control_c, 6, 11, 54
8, 355640, Control_c, 6, 11, 55
8, 355660, Control_c, 6, 11, 56
8, 355685, Control_c, 6, 11, 57
8, 355705, Control_c, 6, 11, 58
8, 355730, Control_c, 6, 11, 59
8, 355750, Control_c, 6, 11, 60
8, 355775, Control_c, 6, 11, 61
8, 355795, Control_c, 6, 11, 62
8, 355815, Control_c, 6, 11, 63
8, 355840, Control_c, 6, 11, 64
8, 355860, Control_c, 6, 11, 65
8, 355885, Control_c, 6, 11, 66
8, 355905, Control_c, 6, 11, 67
8, 355930, Control_c, 6, 11, 68
8, 355950, Control_c, 6, 11, 69
8, 355975, Control_c, 6, 11, 70
8, 355995, Control_c, 6, 11, 71
8, 356020, Control_c, 6, 11, 72
8, 356040, Control_c, 6, 11, 73
8, 356060, Control_c, 6, 11, 74
8, 356085, Control_c, 6, 11, 75
8, 356105, Control_c, 6, 11, 76
8, 356130, Control_c, 6, 11, 77
8, 356150, Control_c, 6, 11, 78
8, 356175, Control_c, 6, 11, 79
8, 356195, Control_c, 6, 11, 80
8, 356220, Control_c, 6, 11, 81
8, 356240, Control_c, 6, 11, 82
8, 356265, Control_c, 6, 11, 83
8, 356285, Control_c, 6, 11, 84
8, 356305, Control_c, 6, 11, 85
8, 356330, Control_c, 6, 11, 86
8, 356350, Control_c, 6, 11, 87
8, 356375, Control_c, 6, 11, 88
8, 356395, Control_c, 6, 11, 89
8, 356420, Control_c, 6, 11, 90
8, 356440, Control_c, 6, 11, 91
8, 356465, Control_c, 6, 11, 92
8, 356485, Control_c, 6, 11, 93
8, 356510, Control_c, 6, 11, 94
8, 356530, Control_c, 6, 11, 95
8, 356550, Control_c, 6, 11, 96
8, 356575, Control_c, 6, 11, 97
8, 356595, Control_c, 6, 11, 98
8, 356620, Control_c, 6, 11, 99
8, 356640, Control_c, 6, 11, 100
8, 356838, Note_on_c, 6, 40, 0
8, 357206, Note_on_c, 6, 40, 127
8, 357242, Note_on_c, 6, 40, 0
8, 357283, Note_on_c, 6, 40, 127
8, 357634, Note_on_c, 6, 40, 0
8, 357745, Note_on_c, 6, 40, 127
8, 358057, Note_on_c, 6, 40, 0
8, 358284, Note_on_c, 6, 40, 127
8, 358330, Note_on_c, 6, 40, 0
8, 358365, Note_on_c, 6, 40, 126
8, 360457, Note_on_c, 6, 40, 0
8, 361440, End_track
9, 0, Start_track
9, 0, Title_t, "Corni (E)"
9, 0, MIDI_port, 0
9, 0, Control_c, 7, 121, 0
9, 80, Control_c, 7, 101, 0
9, 100, Control_c, 7, 100, 0
9, 120, Control_c, 7, 6, 12
9, 140, Control_c, 7, 10, 48
9, 160, Control_c, 7, 7, 100
9, 180, Control_c, 7, 0, 0
9, 200, Control_c, 7, 32, 0
9, 220, Program_c, 7, 60
9, 240, Control_c, 7, 91, 100
9, 260, Control_c, 7, 93, 32
9, 280, Control_c, 7, 1, 12
9, 300, Control_c, 7, 11, 100
9, 320, Pitch_bend_c, 7, 8192
9, 340, Control_c, 7, 99, 1
9, 360, Control_c, 7, 98, 32
9, 380, Control_c, 7, 6, 64
9, 400, Control_c, 7, 98, 33
9, 420, Control_c, 7, 6, 64
9, 440, Control_c, 7, 98, 100
9, 460, Control_c, 7, 6, 64
9, 480, Control_c, 7, 98, 102
9, 500, Control_c, 7, 6, 65
9, 520, Control_c, 7, 98, 99
9, 705, Control_c, 7, 6, 66
9, 44446, Note_on_c, 7, 64, 93
9, 44510, Note_on_c, 7, 64, 0
9, 44621, Note_on_c, 7, 68, 86
9, 44624, Note_on_c, 7, 64, 91
9, 44795, Note_on_c, 7, 66, 85
9, 44810, Note_on_c, 7, 64, 0
9, 44820, Note_on_c, 7, 68, 0
9, 44904, Note_on_c, 7, 66, 0
9, 44949, Note_on_c, 7, 59, 80
9, 44949, Note_on_c, 7, 66, 81
9, 45003, Note_on_c, 7, 66, 0
9, 45023, Note_on_c, 7, 59, 0
9, 45119, Note_on_c, 7, 59, 72
9, 45122, Note_on_c, 7, 71, 69
9, 45176, Note_on_c, 7, 71, 0
9, 45188, Note_on_c, 7, 59, 0
9, 45292, Note_on_c, 7, 66, 84
9, 45428, Note_on_c, 7, 66, 0
9, 45620, Note_on_c, 7, 59, 88
9, 45623, Note_on_c, 7, 71, 93
9, 45666, Note_on_c, 7, 59, 0
9, 45669, Note_on_c, 7, 71, 0
9, 45789, Note_on_c, 7, 59, 93
9, 45795, Note_on_c, 7, 47, 96
9, 45834, Note_on_c, 7, 59, 0
9, 45863, Note_on_c, 7, 47, 0
9, 45959, Note_on_c, 7, 66, 75
9, 46112, Note_on_c, 7, 59, 72
9, 46272, Note_on_c, 7, 64, 74
9, 46297, Note_on_c, 7, 66, 0
9, 46300, Note_on_c, 7, 59, 0
9, 46324, Note_on_c, 7, 64, 0
9, 46438, Note_on_c, 7, 52, 84
9, 46440, Note_on_c, 7, 64, 78
9, 46488, Note_on_c, 7, 64, 0
9, 46494, Note_on_c, 7, 52, 0
9, 46604, Note_on_c, 7, 71, 94
9, 46612, Note_on_c, 7, 59, 96
9, 46757, Note_on_c, 7, 59, 0
9, 46762, Note_on_c, 7, 71, 0
9, 46947, Note_on_c, 7, 64, 86
9, 46953, Note_on_c, 7, 52, 89
9, 47304, Note_on_c, 7, 64, 0
9, 47307, Note_on_c, 7, 52, 0
9, 47625, Note_on_c, 7, 64, 76
9, 47627, Note_on_c, 7, 52, 71
9, 47982, Note_on_c, 7, 64, 0
9, 47986, Note_on_c, 7, 52, 0
9, 48313, Note_on_c, 7, 64, 82
9, 48319, Note_on_c, 7, 52, 78
9, 48469, Note_on_c, 7, 64, 0
9, 48496, Note_on_c, 7, 52, 0
9, 48636, Note_on_c, 7, 68, 78
9, 48656, Note_on_c, 7, 64, 54
9, 48837, Note_on_c, 7, 64, 0
9, 48838, Note_on_c, 7, 68, 0
9, 48980, Note_on_c, 7, 71, 98
9, 48982, Note_on_c, 7, 59, 89
9, 49173, Note_on_c, 7, 71, 0
9, 49189, Note_on_c, 7, 59, 0
9, 49323, Note_on_c, 7, 71, 94
9, 49324, Note_on_c, 7, 68, 94
9, 49407, Note_on_c, 7, 71, 0
9, 49413, Note_on_c, 7, 68, 0
9, 49492, Note_on_c, 7, 63, 99
9, 49607, Note_on_c, 7, 63, 0
9, 49665, Note_on_c, 7, 68, 88
9, 49666, Note_on_c, 7, 56, 86
9, 49725, Note_on_c, 7, 68, 0
9, 49727, Note_on_c, 7, 56, 0
9, 49833, Note_on_c, 7, 68, 93
9, 49837, Note_on_c, 7, 56, 87
9, 49878, Note_on_c, 7, 68, 0
9, 49882, Note_on_c, 7, 56, 0
9, 49997, Note_on_c, 7, 68, 83
9, 50001, Note_on_c, 7, 56, 78
9, 50051, Note_on_c, 7, 68, 0
9, 50066, Note_on_c, 7, 56, 0
9, 50159, Note_on_c, 7, 68, 96
9, 50164, Note_on_c, 7, 56, 93
9, 50208, Note_on_c, 7, 68, 0
9, 50212, Note_on_c, 7, 56, 0
9, 50334, Note_on_c, 7, 56, 94
9, 50335, Note_on_c, 7, 68, 95
9, 50400, Control_c, 7, 11, 100
9, 50405, Control_c, 7, 11, 91
9, 50410, Control_c, 7, 11, 84
9, 50415, Control_c, 7, 11, 78
9, 50420, Control_c, 7, 11, 73
9, 50425, Control_c, 7, 11, 68
9, 50430, Control_c, 7, 11, 64
9, 50435, Control_c, 7, 11, 60
9, 50440, Control_c, 7, 11, 57
9, 50445, Control_c, 7, 11, 54
9, 50450, Control_c, 7, 11, 51
9, 50455, Control_c, 7, 11, 49
9, 50460, Control_c, 7, 11, 46
9, 50465, Control_c, 7, 11, 45
9, 50470, Control_c, 7, 11, 43
9, 50475, Control_c, 7, 11, 42
9, 50480, Control_c, 7, 11, 40
9, 50485, Control_c, 7, 11, 39
9, 50490, Control_c, 7, 11, 38
9, 50495, Control_c, 7, 11, 37
9, 50500, Control_c, 7, 11, 36
9, 50510, Control_c, 7, 11, 35
9, 50515, Control_c, 7, 11, 34
9, 50525, Control_c, 7, 11, 33
9, 50540, Control_c, 7, 11, 32
9, 50550, Control_c, 7, 11, 31
9, 50580, Control_c, 7, 11, 30
9, 50700, Control_c, 7, 11, 31
9, 50709, Note_on_c, 7, 68, 0
9, 50760, Control_c, 7, 11, 32
9, 50790, Control_c, 7, 11, 33
9, 50815, Control_c, 7, 11, 34
9, 50835, Control_c, 7, 11, 35
9, 50850, Control_c, 7, 11, 36
9, 50865, Control_c, 7, 11, 37
9, 50875, Control_c, 7, 11, 38
9, 50885, Control_c, 7, 11, 39
9, 50895, Control_c, 7, 11, 40
9, 50900, Control_c, 7, 11, 41
9, 50910, Control_c, 7, 11, 42
9, 50915, Control_c, 7, 11, 43
9, 50925, Control_c, 7, 11, 44
9, 50930, Control_c, 7, 11, 45
9, 50935, Control_c, 7, 11, 46
9, 50940, Control_c, 7, 11, 47
9, 50945, Control_c, 7, 11, 48
9, 50950, Control_c, 7, 11, 49
9, 50955, Control_c, 7, 11, 51
9, 50960, Control_c, 7, 11, 52
9, 50965, Control_c, 7, 11, 54
9, 50970, Control_c, 7, 11, 55
9, 50975, Control_c, 7, 11, 56
9, 50980, Control_c, 7, 11, 58
9, 50985, Control_c, 7, 11, 59
9, 50990, Control_c, 7, 11, 61
9, 50992, Note_on_c, 7, 56, 0
9, 50995, Control_c, 7, 11, 64
9, 51000, Control_c, 7, 11, 65
9, 51005, Control_c, 7, 11, 68
9, 51010, Control_c, 7, 11, 70
9, 51015, Control_c, 7, 11, 72
9, 51020, Control_c, 7, 11, 75
9, 51025, Control_c, 7, 11, 78
9, 51030, Control_c, 7, 11, 81
9, 51035, Control_c, 7, 11, 83
9, 51040, Control_c, 7, 11, 87
9, 51045, Control_c, 7, 11, 91
9, 51050, Control_c, 7, 11, 93
9, 51055, Control_c, 7, 11, 99
9, 51057, Control_c, 7, 11, 100
9, 51057, Note_on_c, 7, 68, 65
9, 51059, Note_on_c, 7, 56, 52
9, 51096, Note_on_c, 7, 68, 0
9, 51101, Note_on_c, 7, 56, 0
9, 51144, Note_on_c, 7, 68, 72
9, 51155, Note_on_c, 7, 56, 61
9, 51182, Note_on_c, 7, 56, 0
9, 51183, Note_on_c, 7, 68, 0
9, 51222, Note_on_c, 7, 68, 83
9, 51226, Note_on_c, 7, 56, 83
9, 51262, Note_on_c, 7, 56, 0
9, 51265, Note_on_c, 7, 68, 0
9, 51289, Note_on_c, 7, 68, 84
9, 51290, Note_on_c, 7, 56, 84
9, 51338, Note_on_c, 7, 56, 0
9, 51339, Note_on_c, 7, 68, 0
9, 51382, Note_on_c, 7, 68, 100
9, 51382, Note_on_c, 7, 56, 98
9, 51443, Note_on_c, 7, 68, 0
9, 51452, Note_on_c, 7, 56, 0
9, 51560, Note_on_c, 7, 68, 94
9, 51561, Note_on_c, 7, 56, 95
9, 51618, Note_on_c, 7, 56, 0
9, 51624, Note_on_c, 7, 68, 0
9, 51735, Note_on_c, 7, 56, 93
9, 51738, Note_on_c, 7, 68, 94
9, 51840, Control_c, 7, 11, 100
9, 51845, Control_c, 7, 11, 91
9, 51850, Control_c, 7, 11, 84
9, 51855, Control_c, 7, 11, 78
9, 51860, Control_c, 7, 11, 73
9, 51865, Control_c, 7, 11, 68
9, 51870, Control_c, 7, 11, 64
9, 51875, Control_c, 7, 11, 60
9, 51880, Control_c, 7, 11, 57
9, 51885, Control_c, 7, 11, 54
9, 51890, Control_c, 7, 11, 51
9, 51895, Control_c, 7, 11, 49
9, 51900, Control_c, 7, 11, 46
9, 51905, Control_c, 7, 11, 45
9, 51910, Control_c, 7, 11, 43
9, 51915, Control_c, 7, 11, 42
9, 51920, Control_c, 7, 11, 40
9, 51925, Control_c, 7, 11, 39
9, 51930, Control_c, 7, 11, 38
9, 51935, Control_c, 7, 11, 37
9, 51940, Control_c, 7, 11, 36
9, 51950, Control_c, 7, 11, 35
9, 51955, Control_c, 7, 11, 34
9, 51965, Control_c, 7, 11, 33
9, 51980, Control_c, 7, 11, 32
9, 51990, Control_c, 7, 11, 31
9, 52020, Control_c, 7, 11, 30
9, 52080, Control_c, 7, 11, 30
9, 52121, Note_on_c, 7, 68, 0
9, 52175, Control_c, 7, 11, 31
9, 52220, Control_c, 7, 11, 32
9, 52245, Control_c, 7, 11, 33
9, 52265, Control_c, 7, 11, 34
9, 52280, Control_c, 7, 11, 35
9, 52290, Control_c, 7, 11, 36
9, 52305, Control_c, 7, 11, 37
9, 52315, Control_c, 7, 11, 38
9, 52320, Control_c, 7, 11, 39
9, 52325, Control_c, 7, 11, 40
9, 52335, Control_c, 7, 11, 42
9, 52345, Control_c, 7, 11, 43
9, 52350, Control_c, 7, 11, 44
9, 52355, Control_c, 7, 11, 45
9, 52360, Control_c, 7, 11, 47
9, 52365, Control_c, 7, 11, 48
9, 52370, Control_c, 7, 11, 50
9, 52375, Control_c, 7, 11, 51
9, 52380, Control_c, 7, 11, 52
9, 52385, Control_c, 7, 11, 55
9, 52390, Control_c, 7, 11, 56
9, 52391, Note_on_c, 7, 56, 0
9, 52395, Control_c, 7, 11, 59
9, 52400, Control_c, 7, 11, 61
9, 52405, Control_c, 7, 11, 64
9, 52410, Control_c, 7, 11, 66
9, 52415, Control_c, 7, 11, 68
9, 52420, Control_c, 7, 11, 72
9, 52425, Control_c, 7, 11, 75
9, 52430, Control_c, 7, 11, 79
9, 52435, Control_c, 7, 11, 82
9, 52440, Control_c, 7, 11, 87
9, 52445, Control_c, 7, 11, 91
9, 52450, Control_c, 7, 11, 95
9, 52454, Control_c, 7, 11, 100
9, 52454, Note_on_c, 7, 56, 55
9, 52458, Note_on_c, 7, 68, 73
9, 52491, Note_on_c, 7, 56, 0
9, 52493, Note_on_c, 7, 68, 0
9, 52533, Note_on_c, 7, 68, 69
9, 52544, Note_on_c, 7, 56, 75
9, 52575, Note_on_c, 7, 68, 0
9, 52580, Note_on_c, 7, 56, 0
9, 52612, Note_on_c, 7, 68, 89
9, 52613, Note_on_c, 7, 56, 86
9, 52656, Note_on_c, 7, 56, 0
9, 52656, Note_on_c, 7, 68, 0
9, 52682, Note_on_c, 7, 56, 90
9, 52685, Note_on_c, 7, 68, 90
9, 52741, Note_on_c, 7, 68, 0
9, 52766, Note_on_c, 7, 56, 0
9, 52771, Note_on_c, 7, 71, 96
9, 52773, Note_on_c, 7, 59, 96
9, 52845, Note_on_c, 7, 71, 0
9, 52859, Note_on_c, 7, 59, 0
9, 52945, Note_on_c, 7, 59, 93
9, 52945, Note_on_c, 7, 71, 96
9, 53006, Note_on_c, 7, 71, 0
9, 53010, Note_on_c, 7, 59, 0
9, 53124, Control_c, 7, 11, 100
9, 53124, Note_on_c, 7, 59, 80
9, 53128, Note_on_c, 7, 71, 92
9, 53224, Control_c, 7, 11, 99
9, 53264, Control_c, 7, 11, 98
9, 53294, Control_c, 7, 11, 97
9, 53309, Control_c, 7, 11, 96
9, 53324, Control_c, 7, 11, 95
9, 53339, Control_c, 7, 11, 94
9, 53349, Control_c, 7, 11, 93
9, 53359, Control_c, 7, 11, 92
9, 53369, Control_c, 7, 11, 91
9, 53374, Control_c, 7, 11, 90
9, 53384, Control_c, 7, 11, 89
9, 53389, Control_c, 7, 11, 88
9, 53394, Control_c, 7, 11, 87
9, 53399, Control_c, 7, 11, 86
9, 53404, Control_c, 7, 11, 85
9, 53409, Control_c, 7, 11, 84
9, 53414, Control_c, 7, 11, 83
9, 53419, Control_c, 7, 11, 81
9, 53424, Control_c, 7, 11, 80
9, 53429, Control_c, 7, 11, 78
9, 53434, Control_c, 7, 11, 77
9, 53439, Control_c, 7, 11, 75
9, 53444, Control_c, 7, 11, 73
9, 53449, Control_c, 7, 11, 71
9, 53454, Control_c, 7, 11, 69
9, 53459, Control_c, 7, 11, 66
9, 53464, Control_c, 7, 11, 64
9, 53469, Control_c, 7, 11, 61
9, 53474, Control_c, 7, 11, 59
9, 53479, Control_c, 7, 11, 55
9, 53484, Control_c, 7, 11, 52
9, 53489, Control_c, 7, 11, 49
9, 53494, Control_c, 7, 11, 45
9, 53499, Control_c, 7, 11, 40
9, 53504, Control_c, 7, 11, 36
9, 53509, Control_c, 7, 11, 32
9, 53514, Control_c, 7, 11, 27
9, 53519, Control_c, 7, 11, 20
9, 53544, Control_c, 7, 11, 21
9, 53569, Control_c, 7, 11, 22
9, 53594, Control_c, 7, 11, 23
9, 53619, Control_c, 7, 11, 24
9, 53639, Control_c, 7, 11, 25
9, 53664, Control_c, 7, 11, 26
9, 53689, Control_c, 7, 11, 27
9, 53714, Control_c, 7, 11, 28
9, 53739, Control_c, 7, 11, 29
9, 53759, Control_c, 7, 11, 30
9, 53784, Control_c, 7, 11, 31
9, 53809, Control_c, 7, 11, 32
9, 53834, Control_c, 7, 11, 33
9, 53859, Control_c, 7, 11, 34
9, 53879, Control_c, 7, 11, 35
9, 53904, Control_c, 7, 11, 36
9, 53929, Control_c, 7, 11, 37
9, 53954, Control_c, 7, 11, 38
9, 53979, Control_c, 7, 11, 39
9, 53999, Control_c, 7, 11, 40
9, 54024, Control_c, 7, 11, 41
9, 54049, Control_c, 7, 11, 42
9, 54074, Control_c, 7, 11, 43
9, 54099, Control_c, 7, 11, 44
9, 54119, Control_c, 7, 11, 45
9, 54144, Control_c, 7, 11, 46
9, 54169, Control_c, 7, 11, 47
9, 54194, Control_c, 7, 11, 48
9, 54219, Control_c, 7, 11, 49
9, 54239, Control_c, 7, 11, 50
9, 54264, Control_c, 7, 11, 51
9, 54289, Control_c, 7, 11, 52
9, 54314, Control_c, 7, 11, 53
9, 54339, Control_c, 7, 11, 54
9, 54359, Control_c, 7, 11, 55
9, 54384, Control_c, 7, 11, 56
9, 54409, Control_c, 7, 11, 57
9, 54434, Control_c, 7, 11, 58
9, 54459, Control_c, 7, 11, 59
9, 54479, Control_c, 7, 11, 60
9, 54504, Control_c, 7, 11, 61
9, 54529, Control_c, 7, 11, 62
9, 54554, Control_c, 7, 11, 63
9, 54579, Control_c, 7, 11, 64
9, 54599, Control_c, 7, 11, 65
9, 54624, Control_c, 7, 11, 66
9, 54649, Control_c, 7, 11, 67
9, 54674, Control_c, 7, 11, 68
9, 54699, Control_c, 7, 11, 69
9, 54719, Control_c, 7, 11, 70
9, 54744, Control_c, 7, 11, 71
9, 54769, Control_c, 7, 11, 72
9, 54794, Control_c, 7, 11, 73
9, 54819, Control_c, 7, 11, 74
9, 54839, Control_c, 7, 11, 75
9, 54864, Control_c, 7, 11, 76
9, 54889, Control_c, 7, 11, 77
9, 54914, Control_c, 7, 11, 78
9, 54939, Control_c, 7, 11, 79
9, 54959, Control_c, 7, 11, 80
9, 54984, Control_c, 7, 11, 81
9, 55009, Control_c, 7, 11, 82
9, 55034, Control_c, 7, 11, 83
9, 55059, Control_c, 7, 11, 84
9, 55079, Control_c, 7, 11, 85
9, 55104, Control_c, 7, 11, 86
9, 55129, Control_c, 7, 11, 87
9, 55154, Control_c, 7, 11, 88
9, 55179, Control_c, 7, 11, 89
9, 55199, Control_c, 7, 11, 90
9, 55224, Control_c, 7, 11, 91
9, 55249, Control_c, 7, 11, 92
9, 55274, Control_c, 7, 11, 93
9, 55299, Control_c, 7, 11, 94
9, 55319, Control_c, 7, 11, 95
9, 55344, Control_c, 7, 11, 96
9, 55369, Control_c, 7, 11, 97
9, 55394, Control_c, 7, 11, 98
9, 55419, Control_c, 7, 11, 99
9, 55439, Control_c, 7, 11, 100
9, 55486, Note_on_c, 7, 71, 0
9, 55486, Note_on_c, 7, 59, 0
9, 55507, Note_on_c, 7, 68, 76
9, 55512, Note_on_c, 7, 59, 64
9, 55673, Note_on_c, 7, 69, 71
9, 55702, Note_on_c, 7, 68, 0
9, 55808, Note_on_c, 7, 59, 0
9, 55837, Note_on_c, 7, 68, 88
9, 55839, Note_on_c, 7, 59, 66
9, 55876, Note_on_c, 7, 69, 0
9, 56000, Note_on_c, 7, 66, 87
9, 56031, Note_on_c, 7, 68, 0
9, 56133, Note_on_c, 7, 66, 0
9, 56133, Note_on_c, 7, 59, 0
9, 56158, Note_on_c, 7, 68, 96
9, 56159, Note_on_c, 7, 59, 82
9, 56312, Note_on_c, 7, 69, 87
9, 56343, Note_on_c, 7, 68, 0
9, 56444, Note_on_c, 7, 59, 0
9, 56468, Note_on_c, 7, 68, 99
9, 56470, Note_on_c, 7, 59, 92
9, 56503, Note_on_c, 7, 69, 0
9, 56597, Note_on_c, 7, 59, 0
9, 56614, Note_on_c, 7, 59, 94
9, 56615, Note_on_c, 7, 66, 99
9, 56659, Note_on_c, 7, 68, 0
9, 56733, Note_on_c, 7, 66, 0
9, 56739, Note_on_c, 7, 59, 0
9, 56920, Note_on_c, 7, 71, 92
9, 56921, Note_on_c, 7, 59, 92
9, 57062, Note_on_c, 7, 71, 0
9, 57064, Note_on_c, 7, 59, 0
9, 57238, Note_on_c, 7, 59, 92
9, 57239, Note_on_c, 7, 71, 88
9, 57577, Note_on_c, 7, 71, 0
9, 57580, Note_on_c, 7, 59, 0
9, 60654, Note_on_c, 7, 71, 67
9, 65336, Note_on_c, 7, 64, 94
9, 65372, Note_on_c, 7, 71, 0
9, 65392, Note_on_c, 7, 64, 0
9, 65504, Note_on_c, 7, 52, 92
9, 65510, Note_on_c, 7, 64, 93
9, 65543, Note_on_c, 7, 64, 0
9, 65545, Note_on_c, 7, 52, 0
9, 65682, Note_on_c, 7, 64, 99
9, 65683, Note_on_c, 7, 52, 99
9, 65715, Note_on_c, 7, 64, 0
9, 65725, Note_on_c, 7, 52, 0
9, 65847, Note_on_c, 7, 64, 99
9, 65848, Note_on_c, 7, 52, 99
9, 65880, Note_on_c, 7, 64, 0
9, 65891, Note_on_c, 7, 52, 0
9, 66012, Note_on_c, 7, 52, 99
9, 66014, Note_on_c, 7, 64, 99
9, 66344, Note_on_c, 7, 64, 0
9, 66351, Note_on_c, 7, 52, 0
9, 66457, Note_on_c, 7, 64, 99
9, 66461, Note_on_c, 7, 52, 95
9, 66493, Note_on_c, 7, 64, 0
9, 66499, Note_on_c, 7, 52, 0
9, 66622, Note_on_c, 7, 52, 98
9, 66624, Note_on_c, 7, 64, 99
9, 66907, Note_on_c, 7, 64, 0
9, 66917, Note_on_c, 7, 52, 0
9, 66936, Note_on_c, 7, 64, 85
9, 66941, Note_on_c, 7, 52, 96
9, 66978, Note_on_c, 7, 64, 0
9, 66982, Note_on_c, 7, 52, 0
9, 67082, Note_on_c, 7, 64, 89
9, 67082, Note_on_c, 7, 52, 98
9, 67122, Note_on_c, 7, 52, 0
9, 67122, Note_on_c, 7, 64, 0
9, 67233, Note_on_c, 7, 52, 95
9, 67238, Note_on_c, 7, 64, 99
9, 67502, Note_on_c, 7, 64, 0
9, 67507, Note_on_c, 7, 52, 0
9, 67530, Note_on_c, 7, 64, 81
9, 67533, Note_on_c, 7, 52, 96
9, 67570, Note_on_c, 7, 64, 0
9, 67578, Note_on_c, 7, 52, 0
9, 67676, Note_on_c, 7, 64, 92
9, 67681, Note_on_c, 7, 52, 87
9, 67713, Note_on_c, 7, 64, 0
9, 67718, Note_on_c, 7, 52, 0
9, 67849, Note_on_c, 7, 71, 56
9, 67852, Note_on_c, 7, 59, 50
9, 67880, Note_on_c, 7, 71, 0
9, 67886, Note_on_c, 7, 59, 0
9, 67919, Note_on_c, 7, 59, 36
9, 67919, Note_on_c, 7, 71, 51
9, 67954, Note_on_c, 7, 71, 0
9, 67965, Note_on_c, 7, 59, 0
9, 67981, Note_on_c, 7, 59, 47
9, 67986, Note_on_c, 7, 71, 50
9, 68017, Note_on_c, 7, 59, 0
9, 68025, Note_on_c, 7, 71, 0
9, 68052, Note_on_c, 7, 59, 33
9, 68054, Note_on_c, 7, 71, 51
9, 68094, Note_on_c, 7, 71, 0
9, 68117, Note_on_c, 7, 59, 0
9, 68151, Note_on_c, 7, 68, 47
9, 68164, Note_on_c, 7, 64, 29
9, 68398, Note_on_c, 7, 68, 0
9, 68462, Note_on_c, 7, 66, 33
9, 68787, Note_on_c, 7, 63, 26
9, 68815, Note_on_c, 7, 64, 0
9, 69001, Note_on_c, 7, 66, 0
9, 69012, Note_on_c, 7, 63, 0
9, 69141, Note_on_c, 7, 71, 53
9, 69148, Note_on_c, 7, 59, 47
9, 69174, Note_on_c, 7, 71, 0
9, 69180, Note_on_c, 7, 59, 0
9, 69212, Note_on_c, 7, 71, 44
9, 69215, Note_on_c, 7, 59, 47
9, 69247, Note_on_c, 7, 71, 0
9, 69249, Note_on_c, 7, 59, 0
9, 69280, Note_on_c, 7, 71, 46
9, 69281, Note_on_c, 7, 59, 32
9, 69309, Note_on_c, 7, 59, 0
9, 69314, Note_on_c, 7, 71, 0
9, 69350, Note_on_c, 7, 71, 35
9, 69353, Note_on_c, 7, 59, 32
9, 69376, Note_on_c, 7, 71, 0
9, 69393, Note_on_c, 7, 59, 0
9, 69443, Note_on_c, 7, 68, 31
9, 69455, Note_on_c, 7, 64, 23
9, 69633, Note_on_c, 7, 68, 0
9, 69767, Note_on_c, 7, 66, 33
9, 70101, Note_on_c, 7, 63, 28
9, 70109, Note_on_c, 7, 64, 0
9, 70444, Note_on_c, 7, 66, 0
9, 70446, Note_on_c, 7, 63, 0
9, 70595, Note_on_c, 7, 71, 97
9, 70604, Note_on_c, 7, 59, 87
9, 70668, Note_on_c, 7, 59, 0
9, 70754, Note_on_c, 7, 71, 0
9, 70769, Note_on_c, 7, 64, 88
9, 70773, Note_on_c, 7, 71, 90
9, 71017, Note_on_c, 7, 71, 0
9, 71078, Note_on_c, 7, 69, 89
9, 71520, Note_on_c, 7, 64, 0
9, 71537, Note_on_c, 7, 63, 95
9, 71552, Note_on_c, 7, 69, 0
9, 71691, Note_on_c, 7, 68, 92
9, 71912, Note_on_c, 7, 63, 0
9, 71980, Note_on_c, 7, 61, 96
9, 72006, Note_on_c, 7, 68, 0
9, 72028, Note_on_c, 7, 61, 0
9, 72137, Note_on_c, 7, 66, 94
9, 72178, Note_on_c, 7, 66, 0
9, 72311, Note_on_c, 7, 66, 91
9, 72317, Note_on_c, 7, 59, 84
9, 72590, Note_on_c, 7, 66, 0
9, 72591, Note_on_c, 7, 59, 0
9, 72619, Note_on_c, 7, 68, 88
9, 72624, Note_on_c, 7, 64, 89
9, 72666, Note_on_c, 7, 64, 0
9, 72671, Note_on_c, 7, 68, 0
9, 72784, Note_on_c, 7, 66, 99
9, 72789, Note_on_c, 7, 59, 97
9, 72835, Note_on_c, 7, 66, 0
9, 72850, Note_on_c, 7, 59, 0
9, 73098, Note_on_c, 7, 71, 78
9, 73105, Note_on_c, 7, 59, 80
9, 73141, Note_on_c, 7, 59, 0
9, 73266, Note_on_c, 7, 64, 92
9, 73543, Note_on_c, 7, 71, 0
9, 73583, Note_on_c, 7, 69, 88
9, 74042, Note_on_c, 7, 64, 0
9, 74063, Note_on_c, 7, 63, 92
9, 74176, Note_on_c, 7, 69, 0
9, 74227, Note_on_c, 7, 68, 92
9, 74466, Note_on_c, 7, 63, 0
9, 74512, Note_on_c, 7, 61, 88
9, 74533, Note_on_c, 7, 68, 0
9, 74666, Note_on_c, 7, 66, 99
9, 74705, Note_on_c, 7, 61, 0
9, 74829, Note_on_c, 7, 59, 74
9, 74930, Note_on_c, 7, 66, 0
9, 74973, Note_on_c, 7, 64, 82
9, 75152, Note_on_c, 7, 59, 0
9, 75229, Note_on_c, 7, 64, 0
9, 75258, Note_on_c, 7, 66, 96
9, 75261, Note_on_c, 7, 59, 92
9, 75450, Note_on_c, 7, 59, 0
9, 75454, Note_on_c, 7, 66, 0
9, 75569, Note_on_c, 7, 66, 90
9, 75577, Note_on_c, 7, 59, 72
9, 75598, Note_on_c, 7, 59, 0
9, 75603, Note_on_c, 7, 66, 0
9, 75623, Note_on_c, 7, 59, 70
9, 75630, Note_on_c, 7, 66, 84
9, 75675, Note_on_c, 7, 66, 0
9, 75680, Note_on_c, 7, 59, 0
9, 75699, Note_on_c, 7, 68, 86
9, 75701, Note_on_c, 7, 64, 84
9, 75742, Note_on_c, 7, 68, 0
9, 75744, Note_on_c, 7, 64, 0
9, 75856, Note_on_c, 7, 66, 91
9, 75866, Note_on_c, 7, 59, 79
9, 76054, Note_on_c, 7, 59, 0
9, 76056, Note_on_c, 7, 66, 0
9, 76162, Note_on_c, 7, 66, 79
9, 76165, Note_on_c, 7, 59, 72
9, 76185, Note_on_c, 7, 59, 0
9, 76195, Note_on_c, 7, 66, 0
9, 76226, Note_on_c, 7, 66, 76
9, 76227, Note_on_c, 7, 59, 69
9, 76265, Note_on_c, 7, 59, 0
9, 76268, Note_on_c, 7, 66, 0
9, 76296, Note_on_c, 7, 68, 85
9, 76302, Note_on_c, 7, 64, 83
9, 76348, Note_on_c, 7, 68, 0
9, 76349, Note_on_c, 7, 64, 0
9, 76472, Note_on_c, 7, 66, 88
9, 76477, Note_on_c, 7, 59, 85
9, 76664, Note_on_c, 7, 59, 0
9, 76665, Note_on_c, 7, 66, 0
9, 76781, Note_on_c, 7, 66, 70
9, 76787, Note_on_c, 7, 59, 57
9, 76809, Note_on_c, 7, 66, 0
9, 76818, Note_on_c, 7, 59, 0
9, 76845, Note_on_c, 7, 66, 80
9, 76864, Note_on_c, 7, 59, 18
9, 76893, Note_on_c, 7, 66, 0
9, 76900, Note_on_c, 7, 59, 0
9, 76922, Note_on_c, 7, 68, 88
9, 76924, Note_on_c, 7, 64, 88
9, 76998, Note_on_c, 7, 68, 0
9, 77001, Note_on_c, 7, 64, 0
9, 77262, Note_on_c, 7, 64, 89
9, 77262, Note_on_c, 7, 71, 89
9, 77331, Note_on_c, 7, 71, 0
9, 77338, Note_on_c, 7, 64, 0
9, 77579, Note_on_c, 7, 64, 84
9, 77584, Note_on_c, 7, 52, 92
9, 77718, Note_on_c, 7, 52, 0
9, 77725, Note_on_c, 7, 64, 0
9, 103476, Note_on_c, 7, 52, 26
9, 103480, Note_on_c, 7, 64, 25
9, 104160, Control_c, 7, 11, 100
9, 104210, Control_c, 7, 11, 99
9, 104260, Control_c, 7, 11, 98
9, 104305, Control_c, 7, 11, 97
9, 104355, Control_c, 7, 11, 96
9, 104400, Control_c, 7, 11, 95
9, 104450, Control_c, 7, 11, 94
9, 104500, Control_c, 7, 11, 93
9, 104545, Control_c, 7, 11, 92
9, 104595, Control_c, 7, 11, 91
9, 104640, Control_c, 7, 11, 90
9, 104690, Control_c, 7, 11, 89
9, 104740, Control_c, 7, 11, 88
9, 104785, Control_c, 7, 11, 87
9, 104835, Control_c, 7, 11, 86
9, 104880, Control_c, 7, 11, 85
9, 104930, Control_c, 7, 11, 84
9, 104980, Control_c, 7, 11, 83
9, 105025, Control_c, 7, 11, 82
9, 105075, Control_c, 7, 11, 81
9, 105120, Control_c, 7, 11, 80
9, 105170, Control_c, 7, 11, 79
9, 105220, Control_c, 7, 11, 78
9, 105265, Control_c, 7, 11, 77
9, 105315, Control_c, 7, 11, 76
9, 105360, Control_c, 7, 11, 75
9, 105410, Control_c, 7, 11, 74
9, 105460, Control_c, 7, 11, 73
9, 105505, Control_c, 7, 11, 72
9, 105555, Control_c, 7, 11, 71
9, 105600, Control_c, 7, 11, 70
9, 105650, Control_c, 7, 11, 69
9, 105700, Control_c, 7, 11, 68
9, 105745, Control_c, 7, 11, 67
9, 105795, Control_c, 7, 11, 66
9, 105840, Control_c, 7, 11, 65
9, 105890, Control_c, 7, 11, 64
9, 105940, Control_c, 7, 11, 63
9, 105985, Control_c, 7, 11, 62
9, 106035, Control_c, 7, 11, 61
9, 106080, Control_c, 7, 11, 60
9, 106144, Note_on_c, 7, 64, 0
9, 106180, Note_on_c, 7, 52, 0
9, 140160, Control_c, 7, 11, 100
9, 140601, Note_on_c, 7, 69, 68
9, 141089, Note_on_c, 7, 69, 0
9, 141282, Note_on_c, 7, 69, 87
9, 141659, Note_on_c, 7, 69, 0
9, 143531, Note_on_c, 7, 69, 93
9, 143532, Note_on_c, 7, 66, 91
9, 143587, Note_on_c, 7, 66, 0
9, 143602, Note_on_c, 7, 69, 0
9, 143705, Note_on_c, 7, 64, 92
9, 143706, Note_on_c, 7, 69, 97
9, 143812, Note_on_c, 7, 64, 0
9, 143814, Note_on_c, 7, 69, 0
9, 144072, Note_on_c, 7, 71, 91
9, 144081, Note_on_c, 7, 64, 92
9, 144470, Note_on_c, 7, 64, 0
9, 144484, Note_on_c, 7, 69, 87
9, 144495, Note_on_c, 7, 64, 92
9, 144525, Note_on_c, 7, 71, 0
9, 144592, Note_on_c, 7, 69, 0
9, 144593, Note_on_c, 7, 64, 0
9, 175774, Note_on_c, 7, 62, 56
9, 177933, Note_on_c, 7, 64, 50
9, 177950, Note_on_c, 7, 62, 0
9, 178290, Note_on_c, 7, 66, 52
9, 178362, Note_on_c, 7, 64, 0
9, 178749, Note_on_c, 7, 66, 0
9, 201406, Note_on_c, 7, 64, 93
9, 201470, Note_on_c, 7, 64, 0
9, 201581, Note_on_c, 7, 68, 86
9, 201584, Note_on_c, 7, 64, 91
9, 201755, Note_on_c, 7, 66, 85
9, 201770, Note_on_c, 7, 64, 0
9, 201780, Note_on_c, 7, 68, 0
9, 201864, Note_on_c, 7, 66, 0
9, 201909, Note_on_c, 7, 59, 80
9, 201909, Note_on_c, 7, 66, 81
9, 201963, Note_on_c, 7, 66, 0
9, 201983, Note_on_c, 7, 59, 0
9, 202079, Note_on_c, 7, 59, 72
9, 202082, Note_on_c, 7, 71, 69
9, 202136, Note_on_c, 7, 71, 0
9, 202148, Note_on_c, 7, 59, 0
9, 202252, Note_on_c, 7, 66, 84
9, 202388, Note_on_c, 7, 66, 0
9, 202580, Note_on_c, 7, 59, 88
9, 202583, Note_on_c, 7, 71, 93
9, 202626, Note_on_c, 7, 59, 0
9, 202629, Note_on_c, 7, 71, 0
9, 202749, Note_on_c, 7, 59, 93
9, 202755, Note_on_c, 7, 47, 96
9, 202794, Note_on_c, 7, 59, 0
9, 202823, Note_on_c, 7, 47, 0
9, 202919, Note_on_c, 7, 66, 75
9, 203072, Note_on_c, 7, 59, 72
9, 203232, Note_on_c, 7, 64, 74
9, 203257, Note_on_c, 7, 66, 0
9, 203260, Note_on_c, 7, 59, 0
9, 203284, Note_on_c, 7, 64, 0
9, 203398, Note_on_c, 7, 52, 84
9, 203400, Note_on_c, 7, 64, 78
9, 203448, Note_on_c, 7, 64, 0
9, 203454, Note_on_c, 7, 52, 0
9, 203564, Note_on_c, 7, 71, 94
9, 203572, Note_on_c, 7, 59, 96
9, 203717, Note_on_c, 7, 59, 0
9, 203722, Note_on_c, 7, 71, 0
9, 203907, Note_on_c, 7, 64, 86
9, 203913, Note_on_c, 7, 52, 89
9, 204264, Note_on_c, 7, 64, 0
9, 204267, Note_on_c, 7, 52, 0
9, 204585, Note_on_c, 7, 64, 76
9, 204587, Note_on_c, 7, 52, 71
9, 204942, Note_on_c, 7, 64, 0
9, 204946, Note_on_c, 7, 52, 0
9, 205273, Note_on_c, 7, 64, 82
9, 205279, Note_on_c, 7, 52, 78
9, 205429, Note_on_c, 7, 64, 0
9, 205456, Note_on_c, 7, 52, 0
9, 205596, Note_on_c, 7, 68, 78
9, 205616, Note_on_c, 7, 64, 54
9, 205797, Note_on_c, 7, 64, 0
9, 205798, Note_on_c, 7, 68, 0
9, 205940, Note_on_c, 7, 71, 98
9, 205942, Note_on_c, 7, 59, 89
9, 206133, Note_on_c, 7, 71, 0
9, 206149, Note_on_c, 7, 59, 0
9, 206283, Note_on_c, 7, 71, 94
9, 206284, Note_on_c, 7, 68, 94
9, 206367, Note_on_c, 7, 71, 0
9, 206373, Note_on_c, 7, 68, 0
9, 206452, Note_on_c, 7, 63, 99
9, 206567, Note_on_c, 7, 63, 0
9, 206625, Note_on_c, 7, 68, 88
9, 206626, Note_on_c, 7, 56, 86
9, 206685, Note_on_c, 7, 68, 0
9, 206687, Note_on_c, 7, 56, 0
9, 206793, Note_on_c, 7, 68, 93
9, 206797, Note_on_c, 7, 56, 87
9, 206838, Note_on_c, 7, 68, 0
9, 206842, Note_on_c, 7, 56, 0
9, 206957, Note_on_c, 7, 68, 83
9, 206961, Note_on_c, 7, 56, 78
9, 207011, Note_on_c, 7, 68, 0
9, 207026, Note_on_c, 7, 56, 0
9, 207119, Note_on_c, 7, 68, 96
9, 207124, Note_on_c, 7, 56, 93
9, 207168, Note_on_c, 7, 68, 0
9, 207172, Note_on_c, 7, 56, 0
9, 207294, Note_on_c, 7, 56, 94
9, 207295, Note_on_c, 7, 68, 95
9, 207360, Control_c, 7, 11, 100
9, 207365, Control_c, 7, 11, 91
9, 207370, Control_c, 7, 11, 84
9, 207375, Control_c, 7, 11, 78
9, 207380, Control_c, 7, 11, 73
9, 207385, Control_c, 7, 11, 68
9, 207390, Control_c, 7, 11, 64
9, 207395, Control_c, 7, 11, 60
9, 207400, Control_c, 7, 11, 57
9, 207405, Control_c, 7, 11, 54
9, 207410, Control_c, 7, 11, 51
9, 207415, Control_c, 7, 11, 49
9, 207420, Control_c, 7, 11, 46
9, 207425, Control_c, 7, 11, 45
9, 207430, Control_c, 7, 11, 43
9, 207435, Control_c, 7, 11, 42
9, 207440, Control_c, 7, 11, 40
9, 207445, Control_c, 7, 11, 39
9, 207450, Control_c, 7, 11, 38
9, 207455, Control_c, 7, 11, 37
9, 207460, Control_c, 7, 11, 36
9, 207470, Control_c, 7, 11, 35
9, 207475, Control_c, 7, 11, 34
9, 207485, Control_c, 7, 11, 33
9, 207500, Control_c, 7, 11, 32
9, 207510, Control_c, 7, 11, 31
9, 207540, Control_c, 7, 11, 30
9, 207660, Control_c, 7, 11, 31
9, 207669, Note_on_c, 7, 68, 0
9, 207720, Control_c, 7, 11, 32
9, 207750, Control_c, 7, 11, 33
9, 207775, Control_c, 7, 11, 34
9, 207795, Control_c, 7, 11, 35
9, 207810, Control_c, 7, 11, 36
9, 207825, Control_c, 7, 11, 37
9, 207835, Control_c, 7, 11, 38
9, 207845, Control_c, 7, 11, 39
9, 207855, Control_c, 7, 11, 40
9, 207860, Control_c, 7, 11, 41
9, 207870, Control_c, 7, 11, 42
9, 207875, Control_c, 7, 11, 43
9, 207885, Control_c, 7, 11, 44
9, 207890, Control_c, 7, 11, 45
9, 207895, Control_c, 7, 11, 46
9, 207900, Control_c, 7, 11, 47
9, 207905, Control_c, 7, 11, 48
9, 207910, Control_c, 7, 11, 49
9, 207915, Control_c, 7, 11, 51
9, 207920, Control_c, 7, 11, 52
9, 207925, Control_c, 7, 11, 54
9, 207930, Control_c, 7, 11, 55
9, 207935, Control_c, 7, 11, 56
9, 207940, Control_c, 7, 11, 58
9, 207945, Control_c, 7, 11, 59
9, 207950, Control_c, 7, 11, 61
9, 207952, Note_on_c, 7, 56, 0
9, 207955, Control_c, 7, 11, 64
9, 207960, Control_c, 7, 11, 65
9, 207965, Control_c, 7, 11, 68
9, 207970, Control_c, 7, 11, 70
9, 207975, Control_c, 7, 11, 72
9, 207980, Control_c, 7, 11, 75
9, 207985, Control_c, 7, 11, 78
9, 207990, Control_c, 7, 11, 81
9, 207995, Control_c, 7, 11, 83
9, 208000, Control_c, 7, 11, 87
9, 208005, Control_c, 7, 11, 91
9, 208010, Control_c, 7, 11, 93
9, 208015, Control_c, 7, 11, 99
9, 208017, Control_c, 7, 11, 100
9, 208017, Note_on_c, 7, 68, 65
9, 208019, Note_on_c, 7, 56, 52
9, 208056, Note_on_c, 7, 68, 0
9, 208061, Note_on_c, 7, 56, 0
9, 208104, Note_on_c, 7, 68, 72
9, 208115, Note_on_c, 7, 56, 61
9, 208142, Note_on_c, 7, 56, 0
9, 208143, Note_on_c, 7, 68, 0
9, 208182, Note_on_c, 7, 68, 83
9, 208186, Note_on_c, 7, 56, 83
9, 208222, Note_on_c, 7, 56, 0
9, 208225, Note_on_c, 7, 68, 0
9, 208249, Note_on_c, 7, 68, 84
9, 208250, Note_on_c, 7, 56, 84
9, 208298, Note_on_c, 7, 56, 0
9, 208299, Note_on_c, 7, 68, 0
9, 208342, Note_on_c, 7, 68, 100
9, 208342, Note_on_c, 7, 56, 98
9, 208403, Note_on_c, 7, 68, 0
9, 208412, Note_on_c, 7, 56, 0
9, 208520, Note_on_c, 7, 68, 94
9, 208521, Note_on_c, 7, 56, 95
9, 208578, Note_on_c, 7, 56, 0
9, 208584, Note_on_c, 7, 68, 0
9, 208695, Note_on_c, 7, 56, 93
9, 208698, Note_on_c, 7, 68, 94
9, 208800, Control_c, 7, 11, 100
9, 208805, Control_c, 7, 11, 91
9, 208810, Control_c, 7, 11, 84
9, 208815, Control_c, 7, 11, 78
9, 208820, Control_c, 7, 11, 73
9, 208825, Control_c, 7, 11, 68
9, 208830, Control_c, 7, 11, 64
9, 208835, Control_c, 7, 11, 60
9, 208840, Control_c, 7, 11, 57
9, 208845, Control_c, 7, 11, 54
9, 208850, Control_c, 7, 11, 51
9, 208855, Control_c, 7, 11, 49
9, 208860, Control_c, 7, 11, 46
9, 208865, Control_c, 7, 11, 45
9, 208870, Control_c, 7, 11, 43
9, 208875, Control_c, 7, 11, 42
9, 208880, Control_c, 7, 11, 40
9, 208885, Control_c, 7, 11, 39
9, 208890, Control_c, 7, 11, 38
9, 208895, Control_c, 7, 11, 37
9, 208900, Control_c, 7, 11, 36
9, 208910, Control_c, 7, 11, 35
9, 208915, Control_c, 7, 11, 34
9, 208925, Control_c, 7, 11, 33
9, 208940, Control_c, 7, 11, 32
9, 208950, Control_c, 7, 11, 31
9, 208980, Control_c, 7, 11, 30
9, 209040, Control_c, 7, 11, 30
9, 209081, Note_on_c, 7, 68, 0
9, 209135, Control_c, 7, 11, 31
9, 209180, Control_c, 7, 11, 32
9, 209205, Control_c, 7, 11, 33
9, 209225, Control_c, 7, 11, 34
9, 209240, Control_c, 7, 11, 35
9, 209250, Control_c, 7, 11, 36
9, 209265, Control_c, 7, 11, 37
9, 209275, Control_c, 7, 11, 38
9, 209280, Control_c, 7, 11, 39
9, 209285, Control_c, 7, 11, 40
9, 209295, Control_c, 7, 11, 42
9, 209305, Control_c, 7, 11, 43
9, 209310, Control_c, 7, 11, 44
9, 209315, Control_c, 7, 11, 45
9, 209320, Control_c, 7, 11, 47
9, 209325, Control_c, 7, 11, 48
9, 209330, Control_c, 7, 11, 50
9, 209335, Control_c, 7, 11, 51
9, 209340, Control_c, 7, 11, 52
9, 209345, Control_c, 7, 11, 55
9, 209350, Control_c, 7, 11, 56
9, 209351, Note_on_c, 7, 56, 0
9, 209355, Control_c, 7, 11, 59
9, 209360, Control_c, 7, 11, 61
9, 209365, Control_c, 7, 11, 64
9, 209370, Control_c, 7, 11, 66
9, 209375, Control_c, 7, 11, 68
9, 209380, Control_c, 7, 11, 72
9, 209385, Control_c, 7, 11, 75
9, 209390, Control_c, 7, 11, 79
9, 209395, Control_c, 7, 11, 82
9, 209400, Control_c, 7, 11, 87
9, 209405, Control_c, 7, 11, 91
9, 209410, Control_c, 7, 11, 95
9, 209414, Control_c, 7, 11, 100
9, 209414, Note_on_c, 7, 56, 55
9, 209418, Note_on_c, 7, 68, 73
9, 209451, Note_on_c, 7, 56, 0
9, 209453, Note_on_c, 7, 68, 0
9, 209493, Note_on_c, 7, 68, 69
9, 209504, Note_on_c, 7, 56, 75
9, 209535, Note_on_c, 7, 68, 0
9, 209540, Note_on_c, 7, 56, 0
9, 209572, Note_on_c, 7, 68, 89
9, 209573, Note_on_c, 7, 56, 86
9, 209616, Note_on_c, 7, 56, 0
9, 209616, Note_on_c, 7, 68, 0
9, 209642, Note_on_c, 7, 56, 90
9, 209645, Note_on_c, 7, 68, 90
9, 209701, Note_on_c, 7, 68, 0
9, 209726, Note_on_c, 7, 56, 0
9, 209731, Note_on_c, 7, 71, 96
9, 209733, Note_on_c, 7, 59, 96
9, 209805, Note_on_c, 7, 71, 0
9, 209819, Note_on_c, 7, 59, 0
9, 209905, Note_on_c, 7, 59, 93
9, 209905, Note_on_c, 7, 71, 96
9, 209966, Note_on_c, 7, 71, 0
9, 209970, Note_on_c, 7, 59, 0
9, 210084, Control_c, 7, 11, 100
9, 210084, Note_on_c, 7, 59, 80
9, 210088, Note_on_c, 7, 71, 92
9, 210184, Control_c, 7, 11, 99
9, 210224, Control_c, 7, 11, 98
9, 210254, Control_c, 7, 11, 97
9, 210269, Control_c, 7, 11, 96
9, 210284, Control_c, 7, 11, 95
9, 210299, Control_c, 7, 11, 94
9, 210309, Control_c, 7, 11, 93
9, 210319, Control_c, 7, 11, 92
9, 210329, Control_c, 7, 11, 91
9, 210334, Control_c, 7, 11, 90
9, 210344, Control_c, 7, 11, 89
9, 210349, Control_c, 7, 11, 88
9, 210354, Control_c, 7, 11, 87
9, 210359, Control_c, 7, 11, 86
9, 210364, Control_c, 7, 11, 85
9, 210369, Control_c, 7, 11, 84
9, 210374, Control_c, 7, 11, 83
9, 210379, Control_c, 7, 11, 81
9, 210384, Control_c, 7, 11, 80
9, 210389, Control_c, 7, 11, 78
9, 210394, Control_c, 7, 11, 77
9, 210399, Control_c, 7, 11, 75
9, 210404, Control_c, 7, 11, 73
9, 210409, Control_c, 7, 11, 71
9, 210414, Control_c, 7, 11, 69
9, 210419, Control_c, 7, 11, 66
9, 210424, Control_c, 7, 11, 64
9, 210429, Control_c, 7, 11, 61
9, 210434, Control_c, 7, 11, 59
9, 210439, Control_c, 7, 11, 55
9, 210444, Control_c, 7, 11, 52
9, 210449, Control_c, 7, 11, 49
9, 210454, Control_c, 7, 11, 45
9, 210459, Control_c, 7, 11, 40
9, 210464, Control_c, 7, 11, 36
9, 210469, Control_c, 7, 11, 32
9, 210474, Control_c, 7, 11, 27
9, 210479, Control_c, 7, 11, 20
9, 210504, Control_c, 7, 11, 21
9, 210529, Control_c, 7, 11, 22
9, 210554, Control_c, 7, 11, 23
9, 210579, Control_c, 7, 11, 24
9, 210599, Control_c, 7, 11, 25
9, 210624, Control_c, 7, 11, 26
9, 210649, Control_c, 7, 11, 27
9, 210674, Control_c, 7, 11, 28
9, 210699, Control_c, 7, 11, 29
9, 210719, Control_c, 7, 11, 30
9, 210744, Control_c, 7, 11, 31
9, 210769, Control_c, 7, 11, 32
9, 210794, Control_c, 7, 11, 33
9, 210819, Control_c, 7, 11, 34
9, 210839, Control_c, 7, 11, 35
9, 210864, Control_c, 7, 11, 36
9, 210889, Control_c, 7, 11, 37
9, 210914, Control_c, 7, 11, 38
9, 210939, Control_c, 7, 11, 39
9, 210959, Control_c, 7, 11, 40
9, 210984, Control_c, 7, 11, 41
9, 211009, Control_c, 7, 11, 42
9, 211034, Control_c, 7, 11, 43
9, 211059, Control_c, 7, 11, 44
9, 211079, Control_c, 7, 11, 45
9, 211104, Control_c, 7, 11, 46
9, 211129, Control_c, 7, 11, 47
9, 211154, Control_c, 7, 11, 48
9, 211179, Control_c, 7, 11, 49
9, 211199, Control_c, 7, 11, 50
9, 211224, Control_c, 7, 11, 51
9, 211249, Control_c, 7, 11, 52
9, 211274, Control_c, 7, 11, 53
9, 211299, Control_c, 7, 11, 54
9, 211319, Control_c, 7, 11, 55
9, 211344, Control_c, 7, 11, 56
9, 211369, Control_c, 7, 11, 57
9, 211394, Control_c, 7, 11, 58
9, 211419, Control_c, 7, 11, 59
9, 211439, Control_c, 7, 11, 60
9, 211464, Control_c, 7, 11, 61
9, 211489, Control_c, 7, 11, 62
9, 211514, Control_c, 7, 11, 63
9, 211539, Control_c, 7, 11, 64
9, 211559, Control_c, 7, 11, 65
9, 211584, Control_c, 7, 11, 66
9, 211609, Control_c, 7, 11, 67
9, 211634, Control_c, 7, 11, 68
9, 211659, Control_c, 7, 11, 69
9, 211679, Control_c, 7, 11, 70
9, 211704, Control_c, 7, 11, 71
9, 211729, Control_c, 7, 11, 72
9, 211754, Control_c, 7, 11, 73
9, 211779, Control_c, 7, 11, 74
9, 211799, Control_c, 7, 11, 75
9, 211824, Control_c, 7, 11, 76
9, 211849, Control_c, 7, 11, 77
9, 211874, Control_c, 7, 11, 78
9, 211899, Control_c, 7, 11, 79
9, 211919, Control_c, 7, 11, 80
9, 211944, Control_c, 7, 11, 81
9, 211969, Control_c, 7, 11, 82
9, 211994, Control_c, 7, 11, 83
9, 212019, Control_c, 7, 11, 84
9, 212039, Control_c, 7, 11, 85
9, 212064, Control_c, 7, 11, 86
9, 212089, Control_c, 7, 11, 87
9, 212114, Control_c, 7, 11, 88
9, 212139, Control_c, 7, 11, 89
9, 212159, Control_c, 7, 11, 90
9, 212184, Control_c, 7, 11, 91
9, 212209, Control_c, 7, 11, 92
9, 212234, Control_c, 7, 11, 93
9, 212259, Control_c, 7, 11, 94
9, 212279, Control_c, 7, 11, 95
9, 212304, Control_c, 7, 11, 96
9, 212329, Control_c, 7, 11, 97
9, 212354, Control_c, 7, 11, 98
9, 212379, Control_c, 7, 11, 99
9, 212399, Control_c, 7, 11, 100
9, 212446, Note_on_c, 7, 71, 0
9, 212446, Note_on_c, 7, 59, 0
9, 212467, Note_on_c, 7, 68, 76
9, 212472, Note_on_c, 7, 59, 64
9, 212633, Note_on_c, 7, 69, 71
9, 212662, Note_on_c, 7, 68, 0
9, 212768, Note_on_c, 7, 59, 0
9, 212797, Note_on_c, 7, 68, 88
9, 212799, Note_on_c, 7, 59, 66
9, 212836, Note_on_c, 7, 69, 0
9, 212960, Note_on_c, 7, 66, 87
9, 212991, Note_on_c, 7, 68, 0
9, 213093, Note_on_c, 7, 66, 0
9, 213093, Note_on_c, 7, 59, 0
9, 213118, Note_on_c, 7, 68, 96
9, 213119, Note_on_c, 7, 59, 82
9, 213272, Note_on_c, 7, 69, 87
9, 213303, Note_on_c, 7, 68, 0
9, 213404, Note_on_c, 7, 59, 0
9, 213428, Note_on_c, 7, 68, 99
9, 213430, Note_on_c, 7, 59, 92
9, 213463, Note_on_c, 7, 69, 0
9, 213557, Note_on_c, 7, 59, 0
9, 213574, Note_on_c, 7, 59, 94
9, 213575, Note_on_c, 7, 66, 99
9, 213619, Note_on_c, 7, 68, 0
9, 213693, Note_on_c, 7, 66, 0
9, 213699, Note_on_c, 7, 59, 0
9, 213880, Note_on_c, 7, 71, 92
9, 213881, Note_on_c, 7, 59, 92
9, 214022, Note_on_c, 7, 71, 0
9, 214024, Note_on_c, 7, 59, 0
9, 214198, Note_on_c, 7, 59, 92
9, 214199, Note_on_c, 7, 71, 88
9, 214537, Note_on_c, 7, 71, 0
9, 214540, Note_on_c, 7, 59, 0
9, 217614, Note_on_c, 7, 71, 67
9, 222296, Note_on_c, 7, 64, 94
9, 222332, Note_on_c, 7, 71, 0
9, 222352, Note_on_c, 7, 64, 0
9, 222464, Note_on_c, 7, 52, 92
9, 222470, Note_on_c, 7, 64, 93
9, 222503, Note_on_c, 7, 64, 0
9, 222505, Note_on_c, 7, 52, 0
9, 222642, Note_on_c, 7, 64, 99
9, 222643, Note_on_c, 7, 52, 99
9, 222675, Note_on_c, 7, 64, 0
9, 222685, Note_on_c, 7, 52, 0
9, 222807, Note_on_c, 7, 64, 99
9, 222808, Note_on_c, 7, 52, 99
9, 222840, Note_on_c, 7, 64, 0
9, 222851, Note_on_c, 7, 52, 0
9, 222972, Note_on_c, 7, 52, 99
9, 222974, Note_on_c, 7, 64, 99
9, 223304, Note_on_c, 7, 64, 0
9, 223311, Note_on_c, 7, 52, 0
9, 223417, Note_on_c, 7, 64, 99
9, 223421, Note_on_c, 7, 52, 95
9, 223453, Note_on_c, 7, 64, 0
9, 223459, Note_on_c, 7, 52, 0
9, 223582, Note_on_c, 7, 52, 98
9, 223584, Note_on_c, 7, 64, 99
9, 223867, Note_on_c, 7, 64, 0
9, 223877, Note_on_c, 7, 52, 0
9, 223896, Note_on_c, 7, 64, 85
9, 223901, Note_on_c, 7, 52, 96
9, 223938, Note_on_c, 7, 64, 0
9, 223942, Note_on_c, 7, 52, 0
9, 224042, Note_on_c, 7, 64, 89
9, 224042, Note_on_c, 7, 52, 98
9, 224082, Note_on_c, 7, 52, 0
9, 224082, Note_on_c, 7, 64, 0
9, 224193, Note_on_c, 7, 52, 95
9, 224198, Note_on_c, 7, 64, 99
9, 224462, Note_on_c, 7, 64, 0
9, 224467, Note_on_c, 7, 52, 0
9, 224490, Note_on_c, 7, 64, 81
9, 224493, Note_on_c, 7, 52, 96
9, 224530, Note_on_c, 7, 64, 0
9, 224538, Note_on_c, 7, 52, 0
9, 224636, Note_on_c, 7, 64, 92
9, 224641, Note_on_c, 7, 52, 87
9, 224673, Note_on_c, 7, 64, 0
9, 224678, Note_on_c, 7, 52, 0
9, 224804, Control_c, 7, 11, 60
9, 224804, Note_on_c, 7, 68, 52
9, 224808, Note_on_c, 7, 56, 53
9, 225132, Note_on_c, 7, 64, 46
9, 225134, Note_on_c, 7, 56, 0
9, 225136, Note_on_c, 7, 61, 45
9, 225142, Note_on_c, 7, 68, 0
9, 225675, Note_on_c, 7, 64, 0
9, 225747, Note_on_c, 7, 61, 0
9, 225788, Note_on_c, 7, 68, 53
9, 225790, Note_on_c, 7, 64, 34
9, 225956, Note_on_c, 7, 66, 47
9, 226010, Note_on_c, 7, 64, 0
9, 226054, Note_on_c, 7, 66, 0
9, 226057, Note_on_c, 7, 68, 0
9, 226137, Note_on_c, 7, 56, 67
9, 226143, Note_on_c, 7, 68, 76
9, 226162, Note_on_c, 7, 56, 0
9, 226178, Note_on_c, 7, 68, 0
9, 226213, Note_on_c, 7, 56, 81
9, 226214, Note_on_c, 7, 68, 71
9, 226244, Note_on_c, 7, 56, 0
9, 226250, Note_on_c, 7, 68, 0
9, 226289, Note_on_c, 7, 68, 67
9, 226289, Note_on_c, 7, 56, 64
9, 226325, Note_on_c, 7, 56, 0
9, 226325, Note_on_c, 7, 68, 0
9, 226359, Note_on_c, 7, 56, 67
9, 226359, Note_on_c, 7, 68, 76
9, 226391, Note_on_c, 7, 56, 0
9, 226405, Note_on_c, 7, 68, 0
9, 226460, Note_on_c, 7, 64, 55
9, 226461, Note_on_c, 7, 61, 47
9, 227068, Note_on_c, 7, 64, 0
9, 227123, Note_on_c, 7, 61, 0
9, 227133, Note_on_c, 7, 68, 47
9, 227136, Note_on_c, 7, 64, 38
9, 227295, Note_on_c, 7, 66, 52
9, 227372, Note_on_c, 7, 64, 0
9, 227376, Note_on_c, 7, 66, 0
9, 227389, Note_on_c, 7, 68, 0
9, 227435, Note_on_c, 7, 56, 67
9, 227436, Note_on_c, 7, 68, 63
9, 227462, Note_on_c, 7, 56, 0
9, 227469, Note_on_c, 7, 68, 0
9, 227520, Control_c, 7, 11, 100
9, 227608, Note_on_c, 7, 68, 76
9, 227618, Note_on_c, 7, 56, 67
9, 227773, Note_on_c, 7, 64, 49
9, 227781, Note_on_c, 7, 56, 0
9, 228057, Note_on_c, 7, 64, 0
9, 228099, Note_on_c, 7, 66, 55
9, 228149, Note_on_c, 7, 68, 0
9, 228418, Note_on_c, 7, 69, 60
9, 228555, Note_on_c, 7, 68, 71
9, 228570, Note_on_c, 7, 69, 0
9, 228597, Note_on_c, 7, 68, 0
9, 228601, Note_on_c, 7, 66, 0
9, 228730, Note_on_c, 7, 68, 61
9, 228742, Note_on_c, 7, 64, 43
9, 229061, Note_on_c, 7, 64, 0
9, 229062, Note_on_c, 7, 66, 72
9, 229092, Note_on_c, 7, 68, 0
9, 229108, Note_on_c, 7, 66, 0
9, 229239, Note_on_c, 7, 66, 57
9, 229243, Note_on_c, 7, 69, 53
9, 229565, Note_on_c, 7, 66, 0
9, 229565, Note_on_c, 7, 68, 88
9, 229566, Note_on_c, 7, 64, 82
9, 229578, Note_on_c, 7, 69, 0
9, 229708, Note_on_c, 7, 64, 0
9, 229744, Note_on_c, 7, 66, 97
9, 229749, Note_on_c, 7, 68, 0
9, 229818, Note_on_c, 7, 66, 0
9, 229909, Note_on_c, 7, 69, 87
9, 229911, Note_on_c, 7, 66, 89
9, 230038, Note_on_c, 7, 66, 0
9, 230075, Note_on_c, 7, 66, 94
9, 230093, Note_on_c, 7, 69, 0
9, 230211, Note_on_c, 7, 66, 0
9, 230250, Note_on_c, 7, 64, 82
9, 230357, Note_on_c, 7, 64, 0
9, 230429, Note_on_c, 7, 56, 94
9, 230436, Note_on_c, 7, 68, 82
9, 230570, Note_on_c, 7, 56, 0
9, 230585, Note_on_c, 7, 68, 0
9, 278120, Note_on_c, 7, 66, 45
9, 279857, Note_on_c, 7, 59, 15
9, 279858, Note_on_c, 7, 71, 14
9, 279917, Note_on_c, 7, 66, 0
9, 280121, Note_on_c, 7, 59, 0
9, 280126, Note_on_c, 7, 71, 0
9, 316141, Note_on_c, 7, 64, 94
9, 316152, Note_on_c, 7, 52, 96
9, 316211, Note_on_c, 7, 64, 0
9, 316242, Note_on_c, 7, 52, 0
9, 316346, Note_on_c, 7, 59, 90
9, 316347, Note_on_c, 7, 68, 96
9, 316436, Note_on_c, 7, 59, 0
9, 316451, Note_on_c, 7, 68, 0
9, 316722, Note_on_c, 7, 66, 99
9, 316733, Note_on_c, 7, 59, 99
9, 316794, Note_on_c, 7, 59, 0
9, 316841, Note_on_c, 7, 59, 97
9, 316896, Note_on_c, 7, 59, 0
9, 316944, Note_on_c, 7, 59, 96
9, 317011, Note_on_c, 7, 59, 0
9, 317052, Note_on_c, 7, 59, 99
9, 317130, Note_on_c, 7, 59, 0
9, 317227, Note_on_c, 7, 68, 99
9, 317234, Note_on_c, 7, 52, 93
9, 317258, Note_on_c, 7, 66, 0
9, 317381, Note_on_c, 7, 52, 0
9, 317411, Note_on_c, 7, 68, 0
9, 319680, Control_c, 7, 11, 80
9, 319864, Note_on_c, 7, 59, 13
9, 319868, Note_on_c, 7, 66, 15
9, 322077, Note_on_c, 7, 59, 0
9, 322095, Note_on_c, 7, 66, 0
9, 322446, Note_on_c, 7, 68, 97
9, 322449, Note_on_c, 7, 64, 96
9, 322611, Note_on_c, 7, 68, 0
9, 322615, Note_on_c, 7, 64, 0
9, 324922, Note_on_c, 7, 66, 15
9, 324927, Note_on_c, 7, 59, 11
9, 327205, Note_on_c, 7, 66, 0
9, 327210, Note_on_c, 7, 59, 0
9, 332299, Note_on_c, 7, 68, 36
9, 332312, Note_on_c, 7, 64, 16
9, 332671, Note_on_c, 7, 66, 25
9, 332682, Note_on_c, 7, 59, 14
9, 332683, Note_on_c, 7, 64, 0
9, 332727, Note_on_c, 7, 68, 0
9, 333115, Note_on_c, 7, 56, 28
9, 333118, Note_on_c, 7, 64, 6
9, 333180, Note_on_c, 7, 66, 0
9, 333191, Note_on_c, 7, 59, 0
9, 333365, Note_on_c, 7, 64, 0
9, 333366, Note_on_c, 7, 56, 0
9, 338487, Note_on_c, 7, 66, 43
9, 340068, Note_on_c, 7, 59, 28
9, 340561, Note_on_c, 7, 66, 0
9, 340574, Note_on_c, 7, 68, 30
9, 340586, Note_on_c, 7, 59, 0
9, 340586, Note_on_c, 7, 64, 31
9, 340722, Note_on_c, 7, 68, 0
9, 340724, Note_on_c, 7, 64, 0
9, 340901, Note_on_c, 7, 66, 32
9, 342309, Note_on_c, 7, 59, 31
9, 342974, Note_on_c, 7, 64, 31
9, 342993, Note_on_c, 7, 59, 0
9, 343013, Note_on_c, 7, 66, 0
9, 343127, Note_on_c, 7, 64, 0
9, 345471, Note_on_c, 7, 64, 44
9, 347257, Note_on_c, 7, 63, 38
9, 347311, Note_on_c, 7, 64, 0
9, 347855, Note_on_c, 7, 64, 30
9, 347902, Note_on_c, 7, 63, 0
9, 348023, Note_on_c, 7, 64, 0
9, 352561, Note_on_c, 7, 56, 51
9, 352562, Note_on_c, 7, 64, 46
9, 353814, Note_on_c, 7, 64, 0
9, 353858, Note_on_c, 7, 68, 58
9, 353875, Note_on_c, 7, 64, 42
9, 354025, Note_on_c, 7, 56, 0
9, 355035, Note_on_c, 7, 68, 0
9, 355083, Note_on_c, 7, 64, 0
9, 355158, Note_on_c, 7, 68, 68
9, 355164, Note_on_c, 7, 71, 74
9, 355200, Control_c, 7, 11, 80
9, 355205, Control_c, 7, 11, 78
9, 355210, Control_c, 7, 11, 76
9, 355215, Control_c, 7, 11, 74
9, 355220, Control_c, 7, 11, 73
9, 355225, Control_c, 7, 11, 72
9, 355230, Control_c, 7, 11, 70
9, 355235, Control_c, 7, 11, 69
9, 355240, Control_c, 7, 11, 68
9, 355245, Control_c, 7, 11, 67
9, 355250, Control_c, 7, 11, 66
9, 355255, Control_c, 7, 11, 65
9, 355260, Control_c, 7, 11, 64
9, 355265, Control_c, 7, 11, 63
9, 355275, Control_c, 7, 11, 62
9, 355280, Control_c, 7, 11, 61
9, 355290, Control_c, 7, 11, 60
9, 355295, Control_c, 7, 11, 59
9, 355305, Control_c, 7, 11, 58
9, 355315, Control_c, 7, 11, 57
9, 355325, Control_c, 7, 11, 56
9, 355340, Control_c, 7, 11, 55
9, 355355, Control_c, 7, 11, 54
9, 355375, Control_c, 7, 11, 53
9, 355400, Control_c, 7, 11, 52
9, 355430, Control_c, 7, 11, 51
9, 355490, Control_c, 7, 11, 50
9, 355515, Control_c, 7, 11, 51
9, 355540, Control_c, 7, 11, 52
9, 355560, Control_c, 7, 11, 53
9, 355585, Control_c, 7, 11, 54
9, 355605, Control_c, 7, 11, 55
9, 355630, Control_c, 7, 11, 56
9, 355655, Control_c, 7, 11, 57
9, 355675, Control_c, 7, 11, 58
9, 355700, Control_c, 7, 11, 59
9, 355720, Control_c, 7, 11, 60
9, 355745, Control_c, 7, 11, 61
9, 355770, Control_c, 7, 11, 62
9, 355790, Control_c, 7, 11, 63
9, 355815, Control_c, 7, 11, 64
9, 355835, Control_c, 7, 11, 65
9, 355860, Control_c, 7, 11, 66
9, 355885, Control_c, 7, 11, 67
9, 355905, Control_c, 7, 11, 68
9, 355930, Control_c, 7, 11, 69
9, 355950, Control_c, 7, 11, 70
9, 355975, Control_c, 7, 11, 71
9, 356000, Control_c, 7, 11, 72
9, 356020, Control_c, 7, 11, 73
9, 356045, Control_c, 7, 11, 74
9, 356065, Control_c, 7, 11, 75
9, 356090, Control_c, 7, 11, 76
9, 356115, Control_c, 7, 11, 77
9, 356135, Control_c, 7, 11, 78
9, 356160, Control_c, 7, 11, 79
9, 356180, Control_c, 7, 11, 80
9, 356205, Control_c, 7, 11, 81
9, 356230, Control_c, 7, 11, 82
9, 356250, Control_c, 7, 11, 83
9, 356275, Control_c, 7, 11, 84
9, 356295, Control_c, 7, 11, 85
9, 356320, Control_c, 7, 11, 86
9, 356345, Control_c, 7, 11, 87
9, 356365, Control_c, 7, 11, 88
9, 356390, Control_c, 7, 11, 89
9, 356410, Control_c, 7, 11, 90
9, 356435, Control_c, 7, 11, 91
9, 356460, Control_c, 7, 11, 92
9, 356480, Control_c, 7, 11, 93
9, 356505, Control_c, 7, 11, 94
9, 356525, Control_c, 7, 11, 95
9, 356550, Control_c, 7, 11, 96
9, 356566, Note_on_c, 7, 71, 0
9, 356575, Control_c, 7, 11, 97
9, 356595, Control_c, 7, 11, 98
9, 356620, Control_c, 7, 11, 99
9, 356640, Control_c, 7, 11, 100
9, 356640, Note_on_c, 7, 64, 80
9, 356861, Note_on_c, 7, 64, 0
9, 356862, Note_on_c, 7, 68, 0
9, 357110, Note_on_c, 7, 68, 99
9, 357112, Note_on_c, 7, 64, 99
9, 357213, Note_on_c, 7, 64, 0
9, 357221, Note_on_c, 7, 68, 0
9, 357251, Note_on_c, 7, 64, 99
9, 357255, Note_on_c, 7, 68, 99
9, 357577, Note_on_c, 7, 68, 0
9, 357578, Note_on_c, 7, 64, 0
9, 357766, Note_on_c, 7, 71, 99
9, 357771, Note_on_c, 7, 64, 99
9, 358179, Note_on_c, 7, 71, 0
9, 358186, Note_on_c, 7, 64, 0
9, 358383, Note_on_c, 7, 64, 99
9, 358390, Note_on_c, 7, 52, 99
9, 358484, Note_on_c, 7, 52, 0
9, 358494, Note_on_c, 7, 64, 0
9, 358521, Note_on_c, 7, 52, 99
9, 358522, Note_on_c, 7, 64, 99
9, 360451, Note_on_c, 7, 64, 0
9, 360488, Note_on_c, 7, 52, 0
9, 361440, End_track
10, 0, Start_track
10, 0, Title_t, "Tromba (C)"
10, 0, MIDI_port, 0
10, 0, Control_c, 8, 121, 0
10, 80, Control_c, 8, 101, 0
10, 100, Control_c, 8, 100, 0
10, 120, Control_c, 8, 6, 12
10, 140, Control_c, 8, 10, 84
10, 160, Control_c, 8, 7, 100
10, 180, Control_c, 8, 0, 0
10, 200, Control_c, 8, 32, 0
10, 220, Program_c, 8, 56
10, 240, Control_c, 8, 91, 90
10, 260, Control_c, 8, 93, 32
10, 280, Control_c, 8, 1, 12
10, 300, Control_c, 8, 11, 100
10, 320, Pitch_bend_c, 8, 8192
10, 340, Control_c, 8, 99, 1
10, 360, Control_c, 8, 98, 32
10, 380, Control_c, 8, 6, 64
10, 400, Control_c, 8, 98, 33
10, 420, Control_c, 8, 6, 70
10, 440, Control_c, 8, 98, 100
10, 460, Control_c, 8, 6, 64
10, 480, Control_c, 8, 98, 102
10, 500, Control_c, 8, 6, 65
10, 520, Control_c, 8, 98, 99
10, 705, Control_c, 8, 6, 65
10, 44443, Note_on_c, 8, 76, 104
10, 44488, Note_on_c, 8, 76, 0
10, 44605, Note_on_c, 8, 76, 104
10, 44606, Note_on_c, 8, 80, 90
10, 44775, Note_on_c, 8, 78, 78
10, 44815, Note_on_c, 8, 80, 0
10, 44877, Note_on_c, 8, 76, 0
10, 44888, Note_on_c, 8, 78, 0
10, 44921, Note_on_c, 8, 78, 89
10, 44926, Note_on_c, 8, 71, 107
10, 44970, Note_on_c, 8, 78, 0
10, 44987, Note_on_c, 8, 71, 0
10, 45095, Note_on_c, 8, 71, 108
10, 45097, Note_on_c, 8, 83, 97
10, 45150, Note_on_c, 8, 83, 0
10, 45161, Note_on_c, 8, 71, 0
10, 45262, Note_on_c, 8, 78, 112
10, 45481, Note_on_c, 8, 78, 0
10, 45616, Note_on_c, 8, 83, 112
10, 45620, Note_on_c, 8, 71, 108
10, 45670, Note_on_c, 8, 83, 0
10, 45679, Note_on_c, 8, 71, 0
10, 45777, Note_on_c, 8, 71, 112
10, 45781, Note_on_c, 8, 59, 104
10, 45840, Note_on_c, 8, 71, 0
10, 45852, Note_on_c, 8, 59, 0
10, 46269, Note_on_c, 8, 76, 122
10, 46310, Note_on_c, 8, 76, 0
10, 46436, Note_on_c, 8, 64, 113
10, 46522, Note_on_c, 8, 64, 0
10, 46594, Note_on_c, 8, 71, 116
10, 46761, Note_on_c, 8, 71, 0
10, 46931, Note_on_c, 8, 80, 123
10, 46934, Note_on_c, 8, 68, 119
10, 46992, Note_on_c, 8, 80, 0
10, 46993, Note_on_c, 8, 68, 0
10, 47107, Note_on_c, 8, 68, 120
10, 47176, Note_on_c, 8, 68, 0
10, 47603, Note_on_c, 8, 68, 124
10, 47607, Note_on_c, 8, 80, 114
10, 47663, Note_on_c, 8, 68, 0
10, 47673, Note_on_c, 8, 80, 0
10, 47784, Note_on_c, 8, 68, 118
10, 47844, Note_on_c, 8, 68, 0
10, 48278, Note_on_c, 8, 68, 116
10, 48281, Note_on_c, 8, 80, 110
10, 48338, Note_on_c, 8, 80, 0
10, 48340, Note_on_c, 8, 68, 0
10, 48456, Note_on_c, 8, 68, 115
10, 48502, Note_on_c, 8, 68, 0
10, 49676, Note_on_c, 8, 80, 116
10, 49677, Note_on_c, 8, 68, 114
10, 49712, Note_on_c, 8, 80, 0
10, 49713, Note_on_c, 8, 68, 0
10, 49746, Note_on_c, 8, 80, 115
10, 49747, Note_on_c, 8, 68, 116
10, 49792, Note_on_c, 8, 68, 0
10, 49792, Note_on_c, 8, 80, 0
10, 49820, Note_on_c, 8, 68, 107
10, 49821, Note_on_c, 8, 80, 110
10, 49866, Note_on_c, 8, 80, 0
10, 49867, Note_on_c, 8, 68, 0
10, 49891, Note_on_c, 8, 80, 113
10, 49891, Note_on_c, 8, 68, 109
10, 49938, Note_on_c, 8, 80, 0
10, 49946, Note_on_c, 8, 68, 0
10, 49973, Note_on_c, 8, 80, 118
10, 49980, Note_on_c, 8, 68, 115
10, 50019, Note_on_c, 8, 80, 0
10, 50027, Note_on_c, 8, 68, 0
10, 50068, Note_on_c, 8, 68, 55
10, 50096, Note_on_c, 8, 68, 0
10, 50151, Note_on_c, 8, 68, 121
10, 50153, Note_on_c, 8, 80, 124
10, 50202, Note_on_c, 8, 80, 0
10, 50203, Note_on_c, 8, 68, 0
10, 50325, Note_on_c, 8, 68, 123
10, 50327, Note_on_c, 8, 80, 124
10, 50733, Note_on_c, 8, 68, 0
10, 50735, Note_on_c, 8, 80, 0
10, 51380, Note_on_c, 8, 68, 124
10, 51381, Note_on_c, 8, 80, 121
10, 51420, Note_on_c, 8, 80, 0
10, 51435, Note_on_c, 8, 68, 0
10, 51541, Note_on_c, 8, 68, 124
10, 51543, Note_on_c, 8, 80, 121
10, 51599, Note_on_c, 8, 80, 0
10, 51601, Note_on_c, 8, 68, 0
10, 51715, Note_on_c, 8, 68, 123
10, 51719, Note_on_c, 8, 80, 121
10, 52114, Note_on_c, 8, 80, 0
10, 52129, Note_on_c, 8, 68, 0
10, 52772, Note_on_c, 8, 71, 125
10, 52774, Note_on_c, 8, 83, 125
10, 52838, Note_on_c, 8, 83, 0
10, 52855, Note_on_c, 8, 71, 0
10, 52939, Note_on_c, 8, 83, 122
10, 52941, Note_on_c, 8, 71, 126
10, 52980, Note_on_c, 8, 83, 0
10, 53008, Note_on_c, 8, 71, 0
10, 53113, Note_on_c, 8, 71, 126
10, 53115, Note_on_c, 8, 83, 121
10, 53612, Note_on_c, 8, 83, 0
10, 53620, Note_on_c, 8, 71, 0
10, 55041, Note_on_c, 8, 83, 93
10, 55044, Note_on_c, 8, 71, 99
10, 55323, Note_on_c, 8, 71, 0
10, 55330, Note_on_c, 8, 83, 0
10, 55361, Note_on_c, 8, 83, 87
10, 55370, Note_on_c, 8, 71, 107
10, 55422, Note_on_c, 8, 83, 0
10, 55437, Note_on_c, 8, 71, 0
10, 55542, Note_on_c, 8, 71, 114
10, 55545, Note_on_c, 8, 83, 107
10, 55720, Note_on_c, 8, 71, 0
10, 55723, Note_on_c, 8, 83, 0
10, 55764, Note_on_c, 8, 83, 112
10, 55768, Note_on_c, 8, 71, 113
10, 55805, Note_on_c, 8, 83, 0
10, 55806, Note_on_c, 8, 71, 0
10, 55827, Note_on_c, 8, 71, 114
10, 55828, Note_on_c, 8, 83, 109
10, 55871, Note_on_c, 8, 83, 0
10, 55874, Note_on_c, 8, 71, 0
10, 55889, Note_on_c, 8, 83, 107
10, 55891, Note_on_c, 8, 71, 117
10, 55936, Note_on_c, 8, 83, 0
10, 55942, Note_on_c, 8, 71, 0
10, 55969, Note_on_c, 8, 83, 104
10, 55971, Note_on_c, 8, 71, 107
10, 56021, Note_on_c, 8, 83, 0
10, 56022, Note_on_c, 8, 71, 0
10, 56148, Note_on_c, 8, 71, 126
10, 56149, Note_on_c, 8, 83, 124
10, 56358, Note_on_c, 8, 71, 0
10, 56361, Note_on_c, 8, 83, 0
10, 56402, Note_on_c, 8, 83, 120
10, 56403, Note_on_c, 8, 71, 122
10, 56442, Note_on_c, 8, 71, 0
10, 56443, Note_on_c, 8, 83, 0
10, 56465, Note_on_c, 8, 83, 109
10, 56467, Note_on_c, 8, 71, 117
10, 56509, Note_on_c, 8, 83, 0
10, 56510, Note_on_c, 8, 71, 0
10, 56532, Note_on_c, 8, 83, 108
10, 56532, Note_on_c, 8, 71, 116
10, 56582, Note_on_c, 8, 83, 0
10, 56588, Note_on_c, 8, 71, 0
10, 56619, Note_on_c, 8, 83, 121
10, 56620, Note_on_c, 8, 71, 120
10, 56671, Note_on_c, 8, 71, 0
10, 56671, Note_on_c, 8, 83, 0
10, 56790, Note_on_c, 8, 71, 124
10, 56791, Note_on_c, 8, 83, 121
10, 57060, Note_on_c, 8, 83, 0
10, 57060, Note_on_c, 8, 71, 0
10, 57086, Note_on_c, 8, 83, 114
10, 57088, Note_on_c, 8, 71, 118
10, 57145, Note_on_c, 8, 83, 0
10, 57146, Note_on_c, 8, 71, 0
10, 57238, Note_on_c, 8, 83, 124
10, 57240, Note_on_c, 8, 71, 126
10, 57305, Note_on_c, 8, 83, 0
10, 57314, Note_on_c, 8, 71, 0
10, 57410, Note_on_c, 8, 71, 127
10, 57412, Note_on_c, 8, 83, 126
10, 57476, Note_on_c, 8, 71, 0
10, 57478, Note_on_c, 8, 83, 0
10, 65513, Note_on_c, 8, 76, 125
10, 65513, Note_on_c, 8, 64, 125
10, 65543, Note_on_c, 8, 76, 0
10, 65546, Note_on_c, 8, 64, 0
10, 65674, Note_on_c, 8, 64, 127
10, 65677, Note_on_c, 8, 76, 127
10, 65711, Note_on_c, 8, 76, 0
10, 65714, Note_on_c, 8, 64, 0
10, 65839, Note_on_c, 8, 64, 127
10, 65842, Note_on_c, 8, 76, 127
10, 65890, Note_on_c, 8, 76, 0
10, 65899, Note_on_c, 8, 64, 0
10, 66011, Note_on_c, 8, 64, 113
10, 66013, Note_on_c, 8, 76, 121
10, 66046, Note_on_c, 8, 76, 0
10, 66046, Note_on_c, 8, 64, 0
10, 66070, Note_on_c, 8, 76, 114
10, 66072, Note_on_c, 8, 64, 116
10, 66108, Note_on_c, 8, 76, 0
10, 66111, Note_on_c, 8, 64, 0
10, 66134, Note_on_c, 8, 76, 114
10, 66147, Note_on_c, 8, 64, 120
10, 66173, Note_on_c, 8, 76, 0
10, 66185, Note_on_c, 8, 64, 0
10, 66197, Note_on_c, 8, 76, 111
10, 66205, Note_on_c, 8, 64, 114
10, 66235, Note_on_c, 8, 76, 0
10, 66248, Note_on_c, 8, 64, 0
10, 66280, Note_on_c, 8, 76, 125
10, 66283, Note_on_c, 8, 64, 121
10, 66318, Note_on_c, 8, 76, 0
10, 66325, Note_on_c, 8, 64, 0
10, 66449, Note_on_c, 8, 76, 121
10, 66450, Note_on_c, 8, 64, 120
10, 66482, Note_on_c, 8, 76, 0
10, 66488, Note_on_c, 8, 64, 0
10, 66623, Note_on_c, 8, 64, 125
10, 66624, Note_on_c, 8, 76, 127
10, 66656, Note_on_c, 8, 76, 0
10, 66662, Note_on_c, 8, 64, 0
10, 66684, Note_on_c, 8, 76, 112
10, 66690, Note_on_c, 8, 64, 116
10, 66722, Note_on_c, 8, 76, 0
10, 66731, Note_on_c, 8, 64, 0
10, 66748, Note_on_c, 8, 76, 102
10, 66764, Note_on_c, 8, 64, 113
10, 66787, Note_on_c, 8, 76, 0
10, 66802, Note_on_c, 8, 64, 0
10, 66817, Note_on_c, 8, 76, 112
10, 66825, Note_on_c, 8, 64, 109
10, 66855, Note_on_c, 8, 76, 0
10, 66871, Note_on_c, 8, 64, 0
10, 66901, Note_on_c, 8, 76, 126
10, 66901, Note_on_c, 8, 64, 118
10, 66935, Note_on_c, 8, 76, 0
10, 66942, Note_on_c, 8, 64, 0
10, 67055, Note_on_c, 8, 64, 125
10, 67056, Note_on_c, 8, 76, 127
10, 67088, Note_on_c, 8, 76, 0
10, 67092, Note_on_c, 8, 64, 0
10, 67220, Note_on_c, 8, 76, 127
10, 67223, Note_on_c, 8, 64, 122
10, 67254, Note_on_c, 8, 76, 0
10, 67260, Note_on_c, 8, 64, 0
10, 67284, Note_on_c, 8, 64, 118
10, 67285, Note_on_c, 8, 76, 120
10, 67323, Note_on_c, 8, 76, 0
10, 67328, Note_on_c, 8, 64, 0
10, 67349, Note_on_c, 8, 76, 100
10, 67360, Note_on_c, 8, 64, 117
10, 67392, Note_on_c, 8, 76, 0
10, 67402, Note_on_c, 8, 64, 0
10, 67425, Note_on_c, 8, 76, 112
10, 67435, Note_on_c, 8, 64, 118
10, 67468, Note_on_c, 8, 76, 0
10, 67481, Note_on_c, 8, 64, 0
10, 67496, Note_on_c, 8, 64, 113
10, 67498, Note_on_c, 8, 76, 122
10, 67537, Note_on_c, 8, 76, 0
10, 67540, Note_on_c, 8, 64, 0
10, 67646, Note_on_c, 8, 64, 127
10, 67651, Note_on_c, 8, 76, 127
10, 67700, Note_on_c, 8, 76, 0
10, 67702, Note_on_c, 8, 64, 0
10, 70457, Note_on_c, 8, 71, 125
10, 70460, Note_on_c, 8, 83, 124
10, 70496, Note_on_c, 8, 83, 0
10, 70498, Note_on_c, 8, 71, 0
10, 70529, Note_on_c, 8, 71, 116
10, 70530, Note_on_c, 8, 83, 107
10, 70572, Note_on_c, 8, 83, 0
10, 70575, Note_on_c, 8, 71, 0
10, 70601, Note_on_c, 8, 71, 104
10, 70603, Note_on_c, 8, 83, 107
10, 70640, Note_on_c, 8, 71, 0
10, 70641, Note_on_c, 8, 83, 0
10, 70671, Note_on_c, 8, 83, 113
10, 70673, Note_on_c, 8, 71, 114
10, 70716, Note_on_c, 8, 83, 0
10, 70741, Note_on_c, 8, 71, 0
10, 70760, Note_on_c, 8, 76, 114
10, 70935, Note_on_c, 8, 76, 0
10, 71557, Note_on_c, 8, 71, 122
10, 71558, Note_on_c, 8, 78, 114
10, 71592, Note_on_c, 8, 78, 0
10, 71602, Note_on_c, 8, 71, 0
10, 71704, Note_on_c, 8, 71, 118
10, 71705, Note_on_c, 8, 80, 116
10, 71840, Note_on_c, 8, 80, 0
10, 71858, Note_on_c, 8, 71, 0
10, 72162, Note_on_c, 8, 78, 110
10, 72190, Note_on_c, 8, 78, 0
10, 72316, Note_on_c, 8, 78, 119
10, 72319, Note_on_c, 8, 71, 118
10, 72349, Note_on_c, 8, 78, 0
10, 72354, Note_on_c, 8, 71, 0
10, 72375, Note_on_c, 8, 78, 106
10, 72381, Note_on_c, 8, 71, 113
10, 72412, Note_on_c, 8, 78, 0
10, 72421, Note_on_c, 8, 71, 0
10, 72449, Note_on_c, 8, 78, 107
10, 72452, Note_on_c, 8, 71, 102
10, 72482, Note_on_c, 8, 78, 0
10, 72488, Note_on_c, 8, 71, 0
10, 72514, Note_on_c, 8, 78, 104
10, 72515, Note_on_c, 8, 71, 97
10, 72556, Note_on_c, 8, 78, 0
10, 72600, Note_on_c, 8, 71, 0
10, 72612, Note_on_c, 8, 80, 120
10, 72617, Note_on_c, 8, 76, 120
10, 72646, Note_on_c, 8, 80, 0
10, 72701, Note_on_c, 8, 76, 0
10, 72777, Note_on_c, 8, 71, 122
10, 72780, Note_on_c, 8, 78, 123
10, 72813, Note_on_c, 8, 78, 0
10, 72845, Note_on_c, 8, 71, 0
10, 73104, Note_on_c, 8, 71, 113
10, 73109, Note_on_c, 8, 83, 118
10, 73179, Note_on_c, 8, 83, 0
10, 73193, Note_on_c, 8, 71, 0
10, 73275, Note_on_c, 8, 76, 118
10, 73368, Note_on_c, 8, 76, 0
10, 74051, Note_on_c, 8, 78, 115
10, 74052, Note_on_c, 8, 71, 117
10, 74085, Note_on_c, 8, 78, 0
10, 74098, Note_on_c, 8, 71, 0
10, 74214, Note_on_c, 8, 80, 116
10, 74215, Note_on_c, 8, 71, 120
10, 74336, Note_on_c, 8, 80, 0
10, 74344, Note_on_c, 8, 71, 0
10, 75273, Note_on_c, 8, 78, 118
10, 75275, Note_on_c, 8, 71, 120
10, 75415, Note_on_c, 8, 78, 0
10, 75433, Note_on_c, 8, 71, 0
10, 75581, Note_on_c, 8, 83, 118
10, 75582, Note_on_c, 8, 71, 116
10, 75615, Note_on_c, 8, 71, 0
10, 75615, Note_on_c, 8, 83, 0
10, 75639, Note_on_c, 8, 71, 114
10, 75641, Note_on_c, 8, 83, 114
10, 75684, Note_on_c, 8, 83, 0
10, 75687, Note_on_c, 8, 71, 0
10, 75712, Note_on_c, 8, 83, 108
10, 75713, Note_on_c, 8, 71, 111
10, 75757, Note_on_c, 8, 83, 0
10, 75769, Note_on_c, 8, 71, 0
10, 75879, Note_on_c, 8, 78, 119
10, 75880, Note_on_c, 8, 71, 118
10, 76080, Note_on_c, 8, 78, 0
10, 76091, Note_on_c, 8, 71, 0
10, 76190, Note_on_c, 8, 71, 120
10, 76192, Note_on_c, 8, 83, 120
10, 76226, Note_on_c, 8, 71, 0
10, 76227, Note_on_c, 8, 83, 0
10, 76251, Note_on_c, 8, 71, 113
10, 76254, Note_on_c, 8, 83, 108
10, 76292, Note_on_c, 8, 83, 0
10, 76292, Note_on_c, 8, 71, 0
10, 76317, Note_on_c, 8, 83, 100
10, 76319, Note_on_c, 8, 71, 112
10, 76361, Note_on_c, 8, 71, 0
10, 76362, Note_on_c, 8, 83, 0
10, 76489, Note_on_c, 8, 71, 116
10, 76490, Note_on_c, 8, 78, 110
10, 76656, Note_on_c, 8, 78, 0
10, 76663, Note_on_c, 8, 71, 0
10, 76790, Note_on_c, 8, 71, 109
10, 76800, Note_on_c, 8, 83, 107
10, 76825, Note_on_c, 8, 71, 0
10, 76830, Note_on_c, 8, 83, 0
10, 76855, Note_on_c, 8, 83, 104
10, 76856, Note_on_c, 8, 71, 113
10, 76896, Note_on_c, 8, 71, 0
10, 76899, Note_on_c, 8, 83, 0
10, 76940, Note_on_c, 8, 83, 121
10, 76941, Note_on_c, 8, 71, 125
10, 76995, Note_on_c, 8, 83, 0
10, 77004, Note_on_c, 8, 71, 0
10, 77243, Note_on_c, 8, 71, 121
10, 77243, Note_on_c, 8, 80, 119
10, 77309, Note_on_c, 8, 80, 0
10, 77329, Note_on_c, 8, 71, 0
10, 77552, Note_on_c, 8, 76, 114
10, 77553, Note_on_c, 8, 68, 121
10, 77690, Note_on_c, 8, 76, 0
10, 77693, Note_on_c, 8, 68, 0
10, 143546, Note_on_c, 8, 78, 96
10, 143549, Note_on_c, 8, 81, 89
10, 143605, Note_on_c, 8, 78, 0
10, 143628, Note_on_c, 8, 81, 0
10, 143715, Note_on_c, 8, 76, 103
10, 143800, Note_on_c, 8, 76, 0
10, 144070, Note_on_c, 8, 76, 98
10, 144071, Note_on_c, 8, 83, 90
10, 144463, Note_on_c, 8, 81, 98
10, 144497, Note_on_c, 8, 76, 0
10, 144501, Note_on_c, 8, 83, 0
10, 144591, Note_on_c, 8, 81, 0
10, 201403, Note_on_c, 8, 76, 104
10, 201448, Note_on_c, 8, 76, 0
10, 201565, Note_on_c, 8, 76, 104
10, 201566, Note_on_c, 8, 80, 90
10, 201735, Note_on_c, 8, 78, 78
10, 201775, Note_on_c, 8, 80, 0
10, 201837, Note_on_c, 8, 76, 0
10, 201848, Note_on_c, 8, 78, 0
10, 201881, Note_on_c, 8, 78, 89
10, 201886, Note_on_c, 8, 71, 107
10, 201930, Note_on_c, 8, 78, 0
10, 201947, Note_on_c, 8, 71, 0
10, 202055, Note_on_c, 8, 71, 108
10, 202057, Note_on_c, 8, 83, 97
10, 202110, Note_on_c, 8, 83, 0
10, 202121, Note_on_c, 8, 71, 0
10, 202222, Note_on_c, 8, 78, 112
10, 202441, Note_on_c, 8, 78, 0
10, 202576, Note_on_c, 8, 83, 112
10, 202580, Note_on_c, 8, 71, 108
10, 202630, Note_on_c, 8, 83, 0
10, 202639, Note_on_c, 8, 71, 0
10, 202737, Note_on_c, 8, 71, 112
10, 202741, Note_on_c, 8, 59, 104
10, 202800, Note_on_c, 8, 71, 0
10, 202812, Note_on_c, 8, 59, 0
10, 203229, Note_on_c, 8, 76, 122
10, 203270, Note_on_c, 8, 76, 0
10, 203396, Note_on_c, 8, 64, 113
10, 203482, Note_on_c, 8, 64, 0
10, 203554, Note_on_c, 8, 71, 116
10, 203721, Note_on_c, 8, 71, 0
10, 203891, Note_on_c, 8, 80, 123
10, 203894, Note_on_c, 8, 68, 119
10, 203952, Note_on_c, 8, 80, 0
10, 203953, Note_on_c, 8, 68, 0
10, 204067, Note_on_c, 8, 68, 120
10, 204136, Note_on_c, 8, 68, 0
10, 204563, Note_on_c, 8, 68, 124
10, 204567, Note_on_c, 8, 80, 114
10, 204623, Note_on_c, 8, 68, 0
10, 204633, Note_on_c, 8, 80, 0
10, 204744, Note_on_c, 8, 68, 118
10, 204804, Note_on_c, 8, 68, 0
10, 205238, Note_on_c, 8, 68, 116
10, 205241, Note_on_c, 8, 80, 110
10, 205298, Note_on_c, 8, 80, 0
10, 205300, Note_on_c, 8, 68, 0
10, 205416, Note_on_c, 8, 68, 115
10, 205462, Note_on_c, 8, 68, 0
10, 206636, Note_on_c, 8, 80, 116
10, 206637, Note_on_c, 8, 68, 114
10, 206672, Note_on_c, 8, 80, 0
10, 206673, Note_on_c, 8, 68, 0
10, 206706, Note_on_c, 8, 80, 115
10, 206707, Note_on_c, 8, 68, 116
10, 206752, Note_on_c, 8, 68, 0
10, 206752, Note_on_c, 8, 80, 0
10, 206780, Note_on_c, 8, 68, 107
10, 206781, Note_on_c, 8, 80, 110
10, 206826, Note_on_c, 8, 80, 0
10, 206827, Note_on_c, 8, 68, 0
10, 206851, Note_on_c, 8, 80, 113
10, 206851, Note_on_c, 8, 68, 109
10, 206898, Note_on_c, 8, 80, 0
10, 206906, Note_on_c, 8, 68, 0
10, 206933, Note_on_c, 8, 80, 118
10, 206940, Note_on_c, 8, 68, 115
10, 206979, Note_on_c, 8, 80, 0
10, 206987, Note_on_c, 8, 68, 0
10, 207028, Note_on_c, 8, 68, 55
10, 207056, Note_on_c, 8, 68, 0
10, 207111, Note_on_c, 8, 68, 121
10, 207113, Note_on_c, 8, 80, 124
10, 207162, Note_on_c, 8, 80, 0
10, 207163, Note_on_c, 8, 68, 0
10, 207285, Note_on_c, 8, 68, 123
10, 207287, Note_on_c, 8, 80, 124
10, 207693, Note_on_c, 8, 68, 0
10, 207695, Note_on_c, 8, 80, 0
10, 208340, Note_on_c, 8, 68, 124
10, 208341, Note_on_c, 8, 80, 121
10, 208380, Note_on_c, 8, 80, 0
10, 208395, Note_on_c, 8, 68, 0
10, 208501, Note_on_c, 8, 68, 124
10, 208503, Note_on_c, 8, 80, 121
10, 208559, Note_on_c, 8, 80, 0
10, 208561, Note_on_c, 8, 68, 0
10, 208675, Note_on_c, 8, 68, 123
10, 208679, Note_on_c, 8, 80, 121
10, 209074, Note_on_c, 8, 80, 0
10, 209089, Note_on_c, 8, 68, 0
10, 209732, Note_on_c, 8, 71, 125
10, 209734, Note_on_c, 8, 83, 125
10, 209798, Note_on_c, 8, 83, 0
10, 209815, Note_on_c, 8, 71, 0
10, 209899, Note_on_c, 8, 83, 122
10, 209901, Note_on_c, 8, 71, 126
10, 209940, Note_on_c, 8, 83, 0
10, 209968, Note_on_c, 8, 71, 0
10, 210073, Note_on_c, 8, 71, 126
10, 210075, Note_on_c, 8, 83, 121
10, 210572, Note_on_c, 8, 83, 0
10, 210580, Note_on_c, 8, 71, 0
10, 212001, Note_on_c, 8, 83, 93
10, 212004, Note_on_c, 8, 71, 99
10, 212283, Note_on_c, 8, 71, 0
10, 212290, Note_on_c, 8, 83, 0
10, 212321, Note_on_c, 8, 83, 87
10, 212330, Note_on_c, 8, 71, 107
10, 212382, Note_on_c, 8, 83, 0
10, 212397, Note_on_c, 8, 71, 0
10, 212502, Note_on_c, 8, 71, 114
10, 212505, Note_on_c, 8, 83, 107
10, 212680, Note_on_c, 8, 71, 0
10, 212683, Note_on_c, 8, 83, 0
10, 212724, Note_on_c, 8, 83, 112
10, 212728, Note_on_c, 8, 71, 113
10, 212765, Note_on_c, 8, 83, 0
10, 212766, Note_on_c, 8, 71, 0
10, 212787, Note_on_c, 8, 71, 114
10, 212788, Note_on_c, 8, 83, 109
10, 212831, Note_on_c, 8, 83, 0
10, 212834, Note_on_c, 8, 71, 0
10, 212849, Note_on_c, 8, 83, 107
10, 212851, Note_on_c, 8, 71, 117
10, 212896, Note_on_c, 8, 83, 0
10, 212902, Note_on_c, 8, 71, 0
10, 212929, Note_on_c, 8, 83, 104
10, 212931, Note_on_c, 8, 71, 107
10, 212981, Note_on_c, 8, 83, 0
10, 212982, Note_on_c, 8, 71, 0
10, 213108, Note_on_c, 8, 71, 126
10, 213109, Note_on_c, 8, 83, 124
10, 213318, Note_on_c, 8, 71, 0
10, 213321, Note_on_c, 8, 83, 0
10, 213362, Note_on_c, 8, 83, 120
10, 213363, Note_on_c, 8, 71, 122
10, 213402, Note_on_c, 8, 71, 0
10, 213403, Note_on_c, 8, 83, 0
10, 213425, Note_on_c, 8, 83, 109
10, 213427, Note_on_c, 8, 71, 117
10, 213469, Note_on_c, 8, 83, 0
10, 213470, Note_on_c, 8, 71, 0
10, 213492, Note_on_c, 8, 83, 108
10, 213492, Note_on_c, 8, 71, 116
10, 213542, Note_on_c, 8, 83, 0
10, 213548, Note_on_c, 8, 71, 0
10, 213579, Note_on_c, 8, 83, 121
10, 213580, Note_on_c, 8, 71, 120
10, 213631, Note_on_c, 8, 71, 0
10, 213631, Note_on_c, 8, 83, 0
10, 213750, Note_on_c, 8, 71, 124
10, 213751, Note_on_c, 8, 83, 121
10, 214020, Note_on_c, 8, 83, 0
10, 214020, Note_on_c, 8, 71, 0
10, 214046, Note_on_c, 8, 83, 114
10, 214048, Note_on_c, 8, 71, 118
10, 214105, Note_on_c, 8, 83, 0
10, 214106, Note_on_c, 8, 71, 0
10, 214198, Note_on_c, 8, 83, 124
10, 214200, Note_on_c, 8, 71, 126
10, 214265, Note_on_c, 8, 83, 0
10, 214274, Note_on_c, 8, 71, 0
10, 214370, Note_on_c, 8, 71, 127
10, 214372, Note_on_c, 8, 83, 126
10, 214436, Note_on_c, 8, 71, 0
10, 214438, Note_on_c, 8, 83, 0
10, 222473, Note_on_c, 8, 76, 125
10, 222473, Note_on_c, 8, 64, 125
10, 222503, Note_on_c, 8, 76, 0
10, 222506, Note_on_c, 8, 64, 0
10, 222634, Note_on_c, 8, 64, 127
10, 222637, Note_on_c, 8, 76, 127
10, 222671, Note_on_c, 8, 76, 0
10, 222674, Note_on_c, 8, 64, 0
10, 222799, Note_on_c, 8, 64, 127
10, 222802, Note_on_c, 8, 76, 127
10, 222850, Note_on_c, 8, 76, 0
10, 222859, Note_on_c, 8, 64, 0
10, 222971, Note_on_c, 8, 64, 113
10, 222973, Note_on_c, 8, 76, 121
10, 223006, Note_on_c, 8, 76, 0
10, 223006, Note_on_c, 8, 64, 0
10, 223030, Note_on_c, 8, 76, 114
10, 223032, Note_on_c, 8, 64, 116
10, 223068, Note_on_c, 8, 76, 0
10, 223071, Note_on_c, 8, 64, 0
10, 223094, Note_on_c, 8, 76, 114
10, 223107, Note_on_c, 8, 64, 120
10, 223133, Note_on_c, 8, 76, 0
10, 223145, Note_on_c, 8, 64, 0
10, 223157, Note_on_c, 8, 76, 111
10, 223165, Note_on_c, 8, 64, 114
10, 223195, Note_on_c, 8, 76, 0
10, 223208, Note_on_c, 8, 64, 0
10, 223240, Note_on_c, 8, 76, 125
10, 223243, Note_on_c, 8, 64, 121
10, 223278, Note_on_c, 8, 76, 0
10, 223285, Note_on_c, 8, 64, 0
10, 223409, Note_on_c, 8, 76, 121
10, 223410, Note_on_c, 8, 64, 120
10, 223442, Note_on_c, 8, 76, 0
10, 223448, Note_on_c, 8, 64, 0
10, 223583, Note_on_c, 8, 64, 125
10, 223584, Note_on_c, 8, 76, 127
10, 223616, Note_on_c, 8, 76, 0
10, 223622, Note_on_c, 8, 64, 0
10, 223644, Note_on_c, 8, 76, 112
10, 223650, Note_on_c, 8, 64, 116
10, 223682, Note_on_c, 8, 76, 0
10, 223691, Note_on_c, 8, 64, 0
10, 223708, Note_on_c, 8, 76, 102
10, 223724, Note_on_c, 8, 64, 113
10, 223747, Note_on_c, 8, 76, 0
10, 223762, Note_on_c, 8, 64, 0
10, 223777, Note_on_c, 8, 76, 112
10, 223785, Note_on_c, 8, 64, 109
10, 223815, Note_on_c, 8, 76, 0
10, 223831, Note_on_c, 8, 64, 0
10, 223861, Note_on_c, 8, 76, 126
10, 223861, Note_on_c, 8, 64, 118
10, 223895, Note_on_c, 8, 76, 0
10, 223902, Note_on_c, 8, 64, 0
10, 224015, Note_on_c, 8, 64, 125
10, 224016, Note_on_c, 8, 76, 127
10, 224048, Note_on_c, 8, 76, 0
10, 224052, Note_on_c, 8, 64, 0
10, 224180, Note_on_c, 8, 76, 127
10, 224183, Note_on_c, 8, 64, 122
10, 224214, Note_on_c, 8, 76, 0
10, 224220, Note_on_c, 8, 64, 0
10, 224244, Note_on_c, 8, 64, 118
10, 224245, Note_on_c, 8, 76, 120
10, 224283, Note_on_c, 8, 76, 0
10, 224288, Note_on_c, 8, 64, 0
10, 224309, Note_on_c, 8, 76, 100
10, 224320, Note_on_c, 8, 64, 117
10, 224352, Note_on_c, 8, 76, 0
10, 224362, Note_on_c, 8, 64, 0
10, 224385, Note_on_c, 8, 76, 112
10, 224395, Note_on_c, 8, 64, 118
10, 224428, Note_on_c, 8, 76, 0
10, 224441, Note_on_c, 8, 64, 0
10, 224456, Note_on_c, 8, 64, 113
10, 224458, Note_on_c, 8, 76, 122
10, 224497, Note_on_c, 8, 76, 0
10, 224500, Note_on_c, 8, 64, 0
10, 224606, Note_on_c, 8, 64, 127
10, 224611, Note_on_c, 8, 76, 127
10, 224660, Note_on_c, 8, 76, 0
10, 224662, Note_on_c, 8, 64, 0
10, 224805, Note_on_c, 8, 64, 81
10, 224807, Note_on_c, 8, 76, 103
10, 224840, Note_on_c, 8, 76, 0
10, 224850, Note_on_c, 8, 64, 0
10, 224878, Note_on_c, 8, 76, 82
10, 224892, Note_on_c, 8, 68, 68
10, 224914, Note_on_c, 8, 76, 0
10, 224916, Note_on_c, 8, 68, 0
10, 224943, Note_on_c, 8, 76, 71
10, 224970, Note_on_c, 8, 68, 63
10, 224981, Note_on_c, 8, 76, 0
10, 224994, Note_on_c, 8, 68, 0
10, 225018, Note_on_c, 8, 76, 65
10, 225035, Note_on_c, 8, 68, 59
10, 225043, Note_on_c, 8, 76, 0
10, 225058, Note_on_c, 8, 68, 0
10, 225096, Note_on_c, 8, 68, 60
10, 225096, Note_on_c, 8, 76, 63
10, 225127, Note_on_c, 8, 68, 0
10, 225134, Note_on_c, 8, 76, 0
10, 227451, Note_on_c, 8, 68, 120
10, 227455, Note_on_c, 8, 80, 123
10, 227487, Note_on_c, 8, 68, 0
10, 227493, Note_on_c, 8, 80, 0
10, 227523, Note_on_c, 8, 68, 114
10, 227524, Note_on_c, 8, 80, 103
10, 227563, Note_on_c, 8, 68, 0
10, 227565, Note_on_c, 8, 80, 0
10, 227592, Note_on_c, 8, 80, 99
10, 227596, Note_on_c, 8, 68, 103
10, 227634, Note_on_c, 8, 68, 0
10, 227639, Note_on_c, 8, 80, 0
10, 227666, Note_on_c, 8, 68, 108
10, 227668, Note_on_c, 8, 80, 104
10, 227710, Note_on_c, 8, 68, 0
10, 227712, Note_on_c, 8, 80, 0
10, 227746, Note_on_c, 8, 80, 119
10, 227748, Note_on_c, 8, 68, 123
10, 227809, Note_on_c, 8, 80, 0
10, 227839, Note_on_c, 8, 68, 0
10, 229231, Note_on_c, 8, 81, 108
10, 229234, Note_on_c, 8, 78, 101
10, 229546, Note_on_c, 8, 81, 0
10, 229566, Note_on_c, 8, 80, 95
10, 229566, Note_on_c, 8, 76, 99
10, 229594, Note_on_c, 8, 78, 0
10, 229726, Note_on_c, 8, 78, 110
10, 229744, Note_on_c, 8, 76, 0
10, 229759, Note_on_c, 8, 80, 0
10, 229777, Note_on_c, 8, 78, 0
10, 229894, Note_on_c, 8, 78, 106
10, 229951, Note_on_c, 8, 78, 0
10, 316146, Note_on_c, 8, 76, 117
10, 316149, Note_on_c, 8, 64, 109
10, 316202, Note_on_c, 8, 76, 0
10, 316204, Note_on_c, 8, 64, 0
10, 316329, Note_on_c, 8, 71, 114
10, 316427, Note_on_c, 8, 71, 0
10, 316735, Note_on_c, 8, 83, 125
10, 316736, Note_on_c, 8, 71, 124
10, 316785, Note_on_c, 8, 71, 0
10, 316813, Note_on_c, 8, 83, 0
10, 316821, Note_on_c, 8, 71, 102
10, 316832, Note_on_c, 8, 83, 97
10, 316897, Note_on_c, 8, 71, 0
10, 316900, Note_on_c, 8, 83, 0
10, 316928, Note_on_c, 8, 71, 82
10, 316932, Note_on_c, 8, 83, 99
10, 317000, Note_on_c, 8, 71, 0
10, 317004, Note_on_c, 8, 83, 0
10, 317045, Note_on_c, 8, 83, 108
10, 317049, Note_on_c, 8, 71, 98
10, 317127, Note_on_c, 8, 83, 0
10, 317146, Note_on_c, 8, 71, 0
10, 317218, Note_on_c, 8, 76, 96
10, 317222, Note_on_c, 8, 64, 109
10, 317345, Note_on_c, 8, 76, 0
10, 317348, Note_on_c, 8, 64, 0
10, 322427, Note_on_c, 8, 68, 107
10, 322429, Note_on_c, 8, 80, 99
10, 322582, Note_on_c, 8, 80, 0
10, 322583, Note_on_c, 8, 68, 0
10, 357107, Note_on_c, 8, 83, 113
10, 357108, Note_on_c, 8, 76, 117
10, 357227, Note_on_c, 8, 76, 0
10, 357231, Note_on_c, 8, 83, 0
10, 357266, Note_on_c, 8, 83, 117
10, 357269, Note_on_c, 8, 76, 117
10, 357749, Note_on_c, 8, 76, 0
10, 357755, Note_on_c, 8, 83, 0
10, 357785, Note_on_c, 8, 83, 107
10, 357789, Note_on_c, 8, 76, 109
10, 358318, Note_on_c, 8, 76, 0
10, 358330, Note_on_c, 8, 83, 0
10, 358388, Note_on_c, 8, 64, 124
10, 358389, Note_on_c, 8, 76, 121
10, 358476, Note_on_c, 8, 64, 0
10, 358483, Note_on_c, 8, 76, 0
10, 358525, Note_on_c, 8, 76, 121
10, 358532, Note_on_c, 8, 64, 121
10, 360649, Note_on_c, 8, 64, 0
10, 360657, Note_on_c, 8, 76, 0
10, 361440, End_track
11, 0, Start_track
11, 0, Title_t, "Corni (C)"
11, 0, MIDI_port, 0
11, 0, Control_c, 10, 121, 0
11, 80, Control_c, 10, 101, 0
11, 100, Control_c, 10, 100, 0
11, 120, Control_c, 10, 6, 12
11, 140, Control_c, 10, 10, 48
11, 160, Control_c, 10, 7, 100
11, 180, Control_c, 10, 0, 0
11, 200, Control_c, 10, 32, 0
11, 220, Program_c, 10, 60
11, 240, Control_c, 10, 91, 100
11, 260, Control_c, 10, 93, 32
11, 280, Control_c, 10, 1, 12
11, 300, Control_c, 10, 11, 100
11, 320, Pitch_bend_c, 10, 8192
11, 340, Control_c, 10, 99, 1
11, 360, Control_c, 10, 98, 32
11, 380, Control_c, 10, 6, 64
11, 400, Control_c, 10, 98, 33
11, 420, Control_c, 10, 6, 64
11, 440, Control_c, 10, 98, 100
11, 460, Control_c, 10, 6, 64
11, 480, Control_c, 10, 98, 102
11, 500, Control_c, 10, 6, 65
11, 520, Control_c, 10, 98, 99
11, 705, Control_c, 10, 6, 66
11, 960, End_track
12, 0, Start_track
12, 0, Title_t, "Trombone"
12, 0, MIDI_port, 0
12, 0, Control_c, 11, 121, 0
12, 80, Control_c, 11, 101, 0
12, 100, Control_c, 11, 100, 0
12, 120, Control_c, 11, 6, 12
12, 140, Control_c, 11, 10, 38
12, 160, Control_c, 11, 7, 100
12, 180, Control_c, 11, 0, 0
12, 200, Control_c, 11, 32, 2
12, 220, Program_c, 11, 57
12, 240, Control_c, 11, 91, 80
12, 260, Control_c, 11, 93, 24
12, 280, Control_c, 11, 1, 12
12, 300, Control_c, 11, 11, 80
12, 320, Pitch_bend_c, 11, 8192
12, 340, Control_c, 11, 99, 1
12, 360, Control_c, 11, 98, 32
12, 380, Control_c, 11, 6, 80
12, 400, Control_c, 11, 98, 33
12, 420, Control_c, 11, 6, 62
12, 440, Control_c, 11, 98, 100
12, 460, Control_c, 11, 6, 64
12, 480, Control_c, 11, 98, 102
12, 500, Control_c, 11, 6, 64
12, 520, Control_c, 11, 98, 99
12, 705, Control_c, 11, 6, 64
12, 44442, Note_on_c, 11, 52, 124
12, 44515, Note_on_c, 11, 52, 0
12, 44609, Note_on_c, 11, 49, 119
12, 44900, Note_on_c, 11, 49, 0
12, 44931, Note_on_c, 11, 51, 119
12, 45031, Note_on_c, 11, 51, 0
12, 45110, Note_on_c, 11, 52, 113
12, 45227, Note_on_c, 11, 52, 0
12, 45276, Note_on_c, 11, 54, 118
12, 45344, Note_on_c, 11, 54, 0
12, 45436, Note_on_c, 11, 54, 113
12, 45494, Note_on_c, 11, 54, 0
12, 45598, Note_on_c, 11, 59, 111
12, 45678, Note_on_c, 11, 59, 0
12, 45778, Note_on_c, 11, 47, 118
12, 45846, Note_on_c, 11, 47, 0
12, 45941, Note_on_c, 11, 54, 120
12, 46245, Note_on_c, 11, 54, 0
12, 46267, Note_on_c, 11, 56, 114
12, 46345, Note_on_c, 11, 56, 0
12, 46432, Note_on_c, 11, 57, 107
12, 46502, Note_on_c, 11, 57, 0
12, 46604, Note_on_c, 11, 59, 114
12, 46677, Note_on_c, 11, 59, 0
12, 46768, Note_on_c, 11, 59, 109
12, 46841, Note_on_c, 11, 59, 0
12, 46933, Note_on_c, 11, 52, 118
12, 47073, Note_on_c, 11, 52, 0
12, 47626, Note_on_c, 11, 52, 122
12, 47723, Note_on_c, 11, 52, 0
12, 48288, Note_on_c, 11, 52, 117
12, 48363, Note_on_c, 11, 52, 0
12, 48629, Note_on_c, 11, 52, 121
12, 48921, Note_on_c, 11, 52, 0
12, 48972, Note_on_c, 11, 51, 120
12, 49272, Note_on_c, 11, 51, 0
12, 49332, Note_on_c, 11, 51, 115
12, 49427, Note_on_c, 11, 51, 0
12, 49500, Note_on_c, 11, 51, 116
12, 49553, Note_on_c, 11, 51, 0
12, 49673, Note_on_c, 11, 56, 109
12, 49759, Note_on_c, 11, 56, 0
12, 50004, Note_on_c, 11, 56, 120
12, 50046, Note_on_c, 11, 56, 0
12, 50162, Note_on_c, 11, 56, 119
12, 50212, Note_on_c, 11, 56, 0
12, 50335, Note_on_c, 11, 56, 119
12, 50727, Note_on_c, 11, 56, 0
12, 51368, Note_on_c, 11, 56, 123
12, 51404, Note_on_c, 11, 56, 0
12, 51538, Note_on_c, 11, 56, 116
12, 51580, Note_on_c, 11, 56, 0
12, 51716, Note_on_c, 11, 56, 124
12, 52109, Note_on_c, 11, 56, 0
12, 52775, Note_on_c, 11, 59, 121
12, 52819, Note_on_c, 11, 59, 0
12, 52947, Note_on_c, 11, 59, 122
12, 52986, Note_on_c, 11, 59, 0
12, 53116, Note_on_c, 11, 59, 126
12, 53487, Note_on_c, 11, 59, 0
12, 55055, Note_on_c, 11, 59, 108
12, 55320, Note_on_c, 11, 59, 0
12, 55365, Note_on_c, 11, 59, 102
12, 55430, Note_on_c, 11, 59, 0
12, 55535, Note_on_c, 11, 59, 107
12, 55793, Note_on_c, 11, 59, 0
12, 55828, Note_on_c, 11, 59, 103
12, 55884, Note_on_c, 11, 59, 0
12, 55982, Note_on_c, 11, 59, 114
12, 56026, Note_on_c, 11, 59, 0
12, 56143, Note_on_c, 11, 59, 121
12, 56398, Note_on_c, 11, 59, 0
12, 56454, Note_on_c, 11, 59, 117
12, 56519, Note_on_c, 11, 59, 0
12, 56625, Note_on_c, 11, 47, 113
12, 56682, Note_on_c, 11, 47, 0
12, 56791, Note_on_c, 11, 47, 125
12, 56849, Note_on_c, 11, 47, 0
12, 57101, Note_on_c, 11, 47, 122
12, 57149, Note_on_c, 11, 47, 0
12, 57417, Note_on_c, 11, 47, 127
12, 57469, Note_on_c, 11, 47, 0
12, 65492, Note_on_c, 11, 52, 127
12, 65558, Note_on_c, 11, 52, 0
12, 65657, Note_on_c, 11, 61, 127
12, 65728, Note_on_c, 11, 61, 0
12, 65821, Note_on_c, 11, 59, 126
12, 65903, Note_on_c, 11, 59, 0
12, 66302, Note_on_c, 11, 57, 126
12, 66374, Note_on_c, 11, 57, 0
12, 66461, Note_on_c, 11, 56, 126
12, 66544, Note_on_c, 11, 56, 0
12, 66911, Note_on_c, 11, 61, 127
12, 66959, Note_on_c, 11, 61, 0
12, 67074, Note_on_c, 11, 59, 125
12, 67138, Note_on_c, 11, 59, 0
12, 67510, Note_on_c, 11, 57, 125
12, 67575, Note_on_c, 11, 57, 0
12, 67671, Note_on_c, 11, 56, 124
12, 67749, Note_on_c, 11, 56, 0
12, 70610, Note_on_c, 11, 59, 116
12, 70662, Note_on_c, 11, 59, 0
12, 70754, Note_on_c, 11, 56, 113
12, 70842, Note_on_c, 11, 56, 0
12, 70914, Note_on_c, 11, 61, 115
12, 70957, Note_on_c, 11, 61, 0
12, 71072, Note_on_c, 11, 54, 115
12, 71196, Note_on_c, 11, 54, 0
12, 71546, Note_on_c, 11, 59, 118
12, 71585, Note_on_c, 11, 59, 0
12, 71687, Note_on_c, 11, 52, 117
12, 71811, Note_on_c, 11, 52, 0
12, 72156, Note_on_c, 11, 57, 118
12, 72198, Note_on_c, 11, 57, 0
12, 72310, Note_on_c, 11, 59, 117
12, 72369, Note_on_c, 11, 59, 0
12, 72464, Note_on_c, 11, 47, 120
12, 72514, Note_on_c, 11, 47, 0
12, 72617, Note_on_c, 11, 52, 125
12, 72664, Note_on_c, 11, 52, 0
12, 72771, Note_on_c, 11, 47, 125
12, 72847, Note_on_c, 11, 47, 0
12, 73097, Note_on_c, 11, 47, 108
12, 73146, Note_on_c, 11, 47, 0
12, 73249, Note_on_c, 11, 49, 110
12, 73305, Note_on_c, 11, 49, 0
12, 73410, Note_on_c, 11, 61, 123
12, 73447, Note_on_c, 11, 61, 0
12, 73580, Note_on_c, 11, 54, 124
12, 73713, Note_on_c, 11, 54, 0
12, 74048, Note_on_c, 11, 59, 120
12, 74079, Note_on_c, 11, 59, 0
12, 74214, Note_on_c, 11, 52, 116
12, 74316, Note_on_c, 11, 52, 0
12, 74679, Note_on_c, 11, 51, 120
12, 74777, Note_on_c, 11, 51, 0
12, 74826, Note_on_c, 11, 56, 118
12, 74864, Note_on_c, 11, 56, 0
12, 74998, Note_on_c, 11, 49, 94
12, 75083, Note_on_c, 11, 49, 0
12, 75125, Note_on_c, 11, 54, 113
12, 75162, Note_on_c, 11, 54, 0
12, 75277, Note_on_c, 11, 47, 127
12, 75527, Note_on_c, 11, 47, 0
12, 75585, Note_on_c, 11, 47, 111
12, 75654, Note_on_c, 11, 47, 0
12, 75727, Note_on_c, 11, 52, 103
12, 75768, Note_on_c, 11, 52, 0
12, 75884, Note_on_c, 11, 47, 125
12, 76165, Note_on_c, 11, 47, 0
12, 76186, Note_on_c, 11, 59, 114
12, 76227, Note_on_c, 11, 59, 0
12, 76341, Note_on_c, 11, 52, 101
12, 76390, Note_on_c, 11, 52, 0
12, 76499, Note_on_c, 11, 47, 125
12, 76760, Note_on_c, 11, 47, 0
12, 76792, Note_on_c, 11, 59, 112
12, 76840, Note_on_c, 11, 59, 0
12, 76962, Note_on_c, 11, 52, 99
12, 76997, Note_on_c, 11, 52, 0
12, 77108, Note_on_c, 11, 52, 124
12, 77149, Note_on_c, 11, 52, 0
12, 77414, Note_on_c, 11, 52, 113
12, 77453, Note_on_c, 11, 52, 0
12, 77572, Note_on_c, 11, 52, 122
12, 77609, Note_on_c, 11, 52, 0
12, 77729, Note_on_c, 11, 52, 124
12, 77771, Note_on_c, 11, 52, 0
12, 143554, Note_on_c, 11, 51, 113
12, 143711, Note_on_c, 11, 52, 122
12, 143740, Note_on_c, 11, 51, 0
12, 143813, Note_on_c, 11, 52, 0
12, 144089, Note_on_c, 11, 52, 122
12, 144456, Note_on_c, 11, 45, 118
12, 144457, Note_on_c, 11, 52, 0
12, 144644, Note_on_c, 11, 45, 0
12, 201402, Note_on_c, 11, 52, 124
12, 201475, Note_on_c, 11, 52, 0
12, 201569, Note_on_c, 11, 49, 119
12, 201860, Note_on_c, 11, 49, 0
12, 201891, Note_on_c, 11, 51, 119
12, 201991, Note_on_c, 11, 51, 0
12, 202070, Note_on_c, 11, 52, 113
12, 202187, Note_on_c, 11, 52, 0
12, 202236, Note_on_c, 11, 54, 118
12, 202304, Note_on_c, 11, 54, 0
12, 202396, Note_on_c, 11, 54, 113
12, 202454, Note_on_c, 11, 54, 0
12, 202558, Note_on_c, 11, 59, 111
12, 202638, Note_on_c, 11, 59, 0
12, 202738, Note_on_c, 11, 47, 118
12, 202806, Note_on_c, 11, 47, 0
12, 202901, Note_on_c, 11, 54, 120
12, 203205, Note_on_c, 11, 54, 0
12, 203227, Note_on_c, 11, 56, 114
12, 203305, Note_on_c, 11, 56, 0
12, 203392, Note_on_c, 11, 57, 107
12, 203462, Note_on_c, 11, 57, 0
12, 203564, Note_on_c, 11, 59, 114
12, 203637, Note_on_c, 11, 59, 0
12, 203728, Note_on_c, 11, 59, 109
12, 203801, Note_on_c, 11, 59, 0
12, 203893, Note_on_c, 11, 52, 118
12, 204033, Note_on_c, 11, 52, 0
12, 204586, Note_on_c, 11, 52, 122
12, 204683, Note_on_c, 11, 52, 0
12, 205248, Note_on_c, 11, 52, 117
12, 205323, Note_on_c, 11, 52, 0
12, 205589, Note_on_c, 11, 52, 121
12, 205881, Note_on_c, 11, 52, 0
12, 205932, Note_on_c, 11, 51, 120
12, 206232, Note_on_c, 11, 51, 0
12, 206292, Note_on_c, 11, 51, 115
12, 206387, Note_on_c, 11, 51, 0
12, 206460, Note_on_c, 11, 51, 116
12, 206513, Note_on_c, 11, 51, 0
12, 206633, Note_on_c, 11, 56, 109
12, 206719, Note_on_c, 11, 56, 0
12, 206964, Note_on_c, 11, 56, 120
12, 207006, Note_on_c, 11, 56, 0
12, 207122, Note_on_c, 11, 56, 119
12, 207172, Note_on_c, 11, 56, 0
12, 207295, Note_on_c, 11, 56, 119
12, 207687, Note_on_c, 11, 56, 0
12, 208328, Note_on_c, 11, 56, 123
12, 208364, Note_on_c, 11, 56, 0
12, 208498, Note_on_c, 11, 56, 116
12, 208540, Note_on_c, 11, 56, 0
12, 208676, Note_on_c, 11, 56, 124
12, 209069, Note_on_c, 11, 56, 0
12, 209735, Note_on_c, 11, 59, 121
12, 209779, Note_on_c, 11, 59, 0
12, 209907, Note_on_c, 11, 59, 122
12, 209946, Note_on_c, 11, 59, 0
12, 210076, Note_on_c, 11, 59, 126
12, 210447, Note_on_c, 11, 59, 0
12, 212015, Note_on_c, 11, 59, 108
12, 212280, Note_on_c, 11, 59, 0
12, 212325, Note_on_c, 11, 59, 102
12, 212390, Note_on_c, 11, 59, 0
12, 212495, Note_on_c, 11, 59, 107
12, 212753, Note_on_c, 11, 59, 0
12, 212788, Note_on_c, 11, 59, 103
12, 212844, Note_on_c, 11, 59, 0
12, 212942, Note_on_c, 11, 59, 114
12, 212986, Note_on_c, 11, 59, 0
12, 213103, Note_on_c, 11, 59, 121
12, 213358, Note_on_c, 11, 59, 0
12, 213414, Note_on_c, 11, 59, 117
12, 213479, Note_on_c, 11, 59, 0
12, 213585, Note_on_c, 11, 47, 113
12, 213642, Note_on_c, 11, 47, 0
12, 213751, Note_on_c, 11, 47, 125
12, 213809, Note_on_c, 11, 47, 0
12, 214061, Note_on_c, 11, 47, 122
12, 214109, Note_on_c, 11, 47, 0
12, 214377, Note_on_c, 11, 47, 127
12, 214429, Note_on_c, 11, 47, 0
12, 222452, Note_on_c, 11, 52, 127
12, 222518, Note_on_c, 11, 52, 0
12, 222617, Note_on_c, 11, 61, 127
12, 222688, Note_on_c, 11, 61, 0
12, 222781, Note_on_c, 11, 59, 126
12, 222863, Note_on_c, 11, 59, 0
12, 223262, Note_on_c, 11, 57, 126
12, 223334, Note_on_c, 11, 57, 0
12, 223421, Note_on_c, 11, 56, 126
12, 223504, Note_on_c, 11, 56, 0
12, 223871, Note_on_c, 11, 61, 127
12, 223919, Note_on_c, 11, 61, 0
12, 224034, Note_on_c, 11, 59, 125
12, 224098, Note_on_c, 11, 59, 0
12, 224470, Note_on_c, 11, 57, 125
12, 224535, Note_on_c, 11, 57, 0
12, 224631, Note_on_c, 11, 56, 124
12, 224709, Note_on_c, 11, 56, 0
12, 227600, Note_on_c, 11, 54, 123
12, 227706, Note_on_c, 11, 54, 0
12, 227767, Note_on_c, 11, 52, 117
12, 227866, Note_on_c, 11, 52, 0
12, 227930, Note_on_c, 11, 57, 108
12, 228014, Note_on_c, 11, 57, 0
12, 228099, Note_on_c, 11, 51, 123
12, 228216, Note_on_c, 11, 51, 0
12, 228573, Note_on_c, 11, 56, 114
12, 228641, Note_on_c, 11, 56, 0
12, 228739, Note_on_c, 11, 49, 116
12, 228858, Note_on_c, 11, 49, 0
12, 229226, Note_on_c, 11, 42, 116
12, 229367, Note_on_c, 11, 42, 0
12, 229407, Note_on_c, 11, 54, 114
12, 229481, Note_on_c, 11, 54, 0
12, 229560, Note_on_c, 11, 56, 105
12, 229706, Note_on_c, 11, 56, 0
12, 229733, Note_on_c, 11, 57, 102
12, 229815, Note_on_c, 11, 57, 0
12, 229913, Note_on_c, 11, 54, 123
12, 230216, Note_on_c, 11, 55, 86
12, 230227, Note_on_c, 11, 54, 0
12, 230335, Note_on_c, 11, 55, 0
12, 230409, Note_on_c, 11, 56, 115
12, 230567, Note_on_c, 11, 56, 0
12, 316157, Note_on_c, 11, 58, 119
12, 316319, Note_on_c, 11, 59, 116
12, 316347, Note_on_c, 11, 58, 0
12, 316433, Note_on_c, 11, 59, 0
12, 316712, Note_on_c, 11, 59, 120
12, 317169, Note_on_c, 11, 52, 121
12, 317175, Note_on_c, 11, 59, 0
12, 317425, Note_on_c, 11, 52, 0
12, 322432, Note_on_c, 11, 52, 126
12, 322610, Note_on_c, 11, 52, 0
12, 357120, Control_c, 11, 11, 100
12, 357206, Note_on_c, 11, 52, 127
12, 357242, Note_on_c, 11, 52, 0
12, 357283, Note_on_c, 11, 52, 127
12, 357634, Note_on_c, 11, 52, 0
12, 357745, Note_on_c, 11, 52, 127
12, 358057, Note_on_c, 11, 52, 0
12, 358284, Note_on_c, 11, 52, 127
12, 358330, Note_on_c, 11, 52, 0
12, 358365, Note_on_c, 11, 52, 126
12, 360457, Note_on_c, 11, 52, 0
12, 361440, End_track
13, 0, Start_track
13, 0, Title_t, "Flauti"
13, 0, MIDI_port, 0
13, 0, Control_c, 12, 121, 0
13, 80, Control_c, 12, 101, 0
13, 100, Control_c, 12, 100, 0
13, 120, Control_c, 12, 6, 12
13, 140, Control_c, 12, 10, 42
13, 160, Control_c, 12, 7, 100
13, 180, Control_c, 12, 0, 0
13, 200, Control_c, 12, 32, 0
13, 220, Program_c, 12, 73
13, 240, Control_c, 12, 91, 80
13, 260, Control_c, 12, 93, 24
13, 280, Control_c, 12, 1, 12
13, 300, Control_c, 12, 11, 80
13, 320, Pitch_bend_c, 12, 8192
13, 340, Control_c, 12, 99, 1
13, 360, Control_c, 12, 98, 32
13, 380, Control_c, 12, 6, 80
13, 400, Control_c, 12, 98, 33
13, 420, Control_c, 12, 6, 62
13, 440, Control_c, 12, 98, 100
13, 460, Control_c, 12, 6, 64
13, 480, Control_c, 12, 98, 102
13, 500, Control_c, 12, 6, 64
13, 520, Control_c, 12, 98, 99
13, 705, Control_c, 12, 6, 64
13, 5051, Control_c, 12, 11, 51
13, 5051, Note_on_c, 12, 80, 46
13, 5056, Control_c, 12, 11, 55
13, 5061, Control_c, 12, 11, 57
13, 5064, Note_on_c, 12, 75, 27
13, 5066, Control_c, 12, 11, 60
13, 5071, Control_c, 12, 11, 62
13, 5076, Control_c, 12, 11, 63
13, 5081, Control_c, 12, 11, 65
13, 5086, Control_c, 12, 11, 67
13, 5091, Control_c, 12, 11, 68
13, 5096, Control_c, 12, 11, 69
13, 5101, Control_c, 12, 11, 70
13, 5106, Control_c, 12, 11, 71
13, 5111, Control_c, 12, 11, 72
13, 5116, Control_c, 12, 11, 73
13, 5121, Control_c, 12, 11, 74
13, 5131, Control_c, 12, 11, 75
13, 5136, Control_c, 12, 11, 76
13, 5146, Control_c, 12, 11, 77
13, 5161, Control_c, 12, 11, 78
13, 5181, Control_c, 12, 11, 79
13, 5216, Control_c, 12, 11, 80
13, 5319, Note_on_c, 12, 83, 58
13, 5349, Note_on_c, 12, 76, 43
13, 5361, Note_on_c, 12, 80, 0
13, 5370, Note_on_c, 12, 81, 50
13, 5382, Note_on_c, 12, 75, 0
13, 5405, Note_on_c, 12, 83, 0
13, 5671, Note_on_c, 12, 80, 46
13, 5673, Note_on_c, 12, 75, 32
13, 5719, Note_on_c, 12, 81, 0
13, 5726, Note_on_c, 12, 76, 0
13, 5953, Note_on_c, 12, 80, 0
13, 5976, Note_on_c, 12, 75, 0
13, 30024, Note_on_c, 12, 73, 28
13, 30027, Note_on_c, 12, 81, 35
13, 30802, Note_on_c, 12, 75, 33
13, 30806, Note_on_c, 12, 78, 35
13, 30826, Note_on_c, 12, 81, 0
13, 30852, Note_on_c, 12, 73, 0
13, 31571, Note_on_c, 12, 75, 0
13, 31574, Note_on_c, 12, 78, 0
13, 44624, Note_on_c, 12, 76, 114
13, 44633, Note_on_c, 12, 68, 74
13, 44790, Note_on_c, 12, 70, 101
13, 44814, Note_on_c, 12, 68, 0
13, 44948, Note_on_c, 12, 70, 0
13, 44951, Note_on_c, 12, 75, 109
13, 44956, Note_on_c, 12, 71, 99
13, 44967, Note_on_c, 12, 76, 0
13, 44992, Note_on_c, 12, 75, 0
13, 45120, Note_on_c, 12, 80, 108
13, 45158, Note_on_c, 12, 71, 0
13, 45173, Note_on_c, 12, 80, 0
13, 45293, Note_on_c, 12, 66, 100
13, 45297, Note_on_c, 12, 71, 101
13, 45365, Note_on_c, 12, 73, 104
13, 45382, Note_on_c, 12, 71, 0
13, 45453, Note_on_c, 12, 71, 88
13, 45454, Note_on_c, 12, 68, 93
13, 45466, Note_on_c, 12, 73, 0
13, 45470, Note_on_c, 12, 66, 0
13, 45514, Note_on_c, 12, 73, 108
13, 45520, Note_on_c, 12, 68, 0
13, 45520, Note_on_c, 12, 70, 92
13, 45523, Note_on_c, 12, 71, 0
13, 45575, Note_on_c, 12, 70, 0
13, 45575, Note_on_c, 12, 73, 0
13, 45595, Note_on_c, 12, 75, 106
13, 45603, Note_on_c, 12, 71, 91
13, 45637, Note_on_c, 12, 75, 0
13, 45654, Note_on_c, 12, 71, 0
13, 45759, Note_on_c, 12, 71, 108
13, 45805, Note_on_c, 12, 71, 0
13, 45939, Note_on_c, 12, 81, 107
13, 45943, Note_on_c, 12, 73, 104
13, 46091, Note_on_c, 12, 73, 0
13, 46108, Note_on_c, 12, 75, 108
13, 46156, Note_on_c, 12, 75, 0
13, 46279, Note_on_c, 12, 80, 106
13, 46283, Note_on_c, 12, 81, 0
13, 46286, Note_on_c, 12, 76, 99
13, 46341, Note_on_c, 12, 80, 0
13, 46453, Note_on_c, 12, 85, 112
13, 46514, Note_on_c, 12, 85, 0
13, 46568, Note_on_c, 12, 76, 0
13, 46637, Note_on_c, 12, 71, 106
13, 46643, Note_on_c, 12, 76, 90
13, 46708, Note_on_c, 12, 78, 81
13, 46709, Note_on_c, 12, 76, 0
13, 46781, Note_on_c, 12, 71, 0
13, 46794, Note_on_c, 12, 76, 91
13, 46799, Note_on_c, 12, 78, 0
13, 46806, Note_on_c, 12, 73, 88
13, 46854, Note_on_c, 12, 76, 0
13, 46855, Note_on_c, 12, 78, 106
13, 46871, Note_on_c, 12, 73, 0
13, 46871, Note_on_c, 12, 75, 89
13, 46925, Note_on_c, 12, 78, 0
13, 46942, Note_on_c, 12, 75, 0
13, 46948, Note_on_c, 12, 80, 109
13, 46954, Note_on_c, 12, 76, 91
13, 46994, Note_on_c, 12, 80, 0
13, 47022, Note_on_c, 12, 76, 0
13, 47127, Note_on_c, 12, 64, 107
13, 47193, Note_on_c, 12, 64, 0
13, 47295, Note_on_c, 12, 85, 118
13, 47359, Note_on_c, 12, 87, 109
13, 47374, Note_on_c, 12, 85, 0
13, 47441, Note_on_c, 12, 85, 112
13, 47465, Note_on_c, 12, 87, 0
13, 47506, Note_on_c, 12, 87, 98
13, 47517, Note_on_c, 12, 85, 0
13, 47582, Note_on_c, 12, 87, 0
13, 47605, Note_on_c, 12, 88, 114
13, 47614, Note_on_c, 12, 80, 106
13, 47631, Note_on_c, 12, 80, 0
13, 47653, Note_on_c, 12, 88, 0
13, 47781, Note_on_c, 12, 64, 109
13, 47862, Note_on_c, 12, 64, 0
13, 47958, Note_on_c, 12, 85, 124
13, 48025, Note_on_c, 12, 87, 109
13, 48050, Note_on_c, 12, 85, 0
13, 48108, Note_on_c, 12, 85, 107
13, 48118, Note_on_c, 12, 87, 0
13, 48173, Note_on_c, 12, 87, 107
13, 48178, Note_on_c, 12, 85, 0
13, 48246, Note_on_c, 12, 87, 0
13, 48273, Note_on_c, 12, 88, 116
13, 48281, Note_on_c, 12, 80, 106
13, 48366, Note_on_c, 12, 80, 0
13, 48376, Note_on_c, 12, 88, 0
13, 48434, Note_on_c, 12, 64, 98
13, 48508, Note_on_c, 12, 64, 0
13, 48619, Note_on_c, 12, 71, 103
13, 48621, Note_on_c, 12, 80, 109
13, 48847, Note_on_c, 12, 80, 0
13, 48868, Note_on_c, 12, 71, 0
13, 48990, Note_on_c, 12, 83, 109
13, 48994, Note_on_c, 12, 80, 103
13, 49167, Note_on_c, 12, 83, 0
13, 49195, Note_on_c, 12, 80, 0
13, 49330, Note_on_c, 12, 87, 116
13, 49332, Note_on_c, 12, 75, 118
13, 49374, Note_on_c, 12, 87, 0
13, 49410, Note_on_c, 12, 75, 0
13, 49500, Note_on_c, 12, 91, 117
13, 49503, Note_on_c, 12, 85, 108
13, 49532, Note_on_c, 12, 85, 0
13, 49559, Note_on_c, 12, 91, 0
13, 49675, Note_on_c, 12, 92, 118
13, 49676, Note_on_c, 12, 83, 106
13, 49787, Note_on_c, 12, 83, 0
13, 49794, Note_on_c, 12, 92, 0
13, 50022, Note_on_c, 12, 92, 112
13, 50023, Note_on_c, 12, 80, 107
13, 50077, Note_on_c, 12, 92, 0
13, 50097, Note_on_c, 12, 80, 0
13, 50202, Note_on_c, 12, 80, 110
13, 50203, Note_on_c, 12, 92, 115
13, 50248, Note_on_c, 12, 80, 0
13, 50255, Note_on_c, 12, 92, 0
13, 50376, Note_on_c, 12, 92, 114
13, 50378, Note_on_c, 12, 80, 110
13, 50762, Note_on_c, 12, 92, 0
13, 50766, Note_on_c, 12, 80, 0
13, 51400, Note_on_c, 12, 92, 109
13, 51401, Note_on_c, 12, 80, 109
13, 51451, Note_on_c, 12, 92, 0
13, 51456, Note_on_c, 12, 80, 0
13, 51570, Note_on_c, 12, 92, 113
13, 51574, Note_on_c, 12, 80, 110
13, 51621, Note_on_c, 12, 80, 0
13, 51621, Note_on_c, 12, 92, 0
13, 51672, Note_on_c, 12, 92, 34
13, 51703, Note_on_c, 12, 92, 0
13, 51752, Note_on_c, 12, 92, 113
13, 51752, Note_on_c, 12, 80, 109
13, 52164, Note_on_c, 12, 92, 0
13, 52185, Note_on_c, 12, 80, 0
13, 52821, Note_on_c, 12, 83, 97
13, 52825, Note_on_c, 12, 71, 102
13, 52862, Note_on_c, 12, 83, 0
13, 52868, Note_on_c, 12, 71, 0
13, 52975, Note_on_c, 12, 83, 109
13, 52981, Note_on_c, 12, 71, 112
13, 53021, Note_on_c, 12, 83, 0
13, 53032, Note_on_c, 12, 71, 0
13, 53143, Control_c, 12, 11, 80
13, 53143, Note_on_c, 12, 83, 113
13, 53145, Note_on_c, 12, 71, 114
13, 53258, Control_c, 12, 11, 79
13, 53293, Control_c, 12, 11, 78
13, 53318, Control_c, 12, 11, 77
13, 53343, Control_c, 12, 11, 76
13, 53358, Control_c, 12, 11, 75
13, 53368, Control_c, 12, 11, 74
13, 53378, Control_c, 12, 11, 73
13, 53388, Control_c, 12, 11, 72
13, 53393, Control_c, 12, 11, 71
13, 53403, Control_c, 12, 11, 70
13, 53408, Control_c, 12, 11, 69
13, 53413, Control_c, 12, 11, 68
13, 53418, Control_c, 12, 11, 67
13, 53423, Control_c, 12, 11, 66
13, 53428, Control_c, 12, 11, 65
13, 53433, Control_c, 12, 11, 64
13, 53438, Control_c, 12, 11, 63
13, 53443, Control_c, 12, 11, 61
13, 53448, Control_c, 12, 11, 60
13, 53453, Control_c, 12, 11, 58
13, 53458, Control_c, 12, 11, 56
13, 53463, Control_c, 12, 11, 55
13, 53468, Control_c, 12, 11, 53
13, 53473, Control_c, 12, 11, 50
13, 53478, Control_c, 12, 11, 48
13, 53483, Control_c, 12, 11, 46
13, 53488, Control_c, 12, 11, 43
13, 53493, Control_c, 12, 11, 40
13, 53498, Control_c, 12, 11, 37
13, 53503, Control_c, 12, 11, 33
13, 53508, Control_c, 12, 11, 30
13, 53513, Control_c, 12, 11, 27
13, 53518, Control_c, 12, 11, 21
13, 53520, Control_c, 12, 11, 21
13, 53555, Control_c, 12, 11, 22
13, 53590, Control_c, 12, 11, 23
13, 53620, Control_c, 12, 11, 24
13, 53655, Control_c, 12, 11, 25
13, 53685, Control_c, 12, 11, 26
13, 53720, Control_c, 12, 11, 27
13, 53750, Control_c, 12, 11, 28
13, 53785, Control_c, 12, 11, 29
13, 53815, Control_c, 12, 11, 30
13, 53850, Control_c, 12, 11, 31
13, 53880, Control_c, 12, 11, 32
13, 53915, Control_c, 12, 11, 33
13, 53945, Control_c, 12, 11, 34
13, 53980, Control_c, 12, 11, 35
13, 54010, Control_c, 12, 11, 36
13, 54045, Control_c, 12, 11, 37
13, 54075, Control_c, 12, 11, 38
13, 54110, Control_c, 12, 11, 39
13, 54140, Control_c, 12, 11, 40
13, 54175, Control_c, 12, 11, 41
13, 54205, Control_c, 12, 11, 42
13, 54240, Control_c, 12, 11, 43
13, 54270, Control_c, 12, 11, 44
13, 54305, Control_c, 12, 11, 45
13, 54335, Control_c, 12, 11, 46
13, 54370, Control_c, 12, 11, 47
13, 54400, Control_c, 12, 11, 48
13, 54435, Control_c, 12, 11, 49
13, 54465, Control_c, 12, 11, 50
13, 54500, Control_c, 12, 11, 51
13, 54530, Control_c, 12, 11, 52
13, 54565, Control_c, 12, 11, 53
13, 54595, Control_c, 12, 11, 54
13, 54630, Control_c, 12, 11, 55
13, 54660, Control_c, 12, 11, 56
13, 54695, Control_c, 12, 11, 57
13, 54725, Control_c, 12, 11, 58
13, 54760, Control_c, 12, 11, 59
13, 54790, Control_c, 12, 11, 60
13, 54825, Control_c, 12, 11, 61
13, 54855, Control_c, 12, 11, 62
13, 54890, Control_c, 12, 11, 63
13, 54920, Control_c, 12, 11, 64
13, 54955, Control_c, 12, 11, 65
13, 54985, Control_c, 12, 11, 66
13, 55020, Control_c, 12, 11, 67
13, 55050, Control_c, 12, 11, 68
13, 55085, Control_c, 12, 11, 69
13, 55115, Control_c, 12, 11, 70
13, 55150, Control_c, 12, 11, 71
13, 55180, Control_c, 12, 11, 72
13, 55215, Control_c, 12, 11, 73
13, 55245, Control_c, 12, 11, 74
13, 55280, Control_c, 12, 11, 75
13, 55310, Control_c, 12, 11, 76
13, 55345, Control_c, 12, 11, 77
13, 55375, Control_c, 12, 11, 78
13, 55410, Control_c, 12, 11, 79
13, 55426, Note_on_c, 12, 85, 92
13, 55429, Note_on_c, 12, 73, 93
13, 55440, Control_c, 12, 11, 80
13, 55444, Note_on_c, 12, 83, 0
13, 55457, Note_on_c, 12, 71, 0
13, 55507, Note_on_c, 12, 83, 93
13, 55509, Note_on_c, 12, 71, 91
13, 55534, Note_on_c, 12, 73, 0
13, 55541, Note_on_c, 12, 85, 0
13, 55569, Note_on_c, 12, 85, 106
13, 55581, Note_on_c, 12, 73, 115
13, 55597, Note_on_c, 12, 83, 0
13, 55615, Note_on_c, 12, 71, 0
13, 55653, Note_on_c, 12, 83, 111
13, 55654, Note_on_c, 12, 71, 88
13, 55679, Note_on_c, 12, 73, 0
13, 55685, Note_on_c, 12, 85, 0
13, 56039, Note_on_c, 12, 85, 112
13, 56041, Note_on_c, 12, 73, 105
13, 56049, Note_on_c, 12, 83, 0
13, 56067, Note_on_c, 12, 71, 0
13, 56118, Note_on_c, 12, 71, 96
13, 56119, Note_on_c, 12, 83, 104
13, 56140, Note_on_c, 12, 73, 0
13, 56143, Note_on_c, 12, 85, 0
13, 56181, Note_on_c, 12, 85, 110
13, 56188, Note_on_c, 12, 73, 112
13, 56208, Note_on_c, 12, 83, 0
13, 56219, Note_on_c, 12, 71, 0
13, 56269, Note_on_c, 12, 83, 113
13, 56269, Note_on_c, 12, 71, 103
13, 56299, Note_on_c, 12, 85, 0
13, 56300, Note_on_c, 12, 73, 0
13, 56322, Note_on_c, 12, 83, 0
13, 56326, Note_on_c, 12, 71, 0
13, 56436, Note_on_c, 12, 80, 114
13, 56438, Note_on_c, 12, 85, 118
13, 56487, Note_on_c, 12, 85, 0
13, 56559, Note_on_c, 12, 80, 0
13, 56599, Note_on_c, 12, 87, 116
13, 56603, Note_on_c, 12, 83, 113
13, 56663, Note_on_c, 12, 87, 0
13, 56710, Note_on_c, 12, 83, 0
13, 56916, Note_on_c, 12, 87, 119
13, 56920, Note_on_c, 12, 83, 114
13, 57015, Note_on_c, 12, 87, 0
13, 57025, Note_on_c, 12, 83, 0
13, 57241, Note_on_c, 12, 90, 119
13, 57243, Note_on_c, 12, 87, 124
13, 57598, Note_on_c, 12, 90, 0
13, 57602, Note_on_c, 12, 87, 0
13, 65671, Note_on_c, 12, 76, 124
13, 65672, Note_on_c, 12, 81, 120
13, 65714, Note_on_c, 12, 81, 0
13, 65717, Note_on_c, 12, 76, 0
13, 65829, Note_on_c, 12, 80, 120
13, 65829, Note_on_c, 12, 76, 121
13, 65886, Note_on_c, 12, 80, 0
13, 65895, Note_on_c, 12, 76, 0
13, 66292, Note_on_c, 12, 85, 125
13, 66293, Note_on_c, 12, 76, 122
13, 66329, Note_on_c, 12, 85, 0
13, 66336, Note_on_c, 12, 76, 0
13, 66467, Note_on_c, 12, 83, 124
13, 66468, Note_on_c, 12, 76, 125
13, 66503, Note_on_c, 12, 83, 0
13, 66510, Note_on_c, 12, 76, 0
13, 66909, Note_on_c, 12, 76, 122
13, 66910, Note_on_c, 12, 81, 124
13, 66945, Note_on_c, 12, 81, 0
13, 66953, Note_on_c, 12, 76, 0
13, 67075, Note_on_c, 12, 80, 125
13, 67077, Note_on_c, 12, 76, 124
13, 67114, Note_on_c, 12, 80, 0
13, 67124, Note_on_c, 12, 76, 0
13, 67509, Note_on_c, 12, 76, 121
13, 67510, Note_on_c, 12, 85, 121
13, 67555, Note_on_c, 12, 85, 0
13, 67559, Note_on_c, 12, 76, 0
13, 67681, Note_on_c, 12, 83, 118
13, 67682, Note_on_c, 12, 76, 127
13, 67723, Note_on_c, 12, 83, 0
13, 67727, Note_on_c, 12, 76, 0
13, 70611, Note_on_c, 12, 83, 124
13, 70613, Note_on_c, 12, 71, 121
13, 70756, Note_on_c, 12, 71, 0
13, 70768, Note_on_c, 12, 76, 120
13, 70814, Note_on_c, 12, 83, 0
13, 70816, Note_on_c, 12, 76, 0
13, 70928, Note_on_c, 12, 76, 118
13, 70966, Note_on_c, 12, 76, 0
13, 71087, Note_on_c, 12, 81, 124
13, 71089, Note_on_c, 12, 76, 114
13, 71495, Note_on_c, 12, 76, 0
13, 71504, Note_on_c, 12, 81, 0
13, 71524, Note_on_c, 12, 75, 123
13, 71560, Note_on_c, 12, 75, 0
13, 71693, Note_on_c, 12, 80, 118
13, 71694, Note_on_c, 12, 75, 118
13, 71967, Note_on_c, 12, 75, 0
13, 72000, Note_on_c, 12, 73, 114
13, 72151, Note_on_c, 12, 80, 0
13, 72176, Note_on_c, 12, 78, 108
13, 72189, Note_on_c, 12, 73, 0
13, 72191, Note_on_c, 12, 80, 38
13, 72213, Note_on_c, 12, 80, 0
13, 72239, Note_on_c, 12, 76, 100
13, 72272, Note_on_c, 12, 78, 0
13, 72293, Note_on_c, 12, 76, 0
13, 72317, Note_on_c, 12, 69, 78
13, 72328, Note_on_c, 12, 76, 91
13, 72397, Note_on_c, 12, 75, 97
13, 72406, Note_on_c, 12, 76, 0
13, 72469, Note_on_c, 12, 73, 100
13, 72475, Note_on_c, 12, 75, 0
13, 72532, Note_on_c, 12, 75, 98
13, 72549, Note_on_c, 12, 69, 0
13, 72559, Note_on_c, 12, 73, 0
13, 72607, Note_on_c, 12, 75, 0
13, 72629, Note_on_c, 12, 76, 108
13, 72629, Note_on_c, 12, 68, 106
13, 72673, Note_on_c, 12, 76, 0
13, 72685, Note_on_c, 12, 68, 0
13, 72806, Note_on_c, 12, 78, 108
13, 72806, Note_on_c, 12, 75, 116
13, 72839, Note_on_c, 12, 75, 0
13, 72861, Note_on_c, 12, 75, 106
13, 72867, Note_on_c, 12, 80, 107
13, 72882, Note_on_c, 12, 78, 0
13, 72933, Note_on_c, 12, 80, 0
13, 72947, Note_on_c, 12, 81, 98
13, 72950, Note_on_c, 12, 76, 98
13, 72965, Note_on_c, 12, 75, 0
13, 73011, Note_on_c, 12, 81, 0
13, 73017, Note_on_c, 12, 83, 102
13, 73046, Note_on_c, 12, 78, 87
13, 73058, Note_on_c, 12, 76, 0
13, 73087, Note_on_c, 12, 83, 0
13, 73094, Note_on_c, 12, 85, 105
13, 73095, Note_on_c, 12, 78, 0
13, 73103, Note_on_c, 12, 80, 105
13, 73160, Note_on_c, 12, 80, 0
13, 73168, Note_on_c, 12, 87, 107
13, 73168, Note_on_c, 12, 81, 109
13, 73177, Note_on_c, 12, 85, 0
13, 73232, Note_on_c, 12, 87, 0
13, 73238, Note_on_c, 12, 81, 0
13, 73261, Note_on_c, 12, 80, 115
13, 73263, Note_on_c, 12, 88, 125
13, 73305, Note_on_c, 12, 88, 0
13, 73315, Note_on_c, 12, 80, 0
13, 73430, Note_on_c, 12, 76, 116
13, 73557, Note_on_c, 12, 76, 0
13, 73602, Note_on_c, 12, 81, 126
13, 73605, Note_on_c, 12, 76, 114
13, 74005, Note_on_c, 12, 81, 0
13, 74010, Note_on_c, 12, 76, 0
13, 74052, Note_on_c, 12, 75, 123
13, 74089, Note_on_c, 12, 75, 0
13, 74214, Note_on_c, 12, 80, 119
13, 74215, Note_on_c, 12, 75, 115
13, 74468, Note_on_c, 12, 75, 0
13, 74512, Note_on_c, 12, 73, 115
13, 74530, Note_on_c, 12, 80, 0
13, 74675, Note_on_c, 12, 78, 121
13, 74826, Note_on_c, 12, 71, 86
13, 74850, Note_on_c, 12, 73, 0
13, 74981, Note_on_c, 12, 78, 0
13, 74984, Note_on_c, 12, 76, 122
13, 75143, Note_on_c, 12, 71, 0
13, 75242, Note_on_c, 12, 76, 0
13, 75267, Note_on_c, 12, 75, 113
13, 75313, Note_on_c, 12, 73, 107
13, 75330, Note_on_c, 12, 75, 0
13, 75369, Note_on_c, 12, 73, 0
13, 75404, Note_on_c, 12, 71, 104
13, 75440, Note_on_c, 12, 71, 0
13, 75552, Note_on_c, 12, 83, 122
13, 75554, Note_on_c, 12, 75, 116
13, 75589, Note_on_c, 12, 83, 0
13, 75598, Note_on_c, 12, 75, 0
13, 75712, Note_on_c, 12, 76, 124
13, 75713, Note_on_c, 12, 88, 126
13, 75785, Note_on_c, 12, 88, 0
13, 75794, Note_on_c, 12, 76, 0
13, 76156, Note_on_c, 12, 83, 122
13, 76158, Note_on_c, 12, 75, 124
13, 76193, Note_on_c, 12, 83, 0
13, 76203, Note_on_c, 12, 75, 0
13, 76319, Note_on_c, 12, 76, 118
13, 76320, Note_on_c, 12, 88, 124
13, 76379, Note_on_c, 12, 88, 0
13, 76387, Note_on_c, 12, 76, 0
13, 76784, Note_on_c, 12, 75, 120
13, 76789, Note_on_c, 12, 83, 124
13, 76830, Note_on_c, 12, 83, 0
13, 76845, Note_on_c, 12, 75, 0
13, 76953, Note_on_c, 12, 76, 121
13, 77010, Note_on_c, 12, 76, 0
13, 77254, Note_on_c, 12, 76, 118
13, 77255, Note_on_c, 12, 83, 124
13, 77315, Note_on_c, 12, 83, 0
13, 77325, Note_on_c, 12, 76, 0
13, 77575, Note_on_c, 12, 80, 125
13, 77580, Note_on_c, 12, 88, 125
13, 77628, Note_on_c, 12, 80, 0
13, 77652, Note_on_c, 12, 88, 0
13, 82410, Note_on_c, 12, 73, 56
13, 82415, Note_on_c, 12, 80, 68
13, 82591, Note_on_c, 12, 78, 76
13, 82597, Note_on_c, 12, 72, 67
13, 82629, Note_on_c, 12, 73, 0
13, 82652, Note_on_c, 12, 80, 0
13, 82757, Note_on_c, 12, 73, 58
13, 82761, Note_on_c, 12, 76, 71
13, 82776, Note_on_c, 12, 78, 0
13, 82795, Note_on_c, 12, 72, 0
13, 82934, Note_on_c, 12, 75, 65
13, 82948, Note_on_c, 12, 69, 38
13, 82967, Note_on_c, 12, 76, 0
13, 82978, Note_on_c, 12, 73, 0
13, 83107, Note_on_c, 12, 73, 53
13, 83138, Note_on_c, 12, 75, 0
13, 83148, Note_on_c, 12, 69, 0
13, 83272, Note_on_c, 12, 73, 0
13, 83284, Note_on_c, 12, 72, 42
13, 83476, Note_on_c, 12, 72, 0
13, 140605, Note_on_c, 12, 73, 96
13, 140609, Note_on_c, 12, 85, 84
13, 140927, Note_on_c, 12, 86, 99
13, 140931, Note_on_c, 12, 74, 104
13, 140944, Note_on_c, 12, 85, 0
13, 140968, Note_on_c, 12, 73, 0
13, 141076, Note_on_c, 12, 86, 0
13, 141079, Note_on_c, 12, 74, 0
13, 141276, Note_on_c, 12, 75, 115
13, 141277, Note_on_c, 12, 87, 112
13, 141604, Note_on_c, 12, 87, 0
13, 141609, Note_on_c, 12, 76, 113
13, 141610, Note_on_c, 12, 88, 106
13, 141612, Note_on_c, 12, 75, 0
13, 141744, Note_on_c, 12, 76, 0
13, 141757, Note_on_c, 12, 88, 0
13, 143172, Note_on_c, 12, 70, 120
13, 143178, Note_on_c, 12, 82, 119
13, 143307, Note_on_c, 12, 70, 0
13, 143319, Note_on_c, 12, 82, 0
13, 143345, Note_on_c, 12, 71, 121
13, 143346, Note_on_c, 12, 83, 113
13, 143385, Note_on_c, 12, 71, 0
13, 143390, Note_on_c, 12, 83, 0
13, 143531, Note_on_c, 12, 78, 124
13, 143534, Note_on_c, 12, 90, 118
13, 143573, Note_on_c, 12, 78, 0
13, 143583, Note_on_c, 12, 90, 0
13, 143710, Note_on_c, 12, 76, 126
13, 143713, Note_on_c, 12, 88, 122
13, 143759, Note_on_c, 12, 88, 0
13, 143774, Note_on_c, 12, 76, 0
13, 144067, Note_on_c, 12, 83, 120
13, 144069, Note_on_c, 12, 92, 119
13, 144450, Note_on_c, 12, 92, 0
13, 144463, Note_on_c, 12, 93, 106
13, 144465, Note_on_c, 12, 85, 116
13, 144485, Note_on_c, 12, 83, 0
13, 144597, Note_on_c, 12, 85, 0
13, 144613, Note_on_c, 12, 93, 0
13, 154280, Note_on_c, 12, 83, 64
13, 154281, Note_on_c, 12, 71, 53
13, 154555, Note_on_c, 12, 71, 0
13, 154584, Note_on_c, 12, 83, 0
13, 154589, Note_on_c, 12, 80, 72
13, 154593, Note_on_c, 12, 76, 57
13, 154753, Note_on_c, 12, 74, 64
13, 154762, Note_on_c, 12, 76, 0
13, 154931, Note_on_c, 12, 75, 69
13, 154937, Note_on_c, 12, 79, 72
13, 154939, Note_on_c, 12, 80, 0
13, 154961, Note_on_c, 12, 74, 0
13, 155349, Note_on_c, 12, 75, 0
13, 155353, Note_on_c, 12, 79, 0
13, 155379, Note_on_c, 12, 78, 86
13, 155381, Note_on_c, 12, 72, 74
13, 155528, Note_on_c, 12, 78, 0
13, 155548, Note_on_c, 12, 77, 61
13, 155551, Note_on_c, 12, 73, 63
13, 155555, Note_on_c, 12, 72, 0
13, 155931, Note_on_c, 12, 73, 0
13, 155934, Note_on_c, 12, 77, 0
13, 156019, Note_on_c, 12, 70, 58
13, 156019, Note_on_c, 12, 76, 70
13, 156179, Note_on_c, 12, 70, 0
13, 156198, Note_on_c, 12, 75, 61
13, 156203, Note_on_c, 12, 71, 48
13, 156218, Note_on_c, 12, 76, 0
13, 156514, Note_on_c, 12, 71, 0
13, 156515, Note_on_c, 12, 69, 53
13, 156515, Note_on_c, 12, 78, 49
13, 156534, Note_on_c, 12, 75, 0
13, 156735, Note_on_c, 12, 69, 0
13, 156753, Note_on_c, 12, 78, 0
13, 201584, Note_on_c, 12, 76, 114
13, 201593, Note_on_c, 12, 68, 74
13, 201750, Note_on_c, 12, 70, 101
13, 201774, Note_on_c, 12, 68, 0
13, 201908, Note_on_c, 12, 70, 0
13, 201911, Note_on_c, 12, 75, 109
13, 201916, Note_on_c, 12, 71, 99
13, 201927, Note_on_c, 12, 76, 0
13, 201952, Note_on_c, 12, 75, 0
13, 202080, Note_on_c, 12, 80, 108
13, 202118, Note_on_c, 12, 71, 0
13, 202133, Note_on_c, 12, 80, 0
13, 202253, Note_on_c, 12, 66, 100
13, 202257, Note_on_c, 12, 71, 101
13, 202325, Note_on_c, 12, 73, 104
13, 202342, Note_on_c, 12, 71, 0
13, 202413, Note_on_c, 12, 71, 88
13, 202414, Note_on_c, 12, 68, 93
13, 202426, Note_on_c, 12, 73, 0
13, 202430, Note_on_c, 12, 66, 0
13, 202474, Note_on_c, 12, 73, 108
13, 202480, Note_on_c, 12, 68, 0
13, 202480, Note_on_c, 12, 70, 92
13, 202483, Note_on_c, 12, 71, 0
13, 202535, Note_on_c, 12, 70, 0
13, 202535, Note_on_c, 12, 73, 0
13, 202555, Note_on_c, 12, 75, 106
13, 202563, Note_on_c, 12, 71, 91
13, 202597, Note_on_c, 12, 75, 0
13, 202614, Note_on_c, 12, 71, 0
13, 202719, Note_on_c, 12, 71, 108
13, 202765, Note_on_c, 12, 71, 0
13, 202899, Note_on_c, 12, 81, 107
13, 202903, Note_on_c, 12, 73, 104
13, 203051, Note_on_c, 12, 73, 0
13, 203068, Note_on_c, 12, 75, 108
13, 203116, Note_on_c, 12, 75, 0
13, 203239, Note_on_c, 12, 80, 106
13, 203243, Note_on_c, 12, 81, 0
13, 203246, Note_on_c, 12, 76, 99
13, 203301, Note_on_c, 12, 80, 0
13, 203413, Note_on_c, 12, 85, 112
13, 203474, Note_on_c, 12, 85, 0
13, 203528, Note_on_c, 12, 76, 0
13, 203597, Note_on_c, 12, 71, 106
13, 203603, Note_on_c, 12, 76, 90
13, 203668, Note_on_c, 12, 78, 81
13, 203669, Note_on_c, 12, 76, 0
13, 203741, Note_on_c, 12, 71, 0
13, 203754, Note_on_c, 12, 76, 91
13, 203759, Note_on_c, 12, 78, 0
13, 203766, Note_on_c, 12, 73, 88
13, 203814, Note_on_c, 12, 76, 0
13, 203815, Note_on_c, 12, 78, 106
13, 203831, Note_on_c, 12, 73, 0
13, 203831, Note_on_c, 12, 75, 89
13, 203885, Note_on_c, 12, 78, 0
13, 203902, Note_on_c, 12, 75, 0
13, 203908, Note_on_c, 12, 80, 109
13, 203914, Note_on_c, 12, 76, 91
13, 203954, Note_on_c, 12, 80, 0
13, 203982, Note_on_c, 12, 76, 0
13, 204087, Note_on_c, 12, 64, 107
13, 204153, Note_on_c, 12, 64, 0
13, 204255, Note_on_c, 12, 85, 118
13, 204319, Note_on_c, 12, 87, 109
13, 204334, Note_on_c, 12, 85, 0
13, 204401, Note_on_c, 12, 85, 112
13, 204425, Note_on_c, 12, 87, 0
13, 204466, Note_on_c, 12, 87, 98
13, 204477, Note_on_c, 12, 85, 0
13, 204542, Note_on_c, 12, 87, 0
13, 204565, Note_on_c, 12, 88, 114
13, 204574, Note_on_c, 12, 80, 106
13, 204591, Note_on_c, 12, 80, 0
13, 204613, Note_on_c, 12, 88, 0
13, 204741, Note_on_c, 12, 64, 109
13, 204822, Note_on_c, 12, 64, 0
13, 204918, Note_on_c, 12, 85, 124
13, 204985, Note_on_c, 12, 87, 109
13, 205010, Note_on_c, 12, 85, 0
13, 205068, Note_on_c, 12, 85, 107
13, 205078, Note_on_c, 12, 87, 0
13, 205133, Note_on_c, 12, 87, 107
13, 205138, Note_on_c, 12, 85, 0
13, 205206, Note_on_c, 12, 87, 0
13, 205233, Note_on_c, 12, 88, 116
13, 205241, Note_on_c, 12, 80, 106
13, 205326, Note_on_c, 12, 80, 0
13, 205336, Note_on_c, 12, 88, 0
13, 205394, Note_on_c, 12, 64, 98
13, 205468, Note_on_c, 12, 64, 0
13, 205579, Note_on_c, 12, 71, 103
13, 205581, Note_on_c, 12, 80, 109
13, 205807, Note_on_c, 12, 80, 0
13, 205828, Note_on_c, 12, 71, 0
13, 205950, Note_on_c, 12, 83, 109
13, 205954, Note_on_c, 12, 80, 103
13, 206127, Note_on_c, 12, 83, 0
13, 206155, Note_on_c, 12, 80, 0
13, 206290, Note_on_c, 12, 87, 116
13, 206292, Note_on_c, 12, 75, 118
13, 206334, Note_on_c, 12, 87, 0
13, 206370, Note_on_c, 12, 75, 0
13, 206460, Note_on_c, 12, 91, 117
13, 206463, Note_on_c, 12, 85, 108
13, 206492, Note_on_c, 12, 85, 0
13, 206519, Note_on_c, 12, 91, 0
13, 206635, Note_on_c, 12, 92, 118
13, 206636, Note_on_c, 12, 83, 106
13, 206747, Note_on_c, 12, 83, 0
13, 206754, Note_on_c, 12, 92, 0
13, 206982, Note_on_c, 12, 92, 112
13, 206983, Note_on_c, 12, 80, 107
13, 207037, Note_on_c, 12, 92, 0
13, 207057, Note_on_c, 12, 80, 0
13, 207162, Note_on_c, 12, 80, 110
13, 207163, Note_on_c, 12, 92, 115
13, 207208, Note_on_c, 12, 80, 0
13, 207215, Note_on_c, 12, 92, 0
13, 207336, Note_on_c, 12, 92, 114
13, 207338, Note_on_c, 12, 80, 110
13, 207722, Note_on_c, 12, 92, 0
13, 207726, Note_on_c, 12, 80, 0
13, 208360, Note_on_c, 12, 92, 109
13, 208361, Note_on_c, 12, 80, 109
13, 208411, Note_on_c, 12, 92, 0
13, 208416, Note_on_c, 12, 80, 0
13, 208530, Note_on_c, 12, 92, 113
13, 208534, Note_on_c, 12, 80, 110
13, 208581, Note_on_c, 12, 80, 0
13, 208581, Note_on_c, 12, 92, 0
13, 208632, Note_on_c, 12, 92, 34
13, 208663, Note_on_c, 12, 92, 0
13, 208712, Note_on_c, 12, 92, 113
13, 208712, Note_on_c, 12, 80, 109
13, 209124, Note_on_c, 12, 92, 0
13, 209145, Note_on_c, 12, 80, 0
13, 209781, Note_on_c, 12, 83, 97
13, 209785, Note_on_c, 12, 71, 102
13, 209822, Note_on_c, 12, 83, 0
13, 209828, Note_on_c, 12, 71, 0
13, 209935, Note_on_c, 12, 83, 109
13, 209941, Note_on_c, 12, 71, 112
13, 209981, Note_on_c, 12, 83, 0
13, 209992, Note_on_c, 12, 71, 0
13, 210103, Control_c, 12, 11, 80
13, 210103, Note_on_c, 12, 83, 113
13, 210105, Note_on_c, 12, 71, 114
13, 210218, Control_c, 12, 11, 79
13, 210253, Control_c, 12, 11, 78
13, 210278, Control_c, 12, 11, 77
13, 210303, Control_c, 12, 11, 76
13, 210318, Control_c, 12, 11, 75
13, 210328, Control_c, 12, 11, 74
13, 210338, Control_c, 12, 11, 73
13, 210348, Control_c, 12, 11, 72
13, 210353, Control_c, 12, 11, 71
13, 210363, Control_c, 12, 11, 70
13, 210368, Control_c, 12, 11, 69
13, 210373, Control_c, 12, 11, 68
13, 210378, Control_c, 12, 11, 67
13, 210383, Control_c, 12, 11, 66
13, 210388, Control_c, 12, 11, 65
13, 210393, Control_c, 12, 11, 64
13, 210398, Control_c, 12, 11, 63
13, 210403, Control_c, 12, 11, 61
13, 210408, Control_c, 12, 11, 60
13, 210413, Control_c, 12, 11, 58
13, 210418, Control_c, 12, 11, 56
13, 210423, Control_c, 12, 11, 55
13, 210428, Control_c, 12, 11, 53
13, 210433, Control_c, 12, 11, 50
13, 210438, Control_c, 12, 11, 48
13, 210443, Control_c, 12, 11, 46
13, 210448, Control_c, 12, 11, 43
13, 210453, Control_c, 12, 11, 40
13, 210458, Control_c, 12, 11, 37
13, 210463, Control_c, 12, 11, 33
13, 210468, Control_c, 12, 11, 30
13, 210473, Control_c, 12, 11, 27
13, 210478, Control_c, 12, 11, 21
13, 210480, Control_c, 12, 11, 21
13, 210515, Control_c, 12, 11, 22
13, 210550, Control_c, 12, 11, 23
13, 210580, Control_c, 12, 11, 24
13, 210615, Control_c, 12, 11, 25
13, 210645, Control_c, 12, 11, 26
13, 210680, Control_c, 12, 11, 27
13, 210710, Control_c, 12, 11, 28
13, 210745, Control_c, 12, 11, 29
13, 210775, Control_c, 12, 11, 30
13, 210810, Control_c, 12, 11, 31
13, 210840, Control_c, 12, 11, 32
13, 210875, Control_c, 12, 11, 33
13, 210905, Control_c, 12, 11, 34
13, 210940, Control_c, 12, 11, 35
13, 210970, Control_c, 12, 11, 36
13, 211005, Control_c, 12, 11, 37
13, 211035, Control_c, 12, 11, 38
13, 211070, Control_c, 12, 11, 39
13, 211100, Control_c, 12, 11, 40
13, 211135, Control_c, 12, 11, 41
13, 211165, Control_c, 12, 11, 42
13, 211200, Control_c, 12, 11, 43
13, 211230, Control_c, 12, 11, 44
13, 211265, Control_c, 12, 11, 45
13, 211295, Control_c, 12, 11, 46
13, 211330, Control_c, 12, 11, 47
13, 211360, Control_c, 12, 11, 48
13, 211395, Control_c, 12, 11, 49
13, 211425, Control_c, 12, 11, 50
13, 211460, Control_c, 12, 11, 51
13, 211490, Control_c, 12, 11, 52
13, 211525, Control_c, 12, 11, 53
13, 211555, Control_c, 12, 11, 54
13, 211590, Control_c, 12, 11, 55
13, 211620, Control_c, 12, 11, 56
13, 211655, Control_c, 12, 11, 57
13, 211685, Control_c, 12, 11, 58
13, 211720, Control_c, 12, 11, 59
13, 211750, Control_c, 12, 11, 60
13, 211785, Control_c, 12, 11, 61
13, 211815, Control_c, 12, 11, 62
13, 211850, Control_c, 12, 11, 63
13, 211880, Control_c, 12, 11, 64
13, 211915, Control_c, 12, 11, 65
13, 211945, Control_c, 12, 11, 66
13, 211980, Control_c, 12, 11, 67
13, 212010, Control_c, 12, 11, 68
13, 212045, Control_c, 12, 11, 69
13, 212075, Control_c, 12, 11, 70
13, 212110, Control_c, 12, 11, 71
13, 212140, Control_c, 12, 11, 72
13, 212175, Control_c, 12, 11, 73
13, 212205, Control_c, 12, 11, 74
13, 212240, Control_c, 12, 11, 75
13, 212270, Control_c, 12, 11, 76
13, 212305, Control_c, 12, 11, 77
13, 212335, Control_c, 12, 11, 78
13, 212370, Control_c, 12, 11, 79
13, 212386, Note_on_c, 12, 85, 92
13, 212389, Note_on_c, 12, 73, 93
13, 212400, Control_c, 12, 11, 80
13, 212404, Note_on_c, 12, 83, 0
13, 212417, Note_on_c, 12, 71, 0
13, 212467, Note_on_c, 12, 83, 93
13, 212469, Note_on_c, 12, 71, 91
13, 212494, Note_on_c, 12, 73, 0
13, 212501, Note_on_c, 12, 85, 0
13, 212529, Note_on_c, 12, 85, 106
13, 212541, Note_on_c, 12, 73, 115
13, 212557, Note_on_c, 12, 83, 0
13, 212575, Note_on_c, 12, 71, 0
13, 212613, Note_on_c, 12, 83, 111
13, 212614, Note_on_c, 12, 71, 88
13, 212639, Note_on_c, 12, 73, 0
13, 212645, Note_on_c, 12, 85, 0
13, 212999, Note_on_c, 12, 85, 112
13, 213001, Note_on_c, 12, 73, 105
13, 213009, Note_on_c, 12, 83, 0
13, 213027, Note_on_c, 12, 71, 0
13, 213078, Note_on_c, 12, 71, 96
13, 213079, Note_on_c, 12, 83, 104
13, 213100, Note_on_c, 12, 73, 0
13, 213103, Note_on_c, 12, 85, 0
13, 213141, Note_on_c, 12, 85, 110
13, 213148, Note_on_c, 12, 73, 112
13, 213168, Note_on_c, 12, 83, 0
13, 213179, Note_on_c, 12, 71, 0
13, 213229, Note_on_c, 12, 83, 113
13, 213229, Note_on_c, 12, 71, 103
13, 213259, Note_on_c, 12, 85, 0
13, 213260, Note_on_c, 12, 73, 0
13, 213282, Note_on_c, 12, 83, 0
13, 213286, Note_on_c, 12, 71, 0
13, 213396, Note_on_c, 12, 80, 114
13, 213398, Note_on_c, 12, 85, 118
13, 213447, Note_on_c, 12, 85, 0
13, 213519, Note_on_c, 12, 80, 0
13, 213559, Note_on_c, 12, 87, 116
13, 213563, Note_on_c, 12, 83, 113
13, 213623, Note_on_c, 12, 87, 0
13, 213670, Note_on_c, 12, 83, 0
13, 213876, Note_on_c, 12, 87, 119
13, 213880, Note_on_c, 12, 83, 114
13, 213975, Note_on_c, 12, 87, 0
13, 213985, Note_on_c, 12, 83, 0
13, 214201, Note_on_c, 12, 90, 119
13, 214203, Note_on_c, 12, 87, 124
13, 214558, Note_on_c, 12, 90, 0
13, 214562, Note_on_c, 12, 87, 0
13, 222631, Note_on_c, 12, 76, 124
13, 222632, Note_on_c, 12, 81, 120
13, 222674, Note_on_c, 12, 81, 0
13, 222677, Note_on_c, 12, 76, 0
13, 222789, Note_on_c, 12, 80, 120
13, 222789, Note_on_c, 12, 76, 121
13, 222846, Note_on_c, 12, 80, 0
13, 222855, Note_on_c, 12, 76, 0
13, 223252, Note_on_c, 12, 85, 125
13, 223253, Note_on_c, 12, 76, 122
13, 223289, Note_on_c, 12, 85, 0
13, 223296, Note_on_c, 12, 76, 0
13, 223427, Note_on_c, 12, 83, 124
13, 223428, Note_on_c, 12, 76, 125
13, 223463, Note_on_c, 12, 83, 0
13, 223470, Note_on_c, 12, 76, 0
13, 223869, Note_on_c, 12, 76, 122
13, 223870, Note_on_c, 12, 81, 124
13, 223905, Note_on_c, 12, 81, 0
13, 223913, Note_on_c, 12, 76, 0
13, 224035, Note_on_c, 12, 80, 125
13, 224037, Note_on_c, 12, 76, 124
13, 224074, Note_on_c, 12, 80, 0
13, 224084, Note_on_c, 12, 76, 0
13, 224469, Note_on_c, 12, 76, 121
13, 224470, Note_on_c, 12, 85, 121
13, 224515, Note_on_c, 12, 85, 0
13, 224519, Note_on_c, 12, 76, 0
13, 224641, Note_on_c, 12, 83, 118
13, 224642, Note_on_c, 12, 76, 127
13, 224683, Note_on_c, 12, 83, 0
13, 224687, Note_on_c, 12, 76, 0
13, 227591, Note_on_c, 12, 92, 106
13, 227595, Note_on_c, 12, 84, 91
13, 227734, Note_on_c, 12, 84, 0
13, 227742, Note_on_c, 12, 85, 84
13, 227788, Note_on_c, 12, 85, 0
13, 227795, Note_on_c, 12, 92, 0
13, 227909, Note_on_c, 12, 85, 112
13, 227975, Note_on_c, 12, 85, 0
13, 228084, Note_on_c, 12, 90, 108
13, 228092, Note_on_c, 12, 85, 97
13, 228469, Note_on_c, 12, 85, 0
13, 228473, Note_on_c, 12, 90, 0
13, 228559, Note_on_c, 12, 84, 109
13, 228600, Note_on_c, 12, 84, 0
13, 228740, Note_on_c, 12, 88, 100
13, 228746, Note_on_c, 12, 85, 94
13, 229041, Note_on_c, 12, 87, 106
13, 229059, Note_on_c, 12, 88, 0
13, 229100, Note_on_c, 12, 85, 0
13, 229101, Note_on_c, 12, 87, 0
13, 229226, Note_on_c, 12, 93, 97
13, 229227, Note_on_c, 12, 85, 103
13, 229359, Note_on_c, 12, 93, 0
13, 229393, Note_on_c, 12, 87, 105
13, 229438, Note_on_c, 12, 85, 0
13, 229456, Note_on_c, 12, 87, 0
13, 229564, Note_on_c, 12, 88, 104
13, 229572, Note_on_c, 12, 85, 98
13, 229724, Note_on_c, 12, 87, 104
13, 229753, Note_on_c, 12, 88, 0
13, 229764, Note_on_c, 12, 85, 0
13, 229776, Note_on_c, 12, 87, 0
13, 229909, Note_on_c, 12, 93, 101
13, 229911, Note_on_c, 12, 85, 108
13, 230022, Note_on_c, 12, 93, 0
13, 230078, Note_on_c, 12, 87, 110
13, 230084, Note_on_c, 12, 81, 104
13, 230104, Note_on_c, 12, 85, 0
13, 230140, Note_on_c, 12, 87, 0
13, 230210, Note_on_c, 12, 81, 0
13, 230239, Note_on_c, 12, 85, 96
13, 230240, Note_on_c, 12, 82, 95
13, 230296, Note_on_c, 12, 82, 0
13, 230299, Note_on_c, 12, 85, 0
13, 230416, Note_on_c, 12, 84, 99
13, 230417, Note_on_c, 12, 80, 89
13, 230581, Note_on_c, 12, 80, 0
13, 230585, Note_on_c, 12, 84, 0
13, 276622, Note_on_c, 12, 82, 70
13, 276628, Note_on_c, 12, 76, 52
13, 278183, Note_on_c, 12, 85, 48
13, 278279, Note_on_c, 12, 82, 0
13, 278880, Control_c, 12, 11, 80
13, 278912, Control_c, 12, 11, 79
13, 278944, Control_c, 12, 11, 78
13, 278976, Control_c, 12, 11, 77
13, 279008, Control_c, 12, 11, 76
13, 279040, Control_c, 12, 11, 75
13, 279072, Control_c, 12, 11, 74
13, 279104, Control_c, 12, 11, 73
13, 279136, Control_c, 12, 11, 72
13, 279168, Control_c, 12, 11, 71
13, 279200, Control_c, 12, 11, 70
13, 279232, Control_c, 12, 11, 69
13, 279264, Control_c, 12, 11, 68
13, 279296, Control_c, 12, 11, 67
13, 279328, Control_c, 12, 11, 66
13, 279360, Control_c, 12, 11, 65
13, 279392, Control_c, 12, 11, 64
13, 279424, Control_c, 12, 11, 63
13, 279456, Control_c, 12, 11, 62
13, 279488, Control_c, 12, 11, 61
13, 279520, Control_c, 12, 11, 60
13, 279552, Control_c, 12, 11, 59
13, 279584, Control_c, 12, 11, 58
13, 279616, Control_c, 12, 11, 57
13, 279648, Control_c, 12, 11, 56
13, 279680, Control_c, 12, 11, 55
13, 279712, Control_c, 12, 11, 54
13, 279744, Control_c, 12, 11, 53
13, 279776, Control_c, 12, 11, 52
13, 279808, Control_c, 12, 11, 51
13, 279815, Note_on_c, 12, 83, 54
13, 279832, Note_on_c, 12, 75, 49
13, 279839, Control_c, 12, 11, 50
13, 279859, Note_on_c, 12, 85, 0
13, 279897, Note_on_c, 12, 76, 0
13, 280023, Note_on_c, 12, 83, 0
13, 280027, Note_on_c, 12, 75, 0
13, 280320, Control_c, 12, 11, 80
13, 313270, Note_on_c, 12, 80, 74
13, 313274, Note_on_c, 12, 68, 76
13, 313618, Note_on_c, 12, 81, 82
13, 313618, Note_on_c, 12, 69, 83
13, 313647, Note_on_c, 12, 80, 0
13, 313652, Note_on_c, 12, 68, 0
13, 313958, Note_on_c, 12, 70, 94
13, 313959, Note_on_c, 12, 82, 91
13, 313989, Note_on_c, 12, 81, 0
13, 313991, Note_on_c, 12, 69, 0
13, 314288, Note_on_c, 12, 83, 88
13, 314290, Note_on_c, 12, 71, 91
13, 314316, Note_on_c, 12, 70, 0
13, 314322, Note_on_c, 12, 82, 0
13, 314459, Note_on_c, 12, 83, 0
13, 314464, Note_on_c, 12, 71, 0
13, 315785, Note_on_c, 12, 77, 112
13, 315891, Note_on_c, 12, 77, 0
13, 315960, Note_on_c, 12, 78, 112
13, 316030, Note_on_c, 12, 78, 0
13, 316140, Note_on_c, 12, 85, 115
13, 316222, Note_on_c, 12, 85, 0
13, 316316, Note_on_c, 12, 83, 117
13, 316400, Note_on_c, 12, 83, 0
13, 316704, Note_on_c, 12, 87, 127
13, 317231, Note_on_c, 12, 88, 120
13, 317261, Note_on_c, 12, 87, 0
13, 317395, Note_on_c, 12, 88, 0
13, 322418, Note_on_c, 12, 88, 112
13, 322420, Note_on_c, 12, 80, 107
13, 322585, Note_on_c, 12, 80, 0
13, 322610, Note_on_c, 12, 88, 0
13, 346604, Note_on_c, 12, 76, 66
13, 346615, Note_on_c, 12, 69, 43
13, 347290, Note_on_c, 12, 78, 77
13, 347338, Note_on_c, 12, 76, 0
13, 347569, Note_on_c, 12, 71, 79
13, 347606, Note_on_c, 12, 78, 0
13, 347894, Note_on_c, 12, 76, 61
13, 347899, Note_on_c, 12, 68, 73
13, 347904, Note_on_c, 12, 71, 0
13, 347955, Note_on_c, 12, 69, 0
13, 348094, Note_on_c, 12, 68, 0
13, 348099, Note_on_c, 12, 76, 0
13, 357120, Control_c, 12, 11, 100
13, 357150, Note_on_c, 12, 80, 107
13, 357153, Note_on_c, 12, 88, 106
13, 357211, Note_on_c, 12, 80, 0
13, 357212, Note_on_c, 12, 88, 0
13, 357247, Note_on_c, 12, 80, 100
13, 357251, Note_on_c, 12, 88, 101
13, 357684, Note_on_c, 12, 88, 0
13, 357694, Note_on_c, 12, 80, 0
13, 357800, Note_on_c, 12, 92, 101
13, 357800, Note_on_c, 12, 83, 98
13, 358233, Note_on_c, 12, 92, 0
13, 358283, Note_on_c, 12, 83, 0
13, 358384, Note_on_c, 12, 76, 110
13, 358504, Note_on_c, 12, 76, 0
13, 358530, Note_on_c, 12, 76, 108
13, 360549, Note_on_c, 12, 76, 0
13, 361440, End_track
14, 0, Start_track
14, 0, Title_t, "Oboi"
14, 0, MIDI_port, 0
14, 0, Control_c, 13, 121, 0
14, 80, Control_c, 13, 101, 0
14, 100, Control_c, 13, 100, 0
14, 120, Control_c, 13, 6, 12
14, 140, Control_c, 13, 10, 52
14, 160, Control_c, 13, 7, 100
14, 180, Control_c, 13, 0, 0
14, 200, Control_c, 13, 32, 0
14, 220, Program_c, 13, 68
14, 240, Control_c, 13, 91, 80
14, 260, Control_c, 13, 93, 24
14, 280, Control_c, 13, 1, 16
14, 300, Control_c, 13, 11, 80
14, 320, Pitch_bend_c, 13, 8192
14, 340, Control_c, 13, 99, 1
14, 360, Control_c, 13, 98, 32
14, 380, Control_c, 13, 6, 80
14, 400, Control_c, 13, 98, 33
14, 420, Control_c, 13, 6, 62
14, 440, Control_c, 13, 98, 100
14, 460, Control_c, 13, 6, 64
14, 480, Control_c, 13, 98, 102
14, 500, Control_c, 13, 6, 64
14, 520, Control_c, 13, 98, 99
14, 705, Control_c, 13, 6, 64
14, 5030, Note_on_c, 13, 68, 38
14, 5037, Control_c, 13, 11, 30
14, 5037, Note_on_c, 13, 72, 44
14, 5042, Control_c, 13, 11, 36
14, 5047, Control_c, 13, 11, 39
14, 5052, Control_c, 13, 11, 43
14, 5057, Control_c, 13, 11, 46
14, 5062, Control_c, 13, 11, 50
14, 5067, Control_c, 13, 11, 52
14, 5072, Control_c, 13, 11, 55
14, 5077, Control_c, 13, 11, 57
14, 5082, Control_c, 13, 11, 59
14, 5087, Control_c, 13, 11, 61
14, 5092, Control_c, 13, 11, 63
14, 5097, Control_c, 13, 11, 64
14, 5102, Control_c, 13, 11, 65
14, 5107, Control_c, 13, 11, 67
14, 5112, Control_c, 13, 11, 68
14, 5117, Control_c, 13, 11, 69
14, 5122, Control_c, 13, 11, 70
14, 5127, Control_c, 13, 11, 71
14, 5132, Control_c, 13, 11, 72
14, 5137, Control_c, 13, 11, 73
14, 5147, Control_c, 13, 11, 74
14, 5152, Control_c, 13, 11, 75
14, 5162, Control_c, 13, 11, 76
14, 5177, Control_c, 13, 11, 77
14, 5192, Control_c, 13, 11, 78
14, 5212, Control_c, 13, 11, 79
14, 5242, Control_c, 13, 11, 80
14, 5341, Note_on_c, 13, 73, 58
14, 5353, Note_on_c, 13, 66, 51
14, 5414, Note_on_c, 13, 72, 0
14, 5470, Note_on_c, 13, 68, 0
14, 5666, Note_on_c, 13, 68, 45
14, 5671, Note_on_c, 13, 72, 47
14, 5698, Note_on_c, 13, 73, 0
14, 5705, Note_on_c, 13, 66, 0
14, 5980, Note_on_c, 13, 68, 0
14, 5983, Note_on_c, 13, 72, 0
14, 44632, Note_on_c, 13, 76, 116
14, 44641, Note_on_c, 13, 68, 80
14, 44797, Note_on_c, 13, 70, 105
14, 44833, Note_on_c, 13, 68, 0
14, 44929, Note_on_c, 13, 70, 0
14, 44959, Note_on_c, 13, 75, 108
14, 44960, Note_on_c, 13, 71, 106
14, 44965, Note_on_c, 13, 76, 0
14, 45003, Note_on_c, 13, 75, 0
14, 45135, Note_on_c, 13, 80, 114
14, 45189, Note_on_c, 13, 80, 0
14, 45204, Note_on_c, 13, 71, 0
14, 45310, Note_on_c, 13, 66, 105
14, 45310, Note_on_c, 13, 71, 94
14, 45377, Note_on_c, 13, 73, 100
14, 45396, Note_on_c, 13, 71, 0
14, 45462, Note_on_c, 13, 71, 94
14, 45465, Note_on_c, 13, 68, 91
14, 45474, Note_on_c, 13, 66, 0
14, 45476, Note_on_c, 13, 73, 0
14, 45522, Note_on_c, 13, 73, 109
14, 45525, Note_on_c, 13, 66, 97
14, 45535, Note_on_c, 13, 71, 0
14, 45546, Note_on_c, 13, 68, 0
14, 45583, Note_on_c, 13, 66, 0
14, 45585, Note_on_c, 13, 73, 0
14, 45610, Note_on_c, 13, 75, 110
14, 45610, Note_on_c, 13, 66, 106
14, 45660, Note_on_c, 13, 75, 0
14, 45682, Note_on_c, 13, 66, 0
14, 45775, Note_on_c, 13, 71, 113
14, 45828, Note_on_c, 13, 71, 0
14, 45940, Note_on_c, 13, 73, 93
14, 45941, Note_on_c, 13, 81, 109
14, 46112, Note_on_c, 13, 75, 107
14, 46143, Note_on_c, 13, 73, 0
14, 46199, Note_on_c, 13, 75, 0
14, 46268, Note_on_c, 13, 80, 106
14, 46270, Note_on_c, 13, 76, 108
14, 46293, Note_on_c, 13, 81, 0
14, 46325, Note_on_c, 13, 80, 0
14, 46336, Note_on_c, 13, 76, 0
14, 46435, Note_on_c, 13, 76, 107
14, 46436, Note_on_c, 13, 73, 106
14, 46552, Note_on_c, 13, 73, 0
14, 46615, Note_on_c, 13, 71, 109
14, 46671, Note_on_c, 13, 76, 0
14, 46695, Note_on_c, 13, 78, 96
14, 46780, Note_on_c, 13, 71, 0
14, 46783, Note_on_c, 13, 76, 94
14, 46788, Note_on_c, 13, 78, 0
14, 46792, Note_on_c, 13, 73, 101
14, 46839, Note_on_c, 13, 78, 106
14, 46851, Note_on_c, 13, 73, 0
14, 46851, Note_on_c, 13, 71, 90
14, 46852, Note_on_c, 13, 76, 0
14, 46905, Note_on_c, 13, 71, 0
14, 46912, Note_on_c, 13, 78, 0
14, 46930, Note_on_c, 13, 80, 109
14, 46933, Note_on_c, 13, 71, 101
14, 46978, Note_on_c, 13, 80, 0
14, 46987, Note_on_c, 13, 71, 0
14, 47116, Note_on_c, 13, 64, 112
14, 47176, Note_on_c, 13, 64, 0
14, 47627, Note_on_c, 13, 71, 114
14, 47630, Note_on_c, 13, 83, 120
14, 47685, Note_on_c, 13, 71, 0
14, 47687, Note_on_c, 13, 83, 0
14, 47802, Note_on_c, 13, 64, 114
14, 47884, Note_on_c, 13, 64, 0
14, 48284, Note_on_c, 13, 71, 116
14, 48289, Note_on_c, 13, 83, 117
14, 48355, Note_on_c, 13, 71, 0
14, 48364, Note_on_c, 13, 83, 0
14, 48466, Note_on_c, 13, 64, 106
14, 48538, Note_on_c, 13, 64, 0
14, 48643, Note_on_c, 13, 68, 112
14, 48646, Note_on_c, 13, 71, 90
14, 48775, Note_on_c, 13, 71, 0
14, 48784, Note_on_c, 13, 68, 0
14, 48981, Note_on_c, 13, 71, 96
14, 48983, Note_on_c, 13, 68, 109
14, 49162, Note_on_c, 13, 71, 0
14, 49175, Note_on_c, 13, 68, 0
14, 49335, Note_on_c, 13, 71, 106
14, 49336, Note_on_c, 13, 80, 108
14, 49384, Note_on_c, 13, 80, 0
14, 49394, Note_on_c, 13, 71, 0
14, 49503, Note_on_c, 13, 70, 115
14, 49504, Note_on_c, 13, 82, 115
14, 49560, Note_on_c, 13, 70, 0
14, 49574, Note_on_c, 13, 82, 0
14, 49673, Note_on_c, 13, 83, 116
14, 49675, Note_on_c, 13, 68, 112
14, 49765, Note_on_c, 13, 83, 0
14, 49772, Note_on_c, 13, 68, 0
14, 49848, Note_on_c, 13, 68, 108
14, 49889, Note_on_c, 13, 68, 0
14, 50017, Note_on_c, 13, 80, 115
14, 50025, Note_on_c, 13, 68, 118
14, 50060, Note_on_c, 13, 80, 0
14, 50067, Note_on_c, 13, 68, 0
14, 50187, Note_on_c, 13, 80, 115
14, 50192, Note_on_c, 13, 68, 116
14, 50240, Note_on_c, 13, 80, 0
14, 50243, Note_on_c, 13, 68, 0
14, 50359, Note_on_c, 13, 68, 116
14, 50361, Note_on_c, 13, 80, 119
14, 50764, Note_on_c, 13, 80, 0
14, 50769, Note_on_c, 13, 68, 0
14, 51390, Note_on_c, 13, 80, 106
14, 51397, Note_on_c, 13, 68, 114
14, 51431, Note_on_c, 13, 80, 0
14, 51437, Note_on_c, 13, 68, 0
14, 51561, Note_on_c, 13, 68, 116
14, 51561, Note_on_c, 13, 80, 114
14, 51601, Note_on_c, 13, 80, 0
14, 51601, Note_on_c, 13, 68, 0
14, 51736, Note_on_c, 13, 80, 118
14, 51737, Note_on_c, 13, 68, 118
14, 52129, Note_on_c, 13, 80, 0
14, 52142, Note_on_c, 13, 68, 0
14, 52796, Note_on_c, 13, 83, 117
14, 52802, Note_on_c, 13, 71, 121
14, 52835, Note_on_c, 13, 83, 0
14, 52854, Note_on_c, 13, 71, 0
14, 52968, Note_on_c, 13, 83, 111
14, 52970, Note_on_c, 13, 71, 122
14, 53011, Note_on_c, 13, 83, 0
14, 53041, Note_on_c, 13, 71, 0
14, 53145, Note_on_c, 13, 83, 118
14, 53148, Note_on_c, 13, 71, 124
14, 53382, Note_on_c, 13, 83, 0
14, 53410, Note_on_c, 13, 71, 0
14, 53500, Note_on_c, 13, 69, 71
14, 53514, Note_on_c, 13, 66, 74
14, 53812, Note_on_c, 13, 68, 88
14, 53823, Note_on_c, 13, 64, 58
14, 53828, Note_on_c, 13, 66, 0
14, 53832, Note_on_c, 13, 69, 0
14, 53886, Note_on_c, 13, 69, 68
14, 53894, Note_on_c, 13, 68, 0
14, 53958, Note_on_c, 13, 68, 79
14, 53988, Note_on_c, 13, 69, 0
14, 54120, Note_on_c, 13, 68, 0
14, 54125, Note_on_c, 13, 66, 80
14, 54127, Note_on_c, 13, 69, 87
14, 54144, Note_on_c, 13, 64, 0
14, 54435, Note_on_c, 13, 68, 91
14, 54441, Note_on_c, 13, 64, 91
14, 54444, Note_on_c, 13, 66, 0
14, 54461, Note_on_c, 13, 69, 0
14, 54510, Note_on_c, 13, 69, 90
14, 54523, Note_on_c, 13, 68, 0
14, 54588, Note_on_c, 13, 68, 105
14, 54615, Note_on_c, 13, 69, 0
14, 54687, Note_on_c, 13, 64, 0
14, 54694, Note_on_c, 13, 68, 0
14, 54735, Note_on_c, 13, 66, 107
14, 54737, Note_on_c, 13, 69, 100
14, 55018, Note_on_c, 13, 66, 0
14, 55042, Note_on_c, 13, 68, 99
14, 55044, Note_on_c, 13, 64, 102
14, 55045, Note_on_c, 13, 69, 0
14, 55103, Note_on_c, 13, 69, 91
14, 55111, Note_on_c, 13, 68, 0
14, 55184, Note_on_c, 13, 68, 110
14, 55210, Note_on_c, 13, 69, 0
14, 55236, Note_on_c, 13, 68, 0
14, 55256, Note_on_c, 13, 64, 0
14, 55340, Note_on_c, 13, 66, 88
14, 55343, Note_on_c, 13, 75, 101
14, 55459, Note_on_c, 13, 75, 0
14, 55484, Note_on_c, 13, 66, 0
14, 55498, Note_on_c, 13, 74, 103
14, 55499, Note_on_c, 13, 68, 75
14, 55623, Note_on_c, 13, 74, 0
14, 55643, Note_on_c, 13, 68, 0
14, 55654, Note_on_c, 13, 69, 93
14, 55655, Note_on_c, 13, 75, 113
14, 55786, Note_on_c, 13, 69, 0
14, 55787, Note_on_c, 13, 75, 0
14, 55809, Note_on_c, 13, 68, 107
14, 55812, Note_on_c, 13, 76, 109
14, 55941, Note_on_c, 13, 76, 0
14, 55946, Note_on_c, 13, 68, 0
14, 55974, Note_on_c, 13, 66, 110
14, 55976, Note_on_c, 13, 78, 110
14, 56048, Note_on_c, 13, 66, 0
14, 56059, Note_on_c, 13, 78, 0
14, 56131, Note_on_c, 13, 74, 106
14, 56131, Note_on_c, 13, 68, 114
14, 56250, Note_on_c, 13, 74, 0
14, 56278, Note_on_c, 13, 68, 0
14, 56291, Note_on_c, 13, 75, 118
14, 56293, Note_on_c, 13, 69, 104
14, 56380, Note_on_c, 13, 69, 0
14, 56385, Note_on_c, 13, 75, 0
14, 56444, Note_on_c, 13, 76, 117
14, 56446, Note_on_c, 13, 68, 120
14, 56532, Note_on_c, 13, 76, 0
14, 56537, Note_on_c, 13, 68, 0
14, 56597, Note_on_c, 13, 66, 119
14, 56599, Note_on_c, 13, 78, 118
14, 56793, Note_on_c, 13, 78, 0
14, 56804, Note_on_c, 13, 66, 0
14, 56915, Note_on_c, 13, 78, 112
14, 56916, Note_on_c, 13, 71, 111
14, 57054, Note_on_c, 13, 78, 0
14, 57066, Note_on_c, 13, 71, 0
14, 57234, Note_on_c, 13, 75, 99
14, 57238, Note_on_c, 13, 83, 94
14, 57580, Note_on_c, 13, 83, 0
14, 57583, Note_on_c, 13, 75, 0
14, 65666, Note_on_c, 13, 81, 117
14, 65669, Note_on_c, 13, 76, 112
14, 65711, Note_on_c, 13, 81, 0
14, 65716, Note_on_c, 13, 76, 0
14, 65826, Note_on_c, 13, 76, 116
14, 65827, Note_on_c, 13, 80, 114
14, 65881, Note_on_c, 13, 80, 0
14, 65894, Note_on_c, 13, 76, 0
14, 66271, Note_on_c, 13, 73, 124
14, 66279, Note_on_c, 13, 76, 109
14, 66317, Note_on_c, 13, 76, 0
14, 66335, Note_on_c, 13, 73, 0
14, 66446, Note_on_c, 13, 71, 121
14, 66451, Note_on_c, 13, 76, 116
14, 66502, Note_on_c, 13, 76, 0
14, 66523, Note_on_c, 13, 71, 0
14, 66910, Note_on_c, 13, 76, 122
14, 66911, Note_on_c, 13, 81, 121
14, 66959, Note_on_c, 13, 81, 0
14, 66967, Note_on_c, 13, 76, 0
14, 67076, Note_on_c, 13, 80, 115
14, 67078, Note_on_c, 13, 76, 117
14, 67136, Note_on_c, 13, 80, 0
14, 67145, Note_on_c, 13, 76, 0
14, 67509, Note_on_c, 13, 73, 124
14, 67510, Note_on_c, 13, 76, 120
14, 67549, Note_on_c, 13, 76, 0
14, 67562, Note_on_c, 13, 73, 0
14, 67676, Note_on_c, 13, 71, 118
14, 67679, Note_on_c, 13, 76, 124
14, 67722, Note_on_c, 13, 76, 0
14, 67743, Note_on_c, 13, 71, 0
14, 70599, Note_on_c, 13, 83, 122
14, 70601, Note_on_c, 13, 71, 117
14, 70736, Note_on_c, 13, 71, 0
14, 70759, Note_on_c, 13, 76, 118
14, 70791, Note_on_c, 13, 83, 0
14, 70804, Note_on_c, 13, 76, 0
14, 70922, Note_on_c, 13, 76, 113
14, 70963, Note_on_c, 13, 76, 0
14, 71082, Note_on_c, 13, 81, 122
14, 71084, Note_on_c, 13, 76, 99
14, 71466, Note_on_c, 13, 76, 0
14, 71478, Note_on_c, 13, 81, 0
14, 71530, Note_on_c, 13, 75, 123
14, 71568, Note_on_c, 13, 75, 0
14, 71689, Note_on_c, 13, 75, 114
14, 71690, Note_on_c, 13, 80, 121
14, 71926, Note_on_c, 13, 75, 0
14, 71984, Note_on_c, 13, 73, 118
14, 72019, Note_on_c, 13, 80, 0
14, 72155, Note_on_c, 13, 78, 106
14, 72188, Note_on_c, 13, 73, 0
14, 72209, Note_on_c, 13, 76, 99
14, 72247, Note_on_c, 13, 78, 0
14, 72300, Note_on_c, 13, 76, 0
14, 72306, Note_on_c, 13, 71, 112
14, 72312, Note_on_c, 13, 69, 93
14, 72590, Note_on_c, 13, 69, 0
14, 72598, Note_on_c, 13, 71, 0
14, 72613, Note_on_c, 13, 76, 117
14, 72616, Note_on_c, 13, 68, 108
14, 72653, Note_on_c, 13, 76, 0
14, 72667, Note_on_c, 13, 68, 0
14, 72778, Note_on_c, 13, 78, 119
14, 72783, Note_on_c, 13, 71, 124
14, 72824, Note_on_c, 13, 78, 0
14, 72825, Note_on_c, 13, 71, 0
14, 73251, Note_on_c, 13, 83, 120
14, 73255, Note_on_c, 13, 76, 121
14, 73286, Note_on_c, 13, 83, 0
14, 73300, Note_on_c, 13, 76, 0
14, 73429, Note_on_c, 13, 76, 122
14, 73559, Note_on_c, 13, 76, 0
14, 73602, Note_on_c, 13, 81, 125
14, 73602, Note_on_c, 13, 76, 106
14, 73997, Note_on_c, 13, 76, 0
14, 74016, Note_on_c, 13, 81, 0
14, 74051, Note_on_c, 13, 75, 121
14, 74095, Note_on_c, 13, 75, 0
14, 74211, Note_on_c, 13, 80, 116
14, 74222, Note_on_c, 13, 68, 95
14, 74356, Note_on_c, 13, 68, 0
14, 74384, Note_on_c, 13, 69, 91
14, 74445, Note_on_c, 13, 71, 104
14, 74474, Note_on_c, 13, 69, 0
14, 74529, Note_on_c, 13, 73, 115
14, 74541, Note_on_c, 13, 71, 0
14, 74547, Note_on_c, 13, 80, 0
14, 74568, Note_on_c, 13, 73, 0
14, 74680, Note_on_c, 13, 73, 116
14, 74682, Note_on_c, 13, 69, 96
14, 74836, Note_on_c, 13, 68, 96
14, 74838, Note_on_c, 13, 71, 106
14, 74858, Note_on_c, 13, 69, 0
14, 74863, Note_on_c, 13, 73, 0
14, 75112, Note_on_c, 13, 66, 105
14, 75121, Note_on_c, 13, 69, 87
14, 75126, Note_on_c, 13, 71, 0
14, 75135, Note_on_c, 13, 68, 0
14, 75143, Note_on_c, 13, 69, 0
14, 75153, Note_on_c, 13, 66, 0
14, 75261, Note_on_c, 13, 69, 117
14, 75262, Note_on_c, 13, 66, 118
14, 75480, Note_on_c, 13, 66, 0
14, 75497, Note_on_c, 13, 69, 0
14, 75572, Note_on_c, 13, 66, 118
14, 75574, Note_on_c, 13, 69, 102
14, 75612, Note_on_c, 13, 69, 0
14, 75621, Note_on_c, 13, 66, 0
14, 75712, Note_on_c, 13, 68, 114
14, 75717, Note_on_c, 13, 64, 101
14, 75757, Note_on_c, 13, 64, 0
14, 75760, Note_on_c, 13, 68, 0
14, 76170, Note_on_c, 13, 66, 115
14, 76171, Note_on_c, 13, 69, 94
14, 76199, Note_on_c, 13, 69, 0
14, 76205, Note_on_c, 13, 66, 0
14, 76326, Note_on_c, 13, 68, 113
14, 76328, Note_on_c, 13, 64, 98
14, 76361, Note_on_c, 13, 64, 0
14, 76362, Note_on_c, 13, 68, 0
14, 76799, Note_on_c, 13, 69, 101
14, 76800, Note_on_c, 13, 66, 108
14, 76834, Note_on_c, 13, 66, 0
14, 76834, Note_on_c, 13, 69, 0
14, 76952, Note_on_c, 13, 68, 114
14, 76952, Note_on_c, 13, 64, 101
14, 76987, Note_on_c, 13, 64, 0
14, 76989, Note_on_c, 13, 68, 0
14, 77255, Note_on_c, 13, 71, 113
14, 77260, Note_on_c, 13, 68, 116
14, 77294, Note_on_c, 13, 71, 0
14, 77298, Note_on_c, 13, 68, 0
14, 77572, Note_on_c, 13, 80, 114
14, 77576, Note_on_c, 13, 71, 116
14, 77657, Note_on_c, 13, 71, 0
14, 77666, Note_on_c, 13, 80, 0
14, 143169, Note_on_c, 13, 70, 115
14, 143175, Note_on_c, 13, 79, 108
14, 143329, Note_on_c, 13, 70, 0
14, 143336, Note_on_c, 13, 78, 114
14, 143336, Note_on_c, 13, 71, 111
14, 143352, Note_on_c, 13, 79, 0
14, 143379, Note_on_c, 13, 78, 0
14, 143381, Note_on_c, 13, 71, 0
14, 143516, Note_on_c, 13, 72, 118
14, 143520, Note_on_c, 13, 81, 117
14, 143568, Note_on_c, 13, 72, 0
14, 143569, Note_on_c, 13, 81, 0
14, 143700, Note_on_c, 13, 73, 123
14, 143701, Note_on_c, 13, 81, 120
14, 143829, Note_on_c, 13, 81, 0
14, 143835, Note_on_c, 13, 73, 0
14, 144060, Note_on_c, 13, 80, 113
14, 144060, Note_on_c, 13, 74, 118
14, 144455, Note_on_c, 13, 73, 118
14, 144457, Note_on_c, 13, 80, 0
14, 144457, Note_on_c, 13, 81, 102
14, 144472, Note_on_c, 13, 74, 0
14, 144615, Note_on_c, 13, 81, 0
14, 144615, Note_on_c, 13, 73, 0
14, 151839, Note_on_c, 13, 68, 66
14, 151841, Note_on_c, 13, 80, 68
14, 152167, Note_on_c, 13, 76, 61
14, 152179, Note_on_c, 13, 80, 0
14, 152461, Note_on_c, 13, 68, 0
14, 152484, Note_on_c, 13, 69, 51
14, 152624, Note_on_c, 13, 70, 70
14, 152652, Note_on_c, 13, 69, 0
14, 152765, Note_on_c, 13, 70, 0
14, 152777, Note_on_c, 13, 71, 45
14, 152785, Note_on_c, 13, 75, 68
14, 152790, Note_on_c, 13, 76, 0
14, 153057, Note_on_c, 13, 71, 0
14, 153063, Note_on_c, 13, 75, 0
14, 201592, Note_on_c, 13, 76, 116
14, 201601, Note_on_c, 13, 68, 80
14, 201757, Note_on_c, 13, 70, 105
14, 201793, Note_on_c, 13, 68, 0
14, 201889, Note_on_c, 13, 70, 0
14, 201919, Note_on_c, 13, 75, 108
14, 201920, Note_on_c, 13, 71, 106
14, 201925, Note_on_c, 13, 76, 0
14, 201963, Note_on_c, 13, 75, 0
14, 202095, Note_on_c, 13, 80, 114
14, 202149, Note_on_c, 13, 80, 0
14, 202164, Note_on_c, 13, 71, 0
14, 202270, Note_on_c, 13, 66, 105
14, 202270, Note_on_c, 13, 71, 94
14, 202337, Note_on_c, 13, 73, 100
14, 202356, Note_on_c, 13, 71, 0
14, 202422, Note_on_c, 13, 71, 94
14, 202425, Note_on_c, 13, 68, 91
14, 202434, Note_on_c, 13, 66, 0
14, 202436, Note_on_c, 13, 73, 0
14, 202482, Note_on_c, 13, 73, 109
14, 202485, Note_on_c, 13, 66, 97
14, 202495, Note_on_c, 13, 71, 0
14, 202506, Note_on_c, 13, 68, 0
14, 202543, Note_on_c, 13, 66, 0
14, 202545, Note_on_c, 13, 73, 0
14, 202570, Note_on_c, 13, 75, 110
14, 202570, Note_on_c, 13, 66, 106
14, 202620, Note_on_c, 13, 75, 0
14, 202642, Note_on_c, 13, 66, 0
14, 202735, Note_on_c, 13, 71, 113
14, 202788, Note_on_c, 13, 71, 0
14, 202900, Note_on_c, 13, 73, 93
14, 202901, Note_on_c, 13, 81, 109
14, 203072, Note_on_c, 13, 75, 107
14, 203103, Note_on_c, 13, 73, 0
14, 203159, Note_on_c, 13, 75, 0
14, 203228, Note_on_c, 13, 80, 106
14, 203230, Note_on_c, 13, 76, 108
14, 203253, Note_on_c, 13, 81, 0
14, 203285, Note_on_c, 13, 80, 0
14, 203296, Note_on_c, 13, 76, 0
14, 203395, Note_on_c, 13, 76, 107
14, 203396, Note_on_c, 13, 73, 106
14, 203512, Note_on_c, 13, 73, 0
14, 203575, Note_on_c, 13, 71, 109
14, 203631, Note_on_c, 13, 76, 0
14, 203655, Note_on_c, 13, 78, 96
14, 203740, Note_on_c, 13, 71, 0
14, 203743, Note_on_c, 13, 76, 94
14, 203748, Note_on_c, 13, 78, 0
14, 203752, Note_on_c, 13, 73, 101
14, 203799, Note_on_c, 13, 78, 106
14, 203811, Note_on_c, 13, 73, 0
14, 203811, Note_on_c, 13, 71, 90
14, 203812, Note_on_c, 13, 76, 0
14, 203865, Note_on_c, 13, 71, 0
14, 203872, Note_on_c, 13, 78, 0
14, 203890, Note_on_c, 13, 80, 109
14, 203893, Note_on_c, 13, 71, 101
14, 203938, Note_on_c, 13, 80, 0
14, 203947, Note_on_c, 13, 71, 0
14, 204076, Note_on_c, 13, 64, 112
14, 204136, Note_on_c, 13, 64, 0
14, 204587, Note_on_c, 13, 71, 114
14, 204590, Note_on_c, 13, 83, 120
14, 204645, Note_on_c, 13, 71, 0
14, 204647, Note_on_c, 13, 83, 0
14, 204762, Note_on_c, 13, 64, 114
14, 204844, Note_on_c, 13, 64, 0
14, 205244, Note_on_c, 13, 71, 116
14, 205249, Note_on_c, 13, 83, 117
14, 205315, Note_on_c, 13, 71, 0
14, 205324, Note_on_c, 13, 83, 0
14, 205426, Note_on_c, 13, 64, 106
14, 205498, Note_on_c, 13, 64, 0
14, 205603, Note_on_c, 13, 68, 112
14, 205606, Note_on_c, 13, 71, 90
14, 205735, Note_on_c, 13, 71, 0
14, 205744, Note_on_c, 13, 68, 0
14, 205941, Note_on_c, 13, 71, 96
14, 205943, Note_on_c, 13, 68, 109
14, 206122, Note_on_c, 13, 71, 0
14, 206135, Note_on_c, 13, 68, 0
14, 206295, Note_on_c, 13, 71, 106
14, 206296, Note_on_c, 13, 80, 108
14, 206344, Note_on_c, 13, 80, 0
14, 206354, Note_on_c, 13, 71, 0
14, 206463, Note_on_c, 13, 70, 115
14, 206464, Note_on_c, 13, 82, 115
14, 206520, Note_on_c, 13, 70, 0
14, 206534, Note_on_c, 13, 82, 0
14, 206633, Note_on_c, 13, 83, 116
14, 206635, Note_on_c, 13, 68, 112
14, 206725, Note_on_c, 13, 83, 0
14, 206732, Note_on_c, 13, 68, 0
14, 206808, Note_on_c, 13, 68, 108
14, 206849, Note_on_c, 13, 68, 0
14, 206977, Note_on_c, 13, 80, 115
14, 206985, Note_on_c, 13, 68, 118
14, 207020, Note_on_c, 13, 80, 0
14, 207027, Note_on_c, 13, 68, 0
14, 207147, Note_on_c, 13, 80, 115
14, 207152, Note_on_c, 13, 68, 116
14, 207200, Note_on_c, 13, 80, 0
14, 207203, Note_on_c, 13, 68, 0
14, 207319, Note_on_c, 13, 68, 116
14, 207321, Note_on_c, 13, 80, 119
14, 207724, Note_on_c, 13, 80, 0
14, 207729, Note_on_c, 13, 68, 0
14, 208350, Note_on_c, 13, 80, 106
14, 208357, Note_on_c, 13, 68, 114
14, 208391, Note_on_c, 13, 80, 0
14, 208397, Note_on_c, 13, 68, 0
14, 208521, Note_on_c, 13, 68, 116
14, 208521, Note_on_c, 13, 80, 114
14, 208561, Note_on_c, 13, 80, 0
14, 208561, Note_on_c, 13, 68, 0
14, 208696, Note_on_c, 13, 80, 118
14, 208697, Note_on_c, 13, 68, 118
14, 209089, Note_on_c, 13, 80, 0
14, 209102, Note_on_c, 13, 68, 0
14, 209756, Note_on_c, 13, 83, 117
14, 209762, Note_on_c, 13, 71, 121
14, 209795, Note_on_c, 13, 83, 0
14, 209814, Note_on_c, 13, 71, 0
14, 209928, Note_on_c, 13, 83, 111
14, 209930, Note_on_c, 13, 71, 122
14, 209971, Note_on_c, 13, 83, 0
14, 210001, Note_on_c, 13, 71, 0
14, 210105, Note_on_c, 13, 83, 118
14, 210108, Note_on_c, 13, 71, 124
14, 210342, Note_on_c, 13, 83, 0
14, 210370, Note_on_c, 13, 71, 0
14, 210460, Note_on_c, 13, 69, 71
14, 210474, Note_on_c, 13, 66, 74
14, 210772, Note_on_c, 13, 68, 88
14, 210783, Note_on_c, 13, 64, 58
14, 210788, Note_on_c, 13, 66, 0
14, 210792, Note_on_c, 13, 69, 0
14, 210846, Note_on_c, 13, 69, 68
14, 210854, Note_on_c, 13, 68, 0
14, 210918, Note_on_c, 13, 68, 79
14, 210948, Note_on_c, 13, 69, 0
14, 211080, Note_on_c, 13, 68, 0
14, 211085, Note_on_c, 13, 66, 80
14, 211087, Note_on_c, 13, 69, 87
14, 211104, Note_on_c, 13, 64, 0
14, 211395, Note_on_c, 13, 68, 91
14, 211401, Note_on_c, 13, 64, 91
14, 211404, Note_on_c, 13, 66, 0
14, 211421, Note_on_c, 13, 69, 0
14, 211470, Note_on_c, 13, 69, 90
14, 211483, Note_on_c, 13, 68, 0
14, 211548, Note_on_c, 13, 68, 105
14, 211575, Note_on_c, 13, 69, 0
14, 211647, Note_on_c, 13, 64, 0
14, 211654, Note_on_c, 13, 68, 0
14, 211695, Note_on_c, 13, 66, 107
14, 211697, Note_on_c, 13, 69, 100
14, 211978, Note_on_c, 13, 66, 0
14, 212002, Note_on_c, 13, 68, 99
14, 212004, Note_on_c, 13, 64, 102
14, 212005, Note_on_c, 13, 69, 0
14, 212063, Note_on_c, 13, 69, 91
14, 212071, Note_on_c, 13, 68, 0
14, 212144, Note_on_c, 13, 68, 110
14, 212170, Note_on_c, 13, 69, 0
14, 212196, Note_on_c, 13, 68, 0
14, 212216, Note_on_c, 13, 64, 0
14, 212300, Note_on_c, 13, 66, 88
14, 212303, Note_on_c, 13, 75, 101
14, 212419, Note_on_c, 13, 75, 0
14, 212444, Note_on_c, 13, 66, 0
14, 212458, Note_on_c, 13, 74, 103
14, 212459, Note_on_c, 13, 68, 75
14, 212583, Note_on_c, 13, 74, 0
14, 212603, Note_on_c, 13, 68, 0
14, 212614, Note_on_c, 13, 69, 93
14, 212615, Note_on_c, 13, 75, 113
14, 212746, Note_on_c, 13, 69, 0
14, 212747, Note_on_c, 13, 75, 0
14, 212769, Note_on_c, 13, 68, 107
14, 212772, Note_on_c, 13, 76, 109
14, 212901, Note_on_c, 13, 76, 0
14, 212906, Note_on_c, 13, 68, 0
14, 212934, Note_on_c, 13, 66, 110
14, 212936, Note_on_c, 13, 78, 110
14, 213008, Note_on_c, 13, 66, 0
14, 213019, Note_on_c, 13, 78, 0
14, 213091, Note_on_c, 13, 74, 106
14, 213091, Note_on_c, 13, 68, 114
14, 213210, Note_on_c, 13, 74, 0
14, 213238, Note_on_c, 13, 68, 0
14, 213251, Note_on_c, 13, 75, 118
14, 213253, Note_on_c, 13, 69, 104
14, 213340, Note_on_c, 13, 69, 0
14, 213345, Note_on_c, 13, 75, 0
14, 213404, Note_on_c, 13, 76, 117
14, 213406, Note_on_c, 13, 68, 120
14, 213492, Note_on_c, 13, 76, 0
14, 213497, Note_on_c, 13, 68, 0
14, 213557, Note_on_c, 13, 66, 119
14, 213559, Note_on_c, 13, 78, 118
14, 213753, Note_on_c, 13, 78, 0
14, 213764, Note_on_c, 13, 66, 0
14, 213875, Note_on_c, 13, 78, 112
14, 213876, Note_on_c, 13, 71, 111
14, 214014, Note_on_c, 13, 78, 0
14, 214026, Note_on_c, 13, 71, 0
14, 214194, Note_on_c, 13, 75, 99
14, 214198, Note_on_c, 13, 83, 94
14, 214540, Note_on_c, 13, 83, 0
14, 214543, Note_on_c, 13, 75, 0
14, 222626, Note_on_c, 13, 81, 117
14, 222629, Note_on_c, 13, 76, 112
14, 222671, Note_on_c, 13, 81, 0
14, 222676, Note_on_c, 13, 76, 0
14, 222786, Note_on_c, 13, 76, 116
14, 222787, Note_on_c, 13, 80, 114
14, 222841, Note_on_c, 13, 80, 0
14, 222854, Note_on_c, 13, 76, 0
14, 223231, Note_on_c, 13, 73, 124
14, 223239, Note_on_c, 13, 76, 109
14, 223277, Note_on_c, 13, 76, 0
14, 223295, Note_on_c, 13, 73, 0
14, 223406, Note_on_c, 13, 71, 121
14, 223411, Note_on_c, 13, 76, 116
14, 223462, Note_on_c, 13, 76, 0
14, 223483, Note_on_c, 13, 71, 0
14, 223870, Note_on_c, 13, 76, 122
14, 223871, Note_on_c, 13, 81, 121
14, 223919, Note_on_c, 13, 81, 0
14, 223927, Note_on_c, 13, 76, 0
14, 224036, Note_on_c, 13, 80, 115
14, 224038, Note_on_c, 13, 76, 117
14, 224096, Note_on_c, 13, 80, 0
14, 224105, Note_on_c, 13, 76, 0
14, 224469, Note_on_c, 13, 73, 124
14, 224470, Note_on_c, 13, 76, 120
14, 224509, Note_on_c, 13, 76, 0
14, 224522, Note_on_c, 13, 73, 0
14, 224636, Note_on_c, 13, 71, 118
14, 224639, Note_on_c, 13, 76, 124
14, 224682, Note_on_c, 13, 76, 0
14, 224703, Note_on_c, 13, 71, 0
14, 227608, Note_on_c, 13, 75, 101
14, 227611, Note_on_c, 13, 80, 87
14, 227786, Note_on_c, 13, 73, 90
14, 227795, Note_on_c, 13, 75, 0
14, 227821, Note_on_c, 13, 80, 0
14, 227825, Note_on_c, 13, 73, 0
14, 227946, Note_on_c, 13, 73, 108
14, 228024, Note_on_c, 13, 73, 0
14, 228112, Note_on_c, 13, 78, 107
14, 228117, Note_on_c, 13, 73, 94
14, 228504, Note_on_c, 13, 73, 0
14, 228570, Note_on_c, 13, 78, 0
14, 228580, Note_on_c, 13, 75, 110
14, 228620, Note_on_c, 13, 75, 0
14, 228744, Note_on_c, 13, 76, 94
14, 228748, Note_on_c, 13, 73, 82
14, 229062, Note_on_c, 13, 81, 86
14, 229080, Note_on_c, 13, 76, 0
14, 229113, Note_on_c, 13, 73, 0
14, 229121, Note_on_c, 13, 81, 0
14, 229232, Note_on_c, 13, 81, 103
14, 229236, Note_on_c, 13, 73, 93
14, 229563, Note_on_c, 13, 80, 100
14, 229585, Note_on_c, 13, 81, 0
14, 229688, Note_on_c, 13, 73, 0
14, 229736, Note_on_c, 13, 78, 105
14, 229737, Note_on_c, 13, 80, 0
14, 229737, Note_on_c, 13, 73, 97
14, 229767, Note_on_c, 13, 73, 0
14, 229781, Note_on_c, 13, 78, 0
14, 229912, Note_on_c, 13, 78, 113
14, 229916, Note_on_c, 13, 73, 99
14, 230225, Note_on_c, 13, 78, 0
14, 230243, Note_on_c, 13, 76, 88
14, 230273, Note_on_c, 13, 73, 0
14, 230375, Note_on_c, 13, 76, 0
14, 230414, Note_on_c, 13, 75, 101
14, 230516, Note_on_c, 13, 75, 0
14, 315766, Note_on_c, 13, 65, 104
14, 315772, Note_on_c, 13, 74, 117
14, 315948, Note_on_c, 13, 73, 108
14, 315953, Note_on_c, 13, 66, 108
14, 315974, Note_on_c, 13, 74, 0
14, 315983, Note_on_c, 13, 65, 0
14, 316015, Note_on_c, 13, 73, 0
14, 316022, Note_on_c, 13, 66, 0
14, 316134, Note_on_c, 13, 67, 104
14, 316134, Note_on_c, 13, 76, 104
14, 316214, Note_on_c, 13, 67, 0
14, 316222, Note_on_c, 13, 76, 0
14, 316326, Note_on_c, 13, 76, 100
14, 316329, Note_on_c, 13, 68, 115
14, 316407, Note_on_c, 13, 68, 0
14, 316407, Note_on_c, 13, 76, 0
14, 316727, Note_on_c, 13, 75, 114
14, 316729, Note_on_c, 13, 81, 118
14, 317175, Note_on_c, 13, 76, 109
14, 317175, Note_on_c, 13, 80, 109
14, 317205, Note_on_c, 13, 75, 0
14, 317214, Note_on_c, 13, 81, 0
14, 317389, Note_on_c, 13, 80, 0
14, 317392, Note_on_c, 13, 76, 0
14, 322430, Note_on_c, 13, 83, 91
14, 322431, Note_on_c, 13, 76, 91
14, 322607, Note_on_c, 13, 76, 0
14, 322609, Note_on_c, 13, 83, 0
14, 328877, Note_on_c, 13, 69, 73
14, 329542, Note_on_c, 13, 71, 79
14, 329577, Note_on_c, 13, 69, 0
14, 329894, Note_on_c, 13, 63, 83
14, 330516, Note_on_c, 13, 64, 86
14, 330518, Note_on_c, 13, 63, 0
14, 330897, Note_on_c, 13, 73, 94
14, 330940, Note_on_c, 13, 71, 0
14, 331230, Note_on_c, 13, 66, 114
14, 331275, Note_on_c, 13, 64, 0
14, 331553, Note_on_c, 13, 67, 117
14, 331580, Note_on_c, 13, 66, 0
14, 331805, Note_on_c, 13, 67, 0
14, 331813, Note_on_c, 13, 73, 0
14, 357120, Control_c, 13, 11, 100
14, 357126, Note_on_c, 13, 83, 113
14, 357127, Note_on_c, 13, 76, 117
14, 357220, Note_on_c, 13, 76, 0
14, 357225, Note_on_c, 13, 83, 0
14, 357249, Note_on_c, 13, 83, 108
14, 357252, Note_on_c, 13, 76, 112
14, 357634, Note_on_c, 13, 76, 0
14, 357745, Note_on_c, 13, 83, 0
14, 357784, Note_on_c, 13, 80, 112
14, 357787, Note_on_c, 13, 76, 101
14, 358246, Note_on_c, 13, 76, 0
14, 358255, Note_on_c, 13, 80, 0
14, 358346, Note_on_c, 13, 64, 102
14, 358498, Note_on_c, 13, 64, 0
14, 358529, Note_on_c, 13, 64, 109
14, 360678, Note_on_c, 13, 64, 0
14, 361440, End_track
15, 0, Start_track
15, 0, Title_t, "Clarinetti (C)"
15, 0, MIDI_port, 0
15, 0, Control_c, 14, 121, 0
15, 80, Control_c, 14, 101, 0
15, 100, Control_c, 14, 100, 0
15, 120, Control_c, 14, 6, 12
15, 140, Control_c, 14, 10, 72
15, 160, Control_c, 14, 7, 100
15, 180, Control_c, 14, 0, 0
15, 200, Program_c, 14, 71
15, 220, Control_c, 14, 91, 80
15, 240, Control_c, 14, 93, 24
15, 260, Control_c, 14, 1, 14
15, 280, Control_c, 14, 11, 80
15, 300, Pitch_bend_c, 14, 8192
15, 320, Control_c, 14, 99, 1
15, 340, Control_c, 14, 98, 32
15, 360, Control_c, 14, 6, 80
15, 380, Control_c, 14, 98, 33
15, 400, Control_c, 14, 6, 62
15, 420, Control_c, 14, 98, 100
15, 440, Control_c, 14, 6, 64
15, 460, Control_c, 14, 98, 102
15, 480, Control_c, 14, 6, 64
15, 500, Control_c, 14, 98, 99
15, 520, Control_c, 14, 6, 64
15, 540, Control_c, 14, 101, 0
15, 560, Control_c, 14, 100, 2
15, 705, Control_c, 14, 6, 64
15, 2672, Control_c, 14, 11, 30
15, 2672, Note_on_c, 14, 63, 36
15, 2675, Note_on_c, 14, 68, 39
15, 2677, Control_c, 14, 11, 38
15, 2682, Control_c, 14, 11, 43
15, 2687, Control_c, 14, 11, 47
15, 2692, Control_c, 14, 11, 52
15, 2697, Control_c, 14, 11, 55
15, 2702, Control_c, 14, 11, 59
15, 2707, Control_c, 14, 11, 61
15, 2712, Control_c, 14, 11, 64
15, 2717, Control_c, 14, 11, 66
15, 2722, Control_c, 14, 11, 68
15, 2727, Control_c, 14, 11, 69
15, 2732, Control_c, 14, 11, 71
15, 2737, Control_c, 14, 11, 72
15, 2742, Control_c, 14, 11, 73
15, 2747, Control_c, 14, 11, 74
15, 2752, Control_c, 14, 11, 75
15, 2757, Control_c, 14, 11, 76
15, 2767, Control_c, 14, 11, 77
15, 2777, Control_c, 14, 11, 78
15, 2792, Control_c, 14, 11, 79
15, 2812, Control_c, 14, 11, 80
15, 2980, Note_on_c, 14, 69, 47
15, 2989, Note_on_c, 14, 64, 36
15, 3031, Note_on_c, 14, 68, 0
15, 3035, Note_on_c, 14, 63, 0
15, 3282, Note_on_c, 14, 63, 26
15, 3283, Note_on_c, 14, 68, 33
15, 3330, Note_on_c, 14, 69, 0
15, 3331, Note_on_c, 14, 64, 0
15, 3570, Note_on_c, 14, 68, 0
15, 3577, Note_on_c, 14, 63, 0
15, 29983, Note_on_c, 14, 69, 25
15, 29995, Note_on_c, 14, 66, 33
15, 30835, Note_on_c, 14, 59, 28
15, 30839, Note_on_c, 14, 71, 32
15, 30910, Note_on_c, 14, 69, 0
15, 30951, Note_on_c, 14, 66, 0
15, 31677, Note_on_c, 14, 71, 0
15, 31685, Note_on_c, 14, 59, 0
15, 44619, Note_on_c, 14, 68, 93
15, 44623, Note_on_c, 14, 64, 87
15, 44749, Note_on_c, 14, 68, 0
15, 44781, Note_on_c, 14, 66, 104
15, 44822, Note_on_c, 14, 66, 0
15, 44907, Note_on_c, 14, 64, 0
15, 44947, Note_on_c, 14, 66, 100
15, 44951, Note_on_c, 14, 63, 96
15, 45008, Note_on_c, 14, 63, 0
15, 45019, Note_on_c, 14, 66, 0
15, 45125, Note_on_c, 14, 68, 99
15, 45126, Note_on_c, 14, 59, 91
15, 45185, Note_on_c, 14, 68, 0
15, 45239, Note_on_c, 14, 59, 0
15, 45291, Note_on_c, 14, 66, 96
15, 45295, Note_on_c, 14, 63, 100
15, 45359, Note_on_c, 14, 63, 0
15, 45399, Note_on_c, 14, 66, 0
15, 45455, Note_on_c, 14, 64, 98
15, 45456, Note_on_c, 14, 61, 101
15, 45520, Note_on_c, 14, 61, 0
15, 45536, Note_on_c, 14, 64, 0
15, 45623, Note_on_c, 14, 63, 99
15, 45623, Note_on_c, 14, 59, 90
15, 45712, Note_on_c, 14, 63, 0
15, 45717, Note_on_c, 14, 59, 0
15, 45794, Note_on_c, 14, 59, 101
15, 45865, Note_on_c, 14, 59, 0
15, 45949, Note_on_c, 14, 69, 91
15, 45952, Note_on_c, 14, 66, 90
15, 46234, Note_on_c, 14, 66, 0
15, 46270, Note_on_c, 14, 71, 100
15, 46274, Note_on_c, 14, 64, 90
15, 46277, Note_on_c, 14, 69, 0
15, 46370, Note_on_c, 14, 71, 0
15, 46417, Note_on_c, 14, 64, 0
15, 46436, Note_on_c, 14, 73, 106
15, 46488, Note_on_c, 14, 73, 0
15, 46605, Note_on_c, 14, 68, 104
15, 46612, Note_on_c, 14, 64, 76
15, 46700, Note_on_c, 14, 64, 0
15, 46712, Note_on_c, 14, 68, 0
15, 46776, Note_on_c, 14, 66, 103
15, 46866, Note_on_c, 14, 66, 0
15, 46946, Note_on_c, 14, 68, 98
15, 46955, Note_on_c, 14, 64, 81
15, 47037, Note_on_c, 14, 68, 0
15, 47068, Note_on_c, 14, 64, 0
15, 47122, Note_on_c, 14, 64, 98
15, 47205, Note_on_c, 14, 64, 0
15, 47296, Note_on_c, 14, 73, 99
15, 47365, Note_on_c, 14, 75, 92
15, 47377, Note_on_c, 14, 73, 0
15, 47449, Note_on_c, 14, 73, 88
15, 47466, Note_on_c, 14, 75, 0
15, 47514, Note_on_c, 14, 75, 85
15, 47532, Note_on_c, 14, 73, 0
15, 47587, Note_on_c, 14, 75, 0
15, 47610, Note_on_c, 14, 76, 94
15, 47616, Note_on_c, 14, 71, 74
15, 47656, Note_on_c, 14, 71, 0
15, 47788, Note_on_c, 14, 64, 83
15, 47841, Note_on_c, 14, 76, 0
15, 47844, Note_on_c, 14, 64, 0
15, 47972, Note_on_c, 14, 73, 98
15, 48036, Note_on_c, 14, 75, 91
15, 48056, Note_on_c, 14, 73, 0
15, 48117, Note_on_c, 14, 75, 0
15, 48124, Note_on_c, 14, 73, 77
15, 48183, Note_on_c, 14, 75, 81
15, 48203, Note_on_c, 14, 73, 0
15, 48239, Note_on_c, 14, 75, 0
15, 48283, Note_on_c, 14, 76, 97
15, 48293, Note_on_c, 14, 71, 75
15, 48398, Note_on_c, 14, 71, 0
15, 48452, Note_on_c, 14, 76, 0
15, 48462, Note_on_c, 14, 64, 85
15, 48534, Note_on_c, 14, 64, 0
15, 48642, Note_on_c, 14, 71, 67
15, 48648, Note_on_c, 14, 64, 74
15, 48879, Note_on_c, 14, 71, 0
15, 48880, Note_on_c, 14, 64, 0
15, 48998, Note_on_c, 14, 68, 92
15, 48999, Note_on_c, 14, 71, 91
15, 49245, Note_on_c, 14, 68, 0
15, 49249, Note_on_c, 14, 71, 0
15, 49327, Note_on_c, 14, 71, 85
15, 49332, Note_on_c, 14, 63, 91
15, 49374, Note_on_c, 14, 71, 0
15, 49406, Note_on_c, 14, 63, 0
15, 49492, Note_on_c, 14, 73, 103
15, 49496, Note_on_c, 14, 75, 93
15, 49561, Note_on_c, 14, 73, 0
15, 49578, Note_on_c, 14, 75, 0
15, 49663, Note_on_c, 14, 75, 100
15, 49666, Note_on_c, 14, 71, 85
15, 49751, Note_on_c, 14, 71, 0
15, 49773, Note_on_c, 14, 75, 0
15, 49828, Note_on_c, 14, 68, 95
15, 49935, Note_on_c, 14, 68, 0
15, 49996, Note_on_c, 14, 80, 118
15, 50004, Note_on_c, 14, 68, 116
15, 50033, Note_on_c, 14, 80, 0
15, 50045, Note_on_c, 14, 68, 0
15, 50157, Note_on_c, 14, 80, 113
15, 50163, Note_on_c, 14, 68, 120
15, 50221, Note_on_c, 14, 80, 0
15, 50222, Note_on_c, 14, 68, 0
15, 50347, Note_on_c, 14, 68, 113
15, 50349, Note_on_c, 14, 80, 115
15, 50687, Note_on_c, 14, 80, 0
15, 50704, Note_on_c, 14, 68, 0
15, 50709, Note_on_c, 14, 66, 87
15, 50727, Note_on_c, 14, 63, 67
15, 51014, Note_on_c, 14, 66, 0
15, 51056, Note_on_c, 14, 64, 68
15, 51063, Note_on_c, 14, 61, 78
15, 51066, Note_on_c, 14, 63, 0
15, 51118, Note_on_c, 14, 66, 86
15, 51131, Note_on_c, 14, 64, 0
15, 51208, Note_on_c, 14, 66, 0
15, 51213, Note_on_c, 14, 64, 76
15, 51261, Note_on_c, 14, 64, 0
15, 51293, Note_on_c, 14, 61, 0
15, 51374, Note_on_c, 14, 80, 112
15, 51378, Note_on_c, 14, 68, 119
15, 51426, Note_on_c, 14, 80, 0
15, 51445, Note_on_c, 14, 68, 0
15, 51535, Note_on_c, 14, 80, 115
15, 51539, Note_on_c, 14, 68, 118
15, 51607, Note_on_c, 14, 80, 0
15, 51621, Note_on_c, 14, 68, 0
15, 51716, Note_on_c, 14, 80, 115
15, 51716, Note_on_c, 14, 68, 118
15, 52047, Note_on_c, 14, 80, 0
15, 52094, Note_on_c, 14, 66, 100
15, 52102, Note_on_c, 14, 68, 0
15, 52104, Note_on_c, 14, 63, 83
15, 52324, Note_on_c, 14, 66, 0
15, 52402, Note_on_c, 14, 63, 0
15, 52429, Note_on_c, 14, 64, 88
15, 52441, Note_on_c, 14, 61, 73
15, 52508, Note_on_c, 14, 66, 84
15, 52520, Note_on_c, 14, 64, 0
15, 52600, Note_on_c, 14, 66, 0
15, 52614, Note_on_c, 14, 64, 65
15, 52715, Note_on_c, 14, 61, 0
15, 52727, Note_on_c, 14, 64, 0
15, 52771, Note_on_c, 14, 71, 114
15, 52777, Note_on_c, 14, 59, 118
15, 52831, Note_on_c, 14, 71, 0
15, 52838, Note_on_c, 14, 59, 0
15, 52937, Note_on_c, 14, 71, 118
15, 52939, Note_on_c, 14, 59, 118
15, 53006, Note_on_c, 14, 59, 0
15, 53017, Note_on_c, 14, 71, 0
15, 53124, Note_on_c, 14, 71, 120
15, 53125, Note_on_c, 14, 59, 117
15, 53469, Note_on_c, 14, 59, 0
15, 53505, Note_on_c, 14, 69, 76
15, 53506, Note_on_c, 14, 59, 65
15, 53534, Note_on_c, 14, 71, 0
15, 53782, Note_on_c, 14, 59, 0
15, 53809, Note_on_c, 14, 69, 0
15, 53823, Note_on_c, 14, 68, 86
15, 53842, Note_on_c, 14, 64, 60
15, 53894, Note_on_c, 14, 69, 72
15, 53901, Note_on_c, 14, 68, 0
15, 53980, Note_on_c, 14, 68, 94
15, 54007, Note_on_c, 14, 69, 0
15, 54111, Note_on_c, 14, 64, 0
15, 54116, Note_on_c, 14, 68, 0
15, 54147, Note_on_c, 14, 69, 84
15, 54148, Note_on_c, 14, 63, 95
15, 54214, Note_on_c, 14, 63, 0
15, 54220, Note_on_c, 14, 64, 64
15, 54295, Note_on_c, 14, 63, 90
15, 54304, Note_on_c, 14, 64, 0
15, 54424, Note_on_c, 14, 69, 0
15, 54443, Note_on_c, 14, 68, 96
15, 54460, Note_on_c, 14, 63, 0
15, 54460, Note_on_c, 14, 64, 102
15, 54503, Note_on_c, 14, 69, 93
15, 54522, Note_on_c, 14, 68, 0
15, 54587, Note_on_c, 14, 68, 103
15, 54617, Note_on_c, 14, 69, 0
15, 54629, Note_on_c, 14, 64, 0
15, 54704, Note_on_c, 14, 68, 0
15, 54747, Note_on_c, 14, 63, 103
15, 54748, Note_on_c, 14, 69, 102
15, 54814, Note_on_c, 14, 64, 88
15, 54825, Note_on_c, 14, 63, 0
15, 54901, Note_on_c, 14, 63, 110
15, 54912, Note_on_c, 14, 64, 0
15, 54995, Note_on_c, 14, 63, 0
15, 55008, Note_on_c, 14, 69, 0
15, 55044, Note_on_c, 14, 68, 108
15, 55049, Note_on_c, 14, 64, 113
15, 55105, Note_on_c, 14, 69, 94
15, 55121, Note_on_c, 14, 68, 0
15, 55193, Note_on_c, 14, 68, 114
15, 55219, Note_on_c, 14, 69, 0
15, 55245, Note_on_c, 14, 68, 0
15, 55333, Note_on_c, 14, 75, 71
15, 55335, Note_on_c, 14, 66, 76
15, 55376, Note_on_c, 14, 64, 0
15, 55459, Note_on_c, 14, 66, 0
15, 55476, Note_on_c, 14, 75, 0
15, 55505, Note_on_c, 14, 68, 92
15, 55507, Note_on_c, 14, 77, 93
15, 55652, Note_on_c, 14, 77, 0
15, 55656, Note_on_c, 14, 68, 0
15, 55670, Note_on_c, 14, 78, 101
15, 55673, Note_on_c, 14, 69, 90
15, 55797, Note_on_c, 14, 69, 0
15, 55820, Note_on_c, 14, 78, 0
15, 55831, Note_on_c, 14, 76, 100
15, 55831, Note_on_c, 14, 68, 97
15, 55967, Note_on_c, 14, 68, 0
15, 55985, Note_on_c, 14, 75, 107
15, 55987, Note_on_c, 14, 66, 110
15, 56010, Note_on_c, 14, 76, 0
15, 56114, Note_on_c, 14, 66, 0
15, 56128, Note_on_c, 14, 68, 112
15, 56129, Note_on_c, 14, 75, 0
15, 56131, Note_on_c, 14, 77, 106
15, 56281, Note_on_c, 14, 68, 0
15, 56288, Note_on_c, 14, 69, 109
15, 56290, Note_on_c, 14, 78, 106
15, 56321, Note_on_c, 14, 77, 0
15, 56420, Note_on_c, 14, 78, 0
15, 56437, Note_on_c, 14, 76, 99
15, 56442, Note_on_c, 14, 68, 114
15, 56456, Note_on_c, 14, 69, 0
15, 56559, Note_on_c, 14, 68, 0
15, 56587, Note_on_c, 14, 76, 0
15, 56594, Note_on_c, 14, 75, 113
15, 56602, Note_on_c, 14, 66, 121
15, 56714, Note_on_c, 14, 75, 0
15, 56717, Note_on_c, 14, 66, 0
15, 56917, Note_on_c, 14, 75, 115
15, 56920, Note_on_c, 14, 66, 119
15, 57025, Note_on_c, 14, 66, 0
15, 57027, Note_on_c, 14, 75, 0
15, 57229, Note_on_c, 14, 66, 120
15, 57230, Note_on_c, 14, 78, 118
15, 57610, Note_on_c, 14, 78, 0
15, 57613, Note_on_c, 14, 66, 0
15, 65660, Note_on_c, 14, 69, 124
15, 65661, Note_on_c, 14, 64, 125
15, 65701, Note_on_c, 14, 69, 0
15, 65734, Note_on_c, 14, 64, 0
15, 65818, Note_on_c, 14, 68, 121
15, 65820, Note_on_c, 14, 64, 120
15, 65885, Note_on_c, 14, 68, 0
15, 65892, Note_on_c, 14, 64, 0
15, 66270, Note_on_c, 14, 73, 123
15, 66273, Note_on_c, 14, 64, 118
15, 66321, Note_on_c, 14, 73, 0
15, 66340, Note_on_c, 14, 64, 0
15, 66441, Note_on_c, 14, 71, 113
15, 66444, Note_on_c, 14, 64, 116
15, 66497, Note_on_c, 14, 71, 0
15, 66503, Note_on_c, 14, 64, 0
15, 66915, Note_on_c, 14, 69, 118
15, 66916, Note_on_c, 14, 64, 118
15, 66961, Note_on_c, 14, 69, 0
15, 66969, Note_on_c, 14, 64, 0
15, 67074, Note_on_c, 14, 68, 119
15, 67078, Note_on_c, 14, 64, 117
15, 67132, Note_on_c, 14, 68, 0
15, 67137, Note_on_c, 14, 64, 0
15, 67507, Note_on_c, 14, 73, 118
15, 67511, Note_on_c, 14, 64, 113
15, 67551, Note_on_c, 14, 73, 0
15, 67559, Note_on_c, 14, 64, 0
15, 67660, Note_on_c, 14, 71, 104
15, 67667, Note_on_c, 14, 64, 100
15, 67707, Note_on_c, 14, 71, 0
15, 67714, Note_on_c, 14, 64, 0
15, 67836, Note_on_c, 14, 71, 73
15, 68137, Note_on_c, 14, 80, 71
15, 68143, Note_on_c, 14, 71, 0
15, 68143, Note_on_c, 14, 68, 67
15, 68180, Note_on_c, 14, 80, 0
15, 68297, Note_on_c, 14, 73, 77
15, 68347, Note_on_c, 14, 73, 0
15, 68463, Note_on_c, 14, 68, 0
15, 68465, Note_on_c, 14, 70, 48
15, 68471, Note_on_c, 14, 78, 75
15, 68804, Note_on_c, 14, 69, 44
15, 68829, Note_on_c, 14, 70, 0
15, 68961, Note_on_c, 14, 75, 56
15, 68968, Note_on_c, 14, 78, 0
15, 69022, Note_on_c, 14, 73, 61
15, 69029, Note_on_c, 14, 75, 0
15, 69109, Note_on_c, 14, 71, 53
15, 69131, Note_on_c, 14, 73, 0
15, 69441, Note_on_c, 14, 71, 0
15, 69448, Note_on_c, 14, 80, 65
15, 69462, Note_on_c, 14, 71, 65
15, 69494, Note_on_c, 14, 80, 0
15, 69549, Note_on_c, 14, 69, 0
15, 69609, Note_on_c, 14, 73, 73
15, 69716, Note_on_c, 14, 73, 0
15, 69725, Note_on_c, 14, 71, 0
15, 69763, Note_on_c, 14, 70, 48
15, 69772, Note_on_c, 14, 78, 70
15, 70112, Note_on_c, 14, 69, 51
15, 70138, Note_on_c, 14, 70, 0
15, 70283, Note_on_c, 14, 78, 0
15, 70284, Note_on_c, 14, 75, 54
15, 70346, Note_on_c, 14, 73, 66
15, 70354, Note_on_c, 14, 75, 0
15, 70433, Note_on_c, 14, 69, 0
15, 70453, Note_on_c, 14, 71, 56
15, 70459, Note_on_c, 14, 73, 0
15, 70515, Note_on_c, 14, 71, 0
15, 70613, Note_on_c, 14, 71, 122
15, 70770, Note_on_c, 14, 76, 118
15, 71058, Note_on_c, 14, 71, 0
15, 71070, Note_on_c, 14, 69, 117
15, 71530, Note_on_c, 14, 76, 0
15, 71539, Note_on_c, 14, 75, 116
15, 71696, Note_on_c, 14, 69, 0
15, 71707, Note_on_c, 14, 68, 115
15, 71850, Note_on_c, 14, 69, 96
15, 71879, Note_on_c, 14, 68, 0
15, 71918, Note_on_c, 14, 71, 101
15, 71947, Note_on_c, 14, 69, 0
15, 71999, Note_on_c, 14, 73, 115
15, 72013, Note_on_c, 14, 71, 0
15, 72028, Note_on_c, 14, 75, 0
15, 72044, Note_on_c, 14, 73, 0
15, 72166, Note_on_c, 14, 73, 108
15, 72173, Note_on_c, 14, 69, 103
15, 72231, Note_on_c, 14, 68, 108
15, 72247, Note_on_c, 14, 69, 0
15, 72261, Note_on_c, 14, 73, 0
15, 72291, Note_on_c, 14, 68, 0
15, 72327, Note_on_c, 14, 66, 112
15, 72327, Note_on_c, 14, 69, 103
15, 72598, Note_on_c, 14, 66, 0
15, 72630, Note_on_c, 14, 68, 105
15, 72634, Note_on_c, 14, 64, 111
15, 72649, Note_on_c, 14, 69, 0
15, 72667, Note_on_c, 14, 68, 0
15, 72677, Note_on_c, 14, 64, 0
15, 72776, Note_on_c, 14, 63, 106
15, 72782, Note_on_c, 14, 71, 101
15, 72817, Note_on_c, 14, 71, 0
15, 72836, Note_on_c, 14, 63, 0
15, 72854, Note_on_c, 14, 71, 94
15, 72921, Note_on_c, 14, 71, 0
15, 72935, Note_on_c, 14, 73, 105
15, 73006, Note_on_c, 14, 75, 100
15, 73026, Note_on_c, 14, 73, 0
15, 73090, Note_on_c, 14, 76, 86
15, 73109, Note_on_c, 14, 75, 0
15, 73160, Note_on_c, 14, 78, 97
15, 73182, Note_on_c, 14, 76, 0
15, 73261, Note_on_c, 14, 78, 0
15, 73263, Note_on_c, 14, 76, 106
15, 73264, Note_on_c, 14, 71, 113
15, 73563, Note_on_c, 14, 69, 114
15, 73577, Note_on_c, 14, 71, 0
15, 74044, Note_on_c, 14, 76, 0
15, 74053, Note_on_c, 14, 75, 113
15, 74209, Note_on_c, 14, 68, 116
15, 74222, Note_on_c, 14, 69, 0
15, 74386, Note_on_c, 14, 69, 96
15, 74389, Note_on_c, 14, 68, 0
15, 74453, Note_on_c, 14, 71, 93
15, 74469, Note_on_c, 14, 69, 0
15, 74525, Note_on_c, 14, 73, 113
15, 74534, Note_on_c, 14, 71, 0
15, 74552, Note_on_c, 14, 75, 0
15, 74571, Note_on_c, 14, 73, 0
15, 74673, Note_on_c, 14, 73, 114
15, 74675, Note_on_c, 14, 66, 118
15, 74807, Note_on_c, 14, 71, 103
15, 74842, Note_on_c, 14, 73, 0
15, 74932, Note_on_c, 14, 66, 0
15, 74962, Note_on_c, 14, 64, 113
15, 75111, Note_on_c, 14, 69, 106
15, 75112, Note_on_c, 14, 64, 0
15, 75132, Note_on_c, 14, 71, 0
15, 75154, Note_on_c, 14, 69, 0
15, 75262, Note_on_c, 14, 69, 111
15, 75272, Note_on_c, 14, 66, 113
15, 75505, Note_on_c, 14, 66, 0
15, 75515, Note_on_c, 14, 69, 0
15, 75571, Note_on_c, 14, 63, 115
15, 75572, Note_on_c, 14, 69, 106
15, 75606, Note_on_c, 14, 63, 0
15, 75609, Note_on_c, 14, 69, 0
15, 75627, Note_on_c, 14, 63, 110
15, 75630, Note_on_c, 14, 69, 99
15, 75675, Note_on_c, 14, 69, 0
15, 75682, Note_on_c, 14, 63, 0
15, 75711, Note_on_c, 14, 64, 111
15, 75711, Note_on_c, 14, 68, 112
15, 75746, Note_on_c, 14, 68, 0
15, 75759, Note_on_c, 14, 64, 0
15, 75873, Note_on_c, 14, 66, 121
15, 76096, Note_on_c, 14, 66, 0
15, 76188, Note_on_c, 14, 63, 121
15, 76221, Note_on_c, 14, 63, 0
15, 76252, Note_on_c, 14, 63, 116
15, 76319, Note_on_c, 14, 64, 117
15, 76343, Note_on_c, 14, 63, 0
15, 76367, Note_on_c, 14, 64, 0
15, 76475, Note_on_c, 14, 66, 123
15, 76738, Note_on_c, 14, 66, 0
15, 76803, Note_on_c, 14, 63, 112
15, 76832, Note_on_c, 14, 63, 0
15, 76873, Note_on_c, 14, 63, 108
15, 76951, Note_on_c, 14, 64, 118
15, 76954, Note_on_c, 14, 68, 119
15, 76981, Note_on_c, 14, 63, 0
15, 77004, Note_on_c, 14, 68, 0
15, 77038, Note_on_c, 14, 64, 0
15, 77252, Note_on_c, 14, 64, 124
15, 77254, Note_on_c, 14, 68, 123
15, 77337, Note_on_c, 14, 68, 0
15, 77350, Note_on_c, 14, 64, 0
15, 77564, Note_on_c, 14, 68, 121
15, 77565, Note_on_c, 14, 76, 118
15, 77731, Note_on_c, 14, 76, 0
15, 77733, Note_on_c, 14, 68, 0
15, 82422, Note_on_c, 14, 68, 46
15, 82439, Note_on_c, 14, 64, 31
15, 82563, Note_on_c, 14, 68, 0
15, 82597, Note_on_c, 14, 63, 65
15, 82600, Note_on_c, 14, 68, 63
15, 82623, Note_on_c, 14, 64, 0
15, 82777, Note_on_c, 14, 61, 67
15, 82791, Note_on_c, 14, 63, 0
15, 82944, Note_on_c, 14, 66, 68
15, 82947, Note_on_c, 14, 54, 67
15, 82959, Note_on_c, 14, 61, 0
15, 82982, Note_on_c, 14, 68, 0
15, 83099, Note_on_c, 14, 54, 0
15, 83105, Note_on_c, 14, 64, 51
15, 83106, Note_on_c, 14, 55, 54
15, 83120, Note_on_c, 14, 66, 0
15, 83280, Note_on_c, 14, 63, 59
15, 83300, Note_on_c, 14, 56, 37
15, 83306, Note_on_c, 14, 64, 0
15, 83320, Note_on_c, 14, 55, 0
15, 83458, Note_on_c, 14, 56, 0
15, 83463, Note_on_c, 14, 63, 0
15, 87193, Note_on_c, 14, 64, 38
15, 87199, Note_on_c, 14, 68, 32
15, 87817, Note_on_c, 14, 71, 52
15, 87982, Note_on_c, 14, 68, 0
15, 88447, Note_on_c, 14, 70, 55
15, 88489, Note_on_c, 14, 71, 0
15, 89159, Note_on_c, 14, 73, 54
15, 89269, Note_on_c, 14, 70, 0
15, 89793, Note_on_c, 14, 66, 56
15, 89795, Note_on_c, 14, 63, 48
15, 89841, Note_on_c, 14, 73, 0
15, 89852, Note_on_c, 14, 64, 0
15, 90995, Note_on_c, 14, 63, 0
15, 91062, Note_on_c, 14, 64, 32
15, 91073, Note_on_c, 14, 70, 53
15, 91103, Note_on_c, 14, 66, 0
15, 91681, Note_on_c, 14, 73, 31
15, 91701, Note_on_c, 14, 70, 0
15, 92174, Note_on_c, 14, 64, 0
15, 92321, Note_on_c, 14, 63, 16
15, 92324, Note_on_c, 14, 71, 42
15, 92358, Note_on_c, 14, 73, 0
15, 92855, Note_on_c, 14, 71, 0
15, 92856, Note_on_c, 14, 63, 0
15, 97668, Note_on_c, 14, 76, 71
15, 98269, Note_on_c, 14, 71, 68
15, 98308, Note_on_c, 14, 76, 0
15, 98568, Note_on_c, 14, 73, 70
15, 98609, Note_on_c, 14, 71, 0
15, 99903, Note_on_c, 14, 71, 59
15, 99964, Note_on_c, 14, 73, 0
15, 101072, Note_on_c, 14, 68, 53
15, 101123, Note_on_c, 14, 71, 0
15, 101325, Note_on_c, 14, 68, 0
15, 101404, Note_on_c, 14, 71, 61
15, 101987, Note_on_c, 14, 66, 72
15, 102011, Note_on_c, 14, 71, 0
15, 102276, Note_on_c, 14, 68, 71
15, 102314, Note_on_c, 14, 66, 0
15, 102519, Note_on_c, 14, 68, 0
15, 102581, Note_on_c, 14, 71, 76
15, 102988, Note_on_c, 14, 69, 69
15, 103008, Note_on_c, 14, 71, 0
15, 103148, Note_on_c, 14, 69, 0
15, 103149, Note_on_c, 14, 66, 84
15, 103448, Note_on_c, 14, 66, 0
15, 103469, Note_on_c, 14, 64, 59
15, 103680, Control_c, 14, 11, 80
15, 103860, Control_c, 14, 11, 79
15, 103935, Control_c, 14, 11, 78
15, 103985, Control_c, 14, 11, 77
15, 104015, Control_c, 14, 11, 76
15, 104040, Control_c, 14, 11, 75
15, 104075, Control_c, 14, 11, 74
15, 104090, Control_c, 14, 11, 73
15, 104105, Control_c, 14, 11, 72
15, 104120, Control_c, 14, 11, 71
15, 104130, Control_c, 14, 11, 70
15, 104150, Control_c, 14, 11, 69
15, 104160, Control_c, 14, 11, 68
15, 104170, Control_c, 14, 11, 67
15, 104175, Control_c, 14, 11, 66
15, 104185, Control_c, 14, 11, 65
15, 104195, Control_c, 14, 11, 64
15, 104205, Control_c, 14, 11, 63
15, 104210, Control_c, 14, 11, 62
15, 104215, Control_c, 14, 11, 61
15, 104220, Control_c, 14, 11, 60
15, 104230, Control_c, 14, 11, 59
15, 104235, Control_c, 14, 11, 58
15, 104240, Control_c, 14, 11, 57
15, 104245, Control_c, 14, 11, 56
15, 104255, Control_c, 14, 11, 55
15, 104260, Control_c, 14, 11, 54
15, 104265, Control_c, 14, 11, 52
15, 104270, Control_c, 14, 11, 51
15, 104275, Control_c, 14, 11, 50
15, 104280, Control_c, 14, 11, 49
15, 104285, Control_c, 14, 11, 48
15, 104290, Control_c, 14, 11, 46
15, 104295, Control_c, 14, 11, 45
15, 104300, Control_c, 14, 11, 44
15, 104305, Control_c, 14, 11, 42
15, 104310, Control_c, 14, 11, 40
15, 104315, Control_c, 14, 11, 39
15, 104320, Control_c, 14, 11, 38
15, 104325, Control_c, 14, 11, 36
15, 104330, Control_c, 14, 11, 34
15, 104335, Control_c, 14, 11, 32
15, 104340, Control_c, 14, 11, 31
15, 104345, Control_c, 14, 11, 29
15, 104350, Control_c, 14, 11, 26
15, 104355, Control_c, 14, 11, 24
15, 104360, Control_c, 14, 11, 21
15, 104365, Control_c, 14, 11, 20
15, 104370, Control_c, 14, 11, 18
15, 104375, Control_c, 14, 11, 15
15, 104380, Control_c, 14, 11, 12
15, 104385, Control_c, 14, 11, 9
15, 104390, Control_c, 14, 11, 7
15, 104395, Control_c, 14, 11, 4
15, 104400, Control_c, 14, 11, 0
15, 104401, Note_on_c, 14, 64, 0
15, 108000, Control_c, 14, 11, 80
15, 143174, Note_on_c, 14, 76, 114
15, 143176, Note_on_c, 14, 67, 116
15, 143335, Note_on_c, 14, 76, 0
15, 143350, Note_on_c, 14, 66, 120
15, 143350, Note_on_c, 14, 74, 114
15, 143366, Note_on_c, 14, 67, 0
15, 143401, Note_on_c, 14, 74, 0
15, 143407, Note_on_c, 14, 66, 0
15, 143524, Note_on_c, 14, 72, 114
15, 143526, Note_on_c, 14, 69, 118
15, 143570, Note_on_c, 14, 72, 0
15, 143586, Note_on_c, 14, 69, 0
15, 143703, Note_on_c, 14, 73, 118
15, 143706, Note_on_c, 14, 69, 117
15, 143798, Note_on_c, 14, 73, 0
15, 143800, Note_on_c, 14, 69, 0
15, 144052, Note_on_c, 14, 71, 117
15, 144055, Note_on_c, 14, 76, 112
15, 144435, Note_on_c, 14, 71, 0
15, 144458, Note_on_c, 14, 69, 116
15, 144580, Note_on_c, 14, 69, 0
15, 144585, Note_on_c, 14, 76, 0
15, 149347, Note_on_c, 14, 76, 71
15, 149359, Note_on_c, 14, 64, 37
15, 149673, Note_on_c, 14, 76, 0
15, 149678, Note_on_c, 14, 73, 79
15, 150016, Note_on_c, 14, 64, 0
15, 150027, Note_on_c, 14, 66, 71
15, 150166, Note_on_c, 14, 67, 81
15, 150182, Note_on_c, 14, 66, 0
15, 150315, Note_on_c, 14, 73, 0
15, 150315, Note_on_c, 14, 72, 78
15, 150318, Note_on_c, 14, 68, 61
15, 150326, Note_on_c, 14, 67, 0
15, 150540, Note_on_c, 14, 68, 0
15, 150545, Note_on_c, 14, 72, 0
15, 154276, Note_on_c, 14, 71, 82
15, 154762, Note_on_c, 14, 70, 88
15, 154789, Note_on_c, 14, 71, 0
15, 155386, Note_on_c, 14, 68, 85
15, 155393, Note_on_c, 14, 70, 0
15, 156017, Note_on_c, 14, 66, 89
15, 156043, Note_on_c, 14, 68, 0
15, 156509, Note_on_c, 14, 63, 70
15, 156529, Note_on_c, 14, 66, 0
15, 156753, Note_on_c, 14, 63, 0
15, 164251, Note_on_c, 14, 66, 88
15, 165047, Note_on_c, 14, 59, 82
15, 165048, Note_on_c, 14, 66, 0
15, 165173, Note_on_c, 14, 59, 0
15, 165253, Note_on_c, 14, 64, 88
15, 165577, Note_on_c, 14, 67, 93
15, 165601, Note_on_c, 14, 64, 0
15, 165656, Note_on_c, 14, 67, 0
15, 165750, Note_on_c, 14, 66, 95
15, 166366, Note_on_c, 14, 66, 0
15, 166373, Note_on_c, 14, 59, 78
15, 166460, Note_on_c, 14, 59, 0
15, 166563, Note_on_c, 14, 64, 85
15, 166869, Note_on_c, 14, 67, 85
15, 166888, Note_on_c, 14, 64, 0
15, 166939, Note_on_c, 14, 67, 0
15, 167044, Note_on_c, 14, 66, 90
15, 167481, Note_on_c, 14, 66, 0
15, 167484, Note_on_c, 14, 59, 88
15, 167650, Note_on_c, 14, 59, 0
15, 173190, Note_on_c, 14, 70, 81
15, 173196, Note_on_c, 14, 76, 67
15, 173333, Note_on_c, 14, 75, 81
15, 173336, Note_on_c, 14, 71, 73
15, 173347, Note_on_c, 14, 70, 0
15, 173356, Note_on_c, 14, 76, 0
15, 173379, Note_on_c, 14, 71, 0
15, 173396, Note_on_c, 14, 75, 0
15, 173497, Note_on_c, 14, 70, 71
15, 173500, Note_on_c, 14, 76, 75
15, 173642, Note_on_c, 14, 75, 85
15, 173646, Note_on_c, 14, 71, 76
15, 173662, Note_on_c, 14, 70, 0
15, 173671, Note_on_c, 14, 76, 0
15, 173753, Note_on_c, 14, 71, 0
15, 173758, Note_on_c, 14, 75, 0
15, 175759, Note_on_c, 14, 57, 46
15, 175762, Note_on_c, 14, 54, 55
15, 177080, Note_on_c, 14, 55, 61
15, 177113, Note_on_c, 14, 57, 0
15, 177126, Note_on_c, 14, 54, 0
15, 178263, Note_on_c, 14, 57, 73
15, 178265, Note_on_c, 14, 54, 75
15, 178282, Note_on_c, 14, 55, 0
15, 178418, Note_on_c, 14, 58, 85
15, 178446, Note_on_c, 14, 57, 0
15, 178588, Note_on_c, 14, 59, 80
15, 178611, Note_on_c, 14, 58, 0
15, 178814, Note_on_c, 14, 59, 0
15, 178822, Note_on_c, 14, 54, 0
15, 201579, Note_on_c, 14, 68, 93
15, 201583, Note_on_c, 14, 64, 87
15, 201709, Note_on_c, 14, 68, 0
15, 201741, Note_on_c, 14, 66, 104
15, 201782, Note_on_c, 14, 66, 0
15, 201867, Note_on_c, 14, 64, 0
15, 201907, Note_on_c, 14, 66, 100
15, 201911, Note_on_c, 14, 63, 96
15, 201968, Note_on_c, 14, 63, 0
15, 201979, Note_on_c, 14, 66, 0
15, 202085, Note_on_c, 14, 68, 99
15, 202086, Note_on_c, 14, 59, 91
15, 202145, Note_on_c, 14, 68, 0
15, 202199, Note_on_c, 14, 59, 0
15, 202251, Note_on_c, 14, 66, 96
15, 202255, Note_on_c, 14, 63, 100
15, 202319, Note_on_c, 14, 63, 0
15, 202359, Note_on_c, 14, 66, 0
15, 202415, Note_on_c, 14, 64, 98
15, 202416, Note_on_c, 14, 61, 101
15, 202480, Note_on_c, 14, 61, 0
15, 202496, Note_on_c, 14, 64, 0
15, 202583, Note_on_c, 14, 63, 99
15, 202583, Note_on_c, 14, 59, 90
15, 202672, Note_on_c, 14, 63, 0
15, 202677, Note_on_c, 14, 59, 0
15, 202754, Note_on_c, 14, 59, 101
15, 202825, Note_on_c, 14, 59, 0
15, 202909, Note_on_c, 14, 69, 91
15, 202912, Note_on_c, 14, 66, 90
15, 203194, Note_on_c, 14, 66, 0
15, 203230, Note_on_c, 14, 71, 100
15, 203234, Note_on_c, 14, 64, 90
15, 203237, Note_on_c, 14, 69, 0
15, 203330, Note_on_c, 14, 71, 0
15, 203377, Note_on_c, 14, 64, 0
15, 203396, Note_on_c, 14, 73, 106
15, 203448, Note_on_c, 14, 73, 0
15, 203565, Note_on_c, 14, 68, 104
15, 203572, Note_on_c, 14, 64, 76
15, 203660, Note_on_c, 14, 64, 0
15, 203672, Note_on_c, 14, 68, 0
15, 203736, Note_on_c, 14, 66, 103
15, 203826, Note_on_c, 14, 66, 0
15, 203906, Note_on_c, 14, 68, 98
15, 203915, Note_on_c, 14, 64, 81
15, 203997, Note_on_c, 14, 68, 0
15, 204028, Note_on_c, 14, 64, 0
15, 204082, Note_on_c, 14, 64, 98
15, 204165, Note_on_c, 14, 64, 0
15, 204256, Note_on_c, 14, 73, 99
15, 204325, Note_on_c, 14, 75, 92
15, 204337, Note_on_c, 14, 73, 0
15, 204409, Note_on_c, 14, 73, 88
15, 204426, Note_on_c, 14, 75, 0
15, 204474, Note_on_c, 14, 75, 85
15, 204492, Note_on_c, 14, 73, 0
15, 204547, Note_on_c, 14, 75, 0
15, 204570, Note_on_c, 14, 76, 94
15, 204576, Note_on_c, 14, 71, 74
15, 204616, Note_on_c, 14, 71, 0
15, 204748, Note_on_c, 14, 64, 83
15, 204801, Note_on_c, 14, 76, 0
15, 204804, Note_on_c, 14, 64, 0
15, 204932, Note_on_c, 14, 73, 98
15, 204996, Note_on_c, 14, 75, 91
15, 205016, Note_on_c, 14, 73, 0
15, 205077, Note_on_c, 14, 75, 0
15, 205084, Note_on_c, 14, 73, 77
15, 205143, Note_on_c, 14, 75, 81
15, 205163, Note_on_c, 14, 73, 0
15, 205199, Note_on_c, 14, 75, 0
15, 205243, Note_on_c, 14, 76, 97
15, 205253, Note_on_c, 14, 71, 75
15, 205358, Note_on_c, 14, 71, 0
15, 205412, Note_on_c, 14, 76, 0
15, 205422, Note_on_c, 14, 64, 85
15, 205494, Note_on_c, 14, 64, 0
15, 205602, Note_on_c, 14, 71, 67
15, 205608, Note_on_c, 14, 64, 74
15, 205839, Note_on_c, 14, 71, 0
15, 205840, Note_on_c, 14, 64, 0
15, 205958, Note_on_c, 14, 68, 92
15, 205959, Note_on_c, 14, 71, 91
15, 206205, Note_on_c, 14, 68, 0
15, 206209, Note_on_c, 14, 71, 0
15, 206287, Note_on_c, 14, 71, 85
15, 206292, Note_on_c, 14, 63, 91
15, 206334, Note_on_c, 14, 71, 0
15, 206366, Note_on_c, 14, 63, 0
15, 206452, Note_on_c, 14, 73, 103
15, 206456, Note_on_c, 14, 75, 93
15, 206521, Note_on_c, 14, 73, 0
15, 206538, Note_on_c, 14, 75, 0
15, 206623, Note_on_c, 14, 75, 100
15, 206626, Note_on_c, 14, 71, 85
15, 206711, Note_on_c, 14, 71, 0
15, 206733, Note_on_c, 14, 75, 0
15, 206788, Note_on_c, 14, 68, 95
15, 206895, Note_on_c, 14, 68, 0
15, 206956, Note_on_c, 14, 80, 118
15, 206964, Note_on_c, 14, 68, 116
15, 206993, Note_on_c, 14, 80, 0
15, 207005, Note_on_c, 14, 68, 0
15, 207117, Note_on_c, 14, 80, 113
15, 207123, Note_on_c, 14, 68, 120
15, 207181, Note_on_c, 14, 80, 0
15, 207182, Note_on_c, 14, 68, 0
15, 207307, Note_on_c, 14, 68, 113
15, 207309, Note_on_c, 14, 80, 115
15, 207647, Note_on_c, 14, 80, 0
15, 207664, Note_on_c, 14, 68, 0
15, 207669, Note_on_c, 14, 66, 87
15, 207687, Note_on_c, 14, 63, 67
15, 207974, Note_on_c, 14, 66, 0
15, 208016, Note_on_c, 14, 64, 68
15, 208023, Note_on_c, 14, 61, 78
15, 208026, Note_on_c, 14, 63, 0
15, 208078, Note_on_c, 14, 66, 86
15, 208091, Note_on_c, 14, 64, 0
15, 208168, Note_on_c, 14, 66, 0
15, 208173, Note_on_c, 14, 64, 76
15, 208221, Note_on_c, 14, 64, 0
15, 208253, Note_on_c, 14, 61, 0
15, 208334, Note_on_c, 14, 80, 112
15, 208338, Note_on_c, 14, 68, 119
15, 208386, Note_on_c, 14, 80, 0
15, 208405, Note_on_c, 14, 68, 0
15, 208495, Note_on_c, 14, 80, 115
15, 208499, Note_on_c, 14, 68, 118
15, 208567, Note_on_c, 14, 80, 0
15, 208581, Note_on_c, 14, 68, 0
15, 208676, Note_on_c, 14, 80, 115
15, 208676, Note_on_c, 14, 68, 118
15, 209007, Note_on_c, 14, 80, 0
15, 209054, Note_on_c, 14, 66, 100
15, 209062, Note_on_c, 14, 68, 0
15, 209064, Note_on_c, 14, 63, 83
15, 209284, Note_on_c, 14, 66, 0
15, 209362, Note_on_c, 14, 63, 0
15, 209389, Note_on_c, 14, 64, 88
15, 209401, Note_on_c, 14, 61, 73
15, 209468, Note_on_c, 14, 66, 84
15, 209480, Note_on_c, 14, 64, 0
15, 209560, Note_on_c, 14, 66, 0
15, 209574, Note_on_c, 14, 64, 65
15, 209675, Note_on_c, 14, 61, 0
15, 209687, Note_on_c, 14, 64, 0
15, 209731, Note_on_c, 14, 71, 114
15, 209737, Note_on_c, 14, 59, 118
15, 209791, Note_on_c, 14, 71, 0
15, 209798, Note_on_c, 14, 59, 0
15, 209897, Note_on_c, 14, 71, 118
15, 209899, Note_on_c, 14, 59, 118
15, 209966, Note_on_c, 14, 59, 0
15, 209977, Note_on_c, 14, 71, 0
15, 210084, Note_on_c, 14, 71, 120
15, 210085, Note_on_c, 14, 59, 117
15, 210429, Note_on_c, 14, 59, 0
15, 210465, Note_on_c, 14, 69, 76
15, 210466, Note_on_c, 14, 59, 65
15, 210494, Note_on_c, 14, 71, 0
15, 210742, Note_on_c, 14, 59, 0
15, 210769, Note_on_c, 14, 69, 0
15, 210783, Note_on_c, 14, 68, 86
15, 210802, Note_on_c, 14, 64, 60
15, 210854, Note_on_c, 14, 69, 72
15, 210861, Note_on_c, 14, 68, 0
15, 210940, Note_on_c, 14, 68, 94
15, 210967, Note_on_c, 14, 69, 0
15, 211071, Note_on_c, 14, 64, 0
15, 211076, Note_on_c, 14, 68, 0
15, 211107, Note_on_c, 14, 69, 84
15, 211108, Note_on_c, 14, 63, 95
15, 211174, Note_on_c, 14, 63, 0
15, 211180, Note_on_c, 14, 64, 64
15, 211255, Note_on_c, 14, 63, 90
15, 211264, Note_on_c, 14, 64, 0
15, 211384, Note_on_c, 14, 69, 0
15, 211403, Note_on_c, 14, 68, 96
15, 211420, Note_on_c, 14, 63, 0
15, 211420, Note_on_c, 14, 64, 102
15, 211463, Note_on_c, 14, 69, 93
15, 211482, Note_on_c, 14, 68, 0
15, 211547, Note_on_c, 14, 68, 103
15, 211577, Note_on_c, 14, 69, 0
15, 211589, Note_on_c, 14, 64, 0
15, 211664, Note_on_c, 14, 68, 0
15, 211707, Note_on_c, 14, 63, 103
15, 211708, Note_on_c, 14, 69, 102
15, 211774, Note_on_c, 14, 64, 88
15, 211785, Note_on_c, 14, 63, 0
15, 211861, Note_on_c, 14, 63, 110
15, 211872, Note_on_c, 14, 64, 0
15, 211955, Note_on_c, 14, 63, 0
15, 211968, Note_on_c, 14, 69, 0
15, 212004, Note_on_c, 14, 68, 108
15, 212009, Note_on_c, 14, 64, 113
15, 212065, Note_on_c, 14, 69, 94
15, 212081, Note_on_c, 14, 68, 0
15, 212153, Note_on_c, 14, 68, 114
15, 212179, Note_on_c, 14, 69, 0
15, 212205, Note_on_c, 14, 68, 0
15, 212293, Note_on_c, 14, 75, 71
15, 212295, Note_on_c, 14, 66, 76
15, 212336, Note_on_c, 14, 64, 0
15, 212419, Note_on_c, 14, 66, 0
15, 212436, Note_on_c, 14, 75, 0
15, 212465, Note_on_c, 14, 68, 92
15, 212467, Note_on_c, 14, 77, 93
15, 212612, Note_on_c, 14, 77, 0
15, 212616, Note_on_c, 14, 68, 0
15, 212630, Note_on_c, 14, 78, 101
15, 212633, Note_on_c, 14, 69, 90
15, 212757, Note_on_c, 14, 69, 0
15, 212780, Note_on_c, 14, 78, 0
15, 212791, Note_on_c, 14, 76, 100
15, 212791, Note_on_c, 14, 68, 97
15, 212927, Note_on_c, 14, 68, 0
15, 212945, Note_on_c, 14, 75, 107
15, 212947, Note_on_c, 14, 66, 110
15, 212970, Note_on_c, 14, 76, 0
15, 213074, Note_on_c, 14, 66, 0
15, 213088, Note_on_c, 14, 68, 112
15, 213089, Note_on_c, 14, 75, 0
15, 213091, Note_on_c, 14, 77, 106
15, 213241, Note_on_c, 14, 68, 0
15, 213248, Note_on_c, 14, 69, 109
15, 213250, Note_on_c, 14, 78, 106
15, 213281, Note_on_c, 14, 77, 0
15, 213380, Note_on_c, 14, 78, 0
15, 213397, Note_on_c, 14, 76, 99
15, 213402, Note_on_c, 14, 68, 114
15, 213416, Note_on_c, 14, 69, 0
15, 213519, Note_on_c, 14, 68, 0
15, 213547, Note_on_c, 14, 76, 0
15, 213554, Note_on_c, 14, 75, 113
15, 213562, Note_on_c, 14, 66, 121
15, 213674, Note_on_c, 14, 75, 0
15, 213677, Note_on_c, 14, 66, 0
15, 213877, Note_on_c, 14, 75, 115
15, 213880, Note_on_c, 14, 66, 119
15, 213985, Note_on_c, 14, 66, 0
15, 213987, Note_on_c, 14, 75, 0
15, 214189, Note_on_c, 14, 66, 120
15, 214190, Note_on_c, 14, 78, 118
15, 214570, Note_on_c, 14, 78, 0
15, 214573, Note_on_c, 14, 66, 0
15, 222620, Note_on_c, 14, 69, 124
15, 222621, Note_on_c, 14, 64, 125
15, 222661, Note_on_c, 14, 69, 0
15, 222694, Note_on_c, 14, 64, 0
15, 222778, Note_on_c, 14, 68, 121
15, 222780, Note_on_c, 14, 64, 120
15, 222845, Note_on_c, 14, 68, 0
15, 222852, Note_on_c, 14, 64, 0
15, 223230, Note_on_c, 14, 73, 123
15, 223233, Note_on_c, 14, 64, 118
15, 223281, Note_on_c, 14, 73, 0
15, 223300, Note_on_c, 14, 64, 0
15, 223401, Note_on_c, 14, 71, 113
15, 223404, Note_on_c, 14, 64, 116
15, 223457, Note_on_c, 14, 71, 0
15, 223463, Note_on_c, 14, 64, 0
15, 223875, Note_on_c, 14, 69, 118
15, 223876, Note_on_c, 14, 64, 118
15, 223921, Note_on_c, 14, 69, 0
15, 223929, Note_on_c, 14, 64, 0
15, 224034, Note_on_c, 14, 68, 119
15, 224038, Note_on_c, 14, 64, 117
15, 224092, Note_on_c, 14, 68, 0
15, 224097, Note_on_c, 14, 64, 0
15, 224467, Note_on_c, 14, 73, 118
15, 224471, Note_on_c, 14, 64, 113
15, 224511, Note_on_c, 14, 73, 0
15, 224519, Note_on_c, 14, 64, 0
15, 224620, Note_on_c, 14, 71, 104
15, 224627, Note_on_c, 14, 64, 100
15, 224667, Note_on_c, 14, 71, 0
15, 224674, Note_on_c, 14, 64, 0
15, 224811, Note_on_c, 14, 68, 79
15, 225107, Note_on_c, 14, 80, 97
15, 225157, Note_on_c, 14, 80, 0
15, 225274, Note_on_c, 14, 73, 87
15, 225317, Note_on_c, 14, 73, 0
15, 225443, Note_on_c, 14, 68, 0
15, 225450, Note_on_c, 14, 67, 60
15, 225455, Note_on_c, 14, 76, 83
15, 225768, Note_on_c, 14, 68, 71
15, 225797, Note_on_c, 14, 67, 0
15, 225858, Note_on_c, 14, 68, 0
15, 225954, Note_on_c, 14, 75, 65
15, 225969, Note_on_c, 14, 66, 53
15, 225988, Note_on_c, 14, 76, 0
15, 226016, Note_on_c, 14, 72, 63
15, 226029, Note_on_c, 14, 75, 0
15, 226105, Note_on_c, 14, 68, 65
15, 226126, Note_on_c, 14, 72, 0
15, 226430, Note_on_c, 14, 64, 66
15, 226434, Note_on_c, 14, 80, 68
15, 226445, Note_on_c, 14, 68, 0
15, 226469, Note_on_c, 14, 66, 0
15, 226492, Note_on_c, 14, 64, 0
15, 226506, Note_on_c, 14, 80, 0
15, 226597, Note_on_c, 14, 68, 60
15, 226599, Note_on_c, 14, 73, 73
15, 226655, Note_on_c, 14, 73, 0
15, 226661, Note_on_c, 14, 68, 0
15, 226782, Note_on_c, 14, 76, 59
15, 226786, Note_on_c, 14, 67, 52
15, 227099, Note_on_c, 14, 68, 71
15, 227128, Note_on_c, 14, 67, 0
15, 227161, Note_on_c, 14, 68, 0
15, 227270, Note_on_c, 14, 75, 80
15, 227285, Note_on_c, 14, 76, 0
15, 227288, Note_on_c, 14, 66, 60
15, 227348, Note_on_c, 14, 72, 71
15, 227354, Note_on_c, 14, 75, 0
15, 227420, Note_on_c, 14, 68, 69
15, 227437, Note_on_c, 14, 72, 0
15, 227480, Note_on_c, 14, 68, 0
15, 227490, Note_on_c, 14, 66, 0
15, 227608, Note_on_c, 14, 72, 94
15, 227613, Note_on_c, 14, 68, 90
15, 227658, Note_on_c, 14, 68, 0
15, 227669, Note_on_c, 14, 72, 0
15, 227762, Note_on_c, 14, 73, 105
15, 227768, Note_on_c, 14, 68, 91
15, 227808, Note_on_c, 14, 73, 0
15, 227815, Note_on_c, 14, 68, 0
15, 227923, Note_on_c, 14, 68, 107
15, 227977, Note_on_c, 14, 68, 0
15, 228088, Note_on_c, 14, 66, 106
15, 228089, Note_on_c, 14, 69, 100
15, 228512, Note_on_c, 14, 66, 0
15, 228548, Note_on_c, 14, 69, 0
15, 228574, Note_on_c, 14, 68, 107
15, 228576, Note_on_c, 14, 66, 106
15, 228614, Note_on_c, 14, 66, 0
15, 228620, Note_on_c, 14, 68, 0
15, 228739, Note_on_c, 14, 68, 110
15, 228746, Note_on_c, 14, 64, 90
15, 229030, Note_on_c, 14, 64, 0
15, 229032, Note_on_c, 14, 68, 0
15, 229056, Note_on_c, 14, 66, 106
15, 229057, Note_on_c, 14, 69, 96
15, 229093, Note_on_c, 14, 66, 0
15, 229103, Note_on_c, 14, 69, 0
15, 229234, Note_on_c, 14, 69, 108
15, 229239, Note_on_c, 14, 66, 109
15, 229534, Note_on_c, 14, 66, 0
15, 229546, Note_on_c, 14, 68, 105
15, 229550, Note_on_c, 14, 64, 89
15, 229580, Note_on_c, 14, 69, 0
15, 229678, Note_on_c, 14, 64, 0
15, 229705, Note_on_c, 14, 66, 113
15, 229731, Note_on_c, 14, 68, 0
15, 229752, Note_on_c, 14, 66, 0
15, 229901, Note_on_c, 14, 69, 100
15, 229902, Note_on_c, 14, 66, 107
15, 230217, Note_on_c, 14, 70, 104
15, 230226, Note_on_c, 14, 64, 100
15, 230230, Note_on_c, 14, 69, 0
15, 230237, Note_on_c, 14, 66, 0
15, 230291, Note_on_c, 14, 70, 0
15, 230308, Note_on_c, 14, 64, 0
15, 230408, Note_on_c, 14, 63, 109
15, 230408, Note_on_c, 14, 72, 107
15, 230502, Note_on_c, 14, 63, 0
15, 230518, Note_on_c, 14, 72, 0
15, 263332, Note_on_c, 14, 71, 57
15, 263333, Note_on_c, 14, 74, 67
15, 265269, Note_on_c, 14, 73, 63
15, 265318, Note_on_c, 14, 74, 0
15, 265943, Note_on_c, 14, 78, 41
15, 265950, Note_on_c, 14, 70, 30
15, 265976, Note_on_c, 14, 73, 0
15, 265983, Note_on_c, 14, 71, 0
15, 266448, Note_on_c, 14, 70, 0
15, 266448, Note_on_c, 14, 78, 0
15, 276619, Note_on_c, 14, 66, 54
15, 276622, Note_on_c, 14, 73, 65
15, 278162, Note_on_c, 14, 70, 59
15, 278216, Note_on_c, 14, 73, 0
15, 278880, Control_c, 14, 11, 80
15, 278912, Control_c, 14, 11, 79
15, 278944, Control_c, 14, 11, 78
15, 278976, Control_c, 14, 11, 77
15, 279008, Control_c, 14, 11, 76
15, 279040, Control_c, 14, 11, 75
15, 279072, Control_c, 14, 11, 74
15, 279104, Control_c, 14, 11, 73
15, 279136, Control_c, 14, 11, 72
15, 279168, Control_c, 14, 11, 71
15, 279200, Control_c, 14, 11, 70
15, 279232, Control_c, 14, 11, 69
15, 279264, Control_c, 14, 11, 68
15, 279296, Control_c, 14, 11, 67
15, 279328, Control_c, 14, 11, 66
15, 279360, Control_c, 14, 11, 65
15, 279392, Control_c, 14, 11, 64
15, 279424, Control_c, 14, 11, 63
15, 279456, Control_c, 14, 11, 62
15, 279488, Control_c, 14, 11, 61
15, 279520, Control_c, 14, 11, 60
15, 279552, Control_c, 14, 11, 59
15, 279584, Control_c, 14, 11, 58
15, 279616, Control_c, 14, 11, 57
15, 279648, Control_c, 14, 11, 56
15, 279680, Control_c, 14, 11, 55
15, 279712, Control_c, 14, 11, 54
15, 279744, Control_c, 14, 11, 53
15, 279776, Control_c, 14, 11, 52
15, 279808, Control_c, 14, 11, 51
15, 279839, Control_c, 14, 11, 50
15, 279856, Note_on_c, 14, 71, 62
15, 279860, Note_on_c, 14, 59, 51
15, 279909, Note_on_c, 14, 70, 0
15, 279957, Note_on_c, 14, 66, 0
15, 280136, Note_on_c, 14, 71, 0
15, 280171, Note_on_c, 14, 59, 0
15, 280320, Control_c, 14, 11, 80
15, 315771, Note_on_c, 14, 62, 112
15, 315777, Note_on_c, 14, 71, 117
15, 315920, Note_on_c, 14, 71, 0
15, 315925, Note_on_c, 14, 62, 0
15, 315954, Note_on_c, 14, 69, 104
15, 315959, Note_on_c, 14, 61, 112
15, 316045, Note_on_c, 14, 69, 0
15, 316059, Note_on_c, 14, 61, 0
15, 316135, Note_on_c, 14, 73, 115
15, 316135, Note_on_c, 14, 64, 108
15, 316229, Note_on_c, 14, 64, 0
15, 316232, Note_on_c, 14, 73, 0
15, 316319, Note_on_c, 14, 71, 120
15, 316321, Note_on_c, 14, 64, 111
15, 316436, Note_on_c, 14, 71, 0
15, 316446, Note_on_c, 14, 64, 0
15, 316734, Note_on_c, 14, 78, 110
15, 316738, Note_on_c, 14, 71, 120
15, 317182, Note_on_c, 14, 76, 104
15, 317215, Note_on_c, 14, 78, 0
15, 317315, Note_on_c, 14, 71, 0
15, 317476, Note_on_c, 14, 76, 0
15, 319887, Note_on_c, 14, 63, 55
15, 319887, Note_on_c, 14, 71, 51
15, 322093, Note_on_c, 14, 63, 0
15, 322106, Note_on_c, 14, 71, 0
15, 322436, Note_on_c, 14, 71, 120
15, 322438, Note_on_c, 14, 80, 113
15, 322544, Note_on_c, 14, 71, 0
15, 322565, Note_on_c, 14, 80, 0
15, 324938, Note_on_c, 14, 71, 49
15, 324942, Note_on_c, 14, 63, 50
15, 327231, Note_on_c, 14, 63, 0
15, 327238, Note_on_c, 14, 71, 0
15, 340933, Note_on_c, 14, 58, 52
15, 340935, Note_on_c, 14, 61, 59
15, 342395, Note_on_c, 14, 57, 65
15, 342401, Note_on_c, 14, 63, 73
15, 342434, Note_on_c, 14, 61, 0
15, 342436, Note_on_c, 14, 58, 0
15, 342987, Note_on_c, 14, 64, 78
15, 342988, Note_on_c, 14, 63, 0
15, 342995, Note_on_c, 14, 56, 62
15, 343034, Note_on_c, 14, 57, 0
15, 343143, Note_on_c, 14, 64, 0
15, 343147, Note_on_c, 14, 56, 0
15, 352549, Note_on_c, 14, 59, 78
15, 352555, Note_on_c, 14, 52, 84
15, 355097, Note_on_c, 14, 59, 0
15, 355151, Note_on_c, 14, 59, 100
15, 355152, Note_on_c, 14, 64, 109
15, 355188, Note_on_c, 14, 52, 0
15, 355200, Control_c, 14, 11, 80
15, 355205, Control_c, 14, 11, 78
15, 355210, Control_c, 14, 11, 76
15, 355215, Control_c, 14, 11, 74
15, 355220, Control_c, 14, 11, 73
15, 355225, Control_c, 14, 11, 72
15, 355230, Control_c, 14, 11, 70
15, 355235, Control_c, 14, 11, 69
15, 355240, Control_c, 14, 11, 68
15, 355245, Control_c, 14, 11, 67
15, 355250, Control_c, 14, 11, 66
15, 355255, Control_c, 14, 11, 65
15, 355260, Control_c, 14, 11, 64
15, 355265, Control_c, 14, 11, 63
15, 355275, Control_c, 14, 11, 62
15, 355280, Control_c, 14, 11, 61
15, 355290, Control_c, 14, 11, 60
15, 355295, Control_c, 14, 11, 59
15, 355305, Control_c, 14, 11, 58
15, 355315, Control_c, 14, 11, 57
15, 355325, Control_c, 14, 11, 56
15, 355340, Control_c, 14, 11, 55
15, 355355, Control_c, 14, 11, 54
15, 355375, Control_c, 14, 11, 53
15, 355400, Control_c, 14, 11, 52
15, 355430, Control_c, 14, 11, 51
15, 355490, Control_c, 14, 11, 50
15, 355515, Control_c, 14, 11, 51
15, 355540, Control_c, 14, 11, 52
15, 355560, Control_c, 14, 11, 53
15, 355585, Control_c, 14, 11, 54
15, 355605, Control_c, 14, 11, 55
15, 355630, Control_c, 14, 11, 56
15, 355655, Control_c, 14, 11, 57
15, 355675, Control_c, 14, 11, 58
15, 355700, Control_c, 14, 11, 59
15, 355720, Control_c, 14, 11, 60
15, 355745, Control_c, 14, 11, 61
15, 355770, Control_c, 14, 11, 62
15, 355790, Control_c, 14, 11, 63
15, 355815, Control_c, 14, 11, 64
15, 355835, Control_c, 14, 11, 65
15, 355860, Control_c, 14, 11, 66
15, 355885, Control_c, 14, 11, 67
15, 355905, Control_c, 14, 11, 68
15, 355930, Control_c, 14, 11, 69
15, 355950, Control_c, 14, 11, 70
15, 355975, Control_c, 14, 11, 71
15, 356000, Control_c, 14, 11, 72
15, 356020, Control_c, 14, 11, 73
15, 356045, Control_c, 14, 11, 74
15, 356065, Control_c, 14, 11, 75
15, 356090, Control_c, 14, 11, 76
15, 356115, Control_c, 14, 11, 77
15, 356135, Control_c, 14, 11, 78
15, 356160, Control_c, 14, 11, 79
15, 356180, Control_c, 14, 11, 80
15, 356205, Control_c, 14, 11, 81
15, 356230, Control_c, 14, 11, 82
15, 356250, Control_c, 14, 11, 83
15, 356275, Control_c, 14, 11, 84
15, 356295, Control_c, 14, 11, 85
15, 356320, Control_c, 14, 11, 86
15, 356345, Control_c, 14, 11, 87
15, 356365, Control_c, 14, 11, 88
15, 356390, Control_c, 14, 11, 89
15, 356410, Control_c, 14, 11, 90
15, 356435, Control_c, 14, 11, 91
15, 356460, Control_c, 14, 11, 92
15, 356480, Control_c, 14, 11, 93
15, 356505, Control_c, 14, 11, 94
15, 356525, Control_c, 14, 11, 95
15, 356550, Control_c, 14, 11, 96
15, 356575, Control_c, 14, 11, 97
15, 356595, Control_c, 14, 11, 98
15, 356620, Control_c, 14, 11, 99
15, 356634, Note_on_c, 14, 64, 0
15, 356640, Control_c, 14, 11, 100
15, 356659, Note_on_c, 14, 59, 0
15, 357158, Note_on_c, 14, 71, 121
15, 357158, Note_on_c, 14, 80, 118
15, 357231, Note_on_c, 14, 71, 0
15, 357249, Note_on_c, 14, 80, 0
15, 357285, Note_on_c, 14, 80, 115
15, 357288, Note_on_c, 14, 71, 121
15, 357729, Note_on_c, 14, 71, 0
15, 357757, Note_on_c, 14, 80, 0
15, 357801, Note_on_c, 14, 71, 120
15, 357801, Note_on_c, 14, 80, 121
15, 358185, Note_on_c, 14, 80, 0
15, 358288, Note_on_c, 14, 71, 0
15, 358368, Note_on_c, 14, 64, 113
15, 358517, Note_on_c, 14, 64, 0
15, 358540, Note_on_c, 14, 64, 112
15, 360570, Note_on_c, 14, 64, 0
15, 361440, End_track
16, 0, Start_track
16, 0, Title_t, "Fagotti"
16, 0, MIDI_port, 0
16, 0, Control_c, 15, 121, 0
16, 80, Control_c, 15, 101, 0
16, 100, Control_c, 15, 100, 0
16, 120, Control_c, 15, 6, 12
16, 140, Control_c, 15, 10, 82
16, 160, Control_c, 15, 7, 100
16, 180, Control_c, 15, 0, 0
16, 200, Control_c, 15, 32, 0
16, 220, Program_c, 15, 70
16, 240, Control_c, 15, 91, 80
16, 260, Control_c, 15, 93, 24
16, 280, Control_c, 15, 1, 14
16, 300, Control_c, 15, 11, 80
16, 320, Pitch_bend_c, 15, 8192
16, 340, Control_c, 15, 99, 1
16, 360, Control_c, 15, 98, 32
16, 380, Control_c, 15, 6, 50
16, 400, Control_c, 15, 98, 33
16, 420, Control_c, 15, 6, 44
16, 440, Control_c, 15, 98, 100
16, 460, Control_c, 15, 6, 64
16, 480, Control_c, 15, 98, 102
16, 500, Control_c, 15, 6, 64
16, 520, Control_c, 15, 98, 99
16, 705, Control_c, 15, 6, 64
16, 2694, Control_c, 15, 11, 30
16, 2694, Note_on_c, 15, 56, 42
16, 2694, Note_on_c, 15, 60, 44
16, 2699, Control_c, 15, 11, 38
16, 2704, Control_c, 15, 11, 44
16, 2709, Control_c, 15, 11, 49
16, 2714, Control_c, 15, 11, 53
16, 2719, Control_c, 15, 11, 57
16, 2724, Control_c, 15, 11, 60
16, 2729, Control_c, 15, 11, 63
16, 2734, Control_c, 15, 11, 66
16, 2739, Control_c, 15, 11, 68
16, 2744, Control_c, 15, 11, 70
16, 2749, Control_c, 15, 11, 71
16, 2754, Control_c, 15, 11, 72
16, 2759, Control_c, 15, 11, 73
16, 2764, Control_c, 15, 11, 74
16, 2769, Control_c, 15, 11, 75
16, 2774, Control_c, 15, 11, 76
16, 2779, Control_c, 15, 11, 77
16, 2789, Control_c, 15, 11, 78
16, 2799, Control_c, 15, 11, 79
16, 2824, Control_c, 15, 11, 80
16, 2997, Note_on_c, 15, 61, 50
16, 3002, Note_on_c, 15, 54, 34
16, 3029, Note_on_c, 15, 60, 0
16, 3042, Note_on_c, 15, 56, 0
16, 3310, Note_on_c, 15, 56, 34
16, 3315, Note_on_c, 15, 60, 32
16, 3336, Note_on_c, 15, 61, 0
16, 3348, Note_on_c, 15, 54, 0
16, 3568, Note_on_c, 15, 60, 0
16, 3571, Note_on_c, 15, 56, 0
16, 44635, Note_on_c, 15, 49, 103
16, 44641, Note_on_c, 15, 61, 95
16, 44902, Note_on_c, 15, 61, 0
16, 44939, Note_on_c, 15, 49, 0
16, 44963, Note_on_c, 15, 51, 107
16, 44967, Note_on_c, 15, 59, 90
16, 45083, Note_on_c, 15, 51, 0
16, 45132, Note_on_c, 15, 52, 101
16, 45191, Note_on_c, 15, 59, 0
16, 45249, Note_on_c, 15, 52, 0
16, 45304, Note_on_c, 15, 63, 104
16, 45305, Note_on_c, 15, 54, 92
16, 45364, Note_on_c, 15, 54, 0
16, 45388, Note_on_c, 15, 63, 0
16, 45475, Note_on_c, 15, 64, 97
16, 45478, Note_on_c, 15, 54, 97
16, 45543, Note_on_c, 15, 64, 0
16, 45547, Note_on_c, 15, 54, 0
16, 45628, Note_on_c, 15, 63, 99
16, 45632, Note_on_c, 15, 59, 85
16, 45673, Note_on_c, 15, 63, 0
16, 45675, Note_on_c, 15, 59, 0
16, 45801, Note_on_c, 15, 47, 92
16, 45802, Note_on_c, 15, 59, 76
16, 45837, Note_on_c, 15, 59, 0
16, 45838, Note_on_c, 15, 47, 0
16, 45930, Note_on_c, 15, 54, 113
16, 45940, Note_on_c, 15, 61, 89
16, 46029, Note_on_c, 15, 61, 0
16, 46100, Note_on_c, 15, 59, 100
16, 46239, Note_on_c, 15, 54, 0
16, 46253, Note_on_c, 15, 56, 115
16, 46320, Note_on_c, 15, 59, 0
16, 46335, Note_on_c, 15, 56, 0
16, 46428, Note_on_c, 15, 57, 112
16, 46438, Note_on_c, 15, 59, 55
16, 46463, Note_on_c, 15, 59, 0
16, 46509, Note_on_c, 15, 57, 0
16, 46598, Note_on_c, 15, 59, 101
16, 46698, Note_on_c, 15, 59, 0
16, 46768, Note_on_c, 15, 47, 116
16, 46821, Note_on_c, 15, 47, 0
16, 46930, Note_on_c, 15, 64, 94
16, 46942, Note_on_c, 15, 52, 108
16, 46972, Note_on_c, 15, 64, 0
16, 46984, Note_on_c, 15, 52, 0
16, 47103, Note_on_c, 15, 52, 97
16, 47103, Note_on_c, 15, 64, 83
16, 47148, Note_on_c, 15, 64, 0
16, 47156, Note_on_c, 15, 52, 0
16, 47272, Note_on_c, 15, 57, 111
16, 47276, Note_on_c, 15, 64, 100
16, 47345, Note_on_c, 15, 66, 96
16, 47362, Note_on_c, 15, 64, 0
16, 47431, Note_on_c, 15, 64, 90
16, 47450, Note_on_c, 15, 66, 0
16, 47508, Note_on_c, 15, 66, 97
16, 47530, Note_on_c, 15, 64, 0
16, 47601, Note_on_c, 15, 68, 98
16, 47610, Note_on_c, 15, 52, 104
16, 47630, Note_on_c, 15, 66, 0
16, 47630, Note_on_c, 15, 57, 0
16, 47657, Note_on_c, 15, 52, 0
16, 47686, Note_on_c, 15, 68, 0
16, 47782, Note_on_c, 15, 52, 114
16, 47828, Note_on_c, 15, 52, 0
16, 47955, Note_on_c, 15, 57, 113
16, 47957, Note_on_c, 15, 64, 100
16, 48026, Note_on_c, 15, 66, 100
16, 48048, Note_on_c, 15, 64, 0
16, 48111, Note_on_c, 15, 64, 85
16, 48120, Note_on_c, 15, 66, 0
16, 48180, Note_on_c, 15, 66, 99
16, 48195, Note_on_c, 15, 64, 0
16, 48273, Note_on_c, 15, 57, 0
16, 48274, Note_on_c, 15, 68, 100
16, 48285, Note_on_c, 15, 52, 111
16, 48301, Note_on_c, 15, 66, 0
16, 48330, Note_on_c, 15, 52, 0
16, 48333, Note_on_c, 15, 68, 0
16, 48453, Note_on_c, 15, 52, 109
16, 48499, Note_on_c, 15, 52, 0
16, 48614, Note_on_c, 15, 64, 108
16, 48804, Note_on_c, 15, 64, 0
16, 48805, Note_on_c, 15, 52, 108
16, 48949, Note_on_c, 15, 52, 0
16, 48974, Note_on_c, 15, 63, 105
16, 49139, Note_on_c, 15, 51, 105
16, 49169, Note_on_c, 15, 63, 0
16, 49317, Note_on_c, 15, 51, 0
16, 49332, Note_on_c, 15, 68, 94
16, 49339, Note_on_c, 15, 51, 116
16, 49384, Note_on_c, 15, 68, 0
16, 49395, Note_on_c, 15, 51, 0
16, 49496, Note_on_c, 15, 63, 104
16, 49499, Note_on_c, 15, 51, 108
16, 49537, Note_on_c, 15, 63, 0
16, 49557, Note_on_c, 15, 51, 0
16, 49657, Note_on_c, 15, 56, 95
16, 49667, Note_on_c, 15, 44, 90
16, 49705, Note_on_c, 15, 56, 0
16, 49713, Note_on_c, 15, 44, 0
16, 49832, Note_on_c, 15, 56, 83
16, 49839, Note_on_c, 15, 44, 74
16, 49866, Note_on_c, 15, 56, 0
16, 49869, Note_on_c, 15, 44, 0
16, 50008, Note_on_c, 15, 56, 116
16, 50012, Note_on_c, 15, 44, 112
16, 50050, Note_on_c, 15, 56, 0
16, 50068, Note_on_c, 15, 44, 0
16, 50171, Note_on_c, 15, 56, 118
16, 50175, Note_on_c, 15, 44, 115
16, 50210, Note_on_c, 15, 56, 0
16, 50224, Note_on_c, 15, 44, 0
16, 50341, Note_on_c, 15, 44, 116
16, 50343, Note_on_c, 15, 56, 116
16, 50748, Note_on_c, 15, 44, 0
16, 51036, Note_on_c, 15, 56, 0
16, 51067, Note_on_c, 15, 61, 113
16, 51123, Note_on_c, 15, 61, 0
16, 51237, Note_on_c, 15, 49, 114
16, 51297, Note_on_c, 15, 49, 0
16, 51401, Note_on_c, 15, 56, 106
16, 51407, Note_on_c, 15, 44, 114
16, 51440, Note_on_c, 15, 56, 0
16, 51455, Note_on_c, 15, 44, 0
16, 51561, Note_on_c, 15, 56, 110
16, 51563, Note_on_c, 15, 44, 119
16, 51607, Note_on_c, 15, 56, 0
16, 51615, Note_on_c, 15, 44, 0
16, 51726, Note_on_c, 15, 44, 119
16, 51729, Note_on_c, 15, 56, 115
16, 52145, Note_on_c, 15, 44, 0
16, 52377, Note_on_c, 15, 56, 0
16, 52429, Note_on_c, 15, 61, 101
16, 52468, Note_on_c, 15, 61, 0
16, 52597, Note_on_c, 15, 49, 98
16, 52655, Note_on_c, 15, 49, 0
16, 52760, Note_on_c, 15, 59, 117
16, 52767, Note_on_c, 15, 47, 117
16, 52805, Note_on_c, 15, 59, 0
16, 52824, Note_on_c, 15, 47, 0
16, 52943, Note_on_c, 15, 59, 108
16, 52948, Note_on_c, 15, 47, 108
16, 52983, Note_on_c, 15, 59, 0
16, 53009, Note_on_c, 15, 47, 0
16, 53132, Note_on_c, 15, 59, 97
16, 53137, Note_on_c, 15, 47, 104
16, 53445, Note_on_c, 15, 47, 0
16, 53446, Note_on_c, 15, 59, 0
16, 53491, Note_on_c, 15, 47, 57
16, 53495, Note_on_c, 15, 59, 50
16, 53761, Note_on_c, 15, 59, 0
16, 53797, Note_on_c, 15, 47, 0
16, 53805, Note_on_c, 15, 59, 57
16, 53822, Note_on_c, 15, 52, 63
16, 53883, Note_on_c, 15, 52, 0
16, 53981, Note_on_c, 15, 47, 87
16, 54037, Note_on_c, 15, 47, 0
16, 54071, Note_on_c, 15, 59, 0
16, 54134, Note_on_c, 15, 59, 79
16, 54136, Note_on_c, 15, 54, 97
16, 54216, Note_on_c, 15, 54, 0
16, 54288, Note_on_c, 15, 47, 104
16, 54371, Note_on_c, 15, 47, 0
16, 54417, Note_on_c, 15, 59, 0
16, 54446, Note_on_c, 15, 59, 91
16, 54448, Note_on_c, 15, 52, 112
16, 54495, Note_on_c, 15, 52, 0
16, 54596, Note_on_c, 15, 47, 114
16, 54649, Note_on_c, 15, 47, 0
16, 54714, Note_on_c, 15, 59, 0
16, 54745, Note_on_c, 15, 54, 114
16, 54748, Note_on_c, 15, 59, 108
16, 54800, Note_on_c, 15, 54, 0
16, 54912, Note_on_c, 15, 47, 116
16, 54974, Note_on_c, 15, 47, 0
16, 55028, Note_on_c, 15, 59, 0
16, 55050, Note_on_c, 15, 52, 118
16, 55052, Note_on_c, 15, 59, 109
16, 55093, Note_on_c, 15, 52, 0
16, 55105, Note_on_c, 15, 59, 0
16, 55202, Note_on_c, 15, 59, 116
16, 55203, Note_on_c, 15, 47, 117
16, 55239, Note_on_c, 15, 59, 0
16, 55289, Note_on_c, 15, 47, 0
16, 55367, Note_on_c, 15, 63, 100
16, 55371, Note_on_c, 15, 54, 85
16, 55478, Note_on_c, 15, 63, 0
16, 55483, Note_on_c, 15, 54, 0
16, 55517, Note_on_c, 15, 56, 110
16, 55518, Note_on_c, 15, 65, 108
16, 55628, Note_on_c, 15, 56, 0
16, 55666, Note_on_c, 15, 57, 97
16, 55668, Note_on_c, 15, 66, 112
16, 55695, Note_on_c, 15, 65, 0
16, 55817, Note_on_c, 15, 64, 107
16, 55822, Note_on_c, 15, 56, 112
16, 55848, Note_on_c, 15, 66, 0
16, 55848, Note_on_c, 15, 57, 0
16, 55962, Note_on_c, 15, 56, 0
16, 55979, Note_on_c, 15, 63, 118
16, 55983, Note_on_c, 15, 54, 119
16, 56010, Note_on_c, 15, 64, 0
16, 56105, Note_on_c, 15, 54, 0
16, 56119, Note_on_c, 15, 63, 0
16, 56131, Note_on_c, 15, 56, 116
16, 56133, Note_on_c, 15, 65, 111
16, 56277, Note_on_c, 15, 56, 0
16, 56281, Note_on_c, 15, 57, 107
16, 56287, Note_on_c, 15, 66, 115
16, 56321, Note_on_c, 15, 65, 0
16, 56436, Note_on_c, 15, 64, 101
16, 56440, Note_on_c, 15, 56, 113
16, 56461, Note_on_c, 15, 66, 0
16, 56461, Note_on_c, 15, 57, 0
16, 56566, Note_on_c, 15, 56, 0
16, 56594, Note_on_c, 15, 63, 121
16, 56597, Note_on_c, 15, 54, 120
16, 56623, Note_on_c, 15, 64, 0
16, 56725, Note_on_c, 15, 63, 0
16, 56730, Note_on_c, 15, 54, 0
16, 56922, Note_on_c, 15, 59, 117
16, 56928, Note_on_c, 15, 47, 122
16, 57036, Note_on_c, 15, 47, 0
16, 57038, Note_on_c, 15, 59, 0
16, 57239, Note_on_c, 15, 59, 107
16, 57242, Note_on_c, 15, 47, 114
16, 57655, Note_on_c, 15, 47, 0
16, 57658, Note_on_c, 15, 59, 0
16, 65665, Note_on_c, 15, 49, 126
16, 65670, Note_on_c, 15, 61, 119
16, 65708, Note_on_c, 15, 61, 0
16, 65741, Note_on_c, 15, 49, 0
16, 65824, Note_on_c, 15, 47, 125
16, 65826, Note_on_c, 15, 59, 108
16, 65878, Note_on_c, 15, 59, 0
16, 65911, Note_on_c, 15, 47, 0
16, 66282, Note_on_c, 15, 45, 120
16, 66286, Note_on_c, 15, 57, 101
16, 66329, Note_on_c, 15, 57, 0
16, 66355, Note_on_c, 15, 45, 0
16, 66447, Note_on_c, 15, 44, 121
16, 66449, Note_on_c, 15, 56, 107
16, 66502, Note_on_c, 15, 56, 0
16, 66517, Note_on_c, 15, 44, 0
16, 66900, Note_on_c, 15, 49, 123
16, 66901, Note_on_c, 15, 61, 118
16, 66946, Note_on_c, 15, 61, 0
16, 66957, Note_on_c, 15, 49, 0
16, 67065, Note_on_c, 15, 47, 113
16, 67066, Note_on_c, 15, 59, 107
16, 67126, Note_on_c, 15, 59, 0
16, 67138, Note_on_c, 15, 47, 0
16, 67496, Note_on_c, 15, 57, 104
16, 67496, Note_on_c, 15, 45, 114
16, 67545, Note_on_c, 15, 57, 0
16, 67568, Note_on_c, 15, 45, 0
16, 67656, Note_on_c, 15, 56, 107
16, 67657, Note_on_c, 15, 44, 119
16, 67694, Note_on_c, 15, 56, 0
16, 67709, Note_on_c, 15, 44, 0
16, 67825, Note_on_c, 15, 59, 68
16, 68140, Note_on_c, 15, 52, 68
16, 68188, Note_on_c, 15, 59, 0
16, 68298, Note_on_c, 15, 61, 54
16, 68426, Note_on_c, 15, 52, 0
16, 68478, Note_on_c, 15, 54, 68
16, 68795, Note_on_c, 15, 54, 0
16, 68795, Note_on_c, 15, 61, 0
16, 68807, Note_on_c, 15, 63, 39
16, 68812, Note_on_c, 15, 59, 79
16, 68974, Note_on_c, 15, 66, 73
16, 69001, Note_on_c, 15, 63, 0
16, 69042, Note_on_c, 15, 64, 61
16, 69056, Note_on_c, 15, 66, 0
16, 69130, Note_on_c, 15, 63, 68
16, 69154, Note_on_c, 15, 64, 0
16, 69197, Note_on_c, 15, 59, 0
16, 69278, Note_on_c, 15, 47, 75
16, 69347, Note_on_c, 15, 47, 0
16, 69388, Note_on_c, 15, 63, 0
16, 69436, Note_on_c, 15, 64, 60
16, 69450, Note_on_c, 15, 52, 63
16, 69496, Note_on_c, 15, 64, 0
16, 69610, Note_on_c, 15, 61, 59
16, 69626, Note_on_c, 15, 52, 0
16, 69775, Note_on_c, 15, 54, 53
16, 70105, Note_on_c, 15, 63, 60
16, 70106, Note_on_c, 15, 59, 59
16, 70114, Note_on_c, 15, 54, 0
16, 70117, Note_on_c, 15, 61, 0
16, 70185, Note_on_c, 15, 63, 0
16, 70267, Note_on_c, 15, 66, 72
16, 70338, Note_on_c, 15, 64, 56
16, 70352, Note_on_c, 15, 66, 0
16, 70417, Note_on_c, 15, 63, 37
16, 70419, Note_on_c, 15, 64, 0
16, 70577, Note_on_c, 15, 63, 0
16, 70587, Note_on_c, 15, 59, 0
16, 70588, Note_on_c, 15, 47, 121
16, 70589, Note_on_c, 15, 59, 121
16, 70633, Note_on_c, 15, 59, 0
16, 70653, Note_on_c, 15, 47, 0
16, 70745, Note_on_c, 15, 44, 118
16, 70750, Note_on_c, 15, 56, 114
16, 70803, Note_on_c, 15, 56, 0
16, 70816, Note_on_c, 15, 44, 0
16, 70905, Note_on_c, 15, 49, 119
16, 70911, Note_on_c, 15, 61, 95
16, 70951, Note_on_c, 15, 61, 0
16, 70987, Note_on_c, 15, 49, 0
16, 71070, Note_on_c, 15, 42, 110
16, 71071, Note_on_c, 15, 54, 104
16, 71138, Note_on_c, 15, 56, 99
16, 71151, Note_on_c, 15, 44, 101
16, 71153, Note_on_c, 15, 54, 0
16, 71173, Note_on_c, 15, 42, 0
16, 71233, Note_on_c, 15, 54, 96
16, 71234, Note_on_c, 15, 42, 97
16, 71240, Note_on_c, 15, 44, 0
16, 71247, Note_on_c, 15, 56, 0
16, 71300, Note_on_c, 15, 41, 90
16, 71302, Note_on_c, 15, 53, 88
16, 71312, Note_on_c, 15, 42, 0
16, 71317, Note_on_c, 15, 54, 0
16, 71363, Note_on_c, 15, 53, 0
16, 71366, Note_on_c, 15, 41, 0
16, 71378, Note_on_c, 15, 54, 104
16, 71380, Note_on_c, 15, 42, 107
16, 71428, Note_on_c, 15, 42, 0
16, 71432, Note_on_c, 15, 54, 0
16, 71529, Note_on_c, 15, 59, 102
16, 71534, Note_on_c, 15, 47, 102
16, 71578, Note_on_c, 15, 59, 0
16, 71594, Note_on_c, 15, 47, 0
16, 71688, Note_on_c, 15, 40, 114
16, 71690, Note_on_c, 15, 52, 97
16, 71841, Note_on_c, 15, 52, 0
16, 71854, Note_on_c, 15, 54, 93
16, 71856, Note_on_c, 15, 42, 89
16, 71871, Note_on_c, 15, 40, 0
16, 71915, Note_on_c, 15, 44, 88
16, 71918, Note_on_c, 15, 56, 80
16, 71926, Note_on_c, 15, 54, 0
16, 71927, Note_on_c, 15, 42, 0
16, 71970, Note_on_c, 15, 44, 0
16, 71981, Note_on_c, 15, 56, 0
16, 72005, Note_on_c, 15, 61, 114
16, 72010, Note_on_c, 15, 45, 112
16, 72277, Note_on_c, 15, 61, 0
16, 72298, Note_on_c, 15, 45, 0
16, 72300, Note_on_c, 15, 47, 113
16, 72306, Note_on_c, 15, 59, 102
16, 72349, Note_on_c, 15, 47, 0
16, 72350, Note_on_c, 15, 59, 0
16, 72450, Note_on_c, 15, 47, 97
16, 72453, Note_on_c, 15, 59, 103
16, 72482, Note_on_c, 15, 47, 0
16, 72501, Note_on_c, 15, 59, 0
16, 72612, Note_on_c, 15, 52, 118
16, 72613, Note_on_c, 15, 59, 109
16, 72661, Note_on_c, 15, 59, 0
16, 72669, Note_on_c, 15, 52, 0
16, 72781, Note_on_c, 15, 47, 127
16, 72782, Note_on_c, 15, 59, 98
16, 72833, Note_on_c, 15, 59, 0
16, 72857, Note_on_c, 15, 47, 0
16, 73097, Note_on_c, 15, 47, 109
16, 73097, Note_on_c, 15, 59, 94
16, 73136, Note_on_c, 15, 59, 0
16, 73142, Note_on_c, 15, 47, 0
16, 73239, Note_on_c, 15, 49, 116
16, 73248, Note_on_c, 15, 61, 109
16, 73305, Note_on_c, 15, 49, 0
16, 73412, Note_on_c, 15, 56, 94
16, 73455, Note_on_c, 15, 56, 0
16, 73584, Note_on_c, 15, 54, 115
16, 73657, Note_on_c, 15, 56, 98
16, 73670, Note_on_c, 15, 54, 0
16, 73737, Note_on_c, 15, 54, 96
16, 73739, Note_on_c, 15, 56, 0
16, 73811, Note_on_c, 15, 53, 81
16, 73872, Note_on_c, 15, 54, 0
16, 73899, Note_on_c, 15, 53, 0
16, 73909, Note_on_c, 15, 54, 113
16, 73959, Note_on_c, 15, 54, 0
16, 74003, Note_on_c, 15, 61, 0
16, 74062, Note_on_c, 15, 47, 108
16, 74065, Note_on_c, 15, 59, 101
16, 74222, Note_on_c, 15, 52, 112
16, 74240, Note_on_c, 15, 47, 0
16, 74373, Note_on_c, 15, 54, 93
16, 74380, Note_on_c, 15, 52, 0
16, 74434, Note_on_c, 15, 56, 100
16, 74441, Note_on_c, 15, 54, 0
16, 74486, Note_on_c, 15, 56, 0
16, 74500, Note_on_c, 15, 59, 0
16, 74523, Note_on_c, 15, 57, 104
16, 74585, Note_on_c, 15, 57, 0
16, 74678, Note_on_c, 15, 63, 113
16, 74680, Note_on_c, 15, 51, 118
16, 74801, Note_on_c, 15, 51, 0
16, 74814, Note_on_c, 15, 56, 104
16, 74860, Note_on_c, 15, 56, 0
16, 74885, Note_on_c, 15, 63, 0
16, 74975, Note_on_c, 15, 49, 113
16, 74979, Note_on_c, 15, 61, 104
16, 75114, Note_on_c, 15, 49, 0
16, 75118, Note_on_c, 15, 54, 112
16, 75157, Note_on_c, 15, 61, 0
16, 75167, Note_on_c, 15, 54, 0
16, 75260, Note_on_c, 15, 59, 111
16, 75262, Note_on_c, 15, 47, 120
16, 75458, Note_on_c, 15, 47, 0
16, 75462, Note_on_c, 15, 59, 0
16, 75577, Note_on_c, 15, 59, 106
16, 75579, Note_on_c, 15, 47, 117
16, 75609, Note_on_c, 15, 59, 0
16, 75615, Note_on_c, 15, 47, 0
16, 75633, Note_on_c, 15, 47, 86
16, 75637, Note_on_c, 15, 59, 101
16, 75675, Note_on_c, 15, 59, 0
16, 75693, Note_on_c, 15, 47, 0
16, 75696, Note_on_c, 15, 59, 104
16, 75710, Note_on_c, 15, 52, 116
16, 75738, Note_on_c, 15, 59, 0
16, 75749, Note_on_c, 15, 52, 0
16, 75865, Note_on_c, 15, 59, 106
16, 75871, Note_on_c, 15, 47, 122
16, 76070, Note_on_c, 15, 47, 0
16, 76075, Note_on_c, 15, 59, 0
16, 76186, Note_on_c, 15, 59, 109
16, 76189, Note_on_c, 15, 47, 111
16, 76210, Note_on_c, 15, 47, 0
16, 76220, Note_on_c, 15, 59, 0
16, 76235, Note_on_c, 15, 47, 111
16, 76241, Note_on_c, 15, 59, 103
16, 76283, Note_on_c, 15, 59, 0
16, 76289, Note_on_c, 15, 47, 0
16, 76305, Note_on_c, 15, 59, 103
16, 76311, Note_on_c, 15, 52, 116
16, 76350, Note_on_c, 15, 59, 0
16, 76352, Note_on_c, 15, 52, 0
16, 76467, Note_on_c, 15, 59, 118
16, 76475, Note_on_c, 15, 47, 121
16, 76664, Note_on_c, 15, 47, 0
16, 76664, Note_on_c, 15, 59, 0
16, 76777, Note_on_c, 15, 59, 106
16, 76789, Note_on_c, 15, 47, 114
16, 76815, Note_on_c, 15, 59, 0
16, 76838, Note_on_c, 15, 59, 99
16, 76885, Note_on_c, 15, 59, 0
16, 76903, Note_on_c, 15, 47, 0
16, 76923, Note_on_c, 15, 59, 109
16, 76927, Note_on_c, 15, 52, 124
16, 77007, Note_on_c, 15, 59, 0
16, 77018, Note_on_c, 15, 52, 0
16, 77262, Note_on_c, 15, 52, 121
16, 77263, Note_on_c, 15, 64, 114
16, 77331, Note_on_c, 15, 64, 0
16, 77339, Note_on_c, 15, 52, 0
16, 77566, Note_on_c, 15, 64, 116
16, 77566, Note_on_c, 15, 52, 121
16, 77693, Note_on_c, 15, 52, 0
16, 77699, Note_on_c, 15, 64, 0
16, 83294, Note_on_c, 15, 68, 107
16, 83352, Note_on_c, 15, 68, 0
16, 83456, Note_on_c, 15, 56, 114
16, 83515, Note_on_c, 15, 56, 0
16, 85868, Note_on_c, 15, 68, 80
16, 85923, Note_on_c, 15, 68, 0
16, 86064, Note_on_c, 15, 56, 76
16, 86137, Note_on_c, 15, 56, 0
16, 88488, Note_on_c, 15, 66, 98
16, 88551, Note_on_c, 15, 66, 0
16, 88682, Note_on_c, 15, 54, 95
16, 88769, Note_on_c, 15, 54, 0
16, 91049, Note_on_c, 15, 66, 73
16, 91093, Note_on_c, 15, 66, 0
16, 91246, Note_on_c, 15, 54, 67
16, 91283, Note_on_c, 15, 54, 0
16, 96437, Note_on_c, 15, 64, 62
16, 97071, Note_on_c, 15, 59, 52
16, 97084, Note_on_c, 15, 64, 0
16, 97351, Note_on_c, 15, 61, 59
16, 97423, Note_on_c, 15, 59, 0
16, 97619, Note_on_c, 15, 61, 0
16, 97655, Note_on_c, 15, 64, 56
16, 98276, Note_on_c, 15, 64, 0
16, 98280, Note_on_c, 15, 59, 60
16, 98519, Note_on_c, 15, 59, 0
16, 98553, Note_on_c, 15, 61, 68
16, 99900, Note_on_c, 15, 59, 56
16, 99901, Note_on_c, 15, 61, 0
16, 101073, Note_on_c, 15, 59, 0
16, 101082, Note_on_c, 15, 56, 45
16, 101341, Note_on_c, 15, 56, 0
16, 101393, Note_on_c, 15, 59, 55
16, 101983, Note_on_c, 15, 54, 65
16, 102030, Note_on_c, 15, 59, 0
16, 102274, Note_on_c, 15, 56, 70
16, 102330, Note_on_c, 15, 54, 0
16, 102519, Note_on_c, 15, 56, 0
16, 102572, Note_on_c, 15, 59, 66
16, 103006, Note_on_c, 15, 57, 69
16, 103049, Note_on_c, 15, 59, 0
16, 103170, Note_on_c, 15, 54, 79
16, 103207, Note_on_c, 15, 57, 0
16, 103401, Note_on_c, 15, 54, 0
16, 103464, Note_on_c, 15, 52, 78
16, 103680, Control_c, 15, 11, 80
16, 103860, Control_c, 15, 11, 79
16, 103935, Control_c, 15, 11, 78
16, 103985, Control_c, 15, 11, 77
16, 104015, Control_c, 15, 11, 76
16, 104040, Control_c, 15, 11, 75
16, 104075, Control_c, 15, 11, 74
16, 104090, Control_c, 15, 11, 73
16, 104105, Control_c, 15, 11, 72
16, 104120, Control_c, 15, 11, 71
16, 104130, Control_c, 15, 11, 70
16, 104150, Control_c, 15, 11, 69
16, 104160, Control_c, 15, 11, 68
16, 104170, Control_c, 15, 11, 67
16, 104175, Control_c, 15, 11, 66
16, 104185, Control_c, 15, 11, 65
16, 104195, Control_c, 15, 11, 64
16, 104205, Control_c, 15, 11, 63
16, 104210, Control_c, 15, 11, 62
16, 104215, Control_c, 15, 11, 61
16, 104220, Control_c, 15, 11, 60
16, 104230, Control_c, 15, 11, 59
16, 104235, Control_c, 15, 11, 58
16, 104240, Control_c, 15, 11, 57
16, 104245, Control_c, 15, 11, 56
16, 104255, Control_c, 15, 11, 55
16, 104260, Control_c, 15, 11, 54
16, 104265, Control_c, 15, 11, 52
16, 104270, Control_c, 15, 11, 51
16, 104275, Control_c, 15, 11, 50
16, 104280, Control_c, 15, 11, 49
16, 104285, Control_c, 15, 11, 48
16, 104290, Control_c, 15, 11, 46
16, 104295, Control_c, 15, 11, 45
16, 104300, Control_c, 15, 11, 44
16, 104305, Control_c, 15, 11, 42
16, 104310, Control_c, 15, 11, 40
16, 104315, Control_c, 15, 11, 39
16, 104320, Control_c, 15, 11, 38
16, 104325, Control_c, 15, 11, 36
16, 104330, Control_c, 15, 11, 34
16, 104335, Control_c, 15, 11, 32
16, 104340, Control_c, 15, 11, 31
16, 104345, Control_c, 15, 11, 29
16, 104350, Control_c, 15, 11, 26
16, 104355, Control_c, 15, 11, 24
16, 104360, Control_c, 15, 11, 21
16, 104365, Control_c, 15, 11, 20
16, 104370, Control_c, 15, 11, 18
16, 104375, Control_c, 15, 11, 15
16, 104380, Control_c, 15, 11, 12
16, 104385, Control_c, 15, 11, 9
16, 104390, Control_c, 15, 11, 7
16, 104395, Control_c, 15, 11, 4
16, 104400, Control_c, 15, 11, 0
16, 104401, Note_on_c, 15, 52, 0
16, 108000, Control_c, 15, 11, 80
16, 140600, Note_on_c, 15, 55, 94
16, 140606, Note_on_c, 15, 64, 97
16, 140935, Note_on_c, 15, 54, 106
16, 140938, Note_on_c, 15, 62, 88
16, 140968, Note_on_c, 15, 55, 0
16, 140969, Note_on_c, 15, 64, 0
16, 141064, Note_on_c, 15, 62, 0
16, 141068, Note_on_c, 15, 54, 0
16, 141276, Note_on_c, 15, 53, 109
16, 141283, Note_on_c, 15, 60, 72
16, 141616, Note_on_c, 15, 52, 108
16, 141617, Note_on_c, 15, 61, 80
16, 141620, Note_on_c, 15, 60, 0
16, 141652, Note_on_c, 15, 53, 0
16, 141818, Note_on_c, 15, 61, 0
16, 141831, Note_on_c, 15, 52, 0
16, 143168, Note_on_c, 15, 49, 119
16, 143187, Note_on_c, 15, 61, 88
16, 143335, Note_on_c, 15, 61, 0
16, 143345, Note_on_c, 15, 50, 121
16, 143353, Note_on_c, 15, 62, 91
16, 143369, Note_on_c, 15, 49, 0
16, 143395, Note_on_c, 15, 62, 0
16, 143396, Note_on_c, 15, 50, 0
16, 143522, Note_on_c, 15, 63, 119
16, 143523, Note_on_c, 15, 51, 124
16, 143565, Note_on_c, 15, 63, 0
16, 143577, Note_on_c, 15, 51, 0
16, 143700, Note_on_c, 15, 52, 122
16, 143704, Note_on_c, 15, 64, 104
16, 143809, Note_on_c, 15, 52, 0
16, 143811, Note_on_c, 15, 64, 0
16, 144061, Note_on_c, 15, 52, 122
16, 144063, Note_on_c, 15, 64, 87
16, 144425, Note_on_c, 15, 64, 0
16, 144425, Note_on_c, 15, 52, 0
16, 144438, Note_on_c, 15, 45, 117
16, 144443, Note_on_c, 15, 57, 96
16, 144606, Note_on_c, 15, 45, 0
16, 144620, Note_on_c, 15, 57, 0
16, 149658, Note_on_c, 15, 57, 61
16, 149661, Note_on_c, 15, 61, 70
16, 150145, Note_on_c, 15, 63, 70
16, 150169, Note_on_c, 15, 61, 0
16, 150311, Note_on_c, 15, 56, 67
16, 150327, Note_on_c, 15, 57, 0
16, 150603, Note_on_c, 15, 56, 0
16, 150608, Note_on_c, 15, 63, 0
16, 152153, Note_on_c, 15, 61, 75
16, 152155, Note_on_c, 15, 64, 79
16, 152608, Note_on_c, 15, 66, 85
16, 152609, Note_on_c, 15, 64, 0
16, 152615, Note_on_c, 15, 60, 80
16, 152620, Note_on_c, 15, 61, 0
16, 152775, Note_on_c, 15, 60, 0
16, 152781, Note_on_c, 15, 59, 69
16, 153045, Note_on_c, 15, 59, 0
16, 153050, Note_on_c, 15, 66, 0
16, 154574, Note_on_c, 15, 64, 81
16, 154901, Note_on_c, 15, 63, 84
16, 154935, Note_on_c, 15, 64, 0
16, 155382, Note_on_c, 15, 62, 80
16, 155385, Note_on_c, 15, 63, 0
16, 155556, Note_on_c, 15, 61, 75
16, 155608, Note_on_c, 15, 62, 0
16, 155988, Note_on_c, 15, 61, 0
16, 156012, Note_on_c, 15, 60, 78
16, 156201, Note_on_c, 15, 63, 76
16, 156211, Note_on_c, 15, 60, 0
16, 156532, Note_on_c, 15, 59, 77
16, 156565, Note_on_c, 15, 63, 0
16, 156693, Note_on_c, 15, 59, 0
16, 164264, Note_on_c, 15, 54, 88
16, 165058, Note_on_c, 15, 47, 84
16, 165062, Note_on_c, 15, 54, 0
16, 165129, Note_on_c, 15, 47, 0
16, 165263, Note_on_c, 15, 52, 93
16, 165565, Note_on_c, 15, 55, 87
16, 165583, Note_on_c, 15, 52, 0
16, 165627, Note_on_c, 15, 55, 0
16, 165741, Note_on_c, 15, 54, 72
16, 166258, Note_on_c, 15, 54, 0
16, 166375, Note_on_c, 15, 47, 89
16, 166439, Note_on_c, 15, 47, 0
16, 166575, Note_on_c, 15, 52, 73
16, 166866, Note_on_c, 15, 55, 85
16, 166881, Note_on_c, 15, 52, 0
16, 166936, Note_on_c, 15, 55, 0
16, 167042, Note_on_c, 15, 54, 71
16, 167490, Note_on_c, 15, 47, 72
16, 167508, Note_on_c, 15, 54, 0
16, 167651, Note_on_c, 15, 47, 0
16, 173187, Note_on_c, 15, 54, 80
16, 173192, Note_on_c, 15, 66, 61
16, 173332, Note_on_c, 15, 59, 83
16, 173339, Note_on_c, 15, 54, 0
16, 173377, Note_on_c, 15, 59, 0
16, 173394, Note_on_c, 15, 66, 0
16, 173501, Note_on_c, 15, 54, 78
16, 173507, Note_on_c, 15, 66, 54
16, 173649, Note_on_c, 15, 59, 83
16, 173658, Note_on_c, 15, 54, 0
16, 173764, Note_on_c, 15, 59, 0
16, 173776, Note_on_c, 15, 66, 0
16, 175738, Note_on_c, 15, 48, 59
16, 177087, Note_on_c, 15, 47, 59
16, 177136, Note_on_c, 15, 48, 0
16, 177885, Note_on_c, 15, 48, 54
16, 177917, Note_on_c, 15, 47, 0
16, 178568, Note_on_c, 15, 47, 53
16, 178629, Note_on_c, 15, 48, 0
16, 178848, Note_on_c, 15, 47, 0
16, 201595, Note_on_c, 15, 49, 103
16, 201601, Note_on_c, 15, 61, 95
16, 201862, Note_on_c, 15, 61, 0
16, 201899, Note_on_c, 15, 49, 0
16, 201923, Note_on_c, 15, 51, 107
16, 201927, Note_on_c, 15, 59, 90
16, 202043, Note_on_c, 15, 51, 0
16, 202092, Note_on_c, 15, 52, 101
16, 202151, Note_on_c, 15, 59, 0
16, 202209, Note_on_c, 15, 52, 0
16, 202264, Note_on_c, 15, 63, 104
16, 202265, Note_on_c, 15, 54, 92
16, 202324, Note_on_c, 15, 54, 0
16, 202348, Note_on_c, 15, 63, 0
16, 202435, Note_on_c, 15, 64, 97
16, 202438, Note_on_c, 15, 54, 97
16, 202503, Note_on_c, 15, 64, 0
16, 202507, Note_on_c, 15, 54, 0
16, 202588, Note_on_c, 15, 63, 99
16, 202592, Note_on_c, 15, 59, 85
16, 202633, Note_on_c, 15, 63, 0
16, 202635, Note_on_c, 15, 59, 0
16, 202761, Note_on_c, 15, 47, 92
16, 202762, Note_on_c, 15, 59, 76
16, 202797, Note_on_c, 15, 59, 0
16, 202798, Note_on_c, 15, 47, 0
16, 202890, Note_on_c, 15, 54, 113
16, 202900, Note_on_c, 15, 61, 89
16, 202989, Note_on_c, 15, 61, 0
16, 203060, Note_on_c, 15, 59, 100
16, 203199, Note_on_c, 15, 54, 0
16, 203213, Note_on_c, 15, 56, 115
16, 203280, Note_on_c, 15, 59, 0
16, 203295, Note_on_c, 15, 56, 0
16, 203388, Note_on_c, 15, 57, 112
16, 203398, Note_on_c, 15, 59, 55
16, 203423, Note_on_c, 15, 59, 0
16, 203469, Note_on_c, 15, 57, 0
16, 203558, Note_on_c, 15, 59, 101
16, 203658, Note_on_c, 15, 59, 0
16, 203728, Note_on_c, 15, 47, 116
16, 203781, Note_on_c, 15, 47, 0
16, 203890, Note_on_c, 15, 64, 94
16, 203902, Note_on_c, 15, 52, 108
16, 203932, Note_on_c, 15, 64, 0
16, 203944, Note_on_c, 15, 52, 0
16, 204063, Note_on_c, 15, 52, 97
16, 204063, Note_on_c, 15, 64, 83
16, 204108, Note_on_c, 15, 64, 0
16, 204116, Note_on_c, 15, 52, 0
16, 204232, Note_on_c, 15, 57, 111
16, 204236, Note_on_c, 15, 64, 100
16, 204305, Note_on_c, 15, 66, 96
16, 204322, Note_on_c, 15, 64, 0
16, 204391, Note_on_c, 15, 64, 90
16, 204410, Note_on_c, 15, 66, 0
16, 204468, Note_on_c, 15, 66, 97
16, 204490, Note_on_c, 15, 64, 0
16, 204561, Note_on_c, 15, 68, 98
16, 204570, Note_on_c, 15, 52, 104
16, 204590, Note_on_c, 15, 66, 0
16, 204590, Note_on_c, 15, 57, 0
16, 204617, Note_on_c, 15, 52, 0
16, 204646, Note_on_c, 15, 68, 0
16, 204742, Note_on_c, 15, 52, 114
16, 204788, Note_on_c, 15, 52, 0
16, 204915, Note_on_c, 15, 57, 113
16, 204917, Note_on_c, 15, 64, 100
16, 204986, Note_on_c, 15, 66, 100
16, 205008, Note_on_c, 15, 64, 0
16, 205071, Note_on_c, 15, 64, 85
16, 205080, Note_on_c, 15, 66, 0
16, 205140, Note_on_c, 15, 66, 99
16, 205155, Note_on_c, 15, 64, 0
16, 205233, Note_on_c, 15, 57, 0
16, 205234, Note_on_c, 15, 68, 100
16, 205245, Note_on_c, 15, 52, 111
16, 205261, Note_on_c, 15, 66, 0
16, 205290, Note_on_c, 15, 52, 0
16, 205293, Note_on_c, 15, 68, 0
16, 205413, Note_on_c, 15, 52, 109
16, 205459, Note_on_c, 15, 52, 0
16, 205574, Note_on_c, 15, 64, 108
16, 205764, Note_on_c, 15, 64, 0
16, 205765, Note_on_c, 15, 52, 108
16, 205909, Note_on_c, 15, 52, 0
16, 205934, Note_on_c, 15, 63, 105
16, 206099, Note_on_c, 15, 51, 105
16, 206129, Note_on_c, 15, 63, 0
16, 206277, Note_on_c, 15, 51, 0
16, 206292, Note_on_c, 15, 68, 94
16, 206299, Note_on_c, 15, 51, 116
16, 206344, Note_on_c, 15, 68, 0
16, 206355, Note_on_c, 15, 51, 0
16, 206456, Note_on_c, 15, 63, 104
16, 206459, Note_on_c, 15, 51, 108
16, 206497, Note_on_c, 15, 63, 0
16, 206517, Note_on_c, 15, 51, 0
16, 206617, Note_on_c, 15, 56, 95
16, 206627, Note_on_c, 15, 44, 90
16, 206665, Note_on_c, 15, 56, 0
16, 206673, Note_on_c, 15, 44, 0
16, 206792, Note_on_c, 15, 56, 83
16, 206799, Note_on_c, 15, 44, 74
16, 206826, Note_on_c, 15, 56, 0
16, 206829, Note_on_c, 15, 44, 0
16, 206968, Note_on_c, 15, 56, 116
16, 206972, Note_on_c, 15, 44, 112
16, 207010, Note_on_c, 15, 56, 0
16, 207028, Note_on_c, 15, 44, 0
16, 207131, Note_on_c, 15, 56, 118
16, 207135, Note_on_c, 15, 44, 115
16, 207170, Note_on_c, 15, 56, 0
16, 207184, Note_on_c, 15, 44, 0
16, 207301, Note_on_c, 15, 44, 116
16, 207303, Note_on_c, 15, 56, 116
16, 207708, Note_on_c, 15, 44, 0
16, 207996, Note_on_c, 15, 56, 0
16, 208027, Note_on_c, 15, 61, 113
16, 208083, Note_on_c, 15, 61, 0
16, 208197, Note_on_c, 15, 49, 114
16, 208257, Note_on_c, 15, 49, 0
16, 208361, Note_on_c, 15, 56, 106
16, 208367, Note_on_c, 15, 44, 114
16, 208400, Note_on_c, 15, 56, 0
16, 208415, Note_on_c, 15, 44, 0
16, 208521, Note_on_c, 15, 56, 110
16, 208523, Note_on_c, 15, 44, 119
16, 208567, Note_on_c, 15, 56, 0
16, 208575, Note_on_c, 15, 44, 0
16, 208686, Note_on_c, 15, 44, 119
16, 208689, Note_on_c, 15, 56, 115
16, 209105, Note_on_c, 15, 44, 0
16, 209337, Note_on_c, 15, 56, 0
16, 209389, Note_on_c, 15, 61, 101
16, 209428, Note_on_c, 15, 61, 0
16, 209557, Note_on_c, 15, 49, 98
16, 209615, Note_on_c, 15, 49, 0
16, 209720, Note_on_c, 15, 59, 117
16, 209727, Note_on_c, 15, 47, 117
16, 209765, Note_on_c, 15, 59, 0
16, 209784, Note_on_c, 15, 47, 0
16, 209903, Note_on_c, 15, 59, 108
16, 209908, Note_on_c, 15, 47, 108
16, 209943, Note_on_c, 15, 59, 0
16, 209969, Note_on_c, 15, 47, 0
16, 210092, Note_on_c, 15, 59, 97
16, 210097, Note_on_c, 15, 47, 104
16, 210405, Note_on_c, 15, 47, 0
16, 210406, Note_on_c, 15, 59, 0
16, 210451, Note_on_c, 15, 47, 57
16, 210455, Note_on_c, 15, 59, 50
16, 210721, Note_on_c, 15, 59, 0
16, 210757, Note_on_c, 15, 47, 0
16, 210765, Note_on_c, 15, 59, 57
16, 210782, Note_on_c, 15, 52, 63
16, 210843, Note_on_c, 15, 52, 0
16, 210941, Note_on_c, 15, 47, 87
16, 210997, Note_on_c, 15, 47, 0
16, 211031, Note_on_c, 15, 59, 0
16, 211094, Note_on_c, 15, 59, 79
16, 211096, Note_on_c, 15, 54, 97
16, 211176, Note_on_c, 15, 54, 0
16, 211248, Note_on_c, 15, 47, 104
16, 211331, Note_on_c, 15, 47, 0
16, 211377, Note_on_c, 15, 59, 0
16, 211406, Note_on_c, 15, 59, 91
16, 211408, Note_on_c, 15, 52, 112
16, 211455, Note_on_c, 15, 52, 0
16, 211556, Note_on_c, 15, 47, 114
16, 211609, Note_on_c, 15, 47, 0
16, 211674, Note_on_c, 15, 59, 0
16, 211705, Note_on_c, 15, 54, 114
16, 211708, Note_on_c, 15, 59, 108
16, 211760, Note_on_c, 15, 54, 0
16, 211872, Note_on_c, 15, 47, 116
16, 211934, Note_on_c, 15, 47, 0
16, 211988, Note_on_c, 15, 59, 0
16, 212010, Note_on_c, 15, 52, 118
16, 212012, Note_on_c, 15, 59, 109
16, 212053, Note_on_c, 15, 52, 0
16, 212065, Note_on_c, 15, 59, 0
16, 212162, Note_on_c, 15, 59, 116
16, 212163, Note_on_c, 15, 47, 117
16, 212199, Note_on_c, 15, 59, 0
16, 212249, Note_on_c, 15, 47, 0
16, 212327, Note_on_c, 15, 63, 100
16, 212331, Note_on_c, 15, 54, 85
16, 212438, Note_on_c, 15, 63, 0
16, 212443, Note_on_c, 15, 54, 0
16, 212477, Note_on_c, 15, 56, 110
16, 212478, Note_on_c, 15, 65, 108
16, 212588, Note_on_c, 15, 56, 0
16, 212626, Note_on_c, 15, 57, 97
16, 212628, Note_on_c, 15, 66, 112
16, 212655, Note_on_c, 15, 65, 0
16, 212777, Note_on_c, 15, 64, 107
16, 212782, Note_on_c, 15, 56, 112
16, 212808, Note_on_c, 15, 66, 0
16, 212808, Note_on_c, 15, 57, 0
16, 212922, Note_on_c, 15, 56, 0
16, 212939, Note_on_c, 15, 63, 118
16, 212943, Note_on_c, 15, 54, 119
16, 212970, Note_on_c, 15, 64, 0
16, 213065, Note_on_c, 15, 54, 0
16, 213079, Note_on_c, 15, 63, 0
16, 213091, Note_on_c, 15, 56, 116
16, 213093, Note_on_c, 15, 65, 111
16, 213237, Note_on_c, 15, 56, 0
16, 213241, Note_on_c, 15, 57, 107
16, 213247, Note_on_c, 15, 66, 115
16, 213281, Note_on_c, 15, 65, 0
16, 213396, Note_on_c, 15, 64, 101
16, 213400, Note_on_c, 15, 56, 113
16, 213421, Note_on_c, 15, 66, 0
16, 213421, Note_on_c, 15, 57, 0
16, 213526, Note_on_c, 15, 56, 0
16, 213554, Note_on_c, 15, 63, 121
16, 213557, Note_on_c, 15, 54, 120
16, 213583, Note_on_c, 15, 64, 0
16, 213685, Note_on_c, 15, 63, 0
16, 213690, Note_on_c, 15, 54, 0
16, 213882, Note_on_c, 15, 59, 117
16, 213888, Note_on_c, 15, 47, 122
16, 213996, Note_on_c, 15, 47, 0
16, 213998, Note_on_c, 15, 59, 0
16, 214199, Note_on_c, 15, 59, 107
16, 214202, Note_on_c, 15, 47, 114
16, 214615, Note_on_c, 15, 47, 0
16, 214618, Note_on_c, 15, 59, 0
16, 222625, Note_on_c, 15, 49, 126
16, 222630, Note_on_c, 15, 61, 119
16, 222668, Note_on_c, 15, 61, 0
16, 222701, Note_on_c, 15, 49, 0
16, 222784, Note_on_c, 15, 47, 125
16, 222786, Note_on_c, 15, 59, 108
16, 222838, Note_on_c, 15, 59, 0
16, 222871, Note_on_c, 15, 47, 0
16, 223242, Note_on_c, 15, 45, 120
16, 223246, Note_on_c, 15, 57, 101
16, 223289, Note_on_c, 15, 57, 0
16, 223315, Note_on_c, 15, 45, 0
16, 223407, Note_on_c, 15, 44, 121
16, 223409, Note_on_c, 15, 56, 107
16, 223462, Note_on_c, 15, 56, 0
16, 223477, Note_on_c, 15, 44, 0
16, 223860, Note_on_c, 15, 49, 123
16, 223861, Note_on_c, 15, 61, 118
16, 223906, Note_on_c, 15, 61, 0
16, 223917, Note_on_c, 15, 49, 0
16, 224025, Note_on_c, 15, 47, 113
16, 224026, Note_on_c, 15, 59, 107
16, 224086, Note_on_c, 15, 59, 0
16, 224098, Note_on_c, 15, 47, 0
16, 224456, Note_on_c, 15, 57, 104
16, 224456, Note_on_c, 15, 45, 114
16, 224505, Note_on_c, 15, 57, 0
16, 224528, Note_on_c, 15, 45, 0
16, 224616, Note_on_c, 15, 56, 107
16, 224617, Note_on_c, 15, 44, 119
16, 224654, Note_on_c, 15, 56, 0
16, 224669, Note_on_c, 15, 44, 0
16, 224804, Note_on_c, 15, 68, 70
16, 225121, Note_on_c, 15, 49, 63
16, 225123, Note_on_c, 15, 64, 68
16, 225153, Note_on_c, 15, 68, 0
16, 225204, Note_on_c, 15, 49, 0
16, 225285, Note_on_c, 15, 52, 55
16, 225346, Note_on_c, 15, 52, 0
16, 225459, Note_on_c, 15, 57, 63
16, 225464, Note_on_c, 15, 61, 76
16, 225497, Note_on_c, 15, 64, 0
16, 225783, Note_on_c, 15, 57, 0
16, 225795, Note_on_c, 15, 56, 72
16, 225955, Note_on_c, 15, 61, 0
16, 225958, Note_on_c, 15, 60, 58
16, 226113, Note_on_c, 15, 60, 0
16, 226143, Note_on_c, 15, 63, 71
16, 226445, Note_on_c, 15, 49, 74
16, 226449, Note_on_c, 15, 64, 77
16, 226463, Note_on_c, 15, 56, 0
16, 226473, Note_on_c, 15, 63, 0
16, 226529, Note_on_c, 15, 49, 0
16, 226605, Note_on_c, 15, 52, 80
16, 226673, Note_on_c, 15, 52, 0
16, 226778, Note_on_c, 15, 61, 58
16, 226779, Note_on_c, 15, 57, 62
16, 226788, Note_on_c, 15, 64, 0
16, 227115, Note_on_c, 15, 56, 70
16, 227116, Note_on_c, 15, 57, 0
16, 227277, Note_on_c, 15, 61, 0
16, 227279, Note_on_c, 15, 60, 55
16, 227346, Note_on_c, 15, 60, 0
16, 227433, Note_on_c, 15, 63, 67
16, 227450, Note_on_c, 15, 56, 0
16, 227594, Note_on_c, 15, 54, 106
16, 227639, Note_on_c, 15, 54, 0
16, 227760, Note_on_c, 15, 52, 120
16, 227763, Note_on_c, 15, 64, 77
16, 227764, Note_on_c, 15, 63, 0
16, 227890, Note_on_c, 15, 52, 0
16, 227924, Note_on_c, 15, 57, 102
16, 227985, Note_on_c, 15, 57, 0
16, 228053, Note_on_c, 15, 64, 0
16, 228093, Note_on_c, 15, 51, 107
16, 228096, Note_on_c, 15, 63, 95
16, 228157, Note_on_c, 15, 52, 100
16, 228162, Note_on_c, 15, 51, 0
16, 228246, Note_on_c, 15, 51, 104
16, 228259, Note_on_c, 15, 52, 0
16, 228312, Note_on_c, 15, 51, 0
16, 228324, Note_on_c, 15, 50, 100
16, 228398, Note_on_c, 15, 50, 0
16, 228420, Note_on_c, 15, 51, 112
16, 228468, Note_on_c, 15, 51, 0
16, 228532, Note_on_c, 15, 63, 0
16, 228578, Note_on_c, 15, 63, 108
16, 228582, Note_on_c, 15, 56, 103
16, 228634, Note_on_c, 15, 56, 0
16, 228709, Note_on_c, 15, 63, 0
16, 228752, Note_on_c, 15, 49, 116
16, 228759, Note_on_c, 15, 61, 114
16, 228922, Note_on_c, 15, 49, 0
16, 228938, Note_on_c, 15, 51, 99
16, 228997, Note_on_c, 15, 51, 0
16, 228999, Note_on_c, 15, 52, 85
16, 229061, Note_on_c, 15, 61, 0
16, 229066, Note_on_c, 15, 52, 0
16, 229087, Note_on_c, 15, 54, 115
16, 229088, Note_on_c, 15, 61, 105
16, 229128, Note_on_c, 15, 54, 0
16, 229133, Note_on_c, 15, 61, 0
16, 229254, Note_on_c, 15, 61, 113
16, 229262, Note_on_c, 15, 54, 116
16, 229441, Note_on_c, 15, 61, 0
16, 229517, Note_on_c, 15, 54, 0
16, 229551, Note_on_c, 15, 56, 101
16, 229572, Note_on_c, 15, 61, 62
16, 229668, Note_on_c, 15, 56, 0
16, 229678, Note_on_c, 15, 61, 0
16, 229725, Note_on_c, 15, 57, 93
16, 229727, Note_on_c, 15, 61, 104
16, 229779, Note_on_c, 15, 61, 0
16, 229781, Note_on_c, 15, 57, 0
16, 229904, Note_on_c, 15, 61, 104
16, 229907, Note_on_c, 15, 54, 103
16, 230161, Note_on_c, 15, 61, 0
16, 230165, Note_on_c, 15, 54, 0
16, 230223, Note_on_c, 15, 61, 105
16, 230225, Note_on_c, 15, 55, 99
16, 230324, Note_on_c, 15, 61, 0
16, 230340, Note_on_c, 15, 55, 0
16, 230390, Note_on_c, 15, 56, 113
16, 230568, Note_on_c, 15, 56, 0
16, 241314, Note_on_c, 15, 60, 104
16, 242234, Note_on_c, 15, 59, 94
16, 242268, Note_on_c, 15, 60, 0
16, 242401, Note_on_c, 15, 60, 107
16, 242434, Note_on_c, 15, 59, 0
16, 242562, Note_on_c, 15, 62, 99
16, 242607, Note_on_c, 15, 60, 0
16, 242861, Note_on_c, 15, 57, 86
16, 242906, Note_on_c, 15, 62, 0
16, 243194, Note_on_c, 15, 59, 93
16, 243213, Note_on_c, 15, 57, 0
16, 244799, Note_on_c, 15, 59, 0
16, 244809, Note_on_c, 15, 58, 110
16, 245001, Note_on_c, 15, 59, 113
16, 245036, Note_on_c, 15, 58, 0
16, 245167, Note_on_c, 15, 62, 109
16, 245208, Note_on_c, 15, 59, 0
16, 245482, Note_on_c, 15, 61, 106
16, 245534, Note_on_c, 15, 62, 0
16, 245660, Note_on_c, 15, 59, 88
16, 245703, Note_on_c, 15, 61, 0
16, 245832, Note_on_c, 15, 58, 97
16, 245878, Note_on_c, 15, 59, 0
16, 247594, Note_on_c, 15, 57, 100
16, 247607, Note_on_c, 15, 58, 0
16, 247762, Note_on_c, 15, 58, 114
16, 247801, Note_on_c, 15, 57, 0
16, 247930, Note_on_c, 15, 60, 103
16, 247971, Note_on_c, 15, 58, 0
16, 248250, Note_on_c, 15, 55, 99
16, 248287, Note_on_c, 15, 60, 0
16, 248599, Note_on_c, 15, 57, 103
16, 248631, Note_on_c, 15, 55, 0
16, 249175, Note_on_c, 15, 57, 0
16, 249263, Note_on_c, 15, 57, 97
16, 250296, Note_on_c, 15, 56, 110
16, 250329, Note_on_c, 15, 57, 0
16, 250472, Note_on_c, 15, 57, 108
16, 250509, Note_on_c, 15, 56, 0
16, 250652, Note_on_c, 15, 60, 111
16, 250707, Note_on_c, 15, 57, 0
16, 251004, Note_on_c, 15, 59, 106
16, 251049, Note_on_c, 15, 60, 0
16, 251174, Note_on_c, 15, 57, 89
16, 251206, Note_on_c, 15, 59, 0
16, 251377, Note_on_c, 15, 64, 87
16, 251438, Note_on_c, 15, 57, 0
16, 251606, Note_on_c, 15, 64, 0
16, 279360, Note_on_c, 15, 76, 52
16, 279360, Note_on_c, 15, 85, 48
16, 279360, Control_c, 15, 11, 65
16, 279392, Control_c, 15, 11, 64
16, 279424, Control_c, 15, 11, 63
16, 279456, Control_c, 15, 11, 62
16, 279488, Control_c, 15, 11, 61
16, 279520, Control_c, 15, 11, 60
16, 279552, Control_c, 15, 11, 59
16, 279584, Control_c, 15, 11, 58
16, 279616, Control_c, 15, 11, 57
16, 279648, Control_c, 15, 11, 56
16, 279680, Control_c, 15, 11, 55
16, 279712, Control_c, 15, 11, 54
16, 279744, Control_c, 15, 11, 53
16, 279776, Control_c, 15, 11, 52
16, 279808, Control_c, 15, 11, 51
16, 279815, Note_on_c, 15, 83, 54
16, 279832, Note_on_c, 15, 75, 49
16, 279839, Control_c, 15, 11, 50
16, 279859, Note_on_c, 15, 85, 0
16, 279897, Note_on_c, 15, 76, 0
16, 280023, Note_on_c, 15, 83, 0
16, 280027, Note_on_c, 15, 75, 0
16, 280320, Control_c, 15, 11, 80
16, 313276, Note_on_c, 15, 50, 79
16, 313280, Note_on_c, 15, 59, 80
16, 313616, Note_on_c, 15, 49, 92
16, 313623, Note_on_c, 15, 57, 62
16, 313636, Note_on_c, 15, 59, 0
16, 313645, Note_on_c, 15, 50, 0
16, 313935, Note_on_c, 15, 49, 0
16, 313940, Note_on_c, 15, 57, 0
16, 313966, Note_on_c, 15, 48, 89
16, 313966, Note_on_c, 15, 55, 91
16, 314299, Note_on_c, 15, 56, 93
16, 314305, Note_on_c, 15, 47, 93
16, 314323, Note_on_c, 15, 55, 0
16, 314342, Note_on_c, 15, 48, 0
16, 314488, Note_on_c, 15, 56, 0
16, 314504, Note_on_c, 15, 47, 0
16, 315771, Note_on_c, 15, 44, 124
16, 315773, Note_on_c, 15, 56, 123
16, 315874, Note_on_c, 15, 56, 0
16, 315913, Note_on_c, 15, 44, 0
16, 315945, Note_on_c, 15, 57, 122
16, 315946, Note_on_c, 15, 45, 122
16, 316010, Note_on_c, 15, 57, 0
16, 316027, Note_on_c, 15, 45, 0
16, 316127, Note_on_c, 15, 58, 116
16, 316130, Note_on_c, 15, 46, 120
16, 316215, Note_on_c, 15, 46, 0
16, 316216, Note_on_c, 15, 58, 0
16, 316316, Note_on_c, 15, 47, 120
16, 316325, Note_on_c, 15, 59, 104
16, 316410, Note_on_c, 15, 59, 0
16, 316423, Note_on_c, 15, 47, 0
16, 316722, Note_on_c, 15, 47, 126
16, 316732, Note_on_c, 15, 59, 116
16, 317199, Note_on_c, 15, 52, 117
16, 317203, Note_on_c, 15, 64, 103
16, 317221, Note_on_c, 15, 47, 0
16, 317224, Note_on_c, 15, 59, 0
16, 317379, Note_on_c, 15, 64, 0
16, 317390, Note_on_c, 15, 52, 0
16, 322410, Note_on_c, 15, 52, 118
16, 322418, Note_on_c, 15, 64, 84
16, 322601, Note_on_c, 15, 64, 0
16, 322633, Note_on_c, 15, 52, 0
16, 330522, Note_on_c, 15, 44, 69
16, 330895, Note_on_c, 15, 45, 71
16, 330920, Note_on_c, 15, 44, 0
16, 331235, Note_on_c, 15, 57, 72
16, 331541, Note_on_c, 15, 46, 72
16, 331543, Note_on_c, 15, 58, 72
16, 331590, Note_on_c, 15, 57, 0
16, 331607, Note_on_c, 15, 45, 0
16, 331819, Note_on_c, 15, 58, 0
16, 331819, Note_on_c, 15, 46, 0
16, 346031, Note_on_c, 15, 62, 64
16, 346654, Note_on_c, 15, 61, 61
16, 346680, Note_on_c, 15, 62, 0
16, 346993, Note_on_c, 15, 60, 59
16, 347028, Note_on_c, 15, 61, 0
16, 347310, Note_on_c, 15, 59, 56
16, 347343, Note_on_c, 15, 60, 0
16, 347879, Note_on_c, 15, 52, 54
16, 347909, Note_on_c, 15, 59, 0
16, 348053, Note_on_c, 15, 52, 0
16, 355130, Note_on_c, 15, 52, 104
16, 355200, Control_c, 15, 11, 80
16, 355205, Control_c, 15, 11, 78
16, 355210, Control_c, 15, 11, 76
16, 355215, Control_c, 15, 11, 74
16, 355220, Control_c, 15, 11, 73
16, 355225, Control_c, 15, 11, 72
16, 355230, Control_c, 15, 11, 70
16, 355235, Control_c, 15, 11, 69
16, 355240, Control_c, 15, 11, 68
16, 355245, Control_c, 15, 11, 67
16, 355250, Control_c, 15, 11, 66
16, 355255, Control_c, 15, 11, 65
16, 355260, Control_c, 15, 11, 64
16, 355265, Control_c, 15, 11, 63
16, 355275, Control_c, 15, 11, 62
16, 355280, Control_c, 15, 11, 61
16, 355290, Control_c, 15, 11, 60
16, 355295, Control_c, 15, 11, 59
16, 355305, Control_c, 15, 11, 58
16, 355315, Control_c, 15, 11, 57
16, 355325, Control_c, 15, 11, 56
16, 355340, Control_c, 15, 11, 55
16, 355355, Control_c, 15, 11, 54
16, 355375, Control_c, 15, 11, 53
16, 355400, Control_c, 15, 11, 52
16, 355430, Control_c, 15, 11, 51
16, 355490, Control_c, 15, 11, 50
16, 355515, Control_c, 15, 11, 51
16, 355540, Control_c, 15, 11, 52
16, 355560, Control_c, 15, 11, 53
16, 355585, Control_c, 15, 11, 54
16, 355605, Control_c, 15, 11, 55
16, 355630, Control_c, 15, 11, 56
16, 355655, Control_c, 15, 11, 57
16, 355675, Control_c, 15, 11, 58
16, 355700, Control_c, 15, 11, 59
16, 355720, Control_c, 15, 11, 60
16, 355745, Control_c, 15, 11, 61
16, 355770, Control_c, 15, 11, 62
16, 355790, Control_c, 15, 11, 63
16, 355815, Control_c, 15, 11, 64
16, 355835, Control_c, 15, 11, 65
16, 355860, Control_c, 15, 11, 66
16, 355885, Control_c, 15, 11, 67
16, 355905, Control_c, 15, 11, 68
16, 355930, Control_c, 15, 11, 69
16, 355950, Control_c, 15, 11, 70
16, 355975, Control_c, 15, 11, 71
16, 356000, Control_c, 15, 11, 72
16, 356020, Control_c, 15, 11, 73
16, 356045, Control_c, 15, 11, 74
16, 356065, Control_c, 15, 11, 75
16, 356090, Control_c, 15, 11, 76
16, 356115, Control_c, 15, 11, 77
16, 356135, Control_c, 15, 11, 78
16, 356160, Control_c, 15, 11, 79
16, 356180, Control_c, 15, 11, 80
16, 356205, Control_c, 15, 11, 81
16, 356230, Control_c, 15, 11, 82
16, 356250, Control_c, 15, 11, 83
16, 356275, Control_c, 15, 11, 84
16, 356295, Control_c, 15, 11, 85
16, 356320, Control_c, 15, 11, 86
16, 356345, Control_c, 15, 11, 87
16, 356365, Control_c, 15, 11, 88
16, 356390, Control_c, 15, 11, 89
16, 356410, Control_c, 15, 11, 90
16, 356435, Control_c, 15, 11, 91
16, 356460, Control_c, 15, 11, 92
16, 356480, Control_c, 15, 11, 93
16, 356505, Control_c, 15, 11, 94
16, 356525, Control_c, 15, 11, 95
16, 356550, Control_c, 15, 11, 96
16, 356575, Control_c, 15, 11, 97
16, 356595, Control_c, 15, 11, 98
16, 356620, Control_c, 15, 11, 99
16, 356640, Control_c, 15, 11, 100
16, 356835, Note_on_c, 15, 52, 0
16, 357124, Note_on_c, 15, 52, 112
16, 357130, Note_on_c, 15, 64, 101
16, 357236, Note_on_c, 15, 64, 0
16, 357236, Note_on_c, 15, 52, 0
16, 357285, Note_on_c, 15, 64, 99
16, 357286, Note_on_c, 15, 52, 114
16, 357665, Note_on_c, 15, 52, 0
16, 357685, Note_on_c, 15, 64, 0
16, 357821, Note_on_c, 15, 52, 114
16, 357824, Note_on_c, 15, 64, 97
16, 358169, Note_on_c, 15, 64, 0
16, 358227, Note_on_c, 15, 52, 0
16, 358382, Note_on_c, 15, 52, 120
16, 358520, Note_on_c, 15, 52, 0
16, 358540, Note_on_c, 15, 52, 108
16, 360625, Note_on_c, 15, 52, 0
16, 361140, End_track
17, 0, Start_track
17, 0, Title_t, "Set up"
17, 0, MIDI_port, 0
17, 0, System_exclusive, 0A, 41, 10, 42, 12, 40, 00, 7F, 00, 41, F7
17, 80, System_exclusive, 0A, 41, 10, 42, 12, 40, 01, 30, 03, 0C, F7
17, 170, System_exclusive, 0A, 41, 10, 42, 12, 40, 01, 33, 40, 4C, F7
17, 260, System_exclusive, 0A, 41, 10, 42, 12, 40, 01, 34, 50, 3B, F7
17, 350, System_exclusive, 0A, 41, 10, 42, 12, 40, 01, 35, 28, 62, F7
17, 440, System_exclusive, 0A, 41, 10, 42, 12, 40, 01, 36, 05, 04, F7
17, 530, System_exclusive, 0A, 41, 10, 42, 12, 40, 01, 38, 00, 07, F7
17, 705, System_exclusive, 0A, 41, 10, 42, 12, 40, 01, 3A, 32, 53, F7
17, 960, End_track
0, 0, End_of_file