0, 0, Header, 1, 4, 192
1, 0, Start_track
1, 0, Title_t, "Piano Template"
1, 0, Text_t, "By <Name>"
1, 0, Copyright_t, "Copyright \251 <Year> by <Name>"
1, 0, Copyright_t, "All Rights Reserved"
1, 0, Text_t, "Generated by NoteWorthy Composer"
1, 0, Time_signature, 4, 2, 24, 8
1, 768, Tempo, 1428571
1, 768, Key_signature, 4, "major"
1, 768, Time_signature, 3, 2, 24, 8
1, 1920, Time_signature, 4, 2, 24, 8
1, 2688, Time_signature, 3, 2, 24, 8
1, 17203, Tempo, 1463414
1, 17318, Tempo, 1500000
1, 17433, Tempo, 1538461
1, 17548, Tempo, 1578947
1, 17664, Tempo, 1621621
1, 17664, Tempo, 800000
1, 18816, Tempo, 1428571
1, 23760, Tempo, 6000000
1, 23808, Tempo, 1428571
1, 25488, Tempo, 6000000
1, 25536, Tempo, 1428571
1, 40992, Tempo, 2000000
1, 41664, Tempo, 3000000
1, 41664, End_track
2, 0, Start_track
2, 0, MIDI_port, 0
2, 0, Title_t, "Right Hand"
2, 0, Program_c, 0, 0
2, 0, Control_c, 0, 7, 127
2, 0, Control_c, 0, 10, 64
2, 0, Program_c, 0, 0
2, 0, Control_c, 0, 7, 127
2, 0, Control_c, 0, 10, 64
2, 3264, Note_on_c, 0, 76, 45
2, 3648, Note_on_c, 0, 76, 0
2, 3648, Note_on_c, 0, 75, 45
2, 3792, Note_on_c, 0, 75, 0
2, 3792, Note_on_c, 0, 73, 45
2, 3840, Note_on_c, 0, 73, 0
2, 3840, Note_on_c, 0, 73, 45
2, 4032, Note_on_c, 0, 73, 0
2, 4032, Note_on_c, 0, 72, 45
2, 4224, Note_on_c, 0, 72, 0
2, 4224, Note_on_c, 0, 73, 45
2, 4416, Note_on_c, 0, 73, 0
2, 4416, Note_on_c, 0, 75, 45
2, 4608, Note_on_c, 0, 75, 0
2, 4608, Note_on_c, 0, 68, 45
2, 4912, Note_on_c, 0, 68, 0
2, 4944, Note_on_c, 0, 68, 45
2, 4992, Note_on_c, 0, 68, 0
2, 4992, Note_on_c, 0, 68, 45
2, 5184, Note_on_c, 0, 68, 0
2, 5184, Note_on_c, 0, 73, 45
2, 5376, Note_on_c, 0, 73, 0
2, 5376, Note_on_c, 0, 71, 45
2, 5568, Note_on_c, 0, 71, 0
2, 5568, Note_on_c, 0, 71, 45
2, 5760, Note_on_c, 0, 71, 0
2, 5760, Note_on_c, 0, 69, 45
2, 5952, Note_on_c, 0, 69, 0
2, 5952, Note_on_c, 0, 68, 45
2, 6144, Note_on_c, 0, 68, 0
2, 6144, Note_on_c, 0, 68, 45
2, 6336, Note_on_c, 0, 68, 0
2, 6336, Note_on_c, 0, 66, 45
2, 6528, Note_on_c, 0, 66, 0
2, 6528, Note_on_c, 0, 66, 45
2, 6624, Note_on_c, 0, 66, 0
2, 6624, Note_on_c, 0, 64, 45
2, 6720, Note_on_c, 0, 64, 0
2, 6720, Note_on_c, 0, 64, 45
2, 6816, Note_on_c, 0, 64, 0
2, 6816, Note_on_c, 0, 63, 45
2, 6910, Note_on_c, 0, 63, 0
2, 7872, Note_on_c, 0, 76, 45
2, 8256, Note_on_c, 0, 76, 0
2, 8256, Note_on_c, 0, 75, 45
2, 8400, Note_on_c, 0, 75, 0
2, 8400, Note_on_c, 0, 73, 45
2, 8448, Note_on_c, 0, 73, 0
2, 8448, Note_on_c, 0, 73, 45
2, 8832, Note_on_c, 0, 73, 0
2, 8832, Note_on_c, 0, 71, 45
2, 9024, Note_on_c, 0, 71, 0
2, 9024, Note_on_c, 0, 71, 45
2, 9360, Note_on_c, 0, 71, 0
2, 9408, Note_on_c, 0, 71, 45
2, 9552, Note_on_c, 0, 71, 0
2, 9552, Note_on_c, 0, 71, 45
2, 9600, Note_on_c, 0, 71, 0
2, 9600, Note_on_c, 0, 71, 45
2, 9792, Note_on_c, 0, 71, 0
2, 9792, Note_on_c, 0, 69, 45
2, 11280, Note_on_c, 0, 69, 0
2, 11328, Note_on_c, 0, 72, 45
2, 11854, Note_on_c, 0, 72, 0
2, 11856, Note_on_c, 0, 72, 45
2, 11902, Note_on_c, 0, 72, 0
2, 11904, Note_on_c, 0, 72, 45
2, 12064, Note_on_c, 0, 72, 0
2, 12096, Note_on_c, 0, 71, 45
2, 12256, Note_on_c, 0, 71, 0
2, 13056, Note_on_c, 0, 71, 45
2, 13392, Note_on_c, 0, 71, 0
2, 13440, Note_on_c, 0, 71, 45
2, 13600, Note_on_c, 0, 71, 0
2, 13632, Note_on_c, 0, 71, 45
2, 13726, Note_on_c, 0, 71, 0
2, 14208, Note_on_c, 0, 73, 45
2, 14400, Note_on_c, 0, 73, 0
2, 14400, Note_on_c, 0, 75, 45
2, 14512, Note_on_c, 0, 75, 0
2, 14512, Note_on_c, 0, 75, 45
2, 14528, Note_on_c, 0, 75, 0
2, 14528, Note_on_c, 0, 76, 45
2, 14544, Note_on_c, 0, 76, 0
2, 14544, Note_on_c, 0, 75, 45
2, 14560, Note_on_c, 0, 75, 0
2, 14560, Note_on_c, 0, 74, 45
2, 14576, Note_on_c, 0, 74, 0
2, 14576, Note_on_c, 0, 75, 45
2, 14592, Note_on_c, 0, 75, 0
2, 14592, Note_on_c, 0, 78, 45
2, 14736, Note_on_c, 0, 78, 0
2, 14736, Note_on_c, 0, 76, 45
2, 14784, Note_on_c, 0, 76, 0
2, 14784, Note_on_c, 0, 75, 45
2, 14880, Note_on_c, 0, 75, 0
2, 14880, Note_on_c, 0, 80, 45
2, 15040, Note_on_c, 0, 80, 0
2, 15360, Note_on_c, 0, 75, 45
2, 15552, Note_on_c, 0, 75, 0
2, 15552, Note_on_c, 0, 77, 45
2, 15744, Note_on_c, 0, 77, 0
2, 15744, Note_on_c, 0, 78, 45
2, 15936, Note_on_c, 0, 78, 0
2, 15936, Note_on_c, 0, 78, 45
2, 16032, Note_on_c, 0, 78, 0
2, 16032, Note_on_c, 0, 77, 45
2, 16128, Note_on_c, 0, 77, 0
2, 16128, Note_on_c, 0, 82, 45
2, 16288, Note_on_c, 0, 82, 0
2, 16512, Note_on_c, 0, 77, 45
2, 16704, Note_on_c, 0, 77, 0
2, 16704, Note_on_c, 0, 78, 55
2, 16896, Note_on_c, 0, 78, 0
2, 16896, Note_on_c, 0, 79, 65
2, 17088, Note_on_c, 0, 79, 0
2, 17088, Note_on_c, 0, 80, 75
2, 17280, Note_on_c, 0, 80, 0
2, 17280, Note_on_c, 0, 78, 86
2, 17280, Note_on_c, 0, 81, 86
2, 17664, Note_on_c, 0, 78, 0
2, 17664, Note_on_c, 0, 81, 0
2, 17664, Note_on_c, 0, 79, 108
2, 17664, Note_on_c, 0, 82, 108
2, 18048, Note_on_c, 0, 79, 0
2, 18048, Note_on_c, 0, 82, 0
2, 18048, Note_on_c, 0, 75, 108
2, 18048, Note_on_c, 0, 79, 108
2, 18400, Note_on_c, 0, 75, 0
2, 18400, Note_on_c, 0, 79, 0
2, 18432, Note_on_c, 0, 77, 77
2, 18624, Note_on_c, 0, 77, 0
2, 18624, Note_on_c, 0, 70, 61
2, 18816, Note_on_c, 0, 70, 0
2, 18816, Note_on_c, 0, 75, 63
2, 19152, Note_on_c, 0, 75, 0
2, 19200, Note_on_c, 0, 75, 45
2, 19296, Note_on_c, 0, 75, 0
2, 19296, Note_on_c, 0, 75, 45
2, 19392, Note_on_c, 0, 75, 0
2, 19392, Note_on_c, 0, 75, 45
2, 19776, Note_on_c, 0, 75, 0
2, 19776, Note_on_c, 0, 75, 45
2, 19920, Note_on_c, 0, 75, 0
2, 19920, Note_on_c, 0, 76, 45
2, 19968, Note_on_c, 0, 76, 0
2, 19968, Note_on_c, 0, 78, 45
2, 20304, Note_on_c, 0, 78, 0
2, 20352, Note_on_c, 0, 78, 45
2, 20520, Note_on_c, 0, 78, 0
2, 20520, Note_on_c, 0, 80, 45
2, 20544, Note_on_c, 0, 80, 0
2, 20544, Note_on_c, 0, 80, 45
2, 20928, Note_on_c, 0, 80, 0
2, 20928, Note_on_c, 0, 78, 45
2, 21096, Note_on_c, 0, 78, 0
2, 21096, Note_on_c, 0, 75, 45
2, 21120, Note_on_c, 0, 75, 0
2, 21120, Note_on_c, 0, 75, 45
2, 21408, Note_on_c, 0, 75, 0
2, 21408, Note_on_c, 0, 73, 45
2, 21504, Note_on_c, 0, 73, 0
2, 21504, Note_on_c, 0, 71, 45
2, 21648, Note_on_c, 0, 71, 0
2, 21648, Note_on_c, 0, 73, 45
2, 21696, Note_on_c, 0, 73, 0
2, 21696, Note_on_c, 0, 75, 45
2, 22032, Note_on_c, 0, 75, 0
2, 22080, Note_on_c, 0, 75, 42
2, 22248, Note_on_c, 0, 75, 0
2, 22248, Note_on_c, 0, 76, 41
2, 22272, Note_on_c, 0, 76, 0
2, 22272, Note_on_c, 0, 78, 41
2, 22656, Note_on_c, 0, 78, 0
2, 22656, Note_on_c, 0, 78, 38
2, 22824, Note_on_c, 0, 78, 0
2, 22824, Note_on_c, 0, 80, 37
2, 22848, Note_on_c, 0, 80, 0
2, 22872, Note_on_c, 0, 81, 37
2, 23038, Note_on_c, 0, 81, 0
2, 23904, Note_on_c, 0, 75, 30
2, 24000, Note_on_c, 0, 75, 0
2, 24000, Note_on_c, 0, 76, 30
2, 24384, Note_on_c, 0, 76, 0
2, 24384, Note_on_c, 0, 76, 30
2, 24552, Note_on_c, 0, 76, 0
2, 24552, Note_on_c, 0, 74, 30
2, 24576, Note_on_c, 0, 74, 0
2, 24576, Note_on_c, 0, 74, 30
2, 24720, Note_on_c, 0, 74, 0
2, 24720, Note_on_c, 0, 72, 30
2, 24768, Note_on_c, 0, 72, 0
2, 24768, Note_on_c, 0, 71, 30
2, 24928, Note_on_c, 0, 71, 0
2, 24960, Note_on_c, 0, 74, 30
2, 25104, Note_on_c, 0, 74, 0
2, 25104, Note_on_c, 0, 72, 30
2, 25152, Note_on_c, 0, 72, 0
2, 25152, Note_on_c, 0, 71, 30
2, 25344, Note_on_c, 0, 71, 0
2, 25344, Note_on_c, 0, 71, 30
2, 25440, Note_on_c, 0, 71, 0
2, 25440, Note_on_c, 0, 69, 30
2, 25486, Note_on_c, 0, 69, 0
2, 27456, Note_on_c, 0, 71, 45
2, 27840, Note_on_c, 0, 71, 0
2, 27840, Note_on_c, 0, 71, 45
2, 28032, Note_on_c, 0, 71, 0
2, 28032, Note_on_c, 0, 71, 45
2, 28416, Note_on_c, 0, 71, 0
2, 28416, Note_on_c, 0, 72, 55
2, 28584, Note_on_c, 0, 72, 0
2, 28584, Note_on_c, 0, 73, 59
2, 28606, Note_on_c, 0, 73, 0
2, 29184, Note_on_c, 0, 76, 45
2, 29568, Note_on_c, 0, 76, 0
2, 29568, Note_on_c, 0, 75, 45
2, 29712, Note_on_c, 0, 75, 0
2, 29712, Note_on_c, 0, 73, 45
2, 29760, Note_on_c, 0, 73, 0
2, 29760, Note_on_c, 0, 73, 45
2, 29952, Note_on_c, 0, 73, 0
2, 29952, Note_on_c, 0, 72, 45
2, 30144, Note_on_c, 0, 72, 0
2, 30144, Note_on_c, 0, 73, 45
2, 30336, Note_on_c, 0, 73, 0
2, 30336, Note_on_c, 0, 75, 45
2, 30528, Note_on_c, 0, 75, 0
2, 30528, Note_on_c, 0, 68, 45
2, 30832, Note_on_c, 0, 68, 0
2, 30864, Note_on_c, 0, 68, 45
2, 30910, Note_on_c, 0, 68, 0
2, 30912, Note_on_c, 0, 68, 45
2, 31072, Note_on_c, 0, 68, 0
2, 31104, Note_on_c, 0, 73, 45
2, 31264, Note_on_c, 0, 73, 0
2, 31296, Note_on_c, 0, 71, 45
2, 31456, Note_on_c, 0, 71, 0
2, 31488, Note_on_c, 0, 71, 45
2, 31648, Note_on_c, 0, 71, 0
2, 31680, Note_on_c, 0, 69, 45
2, 31840, Note_on_c, 0, 69, 0
2, 31872, Note_on_c, 0, 68, 45
2, 32032, Note_on_c, 0, 68, 0
2, 32064, Note_on_c, 0, 68, 45
2, 32224, Note_on_c, 0, 68, 0
2, 32256, Note_on_c, 0, 66, 45
2, 32416, Note_on_c, 0, 66, 0
2, 32448, Note_on_c, 0, 66, 45
2, 32542, Note_on_c, 0, 66, 0
2, 32544, Note_on_c, 0, 64, 45
2, 32638, Note_on_c, 0, 64, 0
2, 32640, Note_on_c, 0, 64, 45
2, 32734, Note_on_c, 0, 64, 0
2, 32736, Note_on_c, 0, 63, 45
2, 32830, Note_on_c, 0, 63, 0
2, 33792, Note_on_c, 0, 76, 45
2, 34176, Note_on_c, 0, 76, 0
2, 34176, Note_on_c, 0, 75, 45
2, 34320, Note_on_c, 0, 75, 0
2, 34320, Note_on_c, 0, 73, 45
2, 34368, Note_on_c, 0, 73, 0
2, 34368, Note_on_c, 0, 73, 45
2, 34560, Note_on_c, 0, 73, 0
2, 34560, Note_on_c, 0, 71, 45
2, 34752, Note_on_c, 0, 71, 0
2, 34752, Note_on_c, 0, 71, 45
2, 34944, Note_on_c, 0, 71, 0
2, 34944, Note_on_c, 0, 71, 45
2, 35328, Note_on_c, 0, 71, 0
2, 35328, Note_on_c, 0, 73, 45
2, 35472, Note_on_c, 0, 73, 0
2, 35472, Note_on_c, 0, 71, 45
2, 35520, Note_on_c, 0, 71, 0
2, 35520, Note_on_c, 0, 71, 45
2, 35712, Note_on_c, 0, 71, 0
2, 35712, Note_on_c, 0, 69, 45
2, 36432, Note_on_c, 0, 69, 0
2, 36480, Note_on_c, 0, 69, 45
2, 36624, Note_on_c, 0, 69, 0
2, 36624, Note_on_c, 0, 69, 45
2, 36672, Note_on_c, 0, 69, 0
2, 36672, Note_on_c, 0, 69, 45
2, 36864, Note_on_c, 0, 69, 0
2, 36864, Note_on_c, 0, 68, 45
2, 37200, Note_on_c, 0, 68, 0
2, 37248, Note_on_c, 0, 76, 45
2, 37632, Note_on_c, 0, 76, 0
2, 37632, Note_on_c, 0, 76, 45
2, 38016, Note_on_c, 0, 76, 0
2, 38016, Note_on_c, 0, 73, 45
2, 38400, Note_on_c, 0, 73, 0
2, 38400, Note_on_c, 0, 68, 45
2, 38736, Note_on_c, 0, 68, 0
2, 38784, Note_on_c, 0, 68, 55
2, 38976, Note_on_c, 0, 68, 0
2, 38976, Note_on_c, 0, 68, 60
2, 39168, Note_on_c, 0, 68, 0
2, 39168, Note_on_c, 0, 66, 60
2, 39552, Note_on_c, 0, 66, 0
2, 39552, Note_on_c, 0, 64, 45
2, 39744, Note_on_c, 0, 64, 0
2, 39744, Note_on_c, 0, 64, 45
2, 39840, Note_on_c, 0, 64, 0
2, 39840, Note_on_c, 0, 63, 45
2, 39936, Note_on_c, 0, 63, 0
2, 39936, Note_on_c, 0, 63, 45
2, 40104, Note_on_c, 0, 63, 0
2, 40104, Note_on_c, 0, 61, 45
2, 40128, Note_on_c, 0, 61, 0
2, 40128, Note_on_c, 0, 61, 45
2, 40222, Note_on_c, 0, 61, 0
2, 40222, End_track
3, 0, Start_track
3, 0, MIDI_port, 0
3, 0, Title_t, "Staff-1"
3, 0, Control_c, 0, 7, 127
3, 0, Control_c, 0, 10, 64
3, 0, Control_c, 0, 7, 127
3, 0, Control_c, 0, 10, 64
3, 2784, Note_on_c, 0, 68, 45
3, 2784, Note_on_c, 0, 73, 45
3, 2878, Note_on_c, 0, 68, 0
3, 2878, Note_on_c, 0, 73, 0
3, 2880, Note_on_c, 0, 68, 45
3, 2880, Note_on_c, 0, 73, 45
3, 2974, Note_on_c, 0, 68, 0
3, 2974, Note_on_c, 0, 73, 0
3, 2976, Note_on_c, 0, 68, 45
3, 2976, Note_on_c, 0, 73, 45
3, 3070, Note_on_c, 0, 68, 0
3, 3070, Note_on_c, 0, 73, 0
3, 3072, Note_on_c, 0, 68, 45
3, 3072, Note_on_c, 0, 73, 45
3, 3166, Note_on_c, 0, 68, 0
3, 3166, Note_on_c, 0, 73, 0
3, 3168, Note_on_c, 0, 68, 45
3, 3168, Note_on_c, 0, 73, 45
3, 3262, Note_on_c, 0, 68, 0
3, 3262, Note_on_c, 0, 73, 0
3, 3264, Note_on_c, 0, 64, 45
3, 3264, Note_on_c, 0, 69, 45
3, 3358, Note_on_c, 0, 64, 0
3, 3358, Note_on_c, 0, 69, 0
3, 3360, Note_on_c, 0, 64, 45
3, 3360, Note_on_c, 0, 69, 45
3, 3454, Note_on_c, 0, 64, 0
3, 3454, Note_on_c, 0, 69, 0
3, 3456, Note_on_c, 0, 64, 45
3, 3456, Note_on_c, 0, 69, 45
3, 3550, Note_on_c, 0, 64, 0
3, 3550, Note_on_c, 0, 69, 0
3, 3552, Note_on_c, 0, 64, 45
3, 3552, Note_on_c, 0, 69, 45
3, 3646, Note_on_c, 0, 64, 0
3, 3646, Note_on_c, 0, 69, 0
3, 3648, Note_on_c, 0, 64, 45
3, 3648, Note_on_c, 0, 69, 45
3, 3742, Note_on_c, 0, 64, 0
3, 3742, Note_on_c, 0, 69, 0
3, 3744, Note_on_c, 0, 64, 45
3, 3744, Note_on_c, 0, 69, 45
3, 3838, Note_on_c, 0, 64, 0
3, 3838, Note_on_c, 0, 69, 0
3, 3840, Note_on_c, 0, 63, 45
3, 3840, Note_on_c, 0, 66, 45
3, 3934, Note_on_c, 0, 63, 0
3, 3934, Note_on_c, 0, 66, 0
3, 3936, Note_on_c, 0, 63, 45
3, 3936, Note_on_c, 0, 66, 45
3, 4030, Note_on_c, 0, 63, 0
3, 4030, Note_on_c, 0, 66, 0
3, 4032, Note_on_c, 0, 63, 45
3, 4032, Note_on_c, 0, 66, 45
3, 4126, Note_on_c, 0, 63, 0
3, 4126, Note_on_c, 0, 66, 0
3, 4128, Note_on_c, 0, 63, 45
3, 4128, Note_on_c, 0, 66, 45
3, 4222, Note_on_c, 0, 63, 0
3, 4222, Note_on_c, 0, 66, 0
3, 4224, Note_on_c, 0, 63, 45
3, 4224, Note_on_c, 0, 66, 45
3, 4318, Note_on_c, 0, 63, 0
3, 4318, Note_on_c, 0, 66, 0
3, 4320, Note_on_c, 0, 63, 45
3, 4320, Note_on_c, 0, 66, 45
3, 4414, Note_on_c, 0, 63, 0
3, 4414, Note_on_c, 0, 66, 0
3, 4416, Note_on_c, 0, 63, 45
3, 4416, Note_on_c, 0, 66, 45
3, 4510, Note_on_c, 0, 63, 0
3, 4510, Note_on_c, 0, 66, 0
3, 4512, Note_on_c, 0, 63, 45
3, 4512, Note_on_c, 0, 66, 45
3, 4606, Note_on_c, 0, 63, 0
3, 4606, Note_on_c, 0, 66, 0
3, 4608, Note_on_c, 0, 63, 45
3, 4608, Note_on_c, 0, 66, 45
3, 4702, Note_on_c, 0, 63, 0
3, 4702, Note_on_c, 0, 66, 0
3, 4704, Note_on_c, 0, 63, 45
3, 4704, Note_on_c, 0, 66, 45
3, 4798, Note_on_c, 0, 63, 0
3, 4798, Note_on_c, 0, 66, 0
3, 4800, Note_on_c, 0, 60, 45
3, 4800, Note_on_c, 0, 66, 45
3, 4894, Note_on_c, 0, 60, 0
3, 4894, Note_on_c, 0, 66, 0
3, 4896, Note_on_c, 0, 60, 45
3, 4896, Note_on_c, 0, 66, 45
3, 4990, Note_on_c, 0, 60, 0
3, 4990, Note_on_c, 0, 66, 0
3, 5088, Note_on_c, 0, 61, 45
3, 5182, Note_on_c, 0, 61, 0
3, 5184, Note_on_c, 0, 61, 45
3, 5184, Note_on_c, 0, 64, 45
3, 5278, Note_on_c, 0, 61, 0
3, 5278, Note_on_c, 0, 64, 0
3, 5280, Note_on_c, 0, 61, 45
3, 5280, Note_on_c, 0, 64, 45
3, 5374, Note_on_c, 0, 61, 0
3, 5374, Note_on_c, 0, 64, 0
3, 5376, Note_on_c, 0, 61, 45
3, 5376, Note_on_c, 0, 64, 45
3, 5470, Note_on_c, 0, 61, 0
3, 5470, Note_on_c, 0, 64, 0
3, 5472, Note_on_c, 0, 61, 45
3, 5472, Note_on_c, 0, 64, 45
3, 5566, Note_on_c, 0, 61, 0
3, 5566, Note_on_c, 0, 64, 0
3, 5568, Note_on_c, 0, 61, 45
3, 5568, Note_on_c, 0, 64, 45
3, 5662, Note_on_c, 0, 61, 0
3, 5662, Note_on_c, 0, 64, 0
3, 5664, Note_on_c, 0, 61, 45
3, 5664, Note_on_c, 0, 64, 45
3, 5758, Note_on_c, 0, 61, 0
3, 5758, Note_on_c, 0, 64, 0
3, 5760, Note_on_c, 0, 61, 45
3, 5760, Note_on_c, 0, 64, 45
3, 5854, Note_on_c, 0, 61, 0
3, 5854, Note_on_c, 0, 64, 0
3, 5856, Note_on_c, 0, 61, 45
3, 5856, Note_on_c, 0, 64, 45
3, 5950, Note_on_c, 0, 61, 0
3, 5950, Note_on_c, 0, 64, 0
3, 5952, Note_on_c, 0, 61, 45
3, 5952, Note_on_c, 0, 64, 45
3, 6046, Note_on_c, 0, 61, 0
3, 6046, Note_on_c, 0, 64, 0
3, 6048, Note_on_c, 0, 61, 45
3, 6048, Note_on_c, 0, 64, 45
3, 6142, Note_on_c, 0, 61, 0
3, 6142, Note_on_c, 0, 64, 0
3, 6144, Note_on_c, 0, 61, 45
3, 6144, Note_on_c, 0, 63, 45
3, 6238, Note_on_c, 0, 61, 0
3, 6238, Note_on_c, 0, 63, 0
3, 6240, Note_on_c, 0, 61, 45
3, 6240, Note_on_c, 0, 63, 45
3, 6334, Note_on_c, 0, 61, 0
3, 6334, Note_on_c, 0, 63, 0
3, 6336, Note_on_c, 0, 57, 45
3, 6336, Note_on_c, 0, 63, 45
3, 6430, Note_on_c, 0, 57, 0
3, 6430, Note_on_c, 0, 63, 0
3, 6432, Note_on_c, 0, 56, 45
3, 6432, Note_on_c, 0, 63, 45
3, 6526, Note_on_c, 0, 56, 0
3, 6526, Note_on_c, 0, 63, 0
3, 6528, Note_on_c, 0, 56, 45
3, 6528, Note_on_c, 0, 61, 45
3, 6622, Note_on_c, 0, 56, 0
3, 6622, Note_on_c, 0, 61, 0
3, 6624, Note_on_c, 0, 56, 45
3, 6624, Note_on_c, 0, 61, 45
3, 6718, Note_on_c, 0, 56, 0
3, 6718, Note_on_c, 0, 61, 0
3, 6720, Note_on_c, 0, 56, 45
3, 6720, Note_on_c, 0, 60, 45
3, 6814, Note_on_c, 0, 56, 0
3, 6814, Note_on_c, 0, 60, 0
3, 6816, Note_on_c, 0, 56, 45
3, 6816, Note_on_c, 0, 60, 45
3, 6910, Note_on_c, 0, 56, 0
3, 6910, Note_on_c, 0, 60, 0
3, 6912, Note_on_c, 0, 56, 45
3, 6912, Note_on_c, 0, 68, 45
3, 7006, Note_on_c, 0, 56, 0
3, 7006, Note_on_c, 0, 68, 0
3, 7008, Note_on_c, 0, 56, 45
3, 7008, Note_on_c, 0, 68, 45
3, 7102, Note_on_c, 0, 56, 0
3, 7102, Note_on_c, 0, 68, 0
3, 7104, Note_on_c, 0, 63, 45
3, 7104, Note_on_c, 0, 66, 45
3, 7104, Note_on_c, 0, 68, 45
3, 7198, Note_on_c, 0, 63, 0
3, 7198, Note_on_c, 0, 66, 0
3, 7198, Note_on_c, 0, 68, 0
3, 7200, Note_on_c, 0, 63, 45
3, 7200, Note_on_c, 0, 66, 45
3, 7200, Note_on_c, 0, 68, 45
3, 7294, Note_on_c, 0, 63, 0
3, 7294, Note_on_c, 0, 66, 0
3, 7294, Note_on_c, 0, 68, 0
3, 7392, Note_on_c, 0, 68, 45
3, 7392, Note_on_c, 0, 73, 45
3, 7486, Note_on_c, 0, 68, 0
3, 7486, Note_on_c, 0, 73, 0
3, 7488, Note_on_c, 0, 68, 45
3, 7488, Note_on_c, 0, 73, 45
3, 7582, Note_on_c, 0, 68, 0
3, 7582, Note_on_c, 0, 73, 0
3, 7584, Note_on_c, 0, 68, 45
3, 7584, Note_on_c, 0, 73, 45
3, 7678, Note_on_c, 0, 68, 0
3, 7678, Note_on_c, 0, 73, 0
3, 7680, Note_on_c, 0, 68, 45
3, 7680, Note_on_c, 0, 73, 45
3, 7774, Note_on_c, 0, 68, 0
3, 7774, Note_on_c, 0, 73, 0
3, 7776, Note_on_c, 0, 68, 45
3, 7776, Note_on_c, 0, 73, 45
3, 7870, Note_on_c, 0, 68, 0
3, 7870, Note_on_c, 0, 73, 0
3, 7872, Note_on_c, 0, 64, 45
3, 7872, Note_on_c, 0, 69, 45
3, 7966, Note_on_c, 0, 64, 0
3, 7966, Note_on_c, 0, 69, 0
3, 7968, Note_on_c, 0, 64, 45
3, 7968, Note_on_c, 0, 69, 45
3, 8062, Note_on_c, 0, 64, 0
3, 8062, Note_on_c, 0, 69, 0
3, 8064, Note_on_c, 0, 64, 45
3, 8064, Note_on_c, 0, 69, 45
3, 8158, Note_on_c, 0, 64, 0
3, 8158, Note_on_c, 0, 69, 0
3, 8160, Note_on_c, 0, 64, 45
3, 8160, Note_on_c, 0, 69, 45
3, 8254, Note_on_c, 0, 64, 0
3, 8254, Note_on_c, 0, 69, 0
3, 8256, Note_on_c, 0, 64, 45
3, 8256, Note_on_c, 0, 69, 45
3, 8350, Note_on_c, 0, 64, 0
3, 8350, Note_on_c, 0, 69, 0
3, 8352, Note_on_c, 0, 64, 45
3, 8352, Note_on_c, 0, 69, 45
3, 8446, Note_on_c, 0, 64, 0
3, 8446, Note_on_c, 0, 69, 0
3, 8448, Note_on_c, 0, 63, 45
3, 8448, Note_on_c, 0, 69, 45
3, 8542, Note_on_c, 0, 63, 0
3, 8542, Note_on_c, 0, 69, 0
3, 8544, Note_on_c, 0, 63, 45
3, 8544, Note_on_c, 0, 69, 45
3, 8638, Note_on_c, 0, 63, 0
3, 8638, Note_on_c, 0, 69, 0
3, 8640, Note_on_c, 0, 63, 45
3, 8640, Note_on_c, 0, 69, 45
3, 8734, Note_on_c, 0, 63, 0
3, 8734, Note_on_c, 0, 69, 0
3, 8736, Note_on_c, 0, 63, 45
3, 8736, Note_on_c, 0, 69, 45
3, 8830, Note_on_c, 0, 63, 0
3, 8830, Note_on_c, 0, 69, 0
3, 8832, Note_on_c, 0, 69, 45
3, 8926, Note_on_c, 0, 69, 0
3, 8928, Note_on_c, 0, 63, 45
3, 8928, Note_on_c, 0, 66, 45
3, 9022, Note_on_c, 0, 63, 0
3, 9022, Note_on_c, 0, 66, 0
3, 9024, Note_on_c, 0, 62, 45
3, 9024, Note_on_c, 0, 66, 45
3, 9118, Note_on_c, 0, 62, 0
3, 9118, Note_on_c, 0, 66, 0
3, 9120, Note_on_c, 0, 62, 45
3, 9120, Note_on_c, 0, 66, 45
3, 9214, Note_on_c, 0, 62, 0
3, 9214, Note_on_c, 0, 66, 0
3, 9216, Note_on_c, 0, 62, 45
3, 9216, Note_on_c, 0, 65, 45
3, 9310, Note_on_c, 0, 62, 0
3, 9310, Note_on_c, 0, 65, 0
3, 9312, Note_on_c, 0, 62, 45
3, 9312, Note_on_c, 0, 65, 45
3, 9406, Note_on_c, 0, 62, 0
3, 9406, Note_on_c, 0, 65, 0
3, 9408, Note_on_c, 0, 61, 45
3, 9408, Note_on_c, 0, 65, 45
3, 9502, Note_on_c, 0, 61, 0
3, 9502, Note_on_c, 0, 65, 0
3, 9504, Note_on_c, 0, 61, 45
3, 9504, Note_on_c, 0, 65, 45
3, 9598, Note_on_c, 0, 61, 0
3, 9598, Note_on_c, 0, 65, 0
3, 9600, Note_on_c, 0, 61, 45
3, 9600, Note_on_c, 0, 66, 45
3, 9694, Note_on_c, 0, 61, 0
3, 9694, Note_on_c, 0, 66, 0
3, 9696, Note_on_c, 0, 61, 45
3, 9696, Note_on_c, 0, 66, 45
3, 9790, Note_on_c, 0, 61, 0
3, 9790, Note_on_c, 0, 66, 0
3, 9792, Note_on_c, 0, 61, 45
3, 9792, Note_on_c, 0, 66, 45
3, 9886, Note_on_c, 0, 61, 0
3, 9886, Note_on_c, 0, 66, 0
3, 9888, Note_on_c, 0, 61, 45
3, 9888, Note_on_c, 0, 66, 45
3, 9982, Note_on_c, 0, 61, 0
3, 9982, Note_on_c, 0, 66, 0
3, 9984, Note_on_c, 0, 61, 45
3, 9984, Note_on_c, 0, 66, 45
3, 10078, Note_on_c, 0, 61, 0
3, 10078, Note_on_c, 0, 66, 0
3, 10080, Note_on_c, 0, 61, 45
3, 10080, Note_on_c, 0, 66, 45
3, 10174, Note_on_c, 0, 61, 0
3, 10174, Note_on_c, 0, 66, 0
3, 10176, Note_on_c, 0, 64, 45
3, 10176, Note_on_c, 0, 66, 45
3, 10270, Note_on_c, 0, 64, 0
3, 10270, Note_on_c, 0, 66, 0
3, 10272, Note_on_c, 0, 64, 45
3, 10272, Note_on_c, 0, 66, 45
3, 10366, Note_on_c, 0, 64, 0
3, 10366, Note_on_c, 0, 66, 0
3, 10368, Note_on_c, 0, 64, 45
3, 10368, Note_on_c, 0, 66, 45
3, 10462, Note_on_c, 0, 64, 0
3, 10462, Note_on_c, 0, 66, 0
3, 10464, Note_on_c, 0, 64, 45
3, 10464, Note_on_c, 0, 66, 45
3, 10558, Note_on_c, 0, 64, 0
3, 10558, Note_on_c, 0, 66, 0
3, 10560, Note_on_c, 0, 64, 45
3, 10560, Note_on_c, 0, 66, 45
3, 10654, Note_on_c, 0, 64, 0
3, 10654, Note_on_c, 0, 66, 0
3, 10656, Note_on_c, 0, 64, 45
3, 10656, Note_on_c, 0, 66, 45
3, 10750, Note_on_c, 0, 64, 0
3, 10750, Note_on_c, 0, 66, 0
3, 10752, Note_on_c, 0, 64, 45
3, 10752, Note_on_c, 0, 66, 45
3, 10846, Note_on_c, 0, 64, 0
3, 10846, Note_on_c, 0, 66, 0
3, 10848, Note_on_c, 0, 64, 45
3, 10848, Note_on_c, 0, 66, 45
3, 10942, Note_on_c, 0, 64, 0
3, 10942, Note_on_c, 0, 66, 0
3, 10944, Note_on_c, 0, 64, 45
3, 10944, Note_on_c, 0, 66, 45
3, 11038, Note_on_c, 0, 64, 0
3, 11038, Note_on_c, 0, 66, 0
3, 11040, Note_on_c, 0, 64, 45
3, 11040, Note_on_c, 0, 66, 45
3, 11134, Note_on_c, 0, 64, 0
3, 11134, Note_on_c, 0, 66, 0
3, 11136, Note_on_c, 0, 64, 45
3, 11136, Note_on_c, 0, 66, 45
3, 11230, Note_on_c, 0, 64, 0
3, 11230, Note_on_c, 0, 66, 0
3, 11232, Note_on_c, 0, 64, 45
3, 11232, Note_on_c, 0, 66, 45
3, 11326, Note_on_c, 0, 64, 0
3, 11326, Note_on_c, 0, 66, 0
3, 11328, Note_on_c, 0, 64, 45
3, 11328, Note_on_c, 0, 66, 45
3, 11422, Note_on_c, 0, 64, 0
3, 11422, Note_on_c, 0, 66, 0
3, 11424, Note_on_c, 0, 64, 45
3, 11424, Note_on_c, 0, 66, 45
3, 11518, Note_on_c, 0, 64, 0
3, 11518, Note_on_c, 0, 66, 0
3, 11520, Note_on_c, 0, 64, 45
3, 11520, Note_on_c, 0, 69, 45
3, 11614, Note_on_c, 0, 64, 0
3, 11614, Note_on_c, 0, 69, 0
3, 11616, Note_on_c, 0, 64, 45
3, 11616, Note_on_c, 0, 69, 45
3, 11710, Note_on_c, 0, 64, 0
3, 11710, Note_on_c, 0, 69, 0
3, 11712, Note_on_c, 0, 64, 45
3, 11712, Note_on_c, 0, 66, 45
3, 11806, Note_on_c, 0, 64, 0
3, 11806, Note_on_c, 0, 66, 0
3, 11808, Note_on_c, 0, 64, 45
3, 11808, Note_on_c, 0, 66, 45
3, 11902, Note_on_c, 0, 64, 0
3, 11902, Note_on_c, 0, 66, 0
3, 11904, Note_on_c, 0, 64, 45
3, 11904, Note_on_c, 0, 68, 45
3, 11998, Note_on_c, 0, 64, 0
3, 11998, Note_on_c, 0, 68, 0
3, 12000, Note_on_c, 0, 64, 45
3, 12000, Note_on_c, 0, 68, 45
3, 12094, Note_on_c, 0, 64, 0
3, 12094, Note_on_c, 0, 68, 0
3, 12096, Note_on_c, 0, 64, 45
3, 12096, Note_on_c, 0, 68, 45
3, 12190, Note_on_c, 0, 64, 0
3, 12190, Note_on_c, 0, 68, 0
3, 12192, Note_on_c, 0, 64, 45
3, 12192, Note_on_c, 0, 68, 45
3, 12286, Note_on_c, 0, 64, 0
3, 12286, Note_on_c, 0, 68, 0
3, 12288, Note_on_c, 0, 64, 45
3, 12288, Note_on_c, 0, 68, 45
3, 12382, Note_on_c, 0, 64, 0
3, 12382, Note_on_c, 0, 68, 0
3, 12384, Note_on_c, 0, 64, 45
3, 12384, Note_on_c, 0, 68, 45
3, 12478, Note_on_c, 0, 64, 0
3, 12478, Note_on_c, 0, 68, 0
3, 12576, Note_on_c, 0, 64, 45
3, 12576, Note_on_c, 0, 68, 45
3, 12670, Note_on_c, 0, 64, 0
3, 12670, Note_on_c, 0, 68, 0
3, 12672, Note_on_c, 0, 64, 45
3, 12672, Note_on_c, 0, 68, 45
3, 12766, Note_on_c, 0, 64, 0
3, 12766, Note_on_c, 0, 68, 0
3, 12768, Note_on_c, 0, 64, 45
3, 12768, Note_on_c, 0, 68, 45
3, 12862, Note_on_c, 0, 64, 0
3, 12862, Note_on_c, 0, 68, 0
3, 12864, Note_on_c, 0, 64, 45
3, 12864, Note_on_c, 0, 68, 45
3, 12958, Note_on_c, 0, 64, 0
3, 12958, Note_on_c, 0, 68, 0
3, 12960, Note_on_c, 0, 64, 45
3, 12960, Note_on_c, 0, 68, 45
3, 13054, Note_on_c, 0, 64, 0
3, 13054, Note_on_c, 0, 68, 0
3, 13056, Note_on_c, 0, 59, 45
3, 13056, Note_on_c, 0, 64, 45
3, 13150, Note_on_c, 0, 59, 0
3, 13150, Note_on_c, 0, 64, 0
3, 13152, Note_on_c, 0, 59, 45
3, 13152, Note_on_c, 0, 64, 45
3, 13246, Note_on_c, 0, 59, 0
3, 13246, Note_on_c, 0, 64, 0
3, 13248, Note_on_c, 0, 59, 45
3, 13248, Note_on_c, 0, 64, 45
3, 13342, Note_on_c, 0, 59, 0
3, 13342, Note_on_c, 0, 64, 0
3, 13344, Note_on_c, 0, 59, 45
3, 13344, Note_on_c, 0, 64, 45
3, 13438, Note_on_c, 0, 59, 0
3, 13438, Note_on_c, 0, 64, 0
3, 13440, Note_on_c, 0, 59, 45
3, 13440, Note_on_c, 0, 63, 45
3, 13534, Note_on_c, 0, 59, 0
3, 13534, Note_on_c, 0, 63, 0
3, 13536, Note_on_c, 0, 59, 45
3, 13536, Note_on_c, 0, 63, 45
3, 13630, Note_on_c, 0, 59, 0
3, 13630, Note_on_c, 0, 63, 0
3, 13632, Note_on_c, 0, 59, 45
3, 13632, Note_on_c, 0, 64, 45
3, 13632, Note_on_c, 0, 68, 45
3, 13726, Note_on_c, 0, 59, 0
3, 13726, Note_on_c, 0, 64, 0
3, 13726, Note_on_c, 0, 68, 0
3, 13728, Note_on_c, 0, 59, 45
3, 13728, Note_on_c, 0, 64, 45
3, 13728, Note_on_c, 0, 68, 45
3, 13760, Note_on_c, 0, 59, 0
3, 13760, Note_on_c, 0, 64, 0
3, 13760, Note_on_c, 0, 68, 0
3, 13824, Note_on_c, 0, 64, 45
3, 13824, Note_on_c, 0, 68, 45
3, 13824, Note_on_c, 0, 71, 45
3, 13856, Note_on_c, 0, 64, 0
3, 13856, Note_on_c, 0, 68, 0
3, 13856, Note_on_c, 0, 71, 0
3, 13920, Note_on_c, 0, 68, 45
3, 13920, Note_on_c, 0, 71, 45
3, 13920, Note_on_c, 0, 76, 45
3, 13952, Note_on_c, 0, 68, 0
3, 13952, Note_on_c, 0, 71, 0
3, 13952, Note_on_c, 0, 76, 0
3, 14016, Note_on_c, 0, 71, 45
3, 14016, Note_on_c, 0, 76, 45
3, 14016, Note_on_c, 0, 80, 45
3, 14048, Note_on_c, 0, 71, 0
3, 14048, Note_on_c, 0, 76, 0
3, 14048, Note_on_c, 0, 80, 0
3, 14112, Note_on_c, 0, 68, 45
3, 14112, Note_on_c, 0, 71, 45
3, 14112, Note_on_c, 0, 76, 45
3, 14144, Note_on_c, 0, 68, 0
3, 14144, Note_on_c, 0, 71, 0
3, 14144, Note_on_c, 0, 76, 0
3, 14208, Note_on_c, 0, 67, 45
3, 14208, Note_on_c, 0, 70, 45
3, 14302, Note_on_c, 0, 67, 0
3, 14302, Note_on_c, 0, 70, 0
3, 14304, Note_on_c, 0, 67, 45
3, 14304, Note_on_c, 0, 70, 45
3, 14398, Note_on_c, 0, 67, 0
3, 14398, Note_on_c, 0, 70, 0
3, 14400, Note_on_c, 0, 67, 45
3, 14400, Note_on_c, 0, 70, 45
3, 14494, Note_on_c, 0, 67, 0
3, 14494, Note_on_c, 0, 70, 0
3, 14496, Note_on_c, 0, 67, 45
3, 14496, Note_on_c, 0, 70, 45
3, 14590, Note_on_c, 0, 67, 0
3, 14590, Note_on_c, 0, 70, 0
3, 14592, Note_on_c, 0, 67, 45
3, 14592, Note_on_c, 0, 73, 45
3, 14686, Note_on_c, 0, 67, 0
3, 14686, Note_on_c, 0, 73, 0
3, 14688, Note_on_c, 0, 67, 45
3, 14688, Note_on_c, 0, 73, 45
3, 14782, Note_on_c, 0, 67, 0
3, 14782, Note_on_c, 0, 73, 0
3, 14784, Note_on_c, 0, 67, 45
3, 14784, Note_on_c, 0, 70, 45
3, 14878, Note_on_c, 0, 67, 0
3, 14878, Note_on_c, 0, 70, 0
3, 14880, Note_on_c, 0, 68, 45
3, 14880, Note_on_c, 0, 75, 45
3, 14974, Note_on_c, 0, 68, 0
3, 14974, Note_on_c, 0, 75, 0
3, 14976, Note_on_c, 0, 68, 45
3, 14976, Note_on_c, 0, 75, 45
3, 15070, Note_on_c, 0, 68, 0
3, 15070, Note_on_c, 0, 75, 0
3, 15072, Note_on_c, 0, 68, 45
3, 15072, Note_on_c, 0, 71, 45
3, 15072, Note_on_c, 0, 75, 45
3, 15166, Note_on_c, 0, 68, 0
3, 15166, Note_on_c, 0, 71, 0
3, 15166, Note_on_c, 0, 75, 0
3, 15168, Note_on_c, 0, 68, 45
3, 15168, Note_on_c, 0, 71, 45
3, 15168, Note_on_c, 0, 75, 45
3, 15262, Note_on_c, 0, 68, 0
3, 15262, Note_on_c, 0, 71, 0
3, 15262, Note_on_c, 0, 75, 0
3, 15264, Note_on_c, 0, 68, 45
3, 15264, Note_on_c, 0, 71, 45
3, 15264, Note_on_c, 0, 75, 45
3, 15358, Note_on_c, 0, 68, 0
3, 15358, Note_on_c, 0, 71, 0
3, 15358, Note_on_c, 0, 75, 0
3, 15360, Note_on_c, 0, 69, 45
3, 15360, Note_on_c, 0, 72, 45
3, 15454, Note_on_c, 0, 69, 0
3, 15454, Note_on_c, 0, 72, 0
3, 15456, Note_on_c, 0, 69, 45
3, 15456, Note_on_c, 0, 72, 45
3, 15550, Note_on_c, 0, 69, 0
3, 15550, Note_on_c, 0, 72, 0
3, 15552, Note_on_c, 0, 69, 45
3, 15552, Note_on_c, 0, 75, 45
3, 15646, Note_on_c, 0, 69, 0
3, 15646, Note_on_c, 0, 75, 0
3, 15648, Note_on_c, 0, 69, 45
3, 15648, Note_on_c, 0, 75, 45
3, 15742, Note_on_c, 0, 69, 0
3, 15742, Note_on_c, 0, 75, 0
3, 15744, Note_on_c, 0, 69, 45
3, 15744, Note_on_c, 0, 75, 45
3, 15838, Note_on_c, 0, 69, 0
3, 15838, Note_on_c, 0, 75, 0
3, 15840, Note_on_c, 0, 69, 45
3, 15840, Note_on_c, 0, 75, 45
3, 15934, Note_on_c, 0, 69, 0
3, 15934, Note_on_c, 0, 75, 0
3, 15936, Note_on_c, 0, 68, 45
3, 15936, Note_on_c, 0, 71, 45
3, 16030, Note_on_c, 0, 68, 0
3, 16030, Note_on_c, 0, 71, 0
3, 16032, Note_on_c, 0, 68, 45
3, 16032, Note_on_c, 0, 71, 45
3, 16126, Note_on_c, 0, 68, 0
3, 16126, Note_on_c, 0, 71, 0
3, 16128, Note_on_c, 0, 68, 45
3, 16128, Note_on_c, 0, 70, 45
3, 16128, Note_on_c, 0, 77, 45
3, 16222, Note_on_c, 0, 68, 0
3, 16222, Note_on_c, 0, 70, 0
3, 16222, Note_on_c, 0, 77, 0
3, 16224, Note_on_c, 0, 68, 45
3, 16224, Note_on_c, 0, 70, 45
3, 16224, Note_on_c, 0, 77, 45
3, 16318, Note_on_c, 0, 68, 0
3, 16318, Note_on_c, 0, 70, 0
3, 16318, Note_on_c, 0, 77, 0
3, 16320, Note_on_c, 0, 68, 45
3, 16320, Note_on_c, 0, 70, 45
3, 16320, Note_on_c, 0, 77, 45
3, 16414, Note_on_c, 0, 68, 0
3, 16414, Note_on_c, 0, 70, 0
3, 16414, Note_on_c, 0, 77, 0
3, 16416, Note_on_c, 0, 68, 45
3, 16416, Note_on_c, 0, 70, 45
3, 16416, Note_on_c, 0, 77, 45
3, 16510, Note_on_c, 0, 68, 0
3, 16510, Note_on_c, 0, 70, 0
3, 16510, Note_on_c, 0, 77, 0
3, 16512, Note_on_c, 0, 68, 45
3, 16512, Note_on_c, 0, 74, 45
3, 16606, Note_on_c, 0, 68, 0
3, 16606, Note_on_c, 0, 74, 0
3, 16608, Note_on_c, 0, 68, 50
3, 16608, Note_on_c, 0, 74, 50
3, 16702, Note_on_c, 0, 68, 0
3, 16702, Note_on_c, 0, 74, 0
3, 16704, Note_on_c, 0, 69, 55
3, 16704, Note_on_c, 0, 75, 55
3, 16798, Note_on_c, 0, 69, 0
3, 16798, Note_on_c, 0, 75, 0
3, 16800, Note_on_c, 0, 69, 60
3, 16800, Note_on_c, 0, 75, 60
3, 16894, Note_on_c, 0, 69, 0
3, 16894, Note_on_c, 0, 75, 0
3, 16896, Note_on_c, 0, 69, 65
3, 16896, Note_on_c, 0, 75, 65
3, 16990, Note_on_c, 0, 69, 0
3, 16990, Note_on_c, 0, 75, 0
3, 16992, Note_on_c, 0, 69, 70
3, 16992, Note_on_c, 0, 75, 70
3, 17086, Note_on_c, 0, 69, 0
3, 17086, Note_on_c, 0, 75, 0
3, 17088, Note_on_c, 0, 68, 75
3, 17088, Note_on_c, 0, 76, 75
3, 17182, Note_on_c, 0, 68, 0
3, 17182, Note_on_c, 0, 76, 0
3, 17184, Note_on_c, 0, 68, 80
3, 17184, Note_on_c, 0, 76, 80
3, 17278, Note_on_c, 0, 68, 0
3, 17278, Note_on_c, 0, 76, 0
3, 17280, Note_on_c, 0, 69, 85
3, 17280, Note_on_c, 0, 75, 85
3, 17374, Note_on_c, 0, 69, 0
3, 17374, Note_on_c, 0, 75, 0
3, 17376, Note_on_c, 0, 69, 90
3, 17376, Note_on_c, 0, 75, 90
3, 17470, Note_on_c, 0, 69, 0
3, 17470, Note_on_c, 0, 75, 0
3, 17472, Note_on_c, 0, 69, 96
3, 17472, Note_on_c, 0, 75, 96
3, 17566, Note_on_c, 0, 69, 0
3, 17566, Note_on_c, 0, 75, 0
3, 17568, Note_on_c, 0, 69, 102
3, 17568, Note_on_c, 0, 75, 102
3, 17662, Note_on_c, 0, 69, 0
3, 17662, Note_on_c, 0, 75, 0
3, 17664, Note_on_c, 0, 70, 108
3, 17664, Note_on_c, 0, 75, 108
3, 17824, Note_on_c, 0, 70, 0
3, 17824, Note_on_c, 0, 75, 0
3, 17856, Note_on_c, 0, 70, 108
3, 17856, Note_on_c, 0, 75, 108
3, 18016, Note_on_c, 0, 70, 0
3, 18016, Note_on_c, 0, 75, 0
3, 18048, Note_on_c, 0, 67, 108
3, 18048, Note_on_c, 0, 70, 108
3, 18208, Note_on_c, 0, 67, 0
3, 18208, Note_on_c, 0, 70, 0
3, 18240, Note_on_c, 0, 67, 89
3, 18240, Note_on_c, 0, 70, 89
3, 18400, Note_on_c, 0, 67, 0
3, 18400, Note_on_c, 0, 70, 0
3, 18432, Note_on_c, 0, 68, 70
3, 18432, Note_on_c, 0, 70, 70
3, 18592, Note_on_c, 0, 68, 0
3, 18592, Note_on_c, 0, 70, 0
3, 18624, Note_on_c, 0, 62, 50
3, 18624, Note_on_c, 0, 68, 50
3, 18784, Note_on_c, 0, 62, 0
3, 18784, Note_on_c, 0, 68, 0
3, 18816, Note_on_c, 0, 63, 30
3, 18816, Note_on_c, 0, 67, 30
3, 18910, Note_on_c, 0, 63, 0
3, 18910, Note_on_c, 0, 67, 0
3, 18912, Note_on_c, 0, 63, 30
3, 19006, Note_on_c, 0, 63, 0
3, 19008, Note_on_c, 0, 63, 30
3, 19102, Note_on_c, 0, 63, 0
3, 19104, Note_on_c, 0, 63, 30
3, 19198, Note_on_c, 0, 63, 0
3, 19488, Note_on_c, 0, 63, 30
3, 19488, Note_on_c, 0, 66, 30
3, 19582, Note_on_c, 0, 63, 0
3, 19582, Note_on_c, 0, 66, 0
3, 19584, Note_on_c, 0, 63, 30
3, 19584, Note_on_c, 0, 66, 30
3, 19678, Note_on_c, 0, 63, 0
3, 19678, Note_on_c, 0, 66, 0
3, 19680, Note_on_c, 0, 63, 30
3, 19680, Note_on_c, 0, 66, 30
3, 19774, Note_on_c, 0, 63, 0
3, 19774, Note_on_c, 0, 66, 0
3, 19872, Note_on_c, 0, 66, 30
3, 19872, Note_on_c, 0, 71, 30
3, 19966, Note_on_c, 0, 66, 0
3, 19966, Note_on_c, 0, 71, 0
3, 20064, Note_on_c, 0, 66, 30
3, 20064, Note_on_c, 0, 71, 30
3, 20064, Note_on_c, 0, 75, 30
3, 20158, Note_on_c, 0, 66, 0
3, 20158, Note_on_c, 0, 71, 0
3, 20158, Note_on_c, 0, 75, 0
3, 20160, Note_on_c, 0, 66, 30
3, 20160, Note_on_c, 0, 71, 30
3, 20160, Note_on_c, 0, 75, 30
3, 20254, Note_on_c, 0, 66, 0
3, 20254, Note_on_c, 0, 71, 0
3, 20254, Note_on_c, 0, 75, 0
3, 20256, Note_on_c, 0, 66, 30
3, 20256, Note_on_c, 0, 71, 30
3, 20256, Note_on_c, 0, 75, 30
3, 20446, Note_on_c, 0, 66, 0
3, 20446, Note_on_c, 0, 71, 0
3, 20446, Note_on_c, 0, 75, 0
3, 20448, Note_on_c, 0, 66, 30
3, 20448, Note_on_c, 0, 71, 30
3, 20448, Note_on_c, 0, 75, 30
3, 20638, Note_on_c, 0, 66, 0
3, 20638, Note_on_c, 0, 71, 0
3, 20638, Note_on_c, 0, 75, 0
3, 20640, Note_on_c, 0, 66, 30
3, 20640, Note_on_c, 0, 71, 30
3, 20640, Note_on_c, 0, 75, 30
3, 20734, Note_on_c, 0, 66, 0
3, 20734, Note_on_c, 0, 71, 0
3, 20734, Note_on_c, 0, 75, 0
3, 20736, Note_on_c, 0, 66, 30
3, 20736, Note_on_c, 0, 71, 30
3, 20736, Note_on_c, 0, 75, 30
3, 20830, Note_on_c, 0, 66, 0
3, 20830, Note_on_c, 0, 71, 0
3, 20830, Note_on_c, 0, 75, 0
3, 20832, Note_on_c, 0, 66, 30
3, 20832, Note_on_c, 0, 71, 30
3, 20832, Note_on_c, 0, 75, 30
3, 20926, Note_on_c, 0, 75, 0
3, 21022, Note_on_c, 0, 66, 0
3, 21022, Note_on_c, 0, 71, 0
3, 21024, Note_on_c, 0, 66, 30
3, 21024, Note_on_c, 0, 71, 30
3, 21118, Note_on_c, 0, 66, 0
3, 21120, Note_on_c, 0, 64, 30
3, 21120, Note_on_c, 0, 67, 30
3, 21214, Note_on_c, 0, 64, 0
3, 21214, Note_on_c, 0, 67, 0
3, 21214, Note_on_c, 0, 71, 0
3, 21216, Note_on_c, 0, 64, 30
3, 21216, Note_on_c, 0, 67, 30
3, 21216, Note_on_c, 0, 71, 30
3, 21310, Note_on_c, 0, 64, 0
3, 21310, Note_on_c, 0, 67, 0
3, 21310, Note_on_c, 0, 71, 0
3, 21312, Note_on_c, 0, 64, 30
3, 21312, Note_on_c, 0, 67, 30
3, 21312, Note_on_c, 0, 71, 30
3, 21406, Note_on_c, 0, 64, 0
3, 21406, Note_on_c, 0, 67, 0
3, 21406, Note_on_c, 0, 71, 0
3, 21408, Note_on_c, 0, 64, 30
3, 21408, Note_on_c, 0, 67, 30
3, 21408, Note_on_c, 0, 71, 30
3, 21598, Note_on_c, 0, 64, 0
3, 21598, Note_on_c, 0, 67, 0
3, 21600, Note_on_c, 0, 64, 30
3, 21600, Note_on_c, 0, 67, 30
3, 21694, Note_on_c, 0, 64, 0
3, 21694, Note_on_c, 0, 67, 0
3, 21790, Note_on_c, 0, 71, 0
3, 21792, Note_on_c, 0, 63, 30
3, 21792, Note_on_c, 0, 66, 30
3, 21886, Note_on_c, 0, 63, 0
3, 21886, Note_on_c, 0, 66, 0
3, 21888, Note_on_c, 0, 63, 30
3, 21888, Note_on_c, 0, 66, 30
3, 21982, Note_on_c, 0, 63, 0
3, 21982, Note_on_c, 0, 66, 0
3, 21984, Note_on_c, 0, 63, 30
3, 21984, Note_on_c, 0, 66, 30
3, 22078, Note_on_c, 0, 63, 0
3, 22078, Note_on_c, 0, 66, 0
3, 22176, Note_on_c, 0, 66, 30
3, 22176, Note_on_c, 0, 71, 30
3, 22270, Note_on_c, 0, 66, 0
3, 22270, Note_on_c, 0, 71, 0
3, 22272, Note_on_c, 0, 66, 30
3, 22272, Note_on_c, 0, 71, 30
3, 22366, Note_on_c, 0, 66, 0
3, 22366, Note_on_c, 0, 71, 0
3, 22368, Note_on_c, 0, 66, 30
3, 22368, Note_on_c, 0, 71, 30
3, 22368, Note_on_c, 0, 75, 30
3, 22462, Note_on_c, 0, 66, 0
3, 22462, Note_on_c, 0, 71, 0
3, 22462, Note_on_c, 0, 75, 0
3, 22464, Note_on_c, 0, 66, 30
3, 22464, Note_on_c, 0, 71, 30
3, 22464, Note_on_c, 0, 75, 30
3, 22558, Note_on_c, 0, 66, 0
3, 22558, Note_on_c, 0, 71, 0
3, 22558, Note_on_c, 0, 75, 0
3, 22560, Note_on_c, 0, 66, 30
3, 22560, Note_on_c, 0, 71, 30
3, 22560, Note_on_c, 0, 75, 30
3, 22750, Note_on_c, 0, 66, 0
3, 22750, Note_on_c, 0, 71, 0
3, 22750, Note_on_c, 0, 75, 0
3, 22752, Note_on_c, 0, 66, 30
3, 22752, Note_on_c, 0, 71, 30
3, 22752, Note_on_c, 0, 75, 30
3, 22846, Note_on_c, 0, 66, 0
3, 22846, Note_on_c, 0, 71, 0
3, 22846, Note_on_c, 0, 75, 0
3, 22848, Note_on_c, 0, 66, 30
3, 22856, Note_on_c, 0, 71, 30
3, 22864, Note_on_c, 0, 75, 30
3, 22942, Note_on_c, 0, 66, 0
3, 22942, Note_on_c, 0, 71, 0
3, 22942, Note_on_c, 0, 75, 0
3, 22944, Note_on_c, 0, 66, 30
3, 22944, Note_on_c, 0, 71, 30
3, 22944, Note_on_c, 0, 75, 30
3, 23136, Note_on_c, 0, 66, 0
3, 23136, Note_on_c, 0, 71, 0
3, 23136, Note_on_c, 0, 75, 0
3, 23136, Note_on_c, 0, 66, 30
3, 23136, Note_on_c, 0, 71, 30
3, 23136, Note_on_c, 0, 75, 30
3, 23328, Note_on_c, 0, 66, 0
3, 23328, Note_on_c, 0, 71, 0
3, 23328, Note_on_c, 0, 75, 0
3, 23328, Note_on_c, 0, 66, 30
3, 23328, Note_on_c, 0, 71, 30
3, 23328, Note_on_c, 0, 75, 30
3, 23424, Note_on_c, 0, 66, 0
3, 23424, Note_on_c, 0, 71, 0
3, 23424, Note_on_c, 0, 75, 0
3, 23424, Note_on_c, 0, 66, 30
3, 23424, Note_on_c, 0, 71, 30
3, 23424, Note_on_c, 0, 75, 30
3, 23806, Note_on_c, 0, 66, 0
3, 23806, Note_on_c, 0, 71, 0
3, 23806, Note_on_c, 0, 75, 0
3, 23904, Note_on_c, 0, 66, 30
3, 23904, Note_on_c, 0, 71, 30
3, 23998, Note_on_c, 0, 66, 0
3, 23998, Note_on_c, 0, 71, 0
3, 24000, Note_on_c, 0, 64, 30
3, 24000, Note_on_c, 0, 71, 30
3, 24094, Note_on_c, 0, 64, 0
3, 24094, Note_on_c, 0, 71, 0
3, 24096, Note_on_c, 0, 64, 30
3, 24096, Note_on_c, 0, 71, 30
3, 24190, Note_on_c, 0, 64, 0
3, 24190, Note_on_c, 0, 71, 0
3, 24192, Note_on_c, 0, 64, 30
3, 24192, Note_on_c, 0, 71, 30
3, 24286, Note_on_c, 0, 64, 0
3, 24286, Note_on_c, 0, 71, 0
3, 24288, Note_on_c, 0, 64, 30
3, 24288, Note_on_c, 0, 71, 30
3, 24382, Note_on_c, 0, 64, 0
3, 24382, Note_on_c, 0, 71, 0
3, 24384, Note_on_c, 0, 64, 30
3, 24384, Note_on_c, 0, 71, 30
3, 24478, Note_on_c, 0, 64, 0
3, 24478, Note_on_c, 0, 71, 0
3, 24480, Note_on_c, 0, 64, 30
3, 24480, Note_on_c, 0, 71, 30
3, 24574, Note_on_c, 0, 64, 0
3, 24574, Note_on_c, 0, 71, 0
3, 24576, Note_on_c, 0, 64, 30
3, 24576, Note_on_c, 0, 69, 30
3, 24670, Note_on_c, 0, 64, 0
3, 24670, Note_on_c, 0, 69, 0
3, 24672, Note_on_c, 0, 64, 30
3, 24672, Note_on_c, 0, 69, 30
3, 24766, Note_on_c, 0, 64, 0
3, 24766, Note_on_c, 0, 69, 0
3, 24768, Note_on_c, 0, 64, 30
3, 24768, Note_on_c, 0, 68, 30
3, 24862, Note_on_c, 0, 64, 0
3, 24862, Note_on_c, 0, 68, 0
3, 24864, Note_on_c, 0, 64, 30
3, 24864, Note_on_c, 0, 68, 30
3, 24958, Note_on_c, 0, 64, 0
3, 24958, Note_on_c, 0, 68, 0
3, 24960, Note_on_c, 0, 64, 30
3, 24960, Note_on_c, 0, 69, 30
3, 25054, Note_on_c, 0, 64, 0
3, 25054, Note_on_c, 0, 69, 0
3, 25056, Note_on_c, 0, 64, 30
3, 25056, Note_on_c, 0, 69, 30
3, 25150, Note_on_c, 0, 64, 0
3, 25150, Note_on_c, 0, 69, 0
3, 25152, Note_on_c, 0, 64, 30
3, 25152, Note_on_c, 0, 67, 30
3, 25246, Note_on_c, 0, 64, 0
3, 25246, Note_on_c, 0, 67, 0
3, 25248, Note_on_c, 0, 64, 30
3, 25248, Note_on_c, 0, 67, 30
3, 25342, Note_on_c, 0, 64, 0
3, 25342, Note_on_c, 0, 67, 0
3, 25344, Note_on_c, 0, 60, 30
3, 25344, Note_on_c, 0, 65, 30
3, 25504, Note_on_c, 0, 60, 0
3, 25504, Note_on_c, 0, 65, 0
3, 26400, Note_on_c, 0, 64, 45
3, 26400, Note_on_c, 0, 68, 45
3, 26494, Note_on_c, 0, 64, 0
3, 26494, Note_on_c, 0, 68, 0
3, 26496, Note_on_c, 0, 64, 45
3, 26496, Note_on_c, 0, 68, 45
3, 26590, Note_on_c, 0, 64, 0
3, 26590, Note_on_c, 0, 68, 0
3, 26592, Note_on_c, 0, 64, 45
3, 26592, Note_on_c, 0, 68, 45
3, 26686, Note_on_c, 0, 64, 0
3, 26686, Note_on_c, 0, 68, 0
3, 26688, Note_on_c, 0, 64, 45
3, 26688, Note_on_c, 0, 68, 45
3, 26782, Note_on_c, 0, 64, 0
3, 26782, Note_on_c, 0, 68, 0
3, 26784, Note_on_c, 0, 64, 45
3, 26784, Note_on_c, 0, 68, 45
3, 26878, Note_on_c, 0, 64, 0
3, 26878, Note_on_c, 0, 68, 0
3, 26976, Note_on_c, 0, 64, 45
3, 26976, Note_on_c, 0, 68, 45
3, 27070, Note_on_c, 0, 64, 0
3, 27070, Note_on_c, 0, 68, 0
3, 27072, Note_on_c, 0, 64, 45
3, 27072, Note_on_c, 0, 68, 45
3, 27166, Note_on_c, 0, 64, 0
3, 27166, Note_on_c, 0, 68, 0
3, 27168, Note_on_c, 0, 64, 45
3, 27168, Note_on_c, 0, 68, 45
3, 27262, Note_on_c, 0, 64, 0
3, 27262, Note_on_c, 0, 68, 0
3, 27264, Note_on_c, 0, 64, 45
3, 27264, Note_on_c, 0, 68, 45
3, 27358, Note_on_c, 0, 64, 0
3, 27358, Note_on_c, 0, 68, 0
3, 27360, Note_on_c, 0, 64, 45
3, 27360, Note_on_c, 0, 68, 45
3, 27454, Note_on_c, 0, 64, 0
3, 27454, Note_on_c, 0, 68, 0
3, 27456, Note_on_c, 0, 59, 45
3, 27456, Note_on_c, 0, 64, 45
3, 27550, Note_on_c, 0, 59, 0
3, 27550, Note_on_c, 0, 64, 0
3, 27552, Note_on_c, 0, 59, 45
3, 27552, Note_on_c, 0, 64, 45
3, 27646, Note_on_c, 0, 59, 0
3, 27646, Note_on_c, 0, 64, 0
3, 27648, Note_on_c, 0, 59, 45
3, 27648, Note_on_c, 0, 64, 45
3, 27742, Note_on_c, 0, 59, 0
3, 27742, Note_on_c, 0, 64, 0
3, 27744, Note_on_c, 0, 59, 45
3, 27744, Note_on_c, 0, 64, 45
3, 27838, Note_on_c, 0, 59, 0
3, 27838, Note_on_c, 0, 64, 0
3, 27840, Note_on_c, 0, 59, 45
3, 27840, Note_on_c, 0, 63, 45
3, 27840, Note_on_c, 0, 69, 45
3, 27934, Note_on_c, 0, 59, 0
3, 27934, Note_on_c, 0, 63, 0
3, 27934, Note_on_c, 0, 69, 0
3, 27936, Note_on_c, 0, 59, 45
3, 27936, Note_on_c, 0, 63, 45
3, 27936, Note_on_c, 0, 69, 45
3, 28030, Note_on_c, 0, 59, 0
3, 28030, Note_on_c, 0, 63, 0
3, 28030, Note_on_c, 0, 69, 0
3, 28032, Note_on_c, 0, 59, 45
3, 28032, Note_on_c, 0, 64, 45
3, 28032, Note_on_c, 0, 68, 45
3, 28126, Note_on_c, 0, 59, 0
3, 28126, Note_on_c, 0, 64, 0
3, 28126, Note_on_c, 0, 68, 0
3, 28128, Note_on_c, 0, 59, 47
3, 28128, Note_on_c, 0, 64, 47
3, 28128, Note_on_c, 0, 68, 47
3, 28222, Note_on_c, 0, 59, 0
3, 28222, Note_on_c, 0, 64, 0
3, 28222, Note_on_c, 0, 68, 0
3, 28224, Note_on_c, 0, 59, 49
3, 28224, Note_on_c, 0, 64, 49
3, 28224, Note_on_c, 0, 68, 49
3, 28318, Note_on_c, 0, 59, 0
3, 28318, Note_on_c, 0, 64, 0
3, 28318, Note_on_c, 0, 68, 0
3, 28320, Note_on_c, 0, 59, 51
3, 28320, Note_on_c, 0, 64, 51
3, 28320, Note_on_c, 0, 68, 51
3, 28414, Note_on_c, 0, 59, 0
3, 28414, Note_on_c, 0, 64, 0
3, 28414, Note_on_c, 0, 68, 0
3, 28416, Note_on_c, 0, 60, 54
3, 28416, Note_on_c, 0, 66, 54
3, 28416, Note_on_c, 0, 68, 54
3, 28510, Note_on_c, 0, 60, 0
3, 28510, Note_on_c, 0, 66, 0
3, 28510, Note_on_c, 0, 68, 0
3, 28512, Note_on_c, 0, 60, 57
3, 28512, Note_on_c, 0, 66, 57
3, 28512, Note_on_c, 0, 68, 57
3, 28606, Note_on_c, 0, 60, 0
3, 28606, Note_on_c, 0, 66, 0
3, 28606, Note_on_c, 0, 68, 0
3, 28704, Note_on_c, 0, 68, 45
3, 28704, Note_on_c, 0, 73, 45
3, 28798, Note_on_c, 0, 68, 0
3, 28798, Note_on_c, 0, 73, 0
3, 28800, Note_on_c, 0, 68, 45
3, 28800, Note_on_c, 0, 73, 45
3, 28894, Note_on_c, 0, 68, 0
3, 28894, Note_on_c, 0, 73, 0
3, 28896, Note_on_c, 0, 68, 45
3, 28896, Note_on_c, 0, 73, 45
3, 28990, Note_on_c, 0, 68, 0
3, 28990, Note_on_c, 0, 73, 0
3, 28992, Note_on_c, 0, 68, 45
3, 28992, Note_on_c, 0, 73, 45
3, 29086, Note_on_c, 0, 68, 0
3, 29086, Note_on_c, 0, 73, 0
3, 29088, Note_on_c, 0, 68, 45
3, 29088, Note_on_c, 0, 73, 45
3, 29182, Note_on_c, 0, 68, 0
3, 29182, Note_on_c, 0, 73, 0
3, 29184, Note_on_c, 0, 64, 45
3, 29184, Note_on_c, 0, 69, 45
3, 29278, Note_on_c, 0, 64, 0
3, 29278, Note_on_c, 0, 69, 0
3, 29280, Note_on_c, 0, 64, 45
3, 29280, Note_on_c, 0, 69, 45
3, 29374, Note_on_c, 0, 64, 0
3, 29374, Note_on_c, 0, 69, 0
3, 29376, Note_on_c, 0, 64, 45
3, 29376, Note_on_c, 0, 69, 45
3, 29470, Note_on_c, 0, 64, 0
3, 29470, Note_on_c, 0, 69, 0
3, 29472, Note_on_c, 0, 64, 45
3, 29472, Note_on_c, 0, 69, 45
3, 29566, Note_on_c, 0, 64, 0
3, 29566, Note_on_c, 0, 69, 0
3, 29568, Note_on_c, 0, 64, 45
3, 29568, Note_on_c, 0, 69, 45
3, 29662, Note_on_c, 0, 64, 0
3, 29662, Note_on_c, 0, 69, 0
3, 29664, Note_on_c, 0, 64, 45
3, 29664, Note_on_c, 0, 69, 45
3, 29758, Note_on_c, 0, 64, 0
3, 29758, Note_on_c, 0, 69, 0
3, 29760, Note_on_c, 0, 63, 45
3, 29760, Note_on_c, 0, 66, 45
3, 29854, Note_on_c, 0, 63, 0
3, 29854, Note_on_c, 0, 66, 0
3, 29856, Note_on_c, 0, 63, 45
3, 29856, Note_on_c, 0, 66, 45
3, 29950, Note_on_c, 0, 63, 0
3, 29950, Note_on_c, 0, 66, 0
3, 29952, Note_on_c, 0, 63, 45
3, 29952, Note_on_c, 0, 66, 45
3, 30046, Note_on_c, 0, 63, 0
3, 30046, Note_on_c, 0, 66, 0
3, 30048, Note_on_c, 0, 63, 45
3, 30048, Note_on_c, 0, 66, 45
3, 30142, Note_on_c, 0, 63, 0
3, 30142, Note_on_c, 0, 66, 0
3, 30144, Note_on_c, 0, 63, 45
3, 30144, Note_on_c, 0, 66, 45
3, 30238, Note_on_c, 0, 63, 0
3, 30238, Note_on_c, 0, 66, 0
3, 30240, Note_on_c, 0, 63, 45
3, 30240, Note_on_c, 0, 66, 45
3, 30334, Note_on_c, 0, 63, 0
3, 30334, Note_on_c, 0, 66, 0
3, 30336, Note_on_c, 0, 63, 45
3, 30336, Note_on_c, 0, 66, 45
3, 30430, Note_on_c, 0, 63, 0
3, 30430, Note_on_c, 0, 66, 0
3, 30432, Note_on_c, 0, 63, 45
3, 30432, Note_on_c, 0, 66, 45
3, 30526, Note_on_c, 0, 63, 0
3, 30526, Note_on_c, 0, 66, 0
3, 30528, Note_on_c, 0, 63, 45
3, 30528, Note_on_c, 0, 66, 45
3, 30622, Note_on_c, 0, 63, 0
3, 30622, Note_on_c, 0, 66, 0
3, 30624, Note_on_c, 0, 63, 45
3, 30624, Note_on_c, 0, 66, 45
3, 30718, Note_on_c, 0, 63, 0
3, 30718, Note_on_c, 0, 66, 0
3, 30720, Note_on_c, 0, 60, 45
3, 30720, Note_on_c, 0, 66, 45
3, 30814, Note_on_c, 0, 60, 0
3, 30814, Note_on_c, 0, 66, 0
3, 30816, Note_on_c, 0, 60, 45
3, 30816, Note_on_c, 0, 66, 45
3, 30910, Note_on_c, 0, 60, 0
3, 30910, Note_on_c, 0, 66, 0
3, 31008, Note_on_c, 0, 61, 45
3, 31102, Note_on_c, 0, 61, 0
3, 31104, Note_on_c, 0, 61, 45
3, 31104, Note_on_c, 0, 64, 45
3, 31198, Note_on_c, 0, 61, 0
3, 31198, Note_on_c, 0, 64, 0
3, 31200, Note_on_c, 0, 61, 45
3, 31200, Note_on_c, 0, 64, 45
3, 31294, Note_on_c, 0, 61, 0
3, 31294, Note_on_c, 0, 64, 0
3, 31296, Note_on_c, 0, 61, 45
3, 31296, Note_on_c, 0, 64, 45
3, 31390, Note_on_c, 0, 61, 0
3, 31390, Note_on_c, 0, 64, 0
3, 31392, Note_on_c, 0, 61, 45
3, 31392, Note_on_c, 0, 64, 45
3, 31486, Note_on_c, 0, 61, 0
3, 31486, Note_on_c, 0, 64, 0
3, 31488, Note_on_c, 0, 61, 45
3, 31488, Note_on_c, 0, 64, 45
3, 31582, Note_on_c, 0, 61, 0
3, 31582, Note_on_c, 0, 64, 0
3, 31584, Note_on_c, 0, 61, 45
3, 31584, Note_on_c, 0, 64, 45
3, 31678, Note_on_c, 0, 61, 0
3, 31678, Note_on_c, 0, 64, 0
3, 31680, Note_on_c, 0, 61, 45
3, 31680, Note_on_c, 0, 64, 45
3, 31774, Note_on_c, 0, 61, 0
3, 31774, Note_on_c, 0, 64, 0
3, 31776, Note_on_c, 0, 61, 45
3, 31776, Note_on_c, 0, 64, 45
3, 31870, Note_on_c, 0, 61, 0
3, 31870, Note_on_c, 0, 64, 0
3, 31872, Note_on_c, 0, 61, 45
3, 31872, Note_on_c, 0, 64, 45
3, 31966, Note_on_c, 0, 61, 0
3, 31966, Note_on_c, 0, 64, 0
3, 31968, Note_on_c, 0, 61, 45
3, 31968, Note_on_c, 0, 64, 45
3, 32062, Note_on_c, 0, 61, 0
3, 32062, Note_on_c, 0, 64, 0
3, 32064, Note_on_c, 0, 61, 45
3, 32064, Note_on_c, 0, 63, 45
3, 32158, Note_on_c, 0, 61, 0
3, 32158, Note_on_c, 0, 63, 0
3, 32160, Note_on_c, 0, 61, 45
3, 32160, Note_on_c, 0, 63, 45
3, 32254, Note_on_c, 0, 61, 0
3, 32254, Note_on_c, 0, 63, 0
3, 32256, Note_on_c, 0, 57, 45
3, 32256, Note_on_c, 0, 63, 45
3, 32350, Note_on_c, 0, 57, 0
3, 32350, Note_on_c, 0, 63, 0
3, 32352, Note_on_c, 0, 56, 45
3, 32352, Note_on_c, 0, 63, 45
3, 32446, Note_on_c, 0, 56, 0
3, 32446, Note_on_c, 0, 63, 0
3, 32448, Note_on_c, 0, 56, 45
3, 32448, Note_on_c, 0, 61, 45
3, 32542, Note_on_c, 0, 56, 0
3, 32542, Note_on_c, 0, 61, 0
3, 32544, Note_on_c, 0, 56, 45
3, 32544, Note_on_c, 0, 61, 45
3, 32638, Note_on_c, 0, 56, 0
3, 32638, Note_on_c, 0, 61, 0
3, 32640, Note_on_c, 0, 56, 45
3, 32640, Note_on_c, 0, 60, 45
3, 32734, Note_on_c, 0, 56, 0
3, 32734, Note_on_c, 0, 60, 0
3, 32736, Note_on_c, 0, 56, 45
3, 32736, Note_on_c, 0, 60, 45
3, 32830, Note_on_c, 0, 56, 0
3, 32830, Note_on_c, 0, 60, 0
3, 32832, Note_on_c, 0, 56, 45
3, 32832, Note_on_c, 0, 68, 45
3, 32926, Note_on_c, 0, 56, 0
3, 32926, Note_on_c, 0, 68, 0
3, 32928, Note_on_c, 0, 56, 45
3, 32928, Note_on_c, 0, 68, 45
3, 33022, Note_on_c, 0, 56, 0
3, 33022, Note_on_c, 0, 68, 0
3, 33024, Note_on_c, 0, 56, 45
3, 33024, Note_on_c, 0, 63, 45
3, 33024, Note_on_c, 0, 66, 45
3, 33024, Note_on_c, 0, 68, 45
3, 33118, Note_on_c, 0, 56, 0
3, 33118, Note_on_c, 0, 63, 0
3, 33118, Note_on_c, 0, 66, 0
3, 33118, Note_on_c, 0, 68, 0
3, 33120, Note_on_c, 0, 63, 45
3, 33120, Note_on_c, 0, 66, 45
3, 33120, Note_on_c, 0, 68, 45
3, 33214, Note_on_c, 0, 63, 0
3, 33214, Note_on_c, 0, 66, 0
3, 33214, Note_on_c, 0, 68, 0
3, 33312, Note_on_c, 0, 68, 45
3, 33312, Note_on_c, 0, 73, 45
3, 33406, Note_on_c, 0, 68, 0
3, 33406, Note_on_c, 0, 73, 0
3, 33408, Note_on_c, 0, 68, 45
3, 33408, Note_on_c, 0, 73, 45
3, 33502, Note_on_c, 0, 68, 0
3, 33502, Note_on_c, 0, 73, 0
3, 33504, Note_on_c, 0, 68, 45
3, 33504, Note_on_c, 0, 73, 45
3, 33598, Note_on_c, 0, 68, 0
3, 33598, Note_on_c, 0, 73, 0
3, 33600, Note_on_c, 0, 68, 45
3, 33600, Note_on_c, 0, 73, 45
3, 33694, Note_on_c, 0, 68, 0
3, 33694, Note_on_c, 0, 73, 0
3, 33696, Note_on_c, 0, 68, 45
3, 33696, Note_on_c, 0, 73, 45
3, 33790, Note_on_c, 0, 68, 0
3, 33790, Note_on_c, 0, 73, 0
3, 33792, Note_on_c, 0, 64, 45
3, 33792, Note_on_c, 0, 69, 45
3, 33886, Note_on_c, 0, 64, 0
3, 33886, Note_on_c, 0, 69, 0
3, 33888, Note_on_c, 0, 64, 45
3, 33888, Note_on_c, 0, 69, 45
3, 33982, Note_on_c, 0, 64, 0
3, 33982, Note_on_c, 0, 69, 0
3, 33984, Note_on_c, 0, 64, 45
3, 33984, Note_on_c, 0, 69, 45
3, 34078, Note_on_c, 0, 64, 0
3, 34078, Note_on_c, 0, 69, 0
3, 34080, Note_on_c, 0, 64, 45
3, 34080, Note_on_c, 0, 69, 45
3, 34174, Note_on_c, 0, 64, 0
3, 34174, Note_on_c, 0, 69, 0
3, 34176, Note_on_c, 0, 64, 45
3, 34176, Note_on_c, 0, 69, 45
3, 34270, Note_on_c, 0, 64, 0
3, 34270, Note_on_c, 0, 69, 0
3, 34272, Note_on_c, 0, 64, 45
3, 34272, Note_on_c, 0, 69, 45
3, 34366, Note_on_c, 0, 64, 0
3, 34366, Note_on_c, 0, 69, 0
3, 34368, Note_on_c, 0, 62, 45
3, 34368, Note_on_c, 0, 65, 45
3, 34462, Note_on_c, 0, 62, 0
3, 34462, Note_on_c, 0, 65, 0
3, 34464, Note_on_c, 0, 62, 45
3, 34464, Note_on_c, 0, 65, 45
3, 34558, Note_on_c, 0, 62, 0
3, 34558, Note_on_c, 0, 65, 0
3, 34560, Note_on_c, 0, 62, 45
3, 34560, Note_on_c, 0, 65, 45
3, 34654, Note_on_c, 0, 62, 0
3, 34654, Note_on_c, 0, 65, 0
3, 34656, Note_on_c, 0, 62, 45
3, 34656, Note_on_c, 0, 65, 45
3, 34750, Note_on_c, 0, 62, 0
3, 34750, Note_on_c, 0, 65, 0
3, 34752, Note_on_c, 0, 62, 45
3, 34752, Note_on_c, 0, 66, 45
3, 34846, Note_on_c, 0, 62, 0
3, 34846, Note_on_c, 0, 66, 0
3, 34848, Note_on_c, 0, 62, 45
3, 34848, Note_on_c, 0, 66, 45
3, 34942, Note_on_c, 0, 62, 0
3, 34942, Note_on_c, 0, 66, 0
3, 34944, Note_on_c, 0, 62, 45
3, 34944, Note_on_c, 0, 68, 45
3, 35038, Note_on_c, 0, 62, 0
3, 35038, Note_on_c, 0, 68, 0
3, 35040, Note_on_c, 0, 62, 45
3, 35040, Note_on_c, 0, 68, 45
3, 35134, Note_on_c, 0, 62, 0
3, 35134, Note_on_c, 0, 68, 0
3, 35136, Note_on_c, 0, 62, 45
3, 35230, Note_on_c, 0, 62, 0
3, 35232, Note_on_c, 0, 62, 45
3, 35326, Note_on_c, 0, 62, 0
3, 35328, Note_on_c, 0, 61, 45
3, 35328, Note_on_c, 0, 68, 45
3, 35422, Note_on_c, 0, 61, 0
3, 35422, Note_on_c, 0, 68, 0
3, 35424, Note_on_c, 0, 61, 45
3, 35424, Note_on_c, 0, 68, 45
3, 35518, Note_on_c, 0, 61, 0
3, 35518, Note_on_c, 0, 68, 0
3, 35520, Note_on_c, 0, 61, 45
3, 35520, Note_on_c, 0, 66, 45
3, 35614, Note_on_c, 0, 61, 0
3, 35614, Note_on_c, 0, 66, 0
3, 35616, Note_on_c, 0, 61, 45
3, 35616, Note_on_c, 0, 66, 45
3, 35710, Note_on_c, 0, 61, 0
3, 35710, Note_on_c, 0, 66, 0
3, 35712, Note_on_c, 0, 61, 45
3, 35712, Note_on_c, 0, 66, 45
3, 35806, Note_on_c, 0, 61, 0
3, 35806, Note_on_c, 0, 66, 0
3, 35808, Note_on_c, 0, 61, 45
3, 35808, Note_on_c, 0, 66, 45
3, 35902, Note_on_c, 0, 61, 0
3, 35902, Note_on_c, 0, 66, 0
3, 35904, Note_on_c, 0, 61, 45
3, 35904, Note_on_c, 0, 66, 45
3, 35998, Note_on_c, 0, 61, 0
3, 35998, Note_on_c, 0, 66, 0
3, 36000, Note_on_c, 0, 61, 45
3, 36000, Note_on_c, 0, 66, 45
3, 36094, Note_on_c, 0, 61, 0
3, 36094, Note_on_c, 0, 66, 0
3, 36096, Note_on_c, 0, 61, 45
3, 36096, Note_on_c, 0, 66, 45
3, 36190, Note_on_c, 0, 61, 0
3, 36190, Note_on_c, 0, 66, 0
3, 36192, Note_on_c, 0, 61, 45
3, 36192, Note_on_c, 0, 66, 45
3, 36286, Note_on_c, 0, 61, 0
3, 36286, Note_on_c, 0, 66, 0
3, 36288, Note_on_c, 0, 61, 45
3, 36288, Note_on_c, 0, 66, 45
3, 36382, Note_on_c, 0, 61, 0
3, 36382, Note_on_c, 0, 66, 0
3, 36384, Note_on_c, 0, 61, 45
3, 36384, Note_on_c, 0, 66, 45
3, 36478, Note_on_c, 0, 61, 0
3, 36478, Note_on_c, 0, 66, 0
3, 36480, Note_on_c, 0, 61, 45
3, 36480, Note_on_c, 0, 66, 45
3, 36574, Note_on_c, 0, 61, 0
3, 36574, Note_on_c, 0, 66, 0
3, 36576, Note_on_c, 0, 61, 45
3, 36576, Note_on_c, 0, 66, 45
3, 36670, Note_on_c, 0, 61, 0
3, 36670, Note_on_c, 0, 66, 0
3, 36672, Note_on_c, 0, 61, 45
3, 36672, Note_on_c, 0, 64, 45
3, 36766, Note_on_c, 0, 61, 0
3, 36766, Note_on_c, 0, 64, 0
3, 36768, Note_on_c, 0, 61, 45
3, 36768, Note_on_c, 0, 64, 45
3, 36862, Note_on_c, 0, 61, 0
3, 36862, Note_on_c, 0, 64, 0
3, 36864, Note_on_c, 0, 61, 45
3, 36864, Note_on_c, 0, 64, 45
3, 36958, Note_on_c, 0, 61, 0
3, 36958, Note_on_c, 0, 64, 0
3, 36960, Note_on_c, 0, 61, 45
3, 36960, Note_on_c, 0, 64, 45
3, 37054, Note_on_c, 0, 61, 0
3, 37054, Note_on_c, 0, 64, 0
3, 37056, Note_on_c, 0, 61, 45
3, 37056, Note_on_c, 0, 64, 45
3, 37150, Note_on_c, 0, 61, 0
3, 37150, Note_on_c, 0, 64, 0
3, 37152, Note_on_c, 0, 61, 45
3, 37152, Note_on_c, 0, 64, 45
3, 37246, Note_on_c, 0, 61, 0
3, 37246, Note_on_c, 0, 64, 0
3, 37248, Note_on_c, 0, 64, 45
3, 37248, Note_on_c, 0, 73, 45
3, 37342, Note_on_c, 0, 64, 0
3, 37342, Note_on_c, 0, 73, 0
3, 37344, Note_on_c, 0, 64, 45
3, 37344, Note_on_c, 0, 73, 45
3, 37438, Note_on_c, 0, 64, 0
3, 37438, Note_on_c, 0, 73, 0
3, 37440, Note_on_c, 0, 64, 45
3, 37440, Note_on_c, 0, 73, 45
3, 37534, Note_on_c, 0, 64, 0
3, 37534, Note_on_c, 0, 73, 0
3, 37536, Note_on_c, 0, 64, 45
3, 37536, Note_on_c, 0, 73, 45
3, 37630, Note_on_c, 0, 64, 0
3, 37630, Note_on_c, 0, 73, 0
3, 37632, Note_on_c, 0, 64, 45
3, 37632, Note_on_c, 0, 73, 45
3, 37726, Note_on_c, 0, 64, 0
3, 37726, Note_on_c, 0, 73, 0
3, 37728, Note_on_c, 0, 64, 45
3, 37728, Note_on_c, 0, 73, 45
3, 37822, Note_on_c, 0, 64, 0
3, 37822, Note_on_c, 0, 73, 0
3, 37824, Note_on_c, 0, 64, 45
3, 37824, Note_on_c, 0, 73, 45
3, 37918, Note_on_c, 0, 64, 0
3, 37918, Note_on_c, 0, 73, 0
3, 37920, Note_on_c, 0, 64, 45
3, 37920, Note_on_c, 0, 73, 45
3, 38014, Note_on_c, 0, 64, 0
3, 38014, Note_on_c, 0, 73, 0
3, 38016, Note_on_c, 0, 61, 45
3, 38016, Note_on_c, 0, 64, 45
3, 38110, Note_on_c, 0, 61, 0
3, 38110, Note_on_c, 0, 64, 0
3, 38112, Note_on_c, 0, 61, 45
3, 38112, Note_on_c, 0, 64, 45
3, 38206, Note_on_c, 0, 61, 0
3, 38206, Note_on_c, 0, 64, 0
3, 38208, Note_on_c, 0, 61, 45
3, 38208, Note_on_c, 0, 68, 45
3, 38302, Note_on_c, 0, 61, 0
3, 38302, Note_on_c, 0, 68, 0
3, 38304, Note_on_c, 0, 61, 45
3, 38304, Note_on_c, 0, 68, 45
3, 38398, Note_on_c, 0, 61, 0
3, 38398, Note_on_c, 0, 68, 0
3, 38400, Note_on_c, 0, 56, 45
3, 38400, Note_on_c, 0, 61, 45
3, 38494, Note_on_c, 0, 56, 0
3, 38494, Note_on_c, 0, 61, 0
3, 38496, Note_on_c, 0, 56, 47
3, 38496, Note_on_c, 0, 61, 47
3, 38590, Note_on_c, 0, 56, 0
3, 38590, Note_on_c, 0, 61, 0
3, 38592, Note_on_c, 0, 56, 49
3, 38592, Note_on_c, 0, 61, 49
3, 38592, Note_on_c, 0, 64, 49
3, 38686, Note_on_c, 0, 56, 0
3, 38686, Note_on_c, 0, 61, 0
3, 38686, Note_on_c, 0, 64, 0
3, 38688, Note_on_c, 0, 56, 51
3, 38688, Note_on_c, 0, 61, 51
3, 38688, Note_on_c, 0, 64, 51
3, 38782, Note_on_c, 0, 56, 0
3, 38782, Note_on_c, 0, 61, 0
3, 38782, Note_on_c, 0, 64, 0
3, 38784, Note_on_c, 0, 56, 54
3, 38784, Note_on_c, 0, 60, 54
3, 38784, Note_on_c, 0, 66, 54
3, 38878, Note_on_c, 0, 56, 0
3, 38878, Note_on_c, 0, 60, 0
3, 38878, Note_on_c, 0, 66, 0
3, 38880, Note_on_c, 0, 56, 57
3, 38880, Note_on_c, 0, 60, 57
3, 38880, Note_on_c, 0, 66, 57
3, 38974, Note_on_c, 0, 56, 0
3, 38974, Note_on_c, 0, 60, 0
3, 38974, Note_on_c, 0, 66, 0
3, 38976, Note_on_c, 0, 56, 60
3, 38976, Note_on_c, 0, 59, 60
3, 38976, Note_on_c, 0, 65, 60
3, 39070, Note_on_c, 0, 56, 0
3, 39070, Note_on_c, 0, 59, 0
3, 39070, Note_on_c, 0, 65, 0
3, 39072, Note_on_c, 0, 56, 60
3, 39072, Note_on_c, 0, 59, 60
3, 39072, Note_on_c, 0, 65, 60
3, 39166, Note_on_c, 0, 56, 0
3, 39166, Note_on_c, 0, 59, 0
3, 39166, Note_on_c, 0, 65, 0
3, 39168, Note_on_c, 0, 54, 60
3, 39168, Note_on_c, 0, 58, 60
3, 39168, Note_on_c, 0, 64, 60
3, 39262, Note_on_c, 0, 54, 0
3, 39262, Note_on_c, 0, 58, 0
3, 39262, Note_on_c, 0, 64, 0
3, 39264, Note_on_c, 0, 54, 57
3, 39264, Note_on_c, 0, 58, 57
3, 39264, Note_on_c, 0, 64, 57
3, 39358, Note_on_c, 0, 54, 0
3, 39358, Note_on_c, 0, 58, 0
3, 39358, Note_on_c, 0, 64, 0
3, 39360, Note_on_c, 0, 54, 53
3, 39360, Note_on_c, 0, 57, 53
3, 39360, Note_on_c, 0, 63, 53
3, 39454, Note_on_c, 0, 54, 0
3, 39454, Note_on_c, 0, 57, 0
3, 39454, Note_on_c, 0, 63, 0
3, 39456, Note_on_c, 0, 54, 49
3, 39456, Note_on_c, 0, 57, 49
3, 39456, Note_on_c, 0, 63, 49
3, 39550, Note_on_c, 0, 54, 0
3, 39550, Note_on_c, 0, 57, 0
3, 39550, Note_on_c, 0, 63, 0
3, 39552, Note_on_c, 0, 52, 45
3, 39552, Note_on_c, 0, 56, 45
3, 39552, Note_on_c, 0, 63, 45
3, 39646, Note_on_c, 0, 52, 0
3, 39646, Note_on_c, 0, 56, 0
3, 39646, Note_on_c, 0, 63, 0
3, 39648, Note_on_c, 0, 52, 45
3, 39648, Note_on_c, 0, 56, 45
3, 39648, Note_on_c, 0, 63, 45
3, 39742, Note_on_c, 0, 52, 0
3, 39742, Note_on_c, 0, 56, 0
3, 39742, Note_on_c, 0, 63, 0
3, 39744, Note_on_c, 0, 52, 45
3, 39744, Note_on_c, 0, 56, 45
3, 39744, Note_on_c, 0, 61, 45
3, 39838, Note_on_c, 0, 52, 0
3, 39838, Note_on_c, 0, 56, 0
3, 39838, Note_on_c, 0, 61, 0
3, 39840, Note_on_c, 0, 51, 45
3, 39840, Note_on_c, 0, 55, 45
3, 39840, Note_on_c, 0, 61, 45
3, 39934, Note_on_c, 0, 51, 0
3, 39934, Note_on_c, 0, 55, 0
3, 39934, Note_on_c, 0, 61, 0
3, 39936, Note_on_c, 0, 51, 45
3, 39936, Note_on_c, 0, 54, 45
3, 39936, Note_on_c, 0, 61, 45
3, 40030, Note_on_c, 0, 51, 0
3, 40030, Note_on_c, 0, 54, 0
3, 40030, Note_on_c, 0, 61, 0
3, 40032, Note_on_c, 0, 51, 45
3, 40032, Note_on_c, 0, 54, 45
3, 40032, Note_on_c, 0, 60, 45
3, 40126, Note_on_c, 0, 51, 0
3, 40126, Note_on_c, 0, 54, 0
3, 40126, Note_on_c, 0, 60, 0
3, 40128, Note_on_c, 0, 52, 45
3, 40128, Note_on_c, 0, 61, 45
3, 40222, Note_on_c, 0, 52, 0
3, 40222, Note_on_c, 0, 61, 0
3, 40224, Note_on_c, 0, 56, 45
3, 40224, Note_on_c, 0, 61, 45
3, 40224, Note_on_c, 0, 64, 45
3, 40320, Note_on_c, 0, 56, 0
3, 40320, Note_on_c, 0, 61, 0
3, 40320, Note_on_c, 0, 64, 0
3, 40320, Note_on_c, 0, 56, 45
3, 40320, Note_on_c, 0, 61, 45
3, 40320, Note_on_c, 0, 64, 45
3, 40416, Note_on_c, 0, 56, 0
3, 40416, Note_on_c, 0, 61, 0
3, 40416, Note_on_c, 0, 64, 0
3, 40416, Note_on_c, 0, 56, 45
3, 40416, Note_on_c, 0, 61, 45
3, 40416, Note_on_c, 0, 64, 45
3, 40512, Note_on_c, 0, 56, 0
3, 40512, Note_on_c, 0, 61, 0
3, 40512, Note_on_c, 0, 64, 0
3, 40512, Note_on_c, 0, 54, 45
3, 40512, Note_on_c, 0, 61, 45
3, 40512, Note_on_c, 0, 63, 45
3, 40608, Note_on_c, 0, 54, 0
3, 40608, Note_on_c, 0, 61, 0
3, 40608, Note_on_c, 0, 63, 0
3, 40608, Note_on_c, 0, 54, 45
3, 40608, Note_on_c, 0, 60, 45
3, 40608, Note_on_c, 0, 63, 45
3, 40704, Note_on_c, 0, 54, 0
3, 40704, Note_on_c, 0, 60, 0
3, 40704, Note_on_c, 0, 63, 0
3, 40704, Note_on_c, 0, 52, 45
3, 40704, Note_on_c, 0, 61, 45
3, 40704, Note_on_c, 0, 64, 45
3, 40800, Note_on_c, 0, 52, 0
3, 40800, Note_on_c, 0, 61, 0
3, 40800, Note_on_c, 0, 64, 0
3, 40800, Note_on_c, 0, 56, 45
3, 40800, Note_on_c, 0, 61, 45
3, 40800, Note_on_c, 0, 64, 45
3, 40896, Note_on_c, 0, 56, 0
3, 40896, Note_on_c, 0, 61, 0
3, 40896, Note_on_c, 0, 64, 0
3, 40896, Note_on_c, 0, 54, 45
3, 40896, Note_on_c, 0, 61, 45
3, 40896, Note_on_c, 0, 63, 45
3, 40990, Note_on_c, 0, 54, 0
3, 40990, Note_on_c, 0, 61, 0
3, 40990, Note_on_c, 0, 63, 0
3, 41184, Note_on_c, 0, 54, 45
3, 41184, Note_on_c, 0, 60, 45
3, 41184, Note_on_c, 0, 63, 45
3, 41280, Note_on_c, 0, 54, 0
3, 41280, Note_on_c, 0, 60, 0
3, 41280, Note_on_c, 0, 63, 0
3, 41280, Note_on_c, 0, 52, 45
3, 41280, Note_on_c, 0, 61, 45
3, 41440, Note_on_c, 0, 52, 0
3, 41440, Note_on_c, 0, 61, 0
3, 41664, Note_on_c, 0, 52, 45
3, 41664, Note_on_c, 0, 61, 45
3, 41784, Note_on_c, 0, 52, 0
3, 41784, Note_on_c, 0, 61, 0
3, 41856, Note_on_c, 0, 52, 45
3, 41856, Note_on_c, 0, 61, 45
3, 42000, Note_on_c, 0, 52, 0
3, 42000, Note_on_c, 0, 61, 0
3, 42000, End_track
4, 0, Start_track
4, 0, MIDI_port, 0
4, 0, Title_t, "Left Hand"
4, 0, Control_c, 0, 7, 127
4, 0, Control_c, 0, 10, 64
4, 0, Control_c, 0, 7, 127
4, 0, Control_c, 0, 10, 64
4, 768, Note_on_c, 0, 44, 45
4, 960, Note_on_c, 0, 44, 0
4, 960, Note_on_c, 0, 51, 75
4, 1248, Note_on_c, 0, 51, 0
4, 1248, Note_on_c, 0, 49, 60
4, 1344, Note_on_c, 0, 49, 0
4, 1344, Note_on_c, 0, 49, 55
4, 1440, Note_on_c, 0, 49, 0
4, 1440, Note_on_c, 0, 48, 50
4, 1536, Note_on_c, 0, 48, 0
4, 1536, Note_on_c, 0, 57, 75
4, 1824, Note_on_c, 0, 57, 0
4, 1824, Note_on_c, 0, 56, 60
4, 1920, Note_on_c, 0, 56, 0
4, 1920, Note_on_c, 0, 55, 59
4, 1968, Note_on_c, 0, 55, 0
4, 1968, Note_on_c, 0, 56, 59
4, 2016, Note_on_c, 0, 56, 0
4, 2016, Note_on_c, 0, 57, 59
4, 2064, Note_on_c, 0, 57, 0
4, 2064, Note_on_c, 0, 56, 58
4, 2112, Note_on_c, 0, 56, 0
4, 2112, Note_on_c, 0, 59, 57
4, 2160, Note_on_c, 0, 59, 0
4, 2160, Note_on_c, 0, 57, 56
4, 2208, Note_on_c, 0, 57, 0
4, 2208, Note_on_c, 0, 52, 55
4, 2256, Note_on_c, 0, 52, 0
4, 2256, Note_on_c, 0, 53, 54
4, 2304, Note_on_c, 0, 53, 0
4, 2304, Note_on_c, 0, 54, 53
4, 2352, Note_on_c, 0, 54, 0
4, 2352, Note_on_c, 0, 53, 52
4, 2400, Note_on_c, 0, 53, 0
4, 2400, Note_on_c, 0, 56, 51
4, 2448, Note_on_c, 0, 56, 0
4, 2448, Note_on_c, 0, 54, 50
4, 2496, Note_on_c, 0, 54, 0
4, 2496, Note_on_c, 0, 57, 49
4, 2544, Note_on_c, 0, 57, 0
4, 2544, Note_on_c, 0, 56, 48
4, 2592, Note_on_c, 0, 56, 0
4, 2592, Note_on_c, 0, 49, 47
4, 2640, Note_on_c, 0, 49, 0
4, 2640, Note_on_c, 0, 51, 46
4, 2688, Note_on_c, 0, 51, 0
4, 2688, Note_on_c, 0, 52, 45
4, 2694, Note_on_c, 0, 52, 0
4, 2696, Note_on_c, 0, 64, 75
4, 3040, Note_on_c, 0, 64, 0
4, 3072, Note_on_c, 0, 63, 60
4, 3214, Note_on_c, 0, 63, 0
4, 3216, Note_on_c, 0, 61, 58
4, 3262, Note_on_c, 0, 61, 0
4, 3264, Note_on_c, 0, 61, 57
4, 3568, Note_on_c, 0, 61, 0
4, 3600, Note_on_c, 0, 63, 51
4, 3622, Note_on_c, 0, 63, 0
4, 3624, Note_on_c, 0, 61, 51
4, 3646, Note_on_c, 0, 61, 0
4, 3648, Note_on_c, 0, 59, 51
4, 3790, Note_on_c, 0, 59, 0
4, 3792, Note_on_c, 0, 57, 47
4, 3838, Note_on_c, 0, 57, 0
4, 3840, Note_on_c, 0, 57, 45
4, 4078, Note_on_c, 0, 57, 0
4, 4080, Note_on_c, 0, 56, 45
4, 4126, Note_on_c, 0, 56, 0
4, 4128, Note_on_c, 0, 55, 45
4, 4174, Note_on_c, 0, 55, 0
4, 4176, Note_on_c, 0, 56, 45
4, 4222, Note_on_c, 0, 56, 0
4, 4224, Note_on_c, 0, 59, 45
4, 4270, Note_on_c, 0, 59, 0
4, 4272, Note_on_c, 0, 57, 45
4, 4318, Note_on_c, 0, 57, 0
4, 4320, Note_on_c, 0, 54, 45
4, 4366, Note_on_c, 0, 54, 0
4, 4368, Note_on_c, 0, 51, 45
4, 4414, Note_on_c, 0, 51, 0
4, 4416, Note_on_c, 0, 48, 45
4, 4576, Note_on_c, 0, 48, 0
4, 4704, Note_on_c, 0, 43, 63
4, 4752, Note_on_c, 0, 43, 0
4, 4752, Note_on_c, 0, 44, 45
4, 4800, Note_on_c, 0, 44, 0
4, 4800, Note_on_c, 0, 47, 48
4, 4808, Note_on_c, 0, 47, 0
4, 4808, Note_on_c, 0, 45, 48
4, 4848, Note_on_c, 0, 45, 0
4, 4848, Note_on_c, 0, 44, 50
4, 4896, Note_on_c, 0, 44, 0
4, 4896, Note_on_c, 0, 49, 53
4, 4944, Note_on_c, 0, 49, 0
4, 4944, Note_on_c, 0, 51, 56
4, 4992, Note_on_c, 0, 51, 0
4, 4992, Note_on_c, 0, 52, 60
4, 5184, Note_on_c, 0, 52, 0
4, 5184, Note_on_c, 0, 40, 45
4, 5344, Note_on_c, 0, 40, 0
4, 5376, Note_on_c, 0, 56, 45
4, 5520, Note_on_c, 0, 56, 0
4, 5520, Note_on_c, 0, 56, 45
4, 5568, Note_on_c, 0, 56, 0
4, 5568, Note_on_c, 0, 56, 45
4, 5728, Note_on_c, 0, 56, 0
4, 5760, Note_on_c, 0, 42, 45
4, 5824, Note_on_c, 0, 42, 0
4, 5824, Note_on_c, 0, 49, 45
4, 5888, Note_on_c, 0, 49, 0
4, 5888, Note_on_c, 0, 54, 45
4, 5952, Note_on_c, 0, 54, 0
4, 5952, Note_on_c, 0, 56, 45
4, 6016, Note_on_c, 0, 56, 0
4, 6016, Note_on_c, 0, 59, 45
4, 6080, Note_on_c, 0, 59, 0
4, 6080, Note_on_c, 0, 57, 45
4, 6144, Note_on_c, 0, 57, 0
4, 6144, Note_on_c, 0, 57, 75
4, 6336, Note_on_c, 0, 57, 0
4, 6336, Note_on_c, 0, 48, 60
4, 6528, Note_on_c, 0, 48, 0
4, 6528, Note_on_c, 0, 49, 53
4, 6536, Note_on_c, 0, 49, 0
4, 6536, Note_on_c, 0, 51, 53
4, 6544, Note_on_c, 0, 51, 0
4, 6544, Note_on_c, 0, 49, 53
4, 6552, Note_on_c, 0, 49, 0
4, 6552, Note_on_c, 0, 51, 53
4, 6560, Note_on_c, 0, 51, 0
4, 6560, Note_on_c, 0, 49, 53
4, 6568, Note_on_c, 0, 49, 0
4, 6568, Note_on_c, 0, 51, 53
4, 6576, Note_on_c, 0, 51, 0
4, 6576, Note_on_c, 0, 49, 53
4, 6584, Note_on_c, 0, 49, 0
4, 6584, Note_on_c, 0, 51, 53
4, 6592, Note_on_c, 0, 51, 0
4, 6592, Note_on_c, 0, 49, 53
4, 6600, Note_on_c, 0, 49, 0
4, 6600, Note_on_c, 0, 51, 53
4, 6608, Note_on_c, 0, 51, 0
4, 6608, Note_on_c, 0, 49, 53
4, 6616, Note_on_c, 0, 49, 0
4, 6616, Note_on_c, 0, 51, 53
4, 6624, Note_on_c, 0, 51, 0
4, 6624, Note_on_c, 0, 48, 53
4, 6648, Note_on_c, 0, 48, 0
4, 6648, Note_on_c, 0, 49, 51
4, 6672, Note_on_c, 0, 49, 0
4, 6672, Note_on_c, 0, 51, 49
4, 6696, Note_on_c, 0, 51, 0
4, 6696, Note_on_c, 0, 52, 47
4, 6720, Note_on_c, 0, 52, 0
4, 6720, Note_on_c, 0, 44, 45
4, 6880, Note_on_c, 0, 44, 0
4, 6912, Note_on_c, 0, 43, 63
4, 6960, Note_on_c, 0, 43, 0
4, 6960, Note_on_c, 0, 44, 46
4, 7008, Note_on_c, 0, 44, 0
4, 7008, Note_on_c, 0, 48, 48
4, 7056, Note_on_c, 0, 48, 0
4, 7056, Note_on_c, 0, 51, 50
4, 7104, Note_on_c, 0, 51, 0
4, 7104, Note_on_c, 0, 55, 52
4, 7152, Note_on_c, 0, 55, 0
4, 7152, Note_on_c, 0, 56, 54
4, 7200, Note_on_c, 0, 56, 0
4, 7200, Note_on_c, 0, 59, 56
4, 7208, Note_on_c, 0, 59, 0
4, 7208, Note_on_c, 0, 57, 56
4, 7272, Note_on_c, 0, 57, 0
4, 7272, Note_on_c, 0, 56, 58
4, 7294, Note_on_c, 0, 56, 0
4, 7296, Note_on_c, 0, 52, 60
4, 7304, Note_on_c, 0, 52, 0
4, 7304, Note_on_c, 0, 64, 75
4, 7680, Note_on_c, 0, 64, 0
4, 7680, Note_on_c, 0, 63, 60
4, 7824, Note_on_c, 0, 63, 0
4, 7824, Note_on_c, 0, 61, 49
4, 7872, Note_on_c, 0, 61, 0
4, 7872, Note_on_c, 0, 61, 60
4, 8184, Note_on_c, 0, 61, 0
4, 8184, Note_on_c, 0, 60, 57
4, 8208, Note_on_c, 0, 60, 0
4, 8208, Note_on_c, 0, 63, 53
4, 8232, Note_on_c, 0, 63, 0
4, 8232, Note_on_c, 0, 61, 49
4, 8256, Note_on_c, 0, 61, 0
4, 8256, Note_on_c, 0, 59, 45
4, 8400, Note_on_c, 0, 59, 0
4, 8400, Note_on_c, 0, 57, 45
4, 8446, Note_on_c, 0, 57, 0
4, 8448, Control_c, 0, 64, 127
4, 8448, Note_on_c, 0, 35, 45
4, 8544, Note_on_c, 0, 35, 0
4, 8544, Note_on_c, 0, 42, 45
4, 8592, Note_on_c, 0, 42, 0
4, 8592, Note_on_c, 0, 47, 45
4, 8640, Note_on_c, 0, 47, 0
4, 8640, Note_on_c, 0, 51, 45
4, 8688, Note_on_c, 0, 51, 0
4, 8688, Note_on_c, 0, 54, 45
4, 8736, Note_on_c, 0, 54, 0
4, 8736, Control_c, 0, 64, 0
4, 8736, Note_on_c, 0, 57, 45
4, 8784, Note_on_c, 0, 57, 0
4, 8784, Note_on_c, 0, 59, 45
4, 8832, Note_on_c, 0, 59, 0
4, 8832, Note_on_c, 0, 63, 45
4, 8880, Note_on_c, 0, 63, 0
4, 8880, Note_on_c, 0, 61, 45
4, 8928, Note_on_c, 0, 61, 0
4, 8928, Note_on_c, 0, 61, 45
4, 8960, Note_on_c, 0, 61, 0
4, 8960, Note_on_c, 0, 59, 45
4, 8992, Note_on_c, 0, 59, 0
4, 8992, Note_on_c, 0, 57, 45
4, 9024, Note_on_c, 0, 57, 0
4, 9024, Note_on_c, 0, 56, 45
4, 9328, Note_on_c, 0, 56, 0
4, 9360, Note_on_c, 0, 56, 45
4, 9408, Note_on_c, 0, 56, 0
4, 9408, Note_on_c, 0, 59, 45
4, 9416, Note_on_c, 0, 59, 0
4, 9416, Note_on_c, 0, 57, 45
4, 9552, Note_on_c, 0, 57, 0
4, 9552, Note_on_c, 0, 56, 45
4, 9600, Note_on_c, 0, 56, 0
4, 9600, Note_on_c, 0, 56, 45
4, 9760, Note_on_c, 0, 56, 0
4, 9792, Note_on_c, 0, 42, 45
4, 9936, Note_on_c, 0, 42, 0
4, 9936, Note_on_c, 0, 49, 50
4, 9984, Note_on_c, 0, 49, 0
4, 9984, Note_on_c, 0, 54, 52
4, 10032, Note_on_c, 0, 54, 0
4, 10032, Note_on_c, 0, 56, 54
4, 10080, Note_on_c, 0, 56, 0
4, 10080, Note_on_c, 0, 57, 56
4, 10128, Note_on_c, 0, 57, 0
4, 10128, Note_on_c, 0, 59, 58
4, 10176, Note_on_c, 0, 59, 0
4, 10176, Note_on_c, 0, 60, 60
4, 10224, Note_on_c, 0, 60, 0
4, 10224, Note_on_c, 0, 56, 60
4, 10272, Note_on_c, 0, 56, 0
4, 10272, Note_on_c, 0, 57, 60
4, 10320, Note_on_c, 0, 57, 0
4, 10320, Note_on_c, 0, 59, 60
4, 10368, Note_on_c, 0, 59, 0
4, 10368, Note_on_c, 0, 60, 60
4, 10416, Note_on_c, 0, 60, 0
4, 10416, Note_on_c, 0, 57, 57
4, 10464, Note_on_c, 0, 57, 0
4, 10464, Note_on_c, 0, 58, 53
4, 10512, Note_on_c, 0, 58, 0
4, 10512, Note_on_c, 0, 59, 49
4, 10560, Note_on_c, 0, 59, 0
4, 10560, Note_on_c, 0, 60, 45
4, 10800, Note_on_c, 0, 60, 0
4, 10800, Note_on_c, 0, 59, 45
4, 10848, Note_on_c, 0, 59, 0
4, 10848, Note_on_c, 0, 62, 45
4, 10896, Note_on_c, 0, 62, 0
4, 10896, Note_on_c, 0, 60, 45
4, 10944, Note_on_c, 0, 60, 0
4, 10944, Note_on_c, 0, 59, 45
4, 10992, Note_on_c, 0, 59, 0
4, 10992, Note_on_c, 0, 56, 45
4, 11040, Note_on_c, 0, 56, 0
4, 11040, Note_on_c, 0, 59, 45
4, 11088, Note_on_c, 0, 59, 0
4, 11088, Note_on_c, 0, 57, 45
4, 11136, Note_on_c, 0, 57, 0
4, 11136, Note_on_c, 0, 60, 45
4, 11184, Note_on_c, 0, 60, 0
4, 11184, Note_on_c, 0, 57, 45
4, 11232, Note_on_c, 0, 57, 0
4, 11232, Note_on_c, 0, 52, 45
4, 11280, Note_on_c, 0, 52, 0
4, 11280, Note_on_c, 0, 48, 45
4, 11328, Note_on_c, 0, 48, 0
4, 11328, Note_on_c, 0, 57, 45
4, 11376, Note_on_c, 0, 57, 0
4, 11376, Note_on_c, 0, 56, 45
4, 11424, Note_on_c, 0, 56, 0
4, 11424, Note_on_c, 0, 59, 45
4, 11472, Note_on_c, 0, 59, 0
4, 11472, Note_on_c, 0, 57, 45
4, 11520, Note_on_c, 0, 57, 0
4, 11520, Note_on_c, 0, 54, 45
4, 11568, Note_on_c, 0, 54, 0
4, 11568, Note_on_c, 0, 53, 45
4, 11616, Note_on_c, 0, 53, 0
4, 11616, Note_on_c, 0, 55, 45
4, 11664, Note_on_c, 0, 55, 0
4, 11664, Note_on_c, 0, 54, 45
4, 11712, Note_on_c, 0, 54, 0
4, 11712, Note_on_c, 0, 57, 45
4, 11760, Note_on_c, 0, 57, 0
4, 11760, Note_on_c, 0, 54, 45
4, 11808, Note_on_c, 0, 54, 0
4, 11808, Note_on_c, 0, 48, 45
4, 11856, Note_on_c, 0, 48, 0
4, 11856, Note_on_c, 0, 45, 45
4, 11902, Note_on_c, 0, 45, 0
4, 11904, Note_on_c, 0, 47, 45
4, 11950, Note_on_c, 0, 47, 0
4, 11952, Note_on_c, 0, 52, 48
4, 11998, Note_on_c, 0, 52, 0
4, 12000, Note_on_c, 0, 56, 51
4, 12046, Note_on_c, 0, 56, 0
4, 12048, Note_on_c, 0, 52, 54
4, 12094, Note_on_c, 0, 52, 0
4, 12096, Note_on_c, 0, 59, 57
4, 12352, Note_on_c, 0, 59, 0
4, 12384, Note_on_c, 0, 56, 75
4, 12478, Note_on_c, 0, 56, 0
4, 12480, Note_on_c, 0, 64, 60
4, 12526, Note_on_c, 0, 64, 0
4, 12528, Note_on_c, 0, 59, 60
4, 12574, Note_on_c, 0, 59, 0
4, 12576, Note_on_c, 0, 61, 55
4, 12646, Note_on_c, 0, 61, 0
4, 12648, Note_on_c, 0, 56, 48
4, 12670, Note_on_c, 0, 56, 0
4, 12672, Note_on_c, 0, 59, 45
4, 12864, Note_on_c, 0, 59, 0
4, 12864, Note_on_c, 0, 61, 45
4, 12910, Note_on_c, 0, 61, 0
4, 12912, Note_on_c, 0, 56, 45
4, 12958, Note_on_c, 0, 56, 0
4, 12960, Note_on_c, 0, 59, 45
4, 13030, Note_on_c, 0, 59, 0
4, 13032, Note_on_c, 0, 52, 45
4, 13054, Note_on_c, 0, 52, 0
4, 13056, Note_on_c, 0, 56, 45
4, 13294, Note_on_c, 0, 56, 0
4, 13296, Note_on_c, 0, 46, 45
4, 13342, Note_on_c, 0, 46, 0
4, 13344, Note_on_c, 0, 49, 45
4, 13390, Note_on_c, 0, 49, 0
4, 13392, Note_on_c, 0, 47, 45
4, 13438, Note_on_c, 0, 47, 0
4, 13440, Note_on_c, 0, 54, 45
4, 13582, Note_on_c, 0, 54, 0
4, 13584, Note_on_c, 0, 52, 45
4, 13630, Note_on_c, 0, 52, 0
4, 13632, Control_c, 0, 64, 127
4, 13632, Note_on_c, 0, 52, 45
4, 13792, Note_on_c, 0, 52, 0
4, 14208, Control_c, 0, 64, 0
4, 14208, Note_on_c, 0, 64, 75
4, 14400, Note_on_c, 0, 64, 0
4, 14400, Note_on_c, 0, 63, 65
4, 14592, Note_on_c, 0, 63, 0
4, 14592, Note_on_c, 0, 58, 55
4, 14784, Note_on_c, 0, 58, 0
4, 14784, Note_on_c, 0, 61, 45
4, 14928, Note_on_c, 0, 61, 0
4, 14928, Note_on_c, 0, 59, 45
4, 14952, Note_on_c, 0, 59, 0
4, 14952, Note_on_c, 0, 63, 45
4, 14976, Note_on_c, 0, 63, 0
4, 14976, Note_on_c, 0, 61, 45
4, 15000, Note_on_c, 0, 61, 0
4, 15000, Note_on_c, 0, 59, 45
4, 15070, Note_on_c, 0, 59, 0
4, 15072, Note_on_c, 0, 43, 63
4, 15096, Note_on_c, 0, 43, 0
4, 15096, Note_on_c, 0, 44, 47
4, 15120, Note_on_c, 0, 44, 0
4, 15120, Note_on_c, 0, 46, 49
4, 15144, Note_on_c, 0, 46, 0
4, 15144, Note_on_c, 0, 47, 51
4, 15168, Note_on_c, 0, 47, 0
4, 15168, Note_on_c, 0, 50, 53
4, 15192, Note_on_c, 0, 50, 0
4, 15192, Note_on_c, 0, 51, 55
4, 15216, Note_on_c, 0, 51, 0
4, 15216, Note_on_c, 0, 55, 57
4, 15240, Note_on_c, 0, 55, 0
4, 15240, Note_on_c, 0, 56, 60
4, 15264, Note_on_c, 0, 56, 0
4, 15264, Note_on_c, 0, 58, 63
4, 15280, Note_on_c, 0, 58, 0
4, 15280, Note_on_c, 0, 59, 65
4, 15296, Note_on_c, 0, 59, 0
4, 15296, Note_on_c, 0, 62, 67
4, 15312, Note_on_c, 0, 62, 0
4, 15312, Note_on_c, 0, 63, 69
4, 15328, Note_on_c, 0, 63, 0
4, 15328, Note_on_c, 0, 64, 71
4, 15344, Note_on_c, 0, 64, 0
4, 15344, Note_on_c, 0, 65, 73
4, 15360, Note_on_c, 0, 65, 0
4, 15360, Note_on_c, 0, 66, 75
4, 15552, Note_on_c, 0, 66, 0
4, 15552, Note_on_c, 0, 65, 75
4, 15624, Note_on_c, 0, 65, 0
4, 15624, Note_on_c, 0, 66, 75
4, 15648, Note_on_c, 0, 66, 0
4, 15648, Note_on_c, 0, 65, 75
4, 15680, Note_on_c, 0, 65, 0
4, 15680, Note_on_c, 0, 64, 80
4, 15712, Note_on_c, 0, 64, 0
4, 15712, Note_on_c, 0, 65, 86
4, 15744, Note_on_c, 0, 65, 0
4, 15744, Note_on_c, 0, 72, 92
4, 15888, Note_on_c, 0, 72, 0
4, 15888, Note_on_c, 0, 63, 75
4, 15936, Note_on_c, 0, 63, 0
4, 15936, Note_on_c, 0, 63, 105
4, 16080, Note_on_c, 0, 63, 0
4, 16080, Note_on_c, 0, 62, 55
4, 16104, Note_on_c, 0, 62, 0
4, 16104, Note_on_c, 0, 65, 52
4, 16128, Note_on_c, 0, 65, 0
4, 16128, Note_on_c, 0, 63, 49
4, 16152, Note_on_c, 0, 63, 0
4, 16152, Note_on_c, 0, 62, 45
4, 16222, Note_on_c, 0, 62, 0
4, 16224, Note_on_c, 0, 45, 45
4, 16246, Note_on_c, 0, 45, 0
4, 16248, Note_on_c, 0, 46, 48
4, 16270, Note_on_c, 0, 46, 0
4, 16272, Note_on_c, 0, 49, 52
4, 16294, Note_on_c, 0, 49, 0
4, 16296, Note_on_c, 0, 50, 56
4, 16318, Note_on_c, 0, 50, 0
4, 16320, Note_on_c, 0, 52, 60
4, 16342, Note_on_c, 0, 52, 0
4, 16344, Note_on_c, 0, 53, 64
4, 16366, Note_on_c, 0, 53, 0
4, 16368, Note_on_c, 0, 57, 68
4, 16390, Note_on_c, 0, 57, 0
4, 16392, Note_on_c, 0, 58, 72
4, 16414, Note_on_c, 0, 58, 0
4, 16416, Note_on_c, 0, 61, 76
4, 16430, Note_on_c, 0, 61, 0
4, 16432, Note_on_c, 0, 62, 78
4, 16446, Note_on_c, 0, 62, 0
4, 16448, Note_on_c, 0, 64, 80
4, 16462, Note_on_c, 0, 64, 0
4, 16464, Note_on_c, 0, 65, 83
4, 16478, Note_on_c, 0, 65, 0
4, 16480, Note_on_c, 0, 69, 86
4, 16494, Note_on_c, 0, 69, 0
4, 16496, Note_on_c, 0, 70, 89
4, 16510, Note_on_c, 0, 70, 0
4, 16512, Note_on_c, 0, 71, 92
4, 16678, Note_on_c, 0, 71, 0
4, 16680, Note_on_c, 0, 59, 92
4, 16702, Note_on_c, 0, 59, 0
4, 16704, Note_on_c, 0, 59, 92
4, 16864, Note_on_c, 0, 59, 0
4, 16896, Note_on_c, 0, 58, 92
4, 16902, Note_on_c, 0, 58, 0
4, 16904, Note_on_c, 0, 59, 92
4, 16910, Note_on_c, 0, 59, 0
4, 16912, Note_on_c, 0, 61, 92
4, 16918, Note_on_c, 0, 61, 0
4, 16920, Note_on_c, 0, 59, 92
4, 16926, Note_on_c, 0, 59, 0
4, 16928, Note_on_c, 0, 61, 92
4, 16934, Note_on_c, 0, 61, 0
4, 16936, Note_on_c, 0, 59, 92
4, 16942, Note_on_c, 0, 59, 0
4, 16944, Note_on_c, 0, 61, 92
4, 16950, Note_on_c, 0, 61, 0
4, 16952, Note_on_c, 0, 59, 92
4, 16958, Note_on_c, 0, 59, 0
4, 16960, Note_on_c, 0, 61, 92
4, 16966, Note_on_c, 0, 61, 0
4, 16968, Note_on_c, 0, 59, 92
4, 16974, Note_on_c, 0, 59, 0
4, 16976, Note_on_c, 0, 61, 92
4, 16982, Note_on_c, 0, 61, 0
4, 16984, Note_on_c, 0, 59, 92
4, 16990, Note_on_c, 0, 59, 0
4, 16992, Note_on_c, 0, 61, 92
4, 16998, Note_on_c, 0, 61, 0
4, 17000, Note_on_c, 0, 59, 92
4, 17006, Note_on_c, 0, 59, 0
4, 17008, Note_on_c, 0, 61, 92
4, 17014, Note_on_c, 0, 61, 0
4, 17016, Note_on_c, 0, 59, 92
4, 17022, Note_on_c, 0, 59, 0
4, 17024, Note_on_c, 0, 61, 92
4, 17030, Note_on_c, 0, 61, 0
4, 17032, Note_on_c, 0, 59, 92
4, 17038, Note_on_c, 0, 59, 0
4, 17040, Note_on_c, 0, 61, 92
4, 17046, Note_on_c, 0, 61, 0
4, 17048, Note_on_c, 0, 59, 92
4, 17054, Note_on_c, 0, 59, 0
4, 17056, Note_on_c, 0, 61, 92
4, 17062, Note_on_c, 0, 61, 0
4, 17064, Note_on_c, 0, 59, 92
4, 17070, Note_on_c, 0, 59, 0
4, 17072, Note_on_c, 0, 61, 92
4, 17078, Note_on_c, 0, 61, 0
4, 17080, Note_on_c, 0, 59, 92
4, 17086, Note_on_c, 0, 59, 0
4, 17088, Note_on_c, 0, 58, 92
4, 17098, Note_on_c, 0, 58, 0
4, 17100, Note_on_c, 0, 59, 92
4, 17110, Note_on_c, 0, 59, 0
4, 17112, Note_on_c, 0, 61, 92
4, 17122, Note_on_c, 0, 61, 0
4, 17124, Note_on_c, 0, 59, 92
4, 17134, Note_on_c, 0, 59, 0
4, 17136, Note_on_c, 0, 57, 92
4, 17150, Note_on_c, 0, 57, 0
4, 17152, Note_on_c, 0, 56, 92
4, 17166, Note_on_c, 0, 56, 0
4, 17168, Note_on_c, 0, 55, 92
4, 17182, Note_on_c, 0, 55, 0
4, 17184, Note_on_c, 0, 57, 92
4, 17198, Note_on_c, 0, 57, 0
4, 17200, Note_on_c, 0, 56, 92
4, 17214, Note_on_c, 0, 56, 0
4, 17216, Note_on_c, 0, 54, 92
4, 17230, Note_on_c, 0, 54, 0
4, 17232, Note_on_c, 0, 52, 92
4, 17246, Note_on_c, 0, 52, 0
4, 17248, Note_on_c, 0, 51, 92
4, 17262, Note_on_c, 0, 51, 0
4, 17264, Note_on_c, 0, 49, 92
4, 17278, Note_on_c, 0, 49, 0
4, 17280, Note_on_c, 0, 48, 127
4, 17302, Note_on_c, 0, 48, 0
4, 17304, Note_on_c, 0, 47, 93
4, 17326, Note_on_c, 0, 47, 0
4, 17328, Note_on_c, 0, 46, 94
4, 17350, Note_on_c, 0, 46, 0
4, 17352, Note_on_c, 0, 47, 95
4, 17374, Note_on_c, 0, 47, 0
4, 17376, Note_on_c, 0, 46, 127
4, 17398, Note_on_c, 0, 46, 0
4, 17400, Note_on_c, 0, 45, 97
4, 17422, Note_on_c, 0, 45, 0
4, 17424, Note_on_c, 0, 44, 98
4, 17446, Note_on_c, 0, 44, 0
4, 17448, Note_on_c, 0, 45, 99
4, 17470, Note_on_c, 0, 45, 0
4, 17472, Note_on_c, 0, 44, 127
4, 17486, Note_on_c, 0, 44, 0
4, 17488, Note_on_c, 0, 43, 100
4, 17502, Note_on_c, 0, 43, 0
4, 17504, Note_on_c, 0, 42, 100
4, 17518, Note_on_c, 0, 42, 0
4, 17520, Note_on_c, 0, 43, 100
4, 17534, Note_on_c, 0, 43, 0
4, 17536, Note_on_c, 0, 42, 100
4, 17550, Note_on_c, 0, 42, 0
4, 17552, Note_on_c, 0, 41, 101
4, 17566, Note_on_c, 0, 41, 0
4, 17568, Note_on_c, 0, 40, 102
4, 17582, Note_on_c, 0, 40, 0
4, 17584, Note_on_c, 0, 39, 103
4, 17598, Note_on_c, 0, 39, 0
4, 17600, Note_on_c, 0, 38, 104
4, 17614, Note_on_c, 0, 38, 0
4, 17616, Note_on_c, 0, 37, 105
4, 17630, Note_on_c, 0, 37, 0
4, 17632, Note_on_c, 0, 36, 106
4, 17646, Note_on_c, 0, 36, 0
4, 17648, Note_on_c, 0, 35, 107
4, 17662, Note_on_c, 0, 35, 0
4, 17664, Note_on_c, 0, 34, 108
4, 17680, Note_on_c, 0, 34, 0
4, 17680, Note_on_c, 0, 33, 108
4, 17696, Note_on_c, 0, 33, 0
4, 17696, Note_on_c, 0, 34, 108
4, 17712, Note_on_c, 0, 34, 0
4, 17712, Note_on_c, 0, 36, 108
4, 17728, Note_on_c, 0, 36, 0
4, 17728, Note_on_c, 0, 38, 108
4, 17744, Note_on_c, 0, 38, 0
4, 17744, Note_on_c, 0, 39, 108
4, 17760, Note_on_c, 0, 39, 0
4, 17760, Note_on_c, 0, 41, 108
4, 17776, Note_on_c, 0, 41, 0
4, 17776, Note_on_c, 0, 43, 108
4, 17792, Note_on_c, 0, 43, 0
4, 17792, Note_on_c, 0, 44, 108
4, 17808, Note_on_c, 0, 44, 0
4, 17808, Note_on_c, 0, 46, 108
4, 17824, Note_on_c, 0, 46, 0
4, 17824, Note_on_c, 0, 48, 108
4, 17840, Note_on_c, 0, 48, 0
4, 17840, Note_on_c, 0, 50, 108
4, 17856, Note_on_c, 0, 50, 0
4, 17856, Note_on_c, 0, 51, 108
4, 17872, Note_on_c, 0, 51, 0
4, 17872, Note_on_c, 0, 53, 108
4, 17888, Note_on_c, 0, 53, 0
4, 17888, Note_on_c, 0, 55, 108
4, 17904, Note_on_c, 0, 55, 0
4, 17904, Note_on_c, 0, 56, 108
4, 17920, Note_on_c, 0, 56, 0
4, 17920, Note_on_c, 0, 58, 108
4, 17936, Note_on_c, 0, 58, 0
4, 17936, Note_on_c, 0, 60, 108
4, 17952, Note_on_c, 0, 60, 0
4, 17952, Note_on_c, 0, 62, 108
4, 17968, Note_on_c, 0, 62, 0
4, 17968, Note_on_c, 0, 63, 108
4, 17984, Note_on_c, 0, 63, 0
4, 17984, Note_on_c, 0, 65, 108
4, 18000, Note_on_c, 0, 65, 0
4, 18000, Note_on_c, 0, 67, 108
4, 18016, Note_on_c, 0, 67, 0
4, 18016, Note_on_c, 0, 65, 108
4, 18032, Note_on_c, 0, 65, 0
4, 18032, Note_on_c, 0, 63, 108
4, 18048, Note_on_c, 0, 63, 0
4, 18048, Note_on_c, 0, 62, 108
4, 18064, Note_on_c, 0, 62, 0
4, 18064, Note_on_c, 0, 60, 107
4, 18080, Note_on_c, 0, 60, 0
4, 18080, Note_on_c, 0, 58, 106
4, 18096, Note_on_c, 0, 58, 0
4, 18096, Note_on_c, 0, 57, 105
4, 18112, Note_on_c, 0, 57, 0
4, 18112, Note_on_c, 0, 60, 104
4, 18128, Note_on_c, 0, 60, 0
4, 18128, Note_on_c, 0, 58, 103
4, 18144, Note_on_c, 0, 58, 0
4, 18144, Note_on_c, 0, 56, 102
4, 18168, Note_on_c, 0, 56, 0
4, 18168, Note_on_c, 0, 55, 100
4, 18192, Note_on_c, 0, 55, 0
4, 18192, Note_on_c, 0, 53, 98
4, 18216, Note_on_c, 0, 53, 0
4, 18216, Note_on_c, 0, 51, 96
4, 18240, Note_on_c, 0, 51, 0
4, 18240, Note_on_c, 0, 50, 94
4, 18264, Note_on_c, 0, 50, 0
4, 18264, Note_on_c, 0, 49, 92
4, 18288, Note_on_c, 0, 49, 0
4, 18288, Note_on_c, 0, 46, 90
4, 18312, Note_on_c, 0, 46, 0
4, 18312, Note_on_c, 0, 45, 88
4, 18336, Note_on_c, 0, 45, 0
4, 18336, Note_on_c, 0, 47, 86
4, 18360, Note_on_c, 0, 47, 0
4, 18360, Note_on_c, 0, 46, 84
4, 18384, Note_on_c, 0, 46, 0
4, 18384, Note_on_c, 0, 48, 82
4, 18408, Note_on_c, 0, 48, 0
4, 18408, Note_on_c, 0, 47, 80
4, 18432, Note_on_c, 0, 47, 0
4, 18432, Note_on_c, 0, 50, 78
4, 18456, Note_on_c, 0, 50, 0
4, 18456, Note_on_c, 0, 48, 76
4, 18480, Note_on_c, 0, 48, 0
4, 18480, Note_on_c, 0, 46, 74
4, 18504, Note_on_c, 0, 46, 0
4, 18504, Note_on_c, 0, 45, 72
4, 18528, Note_on_c, 0, 45, 0
4, 18528, Note_on_c, 0, 48, 70
4, 18552, Note_on_c, 0, 48, 0
4, 18552, Note_on_c, 0, 46, 68
4, 18576, Note_on_c, 0, 46, 0
4, 18576, Note_on_c, 0, 44, 66
4, 18600, Note_on_c, 0, 44, 0
4, 18600, Note_on_c, 0, 43, 64
4, 18624, Note_on_c, 0, 43, 0
4, 18624, Note_on_c, 0, 41, 62
4, 18648, Note_on_c, 0, 41, 0
4, 18648, Note_on_c, 0, 39, 60
4, 18672, Note_on_c, 0, 39, 0
4, 18672, Note_on_c, 0, 38, 58
4, 18696, Note_on_c, 0, 38, 0
4, 18696, Note_on_c, 0, 36, 56
4, 18720, Note_on_c, 0, 36, 0
4, 18720, Note_on_c, 0, 34, 54
4, 18744, Note_on_c, 0, 34, 0
4, 18744, Note_on_c, 0, 32, 52
4, 18768, Note_on_c, 0, 32, 0
4, 18768, Note_on_c, 0, 31, 50
4, 18792, Note_on_c, 0, 31, 0
4, 18792, Note_on_c, 0, 29, 48
4, 18816, Note_on_c, 0, 29, 0
4, 18816, Control_c, 0, 64, 127
4, 18816, Note_on_c, 0, 27, 45
4, 18976, Note_on_c, 0, 27, 0
4, 19008, Control_c, 0, 64, 0
4, 19200, Control_c, 0, 64, 127
4, 19200, Note_on_c, 0, 63, 63
4, 19344, Note_on_c, 0, 63, 0
4, 19344, Note_on_c, 0, 61, 45
4, 19392, Note_on_c, 0, 61, 0
4, 19392, Control_c, 0, 64, 0
4, 19392, Control_c, 0, 64, 127
4, 19392, Note_on_c, 0, 59, 45
4, 19440, Note_on_c, 0, 59, 0
4, 19440, Note_on_c, 0, 54, 45
4, 19488, Note_on_c, 0, 54, 0
4, 19488, Note_on_c, 0, 47, 45
4, 19536, Note_on_c, 0, 47, 0
4, 19536, Note_on_c, 0, 49, 45
4, 19584, Note_on_c, 0, 49, 0
4, 19584, Note_on_c, 0, 51, 45
4, 19632, Note_on_c, 0, 51, 0
4, 19632, Note_on_c, 0, 42, 45
4, 19680, Note_on_c, 0, 42, 0
4, 19680, Note_on_c, 0, 35, 45
4, 19726, Note_on_c, 0, 35, 0
4, 19776, Note_on_c, 0, 63, 63
4, 19920, Note_on_c, 0, 63, 0
4, 19920, Note_on_c, 0, 61, 45
4, 19968, Note_on_c, 0, 61, 0
4, 19968, Control_c, 0, 64, 0
4, 19968, Control_c, 0, 64, 127
4, 19968, Note_on_c, 0, 59, 45
4, 20016, Note_on_c, 0, 59, 0
4, 20016, Note_on_c, 0, 54, 45
4, 20064, Note_on_c, 0, 54, 0
4, 20064, Note_on_c, 0, 47, 45
4, 20112, Note_on_c, 0, 47, 0
4, 20112, Note_on_c, 0, 49, 45
4, 20160, Note_on_c, 0, 49, 0
4, 20160, Note_on_c, 0, 51, 45
4, 20208, Note_on_c, 0, 51, 0
4, 20208, Note_on_c, 0, 42, 45
4, 20256, Note_on_c, 0, 42, 0
4, 20256, Note_on_c, 0, 35, 45
4, 20302, Note_on_c, 0, 35, 0
4, 20352, Note_on_c, 0, 63, 63
4, 20496, Note_on_c, 0, 63, 0
4, 20496, Note_on_c, 0, 61, 45
4, 20544, Note_on_c, 0, 61, 0
4, 20544, Control_c, 0, 64, 0
4, 20544, Control_c, 0, 64, 127
4, 20544, Note_on_c, 0, 59, 45
4, 20592, Note_on_c, 0, 59, 0
4, 20592, Note_on_c, 0, 54, 45
4, 20640, Note_on_c, 0, 54, 0
4, 20640, Note_on_c, 0, 47, 45
4, 20688, Note_on_c, 0, 47, 0
4, 20688, Note_on_c, 0, 49, 45
4, 20736, Note_on_c, 0, 49, 0
4, 20736, Note_on_c, 0, 51, 45
4, 20784, Note_on_c, 0, 51, 0
4, 20784, Note_on_c, 0, 42, 45
4, 20832, Note_on_c, 0, 42, 0
4, 20832, Note_on_c, 0, 35, 45
4, 20878, Note_on_c, 0, 35, 0
4, 20928, Note_on_c, 0, 63, 63
4, 21072, Note_on_c, 0, 63, 0
4, 21072, Note_on_c, 0, 61, 45
4, 21120, Note_on_c, 0, 61, 0
4, 21120, Control_c, 0, 64, 0
4, 21120, Control_c, 0, 64, 127
4, 21120, Note_on_c, 0, 59, 45
4, 21168, Note_on_c, 0, 59, 0
4, 21168, Note_on_c, 0, 55, 45
4, 21216, Note_on_c, 0, 55, 0
4, 21216, Note_on_c, 0, 52, 45
4, 21264, Note_on_c, 0, 52, 0
4, 21264, Note_on_c, 0, 54, 45
4, 21312, Note_on_c, 0, 54, 0
4, 21312, Note_on_c, 0, 55, 45
4, 21360, Note_on_c, 0, 55, 0
4, 21360, Note_on_c, 0, 47, 45
4, 21408, Note_on_c, 0, 47, 0
4, 21408, Note_on_c, 0, 35, 45
4, 21454, Note_on_c, 0, 35, 0
4, 21504, Note_on_c, 0, 63, 63
4, 21648, Note_on_c, 0, 63, 0
4, 21648, Note_on_c, 0, 61, 45
4, 21696, Note_on_c, 0, 61, 0
4, 21696, Control_c, 0, 64, 0
4, 21696, Control_c, 0, 64, 127
4, 21696, Note_on_c, 0, 59, 45
4, 21744, Note_on_c, 0, 59, 0
4, 21744, Note_on_c, 0, 54, 45
4, 21792, Note_on_c, 0, 54, 0
4, 21792, Note_on_c, 0, 47, 45
4, 21840, Note_on_c, 0, 47, 0
4, 21840, Note_on_c, 0, 49, 45
4, 21888, Note_on_c, 0, 49, 0
4, 21888, Note_on_c, 0, 51, 45
4, 21936, Note_on_c, 0, 51, 0
4, 21936, Note_on_c, 0, 42, 45
4, 21984, Note_on_c, 0, 42, 0
4, 21984, Note_on_c, 0, 35, 45
4, 22030, Note_on_c, 0, 35, 0
4, 22080, Note_on_c, 0, 63, 63
4, 22224, Note_on_c, 0, 63, 0
4, 22224, Note_on_c, 0, 61, 45
4, 22272, Note_on_c, 0, 61, 0
4, 22272, Control_c, 0, 64, 0
4, 22272, Control_c, 0, 64, 127
4, 22272, Note_on_c, 0, 59, 45
4, 22320, Note_on_c, 0, 59, 0
4, 22320, Note_on_c, 0, 54, 45
4, 22368, Note_on_c, 0, 54, 0
4, 22368, Note_on_c, 0, 47, 45
4, 22416, Note_on_c, 0, 47, 0
4, 22416, Note_on_c, 0, 49, 45
4, 22464, Note_on_c, 0, 49, 0
4, 22464, Note_on_c, 0, 51, 45
4, 22512, Note_on_c, 0, 51, 0
4, 22512, Note_on_c, 0, 42, 45
4, 22560, Note_on_c, 0, 42, 0
4, 22560, Note_on_c, 0, 35, 45
4, 22606, Note_on_c, 0, 35, 0
4, 22656, Note_on_c, 0, 63, 63
4, 22800, Note_on_c, 0, 63, 0
4, 22800, Note_on_c, 0, 61, 45
4, 22848, Note_on_c, 0, 61, 0
4, 22848, Control_c, 0, 64, 0
4, 22848, Control_c, 0, 64, 127
4, 22848, Note_on_c, 0, 59, 45
4, 22896, Note_on_c, 0, 59, 0
4, 22896, Note_on_c, 0, 54, 45
4, 22944, Note_on_c, 0, 54, 0
4, 22944, Note_on_c, 0, 47, 45
4, 22992, Note_on_c, 0, 47, 0
4, 22992, Note_on_c, 0, 49, 45
4, 23040, Note_on_c, 0, 49, 0
4, 23040, Note_on_c, 0, 51, 45
4, 23088, Note_on_c, 0, 51, 0
4, 23088, Note_on_c, 0, 42, 45
4, 23136, Note_on_c, 0, 42, 0
4, 23136, Note_on_c, 0, 35, 45
4, 23182, Note_on_c, 0, 35, 0
4, 23232, Note_on_c, 0, 63, 45
4, 23376, Note_on_c, 0, 63, 0
4, 23376, Note_on_c, 0, 61, 40
4, 23424, Note_on_c, 0, 61, 0
4, 23424, Note_on_c, 0, 59, 38
4, 23472, Note_on_c, 0, 59, 0
4, 23472, Note_on_c, 0, 54, 36
4, 23520, Note_on_c, 0, 54, 0
4, 23520, Note_on_c, 0, 47, 34
4, 23568, Note_on_c, 0, 47, 0
4, 23568, Note_on_c, 0, 49, 32
4, 23616, Note_on_c, 0, 49, 0
4, 23616, Note_on_c, 0, 51, 30
4, 23664, Note_on_c, 0, 51, 0
4, 23664, Note_on_c, 0, 42, 30
4, 23712, Note_on_c, 0, 42, 0
4, 23712, Note_on_c, 0, 35, 30
4, 23758, Note_on_c, 0, 35, 0
4, 23760, Control_c, 0, 64, 0
4, 23808, Note_on_c, 0, 59, 63
4, 23952, Note_on_c, 0, 59, 0
4, 23952, Note_on_c, 0, 57, 45
4, 24000, Note_on_c, 0, 57, 0
4, 24000, Note_on_c, 0, 57, 45
4, 24192, Note_on_c, 0, 57, 0
4, 24192, Note_on_c, 0, 55, 45
4, 24384, Note_on_c, 0, 55, 0
4, 24384, Note_on_c, 0, 56, 45
4, 24392, Note_on_c, 0, 56, 0
4, 24392, Note_on_c, 0, 57, 45
4, 24400, Note_on_c, 0, 57, 0
4, 24400, Note_on_c, 0, 56, 45
4, 24408, Note_on_c, 0, 56, 0
4, 24408, Note_on_c, 0, 57, 45
4, 24416, Note_on_c, 0, 57, 0
4, 24416, Note_on_c, 0, 56, 45
4, 24424, Note_on_c, 0, 56, 0
4, 24424, Note_on_c, 0, 57, 45
4, 24432, Note_on_c, 0, 57, 0
4, 24432, Note_on_c, 0, 56, 45
4, 24440, Note_on_c, 0, 56, 0
4, 24440, Note_on_c, 0, 57, 45
4, 24448, Note_on_c, 0, 57, 0
4, 24448, Note_on_c, 0, 56, 45
4, 24456, Note_on_c, 0, 56, 0
4, 24456, Note_on_c, 0, 57, 45
4, 24464, Note_on_c, 0, 57, 0
4, 24464, Note_on_c, 0, 56, 46
4, 24472, Note_on_c, 0, 56, 0
4, 24472, Note_on_c, 0, 57, 47
4, 24480, Note_on_c, 0, 57, 0
4, 24480, Note_on_c, 0, 56, 48
4, 24488, Note_on_c, 0, 56, 0
4, 24488, Note_on_c, 0, 57, 49
4, 24496, Note_on_c, 0, 57, 0
4, 24496, Note_on_c, 0, 56, 50
4, 24504, Note_on_c, 0, 56, 0
4, 24504, Note_on_c, 0, 57, 51
4, 24512, Note_on_c, 0, 57, 0
4, 24512, Note_on_c, 0, 56, 52
4, 24520, Note_on_c, 0, 56, 0
4, 24520, Note_on_c, 0, 57, 53
4, 24528, Note_on_c, 0, 57, 0
4, 24528, Note_on_c, 0, 56, 54
4, 24536, Note_on_c, 0, 56, 0
4, 24536, Note_on_c, 0, 57, 55
4, 24544, Note_on_c, 0, 57, 0
4, 24544, Note_on_c, 0, 56, 56
4, 24552, Note_on_c, 0, 56, 0
4, 24552, Note_on_c, 0, 57, 57
4, 24560, Note_on_c, 0, 57, 0
4, 24560, Note_on_c, 0, 55, 58
4, 24568, Note_on_c, 0, 55, 0
4, 24568, Note_on_c, 0, 56, 59
4, 24576, Note_on_c, 0, 56, 0
4, 24576, Note_on_c, 0, 57, 60
4, 24768, Note_on_c, 0, 57, 0
4, 24768, Note_on_c, 0, 52, 45
4, 24928, Note_on_c, 0, 52, 0
4, 24960, Note_on_c, 0, 57, 45
4, 25152, Note_on_c, 0, 57, 0
4, 25152, Note_on_c, 0, 52, 45
4, 25344, Note_on_c, 0, 52, 0
4, 25344, Note_on_c, 0, 53, 45
4, 25536, Note_on_c, 0, 53, 0
4, 25536, Note_on_c, 0, 48, 45
4, 25680, Note_on_c, 0, 48, 0
4, 25680, Note_on_c, 0, 46, 45
4, 25728, Note_on_c, 0, 46, 0
4, 25728, Note_on_c, 0, 45, 45
4, 25776, Note_on_c, 0, 45, 0
4, 25776, Note_on_c, 0, 48, 45
4, 25824, Note_on_c, 0, 48, 0
4, 25824, Note_on_c, 0, 53, 45
4, 25872, Note_on_c, 0, 53, 0
4, 25872, Note_on_c, 0, 48, 45
4, 25920, Note_on_c, 0, 48, 0
4, 25920, Note_on_c, 0, 57, 45
4, 26080, Note_on_c, 0, 57, 0
4, 26304, Note_on_c, 0, 47, 45
4, 26352, Note_on_c, 0, 47, 0
4, 26352, Note_on_c, 0, 52, 45
4, 26400, Note_on_c, 0, 52, 0
4, 26400, Note_on_c, 0, 56, 45
4, 26448, Note_on_c, 0, 56, 0
4, 26448, Note_on_c, 0, 52, 45
4, 26496, Note_on_c, 0, 52, 0
4, 26496, Note_on_c, 0, 59, 45
4, 26784, Note_on_c, 0, 59, 0
4, 26784, Note_on_c, 0, 56, 45
4, 26880, Note_on_c, 0, 56, 0
4, 26880, Note_on_c, 0, 64, 60
4, 26928, Note_on_c, 0, 64, 0
4, 26928, Note_on_c, 0, 59, 60
4, 26976, Note_on_c, 0, 59, 0
4, 26976, Note_on_c, 0, 61, 55
4, 27024, Note_on_c, 0, 61, 0
4, 27024, Note_on_c, 0, 56, 50
4, 27072, Note_on_c, 0, 56, 0
4, 27072, Note_on_c, 0, 59, 45
4, 27264, Note_on_c, 0, 59, 0
4, 27264, Note_on_c, 0, 61, 45
4, 27312, Note_on_c, 0, 61, 0
4, 27312, Note_on_c, 0, 56, 45
4, 27360, Note_on_c, 0, 56, 0
4, 27360, Note_on_c, 0, 59, 45
4, 27432, Note_on_c, 0, 59, 0
4, 27432, Note_on_c, 0, 52, 45
4, 27456, Note_on_c, 0, 52, 0
4, 27456, Note_on_c, 0, 56, 45
4, 27696, Note_on_c, 0, 56, 0
4, 27696, Note_on_c, 0, 46, 45
4, 27744, Note_on_c, 0, 46, 0
4, 27744, Note_on_c, 0, 49, 45
4, 27792, Note_on_c, 0, 49, 0
4, 27792, Note_on_c, 0, 47, 45
4, 27840, Note_on_c, 0, 47, 0
4, 27840, Note_on_c, 0, 54, 45
4, 27984, Note_on_c, 0, 54, 0
4, 27984, Note_on_c, 0, 52, 45
4, 28032, Note_on_c, 0, 52, 0
4, 28032, Note_on_c, 0, 52, 45
4, 28272, Note_on_c, 0, 52, 0
4, 28272, Note_on_c, 0, 43, 57
4, 28320, Note_on_c, 0, 43, 0
4, 28320, Note_on_c, 0, 45, 59
4, 28368, Note_on_c, 0, 45, 0
4, 28368, Note_on_c, 0, 44, 61
4, 28416, Note_on_c, 0, 44, 0
4, 28416, Note_on_c, 0, 51, 63
4, 28560, Note_on_c, 0, 51, 0
4, 28560, Note_on_c, 0, 49, 72
4, 28606, Note_on_c, 0, 49, 0
4, 28608, Control_c, 0, 64, 127
4, 28608, Note_on_c, 0, 37, 75
4, 28616, Note_on_c, 0, 37, 0
4, 28616, Note_on_c, 0, 49, 75
4, 28624, Note_on_c, 0, 49, 0
4, 28624, Note_on_c, 0, 64, 105
4, 28960, Note_on_c, 0, 64, 0
4, 28992, Control_c, 0, 64, 0
4, 28992, Note_on_c, 0, 63, 56
4, 29134, Note_on_c, 0, 63, 0
4, 29136, Note_on_c, 0, 61, 48
4, 29182, Note_on_c, 0, 61, 0
4, 29184, Note_on_c, 0, 61, 75
4, 29488, Note_on_c, 0, 61, 0
4, 29520, Note_on_c, 0, 63, 67
4, 29542, Note_on_c, 0, 63, 0
4, 29544, Note_on_c, 0, 61, 67
4, 29566, Note_on_c, 0, 61, 0
4, 29568, Note_on_c, 0, 59, 67
4, 29710, Note_on_c, 0, 59, 0
4, 29712, Note_on_c, 0, 57, 63
4, 29758, Note_on_c, 0, 57, 0
4, 29760, Note_on_c, 0, 57, 62
4, 29998, Note_on_c, 0, 57, 0
4, 30000, Note_on_c, 0, 56, 56
4, 30046, Note_on_c, 0, 56, 0
4, 30048, Note_on_c, 0, 55, 55
4, 30094, Note_on_c, 0, 55, 0
4, 30096, Note_on_c, 0, 56, 54
4, 30142, Note_on_c, 0, 56, 0
4, 30144, Note_on_c, 0, 59, 53
4, 30190, Note_on_c, 0, 59, 0
4, 30192, Note_on_c, 0, 57, 51
4, 30238, Note_on_c, 0, 57, 0
4, 30240, Note_on_c, 0, 54, 49
4, 30286, Note_on_c, 0, 54, 0
4, 30288, Note_on_c, 0, 51, 47
4, 30334, Note_on_c, 0, 51, 0
4, 30336, Note_on_c, 0, 48, 45
4, 30496, Note_on_c, 0, 48, 0
4, 30624, Note_on_c, 0, 43, 45
4, 30670, Note_on_c, 0, 43, 0
4, 30672, Note_on_c, 0, 44, 45
4, 30718, Note_on_c, 0, 44, 0
4, 30720, Note_on_c, 0, 47, 45
4, 30728, Note_on_c, 0, 47, 0
4, 30728, Note_on_c, 0, 45, 45
4, 30766, Note_on_c, 0, 45, 0
4, 30768, Note_on_c, 0, 44, 45
4, 30814, Note_on_c, 0, 44, 0
4, 30816, Note_on_c, 0, 49, 45
4, 30862, Note_on_c, 0, 49, 0
4, 30864, Note_on_c, 0, 51, 45
4, 30910, Note_on_c, 0, 51, 0
4, 30912, Note_on_c, 0, 52, 45
4, 31072, Note_on_c, 0, 52, 0
4, 31104, Note_on_c, 0, 37, 45
4, 31264, Note_on_c, 0, 37, 0
4, 31296, Note_on_c, 0, 56, 45
4, 31438, Note_on_c, 0, 56, 0
4, 31440, Note_on_c, 0, 56, 45
4, 31486, Note_on_c, 0, 56, 0
4, 31488, Note_on_c, 0, 56, 63
4, 31648, Note_on_c, 0, 56, 0
4, 31680, Note_on_c, 0, 30, 45
4, 31688, Note_on_c, 0, 30, 0
4, 31688, Note_on_c, 0, 42, 45
4, 31740, Note_on_c, 0, 42, 0
4, 31740, Note_on_c, 0, 49, 45
4, 31812, Note_on_c, 0, 49, 0
4, 31812, Note_on_c, 0, 54, 45
4, 31872, Note_on_c, 0, 54, 0
4, 31872, Note_on_c, 0, 56, 45
4, 31934, Note_on_c, 0, 56, 0
4, 31936, Note_on_c, 0, 59, 45
4, 31998, Note_on_c, 0, 59, 0
4, 32000, Note_on_c, 0, 57, 45
4, 32062, Note_on_c, 0, 57, 0
4, 32064, Note_on_c, 0, 57, 45
4, 32224, Note_on_c, 0, 57, 0
4, 32256, Note_on_c, 0, 48, 45
4, 32416, Note_on_c, 0, 48, 0
4, 32448, Note_on_c, 0, 49, 45
4, 32454, Note_on_c, 0, 49, 0
4, 32456, Note_on_c, 0, 51, 45
4, 32462, Note_on_c, 0, 51, 0
4, 32464, Note_on_c, 0, 49, 45
4, 32470, Note_on_c, 0, 49, 0
4, 32472, Note_on_c, 0, 51, 45
4, 32478, Note_on_c, 0, 51, 0
4, 32480, Note_on_c, 0, 49, 45
4, 32486, Note_on_c, 0, 49, 0
4, 32488, Note_on_c, 0, 51, 45
4, 32494, Note_on_c, 0, 51, 0
4, 32496, Note_on_c, 0, 49, 45
4, 32502, Note_on_c, 0, 49, 0
4, 32504, Note_on_c, 0, 51, 45
4, 32510, Note_on_c, 0, 51, 0
4, 32512, Note_on_c, 0, 49, 45
4, 32518, Note_on_c, 0, 49, 0
4, 32520, Note_on_c, 0, 51, 45
4, 32526, Note_on_c, 0, 51, 0
4, 32528, Note_on_c, 0, 49, 45
4, 32534, Note_on_c, 0, 49, 0
4, 32536, Note_on_c, 0, 51, 45
4, 32542, Note_on_c, 0, 51, 0
4, 32544, Note_on_c, 0, 48, 45
4, 32566, Note_on_c, 0, 48, 0
4, 32568, Note_on_c, 0, 49, 45
4, 32590, Note_on_c, 0, 49, 0
4, 32592, Note_on_c, 0, 51, 45
4, 32614, Note_on_c, 0, 51, 0
4, 32616, Note_on_c, 0, 52, 45
4, 32638, Note_on_c, 0, 52, 0
4, 32640, Note_on_c, 0, 44, 45
4, 32800, Note_on_c, 0, 44, 0
4, 32832, Note_on_c, 0, 31, 75
4, 32840, Note_on_c, 0, 31, 0
4, 32840, Note_on_c, 0, 32, 75
4, 32848, Note_on_c, 0, 32, 0
4, 32848, Note_on_c, 0, 33, 75
4, 32856, Note_on_c, 0, 33, 0
4, 32856, Note_on_c, 0, 34, 75
4, 32868, Note_on_c, 0, 34, 0
4, 32868, Note_on_c, 0, 35, 75
4, 32880, Note_on_c, 0, 35, 0
4, 32880, Note_on_c, 0, 36, 75
4, 32892, Note_on_c, 0, 36, 0
4, 32892, Note_on_c, 0, 37, 75
4, 32904, Note_on_c, 0, 37, 0
4, 32904, Note_on_c, 0, 38, 75
4, 32916, Note_on_c, 0, 38, 0
4, 32916, Note_on_c, 0, 39, 75
4, 32928, Note_on_c, 0, 39, 0
4, 32928, Note_on_c, 0, 40, 75
4, 32940, Note_on_c, 0, 40, 0
4, 32940, Note_on_c, 0, 41, 75
4, 32952, Note_on_c, 0, 41, 0
4, 32952, Note_on_c, 0, 42, 75
4, 32964, Note_on_c, 0, 42, 0
4, 32964, Note_on_c, 0, 43, 75
4, 32976, Note_on_c, 0, 43, 0
4, 32976, Note_on_c, 0, 44, 75
4, 32988, Note_on_c, 0, 44, 0
4, 32988, Note_on_c, 0, 45, 75
4, 33000, Note_on_c, 0, 45, 0
4, 33000, Note_on_c, 0, 46, 75
4, 33012, Note_on_c, 0, 46, 0
4, 33012, Note_on_c, 0, 47, 75
4, 33024, Note_on_c, 0, 47, 0
4, 33024, Note_on_c, 0, 48, 76
4, 33036, Note_on_c, 0, 48, 0
4, 33036, Note_on_c, 0, 49, 77
4, 33048, Note_on_c, 0, 49, 0
4, 33048, Note_on_c, 0, 50, 78
4, 33060, Note_on_c, 0, 50, 0
4, 33060, Note_on_c, 0, 51, 79
4, 33072, Note_on_c, 0, 51, 0
4, 33072, Note_on_c, 0, 52, 80
4, 33084, Note_on_c, 0, 52, 0
4, 33084, Note_on_c, 0, 53, 81
4, 33096, Note_on_c, 0, 53, 0
4, 33096, Note_on_c, 0, 54, 82
4, 33108, Note_on_c, 0, 54, 0
4, 33108, Note_on_c, 0, 55, 83
4, 33120, Note_on_c, 0, 55, 0
4, 33120, Note_on_c, 0, 56, 84
4, 33132, Note_on_c, 0, 56, 0
4, 33132, Note_on_c, 0, 57, 85
4, 33144, Note_on_c, 0, 57, 0
4, 33144, Note_on_c, 0, 58, 86
4, 33156, Note_on_c, 0, 58, 0
4, 33156, Note_on_c, 0, 59, 87
4, 33168, Note_on_c, 0, 59, 0
4, 33168, Note_on_c, 0, 60, 88
4, 33180, Note_on_c, 0, 60, 0
4, 33180, Note_on_c, 0, 61, 89
4, 33192, Note_on_c, 0, 61, 0
4, 33192, Note_on_c, 0, 62, 90
4, 33204, Note_on_c, 0, 62, 0
4, 33204, Note_on_c, 0, 63, 91
4, 33214, Note_on_c, 0, 63, 0
4, 33216, Note_on_c, 0, 64, 92
4, 33600, Note_on_c, 0, 64, 0
4, 33600, Note_on_c, 0, 63, 75
4, 33744, Note_on_c, 0, 63, 0
4, 33744, Note_on_c, 0, 61, 70
4, 33792, Note_on_c, 0, 61, 0
4, 33792, Note_on_c, 0, 61, 69
4, 34104, Note_on_c, 0, 61, 0
4, 34104, Note_on_c, 0, 60, 56
4, 34128, Note_on_c, 0, 60, 0
4, 34128, Note_on_c, 0, 63, 55
4, 34152, Note_on_c, 0, 63, 0
4, 34152, Note_on_c, 0, 61, 54
4, 34176, Note_on_c, 0, 61, 0
4, 34176, Note_on_c, 0, 59, 53
4, 34320, Note_on_c, 0, 59, 0
4, 34320, Note_on_c, 0, 57, 47
4, 34368, Note_on_c, 0, 57, 0
4, 34368, Note_on_c, 0, 57, 45
4, 34560, Note_on_c, 0, 57, 0
4, 34560, Note_on_c, 0, 56, 45
4, 34752, Note_on_c, 0, 56, 0
4, 34752, Note_on_c, 0, 53, 45
4, 34760, Note_on_c, 0, 53, 0
4, 34760, Note_on_c, 0, 54, 45
4, 34768, Note_on_c, 0, 54, 0
4, 34768, Note_on_c, 0, 56, 45
4, 34776, Note_on_c, 0, 56, 0
4, 34776, Note_on_c, 0, 54, 45
4, 34784, Note_on_c, 0, 54, 0
4, 34784, Note_on_c, 0, 56, 45
4, 34792, Note_on_c, 0, 56, 0
4, 34792, Note_on_c, 0, 54, 45
4, 34800, Note_on_c, 0, 54, 0
4, 34800, Note_on_c, 0, 56, 45
4, 34808, Note_on_c, 0, 56, 0
4, 34808, Note_on_c, 0, 54, 45
4, 34816, Note_on_c, 0, 54, 0
4, 34816, Note_on_c, 0, 56, 45
4, 34824, Note_on_c, 0, 56, 0
4, 34824, Note_on_c, 0, 54, 45
4, 34832, Note_on_c, 0, 54, 0
4, 34832, Note_on_c, 0, 56, 45
4, 34840, Note_on_c, 0, 56, 0
4, 34840, Note_on_c, 0, 54, 45
4, 34848, Note_on_c, 0, 54, 0
4, 34848, Note_on_c, 0, 56, 45
4, 34856, Note_on_c, 0, 56, 0
4, 34856, Note_on_c, 0, 54, 45
4, 34864, Note_on_c, 0, 54, 0
4, 34864, Note_on_c, 0, 56, 45
4, 34872, Note_on_c, 0, 56, 0
4, 34872, Note_on_c, 0, 54, 45
4, 34880, Note_on_c, 0, 54, 0
4, 34880, Note_on_c, 0, 56, 45
4, 34888, Note_on_c, 0, 56, 0
4, 34888, Note_on_c, 0, 54, 45
4, 34896, Note_on_c, 0, 54, 0
4, 34896, Note_on_c, 0, 56, 45
4, 34904, Note_on_c, 0, 56, 0
4, 34904, Note_on_c, 0, 54, 45
4, 34912, Note_on_c, 0, 54, 0
4, 34912, Note_on_c, 0, 56, 45
4, 34920, Note_on_c, 0, 56, 0
4, 34920, Note_on_c, 0, 54, 45
4, 34928, Note_on_c, 0, 54, 0
4, 34928, Note_on_c, 0, 56, 45
4, 34936, Note_on_c, 0, 56, 0
4, 34936, Note_on_c, 0, 54, 45
4, 34944, Note_on_c, 0, 54, 0
4, 34944, Note_on_c, 0, 53, 45
4, 35136, Note_on_c, 0, 53, 0
4, 35136, Note_on_c, 0, 68, 63
4, 35296, Note_on_c, 0, 68, 0
4, 35328, Note_on_c, 0, 41, 63
4, 35520, Note_on_c, 0, 41, 0
4, 35520, Note_on_c, 0, 42, 45
4, 35568, Note_on_c, 0, 42, 0
4, 35568, Note_on_c, 0, 44, 45
4, 35616, Note_on_c, 0, 44, 0
4, 35616, Note_on_c, 0, 42, 45
4, 35664, Note_on_c, 0, 42, 0
4, 35664, Note_on_c, 0, 41, 45
4, 35712, Note_on_c, 0, 41, 0
4, 35712, Note_on_c, 0, 42, 45
4, 35760, Note_on_c, 0, 42, 0
4, 35760, Note_on_c, 0, 44, 47
4, 35808, Note_on_c, 0, 44, 0
4, 35808, Note_on_c, 0, 45, 49
4, 35856, Note_on_c, 0, 45, 0
4, 35856, Note_on_c, 0, 44, 51
4, 35904, Note_on_c, 0, 44, 0
4, 35904, Note_on_c, 0, 47, 53
4, 35952, Note_on_c, 0, 47, 0
4, 35952, Note_on_c, 0, 45, 55
4, 36000, Note_on_c, 0, 45, 0
4, 36000, Note_on_c, 0, 44, 57
4, 36048, Note_on_c, 0, 44, 0
4, 36048, Note_on_c, 0, 42, 60
4, 36096, Note_on_c, 0, 42, 0
4, 36096, Note_on_c, 0, 52, 63
4, 36144, Note_on_c, 0, 52, 0
4, 36144, Note_on_c, 0, 51, 66
4, 36192, Note_on_c, 0, 51, 0
4, 36192, Note_on_c, 0, 50, 69
4, 36240, Note_on_c, 0, 50, 0
4, 36240, Note_on_c, 0, 51, 72
4, 36288, Note_on_c, 0, 51, 0
4, 36288, Note_on_c, 0, 59, 60
4, 36336, Note_on_c, 0, 59, 0
4, 36336, Note_on_c, 0, 57, 60
4, 36384, Note_on_c, 0, 57, 0
4, 36384, Note_on_c, 0, 56, 60
4, 36432, Note_on_c, 0, 56, 0
4, 36432, Note_on_c, 0, 54, 60
4, 36480, Note_on_c, 0, 54, 0
4, 36480, Note_on_c, 0, 52, 60
4, 36528, Note_on_c, 0, 52, 0
4, 36528, Note_on_c, 0, 51, 60
4, 36576, Note_on_c, 0, 51, 0
4, 36576, Note_on_c, 0, 54, 55
4, 36624, Note_on_c, 0, 54, 0
4, 36624, Note_on_c, 0, 57, 50
4, 36672, Note_on_c, 0, 57, 0
4, 36672, Note_on_c, 0, 44, 45
4, 36720, Note_on_c, 0, 44, 0
4, 36720, Note_on_c, 0, 49, 45
4, 36768, Note_on_c, 0, 49, 0
4, 36768, Note_on_c, 0, 52, 45
4, 36816, Note_on_c, 0, 52, 0
4, 36816, Note_on_c, 0, 49, 45
4, 36864, Note_on_c, 0, 49, 0
4, 36864, Note_on_c, 0, 56, 45
4, 37152, Note_on_c, 0, 56, 0
4, 37152, Note_on_c, 0, 52, 45
4, 37246, Note_on_c, 0, 52, 0
4, 37248, Note_on_c, 0, 61, 45
4, 37296, Note_on_c, 0, 61, 0
4, 37296, Note_on_c, 0, 56, 45
4, 37344, Note_on_c, 0, 56, 0
4, 37344, Note_on_c, 0, 57, 45
4, 37392, Note_on_c, 0, 57, 0
4, 37392, Note_on_c, 0, 52, 45
4, 37440, Note_on_c, 0, 52, 0
4, 37440, Note_on_c, 0, 56, 45
4, 37632, Note_on_c, 0, 56, 0
4, 37632, Note_on_c, 0, 61, 45
4, 37680, Note_on_c, 0, 61, 0
4, 37680, Note_on_c, 0, 56, 45
4, 37728, Note_on_c, 0, 56, 0
4, 37728, Note_on_c, 0, 57, 45
4, 37776, Note_on_c, 0, 57, 0
4, 37776, Note_on_c, 0, 52, 45
4, 37824, Note_on_c, 0, 52, 0
4, 37824, Note_on_c, 0, 56, 45
4, 38016, Note_on_c, 0, 56, 0
4, 38016, Note_on_c, 0, 57, 45
4, 38064, Note_on_c, 0, 57, 0
4, 38064, Note_on_c, 0, 52, 45
4, 38112, Note_on_c, 0, 52, 0
4, 38112, Note_on_c, 0, 56, 45
4, 38184, Note_on_c, 0, 56, 0
4, 38184, Note_on_c, 0, 49, 45
4, 38208, Note_on_c, 0, 49, 0
4, 38208, Note_on_c, 0, 52, 45
4, 38638, Note_on_c, 0, 52, 0
4, 38640, Note_on_c, 0, 43, 57
4, 38688, Note_on_c, 0, 43, 0
4, 38688, Note_on_c, 0, 45, 59
4, 38736, Note_on_c, 0, 45, 0
4, 38736, Note_on_c, 0, 44, 61
4, 38784, Note_on_c, 0, 44, 0
4, 38784, Note_on_c, 0, 51, 63
4, 38928, Note_on_c, 0, 51, 0
4, 38928, Note_on_c, 0, 49, 72
4, 38976, Note_on_c, 0, 49, 0
4, 38976, Note_on_c, 0, 49, 75
4, 39214, Note_on_c, 0, 49, 0
4, 39216, Note_on_c, 0, 41, 72
4, 39264, Note_on_c, 0, 41, 0
4, 39264, Note_on_c, 0, 44, 69
4, 39312, Note_on_c, 0, 44, 0
4, 39312, Note_on_c, 0, 42, 65
4, 39360, Note_on_c, 0, 42, 0
4, 39360, Note_on_c, 0, 47, 61
4, 39600, Note_on_c, 0, 47, 0
4, 39600, Note_on_c, 0, 39, 45
4, 39648, Note_on_c, 0, 39, 0
4, 39648, Note_on_c, 0, 42, 45
4, 39696, Note_on_c, 0, 42, 0
4, 39696, Note_on_c, 0, 40, 45
4, 39744, Note_on_c, 0, 40, 0
4, 39744, Note_on_c, 0, 46, 45
4, 39792, Note_on_c, 0, 46, 0
4, 39792, Note_on_c, 0, 38, 45
4, 39840, Note_on_c, 0, 38, 0
4, 39840, Note_on_c, 0, 40, 45
4, 39888, Note_on_c, 0, 40, 0
4, 39888, Note_on_c, 0, 39, 45
4, 39936, Note_on_c, 0, 39, 0
4, 39936, Note_on_c, 0, 45, 45
4, 40080, Note_on_c, 0, 45, 0
4, 40080, Note_on_c, 0, 44, 45
4, 40128, Note_on_c, 0, 44, 0
4, 40128, Note_on_c, 0, 37, 45
4, 40366, Note_on_c, 0, 37, 0
4, 40368, Note_on_c, 0, 39, 45
4, 40416, Note_on_c, 0, 39, 0
4, 40416, Note_on_c, 0, 42, 45
4, 40464, Note_on_c, 0, 42, 0
4, 40464, Note_on_c, 0, 40, 45
4, 40512, Note_on_c, 0, 40, 0
4, 40512, Note_on_c, 0, 45, 45
4, 40656, Note_on_c, 0, 45, 0
4, 40656, Note_on_c, 0, 44, 45
4, 40704, Note_on_c, 0, 44, 0
4, 40704, Note_on_c, 0, 37, 45
4, 40752, Note_on_c, 0, 37, 0
4, 40752, Note_on_c, 0, 39, 45
4, 40800, Note_on_c, 0, 39, 0
4, 40800, Note_on_c, 0, 42, 45
4, 40848, Note_on_c, 0, 42, 0
4, 40848, Note_on_c, 0, 40, 45
4, 40896, Note_on_c, 0, 40, 0
4, 40896, Note_on_c, 0, 45, 45
4, 40990, Note_on_c, 0, 45, 0
4, 41184, Note_on_c, 0, 44, 45
4, 41280, Note_on_c, 0, 44, 0
4, 41280, Note_on_c, 0, 37, 45
4, 41440, Note_on_c, 0, 37, 0
4, 41664, Control_c, 0, 64, 127
4, 41664, Note_on_c, 0, 37, 45
4, 41664, Note_on_c, 0, 44, 45
4, 41784, Note_on_c, 0, 37, 0
4, 41784, Note_on_c, 0, 44, 0
4, 41856, Note_on_c, 0, 37, 45
4, 41856, Note_on_c, 0, 44, 45
4, 42000, Note_on_c, 0, 37, 0
4, 42000, Note_on_c, 0, 44, 0
4, 42432, Control_c, 0, 64, 0
4, 42432, End_track
0, 0, End_of_file