0, 0, Header, 1, 2, 480
1, 0, Start_track
1, 0, Title_t, "Etude in D flat Major Opus 25 No 8 by Frederic Chopin"
1, 0, Copyright_t, "\251Copyright 3-5-2001 Performed by Larry Ellis"
1, 0, SMPTE_offset, 0, 0, 0, 0, 0
1, 0, Tempo, 402684
1, 0, Time_signature, 4, 2, 24, 8
1, 0, Key_signature, -5, "major"
1, 24940, Tempo, 521739
1, 24960, Tempo, 402684
1, 47970, Tempo, 500000
1, 48000, Tempo, 402684
1, 67200, Tempo, 428571
1, 67600, Tempo, 582524
1, 67680, Tempo, 428571
1, 68080, Tempo, 659340
1, 68160, Tempo, 419580
1, 68560, Tempo, 722891
1, 68640, Tempo, 461538
1, 69040, Tempo, 1090909
1, 69120, Tempo, 1200000
1, 69120, End_track
2, 0, Start_track
2, 0, Title_t, "Etude in Db Major Op 25 No 8 by Frederic Chopin"
2, 0, MIDI_port, 0
2, 0, Channel_prefix, 2
2, 0, Control_c, 2, 10, 64
2, 1920, Note_on_c, 2, 75, 62
2, 1920, Note_on_c, 2, 66, 62
2, 1920, Control_c, 2, 64, 127
2, 1920, Control_c, 2, 64, 127
2, 1920, Note_on_c, 2, 32, 77
2, 2080, Note_on_c, 2, 77, 59
2, 2080, Note_on_c, 2, 68, 59
2, 2080, Note_on_c, 2, 56, 57
2, 2080, Note_on_c, 2, 48, 57
2, 2088, Note_off_c, 2, 32, 64
2, 2088, Note_off_c, 2, 66, 64
2, 2088, Note_off_c, 2, 75, 64
2, 2240, Note_on_c, 2, 75, 47
2, 2240, Note_on_c, 2, 66, 65
2, 2240, Note_on_c, 2, 51, 57
2, 2240, Note_on_c, 2, 60, 57
2, 2248, Note_off_c, 2, 77, 64
2, 2248, Note_off_c, 2, 68, 64
2, 2248, Note_off_c, 2, 56, 64
2, 2248, Note_off_c, 2, 48, 64
2, 2400, Note_on_c, 2, 77, 65
2, 2400, Note_on_c, 2, 68, 62
2, 2400, Note_on_c, 2, 63, 57
2, 2400, Note_on_c, 2, 56, 57
2, 2408, Note_off_c, 2, 75, 64
2, 2408, Note_off_c, 2, 66, 64
2, 2408, Note_off_c, 2, 51, 64
2, 2408, Note_off_c, 2, 60, 64
2, 2560, Note_on_c, 2, 75, 52
2, 2560, Note_on_c, 2, 66, 62
2, 2560, Note_on_c, 2, 60, 57
2, 2560, Note_on_c, 2, 51, 57
2, 2568, Note_off_c, 2, 77, 64
2, 2568, Note_off_c, 2, 68, 64
2, 2568, Note_off_c, 2, 63, 64
2, 2568, Note_off_c, 2, 56, 64
2, 2720, Note_on_c, 2, 77, 61
2, 2720, Note_on_c, 2, 68, 62
2, 2720, Note_on_c, 2, 56, 57
2, 2720, Note_on_c, 2, 48, 57
2, 2728, Note_off_c, 2, 75, 64
2, 2728, Note_off_c, 2, 66, 64
2, 2728, Note_off_c, 2, 60, 64
2, 2728, Note_off_c, 2, 51, 64
2, 2860, Control_c, 2, 64, 0
2, 2860, Control_c, 2, 64, 0
2, 2870, Note_off_c, 2, 77, 64
2, 2870, Note_off_c, 2, 68, 64
2, 2870, Note_off_c, 2, 56, 64
2, 2870, Note_off_c, 2, 48, 64
2, 2880, Control_c, 2, 64, 127
2, 2880, Note_on_c, 2, 65, 62
2, 2880, Note_on_c, 2, 73, 62
2, 2880, Control_c, 2, 64, 127
2, 2880, Note_on_c, 2, 37, 75
2, 3040, Note_on_c, 2, 66, 62
2, 3040, Note_on_c, 2, 75, 64
2, 3040, Note_on_c, 2, 49, 57
2, 3040, Note_on_c, 2, 56, 57
2, 3048, Note_off_c, 2, 37, 64
2, 3048, Note_off_c, 2, 73, 64
2, 3048, Note_off_c, 2, 65, 64
2, 3200, Note_on_c, 2, 67, 62
2, 3200, Note_on_c, 2, 76, 68
2, 3200, Note_on_c, 2, 53, 57
2, 3200, Note_on_c, 2, 61, 57
2, 3208, Note_off_c, 2, 66, 64
2, 3208, Note_off_c, 2, 75, 64
2, 3208, Note_off_c, 2, 49, 64
2, 3208, Note_off_c, 2, 56, 64
2, 3360, Control_c, 2, 64, 0
2, 3360, Note_on_c, 2, 70, 62
2, 3360, Note_on_c, 2, 78, 72
2, 3360, Note_on_c, 2, 49, 57
2, 3360, Note_on_c, 2, 56, 57
2, 3368, Note_off_c, 2, 67, 64
2, 3368, Note_off_c, 2, 76, 64
2, 3368, Note_off_c, 2, 53, 64
2, 3368, Note_off_c, 2, 61, 64
2, 3517, Note_off_c, 2, 70, 64
2, 3517, Note_off_c, 2, 78, 64
2, 3520, Control_c, 2, 64, 127
2, 3520, Note_on_c, 2, 68, 62
2, 3520, Note_on_c, 2, 77, 62
2, 3520, Note_on_c, 2, 53, 57
2, 3520, Note_on_c, 2, 61, 57
2, 3528, Note_off_c, 2, 49, 64
2, 3528, Note_off_c, 2, 56, 64
2, 3680, Note_on_c, 2, 65, 62
2, 3680, Note_on_c, 2, 73, 50
2, 3680, Note_on_c, 2, 49, 57
2, 3680, Note_on_c, 2, 56, 57
2, 3688, Note_off_c, 2, 68, 64
2, 3688, Note_off_c, 2, 77, 64
2, 3688, Note_off_c, 2, 53, 64
2, 3688, Note_off_c, 2, 61, 64
2, 3820, Control_c, 2, 64, 0
2, 3820, Control_c, 2, 64, 0
2, 3830, Note_off_c, 2, 65, 64
2, 3830, Note_off_c, 2, 73, 64
2, 3830, Note_off_c, 2, 49, 64
2, 3830, Note_off_c, 2, 56, 64
2, 3840, Control_c, 2, 64, 127
2, 3840, Note_on_c, 2, 68, 70
2, 3840, Note_on_c, 2, 77, 70
2, 3840, Control_c, 2, 64, 127
2, 3840, Note_on_c, 2, 32, 79
2, 4000, Note_on_c, 2, 66, 59
2, 4000, Note_on_c, 2, 75, 59
2, 4000, Note_on_c, 2, 56, 57
2, 4000, Note_on_c, 2, 48, 57
2, 4008, Note_off_c, 2, 32, 64
2, 4008, Note_off_c, 2, 77, 64
2, 4008, Note_off_c, 2, 68, 64
2, 4160, Note_on_c, 2, 68, 70
2, 4160, Note_on_c, 2, 77, 70
2, 4160, Note_on_c, 2, 51, 57
2, 4160, Note_on_c, 2, 60, 57
2, 4168, Note_off_c, 2, 66, 64
2, 4168, Note_off_c, 2, 75, 64
2, 4168, Note_off_c, 2, 56, 64
2, 4168, Note_off_c, 2, 48, 64
2, 4320, Note_on_c, 2, 66, 62
2, 4320, Note_on_c, 2, 75, 65
2, 4320, Note_on_c, 2, 63, 57
2, 4320, Note_on_c, 2, 56, 57
2, 4328, Note_off_c, 2, 68, 64
2, 4328, Note_off_c, 2, 77, 64
2, 4328, Note_off_c, 2, 51, 64
2, 4328, Note_off_c, 2, 60, 64
2, 4480, Note_on_c, 2, 68, 62
2, 4480, Note_on_c, 2, 77, 52
2, 4480, Note_on_c, 2, 60, 57
2, 4480, Note_on_c, 2, 51, 57
2, 4488, Note_off_c, 2, 66, 64
2, 4488, Note_off_c, 2, 75, 64
2, 4488, Note_off_c, 2, 63, 64
2, 4488, Note_off_c, 2, 56, 64
2, 4640, Note_on_c, 2, 66, 62
2, 4640, Note_on_c, 2, 75, 61
2, 4640, Note_on_c, 2, 56, 57
2, 4640, Note_on_c, 2, 48, 57
2, 4648, Note_off_c, 2, 68, 64
2, 4648, Note_off_c, 2, 77, 64
2, 4648, Note_off_c, 2, 60, 64
2, 4648, Note_off_c, 2, 51, 64
2, 4780, Control_c, 2, 64, 0
2, 4780, Control_c, 2, 64, 0
2, 4790, Note_off_c, 2, 66, 64
2, 4790, Note_off_c, 2, 75, 64
2, 4790, Note_off_c, 2, 56, 64
2, 4790, Note_off_c, 2, 48, 64
2, 4800, Control_c, 2, 64, 127
2, 4800, Note_on_c, 2, 65, 62
2, 4800, Note_on_c, 2, 73, 62
2, 4800, Control_c, 2, 64, 127
2, 4800, Note_on_c, 2, 37, 75
2, 4960, Note_on_c, 2, 66, 62
2, 4960, Note_on_c, 2, 75, 64
2, 4960, Note_on_c, 2, 49, 57
2, 4960, Note_on_c, 2, 56, 57
2, 4968, Note_off_c, 2, 37, 64
2, 4968, Note_off_c, 2, 73, 64
2, 4968, Note_off_c, 2, 65, 64
2, 5120, Note_on_c, 2, 67, 68
2, 5120, Note_on_c, 2, 76, 68
2, 5120, Note_on_c, 2, 53, 57
2, 5120, Note_on_c, 2, 61, 57
2, 5128, Note_off_c, 2, 66, 64
2, 5128, Note_off_c, 2, 75, 64
2, 5128, Note_off_c, 2, 49, 64
2, 5128, Note_off_c, 2, 56, 64
2, 5277, Note_off_c, 2, 67, 64
2, 5277, Note_off_c, 2, 76, 64
2, 5280, Control_c, 2, 64, 0
2, 5280, Note_on_c, 2, 70, 72
2, 5280, Note_on_c, 2, 78, 72
2, 5280, Note_on_c, 2, 49, 57
2, 5280, Note_on_c, 2, 56, 57
2, 5288, Note_off_c, 2, 53, 64
2, 5288, Note_off_c, 2, 61, 64
2, 5440, Control_c, 2, 64, 127
2, 5440, Note_on_c, 2, 68, 62
2, 5440, Note_on_c, 2, 77, 62
2, 5440, Note_on_c, 2, 53, 57
2, 5440, Note_on_c, 2, 61, 57
2, 5448, Note_off_c, 2, 70, 64
2, 5448, Note_off_c, 2, 78, 64
2, 5448, Note_off_c, 2, 49, 64
2, 5448, Note_off_c, 2, 56, 64
2, 5600, Note_on_c, 2, 65, 62
2, 5600, Control_c, 2, 64, 0
2, 5600, Note_on_c, 2, 73, 50
2, 5600, Note_on_c, 2, 49, 57
2, 5600, Note_on_c, 2, 56, 57
2, 5608, Note_off_c, 2, 68, 64
2, 5608, Note_off_c, 2, 77, 64
2, 5608, Note_off_c, 2, 53, 64
2, 5608, Note_off_c, 2, 61, 64
2, 5740, Control_c, 2, 64, 0
2, 5750, Note_off_c, 2, 65, 64
2, 5750, Note_off_c, 2, 73, 64
2, 5750, Note_off_c, 2, 49, 64
2, 5750, Note_off_c, 2, 56, 64
2, 5760, Control_c, 2, 64, 127
2, 5760, Note_on_c, 2, 75, 62
2, 5760, Note_on_c, 2, 67, 62
2, 5760, Control_c, 2, 64, 127
2, 5760, Note_on_c, 2, 39, 77
2, 5920, Note_on_c, 2, 77, 59
2, 5920, Note_on_c, 2, 68, 59
2, 5920, Note_on_c, 2, 51, 57
2, 5920, Note_on_c, 2, 61, 57
2, 5928, Note_off_c, 2, 39, 64
2, 5928, Note_off_c, 2, 67, 64
2, 5928, Note_off_c, 2, 75, 64
2, 6080, Note_on_c, 2, 78, 47
2, 6080, Note_on_c, 2, 69, 65
2, 6080, Note_on_c, 2, 63, 57
2, 6080, Note_on_c, 2, 58, 57
2, 6088, Note_off_c, 2, 77, 64
2, 6088, Note_off_c, 2, 68, 64
2, 6088, Note_off_c, 2, 51, 64
2, 6088, Note_off_c, 2, 61, 64
2, 6240, Note_on_c, 2, 79, 65
2, 6240, Note_on_c, 2, 70, 62
2, 6240, Note_on_c, 2, 61, 57
2, 6240, Note_on_c, 2, 67, 57
2, 6248, Note_off_c, 2, 78, 64
2, 6248, Note_off_c, 2, 69, 64
2, 6248, Note_off_c, 2, 63, 64
2, 6248, Note_off_c, 2, 58, 64
2, 6400, Note_on_c, 2, 80, 52
2, 6400, Note_on_c, 2, 72, 62
2, 6400, Note_on_c, 2, 63, 57
2, 6400, Note_on_c, 2, 58, 57
2, 6408, Note_off_c, 2, 79, 64
2, 6408, Note_off_c, 2, 70, 64
2, 6408, Note_off_c, 2, 61, 64
2, 6408, Note_off_c, 2, 67, 64
2, 6560, Note_on_c, 2, 82, 61
2, 6560, Note_on_c, 2, 73, 62
2, 6560, Note_on_c, 2, 51, 57
2, 6560, Note_on_c, 2, 61, 57
2, 6568, Note_off_c, 2, 80, 64
2, 6568, Note_off_c, 2, 72, 64
2, 6568, Note_off_c, 2, 63, 64
2, 6568, Note_off_c, 2, 58, 64
2, 6700, Control_c, 2, 64, 0
2, 6700, Control_c, 2, 64, 0
2, 6710, Note_off_c, 2, 82, 64
2, 6710, Note_off_c, 2, 73, 64
2, 6710, Note_off_c, 2, 51, 64
2, 6710, Note_off_c, 2, 61, 64
2, 6720, Note_on_c, 2, 74, 62
2, 6720, Note_on_c, 2, 83, 62
2, 6720, Note_on_c, 2, 44, 81
2, 6804, Note_off_c, 2, 44, 64
2, 6880, Note_on_c, 2, 75, 62
2, 6880, Note_on_c, 2, 84, 64
2, 6880, Note_on_c, 2, 56, 57
2, 6880, Note_on_c, 2, 63, 57
2, 6888, Note_off_c, 2, 83, 64
2, 6888, Note_off_c, 2, 74, 64
2, 7040, Note_on_c, 2, 85, 68
2, 7040, Note_on_c, 2, 76, 62
2, 7040, Note_on_c, 2, 60, 63
2, 7040, Note_on_c, 2, 68, 63
2, 7048, Note_off_c, 2, 75, 64
2, 7048, Note_off_c, 2, 84, 64
2, 7048, Note_off_c, 2, 56, 64
2, 7048, Note_off_c, 2, 63, 64
2, 7190, Control_c, 2, 64, 0
2, 7200, Control_c, 2, 64, 0
2, 7200, Note_on_c, 2, 78, 62
2, 7200, Note_on_c, 2, 87, 72
2, 7200, Note_on_c, 2, 56, 75
2, 7200, Note_on_c, 2, 49, 75
2, 7208, Note_off_c, 2, 85, 64
2, 7208, Note_off_c, 2, 76, 64
2, 7208, Note_off_c, 2, 60, 64
2, 7208, Note_off_c, 2, 68, 64
2, 7284, Note_off_c, 2, 49, 64
2, 7357, Note_off_c, 2, 78, 64
2, 7357, Note_off_c, 2, 87, 64
2, 7360, Note_on_c, 2, 77, 62
2, 7360, Note_on_c, 2, 85, 62
2, 7360, Note_on_c, 2, 61, 57
2, 7360, Note_on_c, 2, 53, 57
2, 7368, Note_off_c, 2, 56, 64
2, 7520, Note_on_c, 2, 80, 50
2, 7520, Note_on_c, 2, 72, 62
2, 7520, Note_on_c, 2, 65, 64
2, 7520, Note_on_c, 2, 56, 64
2, 7528, Note_off_c, 2, 77, 64
2, 7528, Note_off_c, 2, 85, 64
2, 7528, Note_off_c, 2, 61, 64
2, 7528, Note_off_c, 2, 53, 64
2, 7660, Control_c, 2, 64, 0
2, 7660, Control_c, 2, 64, 0
2, 7670, Note_off_c, 2, 80, 64
2, 7670, Note_off_c, 2, 72, 64
2, 7670, Note_off_c, 2, 65, 64
2, 7670, Note_off_c, 2, 56, 64
2, 7680, Note_on_c, 2, 84, 70
2, 7680, Note_on_c, 2, 75, 70
2, 7680, Note_on_c, 2, 51, 83
2, 7680, Control_c, 2, 64, 127
2, 7840, Note_on_c, 2, 73, 59
2, 7840, Note_on_c, 2, 82, 59
2, 7840, Note_on_c, 2, 55, 62
2, 7840, Note_on_c, 2, 63, 62
2, 7848, Note_off_c, 2, 51, 64
2, 7848, Note_off_c, 2, 75, 64
2, 7848, Note_off_c, 2, 84, 64
2, 8000, Note_on_c, 2, 84, 70
2, 8000, Note_on_c, 2, 75, 70
2, 8000, Note_on_c, 2, 67, 65
2, 8000, Note_on_c, 2, 58, 65
2, 8008, Note_off_c, 2, 73, 64
2, 8008, Note_off_c, 2, 82, 64
2, 8008, Note_off_c, 2, 55, 64
2, 8008, Note_off_c, 2, 63, 64
2, 8160, Note_on_c, 2, 82, 65
2, 8160, Note_on_c, 2, 73, 62
2, 8160, Note_on_c, 2, 70, 62
2, 8160, Note_on_c, 2, 63, 62
2, 8168, Note_off_c, 2, 84, 64
2, 8168, Note_off_c, 2, 75, 64
2, 8168, Note_off_c, 2, 67, 64
2, 8168, Note_off_c, 2, 58, 64
2, 8320, Note_on_c, 2, 84, 52
2, 8320, Note_on_c, 2, 75, 62
2, 8320, Note_on_c, 2, 58, 69
2, 8320, Note_on_c, 2, 67, 69
2, 8328, Note_off_c, 2, 82, 64
2, 8328, Note_off_c, 2, 73, 64
2, 8328, Note_off_c, 2, 70, 64
2, 8328, Note_off_c, 2, 63, 64
2, 8480, Note_on_c, 2, 82, 61
2, 8480, Note_on_c, 2, 73, 62
2, 8480, Note_on_c, 2, 63, 62
2, 8480, Note_on_c, 2, 55, 62
2, 8488, Note_off_c, 2, 84, 64
2, 8488, Note_off_c, 2, 75, 64
2, 8488, Note_off_c, 2, 58, 64
2, 8488, Note_off_c, 2, 67, 64
2, 8620, Control_c, 2, 64, 0
2, 8620, Control_c, 2, 64, 0
2, 8630, Note_off_c, 2, 82, 64
2, 8630, Note_off_c, 2, 73, 64
2, 8630, Note_off_c, 2, 63, 64
2, 8630, Note_off_c, 2, 55, 64
2, 8640, Control_c, 2, 64, 127
2, 8640, Note_on_c, 2, 80, 62
2, 8640, Note_on_c, 2, 72, 62
2, 8640, Control_c, 2, 64, 127
2, 8640, Note_on_c, 2, 60, 75
2, 8640, Note_on_c, 2, 68, 75
2, 8800, Note_on_c, 2, 82, 64
2, 8800, Note_on_c, 2, 73, 62
2, 8800, Note_on_c, 2, 56, 54
2, 8800, Note_on_c, 2, 65, 54
2, 8808, Note_off_c, 2, 68, 64
2, 8808, Note_off_c, 2, 60, 64
2, 8808, Note_off_c, 2, 72, 64
2, 8808, Note_off_c, 2, 80, 64
2, 8960, Note_on_c, 2, 78, 68
2, 8960, Note_on_c, 2, 70, 68
2, 8960, Note_on_c, 2, 58, 57
2, 8960, Note_on_c, 2, 66, 57
2, 8968, Note_off_c, 2, 82, 64
2, 8968, Note_off_c, 2, 73, 64
2, 8968, Note_off_c, 2, 56, 64
2, 8968, Note_off_c, 2, 65, 64
2, 9117, Note_off_c, 2, 78, 64
2, 9117, Note_off_c, 2, 70, 64
2, 9120, Control_c, 2, 64, 0
2, 9120, Note_on_c, 2, 80, 72
2, 9120, Note_on_c, 2, 72, 72
2, 9120, Note_on_c, 2, 54, 52
2, 9120, Note_on_c, 2, 63, 52
2, 9128, Note_off_c, 2, 58, 64
2, 9128, Note_off_c, 2, 66, 64
2, 9280, Control_c, 2, 64, 127
2, 9280, Note_on_c, 2, 77, 62
2, 9280, Note_on_c, 2, 68, 62
2, 9280, Note_on_c, 2, 56, 54
2, 9280, Note_on_c, 2, 65, 54
2, 9288, Note_off_c, 2, 80, 64
2, 9288, Note_off_c, 2, 72, 64
2, 9288, Note_off_c, 2, 54, 64
2, 9288, Note_off_c, 2, 63, 64
2, 9440, Control_c, 2, 64, 0
2, 9440, Note_on_c, 2, 70, 62
2, 9440, Note_on_c, 2, 78, 50
2, 9440, Note_on_c, 2, 53, 49
2, 9440, Note_on_c, 2, 61, 49
2, 9448, Note_off_c, 2, 77, 64
2, 9448, Note_off_c, 2, 68, 64
2, 9448, Note_off_c, 2, 56, 64
2, 9448, Note_off_c, 2, 65, 64
2, 9580, Control_c, 2, 64, 0
2, 9590, Note_off_c, 2, 70, 64
2, 9590, Note_off_c, 2, 78, 64
2, 9590, Note_off_c, 2, 53, 64
2, 9590, Note_off_c, 2, 61, 64
2, 9600, Control_c, 2, 64, 127
2, 9600, Note_on_c, 2, 66, 62
2, 9600, Note_on_c, 2, 75, 62
2, 9600, Control_c, 2, 64, 127
2, 9600, Note_on_c, 2, 32, 77
2, 9760, Note_on_c, 2, 77, 59
2, 9760, Note_on_c, 2, 68, 59
2, 9760, Note_on_c, 2, 56, 57
2, 9760, Note_on_c, 2, 48, 57
2, 9768, Note_off_c, 2, 32, 64
2, 9768, Note_off_c, 2, 75, 64
2, 9768, Note_off_c, 2, 66, 64
2, 9920, Note_on_c, 2, 75, 47
2, 9920, Note_on_c, 2, 66, 65
2, 9920, Note_on_c, 2, 51, 57
2, 9920, Note_on_c, 2, 60, 57
2, 9928, Note_off_c, 2, 77, 64
2, 9928, Note_off_c, 2, 68, 64
2, 9928, Note_off_c, 2, 56, 64
2, 9928, Note_off_c, 2, 48, 64
2, 10080, Note_on_c, 2, 77, 65
2, 10080, Note_on_c, 2, 68, 62
2, 10080, Note_on_c, 2, 63, 57
2, 10080, Note_on_c, 2, 56, 57
2, 10088, Note_off_c, 2, 75, 64
2, 10088, Note_off_c, 2, 66, 64
2, 10088, Note_off_c, 2, 51, 64
2, 10088, Note_off_c, 2, 60, 64
2, 10240, Note_on_c, 2, 75, 52
2, 10240, Note_on_c, 2, 66, 62
2, 10240, Note_on_c, 2, 60, 57
2, 10240, Note_on_c, 2, 51, 57
2, 10248, Note_off_c, 2, 77, 64
2, 10248, Note_off_c, 2, 68, 64
2, 10248, Note_off_c, 2, 63, 64
2, 10248, Note_off_c, 2, 56, 64
2, 10400, Note_on_c, 2, 77, 61
2, 10400, Note_on_c, 2, 68, 62
2, 10400, Note_on_c, 2, 56, 57
2, 10400, Note_on_c, 2, 48, 57
2, 10408, Note_off_c, 2, 75, 64
2, 10408, Note_off_c, 2, 66, 64
2, 10408, Note_off_c, 2, 60, 64
2, 10408, Note_off_c, 2, 51, 64
2, 10540, Control_c, 2, 64, 0
2, 10540, Control_c, 2, 64, 0
2, 10550, Note_off_c, 2, 77, 64
2, 10550, Note_off_c, 2, 68, 64
2, 10550, Note_off_c, 2, 56, 64
2, 10550, Note_off_c, 2, 48, 64
2, 10560, Control_c, 2, 64, 127
2, 10560, Note_on_c, 2, 65, 62
2, 10560, Note_on_c, 2, 73, 62
2, 10560, Control_c, 2, 64, 127
2, 10560, Note_on_c, 2, 37, 75
2, 10720, Note_on_c, 2, 66, 62
2, 10720, Note_on_c, 2, 75, 64
2, 10720, Note_on_c, 2, 49, 57
2, 10720, Note_on_c, 2, 56, 57
2, 10728, Note_off_c, 2, 37, 64
2, 10728, Note_off_c, 2, 73, 64
2, 10728, Note_off_c, 2, 65, 64
2, 10880, Note_on_c, 2, 67, 62
2, 10880, Note_on_c, 2, 76, 68
2, 10880, Note_on_c, 2, 53, 57
2, 10880, Note_on_c, 2, 61, 57
2, 10888, Note_off_c, 2, 66, 64
2, 10888, Note_off_c, 2, 75, 64
2, 10888, Note_off_c, 2, 49, 64
2, 10888, Note_off_c, 2, 56, 64
2, 11040, Control_c, 2, 64, 0
2, 11040, Note_on_c, 2, 70, 62
2, 11040, Note_on_c, 2, 78, 72
2, 11040, Note_on_c, 2, 49, 57
2, 11040, Note_on_c, 2, 56, 57
2, 11048, Note_off_c, 2, 67, 64
2, 11048, Note_off_c, 2, 76, 64
2, 11048, Note_off_c, 2, 53, 64
2, 11048, Note_off_c, 2, 61, 64
2, 11197, Note_off_c, 2, 70, 64
2, 11197, Note_off_c, 2, 78, 64
2, 11200, Control_c, 2, 64, 127
2, 11200, Note_on_c, 2, 68, 62
2, 11200, Note_on_c, 2, 77, 62
2, 11200, Note_on_c, 2, 53, 57
2, 11200, Note_on_c, 2, 61, 57
2, 11208, Note_off_c, 2, 49, 64
2, 11208, Note_off_c, 2, 56, 64
2, 11360, Note_on_c, 2, 65, 62
2, 11360, Note_on_c, 2, 73, 50
2, 11360, Note_on_c, 2, 49, 57
2, 11360, Note_on_c, 2, 56, 57
2, 11368, Note_off_c, 2, 68, 64
2, 11368, Note_off_c, 2, 77, 64
2, 11368, Note_off_c, 2, 53, 64
2, 11368, Note_off_c, 2, 61, 64
2, 11500, Control_c, 2, 64, 0
2, 11500, Control_c, 2, 64, 0
2, 11510, Note_off_c, 2, 65, 64
2, 11510, Note_off_c, 2, 73, 64
2, 11510, Note_off_c, 2, 49, 64
2, 11510, Note_off_c, 2, 56, 64
2, 11520, Control_c, 2, 64, 127
2, 11520, Note_on_c, 2, 68, 70
2, 11520, Note_on_c, 2, 77, 70
2, 11520, Control_c, 2, 64, 127
2, 11520, Note_on_c, 2, 32, 79
2, 11680, Note_on_c, 2, 66, 59
2, 11680, Note_on_c, 2, 75, 59
2, 11680, Note_on_c, 2, 56, 57
2, 11680, Note_on_c, 2, 48, 57
2, 11688, Note_off_c, 2, 32, 64
2, 11688, Note_off_c, 2, 77, 64
2, 11688, Note_off_c, 2, 68, 64
2, 11840, Note_on_c, 2, 68, 70
2, 11840, Note_on_c, 2, 77, 70
2, 11840, Note_on_c, 2, 60, 66
2, 11840, Note_on_c, 2, 51, 66
2, 11848, Note_off_c, 2, 66, 64
2, 11848, Note_off_c, 2, 75, 64
2, 11848, Note_off_c, 2, 56, 64
2, 11848, Note_off_c, 2, 48, 64
2, 12000, Note_on_c, 2, 66, 62
2, 12000, Note_on_c, 2, 75, 65
2, 12000, Note_on_c, 2, 63, 59
2, 12000, Note_on_c, 2, 56, 59
2, 12008, Note_off_c, 2, 68, 64
2, 12008, Note_off_c, 2, 77, 64
2, 12008, Note_off_c, 2, 60, 64
2, 12008, Note_off_c, 2, 51, 64
2, 12160, Note_on_c, 2, 68, 62
2, 12160, Note_on_c, 2, 77, 52
2, 12160, Note_on_c, 2, 51, 68
2, 12160, Note_on_c, 2, 60, 68
2, 12168, Note_off_c, 2, 66, 64
2, 12168, Note_off_c, 2, 75, 64
2, 12168, Note_off_c, 2, 63, 64
2, 12168, Note_off_c, 2, 56, 64
2, 12320, Note_on_c, 2, 66, 62
2, 12320, Note_on_c, 2, 75, 61
2, 12320, Note_on_c, 2, 56, 59
2, 12320, Note_on_c, 2, 48, 59
2, 12328, Note_off_c, 2, 68, 64
2, 12328, Note_off_c, 2, 77, 64
2, 12328, Note_off_c, 2, 51, 64
2, 12328, Note_off_c, 2, 60, 64
2, 12460, Control_c, 2, 64, 0
2, 12460, Control_c, 2, 64, 0
2, 12470, Note_off_c, 2, 66, 64
2, 12470, Note_off_c, 2, 75, 64
2, 12470, Note_off_c, 2, 56, 64
2, 12470, Note_off_c, 2, 48, 64
2, 12480, Control_c, 2, 64, 127
2, 12480, Note_on_c, 2, 65, 62
2, 12480, Note_on_c, 2, 73, 62
2, 12480, Control_c, 2, 64, 127
2, 12480, Note_on_c, 2, 37, 75
2, 12640, Note_on_c, 2, 66, 62
2, 12640, Note_on_c, 2, 75, 64
2, 12640, Note_on_c, 2, 49, 57
2, 12640, Note_on_c, 2, 56, 57
2, 12648, Note_off_c, 2, 37, 64
2, 12648, Note_off_c, 2, 73, 64
2, 12648, Note_off_c, 2, 65, 64
2, 12800, Note_on_c, 2, 67, 68
2, 12800, Note_on_c, 2, 76, 68
2, 12800, Note_on_c, 2, 61, 69
2, 12800, Note_on_c, 2, 53, 69
2, 12808, Note_off_c, 2, 66, 64
2, 12808, Note_off_c, 2, 75, 64
2, 12808, Note_off_c, 2, 49, 64
2, 12808, Note_off_c, 2, 56, 64
2, 12957, Note_off_c, 2, 67, 64
2, 12957, Note_off_c, 2, 76, 64
2, 12960, Control_c, 2, 64, 0
2, 12960, Note_on_c, 2, 70, 72
2, 12960, Note_on_c, 2, 78, 72
2, 12960, Note_on_c, 2, 49, 57
2, 12960, Note_on_c, 2, 56, 57
2, 12968, Note_off_c, 2, 61, 64
2, 12968, Note_off_c, 2, 53, 64
2, 13120, Control_c, 2, 64, 127
2, 13120, Note_on_c, 2, 68, 62
2, 13120, Note_on_c, 2, 77, 62
2, 13120, Note_on_c, 2, 61, 64
2, 13120, Note_on_c, 2, 53, 64
2, 13128, Note_off_c, 2, 70, 64
2, 13128, Note_off_c, 2, 78, 64
2, 13128, Note_off_c, 2, 49, 64
2, 13128, Note_off_c, 2, 56, 64
2, 13280, Note_on_c, 2, 65, 62
2, 13280, Control_c, 2, 64, 0
2, 13280, Note_on_c, 2, 73, 50
2, 13280, Note_on_c, 2, 49, 57
2, 13280, Note_on_c, 2, 56, 57
2, 13288, Note_off_c, 2, 68, 64
2, 13288, Note_off_c, 2, 77, 64
2, 13288, Note_off_c, 2, 61, 64
2, 13288, Note_off_c, 2, 53, 64
2, 13420, Control_c, 2, 64, 0
2, 13430, Note_off_c, 2, 65, 64
2, 13430, Note_off_c, 2, 73, 64
2, 13430, Note_off_c, 2, 49, 64
2, 13430, Note_off_c, 2, 56, 64
2, 13440, Control_c, 2, 64, 127
2, 13440, Note_on_c, 2, 75, 62
2, 13440, Note_on_c, 2, 66, 62
2, 13440, Control_c, 2, 64, 127
2, 13440, Note_on_c, 2, 42, 77
2, 13600, Note_on_c, 2, 76, 59
2, 13600, Note_on_c, 2, 67, 59
2, 13600, Note_on_c, 2, 61, 57
2, 13600, Note_on_c, 2, 54, 57
2, 13608, Note_off_c, 2, 42, 64
2, 13608, Note_off_c, 2, 66, 64
2, 13608, Note_off_c, 2, 75, 64
2, 13760, Note_on_c, 2, 77, 47
2, 13760, Note_on_c, 2, 68, 65
2, 13760, Note_on_c, 2, 63, 57
2, 13760, Note_on_c, 2, 58, 57
2, 13768, Note_off_c, 2, 76, 64
2, 13768, Note_off_c, 2, 67, 64
2, 13768, Note_off_c, 2, 61, 64
2, 13768, Note_off_c, 2, 54, 64
2, 13920, Note_on_c, 2, 78, 65
2, 13920, Note_on_c, 2, 69, 62
2, 13920, Note_on_c, 2, 66, 57
2, 13920, Note_on_c, 2, 61, 57
2, 13928, Note_off_c, 2, 77, 64
2, 13928, Note_off_c, 2, 68, 64
2, 13928, Note_off_c, 2, 63, 64
2, 13928, Note_off_c, 2, 58, 64
2, 14080, Note_on_c, 2, 79, 52
2, 14080, Note_on_c, 2, 70, 62
2, 14080, Note_on_c, 2, 63, 57
2, 14080, Note_on_c, 2, 58, 57
2, 14088, Note_off_c, 2, 78, 64
2, 14088, Note_off_c, 2, 69, 64
2, 14088, Note_off_c, 2, 66, 64
2, 14088, Note_off_c, 2, 61, 64
2, 14240, Note_on_c, 2, 80, 61
2, 14240, Note_on_c, 2, 71, 62
2, 14240, Note_on_c, 2, 61, 57
2, 14240, Note_on_c, 2, 54, 57
2, 14248, Note_off_c, 2, 79, 64
2, 14248, Note_off_c, 2, 70, 64
2, 14248, Note_off_c, 2, 63, 64
2, 14248, Note_off_c, 2, 58, 64
2, 14380, Control_c, 2, 64, 0
2, 14380, Control_c, 2, 64, 0
2, 14390, Note_off_c, 2, 80, 64
2, 14390, Note_off_c, 2, 71, 64
2, 14390, Note_off_c, 2, 61, 64
2, 14390, Note_off_c, 2, 54, 64
2, 14400, Control_c, 2, 64, 127
2, 14400, Note_on_c, 2, 81, 62
2, 14400, Note_on_c, 2, 72, 62
2, 14400, Control_c, 2, 64, 127
2, 14400, Note_on_c, 2, 42, 75
2, 14560, Note_on_c, 2, 82, 64
2, 14560, Note_on_c, 2, 73, 62
2, 14560, Note_on_c, 2, 54, 57
2, 14560, Note_on_c, 2, 63, 57
2, 14568, Note_off_c, 2, 42, 64
2, 14568, Note_off_c, 2, 72, 64
2, 14568, Note_off_c, 2, 81, 64
2, 14720, Note_on_c, 2, 83, 68
2, 14720, Note_on_c, 2, 74, 62
2, 14720, Note_on_c, 2, 66, 57
2, 14720, Note_on_c, 2, 61, 57
2, 14728, Note_off_c, 2, 82, 64
2, 14728, Note_off_c, 2, 73, 64
2, 14728, Note_off_c, 2, 54, 64
2, 14728, Note_off_c, 2, 63, 64
2, 14880, Control_c, 2, 64, 0
2, 14880, Note_on_c, 2, 84, 72
2, 14880, Note_on_c, 2, 75, 62
2, 14880, Note_on_c, 2, 70, 57
2, 14880, Note_on_c, 2, 63, 57
2, 14888, Note_off_c, 2, 83, 64
2, 14888, Note_off_c, 2, 74, 64
2, 14888, Note_off_c, 2, 66, 64
2, 14888, Note_off_c, 2, 61, 64
2, 15037, Note_off_c, 2, 84, 64
2, 15037, Note_off_c, 2, 75, 64
2, 15040, Control_c, 2, 64, 127
2, 15040, Note_on_c, 2, 85, 62
2, 15040, Note_on_c, 2, 76, 62
2, 15040, Note_on_c, 2, 66, 57
2, 15040, Note_on_c, 2, 61, 57
2, 15048, Note_off_c, 2, 70, 64
2, 15048, Note_off_c, 2, 63, 64
2, 15200, Note_on_c, 2, 86, 50
2, 15200, Note_on_c, 2, 77, 62
2, 15200, Note_on_c, 2, 63, 57
2, 15200, Note_on_c, 2, 54, 57
2, 15208, Note_off_c, 2, 85, 64
2, 15208, Note_off_c, 2, 76, 64
2, 15208, Note_off_c, 2, 66, 64
2, 15208, Note_off_c, 2, 61, 64
2, 15340, Control_c, 2, 64, 0
2, 15340, Control_c, 2, 64, 0
2, 15350, Note_off_c, 2, 86, 64
2, 15350, Note_off_c, 2, 77, 64
2, 15350, Note_off_c, 2, 63, 64
2, 15350, Note_off_c, 2, 54, 64
2, 15360, Control_c, 2, 64, 127
2, 15360, Note_on_c, 2, 78, 70
2, 15360, Note_on_c, 2, 87, 70
2, 15360, Control_c, 2, 64, 127
2, 15360, Note_on_c, 2, 44, 79
2, 15520, Note_on_c, 2, 94, 59
2, 15520, Note_on_c, 2, 85, 59
2, 15520, Note_on_c, 2, 66, 57
2, 15520, Note_on_c, 2, 56, 57
2, 15528, Note_off_c, 2, 44, 64
2, 15528, Note_off_c, 2, 87, 64
2, 15528, Note_off_c, 2, 78, 64
2, 15680, Note_on_c, 2, 91, 70
2, 15680, Note_on_c, 2, 83, 70
2, 15680, Note_on_c, 2, 68, 57
2, 15680, Note_on_c, 2, 63, 57
2, 15688, Note_off_c, 2, 94, 64
2, 15688, Note_off_c, 2, 85, 64
2, 15688, Note_off_c, 2, 66, 64
2, 15688, Note_off_c, 2, 56, 64
2, 15840, Note_on_c, 2, 92, 65
2, 15840, Note_on_c, 2, 84, 62
2, 15840, Note_on_c, 2, 66, 57
2, 15840, Note_on_c, 2, 72, 57
2, 15848, Note_off_c, 2, 91, 64
2, 15848, Note_off_c, 2, 83, 64
2, 15848, Note_off_c, 2, 68, 64
2, 15848, Note_off_c, 2, 63, 64
2, 16000, Note_on_c, 2, 81, 62
2, 16000, Note_on_c, 2, 89, 52
2, 16000, Note_on_c, 2, 68, 57
2, 16000, Note_on_c, 2, 63, 57
2, 16008, Note_off_c, 2, 92, 64
2, 16008, Note_off_c, 2, 84, 64
2, 16008, Note_off_c, 2, 66, 64
2, 16008, Note_off_c, 2, 72, 64
2, 16160, Note_on_c, 2, 90, 61
2, 16160, Note_on_c, 2, 82, 62
2, 16160, Note_on_c, 2, 66, 57
2, 16160, Note_on_c, 2, 56, 57
2, 16168, Note_off_c, 2, 81, 64
2, 16168, Note_off_c, 2, 89, 64
2, 16168, Note_off_c, 2, 68, 64
2, 16168, Note_off_c, 2, 63, 64
2, 16300, Control_c, 2, 64, 0
2, 16300, Control_c, 2, 64, 0
2, 16310, Note_off_c, 2, 90, 64
2, 16310, Note_off_c, 2, 82, 64
2, 16310, Note_off_c, 2, 66, 64
2, 16310, Note_off_c, 2, 56, 64
2, 16320, Control_c, 2, 64, 127
2, 16320, Note_on_c, 2, 79, 62
2, 16320, Note_on_c, 2, 88, 62
2, 16320, Control_c, 2, 64, 127
2, 16320, Note_on_c, 2, 49, 75
2, 16480, Note_on_c, 2, 89, 64
2, 16480, Note_on_c, 2, 80, 62
2, 16480, Note_on_c, 2, 65, 57
2, 16480, Note_on_c, 2, 56, 57
2, 16488, Note_off_c, 2, 49, 64
2, 16488, Note_off_c, 2, 88, 64
2, 16488, Note_off_c, 2, 79, 64
2, 16640, Note_on_c, 2, 86, 68
2, 16640, Note_on_c, 2, 77, 68
2, 16640, Note_on_c, 2, 61, 57
2, 16640, Note_on_c, 2, 68, 57
2, 16648, Note_off_c, 2, 89, 64
2, 16648, Note_off_c, 2, 80, 64
2, 16648, Note_off_c, 2, 65, 64
2, 16648, Note_off_c, 2, 56, 64
2, 16797, Note_off_c, 2, 86, 64
2, 16797, Note_off_c, 2, 77, 64
2, 16800, Control_c, 2, 64, 0
2, 16800, Note_on_c, 2, 78, 72
2, 16800, Note_on_c, 2, 87, 72
2, 16800, Note_on_c, 2, 73, 57
2, 16800, Note_on_c, 2, 65, 57
2, 16808, Note_off_c, 2, 61, 64
2, 16808, Note_off_c, 2, 68, 64
2, 16960, Control_c, 2, 64, 127
2, 16960, Note_on_c, 2, 76, 62
2, 16960, Note_on_c, 2, 84, 62
2, 16960, Note_on_c, 2, 68, 57
2, 16960, Note_on_c, 2, 61, 57
2, 16968, Note_off_c, 2, 78, 64
2, 16968, Note_off_c, 2, 87, 64
2, 16968, Note_off_c, 2, 73, 64
2, 16968, Note_off_c, 2, 65, 64
2, 17120, Control_c, 2, 64, 0
2, 17120, Note_on_c, 2, 77, 62
2, 17120, Note_on_c, 2, 85, 50
2, 17120, Note_on_c, 2, 65, 57
2, 17120, Note_on_c, 2, 56, 57
2, 17128, Note_off_c, 2, 76, 64
2, 17128, Note_off_c, 2, 84, 64
2, 17128, Note_off_c, 2, 68, 64
2, 17128, Note_off_c, 2, 61, 64
2, 17260, Control_c, 2, 64, 0
2, 17270, Note_off_c, 2, 77, 64
2, 17270, Note_off_c, 2, 85, 64
2, 17270, Note_off_c, 2, 65, 64
2, 17270, Note_off_c, 2, 56, 64
2, 17280, Control_c, 2, 64, 127
2, 17280, Note_on_c, 2, 73, 62
2, 17280, Note_on_c, 2, 82, 62
2, 17280, Control_c, 2, 64, 127
2, 17280, Note_on_c, 2, 46, 77
2, 17440, Note_on_c, 2, 78, 59
2, 17440, Note_on_c, 2, 87, 59
2, 17440, Note_on_c, 2, 53, 57
2, 17440, Note_on_c, 2, 61, 57
2, 17448, Note_off_c, 2, 46, 64
2, 17448, Note_off_c, 2, 82, 64
2, 17448, Note_off_c, 2, 73, 64
2, 17600, Note_on_c, 2, 84, 47
2, 17600, Note_on_c, 2, 76, 65
2, 17600, Note_on_c, 2, 65, 57
2, 17600, Note_on_c, 2, 58, 57
2, 17608, Note_off_c, 2, 78, 64
2, 17608, Note_off_c, 2, 87, 64
2, 17608, Note_off_c, 2, 53, 64
2, 17608, Note_off_c, 2, 61, 64
2, 17760, Note_on_c, 2, 77, 62
2, 17760, Note_on_c, 2, 85, 65
2, 17760, Note_on_c, 2, 70, 57
2, 17760, Note_on_c, 2, 61, 57
2, 17768, Note_off_c, 2, 84, 64
2, 17768, Note_off_c, 2, 76, 64
2, 17768, Note_off_c, 2, 65, 64
2, 17768, Note_off_c, 2, 58, 64
2, 17920, Note_on_c, 2, 73, 52
2, 17920, Note_on_c, 2, 82, 62
2, 17920, Note_on_c, 2, 58, 57
2, 17920, Note_on_c, 2, 65, 57
2, 17928, Note_off_c, 2, 77, 64
2, 17928, Note_off_c, 2, 85, 64
2, 17928, Note_off_c, 2, 70, 64
2, 17928, Note_off_c, 2, 61, 64
2, 18080, Note_on_c, 2, 85, 61
2, 18080, Note_on_c, 2, 77, 62
2, 18080, Note_on_c, 2, 61, 57
2, 18080, Note_on_c, 2, 53, 57
2, 18088, Note_off_c, 2, 73, 64
2, 18088, Note_off_c, 2, 82, 64
2, 18088, Note_off_c, 2, 58, 64
2, 18088, Note_off_c, 2, 65, 64
2, 18220, Control_c, 2, 64, 0
2, 18220, Control_c, 2, 64, 0
2, 18230, Note_off_c, 2, 85, 64
2, 18230, Note_off_c, 2, 77, 64
2, 18230, Note_off_c, 2, 61, 64
2, 18230, Note_off_c, 2, 53, 64
2, 18240, Control_c, 2, 64, 127
2, 18240, Note_on_c, 2, 75, 62
2, 18240, Note_on_c, 2, 84, 62
2, 18240, Control_c, 2, 64, 127
2, 18240, Note_on_c, 2, 41, 75
2, 18400, Note_on_c, 2, 85, 64
2, 18400, Note_on_c, 2, 77, 62
2, 18400, Note_on_c, 2, 53, 57
2, 18400, Note_on_c, 2, 60, 57
2, 18408, Note_off_c, 2, 41, 64
2, 18408, Note_off_c, 2, 84, 64
2, 18408, Note_off_c, 2, 75, 64
2, 18560, Note_on_c, 2, 75, 62
2, 18560, Note_on_c, 2, 84, 68
2, 18560, Note_on_c, 2, 57, 57
2, 18560, Note_on_c, 2, 65, 57
2, 18568, Note_off_c, 2, 85, 64
2, 18568, Note_off_c, 2, 77, 64
2, 18568, Note_off_c, 2, 53, 64
2, 18568, Note_off_c, 2, 60, 64
2, 18720, Control_c, 2, 64, 0
2, 18720, Note_on_c, 2, 82, 72
2, 18720, Note_on_c, 2, 73, 62
2, 18720, Note_on_c, 2, 60, 57
2, 18720, Note_on_c, 2, 69, 57
2, 18728, Note_off_c, 2, 75, 64
2, 18728, Note_off_c, 2, 84, 64
2, 18728, Note_off_c, 2, 57, 64
2, 18728, Note_off_c, 2, 65, 64
2, 18877, Note_off_c, 2, 82, 64
2, 18877, Note_off_c, 2, 73, 64
2, 18880, Control_c, 2, 64, 127
2, 18880, Note_on_c, 2, 72, 62
2, 18880, Note_on_c, 2, 81, 62
2, 18880, Note_on_c, 2, 65, 57
2, 18880, Note_on_c, 2, 57, 57
2, 18888, Note_off_c, 2, 60, 64
2, 18888, Note_off_c, 2, 69, 64
2, 19040, Note_on_c, 2, 75, 62
2, 19040, Note_on_c, 2, 84, 50
2, 19040, Note_on_c, 2, 60, 57
2, 19040, Note_on_c, 2, 53, 57
2, 19048, Note_off_c, 2, 72, 64
2, 19048, Note_off_c, 2, 81, 64
2, 19048, Note_off_c, 2, 65, 64
2, 19048, Note_off_c, 2, 57, 64
2, 19180, Control_c, 2, 64, 0
2, 19180, Control_c, 2, 64, 0
2, 19190, Note_off_c, 2, 75, 64
2, 19190, Note_off_c, 2, 84, 64
2, 19190, Note_off_c, 2, 60, 64
2, 19190, Note_off_c, 2, 53, 64
2, 19200, Control_c, 2, 64, 127
2, 19200, Note_on_c, 2, 73, 62
2, 19200, Note_on_c, 2, 82, 62
2, 19200, Control_c, 2, 64, 127
2, 19200, Note_on_c, 2, 42, 79
2, 19360, Note_on_c, 2, 84, 59
2, 19360, Note_on_c, 2, 75, 59
2, 19360, Note_on_c, 2, 49, 57
2, 19360, Note_on_c, 2, 58, 57
2, 19368, Note_off_c, 2, 42, 64
2, 19368, Note_off_c, 2, 82, 64
2, 19368, Note_off_c, 2, 73, 64
2, 19520, Note_on_c, 2, 82, 47
2, 19520, Note_on_c, 2, 73, 65
2, 19520, Note_on_c, 2, 61, 57
2, 19520, Note_on_c, 2, 54, 57
2, 19528, Note_off_c, 2, 84, 64
2, 19528, Note_off_c, 2, 75, 64
2, 19528, Note_off_c, 2, 49, 64
2, 19528, Note_off_c, 2, 58, 64
2, 19680, Note_on_c, 2, 80, 65
2, 19680, Note_on_c, 2, 72, 62
2, 19680, Note_on_c, 2, 66, 57
2, 19680, Note_on_c, 2, 58, 57
2, 19688, Note_off_c, 2, 82, 64
2, 19688, Note_off_c, 2, 73, 64
2, 19688, Note_off_c, 2, 61, 64
2, 19688, Note_off_c, 2, 54, 64
2, 19840, Note_on_c, 2, 78, 62
2, 19840, Note_on_c, 2, 70, 52
2, 19840, Note_on_c, 2, 61, 57
2, 19840, Note_on_c, 2, 54, 57
2, 19848, Note_off_c, 2, 80, 64
2, 19848, Note_off_c, 2, 72, 64
2, 19848, Note_off_c, 2, 66, 64
2, 19848, Note_off_c, 2, 58, 64
2, 20000, Note_on_c, 2, 82, 61
2, 20000, Note_on_c, 2, 73, 62
2, 20000, Note_on_c, 2, 49, 57
2, 20000, Note_on_c, 2, 58, 57
2, 20008, Note_off_c, 2, 78, 64
2, 20008, Note_off_c, 2, 70, 64
2, 20008, Note_off_c, 2, 61, 64
2, 20008, Note_off_c, 2, 54, 64
2, 20140, Control_c, 2, 64, 0
2, 20140, Control_c, 2, 64, 0
2, 20150, Note_off_c, 2, 82, 64
2, 20150, Note_off_c, 2, 73, 64
2, 20150, Note_off_c, 2, 49, 64
2, 20150, Note_off_c, 2, 58, 64
2, 20160, Control_c, 2, 64, 127
2, 20160, Note_on_c, 2, 80, 62
2, 20160, Note_on_c, 2, 71, 62
2, 20160, Control_c, 2, 64, 127
2, 20160, Note_on_c, 2, 38, 75
2, 20320, Note_on_c, 2, 82, 64
2, 20320, Note_on_c, 2, 73, 62
2, 20320, Note_on_c, 2, 50, 57
2, 20320, Note_on_c, 2, 56, 57
2, 20328, Note_off_c, 2, 38, 64
2, 20328, Note_off_c, 2, 71, 64
2, 20328, Note_off_c, 2, 80, 64
2, 20480, Note_on_c, 2, 79, 68
2, 20480, Note_on_c, 2, 70, 62
2, 20480, Note_on_c, 2, 53, 57
2, 20480, Note_on_c, 2, 59, 57
2, 20488, Note_off_c, 2, 82, 64
2, 20488, Note_off_c, 2, 73, 64
2, 20488, Note_off_c, 2, 50, 64
2, 20488, Note_off_c, 2, 56, 64
2, 20640, Control_c, 2, 64, 0
2, 20640, Note_on_c, 2, 71, 62
2, 20640, Note_on_c, 2, 80, 72
2, 20640, Note_on_c, 2, 56, 57
2, 20640, Note_on_c, 2, 62, 57
2, 20648, Note_off_c, 2, 79, 64
2, 20648, Note_off_c, 2, 70, 64
2, 20648, Note_off_c, 2, 53, 64
2, 20648, Note_off_c, 2, 59, 64
2, 20797, Note_off_c, 2, 71, 64
2, 20797, Note_off_c, 2, 80, 64
2, 20800, Control_c, 2, 64, 127
2, 20800, Note_on_c, 2, 68, 62
2, 20800, Note_on_c, 2, 77, 62
2, 20800, Note_on_c, 2, 53, 57
2, 20800, Note_on_c, 2, 59, 57
2, 20808, Note_off_c, 2, 56, 64
2, 20808, Note_off_c, 2, 62, 64
2, 20960, Note_on_c, 2, 71, 62
2, 20960, Note_on_c, 2, 80, 50
2, 20960, Note_on_c, 2, 56, 57
2, 20960, Note_on_c, 2, 50, 57
2, 20968, Note_off_c, 2, 68, 64
2, 20968, Note_off_c, 2, 77, 64
2, 20968, Note_off_c, 2, 53, 64
2, 20968, Note_off_c, 2, 59, 64
2, 21100, Control_c, 2, 64, 0
2, 21100, Control_c, 2, 64, 0
2, 21110, Note_off_c, 2, 71, 64
2, 21110, Note_off_c, 2, 80, 64
2, 21110, Note_off_c, 2, 56, 64
2, 21110, Note_off_c, 2, 50, 64
2, 21120, Note_on_c, 2, 70, 62
2, 21120, Note_on_c, 2, 78, 62
2, 21120, Note_on_c, 2, 39, 79
2, 21180, Note_off_c, 2, 39, 64
2, 21280, Note_on_c, 2, 72, 59
2, 21280, Note_on_c, 2, 80, 59
2, 21280, Note_on_c, 2, 58, 57
2, 21280, Note_on_c, 2, 51, 57
2, 21288, Note_off_c, 2, 78, 64
2, 21288, Note_off_c, 2, 70, 64
2, 21440, Note_on_c, 2, 70, 65
2, 21440, Note_on_c, 2, 78, 47
2, 21440, Note_on_c, 2, 54, 57
2, 21440, Note_on_c, 2, 63, 57
2, 21448, Note_off_c, 2, 72, 64
2, 21448, Note_off_c, 2, 80, 64
2, 21480, Note_off_c, 2, 58, 64
2, 21480, Note_off_c, 2, 51, 64
2, 21520, Note_off_c, 2, 54, 64
2, 21520, Note_off_c, 2, 63, 64
2, 21600, Note_on_c, 2, 68, 62
2, 21600, Note_on_c, 2, 77, 65
2, 21600, Note_on_c, 2, 44, 70
2, 21608, Note_off_c, 2, 70, 64
2, 21608, Note_off_c, 2, 78, 64
2, 21684, Note_off_c, 2, 44, 64
2, 21760, Note_on_c, 2, 66, 52
2, 21760, Note_on_c, 2, 75, 62
2, 21760, Note_on_c, 2, 56, 57
2, 21760, Note_on_c, 2, 48, 57
2, 21768, Note_off_c, 2, 68, 64
2, 21768, Note_off_c, 2, 77, 64
2, 21920, Note_on_c, 2, 70, 62
2, 21920, Note_on_c, 2, 78, 61
2, 21920, Note_on_c, 2, 60, 62
2, 21920, Note_on_c, 2, 51, 62
2, 21928, Note_off_c, 2, 66, 64
2, 21928, Note_off_c, 2, 75, 64
2, 21960, Note_off_c, 2, 56, 64
2, 21960, Note_off_c, 2, 48, 64
2, 22000, Note_off_c, 2, 51, 64
2, 22020, Note_off_c, 2, 60, 64
2, 22060, Control_c, 2, 64, 0
2, 22060, Control_c, 2, 64, 0
2, 22070, Note_off_c, 2, 70, 64
2, 22070, Note_off_c, 2, 78, 64
2, 22080, Note_on_c, 2, 68, 62
2, 22080, Note_on_c, 2, 77, 62
2, 22080, Note_on_c, 2, 37, 75
2, 22152, Note_off_c, 2, 37, 64
2, 22240, Note_on_c, 2, 70, 62
2, 22240, Note_on_c, 2, 78, 64
2, 22240, Note_on_c, 2, 56, 57
2, 22240, Note_on_c, 2, 49, 57
2, 22248, Note_off_c, 2, 77, 64
2, 22248, Note_off_c, 2, 68, 64
2, 22400, Note_on_c, 2, 68, 62
2, 22400, Note_on_c, 2, 77, 68
2, 22400, Note_on_c, 2, 53, 61
2, 22400, Note_on_c, 2, 61, 61
2, 22408, Note_off_c, 2, 70, 64
2, 22408, Note_off_c, 2, 78, 64
2, 22440, Note_off_c, 2, 56, 64
2, 22440, Note_off_c, 2, 49, 64
2, 22480, Note_off_c, 2, 53, 64
2, 22480, Note_off_c, 2, 61, 64
2, 22560, Control_c, 2, 64, 0
2, 22560, Note_on_c, 2, 66, 62
2, 22560, Note_on_c, 2, 75, 72
2, 22560, Note_on_c, 2, 34, 64
2, 22568, Note_off_c, 2, 68, 64
2, 22568, Note_off_c, 2, 77, 64
2, 22626, Note_off_c, 2, 34, 64
2, 22717, Note_off_c, 2, 66, 64
2, 22717, Note_off_c, 2, 75, 64
2, 22720, Control_c, 2, 64, 127
2, 22720, Note_on_c, 2, 65, 62
2, 22720, Note_on_c, 2, 73, 62
2, 22720, Note_on_c, 2, 53, 57
2, 22720, Note_on_c, 2, 46, 57
2, 22880, Note_on_c, 2, 77, 50
2, 22880, Note_on_c, 2, 68, 62
2, 22880, Note_on_c, 2, 51, 67
2, 22880, Note_on_c, 2, 58, 67
2, 22888, Note_off_c, 2, 73, 64
2, 22888, Note_off_c, 2, 65, 64
2, 22920, Note_off_c, 2, 53, 64
2, 22920, Note_off_c, 2, 46, 64
2, 22960, Note_off_c, 2, 51, 64
2, 22960, Note_off_c, 2, 58, 64
2, 23020, Control_c, 2, 64, 0
2, 23020, Control_c, 2, 64, 0
2, 23030, Note_off_c, 2, 77, 64
2, 23030, Note_off_c, 2, 68, 64
2, 23040, Control_c, 2, 64, 127
2, 23040, Note_on_c, 2, 67, 62
2, 23040, Note_on_c, 2, 75, 62
2, 23040, Control_c, 2, 64, 127
2, 23040, Note_on_c, 2, 39, 79
2, 23200, Note_on_c, 2, 68, 59
2, 23200, Note_on_c, 2, 77, 59
2, 23200, Note_on_c, 2, 51, 57
2, 23200, Note_on_c, 2, 43, 57
2, 23208, Note_off_c, 2, 39, 64
2, 23208, Note_off_c, 2, 75, 64
2, 23208, Note_off_c, 2, 67, 64
2, 23360, Note_on_c, 2, 67, 65
2, 23360, Note_on_c, 2, 75, 47
2, 23360, Note_on_c, 2, 55, 57
2, 23360, Note_on_c, 2, 46, 57
2, 23368, Note_off_c, 2, 68, 64
2, 23368, Note_off_c, 2, 77, 64
2, 23368, Note_off_c, 2, 51, 64
2, 23368, Note_off_c, 2, 43, 64
2, 23520, Note_on_c, 2, 65, 62
2, 23520, Note_on_c, 2, 73, 65
2, 23520, Note_on_c, 2, 51, 57
2, 23520, Note_on_c, 2, 58, 57
2, 23528, Note_off_c, 2, 67, 64
2, 23528, Note_off_c, 2, 75, 64
2, 23528, Note_off_c, 2, 55, 64
2, 23528, Note_off_c, 2, 46, 64
2, 23680, Note_on_c, 2, 61, 52
2, 23680, Note_on_c, 2, 70, 62
2, 23680, Note_on_c, 2, 46, 57
2, 23680, Note_on_c, 2, 55, 57
2, 23688, Note_off_c, 2, 65, 64
2, 23688, Note_off_c, 2, 73, 64
2, 23688, Note_off_c, 2, 51, 64
2, 23688, Note_off_c, 2, 58, 64
2, 23840, Note_on_c, 2, 63, 62
2, 23840, Note_on_c, 2, 72, 61
2, 23840, Note_on_c, 2, 43, 57
2, 23840, Note_on_c, 2, 51, 57
2, 23848, Note_off_c, 2, 61, 64
2, 23848, Note_off_c, 2, 70, 64
2, 23848, Note_off_c, 2, 46, 64
2, 23848, Note_off_c, 2, 55, 64
2, 23980, Control_c, 2, 64, 0
2, 23980, Control_c, 2, 64, 0
2, 23990, Note_off_c, 2, 63, 64
2, 23990, Note_off_c, 2, 72, 64
2, 23990, Note_off_c, 2, 43, 64
2, 23990, Note_off_c, 2, 51, 64
2, 24000, Control_c, 2, 64, 127
2, 24000, Note_on_c, 2, 60, 62
2, 24000, Note_on_c, 2, 68, 62
2, 24000, Control_c, 2, 64, 127
2, 24000, Note_on_c, 2, 32, 75
2, 24160, Note_on_c, 2, 70, 64
2, 24160, Note_on_c, 2, 61, 62
2, 24168, Note_off_c, 2, 32, 64
2, 24168, Note_off_c, 2, 68, 64
2, 24168, Note_off_c, 2, 60, 64
2, 24320, Note_on_c, 2, 68, 68
2, 24320, Note_on_c, 2, 60, 62
2, 24320, Note_on_c, 2, 44, 57
2, 24320, Note_on_c, 2, 56, 57
2, 24328, Note_off_c, 2, 70, 64
2, 24328, Note_off_c, 2, 61, 64
2, 24480, Control_c, 2, 64, 0
2, 24480, Note_on_c, 2, 70, 72
2, 24480, Note_on_c, 2, 61, 62
2, 24480, Note_on_c, 2, 48, 57
2, 24480, Note_on_c, 2, 51, 57
2, 24488, Note_off_c, 2, 68, 64
2, 24488, Note_off_c, 2, 60, 64
2, 24488, Note_off_c, 2, 44, 64
2, 24488, Note_off_c, 2, 56, 64
2, 24637, Note_off_c, 2, 70, 64
2, 24637, Note_off_c, 2, 61, 64
2, 24640, Control_c, 2, 64, 127
2, 24640, Note_on_c, 2, 60, 62
2, 24640, Note_on_c, 2, 68, 62
2, 24640, Note_on_c, 2, 44, 57
2, 24640, Note_on_c, 2, 56, 57
2, 24648, Note_off_c, 2, 48, 64
2, 24648, Note_off_c, 2, 51, 64
2, 24800, Note_on_c, 2, 63, 62
2, 24800, Note_on_c, 2, 72, 50
2, 24800, Note_on_c, 2, 48, 57
2, 24800, Note_on_c, 2, 51, 57
2, 24808, Note_off_c, 2, 60, 64
2, 24808, Note_off_c, 2, 68, 64
2, 24808, Note_off_c, 2, 44, 64
2, 24808, Note_off_c, 2, 56, 64
2, 24890, Control_c, 2, 64, 0
2, 24910, Note_off_c, 2, 63, 64
2, 24910, Note_off_c, 2, 72, 64
2, 24910, Note_off_c, 2, 48, 64
2, 24910, Note_off_c, 2, 51, 64
2, 24940, Control_c, 2, 64, 0
2, 24960, Note_on_c, 2, 70, 66
2, 24960, Note_on_c, 2, 61, 66
2, 24960, Control_c, 2, 64, 127
2, 24960, Note_on_c, 2, 44, 85
2, 24960, Note_on_c, 2, 55, 85
2, 25120, Note_on_c, 2, 63, 63
2, 25120, Note_on_c, 2, 72, 63
2, 25120, Note_on_c, 2, 51, 60
2, 25120, Note_on_c, 2, 49, 60
2, 25128, Note_off_c, 2, 55, 64
2, 25128, Note_off_c, 2, 44, 64
2, 25128, Note_off_c, 2, 61, 64
2, 25128, Note_off_c, 2, 70, 64
2, 25280, Note_on_c, 2, 61, 70
2, 25280, Note_on_c, 2, 70, 50
2, 25280, Note_on_c, 2, 44, 60
2, 25280, Note_on_c, 2, 55, 60
2, 25288, Note_off_c, 2, 63, 64
2, 25288, Note_off_c, 2, 72, 64
2, 25288, Note_off_c, 2, 51, 64
2, 25288, Note_off_c, 2, 49, 64
2, 25440, Note_on_c, 2, 72, 70
2, 25440, Note_on_c, 2, 63, 66
2, 25440, Note_on_c, 2, 49, 60
2, 25440, Note_on_c, 2, 51, 60
2, 25448, Note_off_c, 2, 61, 64
2, 25448, Note_off_c, 2, 70, 64
2, 25448, Note_off_c, 2, 44, 64
2, 25448, Note_off_c, 2, 55, 64
2, 25600, Note_on_c, 2, 70, 66
2, 25600, Note_on_c, 2, 61, 55
2, 25600, Note_on_c, 2, 44, 60
2, 25600, Note_on_c, 2, 55, 60
2, 25608, Note_off_c, 2, 72, 64
2, 25608, Note_off_c, 2, 63, 64
2, 25608, Note_off_c, 2, 49, 64
2, 25608, Note_off_c, 2, 51, 64
2, 25760, Note_on_c, 2, 72, 65
2, 25760, Note_on_c, 2, 63, 66
2, 25760, Note_on_c, 2, 51, 60
2, 25760, Note_on_c, 2, 49, 60
2, 25768, Note_off_c, 2, 70, 64
2, 25768, Note_off_c, 2, 61, 64
2, 25768, Note_off_c, 2, 44, 64
2, 25768, Note_off_c, 2, 55, 64
2, 25900, Control_c, 2, 64, 0
2, 25900, Control_c, 2, 64, 0
2, 25910, Note_off_c, 2, 72, 64
2, 25910, Note_off_c, 2, 63, 64
2, 25910, Note_off_c, 2, 51, 64
2, 25910, Note_off_c, 2, 49, 64
2, 25920, Control_c, 2, 64, 127
2, 25920, Note_on_c, 2, 68, 66
2, 25920, Note_on_c, 2, 60, 66
2, 25920, Control_c, 2, 64, 127
2, 25920, Note_on_c, 2, 44, 80
2, 25920, Note_on_c, 2, 56, 80
2, 26080, Note_on_c, 2, 70, 69
2, 26080, Note_on_c, 2, 61, 66
2, 26080, Note_on_c, 2, 51, 80
2, 26080, Note_on_c, 2, 48, 80
2, 26088, Note_off_c, 2, 56, 64
2, 26088, Note_off_c, 2, 44, 64
2, 26088, Note_off_c, 2, 60, 64
2, 26088, Note_off_c, 2, 68, 64
2, 26240, Note_on_c, 2, 71, 73
2, 26240, Note_on_c, 2, 62, 66
2, 26240, Note_on_c, 2, 56, 60
2, 26240, Note_on_c, 2, 44, 60
2, 26248, Note_off_c, 2, 70, 64
2, 26248, Note_off_c, 2, 61, 64
2, 26248, Note_off_c, 2, 51, 64
2, 26248, Note_off_c, 2, 48, 64
2, 26400, Control_c, 2, 64, 0
2, 26400, Note_on_c, 2, 73, 77
2, 26400, Note_on_c, 2, 65, 66
2, 26400, Note_on_c, 2, 48, 60
2, 26400, Note_on_c, 2, 51, 60
2, 26408, Note_off_c, 2, 71, 64
2, 26408, Note_off_c, 2, 62, 64
2, 26408, Note_off_c, 2, 56, 64
2, 26408, Note_off_c, 2, 44, 64
2, 26557, Note_off_c, 2, 73, 64
2, 26557, Note_off_c, 2, 65, 64
2, 26560, Control_c, 2, 64, 127
2, 26560, Note_on_c, 2, 72, 66
2, 26560, Note_on_c, 2, 63, 66
2, 26560, Note_on_c, 2, 44, 60
2, 26560, Note_on_c, 2, 56, 60
2, 26568, Note_off_c, 2, 48, 64
2, 26568, Note_off_c, 2, 51, 64
2, 26720, Note_on_c, 2, 68, 53
2, 26720, Note_on_c, 2, 60, 66
2, 26720, Note_on_c, 2, 48, 60
2, 26720, Note_on_c, 2, 51, 60
2, 26728, Note_off_c, 2, 72, 64
2, 26728, Note_off_c, 2, 63, 64
2, 26728, Note_off_c, 2, 44, 64
2, 26728, Note_off_c, 2, 56, 64
2, 26860, Control_c, 2, 64, 0
2, 26860, Control_c, 2, 64, 0
2, 26870, Note_off_c, 2, 68, 64
2, 26870, Note_off_c, 2, 60, 64
2, 26870, Note_off_c, 2, 48, 64
2, 26870, Note_off_c, 2, 51, 64
2, 26880, Note_on_c, 2, 72, 47
2, 26880, Note_on_c, 2, 63, 47
2, 26880, Control_c, 2, 64, 127
2, 26880, Note_on_c, 2, 44, 61
2, 26880, Note_on_c, 2, 55, 61
2, 26880, Control_c, 2, 64, 127
2, 27040, Note_on_c, 2, 61, 45
2, 27040, Note_on_c, 2, 70, 45
2, 27040, Note_on_c, 2, 51, 44
2, 27040, Note_on_c, 2, 49, 44
2, 27048, Note_off_c, 2, 55, 64
2, 27048, Note_off_c, 2, 44, 64
2, 27048, Note_off_c, 2, 63, 64
2, 27048, Note_off_c, 2, 72, 64
2, 27200, Note_on_c, 2, 63, 49
2, 27200, Note_on_c, 2, 72, 35
2, 27200, Note_on_c, 2, 44, 44
2, 27200, Note_on_c, 2, 55, 44
2, 27208, Note_off_c, 2, 61, 64
2, 27208, Note_off_c, 2, 70, 64
2, 27208, Note_off_c, 2, 51, 64
2, 27208, Note_off_c, 2, 49, 64
2, 27360, Note_on_c, 2, 61, 47
2, 27360, Note_on_c, 2, 70, 49
2, 27360, Note_on_c, 2, 49, 44
2, 27360, Note_on_c, 2, 51, 44
2, 27368, Note_off_c, 2, 63, 64
2, 27368, Note_off_c, 2, 72, 64
2, 27368, Note_off_c, 2, 44, 64
2, 27368, Note_off_c, 2, 55, 64
2, 27520, Note_on_c, 2, 63, 39
2, 27520, Note_on_c, 2, 72, 47
2, 27520, Note_on_c, 2, 44, 44
2, 27520, Note_on_c, 2, 55, 44
2, 27528, Note_off_c, 2, 61, 64
2, 27528, Note_off_c, 2, 70, 64
2, 27528, Note_off_c, 2, 49, 64
2, 27528, Note_off_c, 2, 51, 64
2, 27680, Note_on_c, 2, 61, 47
2, 27680, Note_on_c, 2, 70, 46
2, 27680, Note_on_c, 2, 51, 44
2, 27680, Note_on_c, 2, 49, 44
2, 27688, Note_off_c, 2, 63, 64
2, 27688, Note_off_c, 2, 72, 64
2, 27688, Note_off_c, 2, 44, 64
2, 27688, Note_off_c, 2, 55, 64
2, 27820, Control_c, 2, 64, 0
2, 27820, Control_c, 2, 64, 0
2, 27830, Note_off_c, 2, 61, 64
2, 27830, Note_off_c, 2, 70, 64
2, 27830, Note_off_c, 2, 51, 64
2, 27830, Note_off_c, 2, 49, 64
2, 27840, Control_c, 2, 64, 127
2, 27840, Note_on_c, 2, 60, 47
2, 27840, Note_on_c, 2, 68, 47
2, 27840, Control_c, 2, 64, 127
2, 27840, Note_on_c, 2, 44, 57
2, 27840, Note_on_c, 2, 56, 57
2, 28000, Note_on_c, 2, 61, 47
2, 28000, Note_on_c, 2, 70, 49
2, 28000, Note_on_c, 2, 51, 57
2, 28000, Note_on_c, 2, 48, 57
2, 28008, Note_off_c, 2, 56, 64
2, 28008, Note_off_c, 2, 44, 64
2, 28008, Note_off_c, 2, 68, 64
2, 28008, Note_off_c, 2, 60, 64
2, 28160, Note_on_c, 2, 62, 47
2, 28160, Note_on_c, 2, 71, 52
2, 28160, Note_on_c, 2, 56, 44
2, 28160, Note_on_c, 2, 44, 44
2, 28168, Note_off_c, 2, 61, 64
2, 28168, Note_off_c, 2, 70, 64
2, 28168, Note_off_c, 2, 51, 64
2, 28168, Note_off_c, 2, 48, 64
2, 28320, Control_c, 2, 64, 0
2, 28320, Note_on_c, 2, 65, 47
2, 28320, Note_on_c, 2, 73, 56
2, 28320, Note_on_c, 2, 48, 44
2, 28320, Note_on_c, 2, 51, 44
2, 28328, Note_off_c, 2, 62, 64
2, 28328, Note_off_c, 2, 71, 64
2, 28328, Note_off_c, 2, 56, 64
2, 28328, Note_off_c, 2, 44, 64
2, 28477, Note_off_c, 2, 65, 64
2, 28477, Note_off_c, 2, 73, 64
2, 28480, Control_c, 2, 64, 127
2, 28480, Note_on_c, 2, 63, 47
2, 28480, Note_on_c, 2, 72, 47
2, 28480, Note_on_c, 2, 44, 44
2, 28480, Note_on_c, 2, 56, 44
2, 28488, Note_off_c, 2, 48, 64
2, 28488, Note_off_c, 2, 51, 64
2, 28640, Note_on_c, 2, 60, 47
2, 28640, Note_on_c, 2, 68, 38
2, 28640, Note_on_c, 2, 48, 44
2, 28640, Note_on_c, 2, 51, 44
2, 28648, Note_off_c, 2, 63, 64
2, 28648, Note_off_c, 2, 72, 64
2, 28648, Note_off_c, 2, 44, 64
2, 28648, Note_off_c, 2, 56, 64
2, 28780, Control_c, 2, 64, 0
2, 28780, Control_c, 2, 64, 0
2, 28790, Note_off_c, 2, 60, 64
2, 28790, Note_off_c, 2, 68, 64
2, 28790, Note_off_c, 2, 48, 64
2, 28790, Note_off_c, 2, 51, 64
2, 28800, Note_on_c, 2, 66, 66
2, 28800, Control_c, 2, 64, 127
2, 28800, Note_on_c, 2, 75, 66
2, 28800, Note_on_c, 2, 56, 85
2, 28800, Note_on_c, 2, 44, 85
2, 28800, Control_c, 2, 64, 127
2, 28960, Note_on_c, 2, 68, 63
2, 28960, Note_on_c, 2, 76, 63
2, 28960, Note_on_c, 2, 54, 61
2, 28960, Note_on_c, 2, 51, 61
2, 28968, Note_off_c, 2, 44, 64
2, 28968, Note_off_c, 2, 56, 64
2, 28968, Note_off_c, 2, 75, 64
2, 28968, Note_off_c, 2, 66, 64
2, 29120, Note_on_c, 2, 66, 69
2, 29120, Note_on_c, 2, 75, 50
2, 29120, Note_on_c, 2, 44, 61
2, 29120, Note_on_c, 2, 56, 61
2, 29128, Note_off_c, 2, 68, 64
2, 29128, Note_off_c, 2, 76, 64
2, 29128, Note_off_c, 2, 54, 64
2, 29128, Note_off_c, 2, 51, 64
2, 29280, Note_on_c, 2, 68, 66
2, 29280, Note_on_c, 2, 76, 69
2, 29280, Note_on_c, 2, 54, 61
2, 29280, Note_on_c, 2, 51, 61
2, 29288, Note_off_c, 2, 66, 64
2, 29288, Note_off_c, 2, 75, 64
2, 29288, Note_off_c, 2, 44, 64
2, 29288, Note_off_c, 2, 56, 64
2, 29440, Note_on_c, 2, 75, 66
2, 29440, Note_on_c, 2, 66, 56
2, 29440, Note_on_c, 2, 44, 61
2, 29440, Note_on_c, 2, 56, 61
2, 29448, Note_off_c, 2, 68, 64
2, 29448, Note_off_c, 2, 76, 64
2, 29448, Note_off_c, 2, 54, 64
2, 29448, Note_off_c, 2, 51, 64
2, 29600, Note_on_c, 2, 68, 66
2, 29600, Note_on_c, 2, 76, 65
2, 29600, Note_on_c, 2, 54, 61
2, 29600, Note_on_c, 2, 51, 61
2, 29608, Note_off_c, 2, 75, 64
2, 29608, Note_off_c, 2, 66, 64
2, 29608, Note_off_c, 2, 44, 64
2, 29608, Note_off_c, 2, 56, 64
2, 29740, Control_c, 2, 64, 0
2, 29740, Control_c, 2, 64, 0
2, 29750, Note_off_c, 2, 68, 64
2, 29750, Note_off_c, 2, 76, 64
2, 29750, Note_off_c, 2, 54, 64
2, 29750, Note_off_c, 2, 51, 64
2, 29760, Control_c, 2, 64, 127
2, 29760, Note_on_c, 2, 73, 66
2, 29760, Note_on_c, 2, 64, 66
2, 29760, Control_c, 2, 64, 127
2, 29760, Note_on_c, 2, 44, 81
2, 29760, Note_on_c, 2, 56, 81
2, 29920, Note_on_c, 2, 74, 68
2, 29920, Note_on_c, 2, 65, 66
2, 29920, Note_on_c, 2, 52, 81
2, 29920, Note_on_c, 2, 49, 81
2, 29928, Note_off_c, 2, 56, 64
2, 29928, Note_off_c, 2, 44, 64
2, 29928, Note_off_c, 2, 64, 64
2, 29928, Note_off_c, 2, 73, 64
2, 30080, Note_on_c, 2, 75, 74
2, 30080, Note_on_c, 2, 66, 66
2, 30080, Note_on_c, 2, 56, 61
2, 30080, Note_on_c, 2, 44, 61
2, 30088, Note_off_c, 2, 74, 64
2, 30088, Note_off_c, 2, 65, 64
2, 30088, Note_off_c, 2, 52, 64
2, 30088, Note_off_c, 2, 49, 64
2, 30240, Control_c, 2, 64, 0
2, 30240, Note_on_c, 2, 78, 77
2, 30240, Note_on_c, 2, 69, 66
2, 30240, Note_on_c, 2, 52, 61
2, 30240, Note_on_c, 2, 49, 61
2, 30248, Note_off_c, 2, 75, 64
2, 30248, Note_off_c, 2, 66, 64
2, 30248, Note_off_c, 2, 56, 64
2, 30248, Note_off_c, 2, 44, 64
2, 30397, Note_off_c, 2, 78, 64
2, 30397, Note_off_c, 2, 69, 64
2, 30400, Control_c, 2, 64, 127
2, 30400, Note_on_c, 2, 76, 66
2, 30400, Note_on_c, 2, 68, 66
2, 30400, Note_on_c, 2, 44, 61
2, 30400, Note_on_c, 2, 56, 61
2, 30408, Note_off_c, 2, 52, 64
2, 30408, Note_off_c, 2, 49, 64
2, 30560, Note_on_c, 2, 73, 54
2, 30560, Note_on_c, 2, 64, 66
2, 30560, Note_on_c, 2, 52, 61
2, 30560, Note_on_c, 2, 49, 61
2, 30568, Note_off_c, 2, 76, 64
2, 30568, Note_off_c, 2, 68, 64
2, 30568, Note_off_c, 2, 44, 64
2, 30568, Note_off_c, 2, 56, 64
2, 30700, Control_c, 2, 64, 0
2, 30700, Control_c, 2, 64, 0
2, 30710, Note_off_c, 2, 73, 64
2, 30710, Note_off_c, 2, 64, 64
2, 30710, Note_off_c, 2, 52, 64
2, 30710, Note_off_c, 2, 49, 64
2, 30720, Note_on_c, 2, 75, 47
2, 30720, Control_c, 2, 64, 127
2, 30720, Note_on_c, 2, 66, 47
2, 30720, Control_c, 2, 64, 127
2, 30720, Note_on_c, 2, 44, 60
2, 30720, Note_on_c, 2, 56, 60
2, 30880, Note_on_c, 2, 68, 45
2, 30880, Note_on_c, 2, 76, 45
2, 30880, Note_on_c, 2, 54, 43
2, 30880, Note_on_c, 2, 51, 43
2, 30888, Note_off_c, 2, 56, 64
2, 30888, Note_off_c, 2, 44, 64
2, 30888, Note_off_c, 2, 66, 64
2, 30888, Note_off_c, 2, 75, 64
2, 31040, Note_on_c, 2, 66, 49
2, 31040, Note_on_c, 2, 75, 36
2, 31040, Note_on_c, 2, 44, 43
2, 31040, Note_on_c, 2, 56, 43
2, 31048, Note_off_c, 2, 68, 64
2, 31048, Note_off_c, 2, 76, 64
2, 31048, Note_off_c, 2, 54, 64
2, 31048, Note_off_c, 2, 51, 64
2, 31200, Note_on_c, 2, 68, 47
2, 31200, Note_on_c, 2, 76, 49
2, 31200, Note_on_c, 2, 54, 43
2, 31200, Note_on_c, 2, 51, 43
2, 31208, Note_off_c, 2, 66, 64
2, 31208, Note_off_c, 2, 75, 64
2, 31208, Note_off_c, 2, 44, 64
2, 31208, Note_off_c, 2, 56, 64
2, 31360, Note_on_c, 2, 75, 47
2, 31360, Note_on_c, 2, 66, 39
2, 31360, Note_on_c, 2, 44, 43
2, 31360, Note_on_c, 2, 56, 43
2, 31368, Note_off_c, 2, 68, 64
2, 31368, Note_off_c, 2, 76, 64
2, 31368, Note_off_c, 2, 54, 64
2, 31368, Note_off_c, 2, 51, 64
2, 31520, Note_on_c, 2, 68, 47
2, 31520, Note_on_c, 2, 76, 46
2, 31520, Note_on_c, 2, 54, 43
2, 31520, Note_on_c, 2, 51, 43
2, 31528, Note_off_c, 2, 75, 64
2, 31528, Note_off_c, 2, 66, 64
2, 31528, Note_off_c, 2, 44, 64
2, 31528, Note_off_c, 2, 56, 64
2, 31660, Control_c, 2, 64, 0
2, 31660, Control_c, 2, 64, 0
2, 31670, Note_off_c, 2, 68, 64
2, 31670, Note_off_c, 2, 76, 64
2, 31670, Note_off_c, 2, 54, 64
2, 31670, Note_off_c, 2, 51, 64
2, 31680, Control_c, 2, 64, 127
2, 31680, Note_on_c, 2, 73, 47
2, 31680, Note_on_c, 2, 64, 47
2, 31680, Control_c, 2, 64, 127
2, 31680, Note_on_c, 2, 44, 57
2, 31680, Note_on_c, 2, 56, 57
2, 31840, Note_on_c, 2, 74, 48
2, 31840, Note_on_c, 2, 65, 47
2, 31840, Note_on_c, 2, 52, 57
2, 31840, Note_on_c, 2, 49, 57
2, 31848, Note_off_c, 2, 56, 64
2, 31848, Note_off_c, 2, 44, 64
2, 31848, Note_off_c, 2, 64, 64
2, 31848, Note_off_c, 2, 73, 64
2, 32000, Note_on_c, 2, 75, 51
2, 32000, Note_on_c, 2, 66, 47
2, 32000, Note_on_c, 2, 56, 43
2, 32000, Note_on_c, 2, 44, 43
2, 32008, Note_off_c, 2, 74, 64
2, 32008, Note_off_c, 2, 65, 64
2, 32008, Note_off_c, 2, 52, 64
2, 32008, Note_off_c, 2, 49, 64
2, 32160, Control_c, 2, 64, 0
2, 32160, Note_on_c, 2, 78, 55
2, 32160, Note_on_c, 2, 69, 47
2, 32160, Note_on_c, 2, 52, 43
2, 32160, Note_on_c, 2, 49, 43
2, 32168, Note_off_c, 2, 75, 64
2, 32168, Note_off_c, 2, 66, 64
2, 32168, Note_off_c, 2, 56, 64
2, 32168, Note_off_c, 2, 44, 64
2, 32317, Note_off_c, 2, 78, 64
2, 32317, Note_off_c, 2, 69, 64
2, 32320, Control_c, 2, 64, 127
2, 32320, Note_on_c, 2, 76, 47
2, 32320, Note_on_c, 2, 68, 47
2, 32320, Note_on_c, 2, 44, 43
2, 32320, Note_on_c, 2, 56, 43
2, 32328, Note_off_c, 2, 52, 64
2, 32328, Note_off_c, 2, 49, 64
2, 32480, Note_on_c, 2, 73, 38
2, 32480, Note_on_c, 2, 64, 47
2, 32480, Note_on_c, 2, 52, 43
2, 32480, Note_on_c, 2, 49, 43
2, 32488, Note_off_c, 2, 76, 64
2, 32488, Note_off_c, 2, 68, 64
2, 32488, Note_off_c, 2, 44, 64
2, 32488, Note_off_c, 2, 56, 64
2, 32620, Control_c, 2, 64, 0
2, 32620, Control_c, 2, 64, 0
2, 32630, Note_off_c, 2, 73, 64
2, 32630, Note_off_c, 2, 64, 64
2, 32630, Note_off_c, 2, 52, 64
2, 32630, Note_off_c, 2, 49, 64
2, 32640, Note_on_c, 2, 68, 78
2, 32640, Note_on_c, 2, 76, 78
2, 32640, Control_c, 2, 64, 127
2, 32640, Control_c, 2, 64, 127
2, 32640, Note_on_c, 2, 55, 74
2, 32640, Note_on_c, 2, 44, 74
2, 32800, Note_on_c, 2, 67, 61
2, 32800, Note_on_c, 2, 75, 61
2, 32800, Note_on_c, 2, 49, 53
2, 32800, Note_on_c, 2, 51, 53
2, 32808, Note_off_c, 2, 44, 64
2, 32808, Note_off_c, 2, 55, 64
2, 32808, Note_off_c, 2, 76, 64
2, 32808, Note_off_c, 2, 68, 64
2, 32960, Note_on_c, 2, 70, 69
2, 32960, Note_on_c, 2, 79, 69
2, 32960, Note_on_c, 2, 55, 61
2, 32960, Note_on_c, 2, 44, 61
2, 32968, Note_off_c, 2, 67, 64
2, 32968, Note_off_c, 2, 75, 64
2, 32968, Note_off_c, 2, 49, 64
2, 32968, Note_off_c, 2, 51, 64
2, 33120, Note_on_c, 2, 77, 62
2, 33120, Note_on_c, 2, 68, 62
2, 33120, Note_on_c, 2, 51, 52
2, 33120, Note_on_c, 2, 49, 52
2, 33128, Note_off_c, 2, 70, 64
2, 33128, Note_off_c, 2, 79, 64
2, 33128, Note_off_c, 2, 55, 64
2, 33128, Note_off_c, 2, 44, 64
2, 33280, Note_on_c, 2, 72, 70
2, 33280, Note_on_c, 2, 80, 70
2, 33280, Note_on_c, 2, 55, 62
2, 33280, Note_on_c, 2, 44, 62
2, 33288, Note_off_c, 2, 77, 64
2, 33288, Note_off_c, 2, 68, 64
2, 33288, Note_off_c, 2, 51, 64
2, 33288, Note_off_c, 2, 49, 64
2, 33440, Note_on_c, 2, 70, 64
2, 33440, Note_on_c, 2, 79, 64
2, 33440, Note_on_c, 2, 51, 57
2, 33440, Note_on_c, 2, 49, 57
2, 33448, Note_off_c, 2, 72, 64
2, 33448, Note_off_c, 2, 80, 64
2, 33448, Note_off_c, 2, 55, 64
2, 33448, Note_off_c, 2, 44, 64
2, 33580, Control_c, 2, 64, 0
2, 33580, Control_c, 2, 64, 0
2, 33590, Note_off_c, 2, 70, 64
2, 33590, Note_off_c, 2, 79, 64
2, 33590, Note_off_c, 2, 51, 64
2, 33590, Note_off_c, 2, 49, 64
2, 33600, Control_c, 2, 64, 127
2, 33600, Note_on_c, 2, 73, 84
2, 33600, Note_on_c, 2, 82, 84
2, 33600, Note_on_c, 2, 44, 73
2, 33600, Note_on_c, 2, 55, 73
2, 33600, Control_c, 2, 64, 127
2, 33760, Note_on_c, 2, 72, 69
2, 33760, Note_on_c, 2, 80, 69
2, 33760, Note_on_c, 2, 51, 58
2, 33760, Note_on_c, 2, 49, 58
2, 33768, Note_off_c, 2, 55, 64
2, 33768, Note_off_c, 2, 44, 64
2, 33768, Note_off_c, 2, 82, 64
2, 33768, Note_off_c, 2, 73, 64
2, 33920, Note_on_c, 2, 75, 74
2, 33920, Note_on_c, 2, 84, 74
2, 33920, Note_on_c, 2, 55, 66
2, 33920, Note_on_c, 2, 44, 66
2, 33928, Note_off_c, 2, 72, 64
2, 33928, Note_off_c, 2, 80, 64
2, 33928, Note_off_c, 2, 51, 64
2, 33928, Note_off_c, 2, 49, 64
2, 34080, Control_c, 2, 64, 0
2, 34080, Note_on_c, 2, 82, 64
2, 34080, Note_on_c, 2, 73, 64
2, 34080, Note_on_c, 2, 51, 60
2, 34080, Note_on_c, 2, 49, 60
2, 34088, Note_off_c, 2, 75, 64
2, 34088, Note_off_c, 2, 84, 64
2, 34088, Note_off_c, 2, 55, 64
2, 34088, Note_off_c, 2, 44, 64
2, 34237, Note_off_c, 2, 82, 64
2, 34237, Note_off_c, 2, 73, 64
2, 34240, Note_on_c, 2, 85, 83
2, 34240, Note_on_c, 2, 77, 83
2, 34240, Control_c, 2, 64, 127
2, 34240, Note_on_c, 2, 55, 69
2, 34240, Note_on_c, 2, 44, 69
2, 34248, Note_off_c, 2, 51, 64
2, 34248, Note_off_c, 2, 49, 64
2, 34400, Note_on_c, 2, 84, 73
2, 34400, Note_on_c, 2, 75, 73
2, 34400, Note_on_c, 2, 51, 65
2, 34400, Note_on_c, 2, 49, 65
2, 34408, Note_off_c, 2, 85, 64
2, 34408, Note_off_c, 2, 77, 64
2, 34408, Note_off_c, 2, 55, 64
2, 34408, Note_off_c, 2, 44, 64
2, 34540, Control_c, 2, 64, 0
2, 34540, Control_c, 2, 64, 0
2, 34550, Note_off_c, 2, 84, 64
2, 34550, Note_off_c, 2, 75, 64
2, 34550, Note_off_c, 2, 51, 64
2, 34550, Note_off_c, 2, 49, 64
2, 34560, Control_c, 2, 64, 127
2, 34560, Note_on_c, 2, 79, 88
2, 34560, Note_on_c, 2, 87, 88
2, 34560, Control_c, 2, 64, 127
2, 34560, Note_on_c, 2, 44, 83
2, 34560, Note_on_c, 2, 55, 83
2, 34720, Note_on_c, 2, 77, 81
2, 34720, Note_on_c, 2, 85, 81
2, 34720, Note_on_c, 2, 49, 69
2, 34720, Note_on_c, 2, 51, 69
2, 34728, Note_off_c, 2, 55, 64
2, 34728, Note_off_c, 2, 44, 64
2, 34728, Note_off_c, 2, 87, 64
2, 34728, Note_off_c, 2, 79, 64
2, 34880, Note_on_c, 2, 89, 92
2, 34880, Note_on_c, 2, 80, 92
2, 34880, Note_on_c, 2, 44, 75
2, 34880, Note_on_c, 2, 55, 75
2, 34888, Note_off_c, 2, 77, 64
2, 34888, Note_off_c, 2, 85, 64
2, 34888, Note_off_c, 2, 49, 64
2, 34888, Note_off_c, 2, 51, 64
2, 35040, Note_on_c, 2, 79, 88
2, 35040, Note_on_c, 2, 87, 88
2, 35040, Note_on_c, 2, 49, 71
2, 35040, Note_on_c, 2, 51, 71
2, 35048, Note_off_c, 2, 89, 64
2, 35048, Note_off_c, 2, 80, 64
2, 35048, Note_off_c, 2, 44, 64
2, 35048, Note_off_c, 2, 55, 64
2, 35200, Note_on_c, 2, 91, 99
2, 35200, Note_on_c, 2, 82, 99
2, 35200, Note_on_c, 2, 44, 79
2, 35200, Note_on_c, 2, 55, 79
2, 35208, Note_off_c, 2, 79, 64
2, 35208, Note_off_c, 2, 87, 64
2, 35208, Note_off_c, 2, 49, 64
2, 35208, Note_off_c, 2, 51, 64
2, 35360, Note_on_c, 2, 80, 95
2, 35360, Note_on_c, 2, 89, 95
2, 35360, Note_on_c, 2, 49, 71
2, 35360, Note_on_c, 2, 51, 71
2, 35368, Note_off_c, 2, 91, 64
2, 35368, Note_off_c, 2, 82, 64
2, 35368, Note_off_c, 2, 44, 64
2, 35368, Note_off_c, 2, 55, 64
2, 35500, Control_c, 2, 64, 0
2, 35500, Control_c, 2, 64, 0
2, 35510, Note_off_c, 2, 80, 64
2, 35510, Note_off_c, 2, 89, 64
2, 35510, Note_off_c, 2, 49, 64
2, 35510, Note_off_c, 2, 51, 64
2, 35520, Control_c, 2, 64, 127
2, 35520, Note_on_c, 2, 84, 107
2, 35520, Note_on_c, 2, 92, 107
2, 35520, Note_on_c, 2, 44, 98
2, 35520, Note_on_c, 2, 55, 98
2, 35520, Control_c, 2, 64, 127
2, 35680, Note_on_c, 2, 82, 98
2, 35680, Note_on_c, 2, 91, 98
2, 35680, Note_on_c, 2, 51, 84
2, 35680, Note_on_c, 2, 49, 84
2, 35688, Note_off_c, 2, 55, 64
2, 35688, Note_off_c, 2, 44, 64
2, 35688, Note_off_c, 2, 92, 64
2, 35688, Note_off_c, 2, 84, 64
2, 35840, Note_on_c, 2, 94, 107
2, 35840, Note_on_c, 2, 85, 107
2, 35840, Note_on_c, 2, 44, 97
2, 35840, Note_on_c, 2, 55, 97
2, 35848, Note_off_c, 2, 82, 64
2, 35848, Note_off_c, 2, 91, 64
2, 35848, Note_off_c, 2, 51, 64
2, 35848, Note_off_c, 2, 49, 64
2, 36000, Note_on_c, 2, 92, 105
2, 36000, Note_on_c, 2, 84, 105
2, 36000, Control_c, 2, 64, 0
2, 36000, Note_on_c, 2, 49, 93
2, 36000, Note_on_c, 2, 51, 93
2, 36008, Note_off_c, 2, 94, 64
2, 36008, Note_off_c, 2, 85, 64
2, 36008, Note_off_c, 2, 44, 64
2, 36008, Note_off_c, 2, 55, 64
2, 36157, Note_off_c, 2, 92, 64
2, 36157, Note_off_c, 2, 84, 64
2, 36160, Control_c, 2, 64, 127
2, 36160, Note_on_c, 2, 87, 113
2, 36160, Note_on_c, 2, 96, 113
2, 36160, Note_on_c, 2, 44, 105
2, 36160, Note_on_c, 2, 55, 105
2, 36168, Note_off_c, 2, 49, 64
2, 36168, Note_off_c, 2, 51, 64
2, 36320, Note_on_c, 2, 94, 110
2, 36320, Note_on_c, 2, 85, 110
2, 36320, Note_on_c, 2, 49, 102
2, 36320, Note_on_c, 2, 51, 102
2, 36328, Note_off_c, 2, 87, 64
2, 36328, Note_off_c, 2, 96, 64
2, 36328, Note_off_c, 2, 44, 64
2, 36328, Note_off_c, 2, 55, 64
2, 36460, Control_c, 2, 64, 0
2, 36460, Control_c, 2, 64, 0
2, 36470, Note_off_c, 2, 94, 64
2, 36470, Note_off_c, 2, 85, 64
2, 36470, Note_off_c, 2, 49, 64
2, 36470, Note_off_c, 2, 51, 64
2, 36480, Note_on_c, 2, 84, 126
2, 36480, Note_on_c, 2, 92, 126
2, 36480, Control_c, 2, 64, 127
2, 36480, Control_c, 2, 64, 127
2, 36480, Note_on_c, 2, 55, 117
2, 36480, Note_on_c, 2, 44, 117
2, 36640, Note_on_c, 2, 85, 104
2, 36640, Note_on_c, 2, 94, 104
2, 36648, Note_off_c, 2, 44, 64
2, 36648, Note_off_c, 2, 55, 64
2, 36648, Note_off_c, 2, 92, 64
2, 36648, Note_off_c, 2, 84, 64
2, 36800, Note_on_c, 2, 90, 108
2, 36800, Note_on_c, 2, 82, 108
2, 36800, Note_on_c, 2, 75, 95
2, 36800, Note_on_c, 2, 66, 95
2, 36808, Note_off_c, 2, 85, 64
2, 36808, Note_off_c, 2, 94, 64
2, 36960, Note_on_c, 2, 84, 98
2, 36960, Note_on_c, 2, 92, 98
2, 36960, Note_on_c, 2, 77, 87
2, 36960, Note_on_c, 2, 68, 87
2, 36968, Note_off_c, 2, 90, 64
2, 36968, Note_off_c, 2, 82, 64
2, 36968, Note_off_c, 2, 75, 64
2, 36968, Note_off_c, 2, 66, 64
2, 37120, Note_on_c, 2, 80, 103
2, 37120, Note_on_c, 2, 89, 103
2, 37120, Note_on_c, 2, 73, 96
2, 37120, Note_on_c, 2, 65, 96
2, 37128, Note_off_c, 2, 84, 64
2, 37128, Note_off_c, 2, 92, 64
2, 37128, Note_off_c, 2, 77, 64
2, 37128, Note_off_c, 2, 68, 64
2, 37280, Note_on_c, 2, 90, 92
2, 37280, Note_on_c, 2, 82, 92
2, 37280, Note_on_c, 2, 66, 84
2, 37280, Note_on_c, 2, 75, 84
2, 37288, Note_off_c, 2, 80, 64
2, 37288, Note_off_c, 2, 89, 64
2, 37288, Note_off_c, 2, 73, 64
2, 37288, Note_off_c, 2, 65, 64
2, 37420, Control_c, 2, 64, 0
2, 37420, Control_c, 2, 64, 0
2, 37430, Note_off_c, 2, 90, 64
2, 37430, Note_off_c, 2, 82, 64
2, 37430, Note_off_c, 2, 66, 64
2, 37430, Note_off_c, 2, 75, 64
2, 37440, Note_on_c, 2, 87, 113
2, 37440, Note_on_c, 2, 78, 113
2, 37440, Control_c, 2, 64, 127
2, 37440, Control_c, 2, 64, 127
2, 37440, Note_on_c, 2, 63, 100
2, 37440, Note_on_c, 2, 72, 100
2, 37600, Note_on_c, 2, 80, 95
2, 37600, Note_on_c, 2, 89, 95
2, 37600, Note_on_c, 2, 73, 76
2, 37600, Note_on_c, 2, 65, 76
2, 37608, Note_off_c, 2, 72, 64
2, 37608, Note_off_c, 2, 63, 64
2, 37608, Note_off_c, 2, 78, 64
2, 37608, Note_off_c, 2, 87, 64
2, 37760, Note_on_c, 2, 77, 98
2, 37760, Note_on_c, 2, 85, 98
2, 37760, Note_on_c, 2, 70, 79
2, 37760, Note_on_c, 2, 61, 79
2, 37768, Note_off_c, 2, 80, 64
2, 37768, Note_off_c, 2, 89, 64
2, 37768, Note_off_c, 2, 73, 64
2, 37768, Note_off_c, 2, 65, 64
2, 37920, Control_c, 2, 64, 0
2, 37920, Note_on_c, 2, 87, 79
2, 37920, Note_on_c, 2, 78, 79
2, 37920, Note_on_c, 2, 63, 72
2, 37920, Note_on_c, 2, 72, 72
2, 37928, Note_off_c, 2, 77, 64
2, 37928, Note_off_c, 2, 85, 64
2, 37928, Note_off_c, 2, 70, 64
2, 37928, Note_off_c, 2, 61, 64
2, 38077, Note_off_c, 2, 87, 64
2, 38077, Note_off_c, 2, 78, 64
2, 38080, Note_on_c, 2, 75, 85
2, 38080, Note_on_c, 2, 84, 85
2, 38080, Control_c, 2, 64, 127
2, 38080, Note_on_c, 2, 68, 74
2, 38080, Note_on_c, 2, 60, 74
2, 38088, Note_off_c, 2, 63, 64
2, 38088, Note_off_c, 2, 72, 64
2, 38240, Note_on_c, 2, 85, 66
2, 38240, Note_on_c, 2, 77, 66
2, 38240, Note_on_c, 2, 61, 64
2, 38240, Note_on_c, 2, 70, 64
2, 38248, Note_off_c, 2, 75, 64
2, 38248, Note_off_c, 2, 84, 64
2, 38248, Note_off_c, 2, 68, 64
2, 38248, Note_off_c, 2, 60, 64
2, 38380, Control_c, 2, 64, 0
2, 38380, Control_c, 2, 64, 0
2, 38390, Note_off_c, 2, 85, 64
2, 38390, Note_off_c, 2, 77, 64
2, 38390, Note_off_c, 2, 61, 64
2, 38390, Note_off_c, 2, 70, 64
2, 38400, Note_on_c, 2, 94, 93
2, 38400, Note_on_c, 2, 85, 93
2, 38400, Control_c, 2, 64, 127
2, 38400, Control_c, 2, 64, 127
2, 38400, Note_on_c, 2, 66, 79
2, 38400, Note_on_c, 2, 58, 79
2, 38560, Note_on_c, 2, 87, 75
2, 38560, Note_on_c, 2, 96, 75
2, 38560, Note_on_c, 2, 60, 66
2, 38560, Note_on_c, 2, 68, 66
2, 38568, Note_off_c, 2, 58, 64
2, 38568, Note_off_c, 2, 66, 64
2, 38568, Note_off_c, 2, 85, 64
2, 38568, Note_off_c, 2, 94, 64
2, 38720, Note_on_c, 2, 84, 80
2, 38720, Note_on_c, 2, 92, 80
2, 38720, Note_on_c, 2, 65, 71
2, 38720, Note_on_c, 2, 56, 71
2, 38728, Note_off_c, 2, 87, 64
2, 38728, Note_off_c, 2, 96, 64
2, 38728, Note_off_c, 2, 60, 64
2, 38728, Note_off_c, 2, 68, 64
2, 38880, Note_on_c, 2, 94, 57
2, 38880, Note_on_c, 2, 85, 57
2, 38880, Note_on_c, 2, 85, 66
2, 38880, Note_on_c, 2, 94, 66
2, 38880, Note_on_c, 2, 66, 57
2, 38880, Note_on_c, 2, 58, 57
2, 38888, Note_off_c, 2, 84, 64
2, 38888, Note_off_c, 2, 92, 64
2, 38888, Note_off_c, 2, 65, 64
2, 38888, Note_off_c, 2, 56, 64
2, 39040, Note_on_c, 2, 82, 73
2, 39040, Note_on_c, 2, 90, 73
2, 39040, Note_on_c, 2, 54, 61
2, 39040, Note_on_c, 2, 63, 61
2, 39048, Note_off_c, 2, 94, 64
2, 39048, Note_off_c, 2, 85, 64
2, 39048, Note_off_c, 2, 85, 64
2, 39048, Note_off_c, 2, 94, 64
2, 39048, Note_off_c, 2, 66, 64
2, 39048, Note_off_c, 2, 58, 64
2, 39200, Note_on_c, 2, 84, 60
2, 39200, Note_on_c, 2, 92, 60
2, 39200, Note_on_c, 2, 56, 53
2, 39200, Note_on_c, 2, 65, 53
2, 39208, Note_off_c, 2, 82, 64
2, 39208, Note_off_c, 2, 90, 64
2, 39208, Note_off_c, 2, 54, 64
2, 39208, Note_off_c, 2, 63, 64
2, 39340, Control_c, 2, 64, 0
2, 39340, Control_c, 2, 64, 0
2, 39350, Note_off_c, 2, 84, 64
2, 39350, Note_off_c, 2, 92, 64
2, 39350, Note_off_c, 2, 56, 64
2, 39350, Note_off_c, 2, 65, 64
2, 39360, Note_on_c, 2, 89, 83
2, 39360, Note_on_c, 2, 80, 83
2, 39360, Control_c, 2, 64, 127
2, 39360, Note_on_c, 2, 53, 70
2, 39360, Note_on_c, 2, 61, 70
2, 39360, Control_c, 2, 64, 127
2, 39520, Note_on_c, 2, 90, 53
2, 39520, Note_on_c, 2, 82, 53
2, 39520, Note_on_c, 2, 54, 46
2, 39520, Note_on_c, 2, 63, 46
2, 39528, Note_off_c, 2, 61, 64
2, 39528, Note_off_c, 2, 53, 64
2, 39528, Note_off_c, 2, 80, 64
2, 39528, Note_off_c, 2, 89, 64
2, 39680, Note_on_c, 2, 78, 61
2, 39680, Note_on_c, 2, 87, 61
2, 39680, Note_on_c, 2, 51, 48
2, 39680, Note_on_c, 2, 60, 48
2, 39688, Note_off_c, 2, 90, 64
2, 39688, Note_off_c, 2, 82, 64
2, 39688, Note_off_c, 2, 54, 64
2, 39688, Note_off_c, 2, 63, 64
2, 39840, Note_on_c, 2, 80, 51
2, 39840, Note_on_c, 2, 89, 51
2, 39840, Control_c, 2, 64, 0
2, 39840, Note_on_c, 2, 53, 38
2, 39840, Note_on_c, 2, 61, 38
2, 39848, Note_off_c, 2, 78, 64
2, 39848, Note_off_c, 2, 87, 64
2, 39848, Note_off_c, 2, 51, 64
2, 39848, Note_off_c, 2, 60, 64
2, 39997, Note_off_c, 2, 80, 64
2, 39997, Note_off_c, 2, 89, 64
2, 40000, Note_on_c, 2, 77, 57
2, 40000, Note_on_c, 2, 85, 57
2, 40000, Control_c, 2, 64, 127
2, 40000, Note_on_c, 2, 49, 41
2, 40000, Note_on_c, 2, 58, 41
2, 40008, Note_off_c, 2, 53, 64
2, 40008, Note_off_c, 2, 61, 64
2, 40160, Note_on_c, 2, 89, 54
2, 40160, Note_on_c, 2, 80, 54
2, 40160, Note_on_c, 2, 61, 33
2, 40160, Note_on_c, 2, 53, 33
2, 40168, Note_off_c, 2, 77, 64
2, 40168, Note_off_c, 2, 85, 64
2, 40168, Note_off_c, 2, 49, 64
2, 40168, Note_off_c, 2, 58, 64
2, 40300, Control_c, 2, 64, 0
2, 40300, Control_c, 2, 64, 0
2, 40310, Note_off_c, 2, 89, 64
2, 40310, Note_off_c, 2, 80, 64
2, 40310, Note_off_c, 2, 61, 64
2, 40310, Note_off_c, 2, 53, 64
2, 40320, Control_c, 2, 64, 127
2, 40320, Note_on_c, 2, 66, 56
2, 40320, Note_on_c, 2, 75, 56
2, 40320, Control_c, 2, 64, 127
2, 40320, Note_on_c, 2, 32, 73
2, 40480, Note_on_c, 2, 77, 56
2, 40480, Note_on_c, 2, 68, 56
2, 40480, Note_on_c, 2, 56, 54
2, 40480, Note_on_c, 2, 48, 54
2, 40488, Note_off_c, 2, 32, 64
2, 40488, Note_off_c, 2, 75, 64
2, 40488, Note_off_c, 2, 66, 64
2, 40640, Note_on_c, 2, 75, 44
2, 40640, Note_on_c, 2, 66, 61
2, 40640, Note_on_c, 2, 51, 54
2, 40640, Note_on_c, 2, 60, 54
2, 40648, Note_off_c, 2, 77, 64
2, 40648, Note_off_c, 2, 68, 64
2, 40648, Note_off_c, 2, 56, 64
2, 40648, Note_off_c, 2, 48, 64
2, 40800, Note_on_c, 2, 77, 61
2, 40800, Note_on_c, 2, 68, 58
2, 40800, Note_on_c, 2, 63, 54
2, 40800, Note_on_c, 2, 56, 54
2, 40808, Note_off_c, 2, 75, 64
2, 40808, Note_off_c, 2, 66, 64
2, 40808, Note_off_c, 2, 51, 64
2, 40808, Note_off_c, 2, 60, 64
2, 40960, Note_on_c, 2, 75, 49
2, 40960, Note_on_c, 2, 66, 58
2, 40960, Note_on_c, 2, 60, 54
2, 40960, Note_on_c, 2, 51, 54
2, 40968, Note_off_c, 2, 77, 64
2, 40968, Note_off_c, 2, 68, 64
2, 40968, Note_off_c, 2, 63, 64
2, 40968, Note_off_c, 2, 56, 64
2, 41120, Note_on_c, 2, 77, 57
2, 41120, Note_on_c, 2, 68, 58
2, 41120, Note_on_c, 2, 56, 54
2, 41120, Note_on_c, 2, 48, 54
2, 41128, Note_off_c, 2, 75, 64
2, 41128, Note_off_c, 2, 66, 64
2, 41128, Note_off_c, 2, 60, 64
2, 41128, Note_off_c, 2, 51, 64
2, 41260, Control_c, 2, 64, 0
2, 41260, Control_c, 2, 64, 0
2, 41270, Note_off_c, 2, 77, 64
2, 41270, Note_off_c, 2, 68, 64
2, 41270, Note_off_c, 2, 56, 64
2, 41270, Note_off_c, 2, 48, 64
2, 41280, Control_c, 2, 64, 127
2, 41280, Note_on_c, 2, 65, 58
2, 41280, Note_on_c, 2, 73, 58
2, 41280, Control_c, 2, 64, 127
2, 41280, Note_on_c, 2, 37, 71
2, 41440, Note_on_c, 2, 66, 58
2, 41440, Note_on_c, 2, 75, 60
2, 41440, Note_on_c, 2, 49, 54
2, 41440, Note_on_c, 2, 56, 54
2, 41448, Note_off_c, 2, 37, 64
2, 41448, Note_off_c, 2, 73, 64
2, 41448, Note_off_c, 2, 65, 64
2, 41600, Note_on_c, 2, 67, 58
2, 41600, Note_on_c, 2, 76, 64
2, 41600, Note_on_c, 2, 53, 54
2, 41600, Note_on_c, 2, 61, 54
2, 41608, Note_off_c, 2, 66, 64
2, 41608, Note_off_c, 2, 75, 64
2, 41608, Note_off_c, 2, 49, 64
2, 41608, Note_off_c, 2, 56, 64
2, 41760, Control_c, 2, 64, 0
2, 41760, Note_on_c, 2, 70, 58
2, 41760, Note_on_c, 2, 78, 68
2, 41760, Note_on_c, 2, 49, 54
2, 41760, Note_on_c, 2, 56, 54
2, 41768, Note_off_c, 2, 67, 64
2, 41768, Note_off_c, 2, 76, 64
2, 41768, Note_off_c, 2, 53, 64
2, 41768, Note_off_c, 2, 61, 64
2, 41917, Note_off_c, 2, 70, 64
2, 41917, Note_off_c, 2, 78, 64
2, 41920, Control_c, 2, 64, 127
2, 41920, Note_on_c, 2, 68, 58
2, 41920, Note_on_c, 2, 77, 58
2, 41920, Note_on_c, 2, 53, 54
2, 41920, Note_on_c, 2, 61, 54
2, 41928, Note_off_c, 2, 49, 64
2, 41928, Note_off_c, 2, 56, 64
2, 42080, Note_on_c, 2, 65, 58
2, 42080, Note_on_c, 2, 73, 47
2, 42080, Note_on_c, 2, 49, 54
2, 42080, Note_on_c, 2, 56, 54
2, 42088, Note_off_c, 2, 68, 64
2, 42088, Note_off_c, 2, 77, 64
2, 42088, Note_off_c, 2, 53, 64
2, 42088, Note_off_c, 2, 61, 64
2, 42220, Control_c, 2, 64, 0
2, 42220, Control_c, 2, 64, 0
2, 42230, Note_off_c, 2, 65, 64
2, 42230, Note_off_c, 2, 73, 64
2, 42230, Note_off_c, 2, 49, 64
2, 42230, Note_off_c, 2, 56, 64
2, 42240, Control_c, 2, 64, 127
2, 42240, Note_on_c, 2, 68, 70
2, 42240, Note_on_c, 2, 77, 70
2, 42240, Control_c, 2, 64, 127
2, 42240, Note_on_c, 2, 32, 79
2, 42400, Note_on_c, 2, 66, 59
2, 42400, Note_on_c, 2, 75, 59
2, 42400, Note_on_c, 2, 56, 57
2, 42400, Note_on_c, 2, 48, 57
2, 42408, Note_off_c, 2, 32, 64
2, 42408, Note_off_c, 2, 77, 64
2, 42408, Note_off_c, 2, 68, 64
2, 42560, Note_on_c, 2, 68, 70
2, 42560, Note_on_c, 2, 77, 70
2, 42560, Note_on_c, 2, 51, 57
2, 42560, Note_on_c, 2, 60, 57
2, 42568, Note_off_c, 2, 66, 64
2, 42568, Note_off_c, 2, 75, 64
2, 42568, Note_off_c, 2, 56, 64
2, 42568, Note_off_c, 2, 48, 64
2, 42720, Note_on_c, 2, 66, 62
2, 42720, Note_on_c, 2, 75, 65
2, 42720, Note_on_c, 2, 63, 57
2, 42720, Note_on_c, 2, 56, 57
2, 42728, Note_off_c, 2, 68, 64
2, 42728, Note_off_c, 2, 77, 64
2, 42728, Note_off_c, 2, 51, 64
2, 42728, Note_off_c, 2, 60, 64
2, 42880, Note_on_c, 2, 68, 62
2, 42880, Note_on_c, 2, 77, 52
2, 42880, Note_on_c, 2, 60, 57
2, 42880, Note_on_c, 2, 51, 57
2, 42888, Note_off_c, 2, 66, 64
2, 42888, Note_off_c, 2, 75, 64
2, 42888, Note_off_c, 2, 63, 64
2, 42888, Note_off_c, 2, 56, 64
2, 43040, Note_on_c, 2, 66, 62
2, 43040, Note_on_c, 2, 75, 61
2, 43040, Note_on_c, 2, 56, 57
2, 43040, Note_on_c, 2, 48, 57
2, 43048, Note_off_c, 2, 68, 64
2, 43048, Note_off_c, 2, 77, 64
2, 43048, Note_off_c, 2, 60, 64
2, 43048, Note_off_c, 2, 51, 64
2, 43180, Control_c, 2, 64, 0
2, 43180, Control_c, 2, 64, 0
2, 43190, Note_off_c, 2, 66, 64
2, 43190, Note_off_c, 2, 75, 64
2, 43190, Note_off_c, 2, 56, 64
2, 43190, Note_off_c, 2, 48, 64
2, 43200, Control_c, 2, 64, 127
2, 43200, Note_on_c, 2, 65, 62
2, 43200, Note_on_c, 2, 73, 62
2, 43200, Control_c, 2, 64, 127
2, 43200, Note_on_c, 2, 37, 75
2, 43360, Note_on_c, 2, 66, 62
2, 43360, Note_on_c, 2, 75, 64
2, 43360, Note_on_c, 2, 49, 57
2, 43360, Note_on_c, 2, 56, 57
2, 43368, Note_off_c, 2, 37, 64
2, 43368, Note_off_c, 2, 73, 64
2, 43368, Note_off_c, 2, 65, 64
2, 43520, Note_on_c, 2, 67, 68
2, 43520, Note_on_c, 2, 76, 68
2, 43520, Note_on_c, 2, 53, 57
2, 43520, Note_on_c, 2, 61, 57
2, 43528, Note_off_c, 2, 66, 64
2, 43528, Note_off_c, 2, 75, 64
2, 43528, Note_off_c, 2, 49, 64
2, 43528, Note_off_c, 2, 56, 64
2, 43677, Note_off_c, 2, 67, 64
2, 43677, Note_off_c, 2, 76, 64
2, 43680, Control_c, 2, 64, 0
2, 43680, Note_on_c, 2, 70, 72
2, 43680, Note_on_c, 2, 78, 72
2, 43680, Note_on_c, 2, 49, 57
2, 43680, Note_on_c, 2, 56, 57
2, 43688, Note_off_c, 2, 53, 64
2, 43688, Note_off_c, 2, 61, 64
2, 43840, Control_c, 2, 64, 127
2, 43840, Note_on_c, 2, 68, 62
2, 43840, Note_on_c, 2, 77, 62
2, 43840, Note_on_c, 2, 53, 57
2, 43840, Note_on_c, 2, 61, 57
2, 43848, Note_off_c, 2, 70, 64
2, 43848, Note_off_c, 2, 78, 64
2, 43848, Note_off_c, 2, 49, 64
2, 43848, Note_off_c, 2, 56, 64
2, 44000, Note_on_c, 2, 65, 62
2, 44000, Control_c, 2, 64, 0
2, 44000, Note_on_c, 2, 73, 50
2, 44000, Note_on_c, 2, 49, 57
2, 44000, Note_on_c, 2, 56, 57
2, 44008, Note_off_c, 2, 68, 64
2, 44008, Note_off_c, 2, 77, 64
2, 44008, Note_off_c, 2, 53, 64
2, 44008, Note_off_c, 2, 61, 64
2, 44140, Control_c, 2, 64, 0
2, 44150, Note_off_c, 2, 65, 64
2, 44150, Note_off_c, 2, 73, 64
2, 44150, Note_off_c, 2, 49, 64
2, 44150, Note_off_c, 2, 56, 64
2, 44160, Note_on_c, 2, 77, 72
2, 44160, Note_on_c, 2, 68, 72
2, 44160, Control_c, 2, 64, 127
2, 44160, Control_c, 2, 64, 127
2, 44160, Note_on_c, 2, 46, 77
2, 44320, Note_on_c, 2, 70, 68
2, 44320, Note_on_c, 2, 78, 68
2, 44320, Note_on_c, 2, 53, 51
2, 44320, Note_on_c, 2, 58, 51
2, 44328, Note_off_c, 2, 46, 64
2, 44328, Note_off_c, 2, 68, 64
2, 44328, Note_off_c, 2, 77, 64
2, 44480, Note_on_c, 2, 68, 71
2, 44480, Note_on_c, 2, 77, 71
2, 44480, Note_on_c, 2, 61, 58
2, 44480, Note_on_c, 2, 56, 58
2, 44488, Note_off_c, 2, 70, 64
2, 44488, Note_off_c, 2, 78, 64
2, 44488, Note_off_c, 2, 53, 64
2, 44488, Note_off_c, 2, 58, 64
2, 44640, Note_on_c, 2, 78, 68
2, 44640, Note_on_c, 2, 70, 68
2, 44640, Note_on_c, 2, 58, 65
2, 44640, Note_on_c, 2, 65, 65
2, 44648, Note_off_c, 2, 68, 64
2, 44648, Note_off_c, 2, 77, 64
2, 44648, Note_off_c, 2, 61, 64
2, 44648, Note_off_c, 2, 56, 64
2, 44800, Note_on_c, 2, 68, 75
2, 44800, Note_on_c, 2, 77, 75
2, 44800, Note_on_c, 2, 61, 56
2, 44800, Note_on_c, 2, 56, 56
2, 44808, Note_off_c, 2, 78, 64
2, 44808, Note_off_c, 2, 70, 64
2, 44808, Note_off_c, 2, 58, 64
2, 44808, Note_off_c, 2, 65, 64
2, 44960, Note_on_c, 2, 78, 70
2, 44960, Note_on_c, 2, 70, 70
2, 44960, Note_on_c, 2, 53, 51
2, 44960, Note_on_c, 2, 58, 51
2, 44968, Note_off_c, 2, 68, 64
2, 44968, Note_off_c, 2, 77, 64
2, 44968, Note_off_c, 2, 61, 64
2, 44968, Note_off_c, 2, 56, 64
2, 45075, Note_off_c, 2, 53, 64
2, 45075, Note_off_c, 2, 58, 64
2, 45090, Control_c, 2, 64, 0
2, 45100, Control_c, 2, 64, 0
2, 45110, Note_off_c, 2, 78, 64
2, 45110, Note_off_c, 2, 70, 64
2, 45120, Note_on_c, 2, 66, 74
2, 45120, Note_on_c, 2, 75, 74
2, 45120, Note_on_c, 2, 51, 85
2, 45186, Note_off_c, 2, 51, 64
2, 45280, Note_on_c, 2, 77, 69
2, 45280, Note_on_c, 2, 68, 69
2, 45280, Note_on_c, 2, 58, 57
2, 45288, Note_off_c, 2, 75, 64
2, 45288, Note_off_c, 2, 66, 64
2, 45440, Note_on_c, 2, 78, 73
2, 45440, Note_on_c, 2, 70, 73
2, 45440, Note_on_c, 2, 63, 64
2, 45440, Note_on_c, 2, 54, 64
2, 45448, Note_off_c, 2, 77, 64
2, 45448, Note_off_c, 2, 68, 64
2, 45500, Note_off_c, 2, 58, 64
2, 45560, Note_off_c, 2, 63, 64
2, 45560, Note_off_c, 2, 54, 64
2, 45600, Note_on_c, 2, 80, 75
2, 45600, Note_on_c, 2, 71, 75
2, 45600, Control_c, 2, 64, 0
2, 45600, Note_on_c, 2, 49, 90
2, 45608, Note_off_c, 2, 78, 64
2, 45608, Note_off_c, 2, 70, 64
2, 45666, Note_off_c, 2, 49, 64
2, 45757, Note_off_c, 2, 80, 64
2, 45757, Note_off_c, 2, 71, 64
2, 45760, Note_on_c, 2, 82, 80
2, 45760, Note_on_c, 2, 73, 80
2, 45760, Control_c, 2, 64, 127
2, 45760, Note_on_c, 2, 61, 63
2, 45920, Note_on_c, 2, 71, 77
2, 45920, Note_on_c, 2, 80, 77
2, 45920, Note_on_c, 2, 56, 64
2, 45920, Note_on_c, 2, 65, 64
2, 45928, Note_off_c, 2, 73, 64
2, 45928, Note_off_c, 2, 82, 64
2, 45960, Note_off_c, 2, 61, 64
2, 46040, Note_off_c, 2, 56, 64
2, 46040, Note_off_c, 2, 65, 64
2, 46060, Control_c, 2, 64, 0
2, 46070, Note_off_c, 2, 71, 64
2, 46070, Note_off_c, 2, 80, 64
2, 46080, Note_on_c, 2, 78, 82
2, 46080, Note_on_c, 2, 70, 82
2, 46080, Note_on_c, 2, 54, 94
2, 46152, Note_off_c, 2, 54, 64
2, 46240, Note_on_c, 2, 80, 70
2, 46240, Note_on_c, 2, 71, 70
2, 46240, Note_on_c, 2, 61, 65
2, 46248, Note_off_c, 2, 70, 64
2, 46248, Note_off_c, 2, 78, 64
2, 46400, Note_on_c, 2, 73, 77
2, 46400, Note_on_c, 2, 82, 77
2, 46400, Note_on_c, 2, 58, 69
2, 46400, Note_on_c, 2, 66, 69
2, 46408, Note_off_c, 2, 80, 64
2, 46408, Note_off_c, 2, 71, 64
2, 46440, Note_off_c, 2, 61, 64
2, 46520, Note_off_c, 2, 58, 64
2, 46520, Note_off_c, 2, 66, 64
2, 46560, Note_on_c, 2, 84, 80
2, 46560, Note_on_c, 2, 75, 80
2, 46560, Note_on_c, 2, 53, 97
2, 46568, Note_off_c, 2, 73, 64
2, 46568, Note_off_c, 2, 82, 64
2, 46620, Note_off_c, 2, 53, 64
2, 46720, Note_on_c, 2, 85, 84
2, 46720, Note_on_c, 2, 77, 84
2, 46720, Note_on_c, 2, 65, 67
2, 46728, Note_off_c, 2, 84, 64
2, 46728, Note_off_c, 2, 75, 64
2, 46880, Note_on_c, 2, 75, 76
2, 46880, Note_on_c, 2, 84, 76
2, 46880, Note_on_c, 2, 60, 76
2, 46880, Note_on_c, 2, 69, 76
2, 46888, Note_off_c, 2, 85, 64
2, 46888, Note_off_c, 2, 77, 64
2, 46920, Note_off_c, 2, 65, 64
2, 47000, Note_off_c, 2, 60, 64
2, 47000, Note_off_c, 2, 69, 64
2, 47020, Control_c, 2, 64, 0
2, 47030, Note_off_c, 2, 75, 64
2, 47030, Note_off_c, 2, 84, 64
2, 47040, Note_on_c, 2, 73, 87
2, 47040, Note_on_c, 2, 82, 87
2, 47040, Note_on_c, 2, 58, 105
2, 47100, Note_off_c, 2, 58, 64
2, 47200, Note_on_c, 2, 75, 80
2, 47200, Note_on_c, 2, 84, 80
2, 47200, Note_on_c, 2, 65, 59
2, 47200, Note_on_c, 2, 65, 72
2, 47208, Note_off_c, 2, 82, 64
2, 47208, Note_off_c, 2, 73, 64
2, 47360, Note_on_c, 2, 85, 84
2, 47360, Note_on_c, 2, 77, 84
2, 47360, Note_on_c, 2, 61, 83
2, 47360, Note_on_c, 2, 70, 83
2, 47368, Note_off_c, 2, 75, 64
2, 47368, Note_off_c, 2, 84, 64
2, 47400, Note_off_c, 2, 65, 64
2, 47400, Note_off_c, 2, 65, 64
2, 47480, Note_off_c, 2, 61, 64
2, 47480, Note_off_c, 2, 70, 64
2, 47520, Note_on_c, 2, 79, 93
2, 47520, Note_on_c, 2, 87, 93
2, 47520, Control_c, 2, 64, 0
2, 47520, Note_on_c, 2, 57, 109
2, 47528, Note_off_c, 2, 85, 64
2, 47528, Note_off_c, 2, 77, 64
2, 47677, Note_off_c, 2, 79, 64
2, 47677, Note_off_c, 2, 87, 64
2, 47680, Note_off_c, 2, 57, 64
2, 47680, Note_on_c, 2, 89, 86
2, 47680, Note_on_c, 2, 80, 86
2, 47680, Note_on_c, 2, 63, 77
2, 47840, Note_on_c, 2, 87, 79
2, 47840, Note_on_c, 2, 79, 79
2, 47840, Note_on_c, 2, 61, 55
2, 47840, Note_on_c, 2, 67, 55
2, 47848, Note_off_c, 2, 80, 64
2, 47848, Note_off_c, 2, 89, 64
2, 47920, Note_off_c, 2, 63, 64
2, 47960, Note_off_c, 2, 61, 64
2, 47960, Note_off_c, 2, 67, 64
2, 47980, Control_c, 2, 64, 0
2, 47980, Control_c, 2, 64, 0
2, 47990, Note_off_c, 2, 87, 64
2, 47990, Note_off_c, 2, 79, 64
2, 48000, Control_c, 2, 64, 127
2, 48000, Note_on_c, 2, 89, 43
2, 48000, Note_on_c, 2, 80, 43
2, 48000, Control_c, 2, 64, 127
2, 48000, Note_on_c, 2, 61, 48
2, 48000, Note_on_c, 2, 73, 48
2, 48160, Note_on_c, 2, 79, 51
2, 48160, Note_on_c, 2, 87, 51
2, 48168, Note_off_c, 2, 80, 64
2, 48168, Note_off_c, 2, 89, 64
2, 48320, Note_on_c, 2, 80, 44
2, 48320, Note_on_c, 2, 89, 44
2, 48328, Note_off_c, 2, 79, 64
2, 48328, Note_off_c, 2, 87, 64
2, 48480, Note_off_c, 2, 61, 58
2, 48480, Note_off_c, 2, 73, 58
2, 48480, Note_on_c, 2, 79, 57
2, 48480, Note_on_c, 2, 87, 57
2, 48488, Note_off_c, 2, 80, 64
2, 48488, Note_off_c, 2, 89, 64
2, 48640, Note_on_c, 2, 80, 51
2, 48640, Note_on_c, 2, 89, 51
2, 48648, Note_off_c, 2, 79, 64
2, 48648, Note_off_c, 2, 87, 64
2, 48800, Note_on_c, 2, 87, 67
2, 48800, Note_on_c, 2, 79, 68
2, 48808, Note_off_c, 2, 80, 64
2, 48808, Note_off_c, 2, 89, 64
2, 48900, Control_c, 2, 64, 0
2, 48940, Control_c, 2, 64, 0
2, 48960, Note_off_c, 2, 79, 64
2, 48960, Control_c, 2, 64, 127
2, 48960, Note_on_c, 2, 89, 68
2, 48960, Note_on_c, 2, 80, 68
2, 49000, Note_off_c, 2, 87, 64
2, 49120, Note_on_c, 2, 87, 70
2, 49120, Note_on_c, 2, 79, 68
2, 49128, Note_off_c, 2, 89, 64
2, 49128, Note_off_c, 2, 80, 64
2, 49280, Note_on_c, 2, 89, 74
2, 49280, Note_on_c, 2, 80, 68
2, 49288, Note_off_c, 2, 87, 64
2, 49288, Note_off_c, 2, 79, 64
2, 49440, Control_c, 2, 64, 0
2, 49440, Note_on_c, 2, 79, 68
2, 49440, Note_on_c, 2, 87, 78
2, 49440, Note_on_c, 2, 33, 89
2, 49440, Note_on_c, 2, 45, 89
2, 49448, Note_off_c, 2, 89, 64
2, 49448, Note_off_c, 2, 80, 64
2, 49597, Note_off_c, 2, 79, 64
2, 49597, Note_off_c, 2, 87, 64
2, 49600, Note_on_c, 2, 80, 68
2, 49600, Note_on_c, 2, 89, 68
2, 49760, Note_on_c, 2, 79, 68
2, 49760, Note_on_c, 2, 87, 54
2, 49768, Note_off_c, 2, 89, 64
2, 49768, Note_off_c, 2, 80, 64
2, 49900, Control_c, 2, 64, 0
2, 49910, Note_off_c, 2, 79, 64
2, 49910, Note_off_c, 2, 87, 64
2, 49920, Note_on_c, 2, 80, 68
2, 49920, Note_on_c, 2, 89, 68
2, 49920, Note_on_c, 2, 32, 79
2, 49920, Note_on_c, 2, 44, 79
2, 49960, Note_off_c, 2, 33, 58
2, 49960, Note_off_c, 2, 45, 58
2, 50020, Control_c, 2, 64, 127
2, 50080, Note_on_c, 2, 78, 64
2, 50080, Note_on_c, 2, 87, 64
2, 50120, Note_off_c, 2, 80, 64
2, 50120, Note_off_c, 2, 89, 64
2, 50240, Note_on_c, 2, 89, 51
2, 50240, Note_on_c, 2, 80, 71
2, 50280, Note_off_c, 2, 78, 64
2, 50280, Note_off_c, 2, 87, 64
2, 50360, Note_off_c, 2, 32, 58
2, 50360, Note_off_c, 2, 44, 58
2, 50400, Note_on_c, 2, 87, 71
2, 50400, Note_on_c, 2, 78, 68
2, 50400, Note_on_c, 2, 66, 69
2, 50400, Note_on_c, 2, 70, 69
2, 50408, Note_off_c, 2, 89, 64
2, 50440, Note_off_c, 2, 80, 64
2, 50560, Note_on_c, 2, 89, 68
2, 50560, Note_on_c, 2, 80, 56
2, 50560, Note_on_c, 2, 68, 57
2, 50560, Note_on_c, 2, 60, 57
2, 50571, Note_off_c, 2, 66, 58
2, 50571, Note_off_c, 2, 70, 58
2, 50600, Note_off_c, 2, 87, 64
2, 50600, Note_off_c, 2, 78, 64
2, 50720, Note_on_c, 2, 87, 67
2, 50720, Note_on_c, 2, 78, 68
2, 50720, Note_on_c, 2, 70, 78
2, 50720, Note_on_c, 2, 66, 78
2, 50728, Note_off_c, 2, 89, 64
2, 50731, Note_off_c, 2, 68, 58
2, 50731, Note_off_c, 2, 60, 58
2, 50760, Note_off_c, 2, 80, 64
2, 50860, Control_c, 2, 64, 0
2, 50880, Note_off_c, 2, 78, 64
2, 50880, Control_c, 2, 64, 127
2, 50880, Note_on_c, 2, 89, 68
2, 50880, Note_on_c, 2, 80, 68
2, 50880, Note_on_c, 2, 60, 60
2, 50880, Note_on_c, 2, 68, 60
2, 50891, Note_off_c, 2, 70, 58
2, 50891, Note_off_c, 2, 66, 58
2, 50920, Note_off_c, 2, 87, 64
2, 51040, Note_on_c, 2, 87, 70
2, 51040, Note_on_c, 2, 78, 68
2, 51040, Note_on_c, 2, 66, 58
2, 51040, Note_on_c, 2, 70, 58
2, 51048, Note_off_c, 2, 89, 64
2, 51051, Note_off_c, 2, 60, 58
2, 51051, Note_off_c, 2, 68, 58
2, 51080, Note_off_c, 2, 80, 64
2, 51200, Note_on_c, 2, 89, 74
2, 51200, Note_on_c, 2, 80, 68
2, 51200, Note_on_c, 2, 68, 54
2, 51200, Note_on_c, 2, 60, 54
2, 51208, Note_off_c, 2, 87, 64
2, 51211, Note_off_c, 2, 66, 58
2, 51211, Note_off_c, 2, 70, 58
2, 51240, Note_off_c, 2, 78, 64
2, 51360, Control_c, 2, 64, 0
2, 51360, Note_on_c, 2, 87, 78
2, 51360, Note_on_c, 2, 78, 68
2, 51360, Note_on_c, 2, 70, 59
2, 51360, Note_on_c, 2, 66, 59
2, 51371, Note_off_c, 2, 68, 58
2, 51371, Note_off_c, 2, 60, 58
2, 51400, Note_off_c, 2, 89, 64
2, 51400, Note_off_c, 2, 80, 64
2, 51520, Control_c, 2, 64, 127
2, 51520, Note_on_c, 2, 89, 68
2, 51520, Note_on_c, 2, 80, 68
2, 51520, Note_on_c, 2, 68, 50
2, 51520, Note_on_c, 2, 60, 50
2, 51531, Note_off_c, 2, 70, 58
2, 51531, Note_off_c, 2, 66, 58
2, 51560, Note_off_c, 2, 87, 64
2, 51560, Note_off_c, 2, 78, 64
2, 51680, Note_on_c, 2, 78, 68
2, 51680, Note_on_c, 2, 87, 54
2, 51680, Note_on_c, 2, 63, 72
2, 51680, Note_on_c, 2, 72, 72
2, 51691, Note_off_c, 2, 68, 58
2, 51691, Note_off_c, 2, 60, 58
2, 51720, Note_off_c, 2, 89, 64
2, 51720, Note_off_c, 2, 80, 64
2, 51820, Control_c, 2, 64, 0
2, 51840, Control_c, 2, 64, 127
2, 51840, Note_on_c, 2, 66, 87
2, 51840, Note_on_c, 2, 75, 87
2, 51851, Note_off_c, 2, 63, 58
2, 51851, Note_off_c, 2, 72, 58
2, 52000, Note_on_c, 2, 82, 64
2, 52000, Note_on_c, 2, 90, 64
2, 52011, Note_off_c, 2, 66, 58
2, 52011, Note_off_c, 2, 75, 58
2, 52040, Note_off_c, 2, 78, 64
2, 52040, Note_off_c, 2, 87, 64
2, 52100, Control_c, 2, 64, 0
2, 52160, Note_on_c, 2, 80, 71
2, 52160, Note_on_c, 2, 89, 51
2, 52200, Note_off_c, 2, 82, 64
2, 52200, Note_off_c, 2, 90, 64
2, 52320, Note_on_c, 2, 78, 68
2, 52320, Note_on_c, 2, 87, 71
2, 52320, Note_on_c, 2, 44, 54
2, 52320, Control_c, 2, 64, 127
2, 52360, Note_off_c, 2, 80, 64
2, 52360, Note_off_c, 2, 89, 64
2, 52480, Note_on_c, 2, 85, 68
2, 52480, Note_on_c, 2, 77, 56
2, 52480, Note_on_c, 2, 48, 62
2, 52480, Note_on_c, 2, 56, 62
2, 52491, Note_off_c, 2, 44, 58
2, 52520, Note_off_c, 2, 78, 64
2, 52520, Note_off_c, 2, 87, 64
2, 52640, Note_on_c, 2, 82, 67
2, 52640, Note_on_c, 2, 75, 68
2, 52640, Note_on_c, 2, 60, 68
2, 52640, Note_on_c, 2, 51, 68
2, 52651, Note_off_c, 2, 48, 58
2, 52651, Note_off_c, 2, 56, 58
2, 52680, Note_off_c, 2, 85, 64
2, 52680, Note_off_c, 2, 77, 64
2, 52780, Control_c, 2, 64, 0
2, 52800, Control_c, 2, 64, 127
2, 52800, Note_on_c, 2, 72, 68
2, 52800, Note_on_c, 2, 80, 68
2, 52800, Note_on_c, 2, 66, 76
2, 52800, Note_on_c, 2, 54, 76
2, 52811, Note_off_c, 2, 60, 58
2, 52811, Note_off_c, 2, 51, 58
2, 52840, Note_off_c, 2, 82, 64
2, 52840, Note_off_c, 2, 75, 64
2, 52960, Note_on_c, 2, 75, 68
2, 52960, Note_on_c, 2, 84, 70
2, 52971, Note_off_c, 2, 66, 58
2, 52971, Note_off_c, 2, 54, 58
2, 53000, Note_off_c, 2, 72, 64
2, 53000, Note_off_c, 2, 80, 64
2, 53120, Note_on_c, 2, 73, 68
2, 53120, Note_on_c, 2, 82, 74
2, 53160, Note_off_c, 2, 75, 64
2, 53160, Note_off_c, 2, 84, 64
2, 53280, Control_c, 2, 64, 0
2, 53280, Note_on_c, 2, 72, 68
2, 53280, Note_on_c, 2, 80, 78
2, 53280, Control_c, 2, 64, 0
2, 53320, Note_off_c, 2, 73, 64
2, 53320, Note_off_c, 2, 82, 64
2, 53440, Control_c, 2, 64, 127
2, 53440, Note_on_c, 2, 70, 68
2, 53440, Note_on_c, 2, 78, 68
2, 53480, Note_off_c, 2, 72, 64
2, 53480, Note_off_c, 2, 80, 64
2, 53600, Note_on_c, 2, 68, 68
2, 53600, Note_on_c, 2, 75, 54
2, 53640, Note_off_c, 2, 70, 64
2, 53640, Note_off_c, 2, 78, 64
2, 53740, Control_c, 2, 64, 0
2, 53750, Note_off_c, 2, 68, 64
2, 53750, Note_off_c, 2, 75, 64
2, 53760, Note_on_c, 2, 65, 54
2, 53760, Control_c, 2, 64, 127
2, 53760, Note_on_c, 2, 73, 54
2, 53760, Note_on_c, 2, 37, 67
2, 53760, Control_c, 2, 64, 127
2, 53920, Note_on_c, 2, 56, 48
2, 53920, Note_on_c, 2, 66, 48
2, 53928, Note_off_c, 2, 37, 64
2, 54000, Note_off_c, 2, 73, 58
2, 54000, Note_off_c, 2, 65, 58
2, 54080, Note_on_c, 2, 77, 70
2, 54080, Note_on_c, 2, 85, 70
2, 54080, Note_on_c, 2, 61, 53
2, 54080, Note_on_c, 2, 68, 53
2, 54088, Note_off_c, 2, 56, 64
2, 54088, Note_off_c, 2, 66, 64
2, 54240, Note_on_c, 2, 87, 73
2, 54240, Note_on_c, 2, 78, 73
2, 54240, Note_on_c, 2, 65, 55
2, 54240, Note_on_c, 2, 73, 55
2, 54248, Note_off_c, 2, 61, 64
2, 54248, Note_off_c, 2, 68, 64
2, 54280, Note_off_c, 2, 77, 64
2, 54280, Note_off_c, 2, 85, 64
2, 54400, Note_on_c, 2, 77, 64
2, 54400, Note_on_c, 2, 85, 64
2, 54400, Note_on_c, 2, 61, 52
2, 54400, Note_on_c, 2, 68, 52
2, 54408, Note_off_c, 2, 65, 64
2, 54408, Note_off_c, 2, 73, 64
2, 54440, Note_off_c, 2, 87, 64
2, 54440, Note_off_c, 2, 78, 64
2, 54560, Note_on_c, 2, 73, 57
2, 54560, Note_on_c, 2, 82, 57
2, 54560, Note_on_c, 2, 65, 44
2, 54560, Note_on_c, 2, 56, 44
2, 54568, Note_off_c, 2, 61, 64
2, 54568, Note_off_c, 2, 68, 64
2, 54600, Note_off_c, 2, 77, 64
2, 54600, Note_off_c, 2, 85, 64
2, 54700, Control_c, 2, 64, 0
2, 54700, Control_c, 2, 64, 0
2, 54710, Note_off_c, 2, 65, 64
2, 54710, Note_off_c, 2, 56, 64
2, 54720, Note_on_c, 2, 83, 54
2, 54720, Note_on_c, 2, 75, 54
2, 54720, Control_c, 2, 64, 127
2, 54720, Control_c, 2, 64, 127
2, 54720, Note_on_c, 2, 49, 65
2, 54760, Note_off_c, 2, 73, 64
2, 54760, Note_off_c, 2, 82, 64
2, 54880, Note_on_c, 2, 85, 64
2, 54880, Note_on_c, 2, 77, 62
2, 54880, Note_on_c, 2, 56, 44
2, 54880, Note_on_c, 2, 65, 44
2, 54888, Note_off_c, 2, 49, 64
2, 54920, Note_off_c, 2, 83, 64
2, 54920, Note_off_c, 2, 75, 64
2, 55040, Note_on_c, 2, 75, 57
2, 55040, Note_on_c, 2, 83, 57
2, 55040, Note_on_c, 2, 61, 48
2, 55040, Note_on_c, 2, 68, 48
2, 55048, Note_off_c, 2, 56, 64
2, 55048, Note_off_c, 2, 65, 64
2, 55080, Note_off_c, 2, 85, 64
2, 55080, Note_off_c, 2, 77, 64
2, 55200, Note_on_c, 2, 85, 77
2, 55200, Note_on_c, 2, 77, 77
2, 55200, Control_c, 2, 64, 0
2, 55200, Note_on_c, 2, 73, 52
2, 55200, Note_on_c, 2, 65, 52
2, 55208, Note_off_c, 2, 61, 64
2, 55208, Note_off_c, 2, 68, 64
2, 55240, Note_off_c, 2, 75, 64
2, 55240, Note_off_c, 2, 83, 64
2, 55360, Note_on_c, 2, 75, 65
2, 55360, Note_on_c, 2, 83, 65
2, 55360, Control_c, 2, 64, 127
2, 55360, Note_on_c, 2, 61, 46
2, 55360, Note_on_c, 2, 68, 46
2, 55368, Note_off_c, 2, 73, 64
2, 55368, Note_off_c, 2, 65, 64
2, 55400, Note_off_c, 2, 85, 64
2, 55400, Note_off_c, 2, 77, 64
2, 55520, Note_on_c, 2, 77, 61
2, 55520, Note_on_c, 2, 85, 61
2, 55520, Note_on_c, 2, 65, 42
2, 55520, Note_on_c, 2, 56, 42
2, 55528, Note_off_c, 2, 61, 64
2, 55528, Note_off_c, 2, 68, 64
2, 55560, Note_off_c, 2, 75, 64
2, 55560, Note_off_c, 2, 83, 64
2, 55660, Control_c, 2, 64, 0
2, 55660, Control_c, 2, 64, 0
2, 55670, Note_off_c, 2, 77, 64
2, 55670, Note_off_c, 2, 85, 64
2, 55670, Note_off_c, 2, 65, 64
2, 55670, Note_off_c, 2, 56, 64
2, 55680, Note_on_c, 2, 83, 67
2, 55680, Note_on_c, 2, 75, 67
2, 55680, Control_c, 2, 64, 127
2, 55680, Control_c, 2, 64, 127
2, 55680, Note_on_c, 2, 37, 77
2, 55840, Note_on_c, 2, 85, 76
2, 55840, Note_on_c, 2, 77, 76
2, 55840, Note_on_c, 2, 61, 55
2, 55840, Note_on_c, 2, 53, 55
2, 55848, Note_off_c, 2, 37, 64
2, 55848, Note_off_c, 2, 75, 64
2, 55848, Note_off_c, 2, 83, 64
2, 56000, Note_on_c, 2, 83, 60
2, 56000, Note_on_c, 2, 75, 60
2, 56000, Note_on_c, 2, 56, 59
2, 56000, Note_on_c, 2, 65, 59
2, 56008, Note_off_c, 2, 85, 64
2, 56008, Note_off_c, 2, 77, 64
2, 56008, Note_off_c, 2, 61, 64
2, 56008, Note_off_c, 2, 53, 64
2, 56160, Note_on_c, 2, 85, 76
2, 56160, Note_on_c, 2, 77, 76
2, 56160, Note_on_c, 2, 61, 61
2, 56160, Note_on_c, 2, 68, 61
2, 56168, Note_off_c, 2, 83, 64
2, 56168, Note_off_c, 2, 75, 64
2, 56168, Note_off_c, 2, 56, 64
2, 56168, Note_off_c, 2, 65, 64
2, 56320, Note_on_c, 2, 83, 61
2, 56320, Note_on_c, 2, 75, 61
2, 56320, Note_on_c, 2, 56, 60
2, 56320, Note_on_c, 2, 65, 60
2, 56328, Note_off_c, 2, 85, 64
2, 56328, Note_off_c, 2, 77, 64
2, 56328, Note_off_c, 2, 61, 64
2, 56328, Note_off_c, 2, 68, 64
2, 56480, Note_on_c, 2, 80, 74
2, 56480, Note_on_c, 2, 71, 74
2, 56480, Note_on_c, 2, 61, 56
2, 56480, Note_on_c, 2, 53, 56
2, 56488, Note_off_c, 2, 83, 64
2, 56488, Note_off_c, 2, 75, 64
2, 56488, Note_off_c, 2, 56, 64
2, 56488, Note_off_c, 2, 65, 64
2, 56560, Note_off_c, 2, 53, 64
2, 56620, Control_c, 2, 64, 0
2, 56620, Control_c, 2, 64, 0
2, 56630, Note_off_c, 2, 80, 64
2, 56630, Note_off_c, 2, 71, 64
2, 56630, Note_off_c, 2, 61, 64
2, 56640, Note_on_c, 2, 82, 74
2, 56640, Note_on_c, 2, 73, 74
2, 56640, Control_c, 2, 64, 127
2, 56640, Note_on_c, 2, 42, 86
2, 56720, Note_off_c, 2, 42, 64
2, 56800, Note_on_c, 2, 78, 59
2, 56800, Note_on_c, 2, 70, 59
2, 56800, Note_on_c, 2, 61, 53
2, 56800, Note_on_c, 2, 54, 53
2, 56808, Note_off_c, 2, 73, 64
2, 56808, Note_off_c, 2, 82, 64
2, 56960, Note_on_c, 2, 73, 59
2, 56960, Note_on_c, 2, 82, 59
2, 56960, Note_on_c, 2, 58, 59
2, 56960, Note_on_c, 2, 66, 59
2, 56968, Note_off_c, 2, 78, 64
2, 56968, Note_off_c, 2, 70, 64
2, 57000, Note_off_c, 2, 61, 64
2, 57000, Note_off_c, 2, 54, 64
2, 57080, Note_off_c, 2, 58, 64
2, 57080, Note_off_c, 2, 66, 64
2, 57100, Control_c, 2, 64, 0
2, 57117, Note_off_c, 2, 73, 64
2, 57117, Note_off_c, 2, 82, 64
2, 57120, Control_c, 2, 64, 0
2, 57120, Note_on_c, 2, 80, 72
2, 57120, Note_on_c, 2, 71, 72
2, 57120, Note_on_c, 2, 44, 87
2, 57200, Note_off_c, 2, 44, 64
2, 57280, Note_on_c, 2, 66, 54
2, 57280, Note_on_c, 2, 75, 54
2, 57280, Control_c, 2, 64, 127
2, 57280, Note_on_c, 2, 56, 59
2, 57280, Note_on_c, 2, 48, 59
2, 57288, Note_off_c, 2, 71, 64
2, 57288, Note_off_c, 2, 80, 64
2, 57440, Note_on_c, 2, 68, 69
2, 57440, Note_on_c, 2, 77, 69
2, 57440, Control_c, 2, 64, 0
2, 57440, Note_on_c, 2, 51, 59
2, 57440, Note_on_c, 2, 60, 59
2, 57448, Note_off_c, 2, 66, 64
2, 57448, Note_off_c, 2, 75, 64
2, 57480, Note_off_c, 2, 56, 64
2, 57480, Note_off_c, 2, 48, 64
2, 57560, Note_off_c, 2, 51, 64
2, 57560, Note_off_c, 2, 60, 64
2, 57580, Control_c, 2, 64, 0
2, 57590, Note_off_c, 2, 68, 64
2, 57590, Note_off_c, 2, 77, 64
2, 57600, Note_on_c, 2, 73, 72
2, 57600, Note_on_c, 2, 65, 72
2, 57600, Note_on_c, 2, 37, 84
2, 57600, Control_c, 2, 64, 127
2, 57760, Note_on_c, 2, 75, 55
2, 57760, Note_on_c, 2, 66, 55
2, 57760, Note_on_c, 2, 44, 48
2, 57760, Note_on_c, 2, 54, 48
2, 57768, Note_off_c, 2, 37, 64
2, 57768, Note_off_c, 2, 73, 64
2, 57800, Note_off_c, 2, 65, 64
2, 57920, Note_on_c, 2, 73, 54
2, 57920, Note_on_c, 2, 65, 54
2, 57920, Note_on_c, 2, 49, 53
2, 57920, Note_on_c, 2, 56, 53
2, 57928, Note_off_c, 2, 75, 64
2, 57928, Note_off_c, 2, 44, 64
2, 57928, Note_off_c, 2, 54, 64
2, 57960, Note_off_c, 2, 66, 64
2, 58080, Note_on_c, 2, 66, 69
2, 58080, Note_on_c, 2, 75, 69
2, 58080, Note_on_c, 2, 53, 55
2, 58080, Note_on_c, 2, 61, 55
2, 58088, Note_off_c, 2, 73, 64
2, 58088, Note_off_c, 2, 49, 64
2, 58088, Note_off_c, 2, 56, 64
2, 58120, Note_off_c, 2, 65, 64
2, 58240, Note_on_c, 2, 73, 54
2, 58240, Note_on_c, 2, 65, 54
2, 58240, Note_on_c, 2, 49, 52
2, 58240, Note_on_c, 2, 56, 52
2, 58248, Note_off_c, 2, 75, 64
2, 58248, Note_off_c, 2, 53, 64
2, 58248, Note_off_c, 2, 61, 64
2, 58280, Note_off_c, 2, 66, 64
2, 58400, Note_on_c, 2, 70, 53
2, 58400, Note_on_c, 2, 61, 53
2, 58400, Note_on_c, 2, 65, 44
2, 58400, Note_on_c, 2, 44, 44
2, 58408, Note_off_c, 2, 73, 64
2, 58408, Note_off_c, 2, 49, 64
2, 58408, Note_off_c, 2, 56, 64
2, 58440, Note_off_c, 2, 65, 64
2, 58540, Control_c, 2, 64, 0
2, 58550, Note_off_c, 2, 65, 64
2, 58550, Note_off_c, 2, 44, 64
2, 58560, Note_on_c, 2, 71, 68
2, 58560, Note_on_c, 2, 63, 68
2, 58560, Note_on_c, 2, 37, 71
2, 58560, Control_c, 2, 64, 127
2, 58600, Note_off_c, 2, 70, 64
2, 58600, Note_off_c, 2, 61, 64
2, 58720, Note_on_c, 2, 73, 56
2, 58720, Note_on_c, 2, 65, 56
2, 58720, Note_on_c, 2, 53, 44
2, 58720, Note_on_c, 2, 44, 44
2, 58728, Note_off_c, 2, 37, 64
2, 58760, Note_off_c, 2, 71, 64
2, 58760, Note_off_c, 2, 63, 64
2, 58880, Note_on_c, 2, 63, 55
2, 58880, Note_on_c, 2, 71, 55
2, 58880, Note_on_c, 2, 49, 48
2, 58880, Note_on_c, 2, 56, 48
2, 58888, Note_off_c, 2, 53, 64
2, 58888, Note_off_c, 2, 44, 64
2, 58920, Note_off_c, 2, 73, 64
2, 58920, Note_off_c, 2, 65, 64
2, 59040, Note_on_c, 2, 65, 68
2, 59040, Note_on_c, 2, 73, 68
2, 59040, Note_on_c, 2, 61, 52
2, 59040, Note_on_c, 2, 53, 52
2, 59048, Note_off_c, 2, 49, 64
2, 59048, Note_off_c, 2, 56, 64
2, 59080, Note_off_c, 2, 63, 64
2, 59080, Note_off_c, 2, 71, 64
2, 59200, Note_on_c, 2, 63, 54
2, 59200, Note_on_c, 2, 71, 54
2, 59200, Note_on_c, 2, 49, 46
2, 59200, Note_on_c, 2, 56, 46
2, 59208, Note_off_c, 2, 61, 64
2, 59208, Note_off_c, 2, 53, 64
2, 59240, Note_off_c, 2, 65, 64
2, 59240, Note_off_c, 2, 73, 64
2, 59360, Note_on_c, 2, 73, 68
2, 59360, Note_on_c, 2, 65, 68
2, 59360, Note_on_c, 2, 53, 42
2, 59360, Note_on_c, 2, 44, 42
2, 59368, Note_off_c, 2, 49, 64
2, 59368, Note_off_c, 2, 56, 64
2, 59400, Note_off_c, 2, 63, 64
2, 59400, Note_off_c, 2, 71, 64
2, 59500, Control_c, 2, 64, 0
2, 59510, Note_off_c, 2, 73, 64
2, 59510, Note_off_c, 2, 65, 64
2, 59510, Note_off_c, 2, 53, 64
2, 59510, Note_off_c, 2, 44, 64
2, 59520, Note_on_c, 2, 71, 67
2, 59520, Note_on_c, 2, 63, 67
2, 59520, Note_on_c, 2, 37, 81
2, 59520, Control_c, 2, 64, 127
2, 59680, Note_on_c, 2, 73, 76
2, 59680, Note_on_c, 2, 65, 76
2, 59680, Note_on_c, 2, 49, 52
2, 59680, Note_on_c, 2, 41, 52
2, 59688, Note_off_c, 2, 37, 64
2, 59720, Note_off_c, 2, 63, 64
2, 59720, Note_off_c, 2, 71, 64
2, 59840, Note_on_c, 2, 71, 60
2, 59840, Note_on_c, 2, 63, 60
2, 59840, Note_on_c, 2, 44, 55
2, 59840, Note_on_c, 2, 53, 55
2, 59848, Note_off_c, 2, 73, 64
2, 59848, Note_off_c, 2, 49, 64
2, 59848, Note_off_c, 2, 41, 64
2, 59880, Note_off_c, 2, 65, 64
2, 60000, Note_on_c, 2, 65, 76
2, 60000, Note_on_c, 2, 73, 76
2, 60000, Note_on_c, 2, 56, 60
2, 60000, Note_on_c, 2, 49, 60
2, 60008, Note_off_c, 2, 44, 64
2, 60008, Note_off_c, 2, 53, 64
2, 60040, Note_off_c, 2, 71, 64
2, 60040, Note_off_c, 2, 63, 64
2, 60160, Note_on_c, 2, 71, 61
2, 60160, Note_on_c, 2, 63, 61
2, 60160, Note_on_c, 2, 44, 54
2, 60160, Note_on_c, 2, 53, 54
2, 60168, Note_off_c, 2, 56, 64
2, 60168, Note_off_c, 2, 49, 64
2, 60200, Note_off_c, 2, 65, 64
2, 60200, Note_off_c, 2, 73, 64
2, 60320, Note_on_c, 2, 68, 74
2, 60320, Note_on_c, 2, 59, 74
2, 60320, Note_on_c, 2, 41, 51
2, 60320, Note_on_c, 2, 49, 51
2, 60328, Note_off_c, 2, 44, 64
2, 60328, Note_off_c, 2, 53, 64
2, 60360, Note_off_c, 2, 71, 64
2, 60360, Note_off_c, 2, 63, 64
2, 60460, Control_c, 2, 64, 0
2, 60470, Note_off_c, 2, 41, 64
2, 60470, Note_off_c, 2, 49, 64
2, 60480, Note_on_c, 2, 70, 74
2, 60480, Note_on_c, 2, 61, 74
2, 60480, Note_on_c, 2, 30, 88
2, 60520, Note_off_c, 2, 68, 64
2, 60520, Note_off_c, 2, 59, 64
2, 60560, Note_off_c, 2, 30, 64
2, 60640, Note_on_c, 2, 66, 59
2, 60640, Note_on_c, 2, 58, 59
2, 60640, Note_on_c, 2, 49, 64
2, 60680, Note_off_c, 2, 70, 64
2, 60680, Note_off_c, 2, 61, 64
2, 60800, Note_on_c, 2, 70, 59
2, 60800, Note_on_c, 2, 61, 59
2, 60800, Note_on_c, 2, 46, 69
2, 60800, Note_on_c, 2, 54, 69
2, 60840, Note_off_c, 2, 66, 64
2, 60840, Note_off_c, 2, 58, 64
2, 60840, Note_off_c, 2, 49, 64
2, 60880, Note_off_c, 2, 46, 64
2, 60880, Note_off_c, 2, 54, 64
2, 60940, Control_c, 2, 64, 0
2, 60960, Note_on_c, 2, 68, 72
2, 60960, Note_on_c, 2, 59, 72
2, 60960, Note_on_c, 2, 32, 88
2, 61000, Note_off_c, 2, 70, 64
2, 61000, Note_off_c, 2, 61, 64
2, 61040, Note_off_c, 2, 32, 64
2, 61120, Note_on_c, 2, 54, 54
2, 61120, Note_on_c, 2, 63, 54
2, 61120, Note_on_c, 2, 44, 69
2, 61160, Note_off_c, 2, 68, 64
2, 61200, Note_off_c, 2, 59, 64
2, 61280, Note_on_c, 2, 56, 69
2, 61280, Note_on_c, 2, 65, 69
2, 61280, Note_on_c, 2, 39, 75
2, 61280, Note_on_c, 2, 48, 75
2, 61320, Note_off_c, 2, 54, 64
2, 61320, Note_off_c, 2, 63, 64
2, 61320, Note_off_c, 2, 44, 64
2, 61360, Note_off_c, 2, 39, 64
2, 61360, Note_off_c, 2, 48, 64
2, 61420, Control_c, 2, 64, 0
2, 61430, Note_off_c, 2, 56, 64
2, 61430, Note_off_c, 2, 65, 64
2, 61440, Note_on_c, 2, 61, 67
2, 61440, Note_on_c, 2, 53, 67
2, 61440, Note_on_c, 2, 49, 88
2, 61440, Note_on_c, 2, 37, 88
2, 61440, Control_c, 2, 64, 127
2, 61600, Note_on_c, 2, 62, 40
2, 61600, Note_on_c, 2, 54, 40
2, 61640, Note_off_c, 2, 53, 64
2, 61640, Note_off_c, 2, 61, 64
2, 61760, Note_on_c, 2, 55, 44
2, 61760, Note_on_c, 2, 63, 44
2, 61800, Note_off_c, 2, 62, 64
2, 61800, Note_off_c, 2, 54, 64
2, 61920, Note_off_c, 2, 49, 58
2, 61920, Note_off_c, 2, 37, 58
2, 61920, Note_on_c, 2, 56, 48
2, 61920, Note_on_c, 2, 64, 48
2, 61960, Note_off_c, 2, 55, 64
2, 61960, Note_off_c, 2, 63, 64
2, 62080, Note_on_c, 2, 57, 52
2, 62080, Note_on_c, 2, 65, 52
2, 62120, Note_off_c, 2, 56, 64
2, 62120, Note_off_c, 2, 64, 64
2, 62240, Note_on_c, 2, 58, 56
2, 62240, Note_on_c, 2, 66, 56
2, 62280, Note_off_c, 2, 57, 64
2, 62280, Note_off_c, 2, 65, 64
2, 62340, Control_c, 2, 64, 0
2, 62400, Note_on_c, 2, 59, 45
2, 62400, Note_on_c, 2, 67, 45
2, 62400, Note_on_c, 2, 44, 60
2, 62400, Control_c, 2, 64, 127
2, 62400, Note_on_c, 2, 56, 60
2, 62440, Note_off_c, 2, 58, 64
2, 62440, Note_off_c, 2, 66, 64
2, 62560, Note_on_c, 2, 68, 49
2, 62560, Note_on_c, 2, 60, 49
2, 62560, Note_on_c, 2, 51, 32
2, 62560, Note_on_c, 2, 54, 32
2, 62576, Note_off_c, 2, 44, 58
2, 62576, Note_off_c, 2, 56, 58
2, 62600, Note_off_c, 2, 59, 64
2, 62600, Note_off_c, 2, 67, 64
2, 62720, Note_on_c, 2, 69, 51
2, 62720, Note_on_c, 2, 61, 51
2, 62720, Note_on_c, 2, 56, 35
2, 62720, Note_on_c, 2, 44, 35
2, 62736, Note_off_c, 2, 51, 58
2, 62736, Note_off_c, 2, 54, 58
2, 62760, Note_off_c, 2, 68, 64
2, 62760, Note_off_c, 2, 60, 64
2, 62880, Note_on_c, 2, 62, 54
2, 62880, Note_on_c, 2, 70, 54
2, 62880, Note_on_c, 2, 54, 36
2, 62880, Note_on_c, 2, 51, 36
2, 62896, Note_off_c, 2, 56, 58
2, 62896, Note_off_c, 2, 44, 58
2, 62920, Note_off_c, 2, 69, 64
2, 62920, Note_off_c, 2, 61, 64
2, 63040, Note_on_c, 2, 63, 58
2, 63040, Note_on_c, 2, 71, 58
2, 63040, Note_on_c, 2, 56, 38
2, 63040, Note_on_c, 2, 44, 38
2, 63056, Note_off_c, 2, 54, 58
2, 63056, Note_off_c, 2, 51, 58
2, 63080, Note_off_c, 2, 62, 64
2, 63080, Note_off_c, 2, 70, 64
2, 63200, Note_on_c, 2, 64, 60
2, 63200, Note_on_c, 2, 72, 60
2, 63200, Note_on_c, 2, 54, 40
2, 63200, Note_on_c, 2, 51, 40
2, 63216, Note_off_c, 2, 56, 58
2, 63216, Note_off_c, 2, 44, 58
2, 63240, Note_off_c, 2, 63, 64
2, 63240, Note_off_c, 2, 71, 64
2, 63360, Note_on_c, 2, 65, 66
2, 63360, Note_on_c, 2, 73, 66
2, 63360, Note_on_c, 2, 44, 42
2, 63360, Note_on_c, 2, 56, 42
2, 63376, Note_off_c, 2, 54, 58
2, 63376, Note_off_c, 2, 51, 58
2, 63400, Note_off_c, 2, 64, 64
2, 63400, Note_off_c, 2, 72, 64
2, 63520, Note_on_c, 2, 74, 70
2, 63520, Note_on_c, 2, 66, 70
2, 63520, Note_on_c, 2, 54, 42
2, 63520, Note_on_c, 2, 51, 42
2, 63536, Note_off_c, 2, 44, 58
2, 63536, Note_off_c, 2, 56, 58
2, 63560, Note_off_c, 2, 65, 64
2, 63560, Note_off_c, 2, 73, 64
2, 63680, Note_on_c, 2, 67, 72
2, 63680, Note_on_c, 2, 75, 72
2, 63680, Note_on_c, 2, 56, 44
2, 63680, Note_on_c, 2, 44, 44
2, 63696, Note_off_c, 2, 54, 58
2, 63696, Note_off_c, 2, 51, 58
2, 63720, Note_off_c, 2, 74, 64
2, 63720, Note_off_c, 2, 66, 64
2, 63840, Note_on_c, 2, 68, 74
2, 63840, Note_on_c, 2, 76, 74
2, 63840, Note_on_c, 2, 54, 46
2, 63840, Note_on_c, 2, 51, 46
2, 63856, Note_off_c, 2, 56, 58
2, 63856, Note_off_c, 2, 44, 58
2, 63880, Note_off_c, 2, 67, 64
2, 63880, Note_off_c, 2, 75, 64
2, 64000, Note_on_c, 2, 69, 77
2, 64000, Note_on_c, 2, 77, 77
2, 64000, Note_on_c, 2, 56, 49
2, 64000, Note_on_c, 2, 44, 49
2, 64016, Note_off_c, 2, 54, 58
2, 64016, Note_off_c, 2, 51, 58
2, 64040, Note_off_c, 2, 68, 64
2, 64040, Note_off_c, 2, 76, 64
2, 64160, Note_on_c, 2, 70, 79
2, 64160, Note_on_c, 2, 78, 79
2, 64160, Note_on_c, 2, 54, 51
2, 64160, Note_on_c, 2, 51, 51
2, 64176, Note_off_c, 2, 56, 58
2, 64176, Note_off_c, 2, 44, 58
2, 64200, Note_off_c, 2, 69, 64
2, 64200, Note_off_c, 2, 77, 64
2, 64320, Note_on_c, 2, 71, 81
2, 64320, Note_on_c, 2, 79, 81
2, 64320, Note_on_c, 2, 56, 54
2, 64320, Note_on_c, 2, 44, 54
2, 64336, Note_off_c, 2, 54, 58
2, 64336, Note_off_c, 2, 51, 58
2, 64360, Note_off_c, 2, 70, 64
2, 64360, Note_off_c, 2, 78, 64
2, 64480, Note_on_c, 2, 72, 84
2, 64480, Note_on_c, 2, 80, 84
2, 64480, Note_on_c, 2, 54, 55
2, 64480, Note_on_c, 2, 51, 55
2, 64496, Note_off_c, 2, 56, 58
2, 64496, Note_off_c, 2, 44, 58
2, 64520, Note_off_c, 2, 71, 64
2, 64520, Note_off_c, 2, 79, 64
2, 64640, Note_on_c, 2, 81, 86
2, 64640, Note_on_c, 2, 73, 86
2, 64640, Note_on_c, 2, 56, 58
2, 64640, Note_on_c, 2, 44, 58
2, 64656, Note_off_c, 2, 54, 58
2, 64656, Note_off_c, 2, 51, 58
2, 64680, Note_off_c, 2, 72, 64
2, 64680, Note_off_c, 2, 80, 64
2, 64800, Note_on_c, 2, 74, 88
2, 64800, Note_on_c, 2, 82, 88
2, 64800, Note_on_c, 2, 54, 60
2, 64800, Note_on_c, 2, 51, 60
2, 64816, Note_off_c, 2, 56, 58
2, 64816, Note_off_c, 2, 44, 58
2, 64840, Note_off_c, 2, 81, 64
2, 64840, Note_off_c, 2, 73, 64
2, 64960, Note_on_c, 2, 75, 90
2, 64960, Note_on_c, 2, 83, 90
2, 64960, Note_on_c, 2, 56, 63
2, 64960, Note_on_c, 2, 44, 63
2, 64976, Note_off_c, 2, 54, 58
2, 64976, Note_off_c, 2, 51, 58
2, 65000, Note_off_c, 2, 74, 64
2, 65000, Note_off_c, 2, 82, 64
2, 65120, Note_on_c, 2, 76, 93
2, 65120, Note_on_c, 2, 84, 93
2, 65120, Note_on_c, 2, 54, 64
2, 65120, Note_on_c, 2, 51, 64
2, 65136, Note_off_c, 2, 56, 58
2, 65136, Note_off_c, 2, 44, 58
2, 65160, Note_off_c, 2, 75, 64
2, 65160, Note_off_c, 2, 83, 64
2, 65280, Note_on_c, 2, 77, 95
2, 65280, Note_on_c, 2, 85, 95
2, 65280, Note_on_c, 2, 56, 67
2, 65280, Note_on_c, 2, 44, 67
2, 65296, Note_off_c, 2, 54, 58
2, 65296, Note_off_c, 2, 51, 58
2, 65320, Note_off_c, 2, 76, 64
2, 65320, Note_off_c, 2, 84, 64
2, 65440, Note_on_c, 2, 78, 98
2, 65440, Note_on_c, 2, 86, 98
2, 65440, Note_on_c, 2, 51, 68
2, 65440, Note_on_c, 2, 54, 68
2, 65456, Note_off_c, 2, 56, 58
2, 65456, Note_off_c, 2, 44, 58
2, 65480, Note_off_c, 2, 77, 64
2, 65480, Note_off_c, 2, 85, 64
2, 65600, Note_on_c, 2, 79, 99
2, 65600, Note_on_c, 2, 87, 99
2, 65600, Note_on_c, 2, 56, 70
2, 65600, Note_on_c, 2, 44, 70
2, 65616, Note_off_c, 2, 51, 58
2, 65616, Note_off_c, 2, 54, 58
2, 65640, Note_off_c, 2, 78, 64
2, 65640, Note_off_c, 2, 86, 64
2, 65760, Note_on_c, 2, 80, 102
2, 65760, Note_on_c, 2, 88, 102
2, 65760, Note_on_c, 2, 54, 72
2, 65760, Note_on_c, 2, 51, 72
2, 65776, Note_off_c, 2, 56, 58
2, 65776, Note_off_c, 2, 44, 58
2, 65800, Note_off_c, 2, 79, 64
2, 65800, Note_off_c, 2, 87, 64
2, 65920, Note_on_c, 2, 81, 104
2, 65920, Note_on_c, 2, 89, 104
2, 65920, Note_on_c, 2, 56, 74
2, 65920, Note_on_c, 2, 44, 74
2, 65936, Note_off_c, 2, 54, 58
2, 65936, Note_off_c, 2, 51, 58
2, 65960, Note_off_c, 2, 80, 64
2, 65960, Note_off_c, 2, 88, 64
2, 66080, Note_on_c, 2, 82, 107
2, 66080, Note_on_c, 2, 90, 107
2, 66080, Note_on_c, 2, 54, 76
2, 66080, Note_on_c, 2, 51, 76
2, 66096, Note_off_c, 2, 56, 58
2, 66096, Note_off_c, 2, 44, 58
2, 66120, Note_off_c, 2, 81, 64
2, 66120, Note_off_c, 2, 89, 64
2, 66240, Note_on_c, 2, 83, 108
2, 66240, Note_on_c, 2, 91, 108
2, 66240, Note_on_c, 2, 56, 78
2, 66240, Note_on_c, 2, 44, 78
2, 66256, Note_off_c, 2, 54, 58
2, 66256, Note_off_c, 2, 51, 58
2, 66280, Note_off_c, 2, 82, 64
2, 66280, Note_off_c, 2, 90, 64
2, 66400, Note_on_c, 2, 84, 111
2, 66400, Note_on_c, 2, 92, 111
2, 66400, Note_on_c, 2, 54, 80
2, 66400, Note_on_c, 2, 51, 80
2, 66416, Note_off_c, 2, 56, 58
2, 66416, Note_off_c, 2, 44, 58
2, 66440, Note_off_c, 2, 83, 64
2, 66440, Note_off_c, 2, 91, 64
2, 66560, Note_on_c, 2, 93, 113
2, 66560, Note_on_c, 2, 85, 113
2, 66560, Note_on_c, 2, 56, 82
2, 66560, Note_on_c, 2, 44, 82
2, 66576, Note_off_c, 2, 54, 58
2, 66576, Note_off_c, 2, 51, 58
2, 66600, Note_off_c, 2, 84, 64
2, 66600, Note_off_c, 2, 92, 64
2, 66720, Note_on_c, 2, 86, 116
2, 66720, Note_on_c, 2, 94, 116
2, 66720, Note_on_c, 2, 54, 84
2, 66720, Note_on_c, 2, 51, 84
2, 66736, Note_off_c, 2, 56, 58
2, 66736, Note_off_c, 2, 44, 58
2, 66760, Note_off_c, 2, 93, 64
2, 66760, Note_off_c, 2, 85, 64
2, 66880, Note_on_c, 2, 87, 118
2, 66880, Note_on_c, 2, 95, 118
2, 66880, Note_on_c, 2, 56, 86
2, 66880, Note_on_c, 2, 44, 86
2, 66896, Note_off_c, 2, 54, 58
2, 66896, Note_off_c, 2, 51, 58
2, 66920, Note_off_c, 2, 86, 64
2, 66920, Note_off_c, 2, 94, 64
2, 67040, Note_on_c, 2, 96, 120
2, 67040, Note_on_c, 2, 88, 120
2, 67040, Note_on_c, 2, 54, 88
2, 67040, Note_on_c, 2, 51, 88
2, 67056, Note_off_c, 2, 56, 58
2, 67056, Note_off_c, 2, 44, 58
2, 67080, Note_off_c, 2, 87, 64
2, 67080, Note_off_c, 2, 95, 64
2, 67166, Note_off_c, 2, 54, 58
2, 67166, Note_off_c, 2, 51, 58
2, 67180, Control_c, 2, 64, 0
2, 67200, Note_on_c, 2, 97, 123
2, 67200, Note_on_c, 2, 89, 123
2, 67200, Note_on_c, 2, 97, 123
2, 67200, Note_on_c, 2, 89, 123
2, 67200, Note_on_c, 2, 49, 90
2, 67200, Note_on_c, 2, 53, 90
2, 67240, Note_off_c, 2, 96, 64
2, 67240, Note_off_c, 2, 88, 64
2, 67560, Note_off_c, 2, 97, 58
2, 67560, Note_off_c, 2, 89, 58
2, 67560, Note_off_c, 2, 97, 58
2, 67560, Note_off_c, 2, 89, 58
2, 67560, Note_off_c, 2, 49, 58
2, 67560, Note_off_c, 2, 53, 58
2, 67680, Note_on_c, 2, 80, 109
2, 67680, Note_on_c, 2, 68, 109
2, 67680, Note_on_c, 2, 75, 109
2, 67680, Note_on_c, 2, 66, 98
2, 67680, Note_on_c, 2, 60, 98
2, 68112, Note_off_c, 2, 60, 58
2, 68112, Note_off_c, 2, 66, 58
2, 68112, Note_off_c, 2, 75, 58
2, 68112, Note_off_c, 2, 68, 58
2, 68112, Note_off_c, 2, 80, 58
2, 68160, Note_on_c, 2, 77, 112
2, 68160, Note_on_c, 2, 73, 112
2, 68160, Note_on_c, 2, 68, 112
2, 68160, Note_on_c, 2, 65, 112
2, 68160, Note_on_c, 2, 61, 105
2, 68160, Note_on_c, 2, 56, 105
2, 68160, Note_on_c, 2, 49, 105
2, 68592, Note_off_c, 2, 49, 58
2, 68592, Note_off_c, 2, 56, 58
2, 68592, Note_off_c, 2, 61, 58
2, 68592, Note_off_c, 2, 65, 58
2, 68592, Note_off_c, 2, 68, 58
2, 68592, Note_off_c, 2, 73, 58
2, 68592, Note_off_c, 2, 77, 58
2, 68640, Note_on_c, 2, 66, 114
2, 68640, Note_on_c, 2, 70, 114
2, 68640, Note_on_c, 2, 61, 114
2, 68640, Note_on_c, 2, 58, 114
2, 68640, Note_on_c, 2, 42, 113
2, 68640, Note_on_c, 2, 49, 113
2, 68640, Note_on_c, 2, 54, 113
2, 69072, Note_off_c, 2, 54, 58
2, 69072, Note_off_c, 2, 49, 58
2, 69072, Note_off_c, 2, 42, 58
2, 69072, Note_off_c, 2, 58, 58
2, 69072, Note_off_c, 2, 61, 58
2, 69072, Note_off_c, 2, 70, 58
2, 69072, Note_off_c, 2, 66, 58
2, 69120, Note_on_c, 2, 61, 117
2, 69120, Note_on_c, 2, 68, 117
2, 69120, Note_on_c, 2, 73, 117
2, 69120, Note_on_c, 2, 37, 120
2, 69120, Note_on_c, 2, 44, 120
2, 69120, Note_on_c, 2, 53, 120
2, 71040, Note_off_c, 2, 53, 58
2, 71040, Note_off_c, 2, 44, 58
2, 71040, Note_off_c, 2, 37, 58
2, 71040, Note_off_c, 2, 73, 58
2, 71040, Note_off_c, 2, 68, 58
2, 71040, Note_off_c, 2, 61, 58
2, 71040, End_track
0, 0, End_of_file