0, 0, Header, 1, 6, 120
1, 0, Start_track
1, 0, Title_t, "untitled"
1, 0, SMPTE_offset, 96, 0, 3, 0, 0
1, 0, MIDI_port, 0
1, 0, System_exclusive, 0A, 41, 10, 42, 12, 40, 00, 7F, 00, 41, F7
1, 0, MIDI_port, 0
1, 0, System_exclusive, 0A, 41, 10, 42, 12, 40, 01, 30, 03, 0C, F7
1, 0, MIDI_port, 0
1, 0, Time_signature, 6, 2, 24, 8
1, 0, Key_signature, -6, "major"
1, 0, Tempo, 250000
1, 1300, Tempo, 576923
1, 28079, Tempo, 555556
1, 28535, Tempo, 560748
1, 28989, Tempo, 566038
1, 29055, Tempo, 552995
1, 29145, Tempo, 555556
1, 29235, Tempo, 558140
1, 29320, Tempo, 560748
1, 29410, Tempo, 563380
1, 29500, Tempo, 566038
1, 29590, Tempo, 568720
1, 29675, Tempo, 571429
1, 29765, Tempo, 574163
1, 29855, Tempo, 576923
1, 29940, Tempo, 579710
1, 30030, Tempo, 582524
1, 30120, Tempo, 585366
1, 30205, Tempo, 588235
1, 30230, Tempo, 576923
1, 30230, End_track
2, 0, Start_track
2, 0, MIDI_port, 0
2, 0, Title_t, "Etude No. 6"
2, 120, Control_c, 0, 0, 0
2, 120, Control_c, 0, 91, 64
2, 120, Control_c, 0, 0, 0
2, 120, Control_c, 0, 93, 20
2, 122, Program_c, 0, 0
2, 123, Control_c, 0, 7, 127
2, 1320, Note_on_c, 0, 66, 58
2, 1433, Note_on_c, 0, 66, 0
2, 1440, Note_on_c, 0, 51, 56
2, 1441, Note_on_c, 0, 66, 57
2, 1441, Note_on_c, 0, 58, 34
2, 1460, Control_c, 0, 64, 127
2, 1501, Note_on_c, 0, 59, 36
2, 1510, Note_on_c, 0, 58, 0
2, 1561, Note_on_c, 0, 57, 35
2, 1569, Note_on_c, 0, 59, 0
2, 1621, Note_on_c, 0, 59, 34
2, 1631, Note_on_c, 0, 57, 0
2, 1681, Note_on_c, 0, 58, 35
2, 1683, Control_c, 0, 64, 0
2, 1692, Note_on_c, 0, 59, 0
2, 1739, Note_on_c, 0, 54, 34
2, 1745, Note_on_c, 0, 58, 0
2, 1799, Note_on_c, 0, 58, 33
2, 1809, Note_on_c, 0, 54, 0
2, 1859, Note_on_c, 0, 59, 32
2, 1867, Note_on_c, 0, 58, 0
2, 1921, Note_on_c, 0, 57, 33
2, 1926, Note_on_c, 0, 59, 0
2, 1980, Note_on_c, 0, 59, 33
2, 1992, Note_on_c, 0, 57, 0
2, 2039, Note_on_c, 0, 58, 36
2, 2041, Note_on_c, 0, 65, 58
2, 2044, Note_on_c, 0, 59, 0
2, 2054, Note_on_c, 0, 66, 0
2, 2101, Note_on_c, 0, 63, 57
2, 2110, Note_on_c, 0, 65, 0
2, 2118, Note_on_c, 0, 58, 0
2, 2122, Note_on_c, 0, 51, 0
2, 2159, Note_on_c, 0, 53, 58
2, 2161, Note_on_c, 0, 70, 63
2, 2161, Note_on_c, 0, 59, 33
2, 2165, Control_c, 0, 64, 127
2, 2221, Note_on_c, 0, 61, 37
2, 2234, Note_on_c, 0, 59, 0
2, 2277, Note_on_c, 0, 61, 0
2, 2281, Note_on_c, 0, 58, 34
2, 2287, Control_c, 0, 64, 0
2, 2339, Note_on_c, 0, 61, 31
2, 2350, Note_on_c, 0, 58, 0
2, 2399, Note_on_c, 0, 59, 29
2, 2412, Note_on_c, 0, 61, 0
2, 2459, Note_on_c, 0, 56, 32
2, 2470, Note_on_c, 0, 59, 0
2, 2509, Note_on_c, 0, 70, 0
2, 2521, Note_on_c, 0, 68, 60
2, 2521, Note_on_c, 0, 59, 32
2, 2536, Note_on_c, 0, 56, 0
2, 2581, Note_on_c, 0, 61, 31
2, 2602, Note_on_c, 0, 59, 0
2, 2638, Note_on_c, 0, 61, 0
2, 2640, Note_on_c, 0, 58, 33
2, 2699, Note_on_c, 0, 61, 36
2, 2707, Note_on_c, 0, 58, 0
2, 2759, Note_on_c, 0, 59, 34
2, 2773, Note_on_c, 0, 61, 0
2, 2813, Note_on_c, 0, 63, 0
2, 2814, Control_c, 0, 64, 127
2, 2819, Note_on_c, 0, 65, 58
2, 2819, Note_on_c, 0, 56, 32
2, 2821, Note_on_c, 0, 68, 0
2, 2821, Note_on_c, 0, 59, 0
2, 2846, Note_on_c, 0, 53, 0
2, 2879, Note_on_c, 0, 71, 56
2, 2879, Note_on_c, 0, 50, 59
2, 2939, Note_on_c, 0, 58, 30
2, 2947, Note_on_c, 0, 56, 0
2, 2999, Note_on_c, 0, 55, 31
2, 3009, Note_on_c, 0, 58, 0
2, 3059, Note_on_c, 0, 58, 34
2, 3071, Note_on_c, 0, 55, 0
2, 3119, Note_on_c, 0, 56, 33
2, 3120, Control_c, 0, 64, 0
2, 3145, Note_on_c, 0, 58, 0
2, 3179, Note_on_c, 0, 53, 30
2, 3180, Note_on_c, 0, 56, 0
2, 3239, Note_on_c, 0, 56, 32
2, 3260, Note_on_c, 0, 53, 0
2, 3299, Note_on_c, 0, 58, 35
2, 3305, Note_on_c, 0, 56, 0
2, 3358, Note_on_c, 0, 58, 0
2, 3359, Note_on_c, 0, 55, 37
2, 3419, Note_on_c, 0, 58, 35
2, 3435, Note_on_c, 0, 55, 0
2, 3479, Note_on_c, 0, 70, 59
2, 3479, Note_on_c, 0, 56, 33
2, 3481, Control_c, 0, 64, 127
2, 3492, Note_on_c, 0, 58, 0
2, 3505, Note_on_c, 0, 71, 0
2, 3507, Note_on_c, 0, 65, 0
2, 3539, Note_on_c, 0, 65, 59
2, 3542, Note_on_c, 0, 56, 0
2, 3545, Note_on_c, 0, 70, 0
2, 3569, Note_on_c, 0, 50, 0
2, 3573, Control_c, 0, 64, 0
2, 3597, Control_c, 0, 64, 127
2, 3599, Note_on_c, 0, 49, 66
2, 3600, Note_on_c, 0, 64, 50
2, 3601, Note_on_c, 0, 65, 0
2, 3601, Note_on_c, 0, 70, 64
2, 3601, Note_on_c, 0, 55, 33
2, 3661, Note_on_c, 0, 56, 31
2, 3677, Note_on_c, 0, 55, 0
2, 3721, Note_on_c, 0, 54, 34
2, 3725, Control_c, 0, 64, 0
2, 3734, Note_on_c, 0, 56, 0
2, 3781, Note_on_c, 0, 56, 35
2, 3794, Note_on_c, 0, 54, 0
2, 3841, Note_on_c, 0, 55, 34
2, 3876, Note_on_c, 0, 56, 0
2, 3901, Note_on_c, 0, 52, 33
2, 3903, Note_on_c, 0, 55, 0
2, 3961, Note_on_c, 0, 55, 34
2, 3990, Note_on_c, 0, 52, 0
2, 4021, Note_on_c, 0, 56, 32
2, 4037, Note_on_c, 0, 55, 0
2, 4081, Note_on_c, 0, 54, 39
2, 4094, Note_on_c, 0, 56, 0
2, 4141, Note_on_c, 0, 56, 38
2, 4153, Note_on_c, 0, 54, 0
2, 4201, Note_on_c, 0, 55, 37
2, 4202, Control_c, 0, 64, 127
2, 4222, Note_on_c, 0, 56, 0
2, 4259, Note_on_c, 0, 63, 69
2, 4267, Note_on_c, 0, 64, 0
2, 4290, Note_on_c, 0, 70, 0
2, 4300, Control_c, 0, 64, 0
2, 4302, Note_on_c, 0, 49, 0
2, 4319, Note_on_c, 0, 47, 77
2, 4321, Note_on_c, 0, 75, 82
2, 4323, Control_c, 0, 64, 127
2, 4366, Note_on_c, 0, 55, 0
2, 4381, Note_on_c, 0, 56, 34
2, 4441, Note_on_c, 0, 54, 38
2, 4442, Note_on_c, 0, 56, 0
2, 4450, Control_c, 0, 64, 0
2, 4501, Note_on_c, 0, 56, 39
2, 4502, Note_on_c, 0, 54, 0
2, 4560, Note_on_c, 0, 55, 41
2, 4572, Note_on_c, 0, 56, 0
2, 4614, Note_on_c, 0, 55, 0
2, 4619, Note_on_c, 0, 51, 41
2, 4679, Note_on_c, 0, 56, 40
2, 4681, Control_c, 0, 64, 127
2, 4693, Note_on_c, 0, 51, 0
2, 4739, Note_on_c, 0, 58, 37
2, 4749, Note_on_c, 0, 56, 0
2, 4798, Control_c, 0, 64, 0
2, 4799, Note_on_c, 0, 55, 44
2, 4801, Note_on_c, 0, 73, 77
2, 4803, Note_on_c, 0, 58, 0
2, 4804, Note_on_c, 0, 75, 0
2, 4859, Note_on_c, 0, 58, 44
2, 4861, Note_on_c, 0, 71, 76
2, 4866, Note_on_c, 0, 55, 0
2, 4891, Note_on_c, 0, 73, 0
2, 4916, Control_c, 0, 64, 127
2, 4919, Note_on_c, 0, 56, 42
2, 4920, Note_on_c, 0, 68, 73
2, 4928, Note_on_c, 0, 63, 0
2, 4930, Note_on_c, 0, 58, 0
2, 4937, Note_on_c, 0, 71, 0
2, 4979, Note_on_c, 0, 63, 70
2, 4986, Note_on_c, 0, 47, 0
2, 4990, Note_on_c, 0, 68, 0
2, 5019, Control_c, 0, 64, 0
2, 5039, Note_on_c, 0, 46, 70
2, 5041, Note_on_c, 0, 66, 69
2, 5041, Note_on_c, 0, 62, 49
2, 5059, Note_on_c, 0, 63, 0
2, 5097, Note_on_c, 0, 56, 0
2, 5099, Note_on_c, 0, 58, 44
2, 5158, Note_on_c, 0, 58, 0
2, 5159, Note_on_c, 0, 55, 44
2, 5219, Note_on_c, 0, 58, 41
2, 5226, Note_on_c, 0, 55, 0
2, 5279, Note_on_c, 0, 56, 45
2, 5287, Control_c, 0, 64, 127
2, 5309, Note_on_c, 0, 58, 0
2, 5339, Note_on_c, 0, 62, 0
2, 5339, Note_on_c, 0, 65, 63
2, 5339, Note_on_c, 0, 53, 35
2, 5345, Note_on_c, 0, 56, 0
2, 5349, Note_on_c, 0, 66, 0
2, 5387, Note_on_c, 0, 46, 0
2, 5399, Note_on_c, 0, 63, 54
2, 5399, Note_on_c, 0, 54, 43
2, 5401, Note_on_c, 0, 47, 51
2, 5402, Control_c, 0, 64, 0
2, 5404, Note_on_c, 0, 65, 0
2, 5417, Note_on_c, 0, 53, 0
2, 5459, Note_on_c, 0, 56, 41
2, 5474, Note_on_c, 0, 54, 0
2, 5519, Note_on_c, 0, 53, 41
2, 5523, Note_on_c, 0, 56, 0
2, 5579, Note_on_c, 0, 56, 41
2, 5592, Note_on_c, 0, 53, 0
2, 5639, Note_on_c, 0, 54, 39
2, 5640, Control_c, 0, 64, 127
2, 5665, Note_on_c, 0, 56, 0
2, 5699, Note_on_c, 0, 54, 0
2, 5699, Note_on_c, 0, 51, 37
2, 5706, Note_on_c, 0, 63, 0
2, 5738, Note_on_c, 0, 47, 0
2, 5756, Control_c, 0, 64, 0
2, 5759, Note_on_c, 0, 64, 65
2, 5759, Note_on_c, 0, 56, 49
2, 5761, Note_on_c, 0, 59, 44
2, 5761, Note_on_c, 0, 44, 66
2, 5764, Note_on_c, 0, 51, 0
2, 5819, Note_on_c, 0, 58, 46
2, 5825, Note_on_c, 0, 56, 0
2, 5879, Note_on_c, 0, 55, 48
2, 5886, Note_on_c, 0, 58, 0
2, 5939, Note_on_c, 0, 58, 49
2, 5948, Note_on_c, 0, 55, 0
2, 5999, Note_on_c, 0, 56, 49
2, 5999, Control_c, 0, 64, 127
2, 6042, Note_on_c, 0, 58, 0
2, 6059, Note_on_c, 0, 52, 45
2, 6071, Note_on_c, 0, 56, 0
2, 6093, Note_on_c, 0, 44, 0
2, 6119, Note_on_c, 0, 54, 49
2, 6119, Note_on_c, 0, 45, 64
2, 6120, Control_c, 0, 64, 0
2, 6121, Note_on_c, 0, 63, 67
2, 6121, Note_on_c, 0, 60, 45
2, 6137, Note_on_c, 0, 64, 0
2, 6137, Note_on_c, 0, 59, 0
2, 6145, Note_on_c, 0, 52, 0
2, 6179, Note_on_c, 0, 56, 46
2, 6194, Note_on_c, 0, 54, 0
2, 6239, Note_on_c, 0, 53, 44
2, 6247, Note_on_c, 0, 56, 0
2, 6299, Note_on_c, 0, 56, 46
2, 6319, Note_on_c, 0, 53, 0
2, 6351, Control_c, 0, 64, 127
2, 6360, Note_on_c, 0, 54, 48
2, 6397, Note_on_c, 0, 56, 0
2, 6414, Note_on_c, 0, 63, 0
2, 6420, Note_on_c, 0, 59, 48
2, 6423, Note_on_c, 0, 60, 0
2, 6462, Note_on_c, 0, 45, 0
2, 6476, Control_c, 0, 64, 0
2, 6479, Note_on_c, 0, 58, 48
2, 6479, Note_on_c, 0, 63, 55
2, 6479, Note_on_c, 0, 46, 61
2, 6480, Note_on_c, 0, 54, 0
2, 6481, Note_on_c, 0, 53, 40
2, 6487, Note_on_c, 0, 59, 0
2, 6512, Note_on_c, 0, 62, 56
2, 6525, Note_on_c, 0, 63, 0
2, 6541, Note_on_c, 0, 54, 41
2, 6550, Note_on_c, 0, 53, 0
2, 6599, Note_on_c, 0, 52, 41
2, 6601, Note_on_c, 0, 54, 0
2, 6659, Note_on_c, 0, 54, 38
2, 6669, Note_on_c, 0, 52, 0
2, 6719, Note_on_c, 0, 53, 40
2, 6736, Note_on_c, 0, 54, 0
2, 6779, Note_on_c, 0, 53, 0
2, 6781, Note_on_c, 0, 56, 35
2, 6814, Note_on_c, 0, 58, 0
2, 6817, Note_on_c, 0, 62, 0
2, 6823, Control_c, 0, 64, 127
2, 6839, Note_on_c, 0, 56, 0
2, 6839, Note_on_c, 0, 54, 41
2, 6841, Note_on_c, 0, 59, 43
2, 6841, Note_on_c, 0, 63, 53
2, 6899, Note_on_c, 0, 57, 37
2, 6907, Note_on_c, 0, 54, 0
2, 6921, Control_c, 0, 64, 0
2, 6953, Control_c, 0, 64, 127
2, 6955, Note_on_c, 0, 63, 0
2, 6959, Note_on_c, 0, 60, 45
2, 6959, Note_on_c, 0, 64, 55
2, 6959, Note_on_c, 0, 55, 44
2, 6962, Note_on_c, 0, 57, 0
2, 6990, Note_on_c, 0, 59, 0
2, 7019, Note_on_c, 0, 58, 37
2, 7020, Note_on_c, 0, 55, 0
2, 7075, Control_c, 0, 64, 0
2, 7079, Note_on_c, 0, 61, 46
2, 7079, Note_on_c, 0, 56, 40
2, 7080, Note_on_c, 0, 65, 58
2, 7089, Note_on_c, 0, 58, 0
2, 7093, Note_on_c, 0, 60, 0
2, 7104, Note_on_c, 0, 64, 0
2, 7139, Note_on_c, 0, 46, 0
2, 7139, Note_on_c, 0, 59, 34
2, 7141, Note_on_c, 0, 62, 46
2, 7141, Control_c, 0, 64, 127
2, 7147, Note_on_c, 0, 61, 0
2, 7153, Note_on_c, 0, 56, 0
2, 7176, Note_on_c, 0, 59, 0
2, 7182, Note_on_c, 0, 65, 0
2, 7197, Control_c, 0, 64, 0
2, 7199, Note_on_c, 0, 58, 44
2, 7201, Note_on_c, 0, 63, 48
2, 7201, Note_on_c, 0, 66, 58
2, 7201, Note_on_c, 0, 51, 55
2, 7215, Control_c, 0, 64, 127
2, 7222, Note_on_c, 0, 62, 0
2, 7259, Note_on_c, 0, 59, 35
2, 7277, Note_on_c, 0, 58, 0
2, 7319, Note_on_c, 0, 57, 36
2, 7323, Note_on_c, 0, 59, 0
2, 7379, Note_on_c, 0, 59, 37
2, 7380, Note_on_c, 0, 57, 0
2, 7439, Note_on_c, 0, 58, 35
2, 7445, Control_c, 0, 64, 0
2, 7456, Note_on_c, 0, 59, 0
2, 7499, Note_on_c, 0, 54, 33
2, 7506, Note_on_c, 0, 58, 0
2, 7541, Note_on_c, 0, 63, 0
2, 7559, Note_on_c, 0, 58, 28
2, 7578, Note_on_c, 0, 54, 0
2, 7619, Note_on_c, 0, 59, 33
2, 7638, Note_on_c, 0, 58, 0
2, 7679, Note_on_c, 0, 57, 30
2, 7682, Note_on_c, 0, 59, 0
2, 7739, Note_on_c, 0, 59, 35
2, 7748, Note_on_c, 0, 57, 0
2, 7799, Note_on_c, 0, 58, 34
2, 7801, Note_on_c, 0, 65, 52
2, 7818, Note_on_c, 0, 66, 0
2, 7828, Note_on_c, 0, 59, 0
2, 7861, Note_on_c, 0, 63, 59
2, 7867, Note_on_c, 0, 51, 0
2, 7868, Note_on_c, 0, 65, 0
2, 7879, Note_on_c, 0, 58, 0
2, 7917, Control_c, 0, 64, 127
2, 7921, Note_on_c, 0, 70, 65
2, 7921, Note_on_c, 0, 59, 33
2, 7921, Note_on_c, 0, 53, 57
2, 7979, Note_on_c, 0, 61, 36
2, 7990, Note_on_c, 0, 59, 0
2, 8034, Control_c, 0, 64, 0
2, 8039, Note_on_c, 0, 61, 0
2, 8039, Note_on_c, 0, 58, 33
2, 8100, Note_on_c, 0, 61, 38
2, 8111, Note_on_c, 0, 58, 0
2, 8160, Note_on_c, 0, 59, 36
2, 8175, Note_on_c, 0, 61, 0
2, 8221, Note_on_c, 0, 59, 0
2, 8221, Note_on_c, 0, 56, 35
2, 8281, Note_on_c, 0, 68, 60
2, 8281, Note_on_c, 0, 59, 33
2, 8291, Note_on_c, 0, 56, 0
2, 8293, Note_on_c, 0, 70, 0
2, 8341, Note_on_c, 0, 61, 34
2, 8358, Note_on_c, 0, 59, 0
2, 8391, Note_on_c, 0, 61, 0
2, 8399, Note_on_c, 0, 58, 34
2, 8460, Note_on_c, 0, 61, 36
2, 8473, Note_on_c, 0, 58, 0
2, 8519, Note_on_c, 0, 59, 33
2, 8530, Note_on_c, 0, 61, 0
2, 8579, Note_on_c, 0, 65, 58
2, 8579, Note_on_c, 0, 56, 37
2, 8581, Note_on_c, 0, 59, 0
2, 8581, Control_c, 0, 64, 127
2, 8586, Note_on_c, 0, 63, 0
2, 8586, Note_on_c, 0, 68, 0
2, 8629, Note_on_c, 0, 53, 0
2, 8639, Note_on_c, 0, 71, 60
2, 8641, Note_on_c, 0, 50, 57
2, 8699, Note_on_c, 0, 58, 37
2, 8706, Note_on_c, 0, 56, 0
2, 8759, Note_on_c, 0, 55, 37
2, 8773, Note_on_c, 0, 58, 0
2, 8819, Note_on_c, 0, 58, 36
2, 8833, Note_on_c, 0, 55, 0
2, 8877, Control_c, 0, 64, 0
2, 8879, Note_on_c, 0, 56, 34
2, 8904, Note_on_c, 0, 58, 0
2, 8939, Note_on_c, 0, 53, 35
2, 8948, Note_on_c, 0, 56, 0
2, 8999, Note_on_c, 0, 56, 34
2, 9017, Note_on_c, 0, 53, 0
2, 9059, Note_on_c, 0, 58, 37
2, 9075, Note_on_c, 0, 56, 0
2, 9119, Note_on_c, 0, 55, 34
2, 9129, Note_on_c, 0, 58, 0
2, 9179, Note_on_c, 0, 58, 37
2, 9204, Note_on_c, 0, 55, 0
2, 9230, Control_c, 0, 64, 127
2, 9239, Note_on_c, 0, 56, 39
2, 9241, Note_on_c, 0, 70, 56
2, 9255, Note_on_c, 0, 71, 0
2, 9260, Note_on_c, 0, 58, 0
2, 9267, Note_on_c, 0, 65, 0
2, 9299, Note_on_c, 0, 65, 65
2, 9313, Note_on_c, 0, 56, 0
2, 9318, Control_c, 0, 64, 0
2, 9322, Note_on_c, 0, 70, 0
2, 9352, Control_c, 0, 64, 127
2, 9358, Note_on_c, 0, 50, 0
2, 9359, Note_on_c, 0, 49, 58
2, 9361, Note_on_c, 0, 64, 50
2, 9361, Note_on_c, 0, 70, 69
2, 9361, Note_on_c, 0, 55, 36
2, 9378, Note_on_c, 0, 65, 0
2, 9421, Note_on_c, 0, 56, 33
2, 9422, Note_on_c, 0, 55, 0
2, 9478, Control_c, 0, 64, 0
2, 9481, Note_on_c, 0, 54, 34
2, 9492, Note_on_c, 0, 56, 0
2, 9541, Note_on_c, 0, 56, 36
2, 9542, Note_on_c, 0, 54, 0
2, 9601, Note_on_c, 0, 55, 33
2, 9614, Note_on_c, 0, 56, 0
2, 9661, Note_on_c, 0, 52, 32
2, 9662, Note_on_c, 0, 55, 0
2, 9722, Note_on_c, 0, 55, 36
2, 9729, Note_on_c, 0, 52, 0
2, 9776, Note_on_c, 0, 55, 0
2, 9781, Note_on_c, 0, 56, 37
2, 9841, Note_on_c, 0, 54, 38
2, 9844, Note_on_c, 0, 56, 0
2, 9899, Note_on_c, 0, 56, 39
2, 9904, Note_on_c, 0, 54, 0
2, 9951, Control_c, 0, 64, 127
2, 9961, Note_on_c, 0, 55, 37
2, 9967, Note_on_c, 0, 56, 0
2, 10016, Note_on_c, 0, 70, 0
2, 10017, Note_on_c, 0, 64, 0
2, 10019, Note_on_c, 0, 63, 73
2, 10049, Control_c, 0, 64, 0
2, 10075, Control_c, 0, 64, 127
2, 10081, Note_on_c, 0, 75, 78
2, 10081, Note_on_c, 0, 47, 67
2, 10090, Note_on_c, 0, 49, 0
2, 10133, Note_on_c, 0, 55, 0
2, 10139, Note_on_c, 0, 56, 49
2, 10195, Control_c, 0, 64, 0
2, 10199, Note_on_c, 0, 54, 41
2, 10208, Note_on_c, 0, 56, 0
2, 10259, Note_on_c, 0, 56, 45
2, 10270, Note_on_c, 0, 54, 0
2, 10320, Note_on_c, 0, 55, 43
2, 10340, Note_on_c, 0, 56, 0
2, 10378, Note_on_c, 0, 55, 0
2, 10381, Note_on_c, 0, 51, 44
2, 10427, Control_c, 0, 64, 127
2, 10441, Note_on_c, 0, 56, 47
2, 10453, Note_on_c, 0, 51, 0
2, 10501, Note_on_c, 0, 58, 47
2, 10505, Note_on_c, 0, 56, 0
2, 10548, Note_on_c, 0, 75, 0
2, 10561, Note_on_c, 0, 73, 79
2, 10561, Note_on_c, 0, 55, 48
2, 10564, Control_c, 0, 64, 0
2, 10571, Note_on_c, 0, 58, 0
2, 10619, Note_on_c, 0, 58, 46
2, 10620, Note_on_c, 0, 55, 0
2, 10621, Note_on_c, 0, 71, 79
2, 10631, Note_on_c, 0, 73, 0
2, 10680, Control_c, 0, 64, 127
2, 10681, Note_on_c, 0, 68, 76
2, 10681, Note_on_c, 0, 56, 46
2, 10688, Note_on_c, 0, 71, 0
2, 10692, Note_on_c, 0, 58, 0
2, 10738, Note_on_c, 0, 63, 0
2, 10740, Note_on_c, 0, 63, 74
2, 10754, Note_on_c, 0, 68, 0
2, 10790, Note_on_c, 0, 47, 0
2, 10801, Note_on_c, 0, 62, 49
2, 10801, Note_on_c, 0, 66, 69
2, 10801, Note_on_c, 0, 46, 63
2, 10809, Note_on_c, 0, 63, 0
2, 10823, Control_c, 0, 64, 0
2, 10835, Note_on_c, 0, 56, 0
2, 10861, Note_on_c, 0, 58, 50
2, 10921, Note_on_c, 0, 55, 45
2, 10927, Note_on_c, 0, 58, 0
2, 10980, Note_on_c, 0, 55, 0
2, 10981, Note_on_c, 0, 58, 47
2, 11041, Note_on_c, 0, 56, 42
2, 11050, Control_c, 0, 64, 127
2, 11065, Note_on_c, 0, 58, 0
2, 11101, Note_on_c, 0, 65, 58
2, 11101, Note_on_c, 0, 53, 38
2, 11102, Note_on_c, 0, 56, 0
2, 11129, Note_on_c, 0, 62, 0
2, 11134, Note_on_c, 0, 66, 0
2, 11149, Note_on_c, 0, 46, 0
2, 11161, Note_on_c, 0, 63, 51
2, 11161, Note_on_c, 0, 54, 47
2, 11161, Note_on_c, 0, 47, 51
2, 11163, Control_c, 0, 64, 0
2, 11172, Note_on_c, 0, 53, 0
2, 11180, Note_on_c, 0, 65, 0
2, 11219, Note_on_c, 0, 56, 36
2, 11220, Note_on_c, 0, 54, 0
2, 11281, Note_on_c, 0, 53, 36
2, 11292, Note_on_c, 0, 56, 0
2, 11341, Note_on_c, 0, 56, 39
2, 11343, Note_on_c, 0, 53, 0
2, 11401, Note_on_c, 0, 54, 39
2, 11401, Control_c, 0, 64, 127
2, 11423, Note_on_c, 0, 56, 0
2, 11461, Note_on_c, 0, 54, 0
2, 11461, Note_on_c, 0, 51, 37
2, 11492, Note_on_c, 0, 63, 0
2, 11505, Note_on_c, 0, 51, 0
2, 11521, Note_on_c, 0, 47, 0
2, 11521, Note_on_c, 0, 64, 69
2, 11521, Note_on_c, 0, 59, 52
2, 11521, Note_on_c, 0, 56, 34
2, 11521, Note_on_c, 0, 44, 59
2, 11521, Control_c, 0, 64, 0
2, 11579, Note_on_c, 0, 58, 44
2, 11586, Note_on_c, 0, 56, 0
2, 11640, Note_on_c, 0, 55, 44
2, 11650, Note_on_c, 0, 58, 0
2, 11699, Note_on_c, 0, 58, 47
2, 11707, Note_on_c, 0, 55, 0
2, 11759, Note_on_c, 0, 56, 42
2, 11760, Note_on_c, 0, 58, 0
2, 11765, Control_c, 0, 64, 127
2, 11819, Note_on_c, 0, 52, 46
2, 11822, Note_on_c, 0, 56, 0
2, 11867, Note_on_c, 0, 52, 0
2, 11877, Control_c, 0, 64, 0
2, 11879, Note_on_c, 0, 53, 43
2, 11879, Note_on_c, 0, 46, 60
2, 11880, Note_on_c, 0, 64, 0
2, 11880, Note_on_c, 0, 56, 50
2, 11881, Note_on_c, 0, 44, 0
2, 11881, Note_on_c, 0, 62, 67
2, 11882, Note_on_c, 0, 59, 0
2, 11939, Note_on_c, 0, 54, 48
2, 11945, Note_on_c, 0, 53, 0
2, 11999, Note_on_c, 0, 52, 46
2, 12010, Note_on_c, 0, 54, 0
2, 12061, Note_on_c, 0, 54, 44
2, 12071, Note_on_c, 0, 52, 0
2, 12121, Note_on_c, 0, 53, 40
2, 12125, Control_c, 0, 64, 127
2, 12155, Note_on_c, 0, 54, 0
2, 12171, Note_on_c, 0, 46, 0
2, 12179, Note_on_c, 0, 53, 0
2, 12181, Note_on_c, 0, 63, 61
2, 12181, Note_on_c, 0, 46, 50
2, 12200, Note_on_c, 0, 62, 0
2, 12210, Note_on_c, 0, 56, 0
2, 12225, Note_on_c, 0, 63, 0
2, 12242, Note_on_c, 0, 63, 60
2, 12242, Note_on_c, 0, 54, 50
2, 12242, Note_on_c, 0, 39, 52
2, 12245, Control_c, 0, 64, 0
2, 12266, Control_c, 0, 64, 127
2, 12276, Note_on_c, 0, 46, 0
2, 12301, Note_on_c, 0, 48, 41
2, 12361, Note_on_c, 0, 45, 41
2, 12369, Note_on_c, 0, 48, 0
2, 12382, Control_c, 0, 64, 0
2, 12421, Note_on_c, 0, 48, 41
2, 12431, Note_on_c, 0, 45, 0
2, 12481, Note_on_c, 0, 46, 41
2, 12510, Note_on_c, 0, 48, 0
2, 12541, Note_on_c, 0, 42, 41
2, 12544, Note_on_c, 0, 46, 0
2, 12578, Note_on_c, 0, 63, 0
2, 12579, Note_on_c, 0, 39, 0
2, 12579, Note_on_c, 0, 54, 0
2, 12592, Note_on_c, 0, 42, 0
2, 12601, Note_on_c, 0, 39, 52
2, 12661, Note_on_c, 0, 41, 54
2, 12676, Note_on_c, 0, 39, 0
2, 12721, Note_on_c, 0, 38, 52
2, 12722, Note_on_c, 0, 41, 0
2, 12779, Note_on_c, 0, 41, 51
2, 12788, Note_on_c, 0, 38, 0
2, 12841, Note_on_c, 0, 39, 50
2, 12844, Note_on_c, 0, 41, 0
2, 12899, Note_on_c, 0, 35, 49
2, 12901, Note_on_c, 0, 39, 0
2, 12941, Note_on_c, 0, 35, 0
2, 12961, Note_on_c, 0, 65, 58
2, 12961, Note_on_c, 0, 63, 48
2, 12961, Note_on_c, 0, 58, 41
2, 12961, Note_on_c, 0, 46, 57
2, 12961, Note_on_c, 0, 34, 56
2, 12974, Control_c, 0, 64, 127
2, 13019, Note_on_c, 0, 59, 35
2, 13029, Note_on_c, 0, 58, 0
2, 13081, Note_on_c, 0, 57, 38
2, 13083, Control_c, 0, 64, 0
2, 13086, Note_on_c, 0, 59, 0
2, 13136, Note_on_c, 0, 57, 0
2, 13139, Note_on_c, 0, 59, 39
2, 13199, Note_on_c, 0, 58, 40
2, 13199, Control_c, 0, 64, 127
2, 13225, Note_on_c, 0, 59, 0
2, 13261, Note_on_c, 0, 53, 40
2, 13270, Note_on_c, 0, 58, 0
2, 13283, Note_on_c, 0, 46, 0
2, 13286, Note_on_c, 0, 34, 0
2, 13288, Note_on_c, 0, 63, 0
2, 13294, Note_on_c, 0, 65, 0
2, 13295, Control_c, 0, 64, 0
2, 13319, Note_on_c, 0, 46, 57
2, 13319, Control_c, 0, 64, 127
2, 13321, Note_on_c, 0, 58, 37
2, 13322, Note_on_c, 0, 65, 55
2, 13322, Note_on_c, 0, 62, 45
2, 13335, Note_on_c, 0, 53, 0
2, 13379, Note_on_c, 0, 59, 41
2, 13389, Note_on_c, 0, 58, 0
2, 13441, Note_on_c, 0, 57, 40
2, 13449, Note_on_c, 0, 59, 0
2, 13497, Note_on_c, 0, 57, 0
2, 13499, Note_on_c, 0, 59, 41
2, 13514, Control_c, 0, 64, 0
2, 13546, Note_on_c, 0, 62, 0
2, 13546, Control_c, 0, 64, 127
2, 13559, Note_on_c, 0, 65, 0
2, 13559, Note_on_c, 0, 58, 42
2, 13561, Note_on_c, 0, 61, 50
2, 13561, Note_on_c, 0, 67, 60
2, 13565, Note_on_c, 0, 59, 0
2, 13615, Note_on_c, 0, 46, 0
2, 13619, Note_on_c, 0, 53, 41
2, 13623, Note_on_c, 0, 58, 0
2, 13635, Note_on_c, 0, 61, 0
2, 13637, Note_on_c, 0, 67, 0
2, 13648, Control_c, 0, 64, 0
2, 13674, Control_c, 0, 64, 127
2, 13679, Note_on_c, 0, 41, 55
2, 13681, Note_on_c, 0, 68, 64
2, 13681, Note_on_c, 0, 56, 52
2, 13681, Note_on_c, 0, 60, 51
2, 13681, Note_on_c, 0, 67, 39
2, 13740, Note_on_c, 0, 55, 44
2, 13741, Note_on_c, 0, 53, 0
2, 13799, Note_on_c, 0, 52, 45
2, 13803, Note_on_c, 0, 55, 0
2, 13859, Note_on_c, 0, 55, 45
2, 13874, Note_on_c, 0, 52, 0
2, 13914, Control_c, 0, 64, 0
2, 13919, Note_on_c, 0, 53, 44
2, 13940, Note_on_c, 0, 55, 0
2, 13979, Note_on_c, 0, 48, 43
2, 13983, Note_on_c, 0, 53, 0
2, 13999, Note_on_c, 0, 60, 0
2, 14001, Note_on_c, 0, 67, 0
2, 14003, Note_on_c, 0, 56, 0
2, 14008, Note_on_c, 0, 68, 0
2, 14023, Note_on_c, 0, 41, 0
2, 14037, Note_on_c, 0, 48, 0
2, 14040, Note_on_c, 0, 47, 44
2, 14041, Note_on_c, 0, 68, 62
2, 14041, Note_on_c, 0, 65, 50
2, 14041, Note_on_c, 0, 56, 57
2, 14041, Note_on_c, 0, 62, 44
2, 14099, Note_on_c, 0, 48, 42
2, 14104, Note_on_c, 0, 47, 0
2, 14161, Note_on_c, 0, 46, 41
2, 14176, Note_on_c, 0, 48, 0
2, 14221, Note_on_c, 0, 48, 42
2, 14228, Note_on_c, 0, 46, 0
2, 14281, Note_on_c, 0, 47, 43
2, 14292, Note_on_c, 0, 48, 0
2, 14341, Note_on_c, 0, 35, 40
2, 14345, Note_on_c, 0, 47, 0
2, 14363, Control_c, 0, 64, 127
2, 14379, Note_on_c, 0, 62, 0
2, 14379, Note_on_c, 0, 65, 0
2, 14385, Note_on_c, 0, 68, 0
2, 14386, Note_on_c, 0, 56, 0
2, 14387, Note_on_c, 0, 35, 0
2, 14401, Note_on_c, 0, 65, 46
2, 14401, Note_on_c, 0, 67, 56
2, 14401, Note_on_c, 0, 62, 36
2, 14401, Note_on_c, 0, 36, 56
2, 14413, Control_c, 0, 64, 0
2, 14438, Control_c, 0, 64, 127
2, 14458, Note_on_c, 0, 62, 0
2, 14461, Note_on_c, 0, 63, 35
2, 14521, Note_on_c, 0, 61, 32
2, 14526, Control_c, 0, 64, 0
2, 14530, Note_on_c, 0, 63, 0
2, 14580, Note_on_c, 0, 63, 36
2, 14585, Note_on_c, 0, 61, 0
2, 14637, Control_c, 0, 64, 127
2, 14641, Note_on_c, 0, 62, 34
2, 14651, Note_on_c, 0, 63, 0
2, 14700, Note_on_c, 0, 55, 34
2, 14701, Note_on_c, 0, 62, 0
2, 14714, Control_c, 0, 64, 0
2, 14722, Note_on_c, 0, 65, 0
2, 14725, Note_on_c, 0, 36, 0
2, 14732, Note_on_c, 0, 67, 0
2, 14750, Note_on_c, 0, 55, 0
2, 14755, Control_c, 0, 64, 127
2, 14759, Note_on_c, 0, 67, 61
2, 14759, Note_on_c, 0, 64, 51
2, 14761, Note_on_c, 0, 60, 44
2, 14761, Note_on_c, 0, 48, 56
2, 14821, Note_on_c, 0, 62, 41
2, 14828, Note_on_c, 0, 60, 0
2, 14881, Note_on_c, 0, 59, 41
2, 14889, Note_on_c, 0, 62, 0
2, 14941, Note_on_c, 0, 62, 42
2, 14948, Note_on_c, 0, 59, 0
2, 15001, Note_on_c, 0, 69, 62
2, 15001, Note_on_c, 0, 63, 52
2, 15001, Note_on_c, 0, 60, 50
2, 15004, Note_on_c, 0, 64, 0
2, 15005, Note_on_c, 0, 62, 0
2, 15015, Note_on_c, 0, 67, 0
2, 15022, Control_c, 0, 64, 0
2, 15048, Control_c, 0, 64, 127
2, 15057, Note_on_c, 0, 60, 0
2, 15061, Note_on_c, 0, 55, 42
2, 15070, Note_on_c, 0, 69, 0
2, 15070, Note_on_c, 0, 63, 0
2, 15085, Note_on_c, 0, 48, 0
2, 15088, Control_c, 0, 64, 0
2, 15120, Control_c, 0, 64, 127
2, 15121, Note_on_c, 0, 70, 67
2, 15121, Note_on_c, 0, 69, 44
2, 15121, Note_on_c, 0, 43, 58
2, 15122, Note_on_c, 0, 58, 64
2, 15122, Note_on_c, 0, 62, 51
2, 15162, Note_on_c, 0, 55, 0
2, 15182, Note_on_c, 0, 57, 41
2, 15241, Note_on_c, 0, 54, 40
2, 15247, Note_on_c, 0, 57, 0
2, 15301, Note_on_c, 0, 57, 38
2, 15312, Note_on_c, 0, 54, 0
2, 15358, Control_c, 0, 64, 0
2, 15361, Note_on_c, 0, 55, 43
2, 15369, Note_on_c, 0, 57, 0
2, 15421, Note_on_c, 0, 50, 43
2, 15424, Note_on_c, 0, 55, 0
2, 15441, Note_on_c, 0, 62, 0
2, 15445, Note_on_c, 0, 58, 0
2, 15448, Note_on_c, 0, 69, 0
2, 15453, Note_on_c, 0, 70, 0
2, 15459, Note_on_c, 0, 43, 0
2, 15477, Note_on_c, 0, 50, 0
2, 15481, Note_on_c, 0, 58, 58
2, 15482, Note_on_c, 0, 70, 58
2, 15482, Note_on_c, 0, 64, 48
2, 15482, Note_on_c, 0, 67, 45
2, 15482, Note_on_c, 0, 49, 53
2, 15541, Note_on_c, 0, 50, 53
2, 15552, Note_on_c, 0, 49, 0
2, 15602, Note_on_c, 0, 48, 51
2, 15606, Note_on_c, 0, 50, 0
2, 15661, Note_on_c, 0, 50, 50
2, 15662, Note_on_c, 0, 48, 0
2, 15688, Note_on_c, 0, 70, 0
2, 15688, Note_on_c, 0, 58, 0
2, 15694, Note_on_c, 0, 67, 0
2, 15721, Note_on_c, 0, 49, 52
2, 15722, Note_on_c, 0, 58, 60
2, 15722, Note_on_c, 0, 70, 64
2, 15726, Control_c, 0, 64, 127
2, 15733, Note_on_c, 0, 50, 0
2, 15780, Note_on_c, 0, 70, 0
2, 15781, Note_on_c, 0, 43, 48
2, 15783, Note_on_c, 0, 64, 0
2, 15787, Note_on_c, 0, 58, 0
2, 15787, Note_on_c, 0, 49, 0
2, 15807, Control_c, 0, 64, 0
2, 15831, Note_on_c, 0, 43, 0
2, 15841, Note_on_c, 0, 59, 56
2, 15841, Note_on_c, 0, 64, 56
2, 15841, Note_on_c, 0, 44, 73
2, 15841, Control_c, 0, 64, 127
2, 15842, Note_on_c, 0, 71, 79
2, 15901, Note_on_c, 0, 66, 45
2, 15905, Note_on_c, 0, 64, 0
2, 15923, Note_on_c, 0, 59, 0
2, 15962, Note_on_c, 0, 63, 47
2, 15972, Note_on_c, 0, 66, 0
2, 16021, Note_on_c, 0, 66, 47
2, 16022, Control_c, 0, 64, 0
2, 16030, Note_on_c, 0, 63, 0
2, 16081, Note_on_c, 0, 64, 48
2, 16081, Control_c, 0, 64, 127
2, 16102, Note_on_c, 0, 66, 0
2, 16141, Note_on_c, 0, 59, 51
2, 16147, Note_on_c, 0, 64, 0
2, 16176, Note_on_c, 0, 44, 0
2, 16180, Note_on_c, 0, 71, 0
2, 16194, Control_c, 0, 64, 0
2, 16201, Note_on_c, 0, 69, 68
2, 16201, Note_on_c, 0, 49, 69
2, 16202, Note_on_c, 0, 64, 55
2, 16202, Note_on_c, 0, 37, 69
2, 16217, Note_on_c, 0, 59, 0
2, 16259, Note_on_c, 0, 64, 0
2, 16261, Note_on_c, 0, 66, 48
2, 16321, Note_on_c, 0, 63, 47
2, 16329, Note_on_c, 0, 66, 0
2, 16380, Note_on_c, 0, 63, 0
2, 16381, Note_on_c, 0, 66, 49
2, 16441, Note_on_c, 0, 68, 61
2, 16441, Note_on_c, 0, 64, 47
2, 16451, Control_c, 0, 64, 127
2, 16464, Note_on_c, 0, 66, 0
2, 16466, Note_on_c, 0, 69, 0
2, 16485, Note_on_c, 0, 37, 0
2, 16496, Note_on_c, 0, 49, 0
2, 16499, Note_on_c, 0, 59, 45
2, 16505, Note_on_c, 0, 64, 0
2, 16534, Note_on_c, 0, 68, 0
2, 16554, Control_c, 0, 64, 0
2, 16560, Note_on_c, 0, 61, 57
2, 16561, Note_on_c, 0, 68, 65
2, 16561, Note_on_c, 0, 64, 44
2, 16561, Note_on_c, 0, 42, 60
2, 16561, Note_on_c, 0, 30, 60
2, 16566, Note_on_c, 0, 59, 0
2, 16621, Note_on_c, 0, 63, 50
2, 16630, Note_on_c, 0, 61, 0
2, 16681, Note_on_c, 0, 60, 48
2, 16688, Note_on_c, 0, 63, 0
2, 16741, Note_on_c, 0, 63, 48
2, 16742, Note_on_c, 0, 60, 0
2, 16802, Note_on_c, 0, 61, 49
2, 16806, Control_c, 0, 64, 127
2, 16812, Note_on_c, 0, 63, 0
2, 16862, Note_on_c, 0, 57, 46
2, 16868, Note_on_c, 0, 61, 0
2, 16885, Note_on_c, 0, 30, 0
2, 16898, Note_on_c, 0, 64, 0
2, 16900, Note_on_c, 0, 68, 0
2, 16900, Note_on_c, 0, 42, 0
2, 16915, Control_c, 0, 64, 0
2, 16921, Note_on_c, 0, 64, 41
2, 16921, Note_on_c, 0, 66, 57
2, 16922, Note_on_c, 0, 61, 51
2, 16922, Note_on_c, 0, 32, 56
2, 16922, Note_on_c, 0, 44, 56
2, 16932, Note_on_c, 0, 57, 0
2, 16980, Note_on_c, 0, 61, 0
2, 16982, Note_on_c, 0, 63, 52
2, 17042, Note_on_c, 0, 60, 52
2, 17050, Note_on_c, 0, 63, 0
2, 17101, Note_on_c, 0, 60, 0
2, 17102, Note_on_c, 0, 63, 50
2, 17138, Note_on_c, 0, 32, 0
2, 17138, Note_on_c, 0, 44, 0
2, 17159, Note_on_c, 0, 64, 0
2, 17160, Note_on_c, 0, 66, 0
2, 17161, Note_on_c, 0, 45, 58
2, 17161, Note_on_c, 0, 33, 58
2, 17162, Note_on_c, 0, 61, 49
2, 17168, Control_c, 0, 64, 127
2, 17172, Note_on_c, 0, 63, 0
2, 17221, Note_on_c, 0, 54, 50
2, 17222, Note_on_c, 0, 61, 0
2, 17245, Control_c, 0, 64, 0
2, 17254, Note_on_c, 0, 33, 0
2, 17259, Note_on_c, 0, 45, 0
2, 17268, Note_on_c, 0, 54, 0
2, 17281, Note_on_c, 0, 64, 49
2, 17281, Note_on_c, 0, 69, 64
2, 17282, Note_on_c, 0, 61, 55
2, 17282, Note_on_c, 0, 47, 64
2, 17282, Note_on_c, 0, 35, 64
2, 17285, Control_c, 0, 64, 127
2, 17341, Note_on_c, 0, 63, 55
2, 17348, Note_on_c, 0, 61, 0
2, 17393, Control_c, 0, 64, 0
2, 17402, Note_on_c, 0, 60, 55
2, 17412, Note_on_c, 0, 63, 0
2, 17459, Note_on_c, 0, 60, 0
2, 17461, Note_on_c, 0, 63, 54
2, 17521, Note_on_c, 0, 61, 53
2, 17524, Control_c, 0, 64, 127
2, 17541, Note_on_c, 0, 63, 0
2, 17581, Note_on_c, 0, 54, 52
2, 17587, Note_on_c, 0, 61, 0
2, 17609, Note_on_c, 0, 47, 0
2, 17615, Note_on_c, 0, 64, 0
2, 17616, Note_on_c, 0, 69, 0
2, 17633, Note_on_c, 0, 54, 0
2, 17635, Control_c, 0, 64, 0
2, 17641, Note_on_c, 0, 63, 47
2, 17641, Note_on_c, 0, 68, 69
2, 17641, Note_on_c, 0, 59, 55
2, 17641, Note_on_c, 0, 47, 65
2, 17701, Note_on_c, 0, 61, 46
2, 17709, Note_on_c, 0, 59, 0
2, 17761, Note_on_c, 0, 57, 51
2, 17767, Note_on_c, 0, 61, 0
2, 17821, Note_on_c, 0, 57, 0
2, 17821, Note_on_c, 0, 61, 52
2, 17836, Note_on_c, 0, 47, 0
2, 17845, Note_on_c, 0, 68, 0
2, 17853, Note_on_c, 0, 63, 0
2, 17878, Control_c, 0, 64, 127
2, 17881, Note_on_c, 0, 63, 43
2, 17881, Note_on_c, 0, 66, 63
2, 17881, Note_on_c, 0, 59, 50
2, 17881, Note_on_c, 0, 47, 61
2, 17899, Note_on_c, 0, 61, 0
2, 17937, Note_on_c, 0, 59, 0
2, 17939, Note_on_c, 0, 54, 51
2, 17955, Note_on_c, 0, 35, 0
2, 17964, Note_on_c, 0, 47, 0
2, 17966, Control_c, 0, 64, 0
2, 17971, Note_on_c, 0, 66, 0
2, 17971, Note_on_c, 0, 63, 0
2, 17990, Note_on_c, 0, 54, 0
2, 17996, Control_c, 0, 64, 127
2, 18001, Note_on_c, 0, 63, 43
2, 18001, Note_on_c, 0, 66, 63
2, 18001, Note_on_c, 0, 59, 50
2, 18001, Note_on_c, 0, 47, 60
2, 18001, Note_on_c, 0, 40, 60
2, 18061, Note_on_c, 0, 61, 48
2, 18067, Note_on_c, 0, 59, 0
2, 18121, Note_on_c, 0, 57, 49
2, 18127, Note_on_c, 0, 61, 0
2, 18179, Note_on_c, 0, 61, 49
2, 18186, Note_on_c, 0, 57, 0
2, 18196, Control_c, 0, 64, 0
2, 18230, Control_c, 0, 64, 127
2, 18240, Note_on_c, 0, 59, 37
2, 18241, Note_on_c, 0, 68, 59
2, 18241, Note_on_c, 0, 64, 41
2, 18254, Note_on_c, 0, 61, 0
2, 18260, Note_on_c, 0, 66, 0
2, 18261, Note_on_c, 0, 63, 0
2, 18299, Note_on_c, 0, 59, 0
2, 18301, Note_on_c, 0, 56, 48
2, 18324, Note_on_c, 0, 68, 0
2, 18324, Note_on_c, 0, 64, 0
2, 18359, Note_on_c, 0, 64, 37
2, 18359, Note_on_c, 0, 68, 57
2, 18360, Note_on_c, 0, 59, 47
2, 18366, Note_on_c, 0, 56, 0
2, 18414, Note_on_c, 0, 59, 0
2, 18419, Note_on_c, 0, 61, 47
2, 18479, Note_on_c, 0, 57, 45
2, 18484, Control_c, 0, 64, 0
2, 18486, Note_on_c, 0, 61, 0
2, 18539, Note_on_c, 0, 61, 47
2, 18540, Note_on_c, 0, 57, 0
2, 18599, Note_on_c, 0, 59, 43
2, 18599, Control_c, 0, 64, 127
2, 18627, Note_on_c, 0, 61, 0
2, 18650, Note_on_c, 0, 59, 0
2, 18659, Note_on_c, 0, 56, 42
2, 18684, Note_on_c, 0, 68, 0
2, 18685, Note_on_c, 0, 64, 0
2, 18693, Note_on_c, 0, 40, 0
2, 18700, Note_on_c, 0, 47, 0
2, 18719, Note_on_c, 0, 66, 43
2, 18720, Note_on_c, 0, 68, 54
2, 18721, Note_on_c, 0, 56, 0
2, 18721, Note_on_c, 0, 63, 43
2, 18721, Note_on_c, 0, 48, 60
2, 18721, Note_on_c, 0, 36, 60
2, 18728, Control_c, 0, 64, 0
2, 18781, Note_on_c, 0, 64, 42
2, 18788, Note_on_c, 0, 63, 0
2, 18841, Note_on_c, 0, 62, 41
2, 18848, Note_on_c, 0, 64, 0
2, 18901, Note_on_c, 0, 64, 42
2, 18908, Note_on_c, 0, 62, 0
2, 18961, Note_on_c, 0, 63, 43
2, 18961, Control_c, 0, 64, 127
2, 18987, Note_on_c, 0, 64, 0
2, 19021, Note_on_c, 0, 56, 43
2, 19028, Note_on_c, 0, 63, 0
2, 19037, Note_on_c, 0, 36, 0
2, 19042, Note_on_c, 0, 48, 0
2, 19070, Note_on_c, 0, 66, 0
2, 19070, Note_on_c, 0, 68, 0
2, 19078, Control_c, 0, 64, 0
2, 19081, Note_on_c, 0, 68, 54
2, 19081, Note_on_c, 0, 64, 54
2, 19081, Note_on_c, 0, 61, 44
2, 19081, Note_on_c, 0, 37, 61
2, 19081, Note_on_c, 0, 49, 61
2, 19082, Note_on_c, 0, 56, 0
2, 19139, Note_on_c, 0, 63, 45
2, 19147, Note_on_c, 0, 61, 0
2, 19199, Note_on_c, 0, 60, 46
2, 19201, Note_on_c, 0, 63, 0
2, 19261, Note_on_c, 0, 63, 46
2, 19278, Note_on_c, 0, 60, 0
2, 19290, Note_on_c, 0, 64, 0
2, 19295, Note_on_c, 0, 68, 0
2, 19316, Control_c, 0, 64, 127
2, 19320, Note_on_c, 0, 68, 59
2, 19321, Note_on_c, 0, 64, 59
2, 19321, Note_on_c, 0, 61, 47
2, 19326, Note_on_c, 0, 63, 0
2, 19381, Note_on_c, 0, 56, 49
2, 19394, Note_on_c, 0, 61, 0
2, 19402, Control_c, 0, 64, 0
2, 19421, Note_on_c, 0, 64, 0
2, 19422, Note_on_c, 0, 68, 0
2, 19423, Note_on_c, 0, 49, 0
2, 19432, Note_on_c, 0, 37, 0
2, 19433, Control_c, 0, 64, 127
2, 19441, Note_on_c, 0, 56, 0
2, 19441, Note_on_c, 0, 73, 62
2, 19441, Note_on_c, 0, 68, 62
2, 19441, Note_on_c, 0, 63, 50
2, 19441, Note_on_c, 0, 44, 60
2, 19501, Note_on_c, 0, 64, 49
2, 19507, Note_on_c, 0, 63, 0
2, 19553, Control_c, 0, 64, 0
2, 19561, Note_on_c, 0, 62, 49
2, 19568, Note_on_c, 0, 64, 0
2, 19619, Note_on_c, 0, 64, 47
2, 19622, Note_on_c, 0, 62, 0
2, 19681, Note_on_c, 0, 63, 46
2, 19693, Control_c, 0, 64, 127
2, 19708, Note_on_c, 0, 64, 0
2, 19741, Note_on_c, 0, 56, 47
2, 19749, Note_on_c, 0, 63, 0
2, 19795, Note_on_c, 0, 68, 0
2, 19801, Note_on_c, 0, 68, 53
2, 19801, Note_on_c, 0, 63, 42
2, 19802, Note_on_c, 0, 73, 0
2, 19802, Note_on_c, 0, 72, 54
2, 19816, Control_c, 0, 64, 0
2, 19825, Note_on_c, 0, 56, 0
2, 19861, Note_on_c, 0, 64, 40
2, 19866, Note_on_c, 0, 63, 0
2, 19921, Note_on_c, 0, 62, 40
2, 19932, Note_on_c, 0, 64, 0
2, 19981, Note_on_c, 0, 64, 43
2, 19984, Note_on_c, 0, 62, 0
2, 20028, Note_on_c, 0, 72, 0
2, 20035, Note_on_c, 0, 68, 0
2, 20041, Note_on_c, 0, 63, 43
2, 20045, Control_c, 0, 64, 127
2, 20056, Note_on_c, 0, 64, 0
2, 20101, Note_on_c, 0, 56, 42
2, 20109, Note_on_c, 0, 63, 0
2, 20127, Note_on_c, 0, 44, 0
2, 20153, Note_on_c, 0, 56, 0
2, 20161, Note_on_c, 0, 68, 63
2, 20161, Note_on_c, 0, 66, 44
2, 20161, Note_on_c, 0, 63, 44
2, 20161, Note_on_c, 0, 48, 52
2, 20161, Note_on_c, 0, 36, 52
2, 20220, Note_on_c, 0, 64, 47
2, 20226, Note_on_c, 0, 63, 0
2, 20280, Note_on_c, 0, 62, 51
2, 20283, Note_on_c, 0, 64, 0
2, 20340, Note_on_c, 0, 64, 40
2, 20348, Note_on_c, 0, 62, 0
2, 20370, Control_c, 0, 64, 0
2, 20392, Control_c, 0, 64, 127
2, 20399, Note_on_c, 0, 63, 47
2, 20411, Note_on_c, 0, 64, 0
2, 20460, Note_on_c, 0, 56, 49
2, 20469, Note_on_c, 0, 63, 0
2, 20481, Note_on_c, 0, 36, 0
2, 20482, Note_on_c, 0, 48, 0
2, 20490, Note_on_c, 0, 66, 0
2, 20492, Note_on_c, 0, 68, 0
2, 20519, Note_on_c, 0, 68, 62
2, 20519, Note_on_c, 0, 64, 52
2, 20521, Note_on_c, 0, 61, 55
2, 20521, Note_on_c, 0, 37, 62
2, 20521, Note_on_c, 0, 49, 62
2, 20521, Control_c, 0, 64, 0
2, 20542, Note_on_c, 0, 56, 0
2, 20579, Note_on_c, 0, 63, 53
2, 20586, Note_on_c, 0, 61, 0
2, 20639, Note_on_c, 0, 63, 0
2, 20639, Note_on_c, 0, 60, 52
2, 20699, Note_on_c, 0, 63, 52
2, 20708, Note_on_c, 0, 60, 0
2, 20729, Note_on_c, 0, 64, 0
2, 20737, Note_on_c, 0, 68, 0
2, 20759, Note_on_c, 0, 68, 64
2, 20759, Note_on_c, 0, 64, 54
2, 20759, Note_on_c, 0, 61, 49
2, 20759, Control_c, 0, 64, 127
2, 20766, Note_on_c, 0, 63, 0
2, 20819, Note_on_c, 0, 56, 52
2, 20827, Note_on_c, 0, 61, 0
2, 20828, Note_on_c, 0, 49, 0
2, 20843, Note_on_c, 0, 64, 0
2, 20846, Note_on_c, 0, 68, 0
2, 20850, Note_on_c, 0, 37, 0
2, 20875, Note_on_c, 0, 56, 0
2, 20875, Control_c, 0, 64, 0
2, 20879, Note_on_c, 0, 76, 68
2, 20879, Note_on_c, 0, 44, 71
2, 20880, Note_on_c, 0, 32, 71
2, 20881, Note_on_c, 0, 72, 49
2, 20881, Note_on_c, 0, 68, 48
2, 20886, Control_c, 0, 64, 127
2, 20941, Note_on_c, 0, 69, 43
2, 20951, Note_on_c, 0, 68, 0
2, 21001, Note_on_c, 0, 67, 44
2, 21008, Note_on_c, 0, 69, 0
2, 21011, Control_c, 0, 64, 0
2, 21061, Note_on_c, 0, 69, 40
2, 21066, Note_on_c, 0, 67, 0
2, 21121, Note_on_c, 0, 68, 42
2, 21121, Control_c, 0, 64, 127
2, 21138, Note_on_c, 0, 69, 0
2, 21181, Note_on_c, 0, 63, 45
2, 21188, Note_on_c, 0, 68, 0
2, 21210, Note_on_c, 0, 72, 0
2, 21220, Note_on_c, 0, 76, 0
2, 21241, Note_on_c, 0, 72, 46
2, 21241, Note_on_c, 0, 75, 56
2, 21241, Note_on_c, 0, 68, 47
2, 21250, Control_c, 0, 64, 0
2, 21257, Note_on_c, 0, 63, 0
2, 21301, Note_on_c, 0, 69, 40
2, 21313, Note_on_c, 0, 68, 0
2, 21361, Note_on_c, 0, 67, 41
2, 21369, Note_on_c, 0, 69, 0
2, 21421, Note_on_c, 0, 69, 40
2, 21433, Note_on_c, 0, 67, 0
2, 21478, Control_c, 0, 64, 127
2, 21481, Note_on_c, 0, 68, 35
2, 21490, Note_on_c, 0, 69, 0
2, 21536, Note_on_c, 0, 44, 0
2, 21537, Note_on_c, 0, 32, 0
2, 21540, Note_on_c, 0, 63, 32
2, 21550, Note_on_c, 0, 68, 0
2, 21563, Note_on_c, 0, 75, 0
2, 21568, Note_on_c, 0, 72, 0
2, 21586, Note_on_c, 0, 63, 0
2, 21601, Note_on_c, 0, 66, 42
2, 21601, Note_on_c, 0, 68, 52
2, 21601, Note_on_c, 0, 63, 42
2, 21601, Note_on_c, 0, 48, 50
2, 21601, Note_on_c, 0, 36, 50
2, 21603, Control_c, 0, 64, 0
2, 21661, Note_on_c, 0, 64, 41
2, 21672, Note_on_c, 0, 63, 0
2, 21721, Note_on_c, 0, 62, 43
2, 21725, Note_on_c, 0, 64, 0
2, 21779, Note_on_c, 0, 64, 42
2, 21783, Note_on_c, 0, 62, 0
2, 21838, Control_c, 0, 64, 127
2, 21839, Note_on_c, 0, 63, 44
2, 21850, Note_on_c, 0, 64, 0
2, 21899, Note_on_c, 0, 56, 41
2, 21901, Note_on_c, 0, 36, 0
2, 21908, Note_on_c, 0, 63, 0
2, 21910, Note_on_c, 0, 48, 0
2, 21930, Note_on_c, 0, 66, 0
2, 21935, Note_on_c, 0, 68, 0
2, 21953, Control_c, 0, 64, 0
2, 21954, Note_on_c, 0, 56, 0
2, 21961, Note_on_c, 0, 68, 43
2, 21961, Note_on_c, 0, 71, 53
2, 21961, Note_on_c, 0, 65, 43
2, 21961, Note_on_c, 0, 51, 54
2, 21961, Note_on_c, 0, 39, 54
2, 22021, Note_on_c, 0, 65, 0
2, 22021, Note_on_c, 0, 66, 37
2, 22081, Note_on_c, 0, 64, 37
2, 22086, Note_on_c, 0, 66, 0
2, 22141, Note_on_c, 0, 66, 36
2, 22152, Note_on_c, 0, 64, 0
2, 22163, Note_on_c, 0, 71, 0
2, 22165, Note_on_c, 0, 68, 0
2, 22189, Control_c, 0, 64, 127
2, 22199, Note_on_c, 0, 68, 42
2, 22199, Note_on_c, 0, 71, 55
2, 22201, Note_on_c, 0, 65, 47
2, 22213, Note_on_c, 0, 66, 0
2, 22261, Note_on_c, 0, 59, 49
2, 22266, Note_on_c, 0, 65, 0
2, 22287, Note_on_c, 0, 51, 0
2, 22291, Note_on_c, 0, 39, 0
2, 22298, Note_on_c, 0, 68, 0
2, 22298, Note_on_c, 0, 71, 0
2, 22308, Note_on_c, 0, 59, 0
2, 22309, Control_c, 0, 64, 0
2, 22321, Note_on_c, 0, 71, 58
2, 22321, Note_on_c, 0, 68, 45
2, 22321, Note_on_c, 0, 65, 52
2, 22321, Note_on_c, 0, 50, 57
2, 22321, Note_on_c, 0, 38, 57
2, 22381, Note_on_c, 0, 66, 42
2, 22382, Note_on_c, 0, 65, 0
2, 22441, Note_on_c, 0, 64, 42
2, 22447, Note_on_c, 0, 66, 0
2, 22500, Note_on_c, 0, 66, 46
2, 22506, Note_on_c, 0, 64, 0
2, 22530, Note_on_c, 0, 71, 0
2, 22534, Note_on_c, 0, 68, 0
2, 22547, Control_c, 0, 64, 127
2, 22561, Note_on_c, 0, 68, 42
2, 22561, Note_on_c, 0, 70, 59
2, 22561, Note_on_c, 0, 65, 52
2, 22579, Note_on_c, 0, 66, 0
2, 22619, Note_on_c, 0, 58, 52
2, 22621, Note_on_c, 0, 65, 0
2, 22624, Note_on_c, 0, 38, 0
2, 22634, Note_on_c, 0, 50, 0
2, 22655, Note_on_c, 0, 68, 0
2, 22658, Note_on_c, 0, 70, 0
2, 22663, Control_c, 0, 64, 0
2, 22679, Note_on_c, 0, 67, 49
2, 22681, Note_on_c, 0, 70, 42
2, 22681, Note_on_c, 0, 53, 61
2, 22681, Note_on_c, 0, 41, 61
2, 22682, Note_on_c, 0, 58, 0
2, 22682, Note_on_c, 0, 73, 62
2, 22736, Note_on_c, 0, 67, 0
2, 22739, Note_on_c, 0, 68, 50
2, 22799, Note_on_c, 0, 66, 52
2, 22810, Note_on_c, 0, 68, 0
2, 22859, Note_on_c, 0, 68, 52
2, 22866, Note_on_c, 0, 66, 0
2, 22871, Note_on_c, 0, 70, 0
2, 22876, Note_on_c, 0, 73, 0
2, 22903, Control_c, 0, 64, 127
2, 22919, Note_on_c, 0, 73, 64
2, 22919, Note_on_c, 0, 70, 44
2, 22919, Note_on_c, 0, 67, 52
2, 22930, Note_on_c, 0, 68, 0
2, 22979, Note_on_c, 0, 61, 52
2, 22985, Note_on_c, 0, 67, 0
2, 22995, Note_on_c, 0, 53, 0
2, 22997, Note_on_c, 0, 41, 0
2, 23009, Note_on_c, 0, 70, 0
2, 23011, Note_on_c, 0, 73, 0
2, 23018, Control_c, 0, 64, 0
2, 23036, Note_on_c, 0, 61, 0
2, 23039, Note_on_c, 0, 73, 65
2, 23039, Note_on_c, 0, 70, 41
2, 23040, Note_on_c, 0, 67, 52
2, 23041, Note_on_c, 0, 52, 65
2, 23041, Note_on_c, 0, 40, 65
2, 23097, Note_on_c, 0, 67, 0
2, 23099, Note_on_c, 0, 68, 55
2, 23159, Note_on_c, 0, 66, 54
2, 23171, Note_on_c, 0, 68, 0
2, 23219, Note_on_c, 0, 68, 53
2, 23227, Note_on_c, 0, 66, 0
2, 23259, Note_on_c, 0, 70, 0
2, 23267, Note_on_c, 0, 73, 0
2, 23275, Control_c, 0, 64, 127
2, 23279, Note_on_c, 0, 70, 40
2, 23279, Note_on_c, 0, 67, 54
2, 23281, Note_on_c, 0, 72, 70
2, 23302, Note_on_c, 0, 68, 0
2, 23339, Note_on_c, 0, 60, 57
2, 23346, Note_on_c, 0, 40, 0
2, 23347, Note_on_c, 0, 67, 0
2, 23361, Note_on_c, 0, 52, 0
2, 23368, Note_on_c, 0, 70, 0
2, 23374, Note_on_c, 0, 72, 0
2, 23390, Control_c, 0, 64, 0
2, 23391, Note_on_c, 0, 60, 0
2, 23399, Note_on_c, 0, 75, 71
2, 23399, Note_on_c, 0, 55, 66
2, 23400, Note_on_c, 0, 72, 51
2, 23400, Note_on_c, 0, 43, 66
2, 23401, Note_on_c, 0, 69, 56
2, 23459, Note_on_c, 0, 70, 59
2, 23464, Note_on_c, 0, 69, 0
2, 23521, Note_on_c, 0, 68, 59
2, 23530, Note_on_c, 0, 70, 0
2, 23579, Note_on_c, 0, 70, 60
2, 23585, Note_on_c, 0, 68, 0
2, 23607, Note_on_c, 0, 72, 0
2, 23607, Note_on_c, 0, 75, 0
2, 23613, Note_on_c, 0, 43, 0
2, 23618, Note_on_c, 0, 55, 0
2, 23639, Note_on_c, 0, 75, 76
2, 23639, Note_on_c, 0, 72, 46
2, 23639, Note_on_c, 0, 69, 62
2, 23642, Note_on_c, 0, 54, 69
2, 23642, Note_on_c, 0, 42, 69
2, 23644, Control_c, 0, 64, 127
2, 23655, Note_on_c, 0, 70, 0
2, 23697, Note_on_c, 0, 69, 0
2, 23699, Note_on_c, 0, 63, 63
2, 23717, Note_on_c, 0, 54, 0
2, 23719, Control_c, 0, 64, 0
2, 23740, Note_on_c, 0, 75, 0
2, 23741, Note_on_c, 0, 42, 0
2, 23755, Note_on_c, 0, 72, 0
2, 23761, Note_on_c, 0, 78, 81
2, 23761, Note_on_c, 0, 72, 51
2, 23761, Note_on_c, 0, 69, 65
2, 23761, Note_on_c, 0, 51, 78
2, 23761, Note_on_c, 0, 39, 78
2, 23764, Control_c, 0, 64, 127
2, 23778, Note_on_c, 0, 63, 0
2, 23820, Note_on_c, 0, 70, 66
2, 23822, Note_on_c, 0, 69, 0
2, 23881, Note_on_c, 0, 68, 64
2, 23890, Note_on_c, 0, 70, 0
2, 23927, Control_c, 0, 64, 0
2, 23940, Note_on_c, 0, 70, 59
2, 23946, Note_on_c, 0, 68, 0
2, 23957, Control_c, 0, 64, 127
2, 24000, Note_on_c, 0, 69, 60
2, 24033, Note_on_c, 0, 70, 0
2, 24061, Note_on_c, 0, 66, 60
2, 24068, Note_on_c, 0, 69, 0
2, 24096, Note_on_c, 0, 78, 0
2, 24099, Note_on_c, 0, 72, 0
2, 24117, Note_on_c, 0, 66, 0
2, 24118, Control_c, 0, 64, 0
2, 24121, Note_on_c, 0, 72, 54
2, 24122, Note_on_c, 0, 77, 74
2, 24122, Note_on_c, 0, 69, 60
2, 24181, Note_on_c, 0, 70, 60
2, 24188, Note_on_c, 0, 69, 0
2, 24241, Note_on_c, 0, 68, 61
2, 24247, Note_on_c, 0, 70, 0
2, 24301, Note_on_c, 0, 70, 57
2, 24304, Note_on_c, 0, 68, 0
2, 24361, Note_on_c, 0, 69, 57
2, 24372, Control_c, 0, 64, 127
2, 24376, Note_on_c, 0, 70, 0
2, 24413, Note_on_c, 0, 77, 0
2, 24415, Note_on_c, 0, 72, 0
2, 24419, Note_on_c, 0, 66, 56
2, 24420, Note_on_c, 0, 69, 0
2, 24425, Note_on_c, 0, 51, 0
2, 24425, Note_on_c, 0, 39, 0
2, 24468, Note_on_c, 0, 66, 0
2, 24479, Note_on_c, 0, 65, 52
2, 24481, Note_on_c, 0, 68, 44
2, 24481, Note_on_c, 0, 70, 70
2, 24481, Note_on_c, 0, 50, 65
2, 24481, Note_on_c, 0, 38, 57
2, 24481, Control_c, 0, 64, 0
2, 24539, Note_on_c, 0, 66, 48
2, 24547, Note_on_c, 0, 65, 0
2, 24599, Note_on_c, 0, 64, 47
2, 24601, Note_on_c, 0, 66, 0
2, 24659, Note_on_c, 0, 66, 50
2, 24661, Note_on_c, 0, 64, 0
2, 24719, Note_on_c, 0, 65, 49
2, 24723, Control_c, 0, 64, 127
2, 24744, Note_on_c, 0, 66, 0
2, 24779, Note_on_c, 0, 65, 0
2, 24779, Note_on_c, 0, 58, 51
2, 24797, Note_on_c, 0, 70, 0
2, 24798, Note_on_c, 0, 68, 0
2, 24806, Note_on_c, 0, 50, 0
2, 24812, Note_on_c, 0, 38, 0
2, 24833, Control_c, 0, 64, 0
2, 24839, Note_on_c, 0, 70, 67
2, 24839, Note_on_c, 0, 68, 47
2, 24839, Note_on_c, 0, 64, 46
2, 24841, Note_on_c, 0, 49, 69
2, 24841, Note_on_c, 0, 37, 72
2, 24846, Note_on_c, 0, 58, 0
2, 24899, Note_on_c, 0, 66, 52
2, 24902, Note_on_c, 0, 64, 0
2, 24960, Note_on_c, 0, 63, 52
2, 24971, Note_on_c, 0, 66, 0
2, 25019, Note_on_c, 0, 66, 51
2, 25032, Note_on_c, 0, 63, 0
2, 25050, Note_on_c, 0, 68, 0
2, 25051, Note_on_c, 0, 70, 0
2, 25075, Control_c, 0, 64, 127
2, 25079, Note_on_c, 0, 70, 64
2, 25079, Note_on_c, 0, 67, 44
2, 25081, Note_on_c, 0, 64, 49
2, 25102, Note_on_c, 0, 66, 0
2, 25139, Note_on_c, 0, 58, 52
2, 25144, Note_on_c, 0, 64, 0
2, 25176, Note_on_c, 0, 67, 0
2, 25181, Note_on_c, 0, 70, 0
2, 25189, Control_c, 0, 64, 0
2, 25191, Note_on_c, 0, 37, 0
2, 25192, Note_on_c, 0, 49, 0
2, 25195, Note_on_c, 0, 58, 0
2, 25200, Note_on_c, 0, 70, 67
2, 25201, Note_on_c, 0, 67, 47
2, 25201, Note_on_c, 0, 64, 51
2, 25201, Note_on_c, 0, 48, 66
2, 25201, Note_on_c, 0, 36, 66
2, 25261, Note_on_c, 0, 65, 46
2, 25270, Note_on_c, 0, 64, 0
2, 25321, Note_on_c, 0, 62, 48
2, 25327, Note_on_c, 0, 65, 0
2, 25380, Note_on_c, 0, 65, 49
2, 25383, Note_on_c, 0, 62, 0
2, 25436, Control_c, 0, 64, 127
2, 25441, Note_on_c, 0, 64, 52
2, 25471, Note_on_c, 0, 65, 0
2, 25499, Note_on_c, 0, 58, 52
2, 25502, Note_on_c, 0, 64, 0
2, 25549, Note_on_c, 0, 67, 0
2, 25550, Control_c, 0, 64, 0
2, 25556, Note_on_c, 0, 70, 0
2, 25561, Note_on_c, 0, 69, 63
2, 25561, Note_on_c, 0, 66, 43
2, 25561, Note_on_c, 0, 63, 48
2, 25578, Note_on_c, 0, 58, 0
2, 25619, Note_on_c, 0, 65, 43
2, 25624, Note_on_c, 0, 63, 0
2, 25679, Note_on_c, 0, 62, 39
2, 25686, Note_on_c, 0, 65, 0
2, 25739, Note_on_c, 0, 65, 39
2, 25749, Note_on_c, 0, 62, 0
2, 25799, Note_on_c, 0, 63, 38
2, 25806, Control_c, 0, 64, 127
2, 25823, Note_on_c, 0, 65, 0
2, 25859, Note_on_c, 0, 57, 41
2, 25863, Note_on_c, 0, 48, 0
2, 25863, Note_on_c, 0, 63, 0
2, 25883, Note_on_c, 0, 66, 0
2, 25889, Note_on_c, 0, 69, 0
2, 25917, Note_on_c, 0, 36, 0
2, 25917, Control_c, 0, 64, 0
2, 25918, Note_on_c, 0, 57, 0
2, 25919, Note_on_c, 0, 35, 60
2, 25919, Note_on_c, 0, 47, 60
2, 25920, Note_on_c, 0, 69, 61
2, 25921, Note_on_c, 0, 66, 43
2, 25921, Note_on_c, 0, 63, 52
2, 25981, Note_on_c, 0, 65, 45
2, 25993, Note_on_c, 0, 63, 0
2, 26041, Note_on_c, 0, 62, 41
2, 26051, Note_on_c, 0, 65, 0
2, 26101, Note_on_c, 0, 65, 39
2, 26107, Note_on_c, 0, 62, 0
2, 26160, Control_c, 0, 64, 127
2, 26161, Note_on_c, 0, 63, 42
2, 26170, Note_on_c, 0, 65, 0
2, 26221, Note_on_c, 0, 57, 51
2, 26226, Note_on_c, 0, 63, 0
2, 26253, Note_on_c, 0, 66, 0
2, 26257, Note_on_c, 0, 69, 0
2, 26276, Control_c, 0, 64, 0
2, 26279, Note_on_c, 0, 68, 65
2, 26280, Note_on_c, 0, 65, 45
2, 26281, Note_on_c, 0, 62, 50
2, 26282, Note_on_c, 0, 57, 0
2, 26338, Note_on_c, 0, 62, 0
2, 26341, Note_on_c, 0, 63, 48
2, 26401, Note_on_c, 0, 61, 45
2, 26407, Note_on_c, 0, 63, 0
2, 26460, Note_on_c, 0, 63, 47
2, 26465, Note_on_c, 0, 61, 0
2, 26497, Note_on_c, 0, 68, 0
2, 26499, Note_on_c, 0, 65, 0
2, 26517, Control_c, 0, 64, 127
2, 26521, Note_on_c, 0, 68, 62
2, 26521, Note_on_c, 0, 65, 42
2, 26521, Note_on_c, 0, 62, 48
2, 26539, Note_on_c, 0, 63, 0
2, 26577, Note_on_c, 0, 62, 0
2, 26581, Note_on_c, 0, 56, 41
2, 26615, Note_on_c, 0, 47, 0
2, 26622, Note_on_c, 0, 68, 0
2, 26623, Note_on_c, 0, 65, 0
2, 26628, Control_c, 0, 64, 0
2, 26635, Note_on_c, 0, 35, 0
2, 26641, Note_on_c, 0, 68, 54
2, 26641, Note_on_c, 0, 61, 49
2, 26641, Note_on_c, 0, 34, 60
2, 26641, Note_on_c, 0, 46, 60
2, 26642, Note_on_c, 0, 64, 44
2, 26643, Note_on_c, 0, 56, 0
2, 26700, Note_on_c, 0, 63, 45
2, 26704, Note_on_c, 0, 61, 0
2, 26759, Note_on_c, 0, 60, 44
2, 26760, Note_on_c, 0, 63, 0
2, 26820, Note_on_c, 0, 63, 47
2, 26824, Note_on_c, 0, 60, 0
2, 26880, Note_on_c, 0, 61, 47
2, 26881, Control_c, 0, 64, 127
2, 26896, Note_on_c, 0, 63, 0
2, 26939, Note_on_c, 0, 56, 47
2, 26948, Note_on_c, 0, 61, 0
2, 26976, Note_on_c, 0, 68, 0
2, 26978, Note_on_c, 0, 64, 0
2, 26993, Control_c, 0, 64, 0
2, 26999, Note_on_c, 0, 61, 50
2, 27001, Note_on_c, 0, 64, 42
2, 27001, Note_on_c, 0, 67, 52
2, 27005, Note_on_c, 0, 56, 0
2, 27061, Note_on_c, 0, 63, 47
2, 27069, Note_on_c, 0, 61, 0
2, 27119, Note_on_c, 0, 60, 47
2, 27125, Note_on_c, 0, 63, 0
2, 27180, Note_on_c, 0, 63, 48
2, 27187, Note_on_c, 0, 60, 0
2, 27239, Control_c, 0, 64, 127
2, 27241, Note_on_c, 0, 61, 47
2, 27253, Note_on_c, 0, 63, 0
2, 27299, Note_on_c, 0, 55, 45
2, 27301, Note_on_c, 0, 61, 0
2, 27322, Note_on_c, 0, 64, 0
2, 27324, Note_on_c, 0, 67, 0
2, 27343, Note_on_c, 0, 46, 0
2, 27346, Control_c, 0, 64, 0
2, 27355, Note_on_c, 0, 34, 0
2, 27361, Note_on_c, 0, 67, 49
2, 27361, Note_on_c, 0, 64, 49
2, 27361, Note_on_c, 0, 61, 43
2, 27361, Note_on_c, 0, 33, 57
2, 27361, Note_on_c, 0, 45, 57
2, 27382, Note_on_c, 0, 55, 0
2, 27421, Note_on_c, 0, 63, 44
2, 27426, Note_on_c, 0, 61, 0
2, 27480, Note_on_c, 0, 60, 44
2, 27482, Note_on_c, 0, 63, 0
2, 27539, Note_on_c, 0, 63, 43
2, 27548, Note_on_c, 0, 60, 0
2, 27600, Note_on_c, 0, 61, 44
2, 27601, Control_c, 0, 64, 127
2, 27606, Note_on_c, 0, 63, 0
2, 27659, Note_on_c, 0, 61, 0
2, 27659, Note_on_c, 0, 55, 42
2, 27687, Note_on_c, 0, 64, 0
2, 27690, Note_on_c, 0, 67, 0
2, 27712, Note_on_c, 0, 55, 0
2, 27717, Control_c, 0, 64, 0
2, 27719, Note_on_c, 0, 64, 51
2, 27719, Note_on_c, 0, 67, 51
2, 27719, Note_on_c, 0, 60, 42
2, 27779, Note_on_c, 0, 62, 43
2, 27783, Note_on_c, 0, 60, 0
2, 27839, Note_on_c, 0, 59, 43
2, 27847, Note_on_c, 0, 62, 0
2, 27899, Note_on_c, 0, 62, 44
2, 27915, Note_on_c, 0, 59, 0
2, 27933, Note_on_c, 0, 67, 0
2, 27940, Note_on_c, 0, 64, 0
2, 27951, Control_c, 0, 64, 127
2, 27959, Note_on_c, 0, 60, 45
2, 27960, Note_on_c, 0, 64, 49
2, 27961, Note_on_c, 0, 67, 49
2, 27969, Note_on_c, 0, 62, 0
2, 28019, Note_on_c, 0, 55, 45
2, 28021, Note_on_c, 0, 60, 0
2, 28051, Note_on_c, 0, 67, 0
2, 28058, Note_on_c, 0, 64, 0
2, 28073, Control_c, 0, 64, 0
2, 28076, Note_on_c, 0, 55, 0
2, 28081, Note_on_c, 0, 63, 49
2, 28081, Note_on_c, 0, 67, 49
2, 28081, Note_on_c, 0, 59, 45
2, 28141, Note_on_c, 0, 60, 40
2, 28146, Note_on_c, 0, 59, 0
2, 28201, Note_on_c, 0, 58, 41
2, 28204, Note_on_c, 0, 60, 0
2, 28261, Note_on_c, 0, 60, 39
2, 28276, Note_on_c, 0, 58, 0
2, 28321, Note_on_c, 0, 59, 41
2, 28325, Control_c, 0, 64, 127
2, 28330, Note_on_c, 0, 60, 0
2, 28379, Note_on_c, 0, 54, 41
2, 28380, Note_on_c, 0, 59, 0
2, 28415, Note_on_c, 0, 63, 0
2, 28434, Control_c, 0, 64, 0
2, 28441, Note_on_c, 0, 66, 53
2, 28441, Note_on_c, 0, 63, 53
2, 28441, Note_on_c, 0, 59, 39
2, 28449, Note_on_c, 0, 54, 0
2, 28462, Note_on_c, 0, 67, 0
2, 28495, Note_on_c, 0, 59, 0
2, 28499, Note_on_c, 0, 60, 41
2, 28559, Note_on_c, 0, 58, 44
2, 28563, Note_on_c, 0, 60, 0
2, 28619, Note_on_c, 0, 60, 41
2, 28628, Note_on_c, 0, 58, 0
2, 28676, Control_c, 0, 64, 127
2, 28679, Note_on_c, 0, 59, 40
2, 28685, Note_on_c, 0, 60, 0
2, 28693, Note_on_c, 0, 63, 0
2, 28695, Note_on_c, 0, 66, 0
2, 28733, Note_on_c, 0, 45, 0
2, 28736, Note_on_c, 0, 59, 0
2, 28739, Note_on_c, 0, 54, 40
2, 28789, Control_c, 0, 64, 0
2, 28791, Note_on_c, 0, 33, 0
2, 28794, Note_on_c, 0, 54, 0
2, 28800, Note_on_c, 0, 34, 49
2, 28801, Note_on_c, 0, 62, 42
2, 28801, Note_on_c, 0, 66, 42
2, 28801, Note_on_c, 0, 58, 39
2, 28801, Note_on_c, 0, 46, 49
2, 28861, Note_on_c, 0, 59, 39
2, 28872, Note_on_c, 0, 58, 0
2, 28921, Note_on_c, 0, 57, 38
2, 28926, Note_on_c, 0, 59, 0
2, 28979, Note_on_c, 0, 59, 41
2, 28984, Note_on_c, 0, 57, 0
2, 29033, Control_c, 0, 64, 127
2, 29039, Note_on_c, 0, 58, 42
2, 29052, Note_on_c, 0, 59, 0
2, 29099, Note_on_c, 0, 53, 41
2, 29100, Note_on_c, 0, 58, 0
2, 29132, Note_on_c, 0, 66, 0
2, 29136, Note_on_c, 0, 62, 0
2, 29144, Control_c, 0, 64, 0
2, 29159, Note_on_c, 0, 58, 40
2, 29161, Note_on_c, 0, 65, 44
2, 29161, Note_on_c, 0, 62, 44
2, 29168, Note_on_c, 0, 53, 0
2, 29218, Note_on_c, 0, 58, 0
2, 29219, Note_on_c, 0, 59, 39
2, 29279, Note_on_c, 0, 57, 41
2, 29289, Note_on_c, 0, 59, 0
2, 29339, Note_on_c, 0, 59, 39
2, 29344, Note_on_c, 0, 57, 0
2, 29364, Note_on_c, 0, 65, 0
2, 29365, Note_on_c, 0, 62, 0
2, 29399, Note_on_c, 0, 62, 43
2, 29399, Note_on_c, 0, 65, 43
2, 29399, Note_on_c, 0, 58, 39
2, 29402, Control_c, 0, 64, 127
2, 29408, Note_on_c, 0, 59, 0
2, 29459, Note_on_c, 0, 53, 38
2, 29462, Note_on_c, 0, 58, 0
2, 29506, Note_on_c, 0, 65, 0
2, 29508, Note_on_c, 0, 62, 0
2, 29514, Note_on_c, 0, 53, 0
2, 29521, Note_on_c, 0, 65, 45
2, 29521, Note_on_c, 0, 60, 45
2, 29521, Note_on_c, 0, 57, 36
2, 29522, Control_c, 0, 64, 0
2, 29579, Note_on_c, 0, 58, 36
2, 29581, Note_on_c, 0, 57, 0
2, 29639, Note_on_c, 0, 56, 37
2, 29646, Note_on_c, 0, 58, 0
2, 29699, Note_on_c, 0, 58, 39
2, 29705, Note_on_c, 0, 56, 0
2, 29759, Note_on_c, 0, 57, 39
2, 29762, Control_c, 0, 64, 127
2, 29784, Note_on_c, 0, 58, 0
2, 29820, Note_on_c, 0, 57, 0
2, 29820, Note_on_c, 0, 53, 42
2, 29841, Note_on_c, 0, 65, 0
2, 29879, Note_on_c, 0, 60, 0
2, 29879, Control_c, 0, 64, 0
2, 29880, Note_on_c, 0, 58, 38
2, 29881, Note_on_c, 0, 65, 45
2, 29881, Note_on_c, 0, 62, 45
2, 29892, Note_on_c, 0, 53, 0
2, 29939, Note_on_c, 0, 59, 39
2, 29957, Note_on_c, 0, 58, 0
2, 29999, Note_on_c, 0, 57, 38
2, 30003, Note_on_c, 0, 59, 0
2, 30060, Note_on_c, 0, 59, 39
2, 30068, Note_on_c, 0, 57, 0
2, 30119, Note_on_c, 0, 58, 41
2, 30126, Note_on_c, 0, 59, 0
2, 30128, Control_c, 0, 64, 127
2, 30166, Note_on_c, 0, 46, 0
2, 30172, Note_on_c, 0, 34, 0
2, 30179, Note_on_c, 0, 53, 39
2, 30192, Note_on_c, 0, 58, 0
2, 30210, Control_c, 0, 64, 0
2, 30217, Note_on_c, 0, 62, 0
2, 30221, Note_on_c, 0, 65, 0
2, 30231, Note_on_c, 0, 53, 0
2, 30239, Note_on_c, 0, 58, 43
2, 30241, Note_on_c, 0, 66, 53
2, 30241, Note_on_c, 0, 51, 53
2, 30247, Control_c, 0, 64, 127
2, 30299, Note_on_c, 0, 59, 33
2, 30309, Note_on_c, 0, 58, 0
2, 30361, Note_on_c, 0, 57, 35
2, 30370, Note_on_c, 0, 59, 0
2, 30421, Note_on_c, 0, 59, 36
2, 30430, Note_on_c, 0, 57, 0
2, 30481, Note_on_c, 0, 58, 35
2, 30487, Control_c, 0, 64, 0
2, 30500, Note_on_c, 0, 59, 0
2, 30541, Note_on_c, 0, 54, 37
2, 30545, Note_on_c, 0, 58, 0
2, 30601, Note_on_c, 0, 58, 41
2, 30617, Note_on_c, 0, 54, 0
2, 30661, Note_on_c, 0, 59, 40
2, 30664, Note_on_c, 0, 58, 0
2, 30721, Note_on_c, 0, 57, 38
2, 30730, Note_on_c, 0, 59, 0
2, 30779, Note_on_c, 0, 59, 41
2, 30783, Note_on_c, 0, 57, 0
2, 30839, Note_on_c, 0, 58, 43
2, 30841, Note_on_c, 0, 65, 54
2, 30848, Note_on_c, 0, 59, 0
2, 30856, Note_on_c, 0, 66, 0
2, 30894, Note_on_c, 0, 58, 0
2, 30899, Note_on_c, 0, 63, 58
2, 30900, Note_on_c, 0, 65, 0
2, 30920, Note_on_c, 0, 51, 0
2, 30961, Note_on_c, 0, 70, 64
2, 30961, Note_on_c, 0, 59, 40
2, 30961, Note_on_c, 0, 53, 55
2, 30964, Control_c, 0, 64, 127
2, 31019, Note_on_c, 0, 59, 0
2, 31021, Note_on_c, 0, 61, 44
2, 31081, Note_on_c, 0, 58, 39
2, 31084, Control_c, 0, 64, 0
2, 31090, Note_on_c, 0, 61, 0
2, 31141, Note_on_c, 0, 61, 39
2, 31148, Note_on_c, 0, 58, 0
2, 31201, Note_on_c, 0, 59, 41
2, 31212, Note_on_c, 0, 61, 0
2, 31255, Note_on_c, 0, 59, 0
2, 31261, Note_on_c, 0, 56, 38
2, 31321, Note_on_c, 0, 68, 55
2, 31321, Note_on_c, 0, 59, 41
2, 31334, Note_on_c, 0, 56, 0
2, 31342, Note_on_c, 0, 70, 0
2, 31374, Note_on_c, 0, 59, 0
2, 31381, Note_on_c, 0, 61, 41
2, 31441, Note_on_c, 0, 58, 40
2, 31445, Note_on_c, 0, 61, 0
2, 31501, Note_on_c, 0, 61, 42
2, 31512, Note_on_c, 0, 58, 0
2, 31561, Note_on_c, 0, 59, 42
2, 31578, Note_on_c, 0, 61, 0
2, 31619, Note_on_c, 0, 59, 0
2, 31621, Note_on_c, 0, 65, 56
2, 31621, Note_on_c, 0, 56, 43
2, 31622, Control_c, 0, 64, 127
2, 31631, Note_on_c, 0, 68, 0
2, 31646, Note_on_c, 0, 63, 0
2, 31681, Note_on_c, 0, 71, 65
2, 31681, Note_on_c, 0, 50, 53
2, 31702, Note_on_c, 0, 53, 0
2, 31737, Note_on_c, 0, 56, 0
2, 31739, Note_on_c, 0, 58, 45
2, 31801, Note_on_c, 0, 55, 42
2, 31802, Note_on_c, 0, 58, 0
2, 31859, Note_on_c, 0, 58, 41
2, 31860, Note_on_c, 0, 55, 0
2, 31919, Note_on_c, 0, 56, 41
2, 31920, Control_c, 0, 64, 0
2, 31933, Note_on_c, 0, 58, 0
2, 31979, Note_on_c, 0, 53, 43
2, 31980, Note_on_c, 0, 56, 0
2, 32041, Note_on_c, 0, 56, 41
2, 32053, Note_on_c, 0, 53, 0
2, 32097, Note_on_c, 0, 56, 0
2, 32099, Note_on_c, 0, 58, 41
2, 32161, Note_on_c, 0, 55, 40
2, 32168, Note_on_c, 0, 58, 0
2, 32218, Note_on_c, 0, 55, 0
2, 32219, Note_on_c, 0, 58, 43
2, 32277, Note_on_c, 0, 71, 0
2, 32279, Note_on_c, 0, 70, 58
2, 32279, Note_on_c, 0, 56, 52
2, 32280, Note_on_c, 0, 58, 0
2, 32303, Control_c, 0, 64, 127
2, 32318, Note_on_c, 0, 65, 0
2, 32333, Note_on_c, 0, 56, 0
2, 32339, Note_on_c, 0, 65, 65
2, 32358, Note_on_c, 0, 70, 0
2, 32380, Control_c, 0, 64, 0
2, 32401, Note_on_c, 0, 64, 55
2, 32401, Note_on_c, 0, 70, 69
2, 32401, Note_on_c, 0, 55, 56
2, 32401, Note_on_c, 0, 49, 53
2, 32407, Note_on_c, 0, 50, 0
2, 32420, Note_on_c, 0, 65, 0
2, 32421, Control_c, 0, 64, 127
2, 32456, Note_on_c, 0, 55, 0
2, 32459, Note_on_c, 0, 56, 42
2, 32519, Note_on_c, 0, 54, 41
2, 32524, Note_on_c, 0, 56, 0
2, 32526, Control_c, 0, 64, 0
2, 32579, Note_on_c, 0, 56, 44
2, 32588, Note_on_c, 0, 54, 0
2, 32641, Note_on_c, 0, 55, 45
2, 32652, Note_on_c, 0, 56, 0
2, 32701, Note_on_c, 0, 55, 0
2, 32701, Note_on_c, 0, 52, 46
2, 32761, Note_on_c, 0, 55, 44
2, 32771, Note_on_c, 0, 52, 0
2, 32813, Note_on_c, 0, 55, 0
2, 32821, Note_on_c, 0, 56, 43
2, 32879, Note_on_c, 0, 54, 41
2, 32882, Note_on_c, 0, 56, 0
2, 32939, Note_on_c, 0, 56, 45
2, 32941, Note_on_c, 0, 54, 0
2, 32991, Control_c, 0, 64, 127
2, 32999, Note_on_c, 0, 55, 47
2, 33007, Note_on_c, 0, 56, 0
2, 33059, Note_on_c, 0, 63, 67
2, 33066, Note_on_c, 0, 70, 0
2, 33072, Note_on_c, 0, 64, 0
2, 33082, Control_c, 0, 64, 0
2, 33119, Note_on_c, 0, 47, 64
2, 33119, Control_c, 0, 64, 127
2, 33121, Note_on_c, 0, 75, 78
2, 33125, Note_on_c, 0, 49, 0
2, 33168, Note_on_c, 0, 55, 0
2, 33182, Note_on_c, 0, 56, 53
2, 33228, Control_c, 0, 64, 0
2, 33242, Note_on_c, 0, 54, 50
2, 33246, Note_on_c, 0, 56, 0
2, 33301, Note_on_c, 0, 56, 50
2, 33309, Note_on_c, 0, 54, 0
2, 33362, Note_on_c, 0, 55, 53
2, 33376, Note_on_c, 0, 56, 0
2, 33416, Note_on_c, 0, 55, 0
2, 33422, Note_on_c, 0, 51, 45
2, 33481, Note_on_c, 0, 56, 39
2, 33485, Control_c, 0, 64, 127
2, 33486, Note_on_c, 0, 51, 0
2, 33538, Note_on_c, 0, 56, 0
2, 33541, Note_on_c, 0, 58, 40
2, 33592, Note_on_c, 0, 75, 0
2, 33599, Control_c, 0, 64, 0
2, 33601, Note_on_c, 0, 73, 71
2, 33601, Note_on_c, 0, 55, 41
2, 33608, Note_on_c, 0, 58, 0
2, 33661, Note_on_c, 0, 71, 69
2, 33661, Note_on_c, 0, 58, 40
2, 33667, Note_on_c, 0, 55, 0
2, 33688, Note_on_c, 0, 73, 0
2, 33719, Control_c, 0, 64, 127
2, 33721, Note_on_c, 0, 68, 67
2, 33721, Note_on_c, 0, 56, 42
2, 33731, Note_on_c, 0, 71, 0
2, 33731, Note_on_c, 0, 58, 0
2, 33763, Note_on_c, 0, 63, 0
2, 33781, Note_on_c, 0, 63, 65
2, 33788, Note_on_c, 0, 68, 0
2, 33836, Control_c, 0, 64, 0
2, 33841, Note_on_c, 0, 66, 61
2, 33841, Note_on_c, 0, 62, 41
2, 33842, Note_on_c, 0, 46, 62
2, 33863, Note_on_c, 0, 47, 0
2, 33864, Note_on_c, 0, 63, 0
2, 33884, Note_on_c, 0, 56, 0
2, 33902, Note_on_c, 0, 58, 52
2, 33961, Note_on_c, 0, 58, 0
2, 33961, Note_on_c, 0, 55, 49
2, 34021, Note_on_c, 0, 58, 53
2, 34025, Note_on_c, 0, 55, 0
2, 34081, Note_on_c, 0, 56, 52
2, 34090, Note_on_c, 0, 58, 0
2, 34093, Control_c, 0, 64, 127
2, 34136, Note_on_c, 0, 56, 0
2, 34139, Note_on_c, 0, 65, 55
2, 34141, Note_on_c, 0, 53, 49
2, 34161, Note_on_c, 0, 66, 0
2, 34167, Note_on_c, 0, 62, 0
2, 34191, Note_on_c, 0, 46, 0
2, 34193, Control_c, 0, 64, 0
2, 34200, Note_on_c, 0, 54, 46
2, 34201, Note_on_c, 0, 63, 44
2, 34201, Note_on_c, 0, 47, 52
2, 34207, Note_on_c, 0, 53, 0
2, 34210, Note_on_c, 0, 65, 0
2, 34260, Note_on_c, 0, 56, 40
2, 34264, Note_on_c, 0, 54, 0
2, 34321, Note_on_c, 0, 53, 40
2, 34326, Note_on_c, 0, 56, 0
2, 34381, Note_on_c, 0, 56, 41
2, 34387, Note_on_c, 0, 53, 0
2, 34440, Control_c, 0, 64, 127
2, 34441, Note_on_c, 0, 54, 42
2, 34448, Note_on_c, 0, 56, 0
2, 34501, Note_on_c, 0, 51, 41
2, 34504, Note_on_c, 0, 54, 0
2, 34555, Control_c, 0, 64, 0
2, 34557, Note_on_c, 0, 63, 0
2, 34560, Note_on_c, 0, 51, 0
2, 34561, Note_on_c, 0, 44, 63
2, 34562, Note_on_c, 0, 64, 59
2, 34562, Note_on_c, 0, 59, 39
2, 34562, Note_on_c, 0, 56, 54
2, 34569, Note_on_c, 0, 47, 0
2, 34621, Note_on_c, 0, 58, 53
2, 34628, Note_on_c, 0, 56, 0
2, 34682, Note_on_c, 0, 55, 51
2, 34690, Note_on_c, 0, 58, 0
2, 34741, Note_on_c, 0, 58, 51
2, 34744, Note_on_c, 0, 55, 0
2, 34801, Note_on_c, 0, 56, 49
2, 34804, Control_c, 0, 64, 127
2, 34811, Note_on_c, 0, 58, 0
2, 34861, Note_on_c, 0, 52, 50
2, 34868, Note_on_c, 0, 56, 0
2, 34898, Note_on_c, 0, 59, 0
2, 34911, Note_on_c, 0, 64, 0
2, 34917, Note_on_c, 0, 52, 0
2, 34919, Control_c, 0, 64, 0
2, 34921, Note_on_c, 0, 53, 38
2, 34921, Note_on_c, 0, 46, 52
2, 34922, Note_on_c, 0, 44, 0
2, 34922, Note_on_c, 0, 58, 43
2, 34922, Note_on_c, 0, 62, 43
2, 34977, Note_on_c, 0, 53, 0
2, 34981, Note_on_c, 0, 54, 40
2, 35041, Note_on_c, 0, 52, 45
2, 35046, Note_on_c, 0, 54, 0
2, 35101, Note_on_c, 0, 54, 43
2, 35103, Note_on_c, 0, 52, 0
2, 35161, Note_on_c, 0, 53, 41
2, 35177, Note_on_c, 0, 54, 0
2, 35208, Control_c, 0, 64, 127
2, 35210, Note_on_c, 0, 46, 0
2, 35217, Note_on_c, 0, 53, 0
2, 35221, Note_on_c, 0, 46, 40
2, 35251, Note_on_c, 0, 63, 61
2, 35263, Note_on_c, 0, 58, 0
2, 35263, Note_on_c, 0, 62, 0
2, 35272, Control_c, 0, 64, 0
2, 35277, Note_on_c, 0, 46, 0
2, 35281, Note_on_c, 0, 64, 65
2, 35281, Note_on_c, 0, 59, 46
2, 35281, Note_on_c, 0, 56, 48
2, 35281, Note_on_c, 0, 44, 62
2, 35294, Note_on_c, 0, 63, 0
2, 35341, Note_on_c, 0, 58, 44
2, 35345, Note_on_c, 0, 56, 0
2, 35401, Note_on_c, 0, 55, 42
2, 35408, Note_on_c, 0, 58, 0
2, 35461, Note_on_c, 0, 58, 46
2, 35468, Note_on_c, 0, 55, 0
2, 35521, Note_on_c, 0, 56, 48
2, 35522, Control_c, 0, 64, 127
2, 35542, Note_on_c, 0, 58, 0
2, 35581, Note_on_c, 0, 52, 50
2, 35587, Note_on_c, 0, 56, 0
2, 35627, Note_on_c, 0, 59, 0
2, 35630, Control_c, 0, 64, 0
2, 35633, Note_on_c, 0, 44, 0
2, 35636, Note_on_c, 0, 52, 0
2, 35641, Note_on_c, 0, 58, 39
2, 35641, Note_on_c, 0, 62, 49
2, 35641, Note_on_c, 0, 53, 53
2, 35641, Note_on_c, 0, 46, 50
2, 35649, Note_on_c, 0, 64, 0
2, 35701, Note_on_c, 0, 54, 45
2, 35702, Note_on_c, 0, 53, 0
2, 35761, Note_on_c, 0, 52, 41
2, 35764, Note_on_c, 0, 54, 0
2, 35819, Note_on_c, 0, 54, 43
2, 35820, Note_on_c, 0, 52, 0
2, 35881, Note_on_c, 0, 53, 46
2, 35895, Note_on_c, 0, 54, 0
2, 35909, Control_c, 0, 64, 127
2, 35928, Note_on_c, 0, 46, 0
2, 35941, Note_on_c, 0, 46, 45
2, 35945, Note_on_c, 0, 53, 0
2, 35971, Note_on_c, 0, 63, 60
2, 35977, Note_on_c, 0, 62, 0
2, 35985, Note_on_c, 0, 58, 0
2, 36001, Note_on_c, 0, 46, 0
2, 36001, Note_on_c, 0, 59, 46
2, 36001, Note_on_c, 0, 64, 66
2, 36001, Note_on_c, 0, 56, 45
2, 36001, Note_on_c, 0, 44, 64
2, 36003, Control_c, 0, 64, 0
2, 36018, Note_on_c, 0, 63, 0
2, 36061, Note_on_c, 0, 56, 0
2, 36061, Note_on_c, 0, 58, 49
2, 36121, Note_on_c, 0, 55, 49
2, 36128, Note_on_c, 0, 58, 0
2, 36181, Note_on_c, 0, 58, 45
2, 36192, Note_on_c, 0, 55, 0
2, 36241, Note_on_c, 0, 56, 47
2, 36249, Control_c, 0, 64, 127
2, 36253, Note_on_c, 0, 58, 0
2, 36299, Note_on_c, 0, 52, 45
2, 36309, Note_on_c, 0, 56, 0
2, 36321, Note_on_c, 0, 59, 0
2, 36329, Note_on_c, 0, 64, 0
2, 36332, Control_c, 0, 64, 0
2, 36355, Note_on_c, 0, 52, 0
2, 36358, Note_on_c, 0, 44, 0
2, 36358, Control_c, 0, 64, 127
2, 36361, Note_on_c, 0, 73, 64
2, 36361, Note_on_c, 0, 61, 40
2, 36361, Note_on_c, 0, 64, 47
2, 36361, Note_on_c, 0, 57, 60
2, 36361, Note_on_c, 0, 45, 62
2, 36421, Note_on_c, 0, 52, 61
2, 36424, Note_on_c, 0, 57, 0
2, 36449, Note_on_c, 0, 73, 0
2, 36451, Note_on_c, 0, 61, 0
2, 36452, Note_on_c, 0, 64, 0
2, 36458, Control_c, 0, 64, 0
2, 36481, Note_on_c, 0, 64, 48
2, 36481, Note_on_c, 0, 68, 68
2, 36481, Note_on_c, 0, 59, 61
2, 36481, Note_on_c, 0, 47, 63
2, 36481, Control_c, 0, 64, 127
2, 36490, Note_on_c, 0, 52, 0
2, 36496, Note_on_c, 0, 45, 0
2, 36541, Note_on_c, 0, 52, 64
2, 36542, Note_on_c, 0, 59, 0
2, 36564, Note_on_c, 0, 68, 0
2, 36564, Control_c, 0, 64, 0
2, 36565, Note_on_c, 0, 64, 0
2, 36597, Control_c, 0, 64, 127
2, 36599, Note_on_c, 0, 64, 50
2, 36601, Note_on_c, 0, 69, 70
2, 36601, Note_on_c, 0, 61, 61
2, 36601, Note_on_c, 0, 49, 67
2, 36605, Note_on_c, 0, 52, 0
2, 36616, Note_on_c, 0, 47, 0
2, 36661, Note_on_c, 0, 52, 58
2, 36663, Note_on_c, 0, 61, 0
2, 36675, Control_c, 0, 64, 0
2, 36684, Note_on_c, 0, 69, 0
2, 36697, Note_on_c, 0, 64, 0
2, 36715, Control_c, 0, 64, 127
2, 36717, Note_on_c, 0, 49, 0
2, 36721, Note_on_c, 0, 59, 48
2, 36721, Note_on_c, 0, 68, 68
2, 36721, Note_on_c, 0, 44, 72
2, 36768, Note_on_c, 0, 52, 0
2, 36781, Note_on_c, 0, 66, 70
2, 36781, Note_on_c, 0, 52, 60
2, 36783, Control_c, 0, 64, 0
2, 36798, Note_on_c, 0, 68, 0
2, 36839, Note_on_c, 0, 52, 0
2, 36841, Note_on_c, 0, 64, 72
2, 36841, Note_on_c, 0, 51, 59
2, 36844, Control_c, 0, 64, 127
2, 36858, Note_on_c, 0, 66, 0
2, 36901, Note_on_c, 0, 52, 60
2, 36909, Control_c, 0, 64, 0
2, 36917, Note_on_c, 0, 51, 0
2, 36961, Note_on_c, 0, 54, 61
2, 36972, Note_on_c, 0, 52, 0
2, 37021, Note_on_c, 0, 56, 61
2, 37031, Note_on_c, 0, 54, 0
2, 37070, Note_on_c, 0, 64, 0
2, 37072, Note_on_c, 0, 59, 0
2, 37079, Note_on_c, 0, 46, 64
2, 37081, Note_on_c, 0, 56, 0
2, 37081, Note_on_c, 0, 63, 74
2, 37081, Note_on_c, 0, 59, 64
2, 37090, Control_c, 0, 64, 127
2, 37094, Note_on_c, 0, 44, 0
2, 37141, Note_on_c, 0, 58, 57
2, 37159, Control_c, 0, 64, 0
2, 37171, Note_on_c, 0, 59, 0
2, 37201, Note_on_c, 0, 57, 51
2, 37209, Control_c, 0, 64, 127
2, 37212, Note_on_c, 0, 58, 0
2, 37261, Note_on_c, 0, 58, 56
2, 37269, Note_on_c, 0, 57, 0
2, 37321, Note_on_c, 0, 62, 74
2, 37321, Note_on_c, 0, 53, 65
2, 37328, Note_on_c, 0, 63, 0
2, 37373, Control_c, 0, 64, 0
2, 37381, Note_on_c, 0, 54, 65
2, 37383, Note_on_c, 0, 53, 0
2, 37428, Note_on_c, 0, 58, 0
2, 37430, Note_on_c, 0, 62, 0
2, 37441, Note_on_c, 0, 39, 78
2, 37441, Note_on_c, 0, 63, 78
2, 37486, Note_on_c, 0, 46, 0
2, 37500, Note_on_c, 0, 47, 47
2, 37564, Note_on_c, 0, 46, 49
2, 37570, Note_on_c, 0, 47, 0
2, 37624, Note_on_c, 0, 50, 47
2, 37636, Note_on_c, 0, 46, 0
2, 37680, Note_on_c, 0, 51, 49
2, 37685, Note_on_c, 0, 54, 0
2, 37699, Note_on_c, 0, 50, 0
2, 37728, Note_on_c, 0, 53, 50
2, 37750, Note_on_c, 0, 51, 0
2, 37780, Note_on_c, 0, 54, 55
2, 37795, Note_on_c, 0, 53, 0
2, 37831, Note_on_c, 0, 47, 51
2, 37838, Note_on_c, 0, 54, 0
2, 37883, Note_on_c, 0, 46, 51
2, 37893, Note_on_c, 0, 47, 0
2, 37939, Note_on_c, 0, 50, 53
2, 37956, Note_on_c, 0, 46, 0
2, 37993, Note_on_c, 0, 51, 50
2, 38014, Note_on_c, 0, 50, 0
2, 38043, Note_on_c, 0, 53, 49
2, 38065, Note_on_c, 0, 51, 0
2, 38098, Note_on_c, 0, 54, 51
2, 38112, Note_on_c, 0, 53, 0
2, 38145, Note_on_c, 0, 54, 0
2, 38146, Note_on_c, 0, 47, 48
2, 38203, Note_on_c, 0, 46, 54
2, 38216, Note_on_c, 0, 47, 0
2, 38264, Note_on_c, 0, 50, 48
2, 38282, Note_on_c, 0, 46, 0
2, 38325, Note_on_c, 0, 51, 51
2, 38355, Note_on_c, 0, 50, 0
2, 38393, Note_on_c, 0, 53, 49
2, 38407, Note_on_c, 0, 51, 0
2, 38461, Note_on_c, 0, 54, 46
2, 38478, Note_on_c, 0, 53, 0
2, 38527, Note_on_c, 0, 47, 44
2, 38551, Note_on_c, 0, 54, 0
2, 38604, Note_on_c, 0, 46, 52
2, 38613, Note_on_c, 0, 47, 0
2, 38689, Note_on_c, 0, 50, 40
2, 38793, Note_on_c, 0, 51, 42
2, 38817, Note_on_c, 0, 50, 0
2, 38923, Note_on_c, 0, 53, 43
2, 38939, Note_on_c, 0, 51, 0
2, 39104, Note_on_c, 0, 55, 37
2, 39122, Note_on_c, 0, 53, 0
2, 39224, Control_c, 0, 64, 127
2, 40013, Note_on_c, 0, 63, 0
2, 40037, Note_on_c, 0, 39, 0
2, 40038, Note_on_c, 0, 46, 0
2, 40038, Note_on_c, 0, 55, 0
2, 40102, Control_c, 0, 64, 0
2, 40102, End_track
3, 0, Start_track
3, 0, MIDI_port, 0
3, 0, Title_t, "in Eb Minor"
3, 0, End_track
4, 0, Start_track
4, 0, MIDI_port, 0
4, 0, Title_t, "Op. 10, No. 6"
4, 0, End_track
5, 0, Start_track
5, 0, MIDI_port, 0
5, 0, Title_t, "Chopin, Frederic"
5, 0, End_track
6, 0, Start_track
6, 0, MIDI_port, 0
6, 0, Title_t, "Sequenced by Anousone Kitisa"
6, 0, End_track
0, 0, End_of_file