0, 0, Header, 1, 4, 48
1, 0, Start_track
1, 0, Tempo, 500000
1, 0, Time_signature, 4, 2, 24, 8
1, 0, Key_signature, 5, "major"
1, 0, Title_t, "F.F.Chopin  Nocturne No.9 in B major Op.32-1"
1, 0, Text_t, "CVS Ver5.05 Created"
1, 192, Tempo, 1621621
1, 216, Tempo, 1071428
1, 240, Tempo, 952380
1, 264, Tempo, 895522
1, 288, Tempo, 869565
1, 336, Tempo, 895522
1, 360, Tempo, 983606
1, 384, Tempo, 952380
1, 408, Tempo, 895522
1, 432, Tempo, 1071428
1, 444, Tempo, 1153846
1, 456, Tempo, 1000000
1, 468, Tempo, 1071428
1, 480, Tempo, 952380
1, 504, Tempo, 923076
1, 528, Tempo, 1000000
1, 552, Tempo, 1153846
1, 576, Tempo, 1250000
1, 600, Tempo, 895522
1, 608, Tempo, 750000
1, 616, Tempo, 789473
1, 624, Tempo, 821917
1, 660, Tempo, 869565
1, 720, Tempo, 845070
1, 744, Tempo, 869565
1, 756, Tempo, 1000000
1, 768, Tempo, 895522
1, 780, Tempo, 769230
1, 786, Tempo, 952380
1, 790, Tempo, 800000
1, 794, Tempo, 821917
1, 804, Tempo, 845070
1, 816, Tempo, 731707
1, 828, Tempo, 714285
1, 840, Tempo, 800000
1, 852, Tempo, 1071428
1, 912, Tempo, 923076
1, 936, Tempo, 1153846
1, 960, Tempo, 952380
1, 984, Tempo, 869565
1, 1008, Tempo, 769230
1, 1032, Tempo, 821917
1, 1044, Tempo, 895522
1, 1056, Tempo, 769230
1, 1080, Tempo, 800000
1, 1128, Tempo, 952380
1, 1140, Tempo, 1000000
1, 1152, Tempo, 789473
1, 1176, Tempo, 769230
1, 1200, Tempo, 750000
1, 1224, Tempo, 895522
1, 1272, Tempo, 821917
1, 1296, Tempo, 1071428
1, 1320, Tempo, 4615384
1, 1344, Tempo, 1333333
1, 1368, Tempo, 895522
1, 1380, Tempo, 845070
1, 1392, Tempo, 952380
1, 1402, Tempo, 750000
1, 1412, Tempo, 769230
1, 1421, Tempo, 845070
1, 1430, Tempo, 1621621
1, 1440, Tempo, 1395348
1, 1464, Tempo, 1111111
1, 1488, Tempo, 1153846
1, 1512, Tempo, 1538461
1, 1560, Tempo, 1463414
1, 1584, Tempo, 983606
1, 1608, Tempo, 923076
1, 1632, Tempo, 821917
1, 1656, Tempo, 731707
1, 1680, Tempo, 681818
1, 1704, Tempo, 659340
1, 1722, Tempo, 952380
1, 1728, Tempo, 800000
1, 1752, Tempo, 750000
1, 1776, Tempo, 697674
1, 1824, Tempo, 769230
1, 1896, Tempo, 800000
1, 1920, Tempo, 845070
1, 1944, Tempo, 1071428
1, 1968, Tempo, 769230
1, 1992, Tempo, 731707
1, 2016, Tempo, 697674
1, 2040, Tempo, 645161
1, 2064, Tempo, 618556
1, 2088, Tempo, 594059
1, 2106, Tempo, 1153846
1, 2112, Tempo, 697674
1, 2136, Tempo, 681818
1, 2160, Tempo, 769230
1, 2208, Tempo, 731707
1, 2232, Tempo, 750000
1, 2256, Tempo, 681818
1, 2280, Tempo, 535714
1, 2296, Tempo, 1818181
1, 2300, Tempo, 3333333
1, 2304, Tempo, 1071428
1, 2328, Tempo, 800000
1, 2352, Tempo, 1000000
1, 2376, Tempo, 952380
1, 2388, Tempo, 1250000
1, 2400, Tempo, 1071428
1, 2424, Tempo, 1621621
1, 2448, Tempo, 1463414
1, 2472, Tempo, 3333333
1, 2480, Tempo, 2307692
1, 2484, Tempo, 2000000
1, 2488, Tempo, 1935483
1, 2492, Tempo, 5454545
1, 2496, Tempo, 1333333
1, 2520, Tempo, 1034482
1, 2544, Tempo, 983606
1, 2568, Tempo, 952380
1, 2592, Tempo, 800000
1, 2616, Tempo, 789473
1, 2640, Tempo, 869565
1, 2664, Tempo, 1000000
1, 2688, Tempo, 869565
1, 2712, Tempo, 895522
1, 2736, Tempo, 1000000
1, 2748, Tempo, 1071428
1, 2760, Tempo, 952380
1, 2772, Tempo, 1250000
1, 2784, Tempo, 952380
1, 2808, Tempo, 845070
1, 2832, Tempo, 923076
1, 2856, Tempo, 1153846
1, 2880, Tempo, 845070
1, 2904, Tempo, 697674
1, 2912, Tempo, 666666
1, 2920, Tempo, 697674
1, 2928, Tempo, 769230
1, 2964, Tempo, 895522
1, 2976, Tempo, 789473
1, 3000, Tempo, 923076
1, 3024, Tempo, 821917
1, 3048, Tempo, 952380
1, 3060, Tempo, 1250000
1, 3072, Tempo, 1463414
1, 3078, Tempo, 952380
1, 3084, Tempo, 895522
1, 3114, Tempo, 952380
1, 3120, Tempo, 1250000
1, 3128, Tempo, 1153846
1, 3130, Tempo, 1071428
1, 3132, Tempo, 895522
1, 3138, Tempo, 952380
1, 3144, Tempo, 869565
1, 3150, Tempo, 1000000
1, 3156, Tempo, 1333333
1, 3162, Tempo, 2307692
1, 3168, Tempo, 1071428
1, 3192, Tempo, 895522
1, 3216, Tempo, 1000000
1, 3240, Tempo, 1250000
1, 3264, Tempo, 1071428
1, 3288, Tempo, 895522
1, 3312, Tempo, 800000
1, 3336, Tempo, 869565
1, 3360, Tempo, 789473
1, 3384, Tempo, 714285
1, 3408, Tempo, 800000
1, 3432, Tempo, 845070
1, 3444, Tempo, 1200000
1, 3456, Tempo, 789473
1, 3480, Tempo, 769230
1, 3504, Tempo, 750000
1, 3528, Tempo, 895522
1, 3576, Tempo, 821917
1, 3600, Tempo, 895522
1, 3624, Tempo, 5454545
1, 3648, Tempo, 1071428
1, 3672, Tempo, 952380
1, 3684, Tempo, 1153846
1, 3696, Tempo, 895522
1, 3706, Tempo, 800000
1, 3716, Tempo, 845070
1, 3725, Tempo, 895522
1, 3734, Tempo, 1250000
1, 3768, Tempo, 1071428
1, 3816, Tempo, 1621621
1, 3824, Tempo, 1304347
1, 3832, Tempo, 1621621
1, 3840, Tempo, 1153846
1, 3864, Tempo, 983606
1, 3888, Tempo, 845070
1, 3912, Tempo, 800000
1, 3936, Tempo, 789473
1, 3984, Tempo, 869565
1, 4008, Tempo, 1034482
1, 4056, Tempo, 789473
1, 4080, Tempo, 714285
1, 4104, Tempo, 869565
1, 4128, Tempo, 952380
1, 4152, Tempo, 769230
1, 4200, Tempo, 821917
1, 4224, Tempo, 895522
1, 4248, Tempo, 731707
1, 4272, Tempo, 714285
1, 4296, Tempo, 845070
1, 4320, Tempo, 821917
1, 4344, Tempo, 714285
1, 4392, Tempo, 952380
1, 4416, Tempo, 800000
1, 4440, Tempo, 750000
1, 4464, Tempo, 697674
1, 4488, Tempo, 800000
1, 4512, Tempo, 895522
1, 4536, Tempo, 697674
1, 4548, Tempo, 731707
1, 4560, Tempo, 769230
1, 4576, Tempo, 666666
1, 4592, Tempo, 800000
1, 4608, Tempo, 845070
1, 4632, Tempo, 697674
1, 4644, Tempo, 731707
1, 4656, Tempo, 697674
1, 4672, Tempo, 645161
1, 4688, Tempo, 769230
1, 4704, Tempo, 895522
1, 4728, Tempo, 769230
1, 4752, Tempo, 1000000
1, 4776, Tempo, 1153846
1, 4800, Tempo, 895522
1, 4824, Tempo, 769230
1, 4848, Tempo, 731707
1, 4872, Tempo, 895522
1, 4896, Tempo, 800000
1, 4920, Tempo, 731707
1, 4944, Tempo, 697674
1, 4968, Tempo, 769230
1, 4992, Tempo, 800000
1, 5016, Tempo, 731707
1, 5040, Tempo, 800000
1, 5064, Tempo, 952380
1, 5088, Tempo, 895522
1, 5112, Tempo, 731707
1, 5136, Tempo, 769230
1, 5160, Tempo, 1000000
1, 5184, Tempo, 952380
1, 5208, Tempo, 845070
1, 5220, Tempo, 769230
1, 5228, Tempo, 731707
1, 5232, Tempo, 697674
1, 5244, Tempo, 769230
1, 5256, Tempo, 697674
1, 5268, Tempo, 800000
1, 5280, Tempo, 895522
1, 5304, Tempo, 769230
1, 5328, Tempo, 800000
1, 5352, Tempo, 1071428
1, 5376, Tempo, 845070
1, 5396, Tempo, 1621621
1, 5400, Tempo, 1071428
1, 5405, Tempo, 1000000
1, 5410, Tempo, 983606
1, 5415, Tempo, 1250000
1, 5419, Tempo, 1621621
1, 5424, Tempo, 1071428
1, 5448, Tempo, 895522
1, 5460, Tempo, 952380
1, 5472, Tempo, 895522
1, 5496, Tempo, 769230
1, 5544, Tempo, 845070
1, 5568, Tempo, 895522
1, 5592, Tempo, 1000000
1, 5604, Tempo, 895522
1, 5616, Tempo, 845070
1, 5628, Tempo, 1000000
1, 5640, Tempo, 952380
1, 5652, Tempo, 1071428
1, 5688, Tempo, 769230
1, 5712, Tempo, 845070
1, 5736, Tempo, 1333333
1, 5772, Tempo, 571428
1, 5784, Tempo, 1621621
1, 5789, Tempo, 1071428
1, 5794, Tempo, 1000000
1, 5799, Tempo, 1250000
1, 5803, Tempo, 2727272
1, 5808, Tempo, 1621621
1, 5832, Tempo, 1071428
1, 5844, Tempo, 1250000
1, 5856, Tempo, 983606
1, 5880, Tempo, 1153846
1, 5904, Tempo, 1071428
1, 5928, Tempo, 1333333
1, 5976, Tempo, 1250000
1, 6000, Tempo, 895522
1, 6024, Tempo, 769230
1, 6048, Tempo, 731707
1, 6072, Tempo, 697674
1, 6096, Tempo, 731707
1, 6120, Tempo, 697674
1, 6168, Tempo, 666666
1, 6192, Tempo, 769230
1, 6216, Tempo, 731707
1, 6240, Tempo, 697674
1, 6264, Tempo, 666666
1, 6288, Tempo, 731707
1, 6312, Tempo, 800000
1, 6336, Tempo, 952380
1, 6360, Tempo, 1333333
1, 6384, Tempo, 895522
1, 6408, Tempo, 769230
1, 6432, Tempo, 731707
1, 6456, Tempo, 697674
1, 6480, Tempo, 731707
1, 6504, Tempo, 697674
1, 6528, Tempo, 714285
1, 6552, Tempo, 681818
1, 6576, Tempo, 731707
1, 6600, Tempo, 769230
1, 6648, Tempo, 731707
1, 6672, Tempo, 750000
1, 6696, Tempo, 895522
1, 6720, Tempo, 800000
1, 6744, Tempo, 895522
1, 6768, Tempo, 731707
1, 6792, Tempo, 895522
1, 6816, Tempo, 800000
1, 6840, Tempo, 952380
1, 6864, Tempo, 1250000
1, 6888, Tempo, 5454545
1, 6912, Tempo, 1621621
1, 6936, Tempo, 1000000
1, 6948, Tempo, 1153846
1, 6960, Tempo, 895522
1, 6970, Tempo, 800000
1, 6980, Tempo, 845070
1, 6989, Tempo, 895522
1, 6998, Tempo, 1250000
1, 7008, Tempo, 1333333
1, 7032, Tempo, 1071428
1, 7056, Tempo, 952380
1, 7080, Tempo, 1333333
1, 7104, Tempo, 1071428
1, 7128, Tempo, 800000
1, 7152, Tempo, 769230
1, 7176, Tempo, 845070
1, 7200, Tempo, 769230
1, 7224, Tempo, 731707
1, 7272, Tempo, 800000
1, 7320, Tempo, 750000
1, 7344, Tempo, 714285
1, 7368, Tempo, 769230
1, 7392, Tempo, 821917
1, 7416, Tempo, 789473
1, 7440, Tempo, 821917
1, 7464, Tempo, 1250000
1, 7488, Tempo, 1153846
1, 7504, Tempo, 845070
1, 7520, Tempo, 1333333
1, 7536, Tempo, 1000000
1, 7560, Tempo, 1071428
1, 7584, Tempo, 1818181
1, 7620, Tempo, 1250000
1, 7632, Tempo, 1071428
1, 7644, Tempo, 1034482
1, 7656, Tempo, 1071428
1, 7668, Tempo, 1621621
1, 7680, Tempo, 2000000
1, 7684, Tempo, 1333333
1, 7688, Tempo, 952380
1, 7692, Tempo, 895522
1, 7696, Tempo, 869565
1, 7700, Tempo, 845070
1, 7768, Tempo, 869565
1, 7784, Tempo, 895522
1, 7800, Tempo, 923076
1, 7816, Tempo, 952380
1, 7824, Tempo, 983606
1, 7832, Tempo, 1000000
1, 7836, Tempo, 1071428
1, 7840, Tempo, 1153846
1, 7844, Tempo, 2727272
1, 7850, Tempo, 1463414
1, 7860, Tempo, 2307692
1, 7870, Tempo, 4000000
1, 7876, Tempo, 3333333
1, 7882, Tempo, 4615384
1, 7888, Tempo, 1333333
1, 7912, Tempo, 952380
1, 7936, Tempo, 869565
1, 7960, Tempo, 821917
1, 7984, Tempo, 769230
1, 8032, Tempo, 845070
1, 8056, Tempo, 952380
1, 8080, Tempo, 1034482
1, 8104, Tempo, 821917
1, 8128, Tempo, 750000
1, 8152, Tempo, 923076
1, 8176, Tempo, 952380
1, 8200, Tempo, 789473
1, 8248, Tempo, 821917
1, 8272, Tempo, 923076
1, 8296, Tempo, 750000
1, 8320, Tempo, 731707
1, 8344, Tempo, 845070
1, 8368, Tempo, 821917
1, 8392, Tempo, 714285
1, 8440, Tempo, 952380
1, 8464, Tempo, 800000
1, 8488, Tempo, 750000
1, 8512, Tempo, 697674
1, 8536, Tempo, 800000
1, 8560, Tempo, 895522
1, 8584, Tempo, 697674
1, 8596, Tempo, 731707
1, 8608, Tempo, 769230
1, 8624, Tempo, 666666
1, 8640, Tempo, 800000
1, 8656, Tempo, 845070
1, 8680, Tempo, 697674
1, 8692, Tempo, 731707
1, 8704, Tempo, 697674
1, 8720, Tempo, 645161
1, 8736, Tempo, 769230
1, 8752, Tempo, 895522
1, 8776, Tempo, 769230
1, 8800, Tempo, 1000000
1, 8824, Tempo, 1153846
1, 8848, Tempo, 895522
1, 8872, Tempo, 769230
1, 8896, Tempo, 731707
1, 8920, Tempo, 895522
1, 8944, Tempo, 800000
1, 8968, Tempo, 731707
1, 8992, Tempo, 697674
1, 9016, Tempo, 769230
1, 9040, Tempo, 800000
1, 9064, Tempo, 731707
1, 9088, Tempo, 800000
1, 9112, Tempo, 952380
1, 9136, Tempo, 895522
1, 9160, Tempo, 731707
1, 9184, Tempo, 769230
1, 9208, Tempo, 1000000
1, 9232, Tempo, 952380
1, 9256, Tempo, 845070
1, 9268, Tempo, 769230
1, 9276, Tempo, 731707
1, 9280, Tempo, 697674
1, 9292, Tempo, 769230
1, 9304, Tempo, 697674
1, 9316, Tempo, 800000
1, 9328, Tempo, 895522
1, 9352, Tempo, 769230
1, 9376, Tempo, 800000
1, 9400, Tempo, 1071428
1, 9424, Tempo, 845070
1, 9444, Tempo, 1621621
1, 9448, Tempo, 1071428
1, 9453, Tempo, 1000000
1, 9458, Tempo, 983606
1, 9463, Tempo, 1250000
1, 9467, Tempo, 1621621
1, 9472, Tempo, 1071428
1, 9496, Tempo, 895522
1, 9508, Tempo, 952380
1, 9520, Tempo, 895522
1, 9544, Tempo, 769230
1, 9592, Tempo, 845070
1, 9616, Tempo, 895522
1, 9640, Tempo, 1000000
1, 9652, Tempo, 895522
1, 9664, Tempo, 845070
1, 9676, Tempo, 1000000
1, 9688, Tempo, 952380
1, 9700, Tempo, 1071428
1, 9736, Tempo, 769230
1, 9760, Tempo, 845070
1, 9784, Tempo, 1333333
1, 9820, Tempo, 571428
1, 9832, Tempo, 1621621
1, 9837, Tempo, 1071428
1, 9842, Tempo, 1000000
1, 9847, Tempo, 1250000
1, 9851, Tempo, 2727272
1, 9856, Tempo, 1621621
1, 9880, Tempo, 1071428
1, 9892, Tempo, 1250000
1, 9904, Tempo, 983606
1, 9928, Tempo, 1153846
1, 9952, Tempo, 1071428
1, 9976, Tempo, 1333333
1, 10024, Tempo, 1250000
1, 10048, Tempo, 895522
1, 10072, Tempo, 769230
1, 10096, Tempo, 731707
1, 10120, Tempo, 697674
1, 10144, Tempo, 731707
1, 10168, Tempo, 697674
1, 10216, Tempo, 666666
1, 10240, Tempo, 769230
1, 10264, Tempo, 731707
1, 10288, Tempo, 697674
1, 10312, Tempo, 666666
1, 10336, Tempo, 731707
1, 10360, Tempo, 800000
1, 10384, Tempo, 952380
1, 10408, Tempo, 1333333
1, 10432, Tempo, 895522
1, 10456, Tempo, 769230
1, 10480, Tempo, 731707
1, 10504, Tempo, 697674
1, 10528, Tempo, 731707
1, 10552, Tempo, 697674
1, 10576, Tempo, 714285
1, 10600, Tempo, 681818
1, 10624, Tempo, 731707
1, 10648, Tempo, 769230
1, 10696, Tempo, 731707
1, 10720, Tempo, 750000
1, 10744, Tempo, 895522
1, 10768, Tempo, 800000
1, 10792, Tempo, 895522
1, 10816, Tempo, 731707
1, 10840, Tempo, 895522
1, 10864, Tempo, 800000
1, 10888, Tempo, 952380
1, 10912, Tempo, 1250000
1, 10936, Tempo, 5454545
1, 10960, Tempo, 1621621
1, 10984, Tempo, 1000000
1, 10996, Tempo, 1153846
1, 11008, Tempo, 895522
1, 11018, Tempo, 800000
1, 11028, Tempo, 845070
1, 11037, Tempo, 895522
1, 11046, Tempo, 1250000
1, 11056, Tempo, 1333333
1, 11080, Tempo, 1071428
1, 11104, Tempo, 952380
1, 11128, Tempo, 1333333
1, 11152, Tempo, 1071428
1, 11176, Tempo, 800000
1, 11200, Tempo, 769230
1, 11224, Tempo, 845070
1, 11248, Tempo, 769230
1, 11272, Tempo, 731707
1, 11320, Tempo, 800000
1, 11368, Tempo, 750000
1, 11392, Tempo, 714285
1, 11416, Tempo, 769230
1, 11440, Tempo, 821917
1, 11464, Tempo, 789473
1, 11488, Tempo, 821917
1, 11512, Tempo, 1250000
1, 11536, Tempo, 1153846
1, 11552, Tempo, 845070
1, 11568, Tempo, 1333333
1, 11584, Tempo, 952380
1, 11608, Tempo, 1621621
1, 11632, Tempo, 845070
1, 11692, Tempo, 1250000
1, 11704, Tempo, 895522
1, 11716, Tempo, 697674
1, 11728, Tempo, 645161
1, 11740, Tempo, 618556
1, 11764, Tempo, 631578
1, 11776, Tempo, 645161
1, 11788, Tempo, 681818
1, 11800, Tempo, 714285
1, 11812, Tempo, 800000
1, 11824, Tempo, 1153846
1, 11836, Tempo, 2000000
1, 11840, Tempo, 1333333
1, 11844, Tempo, 952380
1, 11848, Tempo, 895522
1, 11852, Tempo, 869565
1, 11856, Tempo, 845070
1, 11924, Tempo, 869565
1, 11940, Tempo, 895522
1, 11956, Tempo, 923076
1, 11972, Tempo, 952380
1, 11980, Tempo, 983606
1, 11988, Tempo, 1000000
1, 11992, Tempo, 1034482
1, 11996, Tempo, 1071428
1, 12000, Tempo, 1153846
1, 12004, Tempo, 3000000
1, 12012, Tempo, 3333333
1, 12020, Tempo, 4615384
1, 12056, Tempo, 3333333
1, 12060, Tempo, 2000000
1, 12064, Tempo, 5454545
1, 12068, Tempo, 3333333
1, 12080, Tempo, 1395348
1, 12104, Tempo, 1000000
1, 12120, Tempo, 952380
1, 12136, Tempo, 1071428
1, 12152, Tempo, 1250000
1, 12176, Tempo, 1071428
1, 12216, Tempo, 1153846
1, 12232, Tempo, 1621621
1, 12392, Tempo, 3333333
1, 12404, Tempo, 1250000
1, 12410, Tempo, 895522
1, 12416, Tempo, 800000
1, 12422, Tempo, 769230
1, 12434, Tempo, 800000
1, 12440, Tempo, 895522
1, 12488, Tempo, 2307692
1, 12536, Tempo, 1333333
1, 12596, Tempo, 1250000
1, 12602, Tempo, 895522
1, 12608, Tempo, 800000
1, 12614, Tempo, 769230
1, 12620, Tempo, 800000
1, 12626, Tempo, 952380
1, 12632, Tempo, 800000
1, 12680, Tempo, 1818181
1, 12728, Tempo, 2307692
1, 12776, Tempo, 1071428
1, 12800, Tempo, 1463414
1, 12824, Tempo, 1538461
1, 12848, Tempo, 769230
1, 12872, Tempo, 594059
1, 12896, Tempo, 571428
1, 12920, Tempo, 458015
1, 12944, Tempo, 382165
1, 12968, Tempo, 372670
1, 12992, Tempo, 400000
1, 13016, Tempo, 800000
1, 13064, Tempo, 1000000
1, 13100, Tempo, 535714
1, 13112, Tempo, 1621621
1, 13130, Tempo, 1071428
1, 13136, Tempo, 800000
1, 13142, Tempo, 697674
1, 13148, Tempo, 666666
1, 13154, Tempo, 800000
1, 13160, Tempo, 2307692
1, 13184, Tempo, 1621621
1, 13196, Tempo, 1153846
1, 13208, Tempo, 2000000
1, 13232, Tempo, 2307692
1, 13256, Tempo, 1621621
1, 13304, Tempo, 1153846
1, 13400, Tempo, 2000000
1, 13496, Tempo, 5454545
1, 13512, Tempo, 2727272
1, 13528, Tempo, 1463414
1, 13544, Tempo, 1071428
1, 13560, Tempo, 1000000
1, 13576, Tempo, 1071428
1, 13592, Tempo, 1463414
1, 13640, Tempo, 1818181
1, 13688, Tempo, 1250000
1, 13736, Tempo, 1463414
1, 13832, Tempo, 1304347
1, 13880, Tempo, 1333333
1, 13928, Tempo, 1621621
1, 14024, Tempo, 2000000
1, 14072, Tempo, 1818181
1, 14072, End_track
2, 0, Start_track
2, 0, Title_t, "RIGHT HAND"
2, 0, MIDI_port, 0
2, 4, System_exclusive, 0A, 41, 10, 42, 12, 40, 00, 7F, 00, 41, F7
2, 6, System_exclusive, 0A, 41, 10, 42, 12, 40, 00, 04, 7F, 3D, F7
2, 10, System_exclusive, 0A, 41, 10, 42, 12, 40, 01, 30, 04, 0B, F7
2, 12, System_exclusive, 0A, 41, 10, 42, 12, 40, 01, 31, 03, 0B, F7
2, 14, System_exclusive, 0A, 41, 10, 42, 12, 40, 01, 33, 6E, 1E, F7
2, 16, System_exclusive, 0A, 41, 10, 42, 12, 40, 01, 34, 3C, 4F, F7
2, 18, System_exclusive, 0A, 41, 10, 42, 12, 40, 01, 38, 02, 05, F7
2, 20, System_exclusive, 0A, 41, 10, 42, 12, 40, 01, 3A, 64, 21, F7
2, 22, System_exclusive, 0A, 41, 10, 42, 12, 40, 01, 3D, 07, 7B, F7
2, 24, System_exclusive, 0A, 41, 10, 42, 12, 40, 01, 3E, 08, 79, F7
2, 26, Control_c, 0, 0, 0
2, 28, Control_c, 0, 32, 1
2, 30, Program_c, 0, 0
2, 32, Control_c, 0, 7, 120
2, 34, Control_c, 0, 11, 120
2, 36, Control_c, 0, 91, 40
2, 38, Control_c, 0, 93, 0
2, 40, Control_c, 0, 10, 64
2, 42, Control_c, 0, 99, 1
2, 44, Control_c, 0, 98, 8
2, 46, Control_c, 0, 6, 64
2, 48, Control_c, 0, 98, 9
2, 50, Control_c, 0, 6, 64
2, 52, Control_c, 0, 98, 10
2, 54, Control_c, 0, 6, 64
2, 56, Control_c, 0, 98, 32
2, 58, Control_c, 0, 6, 64
2, 60, Control_c, 0, 98, 33
2, 62, Control_c, 0, 6, 64
2, 64, Control_c, 0, 98, 99
2, 66, Control_c, 0, 6, 64
2, 68, Control_c, 0, 98, 100
2, 70, Control_c, 0, 6, 80
2, 72, Control_c, 0, 98, 102
2, 74, Control_c, 0, 6, 64
2, 192, Note_on_c, 0, 75, 45
2, 240, Note_on_c, 0, 75, 0
2, 240, Note_on_c, 0, 76, 49
2, 276, Note_on_c, 0, 76, 0
2, 276, Note_on_c, 0, 75, 47
2, 288, Note_on_c, 0, 75, 0
2, 288, Note_on_c, 0, 73, 45
2, 336, Note_on_c, 0, 73, 0
2, 336, Note_on_c, 0, 75, 47
2, 384, Note_on_c, 0, 75, 0
2, 384, Note_on_c, 0, 71, 38
2, 444, Note_on_c, 0, 71, 0
2, 444, Note_on_c, 0, 75, 40
2, 456, Note_on_c, 0, 75, 0
2, 456, Note_on_c, 0, 83, 42
2, 468, Note_on_c, 0, 83, 0
2, 468, Note_on_c, 0, 80, 39
2, 480, Note_on_c, 0, 80, 0
2, 480, Note_on_c, 0, 78, 38
2, 552, Note_on_c, 0, 78, 0
2, 552, Note_on_c, 0, 76, 36
2, 576, Note_on_c, 0, 76, 0
2, 576, Note_on_c, 0, 75, 45
2, 598, Note_on_c, 0, 75, 0
2, 600, Note_on_c, 0, 75, 45
2, 608, Note_on_c, 0, 75, 0
2, 608, Note_on_c, 0, 76, 48
2, 616, Note_on_c, 0, 76, 0
2, 616, Note_on_c, 0, 78, 51
2, 624, Note_on_c, 0, 78, 0
2, 624, Note_on_c, 0, 76, 49
2, 660, Note_on_c, 0, 76, 0
2, 660, Note_on_c, 0, 75, 47
2, 672, Note_on_c, 0, 75, 0
2, 672, Note_on_c, 0, 73, 45
2, 720, Note_on_c, 0, 73, 0
2, 720, Note_on_c, 0, 75, 47
2, 756, Note_on_c, 0, 75, 0
2, 756, Note_on_c, 0, 70, 43
2, 766, Note_on_c, 0, 70, 0
2, 768, Note_on_c, 0, 71, 45
2, 780, Note_on_c, 0, 71, 0
2, 780, Note_on_c, 0, 73, 47
2, 786, Note_on_c, 0, 73, 0
2, 786, Note_on_c, 0, 71, 45
2, 790, Note_on_c, 0, 71, 0
2, 790, Note_on_c, 0, 73, 47
2, 794, Note_on_c, 0, 73, 0
2, 794, Note_on_c, 0, 71, 45
2, 804, Note_on_c, 0, 71, 0
2, 804, Note_on_c, 0, 70, 43
2, 816, Note_on_c, 0, 70, 0
2, 816, Note_on_c, 0, 71, 45
2, 828, Note_on_c, 0, 71, 0
2, 828, Note_on_c, 0, 75, 49
2, 840, Note_on_c, 0, 75, 0
2, 840, Note_on_c, 0, 83, 42
2, 852, Note_on_c, 0, 83, 0
2, 852, Note_on_c, 0, 80, 41
2, 864, Note_on_c, 0, 80, 0
2, 864, Note_on_c, 0, 78, 40
2, 936, Note_on_c, 0, 78, 0
2, 936, Note_on_c, 0, 76, 42
2, 958, Note_on_c, 0, 76, 0
2, 960, Note_on_c, 0, 75, 45
2, 1008, Note_on_c, 0, 75, 0
2, 1008, Note_on_c, 0, 74, 48
2, 1044, Note_on_c, 0, 74, 0
2, 1044, Note_on_c, 0, 75, 51
2, 1056, Note_on_c, 0, 75, 0
2, 1056, Note_on_c, 0, 77, 54
2, 1092, Note_on_c, 0, 77, 0
2, 1092, Note_on_c, 0, 77, 52
2, 1098, Note_on_c, 0, 77, 0
2, 1098, Note_on_c, 0, 80, 56
2, 1104, Note_on_c, 0, 80, 0
2, 1104, Note_on_c, 0, 78, 62
2, 1140, Note_on_c, 0, 78, 0
2, 1140, Note_on_c, 0, 77, 61
2, 1152, Note_on_c, 0, 77, 0
2, 1152, Note_on_c, 0, 75, 63
2, 1200, Note_on_c, 0, 75, 0
2, 1200, Note_on_c, 0, 70, 68
2, 1248, Note_on_c, 0, 70, 0
2, 1248, Note_on_c, 0, 73, 70
2, 1296, Note_on_c, 0, 73, 0
2, 1296, Note_on_c, 0, 68, 54
2, 1330, Note_on_c, 0, 68, 0
2, 1380, Note_on_c, 0, 71, 32
2, 1392, Note_on_c, 0, 71, 0
2, 1392, Note_on_c, 0, 71, 36
2, 1402, Note_on_c, 0, 71, 0
2, 1402, Note_on_c, 0, 73, 40
2, 1412, Note_on_c, 0, 73, 0
2, 1412, Note_on_c, 0, 71, 39
2, 1421, Note_on_c, 0, 71, 0
2, 1421, Note_on_c, 0, 70, 38
2, 1430, Note_on_c, 0, 70, 0
2, 1430, Note_on_c, 0, 71, 42
2, 1440, Note_on_c, 0, 71, 0
2, 1440, Note_on_c, 0, 75, 44
2, 1464, Note_on_c, 0, 75, 0
2, 1464, Note_on_c, 0, 75, 42
2, 1512, Note_on_c, 0, 75, 0
2, 1512, Note_on_c, 0, 73, 34
2, 1536, Note_on_c, 0, 73, 0
2, 1536, Note_on_c, 0, 71, 34
2, 1584, Note_on_c, 0, 80, 46
2, 1630, Note_on_c, 0, 71, 0
2, 1632, Note_on_c, 0, 80, 0
2, 1632, Note_on_c, 0, 70, 30
2, 1632, Note_on_c, 0, 73, 50
2, 1680, Note_on_c, 0, 73, 0
2, 1680, Note_on_c, 0, 70, 0
2, 1680, Note_on_c, 0, 69, 30
2, 1680, Note_on_c, 0, 75, 54
2, 1722, Note_on_c, 0, 78, 48
2, 1728, Note_on_c, 0, 78, 0
2, 1728, Note_on_c, 0, 75, 0
2, 1728, Note_on_c, 0, 69, 0
2, 1728, Note_on_c, 0, 70, 30
2, 1728, Note_on_c, 0, 76, 44
2, 1776, Note_on_c, 0, 76, 0
2, 1776, Note_on_c, 0, 75, 42
2, 1800, Note_on_c, 0, 75, 0
2, 1800, Note_on_c, 0, 73, 40
2, 1824, Note_on_c, 0, 73, 0
2, 1824, Note_on_c, 0, 70, 0
2, 1824, Note_on_c, 0, 66, 28
2, 1824, Note_on_c, 0, 71, 34
2, 1872, Note_on_c, 0, 71, 0
2, 1872, Note_on_c, 0, 66, 0
2, 1872, Note_on_c, 0, 68, 26
2, 1872, Note_on_c, 0, 73, 42
2, 1920, Note_on_c, 0, 73, 0
2, 1920, Note_on_c, 0, 68, 0
2, 1920, Note_on_c, 0, 70, 36
2, 1966, Note_on_c, 0, 70, 0
2, 1968, Note_on_c, 0, 71, 34
2, 1968, Note_on_c, 0, 80, 50
2, 2016, Note_on_c, 0, 80, 0
2, 2016, Note_on_c, 0, 71, 0
2, 2016, Note_on_c, 0, 70, 40
2, 2016, Note_on_c, 0, 73, 56
2, 2064, Note_on_c, 0, 73, 0
2, 2064, Note_on_c, 0, 70, 0
2, 2064, Note_on_c, 0, 69, 44
2, 2064, Note_on_c, 0, 75, 60
2, 2106, Note_on_c, 0, 78, 56
2, 2112, Note_on_c, 0, 78, 0
2, 2112, Note_on_c, 0, 75, 0
2, 2112, Note_on_c, 0, 69, 0
2, 2112, Note_on_c, 0, 70, 46
2, 2112, Note_on_c, 0, 76, 52
2, 2160, Note_on_c, 0, 76, 0
2, 2160, Note_on_c, 0, 75, 57
2, 2184, Note_on_c, 0, 75, 0
2, 2184, Note_on_c, 0, 73, 60
2, 2208, Note_on_c, 0, 73, 0
2, 2208, Note_on_c, 0, 70, 0
2, 2208, Note_on_c, 0, 68, 42
2, 2208, Note_on_c, 0, 71, 50
2, 2256, Note_on_c, 0, 71, 0
2, 2256, Note_on_c, 0, 68, 0
2, 2256, Note_on_c, 0, 61, 36
2, 2256, Note_on_c, 0, 68, 42
2, 2256, Note_on_c, 0, 73, 58
2, 2296, Note_on_c, 0, 61, 0
2, 2296, Note_on_c, 0, 61, 36
2, 2300, Note_on_c, 0, 68, 0
2, 2300, Note_on_c, 0, 66, 40
2, 2304, Note_on_c, 0, 73, 0
2, 2304, Note_on_c, 0, 73, 52
2, 2352, Note_on_c, 0, 73, 0
2, 2352, Note_on_c, 0, 66, 0
2, 2352, Note_on_c, 0, 61, 0
2, 2352, Note_on_c, 0, 64, 35
2, 2352, Note_on_c, 0, 75, 45
2, 2388, Note_on_c, 0, 68, 34
2, 2400, Note_on_c, 0, 68, 0
2, 2400, Note_on_c, 0, 75, 0
2, 2400, Note_on_c, 0, 66, 40
2, 2400, Note_on_c, 0, 73, 50
2, 2448, Note_on_c, 0, 73, 0
2, 2448, Note_on_c, 0, 64, 0
2, 2448, Note_on_c, 0, 64, 24
2, 2448, Note_on_c, 0, 69, 28
2, 2448, Note_on_c, 0, 74, 38
2, 2480, Note_on_c, 0, 63, 28
2, 2484, Note_on_c, 0, 63, 0
2, 2484, Note_on_c, 0, 63, 26
2, 2488, Note_on_c, 0, 63, 0
2, 2488, Note_on_c, 0, 66, 0
2, 2488, Note_on_c, 0, 66, 30
2, 2492, Note_on_c, 0, 66, 0
2, 2492, Note_on_c, 0, 71, 34
2, 2496, Note_on_c, 0, 71, 0
2, 2496, Note_on_c, 0, 74, 0
2, 2496, Note_on_c, 0, 69, 0
2, 2496, Note_on_c, 0, 64, 0
2, 2496, Note_on_c, 0, 75, 40
2, 2544, Note_on_c, 0, 75, 0
2, 2544, Note_on_c, 0, 76, 44
2, 2580, Note_on_c, 0, 76, 0
2, 2580, Note_on_c, 0, 75, 42
2, 2592, Note_on_c, 0, 75, 0
2, 2592, Note_on_c, 0, 73, 40
2, 2640, Note_on_c, 0, 73, 0
2, 2640, Note_on_c, 0, 75, 42
2, 2688, Note_on_c, 0, 75, 0
2, 2688, Note_on_c, 0, 71, 38
2, 2748, Note_on_c, 0, 71, 0
2, 2748, Note_on_c, 0, 75, 36
2, 2760, Note_on_c, 0, 75, 0
2, 2760, Note_on_c, 0, 83, 38
2, 2772, Note_on_c, 0, 83, 0
2, 2772, Note_on_c, 0, 80, 37
2, 2784, Note_on_c, 0, 80, 0
2, 2784, Note_on_c, 0, 78, 36
2, 2856, Note_on_c, 0, 78, 0
2, 2856, Note_on_c, 0, 76, 36
2, 2880, Note_on_c, 0, 76, 0
2, 2880, Note_on_c, 0, 75, 41
2, 2902, Note_on_c, 0, 75, 0
2, 2904, Note_on_c, 0, 75, 45
2, 2912, Note_on_c, 0, 75, 0
2, 2912, Note_on_c, 0, 76, 48
2, 2920, Note_on_c, 0, 76, 0
2, 2920, Note_on_c, 0, 78, 51
2, 2928, Note_on_c, 0, 78, 0
2, 2928, Note_on_c, 0, 76, 49
2, 2964, Note_on_c, 0, 76, 0
2, 2964, Note_on_c, 0, 75, 47
2, 2976, Note_on_c, 0, 75, 0
2, 2976, Note_on_c, 0, 73, 45
2, 3024, Note_on_c, 0, 73, 0
2, 3024, Note_on_c, 0, 75, 44
2, 3060, Note_on_c, 0, 75, 0
2, 3060, Note_on_c, 0, 70, 40
2, 3070, Note_on_c, 0, 70, 0
2, 3072, Note_on_c, 0, 71, 39
2, 3076, Note_on_c, 0, 71, 0
2, 3078, Note_on_c, 0, 73, 41
2, 3082, Note_on_c, 0, 73, 0
2, 3084, Note_on_c, 0, 71, 40
2, 3088, Note_on_c, 0, 71, 0
2, 3090, Note_on_c, 0, 70, 39
2, 3094, Note_on_c, 0, 70, 0
2, 3096, Note_on_c, 0, 71, 41
2, 3100, Note_on_c, 0, 71, 0
2, 3102, Note_on_c, 0, 75, 43
2, 3106, Note_on_c, 0, 75, 0
2, 3108, Note_on_c, 0, 83, 45
2, 3112, Note_on_c, 0, 83, 0
2, 3114, Note_on_c, 0, 80, 43
2, 3118, Note_on_c, 0, 80, 0
2, 3120, Note_on_c, 0, 78, 41
2, 3126, Note_on_c, 0, 78, 0
2, 3128, Note_on_c, 0, 83, 42
2, 3130, Note_on_c, 0, 83, 0
2, 3130, Note_on_c, 0, 85, 44
2, 3132, Note_on_c, 0, 85, 0
2, 3132, Note_on_c, 0, 83, 43
2, 3136, Note_on_c, 0, 83, 0
2, 3138, Note_on_c, 0, 82, 42
2, 3142, Note_on_c, 0, 82, 0
2, 3144, Note_on_c, 0, 83, 44
2, 3148, Note_on_c, 0, 83, 0
2, 3150, Note_on_c, 0, 87, 46
2, 3154, Note_on_c, 0, 87, 0
2, 3156, Note_on_c, 0, 95, 44
2, 3160, Note_on_c, 0, 95, 0
2, 3162, Note_on_c, 0, 92, 42
2, 3166, Note_on_c, 0, 92, 0
2, 3168, Note_on_c, 0, 90, 40
2, 3174, Note_on_c, 0, 90, 0
2, 3240, Note_on_c, 0, 76, 42
2, 3264, Note_on_c, 0, 76, 0
2, 3264, Note_on_c, 0, 75, 45
2, 3312, Note_on_c, 0, 75, 0
2, 3312, Note_on_c, 0, 74, 48
2, 3348, Note_on_c, 0, 74, 0
2, 3348, Note_on_c, 0, 75, 56
2, 3360, Note_on_c, 0, 75, 0
2, 3360, Note_on_c, 0, 77, 56
2, 3396, Note_on_c, 0, 77, 0
2, 3396, Note_on_c, 0, 77, 54
2, 3402, Note_on_c, 0, 77, 0
2, 3402, Note_on_c, 0, 80, 58
2, 3408, Note_on_c, 0, 80, 0
2, 3408, Note_on_c, 0, 78, 66
2, 3444, Note_on_c, 0, 78, 0
2, 3444, Note_on_c, 0, 77, 65
2, 3456, Note_on_c, 0, 77, 0
2, 3456, Note_on_c, 0, 75, 63
2, 3504, Note_on_c, 0, 75, 0
2, 3504, Note_on_c, 0, 70, 66
2, 3552, Note_on_c, 0, 70, 0
2, 3552, Note_on_c, 0, 73, 68
2, 3600, Note_on_c, 0, 73, 0
2, 3600, Note_on_c, 0, 68, 56
2, 3634, Note_on_c, 0, 68, 0
2, 3684, Note_on_c, 0, 71, 30
2, 3696, Note_on_c, 0, 71, 0
2, 3696, Note_on_c, 0, 71, 34
2, 3706, Note_on_c, 0, 71, 0
2, 3706, Note_on_c, 0, 73, 38
2, 3716, Note_on_c, 0, 73, 0
2, 3716, Note_on_c, 0, 71, 37
2, 3725, Note_on_c, 0, 71, 0
2, 3725, Note_on_c, 0, 70, 36
2, 3734, Note_on_c, 0, 70, 0
2, 3734, Note_on_c, 0, 71, 40
2, 3744, Note_on_c, 0, 71, 0
2, 3744, Note_on_c, 0, 75, 40
2, 3768, Note_on_c, 0, 75, 0
2, 3768, Note_on_c, 0, 75, 42
2, 3824, Note_on_c, 0, 75, 0
2, 3824, Note_on_c, 0, 73, 34
2, 3832, Note_on_c, 0, 73, 0
2, 3832, Note_on_c, 0, 71, 33
2, 3840, Note_on_c, 0, 71, 0
2, 3840, Note_on_c, 0, 71, 34
2, 3886, Note_on_c, 0, 71, 0
2, 3888, Note_on_c, 0, 78, 44
2, 3936, Note_on_c, 0, 78, 0
2, 3936, Note_on_c, 0, 76, 56
2, 3984, Note_on_c, 0, 76, 0
2, 3984, Note_on_c, 0, 75, 60
2, 4030, Note_on_c, 0, 75, 0
2, 4032, Note_on_c, 0, 73, 52
2, 4128, Note_on_c, 0, 73, 0
2, 4128, Note_on_c, 0, 75, 44
2, 4152, Note_on_c, 0, 75, 0
2, 4152, Note_on_c, 0, 73, 52
2, 4176, Note_on_c, 0, 73, 0
2, 4176, Note_on_c, 0, 71, 50
2, 4200, Note_on_c, 0, 71, 0
2, 4200, Note_on_c, 0, 70, 48
2, 4224, Note_on_c, 0, 70, 0
2, 4224, Note_on_c, 0, 66, 46
2, 4224, Note_on_c, 0, 71, 44
2, 4248, Note_on_c, 0, 66, 0
2, 4248, Note_on_c, 0, 65, 47
2, 4272, Note_on_c, 0, 65, 0
2, 4272, Note_on_c, 0, 71, 0
2, 4272, Note_on_c, 0, 63, 48
2, 4272, Note_on_c, 0, 71, 44
2, 4296, Note_on_c, 0, 63, 0
2, 4296, Note_on_c, 0, 61, 50
2, 4320, Note_on_c, 0, 61, 0
2, 4320, Note_on_c, 0, 71, 0
2, 4320, Note_on_c, 0, 68, 36
2, 4320, Note_on_c, 0, 71, 44
2, 4368, Note_on_c, 0, 71, 0
2, 4368, Note_on_c, 0, 68, 0
2, 4368, Note_on_c, 0, 66, 30
2, 4368, Note_on_c, 0, 70, 38
2, 4414, Note_on_c, 0, 70, 0
2, 4414, Note_on_c, 0, 66, 0
2, 4432, Note_on_c, 0, 73, 52
2, 4436, Note_on_c, 0, 73, 0
2, 4436, Note_on_c, 0, 75, 54
2, 4440, Note_on_c, 0, 75, 0
2, 4440, Note_on_c, 0, 70, 40
2, 4440, Note_on_c, 0, 73, 52
2, 4464, Note_on_c, 0, 73, 0
2, 4464, Note_on_c, 0, 70, 0
2, 4464, Note_on_c, 0, 69, 46
2, 4464, Note_on_c, 0, 72, 58
2, 4488, Note_on_c, 0, 72, 0
2, 4488, Note_on_c, 0, 69, 0
2, 4488, Note_on_c, 0, 70, 48
2, 4488, Note_on_c, 0, 73, 60
2, 4512, Note_on_c, 0, 73, 0
2, 4512, Note_on_c, 0, 70, 0
2, 4512, Note_on_c, 0, 70, 50
2, 4512, Note_on_c, 0, 78, 58
2, 4524, Note_on_c, 0, 78, 0
2, 4524, Note_on_c, 0, 70, 0
2, 4548, Note_on_c, 0, 70, 54
2, 4548, Note_on_c, 0, 73, 60
2, 4558, Note_on_c, 0, 73, 0
2, 4558, Note_on_c, 0, 70, 0
2, 4560, Note_on_c, 0, 70, 48
2, 4560, Note_on_c, 0, 73, 54
2, 4576, Note_on_c, 0, 73, 0
2, 4576, Note_on_c, 0, 70, 0
2, 4576, Note_on_c, 0, 68, 47
2, 4576, Note_on_c, 0, 71, 53
2, 4592, Note_on_c, 0, 71, 0
2, 4592, Note_on_c, 0, 68, 0
2, 4592, Note_on_c, 0, 66, 46
2, 4592, Note_on_c, 0, 70, 52
2, 4606, Note_on_c, 0, 70, 0
2, 4606, Note_on_c, 0, 66, 0
2, 4608, Note_on_c, 0, 66, 48
2, 4608, Note_on_c, 0, 71, 54
2, 4620, Note_on_c, 0, 71, 0
2, 4620, Note_on_c, 0, 66, 0
2, 4644, Note_on_c, 0, 65, 46
2, 4644, Note_on_c, 0, 71, 52
2, 4656, Note_on_c, 0, 71, 0
2, 4656, Note_on_c, 0, 65, 0
2, 4656, Note_on_c, 0, 65, 45
2, 4656, Note_on_c, 0, 71, 51
2, 4672, Note_on_c, 0, 71, 0
2, 4672, Note_on_c, 0, 65, 0
2, 4672, Note_on_c, 0, 63, 43
2, 4672, Note_on_c, 0, 71, 50
2, 4688, Note_on_c, 0, 71, 0
2, 4688, Note_on_c, 0, 63, 0
2, 4688, Note_on_c, 0, 61, 41
2, 4688, Note_on_c, 0, 71, 49
2, 4704, Note_on_c, 0, 71, 0
2, 4704, Note_on_c, 0, 61, 0
2, 4704, Note_on_c, 0, 68, 40
2, 4704, Note_on_c, 0, 71, 46
2, 4752, Note_on_c, 0, 71, 0
2, 4752, Note_on_c, 0, 68, 0
2, 4752, Note_on_c, 0, 66, 36
2, 4752, Note_on_c, 0, 70, 42
2, 4798, Note_on_c, 0, 70, 0
2, 4798, Note_on_c, 0, 66, 0
2, 4872, Note_on_c, 0, 66, 40
2, 4872, Note_on_c, 0, 70, 46
2, 4896, Note_on_c, 0, 70, 0
2, 4896, Note_on_c, 0, 66, 0
2, 4896, Note_on_c, 0, 68, 46
2, 4896, Note_on_c, 0, 71, 52
2, 4920, Note_on_c, 0, 71, 0
2, 4920, Note_on_c, 0, 68, 0
2, 4920, Note_on_c, 0, 66, 44
2, 4920, Note_on_c, 0, 70, 50
2, 4944, Note_on_c, 0, 70, 0
2, 4944, Note_on_c, 0, 66, 0
2, 4944, Note_on_c, 0, 65, 42
2, 4944, Note_on_c, 0, 68, 48
2, 4968, Note_on_c, 0, 68, 0
2, 4968, Note_on_c, 0, 65, 0
2, 4968, Note_on_c, 0, 63, 40
2, 4968, Note_on_c, 0, 66, 46
2, 4992, Note_on_c, 0, 66, 0
2, 4992, Note_on_c, 0, 63, 0
2, 4992, Note_on_c, 0, 63, 40
2, 4992, Note_on_c, 0, 65, 42
2, 4992, Note_on_c, 0, 68, 48
2, 5016, Note_on_c, 0, 63, 0
2, 5016, Note_on_c, 0, 62, 44
2, 5040, Note_on_c, 0, 62, 0
2, 5040, Note_on_c, 0, 68, 0
2, 5040, Note_on_c, 0, 65, 0
2, 5040, Note_on_c, 0, 59, 44
2, 5040, Note_on_c, 0, 63, 48
2, 5040, Note_on_c, 0, 68, 54
2, 5064, Note_on_c, 0, 63, 0
2, 5064, Note_on_c, 0, 59, 0
2, 5064, Note_on_c, 0, 58, 44
2, 5064, Note_on_c, 0, 62, 50
2, 5088, Note_on_c, 0, 62, 0
2, 5088, Note_on_c, 0, 58, 0
2, 5088, Note_on_c, 0, 68, 0
2, 5088, Note_on_c, 0, 58, 34
2, 5088, Note_on_c, 0, 65, 38
2, 5088, Note_on_c, 0, 68, 42
2, 5136, Note_on_c, 0, 68, 0
2, 5136, Note_on_c, 0, 65, 0
2, 5136, Note_on_c, 0, 63, 34
2, 5136, Note_on_c, 0, 66, 40
2, 5182, Note_on_c, 0, 66, 0
2, 5182, Note_on_c, 0, 63, 0
2, 5182, Note_on_c, 0, 58, 0
2, 5208, Note_on_c, 0, 64, 50
2, 5220, Note_on_c, 0, 64, 0
2, 5220, Note_on_c, 0, 65, 52
2, 5228, Note_on_c, 0, 68, 48
2, 5232, Note_on_c, 0, 68, 0
2, 5232, Note_on_c, 0, 65, 0
2, 5232, Note_on_c, 0, 66, 50
2, 5244, Note_on_c, 0, 66, 0
2, 5244, Note_on_c, 0, 65, 48
2, 5256, Note_on_c, 0, 65, 0
2, 5256, Note_on_c, 0, 70, 54
2, 5268, Note_on_c, 0, 70, 0
2, 5268, Note_on_c, 0, 72, 56
2, 5280, Note_on_c, 0, 72, 0
2, 5280, Note_on_c, 0, 73, 52
2, 5374, Note_on_c, 0, 73, 0
2, 5396, Note_on_c, 0, 72, 34
2, 5400, Note_on_c, 0, 72, 0
2, 5400, Note_on_c, 0, 72, 34
2, 5405, Note_on_c, 0, 72, 0
2, 5405, Note_on_c, 0, 73, 36
2, 5410, Note_on_c, 0, 73, 0
2, 5410, Note_on_c, 0, 72, 34
2, 5415, Note_on_c, 0, 72, 0
2, 5415, Note_on_c, 0, 71, 32
2, 5419, Note_on_c, 0, 71, 0
2, 5419, Note_on_c, 0, 72, 34
2, 5424, Note_on_c, 0, 72, 0
2, 5424, Note_on_c, 0, 75, 36
2, 5448, Note_on_c, 0, 75, 0
2, 5460, Note_on_c, 0, 73, 32
2, 5472, Note_on_c, 0, 73, 0
2, 5472, Note_on_c, 0, 70, 28
2, 5518, Note_on_c, 0, 70, 0
2, 5592, Note_on_c, 0, 62, 52
2, 5604, Note_on_c, 0, 62, 0
2, 5604, Note_on_c, 0, 63, 54
2, 5612, Note_on_c, 0, 66, 50
2, 5616, Note_on_c, 0, 66, 0
2, 5616, Note_on_c, 0, 63, 0
2, 5616, Note_on_c, 0, 64, 52
2, 5617, Note_on_c, 0, 64, 0
2, 5628, Note_on_c, 0, 63, 52
2, 5640, Note_on_c, 0, 63, 0
2, 5640, Note_on_c, 0, 68, 54
2, 5652, Note_on_c, 0, 68, 0
2, 5652, Note_on_c, 0, 70, 52
2, 5664, Note_on_c, 0, 70, 0
2, 5664, Note_on_c, 0, 71, 50
2, 5758, Note_on_c, 0, 71, 0
2, 5772, Note_on_c, 0, 70, 32
2, 5784, Note_on_c, 0, 70, 0
2, 5784, Note_on_c, 0, 70, 32
2, 5789, Note_on_c, 0, 70, 0
2, 5789, Note_on_c, 0, 71, 34
2, 5794, Note_on_c, 0, 71, 0
2, 5794, Note_on_c, 0, 70, 32
2, 5799, Note_on_c, 0, 70, 0
2, 5799, Note_on_c, 0, 69, 30
2, 5803, Note_on_c, 0, 69, 0
2, 5803, Note_on_c, 0, 70, 32
2, 5808, Note_on_c, 0, 70, 0
2, 5808, Note_on_c, 0, 73, 36
2, 5844, Note_on_c, 0, 73, 0
2, 5844, Note_on_c, 0, 71, 32
2, 5856, Note_on_c, 0, 71, 0
2, 5856, Note_on_c, 0, 68, 30
2, 5902, Note_on_c, 0, 68, 0
2, 5904, Note_on_c, 0, 75, 50
2, 5952, Note_on_c, 0, 67, 34
2, 5998, Note_on_c, 0, 75, 0
2, 5998, Note_on_c, 0, 67, 0
2, 6000, Note_on_c, 0, 68, 36
2, 6000, Note_on_c, 0, 76, 42
2, 6048, Note_on_c, 0, 68, 0
2, 6048, Note_on_c, 0, 67, 34
2, 6048, Note_on_c, 0, 70, 44
2, 6096, Note_on_c, 0, 70, 0
2, 6096, Note_on_c, 0, 67, 0
2, 6096, Note_on_c, 0, 68, 36
2, 6096, Note_on_c, 0, 71, 48
2, 6138, Note_on_c, 0, 75, 54
2, 6144, Note_on_c, 0, 75, 0
2, 6144, Note_on_c, 0, 71, 0
2, 6144, Note_on_c, 0, 68, 0
2, 6144, Note_on_c, 0, 76, 0
2, 6144, Note_on_c, 0, 67, 36
2, 6144, Note_on_c, 0, 73, 54
2, 6192, Note_on_c, 0, 73, 0
2, 6192, Note_on_c, 0, 71, 46
2, 6216, Note_on_c, 0, 71, 0
2, 6216, Note_on_c, 0, 70, 44
2, 6240, Note_on_c, 0, 70, 0
2, 6240, Note_on_c, 0, 67, 0
2, 6240, Note_on_c, 0, 63, 34
2, 6240, Note_on_c, 0, 68, 46
2, 6288, Note_on_c, 0, 68, 0
2, 6288, Note_on_c, 0, 63, 0
2, 6288, Note_on_c, 0, 65, 34
2, 6288, Note_on_c, 0, 70, 46
2, 6336, Note_on_c, 0, 70, 0
2, 6336, Note_on_c, 0, 65, 0
2, 6336, Note_on_c, 0, 67, 44
2, 6382, Note_on_c, 0, 67, 0
2, 6384, Note_on_c, 0, 68, 30
2, 6384, Note_on_c, 0, 76, 40
2, 6432, Note_on_c, 0, 68, 0
2, 6432, Note_on_c, 0, 67, 34
2, 6432, Note_on_c, 0, 70, 40
2, 6480, Note_on_c, 0, 70, 0
2, 6480, Note_on_c, 0, 67, 0
2, 6480, Note_on_c, 0, 68, 36
2, 6480, Note_on_c, 0, 71, 44
2, 6522, Note_on_c, 0, 75, 46
2, 6528, Note_on_c, 0, 75, 0
2, 6528, Note_on_c, 0, 71, 0
2, 6528, Note_on_c, 0, 68, 0
2, 6528, Note_on_c, 0, 76, 0
2, 6528, Note_on_c, 0, 67, 34
2, 6528, Note_on_c, 0, 73, 44
2, 6576, Note_on_c, 0, 73, 0
2, 6576, Note_on_c, 0, 71, 44
2, 6600, Note_on_c, 0, 71, 0
2, 6600, Note_on_c, 0, 70, 44
2, 6624, Note_on_c, 0, 70, 0
2, 6624, Note_on_c, 0, 67, 0
2, 6624, Note_on_c, 0, 63, 34
2, 6624, Note_on_c, 0, 68, 48
2, 6672, Note_on_c, 0, 68, 0
2, 6672, Note_on_c, 0, 63, 0
2, 6672, Note_on_c, 0, 65, 36
2, 6672, Note_on_c, 0, 70, 50
2, 6720, Note_on_c, 0, 70, 0
2, 6720, Note_on_c, 0, 65, 0
2, 6720, Note_on_c, 0, 67, 52
2, 6768, Note_on_c, 0, 67, 0
2, 6768, Note_on_c, 0, 75, 63
2, 6816, Note_on_c, 0, 75, 0
2, 6816, Note_on_c, 0, 73, 60
2, 6864, Note_on_c, 0, 73, 0
2, 6864, Note_on_c, 0, 68, 55
2, 6898, Note_on_c, 0, 68, 0
2, 6948, Note_on_c, 0, 71, 30
2, 6960, Note_on_c, 0, 71, 0
2, 6960, Note_on_c, 0, 71, 34
2, 6970, Note_on_c, 0, 71, 0
2, 6970, Note_on_c, 0, 73, 38
2, 6980, Note_on_c, 0, 73, 0
2, 6980, Note_on_c, 0, 71, 37
2, 6989, Note_on_c, 0, 71, 0
2, 6989, Note_on_c, 0, 70, 36
2, 6998, Note_on_c, 0, 70, 0
2, 6998, Note_on_c, 0, 71, 40
2, 7008, Note_on_c, 0, 71, 0
2, 7008, Note_on_c, 0, 75, 44
2, 7032, Note_on_c, 0, 75, 0
2, 7032, Note_on_c, 0, 75, 46
2, 7080, Note_on_c, 0, 75, 0
2, 7080, Note_on_c, 0, 73, 58
2, 7104, Note_on_c, 0, 73, 0
2, 7104, Note_on_c, 0, 78, 66
2, 7200, Note_on_c, 0, 78, 0
2, 7200, Note_on_c, 0, 77, 62
2, 7248, Note_on_c, 0, 68, 50
2, 7294, Note_on_c, 0, 77, 0
2, 7296, Note_on_c, 0, 68, 0
2, 7296, Note_on_c, 0, 70, 52
2, 7344, Note_on_c, 0, 76, 60
2, 7392, Note_on_c, 0, 76, 0
2, 7392, Note_on_c, 0, 75, 56
2, 7438, Note_on_c, 0, 70, 0
2, 7440, Note_on_c, 0, 75, 0
2, 7440, Note_on_c, 0, 71, 56
2, 7488, Note_on_c, 0, 71, 0
2, 7488, Note_on_c, 0, 68, 60
2, 7512, Note_on_c, 0, 68, 0
2, 7536, Note_on_c, 0, 83, 62
2, 7606, Note_on_c, 0, 83, 0
2, 7608, Note_on_c, 0, 82, 42
2, 7620, Note_on_c, 0, 82, 0
2, 7620, Note_on_c, 0, 80, 44
2, 7632, Note_on_c, 0, 80, 0
2, 7632, Note_on_c, 0, 76, 44
2, 7644, Note_on_c, 0, 76, 0
2, 7644, Note_on_c, 0, 75, 42
2, 7656, Note_on_c, 0, 75, 0
2, 7656, Note_on_c, 0, 73, 40
2, 7668, Note_on_c, 0, 73, 0
2, 7668, Note_on_c, 0, 71, 38
2, 7678, Note_on_c, 0, 71, 0
2, 7680, Note_on_c, 0, 68, 38
2, 7684, Note_on_c, 0, 70, 32
2, 7688, Note_on_c, 0, 71, 31
2, 7689, Note_on_c, 0, 70, 0
2, 7692, Note_on_c, 0, 70, 30
2, 7693, Note_on_c, 0, 71, 0
2, 7696, Note_on_c, 0, 71, 33
2, 7697, Note_on_c, 0, 70, 0
2, 7700, Note_on_c, 0, 70, 32
2, 7701, Note_on_c, 0, 71, 0
2, 7704, Note_on_c, 0, 71, 35
2, 7705, Note_on_c, 0, 70, 0
2, 7708, Note_on_c, 0, 70, 33
2, 7709, Note_on_c, 0, 71, 0
2, 7712, Note_on_c, 0, 71, 36
2, 7713, Note_on_c, 0, 70, 0
2, 7716, Note_on_c, 0, 70, 34
2, 7717, Note_on_c, 0, 71, 0
2, 7720, Note_on_c, 0, 71, 36
2, 7721, Note_on_c, 0, 70, 0
2, 7724, Note_on_c, 0, 70, 34
2, 7725, Note_on_c, 0, 71, 0
2, 7728, Note_on_c, 0, 71, 36
2, 7729, Note_on_c, 0, 70, 0
2, 7732, Note_on_c, 0, 70, 35
2, 7733, Note_on_c, 0, 71, 0
2, 7736, Note_on_c, 0, 71, 37
2, 7737, Note_on_c, 0, 70, 0
2, 7740, Note_on_c, 0, 70, 35
2, 7741, Note_on_c, 0, 71, 0
2, 7744, Note_on_c, 0, 71, 37
2, 7745, Note_on_c, 0, 70, 0
2, 7748, Note_on_c, 0, 70, 35
2, 7749, Note_on_c, 0, 71, 0
2, 7752, Note_on_c, 0, 71, 37
2, 7753, Note_on_c, 0, 70, 0
2, 7756, Note_on_c, 0, 70, 35
2, 7757, Note_on_c, 0, 71, 0
2, 7760, Note_on_c, 0, 71, 37
2, 7761, Note_on_c, 0, 70, 0
2, 7764, Note_on_c, 0, 70, 35
2, 7765, Note_on_c, 0, 71, 0
2, 7768, Note_on_c, 0, 71, 37
2, 7769, Note_on_c, 0, 70, 0
2, 7772, Note_on_c, 0, 70, 35
2, 7773, Note_on_c, 0, 71, 0
2, 7776, Note_on_c, 0, 68, 0
2, 7776, Note_on_c, 0, 71, 37
2, 7777, Note_on_c, 0, 70, 0
2, 7780, Note_on_c, 0, 70, 35
2, 7781, Note_on_c, 0, 71, 0
2, 7784, Note_on_c, 0, 71, 37
2, 7785, Note_on_c, 0, 70, 0
2, 7788, Note_on_c, 0, 70, 35
2, 7789, Note_on_c, 0, 71, 0
2, 7792, Note_on_c, 0, 71, 36
2, 7793, Note_on_c, 0, 70, 0
2, 7796, Note_on_c, 0, 70, 34
2, 7797, Note_on_c, 0, 71, 0
2, 7800, Note_on_c, 0, 71, 36
2, 7801, Note_on_c, 0, 70, 0
2, 7804, Note_on_c, 0, 70, 34
2, 7805, Note_on_c, 0, 71, 0
2, 7808, Note_on_c, 0, 71, 35
2, 7809, Note_on_c, 0, 70, 0
2, 7812, Note_on_c, 0, 70, 33
2, 7813, Note_on_c, 0, 71, 0
2, 7816, Note_on_c, 0, 71, 35
2, 7817, Note_on_c, 0, 70, 0
2, 7820, Note_on_c, 0, 70, 33
2, 7821, Note_on_c, 0, 71, 0
2, 7824, Note_on_c, 0, 71, 34
2, 7825, Note_on_c, 0, 70, 0
2, 7828, Note_on_c, 0, 70, 32
2, 7829, Note_on_c, 0, 71, 0
2, 7832, Note_on_c, 0, 71, 34
2, 7833, Note_on_c, 0, 70, 0
2, 7836, Note_on_c, 0, 70, 32
2, 7837, Note_on_c, 0, 71, 0
2, 7840, Note_on_c, 0, 71, 34
2, 7841, Note_on_c, 0, 70, 0
2, 7844, Note_on_c, 0, 70, 32
2, 7845, Note_on_c, 0, 71, 0
2, 7850, Note_on_c, 0, 70, 0
2, 7850, Note_on_c, 0, 68, 34
2, 7860, Note_on_c, 0, 68, 0
2, 7860, Note_on_c, 0, 70, 28
2, 7870, Note_on_c, 0, 70, 0
2, 7870, Note_on_c, 0, 75, 32
2, 7876, Note_on_c, 0, 75, 0
2, 7876, Note_on_c, 0, 73, 31
2, 7882, Note_on_c, 0, 73, 0
2, 7882, Note_on_c, 0, 71, 30
2, 7888, Note_on_c, 0, 71, 0
2, 7888, Note_on_c, 0, 71, 32
2, 7934, Note_on_c, 0, 71, 0
2, 7936, Note_on_c, 0, 78, 36
2, 7984, Note_on_c, 0, 78, 0
2, 7984, Note_on_c, 0, 76, 52
2, 8032, Note_on_c, 0, 76, 0
2, 8032, Note_on_c, 0, 75, 54
2, 8078, Note_on_c, 0, 75, 0
2, 8080, Note_on_c, 0, 73, 52
2, 8176, Note_on_c, 0, 73, 0
2, 8176, Note_on_c, 0, 75, 44
2, 8200, Note_on_c, 0, 75, 0
2, 8200, Note_on_c, 0, 73, 52
2, 8224, Note_on_c, 0, 73, 0
2, 8224, Note_on_c, 0, 71, 50
2, 8248, Note_on_c, 0, 71, 0
2, 8248, Note_on_c, 0, 70, 48
2, 8272, Note_on_c, 0, 70, 0
2, 8272, Note_on_c, 0, 66, 46
2, 8272, Note_on_c, 0, 71, 44
2, 8296, Note_on_c, 0, 66, 0
2, 8296, Note_on_c, 0, 65, 47
2, 8314, Note_on_c, 0, 65, 0
2, 8314, Note_on_c, 0, 65, 47
2, 8320, Note_on_c, 0, 65, 0
2, 8320, Note_on_c, 0, 71, 0
2, 8320, Note_on_c, 0, 63, 48
2, 8320, Note_on_c, 0, 71, 44
2, 8344, Note_on_c, 0, 63, 0
2, 8344, Note_on_c, 0, 61, 50
2, 8368, Note_on_c, 0, 61, 0
2, 8368, Note_on_c, 0, 71, 0
2, 8368, Note_on_c, 0, 68, 36
2, 8368, Note_on_c, 0, 71, 44
2, 8416, Note_on_c, 0, 71, 0
2, 8416, Note_on_c, 0, 68, 0
2, 8416, Note_on_c, 0, 66, 30
2, 8416, Note_on_c, 0, 70, 38
2, 8462, Note_on_c, 0, 70, 0
2, 8462, Note_on_c, 0, 66, 0
2, 8480, Note_on_c, 0, 73, 52
2, 8484, Note_on_c, 0, 73, 0
2, 8484, Note_on_c, 0, 75, 54
2, 8488, Note_on_c, 0, 75, 0
2, 8488, Note_on_c, 0, 70, 40
2, 8488, Note_on_c, 0, 73, 52
2, 8512, Note_on_c, 0, 73, 0
2, 8512, Note_on_c, 0, 70, 0
2, 8512, Note_on_c, 0, 69, 46
2, 8512, Note_on_c, 0, 72, 58
2, 8536, Note_on_c, 0, 72, 0
2, 8536, Note_on_c, 0, 69, 0
2, 8536, Note_on_c, 0, 70, 48
2, 8536, Note_on_c, 0, 73, 60
2, 8560, Note_on_c, 0, 73, 0
2, 8560, Note_on_c, 0, 70, 0
2, 8560, Note_on_c, 0, 70, 50
2, 8560, Note_on_c, 0, 78, 58
2, 8572, Note_on_c, 0, 78, 0
2, 8572, Note_on_c, 0, 70, 0
2, 8596, Note_on_c, 0, 70, 54
2, 8596, Note_on_c, 0, 73, 60
2, 8606, Note_on_c, 0, 73, 0
2, 8606, Note_on_c, 0, 70, 0
2, 8608, Note_on_c, 0, 70, 48
2, 8608, Note_on_c, 0, 73, 54
2, 8624, Note_on_c, 0, 73, 0
2, 8624, Note_on_c, 0, 70, 0
2, 8624, Note_on_c, 0, 68, 47
2, 8624, Note_on_c, 0, 71, 53
2, 8640, Note_on_c, 0, 71, 0
2, 8640, Note_on_c, 0, 68, 0
2, 8640, Note_on_c, 0, 66, 46
2, 8640, Note_on_c, 0, 70, 52
2, 8654, Note_on_c, 0, 70, 0
2, 8654, Note_on_c, 0, 66, 0
2, 8656, Note_on_c, 0, 66, 48
2, 8656, Note_on_c, 0, 71, 54
2, 8668, Note_on_c, 0, 71, 0
2, 8668, Note_on_c, 0, 66, 0
2, 8692, Note_on_c, 0, 65, 46
2, 8692, Note_on_c, 0, 71, 52
2, 8704, Note_on_c, 0, 71, 0
2, 8704, Note_on_c, 0, 65, 0
2, 8704, Note_on_c, 0, 65, 45
2, 8704, Note_on_c, 0, 71, 51
2, 8720, Note_on_c, 0, 71, 0
2, 8720, Note_on_c, 0, 65, 0
2, 8720, Note_on_c, 0, 63, 43
2, 8720, Note_on_c, 0, 71, 50
2, 8736, Note_on_c, 0, 71, 0
2, 8736, Note_on_c, 0, 63, 0
2, 8736, Note_on_c, 0, 61, 41
2, 8736, Note_on_c, 0, 71, 49
2, 8752, Note_on_c, 0, 71, 0
2, 8752, Note_on_c, 0, 61, 0
2, 8752, Note_on_c, 0, 68, 40
2, 8752, Note_on_c, 0, 71, 46
2, 8800, Note_on_c, 0, 71, 0
2, 8800, Note_on_c, 0, 68, 0
2, 8800, Note_on_c, 0, 66, 36
2, 8800, Note_on_c, 0, 70, 42
2, 8846, Note_on_c, 0, 70, 0
2, 8846, Note_on_c, 0, 66, 0
2, 8920, Note_on_c, 0, 66, 40
2, 8920, Note_on_c, 0, 70, 46
2, 8944, Note_on_c, 0, 70, 0
2, 8944, Note_on_c, 0, 66, 0
2, 8944, Note_on_c, 0, 68, 46
2, 8944, Note_on_c, 0, 71, 52
2, 8968, Note_on_c, 0, 71, 0
2, 8968, Note_on_c, 0, 68, 0
2, 8968, Note_on_c, 0, 66, 44
2, 8968, Note_on_c, 0, 70, 50
2, 8992, Note_on_c, 0, 70, 0
2, 8992, Note_on_c, 0, 66, 0
2, 8992, Note_on_c, 0, 65, 42
2, 8992, Note_on_c, 0, 68, 48
2, 9016, Note_on_c, 0, 68, 0
2, 9016, Note_on_c, 0, 65, 0
2, 9016, Note_on_c, 0, 63, 40
2, 9016, Note_on_c, 0, 66, 46
2, 9040, Note_on_c, 0, 66, 0
2, 9040, Note_on_c, 0, 63, 0
2, 9040, Note_on_c, 0, 63, 40
2, 9040, Note_on_c, 0, 65, 42
2, 9040, Note_on_c, 0, 68, 48
2, 9064, Note_on_c, 0, 63, 0
2, 9064, Note_on_c, 0, 62, 44
2, 9088, Note_on_c, 0, 62, 0
2, 9088, Note_on_c, 0, 68, 0
2, 9088, Note_on_c, 0, 65, 0
2, 9088, Note_on_c, 0, 59, 44
2, 9088, Note_on_c, 0, 63, 48
2, 9088, Note_on_c, 0, 68, 54
2, 9112, Note_on_c, 0, 63, 0
2, 9112, Note_on_c, 0, 59, 0
2, 9112, Note_on_c, 0, 58, 44
2, 9112, Note_on_c, 0, 62, 50
2, 9136, Note_on_c, 0, 62, 0
2, 9136, Note_on_c, 0, 58, 0
2, 9136, Note_on_c, 0, 68, 0
2, 9136, Note_on_c, 0, 58, 34
2, 9136, Note_on_c, 0, 65, 38
2, 9136, Note_on_c, 0, 68, 42
2, 9184, Note_on_c, 0, 68, 0
2, 9184, Note_on_c, 0, 65, 0
2, 9184, Note_on_c, 0, 63, 34
2, 9184, Note_on_c, 0, 66, 40
2, 9230, Note_on_c, 0, 66, 0
2, 9230, Note_on_c, 0, 63, 0
2, 9230, Note_on_c, 0, 58, 0
2, 9256, Note_on_c, 0, 64, 50
2, 9268, Note_on_c, 0, 64, 0
2, 9268, Note_on_c, 0, 65, 52
2, 9276, Note_on_c, 0, 68, 48
2, 9280, Note_on_c, 0, 68, 0
2, 9280, Note_on_c, 0, 65, 0
2, 9280, Note_on_c, 0, 66, 50
2, 9292, Note_on_c, 0, 66, 0
2, 9292, Note_on_c, 0, 65, 48
2, 9304, Note_on_c, 0, 65, 0
2, 9304, Note_on_c, 0, 70, 54
2, 9316, Note_on_c, 0, 70, 0
2, 9316, Note_on_c, 0, 72, 56
2, 9328, Note_on_c, 0, 72, 0
2, 9328, Note_on_c, 0, 73, 52
2, 9422, Note_on_c, 0, 73, 0
2, 9444, Note_on_c, 0, 72, 34
2, 9448, Note_on_c, 0, 72, 0
2, 9448, Note_on_c, 0, 72, 34
2, 9453, Note_on_c, 0, 72, 0
2, 9453, Note_on_c, 0, 73, 36
2, 9458, Note_on_c, 0, 73, 0
2, 9458, Note_on_c, 0, 72, 34
2, 9463, Note_on_c, 0, 72, 0
2, 9463, Note_on_c, 0, 71, 32
2, 9467, Note_on_c, 0, 71, 0
2, 9467, Note_on_c, 0, 72, 34
2, 9472, Note_on_c, 0, 72, 0
2, 9472, Note_on_c, 0, 75, 36
2, 9496, Note_on_c, 0, 75, 0
2, 9508, Note_on_c, 0, 73, 32
2, 9520, Note_on_c, 0, 73, 0
2, 9520, Note_on_c, 0, 70, 28
2, 9566, Note_on_c, 0, 70, 0
2, 9640, Note_on_c, 0, 62, 52
2, 9652, Note_on_c, 0, 62, 0
2, 9652, Note_on_c, 0, 63, 54
2, 9660, Note_on_c, 0, 66, 50
2, 9664, Note_on_c, 0, 66, 0
2, 9664, Note_on_c, 0, 63, 0
2, 9664, Note_on_c, 0, 64, 52
2, 9665, Note_on_c, 0, 64, 0
2, 9676, Note_on_c, 0, 63, 52
2, 9688, Note_on_c, 0, 63, 0
2, 9688, Note_on_c, 0, 68, 54
2, 9700, Note_on_c, 0, 68, 0
2, 9700, Note_on_c, 0, 70, 52
2, 9712, Note_on_c, 0, 70, 0
2, 9712, Note_on_c, 0, 71, 50
2, 9806, Note_on_c, 0, 71, 0
2, 9820, Note_on_c, 0, 70, 32
2, 9832, Note_on_c, 0, 70, 0
2, 9832, Note_on_c, 0, 70, 32
2, 9837, Note_on_c, 0, 70, 0
2, 9837, Note_on_c, 0, 71, 34
2, 9842, Note_on_c, 0, 71, 0
2, 9842, Note_on_c, 0, 70, 32
2, 9847, Note_on_c, 0, 70, 0
2, 9847, Note_on_c, 0, 69, 30
2, 9851, Note_on_c, 0, 69, 0
2, 9851, Note_on_c, 0, 70, 32
2, 9856, Note_on_c, 0, 70, 0
2, 9856, Note_on_c, 0, 73, 36
2, 9892, Note_on_c, 0, 73, 0
2, 9892, Note_on_c, 0, 71, 32
2, 9904, Note_on_c, 0, 71, 0
2, 9904, Note_on_c, 0, 68, 30
2, 9950, Note_on_c, 0, 68, 0
2, 9952, Note_on_c, 0, 75, 50
2, 10000, Note_on_c, 0, 67, 34
2, 10046, Note_on_c, 0, 75, 0
2, 10046, Note_on_c, 0, 67, 0
2, 10048, Note_on_c, 0, 68, 36
2, 10048, Note_on_c, 0, 76, 42
2, 10096, Note_on_c, 0, 68, 0
2, 10096, Note_on_c, 0, 67, 34
2, 10096, Note_on_c, 0, 70, 44
2, 10144, Note_on_c, 0, 70, 0
2, 10144, Note_on_c, 0, 67, 0
2, 10144, Note_on_c, 0, 68, 36
2, 10144, Note_on_c, 0, 71, 48
2, 10186, Note_on_c, 0, 75, 54
2, 10192, Note_on_c, 0, 75, 0
2, 10192, Note_on_c, 0, 71, 0
2, 10192, Note_on_c, 0, 68, 0
2, 10192, Note_on_c, 0, 76, 0
2, 10192, Note_on_c, 0, 67, 36
2, 10192, Note_on_c, 0, 73, 54
2, 10240, Note_on_c, 0, 73, 0
2, 10240, Note_on_c, 0, 71, 46
2, 10264, Note_on_c, 0, 71, 0
2, 10264, Note_on_c, 0, 70, 44
2, 10288, Note_on_c, 0, 70, 0
2, 10288, Note_on_c, 0, 67, 0
2, 10288, Note_on_c, 0, 63, 34
2, 10288, Note_on_c, 0, 68, 46
2, 10336, Note_on_c, 0, 68, 0
2, 10336, Note_on_c, 0, 63, 0
2, 10336, Note_on_c, 0, 65, 34
2, 10336, Note_on_c, 0, 70, 46
2, 10384, Note_on_c, 0, 70, 0
2, 10384, Note_on_c, 0, 65, 0
2, 10384, Note_on_c, 0, 67, 44
2, 10430, Note_on_c, 0, 67, 0
2, 10432, Note_on_c, 0, 68, 30
2, 10432, Note_on_c, 0, 76, 40
2, 10480, Note_on_c, 0, 68, 0
2, 10480, Note_on_c, 0, 67, 34
2, 10480, Note_on_c, 0, 70, 40
2, 10528, Note_on_c, 0, 70, 0
2, 10528, Note_on_c, 0, 67, 0
2, 10528, Note_on_c, 0, 68, 36
2, 10528, Note_on_c, 0, 71, 44
2, 10570, Note_on_c, 0, 75, 46
2, 10576, Note_on_c, 0, 75, 0
2, 10576, Note_on_c, 0, 71, 0
2, 10576, Note_on_c, 0, 68, 0
2, 10576, Note_on_c, 0, 76, 0
2, 10576, Note_on_c, 0, 67, 34
2, 10576, Note_on_c, 0, 73, 44
2, 10624, Note_on_c, 0, 73, 0
2, 10624, Note_on_c, 0, 71, 44
2, 10648, Note_on_c, 0, 71, 0
2, 10648, Note_on_c, 0, 70, 44
2, 10672, Note_on_c, 0, 70, 0
2, 10672, Note_on_c, 0, 67, 0
2, 10672, Note_on_c, 0, 63, 34
2, 10672, Note_on_c, 0, 68, 48
2, 10720, Note_on_c, 0, 68, 0
2, 10720, Note_on_c, 0, 63, 0
2, 10720, Note_on_c, 0, 65, 36
2, 10720, Note_on_c, 0, 70, 50
2, 10768, Note_on_c, 0, 70, 0
2, 10768, Note_on_c, 0, 65, 0
2, 10768, Note_on_c, 0, 67, 52
2, 10816, Note_on_c, 0, 67, 0
2, 10816, Note_on_c, 0, 75, 63
2, 10864, Note_on_c, 0, 75, 0
2, 10864, Note_on_c, 0, 73, 60
2, 10912, Note_on_c, 0, 73, 0
2, 10912, Note_on_c, 0, 68, 55
2, 10946, Note_on_c, 0, 68, 0
2, 10996, Note_on_c, 0, 71, 30
2, 11008, Note_on_c, 0, 71, 0
2, 11008, Note_on_c, 0, 71, 34
2, 11018, Note_on_c, 0, 71, 0
2, 11018, Note_on_c, 0, 73, 38
2, 11028, Note_on_c, 0, 73, 0
2, 11028, Note_on_c, 0, 71, 37
2, 11037, Note_on_c, 0, 71, 0
2, 11037, Note_on_c, 0, 70, 36
2, 11046, Note_on_c, 0, 70, 0
2, 11046, Note_on_c, 0, 71, 40
2, 11056, Note_on_c, 0, 71, 0
2, 11056, Note_on_c, 0, 75, 44
2, 11080, Note_on_c, 0, 75, 0
2, 11080, Note_on_c, 0, 75, 46
2, 11128, Note_on_c, 0, 75, 0
2, 11128, Note_on_c, 0, 73, 58
2, 11152, Note_on_c, 0, 73, 0
2, 11152, Note_on_c, 0, 78, 66
2, 11248, Note_on_c, 0, 78, 0
2, 11248, Note_on_c, 0, 77, 62
2, 11296, Note_on_c, 0, 68, 54
2, 11342, Note_on_c, 0, 77, 0
2, 11344, Note_on_c, 0, 68, 0
2, 11344, Note_on_c, 0, 70, 54
2, 11392, Note_on_c, 0, 76, 60
2, 11440, Note_on_c, 0, 76, 0
2, 11440, Note_on_c, 0, 75, 56
2, 11486, Note_on_c, 0, 70, 0
2, 11488, Note_on_c, 0, 75, 0
2, 11488, Note_on_c, 0, 71, 58
2, 11536, Note_on_c, 0, 71, 0
2, 11536, Note_on_c, 0, 68, 64
2, 11560, Note_on_c, 0, 68, 0
2, 11584, Note_on_c, 0, 95, 72
2, 11692, Note_on_c, 0, 95, 0
2, 11692, Note_on_c, 0, 94, 42
2, 11704, Note_on_c, 0, 94, 0
2, 11704, Note_on_c, 0, 92, 46
2, 11716, Note_on_c, 0, 92, 0
2, 11716, Note_on_c, 0, 88, 50
2, 11728, Note_on_c, 0, 88, 0
2, 11728, Note_on_c, 0, 87, 52
2, 11740, Note_on_c, 0, 87, 0
2, 11740, Note_on_c, 0, 85, 52
2, 11752, Note_on_c, 0, 85, 0
2, 11752, Note_on_c, 0, 83, 51
2, 11764, Note_on_c, 0, 83, 0
2, 11764, Note_on_c, 0, 82, 50
2, 11776, Note_on_c, 0, 82, 0
2, 11776, Note_on_c, 0, 80, 48
2, 11788, Note_on_c, 0, 80, 0
2, 11788, Note_on_c, 0, 76, 46
2, 11800, Note_on_c, 0, 76, 0
2, 11800, Note_on_c, 0, 75, 46
2, 11812, Note_on_c, 0, 75, 0
2, 11812, Note_on_c, 0, 73, 46
2, 11824, Note_on_c, 0, 73, 0
2, 11824, Note_on_c, 0, 71, 42
2, 11836, Note_on_c, 0, 71, 0
2, 11836, Note_on_c, 0, 68, 38
2, 11840, Note_on_c, 0, 70, 32
2, 11844, Note_on_c, 0, 71, 30
2, 11845, Note_on_c, 0, 70, 0
2, 11848, Note_on_c, 0, 70, 30
2, 11849, Note_on_c, 0, 71, 0
2, 11852, Note_on_c, 0, 71, 33
2, 11853, Note_on_c, 0, 70, 0
2, 11856, Note_on_c, 0, 70, 32
2, 11857, Note_on_c, 0, 71, 0
2, 11860, Note_on_c, 0, 71, 35
2, 11861, Note_on_c, 0, 70, 0
2, 11864, Note_on_c, 0, 70, 33
2, 11865, Note_on_c, 0, 71, 0
2, 11868, Note_on_c, 0, 71, 35
2, 11869, Note_on_c, 0, 70, 0
2, 11872, Note_on_c, 0, 70, 33
2, 11873, Note_on_c, 0, 71, 0
2, 11876, Note_on_c, 0, 71, 36
2, 11877, Note_on_c, 0, 70, 0
2, 11880, Note_on_c, 0, 70, 34
2, 11881, Note_on_c, 0, 71, 0
2, 11884, Note_on_c, 0, 71, 36
2, 11885, Note_on_c, 0, 70, 0
2, 11888, Note_on_c, 0, 70, 34
2, 11889, Note_on_c, 0, 71, 0
2, 11892, Note_on_c, 0, 71, 37
2, 11893, Note_on_c, 0, 70, 0
2, 11896, Note_on_c, 0, 70, 35
2, 11897, Note_on_c, 0, 71, 0
2, 11900, Note_on_c, 0, 71, 37
2, 11901, Note_on_c, 0, 70, 0
2, 11904, Note_on_c, 0, 70, 35
2, 11905, Note_on_c, 0, 71, 0
2, 11908, Note_on_c, 0, 71, 37
2, 11909, Note_on_c, 0, 70, 0
2, 11912, Note_on_c, 0, 70, 35
2, 11913, Note_on_c, 0, 71, 0
2, 11916, Note_on_c, 0, 71, 37
2, 11917, Note_on_c, 0, 70, 0
2, 11920, Note_on_c, 0, 70, 35
2, 11921, Note_on_c, 0, 71, 0
2, 11924, Note_on_c, 0, 71, 37
2, 11925, Note_on_c, 0, 70, 0
2, 11928, Note_on_c, 0, 70, 35
2, 11929, Note_on_c, 0, 71, 0
2, 11932, Note_on_c, 0, 68, 0
2, 11932, Note_on_c, 0, 71, 37
2, 11933, Note_on_c, 0, 70, 0
2, 11936, Note_on_c, 0, 70, 35
2, 11937, Note_on_c, 0, 71, 0
2, 11940, Note_on_c, 0, 71, 37
2, 11941, Note_on_c, 0, 70, 0
2, 11944, Note_on_c, 0, 70, 35
2, 11945, Note_on_c, 0, 71, 0
2, 11948, Note_on_c, 0, 71, 37
2, 11949, Note_on_c, 0, 70, 0
2, 11952, Note_on_c, 0, 70, 35
2, 11953, Note_on_c, 0, 71, 0
2, 11956, Note_on_c, 0, 71, 36
2, 11957, Note_on_c, 0, 70, 0
2, 11960, Note_on_c, 0, 70, 34
2, 11961, Note_on_c, 0, 71, 0
2, 11964, Note_on_c, 0, 71, 36
2, 11965, Note_on_c, 0, 70, 0
2, 11968, Note_on_c, 0, 70, 34
2, 11969, Note_on_c, 0, 71, 0
2, 11972, Note_on_c, 0, 71, 35
2, 11973, Note_on_c, 0, 70, 0
2, 11976, Note_on_c, 0, 70, 33
2, 11977, Note_on_c, 0, 71, 0
2, 11980, Note_on_c, 0, 71, 34
2, 11981, Note_on_c, 0, 70, 0
2, 11984, Note_on_c, 0, 70, 32
2, 11985, Note_on_c, 0, 71, 0
2, 11988, Note_on_c, 0, 71, 34
2, 11989, Note_on_c, 0, 70, 0
2, 11992, Note_on_c, 0, 70, 31
2, 11993, Note_on_c, 0, 71, 0
2, 11996, Note_on_c, 0, 71, 33
2, 11997, Note_on_c, 0, 70, 0
2, 12000, Note_on_c, 0, 70, 30
2, 12001, Note_on_c, 0, 71, 0
2, 12004, Note_on_c, 0, 68, 32
2, 12005, Note_on_c, 0, 70, 0
2, 12012, Note_on_c, 0, 68, 0
2, 12012, Note_on_c, 0, 70, 28
2, 12020, Note_on_c, 0, 70, 0
2, 12020, Note_on_c, 0, 75, 32
2, 12028, Note_on_c, 0, 75, 0
2, 12028, Note_on_c, 0, 73, 31
2, 12036, Note_on_c, 0, 73, 0
2, 12036, Note_on_c, 0, 71, 30
2, 12056, Note_on_c, 0, 71, 0
2, 12056, Note_on_c, 0, 59, 26
2, 12060, Note_on_c, 0, 62, 28
2, 12064, Note_on_c, 0, 67, 30
2, 12068, Note_on_c, 0, 71, 32
2, 12390, Note_on_c, 0, 71, 0
2, 12390, Note_on_c, 0, 67, 0
2, 12390, Note_on_c, 0, 62, 0
2, 12390, Note_on_c, 0, 59, 0
2, 12404, Note_on_c, 0, 59, 60
2, 12410, Note_on_c, 0, 59, 0
2, 12410, Note_on_c, 0, 61, 64
2, 12416, Note_on_c, 0, 61, 0
2, 12416, Note_on_c, 0, 64, 68
2, 12422, Note_on_c, 0, 64, 0
2, 12422, Note_on_c, 0, 62, 67
2, 12428, Note_on_c, 0, 62, 0
2, 12428, Note_on_c, 0, 61, 66
2, 12434, Note_on_c, 0, 61, 0
2, 12434, Note_on_c, 0, 59, 65
2, 12438, Note_on_c, 0, 59, 0
2, 12440, Note_on_c, 0, 67, 75
2, 12488, Note_on_c, 0, 55, 65
2, 12488, Note_on_c, 0, 59, 70
2, 12488, Note_on_c, 0, 62, 75
2, 12534, Note_on_c, 0, 62, 0
2, 12534, Note_on_c, 0, 59, 0
2, 12534, Note_on_c, 0, 55, 0
2, 12534, Note_on_c, 0, 67, 0
2, 12596, Note_on_c, 0, 59, 64
2, 12602, Note_on_c, 0, 59, 0
2, 12602, Note_on_c, 0, 61, 68
2, 12608, Note_on_c, 0, 61, 0
2, 12608, Note_on_c, 0, 64, 78
2, 12614, Note_on_c, 0, 64, 0
2, 12614, Note_on_c, 0, 62, 70
2, 12620, Note_on_c, 0, 62, 0
2, 12620, Note_on_c, 0, 61, 69
2, 12626, Note_on_c, 0, 61, 0
2, 12626, Note_on_c, 0, 59, 68
2, 12630, Note_on_c, 0, 59, 0
2, 12632, Note_on_c, 0, 71, 80
2, 12680, Note_on_c, 0, 59, 70
2, 12680, Note_on_c, 0, 62, 75
2, 12680, Note_on_c, 0, 67, 80
2, 12726, Note_on_c, 0, 67, 0
2, 12726, Note_on_c, 0, 62, 0
2, 12726, Note_on_c, 0, 59, 0
2, 12726, Note_on_c, 0, 71, 0
2, 12776, Note_on_c, 0, 71, 32
2, 12800, Note_on_c, 0, 71, 0
2, 12800, Note_on_c, 0, 73, 45
2, 12824, Note_on_c, 0, 73, 0
2, 12824, Note_on_c, 0, 76, 40
2, 12848, Note_on_c, 0, 76, 0
2, 12848, Note_on_c, 0, 74, 48
2, 12872, Note_on_c, 0, 74, 0
2, 12872, Note_on_c, 0, 73, 54
2, 12896, Note_on_c, 0, 73, 0
2, 12896, Note_on_c, 0, 71, 52
2, 12920, Note_on_c, 0, 71, 0
2, 12920, Note_on_c, 0, 70, 56
2, 12944, Note_on_c, 0, 70, 0
2, 12944, Note_on_c, 0, 71, 62
2, 12968, Note_on_c, 0, 71, 0
2, 12968, Note_on_c, 0, 70, 60
2, 12992, Note_on_c, 0, 70, 0
2, 12992, Note_on_c, 0, 69, 66
2, 13016, Note_on_c, 0, 69, 0
2, 13016, Note_on_c, 0, 70, 76
2, 13040, Note_on_c, 0, 70, 0
2, 13040, Note_on_c, 0, 73, 68
2, 13064, Note_on_c, 0, 73, 0
2, 13064, Note_on_c, 0, 71, 62
2, 13100, Note_on_c, 0, 71, 0
2, 13100, Note_on_c, 0, 67, 72
2, 13110, Note_on_c, 0, 67, 0
2, 13112, Note_on_c, 0, 67, 72
2, 13130, Note_on_c, 0, 67, 0
2, 13130, Note_on_c, 0, 54, 64
2, 13136, Note_on_c, 0, 54, 0
2, 13136, Note_on_c, 0, 59, 68
2, 13142, Note_on_c, 0, 59, 0
2, 13142, Note_on_c, 0, 62, 72
2, 13148, Note_on_c, 0, 62, 0
2, 13148, Note_on_c, 0, 66, 76
2, 13154, Note_on_c, 0, 66, 0
2, 13154, Note_on_c, 0, 69, 80
2, 13160, Note_on_c, 0, 69, 0
2, 13160, Note_on_c, 0, 67, 76
2, 13182, Note_on_c, 0, 67, 0
2, 13196, Note_on_c, 0, 66, 86
2, 13206, Note_on_c, 0, 66, 0
2, 13208, Note_on_c, 0, 66, 90
2, 13232, Note_on_c, 0, 59, 78
2, 13232, Note_on_c, 0, 63, 84
2, 13244, Note_on_c, 0, 63, 0
2, 13244, Note_on_c, 0, 59, 0
2, 13256, Note_on_c, 0, 59, 82
2, 13256, Note_on_c, 0, 62, 88
2, 13265, Note_on_c, 0, 62, 0
2, 13265, Note_on_c, 0, 59, 0
2, 13302, Note_on_c, 0, 66, 0
2, 13400, Note_on_c, 0, 61, 76
2, 13448, Note_on_c, 0, 54, 54
2, 13448, Note_on_c, 0, 56, 56
2, 13448, Note_on_c, 0, 59, 58
2, 13494, Note_on_c, 0, 59, 0
2, 13494, Note_on_c, 0, 56, 0
2, 13494, Note_on_c, 0, 54, 0
2, 13496, Note_on_c, 0, 53, 46
2, 13496, Note_on_c, 0, 56, 48
2, 13496, Note_on_c, 0, 59, 50
2, 13512, Note_on_c, 0, 61, 0
2, 13512, Note_on_c, 0, 61, 54
2, 13528, Note_on_c, 0, 61, 0
2, 13528, Note_on_c, 0, 61, 62
2, 13542, Note_on_c, 0, 59, 0
2, 13542, Note_on_c, 0, 56, 0
2, 13542, Note_on_c, 0, 53, 0
2, 13544, Note_on_c, 0, 61, 0
2, 13544, Note_on_c, 0, 61, 70
2, 13560, Note_on_c, 0, 61, 0
2, 13560, Note_on_c, 0, 61, 76
2, 13576, Note_on_c, 0, 61, 0
2, 13576, Note_on_c, 0, 61, 74
2, 13592, Note_on_c, 0, 61, 0
2, 13592, Note_on_c, 0, 61, 72
2, 13640, Note_on_c, 0, 61, 0
2, 13640, Note_on_c, 0, 62, 82
2, 13688, Note_on_c, 0, 52, 70
2, 13688, Note_on_c, 0, 55, 74
2, 13688, Note_on_c, 0, 58, 78
2, 13736, Note_on_c, 0, 58, 0
2, 13736, Note_on_c, 0, 55, 0
2, 13736, Note_on_c, 0, 52, 0
2, 13736, Note_on_c, 0, 52, 74
2, 13736, Note_on_c, 0, 55, 78
2, 13736, Note_on_c, 0, 58, 82
2, 13782, Note_on_c, 0, 58, 0
2, 13782, Note_on_c, 0, 55, 0
2, 13782, Note_on_c, 0, 52, 0
2, 13782, Note_on_c, 0, 62, 0
2, 13832, Note_on_c, 0, 58, 86
2, 13880, Note_on_c, 0, 58, 0
2, 13880, Note_on_c, 0, 58, 100
2, 13928, Note_on_c, 0, 58, 0
2, 13928, Note_on_c, 0, 59, 110
2, 14024, Note_on_c, 0, 52, 94
2, 14024, Note_on_c, 0, 55, 100
2, 14072, Note_on_c, 0, 55, 0
2, 14072, Note_on_c, 0, 52, 0
2, 14072, Note_on_c, 0, 50, 102
2, 14072, Note_on_c, 0, 54, 106
2, 14120, Note_on_c, 0, 54, 0
2, 14120, Note_on_c, 0, 50, 0
2, 14252, Note_on_c, 0, 59, 0
2, 14264, End_track
3, 0, Start_track
3, 0, Title_t, "LEFT HAND"
3, 0, MIDI_port, 0
3, 192, Note_on_c, 0, 35, 22
3, 216, Note_on_c, 0, 35, 0
3, 216, Note_on_c, 0, 66, 18
3, 240, Note_on_c, 0, 66, 0
3, 240, Note_on_c, 0, 54, 23
3, 264, Note_on_c, 0, 54, 0
3, 264, Note_on_c, 0, 66, 18
3, 288, Note_on_c, 0, 66, 0
3, 288, Note_on_c, 0, 58, 21
3, 288, Note_on_c, 0, 52, 25
3, 312, Note_on_c, 0, 52, 0
3, 312, Note_on_c, 0, 58, 0
3, 312, Note_on_c, 0, 66, 18
3, 336, Note_on_c, 0, 66, 0
3, 336, Note_on_c, 0, 54, 23
3, 360, Note_on_c, 0, 54, 0
3, 360, Note_on_c, 0, 66, 18
3, 384, Note_on_c, 0, 66, 0
3, 384, Note_on_c, 0, 59, 21
3, 384, Note_on_c, 0, 63, 27
3, 408, Note_on_c, 0, 63, 0
3, 408, Note_on_c, 0, 59, 0
3, 408, Note_on_c, 0, 66, 20
3, 432, Note_on_c, 0, 66, 0
3, 432, Note_on_c, 0, 54, 20
3, 456, Note_on_c, 0, 54, 0
3, 456, Note_on_c, 0, 66, 20
3, 480, Note_on_c, 0, 66, 0
3, 480, Note_on_c, 0, 58, 20
3, 480, Note_on_c, 0, 61, 26
3, 504, Note_on_c, 0, 61, 0
3, 504, Note_on_c, 0, 58, 0
3, 504, Note_on_c, 0, 66, 20
3, 528, Note_on_c, 0, 66, 0
3, 528, Note_on_c, 0, 54, 24
3, 552, Note_on_c, 0, 54, 0
3, 552, Note_on_c, 0, 66, 18
3, 576, Note_on_c, 0, 66, 0
3, 576, Note_on_c, 0, 47, 27
3, 600, Note_on_c, 0, 47, 0
3, 600, Note_on_c, 0, 66, 18
3, 624, Note_on_c, 0, 66, 0
3, 624, Note_on_c, 0, 54, 23
3, 648, Note_on_c, 0, 54, 0
3, 648, Note_on_c, 0, 66, 18
3, 672, Note_on_c, 0, 66, 0
3, 672, Note_on_c, 0, 58, 21
3, 672, Note_on_c, 0, 52, 25
3, 696, Note_on_c, 0, 52, 0
3, 696, Note_on_c, 0, 58, 0
3, 696, Note_on_c, 0, 66, 18
3, 720, Note_on_c, 0, 66, 0
3, 720, Note_on_c, 0, 54, 23
3, 744, Note_on_c, 0, 54, 0
3, 744, Note_on_c, 0, 66, 18
3, 768, Note_on_c, 0, 66, 0
3, 768, Note_on_c, 0, 59, 21
3, 768, Note_on_c, 0, 63, 22
3, 792, Note_on_c, 0, 63, 0
3, 792, Note_on_c, 0, 59, 0
3, 792, Note_on_c, 0, 66, 25
3, 816, Note_on_c, 0, 66, 0
3, 816, Note_on_c, 0, 54, 23
3, 840, Note_on_c, 0, 54, 0
3, 840, Note_on_c, 0, 66, 20
3, 864, Note_on_c, 0, 66, 0
3, 864, Note_on_c, 0, 58, 19
3, 864, Note_on_c, 0, 61, 25
3, 888, Note_on_c, 0, 61, 0
3, 888, Note_on_c, 0, 58, 0
3, 888, Note_on_c, 0, 66, 20
3, 912, Note_on_c, 0, 66, 0
3, 912, Note_on_c, 0, 54, 25
3, 936, Note_on_c, 0, 54, 0
3, 936, Note_on_c, 0, 66, 20
3, 960, Note_on_c, 0, 66, 0
3, 960, Note_on_c, 0, 47, 27
3, 984, Note_on_c, 0, 47, 0
3, 984, Note_on_c, 0, 54, 26
3, 1008, Note_on_c, 0, 54, 0
3, 1008, Note_on_c, 0, 57, 29
3, 1032, Note_on_c, 0, 57, 0
3, 1032, Note_on_c, 0, 63, 32
3, 1056, Note_on_c, 0, 63, 0
3, 1056, Note_on_c, 0, 46, 31
3, 1080, Note_on_c, 0, 46, 0
3, 1080, Note_on_c, 0, 56, 32
3, 1104, Note_on_c, 0, 56, 0
3, 1104, Note_on_c, 0, 58, 33
3, 1128, Note_on_c, 0, 58, 0
3, 1128, Note_on_c, 0, 62, 36
3, 1152, Note_on_c, 0, 62, 0
3, 1152, Note_on_c, 0, 39, 35
3, 1176, Note_on_c, 0, 39, 0
3, 1176, Note_on_c, 0, 54, 34
3, 1200, Note_on_c, 0, 54, 0
3, 1200, Note_on_c, 0, 58, 36
3, 1224, Note_on_c, 0, 58, 0
3, 1224, Note_on_c, 0, 63, 37
3, 1248, Note_on_c, 0, 63, 0
3, 1248, Note_on_c, 0, 40, 40
3, 1272, Note_on_c, 0, 40, 0
3, 1272, Note_on_c, 0, 52, 39
3, 1296, Note_on_c, 0, 52, 0
3, 1296, Note_on_c, 0, 56, 38
3, 1320, Note_on_c, 0, 56, 0
3, 1320, Note_on_c, 0, 61, 36
3, 1330, Note_on_c, 0, 61, 0
3, 1344, Note_on_c, 0, 43, 32
3, 1356, Note_on_c, 0, 43, 0
3, 1368, Note_on_c, 0, 52, 25
3, 1392, Note_on_c, 0, 52, 0
3, 1392, Note_on_c, 0, 59, 23
3, 1416, Note_on_c, 0, 59, 0
3, 1416, Note_on_c, 0, 64, 25
3, 1440, Note_on_c, 0, 64, 0
3, 1440, Note_on_c, 0, 42, 25
3, 1452, Note_on_c, 0, 42, 0
3, 1464, Note_on_c, 0, 54, 23
3, 1488, Note_on_c, 0, 54, 0
3, 1488, Note_on_c, 0, 58, 21
3, 1512, Note_on_c, 0, 58, 0
3, 1512, Note_on_c, 0, 64, 19
3, 1536, Note_on_c, 0, 64, 0
3, 1536, Note_on_c, 0, 47, 23
3, 1548, Note_on_c, 0, 47, 0
3, 1560, Note_on_c, 0, 54, 25
3, 1584, Note_on_c, 0, 63, 21
3, 1584, Note_on_c, 0, 65, 25
3, 1608, Note_on_c, 0, 65, 0
3, 1608, Note_on_c, 0, 63, 0
3, 1608, Note_on_c, 0, 54, 0
3, 1608, Note_on_c, 0, 54, 25
3, 1632, Note_on_c, 0, 64, 28
3, 1656, Note_on_c, 0, 54, 0
3, 1656, Note_on_c, 0, 54, 25
3, 1680, Note_on_c, 0, 64, 0
3, 1680, Note_on_c, 0, 60, 27
3, 1704, Note_on_c, 0, 54, 0
3, 1704, Note_on_c, 0, 54, 25
3, 1728, Note_on_c, 0, 54, 0
3, 1728, Note_on_c, 0, 60, 0
3, 1728, Note_on_c, 0, 61, 27
3, 1752, Note_on_c, 0, 61, 0
3, 1752, Note_on_c, 0, 54, 25
3, 1776, Note_on_c, 0, 66, 29
3, 1800, Note_on_c, 0, 66, 0
3, 1800, Note_on_c, 0, 64, 28
3, 1824, Note_on_c, 0, 64, 0
3, 1824, Note_on_c, 0, 63, 27
3, 1848, Note_on_c, 0, 54, 0
3, 1848, Note_on_c, 0, 54, 25
3, 1872, Note_on_c, 0, 63, 0
3, 1872, Note_on_c, 0, 65, 29
3, 1896, Note_on_c, 0, 54, 0
3, 1896, Note_on_c, 0, 54, 25
3, 1920, Note_on_c, 0, 54, 0
3, 1920, Note_on_c, 0, 65, 0
3, 1920, Note_on_c, 0, 66, 30
3, 1944, Note_on_c, 0, 54, 25
3, 1968, Note_on_c, 0, 66, 0
3, 1968, Note_on_c, 0, 65, 29
3, 1992, Note_on_c, 0, 54, 0
3, 1992, Note_on_c, 0, 54, 25
3, 2016, Note_on_c, 0, 65, 0
3, 2016, Note_on_c, 0, 64, 28
3, 2040, Note_on_c, 0, 54, 0
3, 2040, Note_on_c, 0, 54, 25
3, 2064, Note_on_c, 0, 64, 0
3, 2064, Note_on_c, 0, 60, 27
3, 2088, Note_on_c, 0, 54, 0
3, 2088, Note_on_c, 0, 54, 25
3, 2112, Note_on_c, 0, 54, 0
3, 2112, Note_on_c, 0, 60, 0
3, 2112, Note_on_c, 0, 61, 27
3, 2136, Note_on_c, 0, 54, 25
3, 2160, Note_on_c, 0, 61, 0
3, 2160, Note_on_c, 0, 66, 30
3, 2184, Note_on_c, 0, 66, 0
3, 2184, Note_on_c, 0, 54, 0
3, 2184, Note_on_c, 0, 55, 22
3, 2184, Note_on_c, 0, 64, 29
3, 2208, Note_on_c, 0, 64, 0
3, 2208, Note_on_c, 0, 55, 0
3, 2208, Note_on_c, 0, 56, 23
3, 2208, Note_on_c, 0, 63, 28
3, 2232, Note_on_c, 0, 63, 0
3, 2232, Note_on_c, 0, 56, 0
3, 2232, Note_on_c, 0, 59, 27
3, 2256, Note_on_c, 0, 59, 0
3, 2256, Note_on_c, 0, 52, 25
3, 2280, Note_on_c, 0, 52, 0
3, 2280, Note_on_c, 0, 59, 27
3, 2302, Note_on_c, 0, 59, 0
3, 2304, Note_on_c, 0, 42, 23
3, 2326, Note_on_c, 0, 42, 0
3, 2328, Note_on_c, 0, 58, 26
3, 2352, Note_on_c, 0, 58, 0
3, 2352, Note_on_c, 0, 59, 28
3, 2376, Note_on_c, 0, 59, 0
3, 2376, Note_on_c, 0, 54, 25
3, 2400, Note_on_c, 0, 58, 27
3, 2424, Note_on_c, 0, 58, 0
3, 2424, Note_on_c, 0, 54, 0
3, 2424, Note_on_c, 0, 54, 23
3, 2472, Note_on_c, 0, 54, 0
3, 2472, Note_on_c, 0, 54, 19
3, 2494, Note_on_c, 0, 54, 0
3, 2496, Note_on_c, 0, 35, 25
3, 2520, Note_on_c, 0, 35, 0
3, 2520, Note_on_c, 0, 66, 18
3, 2544, Note_on_c, 0, 66, 0
3, 2544, Note_on_c, 0, 54, 23
3, 2568, Note_on_c, 0, 54, 0
3, 2568, Note_on_c, 0, 66, 18
3, 2592, Note_on_c, 0, 66, 0
3, 2592, Note_on_c, 0, 58, 21
3, 2592, Note_on_c, 0, 52, 25
3, 2616, Note_on_c, 0, 52, 0
3, 2616, Note_on_c, 0, 58, 0
3, 2616, Note_on_c, 0, 66, 18
3, 2640, Note_on_c, 0, 66, 0
3, 2640, Note_on_c, 0, 54, 23
3, 2664, Note_on_c, 0, 54, 0
3, 2664, Note_on_c, 0, 66, 18
3, 2688, Note_on_c, 0, 66, 0
3, 2688, Note_on_c, 0, 59, 21
3, 2688, Note_on_c, 0, 63, 27
3, 2712, Note_on_c, 0, 63, 0
3, 2712, Note_on_c, 0, 59, 0
3, 2712, Note_on_c, 0, 66, 20
3, 2736, Note_on_c, 0, 66, 0
3, 2736, Note_on_c, 0, 54, 20
3, 2760, Note_on_c, 0, 54, 0
3, 2760, Note_on_c, 0, 66, 20
3, 2784, Note_on_c, 0, 66, 0
3, 2784, Note_on_c, 0, 58, 20
3, 2784, Note_on_c, 0, 61, 26
3, 2808, Note_on_c, 0, 61, 0
3, 2808, Note_on_c, 0, 58, 0
3, 2808, Note_on_c, 0, 66, 20
3, 2832, Note_on_c, 0, 66, 0
3, 2832, Note_on_c, 0, 54, 24
3, 2856, Note_on_c, 0, 54, 0
3, 2856, Note_on_c, 0, 66, 18
3, 2880, Note_on_c, 0, 66, 0
3, 2880, Note_on_c, 0, 47, 27
3, 2904, Note_on_c, 0, 47, 0
3, 2904, Note_on_c, 0, 66, 18
3, 2928, Note_on_c, 0, 66, 0
3, 2928, Note_on_c, 0, 54, 23
3, 2952, Note_on_c, 0, 54, 0
3, 2952, Note_on_c, 0, 66, 18
3, 2976, Note_on_c, 0, 66, 0
3, 2976, Note_on_c, 0, 58, 21
3, 2976, Note_on_c, 0, 52, 25
3, 3000, Note_on_c, 0, 52, 0
3, 3000, Note_on_c, 0, 58, 0
3, 3000, Note_on_c, 0, 66, 18
3, 3024, Note_on_c, 0, 66, 0
3, 3024, Note_on_c, 0, 54, 23
3, 3048, Note_on_c, 0, 54, 0
3, 3048, Note_on_c, 0, 66, 18
3, 3072, Note_on_c, 0, 66, 0
3, 3072, Note_on_c, 0, 59, 21
3, 3072, Note_on_c, 0, 63, 22
3, 3096, Note_on_c, 0, 63, 0
3, 3096, Note_on_c, 0, 59, 0
3, 3096, Note_on_c, 0, 66, 25
3, 3120, Note_on_c, 0, 66, 0
3, 3120, Note_on_c, 0, 54, 23
3, 3144, Note_on_c, 0, 54, 0
3, 3144, Note_on_c, 0, 66, 20
3, 3168, Note_on_c, 0, 66, 0
3, 3168, Note_on_c, 0, 58, 19
3, 3168, Note_on_c, 0, 61, 25
3, 3192, Note_on_c, 0, 61, 0
3, 3192, Note_on_c, 0, 58, 0
3, 3192, Note_on_c, 0, 66, 20
3, 3216, Note_on_c, 0, 66, 0
3, 3216, Note_on_c, 0, 54, 25
3, 3240, Note_on_c, 0, 54, 0
3, 3240, Note_on_c, 0, 66, 20
3, 3264, Note_on_c, 0, 66, 0
3, 3264, Note_on_c, 0, 47, 27
3, 3288, Note_on_c, 0, 47, 0
3, 3288, Note_on_c, 0, 54, 26
3, 3312, Note_on_c, 0, 54, 0
3, 3312, Note_on_c, 0, 57, 29
3, 3336, Note_on_c, 0, 57, 0
3, 3336, Note_on_c, 0, 63, 32
3, 3360, Note_on_c, 0, 63, 0
3, 3360, Note_on_c, 0, 46, 31
3, 3384, Note_on_c, 0, 46, 0
3, 3384, Note_on_c, 0, 56, 30
3, 3408, Note_on_c, 0, 56, 0
3, 3408, Note_on_c, 0, 58, 33
3, 3432, Note_on_c, 0, 58, 0
3, 3432, Note_on_c, 0, 62, 36
3, 3456, Note_on_c, 0, 62, 0
3, 3456, Note_on_c, 0, 39, 35
3, 3480, Note_on_c, 0, 39, 0
3, 3480, Note_on_c, 0, 54, 34
3, 3504, Note_on_c, 0, 54, 0
3, 3504, Note_on_c, 0, 58, 36
3, 3528, Note_on_c, 0, 58, 0
3, 3528, Note_on_c, 0, 63, 37
3, 3552, Note_on_c, 0, 63, 0
3, 3552, Note_on_c, 0, 40, 40
3, 3576, Note_on_c, 0, 40, 0
3, 3576, Note_on_c, 0, 52, 39
3, 3600, Note_on_c, 0, 52, 0
3, 3600, Note_on_c, 0, 56, 38
3, 3624, Note_on_c, 0, 56, 0
3, 3624, Note_on_c, 0, 61, 35
3, 3634, Note_on_c, 0, 61, 0
3, 3648, Note_on_c, 0, 31, 25
3, 3660, Note_on_c, 0, 31, 0
3, 3672, Note_on_c, 0, 52, 23
3, 3696, Note_on_c, 0, 52, 0
3, 3696, Note_on_c, 0, 59, 25
3, 3720, Note_on_c, 0, 59, 0
3, 3720, Note_on_c, 0, 64, 27
3, 3742, Note_on_c, 0, 64, 0
3, 3744, Note_on_c, 0, 30, 25
3, 3756, Note_on_c, 0, 30, 0
3, 3768, Note_on_c, 0, 54, 25
3, 3792, Note_on_c, 0, 54, 0
3, 3792, Note_on_c, 0, 58, 23
3, 3816, Note_on_c, 0, 58, 0
3, 3816, Note_on_c, 0, 64, 21
3, 3838, Note_on_c, 0, 64, 0
3, 3840, Note_on_c, 0, 35, 24
3, 3864, Note_on_c, 0, 35, 0
3, 3864, Note_on_c, 0, 54, 20
3, 3888, Note_on_c, 0, 54, 0
3, 3888, Note_on_c, 0, 63, 24
3, 3888, Note_on_c, 0, 66, 28
3, 3912, Note_on_c, 0, 66, 0
3, 3912, Note_on_c, 0, 63, 0
3, 3912, Note_on_c, 0, 54, 20
3, 3936, Note_on_c, 0, 54, 0
3, 3936, Note_on_c, 0, 61, 23
3, 3936, Note_on_c, 0, 64, 27
3, 3960, Note_on_c, 0, 64, 0
3, 3960, Note_on_c, 0, 61, 0
3, 3960, Note_on_c, 0, 54, 20
3, 3984, Note_on_c, 0, 54, 0
3, 3984, Note_on_c, 0, 59, 22
3, 3984, Note_on_c, 0, 63, 26
3, 4008, Note_on_c, 0, 63, 0
3, 4008, Note_on_c, 0, 59, 0
3, 4008, Note_on_c, 0, 54, 20
3, 4030, Note_on_c, 0, 54, 0
3, 4032, Note_on_c, 0, 42, 24
3, 4056, Note_on_c, 0, 42, 0
3, 4056, Note_on_c, 0, 49, 26
3, 4080, Note_on_c, 0, 49, 0
3, 4080, Note_on_c, 0, 54, 26
3, 4080, Note_on_c, 0, 58, 30
3, 4104, Note_on_c, 0, 58, 0
3, 4104, Note_on_c, 0, 54, 0
3, 4104, Note_on_c, 0, 49, 26
3, 4128, Note_on_c, 0, 49, 0
3, 4128, Note_on_c, 0, 46, 25
3, 4152, Note_on_c, 0, 46, 0
3, 4152, Note_on_c, 0, 49, 27
3, 4176, Note_on_c, 0, 49, 0
3, 4176, Note_on_c, 0, 54, 26
3, 4176, Note_on_c, 0, 61, 32
3, 4200, Note_on_c, 0, 61, 0
3, 4200, Note_on_c, 0, 54, 0
3, 4200, Note_on_c, 0, 49, 27
3, 4222, Note_on_c, 0, 49, 0
3, 4224, Note_on_c, 0, 37, 24
3, 4236, Note_on_c, 0, 37, 0
3, 4248, Note_on_c, 0, 49, 26
3, 4272, Note_on_c, 0, 49, 0
3, 4272, Note_on_c, 0, 53, 27
3, 4272, Note_on_c, 0, 59, 31
3, 4296, Note_on_c, 0, 59, 0
3, 4296, Note_on_c, 0, 53, 0
3, 4296, Note_on_c, 0, 49, 26
3, 4318, Note_on_c, 0, 49, 0
3, 4320, Note_on_c, 0, 42, 23
3, 4344, Note_on_c, 0, 42, 0
3, 4344, Note_on_c, 0, 49, 24
3, 4368, Note_on_c, 0, 49, 0
3, 4368, Note_on_c, 0, 54, 24
3, 4368, Note_on_c, 0, 58, 28
3, 4392, Note_on_c, 0, 58, 0
3, 4392, Note_on_c, 0, 54, 0
3, 4392, Note_on_c, 0, 49, 24
3, 4414, Note_on_c, 0, 49, 0
3, 4416, Note_on_c, 0, 42, 28
3, 4440, Note_on_c, 0, 42, 0
3, 4440, Note_on_c, 0, 49, 27
3, 4464, Note_on_c, 0, 49, 0
3, 4464, Note_on_c, 0, 54, 28
3, 4464, Note_on_c, 0, 58, 32
3, 4488, Note_on_c, 0, 58, 0
3, 4488, Note_on_c, 0, 54, 0
3, 4488, Note_on_c, 0, 49, 29
3, 4510, Note_on_c, 0, 49, 0
3, 4512, Note_on_c, 0, 42, 32
3, 4536, Note_on_c, 0, 42, 0
3, 4536, Note_on_c, 0, 49, 29
3, 4560, Note_on_c, 0, 49, 0
3, 4560, Note_on_c, 0, 61, 32
3, 4584, Note_on_c, 0, 61, 0
3, 4584, Note_on_c, 0, 49, 27
3, 4606, Note_on_c, 0, 49, 0
3, 4608, Note_on_c, 0, 37, 28
3, 4632, Note_on_c, 0, 37, 0
3, 4632, Note_on_c, 0, 49, 28
3, 4656, Note_on_c, 0, 49, 0
3, 4656, Note_on_c, 0, 53, 26
3, 4656, Note_on_c, 0, 59, 30
3, 4680, Note_on_c, 0, 59, 0
3, 4680, Note_on_c, 0, 53, 0
3, 4680, Note_on_c, 0, 49, 28
3, 4702, Note_on_c, 0, 49, 0
3, 4704, Note_on_c, 0, 42, 30
3, 4728, Note_on_c, 0, 42, 0
3, 4728, Note_on_c, 0, 49, 30
3, 4752, Note_on_c, 0, 49, 0
3, 4752, Note_on_c, 0, 58, 30
3, 4776, Note_on_c, 0, 58, 0
3, 4776, Note_on_c, 0, 50, 40
3, 4798, Note_on_c, 0, 50, 0
3, 4800, Note_on_c, 0, 39, 40
3, 4824, Note_on_c, 0, 39, 0
3, 4824, Note_on_c, 0, 46, 40
3, 4848, Note_on_c, 0, 46, 0
3, 4848, Note_on_c, 0, 51, 32
3, 4848, Note_on_c, 0, 54, 34
3, 4848, Note_on_c, 0, 58, 36
3, 4872, Note_on_c, 0, 58, 0
3, 4872, Note_on_c, 0, 54, 0
3, 4872, Note_on_c, 0, 51, 0
3, 4872, Note_on_c, 0, 46, 40
3, 4894, Note_on_c, 0, 46, 0
3, 4896, Note_on_c, 0, 39, 36
3, 4920, Note_on_c, 0, 39, 0
3, 4920, Note_on_c, 0, 46, 34
3, 4944, Note_on_c, 0, 46, 0
3, 4944, Note_on_c, 0, 58, 36
3, 4968, Note_on_c, 0, 58, 0
3, 4968, Note_on_c, 0, 46, 34
3, 4990, Note_on_c, 0, 46, 0
3, 4992, Note_on_c, 0, 34, 36
3, 5016, Note_on_c, 0, 34, 0
3, 5016, Note_on_c, 0, 46, 34
3, 5040, Note_on_c, 0, 46, 0
3, 5040, Note_on_c, 0, 53, 32
3, 5064, Note_on_c, 0, 53, 0
3, 5064, Note_on_c, 0, 56, 32
3, 5086, Note_on_c, 0, 56, 0
3, 5088, Note_on_c, 0, 39, 34
3, 5112, Note_on_c, 0, 39, 0
3, 5112, Note_on_c, 0, 46, 32
3, 5136, Note_on_c, 0, 46, 0
3, 5136, Note_on_c, 0, 54, 35
3, 5160, Note_on_c, 0, 54, 0
3, 5160, Note_on_c, 0, 51, 38
3, 5182, Note_on_c, 0, 51, 0
3, 5184, Note_on_c, 0, 45, 48
3, 5208, Note_on_c, 0, 45, 0
3, 5208, Note_on_c, 0, 51, 36
3, 5232, Note_on_c, 0, 51, 0
3, 5232, Note_on_c, 0, 60, 38
3, 5256, Note_on_c, 0, 60, 0
3, 5256, Note_on_c, 0, 53, 36
3, 5278, Note_on_c, 0, 53, 0
3, 5280, Note_on_c, 0, 46, 38
3, 5304, Note_on_c, 0, 46, 0
3, 5304, Note_on_c, 0, 53, 35
3, 5328, Note_on_c, 0, 53, 0
3, 5328, Note_on_c, 0, 61, 32
3, 5352, Note_on_c, 0, 61, 0
3, 5352, Note_on_c, 0, 58, 30
3, 5374, Note_on_c, 0, 58, 0
3, 5376, Note_on_c, 0, 51, 26
3, 5376, Note_on_c, 0, 66, 30
3, 5400, Note_on_c, 0, 66, 0
3, 5400, Note_on_c, 0, 58, 24
3, 5424, Note_on_c, 0, 58, 0
3, 5424, Note_on_c, 0, 51, 0
3, 5424, Note_on_c, 0, 53, 16
3, 5424, Note_on_c, 0, 57, 18
3, 5424, Note_on_c, 0, 65, 20
3, 5448, Note_on_c, 0, 65, 0
3, 5448, Note_on_c, 0, 63, 24
3, 5470, Note_on_c, 0, 63, 0
3, 5472, Note_on_c, 0, 57, 0
3, 5472, Note_on_c, 0, 53, 0
3, 5472, Note_on_c, 0, 46, 28
3, 5496, Note_on_c, 0, 46, 0
3, 5496, Note_on_c, 0, 53, 26
3, 5520, Note_on_c, 0, 53, 0
3, 5520, Note_on_c, 0, 61, 34
3, 5544, Note_on_c, 0, 61, 0
3, 5544, Note_on_c, 0, 52, 32
3, 5544, Note_on_c, 0, 56, 36
3, 5566, Note_on_c, 0, 56, 0
3, 5566, Note_on_c, 0, 52, 0
3, 5568, Note_on_c, 0, 39, 42
3, 5592, Note_on_c, 0, 39, 0
3, 5592, Note_on_c, 0, 51, 34
3, 5616, Note_on_c, 0, 51, 0
3, 5616, Note_on_c, 0, 55, 26
3, 5616, Note_on_c, 0, 61, 30
3, 5640, Note_on_c, 0, 61, 0
3, 5640, Note_on_c, 0, 55, 0
3, 5640, Note_on_c, 0, 51, 28
3, 5662, Note_on_c, 0, 51, 0
3, 5664, Note_on_c, 0, 44, 34
3, 5688, Note_on_c, 0, 44, 0
3, 5688, Note_on_c, 0, 51, 31
3, 5712, Note_on_c, 0, 51, 0
3, 5712, Note_on_c, 0, 56, 26
3, 5712, Note_on_c, 0, 59, 30
3, 5736, Note_on_c, 0, 59, 0
3, 5736, Note_on_c, 0, 56, 0
3, 5736, Note_on_c, 0, 51, 30
3, 5758, Note_on_c, 0, 51, 0
3, 5760, Note_on_c, 0, 49, 23
3, 5760, Note_on_c, 0, 64, 27
3, 5784, Note_on_c, 0, 64, 0
3, 5784, Note_on_c, 0, 56, 24
3, 5808, Note_on_c, 0, 56, 0
3, 5808, Note_on_c, 0, 49, 0
3, 5808, Note_on_c, 0, 51, 18
3, 5808, Note_on_c, 0, 55, 20
3, 5808, Note_on_c, 0, 63, 26
3, 5832, Note_on_c, 0, 63, 0
3, 5832, Note_on_c, 0, 61, 24
3, 5854, Note_on_c, 0, 61, 0
3, 5856, Note_on_c, 0, 55, 0
3, 5856, Note_on_c, 0, 51, 0
3, 5856, Note_on_c, 0, 44, 26
3, 5880, Note_on_c, 0, 44, 0
3, 5880, Note_on_c, 0, 51, 26
3, 5904, Note_on_c, 0, 51, 0
3, 5904, Note_on_c, 0, 56, 26
3, 5904, Note_on_c, 0, 59, 28
3, 5928, Note_on_c, 0, 59, 0
3, 5928, Note_on_c, 0, 56, 0
3, 5928, Note_on_c, 0, 51, 26
3, 5950, Note_on_c, 0, 51, 0
3, 5952, Note_on_c, 0, 39, 28
3, 5964, Note_on_c, 0, 39, 0
3, 5976, Note_on_c, 0, 51, 26
3, 6000, Note_on_c, 0, 62, 30
3, 6024, Note_on_c, 0, 51, 0
3, 6024, Note_on_c, 0, 51, 26
3, 6048, Note_on_c, 0, 62, 0
3, 6048, Note_on_c, 0, 61, 29
3, 6072, Note_on_c, 0, 51, 0
3, 6072, Note_on_c, 0, 51, 25
3, 6096, Note_on_c, 0, 61, 0
3, 6096, Note_on_c, 0, 59, 28
3, 6120, Note_on_c, 0, 51, 0
3, 6120, Note_on_c, 0, 51, 24
3, 6144, Note_on_c, 0, 51, 0
3, 6144, Note_on_c, 0, 59, 0
3, 6144, Note_on_c, 0, 58, 28
3, 6168, Note_on_c, 0, 58, 0
3, 6168, Note_on_c, 0, 51, 24
3, 6192, Note_on_c, 0, 63, 32
3, 6216, Note_on_c, 0, 63, 0
3, 6216, Note_on_c, 0, 61, 30
3, 6240, Note_on_c, 0, 61, 0
3, 6240, Note_on_c, 0, 59, 28
3, 6264, Note_on_c, 0, 51, 0
3, 6264, Note_on_c, 0, 51, 23
3, 6288, Note_on_c, 0, 59, 0
3, 6288, Note_on_c, 0, 62, 27
3, 6312, Note_on_c, 0, 51, 0
3, 6312, Note_on_c, 0, 51, 22
3, 6336, Note_on_c, 0, 51, 0
3, 6336, Note_on_c, 0, 62, 0
3, 6336, Note_on_c, 0, 63, 25
3, 6360, Note_on_c, 0, 51, 20
3, 6384, Note_on_c, 0, 63, 0
3, 6384, Note_on_c, 0, 62, 28
3, 6408, Note_on_c, 0, 51, 0
3, 6408, Note_on_c, 0, 51, 24
3, 6432, Note_on_c, 0, 62, 0
3, 6432, Note_on_c, 0, 61, 29
3, 6456, Note_on_c, 0, 51, 0
3, 6456, Note_on_c, 0, 51, 24
3, 6480, Note_on_c, 0, 61, 0
3, 6480, Note_on_c, 0, 59, 30
3, 6504, Note_on_c, 0, 51, 0
3, 6504, Note_on_c, 0, 51, 24
3, 6528, Note_on_c, 0, 59, 0
3, 6528, Note_on_c, 0, 58, 30
3, 6552, Note_on_c, 0, 58, 0
3, 6552, Note_on_c, 0, 51, 0
3, 6552, Note_on_c, 0, 51, 26
3, 6576, Note_on_c, 0, 63, 34
3, 6600, Note_on_c, 0, 63, 0
3, 6600, Note_on_c, 0, 61, 32
3, 6624, Note_on_c, 0, 61, 0
3, 6624, Note_on_c, 0, 59, 30
3, 6648, Note_on_c, 0, 51, 0
3, 6648, Note_on_c, 0, 51, 28
3, 6672, Note_on_c, 0, 59, 0
3, 6672, Note_on_c, 0, 62, 32
3, 6696, Note_on_c, 0, 51, 0
3, 6696, Note_on_c, 0, 51, 26
3, 6718, Note_on_c, 0, 51, 0
3, 6718, Note_on_c, 0, 62, 0
3, 6720, Note_on_c, 0, 39, 36
3, 6744, Note_on_c, 0, 39, 0
3, 6744, Note_on_c, 0, 55, 34
3, 6768, Note_on_c, 0, 55, 0
3, 6768, Note_on_c, 0, 58, 36
3, 6792, Note_on_c, 0, 58, 0
3, 6792, Note_on_c, 0, 63, 36
3, 6814, Note_on_c, 0, 63, 0
3, 6816, Note_on_c, 0, 40, 40
3, 6840, Note_on_c, 0, 40, 0
3, 6840, Note_on_c, 0, 52, 36
3, 6864, Note_on_c, 0, 52, 0
3, 6864, Note_on_c, 0, 56, 38
3, 6888, Note_on_c, 0, 56, 0
3, 6888, Note_on_c, 0, 61, 34
3, 6898, Note_on_c, 0, 61, 0
3, 6912, Note_on_c, 0, 31, 30
3, 6924, Note_on_c, 0, 31, 0
3, 6936, Note_on_c, 0, 52, 23
3, 6960, Note_on_c, 0, 52, 0
3, 6960, Note_on_c, 0, 59, 25
3, 6984, Note_on_c, 0, 59, 0
3, 6984, Note_on_c, 0, 64, 27
3, 7006, Note_on_c, 0, 64, 0
3, 7008, Note_on_c, 0, 30, 25
3, 7020, Note_on_c, 0, 30, 0
3, 7032, Note_on_c, 0, 54, 23
3, 7056, Note_on_c, 0, 54, 0
3, 7056, Note_on_c, 0, 58, 30
3, 7080, Note_on_c, 0, 58, 0
3, 7080, Note_on_c, 0, 64, 28
3, 7102, Note_on_c, 0, 64, 0
3, 7104, Note_on_c, 0, 36, 40
3, 7128, Note_on_c, 0, 36, 0
3, 7128, Note_on_c, 0, 48, 38
3, 7152, Note_on_c, 0, 48, 0
3, 7152, Note_on_c, 0, 56, 36
3, 7176, Note_on_c, 0, 56, 0
3, 7176, Note_on_c, 0, 63, 34
3, 7198, Note_on_c, 0, 63, 0
3, 7200, Note_on_c, 0, 37, 32
3, 7224, Note_on_c, 0, 37, 0
3, 7224, Note_on_c, 0, 49, 35
3, 7248, Note_on_c, 0, 49, 0
3, 7248, Note_on_c, 0, 59, 35
3, 7272, Note_on_c, 0, 59, 0
3, 7272, Note_on_c, 0, 65, 34
3, 7294, Note_on_c, 0, 65, 0
3, 7296, Note_on_c, 0, 42, 34
3, 7320, Note_on_c, 0, 42, 0
3, 7320, Note_on_c, 0, 54, 36
3, 7344, Note_on_c, 0, 54, 0
3, 7344, Note_on_c, 0, 58, 38
3, 7368, Note_on_c, 0, 58, 0
3, 7368, Note_on_c, 0, 64, 36
3, 7390, Note_on_c, 0, 64, 0
3, 7392, Note_on_c, 0, 47, 38
3, 7416, Note_on_c, 0, 47, 0
3, 7416, Note_on_c, 0, 54, 40
3, 7440, Note_on_c, 0, 54, 0
3, 7440, Note_on_c, 0, 59, 42
3, 7464, Note_on_c, 0, 59, 0
3, 7464, Note_on_c, 0, 63, 40
3, 7486, Note_on_c, 0, 63, 0
3, 7488, Note_on_c, 0, 40, 40
3, 7504, Note_on_c, 0, 40, 0
3, 7504, Note_on_c, 0, 52, 44
3, 7520, Note_on_c, 0, 52, 0
3, 7520, Note_on_c, 0, 56, 46
3, 7536, Note_on_c, 0, 56, 0
3, 7536, Note_on_c, 0, 63, 42
3, 7560, Note_on_c, 0, 63, 0
3, 7560, Note_on_c, 0, 61, 40
3, 7584, Note_on_c, 0, 61, 0
3, 7584, Note_on_c, 0, 68, 38
3, 7630, Note_on_c, 0, 68, 0
3, 7680, Note_on_c, 0, 30, 35
3, 7734, Note_on_c, 0, 30, 0
3, 7736, Note_on_c, 0, 54, 28
3, 7790, Note_on_c, 0, 63, 26
3, 7790, Note_on_c, 0, 66, 30
3, 7842, Note_on_c, 0, 66, 0
3, 7842, Note_on_c, 0, 63, 0
3, 7842, Note_on_c, 0, 61, 20
3, 7842, Note_on_c, 0, 64, 24
3, 7886, Note_on_c, 0, 64, 0
3, 7886, Note_on_c, 0, 61, 0
3, 7886, Note_on_c, 0, 54, 0
3, 7888, Note_on_c, 0, 35, 24
3, 7912, Note_on_c, 0, 35, 0
3, 7912, Note_on_c, 0, 54, 20
3, 7936, Note_on_c, 0, 54, 0
3, 7936, Note_on_c, 0, 63, 24
3, 7936, Note_on_c, 0, 66, 28
3, 7960, Note_on_c, 0, 66, 0
3, 7960, Note_on_c, 0, 63, 0
3, 7960, Note_on_c, 0, 54, 20
3, 7984, Note_on_c, 0, 54, 0
3, 7984, Note_on_c, 0, 61, 23
3, 7984, Note_on_c, 0, 64, 27
3, 8008, Note_on_c, 0, 64, 0
3, 8008, Note_on_c, 0, 61, 0
3, 8008, Note_on_c, 0, 54, 20
3, 8032, Note_on_c, 0, 54, 0
3, 8032, Note_on_c, 0, 59, 22
3, 8032, Note_on_c, 0, 63, 26
3, 8056, Note_on_c, 0, 63, 0
3, 8056, Note_on_c, 0, 59, 0
3, 8056, Note_on_c, 0, 54, 20
3, 8078, Note_on_c, 0, 54, 0
3, 8080, Note_on_c, 0, 42, 24
3, 8104, Note_on_c, 0, 42, 0
3, 8104, Note_on_c, 0, 49, 26
3, 8128, Note_on_c, 0, 49, 0
3, 8128, Note_on_c, 0, 54, 26
3, 8128, Note_on_c, 0, 58, 30
3, 8152, Note_on_c, 0, 58, 0
3, 8152, Note_on_c, 0, 54, 0
3, 8152, Note_on_c, 0, 49, 26
3, 8176, Note_on_c, 0, 49, 0
3, 8176, Note_on_c, 0, 46, 25
3, 8200, Note_on_c, 0, 46, 0
3, 8200, Note_on_c, 0, 49, 27
3, 8224, Note_on_c, 0, 49, 0
3, 8224, Note_on_c, 0, 54, 26
3, 8224, Note_on_c, 0, 61, 32
3, 8248, Note_on_c, 0, 61, 0
3, 8248, Note_on_c, 0, 54, 0
3, 8248, Note_on_c, 0, 49, 27
3, 8270, Note_on_c, 0, 49, 0
3, 8272, Note_on_c, 0, 37, 24
3, 8284, Note_on_c, 0, 37, 0
3, 8296, Note_on_c, 0, 49, 26
3, 8320, Note_on_c, 0, 49, 0
3, 8320, Note_on_c, 0, 53, 27
3, 8320, Note_on_c, 0, 59, 31
3, 8344, Note_on_c, 0, 59, 0
3, 8344, Note_on_c, 0, 53, 0
3, 8344, Note_on_c, 0, 49, 26
3, 8366, Note_on_c, 0, 49, 0
3, 8368, Note_on_c, 0, 42, 23
3, 8392, Note_on_c, 0, 42, 0
3, 8392, Note_on_c, 0, 49, 24
3, 8416, Note_on_c, 0, 49, 0
3, 8416, Note_on_c, 0, 54, 24
3, 8416, Note_on_c, 0, 58, 28
3, 8440, Note_on_c, 0, 58, 0
3, 8440, Note_on_c, 0, 54, 0
3, 8440, Note_on_c, 0, 49, 24
3, 8462, Note_on_c, 0, 49, 0
3, 8464, Note_on_c, 0, 42, 28
3, 8488, Note_on_c, 0, 42, 0
3, 8488, Note_on_c, 0, 49, 27
3, 8512, Note_on_c, 0, 49, 0
3, 8512, Note_on_c, 0, 54, 28
3, 8512, Note_on_c, 0, 58, 32
3, 8536, Note_on_c, 0, 58, 0
3, 8536, Note_on_c, 0, 54, 0
3, 8536, Note_on_c, 0, 49, 29
3, 8558, Note_on_c, 0, 49, 0
3, 8560, Note_on_c, 0, 42, 32
3, 8584, Note_on_c, 0, 42, 0
3, 8584, Note_on_c, 0, 49, 29
3, 8608, Note_on_c, 0, 49, 0
3, 8608, Note_on_c, 0, 61, 32
3, 8632, Note_on_c, 0, 61, 0
3, 8632, Note_on_c, 0, 49, 27
3, 8654, Note_on_c, 0, 49, 0
3, 8656, Note_on_c, 0, 37, 28
3, 8680, Note_on_c, 0, 37, 0
3, 8680, Note_on_c, 0, 49, 28
3, 8704, Note_on_c, 0, 49, 0
3, 8704, Note_on_c, 0, 53, 26
3, 8704, Note_on_c, 0, 59, 30
3, 8728, Note_on_c, 0, 59, 0
3, 8728, Note_on_c, 0, 53, 0
3, 8728, Note_on_c, 0, 49, 28
3, 8750, Note_on_c, 0, 49, 0
3, 8752, Note_on_c, 0, 42, 30
3, 8776, Note_on_c, 0, 42, 0
3, 8776, Note_on_c, 0, 49, 30
3, 8800, Note_on_c, 0, 49, 0
3, 8800, Note_on_c, 0, 58, 30
3, 8824, Note_on_c, 0, 58, 0
3, 8824, Note_on_c, 0, 50, 40
3, 8846, Note_on_c, 0, 50, 0
3, 8848, Note_on_c, 0, 39, 40
3, 8872, Note_on_c, 0, 39, 0
3, 8872, Note_on_c, 0, 46, 40
3, 8896, Note_on_c, 0, 46, 0
3, 8896, Note_on_c, 0, 51, 32
3, 8896, Note_on_c, 0, 54, 34
3, 8896, Note_on_c, 0, 58, 36
3, 8920, Note_on_c, 0, 58, 0
3, 8920, Note_on_c, 0, 54, 0
3, 8920, Note_on_c, 0, 51, 0
3, 8920, Note_on_c, 0, 46, 40
3, 8942, Note_on_c, 0, 46, 0
3, 8944, Note_on_c, 0, 39, 36
3, 8968, Note_on_c, 0, 39, 0
3, 8968, Note_on_c, 0, 46, 34
3, 8992, Note_on_c, 0, 46, 0
3, 8992, Note_on_c, 0, 58, 36
3, 9016, Note_on_c, 0, 58, 0
3, 9016, Note_on_c, 0, 46, 34
3, 9038, Note_on_c, 0, 46, 0
3, 9040, Note_on_c, 0, 34, 36
3, 9064, Note_on_c, 0, 34, 0
3, 9064, Note_on_c, 0, 46, 34
3, 9088, Note_on_c, 0, 46, 0
3, 9088, Note_on_c, 0, 53, 32
3, 9112, Note_on_c, 0, 53, 0
3, 9112, Note_on_c, 0, 56, 32
3, 9134, Note_on_c, 0, 56, 0
3, 9136, Note_on_c, 0, 39, 34
3, 9160, Note_on_c, 0, 39, 0
3, 9160, Note_on_c, 0, 46, 32
3, 9184, Note_on_c, 0, 46, 0
3, 9184, Note_on_c, 0, 54, 35
3, 9208, Note_on_c, 0, 54, 0
3, 9208, Note_on_c, 0, 51, 38
3, 9230, Note_on_c, 0, 51, 0
3, 9232, Note_on_c, 0, 45, 48
3, 9256, Note_on_c, 0, 45, 0
3, 9256, Note_on_c, 0, 51, 36
3, 9280, Note_on_c, 0, 51, 0
3, 9280, Note_on_c, 0, 60, 38
3, 9304, Note_on_c, 0, 60, 0
3, 9304, Note_on_c, 0, 53, 36
3, 9326, Note_on_c, 0, 53, 0
3, 9328, Note_on_c, 0, 46, 38
3, 9352, Note_on_c, 0, 46, 0
3, 9352, Note_on_c, 0, 53, 35
3, 9376, Note_on_c, 0, 53, 0
3, 9376, Note_on_c, 0, 61, 32
3, 9400, Note_on_c, 0, 61, 0
3, 9400, Note_on_c, 0, 58, 30
3, 9422, Note_on_c, 0, 58, 0
3, 9424, Note_on_c, 0, 51, 26
3, 9424, Note_on_c, 0, 66, 30
3, 9448, Note_on_c, 0, 66, 0
3, 9448, Note_on_c, 0, 58, 24
3, 9472, Note_on_c, 0, 58, 0
3, 9472, Note_on_c, 0, 51, 0
3, 9472, Note_on_c, 0, 53, 16
3, 9472, Note_on_c, 0, 57, 18
3, 9472, Note_on_c, 0, 65, 20
3, 9496, Note_on_c, 0, 65, 0
3, 9496, Note_on_c, 0, 63, 24
3, 9518, Note_on_c, 0, 63, 0
3, 9520, Note_on_c, 0, 57, 0
3, 9520, Note_on_c, 0, 53, 0
3, 9520, Note_on_c, 0, 46, 28
3, 9544, Note_on_c, 0, 46, 0
3, 9544, Note_on_c, 0, 53, 26
3, 9568, Note_on_c, 0, 53, 0
3, 9568, Note_on_c, 0, 61, 34
3, 9592, Note_on_c, 0, 61, 0
3, 9592, Note_on_c, 0, 52, 32
3, 9592, Note_on_c, 0, 56, 36
3, 9614, Note_on_c, 0, 56, 0
3, 9614, Note_on_c, 0, 52, 0
3, 9616, Note_on_c, 0, 39, 42
3, 9640, Note_on_c, 0, 39, 0
3, 9640, Note_on_c, 0, 51, 34
3, 9664, Note_on_c, 0, 51, 0
3, 9664, Note_on_c, 0, 55, 26
3, 9664, Note_on_c, 0, 61, 30
3, 9688, Note_on_c, 0, 61, 0
3, 9688, Note_on_c, 0, 55, 0
3, 9688, Note_on_c, 0, 51, 28
3, 9710, Note_on_c, 0, 51, 0
3, 9712, Note_on_c, 0, 44, 34
3, 9736, Note_on_c, 0, 44, 0
3, 9736, Note_on_c, 0, 51, 31
3, 9760, Note_on_c, 0, 51, 0
3, 9760, Note_on_c, 0, 56, 26
3, 9760, Note_on_c, 0, 59, 30
3, 9784, Note_on_c, 0, 59, 0
3, 9784, Note_on_c, 0, 56, 0
3, 9784, Note_on_c, 0, 51, 30
3, 9806, Note_on_c, 0, 51, 0
3, 9808, Note_on_c, 0, 49, 23
3, 9808, Note_on_c, 0, 64, 27
3, 9832, Note_on_c, 0, 64, 0
3, 9832, Note_on_c, 0, 56, 24
3, 9856, Note_on_c, 0, 56, 0
3, 9856, Note_on_c, 0, 49, 0
3, 9856, Note_on_c, 0, 51, 18
3, 9856, Note_on_c, 0, 55, 20
3, 9856, Note_on_c, 0, 63, 26
3, 9880, Note_on_c, 0, 63, 0
3, 9880, Note_on_c, 0, 61, 24
3, 9902, Note_on_c, 0, 61, 0
3, 9904, Note_on_c, 0, 55, 0
3, 9904, Note_on_c, 0, 51, 0
3, 9904, Note_on_c, 0, 44, 26
3, 9928, Note_on_c, 0, 44, 0
3, 9928, Note_on_c, 0, 51, 26
3, 9952, Note_on_c, 0, 51, 0
3, 9952, Note_on_c, 0, 56, 26
3, 9952, Note_on_c, 0, 59, 28
3, 9976, Note_on_c, 0, 59, 0
3, 9976, Note_on_c, 0, 56, 0
3, 9976, Note_on_c, 0, 51, 26
3, 9998, Note_on_c, 0, 51, 0
3, 10000, Note_on_c, 0, 39, 28
3, 10012, Note_on_c, 0, 39, 0
3, 10024, Note_on_c, 0, 51, 26
3, 10048, Note_on_c, 0, 62, 30
3, 10072, Note_on_c, 0, 51, 0
3, 10072, Note_on_c, 0, 51, 26
3, 10096, Note_on_c, 0, 62, 0
3, 10096, Note_on_c, 0, 61, 29
3, 10120, Note_on_c, 0, 51, 0
3, 10120, Note_on_c, 0, 51, 25
3, 10144, Note_on_c, 0, 61, 0
3, 10144, Note_on_c, 0, 59, 28
3, 10168, Note_on_c, 0, 51, 0
3, 10168, Note_on_c, 0, 51, 24
3, 10192, Note_on_c, 0, 51, 0
3, 10192, Note_on_c, 0, 59, 0
3, 10192, Note_on_c, 0, 58, 28
3, 10216, Note_on_c, 0, 58, 0
3, 10216, Note_on_c, 0, 51, 24
3, 10240, Note_on_c, 0, 63, 32
3, 10264, Note_on_c, 0, 63, 0
3, 10264, Note_on_c, 0, 61, 30
3, 10288, Note_on_c, 0, 61, 0
3, 10288, Note_on_c, 0, 59, 28
3, 10312, Note_on_c, 0, 51, 0
3, 10312, Note_on_c, 0, 51, 23
3, 10336, Note_on_c, 0, 59, 0
3, 10336, Note_on_c, 0, 62, 27
3, 10360, Note_on_c, 0, 51, 0
3, 10360, Note_on_c, 0, 51, 22
3, 10384, Note_on_c, 0, 51, 0
3, 10384, Note_on_c, 0, 62, 0
3, 10384, Note_on_c, 0, 63, 25
3, 10408, Note_on_c, 0, 51, 20
3, 10432, Note_on_c, 0, 63, 0
3, 10432, Note_on_c, 0, 62, 28
3, 10456, Note_on_c, 0, 51, 0
3, 10456, Note_on_c, 0, 51, 24
3, 10480, Note_on_c, 0, 62, 0
3, 10480, Note_on_c, 0, 61, 29
3, 10504, Note_on_c, 0, 51, 0
3, 10504, Note_on_c, 0, 51, 24
3, 10528, Note_on_c, 0, 61, 0
3, 10528, Note_on_c, 0, 59, 30
3, 10552, Note_on_c, 0, 51, 0
3, 10552, Note_on_c, 0, 51, 24
3, 10576, Note_on_c, 0, 59, 0
3, 10576, Note_on_c, 0, 58, 30
3, 10600, Note_on_c, 0, 58, 0
3, 10600, Note_on_c, 0, 51, 0
3, 10600, Note_on_c, 0, 51, 26
3, 10624, Note_on_c, 0, 63, 34
3, 10648, Note_on_c, 0, 63, 0
3, 10648, Note_on_c, 0, 61, 32
3, 10672, Note_on_c, 0, 61, 0
3, 10672, Note_on_c, 0, 59, 30
3, 10696, Note_on_c, 0, 51, 0
3, 10696, Note_on_c, 0, 51, 28
3, 10720, Note_on_c, 0, 59, 0
3, 10720, Note_on_c, 0, 62, 32
3, 10744, Note_on_c, 0, 51, 0
3, 10744, Note_on_c, 0, 51, 26
3, 10766, Note_on_c, 0, 51, 0
3, 10766, Note_on_c, 0, 62, 0
3, 10768, Note_on_c, 0, 39, 36
3, 10792, Note_on_c, 0, 39, 0
3, 10792, Note_on_c, 0, 55, 34
3, 10816, Note_on_c, 0, 55, 0
3, 10816, Note_on_c, 0, 58, 36
3, 10840, Note_on_c, 0, 58, 0
3, 10840, Note_on_c, 0, 63, 36
3, 10862, Note_on_c, 0, 63, 0
3, 10864, Note_on_c, 0, 40, 40
3, 10888, Note_on_c, 0, 40, 0
3, 10888, Note_on_c, 0, 52, 36
3, 10912, Note_on_c, 0, 52, 0
3, 10912, Note_on_c, 0, 56, 38
3, 10936, Note_on_c, 0, 56, 0
3, 10936, Note_on_c, 0, 61, 34
3, 10946, Note_on_c, 0, 61, 0
3, 10960, Note_on_c, 0, 31, 30
3, 10972, Note_on_c, 0, 31, 0
3, 10984, Note_on_c, 0, 52, 23
3, 11008, Note_on_c, 0, 52, 0
3, 11008, Note_on_c, 0, 59, 25
3, 11032, Note_on_c, 0, 59, 0
3, 11032, Note_on_c, 0, 64, 27
3, 11054, Note_on_c, 0, 64, 0
3, 11056, Note_on_c, 0, 30, 25
3, 11068, Note_on_c, 0, 30, 0
3, 11080, Note_on_c, 0, 54, 23
3, 11104, Note_on_c, 0, 54, 0
3, 11104, Note_on_c, 0, 58, 30
3, 11128, Note_on_c, 0, 58, 0
3, 11128, Note_on_c, 0, 64, 28
3, 11150, Note_on_c, 0, 64, 0
3, 11152, Note_on_c, 0, 36, 40
3, 11176, Note_on_c, 0, 36, 0
3, 11176, Note_on_c, 0, 48, 38
3, 11200, Note_on_c, 0, 48, 0
3, 11200, Note_on_c, 0, 56, 36
3, 11224, Note_on_c, 0, 56, 0
3, 11224, Note_on_c, 0, 63, 34
3, 11246, Note_on_c, 0, 63, 0
3, 11248, Note_on_c, 0, 37, 32
3, 11272, Note_on_c, 0, 37, 0
3, 11272, Note_on_c, 0, 49, 35
3, 11296, Note_on_c, 0, 49, 0
3, 11296, Note_on_c, 0, 59, 35
3, 11320, Note_on_c, 0, 59, 0
3, 11320, Note_on_c, 0, 65, 34
3, 11342, Note_on_c, 0, 65, 0
3, 11344, Note_on_c, 0, 42, 34
3, 11368, Note_on_c, 0, 42, 0
3, 11368, Note_on_c, 0, 54, 36
3, 11392, Note_on_c, 0, 54, 0
3, 11392, Note_on_c, 0, 58, 38
3, 11416, Note_on_c, 0, 58, 0
3, 11416, Note_on_c, 0, 64, 36
3, 11438, Note_on_c, 0, 64, 0
3, 11440, Note_on_c, 0, 47, 38
3, 11464, Note_on_c, 0, 47, 0
3, 11464, Note_on_c, 0, 54, 40
3, 11488, Note_on_c, 0, 54, 0
3, 11488, Note_on_c, 0, 59, 42
3, 11512, Note_on_c, 0, 59, 0
3, 11512, Note_on_c, 0, 63, 40
3, 11534, Note_on_c, 0, 63, 0
3, 11536, Note_on_c, 0, 40, 40
3, 11552, Note_on_c, 0, 40, 0
3, 11552, Note_on_c, 0, 52, 44
3, 11568, Note_on_c, 0, 52, 0
3, 11568, Note_on_c, 0, 56, 46
3, 11584, Note_on_c, 0, 56, 0
3, 11584, Note_on_c, 0, 63, 42
3, 11608, Note_on_c, 0, 63, 0
3, 11608, Note_on_c, 0, 61, 40
3, 11632, Note_on_c, 0, 61, 0
3, 11632, Note_on_c, 0, 68, 38
3, 11678, Note_on_c, 0, 68, 0
3, 11836, Note_on_c, 0, 30, 35
3, 11890, Note_on_c, 0, 30, 0
3, 11892, Note_on_c, 0, 54, 28
3, 11946, Note_on_c, 0, 63, 28
3, 11946, Note_on_c, 0, 66, 32
3, 11998, Note_on_c, 0, 66, 0
3, 11998, Note_on_c, 0, 63, 0
3, 11998, Note_on_c, 0, 61, 20
3, 11998, Note_on_c, 0, 64, 24
3, 12042, Note_on_c, 0, 54, 0
3, 12054, Note_on_c, 0, 64, 0
3, 12054, Note_on_c, 0, 61, 0
3, 12056, Note_on_c, 0, 29, 30
3, 12056, Note_on_c, 0, 41, 30
3, 12078, Note_on_c, 0, 41, 0
3, 12080, Note_on_c, 0, 41, 28
3, 12102, Note_on_c, 0, 41, 0
3, 12104, Note_on_c, 0, 41, 32
3, 12118, Note_on_c, 0, 41, 0
3, 12120, Note_on_c, 0, 41, 31
3, 12134, Note_on_c, 0, 41, 0
3, 12136, Note_on_c, 0, 41, 33
3, 12150, Note_on_c, 0, 41, 0
3, 12152, Note_on_c, 0, 41, 38
3, 12174, Note_on_c, 0, 41, 0
3, 12176, Note_on_c, 0, 41, 37
3, 12198, Note_on_c, 0, 41, 0
3, 12200, Note_on_c, 0, 41, 32
3, 12214, Note_on_c, 0, 41, 0
3, 12216, Note_on_c, 0, 41, 30
3, 12230, Note_on_c, 0, 41, 0
3, 12232, Note_on_c, 0, 41, 28
3, 12246, Note_on_c, 0, 41, 0
3, 12248, Note_on_c, 0, 41, 26
3, 12390, Note_on_c, 0, 41, 0
3, 12390, Note_on_c, 0, 29, 0
3, 12488, Note_on_c, 0, 38, 65
3, 12488, Note_on_c, 0, 47, 60
3, 12488, Note_on_c, 0, 50, 60
3, 12488, Note_on_c, 0, 53, 60
3, 12534, Note_on_c, 0, 53, 0
3, 12534, Note_on_c, 0, 50, 0
3, 12534, Note_on_c, 0, 47, 0
3, 12534, Note_on_c, 0, 38, 0
3, 12680, Note_on_c, 0, 41, 75
3, 12680, Note_on_c, 0, 47, 70
3, 12680, Note_on_c, 0, 50, 70
3, 12680, Note_on_c, 0, 53, 70
3, 12680, Note_on_c, 0, 55, 70
3, 12726, Note_on_c, 0, 55, 0
3, 12726, Note_on_c, 0, 53, 0
3, 12726, Note_on_c, 0, 50, 0
3, 12726, Note_on_c, 0, 47, 0
3, 12726, Note_on_c, 0, 41, 0
3, 12776, Note_on_c, 0, 59, 26
3, 12800, Note_on_c, 0, 59, 0
3, 12800, Note_on_c, 0, 61, 39
3, 12824, Note_on_c, 0, 61, 0
3, 12824, Note_on_c, 0, 64, 34
3, 12848, Note_on_c, 0, 64, 0
3, 12848, Note_on_c, 0, 62, 42
3, 12872, Note_on_c, 0, 62, 0
3, 12872, Note_on_c, 0, 61, 48
3, 12896, Note_on_c, 0, 61, 0
3, 12896, Note_on_c, 0, 59, 46
3, 12920, Note_on_c, 0, 59, 0
3, 12920, Note_on_c, 0, 58, 50
3, 12944, Note_on_c, 0, 58, 0
3, 12944, Note_on_c, 0, 59, 56
3, 12968, Note_on_c, 0, 59, 0
3, 12968, Note_on_c, 0, 58, 54
3, 12992, Note_on_c, 0, 58, 0
3, 12992, Note_on_c, 0, 57, 60
3, 13016, Note_on_c, 0, 57, 0
3, 13016, Note_on_c, 0, 58, 70
3, 13040, Note_on_c, 0, 58, 0
3, 13040, Note_on_c, 0, 61, 62
3, 13064, Note_on_c, 0, 61, 0
3, 13064, Note_on_c, 0, 59, 56
3, 13100, Note_on_c, 0, 59, 0
3, 13100, Note_on_c, 0, 55, 66
3, 13110, Note_on_c, 0, 55, 0
3, 13112, Note_on_c, 0, 55, 66
3, 13130, Note_on_c, 0, 55, 0
3, 13130, Note_on_c, 0, 42, 58
3, 13136, Note_on_c, 0, 42, 0
3, 13136, Note_on_c, 0, 47, 62
3, 13142, Note_on_c, 0, 47, 0
3, 13142, Note_on_c, 0, 50, 66
3, 13148, Note_on_c, 0, 50, 0
3, 13148, Note_on_c, 0, 54, 70
3, 13154, Note_on_c, 0, 54, 0
3, 13154, Note_on_c, 0, 57, 74
3, 13160, Note_on_c, 0, 57, 0
3, 13160, Note_on_c, 0, 55, 70
3, 13182, Note_on_c, 0, 55, 0
3, 13196, Note_on_c, 0, 54, 76
3, 13206, Note_on_c, 0, 54, 0
3, 13208, Note_on_c, 0, 54, 80
3, 13232, Note_on_c, 0, 42, 70
3, 13232, Note_on_c, 0, 51, 74
3, 13244, Note_on_c, 0, 51, 0
3, 13244, Note_on_c, 0, 42, 0
3, 13256, Note_on_c, 0, 42, 74
3, 13256, Note_on_c, 0, 50, 78
3, 13265, Note_on_c, 0, 50, 0
3, 13265, Note_on_c, 0, 42, 0
3, 13302, Note_on_c, 0, 54, 0
3, 13400, Note_on_c, 0, 49, 66
3, 13448, Note_on_c, 0, 42, 48
3, 13494, Note_on_c, 0, 42, 0
3, 13496, Note_on_c, 0, 42, 44
3, 13512, Note_on_c, 0, 49, 0
3, 13512, Note_on_c, 0, 49, 46
3, 13528, Note_on_c, 0, 49, 0
3, 13528, Note_on_c, 0, 49, 52
3, 13542, Note_on_c, 0, 42, 0
3, 13544, Note_on_c, 0, 49, 0
3, 13544, Note_on_c, 0, 49, 60
3, 13560, Note_on_c, 0, 49, 0
3, 13560, Note_on_c, 0, 49, 66
3, 13576, Note_on_c, 0, 49, 0
3, 13576, Note_on_c, 0, 49, 64
3, 13592, Note_on_c, 0, 49, 0
3, 13592, Note_on_c, 0, 49, 62
3, 13640, Note_on_c, 0, 49, 0
3, 13640, Note_on_c, 0, 50, 72
3, 13688, Note_on_c, 0, 42, 66
3, 13736, Note_on_c, 0, 42, 0
3, 13736, Note_on_c, 0, 42, 70
3, 13782, Note_on_c, 0, 42, 0
3, 13782, Note_on_c, 0, 50, 0
3, 13832, Note_on_c, 0, 46, 76
3, 13880, Note_on_c, 0, 46, 0
3, 13880, Note_on_c, 0, 46, 90
3, 13928, Note_on_c, 0, 46, 0
3, 13928, Note_on_c, 0, 47, 100
3, 14024, Note_on_c, 0, 40, 88
3, 14072, Note_on_c, 0, 40, 0
3, 14072, Note_on_c, 0, 35, 102
3, 14120, Note_on_c, 0, 35, 0
3, 14252, Note_on_c, 0, 47, 0
3, 14264, End_track
4, 0, Start_track
4, 0, Title_t, "PEDAL"
4, 0, MIDI_port, 0
4, 192, Control_c, 0, 64, 0
4, 200, Control_c, 0, 64, 127
4, 290, Control_c, 0, 64, 0
4, 384, Control_c, 0, 64, 0
4, 392, Control_c, 0, 64, 127
4, 482, Control_c, 0, 64, 0
4, 576, Control_c, 0, 64, 0
4, 584, Control_c, 0, 64, 127
4, 674, Control_c, 0, 64, 0
4, 768, Control_c, 0, 64, 0
4, 960, Control_c, 0, 64, 0
4, 968, Control_c, 0, 64, 127
4, 1058, Control_c, 0, 64, 0
4, 1064, Control_c, 0, 64, 127
4, 1152, Control_c, 0, 64, 127
4, 1154, Control_c, 0, 64, 0
4, 1160, Control_c, 0, 64, 127
4, 1250, Control_c, 0, 64, 0
4, 1256, Control_c, 0, 64, 127
4, 1336, Control_c, 0, 64, 0
4, 1344, Control_c, 0, 64, 0
4, 1352, Control_c, 0, 64, 127
4, 1442, Control_c, 0, 64, 0
4, 1448, Control_c, 0, 64, 127
4, 1536, Control_c, 0, 64, 127
4, 1538, Control_c, 0, 64, 0
4, 1728, Control_c, 0, 64, 0
4, 1920, Control_c, 0, 64, 0
4, 2112, Control_c, 0, 64, 0
4, 2304, Control_c, 0, 64, 0
4, 2312, Control_c, 0, 64, 127
4, 2354, Control_c, 0, 64, 0
4, 2496, Control_c, 0, 64, 0
4, 2504, Control_c, 0, 64, 127
4, 2594, Control_c, 0, 64, 0
4, 2688, Control_c, 0, 64, 0
4, 2880, Control_c, 0, 64, 0
4, 2888, Control_c, 0, 64, 127
4, 2978, Control_c, 0, 64, 0
4, 3072, Control_c, 0, 64, 0
4, 3264, Control_c, 0, 64, 0
4, 3272, Control_c, 0, 64, 127
4, 3362, Control_c, 0, 64, 0
4, 3368, Control_c, 0, 64, 127
4, 3456, Control_c, 0, 64, 127
4, 3458, Control_c, 0, 64, 0
4, 3464, Control_c, 0, 64, 127
4, 3554, Control_c, 0, 64, 0
4, 3560, Control_c, 0, 64, 127
4, 3640, Control_c, 0, 64, 0
4, 3648, Control_c, 0, 64, 0
4, 3656, Control_c, 0, 64, 127
4, 3746, Control_c, 0, 64, 0
4, 3752, Control_c, 0, 64, 127
4, 3840, Control_c, 0, 64, 127
4, 3842, Control_c, 0, 64, 0
4, 3848, Control_c, 0, 64, 127
4, 4032, Control_c, 0, 64, 127
4, 4034, Control_c, 0, 64, 0
4, 4040, Control_c, 0, 64, 127
4, 4130, Control_c, 0, 64, 0
4, 4136, Control_c, 0, 64, 127
4, 4224, Control_c, 0, 64, 127
4, 4226, Control_c, 0, 64, 0
4, 4232, Control_c, 0, 64, 127
4, 4322, Control_c, 0, 64, 0
4, 4328, Control_c, 0, 64, 127
4, 4416, Control_c, 0, 64, 127
4, 4418, Control_c, 0, 64, 0
4, 4424, Control_c, 0, 64, 127
4, 4514, Control_c, 0, 64, 0
4, 4520, Control_c, 0, 64, 127
4, 4608, Control_c, 0, 64, 127
4, 4610, Control_c, 0, 64, 0
4, 4616, Control_c, 0, 64, 127
4, 4706, Control_c, 0, 64, 0
4, 4712, Control_c, 0, 64, 127
4, 4800, Control_c, 0, 64, 127
4, 4802, Control_c, 0, 64, 0
4, 4808, Control_c, 0, 64, 127
4, 4898, Control_c, 0, 64, 0
4, 4904, Control_c, 0, 64, 127
4, 4992, Control_c, 0, 64, 127
4, 4994, Control_c, 0, 64, 0
4, 5000, Control_c, 0, 64, 127
4, 5090, Control_c, 0, 64, 0
4, 5096, Control_c, 0, 64, 127
4, 5184, Control_c, 0, 64, 127
4, 5186, Control_c, 0, 64, 0
4, 5192, Control_c, 0, 64, 127
4, 5282, Control_c, 0, 64, 0
4, 5288, Control_c, 0, 64, 127
4, 5376, Control_c, 0, 64, 127
4, 5378, Control_c, 0, 64, 0
4, 5384, Control_c, 0, 64, 127
4, 5426, Control_c, 0, 64, 0
4, 5432, Control_c, 0, 64, 127
4, 5474, Control_c, 0, 64, 0
4, 5480, Control_c, 0, 64, 127
4, 5568, Control_c, 0, 64, 127
4, 5570, Control_c, 0, 64, 0
4, 5576, Control_c, 0, 64, 127
4, 5666, Control_c, 0, 64, 0
4, 5672, Control_c, 0, 64, 127
4, 5760, Control_c, 0, 64, 127
4, 5762, Control_c, 0, 64, 0
4, 5768, Control_c, 0, 64, 127
4, 5810, Control_c, 0, 64, 0
4, 5816, Control_c, 0, 64, 127
4, 5858, Control_c, 0, 64, 0
4, 5864, Control_c, 0, 64, 127
4, 5952, Control_c, 0, 64, 127
4, 5954, Control_c, 0, 64, 0
4, 6144, Control_c, 0, 64, 0
4, 6336, Control_c, 0, 64, 0
4, 6528, Control_c, 0, 64, 0
4, 6720, Control_c, 0, 64, 0
4, 6728, Control_c, 0, 64, 127
4, 6818, Control_c, 0, 64, 0
4, 6824, Control_c, 0, 64, 127
4, 6904, Control_c, 0, 64, 0
4, 6912, Control_c, 0, 64, 0
4, 6920, Control_c, 0, 64, 127
4, 7010, Control_c, 0, 64, 0
4, 7016, Control_c, 0, 64, 127
4, 7104, Control_c, 0, 64, 127
4, 7106, Control_c, 0, 64, 0
4, 7112, Control_c, 0, 64, 127
4, 7202, Control_c, 0, 64, 0
4, 7208, Control_c, 0, 64, 127
4, 7296, Control_c, 0, 64, 127
4, 7298, Control_c, 0, 64, 0
4, 7304, Control_c, 0, 64, 127
4, 7394, Control_c, 0, 64, 0
4, 7400, Control_c, 0, 64, 127
4, 7488, Control_c, 0, 64, 127
4, 7490, Control_c, 0, 64, 0
4, 7496, Control_c, 0, 64, 127
4, 7610, Control_c, 0, 64, 0
4, 7680, Control_c, 0, 64, 0
4, 7688, Control_c, 0, 64, 127
4, 7790, Control_c, 0, 64, 0
4, 7888, Control_c, 0, 64, 0
4, 7896, Control_c, 0, 64, 127
4, 8080, Control_c, 0, 64, 127
4, 8082, Control_c, 0, 64, 0
4, 8088, Control_c, 0, 64, 127
4, 8178, Control_c, 0, 64, 0
4, 8184, Control_c, 0, 64, 127
4, 8272, Control_c, 0, 64, 127
4, 8274, Control_c, 0, 64, 0
4, 8280, Control_c, 0, 64, 127
4, 8370, Control_c, 0, 64, 0
4, 8376, Control_c, 0, 64, 127
4, 8464, Control_c, 0, 64, 127
4, 8466, Control_c, 0, 64, 0
4, 8472, Control_c, 0, 64, 127
4, 8562, Control_c, 0, 64, 0
4, 8568, Control_c, 0, 64, 127
4, 8656, Control_c, 0, 64, 127
4, 8658, Control_c, 0, 64, 0
4, 8664, Control_c, 0, 64, 127
4, 8754, Control_c, 0, 64, 0
4, 8760, Control_c, 0, 64, 127
4, 8848, Control_c, 0, 64, 127
4, 8850, Control_c, 0, 64, 0
4, 8856, Control_c, 0, 64, 127
4, 8946, Control_c, 0, 64, 0
4, 8952, Control_c, 0, 64, 127
4, 9040, Control_c, 0, 64, 127
4, 9042, Control_c, 0, 64, 0
4, 9048, Control_c, 0, 64, 127
4, 9138, Control_c, 0, 64, 0
4, 9144, Control_c, 0, 64, 127
4, 9232, Control_c, 0, 64, 127
4, 9234, Control_c, 0, 64, 0
4, 9240, Control_c, 0, 64, 127
4, 9330, Control_c, 0, 64, 0
4, 9336, Control_c, 0, 64, 127
4, 9424, Control_c, 0, 64, 127
4, 9426, Control_c, 0, 64, 0
4, 9432, Control_c, 0, 64, 127
4, 9474, Control_c, 0, 64, 0
4, 9480, Control_c, 0, 64, 127
4, 9522, Control_c, 0, 64, 0
4, 9528, Control_c, 0, 64, 127
4, 9616, Control_c, 0, 64, 127
4, 9618, Control_c, 0, 64, 0
4, 9624, Control_c, 0, 64, 127
4, 9714, Control_c, 0, 64, 0
4, 9720, Control_c, 0, 64, 127
4, 9808, Control_c, 0, 64, 127
4, 9810, Control_c, 0, 64, 0
4, 9816, Control_c, 0, 64, 127
4, 9858, Control_c, 0, 64, 0
4, 9864, Control_c, 0, 64, 127
4, 9906, Control_c, 0, 64, 0
4, 9912, Control_c, 0, 64, 127
4, 10000, Control_c, 0, 64, 127
4, 10002, Control_c, 0, 64, 0
4, 10192, Control_c, 0, 64, 0
4, 10384, Control_c, 0, 64, 0
4, 10576, Control_c, 0, 64, 0
4, 10768, Control_c, 0, 64, 0
4, 10776, Control_c, 0, 64, 127
4, 10866, Control_c, 0, 64, 0
4, 10872, Control_c, 0, 64, 127
4, 10952, Control_c, 0, 64, 0
4, 10960, Control_c, 0, 64, 0
4, 10968, Control_c, 0, 64, 127
4, 11058, Control_c, 0, 64, 0
4, 11064, Control_c, 0, 64, 127
4, 11152, Control_c, 0, 64, 127
4, 11154, Control_c, 0, 64, 0
4, 11160, Control_c, 0, 64, 127
4, 11250, Control_c, 0, 64, 0
4, 11256, Control_c, 0, 64, 127
4, 11344, Control_c, 0, 64, 127
4, 11346, Control_c, 0, 64, 0
4, 11352, Control_c, 0, 64, 127
4, 11442, Control_c, 0, 64, 0
4, 11448, Control_c, 0, 64, 127
4, 11536, Control_c, 0, 64, 127
4, 11538, Control_c, 0, 64, 0
4, 11544, Control_c, 0, 64, 127
4, 11694, Control_c, 0, 64, 0
4, 11836, Control_c, 0, 64, 0
4, 11838, Control_c, 0, 64, 127
4, 11948, Control_c, 0, 64, 0
4, 12056, Control_c, 0, 64, 0
4, 12062, Control_c, 0, 64, 127
4, 12248, Control_c, 0, 64, 127
4, 12392, Control_c, 0, 64, 0
4, 12494, Control_c, 0, 64, 127
4, 12536, Control_c, 0, 64, 0
4, 12688, Control_c, 0, 64, 127
4, 12730, Control_c, 0, 64, 0
4, 12922, Control_c, 0, 64, 0
4, 13114, Control_c, 0, 64, 127
4, 13156, Control_c, 0, 64, 0
4, 13170, Control_c, 0, 64, 127
4, 13184, Control_c, 0, 64, 0
4, 13206, Control_c, 0, 64, 127
4, 13258, Control_c, 0, 64, 0
4, 13264, Control_c, 0, 64, 127
4, 13306, Control_c, 0, 64, 0
4, 13400, Control_c, 0, 64, 127
4, 13590, Control_c, 0, 64, 0
4, 13596, Control_c, 0, 64, 127
4, 13784, Control_c, 0, 64, 0
4, 13832, Control_c, 0, 64, 127
4, 13880, Control_c, 0, 64, 127
4, 13930, Control_c, 0, 64, 0
4, 13936, Control_c, 0, 64, 127
4, 14072, Control_c, 0, 64, 127
4, 14074, Control_c, 0, 64, 0
4, 14080, Control_c, 0, 64, 127
4, 14252, Control_c, 0, 64, 0
4, 14264, End_track
0, 0, End_of_file