0, 0, Header, 1, 10, 480
1, 0, Start_track
1, 0, Title_t, "Chopin Prelude  No. 5, Opus 28"
1, 0, Copyright_t, "Copyright \251 2002 by Bernd Krueger "
1, 0, Text_t, "Frederic Chopin"
1, 0, Text_t, "Molto allegro"
1, 0, Text_t, "Fertiggestellt am  27.8.2002\012"
1, 0, Text_t, "Normierung: 23.12.2002\012"
1, 0, Text_t, "Update am 24.12.2002\012"
1, 0, Text_t, "Dauer: 0:33 Minuten\012"
1, 0, SMPTE_offset, 96, 0, 3, 0, 0
1, 0, Time_signature, 3, 3, 12, 8
1, 0, Key_signature, 2, "major"
1, 0, Tempo, 574163
1, 240, Tempo, 563380
1, 300, Tempo, 560748
1, 360, Tempo, 558140
1, 420, Tempo, 555556
1, 480, Tempo, 552995
1, 540, Tempo, 550459
1, 600, Tempo, 547945
1, 660, Tempo, 545455
1, 700, Tempo, 542986
1, 720, Tempo, 526316
1, 800, Tempo, 524017
1, 860, Tempo, 521739
1, 920, Tempo, 519481
1, 1000, Tempo, 517241
1, 1060, Tempo, 515021
1, 1120, Tempo, 512821
1, 1180, Tempo, 510638
1, 1260, Tempo, 508475
1, 1320, Tempo, 506329
1, 1380, Tempo, 504202
1, 1440, Tempo, 502092
1, 1500, Tempo, 500000
1, 1560, Tempo, 497925
1, 1620, Tempo, 495868
1, 1680, Tempo, 493827
1, 2100, Tempo, 499542
1, 2140, Tempo, 501798
1, 2160, Tempo, 493016
1, 2200, Tempo, 495172
1, 2240, Tempo, 497347
1, 2280, Tempo, 499542
1, 2300, Tempo, 501798
1, 2340, Tempo, 504032
1, 2380, Tempo, 506286
1, 2420, Tempo, 508561
1, 2440, Tempo, 510856
1, 2480, Tempo, 513171
1, 2520, Tempo, 515553
1, 2540, Tempo, 517911
1, 2580, Tempo, 520291
1, 2620, Tempo, 522694
1, 2660, Tempo, 525118
1, 2680, Tempo, 527565
1, 2720, Tempo, 530035
1, 2760, Tempo, 532576
1, 2780, Tempo, 535093
1, 2840, Tempo, 540200
1, 2860, Tempo, 535714
1, 2880, Tempo, 542986
1, 2940, Tempo, 540541
1, 3000, Tempo, 538117
1, 3040, Tempo, 535714
1, 3100, Tempo, 533333
1, 3140, Tempo, 530973
1, 3360, Tempo, 506329
1, 3480, Tempo, 535714
1, 3580, Tempo, 524017
1, 3600, Tempo, 530973
1, 3680, Tempo, 528634
1, 3760, Tempo, 526316
1, 3820, Tempo, 524017
1, 3840, Tempo, 519481
1, 4080, Tempo, 500000
1, 4200, Tempo, 528634
1, 4360, Tempo, 521739
1, 4420, Tempo, 519481
1, 4480, Tempo, 517241
1, 4540, Tempo, 515021
1, 4580, Tempo, 512821
1, 4800, Tempo, 495868
1, 4920, Tempo, 524017
1, 5020, Tempo, 518403
1, 5040, Tempo, 517241
1, 5100, Tempo, 515021
1, 5160, Tempo, 512821
1, 5220, Tempo, 510638
1, 5280, Tempo, 508475
1, 5520, Tempo, 491803
1, 5640, Tempo, 538117
1, 5760, Tempo, 530973
1, 5820, Tempo, 528634
1, 5860, Tempo, 526316
1, 5920, Tempo, 524017
1, 5960, Tempo, 521739
1, 6000, Tempo, 519481
1, 6220, Tempo, 504202
1, 6240, Tempo, 504202
1, 6360, Tempo, 521739
1, 6480, Tempo, 523332
1, 6540, Tempo, 515996
1, 6600, Tempo, 513611
1, 6660, Tempo, 511247
1, 6720, Tempo, 508906
1, 6840, Tempo, 518403
1, 6920, Tempo, 506500
1, 6960, Tempo, 495868
1, 7080, Tempo, 510638
1, 7200, Tempo, 520879
1, 7240, Tempo, 518403
1, 7280, Tempo, 515996
1, 7320, Tempo, 513611
1, 7340, Tempo, 511247
1, 7380, Tempo, 508906
1, 7420, Tempo, 506500
1, 7440, Tempo, 504202
1, 7560, Tempo, 513611
1, 7680, Tempo, 495868
1, 7800, Tempo, 508475
1, 7900, Tempo, 520879
1, 7940, Tempo, 518403
1, 7980, Tempo, 515996
1, 8020, Tempo, 513611
1, 8060, Tempo, 511247
1, 8100, Tempo, 508906
1, 8140, Tempo, 506500
1, 8180, Tempo, 504202
1, 8280, Tempo, 515996
1, 8360, Tempo, 504202
1, 8420, Tempo, 495868
1, 8520, Tempo, 528634
1, 8640, Tempo, 520879
1, 8720, Tempo, 518403
1, 8800, Tempo, 515996
1, 8860, Tempo, 513611
1, 9100, Tempo, 513611
1, 9180, Tempo, 515996
1, 9260, Tempo, 518403
1, 9340, Tempo, 520879
1, 9360, Tempo, 520879
1, 9500, Tempo, 518403
1, 9620, Tempo, 515996
1, 9840, Tempo, 515996
1, 9880, Tempo, 518403
1, 9920, Tempo, 520879
1, 9960, Tempo, 523332
1, 10000, Tempo, 525808
1, 10040, Tempo, 528355
1, 10060, Tempo, 530879
1, 10120, Tempo, 528355
1, 10180, Tempo, 525808
1, 10220, Tempo, 523332
1, 10280, Tempo, 520879
1, 10320, Tempo, 518403
1, 10540, Tempo, 515996
1, 10580, Tempo, 518403
1, 10600, Tempo, 520879
1, 10620, Tempo, 523332
1, 10640, Tempo, 525808
1, 10660, Tempo, 528355
1, 10700, Tempo, 530879
1, 10720, Tempo, 533476
1, 10740, Tempo, 536049
1, 10760, Tempo, 538648
1, 10780, Tempo, 541272
1, 10800, Tempo, 563380
1, 10840, Tempo, 560748
1, 10880, Tempo, 558140
1, 10920, Tempo, 555556
1, 10960, Tempo, 552995
1, 11000, Tempo, 550459
1, 11040, Tempo, 547945
1, 11060, Tempo, 545455
1, 11240, Tempo, 530973
1, 11280, Tempo, 540541
1, 11300, Tempo, 542986
1, 11320, Tempo, 547945
1, 11340, Tempo, 550459
1, 11360, Tempo, 555556
1, 11380, Tempo, 560748
1, 11400, Tempo, 563380
1, 11420, Tempo, 568720
1, 11440, Tempo, 574163
1, 11460, Tempo, 576923
1, 11480, Tempo, 582524
1, 11500, Tempo, 588235
1, 11520, Tempo, 564493
1, 11760, Tempo, 542790
1, 11860, Tempo, 540200
1, 11960, Tempo, 537634
1, 12040, Tempo, 535093
1, 12140, Tempo, 532576
1, 12220, Tempo, 530035
1, 12240, Tempo, 517241
1, 12280, Tempo, 515021
1, 12320, Tempo, 512821
1, 12360, Tempo, 510638
1, 12400, Tempo, 508475
1, 12440, Tempo, 506329
1, 12480, Tempo, 504032
1, 12700, Tempo, 506329
1, 12780, Tempo, 504202
1, 12840, Tempo, 502092
1, 12920, Tempo, 500000
1, 12980, Tempo, 497925
1, 13060, Tempo, 495868
1, 13120, Tempo, 493827
1, 13180, Tempo, 491803
1, 13620, Tempo, 499542
1, 13660, Tempo, 501798
1, 13680, Tempo, 493016
1, 13720, Tempo, 495172
1, 13760, Tempo, 497347
1, 13800, Tempo, 499542
1, 13820, Tempo, 501798
1, 13860, Tempo, 504032
1, 13900, Tempo, 506286
1, 13940, Tempo, 508561
1, 13960, Tempo, 510856
1, 14000, Tempo, 513171
1, 14040, Tempo, 515553
1, 14060, Tempo, 517911
1, 14100, Tempo, 520291
1, 14140, Tempo, 522694
1, 14180, Tempo, 525118
1, 14200, Tempo, 527565
1, 14240, Tempo, 530035
1, 14280, Tempo, 532576
1, 14300, Tempo, 535093
1, 14360, Tempo, 540200
1, 14380, Tempo, 542986
1, 14420, Tempo, 540541
1, 14460, Tempo, 538117
1, 14480, Tempo, 535714
1, 14520, Tempo, 533333
1, 14560, Tempo, 530973
1, 14580, Tempo, 528634
1, 14620, Tempo, 526316
1, 14640, Tempo, 524017
1, 14880, Tempo, 508475
1, 15000, Tempo, 526316
1, 15120, Tempo, 535714
1, 15160, Tempo, 533333
1, 15180, Tempo, 530973
1, 15220, Tempo, 528634
1, 15240, Tempo, 526316
1, 15280, Tempo, 524017
1, 15300, Tempo, 521739
1, 15340, Tempo, 519481
1, 15360, Tempo, 517241
1, 15600, Tempo, 504202
1, 15720, Tempo, 528634
1, 15840, Tempo, 535714
1, 15880, Tempo, 533333
1, 15900, Tempo, 530973
1, 15940, Tempo, 528634
1, 15960, Tempo, 526316
1, 16000, Tempo, 524017
1, 16020, Tempo, 521739
1, 16060, Tempo, 519481
1, 16080, Tempo, 517241
1, 16320, Tempo, 497925
1, 16440, Tempo, 530973
1, 16540, Tempo, 524017
1, 16600, Tempo, 521739
1, 16640, Tempo, 519481
1, 16680, Tempo, 517241
1, 16720, Tempo, 515021
1, 16760, Tempo, 512821
1, 16800, Tempo, 510638
1, 17040, Tempo, 491803
1, 17160, Tempo, 538117
1, 17280, Tempo, 525808
1, 17320, Tempo, 530973
1, 17380, Tempo, 528634
1, 17420, Tempo, 526316
1, 17480, Tempo, 524017
1, 17740, Tempo, 504202
1, 17760, Tempo, 495868
1, 17880, Tempo, 519481
1, 18000, Tempo, 523332
1, 18060, Tempo, 515996
1, 18120, Tempo, 513611
1, 18180, Tempo, 511247
1, 18240, Tempo, 508906
1, 18360, Tempo, 518403
1, 18440, Tempo, 506500
1, 18480, Tempo, 495868
1, 18600, Tempo, 512821
1, 18720, Tempo, 520879
1, 18760, Tempo, 518403
1, 18800, Tempo, 515996
1, 18840, Tempo, 513611
1, 18860, Tempo, 511247
1, 18900, Tempo, 508906
1, 18940, Tempo, 506500
1, 18960, Tempo, 504202
1, 19080, Tempo, 513611
1, 19200, Tempo, 495868
1, 19320, Tempo, 515021
1, 19420, Tempo, 520879
1, 19460, Tempo, 518403
1, 19500, Tempo, 515996
1, 19540, Tempo, 513611
1, 19580, Tempo, 511247
1, 19620, Tempo, 508906
1, 19660, Tempo, 506500
1, 19700, Tempo, 504202
1, 19800, Tempo, 515996
1, 19880, Tempo, 504202
1, 19940, Tempo, 495868
1, 20040, Tempo, 528634
1, 20160, Tempo, 520879
1, 20240, Tempo, 518403
1, 20320, Tempo, 515996
1, 20380, Tempo, 513611
1, 20620, Tempo, 513611
1, 20700, Tempo, 515996
1, 20780, Tempo, 518403
1, 20860, Tempo, 520879
1, 20880, Tempo, 520879
1, 21020, Tempo, 518403
1, 21140, Tempo, 515996
1, 21360, Tempo, 515996
1, 21400, Tempo, 518403
1, 21440, Tempo, 520879
1, 21480, Tempo, 523332
1, 21520, Tempo, 525808
1, 21560, Tempo, 528355
1, 21580, Tempo, 530879
1, 21640, Tempo, 528355
1, 21700, Tempo, 525808
1, 21740, Tempo, 523332
1, 21800, Tempo, 520879
1, 21840, Tempo, 518403
1, 22060, Tempo, 515996
1, 22100, Tempo, 518403
1, 22120, Tempo, 520879
1, 22140, Tempo, 523332
1, 22160, Tempo, 525808
1, 22180, Tempo, 528355
1, 22220, Tempo, 530879
1, 22240, Tempo, 533476
1, 22260, Tempo, 536049
1, 22280, Tempo, 538648
1, 22300, Tempo, 541272
1, 22320, Tempo, 560748
1, 22360, Tempo, 558140
1, 22400, Tempo, 555556
1, 22440, Tempo, 552995
1, 22480, Tempo, 545455
1, 22720, Tempo, 542986
1, 22760, Tempo, 545455
1, 22800, Tempo, 547945
1, 22840, Tempo, 550459
1, 22880, Tempo, 552995
1, 22920, Tempo, 555556
1, 22960, Tempo, 558140
1, 23000, Tempo, 563380
1, 23040, Tempo, 564493
1, 23280, Tempo, 542790
1, 23380, Tempo, 540200
1, 23480, Tempo, 537634
1, 23560, Tempo, 535093
1, 23660, Tempo, 532576
1, 23740, Tempo, 530035
1, 23760, Tempo, 508561
1, 24000, Tempo, 504032
1, 24100, Tempo, 501798
1, 24200, Tempo, 499542
1, 24240, Tempo, 512821
1, 24360, Tempo, 495868
1, 24380, Tempo, 495172
1, 24420, Tempo, 497347
1, 24460, Tempo, 495172
1, 25140, Tempo, 499542
1, 25180, Tempo, 501798
1, 25200, Tempo, 493016
1, 25240, Tempo, 495172
1, 25280, Tempo, 497347
1, 25320, Tempo, 499542
1, 25340, Tempo, 501798
1, 25380, Tempo, 504032
1, 25420, Tempo, 506286
1, 25460, Tempo, 508561
1, 25480, Tempo, 510856
1, 25520, Tempo, 513171
1, 25560, Tempo, 515553
1, 25580, Tempo, 517911
1, 25620, Tempo, 520291
1, 25660, Tempo, 522694
1, 25700, Tempo, 525118
1, 25720, Tempo, 527565
1, 25800, Tempo, 576923
1, 25920, Tempo, 538117
1, 28080, Tempo, 600000
1, 28080, End_track
2, 0, Start_track
2, 0, MIDI_port, 0
2, 0, Title_t, "Piano right"
2, 0, Program_c, 0, 0
2, 0, Control_c, 0, 7, 100
2, 0, Control_c, 0, 10, 64
2, 0, Note_on_c, 0, 71, 53
2, 0, Control_c, 0, 64, 0
2, 0, Text_t, "bdca426d104a26ac9dcb070447587523"
2, 0, Control_c, 0, 91, 127
2, 120, Note_on_c, 0, 71, 0
2, 120, Note_on_c, 0, 69, 47
2, 240, Note_on_c, 0, 69, 0
2, 240, Note_on_c, 0, 61, 35
2, 360, Note_on_c, 0, 61, 0
2, 360, Note_on_c, 0, 71, 61
2, 480, Note_on_c, 0, 76, 54
2, 600, Note_on_c, 0, 76, 0
2, 600, Note_on_c, 0, 71, 0
2, 600, Note_on_c, 0, 69, 47
2, 720, Note_on_c, 0, 69, 0
2, 720, Note_on_c, 0, 61, 51
2, 840, Note_on_c, 0, 61, 0
2, 840, Note_on_c, 0, 70, 70
2, 960, Note_on_c, 0, 76, 56
2, 1080, Note_on_c, 0, 76, 0
2, 1080, Note_on_c, 0, 70, 0
2, 1080, Note_on_c, 0, 69, 53
2, 1140, Note_on_c, 0, 69, 0
2, 1200, Note_on_c, 0, 61, 61
2, 1320, Note_on_c, 0, 61, 0
2, 1320, Note_on_c, 0, 71, 69
2, 1440, Note_on_c, 0, 76, 65
2, 1560, Note_on_c, 0, 76, 0
2, 1560, Note_on_c, 0, 71, 0
2, 1560, Note_on_c, 0, 69, 61
2, 1620, Note_on_c, 0, 69, 0
2, 1680, Note_on_c, 0, 61, 65
2, 1800, Note_on_c, 0, 61, 0
2, 1800, Note_on_c, 0, 70, 75
2, 1920, Note_on_c, 0, 76, 66
2, 2040, Note_on_c, 0, 76, 0
2, 2040, Note_on_c, 0, 70, 0
2, 2040, Note_on_c, 0, 69, 62
2, 2100, Note_on_c, 0, 69, 0
2, 2160, Note_on_c, 0, 61, 68
2, 2280, Note_on_c, 0, 61, 0
2, 2280, Note_on_c, 0, 71, 73
2, 2400, Note_on_c, 0, 76, 66
2, 2520, Note_on_c, 0, 76, 0
2, 2520, Note_on_c, 0, 71, 0
2, 2520, Note_on_c, 0, 69, 57
2, 2580, Note_on_c, 0, 69, 0
2, 2640, Note_on_c, 0, 61, 55
2, 2760, Note_on_c, 0, 61, 0
2, 2760, Note_on_c, 0, 66, 54
2, 2880, Note_on_c, 0, 66, 0
2, 2880, Note_on_c, 0, 62, 58
2, 3000, Note_on_c, 0, 62, 0
2, 3000, Note_on_c, 0, 57, 53
2, 3120, Note_on_c, 0, 57, 0
2, 3120, Note_on_c, 0, 58, 53
2, 3240, Note_on_c, 0, 58, 0
2, 3240, Note_on_c, 0, 59, 52
2, 3360, Note_on_c, 0, 59, 0
2, 3360, Note_on_c, 0, 61, 47
2, 3360, Note_on_c, 0, 66, 56
2, 3480, Note_on_c, 0, 66, 0
2, 3480, Note_on_c, 0, 61, 0
2, 3480, Note_on_c, 0, 64, 58
2, 3570, Note_on_c, 0, 64, 0
2, 3600, Note_on_c, 0, 62, 66
2, 3720, Note_on_c, 0, 62, 0
2, 3720, Note_on_c, 0, 74, 59
2, 3840, Note_on_c, 0, 74, 0
2, 3840, Note_on_c, 0, 66, 59
2, 3960, Note_on_c, 0, 66, 0
2, 3960, Note_on_c, 0, 69, 59
2, 4080, Note_on_c, 0, 69, 0
2, 4080, Note_on_c, 0, 68, 55
2, 4080, Note_on_c, 0, 73, 65
2, 4200, Note_on_c, 0, 73, 0
2, 4200, Note_on_c, 0, 68, 0
2, 4200, Note_on_c, 0, 71, 63
2, 4290, Note_on_c, 0, 71, 0
2, 4320, Note_on_c, 0, 64, 67
2, 4440, Note_on_c, 0, 64, 0
2, 4440, Note_on_c, 0, 69, 61
2, 4560, Note_on_c, 0, 69, 0
2, 4560, Note_on_c, 0, 65, 61
2, 4680, Note_on_c, 0, 65, 0
2, 4680, Note_on_c, 0, 66, 61
2, 4800, Note_on_c, 0, 66, 0
2, 4800, Note_on_c, 0, 73, 66
2, 4800, Note_on_c, 0, 68, 56
2, 4920, Note_on_c, 0, 68, 0
2, 4920, Note_on_c, 0, 73, 0
2, 4920, Note_on_c, 0, 71, 63
2, 5010, Note_on_c, 0, 71, 0
2, 5040, Note_on_c, 0, 69, 69
2, 5160, Note_on_c, 0, 69, 0
2, 5160, Note_on_c, 0, 76, 58
2, 5280, Note_on_c, 0, 76, 0
2, 5280, Note_on_c, 0, 64, 67
2, 5400, Note_on_c, 0, 64, 0
2, 5400, Note_on_c, 0, 69, 63
2, 5520, Note_on_c, 0, 69, 0
2, 5520, Note_on_c, 0, 63, 55
2, 5520, Note_on_c, 0, 72, 65
2, 5640, Note_on_c, 0, 72, 0
2, 5640, Note_on_c, 0, 63, 0
2, 5640, Note_on_c, 0, 71, 66
2, 5730, Note_on_c, 0, 71, 0
2, 5760, Note_on_c, 0, 59, 72
2, 5880, Note_on_c, 0, 59, 0
2, 5880, Note_on_c, 0, 64, 63
2, 6000, Note_on_c, 0, 64, 0
2, 6000, Note_on_c, 0, 60, 63
2, 6120, Note_on_c, 0, 60, 0
2, 6120, Note_on_c, 0, 64, 62
2, 6240, Note_on_c, 0, 64, 0
2, 6240, Note_on_c, 0, 67, 69
2, 6240, Note_on_c, 0, 63, 59
2, 6360, Note_on_c, 0, 63, 0
2, 6360, Note_on_c, 0, 67, 0
2, 6360, Note_on_c, 0, 66, 68
2, 6450, Note_on_c, 0, 66, 0
2, 6480, Note_on_c, 0, 64, 74
2, 6600, Note_on_c, 0, 64, 0
2, 6600, Note_on_c, 0, 76, 65
2, 6720, Note_on_c, 0, 76, 0
2, 6720, Note_on_c, 0, 67, 68
2, 6840, Note_on_c, 0, 67, 0
2, 6840, Note_on_c, 0, 71, 68
2, 6960, Note_on_c, 0, 71, 0
2, 6960, Note_on_c, 0, 70, 62
2, 6960, Note_on_c, 0, 74, 74
2, 7080, Note_on_c, 0, 74, 0
2, 7080, Note_on_c, 0, 70, 0
2, 7080, Note_on_c, 0, 73, 68
2, 7170, Note_on_c, 0, 73, 0
2, 7200, Note_on_c, 0, 71, 77
2, 7320, Note_on_c, 0, 71, 0
2, 7320, Note_on_c, 0, 66, 66
2, 7440, Note_on_c, 0, 66, 0
2, 7440, Note_on_c, 0, 67, 73
2, 7560, Note_on_c, 0, 67, 0
2, 7560, Note_on_c, 0, 71, 75
2, 7680, Note_on_c, 0, 71, 0
2, 7680, Note_on_c, 0, 70, 67
2, 7680, Note_on_c, 0, 74, 79
2, 7800, Note_on_c, 0, 74, 0
2, 7800, Note_on_c, 0, 70, 0
2, 7800, Note_on_c, 0, 73, 80
2, 7890, Note_on_c, 0, 73, 0
2, 7920, Note_on_c, 0, 71, 88
2, 8040, Note_on_c, 0, 71, 0
2, 8040, Note_on_c, 0, 83, 82
2, 8160, Note_on_c, 0, 83, 0
2, 8160, Note_on_c, 0, 80, 84
2, 8280, Note_on_c, 0, 80, 0
2, 8280, Note_on_c, 0, 74, 84
2, 8400, Note_on_c, 0, 74, 0
2, 8400, Note_on_c, 0, 73, 91
2, 8520, Note_on_c, 0, 73, 0
2, 8520, Note_on_c, 0, 71, 86
2, 8640, Note_on_c, 0, 71, 0
2, 8640, Note_on_c, 0, 70, 91
2, 8760, Note_on_c, 0, 70, 0
2, 8760, Note_on_c, 0, 78, 77
2, 8820, Note_on_c, 0, 78, 0
2, 8880, Note_on_c, 0, 71, 84
2, 9000, Note_on_c, 0, 71, 0
2, 9000, Note_on_c, 0, 80, 73
2, 9060, Note_on_c, 0, 80, 0
2, 9120, Note_on_c, 0, 65, 80
2, 9240, Note_on_c, 0, 65, 0
2, 9240, Note_on_c, 0, 82, 71
2, 9300, Note_on_c, 0, 82, 0
2, 9360, Note_on_c, 0, 70, 89
2, 9480, Note_on_c, 0, 70, 0
2, 9480, Note_on_c, 0, 78, 73
2, 9540, Note_on_c, 0, 78, 0
2, 9600, Note_on_c, 0, 71, 80
2, 9720, Note_on_c, 0, 71, 0
2, 9720, Note_on_c, 0, 80, 72
2, 9780, Note_on_c, 0, 80, 0
2, 9840, Note_on_c, 0, 65, 78
2, 9960, Note_on_c, 0, 65, 0
2, 9960, Note_on_c, 0, 82, 67
2, 10020, Note_on_c, 0, 82, 0
2, 10080, Note_on_c, 0, 70, 78
2, 10200, Note_on_c, 0, 70, 0
2, 10200, Note_on_c, 0, 78, 64
2, 10260, Note_on_c, 0, 78, 0
2, 10320, Note_on_c, 0, 71, 74
2, 10440, Note_on_c, 0, 71, 0
2, 10440, Note_on_c, 0, 80, 60
2, 10500, Note_on_c, 0, 80, 0
2, 10560, Note_on_c, 0, 65, 70
2, 10680, Note_on_c, 0, 65, 0
2, 10680, Note_on_c, 0, 82, 63
2, 10740, Note_on_c, 0, 82, 0
2, 10800, Note_on_c, 0, 70, 70
2, 10920, Note_on_c, 0, 70, 0
2, 10920, Note_on_c, 0, 78, 60
2, 10980, Note_on_c, 0, 78, 0
2, 11040, Note_on_c, 0, 71, 62
2, 11160, Note_on_c, 0, 71, 0
2, 11160, Note_on_c, 0, 80, 55
2, 11220, Note_on_c, 0, 80, 0
2, 11280, Note_on_c, 0, 65, 57
2, 11400, Note_on_c, 0, 65, 0
2, 11400, Note_on_c, 0, 81, 50
2, 11460, Note_on_c, 0, 81, 0
2, 11520, Note_on_c, 0, 78, 53
2, 11640, Note_on_c, 0, 78, 0
2, 11640, Note_on_c, 0, 66, 47
2, 11760, Note_on_c, 0, 66, 0
2, 11760, Note_on_c, 0, 61, 35
2, 11880, Note_on_c, 0, 61, 0
2, 11880, Note_on_c, 0, 71, 61
2, 12000, Note_on_c, 0, 76, 55
2, 12120, Note_on_c, 0, 76, 0
2, 12120, Note_on_c, 0, 71, 0
2, 12120, Note_on_c, 0, 69, 47
2, 12240, Note_on_c, 0, 69, 0
2, 12240, Note_on_c, 0, 61, 51
2, 12360, Note_on_c, 0, 61, 0
2, 12360, Note_on_c, 0, 70, 70
2, 12480, Note_on_c, 0, 76, 56
2, 12600, Note_on_c, 0, 76, 0
2, 12600, Note_on_c, 0, 70, 0
2, 12600, Note_on_c, 0, 69, 53
2, 12660, Note_on_c, 0, 69, 0
2, 12720, Note_on_c, 0, 61, 61
2, 12840, Note_on_c, 0, 61, 0
2, 12840, Note_on_c, 0, 71, 69
2, 12960, Note_on_c, 0, 76, 67
2, 13080, Note_on_c, 0, 76, 0
2, 13080, Note_on_c, 0, 71, 0
2, 13080, Note_on_c, 0, 69, 62
2, 13140, Note_on_c, 0, 69, 0
2, 13200, Note_on_c, 0, 61, 65
2, 13320, Note_on_c, 0, 61, 0
2, 13320, Note_on_c, 0, 70, 73
2, 13440, Note_on_c, 0, 76, 68
2, 13560, Note_on_c, 0, 76, 0
2, 13560, Note_on_c, 0, 70, 0
2, 13560, Note_on_c, 0, 69, 62
2, 13620, Note_on_c, 0, 69, 0
2, 13680, Note_on_c, 0, 61, 70
2, 13800, Note_on_c, 0, 61, 0
2, 13800, Note_on_c, 0, 71, 72
2, 13920, Note_on_c, 0, 76, 64
2, 14040, Note_on_c, 0, 76, 0
2, 14040, Note_on_c, 0, 71, 0
2, 14040, Note_on_c, 0, 69, 57
2, 14100, Note_on_c, 0, 69, 0
2, 14160, Note_on_c, 0, 61, 55
2, 14280, Note_on_c, 0, 61, 0
2, 14280, Note_on_c, 0, 66, 54
2, 14400, Note_on_c, 0, 66, 0
2, 14400, Note_on_c, 0, 62, 58
2, 14520, Note_on_c, 0, 62, 0
2, 14520, Note_on_c, 0, 57, 53
2, 14640, Note_on_c, 0, 57, 0
2, 14640, Note_on_c, 0, 58, 53
2, 14760, Note_on_c, 0, 58, 0
2, 14760, Note_on_c, 0, 59, 52
2, 14880, Note_on_c, 0, 59, 0
2, 14880, Note_on_c, 0, 67, 55
2, 14880, Note_on_c, 0, 61, 46
2, 15000, Note_on_c, 0, 61, 0
2, 15000, Note_on_c, 0, 67, 0
2, 15000, Note_on_c, 0, 66, 54
2, 15090, Note_on_c, 0, 66, 0
2, 15120, Note_on_c, 0, 62, 66
2, 15240, Note_on_c, 0, 62, 0
2, 15240, Note_on_c, 0, 74, 59
2, 15360, Note_on_c, 0, 74, 0
2, 15360, Note_on_c, 0, 66, 59
2, 15480, Note_on_c, 0, 66, 0
2, 15480, Note_on_c, 0, 69, 59
2, 15600, Note_on_c, 0, 69, 0
2, 15600, Note_on_c, 0, 68, 52
2, 15600, Note_on_c, 0, 72, 61
2, 15720, Note_on_c, 0, 72, 0
2, 15720, Note_on_c, 0, 68, 0
2, 15720, Note_on_c, 0, 71, 58
2, 15810, Note_on_c, 0, 71, 0
2, 15840, Note_on_c, 0, 64, 67
2, 15960, Note_on_c, 0, 64, 0
2, 15960, Note_on_c, 0, 69, 61
2, 16080, Note_on_c, 0, 69, 0
2, 16080, Note_on_c, 0, 65, 61
2, 16200, Note_on_c, 0, 65, 0
2, 16200, Note_on_c, 0, 69, 61
2, 16320, Note_on_c, 0, 69, 0
2, 16320, Note_on_c, 0, 68, 56
2, 16320, Note_on_c, 0, 72, 66
2, 16440, Note_on_c, 0, 72, 0
2, 16440, Note_on_c, 0, 68, 0
2, 16440, Note_on_c, 0, 71, 63
2, 16530, Note_on_c, 0, 71, 0
2, 16560, Note_on_c, 0, 69, 69
2, 16680, Note_on_c, 0, 69, 0
2, 16680, Note_on_c, 0, 76, 58
2, 16800, Note_on_c, 0, 76, 0
2, 16800, Note_on_c, 0, 64, 67
2, 16920, Note_on_c, 0, 64, 0
2, 16920, Note_on_c, 0, 69, 63
2, 17040, Note_on_c, 0, 69, 0
2, 17040, Note_on_c, 0, 63, 55
2, 17040, Note_on_c, 0, 72, 65
2, 17160, Note_on_c, 0, 72, 0
2, 17160, Note_on_c, 0, 63, 0
2, 17160, Note_on_c, 0, 71, 66
2, 17250, Note_on_c, 0, 71, 0
2, 17280, Note_on_c, 0, 59, 72
2, 17400, Note_on_c, 0, 59, 0
2, 17400, Note_on_c, 0, 64, 63
2, 17520, Note_on_c, 0, 64, 0
2, 17520, Note_on_c, 0, 60, 63
2, 17640, Note_on_c, 0, 60, 0
2, 17640, Note_on_c, 0, 64, 62
2, 17760, Note_on_c, 0, 64, 0
2, 17760, Note_on_c, 0, 67, 69
2, 17760, Note_on_c, 0, 63, 59
2, 17880, Note_on_c, 0, 63, 0
2, 17880, Note_on_c, 0, 67, 0
2, 17880, Note_on_c, 0, 66, 68
2, 17970, Note_on_c, 0, 66, 0
2, 18000, Note_on_c, 0, 64, 74
2, 18120, Note_on_c, 0, 64, 0
2, 18120, Note_on_c, 0, 76, 65
2, 18240, Note_on_c, 0, 76, 0
2, 18240, Note_on_c, 0, 67, 68
2, 18360, Note_on_c, 0, 67, 0
2, 18360, Note_on_c, 0, 71, 68
2, 18480, Note_on_c, 0, 71, 0
2, 18480, Note_on_c, 0, 70, 62
2, 18480, Note_on_c, 0, 74, 74
2, 18600, Note_on_c, 0, 74, 0
2, 18600, Note_on_c, 0, 70, 0
2, 18600, Note_on_c, 0, 73, 68
2, 18690, Note_on_c, 0, 73, 0
2, 18720, Note_on_c, 0, 71, 81
2, 18840, Note_on_c, 0, 71, 0
2, 18840, Note_on_c, 0, 66, 66
2, 18960, Note_on_c, 0, 66, 0
2, 18960, Note_on_c, 0, 67, 73
2, 19080, Note_on_c, 0, 67, 0
2, 19080, Note_on_c, 0, 71, 75
2, 19200, Note_on_c, 0, 71, 0
2, 19200, Note_on_c, 0, 70, 67
2, 19200, Note_on_c, 0, 74, 79
2, 19320, Note_on_c, 0, 74, 0
2, 19320, Note_on_c, 0, 70, 0
2, 19320, Note_on_c, 0, 73, 80
2, 19410, Note_on_c, 0, 73, 0
2, 19440, Note_on_c, 0, 71, 88
2, 19560, Note_on_c, 0, 71, 0
2, 19560, Note_on_c, 0, 83, 82
2, 19680, Note_on_c, 0, 83, 0
2, 19680, Note_on_c, 0, 80, 84
2, 19800, Note_on_c, 0, 80, 0
2, 19800, Note_on_c, 0, 74, 84
2, 19920, Note_on_c, 0, 74, 0
2, 19920, Note_on_c, 0, 73, 93
2, 20040, Note_on_c, 0, 73, 0
2, 20040, Note_on_c, 0, 71, 86
2, 20160, Note_on_c, 0, 71, 0
2, 20160, Note_on_c, 0, 69, 92
2, 20280, Note_on_c, 0, 69, 0
2, 20280, Note_on_c, 0, 74, 77
2, 20340, Note_on_c, 0, 74, 0
2, 20400, Note_on_c, 0, 67, 86
2, 20520, Note_on_c, 0, 67, 0
2, 20520, Note_on_c, 0, 76, 76
2, 20580, Note_on_c, 0, 76, 0
2, 20640, Note_on_c, 0, 61, 83
2, 20760, Note_on_c, 0, 61, 0
2, 20760, Note_on_c, 0, 78, 75
2, 20820, Note_on_c, 0, 78, 0
2, 20880, Note_on_c, 0, 66, 91
2, 21000, Note_on_c, 0, 66, 0
2, 21000, Note_on_c, 0, 74, 73
2, 21060, Note_on_c, 0, 74, 0
2, 21120, Note_on_c, 0, 67, 80
2, 21240, Note_on_c, 0, 67, 0
2, 21240, Note_on_c, 0, 76, 72
2, 21300, Note_on_c, 0, 76, 0
2, 21360, Note_on_c, 0, 61, 78
2, 21480, Note_on_c, 0, 61, 0
2, 21480, Note_on_c, 0, 78, 67
2, 21540, Note_on_c, 0, 78, 0
2, 21600, Note_on_c, 0, 66, 78
2, 21720, Note_on_c, 0, 66, 0
2, 21720, Note_on_c, 0, 74, 64
2, 21780, Note_on_c, 0, 74, 0
2, 21840, Note_on_c, 0, 67, 74
2, 21960, Note_on_c, 0, 67, 0
2, 21960, Note_on_c, 0, 76, 60
2, 22020, Note_on_c, 0, 76, 0
2, 22080, Note_on_c, 0, 61, 70
2, 22200, Note_on_c, 0, 61, 0
2, 22200, Note_on_c, 0, 78, 63
2, 22260, Note_on_c, 0, 78, 0
2, 22320, Note_on_c, 0, 66, 70
2, 22440, Note_on_c, 0, 66, 0
2, 22440, Note_on_c, 0, 74, 60
2, 22500, Note_on_c, 0, 74, 0
2, 22560, Note_on_c, 0, 67, 62
2, 22680, Note_on_c, 0, 67, 0
2, 22680, Note_on_c, 0, 76, 55
2, 22740, Note_on_c, 0, 76, 0
2, 22800, Note_on_c, 0, 61, 57
2, 22920, Note_on_c, 0, 61, 0
2, 22920, Note_on_c, 0, 78, 50
2, 22980, Note_on_c, 0, 78, 0
2, 23040, Note_on_c, 0, 66, 53
2, 23160, Note_on_c, 0, 66, 0
2, 23160, Note_on_c, 0, 74, 47
2, 23280, Note_on_c, 0, 74, 0
2, 23280, Note_on_c, 0, 62, 35
2, 23400, Note_on_c, 0, 62, 0
2, 23400, Note_on_c, 0, 70, 57
2, 23520, Note_on_c, 0, 76, 49
2, 23640, Note_on_c, 0, 76, 0
2, 23640, Note_on_c, 0, 70, 0
2, 23640, Note_on_c, 0, 69, 50
2, 23760, Note_on_c, 0, 69, 0
2, 23760, Note_on_c, 0, 62, 44
2, 23880, Note_on_c, 0, 62, 0
2, 23880, Note_on_c, 0, 67, 63
2, 24000, Note_on_c, 0, 74, 50
2, 24060, Note_on_c, 0, 74, 0
2, 24120, Note_on_c, 0, 67, 0
2, 24120, Note_on_c, 0, 66, 58
2, 24240, Note_on_c, 0, 66, 0
2, 24240, Note_on_c, 0, 62, 56
2, 24360, Note_on_c, 0, 62, 0
2, 24360, Note_on_c, 0, 70, 67
2, 24480, Note_on_c, 0, 74, 56
2, 24540, Note_on_c, 0, 74, 0
2, 24600, Note_on_c, 0, 70, 0
2, 24600, Note_on_c, 0, 69, 63
2, 24720, Note_on_c, 0, 69, 0
2, 24720, Note_on_c, 0, 62, 62
2, 24840, Note_on_c, 0, 62, 0
2, 24840, Note_on_c, 0, 67, 75
2, 24960, Note_on_c, 0, 74, 60
2, 25020, Note_on_c, 0, 74, 0
2, 25080, Note_on_c, 0, 67, 0
2, 25080, Note_on_c, 0, 66, 67
2, 25200, Note_on_c, 0, 66, 0
2, 25200, Note_on_c, 0, 62, 72
2, 25320, Note_on_c, 0, 62, 0
2, 25320, Note_on_c, 0, 70, 81
2, 25440, Note_on_c, 0, 74, 73
2, 25500, Note_on_c, 0, 74, 0
2, 25560, Note_on_c, 0, 70, 0
2, 25560, Note_on_c, 0, 69, 80
2, 25680, Note_on_c, 0, 69, 0
2, 25680, Note_on_c, 0, 62, 79
2, 25800, Note_on_c, 0, 62, 0
2, 25800, Note_on_c, 0, 74, 92
2, 25920, Note_on_c, 0, 74, 0
2, 25920, Note_on_c, 0, 90, 99
2, 26040, Note_on_c, 0, 90, 0
2, 26580, Note_on_c, 0, 67, 76
2, 26610, Note_on_c, 0, 76, 82
2, 26640, Note_on_c, 0, 81, 89
2, 26760, Note_on_c, 0, 81, 0
2, 26760, Note_on_c, 0, 76, 0
2, 26760, Note_on_c, 0, 67, 0
2, 27360, Note_on_c, 0, 66, 82
2, 27360, Note_on_c, 0, 74, 82
2, 27360, Note_on_c, 0, 78, 97
2, 27480, Note_on_c, 0, 78, 0
2, 27480, Note_on_c, 0, 74, 0
2, 27480, Note_on_c, 0, 66, 0
2, 27480, End_track
3, 0, Start_track
3, 0, MIDI_port, 0
3, 0, Title_t, "Piano left"
3, 0, Program_c, 0, 0
3, 0, Control_c, 0, 7, 100
3, 0, Control_c, 0, 10, 64
3, 240, Control_c, 0, 64, 127
3, 240, Note_on_c, 0, 55, 44
3, 360, Note_on_c, 0, 55, 0
3, 360, Note_on_c, 0, 45, 39
3, 480, Note_on_c, 0, 45, 0
3, 480, Note_on_c, 0, 55, 36
3, 600, Note_on_c, 0, 55, 0
3, 600, Note_on_c, 0, 64, 35
3, 720, Note_on_c, 0, 64, 0
3, 720, Control_c, 0, 64, 0
3, 720, Note_on_c, 0, 55, 49
3, 754, Control_c, 0, 64, 127
3, 840, Note_on_c, 0, 55, 0
3, 840, Note_on_c, 0, 45, 42
3, 960, Note_on_c, 0, 45, 0
3, 960, Note_on_c, 0, 55, 46
3, 1080, Note_on_c, 0, 55, 0
3, 1080, Note_on_c, 0, 64, 43
3, 1140, Note_on_c, 0, 64, 0
3, 1194, Control_c, 0, 64, 0
3, 1200, Note_on_c, 0, 55, 52
3, 1229, Control_c, 0, 64, 127
3, 1320, Note_on_c, 0, 55, 0
3, 1320, Note_on_c, 0, 45, 40
3, 1440, Note_on_c, 0, 45, 0
3, 1440, Note_on_c, 0, 55, 49
3, 1560, Note_on_c, 0, 55, 0
3, 1560, Note_on_c, 0, 64, 43
3, 1620, Note_on_c, 0, 64, 0
3, 1680, Note_on_c, 0, 55, 52
3, 1691, Control_c, 0, 64, 0
3, 1731, Control_c, 0, 64, 127
3, 1800, Note_on_c, 0, 55, 0
3, 1800, Note_on_c, 0, 45, 46
3, 1920, Note_on_c, 0, 45, 0
3, 1920, Note_on_c, 0, 55, 52
3, 2040, Note_on_c, 0, 55, 0
3, 2040, Note_on_c, 0, 64, 47
3, 2100, Note_on_c, 0, 64, 0
3, 2160, Note_on_c, 0, 57, 54
3, 2160, Control_c, 0, 64, 0
3, 2192, Control_c, 0, 64, 127
3, 2280, Note_on_c, 0, 57, 0
3, 2280, Note_on_c, 0, 45, 45
3, 2400, Note_on_c, 0, 45, 0
3, 2400, Note_on_c, 0, 55, 49
3, 2520, Note_on_c, 0, 55, 0
3, 2520, Note_on_c, 0, 64, 40
3, 2580, Note_on_c, 0, 64, 0
3, 2612, Control_c, 0, 64, 0
3, 2633, Control_c, 0, 64, 127
3, 2640, Note_on_c, 0, 55, 40
3, 2760, Note_on_c, 0, 55, 0
3, 2760, Note_on_c, 0, 57, 35
3, 2880, Note_on_c, 0, 57, 0
3, 2880, Note_on_c, 0, 38, 45
3, 2897, Control_c, 0, 64, 0
3, 2914, Control_c, 0, 64, 127
3, 3000, Note_on_c, 0, 38, 0
3, 3000, Note_on_c, 0, 54, 41
3, 3120, Note_on_c, 0, 54, 0
3, 3120, Note_on_c, 0, 55, 42
3, 3141, Control_c, 0, 64, 0
3, 3152, Control_c, 0, 64, 127
3, 3240, Note_on_c, 0, 55, 0
3, 3240, Note_on_c, 0, 43, 38
3, 3360, Note_on_c, 0, 43, 0
3, 3360, Note_on_c, 0, 45, 44
3, 3371, Control_c, 0, 64, 0
3, 3480, Note_on_c, 0, 45, 0
3, 3480, Note_on_c, 0, 55, 44
3, 3570, Note_on_c, 0, 55, 0
3, 3600, Note_on_c, 0, 54, 48
3, 3646, Control_c, 0, 64, 127
3, 3720, Note_on_c, 0, 54, 0
3, 3720, Note_on_c, 0, 47, 42
3, 3840, Note_on_c, 0, 47, 0
3, 3840, Note_on_c, 0, 62, 42
3, 3960, Note_on_c, 0, 62, 0
3, 3960, Note_on_c, 0, 54, 42
3, 4069, Control_c, 0, 64, 0
3, 4080, Note_on_c, 0, 54, 0
3, 4080, Note_on_c, 0, 52, 48
3, 4200, Note_on_c, 0, 52, 0
3, 4200, Note_on_c, 0, 62, 42
3, 4290, Note_on_c, 0, 62, 0
3, 4320, Note_on_c, 0, 61, 55
3, 4366, Control_c, 0, 64, 127
3, 4440, Note_on_c, 0, 61, 0
3, 4440, Note_on_c, 0, 57, 47
3, 4560, Note_on_c, 0, 57, 0
3, 4560, Note_on_c, 0, 62, 44
3, 4571, Control_c, 0, 64, 0
3, 4591, Control_c, 0, 64, 127
3, 4680, Note_on_c, 0, 62, 0
3, 4680, Note_on_c, 0, 50, 44
3, 4800, Note_on_c, 0, 50, 0
3, 4800, Note_on_c, 0, 52, 47
3, 4817, Control_c, 0, 64, 0
3, 4920, Note_on_c, 0, 52, 0
3, 4920, Note_on_c, 0, 62, 42
3, 5010, Note_on_c, 0, 62, 0
3, 5040, Note_on_c, 0, 61, 55
3, 5086, Control_c, 0, 64, 127
3, 5160, Note_on_c, 0, 61, 0
3, 5160, Note_on_c, 0, 60, 44
3, 5280, Note_on_c, 0, 60, 0
3, 5280, Note_on_c, 0, 54, 46
3, 5400, Note_on_c, 0, 54, 0
3, 5400, Note_on_c, 0, 45, 46
3, 5520, Note_on_c, 0, 45, 0
3, 5520, Control_c, 0, 64, 0
3, 5520, Note_on_c, 0, 47, 51
3, 5640, Note_on_c, 0, 47, 0
3, 5640, Note_on_c, 0, 57, 44
3, 5730, Note_on_c, 0, 57, 0
3, 5760, Note_on_c, 0, 55, 54
3, 5806, Control_c, 0, 64, 127
3, 5880, Note_on_c, 0, 55, 0
3, 5880, Note_on_c, 0, 40, 49
3, 6000, Note_on_c, 0, 40, 0
3, 6000, Note_on_c, 0, 45, 52
3, 6006, Control_c, 0, 64, 0
3, 6023, Control_c, 0, 64, 127
3, 6120, Note_on_c, 0, 45, 0
3, 6120, Note_on_c, 0, 57, 48
3, 6240, Note_on_c, 0, 57, 0
3, 6240, Note_on_c, 0, 47, 53
3, 6257, Control_c, 0, 64, 0
3, 6360, Note_on_c, 0, 47, 0
3, 6360, Note_on_c, 0, 57, 50
3, 6450, Note_on_c, 0, 57, 0
3, 6480, Note_on_c, 0, 55, 55
3, 6531, Control_c, 0, 64, 127
3, 6600, Note_on_c, 0, 55, 0
3, 6600, Note_on_c, 0, 52, 49
3, 6720, Note_on_c, 0, 52, 0
3, 6720, Note_on_c, 0, 64, 49
3, 6840, Note_on_c, 0, 64, 0
3, 6840, Note_on_c, 0, 55, 49
3, 6937, Control_c, 0, 64, 0
3, 6960, Note_on_c, 0, 55, 0
3, 6960, Note_on_c, 0, 54, 54
3, 7080, Note_on_c, 0, 54, 0
3, 7080, Note_on_c, 0, 64, 49
3, 7170, Note_on_c, 0, 64, 0
3, 7200, Note_on_c, 0, 62, 57
3, 7257, Control_c, 0, 64, 127
3, 7320, Note_on_c, 0, 62, 0
3, 7320, Note_on_c, 0, 47, 59
3, 7440, Note_on_c, 0, 47, 0
3, 7440, Note_on_c, 0, 52, 52
3, 7560, Note_on_c, 0, 52, 0
3, 7560, Note_on_c, 0, 64, 54
3, 7680, Note_on_c, 0, 64, 0
3, 7680, Note_on_c, 0, 54, 57
3, 7686, Control_c, 0, 64, 0
3, 7800, Note_on_c, 0, 54, 0
3, 7800, Note_on_c, 0, 64, 54
3, 7890, Note_on_c, 0, 64, 0
3, 7920, Note_on_c, 0, 62, 61
3, 7971, Control_c, 0, 64, 127
3, 8040, Note_on_c, 0, 62, 0
3, 8040, Note_on_c, 0, 53, 54
3, 8160, Note_on_c, 0, 53, 0
3, 8160, Note_on_c, 0, 59, 56
3, 8280, Note_on_c, 0, 59, 0
3, 8280, Note_on_c, 0, 68, 56
3, 8383, Control_c, 0, 64, 0
3, 8400, Note_on_c, 0, 68, 0
3, 8400, Note_on_c, 0, 61, 63
3, 8451, Control_c, 0, 64, 127
3, 8520, Note_on_c, 0, 61, 0
3, 8520, Note_on_c, 0, 62, 55
3, 8640, Note_on_c, 0, 62, 0
3, 8640, Note_on_c, 0, 61, 62
3, 8651, Control_c, 0, 64, 0
3, 8686, Control_c, 0, 64, 127
3, 8760, Note_on_c, 0, 61, 0
3, 8760, Note_on_c, 0, 54, 44
3, 8820, Note_on_c, 0, 54, 0
3, 8880, Note_on_c, 0, 62, 53
3, 8891, Control_c, 0, 64, 0
3, 8931, Control_c, 0, 64, 127
3, 9000, Note_on_c, 0, 62, 0
3, 9000, Note_on_c, 0, 50, 42
3, 9060, Note_on_c, 0, 50, 0
3, 9120, Note_on_c, 0, 61, 53
3, 9131, Control_c, 0, 64, 0
3, 9177, Control_c, 0, 64, 127
3, 9240, Note_on_c, 0, 61, 0
3, 9240, Note_on_c, 0, 49, 42
3, 9300, Note_on_c, 0, 49, 0
3, 9360, Note_on_c, 0, 42, 57
3, 9371, Control_c, 0, 64, 0
3, 9406, Control_c, 0, 64, 127
3, 9480, Note_on_c, 0, 42, 0
3, 9480, Note_on_c, 0, 61, 42
3, 9540, Note_on_c, 0, 61, 0
3, 9600, Note_on_c, 0, 62, 51
3, 9611, Control_c, 0, 64, 0
3, 9651, Control_c, 0, 64, 127
3, 9720, Note_on_c, 0, 62, 0
3, 9720, Note_on_c, 0, 47, 41
3, 9780, Note_on_c, 0, 47, 0
3, 9840, Note_on_c, 0, 61, 50
3, 9851, Control_c, 0, 64, 0
3, 9897, Control_c, 0, 64, 127
3, 9960, Note_on_c, 0, 61, 0
3, 9960, Note_on_c, 0, 49, 40
3, 10020, Note_on_c, 0, 49, 0
3, 10080, Note_on_c, 0, 42, 55
3, 10091, Control_c, 0, 64, 0
3, 10126, Control_c, 0, 64, 127
3, 10200, Note_on_c, 0, 42, 0
3, 10200, Note_on_c, 0, 61, 41
3, 10260, Note_on_c, 0, 61, 0
3, 10320, Note_on_c, 0, 62, 49
3, 10331, Control_c, 0, 64, 0
3, 10371, Control_c, 0, 64, 127
3, 10440, Note_on_c, 0, 62, 0
3, 10440, Note_on_c, 0, 47, 39
3, 10500, Note_on_c, 0, 47, 0
3, 10560, Note_on_c, 0, 61, 46
3, 10571, Control_c, 0, 64, 0
3, 10617, Control_c, 0, 64, 127
3, 10680, Note_on_c, 0, 61, 0
3, 10680, Note_on_c, 0, 49, 36
3, 10740, Note_on_c, 0, 49, 0
3, 10800, Note_on_c, 0, 42, 48
3, 10811, Control_c, 0, 64, 0
3, 10846, Control_c, 0, 64, 127
3, 10920, Note_on_c, 0, 42, 0
3, 10920, Note_on_c, 0, 61, 40
3, 10980, Note_on_c, 0, 61, 0
3, 11040, Note_on_c, 0, 62, 43
3, 11051, Control_c, 0, 64, 0
3, 11091, Control_c, 0, 64, 127
3, 11160, Note_on_c, 0, 62, 0
3, 11160, Note_on_c, 0, 47, 37
3, 11220, Note_on_c, 0, 47, 0
3, 11280, Note_on_c, 0, 61, 42
3, 11291, Control_c, 0, 64, 0
3, 11337, Control_c, 0, 64, 127
3, 11400, Note_on_c, 0, 61, 0
3, 11400, Note_on_c, 0, 49, 34
3, 11460, Note_on_c, 0, 49, 0
3, 11501, Control_c, 0, 64, 0
3, 11520, Note_on_c, 0, 42, 49
3, 11548, Control_c, 0, 64, 127
3, 11640, Note_on_c, 0, 42, 0
3, 11640, Note_on_c, 0, 57, 39
3, 11746, Control_c, 0, 64, 0
3, 11760, Note_on_c, 0, 57, 0
3, 11760, Note_on_c, 0, 55, 44
3, 11781, Control_c, 0, 64, 127
3, 11880, Note_on_c, 0, 55, 0
3, 11880, Note_on_c, 0, 45, 39
3, 12000, Note_on_c, 0, 45, 0
3, 12000, Note_on_c, 0, 55, 41
3, 12120, Note_on_c, 0, 55, 0
3, 12120, Note_on_c, 0, 64, 35
3, 12240, Note_on_c, 0, 64, 0
3, 12240, Control_c, 0, 64, 0
3, 12240, Note_on_c, 0, 55, 49
3, 12274, Control_c, 0, 64, 127
3, 12360, Note_on_c, 0, 55, 0
3, 12360, Note_on_c, 0, 45, 42
3, 12480, Note_on_c, 0, 45, 0
3, 12480, Note_on_c, 0, 55, 47
3, 12600, Note_on_c, 0, 55, 0
3, 12600, Note_on_c, 0, 64, 43
3, 12660, Note_on_c, 0, 64, 0
3, 12714, Control_c, 0, 64, 0
3, 12720, Note_on_c, 0, 55, 52
3, 12749, Control_c, 0, 64, 127
3, 12840, Note_on_c, 0, 55, 0
3, 12840, Note_on_c, 0, 45, 40
3, 12960, Note_on_c, 0, 45, 0
3, 12960, Note_on_c, 0, 55, 50
3, 13080, Note_on_c, 0, 55, 0
3, 13080, Note_on_c, 0, 64, 43
3, 13140, Note_on_c, 0, 64, 0
3, 13200, Note_on_c, 0, 55, 52
3, 13211, Control_c, 0, 64, 0
3, 13251, Control_c, 0, 64, 127
3, 13320, Note_on_c, 0, 55, 0
3, 13320, Note_on_c, 0, 45, 46
3, 13440, Note_on_c, 0, 45, 0
3, 13440, Note_on_c, 0, 55, 51
3, 13560, Note_on_c, 0, 55, 0
3, 13560, Note_on_c, 0, 64, 47
3, 13620, Note_on_c, 0, 64, 0
3, 13680, Note_on_c, 0, 57, 54
3, 13680, Control_c, 0, 64, 0
3, 13680, Note_on_c, 0, 55, 54
3, 13712, Control_c, 0, 64, 127
3, 13800, Note_on_c, 0, 55, 0
3, 13800, Note_on_c, 0, 57, 0
3, 13800, Note_on_c, 0, 45, 45
3, 13920, Note_on_c, 0, 45, 0
3, 13920, Note_on_c, 0, 55, 49
3, 14040, Note_on_c, 0, 55, 0
3, 14040, Note_on_c, 0, 64, 40
3, 14100, Note_on_c, 0, 64, 0
3, 14132, Control_c, 0, 64, 0
3, 14160, Control_c, 0, 64, 127
3, 14160, Note_on_c, 0, 55, 40
3, 14280, Note_on_c, 0, 55, 0
3, 14280, Note_on_c, 0, 57, 35
3, 14400, Note_on_c, 0, 57, 0
3, 14400, Note_on_c, 0, 38, 45
3, 14417, Control_c, 0, 64, 0
3, 14434, Control_c, 0, 64, 127
3, 14520, Note_on_c, 0, 38, 0
3, 14520, Note_on_c, 0, 54, 41
3, 14640, Note_on_c, 0, 54, 0
3, 14640, Note_on_c, 0, 55, 42
3, 14665, Control_c, 0, 64, 0
3, 14682, Control_c, 0, 64, 127
3, 14760, Note_on_c, 0, 55, 0
3, 14760, Note_on_c, 0, 43, 38
3, 14880, Note_on_c, 0, 43, 0
3, 14880, Note_on_c, 0, 45, 44
3, 14891, Control_c, 0, 64, 0
3, 15000, Note_on_c, 0, 45, 0
3, 15000, Note_on_c, 0, 57, 44
3, 15090, Note_on_c, 0, 57, 0
3, 15120, Note_on_c, 0, 54, 48
3, 15166, Control_c, 0, 64, 127
3, 15240, Note_on_c, 0, 54, 0
3, 15240, Note_on_c, 0, 47, 42
3, 15360, Note_on_c, 0, 47, 0
3, 15360, Note_on_c, 0, 62, 42
3, 15480, Note_on_c, 0, 62, 0
3, 15480, Note_on_c, 0, 53, 42
3, 15589, Control_c, 0, 64, 0
3, 15600, Note_on_c, 0, 53, 0
3, 15600, Note_on_c, 0, 52, 48
3, 15720, Note_on_c, 0, 52, 0
3, 15720, Note_on_c, 0, 62, 42
3, 15810, Note_on_c, 0, 62, 0
3, 15840, Note_on_c, 0, 60, 55
3, 15886, Control_c, 0, 64, 127
3, 15960, Note_on_c, 0, 60, 0
3, 15960, Note_on_c, 0, 57, 47
3, 16080, Note_on_c, 0, 57, 0
3, 16080, Control_c, 0, 64, 0
3, 16080, Note_on_c, 0, 62, 44
3, 16103, Control_c, 0, 64, 127
3, 16200, Note_on_c, 0, 62, 0
3, 16200, Note_on_c, 0, 50, 44
3, 16320, Note_on_c, 0, 50, 0
3, 16320, Note_on_c, 0, 52, 47
3, 16337, Control_c, 0, 64, 0
3, 16440, Note_on_c, 0, 52, 0
3, 16440, Note_on_c, 0, 62, 42
3, 16530, Note_on_c, 0, 62, 0
3, 16560, Note_on_c, 0, 61, 55
3, 16606, Control_c, 0, 64, 127
3, 16680, Note_on_c, 0, 61, 0
3, 16680, Note_on_c, 0, 60, 44
3, 16800, Note_on_c, 0, 60, 0
3, 16800, Note_on_c, 0, 54, 46
3, 16920, Note_on_c, 0, 54, 0
3, 16920, Note_on_c, 0, 45, 46
3, 17040, Note_on_c, 0, 45, 0
3, 17040, Control_c, 0, 64, 0
3, 17040, Note_on_c, 0, 47, 51
3, 17160, Note_on_c, 0, 47, 0
3, 17160, Note_on_c, 0, 57, 44
3, 17250, Note_on_c, 0, 57, 0
3, 17280, Note_on_c, 0, 55, 54
3, 17326, Control_c, 0, 64, 127
3, 17400, Note_on_c, 0, 55, 0
3, 17400, Note_on_c, 0, 40, 49
3, 17520, Note_on_c, 0, 40, 0
3, 17520, Note_on_c, 0, 45, 52
3, 17534, Control_c, 0, 64, 0
3, 17546, Control_c, 0, 64, 127
3, 17640, Note_on_c, 0, 45, 0
3, 17640, Note_on_c, 0, 57, 48
3, 17760, Note_on_c, 0, 57, 0
3, 17760, Note_on_c, 0, 47, 53
3, 17777, Control_c, 0, 64, 0
3, 17880, Note_on_c, 0, 47, 0
3, 17880, Note_on_c, 0, 57, 50
3, 17970, Note_on_c, 0, 57, 0
3, 18000, Note_on_c, 0, 55, 55
3, 18051, Control_c, 0, 64, 127
3, 18120, Note_on_c, 0, 55, 0
3, 18120, Note_on_c, 0, 52, 49
3, 18240, Note_on_c, 0, 52, 0
3, 18240, Note_on_c, 0, 64, 49
3, 18360, Note_on_c, 0, 64, 0
3, 18360, Note_on_c, 0, 55, 49
3, 18457, Control_c, 0, 64, 0
3, 18480, Note_on_c, 0, 55, 0
3, 18480, Note_on_c, 0, 54, 54
3, 18600, Note_on_c, 0, 54, 0
3, 18600, Note_on_c, 0, 64, 49
3, 18690, Note_on_c, 0, 64, 0
3, 18720, Note_on_c, 0, 62, 58
3, 18777, Control_c, 0, 64, 127
3, 18840, Note_on_c, 0, 62, 0
3, 18840, Note_on_c, 0, 47, 59
3, 18960, Note_on_c, 0, 47, 0
3, 18960, Note_on_c, 0, 52, 52
3, 19080, Note_on_c, 0, 52, 0
3, 19080, Note_on_c, 0, 64, 54
3, 19200, Note_on_c, 0, 64, 0
3, 19200, Note_on_c, 0, 54, 57
3, 19206, Control_c, 0, 64, 0
3, 19320, Note_on_c, 0, 54, 0
3, 19320, Note_on_c, 0, 64, 54
3, 19410, Note_on_c, 0, 64, 0
3, 19440, Note_on_c, 0, 62, 61
3, 19491, Control_c, 0, 64, 127
3, 19560, Note_on_c, 0, 62, 0
3, 19560, Note_on_c, 0, 53, 54
3, 19680, Note_on_c, 0, 53, 0
3, 19680, Note_on_c, 0, 59, 56
3, 19800, Note_on_c, 0, 59, 0
3, 19800, Note_on_c, 0, 68, 56
3, 19903, Control_c, 0, 64, 0
3, 19920, Note_on_c, 0, 68, 0
3, 19920, Note_on_c, 0, 61, 63
3, 19971, Control_c, 0, 64, 127
3, 20040, Note_on_c, 0, 61, 0
3, 20040, Note_on_c, 0, 62, 55
3, 20160, Note_on_c, 0, 62, 0
3, 20160, Note_on_c, 0, 54, 62
3, 20171, Control_c, 0, 64, 0
3, 20206, Control_c, 0, 64, 127
3, 20280, Note_on_c, 0, 54, 0
3, 20280, Note_on_c, 0, 62, 44
3, 20340, Note_on_c, 0, 62, 0
3, 20400, Note_on_c, 0, 58, 53
3, 20411, Control_c, 0, 64, 0
3, 20451, Control_c, 0, 64, 127
3, 20520, Note_on_c, 0, 58, 0
3, 20520, Note_on_c, 0, 43, 42
3, 20580, Note_on_c, 0, 43, 0
3, 20640, Note_on_c, 0, 57, 53
3, 20651, Control_c, 0, 64, 0
3, 20697, Control_c, 0, 64, 127
3, 20760, Note_on_c, 0, 57, 0
3, 20760, Note_on_c, 0, 45, 42
3, 20820, Note_on_c, 0, 45, 0
3, 20880, Note_on_c, 0, 38, 57
3, 20891, Control_c, 0, 64, 0
3, 20926, Control_c, 0, 64, 127
3, 21000, Note_on_c, 0, 38, 0
3, 21000, Note_on_c, 0, 57, 42
3, 21060, Note_on_c, 0, 57, 0
3, 21120, Note_on_c, 0, 58, 51
3, 21131, Control_c, 0, 64, 0
3, 21171, Control_c, 0, 64, 127
3, 21240, Note_on_c, 0, 58, 0
3, 21240, Note_on_c, 0, 43, 41
3, 21300, Note_on_c, 0, 43, 0
3, 21360, Note_on_c, 0, 57, 50
3, 21371, Control_c, 0, 64, 0
3, 21417, Control_c, 0, 64, 127
3, 21480, Note_on_c, 0, 57, 0
3, 21480, Note_on_c, 0, 45, 40
3, 21540, Note_on_c, 0, 45, 0
3, 21600, Note_on_c, 0, 38, 55
3, 21611, Control_c, 0, 64, 0
3, 21646, Control_c, 0, 64, 127
3, 21720, Note_on_c, 0, 38, 0
3, 21720, Note_on_c, 0, 57, 41
3, 21780, Note_on_c, 0, 57, 0
3, 21840, Note_on_c, 0, 58, 49
3, 21851, Control_c, 0, 64, 0
3, 21891, Control_c, 0, 64, 127
3, 21960, Note_on_c, 0, 58, 0
3, 21960, Note_on_c, 0, 43, 39
3, 22020, Note_on_c, 0, 43, 0
3, 22080, Note_on_c, 0, 57, 46
3, 22091, Control_c, 0, 64, 0
3, 22137, Control_c, 0, 64, 127
3, 22200, Note_on_c, 0, 57, 0
3, 22200, Note_on_c, 0, 45, 36
3, 22260, Note_on_c, 0, 45, 0
3, 22320, Note_on_c, 0, 38, 48
3, 22331, Control_c, 0, 64, 0
3, 22366, Control_c, 0, 64, 127
3, 22440, Note_on_c, 0, 38, 0
3, 22440, Note_on_c, 0, 57, 40
3, 22500, Note_on_c, 0, 57, 0
3, 22560, Note_on_c, 0, 58, 43
3, 22571, Control_c, 0, 64, 0
3, 22611, Control_c, 0, 64, 127
3, 22680, Note_on_c, 0, 58, 0
3, 22680, Note_on_c, 0, 43, 37
3, 22740, Note_on_c, 0, 43, 0
3, 22800, Note_on_c, 0, 57, 42
3, 22811, Control_c, 0, 64, 0
3, 22857, Control_c, 0, 64, 127
3, 22920, Note_on_c, 0, 57, 0
3, 22920, Note_on_c, 0, 45, 34
3, 22980, Note_on_c, 0, 45, 0
3, 23040, Note_on_c, 0, 38, 39
3, 23160, Note_on_c, 0, 38, 0
3, 23160, Note_on_c, 0, 45, 39
3, 23195, Control_c, 0, 64, 0
3, 23240, Control_c, 0, 64, 127
3, 23280, Note_on_c, 0, 45, 0
3, 23280, Note_on_c, 0, 57, 44
3, 23400, Note_on_c, 0, 57, 0
3, 23400, Note_on_c, 0, 45, 39
3, 23520, Note_on_c, 0, 45, 0
3, 23520, Note_on_c, 0, 38, 41
3, 23640, Note_on_c, 0, 38, 0
3, 23640, Note_on_c, 0, 45, 36
3, 23760, Note_on_c, 0, 45, 0
3, 23760, Note_on_c, 0, 57, 47
3, 23880, Note_on_c, 0, 57, 0
3, 23880, Note_on_c, 0, 45, 40
3, 23884, Control_c, 0, 64, 0
3, 23908, Control_c, 0, 64, 127
3, 24000, Note_on_c, 0, 45, 0
3, 24000, Note_on_c, 0, 38, 46
3, 24060, Note_on_c, 0, 38, 0
3, 24120, Note_on_c, 0, 45, 42
3, 24240, Note_on_c, 0, 45, 0
3, 24240, Note_on_c, 0, 57, 51
3, 24360, Note_on_c, 0, 57, 0
3, 24360, Note_on_c, 0, 45, 40
3, 24371, Control_c, 0, 64, 0
3, 24406, Control_c, 0, 64, 127
3, 24480, Note_on_c, 0, 45, 0
3, 24480, Note_on_c, 0, 38, 50
3, 24600, Note_on_c, 0, 38, 0
3, 24600, Note_on_c, 0, 45, 43
3, 24660, Note_on_c, 0, 45, 0
3, 24720, Note_on_c, 0, 57, 53
3, 24840, Note_on_c, 0, 57, 0
3, 24840, Note_on_c, 0, 45, 46
3, 24844, Control_c, 0, 64, 0
3, 24868, Control_c, 0, 64, 127
3, 24960, Note_on_c, 0, 45, 0
3, 24960, Note_on_c, 0, 38, 53
3, 25020, Note_on_c, 0, 38, 0
3, 25080, Note_on_c, 0, 45, 48
3, 25200, Note_on_c, 0, 45, 0
3, 25200, Note_on_c, 0, 57, 56
3, 25313, Control_c, 0, 64, 0
3, 25320, Note_on_c, 0, 57, 0
3, 25320, Note_on_c, 0, 45, 47
3, 25341, Control_c, 0, 64, 127
3, 25440, Note_on_c, 0, 45, 0
3, 25440, Note_on_c, 0, 38, 51
3, 25500, Note_on_c, 0, 38, 0
3, 25560, Note_on_c, 0, 45, 42
3, 25680, Note_on_c, 0, 45, 0
3, 25680, Note_on_c, 0, 57, 51
3, 25687, Control_c, 0, 64, 0
3, 25712, Control_c, 0, 64, 127
3, 25800, Note_on_c, 0, 57, 0
3, 25800, Note_on_c, 0, 45, 48
3, 25920, Note_on_c, 0, 45, 0
3, 25920, Note_on_c, 0, 38, 58
3, 26040, Note_on_c, 0, 38, 0
3, 26135, Control_c, 0, 64, 0
3, 26490, Note_on_c, 0, 45, 44
3, 26520, Note_on_c, 0, 52, 49
3, 26531, Control_c, 0, 64, 127
3, 26550, Note_on_c, 0, 61, 58
3, 26700, Note_on_c, 0, 61, 0
3, 26700, Note_on_c, 0, 52, 0
3, 26700, Note_on_c, 0, 45, 0
3, 26929, Control_c, 0, 64, 0
3, 27300, Control_c, 0, 64, 127
3, 27300, Note_on_c, 0, 38, 56
3, 27360, Note_on_c, 0, 38, 0
3, 27360, Note_on_c, 0, 50, 49
3, 27360, Note_on_c, 0, 57, 49
3, 27360, Note_on_c, 0, 62, 58
3, 27420, Note_on_c, 0, 62, 0
3, 27420, Note_on_c, 0, 57, 0
3, 27420, Note_on_c, 0, 50, 0
3, 27688, Control_c, 0, 64, 0
3, 27688, End_track
4, 0, Start_track
4, 0, MIDI_port, 0
4, 0, Title_t, "Chopin: Prelude No.5 in D Major, Op. 28"
4, 0, End_track
5, 0, Start_track
5, 0, MIDI_port, 0
5, 0, Title_t, "Copyright \251 2002 by Bernd Krueger"
5, 0, End_track
6, 0, Start_track
6, 0, MIDI_port, 0
6, 0, Title_t, "email: bernd.krueger@piano-midi.de"
6, 0, End_track
7, 0, Start_track
7, 0, MIDI_port, 0
7, 0, Title_t, "http://www.piano-midi.de"
7, 0, End_track
8, 0, Start_track
8, 0, MIDI_port, 0
8, 0, Title_t, "Edition: 24.12.02"
8, 0, End_track
9, 0, Start_track
9, 0, MIDI_port, 0
9, 0, End_track
10, 0, Start_track
10, 0, MIDI_port, 0
10, 0, End_track
0, 0, End_of_file