0, 0, Header, 1, 4, 120
1, 0, Start_track
1, 0, Sequencer_specific, 03, 00, 00, 41
1, 0, Time_signature, 4, 2, 24, 8
1, 0, Key_signature, 0, "major"
1, 0, Tempo, 476190
1, 22558, Tempo, 491803
1, 22680, Tempo, 535714
1, 22920, Tempo, 517241
1, 23040, Tempo, 500000
1, 24120, Tempo, 483870
1, 24476, Tempo, 480000
1, 37442, Tempo, 500000
1, 37442, End_track
2, 0, Start_track
2, 0, MIDI_port, 0
2, 0, Title_t, "PIANO               "
2, 0, Program_c, 0, 1
2, 0, Control_c, 0, 7, 127
2, 0, Control_c, 0, 10, 64
2, 357, Control_c, 0, 121, 0
2, 357, Control_c, 0, 0, 0
2, 357, Program_c, 0, 1
2, 357, Control_c, 0, 7, 127
2, 357, Note_on_c, 0, 56, 115
2, 358, Note_on_c, 0, 44, 120
2, 358, Note_on_c, 0, 68, 113
2, 358, Note_on_c, 0, 80, 117
2, 385, Note_on_c, 0, 78, 103
2, 394, Note_on_c, 0, 80, 0
2, 413, Note_on_c, 0, 56, 0
2, 415, Note_on_c, 0, 76, 107
2, 418, Note_on_c, 0, 68, 0
2, 419, Note_on_c, 0, 44, 0
2, 423, Note_on_c, 0, 78, 0
2, 445, Note_on_c, 0, 75, 106
2, 445, Note_on_c, 0, 76, 0
2, 472, Note_on_c, 0, 73, 116
2, 473, Note_on_c, 0, 49, 112
2, 473, Note_on_c, 0, 85, 116
2, 475, Note_on_c, 0, 37, 119
2, 475, Note_on_c, 0, 75, 0
2, 500, Note_on_c, 0, 37, 0
2, 505, Note_on_c, 0, 75, 99
2, 509, Note_on_c, 0, 73, 0
2, 509, Note_on_c, 0, 85, 0
2, 510, Note_on_c, 0, 49, 0
2, 530, Note_on_c, 0, 75, 0
2, 531, Note_on_c, 0, 72, 106
2, 563, Note_on_c, 0, 73, 103
2, 568, Note_on_c, 0, 72, 0
2, 590, Note_on_c, 0, 75, 103
2, 591, Note_on_c, 0, 69, 106
2, 591, Note_on_c, 0, 66, 112
2, 595, Note_on_c, 0, 73, 0
2, 620, Note_on_c, 0, 76, 105
2, 620, Note_on_c, 0, 75, 0
2, 621, Note_on_c, 0, 69, 0
2, 645, Note_on_c, 0, 76, 0
2, 650, Note_on_c, 0, 73, 103
2, 678, Note_on_c, 0, 75, 98
2, 682, Note_on_c, 0, 73, 0
2, 706, Note_on_c, 0, 68, 94
2, 707, Note_on_c, 0, 76, 108
2, 707, Note_on_c, 0, 64, 97
2, 708, Note_on_c, 0, 75, 0
2, 736, Note_on_c, 0, 68, 0
2, 737, Note_on_c, 0, 64, 0
2, 737, Note_on_c, 0, 76, 0
2, 738, Note_on_c, 0, 78, 89
2, 760, Note_on_c, 0, 78, 0
2, 765, Note_on_c, 0, 75, 108
2, 792, Note_on_c, 0, 76, 99
2, 793, Note_on_c, 0, 75, 0
2, 822, Note_on_c, 0, 78, 103
2, 823, Note_on_c, 0, 63, 94
2, 825, Note_on_c, 0, 76, 0
2, 838, Note_on_c, 0, 66, 0
2, 852, Note_on_c, 0, 80, 93
2, 853, Note_on_c, 0, 63, 0
2, 857, Note_on_c, 0, 78, 0
2, 878, Note_on_c, 0, 80, 0
2, 881, Note_on_c, 0, 76, 95
2, 913, Note_on_c, 0, 78, 99
2, 917, Note_on_c, 0, 76, 0
2, 942, Note_on_c, 0, 80, 116
2, 942, Note_on_c, 0, 64, 109
2, 942, Note_on_c, 0, 61, 103
2, 946, Note_on_c, 0, 78, 0
2, 975, Note_on_c, 0, 81, 106
2, 978, Note_on_c, 0, 80, 0
2, 1001, Note_on_c, 0, 81, 0
2, 1003, Note_on_c, 0, 80, 118
2, 1019, Note_on_c, 0, 64, 0
2, 1019, Note_on_c, 0, 61, 0
2, 1032, Note_on_c, 0, 80, 0
2, 1033, Note_on_c, 0, 85, 113
2, 1063, Note_on_c, 0, 57, 101
2, 1063, Note_on_c, 0, 66, 101
2, 1065, Note_on_c, 0, 78, 122
2, 1065, Note_on_c, 0, 61, 99
2, 1065, Note_on_c, 0, 85, 0
2, 1093, Note_on_c, 0, 80, 104
2, 1098, Note_on_c, 0, 78, 0
2, 1117, Note_on_c, 0, 80, 0
2, 1122, Note_on_c, 0, 78, 104
2, 1123, Note_on_c, 0, 57, 0
2, 1123, Note_on_c, 0, 66, 0
2, 1125, Note_on_c, 0, 61, 0
2, 1149, Note_on_c, 0, 78, 0
2, 1150, Note_on_c, 0, 85, 109
2, 1180, Note_on_c, 0, 56, 100
2, 1180, Note_on_c, 0, 76, 114
2, 1180, Note_on_c, 0, 64, 98
2, 1181, Note_on_c, 0, 61, 100
2, 1188, Note_on_c, 0, 85, 0
2, 1211, Note_on_c, 0, 78, 108
2, 1217, Note_on_c, 0, 76, 0
2, 1240, Note_on_c, 0, 64, 0
2, 1240, Note_on_c, 0, 56, 0
2, 1241, Note_on_c, 0, 76, 110
2, 1241, Note_on_c, 0, 61, 0
2, 1242, Note_on_c, 0, 78, 0
2, 1269, Note_on_c, 0, 76, 0
2, 1271, Note_on_c, 0, 85, 108
2, 1302, Note_on_c, 0, 63, 111
2, 1302, Note_on_c, 0, 75, 121
2, 1303, Note_on_c, 0, 54, 102
2, 1303, Note_on_c, 0, 61, 103
2, 1309, Note_on_c, 0, 85, 0
2, 1332, Note_on_c, 0, 76, 102
2, 1332, Note_on_c, 0, 75, 0
2, 1357, Note_on_c, 0, 76, 0
2, 1360, Note_on_c, 0, 75, 115
2, 1362, Note_on_c, 0, 63, 0
2, 1363, Note_on_c, 0, 54, 0
2, 1363, Note_on_c, 0, 61, 0
2, 1388, Note_on_c, 0, 85, 109
2, 1390, Note_on_c, 0, 75, 0
2, 1405, Note_on_c, 0, 49, 98
2, 1418, Note_on_c, 0, 56, 100
2, 1423, Note_on_c, 0, 85, 0
2, 1425, Note_on_c, 0, 73, 115
2, 1426, Note_on_c, 0, 64, 118
2, 1435, Note_on_c, 0, 49, 0
2, 1460, Note_on_c, 0, 80, 100
2, 1469, Note_on_c, 0, 56, 0
2, 1469, Note_on_c, 0, 64, 0
2, 1485, Note_on_c, 0, 73, 0
2, 1486, Note_on_c, 0, 88, 109
2, 1513, Note_on_c, 0, 80, 0
2, 1515, Note_on_c, 0, 81, 102
2, 1516, Note_on_c, 0, 88, 0
2, 1518, Note_on_c, 0, 44, 107
2, 1535, Note_on_c, 0, 54, 93
2, 1543, Note_on_c, 0, 60, 123
2, 1545, Note_on_c, 0, 72, 117
2, 1545, Note_on_c, 0, 81, 0
2, 1575, Note_on_c, 0, 78, 102
2, 1578, Note_on_c, 0, 44, 0
2, 1595, Note_on_c, 0, 54, 0
2, 1603, Note_on_c, 0, 87, 118
2, 1603, Note_on_c, 0, 60, 0
2, 1605, Note_on_c, 0, 72, 0
2, 1633, Note_on_c, 0, 87, 0
2, 1634, Note_on_c, 0, 78, 0
2, 1635, Note_on_c, 0, 80, 97
2, 1660, Note_on_c, 0, 61, 116
2, 1660, Note_on_c, 0, 49, 115
2, 1662, Note_on_c, 0, 52, 109
2, 1662, Note_on_c, 0, 68, 116
2, 1665, Note_on_c, 0, 80, 0
2, 1693, Note_on_c, 0, 76, 101
2, 1720, Note_on_c, 0, 61, 0
2, 1720, Note_on_c, 0, 49, 0
2, 1721, Note_on_c, 0, 85, 113
2, 1722, Note_on_c, 0, 52, 0
2, 1722, Note_on_c, 0, 68, 0
2, 1749, Note_on_c, 0, 85, 0
2, 1752, Note_on_c, 0, 78, 93
2, 1753, Note_on_c, 0, 76, 0
2, 1780, Note_on_c, 0, 56, 113
2, 1781, Note_on_c, 0, 68, 117
2, 1781, Note_on_c, 0, 44, 126
2, 1782, Note_on_c, 0, 78, 0
2, 1812, Note_on_c, 0, 75, 99
2, 1838, Note_on_c, 0, 84, 103
2, 1840, Note_on_c, 0, 56, 0
2, 1841, Note_on_c, 0, 44, 0
2, 1841, Note_on_c, 0, 68, 0
2, 1842, Note_on_c, 0, 75, 0
2, 1867, Note_on_c, 0, 76, 97
2, 1868, Note_on_c, 0, 84, 0
2, 1897, Note_on_c, 0, 61, 96
2, 1897, Note_on_c, 0, 76, 0
2, 1900, Note_on_c, 0, 85, 118
2, 1901, Note_on_c, 0, 73, 112
2, 1902, Note_on_c, 0, 49, 114
2, 1903, Note_on_c, 0, 37, 125
2, 1917, Note_on_c, 0, 37, 0
2, 1949, Note_on_c, 0, 61, 0
2, 1949, Note_on_c, 0, 49, 0
2, 1957, Note_on_c, 0, 73, 0
2, 1964, Note_on_c, 0, 85, 0
2, 1965, Note_on_c, 0, 69, 115
2, 1966, Note_on_c, 0, 57, 113
2, 1967, Note_on_c, 0, 45, 120
2, 1992, Note_on_c, 0, 81, 99
2, 1996, Note_on_c, 0, 57, 0
2, 1996, Note_on_c, 0, 69, 0
2, 1997, Note_on_c, 0, 45, 0
2, 2022, Note_on_c, 0, 81, 0
2, 2027, Note_on_c, 0, 68, 124
2, 2027, Note_on_c, 0, 56, 114
2, 2028, Note_on_c, 0, 44, 124
2, 2058, Note_on_c, 0, 80, 112
2, 2062, Note_on_c, 0, 44, 0
2, 2068, Note_on_c, 0, 56, 0
2, 2069, Note_on_c, 0, 68, 0
2, 2088, Note_on_c, 0, 67, 112
2, 2088, Note_on_c, 0, 80, 0
2, 2090, Note_on_c, 0, 43, 106
2, 2090, Note_on_c, 0, 55, 99
2, 2115, Note_on_c, 0, 79, 94
2, 2117, Note_on_c, 0, 67, 0
2, 2120, Note_on_c, 0, 43, 0
2, 2120, Note_on_c, 0, 55, 0
2, 2145, Note_on_c, 0, 79, 0
2, 2150, Note_on_c, 0, 56, 112
2, 2152, Note_on_c, 0, 68, 117
2, 2152, Note_on_c, 0, 44, 120
2, 2181, Note_on_c, 0, 80, 113
2, 2182, Note_on_c, 0, 44, 0
2, 2210, Note_on_c, 0, 56, 0
2, 2211, Note_on_c, 0, 80, 0
2, 2212, Note_on_c, 0, 68, 0
2, 2217, Note_on_c, 0, 37, 125
2, 2218, Note_on_c, 0, 49, 117
2, 2220, Note_on_c, 0, 61, 121
2, 2235, Note_on_c, 0, 37, 0
2, 2243, Note_on_c, 0, 73, 104
2, 2244, Note_on_c, 0, 49, 0
2, 2250, Note_on_c, 0, 61, 0
2, 2273, Note_on_c, 0, 73, 0
2, 2282, Note_on_c, 0, 75, 118
2, 2282, Note_on_c, 0, 63, 111
2, 2283, Note_on_c, 0, 67, 107
2, 2283, Note_on_c, 0, 61, 116
2, 2283, Note_on_c, 0, 70, 100
2, 2283, Note_on_c, 0, 51, 119
2, 2313, Note_on_c, 0, 49, 97
2, 2319, Note_on_c, 0, 51, 0
2, 2338, Note_on_c, 0, 49, 0
2, 2342, Note_on_c, 0, 47, 104
2, 2344, Note_on_c, 0, 75, 0
2, 2346, Note_on_c, 0, 67, 0
2, 2347, Note_on_c, 0, 70, 0
2, 2350, Note_on_c, 0, 63, 0
2, 2358, Note_on_c, 0, 61, 0
2, 2368, Note_on_c, 0, 46, 104
2, 2368, Note_on_c, 0, 47, 0
2, 2400, Note_on_c, 0, 46, 0
2, 2402, Note_on_c, 0, 59, 107
2, 2402, Note_on_c, 0, 44, 98
2, 2403, Note_on_c, 0, 71, 98
2, 2403, Note_on_c, 0, 68, 97
2, 2403, Note_on_c, 0, 63, 95
2, 2424, Note_on_c, 0, 59, 0
2, 2425, Note_on_c, 0, 44, 0
2, 2428, Note_on_c, 0, 68, 0
2, 2429, Note_on_c, 0, 71, 0
2, 2430, Note_on_c, 0, 46, 93
2, 2438, Note_on_c, 0, 63, 0
2, 2453, Note_on_c, 0, 46, 0
2, 2460, Note_on_c, 0, 43, 91
2, 2485, Note_on_c, 0, 43, 0
2, 2488, Note_on_c, 0, 44, 98
2, 2516, Note_on_c, 0, 46, 95
2, 2516, Note_on_c, 0, 44, 0
2, 2517, Note_on_c, 0, 61, 97
2, 2517, Note_on_c, 0, 63, 91
2, 2518, Note_on_c, 0, 67, 98
2, 2542, Note_on_c, 0, 46, 0
2, 2545, Note_on_c, 0, 47, 95
2, 2577, Note_on_c, 0, 44, 91
2, 2577, Note_on_c, 0, 47, 0
2, 2577, Note_on_c, 0, 61, 0
2, 2577, Note_on_c, 0, 63, 0
2, 2578, Note_on_c, 0, 67, 0
2, 2604, Note_on_c, 0, 44, 0
2, 2606, Note_on_c, 0, 46, 98
2, 2634, Note_on_c, 0, 46, 0
2, 2636, Note_on_c, 0, 68, 98
2, 2637, Note_on_c, 0, 59, 96
2, 2637, Note_on_c, 0, 47, 94
2, 2638, Note_on_c, 0, 63, 97
2, 2662, Note_on_c, 0, 47, 0
2, 2665, Note_on_c, 0, 49, 97
2, 2695, Note_on_c, 0, 46, 100
2, 2696, Note_on_c, 0, 49, 0
2, 2696, Note_on_c, 0, 68, 0
2, 2697, Note_on_c, 0, 59, 0
2, 2698, Note_on_c, 0, 63, 0
2, 2719, Note_on_c, 0, 46, 0
2, 2723, Note_on_c, 0, 47, 95
2, 2753, Note_on_c, 0, 47, 0
2, 2755, Note_on_c, 0, 68, 89
2, 2755, Note_on_c, 0, 61, 88
2, 2755, Note_on_c, 0, 64, 92
2, 2756, Note_on_c, 0, 49, 89
2, 2782, Note_on_c, 0, 49, 0
2, 2785, Note_on_c, 0, 51, 92
2, 2815, Note_on_c, 0, 51, 0
2, 2815, Note_on_c, 0, 64, 0
2, 2815, Note_on_c, 0, 61, 0
2, 2815, Note_on_c, 0, 68, 0
2, 2816, Note_on_c, 0, 47, 94
2, 2837, Note_on_c, 0, 47, 0
2, 2842, Note_on_c, 0, 49, 92
2, 2874, Note_on_c, 0, 49, 0
2, 2875, Note_on_c, 0, 68, 93
2, 2875, Note_on_c, 0, 63, 99
2, 2875, Note_on_c, 0, 51, 97
2, 2875, Note_on_c, 0, 59, 92
2, 2905, Note_on_c, 0, 52, 94
2, 2905, Note_on_c, 0, 51, 0
2, 2923, Note_on_c, 0, 52, 0
2, 2933, Note_on_c, 0, 51, 92
2, 2939, Note_on_c, 0, 59, 0
2, 2940, Note_on_c, 0, 68, 0
2, 2940, Note_on_c, 0, 63, 0
2, 2958, Note_on_c, 0, 51, 0
2, 2962, Note_on_c, 0, 56, 94
2, 2987, Note_on_c, 0, 56, 0
2, 2991, Note_on_c, 0, 68, 89
2, 2991, Note_on_c, 0, 61, 84
2, 2992, Note_on_c, 0, 64, 95
2, 2995, Note_on_c, 0, 49, 86
2, 3018, Note_on_c, 0, 49, 0
2, 3023, Note_on_c, 0, 51, 94
2, 3049, Note_on_c, 0, 51, 0
2, 3051, Note_on_c, 0, 61, 0
2, 3051, Note_on_c, 0, 68, 0
2, 3052, Note_on_c, 0, 49, 92
2, 3052, Note_on_c, 0, 64, 0
2, 3077, Note_on_c, 0, 49, 0
2, 3080, Note_on_c, 0, 56, 91
2, 3101, Note_on_c, 0, 56, 0
2, 3110, Note_on_c, 0, 68, 94
2, 3111, Note_on_c, 0, 63, 99
2, 3112, Note_on_c, 0, 47, 97
2, 3137, Note_on_c, 0, 47, 0
2, 3140, Note_on_c, 0, 49, 100
2, 3165, Note_on_c, 0, 49, 0
2, 3168, Note_on_c, 0, 47, 95
2, 3170, Note_on_c, 0, 68, 0
2, 3171, Note_on_c, 0, 63, 0
2, 3187, Note_on_c, 0, 47, 0
2, 3193, Note_on_c, 0, 56, 91
2, 3215, Note_on_c, 0, 56, 0
2, 3225, Note_on_c, 0, 70, 88
2, 3225, Note_on_c, 0, 46, 97
2, 3227, Note_on_c, 0, 61, 72
2, 3227, Note_on_c, 0, 63, 65
2, 3247, Note_on_c, 0, 46, 0
2, 3253, Note_on_c, 0, 47, 91
2, 3282, Note_on_c, 0, 46, 95
2, 3283, Note_on_c, 0, 47, 0
2, 3285, Note_on_c, 0, 70, 0
2, 3287, Note_on_c, 0, 63, 0
2, 3287, Note_on_c, 0, 61, 0
2, 3307, Note_on_c, 0, 46, 0
2, 3310, Note_on_c, 0, 55, 95
2, 3332, Note_on_c, 0, 55, 0
2, 3340, Note_on_c, 0, 71, 93
2, 3340, Note_on_c, 0, 44, 108
2, 3342, Note_on_c, 0, 68, 92
2, 3342, Note_on_c, 0, 63, 91
2, 3342, Note_on_c, 0, 59, 91
2, 3372, Note_on_c, 0, 52, 104
2, 3372, Note_on_c, 0, 44, 0
2, 3382, Note_on_c, 0, 59, 0
2, 3397, Note_on_c, 0, 52, 0
2, 3400, Note_on_c, 0, 71, 0
2, 3402, Note_on_c, 0, 59, 105
2, 3402, Note_on_c, 0, 68, 0
2, 3402, Note_on_c, 0, 63, 0
2, 3431, Note_on_c, 0, 51, 104
2, 3461, Note_on_c, 0, 51, 0
2, 3462, Note_on_c, 0, 87, 123
2, 3462, Note_on_c, 0, 59, 0
2, 3463, Note_on_c, 0, 82, 119
2, 3463, Note_on_c, 0, 75, 118
2, 3465, Note_on_c, 0, 43, 104
2, 3492, Note_on_c, 0, 43, 0
2, 3496, Note_on_c, 0, 52, 90
2, 3526, Note_on_c, 0, 58, 99
2, 3526, Note_on_c, 0, 52, 0
2, 3553, Note_on_c, 0, 51, 99
2, 3568, Note_on_c, 0, 75, 0
2, 3582, Note_on_c, 0, 87, 0
2, 3583, Note_on_c, 0, 44, 109
2, 3583, Note_on_c, 0, 51, 0
2, 3585, Note_on_c, 0, 75, 93
2, 3586, Note_on_c, 0, 83, 105
2, 3586, Note_on_c, 0, 58, 0
2, 3588, Note_on_c, 0, 82, 0
2, 3613, Note_on_c, 0, 44, 0
2, 3615, Note_on_c, 0, 52, 100
2, 3643, Note_on_c, 0, 59, 99
2, 3645, Note_on_c, 0, 52, 0
2, 3645, Note_on_c, 0, 75, 0
2, 3646, Note_on_c, 0, 83, 0
2, 3670, Note_on_c, 0, 51, 106
2, 3700, Note_on_c, 0, 51, 0
2, 3701, Note_on_c, 0, 63, 124
2, 3702, Note_on_c, 0, 75, 124
2, 3702, Note_on_c, 0, 70, 117
2, 3702, Note_on_c, 0, 43, 98
2, 3703, Note_on_c, 0, 59, 0
2, 3725, Note_on_c, 0, 43, 0
2, 3735, Note_on_c, 0, 52, 92
2, 3762, Note_on_c, 0, 58, 99
2, 3765, Note_on_c, 0, 52, 0
2, 3775, Note_on_c, 0, 63, 0
2, 3788, Note_on_c, 0, 51, 92
2, 3792, Note_on_c, 0, 75, 0
2, 3819, Note_on_c, 0, 51, 0
2, 3822, Note_on_c, 0, 58, 0
2, 3825, Note_on_c, 0, 71, 102
2, 3825, Note_on_c, 0, 44, 93
2, 3827, Note_on_c, 0, 63, 91
2, 3827, Note_on_c, 0, 56, 89
2, 3829, Note_on_c, 0, 70, 0
2, 3885, Note_on_c, 0, 71, 0
2, 3885, Note_on_c, 0, 44, 0
2, 3887, Note_on_c, 0, 63, 0
2, 3887, Note_on_c, 0, 56, 0
2, 3893, Note_on_c, 0, 64, 106
2, 3895, Note_on_c, 0, 61, 79
2, 3925, Note_on_c, 0, 67, 89
2, 3936, Note_on_c, 0, 64, 0
2, 3943, Note_on_c, 0, 61, 0
2, 3955, Note_on_c, 0, 63, 91
2, 3955, Note_on_c, 0, 59, 79
2, 3955, Note_on_c, 0, 67, 0
2, 3985, Note_on_c, 0, 68, 88
2, 3985, Note_on_c, 0, 59, 0
2, 3986, Note_on_c, 0, 63, 0
2, 4015, Note_on_c, 0, 67, 105
2, 4015, Note_on_c, 0, 68, 0
2, 4017, Note_on_c, 0, 64, 96
2, 4045, Note_on_c, 0, 70, 89
2, 4052, Note_on_c, 0, 67, 0
2, 4075, Note_on_c, 0, 66, 91
2, 4075, Note_on_c, 0, 63, 89
2, 4077, Note_on_c, 0, 64, 0
2, 4083, Note_on_c, 0, 70, 0
2, 4101, Note_on_c, 0, 71, 91
2, 4105, Note_on_c, 0, 66, 0
2, 4105, Note_on_c, 0, 63, 0
2, 4131, Note_on_c, 0, 71, 0
2, 4135, Note_on_c, 0, 69, 109
2, 4135, Note_on_c, 0, 66, 99
2, 4163, Note_on_c, 0, 72, 102
2, 4192, Note_on_c, 0, 68, 109
2, 4193, Note_on_c, 0, 64, 93
2, 4197, Note_on_c, 0, 69, 0
2, 4198, Note_on_c, 0, 66, 0
2, 4199, Note_on_c, 0, 72, 0
2, 4220, Note_on_c, 0, 73, 101
2, 4223, Note_on_c, 0, 68, 0
2, 4223, Note_on_c, 0, 64, 0
2, 4250, Note_on_c, 0, 73, 0
2, 4251, Note_on_c, 0, 66, 99
2, 4252, Note_on_c, 0, 56, 97
2, 4252, Note_on_c, 0, 72, 114
2, 4253, Note_on_c, 0, 63, 98
2, 4281, Note_on_c, 0, 66, 0
2, 4282, Note_on_c, 0, 75, 115
2, 4290, Note_on_c, 0, 72, 0
2, 4312, Note_on_c, 0, 61, 109
2, 4313, Note_on_c, 0, 64, 112
2, 4313, Note_on_c, 0, 73, 116
2, 4314, Note_on_c, 0, 63, 0
2, 4319, Note_on_c, 0, 56, 0
2, 4320, Note_on_c, 0, 75, 0
2, 4342, Note_on_c, 0, 75, 98
2, 4349, Note_on_c, 0, 73, 0
2, 4371, Note_on_c, 0, 72, 106
2, 4372, Note_on_c, 0, 75, 0
2, 4379, Note_on_c, 0, 64, 0
2, 4379, Note_on_c, 0, 61, 0
2, 4402, Note_on_c, 0, 73, 92
2, 4405, Note_on_c, 0, 72, 0
2, 4432, Note_on_c, 0, 75, 84
2, 4432, Note_on_c, 0, 73, 0
2, 4435, Note_on_c, 0, 69, 72
2, 4435, Note_on_c, 0, 66, 75
2, 4460, Note_on_c, 0, 75, 0
2, 4463, Note_on_c, 0, 76, 93
2, 4487, Note_on_c, 0, 76, 0
2, 4492, Note_on_c, 0, 73, 86
2, 4495, Note_on_c, 0, 66, 0
2, 4495, Note_on_c, 0, 69, 0
2, 4520, Note_on_c, 0, 75, 85
2, 4522, Note_on_c, 0, 73, 0
2, 4550, Note_on_c, 0, 68, 67
2, 4550, Note_on_c, 0, 75, 0
2, 4551, Note_on_c, 0, 76, 95
2, 4553, Note_on_c, 0, 64, 80
2, 4579, Note_on_c, 0, 76, 0
2, 4583, Note_on_c, 0, 78, 79
2, 4609, Note_on_c, 0, 78, 0
2, 4610, Note_on_c, 0, 68, 0
2, 4612, Note_on_c, 0, 75, 88
2, 4613, Note_on_c, 0, 64, 0
2, 4642, Note_on_c, 0, 75, 0
2, 4643, Note_on_c, 0, 76, 90
2, 4675, Note_on_c, 0, 78, 89
2, 4675, Note_on_c, 0, 76, 0
2, 4677, Note_on_c, 0, 66, 72
2, 4678, Note_on_c, 0, 63, 70
2, 4707, Note_on_c, 0, 80, 79
2, 4711, Note_on_c, 0, 78, 0
2, 4728, Note_on_c, 0, 80, 0
2, 4735, Note_on_c, 0, 76, 80
2, 4737, Note_on_c, 0, 66, 0
2, 4738, Note_on_c, 0, 63, 0
2, 4766, Note_on_c, 0, 78, 84
2, 4768, Note_on_c, 0, 76, 0
2, 4798, Note_on_c, 0, 80, 95
2, 4800, Note_on_c, 0, 64, 74
2, 4800, Note_on_c, 0, 61, 72
2, 4803, Note_on_c, 0, 78, 0
2, 4829, Note_on_c, 0, 80, 0
2, 4830, Note_on_c, 0, 81, 95
2, 4855, Note_on_c, 0, 81, 0
2, 4858, Note_on_c, 0, 80, 102
2, 4860, Note_on_c, 0, 64, 0
2, 4860, Note_on_c, 0, 61, 0
2, 4891, Note_on_c, 0, 85, 98
2, 4891, Note_on_c, 0, 80, 0
2, 4923, Note_on_c, 0, 57, 82
2, 4923, Note_on_c, 0, 78, 90
2, 4923, Note_on_c, 0, 61, 75
2, 4923, Note_on_c, 0, 66, 71
2, 4948, Note_on_c, 0, 80, 95
2, 4949, Note_on_c, 0, 78, 0
2, 4951, Note_on_c, 0, 85, 0
2, 4977, Note_on_c, 0, 80, 0
2, 4978, Note_on_c, 0, 78, 98
2, 4983, Note_on_c, 0, 57, 0
2, 4983, Note_on_c, 0, 66, 0
2, 4983, Note_on_c, 0, 61, 0
2, 5008, Note_on_c, 0, 85, 109
2, 5009, Note_on_c, 0, 78, 0
2, 5035, Note_on_c, 0, 76, 103
2, 5036, Note_on_c, 0, 64, 82
2, 5037, Note_on_c, 0, 56, 79
2, 5037, Note_on_c, 0, 61, 74
2, 5065, Note_on_c, 0, 78, 102
2, 5068, Note_on_c, 0, 85, 0
2, 5071, Note_on_c, 0, 76, 0
2, 5094, Note_on_c, 0, 78, 0
2, 5095, Note_on_c, 0, 76, 101
2, 5096, Note_on_c, 0, 64, 0
2, 5097, Note_on_c, 0, 56, 0
2, 5097, Note_on_c, 0, 61, 0
2, 5125, Note_on_c, 0, 85, 104
2, 5127, Note_on_c, 0, 76, 0
2, 5153, Note_on_c, 0, 75, 104
2, 5155, Note_on_c, 0, 63, 79
2, 5156, Note_on_c, 0, 61, 73
2, 5157, Note_on_c, 0, 54, 73
2, 5181, Note_on_c, 0, 75, 0
2, 5183, Note_on_c, 0, 76, 95
2, 5197, Note_on_c, 0, 85, 0
2, 5213, Note_on_c, 0, 76, 0
2, 5215, Note_on_c, 0, 75, 112
2, 5215, Note_on_c, 0, 63, 0
2, 5216, Note_on_c, 0, 61, 0
2, 5217, Note_on_c, 0, 54, 0
2, 5243, Note_on_c, 0, 85, 111
2, 5248, Note_on_c, 0, 75, 0
2, 5253, Note_on_c, 0, 49, 79
2, 5273, Note_on_c, 0, 56, 103
2, 5280, Note_on_c, 0, 73, 110
2, 5286, Note_on_c, 0, 64, 111
2, 5288, Control_c, 0, 64, 127
2, 5307, Note_on_c, 0, 80, 104
2, 5309, Note_on_c, 0, 85, 0
2, 5337, Note_on_c, 0, 88, 106
2, 5339, Note_on_c, 0, 49, 0
2, 5339, Note_on_c, 0, 56, 0
2, 5340, Control_c, 0, 64, 0
2, 5340, Note_on_c, 0, 73, 0
2, 5346, Note_on_c, 0, 64, 0
2, 5363, Note_on_c, 0, 81, 111
2, 5367, Note_on_c, 0, 80, 0
2, 5377, Note_on_c, 0, 44, 100
2, 5387, Note_on_c, 0, 54, 95
2, 5393, Control_c, 0, 64, 127
2, 5395, Note_on_c, 0, 60, 122
2, 5396, Note_on_c, 0, 72, 109
2, 5397, Note_on_c, 0, 88, 0
2, 5400, Note_on_c, 0, 81, 0
2, 5425, Note_on_c, 0, 78, 102
2, 5430, Control_c, 0, 64, 0
2, 5437, Note_on_c, 0, 44, 0
2, 5447, Note_on_c, 0, 54, 0
2, 5455, Note_on_c, 0, 87, 117
2, 5455, Note_on_c, 0, 60, 0
2, 5456, Note_on_c, 0, 72, 0
2, 5482, Note_on_c, 0, 80, 100
2, 5486, Note_on_c, 0, 78, 0
2, 5488, Note_on_c, 0, 45, 98
2, 5502, Note_on_c, 0, 52, 98
2, 5506, Control_c, 0, 64, 127
2, 5512, Note_on_c, 0, 69, 108
2, 5513, Note_on_c, 0, 61, 127
2, 5515, Note_on_c, 0, 87, 0
2, 5542, Note_on_c, 0, 80, 0
2, 5543, Note_on_c, 0, 75, 99
2, 5548, Note_on_c, 0, 45, 0
2, 5562, Note_on_c, 0, 52, 0
2, 5572, Note_on_c, 0, 85, 110
2, 5572, Note_on_c, 0, 69, 0
2, 5573, Note_on_c, 0, 61, 0
2, 5578, Control_c, 0, 64, 0
2, 5597, Note_on_c, 0, 76, 97
2, 5603, Note_on_c, 0, 75, 0
2, 5628, Note_on_c, 0, 65, 117
2, 5628, Note_on_c, 0, 62, 114
2, 5630, Note_on_c, 0, 68, 122
2, 5630, Note_on_c, 0, 59, 114
2, 5630, Note_on_c, 0, 53, 122
2, 5632, Note_on_c, 0, 85, 0
2, 5636, Control_c, 0, 64, 127
2, 5657, Note_on_c, 0, 73, 101
2, 5657, Note_on_c, 0, 76, 0
2, 5686, Note_on_c, 0, 83, 107
2, 5690, Note_on_c, 0, 68, 0
2, 5693, Note_on_c, 0, 53, 0
2, 5694, Note_on_c, 0, 65, 0
2, 5695, Note_on_c, 0, 62, 0
2, 5696, Control_c, 0, 64, 0
2, 5696, Note_on_c, 0, 59, 0
2, 5717, Note_on_c, 0, 74, 98
2, 5717, Note_on_c, 0, 73, 0
2, 5745, Note_on_c, 0, 69, 118
2, 5745, Note_on_c, 0, 66, 120
2, 5746, Note_on_c, 0, 61, 112
2, 5746, Note_on_c, 0, 83, 0
2, 5747, Note_on_c, 0, 54, 113
2, 5747, Note_on_c, 0, 57, 106
2, 5748, Control_c, 0, 64, 127
2, 5775, Note_on_c, 0, 73, 111
2, 5777, Note_on_c, 0, 74, 0
2, 5803, Note_on_c, 0, 50, 113
2, 5803, Note_on_c, 0, 81, 106
2, 5805, Note_on_c, 0, 66, 0
2, 5806, Note_on_c, 0, 61, 0
2, 5807, Note_on_c, 0, 54, 0
2, 5807, Note_on_c, 0, 57, 0
2, 5810, Control_c, 0, 64, 0
2, 5812, Note_on_c, 0, 73, 0
2, 5830, Note_on_c, 0, 78, 101
2, 5830, Note_on_c, 0, 81, 0
2, 5833, Note_on_c, 0, 50, 0
2, 5835, Note_on_c, 0, 69, 0
2, 5855, Note_on_c, 0, 78, 0
2, 5862, Note_on_c, 0, 61, 117
2, 5863, Note_on_c, 0, 81, 125
2, 5863, Note_on_c, 0, 49, 127
2, 5866, Control_c, 0, 64, 127
2, 5888, Note_on_c, 0, 85, 109
2, 5892, Note_on_c, 0, 61, 0
2, 5893, Note_on_c, 0, 49, 0
2, 5918, Note_on_c, 0, 85, 0
2, 5920, Note_on_c, 0, 57, 114
2, 5921, Control_c, 0, 64, 0
2, 5921, Note_on_c, 0, 93, 120
2, 5922, Note_on_c, 0, 45, 120
2, 5947, Note_on_c, 0, 90, 104
2, 5949, Note_on_c, 0, 81, 0
2, 5950, Note_on_c, 0, 57, 0
2, 5951, Note_on_c, 0, 93, 0
2, 5952, Note_on_c, 0, 45, 0
2, 5976, Note_on_c, 0, 54, 117
2, 5977, Note_on_c, 0, 42, 124
2, 5978, Note_on_c, 0, 85, 116
2, 5982, Note_on_c, 0, 90, 0
2, 6005, Note_on_c, 0, 81, 92
2, 6006, Note_on_c, 0, 54, 0
2, 6007, Note_on_c, 0, 42, 0
2, 6008, Note_on_c, 0, 85, 0
2, 6033, Note_on_c, 0, 49, 115
2, 6033, Note_on_c, 0, 37, 120
2, 6035, Note_on_c, 0, 78, 101
2, 6035, Note_on_c, 0, 81, 0
2, 6063, Note_on_c, 0, 73, 97
2, 6063, Note_on_c, 0, 49, 0
2, 6063, Note_on_c, 0, 37, 0
2, 6070, Note_on_c, 0, 78, 0
2, 6092, Note_on_c, 0, 73, 0
2, 6093, Note_on_c, 0, 50, 125
2, 6095, Note_on_c, 0, 38, 119
2, 6095, Note_on_c, 0, 69, 106
2, 6103, Control_c, 0, 64, 127
2, 6125, Note_on_c, 0, 69, 0
2, 6127, Note_on_c, 0, 66, 103
2, 6138, Note_on_c, 0, 50, 0
2, 6157, Note_on_c, 0, 62, 108
2, 6160, Control_c, 0, 64, 0
2, 6183, Note_on_c, 0, 57, 109
2, 6187, Note_on_c, 0, 62, 0
2, 6198, Note_on_c, 0, 66, 0
2, 6213, Note_on_c, 0, 57, 0
2, 6218, Note_on_c, 0, 41, 101
2, 6220, Note_on_c, 0, 59, 101
2, 6220, Note_on_c, 0, 68, 102
2, 6220, Note_on_c, 0, 62, 95
2, 6220, Note_on_c, 0, 38, 0
2, 6250, Note_on_c, 0, 42, 98
2, 6278, Note_on_c, 0, 41, 0
2, 6280, Note_on_c, 0, 42, 0
2, 6281, Note_on_c, 0, 40, 91
2, 6308, Note_on_c, 0, 41, 97
2, 6308, Note_on_c, 0, 40, 0
2, 6340, Note_on_c, 0, 41, 0
2, 6342, Note_on_c, 0, 42, 97
2, 6345, Note_on_c, 0, 66, 111
2, 6370, Note_on_c, 0, 42, 0
2, 6370, Note_on_c, 0, 68, 0
2, 6372, Note_on_c, 0, 44, 94
2, 6406, Note_on_c, 0, 41, 99
2, 6410, Note_on_c, 0, 44, 0
2, 6437, Note_on_c, 0, 42, 99
2, 6437, Note_on_c, 0, 41, 0
2, 6468, Note_on_c, 0, 65, 106
2, 6468, Note_on_c, 0, 66, 0
2, 6469, Note_on_c, 0, 42, 0
2, 6470, Note_on_c, 0, 44, 94
2, 6495, Note_on_c, 0, 44, 0
2, 6497, Note_on_c, 0, 45, 96
2, 6528, Note_on_c, 0, 45, 0
2, 6530, Note_on_c, 0, 42, 89
2, 6550, Note_on_c, 0, 62, 0
2, 6558, Note_on_c, 0, 44, 93
2, 6560, Note_on_c, 0, 42, 0
2, 6580, Note_on_c, 0, 59, 0
2, 6587, Note_on_c, 0, 44, 0
2, 6589, Note_on_c, 0, 65, 0
2, 6590, Note_on_c, 0, 66, 99
2, 6592, Note_on_c, 0, 45, 90
2, 6593, Note_on_c, 0, 62, 87
2, 6593, Note_on_c, 0, 57, 82
2, 6622, Note_on_c, 0, 45, 0
2, 6625, Note_on_c, 0, 47, 84
2, 6655, Note_on_c, 0, 45, 90
2, 6655, Note_on_c, 0, 47, 0
2, 6673, Note_on_c, 0, 57, 0
2, 6679, Note_on_c, 0, 62, 0
2, 6682, Note_on_c, 0, 45, 0
2, 6683, Note_on_c, 0, 47, 95
2, 6685, Note_on_c, 0, 66, 0
2, 6715, Note_on_c, 0, 47, 0
2, 6717, Note_on_c, 0, 41, 97
2, 6718, Note_on_c, 0, 62, 105
2, 6718, Note_on_c, 0, 68, 109
2, 6718, Note_on_c, 0, 59, 106
2, 6748, Note_on_c, 0, 42, 100
2, 6748, Note_on_c, 0, 41, 0
2, 6776, Note_on_c, 0, 42, 0
2, 6777, Note_on_c, 0, 40, 90
2, 6807, Note_on_c, 0, 41, 95
2, 6807, Note_on_c, 0, 40, 0
2, 6837, Note_on_c, 0, 41, 0
2, 6840, Note_on_c, 0, 42, 91
2, 6841, Note_on_c, 0, 66, 101
2, 6850, Note_on_c, 0, 68, 0
2, 6865, Note_on_c, 0, 42, 0
2, 6867, Note_on_c, 0, 44, 90
2, 6897, Note_on_c, 0, 44, 0
2, 6900, Note_on_c, 0, 41, 91
2, 6927, Note_on_c, 0, 41, 0
2, 6930, Note_on_c, 0, 42, 94
2, 6950, Note_on_c, 0, 66, 0
2, 6952, Note_on_c, 0, 65, 91
2, 6956, Note_on_c, 0, 44, 94
2, 6957, Note_on_c, 0, 42, 0
2, 6982, Note_on_c, 0, 44, 0
2, 6985, Note_on_c, 0, 45, 94
2, 7015, Note_on_c, 0, 42, 89
2, 7015, Note_on_c, 0, 45, 0
2, 7019, Note_on_c, 0, 62, 0
2, 7043, Note_on_c, 0, 44, 91
2, 7044, Note_on_c, 0, 42, 0
2, 7073, Note_on_c, 0, 44, 0
2, 7074, Note_on_c, 0, 65, 0
2, 7075, Note_on_c, 0, 66, 91
2, 7075, Note_on_c, 0, 61, 89
2, 7076, Note_on_c, 0, 45, 90
2, 7079, Note_on_c, 0, 59, 0
2, 7107, Note_on_c, 0, 45, 0
2, 7111, Note_on_c, 0, 47, 78
2, 7137, Note_on_c, 0, 47, 0
2, 7140, Note_on_c, 0, 45, 96
2, 7167, Note_on_c, 0, 45, 0
2, 7168, Note_on_c, 0, 47, 86
2, 7195, Note_on_c, 0, 61, 0
2, 7195, Note_on_c, 0, 66, 0
2, 7199, Note_on_c, 0, 47, 0
2, 7200, Note_on_c, 0, 48, 99
2, 7201, Note_on_c, 0, 75, 110
2, 7201, Note_on_c, 0, 66, 109
2, 7202, Note_on_c, 0, 69, 103
2, 7230, Note_on_c, 0, 49, 99
2, 7231, Note_on_c, 0, 48, 0
2, 7260, Note_on_c, 0, 46, 99
2, 7260, Note_on_c, 0, 49, 0
2, 7290, Note_on_c, 0, 48, 101
2, 7290, Note_on_c, 0, 46, 0
2, 7322, Note_on_c, 0, 73, 103
2, 7322, Note_on_c, 0, 48, 0
2, 7323, Note_on_c, 0, 49, 99
2, 7332, Note_on_c, 0, 75, 0
2, 7348, Note_on_c, 0, 49, 0
2, 7350, Note_on_c, 0, 51, 94
2, 7373, Note_on_c, 0, 51, 0
2, 7378, Note_on_c, 0, 48, 93
2, 7404, Note_on_c, 0, 48, 0
2, 7406, Note_on_c, 0, 49, 104
2, 7435, Note_on_c, 0, 51, 101
2, 7435, Note_on_c, 0, 72, 103
2, 7439, Note_on_c, 0, 49, 0
2, 7440, Note_on_c, 0, 73, 0
2, 7459, Note_on_c, 0, 51, 0
2, 7462, Note_on_c, 0, 52, 97
2, 7493, Note_on_c, 0, 49, 94
2, 7494, Note_on_c, 0, 52, 0
2, 7499, Note_on_c, 0, 69, 0
2, 7519, Note_on_c, 0, 66, 0
2, 7522, Note_on_c, 0, 51, 97
2, 7524, Note_on_c, 0, 49, 0
2, 7552, Note_on_c, 0, 51, 0
2, 7555, Note_on_c, 0, 52, 100
2, 7555, Note_on_c, 0, 73, 95
2, 7555, Note_on_c, 0, 64, 86
2, 7555, Note_on_c, 0, 68, 88
2, 7556, Note_on_c, 0, 72, 0
2, 7580, Note_on_c, 0, 52, 0
2, 7582, Note_on_c, 0, 54, 85
2, 7612, Note_on_c, 0, 51, 94
2, 7617, Note_on_c, 0, 54, 0
2, 7637, Note_on_c, 0, 64, 0
2, 7640, Note_on_c, 0, 68, 0
2, 7642, Note_on_c, 0, 52, 101
2, 7642, Note_on_c, 0, 51, 0
2, 7672, Note_on_c, 0, 52, 0
2, 7673, Note_on_c, 0, 63, 95
2, 7673, Note_on_c, 0, 69, 101
2, 7673, Note_on_c, 0, 54, 100
2, 7703, Note_on_c, 0, 54, 0
2, 7705, Note_on_c, 0, 56, 97
2, 7733, Note_on_c, 0, 56, 0
2, 7735, Note_on_c, 0, 52, 100
2, 7744, Note_on_c, 0, 69, 0
2, 7762, Note_on_c, 0, 54, 101
2, 7762, Note_on_c, 0, 52, 0
2, 7793, Note_on_c, 0, 72, 100
2, 7793, Note_on_c, 0, 68, 90
2, 7795, Note_on_c, 0, 56, 100
2, 7797, Note_on_c, 0, 54, 0
2, 7802, Note_on_c, 0, 73, 0
2, 7825, Note_on_c, 0, 57, 103
2, 7825, Note_on_c, 0, 56, 0
2, 7852, Note_on_c, 0, 56, 106
2, 7855, Note_on_c, 0, 57, 0
2, 7863, Note_on_c, 0, 68, 0
2, 7882, Note_on_c, 0, 54, 92
2, 7884, Note_on_c, 0, 56, 0
2, 7884, Note_on_c, 0, 63, 0
2, 7908, Note_on_c, 0, 54, 0
2, 7910, Note_on_c, 0, 73, 104
2, 7910, Note_on_c, 0, 68, 86
2, 7910, Note_on_c, 0, 72, 0
2, 7911, Note_on_c, 0, 52, 99
2, 7912, Note_on_c, 0, 64, 96
2, 7940, Note_on_c, 0, 51, 113
2, 7945, Note_on_c, 0, 52, 0
2, 7968, Note_on_c, 0, 49, 103
2, 7973, Note_on_c, 0, 51, 0
2, 7994, Note_on_c, 0, 64, 0
2, 7994, Note_on_c, 0, 49, 0
2, 7997, Note_on_c, 0, 47, 109
2, 8000, Note_on_c, 0, 68, 0
2, 8007, Note_on_c, 0, 73, 0
2, 8025, Note_on_c, 0, 64, 96
2, 8026, Note_on_c, 0, 73, 117
2, 8026, Note_on_c, 0, 85, 124
2, 8026, Note_on_c, 0, 68, 96
2, 8027, Note_on_c, 0, 45, 106
2, 8032, Note_on_c, 0, 47, 0
2, 8055, Note_on_c, 0, 44, 111
2, 8057, Note_on_c, 0, 45, 0
2, 8083, Note_on_c, 0, 42, 94
2, 8090, Note_on_c, 0, 44, 0
2, 8093, Note_on_c, 0, 85, 0
2, 8104, Note_on_c, 0, 42, 0
2, 8108, Note_on_c, 0, 40, 94
2, 8138, Note_on_c, 0, 68, 0
2, 8143, Note_on_c, 0, 39, 104
2, 8144, Note_on_c, 0, 40, 0
2, 8145, Note_on_c, 0, 67, 106
2, 8145, Note_on_c, 0, 64, 0
2, 8146, Note_on_c, 0, 73, 0
2, 8175, Note_on_c, 0, 68, 108
2, 8177, Note_on_c, 0, 67, 0
2, 8178, Note_on_c, 0, 39, 0
2, 8202, Note_on_c, 0, 68, 0
2, 8205, Note_on_c, 0, 65, 102
2, 8236, Note_on_c, 0, 67, 100
2, 8242, Note_on_c, 0, 65, 0
2, 8265, Note_on_c, 0, 63, 79
2, 8267, Note_on_c, 0, 68, 94
2, 8267, Note_on_c, 0, 67, 0
2, 8268, Note_on_c, 0, 59, 81
2, 8298, Note_on_c, 0, 70, 85
2, 8299, Note_on_c, 0, 68, 0
2, 8305, Note_on_c, 0, 63, 0
2, 8310, Note_on_c, 0, 59, 0
2, 8319, Note_on_c, 0, 70, 0
2, 8325, Note_on_c, 0, 67, 91
2, 8353, Note_on_c, 0, 68, 95
2, 8356, Note_on_c, 0, 67, 0
2, 8383, Note_on_c, 0, 61, 79
2, 8384, Note_on_c, 0, 68, 0
2, 8385, Note_on_c, 0, 70, 89
2, 8386, Note_on_c, 0, 58, 80
2, 8415, Note_on_c, 0, 71, 95
2, 8415, Note_on_c, 0, 70, 0
2, 8418, Note_on_c, 0, 61, 0
2, 8429, Note_on_c, 0, 58, 0
2, 8440, Note_on_c, 0, 71, 0
2, 8443, Note_on_c, 0, 68, 97
2, 8472, Note_on_c, 0, 70, 89
2, 8476, Note_on_c, 0, 68, 0
2, 8501, Note_on_c, 0, 56, 79
2, 8502, Note_on_c, 0, 59, 75
2, 8502, Note_on_c, 0, 71, 94
2, 8502, Note_on_c, 0, 70, 0
2, 8532, Note_on_c, 0, 71, 0
2, 8533, Note_on_c, 0, 73, 76
2, 8535, Note_on_c, 0, 59, 0
2, 8546, Note_on_c, 0, 56, 0
2, 8562, Note_on_c, 0, 73, 0
2, 8563, Note_on_c, 0, 70, 89
2, 8590, Note_on_c, 0, 71, 96
2, 8594, Note_on_c, 0, 70, 0
2, 8622, Note_on_c, 0, 58, 63
2, 8622, Note_on_c, 0, 51, 77
2, 8623, Note_on_c, 0, 55, 87
2, 8623, Note_on_c, 0, 73, 92
2, 8625, Note_on_c, 0, 71, 0
2, 8653, Note_on_c, 0, 75, 94
2, 8654, Note_on_c, 0, 73, 0
2, 8657, Note_on_c, 0, 51, 0
2, 8673, Note_on_c, 0, 55, 0
2, 8674, Note_on_c, 0, 75, 0
2, 8674, Note_on_c, 0, 58, 0
2, 8681, Note_on_c, 0, 73, 106
2, 8710, Note_on_c, 0, 82, 101
2, 8712, Note_on_c, 0, 73, 0
2, 8735, Note_on_c, 0, 82, 0
2, 8737, Note_on_c, 0, 56, 77
2, 8738, Note_on_c, 0, 59, 82
2, 8740, Note_on_c, 0, 71, 101
2, 8740, Note_on_c, 0, 51, 70
2, 8766, Note_on_c, 0, 51, 0
2, 8768, Note_on_c, 0, 59, 0
2, 8770, Note_on_c, 0, 73, 102
2, 8772, Note_on_c, 0, 71, 0
2, 8774, Note_on_c, 0, 56, 0
2, 8797, Note_on_c, 0, 71, 100
2, 8798, Note_on_c, 0, 73, 0
2, 8826, Note_on_c, 0, 80, 104
2, 8827, Note_on_c, 0, 71, 0
2, 8857, Note_on_c, 0, 70, 94
2, 8857, Note_on_c, 0, 80, 0
2, 8858, Note_on_c, 0, 61, 72
2, 8860, Note_on_c, 0, 51, 76
2, 8860, Note_on_c, 0, 58, 74
2, 8885, Note_on_c, 0, 71, 96
2, 8887, Note_on_c, 0, 70, 0
2, 8890, Note_on_c, 0, 51, 0
2, 8892, Note_on_c, 0, 61, 0
2, 8898, Note_on_c, 0, 58, 0
2, 8918, Note_on_c, 0, 70, 100
2, 8919, Note_on_c, 0, 71, 0
2, 8945, Note_on_c, 0, 79, 96
2, 8949, Note_on_c, 0, 70, 0
2, 8971, Note_on_c, 0, 79, 0
2, 8975, Note_on_c, 0, 64, 113
2, 8976, Note_on_c, 0, 52, 111
2, 8977, Note_on_c, 0, 68, 113
2, 9008, Note_on_c, 0, 70, 106
2, 9012, Note_on_c, 0, 68, 0
2, 9040, Note_on_c, 0, 68, 95
2, 9044, Note_on_c, 0, 70, 0
2, 9051, Note_on_c, 0, 64, 0
2, 9062, Note_on_c, 0, 52, 0
2, 9065, Note_on_c, 0, 80, 104
2, 9077, Note_on_c, 0, 68, 0
2, 9095, Note_on_c, 0, 80, 0
2, 9102, Note_on_c, 0, 43, 98
2, 9103, Note_on_c, 0, 73, 94
2, 9105, Note_on_c, 0, 70, 89
2, 9107, Note_on_c, 0, 64, 57
2, 9130, Note_on_c, 0, 43, 0
2, 9132, Note_on_c, 0, 44, 100
2, 9157, Note_on_c, 0, 44, 0
2, 9162, Note_on_c, 0, 42, 89
2, 9170, Note_on_c, 0, 73, 0
2, 9170, Note_on_c, 0, 70, 0
2, 9172, Note_on_c, 0, 64, 0
2, 9190, Note_on_c, 0, 42, 0
2, 9192, Note_on_c, 0, 43, 93
2, 9222, Note_on_c, 0, 63, 93
2, 9223, Note_on_c, 0, 68, 88
2, 9224, Note_on_c, 0, 43, 0
2, 9225, Note_on_c, 0, 71, 84
2, 9225, Note_on_c, 0, 44, 95
2, 9251, Note_on_c, 0, 44, 0
2, 9255, Note_on_c, 0, 46, 89
2, 9281, Note_on_c, 0, 68, 0
2, 9285, Note_on_c, 0, 46, 0
2, 9285, Note_on_c, 0, 71, 0
2, 9287, Note_on_c, 0, 43, 84
2, 9287, Note_on_c, 0, 63, 0
2, 9310, Note_on_c, 0, 43, 0
2, 9315, Note_on_c, 0, 44, 94
2, 9343, Note_on_c, 0, 70, 82
2, 9343, Note_on_c, 0, 44, 0
2, 9345, Note_on_c, 0, 46, 89
2, 9345, Note_on_c, 0, 61, 80
2, 9345, Note_on_c, 0, 67, 83
2, 9371, Note_on_c, 0, 46, 0
2, 9375, Note_on_c, 0, 47, 90
2, 9403, Note_on_c, 0, 70, 0
2, 9405, Note_on_c, 0, 44, 91
2, 9405, Note_on_c, 0, 67, 0
2, 9405, Note_on_c, 0, 47, 0
2, 9405, Note_on_c, 0, 61, 0
2, 9432, Note_on_c, 0, 44, 0
2, 9433, Note_on_c, 0, 46, 97
2, 9461, Note_on_c, 0, 46, 0
2, 9463, Note_on_c, 0, 68, 84
2, 9463, Note_on_c, 0, 63, 88
2, 9465, Note_on_c, 0, 47, 89
2, 9465, Note_on_c, 0, 59, 75
2, 9488, Note_on_c, 0, 47, 0
2, 9492, Note_on_c, 0, 49, 85
2, 9514, Note_on_c, 0, 63, 0
2, 9522, Note_on_c, 0, 49, 0
2, 9523, Note_on_c, 0, 46, 91
2, 9523, Note_on_c, 0, 68, 0
2, 9525, Note_on_c, 0, 59, 0
2, 9549, Note_on_c, 0, 46, 0
2, 9551, Note_on_c, 0, 47, 98
2, 9582, Note_on_c, 0, 47, 0
2, 9583, Note_on_c, 0, 67, 88
2, 9585, Note_on_c, 0, 64, 88
2, 9585, Note_on_c, 0, 58, 86
2, 9585, Note_on_c, 0, 49, 86
2, 9615, Note_on_c, 0, 51, 94
2, 9615, Note_on_c, 0, 49, 0
2, 9642, Note_on_c, 0, 51, 0
2, 9648, Note_on_c, 0, 49, 82
2, 9660, Note_on_c, 0, 58, 0
2, 9673, Note_on_c, 0, 67, 0
2, 9675, Note_on_c, 0, 64, 0
2, 9677, Note_on_c, 0, 58, 98
2, 9707, Note_on_c, 0, 58, 0
2, 9708, Note_on_c, 0, 49, 0
2, 9710, Note_on_c, 0, 68, 85
2, 9710, Note_on_c, 0, 47, 93
2, 9711, Note_on_c, 0, 63, 81
2, 9712, Note_on_c, 0, 59, 69
2, 9738, Note_on_c, 0, 47, 0
2, 9740, Note_on_c, 0, 49, 89
2, 9768, Note_on_c, 0, 49, 0
2, 9772, Note_on_c, 0, 47, 92
2, 9800, Note_on_c, 0, 56, 93
2, 9800, Note_on_c, 0, 68, 0
2, 9801, Note_on_c, 0, 63, 0
2, 9802, Note_on_c, 0, 59, 0
2, 9817, Note_on_c, 0, 47, 0
2, 9830, Note_on_c, 0, 46, 94
2, 9830, Note_on_c, 0, 70, 86
2, 9832, Note_on_c, 0, 61, 77
2, 9833, Note_on_c, 0, 63, 77
2, 9852, Note_on_c, 0, 46, 0
2, 9858, Note_on_c, 0, 47, 90
2, 9860, Note_on_c, 0, 56, 0
2, 9893, Note_on_c, 0, 46, 102
2, 9893, Note_on_c, 0, 47, 0
2, 9920, Note_on_c, 0, 70, 0
2, 9922, Note_on_c, 0, 55, 96
2, 9922, Note_on_c, 0, 61, 0
2, 9923, Note_on_c, 0, 63, 0
2, 9938, Note_on_c, 0, 46, 0
2, 9953, Note_on_c, 0, 63, 96
2, 9953, Note_on_c, 0, 75, 113
2, 9953, Note_on_c, 0, 87, 119
2, 9955, Note_on_c, 0, 45, 112
2, 9982, Note_on_c, 0, 55, 0
2, 9983, Note_on_c, 0, 46, 113
2, 9983, Note_on_c, 0, 45, 0
2, 10008, Note_on_c, 0, 46, 0
2, 10011, Note_on_c, 0, 45, 108
2, 10019, Note_on_c, 0, 87, 0
2, 10043, Note_on_c, 0, 54, 91
2, 10056, Note_on_c, 0, 45, 0
2, 10080, Note_on_c, 0, 53, 76
2, 10085, Note_on_c, 0, 69, 88
2, 10086, Note_on_c, 0, 41, 81
2, 10087, Note_on_c, 0, 54, 0
2, 10102, Note_on_c, 0, 63, 0
2, 10109, Note_on_c, 0, 75, 0
2, 10114, Note_on_c, 0, 69, 0
2, 10115, Note_on_c, 0, 70, 95
2, 10137, Note_on_c, 0, 70, 0
2, 10140, Note_on_c, 0, 53, 0
2, 10143, Note_on_c, 0, 68, 90
2, 10146, Note_on_c, 0, 41, 0
2, 10167, Note_on_c, 0, 68, 0
2, 10170, Note_on_c, 0, 69, 91
2, 10197, Note_on_c, 0, 69, 0
2, 10198, Note_on_c, 0, 70, 89
2, 10198, Note_on_c, 0, 61, 75
2, 10201, Note_on_c, 0, 65, 62
2, 10226, Note_on_c, 0, 70, 0
2, 10228, Note_on_c, 0, 72, 88
2, 10250, Note_on_c, 0, 72, 0
2, 10256, Note_on_c, 0, 69, 88
2, 10258, Note_on_c, 0, 61, 0
2, 10261, Note_on_c, 0, 65, 0
2, 10282, Note_on_c, 0, 69, 0
2, 10284, Note_on_c, 0, 70, 91
2, 10312, Note_on_c, 0, 72, 90
2, 10312, Note_on_c, 0, 70, 0
2, 10315, Note_on_c, 0, 63, 75
2, 10315, Note_on_c, 0, 60, 77
2, 10342, Note_on_c, 0, 73, 85
2, 10342, Note_on_c, 0, 72, 0
2, 10364, Note_on_c, 0, 73, 0
2, 10370, Note_on_c, 0, 70, 82
2, 10375, Note_on_c, 0, 60, 0
2, 10375, Note_on_c, 0, 63, 0
2, 10398, Note_on_c, 0, 72, 88
2, 10399, Note_on_c, 0, 70, 0
2, 10427, Note_on_c, 0, 58, 79
2, 10428, Note_on_c, 0, 61, 74
2, 10430, Note_on_c, 0, 73, 98
2, 10433, Note_on_c, 0, 72, 0
2, 10458, Note_on_c, 0, 75, 94
2, 10460, Note_on_c, 0, 73, 0
2, 10481, Note_on_c, 0, 75, 0
2, 10487, Note_on_c, 0, 58, 0
2, 10488, Note_on_c, 0, 72, 86
2, 10488, Note_on_c, 0, 61, 0
2, 10518, Note_on_c, 0, 73, 84
2, 10519, Note_on_c, 0, 72, 0
2, 10548, Note_on_c, 0, 60, 70
2, 10550, Note_on_c, 0, 57, 72
2, 10550, Note_on_c, 0, 75, 94
2, 10552, Note_on_c, 0, 73, 0
2, 10553, Note_on_c, 0, 53, 69
2, 10575, Note_on_c, 0, 75, 0
2, 10578, Note_on_c, 0, 77, 100
2, 10598, Note_on_c, 0, 77, 0
2, 10608, Note_on_c, 0, 75, 91
2, 10608, Note_on_c, 0, 60, 0
2, 10610, Note_on_c, 0, 57, 0
2, 10613, Note_on_c, 0, 53, 0
2, 10632, Note_on_c, 0, 75, 0
2, 10639, Note_on_c, 0, 84, 95
2, 10667, Note_on_c, 0, 61, 72
2, 10668, Note_on_c, 0, 58, 75
2, 10668, Note_on_c, 0, 53, 74
2, 10669, Note_on_c, 0, 84, 0
2, 10670, Note_on_c, 0, 73, 91
2, 10698, Note_on_c, 0, 75, 90
2, 10698, Note_on_c, 0, 73, 0
2, 10727, Note_on_c, 0, 61, 0
2, 10727, Note_on_c, 0, 75, 0
2, 10728, Note_on_c, 0, 73, 91
2, 10728, Note_on_c, 0, 58, 0
2, 10728, Note_on_c, 0, 53, 0
2, 10755, Note_on_c, 0, 82, 94
2, 10757, Note_on_c, 0, 73, 0
2, 10785, Note_on_c, 0, 82, 0
2, 10788, Note_on_c, 0, 63, 81
2, 10788, Note_on_c, 0, 60, 85
2, 10788, Note_on_c, 0, 72, 97
2, 10790, Note_on_c, 0, 53, 78
2, 10817, Note_on_c, 0, 73, 104
2, 10819, Note_on_c, 0, 72, 0
2, 10844, Note_on_c, 0, 73, 0
2, 10845, Note_on_c, 0, 72, 100
2, 10848, Note_on_c, 0, 63, 0
2, 10848, Note_on_c, 0, 60, 0
2, 10850, Note_on_c, 0, 53, 0
2, 10875, Note_on_c, 0, 81, 98
2, 10875, Note_on_c, 0, 72, 0
2, 10905, Note_on_c, 0, 81, 0
2, 10907, Note_on_c, 0, 66, 94
2, 10908, Note_on_c, 0, 54, 92
2, 10908, Note_on_c, 0, 70, 100
2, 10938, Note_on_c, 0, 72, 106
2, 10939, Note_on_c, 0, 70, 0
2, 10965, Note_on_c, 0, 70, 95
2, 10967, Note_on_c, 0, 66, 0
2, 10968, Note_on_c, 0, 54, 0
2, 10969, Note_on_c, 0, 72, 0
2, 10994, Note_on_c, 0, 82, 102
2, 10995, Note_on_c, 0, 70, 0
2, 11024, Note_on_c, 0, 82, 0
2, 11029, Note_on_c, 0, 45, 90
2, 11030, Note_on_c, 0, 75, 83
2, 11030, Note_on_c, 0, 66, 71
2, 11055, Note_on_c, 0, 45, 0
2, 11059, Note_on_c, 0, 46, 92
2, 11084, Note_on_c, 0, 46, 0
2, 11088, Note_on_c, 0, 44, 97
2, 11089, Note_on_c, 0, 66, 0
2, 11089, Note_on_c, 0, 75, 0
2, 11114, Note_on_c, 0, 44, 0
2, 11118, Note_on_c, 0, 45, 107
2, 11143, Note_on_c, 0, 45, 0
2, 11147, Note_on_c, 0, 73, 89
2, 11147, Note_on_c, 0, 46, 94
2, 11147, Note_on_c, 0, 70, 89
2, 11148, Note_on_c, 0, 65, 85
2, 11172, Note_on_c, 0, 46, 0
2, 11175, Note_on_c, 0, 48, 94
2, 11199, Note_on_c, 0, 48, 0
2, 11205, Note_on_c, 0, 45, 95
2, 11231, Note_on_c, 0, 45, 0
2, 11236, Note_on_c, 0, 46, 91
2, 11236, Note_on_c, 0, 73, 0
2, 11236, Note_on_c, 0, 70, 0
2, 11237, Note_on_c, 0, 65, 0
2, 11262, Note_on_c, 0, 46, 0
2, 11265, Note_on_c, 0, 48, 89
2, 11265, Note_on_c, 0, 63, 79
2, 11265, Note_on_c, 0, 69, 84
2, 11265, Note_on_c, 0, 72, 79
2, 11290, Note_on_c, 0, 48, 0
2, 11295, Note_on_c, 0, 49, 91
2, 11320, Note_on_c, 0, 49, 0
2, 11322, Note_on_c, 0, 46, 94
2, 11349, Note_on_c, 0, 46, 0
2, 11353, Note_on_c, 0, 48, 93
2, 11354, Note_on_c, 0, 63, 0
2, 11354, Note_on_c, 0, 72, 0
2, 11354, Note_on_c, 0, 69, 0
2, 11381, Note_on_c, 0, 49, 90
2, 11381, Note_on_c, 0, 61, 79
2, 11381, Note_on_c, 0, 65, 83
2, 11381, Note_on_c, 0, 70, 86
2, 11383, Note_on_c, 0, 48, 0
2, 11410, Note_on_c, 0, 49, 0
2, 11412, Note_on_c, 0, 51, 93
2, 11438, Note_on_c, 0, 51, 0
2, 11440, Note_on_c, 0, 48, 95
2, 11467, Note_on_c, 0, 48, 0
2, 11470, Note_on_c, 0, 65, 0
2, 11470, Note_on_c, 0, 61, 0
2, 11471, Note_on_c, 0, 49, 97
2, 11500, Note_on_c, 0, 70, 0
2, 11502, Note_on_c, 0, 49, 0
2, 11504, Note_on_c, 0, 50, 95
2, 11504, Note_on_c, 0, 59, 76
2, 11504, Note_on_c, 0, 65, 81
2, 11504, Note_on_c, 0, 68, 88
2, 11528, Note_on_c, 0, 50, 0
2, 11535, Note_on_c, 0, 51, 94
2, 11564, Note_on_c, 0, 51, 0
2, 11568, Note_on_c, 0, 49, 92
2, 11593, Note_on_c, 0, 68, 0
2, 11593, Note_on_c, 0, 59, 0
2, 11593, Note_on_c, 0, 65, 0
2, 11598, Note_on_c, 0, 49, 0
2, 11599, Note_on_c, 0, 50, 100
2, 11629, Note_on_c, 0, 50, 0
2, 11630, Note_on_c, 0, 51, 99
2, 11630, Note_on_c, 0, 58, 75
2, 11630, Note_on_c, 0, 63, 88
2, 11630, Note_on_c, 0, 66, 91
2, 11658, Note_on_c, 0, 51, 0
2, 11662, Note_on_c, 0, 53, 97
2, 11688, Note_on_c, 0, 53, 0
2, 11692, Note_on_c, 0, 50, 94
2, 11718, Note_on_c, 0, 50, 0
2, 11719, Note_on_c, 0, 58, 0
2, 11719, Note_on_c, 0, 63, 0
2, 11719, Note_on_c, 0, 66, 0
2, 11722, Note_on_c, 0, 51, 100
2, 11752, Note_on_c, 0, 58, 85
2, 11752, Note_on_c, 0, 65, 94
2, 11752, Note_on_c, 0, 61, 86
2, 11752, Note_on_c, 0, 51, 0
2, 11753, Note_on_c, 0, 53, 95
2, 11777, Note_on_c, 0, 53, 0
2, 11781, Note_on_c, 0, 54, 92
2, 11805, Note_on_c, 0, 54, 0
2, 11811, Note_on_c, 0, 52, 101
2, 11839, Note_on_c, 0, 52, 0
2, 11840, Note_on_c, 0, 53, 103
2, 11841, Note_on_c, 0, 61, 0
2, 11841, Note_on_c, 0, 58, 0
2, 11841, Note_on_c, 0, 65, 0
2, 11871, Note_on_c, 0, 53, 0
2, 11872, Note_on_c, 0, 54, 104
2, 11872, Note_on_c, 0, 58, 84
2, 11872, Note_on_c, 0, 60, 83
2, 11872, Note_on_c, 0, 64, 98
2, 11898, Note_on_c, 0, 54, 0
2, 11901, Note_on_c, 0, 56, 97
2, 11929, Note_on_c, 0, 56, 0
2, 11930, Note_on_c, 0, 53, 97
2, 11931, Note_on_c, 0, 64, 0
2, 11931, Note_on_c, 0, 58, 0
2, 11931, Note_on_c, 0, 60, 0
2, 11957, Note_on_c, 0, 54, 98
2, 11957, Note_on_c, 0, 53, 0
2, 11979, Note_on_c, 0, 54, 0
2, 11985, Note_on_c, 0, 53, 88
2, 11985, Note_on_c, 0, 57, 81
2, 11985, Note_on_c, 0, 60, 77
2, 11985, Note_on_c, 0, 65, 95
2, 12021, Note_on_c, 0, 66, 98
2, 12022, Note_on_c, 0, 65, 0
2, 12022, Note_on_c, 0, 60, 0
2, 12022, Note_on_c, 0, 53, 0
2, 12022, Note_on_c, 0, 57, 0
2, 12051, Note_on_c, 0, 66, 0
2, 12053, Note_on_c, 0, 64, 99
2, 12085, Note_on_c, 0, 65, 99
2, 12087, Note_on_c, 0, 64, 0
2, 12115, Note_on_c, 0, 61, 73
2, 12115, Note_on_c, 0, 52, 77
2, 12116, Note_on_c, 0, 66, 107
2, 12117, Note_on_c, 0, 58, 74
2, 12117, Note_on_c, 0, 65, 0
2, 12145, Note_on_c, 0, 61, 0
2, 12145, Note_on_c, 0, 52, 0
2, 12146, Note_on_c, 0, 66, 0
2, 12147, Note_on_c, 0, 68, 93
2, 12147, Note_on_c, 0, 58, 0
2, 12175, Note_on_c, 0, 65, 100
2, 12177, Note_on_c, 0, 68, 0
2, 12205, Note_on_c, 0, 66, 109
2, 12212, Note_on_c, 0, 65, 0
2, 12235, Note_on_c, 0, 61, 68
2, 12236, Note_on_c, 0, 51, 82
2, 12238, Note_on_c, 0, 58, 74
2, 12238, Note_on_c, 0, 67, 108
2, 12239, Note_on_c, 0, 66, 0
2, 12265, Note_on_c, 0, 61, 0
2, 12269, Note_on_c, 0, 68, 109
2, 12271, Note_on_c, 0, 58, 0
2, 12271, Note_on_c, 0, 51, 0
2, 12272, Note_on_c, 0, 67, 0
2, 12299, Note_on_c, 0, 66, 111
2, 12299, Note_on_c, 0, 68, 0
2, 12324, Note_on_c, 0, 66, 0
2, 12328, Note_on_c, 0, 67, 107
2, 12358, Note_on_c, 0, 67, 0
2, 12360, Note_on_c, 0, 80, 117
2, 12360, Note_on_c, 0, 68, 113
2, 12360, Note_on_c, 0, 56, 99
2, 12360, Note_on_c, 0, 44, 100
2, 12368, Control_c, 0, 64, 127
2, 12392, Note_on_c, 0, 68, 0
2, 12393, Note_on_c, 0, 70, 94
2, 12402, Control_c, 0, 64, 0
2, 12423, Note_on_c, 0, 67, 99
2, 12423, Note_on_c, 0, 70, 0
2, 12450, Note_on_c, 0, 80, 0
2, 12450, Note_on_c, 0, 44, 0
2, 12450, Note_on_c, 0, 56, 0
2, 12453, Note_on_c, 0, 68, 99
2, 12453, Note_on_c, 0, 67, 0
2, 12480, Note_on_c, 0, 56, 83
2, 12480, Note_on_c, 0, 60, 84
2, 12483, Note_on_c, 0, 63, 88
2, 12502, Note_on_c, 0, 56, 0
2, 12503, Note_on_c, 0, 60, 0
2, 12504, Note_on_c, 0, 63, 0
2, 12513, Note_on_c, 0, 70, 99
2, 12514, Note_on_c, 0, 68, 0
2, 12537, Note_on_c, 0, 70, 0
2, 12540, Note_on_c, 0, 67, 100
2, 12570, Note_on_c, 0, 68, 98
2, 12574, Note_on_c, 0, 67, 0
2, 12600, Note_on_c, 0, 69, 102
2, 12600, Note_on_c, 0, 61, 76
2, 12600, Note_on_c, 0, 68, 0
2, 12602, Note_on_c, 0, 55, 80
2, 12602, Note_on_c, 0, 64, 79
2, 12627, Note_on_c, 0, 70, 100
2, 12630, Note_on_c, 0, 69, 0
2, 12654, Note_on_c, 0, 70, 0
2, 12657, Note_on_c, 0, 68, 102
2, 12660, Note_on_c, 0, 61, 0
2, 12662, Note_on_c, 0, 64, 0
2, 12662, Note_on_c, 0, 55, 0
2, 12686, Note_on_c, 0, 69, 101
2, 12687, Note_on_c, 0, 68, 0
2, 12716, Note_on_c, 0, 70, 109
2, 12716, Note_on_c, 0, 54, 79
2, 12717, Note_on_c, 0, 61, 79
2, 12717, Note_on_c, 0, 64, 80
2, 12720, Note_on_c, 0, 69, 0
2, 12746, Note_on_c, 0, 70, 0
2, 12747, Note_on_c, 0, 71, 106
2, 12770, Note_on_c, 0, 71, 0
2, 12775, Note_on_c, 0, 69, 99
2, 12776, Note_on_c, 0, 54, 0
2, 12777, Note_on_c, 0, 64, 0
2, 12777, Note_on_c, 0, 61, 0
2, 12805, Note_on_c, 0, 70, 111
2, 12807, Note_on_c, 0, 69, 0
2, 12835, Note_on_c, 0, 83, 116
2, 12835, Note_on_c, 0, 71, 109
2, 12835, Note_on_c, 0, 59, 101
2, 12835, Note_on_c, 0, 70, 0
2, 12836, Note_on_c, 0, 47, 101
2, 12840, Control_c, 0, 64, 127
2, 12867, Note_on_c, 0, 72, 108
2, 12871, Note_on_c, 0, 71, 0
2, 12875, Control_c, 0, 64, 0
2, 12895, Note_on_c, 0, 70, 111
2, 12897, Note_on_c, 0, 72, 0
2, 12921, Note_on_c, 0, 71, 109
2, 12927, Note_on_c, 0, 70, 0
2, 12940, Note_on_c, 0, 59, 0
2, 12947, Note_on_c, 0, 83, 0
2, 12955, Note_on_c, 0, 66, 77
2, 12955, Note_on_c, 0, 59, 84
2, 12955, Note_on_c, 0, 63, 84
2, 12956, Note_on_c, 0, 47, 0
2, 12985, Note_on_c, 0, 72, 88
2, 12989, Note_on_c, 0, 71, 0
2, 13013, Note_on_c, 0, 70, 94
2, 13015, Note_on_c, 0, 59, 0
2, 13015, Note_on_c, 0, 72, 0
2, 13019, Note_on_c, 0, 63, 0
2, 13020, Note_on_c, 0, 66, 0
2, 13040, Note_on_c, 0, 70, 0
2, 13043, Note_on_c, 0, 71, 92
2, 13071, Note_on_c, 0, 71, 0
2, 13075, Note_on_c, 0, 59, 79
2, 13076, Note_on_c, 0, 72, 94
2, 13077, Note_on_c, 0, 64, 81
2, 13077, Note_on_c, 0, 67, 64
2, 13107, Note_on_c, 0, 73, 91
2, 13109, Note_on_c, 0, 72, 0
2, 13132, Note_on_c, 0, 71, 94
2, 13132, Note_on_c, 0, 73, 0
2, 13135, Note_on_c, 0, 59, 0
2, 13137, Note_on_c, 0, 67, 0
2, 13137, Note_on_c, 0, 64, 0
2, 13162, Note_on_c, 0, 72, 94
2, 13165, Note_on_c, 0, 71, 0
2, 13191, Note_on_c, 0, 73, 100
2, 13192, Note_on_c, 0, 65, 77
2, 13192, Note_on_c, 0, 59, 81
2, 13192, Note_on_c, 0, 68, 63
2, 13192, Note_on_c, 0, 72, 0
2, 13220, Note_on_c, 0, 73, 0
2, 13221, Note_on_c, 0, 74, 99
2, 13248, Note_on_c, 0, 72, 94
2, 13251, Note_on_c, 0, 74, 0
2, 13252, Note_on_c, 0, 59, 0
2, 13252, Note_on_c, 0, 68, 0
2, 13252, Note_on_c, 0, 65, 0
2, 13278, Note_on_c, 0, 73, 99
2, 13282, Note_on_c, 0, 72, 0
2, 13306, Note_on_c, 0, 66, 77
2, 13307, Note_on_c, 0, 69, 79
2, 13308, Note_on_c, 0, 74, 99
2, 13308, Note_on_c, 0, 73, 0
2, 13310, Note_on_c, 0, 59, 75
2, 13335, Note_on_c, 0, 75, 94
2, 13336, Note_on_c, 0, 74, 0
2, 13365, Note_on_c, 0, 75, 0
2, 13366, Note_on_c, 0, 73, 100
2, 13366, Note_on_c, 0, 66, 0
2, 13367, Note_on_c, 0, 69, 0
2, 13370, Note_on_c, 0, 59, 0
2, 13397, Note_on_c, 0, 74, 109
2, 13397, Note_on_c, 0, 73, 0
2, 13430, Note_on_c, 0, 67, 86
2, 13430, Note_on_c, 0, 59, 87
2, 13430, Note_on_c, 0, 70, 80
2, 13430, Note_on_c, 0, 75, 109
2, 13432, Note_on_c, 0, 74, 0
2, 13462, Note_on_c, 0, 76, 103
2, 13464, Note_on_c, 0, 75, 0
2, 13484, Note_on_c, 0, 76, 0
2, 13490, Note_on_c, 0, 67, 0
2, 13491, Note_on_c, 0, 74, 100
2, 13500, Note_on_c, 0, 59, 0
2, 13501, Note_on_c, 0, 70, 0
2, 13522, Note_on_c, 0, 75, 111
2, 13523, Note_on_c, 0, 74, 0
2, 13552, Note_on_c, 0, 71, 84
2, 13552, Note_on_c, 0, 68, 83
2, 13552, Note_on_c, 0, 76, 119
2, 13553, Note_on_c, 0, 59, 85
2, 13562, Note_on_c, 0, 75, 0
2, 13582, Note_on_c, 0, 77, 109
2, 13582, Note_on_c, 0, 76, 0
2, 13610, Note_on_c, 0, 77, 0
2, 13611, Note_on_c, 0, 75, 108
2, 13612, Note_on_c, 0, 71, 0
2, 13612, Note_on_c, 0, 68, 0
2, 13613, Note_on_c, 0, 59, 0
2, 13640, Note_on_c, 0, 76, 113
2, 13646, Note_on_c, 0, 75, 0
2, 13670, Note_on_c, 0, 59, 92
2, 13670, Note_on_c, 0, 69, 89
2, 13670, Note_on_c, 0, 72, 97
2, 13670, Note_on_c, 0, 76, 0
2, 13671, Note_on_c, 0, 77, 110
2, 13698, Note_on_c, 0, 78, 106
2, 13700, Note_on_c, 0, 77, 0
2, 13728, Note_on_c, 0, 76, 110
2, 13730, Note_on_c, 0, 59, 0
2, 13730, Note_on_c, 0, 69, 0
2, 13736, Note_on_c, 0, 78, 0
2, 13756, Note_on_c, 0, 77, 117
2, 13760, Note_on_c, 0, 76, 0
2, 13760, Note_on_c, 0, 72, 0
2, 13786, Note_on_c, 0, 70, 92
2, 13786, Note_on_c, 0, 77, 0
2, 13787, Note_on_c, 0, 59, 96
2, 13787, Note_on_c, 0, 78, 107
2, 13788, Note_on_c, 0, 73, 101
2, 13795, Control_c, 0, 64, 127
2, 13817, Note_on_c, 0, 79, 104
2, 13818, Control_c, 0, 64, 0
2, 13818, Note_on_c, 0, 78, 0
2, 13845, Note_on_c, 0, 78, 113
2, 13846, Note_on_c, 0, 70, 0
2, 13847, Note_on_c, 0, 59, 0
2, 13850, Note_on_c, 0, 79, 0
2, 13879, Note_on_c, 0, 76, 105
2, 13883, Note_on_c, 0, 78, 0
2, 13908, Note_on_c, 0, 71, 86
2, 13908, Note_on_c, 0, 59, 90
2, 13909, Note_on_c, 0, 76, 0
2, 13910, Note_on_c, 0, 75, 109
2, 13915, Note_on_c, 0, 73, 0
2, 13938, Note_on_c, 0, 76, 106
2, 13938, Note_on_c, 0, 75, 0
2, 13970, Note_on_c, 0, 74, 107
2, 13975, Note_on_c, 0, 76, 0
2, 13998, Note_on_c, 0, 59, 0
2, 14001, Note_on_c, 0, 75, 116
2, 14003, Note_on_c, 0, 74, 0
2, 14009, Note_on_c, 0, 71, 0
2, 14031, Note_on_c, 0, 75, 0
2, 14032, Note_on_c, 0, 76, 111
2, 14033, Note_on_c, 0, 71, 98
2, 14033, Note_on_c, 0, 67, 95
2, 14061, Note_on_c, 0, 78, 108
2, 14062, Note_on_c, 0, 66, 102
2, 14064, Note_on_c, 0, 67, 0
2, 14069, Note_on_c, 0, 76, 0
2, 14087, Note_on_c, 0, 66, 0
2, 14090, Note_on_c, 0, 67, 93
2, 14090, Note_on_c, 0, 75, 109
2, 14096, Note_on_c, 0, 78, 0
2, 14113, Note_on_c, 0, 67, 0
2, 14118, Note_on_c, 0, 71, 0
2, 14120, Note_on_c, 0, 76, 107
2, 14120, Note_on_c, 0, 59, 95
2, 14150, Note_on_c, 0, 81, 109
2, 14150, Note_on_c, 0, 75, 0
2, 14151, Note_on_c, 0, 60, 98
2, 14156, Note_on_c, 0, 59, 0
2, 14165, Note_on_c, 0, 76, 0
2, 14180, Note_on_c, 0, 83, 107
2, 14181, Note_on_c, 0, 81, 0
2, 14208, Note_on_c, 0, 80, 106
2, 14211, Note_on_c, 0, 83, 0
2, 14235, Note_on_c, 0, 60, 0
2, 14237, Note_on_c, 0, 81, 109
2, 14237, Note_on_c, 0, 80, 0
2, 14267, Note_on_c, 0, 81, 0
2, 14270, Note_on_c, 0, 74, 111
2, 14270, Note_on_c, 0, 69, 102
2, 14272, Note_on_c, 0, 66, 103
2, 14298, Note_on_c, 0, 76, 105
2, 14299, Note_on_c, 0, 65, 95
2, 14302, Note_on_c, 0, 66, 0
2, 14303, Note_on_c, 0, 74, 0
2, 14319, Note_on_c, 0, 65, 0
2, 14326, Note_on_c, 0, 66, 100
2, 14327, Note_on_c, 0, 73, 108
2, 14329, Note_on_c, 0, 76, 0
2, 14352, Note_on_c, 0, 66, 0
2, 14355, Note_on_c, 0, 74, 106
2, 14355, Note_on_c, 0, 57, 103
2, 14355, Note_on_c, 0, 69, 0
2, 14358, Note_on_c, 0, 73, 0
2, 14377, Note_on_c, 0, 74, 0
2, 14388, Note_on_c, 0, 79, 111
2, 14388, Note_on_c, 0, 74, 112
2, 14388, Note_on_c, 0, 59, 101
2, 14390, Note_on_c, 0, 57, 0
2, 14421, Note_on_c, 0, 81, 104
2, 14448, Note_on_c, 0, 79, 0
2, 14452, Note_on_c, 0, 81, 0
2, 14453, Note_on_c, 0, 78, 102
2, 14478, Note_on_c, 0, 74, 0
2, 14478, Note_on_c, 0, 59, 0
2, 14482, Note_on_c, 0, 78, 0
2, 14483, Note_on_c, 0, 79, 99
2, 14512, Note_on_c, 0, 72, 108
2, 14512, Note_on_c, 0, 67, 96
2, 14513, Note_on_c, 0, 64, 103
2, 14513, Note_on_c, 0, 79, 0
2, 14538, Note_on_c, 0, 74, 101
2, 14538, Note_on_c, 0, 63, 109
2, 14538, Note_on_c, 0, 72, 0
2, 14544, Note_on_c, 0, 64, 0
2, 14559, Note_on_c, 0, 63, 0
2, 14568, Note_on_c, 0, 71, 102
2, 14568, Note_on_c, 0, 64, 104
2, 14572, Note_on_c, 0, 74, 0
2, 14579, Note_on_c, 0, 67, 0
2, 14593, Note_on_c, 0, 71, 0
2, 14593, Note_on_c, 0, 64, 0
2, 14596, Note_on_c, 0, 55, 97
2, 14596, Note_on_c, 0, 72, 99
2, 14626, Note_on_c, 0, 57, 102
2, 14626, Note_on_c, 0, 73, 108
2, 14626, Note_on_c, 0, 78, 110
2, 14626, Note_on_c, 0, 72, 0
2, 14631, Note_on_c, 0, 55, 0
2, 14656, Note_on_c, 0, 79, 101
2, 14657, Note_on_c, 0, 78, 0
2, 14676, Note_on_c, 0, 57, 0
2, 14686, Note_on_c, 0, 77, 98
2, 14705, Note_on_c, 0, 79, 0
2, 14711, Note_on_c, 0, 77, 0
2, 14715, Note_on_c, 0, 78, 109
2, 14716, Note_on_c, 0, 73, 0
2, 14745, Note_on_c, 0, 78, 0
2, 14747, Note_on_c, 0, 66, 100
2, 14748, Note_on_c, 0, 63, 99
2, 14748, Note_on_c, 0, 71, 106
2, 14773, Note_on_c, 0, 63, 0
2, 14775, Note_on_c, 0, 62, 98
2, 14775, Note_on_c, 0, 72, 105
2, 14776, Note_on_c, 0, 71, 0
2, 14791, Note_on_c, 0, 62, 0
2, 14802, Note_on_c, 0, 70, 101
2, 14802, Note_on_c, 0, 63, 97
2, 14804, Note_on_c, 0, 72, 0
2, 14830, Note_on_c, 0, 54, 93
2, 14830, Note_on_c, 0, 70, 0
2, 14831, Note_on_c, 0, 71, 104
2, 14834, Note_on_c, 0, 66, 0
2, 14836, Note_on_c, 0, 63, 0
2, 14846, Note_on_c, 0, 71, 0
2, 14861, Note_on_c, 0, 76, 112
2, 14862, Note_on_c, 0, 71, 109
2, 14863, Note_on_c, 0, 55, 95
2, 14867, Note_on_c, 0, 54, 0
2, 14892, Note_on_c, 0, 57, 90
2, 14892, Note_on_c, 0, 72, 103
2, 14892, Note_on_c, 0, 71, 0
2, 14920, Note_on_c, 0, 54, 90
2, 14921, Note_on_c, 0, 57, 0
2, 14921, Note_on_c, 0, 72, 0
2, 14922, Note_on_c, 0, 69, 97
2, 14930, Note_on_c, 0, 55, 0
2, 14947, Note_on_c, 0, 54, 0
2, 14950, Note_on_c, 0, 55, 87
2, 14951, Note_on_c, 0, 71, 99
2, 14955, Note_on_c, 0, 69, 0
2, 14980, Note_on_c, 0, 74, 109
2, 14980, Note_on_c, 0, 69, 113
2, 14980, Note_on_c, 0, 55, 0
2, 14981, Note_on_c, 0, 54, 94
2, 14981, Note_on_c, 0, 71, 0
2, 14981, Note_on_c, 0, 76, 0
2, 15005, Note_on_c, 0, 54, 0
2, 15007, Note_on_c, 0, 55, 86
2, 15007, Note_on_c, 0, 69, 0
2, 15008, Note_on_c, 0, 71, 93
2, 15031, Note_on_c, 0, 71, 0
2, 15032, Note_on_c, 0, 55, 0
2, 15037, Note_on_c, 0, 52, 87
2, 15037, Note_on_c, 0, 67, 92
2, 15064, Note_on_c, 0, 52, 0
2, 15066, Note_on_c, 0, 69, 98
2, 15067, Note_on_c, 0, 54, 89
2, 15068, Note_on_c, 0, 67, 0
2, 15072, Note_on_c, 0, 74, 0
2, 15084, Note_on_c, 0, 69, 0
2, 15097, Note_on_c, 0, 72, 106
2, 15097, Note_on_c, 0, 54, 0
2, 15098, Note_on_c, 0, 52, 93
2, 15098, Note_on_c, 0, 67, 109
2, 15124, Note_on_c, 0, 52, 0
2, 15125, Note_on_c, 0, 67, 0
2, 15127, Note_on_c, 0, 54, 91
2, 15128, Note_on_c, 0, 69, 96
2, 15149, Note_on_c, 0, 54, 0
2, 15150, Note_on_c, 0, 69, 0
2, 15156, Note_on_c, 0, 50, 98
2, 15157, Note_on_c, 0, 66, 101
2, 15177, Note_on_c, 0, 72, 0
2, 15181, Note_on_c, 0, 50, 0
2, 15185, Note_on_c, 0, 52, 93
2, 15185, Note_on_c, 0, 67, 102
2, 15187, Note_on_c, 0, 66, 0
2, 15215, Note_on_c, 0, 71, 106
2, 15215, Note_on_c, 0, 66, 113
2, 15215, Note_on_c, 0, 67, 0
2, 15215, Note_on_c, 0, 52, 0
2, 15216, Note_on_c, 0, 50, 100
2, 15242, Note_on_c, 0, 50, 0
2, 15242, Note_on_c, 0, 66, 0
2, 15245, Note_on_c, 0, 67, 98
2, 15246, Note_on_c, 0, 52, 93
2, 15263, Note_on_c, 0, 67, 0
2, 15275, Note_on_c, 0, 48, 85
2, 15276, Note_on_c, 0, 64, 100
2, 15276, Note_on_c, 0, 52, 0
2, 15302, Note_on_c, 0, 48, 0
2, 15306, Note_on_c, 0, 50, 91
2, 15307, Note_on_c, 0, 66, 99
2, 15308, Note_on_c, 0, 71, 0
2, 15312, Note_on_c, 0, 64, 0
2, 15327, Note_on_c, 0, 66, 0
2, 15335, Note_on_c, 0, 48, 110
2, 15335, Note_on_c, 0, 64, 117
2, 15335, Note_on_c, 0, 69, 116
2, 15336, Note_on_c, 0, 50, 0
2, 15365, Note_on_c, 0, 48, 0
2, 15367, Note_on_c, 0, 66, 109
2, 15368, Note_on_c, 0, 50, 95
2, 15389, Note_on_c, 0, 50, 0
2, 15395, Note_on_c, 0, 64, 0
2, 15397, Note_on_c, 0, 66, 0
2, 15401, Note_on_c, 0, 62, 99
2, 15401, Note_on_c, 0, 47, 90
2, 15427, Note_on_c, 0, 47, 0
2, 15432, Note_on_c, 0, 64, 100
2, 15433, Note_on_c, 0, 48, 96
2, 15436, Note_on_c, 0, 62, 0
2, 15450, Note_on_c, 0, 48, 0
2, 15452, Note_on_c, 0, 64, 0
2, 15455, Note_on_c, 0, 69, 0
2, 15460, Note_on_c, 0, 47, 94
2, 15463, Note_on_c, 0, 67, 110
2, 15463, Note_on_c, 0, 62, 109
2, 15490, Note_on_c, 0, 64, 101
2, 15490, Note_on_c, 0, 48, 86
2, 15490, Note_on_c, 0, 47, 0
2, 15494, Note_on_c, 0, 62, 0
2, 15520, Note_on_c, 0, 48, 0
2, 15520, Note_on_c, 0, 64, 0
2, 15521, Note_on_c, 0, 45, 96
2, 15523, Note_on_c, 0, 60, 98
2, 15551, Note_on_c, 0, 45, 0
2, 15552, Note_on_c, 0, 62, 94
2, 15552, Note_on_c, 0, 47, 91
2, 15554, Note_on_c, 0, 60, 0
2, 15554, Note_on_c, 0, 67, 0
2, 15580, Note_on_c, 0, 60, 103
2, 15582, Note_on_c, 0, 62, 0
2, 15582, Note_on_c, 0, 47, 0
2, 15583, Note_on_c, 0, 66, 114
2, 15583, Note_on_c, 0, 45, 107
2, 15610, Note_on_c, 0, 45, 0
2, 15611, Note_on_c, 0, 60, 0
2, 15615, Note_on_c, 0, 62, 100
2, 15616, Note_on_c, 0, 47, 83
2, 15646, Note_on_c, 0, 47, 0
2, 15647, Note_on_c, 0, 43, 87
2, 15648, Note_on_c, 0, 59, 92
2, 15670, Note_on_c, 0, 43, 0
2, 15671, Note_on_c, 0, 62, 0
2, 15674, Note_on_c, 0, 66, 0
2, 15677, Note_on_c, 0, 59, 0
2, 15678, Note_on_c, 0, 60, 96
2, 15678, Note_on_c, 0, 45, 91
2, 15700, Note_on_c, 0, 60, 0
2, 15708, Note_on_c, 0, 64, 119
2, 15708, Note_on_c, 0, 59, 114
2, 15708, Note_on_c, 0, 43, 95
2, 15708, Note_on_c, 0, 45, 0
2, 15733, Note_on_c, 0, 43, 0
2, 15739, Note_on_c, 0, 59, 0
2, 15740, Note_on_c, 0, 45, 98
2, 15741, Note_on_c, 0, 60, 105
2, 15770, Note_on_c, 0, 57, 103
2, 15770, Note_on_c, 0, 45, 0
2, 15771, Note_on_c, 0, 42, 84
2, 15780, Note_on_c, 0, 60, 0
2, 15795, Note_on_c, 0, 64, 0
2, 15796, Note_on_c, 0, 57, 0
2, 15796, Note_on_c, 0, 42, 0
2, 15804, Note_on_c, 0, 43, 87
2, 15804, Note_on_c, 0, 59, 96
2, 15826, Note_on_c, 0, 59, 0
2, 15834, Note_on_c, 0, 43, 0
2, 15840, Note_on_c, 0, 41, 114
2, 15840, Note_on_c, 0, 68, 112
2, 15840, Note_on_c, 0, 56, 115
2, 15840, Note_on_c, 0, 59, 113
2, 15841, Note_on_c, 0, 62, 106
2, 15930, Note_on_c, 0, 59, 0
2, 15930, Note_on_c, 0, 56, 0
2, 15930, Note_on_c, 0, 41, 0
2, 15930, Note_on_c, 0, 68, 0
2, 15931, Note_on_c, 0, 62, 0
2, 15960, Note_on_c, 0, 68, 111
2, 15960, Note_on_c, 0, 71, 111
2, 15961, Note_on_c, 0, 59, 112
2, 15962, Note_on_c, 0, 49, 104
2, 15985, Note_on_c, 0, 49, 0
2, 15987, Note_on_c, 0, 50, 103
2, 16007, Note_on_c, 0, 50, 0
2, 16017, Note_on_c, 0, 48, 103
2, 16045, Note_on_c, 0, 49, 95
2, 16045, Note_on_c, 0, 48, 0
2, 16060, Note_on_c, 0, 49, 0
2, 16075, Note_on_c, 0, 49, 107
2, 16102, Note_on_c, 0, 50, 105
2, 16102, Note_on_c, 0, 49, 0
2, 16127, Note_on_c, 0, 50, 0
2, 16132, Note_on_c, 0, 48, 105
2, 16140, Note_on_c, 0, 71, 0
2, 16140, Note_on_c, 0, 68, 0
2, 16141, Note_on_c, 0, 59, 0
2, 16159, Note_on_c, 0, 48, 0
2, 16160, Note_on_c, 0, 49, 106
2, 16182, Note_on_c, 0, 49, 0
2, 16191, Note_on_c, 0, 68, 116
2, 16192, Note_on_c, 0, 80, 123
2, 16192, Note_on_c, 0, 71, 114
2, 16193, Note_on_c, 0, 49, 112
2, 16217, Note_on_c, 0, 50, 100
2, 16217, Note_on_c, 0, 49, 0
2, 16242, Note_on_c, 0, 50, 0
2, 16248, Note_on_c, 0, 48, 99
2, 16278, Note_on_c, 0, 49, 88
2, 16278, Note_on_c, 0, 48, 0
2, 16300, Note_on_c, 0, 49, 0
2, 16312, Note_on_c, 0, 49, 115
2, 16338, Note_on_c, 0, 50, 99
2, 16339, Note_on_c, 0, 49, 0
2, 16364, Note_on_c, 0, 50, 0
2, 16370, Note_on_c, 0, 48, 102
2, 16379, Note_on_c, 0, 68, 0
2, 16379, Note_on_c, 0, 71, 0
2, 16379, Note_on_c, 0, 80, 0
2, 16399, Note_on_c, 0, 48, 0
2, 16400, Note_on_c, 0, 49, 107
2, 16422, Note_on_c, 0, 49, 0
2, 16432, Note_on_c, 0, 80, 119
2, 16432, Note_on_c, 0, 71, 120
2, 16432, Note_on_c, 0, 83, 118
2, 16433, Note_on_c, 0, 49, 116
2, 16455, Note_on_c, 0, 49, 0
2, 16460, Note_on_c, 0, 50, 98
2, 16480, Note_on_c, 0, 50, 0
2, 16487, Note_on_c, 0, 48, 106
2, 16492, Note_on_c, 0, 83, 0
2, 16492, Note_on_c, 0, 80, 0
2, 16492, Note_on_c, 0, 71, 0
2, 16509, Note_on_c, 0, 48, 0
2, 16515, Note_on_c, 0, 49, 111
2, 16530, Note_on_c, 0, 49, 0
2, 16545, Note_on_c, 0, 92, 127
2, 16545, Note_on_c, 0, 80, 119
2, 16545, Note_on_c, 0, 83, 116
2, 16547, Note_on_c, 0, 49, 116
2, 16572, Note_on_c, 0, 49, 0
2, 16573, Note_on_c, 0, 50, 106
2, 16593, Note_on_c, 0, 50, 0
2, 16601, Note_on_c, 0, 48, 107
2, 16626, Note_on_c, 0, 49, 101
2, 16627, Note_on_c, 0, 48, 0
2, 16635, Note_on_c, 0, 49, 0
2, 16655, Note_on_c, 0, 49, 115
2, 16675, Note_on_c, 0, 92, 0
2, 16682, Note_on_c, 0, 80, 0
2, 16682, Note_on_c, 0, 83, 0
2, 16685, Note_on_c, 0, 50, 106
2, 16685, Note_on_c, 0, 49, 0
2, 16705, Note_on_c, 0, 50, 0
2, 16712, Note_on_c, 0, 48, 106
2, 16712, Note_on_c, 0, 83, 102
2, 16713, Note_on_c, 0, 90, 118
2, 16713, Note_on_c, 0, 78, 109
2, 16737, Note_on_c, 0, 48, 0
2, 16741, Note_on_c, 0, 49, 106
2, 16742, Note_on_c, 0, 83, 0
2, 16743, Note_on_c, 0, 78, 0
2, 16743, Note_on_c, 0, 90, 0
2, 16772, Note_on_c, 0, 89, 126
2, 16773, Note_on_c, 0, 83, 114
2, 16773, Note_on_c, 0, 77, 120
2, 16775, Note_on_c, 0, 50, 114
2, 16776, Note_on_c, 0, 49, 0
2, 16820, Note_on_c, 0, 50, 0
2, 16874, Note_on_c, 0, 89, 0
2, 16874, Note_on_c, 0, 83, 0
2, 16874, Note_on_c, 0, 77, 0
2, 16907, Note_on_c, 0, 83, 123
2, 16907, Note_on_c, 0, 80, 108
2, 16935, Note_on_c, 0, 80, 0
2, 16937, Note_on_c, 0, 74, 95
2, 16938, Note_on_c, 0, 85, 116
2, 16943, Note_on_c, 0, 83, 0
2, 16962, Note_on_c, 0, 71, 94
2, 16965, Note_on_c, 0, 83, 106
2, 16965, Note_on_c, 0, 74, 0
2, 16966, Note_on_c, 0, 85, 0
2, 16987, Note_on_c, 0, 71, 0
2, 16990, Note_on_c, 0, 92, 106
2, 16990, Note_on_c, 0, 83, 0
2, 16991, Note_on_c, 0, 65, 98
2, 17020, Note_on_c, 0, 77, 112
2, 17020, Note_on_c, 0, 92, 0
2, 17021, Note_on_c, 0, 65, 0
2, 17022, Note_on_c, 0, 80, 124
2, 17050, Note_on_c, 0, 82, 109
2, 17050, Note_on_c, 0, 71, 91
2, 17053, Note_on_c, 0, 80, 0
2, 17055, Note_on_c, 0, 77, 0
2, 17076, Note_on_c, 0, 82, 0
2, 17078, Note_on_c, 0, 68, 94
2, 17078, Note_on_c, 0, 80, 95
2, 17080, Note_on_c, 0, 71, 0
2, 17106, Note_on_c, 0, 62, 94
2, 17106, Note_on_c, 0, 89, 99
2, 17108, Note_on_c, 0, 80, 0
2, 17108, Note_on_c, 0, 68, 0
2, 17135, Note_on_c, 0, 77, 122
2, 17135, Note_on_c, 0, 74, 109
2, 17136, Note_on_c, 0, 62, 0
2, 17136, Note_on_c, 0, 89, 0
2, 17161, Note_on_c, 0, 78, 116
2, 17162, Note_on_c, 0, 68, 95
2, 17166, Note_on_c, 0, 77, 0
2, 17175, Note_on_c, 0, 74, 0
2, 17190, Note_on_c, 0, 77, 113
2, 17191, Note_on_c, 0, 65, 90
2, 17191, Note_on_c, 0, 78, 0
2, 17197, Note_on_c, 0, 68, 0
2, 17216, Note_on_c, 0, 86, 93
2, 17217, Note_on_c, 0, 59, 88
2, 17220, Note_on_c, 0, 77, 0
2, 17221, Note_on_c, 0, 65, 0
2, 17246, Note_on_c, 0, 74, 115
2, 17246, Note_on_c, 0, 86, 0
2, 17247, Note_on_c, 0, 71, 106
2, 17247, Note_on_c, 0, 59, 0
2, 17273, Note_on_c, 0, 65, 99
2, 17273, Note_on_c, 0, 76, 112
2, 17277, Note_on_c, 0, 74, 0
2, 17300, Note_on_c, 0, 62, 80
2, 17300, Note_on_c, 0, 74, 99
2, 17302, Note_on_c, 0, 76, 0
2, 17309, Note_on_c, 0, 71, 0
2, 17309, Note_on_c, 0, 65, 0
2, 17327, Note_on_c, 0, 62, 0
2, 17330, Note_on_c, 0, 56, 99
2, 17330, Note_on_c, 0, 83, 93
2, 17330, Note_on_c, 0, 74, 0
2, 17360, Note_on_c, 0, 56, 0
2, 17365, Note_on_c, 0, 71, 116
2, 17365, Note_on_c, 0, 68, 113
2, 17390, Note_on_c, 0, 83, 0
2, 17395, Note_on_c, 0, 73, 110
2, 17395, Note_on_c, 0, 62, 96
2, 17401, Note_on_c, 0, 71, 0
2, 17408, Note_on_c, 0, 68, 0
2, 17424, Note_on_c, 0, 59, 90
2, 17425, Note_on_c, 0, 71, 104
2, 17425, Note_on_c, 0, 73, 0
2, 17430, Note_on_c, 0, 62, 0
2, 17447, Note_on_c, 0, 59, 0
2, 17452, Note_on_c, 0, 71, 0
2, 17455, Note_on_c, 0, 80, 103
2, 17456, Note_on_c, 0, 53, 94
2, 17486, Note_on_c, 0, 53, 0
2, 17487, Note_on_c, 0, 68, 121
2, 17488, Note_on_c, 0, 65, 109
2, 17515, Note_on_c, 0, 80, 0
2, 17518, Note_on_c, 0, 70, 104
2, 17518, Note_on_c, 0, 59, 93
2, 17524, Note_on_c, 0, 68, 0
2, 17526, Note_on_c, 0, 65, 0
2, 17545, Note_on_c, 0, 56, 85
2, 17546, Note_on_c, 0, 68, 99
2, 17548, Note_on_c, 0, 70, 0
2, 17548, Note_on_c, 0, 59, 0
2, 17575, Note_on_c, 0, 56, 0
2, 17575, Note_on_c, 0, 68, 0
2, 17576, Note_on_c, 0, 50, 90
2, 17576, Note_on_c, 0, 77, 98
2, 17606, Note_on_c, 0, 50, 0
2, 17607, Note_on_c, 0, 65, 119
2, 17607, Note_on_c, 0, 62, 109
2, 17635, Note_on_c, 0, 56, 101
2, 17635, Note_on_c, 0, 66, 120
2, 17636, Note_on_c, 0, 77, 0
2, 17638, Note_on_c, 0, 65, 0
2, 17646, Note_on_c, 0, 62, 0
2, 17665, Note_on_c, 0, 65, 118
2, 17666, Note_on_c, 0, 53, 92
2, 17668, Note_on_c, 0, 66, 0
2, 17673, Note_on_c, 0, 56, 0
2, 17695, Note_on_c, 0, 65, 0
2, 17696, Note_on_c, 0, 53, 0
2, 17697, Note_on_c, 0, 74, 121
2, 17697, Note_on_c, 0, 47, 98
2, 17726, Note_on_c, 0, 74, 0
2, 17727, Note_on_c, 0, 47, 0
2, 17731, Note_on_c, 0, 73, 109
2, 17731, Note_on_c, 0, 70, 106
2, 17733, Note_on_c, 0, 61, 113
2, 17733, Note_on_c, 0, 43, 106
2, 17821, Note_on_c, 0, 70, 0
2, 17821, Note_on_c, 0, 73, 0
2, 17823, Note_on_c, 0, 61, 0
2, 17823, Note_on_c, 0, 43, 0
2, 17865, Note_on_c, 0, 61, 124
2, 17866, Note_on_c, 0, 73, 119
2, 17867, Note_on_c, 0, 70, 112
2, 17867, Note_on_c, 0, 51, 109
2, 17894, Note_on_c, 0, 51, 0
2, 17897, Note_on_c, 0, 52, 100
2, 17924, Note_on_c, 0, 52, 0
2, 17927, Note_on_c, 0, 50, 99
2, 17957, Note_on_c, 0, 51, 103
2, 17957, Note_on_c, 0, 50, 0
2, 17972, Note_on_c, 0, 51, 0
2, 17988, Note_on_c, 0, 51, 113
2, 18016, Note_on_c, 0, 51, 0
2, 18018, Note_on_c, 0, 52, 103
2, 18046, Note_on_c, 0, 52, 0
2, 18048, Note_on_c, 0, 50, 105
2, 18050, Note_on_c, 0, 61, 0
2, 18057, Note_on_c, 0, 70, 0
2, 18068, Note_on_c, 0, 73, 0
2, 18074, Note_on_c, 0, 50, 0
2, 18077, Note_on_c, 0, 51, 109
2, 18092, Note_on_c, 0, 51, 0
2, 18110, Note_on_c, 0, 82, 124
2, 18111, Note_on_c, 0, 70, 116
2, 18111, Note_on_c, 0, 73, 117
2, 18112, Note_on_c, 0, 51, 113
2, 18139, Note_on_c, 0, 51, 0
2, 18142, Note_on_c, 0, 52, 104
2, 18165, Note_on_c, 0, 52, 0
2, 18172, Note_on_c, 0, 50, 101
2, 18198, Note_on_c, 0, 50, 0
2, 18200, Note_on_c, 0, 51, 103
2, 18208, Note_on_c, 0, 51, 0
2, 18230, Note_on_c, 0, 51, 113
2, 18260, Note_on_c, 0, 51, 0
2, 18261, Note_on_c, 0, 52, 109
2, 18289, Note_on_c, 0, 52, 0
2, 18290, Note_on_c, 0, 50, 103
2, 18299, Note_on_c, 0, 73, 0
2, 18299, Note_on_c, 0, 82, 0
2, 18299, Note_on_c, 0, 70, 0
2, 18319, Note_on_c, 0, 50, 0
2, 18323, Note_on_c, 0, 51, 103
2, 18335, Note_on_c, 0, 51, 0
2, 18355, Note_on_c, 0, 73, 122
2, 18355, Note_on_c, 0, 85, 124
2, 18355, Note_on_c, 0, 82, 118
2, 18357, Note_on_c, 0, 51, 116
2, 18380, Note_on_c, 0, 51, 0
2, 18385, Note_on_c, 0, 52, 104
2, 18405, Note_on_c, 0, 52, 0
2, 18415, Note_on_c, 0, 50, 100
2, 18415, Note_on_c, 0, 82, 0
2, 18415, Note_on_c, 0, 73, 0
2, 18415, Note_on_c, 0, 85, 0
2, 18435, Note_on_c, 0, 50, 0
2, 18445, Note_on_c, 0, 51, 102
2, 18453, Note_on_c, 0, 51, 0
2, 18472, Note_on_c, 0, 94, 127
2, 18472, Note_on_c, 0, 82, 121
2, 18473, Note_on_c, 0, 85, 122
2, 18473, Note_on_c, 0, 51, 115
2, 18498, Note_on_c, 0, 51, 0
2, 18502, Note_on_c, 0, 52, 106
2, 18530, Note_on_c, 0, 50, 103
2, 18530, Note_on_c, 0, 52, 0
2, 18557, Note_on_c, 0, 50, 0
2, 18558, Note_on_c, 0, 51, 114
2, 18567, Note_on_c, 0, 51, 0
2, 18590, Note_on_c, 0, 51, 117
2, 18614, Note_on_c, 0, 94, 0
2, 18615, Note_on_c, 0, 85, 0
2, 18619, Note_on_c, 0, 51, 0
2, 18620, Note_on_c, 0, 52, 108
2, 18620, Note_on_c, 0, 82, 0
2, 18641, Note_on_c, 0, 52, 0
2, 18650, Note_on_c, 0, 50, 105
2, 18650, Note_on_c, 0, 92, 122
2, 18650, Note_on_c, 0, 80, 116
2, 18651, Note_on_c, 0, 85, 107
2, 18676, Note_on_c, 0, 50, 0
2, 18683, Note_on_c, 0, 51, 110
2, 18695, Note_on_c, 0, 80, 0
2, 18696, Note_on_c, 0, 85, 0
2, 18702, Note_on_c, 0, 92, 0
2, 18715, Note_on_c, 0, 91, 120
2, 18715, Note_on_c, 0, 85, 117
2, 18716, Note_on_c, 0, 79, 112
2, 18718, Note_on_c, 0, 52, 115
2, 18724, Note_on_c, 0, 51, 0
2, 18772, Note_on_c, 0, 52, 0
2, 18817, Note_on_c, 0, 79, 0
2, 18817, Note_on_c, 0, 85, 0
2, 18825, Note_on_c, 0, 91, 0
2, 18845, Note_on_c, 0, 79, 104
2, 18845, Note_on_c, 0, 85, 127
2, 18872, Note_on_c, 0, 87, 113
2, 18873, Note_on_c, 0, 73, 91
2, 18880, Note_on_c, 0, 85, 0
2, 18888, Note_on_c, 0, 79, 0
2, 18901, Note_on_c, 0, 70, 79
2, 18903, Note_on_c, 0, 85, 116
2, 18904, Note_on_c, 0, 73, 0
2, 18905, Note_on_c, 0, 87, 0
2, 18927, Note_on_c, 0, 70, 0
2, 18929, Note_on_c, 0, 94, 109
2, 18930, Note_on_c, 0, 64, 87
2, 18930, Note_on_c, 0, 85, 0
2, 18955, Note_on_c, 0, 82, 116
2, 18956, Note_on_c, 0, 76, 105
2, 18959, Note_on_c, 0, 94, 0
2, 18960, Note_on_c, 0, 64, 0
2, 18985, Note_on_c, 0, 70, 95
2, 18985, Note_on_c, 0, 84, 109
2, 18987, Note_on_c, 0, 82, 0
2, 18997, Note_on_c, 0, 76, 0
2, 19012, Note_on_c, 0, 82, 100
2, 19012, Note_on_c, 0, 67, 85
2, 19012, Note_on_c, 0, 84, 0
2, 19016, Note_on_c, 0, 70, 0
2, 19040, Note_on_c, 0, 61, 85
2, 19040, Note_on_c, 0, 91, 99
2, 19042, Note_on_c, 0, 82, 0
2, 19042, Note_on_c, 0, 67, 0
2, 19070, Note_on_c, 0, 73, 108
2, 19070, Note_on_c, 0, 79, 113
2, 19070, Note_on_c, 0, 61, 0
2, 19070, Note_on_c, 0, 91, 0
2, 19098, Note_on_c, 0, 80, 113
2, 19098, Note_on_c, 0, 67, 92
2, 19104, Note_on_c, 0, 79, 0
2, 19112, Note_on_c, 0, 73, 0
2, 19125, Note_on_c, 0, 64, 81
2, 19127, Note_on_c, 0, 79, 92
2, 19131, Note_on_c, 0, 67, 0
2, 19136, Note_on_c, 0, 80, 0
2, 19151, Note_on_c, 0, 64, 0
2, 19155, Note_on_c, 0, 58, 89
2, 19155, Note_on_c, 0, 88, 92
2, 19157, Note_on_c, 0, 79, 0
2, 19173, Note_on_c, 0, 58, 0
2, 19183, Note_on_c, 0, 70, 90
2, 19183, Note_on_c, 0, 76, 109
2, 19185, Note_on_c, 0, 88, 0
2, 19212, Note_on_c, 0, 78, 102
2, 19213, Note_on_c, 0, 64, 96
2, 19220, Note_on_c, 0, 76, 0
2, 19240, Note_on_c, 0, 76, 95
2, 19240, Note_on_c, 0, 61, 61
2, 19241, Note_on_c, 0, 78, 0
2, 19243, Note_on_c, 0, 64, 0
2, 19243, Note_on_c, 0, 70, 0
2, 19270, Note_on_c, 0, 76, 0
2, 19272, Note_on_c, 0, 55, 87
2, 19272, Note_on_c, 0, 85, 100
2, 19280, Note_on_c, 0, 61, 0
2, 19300, Note_on_c, 0, 67, 101
2, 19300, Note_on_c, 0, 73, 106
2, 19302, Note_on_c, 0, 85, 0
2, 19302, Note_on_c, 0, 55, 0
2, 19330, Note_on_c, 0, 75, 102
2, 19330, Note_on_c, 0, 61, 95
2, 19332, Note_on_c, 0, 73, 0
2, 19337, Note_on_c, 0, 67, 0
2, 19357, Note_on_c, 0, 58, 89
2, 19358, Note_on_c, 0, 73, 99
2, 19358, Note_on_c, 0, 75, 0
2, 19361, Note_on_c, 0, 61, 0
2, 19382, Note_on_c, 0, 58, 0
2, 19385, Note_on_c, 0, 52, 92
2, 19386, Note_on_c, 0, 82, 98
2, 19389, Note_on_c, 0, 73, 0
2, 19415, Note_on_c, 0, 70, 115
2, 19415, Note_on_c, 0, 64, 110
2, 19415, Note_on_c, 0, 52, 0
2, 19416, Note_on_c, 0, 82, 0
2, 19445, Note_on_c, 0, 72, 96
2, 19445, Note_on_c, 0, 58, 101
2, 19445, Note_on_c, 0, 70, 0
2, 19449, Note_on_c, 0, 64, 0
2, 19470, Note_on_c, 0, 70, 88
2, 19471, Note_on_c, 0, 55, 90
2, 19472, Note_on_c, 0, 72, 0
2, 19475, Note_on_c, 0, 58, 0
2, 19500, Note_on_c, 0, 79, 94
2, 19500, Note_on_c, 0, 49, 83
2, 19501, Note_on_c, 0, 55, 0
2, 19503, Note_on_c, 0, 70, 0
2, 19530, Note_on_c, 0, 79, 0
2, 19530, Note_on_c, 0, 49, 0
2, 19532, Note_on_c, 0, 61, 113
2, 19533, Note_on_c, 0, 67, 114
2, 19560, Note_on_c, 0, 68, 111
2, 19561, Note_on_c, 0, 55, 94
2, 19564, Note_on_c, 0, 67, 0
2, 19569, Note_on_c, 0, 61, 0
2, 19588, Note_on_c, 0, 67, 101
2, 19588, Note_on_c, 0, 52, 89
2, 19590, Note_on_c, 0, 68, 0
2, 19597, Note_on_c, 0, 55, 0
2, 19616, Note_on_c, 0, 76, 94
2, 19617, Note_on_c, 0, 46, 81
2, 19617, Note_on_c, 0, 52, 0
2, 19618, Note_on_c, 0, 67, 0
2, 19646, Note_on_c, 0, 76, 0
2, 19647, Note_on_c, 0, 46, 0
2, 19652, Note_on_c, 0, 63, 108
2, 19653, Note_on_c, 0, 47, 103
2, 19682, Note_on_c, 0, 75, 110
2, 19683, Note_on_c, 0, 51, 101
2, 19697, Note_on_c, 0, 47, 0
2, 19709, Note_on_c, 0, 63, 0
2, 19709, Note_on_c, 0, 51, 0
2, 19710, Note_on_c, 0, 76, 109
2, 19710, Note_on_c, 0, 75, 0
2, 19713, Note_on_c, 0, 55, 93
2, 19740, Note_on_c, 0, 75, 103
2, 19740, Note_on_c, 0, 76, 0
2, 19743, Note_on_c, 0, 56, 98
2, 19744, Note_on_c, 0, 55, 0
2, 19772, Note_on_c, 0, 58, 110
2, 19772, Note_on_c, 0, 73, 109
2, 19773, Note_on_c, 0, 56, 0
2, 19781, Note_on_c, 0, 75, 0
2, 19800, Note_on_c, 0, 73, 0
2, 19803, Note_on_c, 0, 58, 0
2, 19805, Note_on_c, 0, 71, 93
2, 19805, Note_on_c, 0, 59, 101
2, 19833, Note_on_c, 0, 71, 0
2, 19835, Note_on_c, 0, 61, 83
2, 19835, Note_on_c, 0, 70, 98
2, 19835, Note_on_c, 0, 59, 0
2, 19860, Note_on_c, 0, 61, 0
2, 19863, Note_on_c, 0, 63, 93
2, 19863, Note_on_c, 0, 68, 98
2, 19865, Note_on_c, 0, 70, 0
2, 19887, Note_on_c, 0, 63, 0
2, 19891, Note_on_c, 0, 68, 0
2, 19895, Note_on_c, 0, 67, 119
2, 19895, Note_on_c, 0, 64, 101
2, 19925, Note_on_c, 0, 58, 99
2, 19926, Note_on_c, 0, 68, 110
2, 19931, Note_on_c, 0, 67, 0
2, 19945, Note_on_c, 0, 64, 0
2, 19954, Note_on_c, 0, 55, 79
2, 19955, Note_on_c, 0, 67, 103
2, 19955, Note_on_c, 0, 68, 0
2, 19959, Note_on_c, 0, 58, 0
2, 19981, Note_on_c, 0, 49, 56
2, 19984, Note_on_c, 0, 76, 95
2, 19984, Note_on_c, 0, 55, 0
2, 19984, Note_on_c, 0, 67, 0
2, 20011, Note_on_c, 0, 49, 0
2, 20014, Note_on_c, 0, 76, 0
2, 20017, Note_on_c, 0, 61, 112
2, 20017, Note_on_c, 0, 64, 117
2, 20045, Note_on_c, 0, 55, 97
2, 20045, Note_on_c, 0, 66, 108
2, 20050, Note_on_c, 0, 64, 0
2, 20054, Note_on_c, 0, 61, 0
2, 20073, Note_on_c, 0, 52, 86
2, 20073, Note_on_c, 0, 64, 90
2, 20077, Note_on_c, 0, 66, 0
2, 20089, Note_on_c, 0, 55, 0
2, 20103, Note_on_c, 0, 52, 0
2, 20104, Note_on_c, 0, 64, 0
2, 20107, Note_on_c, 0, 46, 90
2, 20107, Note_on_c, 0, 73, 92
2, 20137, Note_on_c, 0, 73, 0
2, 20137, Note_on_c, 0, 46, 0
2, 20140, Note_on_c, 0, 63, 119
2, 20140, Note_on_c, 0, 47, 105
2, 20173, Note_on_c, 0, 75, 106
2, 20173, Note_on_c, 0, 51, 100
2, 20200, Note_on_c, 0, 47, 0
2, 20200, Note_on_c, 0, 63, 0
2, 20202, Note_on_c, 0, 51, 0
2, 20204, Note_on_c, 0, 75, 0
2, 20205, Note_on_c, 0, 76, 106
2, 20205, Note_on_c, 0, 55, 98
2, 20235, Note_on_c, 0, 75, 108
2, 20235, Note_on_c, 0, 56, 102
2, 20236, Note_on_c, 0, 55, 0
2, 20238, Note_on_c, 0, 76, 0
2, 20267, Note_on_c, 0, 56, 0
2, 20268, Note_on_c, 0, 58, 111
2, 20268, Note_on_c, 0, 73, 109
2, 20273, Note_on_c, 0, 75, 0
2, 20295, Note_on_c, 0, 71, 94
2, 20295, Note_on_c, 0, 59, 99
2, 20296, Note_on_c, 0, 58, 0
2, 20297, Note_on_c, 0, 73, 0
2, 20320, Note_on_c, 0, 59, 0
2, 20325, Note_on_c, 0, 70, 104
2, 20325, Note_on_c, 0, 61, 94
2, 20326, Note_on_c, 0, 71, 0
2, 20355, Note_on_c, 0, 68, 104
2, 20355, Note_on_c, 0, 63, 95
2, 20355, Note_on_c, 0, 70, 0
2, 20357, Note_on_c, 0, 61, 0
2, 20380, Note_on_c, 0, 68, 0
2, 20385, Note_on_c, 0, 63, 0
2, 20387, Note_on_c, 0, 69, 118
2, 20387, Note_on_c, 0, 66, 113
2, 20418, Note_on_c, 0, 60, 95
2, 20418, Note_on_c, 0, 70, 117
2, 20424, Note_on_c, 0, 69, 0
2, 20447, Note_on_c, 0, 57, 88
2, 20448, Note_on_c, 0, 69, 110
2, 20449, Note_on_c, 0, 70, 0
2, 20453, Note_on_c, 0, 60, 0
2, 20474, Note_on_c, 0, 66, 0
2, 20474, Note_on_c, 0, 57, 0
2, 20478, Note_on_c, 0, 51, 82
2, 20478, Note_on_c, 0, 78, 102
2, 20478, Note_on_c, 0, 69, 0
2, 20508, Note_on_c, 0, 78, 0
2, 20508, Note_on_c, 0, 51, 0
2, 20510, Note_on_c, 0, 66, 121
2, 20510, Note_on_c, 0, 63, 113
2, 20540, Note_on_c, 0, 68, 102
2, 20540, Note_on_c, 0, 57, 100
2, 20541, Note_on_c, 0, 66, 0
2, 20567, Note_on_c, 0, 63, 0
2, 20571, Note_on_c, 0, 54, 83
2, 20571, Note_on_c, 0, 66, 103
2, 20571, Note_on_c, 0, 68, 0
2, 20588, Note_on_c, 0, 57, 0
2, 20599, Note_on_c, 0, 48, 91
2, 20599, Note_on_c, 0, 75, 93
2, 20605, Note_on_c, 0, 66, 0
2, 20609, Note_on_c, 0, 54, 0
2, 20629, Note_on_c, 0, 48, 0
2, 20629, Note_on_c, 0, 75, 0
2, 20632, Note_on_c, 0, 65, 114
2, 20632, Note_on_c, 0, 49, 108
2, 20661, Note_on_c, 0, 49, 0
2, 20661, Note_on_c, 0, 65, 0
2, 20665, Note_on_c, 0, 77, 108
2, 20668, Note_on_c, 0, 53, 106
2, 20694, Note_on_c, 0, 53, 0
2, 20695, Note_on_c, 0, 78, 110
2, 20695, Note_on_c, 0, 57, 103
2, 20697, Note_on_c, 0, 77, 0
2, 20720, Note_on_c, 0, 77, 113
2, 20722, Note_on_c, 0, 58, 108
2, 20722, Note_on_c, 0, 57, 0
2, 20730, Note_on_c, 0, 78, 0
2, 20749, Note_on_c, 0, 58, 0
2, 20752, Note_on_c, 0, 75, 114
2, 20752, Note_on_c, 0, 60, 90
2, 20761, Note_on_c, 0, 77, 0
2, 20780, Note_on_c, 0, 73, 104
2, 20781, Note_on_c, 0, 61, 103
2, 20781, Note_on_c, 0, 60, 0
2, 20792, Note_on_c, 0, 75, 0
2, 20807, Note_on_c, 0, 73, 0
2, 20809, Note_on_c, 0, 63, 101
2, 20810, Note_on_c, 0, 72, 104
2, 20815, Note_on_c, 0, 61, 0
2, 20835, Note_on_c, 0, 70, 99
2, 20835, Note_on_c, 0, 65, 100
2, 20837, Note_on_c, 0, 72, 0
2, 20841, Note_on_c, 0, 63, 0
2, 20857, Note_on_c, 0, 70, 0
2, 20865, Note_on_c, 0, 65, 0
2, 20867, Note_on_c, 0, 71, 113
2, 20867, Note_on_c, 0, 68, 107
2, 20898, Note_on_c, 0, 62, 97
2, 20898, Note_on_c, 0, 73, 111
2, 20904, Note_on_c, 0, 71, 0
2, 20905, Note_on_c, 0, 68, 0
2, 20925, Note_on_c, 0, 59, 95
2, 20928, Note_on_c, 0, 71, 103
2, 20932, Note_on_c, 0, 62, 0
2, 20932, Note_on_c, 0, 73, 0
2, 20947, Note_on_c, 0, 59, 0
2, 20952, Note_on_c, 0, 80, 103
2, 20953, Note_on_c, 0, 53, 102
2, 20954, Note_on_c, 0, 71, 0
2, 20983, Note_on_c, 0, 53, 0
2, 20985, Note_on_c, 0, 68, 123
2, 20986, Note_on_c, 0, 65, 106
2, 21012, Note_on_c, 0, 80, 0
2, 21015, Note_on_c, 0, 59, 95
2, 21016, Note_on_c, 0, 70, 103
2, 21017, Note_on_c, 0, 68, 0
2, 21025, Note_on_c, 0, 65, 0
2, 21040, Note_on_c, 0, 56, 94
2, 21040, Note_on_c, 0, 68, 94
2, 21041, Note_on_c, 0, 59, 0
2, 21044, Note_on_c, 0, 70, 0
2, 21067, Note_on_c, 0, 68, 0
2, 21070, Note_on_c, 0, 56, 0
2, 21072, Note_on_c, 0, 50, 98
2, 21072, Note_on_c, 0, 77, 102
2, 21102, Note_on_c, 0, 72, 120
2, 21102, Note_on_c, 0, 50, 0
2, 21103, Note_on_c, 0, 69, 109
2, 21130, Note_on_c, 0, 73, 114
2, 21131, Note_on_c, 0, 63, 108
2, 21132, Note_on_c, 0, 77, 0
2, 21135, Note_on_c, 0, 72, 0
2, 21141, Note_on_c, 0, 69, 0
2, 21160, Note_on_c, 0, 60, 77
2, 21162, Note_on_c, 0, 72, 106
2, 21163, Note_on_c, 0, 63, 0
2, 21166, Note_on_c, 0, 73, 0
2, 21188, Note_on_c, 0, 60, 0
2, 21190, Note_on_c, 0, 81, 100
2, 21190, Note_on_c, 0, 54, 104
2, 21192, Note_on_c, 0, 72, 0
2, 21218, Note_on_c, 0, 69, 116
2, 21218, Note_on_c, 0, 66, 118
2, 21220, Note_on_c, 0, 54, 0
2, 21245, Note_on_c, 0, 70, 117
2, 21245, Note_on_c, 0, 60, 99
2, 21246, Note_on_c, 0, 69, 0
2, 21250, Note_on_c, 0, 81, 0
2, 21260, Note_on_c, 0, 66, 0
2, 21273, Note_on_c, 0, 69, 105
2, 21275, Note_on_c, 0, 57, 82
2, 21278, Note_on_c, 0, 70, 0
2, 21280, Note_on_c, 0, 60, 0
2, 21300, Note_on_c, 0, 78, 103
2, 21302, Note_on_c, 0, 51, 94
2, 21302, Note_on_c, 0, 69, 0
2, 21303, Note_on_c, 0, 57, 0
2, 21332, Note_on_c, 0, 51, 0
2, 21336, Note_on_c, 0, 73, 126
2, 21337, Note_on_c, 0, 70, 102
2, 21360, Note_on_c, 0, 78, 0
2, 21366, Note_on_c, 0, 75, 112
2, 21367, Note_on_c, 0, 64, 102
2, 21371, Note_on_c, 0, 73, 0
2, 21377, Note_on_c, 0, 70, 0
2, 21395, Note_on_c, 0, 73, 103
2, 21395, Note_on_c, 0, 61, 91
2, 21398, Note_on_c, 0, 64, 0
2, 21402, Note_on_c, 0, 75, 0
2, 21422, Note_on_c, 0, 55, 103
2, 21422, Note_on_c, 0, 82, 94
2, 21422, Note_on_c, 0, 73, 0
2, 21425, Note_on_c, 0, 61, 0
2, 21451, Note_on_c, 0, 70, 123
2, 21452, Note_on_c, 0, 67, 113
2, 21452, Note_on_c, 0, 55, 0
2, 21481, Note_on_c, 0, 72, 101
2, 21482, Note_on_c, 0, 61, 95
2, 21482, Note_on_c, 0, 82, 0
2, 21486, Note_on_c, 0, 70, 0
2, 21510, Note_on_c, 0, 70, 102
2, 21510, Note_on_c, 0, 58, 98
2, 21515, Note_on_c, 0, 67, 0
2, 21518, Note_on_c, 0, 72, 0
2, 21522, Note_on_c, 0, 61, 0
2, 21540, Note_on_c, 0, 70, 0
2, 21540, Note_on_c, 0, 58, 0
2, 21542, Note_on_c, 0, 52, 86
2, 21542, Note_on_c, 0, 79, 100
2, 21572, Note_on_c, 0, 52, 0
2, 21581, Note_on_c, 0, 72, 125
2, 21581, Note_on_c, 0, 69, 96
2, 21581, Note_on_c, 0, 66, 92
2, 21581, Note_on_c, 0, 63, 100
2, 21581, Note_on_c, 0, 56, 113
2, 21597, Control_c, 0, 64, 127
2, 21602, Note_on_c, 0, 79, 0
2, 21617, Note_on_c, 0, 75, 113
2, 21637, Note_on_c, 0, 69, 0
2, 21641, Note_on_c, 0, 72, 0
2, 21645, Note_on_c, 0, 78, 110
2, 21658, Note_on_c, 0, 75, 0
2, 21670, Note_on_c, 0, 81, 99
2, 21675, Note_on_c, 0, 78, 0
2, 21700, Note_on_c, 0, 84, 124
2, 21700, Note_on_c, 0, 68, 111
2, 21700, Note_on_c, 0, 81, 0
2, 21713, Control_c, 0, 64, 0
2, 21731, Control_c, 0, 64, 127
2, 21733, Note_on_c, 0, 87, 121
2, 21763, Note_on_c, 0, 90, 111
2, 21768, Note_on_c, 0, 84, 0
2, 21782, Note_on_c, 0, 87, 0
2, 21788, Note_on_c, 0, 93, 110
2, 21798, Note_on_c, 0, 90, 0
2, 21818, Note_on_c, 0, 96, 109
2, 21819, Note_on_c, 0, 93, 0
2, 21825, Control_c, 0, 64, 0
2, 21841, Control_c, 0, 64, 127
2, 21848, Note_on_c, 0, 87, 118
2, 21878, Note_on_c, 0, 96, 0
2, 21881, Note_on_c, 0, 88, 115
2, 21884, Note_on_c, 0, 87, 0
2, 21886, Control_c, 0, 64, 0
2, 21898, Control_c, 0, 64, 127
2, 21908, Note_on_c, 0, 92, 110
2, 21908, Note_on_c, 0, 88, 0
2, 21925, Control_c, 0, 64, 0
2, 21938, Note_on_c, 0, 90, 102
2, 21938, Control_c, 0, 64, 127
2, 21941, Note_on_c, 0, 66, 0
2, 21941, Note_on_c, 0, 56, 0
2, 21941, Note_on_c, 0, 63, 0
2, 21944, Note_on_c, 0, 68, 0
2, 21945, Note_on_c, 0, 92, 0
2, 21960, Control_c, 0, 64, 0
2, 21967, Note_on_c, 0, 84, 104
2, 21968, Note_on_c, 0, 72, 101
2, 21975, Note_on_c, 0, 90, 0
2, 21998, Note_on_c, 0, 72, 0
2, 22001, Note_on_c, 0, 85, 119
2, 22005, Note_on_c, 0, 84, 0
2, 22030, Note_on_c, 0, 88, 106
2, 22030, Note_on_c, 0, 76, 100
2, 22032, Note_on_c, 0, 85, 0
2, 22063, Note_on_c, 0, 76, 0
2, 22065, Note_on_c, 0, 87, 124
2, 22066, Note_on_c, 0, 75, 110
2, 22068, Note_on_c, 0, 88, 0
2, 22095, Note_on_c, 0, 87, 0
2, 22096, Note_on_c, 0, 75, 0
2, 22097, Note_on_c, 0, 66, 90
2, 22098, Note_on_c, 0, 78, 104
2, 22127, Note_on_c, 0, 80, 99
2, 22127, Note_on_c, 0, 68, 88
2, 22132, Note_on_c, 0, 66, 0
2, 22134, Note_on_c, 0, 78, 0
2, 22154, Note_on_c, 0, 68, 0
2, 22157, Note_on_c, 0, 71, 86
2, 22157, Note_on_c, 0, 83, 103
2, 22157, Note_on_c, 0, 80, 0
2, 22188, Note_on_c, 0, 81, 109
2, 22188, Note_on_c, 0, 69, 103
2, 22194, Note_on_c, 0, 71, 0
2, 22196, Note_on_c, 0, 83, 0
2, 22210, Note_on_c, 0, 69, 0
2, 22218, Note_on_c, 0, 81, 0
2, 22220, Note_on_c, 0, 72, 98
2, 22221, Note_on_c, 0, 60, 91
2, 22250, Note_on_c, 0, 73, 95
2, 22250, Note_on_c, 0, 72, 0
2, 22251, Note_on_c, 0, 61, 103
2, 22251, Note_on_c, 0, 60, 0
2, 22277, Note_on_c, 0, 73, 0
2, 22280, Note_on_c, 0, 64, 99
2, 22280, Note_on_c, 0, 76, 103
2, 22280, Note_on_c, 0, 61, 0
2, 22309, Note_on_c, 0, 64, 0
2, 22310, Note_on_c, 0, 63, 113
2, 22311, Note_on_c, 0, 75, 117
2, 22316, Note_on_c, 0, 76, 0
2, 22341, Note_on_c, 0, 75, 0
2, 22341, Note_on_c, 0, 63, 0
2, 22345, Note_on_c, 0, 66, 109
2, 22345, Note_on_c, 0, 54, 98
2, 22375, Note_on_c, 0, 68, 94
2, 22375, Note_on_c, 0, 56, 94
2, 22376, Note_on_c, 0, 66, 0
2, 22378, Note_on_c, 0, 54, 0
2, 22398, Note_on_c, 0, 56, 0
2, 22402, Note_on_c, 0, 59, 92
2, 22403, Note_on_c, 0, 71, 98
2, 22403, Note_on_c, 0, 68, 0
2, 22432, Note_on_c, 0, 57, 114
2, 22432, Note_on_c, 0, 69, 114
2, 22437, Note_on_c, 0, 59, 0
2, 22438, Note_on_c, 0, 71, 0
2, 22460, Note_on_c, 0, 57, 0
2, 22462, Note_on_c, 0, 54, 98
2, 22463, Note_on_c, 0, 66, 115
2, 22467, Note_on_c, 0, 69, 0
2, 22492, Note_on_c, 0, 50, 106
2, 22492, Note_on_c, 0, 54, 0
2, 22493, Note_on_c, 0, 62, 103
2, 22493, Note_on_c, 0, 66, 0
2, 22519, Note_on_c, 0, 62, 0
2, 22522, Note_on_c, 0, 49, 99
2, 22522, Note_on_c, 0, 61, 110
2, 22522, Note_on_c, 0, 50, 0
2, 22559, Note_on_c, 0, 61, 0
2, 22559, Note_on_c, 0, 49, 0
2, 22560, Note_on_c, 0, 68, 111
2, 22560, Note_on_c, 0, 66, 111
2, 22560, Note_on_c, 0, 63, 111
2, 22560, Note_on_c, 0, 56, 122
2, 22560, Note_on_c, 0, 48, 124
2, 22560, Note_on_c, 0, 36, 126
2, 22590, Control_c, 0, 64, 127
2, 22620, Note_on_c, 0, 36, 0
2, 22620, Note_on_c, 0, 56, 0
2, 22620, Note_on_c, 0, 63, 0
2, 22620, Note_on_c, 0, 48, 0
2, 22627, Note_on_c, 0, 68, 0
2, 22627, Note_on_c, 0, 66, 0
2, 22635, Control_c, 0, 64, 0
2, 22637, Note_on_c, 0, 63, 113
2, 22659, Note_on_c, 0, 63, 0
2, 22663, Note_on_c, 0, 64, 88
2, 22688, Note_on_c, 0, 64, 0
2, 22691, Note_on_c, 0, 65, 107
2, 22714, Note_on_c, 0, 65, 0
2, 22716, Note_on_c, 0, 66, 98
2, 22738, Note_on_c, 0, 66, 0
2, 22745, Note_on_c, 0, 65, 102
2, 22770, Note_on_c, 0, 65, 0
2, 22771, Note_on_c, 0, 66, 100
2, 22795, Note_on_c, 0, 67, 103
2, 22796, Note_on_c, 0, 66, 0
2, 22822, Note_on_c, 0, 68, 90
2, 22824, Note_on_c, 0, 67, 0
2, 22850, Note_on_c, 0, 66, 89
2, 22852, Note_on_c, 0, 68, 0
2, 22879, Note_on_c, 0, 67, 86
2, 22880, Note_on_c, 0, 66, 0
2, 22908, Note_on_c, 0, 68, 102
2, 22910, Note_on_c, 0, 67, 0
2, 22938, Note_on_c, 0, 68, 0
2, 22940, Note_on_c, 0, 69, 94
2, 22965, Note_on_c, 0, 63, 99
2, 22970, Note_on_c, 0, 69, 0
2, 22989, Note_on_c, 0, 63, 0
2, 22991, Note_on_c, 0, 64, 102
2, 23001, Note_on_c, 0, 44, 92
2, 23012, Note_on_c, 0, 51, 95
2, 23015, Note_on_c, 0, 64, 0
2, 23016, Note_on_c, 0, 44, 0
2, 23020, Control_c, 0, 64, 127
2, 23021, Note_on_c, 0, 54, 102
2, 23022, Note_on_c, 0, 65, 117
2, 23025, Note_on_c, 0, 60, 118
2, 23027, Note_on_c, 0, 51, 0
2, 23029, Note_on_c, 0, 54, 0
2, 23032, Note_on_c, 0, 60, 0
2, 23050, Note_on_c, 0, 66, 109
2, 23054, Note_on_c, 0, 65, 0
2, 23055, Control_c, 0, 64, 0
2, 23080, Note_on_c, 0, 66, 0
2, 23082, Note_on_c, 0, 64, 103
2, 23111, Note_on_c, 0, 65, 100
2, 23112, Note_on_c, 0, 64, 0
2, 23137, Note_on_c, 0, 65, 0
2, 23140, Note_on_c, 0, 66, 104
2, 23173, Note_on_c, 0, 66, 0
2, 23175, Note_on_c, 0, 67, 94
2, 23198, Note_on_c, 0, 67, 0
2, 23203, Note_on_c, 0, 65, 95
2, 23233, Note_on_c, 0, 66, 98
2, 23234, Note_on_c, 0, 65, 0
2, 23263, Note_on_c, 0, 67, 102
2, 23263, Note_on_c, 0, 66, 0
2, 23298, Note_on_c, 0, 68, 84
2, 23298, Note_on_c, 0, 67, 0
2, 23323, Note_on_c, 0, 68, 0
2, 23325, Note_on_c, 0, 66, 95
2, 23351, Note_on_c, 0, 66, 0
2, 23355, Note_on_c, 0, 67, 91
2, 23385, Note_on_c, 0, 68, 106
2, 23388, Note_on_c, 0, 67, 0
2, 23420, Note_on_c, 0, 69, 97
2, 23421, Note_on_c, 0, 68, 0
2, 23445, Note_on_c, 0, 69, 0
2, 23446, Note_on_c, 0, 63, 104
2, 23471, Note_on_c, 0, 64, 112
2, 23471, Note_on_c, 0, 63, 0
2, 23475, Note_on_c, 0, 44, 103
2, 23488, Note_on_c, 0, 51, 99
2, 23500, Note_on_c, 0, 54, 93
2, 23502, Control_c, 0, 64, 127
2, 23502, Note_on_c, 0, 64, 0
2, 23505, Note_on_c, 0, 44, 0
2, 23506, Note_on_c, 0, 60, 120
2, 23506, Note_on_c, 0, 65, 127
2, 23518, Note_on_c, 0, 51, 0
2, 23531, Control_c, 0, 64, 0
2, 23534, Note_on_c, 0, 65, 0
2, 23535, Note_on_c, 0, 54, 0
2, 23536, Note_on_c, 0, 66, 118
2, 23536, Note_on_c, 0, 60, 0
2, 23570, Note_on_c, 0, 64, 106
2, 23572, Note_on_c, 0, 66, 0
2, 23602, Note_on_c, 0, 65, 109
2, 23607, Note_on_c, 0, 64, 0
2, 23632, Note_on_c, 0, 66, 122
2, 23637, Note_on_c, 0, 65, 0
2, 23668, Note_on_c, 0, 66, 0
2, 23670, Note_on_c, 0, 67, 103
2, 23693, Note_on_c, 0, 67, 0
2, 23698, Note_on_c, 0, 65, 106
2, 23727, Note_on_c, 0, 66, 114
2, 23732, Note_on_c, 0, 65, 0
2, 23760, Note_on_c, 0, 67, 114
2, 23760, Note_on_c, 0, 66, 0
2, 23790, Note_on_c, 0, 68, 107
2, 23797, Note_on_c, 0, 67, 0
2, 23818, Note_on_c, 0, 66, 116
2, 23820, Note_on_c, 0, 68, 0
2, 23850, Note_on_c, 0, 67, 103
2, 23854, Note_on_c, 0, 66, 0
2, 23881, Note_on_c, 0, 68, 120
2, 23890, Note_on_c, 0, 67, 0
2, 23915, Note_on_c, 0, 69, 106
2, 23919, Note_on_c, 0, 68, 0
2, 23935, Note_on_c, 0, 69, 0
2, 23940, Note_on_c, 0, 67, 106
2, 23970, Note_on_c, 0, 68, 113
2, 23980, Note_on_c, 0, 67, 0
2, 24001, Note_on_c, 0, 69, 124
2, 24005, Note_on_c, 0, 68, 0
2, 24032, Note_on_c, 0, 70, 108
2, 24035, Note_on_c, 0, 69, 0
2, 24058, Note_on_c, 0, 68, 113
2, 24059, Note_on_c, 0, 70, 0
2, 24090, Note_on_c, 0, 69, 118
2, 24093, Note_on_c, 0, 68, 0
2, 24117, Note_on_c, 0, 70, 126
2, 24123, Note_on_c, 0, 69, 0
2, 24148, Note_on_c, 0, 71, 108
2, 24152, Note_on_c, 0, 70, 0
2, 24171, Note_on_c, 0, 71, 0
2, 24176, Note_on_c, 0, 69, 109
2, 24205, Note_on_c, 0, 70, 111
2, 24212, Note_on_c, 0, 69, 0
2, 24232, Note_on_c, 0, 71, 119
2, 24238, Note_on_c, 0, 70, 0
2, 24263, Note_on_c, 0, 72, 100
2, 24263, Note_on_c, 0, 71, 0
2, 24290, Note_on_c, 0, 70, 106
2, 24290, Note_on_c, 0, 72, 0
2, 24321, Note_on_c, 0, 71, 108
2, 24321, Note_on_c, 0, 70, 0
2, 24347, Note_on_c, 0, 72, 123
2, 24348, Note_on_c, 0, 44, 113
2, 24352, Note_on_c, 0, 71, 0
2, 24377, Note_on_c, 0, 42, 108
2, 24377, Note_on_c, 0, 73, 121
2, 24379, Note_on_c, 0, 72, 0
2, 24381, Note_on_c, 0, 44, 0
2, 24405, Note_on_c, 0, 42, 0
2, 24408, Note_on_c, 0, 40, 106
2, 24408, Note_on_c, 0, 71, 114
2, 24413, Note_on_c, 0, 73, 0
2, 24438, Note_on_c, 0, 72, 119
2, 24438, Note_on_c, 0, 39, 113
2, 24442, Note_on_c, 0, 71, 0
2, 24446, Note_on_c, 0, 40, 0
2, 24470, Note_on_c, 0, 37, 113
2, 24471, Note_on_c, 0, 73, 125
2, 24472, Note_on_c, 0, 39, 0
2, 24474, Note_on_c, 0, 72, 0
2, 24500, Note_on_c, 0, 37, 0
2, 24502, Note_on_c, 0, 75, 107
2, 24507, Note_on_c, 0, 73, 0
2, 24527, Note_on_c, 0, 75, 0
2, 24530, Note_on_c, 0, 72, 109
2, 24560, Note_on_c, 0, 73, 113
2, 24568, Note_on_c, 0, 72, 0
2, 24590, Note_on_c, 0, 75, 113
2, 24590, Note_on_c, 0, 69, 114
2, 24590, Note_on_c, 0, 66, 120
2, 24596, Note_on_c, 0, 73, 0
2, 24620, Note_on_c, 0, 69, 0
2, 24621, Note_on_c, 0, 76, 112
2, 24622, Note_on_c, 0, 66, 0
2, 24625, Note_on_c, 0, 75, 0
2, 24649, Note_on_c, 0, 76, 0
2, 24651, Note_on_c, 0, 73, 115
2, 24680, Note_on_c, 0, 75, 109
2, 24687, Note_on_c, 0, 73, 0
2, 24710, Note_on_c, 0, 76, 120
2, 24710, Note_on_c, 0, 64, 103
2, 24711, Note_on_c, 0, 68, 98
2, 24713, Note_on_c, 0, 75, 0
2, 24740, Note_on_c, 0, 64, 0
2, 24741, Note_on_c, 0, 78, 97
2, 24741, Note_on_c, 0, 68, 0
2, 24742, Note_on_c, 0, 76, 0
2, 24766, Note_on_c, 0, 78, 0
2, 24768, Note_on_c, 0, 75, 113
2, 24800, Note_on_c, 0, 76, 113
2, 24804, Note_on_c, 0, 75, 0
2, 24830, Note_on_c, 0, 66, 102
2, 24830, Note_on_c, 0, 63, 99
2, 24830, Note_on_c, 0, 78, 111
2, 24835, Note_on_c, 0, 76, 0
2, 24855, Note_on_c, 0, 66, 0
2, 24856, Note_on_c, 0, 63, 0
2, 24860, Note_on_c, 0, 80, 102
2, 24868, Note_on_c, 0, 78, 0
2, 24883, Note_on_c, 0, 80, 0
2, 24886, Note_on_c, 0, 76, 101
2, 24913, Note_on_c, 0, 78, 103
2, 24919, Note_on_c, 0, 76, 0
2, 24947, Note_on_c, 0, 61, 104
2, 24947, Note_on_c, 0, 64, 108
2, 24948, Note_on_c, 0, 80, 116
2, 24955, Note_on_c, 0, 78, 0
2, 24975, Note_on_c, 0, 81, 112
2, 24979, Note_on_c, 0, 80, 0
2, 24989, Note_on_c, 0, 61, 0
2, 24989, Note_on_c, 0, 64, 0
2, 25001, Note_on_c, 0, 81, 0
2, 25006, Note_on_c, 0, 80, 116
2, 25037, Note_on_c, 0, 85, 113
2, 25039, Note_on_c, 0, 80, 0
2, 25065, Note_on_c, 0, 66, 110
2, 25065, Note_on_c, 0, 57, 108
2, 25065, Note_on_c, 0, 78, 125
2, 25066, Note_on_c, 0, 61, 102
2, 25077, Note_on_c, 0, 85, 0
2, 25090, Note_on_c, 0, 61, 0
2, 25095, Note_on_c, 0, 66, 0
2, 25095, Note_on_c, 0, 57, 0
2, 25097, Note_on_c, 0, 80, 100
2, 25101, Note_on_c, 0, 78, 0
2, 25119, Note_on_c, 0, 80, 0
2, 25123, Note_on_c, 0, 78, 106
2, 25152, Note_on_c, 0, 78, 0
2, 25153, Note_on_c, 0, 85, 104
2, 25183, Note_on_c, 0, 64, 100
2, 25183, Note_on_c, 0, 56, 99
2, 25183, Note_on_c, 0, 76, 115
2, 25183, Note_on_c, 0, 61, 100
2, 25191, Note_on_c, 0, 85, 0
2, 25208, Note_on_c, 0, 61, 0
2, 25212, Note_on_c, 0, 78, 98
2, 25213, Note_on_c, 0, 64, 0
2, 25213, Note_on_c, 0, 56, 0
2, 25215, Note_on_c, 0, 76, 0
2, 25240, Note_on_c, 0, 78, 0
2, 25241, Note_on_c, 0, 76, 101
2, 25269, Note_on_c, 0, 76, 0
2, 25270, Note_on_c, 0, 85, 104
2, 25301, Note_on_c, 0, 75, 114
2, 25301, Note_on_c, 0, 63, 103
2, 25302, Note_on_c, 0, 61, 101
2, 25302, Note_on_c, 0, 54, 99
2, 25313, Note_on_c, 0, 85, 0
2, 25328, Note_on_c, 0, 76, 103
2, 25328, Note_on_c, 0, 75, 0
2, 25331, Note_on_c, 0, 63, 0
2, 25332, Note_on_c, 0, 61, 0
2, 25332, Note_on_c, 0, 54, 0
2, 25356, Note_on_c, 0, 76, 0
2, 25358, Note_on_c, 0, 75, 117
2, 25388, Note_on_c, 0, 85, 108
2, 25389, Note_on_c, 0, 75, 0
2, 25417, Control_c, 0, 64, 127
2, 25420, Note_on_c, 0, 85, 0
2, 25426, Note_on_c, 0, 73, 119
2, 25426, Note_on_c, 0, 64, 120
2, 25426, Note_on_c, 0, 56, 103
2, 25426, Note_on_c, 0, 49, 95
2, 25448, Control_c, 0, 64, 0
2, 25458, Note_on_c, 0, 80, 102
2, 25469, Note_on_c, 0, 64, 0
2, 25478, Note_on_c, 0, 56, 0
2, 25486, Note_on_c, 0, 73, 0
2, 25486, Note_on_c, 0, 49, 0
2, 25487, Note_on_c, 0, 88, 109
2, 25514, Note_on_c, 0, 80, 0
2, 25515, Note_on_c, 0, 81, 102
2, 25517, Note_on_c, 0, 88, 0
2, 25540, Note_on_c, 0, 81, 0
2, 25543, Note_on_c, 0, 72, 109
2, 25543, Note_on_c, 0, 60, 120
2, 25543, Note_on_c, 0, 54, 98
2, 25543, Note_on_c, 0, 44, 102
2, 25545, Control_c, 0, 64, 127
2, 25563, Control_c, 0, 64, 0
2, 25572, Note_on_c, 0, 78, 102
2, 25573, Note_on_c, 0, 44, 0
2, 25573, Note_on_c, 0, 54, 0
2, 25573, Note_on_c, 0, 60, 0
2, 25576, Note_on_c, 0, 72, 0
2, 25601, Note_on_c, 0, 87, 104
2, 25627, Note_on_c, 0, 78, 0
2, 25628, Note_on_c, 0, 80, 91
2, 25631, Note_on_c, 0, 87, 0
2, 25657, Note_on_c, 0, 52, 111
2, 25657, Note_on_c, 0, 49, 112
2, 25657, Note_on_c, 0, 61, 118
2, 25657, Note_on_c, 0, 68, 116
2, 25660, Control_c, 0, 64, 127
2, 25661, Note_on_c, 0, 80, 0
2, 25687, Note_on_c, 0, 76, 104
2, 25687, Note_on_c, 0, 61, 0
2, 25687, Note_on_c, 0, 68, 0
2, 25687, Note_on_c, 0, 52, 0
2, 25687, Note_on_c, 0, 49, 0
2, 25691, Control_c, 0, 64, 0
2, 25716, Note_on_c, 0, 85, 107
2, 25732, Note_on_c, 0, 76, 0
2, 25746, Note_on_c, 0, 85, 0
2, 25748, Note_on_c, 0, 78, 95
2, 25777, Note_on_c, 0, 68, 107
2, 25777, Note_on_c, 0, 44, 124
2, 25777, Note_on_c, 0, 56, 114
2, 25781, Control_c, 0, 64, 127
2, 25783, Note_on_c, 0, 78, 0
2, 25807, Note_on_c, 0, 56, 0
2, 25807, Note_on_c, 0, 44, 0
2, 25811, Note_on_c, 0, 75, 97
2, 25815, Control_c, 0, 64, 0
2, 25815, Note_on_c, 0, 68, 0
2, 25841, Note_on_c, 0, 75, 0
2, 25842, Note_on_c, 0, 84, 103
2, 25871, Note_on_c, 0, 76, 101
2, 25872, Note_on_c, 0, 84, 0
2, 25900, Note_on_c, 0, 85, 121
2, 25900, Note_on_c, 0, 49, 116
2, 25900, Note_on_c, 0, 37, 121
2, 25901, Note_on_c, 0, 73, 120
2, 25901, Note_on_c, 0, 76, 0
2, 25903, Control_c, 0, 64, 127
2, 25960, Note_on_c, 0, 37, 0
2, 25960, Note_on_c, 0, 85, 0
2, 25960, Note_on_c, 0, 49, 0
2, 25962, Control_c, 0, 64, 0
2, 25965, Note_on_c, 0, 69, 122
2, 25965, Note_on_c, 0, 57, 120
2, 25965, Note_on_c, 0, 45, 119
2, 25995, Note_on_c, 0, 45, 0
2, 25995, Note_on_c, 0, 57, 0
2, 25995, Note_on_c, 0, 69, 0
2, 25997, Note_on_c, 0, 81, 99
2, 26021, Note_on_c, 0, 73, 0
2, 26025, Note_on_c, 0, 68, 127
2, 26027, Note_on_c, 0, 56, 121
2, 26027, Note_on_c, 0, 81, 0
2, 26028, Note_on_c, 0, 44, 127
2, 26056, Note_on_c, 0, 80, 116
2, 26057, Note_on_c, 0, 44, 0
2, 26062, Note_on_c, 0, 56, 0
2, 26072, Note_on_c, 0, 68, 0
2, 26086, Note_on_c, 0, 80, 0
2, 26087, Note_on_c, 0, 67, 118
2, 26088, Note_on_c, 0, 43, 110
2, 26088, Note_on_c, 0, 55, 109
2, 26118, Note_on_c, 0, 79, 96
2, 26118, Note_on_c, 0, 55, 0
2, 26118, Note_on_c, 0, 43, 0
2, 26120, Note_on_c, 0, 67, 0
2, 26148, Note_on_c, 0, 79, 0
2, 26152, Note_on_c, 0, 68, 119
2, 26152, Note_on_c, 0, 56, 119
2, 26152, Note_on_c, 0, 44, 124
2, 26165, Control_c, 0, 64, 127
2, 26181, Note_on_c, 0, 80, 117
2, 26182, Note_on_c, 0, 44, 0
2, 26182, Note_on_c, 0, 56, 0
2, 26189, Note_on_c, 0, 68, 0
2, 26211, Note_on_c, 0, 80, 0
2, 26213, Note_on_c, 0, 49, 119
2, 26213, Note_on_c, 0, 37, 112
2, 26215, Note_on_c, 0, 61, 121
2, 26220, Control_c, 0, 64, 0
2, 26243, Note_on_c, 0, 73, 104
2, 26243, Note_on_c, 0, 37, 0
2, 26243, Note_on_c, 0, 49, 0
2, 26244, Note_on_c, 0, 61, 0
2, 26273, Note_on_c, 0, 73, 0
2, 26277, Note_on_c, 0, 75, 119
2, 26278, Note_on_c, 0, 61, 113
2, 26278, Note_on_c, 0, 51, 119
2, 26278, Note_on_c, 0, 63, 116
2, 26280, Note_on_c, 0, 67, 106
2, 26280, Note_on_c, 0, 70, 101
2, 26285, Control_c, 0, 64, 127
2, 26308, Note_on_c, 0, 49, 101
2, 26312, Control_c, 0, 64, 0
2, 26312, Note_on_c, 0, 51, 0
2, 26333, Note_on_c, 0, 49, 0
2, 26335, Note_on_c, 0, 67, 0
2, 26337, Note_on_c, 0, 47, 106
2, 26337, Note_on_c, 0, 75, 0
2, 26337, Note_on_c, 0, 70, 0
2, 26339, Note_on_c, 0, 63, 0
2, 26346, Note_on_c, 0, 61, 0
2, 26367, Note_on_c, 0, 46, 109
2, 26367, Note_on_c, 0, 47, 0
2, 26397, Note_on_c, 0, 44, 101
2, 26397, Note_on_c, 0, 68, 108
2, 26397, Note_on_c, 0, 71, 106
2, 26397, Note_on_c, 0, 59, 110
2, 26398, Note_on_c, 0, 63, 109
2, 26398, Note_on_c, 0, 46, 0
2, 26414, Note_on_c, 0, 59, 0
2, 26419, Note_on_c, 0, 71, 0
2, 26423, Note_on_c, 0, 68, 0
2, 26425, Note_on_c, 0, 44, 0
2, 26427, Note_on_c, 0, 46, 106
2, 26428, Note_on_c, 0, 63, 0
2, 26450, Note_on_c, 0, 46, 0
2, 26458, Note_on_c, 0, 43, 101
2, 26485, Note_on_c, 0, 44, 106
2, 26486, Note_on_c, 0, 43, 0
2, 26515, Note_on_c, 0, 61, 110
2, 26515, Note_on_c, 0, 44, 0
2, 26516, Note_on_c, 0, 63, 104
2, 26517, Note_on_c, 0, 67, 108
2, 26517, Note_on_c, 0, 46, 104
2, 26542, Note_on_c, 0, 46, 0
2, 26546, Note_on_c, 0, 47, 98
2, 26574, Note_on_c, 0, 47, 0
2, 26575, Note_on_c, 0, 44, 102
2, 26575, Note_on_c, 0, 61, 0
2, 26576, Note_on_c, 0, 63, 0
2, 26577, Note_on_c, 0, 67, 0
2, 26603, Note_on_c, 0, 46, 91
2, 26605, Note_on_c, 0, 44, 0
2, 26628, Note_on_c, 0, 46, 0
2, 26632, Note_on_c, 0, 47, 98
2, 26632, Note_on_c, 0, 68, 103
2, 26633, Note_on_c, 0, 59, 105
2, 26633, Note_on_c, 0, 63, 106
2, 26657, Note_on_c, 0, 47, 0
2, 26662, Note_on_c, 0, 49, 94
2, 26690, Note_on_c, 0, 46, 103
2, 26692, Note_on_c, 0, 49, 0
2, 26692, Note_on_c, 0, 68, 0
2, 26693, Note_on_c, 0, 63, 0
2, 26693, Note_on_c, 0, 59, 0
2, 26713, Note_on_c, 0, 46, 0
2, 26720, Note_on_c, 0, 47, 90
2, 26746, Note_on_c, 0, 47, 0
2, 26747, Note_on_c, 0, 68, 107
2, 26748, Note_on_c, 0, 61, 107
2, 26748, Note_on_c, 0, 64, 108
2, 26750, Note_on_c, 0, 49, 98
2, 26777, Note_on_c, 0, 51, 98
2, 26778, Note_on_c, 0, 49, 0
2, 26807, Note_on_c, 0, 68, 0
2, 26808, Note_on_c, 0, 61, 0
2, 26808, Note_on_c, 0, 64, 0
2, 26810, Note_on_c, 0, 47, 98
2, 26810, Note_on_c, 0, 51, 0
2, 26833, Note_on_c, 0, 47, 0
2, 26835, Note_on_c, 0, 49, 99
2, 26865, Note_on_c, 0, 51, 109
2, 26866, Note_on_c, 0, 68, 113
2, 26867, Note_on_c, 0, 59, 111
2, 26867, Note_on_c, 0, 63, 111
2, 26872, Note_on_c, 0, 49, 0
2, 26895, Note_on_c, 0, 52, 104
2, 26895, Note_on_c, 0, 51, 0
2, 26917, Note_on_c, 0, 52, 0
2, 26925, Note_on_c, 0, 51, 102
2, 26927, Note_on_c, 0, 59, 0
2, 26939, Note_on_c, 0, 63, 0
2, 26939, Note_on_c, 0, 68, 0
2, 26950, Note_on_c, 0, 51, 0
2, 26953, Note_on_c, 0, 56, 94
2, 26979, Note_on_c, 0, 56, 0
2, 26981, Note_on_c, 0, 68, 110
2, 26981, Note_on_c, 0, 64, 111
2, 26981, Note_on_c, 0, 61, 110
2, 26981, Note_on_c, 0, 49, 109
2, 27007, Note_on_c, 0, 49, 0
2, 27011, Note_on_c, 0, 51, 93
2, 27037, Note_on_c, 0, 51, 0
2, 27041, Note_on_c, 0, 61, 0
2, 27041, Note_on_c, 0, 64, 0
2, 27041, Note_on_c, 0, 68, 0
2, 27043, Note_on_c, 0, 49, 89
2, 27070, Note_on_c, 0, 49, 0
2, 27071, Note_on_c, 0, 56, 95
2, 27091, Note_on_c, 0, 56, 0
2, 27100, Note_on_c, 0, 63, 117
2, 27100, Note_on_c, 0, 68, 112
2, 27101, Note_on_c, 0, 47, 113
2, 27130, Note_on_c, 0, 49, 100
2, 27130, Note_on_c, 0, 47, 0
2, 27160, Note_on_c, 0, 63, 0
2, 27160, Note_on_c, 0, 68, 0
2, 27160, Note_on_c, 0, 49, 0
2, 27162, Note_on_c, 0, 47, 89
2, 27184, Note_on_c, 0, 47, 0
2, 27192, Note_on_c, 0, 56, 90
2, 27213, Note_on_c, 0, 56, 0
2, 27220, Note_on_c, 0, 63, 102
2, 27220, Note_on_c, 0, 61, 103
2, 27220, Note_on_c, 0, 70, 108
2, 27221, Note_on_c, 0, 46, 104
2, 27246, Note_on_c, 0, 47, 98
2, 27246, Note_on_c, 0, 46, 0
2, 27276, Note_on_c, 0, 46, 92
2, 27280, Note_on_c, 0, 70, 0
2, 27280, Note_on_c, 0, 63, 0
2, 27280, Note_on_c, 0, 61, 0
2, 27282, Note_on_c, 0, 47, 0
2, 27300, Note_on_c, 0, 46, 0
2, 27303, Note_on_c, 0, 55, 97
2, 27332, Note_on_c, 0, 55, 0
2, 27335, Note_on_c, 0, 63, 103
2, 27335, Note_on_c, 0, 68, 100
2, 27335, Note_on_c, 0, 59, 104
2, 27335, Note_on_c, 0, 44, 117
2, 27337, Note_on_c, 0, 71, 107
2, 27368, Note_on_c, 0, 52, 106
2, 27370, Note_on_c, 0, 44, 0
2, 27375, Note_on_c, 0, 59, 0
2, 27390, Note_on_c, 0, 68, 0
2, 27393, Note_on_c, 0, 52, 0
2, 27395, Note_on_c, 0, 59, 96
2, 27395, Note_on_c, 0, 63, 0
2, 27397, Note_on_c, 0, 71, 0
2, 27425, Note_on_c, 0, 51, 101
2, 27428, Note_on_c, 0, 59, 0
2, 27448, Note_on_c, 0, 51, 0
2, 27453, Note_on_c, 0, 87, 124
2, 27453, Note_on_c, 0, 75, 122
2, 27453, Note_on_c, 0, 82, 119
2, 27455, Note_on_c, 0, 43, 111
2, 27482, Note_on_c, 0, 43, 0
2, 27485, Note_on_c, 0, 52, 103
2, 27515, Note_on_c, 0, 58, 88
2, 27515, Note_on_c, 0, 52, 0
2, 27542, Note_on_c, 0, 51, 108
2, 27543, Note_on_c, 0, 87, 0
2, 27543, Note_on_c, 0, 82, 0
2, 27543, Note_on_c, 0, 75, 0
2, 27552, Note_on_c, 0, 58, 0
2, 27567, Note_on_c, 0, 51, 0
2, 27570, Note_on_c, 0, 83, 114
2, 27570, Note_on_c, 0, 75, 103
2, 27572, Note_on_c, 0, 44, 123
2, 27572, Note_on_c, 0, 80, 89
2, 27602, Note_on_c, 0, 52, 108
2, 27602, Note_on_c, 0, 44, 0
2, 27627, Note_on_c, 0, 52, 0
2, 27630, Note_on_c, 0, 59, 96
2, 27660, Note_on_c, 0, 51, 103
2, 27660, Note_on_c, 0, 83, 0
2, 27660, Note_on_c, 0, 75, 0
2, 27661, Note_on_c, 0, 59, 0
2, 27662, Note_on_c, 0, 80, 0
2, 27685, Note_on_c, 0, 51, 0
2, 27690, Note_on_c, 0, 75, 122
2, 27690, Note_on_c, 0, 63, 126
2, 27691, Note_on_c, 0, 70, 118
2, 27692, Note_on_c, 0, 43, 109
2, 27712, Note_on_c, 0, 43, 0
2, 27718, Note_on_c, 0, 52, 104
2, 27747, Note_on_c, 0, 52, 0
2, 27750, Note_on_c, 0, 58, 77
2, 27778, Note_on_c, 0, 51, 82
2, 27780, Note_on_c, 0, 58, 0
2, 27795, Note_on_c, 0, 63, 0
2, 27795, Note_on_c, 0, 75, 0
2, 27803, Note_on_c, 0, 70, 0
2, 27808, Note_on_c, 0, 51, 0
2, 27813, Note_on_c, 0, 71, 106
2, 27815, Note_on_c, 0, 63, 101
2, 27815, Note_on_c, 0, 44, 109
2, 27815, Note_on_c, 0, 56, 103
2, 27869, Note_on_c, 0, 71, 0
2, 27870, Note_on_c, 0, 63, 0
2, 27874, Note_on_c, 0, 44, 0
2, 27874, Note_on_c, 0, 56, 0
2, 27877, Note_on_c, 0, 64, 94
2, 27880, Note_on_c, 0, 61, 88
2, 27910, Note_on_c, 0, 67, 95
2, 27915, Note_on_c, 0, 64, 0
2, 27933, Note_on_c, 0, 61, 0
2, 27940, Note_on_c, 0, 63, 116
2, 27940, Note_on_c, 0, 59, 99
2, 27946, Note_on_c, 0, 67, 0
2, 27970, Note_on_c, 0, 68, 91
2, 27970, Note_on_c, 0, 59, 0
2, 27975, Note_on_c, 0, 63, 0
2, 27993, Note_on_c, 0, 68, 0
2, 28000, Note_on_c, 0, 64, 98
2, 28000, Note_on_c, 0, 67, 101
2, 28027, Note_on_c, 0, 70, 91
2, 28040, Note_on_c, 0, 67, 0
2, 28042, Note_on_c, 0, 64, 0
2, 28052, Note_on_c, 0, 63, 93
2, 28055, Note_on_c, 0, 66, 99
2, 28067, Note_on_c, 0, 70, 0
2, 28082, Note_on_c, 0, 63, 0
2, 28086, Note_on_c, 0, 71, 90
2, 28090, Note_on_c, 0, 66, 0
2, 28108, Note_on_c, 0, 71, 0
2, 28117, Note_on_c, 0, 69, 104
2, 28117, Note_on_c, 0, 66, 90
2, 28146, Note_on_c, 0, 72, 94
2, 28157, Note_on_c, 0, 69, 0
2, 28173, Note_on_c, 0, 64, 97
2, 28173, Note_on_c, 0, 68, 99
2, 28174, Note_on_c, 0, 66, 0
2, 28177, Note_on_c, 0, 72, 0
2, 28203, Note_on_c, 0, 73, 92
2, 28203, Note_on_c, 0, 64, 0
2, 28206, Note_on_c, 0, 68, 0
2, 28225, Note_on_c, 0, 73, 0
2, 28232, Note_on_c, 0, 66, 85
2, 28232, Note_on_c, 0, 72, 102
2, 28235, Note_on_c, 0, 56, 75
2, 28235, Note_on_c, 0, 63, 74
2, 28262, Note_on_c, 0, 75, 99
2, 28262, Note_on_c, 0, 66, 0
2, 28267, Note_on_c, 0, 72, 0
2, 28286, Note_on_c, 0, 63, 0
2, 28292, Note_on_c, 0, 61, 88
2, 28292, Note_on_c, 0, 73, 106
2, 28293, Note_on_c, 0, 64, 90
2, 28295, Note_on_c, 0, 56, 0
2, 28300, Note_on_c, 0, 75, 0
2, 28325, Note_on_c, 0, 75, 103
2, 28342, Note_on_c, 0, 73, 0
2, 28349, Note_on_c, 0, 64, 0
2, 28349, Note_on_c, 0, 61, 0
2, 28355, Note_on_c, 0, 72, 101
2, 28360, Note_on_c, 0, 75, 0
2, 28388, Note_on_c, 0, 73, 100
2, 28399, Note_on_c, 0, 72, 0
2, 28420, Note_on_c, 0, 69, 85
2, 28420, Note_on_c, 0, 75, 102
2, 28420, Note_on_c, 0, 66, 83
2, 28425, Note_on_c, 0, 73, 0
2, 28450, Note_on_c, 0, 69, 0
2, 28451, Note_on_c, 0, 66, 0
2, 28452, Note_on_c, 0, 76, 107
2, 28456, Note_on_c, 0, 75, 0
2, 28475, Note_on_c, 0, 76, 0
2, 28477, Note_on_c, 0, 73, 101
2, 28508, Note_on_c, 0, 75, 95
2, 28517, Note_on_c, 0, 73, 0
2, 28540, Note_on_c, 0, 64, 83
2, 28540, Note_on_c, 0, 68, 74
2, 28540, Note_on_c, 0, 76, 110
2, 28541, Note_on_c, 0, 75, 0
2, 28570, Note_on_c, 0, 78, 91
2, 28570, Note_on_c, 0, 64, 0
2, 28570, Note_on_c, 0, 68, 0
2, 28573, Note_on_c, 0, 76, 0
2, 28595, Note_on_c, 0, 78, 0
2, 28597, Note_on_c, 0, 75, 94
2, 28628, Note_on_c, 0, 76, 103
2, 28634, Note_on_c, 0, 75, 0
2, 28661, Note_on_c, 0, 66, 84
2, 28662, Note_on_c, 0, 63, 81
2, 28662, Note_on_c, 0, 78, 101
2, 28665, Note_on_c, 0, 76, 0
2, 28687, Note_on_c, 0, 63, 0
2, 28691, Note_on_c, 0, 66, 0
2, 28692, Note_on_c, 0, 80, 98
2, 28695, Note_on_c, 0, 78, 0
2, 28715, Note_on_c, 0, 80, 0
2, 28718, Note_on_c, 0, 76, 99
2, 28748, Note_on_c, 0, 78, 106
2, 28756, Note_on_c, 0, 76, 0
2, 28780, Note_on_c, 0, 61, 90
2, 28780, Note_on_c, 0, 64, 92
2, 28781, Note_on_c, 0, 80, 113
2, 28788, Note_on_c, 0, 78, 0
2, 28796, Note_on_c, 0, 64, 0
2, 28799, Note_on_c, 0, 61, 0
2, 28810, Note_on_c, 0, 81, 106
2, 28814, Note_on_c, 0, 80, 0
2, 28836, Note_on_c, 0, 81, 0
2, 28840, Note_on_c, 0, 80, 120
2, 28871, Note_on_c, 0, 85, 114
2, 28873, Note_on_c, 0, 80, 0
2, 28900, Note_on_c, 0, 78, 117
2, 28900, Note_on_c, 0, 66, 90
2, 28900, Note_on_c, 0, 61, 88
2, 28900, Note_on_c, 0, 57, 91
2, 28923, Note_on_c, 0, 85, 0
2, 28928, Note_on_c, 0, 61, 0
2, 28930, Note_on_c, 0, 57, 0
2, 28930, Note_on_c, 0, 66, 0
2, 28931, Note_on_c, 0, 80, 106
2, 28935, Note_on_c, 0, 78, 0
2, 28960, Note_on_c, 0, 78, 109
2, 28967, Note_on_c, 0, 80, 0
2, 28990, Note_on_c, 0, 85, 108
2, 28990, Note_on_c, 0, 78, 0
2, 29022, Note_on_c, 0, 76, 114
2, 29022, Note_on_c, 0, 56, 95
2, 29022, Note_on_c, 0, 64, 98
2, 29023, Note_on_c, 0, 61, 91
2, 29042, Note_on_c, 0, 85, 0
2, 29050, Note_on_c, 0, 78, 103
2, 29057, Note_on_c, 0, 76, 0
2, 29081, Note_on_c, 0, 76, 111
2, 29081, Note_on_c, 0, 64, 0
2, 29081, Note_on_c, 0, 78, 0
2, 29081, Note_on_c, 0, 56, 0
2, 29082, Note_on_c, 0, 61, 0
2, 29110, Note_on_c, 0, 76, 0
2, 29112, Note_on_c, 0, 85, 109
2, 29142, Note_on_c, 0, 75, 117
2, 29143, Note_on_c, 0, 63, 97
2, 29143, Note_on_c, 0, 54, 92
2, 29143, Note_on_c, 0, 61, 90
2, 29169, Note_on_c, 0, 75, 0
2, 29172, Note_on_c, 0, 76, 95
2, 29183, Note_on_c, 0, 85, 0
2, 29198, Note_on_c, 0, 76, 0
2, 29201, Note_on_c, 0, 75, 116
2, 29202, Note_on_c, 0, 54, 0
2, 29202, Note_on_c, 0, 61, 0
2, 29202, Note_on_c, 0, 63, 0
2, 29233, Note_on_c, 0, 85, 112
2, 29237, Note_on_c, 0, 75, 0
2, 29260, Control_c, 0, 64, 127
2, 29265, Note_on_c, 0, 49, 91
2, 29265, Note_on_c, 0, 56, 104
2, 29267, Note_on_c, 0, 64, 122
2, 29268, Note_on_c, 0, 73, 119
2, 29293, Control_c, 0, 64, 0
2, 29298, Note_on_c, 0, 80, 102
2, 29310, Note_on_c, 0, 56, 0
2, 29310, Note_on_c, 0, 49, 0
2, 29317, Note_on_c, 0, 64, 0
2, 29317, Note_on_c, 0, 73, 0
2, 29320, Note_on_c, 0, 85, 0
2, 29327, Note_on_c, 0, 88, 108
2, 29328, Note_on_c, 0, 80, 0
2, 29356, Note_on_c, 0, 81, 101
2, 29357, Note_on_c, 0, 88, 0
2, 29386, Control_c, 0, 64, 127
2, 29386, Note_on_c, 0, 81, 0
2, 29387, Note_on_c, 0, 54, 103
2, 29387, Note_on_c, 0, 45, 118
2, 29388, Note_on_c, 0, 63, 116
2, 29390, Note_on_c, 0, 72, 106
2, 29420, Note_on_c, 0, 78, 100
2, 29433, Control_c, 0, 64, 0
2, 29447, Note_on_c, 0, 45, 0
2, 29447, Note_on_c, 0, 54, 0
2, 29448, Note_on_c, 0, 87, 109
2, 29448, Note_on_c, 0, 63, 0
2, 29450, Note_on_c, 0, 72, 0
2, 29475, Note_on_c, 0, 80, 100
2, 29480, Note_on_c, 0, 78, 0
2, 29505, Note_on_c, 0, 45, 113
2, 29505, Note_on_c, 0, 52, 105
2, 29505, Note_on_c, 0, 80, 0
2, 29507, Control_c, 0, 64, 127
2, 29508, Note_on_c, 0, 69, 113
2, 29508, Note_on_c, 0, 61, 127
2, 29508, Note_on_c, 0, 87, 0
2, 29540, Note_on_c, 0, 75, 103
2, 29550, Control_c, 0, 64, 0
2, 29568, Note_on_c, 0, 85, 111
2, 29568, Note_on_c, 0, 69, 0
2, 29568, Note_on_c, 0, 61, 0
2, 29572, Note_on_c, 0, 52, 0
2, 29580, Note_on_c, 0, 45, 0
2, 29587, Note_on_c, 0, 75, 0
2, 29595, Note_on_c, 0, 76, 99
2, 29625, Note_on_c, 0, 76, 0
2, 29626, Note_on_c, 0, 62, 108
2, 29627, Note_on_c, 0, 65, 111
2, 29627, Note_on_c, 0, 53, 114
2, 29627, Note_on_c, 0, 68, 117
2, 29628, Note_on_c, 0, 59, 104
2, 29628, Note_on_c, 0, 85, 0
2, 29633, Control_c, 0, 64, 127
2, 29655, Note_on_c, 0, 73, 103
2, 29668, Note_on_c, 0, 53, 0
2, 29685, Note_on_c, 0, 73, 0
2, 29686, Note_on_c, 0, 62, 0
2, 29687, Note_on_c, 0, 83, 104
2, 29687, Note_on_c, 0, 68, 0
2, 29687, Note_on_c, 0, 65, 0
2, 29688, Note_on_c, 0, 59, 0
2, 29690, Control_c, 0, 64, 0
2, 29717, Note_on_c, 0, 74, 106
2, 29744, Note_on_c, 0, 74, 0
2, 29747, Note_on_c, 0, 83, 0
2, 29748, Note_on_c, 0, 69, 119
2, 29750, Note_on_c, 0, 66, 121
2, 29750, Note_on_c, 0, 54, 125
2, 29751, Note_on_c, 0, 61, 113
2, 29777, Note_on_c, 0, 73, 107
2, 29789, Note_on_c, 0, 61, 0
2, 29790, Note_on_c, 0, 54, 0
2, 29790, Note_on_c, 0, 66, 0
2, 29805, Note_on_c, 0, 81, 115
2, 29805, Note_on_c, 0, 50, 113
2, 29805, Note_on_c, 0, 62, 80
2, 29808, Note_on_c, 0, 69, 0
2, 29822, Note_on_c, 0, 73, 0
2, 29832, Note_on_c, 0, 78, 106
2, 29834, Note_on_c, 0, 81, 0
2, 29835, Note_on_c, 0, 62, 0
2, 29835, Note_on_c, 0, 50, 0
2, 29853, Note_on_c, 0, 78, 0
2, 29860, Note_on_c, 0, 81, 118
2, 29861, Note_on_c, 0, 61, 107
2, 29862, Note_on_c, 0, 49, 119
2, 29890, Note_on_c, 0, 85, 107
2, 29891, Note_on_c, 0, 61, 0
2, 29892, Note_on_c, 0, 49, 0
2, 29915, Note_on_c, 0, 45, 116
2, 29915, Note_on_c, 0, 57, 108
2, 29917, Note_on_c, 0, 93, 125
2, 29920, Note_on_c, 0, 85, 0
2, 29930, Note_on_c, 0, 81, 0
2, 29942, Note_on_c, 0, 90, 108
2, 29945, Note_on_c, 0, 57, 0
2, 29945, Note_on_c, 0, 45, 0
2, 29970, Note_on_c, 0, 54, 111
2, 29971, Note_on_c, 0, 42, 116
2, 29973, Note_on_c, 0, 85, 112
2, 29977, Note_on_c, 0, 93, 0
2, 29977, Note_on_c, 0, 90, 0
2, 29997, Note_on_c, 0, 81, 89
2, 30000, Note_on_c, 0, 54, 0
2, 30001, Note_on_c, 0, 42, 0
2, 30003, Note_on_c, 0, 85, 0
2, 30025, Note_on_c, 0, 37, 108
2, 30025, Note_on_c, 0, 49, 106
2, 30026, Note_on_c, 0, 78, 100
2, 30027, Note_on_c, 0, 81, 0
2, 30055, Note_on_c, 0, 37, 0
2, 30055, Note_on_c, 0, 49, 0
2, 30057, Note_on_c, 0, 73, 97
2, 30065, Note_on_c, 0, 78, 0
2, 30085, Note_on_c, 0, 73, 0
2, 30088, Note_on_c, 0, 50, 126
2, 30088, Note_on_c, 0, 38, 122
2, 30088, Note_on_c, 0, 69, 109
2, 30118, Note_on_c, 0, 69, 0
2, 30125, Note_on_c, 0, 66, 97
2, 30156, Note_on_c, 0, 50, 0
2, 30158, Note_on_c, 0, 62, 96
2, 30183, Note_on_c, 0, 57, 104
2, 30188, Note_on_c, 0, 62, 0
2, 30194, Note_on_c, 0, 57, 0
2, 30205, Note_on_c, 0, 66, 0
2, 30216, Note_on_c, 0, 38, 0
2, 30218, Note_on_c, 0, 41, 100
2, 30220, Note_on_c, 0, 62, 99
2, 30220, Note_on_c, 0, 68, 111
2, 30221, Note_on_c, 0, 59, 103
2, 30243, Note_on_c, 0, 41, 0
2, 30247, Note_on_c, 0, 42, 94
2, 30272, Note_on_c, 0, 42, 0
2, 30277, Note_on_c, 0, 40, 95
2, 30307, Note_on_c, 0, 41, 94
2, 30309, Note_on_c, 0, 40, 0
2, 30341, Note_on_c, 0, 42, 103
2, 30342, Note_on_c, 0, 66, 108
2, 30342, Note_on_c, 0, 41, 0
2, 30351, Note_on_c, 0, 68, 0
2, 30369, Note_on_c, 0, 42, 0
2, 30370, Note_on_c, 0, 44, 97
2, 30401, Note_on_c, 0, 41, 98
2, 30401, Note_on_c, 0, 44, 0
2, 30427, Note_on_c, 0, 41, 0
2, 30430, Note_on_c, 0, 42, 95
2, 30458, Note_on_c, 0, 42, 0
2, 30460, Note_on_c, 0, 65, 106
2, 30460, Note_on_c, 0, 44, 102
2, 30462, Note_on_c, 0, 66, 0
2, 30487, Note_on_c, 0, 44, 0
2, 30490, Note_on_c, 0, 45, 96
2, 30520, Note_on_c, 0, 42, 91
2, 30520, Note_on_c, 0, 45, 0
2, 30549, Note_on_c, 0, 59, 0
2, 30550, Note_on_c, 0, 44, 98
2, 30550, Note_on_c, 0, 42, 0
2, 30554, Note_on_c, 0, 62, 0
2, 30576, Note_on_c, 0, 44, 0
2, 30578, Note_on_c, 0, 65, 0
2, 30580, Note_on_c, 0, 66, 102
2, 30581, Note_on_c, 0, 45, 101
2, 30582, Note_on_c, 0, 62, 92
2, 30582, Note_on_c, 0, 57, 87
2, 30610, Note_on_c, 0, 45, 0
2, 30611, Note_on_c, 0, 47, 87
2, 30643, Note_on_c, 0, 45, 104
2, 30644, Note_on_c, 0, 47, 0
2, 30668, Note_on_c, 0, 45, 0
2, 30672, Note_on_c, 0, 47, 93
2, 30685, Note_on_c, 0, 66, 0
2, 30687, Note_on_c, 0, 57, 0
2, 30687, Note_on_c, 0, 62, 0
2, 30700, Note_on_c, 0, 47, 0
2, 30705, Note_on_c, 0, 41, 102
2, 30706, Note_on_c, 0, 59, 108
2, 30706, Note_on_c, 0, 68, 115
2, 30707, Note_on_c, 0, 62, 107
2, 30734, Note_on_c, 0, 41, 0
2, 30738, Note_on_c, 0, 42, 99
2, 30766, Note_on_c, 0, 42, 0
2, 30768, Note_on_c, 0, 40, 93
2, 30794, Note_on_c, 0, 40, 0
2, 30797, Note_on_c, 0, 41, 97
2, 30827, Note_on_c, 0, 41, 0
2, 30830, Note_on_c, 0, 66, 111
2, 30831, Note_on_c, 0, 42, 97
2, 30856, Note_on_c, 0, 68, 0
2, 30860, Note_on_c, 0, 42, 0
2, 30861, Note_on_c, 0, 44, 91
2, 30887, Note_on_c, 0, 44, 0
2, 30890, Note_on_c, 0, 41, 94
2, 30913, Note_on_c, 0, 41, 0
2, 30920, Note_on_c, 0, 42, 88
2, 30947, Note_on_c, 0, 66, 0
2, 30948, Note_on_c, 0, 44, 91
2, 30948, Note_on_c, 0, 65, 101
2, 30948, Note_on_c, 0, 42, 0
2, 30973, Note_on_c, 0, 44, 0
2, 30975, Note_on_c, 0, 45, 94
2, 31005, Note_on_c, 0, 45, 0
2, 31007, Note_on_c, 0, 42, 86
2, 31037, Note_on_c, 0, 62, 0
2, 31040, Note_on_c, 0, 44, 80
2, 31049, Note_on_c, 0, 42, 0
2, 31064, Note_on_c, 0, 44, 0
2, 31067, Note_on_c, 0, 45, 99
2, 31067, Note_on_c, 0, 66, 101
2, 31068, Note_on_c, 0, 61, 92
2, 31068, Note_on_c, 0, 65, 0
2, 31094, Note_on_c, 0, 45, 0
2, 31097, Note_on_c, 0, 47, 92
2, 31125, Note_on_c, 0, 47, 0
2, 31127, Note_on_c, 0, 45, 99
2, 31154, Note_on_c, 0, 45, 0
2, 31157, Note_on_c, 0, 47, 93
2, 31162, Note_on_c, 0, 59, 0
2, 31164, Note_on_c, 0, 66, 0
2, 31165, Note_on_c, 0, 61, 0
2, 31184, Note_on_c, 0, 47, 0
2, 31188, Note_on_c, 0, 75, 115
2, 31190, Note_on_c, 0, 48, 99
2, 31190, Note_on_c, 0, 66, 113
2, 31190, Note_on_c, 0, 69, 111
2, 31222, Note_on_c, 0, 49, 100
2, 31247, Note_on_c, 0, 49, 0
2, 31250, Note_on_c, 0, 47, 96
2, 31250, Note_on_c, 0, 48, 0
2, 31280, Note_on_c, 0, 48, 99
2, 31280, Note_on_c, 0, 47, 0
2, 31310, Note_on_c, 0, 49, 102
2, 31311, Note_on_c, 0, 73, 104
2, 31311, Note_on_c, 0, 48, 0
2, 31336, Note_on_c, 0, 49, 0
2, 31338, Note_on_c, 0, 75, 0
2, 31340, Note_on_c, 0, 51, 99
2, 31367, Note_on_c, 0, 51, 0
2, 31368, Note_on_c, 0, 48, 96
2, 31395, Note_on_c, 0, 48, 0
2, 31397, Note_on_c, 0, 49, 91
2, 31425, Note_on_c, 0, 51, 97
2, 31426, Note_on_c, 0, 72, 99
2, 31427, Note_on_c, 0, 49, 0
2, 31427, Note_on_c, 0, 73, 0
2, 31450, Note_on_c, 0, 51, 0
2, 31457, Note_on_c, 0, 52, 95
2, 31484, Note_on_c, 0, 52, 0
2, 31485, Note_on_c, 0, 49, 94
2, 31490, Note_on_c, 0, 69, 0
2, 31512, Note_on_c, 0, 51, 92
2, 31513, Note_on_c, 0, 49, 0
2, 31520, Note_on_c, 0, 66, 0
2, 31538, Note_on_c, 0, 51, 0
2, 31539, Note_on_c, 0, 72, 0
2, 31545, Note_on_c, 0, 64, 91
2, 31545, Note_on_c, 0, 69, 89
2, 31546, Note_on_c, 0, 52, 93
2, 31546, Note_on_c, 0, 73, 95
2, 31572, Note_on_c, 0, 52, 0
2, 31575, Note_on_c, 0, 54, 88
2, 31603, Note_on_c, 0, 54, 0
2, 31604, Note_on_c, 0, 52, 93
2, 31629, Note_on_c, 0, 52, 0
2, 31634, Note_on_c, 0, 54, 92
2, 31635, Note_on_c, 0, 64, 0
2, 31635, Note_on_c, 0, 69, 0
2, 31643, Note_on_c, 0, 73, 0
2, 31661, Note_on_c, 0, 54, 0
2, 31665, Note_on_c, 0, 66, 112
2, 31665, Note_on_c, 0, 69, 109
2, 31665, Note_on_c, 0, 48, 101
2, 31666, Note_on_c, 0, 75, 112
2, 31690, Note_on_c, 0, 48, 0
2, 31696, Note_on_c, 0, 49, 99
2, 31723, Note_on_c, 0, 49, 0
2, 31725, Note_on_c, 0, 47, 94
2, 31755, Note_on_c, 0, 47, 0
2, 31758, Note_on_c, 0, 48, 98
2, 31787, Note_on_c, 0, 73, 103
2, 31788, Note_on_c, 0, 49, 102
2, 31791, Note_on_c, 0, 48, 0
2, 31816, Note_on_c, 0, 75, 0
2, 31816, Note_on_c, 0, 49, 0
2, 31821, Note_on_c, 0, 51, 97
2, 31850, Note_on_c, 0, 48, 95
2, 31851, Note_on_c, 0, 51, 0
2, 31875, Note_on_c, 0, 48, 0
2, 31878, Note_on_c, 0, 49, 88
2, 31906, Note_on_c, 0, 49, 0
2, 31907, Note_on_c, 0, 73, 0
2, 31908, Note_on_c, 0, 72, 98
2, 31908, Note_on_c, 0, 51, 95
2, 31934, Note_on_c, 0, 51, 0
2, 31937, Note_on_c, 0, 52, 95
2, 31967, Note_on_c, 0, 49, 90
2, 31967, Note_on_c, 0, 52, 0
2, 31995, Note_on_c, 0, 51, 92
2, 31995, Note_on_c, 0, 66, 0
2, 31995, Note_on_c, 0, 69, 0
2, 31997, Note_on_c, 0, 49, 0
2, 31998, Note_on_c, 0, 72, 0
2, 32024, Note_on_c, 0, 51, 0
2, 32025, Note_on_c, 0, 73, 100
2, 32027, Note_on_c, 0, 71, 99
2, 32028, Note_on_c, 0, 53, 100
2, 32028, Note_on_c, 0, 68, 94
2, 32028, Note_on_c, 0, 61, 100
2, 32058, Note_on_c, 0, 53, 0
2, 32062, Note_on_c, 0, 54, 94
2, 32090, Note_on_c, 0, 54, 0
2, 32092, Note_on_c, 0, 52, 99
2, 32119, Note_on_c, 0, 52, 0
2, 32120, Note_on_c, 0, 53, 109
2, 32130, Note_on_c, 0, 73, 0
2, 32132, Note_on_c, 0, 71, 0
2, 32133, Note_on_c, 0, 68, 0
2, 32133, Note_on_c, 0, 61, 0
2, 32152, Note_on_c, 0, 61, 101
2, 32152, Note_on_c, 0, 66, 101
2, 32152, Note_on_c, 0, 53, 0
2, 32153, Note_on_c, 0, 54, 102
2, 32153, Note_on_c, 0, 69, 96
2, 32154, Note_on_c, 0, 73, 100
2, 32179, Note_on_c, 0, 54, 0
2, 32181, Note_on_c, 0, 56, 94
2, 32207, Note_on_c, 0, 56, 0
2, 32212, Note_on_c, 0, 53, 97
2, 32234, Note_on_c, 0, 61, 0
2, 32236, Note_on_c, 0, 73, 0
2, 32237, Note_on_c, 0, 53, 0
2, 32240, Note_on_c, 0, 54, 97
2, 32240, Note_on_c, 0, 69, 0
2, 32242, Note_on_c, 0, 66, 0
2, 32270, Note_on_c, 0, 73, 100
2, 32270, Note_on_c, 0, 71, 99
2, 32271, Note_on_c, 0, 65, 101
2, 32271, Note_on_c, 0, 56, 100
2, 32273, Note_on_c, 0, 54, 0
2, 32300, Note_on_c, 0, 56, 0
2, 32302, Note_on_c, 0, 57, 94
2, 32327, Note_on_c, 0, 57, 0
2, 32328, Note_on_c, 0, 54, 94
2, 32357, Note_on_c, 0, 54, 0
2, 32358, Note_on_c, 0, 56, 97
2, 32367, Note_on_c, 0, 73, 0
2, 32367, Note_on_c, 0, 71, 0
2, 32368, Note_on_c, 0, 65, 0
2, 32385, Note_on_c, 0, 73, 106
2, 32386, Note_on_c, 0, 66, 107
2, 32387, Note_on_c, 0, 57, 106
2, 32387, Note_on_c, 0, 69, 106
2, 32387, Note_on_c, 0, 56, 0
2, 32413, Note_on_c, 0, 57, 0
2, 32418, Note_on_c, 0, 59, 91
2, 32445, Note_on_c, 0, 56, 94
2, 32445, Note_on_c, 0, 59, 0
2, 32468, Note_on_c, 0, 66, 0
2, 32469, Note_on_c, 0, 69, 0
2, 32473, Note_on_c, 0, 57, 108
2, 32475, Note_on_c, 0, 73, 0
2, 32480, Note_on_c, 0, 56, 0
2, 32502, Note_on_c, 0, 75, 114
2, 32502, Note_on_c, 0, 66, 113
2, 32502, Note_on_c, 0, 69, 109
2, 32503, Note_on_c, 0, 60, 104
2, 32503, Note_on_c, 0, 57, 0
2, 32534, Note_on_c, 0, 60, 0
2, 32537, Note_on_c, 0, 61, 103
2, 32559, Note_on_c, 0, 61, 0
2, 32565, Note_on_c, 0, 59, 93
2, 32592, Note_on_c, 0, 60, 103
2, 32592, Note_on_c, 0, 69, 0
2, 32595, Note_on_c, 0, 59, 0
2, 32599, Note_on_c, 0, 75, 0
2, 32599, Note_on_c, 0, 66, 0
2, 32620, Note_on_c, 0, 64, 109
2, 32622, Note_on_c, 0, 61, 113
2, 32622, Note_on_c, 0, 68, 110
2, 32622, Note_on_c, 0, 76, 113
2, 32622, Note_on_c, 0, 60, 0
2, 32647, Note_on_c, 0, 61, 0
2, 32650, Note_on_c, 0, 63, 104
2, 32677, Note_on_c, 0, 63, 0
2, 32680, Note_on_c, 0, 60, 104
2, 32707, Note_on_c, 0, 64, 0
2, 32710, Note_on_c, 0, 61, 108
2, 32710, Note_on_c, 0, 60, 0
2, 32718, Note_on_c, 0, 68, 0
2, 32718, Note_on_c, 0, 76, 0
2, 32740, Note_on_c, 0, 68, 115
2, 32740, Note_on_c, 0, 72, 111
2, 32740, Note_on_c, 0, 78, 118
2, 32741, Note_on_c, 0, 63, 109
2, 32745, Note_on_c, 0, 61, 0
2, 32772, Note_on_c, 0, 63, 0
2, 32773, Note_on_c, 0, 64, 108
2, 32790, Control_c, 0, 64, 127
2, 32802, Note_on_c, 0, 61, 107
2, 32804, Note_on_c, 0, 64, 0
2, 32812, Control_c, 0, 64, 0
2, 32830, Note_on_c, 0, 63, 102
2, 32830, Note_on_c, 0, 68, 0
2, 32830, Note_on_c, 0, 72, 0
2, 32837, Note_on_c, 0, 78, 0
2, 32839, Note_on_c, 0, 61, 0
2, 32859, Note_on_c, 0, 63, 0
2, 32860, Note_on_c, 0, 73, 114
2, 32860, Note_on_c, 0, 64, 114
2, 32860, Note_on_c, 0, 80, 125
2, 32862, Note_on_c, 0, 68, 121
2, 32881, Control_c, 0, 64, 127
2, 32889, Note_on_c, 0, 64, 0
2, 32893, Note_on_c, 0, 66, 108
2, 32916, Note_on_c, 0, 66, 0
2, 32920, Note_on_c, 0, 63, 104
2, 32923, Control_c, 0, 64, 0
2, 32950, Note_on_c, 0, 64, 110
2, 32950, Note_on_c, 0, 63, 0
2, 32957, Note_on_c, 0, 73, 0
2, 32957, Note_on_c, 0, 80, 0
2, 32959, Note_on_c, 0, 68, 0
2, 32977, Note_on_c, 0, 75, 116
2, 32977, Note_on_c, 0, 81, 116
2, 32977, Note_on_c, 0, 73, 116
2, 32978, Note_on_c, 0, 66, 103
2, 32978, Note_on_c, 0, 64, 0
2, 32987, Control_c, 0, 64, 127
2, 33008, Note_on_c, 0, 66, 0
2, 33010, Note_on_c, 0, 68, 98
2, 33022, Control_c, 0, 64, 0
2, 33036, Note_on_c, 0, 68, 0
2, 33037, Note_on_c, 0, 64, 106
2, 33065, Note_on_c, 0, 66, 104
2, 33065, Note_on_c, 0, 64, 0
2, 33065, Note_on_c, 0, 75, 0
2, 33067, Note_on_c, 0, 73, 0
2, 33082, Note_on_c, 0, 81, 0
2, 33099, Note_on_c, 0, 80, 118
2, 33099, Note_on_c, 0, 76, 115
2, 33099, Note_on_c, 0, 73, 115
2, 33099, Note_on_c, 0, 68, 113
2, 33100, Note_on_c, 0, 66, 0
2, 33111, Control_c, 0, 64, 127
2, 33133, Note_on_c, 0, 69, 106
2, 33136, Note_on_c, 0, 68, 0
2, 33163, Note_on_c, 0, 68, 115
2, 33167, Note_on_c, 0, 69, 0
2, 33172, Control_c, 0, 64, 0
2, 33191, Note_on_c, 0, 66, 104
2, 33195, Note_on_c, 0, 68, 0
2, 33219, Note_on_c, 0, 66, 0
2, 33222, Note_on_c, 0, 64, 115
2, 33253, Note_on_c, 0, 63, 111
2, 33259, Note_on_c, 0, 64, 0
2, 33281, Note_on_c, 0, 61, 109
2, 33284, Note_on_c, 0, 63, 0
2, 33295, Note_on_c, 0, 73, 0
2, 33298, Note_on_c, 0, 76, 0
2, 33299, Note_on_c, 0, 80, 0
2, 33310, Note_on_c, 0, 59, 109
2, 33311, Note_on_c, 0, 61, 0
2, 33340, Note_on_c, 0, 57, 120
2, 33341, Note_on_c, 0, 80, 110
2, 33341, Note_on_c, 0, 85, 127
2, 33341, Note_on_c, 0, 76, 116
2, 33341, Note_on_c, 0, 73, 121
2, 33345, Note_on_c, 0, 59, 0
2, 33356, Control_c, 0, 64, 127
2, 33373, Note_on_c, 0, 56, 116
2, 33378, Note_on_c, 0, 57, 0
2, 33399, Note_on_c, 0, 56, 0
2, 33400, Note_on_c, 0, 54, 108
2, 33423, Note_on_c, 0, 76, 0
2, 33423, Note_on_c, 0, 80, 0
2, 33423, Note_on_c, 0, 85, 0
2, 33423, Note_on_c, 0, 73, 0
2, 33428, Note_on_c, 0, 52, 107
2, 33430, Note_on_c, 0, 54, 0
2, 33455, Control_c, 0, 64, 0
2, 33459, Note_on_c, 0, 88, 120
2, 33459, Note_on_c, 0, 85, 119
2, 33459, Note_on_c, 0, 80, 124
2, 33459, Note_on_c, 0, 76, 122
2, 33459, Note_on_c, 0, 51, 126
2, 33459, Note_on_c, 0, 52, 0
2, 33487, Note_on_c, 0, 49, 103
2, 33488, Control_c, 0, 64, 127
2, 33497, Note_on_c, 0, 51, 0
2, 33513, Note_on_c, 0, 47, 110
2, 33517, Note_on_c, 0, 49, 0
2, 33543, Note_on_c, 0, 45, 114
2, 33543, Note_on_c, 0, 47, 0
2, 33546, Control_c, 0, 64, 0
2, 33549, Note_on_c, 0, 76, 0
2, 33549, Note_on_c, 0, 80, 0
2, 33549, Note_on_c, 0, 88, 0
2, 33549, Note_on_c, 0, 85, 0
2, 33574, Note_on_c, 0, 85, 119
2, 33575, Note_on_c, 0, 88, 114
2, 33575, Note_on_c, 0, 44, 125
2, 33575, Note_on_c, 0, 92, 127
2, 33575, Note_on_c, 0, 80, 125
2, 33583, Control_c, 0, 64, 127
2, 33583, Note_on_c, 0, 45, 0
2, 33606, Note_on_c, 0, 42, 103
2, 33610, Note_on_c, 0, 44, 0
2, 33631, Control_c, 0, 64, 0
2, 33633, Note_on_c, 0, 40, 112
2, 33635, Note_on_c, 0, 42, 0
2, 33660, Note_on_c, 0, 85, 0
2, 33660, Note_on_c, 0, 92, 0
2, 33660, Note_on_c, 0, 88, 0
2, 33661, Note_on_c, 0, 80, 0
2, 33663, Note_on_c, 0, 39, 113
2, 33663, Note_on_c, 0, 40, 0
2, 33693, Note_on_c, 0, 39, 0
2, 33695, Note_on_c, 0, 97, 127
2, 33695, Note_on_c, 0, 37, 111
2, 33695, Note_on_c, 0, 92, 127
2, 33696, Note_on_c, 0, 85, 122
2, 33696, Note_on_c, 0, 88, 124
2, 33707, Control_c, 0, 64, 127
2, 33723, Note_on_c, 0, 37, 0
2, 33725, Note_on_c, 0, 35, 113
2, 33747, Control_c, 0, 64, 0
2, 33756, Note_on_c, 0, 33, 115
2, 33758, Note_on_c, 0, 35, 0
2, 33765, Control_c, 0, 64, 127
2, 33782, Note_on_c, 0, 33, 0
2, 33785, Note_on_c, 0, 32, 109
2, 33785, Note_on_c, 0, 97, 0
2, 33785, Note_on_c, 0, 92, 0
2, 33786, Note_on_c, 0, 85, 0
2, 33786, Note_on_c, 0, 88, 0
2, 33815, Note_on_c, 0, 32, 0
2, 33822, Note_on_c, 0, 87, 124
2, 33822, Note_on_c, 0, 93, 127
2, 33822, Note_on_c, 0, 85, 124
2, 33822, Note_on_c, 0, 81, 118
2, 33822, Note_on_c, 0, 42, 127
2, 33822, Note_on_c, 0, 30, 127
2, 33826, Control_c, 0, 64, 0
2, 33838, Control_c, 0, 64, 127
2, 33863, Control_c, 0, 64, 0
2, 33894, Note_on_c, 0, 30, 0
2, 33899, Note_on_c, 0, 42, 0
2, 33912, Note_on_c, 0, 85, 0
2, 33912, Note_on_c, 0, 87, 0
2, 33912, Note_on_c, 0, 93, 0
2, 33912, Note_on_c, 0, 81, 0
2, 33965, Note_on_c, 0, 66, 114
2, 33965, Note_on_c, 0, 68, 108
2, 33965, Note_on_c, 0, 60, 109
2, 33965, Note_on_c, 0, 72, 109
2, 33966, Note_on_c, 0, 32, 127
2, 33966, Note_on_c, 0, 44, 127
2, 33985, Control_c, 0, 64, 127
2, 34027, Control_c, 0, 64, 0
2, 34035, Note_on_c, 0, 32, 0
2, 34036, Note_on_c, 0, 44, 0
2, 34055, Note_on_c, 0, 60, 0
2, 34055, Note_on_c, 0, 66, 0
2, 34055, Note_on_c, 0, 68, 0
2, 34055, Note_on_c, 0, 72, 0
2, 34092, Note_on_c, 0, 73, 123
2, 34092, Note_on_c, 0, 61, 127
2, 34093, Note_on_c, 0, 64, 123
2, 34093, Note_on_c, 0, 68, 116
2, 34095, Note_on_c, 0, 25, 127
2, 34095, Note_on_c, 0, 37, 127
2, 34102, Control_c, 0, 64, 127
2, 34155, Note_on_c, 0, 61, 0
2, 34159, Note_on_c, 0, 64, 0
2, 34163, Note_on_c, 0, 68, 0
2, 34167, Note_on_c, 0, 25, 0
2, 34169, Note_on_c, 0, 73, 0
2, 34170, Control_c, 0, 64, 0
2, 34173, Note_on_c, 0, 37, 0
2, 34227, Note_on_c, 0, 80, 127
2, 34230, Note_on_c, 0, 56, 127
2, 34230, Note_on_c, 0, 44, 127
2, 34233, Control_c, 0, 64, 127
2, 34257, Note_on_c, 0, 80, 0
2, 34260, Note_on_c, 0, 81, 106
2, 34285, Note_on_c, 0, 80, 124
2, 34285, Note_on_c, 0, 37, 119
2, 34285, Note_on_c, 0, 81, 0
2, 34288, Control_c, 0, 64, 0
2, 34290, Note_on_c, 0, 56, 0
2, 34290, Note_on_c, 0, 44, 0
2, 34313, Note_on_c, 0, 88, 104
2, 34322, Note_on_c, 0, 80, 0
2, 34341, Note_on_c, 0, 58, 126
2, 34342, Note_on_c, 0, 79, 126
2, 34342, Note_on_c, 0, 46, 127
2, 34345, Control_c, 0, 64, 127
2, 34345, Note_on_c, 0, 37, 0
2, 34347, Note_on_c, 0, 88, 0
2, 34367, Note_on_c, 0, 80, 116
2, 34372, Note_on_c, 0, 79, 0
2, 34395, Note_on_c, 0, 37, 119
2, 34397, Note_on_c, 0, 80, 0
2, 34398, Note_on_c, 0, 79, 113
2, 34400, Control_c, 0, 64, 0
2, 34401, Note_on_c, 0, 58, 0
2, 34402, Note_on_c, 0, 46, 0
2, 34421, Note_on_c, 0, 88, 96
2, 34423, Note_on_c, 0, 79, 0
2, 34435, Note_on_c, 0, 80, 60
2, 34450, Note_on_c, 0, 57, 118
2, 34450, Note_on_c, 0, 45, 126
2, 34451, Note_on_c, 0, 78, 127
2, 34451, Note_on_c, 0, 88, 0
2, 34455, Note_on_c, 0, 37, 0
2, 34458, Control_c, 0, 64, 127
2, 34465, Note_on_c, 0, 80, 0
2, 34477, Note_on_c, 0, 80, 101
2, 34479, Note_on_c, 0, 78, 0
2, 34505, Note_on_c, 0, 78, 113
2, 34505, Note_on_c, 0, 37, 120
2, 34508, Control_c, 0, 64, 0
2, 34510, Note_on_c, 0, 57, 0
2, 34510, Note_on_c, 0, 45, 0
2, 34512, Note_on_c, 0, 80, 0
2, 34532, Note_on_c, 0, 87, 97
2, 34545, Note_on_c, 0, 78, 0
2, 34560, Note_on_c, 0, 56, 119
2, 34560, Note_on_c, 0, 77, 127
2, 34560, Note_on_c, 0, 44, 124
2, 34565, Control_c, 0, 64, 127
2, 34565, Note_on_c, 0, 37, 0
2, 34587, Note_on_c, 0, 78, 113
2, 34589, Note_on_c, 0, 87, 0
2, 34590, Note_on_c, 0, 77, 0
2, 34613, Note_on_c, 0, 77, 116
2, 34614, Note_on_c, 0, 37, 117
2, 34615, Note_on_c, 0, 78, 0
2, 34620, Note_on_c, 0, 44, 0
2, 34620, Note_on_c, 0, 56, 0
2, 34622, Control_c, 0, 64, 0
2, 34636, Note_on_c, 0, 77, 0
2, 34638, Note_on_c, 0, 86, 92
2, 34668, Note_on_c, 0, 86, 0
2, 34670, Note_on_c, 0, 76, 124
2, 34670, Note_on_c, 0, 55, 107
2, 34670, Note_on_c, 0, 44, 127
2, 34674, Note_on_c, 0, 37, 0
2, 34675, Control_c, 0, 64, 127
2, 34697, Note_on_c, 0, 78, 106
2, 34702, Note_on_c, 0, 76, 0
2, 34722, Control_c, 0, 64, 0
2, 34725, Note_on_c, 0, 37, 113
2, 34725, Note_on_c, 0, 78, 0
2, 34727, Note_on_c, 0, 76, 112
2, 34730, Note_on_c, 0, 44, 0
2, 34730, Note_on_c, 0, 55, 0
2, 34749, Note_on_c, 0, 76, 0
2, 34752, Note_on_c, 0, 85, 109
2, 34780, Note_on_c, 0, 75, 127
2, 34780, Note_on_c, 0, 54, 121
2, 34780, Note_on_c, 0, 44, 118
2, 34782, Note_on_c, 0, 85, 0
2, 34785, Control_c, 0, 64, 127
2, 34785, Note_on_c, 0, 37, 0
2, 34805, Note_on_c, 0, 76, 106
2, 34807, Note_on_c, 0, 75, 0
2, 34831, Note_on_c, 0, 37, 111
2, 34832, Note_on_c, 0, 76, 0
2, 34833, Note_on_c, 0, 75, 120
2, 34835, Control_c, 0, 64, 0
2, 34840, Note_on_c, 0, 44, 0
2, 34840, Note_on_c, 0, 54, 0
2, 34860, Note_on_c, 0, 85, 106
2, 34861, Note_on_c, 0, 75, 0
2, 34890, Note_on_c, 0, 75, 127
2, 34890, Note_on_c, 0, 44, 121
2, 34890, Note_on_c, 0, 51, 121
2, 34890, Note_on_c, 0, 85, 0
2, 34891, Note_on_c, 0, 37, 0
2, 34893, Control_c, 0, 64, 127
2, 34917, Note_on_c, 0, 76, 102
2, 34918, Note_on_c, 0, 75, 0
2, 34938, Note_on_c, 0, 76, 0
2, 34943, Note_on_c, 0, 75, 104
2, 34943, Note_on_c, 0, 37, 110
2, 34947, Control_c, 0, 64, 0
2, 34950, Note_on_c, 0, 44, 0
2, 34950, Note_on_c, 0, 51, 0
2, 34969, Note_on_c, 0, 84, 117
2, 34969, Note_on_c, 0, 75, 0
2, 34997, Note_on_c, 0, 44, 121
2, 34998, Note_on_c, 0, 52, 114
2, 34998, Note_on_c, 0, 73, 127
2, 34999, Note_on_c, 0, 84, 0
2, 35003, Note_on_c, 0, 37, 0
2, 35005, Control_c, 0, 64, 127
2, 35028, Note_on_c, 0, 75, 98
2, 35033, Note_on_c, 0, 73, 0
2, 35055, Note_on_c, 0, 37, 118
2, 35056, Note_on_c, 0, 73, 94
2, 35059, Note_on_c, 0, 75, 0
2, 35067, Control_c, 0, 64, 0
2, 35069, Note_on_c, 0, 52, 0
2, 35069, Note_on_c, 0, 44, 0
2, 35085, Note_on_c, 0, 85, 109
2, 35115, Note_on_c, 0, 37, 0
2, 35116, Note_on_c, 0, 73, 0
2, 35117, Note_on_c, 0, 56, 127
2, 35117, Note_on_c, 0, 44, 127
2, 35118, Note_on_c, 0, 80, 127
2, 35122, Control_c, 0, 64, 127
2, 35145, Note_on_c, 0, 85, 0
2, 35148, Note_on_c, 0, 81, 111
2, 35151, Note_on_c, 0, 80, 0
2, 35175, Note_on_c, 0, 37, 122
2, 35175, Note_on_c, 0, 80, 126
2, 35177, Note_on_c, 0, 56, 0
2, 35177, Note_on_c, 0, 81, 0
2, 35177, Note_on_c, 0, 44, 0
2, 35190, Control_c, 0, 64, 0
2, 35205, Note_on_c, 0, 88, 95
2, 35207, Note_on_c, 0, 80, 0
2, 35235, Note_on_c, 0, 58, 124
2, 35235, Note_on_c, 0, 79, 127
2, 35235, Note_on_c, 0, 37, 0
2, 35236, Note_on_c, 0, 46, 127
2, 35240, Control_c, 0, 64, 127
2, 35265, Note_on_c, 0, 80, 104
2, 35265, Note_on_c, 0, 88, 0
2, 35265, Note_on_c, 0, 79, 0
2, 35290, Note_on_c, 0, 37, 122
2, 35290, Note_on_c, 0, 80, 0
2, 35291, Note_on_c, 0, 79, 104
2, 35295, Note_on_c, 0, 58, 0
2, 35296, Note_on_c, 0, 46, 0
2, 35298, Control_c, 0, 64, 0
2, 35315, Note_on_c, 0, 88, 107
2, 35316, Note_on_c, 0, 79, 0
2, 35348, Note_on_c, 0, 45, 123
2, 35348, Note_on_c, 0, 57, 116
2, 35348, Note_on_c, 0, 78, 127
2, 35350, Note_on_c, 0, 37, 0
2, 35355, Control_c, 0, 64, 127
2, 35375, Note_on_c, 0, 88, 0
2, 35379, Note_on_c, 0, 78, 0
2, 35380, Note_on_c, 0, 80, 93
2, 35404, Note_on_c, 0, 37, 119
2, 35406, Note_on_c, 0, 78, 109
2, 35408, Note_on_c, 0, 45, 0
2, 35408, Note_on_c, 0, 57, 0
2, 35410, Note_on_c, 0, 80, 0
2, 35413, Control_c, 0, 64, 0
2, 35433, Note_on_c, 0, 87, 103
2, 35439, Note_on_c, 0, 78, 0
2, 35463, Note_on_c, 0, 44, 127
2, 35463, Note_on_c, 0, 56, 120
2, 35463, Note_on_c, 0, 77, 127
2, 35464, Note_on_c, 0, 37, 0
2, 35468, Control_c, 0, 64, 127
2, 35491, Note_on_c, 0, 78, 109
2, 35493, Note_on_c, 0, 87, 0
2, 35494, Note_on_c, 0, 77, 0
2, 35516, Note_on_c, 0, 37, 124
2, 35518, Note_on_c, 0, 77, 117
2, 35522, Note_on_c, 0, 78, 0
2, 35528, Control_c, 0, 64, 0
2, 35542, Note_on_c, 0, 86, 88
2, 35542, Note_on_c, 0, 77, 0
2, 35549, Note_on_c, 0, 56, 0
2, 35549, Note_on_c, 0, 44, 0
2, 35576, Note_on_c, 0, 44, 127
2, 35577, Note_on_c, 0, 55, 118
2, 35577, Note_on_c, 0, 76, 122
2, 35579, Note_on_c, 0, 37, 0
2, 35583, Control_c, 0, 64, 127
2, 35602, Note_on_c, 0, 86, 0
2, 35605, Note_on_c, 0, 78, 100
2, 35608, Note_on_c, 0, 76, 0
2, 35632, Note_on_c, 0, 37, 124
2, 35632, Note_on_c, 0, 78, 0
2, 35633, Note_on_c, 0, 76, 110
2, 35636, Note_on_c, 0, 44, 0
2, 35637, Note_on_c, 0, 55, 0
2, 35640, Control_c, 0, 64, 0
2, 35657, Note_on_c, 0, 85, 102
2, 35657, Note_on_c, 0, 76, 0
2, 35687, Note_on_c, 0, 44, 127
2, 35688, Note_on_c, 0, 75, 127
2, 35688, Note_on_c, 0, 54, 124
2, 35692, Note_on_c, 0, 37, 0
2, 35693, Control_c, 0, 64, 127
2, 35717, Note_on_c, 0, 85, 0
2, 35718, Note_on_c, 0, 75, 0
2, 35719, Note_on_c, 0, 76, 106
2, 35745, Note_on_c, 0, 75, 119
2, 35745, Note_on_c, 0, 37, 85
2, 35745, Note_on_c, 0, 76, 0
2, 35747, Note_on_c, 0, 44, 0
2, 35748, Control_c, 0, 64, 0
2, 35748, Note_on_c, 0, 54, 0
2, 35768, Note_on_c, 0, 75, 0
2, 35772, Note_on_c, 0, 85, 101
2, 35800, Note_on_c, 0, 51, 124
2, 35800, Note_on_c, 0, 44, 125
2, 35800, Note_on_c, 0, 75, 127
2, 35805, Note_on_c, 0, 37, 0
2, 35807, Control_c, 0, 64, 127
2, 35828, Note_on_c, 0, 76, 106
2, 35830, Note_on_c, 0, 75, 0
2, 35832, Note_on_c, 0, 85, 0
2, 35853, Note_on_c, 0, 75, 120
2, 35853, Note_on_c, 0, 37, 120
2, 35854, Note_on_c, 0, 76, 0
2, 35860, Note_on_c, 0, 44, 0
2, 35860, Note_on_c, 0, 51, 0
2, 35865, Control_c, 0, 64, 0
2, 35879, Note_on_c, 0, 75, 0
2, 35880, Note_on_c, 0, 84, 111
2, 35883, Note_on_c, 0, 37, 0
2, 35908, Control_c, 0, 64, 127
2, 35917, Note_on_c, 0, 73, 127
2, 35917, Note_on_c, 0, 52, 123
2, 35917, Note_on_c, 0, 44, 116
2, 35917, Note_on_c, 0, 37, 98
2, 35940, Note_on_c, 0, 84, 0
2, 35946, Note_on_c, 0, 75, 108
2, 35949, Note_on_c, 0, 73, 0
2, 35970, Note_on_c, 0, 75, 0
2, 35974, Note_on_c, 0, 73, 111
2, 35976, Note_on_c, 0, 37, 0
2, 35977, Note_on_c, 0, 44, 0
2, 35977, Note_on_c, 0, 52, 0
2, 35980, Control_c, 0, 64, 0
2, 35999, Note_on_c, 0, 73, 0
2, 36000, Note_on_c, 0, 85, 126
2, 36032, Note_on_c, 0, 80, 127
2, 36033, Note_on_c, 0, 68, 124
2, 36037, Control_c, 0, 64, 127
2, 36055, Note_on_c, 0, 68, 0
2, 36057, Note_on_c, 0, 80, 0
2, 36060, Note_on_c, 0, 81, 106
2, 36060, Note_on_c, 0, 67, 93
2, 36060, Note_on_c, 0, 85, 0
2, 36079, Note_on_c, 0, 67, 0
2, 36083, Note_on_c, 0, 81, 0
2, 36085, Note_on_c, 0, 80, 108
2, 36085, Note_on_c, 0, 68, 94
2, 36100, Control_c, 0, 64, 0
2, 36105, Note_on_c, 0, 80, 0
2, 36106, Note_on_c, 0, 68, 0
2, 36110, Note_on_c, 0, 56, 95
2, 36111, Note_on_c, 0, 88, 99
2, 36140, Note_on_c, 0, 67, 124
2, 36141, Note_on_c, 0, 79, 127
2, 36146, Control_c, 0, 64, 127
2, 36165, Note_on_c, 0, 66, 107
2, 36166, Note_on_c, 0, 80, 111
2, 36167, Note_on_c, 0, 67, 0
2, 36169, Note_on_c, 0, 79, 0
2, 36170, Note_on_c, 0, 56, 0
2, 36171, Note_on_c, 0, 88, 0
2, 36189, Note_on_c, 0, 66, 0
2, 36189, Note_on_c, 0, 80, 0
2, 36191, Note_on_c, 0, 67, 106
2, 36192, Note_on_c, 0, 79, 95
2, 36205, Control_c, 0, 64, 0
2, 36209, Note_on_c, 0, 67, 0
2, 36216, Note_on_c, 0, 56, 102
2, 36216, Note_on_c, 0, 88, 87
2, 36217, Note_on_c, 0, 79, 0
2, 36245, Note_on_c, 0, 66, 126
2, 36246, Note_on_c, 0, 78, 127
2, 36250, Control_c, 0, 64, 127
2, 36269, Note_on_c, 0, 66, 0
2, 36271, Note_on_c, 0, 65, 103
2, 36271, Note_on_c, 0, 80, 104
2, 36276, Note_on_c, 0, 56, 0
2, 36276, Note_on_c, 0, 88, 0
2, 36279, Note_on_c, 0, 78, 0
2, 36297, Note_on_c, 0, 78, 106
2, 36297, Note_on_c, 0, 65, 0
2, 36298, Note_on_c, 0, 66, 104
2, 36298, Note_on_c, 0, 80, 0
2, 36308, Control_c, 0, 64, 0
2, 36324, Note_on_c, 0, 66, 0
2, 36324, Note_on_c, 0, 78, 0
2, 36326, Note_on_c, 0, 87, 101
2, 36326, Note_on_c, 0, 56, 99
2, 36355, Note_on_c, 0, 65, 118
2, 36355, Note_on_c, 0, 77, 127
2, 36361, Control_c, 0, 64, 127
2, 36381, Note_on_c, 0, 64, 103
2, 36382, Note_on_c, 0, 78, 111
2, 36382, Note_on_c, 0, 65, 0
2, 36386, Note_on_c, 0, 87, 0
2, 36386, Note_on_c, 0, 56, 0
2, 36387, Note_on_c, 0, 77, 0
2, 36409, Note_on_c, 0, 64, 0
2, 36410, Note_on_c, 0, 77, 109
2, 36410, Note_on_c, 0, 78, 0
2, 36411, Note_on_c, 0, 65, 106
2, 36417, Control_c, 0, 64, 0
2, 36429, Note_on_c, 0, 65, 0
2, 36431, Note_on_c, 0, 77, 0
2, 36435, Note_on_c, 0, 56, 94
2, 36436, Note_on_c, 0, 86, 85
2, 36465, Note_on_c, 0, 76, 124
2, 36465, Note_on_c, 0, 64, 127
2, 36470, Control_c, 0, 64, 127
2, 36488, Note_on_c, 0, 63, 116
2, 36490, Note_on_c, 0, 78, 100
2, 36495, Note_on_c, 0, 64, 0
2, 36502, Note_on_c, 0, 76, 0
2, 36514, Note_on_c, 0, 86, 0
2, 36516, Note_on_c, 0, 78, 0
2, 36517, Note_on_c, 0, 64, 110
2, 36517, Note_on_c, 0, 63, 0
2, 36518, Note_on_c, 0, 76, 100
2, 36525, Control_c, 0, 64, 0
2, 36525, Note_on_c, 0, 56, 0
2, 36545, Note_on_c, 0, 85, 108
2, 36546, Note_on_c, 0, 56, 101
2, 36547, Note_on_c, 0, 64, 0
2, 36548, Note_on_c, 0, 76, 0
2, 36570, Note_on_c, 0, 63, 122
2, 36571, Note_on_c, 0, 75, 125
2, 36572, Control_c, 0, 64, 127
2, 36591, Note_on_c, 0, 63, 0
2, 36596, Note_on_c, 0, 62, 104
2, 36596, Note_on_c, 0, 75, 0
2, 36597, Note_on_c, 0, 76, 102
2, 36605, Note_on_c, 0, 85, 0
2, 36606, Note_on_c, 0, 56, 0
2, 36620, Note_on_c, 0, 63, 106
2, 36620, Note_on_c, 0, 75, 92
2, 36623, Note_on_c, 0, 62, 0
2, 36627, Note_on_c, 0, 76, 0
2, 36630, Control_c, 0, 64, 0
2, 36648, Note_on_c, 0, 75, 0
2, 36649, Note_on_c, 0, 56, 99
2, 36649, Note_on_c, 0, 84, 101
2, 36649, Note_on_c, 0, 63, 0
2, 36675, Note_on_c, 0, 62, 110
2, 36675, Note_on_c, 0, 74, 120
2, 36683, Control_c, 0, 64, 127
2, 36701, Note_on_c, 0, 75, 112
2, 36701, Note_on_c, 0, 61, 111
2, 36702, Note_on_c, 0, 62, 0
2, 36705, Note_on_c, 0, 74, 0
2, 36709, Note_on_c, 0, 56, 0
2, 36709, Note_on_c, 0, 84, 0
2, 36727, Note_on_c, 0, 74, 104
2, 36727, Note_on_c, 0, 75, 0
2, 36728, Note_on_c, 0, 62, 101
2, 36732, Note_on_c, 0, 61, 0
2, 36740, Control_c, 0, 64, 0
2, 36754, Note_on_c, 0, 74, 0
2, 36756, Note_on_c, 0, 56, 83
2, 36756, Note_on_c, 0, 83, 96
2, 36760, Note_on_c, 0, 62, 0
2, 36783, Note_on_c, 0, 73, 125
2, 36783, Note_on_c, 0, 61, 119
2, 36788, Control_c, 0, 64, 127
2, 36801, Note_on_c, 0, 61, 0
2, 36805, Note_on_c, 0, 60, 98
2, 36808, Note_on_c, 0, 74, 110
2, 36809, Note_on_c, 0, 73, 0
2, 36816, Note_on_c, 0, 56, 0
2, 36816, Note_on_c, 0, 83, 0
2, 36824, Note_on_c, 0, 60, 0
2, 36830, Note_on_c, 0, 61, 102
2, 36833, Note_on_c, 0, 73, 114
2, 36836, Note_on_c, 0, 74, 0
2, 36859, Note_on_c, 0, 73, 0
2, 36860, Note_on_c, 0, 82, 98
2, 36860, Note_on_c, 0, 44, 117
2, 36860, Note_on_c, 0, 61, 0
2, 36870, Control_c, 0, 64, 0
2, 36890, Note_on_c, 0, 60, 98
2, 36890, Note_on_c, 0, 72, 123
2, 36895, Control_c, 0, 64, 127
2, 36908, Note_on_c, 0, 60, 0
2, 36912, Note_on_c, 0, 59, 91
2, 36915, Note_on_c, 0, 73, 112
2, 36920, Note_on_c, 0, 82, 0
2, 36920, Note_on_c, 0, 44, 0
2, 36921, Note_on_c, 0, 72, 0
2, 36935, Note_on_c, 0, 59, 0
2, 36940, Note_on_c, 0, 60, 98
2, 36942, Note_on_c, 0, 72, 112
2, 36945, Note_on_c, 0, 73, 0
2, 36953, Note_on_c, 0, 60, 0
2, 36957, Control_c, 0, 64, 0
2, 36965, Note_on_c, 0, 81, 102
2, 36965, Note_on_c, 0, 44, 113
2, 36967, Note_on_c, 0, 72, 0
2, 36995, Note_on_c, 0, 71, 117
2, 36995, Note_on_c, 0, 81, 0
2, 36996, Note_on_c, 0, 59, 119
2, 37003, Control_c, 0, 64, 127
2, 37017, Note_on_c, 0, 59, 0
2, 37020, Note_on_c, 0, 58, 104
2, 37022, Note_on_c, 0, 72, 105
2, 37025, Note_on_c, 0, 44, 0
2, 37026, Note_on_c, 0, 71, 0
2, 37042, Note_on_c, 0, 58, 0
2, 37045, Note_on_c, 0, 59, 110
2, 37048, Note_on_c, 0, 71, 109
2, 37049, Note_on_c, 0, 72, 0
2, 37070, Note_on_c, 0, 80, 109
2, 37071, Note_on_c, 0, 71, 0
2, 37072, Note_on_c, 0, 44, 92
2, 37075, Note_on_c, 0, 59, 0
2, 37083, Control_c, 0, 64, 0
2, 37100, Note_on_c, 0, 58, 121
2, 37100, Note_on_c, 0, 80, 0
2, 37101, Note_on_c, 0, 70, 125
2, 37108, Control_c, 0, 64, 127
2, 37120, Note_on_c, 0, 58, 0
2, 37125, Note_on_c, 0, 71, 106
2, 37125, Note_on_c, 0, 57, 101
2, 37128, Note_on_c, 0, 70, 0
2, 37132, Note_on_c, 0, 44, 0
2, 37140, Note_on_c, 0, 57, 0
2, 37149, Note_on_c, 0, 58, 95
2, 37150, Note_on_c, 0, 70, 106
2, 37152, Note_on_c, 0, 71, 0
2, 37166, Note_on_c, 0, 58, 0
2, 37175, Note_on_c, 0, 79, 99
2, 37176, Note_on_c, 0, 44, 119
2, 37176, Note_on_c, 0, 70, 0
2, 37190, Control_c, 0, 64, 0
2, 37202, Note_on_c, 0, 57, 114
2, 37203, Note_on_c, 0, 69, 118
2, 37205, Note_on_c, 0, 79, 0
2, 37229, Note_on_c, 0, 57, 0
2, 37230, Note_on_c, 0, 70, 118
2, 37230, Note_on_c, 0, 56, 113
2, 37231, Note_on_c, 0, 69, 0
2, 37236, Note_on_c, 0, 44, 0
2, 37255, Note_on_c, 0, 57, 116
2, 37255, Note_on_c, 0, 69, 116
2, 37255, Note_on_c, 0, 70, 0
2, 37255, Note_on_c, 0, 56, 0
2, 37258, Control_c, 0, 64, 127
2, 37267, Note_on_c, 0, 57, 0
2, 37276, Note_on_c, 0, 69, 0
2, 37277, Control_c, 0, 64, 0
2, 37280, Note_on_c, 0, 78, 101
2, 37280, Note_on_c, 0, 44, 116
2, 37308, Note_on_c, 0, 68, 127
2, 37308, Note_on_c, 0, 56, 124
2, 37310, Note_on_c, 0, 78, 0
2, 37313, Control_c, 0, 64, 127
2, 37328, Note_on_c, 0, 56, 0
2, 37330, Note_on_c, 0, 55, 105
2, 37332, Note_on_c, 0, 69, 108
2, 37332, Note_on_c, 0, 68, 0
2, 37340, Note_on_c, 0, 44, 0
2, 37346, Note_on_c, 0, 55, 0
2, 37348, Note_on_c, 0, 69, 0
2, 37355, Note_on_c, 0, 68, 98
2, 37356, Note_on_c, 0, 56, 88
2, 37380, Control_c, 0, 64, 0
2, 37380, Note_on_c, 0, 44, 116
2, 37381, Note_on_c, 0, 77, 114
2, 37383, Note_on_c, 0, 56, 0
2, 37388, Note_on_c, 0, 68, 0
2, 37410, Note_on_c, 0, 67, 119
2, 37410, Note_on_c, 0, 55, 117
2, 37411, Note_on_c, 0, 77, 0
2, 37421, Control_c, 0, 64, 127
2, 37431, Control_c, 0, 64, 0
2, 37435, Note_on_c, 0, 68, 120
2, 37435, Note_on_c, 0, 55, 0
2, 37436, Note_on_c, 0, 54, 111
2, 37440, Note_on_c, 0, 44, 0
2, 37440, Note_on_c, 0, 67, 0
2, 37460, Note_on_c, 0, 67, 110
2, 37461, Note_on_c, 0, 55, 114
2, 37462, Note_on_c, 0, 54, 0
2, 37465, Note_on_c, 0, 68, 0
2, 37481, Note_on_c, 0, 55, 0
2, 37483, Note_on_c, 0, 67, 0
2, 37485, Note_on_c, 0, 44, 114
2, 37485, Note_on_c, 0, 76, 91
2, 37513, Note_on_c, 0, 66, 127
2, 37513, Note_on_c, 0, 54, 126
2, 37515, Note_on_c, 0, 76, 0
2, 37515, Note_on_c, 0, 44, 0
2, 37520, Control_c, 0, 64, 127
2, 37535, Note_on_c, 0, 53, 118
2, 37536, Note_on_c, 0, 54, 0
2, 37538, Note_on_c, 0, 68, 106
2, 37543, Note_on_c, 0, 66, 0
2, 37563, Note_on_c, 0, 54, 121
2, 37563, Note_on_c, 0, 66, 122
2, 37565, Note_on_c, 0, 53, 0
2, 37567, Note_on_c, 0, 68, 0
2, 37571, Control_c, 0, 64, 0
2, 37585, Note_on_c, 0, 44, 102
2, 37586, Note_on_c, 0, 54, 0
2, 37588, Note_on_c, 0, 75, 107
2, 37593, Note_on_c, 0, 66, 0
2, 37615, Note_on_c, 0, 44, 0
2, 37617, Note_on_c, 0, 37, 112
2, 37618, Note_on_c, 0, 75, 0
2, 37620, Note_on_c, 0, 64, 118
2, 37622, Note_on_c, 0, 73, 101
2, 37628, Control_c, 0, 64, 127
2, 37628, Note_on_c, 0, 44, 100
2, 37638, Note_on_c, 0, 52, 103
2, 37647, Note_on_c, 0, 37, 0
2, 37650, Note_on_c, 0, 64, 0
2, 37652, Note_on_c, 0, 73, 0
2, 37658, Note_on_c, 0, 44, 0
2, 37668, Note_on_c, 0, 52, 0
2, 37675, Note_on_c, 0, 56, 121
2, 37700, Note_on_c, 0, 64, 115
2, 37703, Note_on_c, 0, 56, 0
2, 37722, Control_c, 0, 64, 0
2, 37723, Note_on_c, 0, 61, 116
2, 37730, Note_on_c, 0, 64, 0
2, 37735, Control_c, 0, 64, 127
2, 37738, Note_on_c, 0, 61, 0
2, 37750, Note_on_c, 0, 61, 106
2, 37770, Note_on_c, 0, 68, 108
2, 37780, Note_on_c, 0, 61, 0
2, 37796, Note_on_c, 0, 76, 110
2, 37800, Note_on_c, 0, 68, 0
2, 37820, Note_on_c, 0, 73, 111
2, 37823, Control_c, 0, 64, 0
2, 37828, Note_on_c, 0, 73, 0
2, 37833, Control_c, 0, 64, 127
2, 37843, Note_on_c, 0, 73, 116
2, 37848, Note_on_c, 0, 76, 0
2, 37867, Note_on_c, 0, 80, 109
2, 37873, Note_on_c, 0, 73, 0
2, 37893, Note_on_c, 0, 88, 104
2, 37904, Note_on_c, 0, 80, 0
2, 37916, Note_on_c, 0, 85, 116
2, 37919, Note_on_c, 0, 85, 0
2, 37921, Control_c, 0, 64, 0
2, 37931, Control_c, 0, 64, 127
2, 37941, Note_on_c, 0, 85, 119
2, 37959, Note_on_c, 0, 85, 0
2, 37965, Note_on_c, 0, 92, 116
2, 37983, Note_on_c, 0, 88, 0
2, 37987, Note_on_c, 0, 97, 111
2, 37991, Note_on_c, 0, 92, 0
2, 38008, Note_on_c, 0, 49, 93
2, 38011, Control_c, 0, 64, 0
2, 38012, Note_on_c, 0, 56, 112
2, 38017, Note_on_c, 0, 100, 120
2, 38017, Note_on_c, 0, 64, 127
2, 38023, Control_c, 0, 64, 127
2, 38024, Note_on_c, 0, 97, 0
2, 38043, Note_on_c, 0, 92, 108
2, 38068, Note_on_c, 0, 49, 0
2, 38070, Note_on_c, 0, 85, 102
2, 38072, Note_on_c, 0, 56, 0
2, 38077, Note_on_c, 0, 64, 0
2, 38077, Note_on_c, 0, 100, 0
2, 38077, Note_on_c, 0, 85, 0
2, 38092, Note_on_c, 0, 85, 102
2, 38103, Note_on_c, 0, 92, 0
2, 38105, Control_c, 0, 64, 0
2, 38116, Note_on_c, 0, 88, 106
2, 38122, Note_on_c, 0, 85, 0
2, 38125, Control_c, 0, 64, 127
2, 38141, Note_on_c, 0, 80, 95
2, 38165, Note_on_c, 0, 73, 108
2, 38172, Note_on_c, 0, 73, 0
2, 38176, Note_on_c, 0, 88, 0
2, 38185, Note_on_c, 0, 73, 103
2, 38201, Note_on_c, 0, 80, 0
2, 38210, Note_on_c, 0, 76, 109
2, 38215, Note_on_c, 0, 73, 0
2, 38235, Note_on_c, 0, 68, 101
2, 38260, Note_on_c, 0, 61, 111
2, 38266, Note_on_c, 0, 61, 0
2, 38270, Note_on_c, 0, 76, 0
2, 38285, Note_on_c, 0, 61, 107
2, 38295, Note_on_c, 0, 68, 0
2, 38307, Note_on_c, 0, 64, 113
2, 38315, Note_on_c, 0, 61, 0
2, 38334, Note_on_c, 0, 56, 111
2, 38360, Note_on_c, 0, 49, 120
2, 38367, Note_on_c, 0, 49, 0
2, 38367, Note_on_c, 0, 64, 0
2, 38385, Note_on_c, 0, 49, 122
2, 38393, Note_on_c, 0, 49, 0
2, 38394, Note_on_c, 0, 56, 0
2, 38420, Note_on_c, 0, 49, 127
2, 38420, Note_on_c, 0, 37, 126
2, 38425, Control_c, 0, 64, 0
2, 38440, Control_c, 0, 64, 127
2, 38488, Note_on_c, 0, 37, 0
2, 38495, Control_c, 0, 64, 0
2, 38495, Note_on_c, 0, 49, 0
2, 38550, Note_on_c, 0, 80, 127
2, 38550, Note_on_c, 0, 76, 127
2, 38550, Note_on_c, 0, 73, 127
2, 38550, Note_on_c, 0, 64, 127
2, 38550, Note_on_c, 0, 49, 127
2, 38550, Note_on_c, 0, 56, 127
2, 38552, Note_on_c, 0, 85, 127
2, 38555, Control_c, 0, 64, 127
2, 38647, Control_c, 0, 64, 0
2, 38670, Note_on_c, 0, 56, 0
2, 38670, Note_on_c, 0, 64, 0
2, 38670, Note_on_c, 0, 76, 0
2, 38670, Note_on_c, 0, 73, 0
2, 38670, Note_on_c, 0, 80, 0
2, 38670, Note_on_c, 0, 49, 0
2, 38672, Note_on_c, 0, 85, 0
2, 38700, Note_on_c, 0, 61, 127
2, 38700, Note_on_c, 0, 37, 127
2, 38700, Note_on_c, 0, 49, 127
2, 38706, Note_on_c, 0, 49, 0
2, 38707, Note_on_c, 0, 37, 0
2, 38707, Note_on_c, 0, 61, 0
2, 38722, Note_on_c, 0, 49, 127
2, 38722, Note_on_c, 0, 37, 127
2, 38722, Note_on_c, 0, 61, 127
2, 38723, Note_on_c, 0, 25, 127
2, 38727, Control_c, 0, 64, 127
2, 38872, Note_on_c, 0, 61, 0
2, 38872, Note_on_c, 0, 37, 0
2, 38873, Note_on_c, 0, 25, 0
2, 38879, Note_on_c, 0, 49, 0
2, 38879, End_track
3, 0, Start_track
3, 0, MIDI_port, 0
3, 0, Title_t, "Creative Labs Inc. (c)"
3, 0, End_track
4, 0, Start_track
4, 0, MIDI_port, 0
4, 0, Title_t, "Recorded by Dr. Chew"
4, 0, End_track
0, 0, End_of_file