0, 0, Header, 1, 9, 480
1, 0, Start_track
1, 0, Title_t, "Chopin Prelude No. 9"
1, 0, Copyright_t, "Copyright \251 1997 by Bernd Krueger http://www.piano-midi.de"
1, 0, Text_t, "Frediric Chopin"
1, 0, Text_t, "Largo"
1, 0, Text_t, "Fertiggestellt am 6.5.97\012"
1, 0, Text_t, "Korrekturen am 27.8.98\012"
1, 0, Text_t, "Anpassungen an Digitalpiano am 23.12.98\012"
1, 0, Text_t, "Update am 13.4.99\012"
1, 0, Text_t, "Normierung: 23.12.2002\012"
1, 0, Text_t, "Update am 23.12.2002\012"
1, 0, Text_t, "Dauer: 1:28 Minuten\012"
1, 0, Time_signature, 4, 2, 24, 8
1, 0, Key_signature, 4, "major"
1, 0, Tempo, 1714286
1, 1440, Tempo, 1714286
1, 1520, Tempo, 1739130
1, 1600, Tempo, 1764706
1, 1660, Tempo, 1791045
1, 1740, Tempo, 1818182
1, 1820, Tempo, 1846154
1, 1880, Tempo, 1875000
1, 1920, Tempo, 1791045
1, 2400, Tempo, 1714286
1, 2880, Tempo, 1764706
1, 3360, Tempo, 1666667
1, 3840, Tempo, 1739130
1, 4800, Tempo, 1818182
1, 5760, Tempo, 1818182
1, 6600, Tempo, 1875000
1, 6680, Tempo, 2105263
1, 6720, Tempo, 1791045
1, 7180, Tempo, 1764706
1, 7220, Tempo, 1791045
1, 7260, Tempo, 1818182
1, 7300, Tempo, 1846154
1, 7340, Tempo, 1875000
1, 7380, Tempo, 1904762
1, 7420, Tempo, 1935484
1, 7460, Tempo, 1967213
1, 7500, Tempo, 2000000
1, 7560, Tempo, 2222222
1, 7680, Tempo, 1875000
1, 8160, Tempo, 1791045
1, 8640, Tempo, 1666667
1, 9120, Tempo, 1714286
1, 9600, Tempo, 1714286
1, 10560, Tempo, 1643836
1, 11040, Tempo, 1666667
1, 11520, Tempo, 1739130
1, 12000, Tempo, 1643836
1, 12960, Tempo, 1714286
1, 13280, Tempo, 1935484
1, 13440, Tempo, 1739130
1, 13800, Tempo, 1904762
1, 13920, Tempo, 1739130
1, 14888, Tempo, 1818182
1, 14920, Tempo, 1875000
1, 14936, Tempo, 1935484
1, 14952, Tempo, 2000000
1, 15000, Tempo, 2307692
1, 15200, Tempo, 2448980
1, 15368, Tempo, 1818182
1, 16320, Tempo, 1739130
1, 16800, Tempo, 1818182
1, 17760, Tempo, 1818182
1, 18240, Tempo, 1739130
1, 18720, Tempo, 1791045
1, 20344, Tempo, 1935484
1, 20648, Tempo, 2000000
1, 20864, Tempo, 2068966
1, 21120, Tempo, 1935484
1, 21600, Tempo, 2142857
1, 22088, Tempo, 3157895
1, 22088, End_track
2, 0, Start_track
2, 0, MIDI_port, 0
2, 0, Title_t, "Piasno right"
2, 0, Program_c, 0, 0
2, 0, Control_c, 0, 7, 100
2, 0, Control_c, 0, 10, 64
2, 0, Control_c, 0, 91, 127
2, 0, Control_c, 0, 64, 0
2, 0, Text_t, "bdca426d104a26ac9dcb070447587523"
2, 0, Control_c, 0, 91, 127
2, 1, Note_on_c, 0, 59, 80
2, 480, Note_on_c, 0, 59, 0
2, 480, Note_on_c, 0, 59, 74
2, 880, Note_on_c, 0, 59, 0
2, 880, Note_on_c, 0, 59, 77
2, 960, Note_on_c, 0, 59, 0
2, 960, Note_on_c, 0, 59, 80
2, 1440, Note_on_c, 0, 59, 0
2, 1440, Note_on_c, 0, 61, 72
2, 1920, Note_on_c, 0, 61, 0
2, 1920, Note_on_c, 0, 61, 76
2, 2400, Note_on_c, 0, 61, 0
2, 2400, Note_on_c, 0, 63, 78
2, 2800, Note_on_c, 0, 63, 0
2, 2800, Note_on_c, 0, 63, 75
2, 2880, Note_on_c, 0, 63, 0
2, 2880, Note_on_c, 0, 63, 75
2, 3360, Note_on_c, 0, 63, 0
2, 3360, Note_on_c, 0, 63, 73
2, 3840, Note_on_c, 0, 63, 0
2, 3840, Note_on_c, 0, 64, 75
2, 4320, Note_on_c, 0, 64, 0
2, 4320, Note_on_c, 0, 64, 76
2, 4720, Note_on_c, 0, 64, 0
2, 4720, Note_on_c, 0, 64, 80
2, 4800, Note_on_c, 0, 64, 0
2, 4800, Note_on_c, 0, 64, 80
2, 5280, Note_on_c, 0, 64, 0
2, 5280, Note_on_c, 0, 63, 85
2, 5680, Note_on_c, 0, 63, 0
2, 5680, Note_on_c, 0, 63, 85
2, 5760, Note_on_c, 0, 63, 0
2, 5760, Note_on_c, 0, 63, 90
2, 6240, Note_on_c, 0, 63, 0
2, 6240, Note_on_c, 0, 63, 80
2, 6640, Note_on_c, 0, 63, 0
2, 6640, Note_on_c, 0, 61, 64
2, 6720, Note_on_c, 0, 61, 0
2, 6720, Note_on_c, 0, 61, 64
2, 7200, Note_on_c, 0, 61, 0
2, 7200, Note_on_c, 0, 61, 64
2, 7600, Note_on_c, 0, 61, 0
2, 7600, Note_on_c, 0, 59, 54
2, 7680, Note_on_c, 0, 59, 0
2, 7680, Note_on_c, 0, 59, 49
2, 8160, Note_on_c, 0, 59, 0
2, 8160, Note_on_c, 0, 59, 52
2, 8560, Note_on_c, 0, 59, 0
2, 8560, Note_on_c, 0, 59, 56
2, 8640, Note_on_c, 0, 59, 0
2, 8640, Note_on_c, 0, 59, 56
2, 9120, Note_on_c, 0, 59, 0
2, 9120, Note_on_c, 0, 59, 60
2, 9520, Note_on_c, 0, 59, 0
2, 9520, Note_on_c, 0, 59, 71
2, 9600, Note_on_c, 0, 59, 0
2, 9600, Note_on_c, 0, 60, 73
2, 10080, Note_on_c, 0, 60, 0
2, 10080, Note_on_c, 0, 62, 76
2, 10560, Note_on_c, 0, 62, 0
2, 10560, Note_on_c, 0, 64, 80
2, 11040, Note_on_c, 0, 64, 0
2, 11040, Note_on_c, 0, 64, 84
2, 11440, Note_on_c, 0, 64, 0
2, 11440, Note_on_c, 0, 64, 87
2, 11520, Note_on_c, 0, 64, 0
2, 11520, Note_on_c, 0, 64, 90
2, 12000, Note_on_c, 0, 64, 0
2, 12000, Note_on_c, 0, 64, 91
2, 12400, Note_on_c, 0, 64, 0
2, 12400, Note_on_c, 0, 64, 91
2, 12480, Note_on_c, 0, 64, 0
2, 12480, Note_on_c, 0, 65, 93
2, 12960, Note_on_c, 0, 65, 0
2, 12960, Note_on_c, 0, 67, 93
2, 13440, Note_on_c, 0, 67, 0
2, 13440, Note_on_c, 0, 68, 96
2, 13760, Note_on_c, 0, 68, 0
2, 13760, Note_on_c, 0, 63, 91
2, 13920, Note_on_c, 0, 63, 0
2, 13920, Note_on_c, 0, 63, 88
2, 14320, Note_on_c, 0, 63, 0
2, 14320, Note_on_c, 0, 61, 78
2, 14400, Note_on_c, 0, 61, 0
2, 14400, Note_on_c, 0, 60, 75
2, 14800, Note_on_c, 0, 60, 0
2, 14800, Note_on_c, 0, 59, 71
2, 14880, Note_on_c, 0, 59, 0
2, 14880, Note_on_c, 0, 59, 69
2, 15280, Note_on_c, 0, 59, 0
2, 15280, Note_on_c, 0, 59, 44
2, 15360, Note_on_c, 0, 59, 0
2, 15360, Note_on_c, 0, 59, 48
2, 15840, Note_on_c, 0, 59, 0
2, 15840, Note_on_c, 0, 59, 53
2, 16260, Note_on_c, 0, 59, 0
2, 16260, Note_on_c, 0, 59, 54
2, 16320, Note_on_c, 0, 59, 0
2, 16320, Note_on_c, 0, 59, 57
2, 16800, Note_on_c, 0, 59, 0
2, 16800, Note_on_c, 0, 60, 61
2, 17280, Note_on_c, 0, 60, 0
2, 17280, Note_on_c, 0, 60, 66
2, 17760, Note_on_c, 0, 60, 0
2, 17760, Note_on_c, 0, 60, 52
2, 18180, Note_on_c, 0, 60, 0
2, 18180, Note_on_c, 0, 60, 53
2, 18240, Note_on_c, 0, 60, 0
2, 18240, Note_on_c, 0, 60, 54
2, 18720, Note_on_c, 0, 60, 0
2, 18720, Note_on_c, 0, 62, 67
2, 19120, Note_on_c, 0, 62, 0
2, 19120, Note_on_c, 0, 62, 72
2, 19200, Note_on_c, 0, 62, 0
2, 19200, Note_on_c, 0, 62, 61
2, 19680, Note_on_c, 0, 62, 0
2, 19680, Note_on_c, 0, 62, 74
2, 20100, Note_on_c, 0, 62, 0
2, 20100, Note_on_c, 0, 62, 73
2, 20160, Note_on_c, 0, 62, 0
2, 20160, Note_on_c, 0, 62, 73
2, 20640, Note_on_c, 0, 62, 0
2, 20640, Note_on_c, 0, 63, 79
2, 21060, Note_on_c, 0, 63, 0
2, 21060, Note_on_c, 0, 64, 94
2, 21120, Note_on_c, 0, 64, 0
2, 21120, Note_on_c, 0, 64, 96
2, 21600, Note_on_c, 0, 64, 0
2, 21600, Note_on_c, 0, 64, 96
2, 22020, Note_on_c, 0, 64, 0
2, 22020, Note_on_c, 0, 64, 96
2, 22080, Note_on_c, 0, 64, 0
2, 22080, Note_on_c, 0, 64, 96
2, 23040, Note_on_c, 0, 64, 0
2, 23040, End_track
3, 0, Start_track
3, 0, MIDI_port, 0
3, 0, Title_t, "Piano right Main"
3, 0, Program_c, 0, 0
3, 0, Control_c, 0, 7, 100
3, 0, Control_c, 0, 10, 64
3, 0, Control_c, 0, 91, 127
3, 4, Note_on_c, 0, 52, 49
3, 4, Note_on_c, 0, 56, 58
3, 160, Note_on_c, 0, 47, 44
3, 164, Note_on_c, 0, 56, 0
3, 164, Note_on_c, 0, 52, 0
3, 320, Note_on_c, 0, 47, 0
3, 320, Note_on_c, 0, 52, 33
3, 320, Note_on_c, 0, 56, 40
3, 480, Note_on_c, 0, 56, 0
3, 480, Note_on_c, 0, 52, 0
3, 480, Note_on_c, 0, 51, 45
3, 480, Note_on_c, 0, 54, 54
3, 640, Note_on_c, 0, 54, 0
3, 640, Note_on_c, 0, 51, 0
3, 640, Note_on_c, 0, 47, 43
3, 800, Note_on_c, 0, 47, 0
3, 800, Note_on_c, 0, 51, 32
3, 800, Note_on_c, 0, 54, 38
3, 960, Note_on_c, 0, 54, 0
3, 960, Note_on_c, 0, 51, 0
3, 960, Note_on_c, 0, 52, 50
3, 960, Note_on_c, 0, 56, 60
3, 1120, Note_on_c, 0, 56, 0
3, 1120, Note_on_c, 0, 52, 0
3, 1120, Note_on_c, 0, 47, 39
3, 1280, Note_on_c, 0, 47, 0
3, 1280, Note_on_c, 0, 52, 28
3, 1280, Note_on_c, 0, 56, 34
3, 1440, Note_on_c, 0, 56, 0
3, 1440, Note_on_c, 0, 52, 0
3, 1440, Note_on_c, 0, 52, 48
3, 1440, Note_on_c, 0, 57, 57
3, 1600, Note_on_c, 0, 57, 0
3, 1600, Note_on_c, 0, 52, 0
3, 1600, Note_on_c, 0, 49, 38
3, 1760, Note_on_c, 0, 49, 0
3, 1760, Note_on_c, 0, 52, 28
3, 1760, Note_on_c, 0, 57, 34
3, 1920, Note_on_c, 0, 57, 0
3, 1920, Note_on_c, 0, 52, 0
3, 1920, Note_on_c, 0, 54, 54
3, 1920, Note_on_c, 0, 57, 64
3, 2080, Note_on_c, 0, 57, 0
3, 2080, Note_on_c, 0, 54, 0
3, 2080, Note_on_c, 0, 49, 38
3, 2240, Note_on_c, 0, 49, 0
3, 2240, Note_on_c, 0, 54, 30
3, 2240, Note_on_c, 0, 57, 36
3, 2400, Note_on_c, 0, 57, 0
3, 2400, Note_on_c, 0, 54, 0
3, 2400, Note_on_c, 0, 54, 52
3, 2400, Note_on_c, 0, 57, 61
3, 2560, Note_on_c, 0, 57, 0
3, 2560, Note_on_c, 0, 54, 0
3, 2560, Note_on_c, 0, 49, 35
3, 2720, Note_on_c, 0, 49, 0
3, 2720, Note_on_c, 0, 54, 26
3, 2720, Note_on_c, 0, 57, 31
3, 2880, Note_on_c, 0, 57, 0
3, 2880, Note_on_c, 0, 54, 0
3, 2880, Note_on_c, 0, 54, 50
3, 2880, Note_on_c, 0, 59, 60
3, 3040, Note_on_c, 0, 59, 0
3, 3040, Note_on_c, 0, 54, 0
3, 3040, Note_on_c, 0, 51, 35
3, 3200, Note_on_c, 0, 51, 0
3, 3200, Note_on_c, 0, 54, 29
3, 3200, Note_on_c, 0, 59, 35
3, 3360, Note_on_c, 0, 59, 0
3, 3360, Note_on_c, 0, 54, 0
3, 3360, Note_on_c, 0, 56, 50
3, 3360, Note_on_c, 0, 59, 60
3, 3520, Note_on_c, 0, 59, 0
3, 3520, Note_on_c, 0, 56, 0
3, 3520, Note_on_c, 0, 51, 37
3, 3680, Note_on_c, 0, 51, 0
3, 3680, Note_on_c, 0, 56, 31
3, 3680, Note_on_c, 0, 59, 37
3, 3840, Note_on_c, 0, 59, 0
3, 3840, Note_on_c, 0, 56, 0
3, 3840, Note_on_c, 0, 56, 48
3, 3840, Note_on_c, 0, 59, 57
3, 4000, Note_on_c, 0, 59, 0
3, 4000, Note_on_c, 0, 56, 0
3, 4000, Note_on_c, 0, 52, 40
3, 4160, Note_on_c, 0, 52, 0
3, 4160, Note_on_c, 0, 56, 31
3, 4160, Note_on_c, 0, 59, 37
3, 4320, Note_on_c, 0, 59, 0
3, 4320, Note_on_c, 0, 56, 0
3, 4320, Note_on_c, 0, 61, 60
3, 4320, Note_on_c, 0, 54, 51
3, 4480, Note_on_c, 0, 54, 0
3, 4480, Note_on_c, 0, 61, 0
3, 4480, Note_on_c, 0, 52, 38
3, 4640, Note_on_c, 0, 52, 0
3, 4640, Note_on_c, 0, 61, 36
3, 4640, Note_on_c, 0, 54, 30
3, 4800, Note_on_c, 0, 54, 0
3, 4800, Note_on_c, 0, 61, 0
3, 4800, Note_on_c, 0, 59, 64
3, 4800, Note_on_c, 0, 54, 54
3, 4960, Note_on_c, 0, 54, 0
3, 4960, Note_on_c, 0, 59, 0
3, 4960, Note_on_c, 0, 52, 38
3, 5120, Note_on_c, 0, 52, 0
3, 5120, Note_on_c, 0, 59, 36
3, 5120, Note_on_c, 0, 54, 31
3, 5280, Note_on_c, 0, 54, 0
3, 5280, Note_on_c, 0, 59, 0
3, 5280, Note_on_c, 0, 59, 64
3, 5280, Note_on_c, 0, 54, 54
3, 5440, Note_on_c, 0, 54, 0
3, 5440, Note_on_c, 0, 59, 0
3, 5440, Note_on_c, 0, 51, 38
3, 5600, Note_on_c, 0, 51, 0
3, 5600, Note_on_c, 0, 59, 41
3, 5600, Note_on_c, 0, 54, 35
3, 5760, Note_on_c, 0, 54, 0
3, 5760, Note_on_c, 0, 59, 0
3, 5760, Note_on_c, 0, 56, 59
3, 5760, Note_on_c, 0, 59, 70
3, 5920, Note_on_c, 0, 59, 0
3, 5920, Note_on_c, 0, 56, 0
3, 5920, Note_on_c, 0, 52, 41
3, 6080, Note_on_c, 0, 52, 0
3, 6080, Note_on_c, 0, 56, 32
3, 6080, Note_on_c, 0, 59, 39
3, 6240, Note_on_c, 0, 59, 0
3, 6240, Note_on_c, 0, 56, 0
3, 6240, Note_on_c, 0, 54, 54
3, 6240, Note_on_c, 0, 58, 64
3, 6400, Note_on_c, 0, 58, 0
3, 6400, Note_on_c, 0, 54, 0
3, 6400, Note_on_c, 0, 52, 38
3, 6560, Note_on_c, 0, 52, 0
3, 6560, Note_on_c, 0, 54, 29
3, 6560, Note_on_c, 0, 58, 35
3, 6720, Note_on_c, 0, 58, 0
3, 6720, Note_on_c, 0, 54, 0
3, 6720, Note_on_c, 0, 54, 42
3, 6720, Note_on_c, 0, 57, 50
3, 6880, Note_on_c, 0, 57, 0
3, 6880, Note_on_c, 0, 54, 0
3, 6880, Note_on_c, 0, 49, 35
3, 7040, Note_on_c, 0, 49, 0
3, 7040, Note_on_c, 0, 54, 29
3, 7040, Note_on_c, 0, 57, 35
3, 7200, Note_on_c, 0, 57, 0
3, 7200, Note_on_c, 0, 54, 0
3, 7200, Note_on_c, 0, 54, 43
3, 7200, Note_on_c, 0, 57, 51
3, 7360, Note_on_c, 0, 57, 0
3, 7360, Note_on_c, 0, 54, 0
3, 7360, Note_on_c, 0, 47, 37
3, 7520, Note_on_c, 0, 47, 0
3, 7520, Note_on_c, 0, 54, 27
3, 7520, Note_on_c, 0, 57, 32
3, 7680, Note_on_c, 0, 57, 0
3, 7680, Note_on_c, 0, 54, 0
3, 7680, Note_on_c, 0, 52, 32
3, 7680, Note_on_c, 0, 56, 38
3, 7840, Note_on_c, 0, 56, 0
3, 7840, Note_on_c, 0, 52, 0
3, 7840, Note_on_c, 0, 47, 30
3, 8000, Note_on_c, 0, 47, 0
3, 8000, Note_on_c, 0, 52, 25
3, 8000, Note_on_c, 0, 56, 30
3, 8160, Note_on_c, 0, 56, 0
3, 8160, Note_on_c, 0, 52, 0
3, 8160, Note_on_c, 0, 51, 34
3, 8160, Note_on_c, 0, 54, 40
3, 8320, Note_on_c, 0, 54, 0
3, 8320, Note_on_c, 0, 51, 0
3, 8320, Note_on_c, 0, 47, 32
3, 8480, Note_on_c, 0, 47, 0
3, 8480, Note_on_c, 0, 51, 27
3, 8480, Note_on_c, 0, 54, 32
3, 8640, Note_on_c, 0, 54, 0
3, 8640, Note_on_c, 0, 51, 0
3, 8640, Note_on_c, 0, 50, 35
3, 8640, Note_on_c, 0, 55, 41
3, 8800, Note_on_c, 0, 55, 0
3, 8800, Note_on_c, 0, 50, 0
3, 8800, Note_on_c, 0, 47, 34
3, 8960, Note_on_c, 0, 47, 0
3, 8960, Note_on_c, 0, 50, 27
3, 8960, Note_on_c, 0, 55, 32
3, 9120, Note_on_c, 0, 55, 0
3, 9120, Note_on_c, 0, 50, 0
3, 9120, Note_on_c, 0, 50, 40
3, 9120, Note_on_c, 0, 55, 48
3, 9280, Note_on_c, 0, 55, 0
3, 9280, Note_on_c, 0, 50, 0
3, 9280, Note_on_c, 0, 47, 36
3, 9440, Note_on_c, 0, 47, 0
3, 9440, Note_on_c, 0, 50, 29
3, 9440, Note_on_c, 0, 55, 35
3, 9600, Note_on_c, 0, 55, 0
3, 9600, Note_on_c, 0, 50, 0
3, 9600, Note_on_c, 0, 55, 58
3, 9760, Note_on_c, 0, 55, 0
3, 9760, Note_on_c, 0, 48, 40
3, 9920, Note_on_c, 0, 48, 0
3, 9920, Note_on_c, 0, 55, 40
3, 10080, Note_on_c, 0, 55, 0
3, 10080, Note_on_c, 0, 58, 60
3, 10080, Note_on_c, 0, 55, 50
3, 10240, Note_on_c, 0, 55, 0
3, 10240, Note_on_c, 0, 58, 0
3, 10240, Note_on_c, 0, 50, 41
3, 10400, Note_on_c, 0, 50, 0
3, 10400, Note_on_c, 0, 58, 41
3, 10400, Note_on_c, 0, 55, 35
3, 10560, Note_on_c, 0, 55, 0
3, 10560, Note_on_c, 0, 58, 0
3, 10560, Note_on_c, 0, 58, 63
3, 10560, Note_on_c, 0, 55, 53
3, 10720, Note_on_c, 0, 55, 0
3, 10720, Note_on_c, 0, 58, 0
3, 10720, Note_on_c, 0, 52, 44
3, 10880, Note_on_c, 0, 52, 0
3, 10880, Note_on_c, 0, 58, 44
3, 10880, Note_on_c, 0, 55, 37
3, 11040, Note_on_c, 0, 55, 0
3, 11040, Note_on_c, 0, 58, 0
3, 11040, Note_on_c, 0, 60, 64
3, 11040, Note_on_c, 0, 55, 54
3, 11200, Note_on_c, 0, 55, 0
3, 11200, Note_on_c, 0, 60, 0
3, 11200, Note_on_c, 0, 52, 57
3, 11360, Note_on_c, 0, 52, 0
3, 11360, Note_on_c, 0, 60, 55
3, 11360, Note_on_c, 0, 55, 46
3, 11520, Note_on_c, 0, 55, 0
3, 11520, Note_on_c, 0, 60, 0
3, 11520, Note_on_c, 0, 57, 59
3, 11520, Note_on_c, 0, 61, 70
3, 11680, Note_on_c, 0, 61, 0
3, 11680, Note_on_c, 0, 57, 0
3, 11680, Note_on_c, 0, 52, 63
3, 11840, Note_on_c, 0, 52, 0
3, 11840, Note_on_c, 0, 61, 57
3, 11840, Note_on_c, 0, 57, 48
3, 12000, Note_on_c, 0, 57, 0
3, 12000, Note_on_c, 0, 61, 0
3, 12000, Note_on_c, 0, 58, 59
3, 12000, Note_on_c, 0, 61, 70
3, 12160, Note_on_c, 0, 61, 0
3, 12160, Note_on_c, 0, 58, 0
3, 12160, Note_on_c, 0, 52, 62
3, 12320, Note_on_c, 0, 52, 0
3, 12320, Note_on_c, 0, 58, 48
3, 12320, Note_on_c, 0, 61, 57
3, 12480, Note_on_c, 0, 61, 0
3, 12480, Note_on_c, 0, 58, 0
3, 12480, Note_on_c, 0, 58, 62
3, 12480, Note_on_c, 0, 61, 73
3, 12640, Note_on_c, 0, 61, 0
3, 12640, Note_on_c, 0, 58, 0
3, 12640, Note_on_c, 0, 53, 61
3, 12800, Note_on_c, 0, 53, 0
3, 12800, Note_on_c, 0, 58, 48
3, 12800, Note_on_c, 0, 61, 57
3, 12960, Note_on_c, 0, 61, 0
3, 12960, Note_on_c, 0, 58, 0
3, 12960, Note_on_c, 0, 58, 62
3, 12960, Note_on_c, 0, 61, 73
3, 13120, Note_on_c, 0, 61, 0
3, 13120, Note_on_c, 0, 58, 0
3, 13120, Note_on_c, 0, 55, 63
3, 13280, Note_on_c, 0, 55, 0
3, 13280, Note_on_c, 0, 58, 48
3, 13280, Note_on_c, 0, 61, 57
3, 13440, Note_on_c, 0, 61, 0
3, 13440, Note_on_c, 0, 58, 0
3, 13440, Note_on_c, 0, 56, 60
3, 13440, Note_on_c, 0, 60, 72
3, 13600, Note_on_c, 0, 60, 0
3, 13600, Note_on_c, 0, 56, 0
3, 13600, Note_on_c, 0, 51, 52
3, 13760, Note_on_c, 0, 51, 0
3, 13760, Note_on_c, 0, 56, 40
3, 13760, Note_on_c, 0, 60, 48
3, 13920, Note_on_c, 0, 60, 0
3, 13920, Note_on_c, 0, 56, 0
3, 13920, Note_on_c, 0, 55, 60
3, 13920, Note_on_c, 0, 60, 72
3, 14080, Note_on_c, 0, 60, 0
3, 14080, Note_on_c, 0, 55, 0
3, 14080, Note_on_c, 0, 51, 48
3, 14240, Note_on_c, 0, 51, 0
3, 14240, Note_on_c, 0, 55, 40
3, 14240, Note_on_c, 0, 58, 48
3, 14400, Note_on_c, 0, 58, 0
3, 14400, Note_on_c, 0, 55, 0
3, 14400, Note_on_c, 0, 56, 63
3, 14560, Note_on_c, 0, 56, 0
3, 14560, Note_on_c, 0, 51, 38
3, 14720, Note_on_c, 0, 51, 0
3, 14720, Note_on_c, 0, 56, 38
3, 14880, Note_on_c, 0, 56, 0
3, 14880, Note_on_c, 0, 51, 45
3, 14880, Note_on_c, 0, 56, 54
3, 15040, Note_on_c, 0, 56, 0
3, 15040, Note_on_c, 0, 51, 0
3, 15040, Note_on_c, 0, 47, 33
3, 15200, Note_on_c, 0, 47, 0
3, 15200, Note_on_c, 0, 51, 28
3, 15200, Note_on_c, 0, 57, 33
3, 15360, Note_on_c, 0, 57, 0
3, 15360, Note_on_c, 0, 51, 0
3, 15360, Note_on_c, 0, 52, 32
3, 15360, Note_on_c, 0, 56, 38
3, 15520, Note_on_c, 0, 56, 0
3, 15520, Note_on_c, 0, 52, 0
3, 15520, Note_on_c, 0, 47, 25
3, 15680, Note_on_c, 0, 47, 0
3, 15680, Note_on_c, 0, 52, 22
3, 15680, Note_on_c, 0, 56, 26
3, 15840, Note_on_c, 0, 56, 0
3, 15840, Note_on_c, 0, 52, 0
3, 15840, Note_on_c, 0, 51, 33
3, 15840, Note_on_c, 0, 54, 40
3, 16000, Note_on_c, 0, 54, 0
3, 16000, Note_on_c, 0, 51, 0
3, 16000, Note_on_c, 0, 47, 27
3, 16160, Note_on_c, 0, 47, 0
3, 16160, Note_on_c, 0, 51, 22
3, 16160, Note_on_c, 0, 54, 27
3, 16320, Note_on_c, 0, 54, 0
3, 16320, Note_on_c, 0, 51, 0
3, 16320, Note_on_c, 0, 52, 39
3, 16320, Note_on_c, 0, 56, 46
3, 16480, Note_on_c, 0, 56, 0
3, 16480, Note_on_c, 0, 52, 0
3, 16480, Note_on_c, 0, 47, 28
3, 16640, Note_on_c, 0, 47, 0
3, 16640, Note_on_c, 0, 52, 24
3, 16640, Note_on_c, 0, 56, 28
3, 16800, Note_on_c, 0, 56, 0
3, 16800, Note_on_c, 0, 52, 0
3, 16800, Note_on_c, 0, 52, 40
3, 16800, Note_on_c, 0, 57, 48
3, 16960, Note_on_c, 0, 57, 0
3, 16960, Note_on_c, 0, 52, 0
3, 16960, Note_on_c, 0, 48, 35
3, 17120, Note_on_c, 0, 48, 0
3, 17120, Note_on_c, 0, 52, 29
3, 17120, Note_on_c, 0, 57, 35
3, 17280, Note_on_c, 0, 57, 0
3, 17280, Note_on_c, 0, 52, 0
3, 17280, Note_on_c, 0, 53, 44
3, 17280, Note_on_c, 0, 57, 52
3, 17440, Note_on_c, 0, 57, 0
3, 17440, Note_on_c, 0, 53, 0
3, 17440, Note_on_c, 0, 48, 36
3, 17600, Note_on_c, 0, 48, 0
3, 17600, Note_on_c, 0, 53, 31
3, 17600, Note_on_c, 0, 57, 36
3, 17760, Note_on_c, 0, 57, 0
3, 17760, Note_on_c, 0, 53, 0
3, 17760, Note_on_c, 0, 52, 31
3, 17760, Note_on_c, 0, 55, 37
3, 17920, Note_on_c, 0, 55, 0
3, 17920, Note_on_c, 0, 52, 0
3, 17920, Note_on_c, 0, 48, 25
3, 18080, Note_on_c, 0, 48, 0
3, 18080, Note_on_c, 0, 52, 21
3, 18080, Note_on_c, 0, 55, 25
3, 18240, Note_on_c, 0, 55, 0
3, 18240, Note_on_c, 0, 52, 0
3, 18240, Note_on_c, 0, 53, 36
3, 18240, Note_on_c, 0, 57, 43
3, 18400, Note_on_c, 0, 57, 0
3, 18400, Note_on_c, 0, 53, 0
3, 18400, Note_on_c, 0, 48, 28
3, 18560, Note_on_c, 0, 48, 0
3, 18560, Note_on_c, 0, 53, 24
3, 18560, Note_on_c, 0, 57, 28
3, 18720, Note_on_c, 0, 57, 0
3, 18720, Note_on_c, 0, 53, 0
3, 18720, Note_on_c, 0, 53, 43
3, 18720, Note_on_c, 0, 58, 51
3, 18880, Note_on_c, 0, 58, 0
3, 18880, Note_on_c, 0, 53, 0
3, 18880, Note_on_c, 0, 50, 35
3, 19040, Note_on_c, 0, 50, 0
3, 19040, Note_on_c, 0, 53, 26
3, 19040, Note_on_c, 0, 58, 31
3, 19200, Note_on_c, 0, 58, 0
3, 19200, Note_on_c, 0, 53, 0
3, 19200, Note_on_c, 0, 55, 34
3, 19200, Note_on_c, 0, 58, 56
3, 19360, Note_on_c, 0, 58, 0
3, 19360, Note_on_c, 0, 55, 0
3, 19360, Note_on_c, 0, 50, 46
3, 19520, Note_on_c, 0, 50, 0
3, 19520, Note_on_c, 0, 55, 36
3, 19520, Note_on_c, 0, 58, 51
3, 19680, Note_on_c, 0, 58, 0
3, 19680, Note_on_c, 0, 55, 0
3, 19680, Note_on_c, 0, 54, 51
3, 19680, Note_on_c, 0, 57, 60
3, 19840, Note_on_c, 0, 57, 0
3, 19840, Note_on_c, 0, 54, 0
3, 19840, Note_on_c, 0, 50, 55
3, 20000, Note_on_c, 0, 50, 0
3, 20000, Note_on_c, 0, 54, 52
3, 20000, Note_on_c, 0, 57, 52
3, 20160, Note_on_c, 0, 57, 0
3, 20160, Note_on_c, 0, 54, 0
3, 20160, Note_on_c, 0, 55, 51
3, 20160, Note_on_c, 0, 59, 60
3, 20320, Note_on_c, 0, 59, 0
3, 20320, Note_on_c, 0, 55, 0
3, 20320, Note_on_c, 0, 50, 55
3, 20480, Note_on_c, 0, 50, 0
3, 20480, Note_on_c, 0, 55, 39
3, 20480, Note_on_c, 0, 59, 55
3, 20640, Note_on_c, 0, 59, 0
3, 20640, Note_on_c, 0, 55, 0
3, 20640, Note_on_c, 0, 54, 42
3, 20640, Note_on_c, 0, 59, 70
3, 20800, Note_on_c, 0, 59, 0
3, 20800, Note_on_c, 0, 54, 0
3, 20800, Note_on_c, 0, 51, 64
3, 20960, Note_on_c, 0, 51, 0
3, 20960, Note_on_c, 0, 54, 42
3, 20960, Note_on_c, 0, 59, 59
3, 21120, Note_on_c, 0, 59, 0
3, 21120, Note_on_c, 0, 54, 0
3, 21120, Note_on_c, 0, 56, 54
3, 21120, Note_on_c, 0, 59, 76
3, 21280, Note_on_c, 0, 59, 0
3, 21280, Note_on_c, 0, 56, 0
3, 21280, Note_on_c, 0, 52, 66
3, 21440, Note_on_c, 0, 52, 0
3, 21440, Note_on_c, 0, 56, 50
3, 21440, Note_on_c, 0, 59, 59
3, 21600, Note_on_c, 0, 59, 0
3, 21600, Note_on_c, 0, 56, 0
3, 21600, Note_on_c, 0, 56, 54
3, 21600, Note_on_c, 0, 59, 76
3, 21760, Note_on_c, 0, 59, 0
3, 21760, Note_on_c, 0, 56, 0
3, 21760, Note_on_c, 0, 52, 67
3, 21920, Note_on_c, 0, 52, 0
3, 21920, Note_on_c, 0, 59, 57
3, 21920, Note_on_c, 0, 56, 48
3, 22080, Note_on_c, 0, 56, 0
3, 22080, Note_on_c, 0, 56, 54
3, 22080, Note_on_c, 0, 52, 54
3, 23040, Note_on_c, 0, 52, 0
3, 23040, Note_on_c, 0, 56, 0
3, 23040, Note_on_c, 0, 59, 0
3, 23040, End_track
4, 0, Start_track
4, 0, MIDI_port, 0
4, 0, Title_t, "Piano left"
4, 0, Program_c, 0, 0
4, 0, Control_c, 0, 7, 100
4, 0, Control_c, 0, 10, 64
4, 0, Control_c, 0, 91, 127
4, 4, Note_on_c, 0, 40, 61
4, 24, Control_c, 0, 64, 127
4, 466, Control_c, 0, 64, 0
4, 480, Note_on_c, 0, 35, 55
4, 484, Note_on_c, 0, 40, 0
4, 529, Control_c, 0, 64, 127
4, 960, Note_on_c, 0, 35, 0
4, 960, Note_on_c, 0, 40, 66
4, 974, Control_c, 0, 64, 0
4, 1020, Control_c, 0, 64, 127
4, 1440, Note_on_c, 0, 40, 0
4, 1440, Note_on_c, 0, 45, 61
4, 1447, Control_c, 0, 64, 0
4, 1514, Control_c, 0, 64, 127
4, 1860, Note_on_c, 0, 45, 0
4, 1860, Note_on_c, 0, 44, 61
4, 1920, Note_on_c, 0, 44, 0
4, 1920, Note_on_c, 0, 42, 63
4, 1931, Control_c, 0, 64, 0
4, 1991, Control_c, 0, 64, 127
4, 2446, Control_c, 0, 64, 0
4, 2467, Control_c, 0, 64, 127
4, 2880, Note_on_c, 0, 42, 0
4, 2880, Note_on_c, 0, 35, 60
4, 2884, Control_c, 0, 64, 0
4, 2929, Control_c, 0, 64, 127
4, 3360, Note_on_c, 0, 35, 0
4, 3360, Note_on_c, 0, 47, 58
4, 3395, Control_c, 0, 64, 0
4, 3434, Control_c, 0, 64, 127
4, 3780, Note_on_c, 0, 47, 0
4, 3780, Note_on_c, 0, 47, 62
4, 3840, Note_on_c, 0, 47, 0
4, 3840, Control_c, 0, 64, 0
4, 3840, Note_on_c, 0, 37, 64
4, 3895, Control_c, 0, 64, 127
4, 4320, Note_on_c, 0, 37, 0
4, 4320, Note_on_c, 0, 45, 64
4, 4346, Control_c, 0, 64, 0
4, 4375, Control_c, 0, 64, 127
4, 4740, Note_on_c, 0, 45, 0
4, 4740, Note_on_c, 0, 45, 68
4, 4800, Note_on_c, 0, 45, 0
4, 4800, Note_on_c, 0, 35, 68
4, 4802, Control_c, 0, 64, 0
4, 4841, Control_c, 0, 64, 127
4, 5224, Control_c, 0, 64, 0
4, 5232, Note_on_c, 0, 35, 0
4, 5232, Note_on_c, 0, 34, 40
4, 5256, Note_on_c, 0, 34, 0
4, 5256, Note_on_c, 0, 35, 40
4, 5280, Note_on_c, 0, 35, 0
4, 5280, Note_on_c, 0, 37, 40
4, 5304, Note_on_c, 0, 37, 0
4, 5304, Note_on_c, 0, 35, 40
4, 5311, Control_c, 0, 64, 127
4, 5328, Note_on_c, 0, 35, 0
4, 5328, Note_on_c, 0, 37, 40
4, 5352, Note_on_c, 0, 37, 0
4, 5352, Note_on_c, 0, 35, 40
4, 5376, Note_on_c, 0, 35, 0
4, 5376, Note_on_c, 0, 37, 40
4, 5400, Note_on_c, 0, 37, 0
4, 5400, Note_on_c, 0, 35, 40
4, 5424, Note_on_c, 0, 35, 0
4, 5424, Note_on_c, 0, 37, 40
4, 5448, Note_on_c, 0, 37, 0
4, 5448, Note_on_c, 0, 35, 40
4, 5472, Note_on_c, 0, 35, 0
4, 5472, Note_on_c, 0, 37, 39
4, 5496, Note_on_c, 0, 37, 0
4, 5496, Note_on_c, 0, 35, 41
4, 5520, Note_on_c, 0, 35, 0
4, 5520, Note_on_c, 0, 37, 44
4, 5544, Note_on_c, 0, 37, 0
4, 5544, Note_on_c, 0, 35, 45
4, 5568, Note_on_c, 0, 35, 0
4, 5568, Note_on_c, 0, 37, 47
4, 5592, Note_on_c, 0, 37, 0
4, 5592, Note_on_c, 0, 35, 49
4, 5616, Note_on_c, 0, 35, 0
4, 5616, Note_on_c, 0, 37, 51
4, 5640, Note_on_c, 0, 37, 0
4, 5640, Note_on_c, 0, 35, 53
4, 5664, Note_on_c, 0, 35, 0
4, 5664, Note_on_c, 0, 37, 54
4, 5688, Note_on_c, 0, 37, 0
4, 5688, Note_on_c, 0, 35, 56
4, 5712, Note_on_c, 0, 35, 0
4, 5712, Note_on_c, 0, 34, 58
4, 5736, Note_on_c, 0, 34, 0
4, 5736, Note_on_c, 0, 35, 61
4, 5760, Note_on_c, 0, 35, 0
4, 5760, Control_c, 0, 64, 0
4, 5760, Note_on_c, 0, 37, 62
4, 5794, Control_c, 0, 64, 127
4, 6240, Note_on_c, 0, 37, 0
4, 6240, Note_on_c, 0, 42, 68
4, 6245, Control_c, 0, 64, 0
4, 6284, Control_c, 0, 64, 127
4, 6660, Note_on_c, 0, 42, 0
4, 6660, Note_on_c, 0, 42, 54
4, 6720, Note_on_c, 0, 42, 0
4, 6720, Note_on_c, 0, 39, 54
4, 6728, Control_c, 0, 64, 0
4, 6765, Control_c, 0, 64, 127
4, 7132, Control_c, 0, 64, 0
4, 7152, Note_on_c, 0, 39, 0
4, 7152, Note_on_c, 0, 38, 44
4, 7176, Note_on_c, 0, 38, 0
4, 7176, Note_on_c, 0, 39, 44
4, 7200, Note_on_c, 0, 39, 0
4, 7200, Note_on_c, 0, 40, 44
4, 7224, Note_on_c, 0, 40, 0
4, 7224, Note_on_c, 0, 39, 44
4, 7232, Control_c, 0, 64, 127
4, 7248, Note_on_c, 0, 39, 0
4, 7248, Note_on_c, 0, 40, 44
4, 7272, Note_on_c, 0, 40, 0
4, 7272, Note_on_c, 0, 39, 44
4, 7296, Note_on_c, 0, 39, 0
4, 7296, Note_on_c, 0, 40, 44
4, 7320, Note_on_c, 0, 40, 0
4, 7320, Note_on_c, 0, 39, 44
4, 7344, Note_on_c, 0, 39, 0
4, 7344, Note_on_c, 0, 40, 44
4, 7368, Note_on_c, 0, 40, 0
4, 7368, Note_on_c, 0, 39, 43
4, 7392, Note_on_c, 0, 39, 0
4, 7392, Note_on_c, 0, 40, 44
4, 7416, Note_on_c, 0, 40, 0
4, 7416, Note_on_c, 0, 39, 44
4, 7440, Note_on_c, 0, 39, 0
4, 7440, Note_on_c, 0, 40, 45
4, 7464, Note_on_c, 0, 40, 0
4, 7464, Note_on_c, 0, 39, 46
4, 7488, Note_on_c, 0, 39, 0
4, 7488, Note_on_c, 0, 40, 47
4, 7512, Note_on_c, 0, 40, 0
4, 7512, Note_on_c, 0, 39, 48
4, 7536, Note_on_c, 0, 39, 0
4, 7536, Note_on_c, 0, 40, 49
4, 7560, Note_on_c, 0, 39, 49
4, 7584, Note_on_c, 0, 40, 0
4, 7584, Note_on_c, 0, 37, 51
4, 7608, Note_on_c, 0, 37, 0
4, 7608, Note_on_c, 0, 39, 0
4, 7608, Note_on_c, 0, 39, 51
4, 7632, Note_on_c, 0, 39, 0
4, 7632, Note_on_c, 0, 40, 51
4, 7656, Note_on_c, 0, 40, 0
4, 7656, Note_on_c, 0, 42, 51
4, 7680, Note_on_c, 0, 42, 0
4, 7680, Control_c, 0, 64, 0
4, 7680, Note_on_c, 0, 40, 40
4, 7754, Control_c, 0, 64, 127
4, 8160, Note_on_c, 0, 40, 0
4, 8160, Note_on_c, 0, 35, 43
4, 8177, Control_c, 0, 64, 0
4, 8214, Control_c, 0, 64, 127
4, 8640, Note_on_c, 0, 35, 0
4, 8640, Note_on_c, 0, 31, 46
4, 8657, Control_c, 0, 64, 0
4, 8694, Control_c, 0, 64, 127
4, 9120, Note_on_c, 0, 31, 0
4, 9120, Note_on_c, 0, 43, 50
4, 9540, Note_on_c, 0, 43, 0
4, 9540, Note_on_c, 0, 41, 61
4, 9600, Note_on_c, 0, 41, 0
4, 9600, Control_c, 0, 64, 0
4, 9600, Note_on_c, 0, 40, 0
4, 9632, Control_c, 0, 64, 127
4, 10080, Note_on_c, 0, 40, 0
4, 10080, Note_on_c, 0, 38, 61
4, 10084, Control_c, 0, 64, 31
4, 10136, Control_c, 0, 64, 127
4, 10560, Note_on_c, 0, 38, 0
4, 10560, Note_on_c, 0, 36, 63
4, 10564, Control_c, 0, 64, 0
4, 10631, Control_c, 0, 64, 127
4, 11040, Note_on_c, 0, 36, 0
4, 11040, Note_on_c, 0, 36, 63
4, 11040, Note_on_c, 0, 48, 63
4, 11051, Control_c, 0, 64, 0
4, 11079, Control_c, 0, 64, 127
4, 11460, Note_on_c, 0, 48, 0
4, 11460, Note_on_c, 0, 36, 0
4, 11460, Note_on_c, 0, 35, 56
4, 11460, Note_on_c, 0, 47, 56
4, 11520, Note_on_c, 0, 47, 0
4, 11520, Note_on_c, 0, 35, 0
4, 11520, Control_c, 0, 64, 0
4, 11520, Note_on_c, 0, 33, 56
4, 11520, Note_on_c, 0, 45, 56
4, 11575, Control_c, 0, 64, 127
4, 11994, Control_c, 0, 64, 0
4, 12000, Note_on_c, 0, 45, 0
4, 12000, Note_on_c, 0, 33, 0
4, 12000, Note_on_c, 0, 31, 60
4, 12000, Note_on_c, 0, 43, 60
4, 12055, Control_c, 0, 64, 127
4, 12420, Note_on_c, 0, 43, 0
4, 12420, Note_on_c, 0, 31, 0
4, 12420, Note_on_c, 0, 31, 59
4, 12420, Note_on_c, 0, 43, 59
4, 12477, Control_c, 0, 64, 0
4, 12480, Note_on_c, 0, 43, 0
4, 12480, Note_on_c, 0, 31, 0
4, 12480, Note_on_c, 0, 29, 59
4, 12480, Note_on_c, 0, 41, 59
4, 12532, Control_c, 0, 64, 127
4, 12957, Control_c, 0, 64, 0
4, 12960, Note_on_c, 0, 41, 0
4, 12960, Note_on_c, 0, 29, 0
4, 12960, Note_on_c, 0, 28, 59
4, 12960, Note_on_c, 0, 40, 59
4, 13002, Control_c, 0, 64, 127
4, 13440, Note_on_c, 0, 40, 0
4, 13440, Note_on_c, 0, 28, 0
4, 13440, Control_c, 0, 64, 0
4, 13440, Note_on_c, 0, 27, 62
4, 13440, Note_on_c, 0, 39, 62
4, 13486, Control_c, 0, 64, 127
4, 13934, Control_c, 0, 64, 0
4, 13966, Control_c, 0, 64, 127
4, 14397, Control_c, 0, 64, 0
4, 14400, Note_on_c, 0, 39, 0
4, 14400, Note_on_c, 0, 27, 0
4, 14400, Note_on_c, 0, 32, 61
4, 14434, Control_c, 0, 64, 127
4, 14880, Note_on_c, 0, 32, 0
4, 14880, Note_on_c, 0, 35, 53
4, 14886, Control_c, 0, 64, 0
4, 14929, Control_c, 0, 64, 127
4, 15360, Note_on_c, 0, 35, 0
4, 15360, Control_c, 0, 64, 0
4, 15360, Note_on_c, 0, 28, 30
4, 15360, Note_on_c, 0, 40, 30
4, 15427, Control_c, 0, 64, 127
4, 15840, Note_on_c, 0, 40, 0
4, 15840, Note_on_c, 0, 28, 0
4, 15840, Note_on_c, 0, 35, 37
4, 15858, Control_c, 0, 64, 0
4, 15893, Control_c, 0, 64, 127
4, 16320, Note_on_c, 0, 35, 0
4, 16320, Note_on_c, 0, 40, 40
4, 16348, Control_c, 0, 64, 0
4, 16394, Control_c, 0, 64, 127
4, 16800, Note_on_c, 0, 40, 0
4, 16800, Note_on_c, 0, 33, 45
4, 16800, Note_on_c, 0, 45, 45
4, 16814, Control_c, 0, 64, 0
4, 16860, Control_c, 0, 64, 127
4, 17220, Note_on_c, 0, 45, 0
4, 17220, Note_on_c, 0, 33, 0
4, 17220, Note_on_c, 0, 33, 52
4, 17220, Note_on_c, 0, 45, 52
4, 17280, Note_on_c, 0, 45, 0
4, 17280, Note_on_c, 0, 33, 0
4, 17280, Control_c, 0, 64, 0
4, 17280, Note_on_c, 0, 29, 54
4, 17280, Note_on_c, 0, 41, 54
4, 17347, Control_c, 0, 64, 127
4, 17760, Note_on_c, 0, 41, 0
4, 17760, Note_on_c, 0, 29, 0
4, 17760, Note_on_c, 0, 24, 40
4, 17760, Note_on_c, 0, 36, 40
4, 17771, Control_c, 0, 64, 0
4, 17816, Control_c, 0, 64, 127
4, 18240, Note_on_c, 0, 36, 0
4, 18240, Note_on_c, 0, 24, 0
4, 18240, Note_on_c, 0, 29, 45
4, 18240, Note_on_c, 0, 41, 45
4, 18251, Control_c, 0, 64, 0
4, 18293, Control_c, 0, 64, 127
4, 18720, Note_on_c, 0, 41, 0
4, 18720, Note_on_c, 0, 29, 0
4, 18720, Note_on_c, 0, 34, 51
4, 18720, Note_on_c, 0, 46, 51
4, 18724, Control_c, 0, 64, 0
4, 18784, Control_c, 0, 64, 127
4, 19140, Note_on_c, 0, 46, 0
4, 19140, Note_on_c, 0, 34, 0
4, 19140, Note_on_c, 0, 34, 56
4, 19140, Note_on_c, 0, 46, 56
4, 19200, Note_on_c, 0, 46, 0
4, 19200, Note_on_c, 0, 34, 0
4, 19200, Control_c, 0, 64, 0
4, 19200, Note_on_c, 0, 31, 57
4, 19200, Note_on_c, 0, 43, 57
4, 19274, Control_c, 0, 64, 127
4, 19673, Control_c, 0, 64, 0
4, 19680, Note_on_c, 0, 43, 0
4, 19680, Note_on_c, 0, 31, 0
4, 19680, Note_on_c, 0, 26, 68
4, 19680, Note_on_c, 0, 38, 68
4, 19700, Control_c, 0, 64, 127
4, 20160, Note_on_c, 0, 38, 0
4, 20160, Note_on_c, 0, 26, 0
4, 20160, Note_on_c, 0, 31, 64
4, 20160, Note_on_c, 0, 43, 64
4, 20192, Control_c, 0, 64, 0
4, 20241, Control_c, 0, 64, 127
4, 20629, Control_c, 0, 64, 0
4, 20640, Note_on_c, 0, 43, 0
4, 20640, Note_on_c, 0, 31, 0
4, 20640, Note_on_c, 0, 35, 67
4, 20640, Note_on_c, 0, 47, 67
4, 20728, Control_c, 0, 64, 127
4, 21060, Note_on_c, 0, 47, 0
4, 21060, Note_on_c, 0, 35, 0
4, 21060, Note_on_c, 0, 35, 67
4, 21060, Note_on_c, 0, 47, 67
4, 21120, Note_on_c, 0, 47, 0
4, 21120, Note_on_c, 0, 35, 0
4, 21120, Control_c, 0, 64, 0
4, 21120, Note_on_c, 0, 28, 67
4, 21169, Control_c, 0, 64, 127
4, 21180, Note_on_c, 0, 40, 74
4, 21600, Note_on_c, 0, 35, 74
4, 22080, Note_on_c, 0, 28, 0
4, 22080, Note_on_c, 0, 28, 74
4, 22945, Control_c, 0, 64, 0
4, 23040, Note_on_c, 0, 28, 0
4, 23040, Note_on_c, 0, 35, 0
4, 23040, Note_on_c, 0, 40, 0
4, 23040, End_track
5, 0, Start_track
5, 0, MIDI_port, 0
5, 0, Title_t, "Chopin: Prelude No.9 in E Op. 28"
5, 0, End_track
6, 0, Start_track
6, 0, MIDI_port, 0
6, 0, Title_t, "Copyright \251 1997 by Bernd Krueger"
6, 0, End_track
7, 0, Start_track
7, 0, MIDI_port, 0
7, 0, Title_t, "email: bernd.krueger@piano-midi.de"
7, 0, End_track
8, 0, Start_track
8, 0, MIDI_port, 0
8, 0, Title_t, "http://www.piano-midi.de"
8, 0, End_track
9, 0, Start_track
9, 0, MIDI_port, 0
9, 0, Title_t, "Edition: 23.12.2002"
9, 0, End_track
0, 0, End_of_file