0, 0, Header, 1, 17, 384
1, 0, Start_track
1, 0, Time_signature, 4, 2, 96, 8
1, 0, Sequencer_specific, 03, 00, 00, 41
1, 0, Tempo, 400000
1, 15960, Tempo, 387096
1, 56664, Tempo, 400000
1, 95832, Tempo, 402684
1, 157496, Tempo, 394736
1, 202772, Tempo, 410958
1, 202772, End_track
2, 0, Start_track
2, 0, Title_t, "Winter Wind Etude "
2, 0, Control_c, 0, 0, 0
2, 0, Program_c, 0, 0
2, 0, Control_c, 0, 91, 127
2, 0, Key_signature, 0, "major"
2, 384, Control_c, 0, 91, 127
2, 568, Control_c, 0, 64, 40
2, 588, Control_c, 0, 64, 56
2, 608, Control_c, 0, 64, 104
2, 628, Control_c, 0, 64, 127
2, 664, Note_on_c, 0, 64, 82
2, 888, Note_off_c, 0, 64, 0
2, 1384, Note_on_c, 0, 64, 86
2, 1548, Note_off_c, 0, 64, 0
2, 1968, Note_on_c, 0, 64, 82
2, 2092, Note_off_c, 0, 64, 0
2, 2148, Note_on_c, 0, 64, 85
2, 2272, Control_c, 0, 64, 56
2, 2288, Control_c, 0, 64, 0
2, 2388, Control_c, 0, 64, 24
2, 2408, Control_c, 0, 64, 88
2, 2428, Control_c, 0, 64, 127
2, 2904, Note_on_c, 0, 65, 83
2, 2952, Note_off_c, 0, 64, 0
2, 2972, Control_c, 0, 64, 56
2, 2988, Control_c, 0, 64, 0
2, 3180, Control_c, 0, 64, 40
2, 3200, Control_c, 0, 64, 72
2, 3220, Control_c, 0, 64, 127
2, 3644, Note_on_c, 0, 64, 80
2, 3684, Control_c, 0, 64, 56
2, 3696, Note_off_c, 0, 65, 0
2, 3704, Control_c, 0, 64, 0
2, 3856, Control_c, 0, 64, 56
2, 3880, Control_c, 0, 64, 104
2, 3900, Control_c, 0, 64, 127
2, 4428, Note_on_c, 0, 60, 79
2, 4440, Note_off_c, 0, 64, 0
2, 4440, Control_c, 0, 64, 72
2, 4456, Control_c, 0, 64, 0
2, 4596, Control_c, 0, 64, 24
2, 4616, Control_c, 0, 64, 88
2, 4632, Control_c, 0, 64, 127
2, 5192, Note_on_c, 0, 64, 80
2, 5220, Note_off_c, 0, 60, 0
2, 5276, Control_c, 0, 64, 88
2, 5296, Control_c, 0, 64, 56
2, 5312, Control_c, 0, 64, 0
2, 5544, Control_c, 0, 64, 24
2, 5564, Control_c, 0, 64, 72
2, 5584, Control_c, 0, 64, 104
2, 5604, Control_c, 0, 64, 127
2, 6092, Note_off_c, 0, 64, 0
2, 8356, Note_on_c, 0, 60, 26
2, 8364, Note_on_c, 0, 64, 42
2, 8380, Note_on_c, 0, 48, 29
2, 8384, Note_on_c, 0, 55, 18
2, 8468, Control_c, 0, 64, 72
2, 8492, Control_c, 0, 64, 24
2, 8512, Control_c, 0, 64, 0
2, 8624, Control_c, 0, 64, 40
2, 8640, Control_c, 0, 64, 104
2, 8664, Control_c, 0, 64, 127
2, 8672, Note_off_c, 0, 60, 0
2, 8704, Note_off_c, 0, 64, 0
2, 8704, Note_off_c, 0, 55, 0
2, 8784, Note_off_c, 0, 48, 0
2, 9144, Note_on_c, 0, 64, 47
2, 9172, Note_on_c, 0, 48, 32
2, 9176, Note_on_c, 0, 55, 25
2, 9184, Note_on_c, 0, 60, 31
2, 9208, Control_c, 0, 64, 104
2, 9224, Control_c, 0, 64, 40
2, 9244, Control_c, 0, 64, 0
2, 9340, Control_c, 0, 64, 56
2, 9360, Control_c, 0, 64, 127
2, 9408, Note_off_c, 0, 48, 0
2, 9412, Note_off_c, 0, 55, 0
2, 9416, Note_off_c, 0, 60, 0
2, 9432, Note_off_c, 0, 64, 0
2, 9736, Note_on_c, 0, 64, 47
2, 9756, Note_on_c, 0, 48, 38
2, 9760, Note_on_c, 0, 60, 38
2, 9772, Note_on_c, 0, 55, 24
2, 9804, Note_off_c, 0, 48, 0
2, 9824, Note_off_c, 0, 55, 0
2, 9832, Note_off_c, 0, 60, 0
2, 9840, Note_off_c, 0, 64, 0
2, 9952, Note_on_c, 0, 64, 53
2, 9964, Note_on_c, 0, 48, 35
2, 9972, Note_on_c, 0, 60, 37
2, 9980, Note_on_c, 0, 55, 36
2, 10040, Control_c, 0, 64, 104
2, 10060, Control_c, 0, 64, 56
2, 10080, Control_c, 0, 64, 0
2, 10192, Control_c, 0, 64, 72
2, 10212, Control_c, 0, 64, 127
2, 10288, Note_off_c, 0, 55, 0
2, 10324, Note_off_c, 0, 60, 0
2, 10452, Note_off_c, 0, 64, 0
2, 10588, Note_off_c, 0, 48, 0
2, 10716, Note_on_c, 0, 65, 47
2, 10744, Note_on_c, 0, 60, 36
2, 10748, Note_on_c, 0, 41, 27
2, 10752, Note_on_c, 0, 57, 26
2, 10856, Control_c, 0, 64, 72
2, 10872, Control_c, 0, 64, 0
2, 11028, Control_c, 0, 64, 88
2, 11048, Control_c, 0, 64, 127
2, 11108, Note_off_c, 0, 60, 0
2, 11112, Note_off_c, 0, 65, 0
2, 11172, Note_off_c, 0, 57, 0
2, 11516, Note_off_c, 0, 41, 0
2, 11592, Note_on_c, 0, 64, 45
2, 11596, Note_on_c, 0, 60, 38
2, 11604, Note_on_c, 0, 55, 31
2, 11616, Note_on_c, 0, 36, 25
2, 11708, Control_c, 0, 64, 56
2, 11724, Control_c, 0, 64, 0
2, 11860, Control_c, 0, 64, 40
2, 11880, Control_c, 0, 64, 104
2, 11900, Control_c, 0, 64, 127
2, 12024, Note_off_c, 0, 64, 0
2, 12024, Note_off_c, 0, 36, 0
2, 12060, Note_off_c, 0, 60, 0
2, 12124, Note_off_c, 0, 55, 0
2, 12488, Note_on_c, 0, 60, 44
2, 12500, Note_on_c, 0, 57, 30
2, 12516, Note_on_c, 0, 41, 26
2, 12580, Control_c, 0, 64, 104
2, 12600, Control_c, 0, 64, 24
2, 12616, Control_c, 0, 64, 0
2, 12732, Control_c, 0, 64, 40
2, 12752, Control_c, 0, 64, 104
2, 12772, Control_c, 0, 64, 127
2, 12836, Note_off_c, 0, 57, 0
2, 12968, Note_off_c, 0, 60, 0
2, 13052, Note_off_c, 0, 41, 0
2, 13412, Note_on_c, 0, 64, 40
2, 13432, Note_on_c, 0, 55, 27
2, 13432, Note_on_c, 0, 36, 19
2, 13436, Note_on_c, 0, 60, 33
2, 13568, Control_c, 0, 64, 88
2, 13588, Control_c, 0, 64, 40
2, 13604, Control_c, 0, 64, 0
2, 13740, Control_c, 0, 64, 40
2, 13760, Control_c, 0, 64, 104
2, 13780, Control_c, 0, 64, 127
2, 14056, Note_off_c, 0, 55, 0
2, 14092, Note_off_c, 0, 60, 0
2, 14232, Note_off_c, 0, 36, 0
2, 14532, Note_on_c, 0, 62, 19
2, 14536, Note_on_c, 0, 56, 13
2, 14540, Note_on_c, 0, 35, 21
2, 14652, Control_c, 0, 64, 88
2, 14672, Control_c, 0, 64, 56
2, 14688, Control_c, 0, 64, 0
2, 14868, Note_off_c, 0, 64, 0
2, 14924, Control_c, 0, 64, 24
2, 14944, Control_c, 0, 64, 72
2, 14964, Control_c, 0, 64, 127
2, 15096, Note_off_c, 0, 56, 0
2, 15148, Note_off_c, 0, 62, 0
2, 15376, Note_off_c, 0, 35, 0
2, 15964, Note_on_c, 0, 33, 90
2, 15964, Note_on_c, 0, 101, 107
2, 15972, Control_c, 0, 64, 127
2, 16056, Note_off_c, 0, 33, 0
2, 16112, Note_on_c, 0, 96, 90
2, 16152, Note_off_c, 0, 101, 64
2, 16200, Note_off_c, 0, 96, 64
2, 16204, Note_on_c, 0, 100, 84
2, 16276, Note_off_c, 0, 100, 0
2, 16292, Note_on_c, 0, 93, 81
2, 16380, Note_on_c, 0, 99, 76
2, 16388, Note_off_c, 0, 93, 0
2, 16480, Note_on_c, 0, 96, 71
2, 16492, Note_off_c, 0, 99, 0
2, 16544, Note_off_c, 0, 96, 0
2, 16568, Note_on_c, 0, 64, 84
2, 16576, Note_on_c, 0, 98, 92
2, 16576, Note_on_c, 0, 57, 68
2, 16576, Note_on_c, 0, 60, 74
2, 16608, Control_c, 0, 64, 104
2, 16620, Control_c, 0, 64, 88
2, 16632, Control_c, 0, 64, 127
2, 16672, Note_on_c, 0, 93, 82
2, 16676, Note_off_c, 0, 98, 0
2, 16752, Note_off_c, 0, 93, 0
2, 16764, Note_on_c, 0, 97, 71
2, 16836, Note_off_c, 0, 60, 0
2, 16844, Note_off_c, 0, 57, 0
2, 16856, Note_on_c, 0, 93, 73
2, 16860, Note_off_c, 0, 64, 0
2, 16872, Note_off_c, 0, 97, 0
2, 16952, Note_off_c, 0, 93, 0
2, 16956, Note_on_c, 0, 96, 83
2, 17040, Note_off_c, 0, 96, 0
2, 17044, Note_on_c, 0, 88, 79
2, 17052, Note_on_c, 0, 64, 85
2, 17060, Note_on_c, 0, 57, 66
2, 17060, Note_on_c, 0, 60, 71
2, 17096, Note_off_c, 0, 60, 0
2, 17100, Note_off_c, 0, 64, 0
2, 17108, Note_off_c, 0, 57, 0
2, 17136, Note_off_c, 0, 88, 0
2, 17148, Note_on_c, 0, 95, 100
2, 17156, Note_on_c, 0, 64, 82
2, 17156, Note_on_c, 0, 57, 74
2, 17160, Note_on_c, 0, 60, 73
2, 17204, Control_c, 0, 64, 72
2, 17244, Control_c, 0, 64, 127
2, 17252, Note_off_c, 0, 95, 0
2, 17256, Note_on_c, 0, 88, 84
2, 17356, Note_off_c, 0, 88, 0
2, 17356, Note_on_c, 0, 94, 71
2, 17420, Note_off_c, 0, 57, 0
2, 17424, Note_off_c, 0, 60, 0
2, 17444, Note_off_c, 0, 94, 0
2, 17444, Note_on_c, 0, 84, 75
2, 17468, Note_off_c, 0, 64, 0
2, 17532, Note_off_c, 0, 84, 0
2, 17544, Note_on_c, 0, 93, 94
2, 17636, Note_on_c, 0, 88, 80
2, 17644, Note_off_c, 0, 93, 0
2, 17728, Note_on_c, 0, 92, 79
2, 17728, Note_on_c, 0, 65, 89
2, 17740, Note_on_c, 0, 57, 69
2, 17740, Note_on_c, 0, 60, 74
2, 17744, Note_off_c, 0, 88, 64
2, 17752, Control_c, 0, 64, 88
2, 17764, Control_c, 0, 64, 0
2, 17824, Note_off_c, 0, 92, 0
2, 17824, Note_on_c, 0, 84, 77
2, 17828, Control_c, 0, 64, 72
2, 17840, Control_c, 0, 64, 127
2, 17904, Note_off_c, 0, 84, 0
2, 17920, Note_on_c, 0, 91, 83
2, 18012, Note_off_c, 0, 91, 0
2, 18020, Note_on_c, 0, 84, 69
2, 18060, Note_off_c, 0, 57, 0
2, 18072, Note_off_c, 0, 60, 0
2, 18084, Note_off_c, 0, 65, 0
2, 18088, Note_off_c, 0, 84, 0
2, 18092, Note_on_c, 0, 90, 64
2, 18168, Note_off_c, 0, 90, 0
2, 18192, Note_on_c, 0, 81, 68
2, 18284, Note_off_c, 0, 81, 0
2, 18296, Note_on_c, 0, 89, 87
2, 18312, Note_on_c, 0, 64, 82
2, 18316, Note_on_c, 0, 57, 66
2, 18316, Note_on_c, 0, 60, 68
2, 18336, Control_c, 0, 64, 56
2, 18348, Control_c, 0, 64, 0
2, 18400, Note_on_c, 0, 84, 73
2, 18400, Control_c, 0, 64, 72
2, 18412, Control_c, 0, 64, 127
2, 18420, Note_off_c, 0, 89, 0
2, 18488, Note_on_c, 0, 88, 73
2, 18492, Note_off_c, 0, 84, 0
2, 18532, Note_off_c, 0, 60, 0
2, 18560, Note_off_c, 0, 57, 0
2, 18572, Note_off_c, 0, 88, 0
2, 18592, Note_on_c, 0, 81, 66
2, 18672, Note_on_c, 0, 87, 64
2, 18692, Note_off_c, 0, 81, 0
2, 18764, Note_on_c, 0, 84, 70
2, 18788, Note_off_c, 0, 87, 0
2, 18796, Note_off_c, 0, 64, 0
2, 18824, Note_off_c, 0, 84, 0
2, 18852, Note_on_c, 0, 60, 78
2, 18856, Note_on_c, 0, 86, 82
2, 18856, Note_on_c, 0, 57, 64
2, 18868, Note_on_c, 0, 52, 64
2, 18892, Control_c, 0, 64, 40
2, 18904, Control_c, 0, 64, 0
2, 18944, Control_c, 0, 64, 72
2, 18952, Note_on_c, 0, 81, 68
2, 18956, Control_c, 0, 64, 127
2, 18960, Note_off_c, 0, 86, 0
2, 19032, Note_off_c, 0, 81, 0
2, 19044, Note_on_c, 0, 85, 68
2, 19132, Note_on_c, 0, 81, 68
2, 19140, Note_off_c, 0, 85, 0
2, 19152, Note_off_c, 0, 57, 0
2, 19196, Note_off_c, 0, 60, 64
2, 19216, Note_off_c, 0, 81, 64
2, 19224, Note_on_c, 0, 84, 78
2, 19308, Note_off_c, 0, 84, 0
2, 19312, Note_on_c, 0, 76, 69
2, 19404, Note_off_c, 0, 76, 0
2, 19412, Note_on_c, 0, 83, 87
2, 19412, Note_on_c, 0, 64, 81
2, 19420, Note_on_c, 0, 60, 71
2, 19428, Control_c, 0, 64, 104
2, 19432, Note_on_c, 0, 57, 54
2, 19440, Control_c, 0, 64, 0
2, 19444, Note_off_c, 0, 52, 64
2, 19500, Note_on_c, 0, 76, 74
2, 19516, Note_off_c, 0, 83, 0
2, 19516, Control_c, 0, 64, 88
2, 19528, Control_c, 0, 64, 127
2, 19596, Note_on_c, 0, 82, 65
2, 19600, Note_off_c, 0, 76, 0
2, 19612, Note_off_c, 0, 57, 0
2, 19620, Note_off_c, 0, 60, 0
2, 19648, Note_off_c, 0, 64, 0
2, 19680, Note_off_c, 0, 82, 0
2, 19688, Note_on_c, 0, 72, 60
2, 19772, Note_on_c, 0, 81, 76
2, 19784, Note_off_c, 0, 72, 0
2, 19868, Note_on_c, 0, 76, 63
2, 19872, Note_off_c, 0, 81, 0
2, 19948, Note_on_c, 0, 80, 68
2, 19956, Note_off_c, 0, 76, 0
2, 20040, Note_off_c, 0, 80, 0
2, 20048, Note_on_c, 0, 72, 67
2, 20116, Note_off_c, 0, 72, 0
2, 20132, Note_on_c, 0, 79, 78
2, 20216, Note_off_c, 0, 79, 0
2, 20220, Note_on_c, 0, 72, 70
2, 20288, Note_off_c, 0, 72, 0
2, 20300, Note_on_c, 0, 78, 64
2, 20388, Note_on_c, 0, 69, 58
2, 20396, Note_off_c, 0, 78, 0
2, 20492, Note_on_c, 0, 33, 93
2, 20504, Note_off_c, 0, 69, 0
2, 20504, Note_on_c, 0, 77, 74
2, 20532, Control_c, 0, 64, 56
2, 20544, Control_c, 0, 64, 0
2, 20604, Note_on_c, 0, 72, 64
2, 20608, Note_off_c, 0, 77, 0
2, 20620, Control_c, 0, 64, 104
2, 20632, Control_c, 0, 64, 127
2, 20684, Note_off_c, 0, 72, 0
2, 20688, Note_on_c, 0, 76, 65
2, 20724, Note_off_c, 0, 33, 0
2, 20772, Note_off_c, 0, 76, 64
2, 20788, Note_on_c, 0, 69, 62
2, 20876, Note_off_c, 0, 69, 0
2, 20876, Note_on_c, 0, 75, 57
2, 20956, Note_on_c, 0, 72, 67
2, 20968, Note_off_c, 0, 75, 0
2, 21024, Note_off_c, 0, 72, 0
2, 21068, Note_on_c, 0, 52, 88
2, 21072, Note_on_c, 0, 74, 77
2, 21072, Note_on_c, 0, 45, 80
2, 21112, Control_c, 0, 64, 40
2, 21128, Control_c, 0, 64, 0
2, 21168, Control_c, 0, 64, 56
2, 21176, Note_on_c, 0, 69, 70
2, 21180, Control_c, 0, 64, 127
2, 21188, Note_off_c, 0, 74, 0
2, 21272, Note_off_c, 0, 69, 0
2, 21280, Note_on_c, 0, 73, 60
2, 21368, Note_off_c, 0, 45, 0
2, 21368, Note_on_c, 0, 69, 70
2, 21376, Note_off_c, 0, 52, 0
2, 21384, Note_off_c, 0, 73, 0
2, 21452, Note_off_c, 0, 69, 0
2, 21452, Note_on_c, 0, 72, 77
2, 21528, Note_on_c, 0, 52, 84
2, 21532, Note_on_c, 0, 45, 82
2, 21536, Note_off_c, 0, 72, 0
2, 21540, Note_on_c, 0, 64, 70
2, 21584, Note_off_c, 0, 52, 0
2, 21584, Note_off_c, 0, 45, 0
2, 21628, Note_off_c, 0, 64, 0
2, 21644, Note_on_c, 0, 52, 94
2, 21644, Note_on_c, 0, 45, 82
2, 21648, Note_on_c, 0, 71, 82
2, 21672, Control_c, 0, 64, 104
2, 21688, Control_c, 0, 64, 24
2, 21700, Control_c, 0, 64, 0
2, 21736, Note_off_c, 0, 71, 0
2, 21736, Control_c, 0, 64, 56
2, 21740, Note_on_c, 0, 64, 64
2, 21748, Control_c, 0, 64, 127
2, 21824, Note_on_c, 0, 70, 65
2, 21828, Note_off_c, 0, 64, 0
2, 21908, Note_off_c, 0, 70, 0
2, 21916, Note_on_c, 0, 60, 62
2, 21972, Note_off_c, 0, 45, 0
2, 21996, Note_off_c, 0, 52, 0
2, 22008, Note_off_c, 0, 60, 0
2, 22008, Note_on_c, 0, 69, 74
2, 22100, Note_on_c, 0, 64, 64
2, 22104, Note_off_c, 0, 69, 0
2, 22184, Note_off_c, 0, 64, 0
2, 22196, Note_on_c, 0, 68, 60
2, 22200, Note_on_c, 0, 53, 93
2, 22200, Note_on_c, 0, 45, 83
2, 22248, Control_c, 0, 64, 104
2, 22256, Control_c, 0, 64, 40
2, 22272, Control_c, 0, 64, 0
2, 22304, Note_off_c, 0, 68, 64
2, 22304, Note_on_c, 0, 60, 63
2, 22324, Control_c, 0, 64, 40
2, 22332, Control_c, 0, 64, 104
2, 22348, Control_c, 0, 64, 127
2, 22380, Note_off_c, 0, 60, 0
2, 22392, Note_on_c, 0, 67, 73
2, 22480, Note_off_c, 0, 67, 0
2, 22484, Note_on_c, 0, 60, 61
2, 22552, Note_off_c, 0, 60, 0
2, 22560, Note_off_c, 0, 45, 64
2, 22564, Note_on_c, 0, 66, 55
2, 22632, Note_off_c, 0, 53, 64
2, 22648, Note_off_c, 0, 66, 0
2, 22668, Note_on_c, 0, 57, 54
2, 22768, Note_on_c, 0, 52, 81
2, 22772, Note_off_c, 0, 57, 0
2, 22772, Note_on_c, 0, 45, 78
2, 22780, Note_on_c, 0, 65, 69
2, 22804, Control_c, 0, 64, 104
2, 22816, Control_c, 0, 64, 0
2, 22872, Note_on_c, 0, 60, 58
2, 22876, Note_off_c, 0, 65, 0
2, 22892, Control_c, 0, 64, 88
2, 22904, Control_c, 0, 64, 127
2, 22956, Note_off_c, 0, 60, 0
2, 22960, Note_on_c, 0, 64, 63
2, 23004, Note_off_c, 0, 52, 0
2, 23024, Note_off_c, 0, 45, 0
2, 23040, Note_off_c, 0, 64, 0
2, 23064, Note_on_c, 0, 57, 58
2, 23156, Note_on_c, 0, 63, 62
2, 23172, Note_off_c, 0, 57, 0
2, 23248, Note_on_c, 0, 60, 66
2, 23256, Note_off_c, 0, 63, 0
2, 23320, Note_off_c, 0, 60, 0
2, 23332, Note_on_c, 0, 33, 80
2, 23352, Note_on_c, 0, 62, 67
2, 23388, Control_c, 0, 64, 88
2, 23400, Control_c, 0, 64, 0
2, 23444, Note_off_c, 0, 62, 0
2, 23460, Note_on_c, 0, 57, 50
2, 23464, Control_c, 0, 64, 72
2, 23476, Control_c, 0, 64, 127
2, 23532, Note_off_c, 0, 57, 0
2, 23532, Note_on_c, 0, 61, 67
2, 23628, Note_on_c, 0, 57, 64
2, 23636, Note_off_c, 0, 61, 0
2, 23708, Note_off_c, 0, 57, 0
2, 23716, Note_on_c, 0, 60, 74
2, 23784, Note_off_c, 0, 60, 0
2, 23796, Note_on_c, 0, 52, 69
2, 23860, Note_off_c, 0, 33, 64
2, 23872, Note_off_c, 0, 52, 0
2, 23888, Note_on_c, 0, 59, 78
2, 23896, Control_c, 0, 64, 40
2, 23900, Note_on_c, 0, 40, 73
2, 23908, Control_c, 0, 64, 0
2, 23960, Control_c, 0, 64, 56
2, 23972, Control_c, 0, 64, 127
2, 23984, Note_off_c, 0, 59, 0
2, 23984, Note_on_c, 0, 52, 60
2, 24060, Note_off_c, 0, 52, 0
2, 24076, Note_on_c, 0, 58, 63
2, 24080, Note_off_c, 0, 40, 0
2, 24156, Note_on_c, 0, 48, 76
2, 24164, Note_off_c, 0, 58, 0
2, 24256, Note_off_c, 0, 48, 0
2, 24268, Note_on_c, 0, 57, 74
2, 24356, Note_on_c, 0, 52, 64
2, 24364, Note_off_c, 0, 57, 0
2, 24424, Note_off_c, 0, 52, 0
2, 24436, Note_on_c, 0, 56, 69
2, 24540, Note_on_c, 0, 48, 71
2, 24544, Note_off_c, 0, 56, 0
2, 24616, Note_off_c, 0, 48, 0
2, 24628, Note_on_c, 0, 57, 68
2, 24716, Note_on_c, 0, 52, 67
2, 24744, Note_off_c, 0, 57, 0
2, 24776, Note_off_c, 0, 52, 0
2, 24804, Note_on_c, 0, 60, 70
2, 24868, Note_off_c, 0, 60, 0
2, 24892, Note_on_c, 0, 53, 62
2, 24924, Note_off_c, 0, 53, 0
2, 25036, Note_on_c, 0, 64, 83
2, 25036, Note_on_c, 0, 32, 70
2, 25052, Control_c, 0, 64, 88
2, 25064, Control_c, 0, 64, 0
2, 25152, Control_c, 0, 64, 88
2, 25160, Note_on_c, 0, 59, 60
2, 25168, Control_c, 0, 64, 127
2, 25228, Note_off_c, 0, 32, 0
2, 25228, Note_off_c, 0, 59, 0
2, 25232, Note_on_c, 0, 62, 70
2, 25256, Note_off_c, 0, 64, 0
2, 25268, Note_off_c, 0, 62, 0
2, 25328, Note_on_c, 0, 65, 75
2, 25392, Note_off_c, 0, 65, 64
2, 25424, Note_on_c, 0, 76, 74
2, 25520, Note_on_c, 0, 71, 63
2, 25576, Note_off_c, 0, 76, 0
2, 25596, Note_on_c, 0, 62, 85
2, 25604, Note_off_c, 0, 71, 0
2, 25604, Note_on_c, 0, 74, 76
2, 25604, Note_on_c, 0, 53, 79
2, 25652, Note_off_c, 0, 74, 0
2, 25708, Note_on_c, 0, 77, 86
2, 25796, Note_off_c, 0, 53, 0
2, 25808, Note_off_c, 0, 77, 0
2, 25820, Note_on_c, 0, 88, 82
2, 25872, Note_off_c, 0, 62, 0
2, 25912, Note_on_c, 0, 83, 53
2, 25920, Note_off_c, 0, 88, 0
2, 25992, Note_on_c, 0, 86, 70
2, 25996, Note_off_c, 0, 83, 0
2, 26056, Note_on_c, 0, 62, 85
2, 26068, Note_on_c, 0, 53, 81
2, 26072, Note_off_c, 0, 86, 0
2, 26072, Note_on_c, 0, 77, 79
2, 26116, Note_off_c, 0, 62, 0
2, 26128, Note_off_c, 0, 53, 0
2, 26176, Note_off_c, 0, 77, 0
2, 26188, Note_on_c, 0, 86, 86
2, 26188, Note_on_c, 0, 60, 97
2, 26192, Note_on_c, 0, 53, 74
2, 26220, Control_c, 0, 64, 88
2, 26232, Control_c, 0, 64, 0
2, 26288, Note_on_c, 0, 81, 66
2, 26296, Control_c, 0, 64, 56
2, 26308, Note_off_c, 0, 86, 0
2, 26308, Control_c, 0, 64, 127
2, 26360, Note_off_c, 0, 60, 0
2, 26380, Note_off_c, 0, 53, 0
2, 26380, Note_on_c, 0, 84, 69
2, 26412, Note_off_c, 0, 81, 0
2, 26460, Note_on_c, 0, 77, 70
2, 26464, Note_off_c, 0, 84, 0
2, 26496, Note_off_c, 0, 77, 0
2, 26568, Note_on_c, 0, 74, 74
2, 26668, Note_on_c, 0, 69, 52
2, 26688, Note_off_c, 0, 74, 0
2, 26752, Note_on_c, 0, 45, 90
2, 26752, Note_on_c, 0, 33, 74
2, 26756, Note_off_c, 0, 69, 0
2, 26760, Note_on_c, 0, 72, 68
2, 26804, Control_c, 0, 64, 88
2, 26816, Control_c, 0, 64, 0
2, 26840, Note_on_c, 0, 65, 69
2, 26848, Note_off_c, 0, 72, 0
2, 26864, Control_c, 0, 64, 56
2, 26880, Control_c, 0, 64, 127
2, 26892, Note_off_c, 0, 65, 64
2, 26960, Note_on_c, 0, 62, 71
2, 27032, Note_on_c, 0, 57, 54
2, 27064, Note_off_c, 0, 62, 0
2, 27124, Note_off_c, 0, 57, 0
2, 27132, Note_on_c, 0, 60, 64
2, 27148, Note_off_c, 0, 45, 64
2, 27160, Note_off_c, 0, 33, 64
2, 27208, Note_off_c, 0, 60, 0
2, 27224, Note_on_c, 0, 53, 70
2, 27300, Note_off_c, 0, 53, 0
2, 27340, Note_on_c, 0, 44, 86
2, 27340, Note_on_c, 0, 32, 82
2, 27340, Note_on_c, 0, 64, 64
2, 27436, Control_c, 0, 64, 24
2, 27452, Note_on_c, 0, 59, 55
2, 27452, Control_c, 0, 64, 0
2, 27480, Note_off_c, 0, 64, 0
2, 27512, Control_c, 0, 64, 56
2, 27520, Note_off_c, 0, 59, 0
2, 27528, Note_on_c, 0, 62, 59
2, 27528, Control_c, 0, 64, 127
2, 27560, Note_off_c, 0, 62, 0
2, 27600, Note_off_c, 0, 32, 0
2, 27632, Note_off_c, 0, 44, 0
2, 27632, Note_on_c, 0, 65, 70
2, 27700, Note_off_c, 0, 65, 0
2, 27728, Note_on_c, 0, 76, 74
2, 27816, Note_on_c, 0, 71, 63
2, 27892, Note_off_c, 0, 76, 0
2, 27908, Note_off_c, 0, 71, 0
2, 27908, Note_on_c, 0, 74, 68
2, 27908, Control_c, 0, 64, 72
2, 27920, Note_on_c, 0, 55, 80
2, 27920, Control_c, 0, 64, 0
2, 27924, Note_on_c, 0, 62, 80
2, 27940, Note_off_c, 0, 74, 0
2, 27944, Control_c, 0, 64, 40
2, 27960, Control_c, 0, 64, 88
2, 27968, Control_c, 0, 64, 127
2, 28012, Note_on_c, 0, 77, 82
2, 28040, Note_off_c, 0, 55, 0
2, 28040, Note_off_c, 0, 62, 0
2, 28096, Note_off_c, 0, 77, 0
2, 28116, Note_on_c, 0, 62, 84
2, 28116, Note_on_c, 0, 88, 87
2, 28120, Note_on_c, 0, 53, 73
2, 28212, Note_on_c, 0, 83, 75
2, 28216, Note_off_c, 0, 62, 0
2, 28232, Note_off_c, 0, 53, 0
2, 28240, Note_off_c, 0, 88, 0
2, 28304, Note_off_c, 0, 83, 0
2, 28304, Note_on_c, 0, 86, 77
2, 28308, Note_on_c, 0, 62, 88
2, 28316, Note_on_c, 0, 52, 80
2, 28384, Note_off_c, 0, 86, 0
2, 28392, Note_on_c, 0, 77, 71
2, 28428, Note_off_c, 0, 62, 64
2, 28432, Note_off_c, 0, 52, 64
2, 28496, Note_off_c, 0, 77, 64
2, 28504, Note_on_c, 0, 86, 82
2, 28512, Note_on_c, 0, 52, 83
2, 28512, Note_on_c, 0, 60, 93
2, 28556, Control_c, 0, 64, 40
2, 28568, Control_c, 0, 64, 0
2, 28612, Note_on_c, 0, 81, 59
2, 28628, Note_off_c, 0, 86, 0
2, 28644, Control_c, 0, 64, 72
2, 28656, Control_c, 0, 64, 127
2, 28696, Note_on_c, 0, 84, 67
2, 28716, Note_off_c, 0, 60, 0
2, 28728, Note_off_c, 0, 81, 0
2, 28744, Note_off_c, 0, 52, 0
2, 28780, Note_off_c, 0, 84, 0
2, 28788, Note_on_c, 0, 76, 68
2, 28812, Note_off_c, 0, 76, 0
2, 28888, Note_on_c, 0, 74, 71
2, 28980, Note_on_c, 0, 69, 64
2, 29000, Note_off_c, 0, 74, 0
2, 29072, Note_on_c, 0, 72, 70
2, 29076, Note_on_c, 0, 45, 92
2, 29080, Note_on_c, 0, 33, 76
2, 29084, Note_off_c, 0, 69, 0
2, 29116, Control_c, 0, 64, 40
2, 29128, Control_c, 0, 64, 0
2, 29164, Control_c, 0, 64, 72
2, 29168, Note_off_c, 0, 72, 0
2, 29176, Note_on_c, 0, 64, 74
2, 29180, Control_c, 0, 64, 127
2, 29228, Note_off_c, 0, 64, 0
2, 29300, Note_on_c, 0, 62, 71
2, 29408, Note_on_c, 0, 57, 58
2, 29416, Note_off_c, 0, 62, 0
2, 29424, Note_off_c, 0, 33, 0
2, 29464, Note_off_c, 0, 45, 0
2, 29492, Note_off_c, 0, 57, 0
2, 29500, Note_on_c, 0, 60, 54
2, 29576, Note_on_c, 0, 59, 68
2, 29588, Note_off_c, 0, 60, 0
2, 29620, Note_off_c, 0, 59, 0
2, 29708, Note_on_c, 0, 47, 89
2, 29708, Note_on_c, 0, 35, 80
2, 29736, Note_on_c, 0, 69, 51
2, 29736, Control_c, 0, 64, 40
2, 29748, Control_c, 0, 64, 0
2, 29804, Note_off_c, 0, 69, 0
2, 29812, Control_c, 0, 64, 56
2, 29824, Note_on_c, 0, 64, 65
2, 29824, Control_c, 0, 64, 127
2, 29868, Note_off_c, 0, 35, 0
2, 29896, Note_off_c, 0, 64, 0
2, 29900, Note_on_c, 0, 68, 57
2, 29904, Note_off_c, 0, 47, 0
2, 29944, Note_off_c, 0, 68, 64
2, 30004, Note_on_c, 0, 71, 75
2, 30072, Note_off_c, 0, 71, 0
2, 30092, Note_on_c, 0, 81, 70
2, 30176, Note_on_c, 0, 76, 66
2, 30216, Note_off_c, 0, 81, 0
2, 30260, Note_off_c, 0, 76, 0
2, 30260, Note_on_c, 0, 80, 69
2, 30268, Control_c, 0, 64, 104
2, 30280, Note_on_c, 0, 64, 81
2, 30280, Note_on_c, 0, 56, 66
2, 30284, Control_c, 0, 64, 72
2, 30288, Note_on_c, 0, 59, 60
2, 30292, Note_off_c, 0, 80, 0
2, 30296, Control_c, 0, 64, 127
2, 30360, Note_on_c, 0, 83, 82
2, 30420, Note_off_c, 0, 64, 0
2, 30420, Note_off_c, 0, 56, 0
2, 30432, Note_off_c, 0, 59, 0
2, 30464, Note_on_c, 0, 93, 92
2, 30472, Note_on_c, 0, 68, 84
2, 30500, Note_off_c, 0, 83, 0
2, 30532, Note_off_c, 0, 68, 0
2, 30564, Note_on_c, 0, 88, 72
2, 30572, Note_off_c, 0, 93, 0
2, 30656, Note_on_c, 0, 92, 84
2, 30656, Note_on_c, 0, 73, 97
2, 30660, Note_off_c, 0, 88, 0
2, 30716, Note_off_c, 0, 73, 0
2, 30728, Note_off_c, 0, 92, 0
2, 30744, Note_on_c, 0, 83, 75
2, 30860, Note_on_c, 0, 71, 93
2, 30864, Note_on_c, 0, 69, 97
2, 30864, Note_on_c, 0, 59, 82
2, 30868, Note_on_c, 0, 63, 79
2, 30880, Control_c, 0, 64, 104
2, 30884, Note_off_c, 0, 83, 0
2, 30884, Note_on_c, 0, 92, 84
2, 30892, Control_c, 0, 64, 0
2, 30968, Control_c, 0, 64, 56
2, 30976, Note_on_c, 0, 87, 65
2, 30980, Control_c, 0, 64, 127
2, 31004, Note_off_c, 0, 92, 0
2, 31068, Note_on_c, 0, 90, 63
2, 31092, Note_off_c, 0, 71, 0
2, 31092, Note_off_c, 0, 69, 0
2, 31112, Note_off_c, 0, 59, 0
2, 31116, Note_off_c, 0, 87, 0
2, 31128, Note_off_c, 0, 63, 0
2, 31148, Note_off_c, 0, 90, 0
2, 31148, Note_on_c, 0, 83, 69
2, 31192, Note_off_c, 0, 83, 0
2, 31248, Note_on_c, 0, 80, 62
2, 31340, Note_on_c, 0, 75, 64
2, 31372, Note_off_c, 0, 80, 0
2, 31436, Note_on_c, 0, 78, 59
2, 31444, Note_off_c, 0, 75, 0
2, 31444, Note_on_c, 0, 47, 90
2, 31444, Note_on_c, 0, 59, 80
2, 31524, Note_off_c, 0, 78, 64
2, 31532, Note_on_c, 0, 71, 66
2, 31576, Note_off_c, 0, 71, 0
2, 31636, Note_on_c, 0, 68, 64
2, 31700, Note_off_c, 0, 59, 0
2, 31712, Note_on_c, 0, 63, 53
2, 31728, Note_off_c, 0, 68, 0
2, 31740, Note_off_c, 0, 47, 64
2, 31792, Note_off_c, 0, 63, 0
2, 31800, Note_on_c, 0, 66, 62
2, 31872, Note_off_c, 0, 66, 0
2, 31884, Note_on_c, 0, 59, 67
2, 31968, Note_off_c, 0, 59, 0
2, 32004, Note_on_c, 0, 40, 84
2, 32004, Note_on_c, 0, 52, 80
2, 32012, Note_on_c, 0, 69, 79
2, 32048, Control_c, 0, 64, 104
2, 32060, Control_c, 0, 64, 24
2, 32072, Control_c, 0, 64, 0
2, 32112, Note_on_c, 0, 64, 63
2, 32136, Control_c, 0, 64, 56
2, 32144, Note_off_c, 0, 69, 0
2, 32148, Control_c, 0, 64, 127
2, 32184, Note_on_c, 0, 68, 57
2, 32188, Note_off_c, 0, 64, 0
2, 32232, Note_off_c, 0, 68, 0
2, 32244, Note_off_c, 0, 40, 0
2, 32260, Note_off_c, 0, 52, 0
2, 32300, Note_on_c, 0, 71, 63
2, 32368, Note_off_c, 0, 71, 0
2, 32396, Note_on_c, 0, 81, 66
2, 32476, Note_on_c, 0, 76, 68
2, 32508, Note_off_c, 0, 81, 0
2, 32556, Note_on_c, 0, 80, 71
2, 32568, Note_off_c, 0, 76, 0
2, 32592, Note_on_c, 0, 68, 80
2, 32592, Note_on_c, 0, 59, 74
2, 32604, Note_off_c, 0, 80, 0
2, 32664, Note_on_c, 0, 83, 87
2, 32696, Note_off_c, 0, 68, 0
2, 32704, Note_off_c, 0, 59, 0
2, 32764, Note_on_c, 0, 93, 93
2, 32772, Note_on_c, 0, 67, 74
2, 32784, Note_on_c, 0, 58, 62
2, 32808, Note_off_c, 0, 83, 0
2, 32852, Note_off_c, 0, 67, 0
2, 32872, Note_on_c, 0, 88, 67
2, 32884, Note_off_c, 0, 93, 0
2, 32892, Note_off_c, 0, 58, 0
2, 32960, Note_on_c, 0, 68, 88
2, 32964, Note_on_c, 0, 92, 81
2, 32964, Note_on_c, 0, 59, 73
2, 32980, Note_off_c, 0, 88, 0
2, 33012, Note_off_c, 0, 68, 0
2, 33020, Note_off_c, 0, 59, 64
2, 33028, Note_off_c, 0, 92, 64
2, 33048, Note_on_c, 0, 83, 81
2, 33088, Note_off_c, 0, 83, 0
2, 33196, Note_on_c, 0, 100, 102
2, 33200, Note_on_c, 0, 64, 99
2, 33200, Note_on_c, 0, 56, 77
2, 33204, Note_on_c, 0, 52, 89
2, 33204, Control_c, 0, 64, 88
2, 33216, Control_c, 0, 64, 0
2, 33292, Control_c, 0, 64, 127
2, 33304, Note_off_c, 0, 52, 0
2, 33320, Note_off_c, 0, 64, 0
2, 33324, Note_off_c, 0, 100, 0
2, 33328, Note_off_c, 0, 56, 0
2, 34208, Control_c, 0, 64, 104
2, 34216, Control_c, 0, 64, 40
2, 34232, Control_c, 0, 64, 0
2, 34440, Note_on_c, 0, 33, 96
2, 34444, Note_on_c, 0, 101, 103
2, 34472, Control_c, 0, 64, 127
2, 34512, Note_off_c, 0, 33, 0
2, 34564, Note_on_c, 0, 96, 87
2, 34604, Note_off_c, 0, 101, 64
2, 34648, Note_on_c, 0, 100, 85
2, 34668, Note_off_c, 0, 96, 0
2, 34732, Note_off_c, 0, 100, 0
2, 34740, Note_on_c, 0, 93, 79
2, 34824, Note_on_c, 0, 99, 82
2, 34840, Note_off_c, 0, 93, 0
2, 34908, Note_on_c, 0, 96, 73
2, 34936, Note_off_c, 0, 99, 0
2, 34976, Note_off_c, 0, 96, 0
2, 35008, Note_on_c, 0, 64, 89
2, 35012, Note_on_c, 0, 98, 85
2, 35012, Note_on_c, 0, 57, 68
2, 35012, Note_on_c, 0, 60, 78
2, 35104, Note_on_c, 0, 93, 77
2, 35116, Note_off_c, 0, 98, 0
2, 35192, Note_off_c, 0, 93, 0
2, 35208, Note_on_c, 0, 97, 69
2, 35288, Note_on_c, 0, 93, 72
2, 35296, Note_off_c, 0, 57, 0
2, 35300, Note_off_c, 0, 60, 0
2, 35304, Note_off_c, 0, 64, 0
2, 35312, Note_off_c, 0, 97, 0
2, 35388, Note_off_c, 0, 93, 0
2, 35388, Note_on_c, 0, 96, 76
2, 35456, Note_on_c, 0, 64, 85
2, 35464, Note_on_c, 0, 57, 68
2, 35464, Note_on_c, 0, 60, 70
2, 35464, Note_on_c, 0, 88, 64
2, 35484, Note_off_c, 0, 96, 0
2, 35492, Note_off_c, 0, 60, 0
2, 35496, Note_off_c, 0, 64, 0
2, 35496, Note_off_c, 0, 57, 0
2, 35544, Note_off_c, 0, 88, 0
2, 35552, Note_on_c, 0, 64, 86
2, 35552, Note_on_c, 0, 57, 80
2, 35556, Note_on_c, 0, 60, 67
2, 35560, Note_on_c, 0, 95, 86
2, 35588, Control_c, 0, 64, 88
2, 35600, Control_c, 0, 64, 40
2, 35616, Control_c, 0, 64, 0
2, 35628, Control_c, 0, 64, 24
2, 35640, Control_c, 0, 64, 72
2, 35644, Note_on_c, 0, 88, 66
2, 35652, Control_c, 0, 64, 127
2, 35660, Note_off_c, 0, 95, 0
2, 35728, Note_off_c, 0, 88, 0
2, 35740, Note_on_c, 0, 94, 68
2, 35828, Note_off_c, 0, 94, 0
2, 35832, Note_on_c, 0, 84, 66
2, 35904, Note_off_c, 0, 57, 0
2, 35912, Note_off_c, 0, 60, 0
2, 35920, Note_off_c, 0, 84, 0
2, 35924, Note_off_c, 0, 64, 0
2, 35932, Note_on_c, 0, 93, 82
2, 36016, Note_on_c, 0, 88, 60
2, 36036, Note_off_c, 0, 93, 0
2, 36116, Note_on_c, 0, 65, 90
2, 36120, Note_on_c, 0, 92, 75
2, 36124, Note_off_c, 0, 88, 64
2, 36128, Note_on_c, 0, 60, 72
2, 36128, Note_on_c, 0, 57, 66
2, 36160, Control_c, 0, 64, 72
2, 36172, Control_c, 0, 64, 24
2, 36188, Control_c, 0, 64, 40
2, 36200, Control_c, 0, 64, 72
2, 36212, Note_on_c, 0, 84, 68
2, 36212, Control_c, 0, 64, 127
2, 36220, Note_off_c, 0, 92, 0
2, 36292, Note_off_c, 0, 84, 0
2, 36312, Note_on_c, 0, 91, 83
2, 36396, Note_on_c, 0, 84, 63
2, 36412, Note_off_c, 0, 91, 0
2, 36436, Note_off_c, 0, 65, 0
2, 36444, Note_off_c, 0, 57, 0
2, 36448, Note_off_c, 0, 60, 0
2, 36476, Note_off_c, 0, 84, 0
2, 36492, Note_on_c, 0, 90, 67
2, 36580, Note_off_c, 0, 90, 0
2, 36580, Note_on_c, 0, 81, 60
2, 36668, Note_on_c, 0, 64, 82
2, 36668, Note_on_c, 0, 60, 70
2, 36672, Note_on_c, 0, 57, 62
2, 36676, Note_on_c, 0, 89, 83
2, 36688, Note_off_c, 0, 81, 0
2, 36696, Control_c, 0, 64, 88
2, 36708, Control_c, 0, 64, 24
2, 36720, Control_c, 0, 64, 0
2, 36744, Control_c, 0, 64, 40
2, 36756, Control_c, 0, 64, 104
2, 36772, Note_on_c, 0, 84, 71
2, 36772, Control_c, 0, 64, 127
2, 36784, Note_off_c, 0, 89, 0
2, 36852, Note_off_c, 0, 84, 0
2, 36860, Note_on_c, 0, 88, 68
2, 36880, Note_off_c, 0, 60, 0
2, 36900, Note_off_c, 0, 57, 0
2, 36940, Note_off_c, 0, 88, 0
2, 36956, Note_on_c, 0, 81, 65
2, 37036, Note_on_c, 0, 87, 61
2, 37056, Note_off_c, 0, 81, 0
2, 37128, Note_off_c, 0, 64, 0
2, 37132, Note_on_c, 0, 84, 66
2, 37144, Note_off_c, 0, 87, 0
2, 37192, Note_off_c, 0, 84, 0
2, 37220, Note_on_c, 0, 60, 75
2, 37220, Note_on_c, 0, 57, 64
2, 37232, Note_on_c, 0, 52, 64
2, 37236, Note_on_c, 0, 86, 82
2, 37240, Control_c, 0, 64, 72
2, 37256, Control_c, 0, 64, 0
2, 37288, Control_c, 0, 64, 40
2, 37304, Control_c, 0, 64, 88
2, 37316, Control_c, 0, 64, 127
2, 37324, Note_on_c, 0, 81, 64
2, 37336, Note_off_c, 0, 86, 0
2, 37408, Note_off_c, 0, 81, 0
2, 37420, Note_on_c, 0, 85, 67
2, 37508, Note_on_c, 0, 81, 67
2, 37516, Note_off_c, 0, 85, 0
2, 37520, Note_off_c, 0, 57, 0
2, 37540, Note_off_c, 0, 60, 0
2, 37592, Note_off_c, 0, 81, 0
2, 37596, Note_on_c, 0, 84, 80
2, 37668, Note_off_c, 0, 84, 64
2, 37676, Note_on_c, 0, 76, 74
2, 37752, Note_off_c, 0, 76, 0
2, 37772, Note_on_c, 0, 83, 86
2, 37772, Note_on_c, 0, 64, 89
2, 37776, Note_on_c, 0, 60, 80
2, 37780, Note_on_c, 0, 57, 62
2, 37812, Control_c, 0, 64, 104
2, 37824, Control_c, 0, 64, 40
2, 37836, Note_off_c, 0, 52, 64
2, 37836, Control_c, 0, 64, 0
2, 37848, Control_c, 0, 64, 24
2, 37856, Note_on_c, 0, 76, 56
2, 37864, Note_off_c, 0, 83, 0
2, 37864, Control_c, 0, 64, 56
2, 37876, Control_c, 0, 64, 127
2, 37924, Note_off_c, 0, 76, 0
2, 37932, Note_on_c, 0, 82, 61
2, 38020, Note_off_c, 0, 82, 0
2, 38032, Note_on_c, 0, 72, 59
2, 38060, Note_off_c, 0, 57, 0
2, 38064, Note_off_c, 0, 60, 0
2, 38084, Note_off_c, 0, 64, 0
2, 38120, Note_off_c, 0, 72, 0
2, 38120, Note_on_c, 0, 81, 68
2, 38208, Note_on_c, 0, 76, 58
2, 38220, Note_off_c, 0, 81, 0
2, 38288, Note_off_c, 0, 76, 0
2, 38292, Note_on_c, 0, 80, 62
2, 38384, Note_off_c, 0, 80, 0
2, 38388, Note_on_c, 0, 72, 64
2, 38460, Note_off_c, 0, 72, 0
2, 38468, Note_on_c, 0, 79, 74
2, 38548, Note_on_c, 0, 72, 64
2, 38552, Note_off_c, 0, 79, 0
2, 38624, Note_off_c, 0, 72, 0
2, 38624, Note_on_c, 0, 78, 62
2, 38716, Note_off_c, 0, 78, 0
2, 38720, Note_on_c, 0, 69, 61
2, 38820, Note_off_c, 0, 69, 0
2, 38840, Note_on_c, 0, 77, 82
2, 38848, Note_on_c, 0, 24, 64
2, 38848, Note_on_c, 0, 36, 70
2, 38868, Control_c, 0, 64, 40
2, 38880, Control_c, 0, 64, 0
2, 38940, Note_off_c, 0, 77, 0
2, 38940, Note_on_c, 0, 70, 67
2, 38944, Control_c, 0, 64, 104
2, 38956, Control_c, 0, 64, 127
2, 39012, Note_off_c, 0, 24, 0
2, 39012, Note_off_c, 0, 36, 0
2, 39040, Note_off_c, 0, 70, 0
2, 39044, Note_on_c, 0, 76, 75
2, 39128, Note_on_c, 0, 67, 62
2, 39132, Note_off_c, 0, 76, 0
2, 39220, Note_off_c, 0, 67, 64
2, 39224, Note_on_c, 0, 75, 71
2, 39312, Note_on_c, 0, 70, 54
2, 39324, Note_off_c, 0, 75, 0
2, 39392, Note_off_c, 0, 70, 0
2, 39392, Note_on_c, 0, 52, 79
2, 39400, Note_on_c, 0, 74, 79
2, 39400, Note_on_c, 0, 43, 63
2, 39400, Control_c, 0, 64, 88
2, 39412, Control_c, 0, 64, 24
2, 39448, Control_c, 0, 64, 127
2, 39484, Note_on_c, 0, 67, 67
2, 39492, Note_off_c, 0, 74, 0
2, 39572, Note_on_c, 0, 73, 62
2, 39580, Note_off_c, 0, 67, 0
2, 39648, Note_off_c, 0, 43, 0
2, 39656, Note_on_c, 0, 70, 63
2, 39664, Note_off_c, 0, 52, 0
2, 39676, Note_off_c, 0, 73, 0
2, 39760, Note_off_c, 0, 70, 0
2, 39776, Note_on_c, 0, 72, 82
2, 39780, Note_on_c, 0, 52, 77
2, 39788, Note_on_c, 0, 43, 68
2, 39836, Note_off_c, 0, 52, 0
2, 39844, Note_off_c, 0, 43, 0
2, 39856, Note_off_c, 0, 72, 0
2, 39860, Note_on_c, 0, 67, 74
2, 39948, Note_on_c, 0, 43, 60
2, 39948, Note_on_c, 0, 52, 72
2, 39952, Note_on_c, 0, 71, 78
2, 39964, Note_off_c, 0, 67, 0
2, 39972, Control_c, 0, 64, 88
2, 39984, Control_c, 0, 64, 24
2, 39996, Control_c, 0, 64, 0
2, 40008, Control_c, 0, 64, 40
2, 40020, Control_c, 0, 64, 88
2, 40036, Note_on_c, 0, 67, 63
2, 40036, Control_c, 0, 64, 127
2, 40040, Note_off_c, 0, 71, 0
2, 40120, Note_off_c, 0, 67, 0
2, 40144, Note_on_c, 0, 70, 67
2, 40216, Note_off_c, 0, 70, 0
2, 40240, Note_on_c, 0, 64, 72
2, 40308, Note_off_c, 0, 64, 0
2, 40336, Note_on_c, 0, 69, 65
2, 40364, Note_off_c, 0, 43, 0
2, 40384, Note_off_c, 0, 52, 0
2, 40412, Note_off_c, 0, 69, 0
2, 40416, Note_on_c, 0, 60, 67
2, 40504, Note_off_c, 0, 60, 0
2, 40512, Note_on_c, 0, 68, 69
2, 40520, Note_on_c, 0, 53, 79
2, 40520, Note_on_c, 0, 43, 64
2, 40528, Control_c, 0, 64, 104
2, 40540, Control_c, 0, 64, 24
2, 40556, Control_c, 0, 64, 0
2, 40568, Control_c, 0, 64, 56
2, 40580, Control_c, 0, 64, 104
2, 40592, Control_c, 0, 64, 127
2, 40612, Note_off_c, 0, 68, 0
2, 40632, Note_on_c, 0, 58, 57
2, 40680, Note_off_c, 0, 58, 0
2, 40716, Note_on_c, 0, 67, 74
2, 40796, Note_off_c, 0, 67, 0
2, 40804, Note_on_c, 0, 60, 49
2, 40872, Note_off_c, 0, 53, 64
2, 40880, Note_off_c, 0, 43, 64
2, 40900, Note_off_c, 0, 60, 0
2, 40900, Note_on_c, 0, 66, 57
2, 40976, Note_on_c, 0, 58, 46
2, 40984, Note_off_c, 0, 66, 0
2, 41060, Note_off_c, 0, 58, 0
2, 41076, Note_on_c, 0, 65, 74
2, 41088, Note_on_c, 0, 52, 74
2, 41096, Note_on_c, 0, 43, 66
2, 41100, Control_c, 0, 64, 88
2, 41112, Control_c, 0, 64, 24
2, 41128, Control_c, 0, 64, 0
2, 41140, Control_c, 0, 64, 24
2, 41152, Control_c, 0, 64, 72
2, 41164, Control_c, 0, 64, 127
2, 41172, Note_off_c, 0, 65, 0
2, 41172, Note_on_c, 0, 60, 66
2, 41248, Note_on_c, 0, 64, 66
2, 41252, Note_off_c, 0, 60, 0
2, 41316, Note_off_c, 0, 52, 0
2, 41328, Note_off_c, 0, 64, 0
2, 41344, Note_on_c, 0, 58, 61
2, 41352, Note_off_c, 0, 43, 0
2, 41424, Note_off_c, 0, 58, 0
2, 41432, Note_on_c, 0, 63, 59
2, 41508, Note_on_c, 0, 60, 63
2, 41532, Note_off_c, 0, 63, 0
2, 41576, Note_off_c, 0, 60, 0
2, 41612, Note_on_c, 0, 62, 74
2, 41616, Note_on_c, 0, 36, 74
2, 41616, Note_on_c, 0, 48, 70
2, 41636, Control_c, 0, 64, 72
2, 41648, Control_c, 0, 64, 24
2, 41684, Control_c, 0, 64, 127
2, 41696, Note_off_c, 0, 62, 0
2, 41696, Note_on_c, 0, 55, 60
2, 41772, Note_on_c, 0, 61, 63
2, 41792, Note_off_c, 0, 55, 0
2, 41864, Note_on_c, 0, 58, 51
2, 41868, Note_off_c, 0, 61, 0
2, 41908, Note_off_c, 0, 48, 0
2, 41916, Note_off_c, 0, 36, 0
2, 41944, Note_off_c, 0, 58, 0
2, 41960, Note_on_c, 0, 60, 68
2, 42036, Note_on_c, 0, 55, 59
2, 42044, Note_off_c, 0, 60, 0
2, 42120, Note_off_c, 0, 55, 0
2, 42132, Note_on_c, 0, 52, 70
2, 42136, Note_on_c, 0, 43, 63
2, 42136, Note_on_c, 0, 59, 77
2, 42140, Control_c, 0, 64, 104
2, 42152, Control_c, 0, 64, 24
2, 42168, Control_c, 0, 64, 0
2, 42220, Control_c, 0, 64, 72
2, 42228, Control_c, 0, 64, 127
2, 42256, Note_on_c, 0, 58, 49
2, 42264, Note_off_c, 0, 59, 64
2, 42344, Note_off_c, 0, 58, 0
2, 42352, Note_on_c, 0, 60, 74
2, 42408, Note_off_c, 0, 43, 64
2, 42416, Note_off_c, 0, 52, 64
2, 42428, Note_off_c, 0, 60, 0
2, 42436, Note_on_c, 0, 55, 64
2, 42528, Note_on_c, 0, 61, 69
2, 42548, Note_off_c, 0, 55, 0
2, 42612, Note_on_c, 0, 58, 59
2, 42616, Note_off_c, 0, 61, 0
2, 42692, Note_off_c, 0, 58, 0
2, 42696, Note_on_c, 0, 62, 67
2, 42772, Note_off_c, 0, 62, 0
2, 42784, Note_on_c, 0, 55, 70
2, 42872, Note_on_c, 0, 63, 68
2, 42876, Control_c, 0, 64, 88
2, 42892, Control_c, 0, 64, 0
2, 42900, Note_off_c, 0, 55, 0
2, 42928, Control_c, 0, 64, 40
2, 42940, Control_c, 0, 64, 104
2, 42956, Control_c, 0, 64, 127
2, 42964, Note_on_c, 0, 58, 57
2, 42996, Note_off_c, 0, 63, 0
2, 43052, Note_off_c, 0, 58, 0
2, 43060, Note_on_c, 0, 64, 74
2, 43148, Note_off_c, 0, 64, 0
2, 43148, Note_on_c, 0, 55, 66
2, 43212, Note_off_c, 0, 55, 0
2, 43300, Note_on_c, 0, 69, 63
2, 43316, Note_on_c, 0, 36, 71
2, 43348, Control_c, 0, 64, 104
2, 43360, Control_c, 0, 64, 0
2, 43408, Note_on_c, 0, 64, 65
2, 43440, Control_c, 0, 64, 104
2, 43448, Control_c, 0, 64, 127
2, 43456, Note_off_c, 0, 69, 0
2, 43492, Note_on_c, 0, 67, 66
2, 43496, Note_off_c, 0, 36, 0
2, 43496, Note_off_c, 0, 64, 0
2, 43536, Note_off_c, 0, 67, 0
2, 43592, Note_on_c, 0, 70, 78
2, 43632, Note_off_c, 0, 70, 0
2, 43684, Note_on_c, 0, 81, 78
2, 43780, Note_on_c, 0, 76, 66
2, 43812, Note_off_c, 0, 81, 64
2, 43848, Note_on_c, 0, 64, 78
2, 43856, Note_on_c, 0, 79, 72
2, 43856, Note_on_c, 0, 55, 65
2, 43864, Note_off_c, 0, 76, 0
2, 43892, Note_off_c, 0, 64, 0
2, 43892, Note_off_c, 0, 55, 0
2, 43896, Note_off_c, 0, 79, 0
2, 43940, Note_on_c, 0, 82, 82
2, 44036, Note_off_c, 0, 82, 0
2, 44048, Note_on_c, 0, 47, 70
2, 44052, Note_on_c, 0, 93, 93
2, 44148, Note_off_c, 0, 47, 0
2, 44160, Note_on_c, 0, 88, 59
2, 44164, Note_off_c, 0, 93, 0
2, 44208, Note_on_c, 0, 48, 77
2, 44224, Note_on_c, 0, 91, 80
2, 44236, Note_off_c, 0, 88, 0
2, 44256, Note_off_c, 0, 48, 0
2, 44312, Note_on_c, 0, 82, 73
2, 44320, Note_off_c, 0, 91, 0
2, 44396, Note_on_c, 0, 49, 70
2, 44416, Control_c, 0, 64, 40
2, 44424, Note_on_c, 0, 55, 72
2, 44424, Control_c, 0, 64, 0
2, 44428, Note_off_c, 0, 82, 0
2, 44452, Note_off_c, 0, 49, 0
2, 44456, Note_on_c, 0, 93, 96
2, 44480, Control_c, 0, 64, 40
2, 44484, Note_on_c, 0, 63, 82
2, 44492, Control_c, 0, 64, 127
2, 44504, Note_on_c, 0, 58, 67
2, 44544, Note_off_c, 0, 58, 0
2, 44568, Note_on_c, 0, 87, 71
2, 44612, Note_off_c, 0, 93, 0
2, 44656, Note_off_c, 0, 55, 0
2, 44664, Note_on_c, 0, 91, 64
2, 44672, Note_off_c, 0, 63, 0
2, 44712, Note_off_c, 0, 87, 0
2, 44728, Note_on_c, 0, 82, 69
2, 44732, Note_off_c, 0, 91, 0
2, 44768, Note_off_c, 0, 82, 0
2, 44832, Note_on_c, 0, 81, 73
2, 44916, Note_on_c, 0, 75, 64
2, 44948, Note_off_c, 0, 81, 0
2, 45004, Note_on_c, 0, 37, 81
2, 45004, Note_on_c, 0, 49, 70
2, 45008, Note_off_c, 0, 75, 0
2, 45012, Note_on_c, 0, 79, 70
2, 45096, Note_on_c, 0, 70, 65
2, 45104, Note_off_c, 0, 79, 0
2, 45136, Note_off_c, 0, 70, 0
2, 45212, Note_on_c, 0, 69, 74
2, 45292, Note_on_c, 0, 63, 60
2, 45296, Note_off_c, 0, 49, 0
2, 45308, Note_off_c, 0, 69, 64
2, 45376, Note_off_c, 0, 63, 64
2, 45376, Note_on_c, 0, 67, 60
2, 45452, Note_on_c, 0, 58, 61
2, 45460, Note_off_c, 0, 67, 0
2, 45504, Note_off_c, 0, 37, 64
2, 45528, Note_off_c, 0, 58, 0
2, 45576, Note_on_c, 0, 38, 79
2, 45576, Note_on_c, 0, 50, 75
2, 45584, Note_on_c, 0, 69, 74
2, 45596, Control_c, 0, 64, 24
2, 45608, Control_c, 0, 64, 0
2, 45668, Note_on_c, 0, 62, 55
2, 45684, Control_c, 0, 64, 104
2, 45692, Note_off_c, 0, 69, 0
2, 45696, Control_c, 0, 64, 127
2, 45752, Note_off_c, 0, 62, 0
2, 45760, Note_on_c, 0, 67, 54
2, 45768, Note_off_c, 0, 38, 0
2, 45812, Note_off_c, 0, 67, 0
2, 45868, Note_off_c, 0, 50, 0
2, 45868, Note_on_c, 0, 70, 76
2, 45928, Note_off_c, 0, 70, 0
2, 45964, Note_on_c, 0, 81, 74
2, 46052, Note_on_c, 0, 74, 70
2, 46084, Note_off_c, 0, 81, 0
2, 46128, Note_on_c, 0, 79, 70
2, 46132, Note_off_c, 0, 74, 0
2, 46132, Note_on_c, 0, 67, 79
2, 46132, Note_on_c, 0, 62, 74
2, 46140, Note_on_c, 0, 58, 56
2, 46172, Note_off_c, 0, 62, 0
2, 46176, Note_off_c, 0, 79, 0
2, 46176, Note_off_c, 0, 67, 0
2, 46200, Note_off_c, 0, 58, 0
2, 46236, Note_on_c, 0, 82, 73
2, 46304, Note_off_c, 0, 82, 0
2, 46328, Note_on_c, 0, 49, 74
2, 46332, Note_on_c, 0, 93, 94
2, 46372, Note_off_c, 0, 49, 0
2, 46404, Note_on_c, 0, 86, 75
2, 46436, Note_off_c, 0, 93, 0
2, 46464, Note_off_c, 0, 86, 0
2, 46480, Note_on_c, 0, 50, 82
2, 46492, Note_on_c, 0, 91, 79
2, 46544, Note_off_c, 0, 50, 0
2, 46580, Note_on_c, 0, 82, 73
2, 46596, Note_off_c, 0, 91, 0
2, 46636, Control_c, 0, 64, 24
2, 46644, Note_on_c, 0, 51, 71
2, 46652, Control_c, 0, 64, 0
2, 46692, Note_off_c, 0, 82, 0
2, 46700, Control_c, 0, 64, 40
2, 46712, Control_c, 0, 64, 127
2, 46724, Note_off_c, 0, 51, 0
2, 46724, Note_on_c, 0, 58, 70
2, 46732, Note_on_c, 0, 61, 76
2, 46748, Note_on_c, 0, 93, 99
2, 46780, Note_on_c, 0, 67, 83
2, 46844, Note_on_c, 0, 85, 73
2, 46860, Note_off_c, 0, 93, 64
2, 46908, Note_off_c, 0, 67, 64
2, 46940, Note_off_c, 0, 58, 64
2, 46940, Note_on_c, 0, 91, 68
2, 46952, Note_off_c, 0, 85, 0
2, 46964, Note_off_c, 0, 61, 64
2, 46996, Note_on_c, 0, 82, 71
2, 47004, Note_off_c, 0, 91, 0
2, 47032, Note_off_c, 0, 82, 0
2, 47108, Note_on_c, 0, 81, 64
2, 47196, Note_on_c, 0, 73, 59
2, 47204, Note_off_c, 0, 81, 0
2, 47288, Note_off_c, 0, 73, 0
2, 47292, Note_on_c, 0, 79, 75
2, 47296, Note_on_c, 0, 39, 69
2, 47340, Note_on_c, 0, 51, 31
2, 47364, Note_on_c, 0, 70, 64
2, 47372, Note_off_c, 0, 79, 0
2, 47400, Note_off_c, 0, 70, 0
2, 47484, Note_on_c, 0, 69, 68
2, 47576, Note_off_c, 0, 69, 0
2, 47584, Note_on_c, 0, 61, 60
2, 47640, Note_off_c, 0, 61, 0
2, 47652, Note_on_c, 0, 67, 62
2, 47664, Note_off_c, 0, 51, 0
2, 47724, Note_off_c, 0, 67, 0
2, 47736, Note_on_c, 0, 58, 63
2, 47812, Note_off_c, 0, 39, 0
2, 47812, Note_off_c, 0, 58, 0
2, 47860, Note_on_c, 0, 69, 81
2, 47860, Note_on_c, 0, 40, 69
2, 47860, Note_on_c, 0, 52, 70
2, 47908, Control_c, 0, 64, 88
2, 47920, Control_c, 0, 64, 24
2, 47932, Control_c, 0, 64, 0
2, 47964, Note_off_c, 0, 69, 0
2, 47964, Note_on_c, 0, 60, 59
2, 48020, Control_c, 0, 64, 104
2, 48036, Control_c, 0, 64, 127
2, 48040, Note_off_c, 0, 60, 0
2, 48060, Note_on_c, 0, 67, 60
2, 48132, Note_off_c, 0, 67, 0
2, 48148, Note_on_c, 0, 58, 62
2, 48152, Note_off_c, 0, 52, 0
2, 48168, Note_off_c, 0, 40, 0
2, 48184, Note_off_c, 0, 58, 0
2, 48240, Note_on_c, 0, 72, 82
2, 48324, Note_on_c, 0, 69, 68
2, 48336, Note_off_c, 0, 72, 0
2, 48416, Note_on_c, 0, 70, 68
2, 48428, Note_off_c, 0, 69, 64
2, 48428, Note_on_c, 0, 60, 88
2, 48508, Note_off_c, 0, 70, 0
2, 48524, Note_on_c, 0, 67, 73
2, 48584, Note_off_c, 0, 67, 0
2, 48616, Note_on_c, 0, 81, 74
2, 48696, Note_on_c, 0, 72, 73
2, 48700, Note_off_c, 0, 81, 0
2, 48740, Note_off_c, 0, 60, 0
2, 48780, Note_on_c, 0, 79, 72
2, 48796, Note_off_c, 0, 72, 0
2, 48852, Note_on_c, 0, 60, 83
2, 48860, Note_off_c, 0, 79, 0
2, 48888, Note_on_c, 0, 70, 63
2, 48912, Note_off_c, 0, 60, 0
2, 48944, Note_off_c, 0, 70, 0
2, 48984, Note_on_c, 0, 60, 92
2, 48988, Note_on_c, 0, 84, 83
2, 49080, Note_on_c, 0, 81, 64
2, 49100, Note_off_c, 0, 84, 0
2, 49164, Note_off_c, 0, 60, 0
2, 49180, Note_off_c, 0, 81, 0
2, 49180, Note_on_c, 0, 82, 65
2, 49244, Note_off_c, 0, 82, 0
2, 49272, Note_on_c, 0, 79, 77
2, 49336, Note_off_c, 0, 79, 0
2, 49364, Note_on_c, 0, 93, 89
2, 49452, Note_on_c, 0, 84, 74
2, 49456, Note_off_c, 0, 93, 0
2, 49524, Note_off_c, 0, 84, 0
2, 49536, Note_on_c, 0, 48, 76
2, 49544, Note_on_c, 0, 36, 60
2, 49556, Note_on_c, 0, 91, 77
2, 49600, Note_off_c, 0, 91, 0
2, 49640, Note_on_c, 0, 82, 65
2, 49696, Note_off_c, 0, 82, 0
2, 49736, Note_on_c, 0, 96, 83
2, 49828, Note_off_c, 0, 96, 0
2, 49832, Note_on_c, 0, 93, 81
2, 49856, Note_off_c, 0, 36, 0
2, 49892, Note_off_c, 0, 48, 0
2, 49916, Note_off_c, 0, 93, 64
2, 49936, Note_on_c, 0, 94, 73
2, 50028, Note_off_c, 0, 94, 0
2, 50028, Note_on_c, 0, 91, 73
2, 50116, Note_off_c, 0, 91, 0
2, 50132, Note_on_c, 0, 98, 86
2, 50160, Note_on_c, 0, 53, 70
2, 50164, Note_on_c, 0, 41, 71
2, 50192, Control_c, 0, 64, 40
2, 50204, Control_c, 0, 64, 0
2, 50232, Note_on_c, 0, 93, 77
2, 50276, Note_off_c, 0, 98, 0
2, 50284, Control_c, 0, 64, 88
2, 50292, Control_c, 0, 64, 127
2, 50328, Note_on_c, 0, 96, 71
2, 50340, Note_off_c, 0, 41, 0
2, 50340, Note_off_c, 0, 93, 0
2, 50380, Note_off_c, 0, 53, 0
2, 50400, Note_off_c, 0, 96, 0
2, 50412, Note_on_c, 0, 89, 74
2, 50472, Note_off_c, 0, 89, 0
2, 50496, Note_on_c, 0, 92, 73
2, 50596, Note_on_c, 0, 89, 69
2, 50608, Note_off_c, 0, 92, 0
2, 50648, Note_off_c, 0, 89, 0
2, 50680, Note_on_c, 0, 93, 80
2, 50680, Note_on_c, 0, 69, 82
2, 50752, Note_off_c, 0, 93, 0
2, 50760, Note_on_c, 0, 84, 73
2, 50816, Note_off_c, 0, 69, 0
2, 50836, Note_off_c, 0, 84, 0
2, 50848, Note_on_c, 0, 88, 70
2, 50940, Note_off_c, 0, 88, 0
2, 50956, Note_on_c, 0, 84, 49
2, 51008, Note_off_c, 0, 84, 0
2, 51020, Note_on_c, 0, 89, 74
2, 51092, Note_on_c, 0, 57, 63
2, 51100, Note_off_c, 0, 89, 0
2, 51112, Note_on_c, 0, 81, 71
2, 51160, Note_off_c, 0, 57, 0
2, 51196, Note_off_c, 0, 81, 0
2, 51212, Note_on_c, 0, 85, 76
2, 51216, Note_on_c, 0, 57, 63
2, 51224, Note_on_c, 0, 62, 72
2, 51244, Note_on_c, 0, 53, 51
2, 51296, Control_c, 0, 64, 88
2, 51308, Note_on_c, 0, 81, 70
2, 51308, Control_c, 0, 64, 24
2, 51320, Control_c, 0, 64, 0
2, 51336, Note_off_c, 0, 85, 0
2, 51384, Control_c, 0, 64, 56
2, 51396, Note_off_c, 0, 81, 0
2, 51400, Control_c, 0, 64, 127
2, 51404, Note_on_c, 0, 86, 71
2, 51460, Note_off_c, 0, 57, 64
2, 51472, Note_off_c, 0, 53, 64
2, 51476, Note_on_c, 0, 77, 70
2, 51480, Note_off_c, 0, 86, 64
2, 51560, Note_off_c, 0, 77, 0
2, 51564, Note_on_c, 0, 80, 68
2, 51596, Note_off_c, 0, 62, 64
2, 51612, Note_on_c, 0, 64, 79
2, 51652, Note_off_c, 0, 80, 0
2, 51652, Note_on_c, 0, 77, 71
2, 51708, Note_off_c, 0, 64, 0
2, 51728, Note_on_c, 0, 65, 88
2, 51744, Note_off_c, 0, 77, 0
2, 51744, Note_on_c, 0, 81, 72
2, 51776, Control_c, 0, 64, 72
2, 51792, Control_c, 0, 64, 0
2, 51820, Note_on_c, 0, 74, 68
2, 51820, Control_c, 0, 64, 40
2, 51828, Control_c, 0, 64, 88
2, 51832, Note_off_c, 0, 81, 0
2, 51840, Control_c, 0, 64, 127
2, 51904, Note_off_c, 0, 65, 0
2, 51908, Note_off_c, 0, 74, 0
2, 51916, Note_on_c, 0, 76, 74
2, 52004, Note_off_c, 0, 76, 0
2, 52012, Note_on_c, 0, 74, 74
2, 52076, Note_off_c, 0, 74, 0
2, 52112, Note_on_c, 0, 77, 74
2, 52192, Note_off_c, 0, 77, 0
2, 52204, Note_on_c, 0, 69, 66
2, 52296, Note_off_c, 0, 69, 0
2, 52316, Note_on_c, 0, 31, 94
2, 52316, Note_on_c, 0, 43, 78
2, 52328, Note_on_c, 0, 76, 78
2, 52336, Control_c, 0, 64, 24
2, 52352, Control_c, 0, 64, 0
2, 52416, Note_on_c, 0, 71, 63
2, 52428, Control_c, 0, 64, 104
2, 52440, Control_c, 0, 64, 127
2, 52448, Note_off_c, 0, 76, 0
2, 52504, Note_off_c, 0, 71, 0
2, 52504, Note_on_c, 0, 74, 68
2, 52512, Note_off_c, 0, 31, 0
2, 52524, Note_off_c, 0, 43, 0
2, 52540, Note_off_c, 0, 74, 0
2, 52600, Note_on_c, 0, 77, 83
2, 52668, Note_off_c, 0, 77, 0
2, 52704, Note_on_c, 0, 88, 70
2, 52780, Note_on_c, 0, 83, 70
2, 52812, Note_off_c, 0, 88, 0
2, 52868, Note_off_c, 0, 83, 0
2, 52868, Note_on_c, 0, 59, 71
2, 52872, Note_on_c, 0, 86, 68
2, 52872, Note_on_c, 0, 55, 74
2, 52896, Note_off_c, 0, 86, 0
2, 52932, Note_off_c, 0, 55, 0
2, 52944, Note_off_c, 0, 59, 0
2, 52964, Note_on_c, 0, 89, 82
2, 53048, Note_off_c, 0, 89, 64
2, 53060, Note_on_c, 0, 100, 88
2, 53072, Note_on_c, 0, 65, 64
2, 53156, Note_on_c, 0, 95, 70
2, 53184, Note_off_c, 0, 100, 0
2, 53204, Note_off_c, 0, 65, 0
2, 53228, Note_on_c, 0, 69, 82
2, 53240, Note_on_c, 0, 98, 78
2, 53264, Note_off_c, 0, 95, 0
2, 53312, Note_off_c, 0, 69, 0
2, 53316, Note_on_c, 0, 89, 77
2, 53324, Note_off_c, 0, 98, 0
2, 53384, Note_off_c, 0, 89, 0
2, 53424, Note_on_c, 0, 93, 83
2, 53424, Note_on_c, 0, 67, 88
2, 53520, Note_on_c, 0, 89, 75
2, 53540, Note_off_c, 0, 93, 0
2, 53600, Note_on_c, 0, 91, 73
2, 53604, Note_off_c, 0, 89, 0
2, 53640, Note_off_c, 0, 67, 0
2, 53652, Note_off_c, 0, 91, 0
2, 53688, Note_on_c, 0, 83, 72
2, 53736, Note_off_c, 0, 83, 0
2, 53772, Note_on_c, 0, 81, 76
2, 53860, Note_on_c, 0, 77, 81
2, 53884, Note_off_c, 0, 81, 0
2, 53952, Note_off_c, 0, 77, 0
2, 53956, Note_on_c, 0, 79, 82
2, 53956, Note_on_c, 0, 65, 78
2, 53964, Note_on_c, 0, 59, 68
2, 53976, Note_on_c, 0, 55, 63
2, 53976, Control_c, 0, 64, 72
2, 53988, Control_c, 0, 64, 0
2, 54028, Note_off_c, 0, 79, 0
2, 54028, Control_c, 0, 64, 24
2, 54036, Note_on_c, 0, 71, 68
2, 54040, Control_c, 0, 64, 88
2, 54052, Control_c, 0, 64, 127
2, 54084, Note_off_c, 0, 71, 0
2, 54104, Note_off_c, 0, 65, 0
2, 54116, Note_off_c, 0, 59, 0
2, 54128, Note_off_c, 0, 55, 0
2, 54136, Note_on_c, 0, 88, 82
2, 54192, Note_off_c, 0, 88, 0
2, 54220, Note_on_c, 0, 79, 80
2, 54292, Note_off_c, 0, 79, 0
2, 54316, Note_on_c, 0, 86, 86
2, 54392, Note_on_c, 0, 77, 83
2, 54396, Note_off_c, 0, 86, 0
2, 54476, Note_off_c, 0, 77, 0
2, 54492, Note_on_c, 0, 36, 78
2, 54492, Note_on_c, 0, 48, 78
2, 54500, Note_on_c, 0, 83, 86
2, 54508, Control_c, 0, 64, 24
2, 54524, Control_c, 0, 64, 0
2, 54572, Control_c, 0, 64, 72
2, 54588, Control_c, 0, 64, 127
2, 54592, Note_on_c, 0, 79, 70
2, 54596, Note_off_c, 0, 48, 0
2, 54608, Note_off_c, 0, 36, 64
2, 54636, Note_off_c, 0, 83, 64
2, 54700, Note_off_c, 0, 79, 0
2, 54700, Note_on_c, 0, 84, 70
2, 54752, Note_off_c, 0, 84, 0
2, 54776, Note_on_c, 0, 76, 79
2, 54844, Note_off_c, 0, 76, 0
2, 54880, Note_on_c, 0, 87, 77
2, 54964, Note_on_c, 0, 48, 72
2, 54968, Control_c, 0, 64, 104
2, 54976, Note_on_c, 0, 55, 74
2, 54980, Note_on_c, 0, 84, 64
2, 54980, Control_c, 0, 64, 40
2, 54992, Control_c, 0, 64, 24
2, 55000, Note_off_c, 0, 87, 0
2, 55004, Control_c, 0, 64, 72
2, 55016, Control_c, 0, 64, 127
2, 55020, Note_off_c, 0, 48, 0
2, 55036, Note_off_c, 0, 55, 0
2, 55052, Note_on_c, 0, 64, 87
2, 55076, Note_on_c, 0, 88, 80
2, 55080, Note_off_c, 0, 84, 0
2, 55096, Note_off_c, 0, 64, 0
2, 55152, Note_off_c, 0, 88, 0
2, 55152, Note_on_c, 0, 79, 77
2, 55228, Note_off_c, 0, 79, 0
2, 55248, Note_on_c, 0, 90, 84
2, 55336, Note_on_c, 0, 88, 74
2, 55340, Note_off_c, 0, 90, 0
2, 55412, Note_on_c, 0, 91, 74
2, 55424, Note_off_c, 0, 88, 0
2, 55488, Note_off_c, 0, 91, 0
2, 55500, Note_on_c, 0, 84, 80
2, 55584, Note_off_c, 0, 84, 0
2, 55592, Note_on_c, 0, 94, 84
2, 55684, Note_on_c, 0, 91, 68
2, 55688, Note_off_c, 0, 94, 0
2, 55772, Note_on_c, 0, 95, 76
2, 55776, Note_off_c, 0, 91, 0
2, 55832, Note_on_c, 0, 88, 73
2, 55868, Note_off_c, 0, 95, 0
2, 55932, Note_on_c, 0, 96, 82
2, 55984, Note_off_c, 0, 88, 0
2, 56020, Note_on_c, 0, 91, 66
2, 56024, Note_on_c, 0, 88, 9
2, 56036, Note_off_c, 0, 96, 0
2, 56068, Note_off_c, 0, 88, 64
2, 56096, Note_off_c, 0, 91, 64
2, 56108, Note_on_c, 0, 97, 72
2, 56188, Note_on_c, 0, 88, 79
2, 56216, Note_off_c, 0, 97, 0
2, 56276, Note_on_c, 0, 98, 85
2, 56288, Note_off_c, 0, 88, 0
2, 56344, Note_on_c, 0, 91, 74
2, 56364, Note_off_c, 0, 98, 0
2, 56400, Note_off_c, 0, 91, 0
2, 56452, Note_on_c, 0, 99, 73
2, 56516, Note_on_c, 0, 88, 70
2, 56540, Note_off_c, 0, 99, 0
2, 56568, Note_off_c, 0, 88, 0
2, 56656, Control_c, 0, 64, 88
2, 56660, Note_on_c, 0, 28, 96
2, 56660, Note_on_c, 0, 40, 80
2, 56668, Control_c, 0, 64, 0
2, 56676, Note_on_c, 0, 100, 97
2, 56744, Control_c, 0, 64, 127
2, 56776, Note_on_c, 0, 95, 74
2, 56792, Note_off_c, 0, 40, 0
2, 56792, Note_off_c, 0, 100, 0
2, 56804, Note_off_c, 0, 28, 0
2, 56856, Note_on_c, 0, 99, 71
2, 56876, Note_off_c, 0, 95, 0
2, 56940, Note_on_c, 0, 91, 67
2, 56952, Note_off_c, 0, 99, 0
2, 57024, Note_off_c, 0, 91, 0
2, 57024, Note_on_c, 0, 98, 79
2, 57124, Note_on_c, 0, 95, 76
2, 57132, Note_off_c, 0, 98, 0
2, 57188, Note_off_c, 0, 95, 0
2, 57224, Note_on_c, 0, 59, 96
2, 57228, Note_on_c, 0, 52, 77
2, 57228, Note_on_c, 0, 97, 74
2, 57232, Note_on_c, 0, 55, 81
2, 57320, Note_off_c, 0, 97, 0
2, 57320, Note_on_c, 0, 91, 74
2, 57392, Note_off_c, 0, 91, 0
2, 57412, Note_on_c, 0, 96, 78
2, 57484, Note_off_c, 0, 52, 0
2, 57484, Note_off_c, 0, 55, 0
2, 57484, Note_on_c, 0, 91, 68
2, 57500, Note_off_c, 0, 59, 0
2, 57508, Note_off_c, 0, 96, 0
2, 57576, Note_off_c, 0, 91, 0
2, 57576, Note_on_c, 0, 95, 75
2, 57652, Note_off_c, 0, 95, 64
2, 57660, Note_on_c, 0, 88, 75
2, 57668, Note_on_c, 0, 59, 89
2, 57672, Note_on_c, 0, 55, 79
2, 57676, Note_on_c, 0, 52, 73
2, 57700, Note_off_c, 0, 52, 0
2, 57712, Note_off_c, 0, 59, 0
2, 57716, Note_off_c, 0, 55, 0
2, 57756, Note_on_c, 0, 94, 61
2, 57768, Note_off_c, 0, 88, 0
2, 57784, Note_on_c, 0, 59, 94
2, 57784, Note_on_c, 0, 52, 84
2, 57788, Note_on_c, 0, 55, 76
2, 57824, Note_on_c, 0, 91, 68
2, 57844, Control_c, 0, 64, 88
2, 57860, Note_off_c, 0, 94, 0
2, 57884, Control_c, 0, 64, 127
2, 57896, Note_off_c, 0, 91, 0
2, 57940, Note_on_c, 0, 93, 76
2, 58024, Note_on_c, 0, 88, 65
2, 58032, Note_off_c, 0, 93, 0
2, 58100, Note_off_c, 0, 52, 0
2, 58100, Note_off_c, 0, 55, 0
2, 58100, Note_off_c, 0, 88, 0
2, 58108, Note_off_c, 0, 59, 0
2, 58124, Note_on_c, 0, 92, 67
2, 58216, Note_on_c, 0, 83, 67
2, 58260, Note_off_c, 0, 92, 0
2, 58280, Note_off_c, 0, 83, 0
2, 58324, Note_on_c, 0, 60, 94
2, 58328, Note_on_c, 0, 52, 82
2, 58332, Note_on_c, 0, 55, 78
2, 58344, Note_on_c, 0, 91, 86
2, 58392, Control_c, 0, 64, 88
2, 58404, Control_c, 0, 64, 24
2, 58420, Control_c, 0, 64, 0
2, 58432, Control_c, 0, 64, 24
2, 58440, Note_off_c, 0, 91, 0
2, 58440, Note_on_c, 0, 84, 73
2, 58444, Control_c, 0, 64, 72
2, 58460, Control_c, 0, 64, 127
2, 58512, Note_off_c, 0, 84, 0
2, 58524, Note_on_c, 0, 90, 67
2, 58612, Note_off_c, 0, 90, 0
2, 58612, Note_on_c, 0, 84, 61
2, 58688, Note_off_c, 0, 84, 0
2, 58700, Note_on_c, 0, 89, 77
2, 58724, Note_off_c, 0, 60, 0
2, 58744, Note_off_c, 0, 52, 0
2, 58772, Note_off_c, 0, 89, 0
2, 58776, Note_off_c, 0, 55, 0
2, 58784, Note_on_c, 0, 79, 75
2, 58884, Note_on_c, 0, 88, 82
2, 58892, Note_off_c, 0, 79, 0
2, 58892, Note_on_c, 0, 59, 85
2, 58896, Note_on_c, 0, 52, 72
2, 58896, Note_on_c, 0, 55, 70
2, 58952, Control_c, 0, 64, 104
2, 58968, Note_on_c, 0, 83, 68
2, 58968, Control_c, 0, 64, 24
2, 58980, Note_off_c, 0, 88, 0
2, 58980, Control_c, 0, 64, 0
2, 59016, Control_c, 0, 64, 40
2, 59028, Control_c, 0, 64, 127
2, 59052, Note_on_c, 0, 87, 69
2, 59056, Note_off_c, 0, 83, 0
2, 59132, Note_off_c, 0, 87, 64
2, 59140, Note_on_c, 0, 79, 64
2, 59172, Note_off_c, 0, 55, 64
2, 59208, Note_off_c, 0, 79, 0
2, 59216, Note_off_c, 0, 52, 64
2, 59220, Note_on_c, 0, 86, 81
2, 59304, Note_off_c, 0, 86, 0
2, 59304, Note_on_c, 0, 79, 76
2, 59356, Note_off_c, 0, 59, 64
2, 59388, Note_off_c, 0, 79, 0
2, 59392, Note_on_c, 0, 85, 71
2, 59420, Note_on_c, 0, 55, 85
2, 59424, Note_on_c, 0, 52, 73
2, 59432, Note_on_c, 0, 47, 74
2, 59460, Control_c, 0, 64, 88
2, 59472, Control_c, 0, 64, 24
2, 59480, Note_on_c, 0, 76, 62
2, 59484, Note_off_c, 0, 85, 0
2, 59488, Control_c, 0, 64, 0
2, 59512, Control_c, 0, 64, 24
2, 59524, Control_c, 0, 64, 88
2, 59536, Control_c, 0, 64, 127
2, 59572, Note_off_c, 0, 76, 0
2, 59572, Note_on_c, 0, 84, 72
2, 59652, Note_on_c, 0, 79, 65
2, 59664, Note_off_c, 0, 84, 0
2, 59732, Note_off_c, 0, 79, 0
2, 59740, Note_on_c, 0, 83, 66
2, 59756, Note_off_c, 0, 52, 0
2, 59784, Note_off_c, 0, 55, 0
2, 59804, Note_off_c, 0, 83, 0
2, 59824, Note_on_c, 0, 76, 67
2, 59928, Note_on_c, 0, 82, 48
2, 59932, Note_off_c, 0, 76, 0
2, 59936, Note_on_c, 0, 59, 85
2, 59940, Note_on_c, 0, 55, 76
2, 59948, Note_on_c, 0, 52, 77
2, 59980, Control_c, 0, 64, 88
2, 59984, Note_off_c, 0, 47, 0
2, 59996, Control_c, 0, 64, 0
2, 60032, Note_off_c, 0, 82, 0
2, 60040, Note_on_c, 0, 79, 57
2, 60056, Control_c, 0, 64, 104
2, 60072, Control_c, 0, 64, 127
2, 60096, Note_off_c, 0, 79, 0
2, 60144, Note_on_c, 0, 81, 68
2, 60224, Note_on_c, 0, 76, 64
2, 60228, Note_off_c, 0, 81, 0
2, 60272, Note_off_c, 0, 55, 0
2, 60280, Note_off_c, 0, 59, 0
2, 60280, Note_off_c, 0, 52, 0
2, 60296, Note_off_c, 0, 76, 0
2, 60308, Note_on_c, 0, 80, 60
2, 60392, Note_off_c, 0, 80, 0
2, 60392, Note_on_c, 0, 76, 66
2, 60468, Note_off_c, 0, 76, 0
2, 60484, Note_on_c, 0, 79, 77
2, 60556, Note_on_c, 0, 71, 67
2, 60564, Note_off_c, 0, 79, 0
2, 60636, Note_off_c, 0, 71, 0
2, 60636, Note_on_c, 0, 78, 65
2, 60728, Note_on_c, 0, 71, 70
2, 60732, Note_off_c, 0, 78, 64
2, 60808, Note_off_c, 0, 71, 0
2, 60820, Note_on_c, 0, 77, 82
2, 60896, Note_off_c, 0, 77, 0
2, 60916, Note_on_c, 0, 71, 56
2, 60988, Note_off_c, 0, 71, 0
2, 61008, Note_on_c, 0, 28, 82
2, 61012, Note_on_c, 0, 76, 78
2, 61048, Control_c, 0, 64, 56
2, 61060, Control_c, 0, 64, 0
2, 61104, Note_on_c, 0, 71, 57
2, 61108, Note_off_c, 0, 76, 0
2, 61124, Control_c, 0, 64, 56
2, 61136, Control_c, 0, 64, 127
2, 61188, Note_off_c, 0, 71, 0
2, 61192, Note_on_c, 0, 75, 60
2, 61236, Note_off_c, 0, 28, 0
2, 61272, Note_off_c, 0, 75, 0
2, 61276, Note_on_c, 0, 67, 63
2, 61368, Note_off_c, 0, 67, 0
2, 61368, Note_on_c, 0, 74, 73
2, 61444, Note_off_c, 0, 74, 0
2, 61456, Note_on_c, 0, 71, 68
2, 61524, Note_off_c, 0, 71, 0
2, 61552, Note_on_c, 0, 73, 68
2, 61556, Note_on_c, 0, 47, 90
2, 61556, Note_on_c, 0, 40, 70
2, 61596, Control_c, 0, 64, 72
2, 61608, Control_c, 0, 64, 0
2, 61652, Note_off_c, 0, 73, 0
2, 61652, Note_on_c, 0, 67, 67
2, 61656, Control_c, 0, 64, 56
2, 61672, Control_c, 0, 64, 127
2, 61732, Note_off_c, 0, 67, 0
2, 61740, Note_on_c, 0, 72, 68
2, 61816, Note_on_c, 0, 67, 59
2, 61824, Note_off_c, 0, 72, 0
2, 61828, Note_off_c, 0, 40, 0
2, 61832, Note_off_c, 0, 47, 0
2, 61892, Note_off_c, 0, 67, 0
2, 61896, Note_on_c, 0, 71, 68
2, 61968, Note_off_c, 0, 71, 0
2, 61972, Note_on_c, 0, 47, 84
2, 61976, Note_on_c, 0, 40, 66
2, 61988, Note_on_c, 0, 64, 70
2, 62016, Note_off_c, 0, 47, 0
2, 62036, Note_off_c, 0, 40, 0
2, 62080, Note_on_c, 0, 70, 60
2, 62084, Note_on_c, 0, 40, 64
2, 62088, Note_on_c, 0, 47, 89
2, 62092, Note_off_c, 0, 64, 0
2, 62116, Control_c, 0, 64, 88
2, 62128, Control_c, 0, 64, 0
2, 62156, Note_on_c, 0, 67, 60
2, 62176, Control_c, 0, 64, 24
2, 62180, Note_off_c, 0, 70, 0
2, 62192, Control_c, 0, 64, 104
2, 62204, Control_c, 0, 64, 127
2, 62220, Note_off_c, 0, 67, 64
2, 62268, Note_on_c, 0, 69, 62
2, 62344, Note_off_c, 0, 69, 0
2, 62344, Note_on_c, 0, 64, 56
2, 62416, Note_off_c, 0, 64, 0
2, 62432, Note_on_c, 0, 68, 56
2, 62496, Note_off_c, 0, 40, 64
2, 62516, Note_on_c, 0, 64, 60
2, 62524, Note_off_c, 0, 68, 0
2, 62588, Note_off_c, 0, 64, 0
2, 62608, Note_off_c, 0, 47, 64
2, 62620, Note_on_c, 0, 48, 89
2, 62620, Note_on_c, 0, 67, 64
2, 62628, Note_on_c, 0, 40, 64
2, 62700, Control_c, 0, 64, 104
2, 62712, Control_c, 0, 64, 24
2, 62724, Note_on_c, 0, 60, 40
2, 62724, Control_c, 0, 64, 0
2, 62732, Note_off_c, 0, 67, 0
2, 62788, Note_off_c, 0, 60, 0
2, 62788, Control_c, 0, 64, 72
2, 62800, Control_c, 0, 64, 127
2, 62808, Note_on_c, 0, 66, 47
2, 62900, Note_on_c, 0, 60, 51
2, 62904, Note_off_c, 0, 66, 0
2, 62980, Note_off_c, 0, 60, 0
2, 63000, Note_on_c, 0, 65, 57
2, 63016, Note_off_c, 0, 40, 0
2, 63064, Note_off_c, 0, 65, 0
2, 63064, Note_on_c, 0, 60, 58
2, 63128, Note_off_c, 0, 48, 0
2, 63148, Note_off_c, 0, 60, 0
2, 63180, Note_on_c, 0, 64, 67
2, 63184, Note_on_c, 0, 47, 79
2, 63196, Note_on_c, 0, 40, 64
2, 63232, Control_c, 0, 64, 40
2, 63244, Control_c, 0, 64, 0
2, 63280, Note_off_c, 0, 64, 0
2, 63284, Note_on_c, 0, 59, 61
2, 63296, Control_c, 0, 64, 72
2, 63308, Control_c, 0, 64, 127
2, 63364, Note_off_c, 0, 59, 0
2, 63364, Note_on_c, 0, 63, 58
2, 63380, Note_off_c, 0, 47, 0
2, 63424, Note_off_c, 0, 40, 0
2, 63448, Note_off_c, 0, 63, 0
2, 63456, Note_on_c, 0, 55, 56
2, 63544, Note_on_c, 0, 62, 73
2, 63548, Note_off_c, 0, 55, 0
2, 63632, Note_off_c, 0, 62, 0
2, 63648, Note_on_c, 0, 59, 58
2, 63700, Note_on_c, 0, 28, 90
2, 63708, Note_off_c, 0, 59, 0
2, 63728, Control_c, 0, 64, 104
2, 63732, Note_on_c, 0, 61, 60
2, 63740, Control_c, 0, 64, 24
2, 63752, Control_c, 0, 64, 0
2, 63788, Control_c, 0, 64, 56
2, 63804, Control_c, 0, 64, 127
2, 63832, Note_off_c, 0, 61, 0
2, 63836, Note_on_c, 0, 55, 65
2, 63900, Note_off_c, 0, 55, 0
2, 63920, Note_on_c, 0, 60, 70
2, 63992, Note_on_c, 0, 55, 68
2, 64004, Note_off_c, 0, 60, 0
2, 64060, Note_off_c, 0, 55, 0
2, 64064, Note_on_c, 0, 59, 68
2, 64140, Note_off_c, 0, 59, 0
2, 64148, Note_on_c, 0, 52, 80
2, 64224, Note_off_c, 0, 28, 64
2, 64244, Note_on_c, 0, 58, 69
2, 64252, Note_on_c, 0, 35, 82
2, 64260, Control_c, 0, 64, 104
2, 64268, Note_off_c, 0, 52, 0
2, 64272, Control_c, 0, 64, 24
2, 64288, Control_c, 0, 64, 0
2, 64324, Note_on_c, 0, 55, 66
2, 64336, Control_c, 0, 64, 56
2, 64348, Control_c, 0, 64, 127
2, 64372, Note_off_c, 0, 58, 0
2, 64396, Note_off_c, 0, 55, 0
2, 64432, Note_on_c, 0, 57, 60
2, 64484, Note_off_c, 0, 35, 0
2, 64512, Note_on_c, 0, 52, 68
2, 64520, Note_off_c, 0, 57, 0
2, 64584, Note_off_c, 0, 52, 0
2, 64592, Note_on_c, 0, 56, 67
2, 64676, Note_off_c, 0, 56, 0
2, 64680, Note_on_c, 0, 47, 71
2, 64772, Note_off_c, 0, 47, 0
2, 64776, Note_on_c, 0, 55, 70
2, 64852, Note_on_c, 0, 52, 68
2, 64872, Note_off_c, 0, 55, 0
2, 64936, Note_off_c, 0, 52, 0
2, 64936, Note_on_c, 0, 54, 71
2, 65040, Note_off_c, 0, 54, 0
2, 65068, Note_on_c, 0, 48, 64
2, 65096, Note_off_c, 0, 48, 0
2, 65144, Note_on_c, 0, 55, 79
2, 65228, Note_off_c, 0, 55, 0
2, 65232, Note_on_c, 0, 48, 69
2, 65320, Note_off_c, 0, 48, 0
2, 65372, Note_on_c, 0, 59, 75
2, 65380, Note_on_c, 0, 27, 72
2, 65452, Control_c, 0, 64, 72
2, 65468, Control_c, 0, 64, 127
2, 65472, Note_on_c, 0, 54, 63
2, 65492, Note_off_c, 0, 59, 0
2, 65532, Note_off_c, 0, 27, 0
2, 65552, Note_on_c, 0, 57, 62
2, 65560, Note_off_c, 0, 54, 0
2, 65596, Note_off_c, 0, 57, 0
2, 65648, Note_on_c, 0, 60, 71
2, 65724, Note_off_c, 0, 60, 0
2, 65744, Note_on_c, 0, 71, 74
2, 65828, Note_on_c, 0, 66, 60
2, 65876, Control_c, 0, 64, 72
2, 65880, Note_off_c, 0, 71, 0
2, 65888, Note_on_c, 0, 69, 72
2, 65888, Control_c, 0, 64, 0
2, 65896, Note_off_c, 0, 66, 0
2, 65904, Note_on_c, 0, 51, 71
2, 65904, Note_on_c, 0, 60, 81
2, 65920, Note_off_c, 0, 69, 0
2, 65928, Control_c, 0, 64, 40
2, 65940, Control_c, 0, 64, 88
2, 65956, Control_c, 0, 64, 127
2, 65976, Note_on_c, 0, 72, 89
2, 66032, Note_off_c, 0, 51, 0
2, 66072, Note_off_c, 0, 72, 0
2, 66080, Note_on_c, 0, 83, 85
2, 66088, Note_off_c, 0, 60, 0
2, 66164, Note_on_c, 0, 78, 73
2, 66192, Note_off_c, 0, 83, 0
2, 66256, Note_on_c, 0, 81, 79
2, 66260, Note_off_c, 0, 78, 0
2, 66312, Note_on_c, 0, 51, 68
2, 66320, Note_on_c, 0, 60, 78
2, 66340, Note_off_c, 0, 81, 0
2, 66348, Note_on_c, 0, 72, 82
2, 66368, Note_off_c, 0, 51, 0
2, 66368, Note_off_c, 0, 60, 0
2, 66416, Control_c, 0, 64, 56
2, 66424, Note_on_c, 0, 60, 86
2, 66428, Control_c, 0, 64, 0
2, 66432, Note_on_c, 0, 52, 82
2, 66440, Note_off_c, 0, 72, 0
2, 66448, Note_on_c, 0, 81, 92
2, 66520, Control_c, 0, 64, 88
2, 66532, Note_off_c, 0, 60, 0
2, 66536, Note_on_c, 0, 76, 77
2, 66536, Control_c, 0, 64, 127
2, 66548, Note_off_c, 0, 52, 0
2, 66560, Note_off_c, 0, 81, 0
2, 66628, Note_on_c, 0, 79, 76
2, 66652, Note_off_c, 0, 76, 0
2, 66708, Note_off_c, 0, 79, 0
2, 66724, Note_on_c, 0, 72, 58
2, 66752, Note_off_c, 0, 72, 0
2, 66816, Note_on_c, 0, 69, 68
2, 66888, Note_on_c, 0, 64, 70
2, 66896, Note_off_c, 0, 69, 0
2, 66980, Note_on_c, 0, 67, 74
2, 66984, Note_on_c, 0, 40, 74
2, 66988, Note_off_c, 0, 64, 0
2, 66996, Note_on_c, 0, 28, 59
2, 67068, Note_off_c, 0, 67, 0
2, 67084, Note_on_c, 0, 60, 74
2, 67136, Note_off_c, 0, 60, 0
2, 67204, Note_on_c, 0, 57, 58
2, 67268, Note_on_c, 0, 52, 41
2, 67292, Note_off_c, 0, 57, 0
2, 67356, Note_off_c, 0, 52, 0
2, 67372, Note_off_c, 0, 40, 0
2, 67376, Note_on_c, 0, 55, 60
2, 67388, Note_off_c, 0, 28, 0
2, 67432, Note_off_c, 0, 55, 0
2, 67452, Note_on_c, 0, 48, 66
2, 67540, Note_off_c, 0, 48, 0
2, 67568, Note_on_c, 0, 59, 68
2, 67576, Note_on_c, 0, 39, 67
2, 67584, Note_on_c, 0, 27, 60
2, 67588, Control_c, 0, 64, 72
2, 67600, Control_c, 0, 64, 0
2, 67672, Note_on_c, 0, 54, 57
2, 67708, Control_c, 0, 64, 72
2, 67712, Note_off_c, 0, 59, 0
2, 67720, Control_c, 0, 64, 127
2, 67740, Note_on_c, 0, 57, 62
2, 67752, Note_off_c, 0, 54, 0
2, 67784, Note_off_c, 0, 57, 0
2, 67796, Note_off_c, 0, 27, 0
2, 67804, Note_off_c, 0, 39, 0
2, 67848, Note_on_c, 0, 60, 72
2, 67904, Note_off_c, 0, 60, 0
2, 67936, Note_on_c, 0, 71, 74
2, 68028, Note_on_c, 0, 66, 57
2, 68080, Note_on_c, 0, 62, 83
2, 68084, Note_on_c, 0, 69, 73
2, 68088, Note_off_c, 0, 66, 0
2, 68096, Note_off_c, 0, 71, 0
2, 68096, Note_on_c, 0, 51, 65
2, 68108, Note_off_c, 0, 69, 0
2, 68180, Note_off_c, 0, 62, 0
2, 68180, Note_on_c, 0, 72, 83
2, 68192, Note_off_c, 0, 51, 0
2, 68264, Note_off_c, 0, 72, 0
2, 68276, Note_on_c, 0, 83, 86
2, 68292, Note_on_c, 0, 60, 81
2, 68300, Note_on_c, 0, 51, 73
2, 68352, Note_on_c, 0, 78, 59
2, 68384, Note_off_c, 0, 83, 0
2, 68384, Note_off_c, 0, 60, 0
2, 68396, Note_off_c, 0, 51, 0
2, 68420, Note_on_c, 0, 81, 74
2, 68440, Note_off_c, 0, 78, 0
2, 68508, Note_off_c, 0, 81, 0
2, 68524, Note_on_c, 0, 71, 77
2, 68556, Note_on_c, 0, 51, 73
2, 68564, Note_on_c, 0, 59, 81
2, 68600, Note_off_c, 0, 71, 0
2, 68608, Note_off_c, 0, 51, 0
2, 68608, Note_off_c, 0, 59, 0
2, 68628, Note_on_c, 0, 81, 85
2, 68628, Control_c, 0, 64, 104
2, 68644, Control_c, 0, 64, 24
2, 68652, Note_on_c, 0, 59, 87
2, 68656, Control_c, 0, 64, 0
2, 68660, Note_on_c, 0, 52, 77
2, 68732, Note_on_c, 0, 76, 73
2, 68736, Control_c, 0, 64, 40
2, 68744, Note_off_c, 0, 59, 0
2, 68748, Control_c, 0, 64, 127
2, 68764, Note_off_c, 0, 81, 0
2, 68768, Note_off_c, 0, 52, 0
2, 68808, Note_on_c, 0, 79, 70
2, 68840, Note_off_c, 0, 76, 0
2, 68892, Note_on_c, 0, 71, 69
2, 68896, Note_off_c, 0, 79, 0
2, 68940, Note_off_c, 0, 71, 0
2, 69000, Note_on_c, 0, 69, 60
2, 69084, Note_on_c, 0, 64, 62
2, 69096, Note_off_c, 0, 69, 0
2, 69156, Note_on_c, 0, 67, 67
2, 69160, Note_off_c, 0, 64, 0
2, 69172, Note_on_c, 0, 40, 84
2, 69180, Note_on_c, 0, 28, 74
2, 69248, Note_off_c, 0, 67, 0
2, 69264, Note_on_c, 0, 59, 64
2, 69292, Note_off_c, 0, 59, 0
2, 69360, Note_on_c, 0, 57, 72
2, 69460, Note_on_c, 0, 52, 66
2, 69484, Note_off_c, 0, 57, 0
2, 69532, Note_off_c, 0, 28, 0
2, 69536, Note_off_c, 0, 40, 0
2, 69536, Note_on_c, 0, 55, 58
2, 69556, Note_off_c, 0, 52, 0
2, 69612, Note_on_c, 0, 54, 73
2, 69628, Note_off_c, 0, 55, 0
2, 69668, Note_off_c, 0, 54, 0
2, 69764, Note_on_c, 0, 42, 80
2, 69764, Note_on_c, 0, 30, 78
2, 69764, Control_c, 0, 64, 104
2, 69768, Note_on_c, 0, 64, 78
2, 69776, Control_c, 0, 64, 56
2, 69788, Control_c, 0, 64, 0
2, 69864, Note_off_c, 0, 64, 0
2, 69864, Note_on_c, 0, 59, 68
2, 69896, Control_c, 0, 64, 104
2, 69908, Control_c, 0, 64, 127
2, 69940, Note_on_c, 0, 63, 63
2, 69948, Note_off_c, 0, 59, 0
2, 69956, Note_off_c, 0, 30, 0
2, 69976, Note_off_c, 0, 42, 0
2, 69984, Note_off_c, 0, 63, 0
2, 70040, Note_on_c, 0, 66, 73
2, 70120, Note_off_c, 0, 66, 0
2, 70136, Note_on_c, 0, 76, 81
2, 70236, Note_on_c, 0, 71, 68
2, 70244, Note_off_c, 0, 76, 0
2, 70316, Note_on_c, 0, 75, 73
2, 70324, Note_on_c, 0, 59, 74
2, 70324, Note_on_c, 0, 54, 69
2, 70332, Note_off_c, 0, 71, 0
2, 70364, Note_off_c, 0, 75, 0
2, 70420, Note_on_c, 0, 78, 73
2, 70424, Note_off_c, 0, 54, 0
2, 70464, Note_off_c, 0, 59, 0
2, 70500, Note_off_c, 0, 78, 0
2, 70500, Note_on_c, 0, 63, 78
2, 70508, Note_on_c, 0, 88, 86
2, 70612, Note_off_c, 0, 63, 0
2, 70616, Note_on_c, 0, 83, 74
2, 70620, Note_off_c, 0, 88, 0
2, 70684, Note_on_c, 0, 68, 79
2, 70696, Note_off_c, 0, 83, 0
2, 70696, Note_on_c, 0, 87, 84
2, 70740, Note_off_c, 0, 68, 0
2, 70768, Note_off_c, 0, 87, 0
2, 70784, Note_on_c, 0, 78, 69
2, 70868, Note_off_c, 0, 78, 0
2, 70880, Note_on_c, 0, 64, 79
2, 70884, Control_c, 0, 64, 88
2, 70888, Note_on_c, 0, 66, 82
2, 70892, Note_on_c, 0, 87, 85
2, 70896, Note_on_c, 0, 58, 50
2, 70896, Control_c, 0, 64, 0
2, 70904, Note_on_c, 0, 54, 50
2, 70988, Control_c, 0, 64, 88
2, 71000, Note_on_c, 0, 82, 67
2, 71000, Control_c, 0, 64, 127
2, 71016, Note_off_c, 0, 87, 0
2, 71048, Note_off_c, 0, 64, 0
2, 71048, Note_off_c, 0, 66, 0
2, 71072, Note_on_c, 0, 85, 64
2, 71092, Note_off_c, 0, 58, 0
2, 71104, Note_off_c, 0, 54, 0
2, 71108, Note_off_c, 0, 82, 0
2, 71144, Note_on_c, 0, 78, 67
2, 71152, Note_off_c, 0, 85, 0
2, 71192, Note_off_c, 0, 78, 0
2, 71252, Note_on_c, 0, 75, 69
2, 71348, Note_on_c, 0, 70, 61
2, 71360, Note_off_c, 0, 75, 0
2, 71432, Note_on_c, 0, 42, 91
2, 71432, Note_on_c, 0, 73, 60
2, 71436, Note_on_c, 0, 30, 73
2, 71444, Note_off_c, 0, 70, 0
2, 71536, Note_off_c, 0, 73, 0
2, 71540, Note_on_c, 0, 66, 61
2, 71572, Note_off_c, 0, 66, 0
2, 71652, Note_on_c, 0, 63, 64
2, 71748, Note_on_c, 0, 58, 57
2, 71756, Note_off_c, 0, 30, 0
2, 71756, Note_off_c, 0, 63, 0
2, 71792, Note_off_c, 0, 42, 0
2, 71832, Note_off_c, 0, 58, 0
2, 71836, Note_on_c, 0, 61, 57
2, 71908, Note_off_c, 0, 61, 0
2, 71924, Note_on_c, 0, 54, 64
2, 72004, Note_off_c, 0, 54, 0
2, 72036, Note_on_c, 0, 47, 87
2, 72036, Note_on_c, 0, 64, 77
2, 72040, Note_on_c, 0, 35, 71
2, 72044, Control_c, 0, 64, 40
2, 72056, Control_c, 0, 64, 0
2, 72132, Note_on_c, 0, 59, 60
2, 72148, Control_c, 0, 64, 40
2, 72152, Note_off_c, 0, 64, 0
2, 72160, Control_c, 0, 64, 127
2, 72228, Note_on_c, 0, 63, 59
2, 72236, Note_off_c, 0, 59, 0
2, 72240, Note_off_c, 0, 35, 0
2, 72276, Note_off_c, 0, 63, 0
2, 72284, Note_off_c, 0, 47, 0
2, 72336, Note_on_c, 0, 66, 65
2, 72416, Note_off_c, 0, 66, 0
2, 72432, Note_on_c, 0, 76, 73
2, 72516, Note_on_c, 0, 71, 61
2, 72548, Note_off_c, 0, 76, 0
2, 72588, Note_on_c, 0, 75, 73
2, 72592, Note_on_c, 0, 63, 81
2, 72596, Note_on_c, 0, 54, 69
2, 72600, Note_off_c, 0, 71, 0
2, 72640, Note_off_c, 0, 75, 0
2, 72652, Note_off_c, 0, 63, 0
2, 72664, Note_off_c, 0, 54, 0
2, 72696, Note_on_c, 0, 78, 75
2, 72780, Note_off_c, 0, 78, 0
2, 72788, Note_on_c, 0, 62, 68
2, 72792, Note_on_c, 0, 53, 70
2, 72792, Note_on_c, 0, 88, 85
2, 72844, Note_off_c, 0, 62, 0
2, 72848, Note_off_c, 0, 53, 0
2, 72884, Note_on_c, 0, 83, 68
2, 72896, Note_off_c, 0, 88, 0
2, 72960, Note_on_c, 0, 63, 79
2, 72964, Note_on_c, 0, 87, 77
2, 72976, Note_on_c, 0, 54, 65
2, 72984, Note_off_c, 0, 83, 0
2, 72996, Note_off_c, 0, 54, 0
2, 73012, Note_off_c, 0, 63, 0
2, 73036, Note_off_c, 0, 87, 0
2, 73052, Note_on_c, 0, 78, 77
2, 73088, Note_off_c, 0, 78, 0
2, 73180, Note_on_c, 0, 95, 107
2, 73188, Note_on_c, 0, 59, 89
2, 73192, Note_on_c, 0, 51, 80
2, 73192, Control_c, 0, 64, 40
2, 73196, Note_on_c, 0, 47, 73
2, 73200, Control_c, 0, 64, 0
2, 73276, Note_off_c, 0, 95, 0
2, 73284, Control_c, 0, 64, 127
2, 73304, Note_off_c, 0, 51, 0
2, 73312, Note_off_c, 0, 47, 0
2, 73320, Note_off_c, 0, 59, 0
2, 74136, Control_c, 0, 64, 104
2, 74152, Control_c, 0, 64, 72
2, 74164, Control_c, 0, 64, 40
2, 74180, Control_c, 0, 64, 0
2, 74404, Note_on_c, 0, 96, 94
2, 74408, Note_on_c, 0, 28, 88
2, 74428, Control_c, 0, 64, 104
2, 74440, Control_c, 0, 64, 127
2, 74516, Note_off_c, 0, 28, 0
2, 74516, Note_on_c, 0, 91, 82
2, 74548, Note_off_c, 0, 96, 0
2, 74592, Note_on_c, 0, 95, 79
2, 74616, Note_off_c, 0, 91, 0
2, 74688, Note_off_c, 0, 95, 0
2, 74688, Note_on_c, 0, 88, 70
2, 74780, Note_on_c, 0, 94, 61
2, 74784, Note_off_c, 0, 88, 0
2, 74856, Note_on_c, 0, 91, 70
2, 74888, Note_off_c, 0, 94, 0
2, 74924, Note_off_c, 0, 91, 0
2, 74964, Note_on_c, 0, 93, 89
2, 74964, Note_on_c, 0, 59, 84
2, 74968, Note_on_c, 0, 52, 74
2, 74976, Note_on_c, 0, 55, 74
2, 75056, Note_on_c, 0, 88, 76
2, 75068, Note_off_c, 0, 93, 0
2, 75136, Note_off_c, 0, 88, 0
2, 75140, Note_on_c, 0, 92, 75
2, 75224, Note_off_c, 0, 92, 0
2, 75224, Note_on_c, 0, 88, 77
2, 75232, Note_off_c, 0, 52, 0
2, 75248, Note_off_c, 0, 59, 0
2, 75248, Note_off_c, 0, 55, 0
2, 75316, Note_off_c, 0, 88, 0
2, 75316, Note_on_c, 0, 91, 79
2, 75392, Note_on_c, 0, 59, 84
2, 75396, Note_on_c, 0, 83, 66
2, 75400, Note_on_c, 0, 55, 74
2, 75400, Note_on_c, 0, 52, 67
2, 75412, Note_off_c, 0, 91, 0
2, 75420, Note_off_c, 0, 55, 0
2, 75428, Note_off_c, 0, 52, 0
2, 75440, Note_off_c, 0, 59, 0
2, 75476, Note_off_c, 0, 83, 0
2, 75480, Note_on_c, 0, 90, 77
2, 75488, Note_on_c, 0, 52, 75
2, 75488, Note_on_c, 0, 59, 77
2, 75496, Note_on_c, 0, 55, 76
2, 75572, Note_on_c, 0, 83, 72
2, 75596, Note_off_c, 0, 90, 0
2, 75648, Note_off_c, 0, 83, 0
2, 75676, Note_on_c, 0, 89, 79
2, 75744, Note_off_c, 0, 89, 0
2, 75752, Note_on_c, 0, 79, 77
2, 75788, Note_off_c, 0, 55, 0
2, 75792, Note_off_c, 0, 52, 0
2, 75808, Note_off_c, 0, 59, 0
2, 75836, Note_off_c, 0, 79, 0
2, 75844, Note_on_c, 0, 88, 78
2, 75920, Note_on_c, 0, 83, 68
2, 75940, Note_off_c, 0, 88, 0
2, 76000, Note_on_c, 0, 60, 86
2, 76008, Note_on_c, 0, 55, 71
2, 76008, Note_on_c, 0, 52, 67
2, 76016, Note_on_c, 0, 87, 71
2, 76036, Note_off_c, 0, 83, 0
2, 76036, Control_c, 0, 64, 56
2, 76048, Control_c, 0, 64, 0
2, 76108, Note_on_c, 0, 79, 68
2, 76116, Note_off_c, 0, 87, 0
2, 76116, Control_c, 0, 64, 40
2, 76128, Control_c, 0, 64, 104
2, 76140, Control_c, 0, 64, 127
2, 76184, Note_off_c, 0, 79, 0
2, 76192, Note_on_c, 0, 86, 78
2, 76276, Note_on_c, 0, 79, 70
2, 76280, Note_off_c, 0, 86, 0
2, 76304, Note_off_c, 0, 52, 0
2, 76316, Note_off_c, 0, 60, 0
2, 76332, Note_off_c, 0, 55, 0
2, 76344, Note_off_c, 0, 79, 0
2, 76356, Note_on_c, 0, 85, 64
2, 76440, Note_off_c, 0, 85, 0
2, 76444, Note_on_c, 0, 76, 65
2, 76536, Note_on_c, 0, 84, 85
2, 76544, Note_off_c, 0, 76, 0
2, 76548, Note_on_c, 0, 59, 77
2, 76552, Note_on_c, 0, 55, 68
2, 76556, Note_on_c, 0, 52, 58
2, 76576, Control_c, 0, 64, 56
2, 76588, Control_c, 0, 64, 0
2, 76628, Note_on_c, 0, 79, 71
2, 76628, Control_c, 0, 64, 24
2, 76640, Control_c, 0, 64, 72
2, 76652, Note_off_c, 0, 84, 0
2, 76656, Control_c, 0, 64, 127
2, 76676, Note_off_c, 0, 55, 0
2, 76712, Note_on_c, 0, 83, 79
2, 76724, Note_off_c, 0, 52, 0
2, 76724, Note_off_c, 0, 79, 0
2, 76792, Note_off_c, 0, 83, 0
2, 76800, Note_on_c, 0, 76, 72
2, 76808, Note_off_c, 0, 59, 0
2, 76884, Note_on_c, 0, 82, 69
2, 76888, Note_off_c, 0, 76, 0
2, 76964, Note_on_c, 0, 79, 70
2, 77000, Note_off_c, 0, 82, 0
2, 77028, Note_off_c, 0, 79, 0
2, 77048, Note_on_c, 0, 55, 79
2, 77048, Control_c, 0, 64, 104
2, 77052, Note_on_c, 0, 52, 64
2, 77064, Control_c, 0, 64, 40
2, 77068, Note_on_c, 0, 81, 82
2, 77072, Note_on_c, 0, 47, 60
2, 77076, Control_c, 0, 64, 24
2, 77092, Control_c, 0, 64, 40
2, 77104, Control_c, 0, 64, 88
2, 77116, Control_c, 0, 64, 127
2, 77156, Note_on_c, 0, 76, 73
2, 77168, Note_off_c, 0, 81, 0
2, 77244, Note_off_c, 0, 76, 0
2, 77244, Note_on_c, 0, 80, 65
2, 77268, Note_off_c, 0, 52, 0
2, 77300, Note_off_c, 0, 55, 0
2, 77320, Note_on_c, 0, 76, 64
2, 77328, Note_off_c, 0, 80, 0
2, 77400, Note_off_c, 0, 76, 0
2, 77408, Note_on_c, 0, 79, 81
2, 77492, Note_on_c, 0, 71, 64
2, 77508, Note_off_c, 0, 79, 0
2, 77576, Note_on_c, 0, 78, 73
2, 77580, Note_off_c, 0, 71, 0
2, 77584, Note_on_c, 0, 59, 79
2, 77592, Note_on_c, 0, 55, 71
2, 77592, Note_on_c, 0, 52, 68
2, 77624, Note_off_c, 0, 47, 0
2, 77632, Control_c, 0, 64, 56
2, 77644, Control_c, 0, 64, 0
2, 77672, Note_on_c, 0, 71, 68
2, 77684, Control_c, 0, 64, 40
2, 77696, Note_off_c, 0, 78, 0
2, 77696, Control_c, 0, 64, 104
2, 77712, Control_c, 0, 64, 127
2, 77748, Note_off_c, 0, 71, 0
2, 77776, Note_on_c, 0, 77, 73
2, 77840, Note_off_c, 0, 77, 0
2, 77856, Note_on_c, 0, 67, 65
2, 77872, Note_off_c, 0, 55, 0
2, 77872, Note_off_c, 0, 52, 0
2, 77900, Note_off_c, 0, 59, 0
2, 77944, Note_on_c, 0, 76, 78
2, 77952, Note_off_c, 0, 67, 0
2, 78028, Note_on_c, 0, 71, 65
2, 78040, Note_off_c, 0, 76, 0
2, 78108, Note_on_c, 0, 75, 69
2, 78120, Note_off_c, 0, 71, 0
2, 78192, Note_off_c, 0, 75, 0
2, 78196, Note_on_c, 0, 67, 65
2, 78268, Note_off_c, 0, 67, 0
2, 78276, Note_on_c, 0, 74, 82
2, 78356, Note_off_c, 0, 74, 0
2, 78360, Note_on_c, 0, 67, 68
2, 78428, Note_on_c, 0, 73, 64
2, 78432, Note_off_c, 0, 67, 0
2, 78508, Note_off_c, 0, 73, 0
2, 78540, Note_on_c, 0, 64, 39
2, 78612, Note_off_c, 0, 64, 0
2, 78628, Note_on_c, 0, 72, 85
2, 78644, Note_on_c, 0, 31, 70
2, 78660, Control_c, 0, 64, 104
2, 78672, Control_c, 0, 64, 24
2, 78684, Control_c, 0, 64, 0
2, 78712, Note_on_c, 0, 67, 66
2, 78736, Control_c, 0, 64, 56
2, 78744, Note_off_c, 0, 72, 0
2, 78748, Control_c, 0, 64, 127
2, 78796, Note_on_c, 0, 71, 63
2, 78812, Note_off_c, 0, 67, 0
2, 78848, Note_off_c, 0, 31, 0
2, 78876, Note_off_c, 0, 71, 0
2, 78876, Note_on_c, 0, 65, 66
2, 78952, Note_off_c, 0, 65, 0
2, 78964, Note_on_c, 0, 70, 73
2, 79056, Note_on_c, 0, 65, 68
2, 79072, Note_off_c, 0, 70, 0
2, 79136, Note_off_c, 0, 65, 0
2, 79152, Note_on_c, 0, 69, 83
2, 79156, Note_on_c, 0, 47, 70
2, 79164, Note_on_c, 0, 38, 61
2, 79172, Control_c, 0, 64, 56
2, 79188, Control_c, 0, 64, 0
2, 79212, Control_c, 0, 64, 40
2, 79224, Note_on_c, 0, 62, 64
2, 79224, Control_c, 0, 64, 88
2, 79240, Control_c, 0, 64, 127
2, 79244, Note_off_c, 0, 69, 0
2, 79292, Note_on_c, 0, 68, 69
2, 79308, Note_off_c, 0, 62, 0
2, 79368, Note_off_c, 0, 47, 0
2, 79392, Note_off_c, 0, 38, 0
2, 79396, Note_off_c, 0, 68, 0
2, 79404, Note_on_c, 0, 62, 70
2, 79476, Note_on_c, 0, 67, 74
2, 79480, Note_off_c, 0, 62, 0
2, 79556, Note_on_c, 0, 47, 70
2, 79564, Note_on_c, 0, 38, 63
2, 79568, Note_off_c, 0, 67, 0
2, 79568, Note_on_c, 0, 59, 66
2, 79612, Note_off_c, 0, 47, 0
2, 79620, Note_off_c, 0, 38, 0
2, 79644, Note_off_c, 0, 59, 0
2, 79652, Note_on_c, 0, 66, 73
2, 79700, Note_on_c, 0, 47, 77
2, 79700, Note_on_c, 0, 38, 62
2, 79728, Control_c, 0, 64, 72
2, 79736, Note_on_c, 0, 59, 75
2, 79740, Control_c, 0, 64, 40
2, 79752, Note_off_c, 0, 66, 0
2, 79752, Control_c, 0, 64, 56
2, 79764, Control_c, 0, 64, 104
2, 79780, Control_c, 0, 64, 127
2, 79816, Note_off_c, 0, 59, 0
2, 79832, Note_on_c, 0, 65, 82
2, 79900, Note_off_c, 0, 65, 0
2, 79912, Note_on_c, 0, 55, 70
2, 79992, Note_on_c, 0, 64, 82
2, 79996, Note_off_c, 0, 55, 0
2, 80048, Note_off_c, 0, 47, 0
2, 80052, Note_off_c, 0, 38, 0
2, 80100, Note_on_c, 0, 54, 71
2, 80104, Note_off_c, 0, 64, 0
2, 80172, Note_off_c, 0, 54, 0
2, 80196, Note_on_c, 0, 63, 76
2, 80196, Note_on_c, 0, 48, 80
2, 80208, Note_on_c, 0, 38, 64
2, 80212, Control_c, 0, 64, 72
2, 80216, Note_on_c, 0, 61, 30
2, 80224, Control_c, 0, 64, 0
2, 80252, Note_off_c, 0, 63, 0
2, 80268, Control_c, 0, 64, 88
2, 80272, Note_on_c, 0, 54, 63
2, 80276, Note_off_c, 0, 61, 0
2, 80280, Control_c, 0, 64, 127
2, 80348, Note_off_c, 0, 54, 0
2, 80352, Note_on_c, 0, 62, 83
2, 80440, Note_off_c, 0, 62, 0
2, 80444, Note_on_c, 0, 55, 81
2, 80532, Note_off_c, 0, 48, 0
2, 80532, Note_off_c, 0, 38, 0
2, 80544, Note_off_c, 0, 55, 0
2, 80544, Note_on_c, 0, 61, 71
2, 80608, Note_on_c, 0, 54, 67
2, 80640, Note_off_c, 0, 61, 0
2, 80704, Note_off_c, 0, 54, 0
2, 80716, Note_on_c, 0, 60, 74
2, 80728, Note_on_c, 0, 47, 79
2, 80728, Control_c, 0, 64, 40
2, 80732, Note_on_c, 0, 38, 64
2, 80740, Control_c, 0, 64, 0
2, 80792, Control_c, 0, 64, 24
2, 80808, Control_c, 0, 64, 104
2, 80820, Control_c, 0, 64, 127
2, 80824, Note_on_c, 0, 55, 72
2, 80836, Note_off_c, 0, 60, 0
2, 80880, Note_off_c, 0, 47, 0
2, 80880, Note_on_c, 0, 59, 69
2, 80892, Note_off_c, 0, 55, 0
2, 80924, Note_off_c, 0, 38, 0
2, 80956, Note_off_c, 0, 59, 0
2, 80964, Note_on_c, 0, 53, 72
2, 81044, Note_off_c, 0, 53, 0
2, 81044, Note_on_c, 0, 58, 73
2, 81152, Note_off_c, 0, 58, 0
2, 81152, Note_on_c, 0, 53, 70
2, 81228, Note_off_c, 0, 53, 0
2, 81228, Note_on_c, 0, 31, 72
2, 81228, Control_c, 0, 64, 104
2, 81232, Note_on_c, 0, 57, 80
2, 81240, Control_c, 0, 64, 0
2, 81308, Note_on_c, 0, 50, 68
2, 81308, Control_c, 0, 64, 24
2, 81320, Note_off_c, 0, 57, 0
2, 81320, Control_c, 0, 64, 104
2, 81332, Control_c, 0, 64, 127
2, 81384, Note_on_c, 0, 56, 73
2, 81396, Note_off_c, 0, 50, 0
2, 81480, Note_off_c, 0, 56, 0
2, 81492, Note_on_c, 0, 53, 68
2, 81564, Note_off_c, 0, 53, 0
2, 81564, Note_on_c, 0, 55, 76
2, 81648, Note_on_c, 0, 47, 74
2, 81688, Note_off_c, 0, 55, 0
2, 81708, Note_off_c, 0, 31, 0
2, 81764, Note_off_c, 0, 47, 0
2, 81764, Note_on_c, 0, 54, 77
2, 81768, Control_c, 0, 64, 56
2, 81776, Note_on_c, 0, 38, 75
2, 81784, Control_c, 0, 64, 0
2, 81848, Control_c, 0, 64, 40
2, 81860, Note_off_c, 0, 54, 0
2, 81860, Note_on_c, 0, 53, 66
2, 81860, Control_c, 0, 64, 104
2, 81876, Control_c, 0, 64, 127
2, 81940, Note_on_c, 0, 55, 70
2, 81944, Note_off_c, 0, 53, 0
2, 81996, Note_off_c, 0, 55, 0
2, 82016, Note_on_c, 0, 47, 78
2, 82052, Note_off_c, 0, 38, 0
2, 82104, Note_on_c, 0, 56, 74
2, 82112, Note_off_c, 0, 47, 0
2, 82200, Note_on_c, 0, 53, 71
2, 82212, Note_off_c, 0, 56, 0
2, 82264, Note_off_c, 0, 53, 0
2, 82280, Note_on_c, 0, 57, 74
2, 82360, Control_c, 0, 64, 72
2, 82364, Note_off_c, 0, 57, 0
2, 82368, Note_on_c, 0, 50, 74
2, 82372, Control_c, 0, 64, 0
2, 82416, Control_c, 0, 64, 24
2, 82428, Control_c, 0, 64, 56
2, 82440, Control_c, 0, 64, 104
2, 82452, Note_off_c, 0, 50, 0
2, 82452, Control_c, 0, 64, 127
2, 82468, Note_on_c, 0, 58, 64
2, 82560, Note_on_c, 0, 55, 72
2, 82568, Note_off_c, 0, 58, 0
2, 82628, Note_off_c, 0, 55, 0
2, 82652, Note_on_c, 0, 59, 66
2, 82720, Note_off_c, 0, 59, 0
2, 82732, Note_on_c, 0, 53, 74
2, 82812, Note_off_c, 0, 53, 0
2, 82824, Control_c, 0, 64, 88
2, 82828, Note_on_c, 0, 64, 80
2, 82836, Control_c, 0, 64, 0
2, 82840, Note_on_c, 0, 31, 71
2, 82916, Note_on_c, 0, 59, 64
2, 82916, Control_c, 0, 64, 40
2, 82928, Control_c, 0, 64, 104
2, 82944, Control_c, 0, 64, 127
2, 82968, Note_off_c, 0, 64, 0
2, 82984, Note_off_c, 0, 59, 0
2, 82988, Note_on_c, 0, 62, 66
2, 83004, Note_off_c, 0, 31, 0
2, 83020, Note_off_c, 0, 62, 0
2, 83092, Note_on_c, 0, 65, 70
2, 83160, Note_off_c, 0, 65, 0
2, 83176, Note_on_c, 0, 76, 78
2, 83268, Note_on_c, 0, 71, 59
2, 83332, Note_on_c, 0, 74, 72
2, 83336, Note_off_c, 0, 71, 0
2, 83348, Note_off_c, 0, 76, 0
2, 83356, Note_on_c, 0, 59, 79
2, 83356, Note_on_c, 0, 50, 78
2, 83376, Note_off_c, 0, 74, 0
2, 83404, Note_off_c, 0, 59, 0
2, 83412, Note_off_c, 0, 50, 0
2, 83432, Note_on_c, 0, 77, 82
2, 83524, Note_off_c, 0, 77, 0
2, 83540, Note_on_c, 0, 88, 88
2, 83544, Note_on_c, 0, 42, 64
2, 83636, Note_off_c, 0, 42, 0
2, 83640, Note_on_c, 0, 83, 64
2, 83652, Note_off_c, 0, 88, 0
2, 83704, Note_on_c, 0, 43, 72
2, 83708, Note_on_c, 0, 86, 79
2, 83712, Note_off_c, 0, 83, 0
2, 83736, Note_off_c, 0, 43, 0
2, 83792, Note_off_c, 0, 86, 0
2, 83796, Note_on_c, 0, 77, 79
2, 83852, Control_c, 0, 64, 24
2, 83864, Control_c, 0, 64, 0
2, 83868, Note_on_c, 0, 44, 71
2, 83892, Note_on_c, 0, 50, 71
2, 83904, Note_off_c, 0, 77, 0
2, 83936, Note_on_c, 0, 88, 82
2, 83944, Control_c, 0, 64, 88
2, 83948, Note_on_c, 0, 58, 85
2, 83952, Note_off_c, 0, 44, 0
2, 83956, Control_c, 0, 64, 127
2, 83984, Note_off_c, 0, 50, 0
2, 84000, Note_off_c, 0, 58, 0
2, 84044, Note_on_c, 0, 82, 54
2, 84060, Note_off_c, 0, 88, 0
2, 84108, Note_on_c, 0, 86, 60
2, 84144, Note_off_c, 0, 82, 0
2, 84192, Note_off_c, 0, 86, 0
2, 84192, Note_on_c, 0, 77, 70
2, 84224, Note_off_c, 0, 77, 0
2, 84296, Note_on_c, 0, 76, 81
2, 84384, Note_on_c, 0, 70, 64
2, 84404, Note_off_c, 0, 76, 0
2, 84480, Note_on_c, 0, 74, 61
2, 84484, Note_on_c, 0, 32, 77
2, 84504, Note_off_c, 0, 70, 0
2, 84556, Note_off_c, 0, 74, 0
2, 84556, Note_on_c, 0, 65, 68
2, 84600, Note_off_c, 0, 65, 0
2, 84668, Note_on_c, 0, 64, 67
2, 84752, Note_on_c, 0, 58, 55
2, 84760, Note_off_c, 0, 64, 0
2, 84824, Note_off_c, 0, 58, 0
2, 84832, Note_on_c, 0, 62, 65
2, 84916, Note_off_c, 0, 62, 0
2, 84924, Note_on_c, 0, 53, 69
2, 84948, Note_off_c, 0, 32, 0
2, 85000, Note_off_c, 0, 53, 0
2, 85024, Note_on_c, 0, 64, 70
2, 85024, Control_c, 0, 64, 88
2, 85036, Control_c, 0, 64, 0
2, 85052, Note_on_c, 0, 33, 78
2, 85096, Note_on_c, 0, 57, 58
2, 85116, Control_c, 0, 64, 72
2, 85128, Control_c, 0, 64, 127
2, 85140, Note_off_c, 0, 64, 0
2, 85168, Note_off_c, 0, 57, 0
2, 85172, Note_on_c, 0, 62, 67
2, 85180, Note_off_c, 0, 33, 0
2, 85224, Note_off_c, 0, 62, 0
2, 85288, Note_on_c, 0, 65, 70
2, 85360, Note_off_c, 0, 65, 0
2, 85376, Note_on_c, 0, 76, 75
2, 85460, Note_on_c, 0, 69, 70
2, 85504, Note_off_c, 0, 76, 0
2, 85528, Note_on_c, 0, 74, 74
2, 85536, Note_off_c, 0, 69, 0
2, 85548, Note_on_c, 0, 62, 82
2, 85556, Note_on_c, 0, 53, 79
2, 85580, Note_off_c, 0, 74, 0
2, 85592, Note_off_c, 0, 62, 0
2, 85596, Note_off_c, 0, 53, 0
2, 85624, Note_on_c, 0, 77, 86
2, 85716, Note_off_c, 0, 77, 0
2, 85720, Note_on_c, 0, 88, 88
2, 85736, Note_on_c, 0, 44, 64
2, 85804, Note_on_c, 0, 81, 70
2, 85832, Note_off_c, 0, 44, 0
2, 85836, Note_off_c, 0, 88, 0
2, 85888, Note_off_c, 0, 81, 0
2, 85888, Note_on_c, 0, 45, 81
2, 85888, Note_on_c, 0, 86, 82
2, 85920, Note_on_c, 0, 84, 33
2, 85936, Note_off_c, 0, 45, 0
2, 85944, Note_off_c, 0, 84, 0
2, 85968, Note_off_c, 0, 86, 0
2, 85980, Note_on_c, 0, 77, 81
2, 86012, Control_c, 0, 64, 88
2, 86024, Control_c, 0, 64, 0
2, 86056, Note_on_c, 0, 46, 68
2, 86100, Note_on_c, 0, 53, 61
2, 86104, Control_c, 0, 64, 104
2, 86120, Note_off_c, 0, 77, 0
2, 86120, Control_c, 0, 64, 127
2, 86128, Note_off_c, 0, 46, 0
2, 86128, Note_on_c, 0, 56, 58
2, 86144, Note_on_c, 0, 88, 87
2, 86172, Note_on_c, 0, 62, 80
2, 86224, Note_off_c, 0, 53, 0
2, 86232, Note_off_c, 0, 62, 0
2, 86244, Note_on_c, 0, 80, 68
2, 86256, Note_off_c, 0, 56, 0
2, 86264, Note_off_c, 0, 88, 0
2, 86320, Note_on_c, 0, 86, 64
2, 86344, Note_off_c, 0, 80, 0
2, 86384, Note_on_c, 0, 77, 77
2, 86396, Note_off_c, 0, 86, 0
2, 86436, Note_off_c, 0, 77, 0
2, 86496, Note_on_c, 0, 76, 82
2, 86588, Note_on_c, 0, 68, 57
2, 86604, Note_off_c, 0, 76, 0
2, 86676, Note_on_c, 0, 74, 67
2, 86680, Note_on_c, 0, 34, 73
2, 86692, Note_off_c, 0, 68, 0
2, 86752, Note_off_c, 0, 74, 0
2, 86760, Note_on_c, 0, 65, 67
2, 86792, Note_off_c, 0, 65, 0
2, 86868, Note_on_c, 0, 64, 72
2, 86948, Note_on_c, 0, 56, 54
2, 86968, Note_off_c, 0, 64, 0
2, 87032, Note_off_c, 0, 56, 0
2, 87032, Note_on_c, 0, 62, 72
2, 87124, Note_off_c, 0, 62, 0
2, 87136, Note_on_c, 0, 53, 66
2, 87176, Note_off_c, 0, 34, 0
2, 87220, Note_off_c, 0, 53, 0
2, 87248, Note_on_c, 0, 64, 78
2, 87256, Note_on_c, 0, 35, 74
2, 87292, Control_c, 0, 64, 72
2, 87304, Control_c, 0, 64, 0
2, 87332, Note_on_c, 0, 55, 74
2, 87348, Note_off_c, 0, 64, 0
2, 87384, Control_c, 0, 64, 56
2, 87396, Control_c, 0, 64, 127
2, 87408, Note_off_c, 0, 55, 0
2, 87424, Note_on_c, 0, 62, 60
2, 87504, Note_off_c, 0, 62, 0
2, 87512, Note_off_c, 0, 35, 0
2, 87524, Note_on_c, 0, 53, 64
2, 87552, Note_off_c, 0, 53, 0
2, 87592, Note_on_c, 0, 67, 78
2, 87684, Note_on_c, 0, 64, 64
2, 87696, Note_off_c, 0, 67, 0
2, 87768, Note_on_c, 0, 65, 75
2, 87776, Note_off_c, 0, 64, 0
2, 87776, Note_on_c, 0, 55, 87
2, 87836, Note_off_c, 0, 65, 0
2, 87868, Note_on_c, 0, 62, 71
2, 87928, Note_off_c, 0, 62, 0
2, 87960, Note_on_c, 0, 76, 74
2, 88012, Note_off_c, 0, 55, 0
2, 88020, Note_on_c, 0, 67, 72
2, 88040, Note_off_c, 0, 76, 0
2, 88104, Note_off_c, 0, 67, 0
2, 88120, Note_on_c, 0, 74, 71
2, 88188, Note_off_c, 0, 74, 0
2, 88192, Note_on_c, 0, 55, 82
2, 88216, Note_on_c, 0, 65, 71
2, 88236, Note_off_c, 0, 55, 0
2, 88276, Note_off_c, 0, 65, 0
2, 88304, Note_on_c, 0, 79, 74
2, 88312, Note_on_c, 0, 55, 88
2, 88396, Note_on_c, 0, 76, 49
2, 88404, Note_off_c, 0, 79, 0
2, 88440, Note_off_c, 0, 55, 0
2, 88468, Note_on_c, 0, 77, 82
2, 88476, Note_off_c, 0, 76, 0
2, 88528, Note_off_c, 0, 77, 0
2, 88576, Note_on_c, 0, 74, 49
2, 88576, Note_on_c, 0, 76, 61
2, 88616, Note_off_c, 0, 74, 0
2, 88620, Note_off_c, 0, 76, 0
2, 88648, Note_on_c, 0, 88, 85
2, 88720, Note_on_c, 0, 79, 76
2, 88736, Note_off_c, 0, 88, 0
2, 88788, Note_off_c, 0, 79, 0
2, 88808, Note_on_c, 0, 43, 74
2, 88812, Note_on_c, 0, 86, 68
2, 88816, Note_on_c, 0, 31, 59
2, 88872, Note_off_c, 0, 86, 0
2, 88900, Note_on_c, 0, 77, 73
2, 88960, Note_off_c, 0, 77, 0
2, 88988, Note_on_c, 0, 91, 82
2, 88996, Note_off_c, 0, 31, 0
2, 89052, Note_off_c, 0, 43, 0
2, 89080, Note_on_c, 0, 88, 66
2, 89096, Note_off_c, 0, 91, 0
2, 89168, Note_off_c, 0, 88, 0
2, 89168, Note_on_c, 0, 89, 74
2, 89252, Note_off_c, 0, 89, 0
2, 89252, Note_on_c, 0, 86, 66
2, 89348, Note_off_c, 0, 86, 0
2, 89360, Note_on_c, 0, 93, 83
2, 89372, Control_c, 0, 64, 104
2, 89380, Note_on_c, 0, 48, 74
2, 89388, Control_c, 0, 64, 24
2, 89396, Note_on_c, 0, 36, 54
2, 89400, Control_c, 0, 64, 0
2, 89440, Note_on_c, 0, 88, 66
2, 89464, Control_c, 0, 64, 72
2, 89480, Note_off_c, 0, 93, 0
2, 89480, Control_c, 0, 64, 127
2, 89492, Note_off_c, 0, 36, 0
2, 89524, Note_off_c, 0, 48, 0
2, 89524, Note_on_c, 0, 91, 68
2, 89540, Note_off_c, 0, 88, 0
2, 89600, Note_off_c, 0, 91, 0
2, 89608, Note_on_c, 0, 84, 77
2, 89660, Note_off_c, 0, 84, 0
2, 89704, Note_on_c, 0, 100, 93
2, 89768, Note_off_c, 0, 100, 0
2, 89808, Note_on_c, 0, 91, 73
2, 89864, Note_off_c, 0, 91, 0
2, 89864, Note_on_c, 0, 52, 65
2, 89884, Note_on_c, 0, 98, 84
2, 89960, Note_on_c, 0, 91, 72
2, 89964, Note_off_c, 0, 98, 0
2, 90008, Note_off_c, 0, 52, 0
2, 90036, Note_off_c, 0, 91, 0
2, 90060, Note_on_c, 0, 96, 82
2, 90084, Note_on_c, 0, 60, 60
2, 90128, Note_on_c, 0, 88, 72
2, 90148, Note_off_c, 0, 96, 0
2, 90216, Note_on_c, 0, 95, 77
2, 90228, Note_off_c, 0, 88, 0
2, 90248, Note_on_c, 0, 68, 79
2, 90284, Note_off_c, 0, 60, 0
2, 90284, Note_off_c, 0, 68, 0
2, 90296, Note_off_c, 0, 95, 0
2, 90316, Note_on_c, 0, 92, 73
2, 90388, Note_off_c, 0, 92, 0
2, 90420, Note_on_c, 0, 94, 77
2, 90428, Control_c, 0, 64, 56
2, 90440, Control_c, 0, 64, 0
2, 90456, Note_on_c, 0, 41, 75
2, 90496, Control_c, 0, 64, 56
2, 90508, Control_c, 0, 64, 127
2, 90516, Note_off_c, 0, 41, 0
2, 90516, Note_on_c, 0, 89, 76
2, 90548, Note_off_c, 0, 94, 0
2, 90608, Note_on_c, 0, 92, 70
2, 90624, Note_off_c, 0, 89, 0
2, 90684, Note_off_c, 0, 92, 0
2, 90684, Note_on_c, 0, 85, 67
2, 90772, Note_off_c, 0, 85, 0
2, 90772, Note_on_c, 0, 90, 65
2, 90840, Note_off_c, 0, 90, 0
2, 90840, Note_on_c, 0, 85, 62
2, 90856, Note_on_c, 0, 56, 67
2, 90872, Note_on_c, 0, 53, 63
2, 90892, Note_off_c, 0, 85, 0
2, 90932, Note_on_c, 0, 89, 85
2, 91024, Note_off_c, 0, 89, 0
2, 91036, Note_on_c, 0, 80, 65
2, 91096, Note_off_c, 0, 80, 0
2, 91104, Note_on_c, 0, 87, 78
2, 91120, Note_on_c, 0, 61, 65
2, 91192, Note_off_c, 0, 87, 0
2, 91192, Note_on_c, 0, 80, 77
2, 91232, Note_off_c, 0, 53, 0
2, 91256, Note_off_c, 0, 80, 0
2, 91272, Note_on_c, 0, 85, 79
2, 91280, Note_on_c, 0, 68, 73
2, 91300, Note_off_c, 0, 56, 0
2, 91300, Note_off_c, 0, 61, 0
2, 91324, Note_off_c, 0, 68, 0
2, 91340, Note_off_c, 0, 85, 0
2, 91364, Note_on_c, 0, 77, 74
2, 91432, Note_off_c, 0, 77, 0
2, 91464, Control_c, 0, 64, 104
2, 91480, Note_on_c, 0, 85, 87
2, 91480, Control_c, 0, 64, 40
2, 91492, Control_c, 0, 64, 0
2, 91500, Note_on_c, 0, 43, 67
2, 91564, Control_c, 0, 64, 40
2, 91576, Control_c, 0, 64, 104
2, 91584, Note_off_c, 0, 85, 0
2, 91584, Note_on_c, 0, 78, 74
2, 91592, Control_c, 0, 64, 127
2, 91620, Note_off_c, 0, 43, 0
2, 91672, Note_on_c, 0, 84, 82
2, 91680, Note_off_c, 0, 78, 0
2, 91748, Note_on_c, 0, 76, 74
2, 91780, Note_off_c, 0, 84, 0
2, 91844, Note_off_c, 0, 76, 0
2, 91844, Note_on_c, 0, 79, 76
2, 91924, Note_off_c, 0, 79, 0
2, 91944, Note_on_c, 0, 72, 64
2, 91996, Note_on_c, 0, 60, 64
2, 92012, Note_on_c, 0, 80, 79
2, 92028, Note_off_c, 0, 72, 0
2, 92028, Note_on_c, 0, 55, 45
2, 92104, Note_on_c, 0, 76, 77
2, 92108, Note_off_c, 0, 80, 64
2, 92192, Note_off_c, 0, 76, 0
2, 92196, Note_on_c, 0, 78, 72
2, 92228, Note_on_c, 0, 64, 44
2, 92256, Note_off_c, 0, 55, 64
2, 92288, Note_on_c, 0, 72, 74
2, 92300, Note_off_c, 0, 78, 0
2, 92316, Note_off_c, 0, 60, 64
2, 92340, Note_off_c, 0, 64, 0
2, 92372, Note_off_c, 0, 72, 0
2, 92372, Note_on_c, 0, 67, 39
2, 92380, Note_on_c, 0, 79, 82
2, 92400, Note_off_c, 0, 67, 0
2, 92476, Note_on_c, 0, 72, 70
2, 92496, Note_off_c, 0, 79, 0
2, 92540, Control_c, 0, 64, 104
2, 92552, Control_c, 0, 64, 56
2, 92560, Note_off_c, 0, 72, 0
2, 92568, Note_on_c, 0, 81, 89
2, 92568, Control_c, 0, 64, 0
2, 92596, Note_on_c, 0, 43, 59
2, 92648, Control_c, 0, 64, 56
2, 92668, Note_on_c, 0, 71, 59
2, 92668, Control_c, 0, 64, 127
2, 92688, Note_off_c, 0, 43, 0
2, 92716, Note_off_c, 0, 81, 0
2, 92764, Note_on_c, 0, 78, 80
2, 92780, Note_off_c, 0, 71, 0
2, 92856, Note_off_c, 0, 78, 0
2, 92864, Note_on_c, 0, 77, 68
2, 92940, Note_on_c, 0, 79, 77
2, 92948, Note_off_c, 0, 77, 0
2, 93008, Note_off_c, 0, 79, 0
2, 93008, Note_on_c, 0, 71, 67
2, 93056, Note_off_c, 0, 71, 0
2, 93120, Note_on_c, 0, 83, 84
2, 93124, Control_c, 0, 64, 88
2, 93132, Note_on_c, 0, 62, 62
2, 93140, Note_on_c, 0, 65, 57
2, 93140, Note_on_c, 0, 67, 60
2, 93140, Control_c, 0, 64, 24
2, 93144, Note_on_c, 0, 55, 61
2, 93152, Control_c, 0, 64, 0
2, 93208, Control_c, 0, 64, 24
2, 93216, Note_on_c, 0, 77, 79
2, 93224, Note_off_c, 0, 83, 0
2, 93224, Control_c, 0, 64, 88
2, 93236, Control_c, 0, 64, 127
2, 93280, Note_off_c, 0, 62, 0
2, 93280, Note_off_c, 0, 67, 0
2, 93284, Note_off_c, 0, 65, 0
2, 93304, Note_off_c, 0, 77, 0
2, 93320, Note_off_c, 0, 55, 0
2, 93320, Note_on_c, 0, 88, 89
2, 93396, Note_on_c, 0, 79, 84
2, 93416, Note_off_c, 0, 88, 0
2, 93484, Note_off_c, 0, 79, 0
2, 93508, Note_on_c, 0, 86, 87
2, 93580, Note_on_c, 0, 77, 73
2, 93600, Note_off_c, 0, 86, 0
2, 93644, Control_c, 0, 64, 72
2, 93648, Note_on_c, 0, 48, 62
2, 93652, Note_on_c, 0, 55, 61
2, 93656, Control_c, 0, 64, 0
2, 93672, Note_off_c, 0, 77, 64
2, 93700, Note_on_c, 0, 86, 88
2, 93732, Note_on_c, 0, 64, 62
2, 93736, Note_off_c, 0, 48, 0
2, 93752, Control_c, 0, 64, 104
2, 93768, Control_c, 0, 64, 127
2, 93796, Note_off_c, 0, 55, 0
2, 93804, Note_on_c, 0, 79, 72
2, 93816, Note_off_c, 0, 86, 0
2, 93820, Note_off_c, 0, 64, 0
2, 93876, Note_on_c, 0, 84, 70
2, 93888, Note_off_c, 0, 79, 0
2, 93956, Note_off_c, 0, 84, 0
2, 93968, Note_on_c, 0, 76, 67
2, 94044, Note_off_c, 0, 76, 0
2, 94056, Note_on_c, 0, 81, 79
2, 94156, Note_off_c, 0, 81, 0
2, 94156, Note_on_c, 0, 76, 66
2, 94224, Note_on_c, 0, 79, 66
2, 94228, Note_off_c, 0, 76, 0
2, 94300, Note_off_c, 0, 79, 0
2, 94308, Note_on_c, 0, 72, 63
2, 94384, Note_off_c, 0, 72, 0
2, 94404, Note_on_c, 0, 77, 71
2, 94488, Note_off_c, 0, 77, 0
2, 94492, Note_on_c, 0, 72, 68
2, 94552, Note_off_c, 0, 72, 0
2, 94588, Note_on_c, 0, 76, 70
2, 94648, Note_off_c, 0, 76, 0
2, 94672, Note_on_c, 0, 67, 54
2, 94728, Note_off_c, 0, 67, 0
2, 94764, Note_on_c, 0, 81, 82
2, 94856, Note_on_c, 0, 76, 70
2, 94864, Note_off_c, 0, 81, 0
2, 94944, Note_on_c, 0, 79, 70
2, 94952, Note_off_c, 0, 76, 0
2, 95032, Note_off_c, 0, 79, 0
2, 95032, Note_on_c, 0, 72, 68
2, 95112, Note_off_c, 0, 72, 0
2, 95124, Note_on_c, 0, 77, 81
2, 95216, Note_off_c, 0, 77, 64
2, 95216, Note_on_c, 0, 72, 61
2, 95272, Note_off_c, 0, 72, 0
2, 95304, Note_on_c, 0, 76, 75
2, 95368, Note_off_c, 0, 76, 0
2, 95392, Note_on_c, 0, 67, 69
2, 95456, Note_off_c, 0, 67, 0
2, 95480, Note_on_c, 0, 81, 72
2, 95564, Note_off_c, 0, 81, 0
2, 95580, Note_on_c, 0, 76, 59
2, 95628, Note_off_c, 0, 76, 0
2, 95652, Note_on_c, 0, 79, 68
2, 95736, Note_on_c, 0, 72, 61
2, 95740, Note_off_c, 0, 79, 0
2, 95748, Control_c, 0, 64, 104
2, 95760, Control_c, 0, 64, 40
2, 95776, Control_c, 0, 64, 0
2, 95824, Note_off_c, 0, 72, 0
2, 95844, Note_on_c, 0, 79, 99
2, 95852, Note_on_c, 0, 76, 84
2, 95852, Note_on_c, 0, 69, 59
2, 95912, Control_c, 0, 64, 24
2, 95924, Control_c, 0, 64, 72
2, 95932, Control_c, 0, 64, 104
2, 95944, Control_c, 0, 64, 127
2, 95952, Note_off_c, 0, 69, 0
2, 95964, Note_on_c, 0, 64, 56
2, 96016, Note_off_c, 0, 64, 0
2, 96052, Note_on_c, 0, 67, 66
2, 96108, Note_off_c, 0, 67, 0
2, 96144, Note_on_c, 0, 61, 57
2, 96204, Note_off_c, 0, 79, 0
2, 96216, Note_off_c, 0, 76, 0
2, 96216, Note_off_c, 0, 61, 0
2, 96232, Note_on_c, 0, 65, 60
2, 96296, Note_off_c, 0, 65, 0
2, 96316, Note_on_c, 0, 61, 60
2, 96396, Note_off_c, 0, 61, 0
2, 96420, Note_on_c, 0, 64, 65
2, 96420, Control_c, 0, 64, 104
2, 96424, Note_on_c, 0, 79, 94
2, 96428, Note_on_c, 0, 67, 78
2, 96428, Note_on_c, 0, 76, 82
2, 96432, Control_c, 0, 64, 56
2, 96444, Control_c, 0, 64, 0
2, 96496, Note_off_c, 0, 64, 0
2, 96504, Control_c, 0, 64, 56
2, 96516, Control_c, 0, 64, 104
2, 96520, Note_on_c, 0, 58, 57
2, 96528, Control_c, 0, 64, 127
2, 96592, Note_off_c, 0, 58, 0
2, 96604, Note_on_c, 0, 62, 68
2, 96688, Note_off_c, 0, 62, 0
2, 96708, Note_on_c, 0, 58, 54
2, 96772, Note_off_c, 0, 67, 64
2, 96776, Note_off_c, 0, 58, 0
2, 96796, Note_on_c, 0, 61, 65
2, 96804, Note_off_c, 0, 79, 64
2, 96832, Note_off_c, 0, 76, 64
2, 96876, Note_off_c, 0, 61, 0
2, 96888, Note_on_c, 0, 79, 94
2, 96888, Note_on_c, 0, 67, 82
2, 96888, Note_on_c, 0, 76, 73
2, 96900, Note_on_c, 0, 55, 66
2, 96928, Note_off_c, 0, 67, 0
2, 96932, Note_off_c, 0, 79, 0
2, 96932, Note_off_c, 0, 76, 0
2, 96956, Control_c, 0, 64, 104
2, 96964, Note_off_c, 0, 55, 0
2, 96968, Control_c, 0, 64, 56
2, 96972, Note_on_c, 0, 79, 94
2, 96976, Note_on_c, 0, 67, 76
2, 96980, Note_on_c, 0, 76, 82
2, 96980, Note_on_c, 0, 60, 68
2, 96980, Control_c, 0, 64, 24
2, 96992, Control_c, 0, 64, 0
2, 97004, Control_c, 0, 64, 24
2, 97016, Control_c, 0, 64, 56
2, 97028, Control_c, 0, 64, 104
2, 97040, Control_c, 0, 64, 127
2, 97060, Note_off_c, 0, 60, 0
2, 97088, Note_on_c, 0, 55, 64
2, 97140, Note_off_c, 0, 55, 0
2, 97160, Note_on_c, 0, 58, 60
2, 97252, Note_off_c, 0, 58, 0
2, 97268, Note_on_c, 0, 52, 68
2, 97316, Note_off_c, 0, 67, 0
2, 97328, Note_off_c, 0, 52, 0
2, 97356, Note_on_c, 0, 57, 60
2, 97388, Note_off_c, 0, 79, 0
2, 97420, Note_off_c, 0, 76, 0
2, 97420, Note_off_c, 0, 57, 0
2, 97436, Note_on_c, 0, 52, 70
2, 97508, Note_off_c, 0, 52, 0
2, 97528, Control_c, 0, 64, 104
2, 97532, Note_on_c, 0, 55, 75
2, 97532, Note_on_c, 0, 81, 92
2, 97536, Note_on_c, 0, 69, 86
2, 97536, Note_on_c, 0, 76, 78
2, 97540, Control_c, 0, 64, 40
2, 97548, Control_c, 0, 64, 0
2, 97608, Note_off_c, 0, 55, 0
2, 97624, Control_c, 0, 64, 40
2, 97628, Note_on_c, 0, 49, 69
2, 97636, Control_c, 0, 64, 104
2, 97648, Control_c, 0, 64, 127
2, 97700, Note_off_c, 0, 49, 0
2, 97720, Note_on_c, 0, 53, 68
2, 97780, Note_off_c, 0, 53, 0
2, 97804, Note_on_c, 0, 49, 61
2, 97860, Note_off_c, 0, 49, 0
2, 97888, Note_on_c, 0, 52, 69
2, 97936, Note_off_c, 0, 81, 0
2, 97944, Note_off_c, 0, 52, 0
2, 97972, Note_off_c, 0, 69, 0
2, 97984, Note_on_c, 0, 46, 62
2, 98020, Note_off_c, 0, 76, 0
2, 98056, Note_off_c, 0, 46, 0
2, 98064, Note_on_c, 0, 50, 73
2, 98072, Note_on_c, 0, 79, 97
2, 98072, Control_c, 0, 64, 72
2, 98076, Note_on_c, 0, 76, 78
2, 98076, Note_on_c, 0, 67, 84
2, 98084, Control_c, 0, 64, 0
2, 98144, Control_c, 0, 64, 40
2, 98156, Control_c, 0, 64, 88
2, 98164, Note_on_c, 0, 46, 61
2, 98168, Note_off_c, 0, 50, 0
2, 98168, Control_c, 0, 64, 127
2, 98252, Note_off_c, 0, 46, 64
2, 98256, Note_on_c, 0, 49, 77
2, 98340, Note_off_c, 0, 49, 0
2, 98368, Note_on_c, 0, 43, 68
2, 98424, Note_off_c, 0, 43, 0
2, 98440, Note_on_c, 0, 48, 69
2, 98512, Note_off_c, 0, 48, 0
2, 98528, Note_on_c, 0, 43, 71
2, 98536, Note_off_c, 0, 76, 64
2, 98560, Note_off_c, 0, 67, 64
2, 98596, Note_off_c, 0, 79, 64
2, 98604, Note_off_c, 0, 43, 0
2, 98628, Note_on_c, 0, 46, 67
2, 98632, Note_on_c, 0, 76, 92
2, 98636, Note_on_c, 0, 67, 73
2, 98640, Note_on_c, 0, 73, 74
2, 98644, Control_c, 0, 64, 104
2, 98656, Control_c, 0, 64, 72
2, 98668, Control_c, 0, 64, 24
2, 98680, Control_c, 0, 64, 0
2, 98716, Control_c, 0, 64, 40
2, 98728, Note_off_c, 0, 46, 0
2, 98728, Control_c, 0, 64, 72
2, 98740, Control_c, 0, 64, 127
2, 98744, Note_on_c, 0, 40, 65
2, 98808, Note_off_c, 0, 40, 0
2, 98820, Note_on_c, 0, 45, 65
2, 98892, Note_off_c, 0, 45, 0
2, 98912, Note_on_c, 0, 40, 66
2, 98976, Note_off_c, 0, 40, 0
2, 98996, Note_on_c, 0, 43, 69
2, 99028, Note_off_c, 0, 73, 0
2, 99064, Note_off_c, 0, 43, 0
2, 99068, Note_off_c, 0, 67, 0
2, 99084, Note_on_c, 0, 37, 63
2, 99108, Note_off_c, 0, 76, 0
2, 99164, Control_c, 0, 64, 72
2, 99168, Note_off_c, 0, 37, 0
2, 99168, Note_on_c, 0, 79, 97
2, 99168, Note_on_c, 0, 76, 82
2, 99172, Note_on_c, 0, 67, 82
2, 99176, Note_on_c, 0, 41, 66
2, 99176, Control_c, 0, 64, 24
2, 99188, Control_c, 0, 64, 0
2, 99236, Control_c, 0, 64, 24
2, 99244, Note_off_c, 0, 41, 0
2, 99248, Control_c, 0, 64, 72
2, 99260, Control_c, 0, 64, 127
2, 99268, Note_on_c, 0, 37, 63
2, 99332, Note_off_c, 0, 37, 0
2, 99352, Note_on_c, 0, 40, 61
2, 99412, Note_off_c, 0, 40, 0
2, 99440, Note_on_c, 0, 34, 64
2, 99504, Note_off_c, 0, 34, 0
2, 99512, Note_on_c, 0, 38, 68
2, 99596, Note_on_c, 0, 34, 70
2, 99600, Note_off_c, 0, 38, 0
2, 99676, Note_off_c, 0, 34, 0
2, 99684, Note_on_c, 0, 37, 80
2, 99792, Note_off_c, 0, 37, 64
2, 99792, Note_on_c, 0, 31, 70
2, 99860, Note_on_c, 0, 36, 63
2, 99872, Note_off_c, 0, 31, 0
2, 99952, Note_off_c, 0, 67, 64
2, 99952, Note_on_c, 0, 31, 66
2, 99956, Note_off_c, 0, 36, 0
2, 100028, Note_off_c, 0, 31, 0
2, 100028, Note_on_c, 0, 34, 67
2, 100032, Note_off_c, 0, 76, 64
2, 100060, Note_off_c, 0, 79, 64
2, 100120, Note_on_c, 0, 28, 72
2, 100132, Note_off_c, 0, 34, 0
2, 100168, Note_off_c, 0, 28, 0
2, 100308, Note_on_c, 0, 82, 93
2, 100312, Note_on_c, 0, 79, 82
2, 100320, Note_on_c, 0, 72, 86
2, 100328, Control_c, 0, 64, 24
2, 100340, Control_c, 0, 64, 0
2, 100416, Note_off_c, 0, 72, 0
2, 100416, Control_c, 0, 64, 72
2, 100424, Note_on_c, 0, 67, 64
2, 100428, Control_c, 0, 64, 127
2, 100500, Note_off_c, 0, 67, 0
2, 100512, Note_on_c, 0, 70, 70
2, 100608, Note_off_c, 0, 70, 0
2, 100620, Note_on_c, 0, 64, 68
2, 100668, Note_off_c, 0, 64, 0
2, 100692, Note_on_c, 0, 69, 70
2, 100752, Note_off_c, 0, 69, 0
2, 100760, Note_off_c, 0, 82, 0
2, 100760, Note_off_c, 0, 79, 0
2, 100776, Note_on_c, 0, 64, 65
2, 100856, Note_off_c, 0, 64, 0
2, 100872, Note_on_c, 0, 82, 91
2, 100872, Note_on_c, 0, 70, 65
2, 100880, Note_on_c, 0, 67, 73
2, 100884, Note_on_c, 0, 79, 79
2, 100888, Control_c, 0, 64, 72
2, 100900, Control_c, 0, 64, 0
2, 100940, Control_c, 0, 64, 24
2, 100952, Note_off_c, 0, 67, 0
2, 100952, Control_c, 0, 64, 88
2, 100960, Note_off_c, 0, 70, 0
2, 100964, Control_c, 0, 64, 127
2, 100972, Note_on_c, 0, 61, 57
2, 101040, Note_off_c, 0, 61, 0
2, 101056, Note_on_c, 0, 65, 67
2, 101124, Note_off_c, 0, 65, 0
2, 101140, Note_on_c, 0, 61, 58
2, 101200, Note_off_c, 0, 61, 0
2, 101228, Note_on_c, 0, 64, 65
2, 101268, Note_off_c, 0, 82, 0
2, 101280, Note_off_c, 0, 79, 0
2, 101296, Note_off_c, 0, 64, 0
2, 101320, Note_on_c, 0, 58, 57
2, 101332, Note_on_c, 0, 82, 96
2, 101336, Note_on_c, 0, 70, 87
2, 101340, Note_on_c, 0, 79, 74
2, 101368, Note_off_c, 0, 79, 0
2, 101376, Note_off_c, 0, 70, 0
2, 101388, Note_off_c, 0, 82, 0
2, 101392, Note_off_c, 0, 58, 0
2, 101412, Note_on_c, 0, 62, 70
2, 101416, Note_on_c, 0, 82, 90
2, 101424, Note_on_c, 0, 70, 84
2, 101428, Note_on_c, 0, 79, 86
2, 101436, Control_c, 0, 64, 88
2, 101448, Control_c, 0, 64, 40
2, 101460, Control_c, 0, 64, 0
2, 101496, Control_c, 0, 64, 56
2, 101500, Note_on_c, 0, 58, 58
2, 101508, Control_c, 0, 64, 127
2, 101512, Note_off_c, 0, 62, 0
2, 101600, Note_on_c, 0, 61, 67
2, 101612, Note_off_c, 0, 58, 0
2, 101696, Note_off_c, 0, 61, 0
2, 101700, Note_on_c, 0, 55, 73
2, 101720, Note_off_c, 0, 70, 0
2, 101744, Note_off_c, 0, 79, 0
2, 101760, Note_off_c, 0, 55, 0
2, 101772, Note_on_c, 0, 60, 69
2, 101840, Note_off_c, 0, 82, 0
2, 101856, Note_off_c, 0, 60, 0
2, 101860, Note_on_c, 0, 55, 74
2, 101936, Note_off_c, 0, 55, 0
2, 101956, Note_on_c, 0, 58, 64
2, 101960, Note_on_c, 0, 84, 93
2, 101968, Note_on_c, 0, 72, 85
2, 101972, Note_on_c, 0, 79, 82
2, 101972, Control_c, 0, 64, 104
2, 101984, Control_c, 0, 64, 40
2, 101996, Control_c, 0, 64, 0
2, 102044, Control_c, 0, 64, 24
2, 102056, Control_c, 0, 64, 88
2, 102068, Control_c, 0, 64, 127
2, 102072, Note_off_c, 0, 58, 0
2, 102080, Note_on_c, 0, 52, 69
2, 102148, Note_off_c, 0, 52, 0
2, 102156, Note_on_c, 0, 57, 63
2, 102236, Note_off_c, 0, 57, 0
2, 102256, Note_on_c, 0, 52, 54
2, 102312, Note_off_c, 0, 84, 0
2, 102312, Note_off_c, 0, 52, 0
2, 102328, Note_off_c, 0, 72, 0
2, 102340, Note_on_c, 0, 55, 69
2, 102408, Note_off_c, 0, 55, 0
2, 102428, Note_on_c, 0, 49, 67
2, 102432, Note_off_c, 0, 79, 0
2, 102496, Note_off_c, 0, 49, 0
2, 102520, Note_on_c, 0, 53, 68
2, 102524, Note_on_c, 0, 82, 88
2, 102528, Note_on_c, 0, 70, 82
2, 102532, Note_on_c, 0, 79, 82
2, 102552, Control_c, 0, 64, 72
2, 102564, Control_c, 0, 64, 0
2, 102588, Control_c, 0, 64, 24
2, 102600, Note_off_c, 0, 53, 0
2, 102600, Control_c, 0, 64, 72
2, 102612, Control_c, 0, 64, 127
2, 102616, Note_on_c, 0, 49, 68
2, 102684, Note_off_c, 0, 49, 0
2, 102716, Note_on_c, 0, 52, 54
2, 102772, Note_off_c, 0, 52, 0
2, 102800, Note_on_c, 0, 46, 62
2, 102868, Note_off_c, 0, 46, 64
2, 102880, Note_on_c, 0, 50, 71
2, 102956, Note_off_c, 0, 50, 0
2, 102956, Note_off_c, 0, 79, 64
2, 102964, Note_on_c, 0, 46, 73
2, 103016, Note_off_c, 0, 70, 64
2, 103040, Note_off_c, 0, 82, 64
2, 103040, Note_off_c, 0, 46, 0
2, 103056, Note_on_c, 0, 49, 83
2, 103080, Note_on_c, 0, 70, 72
2, 103080, Note_on_c, 0, 79, 90
2, 103096, Note_on_c, 0, 76, 72
2, 103096, Control_c, 0, 64, 104
2, 103112, Control_c, 0, 64, 72
2, 103124, Control_c, 0, 64, 24
2, 103136, Control_c, 0, 64, 0
2, 103156, Note_off_c, 0, 49, 0
2, 103160, Control_c, 0, 64, 40
2, 103172, Control_c, 0, 64, 104
2, 103176, Note_on_c, 0, 43, 74
2, 103180, Control_c, 0, 64, 127
2, 103252, Note_off_c, 0, 43, 0
2, 103252, Note_on_c, 0, 48, 74
2, 103272, Note_off_c, 0, 76, 0
2, 103340, Note_off_c, 0, 48, 0
2, 103344, Note_on_c, 0, 43, 68
2, 103420, Note_off_c, 0, 43, 0
2, 103424, Note_on_c, 0, 46, 62
2, 103460, Note_off_c, 0, 70, 0
2, 103520, Note_off_c, 0, 46, 0
2, 103524, Note_on_c, 0, 40, 65
2, 103540, Note_off_c, 0, 79, 0
2, 103608, Note_off_c, 0, 40, 0
2, 103612, Note_on_c, 0, 82, 87
2, 103612, Note_on_c, 0, 70, 81
2, 103616, Note_on_c, 0, 45, 72
2, 103616, Note_on_c, 0, 79, 81
2, 103624, Control_c, 0, 64, 56
2, 103636, Control_c, 0, 64, 0
2, 103680, Control_c, 0, 64, 24
2, 103696, Note_off_c, 0, 45, 0
2, 103696, Control_c, 0, 64, 72
2, 103700, Note_on_c, 0, 40, 60
2, 103708, Control_c, 0, 64, 127
2, 103772, Note_off_c, 0, 40, 0
2, 103792, Note_on_c, 0, 43, 73
2, 103860, Note_off_c, 0, 43, 0
2, 103880, Note_on_c, 0, 37, 67
2, 103948, Note_off_c, 0, 37, 0
2, 103956, Note_on_c, 0, 41, 66
2, 104036, Note_off_c, 0, 41, 0
2, 104040, Note_on_c, 0, 37, 58
2, 104116, Note_off_c, 0, 37, 0
2, 104136, Note_on_c, 0, 40, 63
2, 104220, Note_off_c, 0, 40, 0
2, 104220, Note_on_c, 0, 34, 70
2, 104304, Note_off_c, 0, 34, 0
2, 104304, Note_on_c, 0, 38, 73
2, 104388, Note_on_c, 0, 34, 66
2, 104392, Note_off_c, 0, 38, 64
2, 104460, Note_off_c, 0, 70, 64
2, 104480, Note_off_c, 0, 34, 0
2, 104484, Note_on_c, 0, 37, 76
2, 104500, Note_off_c, 0, 79, 64
2, 104540, Note_off_c, 0, 82, 64
2, 104584, Note_off_c, 0, 37, 0
2, 104584, Note_on_c, 0, 31, 68
2, 104620, Note_off_c, 0, 31, 0
2, 104796, Note_on_c, 0, 96, 81
2, 104812, Note_on_c, 0, 39, 67
2, 104816, Note_on_c, 0, 27, 67
2, 104832, Control_c, 0, 64, 88
2, 104848, Control_c, 0, 64, 0
2, 104952, Note_on_c, 0, 87, 73
2, 104968, Control_c, 0, 64, 127
2, 104988, Note_off_c, 0, 96, 0
2, 105024, Note_off_c, 0, 27, 0
2, 105036, Note_off_c, 0, 87, 0
2, 105048, Note_on_c, 0, 94, 71
2, 105064, Note_off_c, 0, 39, 0
2, 105124, Note_off_c, 0, 94, 0
2, 105132, Note_on_c, 0, 85, 65
2, 105204, Note_off_c, 0, 85, 0
2, 105228, Note_on_c, 0, 92, 69
2, 105296, Note_off_c, 0, 92, 0
2, 105296, Note_on_c, 0, 87, 64
2, 105368, Note_off_c, 0, 87, 0
2, 105392, Note_on_c, 0, 91, 72
2, 105412, Note_on_c, 0, 63, 74
2, 105488, Note_on_c, 0, 85, 68
2, 105500, Note_off_c, 0, 91, 0
2, 105564, Note_off_c, 0, 85, 0
2, 105588, Note_on_c, 0, 89, 69
2, 105664, Note_off_c, 0, 89, 0
2, 105664, Note_on_c, 0, 85, 72
2, 105724, Note_off_c, 0, 63, 0
2, 105744, Note_off_c, 0, 85, 0
2, 105756, Note_on_c, 0, 87, 68
2, 105828, Note_off_c, 0, 87, 0
2, 105832, Note_on_c, 0, 63, 78
2, 105840, Note_on_c, 0, 79, 74
2, 105900, Note_off_c, 0, 63, 0
2, 105936, Note_on_c, 0, 51, 67
2, 105940, Control_c, 0, 64, 104
2, 105944, Note_on_c, 0, 60, 68
2, 105948, Note_off_c, 0, 79, 64
2, 105952, Control_c, 0, 64, 24
2, 105964, Control_c, 0, 64, 0
2, 106000, Note_on_c, 0, 89, 78
2, 106000, Control_c, 0, 64, 40
2, 106004, Note_off_c, 0, 51, 0
2, 106012, Control_c, 0, 64, 127
2, 106016, Note_on_c, 0, 63, 85
2, 106064, Note_off_c, 0, 60, 0
2, 106104, Note_off_c, 0, 89, 0
2, 106112, Note_on_c, 0, 84, 76
2, 106124, Note_on_c, 0, 60, 16
2, 106196, Note_on_c, 0, 87, 65
2, 106208, Note_off_c, 0, 84, 0
2, 106264, Note_on_c, 0, 80, 57
2, 106268, Note_off_c, 0, 63, 0
2, 106296, Note_off_c, 0, 87, 0
2, 106348, Note_on_c, 0, 85, 67
2, 106352, Note_off_c, 0, 80, 0
2, 106416, Note_off_c, 0, 85, 0
2, 106424, Note_on_c, 0, 80, 70
2, 106456, Note_off_c, 0, 80, 0
2, 106488, Note_off_c, 0, 60, 0
2, 106524, Note_on_c, 0, 68, 77
2, 106528, Note_on_c, 0, 84, 82
2, 106612, Note_off_c, 0, 84, 0
2, 106628, Note_on_c, 0, 75, 72
2, 106696, Note_off_c, 0, 75, 0
2, 106720, Note_on_c, 0, 82, 67
2, 106800, Note_off_c, 0, 82, 0
2, 106800, Note_on_c, 0, 75, 73
2, 106872, Note_off_c, 0, 75, 0
2, 106884, Note_on_c, 0, 80, 73
2, 106932, Note_off_c, 0, 68, 0
2, 106956, Note_off_c, 0, 80, 0
2, 106968, Note_on_c, 0, 72, 78
2, 106968, Note_on_c, 0, 60, 66
2, 107036, Note_off_c, 0, 60, 0
2, 107064, Note_off_c, 0, 72, 0
2, 107080, Note_on_c, 0, 84, 84
2, 107080, Note_on_c, 0, 63, 69
2, 107096, Note_on_c, 0, 51, 65
2, 107116, Control_c, 0, 64, 40
2, 107132, Control_c, 0, 64, 0
2, 107184, Note_on_c, 0, 75, 73
2, 107188, Note_off_c, 0, 84, 0
2, 107204, Control_c, 0, 64, 72
2, 107216, Control_c, 0, 64, 127
2, 107264, Note_off_c, 0, 75, 0
2, 107272, Note_on_c, 0, 82, 64
2, 107344, Note_off_c, 0, 82, 0
2, 107352, Note_on_c, 0, 73, 65
2, 107416, Note_off_c, 0, 73, 0
2, 107432, Note_on_c, 0, 81, 67
2, 107508, Note_off_c, 0, 81, 64
2, 107516, Note_on_c, 0, 75, 71
2, 107596, Note_off_c, 0, 75, 0
2, 107604, Note_on_c, 0, 58, 65
2, 107604, Note_on_c, 0, 82, 70
2, 107616, Note_off_c, 0, 63, 64
2, 107652, Control_c, 0, 64, 88
2, 107688, Note_off_c, 0, 82, 0
2, 107688, Note_on_c, 0, 73, 61
2, 107688, Control_c, 0, 64, 127
2, 107772, Note_off_c, 0, 73, 0
2, 107784, Note_on_c, 0, 85, 75
2, 107864, Note_on_c, 0, 75, 67
2, 107880, Note_off_c, 0, 85, 0
2, 107956, Note_off_c, 0, 75, 0
2, 107968, Note_on_c, 0, 79, 75
2, 107988, Note_off_c, 0, 51, 64
2, 107992, Note_off_c, 0, 58, 0
2, 108000, Note_on_c, 0, 63, 74
2, 108040, Note_off_c, 0, 63, 0
2, 108044, Note_off_c, 0, 79, 0
2, 108060, Note_on_c, 0, 73, 51
2, 108172, Control_c, 0, 64, 104
2, 108180, Note_on_c, 0, 44, 64
2, 108184, Control_c, 0, 64, 0
2, 108196, Note_on_c, 0, 51, 40
2, 108208, Note_off_c, 0, 73, 0
2, 108228, Note_off_c, 0, 44, 0
2, 108232, Note_on_c, 0, 82, 70
2, 108236, Control_c, 0, 64, 24
2, 108248, Control_c, 0, 64, 88
2, 108260, Control_c, 0, 64, 127
2, 108264, Note_on_c, 0, 60, 74
2, 108280, Note_off_c, 0, 51, 0
2, 108312, Note_off_c, 0, 60, 0
2, 108348, Note_off_c, 0, 82, 0
2, 108348, Note_on_c, 0, 75, 67
2, 108420, Note_off_c, 0, 75, 0
2, 108428, Note_on_c, 0, 80, 62
2, 108496, Note_off_c, 0, 80, 0
2, 108504, Note_on_c, 0, 72, 58
2, 108588, Note_on_c, 0, 79, 64
2, 108600, Note_off_c, 0, 72, 0
2, 108660, Note_off_c, 0, 79, 0
2, 108680, Note_on_c, 0, 75, 67
2, 108748, Note_off_c, 0, 75, 0
2, 108768, Note_on_c, 0, 80, 64
2, 108848, Note_off_c, 0, 80, 0
2, 108848, Note_on_c, 0, 72, 64
2, 108932, Note_off_c, 0, 72, 0
2, 108940, Note_on_c, 0, 82, 65
2, 109032, Note_on_c, 0, 75, 64
2, 109056, Note_off_c, 0, 82, 64
2, 109116, Note_on_c, 0, 80, 69
2, 109120, Note_off_c, 0, 75, 0
2, 109192, Note_off_c, 0, 80, 0
2, 109200, Note_on_c, 0, 72, 59
2, 109260, Note_off_c, 0, 72, 0
2, 109416, Note_on_c, 0, 92, 85
2, 109424, Note_on_c, 0, 47, 68
2, 109436, Note_on_c, 0, 35, 68
2, 109448, Control_c, 0, 64, 88
2, 109460, Control_c, 0, 64, 0
2, 109532, Note_on_c, 0, 83, 67
2, 109544, Note_off_c, 0, 92, 0
2, 109556, Control_c, 0, 64, 127
2, 109604, Note_off_c, 0, 35, 0
2, 109620, Note_off_c, 0, 83, 0
2, 109632, Note_on_c, 0, 90, 76
2, 109636, Note_off_c, 0, 47, 0
2, 109720, Note_off_c, 0, 90, 0
2, 109724, Note_on_c, 0, 81, 60
2, 109816, Note_off_c, 0, 81, 0
2, 109816, Note_on_c, 0, 88, 73
2, 109912, Note_on_c, 0, 83, 76
2, 109920, Note_off_c, 0, 88, 0
2, 109988, Note_on_c, 0, 59, 81
2, 109996, Note_off_c, 0, 83, 0
2, 110000, Note_on_c, 0, 87, 67
2, 110088, Note_on_c, 0, 81, 54
2, 110104, Note_off_c, 0, 87, 0
2, 110148, Note_off_c, 0, 81, 0
2, 110156, Note_on_c, 0, 85, 63
2, 110220, Note_off_c, 0, 59, 0
2, 110236, Note_on_c, 0, 81, 59
2, 110244, Note_off_c, 0, 85, 0
2, 110304, Note_off_c, 0, 81, 0
2, 110312, Note_on_c, 0, 83, 71
2, 110372, Note_off_c, 0, 83, 0
2, 110384, Note_on_c, 0, 59, 70
2, 110396, Note_on_c, 0, 78, 69
2, 110444, Note_off_c, 0, 59, 0
2, 110464, Note_off_c, 0, 78, 0
2, 110484, Note_on_c, 0, 47, 73
2, 110504, Control_c, 0, 64, 88
2, 110516, Control_c, 0, 64, 40
2, 110520, Note_on_c, 0, 56, 64
2, 110528, Control_c, 0, 64, 0
2, 110540, Control_c, 0, 64, 24
2, 110544, Note_on_c, 0, 88, 80
2, 110552, Note_off_c, 0, 47, 64
2, 110552, Control_c, 0, 64, 72
2, 110564, Control_c, 0, 64, 127
2, 110580, Note_on_c, 0, 59, 76
2, 110656, Note_off_c, 0, 88, 0
2, 110656, Note_on_c, 0, 80, 77
2, 110732, Note_off_c, 0, 80, 0
2, 110748, Note_off_c, 0, 59, 0
2, 110748, Note_on_c, 0, 87, 71
2, 110828, Note_off_c, 0, 87, 0
2, 110832, Note_on_c, 0, 80, 71
2, 110904, Note_off_c, 0, 80, 0
2, 110908, Note_on_c, 0, 85, 71
2, 110984, Note_off_c, 0, 85, 0
2, 110992, Note_on_c, 0, 76, 66
2, 111060, Note_off_c, 0, 56, 0
2, 111064, Note_off_c, 0, 76, 0
2, 111076, Note_on_c, 0, 64, 79
2, 111092, Note_on_c, 0, 83, 76
2, 111160, Note_off_c, 0, 83, 0
2, 111196, Note_on_c, 0, 76, 66
2, 111252, Note_off_c, 0, 76, 0
2, 111272, Note_on_c, 0, 81, 71
2, 111356, Note_off_c, 0, 81, 0
2, 111356, Note_on_c, 0, 76, 69
2, 111432, Note_off_c, 0, 64, 0
2, 111432, Note_off_c, 0, 76, 0
2, 111444, Note_on_c, 0, 80, 71
2, 111488, Note_on_c, 0, 56, 76
2, 111532, Note_off_c, 0, 80, 0
2, 111532, Note_on_c, 0, 71, 58
2, 111544, Note_off_c, 0, 56, 0
2, 111624, Note_off_c, 0, 71, 0
2, 111644, Note_on_c, 0, 80, 73
2, 111644, Note_on_c, 0, 59, 73
2, 111656, Note_on_c, 0, 47, 70
2, 111692, Control_c, 0, 64, 40
2, 111704, Control_c, 0, 64, 0
2, 111740, Note_on_c, 0, 75, 65
2, 111748, Note_off_c, 0, 80, 0
2, 111780, Control_c, 0, 64, 104
2, 111792, Control_c, 0, 64, 127
2, 111820, Note_off_c, 0, 75, 0
2, 111824, Note_on_c, 0, 78, 64
2, 111896, Note_off_c, 0, 78, 0
2, 111912, Note_on_c, 0, 69, 68
2, 111972, Note_off_c, 0, 47, 0
2, 112000, Note_off_c, 0, 69, 0
2, 112000, Note_on_c, 0, 77, 77
2, 112068, Note_off_c, 0, 77, 64
2, 112088, Note_on_c, 0, 69, 71
2, 112164, Note_off_c, 0, 69, 0
2, 112176, Note_on_c, 0, 78, 71
2, 112184, Note_on_c, 0, 54, 70
2, 112212, Note_off_c, 0, 59, 64
2, 112252, Note_off_c, 0, 78, 0
2, 112260, Note_on_c, 0, 69, 62
2, 112328, Note_off_c, 0, 69, 0
2, 112348, Note_on_c, 0, 81, 78
2, 112352, Note_off_c, 0, 54, 0
2, 112352, Note_on_c, 0, 56, 73
2, 112424, Note_off_c, 0, 81, 0
2, 112432, Note_on_c, 0, 71, 63
2, 112508, Note_off_c, 0, 71, 0
2, 112520, Note_off_c, 0, 56, 0
2, 112520, Note_on_c, 0, 75, 72
2, 112520, Note_on_c, 0, 57, 76
2, 112572, Note_off_c, 0, 57, 0
2, 112588, Note_off_c, 0, 75, 0
2, 112600, Note_on_c, 0, 69, 68
2, 112680, Note_on_c, 0, 40, 64
2, 112680, Control_c, 0, 64, 56
2, 112692, Control_c, 0, 64, 0
2, 112700, Note_on_c, 0, 47, 35
2, 112704, Note_off_c, 0, 69, 0
2, 112732, Note_off_c, 0, 40, 0
2, 112744, Note_on_c, 0, 78, 77
2, 112752, Control_c, 0, 64, 56
2, 112764, Control_c, 0, 64, 127
2, 112768, Note_on_c, 0, 56, 77
2, 112776, Note_off_c, 0, 47, 0
2, 112812, Note_off_c, 0, 56, 0
2, 112852, Note_off_c, 0, 78, 0
2, 112876, Note_on_c, 0, 71, 63
2, 112968, Note_off_c, 0, 71, 0
2, 112968, Note_on_c, 0, 77, 76
2, 113036, Note_off_c, 0, 77, 0
2, 113052, Note_on_c, 0, 68, 61
2, 113140, Note_off_c, 0, 68, 0
2, 113148, Note_on_c, 0, 76, 74
2, 113228, Note_off_c, 0, 76, 0
2, 113240, Note_on_c, 0, 71, 59
2, 113308, Note_off_c, 0, 71, 0
2, 113308, Note_on_c, 0, 75, 64
2, 113388, Note_on_c, 0, 68, 49
2, 113404, Note_off_c, 0, 75, 0
2, 113476, Note_on_c, 0, 74, 73
2, 113480, Note_off_c, 0, 68, 0
2, 113552, Note_off_c, 0, 74, 0
2, 113572, Note_on_c, 0, 71, 67
2, 113656, Note_off_c, 0, 71, 64
2, 113668, Note_on_c, 0, 73, 64
2, 113752, Note_off_c, 0, 73, 0
2, 113764, Note_on_c, 0, 68, 53
2, 113820, Note_off_c, 0, 68, 0
2, 113904, Note_on_c, 0, 52, 76
2, 113904, Note_on_c, 0, 73, 78
2, 113908, Note_on_c, 0, 40, 64
2, 113948, Control_c, 0, 64, 88
2, 113960, Control_c, 0, 64, 127
2, 114012, Note_on_c, 0, 68, 75
2, 114036, Note_off_c, 0, 73, 0
2, 114060, Note_off_c, 0, 52, 0
2, 114088, Note_off_c, 0, 40, 0
2, 114096, Note_off_c, 0, 68, 0
2, 114116, Note_on_c, 0, 71, 79
2, 114184, Note_off_c, 0, 71, 0
2, 114200, Note_on_c, 0, 62, 69
2, 114304, Note_on_c, 0, 73, 73
2, 114352, Note_off_c, 0, 62, 0
2, 114384, Note_on_c, 0, 68, 72
2, 114416, Note_off_c, 0, 73, 0
2, 114484, Note_on_c, 0, 71, 77
2, 114504, Note_on_c, 0, 47, 71
2, 114508, Note_off_c, 0, 68, 0
2, 114508, Note_on_c, 0, 35, 63
2, 114532, Note_off_c, 0, 47, 0
2, 114536, Note_off_c, 0, 71, 0
2, 114548, Note_off_c, 0, 35, 0
2, 114592, Note_on_c, 0, 74, 87
2, 114656, Note_off_c, 0, 74, 0
2, 114684, Note_on_c, 0, 44, 72
2, 114688, Note_on_c, 0, 32, 71
2, 114688, Note_on_c, 0, 85, 78
2, 114724, Note_off_c, 0, 44, 0
2, 114728, Note_off_c, 0, 32, 0
2, 114788, Note_on_c, 0, 80, 85
2, 114800, Note_off_c, 0, 85, 0
2, 114856, Note_on_c, 0, 47, 82
2, 114860, Note_on_c, 0, 35, 66
2, 114872, Note_on_c, 0, 83, 83
2, 114892, Note_off_c, 0, 80, 0
2, 114900, Note_off_c, 0, 47, 0
2, 114900, Note_off_c, 0, 35, 0
2, 114912, Note_off_c, 0, 83, 0
2, 114964, Note_on_c, 0, 86, 84
2, 115040, Note_off_c, 0, 86, 0
2, 115064, Control_c, 0, 64, 104
2, 115072, Note_on_c, 0, 97, 97
2, 115076, Note_on_c, 0, 40, 92
2, 115076, Note_on_c, 0, 28, 86
2, 115076, Control_c, 0, 64, 40
2, 115088, Control_c, 0, 64, 0
2, 115156, Note_off_c, 0, 28, 64
2, 115164, Control_c, 0, 64, 56
2, 115176, Control_c, 0, 64, 127
2, 115180, Note_on_c, 0, 92, 80
2, 115192, Note_off_c, 0, 40, 64
2, 115196, Note_off_c, 0, 97, 64
2, 115280, Note_on_c, 0, 95, 81
2, 115284, Note_off_c, 0, 92, 0
2, 115356, Note_off_c, 0, 95, 0
2, 115364, Note_on_c, 0, 86, 68
2, 115388, Note_off_c, 0, 86, 0
2, 115460, Note_on_c, 0, 85, 83
2, 115524, Note_off_c, 0, 85, 0
2, 115544, Note_on_c, 0, 52, 86
2, 115548, Note_on_c, 0, 40, 69
2, 115552, Note_on_c, 0, 80, 80
2, 115588, Note_off_c, 0, 52, 0
2, 115596, Note_off_c, 0, 40, 0
2, 115632, Note_off_c, 0, 80, 0
2, 115636, Control_c, 0, 64, 72
2, 115644, Note_on_c, 0, 83, 86
2, 115648, Note_on_c, 0, 54, 85
2, 115648, Control_c, 0, 64, 0
2, 115652, Note_on_c, 0, 42, 71
2, 115708, Control_c, 0, 64, 40
2, 115720, Control_c, 0, 64, 104
2, 115728, Note_off_c, 0, 83, 0
2, 115732, Control_c, 0, 64, 127
2, 115736, Note_on_c, 0, 74, 70
2, 115764, Note_off_c, 0, 74, 0
2, 115832, Note_on_c, 0, 73, 77
2, 115904, Note_off_c, 0, 73, 0
2, 115920, Note_on_c, 0, 68, 68
2, 115932, Note_off_c, 0, 54, 0
2, 115996, Note_off_c, 0, 68, 0
2, 116000, Note_off_c, 0, 42, 0
2, 116020, Note_on_c, 0, 71, 72
2, 116092, Note_on_c, 0, 52, 64
2, 116100, Note_off_c, 0, 71, 0
2, 116100, Note_on_c, 0, 40, 51
2, 116104, Note_on_c, 0, 62, 71
2, 116116, Note_off_c, 0, 52, 0
2, 116128, Note_off_c, 0, 40, 0
2, 116172, Note_off_c, 0, 62, 0
2, 116220, Note_on_c, 0, 74, 86
2, 116232, Note_on_c, 0, 51, 78
2, 116232, Control_c, 0, 64, 88
2, 116240, Note_on_c, 0, 39, 65
2, 116244, Control_c, 0, 64, 40
2, 116256, Control_c, 0, 64, 0
2, 116320, Note_on_c, 0, 67, 74
2, 116336, Note_off_c, 0, 74, 0
2, 116340, Control_c, 0, 64, 88
2, 116352, Control_c, 0, 64, 127
2, 116424, Note_on_c, 0, 72, 77
2, 116432, Note_off_c, 0, 67, 0
2, 116492, Note_off_c, 0, 72, 0
2, 116508, Note_on_c, 0, 60, 77
2, 116540, Note_off_c, 0, 51, 0
2, 116556, Note_off_c, 0, 60, 0
2, 116608, Note_off_c, 0, 39, 0
2, 116612, Note_on_c, 0, 77, 87
2, 116700, Note_off_c, 0, 77, 64
2, 116704, Note_on_c, 0, 72, 82
2, 116760, Note_on_c, 0, 48, 77
2, 116760, Control_c, 0, 64, 56
2, 116764, Note_on_c, 0, 36, 61
2, 116768, Note_on_c, 0, 75, 79
2, 116772, Control_c, 0, 64, 0
2, 116784, Note_off_c, 0, 72, 0
2, 116832, Control_c, 0, 64, 40
2, 116844, Note_off_c, 0, 75, 0
2, 116844, Control_c, 0, 64, 88
2, 116848, Note_on_c, 0, 67, 71
2, 116856, Control_c, 0, 64, 127
2, 116904, Note_off_c, 0, 67, 0
2, 116940, Note_on_c, 0, 80, 74
2, 116952, Note_off_c, 0, 36, 0
2, 116988, Note_off_c, 0, 48, 0
2, 116996, Note_off_c, 0, 80, 0
2, 117028, Note_on_c, 0, 75, 77
2, 117104, Note_off_c, 0, 75, 0
2, 117124, Note_on_c, 0, 79, 84
2, 117192, Note_off_c, 0, 79, 0
2, 117220, Note_on_c, 0, 72, 84
2, 117280, Note_off_c, 0, 72, 0
2, 117308, Note_on_c, 0, 84, 92
2, 117320, Control_c, 0, 64, 72
2, 117324, Note_on_c, 0, 51, 85
2, 117324, Note_on_c, 0, 39, 65
2, 117332, Control_c, 0, 64, 24
2, 117344, Control_c, 0, 64, 0
2, 117392, Control_c, 0, 64, 24
2, 117400, Control_c, 0, 64, 72
2, 117408, Note_on_c, 0, 79, 82
2, 117416, Control_c, 0, 64, 127
2, 117424, Note_off_c, 0, 84, 0
2, 117488, Note_on_c, 0, 83, 73
2, 117496, Note_off_c, 0, 79, 0
2, 117564, Note_off_c, 0, 83, 0
2, 117568, Note_on_c, 0, 75, 72
2, 117644, Note_off_c, 0, 75, 0
2, 117672, Note_on_c, 0, 82, 71
2, 117688, Note_off_c, 0, 39, 0
2, 117728, Note_off_c, 0, 51, 0
2, 117740, Note_off_c, 0, 82, 0
2, 117764, Note_on_c, 0, 79, 81
2, 117828, Note_off_c, 0, 79, 0
2, 117828, Control_c, 0, 64, 104
2, 117840, Control_c, 0, 64, 40
2, 117848, Note_on_c, 0, 81, 81
2, 117852, Control_c, 0, 64, 0
2, 117868, Note_on_c, 0, 53, 72
2, 117872, Note_on_c, 0, 41, 66
2, 117912, Control_c, 0, 64, 40
2, 117924, Control_c, 0, 64, 88
2, 117936, Control_c, 0, 64, 127
2, 117944, Note_on_c, 0, 75, 79
2, 117956, Note_off_c, 0, 81, 0
2, 117956, Note_off_c, 0, 53, 0
2, 117956, Note_off_c, 0, 41, 0
2, 118024, Note_off_c, 0, 75, 0
2, 118036, Note_on_c, 0, 80, 77
2, 118052, Note_on_c, 0, 54, 77
2, 118052, Note_on_c, 0, 42, 71
2, 118104, Note_off_c, 0, 42, 0
2, 118128, Note_on_c, 0, 75, 73
2, 118132, Note_off_c, 0, 80, 0
2, 118156, Note_off_c, 0, 54, 0
2, 118220, Note_on_c, 0, 79, 86
2, 118228, Note_off_c, 0, 75, 64
2, 118232, Note_on_c, 0, 55, 82
2, 118236, Note_on_c, 0, 43, 70
2, 118260, Note_off_c, 0, 43, 0
2, 118308, Note_off_c, 0, 79, 0
2, 118312, Note_off_c, 0, 55, 0
2, 118312, Note_on_c, 0, 72, 82
2, 118376, Note_off_c, 0, 72, 0
2, 118404, Note_on_c, 0, 77, 90
2, 118416, Note_on_c, 0, 56, 86
2, 118420, Note_on_c, 0, 44, 72
2, 118420, Control_c, 0, 64, 104
2, 118436, Control_c, 0, 64, 72
2, 118448, Control_c, 0, 64, 40
2, 118460, Control_c, 0, 64, 0
2, 118504, Note_on_c, 0, 72, 78
2, 118520, Note_off_c, 0, 77, 0
2, 118556, Control_c, 0, 64, 24
2, 118568, Control_c, 0, 64, 88
2, 118584, Control_c, 0, 64, 127
2, 118592, Note_on_c, 0, 75, 67
2, 118596, Note_off_c, 0, 72, 0
2, 118668, Note_off_c, 0, 75, 0
2, 118676, Note_on_c, 0, 66, 72
2, 118688, Note_off_c, 0, 56, 0
2, 118708, Note_off_c, 0, 44, 0
2, 118748, Note_off_c, 0, 66, 0
2, 118776, Note_on_c, 0, 77, 86
2, 118864, Note_on_c, 0, 72, 78
2, 118880, Note_off_c, 0, 77, 0
2, 118944, Note_on_c, 0, 75, 73
2, 118960, Note_off_c, 0, 72, 0
2, 118964, Note_on_c, 0, 51, 79
2, 118968, Note_on_c, 0, 39, 65
2, 118988, Note_off_c, 0, 75, 0
2, 119020, Note_off_c, 0, 51, 0
2, 119036, Note_on_c, 0, 78, 80
2, 119096, Note_off_c, 0, 39, 0
2, 119096, Note_off_c, 0, 78, 0
2, 119132, Note_on_c, 0, 89, 90
2, 119148, Note_on_c, 0, 48, 90
2, 119152, Note_on_c, 0, 36, 75
2, 119184, Note_off_c, 0, 36, 0
2, 119188, Note_off_c, 0, 48, 0
2, 119224, Note_on_c, 0, 84, 87
2, 119236, Note_off_c, 0, 89, 0
2, 119300, Note_on_c, 0, 51, 96
2, 119304, Note_on_c, 0, 87, 80
2, 119304, Note_on_c, 0, 39, 78
2, 119316, Note_off_c, 0, 84, 0
2, 119332, Note_off_c, 0, 51, 0
2, 119340, Note_off_c, 0, 39, 0
2, 119344, Note_off_c, 0, 87, 0
2, 119392, Note_on_c, 0, 90, 84
2, 119468, Note_off_c, 0, 90, 0
2, 119512, Note_on_c, 0, 101, 90
2, 119516, Control_c, 0, 64, 88
2, 119520, Note_on_c, 0, 44, 103
2, 119520, Note_on_c, 0, 32, 90
2, 119528, Control_c, 0, 64, 40
2, 119540, Control_c, 0, 64, 0
2, 119616, Note_on_c, 0, 96, 83
2, 119624, Control_c, 0, 64, 72
2, 119636, Note_off_c, 0, 101, 0
2, 119640, Control_c, 0, 64, 127
2, 119676, Note_off_c, 0, 32, 0
2, 119696, Note_off_c, 0, 44, 0
2, 119716, Note_on_c, 0, 99, 77
2, 119732, Note_off_c, 0, 96, 64
2, 119792, Note_off_c, 0, 99, 0
2, 119800, Note_on_c, 0, 90, 60
2, 119820, Note_off_c, 0, 90, 0
2, 119896, Note_on_c, 0, 89, 72
2, 119956, Note_off_c, 0, 89, 0
2, 119988, Note_on_c, 0, 56, 78
2, 119992, Note_on_c, 0, 44, 77
2, 119992, Note_on_c, 0, 84, 74
2, 120028, Note_off_c, 0, 56, 0
2, 120036, Note_off_c, 0, 44, 0
2, 120088, Note_on_c, 0, 87, 75
2, 120088, Note_on_c, 0, 58, 84
2, 120088, Control_c, 0, 64, 88
2, 120096, Note_on_c, 0, 46, 72
2, 120100, Control_c, 0, 64, 40
2, 120112, Control_c, 0, 64, 0
2, 120132, Note_off_c, 0, 84, 0
2, 120160, Control_c, 0, 64, 56
2, 120172, Control_c, 0, 64, 127
2, 120176, Note_on_c, 0, 78, 72
2, 120188, Note_off_c, 0, 87, 0
2, 120216, Note_off_c, 0, 78, 0
2, 120280, Note_on_c, 0, 77, 84
2, 120300, Note_off_c, 0, 58, 0
2, 120328, Note_off_c, 0, 46, 0
2, 120348, Note_off_c, 0, 77, 0
2, 120372, Note_on_c, 0, 72, 82
2, 120452, Note_off_c, 0, 72, 0
2, 120456, Note_on_c, 0, 75, 73
2, 120540, Note_off_c, 0, 75, 0
2, 120540, Note_on_c, 0, 56, 78
2, 120548, Note_on_c, 0, 44, 72
2, 120560, Note_on_c, 0, 66, 72
2, 120584, Note_off_c, 0, 56, 0
2, 120592, Note_off_c, 0, 44, 0
2, 120620, Note_off_c, 0, 66, 0
2, 120640, Note_on_c, 0, 55, 88
2, 120644, Note_on_c, 0, 43, 86
2, 120652, Note_on_c, 0, 78, 85
2, 120656, Control_c, 0, 64, 104
2, 120668, Control_c, 0, 64, 56
2, 120680, Control_c, 0, 64, 0
2, 120740, Note_off_c, 0, 78, 0
2, 120748, Note_on_c, 0, 71, 74
2, 120768, Control_c, 0, 64, 72
2, 120780, Control_c, 0, 64, 127
2, 120832, Note_off_c, 0, 71, 0
2, 120860, Note_on_c, 0, 76, 68
2, 120920, Note_off_c, 0, 55, 0
2, 120924, Note_off_c, 0, 76, 0
2, 120940, Note_on_c, 0, 64, 65
2, 120948, Note_off_c, 0, 43, 0
2, 120984, Note_off_c, 0, 64, 0
2, 121044, Note_on_c, 0, 81, 83
2, 121116, Note_off_c, 0, 81, 0
2, 121140, Note_on_c, 0, 76, 74
2, 121200, Note_on_c, 0, 52, 82
2, 121204, Note_on_c, 0, 40, 83
2, 121204, Control_c, 0, 64, 88
2, 121216, Control_c, 0, 64, 24
2, 121220, Note_on_c, 0, 79, 75
2, 121228, Control_c, 0, 64, 0
2, 121232, Note_off_c, 0, 76, 0
2, 121292, Control_c, 0, 64, 72
2, 121296, Note_off_c, 0, 79, 64
2, 121304, Control_c, 0, 64, 127
2, 121308, Note_on_c, 0, 71, 72
2, 121360, Note_off_c, 0, 71, 0
2, 121400, Note_on_c, 0, 84, 82
2, 121480, Note_off_c, 0, 84, 0
2, 121488, Note_off_c, 0, 40, 64
2, 121492, Note_on_c, 0, 79, 74
2, 121516, Note_off_c, 0, 52, 64
2, 121568, Note_off_c, 0, 79, 0
2, 121576, Note_on_c, 0, 83, 65
2, 121628, Note_off_c, 0, 83, 0
2, 121652, Note_on_c, 0, 76, 79
2, 121716, Note_off_c, 0, 76, 0
2, 121756, Note_on_c, 0, 88, 90
2, 121768, Note_on_c, 0, 55, 82
2, 121772, Note_on_c, 0, 43, 82
2, 121776, Control_c, 0, 64, 88
2, 121788, Control_c, 0, 64, 24
2, 121800, Control_c, 0, 64, 0
2, 121860, Note_off_c, 0, 88, 0
2, 121860, Control_c, 0, 64, 56
2, 121864, Note_on_c, 0, 83, 76
2, 121872, Control_c, 0, 64, 127
2, 121948, Note_off_c, 0, 83, 0
2, 121948, Note_on_c, 0, 87, 69
2, 122040, Note_off_c, 0, 87, 0
2, 122056, Note_on_c, 0, 79, 66
2, 122076, Note_off_c, 0, 43, 0
2, 122120, Note_off_c, 0, 55, 0
2, 122128, Note_off_c, 0, 79, 0
2, 122136, Note_on_c, 0, 86, 81
2, 122220, Note_off_c, 0, 86, 0
2, 122236, Note_on_c, 0, 83, 80
2, 122284, Control_c, 0, 64, 88
2, 122296, Control_c, 0, 64, 24
2, 122304, Note_off_c, 0, 83, 0
2, 122312, Control_c, 0, 64, 0
2, 122324, Note_on_c, 0, 85, 77
2, 122336, Note_on_c, 0, 57, 78
2, 122344, Note_on_c, 0, 45, 70
2, 122372, Control_c, 0, 64, 56
2, 122384, Control_c, 0, 64, 104
2, 122392, Note_off_c, 0, 45, 0
2, 122396, Control_c, 0, 64, 127
2, 122400, Note_off_c, 0, 57, 0
2, 122424, Note_on_c, 0, 79, 81
2, 122428, Note_off_c, 0, 85, 0
2, 122504, Note_off_c, 0, 79, 0
2, 122516, Note_on_c, 0, 84, 84
2, 122528, Note_on_c, 0, 58, 79
2, 122536, Note_on_c, 0, 46, 72
2, 122592, Note_off_c, 0, 58, 0
2, 122592, Note_off_c, 0, 46, 0
2, 122604, Note_on_c, 0, 79, 82
2, 122608, Note_off_c, 0, 84, 0
2, 122692, Note_on_c, 0, 83, 80
2, 122696, Note_off_c, 0, 79, 0
2, 122708, Note_on_c, 0, 59, 81
2, 122708, Note_on_c, 0, 47, 76
2, 122756, Note_off_c, 0, 47, 0
2, 122776, Note_off_c, 0, 83, 0
2, 122784, Note_off_c, 0, 59, 64
2, 122788, Note_on_c, 0, 76, 78
2, 122872, Note_off_c, 0, 76, 0
2, 122892, Note_on_c, 0, 82, 78
2, 122892, Control_c, 0, 64, 72
2, 122900, Note_on_c, 0, 60, 84
2, 122904, Note_on_c, 0, 48, 79
2, 122904, Control_c, 0, 64, 0
2, 122976, Control_c, 0, 64, 40
2, 122988, Control_c, 0, 64, 104
2, 122996, Note_off_c, 0, 82, 0
2, 123000, Note_on_c, 0, 76, 73
2, 123000, Control_c, 0, 64, 127
2, 123008, Note_off_c, 0, 60, 0
2, 123044, Note_off_c, 0, 48, 0
2, 123084, Note_off_c, 0, 76, 0
2, 123084, Note_on_c, 0, 81, 73
2, 123164, Note_off_c, 0, 81, 0
2, 123172, Note_on_c, 0, 70, 64
2, 123260, Note_off_c, 0, 70, 0
2, 123268, Note_on_c, 0, 80, 79
2, 123316, Control_c, 0, 64, 72
2, 123328, Control_c, 0, 64, 0
2, 123352, Note_off_c, 0, 80, 0
2, 123360, Note_on_c, 0, 36, 67
2, 123364, Note_on_c, 0, 76, 73
2, 123384, Note_on_c, 0, 43, 60
2, 123404, Control_c, 0, 64, 40
2, 123416, Note_off_c, 0, 36, 0
2, 123416, Control_c, 0, 64, 104
2, 123428, Control_c, 0, 64, 127
2, 123448, Note_off_c, 0, 76, 0
2, 123448, Note_off_c, 0, 43, 0
2, 123464, Note_on_c, 0, 79, 84
2, 123476, Note_on_c, 0, 52, 73
2, 123528, Note_off_c, 0, 52, 0
2, 123552, Note_off_c, 0, 79, 0
2, 123556, Note_on_c, 0, 70, 64
2, 123648, Note_off_c, 0, 70, 0
2, 123648, Note_on_c, 0, 81, 84
2, 123732, Note_off_c, 0, 81, 0
2, 123756, Note_on_c, 0, 76, 74
2, 123828, Note_off_c, 0, 76, 0
2, 123840, Note_on_c, 0, 79, 79
2, 123888, Control_c, 0, 64, 88
2, 123900, Control_c, 0, 64, 0
2, 123916, Note_on_c, 0, 70, 69
2, 123920, Note_off_c, 0, 79, 0
2, 123924, Note_on_c, 0, 41, 67
2, 123944, Note_on_c, 0, 48, 66
2, 123960, Control_c, 0, 64, 56
2, 123972, Note_off_c, 0, 70, 0
2, 123972, Control_c, 0, 64, 127
2, 123984, Note_off_c, 0, 41, 0
2, 124000, Note_off_c, 0, 48, 0
2, 124028, Note_on_c, 0, 79, 77
2, 124032, Note_on_c, 0, 57, 74
2, 124080, Note_off_c, 0, 57, 0
2, 124088, Note_off_c, 0, 79, 0
2, 124112, Note_on_c, 0, 72, 77
2, 124180, Note_off_c, 0, 72, 0
2, 124200, Note_on_c, 0, 78, 82
2, 124288, Note_off_c, 0, 78, 0
2, 124288, Note_on_c, 0, 69, 71
2, 124380, Note_off_c, 0, 69, 64
2, 124384, Note_on_c, 0, 77, 85
2, 124456, Control_c, 0, 64, 72
2, 124468, Note_on_c, 0, 72, 80
2, 124472, Control_c, 0, 64, 0
2, 124476, Note_off_c, 0, 77, 0
2, 124492, Note_on_c, 0, 35, 70
2, 124536, Note_off_c, 0, 35, 0
2, 124544, Control_c, 0, 64, 72
2, 124548, Note_off_c, 0, 72, 0
2, 124556, Control_c, 0, 64, 127
2, 124576, Note_on_c, 0, 78, 81
2, 124592, Note_on_c, 0, 51, 77
2, 124636, Note_off_c, 0, 51, 0
2, 124676, Note_on_c, 0, 69, 71
2, 124700, Note_off_c, 0, 78, 0
2, 124768, Note_off_c, 0, 69, 0
2, 124776, Note_on_c, 0, 79, 81
2, 124864, Note_off_c, 0, 79, 0
2, 124864, Note_on_c, 0, 71, 69
2, 124932, Note_off_c, 0, 71, 0
2, 124956, Note_on_c, 0, 78, 71
2, 125032, Note_on_c, 0, 69, 62
2, 125036, Note_off_c, 0, 78, 0
2, 125056, Control_c, 0, 64, 104
2, 125068, Control_c, 0, 64, 40
2, 125080, Control_c, 0, 64, 0
2, 125092, Note_on_c, 0, 40, 68
2, 125112, Note_off_c, 0, 69, 0
2, 125116, Note_on_c, 0, 47, 66
2, 125136, Control_c, 0, 64, 40
2, 125144, Note_off_c, 0, 40, 0
2, 125148, Note_on_c, 0, 78, 82
2, 125152, Control_c, 0, 64, 127
2, 125160, Note_off_c, 0, 47, 0
2, 125176, Note_on_c, 0, 55, 79
2, 125220, Note_off_c, 0, 55, 0
2, 125240, Note_off_c, 0, 78, 0
2, 125252, Note_on_c, 0, 67, 68
2, 125316, Note_off_c, 0, 67, 0
2, 125344, Note_on_c, 0, 77, 82
2, 125428, Note_off_c, 0, 77, 0
2, 125440, Note_on_c, 0, 71, 66
2, 125512, Note_off_c, 0, 71, 0
2, 125540, Note_on_c, 0, 76, 77
2, 125616, Note_off_c, 0, 76, 0
2, 125620, Note_on_c, 0, 67, 70
2, 125624, Control_c, 0, 64, 88
2, 125636, Control_c, 0, 64, 0
2, 125652, Note_on_c, 0, 45, 69
2, 125688, Note_on_c, 0, 52, 70
2, 125696, Note_off_c, 0, 45, 0
2, 125696, Control_c, 0, 64, 40
2, 125700, Note_off_c, 0, 67, 0
2, 125708, Control_c, 0, 64, 127
2, 125732, Note_off_c, 0, 52, 0
2, 125732, Note_on_c, 0, 76, 85
2, 125752, Note_on_c, 0, 61, 75
2, 125788, Note_off_c, 0, 61, 0
2, 125816, Note_off_c, 0, 76, 0
2, 125840, Note_on_c, 0, 67, 74
2, 125908, Note_off_c, 0, 67, 64
2, 125932, Note_on_c, 0, 77, 88
2, 125996, Note_off_c, 0, 77, 0
2, 126004, Note_on_c, 0, 69, 78
2, 126084, Note_off_c, 0, 69, 0
2, 126104, Note_on_c, 0, 76, 79
2, 126176, Note_on_c, 0, 67, 66
2, 126184, Note_off_c, 0, 76, 0
2, 126232, Note_on_c, 0, 50, 70
2, 126232, Control_c, 0, 64, 72
2, 126244, Control_c, 0, 64, 0
2, 126248, Note_off_c, 0, 67, 0
2, 126248, Note_on_c, 0, 57, 63
2, 126284, Note_on_c, 0, 76, 82
2, 126292, Note_off_c, 0, 50, 0
2, 126304, Note_on_c, 0, 62, 77
2, 126316, Control_c, 0, 64, 88
2, 126328, Control_c, 0, 64, 127
2, 126344, Note_off_c, 0, 57, 0
2, 126360, Note_off_c, 0, 62, 0
2, 126376, Note_on_c, 0, 69, 65
2, 126384, Note_off_c, 0, 76, 0
2, 126468, Note_off_c, 0, 69, 0
2, 126472, Note_on_c, 0, 73, 68
2, 126552, Note_on_c, 0, 65, 63
2, 126572, Note_off_c, 0, 73, 0
2, 126656, Note_off_c, 0, 65, 0
2, 126664, Note_on_c, 0, 74, 81
2, 126748, Note_off_c, 0, 74, 0
2, 126760, Note_on_c, 0, 69, 71
2, 126824, Control_c, 0, 64, 104
2, 126832, Note_off_c, 0, 69, 0
2, 126836, Note_on_c, 0, 45, 68
2, 126836, Control_c, 0, 64, 40
2, 126848, Control_c, 0, 64, 0
2, 126852, Note_on_c, 0, 52, 69
2, 126856, Note_on_c, 0, 74, 86
2, 126884, Note_off_c, 0, 45, 0
2, 126896, Control_c, 0, 64, 56
2, 126908, Note_off_c, 0, 52, 0
2, 126912, Note_on_c, 0, 60, 74
2, 126912, Control_c, 0, 64, 127
2, 126952, Note_off_c, 0, 60, 0
2, 126960, Note_on_c, 0, 64, 75
2, 126964, Note_off_c, 0, 74, 0
2, 127064, Note_on_c, 0, 71, 75
2, 127108, Note_off_c, 0, 64, 0
2, 127148, Note_off_c, 0, 71, 0
2, 127148, Note_on_c, 0, 69, 70
2, 127244, Note_off_c, 0, 69, 0
2, 127252, Note_on_c, 0, 72, 79
2, 127340, Note_off_c, 0, 72, 0
2, 127344, Note_on_c, 0, 64, 68
2, 127416, Note_off_c, 0, 64, 64
2, 127464, Note_on_c, 0, 72, 85
2, 127476, Note_on_c, 0, 50, 59
2, 127480, Note_on_c, 0, 38, 47
2, 127548, Control_c, 0, 64, 56
2, 127560, Control_c, 0, 64, 104
2, 127564, Note_on_c, 0, 69, 72
2, 127568, Control_c, 0, 64, 127
2, 127584, Note_off_c, 0, 72, 0
2, 127640, Note_off_c, 0, 69, 0
2, 127652, Note_off_c, 0, 38, 0
2, 127652, Note_on_c, 0, 71, 74
2, 127676, Note_off_c, 0, 50, 0
2, 127724, Note_off_c, 0, 71, 0
2, 127744, Note_on_c, 0, 65, 80
2, 127820, Note_off_c, 0, 65, 0
2, 127848, Note_on_c, 0, 72, 88
2, 127936, Note_on_c, 0, 69, 81
2, 127960, Note_off_c, 0, 72, 0
2, 128020, Note_on_c, 0, 71, 82
2, 128040, Note_off_c, 0, 69, 0
2, 128044, Note_on_c, 0, 65, 71
2, 128056, Note_on_c, 0, 53, 61
2, 128060, Note_off_c, 0, 71, 0
2, 128124, Note_off_c, 0, 65, 0
2, 128124, Note_on_c, 0, 74, 84
2, 128140, Note_off_c, 0, 53, 0
2, 128208, Note_off_c, 0, 74, 0
2, 128220, Note_on_c, 0, 84, 88
2, 128308, Note_on_c, 0, 81, 69
2, 128340, Note_off_c, 0, 84, 0
2, 128396, Note_on_c, 0, 83, 80
2, 128416, Note_off_c, 0, 81, 0
2, 128440, Note_off_c, 0, 83, 0
2, 128484, Note_on_c, 0, 86, 82
2, 128584, Note_off_c, 0, 86, 0
2, 128596, Note_on_c, 0, 96, 88
2, 128608, Note_on_c, 0, 58, 67
2, 128612, Note_on_c, 0, 46, 64
2, 128692, Note_off_c, 0, 96, 0
2, 128692, Note_on_c, 0, 93, 93
2, 128772, Note_off_c, 0, 93, 0
2, 128792, Note_on_c, 0, 95, 82
2, 128812, Note_off_c, 0, 46, 0
2, 128856, Note_off_c, 0, 58, 0
2, 128884, Note_on_c, 0, 89, 86
2, 128888, Note_off_c, 0, 95, 0
2, 128972, Note_on_c, 0, 84, 83
2, 128976, Note_off_c, 0, 89, 64
2, 129028, Note_off_c, 0, 84, 0
2, 129056, Note_on_c, 0, 60, 68
2, 129064, Note_on_c, 0, 48, 62
2, 129072, Note_on_c, 0, 81, 74
2, 129076, Note_off_c, 0, 60, 0
2, 129084, Note_off_c, 0, 48, 0
2, 129128, Note_off_c, 0, 81, 0
2, 129156, Note_on_c, 0, 59, 75
2, 129164, Note_on_c, 0, 47, 72
2, 129164, Note_on_c, 0, 83, 90
2, 129180, Control_c, 0, 64, 56
2, 129192, Control_c, 0, 64, 0
2, 129248, Control_c, 0, 64, 24
2, 129264, Control_c, 0, 64, 88
2, 129268, Note_on_c, 0, 77, 88
2, 129272, Note_off_c, 0, 83, 0
2, 129276, Control_c, 0, 64, 127
2, 129348, Note_on_c, 0, 72, 76
2, 129356, Note_off_c, 0, 77, 0
2, 129428, Note_off_c, 0, 72, 0
2, 129440, Note_on_c, 0, 69, 77
2, 129504, Note_off_c, 0, 69, 0
2, 129508, Note_off_c, 0, 59, 0
2, 129532, Note_on_c, 0, 71, 80
2, 129540, Note_off_c, 0, 47, 0
2, 129600, Note_off_c, 0, 71, 0
2, 129628, Note_on_c, 0, 65, 80
2, 129672, Note_off_c, 0, 65, 0
2, 129780, Note_on_c, 0, 51, 76
2, 129780, Note_on_c, 0, 39, 61
2, 129784, Note_on_c, 0, 71, 70
2, 129816, Control_c, 0, 64, 88
2, 129828, Control_c, 0, 64, 56
2, 129840, Control_c, 0, 64, 0
2, 129880, Note_on_c, 0, 66, 67
2, 129908, Note_off_c, 0, 71, 0
2, 129932, Control_c, 0, 64, 56
2, 129944, Control_c, 0, 64, 127
2, 129960, Note_off_c, 0, 66, 0
2, 129968, Note_on_c, 0, 69, 71
2, 130040, Note_off_c, 0, 69, 0
2, 130048, Note_off_c, 0, 39, 0
2, 130052, Note_on_c, 0, 60, 77
2, 130064, Note_off_c, 0, 51, 0
2, 130152, Note_on_c, 0, 71, 74
2, 130156, Note_off_c, 0, 60, 0
2, 130228, Note_on_c, 0, 66, 65
2, 130272, Note_off_c, 0, 71, 0
2, 130292, Note_off_c, 0, 66, 0
2, 130304, Note_on_c, 0, 69, 66
2, 130324, Note_off_c, 0, 69, 0
2, 130328, Note_on_c, 0, 66, 88
2, 130332, Note_on_c, 0, 54, 74
2, 130424, Note_on_c, 0, 72, 73
2, 130492, Note_off_c, 0, 66, 64
2, 130516, Note_on_c, 0, 83, 79
2, 130524, Note_off_c, 0, 54, 64
2, 130528, Note_off_c, 0, 72, 64
2, 130596, Note_on_c, 0, 78, 69
2, 130632, Note_off_c, 0, 83, 0
2, 130672, Note_on_c, 0, 81, 55
2, 130676, Note_off_c, 0, 78, 0
2, 130704, Note_off_c, 0, 81, 0
2, 130772, Note_on_c, 0, 84, 83
2, 130880, Note_on_c, 0, 57, 74
2, 130880, Note_on_c, 0, 95, 83
2, 130880, Note_on_c, 0, 45, 76
2, 130884, Note_off_c, 0, 84, 0
2, 130944, Note_off_c, 0, 45, 0
2, 130968, Note_on_c, 0, 90, 69
2, 130980, Note_off_c, 0, 57, 0
2, 130984, Note_off_c, 0, 95, 0
2, 131064, Note_off_c, 0, 90, 0
2, 131064, Note_on_c, 0, 93, 77
2, 131140, Note_off_c, 0, 93, 0
2, 131152, Note_on_c, 0, 84, 73
2, 131184, Note_off_c, 0, 84, 0
2, 131252, Note_on_c, 0, 83, 78
2, 131320, Note_on_c, 0, 62, 75
2, 131328, Note_on_c, 0, 50, 70
2, 131352, Note_off_c, 0, 50, 0
2, 131352, Note_on_c, 0, 78, 65
2, 131364, Note_off_c, 0, 62, 0
2, 131372, Note_off_c, 0, 83, 0
2, 131432, Note_off_c, 0, 78, 0
2, 131444, Note_on_c, 0, 81, 75
2, 131456, Note_on_c, 0, 60, 73
2, 131468, Note_on_c, 0, 48, 72
2, 131492, Control_c, 0, 64, 104
2, 131508, Control_c, 0, 64, 40
2, 131520, Control_c, 0, 64, 0
2, 131548, Note_on_c, 0, 72, 75
2, 131556, Note_off_c, 0, 81, 0
2, 131556, Control_c, 0, 64, 104
2, 131564, Control_c, 0, 64, 127
2, 131596, Note_off_c, 0, 72, 0
2, 131660, Note_on_c, 0, 71, 55
2, 131744, Note_off_c, 0, 60, 0
2, 131748, Note_on_c, 0, 66, 60
2, 131756, Note_off_c, 0, 48, 0
2, 131776, Note_off_c, 0, 71, 0
2, 131824, Note_off_c, 0, 66, 0
2, 131848, Note_on_c, 0, 69, 64
2, 131912, Note_off_c, 0, 69, 0
2, 131952, Note_on_c, 0, 60, 60
2, 132040, Note_off_c, 0, 60, 64
2, 132092, Note_on_c, 0, 40, 54
2, 132112, Note_on_c, 0, 69, 80
2, 132128, Control_c, 0, 64, 104
2, 132140, Control_c, 0, 64, 56
2, 132152, Control_c, 0, 64, 0
2, 132164, Note_on_c, 0, 52, 71
2, 132224, Note_on_c, 0, 64, 70
2, 132224, Control_c, 0, 64, 56
2, 132236, Control_c, 0, 64, 127
2, 132244, Note_off_c, 0, 40, 0
2, 132248, Note_off_c, 0, 69, 0
2, 132320, Note_off_c, 0, 64, 0
2, 132328, Note_on_c, 0, 68, 61
2, 132368, Note_off_c, 0, 68, 0
2, 132380, Note_off_c, 0, 52, 0
2, 132444, Note_on_c, 0, 71, 61
2, 132484, Note_off_c, 0, 71, 0
2, 132524, Note_on_c, 0, 81, 79
2, 132608, Note_on_c, 0, 76, 75
2, 132632, Note_off_c, 0, 81, 0
2, 132700, Note_on_c, 0, 80, 70
2, 132708, Note_off_c, 0, 76, 0
2, 132720, Note_on_c, 0, 59, 63
2, 132748, Note_off_c, 0, 80, 0
2, 132800, Note_on_c, 0, 83, 78
2, 132900, Note_on_c, 0, 93, 84
2, 132936, Note_off_c, 0, 83, 0
2, 132992, Note_off_c, 0, 93, 0
2, 132992, Note_on_c, 0, 88, 70
2, 133064, Note_off_c, 0, 88, 0
2, 133076, Note_on_c, 0, 92, 80
2, 133156, Note_off_c, 0, 92, 0
2, 133168, Note_on_c, 0, 83, 73
2, 133176, Note_on_c, 0, 64, 60
2, 133232, Note_off_c, 0, 64, 0
2, 133268, Note_on_c, 0, 92, 81
2, 133272, Note_on_c, 0, 62, 66
2, 133316, Note_off_c, 0, 59, 0
2, 133316, Note_off_c, 0, 83, 0
2, 133356, Note_on_c, 0, 86, 75
2, 133368, Note_off_c, 0, 92, 0
2, 133460, Note_on_c, 0, 90, 67
2, 133492, Note_off_c, 0, 86, 0
2, 133528, Note_on_c, 0, 83, 75
2, 133536, Note_off_c, 0, 90, 64
2, 133576, Note_off_c, 0, 83, 0
2, 133624, Note_on_c, 0, 80, 69
2, 133712, Note_off_c, 0, 62, 64
2, 133712, Note_on_c, 0, 74, 71
2, 133724, Note_off_c, 0, 80, 0
2, 133804, Note_on_c, 0, 78, 62
2, 133820, Note_off_c, 0, 74, 0
2, 133868, Note_off_c, 0, 78, 0
2, 133888, Note_on_c, 0, 71, 60
2, 133924, Note_off_c, 0, 71, 0
2, 133972, Note_on_c, 0, 68, 65
2, 134064, Note_on_c, 0, 62, 51
2, 134080, Note_off_c, 0, 68, 0
2, 134156, Note_off_c, 0, 62, 0
2, 134156, Note_on_c, 0, 66, 53
2, 134228, Note_off_c, 0, 66, 0
2, 134256, Note_on_c, 0, 59, 56
2, 134348, Note_off_c, 0, 59, 0
2, 134400, Note_on_c, 0, 66, 62
2, 134416, Note_on_c, 0, 28, 57
2, 134444, Control_c, 0, 64, 72
2, 134452, Note_on_c, 0, 40, 55
2, 134456, Control_c, 0, 64, 0
2, 134504, Note_on_c, 0, 61, 57
2, 134528, Control_c, 0, 64, 72
2, 134540, Note_off_c, 0, 66, 0
2, 134540, Control_c, 0, 64, 127
2, 134600, Note_on_c, 0, 64, 63
2, 134608, Note_off_c, 0, 61, 0
2, 134612, Note_off_c, 0, 28, 0
2, 134628, Note_off_c, 0, 64, 0
2, 134672, Note_off_c, 0, 40, 0
2, 134700, Note_on_c, 0, 68, 69
2, 134784, Note_off_c, 0, 68, 0
2, 134796, Note_on_c, 0, 78, 73
2, 134880, Note_on_c, 0, 73, 67
2, 134912, Note_off_c, 0, 78, 0
2, 134972, Note_on_c, 0, 56, 64
2, 134972, Note_on_c, 0, 76, 69
2, 134976, Note_off_c, 0, 73, 0
2, 135000, Note_off_c, 0, 76, 0
2, 135068, Note_on_c, 0, 80, 60
2, 135152, Note_off_c, 0, 80, 0
2, 135164, Note_on_c, 0, 90, 73
2, 135260, Note_on_c, 0, 85, 61
2, 135272, Note_off_c, 0, 90, 0
2, 135328, Note_on_c, 0, 88, 70
2, 135332, Note_off_c, 0, 85, 0
2, 135408, Note_off_c, 0, 88, 0
2, 135420, Note_on_c, 0, 80, 73
2, 135432, Note_on_c, 0, 61, 56
2, 135464, Note_off_c, 0, 56, 64
2, 135504, Note_off_c, 0, 61, 0
2, 135520, Note_off_c, 0, 80, 0
2, 135536, Note_on_c, 0, 88, 85
2, 135548, Note_on_c, 0, 59, 67
2, 135628, Note_on_c, 0, 83, 70
2, 135636, Note_off_c, 0, 88, 0
2, 135644, Note_off_c, 0, 59, 0
2, 135728, Note_on_c, 0, 86, 64
2, 135744, Note_off_c, 0, 83, 0
2, 135804, Note_off_c, 0, 86, 0
2, 135808, Note_on_c, 0, 78, 65
2, 135844, Note_off_c, 0, 78, 0
2, 135908, Note_on_c, 0, 76, 72
2, 135988, Note_on_c, 0, 71, 69
2, 135996, Note_off_c, 0, 76, 0
2, 136072, Note_off_c, 0, 71, 0
2, 136084, Note_on_c, 0, 74, 62
2, 136148, Note_off_c, 0, 74, 0
2, 136264, Note_on_c, 0, 64, 59
2, 136348, Note_on_c, 0, 59, 62
2, 136360, Note_off_c, 0, 64, 0
2, 136420, Note_off_c, 0, 59, 0
2, 136436, Note_on_c, 0, 62, 56
2, 136504, Note_off_c, 0, 62, 0
2, 136532, Note_on_c, 0, 54, 49
2, 136608, Note_off_c, 0, 54, 64
2, 136688, Note_on_c, 0, 61, 57
2, 136712, Note_on_c, 0, 40, 42
2, 136724, Note_on_c, 0, 28, 33
2, 136760, Note_on_c, 0, 56, 36
2, 136760, Control_c, 0, 64, 72
2, 136772, Control_c, 0, 64, 0
2, 136776, Note_off_c, 0, 61, 0
2, 136856, Control_c, 0, 64, 88
2, 136868, Note_off_c, 0, 56, 0
2, 136868, Control_c, 0, 64, 127
2, 136872, Note_on_c, 0, 59, 55
2, 136944, Note_off_c, 0, 59, 0
2, 136952, Note_off_c, 0, 28, 0
2, 136960, Note_on_c, 0, 53, 61
2, 136984, Note_off_c, 0, 40, 0
2, 137024, Note_off_c, 0, 53, 0
2, 137056, Note_on_c, 0, 64, 68
2, 137148, Note_on_c, 0, 59, 63
2, 137172, Note_off_c, 0, 64, 0
2, 137240, Note_on_c, 0, 62, 59
2, 137244, Note_on_c, 0, 53, 81
2, 137248, Note_off_c, 0, 59, 0
2, 137336, Note_off_c, 0, 62, 0
2, 137352, Note_on_c, 0, 56, 48
2, 137404, Note_off_c, 0, 56, 0
2, 137484, Note_on_c, 0, 67, 66
2, 137584, Note_on_c, 0, 62, 69
2, 137588, Note_off_c, 0, 67, 0
2, 137644, Note_off_c, 0, 53, 0
2, 137664, Note_on_c, 0, 65, 66
2, 137676, Note_off_c, 0, 62, 0
2, 137736, Note_off_c, 0, 65, 0
2, 137740, Note_on_c, 0, 59, 66
2, 137760, Note_on_c, 0, 53, 81
2, 137800, Note_off_c, 0, 53, 0
2, 137808, Note_off_c, 0, 59, 0
2, 137840, Note_on_c, 0, 69, 82
2, 137848, Note_on_c, 0, 53, 82
2, 137928, Note_on_c, 0, 65, 63
2, 137944, Note_off_c, 0, 69, 0
2, 138032, Note_on_c, 0, 68, 57
2, 138044, Note_off_c, 0, 65, 0
2, 138116, Note_off_c, 0, 68, 0
2, 138132, Note_on_c, 0, 62, 66
2, 138204, Note_off_c, 0, 62, 0
2, 138212, Note_on_c, 0, 72, 86
2, 138296, Note_on_c, 0, 68, 64
2, 138340, Note_off_c, 0, 72, 0
2, 138368, Note_off_c, 0, 53, 64
2, 138392, Note_on_c, 0, 55, 94
2, 138392, Note_on_c, 0, 71, 73
2, 138408, Note_off_c, 0, 68, 0
2, 138464, Note_off_c, 0, 71, 0
2, 138480, Note_on_c, 0, 65, 74
2, 138552, Note_off_c, 0, 65, 0
2, 138568, Note_on_c, 0, 76, 82
2, 138660, Note_on_c, 0, 71, 74
2, 138680, Note_off_c, 0, 76, 0
2, 138740, Note_on_c, 0, 74, 74
2, 138756, Note_off_c, 0, 71, 0
2, 138808, Note_off_c, 0, 74, 0
2, 138824, Note_on_c, 0, 68, 79
2, 138892, Note_off_c, 0, 68, 0
2, 138916, Note_off_c, 0, 55, 0
2, 138932, Note_on_c, 0, 79, 89
2, 138944, Note_on_c, 0, 53, 94
2, 139028, Note_off_c, 0, 79, 0
2, 139032, Note_on_c, 0, 74, 82
2, 139112, Note_off_c, 0, 74, 0
2, 139116, Note_on_c, 0, 77, 77
2, 139184, Note_off_c, 0, 77, 0
2, 139200, Note_on_c, 0, 71, 74
2, 139268, Note_off_c, 0, 71, 0
2, 139288, Note_on_c, 0, 81, 87
2, 139372, Note_on_c, 0, 77, 78
2, 139388, Note_off_c, 0, 81, 0
2, 139448, Note_off_c, 0, 53, 0
2, 139464, Note_on_c, 0, 80, 74
2, 139472, Note_on_c, 0, 50, 96
2, 139488, Note_off_c, 0, 77, 0
2, 139544, Note_off_c, 0, 80, 0
2, 139568, Note_on_c, 0, 74, 68
2, 139640, Note_off_c, 0, 74, 0
2, 139652, Note_on_c, 0, 84, 90
2, 139740, Note_off_c, 0, 84, 64
2, 139756, Note_on_c, 0, 80, 57
2, 139824, Note_off_c, 0, 80, 0
2, 139844, Note_on_c, 0, 83, 74
2, 139904, Note_off_c, 0, 83, 0
2, 139912, Note_on_c, 0, 77, 78
2, 139988, Note_off_c, 0, 50, 64
2, 139992, Note_off_c, 0, 77, 0
2, 140004, Note_on_c, 0, 88, 90
2, 140004, Note_on_c, 0, 53, 99
2, 140064, Control_c, 0, 64, 104
2, 140076, Control_c, 0, 64, 72
2, 140100, Note_on_c, 0, 83, 82
2, 140108, Control_c, 0, 64, 127
2, 140140, Note_off_c, 0, 88, 0
2, 140176, Note_on_c, 0, 86, 71
2, 140188, Note_off_c, 0, 83, 0
2, 140244, Note_off_c, 0, 86, 0
2, 140264, Note_on_c, 0, 80, 77
2, 140300, Note_off_c, 0, 53, 0
2, 140328, Note_off_c, 0, 80, 0
2, 140348, Note_on_c, 0, 91, 86
2, 140420, Note_off_c, 0, 91, 0
2, 140444, Note_on_c, 0, 86, 86
2, 140516, Note_off_c, 0, 86, 0
2, 140528, Note_on_c, 0, 89, 86
2, 140596, Note_off_c, 0, 89, 0
2, 140616, Note_on_c, 0, 83, 86
2, 140676, Note_off_c, 0, 83, 0
2, 140696, Note_on_c, 0, 93, 97
2, 140784, Note_on_c, 0, 89, 94
2, 140808, Note_off_c, 0, 93, 0
2, 140872, Note_on_c, 0, 92, 93
2, 140888, Note_off_c, 0, 89, 0
2, 140928, Note_off_c, 0, 92, 0
2, 140944, Note_on_c, 0, 86, 89
2, 140996, Note_off_c, 0, 86, 0
2, 141060, Note_on_c, 0, 101, 103
2, 141064, Note_on_c, 0, 40, 80
2, 141100, Control_c, 0, 64, 104
2, 141112, Control_c, 0, 64, 127
2, 141172, Note_on_c, 0, 47, 65
2, 141180, Note_on_c, 0, 95, 83
2, 141208, Note_off_c, 0, 101, 64
2, 141212, Note_off_c, 0, 40, 64
2, 141252, Note_on_c, 0, 44, 57
2, 141264, Note_on_c, 0, 100, 84
2, 141272, Note_off_c, 0, 95, 64
2, 141276, Note_off_c, 0, 47, 64
2, 141340, Note_off_c, 0, 44, 0
2, 141340, Note_off_c, 0, 100, 0
2, 141344, Note_on_c, 0, 50, 66
2, 141356, Note_on_c, 0, 92, 81
2, 141412, Note_off_c, 0, 50, 0
2, 141420, Note_off_c, 0, 92, 0
2, 141424, Note_on_c, 0, 44, 58
2, 141440, Note_on_c, 0, 99, 85
2, 141512, Note_on_c, 0, 95, 81
2, 141516, Note_off_c, 0, 99, 0
2, 141524, Note_on_c, 0, 50, 72
2, 141564, Note_off_c, 0, 44, 0
2, 141572, Note_off_c, 0, 95, 0
2, 141608, Note_on_c, 0, 98, 93
2, 141608, Note_on_c, 0, 47, 67
2, 141640, Note_off_c, 0, 50, 0
2, 141676, Note_off_c, 0, 47, 0
2, 141684, Note_on_c, 0, 53, 66
2, 141708, Note_on_c, 0, 92, 85
2, 141712, Note_off_c, 0, 98, 0
2, 141740, Note_off_c, 0, 53, 0
2, 141776, Note_off_c, 0, 92, 0
2, 141784, Note_on_c, 0, 47, 57
2, 141784, Note_on_c, 0, 97, 85
2, 141864, Note_on_c, 0, 53, 60
2, 141868, Note_on_c, 0, 92, 80
2, 141888, Note_off_c, 0, 97, 0
2, 141892, Note_off_c, 0, 47, 0
2, 141948, Note_on_c, 0, 50, 54
2, 141948, Note_on_c, 0, 96, 83
2, 141956, Note_off_c, 0, 92, 0
2, 141972, Note_off_c, 0, 53, 0
2, 142004, Note_off_c, 0, 50, 0
2, 142016, Note_on_c, 0, 56, 58
2, 142032, Note_on_c, 0, 89, 79
2, 142036, Note_off_c, 0, 96, 0
2, 142080, Note_off_c, 0, 56, 0
2, 142092, Note_off_c, 0, 89, 0
2, 142112, Note_on_c, 0, 50, 70
2, 142112, Control_c, 0, 64, 88
2, 142120, Note_on_c, 0, 95, 96
2, 142120, Control_c, 0, 64, 24
2, 142136, Control_c, 0, 64, 0
2, 142172, Control_c, 0, 64, 56
2, 142180, Control_c, 0, 64, 104
2, 142188, Note_on_c, 0, 56, 53
2, 142192, Control_c, 0, 64, 127
2, 142208, Note_on_c, 0, 89, 86
2, 142220, Note_off_c, 0, 50, 0
2, 142220, Note_off_c, 0, 95, 0
2, 142284, Note_on_c, 0, 53, 58
2, 142288, Note_off_c, 0, 89, 0
2, 142296, Note_on_c, 0, 94, 82
2, 142320, Note_off_c, 0, 56, 0
2, 142340, Note_off_c, 0, 53, 0
2, 142356, Note_on_c, 0, 59, 60
2, 142384, Note_off_c, 0, 94, 0
2, 142384, Note_on_c, 0, 86, 77
2, 142416, Note_off_c, 0, 59, 0
2, 142436, Note_on_c, 0, 53, 51
2, 142456, Note_off_c, 0, 86, 0
2, 142472, Note_on_c, 0, 93, 94
2, 142532, Note_on_c, 0, 59, 51
2, 142556, Note_off_c, 0, 93, 0
2, 142560, Note_on_c, 0, 89, 83
2, 142564, Note_off_c, 0, 53, 0
2, 142628, Note_on_c, 0, 56, 62
2, 142632, Note_off_c, 0, 89, 0
2, 142636, Note_off_c, 0, 59, 0
2, 142656, Note_on_c, 0, 92, 96
2, 142716, Note_off_c, 0, 56, 0
2, 142724, Note_on_c, 0, 62, 69
2, 142744, Note_on_c, 0, 83, 86
2, 142764, Note_off_c, 0, 92, 64
2, 142808, Note_off_c, 0, 62, 64
2, 142820, Note_off_c, 0, 83, 0
2, 142824, Note_on_c, 0, 91, 92
2, 142824, Note_on_c, 0, 56, 64
2, 142900, Note_on_c, 0, 86, 80
2, 142908, Note_on_c, 0, 62, 66
2, 142920, Note_off_c, 0, 91, 0
2, 142924, Note_off_c, 0, 56, 0
2, 142976, Note_off_c, 0, 62, 0
2, 142988, Note_on_c, 0, 90, 85
2, 142996, Note_off_c, 0, 86, 0
2, 143000, Note_on_c, 0, 59, 64
2, 143064, Note_on_c, 0, 80, 82
2, 143084, Note_on_c, 0, 65, 63
2, 143088, Note_off_c, 0, 90, 0
2, 143092, Note_off_c, 0, 59, 0
2, 143136, Note_off_c, 0, 80, 0
2, 143140, Note_off_c, 0, 65, 0
2, 143160, Note_on_c, 0, 89, 96
2, 143180, Note_on_c, 0, 59, 70
2, 143244, Note_on_c, 0, 83, 85
2, 143248, Note_off_c, 0, 89, 0
2, 143252, Note_off_c, 0, 59, 0
2, 143260, Note_on_c, 0, 65, 65
2, 143320, Note_off_c, 0, 65, 0
2, 143324, Note_off_c, 0, 83, 0
2, 143324, Note_on_c, 0, 88, 92
2, 143344, Note_on_c, 0, 62, 60
2, 143400, Note_on_c, 0, 80, 82
2, 143404, Note_off_c, 0, 62, 0
2, 143420, Note_on_c, 0, 68, 62
2, 143428, Note_off_c, 0, 88, 0
2, 143476, Note_off_c, 0, 80, 0
2, 143476, Note_off_c, 0, 68, 0
2, 143492, Note_on_c, 0, 87, 87
2, 143520, Note_on_c, 0, 62, 66
2, 143560, Note_on_c, 0, 83, 66
2, 143584, Note_off_c, 0, 87, 0
2, 143600, Note_off_c, 0, 62, 0
2, 143604, Note_on_c, 0, 68, 65
2, 143628, Note_off_c, 0, 83, 0
2, 143656, Note_on_c, 0, 86, 96
2, 143660, Note_off_c, 0, 68, 0
2, 143676, Note_on_c, 0, 65, 74
2, 143744, Note_on_c, 0, 80, 85
2, 143752, Note_on_c, 0, 71, 60
2, 143756, Note_off_c, 0, 65, 0
2, 143760, Note_off_c, 0, 86, 0
2, 143816, Note_off_c, 0, 80, 0
2, 143824, Note_off_c, 0, 71, 0
2, 143828, Note_on_c, 0, 85, 84
2, 143832, Note_on_c, 0, 65, 61
2, 143904, Note_off_c, 0, 65, 0
2, 143908, Note_on_c, 0, 80, 81
2, 143912, Note_off_c, 0, 85, 0
2, 143920, Note_on_c, 0, 74, 63
2, 143980, Note_off_c, 0, 74, 0
2, 143988, Note_off_c, 0, 80, 0
2, 143996, Note_on_c, 0, 84, 86
2, 143996, Note_on_c, 0, 68, 56
2, 144072, Note_off_c, 0, 68, 0
2, 144080, Note_on_c, 0, 77, 76
2, 144080, Note_on_c, 0, 74, 67
2, 144112, Note_off_c, 0, 84, 0
2, 144160, Note_off_c, 0, 77, 0
2, 144180, Note_on_c, 0, 83, 99
2, 144208, Note_on_c, 0, 80, 74
2, 144248, Note_off_c, 0, 83, 0
2, 144292, Note_off_c, 0, 80, 64
2, 144316, Note_off_c, 0, 74, 64
2, 144848, Control_c, 0, 64, 104
2, 144864, Control_c, 0, 64, 72
2, 144876, Control_c, 0, 64, 40
2, 144888, Control_c, 0, 64, 24
2, 144900, Control_c, 0, 64, 0
2, 145192, Note_on_c, 0, 95, 107
2, 145192, Control_c, 0, 64, 72
2, 145200, Note_on_c, 0, 35, 69
2, 145200, Control_c, 0, 64, 127
2, 145300, Note_on_c, 0, 89, 89
2, 145304, Note_on_c, 0, 41, 60
2, 145320, Note_off_c, 0, 35, 0
2, 145336, Note_off_c, 0, 95, 0
2, 145388, Note_on_c, 0, 94, 77
2, 145400, Note_on_c, 0, 38, 54
2, 145404, Note_off_c, 0, 41, 0
2, 145412, Note_off_c, 0, 89, 0
2, 145456, Note_off_c, 0, 38, 0
2, 145468, Note_on_c, 0, 86, 82
2, 145472, Note_off_c, 0, 94, 0
2, 145476, Note_on_c, 0, 44, 47
2, 145532, Note_off_c, 0, 86, 0
2, 145532, Note_off_c, 0, 44, 0
2, 145556, Note_on_c, 0, 93, 94
2, 145564, Note_on_c, 0, 38, 66
2, 145644, Note_on_c, 0, 44, 61
2, 145652, Note_off_c, 0, 93, 0
2, 145652, Note_on_c, 0, 89, 84
2, 145664, Note_off_c, 0, 38, 0
2, 145728, Note_off_c, 0, 89, 0
2, 145736, Note_on_c, 0, 92, 90
2, 145744, Note_on_c, 0, 41, 68
2, 145756, Note_off_c, 0, 44, 0
2, 145816, Note_off_c, 0, 41, 64
2, 145832, Note_on_c, 0, 47, 68
2, 145832, Note_on_c, 0, 86, 77
2, 145844, Note_off_c, 0, 92, 64
2, 145892, Note_off_c, 0, 47, 0
2, 145908, Note_off_c, 0, 86, 0
2, 145908, Note_on_c, 0, 41, 58
2, 145916, Note_on_c, 0, 91, 87
2, 145980, Note_on_c, 0, 47, 53
2, 146004, Note_on_c, 0, 86, 75
2, 146012, Note_off_c, 0, 91, 0
2, 146020, Note_off_c, 0, 41, 0
2, 146064, Note_on_c, 0, 44, 56
2, 146084, Note_on_c, 0, 90, 72
2, 146100, Note_off_c, 0, 47, 0
2, 146100, Note_off_c, 0, 86, 0
2, 146148, Note_off_c, 0, 44, 0
2, 146148, Note_on_c, 0, 50, 66
2, 146160, Note_on_c, 0, 83, 77
2, 146176, Note_off_c, 0, 90, 0
2, 146212, Note_off_c, 0, 50, 0
2, 146228, Note_off_c, 0, 83, 0
2, 146244, Note_on_c, 0, 44, 72
2, 146252, Note_on_c, 0, 89, 99
2, 146332, Note_off_c, 0, 89, 0
2, 146332, Note_on_c, 0, 50, 68
2, 146340, Note_on_c, 0, 83, 82
2, 146352, Note_off_c, 0, 44, 0
2, 146416, Note_on_c, 0, 88, 87
2, 146424, Note_on_c, 0, 47, 65
2, 146432, Note_off_c, 0, 83, 0
2, 146444, Note_off_c, 0, 50, 0
2, 146488, Note_off_c, 0, 47, 0
2, 146508, Note_off_c, 0, 88, 0
2, 146508, Note_on_c, 0, 53, 63
2, 146508, Note_on_c, 0, 80, 80
2, 146568, Note_off_c, 0, 53, 0
2, 146580, Note_off_c, 0, 80, 0
2, 146592, Note_on_c, 0, 47, 70
2, 146596, Note_on_c, 0, 87, 85
2, 146668, Note_on_c, 0, 53, 65
2, 146676, Note_on_c, 0, 83, 74
2, 146680, Note_off_c, 0, 47, 0
2, 146688, Note_off_c, 0, 87, 0
2, 146744, Note_off_c, 0, 83, 0
2, 146768, Note_off_c, 0, 53, 0
2, 146772, Note_on_c, 0, 86, 89
2, 146776, Note_on_c, 0, 50, 68
2, 146840, Note_off_c, 0, 50, 0
2, 146844, Note_on_c, 0, 56, 64
2, 146868, Note_on_c, 0, 80, 79
2, 146872, Note_off_c, 0, 86, 0
2, 146904, Note_off_c, 0, 56, 0
2, 146936, Note_on_c, 0, 50, 59
2, 146940, Note_off_c, 0, 80, 0
2, 146948, Note_on_c, 0, 85, 80
2, 147008, Note_on_c, 0, 56, 58
2, 147024, Note_on_c, 0, 80, 73
2, 147036, Note_off_c, 0, 50, 0
2, 147044, Note_off_c, 0, 85, 0
2, 147108, Note_on_c, 0, 53, 62
2, 147116, Note_on_c, 0, 84, 87
2, 147120, Note_off_c, 0, 80, 0
2, 147144, Note_off_c, 0, 56, 0
2, 147176, Note_off_c, 0, 53, 0
2, 147192, Note_on_c, 0, 59, 64
2, 147208, Note_off_c, 0, 84, 0
2, 147208, Note_on_c, 0, 77, 80
2, 147248, Note_off_c, 0, 59, 0
2, 147264, Note_off_c, 0, 77, 0
2, 147284, Note_on_c, 0, 53, 70
2, 147284, Control_c, 0, 64, 104
2, 147292, Note_on_c, 0, 83, 97
2, 147296, Control_c, 0, 64, 56
2, 147308, Control_c, 0, 64, 40
2, 147320, Control_c, 0, 64, 56
2, 147332, Control_c, 0, 64, 88
2, 147344, Control_c, 0, 64, 127
2, 147368, Note_on_c, 0, 59, 54
2, 147380, Note_on_c, 0, 77, 84
2, 147392, Note_off_c, 0, 53, 64
2, 147400, Note_off_c, 0, 83, 64
2, 147460, Note_on_c, 0, 56, 59
2, 147460, Note_on_c, 0, 82, 76
2, 147480, Note_off_c, 0, 77, 0
2, 147484, Note_off_c, 0, 59, 0
2, 147524, Note_off_c, 0, 56, 0
2, 147540, Note_on_c, 0, 62, 66
2, 147548, Note_on_c, 0, 74, 69
2, 147552, Note_off_c, 0, 82, 0
2, 147600, Note_off_c, 0, 62, 0
2, 147616, Note_off_c, 0, 74, 0
2, 147620, Note_on_c, 0, 56, 64
2, 147628, Note_on_c, 0, 81, 88
2, 147712, Note_on_c, 0, 62, 64
2, 147716, Note_on_c, 0, 77, 84
2, 147724, Note_off_c, 0, 81, 0
2, 147732, Note_off_c, 0, 56, 0
2, 147788, Note_off_c, 0, 77, 0
2, 147796, Note_on_c, 0, 80, 87
2, 147808, Note_on_c, 0, 59, 65
2, 147832, Note_off_c, 0, 62, 0
2, 147868, Note_off_c, 0, 59, 0
2, 147880, Note_on_c, 0, 65, 64
2, 147892, Note_on_c, 0, 74, 81
2, 147900, Note_off_c, 0, 80, 0
2, 147944, Note_off_c, 0, 65, 0
2, 147964, Note_on_c, 0, 59, 61
2, 147968, Note_on_c, 0, 79, 88
2, 147972, Note_off_c, 0, 74, 0
2, 148036, Note_on_c, 0, 65, 62
2, 148052, Note_on_c, 0, 74, 82
2, 148064, Note_off_c, 0, 59, 0
2, 148064, Note_off_c, 0, 79, 0
2, 148124, Note_off_c, 0, 65, 0
2, 148132, Note_off_c, 0, 74, 0
2, 148132, Note_on_c, 0, 62, 61
2, 148136, Note_on_c, 0, 78, 83
2, 148192, Note_on_c, 0, 68, 65
2, 148208, Note_on_c, 0, 71, 74
2, 148216, Note_off_c, 0, 78, 0
2, 148220, Note_off_c, 0, 62, 0
2, 148308, Note_on_c, 0, 77, 99
2, 148312, Note_on_c, 0, 65, 58
2, 148312, Note_on_c, 0, 71, 65
2, 148312, Note_on_c, 0, 62, 65
2, 148320, Note_on_c, 0, 74, 74
2, 148360, Note_off_c, 0, 65, 0
2, 148372, Note_off_c, 0, 68, 0
2, 148372, Note_off_c, 0, 71, 0
2, 148384, Note_off_c, 0, 74, 0
2, 148396, Note_off_c, 0, 77, 0
2, 148400, Note_off_c, 0, 71, 0
2, 148400, Note_off_c, 0, 62, 0
2, 148756, Control_c, 0, 64, 104
2, 148768, Control_c, 0, 64, 88
2, 148776, Control_c, 0, 64, 72
2, 148788, Control_c, 0, 64, 56
2, 148812, Control_c, 0, 64, 40
2, 148836, Control_c, 0, 64, 24
2, 148844, Control_c, 0, 64, 0
2, 149048, Control_c, 0, 64, 40
2, 149060, Control_c, 0, 64, 88
2, 149072, Control_c, 0, 64, 104
2, 149084, Control_c, 0, 64, 127
2, 149220, Note_on_c, 0, 65, 41
2, 149224, Note_on_c, 0, 77, 58
2, 149264, Note_off_c, 0, 65, 0
2, 149288, Note_off_c, 0, 77, 0
2, 149292, Note_on_c, 0, 74, 68
2, 149292, Note_on_c, 0, 62, 34
2, 149340, Note_off_c, 0, 62, 0
2, 149364, Note_off_c, 0, 74, 0
2, 149376, Note_on_c, 0, 76, 69
2, 149376, Note_on_c, 0, 64, 53
2, 149436, Control_c, 0, 64, 88
2, 149444, Note_off_c, 0, 76, 0
2, 149448, Note_off_c, 0, 64, 0
2, 149448, Control_c, 0, 64, 40
2, 149456, Note_on_c, 0, 68, 61
2, 149460, Control_c, 0, 64, 0
2, 149476, Note_on_c, 0, 59, 59
2, 149516, Control_c, 0, 64, 56
2, 149528, Control_c, 0, 64, 104
2, 149540, Control_c, 0, 64, 127
2, 149544, Note_off_c, 0, 68, 0
2, 149544, Note_off_c, 0, 59, 0
2, 149716, Control_c, 0, 64, 104
2, 149728, Control_c, 0, 64, 72
2, 149740, Control_c, 0, 64, 56
2, 149752, Control_c, 0, 64, 40
2, 149764, Control_c, 0, 64, 24
2, 149776, Control_c, 0, 64, 0
2, 150128, Control_c, 0, 64, 24
2, 150164, Control_c, 0, 64, 40
2, 150200, Control_c, 0, 64, 56
2, 150232, Control_c, 0, 64, 72
2, 150244, Control_c, 0, 64, 88
2, 150268, Control_c, 0, 64, 104
2, 150272, Note_on_c, 0, 77, 65
2, 150284, Note_on_c, 0, 65, 37
2, 150316, Control_c, 0, 64, 127
2, 150328, Note_off_c, 0, 65, 0
2, 150340, Note_off_c, 0, 77, 0
2, 150360, Note_on_c, 0, 62, 42
2, 150364, Note_on_c, 0, 74, 64
2, 150420, Note_off_c, 0, 62, 64
2, 150420, Note_off_c, 0, 74, 64
2, 150428, Note_on_c, 0, 76, 65
2, 150452, Note_on_c, 0, 64, 53
2, 150480, Control_c, 0, 64, 72
2, 150492, Control_c, 0, 64, 56
2, 150504, Control_c, 0, 64, 24
2, 150508, Note_off_c, 0, 76, 0
2, 150516, Control_c, 0, 64, 0
2, 150520, Note_off_c, 0, 64, 0
2, 150532, Note_on_c, 0, 68, 59
2, 150548, Note_on_c, 0, 59, 52
2, 150564, Control_c, 0, 64, 72
2, 150576, Note_off_c, 0, 59, 0
2, 150576, Control_c, 0, 64, 127
2, 150592, Note_off_c, 0, 68, 0
2, 150820, Control_c, 0, 64, 104
2, 150844, Control_c, 0, 64, 88
2, 150856, Control_c, 0, 64, 72
2, 150868, Control_c, 0, 64, 56
2, 150892, Control_c, 0, 64, 40
2, 150940, Control_c, 0, 64, 0
2, 151244, Control_c, 0, 64, 24
2, 151256, Control_c, 0, 64, 40
2, 151268, Control_c, 0, 64, 72
2, 151272, Note_on_c, 0, 77, 72
2, 151276, Note_on_c, 0, 65, 55
2, 151280, Control_c, 0, 64, 88
2, 151292, Control_c, 0, 64, 104
2, 151344, Note_off_c, 0, 65, 0
2, 151360, Note_off_c, 0, 77, 0
2, 151364, Note_on_c, 0, 74, 70
2, 151368, Note_on_c, 0, 62, 53
2, 151440, Note_off_c, 0, 74, 0
2, 151444, Note_off_c, 0, 62, 0
2, 151456, Note_on_c, 0, 76, 71
2, 151464, Note_on_c, 0, 64, 63
2, 151524, Note_off_c, 0, 76, 0
2, 151532, Note_on_c, 0, 68, 65
2, 151540, Note_off_c, 0, 64, 0
2, 151564, Note_on_c, 0, 59, 51
2, 151624, Note_off_c, 0, 59, 0
2, 151628, Note_on_c, 0, 77, 80
2, 151632, Note_on_c, 0, 65, 57
2, 151636, Note_off_c, 0, 68, 0
2, 151704, Note_off_c, 0, 65, 0
2, 151712, Note_off_c, 0, 77, 0
2, 151716, Note_on_c, 0, 62, 47
2, 151720, Note_on_c, 0, 74, 77
2, 151784, Note_off_c, 0, 62, 0
2, 151792, Note_off_c, 0, 74, 0
2, 151804, Note_on_c, 0, 76, 74
2, 151804, Note_on_c, 0, 64, 65
2, 151808, Control_c, 0, 64, 88
2, 151868, Note_off_c, 0, 76, 0
2, 151868, Control_c, 0, 64, 72
2, 151876, Note_on_c, 0, 68, 73
2, 151880, Note_off_c, 0, 64, 0
2, 151896, Note_on_c, 0, 59, 62
2, 151904, Control_c, 0, 64, 56
2, 151924, Control_c, 0, 64, 40
2, 151948, Control_c, 0, 64, 24
2, 151972, Note_off_c, 0, 59, 64
2, 151976, Note_on_c, 0, 77, 89
2, 151976, Note_on_c, 0, 65, 64
2, 152000, Note_off_c, 0, 68, 64
2, 152008, Control_c, 0, 64, 56
2, 152052, Note_off_c, 0, 65, 0
2, 152056, Control_c, 0, 64, 72
2, 152064, Note_on_c, 0, 62, 60
2, 152068, Note_on_c, 0, 74, 77
2, 152080, Note_off_c, 0, 77, 0
2, 152132, Note_off_c, 0, 62, 0
2, 152148, Note_off_c, 0, 74, 0
2, 152148, Note_on_c, 0, 76, 80
2, 152156, Note_on_c, 0, 64, 64
2, 152224, Note_off_c, 0, 76, 0
2, 152228, Note_on_c, 0, 68, 75
2, 152232, Note_off_c, 0, 64, 0
2, 152252, Note_on_c, 0, 59, 67
2, 152320, Note_off_c, 0, 68, 0
2, 152320, Note_on_c, 0, 77, 86
2, 152328, Note_off_c, 0, 59, 0
2, 152328, Note_on_c, 0, 65, 60
2, 152388, Note_off_c, 0, 65, 0
2, 152400, Note_on_c, 0, 62, 55
2, 152408, Note_on_c, 0, 74, 79
2, 152416, Note_off_c, 0, 77, 0
2, 152476, Note_off_c, 0, 62, 0
2, 152480, Note_on_c, 0, 64, 68
2, 152488, Note_off_c, 0, 74, 0
2, 152492, Note_on_c, 0, 76, 81
2, 152568, Note_off_c, 0, 64, 0
2, 152568, Note_off_c, 0, 76, 0
2, 152568, Note_on_c, 0, 68, 73
2, 152580, Note_on_c, 0, 59, 68
2, 152656, Note_off_c, 0, 59, 0
2, 152656, Note_on_c, 0, 65, 64
2, 152660, Note_on_c, 0, 77, 86
2, 152668, Note_off_c, 0, 68, 0
2, 152724, Note_off_c, 0, 65, 0
2, 152736, Note_on_c, 0, 62, 59
2, 152744, Note_on_c, 0, 74, 82
2, 152756, Note_off_c, 0, 77, 0
2, 152772, Control_c, 0, 64, 88
2, 152808, Note_off_c, 0, 62, 0
2, 152820, Note_on_c, 0, 64, 68
2, 152828, Note_off_c, 0, 74, 0
2, 152836, Note_on_c, 0, 76, 82
2, 152908, Note_off_c, 0, 76, 0
2, 152912, Note_off_c, 0, 64, 0
2, 152912, Note_on_c, 0, 68, 78
2, 152920, Note_on_c, 0, 59, 69
2, 152980, Note_off_c, 0, 59, 0
2, 152996, Control_c, 0, 64, 40
2, 153000, Note_off_c, 0, 68, 0
2, 153004, Note_on_c, 0, 65, 72
2, 153008, Note_on_c, 0, 77, 93
2, 153008, Control_c, 0, 64, 0
2, 153080, Control_c, 0, 64, 40
2, 153092, Control_c, 0, 64, 88
2, 153096, Note_off_c, 0, 65, 0
2, 153100, Note_on_c, 0, 64, 75
2, 153104, Note_on_c, 0, 74, 82
2, 153104, Control_c, 0, 64, 127
2, 153116, Note_off_c, 0, 77, 0
2, 153168, Note_off_c, 0, 64, 0
2, 153180, Note_off_c, 0, 74, 0
2, 153188, Note_on_c, 0, 63, 57
2, 153192, Note_on_c, 0, 76, 78
2, 153256, Note_off_c, 0, 63, 0
2, 153260, Note_off_c, 0, 76, 0
2, 153268, Note_on_c, 0, 68, 71
2, 153276, Note_on_c, 0, 62, 63
2, 153332, Note_off_c, 0, 62, 0
2, 153356, Note_on_c, 0, 61, 68
2, 153360, Note_off_c, 0, 68, 0
2, 153360, Note_on_c, 0, 77, 82
2, 153432, Note_off_c, 0, 61, 0
2, 153444, Note_on_c, 0, 74, 75
2, 153448, Note_off_c, 0, 77, 0
2, 153448, Note_on_c, 0, 60, 74
2, 153512, Note_off_c, 0, 74, 64
2, 153516, Note_off_c, 0, 60, 64
2, 153532, Note_on_c, 0, 76, 82
2, 153544, Note_on_c, 0, 59, 74
2, 153608, Note_off_c, 0, 76, 0
2, 153612, Note_off_c, 0, 59, 0
2, 153616, Note_on_c, 0, 68, 75
2, 153632, Note_on_c, 0, 58, 60
2, 153704, Note_off_c, 0, 58, 0
2, 153712, Note_on_c, 0, 77, 82
2, 153720, Note_off_c, 0, 68, 0
2, 153724, Note_on_c, 0, 57, 64
2, 153776, Note_off_c, 0, 57, 0
2, 153796, Note_off_c, 0, 77, 0
2, 153800, Note_on_c, 0, 74, 78
2, 153800, Note_on_c, 0, 56, 67
2, 153868, Note_off_c, 0, 74, 0
2, 153868, Note_off_c, 0, 56, 0
2, 153888, Note_on_c, 0, 76, 81
2, 153892, Note_on_c, 0, 55, 77
2, 153952, Note_off_c, 0, 55, 0
2, 153960, Note_off_c, 0, 76, 0
2, 153968, Note_on_c, 0, 68, 76
2, 153980, Note_on_c, 0, 54, 68
2, 154040, Note_off_c, 0, 54, 0
2, 154060, Note_off_c, 0, 68, 0
2, 154064, Note_on_c, 0, 53, 87
2, 154068, Note_on_c, 0, 77, 88
2, 154144, Note_off_c, 0, 53, 0
2, 154156, Note_on_c, 0, 74, 84
2, 154160, Note_on_c, 0, 52, 87
2, 154164, Note_off_c, 0, 77, 0
2, 154228, Note_off_c, 0, 52, 0
2, 154232, Note_off_c, 0, 74, 0
2, 154244, Note_on_c, 0, 76, 85
2, 154244, Note_on_c, 0, 51, 83
2, 154312, Note_off_c, 0, 76, 0
2, 154312, Note_off_c, 0, 51, 0
2, 154324, Note_on_c, 0, 68, 81
2, 154328, Note_on_c, 0, 50, 84
2, 154388, Note_off_c, 0, 50, 0
2, 154416, Note_off_c, 0, 68, 0
2, 154416, Note_on_c, 0, 77, 87
2, 154416, Note_on_c, 0, 49, 81
2, 154480, Note_off_c, 0, 49, 0
2, 154504, Note_on_c, 0, 74, 88
2, 154504, Note_on_c, 0, 48, 84
2, 154508, Note_off_c, 0, 77, 0
2, 154576, Note_off_c, 0, 74, 0
2, 154576, Note_off_c, 0, 48, 0
2, 154592, Note_on_c, 0, 47, 81
2, 154592, Note_on_c, 0, 76, 88
2, 154660, Note_off_c, 0, 47, 0
2, 154668, Note_off_c, 0, 76, 0
2, 154672, Note_on_c, 0, 46, 73
2, 154676, Note_on_c, 0, 68, 79
2, 154736, Note_off_c, 0, 46, 0
2, 154760, Note_on_c, 0, 45, 80
2, 154768, Note_on_c, 0, 77, 88
2, 154784, Note_off_c, 0, 68, 0
2, 154820, Note_off_c, 0, 45, 0
2, 154848, Note_on_c, 0, 44, 71
2, 154860, Note_off_c, 0, 77, 0
2, 154860, Note_on_c, 0, 74, 81
2, 154916, Note_off_c, 0, 44, 0
2, 154932, Note_off_c, 0, 74, 0
2, 154944, Note_on_c, 0, 43, 72
2, 154948, Note_on_c, 0, 76, 84
2, 155004, Note_off_c, 0, 43, 0
2, 155020, Note_off_c, 0, 76, 0
2, 155024, Note_on_c, 0, 42, 68
2, 155028, Note_on_c, 0, 68, 81
2, 155092, Note_off_c, 0, 42, 0
2, 155116, Note_off_c, 0, 68, 0
2, 155116, Note_on_c, 0, 41, 80
2, 155124, Note_on_c, 0, 77, 92
2, 155184, Note_off_c, 0, 41, 0
2, 155208, Note_on_c, 0, 40, 75
2, 155216, Note_off_c, 0, 77, 0
2, 155216, Note_on_c, 0, 74, 84
2, 155292, Note_off_c, 0, 40, 0
2, 155292, Note_off_c, 0, 74, 0
2, 155300, Note_on_c, 0, 39, 82
2, 155308, Note_on_c, 0, 76, 87
2, 155372, Note_off_c, 0, 39, 0
2, 155376, Note_off_c, 0, 76, 0
2, 155384, Note_on_c, 0, 68, 80
2, 155384, Note_on_c, 0, 40, 86
2, 155472, Note_off_c, 0, 40, 0
2, 155476, Note_on_c, 0, 77, 86
2, 155480, Note_on_c, 0, 41, 86
2, 155496, Note_off_c, 0, 68, 0
2, 155564, Note_on_c, 0, 74, 83
2, 155568, Note_off_c, 0, 41, 0
2, 155568, Note_on_c, 0, 40, 86
2, 155584, Note_off_c, 0, 77, 0
2, 155648, Note_on_c, 0, 76, 81
2, 155656, Note_off_c, 0, 40, 0
2, 155656, Note_on_c, 0, 39, 88
2, 155664, Note_off_c, 0, 74, 0
2, 155680, Note_off_c, 0, 76, 0
2, 155732, Note_off_c, 0, 39, 0
2, 155732, Note_on_c, 0, 80, 92
2, 155740, Note_on_c, 0, 40, 94
2, 155792, Note_off_c, 0, 80, 0
2, 155824, Note_off_c, 0, 40, 0
2, 155824, Note_on_c, 0, 41, 88
2, 155832, Note_on_c, 0, 89, 89
2, 155892, Note_off_c, 0, 41, 0
2, 155916, Note_on_c, 0, 86, 90
2, 155916, Note_on_c, 0, 40, 88
2, 155936, Note_off_c, 0, 89, 0
2, 156004, Note_on_c, 0, 88, 83
2, 156004, Note_on_c, 0, 39, 86
2, 156012, Note_off_c, 0, 40, 0
2, 156020, Note_off_c, 0, 86, 0
2, 156040, Note_off_c, 0, 88, 0
2, 156072, Note_off_c, 0, 39, 0
2, 156092, Note_on_c, 0, 92, 97
2, 156092, Note_on_c, 0, 40, 89
2, 156156, Note_off_c, 0, 92, 0
2, 156172, Note_off_c, 0, 40, 0
2, 156184, Note_on_c, 0, 101, 93
2, 156184, Note_on_c, 0, 41, 83
2, 156252, Note_off_c, 0, 41, 0
2, 156268, Note_off_c, 0, 101, 0
2, 156272, Note_on_c, 0, 98, 88
2, 156272, Note_on_c, 0, 40, 86
2, 156336, Note_off_c, 0, 98, 0
2, 156348, Note_off_c, 0, 40, 0
2, 156368, Note_on_c, 0, 39, 82
2, 156372, Note_on_c, 0, 100, 97
2, 156432, Note_off_c, 0, 100, 0
2, 156436, Note_off_c, 0, 39, 0
2, 156452, Note_on_c, 0, 92, 89
2, 156460, Note_on_c, 0, 40, 88
2, 156536, Note_off_c, 0, 40, 0
2, 156540, Note_off_c, 0, 92, 0
2, 156548, Note_on_c, 0, 101, 87
2, 156556, Note_on_c, 0, 41, 82
2, 156624, Note_off_c, 0, 41, 0
2, 156636, Note_off_c, 0, 101, 64
2, 156652, Note_on_c, 0, 98, 97
2, 156652, Note_on_c, 0, 40, 87
2, 156724, Note_off_c, 0, 98, 0
2, 156728, Note_off_c, 0, 40, 0
2, 156748, Note_on_c, 0, 100, 93
2, 156748, Note_on_c, 0, 39, 85
2, 156824, Note_off_c, 0, 39, 0
2, 156832, Note_off_c, 0, 100, 0
2, 156848, Note_on_c, 0, 92, 95
2, 156852, Note_on_c, 0, 40, 93
2, 156936, Note_off_c, 0, 40, 0
2, 156944, Note_off_c, 0, 92, 0
2, 156956, Note_on_c, 0, 101, 94
2, 156956, Note_on_c, 0, 41, 86
2, 157032, Note_off_c, 0, 41, 0
2, 157048, Note_off_c, 0, 101, 0
2, 157060, Note_on_c, 0, 40, 86
2, 157064, Note_on_c, 0, 98, 96
2, 157144, Note_off_c, 0, 40, 0
2, 157148, Note_off_c, 0, 98, 0
2, 157164, Note_on_c, 0, 39, 77
2, 157176, Note_on_c, 0, 100, 99
2, 157264, Note_off_c, 0, 39, 0
2, 157264, Note_off_c, 0, 100, 0
2, 157288, Note_on_c, 0, 92, 102
2, 157292, Note_on_c, 0, 40, 83
2, 157368, Note_off_c, 0, 92, 0
2, 157388, Note_off_c, 0, 40, 0
2, 157452, Control_c, 0, 64, 104
2, 157464, Control_c, 0, 64, 24
2, 157476, Control_c, 0, 64, 0
2, 157484, Note_on_c, 0, 33, 90
2, 157484, Note_on_c, 0, 101, 107
2, 157492, Control_c, 0, 64, 127
2, 157576, Note_off_c, 0, 33, 0
2, 157632, Note_on_c, 0, 96, 90
2, 157672, Note_off_c, 0, 101, 64
2, 157720, Note_off_c, 0, 96, 64
2, 157724, Note_on_c, 0, 100, 84
2, 157796, Note_off_c, 0, 100, 0
2, 157812, Note_on_c, 0, 93, 81
2, 157900, Note_on_c, 0, 99, 76
2, 157908, Note_off_c, 0, 93, 0
2, 158000, Note_on_c, 0, 96, 71
2, 158012, Note_off_c, 0, 99, 0
2, 158064, Note_off_c, 0, 96, 0
2, 158088, Note_on_c, 0, 64, 84
2, 158096, Note_on_c, 0, 98, 92
2, 158096, Note_on_c, 0, 57, 68
2, 158096, Note_on_c, 0, 60, 74
2, 158128, Control_c, 0, 64, 104
2, 158140, Control_c, 0, 64, 88
2, 158152, Control_c, 0, 64, 127
2, 158192, Note_on_c, 0, 93, 82
2, 158196, Note_off_c, 0, 98, 0
2, 158272, Note_off_c, 0, 93, 0
2, 158284, Note_on_c, 0, 97, 71
2, 158356, Note_off_c, 0, 60, 0
2, 158364, Note_off_c, 0, 57, 0
2, 158376, Note_on_c, 0, 93, 73
2, 158380, Note_off_c, 0, 64, 0
2, 158392, Note_off_c, 0, 97, 0
2, 158472, Note_off_c, 0, 93, 64
2, 158476, Note_on_c, 0, 96, 83
2, 158560, Note_off_c, 0, 96, 0
2, 158564, Note_on_c, 0, 88, 79
2, 158572, Note_on_c, 0, 64, 85
2, 158580, Note_on_c, 0, 57, 66
2, 158580, Note_on_c, 0, 60, 71
2, 158616, Note_off_c, 0, 60, 0
2, 158620, Note_off_c, 0, 64, 0
2, 158628, Note_off_c, 0, 57, 0
2, 158656, Note_off_c, 0, 88, 0
2, 158668, Note_on_c, 0, 95, 100
2, 158676, Note_on_c, 0, 64, 82
2, 158676, Note_on_c, 0, 57, 74
2, 158680, Note_on_c, 0, 60, 73
2, 158724, Control_c, 0, 64, 72
2, 158764, Control_c, 0, 64, 127
2, 158772, Note_off_c, 0, 95, 0
2, 158776, Note_on_c, 0, 88, 84
2, 158876, Note_off_c, 0, 88, 0
2, 158876, Note_on_c, 0, 94, 71
2, 158940, Note_off_c, 0, 57, 0
2, 158944, Note_off_c, 0, 60, 0
2, 158964, Note_off_c, 0, 94, 0
2, 158964, Note_on_c, 0, 84, 75
2, 158988, Note_off_c, 0, 64, 0
2, 159052, Note_off_c, 0, 84, 0
2, 159064, Note_on_c, 0, 93, 94
2, 159156, Note_on_c, 0, 88, 80
2, 159164, Note_off_c, 0, 93, 0
2, 159248, Note_on_c, 0, 92, 79
2, 159248, Note_on_c, 0, 65, 89
2, 159260, Note_on_c, 0, 57, 69
2, 159260, Note_on_c, 0, 60, 74
2, 159264, Note_off_c, 0, 88, 64
2, 159272, Control_c, 0, 64, 88
2, 159284, Control_c, 0, 64, 0
2, 159344, Note_off_c, 0, 92, 0
2, 159344, Note_on_c, 0, 84, 77
2, 159348, Control_c, 0, 64, 72
2, 159360, Control_c, 0, 64, 127
2, 159424, Note_off_c, 0, 84, 0
2, 159440, Note_on_c, 0, 91, 83
2, 159532, Note_off_c, 0, 91, 0
2, 159540, Note_on_c, 0, 84, 69
2, 159580, Note_off_c, 0, 57, 0
2, 159592, Note_off_c, 0, 60, 0
2, 159604, Note_off_c, 0, 65, 0
2, 159608, Note_off_c, 0, 84, 0
2, 159612, Note_on_c, 0, 90, 64
2, 159688, Note_off_c, 0, 90, 0
2, 159712, Note_on_c, 0, 81, 68
2, 159804, Note_off_c, 0, 81, 0
2, 159816, Note_on_c, 0, 89, 87
2, 159832, Note_on_c, 0, 64, 82
2, 159836, Note_on_c, 0, 57, 66
2, 159836, Note_on_c, 0, 60, 68
2, 159856, Control_c, 0, 64, 56
2, 159868, Control_c, 0, 64, 0
2, 159920, Note_on_c, 0, 84, 73
2, 159920, Control_c, 0, 64, 72
2, 159932, Control_c, 0, 64, 127
2, 159940, Note_off_c, 0, 89, 0
2, 160008, Note_on_c, 0, 88, 73
2, 160012, Note_off_c, 0, 84, 64
2, 160052, Note_off_c, 0, 60, 64
2, 160080, Note_off_c, 0, 57, 64
2, 160092, Note_off_c, 0, 88, 0
2, 160112, Note_on_c, 0, 81, 66
2, 160192, Note_on_c, 0, 87, 64
2, 160212, Note_off_c, 0, 81, 0
2, 160284, Note_on_c, 0, 84, 70
2, 160308, Note_off_c, 0, 87, 0
2, 160316, Note_off_c, 0, 64, 64
2, 160344, Note_off_c, 0, 84, 0
2, 160372, Note_on_c, 0, 60, 78
2, 160376, Note_on_c, 0, 86, 82
2, 160376, Note_on_c, 0, 57, 64
2, 160388, Note_on_c, 0, 52, 64
2, 160412, Control_c, 0, 64, 40
2, 160424, Control_c, 0, 64, 0
2, 160464, Control_c, 0, 64, 72
2, 160472, Note_on_c, 0, 81, 68
2, 160476, Control_c, 0, 64, 127
2, 160480, Note_off_c, 0, 86, 0
2, 160552, Note_off_c, 0, 81, 0
2, 160564, Note_on_c, 0, 85, 68
2, 160652, Note_on_c, 0, 81, 68
2, 160660, Note_off_c, 0, 85, 0
2, 160672, Note_off_c, 0, 57, 0
2, 160716, Note_off_c, 0, 60, 64
2, 160736, Note_off_c, 0, 81, 64
2, 160744, Note_on_c, 0, 84, 78
2, 160828, Note_off_c, 0, 84, 0
2, 160832, Note_on_c, 0, 76, 69
2, 160924, Note_off_c, 0, 76, 0
2, 160932, Note_on_c, 0, 83, 87
2, 160932, Note_on_c, 0, 64, 81
2, 160940, Note_on_c, 0, 60, 71
2, 160948, Control_c, 0, 64, 104
2, 160952, Note_on_c, 0, 57, 54
2, 160960, Control_c, 0, 64, 0
2, 160964, Note_off_c, 0, 52, 64
2, 161020, Note_on_c, 0, 76, 74
2, 161036, Note_off_c, 0, 83, 0
2, 161036, Control_c, 0, 64, 88
2, 161048, Control_c, 0, 64, 127
2, 161116, Note_on_c, 0, 82, 65
2, 161120, Note_off_c, 0, 76, 0
2, 161132, Note_off_c, 0, 57, 0
2, 161140, Note_off_c, 0, 60, 0
2, 161168, Note_off_c, 0, 64, 0
2, 161200, Note_off_c, 0, 82, 0
2, 161208, Note_on_c, 0, 72, 60
2, 161292, Note_on_c, 0, 81, 76
2, 161304, Note_off_c, 0, 72, 0
2, 161388, Note_on_c, 0, 76, 63
2, 161392, Note_off_c, 0, 81, 0
2, 161468, Note_on_c, 0, 80, 68
2, 161476, Note_off_c, 0, 76, 0
2, 161560, Note_off_c, 0, 80, 64
2, 161568, Note_on_c, 0, 72, 67
2, 161636, Note_off_c, 0, 72, 0
2, 161652, Note_on_c, 0, 79, 78
2, 161736, Note_off_c, 0, 79, 0
2, 161740, Note_on_c, 0, 72, 70
2, 161808, Note_off_c, 0, 72, 0
2, 161820, Note_on_c, 0, 78, 64
2, 161908, Note_on_c, 0, 69, 58
2, 161916, Note_off_c, 0, 78, 0
2, 162012, Note_on_c, 0, 33, 93
2, 162024, Note_off_c, 0, 69, 0
2, 162024, Note_on_c, 0, 77, 74
2, 162052, Control_c, 0, 64, 56
2, 162064, Control_c, 0, 64, 0
2, 162124, Note_on_c, 0, 72, 64
2, 162128, Note_off_c, 0, 77, 0
2, 162140, Control_c, 0, 64, 104
2, 162152, Control_c, 0, 64, 127
2, 162204, Note_off_c, 0, 72, 0
2, 162208, Note_on_c, 0, 76, 65
2, 162244, Note_off_c, 0, 33, 0
2, 162292, Note_off_c, 0, 76, 64
2, 162308, Note_on_c, 0, 69, 62
2, 162396, Note_off_c, 0, 69, 0
2, 162396, Note_on_c, 0, 75, 57
2, 162476, Note_on_c, 0, 72, 67
2, 162488, Note_off_c, 0, 75, 0
2, 162544, Note_off_c, 0, 72, 0
2, 162588, Note_on_c, 0, 52, 88
2, 162592, Note_on_c, 0, 74, 77
2, 162592, Note_on_c, 0, 45, 80
2, 162632, Control_c, 0, 64, 40
2, 162648, Control_c, 0, 64, 0
2, 162688, Control_c, 0, 64, 56
2, 162696, Note_on_c, 0, 69, 70
2, 162700, Control_c, 0, 64, 127
2, 162708, Note_off_c, 0, 74, 0
2, 162792, Note_off_c, 0, 69, 0
2, 162800, Note_on_c, 0, 73, 60
2, 162888, Note_off_c, 0, 45, 0
2, 162888, Note_on_c, 0, 69, 70
2, 162896, Note_off_c, 0, 52, 0
2, 162904, Note_off_c, 0, 73, 0
2, 162972, Note_off_c, 0, 69, 0
2, 162972, Note_on_c, 0, 72, 77
2, 163048, Note_on_c, 0, 52, 84
2, 163052, Note_on_c, 0, 45, 82
2, 163056, Note_off_c, 0, 72, 64
2, 163060, Note_on_c, 0, 64, 70
2, 163104, Note_off_c, 0, 52, 0
2, 163104, Note_off_c, 0, 45, 0
2, 163148, Note_off_c, 0, 64, 0
2, 163164, Note_on_c, 0, 52, 94
2, 163164, Note_on_c, 0, 45, 82
2, 163168, Note_on_c, 0, 71, 82
2, 163192, Control_c, 0, 64, 104
2, 163208, Control_c, 0, 64, 24
2, 163220, Control_c, 0, 64, 0
2, 163256, Note_off_c, 0, 71, 0
2, 163256, Control_c, 0, 64, 56
2, 163260, Note_on_c, 0, 64, 64
2, 163268, Control_c, 0, 64, 127
2, 163344, Note_on_c, 0, 70, 65
2, 163348, Note_off_c, 0, 64, 0
2, 163428, Note_off_c, 0, 70, 0
2, 163436, Note_on_c, 0, 60, 62
2, 163492, Note_off_c, 0, 45, 0
2, 163516, Note_off_c, 0, 52, 0
2, 163528, Note_off_c, 0, 60, 0
2, 163528, Note_on_c, 0, 69, 74
2, 163620, Note_on_c, 0, 64, 64
2, 163624, Note_off_c, 0, 69, 0
2, 163704, Note_off_c, 0, 64, 0
2, 163716, Note_on_c, 0, 68, 60
2, 163720, Note_on_c, 0, 53, 93
2, 163720, Note_on_c, 0, 45, 83
2, 163768, Control_c, 0, 64, 104
2, 163776, Control_c, 0, 64, 40
2, 163792, Control_c, 0, 64, 0
2, 163824, Note_off_c, 0, 68, 64
2, 163824, Note_on_c, 0, 60, 63
2, 163844, Control_c, 0, 64, 40
2, 163852, Control_c, 0, 64, 104
2, 163868, Control_c, 0, 64, 127
2, 163900, Note_off_c, 0, 60, 0
2, 163912, Note_on_c, 0, 67, 73
2, 164000, Note_off_c, 0, 67, 0
2, 164004, Note_on_c, 0, 60, 61
2, 164072, Note_off_c, 0, 60, 0
2, 164080, Note_off_c, 0, 45, 64
2, 164084, Note_on_c, 0, 66, 55
2, 164152, Note_off_c, 0, 53, 64
2, 164168, Note_off_c, 0, 66, 0
2, 164188, Note_on_c, 0, 57, 54
2, 164288, Note_on_c, 0, 52, 81
2, 164292, Note_off_c, 0, 57, 0
2, 164292, Note_on_c, 0, 45, 78
2, 164300, Note_on_c, 0, 65, 69
2, 164324, Control_c, 0, 64, 104
2, 164336, Control_c, 0, 64, 0
2, 164392, Note_on_c, 0, 60, 58
2, 164396, Note_off_c, 0, 65, 0
2, 164412, Control_c, 0, 64, 88
2, 164424, Control_c, 0, 64, 127
2, 164476, Note_off_c, 0, 60, 0
2, 164480, Note_on_c, 0, 64, 63
2, 164524, Note_off_c, 0, 52, 0
2, 164544, Note_off_c, 0, 45, 0
2, 164560, Note_off_c, 0, 64, 0
2, 164584, Note_on_c, 0, 57, 58
2, 164676, Note_on_c, 0, 63, 62
2, 164692, Note_off_c, 0, 57, 0
2, 164768, Note_on_c, 0, 60, 66
2, 164776, Note_off_c, 0, 63, 0
2, 164840, Note_off_c, 0, 60, 0
2, 164852, Note_on_c, 0, 33, 80
2, 164872, Note_on_c, 0, 62, 67
2, 164908, Control_c, 0, 64, 88
2, 164920, Control_c, 0, 64, 0
2, 164964, Note_off_c, 0, 62, 0
2, 164980, Note_on_c, 0, 57, 50
2, 164984, Control_c, 0, 64, 72
2, 164996, Control_c, 0, 64, 127
2, 165052, Note_off_c, 0, 57, 0
2, 165052, Note_on_c, 0, 61, 67
2, 165148, Note_on_c, 0, 57, 64
2, 165156, Note_off_c, 0, 61, 0
2, 165228, Note_off_c, 0, 57, 0
2, 165236, Note_on_c, 0, 60, 74
2, 165304, Note_off_c, 0, 60, 0
2, 165316, Note_on_c, 0, 52, 69
2, 165380, Note_off_c, 0, 33, 64
2, 165392, Note_off_c, 0, 52, 0
2, 165408, Note_on_c, 0, 59, 78
2, 165416, Control_c, 0, 64, 40
2, 165420, Note_on_c, 0, 40, 73
2, 165428, Control_c, 0, 64, 0
2, 165480, Control_c, 0, 64, 56
2, 165492, Control_c, 0, 64, 127
2, 165504, Note_off_c, 0, 59, 0
2, 165504, Note_on_c, 0, 52, 60
2, 165580, Note_off_c, 0, 52, 0
2, 165596, Note_on_c, 0, 58, 63
2, 165600, Note_off_c, 0, 40, 0
2, 165676, Note_on_c, 0, 48, 76
2, 165684, Note_off_c, 0, 58, 0
2, 165776, Note_off_c, 0, 48, 0
2, 165788, Note_on_c, 0, 57, 74
2, 165876, Note_on_c, 0, 52, 64
2, 165884, Note_off_c, 0, 57, 0
2, 165944, Note_off_c, 0, 52, 0
2, 165956, Note_on_c, 0, 56, 69
2, 166060, Note_on_c, 0, 48, 71
2, 166064, Note_off_c, 0, 56, 0
2, 166136, Note_off_c, 0, 48, 64
2, 166148, Note_on_c, 0, 57, 68
2, 166236, Note_on_c, 0, 52, 67
2, 166264, Note_off_c, 0, 57, 0
2, 166296, Note_off_c, 0, 52, 0
2, 166324, Note_on_c, 0, 60, 70
2, 166388, Note_off_c, 0, 60, 0
2, 166412, Note_on_c, 0, 53, 62
2, 166444, Note_off_c, 0, 53, 0
2, 166556, Note_on_c, 0, 64, 83
2, 166556, Note_on_c, 0, 32, 70
2, 166572, Control_c, 0, 64, 88
2, 166584, Control_c, 0, 64, 0
2, 166672, Control_c, 0, 64, 88
2, 166680, Note_on_c, 0, 59, 60
2, 166688, Control_c, 0, 64, 127
2, 166748, Note_off_c, 0, 32, 0
2, 166748, Note_off_c, 0, 59, 0
2, 166752, Note_on_c, 0, 62, 70
2, 166776, Note_off_c, 0, 64, 0
2, 166788, Note_off_c, 0, 62, 0
2, 166848, Note_on_c, 0, 65, 75
2, 166912, Note_off_c, 0, 65, 64
2, 166944, Note_on_c, 0, 76, 74
2, 167040, Note_on_c, 0, 71, 63
2, 167096, Note_off_c, 0, 76, 0
2, 167116, Note_on_c, 0, 62, 85
2, 167124, Note_off_c, 0, 71, 0
2, 167124, Note_on_c, 0, 74, 76
2, 167124, Note_on_c, 0, 53, 79
2, 167172, Note_off_c, 0, 74, 0
2, 167228, Note_on_c, 0, 77, 86
2, 167316, Note_off_c, 0, 53, 0
2, 167328, Note_off_c, 0, 77, 0
2, 167340, Note_on_c, 0, 88, 82
2, 167392, Note_off_c, 0, 62, 0
2, 167432, Note_on_c, 0, 83, 53
2, 167440, Note_off_c, 0, 88, 0
2, 167512, Note_on_c, 0, 86, 70
2, 167516, Note_off_c, 0, 83, 0
2, 167576, Note_on_c, 0, 62, 85
2, 167588, Note_on_c, 0, 53, 81
2, 167592, Note_off_c, 0, 86, 0
2, 167592, Note_on_c, 0, 77, 79
2, 167636, Note_off_c, 0, 62, 64
2, 167648, Note_off_c, 0, 53, 64
2, 167696, Note_off_c, 0, 77, 64
2, 167708, Note_on_c, 0, 86, 86
2, 167708, Note_on_c, 0, 60, 97
2, 167712, Note_on_c, 0, 53, 74
2, 167740, Control_c, 0, 64, 88
2, 167752, Control_c, 0, 64, 0
2, 167808, Note_on_c, 0, 81, 66
2, 167816, Control_c, 0, 64, 56
2, 167828, Note_off_c, 0, 86, 0
2, 167828, Control_c, 0, 64, 127
2, 167880, Note_off_c, 0, 60, 0
2, 167900, Note_off_c, 0, 53, 0
2, 167900, Note_on_c, 0, 84, 69
2, 167932, Note_off_c, 0, 81, 0
2, 167980, Note_on_c, 0, 77, 70
2, 167984, Note_off_c, 0, 84, 0
2, 168016, Note_off_c, 0, 77, 0
2, 168088, Note_on_c, 0, 74, 74
2, 168188, Note_on_c, 0, 69, 52
2, 168208, Note_off_c, 0, 74, 0
2, 168272, Note_on_c, 0, 45, 90
2, 168272, Note_on_c, 0, 33, 74
2, 168276, Note_off_c, 0, 69, 0
2, 168280, Note_on_c, 0, 72, 68
2, 168324, Control_c, 0, 64, 88
2, 168336, Control_c, 0, 64, 0
2, 168360, Note_on_c, 0, 65, 69
2, 168368, Note_off_c, 0, 72, 0
2, 168384, Control_c, 0, 64, 56
2, 168400, Control_c, 0, 64, 127
2, 168412, Note_off_c, 0, 65, 64
2, 168480, Note_on_c, 0, 62, 71
2, 168552, Note_on_c, 0, 57, 54
2, 168584, Note_off_c, 0, 62, 0
2, 168644, Note_off_c, 0, 57, 0
2, 168652, Note_on_c, 0, 60, 64
2, 168668, Note_off_c, 0, 45, 64
2, 168680, Note_off_c, 0, 33, 64
2, 168728, Note_off_c, 0, 60, 0
2, 168744, Note_on_c, 0, 53, 70
2, 168820, Note_off_c, 0, 53, 0
2, 168860, Note_on_c, 0, 44, 86
2, 168860, Note_on_c, 0, 32, 82
2, 168860, Note_on_c, 0, 64, 64
2, 168956, Control_c, 0, 64, 24
2, 168972, Note_on_c, 0, 59, 55
2, 168972, Control_c, 0, 64, 0
2, 169000, Note_off_c, 0, 64, 0
2, 169032, Control_c, 0, 64, 56
2, 169040, Note_off_c, 0, 59, 0
2, 169048, Note_on_c, 0, 62, 59
2, 169048, Control_c, 0, 64, 127
2, 169080, Note_off_c, 0, 62, 0
2, 169120, Note_off_c, 0, 32, 0
2, 169152, Note_off_c, 0, 44, 0
2, 169152, Note_on_c, 0, 65, 70
2, 169220, Note_off_c, 0, 65, 64
2, 169248, Note_on_c, 0, 76, 74
2, 169336, Note_on_c, 0, 71, 63
2, 169412, Note_off_c, 0, 76, 0
2, 169428, Note_off_c, 0, 71, 0
2, 169428, Note_on_c, 0, 74, 68
2, 169428, Control_c, 0, 64, 72
2, 169440, Note_on_c, 0, 55, 80
2, 169440, Control_c, 0, 64, 0
2, 169444, Note_on_c, 0, 62, 80
2, 169460, Note_off_c, 0, 74, 0
2, 169464, Control_c, 0, 64, 40
2, 169480, Control_c, 0, 64, 88
2, 169488, Control_c, 0, 64, 127
2, 169532, Note_on_c, 0, 77, 82
2, 169560, Note_off_c, 0, 55, 0
2, 169560, Note_off_c, 0, 62, 0
2, 169616, Note_off_c, 0, 77, 0
2, 169636, Note_on_c, 0, 62, 84
2, 169636, Note_on_c, 0, 88, 87
2, 169640, Note_on_c, 0, 53, 73
2, 169732, Note_on_c, 0, 83, 75
2, 169736, Note_off_c, 0, 62, 0
2, 169752, Note_off_c, 0, 53, 0
2, 169760, Note_off_c, 0, 88, 0
2, 169824, Note_off_c, 0, 83, 0
2, 169824, Note_on_c, 0, 86, 77
2, 169828, Note_on_c, 0, 62, 88
2, 169836, Note_on_c, 0, 52, 80
2, 169904, Note_off_c, 0, 86, 0
2, 169912, Note_on_c, 0, 77, 71
2, 169948, Note_off_c, 0, 62, 64
2, 169952, Note_off_c, 0, 52, 64
2, 170016, Note_off_c, 0, 77, 64
2, 170024, Note_on_c, 0, 86, 82
2, 170032, Note_on_c, 0, 52, 83
2, 170032, Note_on_c, 0, 60, 93
2, 170076, Control_c, 0, 64, 40
2, 170088, Control_c, 0, 64, 0
2, 170132, Note_on_c, 0, 81, 59
2, 170148, Note_off_c, 0, 86, 0
2, 170164, Control_c, 0, 64, 72
2, 170176, Control_c, 0, 64, 127
2, 170216, Note_on_c, 0, 84, 67
2, 170236, Note_off_c, 0, 60, 0
2, 170248, Note_off_c, 0, 81, 0
2, 170264, Note_off_c, 0, 52, 0
2, 170300, Note_off_c, 0, 84, 0
2, 170308, Note_on_c, 0, 76, 68
2, 170332, Note_off_c, 0, 76, 0
2, 170408, Note_on_c, 0, 74, 71
2, 170500, Note_on_c, 0, 69, 64
2, 170520, Note_off_c, 0, 74, 0
2, 170592, Note_on_c, 0, 72, 70
2, 170596, Note_on_c, 0, 45, 92
2, 170600, Note_on_c, 0, 33, 76
2, 170604, Note_off_c, 0, 69, 0
2, 170636, Control_c, 0, 64, 40
2, 170648, Control_c, 0, 64, 0
2, 170684, Control_c, 0, 64, 72
2, 170688, Note_off_c, 0, 72, 0
2, 170696, Note_on_c, 0, 64, 74
2, 170700, Control_c, 0, 64, 127
2, 170748, Note_off_c, 0, 64, 64
2, 170820, Note_on_c, 0, 62, 71
2, 170928, Note_on_c, 0, 57, 58
2, 170936, Note_off_c, 0, 62, 0
2, 170944, Note_off_c, 0, 33, 64
2, 170984, Note_off_c, 0, 45, 64
2, 171012, Note_off_c, 0, 57, 0
2, 171020, Note_on_c, 0, 60, 54
2, 171096, Note_on_c, 0, 59, 68
2, 171108, Note_off_c, 0, 60, 0
2, 171140, Note_off_c, 0, 59, 0
2, 171228, Note_on_c, 0, 47, 89
2, 171228, Note_on_c, 0, 35, 80
2, 171256, Note_on_c, 0, 69, 51
2, 171256, Control_c, 0, 64, 40
2, 171268, Control_c, 0, 64, 0
2, 171324, Note_off_c, 0, 69, 0
2, 171332, Control_c, 0, 64, 56
2, 171344, Note_on_c, 0, 64, 65
2, 171344, Control_c, 0, 64, 127
2, 171388, Note_off_c, 0, 35, 0
2, 171416, Note_off_c, 0, 64, 0
2, 171420, Note_on_c, 0, 68, 57
2, 171424, Note_off_c, 0, 47, 0
2, 171464, Note_off_c, 0, 68, 64
2, 171524, Note_on_c, 0, 71, 75
2, 171592, Note_off_c, 0, 71, 0
2, 171612, Note_on_c, 0, 81, 70
2, 171696, Note_on_c, 0, 76, 66
2, 171736, Note_off_c, 0, 81, 0
2, 171780, Note_off_c, 0, 76, 0
2, 171780, Note_on_c, 0, 80, 69
2, 171788, Control_c, 0, 64, 104
2, 171800, Note_on_c, 0, 64, 81
2, 171800, Note_on_c, 0, 56, 66
2, 171804, Control_c, 0, 64, 72
2, 171808, Note_on_c, 0, 59, 60
2, 171812, Note_off_c, 0, 80, 0
2, 171816, Control_c, 0, 64, 127
2, 171880, Note_on_c, 0, 83, 82
2, 171940, Note_off_c, 0, 64, 0
2, 171940, Note_off_c, 0, 56, 0
2, 171952, Note_off_c, 0, 59, 0
2, 171984, Note_on_c, 0, 93, 92
2, 171992, Note_on_c, 0, 68, 84
2, 172020, Note_off_c, 0, 83, 0
2, 172052, Note_off_c, 0, 68, 0
2, 172084, Note_on_c, 0, 88, 72
2, 172092, Note_off_c, 0, 93, 0
2, 172176, Note_on_c, 0, 92, 84
2, 172176, Note_on_c, 0, 73, 97
2, 172180, Note_off_c, 0, 88, 0
2, 172236, Note_off_c, 0, 73, 0
2, 172248, Note_off_c, 0, 92, 64
2, 172264, Note_on_c, 0, 83, 75
2, 172380, Note_on_c, 0, 71, 93
2, 172384, Note_on_c, 0, 69, 97
2, 172384, Note_on_c, 0, 59, 82
2, 172388, Note_on_c, 0, 63, 79
2, 172400, Control_c, 0, 64, 104
2, 172404, Note_off_c, 0, 83, 0
2, 172404, Note_on_c, 0, 92, 84
2, 172412, Control_c, 0, 64, 0
2, 172488, Control_c, 0, 64, 56
2, 172496, Note_on_c, 0, 87, 65
2, 172500, Control_c, 0, 64, 127
2, 172524, Note_off_c, 0, 92, 0
2, 172588, Note_on_c, 0, 90, 63
2, 172612, Note_off_c, 0, 71, 0
2, 172612, Note_off_c, 0, 69, 0
2, 172632, Note_off_c, 0, 59, 0
2, 172636, Note_off_c, 0, 87, 0
2, 172648, Note_off_c, 0, 63, 0
2, 172668, Note_off_c, 0, 90, 0
2, 172668, Note_on_c, 0, 83, 69
2, 172712, Note_off_c, 0, 83, 0
2, 172768, Note_on_c, 0, 80, 62
2, 172860, Note_on_c, 0, 75, 64
2, 172892, Note_off_c, 0, 80, 0
2, 172956, Note_on_c, 0, 78, 59
2, 172964, Note_off_c, 0, 75, 0
2, 172964, Note_on_c, 0, 47, 90
2, 172964, Note_on_c, 0, 59, 80
2, 173044, Note_off_c, 0, 78, 64
2, 173052, Note_on_c, 0, 71, 66
2, 173096, Note_off_c, 0, 71, 0
2, 173156, Note_on_c, 0, 68, 64
2, 173232, Note_on_c, 0, 63, 53
2, 173244, Note_off_c, 0, 59, 0
2, 173248, Note_off_c, 0, 68, 0
2, 173260, Note_off_c, 0, 47, 64
2, 173312, Note_off_c, 0, 63, 0
2, 173320, Note_on_c, 0, 66, 62
2, 173392, Note_off_c, 0, 66, 0
2, 173404, Note_on_c, 0, 59, 67
2, 173488, Note_off_c, 0, 59, 0
2, 173524, Note_on_c, 0, 40, 86
2, 173524, Note_on_c, 0, 52, 75
2, 173532, Note_on_c, 0, 69, 79
2, 173568, Control_c, 0, 64, 104
2, 173580, Control_c, 0, 64, 24
2, 173592, Control_c, 0, 64, 0
2, 173632, Note_on_c, 0, 64, 63
2, 173656, Control_c, 0, 64, 56
2, 173664, Note_off_c, 0, 69, 0
2, 173668, Control_c, 0, 64, 127
2, 173704, Note_on_c, 0, 68, 57
2, 173708, Note_off_c, 0, 64, 0
2, 173752, Note_off_c, 0, 68, 0
2, 173764, Note_off_c, 0, 40, 0
2, 173768, Note_off_c, 0, 52, 0
2, 173820, Note_on_c, 0, 71, 63
2, 173888, Note_off_c, 0, 71, 0
2, 173916, Note_on_c, 0, 81, 66
2, 173996, Note_on_c, 0, 76, 68
2, 174028, Note_off_c, 0, 81, 0
2, 174076, Note_on_c, 0, 80, 71
2, 174088, Note_off_c, 0, 76, 0
2, 174112, Note_on_c, 0, 68, 80
2, 174112, Note_on_c, 0, 59, 74
2, 174124, Note_off_c, 0, 80, 0
2, 174184, Note_on_c, 0, 83, 87
2, 174216, Note_off_c, 0, 68, 0
2, 174224, Note_off_c, 0, 59, 0
2, 174284, Note_on_c, 0, 93, 93
2, 174292, Note_on_c, 0, 67, 74
2, 174304, Note_on_c, 0, 58, 62
2, 174328, Note_off_c, 0, 83, 0
2, 174372, Note_off_c, 0, 67, 0
2, 174392, Note_on_c, 0, 88, 67
2, 174404, Note_off_c, 0, 93, 0
2, 174412, Note_off_c, 0, 58, 0
2, 174480, Note_on_c, 0, 68, 88
2, 174484, Note_on_c, 0, 92, 81
2, 174484, Note_on_c, 0, 59, 73
2, 174500, Note_off_c, 0, 88, 0
2, 174532, Note_off_c, 0, 68, 0
2, 174540, Note_off_c, 0, 59, 64
2, 174548, Note_off_c, 0, 92, 64
2, 174568, Note_on_c, 0, 83, 81
2, 174608, Note_off_c, 0, 83, 0
2, 174716, Note_on_c, 0, 100, 102
2, 174720, Note_on_c, 0, 64, 99
2, 174720, Note_on_c, 0, 56, 77
2, 174724, Note_on_c, 0, 52, 89
2, 174724, Control_c, 0, 64, 88
2, 174736, Control_c, 0, 64, 0
2, 174812, Control_c, 0, 64, 127
2, 174824, Note_off_c, 0, 52, 0
2, 174840, Note_off_c, 0, 64, 0
2, 174844, Note_off_c, 0, 100, 0
2, 174848, Note_off_c, 0, 56, 0
2, 175728, Control_c, 0, 64, 104
2, 175736, Control_c, 0, 64, 40
2, 175752, Control_c, 0, 64, 0
2, 175960, Note_on_c, 0, 33, 96
2, 175964, Note_on_c, 0, 101, 103
2, 175992, Control_c, 0, 64, 127
2, 176032, Note_off_c, 0, 33, 0
2, 176084, Note_on_c, 0, 96, 87
2, 176124, Note_off_c, 0, 101, 64
2, 176168, Note_on_c, 0, 100, 85
2, 176188, Note_off_c, 0, 96, 0
2, 176252, Note_off_c, 0, 100, 0
2, 176260, Note_on_c, 0, 93, 79
2, 176344, Note_on_c, 0, 99, 82
2, 176360, Note_off_c, 0, 93, 0
2, 176428, Note_on_c, 0, 96, 73
2, 176456, Note_off_c, 0, 99, 0
2, 176496, Note_off_c, 0, 96, 0
2, 176528, Note_on_c, 0, 64, 89
2, 176532, Note_on_c, 0, 98, 85
2, 176532, Note_on_c, 0, 57, 68
2, 176532, Note_on_c, 0, 60, 78
2, 176624, Note_on_c, 0, 93, 77
2, 176636, Note_off_c, 0, 98, 0
2, 176712, Note_off_c, 0, 93, 0
2, 176728, Note_on_c, 0, 97, 69
2, 176808, Note_on_c, 0, 93, 72
2, 176816, Note_off_c, 0, 57, 0
2, 176820, Note_off_c, 0, 60, 0
2, 176824, Note_off_c, 0, 64, 0
2, 176832, Note_off_c, 0, 97, 0
2, 176908, Note_off_c, 0, 93, 64
2, 176908, Note_on_c, 0, 96, 76
2, 176976, Note_on_c, 0, 64, 85
2, 176984, Note_on_c, 0, 57, 68
2, 176984, Note_on_c, 0, 60, 70
2, 176984, Note_on_c, 0, 88, 64
2, 177004, Note_off_c, 0, 96, 0
2, 177012, Note_off_c, 0, 60, 0
2, 177016, Note_off_c, 0, 64, 0
2, 177016, Note_off_c, 0, 57, 0
2, 177064, Note_off_c, 0, 88, 0
2, 177072, Note_on_c, 0, 64, 81
2, 177072, Note_on_c, 0, 57, 80
2, 177076, Note_on_c, 0, 60, 67
2, 177080, Note_on_c, 0, 95, 86
2, 177108, Control_c, 0, 64, 88
2, 177120, Control_c, 0, 64, 40
2, 177136, Control_c, 0, 64, 0
2, 177148, Control_c, 0, 64, 24
2, 177160, Control_c, 0, 64, 72
2, 177164, Note_on_c, 0, 88, 66
2, 177172, Control_c, 0, 64, 127
2, 177180, Note_off_c, 0, 95, 0
2, 177248, Note_off_c, 0, 88, 0
2, 177260, Note_on_c, 0, 94, 68
2, 177348, Note_off_c, 0, 94, 0
2, 177352, Note_on_c, 0, 84, 66
2, 177424, Note_off_c, 0, 57, 0
2, 177432, Note_off_c, 0, 60, 0
2, 177440, Note_off_c, 0, 84, 0
2, 177444, Note_off_c, 0, 64, 0
2, 177452, Note_on_c, 0, 93, 82
2, 177536, Note_on_c, 0, 88, 60
2, 177556, Note_off_c, 0, 93, 0
2, 177636, Note_on_c, 0, 65, 85
2, 177640, Note_on_c, 0, 92, 75
2, 177644, Note_off_c, 0, 88, 64
2, 177648, Note_on_c, 0, 60, 72
2, 177648, Note_on_c, 0, 57, 66
2, 177680, Control_c, 0, 64, 72
2, 177692, Control_c, 0, 64, 24
2, 177708, Control_c, 0, 64, 40
2, 177720, Control_c, 0, 64, 72
2, 177732, Note_on_c, 0, 84, 68
2, 177732, Control_c, 0, 64, 127
2, 177740, Note_off_c, 0, 92, 0
2, 177812, Note_off_c, 0, 84, 0
2, 177832, Note_on_c, 0, 91, 83
2, 177916, Note_on_c, 0, 84, 63
2, 177932, Note_off_c, 0, 91, 0
2, 177956, Note_off_c, 0, 65, 0
2, 177964, Note_off_c, 0, 57, 0
2, 177968, Note_off_c, 0, 60, 0
2, 177996, Note_off_c, 0, 84, 0
2, 178012, Note_on_c, 0, 90, 67
2, 178100, Note_off_c, 0, 90, 0
2, 178100, Note_on_c, 0, 81, 60
2, 178188, Note_on_c, 0, 64, 82
2, 178188, Note_on_c, 0, 60, 70
2, 178192, Note_on_c, 0, 57, 62
2, 178196, Note_on_c, 0, 89, 83
2, 178208, Note_off_c, 0, 81, 0
2, 178216, Control_c, 0, 64, 88
2, 178228, Control_c, 0, 64, 24
2, 178240, Control_c, 0, 64, 0
2, 178264, Control_c, 0, 64, 40
2, 178276, Control_c, 0, 64, 104
2, 178292, Note_on_c, 0, 84, 71
2, 178292, Control_c, 0, 64, 127
2, 178304, Note_off_c, 0, 89, 0
2, 178372, Note_off_c, 0, 84, 0
2, 178380, Note_on_c, 0, 88, 68
2, 178400, Note_off_c, 0, 60, 64
2, 178420, Note_off_c, 0, 57, 64
2, 178460, Note_off_c, 0, 88, 64
2, 178476, Note_on_c, 0, 81, 65
2, 178556, Note_on_c, 0, 87, 61
2, 178576, Note_off_c, 0, 81, 0
2, 178648, Note_off_c, 0, 64, 64
2, 178652, Note_on_c, 0, 84, 66
2, 178664, Note_off_c, 0, 87, 0
2, 178712, Note_off_c, 0, 84, 0
2, 178740, Note_on_c, 0, 60, 75
2, 178740, Note_on_c, 0, 57, 64
2, 178752, Note_on_c, 0, 52, 64
2, 178756, Note_on_c, 0, 86, 82
2, 178760, Control_c, 0, 64, 72
2, 178776, Control_c, 0, 64, 0
2, 178808, Control_c, 0, 64, 40
2, 178824, Control_c, 0, 64, 88
2, 178836, Control_c, 0, 64, 127
2, 178844, Note_on_c, 0, 81, 64
2, 178856, Note_off_c, 0, 86, 0
2, 178928, Note_off_c, 0, 81, 0
2, 178940, Note_on_c, 0, 85, 67
2, 179028, Note_on_c, 0, 81, 67
2, 179036, Note_off_c, 0, 85, 0
2, 179040, Note_off_c, 0, 57, 0
2, 179060, Note_off_c, 0, 60, 0
2, 179112, Note_off_c, 0, 81, 0
2, 179116, Note_on_c, 0, 84, 80
2, 179188, Note_off_c, 0, 84, 64
2, 179196, Note_on_c, 0, 76, 74
2, 179272, Note_off_c, 0, 76, 0
2, 179292, Note_on_c, 0, 83, 86
2, 179292, Note_on_c, 0, 64, 89
2, 179296, Note_on_c, 0, 60, 80
2, 179300, Note_on_c, 0, 57, 62
2, 179332, Control_c, 0, 64, 104
2, 179344, Control_c, 0, 64, 40
2, 179356, Note_off_c, 0, 52, 64
2, 179356, Control_c, 0, 64, 0
2, 179368, Control_c, 0, 64, 24
2, 179376, Note_on_c, 0, 76, 56
2, 179384, Note_off_c, 0, 83, 0
2, 179384, Control_c, 0, 64, 56
2, 179396, Control_c, 0, 64, 127
2, 179444, Note_off_c, 0, 76, 0
2, 179452, Note_on_c, 0, 82, 61
2, 179540, Note_off_c, 0, 82, 0
2, 179552, Note_on_c, 0, 72, 59
2, 179580, Note_off_c, 0, 57, 0
2, 179584, Note_off_c, 0, 60, 0
2, 179604, Note_off_c, 0, 64, 0
2, 179640, Note_off_c, 0, 72, 0
2, 179640, Note_on_c, 0, 81, 68
2, 179728, Note_on_c, 0, 76, 58
2, 179740, Note_off_c, 0, 81, 0
2, 179808, Note_off_c, 0, 76, 0
2, 179812, Note_on_c, 0, 80, 62
2, 179904, Note_off_c, 0, 80, 0
2, 179908, Note_on_c, 0, 72, 64
2, 179980, Note_off_c, 0, 72, 64
2, 179988, Note_on_c, 0, 79, 74
2, 180068, Note_on_c, 0, 72, 64
2, 180072, Note_off_c, 0, 79, 0
2, 180144, Note_off_c, 0, 72, 0
2, 180144, Note_on_c, 0, 78, 62
2, 180236, Note_off_c, 0, 78, 0
2, 180240, Note_on_c, 0, 69, 61
2, 180340, Note_off_c, 0, 69, 0
2, 180360, Note_on_c, 0, 77, 82
2, 180368, Note_on_c, 0, 31, 64
2, 180388, Control_c, 0, 64, 40
2, 180400, Control_c, 0, 64, 0
2, 180460, Note_off_c, 0, 77, 0
2, 180460, Note_on_c, 0, 72, 67
2, 180464, Control_c, 0, 64, 104
2, 180476, Control_c, 0, 64, 127
2, 180532, Note_off_c, 0, 31, 0
2, 180560, Note_off_c, 0, 72, 0
2, 180564, Note_on_c, 0, 76, 75
2, 180648, Note_on_c, 0, 69, 62
2, 180652, Note_off_c, 0, 76, 0
2, 180740, Note_off_c, 0, 69, 64
2, 180744, Note_on_c, 0, 75, 71
2, 180832, Note_on_c, 0, 72, 54
2, 180844, Note_off_c, 0, 75, 0
2, 180912, Note_off_c, 0, 72, 0
2, 180912, Note_on_c, 0, 52, 79
2, 180920, Note_on_c, 0, 74, 79
2, 180920, Note_on_c, 0, 43, 63
2, 180920, Control_c, 0, 64, 88
2, 180932, Control_c, 0, 64, 24
2, 180968, Control_c, 0, 64, 127
2, 181004, Note_on_c, 0, 69, 67
2, 181012, Note_off_c, 0, 74, 0
2, 181092, Note_on_c, 0, 73, 62
2, 181100, Note_off_c, 0, 69, 0
2, 181168, Note_off_c, 0, 43, 0
2, 181176, Note_on_c, 0, 69, 63
2, 181184, Note_off_c, 0, 52, 0
2, 181196, Note_off_c, 0, 73, 0
2, 181280, Note_off_c, 0, 69, 0
2, 181296, Note_on_c, 0, 72, 82
2, 181300, Note_on_c, 0, 52, 77
2, 181308, Note_on_c, 0, 43, 68
2, 181356, Note_off_c, 0, 52, 0
2, 181364, Note_off_c, 0, 43, 0
2, 181376, Note_off_c, 0, 72, 0
2, 181380, Note_on_c, 0, 64, 74
2, 181468, Note_on_c, 0, 43, 60
2, 181468, Note_on_c, 0, 52, 72
2, 181472, Note_on_c, 0, 71, 78
2, 181484, Note_off_c, 0, 64, 64
2, 181492, Control_c, 0, 64, 88
2, 181504, Control_c, 0, 64, 24
2, 181516, Control_c, 0, 64, 0
2, 181528, Control_c, 0, 64, 40
2, 181540, Control_c, 0, 64, 88
2, 181556, Note_on_c, 0, 64, 63
2, 181556, Control_c, 0, 64, 127
2, 181560, Note_off_c, 0, 71, 0
2, 181640, Note_off_c, 0, 64, 0
2, 181664, Note_on_c, 0, 70, 67
2, 181736, Note_off_c, 0, 70, 0
2, 181760, Note_on_c, 0, 60, 72
2, 181828, Note_off_c, 0, 60, 0
2, 181856, Note_on_c, 0, 69, 65
2, 181884, Note_off_c, 0, 43, 0
2, 181904, Note_off_c, 0, 52, 0
2, 181932, Note_off_c, 0, 69, 0
2, 181936, Note_on_c, 0, 64, 67
2, 182024, Note_off_c, 0, 64, 0
2, 182032, Note_on_c, 0, 68, 69
2, 182040, Note_on_c, 0, 53, 79
2, 182048, Control_c, 0, 64, 104
2, 182060, Control_c, 0, 64, 24
2, 182076, Control_c, 0, 64, 0
2, 182088, Control_c, 0, 64, 56
2, 182100, Control_c, 0, 64, 104
2, 182112, Control_c, 0, 64, 127
2, 182132, Note_off_c, 0, 68, 0
2, 182152, Note_on_c, 0, 60, 57
2, 182200, Note_off_c, 0, 60, 0
2, 182236, Note_on_c, 0, 67, 74
2, 182316, Note_off_c, 0, 67, 0
2, 182324, Note_on_c, 0, 60, 49
2, 182392, Note_off_c, 0, 53, 64
2, 182420, Note_off_c, 0, 60, 0
2, 182420, Note_on_c, 0, 66, 57
2, 182496, Note_on_c, 0, 57, 60
2, 182504, Note_off_c, 0, 66, 0
2, 182576, Note_off_c, 0, 57, 0
2, 182596, Note_on_c, 0, 65, 74
2, 182608, Note_on_c, 0, 52, 74
2, 182620, Control_c, 0, 64, 88
2, 182632, Control_c, 0, 64, 24
2, 182648, Control_c, 0, 64, 0
2, 182660, Control_c, 0, 64, 24
2, 182672, Control_c, 0, 64, 72
2, 182684, Control_c, 0, 64, 127
2, 182692, Note_off_c, 0, 65, 0
2, 182692, Note_on_c, 0, 60, 66
2, 182768, Note_on_c, 0, 64, 66
2, 182772, Note_off_c, 0, 60, 0
2, 182836, Note_off_c, 0, 52, 0
2, 182848, Note_off_c, 0, 64, 0
2, 182864, Note_on_c, 0, 57, 61
2, 182944, Note_off_c, 0, 57, 0
2, 182952, Note_on_c, 0, 63, 59
2, 183028, Note_on_c, 0, 60, 63
2, 183052, Note_off_c, 0, 63, 64
2, 183096, Note_off_c, 0, 60, 0
2, 183132, Note_on_c, 0, 62, 74
2, 183136, Note_on_c, 0, 36, 74
2, 183156, Control_c, 0, 64, 72
2, 183168, Control_c, 0, 64, 24
2, 183204, Control_c, 0, 64, 127
2, 183216, Note_off_c, 0, 62, 0
2, 183216, Note_on_c, 0, 57, 60
2, 183292, Note_on_c, 0, 61, 63
2, 183312, Note_off_c, 0, 57, 0
2, 183384, Note_on_c, 0, 57, 62
2, 183388, Note_off_c, 0, 61, 0
2, 183436, Note_off_c, 0, 36, 0
2, 183464, Note_off_c, 0, 57, 0
2, 183480, Note_on_c, 0, 60, 68
2, 183556, Note_on_c, 0, 52, 59
2, 183564, Note_off_c, 0, 60, 0
2, 183640, Note_off_c, 0, 52, 0
2, 183656, Note_on_c, 0, 29, 72
2, 183656, Note_on_c, 0, 59, 77
2, 183660, Control_c, 0, 64, 104
2, 183672, Control_c, 0, 64, 24
2, 183688, Control_c, 0, 64, 0
2, 183740, Control_c, 0, 64, 72
2, 183748, Control_c, 0, 64, 127
2, 183776, Note_on_c, 0, 53, 60
2, 183784, Note_off_c, 0, 59, 64
2, 183864, Note_off_c, 0, 53, 0
2, 183872, Note_on_c, 0, 57, 74
2, 183928, Note_off_c, 0, 29, 64
2, 183948, Note_off_c, 0, 57, 0
2, 183956, Note_on_c, 0, 48, 64
2, 184048, Note_on_c, 0, 56, 69
2, 184068, Note_off_c, 0, 48, 0
2, 184132, Note_on_c, 0, 53, 59
2, 184136, Note_off_c, 0, 56, 0
2, 184212, Note_off_c, 0, 53, 0
2, 184216, Note_on_c, 0, 57, 67
2, 184216, Note_on_c, 0, 28, 73
2, 184292, Note_off_c, 0, 57, 0
2, 184304, Note_on_c, 0, 48, 70
2, 184348, Note_off_c, 0, 28, 0
2, 184392, Note_on_c, 0, 59, 68
2, 184396, Control_c, 0, 64, 88
2, 184412, Control_c, 0, 64, 0
2, 184420, Note_off_c, 0, 48, 0
2, 184448, Control_c, 0, 64, 40
2, 184460, Control_c, 0, 64, 104
2, 184476, Control_c, 0, 64, 127
2, 184484, Note_on_c, 0, 52, 57
2, 184516, Note_off_c, 0, 59, 0
2, 184572, Note_off_c, 0, 52, 64
2, 184580, Note_on_c, 0, 60, 74
2, 184668, Note_off_c, 0, 60, 0
2, 184668, Note_on_c, 0, 48, 66
2, 184732, Note_off_c, 0, 48, 0
2, 184804, Note_on_c, 0, 60, 82
2, 184812, Note_on_c, 0, 38, 71
2, 184856, Control_c, 0, 64, 72
2, 184868, Control_c, 0, 64, 127
2, 184904, Note_on_c, 0, 53, 74
2, 184916, Note_off_c, 0, 60, 0
2, 184976, Note_off_c, 0, 38, 0
2, 184996, Note_on_c, 0, 59, 68
2, 185004, Note_off_c, 0, 53, 0
2, 185040, Note_off_c, 0, 59, 0
2, 185092, Note_on_c, 0, 59, 74
2, 185148, Note_off_c, 0, 59, 0
2, 185200, Note_on_c, 0, 72, 85
2, 185292, Note_on_c, 0, 65, 71
2, 185316, Note_off_c, 0, 72, 0
2, 185352, Control_c, 0, 64, 88
2, 185364, Control_c, 0, 64, 56
2, 185380, Note_off_c, 0, 65, 0
2, 185380, Note_on_c, 0, 57, 69
2, 185380, Control_c, 0, 64, 40
2, 185384, Note_on_c, 0, 71, 72
2, 185384, Note_on_c, 0, 65, 73
2, 185404, Control_c, 0, 64, 88
2, 185408, Control_c, 0, 64, 127
2, 185416, Note_off_c, 0, 71, 0
2, 185428, Note_off_c, 0, 65, 0
2, 185432, Note_off_c, 0, 57, 0
2, 185472, Note_on_c, 0, 71, 79
2, 185532, Note_off_c, 0, 71, 0
2, 185576, Note_on_c, 0, 84, 89
2, 185576, Note_on_c, 0, 49, 71
2, 185660, Note_off_c, 0, 49, 0
2, 185676, Note_on_c, 0, 77, 80
2, 185712, Note_off_c, 0, 84, 0
2, 185732, Note_on_c, 0, 50, 73
2, 185756, Note_off_c, 0, 77, 0
2, 185756, Note_on_c, 0, 83, 79
2, 185764, Note_off_c, 0, 50, 0
2, 185788, Note_off_c, 0, 83, 0
2, 185848, Note_on_c, 0, 83, 82
2, 185904, Note_off_c, 0, 83, 0
2, 185912, Note_on_c, 0, 51, 71
2, 185912, Control_c, 0, 64, 40
2, 185924, Control_c, 0, 64, 0
2, 185944, Note_on_c, 0, 57, 70
2, 185980, Note_on_c, 0, 96, 99
2, 185984, Note_off_c, 0, 51, 0
2, 185984, Control_c, 0, 64, 88
2, 185996, Control_c, 0, 64, 127
2, 186000, Note_on_c, 0, 66, 78
2, 186024, Note_off_c, 0, 57, 0
2, 186048, Note_off_c, 0, 66, 0
2, 186052, Note_off_c, 0, 96, 0
2, 186080, Note_on_c, 0, 90, 85
2, 186184, Note_on_c, 0, 95, 88
2, 186196, Note_off_c, 0, 90, 0
2, 186264, Note_off_c, 0, 95, 0
2, 186288, Note_on_c, 0, 83, 73
2, 186340, Note_off_c, 0, 83, 0
2, 186368, Note_on_c, 0, 84, 84
2, 186460, Note_on_c, 0, 78, 67
2, 186492, Note_off_c, 0, 84, 0
2, 186532, Note_off_c, 0, 78, 0
2, 186552, Note_on_c, 0, 83, 85
2, 186552, Note_on_c, 0, 39, 83
2, 186628, Note_off_c, 0, 83, 0
2, 186664, Note_on_c, 0, 71, 53
2, 186708, Note_off_c, 0, 71, 0
2, 186744, Note_on_c, 0, 72, 77
2, 186844, Note_on_c, 0, 66, 67
2, 186856, Note_off_c, 0, 72, 0
2, 186936, Note_off_c, 0, 66, 0
2, 186936, Note_on_c, 0, 71, 74
2, 187004, Note_on_c, 0, 59, 68
2, 187008, Note_off_c, 0, 71, 0
2, 187028, Note_off_c, 0, 59, 0
2, 187052, Note_on_c, 0, 66, 32
2, 187076, Note_off_c, 0, 39, 0
2, 187076, Note_off_c, 0, 66, 0
2, 187112, Control_c, 0, 64, 104
2, 187120, Note_on_c, 0, 40, 81
2, 187124, Note_on_c, 0, 74, 83
2, 187124, Control_c, 0, 64, 24
2, 187136, Control_c, 0, 64, 0
2, 187196, Control_c, 0, 64, 72
2, 187208, Control_c, 0, 64, 127
2, 187212, Note_on_c, 0, 67, 78
2, 187228, Note_off_c, 0, 74, 0
2, 187240, Note_off_c, 0, 40, 0
2, 187312, Note_on_c, 0, 73, 73
2, 187316, Note_off_c, 0, 67, 0
2, 187360, Note_off_c, 0, 73, 0
2, 187412, Note_on_c, 0, 73, 71
2, 187460, Note_off_c, 0, 73, 0
2, 187524, Note_on_c, 0, 86, 80
2, 187600, Note_on_c, 0, 79, 74
2, 187624, Note_off_c, 0, 86, 0
2, 187676, Note_on_c, 0, 85, 75
2, 187688, Note_off_c, 0, 79, 0
2, 187700, Note_on_c, 0, 67, 82
2, 187700, Note_on_c, 0, 58, 70
2, 187720, Note_off_c, 0, 85, 0
2, 187736, Note_off_c, 0, 67, 0
2, 187756, Note_off_c, 0, 58, 0
2, 187776, Note_on_c, 0, 85, 82
2, 187840, Note_off_c, 0, 85, 0
2, 187884, Note_on_c, 0, 51, 61
2, 187888, Note_on_c, 0, 98, 88
2, 187976, Note_on_c, 0, 94, 76
2, 187984, Note_off_c, 0, 98, 0
2, 187996, Note_off_c, 0, 51, 0
2, 188060, Note_on_c, 0, 52, 83
2, 188068, Note_off_c, 0, 94, 0
2, 188072, Note_on_c, 0, 98, 89
2, 188080, Note_on_c, 0, 97, 27
2, 188104, Note_off_c, 0, 52, 0
2, 188132, Note_off_c, 0, 98, 0
2, 188136, Note_off_c, 0, 97, 0
2, 188156, Note_on_c, 0, 85, 80
2, 188204, Control_c, 0, 64, 56
2, 188216, Note_off_c, 0, 85, 0
2, 188216, Control_c, 0, 64, 0
2, 188232, Note_on_c, 0, 53, 75
2, 188256, Note_on_c, 0, 62, 61
2, 188268, Note_on_c, 0, 58, 67
2, 188280, Note_off_c, 0, 53, 0
2, 188280, Control_c, 0, 64, 72
2, 188292, Control_c, 0, 64, 127
2, 188316, Note_on_c, 0, 99, 89
2, 188320, Note_on_c, 0, 70, 84
2, 188332, Note_off_c, 0, 58, 0
2, 188356, Note_off_c, 0, 62, 0
2, 188360, Note_off_c, 0, 70, 0
2, 188400, Note_off_c, 0, 99, 0
2, 188412, Note_on_c, 0, 94, 71
2, 188508, Note_on_c, 0, 98, 77
2, 188516, Note_off_c, 0, 94, 0
2, 188580, Note_off_c, 0, 98, 0
2, 188612, Note_on_c, 0, 88, 54
2, 188632, Note_off_c, 0, 88, 0
2, 188688, Note_on_c, 0, 87, 87
2, 188752, Note_off_c, 0, 87, 0
2, 188788, Note_on_c, 0, 82, 74
2, 188876, Note_on_c, 0, 41, 82
2, 188876, Note_on_c, 0, 53, 80
2, 188884, Note_on_c, 0, 86, 88
2, 188896, Note_off_c, 0, 82, 0
2, 188956, Note_off_c, 0, 86, 0
2, 188988, Note_on_c, 0, 74, 46
2, 189012, Note_off_c, 0, 74, 0
2, 189068, Note_on_c, 0, 75, 83
2, 189120, Note_off_c, 0, 53, 0
2, 189124, Note_off_c, 0, 41, 0
2, 189124, Note_off_c, 0, 75, 0
2, 189156, Note_on_c, 0, 70, 76
2, 189228, Note_off_c, 0, 70, 0
2, 189256, Note_on_c, 0, 74, 82
2, 189320, Note_off_c, 0, 74, 0
2, 189336, Note_on_c, 0, 62, 70
2, 189400, Note_off_c, 0, 62, 0
2, 189464, Note_on_c, 0, 76, 87
2, 189464, Note_on_c, 0, 41, 89
2, 189464, Note_on_c, 0, 29, 79
2, 189480, Control_c, 0, 64, 56
2, 189492, Control_c, 0, 64, 0
2, 189564, Control_c, 0, 64, 56
2, 189568, Note_on_c, 0, 69, 80
2, 189572, Note_off_c, 0, 76, 0
2, 189576, Control_c, 0, 64, 127
2, 189656, Note_on_c, 0, 75, 75
2, 189668, Note_off_c, 0, 29, 0
2, 189684, Note_off_c, 0, 69, 0
2, 189704, Note_off_c, 0, 41, 0
2, 189748, Note_off_c, 0, 75, 0
2, 189748, Note_on_c, 0, 63, 78
2, 189812, Note_off_c, 0, 63, 0
2, 189856, Note_on_c, 0, 76, 86
2, 189920, Note_on_c, 0, 69, 59
2, 189964, Note_off_c, 0, 76, 0
2, 190012, Note_on_c, 0, 75, 71
2, 190020, Note_on_c, 0, 53, 83
2, 190020, Note_on_c, 0, 65, 90
2, 190024, Note_off_c, 0, 69, 0
2, 190068, Note_off_c, 0, 75, 0
2, 190120, Note_on_c, 0, 75, 81
2, 190180, Note_off_c, 0, 75, 0
2, 190216, Note_on_c, 0, 88, 84
2, 190300, Note_on_c, 0, 81, 75
2, 190308, Note_off_c, 0, 53, 0
2, 190312, Note_off_c, 0, 88, 0
2, 190344, Note_off_c, 0, 65, 0
2, 190380, Note_on_c, 0, 87, 71
2, 190392, Note_off_c, 0, 81, 0
2, 190428, Note_off_c, 0, 87, 0
2, 190464, Note_on_c, 0, 53, 82
2, 190464, Note_on_c, 0, 65, 89
2, 190468, Note_on_c, 0, 87, 85
2, 190508, Note_off_c, 0, 53, 0
2, 190508, Note_off_c, 0, 65, 0
2, 190532, Note_off_c, 0, 87, 0
2, 190548, Note_on_c, 0, 65, 89
2, 190552, Note_on_c, 0, 53, 85
2, 190568, Note_on_c, 0, 100, 94
2, 190656, Note_off_c, 0, 100, 0
2, 190664, Note_on_c, 0, 93, 88
2, 190760, Note_on_c, 0, 99, 79
2, 190788, Note_off_c, 0, 93, 0
2, 190840, Note_off_c, 0, 53, 0
2, 190840, Note_off_c, 0, 99, 0
2, 190844, Note_on_c, 0, 87, 80
2, 190884, Note_off_c, 0, 87, 0
2, 190900, Note_off_c, 0, 65, 0
2, 190932, Note_on_c, 0, 88, 89
2, 190996, Note_off_c, 0, 88, 0
2, 191028, Note_on_c, 0, 81, 81
2, 191104, Note_off_c, 0, 81, 0
2, 191108, Note_on_c, 0, 67, 95
2, 191112, Note_on_c, 0, 55, 86
2, 191116, Note_on_c, 0, 87, 80
2, 191200, Note_off_c, 0, 87, 0
2, 191212, Note_on_c, 0, 75, 87
2, 191276, Note_off_c, 0, 75, 0
2, 191316, Note_on_c, 0, 88, 84
2, 191368, Note_off_c, 0, 67, 0
2, 191388, Note_off_c, 0, 55, 0
2, 191396, Note_off_c, 0, 88, 0
2, 191400, Note_on_c, 0, 81, 74
2, 191480, Note_on_c, 0, 87, 72
2, 191492, Note_off_c, 0, 81, 0
2, 191532, Note_off_c, 0, 87, 0
2, 191572, Note_on_c, 0, 87, 81
2, 191636, Note_off_c, 0, 87, 0
2, 191668, Note_on_c, 0, 65, 89
2, 191668, Control_c, 0, 64, 104
2, 191672, Note_on_c, 0, 53, 84
2, 191676, Note_on_c, 0, 100, 93
2, 191680, Control_c, 0, 64, 40
2, 191692, Control_c, 0, 64, 24
2, 191704, Control_c, 0, 64, 56
2, 191716, Control_c, 0, 64, 127
2, 191756, Note_off_c, 0, 100, 0
2, 191776, Note_on_c, 0, 93, 88
2, 191812, Note_off_c, 0, 65, 0
2, 191844, Note_off_c, 0, 53, 0
2, 191872, Note_on_c, 0, 99, 81
2, 191896, Note_off_c, 0, 93, 0
2, 191956, Note_off_c, 0, 99, 0
2, 191956, Note_on_c, 0, 87, 79
2, 192004, Note_off_c, 0, 87, 0
2, 192052, Note_on_c, 0, 88, 85
2, 192128, Note_off_c, 0, 88, 0
2, 192140, Note_on_c, 0, 81, 79
2, 192216, Note_off_c, 0, 81, 0
2, 192220, Note_on_c, 0, 60, 89
2, 192224, Note_on_c, 0, 48, 82
2, 192236, Note_on_c, 0, 87, 80
2, 192312, Note_off_c, 0, 48, 0
2, 192316, Note_off_c, 0, 87, 0
2, 192316, Note_on_c, 0, 75, 82
2, 192324, Note_off_c, 0, 60, 0
2, 192412, Note_off_c, 0, 75, 0
2, 192424, Note_on_c, 0, 88, 83
2, 192516, Note_on_c, 0, 81, 67
2, 192524, Note_off_c, 0, 88, 0
2, 192584, Note_on_c, 0, 87, 72
2, 192596, Note_off_c, 0, 81, 0
2, 192636, Note_off_c, 0, 87, 0
2, 192676, Note_on_c, 0, 87, 74
2, 192744, Note_off_c, 0, 87, 0
2, 192780, Note_on_c, 0, 100, 96
2, 192780, Note_on_c, 0, 65, 91
2, 192780, Note_on_c, 0, 53, 84
2, 192808, Control_c, 0, 64, 104
2, 192820, Control_c, 0, 64, 24
2, 192832, Control_c, 0, 64, 0
2, 192872, Note_on_c, 0, 93, 85
2, 192880, Control_c, 0, 64, 40
2, 192888, Note_off_c, 0, 100, 0
2, 192892, Control_c, 0, 64, 127
2, 192968, Note_on_c, 0, 99, 75
2, 192972, Note_off_c, 0, 53, 0
2, 192980, Note_off_c, 0, 93, 0
2, 193012, Note_off_c, 0, 65, 0
2, 193040, Note_off_c, 0, 99, 0
2, 193040, Note_on_c, 0, 87, 77
2, 193116, Note_off_c, 0, 87, 0
2, 193136, Note_on_c, 0, 100, 92
2, 193224, Note_on_c, 0, 93, 74
2, 193228, Note_off_c, 0, 100, 0
2, 193300, Note_off_c, 0, 93, 0
2, 193312, Note_on_c, 0, 99, 84
2, 193396, Note_on_c, 0, 87, 75
2, 193412, Note_off_c, 0, 99, 0
2, 193472, Note_off_c, 0, 87, 0
2, 193480, Note_on_c, 0, 100, 97
2, 193572, Note_on_c, 0, 93, 79
2, 193584, Note_off_c, 0, 100, 0
2, 193664, Note_on_c, 0, 99, 85
2, 193668, Note_off_c, 0, 93, 0
2, 193740, Note_off_c, 0, 99, 0
2, 193748, Note_on_c, 0, 87, 61
2, 193820, Note_off_c, 0, 87, 0
2, 193840, Control_c, 0, 64, 88
2, 193852, Control_c, 0, 64, 0
2, 193860, Note_on_c, 0, 41, 47
2, 193876, Note_on_c, 0, 100, 70
2, 193912, Control_c, 0, 64, 72
2, 193924, Control_c, 0, 64, 127
2, 193956, Note_off_c, 0, 41, 0
2, 193964, Note_on_c, 0, 47, 49
2, 193968, Note_off_c, 0, 100, 0
2, 193980, Note_on_c, 0, 95, 63
2, 194040, Note_off_c, 0, 47, 0
2, 194060, Note_off_c, 0, 95, 0
2, 194064, Note_on_c, 0, 45, 46
2, 194064, Note_on_c, 0, 99, 60
2, 194096, Note_off_c, 0, 45, 0
2, 194136, Note_on_c, 0, 51, 38
2, 194156, Note_off_c, 0, 99, 0
2, 194156, Note_on_c, 0, 93, 64
2, 194192, Note_off_c, 0, 51, 0
2, 194224, Note_off_c, 0, 93, 0
2, 194240, Note_on_c, 0, 45, 56
2, 194252, Note_on_c, 0, 100, 76
2, 194320, Note_off_c, 0, 45, 0
2, 194324, Note_on_c, 0, 51, 57
2, 194336, Note_off_c, 0, 100, 0
2, 194344, Note_on_c, 0, 95, 71
2, 194420, Note_off_c, 0, 95, 0
2, 194432, Note_on_c, 0, 99, 71
2, 194436, Note_on_c, 0, 47, 56
2, 194440, Note_off_c, 0, 51, 0
2, 194496, Note_off_c, 0, 47, 0
2, 194520, Note_off_c, 0, 99, 0
2, 194528, Note_on_c, 0, 93, 72
2, 194528, Note_on_c, 0, 53, 44
2, 194560, Note_off_c, 0, 53, 0
2, 194600, Note_off_c, 0, 93, 0
2, 194616, Note_on_c, 0, 47, 52
2, 194624, Note_on_c, 0, 100, 81
2, 194688, Note_on_c, 0, 53, 55
2, 194692, Note_off_c, 0, 47, 0
2, 194712, Note_off_c, 0, 100, 0
2, 194712, Note_on_c, 0, 95, 77
2, 194780, Note_on_c, 0, 51, 54
2, 194796, Note_off_c, 0, 53, 0
2, 194800, Note_off_c, 0, 95, 0
2, 194804, Note_on_c, 0, 99, 76
2, 194852, Note_off_c, 0, 51, 0
2, 194864, Note_on_c, 0, 57, 51
2, 194892, Note_on_c, 0, 93, 70
2, 194896, Note_off_c, 0, 99, 0
2, 194936, Note_off_c, 0, 57, 0
2, 194964, Note_off_c, 0, 93, 0
2, 194964, Note_on_c, 0, 51, 58
2, 194968, Control_c, 0, 64, 88
2, 194980, Control_c, 0, 64, 24
2, 194988, Note_on_c, 0, 100, 89
2, 194992, Control_c, 0, 64, 56
2, 195004, Control_c, 0, 64, 104
2, 195016, Control_c, 0, 64, 127
2, 195068, Note_on_c, 0, 57, 58
2, 195080, Note_off_c, 0, 51, 0
2, 195080, Note_on_c, 0, 95, 78
2, 195088, Note_off_c, 0, 100, 0
2, 195168, Note_on_c, 0, 99, 77
2, 195168, Note_on_c, 0, 53, 63
2, 195180, Note_off_c, 0, 57, 0
2, 195184, Note_off_c, 0, 95, 0
2, 195236, Note_off_c, 0, 53, 0
2, 195256, Note_on_c, 0, 93, 75
2, 195256, Note_on_c, 0, 59, 46
2, 195260, Note_off_c, 0, 99, 0
2, 195324, Note_off_c, 0, 59, 0
2, 195332, Note_off_c, 0, 93, 0
2, 195344, Note_on_c, 0, 100, 88
2, 195356, Note_on_c, 0, 53, 63
2, 195432, Note_off_c, 0, 100, 0
2, 195436, Note_on_c, 0, 95, 85
2, 195448, Note_on_c, 0, 59, 63
2, 195452, Note_off_c, 0, 53, 0
2, 195528, Note_on_c, 0, 99, 87
2, 195532, Note_off_c, 0, 95, 0
2, 195540, Note_on_c, 0, 57, 69
2, 195556, Note_off_c, 0, 59, 0
2, 195556, Note_on_c, 0, 97, 32
2, 195576, Note_off_c, 0, 97, 0
2, 195604, Note_off_c, 0, 57, 0
2, 195620, Note_on_c, 0, 93, 84
2, 195620, Note_on_c, 0, 63, 67
2, 195632, Note_off_c, 0, 99, 0
2, 195680, Note_off_c, 0, 63, 0
2, 195696, Note_off_c, 0, 93, 0
2, 195708, Note_on_c, 0, 100, 93
2, 195716, Note_on_c, 0, 57, 60
2, 195800, Note_on_c, 0, 63, 56
2, 195804, Note_off_c, 0, 100, 0
2, 195804, Note_on_c, 0, 95, 86
2, 195808, Note_off_c, 0, 57, 0
2, 195888, Note_on_c, 0, 99, 84
2, 195892, Note_on_c, 0, 59, 60
2, 195900, Note_off_c, 0, 95, 0
2, 195916, Note_on_c, 0, 97, 27
2, 195920, Note_off_c, 0, 63, 0
2, 195936, Note_off_c, 0, 97, 0
2, 195964, Note_off_c, 0, 59, 0
2, 195976, Note_on_c, 0, 93, 84
2, 195980, Note_on_c, 0, 65, 51
2, 195992, Note_off_c, 0, 99, 0
2, 196036, Note_off_c, 0, 65, 0
2, 196056, Note_off_c, 0, 93, 0
2, 196068, Note_on_c, 0, 100, 100
2, 196072, Note_on_c, 0, 59, 66
2, 196156, Note_on_c, 0, 65, 38
2, 196160, Note_on_c, 0, 95, 85
2, 196168, Note_off_c, 0, 59, 0
2, 196180, Note_off_c, 0, 100, 0
2, 196240, Note_on_c, 0, 63, 50
2, 196248, Note_on_c, 0, 99, 85
2, 196264, Note_off_c, 0, 95, 0
2, 196280, Note_off_c, 0, 65, 0
2, 196312, Note_off_c, 0, 63, 0
2, 196312, Note_on_c, 0, 69, 61
2, 196340, Note_on_c, 0, 93, 82
2, 196356, Note_off_c, 0, 99, 0
2, 196376, Note_off_c, 0, 69, 0
2, 196404, Note_on_c, 0, 63, 54
2, 196420, Note_off_c, 0, 93, 0
2, 196428, Note_on_c, 0, 100, 97
2, 196508, Note_on_c, 0, 69, 66
2, 196520, Note_on_c, 0, 95, 89
2, 196532, Note_off_c, 0, 100, 0
2, 196556, Note_off_c, 0, 63, 0
2, 196604, Note_on_c, 0, 99, 88
2, 196608, Note_on_c, 0, 65, 61
2, 196624, Note_off_c, 0, 95, 0
2, 196632, Note_on_c, 0, 97, 37
2, 196640, Note_off_c, 0, 69, 0
2, 196652, Note_off_c, 0, 97, 0
2, 196680, Note_off_c, 0, 65, 0
2, 196692, Note_on_c, 0, 93, 90
2, 196692, Note_on_c, 0, 71, 63
2, 196712, Note_off_c, 0, 99, 0
2, 196752, Note_off_c, 0, 71, 0
2, 196764, Note_off_c, 0, 93, 0
2, 196776, Note_on_c, 0, 100, 93
2, 196780, Note_on_c, 0, 65, 55
2, 196860, Note_on_c, 0, 71, 66
2, 196868, Note_on_c, 0, 95, 93
2, 196880, Note_off_c, 0, 100, 0
2, 196880, Note_off_c, 0, 65, 0
2, 196952, Note_on_c, 0, 99, 87
2, 196960, Note_off_c, 0, 95, 0
2, 196964, Note_on_c, 0, 69, 65
2, 196976, Note_on_c, 0, 97, 36
2, 196988, Note_off_c, 0, 71, 0
2, 196996, Note_off_c, 0, 97, 0
2, 197020, Note_off_c, 0, 69, 0
2, 197036, Note_on_c, 0, 75, 65
2, 197036, Note_on_c, 0, 93, 87
2, 197056, Note_off_c, 0, 99, 0
2, 197092, Note_off_c, 0, 75, 0
2, 197104, Note_off_c, 0, 93, 0
2, 197124, Note_on_c, 0, 100, 105
2, 197124, Note_on_c, 0, 69, 71
2, 197208, Note_on_c, 0, 75, 60
2, 197220, Note_on_c, 0, 95, 93
2, 197228, Note_off_c, 0, 100, 0
2, 197228, Note_off_c, 0, 69, 0
2, 197300, Note_on_c, 0, 99, 85
2, 197300, Note_on_c, 0, 71, 69
2, 197308, Note_off_c, 0, 95, 0
2, 197336, Note_off_c, 0, 75, 0
2, 197372, Note_off_c, 0, 71, 0
2, 197384, Note_on_c, 0, 93, 90
2, 197388, Note_on_c, 0, 77, 71
2, 197412, Note_off_c, 0, 99, 0
2, 197444, Note_off_c, 0, 77, 0
2, 197460, Note_off_c, 0, 93, 0
2, 197472, Note_on_c, 0, 71, 62
2, 197472, Note_on_c, 0, 100, 99
2, 197556, Note_on_c, 0, 77, 68
2, 197564, Note_on_c, 0, 95, 90
2, 197568, Note_off_c, 0, 71, 0
2, 197576, Note_off_c, 0, 100, 0
2, 197644, Note_on_c, 0, 99, 82
2, 197652, Note_on_c, 0, 75, 61
2, 197656, Note_off_c, 0, 95, 0
2, 197668, Note_on_c, 0, 97, 44
2, 197684, Note_off_c, 0, 77, 0
2, 197692, Note_off_c, 0, 97, 0
2, 197728, Note_off_c, 0, 75, 0
2, 197740, Note_on_c, 0, 93, 89
2, 197744, Note_on_c, 0, 81, 66
2, 197772, Note_off_c, 0, 99, 0
2, 197800, Note_off_c, 0, 81, 0
2, 197816, Note_off_c, 0, 93, 0
2, 197824, Note_on_c, 0, 75, 58
2, 197828, Note_on_c, 0, 100, 99
2, 197920, Note_on_c, 0, 95, 94
2, 197924, Note_on_c, 0, 81, 71
2, 197932, Note_off_c, 0, 100, 0
2, 197952, Note_off_c, 0, 75, 0
2, 198004, Note_off_c, 0, 81, 0
2, 198012, Note_on_c, 0, 99, 90
2, 198024, Note_off_c, 0, 95, 0
2, 198024, Note_on_c, 0, 77, 74
2, 198028, Note_on_c, 0, 97, 57
2, 198052, Note_off_c, 0, 97, 0
2, 198088, Note_off_c, 0, 77, 0
2, 198088, Note_on_c, 0, 83, 68
2, 198096, Note_off_c, 0, 99, 0
2, 198096, Note_on_c, 0, 93, 94
2, 198108, Note_off_c, 0, 83, 0
2, 198172, Note_off_c, 0, 93, 0
2, 198252, Note_on_c, 0, 101, 107
2, 198260, Control_c, 0, 64, 88
2, 198264, Note_on_c, 0, 64, 73
2, 198268, Note_on_c, 0, 72, 89
2, 198272, Note_on_c, 0, 76, 96
2, 198272, Control_c, 0, 64, 0
2, 198276, Note_on_c, 0, 69, 82
2, 198344, Control_c, 0, 64, 72
2, 198356, Control_c, 0, 64, 127
2, 198380, Note_on_c, 0, 96, 90
2, 198412, Note_off_c, 0, 64, 0
2, 198420, Note_off_c, 0, 101, 0
2, 198428, Note_off_c, 0, 69, 0
2, 198440, Note_off_c, 0, 72, 0
2, 198452, Note_off_c, 0, 76, 0
2, 198472, Note_on_c, 0, 100, 86
2, 198488, Note_off_c, 0, 96, 0
2, 198556, Note_off_c, 0, 100, 0
2, 198560, Note_on_c, 0, 93, 85
2, 198628, Note_off_c, 0, 93, 0
2, 198660, Note_on_c, 0, 98, 94
2, 198660, Note_on_c, 0, 86, 72
2, 198732, Note_off_c, 0, 86, 0
2, 198760, Note_off_c, 0, 98, 0
2, 198764, Note_on_c, 0, 93, 87
2, 198764, Note_on_c, 0, 81, 63
2, 198824, Note_off_c, 0, 81, 0
2, 198844, Note_on_c, 0, 96, 80
2, 198844, Note_on_c, 0, 84, 74
2, 198852, Note_off_c, 0, 93, 0
2, 198900, Note_off_c, 0, 84, 0
2, 198928, Note_off_c, 0, 96, 0
2, 198936, Note_on_c, 0, 88, 75
2, 198936, Note_on_c, 0, 76, 66
2, 198996, Note_off_c, 0, 88, 0
2, 198996, Note_off_c, 0, 76, 0
2, 199020, Note_on_c, 0, 95, 96
2, 199020, Note_on_c, 0, 83, 74
2, 199080, Note_off_c, 0, 83, 0
2, 199108, Note_off_c, 0, 95, 0
2, 199116, Note_on_c, 0, 88, 86
2, 199116, Note_on_c, 0, 76, 68
2, 199188, Note_off_c, 0, 76, 0
2, 199208, Note_on_c, 0, 93, 87
2, 199208, Note_on_c, 0, 81, 71
2, 199232, Note_off_c, 0, 88, 0
2, 199276, Note_off_c, 0, 81, 0
2, 199288, Note_off_c, 0, 93, 0
2, 199292, Note_on_c, 0, 84, 83
2, 199292, Note_on_c, 0, 72, 81
2, 199340, Note_off_c, 0, 72, 0
2, 199344, Note_off_c, 0, 84, 0
2, 199388, Note_on_c, 0, 77, 74
2, 199388, Note_on_c, 0, 89, 94
2, 199456, Note_off_c, 0, 77, 0
2, 199472, Note_off_c, 0, 89, 0
2, 199476, Note_on_c, 0, 84, 89
2, 199476, Note_on_c, 0, 72, 65
2, 199544, Note_off_c, 0, 72, 0
2, 199568, Note_on_c, 0, 88, 81
2, 199568, Note_on_c, 0, 76, 68
2, 199576, Note_off_c, 0, 84, 0
2, 199640, Note_off_c, 0, 76, 0
2, 199652, Note_off_c, 0, 88, 0
2, 199668, Note_on_c, 0, 81, 69
2, 199668, Note_on_c, 0, 69, 61
2, 199688, Note_off_c, 0, 81, 0
2, 199732, Note_off_c, 0, 69, 0
2, 199744, Note_on_c, 0, 86, 96
2, 199744, Note_on_c, 0, 74, 70
2, 199820, Note_off_c, 0, 74, 0
2, 199832, Note_on_c, 0, 81, 84
2, 199832, Note_on_c, 0, 69, 55
2, 199848, Note_off_c, 0, 86, 0
2, 199908, Note_off_c, 0, 69, 0
2, 199908, Note_on_c, 0, 84, 79
2, 199908, Note_on_c, 0, 72, 73
2, 199932, Note_off_c, 0, 81, 0
2, 199972, Note_off_c, 0, 72, 0
2, 199988, Note_off_c, 0, 84, 0
2, 199992, Note_on_c, 0, 76, 83
2, 199992, Note_on_c, 0, 64, 47
2, 200040, Note_off_c, 0, 64, 0
2, 200060, Note_off_c, 0, 76, 0
2, 200072, Note_on_c, 0, 83, 96
2, 200072, Note_on_c, 0, 71, 67
2, 200136, Note_off_c, 0, 71, 0
2, 200172, Note_off_c, 0, 83, 0
2, 200172, Note_on_c, 0, 76, 88
2, 200172, Note_on_c, 0, 64, 63
2, 200252, Note_off_c, 0, 64, 0
2, 200264, Note_on_c, 0, 81, 79
2, 200264, Note_on_c, 0, 69, 60
2, 200284, Note_off_c, 0, 76, 0
2, 200332, Note_off_c, 0, 69, 0
2, 200348, Note_on_c, 0, 72, 87
2, 200348, Note_on_c, 0, 60, 70
2, 200352, Note_off_c, 0, 81, 0
2, 200404, Note_off_c, 0, 60, 0
2, 200408, Note_off_c, 0, 72, 0
2, 200444, Note_on_c, 0, 65, 69
2, 200444, Note_on_c, 0, 77, 96
2, 200528, Note_off_c, 0, 65, 0
2, 200532, Note_on_c, 0, 72, 89
2, 200532, Note_on_c, 0, 60, 59
2, 200548, Note_off_c, 0, 77, 0
2, 200604, Note_off_c, 0, 60, 0
2, 200620, Note_on_c, 0, 76, 83
2, 200620, Note_on_c, 0, 64, 68
2, 200628, Note_off_c, 0, 72, 0
2, 200684, Note_off_c, 0, 64, 0
2, 200700, Note_off_c, 0, 76, 0
2, 200700, Note_on_c, 0, 69, 74
2, 200700, Note_on_c, 0, 57, 63
2, 200764, Note_off_c, 0, 69, 0
2, 200764, Note_off_c, 0, 57, 0
2, 200788, Note_on_c, 0, 74, 99
2, 200788, Note_on_c, 0, 62, 65
2, 200856, Note_off_c, 0, 62, 0
2, 200880, Note_on_c, 0, 69, 78
2, 200880, Note_on_c, 0, 57, 62
2, 200888, Note_off_c, 0, 74, 0
2, 200944, Note_off_c, 0, 57, 0
2, 200952, Note_on_c, 0, 72, 81
2, 200952, Note_on_c, 0, 60, 72
2, 200980, Note_off_c, 0, 69, 0
2, 201016, Note_off_c, 0, 60, 0
2, 201040, Note_off_c, 0, 72, 0
2, 201044, Note_on_c, 0, 64, 82
2, 201044, Note_on_c, 0, 52, 59
2, 201092, Note_off_c, 0, 52, 0
2, 201124, Note_off_c, 0, 64, 0
2, 201136, Note_on_c, 0, 71, 90
2, 201136, Note_on_c, 0, 59, 58
2, 201196, Note_off_c, 0, 59, 0
2, 201224, Note_on_c, 0, 64, 85
2, 201224, Note_on_c, 0, 52, 63
2, 201236, Note_off_c, 0, 71, 0
2, 201308, Note_on_c, 0, 69, 74
2, 201308, Note_on_c, 0, 57, 68
2, 201312, Note_off_c, 0, 52, 0
2, 201332, Note_off_c, 0, 64, 0
2, 201400, Note_off_c, 0, 57, 0
2, 201404, Note_off_c, 0, 69, 0
2, 201404, Note_on_c, 0, 60, 86
2, 201404, Note_on_c, 0, 48, 77
2, 201432, Note_off_c, 0, 48, 0
2, 201480, Note_off_c, 0, 60, 0
2, 201536, Note_on_c, 0, 71, 90
2, 201552, Note_on_c, 0, 59, 87
2, 201552, Note_on_c, 0, 64, 84
2, 201552, Note_on_c, 0, 69, 80
2, 201556, Note_on_c, 0, 52, 87
2, 201560, Note_on_c, 0, 40, 85
2, 201600, Control_c, 0, 64, 72
2, 201612, Control_c, 0, 64, 0
2, 201708, Control_c, 0, 64, 72
2, 201720, Control_c, 0, 64, 127
2, 201764, Note_off_c, 0, 59, 0
2, 201776, Note_off_c, 0, 52, 0
2, 201784, Note_off_c, 0, 64, 0
2, 201800, Note_off_c, 0, 40, 0
2, 201812, Note_off_c, 0, 69, 0
2, 201828, Note_off_c, 0, 71, 0
2, 202192, Note_on_c, 0, 76, 107
2, 202200, Note_on_c, 0, 68, 79
2, 202200, Note_on_c, 0, 62, 89
2, 202200, Note_on_c, 0, 64, 89
2, 202200, Note_on_c, 0, 71, 89
2, 202204, Note_on_c, 0, 28, 82
2, 202204, Note_on_c, 0, 40, 93
2, 202204, Control_c, 0, 64, 104
2, 202220, Control_c, 0, 64, 24
2, 202232, Control_c, 0, 64, 0
2, 202272, Note_off_c, 0, 28, 0
2, 202292, Control_c, 0, 64, 56
2, 202300, Note_off_c, 0, 40, 0
2, 202304, Control_c, 0, 64, 127
2, 202312, Note_off_c, 0, 62, 0
2, 202312, Note_off_c, 0, 64, 0
2, 202328, Note_off_c, 0, 68, 0
2, 202332, Note_off_c, 0, 71, 0
2, 202344, Note_off_c, 0, 76, 0
2, 202772, Note_on_c, 0, 33, 93
2, 202772, Note_on_c, 0, 93, 112
2, 202796, Control_c, 0, 64, 72
2, 202812, Control_c, 0, 64, 127
2, 202896, Note_on_c, 0, 88, 86
2, 202920, Note_off_c, 0, 33, 0
2, 202932, Note_off_c, 0, 93, 0
2, 202932, Note_on_c, 0, 40, 63
2, 202976, Note_on_c, 0, 92, 83
2, 202992, Note_off_c, 0, 88, 0
2, 203044, Note_off_c, 0, 40, 0
2, 203060, Note_on_c, 0, 48, 63
2, 203064, Note_on_c, 0, 84, 80
2, 203072, Note_off_c, 0, 92, 0
2, 203120, Note_off_c, 0, 48, 0
2, 203148, Note_off_c, 0, 84, 0
2, 203156, Note_on_c, 0, 91, 89
2, 203176, Note_on_c, 0, 40, 62
2, 203236, Note_on_c, 0, 88, 86
2, 203260, Note_off_c, 0, 91, 0
2, 203316, Note_off_c, 0, 40, 0
2, 203316, Note_off_c, 0, 88, 0
2, 203316, Note_on_c, 0, 90, 87
2, 203324, Note_on_c, 0, 33, 86
2, 203408, Note_on_c, 0, 84, 84
2, 203424, Note_off_c, 0, 90, 0
2, 203428, Note_off_c, 0, 33, 0
2, 203460, Note_on_c, 0, 40, 66
2, 203484, Note_off_c, 0, 84, 0
2, 203484, Note_on_c, 0, 89, 89
2, 203552, Note_off_c, 0, 40, 0
2, 203572, Note_on_c, 0, 84, 82
2, 203584, Note_on_c, 0, 48, 63
2, 203588, Note_off_c, 0, 89, 0
2, 203648, Note_off_c, 0, 84, 0
2, 203648, Note_off_c, 0, 48, 0
2, 203652, Note_on_c, 0, 88, 83
2, 203696, Note_on_c, 0, 40, 58
2, 203728, Note_on_c, 0, 84, 88
2, 203736, Note_off_c, 0, 88, 0
2, 203820, Note_off_c, 0, 84, 0
2, 203828, Note_on_c, 0, 87, 48
2, 203828, Note_on_c, 0, 88, 88
2, 203832, Note_off_c, 0, 40, 0
2, 203840, Note_on_c, 0, 33, 85
2, 203876, Note_off_c, 0, 87, 0
2, 203896, Note_off_c, 0, 88, 0
2, 203912, Note_on_c, 0, 81, 80
2, 203940, Note_off_c, 0, 33, 0
2, 203976, Note_on_c, 0, 40, 64
2, 203984, Note_off_c, 0, 81, 0
2, 204000, Note_on_c, 0, 86, 88
2, 204080, Note_on_c, 0, 81, 82
2, 204084, Note_off_c, 0, 40, 0
2, 204092, Note_off_c, 0, 86, 0
2, 204100, Note_on_c, 0, 48, 66
2, 204156, Note_off_c, 0, 81, 0
2, 204164, Note_off_c, 0, 48, 0
2, 204168, Note_on_c, 0, 85, 83
2, 204204, Note_on_c, 0, 40, 63
2, 204240, Note_on_c, 0, 81, 82
2, 204260, Note_off_c, 0, 85, 0
2, 204320, Note_off_c, 0, 40, 64
2, 204328, Note_on_c, 0, 35, 86
2, 204328, Note_on_c, 0, 84, 92
2, 204332, Note_off_c, 0, 81, 64
2, 204408, Note_on_c, 0, 76, 82
2, 204416, Note_off_c, 0, 35, 0
2, 204416, Note_off_c, 0, 84, 0
2, 204444, Note_on_c, 0, 40, 62
2, 204484, Note_off_c, 0, 76, 0
2, 204488, Note_on_c, 0, 83, 94
2, 204528, Note_off_c, 0, 40, 0
2, 204552, Note_on_c, 0, 48, 64
2, 204568, Note_on_c, 0, 76, 82
2, 204576, Note_off_c, 0, 83, 0
2, 204616, Note_off_c, 0, 48, 0
2, 204644, Note_on_c, 0, 82, 83
2, 204656, Note_off_c, 0, 76, 0
2, 204664, Note_on_c, 0, 40, 59
2, 204728, Note_on_c, 0, 72, 83
2, 204744, Note_off_c, 0, 82, 0
2, 204812, Note_off_c, 0, 40, 0
2, 204816, Note_off_c, 0, 72, 0
2, 204816, Note_on_c, 0, 81, 99
2, 204820, Note_on_c, 0, 33, 83
2, 204836, Control_c, 0, 64, 72
2, 204848, Control_c, 0, 64, 0
2, 204884, Control_c, 0, 64, 40
2, 204896, Control_c, 0, 64, 88
2, 204904, Note_on_c, 0, 76, 87
2, 204908, Control_c, 0, 64, 127
2, 204924, Note_off_c, 0, 81, 0
2, 204928, Note_off_c, 0, 33, 0
2, 204944, Note_on_c, 0, 40, 55
2, 204984, Note_on_c, 0, 80, 81
2, 205004, Note_on_c, 0, 78, 43
2, 205008, Note_off_c, 0, 76, 0
2, 205032, Note_off_c, 0, 78, 0
2, 205052, Note_off_c, 0, 40, 0
2, 205072, Note_off_c, 0, 80, 0
2, 205072, Note_on_c, 0, 48, 64
2, 205076, Note_on_c, 0, 72, 82
2, 205132, Note_off_c, 0, 48, 0
2, 205148, Note_off_c, 0, 72, 0
2, 205160, Note_on_c, 0, 79, 89
2, 205180, Note_on_c, 0, 40, 58
2, 205228, Note_on_c, 0, 76, 83
2, 205240, Note_off_c, 0, 79, 0
2, 205308, Note_off_c, 0, 76, 0
2, 205320, Note_on_c, 0, 78, 85
2, 205324, Note_off_c, 0, 40, 0
2, 205324, Note_on_c, 0, 28, 91
2, 205408, Note_on_c, 0, 72, 89
2, 205416, Note_off_c, 0, 28, 0
2, 205424, Note_off_c, 0, 78, 0
2, 205448, Note_on_c, 0, 40, 64
2, 205488, Note_off_c, 0, 72, 0
2, 205488, Note_on_c, 0, 77, 92
2, 205560, Note_off_c, 0, 40, 0
2, 205564, Note_on_c, 0, 72, 83
2, 205576, Note_on_c, 0, 48, 66
2, 205584, Note_off_c, 0, 77, 0
2, 205632, Note_off_c, 0, 48, 0
2, 205636, Note_on_c, 0, 76, 85
2, 205652, Note_off_c, 0, 72, 0
2, 205672, Note_on_c, 0, 74, 29
2, 205680, Note_on_c, 0, 40, 59
2, 205696, Note_off_c, 0, 74, 0
2, 205712, Note_on_c, 0, 69, 76
2, 205716, Note_off_c, 0, 76, 0
2, 205780, Note_off_c, 0, 69, 0
2, 205792, Note_off_c, 0, 40, 0
2, 205792, Note_on_c, 0, 75, 91
2, 205800, Note_on_c, 0, 33, 90
2, 205828, Control_c, 0, 64, 56
2, 205844, Control_c, 0, 64, 0
2, 205880, Control_c, 0, 64, 88
2, 205888, Note_on_c, 0, 72, 71
2, 205892, Note_off_c, 0, 75, 64
2, 205892, Note_on_c, 0, 71, 65
2, 205892, Control_c, 0, 64, 127
2, 205904, Note_off_c, 0, 33, 64
2, 205912, Note_off_c, 0, 71, 0
2, 205916, Note_on_c, 0, 40, 62
2, 205964, Note_off_c, 0, 72, 0
2, 205972, Note_on_c, 0, 74, 96
2, 206016, Note_off_c, 0, 40, 0
2, 206040, Note_on_c, 0, 48, 60
2, 206048, Note_on_c, 0, 69, 86
2, 206060, Note_off_c, 0, 74, 0
2, 206112, Note_off_c, 0, 48, 0
2, 206124, Note_off_c, 0, 69, 0
2, 206132, Note_on_c, 0, 73, 79
2, 206156, Note_on_c, 0, 40, 51
2, 206196, Note_on_c, 0, 69, 70
2, 206236, Note_off_c, 0, 73, 0
2, 206284, Note_on_c, 0, 33, 75
2, 206284, Note_on_c, 0, 72, 89
2, 206284, Control_c, 0, 64, 72
2, 206288, Note_off_c, 0, 40, 0
2, 206296, Note_off_c, 0, 69, 0
2, 206296, Control_c, 0, 64, 0
2, 206332, Control_c, 0, 64, 127
2, 206368, Note_off_c, 0, 72, 0
2, 206368, Note_on_c, 0, 64, 79
2, 206380, Note_off_c, 0, 33, 0
2, 206416, Note_on_c, 0, 40, 56
2, 206444, Note_off_c, 0, 64, 0
2, 206444, Note_on_c, 0, 71, 88
2, 206520, Note_off_c, 0, 40, 0
2, 206520, Note_on_c, 0, 64, 70
2, 206532, Note_off_c, 0, 71, 0
2, 206540, Note_on_c, 0, 48, 60
2, 206596, Note_off_c, 0, 48, 0
2, 206600, Note_on_c, 0, 70, 74
2, 206612, Note_off_c, 0, 64, 0
2, 206656, Note_on_c, 0, 40, 58
2, 206680, Note_on_c, 0, 60, 76
2, 206692, Note_off_c, 0, 70, 0
2, 206772, Note_on_c, 0, 69, 92
2, 206780, Note_off_c, 0, 40, 0
2, 206780, Note_off_c, 0, 60, 0
2, 206796, Note_on_c, 0, 33, 70
2, 206812, Control_c, 0, 64, 56
2, 206824, Control_c, 0, 64, 0
2, 206848, Note_on_c, 0, 64, 81
2, 206860, Control_c, 0, 64, 40
2, 206872, Note_off_c, 0, 69, 0
2, 206872, Control_c, 0, 64, 104
2, 206888, Control_c, 0, 64, 127
2, 206900, Note_off_c, 0, 33, 0
2, 206916, Note_on_c, 0, 40, 59
2, 206928, Note_on_c, 0, 68, 73
2, 206956, Note_off_c, 0, 64, 0
2, 206968, Note_on_c, 0, 66, 23
2, 206992, Note_off_c, 0, 66, 0
2, 207012, Note_off_c, 0, 40, 0
2, 207012, Note_on_c, 0, 60, 79
2, 207016, Note_off_c, 0, 68, 0
2, 207036, Note_on_c, 0, 48, 61
2, 207088, Note_off_c, 0, 60, 0
2, 207092, Note_on_c, 0, 67, 86
2, 207096, Note_off_c, 0, 48, 0
2, 207152, Note_on_c, 0, 40, 58
2, 207172, Note_on_c, 0, 60, 80
2, 207176, Note_off_c, 0, 67, 0
2, 207216, Control_c, 0, 64, 72
2, 207228, Control_c, 0, 64, 0
2, 207248, Note_on_c, 0, 66, 80
2, 207252, Note_off_c, 0, 60, 0
2, 207268, Note_off_c, 0, 40, 0
2, 207276, Note_on_c, 0, 63, 26
2, 207276, Note_on_c, 0, 33, 66
2, 207280, Control_c, 0, 64, 24
2, 207292, Control_c, 0, 64, 88
2, 207304, Control_c, 0, 64, 127
2, 207308, Note_off_c, 0, 63, 0
2, 207340, Note_on_c, 0, 60, 80
2, 207344, Note_off_c, 0, 66, 0
2, 207364, Note_off_c, 0, 33, 64
2, 207388, Note_on_c, 0, 40, 54
2, 207428, Note_off_c, 0, 60, 64
2, 207428, Note_on_c, 0, 65, 75
2, 207496, Note_off_c, 0, 40, 0
2, 207512, Note_on_c, 0, 48, 58
2, 207524, Note_on_c, 0, 57, 71
2, 207544, Note_off_c, 0, 65, 0
2, 207568, Note_off_c, 0, 48, 0
2, 207588, Note_on_c, 0, 64, 70
2, 207616, Note_on_c, 0, 40, 62
2, 207632, Note_off_c, 0, 57, 0
2, 207656, Note_off_c, 0, 64, 0
2, 207668, Note_on_c, 0, 60, 78
2, 207744, Note_off_c, 0, 40, 0
2, 207744, Note_off_c, 0, 60, 0
2, 207744, Note_on_c, 0, 63, 84
2, 207744, Control_c, 0, 64, 72
2, 207748, Note_on_c, 0, 33, 70
2, 207756, Control_c, 0, 64, 0
2, 207764, Note_on_c, 0, 61, 40
2, 207784, Note_off_c, 0, 61, 0
2, 207808, Control_c, 0, 64, 56
2, 207820, Control_c, 0, 64, 127
2, 207836, Note_off_c, 0, 63, 0
2, 207840, Note_on_c, 0, 59, 56
2, 207872, Note_on_c, 0, 40, 59
2, 207884, Note_off_c, 0, 59, 0
2, 207892, Note_off_c, 0, 33, 0
2, 207904, Note_on_c, 0, 62, 85
2, 207980, Note_on_c, 0, 57, 81
2, 207992, Note_off_c, 0, 40, 0
2, 207996, Note_off_c, 0, 62, 0
2, 208016, Note_on_c, 0, 48, 31
2, 208060, Note_off_c, 0, 57, 0
2, 208064, Note_on_c, 0, 61, 75
2, 208072, Note_off_c, 0, 48, 0
2, 208112, Note_on_c, 0, 40, 56
2, 208140, Note_on_c, 0, 57, 73
2, 208156, Note_off_c, 0, 61, 0
2, 208216, Note_off_c, 0, 57, 0
2, 208220, Note_off_c, 0, 40, 0
2, 208220, Note_on_c, 0, 60, 88
2, 208236, Note_on_c, 0, 33, 69
2, 208236, Control_c, 0, 64, 56
2, 208248, Control_c, 0, 64, 24
2, 208260, Control_c, 0, 64, 40
2, 208272, Control_c, 0, 64, 72
2, 208284, Control_c, 0, 64, 127
2, 208296, Note_on_c, 0, 52, 72
2, 208300, Note_off_c, 0, 60, 0
2, 208332, Note_off_c, 0, 33, 0
2, 208344, Note_on_c, 0, 40, 62
2, 208368, Note_on_c, 0, 59, 85
2, 208380, Note_off_c, 0, 52, 0
2, 208432, Note_off_c, 0, 40, 0
2, 208456, Note_off_c, 0, 59, 0
2, 208456, Note_on_c, 0, 48, 54
2, 208460, Note_on_c, 0, 52, 65
2, 208468, Note_on_c, 0, 53, 45
2, 208488, Note_off_c, 0, 48, 0
2, 208496, Note_off_c, 0, 53, 0
2, 208524, Note_off_c, 0, 52, 0
2, 208524, Note_on_c, 0, 58, 74
2, 208552, Note_on_c, 0, 40, 58
2, 208600, Note_off_c, 0, 58, 0
2, 208604, Note_on_c, 0, 48, 88
2, 208672, Note_off_c, 0, 40, 0
2, 208684, Note_off_c, 0, 48, 0
2, 208692, Note_on_c, 0, 57, 87
2, 208700, Note_on_c, 0, 45, 71
2, 208716, Control_c, 0, 64, 88
2, 208728, Control_c, 0, 64, 40
2, 208740, Control_c, 0, 64, 0
2, 208768, Note_off_c, 0, 45, 0
2, 208772, Note_on_c, 0, 52, 77
2, 208788, Note_off_c, 0, 57, 0
2, 208848, Note_on_c, 0, 56, 74
2, 208860, Note_on_c, 0, 44, 82
2, 208864, Note_off_c, 0, 52, 0
2, 208920, Note_off_c, 0, 44, 64
2, 208920, Note_on_c, 0, 48, 85
2, 208928, Note_off_c, 0, 56, 64
2, 209008, Note_off_c, 0, 48, 0
2, 209012, Note_on_c, 0, 55, 82
2, 209020, Note_on_c, 0, 43, 82
2, 209076, Note_off_c, 0, 43, 0
2, 209084, Note_on_c, 0, 52, 82
2, 209092, Note_off_c, 0, 55, 0
2, 209164, Note_off_c, 0, 52, 0
2, 209168, Note_on_c, 0, 54, 79
2, 209176, Note_on_c, 0, 42, 103
2, 209232, Note_off_c, 0, 42, 0
2, 209260, Note_on_c, 0, 48, 88
2, 209276, Note_off_c, 0, 54, 0
2, 209328, Note_on_c, 0, 41, 93
2, 209340, Note_off_c, 0, 48, 0
2, 209340, Note_on_c, 0, 53, 92
2, 209400, Note_off_c, 0, 41, 0
2, 209416, Note_on_c, 0, 48, 89
2, 209436, Note_off_c, 0, 53, 0
2, 209480, Note_on_c, 0, 40, 97
2, 209492, Note_on_c, 0, 52, 86
2, 209512, Note_off_c, 0, 48, 0
2, 209544, Note_off_c, 0, 40, 0
2, 209568, Note_off_c, 0, 52, 0
2, 209572, Note_on_c, 0, 45, 87
2, 209648, Note_on_c, 0, 39, 88
2, 209652, Note_off_c, 0, 45, 0
2, 209656, Note_on_c, 0, 51, 87
2, 209716, Note_off_c, 0, 39, 0
2, 209748, Note_off_c, 0, 51, 0
2, 209748, Note_on_c, 0, 48, 85
2, 209808, Note_on_c, 0, 38, 89
2, 209816, Note_off_c, 0, 48, 0
2, 209828, Note_on_c, 0, 50, 96
2, 209876, Note_off_c, 0, 38, 0
2, 209904, Note_on_c, 0, 45, 85
2, 209920, Note_off_c, 0, 50, 0
2, 209980, Note_on_c, 0, 37, 99
2, 209984, Note_off_c, 0, 45, 0
2, 209984, Note_on_c, 0, 49, 88
2, 210040, Note_off_c, 0, 37, 0
2, 210064, Note_on_c, 0, 45, 92
2, 210080, Note_off_c, 0, 49, 0
2, 210144, Note_on_c, 0, 48, 90
2, 210152, Note_off_c, 0, 45, 0
2, 210152, Note_on_c, 0, 36, 92
2, 210220, Note_off_c, 0, 36, 0
2, 210232, Note_on_c, 0, 40, 73
2, 210256, Note_off_c, 0, 48, 0
2, 210312, Note_on_c, 0, 35, 96
2, 210320, Note_on_c, 0, 47, 83
2, 210324, Note_off_c, 0, 40, 0
2, 210384, Note_off_c, 0, 35, 0
2, 210404, Note_on_c, 0, 40, 81
2, 210436, Note_off_c, 0, 47, 64
2, 210484, Note_on_c, 0, 46, 82
2, 210492, Note_on_c, 0, 34, 76
2, 210496, Note_off_c, 0, 40, 64
2, 210560, Note_on_c, 0, 40, 77
2, 210564, Note_off_c, 0, 34, 0
2, 210592, Note_off_c, 0, 46, 0
2, 210640, Note_off_c, 0, 40, 0
2, 210664, Note_on_c, 0, 45, 109
2, 210672, Note_on_c, 0, 33, 103
2, 210740, Control_c, 0, 64, 88
2, 210752, Control_c, 0, 64, 127
2, 210776, Note_off_c, 0, 45, 0
2, 210776, Note_off_c, 0, 33, 0
2, 211204, Control_c, 0, 64, 88
2, 211212, Note_on_c, 0, 69, 102
2, 211216, Note_on_c, 0, 57, 89
2, 211216, Note_on_c, 0, 60, 87
2, 211216, Note_on_c, 0, 64, 87
2, 211216, Control_c, 0, 64, 0
2, 211224, Note_on_c, 0, 45, 90
2, 211232, Note_on_c, 0, 40, 74
2, 211232, Note_on_c, 0, 33, 76
2, 211280, Control_c, 0, 64, 72
2, 211292, Note_off_c, 0, 33, 0
2, 211292, Control_c, 0, 64, 127
2, 211296, Note_off_c, 0, 45, 0
2, 211304, Note_off_c, 0, 57, 0
2, 211304, Note_off_c, 0, 40, 0
2, 211316, Note_off_c, 0, 60, 0
2, 211328, Note_off_c, 0, 69, 0
2, 211328, Note_off_c, 0, 64, 0
2, 211628, Note_on_c, 0, 40, 71
2, 211632, Note_on_c, 0, 69, 97
2, 211632, Note_on_c, 0, 45, 80
2, 211632, Note_on_c, 0, 60, 88
2, 211632, Note_on_c, 0, 64, 83
2, 211636, Note_on_c, 0, 57, 89
2, 211640, Note_on_c, 0, 33, 62
2, 211684, Note_off_c, 0, 45, 0
2, 211684, Note_off_c, 0, 60, 0
2, 211684, Note_off_c, 0, 57, 0
2, 211688, Note_off_c, 0, 64, 0
2, 211688, Note_off_c, 0, 33, 0
2, 211696, Note_off_c, 0, 40, 0
2, 211704, Note_off_c, 0, 69, 0
2, 211748, Note_on_c, 0, 69, 89
2, 211752, Note_on_c, 0, 64, 88
2, 211752, Note_on_c, 0, 57, 100
2, 211756, Note_on_c, 0, 60, 99
2, 211760, Note_on_c, 0, 40, 74
2, 211760, Note_on_c, 0, 45, 93
2, 211760, Control_c, 0, 64, 24
2, 211764, Note_on_c, 0, 33, 74
2, 211772, Control_c, 0, 64, 0
2, 211808, Control_c, 0, 64, 40
2, 211820, Note_off_c, 0, 33, 0
2, 211820, Control_c, 0, 64, 127
2, 211824, Note_off_c, 0, 45, 0
2, 211828, Note_off_c, 0, 57, 0
2, 211836, Note_off_c, 0, 40, 0
2, 211844, Note_off_c, 0, 60, 0
2, 211864, Note_off_c, 0, 69, 0
2, 211868, Note_off_c, 0, 64, 0
2, 212280, Note_on_c, 0, 69, 105
2, 212284, Note_on_c, 0, 57, 94
2, 212284, Note_on_c, 0, 62, 92
2, 212288, Note_on_c, 0, 65, 85
2, 212288, Control_c, 0, 64, 72
2, 212292, Note_on_c, 0, 38, 85
2, 212292, Note_on_c, 0, 45, 96
2, 212296, Note_on_c, 0, 33, 75
2, 212296, Control_c, 0, 64, 0
2, 212348, Control_c, 0, 64, 72
2, 212352, Note_off_c, 0, 33, 0
2, 212360, Note_off_c, 0, 45, 0
2, 212360, Control_c, 0, 64, 127
2, 212368, Note_off_c, 0, 38, 0
2, 212380, Note_off_c, 0, 57, 0
2, 212388, Note_off_c, 0, 62, 0
2, 212408, Note_off_c, 0, 69, 0
2, 212412, Note_off_c, 0, 65, 0
2, 212812, Control_c, 0, 64, 72
2, 212824, Note_on_c, 0, 69, 103
2, 212824, Control_c, 0, 64, 0
2, 212828, Note_on_c, 0, 64, 90
2, 212832, Note_on_c, 0, 60, 92
2, 212832, Note_on_c, 0, 57, 89
2, 212832, Note_on_c, 0, 40, 89
2, 212836, Note_on_c, 0, 45, 103
2, 212836, Note_on_c, 0, 33, 81
2, 212888, Control_c, 0, 64, 72
2, 212900, Note_off_c, 0, 33, 0
2, 212900, Control_c, 0, 64, 127
2, 212916, Note_off_c, 0, 45, 0
2, 212920, Note_off_c, 0, 40, 0
2, 212936, Note_off_c, 0, 57, 0
2, 212952, Note_off_c, 0, 60, 0
2, 212968, Note_off_c, 0, 69, 0
2, 212968, Note_off_c, 0, 64, 0
2, 213768, Control_c, 0, 64, 104
2, 213772, Note_on_c, 0, 69, 112
2, 213776, Note_on_c, 0, 62, 107
2, 213776, Note_on_c, 0, 59, 93
2, 213780, Note_on_c, 0, 57, 99
2, 213780, Note_on_c, 0, 41, 94
2, 213784, Note_on_c, 0, 45, 109
2, 213784, Control_c, 0, 64, 0
2, 213788, Note_on_c, 0, 33, 89
2, 213844, Note_off_c, 0, 33, 0
2, 213844, Control_c, 0, 64, 88
2, 213856, Note_off_c, 0, 45, 0
2, 213856, Control_c, 0, 64, 127
2, 213868, Note_off_c, 0, 41, 0
2, 213872, Note_off_c, 0, 57, 0
2, 213876, Note_off_c, 0, 59, 0
2, 213900, Note_off_c, 0, 62, 0
2, 213912, Note_off_c, 0, 69, 0
2, 214748, Note_on_c, 0, 69, 105
2, 214748, Note_on_c, 0, 40, 88
2, 214748, Note_on_c, 0, 57, 99
2, 214748, Note_on_c, 0, 64, 93
2, 214752, Note_on_c, 0, 45, 109
2, 214752, Note_on_c, 0, 33, 83
2, 214752, Note_on_c, 0, 60, 94
2, 214764, Control_c, 0, 64, 72
2, 214776, Control_c, 0, 64, 0
2, 214860, Control_c, 0, 64, 127
2, 214924, Note_off_c, 0, 69, 0
2, 214936, Note_off_c, 0, 64, 0
2, 214940, Note_off_c, 0, 60, 0
2, 214944, Note_off_c, 0, 57, 0
2, 214960, Note_off_c, 0, 45, 0
2, 214960, Note_off_c, 0, 33, 0
2, 214964, Note_off_c, 0, 40, 0
2, 215220, Note_on_c, 0, 45, 88
2, 215220, Note_on_c, 0, 33, 72
2, 215292, Note_off_c, 0, 33, 0
2, 215300, Note_off_c, 0, 45, 0
2, 215316, Note_on_c, 0, 35, 59
2, 215316, Note_on_c, 0, 47, 84
2, 215384, Note_off_c, 0, 47, 0
2, 215412, Note_off_c, 0, 35, 0
2, 215412, Note_on_c, 0, 36, 72
2, 215412, Note_on_c, 0, 48, 90
2, 215488, Note_on_c, 0, 50, 86
2, 215488, Note_on_c, 0, 38, 74
2, 215492, Note_off_c, 0, 48, 0
2, 215500, Note_off_c, 0, 36, 0
2, 215532, Note_off_c, 0, 38, 0
2, 215564, Note_on_c, 0, 40, 62
2, 215564, Note_on_c, 0, 52, 81
2, 215580, Note_off_c, 0, 50, 0
2, 215640, Note_on_c, 0, 54, 82
2, 215648, Note_on_c, 0, 42, 60
2, 215660, Note_off_c, 0, 52, 0
2, 215664, Note_off_c, 0, 40, 0
2, 215724, Note_on_c, 0, 44, 72
2, 215724, Note_on_c, 0, 56, 81
2, 215728, Note_off_c, 0, 42, 0
2, 215760, Note_off_c, 0, 54, 0
2, 215776, Note_off_c, 0, 56, 0
2, 215788, Note_off_c, 0, 44, 0
2, 215804, Note_on_c, 0, 45, 78
2, 215804, Note_on_c, 0, 57, 82
2, 215868, Control_c, 0, 64, 88
2, 215876, Note_off_c, 0, 57, 0
2, 215880, Control_c, 0, 64, 0
2, 215884, Note_on_c, 0, 59, 84
2, 215884, Note_on_c, 0, 47, 73
2, 215900, Note_off_c, 0, 45, 0
2, 215952, Control_c, 0, 64, 72
2, 215960, Note_off_c, 0, 47, 0
2, 215964, Note_on_c, 0, 60, 89
2, 215964, Note_on_c, 0, 48, 79
2, 215964, Control_c, 0, 64, 127
2, 215972, Note_off_c, 0, 59, 0
2, 216016, Note_off_c, 0, 60, 0
2, 216044, Note_off_c, 0, 48, 0
2, 216048, Note_on_c, 0, 62, 87
2, 216048, Note_on_c, 0, 50, 81
2, 216104, Note_off_c, 0, 50, 0
2, 216120, Note_on_c, 0, 64, 85
2, 216120, Note_on_c, 0, 52, 73
2, 216132, Note_off_c, 0, 62, 0
2, 216184, Note_on_c, 0, 66, 82
2, 216184, Note_on_c, 0, 54, 67
2, 216204, Note_off_c, 0, 52, 0
2, 216228, Note_off_c, 0, 64, 0
2, 216260, Note_off_c, 0, 54, 0
2, 216260, Note_on_c, 0, 68, 82
2, 216260, Note_on_c, 0, 56, 74
2, 216296, Note_off_c, 0, 66, 0
2, 216312, Note_off_c, 0, 68, 0
2, 216320, Note_off_c, 0, 56, 0
2, 216344, Note_on_c, 0, 69, 87
2, 216344, Note_on_c, 0, 57, 76
2, 216372, Control_c, 0, 64, 104
2, 216384, Control_c, 0, 64, 24
2, 216396, Control_c, 0, 64, 0
2, 216412, Note_on_c, 0, 71, 88
2, 216412, Note_on_c, 0, 59, 74
2, 216424, Note_off_c, 0, 69, 0
2, 216436, Note_off_c, 0, 57, 0
2, 216444, Control_c, 0, 64, 56
2, 216456, Control_c, 0, 64, 127
2, 216484, Note_off_c, 0, 59, 0
2, 216488, Note_on_c, 0, 72, 93
2, 216488, Note_on_c, 0, 60, 69
2, 216496, Note_off_c, 0, 71, 0
2, 216536, Note_off_c, 0, 60, 0
2, 216540, Note_off_c, 0, 72, 0
2, 216564, Note_on_c, 0, 74, 87
2, 216564, Note_on_c, 0, 62, 61
2, 216612, Note_off_c, 0, 62, 0
2, 216628, Control_c, 0, 64, 72
2, 216636, Note_on_c, 0, 76, 86
2, 216636, Note_on_c, 0, 64, 64
2, 216644, Control_c, 0, 64, 40
2, 216664, Note_off_c, 0, 74, 64
2, 216680, Control_c, 0, 64, 127
2, 216700, Note_on_c, 0, 78, 82
2, 216700, Note_on_c, 0, 66, 64
2, 216720, Note_off_c, 0, 64, 0
2, 216756, Note_off_c, 0, 76, 0
2, 216780, Note_off_c, 0, 66, 0
2, 216784, Note_on_c, 0, 80, 84
2, 216784, Note_on_c, 0, 68, 63
2, 216816, Note_off_c, 0, 78, 0
2, 216828, Note_off_c, 0, 80, 0
2, 216844, Note_off_c, 0, 68, 0
2, 216852, Note_on_c, 0, 81, 84
2, 216852, Note_on_c, 0, 69, 63
2, 216920, Note_on_c, 0, 83, 91
2, 216920, Note_on_c, 0, 71, 74
2, 216932, Note_off_c, 0, 69, 0
2, 216948, Note_off_c, 0, 81, 0
2, 216988, Note_on_c, 0, 84, 97
2, 216988, Note_on_c, 0, 72, 80
2, 216992, Note_off_c, 0, 71, 0
2, 217000, Note_off_c, 0, 83, 0
2, 217044, Note_off_c, 0, 84, 0
2, 217056, Note_off_c, 0, 72, 0
2, 217064, Note_on_c, 0, 86, 86
2, 217064, Note_on_c, 0, 74, 77
2, 217116, Note_off_c, 0, 74, 0
2, 217136, Note_on_c, 0, 76, 72
2, 217136, Note_on_c, 0, 88, 88
2, 217156, Note_off_c, 0, 86, 0
2, 217212, Note_on_c, 0, 90, 87
2, 217212, Note_on_c, 0, 78, 73
2, 217224, Note_off_c, 0, 76, 0
2, 217228, Note_off_c, 0, 88, 0
2, 217284, Note_off_c, 0, 78, 0
2, 217292, Note_on_c, 0, 92, 88
2, 217292, Note_on_c, 0, 80, 73
2, 217316, Note_off_c, 0, 90, 0
2, 217340, Control_c, 0, 64, 88
2, 217352, Control_c, 0, 64, 0
2, 217356, Note_on_c, 0, 81, 90
2, 217356, Note_on_c, 0, 93, 99
2, 217364, Note_off_c, 0, 80, 0
2, 217388, Note_off_c, 0, 92, 0
2, 217416, Control_c, 0, 64, 72
2, 217428, Note_off_c, 0, 81, 0
2, 217428, Control_c, 0, 64, 127
2, 217488, Note_off_c, 0, 93, 0
2, 217868, Control_c, 0, 64, 104
2, 217880, Control_c, 0, 64, 72
2, 217892, Control_c, 0, 64, 24
2, 217904, Control_c, 0, 64, 0
2, 218288, Control_c, 0, 64, 72
2, 218300, Control_c, 0, 64, 127
2, 219016, Control_c, 0, 64, 104
2, 219028, Control_c, 0, 64, 72
2, 219040, Control_c, 0, 64, 24
2, 219048, Control_c, 0, 64, 0
2, 220068, Control_c, 0, 64, 104
2, 220088, Control_c, 0, 64, 40
2, 220108, Control_c, 0, 64, 0
2, 220224, Control_c, 0, 64, 104
2, 220240, Control_c, 0, 64, 127
2, 220768, Control_c, 0, 64, 72
2, 220788, Control_c, 0, 64, 40
2, 220808, Control_c, 0, 64, 0
2, 220808, End_track
3, 0, Start_track
3, 0, Title_t, "Frederik Chopin"
3, 0, Key_signature, 0, "major"
3, 0, End_track
4, 0, Start_track
4, 0, Title_t, "Robert Finley, Piano"
4, 0, Key_signature, 0, "major"
4, 0, End_track
5, 0, Start_track
5, 0, Key_signature, 0, "major"
5, 0, End_track
6, 0, Start_track
6, 0, Key_signature, 0, "major"
6, 0, End_track
7, 0, Start_track
7, 0, Key_signature, 0, "major"
7, 0, End_track
8, 0, Start_track
8, 0, Key_signature, 0, "major"
8, 0, End_track
9, 0, Start_track
9, 0, Key_signature, 0, "major"
9, 0, End_track
10, 0, Start_track
10, 0, Key_signature, 0, "major"
10, 0, End_track
11, 0, Start_track
11, 0, Key_signature, 0, "major"
11, 0, End_track
12, 0, Start_track
12, 0, Key_signature, 0, "major"
12, 0, End_track
13, 0, Start_track
13, 0, Key_signature, 0, "major"
13, 0, End_track
14, 0, Start_track
14, 0, Key_signature, 0, "major"
14, 0, End_track
15, 0, Start_track
15, 0, Key_signature, 0, "major"
15, 0, End_track
16, 0, Start_track
16, 0, Key_signature, 0, "major"
16, 0, End_track
17, 0, Start_track
17, 0, Key_signature, 0, "major"
17, 0, End_track
0, 0, End_of_file