0, 0, Header, 1, 3, 480
1, 0, Start_track
1, 0, Tempo, 666625
1, 0, Time_signature, 6, 3, 24, 8
1, 0, Title_t, "untitled"
1, 0, Tempo, 666625
1, 52800, Tempo, 666625
1, 54710, Tempo, 659201
1, 54710, Tempo, 659201
1, 69120, Tempo, 666625
1, 77750, Tempo, 659201
1, 79217, Tempo, 922881
1, 79272, Tempo, 937473
1, 79327, Tempo, 952321
1, 79383, Tempo, 967681
1, 79438, Tempo, 983553
1, 79498, Tempo, 999937
1, 79554, Tempo, 1016833
1, 79609, Tempo, 1034241
1, 79664, Tempo, 1052417
1, 79719, Tempo, 1071361
1, 79780, Tempo, 1090817
1, 79835, Tempo, 1111041
1, 79890, Tempo, 1132033
1, 79945, Tempo, 1153793
1, 80001, Tempo, 1176321
1, 80061, Tempo, 1199873
1, 80116, Tempo, 1224449
1, 80172, Tempo, 1249793
1, 80227, Tempo, 1276417
1, 80282, Tempo, 1304321
1, 80343, Tempo, 1333249
1, 80398, Tempo, 1363457
1, 80453, Tempo, 1395201
1, 80508, Tempo, 1428481
1, 80563, Tempo, 1463297
1, 80618, Tempo, 1499905
1, 80624, Tempo, 7499777
1, 80635, Tempo, 2999809
1, 80640, End_track
2, 0, Start_track
2, 0, Control_c, 0, 67, 0
2, 0, Control_c, 0, 64, 49
2, 0, Control_c, 0, 7, 127
2, 0, Control_c, 0, 0, 0
2, 0, Control_c, 0, 32, 0
2, 0, Program_c, 0, 0
2, 0, Control_c, 0, 1, 0
2, 0, Control_c, 0, 10, 64
2, 0, Control_c, 0, 91, 0
2, 0, Control_c, 0, 93, 0
2, 0, Key_signature, -2, "major"
2, 0, Title_t, "Piano"
2, 0, Note_on_c, 0, 67, 49
2, 0, Note_on_c, 0, 58, 49
2, 0, Note_on_c, 0, 55, 49
2, 0, Control_c, 0, 67, 0
2, 0, Control_c, 0, 64, 49
2, 0, Control_c, 0, 7, 127
2, 0, Control_c, 0, 0, 0
2, 0, Control_c, 0, 32, 0
2, 0, Program_c, 0, 0
2, 0, Control_c, 0, 1, 0
2, 0, Control_c, 0, 10, 64
2, 0, Control_c, 0, 91, 0
2, 0, Control_c, 0, 93, 0
2, 42, Control_c, 0, 67, 50
2, 42, Control_c, 0, 67, 50
2, 240, Note_on_c, 0, 58, 0
2, 240, Note_on_c, 0, 62, 35
2, 480, Note_on_c, 0, 62, 0
2, 480, Note_on_c, 0, 67, 0
2, 480, Note_on_c, 0, 74, 46
2, 480, Note_on_c, 0, 67, 35
2, 720, Note_on_c, 0, 67, 0
2, 720, Note_on_c, 0, 74, 0
2, 720, Note_on_c, 0, 72, 44
2, 720, Note_on_c, 0, 57, 45
2, 960, Note_on_c, 0, 57, 0
2, 960, Note_on_c, 0, 62, 35
2, 1200, Note_on_c, 0, 62, 0
2, 1200, Note_on_c, 0, 72, 0
2, 1200, Note_on_c, 0, 74, 41
2, 1200, Note_on_c, 0, 66, 35
2, 1440, Note_on_c, 0, 66, 0
2, 1440, Note_on_c, 0, 74, 0
2, 1440, Note_on_c, 0, 55, 0
2, 1440, Note_on_c, 0, 70, 40
2, 1440, Note_on_c, 0, 58, 49
2, 1440, Note_on_c, 0, 55, 35
2, 1680, Note_on_c, 0, 58, 0
2, 1680, Note_on_c, 0, 62, 30
2, 1920, Note_on_c, 0, 62, 0
2, 1920, Note_on_c, 0, 67, 30
2, 2160, Note_on_c, 0, 67, 0
2, 2160, Note_on_c, 0, 70, 0
2, 2160, Note_on_c, 0, 69, 27
2, 2160, Note_on_c, 0, 60, 39
2, 2400, Note_on_c, 0, 60, 0
2, 2400, Note_on_c, 0, 62, 30
2, 2640, Note_on_c, 0, 62, 0
2, 2640, Note_on_c, 0, 66, 30
2, 2880, Note_on_c, 0, 69, 0
2, 2880, Note_on_c, 0, 55, 0
2, 2880, Note_on_c, 0, 66, 0
2, 2880, Note_on_c, 0, 67, 49
2, 2880, Note_on_c, 0, 58, 49
2, 2880, Note_on_c, 0, 55, 49
2, 3120, Note_on_c, 0, 58, 0
2, 3120, Note_on_c, 0, 62, 35
2, 3240, Note_on_c, 0, 67, 0
2, 3240, Note_on_c, 0, 69, 49
2, 3360, Note_on_c, 0, 69, 0
2, 3360, Note_on_c, 0, 62, 0
2, 3360, Note_on_c, 0, 70, 49
2, 3360, Note_on_c, 0, 67, 35
2, 3600, Note_on_c, 0, 67, 0
2, 3600, Note_on_c, 0, 70, 0
2, 3600, Note_on_c, 0, 72, 49
2, 3600, Note_on_c, 0, 57, 45
2, 3840, Note_on_c, 0, 57, 0
2, 3840, Note_on_c, 0, 62, 35
2, 3960, Note_on_c, 0, 72, 0
2, 3960, Note_on_c, 0, 74, 49
2, 4080, Note_on_c, 0, 74, 0
2, 4080, Note_on_c, 0, 62, 0
2, 4080, Note_on_c, 0, 72, 49
2, 4080, Note_on_c, 0, 66, 35
2, 4320, Note_on_c, 0, 66, 0
2, 4320, Note_on_c, 0, 72, 0
2, 4320, Note_on_c, 0, 55, 0
2, 4320, Note_on_c, 0, 70, 49
2, 4320, Note_on_c, 0, 58, 49
2, 4320, Note_on_c, 0, 55, 35
2, 4560, Note_on_c, 0, 58, 0
2, 4560, Note_on_c, 0, 62, 35
2, 4800, Note_on_c, 0, 62, 0
2, 4800, Note_on_c, 0, 67, 35
2, 5040, Note_on_c, 0, 70, 0
2, 5040, Note_on_c, 0, 67, 0
2, 5040, Note_on_c, 0, 69, 35
2, 5040, Note_on_c, 0, 60, 41
2, 5280, Note_on_c, 0, 60, 0
2, 5280, Note_on_c, 0, 62, 35
2, 5520, Note_on_c, 0, 62, 0
2, 5520, Note_on_c, 0, 66, 35
2, 5760, Note_on_c, 0, 55, 0
2, 5760, Note_on_c, 0, 66, 0
2, 5760, Note_on_c, 0, 69, 0
2, 5760, Note_on_c, 0, 67, 49
2, 5760, Note_on_c, 0, 58, 49
2, 5760, Note_on_c, 0, 55, 49
2, 6000, Note_on_c, 0, 58, 0
2, 6000, Note_on_c, 0, 62, 35
2, 6240, Note_on_c, 0, 62, 0
2, 6240, Note_on_c, 0, 67, 0
2, 6240, Note_on_c, 0, 74, 49
2, 6240, Note_on_c, 0, 67, 35
2, 6480, Note_on_c, 0, 67, 0
2, 6480, Note_on_c, 0, 74, 0
2, 6480, Note_on_c, 0, 72, 49
2, 6480, Note_on_c, 0, 57, 45
2, 6720, Note_on_c, 0, 57, 0
2, 6720, Note_on_c, 0, 62, 35
2, 6960, Note_on_c, 0, 62, 0
2, 6960, Note_on_c, 0, 72, 0
2, 6960, Note_on_c, 0, 74, 49
2, 6960, Note_on_c, 0, 66, 35
2, 7200, Note_on_c, 0, 66, 0
2, 7200, Note_on_c, 0, 74, 0
2, 7200, Note_on_c, 0, 55, 0
2, 7200, Note_on_c, 0, 70, 49
2, 7200, Note_on_c, 0, 58, 49
2, 7200, Note_on_c, 0, 55, 35
2, 7440, Note_on_c, 0, 58, 0
2, 7440, Note_on_c, 0, 62, 35
2, 7680, Note_on_c, 0, 62, 0
2, 7680, Note_on_c, 0, 67, 35
2, 7920, Note_on_c, 0, 67, 0
2, 7920, Note_on_c, 0, 70, 0
2, 7920, Note_on_c, 0, 69, 37
2, 7920, Note_on_c, 0, 60, 40
2, 8160, Note_on_c, 0, 60, 0
2, 8160, Note_on_c, 0, 62, 35
2, 8400, Note_on_c, 0, 62, 0
2, 8400, Note_on_c, 0, 66, 35
2, 8640, Note_on_c, 0, 66, 0
2, 8640, Note_on_c, 0, 69, 0
2, 8640, Note_on_c, 0, 55, 0
2, 8640, Note_on_c, 0, 67, 49
2, 8640, Note_on_c, 0, 58, 49
2, 8640, Note_on_c, 0, 55, 49
2, 8880, Note_on_c, 0, 58, 0
2, 8880, Note_on_c, 0, 62, 35
2, 9000, Note_on_c, 0, 67, 0
2, 9000, Note_on_c, 0, 69, 49
2, 9120, Note_on_c, 0, 69, 0
2, 9120, Note_on_c, 0, 62, 0
2, 9120, Note_on_c, 0, 70, 49
2, 9120, Note_on_c, 0, 67, 35
2, 9360, Note_on_c, 0, 67, 0
2, 9360, Note_on_c, 0, 70, 0
2, 9360, Note_on_c, 0, 72, 49
2, 9360, Note_on_c, 0, 57, 49
2, 9600, Note_on_c, 0, 57, 0
2, 9600, Note_on_c, 0, 62, 35
2, 9720, Note_on_c, 0, 72, 0
2, 9720, Note_on_c, 0, 74, 49
2, 9840, Note_on_c, 0, 74, 0
2, 9840, Note_on_c, 0, 62, 0
2, 9840, Note_on_c, 0, 72, 49
2, 9840, Note_on_c, 0, 66, 35
2, 10080, Note_on_c, 0, 55, 0
2, 10080, Note_on_c, 0, 66, 0
2, 10080, Note_on_c, 0, 72, 0
2, 10080, Note_on_c, 0, 70, 49
2, 10080, Note_on_c, 0, 58, 35
2, 10080, Note_on_c, 0, 55, 35
2, 10320, Note_on_c, 0, 58, 0
2, 10320, Note_on_c, 0, 62, 39
2, 10560, Note_on_c, 0, 62, 0
2, 10560, Note_on_c, 0, 67, 43
2, 10800, Note_on_c, 0, 67, 0
2, 10800, Note_on_c, 0, 55, 0
2, 10800, Note_on_c, 0, 70, 0
2, 10800, Note_on_c, 0, 69, 42
2, 10800, Note_on_c, 0, 53, 45
2, 11040, Note_on_c, 0, 63, 51
2, 11280, Note_on_c, 0, 63, 0
2, 11280, Note_on_c, 0, 65, 55
2, 11520, Note_on_c, 0, 65, 0
2, 11520, Note_on_c, 0, 53, 0
2, 11520, Note_on_c, 0, 69, 0
2, 11520, Note_on_c, 0, 70, 49
2, 11520, Note_on_c, 0, 62, 55
2, 11520, Note_on_c, 0, 58, 54
2, 11760, Note_on_c, 0, 62, 0
2, 11760, Note_on_c, 0, 65, 50
2, 12000, Note_on_c, 0, 65, 0
2, 12000, Note_on_c, 0, 70, 0
2, 12000, Note_on_c, 0, 77, 49
2, 12000, Note_on_c, 0, 70, 50
2, 12240, Note_on_c, 0, 70, 0
2, 12240, Note_on_c, 0, 77, 0
2, 12240, Note_on_c, 0, 76, 49
2, 12240, Note_on_c, 0, 60, 55
2, 12480, Note_on_c, 0, 60, 0
2, 12480, Note_on_c, 0, 65, 50
2, 12720, Note_on_c, 0, 65, 0
2, 12720, Note_on_c, 0, 76, 0
2, 12720, Note_on_c, 0, 77, 49
2, 12720, Note_on_c, 0, 69, 49
2, 12960, Note_on_c, 0, 58, 0
2, 12960, Note_on_c, 0, 69, 0
2, 12960, Note_on_c, 0, 77, 0
2, 12960, Note_on_c, 0, 74, 49
2, 12960, Note_on_c, 0, 62, 55
2, 12960, Note_on_c, 0, 58, 40
2, 13200, Note_on_c, 0, 62, 0
2, 13200, Note_on_c, 0, 65, 48
2, 13440, Note_on_c, 0, 65, 0
2, 13440, Note_on_c, 0, 70, 47
2, 13680, Note_on_c, 0, 70, 0
2, 13680, Note_on_c, 0, 74, 0
2, 13680, Note_on_c, 0, 72, 42
2, 13680, Note_on_c, 0, 63, 55
2, 13920, Note_on_c, 0, 63, 0
2, 13920, Note_on_c, 0, 65, 45
2, 14160, Note_on_c, 0, 65, 0
2, 14160, Note_on_c, 0, 69, 44
2, 14400, Note_on_c, 0, 69, 0
2, 14400, Note_on_c, 0, 72, 0
2, 14400, Note_on_c, 0, 58, 0
2, 14400, Note_on_c, 0, 70, 49
2, 14400, Note_on_c, 0, 62, 55
2, 14400, Note_on_c, 0, 58, 49
2, 14640, Note_on_c, 0, 62, 0
2, 14640, Note_on_c, 0, 65, 43
2, 14760, Note_on_c, 0, 70, 0
2, 14760, Note_on_c, 0, 72, 49
2, 14880, Note_on_c, 0, 72, 0
2, 14880, Note_on_c, 0, 65, 0
2, 14880, Note_on_c, 0, 74, 49
2, 14880, Note_on_c, 0, 70, 42
2, 15120, Note_on_c, 0, 70, 0
2, 15120, Note_on_c, 0, 74, 0
2, 15120, Note_on_c, 0, 75, 49
2, 15120, Note_on_c, 0, 60, 55
2, 15360, Note_on_c, 0, 60, 0
2, 15360, Note_on_c, 0, 65, 41
2, 15480, Note_on_c, 0, 75, 0
2, 15480, Note_on_c, 0, 77, 49
2, 15600, Note_on_c, 0, 77, 0
2, 15600, Note_on_c, 0, 65, 0
2, 15600, Note_on_c, 0, 75, 49
2, 15600, Note_on_c, 0, 69, 40
2, 15840, Note_on_c, 0, 69, 0
2, 15840, Note_on_c, 0, 75, 0
2, 15840, Note_on_c, 0, 58, 0
2, 15840, Note_on_c, 0, 74, 49
2, 15840, Note_on_c, 0, 62, 55
2, 15840, Note_on_c, 0, 58, 40
2, 16080, Note_on_c, 0, 62, 0
2, 16080, Note_on_c, 0, 65, 38
2, 16320, Note_on_c, 0, 65, 0
2, 16320, Note_on_c, 0, 70, 37
2, 16560, Note_on_c, 0, 70, 0
2, 16560, Note_on_c, 0, 74, 0
2, 16560, Note_on_c, 0, 72, 35
2, 16560, Note_on_c, 0, 63, 37
2, 16800, Note_on_c, 0, 63, 0
2, 16800, Note_on_c, 0, 65, 36
2, 17040, Note_on_c, 0, 65, 0
2, 17040, Note_on_c, 0, 69, 35
2, 17280, Note_on_c, 0, 72, 0
2, 17280, Note_on_c, 0, 58, 0
2, 17280, Note_on_c, 0, 69, 0
2, 17280, Note_on_c, 0, 70, 49
2, 17280, Note_on_c, 0, 62, 55
2, 17280, Note_on_c, 0, 58, 49
2, 17520, Note_on_c, 0, 62, 0
2, 17520, Note_on_c, 0, 65, 47
2, 17760, Note_on_c, 0, 65, 0
2, 17760, Note_on_c, 0, 70, 0
2, 17760, Note_on_c, 0, 77, 49
2, 17760, Note_on_c, 0, 70, 45
2, 18000, Note_on_c, 0, 70, 0
2, 18000, Note_on_c, 0, 77, 0
2, 18000, Note_on_c, 0, 76, 49
2, 18000, Note_on_c, 0, 60, 55
2, 18240, Note_on_c, 0, 60, 0
2, 18240, Note_on_c, 0, 65, 47
2, 18480, Note_on_c, 0, 65, 0
2, 18480, Note_on_c, 0, 76, 0
2, 18480, Note_on_c, 0, 77, 49
2, 18480, Note_on_c, 0, 69, 44
2, 18720, Note_on_c, 0, 69, 0
2, 18720, Note_on_c, 0, 77, 0
2, 18720, Note_on_c, 0, 58, 0
2, 18720, Note_on_c, 0, 74, 49
2, 18720, Note_on_c, 0, 62, 55
2, 18720, Note_on_c, 0, 58, 40
2, 18960, Note_on_c, 0, 62, 0
2, 18960, Note_on_c, 0, 65, 47
2, 19200, Note_on_c, 0, 65, 0
2, 19200, Note_on_c, 0, 70, 43
2, 19440, Note_on_c, 0, 74, 0
2, 19440, Note_on_c, 0, 70, 0
2, 19440, Note_on_c, 0, 72, 37
2, 19440, Note_on_c, 0, 63, 47
2, 19680, Note_on_c, 0, 63, 0
2, 19680, Note_on_c, 0, 65, 47
2, 19920, Note_on_c, 0, 65, 0
2, 19920, Note_on_c, 0, 69, 42
2, 20160, Note_on_c, 0, 58, 0
2, 20160, Note_on_c, 0, 69, 0
2, 20160, Note_on_c, 0, 72, 0
2, 20160, Note_on_c, 0, 70, 49
2, 20160, Note_on_c, 0, 62, 55
2, 20160, Note_on_c, 0, 58, 49
2, 20400, Note_on_c, 0, 62, 0
2, 20400, Note_on_c, 0, 65, 47
2, 20520, Note_on_c, 0, 70, 0
2, 20520, Note_on_c, 0, 72, 49
2, 20640, Note_on_c, 0, 72, 0
2, 20640, Note_on_c, 0, 65, 0
2, 20640, Note_on_c, 0, 74, 49
2, 20640, Note_on_c, 0, 70, 41
2, 20880, Note_on_c, 0, 70, 0
2, 20880, Note_on_c, 0, 74, 0
2, 20880, Note_on_c, 0, 75, 49
2, 20880, Note_on_c, 0, 60, 55
2, 21120, Note_on_c, 0, 60, 0
2, 21120, Note_on_c, 0, 65, 47
2, 21240, Note_on_c, 0, 75, 0
2, 21240, Note_on_c, 0, 77, 49
2, 21360, Note_on_c, 0, 77, 0
2, 21360, Note_on_c, 0, 65, 0
2, 21360, Note_on_c, 0, 75, 49
2, 21360, Note_on_c, 0, 69, 40
2, 21600, Note_on_c, 0, 69, 0
2, 21600, Note_on_c, 0, 75, 0
2, 21600, Note_on_c, 0, 58, 0
2, 21600, Note_on_c, 0, 74, 49
2, 21600, Note_on_c, 0, 62, 45
2, 21600, Note_on_c, 0, 58, 49
2, 21840, Note_on_c, 0, 62, 0
2, 21840, Note_on_c, 0, 65, 40
2, 22056, Note_on_c, 0, 74, 0
2, 22080, Note_on_c, 0, 65, 0
2, 22080, Note_on_c, 0, 70, 35
2, 22320, Note_on_c, 0, 70, 0
2, 22320, Note_on_c, 0, 58, 0
2, 22320, Note_on_c, 0, 74, 49
2, 22320, Note_on_c, 0, 57, 15
2, 22320, Note_on_c, 0, 60, 30
2, 22560, Note_on_c, 0, 60, 0
2, 22560, Note_on_c, 0, 62, 25
2, 22776, Note_on_c, 0, 74, 0
2, 22800, Note_on_c, 0, 62, 0
2, 22800, Note_on_c, 0, 66, 20
2, 23040, Note_on_c, 0, 66, 0
2, 23040, Note_on_c, 0, 57, 0
2, 23040, Note_on_c, 0, 58, 15
2, 23040, Note_on_c, 0, 55, 30
2, 23280, Note_on_c, 0, 58, 0
2, 23280, Note_on_c, 0, 62, 33
2, 23520, Note_on_c, 0, 62, 0
2, 23520, Note_on_c, 0, 74, 49
2, 23520, Note_on_c, 0, 67, 30
2, 23760, Note_on_c, 0, 67, 0
2, 23760, Note_on_c, 0, 74, 0
2, 23760, Note_on_c, 0, 72, 49
2, 23760, Note_on_c, 0, 57, 49
2, 24000, Note_on_c, 0, 57, 0
2, 24000, Note_on_c, 0, 62, 35
2, 24240, Note_on_c, 0, 72, 0
2, 24240, Note_on_c, 0, 62, 0
2, 24240, Note_on_c, 0, 74, 49
2, 24240, Note_on_c, 0, 66, 35
2, 24480, Note_on_c, 0, 55, 0
2, 24480, Note_on_c, 0, 66, 0
2, 24480, Note_on_c, 0, 74, 0
2, 24480, Note_on_c, 0, 70, 40
2, 24480, Note_on_c, 0, 58, 49
2, 24480, Note_on_c, 0, 55, 35
2, 24720, Note_on_c, 0, 58, 0
2, 24720, Note_on_c, 0, 62, 30
2, 24960, Note_on_c, 0, 62, 0
2, 24960, Note_on_c, 0, 67, 30
2, 25200, Note_on_c, 0, 67, 0
2, 25200, Note_on_c, 0, 70, 0
2, 25200, Note_on_c, 0, 69, 27
2, 25200, Note_on_c, 0, 60, 39
2, 25440, Note_on_c, 0, 60, 0
2, 25440, Note_on_c, 0, 62, 30
2, 25680, Note_on_c, 0, 62, 0
2, 25680, Note_on_c, 0, 66, 30
2, 25920, Note_on_c, 0, 66, 0
2, 25920, Note_on_c, 0, 69, 0
2, 25920, Note_on_c, 0, 55, 0
2, 25920, Note_on_c, 0, 67, 49
2, 25920, Note_on_c, 0, 58, 49
2, 25920, Note_on_c, 0, 55, 49
2, 26160, Note_on_c, 0, 58, 0
2, 26160, Note_on_c, 0, 62, 35
2, 26280, Note_on_c, 0, 67, 0
2, 26280, Note_on_c, 0, 69, 49
2, 26400, Note_on_c, 0, 69, 0
2, 26400, Note_on_c, 0, 62, 0
2, 26400, Note_on_c, 0, 70, 49
2, 26400, Note_on_c, 0, 67, 35
2, 26640, Note_on_c, 0, 67, 0
2, 26640, Note_on_c, 0, 70, 0
2, 26640, Note_on_c, 0, 72, 49
2, 26640, Note_on_c, 0, 57, 45
2, 26880, Note_on_c, 0, 57, 0
2, 26880, Note_on_c, 0, 62, 35
2, 27000, Note_on_c, 0, 72, 0
2, 27000, Note_on_c, 0, 74, 49
2, 27120, Note_on_c, 0, 74, 0
2, 27120, Note_on_c, 0, 62, 0
2, 27120, Note_on_c, 0, 72, 49
2, 27120, Note_on_c, 0, 66, 35
2, 27360, Note_on_c, 0, 55, 0
2, 27360, Note_on_c, 0, 66, 0
2, 27360, Note_on_c, 0, 72, 0
2, 27360, Note_on_c, 0, 70, 49
2, 27360, Note_on_c, 0, 58, 49
2, 27360, Note_on_c, 0, 55, 35
2, 27600, Note_on_c, 0, 58, 0
2, 27600, Note_on_c, 0, 62, 35
2, 27840, Note_on_c, 0, 62, 0
2, 27840, Note_on_c, 0, 67, 35
2, 28080, Note_on_c, 0, 67, 0
2, 28080, Note_on_c, 0, 70, 0
2, 28080, Note_on_c, 0, 69, 35
2, 28080, Note_on_c, 0, 60, 41
2, 28320, Note_on_c, 0, 60, 0
2, 28320, Note_on_c, 0, 62, 35
2, 28560, Note_on_c, 0, 62, 0
2, 28560, Note_on_c, 0, 66, 35
2, 28800, Note_on_c, 0, 66, 0
2, 28800, Note_on_c, 0, 69, 0
2, 28800, Note_on_c, 0, 55, 0
2, 28800, Note_on_c, 0, 67, 49
2, 28800, Note_on_c, 0, 58, 49
2, 28800, Note_on_c, 0, 55, 49
2, 29040, Note_on_c, 0, 58, 0
2, 29040, Note_on_c, 0, 62, 35
2, 29280, Note_on_c, 0, 62, 0
2, 29280, Note_on_c, 0, 67, 0
2, 29280, Note_on_c, 0, 74, 49
2, 29280, Note_on_c, 0, 67, 35
2, 29520, Note_on_c, 0, 67, 0
2, 29520, Note_on_c, 0, 74, 0
2, 29520, Note_on_c, 0, 72, 49
2, 29520, Note_on_c, 0, 57, 45
2, 29760, Note_on_c, 0, 57, 0
2, 29760, Note_on_c, 0, 62, 35
2, 30000, Note_on_c, 0, 62, 0
2, 30000, Note_on_c, 0, 72, 0
2, 30000, Note_on_c, 0, 74, 49
2, 30000, Note_on_c, 0, 66, 35
2, 30240, Note_on_c, 0, 66, 0
2, 30240, Note_on_c, 0, 74, 0
2, 30240, Note_on_c, 0, 55, 0
2, 30240, Note_on_c, 0, 70, 49
2, 30240, Note_on_c, 0, 58, 49
2, 30240, Note_on_c, 0, 55, 35
2, 30480, Note_on_c, 0, 58, 0
2, 30480, Note_on_c, 0, 62, 35
2, 30720, Note_on_c, 0, 62, 0
2, 30720, Note_on_c, 0, 67, 35
2, 30960, Note_on_c, 0, 67, 0
2, 30960, Note_on_c, 0, 70, 0
2, 30960, Note_on_c, 0, 69, 37
2, 30960, Note_on_c, 0, 60, 40
2, 31200, Note_on_c, 0, 60, 0
2, 31200, Note_on_c, 0, 62, 35
2, 31440, Note_on_c, 0, 62, 0
2, 31440, Note_on_c, 0, 66, 35
2, 31680, Note_on_c, 0, 69, 0
2, 31680, Note_on_c, 0, 55, 0
2, 31680, Note_on_c, 0, 66, 0
2, 31680, Note_on_c, 0, 67, 49
2, 31680, Note_on_c, 0, 58, 49
2, 31680, Note_on_c, 0, 55, 49
2, 31920, Note_on_c, 0, 58, 0
2, 31920, Note_on_c, 0, 62, 35
2, 32040, Note_on_c, 0, 67, 0
2, 32040, Note_on_c, 0, 69, 49
2, 32160, Note_on_c, 0, 69, 0
2, 32160, Note_on_c, 0, 62, 0
2, 32160, Note_on_c, 0, 70, 49
2, 32160, Note_on_c, 0, 67, 35
2, 32400, Note_on_c, 0, 67, 0
2, 32400, Note_on_c, 0, 70, 0
2, 32400, Note_on_c, 0, 72, 49
2, 32400, Note_on_c, 0, 57, 49
2, 32640, Note_on_c, 0, 57, 0
2, 32640, Note_on_c, 0, 62, 35
2, 32760, Note_on_c, 0, 72, 0
2, 32760, Note_on_c, 0, 74, 49
2, 32880, Note_on_c, 0, 74, 0
2, 32880, Note_on_c, 0, 62, 0
2, 32880, Note_on_c, 0, 72, 49
2, 32880, Note_on_c, 0, 66, 35
2, 33120, Note_on_c, 0, 66, 0
2, 33120, Note_on_c, 0, 72, 0
2, 33120, Note_on_c, 0, 55, 0
2, 33120, Note_on_c, 0, 70, 49
2, 33120, Note_on_c, 0, 58, 35
2, 33120, Note_on_c, 0, 55, 35
2, 33360, Note_on_c, 0, 58, 0
2, 33360, Note_on_c, 0, 62, 39
2, 33600, Note_on_c, 0, 62, 0
2, 33600, Note_on_c, 0, 67, 43
2, 33840, Note_on_c, 0, 55, 0
2, 33840, Note_on_c, 0, 70, 0
2, 33840, Note_on_c, 0, 67, 0
2, 33840, Note_on_c, 0, 69, 42
2, 33840, Note_on_c, 0, 53, 45
2, 34080, Note_on_c, 0, 63, 51
2, 34320, Note_on_c, 0, 63, 0
2, 34320, Note_on_c, 0, 65, 55
2, 34560, Note_on_c, 0, 65, 0
2, 34560, Note_on_c, 0, 53, 0
2, 34560, Note_on_c, 0, 69, 0
2, 34560, Note_on_c, 0, 70, 49
2, 34560, Note_on_c, 0, 62, 55
2, 34560, Note_on_c, 0, 58, 54
2, 34800, Note_on_c, 0, 62, 0
2, 34800, Note_on_c, 0, 65, 50
2, 35040, Note_on_c, 0, 65, 0
2, 35040, Note_on_c, 0, 70, 0
2, 35040, Note_on_c, 0, 77, 49
2, 35040, Note_on_c, 0, 70, 50
2, 35280, Note_on_c, 0, 70, 0
2, 35280, Note_on_c, 0, 77, 0
2, 35280, Note_on_c, 0, 76, 49
2, 35280, Note_on_c, 0, 60, 55
2, 35520, Note_on_c, 0, 60, 0
2, 35520, Note_on_c, 0, 65, 50
2, 35760, Note_on_c, 0, 65, 0
2, 35760, Note_on_c, 0, 76, 0
2, 35760, Note_on_c, 0, 77, 49
2, 35760, Note_on_c, 0, 69, 49
2, 36000, Note_on_c, 0, 69, 0
2, 36000, Note_on_c, 0, 77, 0
2, 36000, Note_on_c, 0, 58, 0
2, 36000, Note_on_c, 0, 74, 49
2, 36000, Note_on_c, 0, 62, 55
2, 36000, Note_on_c, 0, 58, 40
2, 36240, Note_on_c, 0, 62, 0
2, 36240, Note_on_c, 0, 65, 48
2, 36480, Note_on_c, 0, 65, 0
2, 36480, Note_on_c, 0, 70, 47
2, 36720, Note_on_c, 0, 70, 0
2, 36720, Note_on_c, 0, 74, 0
2, 36720, Note_on_c, 0, 72, 42
2, 36720, Note_on_c, 0, 63, 55
2, 36960, Note_on_c, 0, 63, 0
2, 36960, Note_on_c, 0, 65, 45
2, 37200, Note_on_c, 0, 65, 0
2, 37200, Note_on_c, 0, 69, 44
2, 37440, Note_on_c, 0, 69, 0
2, 37440, Note_on_c, 0, 72, 0
2, 37440, Note_on_c, 0, 58, 0
2, 37440, Note_on_c, 0, 70, 49
2, 37440, Note_on_c, 0, 62, 55
2, 37440, Note_on_c, 0, 58, 49
2, 37680, Note_on_c, 0, 62, 0
2, 37680, Note_on_c, 0, 65, 43
2, 37800, Note_on_c, 0, 70, 0
2, 37800, Note_on_c, 0, 72, 49
2, 37920, Note_on_c, 0, 72, 0
2, 37920, Note_on_c, 0, 65, 0
2, 37920, Note_on_c, 0, 74, 49
2, 37920, Note_on_c, 0, 70, 42
2, 38160, Note_on_c, 0, 70, 0
2, 38160, Note_on_c, 0, 74, 0
2, 38160, Note_on_c, 0, 75, 49
2, 38160, Note_on_c, 0, 60, 55
2, 38400, Note_on_c, 0, 60, 0
2, 38400, Note_on_c, 0, 65, 41
2, 38520, Note_on_c, 0, 75, 0
2, 38520, Note_on_c, 0, 77, 49
2, 38640, Note_on_c, 0, 77, 0
2, 38640, Note_on_c, 0, 65, 0
2, 38640, Note_on_c, 0, 75, 49
2, 38640, Note_on_c, 0, 69, 40
2, 38880, Note_on_c, 0, 58, 0
2, 38880, Note_on_c, 0, 69, 0
2, 38880, Note_on_c, 0, 75, 0
2, 38880, Note_on_c, 0, 74, 49
2, 38880, Note_on_c, 0, 62, 55
2, 38880, Note_on_c, 0, 58, 40
2, 39120, Note_on_c, 0, 62, 0
2, 39120, Note_on_c, 0, 65, 38
2, 39360, Note_on_c, 0, 65, 0
2, 39360, Note_on_c, 0, 70, 37
2, 39600, Note_on_c, 0, 70, 0
2, 39600, Note_on_c, 0, 74, 0
2, 39600, Note_on_c, 0, 72, 35
2, 39600, Note_on_c, 0, 63, 37
2, 39840, Note_on_c, 0, 63, 0
2, 39840, Note_on_c, 0, 65, 36
2, 40080, Note_on_c, 0, 65, 0
2, 40080, Note_on_c, 0, 69, 35
2, 40320, Note_on_c, 0, 69, 0
2, 40320, Note_on_c, 0, 72, 0
2, 40320, Note_on_c, 0, 58, 0
2, 40320, Note_on_c, 0, 70, 49
2, 40320, Note_on_c, 0, 62, 55
2, 40320, Note_on_c, 0, 58, 49
2, 40560, Note_on_c, 0, 62, 0
2, 40560, Note_on_c, 0, 65, 47
2, 40800, Note_on_c, 0, 65, 0
2, 40800, Note_on_c, 0, 70, 0
2, 40800, Note_on_c, 0, 77, 49
2, 40800, Note_on_c, 0, 70, 45
2, 41040, Note_on_c, 0, 70, 0
2, 41040, Note_on_c, 0, 77, 0
2, 41040, Note_on_c, 0, 76, 49
2, 41040, Note_on_c, 0, 60, 55
2, 41280, Note_on_c, 0, 60, 0
2, 41280, Note_on_c, 0, 65, 47
2, 41520, Note_on_c, 0, 65, 0
2, 41520, Note_on_c, 0, 76, 0
2, 41520, Note_on_c, 0, 77, 49
2, 41520, Note_on_c, 0, 69, 44
2, 41760, Note_on_c, 0, 58, 0
2, 41760, Note_on_c, 0, 69, 0
2, 41760, Note_on_c, 0, 77, 0
2, 41760, Note_on_c, 0, 74, 49
2, 41760, Note_on_c, 0, 62, 55
2, 41760, Note_on_c, 0, 58, 40
2, 42000, Note_on_c, 0, 62, 0
2, 42000, Note_on_c, 0, 65, 47
2, 42240, Note_on_c, 0, 65, 0
2, 42240, Note_on_c, 0, 70, 43
2, 42480, Note_on_c, 0, 70, 0
2, 42480, Note_on_c, 0, 74, 0
2, 42480, Note_on_c, 0, 72, 37
2, 42480, Note_on_c, 0, 63, 47
2, 42720, Note_on_c, 0, 63, 0
2, 42720, Note_on_c, 0, 65, 47
2, 42960, Note_on_c, 0, 65, 0
2, 42960, Note_on_c, 0, 69, 42
2, 43200, Note_on_c, 0, 69, 0
2, 43200, Note_on_c, 0, 72, 0
2, 43200, Note_on_c, 0, 58, 0
2, 43200, Note_on_c, 0, 70, 49
2, 43200, Note_on_c, 0, 62, 55
2, 43200, Note_on_c, 0, 58, 49
2, 43440, Note_on_c, 0, 62, 0
2, 43440, Note_on_c, 0, 65, 47
2, 43560, Note_on_c, 0, 70, 0
2, 43560, Note_on_c, 0, 72, 49
2, 43680, Note_on_c, 0, 72, 0
2, 43680, Note_on_c, 0, 65, 0
2, 43680, Note_on_c, 0, 74, 49
2, 43680, Note_on_c, 0, 70, 41
2, 43920, Note_on_c, 0, 70, 0
2, 43920, Note_on_c, 0, 74, 0
2, 43920, Note_on_c, 0, 75, 49
2, 43920, Note_on_c, 0, 60, 55
2, 44160, Note_on_c, 0, 60, 0
2, 44160, Note_on_c, 0, 65, 47
2, 44280, Note_on_c, 0, 75, 0
2, 44280, Note_on_c, 0, 77, 49
2, 44400, Note_on_c, 0, 77, 0
2, 44400, Note_on_c, 0, 65, 0
2, 44400, Note_on_c, 0, 75, 49
2, 44400, Note_on_c, 0, 69, 40
2, 44640, Note_on_c, 0, 69, 0
2, 44640, Note_on_c, 0, 75, 0
2, 44640, Note_on_c, 0, 58, 0
2, 44640, Note_on_c, 0, 74, 49
2, 44640, Note_on_c, 0, 62, 45
2, 44640, Note_on_c, 0, 58, 49
2, 44880, Note_on_c, 0, 62, 0
2, 44880, Note_on_c, 0, 65, 40
2, 45096, Note_on_c, 0, 74, 0
2, 45120, Note_on_c, 0, 65, 0
2, 45120, Note_on_c, 0, 70, 35
2, 45360, Note_on_c, 0, 70, 0
2, 45360, Note_on_c, 0, 58, 0
2, 45360, Note_on_c, 0, 74, 49
2, 45360, Note_on_c, 0, 57, 15
2, 45360, Note_on_c, 0, 60, 30
2, 45600, Note_on_c, 0, 60, 0
2, 45600, Note_on_c, 0, 62, 25
2, 45816, Note_on_c, 0, 74, 0
2, 45840, Note_on_c, 0, 62, 0
2, 45840, Note_on_c, 0, 66, 20
2, 46080, Note_on_c, 0, 57, 0
2, 46080, Note_on_c, 0, 66, 0
2, 46080, Note_on_c, 0, 58, 15
2, 46080, Note_on_c, 0, 55, 30
2, 46320, Note_on_c, 0, 58, 0
2, 46320, Note_on_c, 0, 62, 33
2, 46560, Note_on_c, 0, 62, 0
2, 46560, Note_on_c, 0, 74, 49
2, 46560, Note_on_c, 0, 67, 30
2, 46800, Note_on_c, 0, 67, 0
2, 46800, Note_on_c, 0, 74, 0
2, 46800, Note_on_c, 0, 72, 49
2, 46800, Note_on_c, 0, 57, 49
2, 47040, Note_on_c, 0, 57, 0
2, 47040, Note_on_c, 0, 62, 35
2, 47280, Note_on_c, 0, 62, 0
2, 47280, Note_on_c, 0, 72, 0
2, 47280, Note_on_c, 0, 74, 49
2, 47280, Note_on_c, 0, 66, 35
2, 47520, Note_on_c, 0, 66, 0
2, 47520, Note_on_c, 0, 74, 0
2, 47520, Note_on_c, 0, 55, 0
2, 47520, Note_on_c, 0, 70, 49
2, 47520, Note_on_c, 0, 58, 49
2, 47520, Note_on_c, 0, 55, 30
2, 47760, Note_on_c, 0, 58, 0
2, 47760, Note_on_c, 0, 62, 35
2, 48000, Note_on_c, 0, 62, 0
2, 48000, Note_on_c, 0, 67, 35
2, 48240, Note_on_c, 0, 70, 0
2, 48240, Note_on_c, 0, 67, 0
2, 48240, Note_on_c, 0, 69, 38
2, 48240, Note_on_c, 0, 60, 30
2, 48480, Note_on_c, 0, 60, 0
2, 48480, Note_on_c, 0, 62, 20
2, 48720, Note_on_c, 0, 62, 0
2, 48720, Note_on_c, 0, 66, 20
2, 48960, Note_on_c, 0, 55, 0
2, 48960, Note_on_c, 0, 66, 0
2, 48960, Note_on_c, 0, 69, 0
2, 48960, Note_on_c, 0, 67, 49
2, 48960, Note_on_c, 0, 58, 30
2, 48960, Note_on_c, 0, 55, 30
2, 49200, Note_on_c, 0, 58, 0
2, 49200, Note_on_c, 0, 62, 20
2, 49320, Note_on_c, 0, 67, 0
2, 49320, Note_on_c, 0, 69, 49
2, 49440, Note_on_c, 0, 69, 0
2, 49440, Note_on_c, 0, 62, 0
2, 49440, Note_on_c, 0, 70, 49
2, 49440, Note_on_c, 0, 67, 20
2, 49680, Note_on_c, 0, 67, 0
2, 49680, Note_on_c, 0, 70, 0
2, 49680, Note_on_c, 0, 72, 49
2, 49680, Note_on_c, 0, 57, 30
2, 49920, Note_on_c, 0, 57, 0
2, 49920, Note_on_c, 0, 62, 20
2, 50040, Note_on_c, 0, 72, 0
2, 50040, Note_on_c, 0, 74, 49
2, 50160, Note_on_c, 0, 74, 0
2, 50160, Note_on_c, 0, 62, 0
2, 50160, Note_on_c, 0, 72, 49
2, 50160, Note_on_c, 0, 66, 20
2, 50400, Note_on_c, 0, 66, 0
2, 50400, Note_on_c, 0, 72, 0
2, 50400, Note_on_c, 0, 55, 0
2, 50400, Note_on_c, 0, 70, 49
2, 50400, Note_on_c, 0, 58, 30
2, 50400, Note_on_c, 0, 55, 30
2, 50640, Note_on_c, 0, 58, 0
2, 50640, Note_on_c, 0, 62, 20
2, 50880, Note_on_c, 0, 62, 0
2, 50880, Note_on_c, 0, 67, 20
2, 51120, Note_on_c, 0, 67, 0
2, 51120, Note_on_c, 0, 70, 0
2, 51120, Note_on_c, 0, 69, 41
2, 51120, Note_on_c, 0, 60, 30
2, 51360, Note_on_c, 0, 60, 0
2, 51360, Note_on_c, 0, 62, 17
2, 51600, Note_on_c, 0, 62, 0
2, 51600, Note_on_c, 0, 66, 17
2, 51840, Note_on_c, 0, 66, 0
2, 51840, Note_on_c, 0, 69, 0
2, 51840, Note_on_c, 0, 55, 0
2, 51840, Note_on_c, 0, 67, 49
2, 51840, Note_on_c, 0, 58, 30
2, 51840, Note_on_c, 0, 55, 30
2, 52080, Note_on_c, 0, 58, 0
2, 52080, Note_on_c, 0, 62, 20
2, 52320, Note_on_c, 0, 62, 0
2, 52320, Note_on_c, 0, 67, 0
2, 52320, Note_on_c, 0, 74, 49
2, 52320, Note_on_c, 0, 67, 20
2, 52560, Note_on_c, 0, 67, 0
2, 52560, Note_on_c, 0, 74, 0
2, 52560, Note_on_c, 0, 72, 49
2, 52560, Note_on_c, 0, 57, 30
2, 52800, Note_on_c, 0, 57, 0
2, 52800, Note_on_c, 0, 62, 17
2, 53040, Note_on_c, 0, 72, 0
2, 53040, Note_on_c, 0, 62, 0
2, 53040, Note_on_c, 0, 74, 49
2, 53040, Note_on_c, 0, 66, 17
2, 53280, Note_on_c, 0, 55, 0
2, 53280, Note_on_c, 0, 66, 0
2, 53280, Note_on_c, 0, 74, 0
2, 53280, Note_on_c, 0, 70, 49
2, 53280, Note_on_c, 0, 58, 30
2, 53280, Note_on_c, 0, 55, 30
2, 53520, Note_on_c, 0, 58, 0
2, 53520, Note_on_c, 0, 62, 20
2, 53760, Note_on_c, 0, 62, 0
2, 53760, Note_on_c, 0, 67, 20
2, 54000, Note_on_c, 0, 67, 0
2, 54000, Note_on_c, 0, 70, 0
2, 54000, Note_on_c, 0, 69, 39
2, 54000, Note_on_c, 0, 60, 30
2, 54240, Note_on_c, 0, 60, 0
2, 54240, Note_on_c, 0, 62, 17
2, 54480, Note_on_c, 0, 62, 0
2, 54480, Note_on_c, 0, 66, 17
2, 54720, Note_on_c, 0, 66, 0
2, 54720, Note_on_c, 0, 69, 0
2, 54720, Note_on_c, 0, 55, 0
2, 54720, Note_on_c, 0, 67, 49
2, 54720, Note_on_c, 0, 58, 49
2, 54720, Note_on_c, 0, 55, 49
2, 54960, Note_on_c, 0, 58, 0
2, 54960, Note_on_c, 0, 62, 35
2, 55080, Note_on_c, 0, 67, 0
2, 55080, Note_on_c, 0, 69, 49
2, 55200, Note_on_c, 0, 69, 0
2, 55200, Note_on_c, 0, 62, 0
2, 55200, Note_on_c, 0, 70, 49
2, 55200, Note_on_c, 0, 67, 35
2, 55440, Note_on_c, 0, 67, 0
2, 55440, Note_on_c, 0, 70, 0
2, 55440, Note_on_c, 0, 72, 49
2, 55440, Note_on_c, 0, 57, 49
2, 55680, Note_on_c, 0, 57, 0
2, 55680, Note_on_c, 0, 62, 35
2, 55800, Note_on_c, 0, 72, 0
2, 55800, Note_on_c, 0, 74, 49
2, 55920, Note_on_c, 0, 74, 0
2, 55920, Note_on_c, 0, 62, 0
2, 55920, Note_on_c, 0, 72, 49
2, 55920, Note_on_c, 0, 66, 35
2, 56160, Note_on_c, 0, 55, 0
2, 56160, Note_on_c, 0, 66, 0
2, 56160, Note_on_c, 0, 72, 0
2, 56160, Note_on_c, 0, 70, 49
2, 56160, Note_on_c, 0, 58, 35
2, 56160, Note_on_c, 0, 55, 35
2, 56400, Note_on_c, 0, 58, 0
2, 56400, Note_on_c, 0, 62, 39
2, 56640, Note_on_c, 0, 62, 0
2, 56640, Note_on_c, 0, 67, 43
2, 56880, Note_on_c, 0, 67, 0
2, 56880, Note_on_c, 0, 55, 0
2, 56880, Note_on_c, 0, 70, 0
2, 56880, Note_on_c, 0, 69, 42
2, 56880, Note_on_c, 0, 53, 45
2, 57120, Note_on_c, 0, 63, 51
2, 57360, Note_on_c, 0, 63, 0
2, 57360, Note_on_c, 0, 65, 55
2, 57600, Note_on_c, 0, 65, 0
2, 57600, Note_on_c, 0, 53, 0
2, 57600, Note_on_c, 0, 69, 0
2, 57600, Note_on_c, 0, 70, 49
2, 57600, Note_on_c, 0, 62, 55
2, 57600, Note_on_c, 0, 58, 54
2, 57840, Note_on_c, 0, 62, 0
2, 57840, Note_on_c, 0, 65, 50
2, 58080, Note_on_c, 0, 65, 0
2, 58080, Note_on_c, 0, 70, 0
2, 58080, Note_on_c, 0, 77, 49
2, 58080, Note_on_c, 0, 70, 50
2, 58320, Note_on_c, 0, 70, 0
2, 58320, Note_on_c, 0, 77, 0
2, 58320, Note_on_c, 0, 76, 49
2, 58320, Note_on_c, 0, 60, 55
2, 58560, Note_on_c, 0, 60, 0
2, 58560, Note_on_c, 0, 65, 50
2, 58800, Note_on_c, 0, 65, 0
2, 58800, Note_on_c, 0, 76, 0
2, 58800, Note_on_c, 0, 77, 49
2, 58800, Note_on_c, 0, 69, 49
2, 59040, Note_on_c, 0, 69, 0
2, 59040, Note_on_c, 0, 77, 0
2, 59040, Note_on_c, 0, 58, 0
2, 59040, Note_on_c, 0, 74, 49
2, 59040, Note_on_c, 0, 62, 55
2, 59040, Note_on_c, 0, 58, 40
2, 59280, Note_on_c, 0, 62, 0
2, 59280, Note_on_c, 0, 65, 48
2, 59520, Note_on_c, 0, 65, 0
2, 59520, Note_on_c, 0, 70, 47
2, 59760, Note_on_c, 0, 70, 0
2, 59760, Note_on_c, 0, 74, 0
2, 59760, Note_on_c, 0, 72, 42
2, 59760, Note_on_c, 0, 63, 55
2, 60000, Note_on_c, 0, 63, 0
2, 60000, Note_on_c, 0, 65, 45
2, 60240, Note_on_c, 0, 65, 0
2, 60240, Note_on_c, 0, 69, 44
2, 60480, Note_on_c, 0, 72, 0
2, 60480, Note_on_c, 0, 58, 0
2, 60480, Note_on_c, 0, 69, 0
2, 60480, Note_on_c, 0, 70, 49
2, 60480, Note_on_c, 0, 62, 55
2, 60480, Note_on_c, 0, 58, 49
2, 60720, Note_on_c, 0, 62, 0
2, 60720, Note_on_c, 0, 65, 43
2, 60840, Note_on_c, 0, 70, 0
2, 60840, Note_on_c, 0, 72, 49
2, 60960, Note_on_c, 0, 72, 0
2, 60960, Note_on_c, 0, 65, 0
2, 60960, Note_on_c, 0, 74, 49
2, 60960, Note_on_c, 0, 70, 42
2, 61200, Note_on_c, 0, 70, 0
2, 61200, Note_on_c, 0, 74, 0
2, 61200, Note_on_c, 0, 75, 49
2, 61200, Note_on_c, 0, 60, 55
2, 61440, Note_on_c, 0, 60, 0
2, 61440, Note_on_c, 0, 65, 41
2, 61560, Note_on_c, 0, 75, 0
2, 61560, Note_on_c, 0, 77, 49
2, 61680, Note_on_c, 0, 77, 0
2, 61680, Note_on_c, 0, 65, 0
2, 61680, Note_on_c, 0, 75, 49
2, 61680, Note_on_c, 0, 69, 40
2, 61920, Note_on_c, 0, 69, 0
2, 61920, Note_on_c, 0, 75, 0
2, 61920, Note_on_c, 0, 58, 0
2, 61920, Note_on_c, 0, 74, 49
2, 61920, Note_on_c, 0, 62, 55
2, 61920, Note_on_c, 0, 58, 40
2, 62160, Note_on_c, 0, 62, 0
2, 62160, Note_on_c, 0, 65, 38
2, 62400, Note_on_c, 0, 65, 0
2, 62400, Note_on_c, 0, 70, 37
2, 62640, Note_on_c, 0, 74, 0
2, 62640, Note_on_c, 0, 70, 0
2, 62640, Note_on_c, 0, 72, 35
2, 62640, Note_on_c, 0, 63, 37
2, 62880, Note_on_c, 0, 63, 0
2, 62880, Note_on_c, 0, 65, 36
2, 63120, Note_on_c, 0, 65, 0
2, 63120, Note_on_c, 0, 69, 35
2, 63360, Note_on_c, 0, 58, 0
2, 63360, Note_on_c, 0, 69, 0
2, 63360, Note_on_c, 0, 72, 0
2, 63360, Note_on_c, 0, 70, 49
2, 63360, Note_on_c, 0, 62, 55
2, 63360, Note_on_c, 0, 58, 49
2, 63600, Note_on_c, 0, 62, 0
2, 63600, Note_on_c, 0, 65, 47
2, 63840, Note_on_c, 0, 65, 0
2, 63840, Note_on_c, 0, 70, 0
2, 63840, Note_on_c, 0, 77, 49
2, 63840, Note_on_c, 0, 70, 45
2, 64080, Note_on_c, 0, 70, 0
2, 64080, Note_on_c, 0, 77, 0
2, 64080, Note_on_c, 0, 76, 49
2, 64080, Note_on_c, 0, 60, 55
2, 64320, Note_on_c, 0, 60, 0
2, 64320, Note_on_c, 0, 65, 47
2, 64560, Note_on_c, 0, 65, 0
2, 64560, Note_on_c, 0, 76, 0
2, 64560, Note_on_c, 0, 77, 49
2, 64560, Note_on_c, 0, 69, 44
2, 64800, Note_on_c, 0, 69, 0
2, 64800, Note_on_c, 0, 77, 0
2, 64800, Note_on_c, 0, 58, 0
2, 64800, Note_on_c, 0, 74, 49
2, 64800, Note_on_c, 0, 62, 55
2, 64800, Note_on_c, 0, 58, 40
2, 65040, Note_on_c, 0, 62, 0
2, 65040, Note_on_c, 0, 65, 47
2, 65280, Note_on_c, 0, 65, 0
2, 65280, Note_on_c, 0, 70, 43
2, 65520, Note_on_c, 0, 70, 0
2, 65520, Note_on_c, 0, 74, 0
2, 65520, Note_on_c, 0, 72, 37
2, 65520, Note_on_c, 0, 63, 47
2, 65760, Note_on_c, 0, 63, 0
2, 65760, Note_on_c, 0, 65, 47
2, 66000, Note_on_c, 0, 65, 0
2, 66000, Note_on_c, 0, 69, 42
2, 66240, Note_on_c, 0, 69, 0
2, 66240, Note_on_c, 0, 72, 0
2, 66240, Note_on_c, 0, 58, 0
2, 66240, Note_on_c, 0, 70, 49
2, 66240, Note_on_c, 0, 62, 55
2, 66240, Note_on_c, 0, 58, 49
2, 66480, Note_on_c, 0, 62, 0
2, 66480, Note_on_c, 0, 65, 47
2, 66600, Note_on_c, 0, 70, 0
2, 66600, Note_on_c, 0, 72, 49
2, 66720, Note_on_c, 0, 72, 0
2, 66720, Note_on_c, 0, 65, 0
2, 66720, Note_on_c, 0, 74, 49
2, 66720, Note_on_c, 0, 70, 41
2, 66960, Note_on_c, 0, 70, 0
2, 66960, Note_on_c, 0, 74, 0
2, 66960, Note_on_c, 0, 75, 49
2, 66960, Note_on_c, 0, 60, 55
2, 67200, Note_on_c, 0, 60, 0
2, 67200, Note_on_c, 0, 65, 47
2, 67320, Note_on_c, 0, 75, 0
2, 67320, Note_on_c, 0, 77, 49
2, 67440, Note_on_c, 0, 77, 0
2, 67440, Note_on_c, 0, 65, 0
2, 67440, Note_on_c, 0, 75, 49
2, 67440, Note_on_c, 0, 69, 40
2, 67680, Note_on_c, 0, 58, 0
2, 67680, Note_on_c, 0, 69, 0
2, 67680, Note_on_c, 0, 75, 0
2, 67680, Note_on_c, 0, 74, 49
2, 67680, Note_on_c, 0, 62, 45
2, 67680, Note_on_c, 0, 58, 49
2, 67920, Note_on_c, 0, 62, 0
2, 67920, Note_on_c, 0, 65, 40
2, 68136, Note_on_c, 0, 74, 0
2, 68160, Note_on_c, 0, 65, 0
2, 68160, Note_on_c, 0, 70, 35
2, 68400, Note_on_c, 0, 70, 0
2, 68400, Note_on_c, 0, 58, 0
2, 68400, Note_on_c, 0, 74, 49
2, 68400, Note_on_c, 0, 57, 15
2, 68400, Note_on_c, 0, 60, 30
2, 68640, Note_on_c, 0, 60, 0
2, 68640, Note_on_c, 0, 62, 25
2, 68856, Note_on_c, 0, 74, 0
2, 68880, Note_on_c, 0, 62, 0
2, 68880, Note_on_c, 0, 66, 20
2, 69120, Note_on_c, 0, 66, 0
2, 69120, Note_on_c, 0, 57, 0
2, 69120, Note_on_c, 0, 58, 15
2, 69120, Note_on_c, 0, 55, 30
2, 69360, Note_on_c, 0, 58, 0
2, 69360, Note_on_c, 0, 62, 33
2, 69600, Note_on_c, 0, 62, 0
2, 69600, Note_on_c, 0, 74, 49
2, 69600, Note_on_c, 0, 67, 30
2, 69840, Note_on_c, 0, 67, 0
2, 69840, Note_on_c, 0, 74, 0
2, 69840, Note_on_c, 0, 72, 49
2, 69840, Note_on_c, 0, 57, 49
2, 70080, Note_on_c, 0, 57, 0
2, 70080, Note_on_c, 0, 62, 35
2, 70320, Note_on_c, 0, 62, 0
2, 70320, Note_on_c, 0, 72, 0
2, 70320, Note_on_c, 0, 74, 49
2, 70320, Note_on_c, 0, 66, 35
2, 70560, Note_on_c, 0, 55, 0
2, 70560, Note_on_c, 0, 66, 0
2, 70560, Note_on_c, 0, 74, 0
2, 70560, Note_on_c, 0, 70, 49
2, 70560, Note_on_c, 0, 58, 49
2, 70560, Note_on_c, 0, 55, 30
2, 70800, Note_on_c, 0, 58, 0
2, 70800, Note_on_c, 0, 62, 35
2, 71040, Note_on_c, 0, 62, 0
2, 71040, Note_on_c, 0, 67, 35
2, 71280, Note_on_c, 0, 67, 0
2, 71280, Note_on_c, 0, 70, 0
2, 71280, Note_on_c, 0, 69, 38
2, 71280, Note_on_c, 0, 60, 30
2, 71520, Note_on_c, 0, 60, 0
2, 71520, Note_on_c, 0, 62, 20
2, 71760, Note_on_c, 0, 62, 0
2, 71760, Note_on_c, 0, 66, 20
2, 72000, Note_on_c, 0, 66, 0
2, 72000, Note_on_c, 0, 69, 0
2, 72000, Note_on_c, 0, 55, 0
2, 72000, Note_on_c, 0, 67, 49
2, 72000, Note_on_c, 0, 58, 30
2, 72000, Note_on_c, 0, 55, 30
2, 72240, Note_on_c, 0, 58, 0
2, 72240, Note_on_c, 0, 62, 20
2, 72360, Note_on_c, 0, 67, 0
2, 72360, Note_on_c, 0, 69, 49
2, 72480, Note_on_c, 0, 69, 0
2, 72480, Note_on_c, 0, 62, 0
2, 72480, Note_on_c, 0, 70, 49
2, 72480, Note_on_c, 0, 67, 20
2, 72720, Note_on_c, 0, 67, 0
2, 72720, Note_on_c, 0, 70, 0
2, 72720, Note_on_c, 0, 72, 49
2, 72720, Note_on_c, 0, 57, 30
2, 72960, Note_on_c, 0, 57, 0
2, 72960, Note_on_c, 0, 62, 20
2, 73080, Note_on_c, 0, 72, 0
2, 73080, Note_on_c, 0, 74, 49
2, 73200, Note_on_c, 0, 74, 0
2, 73200, Note_on_c, 0, 62, 0
2, 73200, Note_on_c, 0, 72, 49
2, 73200, Note_on_c, 0, 66, 20
2, 73440, Note_on_c, 0, 66, 0
2, 73440, Note_on_c, 0, 72, 0
2, 73440, Note_on_c, 0, 55, 0
2, 73440, Note_on_c, 0, 70, 49
2, 73440, Note_on_c, 0, 58, 30
2, 73440, Note_on_c, 0, 55, 30
2, 73680, Note_on_c, 0, 58, 0
2, 73680, Note_on_c, 0, 62, 20
2, 73920, Note_on_c, 0, 62, 0
2, 73920, Note_on_c, 0, 67, 20
2, 74160, Note_on_c, 0, 67, 0
2, 74160, Note_on_c, 0, 70, 0
2, 74160, Note_on_c, 0, 69, 41
2, 74160, Note_on_c, 0, 60, 30
2, 74400, Note_on_c, 0, 60, 0
2, 74400, Note_on_c, 0, 62, 17
2, 74640, Note_on_c, 0, 62, 0
2, 74640, Note_on_c, 0, 66, 17
2, 74880, Note_on_c, 0, 69, 0
2, 74880, Note_on_c, 0, 55, 0
2, 74880, Note_on_c, 0, 66, 0
2, 74880, Note_on_c, 0, 67, 49
2, 74880, Note_on_c, 0, 58, 30
2, 74880, Note_on_c, 0, 55, 30
2, 75120, Note_on_c, 0, 58, 0
2, 75120, Note_on_c, 0, 62, 20
2, 75360, Note_on_c, 0, 62, 0
2, 75360, Note_on_c, 0, 67, 0
2, 75360, Note_on_c, 0, 74, 49
2, 75360, Note_on_c, 0, 67, 20
2, 75600, Note_on_c, 0, 67, 0
2, 75600, Note_on_c, 0, 74, 0
2, 75600, Note_on_c, 0, 72, 49
2, 75600, Note_on_c, 0, 57, 30
2, 75840, Note_on_c, 0, 57, 0
2, 75840, Note_on_c, 0, 62, 17
2, 76080, Note_on_c, 0, 62, 0
2, 76080, Note_on_c, 0, 72, 0
2, 76080, Note_on_c, 0, 74, 49
2, 76080, Note_on_c, 0, 66, 17
2, 76320, Note_on_c, 0, 66, 0
2, 76320, Note_on_c, 0, 74, 0
2, 76320, Note_on_c, 0, 55, 0
2, 76320, Note_on_c, 0, 70, 49
2, 76320, Note_on_c, 0, 58, 30
2, 76320, Note_on_c, 0, 55, 30
2, 76560, Note_on_c, 0, 58, 0
2, 76560, Note_on_c, 0, 62, 20
2, 76800, Note_on_c, 0, 62, 0
2, 76800, Note_on_c, 0, 67, 20
2, 77040, Note_on_c, 0, 70, 0
2, 77040, Note_on_c, 0, 67, 0
2, 77040, Note_on_c, 0, 69, 39
2, 77040, Note_on_c, 0, 60, 30
2, 77280, Note_on_c, 0, 60, 0
2, 77280, Note_on_c, 0, 62, 17
2, 77520, Note_on_c, 0, 62, 0
2, 77520, Note_on_c, 0, 66, 17
2, 77760, Note_on_c, 0, 55, 0
2, 77760, Note_on_c, 0, 66, 0
2, 77760, Note_on_c, 0, 69, 0
2, 77760, Note_on_c, 0, 67, 49
2, 77760, Note_on_c, 0, 58, 30
2, 77760, Note_on_c, 0, 55, 30
2, 78000, Note_on_c, 0, 58, 0
2, 78000, Note_on_c, 0, 62, 27
2, 78120, Note_on_c, 0, 67, 0
2, 78120, Note_on_c, 0, 69, 49
2, 78240, Note_on_c, 0, 69, 0
2, 78240, Note_on_c, 0, 62, 0
2, 78240, Note_on_c, 0, 70, 49
2, 78240, Note_on_c, 0, 67, 24
2, 78480, Note_on_c, 0, 67, 0
2, 78480, Note_on_c, 0, 70, 0
2, 78480, Note_on_c, 0, 72, 49
2, 78480, Note_on_c, 0, 57, 21
2, 78720, Note_on_c, 0, 57, 0
2, 78720, Note_on_c, 0, 72, 0
2, 78720, Note_on_c, 0, 62, 19
2, 78960, Note_on_c, 0, 62, 0
2, 78960, Note_on_c, 0, 66, 16
2, 78960, Note_on_c, 0, 74, 49
2, 79200, Note_on_c, 0, 66, 0
2, 79200, Note_on_c, 0, 55, 0
2, 79200, Note_on_c, 0, 67, 49
2, 79200, Note_on_c, 0, 55, 13
2, 79200, Note_on_c, 0, 58, 13
2, 79200, Note_on_c, 0, 62, 13
2, 79236, Control_c, 0, 7, 125
2, 79272, Control_c, 0, 7, 122
2, 79309, Control_c, 0, 7, 120
2, 79345, Control_c, 0, 7, 118
2, 79382, Control_c, 0, 7, 115
2, 79418, Control_c, 0, 7, 113
2, 79440, Note_on_c, 0, 74, 0
2, 79454, Control_c, 0, 7, 111
2, 79491, Control_c, 0, 7, 108
2, 79527, Control_c, 0, 7, 106
2, 79564, Control_c, 0, 7, 104
2, 79600, Control_c, 0, 7, 101
2, 79637, Control_c, 0, 7, 99
2, 79673, Control_c, 0, 7, 97
2, 79709, Control_c, 0, 7, 94
2, 79746, Control_c, 0, 7, 92
2, 79782, Control_c, 0, 7, 90
2, 79819, Control_c, 0, 7, 87
2, 79855, Control_c, 0, 7, 85
2, 79891, Control_c, 0, 7, 83
2, 79920, Note_on_c, 0, 67, 0
2, 79920, Note_on_c, 0, 79, 49
2, 79928, Control_c, 0, 7, 80
2, 79964, Control_c, 0, 7, 78
2, 80001, Control_c, 0, 7, 76
2, 80037, Control_c, 0, 7, 73
2, 80074, Control_c, 0, 7, 71
2, 80110, Control_c, 0, 7, 69
2, 80146, Control_c, 0, 7, 66
2, 80183, Control_c, 0, 7, 64
2, 80219, Control_c, 0, 7, 62
2, 80256, Control_c, 0, 7, 59
2, 80292, Control_c, 0, 7, 57
2, 80328, Control_c, 0, 7, 55
2, 80364, Control_c, 0, 7, 52
2, 80400, Control_c, 0, 7, 50
2, 80460, Note_on_c, 0, 79, 0
2, 80640, Note_on_c, 0, 62, 0
2, 80640, Note_on_c, 0, 58, 0
2, 80640, Note_on_c, 0, 55, 0
2, 80640, End_track
3, 0, Start_track
3, 0, Control_c, 1, 7, 95
3, 0, Control_c, 1, 0, 0
3, 0, Control_c, 1, 32, 0
3, 0, Program_c, 1, 53
3, 0, Control_c, 1, 1, 0
3, 0, Control_c, 1, 10, 64
3, 0, Control_c, 1, 91, 0
3, 0, Control_c, 1, 93, 0
3, 0, Key_signature, -2, "major"
3, 0, Title_t, "Voice"
3, 0, Note_on_c, 1, 67, 100
3, 0, Control_c, 1, 7, 95
3, 0, Control_c, 1, 0, 0
3, 0, Control_c, 1, 32, 0
3, 0, Program_c, 1, 53
3, 0, Control_c, 1, 1, 0
3, 0, Control_c, 1, 10, 64
3, 0, Control_c, 1, 91, 0
3, 0, Control_c, 1, 93, 0
3, 456, Note_on_c, 1, 67, 0
3, 480, Note_on_c, 1, 74, 100
3, 708, Note_on_c, 1, 74, 0
3, 720, Note_on_c, 1, 72, 100
3, 1176, Note_on_c, 1, 72, 0
3, 1200, Note_on_c, 1, 74, 100
3, 1428, Note_on_c, 1, 74, 0
3, 1440, Note_on_c, 1, 70, 100
3, 2148, Note_on_c, 1, 70, 0
3, 2160, Note_on_c, 1, 69, 100
3, 2868, Note_on_c, 1, 69, 0
3, 2880, Note_on_c, 1, 67, 100
3, 3222, Note_on_c, 1, 67, 0
3, 3240, Note_on_c, 1, 69, 100
3, 3354, Note_on_c, 1, 69, 0
3, 3360, Note_on_c, 1, 70, 100
3, 3588, Note_on_c, 1, 70, 0
3, 3600, Note_on_c, 1, 72, 100
3, 3942, Note_on_c, 1, 72, 0
3, 3960, Note_on_c, 1, 74, 100
3, 4074, Note_on_c, 1, 74, 0
3, 4080, Note_on_c, 1, 72, 100
3, 4308, Note_on_c, 1, 72, 0
3, 4320, Note_on_c, 1, 70, 100
3, 4356, Control_c, 1, 7, 94
3, 4392, Control_c, 1, 7, 93
3, 4465, Control_c, 1, 7, 92
3, 4502, Control_c, 1, 7, 91
3, 4538, Control_c, 1, 7, 90
3, 4574, Control_c, 1, 7, 89
3, 4647, Control_c, 1, 7, 88
3, 4684, Control_c, 1, 7, 87
3, 4720, Control_c, 1, 7, 86
3, 4756, Control_c, 1, 7, 85
3, 4829, Control_c, 1, 7, 84
3, 4866, Control_c, 1, 7, 83
3, 4902, Control_c, 1, 7, 82
3, 4939, Control_c, 1, 7, 81
3, 5011, Control_c, 1, 7, 80
3, 5028, Note_on_c, 1, 70, 0
3, 5040, Note_on_c, 1, 69, 100
3, 5048, Control_c, 1, 7, 79
3, 5084, Control_c, 1, 7, 78
3, 5121, Control_c, 1, 7, 77
3, 5193, Control_c, 1, 7, 76
3, 5230, Control_c, 1, 7, 75
3, 5266, Control_c, 1, 7, 74
3, 5303, Control_c, 1, 7, 73
3, 5376, Control_c, 1, 7, 72
3, 5400, Control_c, 1, 7, 71
3, 5496, Note_on_c, 1, 69, 0
3, 5760, Control_c, 1, 7, 95
3, 5760, Note_on_c, 1, 67, 100
3, 6216, Note_on_c, 1, 67, 0
3, 6240, Note_on_c, 1, 74, 100
3, 6468, Note_on_c, 1, 74, 0
3, 6480, Note_on_c, 1, 72, 100
3, 6936, Note_on_c, 1, 72, 0
3, 6960, Note_on_c, 1, 74, 100
3, 7188, Note_on_c, 1, 74, 0
3, 7200, Note_on_c, 1, 70, 100
3, 7908, Note_on_c, 1, 70, 0
3, 7920, Note_on_c, 1, 69, 100
3, 8628, Note_on_c, 1, 69, 0
3, 8640, Note_on_c, 1, 67, 100
3, 8982, Note_on_c, 1, 67, 0
3, 9000, Note_on_c, 1, 69, 100
3, 9114, Note_on_c, 1, 69, 0
3, 9120, Note_on_c, 1, 70, 100
3, 9348, Note_on_c, 1, 70, 0
3, 9360, Note_on_c, 1, 72, 100
3, 9702, Note_on_c, 1, 72, 0
3, 9720, Note_on_c, 1, 74, 100
3, 9834, Note_on_c, 1, 74, 0
3, 9840, Note_on_c, 1, 72, 100
3, 10068, Note_on_c, 1, 72, 0
3, 10080, Note_on_c, 1, 70, 100
3, 10116, Control_c, 1, 7, 94
3, 10189, Control_c, 1, 7, 93
3, 10225, Control_c, 1, 7, 92
3, 10298, Control_c, 1, 7, 91
3, 10334, Control_c, 1, 7, 90
3, 10407, Control_c, 1, 7, 89
3, 10444, Control_c, 1, 7, 88
3, 10516, Control_c, 1, 7, 87
3, 10553, Control_c, 1, 7, 86
3, 10626, Control_c, 1, 7, 85
3, 10662, Control_c, 1, 7, 84
3, 10735, Control_c, 1, 7, 83
3, 10771, Control_c, 1, 7, 82
3, 10788, Note_on_c, 1, 70, 0
3, 10800, Note_on_c, 1, 69, 100
3, 10844, Control_c, 1, 7, 81
3, 10881, Control_c, 1, 7, 80
3, 10953, Control_c, 1, 7, 79
3, 10990, Control_c, 1, 7, 78
3, 11063, Control_c, 1, 7, 77
3, 11099, Control_c, 1, 7, 76
3, 11172, Control_c, 1, 7, 75
3, 11208, Control_c, 1, 7, 74
3, 11256, Note_on_c, 1, 69, 0
3, 11281, Control_c, 1, 7, 73
3, 11317, Control_c, 1, 7, 72
3, 11390, Control_c, 1, 7, 71
3, 11520, Control_c, 1, 7, 100
3, 11520, Note_on_c, 1, 70, 100
3, 11976, Note_on_c, 1, 70, 0
3, 12000, Note_on_c, 1, 77, 100
3, 12228, Note_on_c, 1, 77, 0
3, 12240, Note_on_c, 1, 76, 100
3, 12696, Note_on_c, 1, 76, 0
3, 12720, Note_on_c, 1, 77, 100
3, 12948, Note_on_c, 1, 77, 0
3, 12960, Note_on_c, 1, 74, 100
3, 13668, Note_on_c, 1, 74, 0
3, 13680, Note_on_c, 1, 72, 100
3, 14388, Note_on_c, 1, 72, 0
3, 14400, Note_on_c, 1, 70, 100
3, 14742, Note_on_c, 1, 70, 0
3, 14760, Note_on_c, 1, 72, 100
3, 14874, Note_on_c, 1, 72, 0
3, 14880, Note_on_c, 1, 74, 100
3, 15108, Note_on_c, 1, 74, 0
3, 15120, Note_on_c, 1, 75, 100
3, 15462, Note_on_c, 1, 75, 0
3, 15480, Note_on_c, 1, 77, 100
3, 15594, Note_on_c, 1, 77, 0
3, 15600, Note_on_c, 1, 75, 100
3, 15828, Note_on_c, 1, 75, 0
3, 15840, Note_on_c, 1, 74, 100
3, 15876, Control_c, 1, 7, 99
3, 15949, Control_c, 1, 7, 98
3, 15985, Control_c, 1, 7, 97
3, 16058, Control_c, 1, 7, 96
3, 16094, Control_c, 1, 7, 95
3, 16131, Control_c, 1, 7, 94
3, 16204, Control_c, 1, 7, 93
3, 16240, Control_c, 1, 7, 92
3, 16313, Control_c, 1, 7, 91
3, 16349, Control_c, 1, 7, 90
3, 16422, Control_c, 1, 7, 89
3, 16459, Control_c, 1, 7, 88
3, 16531, Control_c, 1, 7, 87
3, 16548, Note_on_c, 1, 74, 0
3, 16560, Note_on_c, 1, 72, 100
3, 16568, Control_c, 1, 7, 86
3, 16641, Control_c, 1, 7, 85
3, 16677, Control_c, 1, 7, 84
3, 16713, Control_c, 1, 7, 83
3, 16786, Control_c, 1, 7, 82
3, 16823, Control_c, 1, 7, 81
3, 16896, Control_c, 1, 7, 80
3, 16932, Control_c, 1, 7, 79
3, 17004, Control_c, 1, 7, 78
3, 17016, Note_on_c, 1, 72, 0
3, 17041, Control_c, 1, 7, 77
3, 17114, Control_c, 1, 7, 76
3, 17150, Control_c, 1, 7, 75
3, 17280, Control_c, 1, 7, 100
3, 17280, Note_on_c, 1, 70, 100
3, 17736, Note_on_c, 1, 70, 0
3, 17760, Note_on_c, 1, 77, 100
3, 17988, Note_on_c, 1, 77, 0
3, 18000, Note_on_c, 1, 76, 100
3, 18456, Note_on_c, 1, 76, 0
3, 18480, Note_on_c, 1, 77, 100
3, 18708, Note_on_c, 1, 77, 0
3, 18720, Note_on_c, 1, 74, 100
3, 19428, Note_on_c, 1, 74, 0
3, 19440, Note_on_c, 1, 72, 100
3, 20148, Note_on_c, 1, 72, 0
3, 20160, Note_on_c, 1, 70, 100
3, 20502, Note_on_c, 1, 70, 0
3, 20520, Note_on_c, 1, 72, 100
3, 20634, Note_on_c, 1, 72, 0
3, 20640, Note_on_c, 1, 74, 100
3, 20868, Note_on_c, 1, 74, 0
3, 20880, Note_on_c, 1, 75, 100
3, 21222, Note_on_c, 1, 75, 0
3, 21240, Note_on_c, 1, 77, 100
3, 21354, Note_on_c, 1, 77, 0
3, 21360, Note_on_c, 1, 75, 100
3, 21588, Note_on_c, 1, 75, 0
3, 21600, Note_on_c, 1, 74, 100
3, 21600, Control_c, 1, 7, 100
3, 21636, Control_c, 1, 7, 99
3, 21636, Control_c, 1, 7, 99
3, 21672, Control_c, 1, 7, 98
3, 21672, Control_c, 1, 7, 98
3, 21745, Control_c, 1, 7, 97
3, 21745, Control_c, 1, 7, 97
3, 21782, Control_c, 1, 7, 96
3, 21782, Control_c, 1, 7, 96
3, 21818, Control_c, 1, 7, 95
3, 21818, Control_c, 1, 7, 95
3, 21854, Control_c, 1, 7, 94
3, 21854, Control_c, 1, 7, 94
3, 21891, Control_c, 1, 7, 93
3, 21891, Control_c, 1, 7, 93
3, 21964, Control_c, 1, 7, 92
3, 21964, Control_c, 1, 7, 92
3, 22000, Control_c, 1, 7, 91
3, 22000, Control_c, 1, 7, 91
3, 22036, Control_c, 1, 7, 90
3, 22036, Control_c, 1, 7, 90
3, 22073, Control_c, 1, 7, 89
3, 22073, Control_c, 1, 7, 89
3, 22109, Control_c, 1, 7, 88
3, 22109, Control_c, 1, 7, 88
3, 22182, Control_c, 1, 7, 87
3, 22182, Control_c, 1, 7, 87
3, 22219, Control_c, 1, 7, 86
3, 22219, Control_c, 1, 7, 86
3, 22255, Control_c, 1, 7, 85
3, 22255, Control_c, 1, 7, 85
3, 22291, Control_c, 1, 7, 84
3, 22291, Control_c, 1, 7, 84
3, 22308, Note_on_c, 1, 74, 0
3, 22320, Note_on_c, 1, 74, 100
3, 22328, Control_c, 1, 7, 83
3, 22328, Control_c, 1, 7, 83
3, 22401, Control_c, 1, 7, 82
3, 22401, Control_c, 1, 7, 82
3, 22437, Control_c, 1, 7, 81
3, 22437, Control_c, 1, 7, 81
3, 22473, Control_c, 1, 7, 80
3, 22473, Control_c, 1, 7, 80
3, 22510, Control_c, 1, 7, 79
3, 22510, Control_c, 1, 7, 79
3, 22546, Control_c, 1, 7, 78
3, 22546, Control_c, 1, 7, 78
3, 22619, Control_c, 1, 7, 77
3, 22619, Control_c, 1, 7, 77
3, 22656, Control_c, 1, 7, 76
3, 22656, Control_c, 1, 7, 76
3, 22692, Control_c, 1, 7, 75
3, 22692, Control_c, 1, 7, 75
3, 22728, Control_c, 1, 7, 74
3, 22728, Control_c, 1, 7, 74
3, 22776, Note_on_c, 1, 74, 0
3, 22801, Control_c, 1, 7, 73
3, 22801, Control_c, 1, 7, 73
3, 22837, Control_c, 1, 7, 72
3, 22837, Control_c, 1, 7, 72
3, 22874, Control_c, 1, 7, 71
3, 22874, Control_c, 1, 7, 71
3, 22910, Control_c, 1, 7, 70
3, 22910, Control_c, 1, 7, 70
3, 23040, Control_c, 1, 7, 90
3, 23040, Note_on_c, 1, 74, 100
3, 23496, Note_on_c, 1, 74, 0
3, 23520, Note_on_c, 1, 74, 100
3, 23748, Note_on_c, 1, 74, 0
3, 23760, Note_on_c, 1, 72, 100
3, 24216, Note_on_c, 1, 72, 0
3, 24240, Note_on_c, 1, 74, 100
3, 24468, Note_on_c, 1, 74, 0
3, 24480, Control_c, 1, 7, 95
3, 24480, Note_on_c, 1, 70, 100
3, 25188, Note_on_c, 1, 70, 0
3, 25200, Note_on_c, 1, 69, 100
3, 25908, Note_on_c, 1, 69, 0
3, 25920, Note_on_c, 1, 67, 100
3, 26262, Note_on_c, 1, 67, 0
3, 26280, Note_on_c, 1, 69, 100
3, 26394, Note_on_c, 1, 69, 0
3, 26400, Note_on_c, 1, 70, 100
3, 26628, Note_on_c, 1, 70, 0
3, 26640, Note_on_c, 1, 72, 100
3, 26982, Note_on_c, 1, 72, 0
3, 27000, Note_on_c, 1, 74, 100
3, 27114, Note_on_c, 1, 74, 0
3, 27120, Note_on_c, 1, 72, 100
3, 27348, Note_on_c, 1, 72, 0
3, 27360, Note_on_c, 1, 70, 100
3, 27396, Control_c, 1, 7, 94
3, 27432, Control_c, 1, 7, 93
3, 27505, Control_c, 1, 7, 92
3, 27542, Control_c, 1, 7, 91
3, 27578, Control_c, 1, 7, 90
3, 27614, Control_c, 1, 7, 89
3, 27687, Control_c, 1, 7, 88
3, 27724, Control_c, 1, 7, 87
3, 27760, Control_c, 1, 7, 86
3, 27796, Control_c, 1, 7, 85
3, 27869, Control_c, 1, 7, 84
3, 27906, Control_c, 1, 7, 83
3, 27942, Control_c, 1, 7, 82
3, 27979, Control_c, 1, 7, 81
3, 28051, Control_c, 1, 7, 80
3, 28068, Note_on_c, 1, 70, 0
3, 28080, Note_on_c, 1, 69, 100
3, 28088, Control_c, 1, 7, 79
3, 28124, Control_c, 1, 7, 78
3, 28161, Control_c, 1, 7, 77
3, 28233, Control_c, 1, 7, 76
3, 28270, Control_c, 1, 7, 75
3, 28306, Control_c, 1, 7, 74
3, 28343, Control_c, 1, 7, 73
3, 28416, Control_c, 1, 7, 72
3, 28440, Control_c, 1, 7, 71
3, 28536, Note_on_c, 1, 69, 0
3, 28800, Control_c, 1, 7, 95
3, 28800, Note_on_c, 1, 67, 100
3, 29256, Note_on_c, 1, 67, 0
3, 29280, Note_on_c, 1, 74, 100
3, 29508, Note_on_c, 1, 74, 0
3, 29520, Note_on_c, 1, 72, 100
3, 29976, Note_on_c, 1, 72, 0
3, 30000, Note_on_c, 1, 74, 100
3, 30228, Note_on_c, 1, 74, 0
3, 30240, Note_on_c, 1, 70, 100
3, 30948, Note_on_c, 1, 70, 0
3, 30960, Note_on_c, 1, 69, 100
3, 31668, Note_on_c, 1, 69, 0
3, 31680, Note_on_c, 1, 67, 100
3, 32022, Note_on_c, 1, 67, 0
3, 32040, Note_on_c, 1, 69, 100
3, 32154, Note_on_c, 1, 69, 0
3, 32160, Note_on_c, 1, 70, 100
3, 32388, Note_on_c, 1, 70, 0
3, 32400, Note_on_c, 1, 72, 100
3, 32742, Note_on_c, 1, 72, 0
3, 32760, Note_on_c, 1, 74, 100
3, 32874, Note_on_c, 1, 74, 0
3, 32880, Note_on_c, 1, 72, 100
3, 33108, Note_on_c, 1, 72, 0
3, 33120, Note_on_c, 1, 70, 100
3, 33156, Control_c, 1, 7, 94
3, 33229, Control_c, 1, 7, 93
3, 33265, Control_c, 1, 7, 92
3, 33338, Control_c, 1, 7, 91
3, 33374, Control_c, 1, 7, 90
3, 33447, Control_c, 1, 7, 89
3, 33484, Control_c, 1, 7, 88
3, 33556, Control_c, 1, 7, 87
3, 33593, Control_c, 1, 7, 86
3, 33666, Control_c, 1, 7, 85
3, 33702, Control_c, 1, 7, 84
3, 33775, Control_c, 1, 7, 83
3, 33811, Control_c, 1, 7, 82
3, 33828, Note_on_c, 1, 70, 0
3, 33840, Note_on_c, 1, 69, 100
3, 33884, Control_c, 1, 7, 81
3, 33921, Control_c, 1, 7, 80
3, 33993, Control_c, 1, 7, 79
3, 34030, Control_c, 1, 7, 78
3, 34103, Control_c, 1, 7, 77
3, 34139, Control_c, 1, 7, 76
3, 34212, Control_c, 1, 7, 75
3, 34248, Control_c, 1, 7, 74
3, 34296, Note_on_c, 1, 69, 0
3, 34321, Control_c, 1, 7, 73
3, 34357, Control_c, 1, 7, 72
3, 34430, Control_c, 1, 7, 71
3, 34560, Control_c, 1, 7, 100
3, 34560, Note_on_c, 1, 70, 100
3, 35016, Note_on_c, 1, 70, 0
3, 35040, Note_on_c, 1, 77, 100
3, 35268, Note_on_c, 1, 77, 0
3, 35280, Note_on_c, 1, 76, 100
3, 35736, Note_on_c, 1, 76, 0
3, 35760, Note_on_c, 1, 77, 100
3, 35988, Note_on_c, 1, 77, 0
3, 36000, Note_on_c, 1, 74, 100
3, 36708, Note_on_c, 1, 74, 0
3, 36720, Note_on_c, 1, 72, 100
3, 37428, Note_on_c, 1, 72, 0
3, 37440, Note_on_c, 1, 70, 100
3, 37782, Note_on_c, 1, 70, 0
3, 37800, Note_on_c, 1, 72, 100
3, 37914, Note_on_c, 1, 72, 0
3, 37920, Note_on_c, 1, 74, 100
3, 38148, Note_on_c, 1, 74, 0
3, 38160, Note_on_c, 1, 75, 100
3, 38502, Note_on_c, 1, 75, 0
3, 38520, Note_on_c, 1, 77, 100
3, 38634, Note_on_c, 1, 77, 0
3, 38640, Note_on_c, 1, 75, 100
3, 38868, Note_on_c, 1, 75, 0
3, 38880, Note_on_c, 1, 74, 100
3, 38916, Control_c, 1, 7, 99
3, 38989, Control_c, 1, 7, 98
3, 39025, Control_c, 1, 7, 97
3, 39098, Control_c, 1, 7, 96
3, 39134, Control_c, 1, 7, 95
3, 39171, Control_c, 1, 7, 94
3, 39244, Control_c, 1, 7, 93
3, 39280, Control_c, 1, 7, 92
3, 39353, Control_c, 1, 7, 91
3, 39389, Control_c, 1, 7, 90
3, 39462, Control_c, 1, 7, 89
3, 39499, Control_c, 1, 7, 88
3, 39571, Control_c, 1, 7, 87
3, 39588, Note_on_c, 1, 74, 0
3, 39600, Note_on_c, 1, 72, 100
3, 39608, Control_c, 1, 7, 86
3, 39681, Control_c, 1, 7, 85
3, 39717, Control_c, 1, 7, 84
3, 39753, Control_c, 1, 7, 83
3, 39826, Control_c, 1, 7, 82
3, 39863, Control_c, 1, 7, 81
3, 39936, Control_c, 1, 7, 80
3, 39972, Control_c, 1, 7, 79
3, 40044, Control_c, 1, 7, 78
3, 40056, Note_on_c, 1, 72, 0
3, 40081, Control_c, 1, 7, 77
3, 40154, Control_c, 1, 7, 76
3, 40190, Control_c, 1, 7, 75
3, 40320, Control_c, 1, 7, 100
3, 40320, Note_on_c, 1, 70, 100
3, 40776, Note_on_c, 1, 70, 0
3, 40800, Note_on_c, 1, 77, 100
3, 41028, Note_on_c, 1, 77, 0
3, 41040, Note_on_c, 1, 76, 100
3, 41496, Note_on_c, 1, 76, 0
3, 41520, Note_on_c, 1, 77, 100
3, 41748, Note_on_c, 1, 77, 0
3, 41760, Note_on_c, 1, 74, 100
3, 42468, Note_on_c, 1, 74, 0
3, 42480, Note_on_c, 1, 72, 100
3, 43188, Note_on_c, 1, 72, 0
3, 43200, Note_on_c, 1, 70, 100
3, 43542, Note_on_c, 1, 70, 0
3, 43560, Note_on_c, 1, 72, 100
3, 43674, Note_on_c, 1, 72, 0
3, 43680, Note_on_c, 1, 74, 100
3, 43908, Note_on_c, 1, 74, 0
3, 43920, Note_on_c, 1, 75, 100
3, 44262, Note_on_c, 1, 75, 0
3, 44280, Note_on_c, 1, 77, 100
3, 44394, Note_on_c, 1, 77, 0
3, 44400, Note_on_c, 1, 75, 100
3, 44628, Note_on_c, 1, 75, 0
3, 44640, Note_on_c, 1, 74, 100
3, 44676, Control_c, 1, 7, 99
3, 44712, Control_c, 1, 7, 98
3, 44785, Control_c, 1, 7, 97
3, 44822, Control_c, 1, 7, 96
3, 44858, Control_c, 1, 7, 95
3, 44894, Control_c, 1, 7, 94
3, 44931, Control_c, 1, 7, 93
3, 45004, Control_c, 1, 7, 92
3, 45040, Control_c, 1, 7, 91
3, 45076, Control_c, 1, 7, 90
3, 45113, Control_c, 1, 7, 89
3, 45149, Control_c, 1, 7, 88
3, 45222, Control_c, 1, 7, 87
3, 45259, Control_c, 1, 7, 86
3, 45295, Control_c, 1, 7, 85
3, 45331, Control_c, 1, 7, 84
3, 45348, Note_on_c, 1, 74, 0
3, 45360, Note_on_c, 1, 74, 100
3, 45368, Control_c, 1, 7, 83
3, 45441, Control_c, 1, 7, 82
3, 45477, Control_c, 1, 7, 81
3, 45513, Control_c, 1, 7, 80
3, 45550, Control_c, 1, 7, 79
3, 45586, Control_c, 1, 7, 78
3, 45659, Control_c, 1, 7, 77
3, 45696, Control_c, 1, 7, 76
3, 45732, Control_c, 1, 7, 75
3, 45768, Control_c, 1, 7, 74
3, 45816, Note_on_c, 1, 74, 0
3, 45841, Control_c, 1, 7, 73
3, 45877, Control_c, 1, 7, 72
3, 45914, Control_c, 1, 7, 71
3, 45950, Control_c, 1, 7, 70
3, 46080, Control_c, 1, 7, 90
3, 46080, Note_on_c, 1, 74, 100
3, 46536, Note_on_c, 1, 74, 0
3, 46560, Note_on_c, 1, 74, 100
3, 46788, Note_on_c, 1, 74, 0
3, 46800, Note_on_c, 1, 72, 100
3, 47256, Note_on_c, 1, 72, 0
3, 47280, Note_on_c, 1, 74, 100
3, 47508, Note_on_c, 1, 74, 0
3, 47520, Note_on_c, 1, 70, 100
3, 48228, Note_on_c, 1, 70, 0
3, 48240, Note_on_c, 1, 69, 100
3, 48948, Note_on_c, 1, 69, 0
3, 48960, Note_on_c, 1, 67, 100
3, 49302, Note_on_c, 1, 67, 0
3, 49320, Note_on_c, 1, 69, 100
3, 49434, Note_on_c, 1, 69, 0
3, 49440, Note_on_c, 1, 70, 100
3, 49668, Note_on_c, 1, 70, 0
3, 49680, Note_on_c, 1, 72, 100
3, 50022, Note_on_c, 1, 72, 0
3, 50040, Note_on_c, 1, 74, 100
3, 50154, Note_on_c, 1, 74, 0
3, 50160, Note_on_c, 1, 72, 100
3, 50388, Note_on_c, 1, 72, 0
3, 50400, Note_on_c, 1, 70, 100
3, 51108, Note_on_c, 1, 70, 0
3, 51120, Note_on_c, 1, 69, 100
3, 51576, Note_on_c, 1, 69, 0
3, 51840, Note_on_c, 1, 67, 100
3, 52296, Note_on_c, 1, 67, 0
3, 52320, Note_on_c, 1, 74, 100
3, 52548, Note_on_c, 1, 74, 0
3, 52560, Note_on_c, 1, 72, 100
3, 53016, Note_on_c, 1, 72, 0
3, 53040, Note_on_c, 1, 74, 100
3, 53268, Note_on_c, 1, 74, 0
3, 53280, Note_on_c, 1, 70, 100
3, 53988, Note_on_c, 1, 70, 0
3, 54000, Note_on_c, 1, 69, 100
3, 54708, Note_on_c, 1, 69, 0
3, 54720, Note_on_c, 1, 67, 100
3, 55062, Note_on_c, 1, 67, 0
3, 55080, Note_on_c, 1, 69, 100
3, 55194, Note_on_c, 1, 69, 0
3, 55200, Note_on_c, 1, 70, 100
3, 55428, Note_on_c, 1, 70, 0
3, 55440, Note_on_c, 1, 72, 100
3, 55782, Note_on_c, 1, 72, 0
3, 55800, Note_on_c, 1, 74, 100
3, 55914, Note_on_c, 1, 74, 0
3, 55920, Note_on_c, 1, 72, 100
3, 56148, Note_on_c, 1, 72, 0
3, 56160, Note_on_c, 1, 70, 100
3, 56868, Note_on_c, 1, 70, 0
3, 56880, Note_on_c, 1, 69, 100
3, 57336, Note_on_c, 1, 69, 0
3, 57600, Note_on_c, 1, 70, 100
3, 58056, Note_on_c, 1, 70, 0
3, 58080, Note_on_c, 1, 77, 100
3, 58308, Note_on_c, 1, 77, 0
3, 58320, Note_on_c, 1, 76, 100
3, 58776, Note_on_c, 1, 76, 0
3, 58800, Note_on_c, 1, 77, 100
3, 59028, Note_on_c, 1, 77, 0
3, 59040, Note_on_c, 1, 74, 100
3, 59748, Note_on_c, 1, 74, 0
3, 59760, Note_on_c, 1, 72, 100
3, 60468, Note_on_c, 1, 72, 0
3, 60480, Note_on_c, 1, 70, 100
3, 60822, Note_on_c, 1, 70, 0
3, 60840, Note_on_c, 1, 72, 100
3, 60954, Note_on_c, 1, 72, 0
3, 60960, Note_on_c, 1, 74, 100
3, 61188, Note_on_c, 1, 74, 0
3, 61200, Note_on_c, 1, 75, 100
3, 61542, Note_on_c, 1, 75, 0
3, 61560, Note_on_c, 1, 77, 100
3, 61674, Note_on_c, 1, 77, 0
3, 61680, Note_on_c, 1, 75, 100
3, 61908, Note_on_c, 1, 75, 0
3, 61920, Note_on_c, 1, 74, 100
3, 62628, Note_on_c, 1, 74, 0
3, 62640, Note_on_c, 1, 72, 100
3, 63096, Note_on_c, 1, 72, 0
3, 63360, Note_on_c, 1, 70, 100
3, 63816, Note_on_c, 1, 70, 0
3, 63840, Note_on_c, 1, 77, 100
3, 64068, Note_on_c, 1, 77, 0
3, 64080, Note_on_c, 1, 76, 100
3, 64536, Note_on_c, 1, 76, 0
3, 64560, Note_on_c, 1, 77, 100
3, 64788, Note_on_c, 1, 77, 0
3, 64800, Note_on_c, 1, 74, 100
3, 65508, Note_on_c, 1, 74, 0
3, 65520, Note_on_c, 1, 72, 100
3, 66228, Note_on_c, 1, 72, 0
3, 66240, Note_on_c, 1, 70, 100
3, 66582, Note_on_c, 1, 70, 0
3, 66600, Note_on_c, 1, 72, 100
3, 66714, Note_on_c, 1, 72, 0
3, 66720, Note_on_c, 1, 74, 100
3, 66948, Note_on_c, 1, 74, 0
3, 66960, Note_on_c, 1, 75, 100
3, 67302, Note_on_c, 1, 75, 0
3, 67320, Note_on_c, 1, 77, 100
3, 67434, Note_on_c, 1, 77, 0
3, 67440, Note_on_c, 1, 75, 100
3, 67668, Note_on_c, 1, 75, 0
3, 67680, Note_on_c, 1, 74, 100
3, 68388, Note_on_c, 1, 74, 0
3, 68400, Note_on_c, 1, 74, 100
3, 68856, Note_on_c, 1, 74, 0
3, 69120, Note_on_c, 1, 74, 100
3, 69576, Note_on_c, 1, 74, 0
3, 69600, Note_on_c, 1, 74, 100
3, 69828, Note_on_c, 1, 74, 0
3, 69840, Note_on_c, 1, 72, 100
3, 70296, Note_on_c, 1, 72, 0
3, 70320, Note_on_c, 1, 74, 100
3, 70548, Note_on_c, 1, 74, 0
3, 70560, Note_on_c, 1, 70, 100
3, 71268, Note_on_c, 1, 70, 0
3, 71280, Note_on_c, 1, 69, 100
3, 71988, Note_on_c, 1, 69, 0
3, 72000, Note_on_c, 1, 67, 100
3, 72342, Note_on_c, 1, 67, 0
3, 72360, Note_on_c, 1, 69, 100
3, 72474, Note_on_c, 1, 69, 0
3, 72480, Note_on_c, 1, 70, 100
3, 72708, Note_on_c, 1, 70, 0
3, 72720, Note_on_c, 1, 72, 100
3, 73062, Note_on_c, 1, 72, 0
3, 73080, Note_on_c, 1, 74, 100
3, 73194, Note_on_c, 1, 74, 0
3, 73200, Note_on_c, 1, 72, 100
3, 73428, Note_on_c, 1, 72, 0
3, 73440, Note_on_c, 1, 70, 100
3, 74148, Note_on_c, 1, 70, 0
3, 74160, Note_on_c, 1, 69, 100
3, 74616, Note_on_c, 1, 69, 0
3, 74880, Note_on_c, 1, 67, 100
3, 75336, Note_on_c, 1, 67, 0
3, 75360, Note_on_c, 1, 74, 100
3, 75588, Note_on_c, 1, 74, 0
3, 75600, Note_on_c, 1, 72, 100
3, 76056, Note_on_c, 1, 72, 0
3, 76080, Note_on_c, 1, 74, 100
3, 76308, Note_on_c, 1, 74, 0
3, 76320, Note_on_c, 1, 70, 100
3, 77028, Note_on_c, 1, 70, 0
3, 77040, Note_on_c, 1, 69, 100
3, 77748, Note_on_c, 1, 69, 0
3, 77760, Note_on_c, 1, 67, 100
3, 78102, Note_on_c, 1, 67, 0
3, 78120, Note_on_c, 1, 69, 100
3, 78234, Note_on_c, 1, 69, 0
3, 78240, Note_on_c, 1, 70, 100
3, 78468, Note_on_c, 1, 70, 0
3, 78480, Note_on_c, 1, 72, 100
3, 78936, Note_on_c, 1, 72, 0
3, 78960, Note_on_c, 1, 74, 100
3, 79188, Note_on_c, 1, 74, 0
3, 79200, Control_c, 1, 7, 95
3, 79200, Note_on_c, 1, 67, 100
3, 79236, Control_c, 1, 7, 94
3, 79272, Control_c, 1, 7, 93
3, 79309, Control_c, 1, 7, 92
3, 79345, Control_c, 1, 7, 91
3, 79382, Control_c, 1, 7, 90
3, 79418, Control_c, 1, 7, 89
3, 79454, Control_c, 1, 7, 88
3, 79491, Control_c, 1, 7, 87
3, 79527, Control_c, 1, 7, 85
3, 79564, Control_c, 1, 7, 84
3, 79600, Control_c, 1, 7, 83
3, 79637, Control_c, 1, 7, 82
3, 79673, Control_c, 1, 7, 81
3, 79709, Control_c, 1, 7, 80
3, 79746, Control_c, 1, 7, 79
3, 79782, Control_c, 1, 7, 78
3, 79819, Control_c, 1, 7, 77
3, 79855, Control_c, 1, 7, 76
3, 79891, Control_c, 1, 7, 75
3, 79908, Note_on_c, 1, 67, 0
3, 79920, Note_on_c, 1, 79, 100
3, 79928, Control_c, 1, 7, 74
3, 79964, Control_c, 1, 7, 73
3, 80001, Control_c, 1, 7, 72
3, 80037, Control_c, 1, 7, 71
3, 80074, Control_c, 1, 7, 70
3, 80110, Control_c, 1, 7, 68
3, 80146, Control_c, 1, 7, 67
3, 80183, Control_c, 1, 7, 66
3, 80219, Control_c, 1, 7, 65
3, 80256, Control_c, 1, 7, 64
3, 80292, Control_c, 1, 7, 63
3, 80328, Control_c, 1, 7, 62
3, 80364, Control_c, 1, 7, 61
3, 80376, Note_on_c, 1, 79, 0
3, 80400, Control_c, 1, 7, 60
3, 80640, End_track
0, 0, End_of_file